<?xml version="1.0" standalone="no"?>
<!DOCTYPE svg PUBLIC "-//W3C//DTD SVG 1.1//EN" "http://www.w3.org/Graphics/SVG/1.1/DTD/svg11.dtd">
<svg xmlns="http://www.w3.org/2000/svg">
<defs >
<font id="Prompt" horiz-adv-x="596" ><font-face
    font-family="Prompt Medium"
    units-per-em="1000"
    panose-1="0 0 6 0 0 0 0 0 0 0"
    ascent="1090"
    descent="-422"
    alphabetic="0" />
<glyph unicode=" " glyph-name="space" horiz-adv-x="360" />
<glyph unicode="!" glyph-name="exclam" horiz-adv-x="222" d="M51 699H172V209H51V699ZM81 -15T61 5T40 55Q40 85 60 105T111 125Q141 125 161 105T182 55Q182 26 161 6T111 -15Q81 -15 61 5Z" />
<glyph unicode="&quot;" glyph-name="quotedbl" horiz-adv-x="349" d="M40 699H135V506H40V699ZM214 699H309V506H214V699Z" />
<glyph unicode="#" glyph-name="numbersign" horiz-adv-x="771" d="M134 161H40V254H160L209 426H82V519H235L286 699H396L345 519H536L587 699H698L647 519H731V426H621L572 254H689V161H546L501 0H390L435 161H244L199 0H89L134 161ZM461 254L510 426H319L270 254H461Z" />
<glyph unicode="$" glyph-name="dollar" horiz-adv-x="567" d="M232 -14Q176 -12 125 -1T40 27V136Q129 93 232 88V310Q134 350 90 399T46 521Q46 594 96 644T232 709V802H340V712Q421 706 491 675V569Q415 606 340 610V393Q407 364 447 336T507 271T527 181Q527
103 480 54T340 -9V-103H232V-14ZM232 596Q181 574 181 521Q181 493 193 475T232 441V596ZM390 128T390 182Q390 209 378 227T340 261V104Q390 128 390 182Z" />
<glyph unicode="%" glyph-name="percent" horiz-adv-x="891" d="M179 347T137 371T71 438T46 530Q46 580 70 622T137 689T229 714Q279 714 321 690T388 623T413 530Q413 480 389 438T322 372T229 347Q179 347 137 371ZM581 699H704L317 0H194L581 699ZM269 436T295
462T322 528Q322 568 296 594T229 621Q190 621 164 595T137 528Q137 489 163 463T229 436Q269 436 295 462ZM617 -15T575 9T509 76T484 168Q484 218 508 260T575 327T667 352Q717 352 759 328T826 261T851 168Q851 118 827 76T760 10T667 -15Q617 -15 575 9ZM706
74T732 100T759 166Q759 206 733 232T666 259Q627 259 601 233T574 166Q574 127 600 101T666 74Q706 74 732 100Z" />
<glyph unicode="&amp;" glyph-name="ampersand" horiz-adv-x="782" d="M180 -15T110 35T40 175Q40 242 76 288T194 383Q147 427 124 465T100 549Q100 597 124 634T193 693T296 714Q353 714 396 693T464 634T488 549Q488 492 460 451T364 366L535 205Q562 251 562
362H665Q665 284 654 232T613 131L752 0H604L539 60Q493 21 432 3T292 -15Q180 -15 110 35ZM339 454T362 481T385 541Q385 579 361 603T296 627Q256 627 232 603T208 541Q208 513 226 489T288 424Q339 454 362 481ZM347 69T392 85T467 129L275 315Q215 287 187
253T158 175Q158 123 197 96T293 69Q347 69 392 85Z" />
<glyph unicode="&apos;" glyph-name="quotesingle" horiz-adv-x="175" d="M40 699H135V506H40V699Z" />
<glyph unicode="(" glyph-name="parenleft" horiz-adv-x="340" d="M40 10T40 270Q40 530 190 714H320Q168 519 168 270Q168 21 320 -174H190Q40 10 40 270Z" />
<glyph unicode=")" glyph-name="parenright" horiz-adv-x="340" d="M172 21T172 270Q172 519 20 714H150Q300 530 300 270Q300 10 150 -174H20Q172 21 172 270Z" />
<glyph unicode="*" glyph-name="asterisk" horiz-adv-x="441" d="M81 417L159 525L40 567L70 635L177 596V699H264V596L371 636L401 567L282 526L361 418L293 374L221 475L149 373L81 417Z" />
<glyph unicode="+" glyph-name="plus" horiz-adv-x="412" d="M155 249H40V350H155V465H256V350H372V249H256V133H155V249Z" />
<glyph unicode="," glyph-name="comma" horiz-adv-x="293" d="M122 56H253L155 -148H40L122 56Z" />
<glyph unicode="-" glyph-name="hyphen" horiz-adv-x="412" d="M40 350H372V249H40V350Z" />
<glyph unicode="." glyph-name="period" horiz-adv-x="182" d="M70 0T55 14T40 50Q40 72 55 87T91 102Q112 102 127 87T142 50Q142 29 127 15T91 0Q70 0 55 14Z" />
<glyph unicode="/" glyph-name="slash" horiz-adv-x="488" d="M325 714H448L163 0H40L325 714Z" />
<glyph unicode="0" glyph-name="zero" horiz-adv-x="682" d="M249 -15T181 29T77 155T40 349Q40 461 76 543T179 670T341 714Q434 714 502 670T606 544T642 349Q642 237 606 155T502 29T341 -15Q249 -15 181 29ZM424 99T469 165T515 348Q515 464 470 531T342 598Q259
598 214 531T168 348Q168 232 213 166T341 99Q424 99 469 165Z" />
<glyph unicode="1" glyph-name="one" horiz-adv-x="374" d="M188 565L40 458V576L208 699H314V0H188V565Z" />
<glyph unicode="2" glyph-name="two" horiz-adv-x="585" d="M40 82L178 209L244 268Q299 316 327 345T374 407T392 480Q392 537 359 567T263 598Q215 598 164 581T70 531V652Q157 714 284 714Q396 714 458 654T520 490Q520 441 501 399T447 316T352 221L227 105H545V0H40V82Z"
/>
<glyph unicode="3" glyph-name="three" horiz-adv-x="580" d="M197 -15T140 -5T40 25V122Q135 79 242 79Q327 79 369 109T412 197Q412 256 371 280T242 305H155V403H239Q309 403 350 429T391 510Q391 564 355 592T252 620Q195 620 150 607T57 564V662Q147 714
269 714Q393 714 456 662T519 515Q519 463 492 421T410 355Q474 336 507 295T540 191Q540 94 473 40T259 -15Q197 -15 140 -5Z" />
<glyph unicode="4" glyph-name="four" horiz-adv-x="609" d="M354 166H20V241L357 699H481V261H589V166H481V0H354V166ZM372 261V552L159 261H372Z" />
<glyph unicode="5" glyph-name="five" horiz-adv-x="577" d="M185 -15T131 -3T40 30V137Q82 111 135 97T236 82Q409 82 409 219Q409 285 367 320T247 355Q212 355 173 348T104 329L51 359L78 699H488V594H193L180 434Q235 446 302 446Q413 446 475 385T537 219Q537
105 463 45T241 -15Q185 -15 131 -3Z" />
<glyph unicode="6" glyph-name="six" horiz-adv-x="619" d="M235 -15T173 21T76 126T40 291Q40 426 80 521T197 665T379 714Q440 714 487 700V598Q448 616 389 616Q291 616 234 558T166 388Q199 423 247 439T352 456Q420 456 471 428T551 349T579 226Q579 157
548 102T457 16T313 -15Q235 -15 173 21ZM377 78T415 117T454 220Q454 285 416 324T313 363Q253 363 213 323T173 220Q173 182 190 150T239 98T313 78Q377 78 415 117Z" />
<glyph unicode="7" glyph-name="seven" horiz-adv-x="545" d="M385 594H30V699H515V611L239 0H116L385 594Z" />
<glyph unicode="8" glyph-name="eight" horiz-adv-x="612" d="M184 -15T112 39T40 194Q40 259 72 303T159 364Q114 386 89 426T64 519Q64 610 130 662T306 714Q417 714 482 662T548 519Q548 467 523 427T453 364Q507 347 539 303T572 194Q572 94 501 40T306 -15Q184
-15 112 39ZM362 400T396 429T430 509Q430 559 396 590T306 621Q251 621 217 590T183 509Q183 459 217 430T306 400Q362 400 396 429ZM371 76T409 109T447 202Q447 259 408 292T306 325Q243 325 204 292T165 202Q165 143 203 110T306 76Q371 76 409 109Z" />
<glyph unicode="9" glyph-name="nine" horiz-adv-x="619" d="M179 -15T132 -1V101Q171 83 230 83Q328 83 385 141T453 311Q389 243 272 243Q204 243 152 271T70 351T40 473Q40 542 71 597T162 683T306 714Q384 714 446 678T543 573T579 408Q579 273 539 178T422
34T240 -15Q179 -15 132 -1ZM366 336T406 376T446 479Q446 517 429 549T380 601T306 621Q242 621 204 582T165 479Q165 414 203 375T306 336Q366 336 406 376Z" />
<glyph unicode=":" glyph-name="colon" horiz-adv-x="212" d="M79 356T60 375T40 422Q40 449 59 468T106 488Q133 488 152 469T172 422Q172 395 153 376T106 356Q79 356 60 375ZM79 16T60 35T40 82Q40 109 59 128T106 148Q133 148 152 129T172 82Q172 55 153 36T106
16Q79 16 60 35Z" />
<glyph unicode=";" glyph-name="semicolon" horiz-adv-x="293" d="M154 356T135 375T115 422Q115 449 134 468T181 488Q208 488 227 469T247 422Q247 395 228 376T181 356Q154 356 135 375ZM122 56H253L155 -148H40L122 56Z" />
<glyph unicode="&lt;" glyph-name="less" horiz-adv-x="543" d="M40 280V369L503 596V471L194 324L503 177V52L40 280Z" />
<glyph unicode="=" glyph-name="equal" horiz-adv-x="534" d="M40 502H494V403H40V502ZM40 282H494V183H40V282Z" />
<glyph unicode="&gt;" glyph-name="greater" horiz-adv-x="543" d="M40 177L349 324L40 471V596L503 369V280L40 52V177Z" />
<glyph unicode="?" glyph-name="question" horiz-adv-x="520" d="M159 232Q159 291 181 331T253 407L279 425Q321 454 338 473T356 524Q356 565 325 588T229 611Q181 611 131 600T40 570V675Q79 692 129 703T229 714Q345 714 412 664T480 524Q480 487 467 461T433
415T370 364Q327 331 312 317T288 283T280 231V209H159V232ZM188 -15T168 5T147 55Q147 85 167 105T218 125Q248 125 268 105T289 55Q289 26 268 6T218 -15Q188 -15 168 5Z" />
<glyph unicode="@" glyph-name="at" horiz-adv-x="911" d="M328 -76T235 -35T91 88T40 284Q40 410 95 507T250 659T482 714Q602 714 689 674T824 556T871 370Q871 255 823 182T686 109Q649 109 618 127T576 176Q553 143 515 126T430 109Q351 109 303 154T254 286Q254
354 282 408T361 493T482 524Q524 524 567 515T643 489L630 265Q628 231 643 212T683 193Q726 193 744 238T763 370Q763 497 694 558T482 619Q381 619 306 580T189 465T148 284Q148 151 225 84T451 17Q552 17 636 45V-45Q555 -76 451 -76Q328 -76 235 -35ZM485
196T509 220T535 280L544 427Q519 438 480 438Q428 438 395 398T362 295Q362 196 441 196Q485 196 509 220Z" />
<glyph unicode="A" glyph-name="A" horiz-adv-x="762" d="M320 699H443L722 0H593L529 161H233L170 0H40L320 699ZM494 266L381 563L268 266H494Z" />
<glyph unicode="B" glyph-name="B" horiz-adv-x="658" d="M60 699H392Q488 699 541 651T595 511Q595 462 572 423T509 362Q618 326 618 201Q618 139 590 94T515 24T409 0H60V699ZM372 408Q415 408 441 431T467 503Q467 558 442 578T366 599H186V408H372ZM380 100Q433
100 461 122T490 200Q490 256 460 281T373 306H186V100H380Z" />
<glyph unicode="C" glyph-name="C" horiz-adv-x="704" d="M304 -15T219 29T87 156T40 349Q40 459 87 541T219 669T414 714Q559 714 656 645V524Q569 598 425 598Q348 598 290 568T200 481T168 349Q168 273 200 217T291 131T425 100Q499 100 557 118T664 178V57Q572
-15 414 -15Q304 -15 219 29Z" />
<glyph unicode="D" glyph-name="D" horiz-adv-x="706" d="M60 699H294Q408 699 492 657T621 537T666 353Q666 179 565 90T283 0H60V699ZM285 105Q407 105 472 170T538 353Q538 424 509 478T426 563T298 594H187V105H285Z" />
<glyph unicode="E" glyph-name="E" horiz-adv-x="563" d="M60 699H533V594H187V402H444V297H187V105H533V0H60V699Z" />
<glyph unicode="F" glyph-name="F" horiz-adv-x="553" d="M60 699H533V593H187V397H444V302H187V0H60V699Z" />
<glyph unicode="G" glyph-name="G" horiz-adv-x="713" d="M304 -15T219 29T87 156T40 349Q40 459 87 541T219 669T414 714Q489 714 548 698T655 647V526Q611 564 554 581T425 598Q353 598 295 568T202 481T168 349Q168 273 200 217T289 130T419 99Q496 99 546
125V282H428V383H673V57Q580 -15 414 -15Q304 -15 219 29Z" />
<glyph unicode="H" glyph-name="H" horiz-adv-x="709" d="M60 699H187V409H523V699H649V0H523V304H187V0H60V699Z" />
<glyph unicode="I" glyph-name="I" horiz-adv-x="247" d="M60 699H187V0H60V699Z" />
<glyph unicode="J" glyph-name="J" horiz-adv-x="386" d="M102 -15T70 -10T20 4V110Q53 96 101 96Q199 96 199 189V699H326V182Q326 90 275 38T132 -15Q102 -15 70 -10Z" />
<glyph unicode="K" glyph-name="K" horiz-adv-x="686" d="M60 699H187V382L474 699H626L316 357L646 0H494L187 332V0H60V699Z" />
<glyph unicode="L" glyph-name="L" horiz-adv-x="543" d="M60 699H187V105H523V0H60V699Z" />
<glyph unicode="M" glyph-name="M" horiz-adv-x="836" d="M60 699H184L418 187L652 699H776V0H656V454L448 0H388L180 454V0H60V699Z" />
<glyph unicode="N" glyph-name="N" horiz-adv-x="694" d="M60 699H180L507 212V699H634V0H514L187 488V0H60V699Z" />
<glyph unicode="O" glyph-name="O" horiz-adv-x="821" d="M306 -15T222 30T89 159T40 349Q40 456 88 539T221 668T411 714Q515 714 599 668T732 539T781 349Q781 242 733 160T600 31T411 -15Q306 -15 222 30ZM478 100T533 130T620 217T653 349Q653 423 621 479T534
567T411 598Q343 598 288 567T200 480T168 349Q168 274 200 218T288 131T411 100Q478 100 533 130Z" />
<glyph unicode="P" glyph-name="P" horiz-adv-x="614" d="M60 699H340Q455 699 524 638T594 471Q594 361 525 304T339 246H187V0H60V699ZM324 351Q467 351 467 471Q467 594 324 594H187V351H324Z" />
<glyph unicode="Q" glyph-name="Q" horiz-adv-x="814" d="M310 0T223 43T88 166T40 352Q40 459 88 541T221 669T411 714Q515 714 599 669T732 542T781 352Q781 280 749 215T666 111H794V0H427Q310 0 223 43ZM522 115T587 177T653 352Q653 426 621 482T534 568T411
598Q343 598 288 568T200 482T168 352Q168 238 233 177T411 115Q522 115 587 177Z" />
<glyph unicode="R" glyph-name="R" horiz-adv-x="634" d="M60 699H352Q468 699 531 642T594 477Q594 400 556 346T448 269L590 0H460L325 256H187V0H60V699ZM329 361Q391 361 429 390T467 477Q467 594 329 594H187V361H329Z" />
<glyph unicode="S" glyph-name="S" horiz-adv-x="567" d="M200 -15T140 -4T40 27V136Q90 112 145 100T253 88Q320 88 355 113T390 182Q390 213 374 233T327 269T232 310Q134 350 90 399T46 521Q46 578 77 622T164 690T293 714Q353 714 399 705T491 675V569Q404
611 315 611Q251 611 216 588T181 521Q181 490 197 471T239 438T335 395Q405 366 445 338T506 273T527 181Q527 88 460 37T262 -15Q200 -15 140 -4Z" />
<glyph unicode="T" glyph-name="T" horiz-adv-x="589" d="M231 594H20V699H569V594H358V0H231V594Z" />
<glyph unicode="U" glyph-name="U" horiz-adv-x="707" d="M206 -15T131 62T55 272V699H182V270Q182 187 228 144T354 100Q432 100 478 143T525 270V699H652V272Q652 140 577 63T354 -15Q206 -15 131 62Z" />
<glyph unicode="V" glyph-name="V" horiz-adv-x="762" d="M40 699H175L381 170L588 699H722L443 0H320L40 699Z" />
<glyph unicode="W" glyph-name="W" horiz-adv-x="994" d="M40 699H172L311 205L448 699H546L683 205L822 699H954L755 0H637L497 486L357 0H239L40 699Z" />
<glyph unicode="X" glyph-name="X" horiz-adv-x="742" d="M299 353L46 699H191L371 452L552 699H697L444 353L702 0H557L371 254L185 0H40L299 353Z" />
<glyph unicode="Y" glyph-name="Y" horiz-adv-x="714" d="M294 266L40 699H175L355 388L540 699H674L415 266V0H294V266Z" />
<glyph unicode="Z" glyph-name="Z" horiz-adv-x="619" d="M40 83L406 594H49V699H561V616L196 105H579V0H40V83Z" />
<glyph unicode="[" glyph-name="bracketleft" horiz-adv-x="319" d="M40 787H289V682H167V9H289V-96H40V787Z" />
<glyph unicode="\" glyph-name="backslash" horiz-adv-x="488" d="M40 714H163L448 0H325L40 714Z" />
<glyph unicode="]" glyph-name="bracketright" horiz-adv-x="319" d="M30 9H152V682H30V787H279V-96H30V9Z" />
<glyph unicode="^" glyph-name="asciicircum" horiz-adv-x="564" d="M232 719H332L524 387H403L282 601L161 387H40L232 719Z" />
<glyph unicode="_" glyph-name="underscore" horiz-adv-x="488" d="M40 0H448V-111H40V0Z" />
<glyph unicode="`" glyph-name="grave" horiz-adv-x="282" d="M40 743H173L242 569H126L40 743Z" />
<glyph unicode="a" glyph-name="a" horiz-adv-x="577" d="M150 -15T95 30T40 153Q40 233 92 278T238 323Q329 323 395 286V299Q395 350 364 373T262 396Q218 396 175 388T99 364V463Q129 477 179 486T277 495Q402 495 462 442T522 293V0H403V47Q372 17 333 1T236
-15Q150 -15 95 30ZM309 77T343 93T395 139V192Q340 231 269 231Q168 231 168 153Q168 115 193 96T267 77Q309 77 343 93Z" />
<glyph unicode="b" glyph-name="b" horiz-adv-x="665" d="M311 -15T267 1T182 56V0H60V739H186V433Q220 464 268 479T372 495Q445 495 502 463T592 372T625 239Q625 163 593 106T503 17T372 -15Q311 -15 267 1ZM409 84T453 127T497 239Q497 308 453 352T341 396Q287
396 245 367T186 288V191Q203 142 245 113T341 84Q409 84 453 127Z" />
<glyph unicode="c" glyph-name="c" horiz-adv-x="548" d="M237 -15T174 15T75 102T40 239Q40 319 75 376T174 464T323 495Q435 495 502 451V350Q437 396 336 396Q259 396 214 358T168 239Q168 160 213 122T334 84Q435 84 508 132V32Q472 8 427 -3T321 -15Q237
-15 174 15Z" />
<glyph unicode="d" glyph-name="d" horiz-adv-x="665" d="M220 -15T163 16T73 105T40 239Q40 314 72 372T162 462T293 495Q411 495 479 433V739H605V0H483V56Q442 18 398 2T293 -15Q220 -15 163 16ZM378 84T420 113T479 191V288Q463 337 421 366T324 396Q256 396
212 352T168 239Q168 170 212 127T324 84Q378 84 420 113Z" />
<glyph unicode="e" glyph-name="e" horiz-adv-x="609" d="M196 -15T118 52T40 239Q40 357 109 426T306 495Q390 495 449 463T539 376T569 249V191H160Q173 84 346 84Q392 84 440 92T524 114V17Q490 3 437 -6T330 -15Q196 -15 118 52ZM450 277Q448 334 410 365T304
396Q238 396 200 364T160 277H450Z" />
<glyph unicode="f" glyph-name="f" horiz-adv-x="364" d="M91 384H20V480H91V563Q91 651 143 697T280 744Q328 744 364 730V628Q337 640 305 640Q260 640 239 620T217 554V480H334V384H217V0H91V384Z" />
<glyph unicode="g" glyph-name="g" horiz-adv-x="665" d="M266 -230T218 -221T138 -197V-97Q216 -131 314 -131Q402 -131 440 -94T479 16V47Q445 16 398 1T297 -15Q224 -15 165 17T73 108T40 241Q40 317 72 374T162 463T293 495Q354 495 398 479T483 424V480H605V29Q605
-95 534 -162T314 -230Q266 -230 218 -221ZM378 84T420 113T479 192V289Q462 338 420 367T324 396Q256 396 212 353T168 241Q168 172 212 128T324 84Q378 84 420 113Z" />
<glyph unicode="h" glyph-name="h" horiz-adv-x="610" d="M60 739H186V419Q254 495 362 495Q459 495 507 443T555 303V0H429V291Q429 396 331 396Q288 396 250 376T186 314V0H60V739Z" />
<glyph unicode="i" glyph-name="i" horiz-adv-x="263" d="M101 564T81 584T60 634Q60 664 80 684T131 705Q161 705 182 685T203 634Q203 604 182 584T131 564Q101 564 81 584ZM67 480H195V0H67V480Z" />
<glyph unicode="j" glyph-name="j" horiz-adv-x="257" d="M96 564T76 584T55 634Q55 663 75 683T126 704Q155 704 176 684T197 634Q197 604 177 584T126 564Q96 564 76 584ZM-44 -231T-80 -218V-116Q-53 -128 -18 -128Q23 -128 43 -108T63 -43V480H189V-56Q189
-143 139 -187T4 -231Q-44 -231 -80 -218Z" />
<glyph unicode="k" glyph-name="k" horiz-adv-x="589" d="M60 739H186V269L377 480H525L311 245L549 0H401L186 222V0H60V739Z" />
<glyph unicode="l" glyph-name="l" horiz-adv-x="246" d="M60 739H186V0H60V739Z" />
<glyph unicode="m" glyph-name="m" horiz-adv-x="872" d="M60 480H178V417Q210 455 253 475T340 495Q396 495 430 477T481 421Q513 457 558 476T649 495Q739 495 778 450T817 318V0H696V301Q696 352 676 374T610 396Q578 396 552 384T503 341Q505 309 505 289V0H383V303Q383
355 366 375T304 396Q236 396 182 319V0H60V480Z" />
<glyph unicode="n" glyph-name="n" horiz-adv-x="610" d="M60 480H182V415Q216 456 263 475T362 495Q459 495 507 443T555 303V0H429V291Q429 396 331 396Q288 396 250 376T186 314V0H60V480Z" />
<glyph unicode="o" glyph-name="o" horiz-adv-x="642" d="M237 -15T174 15T75 103T40 240Q40 317 74 374T173 463T321 495Q405 495 468 464T567 375T602 240Q602 161 567 104T469 16T321 -15Q237 -15 174 15ZM390 84T431 127T472 240Q472 313 432 354T321 396Q251
396 211 355T170 240Q170 171 211 128T321 84Q390 84 431 127Z" />
<glyph unicode="p" glyph-name="p" horiz-adv-x="665" d="M60 480H182V422Q221 459 267 477T372 495Q445 495 502 464T592 375T625 241Q625 166 593 108T503 18T372 -15Q317 -15 269 0T186 47V-219H60V480ZM409 84T453 128T497 241Q497 310 453 353T341 396Q287
396 245 367T186 289V192Q202 143 244 114T341 84Q409 84 453 128Z" />
<glyph unicode="q" glyph-name="q" horiz-adv-x="665" d="M479 47Q445 16 397 1T293 -15Q220 -15 163 17T73 108T40 241Q40 317 72 374T162 463T293 495Q352 495 398 477T483 422V480H605V-219H479V47ZM378 84T420 113T479 192V289Q462 338 420 367T324 396Q256
396 212 353T168 241Q168 172 212 128T324 84Q378 84 420 113Z" />
<glyph unicode="r" glyph-name="r" horiz-adv-x="407" d="M60 480H182V403Q211 442 264 461T387 480V384Q314 384 261 362T186 291V0H60V480Z" />
<glyph unicode="s" glyph-name="s" horiz-adv-x="499" d="M195 -15T136 -3T44 30V137Q83 113 137 99T239 84Q287 84 309 92T331 124Q331 142 320 153T283 174T204 198Q144 215 110 233T58 278T40 350Q40 422 97 458T251 495Q301 495 350 486T428 459V356Q398 374
355 385T267 396Q218 396 193 387T168 350Q168 332 181 322T217 304T297 281Q359 264 394 244T444 196T459 126Q459 62 405 24T247 -15Q195 -15 136 -3Z" />
<glyph unicode="t" glyph-name="t" horiz-adv-x="388" d="M174 -15T133 29T92 153V384H20V480H92V624H218V480H333V384H218V169Q218 123 235 104T297 84Q328 84 358 98V2Q315 -15 253 -15Q174 -15 133 29Z" />
<glyph unicode="u" glyph-name="u" horiz-adv-x="610" d="M151 -15T103 37T55 177V480H181V189Q181 84 279 84Q322 84 360 104T424 166V480H550V0H428V65Q394 24 347 5T248 -15Q151 -15 103 37Z" />
<glyph unicode="v" glyph-name="v" horiz-adv-x="594" d="M40 480H167L297 148L427 480H554L356 0H238L40 480Z" />
<glyph unicode="w" glyph-name="w" horiz-adv-x="830" d="M40 480H166L264 155L360 480H470L566 155L664 480H790L633 0H517L415 326L313 0H197L40 480Z" />
<glyph unicode="x" glyph-name="x" horiz-adv-x="630" d="M245 249L54 480H194L315 333L436 480H576L385 249L590 0H451L315 164L179 0H40L245 249Z" />
<glyph unicode="y" glyph-name="y" horiz-adv-x="600" d="M149 -198T121 -195T76 -185V-89Q101 -99 138 -99Q176 -99 195 -82T228 -28L247 22L40 480H167L315 130L454 480H580L370 -43Q338 -122 293 -160T175 -198Q149 -198 121 -195Z" />
<glyph unicode="z" glyph-name="z" horiz-adv-x="501" d="M40 79L295 384H47V480H453V401L199 96H461V0H40V79Z" />
<glyph unicode="{" glyph-name="braceleft" horiz-adv-x="344" d="M152 -97T129 -72T105 5V219Q105 253 90 271T43 290H20V401H43Q74 401 89 419T105 471V685Q105 736 128 761T195 787H304V681H268Q247 681 239 672T231 639V452Q231 368 164 346V344Q231 325 231
238V51Q231 28 239 19T268 9H304V-97H195Q152 -97 129 -72Z" />
<glyph unicode="|" glyph-name="bar" horiz-adv-x="207" d="M40 812H167V-144H40V812Z" />
<glyph unicode="}" glyph-name="braceright" horiz-adv-x="344" d="M40 9H76Q97 9 105 18T113 51V238Q113 325 180 344V346Q113 368 113 452V639Q113 662 105 671T76 681H40V787H149Q192 787 215 762T239 685V471Q239 437 254 419T301 401H324V290H301Q270 290
255 272T239 219V5Q239 -46 216 -71T149 -97H40V9Z" />
<glyph unicode="~" glyph-name="asciitilde" horiz-adv-x="541" d="M360 263T333 271T268 294Q227 309 203 316T153 323Q83 323 40 264V377Q56 401 85 414T153 427Q181 427 207 420T276 396Q312 382 337 375T388 367Q458 367 501 426V313Q485 289 456 276T388
263Q360 263 333 271Z" />
<glyph unicode="&#xa0;" glyph-name="uni00A0" horiz-adv-x="360" />
<glyph unicode="&#xa1;" glyph-name="exclamdown" horiz-adv-x="222" d="M81 410T61 430T40 480Q40 509 60 529T111 550Q140 550 161 530T182 480Q182 450 162 430T111 410Q81 410 61 430ZM51 321H172V-169H51V321Z" />
<glyph unicode="&#xa2;" glyph-name="cent" horiz-adv-x="548" d="M269 -12Q163 1 102 66T40 239Q40 345 101 411T269 491V581H377V492Q450 485 502 451V350Q452 386 377 394V86Q452 95 508 132V32Q455 -3 377 -12V-101H269V-12ZM269 387Q221 373 195 336T168
239Q168 179 195 143T269 92V387Z" />
<glyph unicode="&#xa3;" glyph-name="sterling" horiz-adv-x="492" d="M40 105H118V320H45V425H118V523Q118 584 146 627T221 692T327 714Q375 714 411 700V598Q384 610 352 610Q303 610 274 585T245 514V425H409V320H245V105H452V0H40V105Z" />
<glyph unicode="&#xa4;" glyph-name="currency" horiz-adv-x="598" d="M40 112L125 175Q95 219 95 275Q95 331 125 376L41 439L94 505L182 435Q233 473 299 473Q365 473 416 435L504 505L557 439L473 376Q503 331 503 275Q503 219 473 175L558 112L504 45L415
114Q364 77 299 77Q234 77 183 114L94 45L40 112ZM342 170T372 200T403 275Q403 319 373 350T299 381Q256 381 226 350T195 275Q195 231 225 201T299 170Q342 170 372 200Z" />
<glyph unicode="&#xa5;" glyph-name="yen" horiz-adv-x="714" d="M294 95H157V179H294V243H157V326H259L40 699H175L355 388L540 699H674L451 326H552V243H415V179H552V95H415V0H294V95Z" />
<glyph unicode="&#xa6;" glyph-name="brokenbar" horiz-adv-x="207" d="M40 812H167V423H40V812ZM40 245H167V-144H40V245Z" />
<glyph unicode="&#xa7;" glyph-name="section" horiz-adv-x="567" d="M200 -170T140 -159T40 -128V-19Q90 -43 145 -55T253 -67Q320 -67 355 -42T390 27Q390 58 375 77T329 112T232 156Q134 197 90 245T46 366Q46 409 66 441Q46 474 46 521Q46 578 77 622T164
690T293 714Q353 714 399 705T491 675V569Q404 611 315 611Q256 611 219 585T181 518Q181 482 216 455T335 391Q411 357 449 333T507 274T527 181Q527 142 509 106Q527 70 527 26Q527 -67 460 -118T262 -170Q200 -170 140 -159ZM424 179T424 192Q424 220 409 239T366
273T281 312Q243 328 209 347T159 382Q154 365 154 350Q154 315 186 290T290 234Q342 211 373 195T420 161Q424 179 424 192Z" />
<glyph unicode="&#xa8;" glyph-name="dieresis" horiz-adv-x="450" d="M80 578T60 597T40 644Q40 672 60 691T107 711Q134 711 153 692T173 644Q173 616 154 597T107 578Q80 578 60 597ZM317 578T297 597T277 644Q277 672 297 691T344 711Q371 711 390 692T410
644Q410 616 391 597T344 578Q317 578 297 597Z" />
<glyph unicode="&#xa9;" glyph-name="copyright" horiz-adv-x="817" d="M307 -15T223 31T89 159T40 349Q40 456 89 539T222 668T409 714Q511 714 595 668T728 539T777 349Q777 242 728 160T595 31T409 -15Q307 -15 223 31ZM482 91T540 121T631 210T665 349Q665
428 632 486T541 576T409 607Q335 607 277 576T186 487T153 349Q153 269 186 211T278 122T409 91Q482 91 540 121ZM308 129T247 187T186 348Q186 416 214 466T292 542T408 568Q505 568 563 530V439Q535 459 499 468T421 478Q291 478 291 348Q291 219 419 219Q506
219 569 261V170Q507 129 406 129Q308 129 247 187Z" />
<glyph unicode="&#xaa;" glyph-name="ordfeminine" horiz-adv-x="425" d="M118 349T79 381T40 469Q40 526 77 558T182 591Q248 591 294 564V574Q294 610 272 626T199 643Q131 643 82 620V691Q104 701 140 707T210 714Q299 714 342 676T385 569V360H300V393Q278
372 250 361T180 349Q118 349 79 381ZM232 415T256 426T294 459V497Q256 525 204 525Q132 525 132 469Q132 442 150 429T202 415Q232 415 256 426Z" />
<glyph unicode="&#xab;" glyph-name="guillemotleft" horiz-adv-x="628" d="M40 308V340L277 546L340 467L171 324L340 182L277 103L40 308ZM288 308V340L525 546L588 467L419 324L588 182L525 103L288 308Z" />
<glyph unicode="&#xac;" glyph-name="logicalnot" horiz-adv-x="446" d="M280 254H40V350H406V132H280V254Z" />
<glyph unicode="&#xad;" glyph-name="uni00AD" horiz-adv-x="412" d="M40 350H372V249H40V350Z" />
<glyph unicode="&#xae;" glyph-name="registered" horiz-adv-x="817" d="M307 -15T223 31T89 159T40 349Q40 456 89 539T222 668T409 714Q511 714 595 668T728 539T777 349Q777 242 728 160T595 31T409 -15Q307 -15 223 31ZM482 91T540 121T631 210T665 349Q665
428 632 486T541 576T409 607Q335 607 277 576T186 487T153 349Q153 269 186 211T278 122T409 91Q482 91 540 121ZM260 557H429Q498 557 540 523T582 427Q582 382 556 351T484 308L565 146H467L388 302H357V146H260V557ZM425 376Q462 376 478 388T495 427Q495 458
479 470T425 482H357V376H425Z" />
<glyph unicode="&#xaf;" glyph-name="overscore" horiz-adv-x="403" d="M40 678H363V594H40V678Z" />
<glyph unicode="&#xb0;" glyph-name="degree" horiz-adv-x="368" d="M145 439T112 458T60 511T40 583Q40 622 59 655T112 707T184 727Q223 727 256 708T308 655T328 583Q328 544 309 511T256 459T184 439Q145 439 112 458ZM211 516T230 536T250 583Q250 610 231
629T184 649Q157 649 138 630T118 583Q118 556 138 536T184 516Q211 516 230 536Z" />
<glyph unicode="&#xb1;" glyph-name="plusminus" horiz-adv-x="412" d="M155 269H40V370H155V485H256V370H372V269H256V153H155V269ZM40 101H372V0H40V101Z" />
<glyph unicode="&#xb2;" glyph-name="uni00B2" horiz-adv-x="342" d="M40 429L106 484Q163 531 183 552T204 596Q204 631 159 631Q135 631 104 622T54 599V680Q73 692 105 700T165 709Q231 709 264 678T298 601Q298 577 290 559T266 527T218 484L168 442H302V370H40V429Z" />
<glyph unicode="&#xb3;" glyph-name="uni00B3" horiz-adv-x="347" d="M85 360T40 379V450Q61 440 90 435T143 429Q174 429 191 437T209 466Q209 485 194 493T144 502H95V570H143Q200 570 200 603Q200 620 184 629T138 639Q93 639 47 613V684Q94 709 166 709Q228
709 263 684T298 613Q298 560 248 536Q307 520 307 459Q307 413 270 387T163 360Q85 360 40 379Z" />
<glyph unicode="&#xb4;" glyph-name="acute" horiz-adv-x="282" d="M110 743H242L156 569H40L110 743Z" />
<glyph unicode="&#xb6;" glyph-name="paragraph" horiz-adv-x="758" d="M341 261H282Q172 261 106 325T40 509Q40 631 112 696T305 762H718V-134H591V657H468V-134H341V261Z" />
<glyph unicode="&#xb7;" glyph-name="middot" horiz-adv-x="182" d="M70 245T55 260T40 296Q40 317 55 332T91 347Q112 347 127 332T142 296Q142 275 127 260T91 245Q70 245 55 260Z" />
<glyph unicode="&#xb8;" glyph-name="cedilla" horiz-adv-x="315" d="M104 -248T79 -245T40 -236L41 -167Q52 -172 68 -175T99 -179Q158 -179 158 -138Q158 -114 135 -100T59 -85L92 0H205L185 -52Q228 -57 251 -83T275 -150Q275 -197 236 -222T131 -248Q104 -248
79 -245Z" />
<glyph unicode="&#xb9;" glyph-name="uni00B9" horiz-adv-x="236" d="M122 605L40 546V632L131 699H216V370H122V605Z" />
<glyph unicode="&#xba;" glyph-name="ordmasculine" horiz-adv-x="483" d="M150 348T95 397T40 531Q40 614 95 664T242 714Q333 714 388 664T443 531Q443 446 389 397T242 348Q150 348 95 397ZM290 421T319 451T348 531Q348 582 320 611T242 641Q192 641 164 612T135
531Q135 482 164 452T242 421Q290 421 319 451Z" />
<glyph unicode="&#xbb;" glyph-name="guillemotright" horiz-adv-x="628" d="M40 182L209 324L40 467L103 546L340 340V308L103 103L40 182ZM288 182L457 324L288 467L351 546L588 340V308L351 103L288 182Z" />
<glyph unicode="&#xbc;" glyph-name="onequarter" horiz-adv-x="733" d="M122 605L40 546V632L131 699H216V370H122V605ZM488 699H617L230 0H101L488 699ZM553 68H399V132L546 329H647V136H693V68H647V0H553V68ZM567 136V241L487 136H567Z" />
<glyph unicode="&#xbd;" glyph-name="onehalf" horiz-adv-x="749" d="M122 605L40 546V632L131 699H216V370H122V605ZM488 699H617L230 0H101L488 699ZM447 59L513 114Q570 161 590 182T611 226Q611 261 566 261Q542 261 511 252T461 229V310Q480 322 512 330T572
339Q638 339 671 308T705 231Q705 207 697 189T673 157T625 114L575 72H709V0H447V59Z" />
<glyph unicode="&#xbe;" glyph-name="threequarters" horiz-adv-x="745" d="M85 360T40 379V450Q61 440 90 435T143 429Q174 429 191 437T209 466Q209 485 194 493T144 502H95V570H143Q200 570 200 603Q200 620 184 629T138 639Q93 639 47 613V684Q94 709 166
709Q228 709 263 684T298 613Q298 560 248 536Q307 520 307 459Q307 413 270 387T163 360Q85 360 40 379ZM500 699H629L242 0H113L500 699ZM565 68H411V132L558 329H659V136H705V68H659V0H565V68ZM579 136V241L499 136H579Z" />
<glyph unicode="&#xbf;" glyph-name="questiondown" horiz-adv-x="520" d="M272 410T252 430T231 480Q231 509 252 529T302 550Q332 550 352 530T373 480Q373 450 353 430T302 410Q272 410 252 430ZM175 -179T108 -129T40 11Q40 48 53 74T87 120T150 171Q193 204
208 218T232 252T240 304V326H361V303Q361 244 339 204T267 128L241 110Q199 81 182 62T164 11Q164 -30 195 -53T291 -76Q339 -76 389 -65T480 -35V-140Q441 -157 391 -168T291 -179Q175 -179 108 -129Z" />
<glyph unicode="&#xc0;" glyph-name="Agrave" horiz-adv-x="762" d="M234 916H367L436 742H320L234 916ZM320 699H443L722 0H593L529 161H233L170 0H40L320 699ZM494 266L381 563L268 266H494Z" />
<glyph unicode="&#xc1;" glyph-name="Aacute" horiz-adv-x="762" d="M398 916H531L445 742H329L398 916ZM320 699H443L722 0H593L529 161H233L170 0H40L320 699ZM494 266L381 563L268 266H494Z" />
<glyph unicode="&#xc2;" glyph-name="Acircumflex" horiz-adv-x="762" d="M326 913H438L584 742H458L382 841L306 742H179L326 913ZM320 699H443L722 0H593L529 161H233L170 0H40L320 699ZM494 266L381 563L268 266H494Z" />
<glyph unicode="&#xc3;" glyph-name="Atilde" horiz-adv-x="762" d="M187 845Q219 888 287 888Q309 888 330 882T384 863Q412 851 433 845T476 838Q538 838 576 889V786Q545 744 476 744Q451 744 428 750T375 770Q345 782 327 788T287 794Q258 794 234 782T187
742V845ZM320 699H443L722 0H593L529 161H233L170 0H40L320 699ZM494 266L381 563L268 266H494Z" />
<glyph unicode="&#xc4;" glyph-name="Adieresis" horiz-adv-x="762" d="M236 752T216 771T196 818Q196 846 216 865T263 885Q290 885 309 866T329 818Q329 790 310 771T263 752Q236 752 216 771ZM473 752T453 771T433 818Q433 846 453 865T500 885Q527 885 546
866T566 818Q566 790 547 771T500 752Q473 752 453 771ZM320 699H443L722 0H593L529 161H233L170 0H40L320 699ZM494 266L381 563L268 266H494Z" />
<glyph unicode="&#xc5;" glyph-name="Aring" horiz-adv-x="762" d="M722 0H593L529 161H233L170 0H40L311 676Q286 693 272 719T257 778Q257 830 293 866T381 903Q433 903 469 867T506 778Q506 746 492 720T452 676L722 0ZM360 829T345 814T330 778Q330 757 345
742T381 727Q402 727 417 742T432 778Q432 799 417 814T381 829Q360 829 345 814ZM494 266L381 563L268 266H494Z" />
<glyph unicode="&#xc6;" glyph-name="AE" horiz-adv-x="924" d="M371 699H884V594H573V402H795V297H573V105H884V0H446V171H255L176 0H40L371 699ZM446 266V582H443L303 266H446Z" />
<glyph unicode="&#xc7;" glyph-name="Ccedilla" horiz-adv-x="704" d="M592 1T480 -12L464 -52Q507 -57 530 -83T554 -150Q554 -197 515 -222T410 -248Q383 -248 358 -245T319 -236L320 -167Q331 -172 347 -175T378 -179Q437 -179 437 -138Q437 -114 414 -100T338
-85L366 -13Q269 -4 195 43T81 168T40 349Q40 459 87 541T219 669T414 714Q559 714 656 645V524Q569 598 425 598Q348 598 290 568T200 481T168 349Q168 273 200 217T291 131T425 100Q499 100 557 118T664 178V57Q592 1 480 -12Z" />
<glyph unicode="&#xc8;" glyph-name="Egrave" horiz-adv-x="573" d="M153 916H286L355 742H239L153 916ZM60 699H533V594H187V402H444V297H187V105H533V0H60V699Z" />
<glyph unicode="&#xc9;" glyph-name="Eacute" horiz-adv-x="563" d="M287 916H420L334 742H218L287 916ZM60 699H533V594H187V402H444V297H187V105H533V0H60V699Z" />
<glyph unicode="&#xca;" glyph-name="Ecircumflex" horiz-adv-x="573" d="M226 913H338L484 742H358L282 841L206 742H79L226 913ZM60 699H533V594H187V402H444V297H187V105H533V0H60V699Z" />
<glyph unicode="&#xcb;" glyph-name="Edieresis" horiz-adv-x="573" d="M144 752T124 771T104 818Q104 846 124 865T171 885Q198 885 217 866T237 818Q237 790 218 771T171 752Q144 752 124 771ZM381 752T361 771T341 818Q341 846 361 865T408 885Q435 885 454
866T474 818Q474 790 455 771T408 752Q381 752 361 771ZM60 699H533V594H187V402H444V297H187V105H533V0H60V699Z" />
<glyph unicode="&#xcc;" glyph-name="Igrave" horiz-adv-x="253" d="M-19 916H114L183 742H67L-19 916ZM63 699H190V0H63V699Z" />
<glyph unicode="&#xcd;" glyph-name="Iacute" horiz-adv-x="253" d="M138 916H271L185 742H69L138 916ZM63 699H190V0H63V699Z" />
<glyph unicode="&#xce;" glyph-name="Icircumflex" horiz-adv-x="253" d="M71 913H183L329 742H203L127 841L51 742H-76L71 913ZM63 699H190V0H63V699Z" />
<glyph unicode="&#xcf;" glyph-name="Idieresis" horiz-adv-x="253" d="M-19 752T-39 771T-59 818Q-59 846 -39 865T8 885Q35 885 54 866T74 818Q74 790 55 771T8 752Q-19 752 -39 771ZM218 752T198 771T178 818Q178 846 198 865T245 885Q272 885 291 866T311
818Q311 790 292 771T245 752Q218 752 198 771ZM63 699H190V0H63V699Z" />
<glyph unicode="&#xd0;" glyph-name="Eth" horiz-adv-x="725" d="M79 301H20V397H79V699H313Q427 699 511 657T640 537T685 353Q685 179 584 90T302 0H79V301ZM304 105Q426 105 491 170T557 353Q557 424 528 478T445 563T317 594H206V397H378V301H206V105H304Z" />
<glyph unicode="&#xd1;" glyph-name="Ntilde" horiz-adv-x="694" d="M160 845Q192 888 260 888Q282 888 303 882T357 863Q385 851 406 845T449 838Q511 838 549 889V786Q518 744 449 744Q424 744 401 750T348 770Q318 782 300 788T260 794Q231 794 207 782T160
742V845ZM60 699H180L507 212V699H634V0H514L187 488V0H60V699Z" />
<glyph unicode="&#xd2;" glyph-name="Ograve" horiz-adv-x="821" d="M275 916H408L477 742H361L275 916ZM306 -15T222 30T89 159T40 349Q40 456 88 539T221 668T411 714Q515 714 599 668T732 539T781 349Q781 242 733 160T600 31T411 -15Q306 -15 222 30ZM478
100T533 130T620 217T653 349Q653 423 621 479T534 567T411 598Q343 598 288 567T200 480T168 349Q168 274 200 218T288 131T411 100Q478 100 533 130Z" />
<glyph unicode="&#xd3;" glyph-name="Oacute" horiz-adv-x="821" d="M420 916H553L467 742H351L420 916ZM306 -15T222 30T89 159T40 349Q40 456 88 539T221 668T411 714Q515 714 599 668T732 539T781 349Q781 242 733 160T600 31T411 -15Q306 -15 222 30ZM478
100T533 130T620 217T653 349Q653 423 621 479T534 567T411 598Q343 598 288 567T200 480T168 349Q168 274 200 218T288 131T411 100Q478 100 533 130Z" />
<glyph unicode="&#xd4;" glyph-name="Ocircumflex" horiz-adv-x="821" d="M355 913H467L613 742H487L411 841L335 742H208L355 913ZM306 -15T222 30T89 159T40 349Q40 456 88 539T221 668T411 714Q515 714 599 668T732 539T781 349Q781 242 733 160T600 31T411
-15Q306 -15 222 30ZM478 100T533 130T620 217T653 349Q653 423 621 479T534 567T411 598Q343 598 288 567T200 480T168 349Q168 274 200 218T288 131T411 100Q478 100 533 130Z" />
<glyph unicode="&#xd5;" glyph-name="Otilde" horiz-adv-x="821" d="M217 845Q249 888 317 888Q339 888 360 882T414 863Q442 851 463 845T506 838Q568 838 606 889V786Q575 744 506 744Q481 744 458 750T405 770Q375 782 357 788T317 794Q288 794 264 782T217
742V845ZM306 -15T222 30T89 159T40 349Q40 456 88 539T221 668T411 714Q515 714 599 668T732 539T781 349Q781 242 733 160T600 31T411 -15Q306 -15 222 30ZM478 100T533 130T620 217T653 349Q653 423 621 479T534 567T411 598Q343 598 288 567T200 480T168 349Q168
274 200 218T288 131T411 100Q478 100 533 130Z" />
<glyph unicode="&#xd6;" glyph-name="Odieresis" horiz-adv-x="821" d="M265 752T245 771T225 818Q225 846 245 865T292 885Q319 885 338 866T358 818Q358 790 339 771T292 752Q265 752 245 771ZM502 752T482 771T462 818Q462 846 482 865T529 885Q556 885 575
866T595 818Q595 790 576 771T529 752Q502 752 482 771ZM306 -15T222 30T89 159T40 349Q40 456 88 539T221 668T411 714Q515 714 599 668T732 539T781 349Q781 242 733 160T600 31T411 -15Q306 -15 222 30ZM478 100T533 130T620 217T653 349Q653 423 621 479T534
567T411 598Q343 598 288 567T200 480T168 349Q168 274 200 218T288 131T411 100Q478 100 533 130Z" />
<glyph unicode="&#xd7;" glyph-name="multiply" horiz-adv-x="387" d="M193 232L113 152L41 223L122 304L40 386L112 457L193 375L275 458L347 386L265 304L346 223L275 151L193 232Z" />
<glyph unicode="&#xd8;" glyph-name="Oslash" horiz-adv-x="821" d="M222 30Q137 76 89 159T40 349Q40 456 88 539T221 668T411 714Q451 714 493 706L525 784H649L602 666Q685 620 733 538T781 349Q781 242 733 160T600 31T411 -15Q372 -15 330 -7L299 -86H175L222
30ZM449 595Q430 598 411 598Q343 598 288 567T200 480T168 349Q168 281 194 228T267 143L449 595ZM478 100T533 130T620 217T653 349Q653 415 627 467T556 553L375 102Q397 100 411 100Q478 100 533 130Z" />
<glyph unicode="&#xd9;" glyph-name="Ugrave" horiz-adv-x="707" d="M214 916H347L416 742H300L214 916ZM206 -15T131 62T55 272V699H182V270Q182 187 228 144T354 100Q432 100 478 143T525 270V699H652V272Q652 140 577 63T354 -15Q206 -15 131 62Z" />
<glyph unicode="&#xda;" glyph-name="Uacute" horiz-adv-x="707" d="M358 916H491L405 742H289L358 916ZM206 -15T131 62T55 272V699H182V270Q182 187 228 144T354 100Q432 100 478 143T525 270V699H652V272Q652 140 577 63T354 -15Q206 -15 131 62Z" />
<glyph unicode="&#xdb;" glyph-name="Ucircumflex" horiz-adv-x="707" d="M298 913H410L556 742H430L354 841L278 742H151L298 913ZM206 -15T131 62T55 272V699H182V270Q182 187 228 144T354 100Q432 100 478 143T525 270V699H652V272Q652 140 577 63T354 -15Q206
-15 131 62Z" />
<glyph unicode="&#xdc;" glyph-name="Udieresis" horiz-adv-x="707" d="M208 752T188 771T168 818Q168 846 188 865T235 885Q262 885 281 866T301 818Q301 790 282 771T235 752Q208 752 188 771ZM445 752T425 771T405 818Q405 846 425 865T472 885Q499 885 518
866T538 818Q538 790 519 771T472 752Q445 752 425 771ZM206 -15T131 62T55 272V699H182V270Q182 187 228 144T354 100Q432 100 478 143T525 270V699H652V272Q652 140 577 63T354 -15Q206 -15 131 62Z" />
<glyph unicode="&#xdd;" glyph-name="Yacute" horiz-adv-x="726" d="M367 916H500L414 742H298L367 916ZM300 266L46 699H181L361 388L546 699H680L421 266V0H300V266Z" />
<glyph unicode="&#xde;" glyph-name="Thorn" horiz-adv-x="614" d="M60 699H187V570H348Q465 570 529 516T594 351Q594 241 530 187T348 133H187V0H60V699ZM324 238Q391 238 429 262T467 351Q467 417 429 441T324 465H187V238H324Z" />
<glyph unicode="&#xdf;" glyph-name="germandbls" horiz-adv-x="648" d="M295 -15T250 4V121Q291 100 359 100Q415 100 447 133T479 220Q479 275 446 299T346 324H289V430H334Q430 430 430 528Q430 573 399 600T313 627Q182 627 182 506V0H55V498Q55 613 120 678T312
744Q395 744 450 714T532 634T559 528Q559 480 538 440T476 381Q542 362 575 317T608 202Q608 102 549 44T380 -15Q295 -15 250 4Z" />
<glyph unicode="&#xe0;" glyph-name="agrave" horiz-adv-x="577" d="M176 709H309L378 535H262L176 709ZM150 -15T95 30T40 153Q40 233 92 278T238 323Q329 323 395 286V299Q395 350 364 373T262 396Q218 396 175 388T99 364V463Q129 477 179 486T277 495Q402
495 462 442T522 293V0H403V47Q372 17 333 1T236 -15Q150 -15 95 30ZM309 77T343 93T395 139V192Q340 231 269 231Q168 231 168 153Q168 115 193 96T267 77Q309 77 343 93Z" />
<glyph unicode="&#xe1;" glyph-name="aacute" horiz-adv-x="577" d="M301 709H434L348 535H232L301 709ZM150 -15T95 30T40 153Q40 233 92 278T238 323Q329 323 395 286V299Q395 350 364 373T262 396Q218 396 175 388T99 364V463Q129 477 179 486T277 495Q402
495 462 442T522 293V0H403V47Q372 17 333 1T236 -15Q150 -15 95 30ZM309 77T343 93T395 139V192Q340 231 269 231Q168 231 168 153Q168 115 193 96T267 77Q309 77 343 93Z" />
<glyph unicode="&#xe2;" glyph-name="acircumflex" horiz-adv-x="577" d="M241 706H353L499 535H373L297 634L221 535H94L241 706ZM150 -15T95 30T40 153Q40 233 92 278T238 323Q329 323 395 286V299Q395 350 364 373T262 396Q218 396 175 388T99 364V463Q129
477 179 486T277 495Q402 495 462 442T522 293V0H403V47Q372 17 333 1T236 -15Q150 -15 95 30ZM309 77T343 93T395 139V192Q340 231 269 231Q168 231 168 153Q168 115 193 96T267 77Q309 77 343 93Z" />
<glyph unicode="&#xe3;" glyph-name="atilde" horiz-adv-x="577" d="M115 636Q147 679 215 679Q237 679 258 673T312 654Q340 642 361 636T404 629Q466 629 504 680V577Q473 535 404 535Q379 535 356 541T303 561Q273 573 255 579T215 585Q186 585 162 573T115
533V636ZM150 -15T95 30T40 153Q40 233 92 278T238 323Q329 323 395 286V299Q395 350 364 373T262 396Q218 396 175 388T99 364V463Q129 477 179 486T277 495Q402 495 462 442T522 293V0H403V47Q372 17 333 1T236 -15Q150 -15 95 30ZM309 77T343 93T395 139V192Q340
231 269 231Q168 231 168 153Q168 115 193 96T267 77Q309 77 343 93Z" />
<glyph unicode="&#xe4;" glyph-name="adieresis" horiz-adv-x="577" d="M146 545T126 564T106 611Q106 639 126 658T173 678Q200 678 219 659T239 611Q239 583 220 564T173 545Q146 545 126 564ZM383 545T363 564T343 611Q343 639 363 658T410 678Q437 678 456
659T476 611Q476 583 457 564T410 545Q383 545 363 564ZM150 -15T95 30T40 153Q40 233 92 278T238 323Q329 323 395 286V299Q395 350 364 373T262 396Q218 396 175 388T99 364V463Q129 477 179 486T277 495Q402 495 462 442T522 293V0H403V47Q372 17 333 1T236
-15Q150 -15 95 30ZM309 77T343 93T395 139V192Q340 231 269 231Q168 231 168 153Q168 115 193 96T267 77Q309 77 343 93Z" />
<glyph unicode="&#xe5;" glyph-name="aring" horiz-adv-x="577" d="M252 535T216 571T180 659Q180 711 216 747T304 784Q356 784 392 748T429 659Q429 607 393 571T304 535Q252 535 216 571ZM325 608T340 623T355 659Q355 680 340 695T304 710Q283 710 268 695T253
659Q253 638 268 623T304 608Q325 608 340 623ZM150 -15T95 30T40 153Q40 233 92 278T238 323Q329 323 395 286V299Q395 350 364 373T262 396Q218 396 175 388T99 364V463Q129 477 179 486T277 495Q402 495 462 442T522 293V0H403V47Q372 17 333 1T236 -15Q150
-15 95 30ZM309 77T343 93T395 139V192Q340 231 269 231Q168 231 168 153Q168 115 193 96T267 77Q309 77 343 93Z" />
<glyph unicode="&#xe6;" glyph-name="ae" horiz-adv-x="969" d="M149 -15T95 30T40 153Q40 233 92 278T238 323Q329 323 395 286V299Q395 350 364 373T262 396Q218 396 175 388T99 364V463Q129 477 179 486T277 495Q407 495 469 425Q503 459 553 477T666 495Q750
495 809 463T899 376T929 249V191H522Q535 84 706 84Q752 84 800 92T884 114V17Q850 3 797 -6T690 -15Q551 -15 466 62Q425 24 374 5T244 -15Q149 -15 95 30ZM810 277Q808 334 770 365T664 396Q599 396 562 364T522 277H810ZM309 77T342 92T395 136V192Q340 231
269 231Q168 231 168 153Q168 115 193 96T267 77Q309 77 342 92Z" />
<glyph unicode="&#xe7;" glyph-name="ccedilla" horiz-adv-x="548" d="M455 -3T376 -12L361 -52Q404 -57 427 -83T451 -150Q451 -197 412 -222T307 -248Q280 -248 255 -245T216 -236L217 -167Q228 -172 244 -175T275 -179Q334 -179 334 -138Q334 -114 311 -100T235
-85L264 -11Q160 4 100 68T40 239Q40 319 75 376T174 464T323 495Q435 495 502 451V350Q437 396 336 396Q259 396 214 358T168 239Q168 160 213 122T334 84Q435 84 508 132V32Q455 -3 376 -12Z" />
<glyph unicode="&#xe8;" glyph-name="egrave" horiz-adv-x="609" d="M174 709H307L376 535H260L174 709ZM196 -15T118 52T40 239Q40 357 109 426T306 495Q390 495 449 463T539 376T569 249V191H160Q173 84 346 84Q392 84 440 92T524 114V17Q490 3 437 -6T330 -15Q196
-15 118 52ZM450 277Q448 334 410 365T304 396Q238 396 200 364T160 277H450Z" />
<glyph unicode="&#xe9;" glyph-name="eacute" horiz-adv-x="609" d="M306 709H439L353 535H237L306 709ZM196 -15T118 52T40 239Q40 357 109 426T306 495Q390 495 449 463T539 376T569 249V191H160Q173 84 346 84Q392 84 440 92T524 114V17Q490 3 437 -6T330 -15Q196
-15 118 52ZM450 277Q448 334 410 365T304 396Q238 396 200 364T160 277H450Z" />
<glyph unicode="&#xea;" glyph-name="ecircumflex" horiz-adv-x="609" d="M258 706H370L516 535H390L314 634L238 535H111L258 706ZM196 -15T118 52T40 239Q40 357 109 426T306 495Q390 495 449 463T539 376T569 249V191H160Q173 84 346 84Q392 84 440 92T524
114V17Q490 3 437 -6T330 -15Q196 -15 118 52ZM450 277Q448 334 410 365T304 396Q238 396 200 364T160 277H450Z" />
<glyph unicode="&#xeb;" glyph-name="edieresis" horiz-adv-x="609" d="M165 545T145 564T125 611Q125 639 145 658T192 678Q219 678 238 659T258 611Q258 583 239 564T192 545Q165 545 145 564ZM402 545T382 564T362 611Q362 639 382 658T429 678Q456 678 475
659T495 611Q495 583 476 564T429 545Q402 545 382 564ZM196 -15T118 52T40 239Q40 357 109 426T306 495Q390 495 449 463T539 376T569 249V191H160Q173 84 346 84Q392 84 440 92T524 114V17Q490 3 437 -6T330 -15Q196 -15 118 52ZM450 277Q448 334 410 365T304
396Q238 396 200 364T160 277H450Z" />
<glyph unicode="&#xec;" glyph-name="igrave" horiz-adv-x="248" d="M-20 709H113L182 535H66L-20 709ZM60 480H188V0H60V480Z" />
<glyph unicode="&#xed;" glyph-name="iacute" horiz-adv-x="248" d="M133 709H266L180 535H64L133 709ZM60 480H188V0H60V480Z" />
<glyph unicode="&#xee;" glyph-name="icircumflex" horiz-adv-x="248" d="M69 706H181L327 535H201L125 634L49 535H-78L69 706ZM60 480H188V0H60V480Z" />
<glyph unicode="&#xef;" glyph-name="idieresis" horiz-adv-x="248" d="M-21 545T-41 564T-61 611Q-61 639 -41 658T6 678Q33 678 52 659T72 611Q72 583 53 564T6 545Q-21 545 -41 564ZM216 545T196 564T176 611Q176 639 196 658T243 678Q270 678 289 659T309
611Q309 583 290 564T243 545Q216 545 196 564ZM60 480H188V0H60V480Z" />
<glyph unicode="&#xf0;" glyph-name="eth" horiz-adv-x="634" d="M219 -15T160 15T70 98T40 221Q40 329 108 391T298 453Q346 453 390 437T465 391Q462 481 424 542L290 477V558L369 596Q335 616 292 616Q263 616 226 611T169 597V699Q191 705 228 709T292 714Q407
714 477 648L594 705V624L523 589Q579 491 579 322Q579 212 544 137T447 23T302 -15Q219 -15 160 15ZM366 82T403 121T440 218Q440 278 402 316T306 354Q244 354 205 317T165 218Q165 156 204 119T306 82Q366 82 403 121Z" />
<glyph unicode="&#xf1;" glyph-name="ntilde" horiz-adv-x="610" d="M101 638Q133 681 201 681Q223 681 244 675T298 656Q326 644 347 638T390 631Q452 631 490 682V579Q459 537 390 537Q365 537 342 543T289 563Q259 575 241 581T201 587Q172 587 148 575T101
535V638ZM60 480H182V415Q216 456 263 475T362 495Q459 495 507 443T555 303V0H429V291Q429 396 331 396Q288 396 250 376T186 314V0H60V480Z" />
<glyph unicode="&#xf2;" glyph-name="ograve" horiz-adv-x="642" d="M193 709H326L395 535H279L193 709ZM237 -15T174 15T75 103T40 240Q40 317 74 374T173 463T321 495Q405 495 468 464T567 375T602 240Q602 161 567 104T469 16T321 -15Q237 -15 174 15ZM390
84T431 127T472 240Q472 313 432 354T321 396Q251 396 211 355T170 240Q170 171 211 128T321 84Q390 84 431 127Z" />
<glyph unicode="&#xf3;" glyph-name="oacute" horiz-adv-x="642" d="M329 709H462L376 535H260L329 709ZM237 -15T174 15T75 103T40 240Q40 317 74 374T173 463T321 495Q405 495 468 464T567 375T602 240Q602 161 567 104T469 16T321 -15Q237 -15 174 15ZM390
84T431 127T472 240Q472 313 432 354T321 396Q251 396 211 355T170 240Q170 171 211 128T321 84Q390 84 431 127Z" />
<glyph unicode="&#xf4;" glyph-name="ocircumflex" horiz-adv-x="678" d="M302 706H414L560 535H434L358 634L282 535H155L302 706ZM273 -15T210 15T111 103T76 240Q76 317 110 374T209 463T357 495Q441 495 504 464T603 375T638 240Q638 161 603 104T505 16T357
-15Q273 -15 210 15ZM426 84T467 127T508 240Q508 313 468 354T357 396Q287 396 247 355T206 240Q206 171 247 128T357 84Q426 84 467 127Z" />
<glyph unicode="&#xf5;" glyph-name="otilde" horiz-adv-x="670" d="M155 651Q187 694 255 694Q277 694 298 688T352 669Q380 657 401 651T444 644Q506 644 544 695V592Q513 550 444 550Q419 550 396 556T343 576Q313 588 295 594T255 600Q226 600 202 588T155
548V651ZM265 -15T202 15T103 103T68 240Q68 317 102 374T201 463T349 495Q433 495 496 464T595 375T630 240Q630 161 595 104T497 16T349 -15Q265 -15 202 15ZM418 84T459 127T500 240Q500 313 460 354T349 396Q279 396 239 355T198 240Q198 171 239 128T349 84Q418
84 459 127Z" />
<glyph unicode="&#xf6;" glyph-name="odieresis" horiz-adv-x="660" d="M194 545T174 564T154 611Q154 639 174 658T221 678Q248 678 267 659T287 611Q287 583 268 564T221 545Q194 545 174 564ZM431 545T411 564T391 611Q391 639 411 658T458 678Q485 678 504
659T524 611Q524 583 505 564T458 545Q431 545 411 564ZM255 -15T192 15T93 103T58 240Q58 317 92 374T191 463T339 495Q423 495 486 464T585 375T620 240Q620 161 585 104T487 16T339 -15Q255 -15 192 15ZM408 84T449 127T490 240Q490 313 450 354T339 396Q269
396 229 355T188 240Q188 171 229 128T339 84Q408 84 449 127Z" />
<glyph unicode="&#xf7;" glyph-name="divide" horiz-adv-x="412" d="M183 383T167 399T150 438Q150 462 166 478T206 495Q229 495 245 479T262 438Q262 415 246 399T206 383Q183 383 167 399ZM40 350H372V249H40V350ZM183 104T167 120T150 159Q150 183 166 199T206
216Q229 216 245 200T262 159Q262 136 246 120T206 104Q183 104 167 120Z" />
<glyph unicode="&#xf8;" glyph-name="oslash" horiz-adv-x="642" d="M167 18Q106 49 73 106T40 240Q40 317 74 374T173 463T321 495Q334 495 358 493L387 566H511L469 463Q532 432 567 374T602 240Q602 161 567 104T469 16T321 -15Q306 -15 278 -13L249 -86H125L167
18ZM319 396Q250 395 210 354T170 240Q170 170 211 127L319 396ZM321 84Q390 84 431 127T472 240Q472 316 427 358L317 84H321Z" />
<glyph unicode="&#xf9;" glyph-name="ugrave" horiz-adv-x="610" d="M166 709H299L368 535H252L166 709ZM151 -15T103 37T55 177V480H181V189Q181 84 279 84Q322 84 360 104T424 166V480H550V0H428V65Q394 24 347 5T248 -15Q151 -15 103 37Z" />
<glyph unicode="&#xfa;" glyph-name="uacute" horiz-adv-x="610" d="M305 709H438L352 535H236L305 709ZM151 -15T103 37T55 177V480H181V189Q181 84 279 84Q322 84 360 104T424 166V480H550V0H428V65Q394 24 347 5T248 -15Q151 -15 103 37Z" />
<glyph unicode="&#xfb;" glyph-name="ucircumflex" horiz-adv-x="610" d="M242 706H354L500 535H374L298 634L222 535H95L242 706ZM151 -15T103 37T55 177V480H181V189Q181 84 279 84Q322 84 360 104T424 166V480H550V0H428V65Q394 24 347 5T248 -15Q151 -15 103 37Z" />
<glyph unicode="&#xfc;" glyph-name="udieresis" horiz-adv-x="610" d="M154 545T134 564T114 611Q114 639 134 658T181 678Q208 678 227 659T247 611Q247 583 228 564T181 545Q154 545 134 564ZM391 545T371 564T351 611Q351 639 371 658T418 678Q445 678 464
659T484 611Q484 583 465 564T418 545Q391 545 371 564ZM151 -15T103 37T55 177V480H181V189Q181 84 279 84Q322 84 360 104T424 166V480H550V0H428V65Q394 24 347 5T248 -15Q151 -15 103 37Z" />
<glyph unicode="&#xfd;" glyph-name="yacute" horiz-adv-x="600" d="M313 709H446L360 535H244L313 709ZM149 -198T121 -195T76 -185V-89Q101 -99 138 -99Q176 -99 195 -82T228 -28L247 22L40 480H167L315 130L454 480H580L370 -43Q338 -122 293 -160T175 -198Q149
-198 121 -195Z" />
<glyph unicode="&#xfe;" glyph-name="thorn" horiz-adv-x="665" d="M60 699H186V433Q220 464 268 479T372 495Q445 495 502 464T592 375T625 241Q625 166 593 108T503 18T372 -15Q317 -15 269 0T186 47V-219H60V699ZM409 84T453 128T497 241Q497 310 453 353T341
396Q287 396 245 367T186 289V192Q202 143 244 114T341 84Q409 84 453 128Z" />
<glyph unicode="&#xff;" glyph-name="ydieresis" horiz-adv-x="600" d="M170 545T150 564T130 611Q130 639 150 658T197 678Q224 678 243 659T263 611Q263 583 244 564T197 545Q170 545 150 564ZM407 545T387 564T367 611Q367 639 387 658T434 678Q461 678 480
659T500 611Q500 583 481 564T434 545Q407 545 387 564ZM149 -198T121 -195T76 -185V-89Q101 -99 138 -99Q176 -99 195 -82T228 -28L247 22L40 480H167L315 130L454 480H580L370 -43Q338 -122 293 -160T175 -198Q149 -198 121 -195Z" />
<glyph unicode="&#x2013;" glyph-name="endash" horiz-adv-x="654" d="M40 350H614V249H40V350Z" />
<glyph unicode="&#x2014;" glyph-name="emdash" horiz-adv-x="796" d="M40 350H756V249H40V350Z" />
<glyph unicode="&#x2018;" glyph-name="quoteleft" horiz-adv-x="265" d="M120 714H225L160 518H40L120 714Z" />
<glyph unicode="&#x2019;" glyph-name="quoteright" horiz-adv-x="268" d="M106 714H228L148 518H40L106 714Z" />
<glyph unicode="&#x201a;" glyph-name="quotesinglbase" horiz-adv-x="268" d="M106 71H228L148 -125H40L106 71Z" />
<glyph unicode="&#x201c;" glyph-name="quotedblleft" horiz-adv-x="426" d="M120 714H218L152 518H40L120 714ZM289 714H386L321 518H209L289 714Z" />
<glyph unicode="&#x201d;" glyph-name="quotedblright" horiz-adv-x="426" d="M106 714H218L138 518H40L106 714ZM274 714H386L306 518H209L274 714Z" />
<glyph unicode="&#x201e;" glyph-name="quotedblbase" horiz-adv-x="426" d="M106 71H218L138 -125H40L106 71ZM274 71H386L306 -125H209L274 71Z" />
<glyph unicode="&#x2022;" glyph-name="bullet" horiz-adv-x="266" d="M94 205T67 232T40 298Q40 337 67 364T133 391Q172 391 199 364T226 298Q226 259 199 232T133 205Q94 205 67 232Z" />
<glyph unicode="&#x2039;" glyph-name="guilsinglleft" horiz-adv-x="380" d="M40 308V340L277 546L340 467L171 324L340 182L277 103L40 308Z" />
<glyph unicode="&#x203a;" glyph-name="guilsinglright" horiz-adv-x="380" d="M40 182L209 324L40 467L103 546L340 340V308L103 103L40 182Z" />
</font>
</defs>
</svg>
