<?xml version="1.0" standalone="no"?>
<!DOCTYPE svg PUBLIC "-//W3C//DTD SVG 1.1//EN" "http://www.w3.org/Graphics/SVG/1.1/DTD/svg11.dtd">
<svg xmlns="http://www.w3.org/2000/svg">
<defs >
<font id="Mitr" horiz-adv-x="597" ><font-face
    font-family="Mitr Medium"
    units-per-em="1000"
    panose-1="0 0 6 0 0 0 0 0 0 0"
    ascent="1150"
    descent="-420"
    alphabetic="0" />
<glyph unicode=" " glyph-name="space" horiz-adv-x="360" />
<glyph unicode="!" glyph-name="exclam" horiz-adv-x="241" d="M67 184T56 194T44 227L38 636Q38 659 48 669T83 680H159Q184 680 194 670T204 636L197 227Q197 205 186 195T149 184H92Q67 184 56 194ZM67 0T49 11T31 46V68Q31 93 48 103T104 114H136Q174 114
192 103T210 68V46Q210 22 192 11T136 0H104Q67 0 49 11Z" />
<glyph unicode="&quot;" glyph-name="quotedbl" horiz-adv-x="362" d="M56 487T48 494T39 520L31 669Q30 688 37 694T66 701H119Q140 701 147 694T154 669L145 520Q144 502 136 495T110 487H72Q56 487 48 494ZM232 487T224 494T215 520L208 669Q207 687 214 694T242
701H295Q316 701 324 694T331 669L321 520Q320 501 312 494T286 487H248Q232 487 224 494Z" />
<glyph unicode="#" glyph-name="numbersign" horiz-adv-x="807" d="M57 0T57 15Q57 18 61 30L108 150H69Q45 150 38 158T31 192V225Q31 252 38 260T70 268H153L203 393H127Q103 393 96 401T89 435V468Q89 495 96 503T128 511H248L307 660Q312 671 319 675T345
680H448Q465 680 465 665Q465 662 461 650L406 511H543L602 660Q607 671 614 675T640 680H743Q760 680 760 665Q760 662 756 650L701 511H737Q761 511 768 503T776 468V435Q776 409 769 401T738 393H657L607 268H700Q724 268 731 260T739 225V192Q739 166 732 158T701
150H562L510 20Q505 9 498 5T472 0H369Q352 0 352 15Q352 18 356 30L403 150H266L215 20Q210 9 203 5T177 0H74Q57 0 57 15ZM448 268L498 392H361L311 268H448Z" />
<glyph unicode="$" glyph-name="dollar" horiz-adv-x="598" d="M247 -93T237 -83T227 -50V-8Q174 -2 126 12T47 47Q32 58 32 67Q32 73 37 81L78 146Q84 156 91 156Q98 156 106 151Q144 129 192 117T290 104Q351 104 376 121T402 181Q402 209 388 227T347 257T267
288Q203 312 159 337T86 402T57 499Q57 578 102 625T227 685V731Q227 754 237 764T272 775H334Q359 775 369 764T380 731V690Q474 680 536 639Q551 627 551 619Q551 613 546 605L506 541Q499 531 492 531Q487 531 478 537Q420 576 329 576Q275 576 248 558T221
498Q221 469 237 451T277 422T365 388Q438 360 480 335T544 272T567 175Q567 100 520 52T380 -10V-50Q380 -72 370 -82T334 -93H272Q247 -93 237 -83Z" />
<glyph unicode="%" glyph-name="percent" horiz-adv-x="767" d="M143 384T108 404T52 459T31 539Q31 584 51 619T107 675T186 695Q229 695 264 675T320 620T341 539Q341 494 321 459T265 404T186 384Q143 384 108 404ZM89 0T85 4T80 16Q80 25 85 31L517 660Q524
670 531 675T550 680H666Q675 680 679 676T684 664Q684 655 679 649L244 16Q238 6 233 3T215 0H98Q89 0 85 4ZM215 471T234 490T254 539Q254 569 235 588T186 608Q157 608 138 589T118 539Q118 509 137 490T186 471Q215 471 234 490ZM538 -15T503 5T446 60T425
140Q425 185 446 220T502 275T580 295Q623 295 658 276T715 221T736 140Q736 96 715 61T659 5T580 -15Q538 -15 503 5ZM609 72T629 91T649 140Q649 170 629 189T580 208Q552 208 532 189T512 140Q512 111 532 92T580 72Q609 72 629 91Z" />
<glyph unicode="&amp;" glyph-name="ampersand" horiz-adv-x="723" d="M253 -15T186 5T76 73T32 198Q32 251 55 295T126 364Q93 384 75 420T57 497Q57 591 130 643T328 695Q466 695 542 633Q551 626 551 616Q551 609 546 601L510 542Q503 530 495 530Q491 530
479 537Q428 574 345 574Q278 574 250 556T221 493Q221 450 247 435T326 419H660Q684 419 693 409T702 376V340Q702 317 693 307T660 297H630V245Q630 171 595 112T491 19T328 -15Q253 -15 186 5ZM476 104T476 254V297H296Q195 297 195 205Q195 104 332 104Q476
104 476 254Z" />
<glyph unicode="&apos;" glyph-name="quotesingle" horiz-adv-x="200" d="M56 487T48 494T39 520L31 669Q30 688 37 694T66 701H134Q155 701 162 694T169 669L160 520Q159 502 151 495T125 487H72Q56 487 48 494Z" />
<glyph unicode="(" glyph-name="parenleft" horiz-adv-x="362" d="M187 -96T137 -31T59 124T31 316Q31 417 58 507T136 662T255 753Q285 765 306 765Q345 765 345 715Q345 684 340 672T313 643Q252 595 224 513T195 316Q195 81 313 -11Q334 -27 339 -39T345 -84Q345
-134 305 -134Q285 -134 255 -122Q187 -96 137 -31Z" />
<glyph unicode=")" glyph-name="parenright" horiz-adv-x="362" d="M77 -134T57 -134Q17 -134 17 -84Q17 -52 22 -40T49 -11Q167 80 167 316Q167 431 139 513T49 643Q27 659 22 671T17 715Q17 765 56 765Q77 765 107 753Q175 727 225 663T303 508T331 316Q331
215 304 125T226 -31T107 -122Q77 -134 57 -134Z" />
<glyph unicode="*" glyph-name="asterisk" horiz-adv-x="432" d="M313 378T309 378Q302 378 294 387L216 471L136 386Q129 379 123 379Q117 379 112 384L66 424Q58 430 58 438Q58 444 64 450L132 522L43 560Q31 566 31 574Q31 577 33 583L60 637Q65 646 72 646L81
644L162 608V690Q162 714 185 714H247Q270 714 270 690V607L350 642Q356 645 360 645Q368 645 372 636L399 582Q401 576 401 573Q401 565 389 559L300 521L368 449Q374 443 374 437Q374 429 366 423L320 383Q313 378 309 378Z" />
<glyph unicode="+" glyph-name="plus" horiz-adv-x="470" d="M183 121T176 129T168 158V240H74Q50 240 41 247T31 279V323Q31 347 40 354T74 362H168V445Q168 466 175 474T207 482H261Q285 482 292 474T300 445V362H396Q420 362 429 355T439 323V279Q439 255 430
248T396 240H300V158Q300 137 293 129T261 121H207Q183 121 176 129Z" />
<glyph unicode="," glyph-name="comma" horiz-adv-x="256" d="M31 -119T31 -102Q31 -99 33 -91L85 81Q91 100 99 106T128 112H194Q225 112 225 94Q225 85 219 70L147 -99Q143 -109 135 -114T113 -119H53Q31 -119 31 -102Z" />
<glyph unicode="-" glyph-name="hyphen" horiz-adv-x="470" d="M47 240T39 249T31 279V323Q31 343 39 352T69 362H401Q422 362 430 353T439 323V279Q439 259 431 250T401 240H69Q47 240 39 249Z" />
<glyph unicode="." glyph-name="period" horiz-adv-x="179" d="M58 0T45 14T31 50V70Q31 92 44 106T79 121H100Q121 121 134 107T148 70V50Q148 29 135 15T100 0H79Q58 0 45 14Z" />
<glyph unicode="/" glyph-name="slash" horiz-adv-x="493" d="M31 0T31 14Q31 23 35 31L293 660Q301 680 322 680H446Q462 680 462 665Q462 658 459 649L201 20Q193 0 171 0H48Q31 0 31 14Z" />
<glyph unicode="0" glyph-name="zero" horiz-adv-x="741" d="M202 -15T117 76T31 340Q31 512 116 603T371 695Q539 695 624 604T710 340Q710 168 625 77T371 -15Q202 -15 117 76ZM461 553Q424 576 371 576Q280 576 238 518T195 340Q195 262 223 219L461 553ZM462
104T504 162T546 340Q546 415 519 463L279 125Q315 104 371 104Q462 104 504 162Z" />
<glyph unicode="1" glyph-name="one" horiz-adv-x="488" d="M72 0T63 9T53 41V79Q53 101 62 111T96 121H182V504L111 460Q106 456 98 456Q88 456 83 465L36 537Q32 544 32 550Q32 560 43 566L216 670Q225 676 233 678T256 680H303Q327 680 337 669T348 636V121H435Q459
121 468 112T477 79V41Q477 19 468 10T435 0H96Q72 0 63 9Z" />
<glyph unicode="2" glyph-name="two" horiz-adv-x="577" d="M34 0T34 40V86Q34 148 80 206T226 326Q296 368 323 387T364 430T378 488Q378 531 348 553T262 576Q182 576 112 538Q102 532 95 532Q88 532 81 543L46 604Q40 613 40 621Q40 631 50 638Q88 664 150
679T287 695Q403 695 473 644T543 499Q543 423 498 371T353 261Q291 227 250 191T203 122H500Q524 122 533 112T542 79V42Q542 19 533 10T500 0H73Q34 0 34 40Z" />
<glyph unicode="3" glyph-name="three" horiz-adv-x="598" d="M209 -15T146 -1T41 40Q31 47 31 56Q31 65 37 74L73 135Q80 146 87 146Q93 146 104 140Q134 124 176 114T264 104Q403 104 403 203Q403 289 297 289H215Q191 289 181 299T170 332V367Q170 389 180
399T215 409H290Q337 409 360 432T383 492Q383 576 261 576Q179 576 115 541Q105 535 98 535Q91 535 84 546L49 606Q43 615 43 623Q43 632 53 639Q91 665 151 680T285 695Q406 695 476 642T547 497Q547 452 527 414T469 352Q518 331 542 291T567 197Q567 101 495
43T289 -15Q209 -15 146 -1Z" />
<glyph unicode="4" glyph-name="four" horiz-adv-x="610" d="M352 0T342 9T332 40V142H40Q11 142 11 170V228Q11 245 14 253T28 275L343 657Q355 671 363 675T391 680H452Q477 680 487 670T497 636V263H557Q581 263 590 253T599 220V184Q599 161 590 152T557 142H497V40Q497
18 487 9T452 0H377Q352 0 342 9ZM364 263V496L178 263H364Z" />
<glyph unicode="5" glyph-name="five" horiz-adv-x="628" d="M216 -15T149 1T41 47Q31 54 31 63Q31 71 37 80L73 142Q79 153 87 153Q92 153 104 146Q137 127 182 116T283 104Q355 104 393 134T432 226Q432 294 400 321T299 348Q223 348 172 325Q150 317 128 317Q95
317 74 334T55 385L71 641Q73 661 82 670T115 680H521Q545 680 554 670T564 638V601Q564 578 555 568T521 558H207L200 443Q224 450 258 454T326 459Q455 459 526 404T597 226Q597 152 559 98T451 14T291 -15Q216 -15 149 1Z" />
<glyph unicode="6" glyph-name="six" horiz-adv-x="643" d="M190 -15T111 61T31 299Q31 436 75 525T191 654T346 695Q470 695 551 640Q561 633 561 624Q561 616 555 607L521 548Q514 536 507 536Q502 536 490 543Q462 560 431 568T359 576Q288 576 248 540T187
427Q221 454 263 464T362 475Q439 475 495 447T582 367T612 252Q612 120 535 53T318 -15Q190 -15 111 61ZM383 104T415 138T448 246Q448 310 415 343T321 377Q268 377 232 344T196 244Q196 104 318 104Q383 104 415 138Z" />
<glyph unicode="7" glyph-name="seven" horiz-adv-x="596" d="M98 0T98 15Q98 23 102 31L373 558H61Q38 558 30 567T21 600V639Q21 662 29 671T61 680H522Q553 680 564 671T575 636Q575 612 550 564L271 18Q266 8 260 4T241 0H114Q98 0 98 15Z" />
<glyph unicode="8" glyph-name="eight" horiz-adv-x="642" d="M185 -15T108 40T31 197Q31 250 58 292T135 354Q93 376 71 410T49 489Q49 588 119 641T321 695Q452 695 522 642T592 489Q592 397 507 354Q556 334 583 292T611 197Q611 96 534 41T321 -15Q185 -15
108 40ZM374 410T401 428T428 489Q428 535 402 555T321 576Q266 576 240 556T214 489Q214 447 241 429T321 410Q374 410 401 428ZM447 104T447 198Q447 294 321 294Q195 294 195 198Q195 104 321 104Q447 104 447 198Z" />
<glyph unicode="9" glyph-name="nine" horiz-adv-x="640" d="M173 -15T94 38Q85 44 85 54Q85 62 91 72L125 131Q132 142 139 142Q146 142 156 136Q214 104 291 104Q367 104 408 140T461 251Q428 225 386 214T285 203Q205 203 148 232T61 312T31 429Q31 563 107
629T325 695Q453 695 531 618T609 380Q609 239 567 151T456 24T302 -15Q173 -15 94 38ZM374 302T408 335T443 430Q443 503 413 539T324 576Q259 576 227 542T195 432Q195 302 323 302Q374 302 408 335Z" />
<glyph unicode=":" glyph-name="colon" horiz-adv-x="203" d="M63 348T47 366T31 409V432Q31 458 47 475T88 493H114Q140 493 156 476T172 432V409Q172 384 156 366T114 348H88Q63 348 47 366ZM63 0T47 18T31 61V84Q31 110 47 127T88 145H114Q140 145 156 128T172
84V61Q172 36 156 18T114 0H88Q63 0 47 18Z" />
<glyph unicode=";" glyph-name="semicolon" horiz-adv-x="258" d="M117 348T101 366T85 409V432Q85 458 101 475T142 493H168Q194 493 210 476T226 432V409Q226 384 210 366T168 348H142Q117 348 101 366ZM31 -119T31 -102Q31 -99 33 -91L85 81Q91 100 99 106T128
112H194Q225 112 225 94Q225 85 219 70L147 -99Q143 -109 135 -114T113 -119H53Q31 -119 31 -102Z" />
<glyph unicode="&lt;" glyph-name="less" horiz-adv-x="542" d="M48 216Q38 220 35 226T31 243V303Q31 314 34 320T48 330L489 528Q495 530 498 530Q511 530 511 516V406Q511 394 508 390T494 381L231 274L494 167Q504 163 507 159T511 142V30Q511 16 498 16Q492
16 489 18L48 216Z" />
<glyph unicode="=" glyph-name="equal" horiz-adv-x="463" d="M49 329T40 338T31 371V405Q31 428 40 438T73 448H390Q414 448 423 438T432 405V371Q432 348 423 339T390 329H73Q49 329 40 338ZM49 134T40 143T31 176V209Q31 232 40 242T73 252H390Q414 252 423
242T432 209V176Q432 153 423 144T390 134H73Q49 134 40 143Z" />
<glyph unicode="&gt;" glyph-name="greater" horiz-adv-x="542" d="M46 16T43 16Q31 16 31 30V133Q31 144 34 149T48 158L317 274L48 390Q38 394 35 399T31 415V516Q31 530 43 530Q46 530 52 528L494 330Q503 326 507 320T511 303V243Q511 232 507 226T494 216L52
18Q46 16 43 16Z" />
<glyph unicode="?" glyph-name="question" horiz-adv-x="553" d="M175 160T165 170T154 203V216Q154 279 182 320T275 402Q311 423 327 436T351 463T358 499Q358 536 331 556T251 576Q169 576 104 533Q92 526 88 526Q79 526 73 537L34 604Q30 611 30 616Q30 625
41 632Q134 695 272 695Q384 695 453 644T522 500Q522 440 494 401T404 327Q355 299 337 275T319 214V203Q319 181 309 171T274 160H199Q175 160 165 170ZM178 0T163 12T147 46V67Q147 89 162 101T207 114H265Q295 114 310 102T326 67V46Q326 24 311 12T265 0H207Q178
0 163 12Z" />
<glyph unicode="@" glyph-name="at" horiz-adv-x="941" d="M328 -89T232 -42T84 93T31 300Q31 436 88 529T250 668T495 714Q625 714 718 670T861 544T910 349Q910 226 857 162T715 97Q674 97 647 118T610 173Q583 136 540 117T442 97Q345 98 288 150T230 297Q230
413 300 475T492 538Q546 538 597 519T681 466V237Q681 212 689 202T718 191Q749 191 766 232T783 350Q783 435 743 494T637 582T493 611Q339 611 249 534T158 300Q158 209 196 146T301 50T454 17Q502 17 545 29T618 63Q623 66 626 66Q629 66 632 60L663 -19Q665
-25 665 -26Q665 -31 658 -35Q622 -60 568 -74T455 -89Q328 -89 232 -42ZM500 203T532 226T564 289V407Q549 416 528 421T483 426Q423 426 388 393T352 301Q352 203 456 203Q500 203 532 226Z" />
<glyph unicode="A" glyph-name="A" horiz-adv-x="740" d="M32 0T32 17Q32 24 35 33L294 650Q301 667 309 673T334 680H407Q423 680 431 674T446 650L705 33Q708 24 708 17Q708 0 690 0H569Q555 0 549 4T537 21L491 139H248L203 21Q198 9 192 5T171 0H50Q32 0 32
17ZM453 254L370 470L286 254H453Z" />
<glyph unicode="B" glyph-name="B" horiz-adv-x="659" d="M72 0T62 10T51 43V636Q51 658 61 669T96 680H389Q499 680 554 630T609 490Q609 443 587 406T525 353Q628 319 628 202Q628 145 602 99T522 27T389 0H96Q72 0 62 10ZM361 405Q401 405 423 425T445 483Q445
524 425 541T361 559H216V405H361ZM377 121Q421 121 442 144T464 206Q464 249 439 270T369 292H216V121H377Z" />
<glyph unicode="C" glyph-name="C" horiz-adv-x="678" d="M222 -15T127 76T31 340Q31 513 124 604T392 695Q465 695 524 681T625 639Q635 632 635 623Q635 615 629 606L594 545Q587 534 580 534Q574 534 563 540Q499 576 412 576Q309 576 252 517T195 340Q195
222 254 163T417 104Q511 104 575 140Q586 146 592 146Q599 146 606 135L645 68Q649 61 649 56Q649 50 637 41Q559 -15 396 -15Q222 -15 127 76Z" />
<glyph unicode="D" glyph-name="D" horiz-adv-x="686" d="M72 0T62 10T51 43V636Q51 658 61 669T96 680H306Q477 680 566 598T655 340Q655 166 565 83T306 0H96Q72 0 62 10ZM314 121Q403 121 447 170T491 340Q491 460 447 509T314 558H216V121H314Z" />
<glyph unicode="E" glyph-name="E" horiz-adv-x="574" d="M72 0T62 10T51 43V636Q51 658 61 669T96 680H511Q535 680 544 671T553 638V601Q553 578 544 568T511 558H216V400H422Q446 400 455 391T464 358V323Q464 300 455 290T422 280H216V121H510Q534 121 543
111T552 78V42Q552 19 543 10T510 0H96Q72 0 62 10Z" />
<glyph unicode="F" glyph-name="F" horiz-adv-x="564" d="M72 0T62 10T51 43V636Q51 658 61 669T96 680H511Q535 680 544 671T553 638V601Q553 578 544 568T511 558H216V401H422Q446 401 455 392T464 359V322Q464 299 455 289T422 279H216V43Q216 21 206 11T171
0H96Q72 0 62 10Z" />
<glyph unicode="G" glyph-name="G" horiz-adv-x="703" d="M222 -15T127 76T31 340Q31 512 127 603T396 695Q469 695 530 681T631 639Q642 632 642 623Q642 619 637 609L599 545Q592 534 585 534Q580 534 569 540Q503 576 417 576Q313 576 254 517T195 340Q195
221 250 163T405 105Q437 105 468 110T518 124V278H409Q385 278 376 287T367 320V356Q367 378 376 387T409 397H621Q649 397 660 384T672 344V90Q672 73 668 64T652 47Q555 -15 396 -15Q222 -15 127 76Z" />
<glyph unicode="H" glyph-name="H" horiz-adv-x="711" d="M72 0T62 10T51 43V636Q51 658 61 669T96 680H171Q196 680 206 670T216 636V402H494V636Q494 658 504 669T540 680H614Q639 680 649 669T660 636V43Q660 21 650 11T614 0H540Q515 0 505 10T494 43V281H216V43Q216
21 206 11T171 0H96Q72 0 62 10Z" />
<glyph unicode="I" glyph-name="I" horiz-adv-x="267" d="M72 0T62 10T51 43V636Q51 658 61 669T96 680H171Q196 680 206 670T216 636V43Q216 21 206 11T171 0H96Q72 0 62 10Z" />
<glyph unicode="J" glyph-name="J" horiz-adv-x="500" d="M104 -15T21 40Q11 46 11 56Q11 64 17 73L53 134Q61 146 68 146Q74 146 84 139Q136 104 198 104Q245 104 266 127T288 199V636Q288 658 298 669T334 680H408Q433 680 443 669T454 636V199Q454 101 396
43T224 -15Q104 -15 21 40Z" />
<glyph unicode="K" glyph-name="K" horiz-adv-x="647" d="M614 26T614 17Q614 0 596 0H471Q459 0 453 2T440 12L219 302L216 306V43Q216 21 206 11T171 0H96Q72 0 62 10T51 43V636Q51 658 61 669T96 680H171Q196 680 206 670T216 636V378L219 382L433 667Q439
675 445 677T466 680H589Q607 680 607 663Q607 655 601 647L364 342L608 33Q614 26 614 17Z" />
<glyph unicode="L" glyph-name="L" horiz-adv-x="551" d="M72 0T62 10T51 43V636Q51 658 61 669T96 680H171Q196 680 206 670T216 636V121H498Q522 121 531 111T540 78V42Q540 19 531 10T498 0H96Q72 0 62 10Z" />
<glyph unicode="M" glyph-name="M" horiz-adv-x="777" d="M72 0T62 10T51 43V637Q51 659 61 669T97 680H171Q189 680 199 676T215 658L388 250L562 658Q568 671 578 675T606 680H680Q705 680 715 670T726 637V43Q726 21 716 11T681 0H620Q595 0 585 10T574 43V421L440
122Q430 101 421 93T388 84Q366 84 356 92T336 122L203 421V43Q203 21 193 11T157 0H96Q72 0 62 10Z" />
<glyph unicode="N" glyph-name="N" horiz-adv-x="699" d="M72 0T62 10T51 43V637Q51 659 61 669T97 680H159Q176 680 184 676T203 658L483 263V636Q483 658 493 669T528 680H603Q628 680 638 670T648 636V43Q648 21 638 11T603 0H540Q524 0 516 4T497 22L216 416V43Q216
21 206 11T171 0H96Q72 0 62 10Z" />
<glyph unicode="O" glyph-name="O" horiz-adv-x="759" d="M210 -15T121 78T31 340Q31 509 120 602T380 695Q549 695 638 602T728 340Q728 171 639 78T380 -15Q210 -15 121 78ZM471 104T517 163T564 340Q564 457 518 516T380 576Q288 576 242 517T195 340Q195 223
241 164T380 104Q471 104 517 163Z" />
<glyph unicode="P" glyph-name="P" horiz-adv-x="614" d="M72 0T62 10T51 43V636Q51 658 61 669T96 680H346Q603 680 603 450Q603 221 346 221H216V43Q216 21 206 11T171 0H96Q72 0 62 10ZM335 342Q439 342 439 450Q439 558 335 558H217V342H335Z" />
<glyph unicode="Q" glyph-name="Q" horiz-adv-x="759" d="M432 -181T375 -134T309 -10Q173 8 102 98T31 340Q31 509 120 602T380 695Q549 695 638 602T728 340Q728 185 652 96T431 -9Q435 -43 462 -59T530 -76Q581 -76 621 -50Q628 -46 632 -46Q638 -46 642 -53L680
-113Q684 -118 684 -124Q684 -130 674 -137Q643 -159 608 -170T526 -181Q432 -181 375 -134ZM471 104T517 163T564 340Q564 457 518 516T380 576Q288 576 242 517T195 340Q195 223 241 164T380 104Q471 104 517 163Z" />
<glyph unicode="R" glyph-name="R" horiz-adv-x="634" d="M72 0T62 10T51 43V636Q51 658 61 669T96 680H349Q603 680 603 458Q603 387 573 338T484 262L589 32Q592 25 592 18Q592 0 571 0H460Q446 0 439 3T427 19L335 239H216V43Q216 21 206 11T171 0H96Q72 0
62 10ZM325 358Q382 358 410 382T439 458Q439 510 413 534T335 558H216V358H325Z" />
<glyph unicode="S" glyph-name="S" horiz-adv-x="598" d="M234 -15T163 1T47 48Q32 59 32 68Q32 74 37 82L78 147Q84 157 91 157Q97 157 106 151Q143 130 191 117T288 104Q346 104 374 122T402 181Q402 208 389 225T349 255T267 289Q203 313 159 338T86 402T57
499Q57 594 126 644T308 695Q457 695 536 639Q551 627 551 619Q551 613 546 605L505 540Q499 530 492 530Q486 530 477 536Q416 576 329 576Q221 576 221 498Q221 472 233 456T268 428T337 398L365 387Q438 358 480 333T544 270T567 175Q567 88 502 37T312 -15Q234
-15 163 1Z" />
<glyph unicode="T" glyph-name="T" horiz-adv-x="601" d="M238 0T228 10T217 43V558H53Q29 558 20 567T11 600V637Q11 660 20 670T53 680H547Q571 680 580 670T590 637V600Q590 578 581 568T547 558H383V43Q383 21 373 11T337 0H263Q238 0 228 10Z" />
<glyph unicode="U" glyph-name="U" horiz-adv-x="716" d="M266 -15T195 16T85 105T46 243V636Q46 658 56 669T91 680H166Q191 680 201 670T211 636V240Q211 175 250 140T358 104Q427 104 465 139T504 240V636Q504 658 514 669T549 680H624Q649 680 659 669T670
636V243Q670 164 631 106T521 16T358 -15Q266 -15 195 16Z" />
<glyph unicode="V" glyph-name="V" horiz-adv-x="727" d="M311 0T303 6T288 29L35 647Q32 656 32 663Q32 680 50 680H170Q184 680 191 674T203 657L363 228L523 657Q531 680 557 680H677Q695 680 695 663Q695 656 692 647L440 29Q433 12 425 6T400 0H327Q311 0 303 6Z" />
<glyph unicode="W" glyph-name="W" horiz-adv-x="879" d="M211 0T202 6T188 29L33 653Q31 661 31 663Q31 680 54 680H165Q181 680 188 675T197 657L277 284L377 604Q382 618 389 623T411 628H467Q482 628 489 623T501 604L602 284L681 657Q683 669 690 674T713
680H825Q848 680 848 663Q848 661 846 653L690 29Q686 13 677 7T650 0H578Q561 0 552 6T538 29L439 361L341 29Q336 13 327 7T301 0H228Q211 0 202 6Z" />
<glyph unicode="X" glyph-name="X" horiz-adv-x="731" d="M41 0T36 4T31 17Q31 26 37 33L274 349L52 647Q46 655 46 664Q46 671 50 675T64 680H188Q200 680 206 677T218 667L365 471L512 667Q518 674 524 677T542 680H667Q676 680 680 676T685 664Q685 656 679
647L456 349L693 33Q699 24 699 17Q699 9 694 5T680 0H556Q544 0 538 2T527 12L365 227L204 12Q199 5 193 3T175 0H50Q41 0 36 4Z" />
<glyph unicode="Y" glyph-name="Y" horiz-adv-x="722" d="M299 0T289 10T278 43V232L36 647Q31 655 31 663Q31 670 36 675T51 680H171Q185 680 191 676T203 660L361 383L519 660Q525 671 531 675T550 680H671Q680 680 685 675T691 663Q691 655 686 647L444 231V43Q444
21 434 11T398 0H323Q299 0 289 10Z" />
<glyph unicode="Z" glyph-name="Z" horiz-adv-x="636" d="M46 0T39 9T31 41Q31 63 36 77T57 113L386 558H86Q62 558 52 568T41 601V638Q41 660 51 670T86 680H564Q587 680 595 671T603 639Q603 616 598 603T576 566L249 121H560Q584 121 594 111T605 78V42Q605
20 595 10T560 0H69Q46 0 39 9Z" />
<glyph unicode="[" glyph-name="bracketleft" horiz-adv-x="332" d="M51 -70T41 -60T31 -27V706Q31 728 41 739T75 750H269Q293 750 302 741T311 708V671Q311 648 302 638T269 628H196V51H269Q293 51 302 41T311 8V-28Q311 -51 302 -60T269 -70H75Q51 -70 41 -60Z" />
<glyph unicode="\" glyph-name="backslash" horiz-adv-x="499" d="M316 0T310 5T299 20L35 664Q31 676 31 680Q31 695 48 695H171Q184 695 190 690T201 675L465 31Q469 19 469 15Q469 0 452 0H328Q316 0 310 5Z" />
<glyph unicode="]" glyph-name="bracketright" horiz-adv-x="332" d="M39 -70T30 -61T21 -28V8Q21 31 30 41T63 51H135V628H63Q39 628 30 638T21 671V708Q21 731 30 740T63 750H257Q280 750 290 739T301 706V-27Q301 -49 291 -59T257 -70H63Q39 -70 30 -61Z" />
<glyph unicode="^" glyph-name="asciicircum" horiz-adv-x="622" d="M41 339T36 343T31 356Q31 363 37 372L236 685Q249 705 258 712T288 719H334Q355 719 364 712T386 685L585 372Q590 365 590 356Q590 339 571 339H465Q451 339 444 343T429 359L311 558L193
359Q185 348 178 344T156 339H50Q41 339 36 343Z" />
<glyph unicode="_" glyph-name="underscore" horiz-adv-x="529" d="M47 -137T39 -128T31 -98V-54Q31 -34 39 -25T69 -15H460Q481 -15 489 -24T498 -54V-98Q498 -118 490 -127T460 -137H69Q47 -137 39 -128Z" />
<glyph unicode="`" glyph-name="grave" horiz-adv-x="285" d="M130 557T122 561T107 577L37 707Q31 718 31 726Q31 736 39 741T62 746H163Q184 746 191 741T204 719L251 591Q254 584 254 578Q254 557 225 557H147Q130 557 122 561Z" />
<glyph unicode="a" glyph-name="a" horiz-adv-x="617" d="M146 -15T89 45T31 214Q31 298 70 361T179 460T341 495Q412 495 466 479T566 433V29Q566 12 560 6T534 0H455Q444 0 439 4T430 17L419 52Q389 17 346 1T242 -15Q146 -15 89 45ZM347 99T379 124T412 192V367Q382
382 340 382Q274 382 235 339T195 217Q195 157 222 128T303 99Q347 99 379 124Z" />
<glyph unicode="b" glyph-name="b" horiz-adv-x="620" d="M227 -15T160 4T51 53V636Q51 658 61 669T96 680H168Q193 680 203 670T213 636V458Q236 476 273 485T350 495Q466 495 527 434T589 259Q589 129 516 57T299 -15Q227 -15 160 4ZM359 99T392 138T425 257Q425
321 400 351T316 381Q274 381 244 360T213 297V116Q227 108 248 104T291 99Q359 99 392 138Z" />
<glyph unicode="c" glyph-name="c" horiz-adv-x="563" d="M181 -15T106 50T31 239Q31 315 65 373T165 463T318 495Q383 495 429 482T513 443Q523 436 523 427Q523 419 517 410L483 351Q476 339 469 339Q464 339 452 346Q423 364 396 373T331 382Q268 382 232 344T195
239Q195 169 231 134T337 99Q375 99 403 108T459 135Q471 142 476 142Q483 142 490 130L527 67Q532 59 532 54Q532 46 520 38Q478 11 431 -2T318 -15Q181 -15 106 50Z" />
<glyph unicode="d" glyph-name="d" horiz-adv-x="620" d="M31 -15T31 242Q31 317 59 374T143 463T274 495Q317 495 351 486T407 458V636Q407 659 417 669T452 680H524Q548 680 558 669T569 636V53Q528 23 462 4T323 -15Q31 -15 31 242ZM376 99T407 116V299Q407
340 381 360T311 381Q252 381 224 344T195 240Q195 164 228 132T327 99Q376 99 407 116Z" />
<glyph unicode="e" glyph-name="e" horiz-adv-x="596" d="M235 -15T171 12T69 95T31 233Q31 361 101 428T303 495Q432 495 498 430T565 245Q565 203 527 203H187Q187 149 227 120T339 90Q381 90 412 98T472 123Q482 128 486 128Q493 128 499 117L528 63Q532 56
532 51Q532 43 521 35Q481 9 431 -3T316 -15Q235 -15 171 12ZM417 289Q417 339 389 367T304 395Q247 395 217 367T187 289H417Z" />
<glyph unicode="f" glyph-name="f" horiz-adv-x="445" d="M114 0T104 10T93 43V364H53Q29 364 20 374T11 407V438Q11 461 20 470T53 480H93V506Q93 596 141 645T288 695Q387 695 443 654Q454 646 454 638Q454 632 449 624L418 573Q412 563 404 563Q399 563 392
567Q359 585 326 585Q289 585 274 567T258 511V480H362Q386 480 395 471T404 438V407Q404 384 395 374T362 364H258V43Q258 21 248 11T213 0H138Q114 0 104 10Z" />
<glyph unicode="g" glyph-name="g" horiz-adv-x="620" d="M249 -170T192 -158T104 -126Q97 -120 97 -113Q97 -108 100 -103L136 -42Q139 -37 142 -34T150 -30Q152 -30 162 -34Q209 -58 295 -58Q352 -58 379 -32T407 55Q359 10 272 10Q156 10 94 70T31 241Q31 365
106 430T327 495Q397 495 462 476T569 427V101Q569 -22 507 -96T310 -170Q249 -170 192 -158ZM354 127T380 150T407 217V367Q373 381 318 381Q257 380 226 350T195 250Q195 187 222 157T308 127Q354 127 380 150Z" />
<glyph unicode="h" glyph-name="h" horiz-adv-x="601" d="M72 0T62 10T51 43V651Q51 668 57 674T81 680H174Q192 680 198 674T205 651V438Q270 495 374 495Q456 495 505 451T555 318V43Q555 21 545 11T510 0H435Q410 0 400 10T389 43V308Q389 347 371 364T316
381Q275 381 246 359T216 300V43Q216 21 206 11T171 0H97Q72 0 62 10Z" />
<glyph unicode="i" glyph-name="i" horiz-adv-x="281" d="M83 547T67 563T51 602V625Q51 648 67 664T111 680H169Q198 680 214 664T230 625V602Q230 579 214 563T169 547H111Q83 547 67 563ZM78 0T68 10T58 43V436Q58 459 68 469T103 480H177Q202 480 212 469T223
436V43Q223 21 213 11T177 0H103Q78 0 68 10Z" />
<glyph unicode="j" glyph-name="j" horiz-adv-x="336" d="M138 547T122 563T106 602V625Q106 648 122 664T166 680H224Q253 680 269 664T285 625V602Q285 579 269 563T224 547H166Q138 547 122 563ZM9 -170T-39 -156T-122 -117Q-132 -110 -132 -101Q-132 -93 -126
-84L-90 -23Q-83 -11 -75 -11Q-71 -11 -60 -18Q-37 -34 -15 -42T35 -51Q78 -51 95 -31T113 31V436Q113 458 123 469T158 480H233Q258 480 268 469T279 436V28Q279 -64 225 -117T67 -170Q9 -170 -39 -156Z" />
<glyph unicode="k" glyph-name="k" horiz-adv-x="579" d="M556 26T556 17Q556 10 552 5T538 0H413Q401 0 395 2T382 12L223 208Q220 211 216 217V43Q216 21 206 11T171 0H96Q72 0 62 10T51 43V636Q51 658 61 669T96 680H171Q196 680 206 670T216 636V280L223 288L377
467Q383 475 389 477T409 480H533Q541 480 546 475T551 463Q551 454 544 447L359 248L550 33Q556 26 556 17Z" />
<glyph unicode="l" glyph-name="l" horiz-adv-x="267" d="M72 0T62 10T51 43V636Q51 658 61 669T96 680H171Q196 680 206 670T216 636V43Q216 21 206 11T171 0H96Q72 0 62 10Z" />
<glyph unicode="m" glyph-name="m" horiz-adv-x="815" d="M72 0T62 10T51 43V451Q51 468 57 474T81 480H155Q167 480 172 476T179 462L183 426Q212 459 248 477T334 495Q421 495 457 426Q513 495 611 495Q685 495 727 452T769 320V43Q769 21 759 11T724 0H661Q636
0 626 10T616 43V310Q616 348 602 364T558 381Q525 381 505 359T484 301V43Q484 21 474 11T439 0H382Q357 0 347 10T336 43V314Q336 348 323 364T281 381Q247 381 226 359T204 299V43Q204 21 194 11T159 0H97Q72 0 62 10Z" />
<glyph unicode="n" glyph-name="n" horiz-adv-x="601" d="M72 0T62 10T51 43V451Q51 468 57 474T81 480H161Q173 480 179 476T186 462L189 427Q220 459 267 477T374 495Q456 495 505 451T555 318V43Q555 21 545 11T510 0H435Q410 0 400 10T389 43V308Q389 347
372 364T316 381Q274 381 245 359T216 300V43Q216 21 206 11T171 0H97Q72 0 62 10Z" />
<glyph unicode="o" glyph-name="o" horiz-adv-x="623" d="M178 -15T105 53T31 240Q31 358 104 426T311 495Q445 495 518 427T592 240Q592 122 519 54T311 -15Q178 -15 105 53ZM368 104T398 138T428 240Q428 307 398 341T311 375Q255 375 225 341T195 240Q195 173
225 139T311 104Q368 104 398 138Z" />
<glyph unicode="p" glyph-name="p" horiz-adv-x="620" d="M72 -202T62 -192T51 -159V427Q93 456 158 475T293 495Q589 495 589 239Q589 122 526 54T348 -15Q306 -15 272 -4T213 29V-159Q213 -181 203 -191T168 -202H96Q72 -202 62 -192ZM368 98T396 136T425 242Q425
317 391 349T288 381Q240 381 212 367V189Q212 146 239 122T311 98Q368 98 396 136Z" />
<glyph unicode="q" glyph-name="q" horiz-adv-x="620" d="M427 -202T417 -192T407 -159V29Q383 7 349 -4T272 -15Q157 -15 94 48T31 225Q31 354 107 424T327 495Q397 495 462 476T569 427V-159Q569 -181 559 -191T524 -202H452Q427 -202 417 -192ZM352 98T379
122T407 189V367Q379 381 331 381Q266 381 231 343T195 228Q195 98 308 98Q352 98 379 122Z" />
<glyph unicode="r" glyph-name="r" horiz-adv-x="439" d="M72 0T62 10T51 43V451Q51 468 57 474T81 480H161Q173 480 178 476T185 462L189 430Q249 495 339 495Q368 495 386 491T419 476Q428 469 428 462Q428 459 426 453L401 378Q397 366 388 366Q384 366 378
369Q352 382 318 382Q274 382 245 357T216 290V43Q216 21 206 11T171 0H97Q72 0 62 10Z" />
<glyph unicode="s" glyph-name="s" horiz-adv-x="529" d="M207 -15T149 -2T47 36Q31 45 31 54Q31 59 36 67L71 129Q77 139 83 139Q90 139 98 134Q127 117 170 105T250 93Q294 93 313 102T333 135Q333 150 321 160T286 178T210 202Q127 227 89 259T51 350Q51 421
110 458T270 495Q388 495 471 447Q487 438 487 428Q487 422 481 413L447 359Q441 349 435 349Q430 349 421 355Q396 369 362 378T294 387Q252 387 231 378T210 344Q210 324 233 313T312 286L367 270Q418 253 446 235T486 193T498 132Q498 68 440 27T271 -15Q207
-15 149 -2Z" />
<glyph unicode="t" glyph-name="t" horiz-adv-x="472" d="M195 -15T148 35T101 173V364H52Q28 364 20 373T12 405V438Q12 461 20 470T52 480H101V520Q101 542 110 563T138 617Q146 631 153 635T178 640H224Q247 640 256 630T266 598V480H365Q389 480 397 471T405
438V405Q405 382 397 373T365 364H266V177Q266 138 280 121T327 104Q347 104 360 109T391 125Q399 130 403 130Q412 130 418 119L455 56Q460 48 460 43Q460 36 448 28Q385 -15 286 -15Q195 -15 148 35Z" />
<glyph unicode="u" glyph-name="u" d="M145 -15T96 31T46 168V436Q46 458 56 469T91 480H166Q191 480 201 470T211 436V174Q211 135 230 117T288 99Q329 99 354 121T380 181V436Q380 458 390 469T426 480H500Q525 480 535 469T546 436V29Q546 12 540 6T516 0H436Q413
0 412 17L408 54Q342 -15 227 -15Q145 -15 96 31Z" />
<glyph unicode="v" glyph-name="v" horiz-adv-x="616" d="M257 0T249 6T232 29L35 447Q31 457 31 462Q31 470 36 475T50 480H165Q179 480 186 476T198 457L308 187L418 457Q423 470 430 475T451 480H566Q575 480 580 475T585 462Q585 457 581 447L384 29Q376 12
368 6T343 0H273Q257 0 249 6Z" />
<glyph unicode="w" glyph-name="w" horiz-adv-x="775" d="M183 0T177 5T166 23L33 458Q32 461 32 466Q32 480 50 480H154Q167 480 172 476T180 462L250 195L334 418Q338 429 343 433T361 438H414Q426 438 431 434T441 418L524 195L595 462Q597 472 602 476T620
480H725Q748 480 742 458L608 23Q604 10 598 5T578 0H500Q487 0 481 5T470 23L387 248L304 23Q299 10 293 5T274 0H197Q183 0 177 5Z" />
<glyph unicode="x" glyph-name="x" horiz-adv-x="615" d="M42 0T37 5T31 17Q31 26 38 33L215 244L46 447Q40 455 40 464Q40 471 44 475T58 480H182Q194 480 200 477T212 467L307 355L403 467Q409 474 415 477T433 480H557Q566 480 570 476T575 464Q575 455 569
447L399 244L577 33Q584 26 584 17Q584 10 579 5T564 0H440Q428 0 423 2T411 12L307 133L204 12Q198 5 193 3T175 0H51Q42 0 37 5Z" />
<glyph unicode="y" glyph-name="y" horiz-adv-x="601" d="M97 -156T44 -111Q35 -104 35 -96Q35 -91 40 -81L74 -22Q80 -11 88 -11Q95 -11 104 -17Q120 -28 135 -33T170 -39Q196 -39 210 -24T238 27L40 447Q36 455 36 463Q36 480 54 480H170Q184 480 191 475T203
458L313 187L423 458Q428 470 435 475T456 480H572Q590 480 590 463Q590 455 586 447L399 49Q362 -29 334 -71T269 -135T179 -156Q97 -156 44 -111Z" />
<glyph unicode="z" glyph-name="z" horiz-adv-x="544" d="M48 0T41 7T33 33Q33 69 41 87T78 133L300 358H83Q59 358 49 368T38 401V438Q38 460 48 470T83 480H469Q488 480 495 474T502 449Q502 413 493 395T458 347L247 121H468Q492 121 502 111T513 78V42Q513
20 503 10T468 0H69Q48 0 41 7Z" />
<glyph unicode="{" glyph-name="braceleft" horiz-adv-x="386" d="M133 -70T123 -60T113 -27V283H53Q29 283 20 292T11 325V355Q11 378 20 388T53 398H113V706Q113 729 123 739T158 750H323Q347 750 356 741T365 708V677Q365 654 356 644T323 634H275V45H323Q347
45 356 35T365 2V-28Q365 -51 356 -60T323 -70H158Q133 -70 123 -60Z" />
<glyph unicode="|" glyph-name="bar" horiz-adv-x="227" d="M52 -90T42 -80T31 -47V726Q31 748 41 759T76 770H151Q176 770 186 760T196 726V-47Q196 -69 186 -79T151 -90H76Q52 -90 42 -80Z" />
<glyph unicode="}" glyph-name="braceright" horiz-adv-x="386" d="M39 -70T30 -61T21 -28V2Q21 25 30 35T63 45H111V634H63Q39 634 30 644T21 677V708Q21 731 30 740T63 750H228Q253 750 263 740T273 706V398H333Q357 398 366 388T375 355V325Q375 302 366 293T333
283H273V-27Q273 -49 263 -59T228 -70H63Q39 -70 30 -61Z" />
<glyph unicode="~" glyph-name="asciitilde" horiz-adv-x="614" d="M389 213T364 222T304 250Q273 266 253 274T209 282Q184 282 171 273T136 240Q124 226 109 226Q90 226 58 251Q32 271 32 289Q32 303 48 325Q77 364 113 386T199 408Q232 408 258 398T319 369Q348
353 366 346T405 338Q430 338 444 347T478 380Q490 395 505 395Q523 395 555 370Q569 359 575 350T582 332Q582 318 566 296Q505 213 421 213Q389 213 364 222Z" />
<glyph unicode="&#xa0;" glyph-name="uni00A0" horiz-adv-x="360" />
<glyph unicode="&#xa1;" glyph-name="exclamdown" horiz-adv-x="241" d="M67 472T49 483T31 518V541Q31 565 49 576T104 587H136Q174 587 192 576T210 541V518Q210 494 192 483T136 472H104Q67 472 49 483ZM58 -93T48 -83T38 -49L44 360Q44 382 55 392T92 403H149Q174
403 185 393T197 360L204 -49Q204 -72 194 -82T159 -93H83Q58 -93 48 -83Z" />
<glyph unicode="&#xa2;" glyph-name="cent" horiz-adv-x="563" d="M258 -103T248 -93T237 -60V-6Q138 10 85 72T31 239Q31 336 86 402T237 485V539Q237 561 247 572T283 583H345Q370 583 380 572T391 539V489Q465 477 513 443Q523 436 523 427Q523 419 517 410L483
351Q476 339 469 339Q464 339 452 346Q425 364 398 373T331 382Q269 382 232 344T195 239Q195 170 232 135T337 99Q404 99 459 135Q471 142 476 142Q483 142 490 130L527 67Q532 59 532 54Q532 46 520 38Q463 1 391 -9V-60Q391 -82 381 -92T345 -103H283Q258 -103
248 -93Z" />
<glyph unicode="&#xa3;" glyph-name="sterling" horiz-adv-x="567" d="M49 0T40 10T31 43V73Q31 96 40 105T73 115Q94 115 105 131T117 177V311H77Q53 311 44 321T35 354V385Q35 408 44 417T77 427H117V501Q117 590 172 642T329 695Q433 695 489 654Q500 646 500
638Q500 632 495 624L464 573Q458 563 450 563Q445 563 438 567Q405 585 364 585Q325 585 304 566T282 506V427H398Q422 427 431 418T440 385V354Q440 331 431 321T398 311H282V201Q282 171 276 150T255 115H493Q517 115 526 105T536 73V43Q536 20 527 10T493 0H73Q49
0 40 10Z" />
<glyph unicode="&#xa4;" glyph-name="currency" horiz-adv-x="557" d="M131 67T119 67Q107 67 96 78L42 129Q31 139 31 148Q31 158 42 169L79 206Q50 254 50 305Q50 355 79 405L42 442Q31 453 31 462Q31 471 42 482L96 533Q107 544 119 544Q131 544 141 534L187
493Q231 515 279 515Q326 515 370 493L415 534Q425 544 436 544Q449 544 461 532L514 482Q525 472 525 462Q525 453 514 442L478 405Q507 359 507 305Q507 254 478 206L514 169Q525 158 525 149Q525 139 514 129L461 78Q450 67 437 67Q425 67 415 77L370 118Q329
96 279 96Q228 96 187 118L141 77Q131 67 119 67ZM316 215T342 241T368 305Q368 342 342 368T279 395Q242 395 216 369T189 305Q189 268 215 242T279 215Q316 215 342 241Z" />
<glyph unicode="&#xa5;" glyph-name="yen" horiz-adv-x="722" d="M299 0T289 10T278 43V79H165Q146 79 140 86T133 115V140Q133 162 139 169T165 177H278V224H165Q146 224 140 231T133 260V284Q133 307 139 314T165 321H225L36 647Q31 655 31 663Q31 670 36 675T51
680H171Q185 680 191 676T203 660L361 381L519 660Q524 670 530 675T550 680H671Q680 680 685 675T691 663Q691 655 686 647L496 321H546Q565 321 571 314T578 284V260Q578 238 572 231T546 224H444V177H546Q565 177 571 170T578 140V115Q578 93 572 86T546 79H444V43Q444
21 434 11T398 0H323Q299 0 289 10Z" />
<glyph unicode="&#xa6;" glyph-name="brokenbar" horiz-adv-x="227" d="M52 350T42 360T31 393V686Q31 708 41 719T76 730H151Q176 730 186 720T196 686V393Q196 371 186 361T151 350H76Q52 350 42 360ZM52 -219T42 -209T31 -176V117Q31 139 41 150T76 161H151Q176
161 186 151T196 117V-176Q196 -198 186 -208T151 -219H76Q52 -219 42 -209Z" />
<glyph unicode="&#xa7;" glyph-name="section" horiz-adv-x="598" d="M147 -156T47 -95Q32 -85 32 -74Q32 -68 37 -60L77 4Q83 14 90 14Q96 14 105 8Q182 -37 288 -37Q345 -37 373 -22T402 28Q402 57 381 72T305 110L247 134Q186 162 150 183T87 236T61 315Q61
350 66 374T85 422Q58 461 58 514Q58 569 89 610T176 673T308 695Q457 695 536 639Q551 627 551 619Q551 613 546 605L505 540Q499 530 492 530Q486 530 477 536Q416 576 329 576Q275 576 248 560T221 505Q221 483 233 468T265 443T326 418L373 399Q434 373 472
352T537 293T565 199Q565 152 539 119Q554 101 560 79T567 25Q567 -58 501 -107T307 -156Q147 -156 47 -95ZM437 182T437 187Q437 193 436 196Q432 229 410 248T336 288Q280 311 250 324T192 356Q190 353 190 346Q192 319 202 303T232 275T294 245L320 234Q397
203 436 180Q437 182 437 187Z" />
<glyph unicode="&#xa8;" glyph-name="dieresis" horiz-adv-x="403" d="M61 547T46 563T31 604V626Q31 650 46 666T85 683H108Q132 683 147 667T162 626V604Q162 580 147 564T108 547H85Q61 547 46 563ZM271 547T256 563T241 604V626Q241 650 256 666T295 683H318Q342
683 357 667T372 626V604Q372 580 357 564T318 547H295Q271 547 256 563Z" />
<glyph unicode="&#xa9;" glyph-name="copyright" horiz-adv-x="784" d="M295 -15T212 33T80 162T31 340Q31 436 80 517T212 647T392 695Q489 695 572 647T704 518T753 340Q753 244 704 163T572 33T392 -15Q295 -15 212 33ZM468 74T528 108T621 202T655 340Q655
416 622 476T528 571T392 606Q315 606 255 572T162 477T128 340Q128 263 161 203T255 108T392 74Q468 74 528 108ZM288 110T228 169T167 338Q167 445 227 507T392 569Q444 569 482 558T548 523Q554 517 554 511Q554 506 551 500L531 460Q526 452 521 452Q517 452
510 457Q490 472 466 479T406 486Q344 486 310 447T276 338Q276 266 311 230T410 193Q444 193 467 200T513 223Q520 228 524 228Q529 228 534 220L554 180Q557 174 557 168Q557 162 551 157Q488 110 397 110Q288 110 228 169Z" />
<glyph unicode="&#xaa;" glyph-name="ordfeminine" horiz-adv-x="366" d="M91 368T61 394T31 465Q31 514 63 540T152 567H247V575Q247 626 177 626Q142 626 103 609Q101 608 98 608Q94 608 91 613L64 659Q63 660 63 663Q63 668 73 673Q120 695 185 695Q264 695
299 663T335 564V390Q335 377 320 377H268Q256 377 253 390L249 410Q212 368 140 368Q91 368 61 394ZM204 432T225 450T247 498V507H173Q147 507 135 498T122 470Q122 432 170 432Q204 432 225 450Z" />
<glyph unicode="&#xab;" glyph-name="guillemotleft" horiz-adv-x="703" d="M287 18T277 18Q265 18 248 35L58 232Q41 250 36 257T31 273V292Q31 300 35 307T47 322T58 334L248 531Q265 548 277 548Q287 548 298 537L352 483Q366 469 366 460Q366 450 352 436L198
283L352 129Q366 115 366 106Q366 97 352 83L298 29Q287 18 277 18ZM593 18T583 18Q571 18 554 35L364 232Q347 250 342 257T337 273V292Q337 300 341 307T353 322T364 334L554 531Q571 548 583 548Q593 548 604 537L658 483Q672 469 672 459Q672 450 658 436L504
283L658 129Q672 115 672 106Q672 97 658 83L604 29Q593 18 583 18Z" />
<glyph unicode="&#xac;" glyph-name="logicalnot" horiz-adv-x="470" d="M327 115T317 124T307 157V240H73Q49 240 40 250T31 283V319Q31 342 40 352T73 362H396Q420 362 429 352T439 319V157Q439 133 429 124T395 115H350Q327 115 317 124Z" />
<glyph unicode="&#xad;" glyph-name="uni00AD" horiz-adv-x="470" d="M49 240T40 250T31 283V319Q31 342 40 352T73 362H396Q420 362 429 352T439 319V283Q439 260 430 250T396 240H73Q49 240 40 250Z" />
<glyph unicode="&#xae;" glyph-name="registered" horiz-adv-x="784" d="M295 -15T212 33T80 162T31 340Q31 436 80 517T212 647T392 695Q489 695 572 647T704 518T753 340Q753 244 704 163T572 33T392 -15Q295 -15 212 33ZM468 74T528 108T621 202T655 340Q655
416 622 476T528 571T392 606Q315 606 255 572T162 477T128 340Q128 263 161 203T255 108T392 74Q468 74 528 108ZM253 139T246 145T239 166V524Q239 538 246 544T268 551H423Q576 551 576 417Q576 321 490 296L554 159Q557 153 557 149Q557 139 544 139H478Q469
139 465 141T458 149L401 283H342V166Q342 139 314 139H268Q253 139 246 145ZM414 358Q449 358 464 372T479 417Q479 449 465 462T416 476H342V358H414Z" />
<glyph unicode="&#xaf;" glyph-name="overscore" horiz-adv-x="418" d="M49 581T40 591T31 624V660Q31 683 40 693T73 703H344Q368 703 377 693T387 660V624Q387 601 378 591T344 581H73Q49 581 40 591Z" />
<glyph unicode="&#xb0;" glyph-name="degree" horiz-adv-x="337" d="M105 449T68 484T31 586Q31 651 68 686T168 722Q232 722 269 687T306 586Q306 520 269 485T168 449Q105 449 68 484ZM192 533T206 546T220 586Q220 612 206 625T168 639Q145 639 131 626T117
586Q117 560 131 547T168 533Q192 533 206 546Z" />
<glyph unicode="&#xb1;" glyph-name="plusminus" horiz-adv-x="462" d="M183 191T176 199T168 228V310H74Q50 310 41 317T31 349V393Q31 417 40 424T74 432H168V515Q168 536 175 544T207 552H261Q285 552 292 544T300 515V432H396Q420 432 429 425T439 393V349Q439
325 430 318T396 310H300V228Q300 207 293 199T261 191H207Q183 191 176 199ZM43 0T35 9T27 39V82Q27 102 35 111T65 121H397Q418 121 426 112T435 82V39Q435 19 427 10T397 0H65Q43 0 35 9Z" />
<glyph unicode="&#xb2;" glyph-name="uni00B2" horiz-adv-x="381" d="M33 286T33 310V341Q33 378 60 410T148 480Q185 502 201 514T223 537T230 567Q230 588 215 599T169 611Q127 611 81 589Q75 586 71 586Q68 586 63 592L39 640Q36 646 36 650Q36 655 42 659Q66
675 107 685T197 695Q265 695 306 664T347 579Q347 534 326 505T250 444Q214 424 195 409T170 377H326Q339 377 344 372T350 352V310Q350 297 345 292T326 286H55Q33 286 33 310Z" />
<glyph unicode="&#xb3;" glyph-name="uni00B3" horiz-adv-x="384" d="M140 279T100 288T37 313Q31 318 31 323Q31 326 34 332L58 377Q61 383 66 383Q69 383 75 380Q119 358 159 358Q197 358 214 370T231 407Q231 431 219 441T181 452H140Q125 452 119 457T113
477V508Q113 521 119 526T140 532H178Q219 532 219 575Q219 595 206 605T162 615Q138 615 120 610T81 594Q73 590 71 590Q67 590 64 596L41 641Q37 649 37 652Q37 657 42 660Q65 676 102 685T182 695Q256 695 299 664T342 578Q342 549 332 529T297 494Q353 470
353 404Q353 347 309 313T181 279Q140 279 100 288Z" />
<glyph unicode="&#xb4;" glyph-name="acute" horiz-adv-x="285" d="M31 557T31 577Q31 584 34 591L80 717Q87 734 94 740T124 746H221Q236 746 244 741T253 726Q253 718 247 707L182 585Q173 568 164 563T130 557H59Q31 557 31 577Z" />
<glyph unicode="&#xb5;" glyph-name="uni00B5" horiz-adv-x="562" d="M52 -177T42 -166T31 -133V436Q31 461 42 470T83 480H151Q175 480 185 470T196 436V174Q196 138 216 119T273 99Q319 99 342 120T365 181V436Q365 463 379 471T431 480H485Q510 480 520 470T531
436V29Q531 12 525 6T501 0H421Q409 0 404 4T397 17L393 54Q377 19 350 2T276 -15Q254 -15 232 -11T196 1V-133Q196 -160 183 -168T131 -177H76Q52 -177 42 -166Z" />
<glyph unicode="&#xb6;" glyph-name="paragraph" horiz-adv-x="770" d="M266 -100T256 -90T245 -57V259Q144 259 88 311T31 460Q31 574 96 627T304 680H696Q720 680 729 670T739 637V600Q739 578 730 568T696 558H662V-57Q662 -79 652 -89T616 -100H543Q519 -100
509 -90T498 -57V558H410V-57Q410 -79 400 -89T364 -100H291Q266 -100 256 -90Z" />
<glyph unicode="&#xb7;" glyph-name="middot" horiz-adv-x="179" d="M58 259T45 274T31 310V330Q31 351 44 365T79 380H100Q121 380 134 366T148 330V310Q148 289 135 274T100 259H79Q58 259 45 274Z" />
<glyph unicode="&#xb8;" glyph-name="cedilla" horiz-adv-x="286" d="M109 -240T83 -235T43 -223Q34 -218 32 -215T33 -205L50 -161Q53 -154 58 -154Q62 -154 68 -157Q90 -167 113 -167Q132 -167 140 -161T149 -142Q149 -125 136 -119T93 -113H77Q69 -113 67 -109T67
-97L94 -29Q97 -21 101 -18T116 -15H199Q211 -15 211 -23Q211 -28 209 -31L186 -81Q255 -90 255 -155Q255 -193 224 -216T134 -240Q109 -240 83 -235Z" />
<glyph unicode="&#xb9;" glyph-name="uni00B9" horiz-adv-x="354" d="M66 286T60 292T53 314V342Q53 357 59 363T82 370H140V567L86 533Q81 530 76 530Q69 530 64 538L34 583Q31 588 31 592Q31 599 40 603L155 673Q161 677 166 678T181 680H228Q244 680 251 673T258
651V370H316Q331 370 337 364T343 342V314Q343 299 337 293T316 286H82Q66 286 60 292Z" />
<glyph unicode="&#xba;" glyph-name="ordmasculine" horiz-adv-x="413" d="M123 368T77 411T31 531Q31 608 77 651T206 695Q289 695 335 652T382 531Q382 455 336 412T206 368Q123 368 77 411ZM239 446T257 467T276 531Q276 574 258 595T206 616Q173 616 155 595T137
531Q137 489 155 468T206 446Q239 446 257 467Z" />
<glyph unicode="&#xbb;" glyph-name="guillemotright" horiz-adv-x="703" d="M44 83Q31 96 31 105Q31 116 45 129L198 283L45 436Q31 449 31 460Q31 470 44 483L98 537Q109 548 119 548Q131 548 148 531L338 334Q355 316 360 309T366 292V273Q366 265 362 259T350
244T338 232L148 35Q131 18 119 18Q109 18 98 29L44 83ZM350 83Q337 96 337 105Q337 116 351 129L504 283L351 436Q337 449 337 460Q337 470 350 483L404 537Q415 548 425 548Q437 548 454 531L644 334Q661 316 666 309T672 292V273Q672 265 668 259T656 244T644
232L454 35Q437 18 425 18Q415 18 404 29L350 83Z" />
<glyph unicode="&#xbc;" glyph-name="onequarter" horiz-adv-x="836" d="M46 286T40 292T33 314V342Q33 357 39 363T62 370H120V567L66 533Q62 530 56 530Q49 530 44 538L14 583Q11 588 11 592Q11 599 20 603L135 673Q141 677 146 678T161 680H208Q224 680 231
673T238 651V370H296Q311 370 317 364T323 342V314Q323 299 317 293T296 286H62Q46 286 40 292ZM166 0T162 4T157 16Q157 23 162 31L559 660Q565 670 572 675T591 680H690Q699 680 703 676T708 664Q708 657 703 649L303 16Q296 4 285 2T248 0H175Q166 0 162 4ZM636
0T629 6T622 27V83H450Q433 83 433 99V127Q433 144 436 153T452 177L615 378Q623 388 631 391T660 394H721Q736 394 741 389T746 367V164H778Q794 164 800 159T806 138V106Q806 92 801 88T778 83H746V27Q746 12 739 6T715 0H653Q636 0 629 6ZM645 164V274L560 164H645Z"
/>
<glyph unicode="&#xbd;" glyph-name="onehalf" horiz-adv-x="892" d="M46 286T40 292T33 314V342Q33 357 39 363T62 370H120V567L66 533Q62 530 56 530Q49 530 44 538L14 583Q11 588 11 592Q11 599 20 603L135 673Q141 677 146 678T161 680H208Q224 680 231 673T238
651V370H296Q311 370 317 364T323 342V314Q323 299 317 293T296 286H62Q46 286 40 292ZM166 0T162 4T157 16Q157 23 162 31L559 660Q565 670 572 675T591 680H690Q699 680 703 676T708 664Q708 657 703 649L303 16Q296 4 285 2T248 0H175Q166 0 162 4ZM543 0T543
24V55Q543 92 570 124T658 194Q695 216 711 228T733 251T740 281Q740 302 725 313T679 325Q637 325 591 303Q585 300 581 300Q578 300 573 306L549 354Q546 360 546 364Q546 369 552 373Q576 389 617 399T707 409Q775 409 816 378T857 293Q857 248 836 219T760
158Q724 138 705 123T680 91H836Q849 91 854 86T860 66V24Q860 11 855 6T836 0H565Q543 0 543 24Z" />
<glyph unicode="&#xbe;" glyph-name="threequarters" horiz-adv-x="854" d="M135 279T95 288T32 313Q26 318 26 323Q26 326 29 332L53 377Q56 383 61 383Q64 383 70 380Q114 358 154 358Q192 358 209 370T226 407Q226 431 214 441T176 452H135Q120 452 114 457T108
477V508Q108 521 114 526T135 532H173Q214 532 214 575Q214 595 201 605T157 615Q133 615 115 610T76 594Q68 590 66 590Q62 590 59 596L36 641Q32 649 32 652Q32 657 37 660Q60 676 97 685T177 695Q251 695 294 664T337 578Q337 549 327 529T292 494Q348 470 348
404Q348 347 304 313T176 279Q135 279 95 288ZM166 0T162 4T157 16Q157 23 162 31L559 660Q565 670 572 675T591 680H690Q699 680 703 676T708 664Q708 657 703 649L303 16Q296 4 285 2T248 0H175Q166 0 162 4ZM636 0T629 6T622 27V83H450Q433 83 433 99V127Q433
144 436 153T452 177L615 378Q623 388 631 391T660 394H721Q736 394 741 389T746 367V164H778Q794 164 800 159T806 138V106Q806 92 801 88T778 83H746V27Q746 12 739 6T715 0H653Q636 0 629 6ZM645 164V274L560 164H645Z" />
<glyph unicode="&#xbf;" glyph-name="questiondown" horiz-adv-x="553" d="M258 473T243 485T227 519V541Q227 563 242 575T288 587H346Q375 587 390 575T406 541V519Q406 498 391 486T346 473H288Q258 473 243 485ZM169 -108T100 -57T31 86Q31 147 59 185T149
260Q198 288 216 311T234 373V384Q234 406 244 416T279 427H354Q378 427 388 417T399 384V370Q399 308 371 266T278 185Q242 163 226 150T202 123T195 87Q195 50 222 31T302 11Q384 11 449 54Q461 61 465 61Q473 61 480 49L516 -12Q522 -21 522 -29Q522 -39 512
-46Q427 -108 281 -108Q169 -108 100 -57Z" />
<glyph unicode="&#xc0;" glyph-name="Agrave" horiz-adv-x="740" d="M319 723T310 728T291 751L225 873Q219 884 219 891Q219 901 228 906T252 912H348Q371 912 379 907T393 883L439 757Q442 750 442 744Q442 723 413 723H343Q319 723 310 728ZM32 0T32 17Q32
24 35 33L294 650Q301 667 309 673T334 680H407Q423 680 431 674T446 650L705 33Q708 24 708 17Q708 0 690 0H569Q555 0 549 4T537 21L491 139H248L203 21Q198 9 192 5T171 0H50Q32 0 32 17ZM453 254L370 470L286 254H453Z" />
<glyph unicode="&#xc1;" glyph-name="Aacute" horiz-adv-x="740" d="M301 723T301 743Q301 750 304 757L349 883Q355 900 363 906T394 912H491Q506 912 514 907T523 892Q523 884 517 873L452 751Q443 734 433 729T399 723H329Q301 723 301 743ZM32 0T32 17Q32
24 35 33L294 650Q301 667 309 673T334 680H407Q423 680 431 674T446 650L705 33Q708 24 708 17Q708 0 690 0H569Q555 0 549 4T537 21L491 139H248L203 21Q198 9 192 5T171 0H50Q32 0 32 17ZM453 254L370 470L286 254H453Z" />
<glyph unicode="&#xc2;" glyph-name="Acircumflex" horiz-adv-x="740" d="M189 722T182 727T175 740Q175 750 184 762L284 895Q297 910 303 914T330 919H409Q429 919 436 915T455 895L555 762Q564 749 564 740Q564 732 558 727T538 722H477Q456 722 447 727T429
746L370 834L311 746Q302 732 293 727T263 722H202Q189 722 182 727ZM32 0T32 17Q32 24 35 33L294 650Q301 667 309 673T334 680H407Q423 680 431 674T446 650L705 33Q708 24 708 17Q708 0 690 0H569Q555 0 549 4T537 21L491 139H248L203 21Q198 9 192 5T171 0H50Q32
0 32 17ZM453 254L370 470L286 254H453Z" />
<glyph unicode="&#xc3;" glyph-name="Atilde" horiz-adv-x="740" d="M444 730T423 737T374 758Q350 769 334 775T300 781Q281 781 270 774T242 749Q233 738 222 738Q207 738 178 761Q153 780 153 796Q153 808 165 824Q193 861 219 879T283 897Q312 897 335 889T387
867Q409 856 424 851T454 846Q473 846 485 853T513 881Q522 893 535 893Q551 893 578 872Q605 851 605 835Q605 824 593 807Q565 766 538 748T467 730Q444 730 423 737ZM32 0T32 17Q32 24 35 33L294 650Q301 667 309 673T334 680H407Q423 680 431 674T446 650L705
33Q708 24 708 17Q708 0 690 0H569Q555 0 549 4T537 21L491 139H248L203 21Q198 9 192 5T171 0H50Q32 0 32 17ZM453 254L370 470L286 254H453Z" />
<glyph unicode="&#xc4;" glyph-name="Adieresis" horiz-adv-x="740" d="M232 717T217 733T202 774V796Q202 820 217 836T256 853H279Q303 853 318 837T333 796V774Q333 750 318 734T279 717H256Q232 717 217 733ZM438 717T423 733T407 774V796Q407 820 422 836T461
853H485Q509 853 524 837T539 796V774Q539 750 524 734T485 717H461Q438 717 423 733ZM32 0T32 17Q32 24 35 33L294 650Q301 667 309 673T334 680H407Q423 680 431 674T446 650L705 33Q708 24 708 17Q708 0 690 0H569Q555 0 549 4T537 21L491 139H248L203 21Q198
9 192 5T171 0H50Q32 0 32 17ZM453 254L370 470L286 254H453Z" />
<glyph unicode="&#xc5;" glyph-name="Aring" horiz-adv-x="740" d="M708 24T708 17Q708 0 690 0H569Q555 0 549 4T537 21L491 139H248L203 21Q198 9 192 5T171 0H50Q32 0 32 17Q32 24 35 33L294 650L298 659Q276 675 263 700T250 755Q250 805 285 840T370 876Q420
876 455 841T491 755Q491 725 478 700T442 658L446 650L705 33Q708 24 708 17ZM351 801T338 788T324 755Q324 736 337 723T370 709Q389 709 402 722T416 755Q416 774 403 787T370 801Q351 801 338 788ZM453 254L370 470L286 254H453Z" />
<glyph unicode="&#xc6;" glyph-name="AE" horiz-adv-x="891" d="M41 0T36 5T31 18Q31 21 35 33L294 650Q301 667 309 673T334 680H818Q842 680 851 671T860 638V601Q860 578 851 568T818 558H554V400H729Q753 400 762 391T771 358V323Q771 300 762 290T729 280H554V121H817Q841
121 850 111T860 78V42Q860 20 851 10T817 0H445Q421 0 411 10T400 43V141H248L202 18Q198 7 193 4T174 0H50Q41 0 36 5ZM400 254V558H394L282 254H400Z" />
<glyph unicode="&#xc7;" glyph-name="Ccedilla" horiz-adv-x="678" d="M649 61T649 56Q649 50 637 41Q573 -5 451 -13Q451 -14 449 -20L426 -70Q495 -79 495 -144Q495 -182 464 -205T374 -229Q349 -229 323 -224T283 -212Q274 -207 272 -204T273 -194L290 -150Q293
-143 298 -143Q302 -143 308 -146Q330 -156 353 -156Q372 -156 380 -150T389 -131Q389 -114 376 -108T333 -102H317Q309 -102 307 -98T307 -86L334 -18L337 -12Q191 3 111 93T31 340Q31 513 124 604T392 695Q465 695 524 681T625 639Q635 632 635 623Q635 615 629
606L594 545Q587 534 580 534Q574 534 563 540Q499 576 412 576Q309 576 252 517T195 340Q195 222 254 163T417 104Q511 104 575 140Q586 146 592 146Q599 146 606 135L645 68Q649 61 649 56Z" />
<glyph unicode="&#xc8;" glyph-name="Egrave" horiz-adv-x="574" d="M269 747T260 752T241 775L175 897Q169 908 169 915Q169 925 178 930T202 936H298Q321 936 329 931T343 907L389 781Q392 774 392 768Q392 747 363 747H293Q269 747 260 752ZM72 0T62 10T51
43V636Q51 658 61 669T96 680H511Q535 680 544 671T553 638V601Q553 578 544 568T511 558H216V400H422Q446 400 455 391T464 358V323Q464 300 455 290T422 280H216V121H510Q534 121 543 111T552 78V42Q552 19 543 10T510 0H96Q72 0 62 10Z" />
<glyph unicode="&#xc9;" glyph-name="Eacute" horiz-adv-x="574" d="M213 747T213 767Q213 774 216 781L261 907Q267 924 275 930T306 936H403Q418 936 426 931T435 916Q435 908 429 897L364 775Q355 758 345 753T311 747H241Q213 747 213 767ZM72 0T62 10T51
43V636Q51 658 61 669T96 680H511Q535 680 544 671T553 638V601Q553 578 544 568T511 558H216V400H422Q446 400 455 391T464 358V323Q464 300 455 290T422 280H216V121H510Q534 121 543 111T552 78V42Q552 19 543 10T510 0H96Q72 0 62 10Z" />
<glyph unicode="&#xca;" glyph-name="Ecircumflex" horiz-adv-x="574" d="M119 746T112 751T105 764Q105 774 114 786L214 919Q227 934 233 938T260 943H339Q359 943 366 939T385 919L485 786Q494 773 494 764Q494 756 488 751T468 746H407Q386 746 377 751T359
770L300 858L241 770Q232 756 223 751T193 746H132Q119 746 112 751ZM72 0T62 10T51 43V636Q51 658 61 669T96 680H511Q535 680 544 671T553 638V601Q553 578 544 568T511 558H216V400H422Q446 400 455 391T464 358V323Q464 300 455 290T422 280H216V121H510Q534
121 543 111T552 78V42Q552 19 543 10T510 0H96Q72 0 62 10Z" />
<glyph unicode="&#xcb;" glyph-name="Edieresis" horiz-adv-x="574" d="M161 744T146 760T131 801V823Q131 847 146 863T185 880H208Q232 880 247 864T262 823V801Q262 777 247 761T208 744H185Q161 744 146 760ZM367 744T352 760T336 801V823Q336 847 351 863T390
880H414Q438 880 453 864T468 823V801Q468 777 453 761T414 744H390Q367 744 352 760ZM72 0T62 10T51 43V636Q51 658 61 669T96 680H511Q535 680 544 671T553 638V601Q553 578 544 568T511 558H216V400H422Q446 400 455 391T464 358V323Q464 300 455 290T422 280H216V121H510Q534
121 543 111T552 78V42Q552 19 543 10T510 0H96Q72 0 62 10Z" />
<glyph unicode="&#xcc;" glyph-name="Igrave" horiz-adv-x="267" d="M80 747T71 752T52 775L-14 897Q-20 908 -20 915Q-20 925 -11 930T13 936H109Q132 936 140 931T154 907L200 781Q203 774 203 768Q203 747 174 747H104Q80 747 71 752ZM72 0T62 10T51 43V636Q51
658 61 669T96 680H171Q196 680 206 670T216 636V43Q216 21 206 11T171 0H96Q72 0 62 10Z" />
<glyph unicode="&#xcd;" glyph-name="Iacute" horiz-adv-x="290" d="M70 747T70 767Q70 774 73 781L118 907Q124 924 132 930T163 936H260Q275 936 283 931T292 916Q292 908 286 897L221 775Q212 758 202 753T168 747H98Q70 747 70 767ZM84 0T74 10T63 43V636Q63
658 73 669T108 680H183Q208 680 218 670T228 636V43Q228 21 218 11T183 0H108Q84 0 74 10Z" />
<glyph unicode="&#xce;" glyph-name="Icircumflex" horiz-adv-x="289" d="M-36 753T-43 758T-50 771Q-50 781 -41 793L59 926Q72 941 78 945T105 950H184Q204 950 211 946T230 926L330 793Q339 780 339 771Q339 763 333 758T313 753H252Q231 753 222 758T204 777L145
865L86 777Q77 763 68 758T38 753H-23Q-36 753 -43 758ZM84 0T74 10T63 43V636Q63 658 73 669T108 680H183Q208 680 218 670T228 636V43Q228 21 218 11T183 0H108Q84 0 74 10Z" />
<glyph unicode="&#xcf;" glyph-name="Idieresis" horiz-adv-x="277" d="M0 704T-15 720T-30 761V783Q-30 807 -15 823T24 840H47Q71 840 86 824T101 783V761Q101 737 86 721T47 704H24Q0 704 -15 720ZM206 704T191 720T175 761V783Q175 807 190 823T229 840H253Q277
840 292 824T307 783V761Q307 737 292 721T253 704H229Q206 704 191 720ZM73 0T63 10T52 43V636Q52 658 62 669T97 680H172Q197 680 207 670T217 636V43Q217 21 207 11T172 0H97Q73 0 63 10Z" />
<glyph unicode="&#xd0;" glyph-name="Eth" horiz-adv-x="729" d="M114 0T104 10T94 43V280H51Q28 280 20 289T11 321V359Q11 382 19 391T51 401H94V636Q94 659 104 669T139 680H349Q519 680 608 598T698 340Q698 167 608 84T349 0H139Q114 0 104 10ZM357 121Q446
121 490 170T534 340Q534 460 490 509T357 558H259V401H379Q402 401 410 392T419 359V321Q419 298 411 289T379 280H259V121H357Z" />
<glyph unicode="&#xd1;" glyph-name="Ntilde" horiz-adv-x="699" d="M420 754T399 761T350 782Q326 793 310 799T276 805Q257 805 246 798T218 773Q209 762 198 762Q183 762 154 785Q129 804 129 820Q129 832 141 848Q169 885 195 903T259 921Q288 921 311 914T363
891Q385 880 400 875T430 870Q449 870 461 877T489 905Q498 917 511 917Q527 917 554 896Q581 875 581 859Q581 848 569 831Q541 790 514 772T443 754Q420 754 399 761ZM72 0T62 10T51 43V637Q51 659 61 669T97 680H159Q176 680 184 676T203 658L483 263V636Q483
658 493 669T528 680H603Q628 680 638 670T648 636V43Q648 21 638 11T603 0H540Q524 0 516 4T497 22L216 416V43Q216 21 206 11T171 0H96Q72 0 62 10Z" />
<glyph unicode="&#xd2;" glyph-name="Ograve" horiz-adv-x="759" d="M342 747T333 752T314 775L248 897Q242 908 242 915Q242 925 251 930T275 936H371Q394 936 402 931T416 907L462 781Q465 774 465 768Q465 747 436 747H366Q342 747 333 752ZM210 -15T121 78T31
340Q31 509 120 602T380 695Q549 695 638 602T728 340Q728 171 639 78T380 -15Q210 -15 121 78ZM471 104T517 163T564 340Q564 457 518 516T380 576Q288 576 242 517T195 340Q195 223 241 164T380 104Q471 104 517 163Z" />
<glyph unicode="&#xd3;" glyph-name="Oacute" horiz-adv-x="759" d="M307 747T307 767Q307 774 310 781L355 907Q361 924 369 930T400 936H497Q512 936 520 931T529 916Q529 908 523 897L458 775Q449 758 439 753T405 747H335Q307 747 307 767ZM210 -15T121 78T31
340Q31 509 120 602T380 695Q549 695 638 602T728 340Q728 171 639 78T380 -15Q210 -15 121 78ZM471 104T517 163T564 340Q564 457 518 516T380 576Q288 576 242 517T195 340Q195 223 241 164T380 104Q471 104 517 163Z" />
<glyph unicode="&#xd4;" glyph-name="Ocircumflex" horiz-adv-x="759" d="M199 746T192 751T185 764Q185 774 194 786L294 919Q307 934 313 938T340 943H419Q439 943 446 939T465 919L565 786Q574 773 574 764Q574 756 568 751T548 746H487Q466 746 457 751T439
770L380 858L321 770Q312 756 303 751T273 746H212Q199 746 192 751ZM210 -15T121 78T31 340Q31 509 120 602T380 695Q549 695 638 602T728 340Q728 171 639 78T380 -15Q210 -15 121 78ZM471 104T517 163T564 340Q564 457 518 516T380 576Q288 576 242 517T195
340Q195 223 241 164T380 104Q471 104 517 163Z" />
<glyph unicode="&#xd5;" glyph-name="Otilde" horiz-adv-x="759" d="M454 754T433 761T384 782Q360 793 344 799T310 805Q291 805 280 798T252 773Q243 762 232 762Q217 762 188 785Q163 804 163 820Q163 832 175 848Q203 885 229 903T293 921Q322 921 345 914T397
891Q419 880 434 875T464 870Q483 870 495 877T523 905Q532 917 545 917Q561 917 588 896Q615 875 615 859Q615 848 603 831Q575 790 548 772T477 754Q454 754 433 761ZM210 -15T121 78T31 340Q31 509 120 602T380 695Q549 695 638 602T728 340Q728 171 639 78T380
-15Q210 -15 121 78ZM471 104T517 163T564 340Q564 457 518 516T380 576Q288 576 242 517T195 340Q195 223 241 164T380 104Q471 104 517 163Z" />
<glyph unicode="&#xd6;" glyph-name="Odieresis" horiz-adv-x="759" d="M241 731T226 747T211 788V810Q211 834 226 850T265 867H288Q312 867 327 851T342 810V788Q342 764 327 748T288 731H265Q241 731 226 747ZM447 731T432 747T416 788V810Q416 834 431 850T470
867H494Q518 867 533 851T548 810V788Q548 764 533 748T494 731H470Q447 731 432 747ZM210 -15T121 78T31 340Q31 509 120 602T380 695Q549 695 638 602T728 340Q728 171 639 78T380 -15Q210 -15 121 78ZM471 104T517 163T564 340Q564 457 518 516T380 576Q288
576 242 517T195 340Q195 223 241 164T380 104Q471 104 517 163Z" />
<glyph unicode="&#xd7;" glyph-name="multiply" horiz-adv-x="396" d="M132 133T121 133Q107 133 93 149L66 175Q50 191 50 203Q50 215 65 230L136 301L65 372Q50 387 50 400Q50 412 65 427L92 454Q108 470 120 470Q132 470 147 455L218 383L290 455Q305 470 316
470Q330 470 344 454L371 427Q387 413 387 399Q387 387 372 372L301 301L372 230Q387 215 387 203Q387 189 371 175L344 149Q329 134 317 134Q304 134 290 148L218 219L147 148Q132 133 121 133Z" />
<glyph unicode="&#xd8;" glyph-name="Oslash" horiz-adv-x="759" d="M651 608T689 529T728 340Q728 171 639 78T380 -15Q346 -15 309 -10L286 -66Q278 -86 257 -86H158Q141 -86 141 -71Q141 -67 145 -55L180 32Q107 74 69 152T31 340Q31 509 120 602T380 695Q419
695 448 691L464 731Q472 751 494 751H592Q609 751 609 737Q609 728 605 720L576 650Q651 608 689 529ZM195 230T237 170L401 575Q394 576 380 576Q288 576 242 517T195 340Q195 230 237 170ZM471 104T517 163T564 340Q564 452 521 512L355 105Q363 104 380 104Q471
104 517 163Z" />
<glyph unicode="&#xd9;" glyph-name="Ugrave" horiz-adv-x="716" d="M328 747T319 752T300 775L234 897Q228 908 228 915Q228 925 237 930T261 936H357Q380 936 388 931T402 907L448 781Q451 774 451 768Q451 747 422 747H352Q328 747 319 752ZM266 -15T195 16T85
105T46 243V636Q46 658 56 669T91 680H166Q191 680 201 670T211 636V240Q211 175 250 140T358 104Q427 104 465 139T504 240V636Q504 658 514 669T549 680H624Q649 680 659 669T670 636V243Q670 164 631 106T521 16T358 -15Q266 -15 195 16Z" />
<glyph unicode="&#xda;" glyph-name="Uacute" horiz-adv-x="716" d="M289 747T289 767Q289 774 292 781L337 907Q343 924 351 930T382 936H479Q494 936 502 931T511 916Q511 908 505 897L440 775Q431 758 421 753T387 747H317Q289 747 289 767ZM266 -15T195 16T85
105T46 243V636Q46 658 56 669T91 680H166Q191 680 201 670T211 636V240Q211 175 250 140T358 104Q427 104 465 139T504 240V636Q504 658 514 669T549 680H624Q649 680 659 669T670 636V243Q670 164 631 106T521 16T358 -15Q266 -15 195 16Z" />
<glyph unicode="&#xdb;" glyph-name="Ucircumflex" horiz-adv-x="716" d="M177 746T170 751T163 764Q163 774 172 786L272 919Q285 934 291 938T318 943H397Q417 943 424 939T443 919L543 786Q552 773 552 764Q552 756 546 751T526 746H465Q444 746 435 751T417
770L358 858L299 770Q290 756 281 751T251 746H190Q177 746 170 751ZM266 -15T195 16T85 105T46 243V636Q46 658 56 669T91 680H166Q191 680 201 670T211 636V240Q211 175 250 140T358 104Q427 104 465 139T504 240V636Q504 658 514 669T549 680H624Q649 680 659
669T670 636V243Q670 164 631 106T521 16T358 -15Q266 -15 195 16Z" />
<glyph unicode="&#xdc;" glyph-name="Udieresis" horiz-adv-x="716" d="M220 731T205 747T190 788V810Q190 834 205 850T244 867H267Q291 867 306 851T321 810V788Q321 764 306 748T267 731H244Q220 731 205 747ZM426 731T411 747T395 788V810Q395 834 410 850T449
867H473Q497 867 512 851T527 810V788Q527 764 512 748T473 731H449Q426 731 411 747ZM266 -15T195 16T85 105T46 243V636Q46 658 56 669T91 680H166Q191 680 201 670T211 636V240Q211 175 250 140T358 104Q427 104 465 139T504 240V636Q504 658 514 669T549 680H624Q649
680 659 669T670 636V243Q670 164 631 106T521 16T358 -15Q266 -15 195 16Z" />
<glyph unicode="&#xdd;" glyph-name="Yacute" horiz-adv-x="722" d="M297 747T297 767Q297 774 300 781L345 907Q351 924 359 930T390 936H487Q502 936 510 931T519 916Q519 908 513 897L448 775Q439 758 429 753T395 747H325Q297 747 297 767ZM299 0T289 10T278
43V232L36 647Q31 655 31 663Q31 670 36 675T51 680H171Q185 680 191 676T203 660L361 383L519 660Q525 671 531 675T550 680H671Q680 680 685 675T691 663Q691 655 686 647L444 231V43Q444 21 434 11T398 0H323Q299 0 289 10Z" />
<glyph unicode="&#xde;" glyph-name="Thorn" horiz-adv-x="634" d="M72 0T62 10T51 43V636Q51 658 61 669T96 680H171Q196 680 206 670T216 636V570H346Q603 570 603 340Q603 111 346 111H216V43Q216 21 206 11T171 0H96Q72 0 62 10ZM335 232Q439 232 439 340Q439
448 335 448H217V232H335Z" />
<glyph unicode="&#xdf;" glyph-name="germandbls" horiz-adv-x="654" d="M308 -15T249 26Q241 32 241 41Q241 46 244 52L284 120Q290 129 296 129Q298 129 306 125Q332 107 374 107Q414 107 433 132T452 203Q452 242 437 262T394 288T318 295Q298 295 289 302T279
326V377Q279 394 287 400T315 407Q381 407 410 426T440 499Q440 555 414 578T327 601Q211 601 211 489V43Q211 21 201 11T165 0H93Q67 0 57 10T46 43V482Q46 592 114 656T327 720Q467 720 535 664T604 507Q604 453 582 412T520 355Q573 337 598 294T623 191Q623
94 569 40T413 -15Q308 -15 249 26Z" />
<glyph unicode="&#xe0;" glyph-name="agrave" horiz-adv-x="617" d="M312 545T303 550T284 573L218 695Q212 706 212 713Q212 723 221 728T245 734H341Q364 734 372 729T386 705L432 579Q435 572 435 566Q435 545 406 545H336Q312 545 303 550ZM146 -15T89 45T31
214Q31 298 70 361T179 460T341 495Q412 495 466 479T566 433V29Q566 12 560 6T534 0H455Q444 0 439 4T430 17L419 52Q389 17 346 1T242 -15Q146 -15 89 45ZM347 99T379 124T412 192V367Q382 382 340 382Q274 382 235 339T195 217Q195 157 222 128T303 99Q347 99
379 124Z" />
<glyph unicode="&#xe1;" glyph-name="aacute" horiz-adv-x="617" d="M253 545T253 565Q253 572 256 579L301 705Q307 722 315 728T346 734H443Q458 734 466 729T475 714Q475 706 469 695L404 573Q395 556 385 551T351 545H281Q253 545 253 565ZM146 -15T89 45T31
214Q31 298 70 361T179 460T341 495Q412 495 466 479T566 433V29Q566 12 560 6T534 0H455Q444 0 439 4T430 17L419 52Q389 17 346 1T242 -15Q146 -15 89 45ZM347 99T379 124T412 192V367Q382 382 340 382Q274 382 235 339T195 217Q195 157 222 128T303 99Q347 99
379 124Z" />
<glyph unicode="&#xe2;" glyph-name="acircumflex" horiz-adv-x="617" d="M148 544T141 549T134 562Q134 572 143 584L243 717Q256 732 262 736T289 741H368Q388 741 395 737T414 717L514 584Q523 571 523 562Q523 554 517 549T497 544H436Q415 544 406 549T388
568L329 656L270 568Q261 554 252 549T222 544H161Q148 544 141 549ZM146 -15T89 45T31 214Q31 298 70 361T179 460T341 495Q412 495 466 479T566 433V29Q566 12 560 6T534 0H455Q444 0 439 4T430 17L419 52Q389 17 346 1T242 -15Q146 -15 89 45ZM347 99T379 124T412
192V367Q382 382 340 382Q274 382 235 339T195 217Q195 157 222 128T303 99Q347 99 379 124Z" />
<glyph unicode="&#xe3;" glyph-name="atilde" horiz-adv-x="626" d="M414 564T393 571T344 592Q320 603 304 609T270 615Q251 615 240 608T212 583Q203 572 192 572Q177 572 148 595Q123 614 123 630Q123 642 135 658Q163 695 189 713T253 731Q282 731 305 724T357
701Q379 690 394 685T424 680Q443 680 455 687T483 715Q492 727 505 727Q521 727 548 706Q575 685 575 669Q575 658 563 641Q535 600 508 582T437 564Q414 564 393 571ZM146 -15T89 45T31 214Q31 298 70 361T179 460T341 495Q412 495 466 479T566 433V29Q566 12
560 6T534 0H455Q444 0 439 4T430 17L419 52Q389 17 346 1T242 -15Q146 -15 89 45ZM347 99T379 124T412 192V367Q382 382 340 382Q274 382 235 339T195 217Q195 157 222 128T303 99Q347 99 379 124Z" />
<glyph unicode="&#xe4;" glyph-name="adieresis" horiz-adv-x="617" d="M202 541T187 557T172 598V620Q172 644 187 660T226 677H249Q273 677 288 661T303 620V598Q303 574 288 558T249 541H226Q202 541 187 557ZM408 541T393 557T377 598V620Q377 644 392 660T431
677H455Q479 677 494 661T509 620V598Q509 574 494 558T455 541H431Q408 541 393 557ZM146 -15T89 45T31 214Q31 298 70 361T179 460T341 495Q412 495 466 479T566 433V29Q566 12 560 6T534 0H455Q444 0 439 4T430 17L419 52Q389 17 346 1T242 -15Q146 -15 89 45ZM347
99T379 124T412 192V367Q382 382 340 382Q274 382 235 339T195 217Q195 157 222 128T303 99Q347 99 379 124Z" />
<glyph unicode="&#xe5;" glyph-name="aring" horiz-adv-x="617" d="M290 544T255 579T220 664Q220 714 255 749T340 785Q390 785 425 750T461 664Q461 614 426 579T340 544Q290 544 255 579ZM359 618T372 631T386 664Q386 683 373 696T340 710Q321 710 308 697T294
664Q294 645 307 632T340 618Q359 618 372 631ZM146 -15T89 45T31 214Q31 298 70 361T179 460T341 495Q412 495 466 479T566 433V29Q566 12 560 6T534 0H455Q444 0 439 4T430 17L419 52Q389 17 346 1T242 -15Q146 -15 89 45ZM347 99T379 124T412 192V367Q382 382
340 382Q274 382 235 339T195 217Q195 157 222 128T303 99Q347 99 379 124Z" />
<glyph unicode="&#xe6;" glyph-name="ae" horiz-adv-x="941" d="M141 -15T86 23T31 138Q31 293 235 293H377V308Q377 348 350 369T254 391Q187 391 130 364Q122 360 116 360Q107 360 101 372L74 424Q70 431 70 437Q70 445 81 452Q153 495 268 495Q408 495 460
409Q487 451 536 473T649 495Q778 495 844 430T910 245Q910 203 873 203H538Q538 150 577 120T686 90Q728 90 758 98T817 123Q827 128 831 128Q838 128 844 117L873 63Q877 56 877 50Q877 42 866 35Q825 9 779 -3T669 -15Q598 -15 544 9T460 82Q424 34 366 10T235
-15Q141 -15 86 23ZM764 289Q764 395 651 395Q538 395 538 289H764ZM314 90T345 114T377 187V207H251Q170 207 170 146Q170 90 253 90Q314 90 345 114Z" />
<glyph unicode="&#xe7;" glyph-name="ccedilla" horiz-adv-x="563" d="M532 59T532 54Q532 46 520 38Q453 -5 368 -13Q371 -18 367 -25L344 -75Q413 -84 413 -149Q413 -187 382 -210T292 -234Q267 -234 241 -229T201 -217Q192 -212 190 -209T191 -199L208 -155Q211
-148 216 -148Q220 -148 226 -151Q248 -161 271 -161Q290 -161 298 -155T307 -136Q307 -119 294 -113T251 -107H235Q227 -107 225 -103T225 -91L252 -23Q255 -15 260 -12Q150 2 91 66T31 239Q31 315 65 373T165 463T318 495Q383 495 429 482T513 443Q523 436 523
427Q523 419 517 410L483 351Q476 339 469 339Q464 339 452 346Q423 364 396 373T331 382Q268 382 232 344T195 239Q195 169 231 134T337 99Q375 99 403 108T459 135Q471 142 476 142Q483 142 490 130L527 67Q532 59 532 54Z" />
<glyph unicode="&#xe8;" glyph-name="egrave" horiz-adv-x="596" d="M272 545T263 550T244 573L178 695Q172 706 172 713Q172 723 181 728T205 734H301Q324 734 332 729T346 705L392 579Q395 572 395 566Q395 545 366 545H296Q272 545 263 550ZM235 -15T171 12T69
95T31 233Q31 361 101 428T303 495Q432 495 498 430T565 245Q565 203 527 203H187Q187 149 227 120T339 90Q381 90 412 98T472 123Q482 128 486 128Q493 128 499 117L528 63Q532 56 532 51Q532 43 521 35Q481 9 431 -3T316 -15Q235 -15 171 12ZM417 289Q417 339
389 367T304 395Q247 395 217 367T187 289H417Z" />
<glyph unicode="&#xe9;" glyph-name="eacute" horiz-adv-x="596" d="M234 545T234 565Q234 572 237 579L282 705Q288 722 296 728T327 734H424Q439 734 447 729T456 714Q456 706 450 695L385 573Q376 556 366 551T332 545H262Q234 545 234 565ZM235 -15T171 12T69
95T31 233Q31 361 101 428T303 495Q432 495 498 430T565 245Q565 203 527 203H187Q187 149 227 120T339 90Q381 90 412 98T472 123Q482 128 486 128Q493 128 499 117L528 63Q532 56 532 51Q532 43 521 35Q481 9 431 -3T316 -15Q235 -15 171 12ZM417 289Q417 339
389 367T304 395Q247 395 217 367T187 289H417Z" />
<glyph unicode="&#xea;" glyph-name="ecircumflex" horiz-adv-x="596" d="M134 544T127 549T120 562Q120 572 129 584L229 717Q242 732 248 736T275 741H354Q374 741 381 737T400 717L500 584Q509 571 509 562Q509 554 503 549T483 544H422Q401 544 392 549T374
568L315 656L256 568Q247 554 238 549T208 544H147Q134 544 127 549ZM235 -15T171 12T69 95T31 233Q31 361 101 428T303 495Q432 495 498 430T565 245Q565 203 527 203H187Q187 149 227 120T339 90Q381 90 412 98T472 123Q482 128 486 128Q493 128 499 117L528
63Q532 56 532 51Q532 43 521 35Q481 9 431 -3T316 -15Q235 -15 171 12ZM417 289Q417 339 389 367T304 395Q247 395 217 367T187 289H417Z" />
<glyph unicode="&#xeb;" glyph-name="edieresis" horiz-adv-x="596" d="M177 523T162 539T147 580V602Q147 626 162 642T201 659H224Q248 659 263 643T278 602V580Q278 556 263 540T224 523H201Q177 523 162 539ZM383 523T368 539T352 580V602Q352 626 367 642T406
659H430Q454 659 469 643T484 602V580Q484 556 469 540T430 523H406Q383 523 368 539ZM235 -15T171 12T69 95T31 233Q31 361 101 428T303 495Q432 495 498 430T565 245Q565 203 527 203H187Q187 149 227 120T339 90Q381 90 412 98T472 123Q482 128 486 128Q493
128 499 117L528 63Q532 56 532 51Q532 43 521 35Q481 9 431 -3T316 -15Q235 -15 171 12ZM417 289Q417 339 389 367T304 395Q247 395 217 367T187 289H417Z" />
<glyph unicode="&#xec;" glyph-name="igrave" horiz-adv-x="285" d="M95 545T86 550T67 573L1 695Q-5 706 -5 713Q-5 723 4 728T28 734H124Q147 734 155 729T169 705L215 579Q218 572 218 566Q218 545 189 545H119Q95 545 86 550ZM81 0T71 10T60 43V436Q60 458
70 469T105 480H180Q205 480 215 470T225 436V43Q225 21 215 11T180 0H105Q81 0 71 10Z" />
<glyph unicode="&#xed;" glyph-name="iacute" horiz-adv-x="275" d="M58 545T58 565Q58 572 61 579L106 705Q112 722 120 728T151 734H248Q263 734 271 729T280 714Q280 706 274 695L209 573Q200 556 190 551T156 545H86Q58 545 58 565ZM76 0T66 10T55 43V436Q55
458 65 469T100 480H175Q200 480 210 470T220 436V43Q220 21 210 11T175 0H100Q76 0 66 10Z" />
<glyph unicode="&#xee;" glyph-name="icircumflex" horiz-adv-x="285" d="M-39 532T-46 537T-53 550Q-53 560 -44 572L56 705Q69 720 75 724T102 729H181Q201 729 208 725T227 705L327 572Q336 559 336 550Q336 542 330 537T310 532H249Q228 532 219 537T201 556L142
644L83 556Q74 542 65 537T35 532H-26Q-39 532 -46 537ZM81 0T71 10T60 43V436Q60 458 70 469T105 480H180Q205 480 215 470T225 436V43Q225 21 215 11T180 0H105Q81 0 71 10Z" />
<glyph unicode="&#xef;" glyph-name="idieresis" horiz-adv-x="285" d="M4 529T-11 545T-26 586V608Q-26 632 -11 648T28 665H51Q75 665 90 649T105 608V586Q105 562 90 546T51 529H28Q4 529 -11 545ZM210 529T195 545T179 586V608Q179 632 194 648T233 665H257Q281
665 296 649T311 608V586Q311 562 296 546T257 529H233Q210 529 195 545ZM81 0T71 10T60 43V436Q60 458 70 469T105 480H180Q205 480 215 470T225 436V43Q225 21 215 11T180 0H105Q81 0 71 10Z" />
<glyph unicode="&#xf0;" glyph-name="eth" horiz-adv-x="673" d="M143 -15T87 35T31 188Q31 275 67 339T171 439T327 475Q386 475 426 459T497 409Q498 464 490 497T461 550L430 507Q423 497 413 497H324Q317 497 315 501T315 510L364 578Q357 579 344 579Q280
579 215 549Q203 544 198 544Q190 544 186 554L163 614Q160 622 160 627Q160 639 174 647Q256 695 378 695Q412 695 443 689L455 706Q462 716 473 716H562Q569 716 571 712T570 703L534 653Q582 622 609 566T636 429Q636 371 621 299Q586 137 491 61T267 -15Q143
-15 87 35ZM352 104T393 145T447 263Q449 272 449 288Q449 331 421 354T348 378Q194 378 194 193Q194 149 219 127T292 104Q352 104 393 145Z" />
<glyph unicode="&#xf1;" glyph-name="ntilde" horiz-adv-x="601" d="M370 564T349 571T300 592Q276 603 260 609T226 615Q207 615 196 608T168 583Q159 572 148 572Q133 572 104 595Q79 614 79 630Q79 642 91 658Q119 695 145 713T209 731Q238 731 261 723T313
701Q335 690 350 685T380 680Q399 680 411 687T439 715Q448 727 461 727Q477 727 504 706Q531 685 531 669Q531 658 519 641Q491 600 464 582T393 564Q370 564 349 571ZM72 0T62 10T51 43V451Q51 468 57 474T81 480H161Q173 480 179 476T186 462L189 427Q220 459
267 477T374 495Q456 495 505 451T555 318V43Q555 21 545 11T510 0H435Q410 0 400 10T389 43V308Q389 347 372 364T316 381Q274 381 245 359T216 300V43Q216 21 206 11T171 0H97Q72 0 62 10Z" />
<glyph unicode="&#xf2;" glyph-name="ograve" horiz-adv-x="623" d="M268 545T259 550T240 573L174 695Q168 706 168 713Q168 723 177 728T201 734H297Q320 734 328 729T342 705L388 579Q391 572 391 566Q391 545 362 545H292Q268 545 259 550ZM178 -15T105 53T31
240Q31 358 104 426T311 495Q445 495 518 427T592 240Q592 122 519 54T311 -15Q178 -15 105 53ZM368 104T398 138T428 240Q428 307 398 341T311 375Q255 375 225 341T195 240Q195 173 225 139T311 104Q368 104 398 138Z" />
<glyph unicode="&#xf3;" glyph-name="oacute" horiz-adv-x="623" d="M223 545T223 565Q223 572 226 579L271 705Q277 722 285 728T316 734H413Q428 734 436 729T445 714Q445 706 439 695L374 573Q365 556 355 551T321 545H251Q223 545 223 565ZM178 -15T105 53T31
240Q31 358 104 426T311 495Q445 495 518 427T592 240Q592 122 519 54T311 -15Q178 -15 105 53ZM368 104T398 138T428 240Q428 307 398 341T311 375Q255 375 225 341T195 240Q195 173 225 139T311 104Q368 104 398 138Z" />
<glyph unicode="&#xf4;" glyph-name="ocircumflex" horiz-adv-x="623" d="M129 544T122 549T115 562Q115 572 124 584L224 717Q237 732 243 736T270 741H349Q369 741 376 737T395 717L495 584Q504 571 504 562Q504 554 498 549T478 544H417Q396 544 387 549T369
568L310 656L251 568Q242 554 233 549T203 544H142Q129 544 122 549ZM178 -15T105 53T31 240Q31 358 104 426T311 495Q445 495 518 427T592 240Q592 122 519 54T311 -15Q178 -15 105 53ZM368 104T398 138T428 240Q428 307 398 341T311 375Q255 375 225 341T195
240Q195 173 225 139T311 104Q368 104 398 138Z" />
<glyph unicode="&#xf5;" glyph-name="otilde" horiz-adv-x="623" d="M385 558T364 565T315 586Q291 597 275 603T241 609Q222 609 211 602T183 577Q174 566 163 566Q148 566 119 589Q94 608 94 624Q94 636 106 652Q134 689 160 707T224 725Q253 725 276 718T328
695Q350 684 365 679T395 674Q414 674 426 681T454 709Q463 721 476 721Q492 721 519 700Q546 679 546 663Q546 652 534 635Q506 594 479 576T408 558Q385 558 364 565ZM178 -15T105 53T31 240Q31 358 104 426T311 495Q445 495 518 427T592 240Q592 122 519 54T311
-15Q178 -15 105 53ZM368 104T398 138T428 240Q428 307 398 341T311 375Q255 375 225 341T195 240Q195 173 225 139T311 104Q368 104 398 138Z" />
<glyph unicode="&#xf6;" glyph-name="odieresis" horiz-adv-x="623" d="M172 541T157 557T142 598V620Q142 644 157 660T196 677H219Q243 677 258 661T273 620V598Q273 574 258 558T219 541H196Q172 541 157 557ZM378 541T363 557T347 598V620Q347 644 362 660T401
677H425Q449 677 464 661T479 620V598Q479 574 464 558T425 541H401Q378 541 363 557ZM178 -15T105 53T31 240Q31 358 104 426T311 495Q445 495 518 427T592 240Q592 122 519 54T311 -15Q178 -15 105 53ZM368 104T398 138T428 240Q428 307 398 341T311 375Q255
375 225 341T195 240Q195 173 225 139T311 104Q368 104 398 138Z" />
<glyph unicode="&#xf7;" glyph-name="divide" horiz-adv-x="470" d="M200 398T187 412T173 448V469Q173 490 186 504T221 519H242Q263 519 276 505T290 469V448Q290 427 277 413T242 398H221Q200 398 187 412ZM47 240T39 249T31 279V323Q31 343 39 352T69 362H401Q422
362 430 353T439 323V279Q439 259 431 250T401 240H69Q47 240 39 249ZM200 83T187 97T173 133V154Q173 175 186 189T221 204H242Q263 204 276 190T290 154V133Q290 112 277 98T242 83H221Q200 83 187 97Z" />
<glyph unicode="&#xf8;" glyph-name="oslash" horiz-adv-x="623" d="M530 429T561 372T592 240Q592 122 519 54T311 -15Q288 -15 277 -14L256 -66Q248 -86 227 -86H128Q111 -86 111 -71Q111 -67 115 -55L147 23Q90 54 61 110T31 240Q31 358 104 426T311 495Q330
495 340 494L364 553Q372 573 394 573H492Q509 573 509 559Q509 550 505 542L471 460Q530 429 561 372ZM195 198T207 169L291 374Q195 362 195 240Q195 198 207 169ZM376 109T402 143T428 240Q428 287 413 318L326 105Q376 109 402 143Z" />
<glyph unicode="&#xf9;" glyph-name="ugrave" d="M271 545T262 550T243 573L177 695Q171 706 171 713Q171 723 180 728T204 734H300Q323 734 331 729T345 705L391 579Q394 572 394 566Q394 545 365 545H295Q271 545 262 550ZM145 -15T96 31T46 168V436Q46 458
56 469T91 480H166Q191 480 201 470T211 436V174Q211 135 230 117T288 99Q329 99 354 121T380 181V436Q380 458 390 469T426 480H500Q525 480 535 469T546 436V29Q546 12 540 6T516 0H436Q413 0 412 17L408 54Q342 -15 227 -15Q145 -15 96 31Z" />
<glyph unicode="&#xfa;" glyph-name="uacute" d="M216 545T216 565Q216 572 219 579L264 705Q270 722 278 728T309 734H406Q421 734 429 729T438 714Q438 706 432 695L367 573Q358 556 348 551T314 545H244Q216 545 216 565ZM145 -15T96 31T46 168V436Q46 458
56 469T91 480H166Q191 480 201 470T211 436V174Q211 135 230 117T288 99Q329 99 354 121T380 181V436Q380 458 390 469T426 480H500Q525 480 535 469T546 436V29Q546 12 540 6T516 0H436Q413 0 412 17L408 54Q342 -15 227 -15Q145 -15 96 31Z" />
<glyph unicode="&#xfb;" glyph-name="ucircumflex" d="M114 544T107 549T100 562Q100 572 109 584L209 717Q222 732 228 736T255 741H334Q354 741 361 737T380 717L480 584Q489 571 489 562Q489 554 483 549T463 544H402Q381 544 372 549T354 568L295 656L236
568Q227 554 218 549T188 544H127Q114 544 107 549ZM145 -15T96 31T46 168V436Q46 458 56 469T91 480H166Q191 480 201 470T211 436V174Q211 135 230 117T288 99Q329 99 354 121T380 181V436Q380 458 390 469T426 480H500Q525 480 535 469T546 436V29Q546 12 540
6T516 0H436Q413 0 412 17L408 54Q342 -15 227 -15Q145 -15 96 31Z" />
<glyph unicode="&#xfc;" glyph-name="udieresis" d="M161 546T146 562T131 603V625Q131 649 146 665T185 682H208Q232 682 247 666T262 625V603Q262 579 247 563T208 546H185Q161 546 146 562ZM367 546T352 562T336 603V625Q336 649 351 665T390 682H414Q438 682
453 666T468 625V603Q468 579 453 563T414 546H390Q367 546 352 562ZM145 -15T96 31T46 168V436Q46 458 56 469T91 480H166Q191 480 201 470T211 436V174Q211 135 230 117T288 99Q329 99 354 121T380 181V436Q380 458 390 469T426 480H500Q525 480 535 469T546
436V29Q546 12 540 6T516 0H436Q413 0 412 17L408 54Q342 -15 227 -15Q145 -15 96 31Z" />
<glyph unicode="&#xfd;" glyph-name="yacute" horiz-adv-x="601" d="M232 557T232 577Q232 584 235 591L280 717Q286 734 294 740T325 746H422Q437 746 445 741T454 726Q454 718 448 707L383 585Q374 568 364 563T330 557H260Q232 557 232 577ZM97 -156T44 -111Q35
-104 35 -96Q35 -91 40 -81L74 -22Q80 -11 88 -11Q95 -11 104 -17Q120 -28 135 -33T170 -39Q196 -39 210 -24T238 27L40 447Q36 455 36 463Q36 480 54 480H170Q184 480 191 475T203 458L313 187L423 458Q428 470 435 475T456 480H572Q590 480 590 463Q590 455 586
447L399 49Q362 -29 334 -71T269 -135T179 -156Q97 -156 44 -111Z" />
<glyph unicode="&#xfe;" glyph-name="thorn" horiz-adv-x="620" d="M72 -202T62 -192T51 -159V651Q51 673 61 684T96 695H168Q193 695 203 685T213 651V480Q232 487 258 491T308 495Q443 495 516 431T589 239Q589 122 526 54T348 -15Q306 -15 271 -5T213 25V-159Q213
-181 203 -191T168 -202H96Q72 -202 62 -192ZM369 98T397 136T425 242Q425 317 392 349T289 381Q241 381 213 367V189Q213 146 240 122T312 98Q369 98 397 136Z" />
<glyph unicode="&#xff;" glyph-name="ydieresis" horiz-adv-x="601" d="M172 541T157 557T142 598V620Q142 644 157 660T196 677H219Q243 677 258 661T273 620V598Q273 574 258 558T219 541H196Q172 541 157 557ZM378 541T363 557T347 598V620Q347 644 362 660T401
677H425Q449 677 464 661T479 620V598Q479 574 464 558T425 541H401Q378 541 363 557ZM97 -156T44 -111Q35 -104 35 -96Q35 -91 40 -81L74 -22Q80 -11 88 -11Q95 -11 104 -17Q120 -28 135 -33T170 -39Q196 -39 210 -24T238 27L40 447Q36 455 36 463Q36 480 54 480H170Q184
480 191 475T203 458L313 187L423 458Q428 470 435 475T456 480H572Q590 480 590 463Q590 455 586 447L399 49Q362 -29 334 -71T269 -135T179 -156Q97 -156 44 -111Z" />
<glyph unicode="&#x2013;" glyph-name="endash" horiz-adv-x="558" d="M49 240T40 250T31 283V319Q31 342 40 352T73 362H484Q508 362 517 352T527 319V283Q527 260 518 250T484 240H73Q49 240 40 250Z" />
<glyph unicode="&#x2014;" glyph-name="emdash" horiz-adv-x="848" d="M49 240T40 250T31 283V319Q31 342 40 352T73 362H774Q798 362 807 352T817 319V283Q817 260 808 250T774 240H73Q49 240 40 250Z" />
<glyph unicode="&#x2018;" glyph-name="quoteleft" horiz-adv-x="256" d="M31 464T31 482Q31 492 37 505L109 675Q113 685 121 690T143 695H203Q225 695 225 678Q225 674 223 666L171 495Q165 476 157 470T128 464H62Q31 464 31 482Z" />
<glyph unicode="&#x2019;" glyph-name="quoteright" horiz-adv-x="256" d="M31 464T31 481Q31 485 33 493L85 664Q91 683 99 689T128 695H194Q225 695 225 677Q225 668 219 654L147 484Q143 474 135 469T113 464H53Q31 464 31 481Z" />
<glyph unicode="&#x201a;" glyph-name="quotesinglbase" horiz-adv-x="256" d="M31 -119T31 -102Q31 -99 33 -91L85 81Q91 100 99 106T128 112H194Q225 112 225 94Q225 85 219 70L147 -99Q143 -109 135 -114T113 -119H53Q31 -119 31 -102Z" />
<glyph unicode="&#x201c;" glyph-name="quotedblleft" horiz-adv-x="431" d="M31 464T31 482Q31 492 37 505L109 675Q113 685 121 690T143 695H191Q213 695 213 678Q213 674 211 666L159 495Q153 476 145 470T116 464H62Q31 464 31 482ZM217 464T217 483Q217 492
223 505L295 675Q300 685 307 690T329 695H377Q399 695 399 678L397 666L345 495Q339 476 331 470T302 464H248Q217 464 217 483Z" />
<glyph unicode="&#x201d;" glyph-name="quotedblright" horiz-adv-x="431" d="M31 464T31 481Q31 485 33 493L85 664Q91 683 99 689T128 695H182Q213 695 213 677Q213 668 207 654L135 484Q131 474 123 469T101 464H53Q31 464 31 481ZM218 464T218 481L220 493L272
664Q277 683 286 689T315 695H369Q400 695 400 676Q400 668 394 654L322 484Q317 474 310 469T288 464H240Q218 464 218 481Z" />
<glyph unicode="&#x201e;" glyph-name="quotedblbase" horiz-adv-x="421" d="M31 -119T31 -102Q31 -99 33 -91L85 81Q91 100 99 106T128 112H182Q213 112 213 94Q213 85 207 70L135 -99Q131 -109 123 -114T101 -119H53Q31 -119 31 -102ZM208 -119T208 -102Q208
-99 210 -91L262 81Q267 100 276 106T305 112H359Q390 112 390 94Q390 85 384 70L312 -99Q307 -109 300 -114T278 -119H230Q208 -119 208 -102Z" />
<glyph unicode="&#x2022;" glyph-name="bullet" horiz-adv-x="313" d="M92 163T62 197T31 277V312Q31 358 61 391T137 424H176Q221 424 251 391T282 312V277Q282 231 252 197T176 163H137Q92 163 62 197Z" />
<glyph unicode="&#x2039;" glyph-name="guilsinglleft" horiz-adv-x="397" d="M287 18T277 18Q265 18 248 35L58 232Q41 250 36 257T31 273V292Q31 300 35 307T47 322T58 334L248 531Q265 548 277 548Q287 548 298 537L352 483Q366 469 366 459Q366 450 352 436L198
283L352 129Q366 115 366 106Q366 97 352 83L298 29Q287 18 277 18Z" />
<glyph unicode="&#x203a;" glyph-name="guilsinglright" horiz-adv-x="397" d="M44 83Q31 96 31 105Q31 116 45 129L198 283L45 436Q31 449 31 460Q31 470 44 483L98 537Q109 548 119 548Q131 548 148 531L338 334Q355 316 360 309T366 292V273Q366 265 362 259T350
244T338 232L148 35Q131 18 119 18Q109 18 98 29L44 83Z" />
</font>
</defs>
</svg>
