<?xml version="1.0" standalone="no"?>
<!DOCTYPE svg PUBLIC "-//W3C//DTD SVG 1.1//EN" "http://www.w3.org/Graphics/SVG/1.1/DTD/svg11.dtd">
<svg xmlns="http://www.w3.org/2000/svg">
<defs >
<font id="LibreFranklin" horiz-adv-x="574" ><font-face
    font-family="Libre Franklin"
    units-per-em="1000"
    panose-1="0 0 5 0 0 0 0 0 0 0"
    ascent="966"
    descent="-246"
    alphabetic="0" />
<glyph unicode=" " glyph-name="space" horiz-adv-x="215" />
<glyph unicode="!" glyph-name="exclam" horiz-adv-x="244" d="M151 194Q151 180 135 180H106Q93 180 93 192L72 731V733Q72 742 81 742H163Q168 742 170 739T172 732L151 194ZM173 16Q173 7 169 4T154 0H85Q77 0 74 3T70 14V99Q70 111 80 111H163Q173 111 173 100V16Z" />
<glyph unicode="&quot;" glyph-name="quotedbl" horiz-adv-x="409" d="M317 526Q315 518 312 515T300 512H276Q269 512 267 514T263 524L238 732V734Q238 742 247 742H333Q343 742 342 732L317 526ZM148 526Q146 518 143 515T131 512H107Q100 512 98 514T94 524L69
732V734Q69 742 78 742H164Q174 742 173 732L148 526Z" />
<glyph unicode="#" glyph-name="numbersign" horiz-adv-x="603" d="M569 506T569 496V466Q569 452 553 452H451L427 296H526Q536 296 536 286V256Q536 242 520 242H419L384 14Q382 5 379 2T369 0L341 4Q334 6 331 8T329 15L364 242H210L175 14Q173 5 170 2T160
0L132 4Q125 6 122 8T120 15L155 242H47Q34 242 34 254V285Q34 296 43 296H163L187 452H80Q67 452 67 464V495Q67 506 76 506H195L229 731Q233 743 239 742L273 737Q279 736 281 734T283 724L250 506H404L438 731Q439 736 441 739T448 742L482 737Q488 736 490
734T492 724L459 506H559Q569 506 569 496ZM396 452H242L218 296H372L396 452Z" />
<glyph unicode="$" glyph-name="dollar" horiz-adv-x="605" d="M567 131T541 88T467 20T357 -8Q350 -8 348 -10T345 -18V-74Q345 -88 331 -88H296Q283 -88 283 -77V-17Q283 -11 282 -10T275 -8Q194 -7 139 20T41 103Q34 112 34 117Q34 122 39 125L72 156Q79 161
83 161Q88 161 93 156Q129 110 171 87T274 62H277Q284 62 284 70V315Q284 324 279 329T264 339Q187 367 143 396T79 461T59 547Q59 628 117 682T272 747Q276 748 279 751T283 758V807Q283 811 285 814T292 817H332Q339 817 341 814T344 803V755Q344 747 354 747Q410
740 454 718T538 659Q543 656 543 650Q543 645 539 641L504 605Q499 600 496 600Q493 600 485 608Q465 633 430 651T354 676H352Q344 676 344 668V417Q344 411 346 408T356 403L394 390Q567 323 567 184Q567 131 541 88ZM283 669Q283 674 280 676T272 678Q211 671
175 637T139 553Q139 514 166 485T263 427Q266 426 271 426Q283 426 283 441V669ZM345 61T354 62Q414 63 450 96T487 178Q487 224 458 254T360 311Q357 312 353 312Q345 312 345 302V68Q345 61 354 62Z" />
<glyph unicode="%" glyph-name="percent" horiz-adv-x="916" d="M279 753T318 727T379 653T401 541Q401 476 379 428T318 355T229 329Q178 329 139 354T77 428T55 541Q55 605 77 653T139 727T229 753Q279 753 318 727ZM246 5Q242 0 238 -2T227 -4H201Q190 -4 190
5Q190 11 193 15L677 743Q680 748 684 749T693 750H726Q739 750 732 739L246 5ZM278 378T306 422T335 540Q335 615 307 660T228 705Q178 705 150 660T121 540Q121 467 149 423T228 378Q278 378 306 422ZM739 414T778 388T839 314T861 202Q861 137 839 89T778 16T689
-10Q638 -10 599 15T537 89T515 202Q515 266 537 314T599 388T689 414Q739 414 778 388ZM737 39T766 84T795 201Q795 274 766 320T688 366Q640 366 611 320T581 201Q581 130 610 85T688 39Q737 39 766 84Z" />
<glyph unicode="&amp;" glyph-name="ampersand" horiz-adv-x="778" d="M420 753T473 712T526 603Q526 546 483 494T350 403Q342 399 342 395Q342 391 347 386L503 204Q508 198 510 198Q512 198 515 201T520 206Q555 239 595 297T647 390Q651 401 664 397L704 383Q709
381 711 376T713 366Q698 324 658 265T569 153Q564 148 564 145Q564 143 567 140T571 136Q599 111 646 93T738 74Q753 74 753 61V18Q753 8 749 4T735 0Q678 0 613 24T504 81Q498 85 495 85Q493 85 486 80Q387 -5 262 -5Q159 -5 100 47T40 189Q40 249 76 299T193
397Q203 403 203 408Q203 413 195 422Q128 494 128 569Q128 621 155 663T231 729T338 753Q420 753 473 712ZM284 693T250 658T216 573Q216 525 257 480L284 450Q287 446 293 446Q296 446 302 448Q378 484 412 520T446 601Q446 646 417 669T340 693Q284 693 250
658ZM262 352T254 352Q248 352 241 348Q190 322 161 282T131 193Q131 136 172 99T277 62Q318 62 360 79T433 125Q441 133 441 138Q441 142 436 149L269 343Q262 352 254 352Z" />
<glyph unicode="&apos;" glyph-name="quotesingle" horiz-adv-x="240" d="M148 526Q146 518 143 515T131 512H107Q100 512 98 514T94 524L69 732V734Q69 742 78 742H164Q174 742 173 732L148 526Z" />
<glyph unicode="(" glyph-name="parenleft" horiz-adv-x="286" d="M265 742T266 739T266 733Q213 628 182 513T150 284Q150 174 177 68T258 -155Q259 -156 259 -159Q259 -165 251 -165H214Q206 -165 202 -158Q135 -43 102 60T68 285Q68 405 106 520T209 734Q215
742 225 742H259Q265 742 266 739Z" />
<glyph unicode=")" glyph-name="parenright" horiz-adv-x="286" d="M61 742Q71 742 77 734Q142 636 180 521T218 285Q218 164 185 61T84 -158Q80 -165 72 -165H35Q24 -165 28 -155Q82 -39 109 67T136 284Q136 397 105 512T20 733Q19 734 19 736Q19 742 27 742H61Z" />
<glyph unicode="*" glyph-name="asterisk" horiz-adv-x="380" d="M197 530Q196 532 195 532T192 530L117 411Q116 408 112 408T104 410L69 434Q65 437 65 439T68 447L153 553Q155 560 149 561L33 594Q26 597 29 606L42 643Q45 651 53 647L163 603Q171 600 171
608L162 734Q162 737 164 739T171 742H218Q226 742 226 734L218 608Q218 600 224 603L337 651Q339 652 342 652Q347 652 348 646L359 611Q360 609 360 605Q360 601 354 599L240 561Q235 560 238 553L320 453Q322 451 322 446Q322 442 316 437L284 415Q280 412 276
412T269 415L197 530Z" />
<glyph unicode="+" glyph-name="plus" horiz-adv-x="557" d="M496 406T496 396V353Q496 340 480 340H313V166Q313 156 303 156H260Q246 156 246 172V339H75Q62 339 62 351V394Q62 406 71 406H246V577Q246 584 248 587T257 590H300Q312 590 312 581V406H486Q496
406 496 396Z" />
<glyph unicode="," glyph-name="comma" horiz-adv-x="212" d="M47 -143T45 -139T45 -128L90 -16Q93 -10 93 -7Q93 0 82 0H69Q56 0 56 12V101Q56 112 66 112H149Q159 112 159 102V20Q159 13 156 8L83 -132Q77 -143 63 -143H52Q47 -143 45 -139Z" />
<glyph unicode="-" glyph-name="hyphen" horiz-adv-x="381" d="M319 245Q319 231 302 231H75Q68 231 65 233T62 243V287Q62 298 71 298L309 299Q319 299 319 289V245Z" />
<glyph unicode="." glyph-name="period" horiz-adv-x="209" d="M155 16Q155 7 151 4T137 0H67Q59 0 56 3T52 14V100Q52 113 63 113H145Q155 113 155 101V16Z" />
<glyph unicode="/" glyph-name="slash" horiz-adv-x="342" d="M9 -44T13 -35L263 733Q266 742 276 742H320Q330 742 330 735Q330 732 328 726L82 -31Q78 -44 64 -44H21Q9 -44 13 -35Z" />
<glyph unicode="0" glyph-name="zero" horiz-adv-x="688" d="M425 752T487 708T586 577T622 369Q622 249 586 164T488 35T344 -9Q263 -9 200 34T102 163T66 368Q66 489 102 576T201 707T345 752Q425 752 487 708ZM524 64T524 369Q524 528 477 603T344 679Q259
679 212 603T164 369Q164 213 212 139T345 64Q524 64 524 369Z" />
<glyph unicode="1" glyph-name="one" horiz-adv-x="465" d="M423 76T423 66V10Q423 6 420 3T412 0H61Q50 0 50 10V66Q50 76 61 76H187Q195 76 195 81V631Q195 642 186 639L62 593Q61 593 60 593T58 593Q49 593 49 605V645Q49 652 51 654T59 660L207 734Q224 742
237 742H280Q291 742 291 730V83Q291 76 297 76H412Q423 76 423 66Z" />
<glyph unicode="2" glyph-name="two" horiz-adv-x="599" d="M289 311Q375 392 408 442T441 547Q441 608 397 642T293 677Q246 677 200 653T122 578Q119 573 112 573Q108 573 102 576L58 602Q50 607 50 614Q50 619 54 624Q98 688 162 720T301 752Q365 752 418 729T502
658T534 544Q534 479 499 423T373 282L172 93Q167 90 167 86Q167 81 178 81H529Q536 81 539 79T542 70V12Q542 0 529 0H65Q56 0 53 3T49 16V57Q49 68 54 76T76 99L289 311Z" />
<glyph unicode="3" glyph-name="three" horiz-adv-x="641" d="M74 641T74 645Q74 649 77 653Q169 752 308 752Q383 752 440 728T527 661T558 564Q558 510 525 467T431 402Q420 399 420 395Q420 393 431 388Q496 370 538 322T581 205Q581 142 549 94T452 18T295
-10Q142 -10 45 96Q42 101 42 104Q42 109 48 113L91 147Q98 152 100 152Q104 152 107 147Q151 101 196 82T302 63Q388 63 437 101T486 202Q486 248 460 282T390 333T298 350L209 351Q197 351 197 361V413Q197 421 209 423L281 424Q332 424 374 442T440 491T464
560Q464 593 444 620T389 664T309 680Q210 680 130 603Q125 598 121 598Q119 598 112 603L77 638Q74 641 74 645Z" />
<glyph unicode="4" glyph-name="four" horiz-adv-x="649" d="M392 738T397 740T411 742H478Q490 742 490 730V280Q490 271 498 271H592Q606 271 606 261V212Q606 199 592 199H499Q490 199 490 189V15Q490 0 474 0H406Q393 0 393 13V192Q393 199 384 199H60Q45
199 45 212V263Q45 269 49 277T61 296L386 732Q392 738 397 740ZM382 271Q386 271 388 273T391 278V612Q391 624 387 624Q385 624 377 616L133 284Q130 280 130 277Q130 271 140 271H382Z" />
<glyph unicode="5" glyph-name="five" horiz-adv-x="654" d="M544 742Q554 742 557 739T559 728L555 673Q554 666 552 664T541 662H201Q189 662 189 651L171 434V432Q171 425 174 423T183 422Q231 447 266 458T349 470Q418 470 474 445T564 369T598 243Q598 165
562 108T461 20T313 -10Q236 -10 169 17T55 94Q50 101 50 104Q50 110 57 114L100 149Q103 152 106 152Q111 152 117 146Q164 102 203 82T301 62Q395 62 449 111T504 240Q504 316 456 356T334 397Q287 397 248 382T162 338Q155 334 153 334Q152 334 144 339L95 367Q91
369 89 371T86 376L88 389L115 728Q116 737 119 739T137 742H544Z" />
<glyph unicode="6" glyph-name="six" horiz-adv-x="661" d="M438 751T487 724T564 654Q567 648 567 646Q567 641 561 638L504 615Q502 614 499 614Q493 614 489 621Q465 650 438 664T370 679Q266 679 214 606T161 412Q161 399 162 394T169 389Q173 389 179 392Q230
417 270 430T364 443Q439 443 494 415T578 338T607 226Q607 157 573 104T480 21T349 -9Q262 -9 198 34T100 161T66 360Q66 481 102 569T207 704T369 751Q438 751 487 724ZM312 373T263 360T183 327Q171 319 167 311T163 284Q163 233 184 182T247 96T349 61Q395
61 432 82T490 141T512 222Q512 287 469 330T353 373Q312 373 263 360Z" />
<glyph unicode="7" glyph-name="seven" horiz-adv-x="599" d="M540 742Q548 742 552 739T555 730L554 694Q554 679 540 658Q477 564 419 441T320 203T270 19Q269 0 255 0H176Q168 0 165 4T164 17Q196 147 267 312T447 648Q450 653 450 657Q450 662 440 662H53Q41
662 42 674L48 732Q49 738 52 740T63 742H540Z" />
<glyph unicode="8" glyph-name="eight" horiz-adv-x="668" d="M405 752T460 727T547 655T578 548Q578 501 554 464T477 390Q469 384 469 381Q469 377 476 374Q611 321 611 197Q611 134 576 88T478 16T330 -10Q205 -10 133 41T61 184Q61 237 87 279T175 360Q188
368 188 372Q188 376 176 382Q81 435 81 537Q81 597 113 646T202 723T333 752Q405 752 460 727ZM289 682T252 664T193 615T172 545Q172 454 275 431L378 407Q397 402 424 422T472 478T493 549Q493 608 450 645T334 682Q289 682 252 664ZM418 60T467 96T516 193Q516
240 491 268T410 311L280 342Q277 343 271 343Q249 343 219 323T168 269T146 195Q146 131 194 96T335 60Q418 60 467 96Z" />
<glyph unicode="9" glyph-name="nine" horiz-adv-x="658" d="M221 -9T171 18T91 88Q88 94 88 96Q88 101 94 104L151 127L155 128Q161 128 166 121Q190 93 219 78T292 63Q393 63 444 136T496 330Q496 343 495 348T489 353Q485 353 479 350Q429 325 389 312T296
299Q222 299 168 327T84 404T55 517Q55 585 89 638T182 721T313 751Q399 751 461 707T558 580T592 382Q592 261 556 173T452 38T292 -9Q221 -9 171 18ZM349 369T397 383T476 420Q488 428 492 436T496 463Q496 513 476 563T414 647T313 681Q267 681 230 660T172
602T150 520Q150 478 169 444T224 389T307 369Q349 369 397 383Z" />
<glyph unicode=":" glyph-name="colon" horiz-adv-x="209" d="M155 411Q155 395 137 395H67Q52 395 52 410V494Q52 507 63 507H145Q155 507 155 496V411ZM155 19Q155 3 137 3H67Q52 3 52 17V102Q52 114 63 114H145Q155 114 155 103V19Z" />
<glyph unicode=";" glyph-name="semicolon" horiz-adv-x="229" d="M59 394T56 397T52 408V493Q52 506 63 506H145Q155 506 155 495V409Q155 401 151 398T137 394H67Q59 394 56 397ZM47 -144T45 -140T45 -130L90 -16L92 -7Q92 0 82 0H69Q56 0 56 12V101Q56 112
66 112H149Q159 112 159 102V20Q159 13 156 8L83 -133Q77 -144 63 -144H52Q47 -144 45 -140Z" />
<glyph unicode="&lt;" glyph-name="less" horiz-adv-x="544" d="M477 173Q477 156 464 156Q461 156 455 158L67 310Q53 317 53 327V383Q53 395 67 400L456 554Q460 556 466 556Q478 556 478 541V496Q478 488 473 484T456 473L155 355L456 237Q468 232 472 228T477
214V173Z" />
<glyph unicode="=" glyph-name="equal" horiz-adv-x="557" d="M496 452Q496 439 480 439L75 438Q62 438 62 450V493Q62 504 71 504L486 505Q496 505 496 495V452ZM496 227Q496 213 480 213L75 212Q62 212 62 224V267Q62 279 71 279H486Q496 279 496 270V227Z" />
<glyph unicode="&gt;" glyph-name="greater" horiz-adv-x="544" d="M67 223T71 227T88 237L389 355L88 473Q76 479 71 483T66 496V541Q66 556 78 556Q84 556 88 554L477 400Q491 395 491 383V327Q491 317 477 310L89 158Q83 156 80 156Q67 156 67 173V214Q67 223 71 227Z" />
<glyph unicode="?" glyph-name="question" horiz-adv-x="523" d="M29 606T28 610T29 618Q61 681 123 716T265 752Q332 752 383 730T461 666T489 573Q489 533 475 501T441 443T386 383Q352 349 332 324T297 267T283 195Q283 190 280 187T271 183H223Q210 183 210
197Q210 244 225 282T261 349T317 415Q361 463 381 495T402 570Q402 623 364 654T264 686Q214 686 167 659T103 592Q101 587 99 586T91 587L34 605Q29 606 28 610ZM298 16Q298 7 294 4T279 0H209Q195 0 195 14V99Q195 111 205 111H288Q298 111 298 100V16Z" />
<glyph unicode="@" glyph-name="at" horiz-adv-x="834" d="M611 -77T555 -95T435 -113Q317 -113 229 -63T95 72T48 261Q48 369 98 460T240 606T449 661Q540 661 621 626T752 519T803 339Q803 264 778 206T709 114T609 81Q570 81 549 94T519 134Q516 141 514 141Q513
141 508 135Q456 67 368 67Q330 67 298 88T247 150T228 241Q228 304 252 358T321 443T421 475Q498 475 537 411Q538 409 540 410T544 415L551 443Q552 449 559 449H604Q612 449 611 442L574 220Q571 202 571 188Q571 163 581 152T614 141Q647 141 675 164T719 231T736
333Q736 425 695 485T589 574T449 602Q345 602 269 556T154 432T114 260Q114 170 152 99T266 -14T448 -56Q506 -56 541 -43T623 1Q628 5 634 5Q640 5 643 0L663 -26Q665 -28 665 -33Q665 -37 661 -41T656 -46Q611 -77 555 -95ZM300 193T321 161T382 129Q418 129
449 153T498 216T517 300Q517 353 490 383T425 413Q389 413 361 391T316 331T300 248Q300 193 321 161Z" />
<glyph unicode="A" glyph-name="A" horiz-adv-x="727" d="M49 0T46 4T46 17L305 728Q308 736 312 739T325 742H403Q422 742 426 727L682 17L683 12Q683 0 672 0H601Q589 0 585 10L516 204Q514 208 512 210T504 212H213Q204 212 201 204L130 9Q127 0 115 0H55Q49
0 46 4ZM478 288Q489 288 486 301L366 630Q363 639 359 639Q355 639 352 630L230 299L228 293Q228 288 236 288H478Z" />
<glyph unicode="B" glyph-name="B" horiz-adv-x="699" d="M104 0T101 3T97 12V728Q97 742 110 742H341Q474 742 546 693T619 550Q619 489 587 448T488 383Q484 382 484 379T488 375Q637 337 637 198Q637 99 563 50T348 0H109Q104 0 101 3ZM354 411Q424 411 473
441T522 539Q522 605 474 638T341 672H206Q193 672 193 660V424Q193 411 202 411H354ZM343 70Q441 70 489 102T537 201Q537 271 487 305T354 339H207Q199 339 196 337T193 327V84Q193 76 195 73T202 70H343Z" />
<glyph unicode="C" glyph-name="C" horiz-adv-x="707" d="M444 752T503 724T602 649T649 547L650 540Q650 536 648 534T642 532L567 526H565Q562 526 560 528T557 536Q542 601 495 640T381 679Q276 679 221 602T165 370Q165 219 220 143T386 66Q457 66 504 100T581
209Q583 216 593 213L652 199Q659 197 657 185Q642 135 605 91T511 18T382 -10Q283 -10 212 36T103 168T65 372Q65 490 102 575T210 706T378 752Q444 752 503 724Z" />
<glyph unicode="D" glyph-name="D" horiz-adv-x="722" d="M210 742T268 741Q470 738 563 647T657 375Q657 0 258 0H111Q97 0 97 16V729Q97 736 100 739T111 742Q210 742 268 741ZM193 669T193 655V83Q193 77 195 75T205 72H243Q355 72 423 101T524 197T557 373Q557
483 526 546T432 637T263 668Q243 669 201 669Q193 669 193 655Z" />
<glyph unicode="E" glyph-name="E" horiz-adv-x="628" d="M97 736T99 739T109 742H558Q568 742 568 731V680Q568 668 555 668H206Q198 668 196 666T193 656V422Q193 411 204 411H463Q474 411 474 400V347Q474 338 463 338H204Q193 338 193 327V84Q193 78 195 76T203
74H570Q576 74 578 72T581 64V11Q581 0 570 0H111Q103 0 100 3T97 14V728Q97 736 99 739Z" />
<glyph unicode="F" glyph-name="F" horiz-adv-x="601" d="M97 742T109 742H549Q559 742 559 731V680Q559 668 546 668H206Q198 668 196 666T193 656V410Q193 399 204 399H471Q482 399 482 389V336Q482 331 480 329T471 327H204Q193 327 193 316V13Q193 0 179 0H111Q103
0 100 3T97 14V728Q97 742 109 742Z" />
<glyph unicode="G" glyph-name="G" horiz-adv-x="739" d="M280 -10T210 35T103 166T65 368Q65 487 103 574T213 706T379 752Q447 752 506 724T604 650T651 552V546Q651 542 650 540T643 536L571 525H569Q563 525 560 535Q549 596 499 637T378 679Q275 679 220
601T165 374Q165 218 220 141T380 63Q441 63 485 90T551 159T577 244V304V306Q577 315 567 315H404Q393 315 393 325V368Q393 377 403 377L651 376Q666 376 666 364V13Q666 0 654 0H631Q623 0 619 2T613 12L602 105Q601 109 599 109T593 104Q561 53 508 22T375
-10Q280 -10 210 35Z" />
<glyph unicode="H" glyph-name="H" horiz-adv-x="735" d="M201 347Q197 347 195 345T193 339V15Q193 7 189 4T176 0H111Q103 0 100 3T97 14V728Q97 742 109 742H181Q193 742 193 729V435Q193 428 195 426T204 423H532Q542 423 542 435V730Q542 742 553 742H626Q633
742 635 739T638 728V14Q638 0 624 0H559Q550 0 546 3T542 15V338Q542 347 533 347H201Z" />
<glyph unicode="I" glyph-name="I" horiz-adv-x="290" d="M181 742Q193 742 193 729V17Q193 7 189 4T175 0H112Q103 0 100 3T97 14V728Q97 742 109 742H181Z" />
<glyph unicode="J" glyph-name="J" horiz-adv-x="418" d="M325 76T287 33T165 -10Q120 -10 89 0T53 11Q39 16 42 30L51 84Q53 96 63 93Q68 91 81 86T110 77T145 73Q191 73 210 97T229 185V729Q229 742 241 742H314Q325 742 325 729V163Q325 76 287 33Z" />
<glyph unicode="K" glyph-name="K" horiz-adv-x="701" d="M659 8T659 7Q659 0 651 0H569Q556 0 551 9L330 378Q328 383 324 383Q321 383 315 377L200 246Q193 239 193 228V15Q193 7 189 4T176 0H112Q97 0 97 13V730Q97 742 108 742H182Q193 742 193 730V363Q193
356 196 356Q197 356 202 361L530 733Q534 738 538 740T550 742H619Q627 742 629 738T627 728L394 468Q392 464 392 462T394 455L657 14Q659 8 659 7Z" />
<glyph unicode="L" glyph-name="L" horiz-adv-x="602" d="M97 742T109 742H181Q193 742 193 729V84Q193 78 195 76T203 74H549Q555 74 558 72T561 64V11Q561 0 549 0H111Q103 0 100 3T97 14V728Q97 742 109 742Z" />
<glyph unicode="M" glyph-name="M" horiz-adv-x="906" d="M97 0T97 15V728Q97 736 99 739T109 742H205Q213 742 216 740T222 731L444 158Q447 149 451 149Q456 149 460 159L682 729Q685 742 697 742H798Q809 742 809 729V15Q809 0 794 0H728Q713 0 713 13V585Q713
590 712 590T708 585L488 13Q482 0 469 0H421Q406 0 401 12L184 579Q183 584 181 584T179 579V13Q179 6 176 3T165 0H111Q97 0 97 15Z" />
<glyph unicode="N" glyph-name="N" horiz-adv-x="757" d="M649 742Q655 742 657 740T660 730V12Q660 0 647 0H598Q590 0 586 1T577 8L191 569Q187 576 184 575T180 568V13Q180 0 166 0H110Q97 0 97 13V728Q97 736 99 739T110 742H167Q175 742 179 740T188 732L563
183Q568 177 572 177Q578 177 578 186V730Q578 742 590 742H649Z" />
<glyph unicode="O" glyph-name="O" horiz-adv-x="764" d="M284 -10T213 34T103 163T65 368Q65 489 103 575T213 707T383 752Q480 752 551 707T661 576T699 369Q699 249 661 164T552 35T382 -10Q284 -10 213 34ZM492 63T545 138T599 368Q599 526 545 602T383 679Q274
679 220 602T165 368Q165 213 219 138T384 63Q492 63 545 138Z" />
<glyph unicode="P" glyph-name="P" horiz-adv-x="690" d="M636 419T565 365T372 310H202Q193 310 193 301V15Q193 0 178 0H110Q97 0 97 13V728Q97 736 99 739T109 742H361Q486 742 561 689T636 526Q636 419 565 365ZM538 603T491 636T356 669H206Q193 669 193
657V397Q193 389 195 386T202 383H363Q445 383 491 419T538 529Q538 603 491 636Z" />
<glyph unicode="Q" glyph-name="Q" horiz-adv-x="765" d="M65 491T103 577T212 707T382 752Q480 752 551 708T661 577T699 369Q699 136 559 42Q555 39 555 33Q555 21 573 3T621 -31T682 -50Q692 -51 692 -59V-106Q692 -117 686 -120T665 -124Q617 -124 569 -96T476
-6Q472 0 461 -2Q428 -10 382 -10Q285 -10 214 33T104 162T65 369Q65 491 103 577ZM165 212T219 138T382 63Q490 63 544 138T599 368Q599 679 382 679Q165 679 165 367Q165 212 219 138Z" />
<glyph unicode="R" glyph-name="R" horiz-adv-x="696" d="M628 17T628 12Q628 0 616 0H543Q532 0 527 12L398 327Q395 333 390 336T374 339H205Q193 339 193 328V16Q193 7 190 4T176 0H111Q103 0 100 3T97 13V728Q97 736 99 739T109 742H388Q507 742 572 693T637
550Q637 471 595 423T491 356Q487 355 486 352T487 346L627 19Q628 17 628 12ZM449 408T493 440T537 541Q537 606 498 639T383 672H207Q193 672 193 661V421Q193 408 202 408H360Q449 408 493 440Z" />
<glyph unicode="S" glyph-name="S" horiz-adv-x="641" d="M434 679T328 679Q253 679 210 646T167 554Q167 476 274 440L419 392Q507 363 546 315T586 196Q586 100 515 45T321 -10Q231 -10 163 22T52 115Q48 123 48 125Q48 132 58 139L94 164Q103 170 108 170Q114
170 119 164Q162 109 204 86T317 63Q401 63 447 93T494 186Q494 225 470 252T381 304L229 356Q150 383 113 433T75 545Q75 607 106 654T195 726T328 752Q401 752 460 726T562 653Q567 648 567 643Q567 638 562 634L516 598Q513 595 510 595Q507 595 498 604Q434
679 328 679Z" />
<glyph unicode="T" glyph-name="T" horiz-adv-x="645" d="M42 731Q42 742 54 742H592Q604 742 604 731V679Q604 673 601 671T592 669H389Q383 669 381 667T378 659V13Q378 0 366 0H294Q282 0 282 13V658Q282 665 280 667T272 669H54Q48 669 45 671T42 679V731Z" />
<glyph unicode="U" glyph-name="U" horiz-adv-x="709" d="M622 115T555 53T355 -10Q216 -10 152 57T88 264V728Q88 742 99 742H171Q183 742 183 729V243Q183 152 227 108T361 64Q450 64 495 108T541 246V729Q541 742 552 742H611Q622 742 622 730V247Q622 115 555 53Z" />
<glyph unicode="V" glyph-name="V" horiz-adv-x="707" d="M658 742T660 738T661 728L408 15Q405 7 400 4T386 0H318Q298 0 294 14L46 727Q45 729 45 732Q45 742 57 742H126Q138 742 143 730L351 124Q354 115 358 115Q362 115 366 125L577 731Q580 742 592 742H651Q658
742 660 738Z" />
<glyph unicode="W" glyph-name="W" horiz-adv-x="1045" d="M994 742T997 737T999 724L793 15Q791 7 786 4T771 0H710Q691 0 687 14L527 581Q524 592 520 580L358 15Q356 7 351 4T336 0H274Q255 0 251 14L48 724Q47 726 47 729Q47 742 62 742H126Q140 742 143 730L306
148Q309 137 312 137Q316 137 318 147L484 731Q488 742 502 742H559Q567 742 571 740T577 730L741 145Q744 136 747 136Q750 136 753 145L918 731Q920 742 935 742H985Q994 742 997 737Z" />
<glyph unicode="X" glyph-name="X" horiz-adv-x="688" d="M644 12T644 8Q644 0 631 0H555Q543 0 539 8L349 294Q342 304 338 304Q334 304 326 292L139 8Q134 0 122 0H56Q45 0 45 6Q45 11 51 21L280 366Q285 373 285 378Q285 383 280 391L56 727Q54 731 54 734Q54
742 62 742H143Q150 742 153 740T160 733L335 466Q339 459 344 459Q350 459 354 466L529 733Q534 742 545 742H618Q624 742 625 738T623 729L401 398Q397 393 397 387Q397 381 401 376L638 21Q644 12 644 8Z" />
<glyph unicode="Y" glyph-name="Y" horiz-adv-x="675" d="M631 742T633 738T632 728L394 330Q390 324 389 318T388 297V17Q388 8 384 4T369 0H309Q293 0 293 15V293Q293 302 292 307T285 320L44 726Q41 731 41 734Q41 742 55 742H127Q136 742 139 740T148 730L334
410Q340 398 345 398Q349 398 356 408L541 730Q545 737 549 739T562 742H624Q631 742 633 738Z" />
<glyph unicode="Z" glyph-name="Z" horiz-adv-x="631" d="M53 0T50 2T47 12V35Q47 42 49 47T58 62L447 658Q449 662 449 664Q449 668 442 668H74Q63 668 63 679V732Q63 742 73 742H573Q582 742 582 732V706Q582 697 574 686L179 84Q176 80 177 78T183 75H570Q581
75 581 66V11Q581 0 569 0H60Q53 0 50 2Z" />
<glyph unicode="[" glyph-name="bracketleft" horiz-adv-x="287" d="M90 742T102 742H263Q272 742 272 735V694Q272 686 263 686H177Q165 686 165 673L164 -99Q164 -105 166 -107T175 -109H260Q271 -109 271 -119V-154Q271 -165 260 -165H105Q90 -165 90 -152V732Q90
742 102 742Z" />
<glyph unicode="\" glyph-name="backslash" horiz-adv-x="342" d="M265 -44T259 -31L13 726Q12 729 12 734Q12 742 21 742H65Q75 742 78 733L329 -35L330 -38Q330 -44 321 -44H277Q265 -44 259 -31Z" />
<glyph unicode="]" glyph-name="bracketright" horiz-adv-x="287" d="M197 -152Q197 -165 182 -165H27Q16 -165 16 -154V-119Q16 -109 27 -109H112Q118 -109 120 -107T123 -99L122 673Q122 686 110 686H24Q15 686 15 694V735Q15 742 24 742H185Q197 742 197 732V-152Z" />
<glyph unicode="^" glyph-name="asciicircum" horiz-adv-x="476" d="M244 423Q241 429 237 429Q233 429 230 423L118 141Q116 137 113 136T103 134H58Q46 134 51 148L197 504Q204 521 215 530T237 540Q249 540 259 531T277 504L424 145Q425 143 425 139Q425 132
415 132H372Q358 132 355 141L244 423Z" />
<glyph unicode="_" glyph-name="underscore" horiz-adv-x="518" d="M456 -104Q456 -111 453 -114T440 -117L75 -118Q62 -118 62 -106V-62Q62 -50 71 -50H446Q456 -50 456 -60V-104Z" />
<glyph unicode="`" glyph-name="grave" horiz-adv-x="285" d="M28 750T31 751T38 751L270 655Q278 651 274 641L266 619Q264 612 261 611T250 611L22 683Q6 687 11 700L27 746Q28 750 31 751Z" />
<glyph unicode="a" glyph-name="a" horiz-adv-x="548" d="M308 -10T207 -10Q129 -10 85 29T40 135Q40 215 107 261T303 315L381 321Q398 323 398 336V363Q398 417 365 448T274 480Q186 480 130 400Q127 395 124 394T116 394L62 412Q57 414 57 419Q57 422 60 428Q90
481 145 510T277 540Q375 540 427 495T479 369V15Q479 6 476 3T465 0H415Q403 0 401 16L399 62Q398 69 394 69Q390 69 385 64Q308 -10 207 -10ZM398 270T383 270L318 264Q225 258 175 228T124 145Q124 102 154 77T236 52Q267 52 297 63T350 93Q373 111 385 131T398
171V254Q398 270 383 270Z" />
<glyph unicode="b" glyph-name="b" horiz-adv-x="599" d="M93 0Q84 0 81 3T77 16V728Q77 742 89 742H151Q161 742 161 728V483Q161 472 166 472Q169 472 176 477Q243 540 336 540Q441 540 495 465T550 268Q550 139 490 65T322 -10Q261 -10 221 14T159 69Q156 73
153 73Q149 73 148 66L143 16Q141 7 138 4T125 0H93ZM161 179Q161 144 181 115T235 68T304 50Q376 50 419 104T463 266Q463 368 424 423T311 479Q266 479 228 459T161 405V179Z" />
<glyph unicode="c" glyph-name="c" horiz-adv-x="542" d="M370 540T421 506T504 416L506 408Q506 402 499 401L444 388L441 387Q436 387 431 395Q399 438 370 458T302 478Q224 478 178 421T132 265Q132 166 178 109T304 52Q351 52 386 75T451 146Q454 151 457
151T464 150L507 134Q514 131 511 121Q480 63 426 27T297 -10Q224 -10 167 24T78 121T46 263Q46 343 78 406T167 505T297 540Q370 540 421 506Z" />
<glyph unicode="d" glyph-name="d" horiz-adv-x="599" d="M440 0T440 14V57Q440 66 435 66Q432 66 427 61Q397 31 362 11T270 -10Q206 -10 156 20T77 110T48 257Q48 341 78 405T161 504T282 540Q327 540 360 526T422 487Q430 481 433 481Q438 481 438 494V729Q438
742 449 742H510Q521 742 521 729V16Q521 7 518 4T505 0H454Q440 0 440 14ZM405 445T373 461T302 478Q226 478 180 421T134 260Q134 155 179 103T296 51Q335 51 367 69T418 116T437 172V413Q405 445 373 461Z" />
<glyph unicode="e" glyph-name="e" horiz-adv-x="581" d="M133 184T156 143T220 78T308 54Q408 54 464 137Q468 141 471 141T478 140L520 119Q528 114 522 105Q483 45 429 18T300 -10Q227 -10 169 24T79 119T46 260Q46 345 79 408T169 506T299 540Q371 540 425
508T510 415T540 269V265Q540 256 537 252T525 247H142Q133 247 133 232Q133 184 156 143ZM439 302Q450 302 453 304T456 316Q456 360 438 397T384 457T301 480Q250 480 212 455T154 389T135 302H439Z" />
<glyph unicode="f" glyph-name="f" horiz-adv-x="379" d="M355 530T355 520V477Q355 468 345 468H231Q223 468 223 459V14Q223 0 211 0H150Q139 0 139 13V460Q139 468 132 468H34Q24 468 24 477V520Q24 530 35 530H130Q139 530 139 540V613Q139 742 264 742H347Q360
742 360 730V691Q360 681 349 681H279Q221 681 221 609V539Q221 530 230 530H345Q355 530 355 520Z" />
<glyph unicode="g" glyph-name="g" horiz-adv-x="602" d="M575 539T575 523V488Q575 478 571 474T555 470Q522 470 503 461Q479 451 483 438Q484 434 489 423T497 399T500 370Q500 299 445 254T283 209Q212 209 181 197T150 166Q150 151 171 144T241 133L370 126Q456
121 498 85T540 -13Q540 -89 474 -132T284 -175Q157 -175 91 -139T24 -34Q24 33 118 79Q129 84 118 90Q72 110 72 149Q72 171 92 191T151 224Q156 225 156 229Q156 234 151 236Q107 259 86 291T65 370Q65 448 124 493T291 538Q386 538 441 493Q448 488 451 488Q455
488 462 493Q481 512 506 525T556 539Q575 539 575 523ZM352 262T386 290T421 371Q421 425 386 455T283 485Q217 485 180 455T143 371Q143 319 179 291T283 262Q352 262 386 290ZM195 65Q177 66 154 55T115 22T99 -24Q99 -72 148 -97T293 -123Q462 -123 462 -23Q462
12 439 32T362 55L195 65Z" />
<glyph unicode="h" glyph-name="h" horiz-adv-x="584" d="M78 0T78 13V729Q78 742 89 742H148Q159 742 159 730V463Q159 452 168 460Q225 504 265 522T353 540Q430 540 471 499T513 388V16Q513 0 498 0H442Q429 0 429 13V370Q429 420 404 447T325 474Q283 474
249 456T162 393V15Q162 0 146 0H91Q78 0 78 13Z" />
<glyph unicode="i" glyph-name="i" horiz-adv-x="239" d="M165 644Q165 634 161 630T147 625H89Q74 625 74 642V726Q74 742 88 742H151Q157 742 161 738T165 727V644ZM161 17Q161 7 157 4T143 0H92Q83 0 80 3T77 14V516Q77 530 89 530H150Q161 530 161 517V17Z" />
<glyph unicode="j" glyph-name="j" horiz-adv-x="239" d="M165 644Q165 625 148 625H89Q74 625 74 642V726Q74 733 78 737T88 742H152Q158 742 161 738T165 727V644ZM162 -103T131 -136T22 -170Q-21 -170 -32 -168T-44 -157V-113Q-44 -102 -34 -102L17 -99Q49
-97 63 -81T78 -23V516Q78 530 90 530H151Q162 530 162 517V-29Q162 -103 131 -136Z" />
<glyph unicode="k" glyph-name="k" horiz-adv-x="564" d="M537 14T537 9Q537 0 526 0H456Q450 0 446 2T438 12L287 271Q285 276 282 276T275 273L169 166Q162 159 162 146V17Q162 7 158 4T144 0H93Q84 0 81 3T78 14V728Q78 742 89 742H150Q162 742 162 729V265Q162
255 165 255Q168 255 172 261L419 518Q430 530 440 530H501Q513 530 513 523Q513 520 506 511L348 350Q344 344 344 341Q344 338 347 333L535 16Q537 14 537 9Z" />
<glyph unicode="l" glyph-name="l" horiz-adv-x="239" d="M162 17Q162 7 158 4T144 0H92Q83 0 80 3T77 14L78 728Q78 742 90 742H150Q162 742 162 729V17Z" />
<glyph unicode="m" glyph-name="m" horiz-adv-x="906" d="M77 0T77 13V517Q77 530 88 530H148Q158 530 158 519V461Q158 449 168 458Q222 502 260 521T345 540Q401 540 437 515T487 452Q489 449 491 449Q494 449 501 454Q553 498 594 519T682 540Q754 540 794
499T835 388V16Q835 0 820 0H764Q751 0 751 13V370Q751 420 727 447T655 474Q615 474 580 455T512 406Q504 398 501 392T498 377V16Q498 0 483 0H427Q414 0 414 13V370Q414 474 318 474Q278 474 245 456T161 393V15Q161 7 158 4T146 0H91Q77 0 77 13Z" />
<glyph unicode="n" glyph-name="n" horiz-adv-x="584" d="M77 0T77 13V517Q77 530 88 530H148Q159 530 159 519V461Q159 450 168 458Q224 502 263 521T352 540Q428 540 470 499T513 389V16Q513 0 498 0H442Q429 0 429 13V370Q429 420 404 447T325 474Q283 474
248 456T161 393V15Q161 7 158 4T146 0H91Q77 0 77 13Z" />
<glyph unicode="o" glyph-name="o" horiz-adv-x="599" d="M224 -10T167 24T78 121T46 262Q46 343 78 406T168 504T300 540Q374 540 431 505T520 406T552 263Q552 184 520 122T431 25T299 -10Q224 -10 167 24ZM379 53T422 109T466 265Q466 363 422 420T300 478Q222
478 177 421T132 265Q132 167 177 110T301 53Q379 53 422 109Z" />
<glyph unicode="p" glyph-name="p" horiz-adv-x="597" d="M160 530T160 515V473Q160 464 165 464Q168 464 173 469Q194 490 210 503T257 528T330 540Q393 540 442 510T520 420T549 273Q549 185 521 121T440 24T319 -10Q236 -10 177 40Q170 47 166 47Q161 47 161
34V-152Q161 -165 150 -165H88Q77 -165 77 -152V514Q77 522 80 526T93 530H146Q160 530 160 515ZM193 84T225 68T297 51Q372 51 417 108T463 272Q463 376 418 427T302 479Q262 479 230 462T180 417T161 364V117Q193 84 225 68Z" />
<glyph unicode="q" glyph-name="q" horiz-adv-x="599" d="M507 530Q515 530 518 526T522 513V-152Q522 -165 510 -165H449Q438 -165 438 -152V32Q438 46 434 46Q431 46 423 40Q394 18 356 4T275 -10Q205 -10 154 24T76 120T48 267Q48 349 75 410T154 506T277 540Q342
540 378 520T442 469Q447 464 448 464Q451 464 453 472L460 514Q462 523 465 526T478 530H507ZM438 351Q438 385 420 415T369 463T297 481Q226 481 180 427T134 268Q134 164 179 108T298 51Q338 51 375 68T438 115V351Z" />
<glyph unicode="r" glyph-name="r" horiz-adv-x="383" d="M77 0T77 13V517Q77 530 88 530H146Q157 530 157 519V454Q157 448 160 447T168 451Q244 540 323 540Q358 540 358 527V467Q358 457 349 459Q331 462 304 462Q275 462 241 445T184 401T161 346V15Q161 0
146 0H91Q77 0 77 13Z" />
<glyph unicode="s" glyph-name="s" horiz-adv-x="512" d="M374 444T338 462T253 481Q198 481 163 458T128 396Q128 373 145 355T209 322L336 284Q402 266 434 231T466 146Q466 100 438 65T361 10T250 -10Q173 -10 113 20T28 100Q25 105 25 108Q25 113 30 116L69
138Q79 144 84 137Q138 51 251 51Q310 52 348 75T387 137Q387 165 364 184T289 218L186 247Q113 266 82 300T50 383Q50 429 75 465T147 520T254 540Q320 540 372 515T453 447Q460 437 452 433L410 410Q406 408 404 408Q400 408 395 413Q374 444 338 462Z" />
<glyph unicode="t" glyph-name="t" horiz-adv-x="387" d="M217 468Q209 468 209 459V142Q209 97 224 80T273 63H342Q353 63 353 52L352 18Q352 8 340 5Q314 0 246 0Q183 0 154 29T125 123V457Q125 468 115 468H35Q24 468 24 478V520Q24 530 34 530H119Q126 530
126 538L137 697Q137 710 148 710H198Q210 710 210 696V538Q210 530 218 530H344Q355 530 355 521V478Q355 468 344 468H217Z" />
<glyph unicode="u" glyph-name="u" horiz-adv-x="579" d="M298 56T337 78T418 143V516Q418 530 434 530H489Q503 530 503 516L501 13Q501 0 490 0H432Q421 0 421 11V70Q421 82 412 73Q358 27 316 9T230 -10Q160 -10 115 32T70 143V515Q70 530 85 530H141Q154 530
154 516V165Q154 115 181 86T257 56Q298 56 337 78Z" />
<glyph unicode="v" glyph-name="v" horiz-adv-x="547" d="M515 530T517 526T518 516L315 15Q310 0 292 0H256Q237 0 231 14L29 515Q28 517 28 520Q28 530 40 530H102Q113 530 118 519L275 126Q278 116 282 116Q286 116 291 127L447 519Q450 530 462 530H508Q515
530 517 526Z" />
<glyph unicode="w" glyph-name="w" horiz-adv-x="796" d="M761 530T764 526T765 516L612 13Q608 0 593 0H545Q528 0 524 13L405 387Q402 396 398 396Q396 396 393 387L280 13Q276 0 261 0H210Q193 0 189 13L32 515Q31 517 31 520Q31 530 43 530H102Q113 530 118
519L237 130Q240 120 244 120Q247 120 252 131L370 520Q373 530 384 530H431Q443 530 446 519L569 130Q572 120 576 120Q580 120 583 131L698 519Q703 530 715 530H755Q761 530 764 526Z" />
<glyph unicode="x" glyph-name="x" horiz-adv-x="544" d="M517 11T517 6Q517 0 506 0H436Q421 0 415 9L274 203Q269 211 266 211Q263 211 257 203L110 9Q104 0 89 0H42Q28 0 28 9Q28 14 35 24L217 256Q222 263 222 267Q222 271 217 278L43 514Q40 517 40 521Q40
525 43 527T51 530H118Q125 530 129 528T137 521L272 338Q277 332 280 332Q284 332 287 338L418 521Q422 526 426 528T438 530H490Q500 530 500 524Q500 522 496 516L327 290Q322 283 322 280Q322 275 327 268L510 21Q517 11 517 6Z" />
<glyph unicode="y" glyph-name="y" horiz-adv-x="530" d="M71 -165T58 -163T45 -152V-113Q45 -106 50 -103T73 -100H136Q160 -100 180 -83T211 -39T223 11Q223 26 219 35L28 513Q27 515 27 519Q27 530 39 530H101Q112 530 117 519L266 131Q269 122 274 122Q280
122 284 134L431 519Q436 530 445 530H492Q498 530 501 526T502 516L282 -47Q255 -115 215 -140T106 -165Q71 -165 58 -163Z" />
<glyph unicode="z" glyph-name="z" horiz-adv-x="482" d="M36 0T34 2T31 12V41Q31 49 33 54T43 70L334 461L337 467Q337 471 329 471H64Q58 471 56 473T53 482V519Q53 530 63 530H433Q442 530 442 520V488Q442 475 432 462L140 70Q136 65 137 62T143 59H437Q448
59 448 50V12Q448 0 435 0H43Q36 0 34 2Z" />
<glyph unicode="{" glyph-name="braceleft" horiz-adv-x="305" d="M116 686T151 714T244 742H281Q290 742 290 735V694Q290 686 281 686H256Q220 686 206 673T192 633V412Q191 357 163 328T92 293Q86 292 86 290T92 287Q134 284 162 256T192 169V-54Q192 -84 206
-96T256 -109H279Q290 -109 290 -119V-154Q290 -165 279 -165H245Q186 -165 151 -137T116 -61V164Q116 204 87 233T6 263Q0 263 0 273V307Q0 317 6 317Q60 318 88 346T116 421V639Q116 686 151 714Z" />
<glyph unicode="|" glyph-name="bar" horiz-adv-x="261" d="M110 -165Q98 -165 98 -152L97 835Q97 847 108 847H152Q164 847 164 835V-154Q164 -165 153 -165H110Z" />
<glyph unicode="}" glyph-name="braceright" horiz-adv-x="305" d="M189 421Q189 374 217 346T299 317Q305 317 305 307V273Q305 263 299 263Q247 263 218 234T189 164V-61Q189 -108 154 -136T60 -165H26Q15 -165 15 -154V-119Q15 -109 26 -109H49Q85 -109 99
-97T113 -54V169Q114 227 142 255T213 287Q220 288 220 290T213 293Q171 298 143 327T113 412V633Q113 660 99 673T49 686H24Q15 686 15 694V735Q15 742 24 742H61Q119 742 154 714T189 639V421Z" />
<glyph unicode="~" glyph-name="asciitilde" horiz-adv-x="568" d="M486 349T455 334T382 319Q354 319 332 326T280 346Q252 358 234 364T194 370Q161 370 137 357T91 323Q88 319 85 319Q82 319 79 325L62 357Q60 361 60 363Q60 368 65 371Q97 400 125 415T192
430Q218 430 239 424T292 403Q318 391 338 385T382 378Q414 378 435 389T474 421Q478 426 482 426Q487 426 490 419L505 389Q507 385 507 383Q507 379 502 372Q486 349 455 334Z" />
<glyph unicode="&#xa0;" glyph-name="uni00A0" horiz-adv-x="214" />
<glyph unicode="&#xa1;" glyph-name="exclamdown" horiz-adv-x="244" d="M174 419T164 419H81Q71 419 71 431V516Q71 524 74 527T86 530H155Q166 530 170 527T174 514V430Q174 419 164 419ZM173 -157Q173 -165 164 -165H82Q77 -165 75 -162T73 -154L94 338Q95
345 97 347T107 350H136Q152 350 152 336L173 -155V-157Z" />
<glyph unicode="&#xa2;" glyph-name="cent" horiz-adv-x="558" d="M514 242T511 232Q482 179 435 144T323 102V17Q323 0 305 0H275Q266 0 263 4T259 16V104Q196 112 148 148T73 242T46 374Q46 447 73 506T148 602T259 648V728Q259 742 274 742H309Q323 742 323
729V650Q385 644 430 611T504 527L506 519Q506 513 499 512L444 499L441 498Q436 498 431 506Q399 549 370 569T302 589Q224 589 178 532T132 376Q132 277 178 220T304 163Q351 163 386 186T451 257Q454 262 457 262T464 261L507 245Q514 242 511 232Z" />
<glyph unicode="&#xa3;" glyph-name="sterling" horiz-adv-x="615" d="M12 0T12 11V64Q12 73 21 73H51Q93 72 119 109T145 220Q145 259 134 347Q133 354 127 354H37Q29 354 29 362V402Q29 410 37 410H114Q122 410 121 418L107 493Q101 523 101 550Q101 612 129
657T206 727T313 752Q379 752 436 721T513 641L514 638Q514 634 510 633T505 631L451 612Q449 611 445 611Q439 611 437 616Q403 678 323 678Q267 678 231 646T194 558Q194 525 201 486T217 418Q219 410 225 410H380Q387 410 387 404V362Q387 355 380 355H236Q226
355 228 347Q235 308 235 263Q235 245 234 235Q233 176 218 140T183 83Q176 74 186 74H361Q412 74 444 91T493 148Q494 152 498 154T507 154L557 141Q569 137 565 129Q544 65 493 33T366 0H23Q12 0 12 11Z" />
<glyph unicode="&#xa4;" glyph-name="currency" horiz-adv-x="537" d="M211 183T163 214Q154 219 149 213L105 168Q101 164 96 164Q90 164 85 168L62 193Q58 197 58 202Q58 207 62 210L106 255Q109 260 109 263Q109 268 106 272Q78 319 78 373Q78 431 109 477Q113
485 107 490L63 535Q59 539 59 544Q59 550 63 554L87 578Q92 583 97 583Q101 583 105 579L150 533Q156 528 164 532Q211 563 267 563Q322 563 372 531Q378 526 384 532L432 580Q435 583 438 583T444 580L475 549Q480 543 475 537L426 488Q422 484 425 477Q457 429
457 373Q457 313 425 269Q422 262 426 258L475 210Q481 203 475 197L445 166Q439 160 433 166L386 214Q380 220 374 216Q325 183 268 183Q211 183 163 214ZM304 249T332 266T376 311T393 373Q393 406 377 434T332 480T269 497Q234 497 206 480T161 435T144 373Q144
340 160 312T205 266T269 249Q304 249 332 266Z" />
<glyph unicode="&#xa5;" glyph-name="yen" horiz-adv-x="609" d="M597 742T599 738T598 728L367 345H504Q514 345 514 335V303Q514 296 510 293T497 290H357V197H504Q514 197 514 187V155Q514 141 497 141H357V17Q357 0 337 0H277Q261 0 261 15V141H116Q109 141
107 143T104 153V185Q104 196 112 196H261V289H116Q104 289 104 301V333Q104 344 112 344H240L13 726Q11 729 11 733Q11 742 24 742H99Q108 742 112 740T120 730L305 409Q306 408 308 404T314 399Q318 399 322 408L510 730Q515 738 518 740T531 742H590Q597 742
599 738Z" />
<glyph unicode="&#xa6;" glyph-name="brokenbar" horiz-adv-x="261" d="M110 438Q98 438 98 450L97 835Q97 847 108 847H152Q164 847 164 835V448Q164 438 153 438H110ZM110 -165Q98 -165 98 -152L97 232Q97 245 108 245H152Q164 245 164 232V-154Q164 -165 153
-165H110Z" />
<glyph unicode="&#xa7;" glyph-name="section" horiz-adv-x="488" d="M403 177T427 146T451 73Q451 31 427 -2T357 -54T253 -73Q183 -73 125 -44T40 35Q35 46 40 49L83 72Q87 74 89 74Q94 74 98 68Q123 31 162 10T254 -12Q306 -12 338 8T371 66Q371 94 348 117T268
163L178 198Q110 224 79 259T48 345Q48 391 76 425T150 478Q93 508 72 539T50 611Q50 651 73 683T140 733T240 752Q302 752 352 726T428 659Q434 649 427 645L388 623Q382 621 381 621Q376 621 371 626Q317 691 245 691Q191 691 161 671T130 618Q130 594 148 573T215
532L300 498Q379 466 413 427T448 334Q448 287 423 256T355 204Q403 177 427 146ZM316 236T344 260T372 320Q372 355 354 378T283 424L226 446Q183 442 153 416T123 356Q123 326 141 307T214 265L277 239Q316 236 344 260Z" />
<glyph unicode="&#xa8;" glyph-name="dieresis" horiz-adv-x="250" d="M93 647Q93 638 90 635T77 632H24Q16 632 13 634T10 645V729Q10 736 12 739T21 742H82Q88 742 90 740T93 730V647ZM240 647Q240 638 237 635T223 632H171Q162 632 159 634T156 645V729Q156
742 167 742H229Q235 742 237 740T240 730V647Z" />
<glyph unicode="&#xa9;" glyph-name="copyright" horiz-adv-x="830" d="M311 -10T224 41T85 179T34 371Q34 474 85 561T223 700T415 752Q518 752 605 701T744 562T796 371Q796 267 745 180T606 41T415 -10Q311 -10 224 41ZM502 50T574 90T690 203T733 371Q733
465 690 538T575 652T415 693Q327 693 254 653T139 539T97 371Q97 275 139 202T253 90T415 50Q502 50 574 90ZM473 588T514 560T581 486Q585 479 577 476L528 462H526Q521 462 518 468Q479 533 421 533Q366 533 332 490T297 374Q297 301 332 258T423 214Q460 214
488 234T535 288Q538 294 547 290L581 277Q587 276 584 267Q560 221 518 191T417 160Q361 160 317 186T248 261T223 372Q223 435 248 484T317 560T417 588Q473 588 514 560Z" />
<glyph unicode="&#xaa;" glyph-name="ordfeminine" horiz-adv-x="401" d="M256 750T289 721T322 638V473Q322 457 323 448T331 423L332 420Q332 412 318 412H280Q274 412 272 414T269 421L264 449Q263 453 261 453T254 450Q228 427 205 417T150 406Q98 406 69
430T40 498Q40 595 205 609L253 614Q264 616 264 624V639Q264 705 187 705Q159 705 140 695T104 660Q101 654 93 657L54 669Q50 670 52 679Q90 750 191 750Q256 750 289 721ZM101 478T120 464T170 449Q211 449 239 476Q264 498 264 519V564Q264 570 262 572T253
574L213 571Q159 566 130 549T101 501Q101 478 120 464Z" />
<glyph unicode="&#xab;" glyph-name="guillemotleft" horiz-adv-x="446" d="M217 80Q218 79 218 77Q218 73 208 73H179Q171 73 169 79L43 246Q39 251 39 258Q39 263 42 267L169 444Q172 448 174 449T179 450H210Q214 450 216 447T217 440L118 265Q114 255 118
249L217 80ZM395 80Q396 79 396 77Q396 73 386 73H357Q349 73 347 79L222 246Q217 253 217 258Q217 261 221 267L348 444Q350 448 352 449T357 450H388Q392 450 394 447T395 440L297 265Q295 261 295 257Q295 255 297 249L395 80Z" />
<glyph unicode="&#xac;" glyph-name="logicalnot" horiz-adv-x="557" d="M496 406T496 396V207Q496 200 493 197T483 194H437Q425 194 425 204L424 340L75 339Q62 339 62 351V394Q62 406 71 406H486Q496 406 496 396Z" />
<glyph unicode="&#xad;" glyph-name="uni00AD" horiz-adv-x="381" d="M319 245Q319 231 302 231H75Q68 231 65 233T62 243V287Q62 298 71 298L309 299Q319 299 319 289V245Z" />
<glyph unicode="&#xae;" glyph-name="registered" horiz-adv-x="545" d="M208 275T153 307T66 393T34 513Q34 578 66 633T153 720T273 752Q337 752 392 720T479 633T511 513Q511 448 479 394T393 307T273 275Q208 275 153 307ZM358 320T410 372T463 513Q463 571
439 615T372 683T273 707Q187 707 135 654T82 513Q82 425 134 373T273 320Q358 320 410 372ZM363 397T362 395T358 393H323Q320 393 318 397L280 499Q280 500 280 501T273 503H227Q223 503 223 499V399Q223 393 218 393H187Q182 393 182 398V625Q182 630 185 630H288Q326
630 347 615T368 570Q368 524 321 508Q319 508 320 505L362 400Q363 397 362 395ZM325 536T325 566Q325 597 279 597H228Q227 597 226 597T224 596T223 593V540Q223 536 227 536H282Q325 536 325 566Z" />
<glyph unicode="&#xaf;" glyph-name="overscore" horiz-adv-x="316" d="M306 679Q306 666 291 666H21Q15 666 13 669T10 678V717Q10 722 12 725T18 728H298Q302 728 304 725T306 718V679Z" />
<glyph unicode="&#xb0;" glyph-name="degree" horiz-adv-x="464" d="M391 653T371 617T314 561T232 540Q163 540 118 584T73 699Q73 769 118 813T232 858Q277 858 313 838T370 781T391 699Q391 653 371 617ZM329 743T302 771T230 799Q186 799 159 772T132 700Q132
653 158 624T231 595Q276 595 302 623T329 698Q329 743 302 771Z" />
<glyph unicode="&#xb1;" glyph-name="plusminus" horiz-adv-x="557" d="M496 483T496 473V430Q496 417 480 417H312V243Q312 233 302 233H260Q246 233 246 249V416H75Q62 416 62 428V471Q62 482 71 482H246V654Q246 661 248 664T257 667H300Q312 667 312 658V483H486Q496
483 496 473ZM496 131T496 122V79Q496 65 480 65L75 64Q62 64 62 76V119Q62 131 71 131H486Q496 131 496 122Z" />
<glyph unicode="&#xb2;" glyph-name="uni00B2" horiz-adv-x="452" d="M200 580Q253 630 274 662T295 728Q295 766 268 788T202 810Q173 810 144 795T95 748Q92 741 82 746L54 763Q46 768 52 776Q80 817 120 837T207 857Q270 857 312 823T354 726Q354 686 332 651T253
561L126 442Q122 440 123 438T130 435H351Q359 435 359 428V392Q359 384 351 384H59Q53 384 51 386T49 394V420Q49 427 52 432T66 446L200 580Z" />
<glyph unicode="&#xb3;" glyph-name="uni00B3" horiz-adv-x="467" d="M72 789T76 795Q134 857 222 857Q294 857 336 824T379 739Q379 704 358 677T299 637Q292 635 292 633Q292 632 299 628Q340 617 366 587T393 513Q393 452 347 415T214 378Q118 378 56 444Q54
448 54 450T58 455L85 476Q92 483 95 476Q123 447 151 436T218 424Q273 424 303 447T334 511Q334 554 299 579T215 604L159 605Q152 605 152 611V644Q152 648 159 650L205 651Q254 651 287 675T320 736Q320 768 292 790T222 812Q159 812 110 763Q106 760 104 760T98
763L76 785Q72 789 76 795Z" />
<glyph unicode="&#xb4;" glyph-name="acute" horiz-adv-x="285" d="M274 700Q275 698 275 694Q275 686 264 683L35 611Q33 610 29 610Q22 610 19 619L11 641Q10 643 10 646Q10 654 16 655L247 751Q248 752 251 752Q257 752 259 746L274 700Z" />
<glyph unicode="&#xb6;" glyph-name="paragraph" horiz-adv-x="561" d="M435 689Q428 689 428 681V-76Q428 -85 421 -85H380Q371 -85 371 -76V683Q371 685 369 687T364 689H328Q321 689 321 681V-77Q321 -85 313 -85H271Q263 -85 263 -77V300Q263 305 258 305Q194
307 146 335T72 411T46 517Q46 576 73 627T153 710T281 742H483Q490 742 490 736V695Q490 689 483 689H435Z" />
<glyph unicode="&#xb7;" glyph-name="middot" horiz-adv-x="201" d="M155 335Q155 327 152 324T138 320H59Q51 320 48 323T45 334V415Q45 427 54 427H146Q151 427 153 425T155 416V335Z" />
<glyph unicode="&#xb8;" glyph-name="cedilla" horiz-adv-x="221" d="M211 -168T180 -189T102 -210Q52 -210 14 -188Q9 -184 10 -179L21 -153Q24 -148 30 -151Q58 -170 92 -170Q149 -170 149 -132Q149 -110 130 -99T68 -86Q63 -86 62 -85T62 -80L99 5H146L123
-52Q122 -54 123 -55T127 -57Q171 -60 191 -81T211 -131Q211 -168 180 -189Z" />
<glyph unicode="&#xb9;" glyph-name="uni00B9" horiz-adv-x="367" d="M272 428T272 422V386Q272 384 270 382T265 380H44Q41 380 39 382T37 386V422Q37 428 44 428H124Q129 428 129 431V777Q129 784 123 782L45 753H43Q37 753 37 761V786Q37 793 43 795L136 842Q149
847 155 847H182Q189 847 189 839V432Q189 428 193 428H265Q272 428 272 422Z" />
<glyph unicode="&#xba;" glyph-name="ordmasculine" horiz-adv-x="411" d="M278 751T321 703T365 577Q365 501 322 454T205 407Q131 407 89 454T46 577Q46 655 90 703T205 751Q278 751 321 703ZM159 704T135 671T111 580Q111 520 135 487T205 453Q252 453 276
486T301 580Q301 638 276 671T205 704Q159 704 135 671Z" />
<glyph unicode="&#xbb;" glyph-name="guillemotright" horiz-adv-x="446" d="M151 252T151 257Q151 263 149 265L51 440L50 444Q50 450 57 450H88Q91 450 93 449T98 444L225 267Q228 263 228 258Q228 251 224 246L99 79Q95 73 89 73H60Q47 73 50 80L149 249Q151
252 151 257ZM329 252T329 257Q329 263 327 265L229 440Q228 441 228 444Q228 450 236 450H267Q270 450 272 449T276 444L403 267Q407 261 407 258Q407 253 402 246L277 79Q273 73 267 73H238Q225 73 229 80L327 249Q329 252 329 257Z" />
<glyph unicode="&#xbc;" glyph-name="onequarter" horiz-adv-x="891" d="M238 324T238 318V282Q238 280 236 278T231 276H10Q7 276 5 278T3 282V318Q3 324 10 324H90Q95 324 95 327V673Q95 680 89 678L11 649H9Q3 649 3 657V682Q3 689 9 691L102 738Q115 743 121
743H148Q155 743 155 735V328Q155 324 159 324H231Q238 324 238 318ZM206 5Q202 0 198 -2T187 -4H161Q150 -4 150 5Q150 11 153 15L637 743Q640 748 644 749T653 750H686Q699 750 692 739L206 5ZM733 464T736 465T746 467H788Q795 467 795 459V176Q795 170 800
170H859Q868 170 868 164V133Q868 125 859 125H801Q795 125 795 119V9Q795 0 785 0H742Q734 0 734 8V121Q734 125 729 125H525Q515 125 515 133V165Q515 172 525 186L730 460Q733 464 736 465ZM727 170Q733 170 733 175V385Q733 392 730 392Q728 392 724 387L571
179Q568 175 569 173T575 170H727Z" />
<glyph unicode="&#xbd;" glyph-name="onehalf" horiz-adv-x="950" d="M238 324T238 318V282Q238 280 236 278T231 276H10Q7 276 5 278T3 282V318Q3 324 10 324H90Q95 324 95 327V673Q95 680 89 678L11 649H9Q3 649 3 657V682Q3 689 9 691L102 738Q115 743 121
743H148Q155 743 155 735V328Q155 324 159 324H231Q238 324 238 318ZM262 5Q258 0 254 -2T243 -4H217Q206 -4 206 5Q206 11 209 15L693 743Q696 748 700 749T709 750H742Q755 750 748 739L262 5ZM741 196Q794 246 815 278T836 344Q836 382 809 404T743 426Q714
426 685 411T636 364Q633 357 623 362L595 379Q587 384 593 392Q621 433 661 453T748 473Q811 473 853 439T895 342Q895 302 873 267T794 177L667 58Q663 56 664 54T671 51H892Q900 51 900 44V8Q900 0 892 0H600Q594 0 592 2T590 10V36Q590 43 593 48T607 62L741
196Z" />
<glyph unicode="&#xbe;" glyph-name="threequarters" horiz-adv-x="932" d="M38 684T42 690Q100 752 188 752Q260 752 302 719T345 634Q345 599 324 572T265 532Q258 530 258 528Q258 527 265 523Q306 512 332 482T359 408Q359 347 313 310T180 273Q84 273 22
339Q20 343 20 345T24 350L51 371Q58 378 61 371Q89 342 117 331T184 319Q239 319 269 342T300 406Q300 449 265 474T181 499L125 500Q118 500 118 506V539Q118 543 125 545L171 546Q220 546 253 570T286 631Q286 663 258 685T188 707Q125 707 76 658Q72 655 70
655T64 658L42 680Q38 684 42 690ZM306 5Q302 0 298 -2T287 -4H261Q250 -4 250 5Q250 11 253 15L737 743Q740 748 744 749T753 750H786Q799 750 792 739L306 5ZM770 464T773 465T783 467H825Q832 467 832 459V176Q832 170 837 170H896Q905 170 905 164V133Q905
125 896 125H838Q832 125 832 119V9Q832 0 822 0H779Q771 0 771 8V121Q771 125 766 125H562Q552 125 552 133V165Q552 172 562 186L767 460Q770 464 773 465ZM764 170Q770 170 770 175V385Q770 392 767 392Q765 392 761 387L608 179Q605 175 606 173T612 170H764Z"
/>
<glyph unicode="&#xbf;" glyph-name="questiondown" horiz-adv-x="516" d="M219 514Q219 523 223 526T237 530H307Q315 530 318 527T322 516V431Q322 419 311 419H229Q219 419 219 430V514ZM487 -29T488 -33T488 -41Q457 -104 394 -139T252 -175Q147 -175 88 -126T28
4Q28 41 41 70T75 119T129 168Q163 196 184 217T219 268T233 338Q233 343 237 346T245 350H294Q307 350 307 336Q307 289 292 253T255 193T198 139Q156 102 136 74T115 7Q115 -45 152 -76T252 -107Q303 -107 350 -81T413 -15Q415 -10 417 -9T426 -10L483 -28Q487
-29 488 -33Z" />
<glyph unicode="&#xc0;" glyph-name="Agrave" horiz-adv-x="727" d="M49 0T46 4T46 17L305 728Q308 736 312 739T325 742H403Q422 742 426 727L682 17L683 12Q683 0 672 0H601Q589 0 585 10L516 204Q514 208 512 210T504 212H213Q204 212 201 204L130 9Q127 0
115 0H55Q49 0 46 4ZM478 288Q489 288 486 301L366 630Q363 639 359 639Q355 639 352 630L230 299L228 293Q228 288 236 288H478ZM234 962T237 963T244 963L476 867Q484 863 480 853L472 831Q470 824 467 823T456 823L228 895Q212 899 217 912L233 958Q234 962
237 963Z" />
<glyph unicode="&#xc1;" glyph-name="Aacute" horiz-adv-x="727" d="M49 0T46 4T46 17L305 728Q308 736 312 739T325 742H403Q422 742 426 727L682 17L683 12Q683 0 672 0H601Q589 0 585 10L516 204Q514 208 512 210T504 212H213Q204 212 201 204L130 9Q127 0
115 0H55Q49 0 46 4ZM478 288Q489 288 486 301L366 630Q363 639 359 639Q355 639 352 630L230 299L228 293Q228 288 236 288H478ZM493 912Q494 910 494 906Q494 898 483 895L254 823Q252 822 248 822Q241 822 238 831L230 853Q229 855 229 858Q229 866 235 867L466
963Q467 964 470 964Q476 964 478 958L493 912Z" />
<glyph unicode="&#xc2;" glyph-name="Acircumflex" horiz-adv-x="727" d="M49 0T46 4T46 17L305 728Q308 736 312 739T325 742H403Q422 742 426 727L682 17L683 12Q683 0 672 0H601Q589 0 585 10L516 204Q514 208 512 210T504 212H213Q204 212 201 204L130 9Q127
0 115 0H55Q49 0 46 4ZM478 288Q489 288 486 301L366 630Q363 639 359 639Q355 639 352 630L230 299L228 293Q228 288 236 288H478ZM373 899Q371 901 368 904T362 908Q359 908 350 899L292 849Q287 845 284 844T274 843H220Q213 843 213 847Q213 850 218 855L320
946Q331 957 345 957H384Q391 957 395 954T404 948L505 855Q511 849 511 846T504 843H445Q434 843 427 849L373 899Z" />
<glyph unicode="&#xc3;" glyph-name="Atilde" horiz-adv-x="727" d="M49 0T46 4T46 17L305 728Q308 736 312 739T325 742H403Q422 742 426 727L682 17L683 12Q683 0 672 0H601Q589 0 585 10L516 204Q514 208 512 210T504 212H213Q204 212 201 204L130 9Q127 0
115 0H55Q49 0 46 4ZM478 288Q489 288 486 301L366 630Q363 639 359 639Q355 639 352 630L230 299L228 293Q228 288 236 288H478ZM487 879T470 873T427 867Q398 867 358 881Q322 893 300 893Q283 893 272 889T252 879T240 872Q235 869 233 869Q229 869 226 877L216
904Q215 906 215 910Q215 914 220 918Q240 933 256 940T296 948Q313 948 328 945T365 934Q381 929 397 925T428 920Q445 920 457 925T485 940Q490 943 493 943Q498 943 501 935L511 904Q512 902 512 899Q512 894 503 889Q487 879 470 873Z" />
<glyph unicode="&#xc4;" glyph-name="Adieresis" horiz-adv-x="727" d="M49 0T46 4T46 17L305 728Q308 736 312 739T325 742H403Q422 742 426 727L682 17L683 12Q683 0 672 0H601Q589 0 585 10L516 204Q514 208 512 210T504 212H213Q204 212 201 204L130 9Q127
0 115 0H55Q49 0 46 4ZM478 288Q489 288 486 301L366 630Q363 639 359 639Q355 639 352 630L230 299L228 293Q228 288 236 288H478ZM330 859Q330 850 327 847T314 844H261Q253 844 250 846T247 857V941Q247 948 249 951T258 954H319Q325 954 327 952T330 942V859ZM477
859Q477 850 474 847T460 844H408Q399 844 396 846T393 857V941Q393 954 404 954H466Q472 954 474 952T477 942V859Z" />
<glyph unicode="&#xc5;" glyph-name="Aring" horiz-adv-x="727" d="M49 0T46 4T46 17L305 728Q308 736 312 739T325 742H403Q422 742 426 727L682 17L683 12Q683 0 672 0H601Q589 0 585 10L516 204Q514 208 512 210T504 212H213Q204 212 201 204L130 9Q127 0 115
0H55Q49 0 46 4ZM478 288Q489 288 486 301L366 630Q363 639 359 639Q355 639 352 630L230 299L228 293Q228 288 236 288H478ZM466 815T436 785T362 755Q318 755 288 785T257 862Q257 904 287 933T362 963Q405 963 435 933T466 860Q466 815 436 785ZM416 884T400
899T361 915Q338 915 321 899T304 859Q304 837 321 820T361 803Q384 803 400 819T416 859Q416 884 400 899Z" />
<glyph unicode="&#xc6;" glyph-name="AE" horiz-adv-x="1009" d="M956 74T959 72T962 64V11Q962 0 950 0H513Q499 0 499 14V205Q499 212 492 212H253Q243 212 239 204L130 9Q124 0 114 0H54Q45 0 45 8Q45 11 48 17L444 728Q449 736 453 739T467 742H939Q949 742
949 731L948 680Q948 668 935 668H608Q601 668 598 666T595 656V422Q595 411 607 411H851Q862 411 862 400V347Q862 338 851 338H606Q595 338 595 327V84Q595 78 597 76T605 74H950Q956 74 959 72ZM499 288T499 300V639Q499 652 492 652Q484 652 477 639L284 299Q280
293 281 291T288 288H488Q499 288 499 300Z" />
<glyph unicode="&#xc7;" glyph-name="Ccedilla" horiz-adv-x="707" d="M659 197T657 185Q643 137 609 94T522 23T402 -9L385 -52Q384 -54 385 -55T389 -57Q433 -60 453 -81T473 -131Q473 -168 442 -189T364 -210Q314 -210 276 -188Q271 -184 272 -179L283 -153Q286
-148 292 -151Q320 -170 354 -170Q411 -170 411 -132Q411 -110 392 -99T330 -86Q325 -86 324 -85T324 -80L355 -9Q218 1 142 101T65 372Q65 490 102 575T210 706T378 752Q444 752 503 724T602 649T649 547L650 540Q650 536 648 534T642 532L567 526H565Q562 526
560 528T557 536Q542 601 495 640T381 679Q276 679 221 602T165 370Q165 219 220 143T386 66Q457 66 504 100T581 209Q583 216 593 213L652 199Q659 197 657 185Z" />
<glyph unicode="&#xc8;" glyph-name="Egrave" horiz-adv-x="628" d="M97 736T99 739T109 742H558Q568 742 568 731V680Q568 668 555 668H206Q198 668 196 666T193 656V422Q193 411 204 411H463Q474 411 474 400V347Q474 338 463 338H204Q193 338 193 327V84Q193
78 195 76T203 74H570Q576 74 578 72T581 64V11Q581 0 570 0H111Q103 0 100 3T97 14V728Q97 736 99 739ZM215 962T218 963T225 963L457 867Q465 863 461 853L453 831Q451 824 448 823T437 823L209 895Q193 899 198 912L214 958Q215 962 218 963Z" />
<glyph unicode="&#xc9;" glyph-name="Eacute" horiz-adv-x="628" d="M97 736T99 739T109 742H558Q568 742 568 731V680Q568 668 555 668H206Q198 668 196 666T193 656V422Q193 411 204 411H463Q474 411 474 400V347Q474 338 463 338H204Q193 338 193 327V84Q193
78 195 76T203 74H570Q576 74 578 72T581 64V11Q581 0 570 0H111Q103 0 100 3T97 14V728Q97 736 99 739ZM474 912Q475 910 475 906Q475 898 464 895L235 823Q233 822 229 822Q222 822 219 831L211 853Q210 855 210 858Q210 866 216 867L447 963Q448 964 451 964Q457
964 459 958L474 912Z" />
<glyph unicode="&#xca;" glyph-name="Ecircumflex" horiz-adv-x="628" d="M97 736T99 739T109 742H558Q568 742 568 731V680Q568 668 555 668H206Q198 668 196 666T193 656V422Q193 411 204 411H463Q474 411 474 400V347Q474 338 463 338H204Q193 338 193 327V84Q193
78 195 76T203 74H570Q576 74 578 72T581 64V11Q581 0 570 0H111Q103 0 100 3T97 14V728Q97 736 99 739ZM354 899Q352 901 349 904T343 908Q340 908 331 899L273 849Q268 845 265 844T255 843H201Q194 843 194 847Q194 850 199 855L301 946Q312 957 326 957H365Q372
957 376 954T385 948L486 855Q492 849 492 846T485 843H426Q415 843 408 849L354 899Z" />
<glyph unicode="&#xcb;" glyph-name="Edieresis" horiz-adv-x="628" d="M97 736T99 739T109 742H558Q568 742 568 731V680Q568 668 555 668H206Q198 668 196 666T193 656V422Q193 411 204 411H463Q474 411 474 400V347Q474 338 463 338H204Q193 338 193 327V84Q193
78 195 76T203 74H570Q576 74 578 72T581 64V11Q581 0 570 0H111Q103 0 100 3T97 14V728Q97 736 99 739ZM311 859Q311 850 308 847T295 844H242Q234 844 231 846T228 857V941Q228 948 230 951T239 954H300Q306 954 308 952T311 942V859ZM458 859Q458 850 455 847T441
844H389Q380 844 377 846T374 857V941Q374 954 385 954H447Q453 954 455 952T458 942V859Z" />
<glyph unicode="&#xcc;" glyph-name="Igrave" horiz-adv-x="290" d="M181 742Q193 742 193 729V17Q193 7 189 4T175 0H112Q103 0 100 3T97 14V728Q97 742 109 742H181ZM19 962T22 963T29 963L261 867Q269 863 265 853L257 831Q255 824 252 823T241 823L13 895Q-3
899 2 912L18 958Q19 962 22 963Z" />
<glyph unicode="&#xcd;" glyph-name="Iacute" horiz-adv-x="290" d="M181 742Q193 742 193 729V17Q193 7 189 4T175 0H112Q103 0 100 3T97 14V728Q97 742 109 742H181ZM278 912Q279 910 279 906Q279 898 268 895L39 823Q37 822 33 822Q26 822 23 831L15 853Q14
855 14 858Q14 866 20 867L251 963Q252 964 255 964Q261 964 263 958L278 912Z" />
<glyph unicode="&#xce;" glyph-name="Icircumflex" horiz-adv-x="290" d="M181 742Q193 742 193 729V17Q193 7 189 4T175 0H112Q103 0 100 3T97 14V728Q97 742 109 742H181ZM158 899Q156 901 153 904T147 908Q144 908 135 899L77 849Q72 845 69 844T59 843H5Q-2
843 -2 847Q-2 850 3 855L105 946Q116 957 130 957H169Q176 957 180 954T189 948L290 855Q296 849 296 846T289 843H230Q219 843 212 849L158 899Z" />
<glyph unicode="&#xcf;" glyph-name="Idieresis" horiz-adv-x="290" d="M181 742Q193 742 193 729V17Q193 7 189 4T175 0H112Q103 0 100 3T97 14V728Q97 742 109 742H181ZM115 859Q115 850 112 847T99 844H46Q38 844 35 846T32 857V941Q32 948 34 951T43 954H104Q110
954 112 952T115 942V859ZM262 859Q262 850 259 847T245 844H193Q184 844 181 846T178 857V941Q178 954 189 954H251Q257 954 259 952T262 942V859Z" />
<glyph unicode="&#xd0;" glyph-name="Eth" horiz-adv-x="727" d="M476 738T569 647T663 375Q663 0 264 0H117Q103 0 103 16V337H46Q38 337 35 340T32 351V393Q32 406 42 406H103V729Q103 736 106 739T117 742Q216 742 274 741Q476 738 569 647ZM361 72T429 101T530
197T563 373Q563 483 532 546T438 637T269 668Q249 669 207 669Q199 669 199 655V406H357Q361 406 364 403T367 394V352Q367 337 348 337H199V83Q199 77 201 75T211 72H249Q361 72 429 101Z" />
<glyph unicode="&#xd1;" glyph-name="Ntilde" horiz-adv-x="757" d="M649 742Q655 742 657 740T660 730V12Q660 0 647 0H598Q590 0 586 1T577 8L191 569Q187 576 184 575T180 568V13Q180 0 166 0H110Q97 0 97 13V728Q97 736 99 739T110 742H167Q175 742 179 740T188
732L563 183Q568 177 572 177Q578 177 578 186V730Q578 742 590 742H649ZM515 879T498 873T455 867Q426 867 386 881Q350 893 328 893Q311 893 300 889T280 879T268 872Q263 869 261 869Q257 869 254 877L244 904Q243 906 243 910Q243 914 248 918Q268 933 284
940T324 948Q341 948 356 945T393 934Q409 929 425 925T456 920Q473 920 485 925T513 940Q518 943 521 943Q526 943 529 935L539 904Q540 902 540 899Q540 894 531 889Q515 879 498 873Z" />
<glyph unicode="&#xd2;" glyph-name="Ograve" horiz-adv-x="764" d="M284 -10T213 34T103 163T65 368Q65 489 103 575T213 707T383 752Q480 752 551 707T661 576T699 369Q699 249 661 164T552 35T382 -10Q284 -10 213 34ZM492 63T545 138T599 368Q599 526 545
602T383 679Q274 679 220 602T165 368Q165 213 219 138T384 63Q492 63 545 138ZM255 962T258 963T265 963L497 867Q505 863 501 853L493 831Q491 824 488 823T477 823L249 895Q233 899 238 912L254 958Q255 962 258 963Z" />
<glyph unicode="&#xd3;" glyph-name="Oacute" horiz-adv-x="764" d="M284 -10T213 34T103 163T65 368Q65 489 103 575T213 707T383 752Q480 752 551 707T661 576T699 369Q699 249 661 164T552 35T382 -10Q284 -10 213 34ZM492 63T545 138T599 368Q599 526 545
602T383 679Q274 679 220 602T165 368Q165 213 219 138T384 63Q492 63 545 138ZM514 912Q515 910 515 906Q515 898 504 895L275 823Q273 822 269 822Q262 822 259 831L251 853Q250 855 250 858Q250 866 256 867L487 963Q488 964 491 964Q497 964 499 958L514 912Z"
/>
<glyph unicode="&#xd4;" glyph-name="Ocircumflex" horiz-adv-x="764" d="M284 -10T213 34T103 163T65 368Q65 489 103 575T213 707T383 752Q480 752 551 707T661 576T699 369Q699 249 661 164T552 35T382 -10Q284 -10 213 34ZM492 63T545 138T599 368Q599 526
545 602T383 679Q274 679 220 602T165 368Q165 213 219 138T384 63Q492 63 545 138ZM394 899Q392 901 389 904T383 908Q380 908 371 899L313 849Q308 845 305 844T295 843H241Q234 843 234 847Q234 850 239 855L341 946Q352 957 366 957H405Q412 957 416 954T425
948L526 855Q532 849 532 846T525 843H466Q455 843 448 849L394 899Z" />
<glyph unicode="&#xd5;" glyph-name="Otilde" horiz-adv-x="764" d="M284 -10T213 34T103 163T65 368Q65 489 103 575T213 707T383 752Q480 752 551 707T661 576T699 369Q699 249 661 164T552 35T382 -10Q284 -10 213 34ZM492 63T545 138T599 368Q599 526 545
602T383 679Q274 679 220 602T165 368Q165 213 219 138T384 63Q492 63 545 138ZM508 879T491 873T448 867Q419 867 379 881Q343 893 321 893Q304 893 293 889T273 879T261 872Q256 869 254 869Q250 869 247 877L237 904Q236 906 236 910Q236 914 241 918Q261 933
277 940T317 948Q334 948 349 945T386 934Q402 929 418 925T449 920Q466 920 478 925T506 940Q511 943 514 943Q519 943 522 935L532 904Q533 902 533 899Q533 894 524 889Q508 879 491 873Z" />
<glyph unicode="&#xd6;" glyph-name="Odieresis" horiz-adv-x="764" d="M284 -10T213 34T103 163T65 368Q65 489 103 575T213 707T383 752Q480 752 551 707T661 576T699 369Q699 249 661 164T552 35T382 -10Q284 -10 213 34ZM492 63T545 138T599 368Q599 526 545
602T383 679Q274 679 220 602T165 368Q165 213 219 138T384 63Q492 63 545 138ZM351 859Q351 850 348 847T335 844H282Q274 844 271 846T268 857V941Q268 948 270 951T279 954H340Q346 954 348 952T351 942V859ZM498 859Q498 850 495 847T481 844H429Q420 844 417
846T414 857V941Q414 954 425 954H487Q493 954 495 952T498 942V859Z" />
<glyph unicode="&#xd7;" glyph-name="multiply" horiz-adv-x="540" d="M479 212T472 205L441 174Q437 170 432 170Q426 170 420 176L270 326L116 172Q110 165 102 171L72 202Q67 207 67 211Q67 217 73 223L223 373L70 525Q66 530 66 534Q66 539 70 543L100 573Q108
580 115 575L270 420L422 573Q429 578 431 578Q435 578 440 573L471 542Q479 535 472 528L317 373L472 218Q479 212 472 205Z" />
<glyph unicode="&#xd8;" glyph-name="Oslash" horiz-adv-x="729" d="M713 712T713 708Q713 705 710 700L627 608Q682 515 682 369Q682 249 644 164T535 35T365 -10Q227 -10 144 76L76 0Q68 -8 63 -8Q58 -8 50 -2L27 21Q19 29 19 34Q19 36 23 42L103 130Q48 223
48 368Q48 489 86 575T196 707T366 752Q503 752 586 663L658 744Q669 755 676 747L709 716Q713 712 713 708ZM150 270T177 207L526 601Q474 678 366 678Q257 678 204 602T150 368Q150 270 177 207ZM579 471T552 531L204 139Q257 64 366 64Q474 64 526 138T579 368Q579
471 552 531Z" />
<glyph unicode="&#xd9;" glyph-name="Ugrave" horiz-adv-x="709" d="M622 115T555 53T355 -10Q216 -10 152 57T88 264V728Q88 742 99 742H171Q183 742 183 729V243Q183 152 227 108T361 64Q450 64 495 108T541 246V729Q541 742 552 742H611Q622 742 622 730V247Q622
115 555 53ZM234 962T237 963T244 963L476 867Q484 863 480 853L472 831Q470 824 467 823T456 823L228 895Q212 899 217 912L233 958Q234 962 237 963Z" />
<glyph unicode="&#xda;" glyph-name="Uacute" horiz-adv-x="709" d="M622 115T555 53T355 -10Q216 -10 152 57T88 264V728Q88 742 99 742H171Q183 742 183 729V243Q183 152 227 108T361 64Q450 64 495 108T541 246V729Q541 742 552 742H611Q622 742 622 730V247Q622
115 555 53ZM493 912Q494 910 494 906Q494 898 483 895L254 823Q252 822 248 822Q241 822 238 831L230 853Q229 855 229 858Q229 866 235 867L466 963Q467 964 470 964Q476 964 478 958L493 912Z" />
<glyph unicode="&#xdb;" glyph-name="Ucircumflex" horiz-adv-x="709" d="M622 115T555 53T355 -10Q216 -10 152 57T88 264V728Q88 742 99 742H171Q183 742 183 729V243Q183 152 227 108T361 64Q450 64 495 108T541 246V729Q541 742 552 742H611Q622 742 622 730V247Q622
115 555 53ZM373 899Q371 901 368 904T362 908Q359 908 350 899L292 849Q287 845 284 844T274 843H220Q213 843 213 847Q213 850 218 855L320 946Q331 957 345 957H384Q391 957 395 954T404 948L505 855Q511 849 511 846T504 843H445Q434 843 427 849L373 899Z"
/>
<glyph unicode="&#xdc;" glyph-name="Udieresis" horiz-adv-x="709" d="M622 115T555 53T355 -10Q216 -10 152 57T88 264V728Q88 742 99 742H171Q183 742 183 729V243Q183 152 227 108T361 64Q450 64 495 108T541 246V729Q541 742 552 742H611Q622 742 622 730V247Q622
115 555 53ZM330 859Q330 850 327 847T314 844H261Q253 844 250 846T247 857V941Q247 948 249 951T258 954H319Q325 954 327 952T330 942V859ZM477 859Q477 850 474 847T460 844H408Q399 844 396 846T393 857V941Q393 954 404 954H466Q472 954 474 952T477 942V859Z"
/>
<glyph unicode="&#xdd;" glyph-name="Yacute" horiz-adv-x="675" d="M631 742T633 738T632 728L394 330Q390 324 389 318T388 297V17Q388 8 384 4T369 0H309Q293 0 293 15V293Q293 302 292 307T285 320L44 726Q41 731 41 734Q41 742 55 742H127Q136 742 139 740T148
730L334 410Q340 398 345 398Q349 398 356 408L541 730Q545 737 549 739T562 742H624Q631 742 633 738ZM469 912Q470 910 470 906Q470 898 459 895L230 823Q228 822 224 822Q217 822 214 831L206 853Q205 855 205 858Q205 866 211 867L442 963Q443 964 446 964Q452
964 454 958L469 912Z" />
<glyph unicode="&#xde;" glyph-name="Thorn" horiz-adv-x="693" d="M640 278T569 225T376 171H202Q193 171 193 161V15Q193 0 178 0H110Q97 0 97 13V728Q97 742 109 742H181Q193 742 193 729V594Q193 587 200 587H364Q489 587 564 536T640 385Q640 278 569 225ZM541
514T360 514H206Q193 514 193 502V257Q193 244 202 244H366Q449 244 495 279T541 386Q541 514 360 514Z" />
<glyph unicode="&#xdf;" glyph-name="germandbls" horiz-adv-x="608" d="M409 742T452 702T495 601Q495 564 480 540T441 499T374 463Q337 443 325 433T313 404Q313 385 324 377T372 357Q431 335 467 317T533 261T562 164Q562 81 506 36T363 -10Q327 -10 292 -2T232
20Q223 26 227 34L250 76Q255 82 263 77Q287 64 307 58T356 51Q414 51 448 78T483 156Q483 191 466 213T423 248T353 276Q319 288 297 300T259 333T244 389Q244 426 264 451T332 502Q339 506 364 521T402 556T415 600Q415 637 388 658T312 680Q250 680 214 643T178
535V13V10Q178 0 168 0H105Q95 0 95 11V448Q95 458 87 458H35Q24 458 24 468V510Q24 515 27 518T35 521H86Q91 521 92 523T94 531Q95 626 154 684T320 742Q409 742 452 702Z" />
<glyph unicode="&#xe0;" glyph-name="agrave" horiz-adv-x="548" d="M308 -10T207 -10Q129 -10 85 29T40 135Q40 215 107 261T303 315L381 321Q398 323 398 336V363Q398 417 365 448T274 480Q186 480 130 400Q127 395 124 394T116 394L62 412Q57 414 57 419Q57
422 60 428Q90 481 145 510T277 540Q375 540 427 495T479 369V15Q479 6 476 3T465 0H415Q403 0 401 16L399 62Q398 69 394 69Q390 69 385 64Q308 -10 207 -10ZM398 270T383 270L318 264Q225 258 175 228T124 145Q124 102 154 77T236 52Q267 52 297 63T350 93Q373
111 385 131T398 171V254Q398 270 383 270ZM147 750T150 751T157 751L389 655Q397 651 393 641L385 619Q383 612 380 611T369 611L141 683Q125 687 130 700L146 746Q147 750 150 751Z" />
<glyph unicode="&#xe1;" glyph-name="aacute" horiz-adv-x="548" d="M308 -10T207 -10Q129 -10 85 29T40 135Q40 215 107 261T303 315L381 321Q398 323 398 336V363Q398 417 365 448T274 480Q186 480 130 400Q127 395 124 394T116 394L62 412Q57 414 57 419Q57
422 60 428Q90 481 145 510T277 540Q375 540 427 495T479 369V15Q479 6 476 3T465 0H415Q403 0 401 16L399 62Q398 69 394 69Q390 69 385 64Q308 -10 207 -10ZM398 270T383 270L318 264Q225 258 175 228T124 145Q124 102 154 77T236 52Q267 52 297 63T350 93Q373
111 385 131T398 171V254Q398 270 383 270ZM406 700Q407 698 407 694Q407 686 396 683L167 611Q165 610 161 610Q154 610 151 619L143 641Q142 643 142 646Q142 654 148 655L379 751Q380 752 383 752Q389 752 391 746L406 700Z" />
<glyph unicode="&#xe2;" glyph-name="acircumflex" horiz-adv-x="548" d="M308 -10T207 -10Q129 -10 85 29T40 135Q40 215 107 261T303 315L381 321Q398 323 398 336V363Q398 417 365 448T274 480Q186 480 130 400Q127 395 124 394T116 394L62 412Q57 414 57 419Q57
422 60 428Q90 481 145 510T277 540Q375 540 427 495T479 369V15Q479 6 476 3T465 0H415Q403 0 401 16L399 62Q398 69 394 69Q390 69 385 64Q308 -10 207 -10ZM398 270T383 270L318 264Q225 258 175 228T124 145Q124 102 154 77T236 52Q267 52 297 63T350 93Q373
111 385 131T398 171V254Q398 270 383 270ZM286 687Q284 689 281 692T275 696Q272 696 263 687L205 637Q200 633 197 632T187 631H133Q126 631 126 635Q126 638 131 643L233 734Q244 745 258 745H297Q304 745 308 742T317 736L418 643Q424 637 424 634T417 631H358Q347
631 340 637L286 687Z" />
<glyph unicode="&#xe3;" glyph-name="atilde" horiz-adv-x="548" d="M308 -10T207 -10Q129 -10 85 29T40 135Q40 215 107 261T303 315L381 321Q398 323 398 336V363Q398 417 365 448T274 480Q186 480 130 400Q127 395 124 394T116 394L62 412Q57 414 57 419Q57
422 60 428Q90 481 145 510T277 540Q375 540 427 495T479 369V15Q479 6 476 3T465 0H415Q403 0 401 16L399 62Q398 69 394 69Q390 69 385 64Q308 -10 207 -10ZM398 270T383 270L318 264Q225 258 175 228T124 145Q124 102 154 77T236 52Q267 52 297 63T350 93Q373
111 385 131T398 171V254Q398 270 383 270ZM400 667T383 661T340 655Q311 655 271 669Q235 681 213 681Q196 681 185 677T165 667T153 660Q148 657 146 657Q142 657 139 665L129 692Q128 694 128 698Q128 702 133 706Q153 721 169 728T209 736Q226 736 241 733T278
722Q294 717 310 713T341 708Q358 708 370 713T398 728Q403 731 406 731Q411 731 414 723L424 692Q425 690 425 687Q425 682 416 677Q400 667 383 661Z" />
<glyph unicode="&#xe4;" glyph-name="adieresis" horiz-adv-x="548" d="M308 -10T207 -10Q129 -10 85 29T40 135Q40 215 107 261T303 315L381 321Q398 323 398 336V363Q398 417 365 448T274 480Q186 480 130 400Q127 395 124 394T116 394L62 412Q57 414 57 419Q57
422 60 428Q90 481 145 510T277 540Q375 540 427 495T479 369V15Q479 6 476 3T465 0H415Q403 0 401 16L399 62Q398 69 394 69Q390 69 385 64Q308 -10 207 -10ZM398 270T383 270L318 264Q225 258 175 228T124 145Q124 102 154 77T236 52Q267 52 297 63T350 93Q373
111 385 131T398 171V254Q398 270 383 270ZM243 647Q243 638 240 635T227 632H174Q166 632 163 634T160 645V729Q160 736 162 739T171 742H232Q238 742 240 740T243 730V647ZM390 647Q390 638 387 635T373 632H321Q312 632 309 634T306 645V729Q306 742 317 742H379Q385
742 387 740T390 730V647Z" />
<glyph unicode="&#xe5;" glyph-name="aring" horiz-adv-x="548" d="M308 -10T207 -10Q129 -10 85 29T40 135Q40 215 107 261T303 315L381 321Q398 323 398 336V363Q398 417 365 448T274 480Q186 480 130 400Q127 395 124 394T116 394L62 412Q57 414 57 419Q57
422 60 428Q90 481 145 510T277 540Q375 540 427 495T479 369V15Q479 6 476 3T465 0H415Q403 0 401 16L399 62Q398 69 394 69Q390 69 385 64Q308 -10 207 -10ZM398 270T383 270L318 264Q225 258 175 228T124 145Q124 102 154 77T236 52Q267 52 297 63T350 93Q373
111 385 131T398 171V254Q398 270 383 270ZM379 653T349 623T275 593Q231 593 201 623T170 700Q170 742 200 771T275 801Q318 801 348 771T379 698Q379 653 349 623ZM329 722T313 737T274 753Q251 753 234 737T217 697Q217 675 234 658T274 641Q297 641 313 657T329
697Q329 722 313 737Z" />
<glyph unicode="&#xe6;" glyph-name="ae" horiz-adv-x="926" d="M486 246T483 242T479 224Q479 182 502 143T565 79T652 54Q709 54 743 76T810 137Q814 141 816 141T823 140L864 119Q872 114 866 105Q833 50 776 20T643 -10Q569 -10 521 21T437 98Q434 103 431
98Q389 49 339 20T208 -10Q128 -10 84 29T40 138Q40 214 103 259T292 314L380 321Q398 323 398 336V363Q398 418 365 449T270 480Q186 480 130 400Q126 394 123 393T114 394L62 412Q59 414 59 419T60 428Q125 540 277 540Q349 540 392 516T455 443Q486 491 534
515T644 540Q716 540 770 508T855 415T885 269Q885 257 882 252T867 247L497 246Q486 246 483 242ZM599 480T562 459T503 397T481 303L784 302Q795 302 798 305T801 317Q801 360 781 397T726 457T645 480Q599 480 562 459ZM398 260T395 263T382 267L309 261Q219
254 172 224T124 143Q124 101 152 76T229 51Q274 51 313 67T375 111T398 172V252Q398 260 395 263Z" />
<glyph unicode="&#xe7;" glyph-name="ccedilla" horiz-adv-x="542" d="M514 131T511 121Q481 67 433 32T317 -9L300 -52Q299 -54 300 -55T304 -57Q348 -60 368 -81T388 -131Q388 -168 357 -189T279 -210Q229 -210 191 -188Q186 -184 187 -179L198 -153Q201 -148
207 -151Q235 -170 269 -170Q326 -170 326 -132Q326 -110 307 -99T245 -86Q240 -86 239 -85T239 -80L270 -9Q204 -3 153 33T74 128T46 263Q46 343 78 406T167 505T297 540Q370 540 421 506T504 416L506 408Q506 402 499 401L444 388L441 387Q436 387 431 395Q399
438 370 458T302 478Q224 478 178 421T132 265Q132 166 178 109T304 52Q351 52 386 75T451 146Q454 151 457 151T464 150L507 134Q514 131 511 121Z" />
<glyph unicode="&#xe8;" glyph-name="egrave" horiz-adv-x="581" d="M133 184T156 143T220 78T308 54Q408 54 464 137Q468 141 471 141T478 140L520 119Q528 114 522 105Q483 45 429 18T300 -10Q227 -10 169 24T79 119T46 260Q46 345 79 408T169 506T299 540Q371
540 425 508T510 415T540 269V265Q540 256 537 252T525 247H142Q133 247 133 232Q133 184 156 143ZM439 302Q450 302 453 304T456 316Q456 360 438 397T384 457T301 480Q250 480 212 455T154 389T135 302H439ZM170 750T173 751T180 751L412 655Q420 651 416 641L408
619Q406 612 403 611T392 611L164 683Q148 687 153 700L169 746Q170 750 173 751Z" />
<glyph unicode="&#xe9;" glyph-name="eacute" horiz-adv-x="581" d="M133 184T156 143T220 78T308 54Q408 54 464 137Q468 141 471 141T478 140L520 119Q528 114 522 105Q483 45 429 18T300 -10Q227 -10 169 24T79 119T46 260Q46 345 79 408T169 506T299 540Q371
540 425 508T510 415T540 269V265Q540 256 537 252T525 247H142Q133 247 133 232Q133 184 156 143ZM439 302Q450 302 453 304T456 316Q456 360 438 397T384 457T301 480Q250 480 212 455T154 389T135 302H439ZM429 700Q430 698 430 694Q430 686 419 683L190 611Q188
610 184 610Q177 610 174 619L166 641Q165 643 165 646Q165 654 171 655L402 751Q403 752 406 752Q412 752 414 746L429 700Z" />
<glyph unicode="&#xea;" glyph-name="ecircumflex" horiz-adv-x="581" d="M133 184T156 143T220 78T308 54Q408 54 464 137Q468 141 471 141T478 140L520 119Q528 114 522 105Q483 45 429 18T300 -10Q227 -10 169 24T79 119T46 260Q46 345 79 408T169 506T299
540Q371 540 425 508T510 415T540 269V265Q540 256 537 252T525 247H142Q133 247 133 232Q133 184 156 143ZM439 302Q450 302 453 304T456 316Q456 360 438 397T384 457T301 480Q250 480 212 455T154 389T135 302H439ZM309 687Q307 689 304 692T298 696Q295 696
286 687L228 637Q223 633 220 632T210 631H156Q149 631 149 635Q149 638 154 643L256 734Q267 745 281 745H320Q327 745 331 742T340 736L441 643Q447 637 447 634T440 631H381Q370 631 363 637L309 687Z" />
<glyph unicode="&#xeb;" glyph-name="edieresis" horiz-adv-x="581" d="M133 184T156 143T220 78T308 54Q408 54 464 137Q468 141 471 141T478 140L520 119Q528 114 522 105Q483 45 429 18T300 -10Q227 -10 169 24T79 119T46 260Q46 345 79 408T169 506T299 540Q371
540 425 508T510 415T540 269V265Q540 256 537 252T525 247H142Q133 247 133 232Q133 184 156 143ZM439 302Q450 302 453 304T456 316Q456 360 438 397T384 457T301 480Q250 480 212 455T154 389T135 302H439ZM266 647Q266 638 263 635T250 632H197Q189 632 186
634T183 645V729Q183 736 185 739T194 742H255Q261 742 263 740T266 730V647ZM413 647Q413 638 410 635T396 632H344Q335 632 332 634T329 645V729Q329 742 340 742H402Q408 742 410 740T413 730V647Z" />
<glyph unicode="&#xec;" glyph-name="igrave" horiz-adv-x="239" d="M161 17Q161 7 157 4T143 0H92Q83 0 80 3T77 14V516Q77 530 89 530H150Q161 530 161 517V17ZM-8 750T-5 751T2 751L234 655Q242 651 238 641L230 619Q228 612 225 611T214 611L-14 683Q-30 687
-25 700L-9 746Q-8 750 -5 751Z" />
<glyph unicode="&#xed;" glyph-name="iacute" horiz-adv-x="239" d="M161 17Q161 7 157 4T143 0H92Q83 0 80 3T77 14V516Q77 530 89 530H150Q161 530 161 517V17ZM251 700Q252 698 252 694Q252 686 241 683L12 611Q10 610 6 610Q-1 610 -4 619L-12 641Q-13 643
-13 646Q-13 654 -7 655L224 751Q225 752 228 752Q234 752 236 746L251 700Z" />
<glyph unicode="&#xee;" glyph-name="icircumflex" horiz-adv-x="239" d="M161 17Q161 7 157 4T143 0H92Q83 0 80 3T77 14V516Q77 530 89 530H150Q161 530 161 517V17ZM131 687Q129 689 126 692T120 696Q117 696 108 687L50 637Q45 633 42 632T32 631H-22Q-29
631 -29 635Q-29 638 -24 643L78 734Q89 745 103 745H142Q149 745 153 742T162 736L263 643Q269 637 269 634T262 631H203Q192 631 185 637L131 687Z" />
<glyph unicode="&#xef;" glyph-name="idieresis" horiz-adv-x="239" d="M161 17Q161 7 157 4T143 0H92Q83 0 80 3T77 14V516Q77 530 89 530H150Q161 530 161 517V17ZM88 647Q88 638 85 635T72 632H19Q11 632 8 634T5 645V729Q5 736 7 739T16 742H77Q83 742 85
740T88 730V647ZM235 647Q235 638 232 635T218 632H166Q157 632 154 634T151 645V729Q151 742 162 742H224Q230 742 232 740T235 730V647Z" />
<glyph unicode="&#xf0;" glyph-name="eth" horiz-adv-x="599" d="M552 182T521 120T433 24T298 -10Q224 -10 167 23T78 116T46 252Q46 329 78 390T166 485T293 520Q370 520 419 471Q375 565 277 632L129 548Q127 547 123 547Q117 547 113 554L102 571Q99 576 99
578Q99 582 104 585L236 658Q188 685 131 707Q127 709 127 712T130 719L166 747Q168 748 170 749T176 751Q181 751 185 749Q258 723 302 696L398 750Q399 751 403 751Q409 751 410 748L424 722Q428 716 422 712L344 669Q552 527 552 262Q552 182 521 120ZM349 53T386
79T445 151T466 255Q466 313 445 359T386 432T300 458Q252 458 214 432T154 359T132 255Q132 197 153 151T213 79T301 53Q349 53 386 79Z" />
<glyph unicode="&#xf1;" glyph-name="ntilde" horiz-adv-x="584" d="M77 0T77 13V517Q77 530 88 530H148Q159 530 159 519V461Q159 450 168 458Q224 502 263 521T352 540Q428 540 470 499T513 389V16Q513 0 498 0H442Q429 0 429 13V370Q429 420 404 447T325 474Q283
474 248 456T161 393V15Q161 7 158 4T146 0H91Q77 0 77 13ZM428 667T411 661T368 655Q339 655 299 669Q263 681 241 681Q224 681 213 677T193 667T181 660Q176 657 174 657Q170 657 167 665L157 692Q156 694 156 698Q156 702 161 706Q181 721 197 728T237 736Q254
736 269 733T306 722Q322 717 338 713T369 708Q386 708 398 713T426 728Q431 731 434 731Q439 731 442 723L452 692Q453 690 453 687Q453 682 444 677Q428 667 411 661Z" />
<glyph unicode="&#xf2;" glyph-name="ograve" horiz-adv-x="599" d="M224 -10T167 24T78 121T46 262Q46 343 78 406T168 504T300 540Q374 540 431 505T520 406T552 263Q552 184 520 122T431 25T299 -10Q224 -10 167 24ZM379 53T422 109T466 265Q466 363 422 420T300
478Q222 478 177 421T132 265Q132 167 177 110T301 53Q379 53 422 109ZM173 750T176 751T183 751L415 655Q423 651 419 641L411 619Q409 612 406 611T395 611L167 683Q151 687 156 700L172 746Q173 750 176 751Z" />
<glyph unicode="&#xf3;" glyph-name="oacute" horiz-adv-x="599" d="M224 -10T167 24T78 121T46 262Q46 343 78 406T168 504T300 540Q374 540 431 505T520 406T552 263Q552 184 520 122T431 25T299 -10Q224 -10 167 24ZM379 53T422 109T466 265Q466 363 422 420T300
478Q222 478 177 421T132 265Q132 167 177 110T301 53Q379 53 422 109ZM432 700Q433 698 433 694Q433 686 422 683L193 611Q191 610 187 610Q180 610 177 619L169 641Q168 643 168 646Q168 654 174 655L405 751Q406 752 409 752Q415 752 417 746L432 700Z" />
<glyph unicode="&#xf4;" glyph-name="ocircumflex" horiz-adv-x="599" d="M224 -10T167 24T78 121T46 262Q46 343 78 406T168 504T300 540Q374 540 431 505T520 406T552 263Q552 184 520 122T431 25T299 -10Q224 -10 167 24ZM379 53T422 109T466 265Q466 363 422
420T300 478Q222 478 177 421T132 265Q132 167 177 110T301 53Q379 53 422 109ZM312 687Q310 689 307 692T301 696Q298 696 289 687L231 637Q226 633 223 632T213 631H159Q152 631 152 635Q152 638 157 643L259 734Q270 745 284 745H323Q330 745 334 742T343 736L444
643Q450 637 450 634T443 631H384Q373 631 366 637L312 687Z" />
<glyph unicode="&#xf5;" glyph-name="otilde" horiz-adv-x="599" d="M224 -10T167 24T78 121T46 262Q46 343 78 406T168 504T300 540Q374 540 431 505T520 406T552 263Q552 184 520 122T431 25T299 -10Q224 -10 167 24ZM379 53T422 109T466 265Q466 363 422 420T300
478Q222 478 177 421T132 265Q132 167 177 110T301 53Q379 53 422 109ZM426 667T409 661T366 655Q337 655 297 669Q261 681 239 681Q222 681 211 677T191 667T179 660Q174 657 172 657Q168 657 165 665L155 692Q154 694 154 698Q154 702 159 706Q179 721 195 728T235
736Q252 736 267 733T304 722Q320 717 336 713T367 708Q384 708 396 713T424 728Q429 731 432 731Q437 731 440 723L450 692Q451 690 451 687Q451 682 442 677Q426 667 409 661Z" />
<glyph unicode="&#xf6;" glyph-name="odieresis" horiz-adv-x="599" d="M224 -10T167 24T78 121T46 262Q46 343 78 406T168 504T300 540Q374 540 431 505T520 406T552 263Q552 184 520 122T431 25T299 -10Q224 -10 167 24ZM379 53T422 109T466 265Q466 363 422
420T300 478Q222 478 177 421T132 265Q132 167 177 110T301 53Q379 53 422 109ZM269 647Q269 638 266 635T253 632H200Q192 632 189 634T186 645V729Q186 736 188 739T197 742H258Q264 742 266 740T269 730V647ZM416 647Q416 638 413 635T399 632H347Q338 632 335
634T332 645V729Q332 742 343 742H405Q411 742 413 740T416 730V647Z" />
<glyph unicode="&#xf7;" glyph-name="divide" horiz-adv-x="558" d="M335 510Q335 502 332 499T318 495H238Q230 495 227 498T224 509V591Q224 603 233 603H326Q331 603 333 601T335 592V510ZM496 353Q496 340 480 340L75 339Q62 339 62 351V394Q62 406 71 406H486Q496
406 496 396V353ZM335 158Q335 150 332 147T318 143H238Q230 143 227 146T224 156V238Q224 250 233 250H326Q335 250 335 240V158Z" />
<glyph unicode="&#xf8;" glyph-name="oslash" horiz-adv-x="583" d="M563 501T563 496Q563 491 559 487L504 433Q551 363 551 263Q551 184 519 122T430 25T298 -10Q244 -10 198 8T119 61L63 6Q57 0 51 0Q45 0 39 6L26 20Q20 28 20 33Q20 38 26 44L87 103Q45 170
45 262Q45 343 77 406T167 504T299 540Q350 540 393 523T470 474L520 523Q526 529 531 529Q536 529 540 524L559 505Q563 501 563 496ZM131 207T148 162L418 424Q373 478 299 478Q221 478 176 421T131 265Q131 207 148 162ZM465 329T445 377L174 113Q219 53 300
53Q378 53 421 109T465 265Q465 329 445 377Z" />
<glyph unicode="&#xf9;" glyph-name="ugrave" horiz-adv-x="579" d="M298 56T337 78T418 143V516Q418 530 434 530H489Q503 530 503 516L501 13Q501 0 490 0H432Q421 0 421 11V70Q421 82 412 73Q358 27 316 9T230 -10Q160 -10 115 32T70 143V515Q70 530 85 530H141Q154
530 154 516V165Q154 115 181 86T257 56Q298 56 337 78ZM149 750T152 751T159 751L391 655Q399 651 395 641L387 619Q385 612 382 611T371 611L143 683Q127 687 132 700L148 746Q149 750 152 751Z" />
<glyph unicode="&#xfa;" glyph-name="uacute" horiz-adv-x="579" d="M298 56T337 78T418 143V516Q418 530 434 530H489Q503 530 503 516L501 13Q501 0 490 0H432Q421 0 421 11V70Q421 82 412 73Q358 27 316 9T230 -10Q160 -10 115 32T70 143V515Q70 530 85 530H141Q154
530 154 516V165Q154 115 181 86T257 56Q298 56 337 78ZM408 700Q409 698 409 694Q409 686 398 683L169 611Q167 610 163 610Q156 610 153 619L145 641Q144 643 144 646Q144 654 150 655L381 751Q382 752 385 752Q391 752 393 746L408 700Z" />
<glyph unicode="&#xfb;" glyph-name="ucircumflex" horiz-adv-x="579" d="M298 56T337 78T418 143V516Q418 530 434 530H489Q503 530 503 516L501 13Q501 0 490 0H432Q421 0 421 11V70Q421 82 412 73Q358 27 316 9T230 -10Q160 -10 115 32T70 143V515Q70 530 85
530H141Q154 530 154 516V165Q154 115 181 86T257 56Q298 56 337 78ZM288 687Q286 689 283 692T277 696Q274 696 265 687L207 637Q202 633 199 632T189 631H135Q128 631 128 635Q128 638 133 643L235 734Q246 745 260 745H299Q306 745 310 742T319 736L420 643Q426
637 426 634T419 631H360Q349 631 342 637L288 687Z" />
<glyph unicode="&#xfc;" glyph-name="udieresis" horiz-adv-x="579" d="M298 56T337 78T418 143V516Q418 530 434 530H489Q503 530 503 516L501 13Q501 0 490 0H432Q421 0 421 11V70Q421 82 412 73Q358 27 316 9T230 -10Q160 -10 115 32T70 143V515Q70 530 85
530H141Q154 530 154 516V165Q154 115 181 86T257 56Q298 56 337 78ZM245 647Q245 638 242 635T229 632H176Q168 632 165 634T162 645V729Q162 736 164 739T173 742H234Q240 742 242 740T245 730V647ZM392 647Q392 638 389 635T375 632H323Q314 632 311 634T308
645V729Q308 742 319 742H381Q387 742 389 740T392 730V647Z" />
<glyph unicode="&#xfd;" glyph-name="yacute" horiz-adv-x="530" d="M71 -165T58 -163T45 -152V-113Q45 -106 50 -103T73 -100H136Q160 -100 180 -83T211 -39T223 11Q223 26 219 35L28 513Q27 515 27 519Q27 530 39 530H101Q112 530 117 519L266 131Q269 122 274
122Q280 122 284 134L431 519Q436 530 445 530H492Q498 530 501 526T502 516L282 -47Q255 -115 215 -140T106 -165Q71 -165 58 -163ZM406 700Q407 698 407 694Q407 686 396 683L167 611Q165 610 161 610Q154 610 151 619L143 641Q142 643 142 646Q142 654 148 655L379
751Q380 752 383 752Q389 752 391 746L406 700Z" />
<glyph unicode="&#xfe;" glyph-name="thorn" horiz-adv-x="595" d="M160 742T160 727V473Q160 464 165 464Q168 464 173 469Q194 490 210 503T257 528T330 540Q393 540 442 510T520 420T549 273Q549 185 521 121T440 24T319 -10Q236 -10 177 40Q170 47 166 47Q161
47 161 34V-152Q161 -165 150 -165H88Q77 -165 77 -152V726Q77 734 80 738T93 742H146Q160 742 160 727ZM193 84T225 68T297 51Q372 51 417 108T463 272Q463 376 418 427T302 479Q262 479 230 462T180 417T161 364V117Q193 84 225 68Z" />
<glyph unicode="&#xff;" glyph-name="ydieresis" horiz-adv-x="530" d="M71 -165T58 -163T45 -152V-113Q45 -106 50 -103T73 -100H136Q160 -100 180 -83T211 -39T223 11Q223 26 219 35L28 513Q27 515 27 519Q27 530 39 530H101Q112 530 117 519L266 131Q269 122
274 122Q280 122 284 134L431 519Q436 530 445 530H492Q498 530 501 526T502 516L282 -47Q255 -115 215 -140T106 -165Q71 -165 58 -163ZM243 647Q243 638 240 635T227 632H174Q166 632 163 634T160 645V729Q160 736 162 739T171 742H232Q238 742 240 740T243 730V647ZM390
647Q390 638 387 635T373 632H321Q312 632 309 634T306 645V729Q306 742 317 742H379Q385 742 387 740T390 730V647Z" />
<glyph unicode="&#x2013;" glyph-name="endash" horiz-adv-x="558" d="M496 238Q496 224 480 224H75Q68 224 65 226T62 236V280Q62 291 71 291L486 292Q496 292 496 282V238Z" />
<glyph unicode="&#x2014;" glyph-name="emdash" horiz-adv-x="880" d="M818 238Q818 224 802 224H75Q68 224 65 226T62 236V280Q62 291 71 291L808 292Q818 292 818 282V238Z" />
<glyph unicode="&#x2018;" glyph-name="quoteleft" horiz-adv-x="222" d="M171 742T173 739T174 731L130 636Q127 629 127 625Q127 619 135 617H152Q159 616 161 614T164 605V519Q164 509 155 509H61Q52 509 52 518V598Q52 600 55 606L130 733Q136 742 150 742H166Q171
742 173 739Z" />
<glyph unicode="&#x2019;" glyph-name="quoteright" horiz-adv-x="222" d="M51 509T49 512T48 520L92 615Q95 623 95 626Q95 632 87 634H70Q63 635 61 637T58 646V732Q58 742 67 742H161Q170 742 170 733V653Q170 651 167 645L92 518Q86 509 72 509H56Q51 509 49 512Z" />
<glyph unicode="&#x201a;" glyph-name="quotesinglbase" horiz-adv-x="222" d="M51 -125T49 -122T48 -114L92 -19Q95 -12 95 -8Q95 -1 87 -1L70 0Q58 1 58 11V98Q58 108 67 108H161Q165 108 167 106T170 99V19Q170 16 169 14T167 10L92 -116Q87 -125 72 -125H56Q51
-125 49 -122Z" />
<glyph unicode="&#x201c;" glyph-name="quotedblleft" horiz-adv-x="398" d="M52 509T52 518V598Q52 600 55 606L130 733Q136 742 149 742H166Q170 742 172 739T174 731L129 635Q127 627 127 625Q127 618 135 617H152Q159 616 161 614T164 605V519Q164 509 155
509H61Q52 509 52 518ZM229 509T229 518V598Q229 602 231 606L306 733Q312 742 326 742H342Q347 742 349 739T350 731L306 635Q303 629 303 624Q303 619 311 617H328Q335 616 337 614T340 605V519Q340 509 331 509H238Q229 509 229 518Z" />
<glyph unicode="&#x201d;" glyph-name="quotedblright" horiz-adv-x="399" d="M51 509T49 512T48 520L92 615Q95 623 95 626Q95 632 87 634H70Q63 635 61 637T58 646V732Q58 742 67 742H161Q170 742 170 733V653Q170 651 167 645L92 518Q86 509 72 509H56Q51 509
49 512ZM228 509T226 512T224 520L269 615Q271 623 271 626Q271 633 263 634H247Q240 635 237 637T234 646V732Q234 742 243 742H337Q346 742 346 733V653Q346 648 343 645L268 518Q262 509 249 509H232Q228 509 226 512Z" />
<glyph unicode="&#x201e;" glyph-name="quotedblbase" horiz-adv-x="399" d="M227 -125T225 -122T224 -114L268 -19Q271 -12 271 -8Q271 -1 263 -1L246 0Q234 1 234 11V98Q234 108 243 108H337Q341 108 343 106T346 99V19Q346 16 345 14T343 10L268 -116Q263 -125
248 -125H232Q227 -125 225 -122ZM51 -125T49 -122T48 -114L92 -19Q95 -12 95 -8Q95 -1 87 -1L70 0Q58 1 58 11V98Q58 108 67 108H161Q165 108 167 106T170 99V19Q170 16 169 14T167 10L92 -116Q87 -125 72 -125H56Q51 -125 49 -122Z" />
<glyph unicode="&#x2022;" glyph-name="bullet" horiz-adv-x="311" d="M116 282T88 310T60 377Q60 416 88 444T155 472Q194 472 222 444T250 377Q250 338 222 310T155 282Q116 282 88 310Z" />
<glyph unicode="&#x2039;" glyph-name="guilsinglleft" horiz-adv-x="267" d="M217 80Q218 79 218 77Q218 73 208 73H179Q171 73 169 79L43 246Q39 251 39 258Q39 263 42 267L169 444Q172 448 174 449T179 450H210Q214 450 216 447T217 440L118 265Q114 255 118
249L217 80Z" />
<glyph unicode="&#x203a;" glyph-name="guilsinglright" horiz-adv-x="268" d="M152 252T152 257Q152 263 150 265L51 440Q50 441 50 443Q50 446 52 448T58 450H89Q92 450 94 449T99 444L226 267Q229 263 229 258Q229 251 225 246L99 79Q97 73 89 73H60Q48 73
51 80L150 249Q152 252 152 257Z" />
</font>
</defs>
</svg>
