<?xml version="1.0" standalone="no"?>
<!DOCTYPE svg PUBLIC "-//W3C//DTD SVG 1.1//EN" "http://www.w3.org/Graphics/SVG/1.1/DTD/svg11.dtd">
<svg xmlns="http://www.w3.org/2000/svg">
<defs >
<font id="MavenPro" horiz-adv-x="550" ><font-face
    font-family="Maven Pro"
    units-per-em="1000"
    panose-1="0 0 5 0 0 0 0 0 0 0"
    ascent="965"
    descent="-210"
    alphabetic="0" />
<glyph unicode=" " glyph-name="space" horiz-adv-x="290" />
<glyph unicode="!" glyph-name="exclam" horiz-adv-x="372" d="M152 667H224L217 168H159L152 667ZM148 80H228V0H148V80Z" />
<glyph unicode="&quot;" glyph-name="quotedbl" horiz-adv-x="381" d="M81 676H164L147 475H99L81 676ZM215 676H298L280 475H232L215 676Z" />
<glyph unicode="#" glyph-name="numbersign" horiz-adv-x="591" d="M153 126H71V186H163L190 345H99V405H201L221 523H282L262 405H394L415 523H476L455 405H527V345H445L417 186H498V126H407L389 19H328L346 126H214L195 19H134L153 126ZM356 186L384 345H251L224
186H356Z" />
<glyph unicode="$" glyph-name="dollar" horiz-adv-x="555" d="M495 110T454 58T323 -7V-93H251V-10Q193 -7 156 5T65 47V125Q101 95 155 76T277 56Q350 56 386 87T422 171Q422 210 401 235T351 275T264 312Q202 333 166 352T103 408T77 506Q77 543 94 580T151
643T251 676V753H323V675Q357 672 383 663T456 630V556Q449 560 419 577T356 603T285 611Q216 611 183 583T150 511Q150 472 167 448T214 409T298 376Q360 355 399 335T467 276T495 179Q495 110 454 58Z" />
<glyph unicode="%" glyph-name="percent" horiz-adv-x="761" d="M48 309T48 493Q48 677 190 677Q260 677 295 631T331 493Q331 402 296 356T190 309Q48 309 48 493ZM219 359T244 387T270 493Q270 570 245 598T190 627Q161 627 135 599T109 493Q109 416 135 388T190
359Q219 359 244 387ZM430 -5T430 179Q430 363 572 363Q642 363 677 317T713 179Q713 88 678 42T572 -5Q430 -5 430 179ZM601 45T626 73T652 179Q652 256 627 284T572 313Q543 313 517 285T491 179Q491 102 517 74T572 45Q601 45 626 73ZM546 685H614L207 -22H139L546
685Z" />
<glyph unicode="&amp;" glyph-name="ampersand" horiz-adv-x="640" d="M512 0L451 73Q413 38 364 15T263 -8Q192 -8 145 23T76 98T54 184Q54 237 85 289T189 385Q123 467 123 523Q123 564 143 598T198 653T274 674Q316 674 351 655T406 601T426 527Q426 476 395
441T298 367L450 186Q471 224 489 290H554Q547 254 532 213T494 133L606 0H512ZM242 602T218 579T193 522Q193 505 214 472T261 410Q320 442 339 469T359 526Q359 559 335 580T276 602Q242 602 218 579ZM306 62T342 80T407 125L232 334Q170 297 148 259T125 186Q125
163 137 135T181 84T266 62Q306 62 342 80Z" />
<glyph unicode="&apos;" glyph-name="quotesingle" horiz-adv-x="249" d="M81 676H164L147 475H99L81 676Z" />
<glyph unicode="(" glyph-name="parenleft" horiz-adv-x="345" d="M162 -37T128 70T93 305Q93 432 127 540T204 724H280Q243 662 204 552T165 305Q165 169 204 58T280 -113H204Q162 -37 128 70Z" />
<glyph unicode=")" glyph-name="parenright" horiz-adv-x="345" d="M103 -50T142 60T181 306Q181 441 142 552T65 724H142Q184 648 218 541T253 306Q253 179 219 71T142 -113H65Q103 -50 142 60Z" />
<glyph unicode="*" glyph-name="asterisk" horiz-adv-x="411" d="M187 550L111 495L84 543L171 581L84 620L111 666L187 612L177 703H231L223 612L298 666L325 620L239 581L325 543L298 495L223 550L231 460H177L187 550Z" />
<glyph unicode="+" glyph-name="plus" horiz-adv-x="551" d="M245 269H97V329H245V477H305V329H452V269H305V122H245V269Z" />
<glyph unicode="," glyph-name="comma" horiz-adv-x="313" d="M148 84H230L146 -112H74L148 84Z" />
<glyph unicode="-" glyph-name="hyphen" horiz-adv-x="464" d="M79 333H384V263H79V333Z" />
<glyph unicode="." glyph-name="period" horiz-adv-x="260" d="M80 100H180V0H80V100Z" />
<glyph unicode="/" glyph-name="slash" horiz-adv-x="404" d="M353 756H419L51 -98H-14L353 756Z" />
<glyph unicode="0" glyph-name="zero" horiz-adv-x="646" d="M192 -11T126 75T60 331Q60 501 126 587T323 673Q586 673 586 331Q586 -11 323 -11Q192 -11 126 75ZM377 55T418 75T486 156T514 331Q514 445 487 506T418 587T323 607Q270 607 229 587T160 506T132
331Q132 217 159 156T228 75T323 55Q377 55 418 75Z" />
<glyph unicode="1" glyph-name="one" horiz-adv-x="451" d="M236 592L103 504V589L226 667H308V0H236V592Z" />
<glyph unicode="2" glyph-name="two" horiz-adv-x="581" d="M498 72V0H77V63Q149 116 226 187T359 340T416 488Q416 537 382 570T259 604Q166 604 84 546V625Q168 676 265 676Q343 676 393 649T465 580T488 488Q488 395 398 284T188 72H498Z" />
<glyph unicode="3" glyph-name="three" horiz-adv-x="583" d="M163 -8T81 34V108Q159 64 250 64Q339 64 386 97T433 192Q433 254 385 287T246 320H173V389H249Q322 389 360 416T399 496Q399 548 359 576T241 604Q167 604 97 569V642Q169 676 249 676Q327 676 376
651T448 584T471 496Q471 452 452 422T409 375T385 361Q385 364 418 343T478 283T505 190Q505 138 480 94T400 21T259 -8Q163 -8 81 34Z" />
<glyph unicode="4" glyph-name="four" horiz-adv-x="591" d="M362 200H38V277L353 667H434V267H529V200H434V0H362V200ZM362 267V564L118 267H362Z" />
<glyph unicode="5" glyph-name="five" horiz-adv-x="566" d="M383 416T444 370T506 204Q506 85 445 39T294 -8Q179 -8 103 33V108Q131 90 177 76T289 62Q352 62 384 83T426 134T435 204Q435 288 396 316T289 344Q242 344 207 337T152 322T132 313L87 359L121 667H464V596H183L166
399Q226 416 294 416Q383 416 444 370Z" />
<glyph unicode="6" glyph-name="six" horiz-adv-x="583" d="M397 427T458 371T519 217Q519 161 496 110T422 25T292 -8Q65 -8 65 305Q65 458 117 540T237 649T369 676Q422 676 466 663V596Q416 608 377 608Q339 608 289 590T195 522T140 382Q218 427 292 427Q397
427 458 371ZM385 60T416 112T447 218Q447 286 407 323T292 360Q243 360 204 343T137 304Q139 205 159 152T211 79T292 60Q385 60 416 112Z" />
<glyph unicode="7" glyph-name="seven" horiz-adv-x="574" d="M525 667V600L236 0H156L444 595H70V667H525Z" />
<glyph unicode="8" glyph-name="eight" horiz-adv-x="582" d="M212 -8T160 22T85 99T61 198Q61 253 86 289T144 344T176 360Q176 357 151 375T106 424T86 503Q86 548 107 587T174 651T292 676Q364 676 410 652T477 588T498 503Q498 455 479 424T435 375T411 361Q411
364 442 345T498 289T523 198Q523 146 500 99T425 22T292 -8Q212 -8 160 22ZM355 388T390 418T426 503Q426 561 388 583T292 605Q235 605 197 583T158 503Q158 449 193 419T292 388Q355 388 390 418ZM387 60T419 105T451 198Q451 258 410 290T292 322Q215 322 174
290T133 198Q133 152 165 106T292 60Q387 60 419 105Z" />
<glyph unicode="9" glyph-name="nine" horiz-adv-x="587" d="M519 676T519 363Q519 210 467 128T347 19T215 -8Q162 -8 118 5V72Q168 60 207 60Q245 60 295 78T389 146T444 286Q367 241 292 241Q187 241 126 297T65 451Q65 507 88 558T162 643T292 676Q519 676
519 363ZM137 382T177 345T292 308Q341 308 380 325T447 364Q445 463 425 516T373 589T292 608Q199 608 168 556T137 450Q137 382 177 345Z" />
<glyph unicode=":" glyph-name="colon" horiz-adv-x="391" d="M158 448H238V368H158V448ZM158 128H238V48H158V128Z" />
<glyph unicode=";" glyph-name="semicolon" horiz-adv-x="285" d="M105 448H205V348H105V448ZM104 84H196L112 -112H40L104 84Z" />
<glyph unicode="&lt;" glyph-name="less" horiz-adv-x="660" d="M120 235V303L532 490V410L204 269L532 127V48L120 235Z" />
<glyph unicode="=" glyph-name="equal" horiz-adv-x="638" d="M127 410H512V341H127V410ZM127 256H512V186H127V256Z" />
<glyph unicode="&gt;" glyph-name="greater" horiz-adv-x="649" d="M132 127L459 269L132 410V490L543 303V235L132 48V127Z" />
<glyph unicode="?" glyph-name="question" horiz-adv-x="485" d="M195 217Q195 266 208 299T239 353T286 398Q317 423 331 441T345 490Q345 545 312 574T214 603Q171 603 137 590T80 559V637Q80 638 100 648T151 666T219 675Q291 675 354 636T417 490Q417 442
399 415T344 356Q318 333 303 317T278 275T267 212V168H195V217ZM191 80H271V0H191V80Z" />
<glyph unicode="@" glyph-name="at" horiz-adv-x="913" d="M335 -149T260 -115T134 -6T83 181Q83 300 146 396T309 547T511 602Q583 602 659 568T788 461T841 278Q841 208 821 152T764 64T678 32Q611 32 585 81Q538 32 441 32Q371 32 331 62T291 146Q291 202 337
246T508 291Q544 291 582 286Q583 293 583 307Q583 344 565 365T486 386Q416 386 361 365L369 423Q429 443 486 443Q562 443 601 409T641 307Q641 267 631 203Q630 191 627 168T624 130Q624 99 637 83T682 67Q709 67 737 90T784 161T803 275Q803 368 759 433T648
531T511 564Q412 564 323 513T178 374T122 181Q122 61 177 -4T299 -91T417 -113Q541 -113 627 -64L618 -109Q534 -149 409 -149Q335 -149 260 -115ZM520 90T543 120T569 185T574 229Q547 233 508 233Q349 233 349 146Q349 90 441 90Q520 90 543 120Z" />
<glyph unicode="A" glyph-name="A" horiz-adv-x="643" d="M466 208H178L98 0H20L286 667H358L623 0H546L466 208ZM439 277L322 582L205 277H439Z" />
<glyph unicode="B" glyph-name="B" horiz-adv-x="628" d="M502 336T535 296T568 189Q568 92 505 46T326 0H85V667H306Q528 667 528 488Q528 440 512 416T478 376T455 357Q502 336 535 296ZM157 378H322Q383 378 419 399T456 483Q456 548 421 573T313 598H157V378ZM408
67T452 93T496 193Q496 265 451 287T329 310H157V67H332Q408 67 452 93Z" />
<glyph unicode="C" glyph-name="C" horiz-adv-x="622" d="M210 -8T133 78T55 334Q55 504 132 590T364 676Q466 676 567 627V558Q473 608 372 608Q246 608 188 542T130 334Q130 191 187 126T372 60Q478 60 567 109V40Q465 -8 364 -8Q210 -8 133 78Z" />
<glyph unicode="D" glyph-name="D" horiz-adv-x="667" d="M85 667H294Q450 667 528 584T607 334Q607 0 294 0H85V667ZM289 68Q416 68 474 132T533 334Q533 472 475 536T289 600H157V68H289Z" />
<glyph unicode="E" glyph-name="E" horiz-adv-x="581" d="M85 667H506V599H157V369H464V299H157V68H506V0H85V667Z" />
<glyph unicode="F" glyph-name="F" horiz-adv-x="539" d="M85 667H494V599H157V369H453V299H157V0H85V667Z" />
<glyph unicode="G" glyph-name="G" horiz-adv-x="687" d="M215 -10T138 77T60 334Q60 504 137 590T369 676Q483 676 579 631V556Q524 580 475 594T377 608Q250 608 191 542T132 334Q132 192 191 126T377 59Q457 59 530 83V273H369V343H602V42Q494 -10 369 -10Q215
-10 138 77Z" />
<glyph unicode="H" glyph-name="H" horiz-adv-x="669" d="M85 667H157V367H512V667H584V0H512V299H157V0H85V667Z" />
<glyph unicode="I" glyph-name="I" horiz-adv-x="242" d="M85 667H157V0H85V667Z" />
<glyph unicode="J" glyph-name="J" horiz-adv-x="453" d="M105 -8T45 27V102Q102 62 168 62Q236 62 266 95T296 205V667H368V199Q368 83 313 38T177 -8Q105 -8 45 27Z" />
<glyph unicode="K" glyph-name="K" horiz-adv-x="613" d="M229 301L157 222V0H85V667H157V316L473 667H565L279 355L588 0H488L229 301Z" />
<glyph unicode="L" glyph-name="L" horiz-adv-x="523" d="M85 667H157V70H498V0H85V667Z" />
<glyph unicode="M" glyph-name="M" horiz-adv-x="785" d="M700 667V0H628V550L385 209L157 548V0H85V667H163L389 320L622 667H700Z" />
<glyph unicode="N" glyph-name="N" horiz-adv-x="722" d="M637 667V0H556L157 562V0H85V667H167L565 105V667H637Z" />
<glyph unicode="O" glyph-name="O" horiz-adv-x="719" d="M211 -10T136 76T60 333Q60 503 135 589T359 676Q508 676 583 590T659 333Q659 163 584 77T359 -10Q211 -10 136 76ZM477 58T531 124T585 333Q585 475 531 541T359 608Q242 608 188 542T134 333Q134 190
188 124T359 58Q477 58 531 124Z" />
<glyph unicode="P" glyph-name="P" horiz-adv-x="613" d="M157 0H85V667H322Q434 667 493 614T553 461Q553 361 494 308T322 255H157V0ZM313 324Q413 324 447 362T481 461Q481 522 447 560T313 598H157V324H313Z" />
<glyph unicode="Q" glyph-name="Q" horiz-adv-x="719" d="M545 -1T562 -14T599 -28Q613 -28 625 -24T658 -8V-72Q624 -90 591 -90Q550 -90 517 -66T459 2Q414 -10 359 -10Q211 -10 136 76T60 333Q60 503 135 589T359 676Q508 676 583 590T659 333Q659 107 527
29Q545 -1 562 -14ZM134 249T152 193T208 103V153Q234 173 261 186T328 199Q423 199 491 91Q540 121 562 180T585 333Q585 475 531 541T359 608Q242 608 188 542T134 333Q134 249 152 193ZM273 58T359 58Q400 60 425 66Q405 100 381 119T320 138Q289 138 266 127T220
94Q273 58 359 58Z" />
<glyph unicode="R" glyph-name="R" horiz-adv-x="631" d="M501 0L327 269H157V0H85V667H359Q456 667 506 618T556 473Q556 396 515 343T405 277L586 0H501ZM157 337H326Q408 337 446 370T484 468Q484 532 454 565T351 599H157V337Z" />
<glyph unicode="S" glyph-name="S" horiz-adv-x="555" d="M205 -10T164 3T65 47V125Q101 95 155 76T277 56Q350 56 386 87T422 171Q422 210 401 235T351 275T264 312Q202 333 166 352T103 408T77 506Q77 547 97 586T163 651T281 677Q334 677 367 667T456 630V556Q449
560 419 577T356 603T285 611Q216 611 183 583T150 511Q150 472 167 448T214 409T298 376Q360 355 399 335T467 276T495 179Q495 100 443 45T274 -10Q205 -10 164 3Z" />
<glyph unicode="T" glyph-name="T" horiz-adv-x="583" d="M256 599H20V667H563V599H328V0H256V599Z" />
<glyph unicode="U" glyph-name="U" horiz-adv-x="692" d="M222 -10T154 63T85 272V667H157V268Q157 58 346 58Q537 58 537 268V667H607V272Q607 136 539 63T346 -10Q222 -10 154 63Z" />
<glyph unicode="V" glyph-name="V" horiz-adv-x="623" d="M603 667L347 0H276L20 667H97L315 95L529 665L603 667Z" />
<glyph unicode="W" glyph-name="W" horiz-adv-x="976" d="M951 667L736 0H663L488 553L313 0H239L25 667H101L281 98L452 667H524L698 98L875 667H951Z" />
<glyph unicode="X" glyph-name="X" horiz-adv-x="589" d="M487 0L293 275L100 0H12L249 338L18 667H104L293 399L481 667H569L337 336L573 0H487Z" />
<glyph unicode="Y" glyph-name="Y" horiz-adv-x="598" d="M333 306V0H261V306L12 667H99L296 375L494 667H581L333 306Z" />
<glyph unicode="Z" glyph-name="Z" horiz-adv-x="609" d="M539 606L153 68H539V0H64V63L454 599H74V667H539V606Z" />
<glyph unicode="[" glyph-name="bracketleft" horiz-adv-x="383" d="M119 696H300V628H191V-48H300V-116H119V696Z" />
<glyph unicode="\" glyph-name="backslash" horiz-adv-x="368" d="M-37 756H29L396 -98H331L-37 756Z" />
<glyph unicode="]" glyph-name="bracketright" horiz-adv-x="381" d="M84 -48H192V628H84V696H264V-116H84V-48Z" />
<glyph unicode="^" glyph-name="asciicircum" horiz-adv-x="560" d="M238 690H293L397 473H337L266 632L194 473H134L238 690Z" />
<glyph unicode="_" glyph-name="underscore" horiz-adv-x="546" d="M0 -24H546V-68H0V-24Z" />
<glyph unicode="`" glyph-name="grave" horiz-adv-x="219" d="M46 679H119L176 564H129L46 679Z" />
<glyph unicode="a" glyph-name="a" horiz-adv-x="554" d="M377 508T425 467T474 348V106Q474 34 415 10T252 -15Q173 -15 117 20T60 137Q60 226 109 266T244 307Q341 307 401 272V331Q401 443 270 443Q227 443 183 431T109 395V467Q139 486 190 497T293 508Q377
508 425 467ZM339 49T370 59T401 102V214Q374 227 338 234T263 242Q200 242 166 218T132 148Q132 96 172 73T269 49Q339 49 370 59Z" />
<glyph unicode="b" glyph-name="b" horiz-adv-x="569" d="M399 507T456 441T514 256Q513 104 444 45T280 -15Q80 -15 80 85V710H152V478Q183 490 221 498T286 507Q399 507 456 441ZM367 51T402 106T438 256Q438 342 401 391T286 441Q253 441 218 432T152 406V102Q152
73 187 62T270 51Q367 51 402 106Z" />
<glyph unicode="c" glyph-name="c" horiz-adv-x="492" d="M190 -8T123 48T55 250Q55 394 122 451T289 508Q364 508 437 480V411Q369 439 297 439Q208 439 168 394T127 250Q127 150 167 106T297 61Q372 61 437 89V19Q367 -8 289 -8Q190 -8 123 48Z" />
<glyph unicode="d" glyph-name="d" horiz-adv-x="569" d="M489 710V86Q489 35 425 10T284 -15Q192 -15 124 44T55 256Q55 374 112 440T283 507Q309 507 347 499T417 478V710H489ZM417 406Q387 423 352 432T283 441Q205 441 168 392T131 256Q131 162 165 107T288
51Q341 51 379 63T417 93V406Z" />
<glyph unicode="e" glyph-name="e" horiz-adv-x="547" d="M388 508T441 434T492 237H128Q128 147 170 99T290 51Q390 51 461 94V20Q388 -15 286 -15Q177 -15 116 52T55 250Q55 377 112 442T274 508Q388 508 441 434ZM208 442T174 412T131 303H416Q411 373 377
407T274 442Q208 442 174 412Z" />
<glyph unicode="f" glyph-name="f" horiz-adv-x="375" d="M126 433H40V499H126V526Q126 609 155 649T217 699T287 709Q314 709 335 703V639Q315 643 299 643Q267 643 247 637T213 606T198 527V499H335V433H198V0H126V433Z" />
<glyph unicode="g" glyph-name="g" horiz-adv-x="569" d="M378 507T433 477T489 383V-21Q489 -95 441 -146T272 -198Q238 -198 209 -193T158 -182T130 -175V-107Q169 -118 198 -124T264 -130Q355 -130 386 -100T417 -23V14Q386 2 348 -6T283 -15Q170 -15 113 51T55
236Q56 389 126 448T298 507Q378 507 433 477ZM131 150T168 101T283 51Q316 51 351 60T417 86V373Q417 412 387 426T304 441Q204 441 168 386T131 236Q131 150 168 101Z" />
<glyph unicode="h" glyph-name="h" horiz-adv-x="575" d="M397 508T446 456T495 296V0H423V296Q423 366 391 404T295 442Q225 442 152 402V0H80V720H152V466Q189 486 228 497T303 508Q397 508 446 456Z" />
<glyph unicode="i" glyph-name="i" horiz-adv-x="240" d="M80 667H160V588H80V667ZM84 499H156V0H84V499Z" />
<glyph unicode="j" glyph-name="j" horiz-adv-x="268" d="M108 667H188V588H108V667ZM10 -126Q52 -125 74 -114T104 -81T112 -25V499H184V-29Q184 -112 141 -152T10 -193V-126Z" />
<glyph unicode="k" glyph-name="k" horiz-adv-x="511" d="M385 0L152 236V0H80V689H152V314L355 499H445L200 283L481 0H385Z" />
<glyph unicode="l" glyph-name="l" horiz-adv-x="232" d="M80 0V689H152V0H80Z" />
<glyph unicode="m" glyph-name="m" horiz-adv-x="883" d="M710 508T756 462T803 325V0H731V325Q731 443 597 443Q533 443 476 409Q489 374 489 325V0H417V325Q417 443 283 443Q221 443 152 423V0H80V459Q177 508 291 508Q388 508 437 467Q512 508 605 508Q710
508 756 462Z" />
<glyph unicode="n" glyph-name="n" horiz-adv-x="569" d="M177 508T291 508Q396 508 442 462T489 325V0H417V325Q417 443 283 443Q221 443 152 423V0H80V459Q177 508 291 508Z" />
<glyph unicode="o" glyph-name="o" horiz-adv-x="569" d="M170 -15T113 53T55 248Q55 377 113 442T283 508Q400 508 457 439T514 248Q514 124 454 55T285 -15Q170 -15 113 53ZM442 51T442 248Q442 342 405 392T284 442Q127 442 127 248Q127 51 284 51Q442 51 442 248Z" />
<glyph unicode="p" glyph-name="p" horiz-adv-x="569" d="M382 508T448 444T514 237Q514 120 452 53T276 -14Q250 -14 216 -6T152 15V-217H80V409Q80 464 140 485T282 508Q382 508 448 444ZM355 52T396 102T438 237Q438 331 404 386T281 442Q227 442 190 430T152
396V87Q212 52 276 52Q355 52 396 102Z" />
<glyph unicode="q" glyph-name="q" horiz-adv-x="569" d="M386 508T437 481T489 389V-217H417V15Q387 2 353 -6T293 -14Q179 -14 117 53T55 237Q56 390 127 449T305 508Q386 508 437 481ZM131 152T172 102T293 52Q357 52 417 87V389Q417 415 381 428T302 442Q203
442 167 387T131 237Q131 152 172 102Z" />
<glyph unicode="r" glyph-name="r" horiz-adv-x="377" d="M80 459Q118 475 180 491T310 508Q320 508 342 502V438Q318 441 294 441Q261 441 233 437T152 424V0H80V459Z" />
<glyph unicode="s" glyph-name="s" horiz-adv-x="456" d="M170 -15T134 -5T55 27V103Q106 74 138 63T216 51Q266 51 297 73T329 130Q329 161 310 176T250 208L224 219Q167 235 136 248T81 289T57 365Q57 413 82 445T147 492T231 508Q271 508 298 499T374 469V397Q324
422 298 432T235 442Q191 442 160 425T129 375Q129 349 144 333T183 307T247 286Q297 270 326 257T378 216T401 139Q401 88 375 54T308 2T221 -15Q170 -15 134 -5Z" />
<glyph unicode="t" glyph-name="t" horiz-adv-x="363" d="M182 -8T147 25T112 121V433H25V499H112V640H184V499H313V433H184V144Q184 100 198 80T250 60Q287 60 313 72V4Q299 -1 278 -4T237 -8Q182 -8 147 25Z" />
<glyph unicode="u" glyph-name="u" horiz-adv-x="578" d="M189 -15T135 36T80 183V499H152V199Q152 123 185 88T289 52Q359 52 392 87T426 199V499H498V183Q498 88 444 37T289 -15Q189 -15 135 36Z" />
<glyph unicode="v" glyph-name="v" horiz-adv-x="566" d="M531 499L319 0H246L35 499H112L289 79L459 499H531Z" />
<glyph unicode="w" glyph-name="w" horiz-adv-x="796" d="M761 499L595 0H522L397 414L274 0H201L35 499H111L241 82L363 499H432L558 81L690 499H761Z" />
<glyph unicode="x" glyph-name="x" horiz-adv-x="532" d="M405 0L263 195L116 0H35L221 251L40 499H131L270 310L412 499H495L312 252L497 0H405Z" />
<glyph unicode="y" glyph-name="y" horiz-adv-x="540" d="M505 499L291 -49Q260 -129 219 -161T134 -193Q110 -193 87 -184V-118Q107 -127 130 -127Q173 -127 197 -96T242 -2L35 499H117L275 92L433 499H505Z" />
<glyph unicode="z" glyph-name="z" horiz-adv-x="455" d="M410 436L128 64H410V0H45V65L324 437H52V499H410V436Z" />
<glyph unicode="{" glyph-name="braceleft" horiz-adv-x="373" d="M231 -110T193 -72T154 40V196Q154 250 91 269V318Q117 325 135 342T154 390V546Q154 619 192 658T304 697H312V629H304Q264 627 245 611T226 551V390Q226 332 168 293Q226 254 226 196V35Q226
-8 245 -24T304 -43H312V-110H304Q231 -110 193 -72Z" />
<glyph unicode="|" glyph-name="bar" horiz-adv-x="443" d="M185 665H257V-99H185V665Z" />
<glyph unicode="}" glyph-name="braceright" horiz-adv-x="368" d="M70 -43H76Q116 -41 135 -25T154 35V196Q154 253 213 293Q154 333 154 390V551Q154 595 136 611T76 629H70V697H76Q149 697 187 658T226 546V390Q226 359 244 342T289 318V269Q226 250 226 196V40Q226
-33 188 -71T76 -110H70V-43Z" />
<glyph unicode="~" glyph-name="asciitilde" horiz-adv-x="500" d="M98 292Q129 331 167 331Q185 331 204 324T249 302Q279 287 297 280T333 273Q371 273 402 312V252Q371 213 333 213Q315 213 297 220T249 242Q222 256 204 263T168 270Q129 270 98 231V292Z" />
<glyph unicode="&#xa0;" glyph-name="uni00A0" horiz-adv-x="290" />
<glyph unicode="&#xa1;" glyph-name="exclamdown" horiz-adv-x="362" d="M148 499H228V420H148V499ZM159 331H217L224 -168H152L159 331Z" />
<glyph unicode="&#xa2;" glyph-name="cent" horiz-adv-x="492" d="M208 500T168 455T127 311Q127 211 167 167T297 122Q372 122 437 150V80Q383 59 317 54V0H245V56Q162 67 109 125T55 311Q55 438 108 497T245 566V628H317V568Q380 563 437 541V472Q369 500 297
500Q208 500 168 455Z" />
<glyph unicode="&#xa3;" glyph-name="sterling" horiz-adv-x="555" d="M273 607T241 574T209 493V347H410V281H209V78Q224 76 285 64Q316 58 350 53T412 47Q460 47 500 62V-11Q460 -26 412 -26Q387 -26 357 -22T310 -14T286 -9Q242 0 215 4T158 9Q102 9 51 -15V58Q90
77 137 80V281H51V347H137V490Q137 539 158 581T227 649T349 676Q428 676 500 637V564Q432 607 355 607Q273 607 241 574Z" />
<glyph unicode="&#xa4;" glyph-name="currency" horiz-adv-x="494" d="M432 282T398 233L444 186L399 141L352 188Q304 156 249 156Q191 156 144 189L95 141L50 186L98 235Q66 283 66 339Q66 394 98 442L50 490L95 535L143 488Q192 522 249 522Q305 522 353 490L399
535L444 490L399 444Q432 397 432 339Q432 282 398 233ZM138 286T169 253T249 220Q296 220 327 253T359 339Q359 392 328 425T249 458Q201 458 170 425T138 339Q138 286 169 253Z" />
<glyph unicode="&#xa5;" glyph-name="yen" horiz-adv-x="602" d="M267 138H110V198H267V292H110V352H235L18 667H106L303 380L500 667H588L371 352H496V292H339V198H496V138H339V0H267V138Z" />
<glyph unicode="&#xa6;" glyph-name="brokenbar" horiz-adv-x="443" d="M185 665H257V347H185V665ZM257 -99H185V219H257V-99Z" />
<glyph unicode="&#xa7;" glyph-name="section" horiz-adv-x="543" d="M136 -8T64 28V102Q130 61 230 61Q281 61 325 74T369 128Q369 148 361 162T325 190T239 217Q180 231 142 245T81 286T58 355Q58 435 149 464Q109 489 109 534Q109 571 129 603T194 655T309
676Q385 676 454 646V575Q390 609 315 609Q264 609 223 595T181 545Q181 531 187 519T221 493T306 466Q362 453 401 437T466 389T492 307Q492 270 467 244T406 205Q441 176 441 128Q441 64 387 28T235 -8Q136 -8 64 28ZM420 268T420 307Q420 327 412 341T375 369T290
396Q242 407 204 420Q130 406 130 355Q130 343 136 334T170 312T256 287Q322 273 363 251Q420 268 420 307Z" />
<glyph unicode="&#xa8;" glyph-name="dieresis" horiz-adv-x="385" d="M79 643H158V564H79V643ZM227 643H306V564H227V643Z" />
<glyph unicode="&#xa9;" glyph-name="copyright" horiz-adv-x="778" d="M298 -8T219 38T94 162T48 333Q48 426 94 504T218 629T390 675Q483 675 561 629T686 505T732 333Q732 241 686 163T562 38T390 -8Q298 -8 219 38ZM473 27T543 68T655 180T696 333Q696 416
655 486T544 598T390 640Q307 640 237 599T126 487T84 333Q84 250 125 180T237 69T390 27Q473 27 543 68ZM219 134T219 333Q219 533 399 533Q462 533 518 511V471Q465 493 404 493Q330 493 296 455T261 333Q261 250 295 212T404 173Q463 173 518 196V156Q462 134
399 134Q219 134 219 333Z" />
<glyph unicode="&#xaa;" glyph-name="ordfeminine" horiz-adv-x="394" d="M150 389T113 408T76 478Q76 528 106 548T192 569Q218 569 239 565T266 559Q266 636 188 636Q147 636 104 619V658Q147 675 190 675Q306 675 306 560V476Q306 426 270 408T192 389Q150
389 113 408ZM266 426T266 477V523Q260 525 240 529T200 533Q164 533 140 523T116 479Q116 426 192 426Q266 426 266 477Z" />
<glyph unicode="&#xab;" glyph-name="guillemotleft" horiz-adv-x="553" d="M31 255L200 445H297L119 255L297 64H200L31 255ZM221 255L390 445H487L309 255L487 64H390L221 255Z" />
<glyph unicode="&#xac;" glyph-name="logicalnot" horiz-adv-x="622" d="M459 258H97V324H525V158H459V258Z" />
<glyph unicode="&#xad;" glyph-name="uni00AD" horiz-adv-x="600" d="M79 333H384V263H79V333Z" />
<glyph unicode="&#xae;" glyph-name="registered" horiz-adv-x="778" d="M298 -8T219 38T94 162T48 333Q48 426 94 504T218 629T390 675Q483 675 561 629T686 505T732 333Q732 241 686 163T562 38T390 -8Q298 -8 219 38ZM473 27T543 68T655 180T696 333Q696 416
655 486T544 598T390 640Q307 640 237 599T126 487T84 333Q84 250 125 180T237 69T390 27Q473 27 543 68ZM266 528H409Q473 528 507 500T542 415Q542 357 512 333T452 302L559 138H509L408 296H308V138H266V528ZM407 336Q462 336 480 357T499 412Q499 446 481 467T407
488H308V336H407Z" />
<glyph unicode="&#xaf;" glyph-name="overscore" horiz-adv-x="403" d="M86 629H320V576H86V629Z" />
<glyph unicode="&#xb0;" glyph-name="degree" horiz-adv-x="387" d="M137 447T110 475T82 558Q82 612 109 640T191 669Q244 669 272 641T300 558Q300 503 272 475T191 447Q137 447 110 475ZM229 483T246 500T264 558Q264 597 247 615T191 633Q152 633 135 615T118
558Q118 518 135 501T191 483Q229 483 246 500Z" />
<glyph unicode="&#xb1;" glyph-name="plusminus" horiz-adv-x="585" d="M261 292H113V352H261V499H321V352H468V292H321V144H261V292ZM113 93H468V33H113V93Z" />
<glyph unicode="&#xb2;" glyph-name="two.superior" horiz-adv-x="328" d="M279 522V463H53V497Q109 539 157 600T205 714Q205 736 187 750T140 765Q118 765 96 756T57 735V799Q101 826 154 826Q215 826 244 797T274 726Q274 677 239 623T150 522H279Z" />
<glyph unicode="&#xb3;" glyph-name="three.superior" horiz-adv-x="323" d="M99 459T53 481V543Q97 519 144 519Q174 519 194 532T214 575Q214 600 193 612T142 625H103V682H144Q165 682 180 693T195 730Q195 745 180 755T139 765Q98 765 62 746V808Q102 826
144 826Q205 826 234 798T263 730Q263 706 253 690T230 665T217 657Q221 654 239 645T269 615T281 565Q281 521 249 490T149 459Q99 459 53 481Z" />
<glyph unicode="&#xb4;" glyph-name="acute" horiz-adv-x="236" d="M117 679H191L108 564H60L117 679Z" />
<glyph unicode="&#xb5;" glyph-name="uni00B5" horiz-adv-x="609" d="M99 499H171V175Q171 127 197 96T304 64Q370 64 435 83V499H507V41Q476 25 420 9T297 -8Q263 -8 235 1T189 20T171 32V-210H99V499Z" />
<glyph unicode="&#xb6;" glyph-name="paragraph" horiz-adv-x="445" d="M301 256H268Q156 256 97 309T38 462Q38 561 97 614T268 667H367V0H301V256Z" />
<glyph unicode="&#xb7;" glyph-name="middot" horiz-adv-x="311" d="M116 312H195V232H116V312Z" />
<glyph unicode="&#xb8;" glyph-name="cedilla" horiz-adv-x="253" d="M138 -5H195L132 -120H56L138 -5Z" />
<glyph unicode="&#xb9;" glyph-name="one.superior" horiz-adv-x="234" d="M163 822V463H95V731L53 704V780L119 822H163Z" />
<glyph unicode="&#xba;" glyph-name="ordmasculine" horiz-adv-x="417" d="M151 389T114 420T76 532Q76 613 113 644T206 676Q261 676 298 645T336 532Q336 452 299 421T206 389Q151 389 114 420ZM254 426T275 451T296 532Q296 588 275 613T206 639Q159 639 138
614T116 532Q116 476 137 451T206 426Q254 426 275 451Z" />
<glyph unicode="&#xbb;" glyph-name="guillemotright" horiz-adv-x="553" d="M244 255L67 445H163L333 255L163 64H67L244 255ZM434 255L257 445H353L523 255L353 64H257L434 255Z" />
<glyph unicode="&#xbc;" glyph-name="onequarter" horiz-adv-x="739" d="M163 674V315H95V583L53 556V632L119 674H163ZM477 685H545L138 -22H70L477 685ZM689 145V89H638V1H569V89H425V150L595 360H638V145H689ZM569 145V243L488 145H569Z" />
<glyph unicode="&#xbd;" glyph-name="onehalf" horiz-adv-x="685" d="M163 674V315H95V583L53 556V632L119 674H163ZM470 685H538L131 -22H63L470 685ZM635 60V1H409V35Q465 77 513 138T561 252Q561 274 543 288T496 303Q474 303 452 294T413 273V337Q457 364
510 364Q571 364 600 335T630 264Q630 215 595 161T506 60H635Z" />
<glyph unicode="&#xbe;" glyph-name="threequarters" horiz-adv-x="751" d="M99 311T53 333V395Q97 371 144 371Q174 371 194 384T214 427Q214 452 193 464T142 477H103V534H144Q165 534 180 545T195 582Q195 597 180 607T139 617Q98 617 62 598V660Q102 678 144
678Q205 678 234 650T263 582Q263 558 253 542T230 517T217 509Q221 506 239 497T269 467T281 417Q281 373 249 342T149 311Q99 311 53 333ZM550 685H618L211 -22H143L550 685ZM701 145V89H650V1H581V89H437V150L607 360H650V145H701ZM581 145V243L500 145H581Z"
/>
<glyph unicode="&#xbf;" glyph-name="questiondown" horiz-adv-x="483" d="M218 499H298V420H218V499ZM198 -176T135 -136T72 10Q72 57 90 84T145 143Q170 164 185 181T211 224T222 287V332H294V282Q294 233 281 200T250 146T203 101Q173 78 159 59T144 10Q144
-45 177 -74T276 -104Q345 -104 410 -60V-138Q410 -139 390 -149T339 -167T270 -176Q198 -176 135 -136Z" />
<glyph unicode="&#xc0;" glyph-name="Agrave" horiz-adv-x="643" d="M466 208H178L98 0H20L286 667H358L623 0H546L466 208ZM439 277L322 582L205 277H439ZM221 836H295L352 721H304L221 836Z" />
<glyph unicode="&#xc1;" glyph-name="Aacute" horiz-adv-x="643" d="M466 208H178L98 0H20L286 667H358L623 0H546L466 208ZM439 277L322 582L205 277H439ZM362 847H436L353 732H305L362 847Z" />
<glyph unicode="&#xc2;" glyph-name="Acircumflex" horiz-adv-x="643" d="M466 208H178L98 0H20L286 667H358L623 0H546L466 208ZM439 277L322 582L205 277H439ZM293 839H354L434 719H388L323 789L258 719H212L293 839Z" />
<glyph unicode="&#xc3;" glyph-name="Atilde" horiz-adv-x="643" d="M466 208H178L98 0H20L286 667H358L623 0H546L466 208ZM439 277L322 582L205 277H439ZM187 727Q183 742 183 757Q183 794 206 816T260 839Q284 839 302 830T346 802Q362 789 373 783T396 776Q408
776 415 784T422 807Q422 812 420 824H472Q474 810 474 803Q474 766 451 743T388 720Q366 720 347 730T306 757Q290 770 280 776T259 782Q247 782 239 773T231 745Q231 741 233 727H187Z" />
<glyph unicode="&#xc4;" glyph-name="Adieresis" horiz-adv-x="643" d="M466 208H178L98 0H20L286 667H358L623 0H546L466 208ZM439 277L322 582L205 277H439ZM209 805H288V726H209V805ZM357 805H436V726H357V805Z" />
<glyph unicode="&#xc5;" glyph-name="Aring" horiz-adv-x="643" d="M466 208H178L98 0H20L277 645Q248 653 235 674T222 732Q222 780 245 802T323 824Q376 824 400 802T424 732Q424 695 411 674T367 645L623 0H546L466 208ZM291 780T280 770T268 732Q268 705 279
694T323 683Q354 683 365 694T377 732Q377 759 366 769T323 780Q291 780 280 770ZM439 277L322 582L205 277H439Z" />
<glyph unicode="&#xc6;" glyph-name="AE" horiz-adv-x="957" d="M545 598V368H841V298H545V69H882V0H473V209H245L103 0H20L476 667H882V598H545ZM473 281V546L293 281H473Z" />
<glyph unicode="&#xc7;" glyph-name="Ccedilla" horiz-adv-x="622" d="M246 608T188 542T130 334Q130 191 187 126T372 60Q478 60 567 109V40Q470 -5 376 -8L320 -110H244L318 -6Q187 6 121 91T55 334Q55 504 132 590T364 676Q466 676 567 627V558Q473 608 372
608Q246 608 188 542Z" />
<glyph unicode="&#xc8;" glyph-name="Egrave" horiz-adv-x="581" d="M85 667H506V599H157V369H464V299H157V68H506V0H85V667ZM205 836H279L336 721H288L205 836Z" />
<glyph unicode="&#xc9;" glyph-name="Eacute" horiz-adv-x="581" d="M85 667H506V599H157V369H464V299H157V68H506V0H85V667ZM346 847H420L337 732H289L346 847Z" />
<glyph unicode="&#xca;" glyph-name="Ecircumflex" horiz-adv-x="581" d="M85 667H506V599H157V369H464V299H157V68H506V0H85V667ZM277 839H338L418 719H372L307 789L242 719H196L277 839Z" />
<glyph unicode="&#xcb;" glyph-name="Edieresis" horiz-adv-x="581" d="M85 667H506V599H157V369H464V299H157V68H506V0H85V667ZM193 805H272V726H193V805ZM341 805H420V726H341V805Z" />
<glyph unicode="&#xcc;" glyph-name="Igrave" horiz-adv-x="242" d="M85 667H157V0H85V667ZM19 836H93L150 721H102L19 836Z" />
<glyph unicode="&#xcd;" glyph-name="Iacute" horiz-adv-x="242" d="M85 667H157V0H85V667ZM160 847H234L151 732H103L160 847Z" />
<glyph unicode="&#xce;" glyph-name="Icircumflex" horiz-adv-x="242" d="M85 667H157V0H85V667ZM91 839H152L232 719H186L121 789L56 719H10L91 839Z" />
<glyph unicode="&#xcf;" glyph-name="Idieresis" horiz-adv-x="242" d="M85 667H157V0H85V667ZM7 805H86V726H7V805ZM155 805H234V726H155V805Z" />
<glyph unicode="&#xd0;" glyph-name="Eth" horiz-adv-x="667" d="M450 667T528 584T607 334Q607 0 294 0H85V307H7V360H85V667H294Q450 667 528 584ZM416 68T474 132T533 334Q533 472 475 536T289 600H157V360H251V307H157V68H289Q416 68 474 132Z" />
<glyph unicode="&#xd1;" glyph-name="Ntilde" horiz-adv-x="722" d="M637 667V0H556L157 562V0H85V667H167L565 105V667H637ZM226 727Q222 742 222 757Q222 794 245 816T299 839Q323 839 341 830T385 802Q401 789 412 783T435 776Q447 776 454 784T461 807Q461
812 459 824H511Q513 810 513 803Q513 766 490 743T427 720Q405 720 386 730T345 757Q329 770 319 776T298 782Q286 782 278 773T270 745Q270 741 272 727H226Z" />
<glyph unicode="&#xd2;" glyph-name="Ograve" horiz-adv-x="719" d="M211 -10T136 76T60 333Q60 503 135 589T359 676Q508 676 583 590T659 333Q659 163 584 77T359 -10Q211 -10 136 76ZM477 58T531 124T585 333Q585 475 531 541T359 608Q242 608 188 542T134
333Q134 190 188 124T359 58Q477 58 531 124ZM265 836H339L396 721H348L265 836Z" />
<glyph unicode="&#xd3;" glyph-name="Oacute" horiz-adv-x="719" d="M211 -10T136 76T60 333Q60 503 135 589T359 676Q508 676 583 590T659 333Q659 163 584 77T359 -10Q211 -10 136 76ZM477 58T531 124T585 333Q585 475 531 541T359 608Q242 608 188 542T134
333Q134 190 188 124T359 58Q477 58 531 124ZM406 847H480L397 732H349L406 847Z" />
<glyph unicode="&#xd4;" glyph-name="Ocircumflex" horiz-adv-x="719" d="M211 -10T136 76T60 333Q60 503 135 589T359 676Q508 676 583 590T659 333Q659 163 584 77T359 -10Q211 -10 136 76ZM477 58T531 124T585 333Q585 475 531 541T359 608Q242 608 188 542T134
333Q134 190 188 124T359 58Q477 58 531 124ZM337 839H398L478 719H432L367 789L302 719H256L337 839Z" />
<glyph unicode="&#xd5;" glyph-name="Otilde" horiz-adv-x="719" d="M211 -10T136 76T60 333Q60 503 135 589T359 676Q508 676 583 590T659 333Q659 163 584 77T359 -10Q211 -10 136 76ZM477 58T531 124T585 333Q585 475 531 541T359 608Q242 608 188 542T134
333Q134 190 188 124T359 58Q477 58 531 124ZM231 727Q227 742 227 757Q227 794 250 816T304 839Q328 839 346 830T390 802Q406 789 417 783T440 776Q452 776 459 784T466 807Q466 812 464 824H516Q518 810 518 803Q518 766 495 743T432 720Q410 720 391 730T350
757Q334 770 324 776T303 782Q291 782 283 773T275 745Q275 741 277 727H231Z" />
<glyph unicode="&#xd6;" glyph-name="Odieresis" horiz-adv-x="719" d="M211 -10T136 76T60 333Q60 503 135 589T359 676Q508 676 583 590T659 333Q659 163 584 77T359 -10Q211 -10 136 76ZM477 58T531 124T585 333Q585 475 531 541T359 608Q242 608 188 542T134
333Q134 190 188 124T359 58Q477 58 531 124ZM253 805H332V726H253V805ZM401 805H480V726H401V805Z" />
<glyph unicode="&#xd7;" glyph-name="multiply" horiz-adv-x="481" d="M210 256L77 434H141L242 299L344 434H408L275 256L408 78H344L242 213L141 78H77L210 256Z" />
<glyph unicode="&#xd8;" glyph-name="Oslash" horiz-adv-x="719" d="M601 567Q659 484 659 333Q659 163 584 77T359 -10Q237 -10 163 49L122 0H57L128 85Q60 171 60 333Q60 503 135 589T359 676Q494 676 568 606L619 667H685L601 567ZM134 206T176 141L522 552Q467
608 359 608Q242 608 188 542T134 333Q134 206 176 141ZM585 445T552 509L209 103Q261 58 359 58Q477 58 531 124T585 333Q585 445 552 509Z" />
<glyph unicode="&#xd9;" glyph-name="Ugrave" horiz-adv-x="692" d="M222 -10T154 63T85 272V667H157V268Q157 58 346 58Q537 58 537 268V667H607V272Q607 136 539 63T346 -10Q222 -10 154 63ZM244 836H318L375 721H327L244 836Z" />
<glyph unicode="&#xda;" glyph-name="Uacute" horiz-adv-x="692" d="M222 -10T154 63T85 272V667H157V268Q157 58 346 58Q537 58 537 268V667H607V272Q607 136 539 63T346 -10Q222 -10 154 63ZM385 847H459L376 732H328L385 847Z" />
<glyph unicode="&#xdb;" glyph-name="Ucircumflex" horiz-adv-x="692" d="M222 -10T154 63T85 272V667H157V268Q157 58 346 58Q537 58 537 268V667H607V272Q607 136 539 63T346 -10Q222 -10 154 63ZM316 839H377L457 719H411L346 789L281 719H235L316 839Z" />
<glyph unicode="&#xdc;" glyph-name="Udieresis" horiz-adv-x="692" d="M222 -10T154 63T85 272V667H157V268Q157 58 346 58Q537 58 537 268V667H607V272Q607 136 539 63T346 -10Q222 -10 154 63ZM232 805H311V726H232V805ZM380 805H459V726H380V805Z" />
<glyph unicode="&#xdd;" glyph-name="Yacute" horiz-adv-x="598" d="M333 306V0H261V306L12 667H99L296 375L494 667H581L333 306ZM344 847H418L335 732H287L344 847Z" />
<glyph unicode="&#xde;" glyph-name="Thorn" horiz-adv-x="570" d="M86 667H158V566H288Q399 566 458 513T518 359Q518 259 459 206T288 153H158V0H86V667ZM278 222Q378 222 412 260T446 359Q446 420 412 458T278 496H158V222H278Z" />
<glyph unicode="&#xdf;" glyph-name="germandbls" horiz-adv-x="585" d="M80 423Q80 536 130 606T286 676Q379 676 438 635T497 519Q497 461 470 422T404 370Q432 361 461 335T510 267T530 173Q530 122 508 80T442 12T333 -13Q299 -13 249 0V71Q297 53 336 53Q394
53 425 85T456 177Q456 222 433 256T372 309T295 328V391Q360 391 391 423T423 510Q423 562 385 587T288 612Q152 612 152 430V0H80V423Z" />
<glyph unicode="&#xe0;" glyph-name="agrave" horiz-adv-x="554" d="M377 508T425 467T474 348V106Q474 34 415 10T252 -15Q173 -15 117 20T60 137Q60 226 109 266T244 307Q341 307 401 272V331Q401 443 270 443Q227 443 183 431T109 395V467Q139 486 190 497T293
508Q377 508 425 467ZM339 49T370 59T401 102V214Q374 227 338 234T263 242Q200 242 166 218T132 148Q132 96 172 73T269 49Q339 49 370 59ZM186 679H259L316 564H269L186 679Z" />
<glyph unicode="&#xe1;" glyph-name="aacute" horiz-adv-x="554" d="M377 508T425 467T474 348V106Q474 34 415 10T252 -15Q173 -15 117 20T60 137Q60 226 109 266T244 307Q341 307 401 272V331Q401 443 270 443Q227 443 183 431T109 395V467Q139 486 190 497T293
508Q377 508 425 467ZM339 49T370 59T401 102V214Q374 227 338 234T263 242Q200 242 166 218T132 148Q132 96 172 73T269 49Q339 49 370 59ZM322 679H396L313 564H265L322 679Z" />
<glyph unicode="&#xe2;" glyph-name="acircumflex" horiz-adv-x="554" d="M377 508T425 467T474 348V106Q474 34 415 10T252 -15Q173 -15 117 20T60 137Q60 226 109 266T244 307Q341 307 401 272V331Q401 443 270 443Q227 443 183 431T109 395V467Q139 486 190
497T293 508Q377 508 425 467ZM339 49T370 59T401 102V214Q374 227 338 234T263 242Q200 242 166 218T132 148Q132 96 172 73T269 49Q339 49 370 59ZM261 684H322L402 564H356L291 634L226 564H180L261 684Z" />
<glyph unicode="&#xe3;" glyph-name="atilde" horiz-adv-x="554" d="M377 508T425 467T474 348V106Q474 34 415 10T252 -15Q173 -15 117 20T60 137Q60 226 109 266T244 307Q341 307 401 272V331Q401 443 270 443Q227 443 183 431T109 395V467Q139 486 190 497T293
508Q377 508 425 467ZM339 49T370 59T401 102V214Q374 227 338 234T263 242Q200 242 166 218T132 148Q132 96 172 73T269 49Q339 49 370 59ZM150 544Q146 559 146 574Q146 611 169 633T223 656Q247 656 265 647T309 619Q325 606 336 600T359 593Q371 593 378 601T385
624Q385 629 383 641H435Q437 627 437 620Q437 583 414 560T351 537Q329 537 310 547T269 574Q253 587 243 593T222 599Q210 599 202 590T194 562Q194 558 196 544H150Z" />
<glyph unicode="&#xe4;" glyph-name="adieresis" horiz-adv-x="554" d="M377 508T425 467T474 348V106Q474 34 415 10T252 -15Q173 -15 117 20T60 137Q60 226 109 266T244 307Q341 307 401 272V331Q401 443 270 443Q227 443 183 431T109 395V467Q139 486 190 497T293
508Q377 508 425 467ZM339 49T370 59T401 102V214Q374 227 338 234T263 242Q200 242 166 218T132 148Q132 96 172 73T269 49Q339 49 370 59ZM177 643H256V564H177V643ZM325 643H404V564H325V643Z" />
<glyph unicode="&#xe5;" glyph-name="aring" horiz-adv-x="554" d="M377 508T425 467T474 348V106Q474 34 415 10T252 -15Q173 -15 117 20T60 137Q60 226 109 266T244 307Q341 307 401 272V331Q401 443 270 443Q227 443 183 431T109 395V467Q139 486 190 497T293
508Q377 508 425 467ZM339 49T370 59T401 102V214Q374 227 338 234T263 242Q200 242 166 218T132 148Q132 96 172 73T269 49Q339 49 370 59ZM237 535T214 557T190 627Q190 675 213 697T291 719Q344 719 368 697T392 627Q392 579 368 557T291 535Q237 535 214 557ZM322
578T333 589T345 627Q345 654 334 664T291 675Q259 675 248 665T236 627Q236 600 247 589T291 578Q322 578 333 589Z" />
<glyph unicode="&#xe6;" glyph-name="ae" horiz-adv-x="893" d="M734 508T787 434T838 237H474Q474 147 516 99T636 51Q736 51 807 94V20Q734 -15 632 -15Q517 -15 457 55Q420 24 375 5T269 -15Q171 -15 116 22T60 137Q60 228 117 267T271 307Q349 307 401 278V331Q401
443 270 443Q227 443 183 431T109 395V467Q139 486 190 497T293 508Q408 508 453 435Q508 508 620 508Q734 508 787 434ZM554 442T520 412T477 303H762Q757 373 723 407T620 442Q554 442 520 412ZM315 49T358 63T426 104Q405 153 402 213Q375 226 339 234T263 242Q197
242 165 218T132 143Q132 94 171 72T269 49Q315 49 358 63Z" />
<glyph unicode="&#xe7;" glyph-name="ccedilla" horiz-adv-x="492" d="M208 439T168 394T127 250Q127 150 167 106T297 61Q372 61 437 89V19Q377 -4 314 -7L252 -120H176L257 -7Q169 1 112 59T55 250Q55 394 122 451T289 508Q364 508 437 480V411Q369 439 297
439Q208 439 168 394Z" />
<glyph unicode="&#xe8;" glyph-name="egrave" horiz-adv-x="547" d="M388 508T441 434T492 237H128Q128 147 170 99T290 51Q390 51 461 94V20Q388 -15 286 -15Q177 -15 116 52T55 250Q55 377 112 442T274 508Q388 508 441 434ZM208 442T174 412T131 303H416Q411
373 377 407T274 442Q208 442 174 412ZM178 679H251L308 564H261L178 679Z" />
<glyph unicode="&#xe9;" glyph-name="eacute" horiz-adv-x="547" d="M388 508T441 434T492 237H128Q128 147 170 99T290 51Q390 51 461 94V20Q388 -15 286 -15Q177 -15 116 52T55 250Q55 377 112 442T274 508Q388 508 441 434ZM208 442T174 412T131 303H416Q411
373 377 407T274 442Q208 442 174 412ZM314 679H388L305 564H257L314 679Z" />
<glyph unicode="&#xea;" glyph-name="ecircumflex" horiz-adv-x="547" d="M388 508T441 434T492 237H128Q128 147 170 99T290 51Q390 51 461 94V20Q388 -15 286 -15Q177 -15 116 52T55 250Q55 377 112 442T274 508Q388 508 441 434ZM208 442T174 412T131 303H416Q411
373 377 407T274 442Q208 442 174 412ZM253 684H314L394 564H348L283 634L218 564H172L253 684Z" />
<glyph unicode="&#xeb;" glyph-name="edieresis" horiz-adv-x="547" d="M388 508T441 434T492 237H128Q128 147 170 99T290 51Q390 51 461 94V20Q388 -15 286 -15Q177 -15 116 52T55 250Q55 377 112 442T274 508Q388 508 441 434ZM208 442T174 412T131 303H416Q411
373 377 407T274 442Q208 442 174 412ZM169 643H248V564H169V643ZM317 643H396V564H317V643Z" />
<glyph unicode="&#xec;" glyph-name="igrave" horiz-adv-x="270" d="M28 679H102L159 564H111L28 679ZM99 499H171V0H99V499Z" />
<glyph unicode="&#xed;" glyph-name="iacute" horiz-adv-x="270" d="M167 679H241L158 564H111L167 679ZM99 499H171V0H99V499Z" />
<glyph unicode="&#xee;" glyph-name="icircumflex" horiz-adv-x="270" d="M114 684H155L236 564H180L135 634L89 564H33L114 684ZM99 499H171V0H99V499Z" />
<glyph unicode="&#xef;" glyph-name="idieresis" horiz-adv-x="270" d="M21 643H100V564H21V643ZM169 643H248V564H169V643ZM99 499H171V0H99V499Z" />
<glyph unicode="&#xf0;" glyph-name="eth" horiz-adv-x="567" d="M512 432T512 271Q512 137 454 61T285 -15Q170 -15 113 53T55 248Q55 377 113 442T283 508Q332 508 370 488Q342 531 305 571L173 549L164 606L254 621Q214 656 174 686V689H288Q320 659 342 635L446
652L454 595L388 584Q512 432 512 271ZM332 51T365 68T419 134T440 271Q440 337 415 401Q389 420 355 431T284 442Q127 442 127 248Q127 51 284 51Q332 51 365 68Z" />
<glyph unicode="&#xf1;" glyph-name="ntilde" horiz-adv-x="569" d="M177 508T291 508Q396 508 442 462T489 325V0H417V325Q417 443 283 443Q221 443 152 423V0H80V459Q177 508 291 508ZM145 544Q141 559 141 574Q141 611 164 633T218 656Q242 656 260 647T304
619Q320 606 331 600T354 593Q366 593 373 601T380 624Q380 629 378 641H430Q432 627 432 620Q432 583 409 560T346 537Q324 537 305 547T264 574Q248 587 238 593T217 599Q205 599 197 590T189 562Q189 558 191 544H145Z" />
<glyph unicode="&#xf2;" glyph-name="ograve" horiz-adv-x="569" d="M170 -15T113 53T55 248Q55 377 113 442T283 508Q400 508 457 439T514 248Q514 124 454 55T285 -15Q170 -15 113 53ZM442 51T442 248Q442 342 405 392T284 442Q127 442 127 248Q127 51 284 51Q442
51 442 248ZM182 679H255L312 564H265L182 679Z" />
<glyph unicode="&#xf3;" glyph-name="oacute" horiz-adv-x="569" d="M170 -15T113 53T55 248Q55 377 113 442T283 508Q400 508 457 439T514 248Q514 124 454 55T285 -15Q170 -15 113 53ZM442 51T442 248Q442 342 405 392T284 442Q127 442 127 248Q127 51 284 51Q442
51 442 248ZM318 679H392L309 564H261L318 679Z" />
<glyph unicode="&#xf4;" glyph-name="ocircumflex" horiz-adv-x="569" d="M170 -15T113 53T55 248Q55 377 113 442T283 508Q400 508 457 439T514 248Q514 124 454 55T285 -15Q170 -15 113 53ZM442 51T442 248Q442 342 405 392T284 442Q127 442 127 248Q127 51
284 51Q442 51 442 248ZM257 684H318L398 564H352L287 634L222 564H176L257 684Z" />
<glyph unicode="&#xf5;" glyph-name="otilde" horiz-adv-x="569" d="M170 -15T113 53T55 248Q55 377 113 442T283 508Q400 508 457 439T514 248Q514 124 454 55T285 -15Q170 -15 113 53ZM442 51T442 248Q442 342 405 392T284 442Q127 442 127 248Q127 51 284 51Q442
51 442 248ZM146 544Q142 559 142 574Q142 611 165 633T219 656Q243 656 261 647T305 619Q321 606 332 600T355 593Q367 593 374 601T381 624Q381 629 379 641H431Q433 627 433 620Q433 583 410 560T347 537Q325 537 306 547T265 574Q249 587 239 593T218 599Q206
599 198 590T190 562Q190 558 192 544H146Z" />
<glyph unicode="&#xf6;" glyph-name="odieresis" horiz-adv-x="569" d="M170 -15T113 53T55 248Q55 377 113 442T283 508Q400 508 457 439T514 248Q514 124 454 55T285 -15Q170 -15 113 53ZM442 51T442 248Q442 342 405 392T284 442Q127 442 127 248Q127 51 284
51Q442 51 442 248ZM173 643H252V564H173V643ZM321 643H400V564H321V643Z" />
<glyph unicode="&#xf7;" glyph-name="divide" horiz-adv-x="628" d="M274 439H354V359H274V439ZM111 287H517V227H111V287ZM274 154H354V74H274V154Z" />
<glyph unicode="&#xf8;" glyph-name="oslash" horiz-adv-x="574" d="M470 421Q514 356 514 248Q514 124 454 55T285 -15Q194 -15 139 28L115 0H37L98 72Q55 137 55 248Q55 377 113 442T283 508Q374 508 429 465L458 499H536L470 421ZM127 177T147 131L385 412Q347
442 284 442Q127 442 127 248Q127 177 147 131ZM442 320T422 364L184 82Q221 51 284 51Q442 51 442 248Q442 320 422 364Z" />
<glyph unicode="&#xf9;" glyph-name="ugrave" horiz-adv-x="578" d="M189 -15T135 36T80 183V499H152V199Q152 123 185 88T289 52Q359 52 392 87T426 199V499H498V183Q498 88 444 37T289 -15Q189 -15 135 36ZM184 679H257L314 564H267L184 679Z" />
<glyph unicode="&#xfa;" glyph-name="uacute" horiz-adv-x="578" d="M189 -15T135 36T80 183V499H152V199Q152 123 185 88T289 52Q359 52 392 87T426 199V499H498V183Q498 88 444 37T289 -15Q189 -15 135 36ZM320 679H394L311 564H263L320 679Z" />
<glyph unicode="&#xfb;" glyph-name="ucircumflex" horiz-adv-x="578" d="M189 -15T135 36T80 183V499H152V199Q152 123 185 88T289 52Q359 52 392 87T426 199V499H498V183Q498 88 444 37T289 -15Q189 -15 135 36ZM259 684H320L400 564H354L289 634L224 564H178L259 684Z" />
<glyph unicode="&#xfc;" glyph-name="udieresis" horiz-adv-x="578" d="M189 -15T135 36T80 183V499H152V199Q152 123 185 88T289 52Q359 52 392 87T426 199V499H498V183Q498 88 444 37T289 -15Q189 -15 135 36ZM175 643H254V564H175V643ZM323 643H402V564H323V643Z" />
<glyph unicode="&#xfd;" glyph-name="yacute" horiz-adv-x="540" d="M505 499L291 -49Q260 -129 219 -161T134 -193Q110 -193 87 -184V-118Q107 -127 130 -127Q173 -127 197 -96T242 -2L35 499H117L275 92L433 499H505ZM306 679H380L297 564H249L306 679Z" />
<glyph unicode="&#xfe;" glyph-name="thorn" horiz-adv-x="569" d="M382 508T448 444T514 237Q514 120 452 53T276 -14Q250 -14 216 -6T152 15V-200H80V689H152V489Q206 508 282 508Q382 508 448 444ZM355 52T396 102T438 237Q438 331 404 386T281 442Q227 442
190 430T152 396V87Q212 52 276 52Q355 52 396 102Z" />
<glyph unicode="&#xff;" glyph-name="ydieresis" horiz-adv-x="540" d="M505 499L291 -49Q260 -129 219 -161T134 -193Q110 -193 87 -184V-118Q107 -127 130 -127Q173 -127 197 -96T242 -2L35 499H117L275 92L433 499H505ZM161 643H240V564H161V643ZM309 643H388V564H309V643Z"
/>
<glyph unicode="&#x2013;" glyph-name="endash" horiz-adv-x="560" d="M69 320H489V258H69V320Z" />
<glyph unicode="&#x2014;" glyph-name="emdash" horiz-adv-x="891" d="M79 324H812V258H79V324Z" />
<glyph unicode="&#x2018;" glyph-name="quoteleft" horiz-adv-x="255" d="M47 676H129L203 480H131L47 676Z" />
<glyph unicode="&#x2019;" glyph-name="quoteright" horiz-adv-x="255" d="M121 676H203L119 480H47L121 676Z" />
<glyph unicode="&#x201a;" glyph-name="quotesinglbase" horiz-adv-x="300" d="M146 84H227L144 -112H72L146 84Z" />
<glyph unicode="&#x201c;" glyph-name="quotedblleft" horiz-adv-x="391" d="M47 676H129L203 480H131L47 676ZM183 676H265L339 480H267L183 676Z" />
<glyph unicode="&#x201d;" glyph-name="quotedblright" horiz-adv-x="387" d="M121 676H203L119 480H47L121 676ZM257 676H339L255 480H183L257 676Z" />
<glyph unicode="&#x201e;" glyph-name="quotedblbase" horiz-adv-x="436" d="M146 84H227L144 -112H72L146 84ZM282 84H364L280 -112H208L282 84Z" />
<glyph unicode="&#x2022;" glyph-name="bullet" horiz-adv-x="415" d="M158 218T124 252T90 334Q90 382 124 415T206 449Q253 449 287 416T321 334Q321 286 287 252T206 218Q158 218 124 252Z" />
<glyph unicode="&#x2039;" glyph-name="guilsinglleft" horiz-adv-x="347" d="M31 255L200 445H297L119 255L297 64H200L31 255Z" />
<glyph unicode="&#x203a;" glyph-name="guilsinglright" horiz-adv-x="379" d="M244 255L67 445H163L333 255L163 64H67L244 255Z" />
</font>
</defs>
</svg>
