<?xml version="1.0" standalone="no"?>
<!DOCTYPE svg PUBLIC "-//W3C//DTD SVG 1.1//EN" "http://www.w3.org/Graphics/SVG/1.1/DTD/svg11.dtd">
<svg xmlns="http://www.w3.org/2000/svg">
<defs >
<font id="Quantico" horiz-adv-x="469" ><font-face
    font-family="Quantico"
    units-per-em="1000"
    panose-1="2 0 0 0 0 0 0 0 0 0"
    ascent="1063"
    descent="-367"
    alphabetic="0" />
<glyph unicode=" " glyph-name="space" horiz-adv-x="260" />
<glyph unicode="!" glyph-name="exclam" horiz-adv-x="350" d="M100 0V150H250V0H100ZM135 268L109 730H241L215 268H135Z" />
<glyph unicode="&quot;" glyph-name="quotedbl" horiz-adv-x="430" d="M90 438L70 730H180L160 438H90ZM270 438L250 730H360L340 438H270Z" />
<glyph unicode="#" glyph-name="numbersign" horiz-adv-x="756" d="M426 -20L443 172H267L250 -20H167L184 172H60V248H191L210 460H60V536H217L234 720H317L300 536H476L493 720H576L559 536H696V460H552L533 248H696V172H526L509 -20H426ZM293 460L274 248H450L469
460H293Z" />
<glyph unicode="$" glyph-name="dollar" horiz-adv-x="645" d="M276 -123V-5H196L80 62V165H180V85H455V303H206L90 370V638L206 705H276V823H376V705H439L555 638V535H455V615H190V403H439L555 336V62L439 -5H376V-123H276Z" />
<glyph unicode="%" glyph-name="percent" horiz-adv-x="991" d="M425 424L309 357H196L80 424V643L196 710H309L425 643V424ZM171 629V438H334V629H171ZM707 710H797L284 -10H194L707 710ZM566 276L682 343H795L911 276V57L795 -10H682L566 57V276ZM820 71V262H657V71H820Z"
/>
<glyph unicode="&amp;" glyph-name="ampersand" horiz-adv-x="655" d="M625 407V317H551V62L435 -5H206L90 62V311L177 361V363L90 413V638L206 705H395L511 638V525H411V615H190V407H365V317H190V85H451V340L567 407H625Z" />
<glyph unicode="&apos;" glyph-name="quotesingle" horiz-adv-x="250" d="M90 438L70 730H180L160 438H90Z" />
<glyph unicode="(" glyph-name="parenleft" horiz-adv-x="363" d="M170 660V-130H303V-200H206L90 -133V663L206 730H303V660H170Z" />
<glyph unicode=")" glyph-name="parenright" horiz-adv-x="363" d="M193 -130V660H60V730H157L273 663V-133L157 -200H60V-130H193Z" />
<glyph unicode="*" glyph-name="asterisk" horiz-adv-x="630" d="M281 524L271 710H359L349 524L522 591L550 508L371 460L487 317L416 264L315 418L214 264L143 317L259 460L80 508L108 591L281 524Z" />
<glyph unicode="+" glyph-name="plus" horiz-adv-x="600" d="M50 297H253V500H347V297H550V203H347V0H253V203H50V297Z" />
<glyph unicode="," glyph-name="comma" horiz-adv-x="350" d="M100 -200V150H250V108L142 -200H100Z" />
<glyph unicode="-" glyph-name="hyphen" horiz-adv-x="438" d="M70 218V305H368V218H70Z" />
<glyph unicode="." glyph-name="period" horiz-adv-x="350" d="M100 0V150H250V0H100Z" />
<glyph unicode="/" glyph-name="slash" horiz-adv-x="386" d="M30 -20L266 720H356L120 -20H30Z" />
<glyph unicode="0" glyph-name="zero" horiz-adv-x="665" d="M575 62L459 -5H206L90 62V638L206 705H459L575 638V62ZM190 615V85H475V615H190Z" />
<glyph unicode="1" glyph-name="one" horiz-adv-x="570" d="M90 490V591L280 700H360V90H530V0H90V90H260V588L90 490Z" />
<glyph unicode="2" glyph-name="two" horiz-adv-x="630" d="M190 90H540V0H90V314L206 381H440V610H190V520H90V633L206 700H424L540 633V358L424 291H190V90Z" />
<glyph unicode="3" glyph-name="three" horiz-adv-x="651" d="M445 -5H206L90 62V175H190V85H461V317H256V407H461V615H190V525H90V638L206 705H445L561 638V413L474 363V361L561 311V62L445 -5Z" />
<glyph unicode="4" glyph-name="four" horiz-adv-x="624" d="M484 162V0H386V162H40V248L392 700H484V249H574V162H484ZM144 249H386V557H384L144 251V249Z" />
<glyph unicode="5" glyph-name="five" horiz-adv-x="645" d="M210 610V431H439L555 364V62L439 -5H206L90 62V175H190V85H455V341H110V700H545V610H210Z" />
<glyph unicode="6" glyph-name="six" horiz-adv-x="635" d="M190 615V369L261 410H429L545 343V62L429 -5H206L90 62V638L206 705H429L545 638V525H445V615H190ZM190 320V85H445V320H190Z" />
<glyph unicode="7" glyph-name="seven" horiz-adv-x="615" d="M273 0H167L446 608V610H160V520H60V700H565V640L273 0Z" />
<glyph unicode="8" glyph-name="eight" horiz-adv-x="645" d="M190 85H455V317H190V85ZM190 407H455V615H190V407ZM439 -5H190L90 62V311L177 361V363L90 413V638L206 705H439L555 638V413L468 363V361L555 311V62L439 -5Z" />
<glyph unicode="9" glyph-name="nine" horiz-adv-x="635" d="M445 85V331L374 290H206L90 357V638L206 705H429L545 638V62L429 -5H206L90 62V175H190V85H445ZM445 380V615H190V380H445Z" />
<glyph unicode=":" glyph-name="colon" horiz-adv-x="350" d="M100 0V150H250V0H100ZM100 350V500H250V350H100Z" />
<glyph unicode=";" glyph-name="semicolon" horiz-adv-x="350" d="M100 350V500H250V350H100ZM100 -200V150H250V108L142 -200H100Z" />
<glyph unicode="&lt;" glyph-name="less" horiz-adv-x="650" d="M560 501V407L157 251V249L560 93V-1L60 199V301L560 501Z" />
<glyph unicode="=" glyph-name="equal" horiz-adv-x="680" d="M590 183V89H90V183H590ZM590 411V317H90V411H590Z" />
<glyph unicode="&gt;" glyph-name="greater" horiz-adv-x="650" d="M90 407V501L590 301V199L90 -1V93L493 249V251L90 407Z" />
<glyph unicode="?" glyph-name="question" horiz-adv-x="580" d="M297 391L288 268H208L198 414L314 481H390V640H190V550H90V663L206 730H374L490 663V458L374 391H297ZM173 0V150H323V0H173Z" />
<glyph unicode="@" glyph-name="at" horiz-adv-x="1010" d="M804 -141H206L90 -74V638L206 705H804L920 638V104L804 37H635L569 78L493 37H392L283 104L322 470L445 537H546L612 496L688 537H714L670 117H830V625H180V-61H804V-141ZM417 450L382 124H573L608 450H417Z" />
<glyph unicode="A" glyph-name="A" horiz-adv-x="664" d="M394 700L644 0H546L487 166H177L118 0H20L270 700H394ZM331 601L209 256H455L333 601H331Z" />
<glyph unicode="B" glyph-name="B" horiz-adv-x="655" d="M565 413L478 363V361L565 311V67L449 0H90V700H449L565 633V413ZM190 317V90H465V317H190ZM190 610V407H465V610H190Z" />
<glyph unicode="C" glyph-name="C" horiz-adv-x="665" d="M485 175H585V62L469 -5H206L90 62V638L206 705H469L585 638V525H485V615H190V85H485V175Z" />
<glyph unicode="D" glyph-name="D" horiz-adv-x="705" d="M615 67L499 0H90V700H499L615 633V67ZM190 610V90H515V610H190Z" />
<glyph unicode="E" glyph-name="E" horiz-adv-x="539" d="M190 315V90H489V0H90V700H489V610H190V405H429V315H190Z" />
<glyph unicode="F" glyph-name="F" horiz-adv-x="529" d="M190 315V0H90V700H499V610H190V405H439V315H190Z" />
<glyph unicode="G" glyph-name="G" horiz-adv-x="675" d="M370 260V350H585V62L469 -5H206L90 62V638L206 705H469L585 638V525H485V615H190V85H485V260H370Z" />
<glyph unicode="H" glyph-name="H" horiz-adv-x="715" d="M190 315V0H90V700H190V405H525V700H625V0H525V315H190Z" />
<glyph unicode="I" glyph-name="I" horiz-adv-x="280" d="M90 0V700H190V0H90Z" />
<glyph unicode="J" glyph-name="J" horiz-adv-x="535" d="M345 85V700H445V62L329 -5H136L20 62V225H120V85H345Z" />
<glyph unicode="K" glyph-name="K" horiz-adv-x="663" d="M90 0V700H190V330H192L501 700H621L346 373L653 0H531L285 301L190 188V0H90Z" />
<glyph unicode="L" glyph-name="L" horiz-adv-x="479" d="M90 0V700H190V90H449V0H90Z" />
<glyph unicode="M" glyph-name="M" horiz-adv-x="885" d="M700 0V570H698L492 0H392L187 570H185V0H90V700H231L441 116H443L654 700H795V0H700Z" />
<glyph unicode="N" glyph-name="N" horiz-adv-x="735" d="M190 529V0H90V700H181L543 171H545V700H645V0H554L192 529H190Z" />
<glyph unicode="O" glyph-name="O" horiz-adv-x="705" d="M615 62L499 -5H206L90 62V638L206 705H499L615 638V62ZM190 615V85H515V615H190Z" />
<glyph unicode="P" glyph-name="P" horiz-adv-x="625" d="M90 0V700H439L555 633V336L439 269H190V0H90ZM190 610V359H455V610H190Z" />
<glyph unicode="Q" glyph-name="Q" horiz-adv-x="705" d="M190 615V85H515V615H190ZM391 -5H206L90 62V638L206 705H499L615 638V62L499 -5L612 -200H501L391 -5Z" />
<glyph unicode="R" glyph-name="R" horiz-adv-x="655" d="M341 279H190V0H90V700H449L565 633V346L449 279L610 0H499L341 279ZM190 610V369H465V610H190Z" />
<glyph unicode="S" glyph-name="S" horiz-adv-x="645" d="M90 370V638L206 705H439L555 638V535H455V615H190V403H439L555 336V62L439 -5H196L80 62V165H180V85H455V303H206L90 370Z" />
<glyph unicode="T" glyph-name="T" horiz-adv-x="558" d="M329 610V0H229V610H30V700H528V610H329Z" />
<glyph unicode="U" glyph-name="U" horiz-adv-x="705" d="M515 700H615V62L499 -5H206L90 62V700H190V95H515V700Z" />
<glyph unicode="V" glyph-name="V" horiz-adv-x="664" d="M644 700L394 0H270L20 700H121L331 103H333L543 700H644Z" />
<glyph unicode="W" glyph-name="W" horiz-adv-x="956" d="M926 700L746 0H627L479 561H477L329 0H210L30 700H127L269 128H271L422 700H534L684 128H686L829 700H926Z" />
<glyph unicode="X" glyph-name="X" horiz-adv-x="651" d="M30 0L270 357L40 700H152L325 440L499 700H611L380 357L621 0H509L325 275L142 0H30Z" />
<glyph unicode="Y" glyph-name="Y" horiz-adv-x="611" d="M255 0V309L20 700H132L304 402H306L479 700H591L355 308V0H255Z" />
<glyph unicode="Z" glyph-name="Z" horiz-adv-x="585" d="M70 610V700H525V640L180 92V90H525V0H50V60L395 608V610H70Z" />
<glyph unicode="[" glyph-name="bracketleft" horiz-adv-x="363" d="M170 660V-130H303V-200H90V730H303V660H170Z" />
<glyph unicode="\" glyph-name="backslash" horiz-adv-x="386" d="M120 720L356 -20H266L30 720H120Z" />
<glyph unicode="]" glyph-name="bracketright" horiz-adv-x="363" d="M193 -130V660H60V730H273V-200H60V-130H193Z" />
<glyph unicode="^" glyph-name="asciicircum" horiz-adv-x="602" d="M157 380H50L250 700H352L552 380H445L302 613H301L157 380Z" />
<glyph unicode="_" glyph-name="underscore" horiz-adv-x="612" d="M632 -116V-200H-20V-116H632Z" />
<glyph unicode="`" glyph-name="grave" horiz-adv-x="500" d="M315 718L409 590H329L185 718H315Z" />
<glyph unicode="a" glyph-name="a" horiz-adv-x="535" d="M157 205V82H358V205H157ZM176 -5L60 62V225L176 292H358V413H110V500H339L455 433V-5H429L358 36L287 -5H176Z" />
<glyph unicode="b" glyph-name="b" horiz-adv-x="595" d="M248 505H399L515 438V62L399 -5H248L177 36L106 -5H80V730H177V464L248 505ZM177 418V82H418V418H177Z" />
<glyph unicode="c" glyph-name="c" horiz-adv-x="515" d="M177 413V87H455V0H196L80 67V433L196 500H455V413H177Z" />
<glyph unicode="d" glyph-name="d" horiz-adv-x="595" d="M196 505H347L418 464V730H515V-5H442L418 36L347 -5H196L80 62V438L196 505ZM418 82V418H177V82H418Z" />
<glyph unicode="e" glyph-name="e" horiz-adv-x="555" d="M475 87V0H196L80 67V438L196 505H359L475 438V216H177V87H475ZM177 418V303H378V418H177Z" />
<glyph unicode="f" glyph-name="f" horiz-adv-x="389" d="M40 413V500H132V663L248 730H349V643H229V500H349V413H229V0H132V413H40Z" />
<glyph unicode="g" glyph-name="g" horiz-adv-x="575" d="M177 0L80 56V146L151 187L80 228V433L196 500H515V466L424 413L485 377V239L369 172H177V87H399L515 20V-138L399 -205H176L60 -138V-76L157 -20V-120H418V0H177ZM177 415V257H388V415H177Z" />
<glyph unicode="h" glyph-name="h" horiz-adv-x="595" d="M177 0H80V730H177V464L248 505H399L515 438V0H418V418H177V0Z" />
<glyph unicode="i" glyph-name="i" horiz-adv-x="257" d="M177 500V0H80V500H177ZM75 623V730H182V623H75Z" />
<glyph unicode="j" glyph-name="j" horiz-adv-x="257" d="M75 623V730H182V623H75ZM177 500V-133L61 -200H-40V-113H80V500H177Z" />
<glyph unicode="k" glyph-name="k" horiz-adv-x="531" d="M177 730V251H179L385 500H501L308 274L531 0H412L250 205L177 119V0H80V730H177Z" />
<glyph unicode="l" glyph-name="l" horiz-adv-x="317" d="M196 0L80 67V730H177V87H297V0H196Z" />
<glyph unicode="m" glyph-name="m" horiz-adv-x="833" d="M753 438V0H656V418H465V0H368V418H177V0H80V505H153L177 464L248 505H349L442 451L536 505H637L753 438Z" />
<glyph unicode="n" glyph-name="n" horiz-adv-x="585" d="M505 438V0H408V418H177V0H80V505H153L177 464L248 505H389L505 438Z" />
<glyph unicode="o" glyph-name="o" horiz-adv-x="585" d="M505 62L389 -5H196L80 62V438L196 505H389L505 438V62ZM177 418V82H408V418H177Z" />
<glyph unicode="p" glyph-name="p" horiz-adv-x="595" d="M399 -5H248L177 36V-200H80V505H153L177 464L248 505H399L515 438V62L399 -5ZM177 418V82H418V418H177Z" />
<glyph unicode="q" glyph-name="q" horiz-adv-x="595" d="M347 -5H196L80 62V438L196 505H347L418 464L489 505H515V-200H418V36L347 -5ZM418 82V418H177V82H418Z" />
<glyph unicode="r" glyph-name="r" horiz-adv-x="389" d="M359 413H177V0H80V500H153L177 459L248 500H359V413Z" />
<glyph unicode="s" glyph-name="s" horiz-adv-x="536" d="M456 230V67L340 0H80V87H359V210H196L80 277V433L196 500H446V413H177V297H340L456 230Z" />
<glyph unicode="t" glyph-name="t" horiz-adv-x="409" d="M40 413V500H132V584L229 640V500H349V413H229V87H349V0H248L132 67V413H40Z" />
<glyph unicode="u" glyph-name="u" horiz-adv-x="585" d="M80 62V500H177V82H408V500H505V-5H432L408 36L337 -5H196L80 62Z" />
<glyph unicode="v" glyph-name="v" horiz-adv-x="527" d="M115 500L262 92H264L412 500H507L322 0H205L20 500H115Z" />
<glyph unicode="w" glyph-name="w" horiz-adv-x="757" d="M487 0L379 382H377L270 0H155L30 500H120L215 109H217L327 500H430L540 109H542L637 500H727L602 0H487Z" />
<glyph unicode="x" glyph-name="x" horiz-adv-x="500" d="M20 0L199 255L26 500H134L250 328L366 500H474L300 255L480 0H375L250 183L125 0H20Z" />
<glyph unicode="y" glyph-name="y" horiz-adv-x="519" d="M126 -200L213 23L20 500H117L259 144H261L402 500H499L221 -200H126Z" />
<glyph unicode="z" glyph-name="z" horiz-adv-x="466" d="M40 66L292 411V413H50V500H416V434L164 89V87H416V0H40V66Z" />
<glyph unicode="{" glyph-name="braceleft" horiz-adv-x="398" d="M205 225V-130H338V-200H241L125 -133V230H40V300H125V663L241 730H338V660H205V305L138 266V264L205 225Z" />
<glyph unicode="|" glyph-name="bar" horiz-adv-x="330" d="M120 -200V730H210V-200H120Z" />
<glyph unicode="}" glyph-name="braceright" horiz-adv-x="398" d="M193 -130V225L260 264V266L193 305V660H60V730H157L273 663V300H358V230H273V-133L157 -200H60V-130H193Z" />
<glyph unicode="~" glyph-name="asciitilde" horiz-adv-x="682" d="M252 270H157V188H70V290L186 357H289L430 275H525V357H612V255L496 188H393L252 270Z" />
<glyph unicode="&#xa0;" glyph-name="uni00A0" horiz-adv-x="260" />
<glyph unicode="&#xa1;" glyph-name="exclamdown" horiz-adv-x="350" d="M100 350V500H250V350H100ZM109 -230L135 232H215L241 -230H109Z" />
<glyph unicode="&#xa2;" glyph-name="cent" horiz-adv-x="515" d="M363 500H455V413H177V87H455V0H363V-118H267V0H196L80 67V433L196 500H267V618H363V500Z" />
<glyph unicode="&#xa3;" glyph-name="sterling" horiz-adv-x="642" d="M356 365V291H217V90H492V180H592V67L476 0H117V291H40V365H117V638L233 705H426L542 638V525H442V615H217V365H356Z" />
<glyph unicode="&#xa5;" glyph-name="yen" horiz-adv-x="651" d="M77 303V377H234L40 700H152L324 402H326L499 700H611L416 377H573V303H375V222H573V148H375V0H275V148H77V222H275V303H77Z" />
<glyph unicode="&#xa6;" glyph-name="brokenbar" horiz-adv-x="330" d="M120 -200V202H210V-200H120ZM120 328V730H210V328H120Z" />
<glyph unicode="&#xa7;" glyph-name="section" horiz-adv-x="653" d="M445 163V342H218V163H445ZM118 336L205 386V388L118 438V638L234 705H447L563 638V535H463V615H218V432H429L545 365V169L458 119V117L545 67V-133L429 -200H206L90 -133V-30H190V-110H445V73H234L118
140V336Z" />
<glyph unicode="&#xa8;" glyph-name="dieresis" horiz-adv-x="544" d="M110 595V700H215V595H110ZM329 595V700H434V595H329Z" />
<glyph unicode="&#xa9;" glyph-name="copyright" horiz-adv-x="840" d="M750 62L634 -5H206L90 62V638L206 705H634L750 638V62ZM170 635V65H670V635H170ZM517 251H586V177L513 135H327L253 177V523L327 565H513L586 523V449H517V502H322V198H517V251Z" />
<glyph unicode="&#xaa;" glyph-name="ordfeminine" horiz-adv-x="545" d="M157 405V282H358V405H157ZM176 195L60 262V425L176 492H358V613H110V700H339L455 633V195H429L358 236L287 195H176ZM60 0V87H455V0H60Z" />
<glyph unicode="&#xab;" glyph-name="guillemotleft" horiz-adv-x="680" d="M340 107V0L90 200V302L340 502V395L157 252V251L340 107ZM590 107V0L340 200V302L590 502V395L407 252V251L590 107Z" />
<glyph unicode="&#xae;" glyph-name="registered" horiz-adv-x="840" d="M750 62L634 -5H206L90 62V638L206 705H634L750 638V62ZM170 635V65H670V635H170ZM437 303H331V138H262V562H503L577 520V346L509 306L608 138H531L437 303ZM331 499V366H508V499H331Z" />
<glyph unicode="&#xaf;" glyph-name="overscore" horiz-adv-x="599" d="M144 600V667H455V600H144Z" />
<glyph unicode="&#xb0;" glyph-name="degree" horiz-adv-x="505" d="M425 424L309 357H196L80 424V643L196 710H309L425 643V424ZM171 629V438H334V629H171Z" />
<glyph unicode="&#xb1;" glyph-name="plusminus" horiz-adv-x="680" d="M90 367H293V500H387V367H590V273H387V140H293V273H90V367ZM590 94V0H90V94H590Z" />
<glyph unicode="&#xb4;" glyph-name="acute" horiz-adv-x="500" d="M185 590L279 718H409L265 590H185Z" />
<glyph unicode="&#xb5;" glyph-name="mu" horiz-adv-x="612" d="M432 0L408 41L337 0H177V-158H80V500H177V87H408V500H505V87H592V0H432Z" />
<glyph unicode="&#xb6;" glyph-name="paragraph" horiz-adv-x="685" d="M498 -200V613H401V-200H304V249H176L60 316V633L176 700H595V-200H498Z" />
<glyph unicode="&#xb7;" glyph-name="middot" horiz-adv-x="350" d="M100 284V434H250V284H100Z" />
<glyph unicode="&#xb8;" glyph-name="cedilla" horiz-adv-x="578" d="M269 0H323L301 -37L367 -75V-149L281 -199H211V-149H310V-84H221L269 0Z" />
<glyph unicode="&#xba;" glyph-name="ordmasculine" horiz-adv-x="605" d="M515 262L399 195H206L90 262V638L206 705H399L515 638V262ZM187 618V282H418V618H187ZM90 0V87H515V0H90Z" />
<glyph unicode="&#xbb;" glyph-name="guillemotright" horiz-adv-x="680" d="M340 0V107L523 251V252L340 395V502L590 302V200L340 0ZM90 0V107L273 251V252L90 395V502L340 302V200L90 0Z" />
<glyph unicode="&#xbf;" glyph-name="questiondown" horiz-adv-x="580" d="M283 109L292 232H372L382 86L266 19H190V-140H390V-50H490V-163L374 -230H206L90 -163V42L206 109H283ZM407 500V350H257V500H407Z" />
<glyph unicode="&#xc0;" glyph-name="Agrave" horiz-adv-x="664" d="M394 700L644 0H546L487 166H177L118 0H20L270 700H394ZM331 601L209 256H455L333 601H331ZM318 908L412 780H332L188 908H318Z" />
<glyph unicode="&#xc1;" glyph-name="Aacute" horiz-adv-x="664" d="M394 700L644 0H546L487 166H177L118 0H20L270 700H394ZM331 601L209 256H455L333 601H331ZM245 780L339 908H469L325 780H245Z" />
<glyph unicode="&#xc2;" glyph-name="Acircumflex" horiz-adv-x="664" d="M394 700L644 0H546L487 166H177L118 0H20L270 700H394ZM331 601L209 256H455L333 601H331ZM277 918H387L488 780H413L332 860L252 780H177L277 918Z" />
<glyph unicode="&#xc3;" glyph-name="Atilde" horiz-adv-x="664" d="M394 700L644 0H546L487 166H177L118 0H20L270 700H394ZM331 601L209 256H455L333 601H331ZM249 857H247V775H179V869L273 924L415 842H417V924H485V830L391 775L249 857Z" />
<glyph unicode="&#xc4;" glyph-name="Adieresis" horiz-adv-x="664" d="M394 700L644 0H546L487 166H177L118 0H20L270 700H394ZM331 601L209 256H455L333 601H331ZM170 785V890H275V785H170ZM389 785V890H494V785H389Z" />
<glyph unicode="&#xc5;" glyph-name="Aring" horiz-adv-x="664" d="M475 682L413 646L644 0H546L487 166H177L118 0H20L251 647L190 682V851L272 898H393L475 851V682ZM331 601L209 256H455L333 601H331ZM265 833V700H400V833H265Z" />
<glyph unicode="&#xc6;" glyph-name="AE" horiz-adv-x="968" d="M619 315V90H918V0H519V166H213L98 0H-20L470 700H918V610H619V405H858V315H619ZM517 601L276 256H519V601H517Z" />
<glyph unicode="&#xc7;" glyph-name="Ccedilla" horiz-adv-x="665" d="M485 175H585V62L469 -5H363L344 -37L410 -75V-149L324 -199H254V-149H353V-84H264L309 -5H206L90 62V638L206 705H469L585 638V525H485V615H190V85H485V175Z" />
<glyph unicode="&#xc8;" glyph-name="Egrave" horiz-adv-x="539" d="M190 315V90H489V0H90V700H489V610H190V405H429V315H190ZM255 908L349 780H269L125 908H255Z" />
<glyph unicode="&#xc9;" glyph-name="Eacute" horiz-adv-x="539" d="M190 315V90H489V0H90V700H489V610H190V405H429V315H190ZM225 780L319 908H449L305 780H225Z" />
<glyph unicode="&#xca;" glyph-name="Ecircumflex" horiz-adv-x="539" d="M190 315V90H489V0H90V700H489V610H190V405H429V315H190ZM236 918H346L447 780H372L291 860L211 780H136L236 918Z" />
<glyph unicode="&#xcb;" glyph-name="Edieresis" horiz-adv-x="539" d="M190 315V90H489V0H90V700H489V610H190V405H429V315H190ZM130 785V890H235V785H130ZM349 785V890H454V785H349Z" />
<glyph unicode="&#xcc;" glyph-name="Igrave" horiz-adv-x="280" d="M90 0V700H190V0H90ZM121 908L215 780H135L-9 908H121Z" />
<glyph unicode="&#xcd;" glyph-name="Iacute" horiz-adv-x="280" d="M90 0V700H190V0H90ZM65 780L159 908H289L145 780H65Z" />
<glyph unicode="&#xce;" glyph-name="Icircumflex" horiz-adv-x="280" d="M90 0V700H190V0H90ZM85 918H195L296 780H221L140 860L60 780H-15L85 918Z" />
<glyph unicode="&#xcf;" glyph-name="Idieresis" horiz-adv-x="280" d="M90 0V700H190V0H90ZM-22 785V890H83V785H-22ZM197 785V890H302V785H197Z" />
<glyph unicode="&#xd0;" glyph-name="Eth" horiz-adv-x="705" d="M20 291V365H90V700H499L615 633V67L499 0H90V291H20ZM190 610V365H296V291H190V90H515V610H190Z" />
<glyph unicode="&#xd1;" glyph-name="Ntilde" horiz-adv-x="735" d="M190 529V0H90V700H181L543 171H545V700H645V0H554L192 529H190ZM276 857H274V775H206V869L300 924L442 842H444V924H512V830L418 775L276 857Z" />
<glyph unicode="&#xd2;" glyph-name="Ograve" horiz-adv-x="705" d="M615 62L499 -5H206L90 62V638L206 705H499L615 638V62ZM190 615V85H515V615H190ZM325 908L419 780H339L195 908H325Z" />
<glyph unicode="&#xd3;" glyph-name="Oacute" horiz-adv-x="705" d="M615 62L499 -5H206L90 62V638L206 705H499L615 638V62ZM190 615V85H515V615H190ZM278 780L372 908H502L358 780H278Z" />
<glyph unicode="&#xd4;" glyph-name="Ocircumflex" horiz-adv-x="705" d="M615 62L499 -5H206L90 62V638L206 705H499L615 638V62ZM190 615V85H515V615H190ZM297 918H407L508 780H433L352 860L272 780H197L297 918Z" />
<glyph unicode="&#xd5;" glyph-name="Otilde" horiz-adv-x="705" d="M615 62L499 -5H206L90 62V638L206 705H499L615 638V62ZM190 615V85H515V615H190ZM270 857H268V775H200V869L294 924L436 842H438V924H506V830L412 775L270 857Z" />
<glyph unicode="&#xd6;" glyph-name="Odieresis" horiz-adv-x="705" d="M615 62L499 -5H206L90 62V638L206 705H499L615 638V62ZM190 615V85H515V615H190ZM196 785V890H301V785H196ZM415 785V890H520V785H415Z" />
<glyph unicode="&#xd7;" glyph-name="multiply" horiz-adv-x="610" d="M126 495L305 316L484 495L550 429L371 250L550 71L484 5L305 184L126 5L60 71L239 250L60 429L126 495Z" />
<glyph unicode="&#xd8;" glyph-name="Oslash" horiz-adv-x="705" d="M615 62L499 -5H206L90 62V638L206 705H499L615 638V62ZM190 615V150L475 615H190ZM230 85H515V550L230 85Z" />
<glyph unicode="&#xd9;" glyph-name="Ugrave" horiz-adv-x="705" d="M515 700H615V62L499 -5H206L90 62V700H190V95H515V700ZM305 908L399 780H319L175 908H305Z" />
<glyph unicode="&#xda;" glyph-name="Uacute" horiz-adv-x="705" d="M515 700H615V62L499 -5H206L90 62V700H190V95H515V700ZM295 780L389 908H519L375 780H295Z" />
<glyph unicode="&#xdb;" glyph-name="Ucircumflex" horiz-adv-x="705" d="M515 700H615V62L499 -5H206L90 62V700H190V95H515V700ZM297 918H407L508 780H433L352 860L272 780H197L297 918Z" />
<glyph unicode="&#xdc;" glyph-name="Udieresis" horiz-adv-x="705" d="M515 700H615V62L499 -5H206L90 62V700H190V95H515V700ZM190 785V890H295V785H190ZM409 785V890H514V785H409Z" />
<glyph unicode="&#xdd;" glyph-name="Yacute" horiz-adv-x="611" d="M255 0V309L20 700H132L304 402H306L479 700H591L355 308V0H255ZM255 780L349 908H479L335 780H255Z" />
<glyph unicode="&#xde;" glyph-name="Thorn" horiz-adv-x="635" d="M90 0V730H190V587H439L555 520V223L439 156H190V0H90ZM190 497V246H455V497H190Z" />
<glyph unicode="&#xdf;" glyph-name="germandbls" horiz-adv-x="665" d="M30 317V407H120V633L236 700H439L555 633V413L481 370L585 311V67L469 0H293V90H485V317H293V407H455V610H220V-200H120V317H30Z" />
<glyph unicode="&#xe0;" glyph-name="agrave" horiz-adv-x="535" d="M157 205V82H358V205H157ZM176 -5L60 62V225L176 292H358V413H110V500H339L455 433V-5H429L358 36L287 -5H176ZM265 718L359 590H279L135 718H265Z" />
<glyph unicode="&#xe1;" glyph-name="aacute" horiz-adv-x="535" d="M157 205V82H358V205H157ZM176 -5L60 62V225L176 292H358V413H110V500H339L455 433V-5H429L358 36L287 -5H176ZM185 590L279 718H409L265 590H185Z" />
<glyph unicode="&#xe2;" glyph-name="acircumflex" horiz-adv-x="535" d="M157 205V82H358V205H157ZM176 -5L60 62V225L176 292H358V413H110V500H339L455 433V-5H429L358 36L287 -5H176ZM210 728H320L421 590H346L265 670L185 590H110L210 728Z" />
<glyph unicode="&#xe3;" glyph-name="atilde" horiz-adv-x="535" d="M157 205V82H358V205H157ZM176 -5L60 62V225L176 292H358V413H110V500H339L455 433V-5H429L358 36L287 -5H176ZM180 667H178V585H110V679L204 734L346 652H348V734H416V640L322 585L180 667Z" />
<glyph unicode="&#xe4;" glyph-name="adieresis" horiz-adv-x="535" d="M157 205V82H358V205H157ZM176 -5L60 62V225L176 292H358V413H110V500H339L455 433V-5H429L358 36L287 -5H176ZM110 595V700H215V595H110ZM329 595V700H434V595H329Z" />
<glyph unicode="&#xe5;" glyph-name="aring" horiz-adv-x="535" d="M157 205V82H358V205H157ZM176 -5L60 62V225L176 292H358V413H110V500H339L455 433V-5H429L358 36L287 -5H176ZM407 617L325 570H204L122 617V786L204 833H325L407 786V617ZM197 768V635H332V768H197Z" />
<glyph unicode="&#xe6;" glyph-name="ae" horiz-adv-x="833" d="M753 87V0H474L384 52L287 -5H176L60 62V225L176 292H358V413H110V500H339L402 463L474 505H637L753 438V216H455V87H753ZM157 205V82H358V205H157ZM455 418V303H656V418H455Z" />
<glyph unicode="&#xe7;" glyph-name="ccedilla" horiz-adv-x="515" d="M269 0H196L80 67V433L196 500H455V413H177V87H455V0H323L301 -37L367 -75V-149L281 -199H211V-149H310V-84H221L269 0Z" />
<glyph unicode="&#xe8;" glyph-name="egrave" horiz-adv-x="555" d="M475 87V0H196L80 67V438L196 505H359L475 438V216H177V87H475ZM177 418V303H378V418H177ZM285 718L379 590H299L155 718H285Z" />
<glyph unicode="&#xe9;" glyph-name="eacute" horiz-adv-x="555" d="M475 87V0H196L80 67V438L196 505H359L475 438V216H177V87H475ZM177 418V303H378V418H177ZM185 590L279 718H409L265 590H185Z" />
<glyph unicode="&#xea;" glyph-name="ecircumflex" horiz-adv-x="555" d="M475 87V0H196L80 67V438L196 505H359L475 438V216H177V87H475ZM177 418V303H378V418H177ZM227 728H337L438 590H363L282 670L202 590H127L227 728Z" />
<glyph unicode="&#xeb;" glyph-name="edieresis" horiz-adv-x="555" d="M475 87V0H196L80 67V438L196 505H359L475 438V216H177V87H475ZM177 418V303H378V418H177ZM113 595V700H218V595H113ZM332 595V700H437V595H332Z" />
<glyph unicode="&#xec;" glyph-name="igrave" horiz-adv-x="257" d="M177 500V0H80V500H177ZM103 718L197 590H117L-27 718H103Z" />
<glyph unicode="&#xed;" glyph-name="iacute" horiz-adv-x="257" d="M177 500V0H80V500H177ZM60 590L154 718H284L140 590H60Z" />
<glyph unicode="&#xee;" glyph-name="icircumflex" horiz-adv-x="257" d="M177 500V0H80V500H177ZM73 728H183L284 590H209L128 670L48 590H-27L73 728Z" />
<glyph unicode="&#xef;" glyph-name="idieresis" horiz-adv-x="257" d="M177 500V0H80V500H177ZM-33 595V700H72V595H-33ZM186 595V700H291V595H186Z" />
<glyph unicode="&#xf0;" glyph-name="eth" horiz-adv-x="635" d="M340 487V561H446V615H207V705H430L546 638V561H616V487H546V62L430 -5H207L91 62V363L207 430H375L446 389V487H340ZM446 85V340H191V85H446Z" />
<glyph unicode="&#xf1;" glyph-name="ntilde" horiz-adv-x="585" d="M505 438V0H408V418H177V0H80V505H153L177 464L248 505H389L505 438ZM209 667H207V585H139V679L233 734L375 652H377V734H445V640L351 585L209 667Z" />
<glyph unicode="&#xf2;" glyph-name="ograve" horiz-adv-x="585" d="M505 62L389 -5H196L80 62V438L196 505H389L505 438V62ZM177 418V82H408V418H177ZM292 718L386 590H306L162 718H292Z" />
<glyph unicode="&#xf3;" glyph-name="oacute" horiz-adv-x="585" d="M505 62L389 -5H196L80 62V438L196 505H389L505 438V62ZM177 418V82H408V418H177ZM218 590L312 718H442L298 590H218Z" />
<glyph unicode="&#xf4;" glyph-name="ocircumflex" horiz-adv-x="585" d="M505 62L389 -5H196L80 62V438L196 505H389L505 438V62ZM177 418V82H408V418H177ZM240 728H350L451 590H376L295 670L215 590H140L240 728Z" />
<glyph unicode="&#xf5;" glyph-name="otilde" horiz-adv-x="585" d="M505 62L389 -5H196L80 62V438L196 505H389L505 438V62ZM177 418V82H408V418H177ZM213 667H211V585H143V679L237 734L379 652H381V734H449V640L355 585L213 667Z" />
<glyph unicode="&#xf6;" glyph-name="odieresis" horiz-adv-x="585" d="M505 62L389 -5H196L80 62V438L196 505H389L505 438V62ZM177 418V82H408V418H177ZM131 595V700H236V595H131ZM350 595V700H455V595H350Z" />
<glyph unicode="&#xf7;" glyph-name="divide" horiz-adv-x="600" d="M550 297V203H50V297H550ZM235 -10V120H365V-10H235ZM235 380V510H365V380H235Z" />
<glyph unicode="&#xf8;" glyph-name="oslash" horiz-adv-x="585" d="M505 62L389 -5H196L80 62V438L196 505H389L505 438V62ZM177 418V140L368 418H177ZM217 82H408V360L217 82Z" />
<glyph unicode="&#xf9;" glyph-name="ugrave" horiz-adv-x="585" d="M80 62V500H177V82H408V500H505V-5H432L408 36L337 -5H196L80 62ZM275 718L369 590H289L145 718H275Z" />
<glyph unicode="&#xfa;" glyph-name="uacute" horiz-adv-x="585" d="M80 62V500H177V82H408V500H505V-5H432L408 36L337 -5H196L80 62ZM235 590L329 718H459L315 590H235Z" />
<glyph unicode="&#xfb;" glyph-name="ucircumflex" horiz-adv-x="585" d="M80 62V500H177V82H408V500H505V-5H432L408 36L337 -5H196L80 62ZM238 728H348L449 590H374L293 670L213 590H138L238 728Z" />
<glyph unicode="&#xfc;" glyph-name="udieresis" horiz-adv-x="585" d="M80 62V500H177V82H408V500H505V-5H432L408 36L337 -5H196L80 62ZM130 595V700H235V595H130ZM349 595V700H454V595H349Z" />
<glyph unicode="&#xfd;" glyph-name="yacute" horiz-adv-x="519" d="M126 -200L213 23L20 500H117L259 144H261L402 500H499L221 -200H126ZM195 590L289 718H419L275 590H195Z" />
<glyph unicode="&#xfe;" glyph-name="thorn" horiz-adv-x="595" d="M80 730H177V464L248 505H399L515 438V62L399 -5H248L177 36V-200H80V730ZM177 418V82H418V418H177Z" />
<glyph unicode="&#xff;" glyph-name="ydieresis" horiz-adv-x="519" d="M126 -200L213 23L20 500H117L259 144H261L402 500H499L221 -200H126ZM98 595V700H203V595H98ZM317 595V700H422V595H317Z" />
<glyph unicode="&#x2013;" glyph-name="endash" horiz-adv-x="696" d="M70 218V305H626V218H70Z" />
<glyph unicode="&#x2014;" glyph-name="emdash" horiz-adv-x="974" d="M70 218V305H904V218H70Z" />
<glyph unicode="&#x2018;" glyph-name="quoteleft" horiz-adv-x="330" d="M240 730V380H90V422L198 730H240Z" />
<glyph unicode="&#x2019;" glyph-name="quoteright" horiz-adv-x="330" d="M90 380V730H240V688L132 380H90Z" />
<glyph unicode="&#x201a;" glyph-name="quotesinglbase" horiz-adv-x="350" d="M100 -200V150H250V108L142 -200H100Z" />
<glyph unicode="&#x201c;" glyph-name="quotedblleft" horiz-adv-x="570" d="M480 730V380H330V422L438 730H480ZM240 730V380H90V422L198 730H240Z" />
<glyph unicode="&#x201d;" glyph-name="quotedblright" horiz-adv-x="570" d="M90 380V730H240V688L132 380H90ZM330 380V730H480V688L372 380H330Z" />
<glyph unicode="&#x201e;" glyph-name="quotedblbase" horiz-adv-x="590" d="M100 -200V150H250V108L142 -200H100ZM340 -200V150H490V108L382 -200H340Z" />
<glyph unicode="&#x2022;" glyph-name="bullet" horiz-adv-x="580" d="M480 224L364 157H216L100 224V470L216 537H364L480 470V224Z" />
<glyph unicode="&#x2039;" glyph-name="guilsinglleft" horiz-adv-x="430" d="M340 107V0L90 200V302L340 502V395L157 252V251L340 107Z" />
<glyph unicode="&#x203a;" glyph-name="guilsinglright" horiz-adv-x="430" d="M90 0V107L273 251V252L90 395V502L340 302V200L90 0Z" />
</font>
</defs>
</svg>
