<?xml version="1.0" standalone="no"?>
<!DOCTYPE svg PUBLIC "-//W3C//DTD SVG 1.1//EN" "http://www.w3.org/Graphics/SVG/1.1/DTD/svg11.dtd">
<svg xmlns="http://www.w3.org/2000/svg">
<defs >
<font id="Arbutus" horiz-adv-x="1507" ><font-face
    font-family="Arbutus"
    units-per-em="2048"
    panose-1="2 0 0 0 0 0 0 0 0 0"
    ascent="2010"
    descent="-550"
    alphabetic="0" />
<glyph unicode=" " glyph-name="space" horiz-adv-x="838" />
<glyph unicode="!" glyph-name="exclam" horiz-adv-x="705" d="M226 440Q226 443 226 446T225 455Q225 468 225 484T226 519Q226 549 223 582T210 646T179 700T123 735Q141 738 151 762T162 846Q162 884 157 938T142 1068Q137 1104 130 1157T113 1266T94 1368T75
1440Q93 1434 125 1428T195 1417T273 1408T348 1405Q387 1405 430 1408T512 1416T583 1428T633 1440Q619 1389 607 1331T585 1214T568 1099T556 993T549 906T546 846Q546 787 556 763T585 735Q552 723 532 695T500 632T484 559T479 490Q479 458 482 440Q461 446
435 450T354 455Q300 455 274 451T226 440ZM106 0Q117 23 126 68T135 180Q135 211 133 240T126 294T117 338T105 370Q123 364 150 359T211 349T283 343T360 340Q396 340 433 341T503 347T562 356T605 370Q592 346 586 293T580 180Q580 123 586 77T605 0Q589 5 563
9T503 17T431 23T354 25Q315 25 278 23T207 18T148 10T106 0Z" />
<glyph unicode="&quot;" glyph-name="quotedbl" horiz-adv-x="1360" d="M894 980Q890 1019 883 1057T864 1131T831 1199T779 1260Q790 1275 795 1301T800 1360Q800 1396 795 1436T783 1514T766 1582T749 1630Q785 1615 854 1608T1004 1600Q1044 1600 1082 1601T1154
1607T1215 1616T1261 1630Q1253 1613 1244 1583T1228 1515T1215 1437T1210 1360Q1210 1328 1215 1302T1231 1260Q1199 1232 1179 1199T1146 1129T1127 1055T1116 980Q1111 983 1097 985T1067 988T1033 991T1005 992Q994 992 977 991T944 989T913 985T894 980ZM244
980Q240 1019 233 1057T214 1131T181 1199T129 1260Q140 1275 145 1301T150 1360Q150 1396 145 1436T133 1514T116 1582T99 1630Q135 1615 204 1608T354 1600Q394 1600 432 1601T504 1607T565 1616T611 1630Q603 1613 594 1583T578 1515T565 1437T560 1360Q560
1328 565 1302T581 1260Q549 1232 529 1199T496 1129T477 1055T466 980Q461 983 447 985T417 988T383 991T355 992Q344 992 327 991T294 989T263 985T244 980Z" />
<glyph unicode="#" glyph-name="numbersign" horiz-adv-x="1703" d="M320 0Q332 17 345 56T372 146T397 256T420 375Q369 375 322 374T234 371T165 364T120 352Q128 373 131 408T135 477Q135 509 131 544T120 600Q135 592 168 587T246 580T344 578T451 577L497
875Q442 875 389 875T290 872T210 865T160 852Q168 873 171 908T175 977Q175 1009 171 1044T160 1100Q177 1091 214 1087T302 1080T410 1077T528 1077Q540 1157 549 1234T559 1367Q559 1392 557 1410T549 1440Q559 1437 574 1434T609 1427T650 1421T693 1419Q735
1419 775 1426T837 1440Q824 1423 811 1386T786 1300T763 1193T741 1077H1078Q1090 1157 1099 1234T1109 1367Q1109 1392 1107 1410T1099 1440Q1109 1437 1124 1434T1159 1427T1200 1421T1243 1419Q1285 1419 1325 1426T1387 1440Q1374 1423 1361 1386T1336 1300T1313
1193T1291 1077Q1363 1079 1432 1084T1583 1100Q1575 1079 1572 1044T1568 975Q1568 943 1572 908T1583 852Q1494 865 1416 869T1256 875L1206 577Q1290 578 1370 582T1543 600Q1535 579 1532 544T1528 475Q1528 443 1532 408T1543 352Q1443 366 1354 370T1172
375Q1161 300 1153 225T1145 93Q1145 61 1148 37T1158 0Q1123 14 1090 19T1014 25Q972 25 939 20T870 0Q882 17 895 56T922 146T947 256T970 375H622Q611 300 603 225T595 93Q595 61 598 37T608 0Q573 14 540 19T464 25Q422 25 389 20T320 0ZM1001 577L1047 875H706L656
577H1001Z" />
<glyph unicode="$" glyph-name="dollar" horiz-adv-x="1703" d="M223 0Q225 8 228 29T235 78T240 139T243 203Q243 286 237 349T223 435Q280 426 330 423T428 420Q516 420 584 435Q584 391 605 352T663 283T753 237T870 220Q913 220 957 224T1036 244T1094 287T1116
362Q1116 396 1096 432T1032 498T920 546T755 565Q673 565 593 561T418 532Q416 562 397 598T347 665T277 718T196 740H186Q198 745 207 763T221 807T230 864T233 929Q233 1012 225 1078T200 1172H207Q236 1172 271 1187T341 1226T411 1281T471 1344T515 1406T534
1460Q557 1446 617 1432T762 1410Q760 1454 757 1508T749 1611T736 1699T717 1750Q738 1742 777 1739T866 1735Q895 1735 924 1735T978 1738T1022 1742T1051 1750Q1040 1735 1031 1697T1014 1610T1001 1510T993 1414Q1035 1422 1071 1433T1133 1460Q1141 1429 1160
1397T1205 1341Q1231 1363 1243 1391T1260 1440Q1267 1435 1279 1432T1305 1426T1332 1422T1353 1420Q1426 1420 1489 1440Q1487 1432 1484 1409T1478 1356T1473 1292T1471 1227Q1471 1140 1477 1075T1489 985Q1438 994 1393 997T1303 1000Q1215 1000 1148 985Q1148
1031 1127 1072T1069 1144T979 1192T862 1210Q818 1210 775 1204T696 1181T638 1137T616 1068Q616 1033 633 1000T691 941T796 899T958 883Q998 883 1045 883T1138 886T1225 894T1296 908Q1299 878 1321 840T1376 769T1452 713T1536 690H1546Q1534 685 1525 667T1511
623T1502 566T1499 501Q1499 460 1501 422T1507 352T1518 296T1532 258H1525Q1496 258 1461 244T1390 207T1320 154T1259 93T1216 33T1198 -20Q1176 -6 1131 4T1014 21Q1017 -21 1021 -67T1032 -155T1047 -228T1065 -273Q1056 -269 1035 -266T986 -262T927 -259T869
-258Q820 -258 783 -261T725 -273Q735 -262 743 -232T757 -160T768 -73T776 18Q738 13 706 4T649 -20Q640 11 622 40T577 90Q550 70 539 46T522 0Q514 4 497 8T457 16T410 22T361 25Q322 25 285 18T223 0Z" />
<glyph unicode="%" glyph-name="percent" horiz-adv-x="2211" d="M316 717Q308 756 287 784T237 831T173 857T99 866Q119 889 129 938T139 1056Q139 1128 128 1181T99 1256Q180 1272 237 1320T312 1440Q349 1429 410 1420T570 1410Q660 1410 724 1418T818 1440Q835
1368 892 1320T1031 1256Q1013 1234 1002 1181T991 1056Q991 987 1001 938T1031 866Q994 866 958 858T893 831T842 785T814 717Q783 728 723 737T564 747Q474 747 410 739T316 717ZM367 0Q380 3 420 43T520 149T654 302T809 488T975 689T1137 892T1285 1080T1405
1239T1487 1352T1517 1405Q1527 1399 1543 1395T1580 1387T1623 1381T1667 1379Q1713 1379 1755 1386T1830 1405Q1816 1397 1777 1356T1679 1248T1549 1096T1397 914T1235 717T1075 518T928 333T806 176T719 60T680 0Q670 6 654 10T617 18T574 23T530 25Q484 25
442 18T367 0ZM567 905Q591 905 610 913T644 943T666 999T674 1087Q674 1177 645 1216T567 1255Q545 1255 526 1246T492 1216T469 1164T460 1087Q460 1034 468 999T490 943T524 914T567 905ZM1179 149Q1199 172 1209 221T1219 339Q1219 411 1208 464T1179 539Q1260
555 1317 603T1392 723Q1429 712 1490 703T1650 693Q1740 693 1804 701T1898 723Q1915 651 1972 603T2111 539Q2093 517 2082 464T2071 339Q2071 270 2081 221T2111 149Q2074 149 2038 141T1973 114T1922 68T1894 0Q1863 11 1803 20T1644 30Q1554 30 1490 22T1396
0Q1388 39 1367 67T1317 114T1253 140T1179 149ZM1540 370Q1540 317 1548 282T1570 226T1604 197T1647 188Q1671 188 1690 196T1724 226T1746 282T1754 370Q1754 460 1725 499T1647 538Q1625 538 1606 529T1572 499T1549 447T1540 370Z" />
<glyph unicode="&amp;" glyph-name="ampersand" horiz-adv-x="1868" d="M143 226Q152 237 157 257T164 306T167 367T168 435Q168 462 167 493T162 552T154 604T143 638Q162 638 193 647T256 675T317 720T360 782Q344 803 326 819T291 849T259 871T231 888Q237
902 242 924T250 975T256 1035T258 1099Q258 1156 253 1204T236 1275Q241 1274 242 1274T248 1274Q275 1274 316 1289T398 1329T471 1382T513 1440Q525 1432 548 1426T603 1415T670 1408T745 1405Q778 1405 808 1407T864 1414T909 1425T937 1440Q947 1412 984 1382T1068
1327T1162 1286T1241 1270Q1244 1270 1247 1270T1254 1271Q1243 1249 1238 1201T1232 1095Q1232 1063 1234 1032T1239 972T1248 921T1259 884Q1236 875 1205 857T1142 815T1078 759T1024 693Q1053 663 1085 633T1150 577Q1191 608 1225 648T1283 734T1321 827T1335
920Q1335 954 1328 981Q1332 976 1349 971T1393 962T1454 954T1525 951Q1552 951 1583 952T1646 956T1705 963T1753 973Q1747 962 1743 943T1735 903T1730 858T1728 816Q1728 784 1729 760T1734 716T1740 679T1746 645Q1717 652 1682 656T1622 661Q1578 661 1535
643T1452 594T1378 526T1315 449Q1336 420 1364 392T1426 341T1501 304T1589 290Q1616 290 1636 291T1674 294T1707 300T1738 310Q1731 272 1727 232T1723 147Q1723 102 1728 63T1738 0Q1718 7 1683 12T1607 20T1527 24T1460 25Q1415 25 1373 24T1296 19T1239 11T1208
0Q1207 26 1197 50T1170 96T1133 137T1090 174Q1052 140 1014 93T952 0Q917 17 862 21T732 25Q647 25 580 20T468 0Q442 38 399 78T308 151T215 205T143 226ZM813 851Q829 862 846 886T877 940T901 1000T910 1053Q910 1139 869 1181T762 1223Q702 1223 668 1187T633
1087Q633 1050 651 1014T697 946T755 889T813 851ZM528 413Q528 365 541 330T577 272T632 237T700 226Q738 226 768 238T822 268T862 306T891 345Q888 353 869 373T820 418T757 472T690 525T632 565T593 585Q561 552 545 507T528 413Z" />
<glyph unicode="&apos;" glyph-name="quotesingle" horiz-adv-x="680" d="M229 980Q225 1019 218 1057T199 1131T166 1199T114 1260Q125 1275 130 1301T135 1360Q135 1396 130 1436T118 1514T101 1582T84 1630Q120 1615 189 1608T339 1600Q379 1600 417 1601T489
1607T550 1616T596 1630Q588 1613 579 1583T563 1515T550 1437T545 1360Q545 1328 550 1302T566 1260Q534 1232 514 1199T481 1129T462 1055T451 980Q446 983 432 985T402 988T368 991T340 992Q329 992 312 991T279 989T248 985T229 980Z" />
<glyph unicode="(" glyph-name="parenleft" horiz-adv-x="1021" d="M160 158Q171 173 177 203T186 269T189 337T190 393Q190 471 186 525T172 617T146 682T107 729Q130 750 146 778T171 845T185 937T190 1060Q190 1085 190 1124T186 1202T177 1276T160 1325Q197
1330 232 1348T297 1392T353 1451T398 1518T429 1587T444 1650Q481 1639 531 1632T643 1625Q713 1625 773 1631T870 1650Q863 1633 859 1602T855 1535Q855 1500 859 1474T870 1430Q829 1430 790 1421T717 1386T654 1311T605 1185T573 995T561 729Q561 575 572 463T604
273T653 145T716 69T790 33T870 23Q864 5 860 -21T855 -82Q855 -118 859 -149T870 -197Q833 -185 773 -179T643 -172Q582 -172 532 -179T444 -197Q442 -168 431 -132T400 -58T354 16T297 83T231 133T160 158Z" />
<glyph unicode=")" glyph-name="parenright" horiz-adv-x="1021" d="M861 158Q850 173 844 203T835 269T832 337T831 393Q831 471 835 525T849 617T875 682T914 729Q891 750 875 778T850 845T836 937T831 1060Q831 1085 831 1124T835 1202T844 1276T861 1325Q824
1330 789 1348T724 1392T668 1451T623 1518T592 1587T577 1650Q540 1639 490 1632T378 1625Q308 1625 248 1631T151 1650Q158 1633 162 1602T166 1535Q166 1500 162 1474T151 1430Q192 1430 231 1421T304 1386T367 1311T416 1185T448 995T460 729Q460 575 449 463T417
273T368 145T305 69T231 33T151 23Q157 5 161 -21T166 -82Q166 -118 162 -149T151 -197Q188 -185 248 -179T378 -172Q439 -172 489 -179T577 -197Q579 -168 590 -132T621 -58T667 16T724 83T790 133T861 158Z" />
<glyph unicode="*" glyph-name="asterisk" horiz-adv-x="1190" d="M442 680Q430 698 407 720T354 766T292 812T228 853T171 883T128 899Q145 911 172 931T233 978T303 1032T375 1090T444 1146T503 1195Q455 1199 391 1202T263 1209T142 1213T53 1215Q73 1238 94
1285T132 1387T161 1492T172 1572V1584Q197 1566 241 1533T335 1462T437 1386T530 1318Q521 1351 510 1391T487 1473T463 1557T440 1636T419 1705T404 1756Q416 1750 435 1746T479 1739T532 1735T589 1733Q643 1733 693 1738T772 1756Q763 1726 747 1672T714 1554T679
1427T649 1313Q690 1341 743 1380T848 1458T946 1531T1018 1584Q1017 1580 1017 1572Q1017 1543 1028 1492T1057 1387T1096 1286T1137 1215Q1105 1215 1050 1214T931 1210T803 1204T690 1196Q729 1167 780 1130T884 1057T981 989T1052 939Q1036 936 1012 922T961
888T904 843T848 792T801 743T769 701Q759 731 739 782T694 892T643 1010T596 1116Q577 1068 554 1005T510 880T470 764T442 680Z" />
<glyph unicode="+" glyph-name="plus" horiz-adv-x="1360" d="M516 125Q524 163 528 200T535 276T538 357T539 448Q539 472 538 495T535 541Q512 543 489 544T442 545Q393 545 351 545T270 542T194 535T119 522Q125 539 129 583T134 685Q134 700 133 723T130 770T126
816T119 850Q157 842 194 838T270 831T351 828T442 827Q466 827 489 828T535 832Q537 854 538 877T539 924Q539 973 539 1015T536 1096T529 1172T516 1247Q529 1244 550 1242T596 1237T643 1233T681 1232Q738 1232 782 1236T844 1247Q836 1209 832 1172T825 1096T822
1015T821 924Q821 900 822 877T826 832Q848 830 871 829T918 827Q967 827 1009 827T1090 830T1166 837T1241 850Q1238 837 1236 816T1231 770T1227 723T1226 685Q1226 628 1230 584T1241 522Q1203 530 1166 534T1090 541T1009 544T918 545Q894 545 871 544T826
541Q823 518 822 495T821 448Q821 399 821 357T824 276T831 200T844 125Q827 131 783 135T681 140Q666 140 643 139T596 136T550 132T516 125Z" />
<glyph unicode="," glyph-name="comma" horiz-adv-x="680" d="M91 0Q103 27 111 80T120 210Q120 245 118 278T111 341T102 393T90 430Q108 424 135 419T196 409T268 403T345 400Q381 400 418 401T488 407T547 416T590 430Q583 417 578 391T568 332T562 259T560
179Q560 113 566 53T588 -43Q543 -51 504 -86T433 -167T381 -259T351 -333Q339 -318 315 -305T263 -281T209 -264T167 -257H159Q171 -245 185 -224T210 -175T230 -116T238 -51Q238 -34 236 -16T227 20Q182 17 147 12T91 0Z" />
<glyph unicode="-" glyph-name="hyphen" horiz-adv-x="1021" d="M99 472Q105 493 109 542T114 655Q114 671 113 697T111 750T106 801T99 840Q126 832 151 828T203 821T259 818T322 817H698Q732 817 761 817T816 820T868 827T921 840Q917 826 914 802T910 750T907
697T906 655Q906 591 910 542T921 472Q894 480 869 484T816 491T760 494T698 495H322Q288 495 259 495T204 492T152 485T99 472Z" />
<glyph unicode="." glyph-name="period" horiz-adv-x="680" d="M91 0Q103 27 111 80T120 210Q120 245 118 278T111 341T102 393T90 430Q108 424 135 419T196 409T268 403T345 400Q381 400 418 401T488 407T547 416T590 430Q584 416 580 393T572 340T567 278T565
210Q565 144 571 90T590 0Q574 5 548 9T488 17T416 23T339 25Q300 25 263 23T192 18T133 10T91 0Z" />
<glyph unicode="/" glyph-name="slash" horiz-adv-x="1021" d="M36 -150Q49 -141 64 -117T94 -58T126 18T156 101T184 183T209 257L519 1231Q534 1279 549 1330T575 1430T594 1519T602 1588Q602 1613 596 1625Q626 1617 674 1611T791 1605Q860 1605 907 1611T984
1625Q971 1616 956 1592T925 1533T893 1458T862 1374T834 1292T811 1218L501 244Q486 195 471 144T445 45T426 -44T418 -114Q418 -138 424 -150Q406 -144 382 -140T331 -134T278 -131T230 -130Q208 -130 182 -131T130 -134T80 -140T36 -150Z" />
<glyph unicode="0" glyph-name="zero" horiz-adv-x="1698" d="M144 268Q153 289 162 323T178 401T190 494T195 594Q195 657 178 690T129 735Q147 740 160 758T182 802T195 859T199 924Q199 1010 185 1076T144 1172H150Q178 1172 212 1187T280 1226T346 1281T404
1344T446 1406T465 1460Q482 1451 518 1442T605 1424T718 1410T849 1405Q918 1405 980 1410T1092 1423T1179 1441T1233 1460Q1235 1437 1251 1407T1292 1344T1350 1282T1417 1227T1485 1187T1547 1172H1554Q1528 1143 1514 1077T1499 924Q1499 891 1503 860T1516
802T1538 758T1569 735Q1537 724 1520 691T1503 594Q1503 544 1507 495T1519 402T1536 324T1554 268Q1510 262 1459 234T1362 165T1282 76T1239 -20Q1222 -11 1185 -3T1096 11T981 21T849 25Q780 25 717 22T602 12T513 -3T459 -20Q450 27 416 75T336 165T239 234T144
268ZM849 220Q903 220 948 239T1025 312T1076 459T1094 702Q1094 819 1085 902T1059 1041T1019 1131T969 1182T911 1205T849 1210Q817 1210 787 1205T730 1183T679 1132T640 1042T614 902T604 702Q604 553 622 460T672 313T750 240T849 220Z" />
<glyph unicode="1" glyph-name="one" horiz-adv-x="1021" d="M80 0Q86 25 91 62T97 136Q97 171 94 203T80 260Q122 260 167 267T249 290T309 335T333 407V501Q333 534 328 569T314 634T291 683T259 705Q277 708 291 725T314 765T328 815T333 863Q333 899 324 922T296
960T247 979T174 985Q163 985 146 985T112 983T80 981T59 978Q61 990 63 1008T66 1047T69 1087T70 1124Q70 1159 67 1198T57 1262Q115 1262 170 1268T272 1295T357 1352T419 1450Q435 1445 456 1442T500 1438T547 1436T592 1435Q614 1435 642 1435T697 1437T746
1442T779 1450Q776 1421 773 1378T768 1283T764 1172T762 1051V901Q762 865 769 831T788 770T816 726T850 705Q832 703 816 684T788 635T769 570T762 501V407Q762 364 779 336T828 291T903 267T998 260Q994 236 989 204T983 136Q983 99 987 62T998 0Q960 5 907
9T790 17T659 23T521 25Q455 25 391 24T270 19T165 11T80 0Z" />
<glyph unicode="2" glyph-name="two" horiz-adv-x="1529" d="M112 5Q115 19 119 46T127 108T134 183T137 263Q137 315 131 359T112 429Q138 430 177 443T259 479T345 529T422 587T477 648T499 704Q499 730 475 748Q497 740 523 740Q561 740 607 754T702 791T794
847T874 916T930 992T951 1069Q951 1147 906 1179T752 1212Q675 1212 629 1191T557 1128T524 1027T516 890Q477 898 425 904T316 910Q262 910 212 904T112 890Q115 906 119 924T127 968T134 1031T137 1124Q137 1144 136 1166T131 1208T123 1247T112 1277Q189 1277
248 1296T352 1344T426 1402T474 1455Q490 1447 524 1439T607 1425T717 1414T848 1410Q908 1410 964 1413T1066 1422T1144 1435T1190 1451Q1190 1411 1203 1369T1239 1287T1291 1211T1351 1146T1414 1095T1471 1065Q1453 1051 1430 1028T1382 977T1333 916T1291
853T1261 792T1249 739Q1249 703 1280 690Q1230 687 1169 666T1042 612T910 536T785 447T676 355T595 268Q653 245 711 235T830 225Q874 225 906 235T959 262T994 300T1014 343T1024 385T1026 420Q1065 412 1111 409T1208 405Q1256 405 1305 408T1403 420Q1400
404 1398 373T1393 302T1389 219T1388 135Q1388 90 1393 56T1403 5Q1371 16 1321 23T1192 30Q1165 30 1132 27T1065 17T1005 2T962 -15Q935 -2 886 6T778 20T658 27T544 30Q478 30 423 30T316 27T216 19T112 5Z" />
<glyph unicode="3" glyph-name="three" horiz-adv-x="1529" d="M104 159Q109 168 112 186T117 227T119 273T120 315Q120 379 116 430T104 520Q155 512 207 509T314 505Q342 505 372 506T430 509T484 513T529 520Q529 368 586 294T755 220Q804 220 844 235T911
276T954 336T969 410Q969 460 952 497T905 558T834 594T745 606Q706 606 672 604T603 600Q609 623 614 652T619 713Q619 746 614 778T603 837Q651 834 708 834Q752 834 797 845T878 881T936 943T959 1034Q959 1120 916 1170T775 1220Q724 1220 679 1204T601 1151T549
1053T529 900Q451 915 336 915Q282 915 230 912T126 900Q132 932 136 988T141 1120Q141 1140 140 1165T136 1213T131 1255T126 1282Q203 1282 265 1300T373 1344T452 1399T502 1450Q517 1442 548 1434T621 1420T710 1409T807 1405Q852 1405 897 1409T981 1419T1051
1434T1096 1450Q1108 1422 1141 1391T1219 1335T1313 1292T1406 1275Q1400 1264 1394 1241T1384 1190T1377 1130T1374 1070Q1374 1006 1383 961T1406 888Q1358 871 1300 839T1193 754Q1216 726 1251 705T1322 668T1393 646T1448 638Q1441 627 1436 603T1428 548T1423
485T1421 425Q1421 389 1421 361T1425 308T1433 264T1448 225Q1421 225 1388 215T1319 187T1248 146T1182 96T1127 43T1091 -10Q1077 -3 1048 3T979 14T896 22T808 25Q760 25 709 23T613 16T532 5T481 -10Q463 11 431 40T352 96T243 140T104 159Z" />
<glyph unicode="4" glyph-name="four" horiz-adv-x="1529" d="M87 410Q91 420 92 433T94 463Q94 498 87 535T70 608T49 674T27 724Q72 740 130 788T249 904T369 1048T474 1200T548 1337T576 1440Q586 1436 607 1432T655 1424T714 1418T779 1415Q808 1415 847 1417T925
1424T998 1435T1053 1450Q1040 1430 1035 1387T1029 1292Q1029 1256 1031 1221T1039 1156T1052 1106T1069 1079Q1049 1081 1031 1082T996 1083Q951 1083 915 1076T846 1055T781 1022T711 980Q608 917 552 833T482 664Q519 654 544 652T593 649Q688 649 742 652T824
670T858 712T865 790Q865 825 864 858T854 930Q878 922 900 917T945 910T992 906T1044 905Q1080 905 1106 907T1152 912T1191 920T1230 930Q1224 877 1216 837T1207 760Q1207 733 1208 712T1219 676T1250 653T1313 645Q1324 645 1342 645T1380 645T1422 647T1462
650Q1455 632 1451 598T1447 515Q1447 492 1448 476T1451 449T1456 430T1462 415Q1411 423 1374 426T1312 429Q1266 429 1236 419T1206 377V323Q1206 282 1259 271T1423 260Q1418 236 1413 204T1408 136Q1408 99 1412 62T1423 0Q1390 5 1331 9T1201 17T1056 23T919
25Q846 25 788 24T682 19T595 11T521 0Q528 25 532 62T536 136Q536 171 533 203T521 260Q621 260 684 262T784 271T834 290T848 323L847 417Q817 421 782 424T707 428T626 430T544 431Q464 431 404 431T298 429T221 426T164 422T122 416T87 410Z" />
<glyph unicode="5" glyph-name="five" horiz-adv-x="1529" d="M142 139Q150 176 150 239Q150 267 149 297T145 356T139 409T133 451Q187 443 242 439T355 435Q412 435 468 439T565 451Q564 443 564 437T564 423Q564 364 582 325T628 262T693 230T765 220Q812 220
852 230T921 267T967 338T984 451Q984 504 969 545T925 615T856 659T766 674Q699 674 653 653T577 600Q557 608 529 612T470 618T409 620T356 620Q322 620 294 619T241 614T193 608T145 600Q151 612 156 650T164 744T169 865T171 1000Q171 1072 169 1142T163 1273T155
1377T145 1440Q169 1434 209 1429T301 1420T410 1414T527 1409T642 1406T745 1405Q786 1405 847 1406T976 1409T1113 1414T1240 1421T1340 1429T1394 1440Q1391 1432 1389 1408T1384 1353T1380 1291T1379 1237Q1379 1197 1380 1168T1383 1117T1388 1078T1394 1045Q1338
1053 1295 1056T1204 1060Q1122 1060 1063 1057T970 1045Q970 1089 964 1120T937 1172T875 1201T763 1210Q730 1210 684 1200T580 1161Q580 1131 580 1093T581 1016T582 938T583 866Q643 870 689 893T753 945Q769 938 793 934T848 926T911 922T979 920Q1010 920
1041 922T1100 928T1150 936T1184 945Q1192 903 1222 856T1292 768T1370 701T1436 674Q1429 662 1424 639T1416 584T1412 518T1410 448Q1410 412 1410 378T1414 315T1422 261T1436 220Q1417 220 1386 210T1317 181T1241 140T1168 91T1109 39T1073 -10Q1059 -4 1028
2T957 13T870 22T780 25Q736 25 693 23T611 16T544 5T498 -10Q480 12 452 38T382 86T280 124T142 139Z" />
<glyph unicode="6" glyph-name="six" horiz-adv-x="1529" d="M101 208Q109 219 116 251T130 328T140 429T144 541Q144 614 124 657T67 707Q89 709 104 729T128 781T141 852T145 931Q145 1025 131 1088T104 1171Q150 1179 203 1201T305 1259T396 1343T462 1450Q475
1440 510 1432T591 1417T691 1408T795 1405Q836 1405 876 1408T951 1417T1013 1431T1056 1450Q1074 1428 1102 1402T1171 1354T1269 1316T1401 1301Q1398 1284 1396 1258T1393 1201Q1393 1173 1394 1143T1398 1084T1404 1030T1410 989Q1356 997 1296 1001T1178
1005Q1121 1005 1070 1001T978 989Q978 1056 967 1101T933 1172T877 1209T799 1220Q745 1220 703 1209T632 1172T587 1103T572 994V803Q605 817 637 841T682 891Q712 877 774 872T921 866Q963 866 1002 867T1074 871T1130 876T1165 884Q1174 842 1210 806T1291
742T1382 699T1456 683Q1449 671 1444 649T1436 598T1432 536T1430 467Q1430 431 1431 396T1435 329T1443 272T1456 230Q1405 223 1346 196T1235 134T1143 59T1090 -10Q1077 -5 1049 1T984 12T903 21T818 25Q773 25 729 22T647 14T580 2T536 -10Q522 12 483 46T386
115T255 175T101 208ZM579 450Q579 384 594 340T638 269T705 231T792 220Q837 220 874 231T937 268T979 339T994 450Q994 513 979 554T938 620T874 655T792 665Q744 665 705 655T638 621T595 555T579 450Z" />
<glyph unicode="7" glyph-name="seven" horiz-adv-x="1360" d="M235 0Q243 25 247 62T252 136Q252 171 248 203T235 260Q327 260 391 295T496 384T555 499T573 615Q573 657 563 688T534 733Q593 751 643 789T733 881T804 1003T853 1152Q836 1155 815 1157T766
1160T699 1163T608 1164Q555 1164 522 1145T469 1096T443 1027T435 949Q435 941 435 928T435 901T437 874T440 850Q362 865 263 865Q240 865 212 864T154 862T95 857T41 850Q44 866 48 902T57 983T64 1075T67 1160Q67 1191 66 1228T61 1303T53 1376T41 1440Q59
1435 83 1432T132 1426T183 1422T228 1420Q252 1420 282 1421T340 1425T390 1431T420 1440Q423 1428 428 1413T443 1383T465 1354T499 1330Q527 1348 550 1375T585 1440Q651 1420 727 1413T879 1405Q937 1405 993 1406T1098 1411T1185 1422T1245 1440Q1244 1436
1244 1426Q1244 1397 1254 1359T1281 1282T1323 1213T1375 1169Q1330 1161 1293 1140T1227 1088T1175 1021T1139 948T1117 875T1109 810Q1109 781 1115 761T1136 733Q1118 728 1092 712T1038 669T981 609T931 535T894 451T880 359Q880 336 888 318T918 287T973
267T1060 260Q1055 236 1050 204T1045 136Q1045 99 1049 62T1060 0Q1023 5 976 9T874 17T761 23T642 25Q586 25 528 24T416 19T315 11T235 0Z" />
<glyph unicode="8" glyph-name="eight" horiz-adv-x="1529" d="M57 225Q66 243 73 271T85 333T92 403T95 475Q95 529 90 573T74 638Q96 638 130 645T201 668T273 704T333 754Q282 808 223 840T116 888Q123 902 128 925T136 976T141 1035T143 1099Q143 1156 136
1204T116 1275Q160 1275 209 1292T301 1334T377 1391T422 1450Q438 1442 474 1434T557 1420T657 1409T764 1405Q816 1405 870 1409T971 1419T1053 1434T1105 1450Q1117 1421 1150 1391T1226 1334T1318 1292T1411 1275Q1399 1253 1392 1205T1385 1099Q1385 1067
1386 1036T1391 976T1399 925T1411 888Q1363 873 1304 841T1194 754Q1218 726 1253 705T1326 668T1398 646T1454 638Q1442 617 1438 573T1433 475Q1433 440 1435 404T1443 334T1455 272T1472 225Q1444 225 1409 215T1337 187T1264 146T1195 96T1138 43T1100 -10Q1085
-3 1050 3T969 15T868 24T763 27Q712 27 659 24T559 16T477 4T428 -10Q408 28 364 69T265 145T155 202T57 225ZM764 831Q812 831 851 839T919 870T962 930T978 1028Q978 1071 965 1106T926 1167T859 1206T764 1220Q712 1220 674 1206T610 1167T573 1107T560 1028Q560
968 575 930T617 870T681 840T764 831ZM534 413Q534 357 551 320T600 260T673 229T764 220Q813 220 854 229T927 260T975 319T993 413Q993 522 935 568T764 615Q652 615 593 569T534 413Z" />
<glyph unicode="9" glyph-name="nine" horiz-adv-x="1529" d="M150 139Q158 176 158 239Q158 267 157 297T153 356T148 409T142 451Q193 443 246 439T353 435Q407 435 461 439T553 451Q553 383 566 339T605 268T665 231T744 220Q796 220 835 231T899 268T937 337T950
446V638Q930 631 909 621T870 600T837 575T815 549Q786 563 728 568T588 574Q551 574 517 573T455 569T406 563T375 556Q370 584 353 609T310 657T255 698T196 729T141 750T98 757Q104 769 108 791T116 842T121 904T123 973Q123 1009 122 1044T119 1110T111 1168T98
1210Q147 1217 203 1244T309 1306T396 1381T446 1450Q459 1444 487 1436T552 1422T631 1410T716 1405Q758 1405 801 1409T883 1419T951 1434T995 1450Q1008 1428 1043 1394T1132 1325T1253 1265T1398 1232Q1391 1221 1384 1189T1371 1112T1362 1011T1358 899Q1358
826 1377 783T1431 733Q1410 731 1396 711T1373 659T1361 588T1357 509Q1357 462 1361 423T1371 352T1384 300T1396 269Q1351 261 1303 239T1209 181T1125 97T1064 -10Q1052 -2 1017 4T936 15T837 22T738 25Q697 25 656 23T579 16T513 5T469 -10Q452 12 427 38T364
86T274 124T150 139ZM741 766Q786 766 823 775T887 809T928 875T943 980Q943 1049 929 1095T887 1169T823 1208T741 1220Q696 1220 659 1209T595 1170T554 1096T539 980Q539 917 553 876T595 810T659 776T741 766Z" />
<glyph unicode=":" glyph-name="colon" horiz-adv-x="680" d="M91 640Q103 667 111 720T120 850Q120 885 118 918T111 981T102 1033T90 1070Q108 1064 135 1059T196 1049T268 1043T345 1040Q381 1040 418 1041T488 1047T547 1056T590 1070Q584 1056 580 1033T572
980T567 918T565 850Q565 784 571 730T590 640Q574 645 548 649T488 657T416 663T339 665Q300 665 263 663T192 658T133 650T91 640ZM91 0Q103 27 111 80T120 210Q120 245 118 278T111 341T102 393T90 430Q108 424 135 419T196 409T268 403T345 400Q381 400 418
401T488 407T547 416T590 430Q584 416 580 393T572 340T567 278T565 210Q565 144 571 90T590 0Q574 5 548 9T488 17T416 23T339 25Q300 25 263 23T192 18T133 10T91 0Z" />
<glyph unicode=";" glyph-name="semicolon" horiz-adv-x="680" d="M91 640Q103 667 111 720T120 850Q120 885 118 918T111 981T102 1033T90 1070Q108 1064 135 1059T196 1049T268 1043T345 1040Q381 1040 418 1041T488 1047T547 1056T590 1070Q584 1056 580 1033T572
980T567 918T565 850Q565 784 571 730T590 640Q574 645 548 649T488 657T416 663T339 665Q300 665 263 663T192 658T133 650T91 640ZM91 0Q103 27 111 80T120 210Q120 245 118 278T111 341T102 393T90 430Q108 424 135 419T196 409T268 403T345 400Q381 400 418
401T488 407T547 416T590 430Q583 417 578 391T568 332T562 259T560 179Q560 113 567 55T590 -40Q545 -48 512 -72T458 -129T426 -196T415 -260Q410 -257 399 -255T373 -252T343 -249T314 -248Q274 -248 242 -250T197 -260Q212 -234 219 -189T227 -95Q227 -59 221
-28T204 18Q167 15 138 10T91 0Z" />
<glyph unicode="&lt;" glyph-name="less" horiz-adv-x="1536" d="M1245 1281L1248 1285L1245 1281ZM120 588Q128 602 130 615T133 641Q133 653 131 666T120 694Q155 701 219 727T365 791T540 876T728 973T909 1072T1067 1162T1185 1235T1245 1281Q1237 1269 1233
1244T1226 1190T1224 1133T1223 1084Q1223 1066 1224 1039T1229 984T1237 935T1248 903Q1245 904 1238 904Q1218 904 1184 892T1105 858T1011 809T910 753T808 694T715 641Q758 616 808 587T909 529T1011 473T1105 424T1183 391T1238 378Q1245 378 1248 379Q1242
370 1238 348T1230 298T1225 244T1223 198Q1223 178 1223 150T1226 92T1232 38T1244 1Q1231 15 1183 46T1065 120T907 211T726 309T539 406T365 491T219 555T120 588ZM1245 1L1248 -3L1245 1Z" />
<glyph unicode="=" glyph-name="equal" horiz-adv-x="1360" d="M119 760Q125 777 129 819T134 915Q134 929 133 950T130 994T126 1037T119 1070Q157 1062 194 1058T270 1051T351 1048T442 1047H918Q967 1047 1009 1047T1090 1050T1166 1057T1241 1070Q1238 1058
1236 1038T1231 995T1227 951T1226 915Q1226 861 1230 819T1241 760Q1203 768 1166 773T1090 780T1009 784T918 785H442Q393 785 351 784T270 781T194 773T119 760ZM119 280Q125 297 129 339T134 435Q134 449 133 470T130 514T126 557T119 590Q157 582 194 578T270
571T351 568T442 567H918Q967 567 1009 567T1090 570T1166 577T1241 590Q1238 578 1236 558T1231 515T1227 471T1226 435Q1226 381 1230 339T1241 280Q1203 288 1166 293T1090 300T1009 304T918 305H442Q393 305 351 304T270 301T194 293T119 280Z" />
<glyph unicode="&gt;" glyph-name="greater" horiz-adv-x="1536" d="M291 1281Q288 1282 288 1285L291 1281ZM291 1Q299 13 303 38T310 92T312 149T313 198Q313 216 312 243T307 298T299 347T288 379Q291 378 297 378Q317 378 351 390T429 424T523 472T625 529T727
587T820 641Q777 665 727 694T626 752T525 808T431 857T353 891T298 904Q291 904 288 903Q294 912 298 934T306 984T311 1038T313 1084Q313 1104 313 1132T310 1189T304 1243T291 1280Q304 1266 351 1235T470 1162T629 1071T810 973T996 876T1171 791T1317 727T1416
694Q1408 680 1406 667T1403 641Q1403 629 1405 616T1416 588Q1381 581 1317 556T1172 492T997 406T811 310T630 211T471 120T352 47T291 1ZM288 -3Q288 -1 291 1L288 -3Z" />
<glyph unicode="?" glyph-name="question" horiz-adv-x="1364" d="M495 436Q495 472 483 498T453 541T414 568T375 579Q389 590 401 608T421 650T435 700T440 751Q440 769 438 786T429 817Q500 817 568 835T690 887T777 968T810 1074Q810 1220 682 1220Q642 1220
607 1203T544 1148T501 1049T485 897Q447 905 398 909T295 913Q244 913 193 909T94 897Q97 913 100 942T105 1007T108 1082T110 1159Q110 1201 108 1233T102 1282Q175 1282 231 1300T330 1344T400 1399T445 1450Q459 1438 484 1430T544 1416T617 1408T699 1405Q735
1405 771 1407T839 1415T894 1429T929 1450Q936 1421 963 1390T1030 1332T1118 1289T1215 1271Q1204 1249 1197 1201T1190 1095Q1190 1031 1195 977T1215 894Q1186 893 1143 881T1053 849T958 800T872 738T811 666T787 587Q787 535 796 501T820 438Q804 441 789
444T754 449T712 452T656 454Q638 454 614 453T566 449T523 444T495 436ZM386 0Q397 23 406 68T415 180Q415 211 413 240T406 294T397 338T385 370Q403 364 430 359T491 349T563 343T640 340Q676 340 713 341T783 347T842 356T885 370Q872 346 866 293T860 180Q860
123 866 77T885 0Q869 5 843 9T783 17T711 23T634 25Q595 25 558 23T487 18T428 10T386 0Z" />
<glyph unicode="@" glyph-name="at" horiz-adv-x="2563" d="M190 449Q187 486 183 522T171 588T150 636T117 660Q137 663 151 680T175 723T194 783T210 852Q236 963 296 1052T439 1210T624 1329T833 1411T1050 1459T1260 1474Q1476 1474 1660 1445T1985 1348T2222
1170T2356 897Q2366 854 2374 813T2391 738T2413 683T2446 660Q2426 658 2412 641T2386 595T2368 531T2354 457Q2339 354 2291 281T2178 162T2040 93T1901 71Q1863 71 1827 68T1757 60T1696 48T1649 36Q1644 66 1621 112T1534 216Q1497 183 1471 137T1444 36Q1439
41 1419 45T1368 53T1301 59T1225 61Q1189 61 1154 60T1091 55T1042 47T1016 36Q1003 81 961 123T867 199T760 252T669 272Q694 307 704 382T715 572Q715 623 712 670T703 758T689 827T669 872Q693 872 730 883T810 914T895 959T975 1011T1038 1065T1072 1116Q1090
1107 1107 1101T1146 1090T1196 1083T1266 1081Q1332 1081 1375 1092T1438 1116Q1449 1064 1466 1031T1514 979Q1534 1004 1548 1034T1569 1096Q1592 1083 1640 1077T1754 1071Q1773 1071 1796 1072T1841 1077T1884 1084T1918 1096Q1901 1070 1881 1019T1843 901T1815
761T1803 618Q1803 516 1812 448T1835 340T1863 283T1889 266Q1943 266 1990 290T2073 368T2129 505T2149 708Q2149 817 2119 904T2033 1057T1898 1171T1723 1249T1514 1293T1278 1307Q1063 1307 905 1263T642 1132T486 917T434 622Q434 419 481 269T634 20T912
-127T1332 -176Q1364 -176 1411 -172T1510 -161T1615 -143T1713 -119T1789 -91T1830 -60Q1830 -77 1835 -99T1855 -145T1892 -190T1952 -225Q1917 -237 1894 -257T1856 -299T1836 -342T1827 -380Q1817 -364 1773 -354T1668 -340T1537 -334T1403 -332H1303Q1079
-332 884 -286T541 -145T300 98T190 449ZM1100 523Q1100 393 1136 330T1231 266Q1266 266 1302 288T1367 363T1416 499T1435 708Q1435 738 1434 770T1430 837Q1395 863 1365 872T1297 881Q1240 881 1202 856T1142 784T1110 671T1100 523Z" />
<glyph unicode="A" glyph-name="A" horiz-adv-x="1707" d="M8 0Q14 25 17 61T20 137Q20 173 18 204T10 260Q61 262 97 278T156 315Q180 352 205 398T250 492T284 589T297 680Q297 697 292 714T275 735Q305 743 335 779T393 868T445 986T487 1117T515 1247T525
1359Q525 1376 523 1392T521 1419Q521 1424 521 1428T522 1440Q545 1431 579 1425T657 1414T749 1407T851 1405Q897 1405 945 1407T1038 1413T1122 1424T1187 1440V1436V1427Q1187 1416 1185 1400T1182 1363Q1182 1317 1190 1255T1214 1127T1250 995T1298 875T1354
783T1417 735Q1403 730 1398 716T1392 680Q1392 638 1404 590T1437 493T1482 399T1531 318Q1546 309 1567 299T1611 280T1657 266T1700 260Q1695 236 1693 205T1690 137Q1690 98 1693 62T1702 0Q1666 4 1619 8T1518 16T1406 22T1290 25Q1184 25 1089 19T927 0Q930
17 932 53T935 135Q935 154 934 173T932 210T930 240T927 260Q945 260 965 261T1004 267T1042 278T1074 297Q1072 337 1061 365T1020 413T935 441T792 450Q713 450 661 444T576 422T528 376T508 298Q523 286 544 279T587 268T632 262T673 260Q671 254 670 241T667
211T666 173T665 135Q665 90 667 54T673 0Q597 14 519 19T360 25Q266 25 178 20T8 0ZM648 743Q648 714 654 695T677 665T722 650T795 645Q839 645 867 649T912 665T935 695T942 743Q942 778 924 829T882 936T833 1048T795 1149Q780 1104 755 1048T707 936T666 829T648
743Z" />
<glyph unicode="B" glyph-name="B" horiz-adv-x="1539" d="M100 0Q106 25 110 60T115 134Q115 169 110 202T100 260Q145 260 179 267T236 290T270 335T282 407Q282 491 278 551T265 650T243 709T213 735Q231 741 244 754T265 798T278 885T282 1033Q282 1076 271
1104T236 1149T179 1173T100 1180Q105 1204 110 1237T115 1306Q115 1344 111 1379T100 1440Q113 1435 151 1430T240 1422T352 1415T470 1410T578 1406T662 1405Q745 1405 824 1406T971 1412T1088 1423T1161 1440Q1162 1419 1177 1396T1216 1349T1271 1303T1332
1264T1392 1236T1443 1224Q1436 1211 1431 1187T1421 1131T1415 1067T1413 1004Q1413 940 1419 885T1443 800Q1401 792 1359 768T1280 711Q1334 679 1397 659T1515 630Q1507 617 1501 596T1492 549T1487 494T1485 436Q1485 406 1486 373T1492 309T1501 253T1515
216Q1487 215 1451 205T1376 179T1300 141T1231 96T1179 48T1153 0Q1141 6 1094 10T979 18T828 23T662 25Q630 25 578 24T466 21T345 17T232 12T144 6T100 0ZM685 844Q699 839 713 836T746 830T789 826T845 825Q895 825 927 840T978 881T1004 942T1012 1019Q1012
1054 1008 1086T988 1144T941 1185T855 1200Q810 1200 765 1194T683 1172Q679 1144 678 1111T676 1042Q676 989 678 938T685 844ZM683 244Q731 231 782 226T895 220Q952 220 989 236T1050 281T1082 347T1092 429Q1092 468 1087 504T1062 568T1005 613T905 630Q822
630 771 624T684 601Q679 567 677 526T675 440Q675 388 677 338T683 244Z" />
<glyph unicode="C" glyph-name="C" horiz-adv-x="1707" d="M106 268Q125 294 141 374T157 594Q157 657 140 690T91 735Q109 740 122 758T144 802T157 859T161 924Q161 1010 147 1076T106 1172H114Q147 1172 188 1187T271 1226T352 1281T423 1344T475 1406T497
1460Q530 1442 612 1424T830 1405Q862 1405 898 1409T969 1420T1034 1438T1083 1460Q1093 1429 1113 1397T1162 1341Q1190 1363 1202 1391T1220 1440Q1229 1435 1248 1432T1292 1426T1346 1422T1405 1420Q1423 1420 1447 1421T1495 1425T1543 1431T1583 1440Q1581
1432 1577 1409T1568 1356T1561 1292T1558 1227Q1558 1163 1561 1106T1567 1003T1575 924T1583 875Q1559 879 1532 881T1476 886T1420 889T1372 890Q1250 890 1153 875Q1153 943 1135 1004T1083 1110T999 1183T885 1210Q850 1210 815 1204T748 1180T688 1127T640
1037T608 898T596 702Q596 557 618 464T680 316T771 241T885 220Q946 220 992 245T1070 316T1118 423T1134 559Q1134 568 1134 577T1133 595Q1167 588 1195 583T1250 575T1306 571T1373 570Q1437 570 1492 577T1583 595Q1577 583 1573 559T1565 504T1560 439T1558
371Q1558 331 1565 287T1583 203Q1495 202 1428 176T1315 114T1242 43T1208 -10Q1187 -2 1159 4T1094 15T1007 22T895 25Q828 25 763 22T642 12T547 -3T491 -20Q479 26 438 75T341 165T223 234T106 268Z" />
<glyph unicode="D" glyph-name="D" horiz-adv-x="1703" d="M100 0Q106 25 110 60T115 134Q115 169 110 202T100 260Q145 260 179 267T236 290T270 335T282 407Q282 491 278 551T265 650T243 709T213 735Q231 741 244 756T265 804T278 892T282 1033Q282 1076 271
1104T236 1149T179 1173T100 1180Q105 1204 110 1237T115 1306Q115 1344 111 1379T100 1440Q113 1435 151 1430T240 1422T352 1415T470 1410T578 1406T662 1405Q749 1405 838 1406T1005 1412T1140 1423T1222 1440Q1223 1419 1240 1396T1285 1349T1347 1303T1417
1264T1485 1236T1544 1224Q1539 1194 1537 1163T1534 1101Q1534 1034 1544 972T1572 859T1613 775T1662 735Q1635 729 1612 697T1571 615T1544 498T1534 359Q1534 324 1536 288T1544 216Q1518 215 1486 205T1419 179T1351 141T1290 96T1245 48T1222 0Q1198 7 1140
12T1005 20T839 24T662 25Q629 25 579 25T470 23T352 19T240 14T151 8T100 0ZM687 242Q729 231 777 226T874 220Q940 220 995 250T1092 345T1156 512T1179 759Q1179 980 1106 1095T884 1210Q862 1210 836 1209T784 1204T733 1195T686 1181Q680 1133 678 1045T675
848Q675 764 676 676T679 506T683 356T687 242Z" />
<glyph unicode="E" glyph-name="E" horiz-adv-x="1533" d="M100 0Q106 25 110 60T115 134Q115 169 110 202T100 260Q145 260 179 267T236 290T270 335T282 407Q282 491 278 551T265 650T243 709T213 735Q231 741 244 754T265 798T278 885T282 1033Q282 1076 271
1104T236 1149T179 1173T100 1180Q105 1204 110 1237T115 1306Q115 1344 111 1379T100 1440Q120 1435 169 1431T283 1422T422 1415T566 1410T696 1406T792 1405Q828 1405 884 1406T1004 1409T1136 1415T1263 1422T1368 1430T1434 1440Q1426 1398 1418 1334T1409
1197Q1409 1155 1412 1115T1418 1041T1426 982T1434 945Q1419 951 1397 955T1348 963T1294 968T1240 970Q1194 970 1148 965T1060 945Q1067 966 1071 996T1076 1057Q1076 1108 1059 1138T1014 1185T955 1205T894 1210Q871 1210 846 1209T794 1202T741 1187T693
1161Q689 1138 686 1108T683 1033Q683 966 685 929T692 871Q719 859 755 854T829 849Q886 849 937 858T1011 879Q1003 857 1000 818T996 736Q996 712 997 689T1000 646T1005 612T1011 590Q1002 595 982 600T936 611T878 619T813 623Q779 623 748 619T692 604Q690
592 689 577T686 538T684 482T683 407Q683 353 687 320T696 262Q720 249 747 241T801 228T855 222T904 220Q933 220 963 227T1019 255T1060 312T1076 406Q1076 442 1072 477T1060 535Q1102 521 1148 516T1240 510Q1266 510 1294 511T1348 516T1396 524T1434 535Q1431
522 1427 495T1419 432T1412 352T1409 263Q1409 224 1411 187T1417 115T1425 52T1434 0Q1414 4 1369 7T1264 13T1137 18T1005 22T884 24T792 25Q756 25 697 25T567 23T422 19T283 14T169 8T100 0Z" />
<glyph unicode="F" glyph-name="F" horiz-adv-x="1538" d="M100 0Q106 25 110 60T115 134Q115 169 110 202T100 260Q145 260 179 267T236 290T270 335T282 407Q282 491 278 551T265 650T243 709T213 735Q231 741 244 754T265 798T278 885T282 1033Q282 1076 271
1104T236 1149T179 1173T100 1180Q105 1204 110 1237T115 1306Q115 1344 111 1379T100 1440Q120 1435 169 1431T283 1422T422 1415T566 1410T696 1406T792 1405Q828 1405 888 1406T1018 1409T1163 1415T1302 1422T1416 1430T1485 1440Q1477 1398 1469 1334T1460
1197Q1460 1155 1463 1115T1469 1041T1477 982T1485 945Q1455 956 1409 963T1310 970Q1287 970 1261 969T1207 965T1155 957T1110 945Q1117 966 1121 996T1126 1057Q1126 1108 1102 1138T1041 1185T965 1205T894 1210Q871 1210 846 1209T794 1202T741 1187T693
1161Q689 1138 686 1108T683 1033Q683 966 685 929T692 871Q707 865 728 861T772 854T817 850T859 849Q887 849 918 851T977 858T1027 867T1061 879Q1053 857 1050 818T1046 736Q1046 712 1047 689T1050 646T1055 612T1061 590Q1052 595 1029 601T976 612T911 620T843
623Q826 623 806 622T765 619T725 613T692 604Q690 592 689 577T686 538T684 482T683 407Q683 360 702 331T760 287T860 266T1005 260Q1000 236 995 203T990 134Q990 96 994 61T1005 0Q977 6 924 10T807 18T679 23T563 25Q509 25 441 24T308 19T186 11T100 0Z"
/>
<glyph unicode="G" glyph-name="G" horiz-adv-x="1699" d="M100 268Q119 294 135 374T151 594Q151 657 134 690T85 735Q103 740 116 758T138 802T151 859T155 924Q155 1010 141 1076T100 1172H108Q142 1172 184 1187T271 1226T357 1281T432 1344T487 1406T511
1460Q527 1451 551 1442T612 1424T697 1410T815 1405Q848 1405 883 1409T952 1420T1015 1438T1063 1460Q1075 1422 1097 1394T1149 1347Q1173 1369 1184 1394T1200 1440Q1209 1435 1234 1432T1291 1426T1359 1422T1425 1420Q1501 1420 1573 1440Q1571 1432 1567
1409T1558 1356T1551 1292T1548 1227Q1548 1163 1551 1106T1557 1003T1565 924T1573 875Q1525 883 1480 886T1392 890Q1362 890 1327 889T1256 887T1189 882T1133 875Q1133 943 1120 1004T1079 1110T1005 1183T895 1210Q860 1210 825 1204T759 1180T700 1127T653
1037T622 898T610 702Q610 557 635 466T702 322T799 250T915 230Q975 230 1013 242T1074 273T1104 316T1112 367Q1112 389 1107 404T1086 430T1042 445T970 450Q978 478 981 508T985 583Q985 618 981 644T970 695Q1024 681 1087 676T1210 670Q1261 670 1319 671T1433
676T1536 684T1610 695Q1591 647 1579 590T1559 471T1548 349T1544 232Q1544 151 1549 89T1563 0Q1538 0 1502 11T1426 41T1349 82T1284 128Q1258 127 1226 111T1166 71T1120 23T1101 -20Q1084 -11 1052 -3T983 11T908 21T845 25Q709 25 624 12T505 -20Q497 11
474 43T418 106T345 164T263 214T178 250T100 268Z" />
<glyph unicode="H" glyph-name="H" horiz-adv-x="1879" d="M67 0Q73 25 77 60T82 134Q82 169 77 202T67 260Q117 260 151 267T208 290T239 335T249 407Q249 491 245 551T232 650T210 709T180 735Q198 741 211 756T232 807T245 900T249 1051Q249 1091 238 1116T205
1155T154 1175T87 1180H67Q72 1204 77 1235T82 1302Q82 1339 78 1377T67 1440Q86 1433 126 1427T219 1416T332 1408T449 1405Q506 1405 565 1408T677 1416T771 1427T832 1440Q826 1415 822 1377T817 1302Q817 1267 822 1236T832 1180H813Q779 1180 750 1175T698
1156T663 1116T650 1051Q650 982 652 934T659 851Q716 840 789 835T940 830Q1018 830 1090 835T1220 852Q1225 887 1227 935T1229 1051Q1229 1091 1218 1116T1185 1155T1134 1175T1067 1180H1047Q1052 1204 1057 1235T1062 1302Q1062 1339 1058 1377T1047 1440Q1066
1433 1106 1427T1199 1416T1312 1408T1429 1405Q1486 1405 1545 1408T1657 1416T1751 1427T1812 1440Q1806 1415 1802 1377T1797 1302Q1797 1267 1802 1236T1812 1180H1793Q1759 1180 1730 1175T1678 1156T1643 1116T1630 1051Q1630 959 1634 901T1646 807T1668
757T1699 735Q1682 730 1669 710T1648 650T1635 551T1630 407Q1630 364 1641 336T1676 291T1733 267T1812 260Q1807 236 1802 203T1797 134Q1797 96 1801 61T1812 0Q1783 6 1739 10T1643 18T1536 23T1429 25Q1378 25 1323 24T1215 19T1119 11T1047 0Q1053 25 1057
60T1062 134Q1062 169 1057 202T1047 260Q1097 260 1131 267T1188 290T1219 335T1229 407Q1229 526 1220 600Q1163 612 1091 618T940 625Q865 625 791 619T659 602Q650 528 650 407Q650 364 661 336T696 291T753 267T832 260Q827 236 822 203T817 134Q817 96 821
61T832 0Q803 6 759 10T663 18T556 23T449 25Q398 25 343 24T235 19T139 11T67 0Z" />
<glyph unicode="I" glyph-name="I" horiz-adv-x="1022" d="M110 0Q116 25 120 60T125 134Q125 169 120 202T110 260Q155 260 193 267T260 290T305 335T322 407Q322 491 318 551T305 650T283 709T253 735Q271 741 284 756T305 807T318 900T322 1051Q322 1091 304
1116T256 1155T190 1175T119 1180H100Q105 1204 110 1235T115 1302Q115 1339 111 1377T100 1440Q119 1433 166 1427T274 1416T400 1408T523 1405Q581 1405 642 1408T757 1416T853 1427T915 1440Q909 1415 905 1377T900 1302Q900 1267 905 1236T915 1180H894Q857
1180 826 1175T772 1156T736 1116T723 1051Q723 959 727 901T739 807T761 757T792 735Q775 730 762 710T741 650T728 551T723 407Q723 364 737 336T779 291T845 267T935 260Q930 236 925 203T920 134Q920 96 924 61T935 0Q906 6 858 10T752 18T634 23T523 25Q472
25 412 24T294 19T187 11T110 0Z" />
<glyph unicode="J" glyph-name="J" horiz-adv-x="1368" d="M65 273Q74 303 82 342T90 421Q90 454 87 490T79 558T69 617T57 655Q75 649 101 645T158 637T222 632T287 630Q317 630 351 631T419 635T487 643T547 655Q541 628 538 598T534 529Q534 509 535 486T540
441T547 397T556 360Q514 353 494 330T473 277Q473 256 506 238T610 220Q663 220 701 240T764 298T800 387T812 505Q812 608 795 666T743 735Q761 741 775 753T799 790T814 854T820 951Q820 993 815 1024T801 1080Q790 1112 770 1131T708 1162T600 1176T428 1180Q433
1204 438 1235T443 1302Q443 1339 439 1377T428 1440Q451 1433 504 1427T625 1416T771 1408T921 1405Q994 1405 1065 1408T1196 1415T1303 1426T1373 1440Q1366 1415 1362 1377T1358 1302Q1358 1267 1363 1236T1373 1180H1353Q1317 1180 1292 1175T1252 1156T1229
1116T1221 1051Q1221 959 1225 901T1239 807T1261 757T1292 735Q1278 735 1267 713T1249 654T1237 571T1232 479Q1232 443 1234 410T1243 348T1257 298T1278 268Q1233 262 1191 236T1115 170T1057 84T1023 -10Q1009 -1 972 5T884 16T775 23T663 25Q545 25 463 16T340
-10Q338 35 323 84T276 175T192 244T65 273Z" />
<glyph unicode="K" glyph-name="K" horiz-adv-x="1879" d="M100 0Q106 25 110 60T115 134Q115 169 110 202T100 260Q145 260 179 267T236 290T270 335T282 407Q282 491 278 551T265 650T243 709T213 735Q231 741 244 756T265 807T278 900T282 1051Q282 1091 269
1116T234 1155T183 1175T119 1180H100Q105 1204 110 1235T115 1302Q115 1339 111 1377T100 1440Q119 1433 160 1427T254 1416T366 1408T483 1405Q541 1405 600 1408T712 1416T805 1427T865 1440Q859 1415 855 1377T850 1302Q850 1267 855 1236T865 1180H844Q808
1180 778 1175T727 1156T695 1116T683 1051Q683 979 685 929T693 843Q715 836 747 836Q765 836 784 836T827 837T878 838T944 841Q997 873 1040 913T1114 991T1162 1063T1179 1114Q1179 1134 1173 1147T1152 1167T1108 1177T1037 1180Q1045 1204 1048 1240T1052
1308Q1052 1341 1048 1378T1035 1440Q1055 1431 1096 1425T1187 1414T1294 1407T1400 1405Q1444 1405 1493 1408T1587 1416T1671 1428T1732 1440Q1726 1428 1723 1411T1719 1374T1717 1334T1717 1298Q1717 1267 1720 1236T1732 1180Q1689 1180 1651 1165T1582 1124T1525
1067T1483 1000T1457 932T1448 871Q1418 864 1387 851T1326 822T1268 787T1217 749Q1249 717 1301 688T1407 637T1510 601T1585 587Q1579 557 1579 527Q1579 474 1595 426T1641 341T1709 282T1793 260Q1785 236 1784 203T1782 134Q1782 96 1783 61T1794 0Q1784
4 1751 8T1676 16T1588 22T1508 25Q1484 25 1452 25T1383 23T1309 21T1240 16T1182 9T1145 0Q1156 21 1161 48T1166 105Q1166 152 1155 195T1123 260Q1149 275 1164 292T1188 330T1198 374T1201 425Q1201 465 1175 505T1107 577T1013 629T906 649Q893 649 877 649T840
650Q806 650 768 646T695 626Q683 549 683 407Q683 364 692 336T724 291T780 267T865 260Q860 236 855 203T850 134Q850 96 854 61T865 0Q836 6 792 10T696 18T589 23T483 25Q432 25 377 24T269 19T173 11T100 0Z" />
<glyph unicode="L" glyph-name="L" horiz-adv-x="1532" d="M100 0Q106 25 110 60T115 134Q115 169 110 202T100 260Q145 260 179 267T236 290T270 335T282 407Q282 491 278 551T265 650T243 709T213 735Q231 741 244 756T265 807T278 900T282 1051Q282 1091 269
1116T234 1155T183 1175T119 1180H100Q105 1204 110 1235T115 1302Q115 1339 111 1377T100 1440Q119 1433 160 1427T254 1416T366 1408T483 1405Q541 1405 605 1408T728 1416T832 1427T897 1440Q891 1415 887 1377T882 1302Q882 1267 887 1236T897 1180H876Q838
1180 803 1175T742 1156T699 1116T683 1051Q683 959 687 901T699 807T721 757T752 735Q735 730 722 710T701 650T688 551T683 407Q683 355 687 321T696 262Q738 241 787 233T880 224Q943 224 985 230T1052 257T1087 318T1097 428Q1097 491 1091 532T1077 601T1060
646T1049 680Q1068 673 1100 668T1168 660T1238 656T1295 655Q1320 655 1348 656T1404 661T1454 669T1493 680Q1488 665 1474 623T1446 525T1421 405T1410 283Q1411 244 1411 204T1414 126T1422 56T1442 0Q1423 4 1378 7T1272 13T1142 18T1007 22T885 24T792 25Q756
25 697 25T567 23T422 19T283 14T169 8T100 0Z" />
<glyph unicode="M" glyph-name="M" horiz-adv-x="2220" d="M107 0Q113 25 117 60T122 134Q122 169 117 202T107 260Q173 260 212 275T273 327T300 425T307 576Q307 645 290 687T250 735Q270 741 285 767T309 834T324 931T329 1051Q329 1091 316 1116T281 1155T230
1175T166 1180H147Q152 1204 157 1235T162 1302Q162 1339 158 1377T147 1440Q165 1433 201 1427T285 1416T386 1408T490 1405Q548 1405 599 1408T694 1416T769 1427T822 1440Q823 1409 838 1358T877 1244T931 1114T993 983T1055 866T1110 778Q1134 812 1164 866T1226
983T1288 1114T1343 1244T1382 1357T1398 1440Q1417 1433 1450 1427T1526 1416T1621 1408T1730 1405Q1781 1405 1834 1408T1934 1416T2018 1427T2073 1440Q2067 1415 2063 1377T2058 1302Q2058 1267 2063 1236T2073 1180H2054Q2020 1180 1991 1175T1939 1156T1904
1116T1891 1051Q1891 986 1895 931T1910 835T1935 767T1970 735Q1947 730 1930 688T1913 576Q1913 527 1923 487T1941 407Q1948 365 1961 337T1996 292T2052 268T2133 260Q2128 236 2123 203T2118 134Q2118 96 2122 61T2133 0Q2104 6 2060 10T1964 18T1857 23T1750
25Q1699 25 1644 24T1536 19T1440 11T1368 0Q1374 25 1378 60T1383 134Q1383 169 1378 202T1368 260Q1468 260 1514 294T1560 415Q1560 484 1557 559T1547 702T1531 827T1509 916Q1487 916 1460 884T1403 802T1345 692T1295 575T1259 472T1244 405Q1216 414 1181
417T1110 420Q1074 420 1039 417T976 405Q975 425 961 470T925 570T876 685T819 792T762 873T712 906Q702 874 696 818T686 694T681 552T680 407Q680 364 691 336T726 291T786 267T872 260Q867 236 862 203T857 134Q857 96 861 61T872 0Q843 6 799 10T703 18T596
23T490 25Q439 25 384 24T276 19T180 11T107 0Z" />
<glyph unicode="N" glyph-name="N" horiz-adv-x="1875" d="M100 0Q106 25 110 60T115 134Q115 169 110 202T100 260Q145 260 179 267T236 290T270 335T282 407Q282 498 278 559T265 657T243 712T213 735Q231 741 244 756T265 807T278 900T282 1051Q282 1091 269
1116T234 1155T183 1175T119 1180H100Q105 1204 110 1235T115 1302Q115 1339 111 1377T100 1440Q139 1426 211 1416T398 1405Q473 1405 544 1413T675 1433Q675 1385 695 1324T749 1196T826 1060T917 925T1012 803T1101 703T1174 635T1220 610H1222Q1223 610 1224
610T1228 609Q1236 639 1240 685T1247 789T1251 913T1252 1051Q1252 1091 1239 1116T1204 1155T1153 1175T1089 1180H1070Q1075 1204 1080 1235T1085 1302Q1085 1339 1081 1377T1070 1440Q1089 1433 1130 1427T1224 1416T1336 1408T1453 1405Q1511 1405 1570 1408T1682
1416T1775 1427T1835 1440Q1829 1415 1825 1377T1820 1302Q1820 1267 1825 1236T1835 1180H1814Q1778 1180 1748 1175T1697 1156T1665 1116T1653 1051Q1653 959 1658 899T1674 803T1699 752T1732 735Q1715 726 1702 707T1681 647T1668 538T1663 363Q1663 291 1669
232T1683 127T1702 50T1720 0Q1695 8 1664 13T1601 20T1539 24T1487 25Q1463 25 1433 24T1372 21T1308 13T1249 0Q1249 50 1221 119T1146 264T1041 418T923 565T808 690T714 777Q695 732 689 636T683 407Q683 364 692 336T724 291T780 267T865 260Q860 236 855
203T850 134Q850 96 854 61T865 0Q836 6 792 10T696 18T589 23T483 25Q432 25 377 24T269 19T173 11T100 0Z" />
<glyph unicode="O" glyph-name="O" horiz-adv-x="1707" d="M98 268Q117 294 133 374T149 594Q149 657 132 690T83 735Q101 740 114 758T136 802T149 859T153 924Q153 1010 139 1076T98 1172H106Q140 1172 181 1187T266 1226T350 1281T423 1344T476 1406T499 1460Q515
1451 548 1442T628 1424T732 1410T853 1405Q916 1405 973 1410T1077 1423T1157 1441T1207 1460Q1209 1437 1229 1407T1282 1344T1356 1282T1440 1227T1524 1187T1600 1172H1608Q1582 1143 1568 1077T1553 924Q1553 891 1557 860T1570 802T1592 758T1623 735Q1591
724 1574 691T1557 594Q1557 455 1573 375T1608 268Q1554 262 1490 234T1369 165T1268 76T1213 -20Q1197 -11 1163 -3T1081 11T975 21T853 25Q790 25 732 22T626 12T544 -3T493 -20Q481 27 438 75T338 165T216 234T98 268ZM853 220Q909 220 957 239T1041 312T1097
459T1118 702Q1118 819 1108 902T1079 1041T1035 1131T980 1182T918 1205T853 1210Q820 1210 788 1205T727 1183T672 1132T628 1042T599 902T588 702Q588 553 608 460T664 313T748 240T853 220Z" />
<glyph unicode="P" glyph-name="P" horiz-adv-x="1533" d="M100 0Q106 25 110 60T115 134Q115 169 110 202T100 260Q145 260 179 267T236 290T270 335T282 407Q282 491 278 551T265 650T243 709T213 735Q231 741 244 754T265 798T278 885T282 1033Q282 1076 271
1104T236 1149T179 1173T100 1180Q105 1204 110 1237T115 1306Q115 1344 111 1379T100 1440Q113 1435 151 1430T240 1422T352 1415T470 1410T578 1406T662 1405Q752 1405 845 1406T1018 1412T1158 1423T1243 1440Q1245 1409 1271 1372T1333 1303T1408 1248T1475
1224Q1468 1210 1463 1181T1453 1116T1447 1040T1445 964Q1445 926 1446 890T1451 822T1460 764T1475 720Q1436 713 1397 691T1322 640T1259 576T1215 510Q1177 524 1108 533T955 543Q889 543 822 534T692 505Q683 472 683 422Q683 370 694 339T736 290T822 266T965
260Q960 236 955 203T950 134Q950 96 954 61T965 0Q936 6 889 10T787 18T673 23T563 25Q509 25 441 24T308 19T186 11T100 0ZM686 756Q721 745 760 740T845 735Q895 735 933 753T998 805T1038 882T1052 979Q1052 1023 1042 1064T1008 1138T948 1190T855 1210Q812
1210 767 1203T685 1177Q680 1143 678 1101T676 1011Q676 943 679 875T686 756Z" />
<glyph unicode="Q" glyph-name="Q" horiz-adv-x="1707" d="M108 268Q127 294 143 374T159 594Q159 657 142 690T93 735Q111 740 124 758T146 802T159 859T163 924Q163 1010 149 1076T108 1172H116Q149 1172 190 1187T273 1226T354 1281T425 1344T477 1406T499
1460Q515 1451 548 1442T628 1424T732 1410T853 1405Q916 1405 973 1410T1077 1423T1157 1441T1207 1460Q1209 1437 1229 1407T1280 1344T1351 1282T1433 1227T1515 1187T1590 1172H1598Q1572 1143 1558 1077T1543 924Q1543 891 1547 860T1560 802T1582 758T1613
735Q1581 724 1564 691T1547 594Q1547 455 1563 375T1598 268Q1463 244 1381 193T1256 78Q1255 69 1255 62T1254 49Q1254 17 1276 -6T1334 -45T1412 -67T1493 -75Q1533 -75 1580 -66T1678 -40Q1675 -59 1672 -75T1665 -111T1660 -160T1658 -231Q1658 -254 1660
-280T1667 -331T1676 -376T1688 -406Q1664 -397 1622 -391T1531 -380T1435 -373T1355 -371Q1311 -371 1270 -374T1196 -382T1140 -393T1108 -406Q1116 -385 1120 -368T1127 -334T1131 -299T1132 -257Q1132 -194 1125 -143T1089 -56T1001 2T841 25Q780 25 724 22T621
12T542 -3T493 -20Q481 26 440 75T343 165T225 234T108 268ZM853 220Q909 220 956 239T1036 312T1089 459T1108 702Q1108 819 1098 902T1071 1041T1030 1131T978 1182T918 1205T853 1210Q820 1210 789 1205T729 1183T676 1132T635 1042T608 902T598 702Q598 553
616 460T669 313T750 240T853 220Z" />
<glyph unicode="R" glyph-name="R" horiz-adv-x="1703" d="M100 0Q106 25 110 60T115 134Q115 169 110 202T100 260Q145 260 179 267T236 290T270 335T282 407Q282 491 278 551T265 650T243 709T213 735Q231 741 244 754T265 798T278 885T282 1033Q282 1076 271
1104T236 1149T179 1173T100 1180Q105 1204 110 1237T115 1306Q115 1344 111 1379T100 1440Q113 1435 151 1430T240 1422T352 1415T470 1410T578 1406T662 1405Q757 1405 854 1406T1036 1412T1184 1423T1273 1440Q1274 1420 1287 1398T1322 1353T1371 1309T1425
1272T1479 1246T1525 1235Q1518 1221 1513 1194T1503 1134T1497 1065T1495 995Q1495 957 1496 921T1501 852T1510 794T1525 750Q1490 744 1452 731T1377 700T1307 658T1250 609Q1265 588 1285 570T1328 540T1373 520T1416 513Q1416 453 1434 406T1487 327T1570
277T1681 260Q1672 236 1669 203T1666 134Q1666 96 1670 61T1683 0Q1673 4 1644 8T1578 16T1500 22T1428 25Q1390 25 1344 24T1254 21T1174 13T1118 0Q1120 20 1121 39T1122 78Q1122 119 1116 156T1096 225T1060 280T1006 317Q1015 334 1022 363T1029 444Q1029
472 1020 497T989 540T929 568T836 579Q812 579 778 577T706 570Q695 543 689 506T683 407Q683 364 692 336T724 291T780 267T865 260Q860 236 855 203T850 134Q850 96 854 61T865 0Q836 6 792 10T696 18T589 23T483 25Q432 25 377 24T269 19T173 11T100 0ZM685
798Q727 786 773 781T875 775Q929 775 971 791T1043 837T1087 905T1102 990Q1102 1032 1091 1072T1054 1142T987 1191T885 1210Q833 1210 780 1203T684 1179Q679 1147 677 1109T675 1028Q675 966 678 906T685 798Z" />
<glyph unicode="S" glyph-name="S" horiz-adv-x="1529" d="M148 0Q150 8 153 29T160 78T165 139T168 203Q168 286 162 349T148 435Q205 426 255 423T353 420Q441 420 509 435Q509 391 530 352T588 283T678 237T795 220Q838 220 882 224T961 244T1019 287T1041
362Q1041 396 1021 432T957 498T845 546T680 565Q598 565 518 561T343 532Q341 562 322 598T272 665T202 718T121 740H111Q123 745 132 763T146 807T155 864T158 929Q158 1012 150 1078T125 1172H132Q161 1172 196 1187T266 1226T336 1281T396 1344T440 1406T459
1460Q474 1451 496 1442T552 1424T632 1410T741 1405Q778 1405 819 1409T900 1420T973 1438T1028 1460Q1036 1429 1055 1397T1100 1341Q1126 1363 1138 1391T1155 1440Q1170 1431 1200 1426T1278 1420Q1351 1420 1414 1440Q1412 1432 1409 1409T1403 1356T1398
1292T1396 1227Q1396 1140 1402 1075T1414 985Q1363 994 1318 997T1228 1000Q1140 1000 1073 985Q1073 1031 1052 1072T994 1144T904 1192T787 1210Q743 1210 700 1204T621 1181T563 1137T541 1068Q541 1033 558 1000T616 941T721 899T883 883Q923 883 970 883T1063
886T1150 894T1221 908Q1224 878 1246 840T1301 769T1377 713T1461 690H1471Q1459 685 1450 667T1436 623T1427 566T1424 501Q1424 460 1426 422T1432 352T1443 296T1457 258H1450Q1421 258 1386 244T1315 207T1245 154T1184 93T1141 33T1123 -20Q1108 -11 1086
-3T1030 11T950 21T841 25Q804 25 766 23T692 15T626 1T574 -20Q565 11 547 40T502 90Q475 70 464 46T447 0Q439 4 422 8T382 16T335 22T286 25Q247 25 210 18T148 0Z" />
<glyph unicode="T" glyph-name="T" horiz-adv-x="1872" d="M490 0Q496 25 500 60T505 134Q505 169 500 202T490 260Q559 260 605 267T679 290T720 335T732 407Q732 491 728 551T715 650T693 709T663 735Q681 741 694 756T715 807T728 900T732 1051Q732 1107 728
1138T718 1190Q681 1201 639 1205T571 1210Q482 1210 441 1165T399 1026Q399 973 406 921T425 835Q383 849 342 854T255 860Q200 860 151 853T70 835Q73 850 77 882T85 957T92 1052T95 1157Q95 1242 87 1317T70 1440Q87 1435 122 1431T204 1422T302 1415T404 1410T499
1406T573 1405Q627 1405 686 1407T796 1414T884 1425T933 1440Q944 1432 981 1426T1070 1415T1179 1408T1292 1405Q1322 1405 1366 1406T1460 1409T1563 1415T1661 1422T1742 1430T1795 1440Q1791 1417 1787 1386T1779 1317T1773 1240T1770 1157Q1770 1104 1773
1053T1779 958T1787 882T1795 835Q1763 846 1714 853T1610 860Q1564 860 1523 855T1440 835Q1451 868 1458 920T1466 1026Q1466 1120 1425 1165T1294 1210Q1269 1210 1227 1206T1147 1190Q1142 1169 1138 1138T1133 1051Q1133 959 1137 901T1149 807T1171 757T1202
735Q1185 730 1172 710T1151 650T1138 551T1133 407Q1133 364 1144 336T1185 291T1262 267T1385 260Q1380 236 1375 203T1370 134Q1370 96 1374 61T1385 0Q1355 6 1301 10T1183 18T1053 23T933 25Q879 25 815 24T688 19T573 11T490 0Z" />
<glyph unicode="U" glyph-name="U" horiz-adv-x="1872" d="M248 268Q255 289 262 323T276 401T285 494T289 594Q289 657 269 690T213 735Q243 742 259 759T284 811T293 904T295 1051Q295 1091 284 1116T251 1155T200 1175T133 1180H113Q118 1204 123 1235T128
1302Q128 1339 124 1377T113 1440Q132 1433 173 1427T267 1416T379 1408T496 1405Q551 1405 612 1408T729 1416T826 1427T888 1440Q881 1415 877 1377T873 1302Q873 1267 878 1236T888 1180H870Q837 1180 811 1175T766 1156T737 1116T726 1051V597Q726 481 745
408T795 293T869 236T958 220Q1004 220 1045 235T1118 293T1167 408T1185 597V1051Q1185 1091 1174 1116T1143 1155T1097 1175T1040 1180H1023Q1028 1204 1033 1235T1038 1302Q1038 1339 1034 1377T1023 1440Q1042 1433 1079 1427T1163 1416T1266 1408T1376 1405Q1434
1405 1493 1408T1605 1416T1698 1427T1758 1440Q1751 1415 1747 1377T1743 1302Q1743 1267 1748 1236T1758 1180H1738Q1702 1180 1676 1175T1631 1156T1605 1116T1596 1051Q1596 962 1597 904T1607 811T1631 759T1678 735Q1642 724 1622 691T1602 594Q1602 544
1605 495T1614 402T1627 324T1643 268Q1609 264 1570 250T1490 214T1411 165T1341 107T1287 44T1258 -20Q1244 -11 1213 -3T1140 11T1045 21T938 25Q882 25 831 22T737 12T663 -3T618 -20Q607 26 578 72T502 158T392 227T248 268Z" />
<glyph unicode="V" glyph-name="V" horiz-adv-x="1703" d="M573 0Q574 6 574 10T574 22Q574 51 569 95T554 191T528 302T494 418T451 529T400 625T340 697T273 735Q287 740 292 754T298 790Q298 829 292 872T269 959T226 1043T159 1119Q147 1129 128 1140T86 1160T40
1174T-3 1180Q2 1204 4 1235T7 1303Q7 1342 5 1378T-3 1440Q34 1434 83 1428T189 1417T305 1408T427 1405Q490 1405 551 1407T669 1413T773 1424T860 1440Q857 1423 855 1387T852 1305Q852 1287 852 1267T854 1230T856 1199T860 1180Q819 1180 782 1178T715 1168T669
1145T651 1101Q651 1067 667 1015T707 898T762 761T821 614T874 469T910 335Q924 390 949 458T1005 600T1065 749T1121 891T1163 1014T1179 1106Q1179 1134 1164 1149T1126 1171T1073 1179T1014 1180Q1015 1186 1016 1199T1019 1230T1021 1266T1022 1305Q1022 1350
1020 1386T1014 1440Q1098 1421 1183 1413T1357 1405Q1451 1405 1538 1413T1707 1440Q1701 1415 1699 1379T1697 1303Q1697 1267 1699 1236T1707 1180Q1693 1180 1673 1177T1631 1166T1588 1147T1549 1118Q1518 1089 1493 1049T1450 964T1423 874T1413 790Q1413
773 1418 756T1435 735Q1396 725 1359 683T1288 578T1228 441T1180 291T1149 148T1138 32V0Q1099 13 1024 19T859 25Q821 25 780 24T700 19T628 12T573 0Z" />
<glyph unicode="W" glyph-name="W" horiz-adv-x="2554" d="M573 0Q574 6 574 10T574 22Q574 51 569 95T553 191T527 302T492 418T448 529T396 625T336 697T269 735Q283 740 288 754T294 790Q294 829 288 872T267 959T225 1043T159 1119Q147 1129 128 1140T86 1160T40
1174T-3 1180Q2 1204 4 1235T7 1303Q7 1342 5 1378T-3 1440Q34 1434 83 1428T189 1417T305 1408T427 1405Q490 1405 551 1407T669 1413T773 1424T860 1440Q857 1423 855 1387T852 1305Q852 1287 852 1267T854 1230T856 1199T860 1180Q819 1180 782 1178T715 1168T669
1145T651 1101Q651 1067 666 1015T705 898T758 762T815 615T866 470T902 336Q916 391 941 459T996 601T1056 749T1112 891T1153 1014T1169 1106Q1169 1134 1155 1149T1117 1171T1065 1179T1004 1180Q1005 1186 1006 1199T1009 1230T1011 1266T1012 1305Q1012 1350
1010 1386T1004 1440Q1089 1421 1177 1413T1357 1405Q1453 1405 1542 1413T1717 1440Q1710 1411 1709 1369T1707 1281Q1707 1252 1708 1226T1717 1180Q1674 1180 1635 1178T1566 1168T1519 1145T1501 1101Q1501 1067 1516 1015T1556 898T1610 760T1668 613T1720
468T1756 334Q1770 389 1795 458T1851 600T1913 749T1970 891T2012 1014T2029 1106Q2029 1134 2014 1149T1976 1171T1923 1179T1864 1180Q1865 1186 1866 1199T1869 1230T1871 1266T1872 1305Q1872 1350 1870 1386T1864 1440Q1948 1421 2033 1413T2207 1405Q2301
1405 2388 1413T2557 1440Q2551 1415 2549 1379T2547 1303Q2547 1267 2549 1236T2557 1180Q2543 1180 2523 1177T2481 1166T2438 1147T2399 1118Q2367 1089 2342 1049T2298 964T2269 874T2259 790Q2259 773 2264 756T2281 735Q2242 725 2205 683T2134 578T2074
441T2026 291T1995 148T1984 32V0Q1945 13 1870 19T1705 25Q1667 25 1627 24T1549 20T1479 12T1424 0Q1425 6 1425 10T1425 22Q1425 59 1416 122T1388 258T1342 408T1281 549Q1248 489 1221 418T1175 277T1145 142T1134 32V0Q1095 13 1020 19T855 25Q817 25 777
24T698 19T628 12T573 0Z" />
<glyph unicode="X" glyph-name="X" horiz-adv-x="1707" d="M38 0Q44 23 46 57T48 127Q48 166 46 200T38 260Q74 260 118 280T216 322Q271 351 328 397T433 494T513 591T552 670Q552 682 534 701T474 735Q502 747 517 761T539 790Q500 829 469 868T401 948T317
1031T200 1119Q185 1128 166 1138T125 1158T81 1173T38 1180Q43 1204 45 1235T48 1303Q48 1342 46 1378T38 1440Q110 1427 210 1416T428 1405Q490 1405 550 1407T664 1413T766 1424T851 1440Q848 1423 846 1387T843 1305Q843 1287 843 1267T845 1230T847 1199T851
1180Q828 1180 809 1178T774 1168T751 1145T742 1101Q742 1081 760 1056T807 1001T870 940T934 874Q961 905 991 937T1048 1000T1092 1058T1110 1106Q1110 1134 1099 1149T1069 1171T1029 1179T985 1180Q986 1186 987 1199T990 1230T992 1266T993 1305Q993 1350
991 1386T985 1440Q1066 1421 1148 1413T1318 1405Q1410 1405 1488 1413T1648 1440Q1643 1415 1641 1379T1638 1303Q1638 1267 1640 1236T1648 1180Q1613 1180 1575 1158T1490 1108Q1434 1076 1378 1033T1274 946T1194 860T1154 790Q1161 773 1183 756T1236 735Q1206
719 1187 702T1167 670Q1206 627 1237 583T1305 494T1388 403T1506 311Q1520 304 1539 295T1581 279T1625 266T1668 260Q1660 234 1659 201T1658 127Q1658 91 1660 57T1668 0Q1596 9 1496 17T1278 25Q1153 25 1042 19T855 0Q858 15 860 49T863 125Q863 145 862
166T860 206T858 239T855 260Q877 260 897 261T932 270T955 291T964 329Q964 348 946 372T901 425T842 485T779 548Q750 518 718 487T659 426T614 370T596 324Q596 300 607 287T637 268T677 261T721 260Q719 254 718 240T715 206T714 166T713 125Q713 83 715 49T721
0Q636 14 548 19T368 25Q276 25 198 19T38 0Z" />
<glyph unicode="Y" glyph-name="Y" horiz-adv-x="1707" d="M479 0Q485 25 489 60T494 134Q494 169 489 202T479 260Q524 260 558 267T615 290T649 335T661 407Q661 457 646 505T598 595T513 673T385 735Q399 740 404 754T410 790Q410 829 399 868T362 948T292
1031T181 1119Q168 1128 146 1138T97 1158T45 1173T-1 1180Q4 1204 6 1235T9 1303Q9 1342 7 1378T-1 1440Q36 1434 85 1428T191 1417T307 1408T429 1405Q491 1405 551 1407T665 1413T767 1424T852 1440Q849 1423 847 1387T844 1305Q844 1287 844 1267T846 1230T848
1199T852 1180Q819 1180 788 1178T734 1168T697 1145T683 1101Q683 1072 710 1032T775 943T855 843T927 738Q961 786 1005 838T1088 939T1154 1032T1181 1106Q1181 1134 1165 1149T1124 1171T1068 1179T1006 1180Q1007 1186 1008 1199T1011 1230T1013 1266T1014
1305Q1014 1350 1012 1386T1006 1440Q1091 1421 1179 1413T1359 1405Q1453 1405 1540 1413T1709 1440Q1703 1415 1701 1379T1699 1303Q1699 1267 1701 1236T1709 1180Q1695 1180 1673 1174T1625 1158T1575 1135T1531 1108Q1480 1071 1439 1032T1368 951T1322 870T1305
790Q1305 773 1310 756T1327 735Q1261 725 1211 691T1128 609T1079 509T1062 407Q1062 364 1071 336T1103 291T1159 267T1244 260Q1239 236 1234 203T1229 134Q1229 96 1233 61T1244 0Q1215 6 1171 10T1075 18T968 23T862 25Q811 25 756 24T648 19T552 11T479 0Z"
/>
<glyph unicode="Z" glyph-name="Z" horiz-adv-x="1533" d="M70 0Q84 26 89 69T95 160Q95 175 93 199T88 247T80 292T70 320Q92 320 133 336T226 387T333 474T440 598Q452 614 464 630T487 660T504 686T511 708Q511 728 496 733Q532 740 572 762T653 819T733 895T806
985T867 1081T912 1177Q878 1184 842 1190T772 1200T709 1207T661 1210Q540 1210 475 1162T410 1007Q410 982 412 965T417 933T424 906T432 876Q412 885 380 891T302 897Q259 897 207 892T89 876Q98 892 104 919T115 982T122 1059T124 1144Q124 1187 122 1231T116
1314T105 1386T89 1440Q176 1428 248 1421T383 1409T498 1404T599 1402Q643 1402 683 1402T765 1403Q809 1403 871 1404T1001 1408T1139 1414T1267 1421T1369 1430T1428 1440Q1414 1412 1409 1367T1403 1270Q1403 1246 1405 1221T1410 1172T1418 1130T1428 1100Q1416
1097 1390 1082T1332 1043T1264 986T1200 919T1153 846T1134 773Q1134 741 1151 735Q1122 729 1087 717T1013 682T934 625T857 540Q800 477 756 407T667 252Q691 244 721 238T783 228T850 222T918 220Q952 220 989 232T1058 270T1110 333T1131 422Q1131 460 1129
491T1119 553Q1145 544 1187 538T1289 532Q1323 532 1365 537T1462 553Q1453 537 1447 509T1436 446T1429 370T1427 285Q1427 242 1429 200T1435 121T1446 52T1462 0Q1430 6 1379 10T1264 18T1131 23T991 26T857 27T743 28Q648 28 556 28T377 24T212 16T70 0Z"
/>
<glyph unicode="[" glyph-name="bracketleft" horiz-adv-x="1021" d="M240 -197Q245 -189 249 -161T257 -91T262 3T265 110T268 221T269 324T270 410T270 468Q270 523 266 570T252 652T224 710T177 739Q205 745 223 767T252 825T266 908T270 1010Q270 1037 270
1094T269 1221T266 1367T261 1508T252 1618T240 1675Q271 1668 302 1663T370 1655T449 1651T543 1650Q588 1650 634 1651T723 1656T800 1664T860 1675Q857 1668 855 1652T850 1616T846 1576T845 1540Q845 1527 846 1512T849 1482T854 1455T860 1435Q847 1435 825
1435T774 1436Q746 1436 714 1435T647 1431Q642 1391 640 1332T638 1196Q638 1101 639 986T641 739Q641 607 640 492T638 281Q638 206 640 147T647 47Q681 44 713 43T774 42Q803 42 825 42T860 43Q857 36 855 22T850 -8T846 -42T845 -72Q845 -87 846 -106T849 -143T854
-175T860 -197Q836 -191 801 -187T723 -179T635 -174T543 -172Q491 -172 449 -173T371 -177T303 -185T240 -197Z" />
<glyph unicode="\" glyph-name="backslash" horiz-adv-x="1021" d="M209 1218Q199 1251 186 1291T158 1374T127 1457T95 1533T64 1591T36 1625Q66 1617 113 1611T229 1605Q298 1605 346 1611T424 1625Q418 1613 418 1588Q418 1560 425 1519T444 1430T471 1331T501
1231L811 257Q821 224 834 184T862 101T893 18T925 -58T956 -116T984 -150Q965 -144 941 -140T890 -134T838 -131T790 -130Q768 -130 742 -131T689 -134T639 -140T596 -150Q602 -138 602 -114Q602 -86 595 -45T576 44T549 143T519 244L209 1218Z" />
<glyph unicode="]" glyph-name="bracketright" horiz-adv-x="1021" d="M781 -197Q776 -189 772 -161T764 -91T759 3T756 110T753 221T752 324T751 410T751 468Q751 523 755 570T769 652T797 710T844 739Q816 745 798 767T769 825T755 908T751 1010Q751 1037 751
1094T752 1221T755 1367T760 1508T769 1618T781 1675Q750 1668 719 1663T651 1655T572 1651T478 1650Q433 1650 387 1651T298 1656T221 1664T161 1675Q164 1668 166 1652T171 1616T175 1576T176 1540Q176 1527 175 1512T172 1482T167 1455T161 1435Q174 1435 196
1435T247 1436Q275 1436 307 1435T374 1431Q379 1391 381 1332T383 1196Q383 1101 382 986T380 739Q380 607 381 492T383 281Q383 206 381 147T374 47Q340 44 308 43T247 42Q218 42 196 42T161 43Q164 36 166 22T171 -8T175 -42T176 -72Q176 -87 175 -106T172 -143T167
-175T161 -197Q185 -191 220 -187T298 -179T386 -174T478 -172Q530 -172 572 -173T650 -177T718 -185T781 -197Z" />
<glyph unicode="^" glyph-name="asciicircum" horiz-adv-x="1529" d="M124 500Q138 513 167 560T236 679T320 838T412 1019T501 1205T580 1380T640 1526T671 1625Q678 1621 688 1619T708 1615T728 1613T744 1612Q750 1612 759 1612T779 1614T800 1618T817 1625Q824
1590 850 1526T914 1380T999 1204T1096 1017T1195 835T1286 677T1359 559T1404 500Q1392 508 1368 512T1315 519T1257 521T1207 522Q1189 522 1160 521T1102 516T1049 508T1016 497Q1016 499 1016 501T1017 507Q1017 530 1003 571T966 666T913 781T854 903T795
1022T746 1126Q728 1080 704 1023T653 905T602 783T556 669T524 574T511 508Q511 500 512 497Q503 503 479 507T426 515T368 520T321 522Q300 522 272 522T215 519T162 513T124 500ZM1408 497Q1405 497 1404 500L1408 497ZM124 500Q121 497 120 497L124 500Z" />
<glyph unicode="_" glyph-name="underscore" horiz-adv-x="1529" d="M1547 -191V-389H-18V-191H1547Z" />
<glyph unicode="`" glyph-name="grave" horiz-adv-x="1020" d="M291 1190Q291 1192 291 1193T292 1197Q292 1215 281 1250T250 1330T204 1424T151 1518T95 1599T41 1655Q57 1648 86 1644T152 1636T227 1632T302 1630Q340 1630 379 1631T452 1636T515 1644T561
1655Q557 1643 557 1616Q557 1587 561 1548T572 1464T588 1376T608 1293T629 1228T650 1190Q642 1194 621 1197T572 1204T510 1208T447 1210Q384 1210 346 1205T291 1190Z" />
<glyph unicode="a" glyph-name="a" horiz-adv-x="1368" d="M76 147Q89 170 95 200T101 261Q101 293 94 325T76 377Q103 386 124 406T161 451T187 502T200 550Q205 548 211 548T224 548Q298 548 403 562T630 599Q687 610 724 626T783 662T813 707T822 758Q822 807
798 833T713 860Q634 860 597 821T559 691Q526 699 479 702T375 706Q346 706 317 705T259 703T207 698T166 691Q172 722 176 761T181 852Q181 869 181 883T179 912T174 941T166 976Q208 976 258 984T355 1007T442 1040T502 1080Q520 1071 537 1065T576 1054T627
1047T697 1045Q791 1045 857 1054T953 1080Q969 1050 999 1023T1064 977T1136 946T1203 934H1212Q1203 912 1197 873T1187 786T1181 683T1178 577T1176 478T1176 400Q1176 359 1183 334T1210 294T1268 275T1366 270Q1362 258 1359 241T1352 203T1348 163T1346 126Q1346
48 1366 0Q1342 11 1288 18T1170 25Q1098 25 1043 18T955 0Q947 55 925 88T879 140Q844 129 815 111T764 71T727 28T709 -10Q686 -4 668 2T630 13T589 22T537 25Q506 25 472 22T403 14T340 2T289 -10Q272 18 247 45T194 95T135 132T76 147ZM506 333Q506 309 516
291T541 260T576 241T613 234Q646 234 680 247T744 288T793 363T817 475Q731 473 672 464T575 437T522 393T506 333Z" />
<glyph unicode="b" glyph-name="b" horiz-adv-x="1704" d="M177 0Q184 10 188 26T194 62T196 99T197 133Q197 148 196 165T193 200T187 233T177 260Q227 260 257 268T304 295T326 343T331 413V535Q331 569 327 602T313 663T290 709T258 733Q299 747 314 801T330
958Q331 969 331 980T330 1003L327 1210Q326 1253 317 1278T289 1317T246 1335T188 1340H157Q165 1360 171 1395T177 1470Q177 1508 172 1543T157 1600Q176 1597 203 1595T262 1592T330 1589T404 1588Q455 1588 507 1590T606 1596T694 1607T762 1625Q742 1586 730
1538T710 1436T701 1323T699 1203V952Q747 969 781 1002T839 1080Q850 1072 872 1066T922 1055T982 1048T1048 1045Q1076 1045 1103 1047T1153 1053T1195 1063T1225 1080Q1242 1044 1277 1009T1358 944T1458 894T1568 870Q1556 844 1540 764T1523 543Q1523 472
1528 417T1539 322T1554 255T1568 215Q1512 211 1458 189T1358 134T1277 63T1225 -10Q1190 4 1135 14T1006 25Q931 25 874 15T779 -10Q774 11 764 35T737 84T700 129T653 165Q619 130 598 85T573 0Q557 4 538 8T495 16T439 22T369 25Q292 25 249 18T177 0ZM714
542Q714 479 722 424T751 328T809 264T904 240Q1014 240 1059 314T1104 542Q1104 619 1094 673T1059 763T997 814T904 830Q846 830 809 809T751 749T722 658T714 542Z" />
<glyph unicode="c" glyph-name="c" horiz-adv-x="1356" d="M92 166Q108 183 118 221T135 308T144 412T147 518Q147 568 144 621T134 721T117 805T92 860Q132 864 182 883T278 931T362 998T416 1080Q429 1073 451 1067T502 1056T564 1048T633 1045Q676 1045 717
1049T793 1060T855 1077T898 1100Q912 1081 936 1066T991 1039T1058 1021T1132 1015Q1185 1015 1211 1019T1252 1028Q1240 996 1234 941T1227 830Q1227 800 1228 770T1233 712T1241 664T1252 630Q1227 642 1186 647T1088 653Q1031 653 987 648T913 630Q905 736
866 789T744 843Q703 843 667 830T605 783T563 689T547 538Q547 434 561 371T600 272T659 224T732 212Q784 212 819 230T875 279T906 348T919 430Q954 417 1000 413T1095 408Q1138 408 1178 412T1252 430Q1247 415 1243 394T1237 350T1233 305T1232 266Q1232 235
1233 212T1238 169T1244 134T1252 103Q1244 104 1236 104T1220 105Q1178 105 1131 95T1038 69T952 33T884 -10Q855 2 807 13T701 25Q665 25 628 22T558 14T497 2T450 -10Q446 7 427 27T378 66T312 104T239 136T167 158T103 166H92Z" />
<glyph unicode="d" glyph-name="d" horiz-adv-x="1535" d="M114 215Q126 241 141 321T157 543Q157 684 142 764T114 870Q169 874 223 894T323 943T405 1008T457 1080Q479 1063 528 1054T634 1045Q667 1045 699 1048T758 1056T806 1067T838 1080Q860 1035 894 1003T977
952V1210Q976 1253 960 1278T919 1317T860 1335T792 1340H760Q768 1360 774 1395T780 1470Q780 1508 775 1543T760 1600Q779 1597 807 1595T871 1592T946 1589T1029 1588Q1086 1588 1144 1590T1254 1596T1350 1607T1422 1625Q1401 1586 1387 1538T1365 1436T1352
1323T1348 1203V1003Q1348 941 1351 894T1362 813T1384 760T1420 733H1419Q1401 728 1387 709T1364 663T1351 603T1346 535V413Q1346 331 1380 296T1470 260Q1465 238 1463 204T1460 133Q1460 96 1462 59T1470 0Q1456 5 1433 9T1384 17T1330 23T1278 25Q1221 25
1179 17T1104 0Q1101 40 1080 84T1025 163Q1001 147 980 125T942 80T914 33T898 -10Q868 4 810 14T676 25Q603 25 544 15T457 -10Q440 25 405 63T324 133T224 188T114 215ZM573 542Q573 465 583 410T618 320T680 267T773 250Q831 250 868 272T926 333T955 425T963
542Q963 605 955 657T926 748T868 808T773 830Q718 830 680 814T618 763T584 674T573 542Z" />
<glyph unicode="e" glyph-name="e" horiz-adv-x="1366" d="M109 166Q129 190 140 233T156 326T163 428T165 518Q165 559 162 611T153 712T136 802T110 860Q154 860 207 882T307 938T390 1010T434 1080Q489 1061 564 1053T750 1045Q828 1045 879 1054T962 1080Q979
1045 1018 1017T1104 969T1197 938T1274 925Q1266 908 1260 888T1249 841T1242 778T1239 692Q1239 658 1240 626T1245 567T1251 520T1259 489Q1234 491 1192 492T1100 495T996 497T892 498Q834 498 777 498T658 497Q607 497 577 488T532 464T512 426T507 378Q507
339 526 307T578 253T656 218T752 205Q794 205 819 217T857 251T875 300T879 360Q891 356 915 353T967 349T1023 346T1073 345Q1094 345 1121 346T1174 348T1224 353T1261 360Q1259 349 1257 331T1253 291T1250 249T1249 214Q1249 165 1252 136T1264 83H1246Q1205
83 1162 76T1079 56T1004 26T944 -10Q930 -1 906 5T852 16T790 23T727 25Q691 25 652 22T578 14T513 2T468 -10Q459 16 422 47T334 104T228 149T126 167Q121 167 117 167T109 166ZM774 678Q814 678 837 681T873 693T889 717T893 759Q893 807 852 837T724 867Q670
867 631 858T566 827T525 769T508 678H774Z" />
<glyph unicode="f" glyph-name="f" horiz-adv-x="1195" d="M110 0Q118 26 121 62T124 133Q124 165 120 197T110 260Q166 260 202 265T261 282T291 318T300 377V696Q300 721 296 736T280 761T251 773T206 776Q191 776 174 774T134 768Q139 797 141 831T143 900Q143
932 141 963T134 1020Q177 1014 207 1014Q231 1014 248 1016T275 1025T291 1047T296 1088Q296 1136 292 1185T279 1279T260 1357T237 1409Q270 1413 307 1436T378 1491T436 1559T466 1625Q488 1610 537 1605T643 1600Q731 1600 789 1619T878 1670Q892 1651 916
1635T971 1608T1038 1590T1112 1583Q1165 1583 1191 1587T1232 1596Q1220 1564 1214 1509T1207 1398Q1207 1368 1208 1338T1213 1280T1221 1232T1232 1198Q1207 1210 1166 1215T1068 1221Q1011 1221 967 1216T893 1198Q893 1317 872 1371T788 1426Q732 1426 702
1384T672 1244V1111Q672 1086 678 1068T702 1037T754 1018T844 1012Q916 1012 1036 1030Q1031 1004 1029 969T1027 897Q1027 812 1036 755Q973 762 926 765T842 768Q785 768 752 766T701 755T678 732T673 692V377Q673 341 700 318T770 283T870 265T985 260Q979
239 976 208T972 142Q972 104 975 66T985 0Q953 5 895 9T768 17T625 23T488 25Q440 25 385 24T278 19T181 11T110 0Z" />
<glyph unicode="g" glyph-name="g" horiz-adv-x="1533" d="M131 6Q158 9 191 15T258 32T325 58T382 95T423 144T438 207Q438 240 422 269T381 323T322 367T255 399T188 419T131 426Q143 438 152 459T166 508T173 568T176 635Q176 671 173 705T165 770T151 822T131
856Q172 864 221 886T314 940T392 1007T434 1080Q456 1071 492 1065T574 1054T668 1047T767 1045Q805 1045 843 1046T916 1050Q953 1089 964 1150T975 1286Q975 1309 975 1327T973 1363T968 1397T961 1435Q970 1430 993 1426T1049 1418T1122 1412T1208 1410Q1231
1410 1263 1411T1330 1416T1394 1424T1441 1435Q1435 1424 1430 1404T1420 1360T1414 1309T1411 1260Q1411 1221 1413 1196T1418 1151T1424 1117T1431 1085Q1416 1088 1395 1090T1352 1095T1310 1099T1276 1100Q1203 1100 1159 1074T1108 990Q1132 963 1163 940T1229
899T1298 870T1366 856Q1355 844 1347 821T1333 769T1324 705T1321 635Q1321 601 1324 569T1332 509T1347 460T1368 426Q1359 428 1348 428T1328 429Q1281 429 1233 410T1147 361T1083 298T1056 235Q1043 249 1016 259T954 275T878 283T794 286Q757 286 734 281T698
266T681 244T676 219Q676 200 683 186T708 163T754 150T826 145Q874 145 926 148T1025 157T1108 172T1160 195Q1172 160 1207 125T1286 61T1378 14T1463 -4Q1452 -14 1444 -34T1431 -81T1424 -137T1421 -195Q1421 -224 1424 -252T1432 -305T1446 -348T1464 -374Q1419
-374 1371 -389T1279 -430T1202 -487T1156 -550Q1142 -544 1108 -538T1027 -525T925 -516T812 -512Q752 -512 692 -514T581 -522T491 -534T438 -550Q432 -522 397 -491T315 -434T218 -391T130 -374Q141 -366 149 -346T164 -299T173 -242T176 -185Q176 -159 173
-129T165 -72T151 -24T131 6ZM562 662Q562 605 576 567T614 507T672 475T744 465Q782 465 815 474T873 506T912 567T926 662Q926 719 912 757T874 817T816 849T744 859Q706 859 673 850T615 818T576 757T562 662ZM580 -182Q580 -257 632 -298T788 -339Q891 -339
943 -298T996 -182Q996 -107 944 -66T788 -25Q685 -25 633 -66T580 -182Z" />
<glyph unicode="h" glyph-name="h" horiz-adv-x="1706" d="M126 0Q134 26 137 62T140 133Q140 165 136 197T126 260Q182 260 218 265T277 282T307 318T316 377V545Q316 577 312 609T299 667T277 712T247 735Q283 747 299 789T316 913V1210Q315 1253 305 1278T278
1317T235 1335T177 1340H146Q154 1360 160 1395T166 1470Q166 1508 161 1543T146 1600Q165 1597 192 1595T251 1592T319 1589T393 1588Q444 1588 496 1590T595 1596T683 1607T751 1625Q731 1586 719 1538T699 1436T690 1323T688 1203V882Q727 898 752 923T794 976T819
1031T833 1080Q846 1072 872 1066T933 1055T1007 1048T1083 1045Q1116 1045 1150 1047T1214 1053T1268 1064T1304 1080Q1336 995 1384 936T1514 853Q1498 833 1486 810T1466 758T1453 690T1449 602V377Q1449 341 1457 318T1486 283T1539 265T1620 260Q1617 248
1614 235T1609 206T1606 168T1604 117Q1604 88 1607 54T1620 0Q1589 5 1548 9T1461 17T1363 23T1261 25Q1220 25 1177 24T1092 19T1016 11T956 0Q959 12 961 28T965 63T968 102T969 140Q969 150 968 167T966 201T962 235T956 260Q990 260 1012 263T1049 279T1069
314T1075 377V585Q1075 624 1067 659T1043 720T1000 762T937 778Q912 778 871 770T789 741T719 686T689 600V377Q689 312 729 286T841 260Q835 239 832 208T828 142Q828 104 831 66T841 0Q777 10 689 17T474 25Q426 25 376 24T279 19T192 11T126 0Z" />
<glyph unicode="i" glyph-name="i" horiz-adv-x="851" d="M127 1185Q133 1196 138 1218T147 1269T153 1331T156 1400Q156 1432 154 1462T147 1519T138 1567T126 1600Q144 1594 173 1589T239 1579T316 1573T396 1570Q432 1570 474 1571T556 1577T628 1586T676 1600Q670
1587 666 1566T658 1519T653 1462T651 1400Q651 1368 652 1337T657 1278T665 1225T676 1185Q660 1190 630 1193T561 1199T480 1203T399 1205Q360 1205 319 1204T241 1200T173 1194T127 1185ZM47 0Q55 26 58 62T61 133Q61 165 57 197T47 260Q103 260 145 265T216
282T259 318T274 377V655Q273 698 259 723T220 762T165 780T98 785H66Q74 805 80 840T86 915Q86 953 81 988T66 1045Q151 1041 224 1039T363 1037Q484 1037 572 1046T723 1080Q703 1041 688 1006T663 931T647 844T641 736L640 377Q640 341 655 318T698 283T762
265T842 260Q836 239 833 208T829 142Q829 104 831 66T842 0Q815 5 768 9T666 17T550 23T435 25Q387 25 331 24T220 19T119 11T47 0Z" />
<glyph unicode="j" glyph-name="j" horiz-adv-x="856" d="M192 1185Q198 1196 203 1218T212 1269T218 1331T221 1400Q221 1432 219 1462T212 1519T203 1567T191 1600Q209 1594 236 1589T296 1579T368 1573T445 1570Q481 1570 518 1571T588 1577T648 1586T691 1600Q685
1587 681 1566T673 1519T668 1462T666 1400Q666 1368 667 1337T672 1278T680 1225T691 1185Q675 1190 649 1193T589 1199T517 1203T440 1205Q401 1205 364 1204T294 1200T235 1194T192 1185ZM51 -136Q82 -136 111 -134T166 -127T208 -119T233 -112Q233 -129 241
-143T263 -166T291 -181T322 -187Q360 -187 376 -163T393 -94Q393 -44 372 -24T318 -3Q310 -3 302 -4T286 -7Q291 -1 294 19T298 68T300 130T301 194Q301 240 301 280T295 350T279 401T245 427Q263 436 274 447T292 480T300 534T303 619V655Q303 698 293 723T265
762T221 780T164 785H133Q141 805 147 840T153 915Q153 953 148 988T133 1045Q164 1040 213 1038T321 1036Q377 1036 437 1038T554 1046T658 1059T738 1080Q718 1041 706 992T686 886T677 770T675 648Q675 582 677 542T685 478T704 445T736 427Q713 421 701 395T684
332T677 253T676 174Q676 140 678 94T685 -5T697 -110T713 -208T735 -287T763 -335Q755 -334 748 -334T732 -334Q670 -334 610 -353T498 -404T407 -473T346 -550Q328 -543 293 -538T218 -528T136 -522T64 -520Q-66 -520 -147 -550Q-142 -533 -139 -509T-133 -458T-130
-401T-129 -344Q-129 -311 -130 -279T-134 -217T-139 -163T-147 -120Q-135 -125 -114 -128T-67 -133T-10 -135T51 -136Z" />
<glyph unicode="k" glyph-name="k" horiz-adv-x="1703" d="M110 0Q118 26 121 62T124 133Q124 165 120 197T110 260Q166 260 202 265T260 282T289 318T297 377V545Q297 577 293 609T280 667T258 712T228 735Q264 747 280 789T297 913V1210Q296 1253 286 1278T259
1317T216 1335T158 1340H127Q135 1360 141 1395T147 1470Q147 1508 142 1543T127 1600Q146 1597 173 1595T232 1592T300 1589T374 1588Q425 1588 477 1590T576 1596T664 1607T732 1625Q712 1586 700 1538T680 1436T671 1323T669 1203L668 650Q691 647 716 647T781
647Q806 647 841 656T909 684T963 727T986 786Q986 803 964 816T903 829Q879 829 849 823Q854 843 856 869T859 922Q859 967 856 1007T847 1080Q873 1073 914 1067T1004 1056T1107 1048T1212 1045Q1257 1045 1305 1047T1397 1054T1474 1065T1525 1080Q1515 1045
1511 999T1507 905Q1507 863 1511 826T1523 763Q1475 763 1414 752T1294 719T1188 663T1123 584Q1138 557 1173 539T1251 511T1339 496T1422 492Q1422 456 1435 424T1473 366T1534 325T1615 310Q1607 285 1601 244T1595 157Q1595 109 1600 67T1615 0Q1601 6 1575
10T1514 18T1443 23T1370 25Q1301 25 1257 19T1180 0Q1180 41 1169 77T1140 141T1099 184T1050 200Q1063 222 1070 245T1077 295Q1077 325 1059 356T1003 412T909 453T776 469Q726 469 668 457V377Q668 341 681 318T718 283T777 265T855 260Q849 239 846 208T842
142Q842 104 844 66T855 0Q828 5 783 9T683 17T571 23T458 25Q410 25 360 24T263 19T176 11T110 0Z" />
<glyph unicode="l" glyph-name="l" horiz-adv-x="859" d="M90 0Q98 26 101 62T104 133Q104 165 100 197T90 260Q146 260 182 265T240 282T269 318T277 377V545Q277 577 274 609T262 667T241 711T208 735Q229 741 242 751T263 780T274 825T277 893V1210Q276 1253
266 1278T239 1317T196 1335T138 1340H107Q115 1360 121 1395T127 1470Q127 1508 122 1543T107 1600Q126 1597 153 1595T212 1592T280 1589T354 1588Q405 1588 457 1590T556 1596T644 1607T712 1625Q691 1586 679 1538T660 1436T651 1323T649 1203L648 891Q648
851 651 824T663 778T684 750T717 735Q696 729 683 711T662 666T651 609T648 545V377Q648 341 661 318T698 283T757 265T835 260Q829 239 826 208T822 142Q822 104 824 66T835 0Q808 5 763 9T663 17T551 23T438 25Q390 25 340 24T243 19T156 11T90 0Z" />
<glyph unicode="m" glyph-name="m" horiz-adv-x="2389" d="M127 0Q135 26 138 62T141 133Q141 165 137 197T127 260Q183 260 219 265T278 282T308 318T317 377V655Q316 698 306 723T279 762T236 780T178 785H147Q155 805 161 840T167 915Q167 953 162 987T147
1043Q184 1038 238 1035T352 1032Q396 1032 440 1034T527 1040T606 1052T672 1070Q665 1050 663 1030T660 988Q660 960 663 933T672 879Q713 894 739 919T783 973T809 1030T824 1080Q837 1072 863 1066T924 1055T998 1048T1074 1045Q1107 1045 1141 1047T1205 1053T1259
1064T1295 1080Q1319 1014 1352 965T1434 884Q1471 900 1495 925T1536 977T1560 1032T1574 1080Q1587 1072 1613 1066T1674 1055T1748 1048T1824 1045Q1857 1045 1891 1047T1955 1053T2009 1064T2045 1080Q2077 995 2125 936T2255 853Q2239 833 2227 810T2207 758T2194
690T2190 602V377Q2190 341 2198 318T2227 283T2280 265T2361 260Q2358 248 2355 235T2350 206T2347 168T2345 117Q2345 88 2348 54T2361 0Q2330 5 2289 9T2202 17T2104 23T2002 25Q1961 25 1918 24T1833 19T1757 11T1697 0Q1700 12 1702 28T1706 63T1709 102T1710
140Q1710 150 1709 167T1707 201T1703 235T1697 260Q1731 260 1753 263T1790 279T1810 314T1816 377V585Q1816 624 1808 659T1784 720T1741 762T1678 778Q1657 778 1623 772T1554 752T1487 714T1441 655Q1440 642 1440 629T1440 602V377Q1440 341 1448 318T1477
283T1530 265T1611 260Q1608 248 1605 235T1600 206T1597 168T1595 117Q1595 88 1598 54T1611 0Q1580 5 1539 9T1452 17T1354 23T1252 25Q1211 25 1168 24T1083 19T1007 11T947 0Q950 12 952 28T956 63T959 102T960 140Q960 150 959 167T957 201T953 235T947 260Q981
260 1003 263T1040 279T1060 314T1066 377V585Q1066 624 1058 659T1034 720T991 762T928 778Q907 778 872 772T801 750T734 711T689 650L690 377Q690 312 730 286T842 260Q836 239 833 208T829 142Q829 104 832 66T842 0Q778 10 690 17T475 25Q427 25 377 24T280
19T193 11T127 0Z" />
<glyph unicode="n" glyph-name="n" horiz-adv-x="1704" d="M139 0Q147 26 150 62T153 133Q153 165 149 197T139 260Q195 260 231 265T290 282T320 318T329 377V655Q328 698 318 723T291 762T248 780T190 785H159Q167 805 173 840T179 915Q179 953 174 987T159
1043Q196 1038 250 1035T364 1032Q408 1032 452 1034T539 1040T618 1052T684 1070Q677 1050 675 1030T672 988Q672 959 676 931T685 876Q729 890 757 915T803 970T830 1028T846 1080Q859 1072 885 1066T946 1055T1020 1048T1096 1045Q1129 1045 1163 1047T1227
1053T1281 1064T1317 1080Q1349 995 1397 936T1527 853Q1511 833 1499 810T1479 758T1466 690T1462 602V377Q1462 341 1472 318T1504 283T1560 265T1643 260Q1640 248 1637 235T1632 206T1629 168T1627 117Q1627 88 1630 54T1643 0Q1612 5 1570 9T1479 17T1378
23T1274 25Q1233 25 1190 24T1105 19T1029 11T969 0Q972 12 974 28T978 63T981 102T982 140Q982 150 981 167T979 201T975 235T969 260Q1003 260 1025 263T1062 279T1082 314T1088 377V585Q1088 624 1080 659T1056 720T1013 762T950 778Q925 778 884 770T802 741T732
686T702 600H701L702 377Q702 312 742 286T854 260Q848 239 845 208T841 142Q841 104 844 66T854 0Q790 10 702 17T487 25Q439 25 389 24T292 19T205 11T139 0Z" />
<glyph unicode="o" glyph-name="o" horiz-adv-x="1535" d="M114 166Q125 182 135 207T152 272T164 372T169 518Q169 608 165 664T153 755T135 813T115 856Q155 860 206 879T304 929T389 998T438 1080Q456 1072 490 1066T569 1055T667 1048T777 1045Q829 1045 878
1048T968 1057T1039 1068T1084 1080Q1096 1037 1134 998T1220 929T1319 880T1407 856Q1397 836 1388 815T1371 758T1359 667T1354 523Q1354 436 1357 376T1366 274T1382 208T1408 166Q1383 166 1351 159T1285 139T1217 109T1155 73T1107 32T1080 -10Q1061 -3 1029
3T955 14T863 22T758 25Q704 25 655 22T564 15T491 4T442 -10Q425 27 385 59T297 115T200 152T114 166ZM569 522Q569 437 579 376T614 276T676 219T769 200Q827 200 864 224T922 292T951 394T959 522Q959 591 951 649T922 750T864 816T769 840Q714 840 676 822T614
766T580 667T569 522Z" />
<glyph unicode="p" glyph-name="p" horiz-adv-x="1535" d="M303 -93Q303 -23 301 36T291 140T272 211T238 246Q258 256 270 279T290 348T300 468T303 655Q302 698 292 723T265 762T222 780T164 785H133Q141 805 147 840T153 915Q153 953 148 987T133 1043Q162
1039 194 1037T262 1035Q334 1035 408 1045T546 1080Q549 1035 570 992T624 913Q648 923 673 939T720 976T761 1024T788 1080Q799 1073 820 1067T870 1056T931 1048T997 1045Q1060 1045 1112 1054T1189 1080Q1206 1044 1236 1009T1306 944T1396 894T1502 870Q1490
844 1475 764T1459 543Q1459 401 1474 321T1502 215Q1446 211 1397 189T1307 134T1236 63T1189 -10Q1167 4 1122 14T1015 25Q952 25 902 15T828 -10Q816 25 775 61T664 127V-172Q664 -208 687 -231T751 -266T844 -284T956 -289Q950 -310 947 -341T943 -407Q943
-445 946 -484T956 -550Q924 -545 871 -541T754 -532T621 -526T489 -524Q441 -524 389 -526T289 -531T199 -539T131 -550Q139 -524 142 -488T145 -416Q145 -384 141 -352T131 -289Q176 -289 208 -284T261 -267T291 -231T301 -172L303 -93ZM678 542Q678 479 687
426T718 333T777 272T873 250Q928 250 966 267T1028 319T1062 410T1073 542Q1073 619 1063 673T1028 763T966 814T873 830Q815 830 778 809T718 749T687 658T678 542Z" />
<glyph unicode="q" glyph-name="q" horiz-adv-x="1704" d="M121 215Q133 241 148 321T164 543Q164 684 149 764T121 870Q176 874 230 894T330 943T412 1008T464 1080Q476 1071 496 1065T543 1054T600 1047T661 1045Q694 1045 726 1048T787 1056T837 1067T870 1080Q880
1047 897 1021T937 974T983 939T1032 917Q1064 952 1084 994T1107 1080Q1139 1068 1177 1059T1256 1045T1339 1038T1421 1035Q1460 1035 1495 1037T1560 1043Q1551 1022 1546 988T1540 915Q1540 876 1546 841T1560 785H1528Q1493 785 1463 781T1410 763T1374 724T1360
655Q1360 583 1362 514T1372 389T1392 295T1425 246Q1404 239 1392 212T1372 140T1363 37T1360 -93L1362 -172Q1362 -208 1384 -231T1442 -266T1522 -284T1612 -289Q1606 -320 1602 -352T1598 -416Q1598 -451 1601 -487T1612 -550Q1585 -544 1532 -539T1415 -531T1287
-526T1174 -524Q1111 -524 1042 -526T909 -532T792 -540T707 -550Q714 -523 717 -484T720 -407Q720 -372 717 -341T707 -289Q765 -289 816 -284T906 -267T967 -231T989 -172V127Q919 98 880 62T830 -10Q806 4 756 14T643 25Q582 25 534 15T464 -10Q447 25 412 63T331
133T231 188T121 215ZM585 542Q585 465 595 410T630 320T692 267T785 250Q843 250 880 272T938 333T967 425T975 542Q975 605 967 657T938 748T880 808T785 830Q730 830 692 814T630 763T596 674T585 542Z" />
<glyph unicode="r" glyph-name="r" horiz-adv-x="1362" d="M110 0Q118 26 121 62T124 133Q124 165 120 197T110 260Q166 260 202 265T261 282T291 318T300 377V655Q299 698 289 723T262 762T219 780T161 785H130Q138 805 144 840T150 915Q150 953 145 987T130
1043Q159 1039 199 1037T287 1035Q335 1035 386 1037T487 1045T579 1059T655 1080Q648 1060 646 1040T643 997Q643 966 647 935T657 875Q700 887 747 909T836 960T907 1019T943 1080Q972 1063 1018 1054T1125 1045Q1149 1045 1175 1046T1225 1051T1270 1062T1304
1080Q1296 1060 1292 1030T1285 966T1281 896T1280 829Q1280 798 1282 759T1287 683T1294 619T1304 585Q1271 593 1222 598T1118 604Q1064 604 1016 599T938 585Q938 692 914 735T841 778Q817 778 789 765T736 725T693 662T672 576L673 377Q673 341 693 318T750
283T836 265T945 260Q939 239 936 208T932 142Q932 104 935 66T945 0Q913 5 866 9T763 17T644 23T518 25Q470 25 411 24T293 19T186 11T110 0Z" />
<glyph unicode="s" glyph-name="s" horiz-adv-x="1195" d="M115 22Q123 43 127 85T132 180Q132 222 127 265T115 335Q127 329 149 325T199 317T257 312T316 310Q370 310 416 316T491 335Q491 306 499 281T526 236T574 205T645 193Q699 193 731 214T764 283Q764
321 739 349T668 395T559 423T422 432Q399 432 372 432T318 429T271 424T239 415Q239 441 221 470T176 524T122 567T73 589Q81 598 87 614T97 650T103 693T105 737Q105 782 98 825T73 895Q109 902 145 919T212 961T268 1016T305 1080Q315 1074 345 1068T416 1057T504
1049T595 1046Q676 1046 724 1060T785 1100Q799 1081 827 1067T890 1043T962 1029T1032 1024Q1052 1024 1068 1026T1098 1031Q1095 1010 1093 993T1089 959T1086 925T1085 888Q1085 850 1087 813T1098 747Q1081 758 1041 762T949 767Q921 767 892 766T837 762T792
756T764 747Q764 813 718 850T596 888Q533 888 508 866T482 809Q482 776 515 746T604 694T728 658T869 645Q887 645 905 646T941 649T972 654T996 663Q999 633 1018 604T1064 550T1118 507T1166 480Q1153 460 1146 420T1138 333Q1138 291 1144 253T1166 192Q1130
182 1096 165T1031 125T977 74T937 12Q897 26 825 36T659 46Q617 46 587 43T536 35T501 21T478 2Q463 11 441 17T391 28T334 34T276 36Q225 36 183 34T115 22Z" />
<glyph unicode="t" glyph-name="t" horiz-adv-x="1195" d="M197 206Q230 246 241 308T252 457V746Q251 764 247 778T232 803T203 820T158 826Q143 826 126 824T86 818Q91 847 93 881T95 950Q95 982 93 1013T86 1070Q96 1063 111 1059T141 1051T169 1047T189 1045Q218
1045 232 1067T247 1146Q247 1155 247 1171T245 1204T242 1236T235 1259Q243 1257 251 1257T268 1257Q319 1257 375 1274T485 1311T585 1348T661 1365Q653 1341 648 1312T640 1254T636 1198T634 1151Q634 1118 642 1098T670 1066T727 1050T821 1045Q845 1045 877
1045T945 1048T1014 1056T1078 1070Q1068 1044 1064 1009T1060 937Q1060 895 1064 859T1078 795Q1044 798 1004 802T923 809T849 815T794 818Q744 818 712 814T660 800T634 776T626 742V474Q626 435 630 392T647 311T680 250T734 225Q770 225 794 239T834 280T855
341T862 420Q884 415 921 410T997 405Q1035 405 1068 410T1120 420Q1112 398 1109 359T1105 274Q1105 229 1108 190T1120 132H1110Q1073 132 1031 121T949 90T878 48T828 0Q820 6 798 10T746 18T683 23T620 25Q590 25 558 24T494 19T438 11T397 0Q388 35 370 68T325
130T267 178T197 206Z" />
<glyph unicode="u" glyph-name="u" horiz-adv-x="1538" d="M161 206Q193 246 205 308T216 457L214 655Q213 698 204 723T178 762T136 780T79 785H48Q56 805 62 840T68 915Q68 953 63 988T48 1045Q79 1040 128 1038T236 1036Q292 1036 352 1038T469 1046T573 1059T653
1080Q633 1041 621 992T601 886T592 770T590 648V474Q590 435 595 399T615 335T657 289T728 272Q773 272 819 281T904 312T967 373T991 468V655Q990 693 985 718T963 758T919 779T842 785H821Q829 805 835 840T841 915Q841 953 836 988T821 1045Q852 1040 901 1038T1009
1036Q1065 1036 1125 1038T1242 1046T1346 1059T1426 1080Q1405 1056 1392 1023T1373 949T1364 862T1362 769Q1362 738 1362 708T1363 648L1362 390Q1362 349 1364 324T1382 284T1429 265T1522 260Q1514 237 1510 204T1505 136Q1505 98 1508 61T1522 0Q1498 11
1444 18T1326 25Q1254 25 1195 18T1104 0Q1104 35 1098 62T1081 110T1058 146T1032 172Q990 164 951 145T880 102T824 50T792 0Q784 6 762 10T710 18T647 23T584 25Q554 25 522 24T458 19T402 11T361 0Q352 35 334 68T289 130T231 178T161 206Z" />
<glyph unicode="v" glyph-name="v" horiz-adv-x="1364" d="M476 0Q477 7 477 16T478 34Q478 77 461 137T410 267Q375 339 337 381T262 434Q279 440 279 466Q279 479 278 501T268 553T244 618T198 691Q181 713 162 732T116 767T54 791T-29 800Q-24 829 -21 863T-17
940Q-17 977 -20 1011T-29 1070Q-14 1064 23 1060T113 1052T225 1047T345 1045Q409 1045 468 1045T577 1048T667 1056T731 1070Q725 1045 722 1016T719 950Q719 908 721 869T729 800Q654 800 622 784T589 733Q589 706 607 662T652 562T709 441T763 305Q789 368
820 430T877 548T922 652T940 736Q940 776 911 788T816 800Q821 829 823 868T826 950Q826 1022 814 1070Q827 1061 857 1056T928 1049T1013 1046T1103 1045Q1152 1045 1198 1046T1281 1051T1345 1059T1382 1070Q1377 1050 1375 1018T1372 950Q1372 908 1374 869T1382
800Q1358 800 1332 793T1281 772T1232 735T1191 684Q1167 649 1153 617T1131 556T1121 504T1119 466Q1119 440 1136 434Q1099 426 1064 393T1001 308T956 190T939 50Q939 36 940 24T944 0Q935 5 906 9T840 17T763 23T696 25Q665 25 633 23T571 17T516 9T476 0Z"
/>
<glyph unicode="w" glyph-name="w" horiz-adv-x="2046" d="M490 0Q491 7 491 16T492 34Q492 77 480 137T435 267Q401 339 364 381T290 434Q307 440 307 466Q307 479 306 501T297 553T273 618T228 691Q211 713 185 734T128 772T67 799T10 810Q15 839 18 873T22
950Q22 1022 10 1070Q39 1059 109 1052T301 1045Q363 1045 432 1045T563 1048T675 1056T749 1070Q743 1045 740 1016T737 950Q737 866 747 810Q675 810 643 794T610 743Q610 716 627 671T671 568T726 443T780 305Q805 369 835 432T891 553T935 660T953 746Q953
786 924 798T832 810Q836 839 838 873T841 950Q841 987 838 1016T830 1070Q878 1060 942 1053T1092 1045Q1219 1045 1298 1052T1403 1070Q1397 1045 1394 1016T1391 950Q1391 866 1401 810Q1357 810 1329 806T1285 794T1262 774T1255 743Q1255 716 1272 671T1316
568T1371 443T1425 305Q1450 369 1480 432T1536 553T1580 660T1598 746Q1598 786 1566 798T1476 810Q1486 866 1486 950Q1486 1022 1474 1070Q1487 1061 1518 1056T1589 1049T1676 1046T1764 1045Q1801 1045 1846 1047T1932 1052T2004 1059T2047 1070Q2041 1045
2039 1016T2037 950Q2037 866 2047 810Q1992 810 1939 777T1843 684Q1819 650 1805 617T1784 556T1774 504T1772 466Q1772 440 1789 434Q1762 426 1728 392T1662 305T1609 186T1587 50Q1587 36 1588 24T1592 0Q1583 5 1555 9T1490 17T1415 23T1349 25Q1319 25 1288
23T1227 17T1174 9T1134 0Q1135 7 1135 16T1136 34Q1136 61 1132 95T1116 169T1086 252T1038 341Q1014 308 996 269T966 190T948 115T942 50Q942 36 943 24T947 0Q938 5 910 9T845 17T770 23T705 25Q675 25 644 23T583 17T529 9T490 0Z" />
<glyph unicode="x" glyph-name="x" horiz-adv-x="1364" d="M54 4Q62 31 64 64T67 137Q67 171 64 206T54 263Q135 263 194 279T303 329T395 411T488 527Q445 572 392 622T282 714T169 783T64 811Q69 835 73 866T77 933Q77 975 74 1008T64 1070Q89 1059 130 1054T218
1046T316 1043T411 1042Q459 1042 508 1043T603 1047T686 1055T750 1070Q740 1045 737 1017T733 952Q733 918 738 893T752 851Q699 851 680 839T661 805Q661 789 672 771T701 732T741 692T787 651Q806 669 826 690T864 732T893 774T904 812Q904 835 890 843T853
852Q849 852 846 852T837 851Q840 871 842 897T845 952Q845 966 845 982T843 1015T840 1046T836 1070Q857 1058 922 1050T1085 1042Q1178 1042 1230 1050T1308 1070Q1305 1059 1302 1042T1297 1006T1293 968T1291 933Q1291 898 1292 867T1300 811Q1217 811 1160
788T1060 725T982 634T912 528Q957 480 1004 434T1102 350T1204 289T1313 263Q1308 241 1303 210T1298 146Q1298 104 1302 69T1313 4Q1284 10 1248 14T1172 22T1088 27T1004 29Q910 29 827 22T683 4Q689 29 693 59T698 127Q698 147 693 168T683 203Q719 203 737
216T755 250Q755 266 745 283T718 318T677 355T628 396Q602 373 580 353T540 315T513 280T503 247Q503 223 520 213T573 202Q578 202 582 202T591 203Q586 189 583 168T579 127Q579 90 583 60T593 4Q570 9 538 13T468 21T390 27T311 29Q236 29 168 22T54 4Z" />
<glyph unicode="y" glyph-name="y" horiz-adv-x="1364" d="M10 -120Q22 -125 44 -128T94 -133T153 -135T216 -136Q247 -136 276 -136T331 -133T375 -128T403 -120Q403 -168 427 -196T493 -225Q531 -225 555 -193T579 -114Q579 -59 551 -28T474 3Q460 3 445 0Q446
7 446 16T447 34Q447 77 435 137T389 267Q354 339 316 381T241 435Q258 441 258 466Q258 479 257 501T247 553T223 618T177 691Q160 713 138 734T91 772T38 799T-16 810Q-11 839 -8 873T-4 950Q-4 1022 -16 1070Q-1 1064 19 1060T71 1052T146 1047T252 1045Q316
1045 386 1045T521 1048T635 1056T710 1070Q704 1045 701 1016T698 950Q698 866 708 810Q633 810 601 794T568 743Q568 716 586 671T631 569T688 444T742 306Q768 369 799 432T856 553T901 660T919 746Q919 786 890 798T795 810Q805 866 805 950Q805 1022 793 1070Q806
1061 837 1056T910 1049T999 1046T1089 1045Q1127 1045 1173 1046T1261 1051T1335 1059T1379 1070Q1373 1045 1371 1016T1369 950Q1369 866 1379 810Q1322 810 1267 777T1170 684Q1146 649 1132 617T1110 556T1100 504T1098 466Q1098 441 1115 435Q1072 423 1029
373T942 223Q926 186 906 134T866 24T828 -95T795 -208T771 -301T762 -360Q734 -363 691 -375T601 -410T508 -467T428 -550Q392 -536 341 -528T229 -520Q163 -520 108 -527T10 -550Q15 -533 18 -509T24 -458T27 -401T28 -344Q28 -311 27 -279T23 -217T18 -163T10
-120Z" />
<glyph unicode="z" glyph-name="z" horiz-adv-x="1370" d="M120 -10Q127 2 132 21T142 63T148 113T150 166Q150 194 148 226T142 288T133 343T120 384Q170 394 234 418T366 477T502 553T629 639T733 729T800 815Q781 845 740 859T650 873Q608 873 579 857T531
812T504 747T496 667Q468 679 431 685T339 692Q276 692 216 686T120 667Q129 696 134 742T140 840Q140 903 134 962T120 1070Q158 1061 215 1056T341 1049T485 1046T636 1045Q724 1045 819 1047T1002 1053T1160 1064T1270 1080Q1254 1037 1247 977T1240 841Q1240
785 1245 743T1258 658Q1218 653 1161 630T1038 571T906 494T779 407T672 322T601 250Q616 215 658 198T760 180Q806 180 837 193T886 233T912 299T920 390Q983 364 1094 364Q1121 364 1150 366T1207 371T1258 379T1295 390Q1291 376 1287 352T1279 298T1273 237T1270
179Q1270 112 1277 67T1295 0Q1251 6 1189 10T1054 18T901 23T742 25Q653 25 559 23T381 16T228 5T120 -10Z" />
<glyph unicode="{" glyph-name="braceleft" horiz-adv-x="1021" d="M260 -12Q271 3 279 31T291 95T298 171T300 253V438Q300 501 289 540T257 601T205 630T135 638Q142 652 144 672T147 714Q147 736 145 756T135 790Q174 790 205 797T257 826T289 887T300 990V1200Q300
1240 298 1281T292 1357T279 1421T260 1465Q265 1464 269 1464T279 1464Q323 1464 366 1482T444 1529T503 1589T533 1650Q548 1645 567 1641T609 1633T656 1627T703 1625Q755 1625 798 1631T870 1650Q863 1630 859 1594T855 1515Q855 1492 859 1472T870 1440Q804
1440 767 1429T710 1390T686 1319T681 1209V940Q681 878 668 839T632 775T581 737T521 714Q552 705 581 692T632 654T667 589T681 488V244Q681 178 686 134T710 63T766 25T870 13Q864 -8 860 -44T855 -122Q855 -146 859 -166T870 -197Q842 -185 799 -179T703 -172Q680
-172 656 -174T610 -179T568 -187T533 -197Q527 -168 504 -136T445 -75T366 -29T277 -11Q272 -11 268 -11T260 -12Z" />
<glyph unicode="|" glyph-name="bar" horiz-adv-x="681" d="M157 -150Q165 -95 169 -44T176 56T179 155T180 257V1276Q180 1338 180 1400T178 1517T171 1611T157 1670Q174 1664 197 1660T245 1654T295 1651T341 1650Q362 1650 386 1651T436 1654T484 1660T525
1670Q516 1652 512 1612T505 1517T502 1401T502 1276V257Q502 205 502 156T505 57T512 -44T525 -150Q511 -146 487 -143T435 -136T383 -132T340 -130Q323 -130 298 -131T246 -136T195 -142T157 -150Z" />
<glyph unicode="}" glyph-name="braceright" horiz-adv-x="1021" d="M761 -12Q750 3 742 31T730 95T723 171T721 253V438Q721 501 732 540T764 601T816 630T886 638Q879 652 877 672T874 714Q874 736 876 756T886 790Q847 790 816 797T764 826T732 887T721 990V1200Q721
1240 723 1281T729 1357T742 1421T761 1465Q756 1464 752 1464T742 1464Q698 1464 655 1482T577 1529T518 1589T488 1650Q473 1645 454 1641T412 1633T365 1627T318 1625Q266 1625 223 1631T151 1650Q158 1630 162 1594T166 1515Q166 1492 162 1472T151 1440Q217
1440 254 1429T311 1390T335 1319T340 1209V940Q340 878 353 839T389 775T440 737T500 714Q469 705 440 692T389 654T354 589T340 488V244Q340 178 335 134T311 63T255 25T151 13Q157 -8 161 -44T166 -122Q166 -146 162 -166T151 -197Q179 -185 222 -179T318 -172Q341
-172 365 -174T411 -179T453 -187T488 -197Q494 -168 517 -136T576 -75T655 -29T744 -11Q749 -11 753 -11T761 -12Z" />
<glyph unicode="~" glyph-name="asciitilde" horiz-adv-x="1533" d="M86 498Q93 507 98 526T107 569T112 623T114 682Q114 707 112 731T106 775T97 808T86 825Q171 825 235 853T345 924T416 1016T453 1110Q546 1106 613 1088T731 1045T820 992T892 940T960 901T1038
885Q1063 885 1081 894T1110 918T1126 951T1131 988Q1131 1027 1127 1063T1112 1123Q1132 1107 1178 1102T1276 1097Q1305 1097 1334 1099T1386 1104T1426 1112T1446 1123Q1438 1114 1433 1095T1424 1052T1420 998T1418 939Q1418 914 1420 890T1426 846T1435 813T1446
796Q1360 796 1296 768T1187 697T1116 604T1079 511Q986 515 919 533T801 576T712 629T640 681T572 720T494 736Q468 736 450 727T421 703T406 670T401 633Q401 594 405 558T420 498Q410 505 393 510T354 518T307 522T256 524Q227 524 198 522T146 517T106 509T86
498Z" />
<glyph unicode="&#xa1;" glyph-name="exclamdown" horiz-adv-x="705" d="M239 1000Q239 997 239 994T238 985Q238 972 238 956T239 921Q239 891 236 858T223 794T192 740T136 705Q154 702 164 678T175 594Q175 556 170 502T155 372Q150 336 143 283T126 174T107
72T88 0Q106 6 138 12T208 23T286 32T361 35Q400 35 443 32T525 24T596 12T646 0Q632 51 620 109T598 226T581 341T569 447T562 534T559 594Q559 653 569 677T598 705Q565 717 545 745T513 808T497 881T492 950Q492 982 495 1000Q474 994 448 990T367 985Q313 985
287 989T239 1000ZM119 1440Q130 1417 139 1372T148 1260Q148 1229 146 1200T139 1146T130 1102T118 1070Q136 1076 163 1081T224 1091T296 1097T373 1100Q409 1100 446 1099T516 1093T575 1084T618 1070Q605 1094 599 1147T593 1260Q593 1317 599 1363T618 1440Q602
1435 576 1431T516 1423T444 1417T367 1415Q328 1415 291 1417T220 1422T161 1430T119 1440Z" />
<glyph unicode="&#xa2;" glyph-name="cent" horiz-adv-x="1525" d="M182 166Q198 183 208 221T225 308T234 412T237 518Q237 568 234 621T224 721T207 805T182 860Q222 864 272 883T368 931T452 998T506 1080Q528 1068 575 1059T682 1046Q680 1089 677 1138T668
1230T656 1306T638 1350Q659 1342 698 1339T787 1335Q816 1335 845 1335T899 1338T943 1342T972 1350Q963 1336 955 1307T940 1238T928 1155T918 1068Q965 1082 988 1100Q1002 1081 1026 1066T1081 1039T1148 1021T1222 1015Q1275 1015 1301 1019T1342 1028Q1330
996 1324 941T1317 830Q1317 800 1318 770T1323 712T1331 664T1342 630Q1317 642 1276 647T1178 653Q1121 653 1077 648T1003 630Q995 736 956 789T834 843Q793 843 757 830T695 783T653 689T637 538Q637 434 651 371T690 272T749 224T822 212Q874 212 909 230T965
279T996 348T1009 430Q1044 417 1090 413T1185 408Q1228 408 1268 412T1342 430Q1337 415 1333 394T1327 350T1323 305T1322 266Q1322 235 1323 212T1328 169T1334 134T1342 103Q1334 104 1326 104T1310 105Q1268 105 1221 95T1128 69T1042 33T974 -10Q960 -5 943
0T905 11Q908 -31 912 -75T923 -159T938 -229T956 -273Q947 -269 926 -266T877 -262T818 -259T760 -258Q711 -258 674 -261T616 -273Q626 -262 634 -232T648 -161T659 -74T667 16Q628 11 595 4T540 -10Q536 7 517 27T468 66T402 104T329 136T257 158T193 166H182Z"
/>
<glyph unicode="&#xa3;" glyph-name="sterling" horiz-adv-x="1529" d="M40 0Q46 25 50 60T55 134Q55 169 50 202T40 260Q119 260 165 271T235 315T265 408T272 568Q272 614 257 636T198 659Q180 659 158 656T104 646Q109 670 111 695T114 755Q114 786 113 806T104
848Q164 830 196 830Q218 830 233 845T257 883T270 933T274 984Q274 1022 268 1059T253 1129T231 1186T207 1224Q240 1228 277 1251T348 1306T406 1374T436 1440Q458 1425 507 1420T613 1415Q701 1415 759 1434T848 1485Q862 1466 886 1450T941 1423T1008 1405T1082
1398Q1122 1398 1150 1399T1199 1403T1235 1407T1262 1411Q1251 1379 1244 1345T1237 1253Q1237 1193 1244 1155T1262 1093Q1196 1116 1038 1116Q981 1116 937 1111T863 1093Q863 1126 859 1153T842 1200T810 1230T758 1241Q730 1241 705 1230T662 1192T632 1120T621
1004Q621 946 626 912T647 859T688 836T755 830Q774 830 800 831T856 835T920 840T987 848Q980 826 979 806T977 755Q977 720 978 695T987 646Q953 649 920 651T855 655T798 658T753 659Q720 659 699 655T665 640T647 610T642 563L643 271Q669 255 701 243T765
222T828 210T883 205Q943 205 986 217T1056 259T1097 338T1111 463Q1111 508 1107 549T1098 615Q1137 601 1188 596T1285 590Q1337 590 1384 597T1463 615Q1459 604 1454 580T1442 521T1429 445T1417 361T1409 276T1405 196Q1405 138 1414 86T1442 0Q1423 4 1377
7T1269 13T1137 18T1000 22T876 24T782 25Q755 25 712 25T617 24T505 22T387 19T272 15T170 11T89 6T40 0Z" />
<glyph unicode="&#xa4;" glyph-name="currency" horiz-adv-x="1700" d="M156 287Q172 288 199 301T260 336T328 382T394 434Q359 494 340 561T321 703Q321 778 340 845T395 972Q363 997 328 1023T260 1070T200 1105T156 1120Q171 1125 195 1144T249 1188T308 1244T364
1304T408 1357T433 1397Q434 1380 447 1353T482 1292T528 1224T580 1157Q640 1192 707 1211T849 1231Q924 1231 990 1212T1117 1157Q1142 1188 1168 1223T1215 1291T1250 1351T1265 1396Q1270 1381 1289 1357T1333 1303T1389 1244T1449 1188T1502 1143T1542 1119Q1525
1118 1498 1104T1437 1069T1369 1022T1303 971Q1338 911 1357 845T1377 703Q1377 628 1358 562T1303 435Q1334 409 1369 384T1437 337T1497 303T1542 288Q1527 282 1502 264T1449 219T1390 163T1334 104T1290 51T1265 12Q1264 28 1250 55T1215 115T1169 183T1118
249Q1058 214 991 195T849 175Q774 175 707 194T580 248Q554 217 529 182T482 114T448 54T433 10Q427 25 409 49T364 103T308 162T249 218T196 262T156 287ZM585 703Q585 648 605 600T662 516T746 460T849 439Q904 439 952 459T1036 516T1092 600T1113 703Q1113
758 1093 806T1036 890T952 946T849 967Q794 967 746 947T662 890T606 806T585 703Z" />
<glyph unicode="&#xa5;" glyph-name="yen" horiz-adv-x="1877" d="M257 372Q262 396 264 419T267 478Q267 509 266 527T257 568Q323 559 375 556T469 553Q670 553 670 602Q670 640 618 661T481 682Q463 682 438 682T382 681T320 678T257 673Q262 697 264 720T267
778Q267 809 266 827T257 868Q321 856 377 856Q424 856 453 865T482 893Q482 918 463 949T411 1012T338 1074T253 1127T167 1165T91 1180H83Q88 1204 90 1235T93 1303Q93 1342 91 1378T83 1440Q120 1434 169 1428T275 1417T391 1408T513 1405Q575 1405 635 1407T749
1413T851 1424T936 1440Q933 1423 931 1387T928 1305Q928 1287 928 1267T930 1230T932 1199T936 1180Q903 1180 872 1178T818 1168T781 1145T767 1101Q767 1072 794 1032T859 943T939 843T1011 738Q1045 786 1089 838T1172 939T1238 1032T1265 1106Q1265 1134 1249
1149T1208 1171T1152 1179T1090 1180Q1091 1186 1092 1199T1095 1230T1097 1266T1098 1305Q1098 1350 1096 1386T1090 1440Q1175 1421 1263 1413T1443 1405Q1537 1405 1624 1413T1793 1440Q1787 1415 1785 1379T1783 1303Q1783 1267 1785 1236T1793 1180Q1751 1174
1705 1155T1615 1108T1531 1050T1461 987T1413 929T1395 883Q1395 866 1421 858T1489 850Q1516 850 1547 853T1610 863Q1607 852 1605 843T1602 825T1601 804T1600 778Q1600 743 1601 719T1610 671Q1579 674 1542 676T1470 679T1404 681T1356 682Q1275 682 1236
661T1197 602Q1197 553 1358 553Q1376 553 1405 553T1469 555T1540 560T1610 568Q1603 546 1602 528T1600 478Q1600 443 1601 420T1610 372Q1576 375 1539 377T1468 380T1404 381T1356 382Q1290 380 1250 376T1187 363T1157 344T1149 316Q1149 290 1210 275T1389
260Q1384 236 1382 204T1379 136Q1379 99 1382 62T1391 0Q1353 5 1303 9T1195 17T1074 23T945 25Q887 25 825 24T705 19T597 11T514 0Q520 25 523 62T526 136Q526 171 524 203T516 260Q584 260 628 265T697 278T732 297T742 316Q742 334 731 347T688 367T598 378T446
382Q410 382 363 380T257 372Z" />
<glyph unicode="&#xa6;" glyph-name="brokenbar" horiz-adv-x="681" d="M157 855Q165 910 169 944T176 1000T179 1037T180 1070V1476Q180 1500 180 1526T178 1578T171 1628T157 1670Q174 1664 197 1660T245 1654T295 1651T341 1650Q362 1650 386 1651T436 1654T484
1660T525 1670Q516 1652 512 1628T505 1579T502 1527T502 1476V1070Q502 1052 502 1037T505 1000T512 944T525 855Q511 859 487 862T435 869T383 873T340 875Q323 875 298 874T246 869T195 863T157 855ZM180 471Q180 495 180 521T178 573T171 623T157 665Q174 659
197 655T245 649T295 646T341 645Q362 645 386 646T436 649T484 655T525 665Q516 647 512 623T505 574T502 522T502 471V65Q502 47 502 32T505 -5T512 -61T525 -150Q511 -146 487 -143T435 -136T383 -132T340 -130Q323 -130 298 -131T246 -136T195 -142T157 -150Q165
-95 169 -61T176 -5T179 32T180 65V471Z" />
<glyph unicode="&#xa7;" glyph-name="section" horiz-adv-x="1698" d="M235 -5Q295 -14 349 -17T456 -20Q504 -20 545 -16T625 -5Q625 -49 641 -88T688 -157T765 -203T873 -220Q916 -220 955 -211T1024 -184T1070 -137T1088 -68Q1088 19 1005 73T750 127Q660 127
596 120T486 102Q484 119 469 141T429 186T373 232T310 271T244 299T184 310H175Q188 314 197 332T213 375T222 431T225 489Q225 530 223 569T216 643T205 702T190 742H198Q222 742 249 752T304 779T359 820T409 871Q389 889 366 904T320 929T274 944T232 950H225Q238
955 247 973T263 1017T272 1074T275 1139Q275 1178 273 1214T266 1281T255 1335T240 1372H246Q273 1372 306 1387T372 1426T436 1481T492 1544T533 1606T551 1660Q564 1651 583 1642T630 1624T699 1610T795 1605Q828 1605 862 1609T927 1620T986 1638T1033 1660Q1061
1631 1093 1612T1160 1580T1230 1563T1298 1558Q1327 1558 1353 1561T1403 1570Q1401 1562 1398 1545T1391 1505T1386 1453T1383 1397Q1383 1325 1390 1271T1403 1195Q1355 1204 1310 1207T1222 1210Q1180 1210 1143 1206T1073 1195Q1073 1240 1054 1279T1001 1347T920
1393T815 1410Q777 1410 741 1404T675 1381T628 1337T610 1268Q610 1229 628 1195T691 1137T810 1098T998 1083Q1034 1083 1067 1085T1129 1090T1178 1098T1212 1108Q1214 1091 1229 1069T1269 1024T1325 978T1388 939T1454 911T1514 900H1523Q1510 896 1501 878T1485
835T1476 779T1473 721Q1473 680 1475 641T1482 567T1493 507T1508 468Q1482 468 1454 459T1396 433T1338 393T1286 341Q1305 323 1328 308T1374 282T1420 265T1463 259Q1465 259 1468 259T1473 260Q1460 255 1451 237T1435 193T1426 136T1423 71Q1423 29 1425
-11T1431 -84T1442 -142T1458 -182H1451Q1422 -182 1388 -196T1318 -233T1249 -286T1189 -347T1146 -407T1127 -460Q1113 -451 1095 -443T1048 -429T979 -419T883 -415Q850 -415 816 -417T751 -425T692 -439T645 -460Q620 -438 581 -416T494 -375T396 -346T296
-335Q280 -335 265 -336T235 -340Q238 -323 246 -287T255 -187Q255 -145 253 -116T248 -66T242 -31T235 -5ZM610 628Q610 575 630 534T687 465T777 421T895 406Q982 406 1031 453T1080 588Q1080 640 1060 681T1003 751T913 795T795 810Q708 810 659 763T610 628Z"
/>
<glyph unicode="&#xa8;" glyph-name="dieresis" horiz-adv-x="1360" d="M751 1214Q762 1239 769 1284T777 1398Q777 1461 769 1510T750 1584Q765 1578 790 1573T845 1565T910 1559T979 1557Q1012 1557 1045 1558T1108 1563T1162 1572T1200 1584Q1189 1558 1183
1510T1177 1398Q1177 1280 1200 1214Q1186 1218 1162 1222T1108 1229T1044 1235T974 1237Q902 1237 842 1230T751 1214ZM121 1214Q132 1239 139 1284T147 1398Q147 1461 139 1510T120 1584Q135 1578 160 1573T215 1565T280 1559T349 1557Q382 1557 415 1558T478
1563T532 1572T570 1584Q559 1558 553 1510T547 1398Q547 1280 570 1214Q556 1218 532 1222T478 1229T414 1235T344 1237Q272 1237 212 1230T121 1214Z" />
<glyph unicode="&#xa9;" glyph-name="copyright" horiz-adv-x="2042" d="M83 694Q83 816 113 928T199 1138T338 1316T524 1453T754 1541T1021 1573Q1163 1573 1288 1542T1517 1453T1703 1316T1841 1138T1928 928T1958 693Q1958 513 1892 355T1703 79T1408 -107T1021
-175Q878 -175 754 -144T525 -57T338 79T200 254T113 462T83 694ZM266 693Q266 550 318 425T467 206T705 58T1021 4Q1197 4 1337 58T1574 205T1724 424T1776 693Q1776 838 1724 966T1575 1188T1337 1338T1021 1393Q849 1393 710 1339T472 1190T320 968T266 695V693ZM510
397Q517 406 524 421T538 461T547 520T551 603Q551 638 530 658T474 683Q495 687 510 699T535 730T549 769T554 812Q554 863 542 905T510 967H519Q555 967 600 987T687 1036T758 1099T794 1161Q804 1153 818 1147T855 1135T907 1128T981 1125Q1021 1125 1061 1133T1126
1161Q1134 1129 1150 1099T1189 1047Q1200 1059 1207 1074T1220 1104T1229 1132T1236 1154Q1256 1142 1297 1135T1385 1127Q1416 1127 1444 1131T1494 1144Q1492 1137 1489 1114T1483 1059T1478 995T1475 936Q1475 870 1481 820T1494 750Q1446 756 1403 760T1317
764Q1274 764 1240 760T1171 750V768Q1171 822 1161 854T1132 903T1087 925T1030 931Q1003 931 979 922T935 885T905 807T893 676Q893 544 931 474T1030 404Q1067 404 1093 413T1135 446T1159 511T1171 616Q1206 603 1246 599T1335 595Q1383 595 1424 600T1494
616Q1490 609 1487 596T1481 565T1477 529T1475 492Q1475 468 1480 442T1494 392Q1426 391 1377 368T1296 313T1247 251T1226 202Q1200 215 1149 227T1016 239Q925 239 868 228T788 202Q780 234 750 267T679 327T593 374T510 397Z" />
<glyph unicode="&#xaa;" glyph-name="ordfeminine" horiz-adv-x="1362" d="M335 755Q321 777 302 799T259 839T212 868T165 881Q175 899 180 923T185 972Q185 998 179 1021T165 1060Q186 1067 203 1083T233 1119T254 1160T264 1198Q272 1197 280 1197T298 1197Q355
1197 436 1210T608 1241Q654 1250 683 1263T730 1292T755 1328T762 1369Q762 1408 742 1429T674 1451Q611 1451 581 1420T551 1316Q525 1322 487 1325T404 1328Q381 1328 353 1327T296 1325T244 1321T207 1316Q211 1338 215 1367T219 1431Q219 1448 219 1461T217
1487T214 1513T207 1544Q241 1544 285 1550T373 1568T452 1594T506 1627Q520 1620 534 1615T565 1607T606 1601T662 1599Q737 1599 790 1606T866 1627Q879 1601 903 1580T956 1543T1015 1519T1068 1510H1074Q1067 1493 1062 1462T1054 1392T1049 1310T1046 1224T1045
1146T1045 1083Q1045 1050 1050 1030T1072 999T1119 983T1197 979Q1194 970 1191 956T1186 926T1183 894T1181 864Q1181 833 1185 807T1197 763Q1177 772 1134 777T1040 783Q983 783 939 777T868 763Q862 808 844 834T806 875Q779 866 756 851T715 819T686 785T671
755Q653 760 638 765T608 774T576 780T534 783Q509 783 481 781T426 774T375 765T335 755ZM601 949Q628 949 654 959T701 993T737 1053T754 1144Q690 1143 646 1136T573 1114T532 1076T519 1018Q519 998 526 985T545 964T571 953T601 949Z" />
<glyph unicode="&#xab;" glyph-name="guillemotleft" horiz-adv-x="1537" d="M1212 178Q1212 206 1183 251T1107 349T1003 455T891 557T787 638T711 684Q739 696 787 730T890 811T1003 912T1106 1019T1182 1116T1212 1190Q1215 1185 1225 1180T1249 1170T1278
1163T1309 1160Q1322 1160 1338 1161T1371 1164T1401 1171T1427 1182Q1421 1174 1417 1160T1409 1130T1404 1097T1402 1065Q1402 1036 1407 1018T1420 984Q1389 981 1362 947T1311 865T1264 768T1219 681Q1232 657 1246 626T1277 563T1310 499T1345 442T1382 401T1420
384Q1413 369 1408 351T1402 303Q1402 289 1403 272T1408 238T1416 207T1427 186Q1417 192 1402 196T1371 203T1339 207T1309 208Q1295 208 1279 205T1249 198T1225 188T1212 178ZM581 178Q581 206 552 251T476 349T372 455T260 557T156 638T80 684Q108 696 156
730T259 811T372 912T475 1019T551 1116T581 1190Q584 1185 594 1180T618 1170T647 1163T678 1160Q691 1160 707 1161T740 1164T770 1171T796 1182Q790 1174 786 1160T778 1130T773 1097T771 1065Q771 1036 776 1018T789 984Q758 981 731 947T680 865T633 768T588
681Q601 657 615 626T646 563T679 499T714 442T751 401T789 384Q782 369 777 351T771 303Q771 289 772 272T777 238T785 207T796 186Q786 192 771 196T740 203T708 207T678 208Q664 208 648 205T618 198T594 188T581 178Z" />
<glyph unicode="&#xac;" glyph-name="logicalnot" horiz-adv-x="1360" d="M134 735Q140 752 144 798T149 900Q149 915 148 938T145 987T140 1034T134 1070Q171 1061 236 1056T379 1049T536 1046T682 1045Q757 1045 842 1046T1004 1049T1141 1057T1226 1070Q1222
1050 1218 1015T1211 936T1205 841T1203 742Q1203 601 1208 506T1226 363Q1209 369 1165 373T1063 378Q1048 378 1025 377T978 374T932 370T898 363Q905 399 909 446T916 545T919 650T920 751Q857 757 791 758T643 760Q518 760 434 759T292 754T199 746T134 735Z"
/>
<glyph unicode="&#xad;" glyph-name="uni00AD" horiz-adv-x="1229" />
<glyph unicode="&#xae;" glyph-name="registered" horiz-adv-x="2042" d="M83 694Q83 816 113 928T199 1138T338 1316T524 1453T754 1541T1021 1573Q1163 1573 1288 1542T1517 1453T1703 1316T1841 1138T1928 928T1958 693Q1958 513 1892 355T1703 79T1408 -107T1021
-175Q878 -175 754 -144T525 -57T338 79T200 254T113 462T83 694ZM266 693Q266 550 318 425T467 206T705 58T1021 4Q1197 4 1337 58T1574 205T1724 424T1776 693Q1776 838 1724 966T1575 1188T1337 1338T1021 1393Q849 1393 710 1339T472 1190T320 968T266 695V693ZM537
231Q546 250 549 279T553 337Q553 360 548 383T537 425Q582 425 605 438T629 494Q629 584 618 638T587 698Q597 700 605 713T618 746T626 790T629 840Q629 893 606 911T537 930Q546 950 549 975T553 1030Q553 1060 548 1086T537 1134Q545 1130 571 1127T634 1122T713
1117T796 1114T871 1113T927 1112Q990 1112 1061 1113T1196 1117T1308 1124T1374 1134Q1380 1115 1397 1093T1436 1052T1483 1020T1530 1006Q1526 998 1522 982T1515 945T1509 901T1507 858Q1507 810 1513 769T1530 706Q1505 702 1479 693T1428 671T1379 643T1336
612Q1362 596 1390 589T1442 581Q1442 518 1462 479T1534 425Q1529 407 1524 384T1518 337Q1518 309 1524 280T1534 231Q1528 234 1508 237T1463 243T1412 246T1367 248Q1345 248 1318 247T1264 244T1217 238T1184 231Q1186 250 1187 269T1188 306Q1188 363 1173
407T1116 469Q1121 478 1125 491T1129 528Q1129 566 1103 588T1042 611Q1020 611 995 608T945 599Q938 583 934 558T930 494Q930 453 946 439T990 425Q987 403 984 375T980 319Q980 295 981 271T990 231Q952 239 903 243T784 248Q755 248 719 247T648 244T583 238T537
231ZM930 735Q959 728 995 725T1056 721Q1078 721 1101 729T1142 753T1173 788T1185 833Q1185 855 1178 876T1158 913T1125 939T1081 949Q1068 949 1049 948T1009 945T967 938T929 928Q927 911 926 891T924 850Q924 819 926 790T930 735Z" />
<glyph unicode="&#xaf;" glyph-name="overscore" horiz-adv-x="1360" d="M236 1262Q247 1279 254 1315T262 1401Q262 1449 254 1490T235 1549Q267 1543 316 1538T424 1530T549 1524T684 1522Q750 1522 815 1523T939 1528T1046 1537T1125 1549Q1114 1531 1108 1490T1102
1401Q1102 1311 1125 1262Q1094 1266 1046 1270T939 1277T814 1283T679 1285Q611 1285 545 1283T421 1278T315 1270T236 1262Z" />
<glyph unicode="&#xb0;" glyph-name="degree" horiz-adv-x="1189" d="M411 715Q399 745 369 771T303 815T228 844T163 855Q174 875 182 931T191 1065Q191 1146 182 1194T163 1269Q193 1271 231 1285T306 1321T371 1372T409 1433Q419 1426 438 1421T482 1412T538
1407T602 1405Q631 1405 659 1407T711 1414T753 1423T779 1433Q788 1401 817 1373T883 1322T958 1285T1025 1269Q1015 1243 1006 1195T997 1068Q997 1030 998 996T1003 934T1012 886T1025 855Q997 855 958 843T882 811T815 766T777 715Q765 721 746 726T703 734T651
740T592 743Q562 743 534 741T481 734T439 725T411 715ZM598 902Q619 902 642 911T685 942T718 997T731 1079Q731 1161 693 1203T598 1245Q541 1245 503 1203T465 1079Q465 1031 478 997T510 942T553 912T598 902Z" />
<glyph unicode="&#xb1;" glyph-name="plusminus" horiz-adv-x="1360" d="M516 495Q524 522 528 547T535 599T538 655T539 718Q539 742 538 765T535 811Q512 813 489 814T442 815Q393 815 351 815T270 812T194 805T119 792Q125 809 129 853T134 955Q134 970 133
993T130 1040T126 1086T119 1120Q157 1112 194 1108T270 1101T351 1098T442 1097Q466 1097 489 1098T535 1102Q537 1124 538 1147T539 1194Q539 1228 539 1257T536 1312T529 1364T516 1417Q529 1414 550 1412T596 1407T643 1403T681 1402Q738 1402 782 1406T844
1417Q836 1390 832 1365T825 1313T822 1257T821 1194Q821 1170 822 1147T826 1102Q848 1100 871 1099T918 1097Q967 1097 1009 1097T1090 1100T1166 1107T1241 1120Q1238 1107 1236 1086T1231 1040T1227 993T1226 955Q1226 898 1230 854T1241 792Q1203 800 1166
804T1090 811T1009 814T918 815Q894 815 871 814T826 811Q823 788 822 765T821 718Q821 684 821 655T824 600T831 548T844 495Q827 502 783 506T681 510Q666 510 643 509T596 506T550 502T516 495ZM119 0Q125 17 129 63T134 165Q134 180 133 203T130 250T126 296T119
330Q157 322 194 318T270 311T351 308T442 307H918Q967 307 1009 307T1090 310T1166 317T1241 330Q1238 317 1236 296T1231 250T1227 203T1226 165Q1226 109 1230 63T1241 0Q1203 8 1166 13T1090 20T1009 24T918 25H442Q393 25 351 24T270 21T194 13T119 0Z" />
<glyph unicode="&#xb2;" glyph-name="twosuperior" horiz-adv-x="1195" d="M107 595Q110 608 114 632T122 686T129 752T132 823Q132 875 126 919T107 989Q130 990 159 996T219 1013T280 1037T333 1065T370 1095T385 1126Q385 1134 383 1138Q399 1134 420 1134Q463
1134 512 1150T601 1192T669 1251T696 1319Q696 1367 666 1396T587 1425Q549 1425 522 1410T477 1368T451 1304T442 1220Q411 1228 369 1234T282 1240Q236 1240 193 1234T107 1220Q110 1227 114 1235T122 1256T129 1287T132 1334Q132 1370 125 1408T107 1467Q162
1467 205 1486T280 1534T335 1592T372 1645Q384 1637 410 1629T474 1615T558 1604T658 1600Q702 1600 751 1603T844 1612T920 1625T961 1641Q961 1598 975 1544T1014 1439T1071 1348T1142 1295Q1108 1281 1080 1256T1029 1198T992 1130T969 1060Q927 1057 880 1046T784
1018T688 980T598 933T523 881T468 827Q511 810 552 803T641 795Q681 795 707 812T748 855T770 906T777 950Q808 943 845 939T921 935Q963 935 1003 938T1087 950Q1084 937 1082 912T1077 856T1073 790T1072 725Q1072 680 1077 646T1087 595Q1038 603 978 608T855
615T731 619T619 620Q537 620 472 620T347 617T231 609T107 595Z" />
<glyph unicode="&#xb3;" glyph-name="threesuperior" horiz-adv-x="1195" d="M381 588Q367 605 344 628T288 673T209 708T105 723Q109 729 111 741T115 769T116 800T117 828Q117 918 105 972Q143 963 181 962T261 960Q284 960 308 960T356 962T401 966T439 972Q439
925 453 891T490 833T542 799T600 788Q672 788 703 820T734 898Q734 947 698 979T602 1011Q573 1011 547 1010T495 1006Q500 1024 503 1048T507 1096Q507 1123 504 1149T495 1196Q531 1193 575 1193Q603 1193 630 1202T678 1230T713 1273T726 1328Q726 1376 698
1401T606 1427Q578 1427 549 1416T495 1381T455 1318T439 1226Q407 1231 366 1234T277 1238Q235 1238 197 1236T121 1226Q126 1252 129 1297T133 1402Q133 1416 132 1432T128 1464T124 1493T121 1512Q180 1512 225 1525T304 1558T360 1598T397 1636Q409 1629 433
1623T488 1611T556 1603T629 1600Q666 1600 703 1603T772 1611T828 1622T865 1636Q873 1615 895 1592T947 1550T1010 1519T1073 1506Q1068 1498 1064 1482T1057 1446T1051 1403T1049 1362Q1049 1317 1055 1287T1073 1236Q1041 1224 1001 1198T928 1130Q944 1107
968 1090T1017 1060T1066 1042T1105 1036Q1100 1028 1096 1011T1090 972T1086 928T1085 886Q1085 837 1088 805T1105 746Q1076 746 1040 731T968 693T903 642T861 588Q850 594 826 599T771 608T703 614T630 616Q594 616 555 615T482 610T420 601T381 588Z" />
<glyph unicode="&#xb4;" glyph-name="acute" horiz-adv-x="1020" d="M361 1190Q371 1201 382 1229T403 1296T422 1379T438 1468T449 1552T453 1620Q453 1643 450 1655Q467 1649 495 1645T558 1637T632 1632T709 1630Q745 1630 784 1631T859 1636T924 1643T970
1655Q945 1636 917 1600T861 1518T807 1424T762 1331T731 1251T719 1197Q719 1192 720 1190Q712 1194 694 1197T650 1204T595 1208T534 1210Q504 1210 476 1209T425 1204T385 1198T361 1190Z" />
<glyph unicode="&#xb5;" glyph-name="mu" horiz-adv-x="1698" d="M240 107Q240 177 238 236T228 340T209 411T175 446Q195 455 207 485T227 560T237 663T240 786Q240 823 237 862T229 937T218 1001T204 1045Q227 1040 265 1038T350 1036Q395 1036 443 1038T535
1046T617 1059T679 1080Q659 1041 647 992T627 886T618 770T616 648V474Q616 435 621 399T641 335T683 289T754 272Q788 272 824 284T892 319T949 371T987 438L986 648Q986 727 985 788T979 896T968 980T947 1045Q971 1038 1009 1035T1095 1032Q1139 1032 1186
1035T1278 1044T1360 1059T1422 1080Q1401 1041 1389 992T1371 886T1362 770T1359 648L1358 390Q1358 349 1365 324T1392 284T1450 265T1548 260Q1540 237 1536 204T1531 136Q1531 98 1534 61T1548 0Q1524 11 1470 18T1352 25Q1317 25 1282 23T1216 18T1159 10T1117
0Q1114 25 1104 48T1081 92T1051 130T1020 162Q984 151 951 132T891 91T845 45T818 0Q804 9 753 15T611 24V-172Q611 -233 613 -285T620 -383T636 -470T664 -550Q649 -543 625 -538T571 -528T509 -522T446 -520Q358 -520 293 -527T189 -550Q198 -535 207 -477T223
-329T235 -128T240 107Z" />
<glyph unicode="&#xb6;" glyph-name="paragraph" horiz-adv-x="1875" d="M446 -260Q533 -260 596 -258T699 -240T759 -185T778 -73Q778 -66 775 -44T764 5T742 55T705 88Q738 104 753 149T768 275Q768 300 767 327T763 385Q733 395 701 398T636 401Q617 401 596
399T556 392T520 381T496 368Q478 399 448 433T380 497T301 549T216 578Q224 595 230 635T239 724T244 823T246 911Q246 935 245 967T243 1035T239 1106T233 1173T225 1226T216 1259Q236 1260 262 1270T315 1298T369 1338T417 1383T452 1430T468 1475Q492 1464
555 1458T704 1447T884 1442T1069 1440Q1104 1440 1157 1441T1269 1444T1390 1450T1505 1457T1597 1465T1651 1475Q1644 1450 1640 1415T1636 1341Q1636 1306 1641 1273T1651 1215Q1592 1215 1558 1189T1505 1114T1482 1000T1477 853Q1477 692 1478 574T1481 372T1488
235T1501 151T1520 106T1548 88Q1506 70 1493 9T1479 -143Q1479 -162 1480 -196T1482 -271T1487 -357T1493 -441T1501 -509T1511 -550Q1487 -537 1446 -531T1352 -525Q1316 -525 1280 -532T1218 -550Q1221 -527 1223 -476T1227 -359T1230 -217T1231 -69T1232 68T1233
174Q1233 223 1233 283T1234 408T1234 542T1235 681Q1235 800 1234 908T1228 1097Q1205 1101 1181 1103T1132 1105Q1109 1105 1086 1104T1039 1101Q1035 1044 1032 971T1026 815T1022 648T1019 481T1017 327T1016 198T1015 107T1015 66Q1015 5 1016 -38T1019 -112T1026
-166T1035 -212T1046 -257T1061 -314Q1024 -322 992 -347T933 -405T889 -477T861 -550Q847 -544 824 -540T774 -532T716 -527T658 -525Q592 -525 536 -532T446 -550Q449 -538 451 -518T456 -475T460 -429T461 -386Q461 -351 456 -318T446 -260Z" />
<glyph unicode="&#xb7;" glyph-name="middot" horiz-adv-x="680" d="M91 400Q103 427 111 480T120 610Q120 645 118 678T111 741T102 793T90 830Q108 824 135 819T196 809T268 803T345 800Q381 800 418 801T488 807T547 816T590 830Q584 816 580 793T572 740T567
678T565 610Q565 544 571 490T590 400Q574 405 548 409T488 417T416 423T339 425Q300 425 263 423T192 418T133 410T91 400Z" />
<glyph unicode="&#xb8;" glyph-name="cedilla" horiz-adv-x="1360" d="M287 -223Q318 -228 355 -230T418 -233Q459 -233 489 -224T540 -192T571 -133T581 -42Q581 -33 581 -19T580 10T578 41T576 68L851 69Q836 46 828 18T817 -39T813 -97T812 -147Q812 -199 821
-237T862 -302Q816 -313 782 -342T724 -409T685 -484T662 -550Q634 -544 593 -538T479 -531Q413 -531 360 -536T277 -550Q285 -539 291 -517T301 -468T307 -413T309 -360Q309 -317 304 -280T287 -223Z" />
<glyph unicode="&#xb9;" glyph-name="onesuperior" horiz-adv-x="1025" d="M130 585Q136 605 140 633T145 691Q145 723 142 753T130 805Q170 805 214 810T295 829T356 865T380 922Q380 994 362 1025T310 1060Q344 1063 362 1090T380 1148Q380 1201 336 1220T209
1240Q189 1240 165 1238T129 1233Q134 1253 137 1279T140 1332Q140 1367 137 1400T127 1458H141Q208 1458 268 1475T377 1517T457 1572T500 1625Q522 1615 553 1608T613 1600Q648 1600 678 1607T725 1625Q723 1613 721 1598T716 1559T712 1498T710 1406V1136Q710
1104 729 1084T783 1060Q749 1056 730 1025T710 922Q710 888 727 866T775 830T846 811T934 805Q923 776 921 750T919 691Q919 662 923 634T934 585Q902 590 859 594T766 602T660 608T549 610Q486 610 426 609T311 604T210 596T130 585Z" />
<glyph unicode="&#xba;" glyph-name="ordmasculine" horiz-adv-x="1360" d="M421 742Q407 772 375 798T304 843T225 873T155 884Q164 897 172 917T187 971T196 1052T200 1170Q200 1243 196 1288T186 1362T172 1408T156 1443Q189 1446 230 1462T309 1502T378 1558T418
1625Q433 1618 460 1613T524 1604T603 1598T693 1596Q735 1596 774 1598T847 1605T904 1615T941 1625Q951 1590 982 1559T1052 1503T1132 1462T1203 1443Q1195 1426 1187 1409T1173 1364T1164 1290T1160 1174Q1160 1103 1162 1054T1169 972T1183 919T1204 884Q1174
884 1132 872T1049 839T977 793T937 742Q922 748 896 753T836 762T762 768T677 770Q633 770 593 768T520 761T461 752T421 742ZM686 930Q732 930 762 949T809 1001T833 1081T840 1182Q840 1236 834 1281T810 1360T762 1412T686 1431Q641 1431 611 1417T561 1373T533
1296T524 1182Q524 1116 532 1068T560 990T610 945T686 930Z" />
<glyph unicode="&#xbb;" glyph-name="guillemotright" horiz-adv-x="1537" d="M741 186Q747 193 752 207T760 237T764 271T766 303Q766 332 761 350T748 384Q777 386 804 419T857 498T906 594T949 681Q935 704 920 735T890 800T858 865T824 924T787 966T748 984Q755
999 760 1017T766 1065Q766 1080 765 1097T760 1130T752 1160T741 1182Q751 1176 766 1172T797 1165T829 1161T859 1160Q874 1160 889 1162T919 1169T943 1179T956 1190V1186Q956 1157 983 1112T1054 1015T1152 909T1258 809T1356 729T1427 684Q1401 673 1356 639T1259
559T1152 459T1055 353T984 255T956 181V178Q953 182 943 187T919 197T889 205T859 208Q846 208 830 207T797 203T766 196T741 186ZM110 186Q116 193 121 207T129 237T133 271T135 303Q135 332 130 350T117 384Q146 386 173 419T226 498T275 594T318 681Q304 704
289 735T259 800T227 865T193 924T156 966T117 984Q124 999 129 1017T135 1065Q135 1080 134 1097T129 1130T121 1160T110 1182Q120 1176 135 1172T166 1165T198 1161T228 1160Q243 1160 258 1162T288 1169T312 1179T325 1190V1186Q325 1157 352 1112T423 1015T521
909T627 809T725 729T796 684Q770 673 725 639T628 559T521 459T424 353T353 255T325 181V178Q322 182 312 187T288 197T258 205T228 208Q215 208 199 207T166 203T135 196T110 186Z" />
<glyph unicode="&#xbc;" glyph-name="onequarter" horiz-adv-x="2036" d="M556 851Q562 871 566 899T571 957Q571 989 568 1019T556 1071Q619 1071 673 1077T768 1103T832 1156T856 1248Q856 1314 838 1353T786 1396Q803 1397 816 1408T838 1436T851 1471T856
1504Q856 1531 840 1553T797 1591T733 1617T655 1626Q635 1626 611 1624T575 1619Q580 1639 583 1665T586 1718Q586 1753 583 1781T573 1834H587Q654 1834 714 1851T823 1893T903 1948T946 2001Q958 1996 974 1992T1008 1984T1044 1978T1079 1976Q1098 1976 1120
1978T1164 1983T1204 1991T1231 2001Q1229 1989 1227 1974T1222 1935T1218 1874T1216 1782V1492Q1216 1476 1221 1460T1235 1430T1258 1407T1289 1396Q1255 1392 1236 1353T1216 1248Q1216 1191 1231 1157T1279 1103T1367 1078T1500 1071Q1489 1042 1487 1016T1485
957Q1485 929 1489 900T1500 851Q1467 856 1409 860T1283 868T1144 874T1015 876Q953 876 886 875T757 870T642 862T556 851ZM389 37Q421 48 456 91T526 196T591 328T645 467T683 589T699 673Q722 665 773 657T899 648Q924 648 948 650T993 658T1030 669T1057 683Q1053
672 1053 654Q1053 631 1059 604T1078 553T1106 512T1142 492Q1109 481 1074 451T1003 378T933 287T868 187T813 90T772 8Q795 4 814 4T850 3Q914 3 956 7T1023 26T1058 65T1068 133Q1068 143 1068 162T1067 203T1064 243T1057 273Q1069 267 1087 263T1128 255T1174
250T1219 248Q1244 248 1275 250T1334 255T1385 263T1416 273Q1411 260 1408 236T1402 184T1398 130T1396 87Q1396 33 1427 16T1524 -2Q1533 -2 1547 -2T1579 -2T1613 0T1646 3Q1639 -12 1635 -42T1631 -112Q1631 -150 1635 -165T1646 -192Q1625 -188 1603 -185T1560
-181T1522 -179T1495 -178Q1473 -178 1455 -179T1423 -184T1402 -199T1394 -229V-252Q1394 -294 1434 -312T1569 -330Q1564 -350 1559 -377T1554 -434Q1554 -465 1558 -496T1569 -550Q1540 -545 1491 -541T1384 -533T1263 -527T1148 -525Q1017 -525 930 -532T779
-550Q786 -529 790 -497T794 -434Q794 -405 791 -378T779 -330Q878 -330 933 -328T1014 -313T1047 -277T1053 -209L1052 -188Q1001 -180 936 -178T805 -176Q722 -176 662 -177T560 -180T491 -187T446 -197Q454 -178 454 -146Q454 -87 433 -40T389 37Z" />
<glyph unicode="&#xbd;" glyph-name="onehalf" horiz-adv-x="2036" d="M546 851Q552 871 556 899T561 957Q561 989 558 1019T546 1071Q609 1071 663 1077T758 1103T822 1156T846 1248Q846 1314 828 1353T776 1396Q793 1397 806 1408T828 1436T841 1471T846 1504Q846
1531 830 1553T787 1591T723 1617T645 1626Q625 1626 601 1624T565 1619Q570 1639 573 1665T576 1718Q576 1753 573 1781T563 1834H577Q644 1834 704 1851T813 1893T893 1948T936 2001Q948 1996 964 1992T998 1984T1034 1978T1069 1976Q1088 1976 1110 1978T1154
1983T1194 1991T1221 2001Q1219 1989 1217 1974T1212 1935T1208 1874T1206 1782V1492Q1206 1476 1211 1460T1225 1430T1248 1407T1279 1396Q1245 1392 1226 1353T1206 1248Q1206 1191 1221 1157T1269 1103T1357 1078T1490 1071Q1479 1042 1477 1016T1475 957Q1475
929 1479 900T1490 851Q1457 856 1399 860T1273 868T1134 874T1005 876Q943 876 876 875T747 870T632 862T546 851ZM436 -130Q462 -129 495 -120T564 -96T632 -62T691 -21T733 24T749 68Q749 73 747 83Q764 79 788 79Q836 79 890 95T991 137T1067 197T1098 267Q1098
337 1065 380T976 424Q933 424 903 406T852 353T823 272T813 166Q778 174 731 180T633 186Q581 186 533 180T436 166Q439 173 443 181T452 203T460 235T464 282Q464 318 457 357T436 417Q499 417 547 442T631 504T693 580T734 648Q748 640 777 632T849 617T943
606T1055 602Q1104 602 1160 605T1265 615T1350 628T1396 644Q1396 611 1403 572T1424 491T1455 409T1497 335T1546 277T1600 242Q1562 229 1530 203T1472 144T1429 74T1405 3Q1357 -2 1303 -17T1194 -54T1085 -106T984 -169T900 -239T839 -313Q888 -331 935 -339T1036
-347Q1081 -347 1110 -329T1157 -286T1182 -234T1189 -189Q1224 -196 1265 -200T1351 -205Q1397 -205 1443 -202T1538 -189Q1534 -202 1531 -228T1526 -285T1522 -352T1521 -418Q1521 -463 1527 -498T1538 -550Q1483 -542 1416 -537T1278 -530T1138 -526T1012 -525Q920
-525 846 -525T706 -528T575 -536T436 -550Q439 -537 443 -513T452 -457T460 -390T464 -318Q464 -258 457 -208T436 -130Z" />
<glyph unicode="&#xbe;" glyph-name="threequarters" horiz-adv-x="2036" d="M514 975Q518 981 520 993T524 1021T525 1052T526 1080Q526 1126 523 1161T514 1224Q554 1215 595 1214T680 1212Q704 1212 730 1213T781 1216T829 1220T868 1224Q868 1177 885 1143T930
1085T992 1051T1059 1040Q1100 1040 1129 1048T1177 1072T1204 1107T1213 1150Q1213 1183 1202 1211T1172 1260T1124 1291T1061 1303Q1027 1303 991 1302T924 1298Q929 1316 932 1340T936 1388Q936 1415 933 1441T924 1488Q947 1486 977 1486T1034 1485Q1065 1485
1096 1497T1151 1533T1190 1588T1205 1660Q1205 1708 1171 1733T1065 1759Q1034 1759 1000 1747T936 1708T887 1639T868 1538Q833 1543 790 1546T696 1550Q653 1550 612 1548T530 1538Q535 1567 538 1617T542 1734Q542 1748 541 1764T537 1796T533 1825T530 1844Q594
1844 642 1857T727 1890T787 1931T826 1968Q839 1961 866 1955T930 1943T1007 1935T1088 1932Q1128 1932 1170 1935T1248 1943T1313 1954T1354 1968Q1363 1947 1387 1924T1444 1882T1512 1851T1582 1838Q1577 1829 1573 1811T1565 1770T1560 1721T1558 1674Q1558
1623 1564 1579T1582 1511Q1547 1499 1503 1476T1423 1411Q1442 1387 1468 1369T1521 1337T1572 1318T1614 1311Q1609 1302 1605 1286T1599 1248T1595 1204T1594 1158Q1594 1101 1597 1064T1614 998Q1583 998 1543 983T1465 945T1396 894T1350 840Q1339 846 1311
851T1247 860T1169 866T1089 868Q1049 868 1006 867T923 862T854 853T810 840Q795 857 771 880T711 925T627 960T514 975ZM389 37Q421 48 456 91T526 196T591 328T645 467T683 589T699 673Q722 665 773 657T899 648Q924 648 948 650T993 658T1030 669T1057 683Q1053
672 1053 654Q1053 631 1059 604T1078 553T1106 512T1142 492Q1109 481 1074 451T1003 378T933 287T868 187T813 90T772 8Q795 4 814 4T850 3Q914 3 956 7T1023 26T1058 65T1068 133Q1068 143 1068 162T1067 203T1064 243T1057 273Q1069 267 1087 263T1128 255T1174
250T1219 248Q1244 248 1275 250T1334 255T1385 263T1416 273Q1411 260 1408 236T1402 184T1398 130T1396 87Q1396 33 1427 16T1524 -2Q1533 -2 1547 -2T1579 -2T1613 0T1646 3Q1639 -12 1635 -42T1631 -112Q1631 -150 1635 -165T1646 -192Q1625 -188 1603 -185T1560
-181T1522 -179T1495 -178Q1473 -178 1455 -179T1423 -184T1402 -199T1394 -229V-252Q1394 -294 1434 -312T1569 -330Q1564 -350 1559 -377T1554 -434Q1554 -465 1558 -496T1569 -550Q1540 -545 1491 -541T1384 -533T1263 -527T1148 -525Q1017 -525 930 -532T779
-550Q786 -529 790 -497T794 -434Q794 -405 791 -378T779 -330Q878 -330 933 -328T1014 -313T1047 -277T1053 -209L1052 -188Q1001 -180 936 -178T805 -176Q722 -176 662 -177T560 -180T491 -187T446 -197Q454 -178 454 -146Q454 -87 433 -40T389 37Z" />
<glyph unicode="&#xbf;" glyph-name="questiondown" horiz-adv-x="1364" d="M814 994Q814 958 826 932T856 889T895 862T934 851Q920 840 908 822T888 780T874 730T869 679Q869 661 871 644T880 613Q809 613 741 595T619 543T532 462T499 356Q499 210 627 210Q667
210 702 227T765 282T808 381T824 533Q862 525 911 521T1014 517Q1065 517 1116 521T1215 533Q1212 517 1209 488T1204 423T1201 348T1199 271Q1199 229 1201 197T1207 148Q1134 148 1078 130T979 86T909 31T864 -20Q850 -8 825 0T765 14T692 22T610 25Q574 25
538 23T470 15T415 1T380 -20Q373 9 346 40T279 98T191 141T94 159Q105 181 112 229T119 335Q119 399 114 453T94 536Q123 537 166 549T256 581T351 630T437 692T498 764T522 843Q522 895 513 929T489 992Q505 989 520 986T555 981T597 978T653 976Q671 976 695
977T743 981T786 986T814 994ZM923 1430Q912 1407 903 1362T894 1250Q894 1219 896 1190T903 1136T912 1092T924 1060Q906 1066 879 1071T818 1081T746 1087T669 1090Q633 1090 596 1089T526 1083T467 1074T424 1060Q437 1084 443 1137T449 1250Q449 1307 443 1353T424
1430Q440 1425 466 1421T526 1413T598 1407T675 1405Q714 1405 751 1407T822 1412T881 1420T923 1430Z" />
<glyph unicode="&#xc0;" glyph-name="Agrave" horiz-adv-x="1707" d="M8 0Q14 25 17 61T20 137Q20 173 18 204T10 260Q61 262 97 278T156 315Q180 352 205 398T250 492T284 589T297 680Q297 697 292 714T275 735Q305 743 335 779T393 868T445 986T487 1117T515
1247T525 1359Q525 1376 523 1392T521 1419Q521 1424 521 1428T522 1440Q545 1431 579 1425T657 1414T749 1407T851 1405Q897 1405 945 1407T1038 1413T1122 1424T1187 1440V1436V1427Q1187 1416 1185 1400T1182 1363Q1182 1317 1190 1255T1214 1127T1250 995T1298
875T1354 783T1417 735Q1403 730 1398 716T1392 680Q1392 638 1404 590T1437 493T1482 399T1531 318Q1546 309 1567 299T1611 280T1657 266T1700 260Q1695 236 1693 205T1690 137Q1690 98 1693 62T1702 0Q1666 4 1619 8T1518 16T1406 22T1290 25Q1184 25 1089 19T927
0Q930 17 932 53T935 135Q935 154 934 173T932 210T930 240T927 260Q945 260 965 261T1004 267T1042 278T1074 297Q1072 337 1061 365T1020 413T935 441T792 450Q713 450 661 444T576 422T528 376T508 298Q523 286 544 279T587 268T632 262T673 260Q671 254 670
241T667 211T666 173T665 135Q665 90 667 54T673 0Q597 14 519 19T360 25Q266 25 178 20T8 0ZM648 743Q648 714 654 695T677 665T722 650T795 645Q839 645 867 649T912 665T935 695T942 743Q942 778 924 829T882 936T833 1048T795 1149Q780 1104 755 1048T707 936T666
829T648 743ZM743 1510V1515Q743 1532 727 1570T684 1658T623 1762T553 1866T483 1954T422 2010Q438 2003 469 1998T538 1990T617 1985T696 1983Q777 1983 838 1990T936 2010Q934 2002 934 1993Q934 1969 942 1927T964 1834T994 1730T1028 1631T1061 1552T1088
1510Q1081 1515 1064 1519T1022 1526T968 1530T907 1532Q841 1532 801 1526T743 1510Z" />
<glyph unicode="&#xc1;" glyph-name="Aacute" horiz-adv-x="1707" d="M8 0Q14 25 17 61T20 137Q20 173 18 204T10 260Q61 262 97 278T156 315Q180 352 205 398T250 492T284 589T297 680Q297 697 292 714T275 735Q305 743 335 779T393 868T445 986T487 1117T515
1247T525 1359Q525 1376 523 1392T521 1419Q521 1424 521 1428T522 1440Q545 1431 579 1425T657 1414T749 1407T851 1405Q897 1405 945 1407T1038 1413T1122 1424T1187 1440V1436V1427Q1187 1416 1185 1400T1182 1363Q1182 1317 1190 1255T1214 1127T1250 995T1298
875T1354 783T1417 735Q1403 730 1398 716T1392 680Q1392 638 1404 590T1437 493T1482 399T1531 318Q1546 309 1567 299T1611 280T1657 266T1700 260Q1695 236 1693 205T1690 137Q1690 98 1693 62T1702 0Q1666 4 1619 8T1518 16T1406 22T1290 25Q1184 25 1089 19T927
0Q930 17 932 53T935 135Q935 154 934 173T932 210T930 240T927 260Q945 260 965 261T1004 267T1042 278T1074 297Q1072 337 1061 365T1020 413T935 441T792 450Q713 450 661 444T576 422T528 376T508 298Q523 286 544 279T587 268T632 262T673 260Q671 254 670
241T667 211T666 173T665 135Q665 90 667 54T673 0Q597 14 519 19T360 25Q266 25 178 20T8 0ZM648 743Q648 714 654 695T677 665T722 650T795 645Q839 645 867 649T912 665T935 695T942 743Q942 778 924 829T882 936T833 1048T795 1149Q780 1104 755 1048T707 936T666
829T648 743ZM642 1510Q652 1520 665 1551T691 1625T716 1720T737 1820T752 1912T758 1982Q758 2001 755 2010Q791 1998 852 1991T995 1983Q1032 1983 1073 1984T1153 1989T1221 1998T1269 2010Q1242 1993 1211 1955T1149 1868T1088 1765T1036 1661T1000 1572T986
1516Q986 1514 986 1513T987 1510Q970 1520 930 1526T823 1532Q791 1532 762 1531T708 1526T667 1519T642 1510Z" />
<glyph unicode="&#xc2;" glyph-name="Acircumflex" horiz-adv-x="1707" d="M8 0Q14 25 17 61T20 137Q20 173 18 204T10 260Q61 262 97 278T156 315Q180 352 205 398T250 492T284 589T297 680Q297 697 292 714T275 735Q305 743 335 779T393 868T445 986T487 1117T515
1247T525 1359Q525 1376 523 1392T521 1419Q521 1424 521 1428T522 1440Q545 1431 579 1425T657 1414T749 1407T851 1405Q897 1405 945 1407T1038 1413T1122 1424T1187 1440V1436V1427Q1187 1416 1185 1400T1182 1363Q1182 1317 1190 1255T1214 1127T1250 995T1298
875T1354 783T1417 735Q1403 730 1398 716T1392 680Q1392 638 1404 590T1437 493T1482 399T1531 318Q1546 309 1567 299T1611 280T1657 266T1700 260Q1695 236 1693 205T1690 137Q1690 98 1693 62T1702 0Q1666 4 1619 8T1518 16T1406 22T1290 25Q1184 25 1089 19T927
0Q930 17 932 53T935 135Q935 154 934 173T932 210T930 240T927 260Q945 260 965 261T1004 267T1042 278T1074 297Q1072 337 1061 365T1020 413T935 441T792 450Q713 450 661 444T576 422T528 376T508 298Q523 286 544 279T587 268T632 262T673 260Q671 254 670
241T667 211T666 173T665 135Q665 90 667 54T673 0Q597 14 519 19T360 25Q266 25 178 20T8 0ZM648 743Q648 714 654 695T677 665T722 650T795 645Q839 645 867 649T912 665T935 695T942 743Q942 778 924 829T882 936T833 1048T795 1149Q780 1104 755 1048T707 936T666
829T648 743ZM327 1559Q342 1570 371 1601T435 1674T506 1766T573 1861T622 1946T641 2006V2010Q653 2004 676 1999T728 1991T789 1985T852 1983Q924 1983 979 1990T1059 2010Q1059 2008 1059 2008T1058 2005Q1058 1983 1078 1945T1129 1860T1199 1765T1274 1674T1340
1601T1384 1559Q1369 1564 1323 1569T1207 1575Q1141 1575 1104 1570T1047 1559Q1038 1572 1025 1595T990 1644T937 1699T860 1753Q810 1728 776 1700T717 1644T678 1595T653 1559Q639 1564 604 1569T504 1575Q435 1575 389 1570T327 1559Z" />
<glyph unicode="&#xc3;" glyph-name="Atilde" horiz-adv-x="1707" d="M8 0Q14 25 17 61T20 137Q20 173 18 204T10 260Q61 262 97 278T156 315Q180 352 205 398T250 492T284 589T297 680Q297 697 292 714T275 735Q305 743 335 779T393 868T445 986T487 1117T515
1247T525 1359Q525 1376 523 1392T521 1419Q521 1424 521 1428T522 1440Q545 1431 579 1425T657 1414T749 1407T851 1405Q897 1405 945 1407T1038 1413T1122 1424T1187 1440V1436V1427Q1187 1416 1185 1400T1182 1363Q1182 1317 1190 1255T1214 1127T1250 995T1298
875T1354 783T1417 735Q1403 730 1398 716T1392 680Q1392 638 1404 590T1437 493T1482 399T1531 318Q1546 309 1567 299T1611 280T1657 266T1700 260Q1695 236 1693 205T1690 137Q1690 98 1693 62T1702 0Q1666 4 1619 8T1518 16T1406 22T1290 25Q1184 25 1089 19T927
0Q930 17 932 53T935 135Q935 154 934 173T932 210T930 240T927 260Q945 260 965 261T1004 267T1042 278T1074 297Q1072 337 1061 365T1020 413T935 441T792 450Q713 450 661 444T576 422T528 376T508 298Q523 286 544 279T587 268T632 262T673 260Q671 254 670
241T667 211T666 173T665 135Q665 90 667 54T673 0Q597 14 519 19T360 25Q266 25 178 20T8 0ZM648 743Q648 714 654 695T677 665T722 650T795 645Q839 645 867 649T912 665T935 695T942 743Q942 778 924 829T882 936T833 1048T795 1149Q780 1104 755 1048T707 936T666
829T648 743ZM273 1531Q280 1541 284 1559T292 1601T296 1649T298 1697Q298 1716 296 1739T290 1783T281 1818T270 1835Q341 1835 407 1851T525 1894T606 1950T637 2010Q706 2008 758 1994T850 1959T921 1915T975 1871T1020 1838T1062 1825Q1087 1825 1102 1834T1125
1857T1135 1889T1138 1925Q1138 1949 1132 1971T1116 2010Q1123 2002 1139 1997T1175 1989T1217 1985T1260 1984Q1285 1984 1314 1986T1369 1991T1414 1998T1438 2008Q1431 1999 1426 1984T1418 1948T1414 1904T1412 1857Q1412 1838 1414 1813T1420 1765T1429 1725T1440
1706Q1410 1709 1381 1709Q1307 1709 1250 1691T1153 1646T1094 1588T1073 1531Q1004 1533 952 1547T860 1582T789 1626T735 1670T690 1703T648 1716Q623 1716 609 1707T586 1683T576 1650T573 1613Q573 1589 578 1567T594 1528Q587 1535 570 1540T530 1548T484
1552T440 1554Q416 1554 390 1553T340 1548T298 1541T273 1531Z" />
<glyph unicode="&#xc4;" glyph-name="Adieresis" horiz-adv-x="1707" d="M8 0Q14 25 17 61T20 137Q20 173 18 204T10 260Q61 262 97 278T156 315Q180 352 205 398T250 492T284 589T297 680Q297 697 292 714T275 735Q305 743 335 779T393 868T445 986T487 1117T515
1247T525 1359Q525 1376 523 1392T521 1419Q521 1424 521 1428T522 1440Q545 1431 579 1425T657 1414T749 1407T851 1405Q897 1405 945 1407T1038 1413T1122 1424T1187 1440V1436V1427Q1187 1416 1185 1400T1182 1363Q1182 1317 1190 1255T1214 1127T1250 995T1298
875T1354 783T1417 735Q1403 730 1398 716T1392 680Q1392 638 1404 590T1437 493T1482 399T1531 318Q1546 309 1567 299T1611 280T1657 266T1700 260Q1695 236 1693 205T1690 137Q1690 98 1693 62T1702 0Q1666 4 1619 8T1518 16T1406 22T1290 25Q1184 25 1089 19T927
0Q930 17 932 53T935 135Q935 154 934 173T932 210T930 240T927 260Q945 260 965 261T1004 267T1042 278T1074 297Q1072 337 1061 365T1020 413T935 441T792 450Q713 450 661 444T576 422T528 376T508 298Q523 286 544 279T587 268T632 262T673 260Q671 254 670
241T667 211T666 173T665 135Q665 90 667 54T673 0Q597 14 519 19T360 25Q266 25 178 20T8 0ZM648 743Q648 714 654 695T677 665T722 650T795 645Q839 645 867 649T912 665T935 695T942 743Q942 778 924 829T882 936T833 1048T795 1149Q780 1104 755 1048T707 936T666
829T648 743ZM947 1640Q958 1665 965 1710T973 1824Q973 1887 965 1936T946 2010Q961 2004 986 1999T1041 1991T1106 1985T1175 1983Q1208 1983 1241 1984T1304 1989T1358 1998T1396 2010Q1385 1984 1379 1936T1373 1824Q1373 1706 1396 1640Q1382 1644 1358 1648T1304
1655T1240 1661T1170 1663Q1098 1663 1038 1656T947 1640ZM317 1640Q328 1665 335 1710T343 1824Q343 1887 335 1936T316 2010Q331 2004 356 1999T411 1991T476 1985T545 1983Q578 1983 611 1984T674 1989T728 1998T766 2010Q755 1984 749 1936T743 1824Q743 1706
766 1640Q752 1644 728 1648T674 1655T610 1661T540 1663Q468 1663 408 1656T317 1640Z" />
<glyph unicode="&#xc5;" glyph-name="Aring" horiz-adv-x="1707" d="M8 0Q14 25 17 61T20 137Q20 173 18 204T10 260Q61 262 97 278T156 315Q180 352 205 398T250 492T284 589T297 680Q297 697 292 714T275 735Q305 743 335 779T393 868T445 986T487 1117T515
1247T525 1359Q525 1376 523 1392T521 1419Q521 1424 521 1428T522 1440Q545 1431 579 1425T657 1414T749 1407T851 1405Q897 1405 945 1407T1038 1413T1122 1424T1187 1440V1436V1427Q1187 1416 1185 1400T1182 1363Q1182 1317 1190 1255T1214 1127T1250 995T1298
875T1354 783T1417 735Q1403 730 1398 716T1392 680Q1392 638 1404 590T1437 493T1482 399T1531 318Q1546 309 1567 299T1611 280T1657 266T1700 260Q1695 236 1693 205T1690 137Q1690 98 1693 62T1702 0Q1666 4 1619 8T1518 16T1406 22T1290 25Q1184 25 1089 19T927
0Q930 17 932 53T935 135Q935 154 934 173T932 210T930 240T927 260Q945 260 965 261T1004 267T1042 278T1074 297Q1072 337 1061 365T1020 413T935 441T792 450Q713 450 661 444T576 422T528 376T508 298Q523 286 544 279T587 268T632 262T673 260Q671 254 670
241T667 211T666 173T665 135Q665 90 667 54T673 0Q597 14 519 19T360 25Q266 25 178 20T8 0ZM648 743Q648 714 654 695T677 665T722 650T795 645Q839 645 867 649T912 665T935 695T942 743Q942 778 924 829T882 936T833 1048T795 1149Q780 1104 755 1048T707 936T666
829T648 743ZM642 1405Q630 1438 600 1469T534 1526T459 1566T394 1582Q405 1599 413 1629T422 1722Q422 1749 419 1768T412 1802T403 1827T394 1846Q424 1850 462 1864T538 1901T603 1951T640 2010Q651 2006 672 2001T723 1992T788 1985T863 1982Q899 1982 932
1985T993 1992T1041 2002T1070 2010Q1079 1979 1108 1951T1174 1901T1249 1865T1316 1846Q1306 1831 1297 1804T1288 1725Q1288 1664 1294 1632T1316 1582Q1288 1582 1249 1565T1173 1521T1106 1464T1068 1405Q1054 1408 1032 1412T982 1421T921 1429T853 1433Q819
1433 786 1430T724 1422T674 1413T642 1405ZM859 1590Q883 1590 906 1593T949 1609T980 1644T992 1707Q992 1775 956 1804T859 1833Q797 1833 761 1804T725 1707Q725 1668 737 1645T768 1609T811 1594T859 1590Z" />
<glyph unicode="&#xc6;" glyph-name="AE" horiz-adv-x="2385" d="M8 0Q14 25 17 61T20 137Q20 173 18 204T10 260Q73 262 123 278T203 315Q242 352 281 398T352 492T404 589T424 680Q424 697 419 714T402 735Q450 747 504 791T614 898T722 1036T817 1185T889 1326T929
1440Q942 1431 966 1424T1018 1413T1075 1407T1128 1405Q1146 1405 1174 1407T1230 1413T1282 1424T1314 1440Q1333 1428 1365 1422T1438 1411T1529 1406T1633 1405Q1669 1405 1723 1406T1840 1409T1968 1415T2091 1422T2192 1430T2256 1440Q2248 1398 2240 1334T2231
1197Q2231 1155 2234 1115T2240 1041T2248 982T2256 945Q2226 956 2180 963T2081 970Q2035 970 1989 965T1901 945Q1907 966 1911 997T1916 1061Q1916 1111 1899 1140T1854 1185T1795 1205T1735 1210Q1712 1210 1687 1209T1635 1202T1582 1187T1534 1161Q1530 1138
1527 1108T1524 1033Q1524 966 1526 929T1533 871Q1560 859 1596 854T1670 849Q1727 849 1778 858T1852 879Q1844 857 1841 818T1837 736Q1837 712 1838 689T1841 646T1846 612T1852 590Q1843 595 1823 600T1777 611T1719 619T1654 623Q1620 623 1589 619T1533
604Q1531 592 1530 577T1527 538T1525 482T1524 407Q1524 355 1527 321T1536 262Q1560 249 1587 241T1641 229T1695 222T1745 220Q1774 220 1804 227T1860 255T1901 312T1917 406Q1917 442 1913 477T1901 535Q1943 521 1989 516T2081 510Q2133 510 2179 517T2256
535Q2253 522 2249 495T2241 432T2234 352T2231 263Q2231 185 2239 115T2256 0Q2236 4 2192 7T2091 13T1969 18T1841 22T1724 24T1633 25Q1597 25 1538 25T1409 23T1266 19T1129 14T1016 8T947 0Q950 17 952 53T955 135Q955 154 954 173T952 210T950 240T947 260Q965
260 986 261T1028 266T1068 277T1102 297Q1101 337 1094 365T1066 413T1011 441T919 450Q840 450 775 439T662 407T582 357T540 294Q553 283 573 277T614 267T656 262T693 260Q691 254 690 241T687 211T686 173T685 135Q685 90 687 54T693 0Q612 14 530 19T360
25Q266 25 178 20T8 0ZM825 743Q825 714 836 695T867 665T913 650T972 645Q1022 645 1051 654T1096 680T1115 720T1119 773Q1119 806 1119 856T1117 961T1115 1073T1112 1177Q1093 1146 1065 1108T1004 1030T940 948T883 869T841 799T825 743Z" />
<glyph unicode="&#xc7;" glyph-name="Ccedilla" horiz-adv-x="1707" d="M106 268Q125 294 141 374T157 594Q157 657 140 690T91 735Q109 740 122 758T144 802T157 859T161 924Q161 1010 147 1076T106 1172H114Q147 1172 188 1187T271 1226T352 1281T423 1344T475
1406T497 1460Q530 1442 612 1424T830 1405Q862 1405 898 1409T969 1420T1034 1438T1083 1460Q1093 1429 1113 1397T1162 1341Q1190 1363 1202 1391T1220 1440Q1229 1435 1248 1432T1292 1426T1346 1422T1405 1420Q1423 1420 1447 1421T1495 1425T1543 1431T1583
1440Q1581 1432 1577 1409T1568 1356T1561 1292T1558 1227Q1558 1163 1561 1106T1567 1003T1575 924T1583 875Q1559 879 1532 881T1476 886T1420 889T1372 890Q1250 890 1153 875Q1153 943 1135 1004T1083 1110T999 1183T885 1210Q850 1210 815 1204T748 1180T688
1127T640 1037T608 898T596 702Q596 557 618 464T680 316T771 241T885 220Q946 220 992 245T1070 316T1118 423T1134 559Q1134 568 1134 577T1133 595Q1167 588 1195 583T1250 575T1306 571T1373 570Q1437 570 1492 577T1583 595Q1577 583 1573 559T1565 504T1560
439T1558 371Q1558 331 1565 287T1583 203Q1495 202 1428 176T1315 114T1242 43T1208 -10Q1187 -2 1159 4T1094 15T1007 22T895 25Q828 25 763 22T642 12T547 -3T491 -20Q479 26 438 75T341 165T223 234T106 268ZM500 -223Q531 -228 568 -230T631 -233Q672 -233
702 -224T753 -192T784 -133T794 -42Q794 -33 794 -19T793 10T791 41T789 68L1064 69Q1049 46 1041 18T1030 -39T1026 -97T1025 -147Q1025 -199 1034 -237T1075 -302Q1029 -313 995 -342T937 -409T898 -484T875 -550Q847 -544 806 -538T692 -531Q626 -531 573 -536T490
-550Q498 -539 504 -517T514 -468T520 -413T522 -360Q522 -317 517 -280T500 -223Z" />
<glyph unicode="&#xc8;" glyph-name="Egrave" horiz-adv-x="1533" d="M100 0Q106 25 110 60T115 134Q115 169 110 202T100 260Q145 260 179 267T236 290T270 335T282 407Q282 491 278 551T265 650T243 709T213 735Q231 741 244 754T265 798T278 885T282 1033Q282
1076 271 1104T236 1149T179 1173T100 1180Q105 1204 110 1237T115 1306Q115 1344 111 1379T100 1440Q120 1435 169 1431T283 1422T422 1415T566 1410T696 1406T792 1405Q828 1405 884 1406T1004 1409T1136 1415T1263 1422T1368 1430T1434 1440Q1426 1398 1418
1334T1409 1197Q1409 1155 1412 1115T1418 1041T1426 982T1434 945Q1419 951 1397 955T1348 963T1294 968T1240 970Q1194 970 1148 965T1060 945Q1067 966 1071 996T1076 1057Q1076 1108 1059 1138T1014 1185T955 1205T894 1210Q871 1210 846 1209T794 1202T741
1187T693 1161Q689 1138 686 1108T683 1033Q683 966 685 929T692 871Q719 859 755 854T829 849Q886 849 937 858T1011 879Q1003 857 1000 818T996 736Q996 712 997 689T1000 646T1005 612T1011 590Q1002 595 982 600T936 611T878 619T813 623Q779 623 748 619T692
604Q690 592 689 577T686 538T684 482T683 407Q683 353 687 320T696 262Q720 249 747 241T801 228T855 222T904 220Q933 220 963 227T1019 255T1060 312T1076 406Q1076 442 1072 477T1060 535Q1102 521 1148 516T1240 510Q1266 510 1294 511T1348 516T1396 524T1434
535Q1431 522 1427 495T1419 432T1412 352T1409 263Q1409 224 1411 187T1417 115T1425 52T1434 0Q1414 4 1369 7T1264 13T1137 18T1005 22T884 24T792 25Q756 25 697 25T567 23T422 19T283 14T169 8T100 0ZM645 1510V1515Q645 1532 629 1570T586 1658T525 1762T455
1866T385 1954T324 2010Q340 2003 371 1998T440 1990T519 1985T598 1983Q679 1983 740 1990T838 2010Q836 2002 836 1993Q836 1969 844 1927T866 1834T896 1730T930 1631T963 1552T990 1510Q983 1515 966 1519T924 1526T870 1530T809 1532Q743 1532 703 1526T645
1510Z" />
<glyph unicode="&#xc9;" glyph-name="Eacute" horiz-adv-x="1533" d="M100 0Q106 25 110 60T115 134Q115 169 110 202T100 260Q145 260 179 267T236 290T270 335T282 407Q282 491 278 551T265 650T243 709T213 735Q231 741 244 754T265 798T278 885T282 1033Q282
1076 271 1104T236 1149T179 1173T100 1180Q105 1204 110 1237T115 1306Q115 1344 111 1379T100 1440Q120 1435 169 1431T283 1422T422 1415T566 1410T696 1406T792 1405Q828 1405 884 1406T1004 1409T1136 1415T1263 1422T1368 1430T1434 1440Q1426 1398 1418
1334T1409 1197Q1409 1155 1412 1115T1418 1041T1426 982T1434 945Q1419 951 1397 955T1348 963T1294 968T1240 970Q1194 970 1148 965T1060 945Q1067 966 1071 996T1076 1057Q1076 1108 1059 1138T1014 1185T955 1205T894 1210Q871 1210 846 1209T794 1202T741
1187T693 1161Q689 1138 686 1108T683 1033Q683 966 685 929T692 871Q719 859 755 854T829 849Q886 849 937 858T1011 879Q1003 857 1000 818T996 736Q996 712 997 689T1000 646T1005 612T1011 590Q1002 595 982 600T936 611T878 619T813 623Q779 623 748 619T692
604Q690 592 689 577T686 538T684 482T683 407Q683 353 687 320T696 262Q720 249 747 241T801 228T855 222T904 220Q933 220 963 227T1019 255T1060 312T1076 406Q1076 442 1072 477T1060 535Q1102 521 1148 516T1240 510Q1266 510 1294 511T1348 516T1396 524T1434
535Q1431 522 1427 495T1419 432T1412 352T1409 263Q1409 224 1411 187T1417 115T1425 52T1434 0Q1414 4 1369 7T1264 13T1137 18T1005 22T884 24T792 25Q756 25 697 25T567 23T422 19T283 14T169 8T100 0ZM544 1510Q554 1520 567 1551T593 1625T618 1720T639 1820T654
1912T660 1982Q660 2001 657 2010Q693 1998 754 1991T897 1983Q934 1983 975 1984T1055 1989T1123 1998T1171 2010Q1144 1993 1113 1955T1051 1868T990 1765T938 1661T902 1572T888 1516Q888 1514 888 1513T889 1510Q872 1520 832 1526T725 1532Q693 1532 664 1531T610
1526T569 1519T544 1510Z" />
<glyph unicode="&#xca;" glyph-name="Ecircumflex" horiz-adv-x="1533" d="M100 0Q106 25 110 60T115 134Q115 169 110 202T100 260Q145 260 179 267T236 290T270 335T282 407Q282 491 278 551T265 650T243 709T213 735Q231 741 244 754T265 798T278 885T282 1033Q282
1076 271 1104T236 1149T179 1173T100 1180Q105 1204 110 1237T115 1306Q115 1344 111 1379T100 1440Q120 1435 169 1431T283 1422T422 1415T566 1410T696 1406T792 1405Q828 1405 884 1406T1004 1409T1136 1415T1263 1422T1368 1430T1434 1440Q1426 1398 1418
1334T1409 1197Q1409 1155 1412 1115T1418 1041T1426 982T1434 945Q1419 951 1397 955T1348 963T1294 968T1240 970Q1194 970 1148 965T1060 945Q1067 966 1071 996T1076 1057Q1076 1108 1059 1138T1014 1185T955 1205T894 1210Q871 1210 846 1209T794 1202T741
1187T693 1161Q689 1138 686 1108T683 1033Q683 966 685 929T692 871Q719 859 755 854T829 849Q886 849 937 858T1011 879Q1003 857 1000 818T996 736Q996 712 997 689T1000 646T1005 612T1011 590Q1002 595 982 600T936 611T878 619T813 623Q779 623 748 619T692
604Q690 592 689 577T686 538T684 482T683 407Q683 353 687 320T696 262Q720 249 747 241T801 228T855 222T904 220Q933 220 963 227T1019 255T1060 312T1076 406Q1076 442 1072 477T1060 535Q1102 521 1148 516T1240 510Q1266 510 1294 511T1348 516T1396 524T1434
535Q1431 522 1427 495T1419 432T1412 352T1409 263Q1409 224 1411 187T1417 115T1425 52T1434 0Q1414 4 1369 7T1264 13T1137 18T1005 22T884 24T792 25Q756 25 697 25T567 23T422 19T283 14T169 8T100 0ZM229 1559Q244 1570 273 1601T337 1674T408 1766T475 1861T524
1946T543 2006V2010Q555 2004 578 1999T630 1991T691 1985T754 1983Q826 1983 881 1990T961 2010Q961 2008 961 2008T960 2005Q960 1983 980 1945T1031 1860T1101 1765T1176 1674T1242 1601T1286 1559Q1271 1564 1225 1569T1109 1575Q1043 1575 1006 1570T949 1559Q940
1572 927 1595T892 1644T839 1699T762 1753Q712 1728 678 1700T619 1644T580 1595T555 1559Q541 1564 506 1569T406 1575Q337 1575 291 1570T229 1559Z" />
<glyph unicode="&#xcb;" glyph-name="Edieresis" horiz-adv-x="1533" d="M100 0Q106 25 110 60T115 134Q115 169 110 202T100 260Q145 260 179 267T236 290T270 335T282 407Q282 491 278 551T265 650T243 709T213 735Q231 741 244 754T265 798T278 885T282 1033Q282
1076 271 1104T236 1149T179 1173T100 1180Q105 1204 110 1237T115 1306Q115 1344 111 1379T100 1440Q120 1435 169 1431T283 1422T422 1415T566 1410T696 1406T792 1405Q828 1405 884 1406T1004 1409T1136 1415T1263 1422T1368 1430T1434 1440Q1426 1398 1418
1334T1409 1197Q1409 1155 1412 1115T1418 1041T1426 982T1434 945Q1419 951 1397 955T1348 963T1294 968T1240 970Q1194 970 1148 965T1060 945Q1067 966 1071 996T1076 1057Q1076 1108 1059 1138T1014 1185T955 1205T894 1210Q871 1210 846 1209T794 1202T741
1187T693 1161Q689 1138 686 1108T683 1033Q683 966 685 929T692 871Q719 859 755 854T829 849Q886 849 937 858T1011 879Q1003 857 1000 818T996 736Q996 712 997 689T1000 646T1005 612T1011 590Q1002 595 982 600T936 611T878 619T813 623Q779 623 748 619T692
604Q690 592 689 577T686 538T684 482T683 407Q683 353 687 320T696 262Q720 249 747 241T801 228T855 222T904 220Q933 220 963 227T1019 255T1060 312T1076 406Q1076 442 1072 477T1060 535Q1102 521 1148 516T1240 510Q1266 510 1294 511T1348 516T1396 524T1434
535Q1431 522 1427 495T1419 432T1412 352T1409 263Q1409 224 1411 187T1417 115T1425 52T1434 0Q1414 4 1369 7T1264 13T1137 18T1005 22T884 24T792 25Q756 25 697 25T567 23T422 19T283 14T169 8T100 0ZM849 1640Q860 1665 867 1710T875 1824Q875 1887 867 1936T848
2010Q863 2004 888 1999T943 1991T1008 1985T1077 1983Q1110 1983 1143 1984T1206 1989T1260 1998T1298 2010Q1287 1984 1281 1936T1275 1824Q1275 1706 1298 1640Q1284 1644 1260 1648T1206 1655T1142 1661T1072 1663Q1000 1663 940 1656T849 1640ZM219 1640Q230
1665 237 1710T245 1824Q245 1887 237 1936T218 2010Q233 2004 258 1999T313 1991T378 1985T447 1983Q480 1983 513 1984T576 1989T630 1998T668 2010Q657 1984 651 1936T645 1824Q645 1706 668 1640Q654 1644 630 1648T576 1655T512 1661T442 1663Q370 1663 310
1656T219 1640Z" />
<glyph unicode="&#xcc;" glyph-name="Igrave" horiz-adv-x="1022" d="M110 0Q116 25 120 60T125 134Q125 169 120 202T110 260Q155 260 193 267T260 290T305 335T322 407Q322 491 318 551T305 650T283 709T253 735Q271 741 284 756T305 807T318 900T322 1051Q322
1091 304 1116T256 1155T190 1175T119 1180H100Q105 1204 110 1235T115 1302Q115 1339 111 1377T100 1440Q119 1433 166 1427T274 1416T400 1408T523 1405Q581 1405 642 1408T757 1416T853 1427T915 1440Q909 1415 905 1377T900 1302Q900 1267 905 1236T915 1180H894Q857
1180 826 1175T772 1156T736 1116T723 1051Q723 959 727 901T739 807T761 757T792 735Q775 730 762 710T741 650T728 551T723 407Q723 364 737 336T779 291T845 267T935 260Q930 236 925 203T920 134Q920 96 924 61T935 0Q906 6 858 10T752 18T634 23T523 25Q472
25 412 24T294 19T187 11T110 0ZM400 1510V1515Q400 1532 384 1570T341 1658T280 1762T210 1866T140 1954T79 2010Q95 2003 126 1998T195 1990T274 1985T353 1983Q434 1983 495 1990T593 2010Q591 2002 591 1993Q591 1969 599 1927T621 1834T651 1730T685 1631T718
1552T745 1510Q738 1515 721 1519T679 1526T625 1530T564 1532Q498 1532 458 1526T400 1510Z" />
<glyph unicode="&#xcd;" glyph-name="Iacute" horiz-adv-x="1022" d="M110 0Q116 25 120 60T125 134Q125 169 120 202T110 260Q155 260 193 267T260 290T305 335T322 407Q322 491 318 551T305 650T283 709T253 735Q271 741 284 756T305 807T318 900T322 1051Q322
1091 304 1116T256 1155T190 1175T119 1180H100Q105 1204 110 1235T115 1302Q115 1339 111 1377T100 1440Q119 1433 166 1427T274 1416T400 1408T523 1405Q581 1405 642 1408T757 1416T853 1427T915 1440Q909 1415 905 1377T900 1302Q900 1267 905 1236T915 1180H894Q857
1180 826 1175T772 1156T736 1116T723 1051Q723 959 727 901T739 807T761 757T792 735Q775 730 762 710T741 650T728 551T723 407Q723 364 737 336T779 291T845 267T935 260Q930 236 925 203T920 134Q920 96 924 61T935 0Q906 6 858 10T752 18T634 23T523 25Q472
25 412 24T294 19T187 11T110 0ZM299 1510Q309 1520 322 1551T348 1625T373 1720T394 1820T409 1912T415 1982Q415 2001 412 2010Q448 1998 509 1991T652 1983Q689 1983 730 1984T810 1989T878 1998T926 2010Q899 1993 868 1955T806 1868T745 1765T693 1661T657
1572T643 1516Q643 1514 643 1513T644 1510Q627 1520 587 1526T480 1532Q448 1532 419 1531T365 1526T324 1519T299 1510Z" />
<glyph unicode="&#xce;" glyph-name="Icircumflex" horiz-adv-x="1022" d="M110 0Q116 25 120 60T125 134Q125 169 120 202T110 260Q155 260 193 267T260 290T305 335T322 407Q322 491 318 551T305 650T283 709T253 735Q271 741 284 756T305 807T318 900T322 1051Q322
1091 304 1116T256 1155T190 1175T119 1180H100Q105 1204 110 1235T115 1302Q115 1339 111 1377T100 1440Q119 1433 166 1427T274 1416T400 1408T523 1405Q581 1405 642 1408T757 1416T853 1427T915 1440Q909 1415 905 1377T900 1302Q900 1267 905 1236T915 1180H894Q857
1180 826 1175T772 1156T736 1116T723 1051Q723 959 727 901T739 807T761 757T792 735Q775 730 762 710T741 650T728 551T723 407Q723 364 737 336T779 291T845 267T935 260Q930 236 925 203T920 134Q920 96 924 61T935 0Q906 6 858 10T752 18T634 23T523 25Q472
25 412 24T294 19T187 11T110 0ZM-16 1559Q-1 1570 28 1601T92 1674T163 1766T230 1861T279 1946T298 2006V2010Q310 2004 333 1999T385 1991T446 1985T509 1983Q581 1983 636 1990T716 2010Q716 2008 716 2008T715 2005Q715 1983 735 1945T786 1860T856 1765T931
1674T997 1601T1041 1559Q1026 1564 980 1569T864 1575Q798 1575 761 1570T704 1559Q695 1572 682 1595T647 1644T594 1699T517 1753Q467 1728 433 1700T374 1644T335 1595T310 1559Q296 1564 261 1569T161 1575Q92 1575 46 1570T-16 1559Z" />
<glyph unicode="&#xcf;" glyph-name="Idieresis" horiz-adv-x="1022" d="M110 0Q116 25 120 60T125 134Q125 169 120 202T110 260Q155 260 193 267T260 290T305 335T322 407Q322 491 318 551T305 650T283 709T253 735Q271 741 284 756T305 807T318 900T322 1051Q322
1091 304 1116T256 1155T190 1175T119 1180H100Q105 1204 110 1235T115 1302Q115 1339 111 1377T100 1440Q119 1433 166 1427T274 1416T400 1408T523 1405Q581 1405 642 1408T757 1416T853 1427T915 1440Q909 1415 905 1377T900 1302Q900 1267 905 1236T915 1180H894Q857
1180 826 1175T772 1156T736 1116T723 1051Q723 959 727 901T739 807T761 757T792 735Q775 730 762 710T741 650T728 551T723 407Q723 364 737 336T779 291T845 267T935 260Q930 236 925 203T920 134Q920 96 924 61T935 0Q906 6 858 10T752 18T634 23T523 25Q472
25 412 24T294 19T187 11T110 0ZM604 1640Q615 1665 622 1710T630 1824Q630 1887 622 1936T603 2010Q618 2004 643 1999T698 1991T763 1985T832 1983Q865 1983 898 1984T961 1989T1015 1998T1053 2010Q1042 1984 1036 1936T1030 1824Q1030 1706 1053 1640Q1039
1644 1015 1648T961 1655T897 1661T827 1663Q755 1663 695 1656T604 1640ZM-26 1640Q-15 1665 -8 1710T0 1824Q0 1887 -8 1936T-27 2010Q-12 2004 13 1999T68 1991T133 1985T202 1983Q235 1983 268 1984T331 1989T385 1998T423 2010Q412 1984 406 1936T400 1824Q400
1706 423 1640Q409 1644 385 1648T331 1655T267 1661T197 1663Q125 1663 65 1656T-26 1640Z" />
<glyph unicode="&#xd0;" glyph-name="Eth" horiz-adv-x="1644" d="M100 0Q106 25 110 60T115 134Q115 169 110 202T100 260Q145 260 179 267T236 290T270 335T282 407V576Q282 611 264 633T192 656Q175 656 155 654T110 648Q115 677 117 711T119 780Q119 811 118
842T110 900Q159 894 193 894Q242 894 262 911T282 968V1033Q282 1076 271 1104T236 1149T179 1173T100 1180Q105 1204 110 1237T115 1306Q115 1344 111 1379T100 1440Q113 1435 151 1430T240 1422T352 1415T470 1410T578 1406T662 1405Q749 1405 829 1406T975
1412T1090 1423T1163 1440Q1165 1419 1182 1396T1227 1349T1288 1303T1357 1264T1426 1236T1485 1224Q1480 1194 1478 1163T1475 1101Q1475 1034 1485 972T1513 859T1554 775T1603 735Q1576 729 1553 697T1512 615T1485 498T1475 359Q1475 324 1477 288T1485 216Q1459
215 1427 205T1360 179T1292 141T1231 96T1186 48T1163 0Q1139 7 1091 12T976 20T829 24T662 25Q629 25 579 25T470 23T352 19T240 14T151 8T100 0ZM686 239Q714 229 742 225T815 220Q881 220 937 250T1034 345T1098 512T1122 759Q1122 980 1048 1095T825 1210Q783
1210 749 1205T685 1185Q682 1164 680 1135T676 1077T673 1025T672 991Q672 941 701 917T804 892Q820 892 834 893T864 897T899 902T946 910Q939 884 938 849T937 777Q937 692 946 635Q918 638 898 640T862 644T832 647T802 648Q764 648 739 644T700 630T679 606T673
572Q673 540 674 499T676 413T680 323T686 239Z" />
<glyph unicode="&#xd1;" glyph-name="Ntilde" horiz-adv-x="1875" d="M100 0Q106 25 110 60T115 134Q115 169 110 202T100 260Q145 260 179 267T236 290T270 335T282 407Q282 498 278 559T265 657T243 712T213 735Q231 741 244 756T265 807T278 900T282 1051Q282
1091 269 1116T234 1155T183 1175T119 1180H100Q105 1204 110 1235T115 1302Q115 1339 111 1377T100 1440Q139 1426 211 1416T398 1405Q473 1405 544 1413T675 1433Q675 1385 695 1324T749 1196T826 1060T917 925T1012 803T1101 703T1174 635T1220 610H1222Q1223
610 1224 610T1228 609Q1236 639 1240 685T1247 789T1251 913T1252 1051Q1252 1091 1239 1116T1204 1155T1153 1175T1089 1180H1070Q1075 1204 1080 1235T1085 1302Q1085 1339 1081 1377T1070 1440Q1089 1433 1130 1427T1224 1416T1336 1408T1453 1405Q1511 1405
1570 1408T1682 1416T1775 1427T1835 1440Q1829 1415 1825 1377T1820 1302Q1820 1267 1825 1236T1835 1180H1814Q1778 1180 1748 1175T1697 1156T1665 1116T1653 1051Q1653 959 1658 899T1674 803T1699 752T1732 735Q1715 726 1702 707T1681 647T1668 538T1663
363Q1663 291 1669 232T1683 127T1702 50T1720 0Q1695 8 1664 13T1601 20T1539 24T1487 25Q1463 25 1433 24T1372 21T1308 13T1249 0Q1249 50 1221 119T1146 264T1041 418T923 565T808 690T714 777Q695 732 689 636T683 407Q683 364 692 336T724 291T780 267T865
260Q860 236 855 203T850 134Q850 96 854 61T865 0Q836 6 792 10T696 18T589 23T483 25Q432 25 377 24T269 19T173 11T100 0ZM385 1531Q392 1541 396 1559T404 1601T408 1649T410 1697Q410 1716 408 1739T402 1783T393 1818T382 1835Q453 1835 519 1851T637 1894T718
1950T749 2010Q818 2008 870 1994T962 1959T1033 1915T1087 1871T1132 1838T1174 1825Q1199 1825 1214 1834T1237 1857T1247 1889T1250 1925Q1250 1949 1244 1971T1228 2010Q1235 2002 1251 1997T1287 1989T1329 1985T1372 1984Q1397 1984 1426 1986T1481 1991T1526
1998T1550 2008Q1543 1999 1538 1984T1530 1948T1526 1904T1524 1857Q1524 1838 1526 1813T1532 1765T1541 1725T1552 1706Q1522 1709 1493 1709Q1419 1709 1362 1691T1265 1646T1206 1588T1185 1531Q1116 1533 1064 1547T972 1582T901 1626T847 1670T802 1703T760
1716Q735 1716 721 1707T698 1683T688 1650T685 1613Q685 1589 690 1567T706 1528Q699 1535 682 1540T642 1548T596 1552T552 1554Q528 1554 502 1553T452 1548T410 1541T385 1531Z" />
<glyph unicode="&#xd2;" glyph-name="Ograve" horiz-adv-x="1707" d="M98 268Q117 294 133 374T149 594Q149 657 132 690T83 735Q101 740 114 758T136 802T149 859T153 924Q153 1010 139 1076T98 1172H106Q140 1172 181 1187T266 1226T350 1281T423 1344T476 1406T499
1460Q515 1451 548 1442T628 1424T732 1410T853 1405Q916 1405 973 1410T1077 1423T1157 1441T1207 1460Q1209 1437 1229 1407T1282 1344T1356 1282T1440 1227T1524 1187T1600 1172H1608Q1582 1143 1568 1077T1553 924Q1553 891 1557 860T1570 802T1592 758T1623
735Q1591 724 1574 691T1557 594Q1557 455 1573 375T1608 268Q1554 262 1490 234T1369 165T1268 76T1213 -20Q1197 -11 1163 -3T1081 11T975 21T853 25Q790 25 732 22T626 12T544 -3T493 -20Q481 27 438 75T338 165T216 234T98 268ZM853 220Q909 220 957 239T1041
312T1097 459T1118 702Q1118 819 1108 902T1079 1041T1035 1131T980 1182T918 1205T853 1210Q820 1210 788 1205T727 1183T672 1132T628 1042T599 902T588 702Q588 553 608 460T664 313T748 240T853 220ZM741 1510V1515Q741 1532 725 1570T682 1658T621 1762T551
1866T481 1954T420 2010Q436 2003 467 1998T536 1990T615 1985T694 1983Q775 1983 836 1990T934 2010Q932 2002 932 1993Q932 1969 940 1927T962 1834T992 1730T1026 1631T1059 1552T1086 1510Q1079 1515 1062 1519T1020 1526T966 1530T905 1532Q839 1532 799 1526T741
1510Z" />
<glyph unicode="&#xd3;" glyph-name="Oacute" horiz-adv-x="1707" d="M98 268Q117 294 133 374T149 594Q149 657 132 690T83 735Q101 740 114 758T136 802T149 859T153 924Q153 1010 139 1076T98 1172H106Q140 1172 181 1187T266 1226T350 1281T423 1344T476 1406T499
1460Q515 1451 548 1442T628 1424T732 1410T853 1405Q916 1405 973 1410T1077 1423T1157 1441T1207 1460Q1209 1437 1229 1407T1282 1344T1356 1282T1440 1227T1524 1187T1600 1172H1608Q1582 1143 1568 1077T1553 924Q1553 891 1557 860T1570 802T1592 758T1623
735Q1591 724 1574 691T1557 594Q1557 455 1573 375T1608 268Q1554 262 1490 234T1369 165T1268 76T1213 -20Q1197 -11 1163 -3T1081 11T975 21T853 25Q790 25 732 22T626 12T544 -3T493 -20Q481 27 438 75T338 165T216 234T98 268ZM853 220Q909 220 957 239T1041
312T1097 459T1118 702Q1118 819 1108 902T1079 1041T1035 1131T980 1182T918 1205T853 1210Q820 1210 788 1205T727 1183T672 1132T628 1042T599 902T588 702Q588 553 608 460T664 313T748 240T853 220ZM640 1510Q650 1520 663 1551T689 1625T714 1720T735 1820T750
1912T756 1982Q756 2001 753 2010Q789 1998 850 1991T993 1983Q1030 1983 1071 1984T1151 1989T1219 1998T1267 2010Q1240 1993 1209 1955T1147 1868T1086 1765T1034 1661T998 1572T984 1516Q984 1514 984 1513T985 1510Q968 1520 928 1526T821 1532Q789 1532 760
1531T706 1526T665 1519T640 1510Z" />
<glyph unicode="&#xd4;" glyph-name="Ocircumflex" horiz-adv-x="1707" d="M98 268Q117 294 133 374T149 594Q149 657 132 690T83 735Q101 740 114 758T136 802T149 859T153 924Q153 1010 139 1076T98 1172H106Q140 1172 181 1187T266 1226T350 1281T423 1344T476
1406T499 1460Q515 1451 548 1442T628 1424T732 1410T853 1405Q916 1405 973 1410T1077 1423T1157 1441T1207 1460Q1209 1437 1229 1407T1282 1344T1356 1282T1440 1227T1524 1187T1600 1172H1608Q1582 1143 1568 1077T1553 924Q1553 891 1557 860T1570 802T1592
758T1623 735Q1591 724 1574 691T1557 594Q1557 455 1573 375T1608 268Q1554 262 1490 234T1369 165T1268 76T1213 -20Q1197 -11 1163 -3T1081 11T975 21T853 25Q790 25 732 22T626 12T544 -3T493 -20Q481 27 438 75T338 165T216 234T98 268ZM853 220Q909 220 957
239T1041 312T1097 459T1118 702Q1118 819 1108 902T1079 1041T1035 1131T980 1182T918 1205T853 1210Q820 1210 788 1205T727 1183T672 1132T628 1042T599 902T588 702Q588 553 608 460T664 313T748 240T853 220ZM325 1559Q340 1570 369 1601T433 1674T504 1766T571
1861T620 1946T639 2006V2010Q651 2004 674 1999T726 1991T787 1985T850 1983Q922 1983 977 1990T1057 2010Q1057 2008 1057 2008T1056 2005Q1056 1983 1076 1945T1127 1860T1197 1765T1272 1674T1338 1601T1382 1559Q1367 1564 1321 1569T1205 1575Q1139 1575
1102 1570T1045 1559Q1036 1572 1023 1595T988 1644T935 1699T858 1753Q808 1728 774 1700T715 1644T676 1595T651 1559Q637 1564 602 1569T502 1575Q433 1575 387 1570T325 1559Z" />
<glyph unicode="&#xd5;" glyph-name="Otilde" horiz-adv-x="1707" d="M98 268Q117 294 133 374T149 594Q149 657 132 690T83 735Q101 740 114 758T136 802T149 859T153 924Q153 1010 139 1076T98 1172H106Q140 1172 181 1187T266 1226T350 1281T423 1344T476 1406T499
1460Q515 1451 548 1442T628 1424T732 1410T853 1405Q916 1405 973 1410T1077 1423T1157 1441T1207 1460Q1209 1437 1229 1407T1282 1344T1356 1282T1440 1227T1524 1187T1600 1172H1608Q1582 1143 1568 1077T1553 924Q1553 891 1557 860T1570 802T1592 758T1623
735Q1591 724 1574 691T1557 594Q1557 455 1573 375T1608 268Q1554 262 1490 234T1369 165T1268 76T1213 -20Q1197 -11 1163 -3T1081 11T975 21T853 25Q790 25 732 22T626 12T544 -3T493 -20Q481 27 438 75T338 165T216 234T98 268ZM853 220Q909 220 957 239T1041
312T1097 459T1118 702Q1118 819 1108 902T1079 1041T1035 1131T980 1182T918 1205T853 1210Q820 1210 788 1205T727 1183T672 1132T628 1042T599 902T588 702Q588 553 608 460T664 313T748 240T853 220ZM271 1531Q278 1541 282 1559T290 1601T294 1649T296 1697Q296
1716 294 1739T288 1783T279 1818T268 1835Q339 1835 405 1851T523 1894T604 1950T635 2010Q704 2008 756 1994T848 1959T919 1915T973 1871T1018 1838T1060 1825Q1085 1825 1100 1834T1123 1857T1133 1889T1136 1925Q1136 1949 1130 1971T1114 2010Q1121 2002
1137 1997T1173 1989T1215 1985T1258 1984Q1283 1984 1312 1986T1367 1991T1412 1998T1436 2008Q1429 1999 1424 1984T1416 1948T1412 1904T1410 1857Q1410 1838 1412 1813T1418 1765T1427 1725T1438 1706Q1408 1709 1379 1709Q1305 1709 1248 1691T1151 1646T1092
1588T1071 1531Q1002 1533 950 1547T858 1582T787 1626T733 1670T688 1703T646 1716Q621 1716 607 1707T584 1683T574 1650T571 1613Q571 1589 576 1567T592 1528Q585 1535 568 1540T528 1548T482 1552T438 1554Q414 1554 388 1553T338 1548T296 1541T271 1531Z"
/>
<glyph unicode="&#xd6;" glyph-name="Odieresis" horiz-adv-x="1707" d="M98 268Q117 294 133 374T149 594Q149 657 132 690T83 735Q101 740 114 758T136 802T149 859T153 924Q153 1010 139 1076T98 1172H106Q140 1172 181 1187T266 1226T350 1281T423 1344T476
1406T499 1460Q515 1451 548 1442T628 1424T732 1410T853 1405Q916 1405 973 1410T1077 1423T1157 1441T1207 1460Q1209 1437 1229 1407T1282 1344T1356 1282T1440 1227T1524 1187T1600 1172H1608Q1582 1143 1568 1077T1553 924Q1553 891 1557 860T1570 802T1592
758T1623 735Q1591 724 1574 691T1557 594Q1557 455 1573 375T1608 268Q1554 262 1490 234T1369 165T1268 76T1213 -20Q1197 -11 1163 -3T1081 11T975 21T853 25Q790 25 732 22T626 12T544 -3T493 -20Q481 27 438 75T338 165T216 234T98 268ZM853 220Q909 220 957
239T1041 312T1097 459T1118 702Q1118 819 1108 902T1079 1041T1035 1131T980 1182T918 1205T853 1210Q820 1210 788 1205T727 1183T672 1132T628 1042T599 902T588 702Q588 553 608 460T664 313T748 240T853 220ZM945 1640Q956 1665 963 1710T971 1824Q971 1887
963 1936T944 2010Q959 2004 984 1999T1039 1991T1104 1985T1173 1983Q1206 1983 1239 1984T1302 1989T1356 1998T1394 2010Q1383 1984 1377 1936T1371 1824Q1371 1706 1394 1640Q1380 1644 1356 1648T1302 1655T1238 1661T1168 1663Q1096 1663 1036 1656T945 1640ZM315
1640Q326 1665 333 1710T341 1824Q341 1887 333 1936T314 2010Q329 2004 354 1999T409 1991T474 1985T543 1983Q576 1983 609 1984T672 1989T726 1998T764 2010Q753 1984 747 1936T741 1824Q741 1706 764 1640Q750 1644 726 1648T672 1655T608 1661T538 1663Q466
1663 406 1656T315 1640Z" />
<glyph unicode="&#xd7;" glyph-name="multiply" horiz-adv-x="1360" d="M295 299Q284 309 267 324T232 356T196 385T167 405Q243 455 317 521T474 687Q445 721 412 755Q377 789 347 818T288 873T230 922T167 967Q178 973 195 986T231 1015T267 1046T295 1073Q335
1113 363 1147T399 1199Q424 1161 452 1124T515 1049T589 973T680 893Q777 973 843 1047T961 1199Q967 1188 980 1171T1009 1135T1040 1099T1067 1071Q1107 1031 1141 1003T1193 967Q1160 945 1131 922T1072 874T1013 819T948 755Q914 721 886 687Q927 637 966
597T1042 522T1117 459T1193 405Q1176 397 1142 369T1067 301Q1056 290 1041 273T1009 238T980 202T961 173Q939 206 916 235T868 294T813 353T749 418Q714 452 680 481Q645 452 611 418Q576 383 547 353T493 294T444 235T399 173Q391 190 363 224T295 299Z" />
<glyph unicode="&#xd8;" glyph-name="Oslash" horiz-adv-x="1707" d="M218 -137Q235 -128 264 -93T330 -8T405 102T482 221T551 333T604 424L996 1133Q1030 1195 1062 1256T1118 1374T1158 1477T1173 1557Q1173 1581 1164 1596Q1180 1585 1216 1579T1298 1573Q1338
1573 1367 1576T1418 1583T1454 1591T1480 1598Q1463 1589 1437 1555T1380 1473T1314 1366T1247 1251T1186 1141T1138 1052L746 343Q710 278 672 212T601 85T549 -25T528 -107Q528 -125 534 -135Q516 -124 475 -118T380 -112Q343 -112 317 -115T273 -122T241 -130T218
-137ZM98 268Q117 294 133 374T149 594Q149 657 132 690T83 735Q101 740 114 758T136 802T149 859T153 924Q153 1010 139 1076T98 1172H106Q140 1172 181 1187T266 1226T350 1281T423 1344T476 1406T499 1460Q515 1451 548 1442T628 1424T732 1410T853 1405Q916
1405 973 1410T1077 1423T1157 1441T1207 1460Q1209 1437 1229 1407T1282 1344T1356 1282T1440 1227T1524 1187T1600 1172H1608Q1582 1143 1568 1077T1553 924Q1553 891 1557 860T1570 802T1592 758T1623 735Q1591 724 1574 691T1557 594Q1557 455 1573 375T1608
268Q1554 262 1490 234T1369 165T1268 76T1213 -20Q1197 -11 1163 -3T1081 11T975 21T853 25Q790 25 732 22T626 12T544 -3T493 -20Q481 27 438 75T338 165T216 234T98 268ZM853 220Q909 220 957 239T1041 312T1097 459T1118 702Q1118 819 1108 902T1079 1041T1035
1131T980 1182T918 1205T853 1210Q820 1210 788 1205T727 1183T672 1132T628 1042T599 902T588 702Q588 553 608 460T664 313T748 240T853 220Z" />
<glyph unicode="&#xd9;" glyph-name="Ugrave" horiz-adv-x="1872" d="M248 268Q255 289 262 323T276 401T285 494T289 594Q289 657 269 690T213 735Q243 742 259 759T284 811T293 904T295 1051Q295 1091 284 1116T251 1155T200 1175T133 1180H113Q118 1204 123
1235T128 1302Q128 1339 124 1377T113 1440Q132 1433 173 1427T267 1416T379 1408T496 1405Q551 1405 612 1408T729 1416T826 1427T888 1440Q881 1415 877 1377T873 1302Q873 1267 878 1236T888 1180H870Q837 1180 811 1175T766 1156T737 1116T726 1051V597Q726
481 745 408T795 293T869 236T958 220Q1004 220 1045 235T1118 293T1167 408T1185 597V1051Q1185 1091 1174 1116T1143 1155T1097 1175T1040 1180H1023Q1028 1204 1033 1235T1038 1302Q1038 1339 1034 1377T1023 1440Q1042 1433 1079 1427T1163 1416T1266 1408T1376
1405Q1434 1405 1493 1408T1605 1416T1698 1427T1758 1440Q1751 1415 1747 1377T1743 1302Q1743 1267 1748 1236T1758 1180H1738Q1702 1180 1676 1175T1631 1156T1605 1116T1596 1051Q1596 962 1597 904T1607 811T1631 759T1678 735Q1642 724 1622 691T1602 594Q1602
544 1605 495T1614 402T1627 324T1643 268Q1609 264 1570 250T1490 214T1411 165T1341 107T1287 44T1258 -20Q1244 -11 1213 -3T1140 11T1045 21T938 25Q882 25 831 22T737 12T663 -3T618 -20Q607 26 578 72T502 158T392 227T248 268ZM823 1510V1515Q823 1532 807
1570T764 1658T703 1762T633 1866T563 1954T502 2010Q518 2003 549 1998T618 1990T697 1985T776 1983Q857 1983 918 1990T1016 2010Q1014 2002 1014 1993Q1014 1969 1022 1927T1044 1834T1074 1730T1108 1631T1141 1552T1168 1510Q1161 1515 1144 1519T1102 1526T1048
1530T987 1532Q921 1532 881 1526T823 1510Z" />
<glyph unicode="&#xda;" glyph-name="Uacute" horiz-adv-x="1872" d="M248 268Q255 289 262 323T276 401T285 494T289 594Q289 657 269 690T213 735Q243 742 259 759T284 811T293 904T295 1051Q295 1091 284 1116T251 1155T200 1175T133 1180H113Q118 1204 123
1235T128 1302Q128 1339 124 1377T113 1440Q132 1433 173 1427T267 1416T379 1408T496 1405Q551 1405 612 1408T729 1416T826 1427T888 1440Q881 1415 877 1377T873 1302Q873 1267 878 1236T888 1180H870Q837 1180 811 1175T766 1156T737 1116T726 1051V597Q726
481 745 408T795 293T869 236T958 220Q1004 220 1045 235T1118 293T1167 408T1185 597V1051Q1185 1091 1174 1116T1143 1155T1097 1175T1040 1180H1023Q1028 1204 1033 1235T1038 1302Q1038 1339 1034 1377T1023 1440Q1042 1433 1079 1427T1163 1416T1266 1408T1376
1405Q1434 1405 1493 1408T1605 1416T1698 1427T1758 1440Q1751 1415 1747 1377T1743 1302Q1743 1267 1748 1236T1758 1180H1738Q1702 1180 1676 1175T1631 1156T1605 1116T1596 1051Q1596 962 1597 904T1607 811T1631 759T1678 735Q1642 724 1622 691T1602 594Q1602
544 1605 495T1614 402T1627 324T1643 268Q1609 264 1570 250T1490 214T1411 165T1341 107T1287 44T1258 -20Q1244 -11 1213 -3T1140 11T1045 21T938 25Q882 25 831 22T737 12T663 -3T618 -20Q607 26 578 72T502 158T392 227T248 268ZM722 1510Q732 1520 745 1551T771
1625T796 1720T817 1820T832 1912T838 1982Q838 2001 835 2010Q871 1998 932 1991T1075 1983Q1112 1983 1153 1984T1233 1989T1301 1998T1349 2010Q1322 1993 1291 1955T1229 1868T1168 1765T1116 1661T1080 1572T1066 1516Q1066 1514 1066 1513T1067 1510Q1050
1520 1010 1526T903 1532Q871 1532 842 1531T788 1526T747 1519T722 1510Z" />
<glyph unicode="&#xdb;" glyph-name="Ucircumflex" horiz-adv-x="1872" d="M248 268Q255 289 262 323T276 401T285 494T289 594Q289 657 269 690T213 735Q243 742 259 759T284 811T293 904T295 1051Q295 1091 284 1116T251 1155T200 1175T133 1180H113Q118 1204
123 1235T128 1302Q128 1339 124 1377T113 1440Q132 1433 173 1427T267 1416T379 1408T496 1405Q551 1405 612 1408T729 1416T826 1427T888 1440Q881 1415 877 1377T873 1302Q873 1267 878 1236T888 1180H870Q837 1180 811 1175T766 1156T737 1116T726 1051V597Q726
481 745 408T795 293T869 236T958 220Q1004 220 1045 235T1118 293T1167 408T1185 597V1051Q1185 1091 1174 1116T1143 1155T1097 1175T1040 1180H1023Q1028 1204 1033 1235T1038 1302Q1038 1339 1034 1377T1023 1440Q1042 1433 1079 1427T1163 1416T1266 1408T1376
1405Q1434 1405 1493 1408T1605 1416T1698 1427T1758 1440Q1751 1415 1747 1377T1743 1302Q1743 1267 1748 1236T1758 1180H1738Q1702 1180 1676 1175T1631 1156T1605 1116T1596 1051Q1596 962 1597 904T1607 811T1631 759T1678 735Q1642 724 1622 691T1602 594Q1602
544 1605 495T1614 402T1627 324T1643 268Q1609 264 1570 250T1490 214T1411 165T1341 107T1287 44T1258 -20Q1244 -11 1213 -3T1140 11T1045 21T938 25Q882 25 831 22T737 12T663 -3T618 -20Q607 26 578 72T502 158T392 227T248 268ZM407 1559Q422 1570 451 1601T515
1674T586 1766T653 1861T702 1946T721 2006V2010Q733 2004 756 1999T808 1991T869 1985T932 1983Q1004 1983 1059 1990T1139 2010Q1139 2008 1139 2008T1138 2005Q1138 1983 1158 1945T1209 1860T1279 1765T1354 1674T1420 1601T1464 1559Q1449 1564 1403 1569T1287
1575Q1221 1575 1184 1570T1127 1559Q1118 1572 1105 1595T1070 1644T1017 1699T940 1753Q890 1728 856 1700T797 1644T758 1595T733 1559Q719 1564 684 1569T584 1575Q515 1575 469 1570T407 1559Z" />
<glyph unicode="&#xdc;" glyph-name="Udieresis" horiz-adv-x="1872" d="M248 268Q255 289 262 323T276 401T285 494T289 594Q289 657 269 690T213 735Q243 742 259 759T284 811T293 904T295 1051Q295 1091 284 1116T251 1155T200 1175T133 1180H113Q118 1204
123 1235T128 1302Q128 1339 124 1377T113 1440Q132 1433 173 1427T267 1416T379 1408T496 1405Q551 1405 612 1408T729 1416T826 1427T888 1440Q881 1415 877 1377T873 1302Q873 1267 878 1236T888 1180H870Q837 1180 811 1175T766 1156T737 1116T726 1051V597Q726
481 745 408T795 293T869 236T958 220Q1004 220 1045 235T1118 293T1167 408T1185 597V1051Q1185 1091 1174 1116T1143 1155T1097 1175T1040 1180H1023Q1028 1204 1033 1235T1038 1302Q1038 1339 1034 1377T1023 1440Q1042 1433 1079 1427T1163 1416T1266 1408T1376
1405Q1434 1405 1493 1408T1605 1416T1698 1427T1758 1440Q1751 1415 1747 1377T1743 1302Q1743 1267 1748 1236T1758 1180H1738Q1702 1180 1676 1175T1631 1156T1605 1116T1596 1051Q1596 962 1597 904T1607 811T1631 759T1678 735Q1642 724 1622 691T1602 594Q1602
544 1605 495T1614 402T1627 324T1643 268Q1609 264 1570 250T1490 214T1411 165T1341 107T1287 44T1258 -20Q1244 -11 1213 -3T1140 11T1045 21T938 25Q882 25 831 22T737 12T663 -3T618 -20Q607 26 578 72T502 158T392 227T248 268ZM1027 1640Q1038 1665 1045
1710T1053 1824Q1053 1887 1045 1936T1026 2010Q1041 2004 1066 1999T1121 1991T1186 1985T1255 1983Q1288 1983 1321 1984T1384 1989T1438 1998T1476 2010Q1465 1984 1459 1936T1453 1824Q1453 1706 1476 1640Q1462 1644 1438 1648T1384 1655T1320 1661T1250 1663Q1178
1663 1118 1656T1027 1640ZM397 1640Q408 1665 415 1710T423 1824Q423 1887 415 1936T396 2010Q411 2004 436 1999T491 1991T556 1985T625 1983Q658 1983 691 1984T754 1989T808 1998T846 2010Q835 1984 829 1936T823 1824Q823 1706 846 1640Q832 1644 808 1648T754
1655T690 1661T620 1663Q548 1663 488 1656T397 1640Z" />
<glyph unicode="&#xdd;" glyph-name="Yacute" horiz-adv-x="1707" d="M479 0Q485 25 489 60T494 134Q494 169 489 202T479 260Q524 260 558 267T615 290T649 335T661 407Q661 457 646 505T598 595T513 673T385 735Q399 740 404 754T410 790Q410 829 399 868T362
948T292 1031T181 1119Q168 1128 146 1138T97 1158T45 1173T-1 1180Q4 1204 6 1235T9 1303Q9 1342 7 1378T-1 1440Q36 1434 85 1428T191 1417T307 1408T429 1405Q491 1405 551 1407T665 1413T767 1424T852 1440Q849 1423 847 1387T844 1305Q844 1287 844 1267T846
1230T848 1199T852 1180Q819 1180 788 1178T734 1168T697 1145T683 1101Q683 1072 710 1032T775 943T855 843T927 738Q961 786 1005 838T1088 939T1154 1032T1181 1106Q1181 1134 1165 1149T1124 1171T1068 1179T1006 1180Q1007 1186 1008 1199T1011 1230T1013
1266T1014 1305Q1014 1350 1012 1386T1006 1440Q1091 1421 1179 1413T1359 1405Q1453 1405 1540 1413T1709 1440Q1703 1415 1701 1379T1699 1303Q1699 1267 1701 1236T1709 1180Q1695 1180 1673 1174T1625 1158T1575 1135T1531 1108Q1480 1071 1439 1032T1368 951T1322
870T1305 790Q1305 773 1310 756T1327 735Q1261 725 1211 691T1128 609T1079 509T1062 407Q1062 364 1071 336T1103 291T1159 267T1244 260Q1239 236 1234 203T1229 134Q1229 96 1233 61T1244 0Q1215 6 1171 10T1075 18T968 23T862 25Q811 25 756 24T648 19T552
11T479 0ZM641 1510Q651 1520 664 1551T690 1625T715 1720T736 1820T751 1912T757 1982Q757 2001 754 2010Q790 1998 851 1991T994 1983Q1031 1983 1072 1984T1152 1989T1220 1998T1268 2010Q1241 1993 1210 1955T1148 1868T1087 1765T1035 1661T999 1572T985 1516Q985
1514 985 1513T986 1510Q969 1520 929 1526T822 1532Q790 1532 761 1531T707 1526T666 1519T641 1510Z" />
<glyph unicode="&#xde;" glyph-name="Thorn" horiz-adv-x="1703" d="M100 0Q106 25 110 60T115 134Q115 169 110 202T100 260Q145 260 179 267T236 290T270 335T282 407Q282 491 278 551T265 650T243 709T213 735Q231 741 244 756T265 807T278 900T282 1051Q282
1091 269 1116T234 1155T183 1175T119 1180H100Q105 1204 110 1235T115 1302Q115 1339 111 1377T100 1440Q119 1433 160 1427T254 1416T366 1408T483 1405Q541 1405 600 1408T712 1416T805 1427T865 1440Q859 1415 855 1377T850 1302Q850 1267 855 1236T865 1180Q829
1180 796 1178T736 1171T693 1156T677 1131Q677 1122 690 1114T734 1100T818 1091T951 1087Q1008 1087 1075 1090T1203 1099T1307 1109T1363 1120Q1364 1100 1376 1078T1409 1033T1453 989T1503 952T1553 925T1595 914Q1588 903 1583 882T1573 834T1567 778T1565
724Q1565 669 1571 622T1595 550Q1556 544 1517 524T1442 477T1379 419T1335 360Q1316 367 1284 373T1213 383T1130 390T1045 393Q856 393 766 381T676 336Q676 321 690 307T738 283T827 266T965 260Q960 236 955 203T950 134Q950 96 954 61T965 0Q936 6 889 10T787
18T673 23T563 25Q509 25 441 24T308 19T186 11T100 0ZM683 604Q734 588 803 582T935 575Q994 575 1038 588T1112 623T1157 675T1172 739Q1172 772 1159 799T1116 847T1042 879T935 890Q912 890 880 889T812 884T743 873T683 855Q678 832 677 805T676 749Q676 711
678 674T683 604Z" />
<glyph unicode="&#xdf;" glyph-name="germandbls" horiz-adv-x="1533" d="M141 0Q149 26 152 62T155 133Q155 165 151 197T141 260Q197 260 233 265T291 282T320 318T328 377V545Q328 577 324 609T311 667T289 712T259 735Q289 745 306 777T327 870Q296 870 269
870T217 867T168 860T118 847Q121 857 123 876T128 916T132 960T133 1000Q133 1017 132 1038T130 1080T125 1121T118 1155Q169 1140 217 1136T329 1132V1202Q329 1274 312 1325T269 1409Q301 1413 338 1437T406 1494T457 1563T478 1630V1635Q493 1627 524 1621T595
1610T677 1603T755 1600Q873 1600 960 1609T1090 1635Q1102 1588 1138 1546T1220 1473T1314 1423T1400 1405Q1403 1405 1405 1405T1411 1406Q1392 1374 1384 1330T1376 1228Q1376 1190 1378 1145T1384 1056T1395 979T1411 928Q1371 907 1319 869T1220 770Q1246
740 1281 713T1356 663T1440 626T1531 605Q1524 597 1518 577T1508 530T1500 473T1497 418Q1497 348 1508 300T1531 220Q1490 216 1456 194T1393 141T1343 72T1309 0Q1301 7 1279 11T1230 19T1178 23T1140 25Q1065 25 1005 20T906 0Q913 21 917 54T922 120Q922
148 921 166T918 199T912 228T906 260Q946 262 982 273T1047 305T1091 359T1108 435Q1108 480 1095 516T1059 581T1007 630T947 663T886 683T831 689Q837 701 841 719T849 756T854 795T856 828Q856 906 831 955Q867 957 902 977T964 1030T1008 1102T1025 1183Q1025
1232 1010 1273T967 1343T903 1389T820 1406Q791 1406 770 1399T734 1374T712 1325T704 1244L699 377Q699 341 706 318T728 283T762 265T806 260Q801 229 797 197T792 133Q792 98 795 62T806 0Q746 12 676 18T509 25Q393 25 305 19T141 0Z" />
<glyph unicode="&#xe0;" glyph-name="agrave" horiz-adv-x="1368" d="M76 147Q89 170 95 200T101 261Q101 293 94 325T76 377Q103 386 124 406T161 451T187 502T200 550Q205 548 211 548T224 548Q298 548 403 562T630 599Q687 610 724 626T783 662T813 707T822
758Q822 807 798 833T713 860Q634 860 597 821T559 691Q526 699 479 702T375 706Q346 706 317 705T259 703T207 698T166 691Q172 722 176 761T181 852Q181 869 181 883T179 912T174 941T166 976Q208 976 258 984T355 1007T442 1040T502 1080Q520 1071 537 1065T576
1054T627 1047T697 1045Q791 1045 857 1054T953 1080Q969 1050 999 1023T1064 977T1136 946T1203 934H1212Q1203 912 1197 873T1187 786T1181 683T1178 577T1176 478T1176 400Q1176 359 1183 334T1210 294T1268 275T1366 270Q1362 258 1359 241T1352 203T1348 163T1346
126Q1346 48 1366 0Q1342 11 1288 18T1170 25Q1098 25 1043 18T955 0Q947 55 925 88T879 140Q844 129 815 111T764 71T727 28T709 -10Q686 -4 668 2T630 13T589 22T537 25Q506 25 472 22T403 14T340 2T289 -10Q272 18 247 45T194 95T135 132T76 147ZM506 333Q506
309 516 291T541 260T576 241T613 234Q646 234 680 247T744 288T793 363T817 475Q731 473 672 464T575 437T522 393T506 333ZM528 1190Q528 1192 528 1193T529 1197Q529 1215 518 1250T487 1330T441 1424T388 1518T332 1599T278 1655Q294 1648 323 1644T389 1636T464
1632T539 1630Q577 1630 616 1631T689 1636T752 1644T798 1655Q794 1643 794 1616Q794 1587 798 1548T809 1464T825 1376T845 1293T866 1228T887 1190Q879 1194 858 1197T809 1204T747 1208T684 1210Q621 1210 583 1205T528 1190Z" />
<glyph unicode="&#xe1;" glyph-name="aacute" horiz-adv-x="1368" d="M76 147Q89 170 95 200T101 261Q101 293 94 325T76 377Q103 386 124 406T161 451T187 502T200 550Q205 548 211 548T224 548Q298 548 403 562T630 599Q687 610 724 626T783 662T813 707T822
758Q822 807 798 833T713 860Q634 860 597 821T559 691Q526 699 479 702T375 706Q346 706 317 705T259 703T207 698T166 691Q172 722 176 761T181 852Q181 869 181 883T179 912T174 941T166 976Q208 976 258 984T355 1007T442 1040T502 1080Q520 1071 537 1065T576
1054T627 1047T697 1045Q791 1045 857 1054T953 1080Q969 1050 999 1023T1064 977T1136 946T1203 934H1212Q1203 912 1197 873T1187 786T1181 683T1178 577T1176 478T1176 400Q1176 359 1183 334T1210 294T1268 275T1366 270Q1362 258 1359 241T1352 203T1348 163T1346
126Q1346 48 1366 0Q1342 11 1288 18T1170 25Q1098 25 1043 18T955 0Q947 55 925 88T879 140Q844 129 815 111T764 71T727 28T709 -10Q686 -4 668 2T630 13T589 22T537 25Q506 25 472 22T403 14T340 2T289 -10Q272 18 247 45T194 95T135 132T76 147ZM506 333Q506
309 516 291T541 260T576 241T613 234Q646 234 680 247T744 288T793 363T817 475Q731 473 672 464T575 437T522 393T506 333ZM528 1190Q538 1201 549 1229T570 1296T589 1379T605 1468T616 1552T620 1620Q620 1643 617 1655Q634 1649 662 1645T725 1637T799 1632T876
1630Q912 1630 951 1631T1026 1636T1091 1643T1137 1655Q1112 1636 1084 1600T1028 1518T974 1424T929 1331T898 1251T886 1197Q886 1192 887 1190Q879 1194 861 1197T817 1204T762 1208T701 1210Q671 1210 643 1209T592 1204T552 1198T528 1190Z" />
<glyph unicode="&#xe2;" glyph-name="acircumflex" horiz-adv-x="1368" d="M76 147Q89 170 95 200T101 261Q101 293 94 325T76 377Q103 386 124 406T161 451T187 502T200 550Q205 548 211 548T224 548Q298 548 403 562T630 599Q687 610 724 626T783 662T813 707T822
758Q822 807 798 833T713 860Q634 860 597 821T559 691Q526 699 479 702T375 706Q346 706 317 705T259 703T207 698T166 691Q172 722 176 761T181 852Q181 869 181 883T179 912T174 941T166 976Q208 976 258 984T355 1007T442 1040T502 1080Q520 1071 537 1065T576
1054T627 1047T697 1045Q791 1045 857 1054T953 1080Q969 1050 999 1023T1064 977T1136 946T1203 934H1212Q1203 912 1197 873T1187 786T1181 683T1178 577T1176 478T1176 400Q1176 359 1183 334T1210 294T1268 275T1366 270Q1362 258 1359 241T1352 203T1348 163T1346
126Q1346 48 1366 0Q1342 11 1288 18T1170 25Q1098 25 1043 18T955 0Q947 55 925 88T879 140Q844 129 815 111T764 71T727 28T709 -10Q686 -4 668 2T630 13T589 22T537 25Q506 25 472 22T403 14T340 2T289 -10Q272 18 247 45T194 95T135 132T76 147ZM506 333Q506
309 516 291T541 260T576 241T613 234Q646 234 680 247T744 288T793 363T817 475Q731 473 672 464T575 437T522 393T506 333ZM200 1160Q213 1172 241 1204T304 1279T375 1371T442 1468T492 1556T512 1621V1625Q522 1619 541 1615T586 1607T640 1602T694 1600Q755
1600 803 1607T873 1625V1621Q873 1597 893 1557T944 1469T1014 1372T1088 1279T1153 1204T1195 1160Q1181 1165 1137 1170T1029 1175Q969 1175 935 1170T883 1160Q875 1176 861 1198T824 1245T772 1298T701 1352Q657 1326 624 1299T566 1246T527 1198T502 1160Q495
1163 479 1165T441 1170T392 1174T336 1175Q274 1175 244 1171T200 1160Z" />
<glyph unicode="&#xe3;" glyph-name="atilde" horiz-adv-x="1368" d="M76 147Q89 170 95 200T101 261Q101 293 94 325T76 377Q103 386 124 406T161 451T187 502T200 550Q205 548 211 548T224 548Q298 548 403 562T630 599Q687 610 724 626T783 662T813 707T822
758Q822 807 798 833T713 860Q634 860 597 821T559 691Q526 699 479 702T375 706Q346 706 317 705T259 703T207 698T166 691Q172 722 176 761T181 852Q181 869 181 883T179 912T174 941T166 976Q208 976 258 984T355 1007T442 1040T502 1080Q520 1071 537 1065T576
1054T627 1047T697 1045Q791 1045 857 1054T953 1080Q969 1050 999 1023T1064 977T1136 946T1203 934H1212Q1203 912 1197 873T1187 786T1181 683T1178 577T1176 478T1176 400Q1176 359 1183 334T1210 294T1268 275T1366 270Q1362 258 1359 241T1352 203T1348 163T1346
126Q1346 48 1366 0Q1342 11 1288 18T1170 25Q1098 25 1043 18T955 0Q947 55 925 88T879 140Q844 129 815 111T764 71T727 28T709 -10Q686 -4 668 2T630 13T589 22T537 25Q506 25 472 22T403 14T340 2T289 -10Q272 18 247 45T194 95T135 132T76 147ZM506 333Q506
309 516 291T541 260T576 241T613 234Q646 234 680 247T744 288T793 363T817 475Q731 473 672 464T575 437T522 393T506 333ZM115 1161Q122 1171 126 1189T134 1231T138 1279T140 1327Q140 1346 138 1369T132 1413T123 1448T112 1465Q183 1465 249 1481T367 1524T448
1580T479 1640Q548 1637 600 1622T692 1587T763 1543T817 1501T862 1468T904 1455Q929 1455 944 1464T967 1488T977 1521T980 1558Q980 1582 974 1604T958 1643Q965 1635 981 1630T1017 1622T1059 1618T1102 1617Q1127 1617 1156 1619T1211 1624T1256 1631T1280
1641Q1273 1632 1268 1617T1260 1581T1256 1537T1254 1490Q1254 1471 1256 1446T1262 1396T1271 1355T1282 1336Q1252 1339 1223 1339Q1149 1339 1092 1321T995 1276T936 1218T915 1161Q846 1163 794 1177T702 1212T631 1256T577 1300T532 1333T490 1346Q465 1346
451 1337T428 1313T418 1280T415 1243Q415 1219 420 1197T436 1158Q429 1165 412 1170T372 1178T326 1182T282 1184Q258 1184 232 1183T182 1178T140 1171T115 1161Z" />
<glyph unicode="&#xe4;" glyph-name="adieresis" horiz-adv-x="1368" d="M76 147Q89 170 95 200T101 261Q101 293 94 325T76 377Q103 386 124 406T161 451T187 502T200 550Q205 548 211 548T224 548Q298 548 403 562T630 599Q687 610 724 626T783 662T813 707T822
758Q822 807 798 833T713 860Q634 860 597 821T559 691Q526 699 479 702T375 706Q346 706 317 705T259 703T207 698T166 691Q172 722 176 761T181 852Q181 869 181 883T179 912T174 941T166 976Q208 976 258 984T355 1007T442 1040T502 1080Q520 1071 537 1065T576
1054T627 1047T697 1045Q791 1045 857 1054T953 1080Q969 1050 999 1023T1064 977T1136 946T1203 934H1212Q1203 912 1197 873T1187 786T1181 683T1178 577T1176 478T1176 400Q1176 359 1183 334T1210 294T1268 275T1366 270Q1362 258 1359 241T1352 203T1348 163T1346
126Q1346 48 1366 0Q1342 11 1288 18T1170 25Q1098 25 1043 18T955 0Q947 55 925 88T879 140Q844 129 815 111T764 71T727 28T709 -10Q686 -4 668 2T630 13T589 22T537 25Q506 25 472 22T403 14T340 2T289 -10Q272 18 247 45T194 95T135 132T76 147ZM506 333Q506
309 516 291T541 260T576 241T613 234Q646 234 680 247T744 288T793 363T817 475Q731 473 672 464T575 437T522 393T506 333ZM788 1214Q799 1239 806 1284T814 1398Q814 1461 806 1510T787 1584Q802 1578 827 1573T882 1565T947 1559T1016 1557Q1049 1557 1082
1558T1145 1563T1199 1572T1237 1584Q1226 1558 1220 1510T1214 1398Q1214 1280 1237 1214Q1223 1218 1199 1222T1145 1229T1081 1235T1011 1237Q939 1237 879 1230T788 1214ZM158 1214Q169 1239 176 1284T184 1398Q184 1461 176 1510T157 1584Q172 1578 197 1573T252
1565T317 1559T386 1557Q419 1557 452 1558T515 1563T569 1572T607 1584Q596 1558 590 1510T584 1398Q584 1280 607 1214Q593 1218 569 1222T515 1229T451 1235T381 1237Q309 1237 249 1230T158 1214Z" />
<glyph unicode="&#xe5;" glyph-name="aring" horiz-adv-x="1368" d="M76 147Q89 170 95 200T101 261Q101 293 94 325T76 377Q103 386 124 406T161 451T187 502T200 550Q205 548 211 548T224 548Q298 548 403 562T630 599Q687 610 724 626T783 662T813 707T822
758Q822 807 798 833T713 860Q634 860 597 821T559 691Q526 699 479 702T375 706Q346 706 317 705T259 703T207 698T166 691Q172 722 176 761T181 852Q181 869 181 883T179 912T174 941T166 976Q208 976 258 984T355 1007T442 1040T502 1080Q520 1071 537 1065T576
1054T627 1047T697 1045Q791 1045 857 1054T953 1080Q969 1050 999 1023T1064 977T1136 946T1203 934H1212Q1203 912 1197 873T1187 786T1181 683T1178 577T1176 478T1176 400Q1176 359 1183 334T1210 294T1268 275T1366 270Q1362 258 1359 241T1352 203T1348 163T1346
126Q1346 48 1366 0Q1342 11 1288 18T1170 25Q1098 25 1043 18T955 0Q947 55 925 88T879 140Q844 129 815 111T764 71T727 28T709 -10Q686 -4 668 2T630 13T589 22T537 25Q506 25 472 22T403 14T340 2T289 -10Q272 18 247 45T194 95T135 132T76 147ZM506 333Q506
309 516 291T541 260T576 241T613 234Q646 234 680 247T744 288T793 363T817 475Q731 473 672 464T575 437T522 393T506 333ZM554 1135Q543 1150 518 1164T461 1191T394 1210T330 1217Q323 1217 317 1217T306 1215Q312 1223 317 1242T326 1287T332 1343T334 1405Q334
1471 325 1509T306 1569H314Q344 1569 381 1581T454 1611T516 1652T552 1693Q569 1685 611 1680T705 1675Q753 1675 790 1680T842 1693Q851 1674 878 1652T941 1612T1014 1581T1081 1569H1088Q1078 1549 1069 1510T1060 1408Q1060 1378 1061 1347T1066 1290T1074
1243T1088 1215Q1083 1216 1078 1216T1066 1216Q1036 1216 1000 1208T931 1188T873 1162T840 1135Q823 1142 784 1147T695 1153Q647 1153 609 1148T554 1135ZM702 1292Q728 1292 751 1300T791 1323T819 1360T829 1409Q829 1434 822 1457T800 1497T761 1524T702
1535Q667 1535 643 1525T604 1497T582 1457T575 1409Q575 1382 585 1360T612 1323T652 1300T702 1292Z" />
<glyph unicode="&#xe6;" glyph-name="ae" horiz-adv-x="2047" d="M88 147Q101 170 107 200T113 261Q113 293 107 322T90 371Q116 380 137 400T174 444T199 495T212 544Q217 542 223 542T236 542Q310 542 414 558T642 597Q702 608 742 624T806 661T841 706T851
758Q851 807 821 833T725 860Q646 860 614 821T581 691Q548 699 496 702T387 706Q358 706 329 705T271 703T219 698T178 691Q184 722 188 761T193 852Q193 869 193 883T191 912T186 941T178 976Q220 976 265 984T352 1006T428 1040T484 1080Q520 1063 566 1054T679
1045Q749 1045 805 1054T885 1080Q908 1035 946 995T1027 928Q1069 955 1104 995T1158 1080Q1203 1061 1260 1053T1404 1045Q1443 1045 1482 1047T1557 1054T1621 1065T1666 1080Q1683 1045 1719 1017T1797 969T1883 938T1956 925Q1941 891 1931 823T1921 654Q1921
585 1927 546T1942 487Q1914 489 1872 491T1781 494T1678 497T1576 498Q1469 498 1396 498T1277 488T1211 458T1191 394Q1191 347 1208 312T1257 254T1331 218T1426 206Q1475 206 1502 218T1542 251T1559 300T1562 360Q1575 356 1599 353T1651 349T1707 347T1757
346Q1778 346 1805 347T1859 350T1909 354T1946 361Q1944 351 1942 333T1937 295T1933 254T1931 219Q1931 170 1934 138T1946 83H1928Q1884 83 1827 76T1713 55T1610 26T1538 -10Q1524 -1 1502 5T1452 16T1394 23T1333 25Q1260 25 1202 13T1112 -10Q1106 7 1091
27T1056 69T1012 112T963 151Q845 111 782 67T711 -10Q688 -4 667 2T622 13T574 22T519 25Q456 25 400 14T301 -10Q284 18 259 45T206 95T147 132T88 147ZM1410 677Q1450 677 1481 678T1533 685T1565 705T1576 745Q1576 768 1570 790T1547 829T1498 856T1417 867Q1361
867 1320 858T1252 827T1209 769T1191 677H1410ZM531 319Q531 295 540 278T563 251T596 237T633 232Q718 232 771 293T832 475Q749 473 692 461T599 429T547 381T531 319ZM872 197Q861 200 852 200L872 197Z" />
<glyph unicode="&#xe7;" glyph-name="ccedilla" horiz-adv-x="1364" d="M92 166Q108 183 118 221T135 308T144 412T147 518Q147 568 144 621T134 721T117 805T92 860Q132 864 182 883T278 931T362 998T416 1080Q429 1073 451 1067T502 1056T564 1048T633 1045Q676
1045 717 1049T793 1060T855 1077T898 1100Q912 1081 936 1066T991 1039T1058 1021T1132 1015Q1185 1015 1211 1019T1252 1028Q1240 996 1234 941T1227 830Q1227 800 1228 770T1233 712T1241 664T1252 630Q1227 642 1186 647T1088 653Q1031 653 987 648T913 630Q905
736 866 789T744 843Q703 843 667 830T605 783T563 689T547 538Q547 434 561 371T600 272T659 224T732 212Q784 212 819 230T875 279T906 348T919 430Q954 417 1000 413T1095 408Q1138 408 1178 412T1252 430Q1247 415 1243 394T1237 350T1233 305T1232 266Q1232
235 1233 212T1238 169T1244 134T1252 103Q1244 104 1236 104T1220 105Q1178 105 1131 95T1038 69T952 33T884 -10Q855 2 807 13T701 25Q665 25 628 22T558 14T497 2T450 -10Q446 7 427 27T378 66T312 104T239 136T167 158T103 166H92Z" />
<glyph unicode="&#xe8;" glyph-name="egrave" horiz-adv-x="1366" d="M109 166Q129 190 140 233T156 326T163 428T165 518Q165 559 162 611T153 712T136 802T110 860Q154 860 207 882T307 938T390 1010T434 1080Q489 1061 564 1053T750 1045Q828 1045 879 1054T962
1080Q979 1045 1018 1017T1104 969T1197 938T1274 925Q1266 908 1260 888T1249 841T1242 778T1239 692Q1239 658 1240 626T1245 567T1251 520T1259 489Q1234 491 1192 492T1100 495T996 497T892 498Q834 498 777 498T658 497Q607 497 577 488T532 464T512 426T507
378Q507 339 526 307T578 253T656 218T752 205Q794 205 819 217T857 251T875 300T879 360Q891 356 915 353T967 349T1023 346T1073 345Q1094 345 1121 346T1174 348T1224 353T1261 360Q1259 349 1257 331T1253 291T1250 249T1249 214Q1249 165 1252 136T1264 83H1246Q1205
83 1162 76T1079 56T1004 26T944 -10Q930 -1 906 5T852 16T790 23T727 25Q691 25 652 22T578 14T513 2T468 -10Q459 16 422 47T334 104T228 149T126 167Q121 167 117 167T109 166ZM774 678Q814 678 837 681T873 693T889 717T893 759Q893 807 852 837T724 867Q670
867 631 858T566 827T525 769T508 678H774ZM534 1190Q534 1192 534 1193T535 1197Q535 1215 524 1250T493 1330T447 1424T394 1518T338 1599T284 1655Q300 1648 329 1644T395 1636T470 1632T545 1630Q583 1630 622 1631T695 1636T758 1644T804 1655Q800 1643 800
1616Q800 1587 804 1548T815 1464T831 1376T851 1293T872 1228T893 1190Q885 1194 864 1197T815 1204T753 1208T690 1210Q627 1210 589 1205T534 1190Z" />
<glyph unicode="&#xe9;" glyph-name="eacute" horiz-adv-x="1366" d="M109 166Q129 190 140 233T156 326T163 428T165 518Q165 559 162 611T153 712T136 802T110 860Q154 860 207 882T307 938T390 1010T434 1080Q489 1061 564 1053T750 1045Q828 1045 879 1054T962
1080Q979 1045 1018 1017T1104 969T1197 938T1274 925Q1266 908 1260 888T1249 841T1242 778T1239 692Q1239 658 1240 626T1245 567T1251 520T1259 489Q1234 491 1192 492T1100 495T996 497T892 498Q834 498 777 498T658 497Q607 497 577 488T532 464T512 426T507
378Q507 339 526 307T578 253T656 218T752 205Q794 205 819 217T857 251T875 300T879 360Q891 356 915 353T967 349T1023 346T1073 345Q1094 345 1121 346T1174 348T1224 353T1261 360Q1259 349 1257 331T1253 291T1250 249T1249 214Q1249 165 1252 136T1264 83H1246Q1205
83 1162 76T1079 56T1004 26T944 -10Q930 -1 906 5T852 16T790 23T727 25Q691 25 652 22T578 14T513 2T468 -10Q459 16 422 47T334 104T228 149T126 167Q121 167 117 167T109 166ZM774 678Q814 678 837 681T873 693T889 717T893 759Q893 807 852 837T724 867Q670
867 631 858T566 827T525 769T508 678H774ZM534 1190Q544 1201 555 1229T576 1296T595 1379T611 1468T622 1552T626 1620Q626 1643 623 1655Q640 1649 668 1645T731 1637T805 1632T882 1630Q918 1630 957 1631T1032 1636T1097 1643T1143 1655Q1118 1636 1090 1600T1034
1518T980 1424T935 1331T904 1251T892 1197Q892 1192 893 1190Q885 1194 867 1197T823 1204T768 1208T707 1210Q677 1210 649 1209T598 1204T558 1198T534 1190Z" />
<glyph unicode="&#xea;" glyph-name="ecircumflex" horiz-adv-x="1366" d="M109 166Q129 190 140 233T156 326T163 428T165 518Q165 559 162 611T153 712T136 802T110 860Q154 860 207 882T307 938T390 1010T434 1080Q489 1061 564 1053T750 1045Q828 1045 879
1054T962 1080Q979 1045 1018 1017T1104 969T1197 938T1274 925Q1266 908 1260 888T1249 841T1242 778T1239 692Q1239 658 1240 626T1245 567T1251 520T1259 489Q1234 491 1192 492T1100 495T996 497T892 498Q834 498 777 498T658 497Q607 497 577 488T532 464T512
426T507 378Q507 339 526 307T578 253T656 218T752 205Q794 205 819 217T857 251T875 300T879 360Q891 356 915 353T967 349T1023 346T1073 345Q1094 345 1121 346T1174 348T1224 353T1261 360Q1259 349 1257 331T1253 291T1250 249T1249 214Q1249 165 1252 136T1264
83H1246Q1205 83 1162 76T1079 56T1004 26T944 -10Q930 -1 906 5T852 16T790 23T727 25Q691 25 652 22T578 14T513 2T468 -10Q459 16 422 47T334 104T228 149T126 167Q121 167 117 167T109 166ZM774 678Q814 678 837 681T873 693T889 717T893 759Q893 807 852 837T724
867Q670 867 631 858T566 827T525 769T508 678H774ZM206 1160Q219 1172 247 1204T310 1279T381 1371T448 1468T498 1556T518 1621V1625Q528 1619 547 1615T592 1607T646 1602T700 1600Q761 1600 809 1607T879 1625V1621Q879 1597 899 1557T950 1469T1020 1372T1094
1279T1159 1204T1201 1160Q1187 1165 1143 1170T1035 1175Q975 1175 941 1170T889 1160Q881 1176 867 1198T830 1245T778 1298T707 1352Q663 1326 630 1299T572 1246T533 1198T508 1160Q501 1163 485 1165T447 1170T398 1174T342 1175Q280 1175 250 1171T206 1160Z"
/>
</font>
</defs>
</svg>
