<?xml version="1.0" standalone="no"?>
<!DOCTYPE svg PUBLIC "-//W3C//DTD SVG 1.1//EN" "http://www.w3.org/Graphics/SVG/1.1/DTD/svg11.dtd">
<svg xmlns="http://www.w3.org/2000/svg">
<defs >
<font id="AdventPro" horiz-adv-x="402" ><font-face
    font-family="Advent Pro"
    units-per-em="1000"
    panose-1="2 0 5 6 4 0 0 2 0 4"
    ascent="964"
    descent="-232"
    alphabetic="0" />
<glyph unicode=" " glyph-name="space" horiz-adv-x="278" />
<glyph unicode="!" glyph-name="exclam" horiz-adv-x="274" d="M173 120H97L78 641Q78 710 134 710Q194 710 194 642L173 120ZM187 50Q187 30 172 15T136 0Q116 0 101 15T86 50Q86 71 101 86T136 101Q157 101 172 86T187 50Z" />
<glyph unicode="&quot;" glyph-name="quotedbl" horiz-adv-x="426" d="M181 512H119L105 695Q105 720 128 732Q139 738 151 738L172 732Q195 722 195 695L181 512ZM324 512H262L248 695Q248 720 270 732Q282 738 294 738L316 732Q338 722 338 695L324 512Z" />
<glyph unicode="#" glyph-name="numbersign" horiz-adv-x="613" d="M582 168H436L396 0H284L321 168H203L165 0H59L99 168H34V270H123L144 357H34V469H171L224 700H329L275 469H394L448 700H562L508 469H582V357H480L460 270H582V168ZM346 270L367 357H248L228 270H346Z" />
<glyph unicode="$" glyph-name="dollar" horiz-adv-x="540" d="M325 -114H215V-6Q131 8 84 61T34 178L152 195Q158 130 215 107V351Q177 367 154 380T104 414T64 466T51 537Q51 595 93 642T215 705V817H325V708Q373 703 423 680L417 662Q411 644 402 617T388 576Q349
588 325 593V423Q364 405 392 387T449 342T493 277T509 194Q509 116 464 61T325 -7V-114ZM325 297V105Q357 117 372 139T388 184Q388 254 325 297ZM215 475V589Q170 572 170 535Q170 531 170 527Q173 499 215 475Z" />
<glyph unicode="%" glyph-name="percent" horiz-adv-x="685" d="M117 -1L34 69L565 745L654 679L117 -1ZM560 -11T500 -11T398 31T356 133T398 235T500 277T602 235T644 133T602 31ZM534 119T534 133T525 157T500 167T475 157T466 133T475 109T500 99T525 109ZM249
439T189 439T87 481T45 583T87 685T189 727T291 685T333 583T291 481ZM224 583Q224 596 214 607T189 618T164 607T154 583Q154 569 164 559T189 548T214 558T224 583Z" />
<glyph unicode="&amp;" glyph-name="ampersand" horiz-adv-x="560" d="M498 76L482 -11Q480 -11 477 -11Q449 -11 414 0Q377 12 350 42Q335 24 300 7T213 -11Q123 -11 76 52Q35 107 35 179Q35 191 36 204Q41 253 63 294T114 358T165 395T203 413Q169 428 149 466T128
550Q128 640 209 686Q257 712 308 712Q343 712 381 699L318 602Q311 607 302 607Q291 607 276 600Q250 589 244 561Q241 550 241 540Q241 511 262 494Q290 471 309 471Q310 471 311 471L322 472V595L432 609V484L505 500L529 389L432 370V183Q432 98 498 76ZM322
223V345Q160 305 143 209Q141 197 141 186Q141 156 157 133Q179 101 224 101Q272 101 297 138T322 223Z" />
<glyph unicode="&apos;" glyph-name="quotesingle" horiz-adv-x="174" d="M122 589H60L46 695Q46 720 68 732Q80 738 92 738L114 732Q136 722 136 695L122 589Z" />
<glyph unicode="(" glyph-name="parenleft" horiz-adv-x="333" d="M253 -35L198 -116Q135 -80 107 -42T78 71V627Q78 702 107 742T197 817L252 730Q218 720 203 692T187 607V93Q187 74 188 58T192 31T199 11T206 -3T216 -14T227 -22T240 -28T253 -35Z" />
<glyph unicode=")" glyph-name="parenright" horiz-adv-x="333" d="M133 -116L78 -35Q81 -33 91 -29T104 -22T114 -14T124 -4T132 10T139 31T142 58T144 93V607Q144 664 129 692T79 730L134 817Q195 782 224 742T253 627V71Q253 -4 225 -42T133 -116Z" />
<glyph unicode="*" glyph-name="asterisk" horiz-adv-x="352" d="M314 465L212 396L175 515L136 396L38 467L130 541L13 551L52 654L148 587L115 700H235L201 587L295 656L340 550L219 540L314 465Z" />
<glyph unicode="+" glyph-name="plus" horiz-adv-x="385" d="M250 195H138V308H34V413H138V545H250V413H354V308H250V195Z" />
<glyph unicode="," glyph-name="comma" horiz-adv-x="178" d="M70 -84L1 -55Q22 -43 40 -30T66 -10L73 -3L61 0Q31 14 31 48Q31 71 47 86Q62 101 84 101Q86 101 87 101Q113 100 125 80T137 38Q137 4 122 -23T70 -84Z" />
<glyph unicode="-" glyph-name="hyphen" horiz-adv-x="410" d="M365 308H45V413H365V308Z" />
<glyph unicode="." glyph-name="period" horiz-adv-x="143" d="M102 50Q102 30 87 15T51 0Q31 0 16 15T1 50Q1 71 16 86T51 101Q72 101 87 86T102 50Z" />
<glyph unicode="/" glyph-name="slash" horiz-adv-x="469" d="M130 -114H13L337 817H457L130 -114Z" />
<glyph unicode="0" glyph-name="zero" horiz-adv-x="549" d="M483 506V185Q483 84 422 37T274 -11T126 36T63 185V507Q63 610 119 663T275 716T428 660T483 506ZM373 206V470Q373 534 354 565T273 597T193 567T173 471V204Q173 156 197 129T273 101Q320 101 346
130T373 206Z" />
<glyph unicode="1" glyph-name="one" horiz-adv-x="249" d="M237 0H126L127 547Q116 542 96 539T60 534L45 532L13 628Q20 629 32 632T75 653T127 700H237V0Z" />
<glyph unicode="2" glyph-name="two" horiz-adv-x="400" d="M388 0H13V101L243 438Q276 492 276 530Q276 545 272 557Q254 602 198 602Q171 602 150 583T127 538L30 590Q48 641 96 675T207 710Q263 710 306 683T369 614Q384 581 384 540Q384 528 383 514Q377 458
340 402L141 101H388V0Z" />
<glyph unicode="3" glyph-name="three" horiz-adv-x="415" d="M13 83L81 161Q95 132 125 114T188 95Q238 95 265 126T293 201Q293 301 148 308H38L226 590H56V700H344V590L227 413L232 412Q300 398 351 341T403 201Q403 112 341 50T190 -12Q136 -12 89 13T13 83Z" />
<glyph unicode="4" glyph-name="four" horiz-adv-x="518" d="M437 0H328V308H13L206 700H318L191 413H328V700H437V413H506L487 308H437V0Z" />
<glyph unicode="5" glyph-name="five" horiz-adv-x="415" d="M13 83L81 162Q106 128 129 113T190 97Q244 97 268 127T293 201Q293 251 254 279T149 308H38L81 700H347V589H184L165 413H190Q279 413 341 351T403 201Q403 112 341 50T190 -12Q136 -12 89 13T13 83Z" />
<glyph unicode="6" glyph-name="six" horiz-adv-x="450" d="M13 201V461Q13 501 25 539T63 615T140 676T257 700H292V590H266Q236 590 215 585T171 566T136 520T124 440V387Q141 397 172 405T225 413Q314 413 376 351T438 201Q438 112 376 50T225 -12Q137 -12
75 50T13 201ZM122 205V201Q122 158 152 128T225 97T298 127T328 201T298 273T225 303Q183 303 153 275T122 205Z" />
<glyph unicode="7" glyph-name="seven" horiz-adv-x="438" d="M134 0H13L303 590H32V700H426V590L134 0Z" />
<glyph unicode="8" glyph-name="eight" horiz-adv-x="451" d="M329 201Q329 245 300 275T224 306Q182 306 153 275T123 201T152 128T226 98T299 128T329 201ZM326 388Q377 360 408 311T439 201Q439 112 377 50T226 -12T76 50T13 201Q13 262 44 312T127 389Q52
440 52 533Q52 606 103 657T227 709T351 658T403 533Q403 439 326 388ZM224 468Q253 468 273 487T293 533Q293 561 274 581T227 601Q199 601 179 581T159 533Q159 507 178 488T224 468Z" />
<glyph unicode="9" glyph-name="nine" horiz-adv-x="450" d="M194 0H159V101H198Q262 101 295 145T329 263V316Q328 316 320 311T310 304T299 298T286 293T271 289T250 286T226 285Q137 285 75 347T13 497Q13 586 75 648T226 710T376 648T438 497V239Q438 199
426 161T388 85T311 24T194 0ZM184 395T226 395T298 425T329 501Q329 541 298 571T226 601Q184 601 154 570T123 497T153 425Z" />
<glyph unicode=":" glyph-name="colon" horiz-adv-x="136" d="M91 310T69 310T31 326T15 364T31 402T69 418T107 402T123 364T107 326ZM124 188T124 165T108 126T68 110Q46 110 30 126T13 165T29 204T68 221T107 205Z" />
<glyph unicode=";" glyph-name="semicolon" horiz-adv-x="161" d="M118 203T96 203T59 218T44 255T59 292T96 307T133 292T148 255T133 218ZM82 -84L13 -55Q34 -43 52 -30T78 -10L85 -3L73 0Q43 14 43 48Q43 71 59 86Q74 101 96 101Q98 101 99 101Q125 100 137
80T149 38Q149 4 134 -23T82 -84Z" />
<glyph unicode="&lt;" glyph-name="less" horiz-adv-x="377" d="M363 146L291 80L13 358V359L291 637L365 567L154 358L363 146Z" />
<glyph unicode="=" glyph-name="equal" horiz-adv-x="345" d="M333 357H13V462H333V357ZM333 204H13V309H333V204Z" />
<glyph unicode="&gt;" glyph-name="greater" horiz-adv-x="377" d="M87 80L15 146L224 358L13 567L87 637L365 359V358L87 80Z" />
<glyph unicode="?" glyph-name="question" horiz-adv-x="395" d="M234 119H125V212Q125 258 139 298T171 362T213 416T250 465Q271 499 271 526Q271 531 270 536Q265 567 245 585T202 604Q163 604 144 584T125 532H13Q13 607 59 658T191 709Q243 709 287 682T357
614Q382 574 382 522Q382 468 348 419Q330 393 304 365T266 322T245 272T234 182V119ZM229 50Q229 30 214 15T178 0Q158 0 143 15T128 50Q128 71 143 86T178 101Q199 101 214 86T229 50Z" />
<glyph unicode="@" glyph-name="at" horiz-adv-x="769" d="M610 162L609 333Q609 361 610 376T616 416T633 455T667 484T723 505L757 415Q737 408 727 394T716 368T714 336V178Q714 114 689 65T625 -13T535 -60T437 -85T343 -92Q200 -92 107 -19T13 183V342Q13
451 76 514T229 595Q265 603 300 603Q321 603 342 600Q398 593 444 573T518 507T547 399L584 384V279L547 294V91Q500 76 460 67T375 53Q355 51 336 51Q314 51 295 54Q260 60 230 75T183 123T162 204V305Q162 416 250 449Q276 461 310 461Q316 461 322 460Q363
458 389 452T437 438Q432 471 402 487T338 505Q332 505 326 505Q236 505 177 464Q114 419 114 330V190Q114 137 135 99T193 42T267 15T349 6Q394 6 437 14T521 40T585 89T610 162ZM437 167V331Q411 344 382 352Q356 358 332 358Q329 358 326 358Q299 357 282 342T264
296V241Q264 224 265 212T276 182T303 156Q317 149 344 149Q349 149 354 150Q389 151 437 167Z" />
<glyph unicode="A" glyph-name="A" horiz-adv-x="527" d="M517 0H386L345 183H184L145 0H21L185 700H340L517 0ZM319 300L262 516L210 300H319Z" />
<glyph unicode="B" glyph-name="B" horiz-adv-x="550" d="M297 0H78V700H282Q365 700 420 654T475 523Q475 429 409 384Q408 383 408 382V381Q452 361 481 317T511 205Q511 167 500 133T465 68T398 19T297 0ZM188 413H236Q293 413 320 434T347 506Q347 553 322
571T246 590H188V413ZM188 101H249Q318 101 351 121T385 207Q385 307 258 307H188V101Z" />
<glyph unicode="C" glyph-name="C" horiz-adv-x="430" d="M410 127L427 23Q378 4 329 -4Q297 -10 265 -10Q249 -10 232 -8Q184 -4 148 15T89 77T66 183V504Q66 580 87 619T153 685Q198 710 260 710Q266 710 273 710Q343 707 402 677L371 577Q325 594 270 594Q228
594 202 571T176 513V185Q176 167 180 153T193 129T211 113T236 104T263 101T293 102T324 106T355 113T384 120T410 127Z" />
<glyph unicode="D" glyph-name="D" horiz-adv-x="576" d="M286 0H78V701H266Q379 701 438 639T498 474V200Q498 0 286 0ZM388 190V484Q388 539 361 564T276 590H188V101H270Q295 101 312 103T348 114T378 141T388 190Z" />
<glyph unicode="E" glyph-name="E" horiz-adv-x="465" d="M410 0H78V700H412V590H188V413H325L294 308H188V100H410V0Z" />
<glyph unicode="F" glyph-name="F" horiz-adv-x="451" d="M188 0H78V700H412V590H188V413H328L292 308H188V0Z" />
<glyph unicode="G" glyph-name="G" horiz-adv-x="537" d="M476 0H372L366 8Q314 -10 276 -10Q188 -10 127 40T65 189V503Q65 631 152 684Q197 709 259 709Q265 709 272 709Q342 706 401 676L368 577Q320 595 277 595Q229 595 202 578T175 512V187Q175 139 200
120T275 101Q366 101 366 186V195H309L274 300H476V0Z" />
<glyph unicode="H" glyph-name="H" horiz-adv-x="588" d="M508 0H399V308H188V0H78V700H188V413H399V700H508V0Z" />
<glyph unicode="I" glyph-name="I" horiz-adv-x="313" d="M233 0H123V592L61 594V700H233V0Z" />
<glyph unicode="J" glyph-name="J" horiz-adv-x="234" d="M21 -37L-15 57Q90 57 90 156V592L30 594V700H198V139Q198 44 160 4T21 -37Z" />
<glyph unicode="K" glyph-name="K" horiz-adv-x="532" d="M530 0H393L204 278L197 268V0H79V701H197V460L359 701H491L269 376L530 0Z" />
<glyph unicode="L" glyph-name="L" horiz-adv-x="440" d="M439 0H78V700H188V101H439V0Z" />
<glyph unicode="M" glyph-name="M" horiz-adv-x="694" d="M614 0H504V370L387 0H303L188 369V0H78V700H188L345 237L504 700H614V0Z" />
<glyph unicode="N" glyph-name="N" horiz-adv-x="650" d="M570 0H459L188 473V0H78V700H188L459 230V700H570V0Z" />
<glyph unicode="O" glyph-name="O" horiz-adv-x="549" d="M483 506V185Q483 84 422 37T274 -11T126 36T63 185V507Q63 610 119 663T275 716T428 660T483 506ZM373 206V470Q373 534 354 565T273 597T193 567T173 471V204Q173 156 197 129T273 101Q320 101 346 130T373
206Z" />
<glyph unicode="P" glyph-name="P" horiz-adv-x="551" d="M188 300H282Q316 300 340 311T376 335T394 374T401 413T402 454Q402 459 402 461Q402 538 372 564T278 590H188V300ZM188 0H78V700H306Q411 700 461 633T512 463Q512 195 315 195H188V0Z" />
<glyph unicode="Q" glyph-name="Q" horiz-adv-x="549" d="M431 -22L417 -116Q412 -116 407 -116Q276 -116 236 -8Q206 -5 179 6T124 37T80 96T63 185V507Q63 610 119 663T275 716T428 660T483 506V185Q483 101 442 56T348 1Q361 -14 377 -18T431 -22ZM373 187V505Q373
520 370 533T357 563T326 589T273 599Q213 599 193 574T173 505V186Q173 101 218 101Q217 107 217 156V174H327V157V102Q373 102 373 187Z" />
<glyph unicode="R" glyph-name="R" horiz-adv-x="564" d="M513 0H401L334 195H188V0H78V700H315Q412 700 462 632T512 462Q512 413 510 384T489 309T435 232L513 0ZM188 300H289Q320 300 341 312T373 338T389 379T395 421T396 462Q396 539 365 564T269 589H188V300Z" />
<glyph unicode="S" glyph-name="S" horiz-adv-x="561" d="M37 178L155 195Q160 151 191 124T272 97Q333 97 362 124T391 184Q391 224 373 253T324 300T259 334T187 365T121 402T73 457T54 537Q54 607 112 658T280 710Q363 710 426 680L420 662Q414 644 405 617T391
576Q323 598 281 598Q224 598 197 578Q173 560 173 533Q173 530 173 527Q176 501 212 479T297 436T395 388T478 311T512 194Q512 105 453 47T273 -11Q164 -11 102 46T37 178Z" />
<glyph unicode="T" glyph-name="T" d="M254 0H144V589H0V700H402V589H254V0Z" />
<glyph unicode="U" glyph-name="U" horiz-adv-x="566" d="M385 230V701H495V186Q495 133 477 94T427 34T360 3T285 -7T210 3T143 34T93 94T74 186V701H184V230Q184 162 204 132T284 101Q344 101 364 131T385 230Z" />
<glyph unicode="V" glyph-name="V" horiz-adv-x="595" d="M382 0H253L78 700H202L317 216L429 700H556L382 0Z" />
<glyph unicode="W" glyph-name="W" horiz-adv-x="813" d="M640 0H516L427 353L340 0H212L78 700H199L281 252L388 700H466L573 252L648 700H774L640 0Z" />
<glyph unicode="X" glyph-name="X" horiz-adv-x="694" d="M655 0H514L362 244L215 0H78L296 350L90 700H220L367 468L507 700H638L433 359L655 0Z" />
<glyph unicode="Y" glyph-name="Y" horiz-adv-x="548" d="M342 -19L307 65Q340 69 361 90T382 164V220Q332 195 277 195Q174 195 111 254T48 413V700H158V423Q158 303 277 303Q289 303 299 304T318 307T334 311T347 316T358 322T366 328T373 334T378 340L382 343V700H492V156Q492
77 458 33T342 -19Z" />
<glyph unicode="Z" glyph-name="Z" horiz-adv-x="550" d="M518 0H31V101L373 590H44V700H512V590L168 104H518V0Z" />
<glyph unicode="[" glyph-name="bracketleft" horiz-adv-x="319" d="M239 -114H78V817H239V712L188 702V1L239 -9V-114Z" />
<glyph unicode="\" glyph-name="backslash" horiz-adv-x="561" d="M522 -114H405L78 817H198L522 -114Z" />
<glyph unicode="]" glyph-name="bracketright" horiz-adv-x="319" d="M239 -114H78V-9L129 1V702L78 712V817H239V-114Z" />
<glyph unicode="^" glyph-name="asciicircum" horiz-adv-x="407" d="M368 758L301 719L225 802L144 719L78 758L226 899L368 758Z" />
<glyph unicode="_" glyph-name="underscore" horiz-adv-x="344" d="M387 -75H67V0H387V-75Z" />
<glyph unicode="`" glyph-name="grave" horiz-adv-x="222" d="M184 590H111L62 653Q46 674 46 692Q46 695 47 698Q51 718 71 728Q77 732 86 732Q94 732 105 728Q128 721 138 698L184 590Z" />
<glyph unicode="a" glyph-name="a" horiz-adv-x="458" d="M422 298V0Q318 -10 256 -10Q228 -10 209 -8Q45 10 37 155Q37 162 37 169V252Q37 351 106 385Q135 401 172 401Q178 401 183 400Q227 398 259 390T312 369Q312 433 205 433L214 509Q252 509 282 505T334
490T371 468T396 439T411 408T419 371T421 335T422 298ZM312 97V252Q296 263 271 272T216 287Q208 288 200 288Q182 288 168 280Q148 268 148 238V183Q148 91 254 91Q280 91 312 97Z" />
<glyph unicode="b" glyph-name="b" horiz-adv-x="486" d="M447 346V157Q447 58 369 18Q310 -12 237 -12T78 0V700H188V500Q231 509 268 509Q321 509 362 490Q447 451 447 346ZM338 155V315Q338 353 318 374T272 398Q263 398 254 398Q237 398 222 396Q198 391 188
382V96Q205 90 226 90Q251 90 282 98Q338 112 338 155Z" />
<glyph unicode="c" glyph-name="c" horiz-adv-x="383" d="M328 114L358 6Q294 -11 239 -11Q190 -11 148 2Q89 22 63 63T36 180V308Q36 379 64 427T138 494Q176 510 222 510Q231 510 241 509Q298 505 356 478L326 383Q274 401 237 401Q210 401 192 392Q146 370
146 314V169Q146 136 169 119T224 100Q230 100 237 100Q262 100 284 103Q312 107 328 114Z" />
<glyph unicode="d" glyph-name="d" horiz-adv-x="486" d="M78 157V346Q78 451 163 490Q193 504 230 508Q250 510 267 510Q282 510 294 508Q320 505 338 498V700H447V0Q361 -12 288 -12T156 18Q78 58 78 157ZM338 97V382Q314 394 288 397Q280 398 272 398Q255 398
239 394Q216 387 202 365T187 306V150Q187 116 233 99Q257 90 286 90Q310 90 338 97Z" />
<glyph unicode="e" glyph-name="e" horiz-adv-x="434" d="M395 190L146 177V149Q146 98 192 91Q199 90 206 90Q251 90 330 130L370 35Q296 -10 205 -12Q201 -12 197 -12Q125 -12 81 22Q35 59 35 134V339Q35 420 85 465T219 510T348 466T395 342V190ZM284 287V340Q284
370 265 386T218 402Q180 402 163 382T146 338V278L284 287Z" />
<glyph unicode="f" glyph-name="f" horiz-adv-x="325" d="M190 0H78V549Q78 594 91 627T127 677T177 704Q201 712 225 712Q229 712 232 712Q260 710 286 707L268 607Q258 609 240 612Q238 612 235 612Q220 612 206 599Q190 583 190 549V501H277L253 398H190V0Z" />
<glyph unicode="g" glyph-name="g" horiz-adv-x="448" d="M257 -210L231 -124Q265 -124 284 -105T304 -46V8Q277 -12 223 -12Q135 -12 86 36T37 176V325Q37 413 88 461T227 510Q255 510 277 504T305 490L326 501H414V-64Q414 -210 257 -210ZM304 231V315Q304 401
223 401Q182 401 165 378T147 320V191Q147 94 223 94Q272 94 288 126T304 231Z" />
<glyph unicode="h" glyph-name="h" horiz-adv-x="493" d="M433 0H323V307Q323 353 305 378T260 406Q251 406 243 406Q226 406 211 403Q188 398 174 389V0H64V700H174V497Q202 509 248 510Q250 510 252 510Q297 510 348 491Q433 452 433 346V0Z" />
<glyph unicode="i" glyph-name="i" horiz-adv-x="276" d="M138 592Q114 592 96 610T78 652Q78 675 96 692T138 710Q161 710 178 693T196 652Q196 628 179 610T138 592ZM190 0H80V501H190V0Z" />
<glyph unicode="j" glyph-name="j" horiz-adv-x="236" d="M72 -35V399L21 409L-1 501H182V-75Q180 -131 134 -170T31 -209L1 -124Q4 -124 8 -123T25 -117T47 -103T64 -77T72 -35ZM153 592T129 592T87 610T69 652T87 693T129 710T170 693T187 652T170 610Z" />
<glyph unicode="k" glyph-name="k" horiz-adv-x="474" d="M476 0H338L188 254L174 240V0H64V700H174V382L323 520L404 443L273 332Q419 91 476 0Z" />
<glyph unicode="l" glyph-name="l" horiz-adv-x="268" d="M188 0H78V700H188V0Z" />
<glyph unicode="m" glyph-name="m" horiz-adv-x="741" d="M702 0H592V304Q592 378 563 398Q550 406 531 406Q506 406 469 392L452 385Q456 375 456 356V0H346V301Q346 373 299 396Q281 406 260 406Q227 406 188 383V0H78V501H175L188 494Q215 506 249 509Q256
510 263 510Q291 510 321 500Q359 488 385 461Q399 469 427 483Q491 509 546 509Q553 509 560 509Q622 505 662 461T702 346V0Z" />
<glyph unicode="n" glyph-name="n" horiz-adv-x="500" d="M433 0H323V315Q323 373 280 395Q262 404 241 404Q210 404 173 386V0H64V501H161L174 495Q220 510 261 510Q307 510 348 491Q433 452 433 346V0Z" />
<glyph unicode="o" glyph-name="o" horiz-adv-x="490" d="M451 316V184Q451 100 405 45T266 -10T126 45T78 184V316Q78 411 126 461T266 512Q353 512 402 460T451 316ZM342 174V316Q342 345 335 363T315 389T291 399T266 401Q188 401 188 316V174Q188 98 266 98Q299
98 320 117T342 174Z" />
<glyph unicode="p" glyph-name="p" horiz-adv-x="494" d="M188 -188L78 -210V501H182L188 494Q221 509 265 509Q358 509 406 455T455 315V176Q455 85 404 37T269 -12Q245 -12 231 -10T204 -3T188 2V-188ZM345 202V319Q345 401 269 401Q228 401 208 381T188 324V188Q188
98 269 98Q315 98 330 122T345 202Z" />
<glyph unicode="q" glyph-name="q" horiz-adv-x="448" d="M414 -210L305 -188V3Q303 2 295 -1T279 -6T257 -10T223 -12Q139 -12 88 36T37 176V314Q37 400 85 454T227 509Q243 509 256 507T276 503T292 496T305 491L312 501H414V-210ZM305 193V313Q305 401 223
401Q146 401 146 303V179Q146 98 223 98Q273 98 289 123T305 193Z" />
<glyph unicode="r" glyph-name="r" horiz-adv-x="380" d="M171 0H61V501H163L171 497Q204 508 238 509Q249 509 258 509Q277 509 286 508Q300 506 341 497L315 390Q287 404 261 404Q239 404 218 395Q171 374 171 322V0Z" />
<glyph unicode="s" glyph-name="s" horiz-adv-x="431" d="M36 127L146 138Q146 120 164 104T221 88Q254 88 272 104T290 143Q290 172 267 189T209 217T141 241T80 286T48 365Q47 371 47 377Q47 426 86 467Q128 513 219 513Q251 513 279 506T319 491L331 484L299
382Q276 405 219 405Q191 405 178 397T165 380T167 363Q170 348 196 336T257 311T325 281T382 227T406 141Q406 76 359 31T221 -15Q136 -15 87 26T36 127Z" />
<glyph unicode="t" glyph-name="t" horiz-adv-x="274" d="M229 75L196 -13Q44 -10 44 132V700H156V501H251L227 398H156V132Q156 98 175 87T229 75Z" />
<glyph unicode="u" glyph-name="u" horiz-adv-x="447" d="M409 0H306L299 6Q254 -11 224 -11Q36 -11 36 172V501H146V188Q146 142 162 120T224 98T284 122T299 192V501H409V0Z" />
<glyph unicode="v" glyph-name="v" horiz-adv-x="453" d="M278 0H172L12 501H132L225 195L316 501H435L278 0Z" />
<glyph unicode="w" glyph-name="w" horiz-adv-x="710" d="M530 0H425L353 267L280 0H173L12 501H132L223 195L304 501H408L492 195L574 501H692L530 0Z" />
<glyph unicode="x" glyph-name="x" horiz-adv-x="551" d="M504 0H373L285 140L198 0H61L217 249L61 501H200L286 358L376 501H512L353 250L504 0Z" />
<glyph unicode="y" glyph-name="y" horiz-adv-x="506" d="M278 -210L235 -123Q261 -123 281 -107T302 -56V2Q257 -12 220 -12Q132 -12 85 35T37 176V501H147V206Q147 143 163 121T220 98Q264 98 283 119T302 206V363Q302 416 338 460T431 510L472 420Q443 413
428 393T412 347V-61Q412 -126 382 -163T278 -210Z" />
<glyph unicode="z" glyph-name="z" horiz-adv-x="484" d="M445 0H78V104L287 397H87V501H435V401L225 104H445V0Z" />
<glyph unicode="{" glyph-name="braceleft" horiz-adv-x="363" d="M324 -17L293 -116Q238 -101 210 -78T167 -9T152 120V247Q152 266 136 290T110 325T78 354Q102 373 126 404T150 462V567Q150 693 181 751T293 822L322 730Q296 730 278 705T260 625V456Q260 413
202 355Q262 295 262 253V87Q262 30 277 7T324 -17Z" />
<glyph unicode="|" glyph-name="bar" horiz-adv-x="268" d="M188 -114H78V817H188V-114Z" />
<glyph unicode="}" glyph-name="braceright" horiz-adv-x="363" d="M109 -116L78 -17Q109 -17 124 6T140 87V253Q140 295 200 355Q142 413 142 456V625Q142 680 124 705T80 730L109 822Q190 810 221 752T252 567V462Q252 435 276 404T324 354Q303 335 293 325T266
291T250 247V120Q250 38 236 -8T193 -78T109 -116Z" />
<glyph unicode="~" glyph-name="asciitilde" horiz-adv-x="539" d="M456 379L500 308Q468 267 427 256Q407 251 387 251Q366 251 346 257Q306 268 267 280Q239 288 212 288Q200 288 188 287Q149 282 120 249L78 319Q111 360 153 370Q175 376 195 376Q215 376 235
371Q275 361 314 350Q343 342 371 342Q382 342 392 343Q429 347 456 379Z" />
<glyph unicode="&#xa1;" glyph-name="exclamdown" horiz-adv-x="274" d="M78 69L97 590H173L194 68Q194 0 134 0Q78 0 78 69ZM136 609Q116 609 101 624T86 660Q86 680 101 695T136 710Q157 710 172 695T187 660Q187 639 172 624T136 609Z" />
<glyph unicode="&#xa2;" glyph-name="cent" horiz-adv-x="439" d="M328 -114H219V-5Q199 -1 190 2Q131 22 105 63T78 180V308Q78 392 116 442T219 505V623H328V502Q362 495 398 478L368 383Q340 393 328 396V103Q356 108 370 114L400 6Q358 -4 328 -7V-114ZM219
113V382Q188 358 188 314V169Q188 129 219 113Z" />
<glyph unicode="&#xa3;" glyph-name="sterling" horiz-adv-x="477" d="M438 0H78V101Q134 101 163 134T192 225Q192 254 178 303H101V412H143Q125 464 125 515Q125 602 179 655T318 709Q387 709 427 684L393 585Q359 604 318 604Q291 604 273 593T247 564T237
535T234 513Q234 465 254 412H421V303H290Q302 256 302 228Q302 224 302 221Q299 183 293 161T267 101H438V0Z" />
<glyph unicode="&#xa4;" glyph-name="currency" horiz-adv-x="507" d="M390 126L351 166Q317 148 274 148Q228 148 197 166L160 125L85 202L121 235Q99 265 99 323Q99 359 118 402L78 440L161 517L194 480Q224 499 274 499Q332 499 351 480L389 518L468 440L429
407Q431 402 435 392T441 376T445 362T449 344T450 323Q450 308 448 296T444 277T437 257T429 236L464 203L390 126ZM347 323Q347 354 326 375T274 397Q243 397 222 376T200 323Q200 293 221 272T274 251Q304 251 325 272T347 323Z" />
<glyph unicode="&#xa5;" glyph-name="yen" horiz-adv-x="589" d="M369 0H258V204H156V309H258V315L238 357H156V462H189L78 700H194L300 462H326L433 700H550L438 462H476V357H388L369 315V309H476V204H369V0Z" />
<glyph unicode="&#xa7;" glyph-name="section" horiz-adv-x="594" d="M78 -8H192Q192 -40 222 -68T313 -97Q341 -97 366 -92T416 -64T440 -6Q440 26 420 48T368 85T298 111T223 141T155 183T106 250Q92 286 92 333Q92 341 92 349Q95 404 128 445Q96 485 96 540Q96
610 154 661T321 712Q404 712 467 682L460 664Q454 646 445 621T430 579Q375 607 323 607Q256 607 233 588T209 537Q209 512 233 494T293 464T372 435T453 396T519 334T553 236Q554 223 554 210Q554 185 550 158Q542 115 530 92Q553 57 553 6Q553 -86 495 -141T314
-197Q205 -197 143 -140T78 -8ZM439 171Q446 197 446 220Q446 258 414 288T344 334T265 363T216 384Q203 364 203 326Q203 279 240 253T345 207T439 171Z" />
<glyph unicode="&#xa8;" glyph-name="dieresis" horiz-adv-x="222" d="M89 708Q89 690 76 677T44 664Q26 664 13 677T0 708Q0 727 13 740T44 753Q63 753 76 740T89 708ZM196 664T177 664T145 677T132 709T145 741T177 754T209 741T222 709T209 677Z" />
<glyph unicode="&#xa9;" glyph-name="copyright" horiz-adv-x="800" d="M401 -127Q245 -127 135 -19T25 249Q25 407 134 514T401 621Q558 621 666 514T774 249Q774 89 665 -19T401 -127ZM401 -20Q512 -20 588 56T664 249Q664 360 587 437T401 514Q289 514 213
439T136 249Q136 131 212 56T401 -20ZM492 175H599Q583 103 529 60T405 16Q306 16 249 81T191 247Q191 343 248 410T403 478Q476 478 531 435T598 323H492Q487 340 461 353T401 367Q348 367 322 333T296 248Q296 196 323 161T402 126Q437 126 464 140T492 175Z"
/>
<glyph unicode="&#xaa;" glyph-name="ordfeminine" horiz-adv-x="386" d="M347 555V391Q299 383 265 380Q252 380 238 380Q216 380 193 382Q155 386 132 400T94 444T78 519Q78 596 136 622Q159 633 183 633Q220 633 259 610Q259 611 259 613Q259 626 258 631T248
644T222 651T171 648L181 709Q194 710 206 710Q286 710 314 680Q347 647 347 555ZM259 461V535Q234 549 213 554Q205 557 198 557Q186 557 176 550Q160 541 160 513Q160 458 225 458Q240 458 259 461Z" />
<glyph unicode="&#xab;" glyph-name="guillemotleft" horiz-adv-x="523" d="M301 148L229 80L42 267V268L229 455L302 383L182 267L301 148ZM521 148L449 80L262 267V268L449 455L522 383L402 267L521 148Z" />
<glyph unicode="&#xad;" glyph-name="uni00AD" horiz-adv-x="410" d="M365 308H45V413H365V308Z" />
<glyph unicode="&#xae;" glyph-name="registered" horiz-adv-x="800" d="M555 39H447L388 229H382V39H278V476H391Q547 476 547 351Q547 327 544 311T526 275T483 241L555 39ZM382 313H404Q440 313 440 349Q440 365 433 377T413 389H382V313ZM401 -127Q245 -127
135 -19T25 249Q25 407 134 514T401 621Q558 621 666 514T774 249Q774 89 665 -19T401 -127ZM401 -20Q512 -20 588 56T664 249Q664 360 587 437T401 514Q289 514 213 439T136 249Q136 131 212 56T401 -20Z" />
<glyph unicode="&#xaf;" glyph-name="overscore" horiz-adv-x="338" d="M299 619H78V710H299V619Z" />
<glyph unicode="&#xb0;" glyph-name="degree" horiz-adv-x="405" d="M282 421T222 421T120 463T78 565T120 667T222 709T324 667T366 565T324 463ZM273 565Q273 585 259 600T222 616T185 601T171 565Q171 544 185 529T222 514T259 529T273 565Z" />
<glyph unicode="&#xb1;" glyph-name="plusminus" horiz-adv-x="437" d="M398 208H78V306H187V348H78V437H187V545H288V437H398V348H288V306H398V208Z" />
<glyph unicode="&#xb4;" glyph-name="acute" horiz-adv-x="222" d="M119 588H46L92 696Q102 719 125 726Q136 730 144 730Q153 730 159 726Q179 716 183 696Q184 693 184 690Q184 672 168 651L119 588Z" />
<glyph unicode="&#xb5;" glyph-name="mu" horiz-adv-x="478" d="M444 27L344 -6L342 -4Q341 -3 338 0T331 7Q306 -12 258 -12Q248 -12 236 -11Q185 -4 147 12V-210L37 -201V501H147V111Q152 106 185 98Q214 92 237 92Q240 92 243 92Q306 96 306 195V497L417 510V69Q420
41 444 27Z" />
<glyph unicode="&#xb6;" glyph-name="paragraph" horiz-adv-x="722" d="M683 -199H580V636L512 637V-198L407 -199V246H255Q223 246 197 252T153 272T122 300T101 339T88 381T81 429T79 476T78 524Q78 624 124 687T264 750H683V-199Z" />
<glyph unicode="&#xb8;" glyph-name="cedilla" horiz-adv-x="266" d="M67 -211L101 -138Q138 -163 179 -163Q203 -163 221 -154T239 -123T219 -96Q214 -94 207 -94Q189 -94 164 -106L120 -128L85 -78L146 0H216L189 -38Q208 -31 223 -31Q257 -31 283 -55T309 -123Q309
-178 265 -205T169 -232Q124 -232 67 -211Z" />
<glyph unicode="&#xbb;" glyph-name="guillemotright" horiz-adv-x="519" d="M293 80L221 148L340 267L220 383L293 455L480 268V267L293 80ZM73 80L1 148L120 267L0 383L73 455L260 268V267L73 80Z" />
<glyph unicode="&#xbf;" glyph-name="questiondown" horiz-adv-x="487" d="M336 177H448Q448 102 402 51T270 0Q218 0 174 27T104 95Q79 135 79 187Q79 241 113 290Q131 316 157 344T195 387T216 437T227 527V590H336V497Q336 451 322 411T290 347T248 293T211
244Q190 210 190 183Q190 178 191 172Q196 142 216 124T259 105Q298 105 317 125T336 177ZM283 608Q262 608 247 623T232 659Q232 679 247 694T283 709Q303 709 318 694T333 659Q333 638 318 623T283 608Z" />
<glyph unicode="&#xc0;" glyph-name="Agrave" horiz-adv-x="527" d="M517 0H386L345 183H184L145 0H21L185 700H340L517 0ZM319 300L262 516L210 300H319ZM286 733H213L164 796Q148 817 148 835Q148 838 149 842Q153 861 173 871Q179 875 188 875Q196 875 207
872Q230 864 240 841L286 733Z" />
<glyph unicode="&#xc1;" glyph-name="Aacute" horiz-adv-x="527" d="M517 0H386L345 183H184L145 0H21L185 700H340L517 0ZM319 300L262 516L210 300H319ZM302 731H229L275 839Q285 862 308 870Q319 873 327 873Q336 873 342 869Q362 859 366 840Q367 836 367
833Q367 815 351 794L302 731Z" />
<glyph unicode="&#xc2;" glyph-name="Acircumflex" horiz-adv-x="527" d="M517 0H386L345 183H184L145 0H21L185 700H340L517 0ZM319 300L262 516L210 300H319ZM410 770L343 731L267 814L186 731L120 770L268 911L410 770Z" />
<glyph unicode="&#xc3;" glyph-name="Atilde" horiz-adv-x="527" d="M517 0H386L345 183H184L145 0H21L185 700H340L517 0ZM319 300L262 516L210 300H319ZM405 846L447 781Q413 741 379 732Q364 728 351 728Q333 728 316 735Q287 747 258 760Q236 770 211 770Q204
770 198 770Q165 766 135 734L96 799Q131 838 166 848Q182 852 196 852Q214 852 230 846Q259 834 288 822Q310 811 335 811Q341 811 346 812Q377 815 405 846Z" />
<glyph unicode="&#xc4;" glyph-name="Adieresis" horiz-adv-x="527" d="M517 0H386L345 183H184L145 0H21L185 700H340L517 0ZM319 300L262 516L210 300H319ZM240 775Q240 757 227 744T195 731Q177 731 164 744T151 775Q151 794 164 807T195 820Q214 820 227 807T240
775ZM347 731T328 731T296 744T283 776T296 808T328 821T360 808T373 776T360 744Z" />
<glyph unicode="&#xc5;" glyph-name="Aring" horiz-adv-x="527" d="M517 0H386L345 183H184L145 0H21L184 697Q156 728 156 770Q156 814 187 845T263 877T338 846T370 770Q370 728 341 697L517 0ZM319 300L262 516L210 300H319ZM250 740T263 740T284 748T292 770T284
791T263 799T242 791T233 770T241 749Z" />
<glyph unicode="&#xc6;" glyph-name="AE" horiz-adv-x="818" d="M777 0H444L445 195H308L208 0H78L444 700H779V590H555V413H707L673 308H555V101H777V0ZM445 300V462L363 300H445Z" />
<glyph unicode="&#xc7;" glyph-name="Ccedilla" horiz-adv-x="430" d="M125 -211L159 -138Q196 -163 237 -163Q261 -163 279 -154T297 -123T277 -96Q272 -94 265 -94Q247 -94 222 -106L178 -128L143 -78L201 -4Q66 25 66 183V504Q66 580 87 619T153 685Q198 710
260 710Q266 710 273 710Q343 707 402 677L371 577Q325 594 270 594Q228 594 202 571T176 513V185Q176 167 180 153T193 129T211 113T236 104T263 101T293 102T324 106T355 113T384 120T410 127L427 23Q345 -9 266 -10L247 -38Q266 -31 281 -31Q315 -31 341 -55T367
-123Q367 -178 323 -205T227 -232Q182 -232 125 -211Z" />
<glyph unicode="&#xc8;" glyph-name="Egrave" horiz-adv-x="465" d="M410 0H78V700H412V590H188V413H325L294 308H188V100H410V0ZM280 732H207L158 795Q142 816 142 834Q142 837 143 840Q147 860 167 870Q173 874 182 874Q190 874 201 870Q224 863 234 840L280 732Z" />
<glyph unicode="&#xc9;" glyph-name="Eacute" horiz-adv-x="465" d="M410 0H78V700H412V590H188V413H325L294 308H188V100H410V0ZM310 730H237L283 838Q293 861 316 868Q327 872 335 872Q344 872 350 868Q370 858 374 838Q375 835 375 832Q375 814 359 793L310 730Z" />
<glyph unicode="&#xca;" glyph-name="Ecircumflex" horiz-adv-x="465" d="M410 0H78V700H412V590H188V413H325L294 308H188V100H410V0ZM392 770L325 731L249 814L168 731L102 770L250 911L392 770Z" />
<glyph unicode="&#xcb;" glyph-name="Edieresis" horiz-adv-x="465" d="M410 0H78V700H412V590H188V413H325L294 308H188V100H410V0ZM220 775Q220 757 207 744T175 731Q157 731 144 744T131 775Q131 794 144 807T175 820Q194 820 207 807T220 775ZM327 731T308
731T276 744T263 776T276 808T308 821T340 808T353 776T340 744Z" />
<glyph unicode="&#xcc;" glyph-name="Igrave" horiz-adv-x="330" d="M250 0H140V592L78 594V700H250V0ZM248 732H175L126 795Q110 816 110 834Q110 837 111 840Q115 860 135 870Q141 874 150 874Q158 874 169 870Q192 863 202 840L248 732Z" />
<glyph unicode="&#xcd;" glyph-name="Iacute" horiz-adv-x="383" d="M250 0H140V592L78 594V700H250V0ZM238 730H165L211 838Q221 861 244 868Q255 872 263 872Q272 872 278 868Q298 858 302 838Q303 835 303 832Q303 814 287 793L238 730Z" />
<glyph unicode="&#xce;" glyph-name="Icircumflex" horiz-adv-x="448" d="M280 0H170V592L108 594V700H280V0ZM368 770L301 731L225 814L144 731L78 770L226 911L368 770Z" />
<glyph unicode="&#xcf;" glyph-name="Idieresis" horiz-adv-x="380" d="M262 0H152V592L90 594V700H262V0ZM167 773Q167 755 154 742T122 729Q104 729 91 742T78 773Q78 792 91 805T122 818Q141 818 154 805T167 773ZM274 729T255 729T223 742T210 774T223 806T255
819T287 806T300 774T287 742Z" />
<glyph unicode="&#xd0;" glyph-name="Eth" horiz-adv-x="644" d="M335 0H127V395H78V500H127V701H315Q420 701 479 647T546 500H605V395H547V200Q547 0 335 0ZM437 190V395H237V101H319Q344 101 361 103T397 114T427 141T437 190ZM237 500H436Q429 590 325 590H237V500Z" />
<glyph unicode="&#xd1;" glyph-name="Ntilde" horiz-adv-x="650" d="M570 0H459L188 473V0H78V700H188L459 230V700H570V0ZM467 845L509 780Q475 740 441 731Q426 727 413 727Q395 727 378 734Q349 746 320 759Q298 769 273 769Q266 769 260 768Q227 765 197 733L158
798Q193 837 228 846Q244 851 258 851Q276 851 292 844Q321 833 350 820Q372 810 397 810Q403 810 408 811Q439 814 467 845Z" />
<glyph unicode="&#xd2;" glyph-name="Ograve" horiz-adv-x="549" d="M483 506V185Q483 84 422 37T274 -11T126 36T63 185V507Q63 610 119 663T275 716T428 660T483 506ZM373 206V470Q373 534 354 565T273 597T193 567T173 471V204Q173 156 197 129T273 101Q320
101 346 130T373 206ZM302 732H229L180 795Q164 816 164 834Q164 837 165 840Q169 860 189 870Q195 874 204 874Q212 874 223 870Q246 863 256 840L302 732Z" />
<glyph unicode="&#xd3;" glyph-name="Oacute" horiz-adv-x="549" d="M483 506V185Q483 84 422 37T274 -11T126 36T63 185V507Q63 610 119 663T275 716T428 660T483 506ZM373 206V470Q373 534 354 565T273 597T193 567T173 471V204Q173 156 197 129T273 101Q320
101 346 130T373 206ZM330 730H257L303 838Q313 861 336 868Q347 872 355 872Q364 872 370 868Q390 858 394 838Q395 835 395 832Q395 814 379 793L330 730Z" />
<glyph unicode="&#xd4;" glyph-name="Ocircumflex" horiz-adv-x="549" d="M483 506V185Q483 84 422 37T274 -11T126 36T63 185V507Q63 610 119 663T275 716T428 660T483 506ZM373 206V470Q373 534 354 565T273 597T193 567T173 471V204Q173 156 197 129T273 101Q320
101 346 130T373 206ZM420 770L353 731L277 814L196 731L130 770L278 911L420 770Z" />
<glyph unicode="&#xd5;" glyph-name="Otilde" horiz-adv-x="549" d="M483 506V185Q483 84 422 37T274 -11T126 36T63 185V507Q63 610 119 663T275 716T428 660T483 506ZM373 206V470Q373 534 354 565T273 597T193 567T173 471V204Q173 156 197 129T273 101Q320
101 346 130T373 206ZM420 847L462 782Q428 742 394 733Q379 729 366 729Q348 729 331 736Q302 748 274 761Q251 771 226 771Q219 771 212 770Q180 767 150 735L111 800Q146 839 181 848Q197 853 211 853Q229 853 245 846Q274 835 302 822Q325 812 350 812Q356
812 362 813Q392 816 420 847Z" />
<glyph unicode="&#xd6;" glyph-name="Odieresis" horiz-adv-x="549" d="M483 506V185Q483 84 422 37T274 -11T126 36T63 185V507Q63 610 119 663T275 716T428 660T483 506ZM373 206V470Q373 534 354 565T273 597T193 567T173 471V204Q173 156 197 129T273 101Q320
101 346 130T373 206ZM249 775Q249 757 236 744T204 731Q186 731 173 744T160 775Q160 794 173 807T204 820Q223 820 236 807T249 775ZM356 731T337 731T305 744T292 776T305 808T337 821T369 808T382 776T369 744Z" />
<glyph unicode="&#xd7;" glyph-name="multiply" horiz-adv-x="432" d="M392 218L322 157L235 260L149 156L81 218L175 333L78 448L149 508L235 405L321 509L393 451L295 333L392 218Z" />
<glyph unicode="&#xd8;" glyph-name="Oslash" horiz-adv-x="561" d="M195 -114H78L135 49Q86 100 86 185V507Q86 610 142 663T298 716Q332 716 364 708L402 817H522L462 648Q506 593 506 506V185Q506 84 445 37T297 -11Q262 -11 233 -4L195 -114ZM196 225L324
594Q312 597 296 597Q235 597 216 567T196 471V225ZM396 206V458L271 103Q278 101 296 101Q343 101 369 130T396 206Z" />
<glyph unicode="&#xd9;" glyph-name="Ugrave" horiz-adv-x="566" d="M385 230V701H495V186Q495 133 477 94T427 34T360 3T285 -7T210 3T143 34T93 94T74 186V701H184V230Q184 162 204 132T284 101Q344 101 364 131T385 230ZM322 732H249L200 795Q184 816 184 834Q184
837 185 840Q189 860 209 870Q215 874 224 874Q232 874 243 870Q266 863 276 840L322 732Z" />
<glyph unicode="&#xda;" glyph-name="Uacute" horiz-adv-x="566" d="M385 230V701H495V186Q495 133 477 94T427 34T360 3T285 -7T210 3T143 34T93 94T74 186V701H184V230Q184 162 204 132T284 101Q344 101 364 131T385 230ZM321 731H248L294 839Q304 862 327 870Q338
873 346 873Q355 873 361 869Q381 859 385 840Q386 836 386 833Q386 815 370 794L321 731Z" />
<glyph unicode="&#xdb;" glyph-name="Ucircumflex" horiz-adv-x="566" d="M385 230V701H495V186Q495 133 477 94T427 34T360 3T285 -7T210 3T143 34T93 94T74 186V701H184V230Q184 162 204 132T284 101Q344 101 364 131T385 230ZM429 770L362 731L286 814L205
731L139 770L287 911L429 770Z" />
<glyph unicode="&#xdc;" glyph-name="Udieresis" horiz-adv-x="566" d="M385 230V701H495V186Q495 133 477 94T427 34T360 3T285 -7T210 3T143 34T93 94T74 186V701H184V230Q184 162 204 132T284 101Q344 101 364 131T385 230ZM261 775Q261 757 248 744T216 731Q198
731 185 744T172 775Q172 794 185 807T216 820Q235 820 248 807T261 775ZM368 731T349 731T317 744T304 776T317 808T349 821T381 808T394 776T381 744Z" />
<glyph unicode="&#xdd;" glyph-name="Yacute" horiz-adv-x="548" d="M342 -19L307 65Q340 69 361 90T382 164V220Q332 195 277 195Q174 195 111 254T48 413V700H158V423Q158 303 277 303Q289 303 299 304T318 307T334 311T347 316T358 322T366 328T373 334T378
340L382 343V700H492V156Q492 77 458 33T342 -19ZM307 731H234L280 839Q290 862 313 870Q324 873 332 873Q341 873 347 869Q367 859 371 840Q372 836 372 833Q372 815 356 794L307 731Z" />
<glyph unicode="&#xde;" glyph-name="Thorn" horiz-adv-x="494" d="M186 0H78V700H186V492Q224 509 265 509Q358 509 406 455T455 315Q455 221 404 169T269 116Q219 116 186 139V0ZM269 220Q299 220 322 242T346 316Q346 349 328 376T269 404Q238 404 212 380T186
318Q186 266 210 243T269 220Z" />
<glyph unicode="&#xdf;" glyph-name="germandbls" horiz-adv-x="564" d="M187 0H78V537Q78 611 122 656T239 701Q299 701 339 675T391 612Q398 589 398 566Q398 552 396 537Q388 499 362 476L342 477Q332 462 332 447Q332 430 340 416Q347 403 362 387T393 357T430
325T467 288Q493 260 508 228T525 154Q525 150 525 147Q525 109 504 70Q477 18 420 -2Q385 -13 350 -13Q328 -13 306 -8Q248 4 208 37L256 138Q284 111 314 100Q335 93 352 93Q358 93 364 94Q385 98 395 113Q409 132 409 154Q409 195 362 243Q348 257 322 282T280
322T247 361T223 405Q219 419 219 437Q219 444 220 452Q222 479 238 507Q268 507 282 530Q290 543 290 556Q290 565 286 574Q276 596 247 596Q187 596 187 506V0Z" />
<glyph unicode="&#xe0;" glyph-name="agrave" horiz-adv-x="502" d="M463 298V0Q359 -10 297 -10Q269 -10 250 -8Q86 10 78 155Q78 162 78 169V252Q78 351 147 385Q176 401 213 401Q219 401 224 400Q268 398 300 390T353 369Q353 433 246 433L255 509Q293 509
323 505T375 490T412 468T437 439T452 408T460 371T462 335T463 298ZM353 97V252Q337 263 312 272T258 287Q249 288 241 288Q223 288 209 280Q189 268 189 238V183Q189 91 295 91Q321 91 353 97ZM302 540H229L180 603Q164 624 164 642Q164 645 165 648Q169 668
189 678Q195 682 204 682Q212 682 223 678Q246 671 256 648L302 540Z" />
<glyph unicode="&#xe1;" glyph-name="aacute" horiz-adv-x="502" d="M463 298V0Q359 -10 297 -10Q269 -10 250 -8Q86 10 78 155Q78 162 78 169V252Q78 351 147 385Q176 401 213 401Q219 401 224 400Q268 398 300 390T353 369Q353 433 246 433L255 509Q293 509
323 505T375 490T412 468T437 439T452 408T460 371T462 335T463 298ZM353 97V252Q337 263 312 272T258 287Q249 288 241 288Q223 288 209 280Q189 268 189 238V183Q189 91 295 91Q321 91 353 97ZM331 538H258L304 646Q314 669 337 676Q348 680 356 680Q365 680
371 676Q391 666 395 646Q396 643 396 640Q396 622 380 601L331 538Z" />
<glyph unicode="&#xe2;" glyph-name="acircumflex" horiz-adv-x="502" d="M463 298V0Q359 -10 297 -10Q269 -10 250 -8Q86 10 78 155Q78 162 78 169V252Q78 351 147 385Q176 401 213 401Q219 401 224 400Q268 398 300 390T353 369Q353 433 246 433L255 509Q293
509 323 505T375 490T412 468T437 439T452 408T460 371T462 335T463 298ZM353 97V252Q337 263 312 272T258 287Q249 288 241 288Q223 288 209 280Q189 268 189 238V183Q189 91 295 91Q321 91 353 97ZM426 577L359 538L283 621L202 538L136 577L284 718L426 577Z"
/>
<glyph unicode="&#xe3;" glyph-name="atilde" horiz-adv-x="502" d="M463 298V0Q359 -10 297 -10Q269 -10 250 -8Q86 10 78 155Q78 162 78 169V252Q78 351 147 385Q176 401 213 401Q219 401 224 400Q268 398 300 390T353 369Q353 433 246 433L255 509Q293 509
323 505T375 490T412 468T437 439T452 408T460 371T462 335T463 298ZM353 97V252Q337 263 312 272T258 287Q249 288 241 288Q223 288 209 280Q189 268 189 238V183Q189 91 295 91Q321 91 353 97ZM412 657L454 592Q420 552 386 543Q371 539 358 539Q340 539 323
546Q294 558 266 571Q243 581 218 581Q211 581 204 580Q172 577 142 545L103 610Q138 649 173 658Q189 663 203 663Q221 663 237 656Q266 645 294 632Q317 622 342 622Q348 622 354 623Q384 626 412 657Z" />
<glyph unicode="&#xe4;" glyph-name="adieresis" horiz-adv-x="502" d="M463 298V0Q359 -10 297 -10Q269 -10 250 -8Q86 10 78 155Q78 162 78 169V252Q78 351 147 385Q176 401 213 401Q219 401 224 400Q268 398 300 390T353 369Q353 433 246 433L255 509Q293 509
323 505T375 490T412 468T437 439T452 408T460 371T462 335T463 298ZM353 97V252Q337 263 312 272T258 287Q249 288 241 288Q223 288 209 280Q189 268 189 238V183Q189 91 295 91Q321 91 353 97ZM259 583Q259 565 246 552T214 539Q196 539 183 552T170 583Q170
602 183 615T214 628Q233 628 246 615T259 583ZM366 539T347 539T315 552T302 584T315 616T347 629T379 616T392 584T379 552Z" />
<glyph unicode="&#xe5;" glyph-name="aring" horiz-adv-x="502" d="M463 298V0Q359 -10 297 -10Q269 -10 250 -8Q86 10 78 155Q78 162 78 169V252Q78 351 147 385Q176 401 213 401Q219 401 224 400Q268 398 300 390T353 369Q353 433 246 433V434Q207 439 181 469T154
540Q154 584 185 615T261 647T336 616T368 540Q368 518 358 496Q395 484 418 464T450 412T461 359T463 298ZM353 97V252Q337 263 312 272T258 287Q249 288 241 288Q223 288 209 280Q189 268 189 238V183Q189 91 295 91Q321 91 353 97ZM248 510T261 510T282 518T290
540T282 561T261 569T240 561T231 540T239 519Z" />
<glyph unicode="&#xe6;" glyph-name="ae" horiz-adv-x="752" d="M713 190L464 177V149Q464 98 510 91Q517 90 524 90Q569 90 648 130L688 35Q614 -10 523 -12Q517 -12 510 -12Q473 -12 443 -2Q408 -5 389 -7T334 -10Q320 -10 308 -10Q291 -10 278 -10Q257 -8 227
-4T178 8T138 30T106 63T86 109T78 169V252Q78 351 147 385Q176 401 213 401Q219 401 224 400Q268 398 300 390T353 369Q353 433 246 433L255 509Q359 509 409 470Q458 510 537 510Q620 510 666 466T713 342V190ZM353 97V252Q337 263 312 272T258 287Q249 288 241
288Q223 288 209 280Q189 268 189 238V183Q189 91 295 91Q321 91 353 97ZM602 287V340Q602 370 583 386T536 402Q498 402 481 382T464 338V278L602 287Z" />
<glyph unicode="&#xe7;" glyph-name="ccedilla" horiz-adv-x="383" d="M89 -211L123 -138Q160 -163 201 -163Q225 -163 243 -154T261 -123T241 -96Q236 -94 229 -94Q211 -94 186 -106L142 -128L107 -78L166 -3Q163 -2 157 -1T148 2Q89 22 63 63T36 180V308Q36
379 64 427T138 494Q176 510 222 510Q231 510 241 509Q298 505 356 478L326 383Q274 401 237 401Q210 401 192 392Q146 370 146 314V169Q146 136 169 119T224 100Q230 100 237 100Q262 100 284 103Q312 107 328 114L358 6Q295 -10 237 -10Q233 -10 230 -10L211
-38Q230 -31 245 -31Q279 -31 305 -55T331 -123Q331 -178 287 -205T191 -232Q146 -232 89 -211Z" />
<glyph unicode="&#xe8;" glyph-name="egrave" horiz-adv-x="477" d="M438 190L189 177V149Q189 98 236 91Q242 90 249 90Q294 90 373 130L413 35Q339 -10 248 -12Q244 -12 240 -12Q168 -12 124 22Q78 59 78 134V339Q78 420 128 465T262 510T391 466T438 342V190ZM327
287V340Q327 370 308 386T261 402Q223 402 206 382T189 338V278L327 287ZM294 540H221L172 603Q156 624 156 642Q156 645 157 648Q161 668 181 678Q187 682 196 682Q204 682 215 678Q238 671 248 648L294 540Z" />
<glyph unicode="&#xe9;" glyph-name="eacute" horiz-adv-x="477" d="M438 190L189 177V149Q189 98 236 91Q242 90 249 90Q294 90 373 130L413 35Q339 -10 248 -12Q244 -12 240 -12Q168 -12 124 22Q78 59 78 134V339Q78 420 128 465T262 510T391 466T438 342V190ZM327
287V340Q327 370 308 386T261 402Q223 402 206 382T189 338V278L327 287ZM313 538H240L286 646Q296 669 319 676Q330 680 338 680Q347 680 353 676Q373 666 377 646Q378 643 378 640Q378 622 362 601L313 538Z" />
<glyph unicode="&#xea;" glyph-name="ecircumflex" horiz-adv-x="477" d="M438 190L189 177V149Q189 98 236 91Q242 90 249 90Q294 90 373 130L413 35Q339 -10 248 -12Q244 -12 240 -12Q168 -12 124 22Q78 59 78 134V339Q78 420 128 465T262 510T391 466T438 342V190ZM327
287V340Q327 370 308 386T261 402Q223 402 206 382T189 338V278L327 287ZM418 577L351 538L275 621L194 538L128 577L276 718L418 577Z" />
<glyph unicode="&#xeb;" glyph-name="edieresis" horiz-adv-x="537" d="M395 190L146 177V149Q146 98 192 91Q199 90 206 90Q251 90 330 130L370 35Q296 -10 205 -12Q201 -12 197 -12Q125 -12 81 22Q35 59 35 134V339Q35 420 85 465T219 510T348 466T395 342V190ZM284
287V340Q284 370 265 386T218 402Q180 402 163 382T146 338V278L284 287ZM194 583Q194 565 181 552T149 539Q131 539 118 552T105 583Q105 602 118 615T149 628Q168 628 181 615T194 583ZM301 539T282 539T250 552T237 584T250 616T282 629T314 616T327 584T314
552Z" />
<glyph unicode="&#xec;" glyph-name="igrave" horiz-adv-x="274" d="M216 540H143L94 603Q78 624 78 642Q78 645 79 648Q83 668 103 678Q109 682 118 682Q126 682 137 678Q160 671 170 648L216 540ZM235 0H125V501H235V0Z" />
<glyph unicode="&#xed;" glyph-name="iacute" horiz-adv-x="278" d="M174 538H101L147 646Q157 669 180 676Q191 680 199 680Q208 680 214 676Q234 666 238 646Q239 643 239 640Q239 622 223 601L174 538ZM188 0H78V501H188V0Z" />
<glyph unicode="&#xee;" glyph-name="icircumflex" horiz-adv-x="231" d="M254 577L187 538L111 621L30 538L-36 577L112 718L254 577ZM165 0H55V501H165V0Z" />
<glyph unicode="&#xef;" glyph-name="idieresis" horiz-adv-x="339" d="M167 583Q167 565 154 552T122 539Q104 539 91 552T78 583Q78 602 91 615T122 628Q141 628 154 615T167 583ZM274 539T255 539T223 552T210 584T223 616T255 629T287 616T300 584T287 552ZM241
0H131V501H241V0Z" />
<glyph unicode="&#xf1;" glyph-name="ntilde" horiz-adv-x="486" d="M447 0H337V315Q337 373 294 395Q276 404 255 404Q224 404 187 386V0H78V501H175L188 495Q234 510 275 510Q321 510 362 491Q447 452 447 346V0ZM401 658L443 593Q409 553 375 544Q360 540 347
540Q329 540 312 547Q283 559 254 572Q232 582 207 582Q200 582 194 582Q161 578 131 546L92 611Q127 650 162 660Q178 664 192 664Q210 664 226 658Q255 646 284 634Q306 623 331 623Q337 623 342 624Q373 627 401 658Z" />
<glyph unicode="&#xf2;" glyph-name="ograve" horiz-adv-x="490" d="M451 316V184Q451 100 405 45T266 -10T126 45T78 184V316Q78 411 126 461T266 512Q353 512 402 460T451 316ZM342 174V316Q342 345 335 363T315 389T291 399T266 401Q188 401 188 316V174Q188
98 266 98Q299 98 320 117T342 174ZM293 540H220L171 603Q155 624 155 642Q155 645 156 648Q160 668 180 678Q186 682 195 682Q203 682 214 678Q237 671 247 648L293 540Z" />
<glyph unicode="&#xf3;" glyph-name="oacute" horiz-adv-x="490" d="M451 316V184Q451 100 405 45T266 -10T126 45T78 184V316Q78 411 126 461T266 512Q353 512 402 460T451 316ZM342 174V316Q342 345 335 363T315 389T291 399T266 401Q188 401 188 316V174Q188
98 266 98Q299 98 320 117T342 174ZM312 538H239L285 646Q295 669 318 676Q329 680 337 680Q346 680 352 676Q372 666 376 646Q377 643 377 640Q377 622 361 601L312 538Z" />
<glyph unicode="&#xf4;" glyph-name="ocircumflex" horiz-adv-x="490" d="M451 316V184Q451 100 405 45T266 -10T126 45T78 184V316Q78 411 126 461T266 512Q353 512 402 460T451 316ZM342 174V316Q342 345 335 363T315 389T291 399T266 401Q188 401 188 316V174Q188
98 266 98Q299 98 320 117T342 174ZM415 577L348 538L272 621L191 538L125 577L273 718L415 577Z" />
<glyph unicode="&#xf5;" glyph-name="otilde" horiz-adv-x="491" d="M451 316V184Q451 100 405 45T266 -10T126 45T78 184V316Q78 411 126 461T266 512Q353 512 402 460T451 316ZM342 174V316Q342 345 335 363T315 389T291 399T266 401Q188 401 188 316V174Q188
98 266 98Q299 98 320 117T342 174ZM410 632L452 567Q418 527 384 518Q369 514 356 514Q338 514 321 521Q292 533 264 546Q241 556 216 556Q209 556 202 556Q170 552 140 520L101 585Q136 624 171 634Q187 638 201 638Q219 638 235 632Q264 620 292 608Q315 597
340 597Q346 597 352 598Q382 601 410 632Z" />
<glyph unicode="&#xf6;" glyph-name="odieresis" horiz-adv-x="490" d="M451 316V184Q451 100 405 45T266 -10T126 45T78 184V316Q78 411 126 461T266 512Q353 512 402 460T451 316ZM342 174V316Q342 345 335 363T315 389T291 399T266 401Q188 401 188 316V174Q188
98 266 98Q299 98 320 117T342 174ZM248 583Q248 565 235 552T203 539Q185 539 172 552T159 583Q159 602 172 615T203 628Q222 628 235 615T248 583ZM355 539T336 539T304 552T291 584T304 616T336 629T368 616T381 584T368 552Z" />
<glyph unicode="&#xf7;" glyph-name="divide" horiz-adv-x="437" d="M398 339H78V428H398V339ZM263 447T241 447T203 463T187 501T203 539T241 555T279 539T295 501T279 463ZM263 208T241 208T203 224T187 262T203 300T241 316T279 300T295 262T279 224Z" />
<glyph unicode="&#xf8;" glyph-name="oslash" horiz-adv-x="505" d="M183 -67H78L126 46Q79 99 79 184V316Q79 411 127 461T267 512Q299 512 323 505L359 588H466L408 453Q452 401 452 316V184Q452 100 406 45T267 -10Q234 -10 210 -3L183 -67ZM189 191L278 400Q274
401 267 401Q189 401 189 316V191ZM343 174V303L254 98H267Q300 98 321 117T343 174Z" />
<glyph unicode="&#xf9;" glyph-name="ugrave" horiz-adv-x="490" d="M451 0H348L341 6Q296 -11 266 -11Q78 -11 78 172V501H188V188Q188 142 204 120T266 98T326 122T341 192V501H451V0ZM300 540H227L178 603Q162 624 162 642Q162 645 163 648Q167 668 187 678Q193
682 202 682Q210 682 221 678Q244 671 254 648L300 540Z" />
<glyph unicode="&#xfa;" glyph-name="uacute" horiz-adv-x="490" d="M451 0H348L341 6Q296 -11 266 -11Q78 -11 78 172V501H188V188Q188 142 204 120T266 98T326 122T341 192V501H451V0ZM312 538H239L285 646Q295 669 318 676Q329 680 337 680Q346 680 352 676Q372
666 376 646Q377 643 377 640Q377 622 361 601L312 538Z" />
<glyph unicode="&#xfb;" glyph-name="ucircumflex" horiz-adv-x="490" d="M451 0H348L341 6Q296 -11 266 -11Q78 -11 78 172V501H188V188Q188 142 204 120T266 98T326 122T341 192V501H451V0ZM410 577L343 538L267 621L186 538L120 577L268 718L410 577Z" />
<glyph unicode="&#xfc;" glyph-name="udieresis" horiz-adv-x="490" d="M451 0H348L341 6Q296 -11 266 -11Q78 -11 78 172V501H188V188Q188 142 204 120T266 98T326 122T341 192V501H451V0ZM243 583Q243 565 230 552T198 539Q180 539 167 552T154 583Q154 602
167 615T198 628Q217 628 230 615T243 583ZM350 539T331 539T299 552T286 584T299 616T331 629T363 616T376 584T363 552Z" />
<glyph unicode="&#xfd;" glyph-name="yacute" horiz-adv-x="552" d="M319 -210L276 -123Q302 -123 322 -107T343 -56V2Q298 -12 261 -12Q173 -12 126 35T78 176V501H188V206Q188 143 205 121T261 98Q305 98 324 119T343 206V363Q343 416 379 460T472 510L513 420Q484
413 469 393T453 347V-61Q453 -126 423 -163T319 -210ZM309 538H236L282 646Q292 669 315 676Q326 680 334 680Q343 680 349 676Q369 666 373 646Q374 643 374 640Q374 622 358 601L309 538Z" />
<glyph unicode="&#xfe;" glyph-name="thorn" horiz-adv-x="494" d="M186 0H78V588H186V492Q224 509 265 509Q358 509 406 455T455 315Q455 221 404 169T269 116Q219 116 186 139V0ZM269 220Q299 220 322 242T346 316Q346 349 328 376T269 404Q238 404 212 380T186
318Q186 266 210 243T269 220Z" />
<glyph unicode="&#xff;" glyph-name="ydieresis" horiz-adv-x="552" d="M319 -210L276 -123Q302 -123 322 -107T343 -56V2Q298 -12 261 -12Q173 -12 126 35T78 176V501H188V206Q188 143 205 121T261 98Q305 98 324 119T343 206V363Q343 416 379 460T472 510L513
420Q484 413 469 393T453 347V-61Q453 -126 423 -163T319 -210ZM356 539T337 539T305 552T292 584T305 616T337 629T369 616T382 584T369 552ZM249 583Q249 565 236 552T204 539Q186 539 173 552T160 583Q160 602 173 615T204 628Q223 628 236 615T249 583Z" />
<glyph unicode="&#x2018;" glyph-name="quoteleft" horiz-adv-x="144" d="M68 633L80 630Q110 616 110 582Q110 559 94 544Q79 529 57 529Q55 529 54 529Q28 530 16 550T4 592Q4 626 19 653T71 714L140 685Q119 673 101 660T76 640L68 633Z" />
<glyph unicode="&#x2019;" glyph-name="quoteright" horiz-adv-x="144" d="M73 524L4 553Q25 565 43 578T68 598L76 605L64 608Q34 622 34 656Q34 679 50 694Q65 709 87 709Q89 709 90 709Q116 708 128 688T140 646Q140 612 125 585T73 524Z" />
<glyph unicode="&#x201a;" glyph-name="quotesinglbase" horiz-adv-x="178" d="M70 -84L1 -55Q22 -43 40 -30T66 -10L73 -3L61 0Q31 14 31 48Q31 71 47 86Q62 101 84 101Q86 101 87 101Q113 100 125 80T137 38Q137 4 122 -23T70 -84Z" />
<glyph unicode="&#x201c;" glyph-name="quotedblleft" horiz-adv-x="294" d="M218 637L230 634Q260 620 260 586Q260 563 244 548Q229 533 207 533Q205 533 204 533Q178 534 166 554T154 596Q154 630 169 657T221 718L290 689Q269 677 251 664T226 644L218 637ZM68
637L80 634Q110 620 110 586Q110 563 94 548Q79 533 57 533Q55 533 54 533Q28 534 16 554T4 596Q4 630 19 657T71 718L140 689Q119 677 101 664T76 644L68 637Z" />
<glyph unicode="&#x201d;" glyph-name="quotedblright" horiz-adv-x="294" d="M223 525L154 554Q175 566 193 579T218 599L226 606L214 609Q184 623 184 657Q184 680 200 696Q215 710 237 710Q239 710 240 710Q266 709 278 689T290 647Q290 613 275 586T223 525ZM73
525L4 554Q25 566 43 579T68 599L76 606L64 609Q34 623 34 657Q34 680 50 696Q65 710 87 710Q89 710 90 710Q116 709 128 689T140 647Q140 613 125 586T73 525Z" />
<glyph unicode="&#x201e;" glyph-name="quotedblbase" horiz-adv-x="328" d="M220 -84L151 -55Q172 -43 190 -30T216 -10L223 -3L211 0Q181 14 181 48Q181 71 197 86Q212 101 234 101Q236 101 237 101Q263 100 275 80T287 38Q287 4 272 -23T220 -84ZM70 -84L1
-55Q22 -43 40 -30T66 -10L73 -3L61 0Q31 14 31 48Q31 71 47 86Q62 101 84 101Q86 101 87 101Q113 100 125 80T137 38Q137 4 122 -23T70 -84Z" />
<glyph unicode="&#x2022;" glyph-name="bullet" horiz-adv-x="474" d="M330 158T256 158T130 210T78 337T130 463T256 515T382 463T435 337T383 211Z" />
<glyph unicode="&#x2039;" glyph-name="guilsinglleft" horiz-adv-x="303" d="M301 148L229 80L42 267V268L229 455L302 383L182 267L301 148Z" />
<glyph unicode="&#x203a;" glyph-name="guilsinglright" horiz-adv-x="299" d="M73 80L1 148L120 267L0 383L73 455L260 268V267L73 80Z" />
</font>
</defs>
</svg>
