<?xml version="1.0" standalone="no"?>
<!DOCTYPE svg PUBLIC "-//W3C//DTD SVG 1.1//EN" "http://www.w3.org/Graphics/SVG/1.1/DTD/svg11.dtd">
<svg xmlns="http://www.w3.org/2000/svg">
<defs >
<font id="Overpass" horiz-adv-x="559" ><font-face
    font-family="Overpass Light"
    units-per-em="1000"
    panose-1="0 0 4 0 0 0 0 0 0 0"
    ascent="982"
    descent="-284"
    alphabetic="0" />
<glyph unicode=" " glyph-name="space" horiz-adv-x="230" />
<glyph unicode="!" glyph-name="exclam" horiz-adv-x="270" d="M131 193L101 495V712H173V495L142 193H131ZM161 -14T135 -14T91 5T72 49T90 93T135 112T179 93T198 49T180 5Z" />
<glyph unicode="&quot;" glyph-name="quotedbl" horiz-adv-x="385" d="M60 700H147L129 433H76L60 700ZM237 700H325L307 433H254L237 700Z" />
<glyph unicode="#" glyph-name="numbersign" horiz-adv-x="685" d="M149 0L180 204H57L69 267H189L216 445H101L111 506H225L255 700H323L294 506H436L466 700H534L504 506H628L618 445H495L467 267H584L574 204H458L427 0H359L390 204H248L217 0H149ZM257 267H399L427
445H285L257 267Z" />
<glyph unicode="$" glyph-name="dollar" horiz-adv-x="592" d="M259 -98V-9Q188 0 137 38T65 130L131 154Q152 107 196 80T299 53Q368 53 407 85T446 180Q446 284 289 343Q245 360 215 375T151 414T101 473T84 549Q84 612 131 657T259 710V789H330V709Q390 702
431 673T485 601L420 579Q406 609 372 628T287 647Q226 647 192 621T157 550Q157 501 198 471T317 410Q359 394 390 377T453 333T502 268T519 182Q519 98 468 48T330 -10V-98H259Z" />
<glyph unicode="%" glyph-name="percent" horiz-adv-x="889" d="M216 356Q136 356 98 409T59 534Q59 601 98 656T216 712Q296 712 334 660T373 534Q373 491 360 453T309 386T216 356ZM241 -12H169L647 712H719L241 -12ZM216 414Q260 414 284 448T308 534Q308 589
285 621T216 654Q170 654 147 620T124 534Q124 480 147 447T216 414ZM672 -12Q592 -12 554 41T515 166Q515 233 554 288T672 344Q752 344 790 292T829 166Q829 123 816 85T765 18T672 -12ZM672 46Q716 46 740 80T764 166Q764 221 741 253T672 286Q626 286 603 252T580
166Q580 112 603 79T672 46Z" />
<glyph unicode="&amp;" glyph-name="ampersand" horiz-adv-x="653" d="M242 -12Q154 -12 101 39T47 176Q47 247 89 297T215 394Q166 454 147 490T127 565Q127 632 174 672T292 712Q360 712 405 670T450 563Q450 510 415 468T312 383L464 201Q493 258 500 319H566Q558
226 510 147L633 0H546L469 91Q423 41 363 15T242 -12ZM288 650Q245 650 219 627T193 564Q193 539 212 510T275 427Q384 491 384 556Q384 598 357 624T288 650ZM256 51Q299 51 344 75T425 143L253 348Q180 304 147 266T113 182Q113 123 153 87T256 51Z" />
<glyph unicode="&apos;" glyph-name="quotesingle" horiz-adv-x="207" d="M60 700H147L129 433H76L60 700Z" />
<glyph unicode="(" glyph-name="parenleft" horiz-adv-x="340" d="M207 -130Q85 30 85 284Q85 553 218 712H285Q243 660 199 545T154 284Q154 48 274 -130H207Z" />
<glyph unicode=")" glyph-name="parenright" horiz-adv-x="340" d="M66 -130Q186 48 186 284Q186 430 142 545T55 712H122Q255 553 255 284Q255 30 133 -130H66Z" />
<glyph unicode="*" glyph-name="asterisk" horiz-adv-x="535" d="M298 393L266 473L235 393L169 301L113 344L177 432L235 488L160 493L58 527L81 593L178 561L249 512L233 595V707H302V595L284 512L355 561L454 593L477 527L373 493L296 488L358 432L421 344L366
301L298 393Z" />
<glyph unicode="+" glyph-name="plus" horiz-adv-x="660" d="M365 308V108H293V308H95V376H293V578H365V376H565V308H365Z" />
<glyph unicode="," glyph-name="comma" horiz-adv-x="226" d="M73 -136Q91 -120 107 -89T123 -19Q91 -19 71 -2T50 43Q50 73 67 91T111 109Q140 109 161 88T183 25Q183 -30 158 -73T92 -141L73 -136Z" />
<glyph unicode="-" glyph-name="hyphen" horiz-adv-x="403" d="M90 264V332H313V264H90Z" />
<glyph unicode="." glyph-name="period" horiz-adv-x="226" d="M139 -14T113 -14T69 5T50 49T68 93T113 112T157 93T176 49T158 5Z" />
<glyph unicode="/" glyph-name="slash" horiz-adv-x="486" d="M0 -130L393 712H461L68 -130H0Z" />
<glyph unicode="0" glyph-name="zero" horiz-adv-x="630" d="M315 -12Q262 -12 220 9T152 64T107 147T82 245T75 350Q75 412 85 469T121 584T196 677T315 712Q381 712 429 680T504 594T542 480T555 350Q555 302 549 256T526 159T483 73T414 12T315 -12ZM315 51Q480
51 480 350Q480 409 473 458T448 553T396 623T315 649Q265 649 230 621T179 546T155 452T148 350Q148 51 315 51Z" />
<glyph unicode="1" glyph-name="one" horiz-adv-x="344" d="M164 0V573H45V613Q160 613 189 700H234V0H164Z" />
<glyph unicode="2" glyph-name="two" horiz-adv-x="610" d="M76 0Q76 36 83 69T99 126T128 176T161 216T202 252T243 283T288 313Q333 344 353 358T402 400T444 455T456 515Q456 574 416 611T304 649Q177 649 148 536L86 564Q102 628 162 670T310 712Q412 712
470 659T529 515Q529 484 522 457T497 405T465 364T419 324T373 291T321 257Q282 232 261 217T213 177T171 126T150 67H535V0H76Z" />
<glyph unicode="3" glyph-name="three" horiz-adv-x="600" d="M287 -12Q192 -12 138 31T55 152L120 179Q146 114 186 84T287 53Q358 53 404 88T451 190Q451 256 411 294T295 332H248V396H285Q347 396 385 430T423 523Q423 579 385 613T294 647Q186 647 139 539L74
564Q99 627 154 669T291 712Q379 712 437 663T496 533Q496 486 472 444T407 380Q462 358 493 309T525 192Q525 105 455 47T287 -12Z" />
<glyph unicode="4" glyph-name="four" horiz-adv-x="597" d="M375 0V189H35V226L403 700H445V249H551V189H445V0H375ZM375 249V579L126 249H375Z" />
<glyph unicode="5" glyph-name="five" horiz-adv-x="638" d="M309 -12Q230 -12 168 14T75 77L116 128Q156 89 199 69T306 48Q384 48 436 98T489 218Q489 289 445 337T332 386Q274 386 230 366T162 319L103 337L160 700H516V637H216L176 393Q243 452 337 452Q432
452 497 389T563 227Q563 133 494 61T309 -12Z" />
<glyph unicode="6" glyph-name="six" horiz-adv-x="596" d="M297 -12Q186 -12 126 63T65 259Q65 409 168 541T423 712V657Q324 628 246 544T151 370Q204 434 314 434Q398 434 459 368T521 220Q521 123 455 56T297 -12ZM294 51Q365 51 409 96T454 210Q454 282 411
327T294 372Q224 372 179 327T134 210Q134 143 180 97T294 51Z" />
<glyph unicode="7" glyph-name="seven" horiz-adv-x="509" d="M169 0Q171 181 218 334T384 640H45V700H464V654Q241 399 239 0H169Z" />
<glyph unicode="8" glyph-name="eight" horiz-adv-x="608" d="M403 -12T304 -12T140 48T75 197Q75 262 109 314T199 387Q156 406 132 445T107 531Q107 605 164 658T304 712T444 659T501 531Q501 484 477 445T408 387Q464 366 498 314T533 197Q533 108 468 48ZM247
408T304 408T395 440T430 522Q430 580 395 614T304 649T214 615T178 522Q178 472 212 440ZM236 51T304 51T416 93T460 207Q460 271 417 316T304 362T192 317T148 207Q148 135 192 93Z" />
<glyph unicode="9" glyph-name="nine" horiz-adv-x="596" d="M177 -12V43Q276 72 349 157T436 336Q383 268 270 268Q185 268 125 331T65 480Q65 578 132 645T297 712Q406 712 463 637T521 441Q521 289 424 158T177 -12ZM292 324Q362 324 407 370T452 488Q452 556
406 602T292 649Q221 649 177 603T132 488Q132 416 175 370T292 324Z" />
<glyph unicode=":" glyph-name="colon" horiz-adv-x="226" d="M139 357T113 357T69 376T50 420T68 464T113 483T157 464T176 420T158 376ZM139 -14T113 -14T69 5T50 49T68 93T113 112T157 93T176 49T158 5Z" />
<glyph unicode=";" glyph-name="semicolon" horiz-adv-x="226" d="M139 357T113 357T69 376T50 420T68 464T113 483T157 464T176 420T158 376ZM73 -136Q90 -121 104 -90T118 -18Q90 -18 70 -1T50 43Q50 73 67 91T111 109Q140 109 161 88T183 25Q183 -30 158 -73T92
-141L73 -136Z" />
<glyph unicode="&lt;" glyph-name="less" horiz-adv-x="660" d="M565 120L95 309V375L565 565V498L172 343L565 188V120Z" />
<glyph unicode="=" glyph-name="equal" horiz-adv-x="660" d="M95 388V455H565V388H95ZM95 229V296H565V229H95Z" />
<glyph unicode="&gt;" glyph-name="greater" horiz-adv-x="660" d="M565 309L95 120V186L488 343L95 498V565L565 375V309Z" />
<glyph unicode="?" glyph-name="question" horiz-adv-x="526" d="M216 170V193Q216 245 235 286T282 353T337 403T384 459T404 530Q404 580 367 613T265 647Q193 647 152 609T110 511H44Q44 598 104 655T265 712Q364 712 420 660T476 528Q476 480 457 443T410
381T355 332T308 273T288 193V170H216ZM276 -14T250 -14T206 5T187 49T205 93T250 112T294 93T313 49T295 5Z" />
<glyph unicode="@" glyph-name="at" horiz-adv-x="799" d="M399 -12Q249 -12 150 81T50 335Q50 498 158 605T418 712Q565 712 657 630T749 413Q749 304 702 232T585 160Q504 160 489 236Q443 151 362 151Q299 151 258 199T216 322Q216 400 268 464T403 529Q447
529 476 504T514 433L528 516H591L551 284Q550 278 550 266Q550 242 562 229T595 215Q636 215 662 272T689 417Q689 528 613 589T421 650Q281 650 199 562T116 334Q116 212 193 131T403 50Q489 50 546 69L531 3Q477 -12 399 -12ZM381 212Q432 212 465 255T498 359Q498
407 472 437T408 468Q353 468 321 426T288 321Q288 271 313 242T381 212Z" />
<glyph unicode="A" glyph-name="A" horiz-adv-x="662" d="M531 0L467 181H194L133 0H60L303 700H357L602 0H531ZM446 243L350 523Q334 568 330 586L322 560Q315 533 311 523L215 243H446Z" />
<glyph unicode="B" glyph-name="B" horiz-adv-x="646" d="M105 700H337Q450 700 500 648T551 517Q551 465 522 427T441 369Q501 354 538 310T576 196Q576 113 524 57T353 0H105V700ZM320 394Q401 394 443 427T486 519Q486 637 343 637H175V394H320ZM365 63Q444
63 477 99T511 190Q511 333 332 333H175V63H365Z" />
<glyph unicode="C" glyph-name="C" horiz-adv-x="644" d="M360 -12Q285 -12 228 18T137 101T87 216T70 350Q70 450 99 529T196 660T360 712Q446 712 494 682T574 599L512 563Q484 603 450 626T360 649Q303 649 259 623T191 552T155 456T143 350Q143 269 164 204T236
95T360 51Q468 51 522 140L584 116Q557 61 501 25T360 -12Z" />
<glyph unicode="D" glyph-name="D" horiz-adv-x="678" d="M105 700H291Q376 700 440 670T539 589T591 478T608 350Q608 299 599 252T567 158T509 77T417 21T287 0H105V700ZM292 63Q359 63 408 88T484 156T523 247T535 350Q535 470 477 553T303 637H175V63H292Z" />
<glyph unicode="E" glyph-name="E" horiz-adv-x="596" d="M105 0V700H504V633H175V395H397V329H175V67H526V0H105Z" />
<glyph unicode="F" glyph-name="F" horiz-adv-x="564" d="M105 0V700H514V633H175V395H404V329H175V0H105Z" />
<glyph unicode="G" glyph-name="G" horiz-adv-x="685" d="M360 -12Q285 -12 228 18T137 101T87 216T70 350Q70 450 99 529T196 660T360 712Q446 712 494 682T574 599L512 563Q484 603 450 626T360 649Q303 649 259 623T191 552T155 456T143 350Q143 269 164 204T236
95T360 51Q436 51 481 98T526 225V267H397V329H600V252Q600 127 533 58T360 -12Z" />
<glyph unicode="H" glyph-name="H" horiz-adv-x="692" d="M517 0V331H175V0H105V700H175V397H517V700H587V0H517Z" />
<glyph unicode="I" glyph-name="I" horiz-adv-x="280" d="M105 0V700H175V0H105Z" />
<glyph unicode="J" glyph-name="J" horiz-adv-x="526" d="M212 -12Q140 -12 98 18T30 107L85 137Q103 103 114 89T150 63T215 51Q273 51 312 86T351 204V700H421V225Q421 170 408 127T374 59T325 17T269 -6T212 -12Z" />
<glyph unicode="K" glyph-name="K" horiz-adv-x="643" d="M509 0L289 403L175 261V0H105V700H175V352L452 700H528L337 462L588 0H509Z" />
<glyph unicode="L" glyph-name="L" horiz-adv-x="557" d="M105 0V700H175V67H522V0H105Z" />
<glyph unicode="M" glyph-name="M" horiz-adv-x="802" d="M697 0H627V476V518Q624 511 618 497T608 476L393 -12L191 476Q189 482 183 495T175 515V476V0H105V700H165L382 194Q385 188 390 175T399 155Q402 162 407 175T416 194L636 700H697V0Z" />
<glyph unicode="N" glyph-name="N" horiz-adv-x="705" d="M600 0H529L203 524Q178 566 175 571V524V0H105V700H176L501 170Q517 144 530 121V170V700H600V0Z" />
<glyph unicode="O" glyph-name="O" horiz-adv-x="720" d="M438 -12T360 -12T224 19T134 104T86 219T70 350T85 480T133 595T224 680T360 712T496 681T586 596T634 481T650 350T635 220T587 105T496 20ZM360 51Q418 51 461 77T529 148T565 244T577 350Q577 431
558 495T488 604T360 649Q302 649 259 623T191 552T155 456T143 350Q143 269 162 205T232 96T360 51Z" />
<glyph unicode="P" glyph-name="P" horiz-adv-x="627" d="M105 0V700H361Q477 700 529 641T582 494Q582 413 527 351T361 289H175V0H105ZM367 352Q443 352 479 394T515 494Q515 551 481 594T367 637H175V352H367Z" />
<glyph unicode="Q" glyph-name="Q" horiz-adv-x="720" d="M438 -12T360 -12T224 19T134 104T86 219T70 350T85 480T133 595T224 680T360 712T496 681T586 596T634 481T650 350Q650 154 546 57L604 -29L556 -65L498 21Q438 -12 360 -12ZM360 51Q417 51 460 77L413
147L463 183L507 117Q577 200 577 350Q577 431 558 495T488 604T360 649Q302 649 259 623T191 552T155 456T143 350Q143 269 162 205T232 96T360 51Z" />
<glyph unicode="R" glyph-name="R" horiz-adv-x="653" d="M105 0V700H362Q476 700 527 645T578 508Q578 437 536 384T405 316L560 0H483L333 313H175V0H105ZM175 376H364Q440 376 475 413T511 505Q511 556 477 596T364 637H175V376Z" />
<glyph unicode="S" glyph-name="S" horiz-adv-x="594" d="M298 -12Q213 -12 150 29T65 130L131 154Q153 107 197 79T299 51Q368 51 407 84T447 180Q447 239 404 277T289 343Q246 359 215 375T151 415T101 474T84 549Q84 618 140 665T290 712Q366 712 418 681T485
601L420 579Q406 609 372 629T287 649Q226 649 191 622T156 550Q156 523 168 502T206 464T255 436T317 410Q358 394 389 377T452 332T501 267T519 182Q519 91 458 40T298 -12Z" />
<glyph unicode="T" glyph-name="T" horiz-adv-x="575" d="M322 633V0H252V633H60V700H515V633H322Z" />
<glyph unicode="U" glyph-name="U" horiz-adv-x="680" d="M580 -12T340 -12T100 260V700H170V260Q170 51 340 51T510 260V700H580V260Q580 -12 340 -12Z" />
<glyph unicode="V" glyph-name="V" horiz-adv-x="640" d="M295 0L55 700H129L304 175Q308 164 314 143T324 113Q327 125 334 146T343 175L510 700H585L346 0H295Z" />
<glyph unicode="W" glyph-name="W" horiz-adv-x="827" d="M190 0L55 700H129L214 219L226 149Q229 161 245 217L383 700H435L571 217Q581 181 586 161L598 220L699 700H772L620 0H576L426 502Q414 542 408 564Q402 542 390 502L238 0H190Z" />
<glyph unicode="X" glyph-name="X" horiz-adv-x="562" d="M444 0L277 304L118 0H44L245 361L59 700H135L282 430L426 700H499L314 372L519 0H444Z" />
<glyph unicode="Y" glyph-name="Y" horiz-adv-x="616" d="M274 0V275L45 700H122L308 340L499 700H571L344 278V0H274Z" />
<glyph unicode="Z" glyph-name="Z" horiz-adv-x="637" d="M70 0V49L478 634H93V700H567V649L164 66H567V0H70Z" />
<glyph unicode="[" glyph-name="bracketleft" horiz-adv-x="379" d="M115 -130V712H324V649H185V-67H324V-130H115Z" />
<glyph unicode="\" glyph-name="backslash" horiz-adv-x="486" d="M393 -130L0 712H68L461 -130H393Z" />
<glyph unicode="]" glyph-name="bracketright" horiz-adv-x="379" d="M264 -130H55V-67H194V649H55V712H264V-130Z" />
<glyph unicode="^" glyph-name="asciicircum" horiz-adv-x="660" d="M488 362L330 625L172 362H100L291 712H367L560 362H488Z" />
<glyph unicode="_" glyph-name="underscore" horiz-adv-x="530" d="M10 -177V-100H520V-177H10Z" />
<glyph unicode="`" glyph-name="grave" horiz-adv-x="335" d="M199 576L21 732H128L270 576H199Z" />
<glyph unicode="a" glyph-name="a" horiz-adv-x="519" d="M384 0V50Q315 -12 234 -12Q154 -12 107 32T60 161Q60 244 113 287T246 330Q317 330 384 294V337Q384 462 272 462Q200 462 120 407L100 467Q188 523 279 523Q310 523 337 516T390 490T433 435T449 346V0H384ZM241
49Q320 49 384 128V227Q321 269 253 269Q198 269 162 242T125 161Q125 110 155 80T241 49Z" />
<glyph unicode="b" glyph-name="b" horiz-adv-x="562" d="M302 -12Q268 -12 240 -2T197 18T160 46V0H90V687L160 722V461Q185 489 222 506T296 523Q393 523 450 452T507 256Q507 127 453 58T302 -12ZM291 51Q362 51 398 105T434 256Q434 355 398 407T291 460Q248
460 213 436T160 382V131Q181 95 217 73T291 51Z" />
<glyph unicode="c" glyph-name="c" horiz-adv-x="481" d="M257 -12Q164 -12 110 58T55 255T111 452T265 523Q322 523 365 495T429 416L365 391Q337 460 262 460Q128 460 128 255Q128 51 260 51Q301 51 330 72T373 129L436 105Q418 51 370 20T257 -12Z" />
<glyph unicode="d" glyph-name="d" horiz-adv-x="562" d="M266 -12Q168 -12 112 60T55 256Q55 381 111 452T266 523Q342 523 402 475V687L472 722V0H402V44Q346 -12 266 -12ZM274 51Q313 51 347 72T402 131V386Q356 460 274 460Q204 460 166 407T128 256Q128 168
168 110T274 51Z" />
<glyph unicode="e" glyph-name="e" horiz-adv-x="529" d="M277 -12Q177 -12 116 66T55 256Q55 381 116 452T277 523Q365 523 422 461T479 276Q479 249 477 227H129Q138 147 177 100T280 53Q341 53 395 93L433 46Q363 -12 277 -12ZM127 290H408Q407 383 368 421T277
460Q213 460 172 417T127 290Z" />
<glyph unicode="f" glyph-name="f" horiz-adv-x="330" d="M182 448V0H112V448H30V511H112V598Q112 656 142 684T218 712Q261 712 305 688V627Q267 647 232 647Q215 647 204 642T189 627T183 609T182 587V511H305V448H182Z" />
<glyph unicode="g" glyph-name="g" horiz-adv-x="564" d="M234 -213L202 -158Q317 -152 360 -116T404 -20V58Q357 -12 264 -12Q176 -12 116 58T55 256Q55 380 114 451T268 523Q353 523 404 463V511H474V8Q474 -203 234 -213ZM280 51Q313 51 348 74T404 136V382Q384
418 348 439T280 460Q205 460 167 408T128 256Q128 160 170 106T280 51Z" />
<glyph unicode="h" glyph-name="h" horiz-adv-x="560" d="M90 0V689L160 722V454Q206 523 292 523Q386 523 430 466T475 283V0H405V312Q405 389 373 424T286 460Q160 460 160 314V0H90Z" />
<glyph unicode="i" glyph-name="i" horiz-adv-x="252" d="M146 616T126 616T93 629T80 662T93 696T126 710Q146 710 159 696T172 662T159 629ZM91 0V511H161V0H91Z" />
<glyph unicode="j" glyph-name="j" horiz-adv-x="252" d="M127 616Q108 616 95 629T81 662T94 696T127 710Q147 710 160 696T173 662T160 629T127 616ZM2 -213L-30 -158Q92 -147 92 -60V511H162V-32Q162 -102 134 -146Q93 -208 2 -213Z" />
<glyph unicode="k" glyph-name="k" horiz-adv-x="511" d="M486 0H409L245 324L160 233V0H90V688L160 722V316L341 511H422L294 375L486 0Z" />
<glyph unicode="l" glyph-name="l" horiz-adv-x="260" d="M95 0V688L165 722V0H95Z" />
<glyph unicode="m" glyph-name="m" horiz-adv-x="843" d="M688 0V313Q688 460 577 460Q522 460 491 418T459 313V0H389V313Q389 460 278 460Q221 460 191 422T160 321V0H90V511H160V461Q213 523 299 523Q340 523 378 502T437 445Q459 479 497 501T583 523Q659
523 708 473T758 340V0H688Z" />
<glyph unicode="n" glyph-name="n" horiz-adv-x="560" d="M405 0V312Q405 389 373 424T286 460Q160 460 160 314V0H90V511H160V455Q207 523 292 523Q386 523 430 466T475 283V0H405Z" />
<glyph unicode="o" glyph-name="o" horiz-adv-x="548" d="M274 -12Q174 -12 115 58T55 255Q55 380 115 451T274 523Q374 523 433 453T493 256Q493 131 433 60T274 -12ZM274 51Q343 51 381 105T420 256T383 406T274 460T166 408T128 255Q128 159 165 105T274 51Z" />
<glyph unicode="p" glyph-name="p" horiz-adv-x="566" d="M300 -12Q215 -12 160 52V-168L90 -203V511H160V465Q224 523 300 523Q398 523 454 451T511 256Q511 130 453 59T300 -12ZM292 51Q362 51 400 104T438 256Q438 350 399 405T292 460Q251 460 216 439T160
381V130Q221 51 292 51Z" />
<glyph unicode="q" glyph-name="q" horiz-adv-x="564" d="M268 -12Q169 -12 112 58T55 255Q55 377 110 450T261 523Q331 523 404 465V511H474V-168L404 -200V52Q347 -12 268 -12ZM271 51Q301 51 329 66T371 95T404 132V381Q359 460 271 460Q205 460 167 402T128
255Q128 156 164 104T271 51Z" />
<glyph unicode="r" glyph-name="r" horiz-adv-x="381" d="M90 0V511H160V439Q199 523 289 523Q332 523 361 502L350 434Q319 453 284 453Q237 453 199 414T160 289V0H90Z" />
<glyph unicode="s" glyph-name="s" horiz-adv-x="463" d="M234 -12Q133 -12 58 77L107 120Q166 50 240 50Q284 50 312 69T340 124Q340 146 330 163T299 195T260 218T213 238Q177 253 154 265T107 295T72 337T60 393Q60 451 106 487T225 523Q326 523 391 445L345
406Q290 461 223 461Q179 461 153 443T126 394Q126 379 133 366T149 345T177 326T207 311T243 296Q273 284 290 277T332 254T371 223T395 183T406 128Q406 64 360 26T234 -12Z" />
<glyph unicode="t" glyph-name="t" horiz-adv-x="369" d="M218 -12Q117 -12 117 105V448H30V511H117V687L187 722V511H317V448H187V135Q187 96 198 75T242 54T319 84L311 11Q268 -12 218 -12Z" />
<glyph unicode="u" glyph-name="u" horiz-adv-x="560" d="M400 0V49Q374 15 345 2T273 -12Q174 -12 130 44T85 226V511H155V199Q155 123 187 87T273 51Q400 51 400 197V511H470V0H400Z" />
<glyph unicode="v" glyph-name="v" horiz-adv-x="503" d="M227 0L40 511H112L236 163Q238 157 241 147T248 127T254 109Q257 118 260 127T266 146T272 163L393 511H463L276 0H227Z" />
<glyph unicode="w" glyph-name="w" horiz-adv-x="704" d="M166 0L40 511H110L194 143L206 87Q209 98 214 117T221 143L328 511H376L483 143Q486 132 492 111T500 82Q502 93 506 113T513 143L594 511H664L538 0H475L373 309Q372 312 364 337T351 378Q346 363 330
310L230 0H166Z" />
<glyph unicode="x" glyph-name="x" horiz-adv-x="502" d="M40 0L213 265L52 511H128L218 373Q233 351 251 321Q269 351 284 373L374 511H450L289 265L462 0H386L283 158L251 209Q234 181 219 158L116 0H40Z" />
<glyph unicode="y" glyph-name="y" horiz-adv-x="521" d="M151 -194L227 16L40 511H111L240 148Q243 138 249 120T257 96L275 148L406 511H481L220 -194H151Z" />
<glyph unicode="z" glyph-name="z" horiz-adv-x="499" d="M70 0V43L331 448H90V511H424V469L161 63H423V0H70Z" />
<glyph unicode="{" glyph-name="braceleft" horiz-adv-x="378" d="M333 -130Q246 -128 196 -69T145 101V152Q145 201 124 232T69 263H65V320H69Q103 320 124 350T145 431V481Q145 592 195 651T333 712V653Q217 649 217 500V444Q217 361 191 330T108 291Q165 287
191 256T217 138V82Q217 -67 333 -71V-130Z" />
<glyph unicode="|" glyph-name="bar" horiz-adv-x="270" d="M100 -378V1062H170V-378H100Z" />
<glyph unicode="}" glyph-name="braceright" horiz-adv-x="378" d="M45 -130V-71Q161 -67 161 82V138Q161 225 187 256T270 291Q214 298 188 329T161 444V500Q161 649 45 653V712Q132 710 182 651T233 481V431Q233 381 254 351T309 320H313V263H309Q275 263 254
232T233 152V101Q233 -10 183 -69T45 -130Z" />
<glyph unicode="~" glyph-name="asciitilde" horiz-adv-x="660" d="M439 277Q396 277 322 308T215 340Q182 340 161 323T137 277H97Q97 333 127 370T221 407Q266 407 341 376T445 344Q478 344 499 361T523 407H563Q563 351 533 314T439 277Z" />
<glyph unicode="&#xa0;" glyph-name="uni00A0" horiz-adv-x="230" />
<glyph unicode="&#xa1;" glyph-name="exclamdown" horiz-adv-x="265" d="M161 397T135 397T91 416T72 460T90 504T135 523T179 504T198 460T180 416ZM169 -200H97V14L128 316H139L169 14V-200Z" />
<glyph unicode="&#xa2;" glyph-name="cent" horiz-adv-x="511" d="M230 -12V85Q153 101 109 170T65 350Q65 460 108 527T230 612V712H299V615Q408 606 443 508L375 482Q350 548 280 548Q209 548 174 497T138 350Q138 254 173 203T275 151Q313 151 341 171T379
228L446 204Q413 92 299 83V-12H230Z" />
<glyph unicode="&#xa3;" glyph-name="sterling" horiz-adv-x="604" d="M95 0V79Q144 101 165 162T187 286V300H90V357H171Q168 362 158 381T144 409T134 436T125 474T122 519Q122 600 180 656T347 712Q462 712 545 647L518 583Q443 645 347 645Q274 645 236 607T198
518Q198 485 209 454T233 397T250 357H414V300H263V289Q263 161 157 65H559V0H95Z" />
<glyph unicode="&#xa4;" glyph-name="currency" horiz-adv-x="635" d="M317 86Q227 86 169 132L104 66L51 120L119 188Q82 244 82 333Q82 419 118 479L51 546L101 598L167 533Q232 581 317 581Q403 581 466 534L531 598L584 543L519 478Q554 417 554 333Q554 245
515 185L584 117L534 66L467 133Q408 86 317 86ZM317 153Q391 153 437 203T483 333Q483 411 437 462T317 514Q244 514 199 463T153 333Q153 254 198 204T317 153Z" />
<glyph unicode="&#xa5;" glyph-name="yen" horiz-adv-x="558" d="M311 309H466V249H314V183H466V123H314V0H244V123H80V183H244V249H80V309H246L30 700H108L278 376L456 700H528L311 309Z" />
<glyph unicode="&#xa6;" glyph-name="brokenbar" horiz-adv-x="270" d="M100 366V825H170V366H100ZM100 -225V234H170V-225H100Z" />
<glyph unicode="&#xa7;" glyph-name="section" horiz-adv-x="543" d="M275 -120Q204 -120 148 -95T65 -34L118 13Q172 -52 272 -52Q405 -52 405 38Q405 61 394 80T358 113T315 137T264 158T219 176Q181 192 163 201T121 228T87 268T77 321Q77 360 98 388T152 429Q77
471 77 568Q77 635 132 673T268 712Q393 712 458 633L404 590Q354 642 268 642Q152 642 152 563Q152 546 161 531T183 506T221 483T265 464T320 443Q359 428 380 418T428 388T466 343T478 279Q478 202 415 173Q478 127 478 41Q478 -36 424 -78T275 -120ZM350 204Q405
227 405 276Q405 298 394 315T353 347T304 371T236 395Q197 389 175 370T152 321Q152 303 162 289T196 262T239 243T295 223T350 204Z" />
<glyph unicode="&#xa8;" glyph-name="dieresis" horiz-adv-x="335" d="M106 606T86 606T53 620T39 653Q39 673 52 686T86 700T119 687T133 653T120 620ZM272 606T252 606T219 620T205 653Q205 673 218 686T252 700T285 687T299 653T286 620Z" />
<glyph unicode="&#xa9;" glyph-name="copyright" horiz-adv-x="874" d="M591 -12T437 -12T179 92T75 350T179 608T437 712T695 608T799 350T695 92ZM306 42T437 42T654 130T740 350T654 569T437 657T219 569T132 350Q132 218 219 130ZM443 138Q357 138 309 194T261
355Q261 456 311 514T451 573Q559 573 599 463L536 437Q512 508 442 508Q379 508 354 470T329 355Q329 275 354 238T445 201Q529 201 545 282L602 259Q586 201 544 170T443 138Z" />
<glyph unicode="&#xaa;" glyph-name="ordfeminine" horiz-adv-x="462" d="M324 283V313Q302 297 268 285T204 273Q134 273 92 310T50 416Q50 482 100 519T216 556Q271 556 324 533V547Q324 605 301 627T223 650Q153 650 107 614L89 673Q140 712 233 712Q265 712
289 707T338 688T378 640T392 557V283H324ZM212 332Q240 332 272 346T324 378V470Q275 496 223 496Q181 496 152 476T122 416Q122 377 146 355T212 332Z" />
<glyph unicode="&#xab;" glyph-name="guillemotleft" horiz-adv-x="506" d="M197 0L45 256L197 511H275L123 256L275 0H197ZM396 0L244 256L396 511H476L324 256L476 0H396Z" />
<glyph unicode="&#xac;" glyph-name="logicalnot" horiz-adv-x="660" d="M493 176V396H95V463H565V176H493Z" />
<glyph unicode="&#xad;" glyph-name="uni00AD" horiz-adv-x="403" d="M90 264V332H313V264H90Z" />
<glyph unicode="&#xae;" glyph-name="registered" horiz-adv-x="874" d="M591 -12T437 -12T179 92T75 350T179 608T437 712T695 608T799 350T695 92ZM306 42T437 42T654 130T740 350T654 569T437 657T219 569T132 350Q132 218 219 130ZM285 137V560H492Q549 560
578 522T608 438T580 355T503 310L605 137H533L438 309H350V137H285ZM350 365H494Q517 365 531 385T545 436Q545 460 532 480T494 500H350V365Z" />
<glyph unicode="&#xaf;" glyph-name="overscore" horiz-adv-x="335" d="M2 609V670H332V609H2Z" />
<glyph unicode="&#xb0;" glyph-name="degree" horiz-adv-x="418" d="M210 450Q138 450 89 498T40 617T89 735T210 783Q281 783 329 736T378 617T330 498T210 450ZM170 519T210 519T276 547T303 617Q303 661 277 688T210 716Q170 716 142 688T114 617Q114 575 142 547Z" />
<glyph unicode="&#xb1;" glyph-name="plusminus" horiz-adv-x="660" d="M365 373V205H293V373H95V440H293V608H365V440H565V373H365ZM95 0V67H565V0H95Z" />
<glyph unicode="&#xb2;" glyph-name="uni00B2" horiz-adv-x="370" d="M40 444Q40 475 48 501T65 544T99 582T137 614T187 648Q222 671 238 694T255 754Q255 779 235 800T176 822Q107 822 92 752L41 773Q52 818 89 845T184 873T279 840T317 749Q317 697 290 663T200
590Q159 565 137 544T105 497H316V444H40Z" />
<glyph unicode="&#xb3;" glyph-name="uni00B3" horiz-adv-x="367" d="M186 434Q76 434 34 537L89 560Q121 484 186 484Q223 484 244 504T265 557Q265 587 246 610T195 634H161V684H183Q216 684 232 704T248 754Q248 782 231 802T180 823Q153 823 131 805T95 759L42
777Q59 819 97 846T184 873Q241 873 276 843T312 760Q312 732 297 706T255 668Q289 657 309 630T329 565Q329 504 290 469T186 434Z" />
<glyph unicode="&#xb4;" glyph-name="acute" horiz-adv-x="335" d="M68 576L210 732H317L139 576H68Z" />
<glyph unicode="&#xb5;" glyph-name="uni00B5" horiz-adv-x="565" d="M405 0V51Q343 -12 265 -12Q228 -12 204 1T160 49V-166L90 -200V511H160V199Q160 111 188 81T279 51Q405 51 405 197V511H475V0H405Z" />
<glyph unicode="&#xb6;" glyph-name="paragraph" horiz-adv-x="633" d="M294 -200V278Q224 278 172 297T91 348T49 416T35 491Q35 532 47 568T84 634T155 682T263 700H538V-102L467 -134V630H365V-168L294 -200Z" />
<glyph unicode="&#xb7;" glyph-name="middot" horiz-adv-x="226" d="M139 286T113 286T69 305T50 349T68 393T113 412T157 393T176 349T158 305Z" />
<glyph unicode="&#xb8;" glyph-name="cedilla" horiz-adv-x="335" d="M173 -234Q118 -234 85 -206L131 -176Q139 -186 167 -186Q188 -186 204 -171T220 -135Q220 -116 201 -102T159 -87Q134 -87 123 -92L111 -77L179 10H220L181 -55Q235 -55 260 -79T286 -136Q286
-179 254 -206T173 -234Z" />
<glyph unicode="&#xb9;" glyph-name="uni00B9" horiz-adv-x="200" d="M72 444V768H25V811Q74 811 91 866H132V444H72Z" />
<glyph unicode="&#xba;" glyph-name="ordmasculine" horiz-adv-x="469" d="M234 272Q147 272 96 330T45 492Q45 595 96 653T234 712Q322 712 373 654T424 492Q424 388 373 330T234 272ZM234 337Q354 337 354 492T234 647Q179 647 147 607T115 492T147 378T234 337Z" />
<glyph unicode="&#xbb;" glyph-name="guillemotright" horiz-adv-x="506" d="M30 0L182 256L30 511H108L260 256L108 0H30ZM229 0L381 256L229 511H309L461 256L309 0H229Z" />
<glyph unicode="&#xbc;" glyph-name="onequarter" horiz-adv-x="674" d="M14 -12L492 712H561L83 -12H14ZM82 283V607H35V650Q84 650 101 705H143V283H82ZM522 0V108H312V138L536 423H583V163H635V108H583V0H522ZM522 163V335L393 163H522Z" />
<glyph unicode="&#xbd;" glyph-name="onehalf" horiz-adv-x="723" d="M14 -12L492 712H561L83 -12H14ZM82 283V607H35V650Q84 650 101 705H143V283H82ZM393 0Q393 31 401 57T418 100T452 138T490 170T540 204Q575 227 591 250T608 310Q608 335 588 357T529 379Q460
379 445 308L394 329Q405 374 442 401T537 429T632 396T670 305Q670 253 643 219T553 146Q511 120 490 101T458 55H669V0H393Z" />
<glyph unicode="&#xbe;" glyph-name="threequarters" horiz-adv-x="818" d="M186 271Q76 271 34 374L89 397Q121 321 186 321Q223 321 244 341T265 395Q265 426 246 449T195 473H161V523H183Q216 523 232 543T248 593Q248 621 231 641T180 662Q153 662 131 644T95
598L42 616Q59 658 97 685T184 712Q241 712 276 682T312 599Q312 571 297 545T255 507Q288 496 308 469T329 403Q329 342 290 307T186 271ZM157 -12L635 712H704L226 -12H157ZM665 0V108H455V138L679 423H726V163H778V108H726V0H665ZM665 163V335L536 163H665Z"
/>
<glyph unicode="&#xbf;" glyph-name="questiondown" horiz-adv-x="526" d="M276 398Q249 398 232 416T214 459T232 503T276 523T322 503T342 459Q342 434 322 416T276 398ZM259 -200Q160 -200 105 -147T50 -9Q50 36 69 70T116 129T171 177T218 238T238 320V342H309V320Q309
266 290 226T243 162T188 117T141 64T121 -9Q121 -66 157 -101T259 -137Q334 -137 376 -95T419 22H491Q491 -78 427 -139T259 -200Z" />
<glyph unicode="&#xc0;" glyph-name="Agrave" horiz-adv-x="662" d="M361 765L183 921H290L432 765H361ZM531 0L467 181H194L133 0H60L303 700H357L602 0H531ZM446 243L350 523Q334 568 330 586L322 560Q315 533 311 523L215 243H446Z" />
<glyph unicode="&#xc1;" glyph-name="Aacute" horiz-adv-x="662" d="M250 765L392 921H499L321 765H250ZM531 0L467 181H194L133 0H60L303 700H357L602 0H531ZM446 243L350 523Q334 568 330 586L322 560Q315 533 311 523L215 243H446Z" />
<glyph unicode="&#xc2;" glyph-name="Acircumflex" horiz-adv-x="662" d="M447 765L331 866L215 765H150L301 921H361L512 765H447ZM531 0L467 181H194L133 0H60L303 700H357L602 0H531ZM446 243L350 523Q334 568 330 586L322 560Q315 533 311 523L215 243H446Z" />
<glyph unicode="&#xc3;" glyph-name="Atilde" horiz-adv-x="662" d="M409 791Q371 791 319 816T244 841Q225 841 212 829T197 795H158Q158 905 251 905Q289 905 341 880T416 854Q435 854 448 866T463 901H501Q501 791 409 791ZM531 0L467 181H194L133 0H60L303
700H357L602 0H531ZM446 243L350 523Q334 568 330 586L322 560Q315 533 311 523L215 243H446Z" />
<glyph unicode="&#xc4;" glyph-name="Adieresis" horiz-adv-x="662" d="M268 795T248 795T215 808T201 842T214 875T248 889T281 876T295 842T282 809ZM434 795T414 795T381 808T367 842T380 875T414 889T447 876T461 842T448 809ZM531 0L467 181H194L133 0H60L303
700H357L602 0H531ZM446 243L350 523Q334 568 330 586L322 560Q315 533 311 523L215 243H446Z" />
<glyph unicode="&#xc5;" glyph-name="Aring" horiz-adv-x="662" d="M60 0L284 645Q255 659 237 686T219 748Q219 794 252 826T333 859T414 827T448 748Q448 714 428 686T377 643L602 0H531L467 181H194L133 0H60ZM333 687Q357 687 373 704T389 748Q389 773 373
790T333 807Q310 807 294 790T278 748T294 705T333 687ZM215 243H446L350 523Q334 568 330 586L322 560Q315 533 311 523L215 243Z" />
<glyph unicode="&#xc6;" glyph-name="AE" horiz-adv-x="859" d="M-16 0L391 700H767V633H495V395H680V329H495V67H789V0H425V181H166L63 0H-16ZM201 243H425V642Q419 630 394 585L201 243Z" />
<glyph unicode="&#xc7;" glyph-name="Ccedilla" horiz-adv-x="644" d="M344 -234Q289 -234 256 -206L302 -176Q310 -186 338 -186Q359 -186 375 -171T391 -135Q391 -116 372 -102T330 -87Q305 -87 294 -92L282 -77L334 -11Q266 -6 214 26T131 109T85 221T70 350Q70
450 99 529T196 660T360 712Q446 712 494 682T574 599L512 563Q484 604 450 627T360 650Q303 650 259 623T191 552T155 456T143 350Q143 269 164 204T236 95T360 51Q468 51 522 140L584 116Q558 64 507 29T378 -11L352 -55Q406 -55 431 -79T457 -136Q457 -179 425
-206T344 -234Z" />
<glyph unicode="&#xc8;" glyph-name="Egrave" horiz-adv-x="596" d="M297 765L119 921H226L368 765H297ZM105 0V700H504V633H175V395H397V329H175V67H526V0H105Z" />
<glyph unicode="&#xc9;" glyph-name="Eacute" horiz-adv-x="596" d="M202 765L344 921H451L273 765H202ZM105 0V700H504V633H175V395H397V329H175V67H526V0H105Z" />
<glyph unicode="&#xca;" glyph-name="Ecircumflex" horiz-adv-x="596" d="M421 765L305 866L189 765H124L275 921H335L486 765H421ZM105 0V700H504V633H175V395H397V329H175V67H526V0H105Z" />
<glyph unicode="&#xcb;" glyph-name="Edieresis" horiz-adv-x="596" d="M240 795T220 795T187 808T173 842T186 875T220 889T253 876T267 842T254 809ZM406 795T386 795T353 808T339 842T352 875T386 889T419 876T433 842T420 809ZM105 0V700H504V633H175V395H397V329H175V67H526V0H105Z"
/>
<glyph unicode="&#xcc;" glyph-name="Igrave" horiz-adv-x="280" d="M155 765L-23 921H84L226 765H155ZM105 0V700H175V0H105Z" />
<glyph unicode="&#xcd;" glyph-name="Iacute" horiz-adv-x="280" d="M39 765L181 921H288L110 765H39ZM105 0V700H175V0H105Z" />
<glyph unicode="&#xce;" glyph-name="Icircumflex" horiz-adv-x="280" d="M256 765L140 866L24 765H-41L110 921H170L321 765H256ZM105 0V700H175V0H105Z" />
<glyph unicode="&#xcf;" glyph-name="Idieresis" horiz-adv-x="280" d="M57 795Q38 795 24 808T10 842T23 875T57 889T90 876T104 842T91 809T57 795ZM223 795Q204 795 190 808T176 842T189 875T223 889T256 876T270 842T257 809T223 795ZM105 0V700H175V0H105Z" />
<glyph unicode="&#xd0;" glyph-name="Eth" horiz-adv-x="678" d="M105 318H35V380H105V700H291Q376 700 440 670T539 589T591 478T608 350Q608 299 599 252T567 158T509 77T417 21T287 0H105V318ZM292 63Q359 63 408 88T484 156T523 247T535 350Q535 470 477 553T303
637H175V380H330V318H175V63H292Z" />
<glyph unicode="&#xd1;" glyph-name="Ntilde" horiz-adv-x="705" d="M431 791Q393 791 341 816T266 841Q247 841 234 829T219 795H180Q180 905 273 905Q311 905 363 880T438 854Q457 854 470 866T485 901H523Q523 791 431 791ZM600 0H529L203 524Q178 566 175
571V524V0H105V700H176L501 170Q517 144 530 121V170V700H600V0Z" />
<glyph unicode="&#xd2;" glyph-name="Ograve" horiz-adv-x="720" d="M388 766L210 922H317L459 766H388ZM438 -12T360 -12T224 19T134 104T86 219T70 350T85 480T133 595T224 680T360 712T496 681T586 596T634 481T650 350T635 220T587 105T496 20ZM360 51Q418
51 461 77T529 148T565 244T577 350Q577 431 558 495T488 604T360 649Q302 649 259 623T191 552T155 456T143 350Q143 269 162 205T232 96T360 51Z" />
<glyph unicode="&#xd3;" glyph-name="Oacute" horiz-adv-x="720" d="M259 765L401 921H508L330 765H259ZM438 -12T360 -12T224 19T134 104T86 219T70 350T85 480T133 595T224 680T360 712T496 681T586 596T634 481T650 350T635 220T587 105T496 20ZM360 51Q418
51 461 77T529 148T565 244T577 350Q577 431 558 495T488 604T360 649Q302 649 259 623T191 552T155 456T143 350Q143 269 162 205T232 96T360 51Z" />
<glyph unicode="&#xd4;" glyph-name="Ocircumflex" horiz-adv-x="720" d="M476 765L360 866L244 765H179L330 921H390L541 765H476ZM438 -12T360 -12T224 19T134 104T86 219T70 350T85 480T133 595T224 680T360 712T496 681T586 596T634 481T650 350T635 220T587
105T496 20ZM360 51Q418 51 461 77T529 148T565 244T577 350Q577 431 558 495T488 604T360 649Q302 649 259 623T191 552T155 456T143 350Q143 269 162 205T232 96T360 51Z" />
<glyph unicode="&#xd5;" glyph-name="Otilde" horiz-adv-x="720" d="M438 791Q400 791 348 816T273 841Q254 841 241 829T226 795H187Q187 905 280 905Q318 905 370 880T445 854Q464 854 477 866T492 901H530Q530 791 438 791ZM438 -12T360 -12T224 19T134 104T86
219T70 350T85 480T133 595T224 680T360 712T496 681T586 596T634 481T650 350T635 220T587 105T496 20ZM360 51Q418 51 461 77T529 148T565 244T577 350Q577 431 558 495T488 604T360 649Q302 649 259 623T191 552T155 456T143 350Q143 269 162 205T232 96T360
51Z" />
<glyph unicode="&#xd6;" glyph-name="Odieresis" horiz-adv-x="720" d="M277 795Q258 795 244 808T230 842T243 875T277 889T310 876T324 842T311 809T277 795ZM443 795Q424 795 410 808T396 842T409 875T443 889T476 876T490 842T477 809T443 795ZM438 -12T360
-12T224 19T134 104T86 219T70 350T85 480T133 595T224 680T360 712T496 681T586 596T634 481T650 350T635 220T587 105T496 20ZM360 51Q418 51 461 77T529 148T565 244T577 350Q577 431 558 495T488 604T360 649Q302 649 259 623T191 552T155 456T143 350Q143
269 162 205T232 96T360 51Z" />
<glyph unicode="&#xd7;" glyph-name="multiply" horiz-adv-x="660" d="M331 293L160 121L108 171L282 344L109 514L158 562L329 391L500 563L550 512L378 342L549 169L502 122L331 293Z" />
<glyph unicode="&#xd8;" glyph-name="Oslash" horiz-adv-x="720" d="M82 -12L147 86Q70 184 70 350Q70 419 85 480T133 595T224 680T360 712Q459 712 528 658L564 712H638L573 614Q650 516 650 350Q650 281 635 220T587 105T496 20T360 -12Q260 -12 190 42L154
-12H82ZM188 148L491 602Q438 649 360 649Q302 649 259 623T191 552T155 456T143 350Q143 225 188 148ZM360 51Q418 51 461 77T529 148T565 244T577 350Q577 475 531 552L228 98Q280 51 360 51Z" />
<glyph unicode="&#xd9;" glyph-name="Ugrave" horiz-adv-x="680" d="M355 765L177 921H284L426 765H355ZM580 -12T340 -12T100 260V700H170V260Q170 51 340 51T510 260V700H580V260Q580 -12 340 -12Z" />
<glyph unicode="&#xda;" glyph-name="Uacute" horiz-adv-x="680" d="M249 765L391 921H498L320 765H249ZM580 -12T340 -12T100 260V700H170V260Q170 51 340 51T510 260V700H580V260Q580 -12 340 -12Z" />
<glyph unicode="&#xdb;" glyph-name="Ucircumflex" horiz-adv-x="680" d="M456 765L340 866L224 765H159L310 921H370L521 765H456ZM580 -12T340 -12T100 260V700H170V260Q170 51 340 51T510 260V700H580V260Q580 -12 340 -12Z" />
<glyph unicode="&#xdc;" glyph-name="Udieresis" horiz-adv-x="680" d="M257 795Q238 795 224 808T210 842T223 875T257 889T290 876T304 842T291 809T257 795ZM423 795Q404 795 390 808T376 842T389 875T423 889T456 876T470 842T457 809T423 795ZM580 -12T340
-12T100 260V700H170V260Q170 51 340 51T510 260V700H580V260Q580 -12 340 -12Z" />
<glyph unicode="&#xdd;" glyph-name="Yacute" horiz-adv-x="616" d="M216 765L358 921H465L287 765H216ZM274 0V275L45 700H122L308 340L499 700H571L344 278V0H274Z" />
<glyph unicode="&#xde;" glyph-name="Thorn" horiz-adv-x="622" d="M105 0V700H175V561H361Q477 561 529 502T582 355Q582 318 570 284T533 218T464 169T361 150H175V0H105ZM367 213Q443 213 479 255T515 355Q515 410 481 454T367 498H175V213H367Z" />
<glyph unicode="&#xdf;" glyph-name="germandbls" horiz-adv-x="566" d="M80 -203V478Q80 597 138 654T277 712Q365 712 420 662T475 529Q475 479 451 440T380 385Q443 363 477 317T511 209Q511 110 452 49T301 -12Q256 -12 222 4L255 58Q274 51 303 51Q356 51
397 90T438 205Q438 266 399 307T275 348H271V411H275Q402 411 402 526Q402 584 371 616T278 649Q222 649 186 608T150 481V-167L80 -203Z" />
<glyph unicode="&#xe0;" glyph-name="agrave" horiz-adv-x="519" d="M289 576L111 732H218L360 576H289ZM384 0V50Q315 -12 234 -12Q154 -12 107 32T60 161Q60 244 113 287T246 330Q317 330 384 294V337Q384 462 272 462Q200 462 120 407L100 467Q188 523 279
523Q310 523 337 516T390 490T433 435T449 346V0H384ZM241 49Q320 49 384 128V227Q321 269 253 269Q198 269 162 242T125 161Q125 110 155 80T241 49Z" />
<glyph unicode="&#xe1;" glyph-name="aacute" horiz-adv-x="519" d="M179 576L321 732H428L250 576H179ZM384 0V50Q315 -12 234 -12Q154 -12 107 32T60 161Q60 244 113 287T246 330Q317 330 384 294V337Q384 462 272 462Q200 462 120 407L100 467Q188 523 279
523Q310 523 337 516T390 490T433 435T449 346V0H384ZM241 49Q320 49 384 128V227Q321 269 253 269Q198 269 162 242T125 161Q125 110 155 80T241 49Z" />
<glyph unicode="&#xe2;" glyph-name="acircumflex" horiz-adv-x="519" d="M396 576L280 677L164 576H99L250 732H310L461 576H396ZM384 0V50Q315 -12 234 -12Q154 -12 107 32T60 161Q60 244 113 287T246 330Q317 330 384 294V337Q384 462 272 462Q200 462 120
407L100 467Q188 523 279 523Q310 523 337 516T390 490T433 435T449 346V0H384ZM241 49Q320 49 384 128V227Q321 269 253 269Q198 269 162 242T125 161Q125 110 155 80T241 49Z" />
<glyph unicode="&#xe3;" glyph-name="atilde" horiz-adv-x="519" d="M358 602Q320 602 268 627T193 652Q174 652 161 640T146 606H107Q107 716 200 716Q238 716 290 691T365 665Q384 665 397 677T412 712H450Q450 602 358 602ZM384 0V50Q315 -12 234 -12Q154 -12
107 32T60 161Q60 244 113 287T246 330Q317 330 384 294V337Q384 462 272 462Q200 462 120 407L100 467Q188 523 279 523Q310 523 337 516T390 490T433 435T449 346V0H384ZM241 49Q320 49 384 128V227Q321 269 253 269Q198 269 162 242T125 161Q125 110 155 80T241
49Z" />
<glyph unicode="&#xe4;" glyph-name="adieresis" horiz-adv-x="519" d="M197 606Q178 606 164 620T150 653Q150 673 163 686T197 700T230 687T244 653T231 620T197 606ZM363 606Q344 606 330 620T316 653Q316 673 329 686T363 700T396 687T410 653T397 620T363
606ZM384 0V50Q315 -12 234 -12Q154 -12 107 32T60 161Q60 244 113 287T246 330Q317 330 384 294V337Q384 462 272 462Q200 462 120 407L100 467Q188 523 279 523Q310 523 337 516T390 490T433 435T449 346V0H384ZM241 49Q320 49 384 128V227Q321 269 253 269Q198
269 162 242T125 161Q125 110 155 80T241 49Z" />
<glyph unicode="&#xe5;" glyph-name="aring" horiz-adv-x="519" d="M327 575T280 575T199 609T165 689T199 767T280 800T361 768T395 689T361 609ZM280 627Q304 627 320 644T336 689T320 732T280 748Q257 748 241 732T224 689Q224 662 240 645T280 627ZM384 0V50Q315
-12 234 -12Q154 -12 107 32T60 161Q60 244 113 287T246 330Q317 330 384 294V337Q384 462 272 462Q200 462 120 407L100 467Q188 523 279 523Q310 523 337 516T390 490T433 435T449 346V0H384ZM241 49Q320 49 384 128V227Q321 269 253 269Q198 269 162 242T125
161Q125 110 155 80T241 49Z" />
<glyph unicode="&#xe6;" glyph-name="ae" horiz-adv-x="856" d="M234 -12Q154 -12 107 32T60 161Q60 244 113 287T246 330Q317 330 384 294V337Q384 462 272 462Q200 462 120 407L100 467Q188 523 279 523Q394 523 431 437Q493 523 603 523Q695 523 750 459T806
276Q806 249 804 227H456Q466 144 505 99T606 53Q668 53 722 93L760 46Q688 -12 603 -12Q542 -12 495 19T422 97Q388 43 336 16T234 -12ZM454 290H735Q735 339 723 374T689 427T647 452T604 460Q540 460 499 417T454 290ZM241 49Q288 49 331 78T399 150Q387 184
384 227Q318 269 253 269Q198 269 162 242T125 161Q125 110 155 80T241 49Z" />
<glyph unicode="&#xe7;" glyph-name="ccedilla" horiz-adv-x="481" d="M254 -234Q199 -234 166 -206L212 -176Q220 -186 248 -186Q269 -186 285 -171T302 -135Q302 -116 283 -102T240 -87Q215 -87 204 -92L192 -77L243 -11Q156 -6 106 63T55 255Q55 381 111 452T265
523Q322 523 365 495T429 416L365 391Q337 460 262 460Q128 460 128 255Q128 51 260 51Q301 51 330 72T373 129L436 105Q420 58 382 28T289 -10L262 -55Q316 -55 340 -78T365 -136Q365 -179 334 -206T254 -234Z" />
<glyph unicode="&#xe8;" glyph-name="egrave" horiz-adv-x="529" d="M307 576L129 732H236L378 576H307ZM277 -12Q177 -12 116 66T55 256Q55 381 116 452T277 523Q365 523 422 461T479 276Q479 249 477 227H129Q138 147 177 100T280 53Q341 53 395 93L433 46Q363
-12 277 -12ZM127 290H408Q407 383 368 421T277 460Q213 460 172 417T127 290Z" />
<glyph unicode="&#xe9;" glyph-name="eacute" horiz-adv-x="529" d="M176 576L318 732H425L247 576H176ZM277 -12Q177 -12 116 66T55 256Q55 381 116 452T277 523Q365 523 422 461T479 276Q479 249 477 227H129Q138 147 177 100T280 53Q341 53 395 93L433 46Q363
-12 277 -12ZM127 290H408Q407 383 368 421T277 460Q213 460 172 417T127 290Z" />
<glyph unicode="&#xea;" glyph-name="ecircumflex" horiz-adv-x="529" d="M393 576L277 677L161 576H96L247 732H307L458 576H393ZM277 -12Q177 -12 116 66T55 256Q55 381 116 452T277 523Q365 523 422 461T479 276Q479 249 477 227H129Q138 147 177 100T280 53Q341
53 395 93L433 46Q363 -12 277 -12ZM127 290H408Q407 383 368 421T277 460Q213 460 172 417T127 290Z" />
<glyph unicode="&#xeb;" glyph-name="edieresis" horiz-adv-x="529" d="M214 606T194 606T161 620T147 653Q147 673 160 686T194 700T227 687T241 653T228 620ZM380 606T360 606T327 620T313 653Q313 673 326 686T360 700T393 687T407 653T394 620ZM277 -12Q177
-12 116 66T55 256Q55 381 116 452T277 523Q365 523 422 461T479 276Q479 249 477 227H129Q138 147 177 100T280 53Q341 53 395 93L433 46Q363 -12 277 -12ZM127 290H408Q407 383 368 421T277 460Q213 460 172 417T127 290Z" />
<glyph unicode="&#xec;" glyph-name="igrave" horiz-adv-x="252" d="M148 576L-30 732H77L219 576H148ZM91 0V511H161V0H91Z" />
<glyph unicode="&#xed;" glyph-name="iacute" horiz-adv-x="252" d="M33 576L175 732H282L104 576H33ZM91 0V511H161V0H91Z" />
<glyph unicode="&#xee;" glyph-name="icircumflex" horiz-adv-x="252" d="M242 576L126 677L10 576H-55L96 732H156L307 576H242ZM91 0V511H161V0H91Z" />
<glyph unicode="&#xef;" glyph-name="idieresis" horiz-adv-x="252" d="M43 606Q24 606 10 620T-4 653Q-4 673 9 686T43 700T76 687T90 653T77 620T43 606ZM209 606Q190 606 176 620T162 653Q162 673 175 686T209 700T242 687T256 653T243 620T209 606ZM91 0V511H161V0H91Z"
/>
<glyph unicode="&#xf0;" glyph-name="eth" horiz-adv-x="548" d="M274 -12Q175 -12 115 53T55 221Q55 326 117 391T274 456Q376 456 422 369Q403 517 300 596L234 526L201 560L259 623Q203 653 134 659V712Q228 704 298 665L355 727L390 692L339 638Q493 519 493
269Q493 136 436 62T274 -12ZM274 51Q335 51 377 99T420 220Q420 293 379 343T274 393Q213 393 171 344T128 221Q128 149 171 100T274 51Z" />
<glyph unicode="&#xf1;" glyph-name="ntilde" horiz-adv-x="560" d="M364 602Q326 602 274 627T199 652Q180 652 167 640T152 606H113Q113 716 206 716Q244 716 296 691T371 665Q390 665 403 677T418 712H456Q456 602 364 602ZM405 0V312Q405 389 373 424T286
460Q160 460 160 314V0H90V511H160V455Q207 523 292 523Q386 523 430 466T475 283V0H405Z" />
<glyph unicode="&#xf2;" glyph-name="ograve" horiz-adv-x="548" d="M304 576L126 732H233L375 576H304ZM274 -12Q174 -12 115 58T55 255Q55 380 115 451T274 523Q374 523 433 453T493 256Q493 131 433 60T274 -12ZM274 51Q343 51 381 105T420 256T383 406T274
460T166 408T128 255Q128 159 165 105T274 51Z" />
<glyph unicode="&#xf3;" glyph-name="oacute" horiz-adv-x="548" d="M173 576L315 732H422L244 576H173ZM274 -12Q174 -12 115 58T55 255Q55 380 115 451T274 523Q374 523 433 453T493 256Q493 131 433 60T274 -12ZM274 51Q343 51 381 105T420 256T383 406T274
460T166 408T128 255Q128 159 165 105T274 51Z" />
<glyph unicode="&#xf4;" glyph-name="ocircumflex" horiz-adv-x="548" d="M390 576L274 677L158 576H93L244 732H304L455 576H390ZM274 -12Q174 -12 115 58T55 255Q55 380 115 451T274 523Q374 523 433 453T493 256Q493 131 433 60T274 -12ZM274 51Q343 51 381
105T420 256T383 406T274 460T166 408T128 255Q128 159 165 105T274 51Z" />
<glyph unicode="&#xf5;" glyph-name="otilde" horiz-adv-x="548" d="M352 602Q314 602 262 627T187 652Q168 652 155 640T140 606H101Q101 716 194 716Q232 716 284 691T359 665Q378 665 391 677T406 712H444Q444 602 352 602ZM274 -12Q174 -12 115 58T55 255Q55
380 115 451T274 523Q374 523 433 453T493 256Q493 131 433 60T274 -12ZM274 51Q343 51 381 105T420 256T383 406T274 460T166 408T128 255Q128 159 165 105T274 51Z" />
<glyph unicode="&#xf6;" glyph-name="odieresis" horiz-adv-x="548" d="M191 606Q172 606 158 620T144 653Q144 673 157 686T191 700T224 687T238 653T225 620T191 606ZM357 606Q338 606 324 620T310 653Q310 673 323 686T357 700T390 687T404 653T391 620T357
606ZM274 -12Q174 -12 115 58T55 255Q55 380 115 451T274 523Q374 523 433 453T493 256Q493 131 433 60T274 -12ZM274 51Q343 51 381 105T420 256T383 406T274 460T166 408T128 255Q128 159 165 105T274 51Z" />
<glyph unicode="&#xf7;" glyph-name="divide" horiz-adv-x="660" d="M327 501Q306 501 293 515T279 549Q279 568 293 583T327 598Q348 598 363 583T378 549Q378 529 364 515T327 501ZM95 308V376H565V308H95ZM327 88Q306 88 293 101T279 134Q279 155 292 169T327
183Q349 183 363 169T378 134T364 101T327 88Z" />
<glyph unicode="&#xf8;" glyph-name="oslash" horiz-adv-x="548" d="M438 446Q493 375 493 256Q493 131 433 60T274 -12Q202 -12 147 27L120 -12H55L109 66Q55 137 55 255Q55 380 115 451T274 523Q347 523 399 485L426 523H492L438 446ZM128 255Q128 178 152 128L361
430Q325 460 274 460Q203 460 166 408T128 255ZM274 51Q343 51 381 105T420 256Q420 335 395 384L186 82Q222 51 274 51Z" />
<glyph unicode="&#xf9;" glyph-name="ugrave" horiz-adv-x="560" d="M303 576L125 732H232L374 576H303ZM400 0V49Q374 15 345 2T273 -12Q174 -12 130 44T85 226V511H155V199Q155 123 187 87T273 51Q400 51 400 197V511H470V0H400Z" />
<glyph unicode="&#xfa;" glyph-name="uacute" horiz-adv-x="560" d="M172 576L314 732H421L243 576H172ZM400 0V49Q374 15 345 2T273 -12Q174 -12 130 44T85 226V511H155V199Q155 123 187 87T273 51Q400 51 400 197V511H470V0H400Z" />
<glyph unicode="&#xfb;" glyph-name="ucircumflex" horiz-adv-x="560" d="M389 576L273 677L157 576H92L243 732H303L454 576H389ZM400 0V49Q374 15 345 2T273 -12Q174 -12 130 44T85 226V511H155V199Q155 123 187 87T273 51Q400 51 400 197V511H470V0H400Z" />
<glyph unicode="&#xfc;" glyph-name="udieresis" horiz-adv-x="560" d="M210 606T190 606T157 620T143 653Q143 673 156 686T190 700T223 687T237 653T224 620ZM376 606T356 606T323 620T309 653Q309 673 322 686T356 700T389 687T403 653T390 620ZM400 0V49Q374
15 345 2T273 -12Q174 -12 130 44T85 226V511H155V199Q155 123 187 87T273 51Q400 51 400 197V511H470V0H400Z" />
<glyph unicode="&#xfd;" glyph-name="yacute" horiz-adv-x="521" d="M156 576L298 732H405L227 576H156ZM151 -194L227 16L40 511H111L240 148Q243 138 249 120T257 96L275 148L406 511H481L220 -194H151Z" />
<glyph unicode="&#xfe;" glyph-name="thorn" horiz-adv-x="566" d="M300 -12Q215 -12 160 52V-168L90 -203V678L160 712V465Q192 493 222 508T300 523Q398 523 454 451T511 256Q511 131 453 60T300 -12ZM292 51Q362 51 400 104T438 256Q438 349 399 404T292 460Q251
460 216 439T160 381V130Q221 51 292 51Z" />
<glyph unicode="&#xff;" glyph-name="ydieresis" horiz-adv-x="521" d="M194 606T174 606T141 620T127 653Q127 673 140 686T174 700T207 687T221 653T208 620ZM360 606T340 606T307 620T293 653Q293 673 306 686T340 700T373 687T387 653T374 620ZM151 -194L227
16L40 511H111L240 148Q243 138 249 120T257 96L275 148L406 511H481L220 -194H151Z" />
<glyph unicode="&#x2013;" glyph-name="endash" horiz-adv-x="525" d="M65 257V317H460V257H65Z" />
<glyph unicode="&#x2014;" glyph-name="emdash" horiz-adv-x="605" d="M10 257V317H595V257H10Z" />
<glyph unicode="&#x2018;" glyph-name="quoteleft" horiz-adv-x="226" d="M115 462Q86 462 65 483T43 546Q43 601 68 644T134 712L153 707Q135 691 119 660T103 590Q135 590 155 573T176 528Q176 498 159 480T115 462Z" />
<glyph unicode="&#x2019;" glyph-name="quoteright" horiz-adv-x="226" d="M73 467Q91 483 107 514T123 584Q91 584 71 601T50 646Q50 676 67 694T111 712Q140 712 161 691T183 628Q183 573 158 530T92 462L73 467Z" />
<glyph unicode="&#x201a;" glyph-name="quotesinglbase" horiz-adv-x="226" d="M73 -136Q91 -120 107 -89T123 -19Q91 -19 71 -2T50 43Q50 73 67 91T111 109Q140 109 161 88T183 25Q183 -30 158 -73T92 -141L73 -136Z" />
<glyph unicode="&#x201c;" glyph-name="quotedblleft" horiz-adv-x="422" d="M115 462Q86 462 65 483T43 546Q43 601 68 644T134 712L153 707Q135 691 119 660T103 590Q135 590 155 573T176 528Q176 498 159 480T115 462ZM311 462Q282 462 261 483T239 546Q239
601 264 644T330 712L349 707Q331 691 315 660T299 590Q331 590 351 573T372 528Q372 498 355 480T311 462Z" />
<glyph unicode="&#x201d;" glyph-name="quotedblright" horiz-adv-x="422" d="M73 467Q91 483 107 514T123 584Q91 584 71 601T50 646Q50 676 67 694T111 712Q140 712 161 691T183 628Q183 573 158 530T92 462L73 467ZM269 467Q287 483 303 514T319 584Q287 584
267 601T246 646Q246 676 263 694T307 712Q336 712 357 691T379 628Q379 573 354 530T288 462L269 467Z" />
<glyph unicode="&#x201e;" glyph-name="quotedblbase" horiz-adv-x="422" d="M73 -136Q91 -120 107 -89T123 -19Q91 -19 71 -2T50 43Q50 73 67 91T111 109Q140 109 161 88T183 25Q183 -30 158 -73T92 -141L73 -136ZM269 -136Q287 -120 303 -89T319 -19Q287 -19
267 -2T246 43Q246 73 263 91T307 109Q336 109 357 88T379 25Q379 -30 354 -73T288 -141L269 -136Z" />
<glyph unicode="&#x2022;" glyph-name="bullet" horiz-adv-x="416" d="M264 223T207 223T113 259T75 350T113 441T207 479Q264 479 302 442T341 350Q341 297 303 260Z" />
<glyph unicode="&#x2039;" glyph-name="guilsinglleft" horiz-adv-x="305" d="M197 0L45 256L197 511H275L123 256L275 0H197Z" />
<glyph unicode="&#x203a;" glyph-name="guilsinglright" horiz-adv-x="305" d="M30 0L182 256L30 511H108L260 256L108 0H30Z" />
</font>
</defs>
</svg>
