<?xml version="1.0" standalone="no"?>
<!DOCTYPE svg PUBLIC "-//W3C//DTD SVG 1.1//EN" "http://www.w3.org/Graphics/SVG/1.1/DTD/svg11.dtd">
<svg xmlns="http://www.w3.org/2000/svg">
<defs >
<font id="Kanit" horiz-adv-x="593" ><font-face
    font-family="Kanit Black"
    units-per-em="1000"
    panose-1="0 0 10 0 0 0 0 0 0 0"
    ascent="1100"
    descent="-395"
    alphabetic="0" />
<glyph unicode=" " glyph-name="space" horiz-adv-x="300" />
<glyph unicode="!" glyph-name="exclam" horiz-adv-x="280" d="M61 464L99 644H341L303 464L240 199H12L61 464ZM-6 167H244L209 0H-41L-6 167Z" />
<glyph unicode="&quot;" glyph-name="quotedbl" horiz-adv-x="449" d="M95 644H289L219 395H42L95 644ZM320 644H514L445 395H267L320 644Z" />
<glyph unicode="#" glyph-name="numbersign" horiz-adv-x="722" d="M37 136H-13L20 289H118L153 357H72L105 511H234L304 644H510L440 511H512L582 644H787L717 511H759L726 357H636L601 289H675L642 136H520L449 0H244L315 136H242L171 0H-34L37 136ZM396 289L431
357H359L323 289H396Z" />
<glyph unicode="$" glyph-name="dollar" horiz-adv-x="560" d="M127 -6Q28 3 -28 35L10 216Q53 193 108 178T210 163Q243 163 261 171T280 196Q280 206 267 213T223 231L176 249Q107 277 77 309T47 392Q47 416 55 453Q88 609 265 644L284 730H494L476 646Q547
636 586 623L547 441Q461 480 385 480Q302 480 302 452Q302 443 314 437T362 421L389 413Q472 388 505 353T538 263Q538 233 530 193Q515 125 467 78T340 8L320 -86H110L127 -6Z" />
<glyph unicode="%" glyph-name="percent" horiz-adv-x="808" d="M125 334T92 364T58 448Q58 468 62 487Q79 567 127 610T258 654Q319 654 353 622T387 533Q387 514 382 487Q367 417 318 376T189 334Q125 334 92 364ZM537 644H765L295 0H67L537 644ZM253 452T261
492Q263 499 263 510Q263 536 232 536Q212 536 201 526T185 492Q184 487 184 479Q184 452 215 452Q253 452 261 492ZM510 -10T477 20T443 104Q443 124 447 143Q464 223 512 266T643 310Q704 310 738 278T772 189Q772 170 767 143Q752 73 703 32T574 -10Q510 -10
477 20ZM638 108T646 148Q648 155 648 166Q648 192 617 192Q597 192 586 182T570 148Q569 143 569 135Q569 108 600 108Q638 108 646 148Z" />
<glyph unicode="&amp;" glyph-name="ampersand" horiz-adv-x="707" d="M433 34Q396 13 343 2T233 -10Q120 -10 57 31T-7 144Q-7 164 -3 181Q23 302 153 366Q124 403 124 444Q124 464 128 481Q145 561 212 607T384 654Q471 654 523 616T575 515Q575 497 571 481Q561
437 538 404T473 340L521 276Q531 286 534 304L537 318H713L708 295Q700 256 678 216T627 148L654 111L477 -24L433 34ZM356 439T365 448T377 470Q378 473 378 478Q378 499 354 499Q339 499 329 491T316 470Q314 457 319 448T338 429Q356 439 365 448ZM294 152T314
162L268 222Q229 211 229 180Q229 167 239 160T268 152Q294 152 314 162Z" />
<glyph unicode="&apos;" glyph-name="quotesingle" horiz-adv-x="224" d="M95 644H289L219 395H42L95 644Z" />
<glyph unicode="(" glyph-name="parenleft" horiz-adv-x="406" d="M5 18T5 150Q5 221 23 303Q49 423 100 517T225 678H499Q319 537 270 303Q255 228 255 172Q255 28 339 -72H65Q5 18 5 150Z" />
<glyph unicode=")" glyph-name="parenright" horiz-adv-x="406" d="M103 70T152 303Q167 378 167 434Q167 578 83 678H357Q416 590 416 455Q416 381 399 303Q373 184 321 89T197 -72H-76Q103 70 152 303Z" />
<glyph unicode="*" glyph-name="asterisk" horiz-adv-x="458" d="M58 371L143 437L58 476L158 611L213 572L221 644H397L375 572L446 611L486 469L385 430L442 364L293 266L253 348L179 266L58 371Z" />
<glyph unicode="+" glyph-name="plus" horiz-adv-x="454" d="M122 205H2L41 389H161L184 494H368L345 389H465L426 205H306L284 100H100L122 205Z" />
<glyph unicode="," glyph-name="comma" horiz-adv-x="266" d="M23 129H222L104 -120H-66L23 129Z" />
<glyph unicode="-" glyph-name="hyphen" horiz-adv-x="434" d="M41 389H445L406 205H2L41 389Z" />
<glyph unicode="." glyph-name="period" horiz-adv-x="216" d="M-6 169H180L145 0H-41L-6 169Z" />
<glyph unicode="/" glyph-name="slash" horiz-adv-x="512" d="M333 662H581L207 0H-41L333 662Z" />
<glyph unicode="0" glyph-name="zero" horiz-adv-x="680" d="M147 -10T81 47T15 216Q15 265 27 322Q51 434 95 506T219 616T423 654Q556 654 622 596T689 425Q689 378 677 322Q653 210 607 138T482 28T281 -10Q147 -10 81 47ZM367 196T391 226T430 322Q438 360
438 383Q438 416 424 432T379 448Q337 448 313 418T274 322Q266 284 266 261Q266 228 280 212T325 196Q367 196 391 226Z" />
<glyph unicode="1" glyph-name="one" horiz-adv-x="401" d="M157 419L44 403L87 604L449 654L310 0H68L157 419Z" />
<glyph unicode="2" glyph-name="two" horiz-adv-x="535" d="M-19 107Q20 153 63 192T164 273Q240 329 266 352T297 401Q298 405 298 412Q298 448 238 448Q158 448 65 412L108 613Q157 632 219 643T346 654Q446 654 502 610T558 490Q558 471 553 444Q540 384 512
345T420 259Q414 254 378 228T325 184H503L464 0H-41L-19 107Z" />
<glyph unicode="3" glyph-name="three" horiz-adv-x="550" d="M140 -10T71 1T-35 29L4 212Q41 192 91 182T185 172Q229 172 250 180T277 213Q280 229 268 238T226 247H108L156 400H253Q282 400 295 408T313 437Q317 453 300 462T241 472Q195 472 146 461T59 432L98
614Q145 632 207 643T328 654Q449 654 509 613T570 501Q570 484 565 461Q548 377 485 323Q525 295 525 238Q525 222 520 195Q476 -10 186 -10Q140 -10 71 1Z" />
<glyph unicode="4" glyph-name="four" horiz-adv-x="559" d="M234 108H-39L-6 261L383 644H590L518 302H572L530 108H476L454 0H212L234 108ZM319 292L338 385L234 292H319Z" />
<glyph unicode="5" glyph-name="five" horiz-adv-x="535" d="M129 -10T67 -1T-33 28L7 212Q36 196 90 185T177 174Q223 174 243 188T264 232Q264 247 252 254T213 261H14L34 356L112 644H563L509 460H281L270 419H319Q410 419 462 379T514 263Q514 240 508 211Q486
105 411 48T178 -10Q129 -10 67 -1Z" />
<glyph unicode="6" glyph-name="six" horiz-adv-x="604" d="M130 -10T69 44T7 193Q7 227 14 259L37 369Q65 500 158 577T422 654Q480 654 521 647T600 624L563 449Q530 465 494 472T412 480Q355 480 317 462T273 421L272 415Q293 426 328 433T393 440Q488 440
537 401T587 285Q587 255 580 224Q557 115 478 53T245 -10Q130 -10 69 44ZM317 156T336 170T363 215Q365 229 365 235Q365 255 352 265T310 275Q279 275 238 257L231 225Q228 212 228 200Q228 177 241 167T283 156Q317 156 336 170Z" />
<glyph unicode="7" glyph-name="seven" horiz-adv-x="504" d="M266 460H46L85 644H579L551 511L226 0H-26L266 460Z" />
<glyph unicode="8" glyph-name="eight" horiz-adv-x="628" d="M-6 -10T-6 147Q-6 171 0 196Q9 236 35 274T94 334Q66 368 66 418Q66 433 69 449Q91 550 165 602T396 654Q520 654 581 613T642 497Q642 470 637 449Q630 417 610 385T563 331Q602 294 602 234Q602
213 598 196Q583 125 546 80T439 13T254 -10Q-6 -10 -6 147ZM383 401T393 413T407 444Q408 448 408 454Q408 488 360 488Q306 488 297 444Q296 440 296 431Q296 420 302 412T319 402L363 393Q383 401 393 413ZM331 156T351 171T371 213Q371 239 335 247L280 259Q240
248 232 209Q230 199 230 195Q230 156 290 156Q331 156 351 171Z" />
<glyph unicode="9" glyph-name="nine" horiz-adv-x="604" d="M145 -10T105 -5T29 17L66 192Q99 176 134 170T216 164Q277 164 313 182T355 223L356 229Q335 218 300 211T235 204Q144 204 93 245T42 363Q42 390 48 420Q71 530 149 592T383 654Q507 654 565 608T624
471Q624 429 614 385L591 275Q562 139 467 65T206 -10Q145 -10 105 -5ZM347 369T390 387L397 419Q400 434 400 445Q400 468 387 478T345 488Q277 488 265 429Q262 417 262 408Q262 369 318 369Q347 369 390 387Z" />
<glyph unicode=":" glyph-name="colon" horiz-adv-x="215" d="M61 482H246L210 311H25L61 482ZM-2 185H183L146 14H-39L-2 185Z" />
<glyph unicode=";" glyph-name="semicolon" horiz-adv-x="266" d="M107 482H292L256 311H71L107 482ZM23 129H222L104 -120H-66L23 129Z" />
<glyph unicode="&lt;" glyph-name="less" horiz-adv-x="539" d="M5 221L48 419L604 640L556 410L284 313L515 216L468 0L5 221Z" />
<glyph unicode="=" glyph-name="equal" horiz-adv-x="434" d="M61 480H465L430 316H26L61 480ZM16 272H420L385 108H-19L16 272Z" />
<glyph unicode="&gt;" glyph-name="greater" horiz-adv-x="539" d="M6 230L279 327L47 424L95 640L557 419L514 221L-41 0L6 230Z" />
<glyph unicode="?" glyph-name="question" horiz-adv-x="510" d="M99 214Q108 259 127 283T199 346L222 363Q254 385 266 398T283 430Q284 434 284 441Q284 481 208 481Q168 481 126 469T52 441L88 608Q134 630 194 642T316 654Q418 654 479 610T540 493Q540 483
536 459Q525 405 500 369T421 295Q397 279 385 272Q351 249 336 237T317 207L316 199H96L99 214ZM74 167H324L289 0H39L74 167Z" />
<glyph unicode="@" glyph-name="at" horiz-adv-x="754" d="M158 -132T74 -70T-11 110Q-11 146 -2 188Q35 360 148 442T450 525Q536 525 602 500T705 425T742 309Q742 283 736 253Q716 156 647 104T466 51H406Q348 27 277 27Q234 27 208 48T181 109Q181 123 184
138Q207 248 347 248H416L417 251Q419 260 405 265T363 270Q309 270 249 253L268 342Q296 353 336 359T416 366Q480 366 514 340T548 264Q548 246 544 230L530 162Q557 162 574 241Q579 262 579 289Q579 343 542 369T422 395Q315 395 248 343T158 186Q151 154 151
124Q151 60 193 29T330 -2Q440 -2 507 17L479 -114Q400 -132 304 -132Q158 -132 74 -70ZM374 116T392 132L399 165H369Q338 165 333 139Q332 136 332 132Q332 116 351 116Q374 116 392 132Z" />
<glyph unicode="A" glyph-name="A" horiz-adv-x="777" d="M343 644H594L706 0H466L445 120H289L218 0H-41L343 644ZM448 285L425 408L350 285H448Z" />
<glyph unicode="B" glyph-name="B" horiz-adv-x="662" d="M115 644H497Q574 644 622 604T671 499Q671 479 667 462Q647 370 578 326Q607 311 622 290T637 236Q637 220 632 195Q590 0 365 0H-21L115 644ZM380 397Q428 397 437 440Q438 444 438 450Q438 480 398
480H308L290 397H380ZM330 164Q378 164 387 207Q388 211 388 218Q388 247 348 247H258L240 164H330Z" />
<glyph unicode="C" glyph-name="C" horiz-adv-x="618" d="M190 -10T104 54T18 239Q18 277 27 322Q61 484 180 569T481 654Q540 654 585 646T676 619L631 408Q588 430 545 440T453 450Q374 450 332 422T274 322Q269 302 269 278Q269 232 300 213T401 194Q450 194
497 204T597 236L552 25Q499 7 450 -1T341 -10Q190 -10 104 54Z" />
<glyph unicode="D" glyph-name="D" horiz-adv-x="690" d="M115 644H421Q501 644 563 615T661 531T696 399Q696 366 686 318Q661 205 613 136T485 33T285 0H-21L115 644ZM296 184Q338 184 365 194T410 234T440 318Q448 353 448 382Q448 421 427 433T351 446H315L260
184H296Z" />
<glyph unicode="E" glyph-name="E" horiz-adv-x="557" d="M115 644H630L593 470H320L308 412H543L505 232H270L257 174H530L494 0H-21L115 644Z" />
<glyph unicode="F" glyph-name="F" horiz-adv-x="545" d="M115 644H630L593 470H320L308 412H543L505 232H270L221 0H-21L115 644Z" />
<glyph unicode="G" glyph-name="G" horiz-adv-x="663" d="M182 -10T100 52T17 235Q17 278 27 322Q62 488 176 571T490 654Q601 654 689 621L647 419Q573 450 462 450Q386 450 338 421T274 322Q267 293 267 267Q267 227 291 211T373 194Q405 194 434 201L443 240H336L367
386H674L603 53Q552 25 483 8T331 -10Q182 -10 100 52Z" />
<glyph unicode="H" glyph-name="H" horiz-adv-x="715" d="M115 644H357L313 434H474L518 644H760L624 0H382L426 210H265L221 0H-21L115 644Z" />
<glyph unicode="I" glyph-name="I" horiz-adv-x="312" d="M115 644H357L221 0H-21L115 644Z" />
<glyph unicode="J" glyph-name="J" horiz-adv-x="462" d="M7 -10T-58 13L-16 214Q28 195 92 195Q142 195 162 212T192 275L270 644H512L421 216Q397 102 322 46T98 -10Q7 -10 -58 13Z" />
<glyph unicode="K" glyph-name="K" horiz-adv-x="726" d="M115 644H357L319 464L498 644H771L495 377L655 0H399L314 224L256 168L221 0H-21L115 644Z" />
<glyph unicode="L" glyph-name="L" horiz-adv-x="535" d="M115 644H357L260 184H523L484 0H-21L115 644Z" />
<glyph unicode="M" glyph-name="M" horiz-adv-x="791" d="M115 644H339L414 378L600 644H836L700 0H458L506 226L424 110H301L269 226L221 0H-21L115 644Z" />
<glyph unicode="N" glyph-name="N" horiz-adv-x="695" d="M115 644H318L445 392L498 644H740L604 0H400L274 252L221 0H-21L115 644Z" />
<glyph unicode="O" glyph-name="O" horiz-adv-x="720" d="M165 -10T90 45T15 220Q15 265 27 322Q65 500 166 577T443 654Q581 654 655 600T729 427Q729 381 717 322Q679 144 579 67T301 -10Q165 -10 90 45ZM398 195T426 223T470 322Q479 367 479 385Q479 420 461
434T399 449Q346 449 318 421T274 322Q266 282 266 259Q266 224 284 210T345 195Q398 195 426 223Z" />
<glyph unicode="P" glyph-name="P" horiz-adv-x="636" d="M115 644H477Q573 644 624 592T675 456Q675 424 668 393Q644 281 568 213T367 144H251L221 0H-21L115 644ZM350 333Q379 333 397 349T422 393Q425 405 425 414Q425 455 380 455H317L291 333H350Z" />
<glyph unicode="Q" glyph-name="Q" horiz-adv-x="720" d="M276 -172T236 -136T196 -36Q196 -19 199 -1Q15 36 15 219Q15 265 27 322Q65 500 166 577T443 654Q581 654 655 600T729 427Q729 381 717 322Q684 166 603 88T386 -5Q386 -22 399 -28T442 -34Q480 -34
517 -22L488 -156Q465 -163 428 -167T352 -172Q276 -172 236 -136ZM398 195T426 223T470 322Q479 367 479 385Q479 420 461 434T399 449Q346 449 318 421T274 322Q266 282 266 259Q266 224 284 210T345 195Q398 195 426 223Z" />
<glyph unicode="R" glyph-name="R" horiz-adv-x="656" d="M115 644H477Q569 644 622 593T676 459Q676 432 670 403Q644 278 515 208Q524 200 528 193T535 175L574 0H322L289 143Q287 154 282 159T265 164H255L221 0H-21L115 644ZM355 353Q414 353 424 403Q426
415 426 420Q426 438 415 446T380 455H317L296 353H355Z" />
<glyph unicode="S" glyph-name="S" horiz-adv-x="560" d="M130 -10T70 1T-28 35L10 216Q53 193 108 178T210 163Q242 163 261 171T280 196Q280 206 269 212T227 230Q199 239 176 249Q109 277 79 311T48 397Q48 424 55 453Q77 557 153 605T381 654Q428 654 487
645T586 623L547 441Q461 480 385 480Q302 480 302 452Q302 443 314 437T362 421L389 413Q470 388 504 351T538 258Q538 231 530 193Q508 95 430 43T199 -10Q130 -10 70 1Z" />
<glyph unicode="T" glyph-name="T" horiz-adv-x="560" d="M202 470H38L75 644H645L608 470H444L345 0H103L202 470Z" />
<glyph unicode="U" glyph-name="U" horiz-adv-x="704" d="M168 -10T95 46T22 200Q22 228 28 258L110 644H352L276 285Q270 260 270 242Q270 215 285 205T337 195Q382 195 404 216T436 285L512 644H754L671 254Q644 124 549 57T293 -10Q168 -10 95 46Z" />
<glyph unicode="V" glyph-name="V" horiz-adv-x="777" d="M95 644H340L385 286L583 644H842L458 0H207L95 644Z" />
<glyph unicode="W" glyph-name="W" horiz-adv-x="911" d="M95 644H331L328 398L394 535L417 644H614L634 397L741 644H976L691 0H487L463 254L327 0H109L95 644Z" />
<glyph unicode="X" glyph-name="X" horiz-adv-x="809" d="M272 329L107 644H396L459 525L573 644H862L563 329L738 0H445L376 131L252 0H-41L272 329Z" />
<glyph unicode="Y" glyph-name="Y" horiz-adv-x="738" d="M241 234L95 644H340L399 439L544 644H803L483 234L434 0H192L241 234Z" />
<glyph unicode="Z" glyph-name="Z" horiz-adv-x="586" d="M-16 119L289 446H67L109 644H650L621 507L320 184H559L520 0H-41L-16 119Z" />
<glyph unicode="[" glyph-name="bracketleft" horiz-adv-x="396" d="M109 706H478L444 522H311L219 85H353L307 -99H-62L109 706Z" />
<glyph unicode="\" glyph-name="backslash" horiz-adv-x="534" d="M99 662H351L451 -54H200L99 662Z" />
<glyph unicode="]" glyph-name="bracketright" horiz-adv-x="396" d="M-33 85H101L193 522H60L106 706H475L303 -99H-66L-33 85Z" />
<glyph unicode="^" glyph-name="asciicircum" horiz-adv-x="566" d="M273 624H434L572 363H358L329 450L265 363H36L273 624Z" />
<glyph unicode="_" glyph-name="underscore" horiz-adv-x="508" d="M-41 0H437L404 -154H-73L-41 0Z" />
<glyph unicode="`" glyph-name="grave" horiz-adv-x="332" d="M127 748H313L361 522H184L127 748Z" />
<glyph unicode="a" glyph-name="a" horiz-adv-x="628" d="M86 -10T41 29T-4 146Q-4 174 4 216Q31 344 104 414T289 484Q324 484 351 475T394 449L399 474H637L537 0H327L322 31Q291 12 251 1T168 -10Q86 -10 41 29ZM312 163T332 178L357 296Q349 304 341 307T319
311Q271 311 253 224Q250 208 250 197Q250 177 259 170T287 163Q312 163 332 178Z" />
<glyph unicode="b" glyph-name="b" horiz-adv-x="628" d="M258 -10T206 31L189 0H-21L122 674H364L320 466Q341 474 370 479T426 484Q617 484 617 319Q617 285 608 241Q581 114 512 52T330 -10Q258 -10 206 31ZM320 163T335 179T360 237Q364 256 364 272Q364 293
355 302T329 311Q316 311 306 308T283 296L258 178Q267 170 275 167T297 163Q320 163 335 179Z" />
<glyph unicode="c" glyph-name="c" horiz-adv-x="520" d="M140 -10T71 38T2 178Q2 200 9 237Q36 362 124 423T356 484Q414 484 459 476T542 449L506 281Q452 311 374 311Q321 311 293 294T256 237Q253 222 253 211Q253 185 273 174T344 163Q412 163 491 201L454
25Q408 6 360 -2T253 -10Q140 -10 71 38Z" />
<glyph unicode="d" glyph-name="d" horiz-adv-x="628" d="M97 -10T49 33T0 162Q0 196 9 238Q37 369 106 426T294 484Q320 484 348 479T394 466L438 674H680L537 0H327L322 31Q256 -10 180 -10Q97 -10 49 33ZM310 163T332 178L357 296Q349 304 341 307T319 311Q271
311 255 234Q251 217 251 200Q251 179 260 171T287 163Q310 163 332 178Z" />
<glyph unicode="e" glyph-name="e" horiz-adv-x="567" d="M182 -10T125 12T35 79T2 184Q2 208 8 235Q34 356 109 420T330 484Q397 484 448 461T526 395T554 299Q554 280 549 253L532 172H216Q228 152 257 142T347 132Q389 132 432 139T505 156L477 26Q395 -10
251 -10Q182 -10 125 12ZM351 293L353 302Q354 305 354 311Q354 341 308 341Q254 341 242 293H351Z" />
<glyph unicode="f" glyph-name="f" horiz-adv-x="375" d="M58 300H2L39 474H95L98 489Q118 588 176 639T343 690Q427 690 484 663L453 513Q426 523 395 523Q371 523 357 513T339 483L337 474H440L393 300H300L237 0H-5L58 300Z" />
<glyph unicode="g" glyph-name="g" horiz-adv-x="628" d="M113 -176T64 -173T-3 -166L31 -9Q49 -14 81 -18T136 -22Q215 -22 254 -14T298 15L300 24Q278 16 249 11T193 6Q99 6 49 44T-1 159Q-1 194 7 227Q35 352 109 418T288 484Q329 484 357 474T410 443L427
474H637L552 72Q535 -10 490 -64T360 -147T140 -176Q113 -176 64 -173ZM301 163T311 166T332 178L357 296Q349 304 342 307T322 311Q299 311 282 292T255 231Q250 208 250 197Q250 177 259 170T287 163Q301 163 311 166Z" />
<glyph unicode="h" glyph-name="h" horiz-adv-x="626" d="M122 674H364L317 456Q342 468 377 476T447 484Q526 484 567 449T608 348Q608 322 602 292L540 0H298L355 272Q356 277 356 284Q356 306 330 306Q319 306 305 300T281 286L221 0H-21L122 674Z" />
<glyph unicode="i" glyph-name="i" horiz-adv-x="378" d="M172 680H431L396 513H137L172 680ZM108 300H42L99 474H387L287 0H45L108 300Z" />
<glyph unicode="j" glyph-name="j" horiz-adv-x="377" d="M171 680H430L395 513H136L171 680ZM-49 -234T-106 -207L-75 -57Q-48 -67 -17 -67Q28 -67 38 -27L107 300H41L98 474H386L276 -43Q257 -133 201 -183T34 -234Q-49 -234 -106 -207Z" />
<glyph unicode="k" glyph-name="k" horiz-adv-x="661" d="M122 674H364L301 379L408 474H680L450 269L590 0H334L273 143L246 118L221 0H-21L122 674Z" />
<glyph unicode="l" glyph-name="l" horiz-adv-x="367" d="M86 -10T47 19T7 109Q7 134 13 162L122 674H364L262 194Q260 182 260 179Q260 168 266 163T289 157Q317 157 341 166L309 16Q272 2 243 -4T166 -10Q86 -10 47 19Z" />
<glyph unicode="m" glyph-name="m" horiz-adv-x="869" d="M79 474H303L302 445Q380 484 456 484Q530 484 554 440Q593 462 634 473T724 484Q787 484 820 453T853 362Q853 337 847 305L783 0H546L604 276L606 289Q606 298 601 302T583 306Q566 306 552 293L490
0H267L326 282Q327 286 327 292Q327 306 310 306Q290 306 272 288L211 0H-21L79 474Z" />
<glyph unicode="n" glyph-name="n" horiz-adv-x="626" d="M79 474H306V447Q337 462 384 473T480 484Q544 484 577 454T611 364Q611 336 604 305L540 0H298L356 274Q357 278 357 284Q357 306 330 306Q319 306 305 300T281 286L221 0H-21L79 474Z" />
<glyph unicode="o" glyph-name="o" horiz-adv-x="627" d="M133 -10T68 36T2 174Q2 205 9 237Q36 361 121 422T359 484Q482 484 547 438T613 300Q613 269 606 237Q579 112 495 51T254 -10Q133 -10 68 36ZM318 163T334 179T359 237Q363 256 363 271Q363 293 353
302T323 311Q297 311 281 295T256 237Q252 218 252 202Q252 181 261 172T291 163Q318 163 334 179Z" />
<glyph unicode="p" glyph-name="p" horiz-adv-x="628" d="M79 474H289L294 443Q326 463 360 473T435 484Q522 484 568 439T614 308Q614 272 607 236Q585 110 513 50T321 -10Q295 -10 268 -5T222 8L178 -200H-63L79 474ZM320 163T336 181T361 240Q365 257 365 274Q365
295 356 303T329 311Q316 311 306 308T283 296L258 178Q266 170 275 167T297 163Q320 163 336 181Z" />
<glyph unicode="q" glyph-name="q" horiz-adv-x="708" d="M354 -242T315 -208T275 -113Q275 -95 280 -70L296 8Q275 0 245 -5T189 -10Q99 -10 50 33T1 163Q1 193 9 236Q33 360 107 422T288 484Q329 484 357 474T410 443L427 474H637L528 -38Q526 -50 526 -53Q526
-64 532 -69T551 -75Q578 -75 602 -66L571 -216Q534 -230 505 -236T428 -242Q354 -242 315 -208ZM301 163T311 166T332 178L357 296Q349 304 342 307T322 311Q298 311 282 296T257 240Q252 215 252 203Q252 163 287 163Q301 163 311 166Z" />
<glyph unicode="r" glyph-name="r" horiz-adv-x="429" d="M79 474H316V447Q347 462 391 473T480 484L443 306Q403 306 356 301T281 286L221 0H-21L79 474Z" />
<glyph unicode="s" glyph-name="s" horiz-adv-x="507" d="M114 -10T56 -1T-32 24L0 177Q30 159 79 148T164 137Q194 137 206 138T220 148Q221 154 210 159T175 170Q133 182 121 187Q70 207 47 231T24 293Q24 312 28 329Q45 407 113 445T317 484Q365 484 422 477T507
460L475 308Q446 321 411 329T347 337Q313 337 295 335T274 324Q273 319 283 315T319 304Q346 298 366 292Q422 274 447 250T472 187Q472 171 467 148Q433 -10 180 -10Q114 -10 56 -1Z" />
<glyph unicode="t" glyph-name="t" horiz-adv-x="396" d="M115 -10T72 28T29 134Q29 159 35 186L59 300H2L39 474H96L116 567L368 616L338 474H435L393 300H301L280 199Q279 195 279 187Q279 157 318 157Q350 157 380 167L348 17Q279 -10 195 -10Q115 -10 72 28Z" />
<glyph unicode="u" glyph-name="u" horiz-adv-x="626" d="M80 -10T42 24T4 123Q4 147 10 174L74 474H316L258 200Q257 196 257 189Q257 168 284 168Q295 168 309 174T332 188L393 474H635L535 0H308V27Q277 10 234 0T145 -10Q80 -10 42 24Z" />
<glyph unicode="v" glyph-name="v" horiz-adv-x="657" d="M59 474H304L319 256L427 474H686L398 0H147L59 474Z" />
<glyph unicode="w" glyph-name="w" horiz-adv-x="814" d="M59 474H289L295 312L344 400L359 474H533L541 312L613 474H843L617 0H411L391 153L307 0H85L59 474Z" />
<glyph unicode="x" glyph-name="x" horiz-adv-x="662" d="M194 241L67 474H328L362 412L422 474H683L457 241L591 0H327L289 68L223 0H-41L194 241Z" />
<glyph unicode="y" glyph-name="y" horiz-adv-x="626" d="M111 -176T62 -173T-5 -166L29 -9Q48 -14 79 -18T134 -22Q214 -22 259 -8T308 27L312 43Q280 26 238 16T149 6Q84 6 47 42T9 141Q9 169 14 190L74 474H316L261 216Q260 213 260 207Q260 184 288 184Q299
184 313 190T336 204L393 474H635L551 78Q525 -47 430 -111T138 -176Q111 -176 62 -173Z" />
<glyph unicode="z" glyph-name="z" horiz-adv-x="506" d="M-15 127L179 289H25L64 474H527L497 334L312 174H471L435 0H-41L-15 127Z" />
<glyph unicode="{" glyph-name="braceleft" horiz-adv-x="349" d="M64 -104T32 -73T-1 13Q-1 30 4 57L25 158Q28 173 28 185Q28 206 18 216T-13 230L16 366Q44 370 61 387T85 439L106 540Q124 622 165 661T290 701H437L397 517H364Q334 517 326 484L307 394Q300
362 285 339T245 298Q270 268 270 233Q270 224 266 202L248 113Q247 109 247 103Q247 80 272 80H305L265 -104H118Q64 -104 32 -73Z" />
<glyph unicode="|" glyph-name="bar" horiz-adv-x="272" d="M115 735H357L175 -120H-66L115 735Z" />
<glyph unicode="}" glyph-name="braceright" horiz-adv-x="349" d="M-34 80H-1Q30 80 37 113L55 202Q62 234 78 257T118 298Q93 328 93 364Q93 378 96 394L115 484Q116 488 116 494Q116 517 91 517H58L98 701H245Q366 701 366 595Q366 575 359 540L338 439Q335
423 335 411Q335 390 344 380T375 366L346 230Q318 226 302 210T278 158L257 57Q239 -25 199 -64T73 -104H-73L-34 80Z" />
<glyph unicode="~" glyph-name="asciitilde" horiz-adv-x="517" d="M333 173T308 181T245 205Q207 221 183 228T130 236Q90 236 58 223T-3 180L40 383Q61 406 96 418T171 431Q202 431 230 423T293 398Q330 383 353 376T404 368Q443 368 474 381T536 424L492 221Q471
198 436 186T362 173Q333 173 308 181Z" />
<glyph unicode="&#xa0;" glyph-name="uni00A0" horiz-adv-x="300" />
<glyph unicode="&#xa1;" glyph-name="exclamdown" horiz-adv-x="280" d="M91 549H341L306 382H56L91 549ZM-3 85L60 350H288L239 85L201 -95H-41L-3 85Z" />
<glyph unicode="&#xa2;" glyph-name="cent" horiz-adv-x="520" d="M129 10Q74 32 39 77T3 186Q3 210 9 237Q28 328 84 385T227 467L247 560H457L439 479Q495 472 542 449L506 281Q452 311 374 311Q321 311 293 294T256 237Q253 224 253 212Q253 186 274 175T344
163Q412 163 491 201L454 25Q400 3 336 -5L319 -86H109L129 10Z" />
<glyph unicode="&#xa3;" glyph-name="sterling" horiz-adv-x="481" d="M-5 174H18Q51 174 58 206L65 239H9L46 413H102L111 453Q134 552 192 603T356 654Q440 654 497 627L465 477Q438 487 407 487Q360 487 352 447L344 413H447L400 239H307L304 222Q300 205 294
195T275 174H446L410 0H-41L-5 174Z" />
<glyph unicode="&#xa4;" glyph-name="currency" horiz-adv-x="574" d="M-10 149L76 203Q74 219 74 227Q74 246 79 269Q85 302 104 335L42 390L172 515L238 452Q280 470 329 470Q380 470 415 451L509 513L585 389L498 335Q500 319 500 309Q500 295 496 269Q489
239 470 204L532 147L405 24L337 86Q291 67 245 67Q200 67 161 85L67 23L-10 149ZM297 224T313 237T334 270Q335 274 335 282Q335 298 326 307T297 317Q278 317 262 304T241 270Q239 260 239 257Q239 242 248 233T277 224Q297 224 313 237Z" />
<glyph unicode="&#xa5;" glyph-name="yen" horiz-adv-x="738" d="M203 55H80L104 168H227L237 214H114L138 327H208L95 644H340L399 439L544 644H803L555 327H624L600 214H479L469 168H590L566 55H445L434 0H192L203 55Z" />
<glyph unicode="&#xa6;" glyph-name="brokenbar" horiz-adv-x="272" d="M115 735H357L278 363H36L115 735ZM12 252H254L175 -120H-66L12 252Z" />
<glyph unicode="&#xa7;" glyph-name="section" horiz-adv-x="560" d="M130 -10T70 1T-28 35L10 216Q53 193 108 178T210 163Q243 163 261 171T280 196Q280 207 267 214T219 233L176 249Q110 275 79 308T47 393Q47 418 52 438Q55 457 66 476T91 511Q81 531 81 559Q81
573 84 586Q122 765 404 765Q451 765 511 756T610 734L571 552Q484 591 408 591Q326 591 326 563Q326 554 338 548T386 532L413 524Q494 499 529 466T565 381Q565 364 560 337Q555 313 543 290T518 255Q530 237 530 207Q530 198 528 184Q508 91 424 41T199 -10Q130
-10 70 1ZM390 340T391 346Q394 360 376 371T314 396Q308 398 290 403T261 414T245 425Q240 415 240 409Q240 397 257 389T313 367Q347 356 363 350T386 335Q390 340 391 346Z" />
<glyph unicode="&#xa8;" glyph-name="dieresis" horiz-adv-x="441" d="M108 701H284L249 540H73L108 701ZM343 701H519L484 540H308L343 701Z" />
<glyph unicode="&#xa9;" glyph-name="copyright" horiz-adv-x="694" d="M210 -10T149 24T53 118T19 252Q19 284 27 322Q48 418 105 493T247 611T430 654Q508 654 569 620T664 525T698 391Q698 356 691 322Q671 227 614 152T472 33T288 -10Q210 -10 149 24ZM408
108T478 167T568 322Q575 354 575 385Q575 457 533 496T404 536Q342 536 289 509T200 434T150 322Q143 290 143 258Q143 187 185 148T313 108Q408 108 478 167ZM262 141T221 179T179 281Q179 298 184 323Q202 408 260 457T401 506Q439 506 466 495T518 463L497
363Q477 377 458 383T416 390Q388 390 366 375T337 323Q334 308 334 296Q334 274 346 266T387 257Q437 257 483 289L460 183Q394 141 324 141Q262 141 221 179Z" />
<glyph unicode="&#xaa;" glyph-name="ordfeminine" horiz-adv-x="331" d="M97 380T76 396T55 444Q55 455 58 468Q76 557 191 557H250L251 560Q252 567 241 571T207 576Q161 576 111 562L126 634Q150 643 184 648T251 654Q314 654 346 632T378 568Q378 557 375
543L342 386H224L221 404Q187 380 132 380Q97 380 76 396ZM216 453T230 465L236 490H212Q199 490 192 486T183 472Q182 470 182 466Q182 453 198 453Q216 453 230 465Z" />
<glyph unicode="&#xab;" glyph-name="guillemotleft" horiz-adv-x="718" d="M10 242L27 324L349 529L411 391L231 276L362 161L244 37L10 242ZM330 242L347 324L669 529L731 391L551 276L682 161L564 37L330 242Z" />
<glyph unicode="&#xac;" glyph-name="logicalnot" horiz-adv-x="494" d="M282 205H2L41 389H505L444 102H260L282 205Z" />
<glyph unicode="&#xad;" glyph-name="uni00AD" horiz-adv-x="434" d="M41 389H445L406 205H2L41 389Z" />
<glyph unicode="&#xae;" glyph-name="registered" horiz-adv-x="694" d="M210 -10T149 24T53 118T19 252Q19 284 27 322Q48 418 105 493T247 611T430 654Q508 654 569 620T664 525T698 391Q698 356 691 322Q671 227 614 152T472 33T288 -10Q210 -10 149 24ZM408
108T478 167T568 322Q575 354 575 385Q575 457 533 496T404 536Q342 536 289 509T200 434T150 322Q143 290 143 258Q143 187 185 148T313 108Q408 108 478 167ZM257 483H443Q492 483 516 460T541 398Q541 381 537 366Q524 298 454 267Q461 260 462 250L470 169H351L346
239Q346 250 337 250H333L315 169H190L257 483ZM378 342Q408 342 412 366Q413 369 413 373Q413 381 407 385T391 390H362L352 342H378Z" />
<glyph unicode="&#xaf;" glyph-name="overscore" horiz-adv-x="297" d="M66 694H415L385 554H36L66 694Z" />
<glyph unicode="&#xb0;" glyph-name="degree" horiz-adv-x="285" d="M145 490T116 515T86 583Q86 597 89 612Q101 670 142 702T242 735Q289 735 318 710T347 641Q347 627 344 612Q331 555 290 523T190 490Q145 490 116 515ZM222 580T233 589T248 612L249 620Q249
644 222 644Q208 644 197 635T184 612Q183 609 183 603Q183 593 189 587T209 580Q222 580 233 589Z" />
<glyph unicode="&#xb1;" glyph-name="plusminus" horiz-adv-x="454" d="M147 326H28L67 510H186L209 615H393L370 510H491L452 326H331L309 221H125L147 326ZM-2 184H422L383 0H-41L-2 184Z" />
<glyph unicode="&#xb2;" glyph-name="uni00B2" horiz-adv-x="314" d="M50 431Q68 447 82 457T122 482Q152 499 160 506T170 524Q172 534 165 537T141 541Q128 541 109 536T72 522L96 631Q122 640 162 647T241 654Q297 654 330 634T363 580Q363 575 361 565Q356
542 345 527T315 498L284 476H344L321 370H37L50 431Z" />
<glyph unicode="&#xb3;" glyph-name="uni00B3" horiz-adv-x="319" d="M143 362T99 367T39 379L57 464Q74 455 95 451T136 446Q173 446 176 461V464Q176 469 171 471T153 473H112L132 544H166Q181 544 186 546T191 557Q191 563 184 565T159 568Q139 568 118 564T80
551L98 636Q118 643 158 648T229 654Q295 654 329 634T364 580Q364 571 363 567Q359 549 351 536T328 508Q346 495 346 472Q346 467 344 453Q325 362 166 362Q143 362 99 367Z" />
<glyph unicode="&#xb4;" glyph-name="acute" horiz-adv-x="332" d="M223 748H409L256 522H79L223 748Z" />
<glyph unicode="&#xb6;" glyph-name="paragraph" horiz-adv-x="678" d="M208 253Q135 253 94 292T52 407Q52 435 60 477Q84 593 164 651T355 710H757L590 -77H388L518 536H466L336 -77H138L208 253Z" />
<glyph unicode="&#xb7;" glyph-name="middot" horiz-adv-x="216" d="M38 372H224L188 203H2L38 372Z" />
<glyph unicode="&#xb8;" glyph-name="cedilla" horiz-adv-x="228" d="M-45 -240T-73 -238T-111 -232L-94 -155Q-68 -163 -39 -163Q-6 -163 13 -154T35 -128Q42 -100 4 -100H-69L-20 0H101L80 -37Q122 -37 145 -57T169 -111Q169 -126 167 -133Q156 -183 107 -211T-26
-240Q-45 -240 -73 -238Z" />
<glyph unicode="&#xb9;" glyph-name="uni00B9" horiz-adv-x="232" d="M110 493L61 483L88 611L320 654L259 370H84L110 493Z" />
<glyph unicode="&#xba;" glyph-name="ordmasculine" horiz-adv-x="361" d="M139 380T102 406T64 484Q64 493 68 517Q83 586 130 620T263 654Q332 654 367 629T403 554Q403 534 399 517Q385 448 338 414T204 380Q139 380 102 406ZM240 476T249 485T262 517Q265
528 265 536Q265 558 242 558Q227 558 219 549T205 517Q203 503 203 499Q203 487 208 482T225 476Q240 476 249 485Z" />
<glyph unicode="&#xbb;" glyph-name="guillemotright" horiz-adv-x="718" d="M-6 175L175 290L43 405L161 529L395 324L378 242L56 37L-6 175ZM314 175L495 290L363 405L481 529L715 324L698 242L376 37L314 175Z" />
<glyph unicode="&#xbc;" glyph-name="onequarter" horiz-adv-x="713" d="M110 493L61 483L88 611L320 654L259 370H84L110 493ZM485 644H713L243 0H15L485 644ZM458 34H341L361 131L516 284H673L642 139H671L649 34H620L613 0H451L458 34ZM528 130L538 178L489 130H528Z" />
<glyph unicode="&#xbd;" glyph-name="onehalf" horiz-adv-x="746" d="M110 493L61 483L88 611L320 654L259 370H84L110 493ZM485 644H713L243 0H15L485 644ZM403 61Q421 77 435 87T475 112Q505 129 513 136T523 154Q525 164 518 167T495 171Q482 171 462 166T426
152L449 261Q475 270 515 277T594 284Q652 284 684 265T716 210Q716 205 714 195Q709 172 699 157T669 128L637 106H697L675 0H391L403 61Z" />
<glyph unicode="&#xbe;" glyph-name="threequarters" horiz-adv-x="739" d="M143 362T99 367T39 379L57 464Q74 455 95 451T136 446Q173 446 176 461V464Q176 469 171 471T153 473H102L122 544H166Q181 544 186 546T191 557Q191 563 184 565T159 568Q139 568 118
564T80 551L98 636Q118 643 158 648T229 654Q298 654 331 635T365 582Q365 577 363 567Q356 531 328 508Q346 495 346 472Q346 467 344 453Q325 362 166 362Q143 362 99 367ZM511 644H739L269 0H41L511 644ZM484 34H367L387 131L542 284H699L668 139H697L675 34H646L639
0H477L484 34ZM554 130L564 178L515 130H554Z" />
<glyph unicode="&#xbf;" glyph-name="questiondown" horiz-adv-x="510" d="M315 549H565L530 382H280L315 549ZM186 -105T125 -61T64 56Q64 66 68 90Q79 144 104 180T183 254Q207 270 219 277Q253 300 268 312T287 342L288 350H508L505 335Q496 290 477 266T405
203L382 186Q350 164 338 151T321 119Q320 115 320 108Q320 68 396 68Q436 68 478 80T552 108L516 -59Q470 -81 410 -93T288 -105Q186 -105 125 -61Z" />
<glyph unicode="&#xc0;" glyph-name="Agrave" horiz-adv-x="777" d="M330 914H516L564 688H387L330 914ZM343 644H594L706 0H466L445 120H289L218 0H-41L343 644ZM448 285L425 408L350 285H448Z" />
<glyph unicode="&#xc1;" glyph-name="Aacute" horiz-adv-x="777" d="M530 914H716L563 688H386L530 914ZM343 644H594L706 0H466L445 120H289L218 0H-41L343 644ZM448 285L425 408L350 285H448Z" />
<glyph unicode="&#xc2;" glyph-name="Acircumflex" horiz-adv-x="777" d="M453 904H594L723 688H562L508 795L413 688H233L453 904ZM343 644H594L706 0H466L445 120H289L218 0H-41L343 644ZM448 285L425 408L350 285H448Z" />
<glyph unicode="&#xc3;" glyph-name="Atilde" horiz-adv-x="777" d="M562 693T540 698T482 716Q454 726 434 731T394 737Q330 737 280 696L310 837Q329 851 359 861T420 872Q445 872 467 867T518 850Q549 839 568 834T611 828Q644 828 672 839T718 869L688 728Q675
714 646 704T586 693Q562 693 540 698ZM343 644H594L706 0H466L445 120H289L218 0H-41L343 644ZM448 285L425 408L350 285H448Z" />
<glyph unicode="&#xc4;" glyph-name="Adieresis" horiz-adv-x="777" d="M319 858H474L444 717H289L319 858ZM553 858H709L679 717H523L553 858ZM343 644H594L706 0H466L445 120H289L218 0H-41L343 644ZM448 285L425 408L350 285H448Z" />
<glyph unicode="&#xc5;" glyph-name="Aring" horiz-adv-x="777" d="M343 644Q330 670 330 698Q330 707 334 731Q347 794 395 834T517 875Q577 875 610 844T644 764Q644 753 640 731Q630 680 594 643L706 0H466L445 120H289L218 0H-41L343 644ZM506 680T523 699T541
744Q541 761 530 771T497 782Q466 782 449 763T431 718Q431 701 442 691T475 680Q506 680 523 699ZM448 285L425 408L350 285H448Z" />
<glyph unicode="&#xc6;" glyph-name="AE" horiz-adv-x="874" d="M343 644H939L902 470H679L667 412H852L814 232H629L616 174H839L803 0H348L373 120H282L211 0H-41L343 644ZM408 285L447 470H441L343 285H408Z" />
<glyph unicode="&#xc7;" glyph-name="Ccedilla" horiz-adv-x="618" d="M246 -240T218 -238T179 -232L196 -155Q222 -163 252 -163Q285 -163 304 -154T326 -128Q333 -100 295 -100H221L267 -5Q149 10 83 71T17 239Q17 272 27 322Q61 484 180 569T481 654Q540 654
585 646T676 619L631 408Q588 430 545 440T453 450Q374 450 332 422T274 322Q269 302 269 278Q269 232 300 213T401 194Q450 194 497 204T597 236L552 25Q469 -3 386 -8L370 -37Q412 -37 435 -57T459 -111Q459 -126 457 -133Q446 -183 397 -211T265 -240Q246 -240
218 -238Z" />
<glyph unicode="&#xc8;" glyph-name="Egrave" horiz-adv-x="557" d="M255 914H441L489 688H312L255 914ZM115 644H630L593 470H320L308 412H543L505 232H270L257 174H530L494 0H-21L115 644Z" />
<glyph unicode="&#xc9;" glyph-name="Eacute" horiz-adv-x="557" d="M412 914H598L445 688H268L412 914ZM115 644H630L593 470H320L308 412H543L505 232H270L257 174H530L494 0H-21L115 644Z" />
<glyph unicode="&#xca;" glyph-name="Ecircumflex" horiz-adv-x="557" d="M358 904H499L628 688H467L413 795L318 688H138L358 904ZM115 644H630L593 470H320L308 412H543L505 232H270L257 174H530L494 0H-21L115 644Z" />
<glyph unicode="&#xcb;" glyph-name="Edieresis" horiz-adv-x="557" d="M227 859H382L352 718H197L227 859ZM461 859H617L587 718H431L461 859ZM115 644H630L593 470H320L308 412H543L505 232H270L257 174H530L494 0H-21L115 644Z" />
<glyph unicode="&#xcc;" glyph-name="Igrave" horiz-adv-x="312" d="M99 914H285L333 688H156L99 914ZM115 644H357L221 0H-21L115 644Z" />
<glyph unicode="&#xcd;" glyph-name="Iacute" horiz-adv-x="312" d="M297 914H483L330 688H153L297 914ZM115 644H357L221 0H-21L115 644Z" />
<glyph unicode="&#xce;" glyph-name="Icircumflex" horiz-adv-x="312" d="M221 904H362L491 688H330L276 795L181 688H1L221 904ZM115 644H357L221 0H-21L115 644Z" />
<glyph unicode="&#xcf;" glyph-name="Idieresis" horiz-adv-x="312" d="M89 869H244L214 728H59L89 869ZM323 869H479L449 728H293L323 869ZM115 644H357L221 0H-21L115 644Z" />
<glyph unicode="&#xd0;" glyph-name="Eth" horiz-adv-x="734" d="M73 238H19L52 392H106L159 644H465Q545 644 607 615T705 531T740 399Q740 366 730 318Q705 205 657 136T529 33T329 0H23L73 238ZM340 184Q382 184 409 194T454 234T484 318Q492 353 492 382Q492
421 471 433T395 446H359L347 392H439L406 238H315L304 184H340Z" />
<glyph unicode="&#xd1;" glyph-name="Ntilde" horiz-adv-x="695" d="M527 693T505 698T447 716Q419 726 399 731T359 737Q295 737 245 696L275 837Q294 851 324 861T385 872Q410 872 432 867T483 850Q514 839 533 834T576 828Q609 828 637 839T683 869L653 728Q640
714 611 704T551 693Q527 693 505 698ZM115 644H318L445 392L498 644H740L604 0H400L274 252L221 0H-21L115 644Z" />
<glyph unicode="&#xd2;" glyph-name="Ograve" horiz-adv-x="720" d="M310 914H496L544 688H367L310 914ZM165 -10T90 45T15 220Q15 265 27 322Q65 500 166 577T443 654Q581 654 655 600T729 427Q729 381 717 322Q679 144 579 67T301 -10Q165 -10 90 45ZM398 195T426
223T470 322Q479 367 479 385Q479 420 461 434T399 449Q346 449 318 421T274 322Q266 282 266 259Q266 224 284 210T345 195Q398 195 426 223Z" />
<glyph unicode="&#xd3;" glyph-name="Oacute" horiz-adv-x="720" d="M486 914H672L519 688H342L486 914ZM165 -10T90 45T15 220Q15 265 27 322Q65 500 166 577T443 654Q581 654 655 600T729 427Q729 381 717 322Q679 144 579 67T301 -10Q165 -10 90 45ZM398 195T426
223T470 322Q479 367 479 385Q479 420 461 434T399 449Q346 449 318 421T274 322Q266 282 266 259Q266 224 284 210T345 195Q398 195 426 223Z" />
<glyph unicode="&#xd4;" glyph-name="Ocircumflex" horiz-adv-x="720" d="M425 904H566L695 688H534L480 795L385 688H205L425 904ZM165 -10T90 45T15 220Q15 265 27 322Q65 500 166 577T443 654Q581 654 655 600T729 427Q729 381 717 322Q679 144 579 67T301
-10Q165 -10 90 45ZM398 195T426 223T470 322Q479 367 479 385Q479 420 461 434T399 449Q346 449 318 421T274 322Q266 282 266 259Q266 224 284 210T345 195Q398 195 426 223Z" />
<glyph unicode="&#xd5;" glyph-name="Otilde" horiz-adv-x="720" d="M538 713T516 718T458 736Q430 746 410 751T370 757Q306 757 256 716L286 857Q305 871 335 881T396 892Q421 892 443 887T494 870Q525 859 544 854T587 848Q620 848 648 859T694 889L664 748Q651
734 622 724T562 713Q538 713 516 718ZM165 -10T90 45T15 220Q15 265 27 322Q65 500 166 577T443 654Q581 654 655 600T729 427Q729 381 717 322Q679 144 579 67T301 -10Q165 -10 90 45ZM398 195T426 223T470 322Q479 367 479 385Q479 420 461 434T399 449Q346
449 318 421T274 322Q266 282 266 259Q266 224 284 210T345 195Q398 195 426 223Z" />
<glyph unicode="&#xd6;" glyph-name="Odieresis" horiz-adv-x="720" d="M291 859H446L416 718H261L291 859ZM525 859H681L651 718H495L525 859ZM165 -10T90 45T15 220Q15 265 27 322Q65 500 166 577T443 654Q581 654 655 600T729 427Q729 381 717 322Q679 144
579 67T301 -10Q165 -10 90 45ZM398 195T426 223T470 322Q479 367 479 385Q479 420 461 434T399 449Q346 449 318 421T274 322Q266 282 266 259Q266 224 284 210T345 195Q398 195 426 223Z" />
<glyph unicode="&#xd7;" glyph-name="multiply" horiz-adv-x="439" d="M194 138L89 52L-3 167L102 253L31 343L172 459L240 368L350 457L440 342L331 252L402 162L264 48L194 138Z" />
<glyph unicode="&#xd8;" glyph-name="Oslash" horiz-adv-x="720" d="M143 16Q15 67 15 219Q15 265 27 322Q65 500 166 577T443 654Q485 654 534 647L563 693H640L600 629Q729 580 729 427Q729 381 717 322Q679 144 579 67T301 -10Q254 -10 208 -2L177 -53H100L143
16ZM415 454Q410 455 400 455Q344 455 315 425T269 322Q261 285 261 263Q261 237 270 220L415 454ZM344 189Q400 189 429 219T475 322Q482 354 482 381Q482 408 473 425L327 189H344Z" />
<glyph unicode="&#xd9;" glyph-name="Ugrave" horiz-adv-x="704" d="M297 914H483L531 688H354L297 914ZM168 -10T95 46T22 200Q22 228 28 258L110 644H352L276 285Q270 260 270 242Q270 215 285 205T337 195Q382 195 404 216T436 285L512 644H754L671 254Q644
124 549 57T293 -10Q168 -10 95 46Z" />
<glyph unicode="&#xda;" glyph-name="Uacute" horiz-adv-x="704" d="M498 914H684L531 688H354L498 914ZM168 -10T95 46T22 200Q22 228 28 258L110 644H352L276 285Q270 260 270 242Q270 215 285 205T337 195Q382 195 404 216T436 285L512 644H754L671 254Q644
124 549 57T293 -10Q168 -10 95 46Z" />
<glyph unicode="&#xdb;" glyph-name="Ucircumflex" horiz-adv-x="704" d="M417 904H558L687 688H526L472 795L377 688H197L417 904ZM168 -10T95 46T22 200Q22 228 28 258L110 644H352L276 285Q270 260 270 242Q270 215 285 205T337 195Q382 195 404 216T436 285L512
644H754L671 254Q644 124 549 57T293 -10Q168 -10 95 46Z" />
<glyph unicode="&#xdc;" glyph-name="Udieresis" horiz-adv-x="704" d="M283 859H438L408 718H253L283 859ZM517 859H673L643 718H487L517 859ZM168 -10T95 46T22 200Q22 228 28 258L110 644H352L276 285Q270 260 270 242Q270 215 285 205T337 195Q382 195 404
216T436 285L512 644H754L671 254Q644 124 549 57T293 -10Q168 -10 95 46Z" />
<glyph unicode="&#xdd;" glyph-name="Yacute" horiz-adv-x="738" d="M514 914H700L547 688H370L514 914ZM241 234L95 644H340L399 439L544 644H803L483 234L434 0H192L241 234Z" />
<glyph unicode="&#xde;" glyph-name="Thorn" horiz-adv-x="636" d="M115 644H357L342 572H462Q555 572 607 519T659 380Q659 351 653 321Q629 209 553 141T352 72H236L221 0H-21L115 644ZM335 261Q364 261 382 277T407 321Q409 329 409 342Q409 383 365 383H302L276
261H335Z" />
<glyph unicode="&#xdf;" glyph-name="germandbls" horiz-adv-x="657" d="M319 -10T285 -4T233 12L266 166Q276 162 293 160T325 157Q372 157 382 207Q383 211 383 218Q383 247 338 247H284L316 397H358Q422 397 434 449Q435 453 435 459Q435 496 376 496Q339 496
319 478T292 430L201 0H-26L69 448Q97 577 180 638T407 700Q495 700 553 674T639 605T667 508Q667 487 662 462Q642 370 573 326Q602 310 616 289T630 232Q630 216 627 195Q596 -10 357 -10Q319 -10 285 -4Z" />
<glyph unicode="&#xe0;" glyph-name="agrave" horiz-adv-x="628" d="M215 748H401L449 522H272L215 748ZM86 -10T41 29T-4 146Q-4 174 4 216Q31 344 104 414T289 484Q324 484 351 475T394 449L399 474H637L537 0H327L322 31Q291 12 251 1T168 -10Q86 -10 41 29ZM312
163T332 178L357 296Q349 304 341 307T319 311Q271 311 253 224Q250 208 250 197Q250 177 259 170T287 163Q312 163 332 178Z" />
<glyph unicode="&#xe1;" glyph-name="aacute" horiz-adv-x="628" d="M406 748H592L439 522H262L406 748ZM86 -10T41 29T-4 146Q-4 174 4 216Q31 344 104 414T289 484Q324 484 351 475T394 449L399 474H637L537 0H327L322 31Q291 12 251 1T168 -10Q86 -10 41 29ZM312
163T332 178L357 296Q349 304 341 307T319 311Q271 311 253 224Q250 208 250 197Q250 177 259 170T287 163Q312 163 332 178Z" />
<glyph unicode="&#xe2;" glyph-name="acircumflex" horiz-adv-x="628" d="M333 738H474L603 522H442L388 629L293 522H113L333 738ZM86 -10T41 29T-4 146Q-4 174 4 216Q31 344 104 414T289 484Q324 484 351 475T394 449L399 474H637L537 0H327L322 31Q291 12 251
1T168 -10Q86 -10 41 29ZM312 163T332 178L357 296Q349 304 341 307T319 311Q271 311 253 224Q250 208 250 197Q250 177 259 170T287 163Q312 163 332 178Z" />
<glyph unicode="&#xe3;" glyph-name="atilde" horiz-adv-x="628" d="M455 527T433 532T375 550Q347 560 327 565T287 571Q223 571 173 530L203 671Q222 685 252 695T313 706Q338 706 360 701T411 684Q442 673 461 668T504 662Q537 662 565 673T611 703L581 562Q568
548 539 538T479 527Q455 527 433 532ZM86 -10T41 29T-4 146Q-4 174 4 216Q31 344 104 414T289 484Q324 484 351 475T394 449L399 474H637L537 0H327L322 31Q291 12 251 1T168 -10Q86 -10 41 29ZM312 163T332 178L357 296Q349 304 341 307T319 311Q271 311 253
224Q250 208 250 197Q250 177 259 170T287 163Q312 163 332 178Z" />
<glyph unicode="&#xe4;" glyph-name="adieresis" horiz-adv-x="628" d="M212 693H367L337 552H182L212 693ZM446 693H602L572 552H416L446 693ZM86 -10T41 29T-4 146Q-4 174 4 216Q31 344 104 414T289 484Q324 484 351 475T394 449L399 474H637L537 0H327L322
31Q291 12 251 1T168 -10Q86 -10 41 29ZM312 163T332 178L357 296Q349 304 341 307T319 311Q271 311 253 224Q250 208 250 197Q250 177 259 170T287 163Q312 163 332 178Z" />
<glyph unicode="&#xe5;" glyph-name="aring" horiz-adv-x="628" d="M314 522T281 553T248 633Q248 649 251 665Q264 728 312 768T434 809Q494 809 527 778T561 698Q561 687 557 665Q544 602 495 562T373 522Q314 522 281 553ZM423 614T440 633T458 678Q458 695
447 705T414 716Q383 716 366 697T348 652Q348 635 359 625T392 614Q423 614 440 633ZM86 -10T41 29T-4 146Q-4 174 4 216Q31 344 104 414T289 484Q324 484 351 475T394 449L399 474H637L537 0H327L322 31Q291 12 251 1T168 -10Q86 -10 41 29ZM312 163T332 178L357
296Q349 304 341 307T319 311Q271 311 253 224Q250 208 250 197Q250 177 259 170T287 163Q312 163 332 178Z" />
<glyph unicode="&#xe6;" glyph-name="ae" horiz-adv-x="889" d="M83 -10T35 20T-14 112Q-14 131 -10 148Q24 310 230 310H336L337 315Q340 327 320 335T258 343Q219 343 173 337T86 318L114 448Q156 464 214 474T329 484Q375 484 414 472T477 437Q510 458 558
471T652 484Q758 484 817 439T877 310Q877 283 871 253L854 172H538Q562 132 669 132Q711 132 754 139T827 156L799 26Q717 -10 579 -10Q527 -10 479 9T404 62Q361 26 306 8T162 -10Q83 -10 35 20ZM673 293L675 302Q676 305 676 310Q676 324 665 332T630 341Q602
341 586 328T564 293H673ZM279 122T301 144L310 188H266Q243 188 231 181T214 155Q213 152 213 146Q213 122 242 122Q279 122 301 144Z" />
<glyph unicode="&#xe7;" glyph-name="ccedilla" horiz-adv-x="520" d="M164 -240T136 -238T97 -232L114 -155Q140 -163 170 -163Q203 -163 222 -154T244 -128Q251 -100 213 -100H139L185 -5Q101 7 52 53T2 178Q2 208 9 237Q36 362 124 423T356 484Q414 484 459
476T542 449L506 281Q452 311 374 311Q321 311 293 294T256 237Q253 222 253 211Q253 185 273 174T344 163Q412 163 491 201L454 25Q386 -3 304 -8L288 -37Q330 -37 353 -57T377 -111Q377 -126 375 -133Q364 -183 315 -211T183 -240Q164 -240 136 -238Z" />
<glyph unicode="&#xe8;" glyph-name="egrave" horiz-adv-x="567" d="M198 748H384L432 522H255L198 748ZM182 -10T125 12T35 79T2 184Q2 208 8 235Q34 356 109 420T330 484Q397 484 448 461T526 395T554 299Q554 280 549 253L532 172H216Q228 152 257 142T347
132Q389 132 432 139T505 156L477 26Q395 -10 251 -10Q182 -10 125 12ZM351 293L353 302Q354 305 354 311Q354 341 308 341Q254 341 242 293H351Z" />
<glyph unicode="&#xe9;" glyph-name="eacute" horiz-adv-x="567" d="M405 748H591L438 522H261L405 748ZM182 -10T125 12T35 79T2 184Q2 208 8 235Q34 356 109 420T330 484Q397 484 448 461T526 395T554 299Q554 280 549 253L532 172H216Q228 152 257 142T347
132Q389 132 432 139T505 156L477 26Q395 -10 251 -10Q182 -10 125 12ZM351 293L353 302Q354 305 354 311Q354 341 308 341Q254 341 242 293H351Z" />
<glyph unicode="&#xea;" glyph-name="ecircumflex" horiz-adv-x="567" d="M318 738H459L588 522H427L373 629L278 522H98L318 738ZM182 -10T125 12T35 79T2 184Q2 208 8 235Q34 356 109 420T330 484Q397 484 448 461T526 395T554 299Q554 280 549 253L532 172H216Q228
152 257 142T347 132Q389 132 432 139T505 156L477 26Q395 -10 251 -10Q182 -10 125 12ZM351 293L353 302Q354 305 354 311Q354 341 308 341Q254 341 242 293H351Z" />
<glyph unicode="&#xeb;" glyph-name="edieresis" horiz-adv-x="567" d="M184 693H339L309 552H154L184 693ZM418 693H574L544 552H388L418 693ZM182 -10T125 12T35 79T2 184Q2 208 8 235Q34 356 109 420T330 484Q397 484 448 461T526 395T554 299Q554 280 549
253L532 172H216Q228 152 257 142T347 132Q389 132 432 139T505 156L477 26Q395 -10 251 -10Q182 -10 125 12ZM351 293L353 302Q354 305 354 311Q354 341 308 341Q254 341 242 293H351Z" />
<glyph unicode="&#xec;" glyph-name="igrave" horiz-adv-x="378" d="M126 748H312L360 522H183L126 748ZM108 300H42L99 474H387L287 0H45L108 300Z" />
<glyph unicode="&#xed;" glyph-name="iacute" horiz-adv-x="378" d="M316 748H502L349 522H172L316 748ZM108 300H42L99 474H387L287 0H45L108 300Z" />
<glyph unicode="&#xee;" glyph-name="icircumflex" horiz-adv-x="378" d="M234 738H375L504 522H343L289 629L194 522H14L234 738ZM108 300H42L99 474H387L287 0H45L108 300Z" />
<glyph unicode="&#xef;" glyph-name="idieresis" horiz-adv-x="378" d="M93 693H248L218 552H63L93 693ZM327 693H483L453 552H297L327 693ZM108 300H42L99 474H387L287 0H45L108 300Z" />
<glyph unicode="&#xf0;" glyph-name="eth" horiz-adv-x="610" d="M120 -10T59 33T-3 156Q-3 184 2 205Q25 311 91 360T279 410Q309 410 340 403T389 385L392 398Q399 428 399 445Q399 451 397 463L298 424L309 479L358 498Q338 505 299 505Q260 505 223 497T144
471L176 623Q261 654 373 654Q506 654 569 581L660 617L648 562L596 541Q617 499 617 436Q617 394 609 358L588 259Q558 123 477 57T241 -10Q120 -10 59 33ZM307 146T326 162T353 215L360 247Q326 265 296 265Q260 265 242 250T217 205Q215 193 215 187Q215 146
273 146Q307 146 326 162Z" />
<glyph unicode="&#xf1;" glyph-name="ntilde" horiz-adv-x="626" d="M448 527T426 532T368 550Q340 560 320 565T280 571Q216 571 166 530L196 671Q215 685 245 695T306 706Q331 706 353 701T404 684Q435 673 454 668T497 662Q530 662 558 673T604 703L574 562Q561
548 532 538T472 527Q448 527 426 532ZM79 474H306V447Q337 462 384 473T480 484Q544 484 577 454T611 364Q611 336 604 305L540 0H298L356 274Q357 278 357 284Q357 306 330 306Q319 306 305 300T281 286L221 0H-21L79 474Z" />
<glyph unicode="&#xf2;" glyph-name="ograve" horiz-adv-x="627" d="M219 748H405L453 522H276L219 748ZM133 -10T68 36T2 174Q2 205 9 237Q36 361 121 422T359 484Q482 484 547 438T613 300Q613 269 606 237Q579 112 495 51T254 -10Q133 -10 68 36ZM318 163T334
179T359 237Q363 256 363 271Q363 293 353 302T323 311Q297 311 281 295T256 237Q252 218 252 202Q252 181 261 172T291 163Q318 163 334 179Z" />
<glyph unicode="&#xf3;" glyph-name="oacute" horiz-adv-x="627" d="M402 748H588L435 522H258L402 748ZM133 -10T68 36T2 174Q2 205 9 237Q36 361 121 422T359 484Q482 484 547 438T613 300Q613 269 606 237Q579 112 495 51T254 -10Q133 -10 68 36ZM318 163T334
179T359 237Q363 256 363 271Q363 293 353 302T323 311Q297 311 281 295T256 237Q252 218 252 202Q252 181 261 172T291 163Q318 163 334 179Z" />
<glyph unicode="&#xf4;" glyph-name="ocircumflex" horiz-adv-x="627" d="M343 738H484L613 522H452L398 629L303 522H123L343 738ZM133 -10T68 36T2 174Q2 205 9 237Q36 361 121 422T359 484Q482 484 547 438T613 300Q613 269 606 237Q579 112 495 51T254 -10Q133
-10 68 36ZM318 163T334 179T359 237Q363 256 363 271Q363 293 353 302T323 311Q297 311 281 295T256 237Q252 218 252 202Q252 181 261 172T291 163Q318 163 334 179Z" />
<glyph unicode="&#xf5;" glyph-name="otilde" horiz-adv-x="627" d="M456 547T434 552T376 570Q348 580 328 585T288 591Q224 591 174 550L204 691Q223 705 253 715T314 726Q339 726 361 721T412 704Q443 693 462 688T505 682Q538 682 566 693T612 723L582 582Q569
568 540 558T480 547Q456 547 434 552ZM133 -10T68 36T2 174Q2 205 9 237Q36 361 121 422T359 484Q482 484 547 438T613 300Q613 269 606 237Q579 112 495 51T254 -10Q133 -10 68 36ZM318 163T334 179T359 237Q363 256 363 271Q363 293 353 302T323 311Q297 311
281 295T256 237Q252 218 252 202Q252 181 261 172T291 163Q318 163 334 179Z" />
<glyph unicode="&#xf6;" glyph-name="odieresis" horiz-adv-x="627" d="M209 693H364L334 552H179L209 693ZM443 693H599L569 552H413L443 693ZM133 -10T68 36T2 174Q2 205 9 237Q36 361 121 422T359 484Q482 484 547 438T613 300Q613 269 606 237Q579 112 495
51T254 -10Q133 -10 68 36ZM318 163T334 179T359 237Q363 256 363 271Q363 293 353 302T323 311Q297 311 281 295T256 237Q252 218 252 202Q252 181 261 172T291 163Q318 163 334 179Z" />
<glyph unicode="&#xf7;" glyph-name="divide" horiz-adv-x="434" d="M205 566H356L326 426H175L205 566ZM41 389H445L406 205H2L41 389ZM120 169H271L242 29H91L120 169Z" />
<glyph unicode="&#xf8;" glyph-name="oslash" horiz-adv-x="627" d="M126 7Q2 49 2 173Q2 205 9 237Q36 361 121 422T359 484Q381 484 419 480L449 528H526L488 466Q549 446 581 405T613 300Q613 268 606 237Q579 112 495 51T254 -10Q232 -10 194 -6L165 -54H88L126
7ZM327 331Q292 331 269 310T235 237Q230 218 230 199Q230 191 232 179L327 331ZM322 143T345 164T380 237Q384 257 384 275Q384 290 382 296L287 143Q322 143 345 164Z" />
<glyph unicode="&#xf9;" glyph-name="ugrave" horiz-adv-x="626" d="M242 748H428L476 522H299L242 748ZM80 -10T42 24T4 123Q4 147 10 174L74 474H316L258 200Q257 196 257 189Q257 168 284 168Q295 168 309 174T332 188L393 474H635L535 0H308V27Q277 10 234
0T145 -10Q80 -10 42 24Z" />
<glyph unicode="&#xfa;" glyph-name="uacute" horiz-adv-x="626" d="M398 748H584L431 522H254L398 748ZM80 -10T42 24T4 123Q4 147 10 174L74 474H316L258 200Q257 196 257 189Q257 168 284 168Q295 168 309 174T332 188L393 474H635L535 0H308V27Q277 10 234
0T145 -10Q80 -10 42 24Z" />
<glyph unicode="&#xfb;" glyph-name="ucircumflex" horiz-adv-x="626" d="M339 738H480L609 522H448L394 629L299 522H119L339 738ZM80 -10T42 24T4 123Q4 147 10 174L74 474H316L258 200Q257 196 257 189Q257 168 284 168Q295 168 309 174T332 188L393 474H635L535
0H308V27Q277 10 234 0T145 -10Q80 -10 42 24Z" />
<glyph unicode="&#xfc;" glyph-name="udieresis" horiz-adv-x="626" d="M208 693H363L333 552H178L208 693ZM442 693H598L568 552H412L442 693ZM80 -10T42 24T4 123Q4 147 10 174L74 474H316L258 200Q257 196 257 189Q257 168 284 168Q295 168 309 174T332 188L393
474H635L535 0H308V27Q277 10 234 0T145 -10Q80 -10 42 24Z" />
<glyph unicode="&#xfd;" glyph-name="yacute" horiz-adv-x="626" d="M419 748H605L452 522H275L419 748ZM111 -176T62 -173T-5 -166L29 -9Q48 -14 79 -18T134 -22Q214 -22 259 -8T308 27L312 43Q280 26 238 16T149 6Q84 6 47 42T9 141Q9 169 14 190L74 474H316L261
216Q260 213 260 207Q260 184 288 184Q299 184 313 190T336 204L393 474H635L551 78Q525 -47 430 -111T138 -176Q111 -176 62 -173Z" />
<glyph unicode="&#xfe;" glyph-name="thorn" horiz-adv-x="628" d="M127 700H369L320 466Q340 473 374 478T435 484Q523 484 568 438T614 307Q614 271 607 236Q584 110 513 50T321 -10Q295 -10 268 -5T222 8L175 -216H-66L127 700ZM320 163T336 181T361 240Q365
257 365 274Q365 295 356 303T329 311Q316 311 306 308T283 296L258 178Q266 170 275 167T297 163Q320 163 336 181Z" />
<glyph unicode="&#xff;" glyph-name="ydieresis" horiz-adv-x="626" d="M253 721H408L378 580H223L253 721ZM487 721H643L613 580H457L487 721ZM111 -176T62 -173T-5 -166L29 -9Q48 -14 79 -18T134 -22Q214 -22 259 -8T308 27L312 43Q280 26 238 16T149 6Q84 6
47 42T9 141Q9 169 14 190L74 474H316L261 216Q260 213 260 207Q260 184 288 184Q299 184 313 190T336 204L393 474H635L551 78Q525 -47 430 -111T138 -176Q111 -176 62 -173Z" />
<glyph unicode="&#x2013;" glyph-name="endash" horiz-adv-x="536" d="M41 389H547L508 205H2L41 389Z" />
<glyph unicode="&#x2014;" glyph-name="emdash" horiz-adv-x="770" d="M41 389H781L742 205H2L41 389Z" />
<glyph unicode="&#x2018;" glyph-name="quoteleft" horiz-adv-x="297" d="M184 654H365L243 401H44L184 654Z" />
<glyph unicode="&#x2019;" glyph-name="quoteright" horiz-adv-x="297" d="M166 654H365L225 401H44L166 654Z" />
<glyph unicode="&#x201a;" glyph-name="quotesinglbase" horiz-adv-x="297" d="M34 33H233L93 -220H-87L34 33Z" />
<glyph unicode="&#x201c;" glyph-name="quotedblleft" horiz-adv-x="474" d="M184 654H345L223 401H44L184 654ZM381 654H542L420 401H241L381 654Z" />
<glyph unicode="&#x201d;" glyph-name="quotedblright" horiz-adv-x="474" d="M166 654H345L205 401H44L166 654ZM363 654H542L402 401H241L363 654Z" />
<glyph unicode="&#x201e;" glyph-name="quotedblbase" horiz-adv-x="474" d="M60 159H239L100 -94H-60L60 159ZM257 159H436L297 -94H136L257 159Z" />
<glyph unicode="&#x2022;" glyph-name="bullet" horiz-adv-x="317" d="M81 144T49 175T16 255Q16 265 20 287Q28 326 54 359T117 411T193 431Q245 431 277 399T310 317Q310 302 307 287Q293 227 243 186T132 144Q81 144 49 175Z" />
<glyph unicode="&#x2039;" glyph-name="guilsinglleft" horiz-adv-x="398" d="M10 242L27 324L349 529L411 391L231 276L362 161L244 37L10 242Z" />
<glyph unicode="&#x203a;" glyph-name="guilsinglright" horiz-adv-x="398" d="M-6 175L175 290L43 405L161 529L395 324L378 242L56 37L-6 175Z" />
</font>
</defs>
</svg>
