<?xml version="1.0" standalone="no"?>
<!DOCTYPE svg PUBLIC "-//W3C//DTD SVG 1.1//EN" "http://www.w3.org/Graphics/SVG/1.1/DTD/svg11.dtd">
<svg xmlns="http://www.w3.org/2000/svg">
<defs >
<font id="Simonetta" horiz-adv-x="821" ><font-face
    font-family="Simonetta"
    units-per-em="2048"
    panose-1="2 0 5 4 7 0 0 2 0 3"
    ascent="1970"
    descent="-594"
    alphabetic="0" />
<glyph unicode=" " glyph-name="space" horiz-adv-x="444" />
<glyph unicode="!" glyph-name="exclam" horiz-adv-x="487" d="M369 1391Q357 1308 346 1222T326 1052T308 887T293 734Q277 566 266 406H209Q208 566 204 734Q202 806 200 886T195 1051T187 1222T176 1391Q195 1389 220 1388T272 1386Q298 1386 323 1387T369
1391ZM223 -20Q181 -20 153 6T125 86Q125 109 132 130T152 166T185 191T229 201Q270 201 298 174T326 94Q326 71 319 51T299 14T267 -11T223 -20Z" />
<glyph unicode="&quot;" glyph-name="quotedbl" horiz-adv-x="721" d="M657 1391L600 944H520L463 1391H657ZM297 1391L240 944H160L102 1391H297Z" />
<glyph unicode="#" glyph-name="numbersign" horiz-adv-x="1473" d="M614 1016H976L1042 1391H1176L1109 1016H1417L1415 946H1325Q1282 946 1224 946T1097 944L1013 471H1321L1319 401H1229Q1186 401 1128 401T1000 399L930 0H797L867 397Q779 396 688 394T503
390L434 0H301L369 386Q280 382 202 378T63 369L68 471H384L466 930Q377 927 299 923T160 913L164 1016H481L547 1391H680L614 1016ZM963 942Q875 941 783 939T599 935L517 471H880L963 942Z" />
<glyph unicode="$" glyph-name="dollar" horiz-adv-x="977" d="M455 41L476 644Q465 652 454 660T432 678Q388 712 335 752T236 842T158 950T127 1081Q127 1135 143 1194T202 1302T317 1384T503 1419L508 1554H582L577 1417Q658 1412 730 1399T858 1368L836 1067H778V1094Q778
1129 772 1169T744 1247T682 1311T574 1348L555 809Q621 762 681 715T786 615T859 503T887 371Q887 298 858 234T780 118T664 31T525 -19L518 -221H446L452 -28Q447 -29 442 -29T432 -29Q327 -29 231 -12T63 27L88 344H150V309Q150 267 160 220T200 133T286 67T436
41H455ZM289 1141Q289 1090 305 1050T349 977T411 915T483 860L500 1351Q452 1348 414 1333T347 1290T304 1225T289 1141ZM725 317Q725 360 711 397T671 468T614 532T547 589L528 53Q571 65 607 89T669 146T710 223T725 317Z" />
<glyph unicode="%" glyph-name="percent" horiz-adv-x="1397" d="M184 31L1079 1266Q1030 1241 952 1222T758 1202Q736 1202 715 1202T670 1204Q684 1170 690 1133T696 1053Q696 1001 685 948T654 845T603 753T535 679T450 629T350 610Q276 610 226 635T144 704T100
803T86 922Q86 969 96 1019T126 1116T175 1206T243 1281T329 1331T434 1350Q481 1350 518 1340T584 1311Q602 1301 655 1287T801 1272Q862 1272 913 1279T1006 1296T1079 1317T1133 1339L1188 1415L1245 1376L242 -16L184 31ZM709 311Q709 357 719 406T748 503T797
593T865 668T952 720T1057 739Q1128 739 1178 716T1259 652T1305 558T1319 442Q1319 364 1295 285T1226 143T1117 40T973 0Q898 0 848 25T767 93T723 192T709 311ZM1024 672Q971 672 934 642T873 564T838 461T827 354Q827 301 837 251T869 160T925 96T1006 72Q1060
72 1097 101T1158 175T1192 275T1202 381Q1202 429 1192 480T1160 574T1105 644T1024 672ZM401 1282Q346 1282 309 1250T248 1171T215 1068T205 965Q205 912 215 861T247 770T302 706T383 682Q439 682 476 712T537 788T570 888T580 991Q580 1039 570 1090T538 1184T482
1254T401 1282Z" />
<glyph unicode="&amp;" glyph-name="ampersand" horiz-adv-x="1587" d="M614 1346Q566 1346 532 1325T475 1268T441 1186T430 1092Q430 1059 438 1027T459 962T491 899T528 836Q579 870 622 907T696 985T746 1069T764 1161Q764 1197 756 1230T729 1289T682 1330T614
1346ZM530 84Q593 84 664 119T807 236Q757 288 708 340T611 448T519 562T434 688Q374 649 335 612T272 536T239 456T229 367Q229 308 250 257T312 167T407 107T530 84ZM940 324Q972 292 1021 253T1128 179T1244 120T1356 96Q1398 96 1436 105T1518 145L1544 109Q1518
83 1487 60T1422 19T1351 -9T1278 -20Q1219 -20 1161 0T1048 51T943 120T848 195Q803 136 753 96T652 29T549 -8T449 -20Q371 -20 305 3T189 70T112 176T84 315Q84 351 89 388T110 465T154 544T229 623Q250 641 271 656T313 686T357 716T401 748Q381 778 365 812T338
883T321 956T315 1026Q315 1116 352 1197T461 1343Q513 1388 567 1403T680 1419Q728 1419 768 1403T839 1358T886 1288T903 1198Q903 1149 886 1100T815 993Q784 961 753 934T689 881T625 832T559 780Q630 665 713 557T893 360L1069 668Q1127 768 1176 826T1265
915T1338 953T1397 961Q1422 961 1439 954T1467 934T1482 908T1487 881Q1487 864 1483 845T1466 807Q1445 815 1425 818T1384 821Q1315 821 1259 779T1155 662L940 324Z" />
<glyph unicode="&apos;" glyph-name="quotesingle" horiz-adv-x="360" d="M240 944H160L102 1391H297L240 944Z" />
<glyph unicode="(" glyph-name="parenleft" horiz-adv-x="684" d="M715 1456Q598 1372 503 1267T341 1039T238 780T201 498Q201 370 229 255T314 33T455 -174T651 -371L623 -416Q489 -334 384 -237T207 -27T97 217T59 498Q59 654 102 800T226 1076T425 1314T690
1501L715 1456Z" />
<glyph unicode=")" glyph-name="parenright" horiz-adv-x="682" d="M-35 -371Q82 -286 176 -181T338 47T442 306T479 588Q479 715 451 830T366 1052T225 1259T29 1456L57 1501Q191 1419 296 1322T473 1112T583 869T621 588Q621 432 578 285T454 9T255 -229T-10
-416L-35 -371Z" />
<glyph unicode="*" glyph-name="asterisk" horiz-adv-x="944" d="M106 1157Q132 1192 149 1221T180 1276L455 1071L428 1419Q444 1417 461 1416T496 1415Q513 1415 532 1415T569 1419L518 1067L811 1274Q830 1234 844 1206T874 1151L553 1018L862 868Q854 857
845 842T825 811T804 780T786 752L514 965L537 610Q526 610 515 611Q505 611 493 611T469 612Q461 612 440 612T399 610L455 963L162 754Q155 767 147 782T130 814T113 846T96 874L422 1016L106 1157Z" />
<glyph unicode="+" glyph-name="plus" horiz-adv-x="1085" d="M496 696V1118H594V696H1016V598H594V176H496V598H74V696H496Z" />
<glyph unicode="," glyph-name="comma" horiz-adv-x="432" d="M61 -270Q87 -252 112 -230T156 -183T187 -129T199 -68Q199 -35 189 -9T161 36T123 70T80 92Q80 110 86 128T106 163T141 189T190 199Q214 199 237 190T278 162T308 111T319 37Q319 0 309 -43T272
-133T203 -225T92 -313L61 -270Z" />
<glyph unicode="-" glyph-name="hyphen" horiz-adv-x="844" d="M702 545L698 430H133L137 545H702Z" />
<glyph unicode="." glyph-name="period" horiz-adv-x="406" d="M184 -20Q142 -20 114 6T86 86Q86 109 93 130T113 166T146 191T190 201Q231 201 259 174T287 94Q287 71 280 51T260 14T228 -11T184 -20Z" />
<glyph unicode="/" glyph-name="slash" horiz-adv-x="1018" d="M1004 1473L123 -356H12L893 1473H1004Z" />
<glyph unicode="0" glyph-name="zero" horiz-adv-x="1157" d="M590 1346Q516 1346 462 1316T369 1235T308 1119T271 986T253 850T248 729Q248 664 254 588T276 435T316 289T379 164T468 78T588 45Q661 45 713 80T801 174T860 308T893 464T909 623T913 768Q913
905 894 1001T844 1162T777 1263T704 1318T638 1341T590 1346ZM102 662Q102 751 114 841T152 1015T218 1173T315 1301T445 1387T612 1419Q688 1419 751 1394T865 1325T953 1221T1015 1092T1052 948T1065 797Q1065 720 1054 629T1019 445T957 268T865 116T740 11T578
-29Q493 -29 424 -2T303 73T212 186T150 328T114 490T102 662Z" />
<glyph unicode="1" glyph-name="one" horiz-adv-x="676" d="M324 1239Q292 1219 252 1197Q218 1178 173 1156T76 1112L51 1163Q101 1186 146 1211T237 1266T328 1333T424 1419H483Q478 1261 473 1114T464 838T455 599T448 408T444 275T442 209Q442 165 448 138T467
96T499 73T543 63L586 57V0Q564 3 533 7Q507 9 469 11T381 14Q330 14 269 11T133 0V57Q159 59 179 61T215 65T248 68T283 70L324 1239Z" />
<glyph unicode="2" glyph-name="two" horiz-adv-x="1014" d="M465 1323Q354 1323 299 1267T244 1116Q244 1091 247 1065T258 1010Q241 993 221 984T180 975Q148 975 123 998T98 1069Q98 1108 117 1149T168 1230T245 1303T339 1363T444 1404T553 1419Q633 1419
696 1395T803 1326T870 1221T893 1085Q893 1003 859 912T746 708T541 452T227 123L690 139Q724 140 750 143T798 162T837 211T874 305L932 297Q919 250 909 212T892 139T879 71T868 0H66L47 39Q118 117 196 195T350 355T494 519T615 689T698 866T729 1053Q729 1185
659 1254T465 1323Z" />
<glyph unicode="3" glyph-name="three" horiz-adv-x="983" d="M252 -29Q221 -29 185 -24T118 -7T66 27T45 82Q45 111 62 139T104 188Q158 131 221 103T342 74Q420 74 492 98T619 170T706 292T739 465Q739 590 667 656T463 723Q447 723 428 722T388 717T348 709T311
698L295 758L346 774Q394 789 449 817T552 889T631 993T662 1135Q662 1173 649 1207T611 1268T547 1309T457 1325Q409 1325 369 1313T294 1280T226 1234T162 1182L123 1227Q159 1262 200 1296T290 1358T400 1402T535 1419Q604 1419 656 1402T744 1353T797 1279T815
1184Q815 1122 789 1066T725 961T644 877T565 821Q649 822 711 798T814 733T875 636T895 518Q895 433 867 359T790 224T677 116T541 37T395 -12T252 -29Z" />
<glyph unicode="4" glyph-name="four" horiz-adv-x="1016" d="M604 455H14L16 516L723 1419L782 1386L753 556Q801 559 841 561T910 566Q943 569 971 571L924 455H750Q746 355 745 290T743 209Q743 165 749 139T767 97T797 74T842 63L885 57V0Q864 3 835 7Q810
9 773 11T686 14Q637 14 576 11T440 0V57Q466 59 486 61T523 65T556 68T590 70L604 455ZM121 532Q179 532 240 533T364 536T488 541T607 547L631 1184L121 532Z" />
<glyph unicode="5" glyph-name="five" horiz-adv-x="950" d="M860 498Q860 416 832 345T757 216T647 112T516 35T377 -12T242 -29Q213 -29 178 -24T111 -7T60 29T39 88Q39 106 46 122T62 152T82 175T98 190Q145 139 209 108T350 76Q422 76 487 101T601 173T680
289T709 444Q709 587 630 655T395 723Q370 723 341 721T283 716T228 709T182 700L164 719L248 1391H688Q727 1391 753 1400T797 1425T828 1460T850 1497L903 1475Q887 1441 876 1418T854 1371T833 1320T807 1251H313L258 817Q295 826 342 833T449 840Q528 840 602
822T733 762T825 656T860 498Z" />
<glyph unicode="6" glyph-name="six" horiz-adv-x="1042" d="M909 1368Q807 1320 709 1256T527 1111T378 934T276 727Q351 780 431 804T610 829Q676 829 740 808T856 741T939 625T971 455Q971 339 930 249T821 97T671 3T504 -29Q411 -29 334 5T201 102T115 257T84
463Q84 577 112 681T193 877T318 1051T480 1200T671 1323T883 1419L909 1368ZM522 723Q444 723 381 704T258 653Q247 611 243 571T238 483Q238 367 263 284T330 148T425 70T535 45Q583 45 634 63T727 125T796 241T823 420Q823 491 803 547T743 643T648 702T522
723Z" />
<glyph unicode="7" glyph-name="seven" horiz-adv-x="883" d="M135 51Q212 188 298 340T471 649T641 963T793 1266L324 1249Q278 1247 247 1242T194 1217T152 1159T111 1053L55 1069Q81 1163 96 1240T123 1391H891L915 1358Q728 966 574 616T287 -29L135 51Z" />
<glyph unicode="8" glyph-name="eight" horiz-adv-x="1012" d="M895 1137Q895 1078 875 1024T821 922T744 830T655 748Q704 710 750 670T831 585T887 487T909 373Q909 282 871 208T770 82T623 0T449 -29Q374 -29 307 -8T190 54T110 154T80 291Q80 365 108 430T181
554T283 663T399 760Q350 798 308 835T236 912T188 996T170 1092Q170 1165 203 1225T291 1329T416 1395T559 1419Q625 1419 685 1402T792 1349T867 1261T895 1137ZM453 719Q408 686 366 647T292 560T239 459T219 340Q219 275 238 221T294 128T381 67T494 45Q545
45 593 64T678 117T737 200T760 307Q760 377 733 434T666 537T579 620T496 686L453 719ZM518 1346Q477 1346 440 1334T373 1297T327 1238T309 1155Q309 1099 337 1048T408 951T497 869T580 805L604 786Q636 813 665 845T717 913T753 989T766 1075Q766 1131 747
1180T695 1266T617 1324T518 1346Z" />
<glyph unicode="9" glyph-name="nine" horiz-adv-x="1038" d="M135 23Q240 71 340 138T525 288T675 472T774 686Q700 632 619 607T438 582Q373 582 309 603T195 670T113 786T82 956Q82 1072 122 1159T227 1303T375 1390T541 1419Q634 1419 711 1385T843 1288T930
1133T961 928Q961 757 898 609T727 340T473 125T162 -29L135 23ZM526 688Q608 688 671 707T793 760Q801 797 804 832T807 907Q807 1023 782 1106T715 1242T620 1321T510 1346Q462 1346 412 1328T322 1268T255 1158T229 991Q229 920 249 864T308 768T402 709T526
688Z" />
<glyph unicode=":" glyph-name="colon" horiz-adv-x="451" d="M231 676Q189 676 161 702T133 782Q133 805 140 826T160 862T193 887T238 897Q278 897 306 870T334 791Q334 768 327 747T307 710T275 685T231 676ZM205 -20Q163 -20 135 6T106 86Q106 109 113 130T133
166T166 191T211 201Q251 201 279 174T307 94Q307 71 300 51T280 14T248 -11T205 -20Z" />
<glyph unicode=";" glyph-name="semicolon" horiz-adv-x="485" d="M240 676Q198 676 170 702T141 782Q141 805 148 826T168 862T201 887T246 897Q286 897 314 870T342 791Q342 768 335 747T315 710T283 685T240 676ZM92 -270Q118 -252 143 -230T187 -183T217 -129T229
-68Q229 -35 219 -9T192 36T154 70T111 92Q111 110 117 128T137 163T171 189T221 199Q245 199 268 190T309 162T339 111T350 37Q350 0 340 -43T303 -133T234 -225T123 -313L92 -270Z" />
<glyph unicode="&lt;" glyph-name="less" horiz-adv-x="1120" d="M70 694L946 1139L991 1051L207 651L991 254L946 166L70 610V694Z" />
<glyph unicode="=" glyph-name="equal" horiz-adv-x="1290" d="M1118 553V455H176V553H1118ZM1118 842V743H176V842H1118Z" />
<glyph unicode="&gt;" glyph-name="greater" horiz-adv-x="1122" d="M1057 610L180 166L135 254L920 651L135 1051L180 1139L1057 694V610Z" />
<glyph unicode="?" glyph-name="question" horiz-adv-x="756" d="M233 1098Q230 1097 227 1097Q223 1096 213 1096Q199 1096 180 1099T144 1113T114 1141T102 1190Q102 1241 127 1281T194 1351T288 1395T393 1411Q465 1411 520 1388T613 1324T670 1232T690 1122Q690
1063 672 1016T624 930T557 861T479 803T402 752T334 702T286 649T268 588Q268 541 298 521T379 500Q401 500 426 505T477 526L487 514Q482 490 473 466T447 422T409 390T356 377Q293 377 253 424T213 561Q213 622 232 673T285 770T367 860T473 954Q499 976 523
998T565 1047T595 1104T606 1174Q606 1207 596 1238T564 1295T508 1335T424 1350Q375 1350 339 1333T278 1286T241 1219T229 1141Q229 1130 230 1120T233 1098ZM326 -20Q284 -20 256 6T227 86Q227 109 234 130T254 166T287 191T332 201Q372 201 400 174T428 94Q428
71 421 51T401 14T369 -11T326 -20Z" />
<glyph unicode="@" glyph-name="at" horiz-adv-x="1536" d="M1063 141Q1127 154 1185 194T1288 294T1358 431T1384 596Q1384 706 1348 794T1246 943T1088 1038T881 1071Q785 1071 698 1048T537 981T402 876T298 740T232 576T209 391Q209 250 253 134T379 -64T576
-191T831 -236Q889 -236 944 -229T1054 -206T1165 -166T1284 -109L1309 -168Q1165 -245 1036 -282T780 -319Q632 -319 505 -269T285 -127T139 91T86 369Q86 480 113 580T190 767T310 923T468 1042T657 1118T872 1145Q1007 1145 1116 1106T1302 996T1422 823T1464
596Q1464 488 1424 390T1316 215T1155 94T958 49L928 80Q931 101 935 141T944 230T952 330T958 422L944 426Q910 358 865 296T767 183T660 97T551 49L461 80Q459 102 458 122T457 164Q457 254 474 339T523 498T597 634T690 740T795 809T907 834Q935 834 958 833T1003
828T1046 820T1092 809Q1083 720 1078 638T1069 474T1065 310T1063 141ZM958 709Q934 717 903 723T844 729Q781 729 734 695T656 600T610 453T594 264Q594 241 594 218T596 170Q620 173 655 190T728 237T806 310T877 406T930 523T956 657L958 709Z" />
<glyph unicode="A" glyph-name="A" horiz-adv-x="1266" d="M604 1169L393 555H801L633 1169H604ZM692 1442L1030 348Q1067 226 1111 152T1221 66L1276 57L1274 0Q1223 6 1164 9T1042 12Q976 12 913 9T793 0L795 57L936 70L821 485H782Q755 485 711 485T612 482T492
476T360 465L305 311Q287 263 274 220T260 145Q260 113 277 93T336 66L395 57L393 0Q339 6 290 10T186 14Q132 14 74 10T-55 0L-53 57Q-24 60 2 63Q25 65 48 67T86 70Q127 156 171 258T262 472T355 704T447 945T533 1186T612 1419L692 1442Z" />
<glyph unicode="B" glyph-name="B" horiz-adv-x="1128" d="M944 1106Q944 1044 925 991T876 894T807 814T731 753Q814 731 874 696T973 615T1030 514T1049 395Q1049 318 1022 245T939 115T801 23T608 -12Q568 -12 528 -9T448 -1T367 8T285 12Q237 12 183 9T59
0L61 57Q87 59 107 61T144 65T177 68T211 70Q221 373 229 613Q232 715 235 814T242 991T246 1119T248 1174Q248 1220 242 1248T223 1293T191 1316T147 1327L104 1333L106 1391Q130 1387 160 1383Q186 1380 220 1378T295 1376Q338 1376 370 1380T436 1388T508 1397T604
1401Q696 1401 761 1376T866 1310T925 1216T944 1106ZM387 713Q383 581 379 475Q377 430 376 385T374 304T372 242T371 209Q371 167 380 137T411 86T472 55T571 45Q587 45 617 48T682 61T753 93T818 150T866 239T885 369Q885 443 863 507T793 618T672 692T496 719Q442
719 387 713ZM446 784Q497 784 542 781T630 772Q664 796 692 827T742 894T774 973T786 1061Q786 1127 768 1178T718 1264T643 1317T549 1335Q520 1335 490 1335T420 1329Q417 1300 414 1257T406 1162T399 1057T395 952L389 784H446Z" />
<glyph unicode="C" glyph-name="C" horiz-adv-x="1411" d="M918 1346Q793 1346 678 1305T474 1185T332 989T279 721Q279 608 307 515T383 348T495 219T633 128T785 73T940 55Q988 55 1028 58T1108 68T1193 88T1292 119L1311 61Q1258 35 1198 18T1078 -9T965 -24T868
-29Q759 -29 659 -6T473 61T317 166T196 305T119 473T92 666Q92 776 119 874T196 1056T319 1207T482 1322T679 1394T905 1419Q1056 1419 1168 1402T1366 1362L1337 1028H1276V1044Q1276 1095 1264 1148T1213 1246T1105 1318T918 1346Z" />
<glyph unicode="D" glyph-name="D" horiz-adv-x="1567" d="M63 57Q89 59 109 61T146 65T179 68T213 70Q223 363 231 600Q234 701 237 799T244 977T248 1110T250 1176Q250 1222 244 1250T226 1293T196 1316T152 1327L109 1333V1391Q138 1387 172 1383Q201 1380
239 1378T322 1376Q377 1376 432 1380T546 1388T664 1397T791 1401Q944 1401 1071 1351T1288 1209T1429 988T1479 702Q1479 630 1464 550T1413 390T1319 238T1175 110T975 21T711 -12Q665 -12 618 -9T522 -1T423 8T322 12Q274 12 210 11T63 0V57ZM649 1327Q615
1327 581 1327T516 1325T458 1321T412 1317Q401 1024 393 788Q390 687 387 590T381 414T377 283T375 221Q375 173 385 141T424 89T505 61T643 53Q694 53 761 61T901 92T1044 157T1169 270T1258 440T1292 680Q1292 754 1281 830T1241 979T1166 1114T1047 1225T877
1299T649 1327Z" />
<glyph unicode="E" glyph-name="E" horiz-adv-x="1061" d="M807 657Q747 665 686 671T568 681T466 687T389 692Q385 572 381 473Q379 431 378 389T376 312T374 251T373 217Q373 165 387 134T429 87T500 66T598 61Q678 61 734 71T830 108T895 182T936 305H999Q995
278 987 237T968 151T941 60T907 -20Q801 -17 705 -12T529 -1T390 8T301 12Q250 12 193 10T61 0L63 57Q89 59 109 61T146 65T179 68T213 70Q223 363 231 600Q234 701 237 799T244 978T248 1112T250 1178Q250 1223 245 1250T227 1293T196 1316T150 1327L109 1333V1391Q137
1387 180 1383Q217 1380 273 1378T410 1376H651Q691 1376 729 1376T806 1378T887 1383T977 1391L946 1053H885Q886 1073 886 1084T887 1102T887 1111T887 1116Q887 1149 879 1179T846 1232T778 1271T664 1292L418 1309Q410 1227 406 1143T399 987L391 762L817 784L807
657Z" />
<glyph unicode="F" glyph-name="F" horiz-adv-x="991" d="M809 639Q749 646 687 652T569 663T465 670T389 674Q385 568 382 477Q380 438 379 399T377 326T376 266T375 225Q375 176 382 146T402 99T436 75T483 63L526 57V0Q501 3 468 7Q440 9 401 11T311 14Q260
14 199 11T63 0V57Q89 59 109 61T146 65T179 68T213 70Q220 273 225 428T234 698T241 893T245 1025T248 1107T249 1152T250 1171T250 1178Q250 1223 245 1250T227 1293T196 1316T150 1327L109 1333V1391Q137 1387 180 1383Q217 1380 273 1378T410 1376H651Q691
1376 729 1376T806 1378T887 1383T977 1391L946 1053H885Q887 1073 887 1084T887 1110Q887 1143 880 1173T850 1228T783 1270T666 1292L418 1309Q410 1227 406 1143T399 987L391 743L819 766L809 639Z" />
<glyph unicode="G" glyph-name="G" horiz-adv-x="1536" d="M1325 55Q1281 39 1226 24T1110 -3T987 -22T866 -29Q763 -29 666 -8T483 55T326 158T203 298T123 474T94 684Q94 853 155 989T325 1220T581 1367T903 1419Q966 1419 1029 1414T1150 1401T1262 1383T1358
1362L1329 1028H1268V1044Q1268 1092 1255 1145T1204 1242T1095 1316T909 1346Q771 1346 656 1300T456 1169T326 961T279 684Q279 541 328 425T462 226T662 98T907 53Q989 53 1052 66T1169 109Q1173 206 1175 266T1179 361T1181 411T1182 432Q1182 478 1176 506T1158
550T1127 573T1083 584L1040 590V647Q1062 643 1093 640Q1119 637 1156 635T1245 633Q1296 633 1357 636T1493 647V590Q1467 588 1447 586T1411 583T1378 580T1343 578L1325 55Z" />
<glyph unicode="H" glyph-name="H" horiz-adv-x="1636" d="M1083 57Q1109 59 1129 61T1166 65T1199 68T1233 70Q1238 235 1243 394T1255 692Q1250 692 1209 692T1101 690T947 687T765 682T572 673T385 659Q381 569 379 492T375 355T372 259T371 209Q371 165 377
138T396 96T428 73T471 63L514 57V0Q492 3 461 7Q435 9 397 11T309 14Q258 14 197 11T61 0V57Q87 59 107 61T144 65T177 68T211 70Q216 203 220 333T229 582T237 804T244 986T248 1116T250 1182Q250 1225 244 1252T225 1294T193 1316T150 1327L106 1333V1391Q128
1387 159 1383Q185 1380 222 1378T311 1376Q362 1376 423 1379T559 1391V1333Q533 1331 513 1329T477 1326T444 1323T410 1321L389 762H1257Q1260 846 1263 917T1268 1044T1271 1134T1272 1182Q1272 1225 1266 1252T1246 1294T1215 1316T1171 1327L1128 1333V1391Q1150
1387 1181 1383Q1207 1380 1244 1378T1333 1376Q1384 1376 1445 1379T1581 1391V1333Q1555 1331 1535 1329T1499 1326T1466 1323T1432 1321Q1427 1188 1423 1058T1414 809T1406 587T1399 404T1395 274T1393 209Q1393 165 1399 138T1418 96T1449 73T1493 63L1536
57V0Q1514 3 1483 7Q1457 9 1419 11T1331 14Q1280 14 1219 11T1083 0V57V57Z" />
<glyph unicode="I" glyph-name="I" horiz-adv-x="614" d="M61 57Q87 59 107 61T144 65T177 68T211 70Q216 203 220 333T229 582T237 804T244 986T248 1116T250 1182Q250 1225 244 1252T225 1294T193 1316T150 1327L106 1333V1391Q128 1387 159 1383Q185 1380 222
1378T311 1376Q362 1376 423 1379T559 1391V1333Q533 1331 513 1329T477 1326T444 1323T410 1321Q405 1188 401 1058T392 809T384 587T377 404T373 274T371 209Q371 165 377 138T396 96T428 73T471 63L514 57V0Q492 3 461 7Q435 9 397 11T309 14Q258 14 197 11T61
0V57V57Z" />
<glyph unicode="J" glyph-name="J" horiz-adv-x="592" d="M360 186Q355 51 331 -60T258 -257T133 -405T-51 -502L-78 -440Q-33 -412 4 -386T72 -326T125 -250T165 -147T192 -5T207 186Q211 290 215 400T222 616T229 818T235 990T238 1116T240 1182Q240 1225 234
1252T216 1294T185 1316T141 1327L98 1333V1391Q120 1387 151 1383Q177 1380 214 1378T303 1376Q354 1376 415 1379T551 1391V1333Q525 1331 505 1329T469 1326T436 1323T401 1321L360 186Z" />
<glyph unicode="K" glyph-name="K" horiz-adv-x="1341" d="M432 733Q516 815 593 890T738 1036T866 1177T977 1315Q960 1317 940 1320T903 1326Q883 1330 862 1333V1391Q906 1384 959 1380T1071 1376Q1124 1376 1180 1379T1294 1391V1333L1262 1329Q1223 1324
1187 1308T1110 1264T1025 1195T924 1104L584 791Q605 762 637 716T712 612T802 492T903 366T1009 248T1115 149T1217 81T1309 55Q1333 55 1350 61V16Q1322 -1 1294 -6T1237 -12Q1176 -12 1115 11T993 75T876 168T765 281T662 404T571 527T493 640T432 733ZM61
57Q87 59 107 61T144 65T177 68T211 70Q216 203 220 333T229 582T237 804T244 986T248 1116T250 1182Q250 1225 244 1252T225 1294T193 1316T150 1327L106 1333V1391Q128 1387 159 1383Q185 1380 222 1378T311 1376Q362 1376 423 1379T559 1391V1333Q533 1331 513
1329T477 1326T444 1323T410 1321Q405 1188 401 1058T392 809T384 587T377 404T373 274T371 209Q371 165 377 138T396 96T428 73T471 63L514 57V0Q492 3 461 7Q435 9 397 11T309 14Q258 14 197 11T61 0V57Z" />
<glyph unicode="L" glyph-name="L" horiz-adv-x="1038" d="M213 70Q218 203 222 333T231 582T239 804T244 986T248 1116T250 1182Q250 1225 244 1252T226 1294T196 1316T152 1327L109 1333V1391Q131 1387 161 1383Q187 1380 224 1378T313 1376Q364 1376 425 1379T561
1391V1333Q535 1331 516 1329T479 1326T446 1323T412 1321Q407 1188 403 1058T394 809T386 587T379 404T375 274T373 209Q373 161 390 132T439 88T516 67T618 61Q698 61 754 74T850 117T915 197T956 322H1020Q1016 295 1008 252T989 160T962 63T928 -20Q822 -17
722 -12T539 -1T393 8T301 12Q250 12 193 10T61 0L63 57Q89 59 109 61T146 65T179 68T213 70Z" />
<glyph unicode="M" glyph-name="M" horiz-adv-x="1769" d="M1559 252Q1560 193 1566 158T1584 103T1614 75T1661 63L1704 57V0Q1682 3 1651 7Q1625 9 1587 11T1499 14Q1448 14 1387 11T1251 0V57Q1277 59 1297 61T1334 65T1367 68T1401 70L1397 1096H1378L868
55H821L373 1100H356L295 330Q293 315 292 296T290 257T288 220T287 193Q287 154 294 131T313 93T344 73T387 63L430 57V0Q414 3 388 7Q366 9 333 11T254 14Q208 14 150 11T16 0V57Q42 59 62 61T99 65T132 68T166 70L311 1386L406 1419L889 303H903L1430 1397L1530
1417L1559 252Z" />
<glyph unicode="N" glyph-name="N" horiz-adv-x="1616" d="M51 57Q77 59 97 61T134 65T167 68T201 70L227 842Q230 913 230 977T231 1100Q231 1194 229 1267T223 1391L305 1421L1286 243Q1289 330 1292 430T1299 629T1305 822T1310 990T1313 1116T1315 1182Q1315
1225 1309 1252T1291 1294T1260 1316T1217 1327L1174 1333V1391Q1188 1387 1212 1383Q1232 1380 1263 1378T1339 1376Q1384 1376 1441 1379T1573 1391V1333Q1547 1331 1527 1329T1491 1326T1458 1323T1423 1321L1401 678Q1400 651 1399 606T1397 512T1394 413T1393
330Q1393 285 1393 246T1393 167T1395 88T1399 0L1313 -29L332 1135Q330 1050 328 953T323 757T318 566T313 399T310 274T309 209Q309 165 315 139T333 97T363 74T408 63L451 57V0Q436 3 412 7Q392 9 361 11T285 14Q240 14 183 11T51 0V57V57Z" />
<glyph unicode="O" glyph-name="O" horiz-adv-x="1565" d="M276 711Q276 581 311 461T414 249T580 101T803 45Q923 45 1014 93T1167 224T1259 419T1290 659Q1290 803 1254 928T1151 1147T994 1293T793 1346Q736 1346 676 1334T559 1292T450 1214T360 1096T299
930T276 711ZM92 690Q92 847 146 981T298 1212T533 1364T838 1419Q940 1419 1027 1392T1185 1316T1311 1201T1403 1059T1460 897T1479 727Q1479 560 1425 422T1278 183T1062 27T801 -29Q682 -29 584 -1T406 78T268 197T170 346T112 513T92 690Z" />
<glyph unicode="P" glyph-name="P" horiz-adv-x="1090" d="M412 1325Q408 1191 404 1060T395 810T388 587T381 405T377 274T375 209Q375 165 381 139T400 97T432 74T475 63L518 57V0Q496 3 465 7Q439 9 401 11T313 14Q262 14 201 11T66 0V57Q92 59 111 61T148
65T181 68T215 70Q218 203 222 333T231 582T239 804T245 986T250 1116T252 1182Q252 1225 246 1252T228 1294T198 1316T154 1327L111 1333V1391Q139 1387 171 1383Q198 1380 232 1378T303 1376Q337 1376 368 1380T435 1388T511 1397T606 1401Q720 1401 803 1370T939
1285T1018 1162T1044 1014Q1044 923 1009 845T913 710T771 619T598 586Q567 586 543 588T500 596L502 659Q535 653 569 653Q639 653 697 678T797 749T862 858T885 995Q885 1155 796 1245T526 1335Q492 1335 465 1333T412 1325Z" />
<glyph unicode="Q" glyph-name="Q" horiz-adv-x="1565" d="M1450 -326Q1432 -351 1411 -374T1359 -416T1287 -446T1190 -457Q1132 -457 1081 -446T984 -418T899 -380T829 -340Q758 -296 707 -256T616 -185T541 -136T469 -117Q413 -117 360 -143L342 -96Q374 -79
408 -68T483 -57Q510 -57 544 -61T621 -77T712 -109T819 -162Q922 -219 988 -260T1099 -328T1176 -366T1247 -379Q1268 -379 1286 -377T1324 -366T1364 -340T1411 -293L1450 -326ZM92 690Q92 847 146 981T298 1212T533 1364T838 1419Q940 1419 1027 1392T1185 1316T1311
1201T1403 1059T1460 897T1479 727Q1479 560 1425 422T1278 183T1062 27T801 -29Q682 -29 584 -1T406 78T268 197T170 346T112 513T92 690ZM276 711Q276 581 311 461T414 249T580 101T803 45Q923 45 1014 93T1167 224T1259 419T1290 659Q1290 803 1254 928T1151
1147T994 1293T793 1346Q736 1346 676 1334T559 1292T450 1214T360 1096T299 930T276 711Z" />
<glyph unicode="R" glyph-name="R" horiz-adv-x="1239" d="M61 57Q87 59 107 61T144 65T177 68T211 70Q216 203 220 333T229 582T237 804T244 986T248 1116T250 1182Q250 1225 244 1252T226 1294T194 1316T150 1327L106 1333V1391Q134 1387 166 1383Q193 1380
227 1378T299 1376Q333 1376 364 1380T428 1388T498 1397T580 1401Q700 1401 785 1372T924 1293T1003 1180T1028 1049Q1028 957 995 891T913 780T810 707T713 666Q789 529 868 408T1023 196T1171 53T1305 0L1303 -35Q1265 -41 1229 -41Q1147 -39 1072 -2T928 95T801
228T692 378T604 521T541 637Q515 635 487 634T426 633H385Q384 603 383 564T380 482T377 397T374 317T372 252T371 209Q371 166 377 140T395 97T426 74T471 63L514 57V0Q492 3 461 7Q435 9 397 11T309 14Q258 14 197 11T61 0V57ZM387 702H444Q569 702 651 731T781
809T848 919T868 1047Q868 1079 862 1112T840 1178T799 1238T737 1288T651 1322T537 1335Q501 1335 472 1333T408 1325L387 702Z" />
<glyph unicode="S" glyph-name="S" horiz-adv-x="1008" d="M453 45Q513 45 565 63T657 117T718 202T741 317Q741 378 713 428T641 522T546 603T449 678Q405 712 352 752T253 842T175 950T143 1081Q143 1117 150 1156T174 1233T220 1304T292 1363T393 1404T528
1419Q626 1419 717 1404T874 1368L852 1067H795V1094Q795 1132 787 1176T752 1258T674 1321T535 1346Q483 1346 441 1332T368 1291T322 1226T305 1141Q305 1079 329 1032T392 946T478 876T569 811Q635 763 695 716T802 616T875 503T903 371Q903 287 865 214T764
87T618 2T449 -29Q343 -29 247 -12T80 27L104 344H166V309Q166 267 176 221T216 135T303 71T453 45Z" />
<glyph unicode="T" glyph-name="T" horiz-adv-x="1202" d="M551 1321Q494 1323 448 1324T373 1325Q317 1325 274 1317T198 1281T139 1203T94 1067H35L76 1403Q190 1394 271 1393T416 1391Q552 1391 675 1391T902 1393T1084 1397T1212 1405L1182 1067H1120Q1120
1078 1121 1095T1122 1124Q1122 1157 1115 1188T1085 1243T1019 1284T901 1305L705 1315Q700 1183 696 1054T688 807T681 586T675 404T672 274T670 209Q670 165 676 138T695 96T726 73T768 63L811 57V0Q789 3 758 7Q732 9 694 11T606 14Q555 14 494 11T358 0V57Q384
59 404 61T441 65T474 68T508 70L551 1321Z" />
<glyph unicode="U" glyph-name="U" horiz-adv-x="1501" d="M78 1391Q100 1387 131 1383Q157 1380 194 1378T283 1376Q334 1376 395 1379T530 1391V1333Q504 1331 485 1329T448 1326T415 1323T381 1321Q374 1144 370 1016T362 797T356 648T354 555T353 501T352
471Q352 265 450 161T760 57Q965 57 1073 175T1190 535Q1201 817 1206 977T1212 1182Q1212 1225 1206 1252T1188 1294T1158 1316T1114 1327L1071 1333V1391Q1090 1387 1118 1383Q1142 1380 1177 1378T1262 1376Q1310 1376 1369 1379T1503 1391V1333Q1477 1331 1458
1329T1421 1326T1388 1323T1354 1321L1286 520Q1274 387 1236 285T1132 113T969 7T745 -29Q620 -29 518 -3T344 76T233 210T193 401Q193 422 194 464T197 562T201 682T207 812T212 939T217 1051T220 1136T221 1182Q221 1225 215 1252T196 1294T164 1316T121 1327L78
1333V1391V1391Z" />
<glyph unicode="V" glyph-name="V" horiz-adv-x="1350" d="M692 186H705L1061 1139Q1081 1190 1090 1223T1100 1278Q1100 1303 1086 1312T1042 1327L999 1333V1391Q1015 1387 1040 1383Q1061 1380 1094 1378T1174 1376Q1220 1376 1278 1379T1411 1391V1333Q1385
1331 1365 1329T1329 1326T1296 1323T1262 1321L696 -14L616 -31L207 1139Q186 1198 167 1233T126 1288T82 1315T31 1327L-12 1333V1391Q14 1387 48 1383Q77 1380 119 1378T215 1376Q269 1376 333 1379T471 1391V1333Q445 1331 425 1329T389 1326T356 1323T322
1321L692 186Z" />
<glyph unicode="W" glyph-name="W" horiz-adv-x="1905" d="M1032 1237L1317 256H1329L1612 1137Q1627 1186 1634 1219T1642 1274Q1642 1300 1628 1311T1583 1327L1540 1333V1391Q1556 1387 1581 1383Q1602 1380 1634 1378T1714 1376Q1761 1376 1819 1379T1952
1391V1333Q1926 1331 1906 1329T1869 1326T1836 1323T1802 1321L1319 -14L1239 -31L961 932L625 -14L545 -31L217 1139Q200 1199 178 1234T130 1288T76 1315T20 1327L-2 1333V1391Q24 1387 58 1383Q87 1380 129 1378T225 1376Q279 1376 343 1379T481 1391V1333Q455
1331 436 1329T399 1326T366 1323T332 1321L621 256H633L973 1219L1032 1237Z" />
<glyph unicode="X" glyph-name="X" horiz-adv-x="1186" d="M529 700L293 1145Q264 1200 240 1234T192 1287T146 1315T94 1327L51 1333V1391Q74 1387 107 1383Q135 1380 175 1378T268 1376Q321 1376 383 1379T520 1391V1333Q494 1331 475 1329T438 1326T405 1323T371
1321L627 848L817 1139Q845 1182 856 1213T868 1266Q868 1295 850 1308T799 1327L756 1333V1391Q774 1387 801 1383Q824 1380 859 1378T942 1376Q990 1376 1049 1379T1184 1391V1333Q1158 1331 1138 1329T1101 1326T1068 1323T1034 1321L671 767L965 225Q990 177
1011 147T1052 100T1093 74T1141 63L1184 57V0Q1161 3 1128 7Q1100 9 1060 11T967 14Q914 14 852 11T715 0V57Q741 59 760 61T797 65T830 68T864 70L573 617L334 252Q306 209 295 178T283 125Q283 96 301 82T352 63L395 57V0Q377 3 350 7Q327 9 292 11T209 14Q161
14 102 11T-33 0V57Q-7 59 13 61T50 65T83 68T117 70L529 700Z" />
<glyph unicode="Y" glyph-name="Y" horiz-adv-x="1255" d="M709 590Q704 433 701 345T698 225Q698 176 703 146T721 99T752 75T797 63L840 57V0Q818 3 787 7Q761 9 723 11T635 14Q584 14 523 11T387 0V57Q413 59 433 61T469 65T502 68T537 70L549 606L242 1137Q211
1191 184 1225T131 1281T80 1311T27 1325L-16 1331V1389Q9 1385 42 1381Q71 1378 111 1376T205 1374Q257 1374 319 1377T457 1389V1331Q431 1329 411 1327T374 1324T341 1321T307 1319L659 696H676L932 1137Q981 1225 981 1266Q981 1294 963 1307T913 1325L870
1331V1389Q889 1385 917 1381Q941 1378 976 1376T1061 1374Q1109 1374 1169 1377T1305 1389V1331Q1279 1329 1259 1327T1222 1324T1189 1321T1155 1319L709 590Z" />
<glyph unicode="Z" glyph-name="Z" horiz-adv-x="1290" d="M47 0L49 61L1014 1333L438 1294Q375 1289 335 1278T267 1244T216 1181T166 1081H102L170 1391H1194L1192 1325L248 57L793 84Q856 87 910 102T1010 149T1092 232T1157 360H1225L1147 0H47Z" />
<glyph unicode="[" glyph-name="bracketleft" horiz-adv-x="541" d="M481 -356H131L195 1473H545L543 1403H315L256 -287H483L481 -356Z" />
<glyph unicode="\" glyph-name="backslash" horiz-adv-x="1135" d="M1061 -356H950L70 1473H180L1061 -356Z" />
<glyph unicode="]" glyph-name="bracketright" horiz-adv-x="541" d="M223 -287L283 1403H55L57 1473H408L344 -356H-6L-4 -287H223Z" />
<glyph unicode="^" glyph-name="asciicircum" horiz-adv-x="745" d="M184 868H70L371 1339H442L745 868H631L408 1219L184 868Z" />
<glyph unicode="_" glyph-name="underscore" horiz-adv-x="1638" d="M195 -303H1382L1378 -401H190L195 -303Z" />
<glyph unicode="`" glyph-name="grave" horiz-adv-x="682" d="M606 1133L266 1444Q300 1469 329 1493T385 1544L655 1171L606 1133Z" />
<glyph unicode="a" glyph-name="a" horiz-adv-x="924" d="M55 156Q55 215 85 258T164 332T273 383T393 415T506 432T594 440Q599 485 600 527T602 606Q602 653 595 696T568 772T513 824T420 844Q380 844 346 829T288 789T250 729T236 655Q236 640 238 625T246
592Q235 579 216 572T176 565Q161 565 147 569T122 584T105 610T98 649Q98 705 136 751T233 829T361 879T492 897Q610 897 676 843T743 664Q743 610 739 546T728 418T718 299T713 205Q713 142 728 107T776 72Q795 72 814 83T850 110T880 142T901 168L938 137Q903
88 873 58T816 10T764 -14T715 -20Q678 -20 651 -6T607 33T580 88T569 152Q549 119 522 88T459 33T377 -5T274 -20Q206 -20 163 -3T96 41T64 99T55 156ZM326 53Q390 53 435 81T511 157T560 264T588 389Q554 386 512 382T428 370T345 347T273 309T222 254T203 176Q203
138 215 115T247 77T287 58T326 53Z" />
<glyph unicode="b" glyph-name="b" horiz-adv-x="1016" d="M109 76Q116 167 124 268T139 474T153 685T165 892T173 1088T176 1264Q176 1323 171 1360T149 1418T105 1446T31 1454H-6V1501Q38 1503 76 1506T153 1516T236 1531T336 1554Q333 1526 329 1477T319 1363T307
1222T296 1063T285 894T276 723Q334 771 384 804T478 857T561 887T633 897Q709 897 766 868T860 786T917 663T936 510Q936 389 893 291T779 124T622 18T446 -20Q404 -20 357 -13T264 6T178 36T109 76ZM274 649Q270 587 267 514T262 370T259 237T258 133Q303 96
368 72T512 47Q567 47 617 76T704 159T764 289T786 461Q786 620 729 707T559 795Q521 795 479 780T399 743T327 696T274 649Z" />
<glyph unicode="c" glyph-name="c" horiz-adv-x="918" d="M844 160Q735 66 632 23T432 -20Q344 -20 277 11T163 97T94 224T70 381Q70 484 105 578T207 742T367 855T578 897Q639 897 689 884T775 850T830 801T850 743Q850 721 841 703T815 673T778 652T733 643Q730
674 717 708T676 770T606 816T502 834Q449 834 397 812T302 743T234 625T207 457Q207 368 230 301T295 188T397 119T528 96Q555 96 587 99T655 114T731 145T815 199L844 160Z" />
<glyph unicode="d" glyph-name="d" horiz-adv-x="1063" d="M776 1264Q776 1323 771 1360T749 1418T705 1446T631 1454H594V1501Q642 1503 684 1507T768 1518T850 1534T938 1554Q931 1498 923 1407T906 1203T891 964T877 715T868 477T864 272Q864 218 868 177T888
106T936 62T1024 47H1047V0Q988 -2 941 -4T855 -9T783 -17T719 -33Q723 -15 727 11T736 65T744 121T750 170Q649 82 558 31T383 -20Q315 -20 258 4T159 77T94 198T70 365Q70 446 90 516T146 646T229 752T331 831T443 880T557 897Q617 897 665 889T764 866Q766 916
768 969T772 1074T775 1174T776 1264ZM459 86Q495 86 529 97T597 126T661 169T723 219Q732 338 741 473T758 766Q735 782 711 796T661 820T603 836T535 842Q470 842 413 812T312 726T244 591T219 412Q219 321 240 259T296 159T373 103T459 86Z" />
<glyph unicode="e" glyph-name="e" horiz-adv-x="928" d="M668 526Q561 526 452 534T225 553Q219 506 219 463Q220 353 247 282T318 170T420 112T539 96Q578 96 613 101T685 119T758 150T838 199L864 160Q764 75 666 28T455 -20Q365 -20 294 13T173 103T97 234T70
391Q70 498 106 590T205 751T350 858T522 897Q613 897 673 867T770 788T822 683T838 571Q838 560 838 551T836 532Q749 526 668 526ZM487 838Q436 838 396 819T324 768T271 692T236 600Q307 598 355 597T438 596H537Q572 596 608 597T692 600V610Q692 664 677 706T635
778T570 822T487 838Z" />
<glyph unicode="f" glyph-name="f" horiz-adv-x="614" d="M203 811Q161 814 120 818T35 829L39 877H207Q207 882 207 900T207 942T208 994T210 1047Q212 1094 227 1150T268 1262T329 1371T407 1464T498 1529T598 1554Q635 1554 654 1536T674 1487Q674 1464 665
1440T645 1405Q614 1413 584 1418T524 1423Q477 1423 445 1405T390 1334T355 1185T333 932L330 877Q398 877 471 879T623 893L580 801H514Q466 801 420 801T328 803L317 613Q311 511 310 417T309 258Q309 193 312 152T327 88T366 56T440 47H483V0Q435 -2 393 -3T311
-7T230 -15T143 -33Q160 144 174 306T195 616L203 811Z" />
<glyph unicode="g" glyph-name="g" horiz-adv-x="976" d="M475 897Q576 897 646 866T757 775Q825 840 875 864T963 889Q1006 889 1024 868T1043 821Q1043 800 1035 779T1009 739Q984 755 962 764T900 774Q871 774 840 761T777 730Q783 710 787 683T792 635Q792
563 763 499T684 386T567 309T423 280Q404 280 387 280T355 283Q336 262 321 242Q308 225 298 205T287 171Q287 155 296 145T327 126T384 110T469 95Q557 80 625 65T741 26T813 -38T838 -141Q838 -191 817 -240T759 -335T671 -418T560 -485T433 -529T297 -545Q206
-545 146 -527T49 -479T-3 -409T-18 -328Q-18 -300 -11 -269T18 -203T81 -132T190 -58L215 -97Q170 -126 148 -173T125 -279Q125 -330 147 -365T205 -422T287 -455T383 -465Q437 -465 495 -448T601 -397T679 -315T710 -205Q710 -171 701 -147T669 -107T612 -78T524
-56L285 -10Q233 0 199 24T165 96Q165 118 177 145T208 199T248 252T288 299Q248 308 212 328T147 381T103 456T86 555Q86 635 116 698T200 806T323 873T475 897ZM434 840Q386 840 349 820T287 765T249 686T236 594Q236 548 247 503T283 421T345 363T436 341Q529
341 581 406T633 582Q633 624 622 669T586 753T524 815T434 840Z" />
<glyph unicode="h" glyph-name="h" horiz-adv-x="1069" d="M184 1264Q184 1323 179 1360T157 1418T113 1446T39 1454H2V1501Q46 1503 84 1506T161 1516T245 1531T344 1554Q340 1516 335 1459T325 1333T313 1186T302 1029T293 871T285 723Q340 768 388 800T482
854T573 886T666 897Q697 897 736 888T811 849T870 768T895 629Q895 573 891 512T881 392T871 277T866 176Q866 137 872 113T893 74T931 54T987 49H1042V0Q990 -2 945 -3T859 -8T780 -16T702 -33Q711 25 721 98T739 245T753 391T758 516Q758 568 754 618T731 707T674
771T569 795Q531 795 491 781T412 746T341 699T283 649Q280 601 278 549T274 445T273 345T272 254Q272 189 275 149T291 86T329 55T397 47H446V0Q392 0 346 -1T259 -7T180 -17T106 -33Q120 106 131 242T152 506T167 749T177 963T182 1137T184 1264Z" />
<glyph unicode="i" glyph-name="i" horiz-adv-x="522" d="M362 897Q350 818 341 736T326 573T316 412T313 258Q313 190 317 149T334 85T372 55T442 47H487V0H471Q377 0 302 -7T154 -33Q178 129 190 290T203 606Q203 654 198 689T175 749T126 785T41 797H20V844Q121
847 204 862T362 897ZM285 1133Q244 1133 216 1158T188 1237Q188 1260 195 1280T215 1316T248 1341T291 1350Q329 1350 357 1323T385 1245Q385 1223 378 1203T359 1167T328 1142T285 1133Z" />
<glyph unicode="j" glyph-name="j" horiz-adv-x="487" d="M-94 -369Q-68 -377 -43 -382T12 -387Q63 -387 94 -375T144 -335T168 -261T177 -146Q180 -26 182 67T188 233T193 360T197 456T200 528T201 586Q201 634 196 673T173 739T122 782T35 797H18V844Q119 847
208 862T373 897Q339 688 330 483L308 -37Q306 -86 291 -142T252 -254T195 -363T126 -456T51 -521T-25 -545Q-70 -545 -94 -520T-118 -457Q-118 -432 -112 -410T-94 -369ZM283 1133Q242 1133 214 1158T186 1237Q186 1260 193 1280T213 1316T246 1341T289 1350Q327
1350 355 1323T383 1245Q383 1223 376 1203T357 1167T326 1142T283 1133Z" />
<glyph unicode="k" glyph-name="k" horiz-adv-x="1010" d="M991 61Q963 27 922 4T819 -20Q767 -20 716 7T616 79T525 180T444 293T377 402T328 492Q377 554 435 625T554 756T679 857T801 897Q843 897 866 874T889 815Q889 798 883 779T864 739Q843 752 822 757T772
762Q733 762 689 744T600 695T516 627T444 549Q457 525 485 480T552 380T635 269T726 166T815 91T895 61Q907 61 923 66T956 94L991 61ZM272 229Q272 164 278 128T300 73T341 51T406 47V0Q357 -2 322 -3T254 -7T187 -15T106 -33Q120 103 131 238T151 501T166 745T176
960T182 1136T184 1264Q184 1323 179 1360T157 1418T113 1446T39 1454H2V1501Q50 1503 92 1507T175 1518T257 1534T344 1554Q330 1411 319 1271T300 998T287 747T278 528T274 352T272 229Z" />
<glyph unicode="l" glyph-name="l" horiz-adv-x="483" d="M285 229Q285 172 289 136T308 81T348 54T416 47H459V0Q411 -2 369 -3T287 -7T206 -15T119 -33Q131 91 141 221T161 479T176 727T187 949T194 1133T197 1264Q197 1323 191 1360T169 1418T125 1446T51 1454H14V1501Q62
1503 104 1507T187 1518T269 1534T356 1554Q344 1427 334 1292T316 1025T302 770T293 542T287 356T285 229Z" />
<glyph unicode="m" glyph-name="m" horiz-adv-x="1612" d="M1585 0Q1533 -2 1488 -3T1402 -8T1323 -16T1245 -33Q1254 25 1264 98T1282 245T1295 391T1300 516Q1300 568 1293 618T1268 707T1218 771T1135 795Q1101 795 1068 782T1004 750T945 706T893 659V629Q893
573 889 512T879 392T869 277T864 176Q864 137 870 112T891 73T929 53T985 47H1040V0Q988 -2 943 -3T857 -8T778 -16T700 -33Q709 25 719 98T737 245T751 391T756 516Q756 568 750 618T725 707T674 771T590 795Q555 795 521 781T455 746T394 699T340 651Q336 603
333 551T328 446T324 345T322 254Q322 189 325 149T340 86T376 55T444 47H496V0H477Q383 0 306 -7T156 -33Q179 113 192 267T205 584Q205 623 202 661T182 728T133 776T41 795H23V844Q68 846 105 848T180 856T259 871T352 897Q343 852 334 802T319 709Q370 756
414 791T501 849T587 885T678 897Q705 897 736 890T796 865T848 813T883 725Q931 768 973 800T1055 854T1137 886T1225 897Q1256 897 1293 888T1362 849T1416 768T1438 629Q1438 573 1434 512T1424 392T1414 277T1409 176Q1409 137 1415 112T1436 73T1474 53T1530
47H1585V0Z" />
<glyph unicode="n" glyph-name="n" horiz-adv-x="1114" d="M1090 0Q1037 -2 992 -3T907 -8T828 -16T750 -33Q759 25 768 98T786 245T800 391T805 516Q805 568 801 618T778 707T721 771T616 795Q578 795 539 782T464 748T395 702T338 655Q335 607 332 554T326 448T321
346T319 254Q319 189 322 149T338 86T376 55T444 47H494V0Q386 0 306 -7T154 -33Q177 113 190 267T203 584Q203 623 200 661T181 729T132 778T39 797H20V844Q65 846 103 848T178 856T257 871T350 897Q341 852 332 802T317 709Q428 803 522 850T713 897Q744 897
783 888T858 849T917 768T942 629Q942 573 938 512T928 392T918 277T913 176Q913 136 919 111T940 72T978 52T1036 47H1090V0Z" />
<glyph unicode="o" glyph-name="o" horiz-adv-x="1055" d="M522 840Q448 840 391 807T296 719T237 593T217 444Q217 371 235 299T290 170T386 77T526 41Q598 41 654 68T749 145T808 267T829 428Q829 494 811 566T756 700T660 800T522 840ZM70 391Q70 486 104 577T202
739T358 853T567 897Q678 897 756 866T883 782T954 657T977 506Q977 398 939 302T834 135T677 22T483 -20Q363 -20 284 14T157 106T90 237T70 391Z" />
<glyph unicode="p" glyph-name="p" horiz-adv-x="1073" d="M129 -545Q132 -524 136 -496T146 -428T156 -339T166 -225Q173 -133 179 -26T189 190T196 406T199 604Q199 707 160 752T35 797H16V844Q71 845 122 850T217 864T293 880T346 897Q337 852 329 805T313
707Q430 807 521 852T688 897Q837 897 915 801T993 524Q993 407 951 307T832 135T651 21T422 -20Q374 -20 346 -18T301 -14Q295 -134 295 -233Q295 -300 298 -344T316 -416T358 -454T438 -465H469V-514Q421 -514 379 -514T297 -518T216 -527T129 -545ZM309 75Q341
62 389 52T487 42Q568 42 633 75T746 167T818 307T844 487Q844 568 824 626T772 721T699 777T614 795Q576 795 536 781T459 746T390 700T334 653L309 75Z" />
<glyph unicode="q" glyph-name="q" horiz-adv-x="1024" d="M899 836Q893 785 887 702T874 518T863 309T854 98T848 -90T846 -233Q846 -293 848 -337T863 -409T904 -451T985 -465H1020V-514H987Q950 -514 917 -514T847 -518T771 -527T680 -545Q687 -517 693 -464T704
-345T714 -207T722 -68T727 55T729 143Q667 94 616 63T523 13T444 -13T373 -20Q302 -20 246 6T150 81T89 198T68 348Q68 429 89 501T149 634T238 744T349 827T474 879T604 897Q688 897 762 883T899 836ZM754 799Q732 809 713 817T673 831T630 839T580 842Q508 842
443 807T327 710T247 567T217 391Q217 239 280 163T461 86Q497 86 535 98T608 130T675 173T729 217L754 799Z" />
<glyph unicode="r" glyph-name="r" horiz-adv-x="739" d="M353 897Q349 878 345 854T336 803T327 752T320 705Q372 758 421 794T512 854T587 887T644 897Q672 897 690 890T718 871T733 845T738 819Q738 790 723 763T687 715Q662 744 632 756T568 768Q539 768 509
760T448 736T389 701T334 655Q328 554 321 458T313 258Q313 190 317 149T334 85T372 55T442 47H487V0H468Q374 0 300 -7T154 -33Q178 128 192 289T206 606Q206 654 201 689T178 749T129 785T45 797H23V844Q71 848 108 850T181 857T258 871T353 897Z" />
<glyph unicode="s" glyph-name="s" horiz-adv-x="774" d="M537 631Q540 648 542 664T545 696Q545 761 512 800T406 840Q366 840 334 829T280 798T245 752T233 696Q233 652 253 623T306 571T377 531T454 493Q491 473 529 451T599 398T650 329T670 238Q670 191 651
145T590 62T481 3T319 -20Q262 -20 215 -10T133 19T80 66T61 129Q61 183 97 214T188 248V229Q188 138 238 86T373 33Q404 33 434 43T488 73T526 124T541 199Q541 242 519 274T464 330T391 372T318 408L283 426Q244 446 213 466T159 510T125 567T113 645Q113 697
128 735T170 802T230 848T300 877T372 892T438 897Q484 897 527 889T605 862T659 815T680 745Q680 723 671 703T645 666T600 641T537 631Z" />
<glyph unicode="t" glyph-name="t" horiz-adv-x="666" d="M202 877Q204 943 206 1013T209 1161L358 1194Q349 1129 343 1048T330 877Q429 877 498 883T614 897L569 801H504Q456 801 413 801T323 803Q318 736 314 671T307 545T303 431T301 338Q301 273 307 228T329
155T369 115T432 102Q475 102 524 127T610 201L643 164Q610 125 575 92T503 34T426 -5T346 -20Q292 -20 258 -1T203 53T176 133T168 233Q168 337 179 479T200 809Q158 812 116 816T25 829L29 877H202Z" />
<glyph unicode="u" glyph-name="u" horiz-adv-x="1116" d="M18 844Q108 847 195 861T360 897Q339 764 319 627T299 346Q299 290 306 242T335 159T396 103T498 82Q532 82 570 96T645 131T715 178T772 225Q778 318 783 412T788 606Q788 653 784 688T762 748T713
784T623 797H608V844Q715 849 798 862T956 897Q951 874 946 833T935 739T924 625T915 501T909 375T907 258Q907 212 911 173T932 106T981 63T1069 47H1090V0Q1031 -2 984 -4T898 -9T826 -17T762 -33Q766 -11 771 15T780 69T787 121T793 168Q677 65 579 23T399 -20Q346
-20 304 -4T231 47T185 134T168 260Q168 309 171 364T179 474T186 579T190 668Q190 737 157 767T37 797H18V844Z" />
<glyph unicode="v" glyph-name="v" horiz-adv-x="899" d="M270 897Q280 825 295 762T332 627L475 162H496Q526 212 561 277T626 416T676 564T696 709Q696 754 686 794T653 868Q672 879 696 888T745 897Q799 897 822 865T846 776Q846 725 827 664T776 535T704 398T623
260T543 127T475 8L403 -20L172 664Q161 697 150 722T121 763T79 788T16 797H2V844Q46 845 78 849T140 861T199 877T270 897Z" />
<glyph unicode="w" glyph-name="w" horiz-adv-x="1376" d="M176 664Q167 698 156 723T127 764T84 789T20 797H6V844Q50 845 82 849T142 861T200 877T267 897Q274 861 287 806T321 667T372 466T444 186H460L705 877H778L983 180H999Q1024 224 1055 284T1112 413T1156
553T1174 692Q1174 743 1161 788T1120 868Q1136 881 1160 889T1208 897Q1262 897 1291 864T1321 766Q1321 715 1304 655T1258 528T1192 393T1117 257T1041 126T975 8L907 -20L711 655H694L461 8L369 -20L176 664Z" />
<glyph unicode="x" glyph-name="x" horiz-adv-x="889" d="M372 432L240 670Q224 699 210 721T177 758T135 780T76 788H49L47 836Q91 841 118 846T167 858T215 874T279 897L480 522L498 537Q522 556 545 582T588 638T619 701T631 768Q631 793 623 818T598 868Q613
879 636 888T688 897Q723 897 750 875T778 807Q778 768 758 728T704 647T627 567T535 487L510 467L594 311Q622 259 647 218T701 148T763 104T842 88H858L860 41Q816 35 788 30T737 17T688 2T623 -20L402 378L360 344Q335 323 309 296T261 237T225 170T211 98Q211
75 217 53T240 8Q226 -3 203 -11T152 -20Q135 -20 119 -15T89 1T69 29T61 70Q61 109 84 149T144 231T229 313T324 393L372 432Z" />
<glyph unicode="y" glyph-name="y" horiz-adv-x="901" d="M477 162H498Q528 217 563 283T629 420T679 563T700 705Q700 750 690 790T655 868Q675 884 700 890T750 897Q799 897 823 867T848 782Q848 732 831 675T788 558T730 442T672 336L483 0Q455 -51 422 -111T352
-231T279 -348T203 -448T128 -518T57 -545Q0 -545 -25 -514T-50 -437Q-50 -418 -47 -403T-37 -371Q-22 -377 -2 -382T42 -387Q92 -387 138 -359T229 -281T314 -167T397 -29L174 662Q162 700 149 726T117 767T76 790T20 797H4V844Q48 845 80 849T142 861T201 877T272
897Q277 861 283 829T296 766T312 703T332 635L477 162Z" />
<glyph unicode="z" glyph-name="z" horiz-adv-x="852" d="M410 811Q350 809 309 799T242 769T200 722T176 659Q150 667 133 679T106 705T92 736T88 770Q88 827 133 857T250 887Q287 887 325 885T400 880T457 876T528 874Q582 874 644 878T762 897L782 858L208
60Q307 64 376 70T496 81T580 99T639 127T680 162T713 203Q784 171 784 96Q784 43 744 15T641 -14Q587 -14 543 -13T443 -8T323 -3T197 0Q174 0 130 -3T49 -12L31 31L596 817L410 811Z" />
<glyph unicode="{" glyph-name="braceleft" horiz-adv-x="567" d="M553 1450Q479 1433 434 1371T389 1208Q389 1165 391 1122T393 1034Q393 946 384 874T346 742T269 633T139 543Q212 507 255 464T322 371T353 269T360 158Q360 119 357 81T351 4T345 -76T342 -166Q342
-214 356 -249T391 -307T439 -345T489 -365L479 -416Q387 -401 332 -366T246 -283T207 -182T197 -76Q197 -10 204 55T211 193Q211 235 206 287T182 386T129 468T33 512L35 573Q82 580 116 602T172 657T208 729T227 807T236 881T238 942V1092Q238 1129 240 1170T253
1252T283 1333T337 1406T423 1464T547 1501L553 1450Z" />
<glyph unicode="|" glyph-name="bar" horiz-adv-x="432" d="M166 1554H264V-401H166V1554Z" />
<glyph unicode="}" glyph-name="braceright" horiz-adv-x="567" d="M10 -365Q85 -348 129 -286T174 -123Q174 -80 172 -36T170 51Q170 139 179 211T217 344T294 452T424 543Q351 579 308 622T241 714T210 817T203 928Q203 967 206 1004T212 1081T218 1161T221
1251Q221 1299 207 1334T172 1393T124 1430T74 1450L84 1501Q176 1486 232 1451T318 1368T357 1267T367 1161Q367 1095 360 1030T352 893Q352 851 357 799T381 699T435 617T530 573L528 512Q481 505 448 483T392 428T356 356T337 279T328 205T326 143V-6Q326 -43
323 -84T310 -167T280 -248T226 -321T140 -379T16 -416L10 -365Z" />
<glyph unicode="~" glyph-name="asciitilde" horiz-adv-x="934" d="M848 698Q838 659 820 615T772 533T702 471T606 446Q557 446 512 473T418 539Q392 560 374 575T340 600T312 616T283 621Q257 621 237 603T200 557T171 500T152 446L96 467Q106 506 124 550T172
631T241 694T338 719Q387 719 432 692T526 627Q552 606 571 591T605 565T633 550T662 545Q687 545 707 563T744 609T773 666T793 719L848 698Z" />
<glyph unicode="&#xa0;" glyph-name="nbspace" horiz-adv-x="444" />
<glyph unicode="&#xa1;" glyph-name="exclamdown" horiz-adv-x="424" d="M76 -514Q88 -432 98 -346T118 -176T136 -10T151 143Q167 311 178 471H236Q237 311 241 143Q242 71 244 -10T250 -175T258 -346T268 -514Q248 -512 223 -512T172 -512Q146 -512 120 -512T76
-514ZM217 676Q175 676 147 702T119 782Q119 805 126 826T146 862T179 887T223 897Q263 897 291 870T319 791Q319 768 313 747T293 710T261 685T217 676Z" />
<glyph unicode="&#xa2;" glyph-name="cent" horiz-adv-x="944" d="M441 -20Q354 -19 287 12T175 98T106 225T82 381Q82 470 109 552T186 702T308 816T471 884L479 1100H549L541 894Q566 897 592 897Q653 897 703 884T789 850T844 801T864 743Q864 721 855 703T829
673T792 652T748 643Q745 673 732 705T695 765T632 812T539 835L513 99Q521 98 528 98T543 98Q570 98 601 101T669 114T745 145T829 199L858 160Q767 81 680 39T509 -15L502 -221H434L441 -20ZM221 457Q221 311 281 224T445 109L469 831Q422 822 378 796T298 723T242
611T221 457Z" />
<glyph unicode="&#xa3;" glyph-name="sterling" horiz-adv-x="999" d="M102 717Q143 717 186 716T272 715Q264 798 257 871T250 987Q250 1028 261 1065T293 1137T341 1202T401 1260Q442 1293 480 1322T559 1372T644 1406T739 1419Q767 1419 795 1412T845 1389T882
1349T897 1290Q897 1259 887 1235T858 1195T815 1170T762 1161Q760 1212 746 1244T711 1294T668 1318T623 1325Q569 1325 530 1302T467 1237T430 1135T418 1001Q418 981 419 960T422 918L436 715Q494 715 547 716T647 719T729 724T788 731L748 639Q692 633 627
633Q583 633 537 634T442 641V614Q442 546 429 481T392 355T335 242T262 147Q285 154 315 164T391 174Q441 174 489 162T581 136T664 110T735 98Q778 98 810 113T879 166L913 123Q882 91 855 63T799 15T739 -17T670 -29Q625 -29 575 -9T473 36T370 81T274 102Q260
102 247 101T223 94L90 -29L47 20Q113 81 158 130T232 231T272 348T285 504Q285 519 284 534T283 567L276 655L104 674L102 717V717Z" />
<glyph unicode="&#xa4;" glyph-name="currency" horiz-adv-x="1493" d="M178 696Q178 803 214 899T315 1073L109 1280L178 1350L385 1143Q459 1206 550 1243T745 1280Q852 1280 947 1243T1118 1143L1325 1350L1395 1280L1186 1071Q1251 994 1288 899T1325 696Q1325
594 1291 502T1194 334L1395 133L1325 63L1126 262Q1049 194 952 157T745 119Q639 119 545 156T375 260L178 63L109 133L307 332Q247 407 213 500T178 696ZM276 705Q276 606 313 518T415 363T566 258T750 219Q849 219 936 257T1087 362T1189 517T1227 705Q1227
805 1190 894T1088 1050T936 1155T750 1194Q652 1194 566 1156T416 1050T314 894T276 705Z" />
<glyph unicode="&#xa5;" glyph-name="yen" horiz-adv-x="1436" d="M252 623H637L559 756Q479 753 402 748T256 737L260 840H512L340 1137Q309 1191 282 1225T230 1281T179 1311T125 1325L82 1331V1389Q107 1385 140 1381Q169 1378 209 1376T303 1374Q356 1374
418 1377T555 1389V1331Q529 1329 509 1327T473 1324T440 1321T406 1319L758 696H774L1030 1137Q1079 1225 1079 1266Q1079 1294 1061 1307T1012 1325L969 1331V1389Q989 1385 1016 1381Q1039 1378 1074 1376T1159 1374Q1207 1374 1268 1377T1403 1389V1331Q1377
1329 1357 1327T1321 1324T1288 1321T1253 1319L961 840H1214L1212 770Q1173 769 1126 769Q1085 768 1032 768T915 766L827 623H1208L1204 553Q1150 553 1087 552Q1033 551 961 550T805 547Q802 419 800 339T797 225Q797 176 802 146T820 99T850 75T895 63L938
57V0Q916 3 885 7Q859 9 821 11T733 14Q682 14 621 11T485 0V57Q511 59 531 61T568 65T601 68T635 70L645 543Q540 538 438 533T248 520L252 623Z" />
<glyph unicode="&#xa6;" glyph-name="brokenbar" horiz-adv-x="449" d="M176 1554H274V858H176V1554ZM176 295H274V-401H176V295Z" />
<glyph unicode="&#xa7;" glyph-name="section" horiz-adv-x="940" d="M260 1178Q220 1115 198 1036T176 860Q176 789 193 724T237 599T299 483T367 377Q418 300 467 232T555 102T617 -19T641 -135Q641 -163 639 -188T629 -248L649 -254Q696 -180 720 -95T745 92Q745
182 729 254T685 391T616 514T526 639Q485 693 442 745T362 852T303 970T279 1108Q279 1122 279 1139T281 1171L260 1178ZM399 -412Q461 -412 501 -372T541 -258Q541 -209 528 -163T489 -69T427 33T344 150Q282 237 234 311T152 460T100 616T82 797Q82 862 96 933T137
1073T206 1204T300 1315T418 1391T559 1419Q662 1419 711 1384T760 1294Q760 1276 754 1257T735 1222T699 1193T645 1178Q640 1221 625 1250T589 1299T542 1326T489 1335Q465 1335 443 1326T404 1300T376 1258T365 1202Q365 1164 373 1131T401 1060T452 981T528
883Q594 803 653 723T757 557T828 381T854 190Q854 120 838 42T790 -113T713 -258T609 -381T479 -465T324 -496Q220 -496 171 -460T121 -371Q121 -353 127 -333T148 -296T185 -266T244 -250Q249 -295 265 -326T302 -376T349 -403T399 -412Z" />
<glyph unicode="&#xa8;" glyph-name="dieresis" horiz-adv-x="913" d="M403 1128Q363 1128 335 1154T307 1235Q307 1258 314 1279T334 1315T367 1340T410 1350Q448 1350 476 1323T504 1243Q504 1220 497 1199T478 1163T446 1138T403 1128ZM774 1128Q734 1128 706
1154T678 1235Q678 1258 685 1279T705 1315T737 1340T780 1350Q818 1350 846 1323T874 1243Q874 1220 868 1199T848 1163T817 1138T774 1128Z" />
<glyph unicode="&#xa9;" glyph-name="copyright" horiz-adv-x="1645" d="M162 696Q162 605 186 521T253 363T357 228T491 124T649 57T825 33Q916 33 1001 57T1159 124T1294 228T1398 362T1465 520T1489 696Q1489 787 1465 872T1398 1030T1294 1165T1160 1269T1001
1336T825 1360Q734 1360 650 1336T492 1269T357 1165T253 1031T186 872T162 696ZM92 696Q92 797 118 891T192 1066T307 1215T455 1330T630 1404T825 1430Q926 1430 1020 1404T1195 1330T1344 1215T1459 1067T1533 891T1559 696Q1559 595 1533 501T1459 326T1344
178T1196 63T1020 -11T825 -37Q673 -37 540 20T307 177T150 410T92 696ZM877 1067Q807 1067 743 1045T629 980T551 873T522 725Q522 629 555 559T642 444T763 376T897 354Q924 354 947 355T994 359T1042 368T1100 383L1118 326Q1086 311 1051 301T980 284T912 275T854
272Q757 272 673 302T527 388T429 519T393 686Q393 786 431 868T534 1010T688 1101T879 1133Q967 1133 1033 1123T1151 1098L1135 901H1073V909Q1073 937 1066 965T1038 1015T979 1052T877 1067Z" />
<glyph unicode="&#xaa;" glyph-name="ordfeminine" horiz-adv-x="844" d="M94 918Q94 967 117 1004T178 1067T263 1110T357 1137T448 1152T520 1159Q526 1220 526 1284Q526 1322 520 1353T499 1406T458 1441T389 1454Q357 1454 331 1445T286 1418T257 1376T246
1323Q246 1311 247 1298T254 1270Q245 1259 230 1252T197 1245Q172 1245 151 1261T129 1315Q129 1360 160 1397T237 1461T339 1501T444 1516Q539 1516 593 1472T647 1327Q647 1284 643 1232T635 1127T627 1031T623 959Q623 912 635 886T674 860Q689 860 704 868T732
888T757 911T774 930L805 903Q776 863 752 839T707 800T665 781T625 776Q595 776 573 787T537 818T516 863T508 916Q492 889 471 864T422 819T359 788T279 776Q231 776 197 788T139 819T105 864T94 918ZM319 854Q361 854 393 872T449 924T489 1004T514 1106Q472
1103 422 1096T328 1073T255 1026T225 948Q225 921 234 903T257 874T287 859T319 854Z" />
<glyph unicode="&#xab;" glyph-name="guillemotleft" horiz-adv-x="944" d="M829 168L805 145L436 522L831 901L854 874L645 522L829 168ZM573 117L541 86L49 522L571 981L604 950L270 522L573 117Z" />
<glyph unicode="&#xac;" glyph-name="logicalnot" horiz-adv-x="1184" d="M1032 696V344H934V598H152V696H1032Z" />
<glyph unicode="&#xad;" glyph-name="uni00AD" horiz-adv-x="844" d="M702 547L698 430H133L137 547H702Z" />
<glyph unicode="&#xae;" glyph-name="registered" horiz-adv-x="1114" d="M403 743Q405 796 407 843T412 928Q417 1022 418 1077T420 1155Q420 1184 413 1193T393 1204Q387 1204 380 1205T367 1206V1249Q377 1248 390 1248Q401 1247 416 1247T451 1247Q475 1247
503 1250T571 1253Q614 1253 645 1241T698 1209T729 1162T739 1106Q739 1040 708 1001T621 936Q687 834 741 776T840 717V684Q826 681 819 681T803 680Q758 681 719 705T647 766T589 844T545 920Q535 918 520 918T492 918Q490 873 489 839T487 791Q487 762 494
753T516 741Q521 741 529 740T541 739V694Q529 696 515 698Q503 700 487 701T453 702Q437 702 411 701T348 694V739L403 743ZM492 958H502Q536 958 564 966T613 990T645 1032T657 1092Q657 1112 652 1132T634 1170T598 1197T541 1208Q530 1208 521 1208T500 1206L492
958ZM98 958Q98 1056 135 1142T236 1292T385 1393T569 1430Q666 1430 752 1393T902 1292T1003 1142T1040 958Q1040 860 1003 775T902 625T752 524T569 487Q471 487 386 524T236 625T135 774T98 958ZM154 956Q154 871 186 796T275 665T407 576T567 543Q652 543 727
575T859 664T948 796T981 956Q981 1041 949 1116T860 1248T728 1337T567 1370Q482 1370 407 1338T276 1249T187 1117T154 956Z" />
<glyph unicode="&#xaf;" glyph-name="overscore" horiz-adv-x="1182" d="M834 1296L829 1180H264L268 1296H834Z" />
<glyph unicode="&#xb0;" glyph-name="degree" horiz-adv-x="586" d="M174 1217Q174 1187 184 1162T213 1117T257 1088T313 1077Q343 1077 368 1087T413 1117T442 1161T452 1217Q452 1247 442 1272T413 1316T369 1345T313 1356Q283 1356 258 1346T214 1316T185
1272T174 1217ZM96 1217Q96 1263 112 1302T158 1371T227 1417T313 1434Q359 1434 398 1417T467 1371T513 1303T530 1217Q530 1171 514 1131T468 1062T399 1016T313 999Q267 999 228 1016T159 1062T113 1131T96 1217Z" />
<glyph unicode="&#xb1;" glyph-name="plusminus" horiz-adv-x="1200" d="M1069 254V156H127V254H1069ZM549 780V1202H647V780H1069V682H647V354H549V682H127V780H549Z" />
<glyph unicode="&#xb2;" glyph-name="twosuperior" horiz-adv-x="633" d="M315 1503Q267 1503 244 1472T221 1389Q221 1373 222 1357T229 1323Q207 1307 184 1307Q161 1307 144 1323T127 1374Q127 1404 148 1436T204 1494T282 1537T367 1554Q450 1554 495 1507T541
1382Q541 1340 528 1298T479 1202T383 1079T227 915L434 922Q451 923 463 926T486 940T504 967T522 1014L559 1006Q547 958 537 910T520 825H109L98 852Q154 912 212 973T319 1098T397 1228T428 1366Q428 1429 398 1466T315 1503Z" />
<glyph unicode="&#xb3;" glyph-name="threesuperior" horiz-adv-x="571" d="M182 815Q164 815 146 819T112 831T88 851T78 881Q78 907 91 923T121 948Q147 920 179 902T248 883Q280 883 310 893T362 925T398 980T412 1059Q412 1119 379 1154T281 1190Q251 1190
217 1178L203 1221L229 1229Q257 1239 283 1254T329 1291T361 1340T373 1403Q373 1440 351 1463T283 1487Q241 1487 209 1468T145 1423L117 1456Q134 1474 155 1491T201 1523T258 1545T326 1554Q394 1554 435 1521T477 1425Q477 1391 464 1364T432 1314T390 1276T350
1249Q389 1247 420 1234T474 1198T508 1146T520 1085Q520 1042 505 1006T464 939T404 886T332 847T256 823T182 815Z" />
<glyph unicode="&#xb4;" glyph-name="acute" horiz-adv-x="664" d="M451 1165L702 1544Q730 1516 762 1494T827 1456L498 1133L451 1165Z" />
<glyph unicode="&#xb5;" glyph-name="mu" horiz-adv-x="1167" d="M219 123Q216 98 214 69T211 8Q211 -46 218 -102T242 -205T287 -284T356 -322Q351 -335 342 -349T319 -375T287 -395T244 -403Q223 -403 203 -395T167 -367T141 -313T131 -227Q131 -151 139 -46T158
176T177 412T186 635Q186 666 186 694T186 750T184 808T182 877Q229 880 271 883T360 897Q347 831 336 758T317 613T304 472T299 346Q299 290 306 242T335 159T396 103T498 82Q532 82 570 95T645 128T715 173T772 219Q777 297 786 426T795 733Q795 767 795 803T793
877Q816 878 835 879T874 883T913 888T956 897Q951 874 946 836T935 748T924 643T915 527T909 408T907 293Q907 246 911 202T931 124T981 68T1073 47H1090V0Q1031 -2 984 -4T898 -9T826 -17T762 -33Q765 -11 769 16T778 72T787 126T793 174Q736 123 686 86T591
26T504 -9T422 -20Q351 -20 296 17T219 123Z" />
<glyph unicode="&#xb6;" glyph-name="paragraph" horiz-adv-x="953" d="M699 -544H602L665 1288H493L428 -544H332L380 874H352Q276 874 224 895T138 952T90 1032T75 1123Q75 1181 97 1230T159 1315T253 1371T370 1391Q415 1391 487 1387T665 1382Q718 1382 779
1384T913 1391V1333Q890 1331 871 1330T833 1327T798 1324T763 1321L699 -544Z" />
<glyph unicode="&#xb7;" glyph-name="middot" horiz-adv-x="414" d="M209 600Q167 600 139 626T111 707Q111 730 118 750T138 787T171 812T215 821Q255 821 283 794T311 715Q311 692 304 671T284 634T252 609T209 600Z" />
<glyph unicode="&#xb8;" glyph-name="cedilla" horiz-adv-x="639" d="M367 -160Q375 -143 386 -118T408 -67T427 -18T440 18H502L471 -66Q552 -80 595 -125T639 -233Q639 -272 621 -309T572 -376T496 -422T399 -440Q350 -440 327 -416T303 -362Q303 -332 326 -309Q334
-315 350 -324T388 -341T432 -356T477 -362Q495 -362 513 -357T544 -341T566 -315T575 -281Q575 -244 560 -221T517 -184T451 -165T367 -160Z" />
<glyph unicode="&#xb9;" glyph-name="onesuperior" horiz-adv-x="489" d="M238 1434Q218 1421 196 1408Q176 1397 152 1384T98 1360L82 1395Q113 1410 141 1425T195 1459T249 1501T305 1554H346Q341 1418 338 1316T333 1143T329 1029T328 971Q328 939 332 920T344
890T364 875T395 868L424 864V825Q408 827 388 829Q370 831 345 832T285 834Q216 834 119 825V864Q153 867 173 868T219 872L238 1434Z" />
<glyph unicode="&#xba;" glyph-name="ordmasculine" horiz-adv-x="760" d="M90 1088Q90 1133 100 1182T130 1279T179 1370T247 1445T333 1497T438 1516Q510 1516 559 1493T640 1429T686 1335T700 1219Q700 1167 689 1114T658 1011T607 919T539 845T454 795T354
776Q280 776 230 801T148 870T104 969T90 1088ZM406 1448Q353 1448 316 1418T255 1340T220 1238T209 1131Q209 1078 219 1027T251 936T306 872T387 848Q441 848 479 877T540 951T573 1051T584 1157Q584 1205 574 1256T542 1350T486 1420T406 1448Z" />
<glyph unicode="&#xbb;" glyph-name="guillemotright" horiz-adv-x="944" d="M369 950L401 981L891 522L371 86L338 117L670 522L369 950ZM111 874L137 901L504 522L111 145L86 168L295 522L111 874Z" />
<glyph unicode="&#xbc;" glyph-name="onequarter" horiz-adv-x="1223" d="M250 1230Q230 1217 208 1204Q188 1193 164 1180T110 1156L94 1191Q125 1206 153 1221T207 1255T261 1297T317 1350H358Q353 1214 350 1112T345 939T341 825T340 767Q340 735 344 716T356
686T376 671T407 664L436 660V621Q420 623 400 625Q382 627 357 628T297 630Q228 630 131 621V660Q165 663 185 664T231 668L250 1230ZM98 31L1102 1415L1159 1376L155 -16L98 31ZM914 233H630L632 270L998 730L1035 714Q1032 634 1030 570T1026 455T1023 365T1021
295Q1046 297 1066 298T1102 300Q1120 301 1133 302L1107 233H1019Q1018 205 1018 189T1017 165T1017 155T1017 151Q1017 114 1022 94T1035 63T1056 50T1082 44L1113 40V1Q1082 6 1047 9T970 12Q934 12 894 9T808 1V40Q843 43 862 44T908 48L914 233ZM705 284Q756
284 810 285T916 289L926 562L705 284Z" />
<glyph unicode="&#xbd;" glyph-name="onehalf" horiz-adv-x="1288" d="M250 1230Q230 1217 208 1204Q188 1193 164 1180T110 1156L94 1191Q125 1206 153 1221T207 1255T261 1297T317 1350H358Q353 1214 350 1112T345 939T341 825T340 767Q340 735 344 716T356
686T376 671T407 664L436 660V621Q420 623 400 625Q382 627 357 628T297 630Q228 630 131 621V660Q165 663 185 664T231 668L250 1230ZM98 31L1102 1415L1159 1376L155 -16L98 31ZM952 674Q904 674 881 643T858 560Q858 544 859 528T866 494Q844 478 821 478Q798
478 781 494T764 545Q764 575 785 607T841 665T919 708T1004 725Q1087 725 1132 678T1178 553Q1178 511 1165 469T1116 373T1020 250T864 86L1071 93Q1088 94 1100 97T1123 111T1141 138T1159 185L1196 177Q1184 129 1174 81T1157 -4H746L735 23Q791 83 849 144T956
269T1034 399T1065 537Q1065 600 1035 637T952 674Z" />
<glyph unicode="&#xbe;" glyph-name="threequarters" horiz-adv-x="1249" d="M190 611Q172 611 154 615T120 627T96 647T86 677Q86 703 99 719T129 744Q155 716 187 698T256 679Q288 679 318 689T370 721T406 776T420 855Q420 915 387 950T289 986Q259 986 225
974L211 1017L237 1025Q265 1035 291 1050T337 1087T369 1136T381 1199Q381 1236 359 1259T291 1283Q249 1283 217 1264T153 1219L125 1252Q142 1270 163 1287T209 1319T266 1341T334 1350Q402 1350 443 1317T485 1221Q485 1187 472 1160T440 1110T398 1072T358
1045Q397 1043 428 1030T482 994T516 942T528 881Q528 838 513 802T472 735T412 682T340 643T264 619T190 611ZM126 31L1130 1415L1187 1376L183 -16L126 31ZM940 233H656L658 270L1024 730L1061 714Q1058 634 1056 570T1052 455T1049 365T1047 295Q1072 297 1092
298T1128 300Q1146 301 1159 302L1133 233H1045Q1044 205 1044 189T1043 165T1043 155T1043 151Q1043 114 1048 94T1061 63T1082 50T1108 44L1139 40V1Q1108 6 1073 9T996 12Q960 12 920 9T834 1V40Q869 43 888 44T934 48L940 233ZM731 284Q782 284 836 285T942
289L952 562L731 284Z" />
<glyph unicode="&#xbf;" glyph-name="questiondown" horiz-adv-x="741" d="M412 897Q454 897 482 871T510 791Q510 768 503 747T483 710T450 685T406 676Q365 676 337 703T309 782Q309 805 316 826T336 862T368 887T412 897ZM504 -221Q505 -221 509 -220Q511 -220
515 -220T524 -219Q538 -219 557 -222T593 -236T623 -264T635 -313Q635 -364 610 -405T543 -475T449 -519T344 -535Q272 -535 217 -512T124 -448T67 -356T47 -246Q47 -186 65 -139T113 -54T180 16T258 74T335 125T403 175T451 228T469 289Q469 335 439 356T358
377Q337 377 312 372T260 350L250 362Q254 387 264 411T290 455T328 487T381 500Q444 500 484 453T524 315Q524 254 505 204T452 107T370 16T264 -78Q238 -100 214 -122T172 -170T142 -227T131 -297Q131 -330 141 -361T173 -418T229 -458T313 -473Q362 -473 398
-456T459 -409T496 -343T508 -264Q508 -253 507 -243T504 -221Z" />
<glyph unicode="&#xc0;" glyph-name="Agrave" horiz-adv-x="1266" d="M604 1169L393 555H801L633 1169H604ZM692 1442L1030 348Q1067 226 1111 152T1221 66L1276 57L1274 0Q1223 6 1164 9T1042 12Q976 12 913 9T793 0L795 57L936 70L821 485H782Q755 485 711 485T612
482T492 476T360 465L305 311Q287 263 274 220T260 145Q260 113 277 93T336 66L395 57L393 0Q339 6 290 10T186 14Q132 14 74 10T-55 0L-53 57Q-24 60 2 63Q25 65 48 67T86 70Q127 156 171 258T262 472T355 704T447 945T533 1186T612 1419L692 1442ZM682 1546L277
1759Q302 1790 323 1822T363 1886L721 1595L682 1546Z" />
<glyph unicode="&#xc1;" glyph-name="Aacute" horiz-adv-x="1266" d="M604 1169L393 555H801L633 1169H604ZM692 1442L1030 348Q1067 226 1111 152T1221 66L1276 57L1274 0Q1223 6 1164 9T1042 12Q976 12 913 9T793 0L795 57L936 70L821 485H782Q755 485 711 485T612
482T492 476T360 465L305 311Q287 263 274 220T260 145Q260 113 277 93T336 66L395 57L393 0Q339 6 290 10T186 14Q132 14 74 10T-55 0L-53 57Q-24 60 2 63Q25 65 48 67T86 70Q127 156 171 258T262 472T355 704T447 945T533 1186T612 1419L692 1442ZM607 1591L949
1892Q969 1858 994 1828T1047 1774L644 1546L607 1591Z" />
<glyph unicode="&#xc2;" glyph-name="Acircumflex" horiz-adv-x="1266" d="M604 1169L393 555H801L633 1169H604ZM692 1442L1030 348Q1067 226 1111 152T1221 66L1276 57L1274 0Q1223 6 1164 9T1042 12Q976 12 913 9T793 0L795 57L936 70L821 485H782Q755 485
711 485T612 482T492 476T360 465L305 311Q287 263 274 220T260 145Q260 113 277 93T336 66L395 57L393 0Q339 6 290 10T186 14Q132 14 74 10T-55 0L-53 57Q-24 60 2 63Q25 65 48 67T86 70Q127 156 171 258T262 472T355 704T447 945T533 1186T612 1419L692 1442ZM362
1546L323 1587L673 1892L1001 1587L958 1546L667 1724L362 1546Z" />
<glyph unicode="&#xc3;" glyph-name="Atilde" horiz-adv-x="1266" d="M604 1169L393 555H801L633 1169H604ZM692 1442L1030 348Q1067 226 1111 152T1221 66L1276 57L1274 0Q1223 6 1164 9T1042 12Q976 12 913 9T793 0L795 57L936 70L821 485H782Q755 485 711 485T612
482T492 476T360 465L305 311Q287 263 274 220T260 145Q260 113 277 93T336 66L395 57L393 0Q339 6 290 10T186 14Q132 14 74 10T-55 0L-53 57Q-24 60 2 63Q25 65 48 67T86 70Q127 156 171 258T262 472T355 704T447 945T533 1186T612 1419L692 1442ZM1059 1798Q1049
1759 1031 1715T983 1633T913 1571T817 1546Q768 1546 723 1573T629 1638Q603 1659 585 1674T551 1700T523 1715T494 1720Q468 1720 448 1702T411 1656T382 1599T362 1546L307 1567Q317 1606 335 1650T383 1731T452 1794T549 1819Q598 1819 643 1792T737 1726Q763
1705 781 1690T815 1665T843 1650T872 1645Q897 1645 918 1663T955 1709T984 1766T1004 1819L1059 1798Z" />
<glyph unicode="&#xc4;" glyph-name="Adieresis" horiz-adv-x="1266" d="M604 1169L393 555H801L633 1169H604ZM692 1442L1030 348Q1067 226 1111 152T1221 66L1276 57L1274 0Q1223 6 1164 9T1042 12Q976 12 913 9T793 0L795 57L936 70L821 485H782Q755 485 711
485T612 482T492 476T360 465L305 311Q287 263 274 220T260 145Q260 113 277 93T336 66L395 57L393 0Q339 6 290 10T186 14Q132 14 74 10T-55 0L-53 57Q-24 60 2 63Q25 65 48 67T86 70Q127 156 171 258T262 472T355 704T447 945T533 1186T612 1419L692 1442ZM756
1661Q756 1688 764 1707T786 1739T818 1757T854 1763Q872 1763 890 1757T921 1739T943 1708T952 1661Q952 1610 924 1578T854 1546Q812 1546 784 1578T756 1661ZM387 1661Q387 1688 395 1707T418 1739T449 1757T486 1763Q504 1763 522 1757T553 1739T575 1708T584
1661Q584 1610 556 1578T486 1546Q444 1546 416 1578T387 1661Z" />
<glyph unicode="&#xc5;" glyph-name="Aring" horiz-adv-x="1266" d="M604 1169L393 555H801L633 1169H604ZM692 1442L1030 348Q1067 226 1111 152T1221 66L1276 57L1274 0Q1223 6 1164 9T1042 12Q976 12 913 9T793 0L795 57L936 70L821 485H782Q755 485 711 485T612
482T492 476T360 465L305 311Q287 263 274 220T260 145Q260 113 277 93T336 66L395 57L393 0Q339 6 290 10T186 14Q132 14 74 10T-55 0L-53 57Q-24 60 2 63Q25 65 48 67T86 70Q127 156 171 258T262 472T355 704T447 945T533 1186T612 1419L692 1442ZM659 1870Q631
1870 609 1859T572 1830T549 1787T541 1737Q541 1714 548 1691T570 1649T607 1618T662 1606Q717 1606 748 1640T780 1737Q780 1758 773 1781T751 1824T713 1857T659 1870ZM457 1722Q457 1762 473 1799T518 1864T589 1910T682 1927Q730 1927 765 1913T823 1876T857
1823T868 1759Q868 1714 850 1675T802 1608T731 1563T645 1546Q593 1546 557 1561T499 1601T467 1657T457 1722Z" />
<glyph unicode="&#xc6;" glyph-name="AE" horiz-adv-x="1710" d="M874 487Q852 487 804 487T692 484T553 477T401 465L313 313Q284 262 261 215T238 133Q238 107 253 90T303 68L362 59L360 2Q306 8 257 12T154 16Q100 16 42 12T-88 2L-86 59Q-57 62 -31 65Q-8
67 15 69T53 72L672 1081Q703 1131 725 1178T748 1262Q748 1288 733 1305T682 1327L623 1335L625 1393Q678 1386 745 1382T879 1376T1006 1373T1106 1372Q1132 1372 1172 1372T1259 1374T1357 1376T1457 1380T1550 1385T1626 1391L1595 1053H1534Q1535 1073 1535
1084T1536 1102T1536 1111T1536 1116Q1536 1149 1528 1179T1495 1232T1427 1271T1313 1292L1067 1309Q1059 1227 1055 1143T1049 987L1040 762L1466 784L1456 657Q1396 665 1335 671T1217 681T1115 687T1038 692Q1034 572 1030 473Q1028 431 1027 389T1025 312T1023
251T1022 217Q1022 165 1036 134T1078 87T1149 66T1247 61Q1327 61 1383 71T1479 108T1544 182T1585 305H1649Q1645 278 1637 237T1617 151T1590 60T1556 -20Q1450 -17 1354 -12T1178 -1T1039 8T950 12Q899 12 842 10T711 0L713 57Q739 59 758 61T795 65T828 68T862
70L874 487ZM449 557H877L901 1309H885L449 557Z" />
<glyph unicode="&#xc7;" glyph-name="Ccedilla" horiz-adv-x="1411" d="M639 -160Q645 -147 653 -129T670 -91T686 -51T701 -14Q569 10 457 69T264 217T138 420T92 666Q92 776 119 874T196 1056T319 1207T482 1322T679 1394T905 1419Q1056 1419 1168 1402T1366
1362L1337 1028H1276V1044Q1276 1095 1264 1148T1213 1246T1105 1318T918 1346Q793 1346 678 1305T474 1185T332 989T279 721Q279 608 307 515T383 348T495 219T633 128T785 73T940 55Q988 55 1028 58T1108 68T1193 88T1292 119L1311 61Q1258 35 1198 18T1078 -9T965
-24T868 -29Q840 -29 813 -27T759 -22L743 -66Q824 -80 867 -125T911 -233Q911 -272 893 -309T844 -376T768 -422T671 -440Q622 -440 599 -416T575 -362Q575 -332 598 -309Q606 -315 622 -324T660 -341T704 -356T749 -362Q767 -362 785 -357T816 -341T838 -315T847
-281Q847 -244 832 -221T789 -184T723 -165T639 -160Z" />
<glyph unicode="&#xc8;" glyph-name="Egrave" horiz-adv-x="1061" d="M807 657Q747 665 686 671T568 681T466 687T389 692Q385 572 381 473Q379 431 378 389T376 312T374 251T373 217Q373 165 387 134T429 87T500 66T598 61Q678 61 734 71T830 108T895 182T936
305H999Q995 278 987 237T968 151T941 60T907 -20Q801 -17 705 -12T529 -1T390 8T301 12Q250 12 193 10T61 0L63 57Q89 59 109 61T146 65T179 68T213 70Q223 363 231 600Q234 701 237 799T244 978T248 1112T250 1178Q250 1223 245 1250T227 1293T196 1316T150 1327L109
1333V1391Q137 1387 180 1383Q217 1380 273 1378T410 1376H651Q691 1376 729 1376T806 1378T887 1383T977 1391L946 1053H885Q886 1073 886 1084T887 1102T887 1111T887 1116Q887 1149 879 1179T846 1232T778 1271T664 1292L418 1309Q410 1227 406 1143T399 987L391
762L817 784L807 657ZM727 1546L322 1759Q347 1790 368 1822T408 1886L766 1595L727 1546Z" />
<glyph unicode="&#xc9;" glyph-name="Eacute" horiz-adv-x="1061" d="M807 657Q747 665 686 671T568 681T466 687T389 692Q385 572 381 473Q379 431 378 389T376 312T374 251T373 217Q373 165 387 134T429 87T500 66T598 61Q678 61 734 71T830 108T895 182T936
305H999Q995 278 987 237T968 151T941 60T907 -20Q801 -17 705 -12T529 -1T390 8T301 12Q250 12 193 10T61 0L63 57Q89 59 109 61T146 65T179 68T213 70Q223 363 231 600Q234 701 237 799T244 978T248 1112T250 1178Q250 1223 245 1250T227 1293T196 1316T150 1327L109
1333V1391Q137 1387 180 1383Q217 1380 273 1378T410 1376H651Q691 1376 729 1376T806 1378T887 1383T977 1391L946 1053H885Q886 1073 886 1084T887 1102T887 1111T887 1116Q887 1149 879 1179T846 1232T778 1271T664 1292L418 1309Q410 1227 406 1143T399 987L391
762L817 784L807 657ZM651 1591L993 1892Q1013 1858 1038 1828T1091 1774L688 1546L651 1591Z" />
<glyph unicode="&#xca;" glyph-name="Ecircumflex" horiz-adv-x="1061" d="M807 657Q747 665 686 671T568 681T466 687T389 692Q385 572 381 473Q379 431 378 389T376 312T374 251T373 217Q373 165 387 134T429 87T500 66T598 61Q678 61 734 71T830 108T895 182T936
305H999Q995 278 987 237T968 151T941 60T907 -20Q801 -17 705 -12T529 -1T390 8T301 12Q250 12 193 10T61 0L63 57Q89 59 109 61T146 65T179 68T213 70Q223 363 231 600Q234 701 237 799T244 978T248 1112T250 1178Q250 1223 245 1250T227 1293T196 1316T150 1327L109
1333V1391Q137 1387 180 1383Q217 1380 273 1378T410 1376H651Q691 1376 729 1376T806 1378T887 1383T977 1391L946 1053H885Q886 1073 886 1084T887 1102T887 1111T887 1116Q887 1149 879 1179T846 1232T778 1271T664 1292L418 1309Q410 1227 406 1143T399 987L391
762L817 784L807 657ZM552 1546L513 1587L863 1892L1191 1587L1148 1546L857 1724L552 1546Z" />
<glyph unicode="&#xcb;" glyph-name="Edieresis" horiz-adv-x="1061" d="M807 657Q747 665 686 671T568 681T466 687T389 692Q385 572 381 473Q379 431 378 389T376 312T374 251T373 217Q373 165 387 134T429 87T500 66T598 61Q678 61 734 71T830 108T895 182T936
305H999Q995 278 987 237T968 151T941 60T907 -20Q801 -17 705 -12T529 -1T390 8T301 12Q250 12 193 10T61 0L63 57Q89 59 109 61T146 65T179 68T213 70Q223 363 231 600Q234 701 237 799T244 978T248 1112T250 1178Q250 1223 245 1250T227 1293T196 1316T150 1327L109
1333V1391Q137 1387 180 1383Q217 1380 273 1378T410 1376H651Q691 1376 729 1376T806 1378T887 1383T977 1391L946 1053H885Q886 1073 886 1084T887 1102T887 1111T887 1116Q887 1149 879 1179T846 1232T778 1271T664 1292L418 1309Q410 1227 406 1143T399 987L391
762L817 784L807 657ZM923 1661Q923 1688 931 1707T953 1739T985 1757T1021 1763Q1039 1763 1057 1757T1088 1739T1110 1708T1119 1661Q1119 1610 1091 1578T1021 1546Q979 1546 951 1578T923 1661ZM554 1661Q554 1688 562 1707T585 1739T616 1757T653 1763Q671
1763 689 1757T720 1739T742 1708T751 1661Q751 1610 723 1578T653 1546Q611 1546 583 1578T554 1661Z" />
<glyph unicode="&#xcc;" glyph-name="Igrave" horiz-adv-x="614" d="M61 57Q87 59 107 61T144 65T177 68T211 70Q216 203 220 333T229 582T237 804T244 986T248 1116T250 1182Q250 1225 244 1252T225 1294T193 1316T150 1327L106 1333V1391Q128 1387 159 1383Q185
1380 222 1378T311 1376Q362 1376 423 1379T559 1391V1333Q533 1331 513 1329T477 1326T444 1323T410 1321Q405 1188 401 1058T392 809T384 587T377 404T373 274T371 209Q371 165 377 138T396 96T428 73T471 63L514 57V0Q492 3 461 7Q435 9 397 11T309 14Q258 14
197 11T61 0V57V57ZM351 1546L-54 1759Q-29 1790 -8 1822T32 1886L390 1595L351 1546Z" />
<glyph unicode="&#xcd;" glyph-name="Iacute" horiz-adv-x="614" d="M61 57Q87 59 107 61T144 65T177 68T211 70Q216 203 220 333T229 582T237 804T244 986T248 1116T250 1182Q250 1225 244 1252T225 1294T193 1316T150 1327L106 1333V1391Q128 1387 159 1383Q185
1380 222 1378T311 1376Q362 1376 423 1379T559 1391V1333Q533 1331 513 1329T477 1326T444 1323T410 1321Q405 1188 401 1058T392 809T384 587T377 404T373 274T371 209Q371 165 377 138T396 96T428 73T471 63L514 57V0Q492 3 461 7Q435 9 397 11T309 14Q258 14
197 11T61 0V57V57ZM253 1591L595 1892Q615 1858 640 1828T693 1774L290 1546L253 1591Z" />
<glyph unicode="&#xce;" glyph-name="Icircumflex" horiz-adv-x="614" d="M61 57Q87 59 107 61T144 65T177 68T211 70Q216 203 220 333T229 582T237 804T244 986T248 1116T250 1182Q250 1225 244 1252T225 1294T193 1316T150 1327L106 1333V1391Q128 1387 159
1383Q185 1380 222 1378T311 1376Q362 1376 423 1379T559 1391V1333Q533 1331 513 1329T477 1326T444 1323T410 1321Q405 1188 401 1058T392 809T384 587T377 404T373 274T371 209Q371 165 377 138T396 96T428 73T471 63L514 57V0Q492 3 461 7Q435 9 397 11T309
14Q258 14 197 11T61 0V57V57ZM48 1546L9 1587L359 1892L687 1587L644 1546L353 1724L48 1546Z" />
<glyph unicode="&#xcf;" glyph-name="Idieresis" horiz-adv-x="614" d="M61 57Q87 59 107 61T144 65T177 68T211 70Q216 203 220 333T229 582T237 804T244 986T248 1116T250 1182Q250 1225 244 1252T225 1294T193 1316T150 1327L106 1333V1391Q128 1387 159 1383Q185
1380 222 1378T311 1376Q362 1376 423 1379T559 1391V1333Q533 1331 513 1329T477 1326T444 1323T410 1321Q405 1188 401 1058T392 809T384 587T377 404T373 274T371 209Q371 165 377 138T396 96T428 73T471 63L514 57V0Q492 3 461 7Q435 9 397 11T309 14Q258 14
197 11T61 0V57V57ZM439 1661Q439 1688 447 1707T469 1739T501 1757T537 1763Q555 1763 573 1757T604 1739T626 1708T635 1661Q635 1610 607 1578T537 1546Q495 1546 467 1578T439 1661ZM70 1661Q70 1688 78 1707T101 1739T132 1757T169 1763Q187 1763 205 1757T236
1739T258 1708T267 1661Q267 1610 239 1578T169 1546Q127 1546 99 1578T70 1661Z" />
<glyph unicode="&#xd0;" glyph-name="Eth" horiz-adv-x="1640" d="M12 762H310Q311 780 311 799Q315 897 318 977T322 1110T324 1176Q324 1222 318 1250T300 1293T269 1316T225 1327L182 1333V1391Q212 1387 246 1383Q275 1380 313 1378T395 1376Q450 1376 506
1380T619 1388T738 1397T864 1401Q1018 1401 1144 1351T1361 1209T1502 988T1552 702Q1552 630 1537 550T1486 390T1392 238T1248 110T1048 21T784 -12Q738 -12 691 -9T595 -1T496 8T395 12Q347 12 283 11T137 0V57Q163 59 183 61T220 65T253 68T287 70Q297 363
305 600Q306 640 307 679Q233 675 160 671Q81 666 8 659L12 762ZM723 1327Q689 1327 655 1327T590 1325T531 1321T485 1317Q475 1024 467 788Q466 775 466 762H831L829 692Q794 692 740 692T618 690T474 685Q469 685 464 685Q462 637 460 589Q457 492 455 414T451
283T449 221Q449 173 459 141T497 89T578 61T717 53Q768 53 835 61T975 92T1118 157T1243 270T1332 440T1366 680Q1366 754 1355 830T1315 979T1240 1114T1121 1225T951 1299T723 1327Z" />
<glyph unicode="&#xd1;" glyph-name="Ntilde" horiz-adv-x="1616" d="M51 57Q77 59 97 61T134 65T167 68T201 70L227 842Q230 913 230 977T231 1100Q231 1194 229 1267T223 1391L305 1421L1286 243Q1289 330 1292 430T1299 629T1305 822T1310 990T1313 1116T1315
1182Q1315 1225 1309 1252T1291 1294T1260 1316T1217 1327L1174 1333V1391Q1188 1387 1212 1383Q1232 1380 1263 1378T1339 1376Q1384 1376 1441 1379T1573 1391V1333Q1547 1331 1527 1329T1491 1326T1458 1323T1423 1321L1401 678Q1400 651 1399 606T1397 512T1394
413T1393 330Q1393 285 1393 246T1393 167T1395 88T1399 0L1313 -29L332 1135Q330 1050 328 953T323 757T318 566T313 399T310 274T309 209Q309 165 315 139T333 97T363 74T408 63L451 57V0Q436 3 412 7Q392 9 361 11T285 14Q240 14 183 11T51 0V57V57ZM1239 1798Q1229
1759 1211 1715T1163 1633T1093 1571T997 1546Q948 1546 903 1573T809 1638Q783 1659 765 1674T731 1700T703 1715T674 1720Q648 1720 628 1702T591 1656T562 1599T542 1546L487 1567Q497 1606 515 1650T563 1731T632 1794T729 1819Q778 1819 823 1792T917 1726Q943
1705 961 1690T995 1665T1023 1650T1052 1645Q1077 1645 1098 1663T1135 1709T1164 1766T1184 1819L1239 1798Z" />
<glyph unicode="&#xd2;" glyph-name="Ograve" horiz-adv-x="1565" d="M276 711Q276 581 311 461T414 249T580 101T803 45Q923 45 1014 93T1167 224T1259 419T1290 659Q1290 803 1254 928T1151 1147T994 1293T793 1346Q736 1346 676 1334T559 1292T450 1214T360
1096T299 930T276 711ZM92 690Q92 847 146 981T298 1212T533 1364T838 1419Q940 1419 1027 1392T1185 1316T1311 1201T1403 1059T1460 897T1479 727Q1479 560 1425 422T1278 183T1062 27T801 -29Q682 -29 584 -1T406 78T268 197T170 346T112 513T92 690ZM907 1546L502
1759Q527 1790 548 1822T588 1886L946 1595L907 1546Z" />
<glyph unicode="&#xd3;" glyph-name="Oacute" horiz-adv-x="1565" d="M276 711Q276 581 311 461T414 249T580 101T803 45Q923 45 1014 93T1167 224T1259 419T1290 659Q1290 803 1254 928T1151 1147T994 1293T793 1346Q736 1346 676 1334T559 1292T450 1214T360
1096T299 930T276 711ZM92 690Q92 847 146 981T298 1212T533 1364T838 1419Q940 1419 1027 1392T1185 1316T1311 1201T1403 1059T1460 897T1479 727Q1479 560 1425 422T1278 183T1062 27T801 -29Q682 -29 584 -1T406 78T268 197T170 346T112 513T92 690ZM688 1591L1030
1892Q1050 1858 1075 1828T1128 1774L725 1546L688 1591Z" />
<glyph unicode="&#xd4;" glyph-name="Ocircumflex" horiz-adv-x="1565" d="M276 711Q276 581 311 461T414 249T580 101T803 45Q923 45 1014 93T1167 224T1259 419T1290 659Q1290 803 1254 928T1151 1147T994 1293T793 1346Q736 1346 676 1334T559 1292T450 1214T360
1096T299 930T276 711ZM92 690Q92 847 146 981T298 1212T533 1364T838 1419Q940 1419 1027 1392T1185 1316T1311 1201T1403 1059T1460 897T1479 727Q1479 560 1425 422T1278 183T1062 27T801 -29Q682 -29 584 -1T406 78T268 197T170 346T112 513T92 690ZM526 1546L487
1587L837 1892L1165 1587L1122 1546L831 1724L526 1546Z" />
<glyph unicode="&#xd5;" glyph-name="Otilde" horiz-adv-x="1565" d="M276 711Q276 581 311 461T414 249T580 101T803 45Q923 45 1014 93T1167 224T1259 419T1290 659Q1290 803 1254 928T1151 1147T994 1293T793 1346Q736 1346 676 1334T559 1292T450 1214T360
1096T299 930T276 711ZM92 690Q92 847 146 981T298 1212T533 1364T838 1419Q940 1419 1027 1392T1185 1316T1311 1201T1403 1059T1460 897T1479 727Q1479 560 1425 422T1278 183T1062 27T801 -29Q682 -29 584 -1T406 78T268 197T170 346T112 513T92 690ZM1204 1798Q1194
1759 1176 1715T1128 1633T1058 1571T962 1546Q913 1546 868 1573T774 1638Q748 1659 730 1674T696 1700T668 1715T639 1720Q613 1720 593 1702T556 1656T527 1599T507 1546L452 1567Q462 1606 480 1650T528 1731T597 1794T694 1819Q743 1819 788 1792T882 1726Q908
1705 926 1690T960 1665T988 1650T1017 1645Q1042 1645 1063 1663T1100 1709T1129 1766T1149 1819L1204 1798Z" />
<glyph unicode="&#xd6;" glyph-name="Odieresis" horiz-adv-x="1565" d="M276 711Q276 581 311 461T414 249T580 101T803 45Q923 45 1014 93T1167 224T1259 419T1290 659Q1290 803 1254 928T1151 1147T994 1293T793 1346Q736 1346 676 1334T559 1292T450 1214T360
1096T299 930T276 711ZM92 690Q92 847 146 981T298 1212T533 1364T838 1419Q940 1419 1027 1392T1185 1316T1311 1201T1403 1059T1460 897T1479 727Q1479 560 1425 422T1278 183T1062 27T801 -29Q682 -29 584 -1T406 78T268 197T170 346T112 513T92 690ZM907 1661Q907
1688 915 1707T937 1739T969 1757T1005 1763Q1023 1763 1041 1757T1072 1739T1094 1708T1103 1661Q1103 1610 1075 1578T1005 1546Q963 1546 935 1578T907 1661ZM538 1661Q538 1688 546 1707T569 1739T600 1757T637 1763Q655 1763 673 1757T704 1739T726 1708T735
1661Q735 1610 707 1578T637 1546Q595 1546 567 1578T538 1661Z" />
<glyph unicode="&#xd7;" glyph-name="multiply" horiz-adv-x="1069" d="M606 647L948 305L879 236L537 578L195 236L125 305L467 647L125 989L195 1059L537 717L879 1059L948 989L606 647Z" />
<glyph unicode="&#xd8;" glyph-name="Oslash" horiz-adv-x="1565" d="M92 690Q92 847 146 981T298 1212T533 1364T838 1419Q938 1419 1022 1393T1177 1321L1298 1503L1364 1458L1240 1273Q1298 1223 1342 1160T1417 1027T1463 880T1479 727Q1479 560 1425 422T1278
183T1062 27T801 -29Q690 -29 598 -5T430 64L274 -170L213 -129L368 104Q299 156 247 222T161 365T109 524T92 690ZM276 711Q276 567 317 437T439 210L1104 1211Q1041 1279 963 1316T793 1354Q736 1354 676 1342T559 1300T450 1222T360 1102T299 934T276 711ZM1290
659Q1290 803 1255 927T1155 1146L492 155Q554 99 631 68T803 37Q923 37 1014 86T1167 219T1259 416T1290 659Z" />
<glyph unicode="&#xd9;" glyph-name="Ugrave" horiz-adv-x="1501" d="M78 1391Q100 1387 131 1383Q157 1380 194 1378T283 1376Q334 1376 395 1379T530 1391V1333Q504 1331 485 1329T448 1326T415 1323T381 1321Q374 1144 370 1016T362 797T356 648T354 555T353
501T352 471Q352 265 450 161T760 57Q965 57 1073 175T1190 535Q1201 817 1206 977T1212 1182Q1212 1225 1206 1252T1188 1294T1158 1316T1114 1327L1071 1333V1391Q1090 1387 1118 1383Q1142 1380 1177 1378T1262 1376Q1310 1376 1369 1379T1503 1391V1333Q1477
1331 1458 1329T1421 1326T1388 1323T1354 1321L1286 520Q1274 387 1236 285T1132 113T969 7T745 -29Q620 -29 518 -3T344 76T233 210T193 401Q193 422 194 464T197 562T201 682T207 812T212 939T217 1051T220 1136T221 1182Q221 1225 215 1252T196 1294T164 1316T121
1327L78 1333V1391V1391ZM911 1546L506 1759Q531 1790 552 1822T592 1886L950 1595L911 1546Z" />
<glyph unicode="&#xda;" glyph-name="Uacute" horiz-adv-x="1501" d="M78 1391Q100 1387 131 1383Q157 1380 194 1378T283 1376Q334 1376 395 1379T530 1391V1333Q504 1331 485 1329T448 1326T415 1323T381 1321Q374 1144 370 1016T362 797T356 648T354 555T353
501T352 471Q352 265 450 161T760 57Q965 57 1073 175T1190 535Q1201 817 1206 977T1212 1182Q1212 1225 1206 1252T1188 1294T1158 1316T1114 1327L1071 1333V1391Q1090 1387 1118 1383Q1142 1380 1177 1378T1262 1376Q1310 1376 1369 1379T1503 1391V1333Q1477
1331 1458 1329T1421 1326T1388 1323T1354 1321L1286 520Q1274 387 1236 285T1132 113T969 7T745 -29Q620 -29 518 -3T344 76T233 210T193 401Q193 422 194 464T197 562T201 682T207 812T212 939T217 1051T220 1136T221 1182Q221 1225 215 1252T196 1294T164 1316T121
1327L78 1333V1391V1391ZM672 1591L1014 1892Q1034 1858 1059 1828T1112 1774L709 1546L672 1591Z" />
<glyph unicode="&#xdb;" glyph-name="Ucircumflex" horiz-adv-x="1501" d="M78 1391Q100 1387 131 1383Q157 1380 194 1378T283 1376Q334 1376 395 1379T530 1391V1333Q504 1331 485 1329T448 1326T415 1323T381 1321Q374 1144 370 1016T362 797T356 648T354 555T353
501T352 471Q352 265 450 161T760 57Q965 57 1073 175T1190 535Q1201 817 1206 977T1212 1182Q1212 1225 1206 1252T1188 1294T1158 1316T1114 1327L1071 1333V1391Q1090 1387 1118 1383Q1142 1380 1177 1378T1262 1376Q1310 1376 1369 1379T1503 1391V1333Q1477
1331 1458 1329T1421 1326T1388 1323T1354 1321L1286 520Q1274 387 1236 285T1132 113T969 7T745 -29Q620 -29 518 -3T344 76T233 210T193 401Q193 422 194 464T197 562T201 682T207 812T212 939T217 1051T220 1136T221 1182Q221 1225 215 1252T196 1294T164 1316T121
1327L78 1333V1391V1391ZM510 1546L471 1587L821 1892L1149 1587L1106 1546L815 1724L510 1546Z" />
<glyph unicode="&#xdc;" glyph-name="Udieresis" horiz-adv-x="1501" d="M78 1391Q100 1387 131 1383Q157 1380 194 1378T283 1376Q334 1376 395 1379T530 1391V1333Q504 1331 485 1329T448 1326T415 1323T381 1321Q374 1144 370 1016T362 797T356 648T354 555T353
501T352 471Q352 265 450 161T760 57Q965 57 1073 175T1190 535Q1201 817 1206 977T1212 1182Q1212 1225 1206 1252T1188 1294T1158 1316T1114 1327L1071 1333V1391Q1090 1387 1118 1383Q1142 1380 1177 1378T1262 1376Q1310 1376 1369 1379T1503 1391V1333Q1477
1331 1458 1329T1421 1326T1388 1323T1354 1321L1286 520Q1274 387 1236 285T1132 113T969 7T745 -29Q620 -29 518 -3T344 76T233 210T193 401Q193 422 194 464T197 562T201 682T207 812T212 939T217 1051T220 1136T221 1182Q221 1225 215 1252T196 1294T164 1316T121
1327L78 1333V1391V1391ZM897 1661Q897 1688 905 1707T927 1739T959 1757T995 1763Q1013 1763 1031 1757T1062 1739T1084 1708T1093 1661Q1093 1610 1065 1578T995 1546Q953 1546 925 1578T897 1661ZM528 1661Q528 1688 536 1707T559 1739T590 1757T627 1763Q645
1763 663 1757T694 1739T716 1708T725 1661Q725 1610 697 1578T627 1546Q585 1546 557 1578T528 1661Z" />
<glyph unicode="&#xdd;" glyph-name="Yacute" horiz-adv-x="1255" d="M709 590Q704 433 701 345T698 225Q698 176 703 146T721 99T752 75T797 63L840 57V0Q818 3 787 7Q761 9 723 11T635 14Q584 14 523 11T387 0V57Q413 59 433 61T469 65T502 68T537 70L549 606L242
1137Q211 1191 184 1225T131 1281T80 1311T27 1325L-16 1331V1389Q9 1385 42 1381Q71 1378 111 1376T205 1374Q257 1374 319 1377T457 1389V1331Q431 1329 411 1327T374 1324T341 1321T307 1319L659 696H676L932 1137Q981 1225 981 1266Q981 1294 963 1307T913
1325L870 1331V1389Q889 1385 917 1381Q941 1378 976 1376T1061 1374Q1109 1374 1169 1377T1305 1389V1331Q1279 1329 1259 1327T1222 1324T1189 1321T1155 1319L709 590ZM510 1591L852 1892Q872 1858 897 1828T950 1774L547 1546L510 1591Z" />
<glyph unicode="&#xde;" glyph-name="Thorn" horiz-adv-x="1090" d="M594 1120Q708 1120 791 1089T927 1004T1006 881T1032 733Q1032 643 996 566T899 432T757 343T586 311Q526 311 487 322L489 373Q523 367 557 367Q627 367 685 394T784 468T849 575T872 702Q872
784 850 849T783 960T671 1030T514 1055Q480 1055 453 1052T399 1044Q397 981 395 899T389 728T383 554T378 397T375 275T373 211Q373 167 378 140T396 97T426 74T471 63L514 57V0Q492 3 461 7Q435 9 397 11T309 14Q258 14 197 11T61 0V57Q87 59 107 61T144 65T177
68T211 70Q216 203 220 333T229 583T237 805T244 987T248 1117T250 1182Q250 1225 244 1252T225 1294T193 1316T150 1327L106 1333V1391Q128 1387 159 1383Q185 1380 222 1378T311 1376Q362 1376 423 1379T559 1391V1333Q533 1331 513 1329T477 1326T444 1323T410
1321L401 1110Q437 1113 481 1116T594 1120Z" />
<glyph unicode="&#xdf;" glyph-name="germandbls" horiz-adv-x="1202" d="M233 1051Q234 1073 244 1119T278 1221T338 1336T429 1443T555 1523T723 1554Q801 1554 860 1535T962 1485T1033 1412T1079 1327T1103 1237T1110 1153Q1110 1088 1100 1027T1061 905Q1011
936 966 950T864 965Q833 965 805 954T756 921T722 872T709 809Q709 768 725 735T769 672T833 615T907 559Q955 524 998 490T1075 417T1127 334T1147 236Q1147 189 1128 143T1067 61T962 3T807 -20Q748 -20 699 -10T615 19T559 66T539 129Q539 183 574 214T666
248V229Q666 184 679 148T716 86T772 47T844 33Q876 33 907 42T963 72T1003 123T1018 197Q1018 236 1005 268T969 328T920 378T866 422Q821 457 777 488T699 553T643 629T621 729Q621 791 643 848T705 948T798 1016T915 1042Q923 1042 933 1042T961 1038Q975 1063
984 1106T993 1210Q993 1265 979 1316T931 1407T845 1469T715 1493Q636 1493 579 1467T481 1396T416 1291T375 1162T354 1021T344 877Q340 785 337 693T332 516T328 360T326 238Q326 179 330 142T349 83T391 55T463 47H500V0Q452 -2 410 -3T328 -7T247 -15T160
-33Q171 61 180 164T196 372T210 583T221 788Q171 785 124 782T31 774L35 877H225Q227 923 229 966T233 1051Z" />
<glyph unicode="&#xe0;" glyph-name="agrave" horiz-adv-x="924" d="M55 156Q55 215 85 258T164 332T273 383T393 415T506 432T594 440Q599 485 600 527T602 606Q602 653 595 696T568 772T513 824T420 844Q380 844 346 829T288 789T250 729T236 655Q236 640 238
625T246 592Q235 579 216 572T176 565Q161 565 147 569T122 584T105 610T98 649Q98 705 136 751T233 829T361 879T492 897Q610 897 676 843T743 664Q743 610 739 546T728 418T718 299T713 205Q713 142 728 107T776 72Q795 72 814 83T850 110T880 142T901 168L938
137Q903 88 873 58T816 10T764 -14T715 -20Q678 -20 651 -6T607 33T580 88T569 152Q549 119 522 88T459 33T377 -5T274 -20Q206 -20 163 -3T96 41T64 99T55 156ZM326 53Q390 53 435 81T511 157T560 264T588 389Q554 386 512 382T428 370T345 347T273 309T222 254T203
176Q203 138 215 115T247 77T287 58T326 53ZM802 1133L462 1444Q496 1469 525 1493T581 1544L851 1171L802 1133Z" />
<glyph unicode="&#xe1;" glyph-name="aacute" horiz-adv-x="924" d="M55 156Q55 215 85 258T164 332T273 383T393 415T506 432T594 440Q599 485 600 527T602 606Q602 653 595 696T568 772T513 824T420 844Q380 844 346 829T288 789T250 729T236 655Q236 640 238
625T246 592Q235 579 216 572T176 565Q161 565 147 569T122 584T105 610T98 649Q98 705 136 751T233 829T361 879T492 897Q610 897 676 843T743 664Q743 610 739 546T728 418T718 299T713 205Q713 142 728 107T776 72Q795 72 814 83T850 110T880 142T901 168L938
137Q903 88 873 58T816 10T764 -14T715 -20Q678 -20 651 -6T607 33T580 88T569 152Q549 119 522 88T459 33T377 -5T274 -20Q206 -20 163 -3T96 41T64 99T55 156ZM326 53Q390 53 435 81T511 157T560 264T588 389Q554 386 512 382T428 370T345 347T273 309T222 254T203
176Q203 138 215 115T247 77T287 58T326 53ZM616 1165L867 1544Q895 1516 927 1494T992 1456L663 1133L616 1165Z" />
<glyph unicode="&#xe2;" glyph-name="acircumflex" horiz-adv-x="924" d="M55 156Q55 215 85 258T164 332T273 383T393 415T506 432T594 440Q599 485 600 527T602 606Q602 653 595 696T568 772T513 824T420 844Q380 844 346 829T288 789T250 729T236 655Q236 640
238 625T246 592Q235 579 216 572T176 565Q161 565 147 569T122 584T105 610T98 649Q98 705 136 751T233 829T361 879T492 897Q610 897 676 843T743 664Q743 610 739 546T728 418T718 299T713 205Q713 142 728 107T776 72Q795 72 814 83T850 110T880 142T901 168L938
137Q903 88 873 58T816 10T764 -14T715 -20Q678 -20 651 -6T607 33T580 88T569 152Q549 119 522 88T459 33T377 -5T274 -20Q206 -20 163 -3T96 41T64 99T55 156ZM326 53Q390 53 435 81T511 157T560 264T588 389Q554 386 512 382T428 370T345 347T273 309T222 254T203
176Q203 138 215 115T247 77T287 58T326 53ZM179 1133L140 1174L492 1544L818 1174L775 1133L486 1376L179 1133Z" />
<glyph unicode="&#xe3;" glyph-name="atilde" horiz-adv-x="924" d="M55 156Q55 215 85 258T164 332T273 383T393 415T506 432T594 440Q599 485 600 527T602 606Q602 653 595 696T568 772T513 824T420 844Q380 844 346 829T288 789T250 729T236 655Q236 640 238
625T246 592Q235 579 216 572T176 565Q161 565 147 569T122 584T105 610T98 649Q98 705 136 751T233 829T361 879T492 897Q610 897 676 843T743 664Q743 610 739 546T728 418T718 299T713 205Q713 142 728 107T776 72Q795 72 814 83T850 110T880 142T901 168L938
137Q903 88 873 58T816 10T764 -14T715 -20Q678 -20 651 -6T607 33T580 88T569 152Q549 119 522 88T459 33T377 -5T274 -20Q206 -20 163 -3T96 41T64 99T55 156ZM326 53Q390 53 435 81T511 157T560 264T588 389Q554 386 512 382T428 370T345 347T273 309T222 254T203
176Q203 138 215 115T247 77T287 58T326 53ZM1119 1384Q1109 1345 1091 1301T1043 1220T973 1158T877 1133Q828 1133 783 1160T689 1225Q663 1246 645 1261T611 1286T583 1302T554 1307Q528 1307 508 1289T471 1243T442 1186T423 1133L367 1153Q377 1192 395 1236T443
1317T513 1380T609 1405Q659 1405 703 1378T798 1313Q824 1292 842 1277T876 1251T904 1236T933 1231Q958 1231 978 1249T1015 1295T1044 1352T1064 1405L1119 1384Z" />
<glyph unicode="&#xe4;" glyph-name="adieresis" horiz-adv-x="924" d="M55 156Q55 215 85 258T164 332T273 383T393 415T506 432T594 440Q599 485 600 527T602 606Q602 653 595 696T568 772T513 824T420 844Q380 844 346 829T288 789T250 729T236 655Q236 640
238 625T246 592Q235 579 216 572T176 565Q161 565 147 569T122 584T105 610T98 649Q98 705 136 751T233 829T361 879T492 897Q610 897 676 843T743 664Q743 610 739 546T728 418T718 299T713 205Q713 142 728 107T776 72Q795 72 814 83T850 110T880 142T901 168L938
137Q903 88 873 58T816 10T764 -14T715 -20Q678 -20 651 -6T607 33T580 88T569 152Q549 119 522 88T459 33T377 -5T274 -20Q206 -20 163 -3T96 41T64 99T55 156ZM326 53Q390 53 435 81T511 157T560 264T588 389Q554 386 512 382T428 370T345 347T273 309T222 254T203
176Q203 138 215 115T247 77T287 58T326 53ZM543 1128Q503 1128 475 1154T447 1235Q447 1258 454 1279T474 1315T507 1340T550 1350Q588 1350 616 1323T644 1243Q644 1220 637 1199T618 1163T586 1138T543 1128ZM914 1128Q874 1128 846 1154T818 1235Q818 1258
825 1279T845 1315T877 1340T920 1350Q958 1350 986 1323T1014 1243Q1014 1220 1008 1199T988 1163T957 1138T914 1128Z" />
<glyph unicode="&#xe5;" glyph-name="aring" horiz-adv-x="924" d="M55 156Q55 215 85 258T164 332T273 383T393 415T506 432T594 440Q599 485 600 527T602 606Q602 653 595 696T568 772T513 824T420 844Q380 844 346 829T288 789T250 729T236 655Q236 640 238
625T246 592Q235 579 216 572T176 565Q161 565 147 569T122 584T105 610T98 649Q98 705 136 751T233 829T361 879T492 897Q610 897 676 843T743 664Q743 610 739 546T728 418T718 299T713 205Q713 142 728 107T776 72Q795 72 814 83T850 110T880 142T901 168L938
137Q903 88 873 58T816 10T764 -14T715 -20Q678 -20 651 -6T607 33T580 88T569 152Q549 119 522 88T459 33T377 -5T274 -20Q206 -20 163 -3T96 41T64 99T55 156ZM326 53Q390 53 435 81T511 157T560 264T588 389Q554 386 512 382T428 370T345 347T273 309T222 254T203
176Q203 138 215 115T247 77T287 58T326 53ZM738 1456Q710 1456 688 1445T651 1416T628 1373T620 1323Q620 1301 627 1278T649 1235T686 1204T741 1192Q796 1192 827 1226T859 1323Q859 1344 852 1367T830 1410T792 1443T738 1456ZM536 1309Q536 1349 552 1385T597
1450T668 1496T761 1513Q809 1513 844 1500T902 1463T936 1409T947 1346Q947 1301 929 1262T881 1195T810 1150T724 1133Q672 1133 636 1148T578 1188T546 1244T536 1309Z" />
<glyph unicode="&#xe6;" glyph-name="ae" horiz-adv-x="1452" d="M1192 526Q1086 526 977 534T750 553Q746 530 745 508T743 463Q744 353 771 282T842 170T944 112T1063 96Q1102 96 1137 101T1209 119T1282 150T1362 199L1389 160Q1288 75 1190 28T979 -20Q915
-20 861 -3T762 45T684 118T629 211Q602 162 567 120T488 46T390 -2T274 -20Q206 -20 163 -3T96 41T64 99T55 156Q55 214 85 256T164 330T273 381T393 413T506 431T594 440Q599 485 600 527T602 606Q602 653 595 696T568 772T513 824T420 844Q380 844 346 829T288
789T250 729T236 655Q236 640 238 625T246 592Q235 579 216 572T176 565Q161 565 147 569T122 584T105 610T98 649Q98 705 136 751T233 829T361 879T492 897Q586 897 647 863T731 752Q794 820 875 858T1047 897Q1137 897 1197 867T1294 788T1346 683T1362 571Q1362
560 1362 551T1360 532Q1274 526 1192 526ZM326 53Q390 53 435 81T511 157T560 264T588 389Q554 387 512 383T428 371T345 348T273 311T222 255T203 176Q203 138 215 115T247 77T287 58T326 53ZM1012 842Q961 842 921 823T849 770T795 692T760 600Q831 598 880
597T963 596H1061Q1096 596 1132 597T1217 600V610Q1217 664 1202 707T1160 780T1095 826T1012 842Z" />
<glyph unicode="&#xe7;" glyph-name="ccedilla" horiz-adv-x="918" d="M369 -160Q375 -147 382 -130T398 -94T415 -56T429 -20Q342 -19 275 12T163 98T94 225T70 381Q70 484 105 578T207 742T367 855T578 897Q639 897 689 884T775 850T830 801T850 743Q850 721
841 703T815 673T778 652T733 643Q730 674 717 708T676 770T606 816T502 834Q449 834 397 812T302 743T234 625T207 457Q207 368 230 301T295 188T397 119T528 96Q555 96 587 99T655 114T731 145T815 199L844 160Q752 80 664 38T491 -16L473 -66Q554 -80 597 -125T641
-233Q641 -272 623 -309T574 -376T498 -422T401 -440Q352 -440 329 -416T305 -362Q305 -332 328 -309Q336 -315 352 -324T390 -341T434 -356T479 -362Q497 -362 515 -357T546 -341T568 -315T577 -281Q577 -244 562 -221T519 -184T453 -165T369 -160Z" />
<glyph unicode="&#xe8;" glyph-name="egrave" horiz-adv-x="928" d="M668 526Q561 526 452 534T225 553Q219 506 219 463Q220 353 247 282T318 170T420 112T539 96Q578 96 613 101T685 119T758 150T838 199L864 160Q764 75 666 28T455 -20Q365 -20 294 13T173
103T97 234T70 391Q70 498 106 590T205 751T350 858T522 897Q613 897 673 867T770 788T822 683T838 571Q838 560 838 551T836 532Q749 526 668 526ZM487 838Q436 838 396 819T324 768T271 692T236 600Q307 598 355 597T438 596H537Q572 596 608 597T692 600V610Q692
664 677 706T635 778T570 822T487 838ZM849 1133L509 1444Q543 1469 572 1493T628 1544L898 1171L849 1133Z" />
<glyph unicode="&#xe9;" glyph-name="eacute" horiz-adv-x="928" d="M668 526Q561 526 452 534T225 553Q219 506 219 463Q220 353 247 282T318 170T420 112T539 96Q578 96 613 101T685 119T758 150T838 199L864 160Q764 75 666 28T455 -20Q365 -20 294 13T173
103T97 234T70 391Q70 498 106 590T205 751T350 858T522 897Q613 897 673 867T770 788T822 683T838 571Q838 560 838 551T836 532Q749 526 668 526ZM487 838Q436 838 396 819T324 768T271 692T236 600Q307 598 355 597T438 596H537Q572 596 608 597T692 600V610Q692
664 677 706T635 778T570 822T487 838ZM702 1165L953 1544Q981 1516 1013 1494T1078 1456L749 1133L702 1165Z" />
<glyph unicode="&#xea;" glyph-name="ecircumflex" horiz-adv-x="928" d="M668 526Q561 526 452 534T225 553Q219 506 219 463Q220 353 247 282T318 170T420 112T539 96Q578 96 613 101T685 119T758 150T838 199L864 160Q764 75 666 28T455 -20Q365 -20 294 13T173
103T97 234T70 391Q70 498 106 590T205 751T350 858T522 897Q613 897 673 867T770 788T822 683T838 571Q838 560 838 551T836 532Q749 526 668 526ZM487 838Q436 838 396 819T324 768T271 692T236 600Q307 598 355 597T438 596H537Q572 596 608 597T692 600V610Q692
664 677 706T635 778T570 822T487 838ZM497 1133L458 1174L810 1544L1136 1174L1093 1133L804 1376L497 1133Z" />
<glyph unicode="&#xeb;" glyph-name="edieresis" horiz-adv-x="928" d="M668 526Q561 526 452 534T225 553Q219 506 219 463Q220 353 247 282T318 170T420 112T539 96Q578 96 613 101T685 119T758 150T838 199L864 160Q764 75 666 28T455 -20Q365 -20 294 13T173
103T97 234T70 391Q70 498 106 590T205 751T350 858T522 897Q613 897 673 867T770 788T822 683T838 571Q838 560 838 551T836 532Q749 526 668 526ZM487 838Q436 838 396 819T324 768T271 692T236 600Q307 598 355 597T438 596H537Q572 596 608 597T692 600V610Q692
664 677 706T635 778T570 822T487 838ZM590 1128Q550 1128 522 1154T494 1235Q494 1258 501 1279T521 1315T554 1340T597 1350Q635 1350 663 1323T691 1243Q691 1220 684 1199T665 1163T633 1138T590 1128ZM961 1128Q921 1128 893 1154T865 1235Q865 1258 872 1279T892
1315T924 1340T967 1350Q1005 1350 1033 1323T1061 1243Q1061 1220 1055 1199T1035 1163T1004 1138T961 1128Z" />
<glyph unicode="&#xec;" glyph-name="igrave" horiz-adv-x="522" d="M362 897Q350 818 341 736T326 573T316 412T313 258Q313 190 317 149T334 85T372 55T442 47H487V0H471Q377 0 302 -7T154 -33Q178 129 190 290T203 606Q203 654 198 689T175 749T126 785T41
797H20V844Q121 847 204 862T362 897ZM245 1133L-95 1444Q-61 1469 -32 1493T24 1544L294 1171L245 1133Z" />
<glyph unicode="&#xed;" glyph-name="iacute" horiz-adv-x="522" d="M362 897Q350 818 341 736T326 573T316 412T313 258Q313 190 317 149T334 85T372 55T442 47H487V0H471Q377 0 302 -7T154 -33Q178 129 190 290T203 606Q203 654 198 689T175 749T126 785T41
797H20V844Q121 847 204 862T362 897ZM223 1165L474 1544Q502 1516 534 1494T599 1456L270 1133L223 1165Z" />
<glyph unicode="&#xee;" glyph-name="icircumflex" horiz-adv-x="522" d="M362 897Q350 818 341 736T326 573T316 412T313 258Q313 190 317 149T334 85T372 55T442 47H487V0H471Q377 0 302 -7T154 -33Q178 129 190 290T203 606Q203 654 198 689T175 749T126 785T41
797H20V844Q121 847 204 862T362 897ZM-9 1133L-48 1174L304 1544L630 1174L587 1133L298 1376L-9 1133Z" />
<glyph unicode="&#xef;" glyph-name="idieresis" horiz-adv-x="522" d="M362 897Q350 818 341 736T326 573T316 412T313 258Q313 190 317 149T334 85T372 55T442 47H487V0H471Q377 0 302 -7T154 -33Q178 129 190 290T203 606Q203 654 198 689T175 749T126 785T41
797H20V844Q121 847 204 862T362 897ZM107 1128Q67 1128 39 1154T11 1235Q11 1258 18 1279T38 1315T71 1340T114 1350Q152 1350 180 1323T208 1243Q208 1220 201 1199T182 1163T150 1138T107 1128ZM478 1128Q438 1128 410 1154T382 1235Q382 1258 389 1279T409
1315T441 1340T484 1350Q522 1350 550 1323T578 1243Q578 1220 572 1199T552 1163T521 1138T478 1128Z" />
<glyph unicode="&#xf0;" glyph-name="eth" horiz-adv-x="1036" d="M954 1393Q900 1374 846 1353T735 1311Q835 1193 894 1027T954 651Q954 577 944 499T909 345T848 204T758 88T635 9T477 -20Q390 -20 315 5T185 81T99 210T68 393Q68 453 84 514T131 631T205 735T302
820T419 876T553 897Q607 897 667 891T784 858Q775 910 762 963T729 1069T685 1171T627 1266Q564 1238 502 1206T381 1137L385 1239Q431 1262 480 1283T580 1323Q517 1392 430 1442T227 1513L229 1554Q357 1554 474 1504T688 1360Q751 1380 813 1397T938 1432L954
1393ZM805 586Q805 623 804 663T797 748Q747 791 683 816T547 842Q473 842 415 813T315 731T253 603T231 436Q231 364 249 293T305 166T398 74T528 39Q589 39 633 65T708 136T758 237T787 355T801 476T805 586Z" />
<glyph unicode="&#xf1;" glyph-name="ntilde" horiz-adv-x="1114" d="M1090 0Q1037 -2 992 -3T907 -8T828 -16T750 -33Q759 25 768 98T786 245T800 391T805 516Q805 568 801 618T778 707T721 771T616 795Q578 795 539 782T464 748T395 702T338 655Q335 607 332
554T326 448T321 346T319 254Q319 189 322 149T338 86T376 55T444 47H494V0Q386 0 306 -7T154 -33Q177 113 190 267T203 584Q203 623 200 661T181 729T132 778T39 797H20V844Q65 846 103 848T178 856T257 871T350 897Q341 852 332 802T317 709Q428 803 522 850T713
897Q744 897 783 888T858 849T917 768T942 629Q942 573 938 512T928 392T918 277T913 176Q913 136 919 111T940 72T978 52T1036 47H1090V0ZM991 1384Q981 1345 963 1301T915 1220T845 1158T749 1133Q700 1133 655 1160T561 1225Q535 1246 517 1261T483 1286T455
1302T426 1307Q400 1307 380 1289T343 1243T314 1186T295 1133L239 1153Q249 1192 267 1236T315 1317T385 1380T481 1405Q531 1405 575 1378T670 1313Q696 1292 714 1277T748 1251T776 1236T805 1231Q830 1231 850 1249T887 1295T916 1352T936 1405L991 1384Z"
/>
<glyph unicode="&#xf2;" glyph-name="ograve" horiz-adv-x="1055" d="M522 840Q448 840 391 807T296 719T237 593T217 444Q217 371 235 299T290 170T386 77T526 41Q598 41 654 68T749 145T808 267T829 428Q829 494 811 566T756 700T660 800T522 840ZM70 391Q70
486 104 577T202 739T358 853T567 897Q678 897 756 866T883 782T954 657T977 506Q977 398 939 302T834 135T677 22T483 -20Q363 -20 284 14T157 106T90 237T70 391ZM840 1133L500 1444Q534 1469 563 1493T619 1544L889 1171L840 1133Z" />
<glyph unicode="&#xf3;" glyph-name="oacute" horiz-adv-x="1055" d="M522 840Q448 840 391 807T296 719T237 593T217 444Q217 371 235 299T290 170T386 77T526 41Q598 41 654 68T749 145T808 267T829 428Q829 494 811 566T756 700T660 800T522 840ZM70 391Q70
486 104 577T202 739T358 853T567 897Q678 897 756 866T883 782T954 657T977 506Q977 398 939 302T834 135T677 22T483 -20Q363 -20 284 14T157 106T90 237T70 391ZM478 1165L729 1544Q757 1516 789 1494T854 1456L525 1133L478 1165Z" />
<glyph unicode="&#xf4;" glyph-name="ocircumflex" horiz-adv-x="1055" d="M522 840Q448 840 391 807T296 719T237 593T217 444Q217 371 235 299T290 170T386 77T526 41Q598 41 654 68T749 145T808 267T829 428Q829 494 811 566T756 700T660 800T522 840ZM70 391Q70
486 104 577T202 739T358 853T567 897Q678 897 756 866T883 782T954 657T977 506Q977 398 939 302T834 135T677 22T483 -20Q363 -20 284 14T157 106T90 237T70 391ZM513 1133L474 1174L826 1544L1152 1174L1109 1133L820 1376L513 1133Z" />
<glyph unicode="&#xf5;" glyph-name="otilde" horiz-adv-x="1055" d="M522 840Q448 840 391 807T296 719T237 593T217 444Q217 371 235 299T290 170T386 77T526 41Q598 41 654 68T749 145T808 267T829 428Q829 494 811 566T756 700T660 800T522 840ZM70 391Q70
486 104 577T202 739T358 853T567 897Q678 897 756 866T883 782T954 657T977 506Q977 398 939 302T834 135T677 22T483 -20Q363 -20 284 14T157 106T90 237T70 391ZM1183 1384Q1173 1345 1155 1301T1107 1220T1037 1158T941 1133Q892 1133 847 1160T753 1225Q727
1246 709 1261T675 1286T647 1302T618 1307Q592 1307 572 1289T535 1243T506 1186T487 1133L431 1153Q441 1192 459 1236T507 1317T577 1380T673 1405Q723 1405 767 1378T862 1313Q888 1292 906 1277T940 1251T968 1236T997 1231Q1022 1231 1042 1249T1079 1295T1108
1352T1128 1405L1183 1384Z" />
<glyph unicode="&#xf6;" glyph-name="odieresis" horiz-adv-x="1055" d="M522 840Q448 840 391 807T296 719T237 593T217 444Q217 371 235 299T290 170T386 77T526 41Q598 41 654 68T749 145T808 267T829 428Q829 494 811 566T756 700T660 800T522 840ZM70 391Q70
486 104 577T202 739T358 853T567 897Q678 897 756 866T883 782T954 657T977 506Q977 398 939 302T834 135T677 22T483 -20Q363 -20 284 14T157 106T90 237T70 391ZM625 1128Q585 1128 557 1154T529 1235Q529 1258 536 1279T556 1315T589 1340T632 1350Q670 1350
698 1323T726 1243Q726 1220 719 1199T700 1163T668 1138T625 1128ZM996 1128Q956 1128 928 1154T900 1235Q900 1258 907 1279T927 1315T959 1340T1002 1350Q1040 1350 1068 1323T1096 1243Q1096 1220 1090 1199T1070 1163T1039 1138T996 1128Z" />
<glyph unicode="&#xf7;" glyph-name="divide" horiz-adv-x="1180" d="M496 287Q496 297 498 315T509 352T538 383T592 397Q626 397 645 384T674 352T686 316T688 287Q688 277 686 259T675 222T646 190T592 176Q557 176 538 189T510 221T498 258T496 287ZM121 696H1063V598H121V696ZM496
1008Q496 1018 498 1036T509 1073T538 1104T592 1118Q626 1118 645 1105T674 1073T686 1037T688 1008Q688 998 686 980T675 943T646 911T592 897Q557 897 538 910T510 942T498 979T496 1008Z" />
<glyph unicode="&#xf8;" glyph-name="oslash" horiz-adv-x="1055" d="M70 391Q70 486 104 577T202 739T358 853T567 897Q661 897 730 875T849 813L997 967L1044 920L896 766Q938 713 957 647T977 506Q977 398 939 302T834 135T677 22T483 -20Q393 -20 327 -1T213
53L55 -111L8 -63L163 98Q112 156 91 232T70 391ZM522 842Q448 842 391 809T296 720T237 593T217 444Q217 382 229 322T268 208L750 709Q712 767 656 804T522 842ZM829 428Q829 480 818 537T783 648L304 149Q342 99 396 69T526 39Q598 39 654 66T749 144T808 267T829
428Z" />
<glyph unicode="&#xf9;" glyph-name="ugrave" horiz-adv-x="1116" d="M18 844Q108 847 195 861T360 897Q339 764 319 627T299 346Q299 290 306 242T335 159T396 103T498 82Q532 82 570 96T645 131T715 178T772 225Q778 318 783 412T788 606Q788 653 784 688T762
748T713 784T623 797H608V844Q715 849 798 862T956 897Q951 874 946 833T935 739T924 625T915 501T909 375T907 258Q907 212 911 173T932 106T981 63T1069 47H1090V0Q1031 -2 984 -4T898 -9T826 -17T762 -33Q766 -11 771 15T780 69T787 121T793 168Q677 65 579
23T399 -20Q346 -20 304 -4T231 47T185 134T168 260Q168 309 171 364T179 474T186 579T190 668Q190 737 157 767T37 797H18V844ZM610 1133L270 1444Q304 1469 333 1493T389 1544L659 1171L610 1133Z" />
<glyph unicode="&#xfa;" glyph-name="uacute" horiz-adv-x="1116" d="M18 844Q108 847 195 861T360 897Q339 764 319 627T299 346Q299 290 306 242T335 159T396 103T498 82Q532 82 570 96T645 131T715 178T772 225Q778 318 783 412T788 606Q788 653 784 688T762
748T713 784T623 797H608V844Q715 849 798 862T956 897Q951 874 946 833T935 739T924 625T915 501T909 375T907 258Q907 212 911 173T932 106T981 63T1069 47H1090V0Q1031 -2 984 -4T898 -9T826 -17T762 -33Q766 -11 771 15T780 69T787 121T793 168Q677 65 579
23T399 -20Q346 -20 304 -4T231 47T185 134T168 260Q168 309 171 364T179 474T186 579T190 668Q190 737 157 767T37 797H18V844ZM486 1165L737 1544Q765 1516 797 1494T862 1456L533 1133L486 1165Z" />
<glyph unicode="&#xfb;" glyph-name="ucircumflex" horiz-adv-x="1116" d="M18 844Q108 847 195 861T360 897Q339 764 319 627T299 346Q299 290 306 242T335 159T396 103T498 82Q532 82 570 96T645 131T715 178T772 225Q778 318 783 412T788 606Q788 653 784 688T762
748T713 784T623 797H608V844Q715 849 798 862T956 897Q951 874 946 833T935 739T924 625T915 501T909 375T907 258Q907 212 911 173T932 106T981 63T1069 47H1090V0Q1031 -2 984 -4T898 -9T826 -17T762 -33Q766 -11 771 15T780 69T787 121T793 168Q677 65 579
23T399 -20Q346 -20 304 -4T231 47T185 134T168 260Q168 309 171 364T179 474T186 579T190 668Q190 737 157 767T37 797H18V844ZM527 1133L488 1174L840 1544L1166 1174L1123 1133L834 1376L527 1133Z" />
<glyph unicode="&#xfc;" glyph-name="udieresis" horiz-adv-x="1116" d="M18 844Q108 847 195 861T360 897Q339 764 319 627T299 346Q299 290 306 242T335 159T396 103T498 82Q532 82 570 96T645 131T715 178T772 225Q778 318 783 412T788 606Q788 653 784 688T762
748T713 784T623 797H608V844Q715 849 798 862T956 897Q951 874 946 833T935 739T924 625T915 501T909 375T907 258Q907 212 911 173T932 106T981 63T1069 47H1090V0Q1031 -2 984 -4T898 -9T826 -17T762 -33Q766 -11 771 15T780 69T787 121T793 168Q677 65 579
23T399 -20Q346 -20 304 -4T231 47T185 134T168 260Q168 309 171 364T179 474T186 579T190 668Q190 737 157 767T37 797H18V844ZM644 1128Q604 1128 576 1154T548 1235Q548 1258 555 1279T575 1315T608 1340T651 1350Q689 1350 717 1323T745 1243Q745 1220 738
1199T719 1163T687 1138T644 1128ZM1015 1128Q975 1128 947 1154T919 1235Q919 1258 926 1279T946 1315T978 1340T1021 1350Q1059 1350 1087 1323T1115 1243Q1115 1220 1109 1199T1089 1163T1058 1138T1015 1128Z" />
<glyph unicode="&#xfd;" glyph-name="yacute" horiz-adv-x="901" d="M477 162H498Q528 217 563 283T629 420T679 563T700 705Q700 750 690 790T655 868Q675 884 700 890T750 897Q799 897 823 867T848 782Q848 732 831 675T788 558T730 442T672 336L483 0Q455 -51
422 -111T352 -231T279 -348T203 -448T128 -518T57 -545Q0 -545 -25 -514T-50 -437Q-50 -418 -47 -403T-37 -371Q-22 -377 -2 -382T42 -387Q92 -387 138 -359T229 -281T314 -167T397 -29L174 662Q162 700 149 726T117 767T76 790T20 797H4V844Q48 845 80 849T142
861T201 877T272 897Q277 861 283 829T296 766T312 703T332 635L477 162ZM653 1165L904 1544Q932 1516 964 1494T1029 1456L700 1133L653 1165Z" />
<glyph unicode="&#xfe;" glyph-name="thorn" horiz-adv-x="1014" d="M106 -225Q115 -100 124 44T140 336T154 630T166 900T173 1124T176 1278Q176 1330 170 1364T148 1418T102 1446T27 1454H-6V1501Q38 1503 76 1506T153 1516T236 1531T336 1554Q330 1507 324
1437T312 1288T300 1124T290 964T282 824T276 723Q334 769 382 802T472 856T553 887T629 897Q777 897 855 801T934 524Q934 407 892 307T773 135T591 21T362 -20Q314 -20 287 -18T242 -14Q236 -134 236 -233Q236 -300 239 -344T257 -416T299 -454T379 -465H410V-514Q362
-514 320 -514T238 -518T157 -527T70 -545Q73 -524 77 -496T86 -428T96 -339T106 -225ZM250 75Q282 62 330 52T428 42Q509 42 574 75T686 167T758 307T784 487Q784 568 765 626T713 721T639 777T555 795Q517 795 477 781T400 746T331 700T274 653L250 75Z" />
<glyph unicode="&#xff;" glyph-name="ydieresis" horiz-adv-x="901" d="M477 162H498Q528 217 563 283T629 420T679 563T700 705Q700 750 690 790T655 868Q675 884 700 890T750 897Q799 897 823 867T848 782Q848 732 831 675T788 558T730 442T672 336L483 0Q455
-51 422 -111T352 -231T279 -348T203 -448T128 -518T57 -545Q0 -545 -25 -514T-50 -437Q-50 -418 -47 -403T-37 -371Q-22 -377 -2 -382T42 -387Q92 -387 138 -359T229 -281T314 -167T397 -29L174 662Q162 700 149 726T117 767T76 790T20 797H4V844Q48 845 80 849T142
861T201 877T272 897Q277 861 283 829T296 766T312 703T332 635L477 162ZM597 1128Q557 1128 529 1154T501 1235Q501 1258 508 1279T528 1315T561 1340T604 1350Q642 1350 670 1323T698 1243Q698 1220 691 1199T672 1163T640 1138T597 1128ZM968 1128Q928 1128
900 1154T872 1235Q872 1258 879 1279T899 1315T931 1340T974 1350Q1012 1350 1040 1323T1068 1243Q1068 1220 1062 1199T1042 1163T1011 1138T968 1128Z" />
<glyph unicode="&#x2013;" glyph-name="endash" horiz-adv-x="1190" d="M1044 430H133L137 545H1049L1044 430Z" />
<glyph unicode="&#x2014;" glyph-name="emdash" horiz-adv-x="1532" d="M1386 430H133L137 545H1391L1386 430Z" />
<glyph unicode="&#x2018;" glyph-name="quoteleft" horiz-adv-x="393" d="M362 1509Q335 1491 311 1470T267 1423T237 1368T225 1305Q225 1269 235 1243T263 1198T301 1167T344 1147Q344 1129 338 1111T317 1076T282 1050T233 1040Q209 1040 186 1049T145 1077T116
1128T104 1202Q104 1239 114 1282T150 1372T219 1464T330 1552L362 1509Z" />
<glyph unicode="&#x2019;" glyph-name="quoteright" horiz-adv-x="369" d="M86 1085Q112 1104 137 1126T181 1173T211 1227T223 1288Q223 1321 213 1347T185 1392T147 1425T104 1448Q104 1466 110 1484T131 1518T165 1544T215 1554Q239 1554 262 1545T303 1517T333
1467T344 1393Q344 1356 334 1313T297 1223T228 1131T117 1042L86 1085Z" />
<glyph unicode="&#x201a;" glyph-name="quotesinglbase" horiz-adv-x="432" d="M61 -270Q87 -252 112 -230T156 -183T187 -129T199 -68Q199 -35 189 -9T161 36T123 70T80 92Q80 110 86 128T106 163T141 189T190 199Q214 199 237 190T278 162T308 111T319 37Q319
0 309 -43T272 -133T203 -225T92 -313L61 -270Z" />
<glyph unicode="&#x201c;" glyph-name="quotedblleft" horiz-adv-x="764" d="M365 1511Q339 1493 314 1471T270 1424T239 1369T227 1309Q227 1276 237 1250T265 1205T303 1171T346 1149Q346 1131 340 1113T320 1078T285 1052T236 1042Q212 1042 189 1051T147 1080T118
1130T106 1204Q106 1241 116 1284T153 1374T223 1466T334 1554L365 1511ZM731 1511Q704 1493 679 1472T636 1425T606 1370T594 1307Q594 1271 604 1245T632 1200T670 1169T713 1149Q713 1131 707 1113T686 1078T651 1052T602 1042Q578 1042 555 1051T514 1080T485
1130T473 1204Q473 1241 483 1284T518 1374T587 1466T698 1554L731 1511Z" />
<glyph unicode="&#x201d;" glyph-name="quotedblright" horiz-adv-x="735" d="M86 1085Q113 1104 138 1125T181 1172T211 1227T223 1290Q223 1326 213 1352T185 1396T147 1427T104 1448Q104 1466 110 1484T131 1518T165 1544T215 1554Q239 1554 262 1545T303 1517T333
1467T344 1393Q344 1356 334 1313T299 1223T230 1131T119 1042L86 1085ZM453 1085Q479 1104 503 1126T547 1173T578 1227T590 1288Q590 1321 580 1347T552 1392T514 1425T471 1448Q471 1466 477 1484T498 1518T532 1544T582 1554Q606 1554 629 1545T670 1517T699
1467T711 1393Q711 1356 701 1313T664 1223T594 1131T483 1042L453 1085Z" />
<glyph unicode="&#x201e;" glyph-name="quotedblbase" horiz-adv-x="799" d="M61 -270Q87 -252 112 -230T156 -183T187 -129T199 -68Q199 -35 189 -9T161 36T123 70T80 92Q80 110 86 128T106 163T141 189T190 199Q214 199 237 190T278 162T308 111T319 37Q319
0 309 -43T272 -133T203 -225T92 -313L61 -270ZM428 -270Q454 -252 479 -230T523 -183T553 -129T565 -68Q565 -35 555 -9T527 36T489 70T446 92Q446 110 452 128T473 163T507 189T557 199Q581 199 604 190T645 162T675 111T686 37Q686 0 676 -43T639 -133T570 -225T459
-313L428 -270Z" />
<glyph unicode="&#x2022;" glyph-name="bullet" horiz-adv-x="662" d="M162 696Q162 732 175 763T212 818T266 855T334 868Q370 868 401 855T456 819T492 764T506 696Q506 660 493 629T456 574T402 538T334 524Q298 524 267 537T212 574T176 628T162 696Z" />
<glyph unicode="&#x2039;" glyph-name="guilsinglleft" horiz-adv-x="668" d="M573 117L541 86L49 522L571 981L604 950L270 522L573 117Z" />
<glyph unicode="&#x203a;" glyph-name="guilsinglright" horiz-adv-x="666" d="M90 950L123 981L612 522L92 86L59 117L391 522L90 950Z" />
</font>
</defs>
</svg>
