<?xml version="1.0" standalone="no"?>
<!DOCTYPE svg PUBLIC "-//W3C//DTD SVG 1.1//EN" "http://www.w3.org/Graphics/SVG/1.1/DTD/svg11.dtd">
<svg xmlns="http://www.w3.org/2000/svg">
<defs >
<font id="Cairo" horiz-adv-x="572" ><font-face
    font-family="Cairo ExtraLight"
    units-per-em="1000"
    panose-1="0 0 3 0 0 0 0 0 0 0"
    ascent="1303"
    descent="-571"
    alphabetic="0" />
<glyph unicode=" " glyph-name="space" horiz-adv-x="220" />
<glyph unicode="!" glyph-name="exclam" horiz-adv-x="225" d="M95 700H130L131 213H94L95 700ZM93 79H134V0H93V79Z" />
<glyph unicode="&quot;" glyph-name="quotedbl" horiz-adv-x="348" d="M74 700H113L110 490H77L74 700ZM235 700H274L270 490H237L235 700Z" />
<glyph unicode="#" glyph-name="numbersign" horiz-adv-x="560" d="M150 191H29V223H150V449H29V481H150V670H186V481H374V670H410V481H531V449H410V223H531V191H410V0H374V191H186V0H150V191ZM374 223V449H186V223H374Z" />
<glyph unicode="$" glyph-name="dollar" horiz-adv-x="560" d="M212 -117T212 -113L226 -5Q225 -6 201 -4T159 1L97 7L83 8L88 40Q162 30 229 25L269 326Q196 340 157 357T99 408T80 504Q80 570 101 605T165 655T284 669L313 667L330 790H365L349 666L372 664Q383
663 402 662T446 657L470 654L467 622L439 625Q370 633 346 635L309 354Q378 341 414 324T468 276T485 188Q485 90 438 42T285 -7H261L247 -120Q212 -117 212 -113ZM310 639Q236 640 195 630T135 590T115 505Q115 457 130 429T178 386T273 357L310 639ZM359 20T404
60T450 190Q450 236 437 261T393 299T305 324L266 23Q359 20 404 60Z" />
<glyph unicode="%" glyph-name="percent" horiz-adv-x="560" d="M93 398T65 433T37 537Q37 669 141 669Q192 669 218 636T244 537Q244 468 217 433T141 398Q93 398 65 433ZM175 -1L360 669L391 660L206 -9L175 -1ZM176 429T192 455T209 539Q209 591 194 614T142
637Q106 637 90 614T74 539Q74 483 91 456T142 429Q176 429 192 455ZM372 -9T345 26T318 131Q318 262 421 262Q472 262 497 229T523 132Q523 63 495 27T419 -9Q372 -9 345 26ZM458 23T473 48T488 129Q488 184 473 207T421 231Q384 231 368 208T352 132Q352 75 368
49T421 23Q458 23 473 48Z" />
<glyph unicode="&amp;" glyph-name="ampersand" horiz-adv-x="679" d="M154 -9T101 45T47 203Q47 268 65 308T119 370T210 409Q186 434 173 465T159 541Q159 617 198 655T314 694Q389 694 427 657T465 548Q465 478 427 437T300 367L488 183Q503 228 510 267T522
367L557 368Q543 228 514 156L654 18L630 -7L499 123Q460 46 407 19T278 -9Q154 -9 101 45ZM361 420T396 453T431 546Q431 605 402 633T312 661Q252 661 223 633T194 548Q194 474 239 426L276 392Q361 420 396 453ZM353 25T398 54T473 148L237 383Q181 368 148
349T99 296T83 209Q83 115 130 70T274 25Q353 25 398 54Z" />
<glyph unicode="&apos;" glyph-name="quotesingle" horiz-adv-x="187" d="M74 700H113L110 490H77L74 700Z" />
<glyph unicode="(" glyph-name="parenleft" horiz-adv-x="235" d="M101 20T81 114T60 304Q60 400 83 506T156 750H191Q151 644 124 515T96 291Q96 215 122 104T191 -125H156Q101 20 81 114Z" />
<glyph unicode=")" glyph-name="parenright" horiz-adv-x="235" d="M44 -125Q93 12 115 110T137 289Q137 485 44 750H79Q128 614 151 507T175 304Q175 210 155 115T79 -125H44Z" />
<glyph unicode="*" glyph-name="asterisk" horiz-adv-x="417" d="M193 510L84 431L63 458L173 538L65 617L86 645L195 564L237 693L269 683L228 553H362V519H224L267 391L234 380L193 510Z" />
<glyph unicode="+" glyph-name="plus" horiz-adv-x="560" d="M261 234H58V268H261V481H297V268H502V234H297V19H261V234Z" />
<glyph unicode="," glyph-name="comma" horiz-adv-x="196" d="M87 87H126L75 -123H43L87 87Z" />
<glyph unicode="-" glyph-name="hyphen" horiz-adv-x="458" d="M76 299H384V263H76V299Z" />
<glyph unicode="." glyph-name="period" horiz-adv-x="189" d="M74 79H115V0H74V79Z" />
<glyph unicode="/" glyph-name="slash" horiz-adv-x="376" d="M33 11L311 701L344 688L66 -1L33 11Z" />
<glyph unicode="0" glyph-name="zero" horiz-adv-x="560" d="M201 -10T151 21T75 127T49 329Q49 456 74 530T150 637T280 669Q357 669 407 637T483 530T509 329Q509 202 484 128T408 22T280 -10Q201 -10 151 21ZM348 23T389 51T451 146T472 329Q472 444 452 510T390
605T280 634Q212 634 171 606T109 511T88 329Q88 213 108 147T170 52T280 23Q348 23 389 51Z" />
<glyph unicode="1" glyph-name="one" horiz-adv-x="560" d="M333 621L145 495L129 523L334 660H370V0H333V621Z" />
<glyph unicode="2" glyph-name="two" horiz-adv-x="560" d="M72 30L299 273Q305 279 343 318T407 406T432 498Q432 572 391 603T254 635Q192 635 110 615L83 608L77 644Q174 669 269 669Q370 669 419 629T469 500Q469 436 440 385T337 261L121 32H490V0H72V30Z" />
<glyph unicode="3" glyph-name="three" horiz-adv-x="560" d="M197 -9T96 7L65 14L72 49Q177 21 254 21Q343 21 398 56T453 183Q453 254 414 291T291 332H158V366H291Q324 366 357 383T413 433T435 507Q435 576 400 605T283 635Q182 635 110 620L84 614L79 648Q173
670 281 670Q383 670 427 631T472 502Q472 456 441 412T360 354Q428 335 459 298T490 184Q490 85 441 38T286 -9Q197 -9 96 7Z" />
<glyph unicode="4" glyph-name="four" horiz-adv-x="560" d="M387 142H40V172L245 660H283L83 176H387V396H423V176H521V142H423V0H387V142Z" />
<glyph unicode="5" glyph-name="five" horiz-adv-x="560" d="M236 -7T198 -4T103 11L72 17L77 50Q188 26 265 26Q361 26 411 75T461 216Q461 302 417 340T284 378Q249 378 203 364T136 336L111 322L77 326L95 660H468V623H130L111 360Q199 413 291 413Q498 413
498 220Q498 109 442 51T281 -7Q236 -7 198 -4Z" />
<glyph unicode="6" glyph-name="six" horiz-adv-x="560" d="M174 -9T117 75T60 330Q60 501 123 585T307 669Q389 669 452 663L476 660L473 625Q394 635 299 635Q205 635 152 562T99 358L126 371Q151 382 202 394T290 406Q508 406 508 207Q508 105 450 48T289 -9Q174
-9 117 75ZM374 25T422 71T470 204Q470 288 423 329T289 371Q252 371 201 359T125 336L98 323Q99 185 144 105T278 25Q374 25 422 71Z" />
<glyph unicode="7" glyph-name="seven" horiz-adv-x="560" d="M181 6L446 603V625H82V660H484V596L218 -9L181 6Z" />
<glyph unicode="8" glyph-name="eight" horiz-adv-x="560" d="M35 -9T35 168Q35 218 49 250T91 305T169 348Q105 371 76 407T46 505Q46 590 107 630Q164 670 278 670Q391 670 452 629T514 504Q514 440 483 405T379 348Q452 327 488 288T524 179Q524 84 467 38T281
-9Q35 -9 35 168ZM331 364Q407 382 441 413T476 503Q476 636 280 636Q84 636 84 507Q84 448 115 415T214 364H331ZM486 25T486 178Q486 224 469 252T420 298T331 330H214Q141 312 107 275T73 168Q73 25 280 25Q486 25 486 178Z" />
<glyph unicode="9" glyph-name="nine" horiz-adv-x="560" d="M187 -9T99 0L77 2L80 35Q159 25 246 25Q353 25 406 93T461 300Q355 257 258 257Q151 257 101 305T50 451Q50 516 77 565T153 642T265 669Q385 669 442 580T500 316Q500 146 437 69T246 -9Q187 -9 99
0ZM332 290T429 323L462 335Q457 635 270 635Q186 635 137 585T88 451Q88 290 260 290Q332 290 429 323Z" />
<glyph unicode=":" glyph-name="colon" horiz-adv-x="191" d="M74 423H115V344H74V423ZM74 79H115V0H74V79Z" />
<glyph unicode=";" glyph-name="semicolon" horiz-adv-x="227" d="M99 423H140V344H99V423ZM105 87H145L93 -123H62L105 87Z" />
<glyph unicode="&lt;" glyph-name="less" horiz-adv-x="560" d="M58 233V269L480 486V446L89 251L480 56V15L58 233Z" />
<glyph unicode="=" glyph-name="equal" horiz-adv-x="560" d="M68 353H492V318H68V353ZM68 183H492V149H68V183Z" />
<glyph unicode="&gt;" glyph-name="greater" horiz-adv-x="560" d="M78 56L469 251L78 446V486L501 269V233L78 15V56Z" />
<glyph unicode="?" glyph-name="question" horiz-adv-x="454" d="M179 205T179 231Q179 273 204 306T298 402Q335 436 351 457T373 500T378 561Q378 620 339 647T213 675Q179 675 51 648L47 682Q158 709 204 709Q313 709 362 672T412 546Q412 507 404 482T377
435T319 377Q255 321 234 291T213 228V190H180Q179 205 179 231ZM176 81H217V2H176V81Z" />
<glyph unicode="@" glyph-name="at" horiz-adv-x="980" d="M385 -199T308 -177T173 -103Q60 -5 60 261Q60 425 107 526T252 673T503 719Q655 719 747 676T883 542T926 305V289Q926 161 909 97T859 11T769 -10Q720 -10 693 5T655 53Q546 -8 463 -8Q413 -8 377 8T318
75T295 223Q295 328 315 389T381 479T506 508Q556 508 617 489L637 482V500H672V301Q672 106 687 59Q701 31 716 25T751 19T779 20Q829 20 852 59T882 152T888 289V306Q888 443 850 526T728 649T503 688Q360 688 271 646T140 510T97 259Q97 100 139 7T269 -127T505
-168L648 -157L649 -191Q545 -199 505 -199Q385 -199 308 -177ZM510 23T648 83Q637 144 637 301V450Q561 477 506 477Q440 477 402 452T347 376T331 239Q331 23 464 23Q510 23 648 83Z" />
<glyph unicode="A" glyph-name="A" horiz-adv-x="592" d="M463 215H129L63 0H29L243 700H276L282 705L280 700H312L310 705L316 700H349L563 0H529L463 215ZM452 250L450 257L451 256L322 666H270L142 257L140 250H452Z" />
<glyph unicode="B" glyph-name="B" horiz-adv-x="621" d="M92 700H333Q435 700 485 657T535 524Q535 457 510 419T436 362Q500 341 530 299T561 183Q561 86 508 43T352 0H92V700ZM343 375Q422 375 459 412T496 524Q496 600 458 632T332 665H129V375H343ZM351 35Q435
35 479 71T524 186Q524 274 474 307T343 341H129V35H351Z" />
<glyph unicode="C" glyph-name="C" horiz-adv-x="545" d="M221 -9T165 32T88 150T67 352Q67 469 86 545T161 665T325 709Q399 709 501 690L499 655Q394 675 316 675Q228 675 184 643T123 537T106 325Q106 220 122 157T188 60T333 25Q400 25 499 46L502 11Q397
-9 326 -9Q221 -9 165 32Z" />
<glyph unicode="D" glyph-name="D" horiz-adv-x="650" d="M493 700T539 600T585 371Q585 182 521 91T351 0H92V700H351Q493 700 539 600ZM406 33T450 69T521 178T548 354Q548 511 494 589T351 667H129V33H351Q406 33 450 69Z" />
<glyph unicode="E" glyph-name="E" horiz-adv-x="552" d="M129 374H441V341H129V33H501V0H92V700H501V667H129V374Z" />
<glyph unicode="F" glyph-name="F" horiz-adv-x="523" d="M129 667V350H442V317H129V0H92V700H493V667H129Z" />
<glyph unicode="G" glyph-name="G" horiz-adv-x="619" d="M230 -9T173 30T91 147T65 348Q65 472 89 550T171 669T326 709Q416 709 514 689L547 684L544 649Q414 675 317 675Q244 675 198 646T128 549T104 363Q104 240 124 167T192 60T328 25Q373 25 413 29T511
45V312H360V347H547V16Q434 -9 326 -9Q230 -9 173 30Z" />
<glyph unicode="H" glyph-name="H" horiz-adv-x="674" d="M581 700V0H547V334H129V0H92V700H129V369H547V700H581Z" />
<glyph unicode="I" glyph-name="I" horiz-adv-x="219" d="M92 700H129V0H92V700Z" />
<glyph unicode="J" glyph-name="J" horiz-adv-x="280" d="M17 -38Q85 -38 111 -31T146 2T155 96V700H190L191 82Q191 13 175 -20T131 -63T57 -73H17V-38Z" />
<glyph unicode="K" glyph-name="K" horiz-adv-x="553" d="M256 327L129 329V0H92V700H129V363L253 361L478 700H520L284 346L535 0H490L256 327Z" />
<glyph unicode="L" glyph-name="L" horiz-adv-x="484" d="M469 34V0H92V700H129V34H469Z" />
<glyph unicode="M" glyph-name="M" horiz-adv-x="828" d="M736 700V0H699V666H690L440 22H388L137 666H129V0H92V700H167L414 64L661 700H736Z" />
<glyph unicode="N" glyph-name="N" horiz-adv-x="665" d="M572 700V0H489L148 667H129V0H92V700H177L515 33H538V700H572Z" />
<glyph unicode="O" glyph-name="O" horiz-adv-x="665" d="M231 -9T173 28T90 142T66 347Q66 473 91 552T174 670T333 709Q433 709 491 671T575 553T601 344Q601 212 577 136T494 26T334 -9Q231 -9 173 28ZM425 25T474 56T543 156T563 344Q563 463 542 534T471
640T333 675Q244 675 194 641T124 537T103 347Q103 223 124 154T194 55T334 25Q425 25 474 56Z" />
<glyph unicode="P" glyph-name="P" horiz-adv-x="596" d="M92 700H347Q455 700 504 649T554 486Q554 369 503 313T347 256H129V0H92V700ZM346 291Q516 291 516 486Q516 578 476 621T346 665H129V291H346Z" />
<glyph unicode="Q" glyph-name="Q" horiz-adv-x="665" d="M443 4Q391 -9 333 -9Q230 -9 172 28T90 142T66 347Q66 473 91 552T174 670T333 709Q433 709 491 671T575 554T601 348Q601 206 575 130T480 19L566 -120L530 -138L443 4ZM425 25T474 56T543 156T563 344Q563
463 542 534T471 640T333 675Q244 675 194 641T124 537T103 348Q103 224 124 155T195 56T334 25Q425 25 474 56Z" />
<glyph unicode="R" glyph-name="R" horiz-adv-x="613" d="M92 700H343Q448 700 499 652T551 499Q551 320 406 295L563 0H522L367 290H129V0H92V700ZM343 324Q429 324 471 365T514 495Q514 583 473 624T343 665H129V324H343Z" />
<glyph unicode="S" glyph-name="S" horiz-adv-x="541" d="M219 -7T96 5L60 9L64 44Q202 26 272 26Q448 26 448 199Q448 247 435 273T386 315T273 343Q188 357 143 376T77 431T55 535Q55 623 107 666T272 710Q360 710 471 695L467 659Q316 677 271 677Q94 677 94
537Q94 480 105 454T155 413T283 380Q359 367 402 349T465 296T485 203Q485 95 435 44T274 -7Q219 -7 96 5Z" />
<glyph unicode="T" glyph-name="T" horiz-adv-x="526" d="M247 666H13V700H513V666H281V0H247V666Z" />
<glyph unicode="U" glyph-name="U" horiz-adv-x="637" d="M201 -9T145 40T88 197V700H124V195Q124 25 314 25Q415 25 465 65T515 195V700H549V197Q549 89 491 40T317 -9Q201 -9 145 40Z" />
<glyph unicode="V" glyph-name="V" horiz-adv-x="568" d="M29 700H66L252 33H316L502 700H539L342 0H226L29 700Z" />
<glyph unicode="W" glyph-name="W" horiz-adv-x="857" d="M37 700H74L215 35H253L407 690H450L604 35H642L783 700H818L671 0H575L428 640L281 0H186L37 700Z" />
<glyph unicode="X" glyph-name="X" horiz-adv-x="551" d="M252 348L26 700H69L276 373L484 700H527L302 346L527 0H484L278 322L69 0H26L252 348Z" />
<glyph unicode="Y" glyph-name="Y" horiz-adv-x="525" d="M245 302L17 700H60L263 341L466 700H509L281 302V0H245V302Z" />
<glyph unicode="Z" glyph-name="Z" horiz-adv-x="539" d="M44 67L457 642V667H44V700H494V630L80 55V33H494V-2H44V67Z" />
<glyph unicode="[" glyph-name="bracketleft" horiz-adv-x="312" d="M86 749H268V717H122V-91H268V-123H86V749Z" />
<glyph unicode="\" glyph-name="backslash" horiz-adv-x="395" d="M29 687L64 701L364 15L330 1L29 687Z" />
<glyph unicode="]" glyph-name="bracketright" horiz-adv-x="312" d="M43 -123V-91H190V717H43V749H225V-123H43Z" />
<glyph unicode="^" glyph-name="asciicircum" horiz-adv-x="560" d="M262 660H297L486 323H446L281 623L123 323H83L262 660Z" />
<glyph unicode="_" glyph-name="underscore" horiz-adv-x="640" d="M106 -105H534V-139H106V-105Z" />
<glyph unicode="`" glyph-name="grave" horiz-adv-x="215" d="M10 701L26 731L218 636L203 609L10 701Z" />
<glyph unicode="a" glyph-name="a" horiz-adv-x="494" d="M116 -9T82 29T47 134Q47 201 80 236T186 282L376 301V352Q376 414 350 444T279 475Q235 475 202 472T76 458L73 491Q177 509 262 509Q339 509 375 471T412 352V64Q413 49 433 38T486 22L484 -9Q451 -9
423 3T381 35Q281 -9 179 -9Q116 -9 82 29ZM267 24T348 54L376 65V268L190 250Q135 246 111 220T86 140Q86 24 180 24Q267 24 348 54Z" />
<glyph unicode="b" glyph-name="b" horiz-adv-x="514" d="M148 -7T100 -2L79 0V730H113V468Q197 509 287 509Q352 509 388 484T439 404T454 254Q454 148 434 93T362 16T211 -7Q148 -7 100 -2ZM308 23T348 46T403 119T418 258Q418 343 406 389T365 456T282 477Q210
477 113 437V29Q141 27 151 27Q215 23 230 23Q308 23 348 46Z" />
<glyph unicode="c" glyph-name="c" horiz-adv-x="429" d="M180 -9T138 17T78 100T60 253Q60 323 69 375T119 469T243 510Q276 510 304 508T386 498L383 467Q307 477 260 477Q197 477 162 456T112 386T97 246Q97 162 111 115T161 45T266 23L385 33L387 1Q294 -9
258 -9Q180 -9 138 17Z" />
<glyph unicode="d" glyph-name="d" horiz-adv-x="516" d="M136 -9T97 51T58 240Q58 337 79 395T149 481T278 509Q308 509 342 506T401 496V730H435V0H401V43Q322 -9 228 -9Q136 -9 97 51ZM269 23T312 36T377 62L401 75V464Q328 478 272 478Q205 478 167 454T112
380T96 248Q96 136 126 80T230 23Q269 23 312 36Z" />
<glyph unicode="e" glyph-name="e" horiz-adv-x="502" d="M149 -9T104 50T59 236Q59 376 107 442T261 509Q357 509 403 451T449 269V236H95Q94 157 110 112T164 45T271 23Q297 23 332 25T400 29L430 32L432 -1Q310 -9 260 -9Q149 -9 104 50ZM412 268Q412 379 376
428T262 477Q179 477 137 426T94 268H412Z" />
<glyph unicode="f" glyph-name="f" horiz-adv-x="314" d="M98 468H29V500H98V560Q98 630 110 668T149 723T225 739L318 733L317 705Q241 706 229 706T213 707Q165 707 149 672T133 559V500H294V468H133V0H98V468Z" />
<glyph unicode="g" glyph-name="g" horiz-adv-x="501" d="M171 -238T130 -222T74 -174T59 -86Q59 -50 66 -30T88 4T142 48Q131 55 126 72T120 109Q120 121 125 136T151 191Q65 216 65 343Q65 428 106 469T240 510Q289 510 342 497L482 500V465L373 464Q393 450
403 419T414 342Q414 254 371 217T233 179Q201 179 178 183L170 163Q163 146 159 133T155 108Q155 78 176 68T240 58L309 59Q363 59 397 48T449 8T468 -78Q468 -134 448 -168T381 -220T250 -238Q171 -238 130 -222ZM315 211T346 240T377 345Q377 419 347 448T241
478Q164 478 132 448T100 343Q100 269 131 240T239 211Q315 211 346 240ZM323 -207T361 -195T415 -154T432 -75Q432 -33 422 -12T381 18T289 26L169 30Q136 8 121 -6T100 -38T94 -84Q94 -132 108 -158T157 -196T255 -207Q323 -207 361 -195Z" />
<glyph unicode="h" glyph-name="h" horiz-adv-x="526" d="M79 730H114V469Q205 509 290 509Q357 509 391 487T439 413T453 259V0H417V258Q417 350 407 395T370 459T286 477Q245 477 210 470T137 447L114 438V0H79V730Z" />
<glyph unicode="i" glyph-name="i" horiz-adv-x="191" d="M79 500H113V0H79V500ZM334 700H368V645H334V700Z" />
<glyph unicode="j" glyph-name="j" horiz-adv-x="192" d="M-59 -188Q1 -155 29 -131T69 -77T80 6V500H114V5Q114 -54 101 -90T54 -155T-44 -218L-59 -188ZM335 700H369V645H335V700Z" />
<glyph unicode="k" glyph-name="k" horiz-adv-x="455" d="M79 730H114V289H210L383 500H424L239 275L431 0H390L209 257L114 258V0H79V730Z" />
<glyph unicode="l" glyph-name="l" horiz-adv-x="205" d="M85 730H120V0H85V730Z" />
<glyph unicode="m" glyph-name="m" horiz-adv-x="834" d="M79 500H113V460Q193 509 282 509Q378 509 411 455Q440 475 496 492T611 509Q671 509 703 485T747 408T760 259V0H725V259Q725 348 716 393T681 458T604 477Q556 477 510 465T445 440L423 428Q442 424
442 261V0H407V259Q407 345 398 391T363 457T289 477Q245 477 201 466T135 440L114 427V0H79V500Z" />
<glyph unicode="n" glyph-name="n" horiz-adv-x="526" d="M79 500H113V460Q164 487 206 498T294 509Q359 509 392 487T439 412T453 259V0H419V259Q419 345 410 391T375 457T300 477Q255 477 209 465T138 440L114 427V0H79V500Z" />
<glyph unicode="o" glyph-name="o" horiz-adv-x="525" d="M179 -9T136 14T76 91T59 244Q59 348 77 404T138 485T263 509Q344 509 387 485T448 404T466 244Q466 145 450 92T391 15T263 -9Q179 -9 136 14ZM335 24T369 44T416 110T428 244Q428 339 415 387T368 456T264
476Q195 476 160 456T111 387T97 244Q97 157 109 111T157 45T264 24Q335 24 369 44Z" />
<glyph unicode="p" glyph-name="p" horiz-adv-x="516" d="M79 500H113V458Q197 509 287 509Q378 509 418 449T458 258Q458 163 437 105T368 19T239 -9Q177 -9 114 4V-230H79V500ZM343 22T382 76T422 253Q422 373 389 425T290 477Q252 477 208 464T138 437L114
424V37Q155 31 190 27T250 22Q343 22 382 76Z" />
<glyph unicode="q" glyph-name="q" horiz-adv-x="515" d="M400 28Q365 10 323 1T239 -9Q141 -9 100 50T58 242Q58 338 79 395T150 481T286 509L434 501V-230H400V28ZM309 23T379 53L400 63V470Q318 478 284 478Q211 478 170 453T112 377T95 241Q95 161 109 114T154
45T241 23Q309 23 379 53Z" />
<glyph unicode="r" glyph-name="r" horiz-adv-x="329" d="M79 500H113V422Q200 487 312 510V474Q270 466 218 444T143 405L114 388V0H79V500Z" />
<glyph unicode="s" glyph-name="s" horiz-adv-x="460" d="M173 -9T86 3L57 7L61 41Q179 23 231 23Q306 23 341 49T376 134Q376 175 360 196T318 226T245 242Q227 244 218 246Q150 257 115 271T66 309T51 371Q51 449 98 478T234 508Q313 508 370 499L395 494L393
462Q345 470 301 474T230 478Q154 478 121 452T87 377Q87 340 104 322T148 296T239 277Q308 265 342 252T394 213T412 139Q412 61 366 26T224 -9Q173 -9 86 3Z" />
<glyph unicode="t" glyph-name="t" horiz-adv-x="342" d="M184 -10T158 5T121 59T109 168V468H30V500H109V662H143V500H326V468H143V206Q143 130 148 94T173 39T235 21L332 30L337 -2Q255 -10 230 -10Q184 -10 158 5Z" />
<glyph unicode="u" glyph-name="u" horiz-adv-x="516" d="M166 -9T133 12T87 86T74 240V500H109V243Q109 154 118 108T154 43T231 23Q279 23 322 36T402 73V500H438V0H401V40Q362 15 323 3T231 -9Q166 -9 133 12Z" />
<glyph unicode="v" glyph-name="v" horiz-adv-x="470" d="M32 500H72L213 32H256L402 500H440L285 0H187L32 500Z" />
<glyph unicode="w" glyph-name="w" horiz-adv-x="755" d="M36 500H73L200 32H211L359 490H397L544 32H557L683 500H720L585 0H516L378 448L239 0H171L36 500Z" />
<glyph unicode="x" glyph-name="x" horiz-adv-x="437" d="M198 249L27 500H69L219 277L368 500H409L239 250L408 0H366L219 223L69 0H27L198 249Z" />
<glyph unicode="y" glyph-name="y" horiz-adv-x="472" d="M246 0H186L31 500H68L216 32H255L405 500H442L212 -230H175L246 0Z" />
<glyph unicode="z" glyph-name="z" horiz-adv-x="456" d="M43 32L369 468H43V500H414V468L87 32H414V0H43V32Z" />
<glyph unicode="{" glyph-name="braceleft" horiz-adv-x="346" d="M207 -120T167 -79T126 53L133 176Q133 223 110 250T29 294V327Q86 339 109 367T133 446L126 574Q126 665 167 706T302 751L303 719Q224 715 193 682T161 574L168 455Q168 391 147 360T68 311Q123
292 145 262T167 169L160 53Q160 -20 192 -54T305 -92L301 -124Q207 -120 167 -79Z" />
<glyph unicode="|" glyph-name="bar" horiz-adv-x="205" d="M85 730H119V-230H85V730Z" />
<glyph unicode="}" glyph-name="braceright" horiz-adv-x="346" d="M41 -92Q122 -88 154 -54T186 53L179 169Q179 231 201 261T278 311Q221 329 200 360T178 455L185 574Q185 648 154 681T43 719L44 751Q138 747 179 706T220 574L213 446Q213 396 236 368T317
327V294Q260 278 237 251T213 176L220 53Q220 -37 180 -78T45 -124L41 -92Z" />
<glyph unicode="~" glyph-name="asciitilde" horiz-adv-x="560" d="M349 212T278 249Q204 286 186 286Q169 286 145 275T100 247L83 233L71 265Q133 319 182 319Q211 319 286 284Q357 247 377 247Q414 247 465 285L482 298L494 268Q455 237 429 225T376 212Q349
212 278 249Z" />
<glyph unicode="&#xa0;" glyph-name="uni00A0" horiz-adv-x="220" />
<glyph unicode="&#xa1;" glyph-name="exclamdown" horiz-adv-x="204" d="M121 500V421H81V500H121ZM118 287L117 -200H82V287H118Z" />
<glyph unicode="&#xa2;" glyph-name="cent" horiz-adv-x="560" d="M283 41Q218 44 181 62T127 123T110 244Q110 358 151 408T283 462V591H318V459L434 448L432 415Q364 424 303 424Q243 424 210 407T163 352T149 247Q149 180 162 144T209 92T304 76L433 85L436
50Q346 41 318 41V-85H283V41Z" />
<glyph unicode="&#xa3;" glyph-name="sterling" horiz-adv-x="560" d="M83 34H176V374H107V406H176V459Q176 544 188 588T229 651T312 669Q361 669 409 661L431 657L432 625Q338 638 310 638Q269 638 248 623T218 570T209 454V406H392V374H209V34H383L466 50L473
18L391 0H83V34Z" />
<glyph unicode="&#xa4;" glyph-name="currency" horiz-adv-x="560" d="M77 76L145 144Q110 193 110 250Q110 310 145 360L77 428L104 455L172 386Q219 422 278 422Q339 422 388 386L456 455L483 428L414 360Q450 311 450 250Q450 191 414 144L483 76L456 49L388
118Q339 82 278 82Q217 82 172 118L104 49L77 76ZM316 118T347 136T396 185T414 252Q414 288 396 319T347 368T280 386Q244 386 213 368T164 319T146 252Q146 196 185 157Q224 118 280 118Q316 118 347 136Z" />
<glyph unicode="&#xa5;" glyph-name="yen" horiz-adv-x="560" d="M263 182H58V216H263V331H56V365H228L35 660H76L281 351L483 660H524L335 365H502V331H299V216H504V182H299V0H263V182Z" />
<glyph unicode="&#xa6;" glyph-name="brokenbar" horiz-adv-x="209" d="M87 730H121V355H87V730ZM87 147H121V-230H87V147Z" />
<glyph unicode="&#xa7;" glyph-name="section" horiz-adv-x="487" d="M167 -123T106 -115L77 -110L80 -77Q190 -92 245 -92Q312 -92 347 -60T383 35Q383 90 352 110Q320 128 233 140Q143 153 103 184T62 283Q62 319 81 355T116 404Q72 436 72 517Q72 660 247 660Q293
660 379 650L403 647L401 614Q293 629 236 629Q176 629 142 601T107 519Q107 473 116 452T155 419T257 394Q345 381 383 352T422 256Q422 191 382 129Q399 115 408 89T418 35Q418 -41 373 -82T244 -123Q167 -123 106 -115ZM362 152T374 190T386 265Q386 295 373
313T327 344T234 367Q189 373 176 376T141 389Q97 314 97 273Q97 230 132 206T252 169Q341 153 356 144Q362 152 374 190Z" />
<glyph unicode="&#xa8;" glyph-name="dieresis" horiz-adv-x="215" d="M0 700H35V638H0V700ZM189 700H226V638H189V700Z" />
<glyph unicode="&#xa9;" glyph-name="copyright" horiz-adv-x="646" d="M252 168T194 203T102 300T68 434Q68 508 101 568T193 664T322 700Q394 700 452 665T545 568T579 434Q579 361 546 300T454 204T324 168Q252 168 194 203ZM385 202T436 233T517 317T547 435Q547
499 518 552T437 637T324 668Q227 668 163 600Q100 531 100 434Q100 369 129 316T209 233T322 202Q385 202 436 233ZM263 281T239 317T214 433Q214 512 238 549T322 586Q368 586 387 583L397 580L395 549Q356 555 316 555Q277 555 262 528T247 434Q247 366 262
339T323 312L395 321L397 289Q358 281 327 281Q263 281 239 317Z" />
<glyph unicode="&#xaa;" glyph-name="ordfeminine" horiz-adv-x="372" d="M101 386T82 408T62 466Q62 536 137 542L239 549V572Q239 602 227 615T187 629L83 622L81 651Q155 659 190 659Q231 659 250 638T270 571V437Q281 420 307 414L305 386Q273 388 251 408Q189
386 132 386Q101 386 82 408ZM177 417T223 430L239 435V520L142 514Q117 513 106 501T95 464Q95 417 135 417Q177 417 223 430Z" />
<glyph unicode="&#xab;" glyph-name="guillemotleft" horiz-adv-x="498" d="M48 234V270L215 399V361L81 254L215 136V96L48 234ZM256 234V270L423 399V361L289 254L423 136V96L256 234Z" />
<glyph unicode="&#xac;" glyph-name="logicalnot" horiz-adv-x="560" d="M456 298H70V331H493V126H456V298Z" />
<glyph unicode="&#xae;" glyph-name="registered" horiz-adv-x="646" d="M252 168T194 203T102 300T68 435Q68 508 101 569T193 665T323 700Q395 700 453 665T545 570T579 435Q579 361 546 300T454 204T323 168Q252 168 194 203ZM386 202T437 232T517 316T547
434Q547 499 518 552T437 637T324 668Q262 668 211 638T130 554T100 436Q100 371 129 318T209 233T323 202Q386 202 437 232ZM221 581H314Q374 581 401 562T428 499Q428 457 414 436T368 404L432 286H397L333 402H254V286H221V581ZM332 433Q366 433 380 446T395
492Q395 551 315 551H253V433H332Z" />
<glyph unicode="&#xaf;" glyph-name="overscore" horiz-adv-x="215" d="M-20 674H247V642H-20V674Z" />
<glyph unicode="&#xb0;" glyph-name="degree" horiz-adv-x="560" d="M220 438T182 475T143 574Q143 634 181 671T280 709Q341 709 379 672T417 574Q417 513 379 476T280 438Q220 438 182 475ZM327 469T355 497T384 574Q384 620 355 648T280 677Q235 677 207 649T178
574Q178 526 205 498T280 469Q327 469 355 497Z" />
<glyph unicode="&#xb1;" glyph-name="plusminus" horiz-adv-x="560" d="M261 308H58V342H261V480H297V342H502V308H297V163H261V308ZM58 84H502V51H58V84Z" />
<glyph unicode="&#xb2;" glyph-name="uni00B2" horiz-adv-x="280" d="M36 510L134 615Q188 674 188 716Q188 742 174 754T131 767L40 756V785Q85 799 134 799Q224 799 224 707Q224 681 210 656T159 594L80 511H230V478H36V510Z" />
<glyph unicode="&#xb3;" glyph-name="uni00B3" horiz-adv-x="280" d="M37 480L39 511Q104 502 151 502Q207 502 207 563Q207 624 146 624H82V655H148Q166 655 182 674T198 719Q198 766 141 766L43 758L41 789Q91 799 139 799Q233 799 233 719Q233 669 187 644Q217
634 229 618T242 560Q242 469 144 469L37 480Z" />
<glyph unicode="&#xb4;" glyph-name="acute" horiz-adv-x="268" d="M40 636L232 731L249 701L55 609L40 636Z" />
<glyph unicode="&#xb5;" glyph-name="uni00B5" horiz-adv-x="560" d="M98 500H134V259Q133 159 142 111T179 43T262 23Q299 23 342 35T405 60L426 73V500H462V0H426V40Q346 -9 276 -9Q183 -9 134 18V-230H98V500Z" />
<glyph unicode="&#xb6;" glyph-name="paragraph" horiz-adv-x="589" d="M233 349H226Q173 349 131 371T65 433T40 524Q40 574 64 614T131 677T226 700H554V668H458V0H420V668H268V0H233V349Z" />
<glyph unicode="&#xb7;" glyph-name="middot" horiz-adv-x="191" d="M74 350H115V270H74V350Z" />
<glyph unicode="&#xb8;" glyph-name="cedilla" horiz-adv-x="262" d="M85 -201T61 -198L50 -197L52 -169Q112 -173 130 -173Q178 -173 178 -127Q178 -85 130 -85H76V1H109V-57Q166 -56 189 -71T212 -126Q212 -164 193 -182T131 -201Q85 -201 61 -198Z" />
<glyph unicode="&#xb9;" glyph-name="uni00B9" horiz-adv-x="280" d="M144 751L62 694L47 723L144 790H180V478H144V751Z" />
<glyph unicode="&#xba;" glyph-name="ordmasculine" horiz-adv-x="353" d="M62 386T62 525Q62 595 90 627T178 659Q236 659 263 627T290 525Q290 386 178 386Q62 386 62 525ZM220 417T238 442T256 525Q256 581 239 604T178 627Q134 627 116 604T97 525Q97 467
116 442T178 417Q220 417 238 442Z" />
<glyph unicode="&#xbb;" glyph-name="guillemotright" horiz-adv-x="496" d="M75 136L209 254L75 361V399L241 270V234L75 96V136ZM283 136L417 254L283 361V399L449 270V234L283 96V136Z" />
<glyph unicode="&#xbc;" glyph-name="onequarter" horiz-adv-x="560" d="M199 639L180 609V478H144V551L-194 10L-224 27L144 622V751L62 694L47 723L144 790H180V651L199 639ZM530 -10V-43H493V-100H458V-43H311V-12L400 212H438L351 -10H458L457 78H493V-10H530Z" />
<glyph unicode="&#xbd;" glyph-name="onehalf" horiz-adv-x="560" d="M199 639L180 609V478H144V551L-194 10L-224 27L144 622V751L62 694L47 723L144 790H180V651L199 639ZM510 -67V-100H316V-68L414 37Q468 96 468 138Q468 164 454 176T411 189L320 178V207Q365
221 414 221Q504 221 504 129Q504 103 490 78T439 16L360 -67H510Z" />
<glyph unicode="&#xbe;" glyph-name="threequarters" horiz-adv-x="560" d="M-224 27L167 659L199 639L-194 10L-224 27ZM178 -43H31V-12L120 212H158L71 -10H178L177 78H213V-10H250V-43H213V-100H178V-43ZM317 480L319 511Q384 502 431 502Q487 502 487 563Q487
624 426 624H362V655H428Q446 655 462 674T478 719Q478 766 421 766L323 758L321 789Q371 799 419 799Q513 799 513 719Q513 669 467 644Q497 634 509 618T522 560Q522 469 424 469L317 480Z" />
<glyph unicode="&#xbf;" glyph-name="questiondown" horiz-adv-x="446" d="M280 421H239V500H280V421ZM277 297T277 271Q277 229 252 196T158 100Q121 66 105 45T83 2T78 -59Q78 -118 117 -145T243 -173Q277 -173 405 -146L409 -180Q298 -207 252 -207Q143 -207
94 -170T44 -44Q44 -5 52 20T79 67T137 125Q201 181 222 211T243 274V312H276Q277 297 277 271Z" />
<glyph unicode="&#xc0;" glyph-name="Agrave" horiz-adv-x="592" d="M177 892L193 922L385 826L368 799L177 892ZM463 215H129L63 0H29L243 700H276L282 705L280 700H312L310 705L316 700H349L563 0H529L463 215ZM452 250L450 257L451 256L322 666H270L142 257L140
250H452Z" />
<glyph unicode="&#xc1;" glyph-name="Aacute" horiz-adv-x="592" d="M463 215H129L63 0H29L243 700H276L282 705L280 700H312L310 705L316 700H349L563 0H529L463 215ZM452 250L450 257L451 256L322 666H270L142 257L140 250H452ZM202 826L394 922L410 892L219
799L202 826Z" />
<glyph unicode="&#xc2;" glyph-name="Acircumflex" horiz-adv-x="592" d="M463 215H129L63 0H29L243 700H276L282 705L280 700H312L310 705L316 700H349L563 0H529L463 215ZM452 250L450 257L451 256L322 666H270L142 257L140 250H452ZM279 934H309L443 808H398L294
904L190 808H145L279 934Z" />
<glyph unicode="&#xc3;" glyph-name="Atilde" horiz-adv-x="592" d="M463 215H129L63 0H29L243 700H276L282 705L280 700H312L310 705L316 700H349L563 0H529L463 215ZM452 250L450 257L451 256L322 666H270L142 257L140 250H452ZM354 833T293 863Q236 892 220
892Q198 892 163 854L150 840L141 870Q161 893 183 908T223 924Q241 924 303 894Q364 864 373 864Q391 864 425 901L436 913L446 884Q418 850 403 842T372 833Q354 833 293 863Z" />
<glyph unicode="&#xc4;" glyph-name="Adieresis" horiz-adv-x="592" d="M463 215H129L63 0H29L243 700H276L282 705L280 700H312L310 705L316 700H349L563 0H529L463 215ZM452 250L450 257L451 256L322 666H270L142 257L140 250H452ZM179 899H216V837H179V899ZM375
899H410V837H375V899Z" />
<glyph unicode="&#xc5;" glyph-name="Aring" horiz-adv-x="592" d="M463 215H129L63 0H29L237 681Q217 693 207 713T196 760Q196 801 223 826T295 851Q339 851 365 826T391 760Q391 708 354 683L563 0H529L463 215ZM261 821T246 806T231 760Q231 712 271 700H276L282
705L280 700H312L310 705L316 700H319Q359 712 359 760Q359 789 343 805T295 821Q261 821 246 806ZM452 250L450 257L451 256L322 666H270L142 257L140 250H452Z" />
<glyph unicode="&#xc6;" glyph-name="AE" horiz-adv-x="879" d="M276 700H828V666H455V378H768V344H455V34H828V0H419V214H142L65 0H25L276 700ZM419 249L420 666H305L155 249H419Z" />
<glyph unicode="&#xc7;" glyph-name="Ccedilla" horiz-adv-x="545" d="M383 -56T406 -71T429 -126Q429 -164 410 -182T348 -201Q302 -201 278 -198L267 -197L269 -169Q329 -173 347 -173Q395 -173 395 -127Q395 -85 347 -85H293V-8Q202 -2 153 41T86 159T67 352Q67
469 86 545T161 665T325 709Q399 709 501 690L499 655Q394 675 316 675Q228 675 184 643T123 537T106 325Q106 220 122 157T188 60T333 25Q400 25 499 46L502 11Q397 -9 326 -9V-57Q383 -56 406 -71Z" />
<glyph unicode="&#xc8;" glyph-name="Egrave" horiz-adv-x="552" d="M129 374H441V341H129V33H501V0H92V700H501V667H129V374ZM189 892L205 922L397 826L380 799L189 892Z" />
<glyph unicode="&#xc9;" glyph-name="Eacute" horiz-adv-x="552" d="M129 374H441V341H129V33H501V0H92V700H501V667H129V374ZM190 826L382 922L398 892L207 799L190 826Z" />
<glyph unicode="&#xca;" glyph-name="Ecircumflex" horiz-adv-x="552" d="M129 374H441V341H129V33H501V0H92V700H501V667H129V374ZM276 934H306L440 808H395L291 904L187 808H142L276 934Z" />
<glyph unicode="&#xcb;" glyph-name="Edieresis" horiz-adv-x="552" d="M129 374H441V341H129V33H501V0H92V700H501V667H129V374ZM179 899H216V837H179V899ZM375 899H410V837H375V899Z" />
<glyph unicode="&#xcc;" glyph-name="Igrave" horiz-adv-x="219" d="M92 700H129V0H92V700ZM239 892L255 922L447 826L430 799L239 892Z" />
<glyph unicode="&#xcd;" glyph-name="Iacute" horiz-adv-x="219" d="M92 700H129V0H92V700ZM271 826L463 922L479 892L288 799L271 826Z" />
<glyph unicode="&#xce;" glyph-name="Icircumflex" horiz-adv-x="219" d="M92 700H129V0H92V700ZM345 934H375L509 808H464L360 904L256 808H211L345 934Z" />
<glyph unicode="&#xcf;" glyph-name="Idieresis" horiz-adv-x="219" d="M92 700H129V0H92V700ZM-7 899H30V837H-7V899ZM189 899H224V837H189V899Z" />
<glyph unicode="&#xd0;" glyph-name="Eth" horiz-adv-x="650" d="M94 334H17V367H94V700H354Q469 700 528 608T588 361Q588 241 557 160T472 40T354 0H94V334ZM354 34Q448 34 499 124T550 362Q550 465 524 533T453 634T354 666H130V367H307V334H130V34H354Z" />
<glyph unicode="&#xd1;" glyph-name="Ntilde" horiz-adv-x="665" d="M572 700V0H489L148 667H129V0H92V700H177L515 33H538V700H572ZM392 833T331 863Q274 892 258 892Q236 892 201 854L188 840L179 870Q199 893 221 908T261 924Q279 924 341 894Q402 864 411
864Q429 864 463 901L474 913L484 884Q456 850 441 842T410 833Q392 833 331 863Z" />
<glyph unicode="&#xd2;" glyph-name="Ograve" horiz-adv-x="665" d="M231 -9T173 28T90 142T66 347Q66 473 91 552T174 670T333 709Q433 709 491 671T575 553T601 344Q601 212 577 136T494 26T334 -9Q231 -9 173 28ZM425 25T474 56T543 156T563 344Q563 463 542
534T471 640T333 675Q244 675 194 641T124 537T103 347Q103 223 124 154T194 55T334 25Q425 25 474 56ZM227 892L243 922L435 826L418 799L227 892Z" />
<glyph unicode="&#xd3;" glyph-name="Oacute" horiz-adv-x="665" d="M231 -9T173 28T90 142T66 347Q66 473 91 552T174 670T333 709Q433 709 491 671T575 553T601 344Q601 212 577 136T494 26T334 -9Q231 -9 173 28ZM425 25T474 56T543 156T563 344Q563 463 542
534T471 640T333 675Q244 675 194 641T124 537T103 347Q103 223 124 154T194 55T334 25Q425 25 474 56ZM218 826L410 922L426 892L235 799L218 826Z" />
<glyph unicode="&#xd4;" glyph-name="Ocircumflex" horiz-adv-x="665" d="M231 -9T173 28T90 142T66 347Q66 473 91 552T174 670T333 709Q433 709 491 671T575 553T601 344Q601 212 577 136T494 26T334 -9Q231 -9 173 28ZM425 25T474 56T543 156T563 344Q563 463
542 534T471 640T333 675Q244 675 194 641T124 537T103 347Q103 223 124 154T194 55T334 25Q425 25 474 56ZM317 934H347L481 808H436L332 904L228 808H183L317 934Z" />
<glyph unicode="&#xd5;" glyph-name="Otilde" horiz-adv-x="665" d="M231 -9T173 28T90 142T66 347Q66 473 91 552T174 670T333 709Q433 709 491 671T575 553T601 344Q601 212 577 136T494 26T334 -9Q231 -9 173 28ZM425 25T474 56T543 156T563 344Q563 463 542
534T471 640T333 675Q244 675 194 641T124 537T103 347Q103 223 124 154T194 55T334 25Q425 25 474 56ZM389 833T328 863Q271 892 255 892Q233 892 198 854L185 840L176 870Q196 893 218 908T258 924Q276 924 338 894Q399 864 408 864Q426 864 460 901L471 913L481
884Q453 850 438 842T407 833Q389 833 328 863Z" />
<glyph unicode="&#xd6;" glyph-name="Odieresis" horiz-adv-x="665" d="M231 -9T173 28T90 142T66 347Q66 473 91 552T174 670T333 709Q433 709 491 671T575 553T601 344Q601 212 577 136T494 26T334 -9Q231 -9 173 28ZM425 25T474 56T543 156T563 344Q563 463
542 534T471 640T333 675Q244 675 194 641T124 537T103 347Q103 223 124 154T194 55T334 25Q425 25 474 56ZM216 899H253V837H216V899ZM412 899H447V837H412V899Z" />
<glyph unicode="&#xd7;" glyph-name="multiply" horiz-adv-x="561" d="M244 256L413 86L390 63L221 233L51 63L28 86L198 256L28 425L51 448L221 279L390 448L413 425L244 256Z" />
<glyph unicode="&#xd8;" glyph-name="Oslash" horiz-adv-x="665" d="M111 -98L170 29Q113 68 90 143T66 348Q66 474 91 552T174 670T333 709Q419 709 475 682L528 792L558 780L503 662Q601 587 601 348Q601 216 577 139T495 27T333 -9Q254 -9 197 13L140 -109L111
-98ZM461 648Q417 675 333 675Q242 675 193 642T123 532T103 317Q103 115 179 51L461 648ZM426 25T475 56T543 160T563 369Q563 564 492 640L213 45Q261 25 333 25Q426 25 475 56Z" />
<glyph unicode="&#xd9;" glyph-name="Ugrave" horiz-adv-x="637" d="M201 -9T145 40T88 197V700H124V195Q124 25 314 25Q415 25 465 65T515 195V700H549V197Q549 89 491 40T317 -9Q201 -9 145 40ZM210 892L226 922L418 826L401 799L210 892Z" />
<glyph unicode="&#xda;" glyph-name="Uacute" horiz-adv-x="637" d="M201 -9T145 40T88 197V700H124V195Q124 25 314 25Q415 25 465 65T515 195V700H549V197Q549 89 491 40T317 -9Q201 -9 145 40ZM215 826L407 922L423 892L232 799L215 826Z" />
<glyph unicode="&#xdb;" glyph-name="Ucircumflex" horiz-adv-x="637" d="M201 -9T145 40T88 197V700H124V195Q124 25 314 25Q415 25 465 65T515 195V700H549V197Q549 89 491 40T317 -9Q201 -9 145 40ZM302 934H332L466 808H421L317 904L213 808H168L302 934Z" />
<glyph unicode="&#xdc;" glyph-name="Udieresis" horiz-adv-x="637" d="M201 -9T145 40T88 197V700H124V195Q124 25 314 25Q415 25 465 65T515 195V700H549V197Q549 89 491 40T317 -9Q201 -9 145 40ZM202 899H239V837H202V899ZM398 899H433V837H398V899Z" />
<glyph unicode="&#xdd;" glyph-name="Yacute" horiz-adv-x="525" d="M245 302L17 700H60L263 341L466 700H509L281 302V0H245V302ZM189 826L381 922L397 892L206 799L189 826Z" />
<glyph unicode="&#xde;" glyph-name="Thorn" horiz-adv-x="601" d="M92 700H129V579H347Q454 579 504 527T555 365Q555 253 504 195T347 136H129V0H92V700ZM346 170Q432 170 474 218T516 366Q516 460 476 501T346 543H129V170H346Z" />
<glyph unicode="&#xdf;" glyph-name="germandbls" horiz-adv-x="549" d="M267 -9T209 -2L190 1L193 35Q273 24 307 24Q396 24 432 60T468 169Q468 213 461 236T431 279T354 324Q309 347 288 361T258 389T250 422Q250 448 266 462T324 497Q351 509 363 523T379
556T383 611Q383 644 373 664T333 695T250 706Q198 706 169 693T127 645T114 547V0H79V560Q79 628 96 666T150 722T252 739Q344 739 382 707T421 603Q421 551 404 521T349 474Q314 458 301 449T288 423Q288 418 287 415T286 411Q286 407 294 402T320 386L386 345Q453
311 479 278T506 186Q506 82 460 37T306 -9Q267 -9 209 -2Z" />
<glyph unicode="&#xe0;" glyph-name="agrave" horiz-adv-x="494" d="M116 -9T82 29T47 134Q47 201 80 236T186 282L376 301V352Q376 414 350 444T279 475Q235 475 202 472T76 458L73 491Q177 509 262 509Q339 509 375 471T412 352V64Q413 49 433 38T486 22L484
-9Q451 -9 423 3T381 35Q281 -9 179 -9Q116 -9 82 29ZM267 24T348 54L376 65V268L190 250Q135 246 111 220T86 140Q86 24 180 24Q267 24 348 54ZM133 701L149 731L341 636L326 609L133 701Z" />
<glyph unicode="&#xe1;" glyph-name="aacute" horiz-adv-x="494" d="M116 -9T82 29T47 134Q47 201 80 236T186 282L376 301V352Q376 414 350 444T279 475Q235 475 202 472T76 458L73 491Q177 509 262 509Q339 509 375 471T412 352V64Q413 49 433 38T486 22L484
-9Q451 -9 423 3T381 35Q281 -9 179 -9Q116 -9 82 29ZM267 24T348 54L376 65V268L190 250Q135 246 111 220T86 140Q86 24 180 24Q267 24 348 54ZM133 636L325 731L342 701L148 609L133 636Z" />
<glyph unicode="&#xe2;" glyph-name="acircumflex" horiz-adv-x="494" d="M116 -9T82 29T47 134Q47 201 80 236T186 282L376 301V352Q376 414 350 444T279 475Q235 475 202 472T76 458L73 491Q177 509 262 509Q339 509 375 471T412 352V64Q413 49 433 38T486 22L484
-9Q451 -9 423 3T381 35Q281 -9 179 -9Q116 -9 82 29ZM267 24T348 54L376 65V268L190 250Q135 246 111 220T86 140Q86 24 180 24Q267 24 348 54ZM224 733H253L375 600H332L241 700L146 600H103L224 733Z" />
<glyph unicode="&#xe3;" glyph-name="atilde" horiz-adv-x="494" d="M116 -9T82 29T47 134Q47 201 80 236T186 282L376 301V352Q376 414 350 444T279 475Q235 475 202 472T76 458L73 491Q177 509 262 509Q339 509 375 471T412 352V64Q413 49 433 38T486 22L484
-9Q451 -9 423 3T381 35Q281 -9 179 -9Q116 -9 82 29ZM267 24T348 54L376 65V268L190 250Q135 246 111 220T86 140Q86 24 180 24Q267 24 348 54ZM298 630T245 658Q187 684 176 684Q156 684 116 650L103 638L93 668Q120 695 137 705T175 715Q193 715 251 689Q310
662 319 662Q334 662 371 694L384 703L393 674Q365 645 351 638T319 630Q298 630 245 658Z" />
<glyph unicode="&#xe4;" glyph-name="adieresis" horiz-adv-x="494" d="M116 -9T82 29T47 134Q47 201 80 236T186 282L376 301V352Q376 414 350 444T279 475Q235 475 202 472T76 458L73 491Q177 509 262 509Q339 509 375 471T412 352V64Q413 49 433 38T486 22L484
-9Q451 -9 423 3T381 35Q281 -9 179 -9Q116 -9 82 29ZM267 24T348 54L376 65V268L190 250Q135 246 111 220T86 140Q86 24 180 24Q267 24 348 54ZM132 700H167V638H132V700ZM321 700H358V638H321V700Z" />
<glyph unicode="&#xe5;" glyph-name="aring" horiz-adv-x="494" d="M116 -9T82 29T47 134Q47 201 80 236T186 282L376 301V352Q376 414 350 444T279 475Q235 475 202 472T76 458L73 491Q177 509 262 509Q339 509 375 471T412 352V64Q413 49 433 38T486 22L484
-9Q451 -9 423 3T381 35Q281 -9 179 -9Q116 -9 82 29ZM267 24T348 54L376 65V268L190 250Q135 246 111 220T86 140Q86 24 180 24Q267 24 348 54ZM210 554T184 582T158 651Q158 690 184 717T248 745Q286 745 312 718T338 651Q338 610 312 582T248 554Q210 554 184
582ZM274 586T292 605T310 651Q310 677 292 696T248 715Q223 715 205 696T186 651Q186 624 204 605T248 586Q274 586 292 605Z" />
<glyph unicode="&#xe6;" glyph-name="ae" horiz-adv-x="817" d="M111 -9T79 28T47 141Q47 193 63 220T119 262T233 286L376 301V353Q376 416 349 445T268 475Q213 475 107 467L77 465L75 499Q178 509 261 509Q378 509 405 412Q450 509 571 509Q673 509 719 452T766
269V235H412Q411 128 446 76T554 23Q617 23 715 30L744 32L746 -1Q629 -9 549 -9Q465 -9 419 49L381 33Q291 -9 170 -9Q111 -9 79 28ZM729 268Q729 380 693 428T578 477Q496 477 454 427T412 268H729ZM214 23T259 33T338 56T373 75V268L190 250Q135 245 111 219T86
138Q86 23 177 23Q214 23 259 33Z" />
<glyph unicode="&#xe7;" glyph-name="ccedilla" horiz-adv-x="429" d="M302 -56T325 -71T348 -126Q348 -164 329 -182T267 -201Q221 -201 197 -198L186 -197L188 -169Q248 -173 266 -173Q314 -173 314 -127Q314 -85 266 -85H212V-6Q153 1 120 30T74 113T60 253Q60
323 69 375T119 469T243 510Q276 510 304 508T386 498L383 467Q307 477 260 477Q197 477 162 456T112 386T97 246Q97 162 111 115T161 45T266 23L385 33L387 1Q294 -9 258 -9H245V-57Q302 -56 325 -71Z" />
<glyph unicode="&#xe8;" glyph-name="egrave" horiz-adv-x="502" d="M149 -9T104 50T59 236Q59 376 107 442T261 509Q357 509 403 451T449 269V236H95Q94 157 110 112T164 45T271 23Q297 23 332 25T400 29L430 32L432 -1Q310 -9 260 -9Q149 -9 104 50ZM412 268Q412
379 376 428T262 477Q179 477 137 426T94 268H412ZM129 701L145 731L337 636L322 609L129 701Z" />
<glyph unicode="&#xe9;" glyph-name="eacute" horiz-adv-x="502" d="M149 -9T104 50T59 236Q59 376 107 442T261 509Q357 509 403 451T449 269V236H95Q94 157 110 112T164 45T271 23Q297 23 332 25T400 29L430 32L432 -1Q310 -9 260 -9Q149 -9 104 50ZM412 268Q412
379 376 428T262 477Q179 477 137 426T94 268H412ZM172 636L364 731L381 701L187 609L172 636Z" />
<glyph unicode="&#xea;" glyph-name="ecircumflex" horiz-adv-x="502" d="M149 -9T104 50T59 236Q59 376 107 442T261 509Q357 509 403 451T449 269V236H95Q94 157 110 112T164 45T271 23Q297 23 332 25T400 29L430 32L432 -1Q310 -9 260 -9Q149 -9 104 50ZM412
268Q412 379 376 428T262 477Q179 477 137 426T94 268H412ZM248 733H277L399 600H356L265 700L170 600H127L248 733Z" />
<glyph unicode="&#xeb;" glyph-name="edieresis" horiz-adv-x="502" d="M149 -9T104 50T59 236Q59 376 107 442T261 509Q357 509 403 451T449 269V236H95Q94 157 110 112T164 45T271 23Q297 23 332 25T400 29L430 32L432 -1Q310 -9 260 -9Q149 -9 104 50ZM412
268Q412 379 376 428T262 477Q179 477 137 426T94 268H412ZM144 700H179V638H144V700ZM333 700H370V638H333V700Z" />
<glyph unicode="&#xec;" glyph-name="igrave" horiz-adv-x="191" d="M79 500H113V0H79V500ZM196 701L212 731L404 636L389 609L196 701Z" />
<glyph unicode="&#xed;" glyph-name="iacute" horiz-adv-x="191" d="M79 500H113V0H79V500ZM43 636L235 731L252 701L58 609L43 636Z" />
<glyph unicode="&#xee;" glyph-name="icircumflex" horiz-adv-x="191" d="M79 500H113V0H79V500ZM337 733H366L488 600H445L354 700L259 600H216L337 733Z" />
<glyph unicode="&#xef;" glyph-name="idieresis" horiz-adv-x="191" d="M79 500H113V0H79V500ZM236 700H271V638H236V700ZM425 700H462V638H425V700Z" />
<glyph unicode="&#xf0;" glyph-name="eth" horiz-adv-x="535" d="M160 -9T103 49T45 206Q45 308 100 366T249 425Q317 425 407 392L438 381Q435 458 392 521T269 633L151 555L132 583L240 656Q176 687 105 708L118 739Q205 712 267 675L372 745L392 718L300 655Q475
552 475 353Q475 220 453 141T385 27T260 -9Q160 -9 103 49ZM332 24T368 54T421 153T439 346Q319 392 257 392Q172 392 127 344T82 206Q82 122 129 73T270 24Q332 24 368 54Z" />
<glyph unicode="&#xf1;" glyph-name="ntilde" horiz-adv-x="526" d="M79 500H113V460Q164 487 206 498T294 509Q359 509 392 487T439 412T453 259V0H419V259Q419 345 410 391T375 457T300 477Q255 477 209 465T138 440L114 427V0H79V500ZM330 630T277 658Q219
684 208 684Q188 684 148 650L135 638L125 668Q152 695 169 705T207 715Q225 715 283 689Q342 662 351 662Q366 662 403 694L416 703L425 674Q397 645 383 638T351 630Q330 630 277 658Z" />
<glyph unicode="&#xf2;" glyph-name="ograve" horiz-adv-x="525" d="M179 -9T136 14T76 91T59 244Q59 348 77 404T138 485T263 509Q344 509 387 485T448 404T466 244Q466 145 450 92T391 15T263 -9Q179 -9 136 14ZM335 24T369 44T416 110T428 244Q428 339 415
387T368 456T264 476Q195 476 160 456T111 387T97 244Q97 157 109 111T157 45T264 24Q335 24 369 44ZM153 701L169 731L361 636L346 609L153 701Z" />
<glyph unicode="&#xf3;" glyph-name="oacute" horiz-adv-x="525" d="M179 -9T136 14T76 91T59 244Q59 348 77 404T138 485T263 509Q344 509 387 485T448 404T466 244Q466 145 450 92T391 15T263 -9Q179 -9 136 14ZM335 24T369 44T416 110T428 244Q428 339 415
387T368 456T264 476Q195 476 160 456T111 387T97 244Q97 157 109 111T157 45T264 24Q335 24 369 44ZM179 636L371 731L388 701L194 609L179 636Z" />
<glyph unicode="&#xf4;" glyph-name="ocircumflex" horiz-adv-x="525" d="M179 -9T136 14T76 91T59 244Q59 348 77 404T138 485T263 509Q344 509 387 485T448 404T466 244Q466 145 450 92T391 15T263 -9Q179 -9 136 14ZM335 24T369 44T416 110T428 244Q428 339
415 387T368 456T264 476Q195 476 160 456T111 387T97 244Q97 157 109 111T157 45T264 24Q335 24 369 44ZM248 733H277L399 600H356L265 700L170 600H127L248 733Z" />
<glyph unicode="&#xf5;" glyph-name="otilde" horiz-adv-x="525" d="M179 -9T136 14T76 91T59 244Q59 348 77 404T138 485T263 509Q344 509 387 485T448 404T466 244Q466 145 450 92T391 15T263 -9Q179 -9 136 14ZM335 24T369 44T416 110T428 244Q428 339 415
387T368 456T264 476Q195 476 160 456T111 387T97 244Q97 157 109 111T157 45T264 24Q335 24 369 44ZM320 630T267 658Q209 684 198 684Q178 684 138 650L125 638L115 668Q142 695 159 705T197 715Q215 715 273 689Q332 662 341 662Q356 662 393 694L406 703L415
674Q387 645 373 638T341 630Q320 630 267 658Z" />
<glyph unicode="&#xf6;" glyph-name="odieresis" horiz-adv-x="525" d="M179 -9T136 14T76 91T59 244Q59 348 77 404T138 485T263 509Q344 509 387 485T448 404T466 244Q466 145 450 92T391 15T263 -9Q179 -9 136 14ZM335 24T369 44T416 110T428 244Q428 339 415
387T368 456T264 476Q195 476 160 456T111 387T97 244Q97 157 109 111T157 45T264 24Q335 24 369 44ZM146 700H181V638H146V700ZM335 700H372V638H335V700Z" />
<glyph unicode="&#xf7;" glyph-name="divide" horiz-adv-x="560" d="M261 686H298V605H261V686ZM167 383H392V341H167V383ZM261 119H298V39H261V119Z" />
<glyph unicode="&#xf8;" glyph-name="oslash" horiz-adv-x="525" d="M104 -105L148 8Q98 33 79 90T59 259Q59 352 79 406T143 484T263 509Q306 509 349 499L394 605L423 594L379 486Q466 443 466 259Q466 155 450 99T391 17T263 -9Q221 -9 178 1L134 -115L104
-105ZM337 467L263 476Q200 476 164 456T113 395T97 283Q97 210 100 165T117 84T159 29L337 467ZM335 24T369 44T416 116T428 272Q428 421 368 462L191 31Q221 24 263 24Q335 24 369 44Z" />
<glyph unicode="&#xf9;" glyph-name="ugrave" horiz-adv-x="516" d="M166 -9T133 12T87 86T74 240V500H109V243Q109 154 118 108T154 43T231 23Q279 23 322 36T402 73V500H438V0H401V40Q362 15 323 3T231 -9Q166 -9 133 12ZM125 701L141 731L333 636L318 609L125 701Z" />
<glyph unicode="&#xfa;" glyph-name="uacute" horiz-adv-x="516" d="M166 -9T133 12T87 86T74 240V500H109V243Q109 154 118 108T154 43T231 23Q279 23 322 36T402 73V500H438V0H401V40Q362 15 323 3T231 -9Q166 -9 133 12ZM172 636L364 731L381 701L187 609L172 636Z" />
<glyph unicode="&#xfb;" glyph-name="ucircumflex" horiz-adv-x="516" d="M166 -9T133 12T87 86T74 240V500H109V243Q109 154 118 108T154 43T231 23Q279 23 322 36T402 73V500H438V0H401V40Q362 15 323 3T231 -9Q166 -9 133 12ZM241 733H270L392 600H349L258
700L163 600H120L241 733Z" />
<glyph unicode="&#xfc;" glyph-name="udieresis" horiz-adv-x="516" d="M166 -9T133 12T87 86T74 240V500H109V243Q109 154 118 108T154 43T231 23Q279 23 322 36T402 73V500H438V0H401V40Q362 15 323 3T231 -9Q166 -9 133 12ZM149 700H184V638H149V700ZM338 700H375V638H338V700Z"
/>
<glyph unicode="&#xfd;" glyph-name="yacute" horiz-adv-x="472" d="M246 0H186L31 500H68L216 32H255L405 500H442L212 -230H175L246 0ZM175 636L367 731L384 701L190 609L175 636Z" />
<glyph unicode="&#xfe;" glyph-name="thorn" horiz-adv-x="516" d="M79 730H114V468Q198 509 286 509Q352 509 388 485T440 405T456 254Q456 157 436 101T367 18T227 -9L114 -2V-230H79V730ZM305 22T346 45T402 116T418 250Q418 339 407 387T367 456T286 477Q215
477 137 447L114 437V28Q192 22 227 22Q305 22 346 45Z" />
<glyph unicode="&#xff;" glyph-name="ydieresis" horiz-adv-x="472" d="M246 0H186L31 500H68L216 32H255L405 500H442L212 -230H175L246 0ZM121 700H156V638H121V700ZM310 700H347V638H310V700Z" />
<glyph unicode="&#x2013;" glyph-name="endash" horiz-adv-x="642" d="M72 286H572V252H72V286Z" />
<glyph unicode="&#x2014;" glyph-name="emdash" horiz-adv-x="1142" d="M72 286H1072V252H72V286Z" />
<glyph unicode="&#x2018;" glyph-name="quoteleft" horiz-adv-x="192" d="M112 727H141L100 527H62L112 727Z" />
<glyph unicode="&#x2019;" glyph-name="quoteright" horiz-adv-x="191" d="M91 526H61L102 727H141L91 526Z" />
<glyph unicode="&#x201a;" glyph-name="quotesinglbase" horiz-adv-x="193" d="M51 115H140L93 -122H-27L51 115Z" />
<glyph unicode="&#x201c;" glyph-name="quotedblleft" horiz-adv-x="326" d="M112 727H141L100 527H62L112 727ZM244 727H274L232 527H194L244 727Z" />
<glyph unicode="&#x201d;" glyph-name="quotedblright" horiz-adv-x="336" d="M-20 528H-50L-9 728H30L-20 528ZM357 528H328L369 728H407L357 528Z" />
<glyph unicode="&#x201e;" glyph-name="quotedblbase" horiz-adv-x="318" d="M91 109H121L80 -92H41L91 109ZM224 109H253L212 -92H174L224 109Z" />
<glyph unicode="&#x2022;" glyph-name="bullet" horiz-adv-x="488" d="M118 400H368V110H118V400Z" />
<glyph unicode="&#x2039;" glyph-name="guilsinglleft" horiz-adv-x="290" d="M48 234V270L215 399V361L81 254L215 136V96L48 234Z" />
<glyph unicode="&#x203a;" glyph-name="guilsinglright" horiz-adv-x="290" d="M76 130L210 247L76 354V392L242 263V227L76 90V130Z" />
</font>
</defs>
</svg>
