<?xml version="1.0" standalone="no"?>
<!DOCTYPE svg PUBLIC "-//W3C//DTD SVG 1.1//EN" "http://www.w3.org/Graphics/SVG/1.1/DTD/svg11.dtd">
<svg xmlns="http://www.w3.org/2000/svg">
<defs >
<font id="Kanit" horiz-adv-x="534" ><font-face
    font-family="Kanit Thin"
    units-per-em="1000"
    panose-1="0 0 2 0 0 0 0 0 0 0"
    ascent="1100"
    descent="-395"
    alphabetic="0" />
<glyph unicode=" " glyph-name="space" horiz-adv-x="400" />
<glyph unicode="!" glyph-name="exclam" horiz-adv-x="153" d="M112 495L143 644H171L140 495L59 139H42L112 495ZM10 32H43L37 0H4L10 32Z" />
<glyph unicode="&quot;" glyph-name="quotedbl" horiz-adv-x="274" d="M140 644H173L130 491H108L140 644ZM261 644H294L251 491H229L261 644Z" />
<glyph unicode="#" glyph-name="numbersign" horiz-adv-x="689" d="M148 195H45L50 220H161L268 423H143L149 449H281L384 644H412L309 449H536L639 644H667L564 449H668L662 423H551L444 220H569L564 195H431L328 0H301L403 195H176L73 0H46L148 195ZM416 220L523
423H296L189 220H416Z" />
<glyph unicode="$" glyph-name="dollar" horiz-adv-x="551" d="M200 -10H198Q89 -10 25 16L30 41Q104 14 203 14H205L270 318Q181 338 142 368T103 447Q103 468 107 485Q123 558 181 603T341 653L358 730H386L370 654Q418 653 461 646T529 631L523 606Q457 629
369 629H364L302 337Q394 315 433 283T473 199Q473 179 469 160Q434 2 228 -9L212 -86H184L200 -10ZM336 628Q162 617 134 485Q130 469 130 451Q130 411 162 388T275 343L336 628ZM322 19T374 55T442 160Q446 176 446 194Q446 239 411 266T297 312L233 14Q322 19
374 55Z" />
<glyph unicode="%" glyph-name="percent" horiz-adv-x="677" d="M160 376T134 400T107 469Q107 486 112 509Q127 579 165 616T273 654Q326 654 352 629T378 557Q378 535 372 509Q343 376 213 376Q160 376 134 400ZM576 644H603L122 0H95L576 644ZM273 401T303
428T345 509Q351 539 351 560Q351 596 332 612T267 629Q214 629 183 600T139 509Q134 484 134 467Q134 434 153 418T219 401Q273 401 303 428ZM375 -10T349 14T322 83Q322 100 327 123Q342 193 380 230T488 268Q541 268 567 243T593 171Q593 149 587 123Q558 -10
428 -10Q375 -10 349 14ZM488 15T518 42T560 123Q566 153 566 174Q566 210 547 226T482 243Q429 243 398 214T354 123Q349 98 349 81Q349 48 368 32T434 15Q488 15 518 42Z" />
<glyph unicode="&amp;" glyph-name="ampersand" horiz-adv-x="645" d="M122 -10T77 23T31 112Q31 127 34 143Q48 210 98 255T249 353Q237 368 236 369Q203 409 188 435T173 494Q173 508 176 521Q189 578 233 616T344 654Q397 654 425 629T453 558Q453 538 449
521Q438 467 400 429T285 347L453 129Q482 171 496 232L501 258H528L523 235Q508 164 467 111L542 15L522 0L451 91Q407 43 344 17T201 -10Q122 -10 77 23ZM324 394T351 413T396 458T422 521Q427 546 427 560Q427 595 406 612T338 629Q286 629 250 598T203 521Q199
499 199 491Q199 465 211 445T254 387L272 365Q324 394 351 413ZM280 15T339 39T437 109L263 335Q198 301 160 275T96 218T61 143Q58 128 58 114Q58 66 97 41T207 15Q280 15 339 39Z" />
<glyph unicode="&apos;" glyph-name="quotesingle" horiz-adv-x="153" d="M140 644H173L130 491H108L140 644Z" />
<glyph unicode="(" glyph-name="parenleft" horiz-adv-x="274" d="M52 1T52 156Q52 231 68 303Q91 412 145 515T289 678H322Q232 615 177 522T95 303Q78 223 78 157Q78 11 162 -72H129Q52 1 52 156Z" />
<glyph unicode=")" glyph-name="parenright" horiz-adv-x="274" d="M141 49T195 303Q212 383 212 448Q212 594 128 678H161Q238 605 238 450Q238 375 222 303Q199 194 145 91T1 -72H-32Q141 49 195 303Z" />
<glyph unicode="*" glyph-name="asterisk" horiz-adv-x="414" d="M113 376L237 492L119 544L135 567L248 510L273 644H301L270 510L407 567L413 543L272 490L347 375L325 358L255 480L133 358L113 376Z" />
<glyph unicode="+" glyph-name="plus" horiz-adv-x="487" d="M222 234H53L59 259H228L264 429H292L256 259H426L420 234H250L216 71H188L222 234Z" />
<glyph unicode="," glyph-name="comma" horiz-adv-x="177" d="M35 33H68L0 -120H-22L35 33Z" />
<glyph unicode="-" glyph-name="hyphen" horiz-adv-x="487" d="M59 259H426L420 234H53L59 259Z" />
<glyph unicode="." glyph-name="period" horiz-adv-x="153" d="M11 33H44L37 0H4L11 33Z" />
<glyph unicode="/" glyph-name="slash" horiz-adv-x="381" d="M378 662H405L31 0H4L378 662Z" />
<glyph unicode="0" glyph-name="zero" horiz-adv-x="632" d="M157 -10T107 45T57 199Q57 249 69 307Q105 479 180 566T399 654Q503 654 550 602T598 450Q598 389 581 307Q549 158 470 74T257 -10Q157 -10 107 45ZM381 15T453 95T554 307Q573 396 573 456Q573 542
531 585T393 629Q268 629 199 549T96 307Q83 249 83 195Q83 15 263 15Q381 15 453 95Z" />
<glyph unicode="1" glyph-name="one" horiz-adv-x="268" d="M237 626L133 607L138 633L271 654L132 0H104L237 626Z" />
<glyph unicode="2" glyph-name="two" horiz-adv-x="492" d="M9 24Q43 85 99 136T244 252Q346 327 389 375T445 485Q450 510 450 528Q450 576 417 602T308 629Q232 629 158 604L163 630Q192 641 233 647T310 654Q391 654 434 621T477 527Q477 510 472 485Q461 436
435 397T371 326T268 243L242 224Q161 162 116 121T39 25H381L376 0H4L9 24Z" />
<glyph unicode="3" glyph-name="three" horiz-adv-x="498" d="M111 -10T71 -3T6 14L12 40Q77 15 161 15Q261 15 317 53T391 171Q396 194 396 211Q396 315 243 315H159L170 340H241Q326 340 377 379T444 490Q449 515 449 532Q449 581 413 605T296 629Q221 629 144
604L149 630Q175 640 218 647T301 654Q391 654 433 623T476 533Q476 515 471 490Q458 433 417 387T310 327Q368 316 395 285T422 209Q422 188 418 171Q399 81 333 36T155 -10Q111 -10 71 -3Z" />
<glyph unicode="4" glyph-name="four" horiz-adv-x="531" d="M369 162H18L25 194L470 644H499L402 187H474L469 162H397L363 0H335L369 162ZM374 187L463 606L49 187H374Z" />
<glyph unicode="5" glyph-name="five" horiz-adv-x="501" d="M113 -10T73 -4T9 14L15 40Q78 15 166 15Q261 15 320 59T397 186Q405 224 405 250Q405 300 371 323T255 347H77L85 384L157 644H471L461 619H174L106 372H251Q345 372 388 342T431 247Q431 217 424
186Q403 91 337 41T159 -10Q113 -10 73 -4Z" />
<glyph unicode="6" glyph-name="six" horiz-adv-x="553" d="M132 -10T87 27T42 145Q42 184 52 228L87 393Q113 515 188 584T378 654Q455 654 513 636L507 610Q456 629 372 629Q268 629 203 565T116 396L102 330Q152 363 208 379T309 396Q395 396 440 359T485 252Q485
231 478 194Q457 98 391 44T218 -10Q132 -10 87 27ZM316 15T374 63T451 194Q458 225 458 256Q458 312 422 341T300 371Q252 371 197 353T96 304L76 208Q68 168 68 140Q68 77 105 46T223 15Q316 15 374 63Z" />
<glyph unicode="7" glyph-name="seven" horiz-adv-x="492" d="M493 619H125L130 644H522L516 612L128 0H101L493 619Z" />
<glyph unicode="8" glyph-name="eight" horiz-adv-x="566" d="M132 -10T83 23T33 121Q33 137 38 162Q52 228 98 274T217 333Q168 346 145 376T121 447Q121 467 125 483Q142 562 205 608T366 654Q450 654 494 620T538 525Q538 508 533 483Q507 357 367 321Q429
308 458 279T488 202Q488 181 484 162Q466 78 400 34T224 -10Q132 -10 83 23ZM409 350T451 384T506 483Q511 508 511 525Q511 576 475 602T360 629Q278 629 223 591T152 483Q148 466 148 446Q148 408 171 384T245 349L327 332Q409 350 451 384ZM322 15T381 52T457
162Q462 187 462 202Q462 244 434 266T343 302L251 321Q94 295 65 162Q61 143 61 123Q61 69 101 42T230 15Q322 15 381 52Z" />
<glyph unicode="9" glyph-name="nine" horiz-adv-x="553" d="M116 -10T64 8L70 34Q117 15 210 15Q310 15 374 79T461 246L474 309Q374 243 270 243Q182 243 137 279T91 386Q91 416 98 445Q118 541 186 597T364 654Q450 654 493 618T536 505Q536 469 525 416L490
251Q464 129 390 60T204 -10Q116 -10 64 8ZM381 268T480 335L501 436Q510 478 510 510Q510 572 474 600T359 629Q267 629 205 579T125 445Q118 414 118 384Q118 327 155 298T278 268Q381 268 480 335Z" />
<glyph unicode=":" glyph-name="colon" horiz-adv-x="155" d="M82 371H117L110 336H75L82 371ZM18 68H53L46 33H11L18 68Z" />
<glyph unicode=";" glyph-name="semicolon" horiz-adv-x="179" d="M106 371H141L134 336H99L106 371ZM42 68H75L7 -85H-15L42 68Z" />
<glyph unicode="&lt;" glyph-name="less" horiz-adv-x="546" d="M62 276L67 300L536 501L530 470L93 286L452 102L445 75L62 276Z" />
<glyph unicode="=" glyph-name="equal" horiz-adv-x="494" d="M72 321H446L440 296H66L72 321ZM46 201H420L415 175H41L46 201Z" />
<glyph unicode="&gt;" glyph-name="greater" horiz-adv-x="546" d="M26 106L463 290L104 474L110 501L493 300L488 276L19 75L26 106Z" />
<glyph unicode="?" glyph-name="question" horiz-adv-x="484" d="M165 166Q174 205 194 233T236 280T299 325L318 338Q375 377 404 406T443 483Q449 509 449 530Q449 579 414 604T301 629Q210 629 130 594L135 620Q166 636 213 645T309 654Q391 654 433 622T475
528Q475 510 470 483Q462 445 442 417T397 370T328 319Q278 284 256 267T217 225T192 164L187 141H159L165 166ZM134 32H167L161 0H128L134 32Z" />
<glyph unicode="@" glyph-name="at" horiz-adv-x="768" d="M32 -132T32 89Q32 137 43 188Q80 362 182 443T461 525Q589 525 652 476T715 333Q715 298 706 256Q685 155 637 102T502 49H483Q445 14 400 -3T297 -20Q241 -20 207 0T173 66Q173 78 176 93Q189 152 230
183T356 215H513L523 260Q531 297 531 318Q531 354 506 368T416 383Q349 383 283 361L289 387Q346 408 429 408Q494 408 525 386T557 313Q557 291 551 262L511 75Q578 75 618 117T679 256Q688 300 688 336Q688 419 634 459T456 500Q298 500 202 425T70 188Q58 131
58 88Q58 -18 122 -62T308 -107Q418 -107 485 -88L479 -114Q400 -132 304 -132Q32 -132 32 89ZM362 5T403 22T484 78L508 189H352Q282 189 248 166T203 93Q200 80 200 68Q200 34 226 20T309 5Q362 5 403 22Z" />
<glyph unicode="A" glyph-name="A" horiz-adv-x="650" d="M383 644H428L534 0H509L476 200H153L36 0H4L383 644ZM471 225L405 628L167 225H471Z" />
<glyph unicode="B" glyph-name="B" horiz-adv-x="612" d="M160 644H429Q576 644 576 528Q576 505 570 478Q559 425 528 389T452 335Q494 327 516 299T539 226Q539 208 534 181Q515 87 461 44T314 0H24L160 644ZM381 347Q451 347 490 382T543 478Q550 513 550 531Q550
576 521 597T419 619H183L125 347H381ZM323 25Q402 25 445 61T507 181Q513 208 513 230Q513 276 480 299T369 322H120L57 25H323Z" />
<glyph unicode="C" glyph-name="C" horiz-adv-x="584" d="M167 -10T111 45T55 200Q55 247 67 301Q142 654 426 654Q528 654 601 626L595 600Q521 629 423 629Q285 629 207 543T94 301Q82 244 82 197Q82 107 132 61T296 15Q340 15 388 21T476 40L470 14Q385 -10
284 -10Q167 -10 111 45Z" />
<glyph unicode="D" glyph-name="D" horiz-adv-x="622" d="M160 644H391Q495 644 543 601T591 463Q591 403 573 317Q548 203 512 135T416 33T258 0H24L160 644ZM252 25Q336 25 390 49T483 136T546 317Q566 409 566 466Q566 549 524 584T386 619H183L57 25H252Z" />
<glyph unicode="E" glyph-name="E" horiz-adv-x="538" d="M160 644H568L563 619H183L123 335H468L462 310H117L57 25H437L432 0H24L160 644Z" />
<glyph unicode="F" glyph-name="F" horiz-adv-x="510" d="M160 644H550L545 619H183L123 335H449L443 310H117L52 0H24L160 644Z" />
<glyph unicode="G" glyph-name="G" horiz-adv-x="627" d="M170 -10T113 46T56 204Q56 248 67 301Q142 654 426 654Q527 654 601 630L596 604Q518 629 424 629Q285 629 206 543T94 301Q82 247 82 201Q82 111 133 63T297 15Q349 15 401 23T493 48L548 308H354L359
334H581L518 37Q485 17 427 4T285 -10Q170 -10 113 46Z" />
<glyph unicode="H" glyph-name="H" horiz-adv-x="617" d="M160 644H188L123 335H524L589 644H617L481 0H453L518 310H117L52 0H24L160 644Z" />
<glyph unicode="I" glyph-name="I" horiz-adv-x="188" d="M160 644H188L52 0H24L160 644Z" />
<glyph unicode="J" glyph-name="J" horiz-adv-x="411" d="M36 -10T-14 14L-8 40Q13 29 44 23T109 16Q191 16 230 48T284 153L388 644H416L312 153Q294 70 246 30T107 -10Q36 -10 -14 14Z" />
<glyph unicode="K" glyph-name="K" horiz-adv-x="563" d="M160 644H188L111 279L542 644H580L279 389L447 0H415L255 370L103 241L52 0H24L160 644Z" />
<glyph unicode="L" glyph-name="L" horiz-adv-x="518" d="M160 644H188L57 25H427L422 0H24L160 644Z" />
<glyph unicode="M" glyph-name="M" horiz-adv-x="737" d="M160 644H200L341 137L695 644H737L601 0H573L703 613L353 113H321L182 613L52 0H24L160 644Z" />
<glyph unicode="N" glyph-name="N" horiz-adv-x="649" d="M160 644H191L493 38L621 644H649L513 0H482L180 606L52 0H24L160 644Z" />
<glyph unicode="O" glyph-name="O" horiz-adv-x="682" d="M170 -10T114 46T58 206Q58 258 71 316Q108 490 193 572T424 654Q537 654 592 603T648 445Q648 388 633 316Q563 -10 282 -10Q170 -10 114 46ZM415 15T494 91T606 316Q622 390 622 448Q622 544 573 586T418
629Q293 629 213 556T98 316Q84 251 84 202Q84 109 134 62T288 15Q415 15 494 91Z" />
<glyph unicode="P" glyph-name="P" horiz-adv-x="560" d="M160 644H401Q484 644 525 609T566 508Q566 486 559 451Q540 360 478 311T316 261H107L52 0H24L160 644ZM323 286Q411 286 463 329T532 451Q539 488 539 508Q539 563 506 591T404 619H183L112 286H323Z" />
<glyph unicode="Q" glyph-name="Q" horiz-adv-x="682" d="M296 -172T275 -149T253 -81Q253 -52 261 -9Q158 -5 108 50T57 203Q57 252 71 316Q108 490 193 572T424 654Q539 654 594 604T649 448Q649 389 633 316Q599 162 515 77T288 -10Q279 -54 279 -81Q279 -115
295 -130T350 -146Q365 -146 386 -143T424 -136L418 -162Q383 -172 345 -172Q296 -172 275 -149ZM415 15T494 91T606 316Q623 396 623 451Q623 546 574 587T418 629Q292 629 213 556T98 316Q84 249 84 200Q84 108 133 62T288 15Q415 15 494 91Z" />
<glyph unicode="R" glyph-name="R" horiz-adv-x="582" d="M160 644H416Q492 644 529 611T567 516Q567 490 561 460Q544 382 498 335T376 278Q397 268 405 253T421 208L466 0H438L392 202Q385 230 375 244T343 266T277 273H110L52 0H24L160 644ZM333 298Q500 298
534 460Q541 489 541 518Q541 569 511 594T414 619H183L115 298H333Z" />
<glyph unicode="S" glyph-name="S" horiz-adv-x="551" d="M89 -10T25 16L30 41Q104 14 203 14Q306 14 366 49T442 160Q446 176 446 194Q446 243 406 270T272 318Q182 338 143 368T103 448Q103 468 107 485Q124 564 188 609T367 654Q415 654 459 647T529 631L523
606Q457 629 369 629Q267 629 209 594T134 485Q130 469 130 452Q130 409 167 385T297 338Q392 316 432 283T473 198Q473 179 469 160Q450 74 383 32T198 -10Q89 -10 25 16Z" />
<glyph unicode="T" glyph-name="T" horiz-adv-x="569" d="M346 619H115L120 644H609L604 619H374L243 0H215L346 619Z" />
<glyph unicode="U" glyph-name="U" horiz-adv-x="656" d="M59 -10T59 155Q59 191 68 231L155 644H183L93 219Q86 187 86 156Q86 84 133 50T275 16Q388 16 454 66T543 219L633 644H661L574 231Q548 108 476 49T269 -10Q59 -10 59 155Z" />
<glyph unicode="V" glyph-name="V" horiz-adv-x="650" d="M140 644H167L270 16L639 644H670L292 0H247L140 644Z" />
<glyph unicode="W" glyph-name="W" horiz-adv-x="840" d="M140 644H169L182 20L475 586L487 644H511L555 20L832 644H860L575 0H532L494 570L202 0H154L140 644Z" />
<glyph unicode="X" glyph-name="X" horiz-adv-x="596" d="M292 317L140 644H169L312 333L587 644H616L325 317L480 0H451L305 299L33 0H4L292 317Z" />
<glyph unicode="Y" glyph-name="Y" horiz-adv-x="606" d="M284 242L140 644H167L301 268L595 644H626L312 242L261 0H233L284 242Z" />
<glyph unicode="Z" glyph-name="Z" horiz-adv-x="564" d="M8 22L547 619H152L157 644H584L579 618L44 25H458L453 0H4L8 22Z" />
<glyph unicode="[" glyph-name="bracketleft" horiz-adv-x="323" d="M154 706H365L361 681H176L16 -74H201L193 -99H-18L154 706Z" />
<glyph unicode="\" glyph-name="backslash" horiz-adv-x="400" d="M144 662H171L272 -54H245L144 662Z" />
<glyph unicode="]" glyph-name="bracketright" horiz-adv-x="323" d="M-22 -74H163L323 681H138L146 706H357L185 -99H-26L-22 -74Z" />
<glyph unicode="^" glyph-name="asciicircum" horiz-adv-x="420" d="M271 624H301L389 402H362L284 603L120 402H89L271 624Z" />
<glyph unicode="_" glyph-name="underscore" horiz-adv-x="559" d="M4 0H443L437 -25H-2L4 0Z" />
<glyph unicode="`" glyph-name="grave" horiz-adv-x="213" d="M146 671H176L207 522H184L146 671Z" />
<glyph unicode="a" glyph-name="a" horiz-adv-x="554" d="M41 -10T41 141Q41 175 50 218Q77 345 151 414T325 484Q378 484 413 472T481 430L490 474H518L418 0H395L403 57Q360 22 314 6T212 -10Q41 -10 41 141ZM275 15T320 32T408 86L475 401Q450 430 416 444T329
459Q234 459 168 396T77 218Q68 175 68 141Q68 75 105 45T223 15Q275 15 320 32Z" />
<glyph unicode="b" glyph-name="b" horiz-adv-x="554" d="M169 -10T130 6T63 57L47 0H24L167 674H195L143 430Q188 458 233 471T331 484Q499 484 499 328Q499 287 489 241Q435 -10 224 -10Q169 -10 130 6ZM324 15T381 71T462 241Q473 293 473 329Q473 397 436
428T317 459Q221 459 137 401L70 86Q97 49 134 32T225 15Q324 15 381 71Z" />
<glyph unicode="c" glyph-name="c" horiz-adv-x="476" d="M44 -10T44 152Q44 193 54 237Q80 359 155 421T342 484Q384 484 409 479T457 460L452 434Q425 447 399 453T340 459Q237 459 171 404T81 237Q70 185 70 150Q70 81 110 48T240 15Q303 15 368 40L362 14Q301
-10 227 -10Q44 -10 44 152Z" />
<glyph unicode="d" glyph-name="d" horiz-adv-x="554" d="M136 -10T90 30T44 154Q44 189 53 231Q79 357 151 420T325 484Q378 484 413 472T481 430L533 674H561L418 0H395L403 57Q360 22 314 6T212 -10Q136 -10 90 30ZM275 15T320 32T408 86L475 401Q447 430 414
444T329 459Q231 459 168 402T80 231Q71 188 71 153Q71 83 108 49T223 15Q275 15 320 32Z" />
<glyph unicode="e" glyph-name="e" horiz-adv-x="518" d="M137 -10T90 27T43 145Q43 187 55 241Q80 361 142 422T318 484Q396 484 433 448T471 352Q471 327 465 300L448 218H78Q69 176 69 142Q69 76 110 46T250 15Q310 15 378 40L372 14Q306 -10 239 -10Q137 -10
90 27ZM425 244L436 296Q443 331 443 352Q443 404 412 431T313 459Q217 459 162 404T83 244H425Z" />
<glyph unicode="f" glyph-name="f" horiz-adv-x="333" d="M154 448H79L84 474H159L179 565Q205 690 335 690Q371 690 401 680L396 654Q366 665 338 665Q279 665 249 642T207 567L187 474H324L317 448H182L87 0H59L154 448Z" />
<glyph unicode="g" glyph-name="g" horiz-adv-x="554" d="M144 -176T111 -173T62 -166L68 -140Q101 -151 168 -151Q254 -151 313 -115T387 -14L403 64Q361 35 320 23T223 10Q138 10 92 44T45 159Q45 194 54 237Q107 484 317 484Q373 484 412 468T479 417L495 474H518L415
-14Q404 -63 368 -100T279 -156T170 -176Q144 -176 111 -173ZM286 35T328 50T409 93L472 388Q444 425 407 442T317 459Q128 459 81 237Q71 187 71 159Q71 91 110 63T235 35Q286 35 328 50Z" />
<glyph unicode="h" glyph-name="h" horiz-adv-x="548" d="M167 674H195L139 412Q186 447 237 465T354 484Q422 484 456 457T491 373Q491 354 484 317L417 0H389L456 317Q464 354 464 376Q464 421 435 440T334 459Q231 459 132 381L52 0H24L167 674Z" />
<glyph unicode="i" glyph-name="i" horiz-adv-x="265" d="M233 654H268L258 610H223L233 654ZM195 448H119L128 474H228L128 0H100L195 448Z" />
<glyph unicode="j" glyph-name="j" horiz-adv-x="216" d="M184 654H219L209 610H174L184 654ZM-133 -234T-163 -224L-158 -198Q-128 -209 -99 -209Q-42 -209 -13 -185T27 -110L146 448H70L79 474H179L55 -110Q43 -169 4 -201T-95 -234Q-133 -234 -163 -224Z" />
<glyph unicode="k" glyph-name="k" horiz-adv-x="483" d="M167 674H195L100 228L419 474H455L221 292L367 0H337L198 275L93 194L52 0H24L167 674Z" />
<glyph unicode="l" glyph-name="l" horiz-adv-x="229" d="M66 -10T52 2T37 43Q37 61 41 80L167 674H195L68 76Q64 54 64 47Q64 30 72 23T98 16Q123 16 142 21L136 -5Q119 -10 94 -10Q66 -10 52 2Z" />
<glyph unicode="m" glyph-name="m" horiz-adv-x="846" d="M124 474H147L139 412Q239 484 335 484Q390 484 418 466T453 413Q498 446 548 465T658 484Q789 484 789 375Q789 356 782 319L715 0H687L754 318Q760 348 760 370Q760 418 732 438T644 459Q594 459 546
441T458 389Q460 357 450 313L384 0H356L422 313Q430 353 430 378Q430 421 407 440T328 459Q281 459 229 437T132 381L52 0H24L124 474Z" />
<glyph unicode="n" glyph-name="n" horiz-adv-x="548" d="M124 474H147L139 412Q186 447 237 465T354 484Q423 484 457 458T491 375Q491 348 484 317L417 0H389L456 317Q464 354 464 376Q464 421 435 440T334 459Q231 459 132 381L52 0H24L124 474Z" />
<glyph unicode="o" glyph-name="o" horiz-adv-x="552" d="M127 -10T85 29T43 145Q43 184 54 237Q80 361 144 422T322 484Q412 484 454 445T497 327Q497 289 486 237Q460 112 397 51T217 -10Q127 -10 85 29ZM325 15T379 69T459 237Q470 292 470 329Q470 396 435
427T317 459Q216 459 161 405T81 237Q69 183 69 142Q69 77 105 46T223 15Q325 15 379 69Z" />
<glyph unicode="p" glyph-name="p" horiz-adv-x="554" d="M124 474H147L139 417Q182 452 227 468T329 484Q499 484 499 327Q499 286 489 240Q436 -10 218 -10Q164 -10 128 2T61 44L6 -216H-22L124 474ZM316 15T376 70T462 240Q473 292 473 328Q473 395 437 427T319
459Q267 459 222 442T134 388L67 73Q96 45 130 30T217 15Q316 15 376 70Z" />
<glyph unicode="q" glyph-name="q" horiz-adv-x="595" d="M391 -242T374 -226T356 -175Q356 -160 361 -133L399 44Q356 15 314 3T218 -10Q137 -10 91 32T45 158Q45 190 55 240Q82 367 146 425T317 484Q373 484 412 468T479 417L495 474H518L389 -133Q384 -160
384 -173Q384 -196 397 -206T442 -216Q456 -216 474 -211L468 -237Q446 -242 428 -242Q391 -242 374 -226ZM283 15T323 30T405 73L472 388Q444 425 408 442T317 459Q220 459 163 405T82 240Q72 194 72 155Q72 84 110 50T231 15Q283 15 323 30Z" />
<glyph unicode="r" glyph-name="r" horiz-adv-x="328" d="M124 474H147L137 403Q181 430 233 451T334 484L329 458Q282 447 225 423T131 376L52 0H24L124 474Z" />
<glyph unicode="s" glyph-name="s" horiz-adv-x="437" d="M75 -10T19 8L25 34Q85 15 154 15Q230 15 268 38T318 116Q321 131 321 144Q321 168 308 182T275 205T199 234L178 242Q142 255 123 265T91 292T78 336Q78 349 81 365Q94 426 137 455T268 484Q338 484 384
469L379 443Q325 459 267 459Q189 459 154 437T108 366Q105 351 105 340Q105 310 128 295T212 258Q263 240 290 228T333 196T349 147Q349 131 345 116Q330 48 283 19T151 -10Q75 -10 19 8Z" />
<glyph unicode="t" glyph-name="t" horiz-adv-x="342" d="M132 -10T107 13T81 78Q81 97 85 114L156 448H79L84 474H161L189 606L219 616L189 474H332L325 448H184L113 114Q109 97 109 79Q109 47 128 31T189 15Q217 15 251 26L246 0Q211 -10 178 -10Q132 -10 107 13Z" />
<glyph unicode="u" glyph-name="u" horiz-adv-x="548" d="M121 -10T85 23T49 119Q49 144 55 174L119 474H147L83 174Q76 143 76 115Q76 64 107 40T209 15Q311 15 403 93L484 474H512L412 0H389L397 62Q348 25 302 8T191 -10Q121 -10 85 23Z" />
<glyph unicode="v" glyph-name="v" horiz-adv-x="529" d="M104 474H132L210 16L484 474H513L229 0H189L104 474Z" />
<glyph unicode="w" glyph-name="w" horiz-adv-x="702" d="M104 474H133L151 20L369 426L379 474H403L450 20L658 474H686L464 0H429L386 411L166 0H127L104 474Z" />
<glyph unicode="x" glyph-name="x" horiz-adv-x="508" d="M233 241L109 474H140L252 261L454 474H485L265 241L392 0H361L244 223L34 0H4L233 241Z" />
<glyph unicode="y" glyph-name="y" horiz-adv-x="548" d="M138 -176T105 -173T56 -166L62 -140Q95 -151 162 -151Q249 -151 308 -114T381 -10L401 82Q351 44 307 27T196 10Q129 10 92 42T54 139Q54 164 60 194L119 474H147L88 194Q81 157 81 138Q81 85 113 60T216
35Q314 35 408 113L484 474H512L409 -10Q399 -60 363 -97T275 -155T164 -176Q138 -176 105 -173Z" />
<glyph unicode="z" glyph-name="z" horiz-adv-x="474" d="M8 23L417 448H114L119 474H452L447 450L40 26H363L358 0H4L8 23Z" />
<glyph unicode="{" glyph-name="braceleft" horiz-adv-x="275" d="M91 -104T70 -90T48 -42Q48 -34 52 -12L94 188Q100 212 100 231Q100 255 88 268T44 285L50 312Q93 317 112 339T141 409L184 609Q195 659 224 680T303 701H318L312 675H297Q255 675 237 660T210
602L165 388Q159 358 139 331T83 296Q107 290 118 272T129 231Q129 217 126 205L81 -5Q76 -28 76 -41Q76 -62 89 -70T137 -78H152L146 -104H131Q91 -104 70 -90Z" />
<glyph unicode="|" glyph-name="bar" horiz-adv-x="148" d="M160 735H188L6 -120H-22L160 735Z" />
<glyph unicode="}" glyph-name="braceright" horiz-adv-x="275" d="M-23 -78H-8Q34 -78 51 -63T78 -5L123 209Q130 240 150 266T206 300Q181 306 170 324T159 367Q159 380 162 392L207 602Q211 619 211 635Q211 657 198 666T152 675H137L143 701H158Q199 701 220
687T241 640Q241 625 237 609L194 409Q189 382 189 367Q189 342 201 329T245 312L239 285Q196 280 177 258T147 188L105 -12Q94 -62 65 -83T-14 -104H-29L-23 -78Z" />
<glyph unicode="~" glyph-name="asciitilde" horiz-adv-x="587" d="M380 253T356 262T298 290Q265 308 242 317T189 326Q152 326 122 312T60 265L67 298Q89 322 123 336T194 351Q225 351 250 342T310 313Q342 296 365 287T415 278Q452 278 481 292T543 339L536
306Q513 282 480 268T409 253Q380 253 356 262Z" />
<glyph unicode="&#xa0;" glyph-name="uni00A0" horiz-adv-x="400" />
<glyph unicode="&#xa1;" glyph-name="exclamdown" horiz-adv-x="153" d="M93 644H126L120 612H87L93 644ZM-10 149L71 505H88L18 149L-13 0H-41L-10 149Z" />
<glyph unicode="&#xa2;" glyph-name="cent" horiz-adv-x="476" d="M209 -10Q124 -6 84 35T44 151Q44 193 54 237Q78 353 144 414T314 483L331 560H357L341 484H342Q384 484 409 479T457 460L452 434Q425 447 399 453T340 459H335L240 15Q303 15 368 40L362 14Q304
-9 235 -10L219 -86H193L209 -10ZM309 458Q219 450 161 395T81 237Q70 187 70 151Q70 86 104 53T215 15L309 458Z" />
<glyph unicode="&#xa3;" glyph-name="sterling" horiz-adv-x="507" d="M9 26H37Q104 26 122 111L168 329H93L99 355H174L207 512Q222 582 272 618T396 654Q462 654 492 638L487 612Q475 620 449 624T397 629Q331 629 290 600T236 513L202 355H431L425 329H196L150
112Q137 49 102 26H396L391 0H4L9 26Z" />
<glyph unicode="&#xa4;" glyph-name="currency" horiz-adv-x="569" d="M23 93L122 158Q103 187 103 230Q103 252 107 269Q121 333 169 380L98 445L117 465L189 398Q252 448 323 448Q358 448 387 435T435 398L536 465L547 445L448 380Q468 348 468 305Q468 285
464 269Q451 209 401 157L472 93L453 73L381 139Q352 116 318 103T248 90Q213 90 184 103T134 139L34 73L23 93ZM294 115T333 135T400 191T437 269Q441 286 441 307Q441 359 408 391T317 423Q275 423 237 403T171 347T134 269Q130 250 130 230Q130 178 162 147T252
115Q294 115 333 135Z" />
<glyph unicode="&#xa5;" glyph-name="yen" horiz-adv-x="588" d="M249 125H80L85 150H254L272 234H103L109 259H268L140 644H166L292 268L577 644H608L316 259H476L470 234H301L283 150H452L447 125H278L252 0H223L249 125Z" />
<glyph unicode="&#xa6;" glyph-name="brokenbar" horiz-adv-x="148" d="M160 735H188L126 445H98L160 735ZM40 170H68L6 -120H-22L40 170Z" />
<glyph unicode="&#xa7;" glyph-name="section" horiz-adv-x="551" d="M89 -10T25 16L30 41Q104 14 203 14Q306 14 366 49T442 160Q446 184 446 193Q446 242 406 269T272 318Q207 333 171 348T116 383T98 434Q98 443 102 465Q109 495 131 525Q126 538 126 559Q126
579 130 596Q147 675 210 720T390 765Q438 765 482 758T552 742L547 717Q481 740 393 740Q291 740 232 705T157 596Q153 572 153 563Q153 534 169 515T222 480T321 449Q392 432 429 418T485 384T503 336Q503 323 498 301Q491 270 469 231Q473 218 473 198Q473 179
469 160Q450 73 385 32T198 -10Q89 -10 25 16ZM468 279T471 301Q475 316 475 331Q475 357 458 372T410 397T296 429Q233 446 197 462T144 502Q134 486 129 465Q126 450 126 438Q126 412 142 396T193 367T297 338Q360 323 398 304T455 258Q468 279 471 301Z" />
<glyph unicode="&#xa8;" glyph-name="dieresis" horiz-adv-x="312" d="M133 609H168L161 574H126L133 609ZM290 609H325L318 574H283L290 609Z" />
<glyph unicode="&#xa9;" glyph-name="copyright" horiz-adv-x="784" d="M255 -10T194 24T98 118T64 251Q64 284 72 322Q94 419 151 494T293 612T475 654Q554 654 615 620T710 526T744 392Q744 360 736 322Q716 230 659 155T517 35T333 -10Q255 -10 194 24ZM427
16T505 57T638 168T710 322Q717 356 717 391Q717 459 688 513T602 597T469 628Q378 628 300 587T169 477T98 322Q90 284 90 251Q90 183 120 130T206 46T339 16Q427 16 505 57ZM256 75T205 121T154 252Q154 281 162 321Q179 401 223 456T330 538T463 566Q542 566
586 540L581 514Q530 541 460 541Q358 541 285 485T189 321Q180 281 180 247Q180 100 361 100Q393 100 431 107T498 127L493 101Q464 88 426 82T348 75Q256 75 205 121Z" />
<glyph unicode="&#xaa;" glyph-name="ordfeminine" horiz-adv-x="349" d="M144 380T121 394T98 439Q98 443 100 455Q109 496 138 516T219 537H320L324 558Q328 573 328 588Q328 610 311 620T251 630Q210 630 168 616L174 641Q211 654 263 654Q355 654 355 589Q355
577 352 562L315 386H291L296 422Q247 380 179 380Q144 380 121 394ZM223 404T249 414T301 449L315 513H213Q173 513 153 499T126 455Q124 445 124 441Q124 421 139 413T189 404Q223 404 249 414Z" />
<glyph unicode="&#xab;" glyph-name="guillemotleft" horiz-adv-x="560" d="M62 276L67 300L352 481L361 458L93 285L288 112L270 95L62 276ZM242 276L247 300L532 481L541 458L273 285L468 112L450 95L242 276Z" />
<glyph unicode="&#xac;" glyph-name="logicalnot" horiz-adv-x="540" d="M467 336H75L80 361H500L457 158H429L467 336Z" />
<glyph unicode="&#xad;" glyph-name="uni00AD" horiz-adv-x="487" d="M59 259H426L420 234H53L59 259Z" />
<glyph unicode="&#xae;" glyph-name="registered" horiz-adv-x="784" d="M255 -10T194 24T98 118T64 251Q64 284 72 322Q94 419 151 494T293 612T475 654Q554 654 615 620T710 526T744 392Q744 360 736 322Q716 230 659 155T517 35T333 -10Q255 -10 194 24ZM427
16T505 57T638 168T710 322Q717 356 717 391Q717 459 688 513T602 597T469 628Q378 628 300 587T169 477T98 322Q90 284 90 251Q90 183 120 130T206 46T339 16Q427 16 505 57ZM298 552H486Q544 552 573 527T602 456Q602 436 598 419Q574 305 463 289Q479 282 485
271T496 238L529 88H501L468 233Q463 253 456 263T431 277T382 281H268L227 88H199L298 552ZM426 307Q485 307 521 333T571 419Q576 444 576 459Q576 496 554 511T482 527H321L274 307H426Z" />
<glyph unicode="&#xaf;" glyph-name="overscore" horiz-adv-x="387" d="M130 594H397L391 569H124L130 594Z" />
<glyph unicode="&#xb0;" glyph-name="degree" horiz-adv-x="323" d="M177 511T155 533T132 590Q132 605 134 612Q143 655 177 684T256 714Q293 714 316 692T339 634Q339 601 322 573T276 528T213 511Q177 511 155 533ZM255 536T284 564T314 631Q314 657 298 673T251
689Q213 689 185 660T157 592Q157 567 173 552T218 536Q255 536 284 564Z" />
<glyph unicode="&#xb1;" glyph-name="plusminus" horiz-adv-x="487" d="M222 234H53L59 259H228L264 429H292L256 259H426L420 234H250L216 71H188L222 234ZM9 25H376L371 0H4L9 25Z" />
<glyph unicode="&#xb2;" glyph-name="uni00B2" horiz-adv-x="292" d="M86 390Q103 417 125 436T192 486Q237 517 251 533T271 575Q273 587 273 593Q273 632 219 632Q182 632 146 621L151 643Q164 647 186 650T224 654Q259 654 278 638T297 594Q297 589 295 575Q288
544 269 524T204 472Q164 444 146 429T112 392H259L254 370H82L86 390Z" />
<glyph unicode="&#xb3;" glyph-name="uni00B3" horiz-adv-x="294" d="M107 362T83 373L87 395Q118 384 152 384Q197 384 218 398T247 444Q249 454 249 458Q249 479 232 489T181 499H149L158 521H181Q221 521 242 534T270 580Q272 592 272 597Q272 616 258 624T207
632Q176 632 141 622L145 644Q157 648 176 651T212 654Q296 654 296 598Q296 568 279 542T227 508Q274 498 274 459Q274 454 272 444Q255 362 147 362Q107 362 83 373Z" />
<glyph unicode="&#xb4;" glyph-name="acute" horiz-adv-x="213" d="M209 671H239L137 522H114L209 671Z" />
<glyph unicode="&#xb6;" glyph-name="paragraph" horiz-adv-x="594" d="M343 253Q227 253 162 288T97 413Q97 439 105 477Q154 710 422 710H628L461 -77H433L595 684H463L301 -77H273L343 253Z" />
<glyph unicode="&#xb7;" glyph-name="middot" horiz-adv-x="153" d="M67 300H100L93 267H60L67 300Z" />
<glyph unicode="&#xb8;" glyph-name="cedilla" horiz-adv-x="318" d="M-18 -240T-46 -232L-40 -207Q-14 -215 22 -215Q77 -215 106 -198T145 -141Q147 -127 147 -122Q147 -96 126 -86T59 -76H31L75 0H103L72 -53Q121 -53 147 -69T174 -118Q174 -132 172 -139Q161
-190 124 -215T13 -240Q-18 -240 -46 -232Z" />
<glyph unicode="&#xb9;" glyph-name="uni00B9" horiz-adv-x="201" d="M215 628L134 613L138 634L244 654L183 370H160L215 628Z" />
<glyph unicode="&#xba;" glyph-name="ordmasculine" horiz-adv-x="362" d="M157 380T133 403T108 471Q108 496 113 517Q142 654 264 654Q311 654 335 631T360 563Q360 538 355 517Q340 449 304 415T205 380Q157 380 133 403ZM262 405T289 432T329 517Q335 544
335 565Q335 597 317 613T258 629Q207 629 179 602T138 517Q133 496 133 471Q133 438 151 422T211 405Q262 405 289 432Z" />
<glyph unicode="&#xbb;" glyph-name="guillemotright" horiz-adv-x="560" d="M28 118L297 291L101 464L120 481L327 300L322 276L38 95L28 118ZM208 118L477 291L281 464L300 481L507 300L502 276L218 95L208 118Z" />
<glyph unicode="&#xbc;" glyph-name="onequarter" horiz-adv-x="601" d="M216 631L134 613L138 634L244 654L183 370H160L216 631ZM532 644H559L78 0H51L532 644ZM445 67H285L290 91L481 284H514L472 89H503L499 67H468L454 0H431L445 67ZM451 89L490 267L313 89H451Z" />
<glyph unicode="&#xbd;" glyph-name="onehalf" horiz-adv-x="601" d="M216 631L134 613L138 634L244 654L183 370H160L216 631ZM532 644H559L78 0H51L532 644ZM317 20Q333 47 354 64T422 116Q467 147 481 163T501 205Q503 219 503 224Q503 242 491 252T449 262Q412
262 377 251L382 273Q395 277 416 280T454 284Q489 284 508 268T527 224Q527 219 525 205Q519 175 500 155T434 102Q427 97 405 82T368 52T342 22H489L485 0H313L317 20Z" />
<glyph unicode="&#xbe;" glyph-name="threequarters" horiz-adv-x="619" d="M107 362T83 373L87 395Q118 384 152 384Q197 384 218 398T247 444Q249 454 249 458Q249 479 232 489T181 499H149L158 521H181Q221 521 242 534T270 580Q272 592 272 596Q272 615 257
623T207 632Q176 632 141 622L145 644Q157 648 176 651T212 654Q296 654 296 598Q296 568 279 543T227 510Q274 500 274 460Q274 456 272 444Q264 404 233 383T147 362Q107 362 83 373ZM550 644H577L96 0H69L550 644ZM463 67H303L308 91L499 284H532L490 89H521L517
67H486L472 0H449L463 67ZM469 89L508 267L331 89H469Z" />
<glyph unicode="&#xbf;" glyph-name="questiondown" horiz-adv-x="484" d="M347 644H380L374 612H341L347 644ZM117 -10T75 22T33 116Q33 134 38 161Q46 199 66 227T111 274T180 325Q230 360 252 377T291 419T316 480L321 503H349L343 478Q334 439 314 411T272
364T209 319L190 306Q133 267 104 238T65 161Q59 136 59 114Q59 65 94 40T207 15Q298 15 378 50L373 24Q342 8 295 -1T199 -10Q117 -10 75 22Z" />
<glyph unicode="&#xc0;" glyph-name="Agrave" horiz-adv-x="650" d="M365 837H395L426 688H403L365 837ZM383 644H428L534 0H509L476 200H153L36 0H4L383 644ZM471 225L405 628L167 225H471Z" />
<glyph unicode="&#xc1;" glyph-name="Aacute" horiz-adv-x="650" d="M494 837H524L422 688H399L494 837ZM383 644H428L534 0H509L476 200H153L36 0H4L383 644ZM471 225L405 628L167 225H471Z" />
<glyph unicode="&#xc2;" glyph-name="Acircumflex" horiz-adv-x="650" d="M426 810H456L525 688H498L439 792L336 688H306L426 810ZM383 644H428L534 0H509L476 200H153L36 0H4L383 644ZM471 225L405 628L167 225H471Z" />
<glyph unicode="&#xc3;" glyph-name="Atilde" horiz-adv-x="650" d="M471 718T458 722T424 737Q408 745 397 749T374 754Q326 754 292 720L298 751Q312 764 333 771T376 779Q393 779 405 775T436 760Q453 751 464 747T489 743Q512 743 530 750T565 777L558 746Q532
718 487 718Q471 718 458 722ZM383 644H428L534 0H509L476 200H153L36 0H4L383 644ZM471 225L405 628L167 225H471Z" />
<glyph unicode="&#xc4;" glyph-name="Adieresis" horiz-adv-x="650" d="M332 753H367L360 718H325L332 753ZM489 753H524L517 718H482L489 753ZM383 644H428L534 0H509L476 200H153L36 0H4L383 644ZM471 225L405 628L167 225H471Z" />
<glyph unicode="&#xc5;" glyph-name="Aring" horiz-adv-x="650" d="M375 631Q351 638 338 656T325 701Q325 749 359 784T442 819Q478 819 499 799T520 744Q520 704 495 673T430 631L534 0H509L476 200H153L36 0H4L375 631ZM438 653T462 673T493 723Q496 735 496
746Q496 794 437 794Q407 794 383 774T352 723Q349 711 349 701Q349 679 363 666T407 653Q438 653 462 673ZM471 225L405 628L167 225H471Z" />
<glyph unicode="&#xc6;" glyph-name="AE" horiz-adv-x="825" d="M383 644H845L840 618H515L455 335H745L739 309H449L389 25H714L709 0H356L398 200H150L33 0H4L383 644ZM403 225L487 618H397L165 225H403Z" />
<glyph unicode="&#xc7;" glyph-name="Ccedilla" horiz-adv-x="584" d="M184 -240T156 -232L162 -207Q188 -215 224 -215Q278 -215 307 -198T346 -141Q348 -127 348 -122Q348 -97 328 -87T261 -76H233L270 -10Q160 -6 108 48T55 200Q55 247 67 301Q142 654 426
654Q528 654 601 626L595 600Q521 629 423 629Q285 629 206 543T94 301Q81 239 81 196Q81 107 132 61T296 15Q340 15 388 21T476 40L470 14Q389 -9 298 -10L274 -53Q322 -53 348 -70T375 -120Q375 -125 373 -139Q362 -189 325 -214T217 -240Q184 -240 156 -232Z"
/>
<glyph unicode="&#xc8;" glyph-name="Egrave" horiz-adv-x="548" d="M338 837H368L399 688H376L338 837ZM160 644H568L563 619H183L123 335H468L462 310H117L57 25H437L432 0H24L160 644Z" />
<glyph unicode="&#xc9;" glyph-name="Eacute" horiz-adv-x="538" d="M462 837H492L390 688H367L462 837ZM160 644H568L563 619H183L123 335H468L462 310H117L57 25H437L432 0H24L160 644Z" />
<glyph unicode="&#xca;" glyph-name="Ecircumflex" horiz-adv-x="548" d="M383 810H413L482 688H455L396 792L293 688H263L383 810ZM160 644H568L563 619H183L123 335H468L462 310H117L57 25H437L432 0H24L160 644Z" />
<glyph unicode="&#xcb;" glyph-name="Edieresis" horiz-adv-x="548" d="M296 753H331L324 718H289L296 753ZM453 753H488L481 718H446L453 753ZM160 644H568L563 619H183L123 335H468L462 310H117L57 25H437L432 0H24L160 644Z" />
<glyph unicode="&#xcc;" glyph-name="Igrave" horiz-adv-x="188" d="M133 837H163L194 688H171L133 837ZM160 644H188L52 0H24L160 644Z" />
<glyph unicode="&#xcd;" glyph-name="Iacute" horiz-adv-x="188" d="M272 837H302L200 688H177L272 837ZM160 644H188L52 0H24L160 644Z" />
<glyph unicode="&#xce;" glyph-name="Icircumflex" horiz-adv-x="188" d="M195 810H225L294 688H267L208 792L105 688H75L195 810ZM160 644H188L52 0H24L160 644Z" />
<glyph unicode="&#xcf;" glyph-name="Idieresis" horiz-adv-x="188" d="M101 753H136L129 718H94L101 753ZM258 753H293L286 718H251L258 753ZM160 644H188L52 0H24L160 644Z" />
<glyph unicode="&#xd0;" glyph-name="Eth" horiz-adv-x="673" d="M139 305H48L54 330H145L211 644H442Q546 644 594 601T642 463Q642 403 624 317Q599 203 563 135T467 33T309 0H75L139 305ZM303 25Q387 25 441 49T534 136T597 317Q617 409 617 466Q617 549 575
584T437 619H234L172 330H371L365 305H167L108 25H303Z" />
<glyph unicode="&#xd1;" glyph-name="Ntilde" horiz-adv-x="649" d="M480 718T467 722T433 737Q417 745 406 749T383 754Q335 754 301 720L307 751Q321 764 342 771T385 779Q402 779 414 775T445 760Q462 751 473 747T498 743Q521 743 539 750T574 777L567 746Q541
718 496 718Q480 718 467 722ZM160 644H191L493 38L621 644H649L513 0H482L180 606L52 0H24L160 644Z" />
<glyph unicode="&#xd2;" glyph-name="Ograve" horiz-adv-x="682" d="M387 837H417L448 688H425L387 837ZM170 -10T114 46T58 206Q58 258 71 316Q108 490 193 572T424 654Q537 654 592 603T648 445Q648 388 633 316Q563 -10 282 -10Q170 -10 114 46ZM415 15T494
91T606 316Q622 390 622 448Q622 544 573 586T418 629Q293 629 213 556T98 316Q84 251 84 202Q84 109 134 62T288 15Q415 15 494 91Z" />
<glyph unicode="&#xd3;" glyph-name="Oacute" horiz-adv-x="682" d="M519 837H549L447 688H424L519 837ZM170 -10T114 46T58 206Q58 258 71 316Q108 490 193 572T424 654Q537 654 592 603T648 445Q648 388 633 316Q563 -10 282 -10Q170 -10 114 46ZM415 15T494
91T606 316Q622 390 622 448Q622 544 573 586T418 629Q293 629 213 556T98 316Q84 251 84 202Q84 109 134 62T288 15Q415 15 494 91Z" />
<glyph unicode="&#xd4;" glyph-name="Ocircumflex" horiz-adv-x="682" d="M442 810H472L541 688H514L455 792L352 688H322L442 810ZM170 -10T114 46T58 206Q58 258 71 316Q108 490 193 572T424 654Q537 654 592 603T648 445Q648 388 633 316Q563 -10 282 -10Q170
-10 114 46ZM415 15T494 91T606 316Q622 390 622 448Q622 544 573 586T418 629Q293 629 213 556T98 316Q84 251 84 202Q84 109 134 62T288 15Q415 15 494 91Z" />
<glyph unicode="&#xd5;" glyph-name="Otilde" horiz-adv-x="682" d="M487 718T474 722T440 737Q424 745 413 749T390 754Q342 754 308 720L314 751Q328 764 349 771T392 779Q409 779 421 775T452 760Q469 751 480 747T505 743Q528 743 546 750T581 777L574 746Q548
718 503 718Q487 718 474 722ZM170 -10T114 46T58 206Q58 258 71 316Q108 490 193 572T424 654Q537 654 592 603T648 445Q648 388 633 316Q563 -10 282 -10Q170 -10 114 46ZM415 15T494 91T606 316Q622 390 622 448Q622 544 573 586T418 629Q293 629 213 556T98
316Q84 251 84 202Q84 109 134 62T288 15Q415 15 494 91Z" />
<glyph unicode="&#xd6;" glyph-name="Odieresis" horiz-adv-x="682" d="M348 753H383L376 718H341L348 753ZM505 753H540L533 718H498L505 753ZM170 -10T114 46T58 206Q58 258 71 316Q108 490 193 572T424 654Q537 654 592 603T648 445Q648 388 633 316Q563 -10
282 -10Q170 -10 114 46ZM415 15T494 91T606 316Q622 390 622 448Q622 544 573 586T418 629Q293 629 213 556T98 316Q84 251 84 202Q84 109 134 62T288 15Q415 15 494 91Z" />
<glyph unicode="&#xd7;" glyph-name="multiply" horiz-adv-x="397" d="M192 229L52 114L37 133L176 249L82 368L104 386L197 266L344 386L359 367L213 246L307 126L287 109L192 229Z" />
<glyph unicode="&#xd8;" glyph-name="Oslash" horiz-adv-x="682" d="M152 18Q58 69 58 206Q58 258 71 316Q108 490 193 572T424 654Q471 654 507 645L535 693H562L531 638Q648 598 648 444Q648 388 633 316Q563 -10 282 -10Q218 -10 173 8L139 -53H112L152 18ZM494
622Q456 629 418 629Q293 629 213 556T98 316Q84 251 84 202Q84 82 164 40L494 622ZM415 15T494 91T606 316Q622 390 622 448Q622 518 597 558T518 616L186 30Q228 15 288 15Q415 15 494 91Z" />
<glyph unicode="&#xd9;" glyph-name="Ugrave" horiz-adv-x="656" d="M392 837H422L453 688H430L392 837ZM59 -10T59 155Q59 191 68 231L155 644H183L93 219Q86 187 86 156Q86 84 133 50T275 16Q388 16 454 66T543 219L633 644H661L574 231Q548 108 476 49T269
-10Q59 -10 59 155Z" />
<glyph unicode="&#xda;" glyph-name="Uacute" horiz-adv-x="656" d="M494 837H524L422 688H399L494 837ZM59 -10T59 155Q59 191 68 231L155 644H183L93 219Q86 187 86 156Q86 84 133 50T275 16Q388 16 454 66T543 219L633 644H661L574 231Q548 108 476 49T269
-10Q59 -10 59 155Z" />
<glyph unicode="&#xdb;" glyph-name="Ucircumflex" horiz-adv-x="656" d="M429 810H459L528 688H501L442 792L339 688H309L429 810ZM59 -10T59 155Q59 191 68 231L155 644H183L93 219Q86 187 86 156Q86 84 133 50T275 16Q388 16 454 66T543 219L633 644H661L574
231Q548 108 476 49T269 -10Q59 -10 59 155Z" />
<glyph unicode="&#xdc;" glyph-name="Udieresis" horiz-adv-x="656" d="M335 753H370L363 718H328L335 753ZM492 753H527L520 718H485L492 753ZM59 -10T59 155Q59 191 68 231L155 644H183L93 219Q86 187 86 156Q86 84 133 50T275 16Q388 16 454 66T543 219L633
644H661L574 231Q548 108 476 49T269 -10Q59 -10 59 155Z" />
<glyph unicode="&#xdd;" glyph-name="Yacute" horiz-adv-x="606" d="M462 837H492L390 688H367L462 837ZM284 242L140 644H167L301 268L595 644H626L312 242L261 0H233L284 242Z" />
<glyph unicode="&#xde;" glyph-name="Thorn" horiz-adv-x="580" d="M160 644H188L161 513H374Q457 513 497 478T538 376Q538 350 532 320Q513 230 448 180T288 130H79L52 0H24L160 644ZM295 155Q380 155 434 199T505 320Q511 347 511 370Q511 427 476 457T371
487H155L84 155H295Z" />
<glyph unicode="&#xdf;" glyph-name="germandbls" horiz-adv-x="613" d="M213 -10T163 12L169 38Q218 15 308 15Q389 15 440 60T510 190Q517 225 517 245Q517 296 485 323T376 350H285L290 375H388Q457 375 498 416T553 520Q558 547 558 566Q558 618 520 646T388
674Q289 674 229 626T149 484L47 0H19L122 488Q144 591 212 645T393 700Q490 700 537 663T585 562Q585 545 580 520Q568 463 535 422T455 364Q497 353 520 322T543 242Q543 219 537 190Q517 94 456 42T302 -10Q213 -10 163 12Z" />
<glyph unicode="&#xe0;" glyph-name="agrave" horiz-adv-x="522" d="M294 671H324L355 522H332L294 671ZM41 -10T41 141Q41 175 50 218Q77 345 151 414T325 484Q378 484 413 472T481 430L490 474H518L418 0H395L403 57Q360 22 314 6T212 -10Q41 -10 41 141ZM275
15T320 32T408 86L475 401Q450 430 416 444T329 459Q234 459 168 396T77 218Q68 175 68 141Q68 75 105 45T223 15Q275 15 320 32Z" />
<glyph unicode="&#xe1;" glyph-name="aacute" horiz-adv-x="526" d="M411 671H441L339 522H316L411 671ZM41 -10T41 141Q41 175 50 218Q77 345 151 414T325 484Q378 484 413 472T481 430L490 474H518L418 0H395L403 57Q360 22 314 6T212 -10Q41 -10 41 141ZM275
15T320 32T408 86L475 401Q450 430 416 444T329 459Q234 459 168 396T77 218Q68 175 68 141Q68 75 105 45T223 15Q275 15 320 32Z" />
<glyph unicode="&#xe2;" glyph-name="acircumflex" horiz-adv-x="522" d="M340 644H370L439 522H412L353 626L250 522H220L340 644ZM41 -10T41 141Q41 175 50 218Q77 345 151 414T325 484Q378 484 413 472T481 430L490 474H518L418 0H395L403 57Q360 22 314 6T212
-10Q41 -10 41 141ZM275 15T320 32T408 86L475 401Q450 430 416 444T329 459Q234 459 168 396T77 218Q68 175 68 141Q68 75 105 45T223 15Q275 15 320 32Z" />
<glyph unicode="&#xe3;" glyph-name="atilde" horiz-adv-x="522" d="M389 552T376 556T342 571Q326 579 315 583T292 588Q244 588 210 554L216 585Q230 598 251 605T294 613Q311 613 323 609T354 594Q371 585 382 581T407 577Q430 577 448 584T483 611L476 580Q450
552 405 552Q389 552 376 556ZM41 -10T41 141Q41 175 50 218Q77 345 151 414T325 484Q378 484 413 472T481 430L490 474H518L418 0H395L403 57Q360 22 314 6T212 -10Q41 -10 41 141ZM275 15T320 32T408 86L475 401Q450 430 416 444T329 459Q234 459 168 396T77
218Q68 175 68 141Q68 75 105 45T223 15Q275 15 320 32Z" />
<glyph unicode="&#xe4;" glyph-name="adieresis" horiz-adv-x="522" d="M251 587H286L279 552H244L251 587ZM408 587H443L436 552H401L408 587ZM41 -10T41 141Q41 175 50 218Q77 345 151 414T325 484Q378 484 413 472T481 430L490 474H518L418 0H395L403 57Q360
22 314 6T212 -10Q41 -10 41 141ZM275 15T320 32T408 86L475 401Q450 430 416 444T329 459Q234 459 168 396T77 218Q68 175 68 141Q68 75 105 45T223 15Q275 15 320 32Z" />
<glyph unicode="&#xe5;" glyph-name="aring" horiz-adv-x="522" d="M303 522T283 542T262 595Q262 644 296 678T379 713Q415 713 436 693T457 638Q457 607 441 581T398 538T339 522Q303 522 283 542ZM380 547T406 574T432 640Q432 688 374 688Q344 688 320 668T289
617Q286 605 286 595Q286 573 300 560T344 547Q380 547 406 574ZM41 -10T41 141Q41 175 50 218Q77 345 151 414T325 484Q378 484 413 472T481 430L490 474H518L418 0H395L403 57Q360 22 314 6T212 -10Q41 -10 41 141ZM275 15T320 32T408 86L475 401Q450 430 416
444T329 459Q234 459 168 396T77 218Q68 175 68 141Q68 75 105 45T223 15Q275 15 320 32Z" />
<glyph unicode="&#xe6;" glyph-name="ae" horiz-adv-x="877" d="M102 -10T64 14T25 88Q25 98 29 120Q43 185 90 220T228 256H417L430 317Q439 362 439 380Q439 423 409 441T302 459Q222 459 149 434L154 460Q220 484 313 484Q391 484 428 458T464 373Q534 484
677 484Q755 484 792 448T830 352Q830 327 824 300L807 218H437Q427 170 427 141Q427 74 469 45T609 15Q669 15 737 40L731 14Q665 -10 598 -10Q506 -10 461 18T405 108Q332 -10 165 -10Q102 -10 64 14ZM784 244L795 296Q802 325 802 355Q802 406 772 432T672 459Q574
459 520 404T442 244H784ZM228 15T274 32T353 80T395 154L411 230H224Q143 230 106 203T56 120Q53 107 53 94Q53 15 178 15Q228 15 274 32Z" />
<glyph unicode="&#xe7;" glyph-name="ccedilla" horiz-adv-x="476" d="M103 -240T75 -232L81 -207Q107 -215 143 -215Q197 -215 226 -198T265 -141Q267 -127 267 -122Q267 -97 247 -87T180 -76H152L190 -8Q44 6 44 151Q44 193 54 237Q80 359 155 421T342 484Q384
484 409 479T457 460L452 434Q425 447 399 453T340 459Q237 459 171 404T81 237Q70 185 70 150Q70 81 110 48T240 15Q303 15 368 40L362 14Q301 -10 217 -10L193 -53Q241 -53 267 -70T294 -120Q294 -125 292 -139Q281 -189 244 -214T136 -240Q103 -240 75 -232Z"
/>
<glyph unicode="&#xe8;" glyph-name="egrave" horiz-adv-x="518" d="M279 671H309L340 522H317L279 671ZM137 -10T90 27T43 145Q43 187 55 241Q80 361 142 422T318 484Q396 484 433 448T471 352Q471 327 465 300L448 218H78Q69 176 69 142Q69 76 110 46T250 15Q310
15 378 40L372 14Q306 -10 239 -10Q137 -10 90 27ZM425 244L436 296Q443 331 443 352Q443 404 412 431T313 459Q217 459 162 404T83 244H425Z" />
<glyph unicode="&#xe9;" glyph-name="eacute" horiz-adv-x="518" d="M402 671H432L330 522H307L402 671ZM137 -10T90 27T43 145Q43 187 55 241Q80 361 142 422T318 484Q396 484 433 448T471 352Q471 327 465 300L448 218H78Q69 176 69 142Q69 76 110 46T250 15Q310
15 378 40L372 14Q306 -10 239 -10Q137 -10 90 27ZM425 244L436 296Q443 331 443 352Q443 404 412 431T313 459Q217 459 162 404T83 244H425Z" />
<glyph unicode="&#xea;" glyph-name="ecircumflex" horiz-adv-x="518" d="M337 644H367L436 522H409L350 626L247 522H217L337 644ZM137 -10T90 27T43 145Q43 187 55 241Q80 361 142 422T318 484Q396 484 433 448T471 352Q471 327 465 300L448 218H78Q69 176 69
142Q69 76 110 46T250 15Q310 15 378 40L372 14Q306 -10 239 -10Q137 -10 90 27ZM425 244L436 296Q443 331 443 352Q443 404 412 431T313 459Q217 459 162 404T83 244H425Z" />
<glyph unicode="&#xeb;" glyph-name="edieresis" horiz-adv-x="518" d="M243 587H278L271 552H236L243 587ZM400 587H435L428 552H393L400 587ZM137 -10T90 27T43 145Q43 187 55 241Q80 361 142 422T318 484Q396 484 433 448T471 352Q471 327 465 300L448 218H78Q69
176 69 142Q69 76 110 46T250 15Q310 15 378 40L372 14Q306 -10 239 -10Q137 -10 90 27ZM425 244L436 296Q443 331 443 352Q443 404 412 431T313 459Q217 459 162 404T83 244H425Z" />
<glyph unicode="&#xec;" glyph-name="igrave" horiz-adv-x="265" d="M173 671H203L234 522H211L173 671ZM196 448H119L124 474H229L129 0H101L196 448Z" />
<glyph unicode="&#xed;" glyph-name="iacute" horiz-adv-x="265" d="M297 671H327L225 522H202L297 671ZM196 448H119L124 474H229L129 0H101L196 448Z" />
<glyph unicode="&#xee;" glyph-name="icircumflex" horiz-adv-x="265" d="M203 644H233L302 522H275L216 626L113 522H83L203 644ZM196 448H119L124 474H229L129 0H101L196 448Z" />
<glyph unicode="&#xef;" glyph-name="idieresis" horiz-adv-x="265" d="M105 587H140L133 552H98L105 587ZM262 587H297L290 552H255L262 587ZM196 448H119L124 474H229L129 0H101L196 448Z" />
<glyph unicode="&#xf0;" glyph-name="eth" horiz-adv-x="568" d="M130 -10T85 29T39 139Q39 164 45 194Q66 292 132 344T304 396Q348 396 394 380T479 330L493 396Q504 449 504 490Q504 536 488 568L338 508L344 533L477 586Q442 629 365 629Q282 629 222 610L228
636Q293 654 371 654Q464 654 504 597L613 641L607 616L514 579Q531 545 531 490Q531 448 520 393L485 228Q459 103 393 47T217 -10Q130 -10 85 29ZM412 15T453 208L473 304Q439 334 394 352T301 371Q200 371 145 325T72 194Q66 169 66 145Q66 83 106 49T224 15Q412
15 453 208Z" />
<glyph unicode="&#xf1;" glyph-name="ntilde" horiz-adv-x="548" d="M401 552T388 556T354 571Q338 579 327 583T304 588Q256 588 222 554L228 585Q242 598 263 605T306 613Q323 613 335 609T366 594Q383 585 394 581T419 577Q442 577 460 584T495 611L488 580Q462
552 417 552Q401 552 388 556ZM124 474H147L139 412Q186 447 237 465T354 484Q423 484 457 458T491 375Q491 348 484 317L417 0H389L456 317Q464 354 464 376Q464 421 435 440T334 459Q231 459 132 381L52 0H24L124 474Z" />
<glyph unicode="&#xf2;" glyph-name="ograve" horiz-adv-x="552" d="M291 671H321L352 522H329L291 671ZM127 -10T85 29T43 145Q43 184 54 237Q80 361 144 422T322 484Q412 484 454 445T497 327Q497 289 486 237Q460 112 397 51T217 -10Q127 -10 85 29ZM325 15T379
69T459 237Q470 292 470 329Q470 396 435 427T317 459Q216 459 161 405T81 237Q69 183 69 142Q69 77 105 46T223 15Q325 15 379 69Z" />
<glyph unicode="&#xf3;" glyph-name="oacute" horiz-adv-x="552" d="M421 671H451L349 522H326L421 671ZM127 -10T85 29T43 145Q43 184 54 237Q80 361 144 422T322 484Q412 484 454 445T497 327Q497 289 486 237Q460 112 397 51T217 -10Q127 -10 85 29ZM325 15T379
69T459 237Q470 292 470 329Q470 396 435 427T317 459Q216 459 161 405T81 237Q69 183 69 142Q69 77 105 46T223 15Q325 15 379 69Z" />
<glyph unicode="&#xf4;" glyph-name="ocircumflex" horiz-adv-x="552" d="M336 644H366L435 522H408L349 626L246 522H216L336 644ZM127 -10T85 29T43 145Q43 184 54 237Q80 361 144 422T322 484Q412 484 454 445T497 327Q497 289 486 237Q460 112 397 51T217
-10Q127 -10 85 29ZM325 15T379 69T459 237Q470 292 470 329Q470 396 435 427T317 459Q216 459 161 405T81 237Q69 183 69 142Q69 77 105 46T223 15Q325 15 379 69Z" />
<glyph unicode="&#xf5;" glyph-name="otilde" horiz-adv-x="552" d="M387 552T374 556T340 571Q324 579 313 583T290 588Q242 588 208 554L214 585Q228 598 249 605T292 613Q309 613 321 609T352 594Q369 585 380 581T405 577Q428 577 446 584T481 611L474 580Q448
552 403 552Q387 552 374 556ZM127 -10T85 29T43 145Q43 184 54 237Q80 361 144 422T322 484Q412 484 454 445T497 327Q497 289 486 237Q460 112 397 51T217 -10Q127 -10 85 29ZM325 15T379 69T459 237Q470 292 470 329Q470 396 435 427T317 459Q216 459 161 405T81
237Q69 183 69 142Q69 77 105 46T223 15Q325 15 379 69Z" />
<glyph unicode="&#xf6;" glyph-name="odieresis" horiz-adv-x="552" d="M248 587H283L276 552H241L248 587ZM405 587H440L433 552H398L405 587ZM127 -10T85 29T43 145Q43 184 54 237Q80 361 144 422T322 484Q412 484 454 445T497 327Q497 289 486 237Q460 112
397 51T217 -10Q127 -10 85 29ZM325 15T379 69T459 237Q470 292 470 329Q470 396 435 427T317 459Q216 459 161 405T81 237Q69 183 69 142Q69 77 105 46T223 15Q325 15 379 69Z" />
<glyph unicode="&#xf7;" glyph-name="divide" horiz-adv-x="487" d="M258 419H294L285 379H249L258 419ZM59 259H426L420 234H53L59 259ZM194 121H230L222 81H186L194 121Z" />
<glyph unicode="&#xf8;" glyph-name="oslash" horiz-adv-x="552" d="M133 1Q43 31 43 145Q43 184 54 237Q80 361 144 422T322 484Q369 484 400 474L431 528H458L422 465Q497 430 497 326Q497 289 486 237Q460 112 397 51T217 -10Q183 -10 157 -4L129 -54H102L133
1ZM387 451Q357 459 317 459Q216 459 161 405T81 237Q69 183 69 142Q69 94 87 66T146 24L387 451ZM325 15T379 69T459 237Q470 292 470 329Q470 372 456 399T410 442L170 19Q191 15 223 15Q325 15 379 69Z" />
<glyph unicode="&#xf9;" glyph-name="ugrave" horiz-adv-x="548" d="M283 671H313L344 522H321L283 671ZM121 -10T85 23T49 119Q49 144 55 174L119 474H147L83 174Q76 143 76 115Q76 64 107 40T209 15Q311 15 403 93L484 474H512L412 0H389L397 62Q348 25 302
8T191 -10Q121 -10 85 23Z" />
<glyph unicode="&#xfa;" glyph-name="uacute" horiz-adv-x="548" d="M401 671H431L329 522H306L401 671ZM121 -10T85 23T49 119Q49 144 55 174L119 474H147L83 174Q76 143 76 115Q76 64 107 40T209 15Q311 15 403 93L484 474H512L412 0H389L397 62Q348 25 302
8T191 -10Q121 -10 85 23Z" />
<glyph unicode="&#xfb;" glyph-name="ucircumflex" horiz-adv-x="548" d="M337 644H367L436 522H409L350 626L247 522H217L337 644ZM121 -10T85 23T49 119Q49 144 55 174L119 474H147L83 174Q76 143 76 115Q76 64 107 40T209 15Q311 15 403 93L484 474H512L412
0H389L397 62Q348 25 302 8T191 -10Q121 -10 85 23Z" />
<glyph unicode="&#xfc;" glyph-name="udieresis" horiz-adv-x="548" d="M241 587H276L269 552H234L241 587ZM398 587H433L426 552H391L398 587ZM121 -10T85 23T49 119Q49 144 55 174L119 474H147L83 174Q76 143 76 115Q76 64 107 40T209 15Q311 15 403 93L484
474H512L412 0H389L397 62Q348 25 302 8T191 -10Q121 -10 85 23Z" />
<glyph unicode="&#xfd;" glyph-name="yacute" horiz-adv-x="549" d="M409 671H439L337 522H314L409 671ZM138 -176T105 -173T56 -166L62 -140Q95 -151 162 -151Q249 -151 308 -114T381 -10L401 82Q351 44 307 27T196 10Q129 10 92 42T54 139Q54 164 60 194L119
474H147L88 194Q81 157 81 138Q81 85 113 60T216 35Q314 35 408 113L484 474H512L409 -10Q399 -60 363 -97T275 -155T164 -176Q138 -176 105 -173Z" />
<glyph unicode="&#xfe;" glyph-name="thorn" horiz-adv-x="554" d="M172 700H200L140 417Q183 452 228 468T329 484Q499 484 499 327Q499 286 489 240Q462 114 391 52T218 -10Q164 -10 128 2T61 44L6 -216H-22L172 700ZM316 15T376 70T462 240Q472 284 472 324Q472
392 435 425T319 459Q267 459 222 442T134 388L67 73Q96 45 130 30T217 15Q316 15 376 70Z" />
<glyph unicode="&#xff;" glyph-name="ydieresis" horiz-adv-x="549" d="M260 587H295L288 552H253L260 587ZM417 587H452L445 552H410L417 587ZM138 -176T105 -173T56 -166L62 -140Q95 -151 162 -151Q249 -151 308 -114T381 -10L401 82Q351 44 307 27T196 10Q129
10 92 42T54 139Q54 164 60 194L119 474H147L88 194Q81 157 81 138Q81 85 113 60T216 35Q314 35 408 113L484 474H512L409 -10Q399 -60 363 -97T275 -155T164 -176Q138 -176 105 -173Z" />
<glyph unicode="&#x2013;" glyph-name="endash" horiz-adv-x="597" d="M59 259H536L530 234H53L59 259Z" />
<glyph unicode="&#x2014;" glyph-name="emdash" horiz-adv-x="909" d="M59 259H848L842 234H53L59 259Z" />
<glyph unicode="&#x2018;" glyph-name="quoteleft" horiz-adv-x="196" d="M197 654H219L142 495H109L197 654Z" />
<glyph unicode="&#x2019;" glyph-name="quoteright" horiz-adv-x="196" d="M186 654H219L131 495H109L186 654Z" />
<glyph unicode="&#x201a;" glyph-name="quotesinglbase" horiz-adv-x="196" d="M54 33H87L-1 -126H-23L54 33Z" />
<glyph unicode="&#x201c;" glyph-name="quotedblleft" horiz-adv-x="312" d="M197 654H219L142 495H109L197 654ZM313 654H335L258 495H225L313 654Z" />
<glyph unicode="&#x201d;" glyph-name="quotedblright" horiz-adv-x="312" d="M186 654H219L131 495H109L186 654ZM302 654H335L247 495H225L302 654Z" />
<glyph unicode="&#x201e;" glyph-name="quotedblbase" horiz-adv-x="312" d="M54 33H87L-1 -126H-23L54 33ZM170 33H203L115 -126H93L170 33Z" />
<glyph unicode="&#x2022;" glyph-name="bullet" horiz-adv-x="343" d="M112 176T87 200T62 262Q62 298 81 329T133 380T199 399Q239 399 264 374T290 310Q290 275 271 244T219 195T152 176Q112 176 87 200Z" />
<glyph unicode="&#x2039;" glyph-name="guilsinglleft" horiz-adv-x="380" d="M62 276L67 300L352 481L361 458L93 285L288 112L270 95L62 276Z" />
<glyph unicode="&#x203a;" glyph-name="guilsinglright" horiz-adv-x="380" d="M28 118L297 291L101 464L120 481L327 300L322 276L38 95L28 118Z" />
</font>
</defs>
</svg>
