<?xml version="1.0" standalone="no"?>
<!DOCTYPE svg PUBLIC "-//W3C//DTD SVG 1.1//EN" "http://www.w3.org/Graphics/SVG/1.1/DTD/svg11.dtd">
<svg xmlns="http://www.w3.org/2000/svg">
<defs >
<font id="Trocchi" horiz-adv-x="1273" ><font-face
    font-family="Trocchi"
    units-per-em="2048"
    panose-1="0 0 5 0 0 0 0 0 0 0"
    ascent="2085"
    descent="-576"
    alphabetic="0" />
<glyph unicode=" " glyph-name="space" horiz-adv-x="480" />
<glyph unicode="!" glyph-name="exclam" horiz-adv-x="856" d="M399 451L305 1479H565L471 451H399ZM398 -20T365 0T311 54T291 127Q291 168 311 202T364 256T438 276Q477 276 512 256T567 201T588 127Q588 88 568 54T512 0T438 -20Q398 -20 365 0Z" />
<glyph unicode="&quot;" glyph-name="quotedbl" horiz-adv-x="717" d="M199 1004T196 1028L143 1456Q143 1492 166 1514T229 1536Q313 1536 313 1456L260 1028Q257 1004 229 1004Q199 1004 196 1028ZM461 1004T458 1028L405 1456Q405 1492 428 1514T491 1536Q575
1536 575 1456L522 1028Q519 1004 491 1004Q461 1004 458 1028Z" />
<glyph unicode="#" glyph-name="numbersign" horiz-adv-x="1350" d="M187 -170L68 -133L304 578H81V645H326L446 1006H202V1073H468L642 1597L761 1561L599 1073H925L1099 1597L1217 1561L1055 1073H1289V1006H1033L914 645H1168V578H892L644 -170L525 -133L761
578H435L187 -170ZM457 645H783L903 1006H577L457 645Z" />
<glyph unicode="$" glyph-name="dollar" horiz-adv-x="1394" d="M639 -27Q485 -19 347 39Q269 71 214 112T124 209Q88 268 88 336Q88 390 112 433T178 501T268 526Q311 526 348 503T406 441T428 360Q428 296 391 260T287 215Q438 120 639 109V633Q632 633 621
637Q322 710 208 827Q153 883 130 943T106 1080Q106 1203 171 1299T356 1450T639 1509V1659L735 1661V1505Q905 1493 1056 1419Q1133 1381 1178 1319T1223 1180Q1223 1090 1178 1035T1053 979Q1008 979 970 996T908 1046T885 1120Q885 1196 924 1236T1022 1276Q917
1369 735 1380V848Q896 808 1001 761T1164 655Q1219 598 1241 535T1264 385Q1264 196 1131 92T735 -25V-190L639 -193V-27ZM639 1380Q548 1372 474 1339T358 1251T315 1126Q315 1090 321 1065T346 1012Q366 982 400 960T494 914Q558 889 639 870V1380ZM741 109Q836
115 909 147T1025 234T1067 362Q1067 426 1033 469T929 544T735 608V109H741Z" />
<glyph unicode="%" glyph-name="percent" horiz-adv-x="1779" d="M364 778T288 809T165 893Q119 946 95 1010T70 1145Q70 1215 95 1279T166 1396Q214 1449 288 1480T453 1511Q544 1511 619 1481T741 1396Q787 1344 811 1279T836 1143Q836 1073 812 1010T742 893Q695
839 621 809T455 778Q364 778 288 809ZM414 -61L314 -2L1379 1479L1479 1419L414 -61ZM521 872T572 911T652 1015T681 1155Q681 1229 654 1289T575 1385T453 1421Q383 1421 332 1386T253 1291T226 1157Q226 1082 254 1017T335 912T455 872Q521 872 572 911ZM1239
-37T1163 -6T1040 78Q994 131 970 195T945 330Q945 400 970 464T1041 581Q1089 634 1163 665T1328 696Q1419 696 1494 666T1616 581Q1662 529 1686 464T1711 328Q1711 258 1687 195T1617 78Q1570 24 1496 -6T1330 -37Q1239 -37 1163 -6ZM1396 57T1447 96T1527 200T1555
340Q1555 414 1528 474T1450 570T1328 606Q1258 606 1206 571T1127 476T1100 342Q1100 267 1129 202T1210 97T1330 57Q1396 57 1447 96Z" />
<glyph unicode="&amp;" glyph-name="ampersand" horiz-adv-x="1810" d="M410 -27T314 24T166 167T115 379Q115 487 167 562Q196 603 224 632T296 691Q352 730 439 782L463 796Q498 816 549 848Q498 932 465 1022T432 1167Q432 1274 483 1358T623 1489T823 1536Q916
1536 989 1498T1105 1392T1147 1237Q1147 1100 1039 984Q986 927 931 881T797 782L1014 465L1339 862H1139V958H1714V862H1548L1106 334Q1139 276 1183 231T1274 162T1356 137Q1395 137 1420 145T1470 177Q1520 225 1520 375V518H1651V434Q1651 316 1637 236T1591
95Q1557 33 1496 3T1343 -27Q1247 -27 1150 30T971 199Q966 194 953 183T915 149Q870 109 851 93T793 50Q753 23 722 10T640 -16Q590 -27 541 -27Q410 -27 314 24ZM779 969Q812 992 837 1011T890 1056Q919 1083 935 1106T963 1160Q975 1192 975 1223Q975 1300 939
1348T840 1396Q748 1396 690 1341T631 1188Q631 1101 721 926L779 969ZM626 143T697 188T874 334L635 690Q519 615 472 580T393 506Q361 468 353 436T344 342Q344 288 371 243T448 170T565 143Q626 143 697 188Z" />
<glyph unicode="&apos;" glyph-name="quotesingle" horiz-adv-x="455" d="M210 1004T190 1091T157 1291T143 1456Q143 1492 166 1514T229 1536Q313 1536 313 1456Q313 1407 299 1295T266 1093T229 1004Q210 1004 190 1091Z" />
<glyph unicode="(" glyph-name="parenleft" horiz-adv-x="738" d="M530 -215T413 -132T221 82Q148 210 110 360T71 668Q71 824 109 975T221 1254Q295 1385 412 1468T671 1565V1479Q583 1462 509 1385T389 1190Q344 1075 320 941T296 668Q296 529 320 395T389 145Q435
28 509 -49T671 -143V-229Q530 -215 413 -132Z" />
<glyph unicode=")" glyph-name="parenright" horiz-adv-x="737" d="M68 -143Q156 -126 230 -49T350 146Q395 261 419 395T443 668Q443 807 419 941T350 1191Q304 1308 230 1385T68 1479V1565Q209 1551 327 1468T519 1255Q591 1127 629 976T668 668Q668 512 630
361T519 82Q445 -49 327 -132T68 -229V-143Z" />
<glyph unicode="*" glyph-name="asterisk" horiz-adv-x="1454" d="M430 368L258 522L641 919L123 1081L205 1276L682 1003L616 1536H836L770 1003L1247 1276L1329 1081L811 919L1194 522L1022 368L726 853L430 368Z" />
<glyph unicode="+" glyph-name="plus" horiz-adv-x="1131" d="M480 156V532H148V680H480V1047H650V680H982V532H650V156H480Z" />
<glyph unicode="," glyph-name="comma" horiz-adv-x="617" d="M235 -174Q287 -142 325 -98T364 -16Q364 1 356 12Q317 -12 272 -12Q238 -12 208 7T158 57T139 121Q139 157 161 190T218 244T289 264Q338 264 381 239T450 167T477 55Q477 -26 432 -104T297 -244Q292
-245 285 -252L235 -174Z" />
<glyph unicode="-" glyph-name="hyphen" horiz-adv-x="889" d="M153 547V684H735V547H153Z" />
<glyph unicode="." glyph-name="period" horiz-adv-x="589" d="M253 -20T220 0T166 54T146 127Q146 168 166 202T219 256T293 276Q332 276 367 256T422 201T443 127Q443 88 423 54T367 0T293 -20Q253 -20 220 0Z" />
<glyph unicode="/" glyph-name="slash" horiz-adv-x="819" d="M182 -170L63 -133L637 1597L756 1561L182 -170Z" />
<glyph unicode="0" glyph-name="zero" horiz-adv-x="1114" d="M443 -27T348 20T194 151Q136 232 105 331T74 539Q74 646 105 745T196 926Q256 1007 348 1054Q443 1102 557 1102Q670 1102 764 1055T919 926Q978 845 1009 746T1040 539Q1040 431 1009 332T920 151Q861
68 766 21T557 -27Q443 -27 348 20ZM636 100T698 163T790 327Q819 426 819 539Q819 655 788 754T698 918Q636 983 557 983Q479 983 418 919T325 752Q295 652 295 539Q295 422 325 325T415 165Q477 100 557 100Q636 100 698 163Z" />
<glyph unicode="1" glyph-name="one" horiz-adv-x="821" d="M117 0V113H360V897L147 799L86 928L453 1073H575V113H805V0H117Z" />
<glyph unicode="2" glyph-name="two" horiz-adv-x="1058" d="M831 0H143Q125 119 123 119Q189 164 224 187L250 204Q330 257 382 293T497 380Q579 445 631 499T719 617Q756 681 756 741Q756 807 724 864T639 956T524 991Q391 991 309 897Q350 885 378 852T406
772Q406 707 364 667T252 627Q172 627 129 674T86 795Q86 876 150 948T324 1063T561 1106Q685 1106 775 1061T914 931T963 727Q963 648 897 554T694 360L424 164H958L995 -137L926 -147L831 0Z" />
<glyph unicode="3" glyph-name="three" horiz-adv-x="1105" d="M237 -305T141 -215Q90 -169 90 -102Q90 -36 126 2T231 41Q271 41 302 22T351 -30T369 -98Q369 -131 352 -170Q342 -193 342 -195Q404 -203 424 -203Q514 -203 589 -175T711 -99Q756 -51 780 7T805
127Q805 385 549 385Q506 385 432 373L408 500Q735 550 735 754Q735 860 666 921T475 983Q392 983 341 960T233 874Q284 874 328 849Q353 835 368 808T383 745Q383 680 343 639T238 598Q188 598 148 621T86 682T63 760Q63 866 119 944T278 1063T514 1104Q618 1104
700 1075T832 994Q926 893 926 760Q926 653 862 580T670 473Q849 455 937 367T1026 133Q1026 7 954 -92T751 -248T446 -305Q237 -305 141 -215Z" />
<glyph unicode="4" glyph-name="four" horiz-adv-x="1099" d="M403 -387V-250H643V0H109L84 135L606 1087L858 1057V150H1124L1106 0H858V-250H1081V-387H403ZM268 150H643V924L268 150Z" />
<glyph unicode="5" glyph-name="five" horiz-adv-x="1085" d="M233 -303T137 -213Q86 -167 86 -100Q86 -34 122 4T227 43Q267 43 298 24T347 -28T365 -96Q365 -123 352 -153L338 -186Q402 -195 420 -195Q509 -195 581 -167T698 -89Q742 -41 764 19T787 148Q787
237 752 306T652 416Q528 494 346 494Q300 494 217 483L158 555L233 1073H913L854 903H356L309 604Q384 612 459 612Q605 612 714 579T887 485Q1010 366 1010 169Q1010 74 973 -10T867 -161Q797 -228 687 -265T442 -303Q233 -303 137 -213Z" />
<glyph unicode="6" glyph-name="six" horiz-adv-x="1241" d="M490 -27T377 45T203 260T141 606Q141 721 160 823T215 1004Q250 1082 298 1146T402 1254Q458 1298 520 1328T645 1371Q706 1384 772 1384Q848 1384 909 1363T1005 1304T1040 1217Q1040 1151 1004 1113T905
1075Q872 1075 842 1092T793 1137T774 1196Q774 1227 781 1262L784 1280Q664 1269 568 1192T415 987T352 700Q415 767 513 805T705 844Q823 844 916 796T1067 649Q1126 548 1126 410Q1126 286 1064 187T891 30T645 -27Q490 -27 377 45ZM732 98T794 139T891 252T926
416Q926 505 895 572T804 676T657 713Q596 713 527 687T406 615Q352 566 352 510Q352 264 484 156Q552 98 653 98Q732 98 794 139Z" />
<glyph unicode="7" glyph-name="seven" horiz-adv-x="1042" d="M305 -451T273 -419T240 -334Q240 -293 258 -254L813 932H283V688H98V1073H920L975 922L475 -360Q457 -404 424 -427T352 -451Q305 -451 273 -419Z" />
<glyph unicode="8" glyph-name="eight" horiz-adv-x="1234" d="M465 -27T346 17T161 143T94 332Q94 403 122 469T194 584Q233 625 287 663T385 723Q420 740 463 757Q395 798 347 836T255 922Q164 1022 164 1163Q164 1268 219 1346T378 1467T623 1509Q754 1509
857 1461T1019 1329T1077 1143Q1077 1078 1052 1020T980 918Q935 876 889 845T789 790Q854 753 898 722T990 651Q1039 608 1070 565T1121 467Q1141 410 1141 350Q1141 236 1079 151T898 20T618 -27Q465 -27 346 17ZM711 876T745 900T814 959Q851 996 872 1046T893
1153Q893 1215 859 1267T764 1351T622 1383Q543 1383 481 1355T384 1274T348 1151Q348 1108 381 1056Q399 1027 471 973Q501 951 598 896Q632 875 670 856Q711 876 745 900ZM761 106T846 167T932 350Q932 457 827 540Q776 579 728 609T596 684L584 690Q536 665
496 637T413 568Q366 525 340 472T313 362Q313 237 392 172T612 106Q761 106 846 167Z" />
<glyph unicode="9" glyph-name="nine" horiz-adv-x="1239" d="M400 -283T339 -262T242 -202T207 -115Q207 -49 243 -11T342 27Q375 27 405 10T454 -35T473 -94Q473 -126 466 -159L463 -178Q553 -172 634 -122T773 8Q829 87 865 178T915 365Q865 309 778 279T598
248Q446 248 332 307Q266 341 221 389T149 508Q121 580 121 674Q121 794 184 893T359 1048Q469 1104 602 1104Q757 1104 870 1032T1044 817T1106 471Q1106 314 1069 183T968 -35Q907 -118 824 -175T653 -258Q568 -283 475 -283Q400 -283 339 -262ZM688 379T750
400T860 463Q909 506 909 563Q909 620 901 672T872 780Q850 841 817 883T729 951Q674 979 602 979Q525 979 462 941T361 834T324 682Q324 533 401 456T625 379Q688 379 750 400Z" />
<glyph unicode=":" glyph-name="colon" horiz-adv-x="588" d="M254 774T220 794T166 848T146 922Q146 963 166 997T220 1051T294 1071Q333 1071 367 1051T422 996T443 922Q443 883 423 849T368 795T294 774Q254 774 220 794ZM254 0T220 20T166 74T146 147Q146
188 166 222T220 277T294 297Q333 297 367 277T422 222T443 147Q443 108 423 74T368 20T294 0Q254 0 220 20Z" />
<glyph unicode=";" glyph-name="semicolon" horiz-adv-x="590" d="M246 774T213 794T159 848T139 922Q139 963 159 997T212 1051T286 1071Q325 1071 360 1051T415 996T436 922Q436 883 416 849T360 795T286 774Q246 774 213 794ZM229 -150Q276 -121 312 -78T348
0Q348 17 339 29Q304 4 262 4Q231 4 203 22T157 70T139 131Q139 167 160 198T215 249T286 268Q332 268 370 245T430 176T452 70Q452 27 441 -7T403 -79Q377 -115 354 -140T274 -223L229 -150Z" />
<glyph unicode="&lt;" glyph-name="less" horiz-adv-x="943" d="M871 279L70 604V801L871 1155V989L226 711L871 449V279Z" />
<glyph unicode="=" glyph-name="equal" horiz-adv-x="1005" d="M153 723V860H851V723H153ZM153 358V496H851V358H153Z" />
<glyph unicode="&gt;" glyph-name="greater" horiz-adv-x="943" d="M73 279V449L718 711L73 989V1155L874 801V604L73 279Z" />
<glyph unicode="?" glyph-name="question" horiz-adv-x="1009" d="M426 505T454 595T527 754Q560 807 610 878Q711 1022 711 1153Q711 1221 691 1276T634 1365Q561 1432 465 1432Q395 1432 337 1397T252 1301Q291 1301 328 1285Q373 1266 391 1225Q401 1202 401
1172Q401 1107 361 1066T256 1024Q206 1024 166 1046T104 1105T82 1182Q82 1290 143 1372T308 1496Q407 1536 528 1536Q632 1536 728 1484Q788 1452 829 1407T898 1291Q926 1217 926 1123Q926 1029 891 944T796 791Q745 734 680 670Q527 521 492 406H426Q426 505
454 595ZM415 -20T381 0T327 54T307 127Q307 168 327 202T381 256T455 276Q494 276 528 256T583 201T604 127Q604 88 584 54T529 0T455 -20Q415 -20 381 0Z" />
<glyph unicode="@" glyph-name="at" horiz-adv-x="1642" d="M636 -28T486 28T238 186Q141 286 89 419T37 706Q37 873 106 1027T295 1295Q413 1407 569 1471T889 1536Q1030 1536 1151 1495T1358 1380Q1440 1309 1499 1216T1585 1020Q1612 920 1612 815Q1612 714
1586 623T1509 459Q1459 387 1381 346T1208 305Q1102 305 1047 369T985 567Q963 517 944 484T897 419Q869 386 835 367T752 335Q703 323 643 323Q545 323 467 392Q427 427 404 488T381 628Q381 728 420 835T526 1032Q593 1122 685 1177T870 1232Q893 1232 942 1197T1033
1120L1071 1083Q1102 1168 1106 1183H1266Q1149 565 1149 518Q1149 397 1233 397Q1258 397 1288 413T1350 462Q1423 538 1454 663Q1471 736 1471 817Q1471 982 1398 1120T1193 1340Q1060 1421 897 1421Q768 1421 652 1379T450 1262Q366 1189 305 1094T214 893Q183
788 183 680Q183 560 222 456T340 267Q419 181 547 133T836 85Q947 85 1075 121T1286 215Q1348 138 1348 133Q1250 62 1099 17T817 -28Q636 -28 486 28ZM764 442T823 483T927 586T985 702L997 770L1020 906L1032 981Q1031 982 1021 996Q1010 1009 989 1031T950
1069Q928 1089 903 1102T858 1116Q786 1116 715 1042T600 857Q557 749 557 651Q557 584 579 537T636 466T709 442Q764 442 823 483Z" />
<glyph unicode="A" glyph-name="A" horiz-adv-x="1662" d="M8 0V143H188L715 1505H952L1487 143H1655V0H1008V143H1231L1092 504H514L383 143H635V0H8ZM561 631H1042L795 1309L561 631Z" />
<glyph unicode="B" glyph-name="B" horiz-adv-x="1445" d="M33 143H279V1362H33V1505H688Q822 1505 953 1479Q1090 1452 1191 1371Q1240 1331 1267 1270T1294 1133Q1294 1007 1225 928T1018 809Q1192 766 1283 667T1374 412Q1374 334 1351 269T1287 160Q1251 120
1193 88T1075 39Q1023 24 950 15T818 2Q748 0 696 0H33V143ZM731 862Q863 862 965 915Q1017 942 1047 990T1077 1100Q1077 1195 1035 1255Q1000 1303 911 1333Q850 1352 717 1360Q649 1362 594 1362H514V862H731ZM633 143Q764 143 853 152Q902 157 938 166T1011
190Q1044 203 1066 223T1107 273Q1139 324 1139 420Q1139 496 1105 556T1011 655Q952 691 881 710T731 729H514V143H633Z" />
<glyph unicode="C" glyph-name="C" horiz-adv-x="1447" d="M643 -27T509 36T280 209Q187 318 136 463T84 768Q84 932 136 1074T285 1319Q382 1422 519 1479T817 1536Q956 1536 1081 1478T1288 1313Q1370 1206 1370 1073Q1370 1027 1346 985T1276 917T1174 891Q1097
891 1051 936T1004 1057Q1004 1106 1031 1142T1099 1198T1182 1217Q1131 1296 1034 1346T815 1396Q680 1396 574 1318T408 1097T348 764Q348 654 383 548T481 353Q546 263 644 211T858 158Q944 158 1021 190T1154 278Q1207 331 1243 393T1296 522L1430 457Q1376
224 1214 99T795 -27Q643 -27 509 36Z" />
<glyph unicode="D" glyph-name="D" horiz-adv-x="1568" d="M33 143H276V1362H33V1505H485Q655 1505 792 1484T1056 1412Q1192 1358 1283 1275T1429 1064Q1485 931 1485 762Q1485 604 1440 476T1310 259Q1227 172 1107 113T840 27Q695 0 522 0H33V143ZM642 143T743
161T936 222Q1031 266 1093 336T1192 512Q1229 619 1229 762Q1229 866 1209 953T1153 1103Q1118 1163 1065 1209T951 1285Q893 1312 819 1329T669 1354Q597 1360 512 1360V143Q642 143 743 161Z" />
<glyph unicode="E" glyph-name="E" horiz-adv-x="1484" d="M33 0V143H279V1362H33V1505H1393V926H1212V1362H514V821H887V1067H1020V446H887V707H514V143H1212V571H1393V0H33Z" />
<glyph unicode="F" glyph-name="F" horiz-adv-x="1409" d="M33 0V143H276V1362H33V1505H1374V956H1192V1362H512V844H872V1055H1010V471H872V725H512V143H772V0H33Z" />
<glyph unicode="G" glyph-name="G" horiz-adv-x="1599" d="M653 -27T536 17T335 141Q254 218 196 319T111 533Q84 644 84 760Q84 911 137 1050T288 1299Q386 1409 534 1472T855 1536Q1019 1536 1153 1475T1361 1311Q1434 1208 1434 1085Q1434 1043 1413 1005T1352
944T1262 920Q1215 920 1177 942T1116 1001T1094 1077Q1094 1121 1114 1157T1164 1215T1221 1237H1225Q1185 1293 1119 1332T990 1384Q932 1396 874 1396Q715 1396 593 1312T408 1083Q346 939 346 762Q346 644 383 533T488 337Q555 251 650 202T852 152Q927 152
999 180T1121 255Q1170 300 1198 351T1227 446V586H944V737H1595V586H1432V0H1311L1262 211Q1229 146 1174 97T1051 22Q924 -27 788 -27Q653 -27 536 17Z" />
<glyph unicode="H" glyph-name="H" horiz-adv-x="1654" d="M33 0V143H276V1362H33V1505H741V1362H512V852H1143V1362H911V1505H1622V1362H1378V143H1622V0H911V143H1143V725H512V143H741V0H33Z" />
<glyph unicode="I" glyph-name="I" horiz-adv-x="769" d="M30 0V143H274V1362H30V1505H739V1362H509V143H739V0H30Z" />
<glyph unicode="J" glyph-name="J" horiz-adv-x="1161" d="M331 -201T236 -158T88 -40T35 123Q35 177 57 217T119 279T205 301Q249 301 287 281T348 225T371 141Q371 91 339 46T260 -27Q278 -53 333 -70T440 -88Q498 -88 542 -70T612 -18Q636 12 650 63T671 176Q676
238 676 311V1362H395V1505H1149V1362H911V338Q911 240 899 166T857 22Q826 -50 775 -97T643 -172Q559 -201 451 -201Q331 -201 236 -158Z" />
<glyph unicode="K" glyph-name="K" horiz-adv-x="1624" d="M33 143H276V1362H33V1505H723V1362H512V735Q520 738 558 770T612 817Q664 868 1006 1239L1118 1362H889V1505H1599V1362H1370L862 825L1436 143H1612V0H905V143H1128L684 696L512 553V143H723V0H33V143Z" />
<glyph unicode="L" glyph-name="L" horiz-adv-x="1290" d="M33 0V143H276V1362H33V1505H741V1362H512V143H1077V625H1264V0H33Z" />
<glyph unicode="M" glyph-name="M" horiz-adv-x="1937" d="M51 143H270V1362H33V1505H639L995 557L1327 1505H1890V1362H1657V143H1905V0H1212V143H1432V1329L1042 258Q1014 182 969 182Q946 182 925 201T891 252L453 1360V143H705V0H51V143Z" />
<glyph unicode="N" glyph-name="N" horiz-adv-x="1720" d="M33 0V143H274V1362H33V1505H573L1284 266V1362H1040V1505H1704V1362H1475V0H1208L465 1292V143H694V0H33Z" />
<glyph unicode="O" glyph-name="O" horiz-adv-x="1589" d="M659 -27T541 16T338 137Q256 212 198 312T112 525Q84 636 84 754Q84 998 197 1195Q257 1299 340 1373T538 1492Q658 1536 795 1536Q931 1536 1049 1492T1252 1371Q1334 1296 1392 1196T1478 983Q1505
871 1505 754Q1505 510 1392 313Q1332 209 1249 135T1052 18Q934 -27 795 -27Q659 -27 541 16ZM900 113T988 166T1134 313Q1190 403 1219 516T1249 752Q1249 850 1231 943T1174 1116Q1091 1292 955 1360Q882 1396 795 1396Q690 1396 602 1343T456 1196Q400 1105
370 992T340 756Q340 549 416 390Q456 304 509 244T635 149Q709 113 795 113Q900 113 988 166Z" />
<glyph unicode="P" glyph-name="P" horiz-adv-x="1333" d="M33 143H276V1362H33V1505H647Q720 1505 767 1503T884 1493Q958 1484 1012 1469T1127 1423Q1188 1392 1226 1350T1290 1244Q1315 1181 1315 1098Q1315 1019 1293 954T1233 843Q1198 802 1141 770T1021
718Q968 702 890 692T741 679Q677 676 592 676H512V143H762V0H33V143ZM651 805Q1073 805 1073 1090Q1073 1169 1043 1233Q1021 1278 959 1314Q924 1334 834 1350Q783 1359 677 1361Q654 1362 591 1362H512V805H651Z" />
<glyph unicode="Q" glyph-name="Q" horiz-adv-x="1617" d="M1269 -221T1197 -163T1049 14Q932 -27 795 -27Q659 -27 541 16T338 137Q256 212 198 312T112 525Q84 636 84 754Q84 998 197 1195Q257 1299 340 1373T538 1492Q658 1536 795 1536Q931 1536 1049 1492T1252
1371Q1334 1296 1392 1196T1478 983Q1505 871 1505 754Q1505 565 1435 396T1237 121Q1290 42 1328 7T1405 -29H1413Q1453 -25 1484 9T1532 101T1550 229V252H1671V229Q1671 -43 1586 -137Q1544 -184 1492 -202T1358 -221Q1269 -221 1197 -163ZM1182 372T1215 495T1249
752Q1249 850 1231 943T1174 1116Q1091 1292 955 1360Q882 1396 795 1396Q690 1396 602 1343T456 1196Q400 1105 370 992T340 756Q340 634 369 517T451 315Q468 347 490 375T547 433Q584 465 641 483T766 502Q871 502 955 448T1120 289Q1182 372 1215 495ZM889
113T965 152Q897 266 839 320T713 375Q610 375 526 223Q636 113 795 113Q889 113 965 152Z" />
<glyph unicode="R" glyph-name="R" horiz-adv-x="1583" d="M1221 -33T1172 -12T1088 48Q1056 83 1030 144T986 277Q966 359 952 440Q943 497 921 545T874 619Q850 643 823 660T778 682Q762 686 748 686H512V143H739V0H33V143H276V1362H33V1505H608H655Q721 1505
765 1503T878 1495Q961 1487 1014 1473T1134 1429Q1197 1400 1234 1360T1298 1254Q1323 1191 1323 1108Q1323 933 1214 847Q1161 806 1099 781T950 737Q1008 725 1047 704T1113 649Q1138 616 1153 579T1186 481Q1199 432 1223 319Q1229 285 1241 249T1265 193Q1278
171 1298 157T1343 143Q1446 143 1446 332V471H1581V324Q1581 -33 1282 -33Q1221 -33 1172 -12ZM637 836Q798 836 898 859T1054 939Q1112 996 1112 1090Q1112 1171 1083 1224T991 1308Q929 1337 845 1349T629 1362H512V836H637Z" />
<glyph unicode="S" glyph-name="S" horiz-adv-x="1337" d="M558 -27T451 -5T254 60Q163 104 111 176T59 336Q59 390 84 433T150 501T240 526Q283 526 319 503T377 441T399 360Q399 296 362 260T258 215Q331 164 420 139T643 113Q867 113 968 221Q1022 280 1022
362Q1022 455 960 514Q932 540 880 564T765 608Q693 629 614 649Q413 699 293 765T125 915Q78 997 78 1112Q78 1233 151 1330T355 1481T653 1536Q798 1536 942 1490Q1024 1464 1083 1427T1179 1334Q1217 1275 1217 1206Q1217 1116 1172 1061T1047 1006Q1002 1006
964 1023T902 1073T879 1147Q879 1223 918 1263T1016 1303Q898 1396 678 1396Q581 1396 501 1368T369 1284Q317 1228 317 1153Q317 1115 323 1089T351 1035Q372 1005 409 981T512 932Q576 907 668 887Q956 822 1098 732Q1164 690 1205 636T1263 524Q1278 469 1278
397Q1278 265 1208 170T1003 24T676 -27Q558 -27 451 -5Z" />
<glyph unicode="T" glyph-name="T" horiz-adv-x="1435" d="M371 0V143H604V1362H221V897H35V1505H1401V897H1214V1362H840V143H1079V0H371Z" />
<glyph unicode="U" glyph-name="U" horiz-adv-x="1603" d="M651 -27T541 13T364 129Q236 275 236 516V1362H20V1505H692V1362H471V502Q471 113 821 113Q993 113 1082 212T1171 508V1362H944V1505H1583V1362H1374V547Q1374 441 1358 359T1302 205Q1262 129 1198
80T1033 2Q931 -27 799 -27Q651 -27 541 13Z" />
<glyph unicode="V" glyph-name="V" horiz-adv-x="1640" d="M768 -35T736 -3T676 106L225 1362H-4V1505H713V1362H502L866 293L1219 1362H954V1505H1632V1362H1389L958 106Q939 52 922 22T881 -21T821 -35Q768 -35 736 -3Z" />
<glyph unicode="W" glyph-name="W" horiz-adv-x="2238" d="M2210 1505V1362H2028L1679 106Q1659 48 1644 20T1607 -22T1550 -35Q1516 -35 1497 -23T1463 18T1432 106L1167 1012Q1167 1010 1126 864L1105 786L1082 705Q1038 546 978 332L915 106Q894 30 863 -2T778
-35Q727 -35 698 -4T645 106L258 1362H29V1505H725V1362H514L805 307L1094 1362H1294L1585 307L1858 1362H1655V1505H2210Z" />
<glyph unicode="X" glyph-name="X" horiz-adv-x="1699" d="M16 0V143H217L721 759L266 1362H23V1505H770V1362H541L863 935L1208 1362H961V1505H1669V1362H1440L975 785L1464 143H1683V0H969V143H1190L834 609L453 143H664V0H16Z" />
<glyph unicode="Y" glyph-name="Y" horiz-adv-x="1554" d="M416 0V143H659V595L227 1362H23V1505H692V1362H463L801 741L1149 1362H926V1505H1532V1362H1343L895 590V143H1124V0H416Z" />
<glyph unicode="Z" glyph-name="Z" horiz-adv-x="1359" d="M135 0L111 166H113L983 1368H315V946H129V1505H1204L1245 1335L381 143H1092V590H1278V0H135Z" />
<glyph unicode="[" glyph-name="bracketleft" horiz-adv-x="1040" d="M151 -246V1602H896V1464H386V-109H896V-246H151Z" />
<glyph unicode="\" glyph-name="backslash" horiz-adv-x="819" d="M182 -170L63 -133L637 1597L756 1561L182 -170Z" />
<glyph unicode="]" glyph-name="bracketright" horiz-adv-x="1040" d="M145 -246V-109H655V1464H145V1602H890V-246H145Z" />
<glyph unicode="^" glyph-name="asciicircum" horiz-adv-x="1132" d="M127 315L482 1116H678L1004 315H834L572 975L293 315H127Z" />
<glyph unicode="_" glyph-name="underscore" horiz-adv-x="739" d="M-8 -127V10H748V-127H-8Z" />
<glyph unicode="`" glyph-name="grave" horiz-adv-x="1269" d="M893 1213Q856 1226 774 1260T629 1322Q555 1355 488 1392T395 1458L496 1597Q798 1382 971 1233L942 1194L893 1213Z" />
<glyph unicode="a" glyph-name="a" horiz-adv-x="1267" d="M274 -27T211 2T113 88T78 219Q78 278 104 327T177 411Q221 444 277 474T393 526Q513 569 609 625Q655 652 681 690T707 772Q707 884 652 940T494 997Q422 997 359 975T260 913Q322 913 360 880T399 797Q399
756 381 724T330 673T260 655Q198 655 156 698T113 817Q113 858 140 905T216 998Q267 1045 352 1073T537 1102Q620 1102 687 1084T808 1025Q863 984 892 912T922 743V283Q922 240 932 206T969 144Q998 115 1040 115Q1167 115 1167 293V442H1276V313Q1276 214 1255
145T1194 39Q1155 4 1108 -11T997 -27Q928 -27 871 0T773 83Q730 142 723 223Q695 151 639 94T508 5T356 -27Q274 -27 211 2ZM473 117T544 156T661 256Q707 315 707 371V584Q650 527 570 477T423 397Q364 371 328 329T291 229Q291 178 321 148T408 117Q473 117
544 156Z" />
<glyph unicode="b" glyph-name="b" horiz-adv-x="1185" d="M542 -27T447 30T305 199L227 0H135V1382H-72V1505H350V942Q401 1017 479 1059T647 1102Q784 1102 889 1031T1051 831T1108 537Q1108 378 1052 250T892 48Q789 -27 657 -27Q542 -27 447 30ZM695 94T757
156T850 318Q879 416 879 524Q879 701 821 838Q790 908 737 948T616 989Q552 989 498 951T413 848Q382 786 366 718T350 584Q350 447 382 337T474 161Q535 94 616 94Q695 94 757 156Z" />
<glyph unicode="c" glyph-name="c" horiz-adv-x="1118" d="M486 -27T391 11T225 119Q154 189 114 292T74 516Q74 632 109 736T210 923Q277 1007 382 1054T616 1102Q689 1102 762 1081T898 1018Q963 975 1001 906T1040 752Q1040 711 1021 674T966 613T883 590Q817
590 773 629T729 731Q729 794 773 831T883 868Q849 923 788 956T651 989Q566 989 497 952T385 849Q344 786 323 709T301 549Q301 421 341 328T456 185T637 135Q696 135 752 159T850 224Q888 262 914 300T950 371L1063 334Q1037 224 973 143T812 18T592 -27Q486
-27 391 11Z" />
<glyph unicode="d" glyph-name="d" horiz-adv-x="1236" d="M389 -27T289 43T135 241T80 537Q80 706 135 834T294 1032T535 1102Q619 1102 699 1059T829 942V1382H594V1505H1044V112H1225V0H870L831 170Q781 78 696 26T520 -27Q389 -27 289 43ZM643 100T707 158T808
318T844 549Q844 716 780 845Q747 912 693 950T571 989Q504 989 452 950T368 842Q309 709 309 532Q309 285 421 165Q480 100 563 100Q643 100 707 158Z" />
<glyph unicode="e" glyph-name="e" horiz-adv-x="1150" d="M476 -27T375 18T208 144Q143 222 109 320T74 523Q74 614 95 699T159 856Q251 1013 405 1071Q486 1102 584 1102Q686 1102 774 1066T928 962Q995 892 1033 786T1074 551H303V543Q303 369 377 250Q414
190 476 157T617 123Q687 123 752 152T866 238T936 371L1053 334Q1027 224 964 143T807 17T596 -27Q476 -27 375 18ZM854 659Q852 754 817 827T722 942T590 983Q517 983 456 942T357 828T310 659H854Z" />
<glyph unicode="f" glyph-name="f" horiz-adv-x="786" d="M51 112H246V961H51V1073H246Q246 1251 283 1363T404 1529T623 1583Q727 1583 805 1554T924 1475T965 1368Q965 1317 946 1278T892 1217T815 1196Q779 1196 748 1214T699 1262T680 1331Q680 1369 711 1405T791
1454Q770 1474 731 1486T653 1499Q558 1499 507 1436T455 1243V1073H782L774 961H461V112H711V0H51V112Z" />
<glyph unicode="g" glyph-name="g" horiz-adv-x="1198" d="M335 -535T232 -431Q176 -375 176 -295Q176 -221 223 -180T344 -139Q381 -139 412 -157T461 -207T479 -279Q479 -317 453 -356T395 -408Q458 -430 518 -430Q672 -430 750 -312T829 23V201Q807 137 761
85T651 3T516 -27Q433 -27 361 3T238 89Q187 142 152 213T99 366Q82 449 82 532Q82 641 110 741T192 923Q247 1006 333 1054T522 1102Q583 1102 646 1075T759 997T829 881L854 1073H1188V954H1044V51Q1044 -144 974 -285Q935 -363 879 -417T740 -502Q654 -535 551
-535Q335 -535 232 -431ZM645 100T710 160T807 315Q836 408 836 512Q836 647 802 750T706 911T563 969Q484 969 422 910T330 754Q301 659 301 551Q301 373 357 245Q387 177 439 139T559 100Q645 100 710 160Z" />
<glyph unicode="h" glyph-name="h" horiz-adv-x="1355" d="M45 112H229V1382H33V1505H444V883Q481 958 542 1010T669 1083Q729 1102 795 1102Q843 1102 879 1095T961 1067Q1012 1042 1045 1003T1102 894Q1126 821 1126 723V112H1341V0H717V112H911V731Q911 844
869 902T752 961Q702 961 648 933T547 857Q500 807 472 739T444 598V112H639V0H45V112Z" />
<glyph unicode="i" glyph-name="i" horiz-adv-x="665" d="M296 1262T262 1282T208 1336T188 1409Q188 1450 208 1484T262 1539T336 1559Q375 1559 409 1539T464 1484T485 1409Q485 1370 465 1336T410 1282T336 1262Q296 1262 262 1282ZM55 0V112H248V961H53V1073H463V112H659V0H55Z"
/>
<glyph unicode="j" glyph-name="j" horiz-adv-x="665" d="M335 1262T301 1282T247 1336T227 1409Q227 1450 247 1484T301 1539T375 1559Q414 1559 448 1539T503 1484T524 1409Q524 1370 504 1336T449 1282T375 1262Q335 1262 301 1282ZM14 -471T-64 -414T-143
-254Q-143 -211 -123 -179T-70 -130T2 -113Q52 -113 85 -143T119 -223Q119 -325 61 -350Q94 -362 133 -362Q164 -362 189 -352T241 -319Q268 -295 282 -244T297 -121V961H53V1073H512V-90Q512 -210 469 -296T346 -426T160 -471Q14 -471 -64 -414Z" />
<glyph unicode="k" glyph-name="k" horiz-adv-x="1300" d="M1026 -20T949 34T807 199L606 545L440 418V112H610V0H23V112H225V1382H23V1505H440V571L858 961H670V1073H1270V961H1079L733 629Q762 589 812 508Q865 422 901 368T982 259Q1029 200 1078 169T1176
137Q1234 137 1280 158L1309 23Q1263 -3 1225 -11T1130 -20Q1026 -20 949 34Z" />
<glyph unicode="l" glyph-name="l" horiz-adv-x="708" d="M37 0V112H260V1382H37V1505H475V112H690V0H37Z" />
<glyph unicode="m" glyph-name="m" horiz-adv-x="1929" d="M49 112H244V961H49V1073L428 1090L453 872Q473 931 511 977T597 1051Q689 1102 791 1102Q830 1102 857 1099T918 1084Q956 1071 983 1049T1037 987Q1062 947 1079 889Q1126 996 1209 1049T1399 1102Q1433
1102 1459 1099T1518 1086Q1554 1075 1581 1058T1638 1012Q1668 981 1687 942T1719 844Q1731 786 1731 713V112H1915V0H1354V112H1516V711Q1516 838 1466 901T1325 965Q1256 965 1205 935T1127 852T1100 731V112H1272V0H713V112H885V711Q885 838 835 901T694 965Q638
965 595 944T525 886Q501 852 486 802T464 698Q459 641 459 586V112H631V0H49V112Z" />
<glyph unicode="n" glyph-name="n" horiz-adv-x="1359" d="M49 112H244V961H49V1073L428 1090L453 872Q484 944 541 996T668 1075T809 1102Q843 1102 869 1099T928 1086Q964 1075 991 1058T1048 1012Q1078 981 1097 942T1129 844Q1141 786 1141 713V112H1346V0H743V112H926V711Q926
838 876 901T735 965Q679 965 632 944T552 886Q521 850 500 801T469 697Q459 647 459 586V112H641V0H49V112Z" />
<glyph unicode="o" glyph-name="o" horiz-adv-x="1189" d="M441 -27T322 45T139 246T74 537Q74 699 135 826T316 1027Q436 1102 596 1102Q714 1102 813 1059T980 939Q1046 863 1081 760T1116 537Q1116 376 1055 250T876 49Q758 -27 598 -27Q441 -27 322 45ZM686
100T751 152T852 301T887 524Q887 663 857 762T762 922Q695 983 596 983Q499 983 431 923T333 759Q303 659 303 524Q303 397 338 301T441 153T598 100Q686 100 751 152Z" />
<glyph unicode="p" glyph-name="p" horiz-adv-x="1220" d="M-53 -281H182V961H-12V1073L391 1102V901Q445 999 528 1050T717 1102Q841 1102 940 1028T1094 823Q1147 694 1147 539Q1147 373 1091 245T932 45T692 -27Q603 -27 526 15T397 133V-279H618V-401H-53V-281ZM721
86T774 126T858 237Q918 375 918 551Q918 665 888 758T797 913Q735 975 653 975Q574 975 513 919T417 761T383 532Q383 366 445 233Q476 165 530 126T653 86Q721 86 774 126Z" />
<glyph unicode="q" glyph-name="q" horiz-adv-x="1196" d="M614 -275L831 -276V133Q780 58 702 16T535 -27Q398 -27 293 44T131 245T74 539Q74 697 130 825T290 1028Q394 1102 524 1102Q640 1102 735 1045T877 877L954 1073H1047V-276H1253V-399H614V-275ZM630
86T683 124T769 228Q799 290 815 358T831 492Q831 629 799 740T707 917Q646 983 565 983Q486 983 424 921T332 758Q303 660 303 551Q303 373 362 237Q392 167 444 127T565 86Q630 86 683 124Z" />
<glyph unicode="r" glyph-name="r" horiz-adv-x="954" d="M49 112H244V961H49V1073L428 1090L455 856Q480 941 546 1016Q581 1056 632 1079T743 1102Q798 1102 843 1082T914 1022T941 930Q941 880 921 843T865 786T788 766Q729 766 688 803T646 899Q646 918 655
940T676 976L687 987Q628 987 582 951T510 850Q459 726 459 575V112H684V0H49V112Z" />
<glyph unicode="s" glyph-name="s" horiz-adv-x="1040" d="M353 -27T224 34Q157 65 118 119T79 243Q79 285 98 319T148 373T216 392Q275 392 313 360T351 271Q351 238 338 211T301 169T253 153Q292 125 357 107T488 88Q571 88 629 104T729 159Q772 199 772 264Q772
311 743 349T665 409Q556 458 430 491Q365 508 304 534T195 592Q145 625 117 678T88 797Q88 863 116 917T192 1007Q236 1039 293 1062T406 1094Q462 1102 508 1102Q580 1102 653 1086T791 1041Q856 1010 895 962T934 857Q934 814 917 780T869 726T805 707Q746 707
707 742T668 836Q668 862 681 886T709 923L744 947Q645 995 520 995Q451 995 395 975T307 915T275 823Q275 785 304 754T383 705Q499 660 619 628Q683 610 745 581T856 516Q906 480 934 423T963 295Q963 224 937 167T867 73Q826 38 767 15T644 -18Q583 -27 514
-27Q353 -27 224 34Z" />
<glyph unicode="t" glyph-name="t" horiz-adv-x="892" d="M379 -27T287 49Q239 88 212 152T184 295V961H-20V1008Q54 1030 117 1088T220 1219Q257 1285 286 1353Q323 1438 336 1462Q357 1505 373 1505Q385 1505 392 1496T399 1470V1073H793V959H399V289Q399 203
438 158T545 113Q628 113 667 167T707 350V494H827V371Q827 235 796 148T695 17T508 -27Q379 -27 287 49Z" />
<glyph unicode="u" glyph-name="u" horiz-adv-x="1286" d="M881 197Q755 -27 520 -27Q484 -27 452 -22T380 -4Q306 19 245 106Q216 147 200 212T184 360V961H-4V1073H399V362Q399 230 441 171T573 112Q637 112 707 150T826 250Q874 312 874 375V961H692V1073H1090V113L1284
92V0L881 -29V197Z" />
<glyph unicode="v" glyph-name="v" horiz-adv-x="1255" d="M583 -38T547 -3T483 109L170 961H-14V1073H590V961H408L672 158L928 961H758V1073H1270V961H1098L803 115Q774 33 736 -3T641 -39H635Q583 -38 547 -3Z" />
<glyph unicode="w" glyph-name="w" horiz-adv-x="1687" d="M482 -39T453 -7T403 104L176 961H8V1073H569V961H408L575 219L809 958H991L1208 213L1395 961H1227V1073H1688V961H1546L1319 109Q1304 50 1288 19T1249 -26T1188 -39Q1137 -39 1108 -7T1057 102L881
748L674 111Q655 53 637 21T593 -25T530 -39Q482 -39 453 -7Z" />
<glyph unicode="x" glyph-name="x" horiz-adv-x="1280" d="M27 0V112H184L522 526L168 961H4V1073H571V961H422L647 659L874 961H713V1073H1217V961H1053L737 572L1110 112H1276V0H682V112H860L622 440L362 112H543V0H27Z" />
<glyph unicode="y" glyph-name="y" horiz-adv-x="1280" d="M269 -467T199 -439T89 -360T49 -244Q49 -173 95 -129T221 -84Q281 -84 313 -124T346 -229Q346 -264 323 -293T262 -340Q303 -362 328 -362Q418 -362 478 -282T569 -23L172 961H-27V1073H590V961H408L698
176L946 961H780V1073H1294V961H1122L778 -4Q719 -175 657 -276T523 -422T360 -467Q269 -467 199 -439Z" />
<glyph unicode="z" glyph-name="z" horiz-adv-x="1093" d="M127 0L109 158H111L748 961H283V686H119V1073H940L969 924L324 112H846V418H1010V0H127Z" />
<glyph unicode="{" glyph-name="braceleft" horiz-adv-x="862" d="M684 -334T607 -320T475 -275Q418 -242 384 -199T330 -89Q310 -23 303 50T296 236Q296 295 297 332V407Q297 477 289 507T258 547T180 557H65V692H180Q235 692 258 702T289 742T297 842V917Q296
955 296 1014Q296 1126 303 1199T330 1339Q350 1406 384 1448T475 1524Q529 1555 606 1569T794 1583V1497Q652 1497 586 1433Q559 1407 545 1343T526 1204Q522 1147 522 1014Q522 935 521 890T514 803Q508 758 499 732T473 681Q457 659 435 647T376 625Q412 616
434 604T473 569Q490 545 499 519T514 448Q519 405 520 360T522 236Q522 112 525 49Q527 4 530 -23T542 -88Q548 -118 557 -136T585 -180Q599 -199 617 -210T665 -231Q711 -248 794 -248V-334Q684 -334 607 -320Z" />
<glyph unicode="|" glyph-name="bar" horiz-adv-x="487" d="M153 -246V1606H333V-246H153Z" />
<glyph unicode="}" glyph-name="braceright" horiz-adv-x="862" d="M71 -248Q154 -248 200 -231Q230 -221 248 -210T280 -180Q299 -154 308 -136T323 -88Q331 -51 334 -24T340 49Q343 112 343 236Q343 366 362 445T422 566T534 625Q464 641 423 683T362 805T343
1014Q343 1147 340 1209T323 1336Q310 1400 283 1429T200 1479Q151 1497 71 1497V1583Q247 1583 357 1541Q452 1504 507 1407Q551 1329 563 1172Q568 1097 568 1014Q568 894 571 841Q573 801 576 782T588 742Q596 722 604 714T631 696Q645 688 662 686T712 684H800V565H712Q679
565 662 563T631 554Q613 544 605 536T588 509Q580 487 577 468T571 409Q568 356 568 236Q568 124 561 51T535 -89Q516 -155 482 -198T390 -275Q337 -306 259 -320T71 -334V-248Z" />
<glyph unicode="~" glyph-name="asciitilde" horiz-adv-x="1060" d="M45 848T60 910T109 1008Q141 1043 187 1058T303 1073Q361 1073 449 1044T664 964Q754 928 788 928Q832 928 854 941T883 985T891 1071H1016Q1016 976 1001 914T952 816Q919 781 874 767T758
752Q699 752 608 780T395 854Q305 887 272 887Q228 887 207 875T178 835T170 752H45Q45 848 60 910Z" />
<glyph unicode="&#xa0;" glyph-name="uni00A0" horiz-adv-x="480" />
<glyph unicode="&#xa1;" glyph-name="exclamdown" horiz-adv-x="856" d="M588 1311T568 1277T515 1223T441 1203Q402 1203 367 1223T312 1278T291 1352Q291 1391 311 1425T367 1479T441 1499Q481 1499 514 1479T568 1425T588 1352Q588 1311 568 1277ZM314 0L408
1028H480L574 0H314Z" />
<glyph unicode="&#xa2;" glyph-name="cent" horiz-adv-x="1146" d="M559 -28Q420 -20 310 50T137 241T74 516Q74 667 128 792T292 1002Q404 1088 559 1102V1290H647V1103Q718 1099 785 1075T911 1010Q970 967 1005 900T1040 752Q1040 711 1021 674T966 613T883
590Q817 590 773 629T729 731Q729 794 773 831T883 868Q849 923 788 956T651 989H647V135Q705 137 759 162T853 227Q930 306 950 371L1063 334Q1027 180 919 84T647 -27V-213H559V-28ZM559 977Q477 954 416 887T328 731Q301 646 301 549Q301 382 369 276T559 143V977Z"
/>
<glyph unicode="&#xa3;" glyph-name="sterling" horiz-adv-x="1234" d="M106 135Q201 244 257 379T313 659H141L164 780H299Q283 855 248 929Q203 1024 185 1075T166 1182Q166 1286 230 1366T409 1491T674 1536Q794 1536 893 1498T1050 1389T1108 1229Q1108 1149
1061 1098T938 1047Q893 1047 855 1064T793 1114T770 1188Q770 1222 789 1254T838 1309T893 1336Q809 1424 682 1424Q599 1424 536 1394T437 1309T402 1182Q402 1124 421 1071T485 923Q518 853 535 780H848L821 659L549 662Q549 519 491 370T344 117H924V496H1110V0H170L106
135Z" />
<glyph unicode="&#xa4;" glyph-name="currency" horiz-adv-x="1196" d="M430 571T303 670L210 578L151 637L243 729Q143 856 143 1024Q143 1197 245 1323L151 1417L210 1477L307 1380Q425 1477 600 1477Q775 1477 892 1378L991 1477L1050 1417L952 1319Q1052 1195
1052 1020Q1052 856 956 731L1050 637L991 578L897 672Q778 571 602 571Q430 571 303 670ZM694 686T765 727T875 843T915 1020Q915 1180 828 1274Q740 1368 600 1368Q507 1368 436 1325T324 1204T284 1020Q284 918 324 843T436 727T602 686Q694 686 765 727Z" />
<glyph unicode="&#xa5;" glyph-name="yen" horiz-adv-x="1601" d="M416 137H659V397H397V528H659V595L654 603L397 604V735H580L227 1362H23V1505H692V1362H463L801 741L1149 1362H926V1505H1532V1362H1343L979 735H1143V604Q1143 603 950 603H903L895 590V528H1143V397H895V137H1124V0H416V137Z"
/>
<glyph unicode="&#xa6;" glyph-name="brokenbar" horiz-adv-x="487" d="M153 911V1606H333V911H153ZM153 -246V449H333V-246H153Z" />
<glyph unicode="&#xa7;" glyph-name="section" horiz-adv-x="1171" d="M509 -8T440 4T307 42Q239 69 201 121T162 244Q162 286 179 320T227 374T291 393Q353 393 392 362T432 276Q432 225 405 195T326 160Q369 129 436 112T576 94Q686 94 753 135T821 254Q821
292 793 323T714 373Q590 419 477 450Q413 467 352 496T241 561Q191 597 162 654T133 782Q133 932 242 1020Q166 1090 166 1198Q166 1254 185 1300T241 1377Q316 1441 410 1464Q503 1487 586 1487Q743 1487 868 1438Q935 1410 973 1358T1012 1235Q1012 1193 995
1159T947 1105T883 1085Q821 1085 782 1116T742 1202Q742 1254 769 1284T848 1319Q806 1349 739 1366T598 1384Q487 1384 420 1344T352 1225Q352 1183 388 1150T489 1094Q553 1071 623 1052Q799 1001 904 939Q967 901 1004 838T1041 696Q1041 547 932 459Q1008
389 1008 281Q1008 225 989 179T933 103Q859 38 764 15Q671 -8 588 -8Q509 -8 440 4ZM850 587T850 666Q850 761 741 812Q693 834 645 850T505 894Q430 916 381 936Q324 891 324 813Q324 718 433 667Q478 646 521 632T647 593Q655 589 669 586Q735 567 793 543Q850
587 850 666Z" />
<glyph unicode="&#xa8;" glyph-name="dieresis" horiz-adv-x="1056" d="M272 1180T241 1198T191 1248T172 1317Q172 1354 190 1386T240 1437T309 1456Q346 1456 377 1437T427 1386T446 1317Q446 1281 427 1250T377 1199T309 1180Q272 1180 241 1198ZM747 1180T716
1198T666 1248T647 1317Q647 1354 665 1386T715 1437T784 1456Q821 1456 853 1437T904 1386T924 1317Q924 1281 905 1250T853 1199T784 1180Q747 1180 716 1198Z" />
<glyph unicode="&#xa9;" glyph-name="copyright" horiz-adv-x="1703" d="M714 -27T569 35T317 204Q210 311 148 456T86 758Q86 912 147 1056T317 1308Q424 1414 568 1475T869 1536Q1008 1536 1137 1489T1371 1354T1547 1147Q1652 969 1652 758Q1652 602 1591 457T1422
204Q1317 97 1172 36Q1027 -27 869 -27Q714 -27 569 35ZM1009 72T1136 126T1359 274Q1453 368 1507 495T1561 760Q1561 896 1507 1023T1359 1245Q1264 1339 1137 1392T871 1446Q748 1446 635 1405T430 1286T275 1104Q182 947 182 760Q182 623 236 496T385 274Q479
180 606 126T871 72Q1009 72 1136 126ZM782 333T684 393T529 556T472 783Q472 912 527 1014T683 1174T911 1232Q994 1232 1068 1199T1193 1101Q1243 1036 1243 953Q1243 923 1227 895T1181 849T1114 831Q1068 831 1035 861T1001 936Q1001 968 1020 992T1067 1030T1122
1044Q1090 1091 1035 1120T909 1149Q829 1149 768 1105T674 979T640 787Q640 698 672 621T769 492Q836 439 921 439Q986 439 1042 469T1136 548T1190 654L1270 614Q1250 529 1196 466T1066 368T901 333Q782 333 684 393Z" />
<glyph unicode="&#xaa;" glyph-name="ordfeminine" horiz-adv-x="1312" d="M308 535T254 561T169 635T138 748Q138 804 167 850T246 928Q289 955 340 978T468 1032Q539 1061 581 1084T651 1140Q681 1175 681 1219Q681 1314 634 1362T497 1411Q436 1411 381 1392T296
1339Q351 1339 384 1311T417 1239Q417 1186 382 1152T296 1118Q243 1118 206 1155T169 1257Q169 1292 192 1332T258 1411Q301 1450 375 1474T534 1499Q676 1499 767 1433Q814 1399 839 1338T865 1194V801Q865 724 907 682Q931 657 968 657Q1076 657 1076 809V936H1171V827Q1171
743 1153 684T1101 593Q1068 563 1028 550T935 535H931Q870 535 819 560T734 634T695 750Q669 688 621 639T509 563T378 535Q308 535 254 561ZM479 659T540 693T641 779T681 877V1057Q632 1009 563 967T436 898Q386 876 355 840T323 756Q323 711 348 685T423 659Q479
659 540 693Z" />
<glyph unicode="&#xab;" glyph-name="guillemotleft" horiz-adv-x="966" d="M464 258L77 596V731L464 1061V846L224 672L464 485V258ZM882 258L495 596V731L882 1061V846L642 672L882 485V258Z" />
<glyph unicode="&#xac;" glyph-name="logicalnot" horiz-adv-x="1136" d="M814 289V649H150V797H984V289H814Z" />
<glyph unicode="&#xad;" glyph-name="uni00AD" horiz-adv-x="970" d="M153 649V797H816V649H153Z" />
<glyph unicode="&#xae;" glyph-name="registered" horiz-adv-x="1703" d="M714 -27T569 35T316 204Q209 311 148 456T86 758Q86 912 147 1056T316 1308Q423 1414 568 1475T869 1536Q1025 1536 1170 1475T1423 1308Q1530 1201 1591 1057T1652 758Q1652 602 1591
457T1423 204Q1316 97 1171 35T869 -27Q714 -27 569 35ZM1009 72T1137 126T1359 274Q1453 368 1507 495T1561 760Q1561 897 1507 1024T1359 1246Q1265 1340 1137 1393T871 1446Q734 1446 606 1393T384 1246Q290 1152 236 1025T182 760Q182 623 236 496T384 274Q479
180 606 126T871 72Q1009 72 1137 126ZM1090 335T1054 349T994 396Q970 427 956 469T929 580Q921 630 902 675T863 741Q845 760 835 760H731V430H835V351H447V430H574V1128H447V1210H779Q827 1210 859 1209T934 1202Q980 1197 1013 1188T1081 1162Q1116 1144 1138
1120T1176 1060Q1190 1021 1190 977Q1190 885 1122 837Q1089 814 1052 801T963 777Q1012 766 1045 737T1091 668Q1115 593 1122 512Q1124 476 1136 454T1170 432Q1203 432 1218 459T1234 548V620H1339V534Q1339 488 1327 451T1294 391Q1275 371 1248 357T1196 339Q1173
335 1144 335Q1090 335 1054 349ZM783 829Q913 829 972 864T1032 977Q1032 1035 1008 1067T929 1114T779 1128H731V829H783Z" />
<glyph unicode="&#xaf;" glyph-name="overscore" horiz-adv-x="889" d="M153 1341V1479H735V1341H153Z" />
<glyph unicode="&#xb0;" glyph-name="degree" horiz-adv-x="921" d="M366 922T295 959T184 1064T145 1217Q145 1302 183 1368T293 1471T461 1509Q556 1509 627 1472T737 1368T776 1217Q776 1133 738 1066T628 960T461 922Q366 922 295 959ZM507 1018T548 1042T614
1112T639 1217Q639 1312 585 1367Q531 1421 461 1421Q414 1421 373 1396T308 1325T283 1217Q283 1155 306 1110T370 1042T459 1018Q507 1018 548 1042Z" />
<glyph unicode="&#xb1;" glyph-name="plusminus" horiz-adv-x="956" d="M393 326V621H102V768H393V1053H563V768H854V621H563V326H393ZM102 0V147H854V0H102Z" />
<glyph unicode="&#xb2;" glyph-name="uni00B2" horiz-adv-x="924" d="M679 705H169Q157 795 155 795Q173 809 247 858Q323 908 377 948T491 1040Q554 1095 589 1152T624 1262Q624 1311 600 1354T537 1424T452 1450Q354 1450 292 1379Q322 1369 343 1345T364 1287Q364
1236 332 1206T249 1176Q192 1176 160 1210T126 1297V1301Q126 1362 174 1416T303 1503T478 1536Q617 1536 697 1460T777 1250Q777 1190 728 1119T579 975L378 828H773L800 603L749 594L679 705Z" />
<glyph unicode="&#xb3;" glyph-name="uni00B3" horiz-adv-x="814" d="M251 682T190 716T128 809Q128 849 150 873T214 897Q252 897 276 875T300 819Q300 784 284 762Q319 756 345 756Q406 756 454 781T529 849T556 944Q556 971 553 991T539 1031Q528 1053 511
1067T465 1091Q437 1100 397 1100Q370 1100 335 1094L321 1170Q418 1185 468 1227T519 1333Q519 1393 477 1431T370 1469Q291 1469 225 1409Q261 1402 283 1381T306 1323Q306 1285 278 1259T210 1233Q164 1233 138 1263T112 1337Q112 1387 149 1433T249 1507T384
1536Q464 1536 521 1510T608 1440T638 1342Q638 1276 588 1226T452 1159Q532 1159 589 1132T675 1057T704 948Q704 872 659 812T531 717T343 682Q251 682 190 716Z" />
<glyph unicode="&#xb4;" glyph-name="acute" horiz-adv-x="1269" d="M395 1233Q471 1298 588 1388T792 1540L870 1597L971 1458Q930 1416 798 1351T538 1238L424 1194L395 1233Z" />
<glyph unicode="&#xb6;" glyph-name="paragraph" horiz-adv-x="1210" d="M627 735H565Q465 735 383 766T250 851Q200 904 174 969T147 1106Q147 1177 173 1242T250 1362Q301 1417 380 1448T555 1479H1106V-57H942V735H797V-57H627V735Z" />
<glyph unicode="&#xb7;" glyph-name="middot" horiz-adv-x="669" d="M294 776T260 796T206 850T186 924Q186 965 206 999T260 1053T334 1073Q373 1073 407 1053T462 998T483 924Q483 885 463 851T408 797T334 776Q294 776 260 796Z" />
<glyph unicode="&#xb8;" glyph-name="cedilla" horiz-adv-x="337" d="M8 -373Q69 -362 110 -345Q154 -327 154 -307Q154 -286 107 -239Q59 -193 59 -168Q59 -129 87 -90T164 -26T268 0H307V-276Q307 -310 280 -341T212 -391Q174 -408 135 -420T65 -439L37 -444L8 -373Z" />
<glyph unicode="&#xb9;" glyph-name="uni00B9" horiz-adv-x="680" d="M143 725V811H276V1386L143 1351V1458L422 1536V811H547V725H143Z" />
<glyph unicode="&#xba;" glyph-name="ordmasculine" horiz-adv-x="1177" d="M456 572T355 633T198 804T143 1053Q143 1192 195 1300T350 1472Q451 1536 589 1536Q723 1536 823 1474T978 1303T1033 1053Q1033 916 981 809T829 637Q726 572 591 572Q456 572 355
633ZM666 680T722 725T807 853T837 1043Q837 1161 812 1245T731 1381Q673 1434 589 1434Q507 1434 449 1383T365 1243Q339 1156 339 1043Q339 934 369 852T457 725T591 680Q666 680 722 725Z" />
<glyph unicode="&#xbb;" glyph-name="guillemotright" horiz-adv-x="966" d="M84 258V485L324 672L84 846V1061L471 731V596L84 258ZM502 258V485L742 672L502 846V1061L889 731V596L502 258Z" />
<glyph unicode="&#xbc;" glyph-name="onequarter" horiz-adv-x="1526" d="M69 750V836H202V1411L69 1376V1483L348 1561V836H473V750H69ZM253 -61L153 -2L1218 1479L1318 1419L253 -61ZM1056 0V86H1202V268H853V360L1169 805H1327V352H1458V268H1327V86H1458V0H1056ZM966
352H1202V696L966 352Z" />
<glyph unicode="&#xbd;" glyph-name="onehalf" horiz-adv-x="1668" d="M70 750V836H203V1411L70 1376V1483L349 1561V836H474V750H70ZM254 -61L154 -2L1219 1479L1319 1419L254 -61ZM1481 0H971Q959 90 957 90Q975 104 1049 153Q1125 203 1179 243T1293 335Q1356
390 1391 447T1426 557Q1426 606 1402 649T1339 719T1254 745Q1156 745 1094 674Q1124 664 1145 640T1166 582Q1166 531 1134 501T1051 471Q994 471 962 505T928 592V596Q928 657 976 711T1105 798T1280 831Q1419 831 1499 755T1579 545Q1579 485 1530 414T1381
270L1180 123H1575L1602 -102L1551 -111L1481 0Z" />
<glyph unicode="&#xbe;" glyph-name="threequarters" horiz-adv-x="1576" d="M206 729T145 763T83 856Q83 896 105 920T169 944Q207 944 231 922T255 866Q255 831 239 809Q274 803 300 803Q363 803 410 828T484 898T511 995Q511 1147 352 1147Q325 1147 290 1141L276
1217Q373 1232 423 1274T474 1380Q474 1440 432 1478T325 1516Q246 1516 180 1456Q216 1449 238 1428T261 1370Q261 1332 233 1306T165 1280Q119 1280 93 1310T67 1384Q67 1434 104 1480T204 1554T339 1583Q419 1583 476 1557T563 1487T593 1389Q593 1323 543 1273T407
1206Q487 1206 544 1179T630 1104T659 995Q659 919 614 859T486 764T298 729Q206 729 145 763ZM302 -61L202 -2L1267 1479L1367 1419L302 -61ZM1105 0V86H1251V268H902V360L1218 805H1376V352H1507V268H1376V86H1507V0H1105ZM1015 352H1251V696L1015 352Z" />
<glyph unicode="&#xbf;" glyph-name="questiondown" horiz-adv-x="1009" d="M593 1529T627 1509T681 1455T701 1382Q701 1341 681 1307T627 1253T553 1233Q514 1233 480 1253T425 1308T404 1382Q404 1421 424 1455T479 1509T553 1529Q593 1529 627 1509ZM582 1103Q582
1004 555 914T482 755Q445 698 398 631Q297 487 297 356Q297 288 317 233T375 144Q447 77 543 77Q613 77 671 112T756 208Q717 208 680 224Q658 233 643 247T618 285Q607 309 607 337Q607 402 647 443T752 485Q802 485 842 463T904 404T926 327Q926 219 865 137T700
13Q601 -27 480 -27Q377 -27 281 25Q221 57 180 102T111 219Q82 294 82 386Q82 480 117 565T213 718Q256 768 328 840Q481 987 516 1103H582Z" />
<glyph unicode="&#xc0;" glyph-name="Agrave" horiz-adv-x="1662" d="M8 0V143H188L715 1505H952L1487 143H1655V0H1008V143H1231L1092 504H514L383 143H635V0H8ZM561 631H1042L795 1309L561 631ZM1043 1657Q1006 1670 924 1704T779 1766Q705 1799 638 1836T545
1902L646 2041Q948 1826 1121 1677L1092 1638L1043 1657Z" />
<glyph unicode="&#xc1;" glyph-name="Aacute" horiz-adv-x="1662" d="M8 0V143H188L715 1505H952L1487 143H1655V0H1008V143H1231L1092 504H514L383 143H635V0H8ZM561 631H1042L795 1309L561 631ZM545 1677Q621 1742 738 1832T942 1984L1020 2041L1121 1902Q1080
1860 948 1795T688 1682L574 1638L545 1677Z" />
<glyph unicode="&#xc2;" glyph-name="Acircumflex" horiz-adv-x="1662" d="M906 1842T830 1911Q798 1883 744 1820T642 1693L603 1642L504 1734L830 2085L1158 1728L1059 1638Q906 1842 830 1911ZM8 0V143H188L715 1505H952L1487 143H1655V0H1008V143H1231L1092
504H514L383 143H635V0H8ZM561 631H1042L795 1309L561 631Z" />
<glyph unicode="&#xc3;" glyph-name="Atilde" horiz-adv-x="1662" d="M595 1638T559 1662T506 1738T489 1881H577Q577 1830 596 1810T665 1789Q705 1789 828 1836Q951 1883 1007 1883Q1069 1883 1105 1859T1158 1783T1175 1640H1087Q1087 1691 1068 1711T999 1732Q959
1732 836 1685Q713 1638 657 1638Q595 1638 559 1662ZM8 0V143H188L715 1505H952L1487 143H1655V0H1008V143H1231L1092 504H514L383 143H635V0H8ZM561 631H1042L795 1309L561 631Z" />
<glyph unicode="&#xc4;" glyph-name="Adieresis" horiz-adv-x="1662" d="M556 1638T525 1656T475 1706T456 1775Q456 1812 474 1844T524 1895T593 1914Q630 1914 661 1895T711 1844T730 1775Q730 1739 711 1708T661 1657T593 1638Q556 1638 525 1656ZM1031 1638T1000
1656T950 1706T931 1775Q931 1812 949 1844T999 1895T1068 1914Q1105 1914 1137 1895T1188 1844T1208 1775Q1208 1739 1189 1708T1137 1657T1068 1638Q1031 1638 1000 1656ZM8 0V143H188L715 1505H952L1487 143H1655V0H1008V143H1231L1092 504H514L383 143H635V0H8ZM561
631H1042L795 1309L561 631Z" />
<glyph unicode="&#xc5;" glyph-name="Aring" horiz-adv-x="1662" d="M773 1524T727 1547T657 1612T632 1707Q632 1759 656 1800T726 1865T833 1889Q892 1889 937 1866T1007 1801T1032 1707Q1032 1655 1008 1613T938 1548T833 1524Q773 1524 727 1547ZM878 1582T911
1616T944 1707Q944 1766 911 1800Q878 1834 833 1834Q786 1834 753 1799T720 1707Q720 1650 752 1616T831 1582Q878 1582 911 1616ZM8 0V143H188L715 1505H952L1487 143H1655V0H1008V143H1231L1092 504H514L383 143H635V0H8ZM561 631H1042L795 1309L561 631Z" />
<glyph unicode="&#xc6;" glyph-name="AE" horiz-adv-x="2164" d="M0 0V137H180L874 1335H608V1479H2073V899H1892V1335H1276V813H1567V1038H1700V424H1567V698H1276V137H1892V571H2073V0H874V137H1059V504H598L401 137H618V0H0ZM668 631H1059V1335L668 631Z" />
<glyph unicode="&#xc7;" glyph-name="Ccedilla" horiz-adv-x="1447" d="M1379 233T1226 108T832 -26V-288Q832 -322 805 -353T737 -403Q699 -420 660 -432T590 -451L562 -456L533 -385Q594 -374 635 -357Q679 -339 679 -319Q679 -298 632 -251Q584 -205 584 -180Q584
-134 623 -89T723 -23Q592 -10 478 51T280 209Q187 318 136 463T84 768Q84 932 136 1074T285 1319Q382 1422 519 1479T817 1536Q956 1536 1081 1478T1288 1313Q1370 1206 1370 1073Q1370 1027 1346 985T1276 917T1174 891Q1097 891 1051 936T1004 1057Q1004 1106
1031 1142T1099 1198T1182 1217Q1131 1296 1034 1346T815 1396Q680 1396 574 1318T408 1097T348 764Q348 654 383 548T481 353Q546 263 644 211T858 158Q944 158 1021 190T1154 278Q1207 331 1243 393T1296 522L1430 457Q1379 233 1226 108Z" />
<glyph unicode="&#xc8;" glyph-name="Egrave" horiz-adv-x="1484" d="M33 0V143H279V1362H33V1505H1393V926H1212V1362H514V821H887V1067H1020V446H887V707H514V143H1212V571H1393V0H33ZM923 1657Q886 1670 804 1704T659 1766Q585 1799 518 1836T425 1902L526
2041Q828 1826 1001 1677L972 1638L923 1657Z" />
<glyph unicode="&#xc9;" glyph-name="Eacute" horiz-adv-x="1484" d="M33 0V143H279V1362H33V1505H1393V926H1212V1362H514V821H887V1067H1020V446H887V707H514V143H1212V571H1393V0H33ZM425 1677Q501 1742 618 1832T822 1984L900 2041L1001 1902Q960 1860 828
1795T568 1682L454 1638L425 1677Z" />
<glyph unicode="&#xca;" glyph-name="Ecircumflex" horiz-adv-x="1484" d="M788 1842T712 1911Q680 1883 626 1820T524 1693L485 1642L386 1734L712 2085L1040 1728L941 1638Q788 1842 712 1911ZM33 0V143H279V1362H33V1505H1393V926H1212V1362H514V821H887V1067H1020V446H887V707H514V143H1212V571H1393V0H33Z"
/>
<glyph unicode="&#xcb;" glyph-name="Edieresis" horiz-adv-x="1484" d="M503 1638T472 1656T422 1706T403 1775Q403 1812 421 1844T471 1895T540 1914Q577 1914 608 1895T658 1844T677 1775Q677 1739 658 1708T608 1657T540 1638Q503 1638 472 1656ZM978 1638T947
1656T897 1706T878 1775Q878 1812 896 1844T946 1895T1015 1914Q1052 1914 1084 1895T1135 1844T1155 1775Q1155 1739 1136 1708T1084 1657T1015 1638Q978 1638 947 1656ZM33 0V143H279V1362H33V1505H1393V926H1212V1362H514V821H887V1067H1020V446H887V707H514V143H1212V571H1393V0H33Z"
/>
<glyph unicode="&#xcc;" glyph-name="Igrave" horiz-adv-x="769" d="M30 0V143H274V1362H30V1505H739V1362H509V143H739V0H30ZM594 1657Q557 1670 475 1704T330 1766Q256 1799 189 1836T96 1902L197 2041Q499 1826 672 1677L643 1638L594 1657Z" />
<glyph unicode="&#xcd;" glyph-name="Iacute" horiz-adv-x="769" d="M30 0V143H274V1362H30V1505H739V1362H509V143H739V0H30ZM96 1677Q172 1742 289 1832T493 1984L571 2041L672 1902Q631 1860 499 1795T239 1682L125 1638L96 1677Z" />
<glyph unicode="&#xce;" glyph-name="Icircumflex" horiz-adv-x="769" d="M459 1842T383 1911Q351 1883 297 1820T195 1693L156 1642L57 1734L383 2085L711 1728L612 1638Q459 1842 383 1911ZM30 0V143H274V1362H30V1505H739V1362H509V143H739V0H30Z" />
<glyph unicode="&#xcf;" glyph-name="Idieresis" horiz-adv-x="769" d="M109 1638T78 1656T28 1706T9 1775Q9 1812 27 1844T77 1895T146 1914Q183 1914 214 1895T264 1844T283 1775Q283 1739 264 1708T214 1657T146 1638Q109 1638 78 1656ZM584 1638T553 1656T503
1706T484 1775Q484 1812 502 1844T552 1895T621 1914Q658 1914 690 1895T741 1844T761 1775Q761 1739 742 1708T690 1657T621 1638Q584 1638 553 1656ZM30 0V143H274V1362H30V1505H739V1362H509V143H739V0H30Z" />
<glyph unicode="&#xd0;" glyph-name="Eth" horiz-adv-x="1613" d="M33 137H276V690H55V834H276V1362H33V1505H485Q655 1505 792 1484T1056 1412Q1192 1358 1283 1275T1429 1064Q1485 931 1485 762Q1485 604 1440 476T1310 259Q1227 172 1107 113T840 27Q695 0
522 0H33V137ZM643 137T744 155T936 217Q1031 262 1093 332T1192 510Q1229 618 1229 762Q1229 866 1209 953T1153 1103Q1118 1163 1065 1209T951 1285Q893 1312 819 1329T669 1354Q597 1360 512 1360V834H764V690H512V137Q643 137 744 155Z" />
<glyph unicode="&#xd1;" glyph-name="Ntilde" horiz-adv-x="1720" d="M631 1638T595 1662T542 1738T525 1881H613Q613 1830 632 1810T701 1789Q741 1789 864 1836Q987 1883 1043 1883Q1105 1883 1141 1859T1194 1783T1211 1640H1123Q1123 1691 1104 1711T1035
1732Q995 1732 872 1685Q749 1638 693 1638Q631 1638 595 1662ZM33 0V143H274V1362H33V1505H573L1284 266V1362H1040V1505H1704V1362H1475V0H1208L465 1292V143H694V0H33Z" />
<glyph unicode="&#xd2;" glyph-name="Ograve" horiz-adv-x="1589" d="M659 -27T541 16T338 137Q256 212 198 312T112 525Q84 636 84 754Q84 998 197 1195Q257 1299 340 1373T538 1492Q658 1536 795 1536Q931 1536 1049 1492T1252 1371Q1334 1296 1392 1196T1478
983Q1505 871 1505 754Q1505 510 1392 313Q1332 209 1249 135T1052 18Q934 -27 795 -27Q659 -27 541 16ZM900 113T988 166T1134 313Q1190 403 1219 516T1249 752Q1249 850 1231 943T1174 1116Q1091 1292 955 1360Q882 1396 795 1396Q690 1396 602 1343T456 1196Q400
1105 370 992T340 756Q340 549 416 390Q456 304 509 244T635 149Q709 113 795 113Q900 113 988 166ZM1005 1657Q968 1670 886 1704T741 1766Q667 1799 600 1836T507 1902L608 2041Q910 1826 1083 1677L1054 1638L1005 1657Z" />
<glyph unicode="&#xd3;" glyph-name="Oacute" horiz-adv-x="1589" d="M659 -27T541 16T338 137Q256 212 198 312T112 525Q84 636 84 754Q84 998 197 1195Q257 1299 340 1373T538 1492Q658 1536 795 1536Q931 1536 1049 1492T1252 1371Q1334 1296 1392 1196T1478
983Q1505 871 1505 754Q1505 510 1392 313Q1332 209 1249 135T1052 18Q934 -27 795 -27Q659 -27 541 16ZM900 113T988 166T1134 313Q1190 403 1219 516T1249 752Q1249 850 1231 943T1174 1116Q1091 1292 955 1360Q882 1396 795 1396Q690 1396 602 1343T456 1196Q400
1105 370 992T340 756Q340 549 416 390Q456 304 509 244T635 149Q709 113 795 113Q900 113 988 166ZM507 1677Q583 1742 700 1832T904 1984L982 2041L1083 1902Q1042 1860 910 1795T650 1682L536 1638L507 1677Z" />
<glyph unicode="&#xd4;" glyph-name="Ocircumflex" horiz-adv-x="1589" d="M870 1842T794 1911Q762 1883 708 1820T606 1693L567 1642L468 1734L794 2085L1122 1728L1023 1638Q870 1842 794 1911ZM659 -27T541 16T338 137Q256 212 198 312T112 525Q84 636 84 754Q84
998 197 1195Q257 1299 340 1373T538 1492Q658 1536 795 1536Q931 1536 1049 1492T1252 1371Q1334 1296 1392 1196T1478 983Q1505 871 1505 754Q1505 510 1392 313Q1332 209 1249 135T1052 18Q934 -27 795 -27Q659 -27 541 16ZM900 113T988 166T1134 313Q1190 403
1219 516T1249 752Q1249 850 1231 943T1174 1116Q1091 1292 955 1360Q882 1396 795 1396Q690 1396 602 1343T456 1196Q400 1105 370 992T340 756Q340 549 416 390Q456 304 509 244T635 149Q709 113 795 113Q900 113 988 166Z" />
<glyph unicode="&#xd5;" glyph-name="Otilde" horiz-adv-x="1589" d="M557 1638T521 1662T468 1738T451 1881H539Q539 1830 558 1810T627 1789Q667 1789 790 1836Q913 1883 969 1883Q1031 1883 1067 1859T1120 1783T1137 1640H1049Q1049 1691 1030 1711T961 1732Q921
1732 798 1685Q675 1638 619 1638Q557 1638 521 1662ZM659 -27T541 16T338 137Q256 212 198 312T112 525Q84 636 84 754Q84 998 197 1195Q257 1299 340 1373T538 1492Q658 1536 795 1536Q931 1536 1049 1492T1252 1371Q1334 1296 1392 1196T1478 983Q1505 871 1505
754Q1505 510 1392 313Q1332 209 1249 135T1052 18Q934 -27 795 -27Q659 -27 541 16ZM900 113T988 166T1134 313Q1190 403 1219 516T1249 752Q1249 850 1231 943T1174 1116Q1091 1292 955 1360Q882 1396 795 1396Q690 1396 602 1343T456 1196Q400 1105 370 992T340
756Q340 549 416 390Q456 304 509 244T635 149Q709 113 795 113Q900 113 988 166Z" />
<glyph unicode="&#xd6;" glyph-name="Odieresis" horiz-adv-x="1589" d="M518 1638T487 1656T437 1706T418 1775Q418 1812 436 1844T486 1895T555 1914Q592 1914 623 1895T673 1844T692 1775Q692 1739 673 1708T623 1657T555 1638Q518 1638 487 1656ZM993 1638T962
1656T912 1706T893 1775Q893 1812 911 1844T961 1895T1030 1914Q1067 1914 1099 1895T1150 1844T1170 1775Q1170 1739 1151 1708T1099 1657T1030 1638Q993 1638 962 1656ZM659 -27T541 16T338 137Q256 212 198 312T112 525Q84 636 84 754Q84 998 197 1195Q257 1299
340 1373T538 1492Q658 1536 795 1536Q931 1536 1049 1492T1252 1371Q1334 1296 1392 1196T1478 983Q1505 871 1505 754Q1505 510 1392 313Q1332 209 1249 135T1052 18Q934 -27 795 -27Q659 -27 541 16ZM900 113T988 166T1134 313Q1190 403 1219 516T1249 752Q1249
850 1231 943T1174 1116Q1091 1292 955 1360Q882 1396 795 1396Q690 1396 602 1343T456 1196Q400 1105 370 992T340 756Q340 549 416 390Q456 304 509 244T635 149Q709 113 795 113Q900 113 988 166Z" />
<glyph unicode="&#xd7;" glyph-name="multiply" horiz-adv-x="956" d="M739 197L475 462L211 199L109 299L373 564L109 829L209 932L476 666L739 930L842 829L577 565L842 301L739 197Z" />
<glyph unicode="&#xd8;" glyph-name="Oslash" horiz-adv-x="1589" d="M100 -37L289 186Q190 295 137 444T84 754Q84 998 197 1195Q257 1299 340 1373T538 1492Q658 1536 795 1536Q1084 1536 1274 1349L1432 1536L1497 1483L1331 1286Q1416 1179 1460 1041T1505
754Q1505 510 1392 313Q1332 209 1249 135T1052 18Q934 -27 795 -27Q531 -27 350 127L166 -90L100 -37ZM1137 1188Q1008 1399 795 1399Q690 1399 602 1345T456 1198Q400 1107 370 993T340 756Q340 528 432 355L1137 1188ZM900 113T988 166T1134 313Q1190 403 1219
516T1249 752Q1249 945 1179 1107L479 280Q604 113 795 113Q900 113 988 166Z" />
<glyph unicode="&#xd9;" glyph-name="Ugrave" horiz-adv-x="1603" d="M651 -27T541 13T364 129Q236 275 236 516V1362H20V1505H692V1362H471V502Q471 113 821 113Q993 113 1082 212T1171 508V1362H944V1505H1583V1362H1374V547Q1374 441 1358 359T1302 205Q1262
129 1198 80T1033 2Q931 -27 799 -27Q651 -27 541 13ZM1011 1657Q974 1670 892 1704T747 1766Q673 1799 606 1836T513 1902L614 2041Q916 1826 1089 1677L1060 1638L1011 1657Z" />
<glyph unicode="&#xda;" glyph-name="Uacute" horiz-adv-x="1603" d="M651 -27T541 13T364 129Q236 275 236 516V1362H20V1505H692V1362H471V502Q471 113 821 113Q993 113 1082 212T1171 508V1362H944V1505H1583V1362H1374V547Q1374 441 1358 359T1302 205Q1262
129 1198 80T1033 2Q931 -27 799 -27Q651 -27 541 13ZM513 1677Q589 1742 706 1832T910 1984L988 2041L1089 1902Q1048 1860 916 1795T656 1682L542 1638L513 1677Z" />
<glyph unicode="&#xdb;" glyph-name="Ucircumflex" horiz-adv-x="1603" d="M876 1842T800 1911Q768 1883 714 1820T612 1693L573 1642L474 1734L800 2085L1128 1728L1029 1638Q876 1842 800 1911ZM651 -27T541 13T364 129Q236 275 236 516V1362H20V1505H692V1362H471V502Q471
113 821 113Q993 113 1082 212T1171 508V1362H944V1505H1583V1362H1374V547Q1374 441 1358 359T1302 205Q1262 129 1198 80T1033 2Q931 -27 799 -27Q651 -27 541 13Z" />
<glyph unicode="&#xdc;" glyph-name="Udieresis" horiz-adv-x="1603" d="M526 1638T495 1656T445 1706T426 1775Q426 1812 444 1844T494 1895T563 1914Q600 1914 631 1895T681 1844T700 1775Q700 1739 681 1708T631 1657T563 1638Q526 1638 495 1656ZM1001 1638T970
1656T920 1706T901 1775Q901 1812 919 1844T969 1895T1038 1914Q1075 1914 1107 1895T1158 1844T1178 1775Q1178 1739 1159 1708T1107 1657T1038 1638Q1001 1638 970 1656ZM651 -27T541 13T364 129Q236 275 236 516V1362H20V1505H692V1362H471V502Q471 113 821
113Q993 113 1082 212T1171 508V1362H944V1505H1583V1362H1374V547Q1374 441 1358 359T1302 205Q1262 129 1198 80T1033 2Q931 -27 799 -27Q651 -27 541 13Z" />
<glyph unicode="&#xdd;" glyph-name="Yacute" horiz-adv-x="1554" d="M416 0V143H659V595L227 1362H23V1505H692V1362H463L801 741L1149 1362H926V1505H1532V1362H1343L895 590V143H1124V0H416ZM489 1677Q565 1742 682 1832T886 1984L964 2041L1065 1902Q1024
1860 892 1795T632 1682L518 1638L489 1677Z" />
<glyph unicode="&#xde;" glyph-name="Thorn" horiz-adv-x="1382" d="M70 137H313V1335H70V1479H778V1335H549V1169H684Q731 1169 770 1168T865 1164Q924 1160 964 1154T1061 1133Q1114 1119 1151 1101T1232 1050Q1271 1021 1295 983T1336 890Q1352 839 1352 774Q1352
697 1330 633T1270 524Q1239 486 1180 457T1059 410Q1012 396 927 388T779 378Q742 377 629 377H549V137H799V0H70V137ZM688 506Q766 506 819 511T928 531Q987 547 1024 575T1086 651Q1110 699 1110 766Q1110 818 1098 860T1065 930Q1045 956 1012 975T941 1005Q907
1014 858 1019T762 1025Q733 1026 658 1026H549V506H688Z" />
<glyph unicode="&#xdf;" glyph-name="germandbls" horiz-adv-x="1314" d="M68 119H215V981Q215 1229 333 1359T672 1489Q861 1489 968 1398T1075 1130Q1075 1067 1050 1009T985 911Q952 879 920 854T846 799Q819 780 819 770Q819 757 851 740Q886 722 929 705Q978
685 1032 653T1132 584Q1181 544 1211 482T1241 350Q1241 286 1217 231T1151 138Q1114 104 1055 77T934 35Q880 22 809 14T678 2Q606 0 561 0V119Q801 119 915 175Q1026 231 1026 348Q1026 400 1005 444T947 519Q894 563 784 618Q732 643 701 662T649 707Q627 733
627 766Q627 803 646 839T696 902L823 1012Q854 1040 872 1075T891 1149Q891 1245 834 1299T680 1354Q556 1354 493 1258T430 981V0H68V119Z" />
<glyph unicode="&#xe0;" glyph-name="agrave" horiz-adv-x="1267" d="M274 -27T211 2T113 88T78 219Q78 278 104 327T177 411Q221 444 277 474T393 526Q513 569 609 625Q655 652 681 690T707 772Q707 884 652 940T494 997Q422 997 359 975T260 913Q322 913 360
880T399 797Q399 756 381 724T330 673T260 655Q198 655 156 698T113 817Q113 858 140 905T216 998Q267 1045 352 1073T537 1102Q620 1102 687 1084T808 1025Q863 984 892 912T922 743V283Q922 240 932 206T969 144Q998 115 1040 115Q1167 115 1167 293V442H1276V313Q1276
214 1255 145T1194 39Q1155 4 1108 -11T997 -27Q928 -27 871 0T773 83Q730 142 723 223Q695 151 639 94T508 5T356 -27Q274 -27 211 2ZM473 117T544 156T661 256Q707 315 707 371V584Q650 527 570 477T423 397Q364 371 328 329T291 229Q291 178 321 148T408 117Q473
117 544 156ZM747 1223Q710 1236 628 1270T483 1332Q409 1365 342 1402T249 1468L350 1607Q652 1392 825 1243L796 1204L747 1223Z" />
<glyph unicode="&#xe1;" glyph-name="aacute" horiz-adv-x="1267" d="M274 -27T211 2T113 88T78 219Q78 278 104 327T177 411Q221 444 277 474T393 526Q513 569 609 625Q655 652 681 690T707 772Q707 884 652 940T494 997Q422 997 359 975T260 913Q322 913 360
880T399 797Q399 756 381 724T330 673T260 655Q198 655 156 698T113 817Q113 858 140 905T216 998Q267 1045 352 1073T537 1102Q620 1102 687 1084T808 1025Q863 984 892 912T922 743V283Q922 240 932 206T969 144Q998 115 1040 115Q1167 115 1167 293V442H1276V313Q1276
214 1255 145T1194 39Q1155 4 1108 -11T997 -27Q928 -27 871 0T773 83Q730 142 723 223Q695 151 639 94T508 5T356 -27Q274 -27 211 2ZM473 117T544 156T661 256Q707 315 707 371V584Q650 527 570 477T423 397Q364 371 328 329T291 229Q291 178 321 148T408 117Q473
117 544 156ZM249 1243Q325 1308 442 1398T646 1550L724 1607L825 1468Q784 1426 652 1361T392 1248L278 1204L249 1243Z" />
<glyph unicode="&#xe2;" glyph-name="acircumflex" horiz-adv-x="1267" d="M274 -27T211 2T113 88T78 219Q78 278 104 327T177 411Q221 444 277 474T393 526Q513 569 609 625Q655 652 681 690T707 772Q707 884 652 940T494 997Q422 997 359 975T260 913Q322 913
360 880T399 797Q399 756 381 724T330 673T260 655Q198 655 156 698T113 817Q113 858 140 905T216 998Q267 1045 352 1073T537 1102Q620 1102 687 1084T808 1025Q863 984 892 912T922 743V283Q922 240 932 206T969 144Q998 115 1040 115Q1167 115 1167 293V442H1276V313Q1276
214 1255 145T1194 39Q1155 4 1108 -11T997 -27Q928 -27 871 0T773 83Q730 142 723 223Q695 151 639 94T508 5T356 -27Q274 -27 211 2ZM473 117T544 156T661 256Q707 315 707 371V584Q650 527 570 477T423 397Q364 371 328 329T291 229Q291 178 321 148T408 117Q473
117 544 156ZM612 1408T536 1477Q504 1449 450 1386T348 1259L309 1208L210 1300L536 1651L864 1294L765 1204Q612 1408 536 1477Z" />
<glyph unicode="&#xe3;" glyph-name="atilde" horiz-adv-x="1267" d="M274 -27T211 2T113 88T78 219Q78 278 104 327T177 411Q221 444 277 474T393 526Q513 569 609 625Q655 652 681 690T707 772Q707 884 652 940T494 997Q422 997 359 975T260 913Q322 913 360
880T399 797Q399 756 381 724T330 673T260 655Q198 655 156 698T113 817Q113 858 140 905T216 998Q267 1045 352 1073T537 1102Q620 1102 687 1084T808 1025Q863 984 892 912T922 743V283Q922 240 932 206T969 144Q998 115 1040 115Q1167 115 1167 293V442H1276V313Q1276
214 1255 145T1194 39Q1155 4 1108 -11T997 -27Q928 -27 871 0T773 83Q730 142 723 223Q695 151 639 94T508 5T356 -27Q274 -27 211 2ZM473 117T544 156T661 256Q707 315 707 371V584Q650 527 570 477T423 397Q364 371 328 329T291 229Q291 178 321 148T408 117Q473
117 544 156ZM556 1460T520 1484T467 1560T450 1703H538Q538 1652 557 1632T626 1611Q666 1611 789 1658Q912 1705 968 1705Q1030 1705 1066 1681T1119 1605T1136 1462H1048Q1048 1513 1029 1533T960 1554Q920 1554 797 1507Q674 1460 618 1460Q556 1460 520 1484Z"
/>
<glyph unicode="&#xe4;" glyph-name="adieresis" horiz-adv-x="1267" d="M274 -27T211 2T113 88T78 219Q78 278 104 327T177 411Q221 444 277 474T393 526Q513 569 609 625Q655 652 681 690T707 772Q707 884 652 940T494 997Q422 997 359 975T260 913Q322 913
360 880T399 797Q399 756 381 724T330 673T260 655Q198 655 156 698T113 817Q113 858 140 905T216 998Q267 1045 352 1073T537 1102Q620 1102 687 1084T808 1025Q863 984 892 912T922 743V283Q922 240 932 206T969 144Q998 115 1040 115Q1167 115 1167 293V442H1276V313Q1276
214 1255 145T1194 39Q1155 4 1108 -11T997 -27Q928 -27 871 0T773 83Q730 142 723 223Q695 151 639 94T508 5T356 -27Q274 -27 211 2ZM473 117T544 156T661 256Q707 315 707 371V584Q650 527 570 477T423 397Q364 371 328 329T291 229Q291 178 321 148T408 117Q473
117 544 156ZM517 1204T486 1222T436 1272T417 1341Q417 1378 435 1410T485 1461T554 1480Q591 1480 622 1461T672 1410T691 1341Q691 1305 672 1274T622 1223T554 1204Q517 1204 486 1222ZM992 1204T961 1222T911 1272T892 1341Q892 1378 910 1410T960 1461T1029
1480Q1066 1480 1098 1461T1149 1410T1169 1341Q1169 1305 1150 1274T1098 1223T1029 1204Q992 1204 961 1222Z" />
<glyph unicode="&#xe5;" glyph-name="aring" horiz-adv-x="1267" d="M274 -27T211 2T113 88T78 219Q78 278 104 327T177 411Q221 444 277 474T393 526Q513 569 609 625Q655 652 681 690T707 772Q707 884 652 940T494 997Q422 997 359 975T260 913Q322 913 360
880T399 797Q399 756 381 724T330 673T260 655Q198 655 156 698T113 817Q113 858 140 905T216 998Q267 1045 352 1073T537 1102Q620 1102 687 1084T808 1025Q863 984 892 912T922 743V283Q922 240 932 206T969 144Q998 115 1040 115Q1167 115 1167 293V442H1276V313Q1276
214 1255 145T1194 39Q1155 4 1108 -11T997 -27Q928 -27 871 0T773 83Q730 142 723 223Q695 151 639 94T508 5T356 -27Q274 -27 211 2ZM473 117T544 156T661 256Q707 315 707 371V584Q650 527 570 477T423 397Q364 371 328 329T291 229Q291 178 321 148T408 117Q473
117 544 156ZM734 1460T688 1483T618 1548T593 1643Q593 1695 617 1736T687 1801T794 1825Q853 1825 898 1802T968 1737T993 1643Q993 1591 969 1549T899 1484T794 1460Q734 1460 688 1483ZM839 1518T872 1552T905 1643Q905 1702 872 1736Q839 1770 794 1770Q747
1770 714 1735T681 1643Q681 1586 713 1552T792 1518Q839 1518 872 1552Z" />
<glyph unicode="&#xe6;" glyph-name="ae" horiz-adv-x="1728" d="M287 -29T222 1T119 88T82 219Q82 301 126 366Q145 394 176 420T241 468Q271 486 315 505T399 537Q485 565 572 585L733 623V772Q733 881 669 939T498 997Q428 997 367 975T270 913Q312 913 345
898T396 856T414 797Q414 757 393 725T338 674T264 655Q200 655 159 702T117 834Q117 907 171 968T318 1066T516 1102Q801 1102 891 913Q954 1012 1039 1058T1245 1104Q1323 1104 1390 1073T1501 989Q1542 940 1571 878T1612 755Q1624 697 1624 643L963 547Q963
458 1002 350Q1025 284 1057 236T1137 157Q1187 123 1251 123Q1320 123 1381 152T1489 237T1556 371L1673 334Q1647 223 1586 141T1435 15T1234 -29Q1142 -29 1057 13T912 123T827 266Q763 132 642 52T369 -29Q287 -29 222 1ZM1440 729Q1440 797 1415 856T1343
950T1239 985Q1166 985 1106 943T1009 825T963 651L1440 729ZM465 117T529 146T637 223Q677 266 702 310T737 389L733 508Q494 453 383 392Q273 330 273 245Q273 189 306 153T395 117Q465 117 529 146Z" />
<glyph unicode="&#xe7;" glyph-name="ccedilla" horiz-adv-x="1118" d="M1027 179T917 84T643 -25V-290Q643 -324 616 -355T548 -405Q510 -422 471 -434T401 -453L373 -458L344 -387Q405 -376 446 -359Q490 -341 490 -321Q490 -300 443 -253Q395 -207 395 -182Q395
-136 435 -90T537 -24Q447 -15 367 22T225 119Q154 189 114 292T74 516Q74 632 109 736T210 923Q277 1007 382 1054T616 1102Q689 1102 762 1081T898 1018Q963 975 1001 906T1040 752Q1040 711 1021 674T966 613T883 590Q817 590 773 629T729 731Q729 794 773 831T883
868Q849 923 788 956T651 989Q566 989 497 952T385 849Q344 786 323 709T301 549Q301 421 341 328T456 185T637 135Q696 135 752 159T850 224Q888 262 914 300T950 371L1063 334Q1027 179 917 84Z" />
<glyph unicode="&#xe8;" glyph-name="egrave" horiz-adv-x="1150" d="M476 -27T375 18T208 144Q143 222 109 320T74 523Q74 614 95 699T159 856Q251 1013 405 1071Q486 1102 584 1102Q686 1102 774 1066T928 962Q995 892 1033 786T1074 551H303V543Q303 369 377
250Q414 190 476 157T617 123Q687 123 752 152T866 238T936 371L1053 334Q1027 224 964 143T807 17T596 -27Q476 -27 375 18ZM854 659Q852 754 817 827T722 942T590 983Q517 983 456 942T357 828T310 659H854ZM1050 1225Q1013 1238 931 1272T786 1334Q712 1367
645 1404T552 1470L653 1609Q955 1394 1128 1245L1099 1206L1050 1225Z" />
<glyph unicode="&#xe9;" glyph-name="eacute" horiz-adv-x="1150" d="M476 -27T375 18T208 144Q143 222 109 320T74 523Q74 614 95 699T159 856Q251 1013 405 1071Q486 1102 584 1102Q686 1102 774 1066T928 962Q995 892 1033 786T1074 551H303V543Q303 369 377
250Q414 190 476 157T617 123Q687 123 752 152T866 238T936 371L1053 334Q1027 224 964 143T807 17T596 -27Q476 -27 375 18ZM854 659Q852 754 817 827T722 942T590 983Q517 983 456 942T357 828T310 659H854ZM552 1245Q628 1310 745 1400T949 1552L1027 1609L1128
1470Q1087 1428 955 1363T695 1250L581 1206L552 1245Z" />
<glyph unicode="&#xea;" glyph-name="ecircumflex" horiz-adv-x="1150" d="M649 1410T573 1479Q541 1451 487 1388T385 1261L346 1210L247 1302L573 1653L901 1296L802 1206Q649 1410 573 1479ZM476 -27T375 18T208 144Q143 222 109 320T74 523Q74 614 95 699T159
856Q251 1013 405 1071Q486 1102 584 1102Q686 1102 774 1066T928 962Q995 892 1033 786T1074 551H303V543Q303 369 377 250Q414 190 476 157T617 123Q687 123 752 152T866 238T936 371L1053 334Q1027 224 964 143T807 17T596 -27Q476 -27 375 18ZM854 659Q852
754 817 827T722 942T590 983Q517 983 456 942T357 828T310 659H854Z" />
<glyph unicode="&#xeb;" glyph-name="edieresis" horiz-adv-x="1150" d="M298 1206T267 1224T217 1274T198 1343Q198 1380 216 1412T266 1463T335 1482Q372 1482 403 1463T453 1412T472 1343Q472 1307 453 1276T403 1225T335 1206Q298 1206 267 1224ZM773 1206T742
1224T692 1274T673 1343Q673 1380 691 1412T741 1463T810 1482Q847 1482 879 1463T930 1412T950 1343Q950 1307 931 1276T879 1225T810 1206Q773 1206 742 1224ZM476 -27T375 18T208 144Q143 222 109 320T74 523Q74 614 95 699T159 856Q251 1013 405 1071Q486 1102
584 1102Q686 1102 774 1066T928 962Q995 892 1033 786T1074 551H303V543Q303 369 377 250Q414 190 476 157T617 123Q687 123 752 152T866 238T936 371L1053 334Q1027 224 964 143T807 17T596 -27Q476 -27 375 18ZM854 659Q852 754 817 827T722 942T590 983Q517
983 456 942T357 828T310 659H854Z" />
<glyph unicode="&#xec;" glyph-name="igrave" horiz-adv-x="671" d="M53 0V117H246V961H51V1073H461V117H657V0H53ZM466 1223Q429 1236 347 1270T202 1332Q128 1365 61 1402T-32 1468L69 1607Q371 1392 544 1243L515 1204L466 1223Z" />
<glyph unicode="&#xed;" glyph-name="iacute" horiz-adv-x="671" d="M85 1243Q161 1308 278 1398T482 1550L560 1607L661 1468Q620 1426 488 1361T228 1248L114 1204L85 1243ZM53 0V117H246V961H51V1073H461V117H657V0H53Z" />
<glyph unicode="&#xee;" glyph-name="icircumflex" horiz-adv-x="671" d="M429 1408T353 1477Q321 1449 267 1386T165 1259L126 1208L27 1300L353 1651L681 1294L582 1204Q429 1408 353 1477ZM53 0V117H246V961H51V1073H461V117H657V0H53Z" />
<glyph unicode="&#xef;" glyph-name="idieresis" horiz-adv-x="671" d="M78 1204T47 1222T-3 1272T-22 1341Q-22 1378 -4 1410T46 1461T115 1480Q152 1480 183 1461T233 1410T252 1341Q252 1305 233 1274T183 1223T115 1204Q78 1204 47 1222ZM553 1204T522 1222T472
1272T453 1341Q453 1378 471 1410T521 1461T590 1480Q627 1480 659 1461T710 1410T730 1341Q730 1305 711 1274T659 1223T590 1204Q553 1204 522 1222ZM53 0V117H246V961H51V1073H461V117H657V0H53Z" />
<glyph unicode="&#xf0;" glyph-name="eth" horiz-adv-x="1245" d="M520 -20T434 10T289 93Q234 143 196 211T140 354Q123 428 123 502Q123 601 154 691T244 856Q304 931 399 973T612 1016Q711 1016 773 983Q803 966 821 954T863 921L891 897Q887 922 881 949Q871
991 834 1073T754 1211L547 1114L512 1198L689 1281Q558 1397 377 1397Q341 1397 266 1386L246 1495Q356 1520 451 1520Q698 1520 870 1367L1126 1487L1161 1403L937 1297Q1035 1180 1086 1013T1137 647Q1137 503 1112 388T1039 196Q994 122 929 72T787 1Q712 -20
623 -20Q520 -20 434 10ZM777 104T845 225T913 598Q913 734 837 806T623 879Q547 879 485 826T388 684T352 489Q352 376 380 293T470 158Q535 104 629 104Q777 104 845 225Z" />
<glyph unicode="&#xf1;" glyph-name="ntilde" horiz-adv-x="1359" d="M461 1460T425 1484T372 1560T355 1703H443Q443 1652 462 1632T531 1611Q571 1611 694 1658Q817 1705 873 1705Q935 1705 971 1681T1024 1605T1041 1462H953Q953 1513 934 1533T865 1554Q825
1554 702 1507Q579 1460 523 1460Q461 1460 425 1484ZM49 112H244V961H49V1073L428 1090L453 872Q484 944 541 996T668 1075T809 1102Q843 1102 869 1099T928 1086Q964 1075 991 1058T1048 1012Q1078 981 1097 942T1129 844Q1141 786 1141 713V112H1346V0H743V112H926V711Q926
838 876 901T735 965Q679 965 632 944T552 886Q521 850 500 801T469 697Q459 647 459 586V112H641V0H49V112Z" />
<glyph unicode="&#xf2;" glyph-name="ograve" horiz-adv-x="1189" d="M441 -27T322 45T139 246T74 537Q74 699 135 826T316 1027Q436 1102 596 1102Q714 1102 813 1059T980 939Q1046 863 1081 760T1116 537Q1116 376 1055 250T876 49Q758 -27 598 -27Q441 -27
322 45ZM686 100T751 152T852 301T887 524Q887 663 857 762T762 922Q695 983 596 983Q499 983 431 923T333 759Q303 659 303 524Q303 397 338 301T441 153T598 100Q686 100 751 152ZM1062 1223Q1025 1236 943 1270T798 1332Q724 1365 657 1402T564 1468L665 1607Q967
1392 1140 1243L1111 1204L1062 1223Z" />
<glyph unicode="&#xf3;" glyph-name="oacute" horiz-adv-x="1189" d="M441 -27T322 45T139 246T74 537Q74 699 135 826T316 1027Q436 1102 596 1102Q714 1102 813 1059T980 939Q1046 863 1081 760T1116 537Q1116 376 1055 250T876 49Q758 -27 598 -27Q441 -27
322 45ZM686 100T751 152T852 301T887 524Q887 663 857 762T762 922Q695 983 596 983Q499 983 431 923T333 759Q303 659 303 524Q303 397 338 301T441 153T598 100Q686 100 751 152ZM564 1243Q640 1308 757 1398T961 1550L1039 1607L1140 1468Q1099 1426 967 1361T707
1248L593 1204L564 1243Z" />
<glyph unicode="&#xf4;" glyph-name="ocircumflex" horiz-adv-x="1189" d="M670 1408T594 1477Q562 1449 508 1386T406 1259L367 1208L268 1300L594 1651L922 1294L823 1204Q670 1408 594 1477ZM441 -27T322 45T139 246T74 537Q74 699 135 826T316 1027Q436 1102
596 1102Q714 1102 813 1059T980 939Q1046 863 1081 760T1116 537Q1116 376 1055 250T876 49Q758 -27 598 -27Q441 -27 322 45ZM686 100T751 152T852 301T887 524Q887 663 857 762T762 922Q695 983 596 983Q499 983 431 923T333 759Q303 659 303 524Q303 397 338
301T441 153T598 100Q686 100 751 152Z" />
<glyph unicode="&#xf5;" glyph-name="otilde" horiz-adv-x="1189" d="M614 1460T578 1484T525 1560T508 1703H596Q596 1652 615 1632T684 1611Q724 1611 847 1658Q970 1705 1026 1705Q1088 1705 1124 1681T1177 1605T1194 1462H1106Q1106 1513 1087 1533T1018
1554Q978 1554 855 1507Q732 1460 676 1460Q614 1460 578 1484ZM441 -27T322 45T139 246T74 537Q74 699 135 826T316 1027Q436 1102 596 1102Q714 1102 813 1059T980 939Q1046 863 1081 760T1116 537Q1116 376 1055 250T876 49Q758 -27 598 -27Q441 -27 322 45ZM686
100T751 152T852 301T887 524Q887 663 857 762T762 922Q695 983 596 983Q499 983 431 923T333 759Q303 659 303 524Q303 397 338 301T441 153T598 100Q686 100 751 152Z" />
<glyph unicode="&#xf6;" glyph-name="odieresis" horiz-adv-x="1189" d="M319 1204T288 1222T238 1272T219 1341Q219 1378 237 1410T287 1461T356 1480Q393 1480 424 1461T474 1410T493 1341Q493 1305 474 1274T424 1223T356 1204Q319 1204 288 1222ZM794 1204T763
1222T713 1272T694 1341Q694 1378 712 1410T762 1461T831 1480Q868 1480 900 1461T951 1410T971 1341Q971 1305 952 1274T900 1223T831 1204Q794 1204 763 1222ZM441 -27T322 45T139 246T74 537Q74 699 135 826T316 1027Q436 1102 596 1102Q714 1102 813 1059T980
939Q1046 863 1081 760T1116 537Q1116 376 1055 250T876 49Q758 -27 598 -27Q441 -27 322 45ZM686 100T751 152T852 301T887 524Q887 663 857 762T762 922Q695 983 596 983Q499 983 431 923T333 759Q303 659 303 524Q303 397 338 301T441 153T598 100Q686 100 751
152Z" />
<glyph unicode="&#xf7;" glyph-name="divide" horiz-adv-x="913" d="M432 813T402 830T355 877T338 942Q338 977 355 1007T402 1055T467 1073Q502 1073 532 1056T580 1008T598 942Q598 908 580 879T532 831T467 813Q432 813 402 830ZM125 528V684H788V528H125ZM432
139T402 156T355 203T338 268Q338 303 355 333T402 381T467 399Q502 399 532 382T580 334T598 268Q598 234 580 205T532 157T467 139Q432 139 402 156Z" />
<glyph unicode="&#xf8;" glyph-name="oslash" horiz-adv-x="1189" d="M47 -57L212 136Q74 294 74 537Q74 699 135 826T316 1027Q436 1102 596 1102Q798 1102 935 983L1112 1190L1178 1137L994 921Q1116 766 1116 537Q1116 376 1055 250T876 49Q758 -27 598 -27Q409
-27 274 78L113 -111L47 -57ZM820 848Q744 983 596 983Q499 983 431 923T333 759Q303 659 303 524Q303 389 343 290L820 848ZM686 100T751 152T852 301T887 524Q887 663 857 760L387 210Q467 100 598 100Q686 100 751 152Z" />
<glyph unicode="&#xf9;" glyph-name="ugrave" horiz-adv-x="1286" d="M881 197Q755 -27 520 -27Q484 -27 452 -22T380 -4Q306 19 245 106Q216 147 200 212T184 360V961H-4V1073H399V362Q399 230 441 171T573 112Q637 112 707 150T826 250Q874 312 874 375V961H692V1073H1090V113L1284
92V0L881 -29V197ZM753 1223Q716 1236 634 1270T489 1332Q415 1365 348 1402T255 1468L356 1607Q658 1392 831 1243L802 1204L753 1223Z" />
<glyph unicode="&#xfa;" glyph-name="uacute" horiz-adv-x="1286" d="M881 197Q755 -27 520 -27Q484 -27 452 -22T380 -4Q306 19 245 106Q216 147 200 212T184 360V961H-4V1073H399V362Q399 230 441 171T573 112Q637 112 707 150T826 250Q874 312 874 375V961H692V1073H1090V113L1284
92V0L881 -29V197ZM255 1243Q331 1308 448 1398T652 1550L730 1607L831 1468Q790 1426 658 1361T398 1248L284 1204L255 1243Z" />
<glyph unicode="&#xfb;" glyph-name="ucircumflex" horiz-adv-x="1286" d="M715 1408T639 1477Q607 1449 553 1386T451 1259L412 1208L313 1300L639 1651L967 1294L868 1204Q715 1408 639 1477ZM881 197Q755 -27 520 -27Q484 -27 452 -22T380 -4Q306 19 245 106Q216
147 200 212T184 360V961H-4V1073H399V362Q399 230 441 171T573 112Q637 112 707 150T826 250Q874 312 874 375V961H692V1073H1090V113L1284 92V0L881 -29V197Z" />
<glyph unicode="&#xfc;" glyph-name="udieresis" horiz-adv-x="1286" d="M364 1204T333 1222T283 1272T264 1341Q264 1378 282 1410T332 1461T401 1480Q438 1480 469 1461T519 1410T538 1341Q538 1305 519 1274T469 1223T401 1204Q364 1204 333 1222ZM839 1204T808
1222T758 1272T739 1341Q739 1378 757 1410T807 1461T876 1480Q913 1480 945 1461T996 1410T1016 1341Q1016 1305 997 1274T945 1223T876 1204Q839 1204 808 1222ZM881 197Q755 -27 520 -27Q484 -27 452 -22T380 -4Q306 19 245 106Q216 147 200 212T184 360V961H-4V1073H399V362Q399
230 441 171T573 112Q637 112 707 150T826 250Q874 312 874 375V961H692V1073H1090V113L1284 92V0L881 -29V197Z" />
<glyph unicode="&#xfd;" glyph-name="yacute" horiz-adv-x="1280" d="M269 -467T199 -439T89 -360T49 -244Q49 -173 95 -129T221 -84Q281 -84 313 -124T346 -229Q346 -264 323 -293T262 -340Q303 -362 328 -362Q418 -362 478 -282T569 -23L172 961H-27V1073H590V961H408L698
176L946 961H780V1073H1294V961H1122L778 -4Q719 -175 657 -276T523 -422T360 -467Q269 -467 199 -439ZM601 1243Q677 1308 794 1398T998 1550L1076 1607L1177 1468Q1136 1426 1004 1361T744 1248L630 1204L601 1243Z" />
<glyph unicode="&#xfe;" glyph-name="thorn" horiz-adv-x="1275" d="M-14 -281H221V1423H27V1536H430V901Q484 999 567 1050T756 1102Q880 1102 979 1028T1133 823Q1186 694 1186 539Q1186 373 1130 245T971 45T731 -27Q642 -27 565 15T436 133V-279H657V-401H-14V-281ZM760
86T813 126T897 237Q956 373 956 551Q956 664 926 758T836 913Q774 975 692 975Q613 975 552 919T456 761T422 532Q422 366 484 233Q515 165 569 126T692 86Q760 86 813 126Z" />
<glyph unicode="&#xff;" glyph-name="ydieresis" horiz-adv-x="1280" d="M358 1204T327 1222T277 1272T258 1341Q258 1378 276 1410T326 1461T395 1480Q432 1480 463 1461T513 1410T532 1341Q532 1305 513 1274T463 1223T395 1204Q358 1204 327 1222ZM833 1204T802
1222T752 1272T733 1341Q733 1378 751 1410T801 1461T870 1480Q907 1480 939 1461T990 1410T1010 1341Q1010 1305 991 1274T939 1223T870 1204Q833 1204 802 1222ZM269 -467T199 -439T89 -360T49 -244Q49 -173 95 -129T221 -84Q281 -84 313 -124T346 -229Q346 -264
323 -293T262 -340Q303 -362 328 -362Q418 -362 478 -282T569 -23L172 961H-27V1073H590V961H408L698 176L946 961H780V1073H1294V961H1122L778 -4Q719 -175 657 -276T523 -422T360 -467Q269 -467 199 -439Z" />
<glyph unicode="&#x2018;" glyph-name="quoteleft" horiz-adv-x="593" d="M271 1044T231 1068T167 1137T142 1243Q142 1286 153 1320T191 1393Q217 1429 239 1453T320 1536L365 1462Q318 1433 282 1391T246 1313Q246 1296 255 1284Q290 1309 332 1309Q363 1309
391 1291T437 1243T455 1182Q455 1147 435 1115T383 1064T316 1044Q271 1044 231 1068Z" />
<glyph unicode="&#x2019;" glyph-name="quoteright" horiz-adv-x="594" d="M230 1118Q277 1147 312 1190T348 1268Q348 1285 340 1296Q305 1272 262 1272Q231 1272 203 1290T157 1338T139 1399Q139 1434 159 1465T212 1516T279 1536Q324 1536 364 1512T428 1443T453
1337Q453 1293 443 1259T404 1187Q376 1149 354 1125T275 1044L230 1118Z" />
<glyph unicode="&#x201a;" glyph-name="quotesinglbase" horiz-adv-x="455" d="M211 -397T191 -313T157 -121T143 35Q143 71 166 93T229 115Q313 115 313 35Q313 -12 299 -119T266 -312T229 -397Q211 -397 191 -313Z" />
<glyph unicode="&#x201c;" glyph-name="quotedblleft" horiz-adv-x="952" d="M271 1044T231 1068T167 1137T142 1243Q142 1304 172 1362Q182 1383 208 1416T258 1473L321 1536L366 1462Q319 1433 283 1391T247 1313Q247 1295 255 1284Q290 1309 333 1309Q364 1309
392 1291T438 1243T456 1182Q456 1147 436 1115T383 1064T316 1044Q271 1044 231 1068ZM630 1044T590 1068T526 1137T501 1243Q501 1286 512 1320T550 1393Q576 1429 599 1453T679 1536L724 1462Q677 1433 641 1391T605 1313Q605 1295 613 1284Q648 1309 691 1309Q722
1309 750 1291T796 1243T814 1182Q814 1147 794 1115T742 1064T675 1044Q630 1044 590 1068Z" />
<glyph unicode="&#x201d;" glyph-name="quotedblright" horiz-adv-x="954" d="M229 1118Q276 1147 312 1190T348 1268Q348 1285 340 1296Q305 1272 262 1272Q231 1272 203 1290T157 1338T139 1399Q139 1434 159 1465T211 1516T278 1536Q323 1536 363 1512T428
1443T453 1337Q453 1292 443 1258T404 1187Q375 1149 355 1127T274 1044L229 1118ZM590 1118Q637 1147 673 1190T709 1268Q709 1284 700 1296Q666 1272 623 1272Q592 1272 564 1290T518 1338T500 1399Q500 1434 520 1465T572 1516T639 1536Q684 1536 724 1512T788
1443T813 1337Q813 1293 803 1259T764 1187Q736 1149 714 1125T635 1044L590 1118Z" />
<glyph unicode="&#x201e;" glyph-name="quotedblbase" horiz-adv-x="695" d="M211 -397T191 -313T157 -121T143 35Q143 71 166 93T229 115Q313 115 313 35Q313 -12 299 -119T266 -312T229 -397Q211 -397 191 -313ZM451 -397T431 -314T397 -123T383 35Q383 71 406
93T469 115Q553 115 553 35Q553 -12 539 -119T506 -312T469 -397Q451 -397 431 -314Z" />
<glyph unicode="&#x2022;" glyph-name="bullet" horiz-adv-x="920" d="M367 463T295 505T184 619T144 778Q144 865 183 936T294 1050T460 1092Q553 1092 624 1050T735 936T775 778Q775 692 736 620T625 506T460 463Q367 463 295 505Z" />
<glyph unicode="&#x2039;" glyph-name="guilsinglleft" horiz-adv-x="549" d="M78 596V731L465 1061V846L225 672L465 485V258L78 596Z" />
<glyph unicode="&#x203a;" glyph-name="guilsinglright" horiz-adv-x="548" d="M84 258V485L324 672L84 846V1061L471 731V596L84 258Z" />
</font>
</defs>
</svg>
