<?xml version="1.0" standalone="no"?>
<!DOCTYPE svg PUBLIC "-//W3C//DTD SVG 1.1//EN" "http://www.w3.org/Graphics/SVG/1.1/DTD/svg11.dtd">
<svg xmlns="http://www.w3.org/2000/svg">
<defs >
<font id="Karma" horiz-adv-x="564" ><font-face
    font-family="Karma"
    units-per-em="1000"
    panose-1="2 0 0 0 0 0 0 0 0 0"
    ascent="982"
    descent="-646"
    alphabetic="0" />
<glyph unicode=" " glyph-name="space" horiz-adv-x="268" />
<glyph unicode="!" glyph-name="exclam" horiz-adv-x="238" d="M152 -15T119 -15T63 8T40 64T63 120T119 143T175 120T198 64T175 8ZM78 219L59 699Q116 720 191 706L160 219Q121 208 78 219Z" />
<glyph unicode="&quot;" glyph-name="quotedbl" horiz-adv-x="367" d="M77 474L54 689Q108 708 174 696L144 474Q112 465 77 474ZM224 474L201 689Q255 708 321 696L291 474Q259 465 224 474Z" />
<glyph unicode="#" glyph-name="numbersign" horiz-adv-x="699" d="M483 271H584Q614 242 617 191H467L430 17H338L375 191H240L203 17H111L148 191H73Q43 220 40 271H164L199 434H115Q85 463 82 514H215L249 674H341L307 514H442L476 674H568L534 514H626Q656
485 659 434H518L483 271ZM391 271L426 434H291L256 271H391Z" />
<glyph unicode="$" glyph-name="dollar" horiz-adv-x="502" d="M433 517Q433 482 410 462T350 447Q350 504 326 531T256 559T186 538T162 489T169 446T199 416Q229 396 307 361T421 291T457 182T408 55T276 -12L286 -115Q271 -123 240 -123T196 -115L205 -14Q139
-8 92 20T45 100Q45 136 68 157T139 179Q139 114 165 87T250 59Q357 59 357 137Q357 187 324 216T247 264T190 289T152 308T116 332T90 360Q64 391 64 441Q64 513 103 558T206 620L196 728Q209 736 240 736T286 728L277 629Q337 629 385 603T433 517Z" />
<glyph unicode="%" glyph-name="percent" horiz-adv-x="809" d="M624 343Q764 343 764 167Q764 76 727 31T622 -15T516 29T479 163T516 298T624 343ZM622 285Q562 285 562 164T621 43Q678 43 678 164T622 285ZM190 631Q330 631 330 455Q330 364 293 319T188 273T82
317T45 451T82 586T190 631ZM188 573Q128 573 128 452T187 331Q244 331 244 452T188 573ZM638 630L282 0H177L533 630H638Z" />
<glyph unicode="&amp;" glyph-name="ampersand" horiz-adv-x="744" d="M645 83Q665 83 687 91T717 111Q731 99 731 68T706 10T631 -17Q556 -17 458 49Q374 -18 261 -18T92 30T35 156Q35 275 158 342Q85 439 85 508T135 626T268 675T395 637T441 531T400 416T296
346L302 339Q383 242 470 171Q496 211 512 266L446 271Q440 335 488 335H660V326Q660 273 622 270L589 268Q567 187 529 128Q599 83 645 83ZM335 574T316 594T269 615T219 592T197 532Q197 477 261 391Q335 436 335 530Q335 574 316 594ZM395 97Q314 163 200 291Q150
243 150 185T186 96T284 66T395 97Z" />
<glyph unicode="&apos;" glyph-name="quotesingle" horiz-adv-x="220" d="M73 474L50 689Q104 708 170 696L140 474Q108 465 73 474Z" />
<glyph unicode="(" glyph-name="parenleft" horiz-adv-x="308" d="M225 619T194 502T163 276T195 54T278 -134L235 -179Q152 -105 101 22T50 279T101 538T235 740L276 699Q225 619 194 502Z" />
<glyph unicode=")" glyph-name="parenright" horiz-adv-x="308" d="M258 409T258 279T207 22T73 -179L30 -134Q81 -61 113 53T145 276T114 501T32 699L73 740Q156 667 207 538Z" />
<glyph unicode="*" glyph-name="asterisk" horiz-adv-x="472" d="M262 572L400 647Q412 631 422 594T432 533L272 525L391 421Q379 402 347 380T293 352L236 493L180 354Q158 359 126 381T83 422L200 525L40 533Q40 559 49 596T72 648L211 571L176 728Q196 736
234 735T293 727L262 572Z" />
<glyph unicode="+" glyph-name="plus" horiz-adv-x="508" d="M458 307V227H297V63H214V227H50V307H214V471H297V307H458Z" />
<glyph unicode="," glyph-name="comma" horiz-adv-x="256" d="M50 98T71 119T127 141T184 119T206 51T167 -54T84 -132Q78 -136 66 -126T54 -108Q98 -77 117 -14Q86 -10 68 11T50 65Z" />
<glyph unicode="-" glyph-name="hyphen" horiz-adv-x="405" d="M40 312H365V222H40V312Z" />
<glyph unicode="." glyph-name="period" horiz-adv-x="258" d="M162 -15T129 -15T73 8T50 64T73 120T129 143T185 120T208 64T185 8Z" />
<glyph unicode="/" glyph-name="slash" horiz-adv-x="375" d="M119 -90H20L256 697H355L119 -90Z" />
<glyph unicode="0" glyph-name="zero" horiz-adv-x="540" d="M276 550Q151 550 151 297Q151 171 182 118T275 64T363 120T389 303T362 489T276 550ZM274 630Q505 638 505 309Q505 151 446 68T272 -15T96 68T35 303T96 540T274 630Z" />
<glyph unicode="1" glyph-name="one" horiz-adv-x="408" d="M332 0H51V8Q51 50 74 64Q83 69 95 69L156 71V495L97 477Q70 468 50 491T30 530L186 618Q207 630 236 630Q276 630 276 578V73L377 67Q380 61 376 39Q367 0 332 0Z" />
<glyph unicode="2" glyph-name="two" horiz-adv-x="520" d="M51 545T110 587T259 630T403 581T456 454Q456 408 435 359T385 271T316 192Q255 133 191 86H415L421 142Q424 169 444 178T487 181V1H51Q35 48 38 64Q42 67 70 92T108 126T146 160T186 199T221 238T256
281T285 323T310 368Q329 420 329 460T308 526T238 553T169 514T149 405Q111 402 81 420T51 483Q51 545 110 587Z" />
<glyph unicode="3" glyph-name="three" horiz-adv-x="471" d="M295 489Q295 558 230 558Q186 558 166 530T143 462Q62 462 62 525Q62 571 108 600T235 630T366 593T417 489Q417 378 284 335Q360 327 405 285T451 178Q451 98 384 42T205 -15Q124 -15 80 15T35 92Q35
122 54 142T110 163Q110 118 137 91T213 63T293 90T324 168Q323 232 270 255T137 272L136 359Q203 359 254 399Q295 432 295 489Z" />
<glyph unicode="4" glyph-name="four" horiz-adv-x="498" d="M483 197V117H394V0L274 -10V117H44Q21 147 15 185L305 621Q354 633 394 629V197H483ZM274 197V447L110 197H274Z" />
<glyph unicode="5" glyph-name="five" horiz-adv-x="472" d="M243 387Q330 387 388 342T447 201T378 45T205 -15Q132 -15 86 14T40 91Q40 120 58 137T104 155Q119 59 207 59Q260 59 293 93T326 182T293 262T216 288T108 270L94 277L108 620H408L398 525H178L172
380Q210 387 243 387Z" />
<glyph unicode="6" glyph-name="six" horiz-adv-x="490" d="M163 336Q226 372 296 372T417 326T467 191T408 44T248 -15Q35 -15 35 271Q35 443 107 536T304 630Q367 630 402 607T437 555T420 505T362 488Q362 559 292 559Q175 559 163 336ZM259 59Q346 59 346
175T244 292Q199 292 161 269Q162 151 186 105T259 59Z" />
<glyph unicode="7" glyph-name="seven" horiz-adv-x="421" d="M30 620H398Q411 595 411 559L165 -17L48 23L305 517H100L95 475Q93 456 66 448T30 447V620Z" />
<glyph unicode="8" glyph-name="eight" horiz-adv-x="478" d="M448 182Q448 107 390 46T238 -15T88 28T30 145Q30 246 137 312Q61 370 61 447T112 577T250 630T382 592T427 491Q427 401 334 339Q386 308 417 272T448 182ZM319 477Q319 521 298 540T247 560T195
542T173 490T194 431T273 373L275 372Q319 416 319 477ZM148 108T172 82T242 55T313 78T338 136Q338 198 246 248Q243 250 199 273Q148 223 148 153Q148 108 172 82Z" />
<glyph unicode="9" glyph-name="nine" horiz-adv-x="477" d="M10 512T69 571T234 630Q442 630 442 338Q442 170 369 78T169 -15Q110 -15 75 8T40 68Q40 90 58 110T115 127Q115 56 184 56Q302 56 314 279Q251 243 181 243T60 289T10 423ZM219 556Q131 556 131 440T230
323Q278 323 316 346Q315 464 291 510T219 556Z" />
<glyph unicode=":" glyph-name="colon" horiz-adv-x="266" d="M168 317T133 317T74 341T50 399T74 458T133 483T192 459T216 400T192 341ZM168 -16T133 -16T74 8T50 67T74 126T133 150T192 126T216 67T192 8Z" />
<glyph unicode=";" glyph-name="semicolon" horiz-adv-x="259" d="M53 79T74 100T130 122T187 100T209 32T170 -73T87 -151Q81 -155 69 -145T57 -127Q101 -96 120 -33Q89 -29 71 -8T53 46ZM162 347T129 347T73 370T50 426T73 482T129 505T185 482T208 426T185 370Z" />
<glyph unicode="&lt;" glyph-name="less" horiz-adv-x="506" d="M452 421L167 275L447 135L406 56L30 249V303L410 499L452 421Z" />
<glyph unicode="=" glyph-name="equal" horiz-adv-x="508" d="M50 229H458V149H50V229ZM50 387H458V307H50V387Z" />
<glyph unicode="&gt;" glyph-name="greater" horiz-adv-x="506" d="M96 499L476 303V249L100 56L59 135L339 275L54 421L96 499Z" />
<glyph unicode="?" glyph-name="question" horiz-adv-x="503" d="M170 143T203 143T259 120T282 64T259 8T203 -15T147 8T124 64T147 120ZM40 627T94 671T248 715T405 667T463 537T403 395T249 318L243 217Q215 210 163 217L157 375Q227 392 278 425Q336 462 336
532Q336 577 312 608T244 639T172 612Q126 568 126 509Q90 509 65 525T40 575Q40 627 94 671Z" />
<glyph unicode="@" glyph-name="at" horiz-adv-x="1040" d="M881 346Q881 467 790 540T549 614Q375 614 269 514T163 253T271 -1T555 -96Q695 -96 776 -43L788 -106Q676 -166 541 -166Q336 -166 211 -52T85 253T212 564T548 684Q731 684 843 596T955 365T873 138T655
53Q612 53 591 63T566 98Q508 53 436 53T319 100T287 253T357 426T519 493Q572 493 615 472V473L737 480L687 124Q774 124 827 185T881 346ZM525 420Q432 420 411 278T484 135Q524 135 573 173L603 388Q569 420 525 420Z" />
<glyph unicode="A" glyph-name="A" horiz-adv-x="660" d="M600 0H366V8Q366 63 410 67L439 69H440L400 214H220L178 71L259 65Q262 59 258 38Q249 0 214 0H13V8Q13 63 57 67L94 69L286 685Q329 689 387 685L575 71L645 65Q648 59 644 38Q635 0 600 0ZM239 281H382L313
534L239 281Z" />
<glyph unicode="B" glyph-name="B" horiz-adv-x="592" d="M80 685H307Q429 685 484 638T540 525Q540 403 415 360Q485 350 527 313T570 209Q570 111 504 56T312 0H42Q43 62 82 66L114 70V615L41 621Q38 647 50 666T80 685ZM239 621V382H260Q340 382 375 414T410
509T374 599T280 623L242 621H239ZM442 195Q442 324 272 322H239V72L287 71Q442 70 442 195Z" />
<glyph unicode="C" glyph-name="C" horiz-adv-x="602" d="M370 700Q457 700 511 662T566 569Q566 529 539 507T466 485Q466 614 358 614Q266 614 216 540T165 338T214 142T369 74T556 135Q572 125 572 103Q572 62 501 24T334 -15Q186 -15 111 76T35 334T120 600T370 700Z" />
<glyph unicode="D" glyph-name="D" horiz-adv-x="712" d="M93 685H327Q677 685 677 346Q677 178 586 89T332 0H41Q38 24 46 44T76 66L112 70V614H111L41 620Q40 655 51 670T93 685ZM431 61T489 126T547 341T488 556T293 616L237 614V73L302 69Q431 61 489 126Z" />
<glyph unicode="E" glyph-name="E" horiz-adv-x="573" d="M543 163V0H40Q40 64 84 67L113 69V614L41 620Q38 626 42 647Q51 685 86 685H524V534Q524 489 460 495L451 613L238 616V368L417 389Q428 341 418 290L238 300V71L471 79L479 202Q543 208 543 163Z" />
<glyph unicode="F" glyph-name="F" horiz-adv-x="529" d="M514 685V534Q514 489 450 495L441 609L238 616V374L417 395Q428 347 418 296L238 306V71L330 65Q336 0 285 0H40Q40 0 40 8Q40 63 84 67L113 69V614L41 620Q38 626 42 647Q51 685 86 685H514Z" />
<glyph unicode="G" glyph-name="G" horiz-adv-x="684" d="M395 316H668Q668 316 668 308Q668 253 624 249L595 247H589V92Q563 44 492 15T332 -15Q186 -15 111 76T35 334T120 600T368 700Q482 700 543 663T604 569Q604 529 577 507T504 485Q504 560 472 594T356
628Q165 628 165 347Q165 209 213 142T371 74Q455 74 492 113V245L350 251Q344 316 395 316Z" />
<glyph unicode="H" glyph-name="H" horiz-adv-x="766" d="M680 0H455V8Q455 63 499 67L528 69V305H238V71L310 65Q316 0 265 0H40V8Q40 63 84 67L113 69V614L41 620Q38 626 42 647Q51 685 86 685H311V677Q311 622 267 618L238 616V372H528V614L456 620Q450 685
501 685H726V677Q726 622 682 618L653 616V71L725 65Q728 59 724 38Q715 0 680 0Z" />
<glyph unicode="I" glyph-name="I" horiz-adv-x="351" d="M265 0H40V8Q40 63 84 67L113 69V614H112L41 620Q38 626 42 647Q51 685 86 685H311V677Q311 622 267 618L238 616V71H239L310 65Q316 0 265 0Z" />
<glyph unicode="J" glyph-name="J" horiz-adv-x="410" d="M165 685H392Q392 685 392 677Q392 622 348 618L319 616V139Q319 50 268 -6T129 -63Q81 -63 52 -39T23 20Q23 100 108 100Q108 21 158 21Q176 21 185 44T194 132V614H193L120 620Q114 685 165 685Z" />
<glyph unicode="K" glyph-name="K" horiz-adv-x="641" d="M423 685H619Q619 618 576 618L536 616L349 381L565 71L628 65Q636 52 624 26T583 0H462L268 279L238 242V71L320 65Q326 0 275 0H40V8Q40 63 84 67L113 69V614L41 620Q38 626 42 647Q51 685 86 685H311V677Q311
622 267 618L238 616V348L443 616L378 620Q372 685 423 685Z" />
<glyph unicode="L" glyph-name="L" horiz-adv-x="559" d="M534 177V0H40V8Q40 63 84 67L113 69V614L43 620Q40 626 44 647Q53 685 88 685H333V676Q333 637 310 623Q301 618 289 618L240 616H238V71L454 78L470 216Q534 222 534 177Z" />
<glyph unicode="M" glyph-name="M" horiz-adv-x="890" d="M834 0H607V8Q607 63 651 67L679 69L643 554L464 108Q428 97 400 103L207 535L178 71L259 65Q262 59 258 38Q249 0 214 0H10V8Q10 63 54 67L94 69L130 614L61 620Q58 626 62 647Q71 685 106 685H277L453
287L607 685H790Q807 685 818 677T832 656Q838 626 835 620L765 614L806 71L879 65Q882 59 878 38Q869 0 834 0Z" />
<glyph unicode="N" glyph-name="N" horiz-adv-x="694" d="M503 685H677Q677 685 677 677Q677 622 633 618L604 616V13Q574 -1 527 -1L188 506V71L260 65Q266 0 215 0H40V8Q40 63 84 67L113 69V614L41 620Q38 626 42 647Q51 685 86 685H217L529 220V614L458 620Q452
685 503 685Z" />
<glyph unicode="O" glyph-name="O" horiz-adv-x="689" d="M344 620Q165 620 165 347Q165 210 209 138T340 65Q431 66 477 135T524 341T479 548T344 620ZM35 507T121 603T353 700T576 608T654 347T568 82T335 -15T112 77T35 338Z" />
<glyph unicode="P" glyph-name="P" horiz-adv-x="591" d="M283 255H238V71L323 65Q326 59 322 38Q313 0 278 0H40V8Q40 63 84 67L113 69V616L40 622Q39 647 49 666T79 685H313Q435 685 503 634T571 490Q571 379 495 317T283 255ZM238 317H270Q350 317 395 361T441
478T405 589T304 624L238 622V317Z" />
<glyph unicode="Q" glyph-name="Q" horiz-adv-x="689" d="M592 -54Q618 -54 643 -38Q651 -48 651 -74T626 -121T562 -141T458 -114T354 -66T250 -7Q147 18 91 106T35 335Q35 507 121 603T353 700T576 608T654 357T587 106T398 -9Q526 -54 592 -54ZM165 347Q165
210 209 138T340 65Q431 66 477 135T524 341T479 548T344 620Q165 620 165 347Z" />
<glyph unicode="R" glyph-name="R" horiz-adv-x="629" d="M79 685H309Q557 685 557 507Q557 432 513 381T382 310Q439 198 504 136T630 73Q625 35 599 10T532 -15Q465 -15 392 85T278 300H238V71L322 65Q328 0 277 0H40Q40 0 40 8Q40 63 84 67L113 69V616L40 622Q39
647 49 666T79 685ZM238 622V363Q246 362 260 362Q427 362 427 500Q427 561 395 593T300 624L240 622H238Z" />
<glyph unicode="S" glyph-name="S" horiz-adv-x="533" d="M444 650Q473 621 473 578T447 513T380 497Q380 624 269 624Q220 624 190 602T159 540Q159 510 173 496T194 475T220 458T248 443T283 428T319 412Q421 367 462 326T504 212Q504 111 433 48T241 -15Q119
-15 58 40Q25 71 25 112T51 178T131 202Q131 129 161 95T258 61T362 91T400 168T364 242T268 296T189 330T139 358T94 396Q55 444 55 506Q55 601 125 650T294 700T444 650Z" />
<glyph unicode="T" glyph-name="T" horiz-adv-x="636" d="M20 685H616V544Q616 523 603 513T580 501T552 500L542 610H380V71L462 65Q468 0 417 0H172Q172 0 172 8Q172 63 216 67L255 69V610H94L84 500Q66 500 56 501T33 512T20 544V685Z" />
<glyph unicode="U" glyph-name="U" horiz-adv-x="669" d="M479 685H659Q659 685 659 677Q659 622 615 618L586 616V290Q586 132 523 59T335 -15T147 54T83 291V614L11 620Q8 626 12 647Q21 685 56 685H281V677Q281 622 237 618L208 616V275Q208 165 239 115T348
65Q506 65 506 263L505 614L434 620Q428 685 479 685Z" />
<glyph unicode="V" glyph-name="V" horiz-adv-x="646" d="M456 685H645Q645 685 645 677Q645 622 601 618L577 616L366 0H265L65 614L1 620Q-2 626 2 647Q11 685 46 685H276Q274 646 267 637Q254 620 232 618L202 616L340 153L490 614L411 620Q408 626 412 647Q421
685 456 685Z" />
<glyph unicode="W" glyph-name="W" horiz-adv-x="971" d="M799 685H970Q970 684 970 675T970 659T965 642Q958 620 930 618L912 616L720 0H614L485 400L351 0H241L59 614L1 620Q0 631 0 642T12 669T45 685H269Q266 647 260 638Q246 620 225 618L197 616L317 145L469
616H552L688 145L824 614L754 620Q748 685 799 685Z" />
<glyph unicode="X" glyph-name="X" horiz-adv-x="689" d="M631 0H375Q377 39 384 48Q397 65 419 67L451 69H453L321 262L200 71H201L284 65Q290 0 239 0H19V8Q19 63 63 67L99 69L278 326L83 614L11 620Q8 626 12 647Q21 685 56 685H309Q307 646 300 637Q287 620
265 618L233 616H232L367 417L496 614L414 620Q408 685 459 685H678V677Q678 622 634 618L598 616L410 353L602 71L676 65Q682 0 631 0Z" />
<glyph unicode="Y" glyph-name="Y" horiz-adv-x="635" d="M444 685H634Q634 685 634 677Q634 622 590 618L565 616L380 288V71H381L452 65Q458 0 407 0H182V8Q182 63 226 67L255 69V284L65 614L1 620Q-2 626 2 647Q11 685 46 685H288Q286 646 279 637Q266 620
244 618L212 616H210L345 373L477 614L399 620Q396 626 400 647Q409 685 444 685Z" />
<glyph unicode="Z" glyph-name="Z" horiz-adv-x="590" d="M556 0H33Q17 35 14 53L393 610L151 602L142 519Q133 450 65 464V685H530Q557 666 557 636L182 72L469 87L481 171Q486 208 505 219T556 224V0Z" />
<glyph unicode="[" glyph-name="bracketleft" horiz-adv-x="283" d="M176 669V-90H253V-155H80V734H253V669H176Z" />
<glyph unicode="\" glyph-name="backslash" horiz-adv-x="375" d="M355 -90H256L20 697H119L355 -90Z" />
<glyph unicode="]" glyph-name="bracketright" horiz-adv-x="283" d="M107 -90V669H30V734H203V-155H30V-90H107Z" />
<glyph unicode="^" glyph-name="asciicircum" horiz-adv-x="518" d="M458 204H352L261 454L166 204H60L235 653H293L458 204Z" />
<glyph unicode="_" glyph-name="underscore" horiz-adv-x="400" d="M-30 -70H430V-145H-30V-70Z" />
<glyph unicode="`" glyph-name="grave" horiz-adv-x="370" d="M278 552L71 662Q80 680 105 702T153 730L320 593Q309 568 278 552Z" />
<glyph unicode="a" glyph-name="a" horiz-adv-x="521" d="M511 45Q511 -15 433 -15T332 37Q269 -15 193 -15T74 22T30 125T81 233T242 275Q285 275 324 269V313Q324 382 302 411T240 440T178 415T154 347Q114 343 88 359T61 410Q61 458 111 489T240 520Q446 520
446 320V53L511 45ZM324 194Q288 207 249 207T183 189T157 136Q157 66 229 66Q280 66 324 95V194Z" />
<glyph unicode="b" glyph-name="b" horiz-adv-x="587" d="M209 469Q270 520 351 520T491 462T552 275T491 66T304 -15Q249 -15 209 2L87 40V627L48 631Q7 635 11 693L209 715V469ZM312 66Q425 66 425 253Q425 339 396 386T312 433T209 388V106Q257 66 312 66Z" />
<glyph unicode="c" glyph-name="c" horiz-adv-x="472" d="M284 520Q356 520 401 490T447 412T419 346T360 331Q359 374 337 406T267 438T190 392T162 261Q162 75 305 75Q372 75 433 129Q443 123 449 109T455 85Q455 53 397 19T262 -15Q156 -15 96 53T35 246T103
445T284 520Z" />
<glyph unicode="d" glyph-name="d" horiz-adv-x="577" d="M567 48Q567 -16 483 -16T382 39Q318 -15 237 -15T96 43T35 230T96 439T283 520Q338 520 378 503V627L339 631Q298 635 302 693L500 715V54L567 48ZM275 439Q162 439 162 252Q162 166 191 119T274 72T378
117V399Q330 439 275 439Z" />
<glyph unicode="e" glyph-name="e" horiz-adv-x="497" d="M162 245V234Q162 153 191 114T293 74T436 129Q456 114 456 83T401 18T262 -15Q154 -15 95 48T35 241T99 445T277 520Q373 520 420 460T466 302V245H162ZM266 440Q184 440 167 314H349Q347 382 326 411T266 440Z" />
<glyph unicode="f" glyph-name="f" horiz-adv-x="394" d="M104 505V532Q104 616 157 672T296 730Q408 732 408 662Q408 628 386 612T329 596Q329 660 280 660Q225 660 225 536V505H354Q359 435 307 435H225V71H226L327 65Q330 59 326 38Q317 0 282 0H30V8Q30 63
74 67L103 69L104 435H32Q32 505 81 505H104Z" />
<glyph unicode="g" glyph-name="g" horiz-adv-x="483" d="M222 146Q197 146 172 151Q158 126 158 115T181 101T290 94T423 64T471 -31Q471 -123 400 -178T226 -233T71 -195T19 -97T77 17Q62 35 62 65Q62 118 112 176Q35 226 35 328Q35 411 88 465T232 520Q291
520 336 496L470 532Q479 521 480 491T470 451Q455 443 392 445Q421 402 417 326T360 198T222 146ZM386 -62Q386 -39 352 -32T237 -21T133 -12Q108 -42 108 -73T140 -124T236 -144T343 -121T386 -62ZM224 219Q260 219 281 248T302 331T282 414T225 444T169 414T149
330Q149 219 224 219Z" />
<glyph unicode="h" glyph-name="h" horiz-adv-x="649" d="M585 0H364V8Q364 63 408 67L437 69V315Q437 374 413 397T336 420T229 374V71L300 65Q306 0 255 0H32V8Q32 63 76 67L107 69V626L68 630Q27 634 31 692L229 714V459Q300 520 376 520T505 469T559 310V71L630
65Q636 0 585 0Z" />
<glyph unicode="i" glyph-name="i" horiz-adv-x="319" d="M255 0H32V8Q32 63 76 67L107 69V432L68 436Q27 440 31 498L229 520V71L300 65Q306 0 255 0ZM234 608T213 587T161 565T108 586T86 639T107 691T160 713T212 692T234 639Z" />
<glyph unicode="j" glyph-name="j" horiz-adv-x="292" d="M113 714T144 714T196 693T218 640T197 587T145 566T92 587T70 640T91 692ZM212 75Q212 -83 155 -158T3 -233Q-19 -233 -40 -224Q-82 -205 -82 -160Q-82 -130 -61 -115T-8 -99Q-8 -122 1 -138T36 -154T75
-130T90 -22V433L47 437Q13 440 13 499L212 520V75Z" />
<glyph unicode="k" glyph-name="k" horiz-adv-x="586" d="M358 505H537V497Q537 442 493 438L471 437L349 299L513 71L580 65Q583 37 568 19T530 0H423L273 213L229 164V71L301 65Q304 59 300 38Q291 0 256 0H33V8Q33 63 77 67L107 69V627L68 631Q27 635 31 693L229
715V267L370 434L313 440Q310 446 314 467Q323 505 358 505Z" />
<glyph unicode="l" glyph-name="l" horiz-adv-x="319" d="M255 0H32V8Q32 63 76 67L107 69V627L68 631Q27 635 31 693L229 715V71L300 65Q306 0 255 0Z" />
<glyph unicode="m" glyph-name="m" horiz-adv-x="962" d="M898 0H677V8Q677 63 721 67L750 69V315Q750 373 726 396T650 420T544 374Q551 343 551 310V71L622 65Q628 0 577 0H354V8Q354 63 398 67L429 69V315Q429 373 405 396T332 420T229 374V71L300 65Q306 0
255 0H32V8Q32 63 76 67L107 69V426L68 430Q27 434 31 492L212 514L219 453H222Q248 476 263 487T308 509T377 520T455 501T519 441Q602 520 683 520T818 469T872 310V71L943 65Q946 59 942 38Q933 0 898 0Z" />
<glyph unicode="n" glyph-name="n" horiz-adv-x="649" d="M585 0H364V8Q364 63 408 67L437 69V315Q437 373 414 396T350 420T283 409T229 374V71L300 65Q306 0 255 0H32V8Q32 63 76 67L107 69V426L68 430Q27 434 31 492L212 514L219 453H222Q259 485 293 502T375
520Q452 520 505 469T559 310V71L630 65Q636 0 585 0Z" />
<glyph unicode="o" glyph-name="o" horiz-adv-x="542" d="M323 443T271 443T191 391T162 250T190 111T271 61T351 109T380 247T352 390ZM35 372T98 446T275 520T447 449T507 253T443 56T265 -15T93 51T35 244Z" />
<glyph unicode="p" glyph-name="p" horiz-adv-x="587" d="M202 462Q267 520 349 520T491 462T552 275T491 66T304 -15Q249 -15 209 2V-147H210L280 -153Q286 -218 235 -218H12V-210Q12 -155 56 -151L87 -149V426L44 431Q13 435 13 491L193 514L202 462ZM312 66Q425
66 425 253Q425 339 396 386T312 433T209 388V106Q257 66 312 66Z" />
<glyph unicode="q" glyph-name="q" horiz-adv-x="561" d="M519 -218H303V-210Q303 -155 347 -151L378 -149V36Q317 -15 236 -15T96 43T35 230T96 439T283 520Q354 520 409 487L500 505V-147H501L564 -153Q570 -218 519 -218ZM275 439Q162 439 162 252Q162 166
191 119T274 72T378 117V399Q330 439 275 439Z" />
<glyph unicode="r" glyph-name="r" horiz-adv-x="447" d="M247 464T291 492T368 520T423 499T445 430T412 352Q395 339 355 344Q355 377 349 394T336 415T317 419Q267 419 227 354V71L308 65Q314 0 263 0H32Q32 0 32 8Q32 63 76 67L105 69V427L61 432Q30 435 30
492L211 515L220 432H223Q247 464 291 492Z" />
<glyph unicode="s" glyph-name="s" horiz-adv-x="434" d="M358 483Q383 461 383 426T361 372T303 358Q303 395 274 420T210 446T155 433T136 397T163 358T241 320T314 289T361 258Q409 222 409 152T352 33T200 -15Q130 -15 78 11T25 89Q25 124 50 143T109 163Q122
61 225 61Q308 61 308 116Q308 152 264 174Q240 187 206 200T153 222T110 247T72 278Q39 315 39 368Q39 440 97 480T236 520T358 483Z" />
<glyph unicode="t" glyph-name="t" horiz-adv-x="410" d="M208 435V158Q208 77 260 77Q298 77 323 87T378 121Q383 121 391 108T399 80Q399 41 344 13T237 -15T155 -1T110 42Q86 88 86 164V435H3Q3 505 52 505H86V633L208 646V505H388Q390 490 385 471Q376 435
339 435H208Z" />
<glyph unicode="u" glyph-name="u" horiz-adv-x="601" d="M320 442Q320 505 364 505H520V67H542Q576 66 576 4L434 -10L413 46Q342 -15 267 -15T137 36T83 195V434H10V442Q10 505 54 505H205V190Q205 128 229 102T303 76T398 110V434H320V442Z" />
<glyph unicode="v" glyph-name="v" horiz-adv-x="522" d="M378 505H522Q522 441 486 438L471 436L291 0H224L47 434H46L0 440Q-1 466 9 485T43 505H241Q239 468 232 459Q217 440 197 438L181 436L278 184L376 435L333 440Q330 446 334 467Q343 505 378 505Z" />
<glyph unicode="w" glyph-name="w" horiz-adv-x="731" d="M587 505H731Q731 441 695 438L680 436L510 0H443L354 265L254 0H187L46 434L0 440Q-1 466 9 485T43 505H241Q239 468 232 459Q217 440 197 438L180 436L251 190L343 456L424 457L502 203L582 435L542
440Q536 505 587 505Z" />
<glyph unicode="x" glyph-name="x" horiz-adv-x="525" d="M474 0H264Q266 38 273 46Q288 63 308 67L320 69H322L236 188L162 71L214 65Q220 0 169 0H7V8Q7 63 51 67L74 69L196 244L59 434L6 440Q4 452 9 470Q19 505 51 505H257Q254 470 248 461Q235 443 205 436H204L289
318L363 434H361L319 440Q316 446 320 467Q329 505 364 505H514V497Q514 442 470 438L449 436L331 260L467 71L519 65Q522 59 518 38Q509 0 474 0Z" />
<glyph unicode="y" glyph-name="y" horiz-adv-x="536" d="M393 505H536Q536 505 536 497Q536 445 492 438L488 437L322 34H323Q318 23 305 -8T287 -51T268 -91T247 -130T226 -163T202 -192T175 -213Q148 -233 107 -233T41 -212T16 -161T34 -112T74 -93T101 -95Q90
-148 124 -148Q153 -148 185 -86T238 42L61 434H56L1 440Q-2 446 2 467Q11 505 46 505H253Q250 468 244 459Q229 442 209 438L198 436L299 186L395 435L348 440Q342 505 393 505Z" />
<glyph unicode="z" glyph-name="z" horiz-adv-x="447" d="M47 505H404Q412 498 420 478T428 446L168 67L349 73L358 125Q361 152 383 161T432 164V0H32Q15 32 15 55L281 441L128 435L121 382Q118 355 96 346T47 343V505Z" />
<glyph unicode="{" glyph-name="braceleft" horiz-adv-x="370" d="M101 661T143 697T257 734T350 721L348 666Q334 668 318 668Q265 668 234 649T202 597Q202 577 210 516T219 405T204 322T165 280V270Q189 262 204 228T219 155T211 46T202 -51T233 -98T318 -118Q334
-118 348 -116L350 -171Q309 -184 245 -184T141 -148T101 -52Q101 -22 109 49T117 161T94 228Q83 242 50 256V294Q83 308 94 322Q117 348 117 389T109 500T101 602Q101 661 143 697Z" />
<glyph unicode="|" glyph-name="bar" horiz-adv-x="296" d="M100 -193V734H196V-193H100Z" />
<glyph unicode="}" glyph-name="braceright" horiz-adv-x="370" d="M20 721Q41 734 112 734T226 698T269 602Q269 570 261 500T253 389T276 322Q287 308 320 294V256Q287 242 276 228Q253 202 253 161T261 49T269 -52Q269 -111 229 -147T125 -184T20 -171L22 -116Q36
-118 52 -118Q105 -118 136 -99T168 -51T160 46T151 154T166 228T205 270V280Q181 288 166 322T151 405T159 515T168 597Q168 629 137 648T52 668Q36 668 22 666L20 721Z" />
<glyph unicode="~" glyph-name="asciitilde" horiz-adv-x="600" d="M109 299T141 334T217 370T308 341T387 311T437 325T463 362L500 353Q490 287 459 255T377 222T274 248T202 274T164 262T139 230L100 242Q109 299 141 334Z" />
<glyph unicode="&#xa0;" glyph-name="uni00A0" horiz-adv-x="268" />
<glyph unicode="&#xa1;" glyph-name="exclamdown" horiz-adv-x="238" d="M59 0L78 480Q121 491 160 480L191 -7Q116 -21 59 0ZM86 714T119 714T175 691T198 635T175 579T119 556T63 579T40 635T63 691Z" />
<glyph unicode="&#xa2;" glyph-name="cent" horiz-adv-x="522" d="M388 513T425 484T462 410T434 346T375 331Q374 374 352 406T282 438T206 392T177 262T209 126T317 74T450 124Q459 118 465 104T472 83Q472 55 429 27T324 -12L334 -116Q319 -124 288 -124T244
-116L253 -15Q159 -8 105 59T50 241T102 429T252 517L244 610Q257 618 288 618T334 610L325 519Q388 513 425 484Z" />
<glyph unicode="&#xa3;" glyph-name="sterling" horiz-adv-x="545" d="M442 0H52Q43 21 46 57Q93 70 114 107Q136 148 142 262H60V329H144Q144 371 146 389Q156 630 350 630Q411 630 450 605T490 538T467 479T406 464Q406 560 338 560Q263 560 254 389L252 329H405V262H248Q242
184 231 138T199 78H500Q504 0 442 0Z" />
<glyph unicode="&#xa4;" glyph-name="currency" horiz-adv-x="602" d="M199 240T226 212T297 183T370 211T398 285T370 359T298 388T226 360T199 286ZM491 352T491 285T460 170L557 91Q545 75 522 52T486 22L404 119Q362 93 301 93T197 117L116 22Q104 29 81 52T45
91L140 168Q105 214 105 284T140 403L45 479Q58 495 81 518T116 547L195 454Q242 479 302 479T405 452L486 547Q498 541 521 518T557 479L460 400Q491 352 491 285Z" />
<glyph unicode="&#xa5;" glyph-name="yen" horiz-adv-x="665" d="M441 620H651Q651 620 651 612Q651 557 607 553L571 551H568L426 329H506V262H397V211H506V144H397V71H398L469 65Q472 59 468 38Q459 0 424 0H203V8Q203 63 247 67L276 69V144H161V211H276V262H161V329H238L83
550L16 555Q10 620 61 620H291Q289 581 282 572Q269 555 247 553L223 552L351 354L470 550L396 555Q390 620 441 620Z" />
<glyph unicode="&#xa6;" glyph-name="brokenbar" horiz-adv-x="296" d="M100 359V734H196V359H100ZM196 182V-193H100V182H196Z" />
<glyph unicode="&#xa7;" glyph-name="section" horiz-adv-x="579" d="M529 -69Q529 -170 458 -233T266 -296Q144 -296 84 -240Q50 -210 50 -169T76 -103T156 -79Q156 -152 186 -186T283 -220T387 -190T425 -113T389 -39T293 15T214 49T164 77T118 115Q80 163 80
225Q80 315 149 369Q80 421 80 511T150 650T316 700Q418 700 469 650Q498 621 498 578T472 513T405 497Q405 624 294 624Q245 624 215 602T184 540Q184 510 198 496T219 475T245 458T273 443T308 428T344 412Q446 367 487 326T529 203T471 60Q529 12 529 -69ZM184
259Q184 229 198 215T219 194T245 177T273 162T308 147T355 127T401 104Q425 131 425 172T389 242T274 304Q264 308 223 326Q184 304 184 259Z" />
<glyph unicode="&#xa8;" glyph-name="dieresis" horiz-adv-x="600" d="M421 615T401 595T351 574T301 594T280 643T301 693T351 714T400 694T421 644ZM189 574T160 574T110 594T89 644T110 693T160 714T209 694T230 644T210 595Z" />
<glyph unicode="&#xa9;" glyph-name="copyright" horiz-adv-x="716" d="M420 468T447 450T474 405T458 367T423 359Q423 378 410 394T370 411T329 388T313 325Q313 217 390 217Q433 217 466 247Q479 238 479 217T444 177T356 158T267 198T230 309T269 424T376
468Q420 468 447 450ZM578 417T518 478T357 540T198 478T139 310T198 143T358 82T519 143T578 311ZM50 446T133 533T356 620T580 536T666 311T582 87T358 2T134 85T50 307Z" />
<glyph unicode="&#xaa;" glyph-name="ordfeminine" horiz-adv-x="377" d="M362 333Q362 291 309 291T240 325Q199 291 147 291T66 315T37 382T72 451T182 478Q211 478 234 474V492Q234 574 180 574Q124 574 124 516Q96 513 78 525T60 564T93 612T187 633Q323 633
323 498V338L362 333ZM190 426Q132 426 132 385Q132 353 177 353Q206 353 234 371V419Q212 426 190 426Z" />
<glyph unicode="&#xab;" glyph-name="guillemotleft" horiz-adv-x="621" d="M345 441L185 256V247L351 62L288 12L44 222Q35 252 44 281L288 491L345 441ZM595 441L435 256V247L601 62L538 12L294 222Q285 252 294 281L538 491L595 441Z" />
<glyph unicode="&#xac;" glyph-name="logicalnot" horiz-adv-x="508" d="M50 312H458V232L457 111H377L378 232H50V312Z" />
<glyph unicode="&#xad;" glyph-name="uni00AD" horiz-adv-x="405" d="M40 312H365V222H40V312Z" />
<glyph unicode="&#xae;" glyph-name="registered" horiz-adv-x="631" d="M50 579T125 652T319 726T510 651T581 456T508 264T316 190Q198 191 124 264T50 458ZM125 365T177 311T315 256T453 309T506 456T456 604T318 660T178 606T125 458ZM226 596H317Q418 596
418 529Q418 471 354 455Q400 372 451 372Q449 355 437 345T408 335Q376 335 348 370T302 449H294V377L329 375Q331 367 327 354T308 340H210Q210 374 229 376H238V558L209 561Q209 573 213 584T226 596ZM294 483H296Q361 483 361 525Q361 561 317 561H294V483Z"
/>
<glyph unicode="&#xaf;" glyph-name="overscore" horiz-adv-x="600" d="M110 648H405V578H110V648Z" />
<glyph unicode="&#xb0;" glyph-name="degree" horiz-adv-x="390" d="M138 606T138 580T154 537T195 519T236 536T252 579T236 621T195 638T154 622ZM60 521T60 579T98 673T196 709T292 674T330 580T292 486T195 449T98 485Z" />
<glyph unicode="&#xb1;" glyph-name="plusminus" horiz-adv-x="508" d="M296 307H458V227H296V129H214V227H50V307H214V471H296V307ZM50 0V80H458V0H50Z" />
<glyph unicode="&#xb2;" glyph-name="twosuperior" horiz-adv-x="353" d="M320 278H50Q35 315 38 324Q43 328 67 347T101 374T132 401T164 433T188 464Q212 496 212 524T202 566T174 581Q144 581 130 557T116 500Q47 498 47 548Q47 584 83 607T177 631T269 604T304
526T253 420T144 332H272L276 368Q277 383 291 388T320 389V278Z" />
<glyph unicode="&#xb3;" glyph-name="threesuperior" horiz-adv-x="325" d="M195 550Q195 564 186 572T159 581Q114 581 106 529Q56 529 56 566Q56 594 84 612T169 631T258 610T291 553Q291 493 203 471Q252 466 278 442T305 377T265 305T162 274T67 292T35 336Q35
352 48 363T86 374Q86 353 103 339T148 324T192 338T209 376Q209 439 102 431L101 484Q133 484 164 500T195 550Z" />
<glyph unicode="&#xb4;" glyph-name="acute" horiz-adv-x="600" d="M407 662L200 552Q169 568 158 593L325 730Q348 725 373 703T407 662Z" />
<glyph unicode="&#xb5;" glyph-name="uni00B5" horiz-adv-x="586" d="M561 45Q561 -15 483 -15T382 37Q319 -15 248 -15Q215 -15 180 -4L185 -226Q170 -236 119 -236T60 -226L65 160Q63 182 63 195V505H185V190Q185 128 209 102T282 76T374 107V505H496V53L561 45Z" />
<glyph unicode="&#xb6;" glyph-name="paragraph" horiz-adv-x="751" d="M241 685H667Q686 685 696 668T706 622L633 616V-90H510V616H401V-90H278V275Q169 275 107 331T45 481T99 629T241 685Z" />
<glyph unicode="&#xb7;" glyph-name="middot" horiz-adv-x="246" d="M158 198T123 198T64 222T40 281T64 340T123 364T182 340T206 281T182 222Z" />
<glyph unicode="&#xb8;" glyph-name="cedilla" horiz-adv-x="600" d="M345 -46T366 -68T387 -123T359 -180T285 -205T212 -177Q211 -166 215 -152T224 -135Q242 -150 274 -150T307 -120Q307 -103 293 -95T238 -86L265 18H319L303 -46Q345 -46 366 -68Z" />
<glyph unicode="&#xb9;" glyph-name="onesuperior" horiz-adv-x="294" d="M233 278H47V284Q47 295 51 306Q57 324 76 326L111 328V538L73 526Q55 521 42 537T30 564L130 619Q145 627 178 627Q201 627 201 594V329L263 325Q263 278 233 278Z" />
<glyph unicode="&#xba;" glyph-name="ordmasculine" horiz-adv-x="401" d="M197 573Q167 573 151 544T134 461Q134 351 196 351T259 454Q259 573 197 573ZM41 540T82 586T200 633T314 584T352 456T310 334T192 291T78 333T41 458Z" />
<glyph unicode="&#xbb;" glyph-name="guillemotright" horiz-adv-x="621" d="M186 256L26 441L83 491L327 281Q336 252 327 222L83 12L20 62L186 247V256ZM436 256L276 441L333 491L577 281Q586 252 577 222L333 12L270 62L436 247V256Z" />
<glyph unicode="&#xbc;" glyph-name="onequarter" horiz-adv-x="740" d="M700 110V60H655V-10L565 -15V60H422Q408 77 403 100L580 349Q620 357 655 353V110H700ZM565 110V238L476 110H565ZM505 630H610L254 0H149L505 630ZM232 278H48V284Q48 295 52 306Q58 324
77 326L111 328V538L73 526Q55 521 42 537T30 564L130 619Q145 627 178 627Q201 627 201 594V329L262 325Q262 278 232 278Z" />
<glyph unicode="&#xbd;" glyph-name="onehalf" horiz-adv-x="740" d="M721 0H451Q436 37 439 46Q444 50 468 69T502 96T533 123T565 155T589 186Q613 218 613 246T603 288T575 303Q545 303 531 279T517 222Q448 220 448 270Q448 306 484 329T578 353T670 326T705
248T654 142T545 54H673L677 90Q678 105 692 110T721 111V0ZM493 630H598L242 0H137L493 630ZM221 276H37V282Q37 293 41 304Q47 322 66 324L100 326V536L62 524Q44 519 31 535T19 562L119 617Q134 625 167 625Q190 625 190 592V327L251 323Q251 276 221 276Z"
/>
<glyph unicode="&#xbe;" glyph-name="threequarters" horiz-adv-x="740" d="M706 110V60H661V-10L571 -15V60H428Q414 77 409 100L586 349Q626 357 661 353V110H706ZM571 110V238L482 110H571ZM525 630H630L274 0H169L525 630ZM195 550Q195 564 186 572T159 581Q114
581 106 529Q56 529 56 566Q56 594 84 612T169 631T258 610T291 553Q291 493 203 471Q252 466 278 442T305 377T265 305T162 274T67 292T35 336Q35 352 48 363T86 374Q86 353 103 339T148 324T192 338T209 376Q209 439 102 431L101 484Q133 484 164 500T195 550Z"
/>
<glyph unicode="&#xbf;" glyph-name="questiondown" horiz-adv-x="503" d="M333 541T300 541T244 564T221 620T244 676T300 699T356 676T379 620T356 564ZM463 57T409 13T255 -31T98 17T40 147T100 289T254 366L260 467Q288 474 340 467L346 309Q276 292 225 259Q167
222 167 152Q167 107 191 76T259 45T331 72Q377 116 377 175Q413 175 438 159T463 109Q463 57 409 13Z" />
<glyph unicode="&#xc0;" glyph-name="Agrave" horiz-adv-x="660" d="M600 0H366V8Q366 63 410 67L439 69H440L400 214H220L178 71L259 65Q262 59 258 38Q249 0 214 0H13V8Q13 63 57 67L94 69L286 685Q329 689 387 685L575 71L645 65Q648 59 644 38Q635 0 600 0ZM239
281H382L313 534L239 281ZM266 910L433 773Q422 748 391 732L184 842Q193 860 218 882T266 910Z" />
<glyph unicode="&#xc1;" glyph-name="Aacute" horiz-adv-x="660" d="M600 0H366V8Q366 63 410 67L439 69H440L400 214H220L178 71L259 65Q262 59 258 38Q249 0 214 0H13V8Q13 63 57 67L94 69L286 685Q329 689 387 685L575 71L645 65Q648 59 644 38Q635 0 600 0ZM239
281H382L313 534L239 281ZM503 842L296 732Q265 748 254 773L421 910Q444 905 469 883T503 842Z" />
<glyph unicode="&#xc2;" glyph-name="Acircumflex" horiz-adv-x="660" d="M600 0H366V8Q366 63 410 67L439 69H440L400 214H220L178 71L259 65Q262 59 258 38Q249 0 214 0H13V8Q13 63 57 67L94 69L286 685Q329 689 387 685L575 71L645 65Q648 59 644 38Q635 0
600 0ZM239 281H382L313 534L239 281ZM336 809L196 723Q174 736 161 761L300 887Q341 896 376 887L511 761Q494 734 474 723L336 809Z" />
<glyph unicode="&#xc3;" glyph-name="Atilde" horiz-adv-x="660" d="M600 0H366V8Q366 63 410 67L439 69H440L400 214H220L178 71L259 65Q262 59 258 38Q249 0 214 0H13V8Q13 63 57 67L94 69L286 685Q329 689 387 685L575 71L645 65Q648 59 644 38Q635 0 600 0ZM239
281H382L313 534L239 281ZM400 742Q360 742 316 768T254 794T221 782T200 750L166 762Q174 819 202 854T267 890T345 861T413 831T456 845T479 882L511 873Q494 742 400 742Z" />
<glyph unicode="&#xc4;" glyph-name="Adieresis" horiz-adv-x="660" d="M600 0H366V8Q366 63 410 67L439 69H440L400 214H220L178 71L259 65Q262 59 258 38Q249 0 214 0H13V8Q13 63 57 67L94 69L286 685Q329 689 387 685L575 71L645 65Q648 59 644 38Q635 0 600
0ZM239 281H382L313 534L239 281ZM265 754T236 754T186 774T165 824T186 873T236 894T285 874T306 824T286 775ZM497 795T477 775T427 754T377 774T356 823T377 873T427 894T476 874T497 824Z" />
<glyph unicode="&#xc5;" glyph-name="Aring" horiz-adv-x="660" d="M600 0H366V8Q366 63 410 67L439 69H440L400 214H220L178 71L259 65Q262 59 258 38Q249 0 214 0H13V8Q13 63 57 67L94 69L286 685Q329 689 387 685L575 71L645 65Q648 59 644 38Q635 0 600 0ZM239
281H382L313 534L239 281ZM433 778T407 753T338 727T270 751T244 817T270 883T340 909T409 885T434 819ZM382 837T371 848T340 860T309 849T297 818T308 787T339 775T370 786T382 817Z" />
<glyph unicode="&#xc6;" glyph-name="AE" horiz-adv-x="904" d="M873 163V0H369Q369 64 413 67L442 69V291H284L180 71L259 65Q262 59 258 38Q249 0 214 0H13V8Q13 63 57 67L96 69L395 685H853V534Q853 489 789 495L780 613L567 616V368L746 389Q757 341 747 290L567
300V71L801 79L809 202Q873 208 873 163ZM442 358V614L436 615L315 358H442Z" />
<glyph unicode="&#xc7;" glyph-name="Ccedilla" horiz-adv-x="602" d="M173 -6T104 85T35 338T120 600T370 700Q457 700 511 662T566 569Q566 529 539 507T466 485Q466 614 358 614Q266 614 216 540T165 338T214 142T369 74T556 135Q572 125 572 103Q572 66 510
29T362 -14L354 -46Q396 -46 417 -68T438 -123T410 -180T336 -205T263 -177Q262 -166 266 -152T275 -135Q293 -150 325 -150T358 -120Q358 -103 344 -95T289 -86L308 -14Q173 -6 104 85Z" />
<glyph unicode="&#xc8;" glyph-name="Egrave" horiz-adv-x="573" d="M376 732L169 842Q178 860 203 882T251 910L418 773Q407 748 376 732ZM543 163V0H40Q40 64 84 67L113 69V614L41 620Q38 626 42 647Q51 685 86 685H524V534Q524 489 460 495L451 613L238 616V368L417
389Q428 341 418 290L238 300V71L471 79L479 202Q543 208 543 163Z" />
<glyph unicode="&#xc9;" glyph-name="Eacute" horiz-adv-x="573" d="M488 842L281 732Q250 748 239 773L406 910Q429 905 454 883T488 842ZM543 163V0H40Q40 64 84 67L113 69V614L41 620Q38 626 42 647Q51 685 86 685H524V534Q524 489 460 495L451 613L238 616V368L417
389Q428 341 418 290L238 300V71L471 79L479 202Q543 208 543 163Z" />
<glyph unicode="&#xca;" glyph-name="Ecircumflex" horiz-adv-x="573" d="M543 163V0H40Q40 64 84 67L113 69V614L41 620Q38 626 42 647Q51 685 86 685H524V534Q524 489 460 495L451 613L238 616V368L417 389Q428 341 418 290L238 300V71L471 79L479 202Q543 208
543 163ZM321 809L181 723Q159 736 146 761L285 887Q326 896 361 887L496 761Q479 734 459 723L321 809Z" />
<glyph unicode="&#xcb;" glyph-name="Edieresis" horiz-adv-x="573" d="M482 795T462 775T412 754T362 774T341 823T361 873T411 894T461 874T482 824ZM250 754T221 754T171 774T150 824T171 873T221 894T270 874T291 824T271 775ZM543 163V0H40Q40 64 84 67L113
69V614L41 620Q38 626 42 647Q51 685 86 685H524V534Q524 489 460 495L451 613L238 616V368L417 389Q428 341 418 290L238 300V71L471 79L479 202Q543 208 543 163Z" />
<glyph unicode="&#xcc;" glyph-name="Igrave" horiz-adv-x="351" d="M265 0H40V8Q40 63 84 67L113 69V614H112L41 620Q38 626 42 647Q51 685 86 685H311V677Q311 622 267 618L238 616V71H239L310 65Q316 0 265 0ZM105 910L272 773Q261 748 230 732L23 842Q32 860
57 882T105 910Z" />
<glyph unicode="&#xcd;" glyph-name="Iacute" horiz-adv-x="351" d="M238 71H239L310 65Q316 0 265 0H40V8Q40 63 84 67L113 69V614H112L41 620Q38 626 42 647Q51 685 86 685H311V677Q311 622 267 618L238 616V71ZM342 842L135 732Q104 748 93 773L260 910Q283
905 308 883T342 842Z" />
<glyph unicode="&#xce;" glyph-name="Icircumflex" horiz-adv-x="351" d="M215 887L350 761Q333 734 313 723L175 809L35 723Q13 736 0 761L139 887Q180 896 215 887ZM238 71H239L310 65Q316 0 265 0H40V8Q40 63 84 67L113 69V614H112L41 620Q38 626 42 647Q51
685 86 685H311V677Q311 622 267 618L238 616V71Z" />
<glyph unicode="&#xcf;" glyph-name="Idieresis" horiz-adv-x="351" d="M195 852T215 873T265 894T315 874T336 824T316 775T266 754T216 774T195 823ZM238 71H239L310 65Q316 0 265 0H40V8Q40 63 84 67L113 69V614H112L41 620Q38 626 42 647Q51 685 86 685H311V677Q311
622 267 618L238 616V71ZM145 853T145 824T125 775T75 754T25 774T4 824T25 873T75 894T124 874Z" />
<glyph unicode="&#xd0;" glyph-name="Eth" horiz-adv-x="720" d="M93 685H327Q677 685 677 346Q677 178 586 89T332 0H41Q38 24 46 44T76 66L112 70V302H54V372H112V614H111L41 620Q40 655 51 670T93 685ZM431 61T489 126T547 341T488 556T293 616L237 614V372H379V302H237V73L302
69Q431 61 489 126Z" />
<glyph unicode="&#xd1;" glyph-name="Ntilde" horiz-adv-x="694" d="M503 685H677Q677 685 677 677Q677 622 633 618L604 616V13Q574 -1 527 -1L188 506V71L260 65Q266 0 215 0H40V8Q40 63 84 67L113 69V614L41 620Q38 626 42 647Q51 685 86 685H217L529 220V614L458
620Q452 685 503 685ZM417 742Q377 742 333 768T271 794T238 782T217 750L183 762Q191 819 219 854T284 890T362 861T430 831T473 845T496 882L528 873Q511 742 417 742Z" />
<glyph unicode="&#xd2;" glyph-name="Ograve" horiz-adv-x="689" d="M407 732L200 842Q209 860 234 882T282 910L449 773Q438 748 407 732ZM35 507T121 603T353 700T576 608T654 347T568 82T335 -15T112 77T35 338ZM344 620Q165 620 165 347Q165 210 209 138T340
65Q431 66 477 135T524 341T479 548T344 620Z" />
<glyph unicode="&#xd3;" glyph-name="Oacute" horiz-adv-x="689" d="M519 842L312 732Q281 748 270 773L437 910Q460 905 485 883T519 842ZM344 620Q165 620 165 347Q165 210 209 138T340 65Q431 66 477 135T524 341T479 548T344 620ZM35 507T121 603T353 700T576
608T654 347T568 82T335 -15T112 77T35 338Z" />
<glyph unicode="&#xd4;" glyph-name="Ocircumflex" horiz-adv-x="689" d="M35 507T121 603T353 700T576 608T654 347T568 82T335 -15T112 77T35 338ZM340 65Q524 67 524 341Q524 477 479 548T344 620Q165 620 165 347Q165 210 209 138T340 65ZM352 809L212 723Q190
736 177 761L316 887Q357 896 392 887L527 761Q510 734 490 723L352 809Z" />
<glyph unicode="&#xd5;" glyph-name="Otilde" horiz-adv-x="689" d="M190 819T218 854T283 890T361 861T429 831T472 845T495 882L527 873Q510 742 416 742Q376 742 332 768T270 794T237 782T216 750L182 762Q190 819 218 854ZM344 620Q165 620 165 347Q165 210
209 138T340 65Q431 66 477 135T524 341T479 548T344 620ZM35 507T121 603T353 700T576 608T654 347T568 82T335 -15T112 77T35 338Z" />
<glyph unicode="&#xd6;" glyph-name="Odieresis" horiz-adv-x="689" d="M513 795T493 775T443 754T393 774T372 823T393 873T443 894T492 874T513 824ZM281 754T252 754T202 774T181 824T202 873T252 894T301 874T322 824T302 775ZM344 620Q165 620 165 347Q165
210 209 138T340 65Q431 66 477 135T524 341T479 548T344 620ZM35 507T121 603T353 700T576 608T654 347T568 82T335 -15T112 77T35 338Z" />
<glyph unicode="&#xd7;" glyph-name="multiply" horiz-adv-x="448" d="M398 381L282 265L396 151L339 94L225 208L109 92L50 151L166 267L50 383L107 440L223 324L339 440L398 381Z" />
<glyph unicode="&#xd8;" glyph-name="Oslash" horiz-adv-x="700" d="M553 632Q654 540 654 359T568 82T327 -15Q253 -15 194 13L175 -19L105 19L129 60Q35 151 35 329T121 603T360 700Q432 700 486 675L506 710L577 674L553 632ZM344 620Q165 620 165 347Q165
236 193 171L438 592Q400 620 344 620ZM431 66T477 135T524 330T491 526L243 99Q281 67 340 65Q431 66 477 135Z" />
<glyph unicode="&#xd9;" glyph-name="Ugrave" horiz-adv-x="669" d="M395 732L188 842Q197 860 222 882T270 910L437 773Q426 748 395 732ZM479 685H659Q659 685 659 677Q659 622 615 618L586 616V290Q586 132 523 59T335 -15T147 54T83 291V614L11 620Q8 626
12 647Q21 685 56 685H281V677Q281 622 237 618L208 616V275Q208 165 239 115T348 65Q506 65 506 263L505 614L434 620Q428 685 479 685Z" />
<glyph unicode="&#xda;" glyph-name="Uacute" horiz-adv-x="669" d="M507 842L300 732Q269 748 258 773L425 910Q448 905 473 883T507 842ZM479 685H659Q659 685 659 677Q659 622 615 618L586 616V290Q586 132 523 59T335 -15T147 54T83 291V614L11 620Q8 626
12 647Q21 685 56 685H281V677Q281 622 237 618L208 616V275Q208 165 239 115T348 65Q506 65 506 263L505 614L434 620Q428 685 479 685Z" />
<glyph unicode="&#xdb;" glyph-name="Ucircumflex" horiz-adv-x="669" d="M479 685H659Q659 685 659 677Q659 622 615 618L586 616V290Q586 132 523 59T335 -15T147 54T83 291V614L11 620Q8 626 12 647Q21 685 56 685H281V677Q281 622 237 618L208 616V275Q208
165 239 115T348 65Q506 65 506 263L505 614L434 620Q428 685 479 685ZM340 809L200 723Q178 736 165 761L304 887Q345 896 380 887L515 761Q498 734 478 723L340 809Z" />
<glyph unicode="&#xdc;" glyph-name="Udieresis" horiz-adv-x="669" d="M501 795T481 775T431 754T381 774T360 823T381 873T431 894T480 874T501 824ZM269 754T240 754T190 774T169 824T190 873T240 894T289 874T310 824T290 775ZM479 685H659V677Q659 622 615
618L586 616V290Q586 132 523 59T335 -15T147 54T83 291V614L11 620Q8 626 12 647Q21 685 56 685H281V677Q281 622 237 618L208 616V275Q208 165 239 115T348 65Q506 65 506 263L505 614L434 620Q428 685 479 685Z" />
<glyph unicode="&#xdd;" glyph-name="Yacute" horiz-adv-x="635" d="M444 685H634Q634 685 634 677Q634 622 590 618L565 616L380 288V71H381L452 65Q458 0 407 0H182V8Q182 63 226 67L255 69V284L65 614L1 620Q-2 626 2 647Q11 685 46 685H288Q286 646 279 637Q266
620 244 618L212 616H210L345 373L477 614L399 620Q396 626 400 647Q409 685 444 685ZM501 842L294 732Q263 748 252 773L419 910Q442 905 467 883T501 842Z" />
<glyph unicode="&#xde;" glyph-name="Thorn" horiz-adv-x="587" d="M273 144H238V71H239L310 65Q316 0 265 0H40Q40 0 40 8Q40 63 84 67L113 69V614H112L41 620Q38 626 42 647Q51 685 86 685H311V677Q311 622 267 618L238 616V562H294Q419 562 489 509T559 357T484
201T273 144ZM287 499H238V206H253Q337 206 384 246T431 355T393 461T287 499Z" />
<glyph unicode="&#xdf;" glyph-name="germandbls" horiz-adv-x="655" d="M106 447Q106 586 168 658T347 730Q440 730 491 693T543 593Q543 555 522 522T476 469Q409 418 409 392Q409 356 511 307Q577 276 603 241T630 157Q630 87 578 36T438 -15Q372 -15 320 11T267
89Q267 124 292 143T351 163Q356 118 385 90T452 61T509 79T529 122T508 166T448 205T390 237T347 269T311 315T299 371T313 427T347 471T388 506Q437 546 437 589Q437 652 355 652Q228 652 228 442V0H31V8Q31 63 75 67L106 68V447Z" />
<glyph unicode="&#xe0;" glyph-name="agrave" horiz-adv-x="521" d="M511 45Q511 -15 433 -15T332 37Q269 -15 193 -15T74 22T30 125T81 233T242 275Q285 275 324 269V313Q324 382 302 411T240 440T178 415T154 347Q114 343 88 359T61 410Q61 458 111 489T240
520Q446 520 446 320V53L511 45ZM324 194Q288 207 249 207T183 189T157 136Q157 66 229 66Q280 66 324 95V194ZM178 730L345 593Q334 568 303 552L96 662Q105 680 130 702T178 730Z" />
<glyph unicode="&#xe1;" glyph-name="aacute" horiz-adv-x="521" d="M511 45Q511 -15 433 -15T332 37Q269 -15 193 -15T74 22T30 125T81 233T242 275Q285 275 324 269V313Q324 382 302 411T240 440T178 415T154 347Q114 343 88 359T61 410Q61 458 111 489T240
520Q446 520 446 320V53L511 45ZM324 194Q288 207 249 207T183 189T157 136Q157 66 229 66Q280 66 324 95V194ZM415 662L208 552Q177 568 166 593L333 730Q356 725 381 703T415 662Z" />
<glyph unicode="&#xe2;" glyph-name="acircumflex" horiz-adv-x="521" d="M511 45Q511 -15 433 -15T332 37Q269 -15 193 -15T74 22T30 125T81 233T242 275Q285 275 324 269V313Q324 382 302 411T240 440T178 415T154 347Q114 343 88 359T61 410Q61 458 111 489T240
520Q446 520 446 320V53L511 45ZM324 194Q288 207 249 207T183 189T157 136Q157 66 229 66Q280 66 324 95V194ZM248 629L108 543Q86 556 73 581L212 707Q253 716 288 707L423 581Q406 554 386 543L248 629Z" />
<glyph unicode="&#xe3;" glyph-name="atilde" horiz-adv-x="521" d="M511 45Q511 -15 433 -15T332 37Q269 -15 193 -15T74 22T30 125T81 233T242 275Q285 275 324 269V313Q324 382 302 411T240 440T178 415T154 347Q114 343 88 359T61 410Q61 458 111 489T240
520Q446 520 446 320V53L511 45ZM324 194Q288 207 249 207T183 189T157 136Q157 66 229 66Q280 66 324 95V194ZM312 562Q272 562 228 588T166 614T133 602T112 570L78 582Q86 639 114 674T179 710T257 681T325 651T368 665T391 702L423 693Q406 562 312 562Z" />
<glyph unicode="&#xe4;" glyph-name="adieresis" horiz-adv-x="521" d="M511 45Q511 -15 433 -15T332 37Q269 -15 193 -15T74 22T30 125T81 233T242 275Q285 275 324 269V313Q324 382 302 411T240 440T178 415T154 347Q114 343 88 359T61 410Q61 458 111 489T240
520Q446 520 446 320V53L511 45ZM324 194Q288 207 249 207T183 189T157 136Q157 66 229 66Q280 66 324 95V194ZM177 574T148 574T98 594T77 644T98 693T148 714T197 694T218 644T198 595ZM409 615T389 595T339 574T289 594T268 643T289 693T339 714T388 694T409
644Z" />
<glyph unicode="&#xe5;" glyph-name="aring" horiz-adv-x="521" d="M511 45Q511 -15 433 -15T332 37Q269 -15 193 -15T74 22T30 125T81 233T242 275Q285 275 324 269V313Q324 382 302 411T240 440T178 415T154 347Q114 343 88 359T61 410Q61 458 111 489T240 520Q446
520 446 320V53L511 45ZM324 194Q288 207 249 207T183 189T157 136Q157 66 229 66Q280 66 324 95V194ZM345 598T319 573T250 547T182 571T156 637T182 703T252 729T321 705T346 639ZM294 657T283 668T252 680T221 669T209 638T220 607T251 595T282 606T294 637Z"
/>
<glyph unicode="&#xe6;" glyph-name="ae" horiz-adv-x="786" d="M324 313Q324 440 239 440Q198 440 176 414T154 347Q113 343 87 359T61 410Q61 458 111 489T241 520Q351 520 403 460Q464 520 563 520T710 459T755 302V245H451V234Q451 153 480 114T583 74T725
129Q745 114 745 83T690 18T551 -15Q430 -15 371 63Q293 -15 187 -15Q116 -15 73 22T30 125T81 233T243 275Q285 275 324 269V313ZM324 194Q288 207 249 207T183 189T157 132Q157 66 232 66Q281 66 324 95V194ZM555 440Q473 440 456 314H638Q634 440 555 440Z"
/>
<glyph unicode="&#xe7;" glyph-name="ccedilla" horiz-adv-x="472" d="M136 -2T86 65T35 251T103 445T284 520Q356 520 401 490T447 412T419 346T360 331Q359 374 337 406T267 438T190 392T162 261Q162 75 305 75Q372 75 433 129Q443 123 449 109T455 85Q455 55
403 23T281 -14L273 -46Q315 -46 336 -68T357 -123T329 -180T255 -205T182 -177Q181 -166 185 -152T194 -135Q212 -150 244 -150T277 -120Q277 -103 263 -95T208 -86L227 -13Q136 -2 86 65Z" />
<glyph unicode="&#xe8;" glyph-name="egrave" horiz-adv-x="497" d="M162 245V234Q162 153 191 114T293 74T436 129Q456 114 456 83T401 18T262 -15Q154 -15 95 48T35 241T99 445T277 520Q373 520 420 460T466 302V245H162ZM266 440Q184 440 167 314H349Q347 382
326 411T266 440ZM207 730L374 593Q363 568 332 552L125 662Q134 680 159 702T207 730Z" />
<glyph unicode="&#xe9;" glyph-name="eacute" horiz-adv-x="497" d="M162 245V234Q162 153 191 114T293 74T436 129Q456 114 456 83T401 18T262 -15Q154 -15 95 48T35 241T99 445T277 520Q373 520 420 460T466 302V245H162ZM266 440Q184 440 167 314H349Q347 382
326 411T266 440ZM444 662L237 552Q206 568 195 593L362 730Q385 725 410 703T444 662Z" />
<glyph unicode="&#xea;" glyph-name="ecircumflex" horiz-adv-x="497" d="M162 245V234Q162 153 191 114T293 74T436 129Q456 114 456 83T401 18T262 -15Q154 -15 95 48T35 241T99 445T277 520Q373 520 420 460T466 302V245H162ZM266 440Q184 440 167 314H349Q347
382 326 411T266 440ZM277 629L137 543Q115 556 102 581L241 707Q282 716 317 707L452 581Q435 554 415 543L277 629Z" />
<glyph unicode="&#xeb;" glyph-name="edieresis" horiz-adv-x="497" d="M162 245V234Q162 153 191 114T293 74T436 129Q456 114 456 83T401 18T262 -15Q154 -15 95 48T35 241T99 445T277 520Q373 520 420 460T466 302V245H162ZM266 440Q184 440 167 314H349Q347
382 326 411T266 440ZM206 574T177 574T127 594T106 644T127 693T177 714T226 694T247 644T227 595ZM438 615T418 595T368 574T318 594T297 643T317 693T367 714T417 694T438 644Z" />
<glyph unicode="&#xec;" glyph-name="igrave" horiz-adv-x="319" d="M255 0H32V8Q32 63 76 67L107 69V432L68 436Q27 440 31 498L229 520V71L300 65Q306 0 255 0ZM91 730L258 593Q247 568 216 552L9 662Q18 680 43 702T91 730Z" />
<glyph unicode="&#xed;" glyph-name="iacute" horiz-adv-x="319" d="M255 0H32V8Q32 63 76 67L107 69V432L68 436Q27 440 31 498L229 520V71L300 65Q306 0 255 0ZM328 662L121 552Q90 568 79 593L246 730Q269 725 294 703T328 662Z" />
<glyph unicode="&#xee;" glyph-name="icircumflex" horiz-adv-x="319" d="M201 707L336 581Q319 554 299 543L161 629L21 543Q-1 556 -14 581L125 707Q166 716 201 707ZM255 0H32V8Q32 63 76 67L107 69V432L68 436Q27 440 31 498L229 520V71L300 65Q306 0 255 0Z" />
<glyph unicode="&#xef;" glyph-name="idieresis" horiz-adv-x="319" d="M181 672T201 693T251 714T301 694T322 644T302 595T252 574T202 594T181 643ZM255 0H32V8Q32 63 76 67L107 69V432L68 436Q27 440 31 498L229 520V71L300 65Q306 0 255 0ZM131 673T131 644T111
595T61 574T11 594T-10 644T11 693T61 714T110 694Z" />
<glyph unicode="&#xf0;" glyph-name="eth" horiz-adv-x="557" d="M522 297Q522 155 452 70T261 -15Q158 -15 97 46T35 216T97 403T285 480Q327 480 362 469Q335 529 286 571L188 505L156 562L229 609Q181 634 121 645L155 706Q235 694 304 658L386 711L418 660L363
623Q522 509 522 297ZM263 72Q325 72 360 133T395 299Q395 326 392 352Q341 399 278 399Q162 399 162 229Q162 152 188 112T263 72Z" />
<glyph unicode="&#xf1;" glyph-name="ntilde" horiz-adv-x="649" d="M182 639T210 674T275 710T353 681T421 651T464 665T487 702L519 693Q502 562 408 562Q368 562 324 588T262 614T229 602T208 570L174 582Q182 639 210 674ZM585 0H364V8Q364 63 408 67L437
69V315Q437 373 414 396T350 420T283 409T229 374V71L300 65Q306 0 255 0H32V8Q32 63 76 67L107 69V426L68 430Q27 434 31 492L212 514L219 453H222Q259 485 293 502T375 520Q452 520 505 469T559 310V71L630 65Q636 0 585 0Z" />
<glyph unicode="&#xf2;" glyph-name="ograve" horiz-adv-x="542" d="M330 552L123 662Q132 680 157 702T205 730L372 593Q361 568 330 552ZM35 372T98 446T275 520T447 449T507 253T443 56T265 -15T93 51T35 244ZM323 443T271 443T191 391T162 250T190 111T271
61T351 109T380 247T352 390Z" />
<glyph unicode="&#xf3;" glyph-name="oacute" horiz-adv-x="542" d="M323 443T271 443T191 391T162 250T190 111T271 61T351 109T380 247T352 390ZM35 372T98 446T275 520T447 449T507 253T443 56T265 -15T93 51T35 244ZM442 662L235 552Q204 568 193 593L360
730Q383 725 408 703T442 662Z" />
<glyph unicode="&#xf4;" glyph-name="ocircumflex" horiz-adv-x="542" d="M35 372T98 446T275 520T447 449T507 253T443 56T265 -15T93 51T35 244ZM219 61T271 61T351 109T380 247T352 390T271 443T191 391T162 250T190 111ZM275 629L135 543Q113 556 100 581L239
707Q280 716 315 707L450 581Q433 554 413 543L275 629Z" />
<glyph unicode="&#xf5;" glyph-name="otilde" horiz-adv-x="542" d="M113 639T141 674T206 710T284 681T352 651T395 665T418 702L450 693Q433 562 339 562Q299 562 255 588T193 614T160 602T139 570L105 582Q113 639 141 674ZM323 443T271 443T191 391T162 250T190
111T271 61T351 109T380 247T352 390ZM35 372T98 446T275 520T447 449T507 253T443 56T265 -15T93 51T35 244Z" />
<glyph unicode="&#xf6;" glyph-name="odieresis" horiz-adv-x="542" d="M323 443T271 443T191 391T162 250T190 111T271 61T351 109T380 247T352 390ZM35 372T98 446T275 520T447 449T507 253T443 56T265 -15T93 51T35 244ZM436 615T416 595T366 574T316 594T295
643T315 693T365 714T415 694T436 644ZM204 574T175 574T125 594T104 644T125 693T175 714T224 694T245 644T225 595Z" />
<glyph unicode="&#xf7;" glyph-name="divide" horiz-adv-x="508" d="M289 365T256 365T200 388T177 444T200 500T256 523T312 500T335 444T312 388ZM289 13T256 13T200 36T177 92T200 148T256 171T312 148T335 92T312 36ZM50 308H458V228H50V308Z" />
<glyph unicode="&#xf8;" glyph-name="oslash" horiz-adv-x="537" d="M437 460Q507 390 507 259T443 56T259 -15Q211 -15 171 -1L159 -23L89 15L103 40Q35 105 35 238T98 446T282 520Q333 520 371 504L387 532L458 496L437 460ZM271 443Q219 443 191 391T162 268T172
159L325 424Q301 443 271 443ZM271 61Q323 61 351 109T380 228T369 342L217 78Q240 61 271 61Z" />
<glyph unicode="&#xf9;" glyph-name="ugrave" horiz-adv-x="601" d="M346 552L139 662Q148 680 173 702T221 730L388 593Q377 568 346 552ZM320 442Q320 505 364 505H520V67H542Q576 66 576 4L434 -10L413 46Q342 -15 267 -15T137 36T83 195V434H10V442Q10 505
54 505H205V190Q205 128 229 102T303 76T398 110V434H320V442Z" />
<glyph unicode="&#xfa;" glyph-name="uacute" horiz-adv-x="601" d="M320 442Q320 505 364 505H520V67H542Q576 66 576 4L434 -10L413 46Q342 -15 267 -15T137 36T83 195V434H10V442Q10 505 54 505H205V190Q205 128 229 102T303 76T398 110V434H320V442ZM458 662L251
552Q220 568 209 593L376 730Q399 725 424 703T458 662Z" />
<glyph unicode="&#xfb;" glyph-name="ucircumflex" horiz-adv-x="601" d="M320 442Q320 505 364 505H520V67H542Q576 66 576 4L434 -10L413 46Q342 -15 267 -15T137 36T83 195V434H10V442Q10 505 54 505H205V190Q205 128 229 102T303 76T398 110V434H320V442ZM291
629L151 543Q129 556 116 581L255 707Q296 716 331 707L466 581Q449 554 429 543L291 629Z" />
<glyph unicode="&#xfc;" glyph-name="udieresis" horiz-adv-x="601" d="M320 442Q320 505 364 505H520V67H542Q576 66 576 4L434 -10L413 46Q342 -15 267 -15T137 36T83 195V434H10V442Q10 505 54 505H205V190Q205 128 229 102T303 76T398 110V434H320V442ZM452
615T432 595T382 574T332 594T311 643T331 693T381 714T431 694T452 644ZM220 574T191 574T141 594T120 644T141 693T191 714T240 694T261 644T241 595Z" />
<glyph unicode="&#xfd;" glyph-name="yacute" horiz-adv-x="536" d="M393 505H536Q536 505 536 497Q536 445 492 438L488 437L322 34H323Q318 23 305 -8T287 -51T268 -91T247 -130T226 -163T202 -192T175 -213Q148 -233 107 -233T41 -212T16 -161T34 -112T74 -93T101
-95Q90 -148 124 -148Q153 -148 185 -86T238 42L61 434H56L1 440Q-2 446 2 467Q11 505 46 505H253Q250 468 244 459Q229 442 209 438L198 436L299 186L395 435L348 440Q342 505 393 505ZM465 662L258 552Q227 568 216 593L383 730Q406 725 431 703T465 662Z" />
<glyph unicode="&#xfe;" glyph-name="thorn" horiz-adv-x="587" d="M209 469Q270 520 351 520T491 462T552 275T491 66T304 -15Q249 -15 209 2V-147H210L280 -153Q286 -218 235 -218H12V-210Q12 -155 56 -151L87 -149V625L44 630Q13 634 13 690L209 713V469ZM312
66Q425 66 425 253Q425 339 396 386T312 433T209 388V106Q257 66 312 66Z" />
<glyph unicode="&#xff;" glyph-name="ydieresis" horiz-adv-x="536" d="M393 505H536Q536 505 536 497Q536 445 492 438L488 437L322 34H323Q318 23 305 -8T287 -51T268 -91T247 -130T226 -163T202 -192T175 -213Q148 -233 107 -233T41 -212T16 -161T34 -112T74
-93T101 -95Q90 -148 124 -148Q153 -148 185 -86T238 42L61 434H56L1 440Q-2 446 2 467Q11 505 46 505H253Q250 468 244 459Q229 442 209 438L198 436L299 186L395 435L348 440Q342 505 393 505ZM227 574T198 574T148 594T127 644T148 693T198 714T247 694T268
644T248 595ZM459 615T439 595T389 574T339 594T318 643T339 693T389 714T438 694T459 644Z" />
<glyph unicode="&#x2013;" glyph-name="endash" horiz-adv-x="532" d="M40 314H492V234H40V314Z" />
<glyph unicode="&#x2014;" glyph-name="emdash" horiz-adv-x="845" d="M40 315H805V235H40V315Z" />
<glyph unicode="&#x2018;" glyph-name="quoteleft" horiz-adv-x="256" d="M170 569T188 548T206 494T185 440T129 418T72 440T50 508T89 613T172 691Q178 695 190 685T202 667Q158 636 139 573Q170 569 188 548Z" />
<glyph unicode="&#x2019;" glyph-name="quoteright" horiz-adv-x="256" d="M50 649T71 670T127 692T184 670T206 602T167 497T84 419Q78 415 66 425T54 443Q98 474 117 537Q86 541 68 562T50 616Z" />
<glyph unicode="&#x201a;" glyph-name="quotesinglbase" horiz-adv-x="256" d="M50 98T71 119T127 141T184 119T206 51T167 -54T84 -132Q78 -136 66 -126T54 -108Q98 -77 117 -14Q86 -10 68 11T50 65Z" />
<glyph unicode="&#x201c;" glyph-name="quotedblleft" horiz-adv-x="433" d="M347 569T365 548T383 494T362 440T306 418T249 440T227 508T266 613T349 691Q355 695 367 685T379 667Q335 636 316 573Q347 569 365 548ZM170 569T188 548T206 494T185 440T129 418T72
440T50 508T89 613T172 691Q178 695 190 685T202 667Q158 636 139 573Q170 569 188 548Z" />
<glyph unicode="&#x201d;" glyph-name="quotedblright" horiz-adv-x="433" d="M227 649T248 670T304 692T361 670T383 602T344 497T261 419Q255 415 243 425T231 443Q275 474 294 537Q263 541 245 562T227 616ZM50 649T71 670T127 692T184 670T206 602T167 497T84
419Q78 415 66 425T54 443Q98 474 117 537Q86 541 68 562T50 616Z" />
<glyph unicode="&#x201e;" glyph-name="quotedblbase" horiz-adv-x="433" d="M227 99T248 120T304 142T361 120T383 52T344 -53T261 -131Q255 -135 243 -125T231 -107Q275 -76 294 -13Q263 -9 245 12T227 66ZM50 99T71 120T127 142T184 120T206 52T167 -53T84
-131Q78 -135 66 -125T54 -107Q98 -76 117 -13Q86 -9 68 12T50 66Z" />
<glyph unicode="&#x2022;" glyph-name="bullet" horiz-adv-x="486" d="M366 318T331 283T244 248T156 283T120 370T156 458T243 494T330 458T366 370Z" />
<glyph unicode="&#x2039;" glyph-name="guilsinglleft" horiz-adv-x="371" d="M345 441L185 256V247L351 62L288 12L44 222Q35 252 44 281L288 491L345 441Z" />
<glyph unicode="&#x203a;" glyph-name="guilsinglright" horiz-adv-x="371" d="M186 256L26 441L83 491L327 281Q336 252 327 222L83 12L20 62L186 247V256Z" />
</font>
</defs>
</svg>
