<?xml version="1.0" standalone="no"?>
<!DOCTYPE svg PUBLIC "-//W3C//DTD SVG 1.1//EN" "http://www.w3.org/Graphics/SVG/1.1/DTD/svg11.dtd">
<svg xmlns="http://www.w3.org/2000/svg">
<defs >
<font id="MontserratAlternates" horiz-adv-x="625" ><font-face
    font-family="Montserrat Alternates ExtraBold"
    units-per-em="1000"
    panose-1="0 0 9 0 0 0 0 0 0 0"
    ascent="968"
    descent="-251"
    alphabetic="0" />
<glyph unicode=" " glyph-name="space" horiz-adv-x="211" />
<glyph unicode="!" glyph-name="exclam" horiz-adv-x="279" d="M323 699L286 517L198 250H77L94 517L131 699H323ZM156 180T179 157T203 96Q203 51 174 22T100 -8Q61 -8 38 15T14 77Q14 123 43 151T117 180Q156 180 179 157Z" />
<glyph unicode="&quot;" glyph-name="quotedbl" horiz-adv-x="478" d="M297 701L239 411H88L145 701H297ZM504 701L446 411H295L352 701H504Z" />
<glyph unicode="#" glyph-name="numbersign" horiz-adv-x="697" d="M714 409H581L554 284H686L657 146H525L494 0H350L381 146H260L229 0H85L116 146H-16L13 284H145L172 409H40L69 546H201L234 701H378L345 546H465L498 701H643L610 546H742L714 409ZM410 284L436
409H316L289 284H410Z" />
<glyph unicode="$" glyph-name="dollar" horiz-adv-x="642" d="M283 479T310 465T398 434Q465 414 508 395T583 337T615 235Q615 126 539 65T343 -6L312 -160H163L195 4Q133 17 77 43T-22 105L72 262Q121 217 194 186T322 155Q358 155 378 167T399 205Q399 231
371 245T282 277Q216 295 173 313T98 369T66 468Q66 568 139 632T334 707L364 857H514L482 699Q590 679 664 628L571 468Q517 500 453 523T345 547Q316 547 300 537T283 505Q283 479 310 465Z" />
<glyph unicode="%" glyph-name="percent" horiz-adv-x="1181" d="M171 273T123 325T74 467Q74 540 102 594T181 679T298 709Q382 709 430 657T478 516Q478 443 450 388T371 303T254 273Q171 273 123 325ZM304 380T327 415T350 508Q350 552 334 577T288 603Q249
603 226 568T202 474Q202 431 218 406T265 380Q304 380 327 415ZM431 0H288L781 701H923L431 0ZM831 -8T783 44T734 186Q734 259 762 313T841 398T958 428Q1042 428 1090 376T1138 235Q1138 162 1110 107T1031 22T914 -8Q831 -8 783 44ZM964 99T987 134T1010 227Q1010
271 994 296T948 322Q909 322 886 287T862 193Q862 150 878 125T925 99Q964 99 987 134Z" />
<glyph unicode="&amp;" glyph-name="ampersand" horiz-adv-x="704" d="M545 -32L467 55Q372 -9 268 -9Q202 -9 150 15T69 82T40 179Q40 249 83 299T200 390Q181 423 174 452T166 511Q166 603 226 656T391 710Q480 710 534 668T588 556Q588 481 539 435T400 347Q430
308 472 260Q507 309 531 370L647 269Q615 205 571 150Q599 118 655 59L545 -32ZM320 487T331 457Q380 483 406 506T432 560Q432 597 393 597Q361 597 341 572T320 509Q320 487 331 457ZM325 131T373 162Q313 230 272 284Q240 264 223 242T205 192Q205 165 225
148T278 131Q325 131 373 162Z" />
<glyph unicode="&apos;" glyph-name="quotesingle" horiz-adv-x="271" d="M297 701L239 411H88L145 701H297Z" />
<glyph unicode="(" glyph-name="parenleft" horiz-adv-x="361" d="M383 641T327 527T247 293Q232 215 232 138Q232 -9 282 -125H111Q48 6 48 164Q48 245 64 325Q88 442 142 551T276 742H460Q383 641 327 527Z" />
<glyph unicode=")" glyph-name="parenright" horiz-adv-x="366" d="M14 -24T70 90T150 324Q165 402 165 479Q165 626 115 742H286Q349 611 349 453Q349 372 333 292Q309 175 255 66T121 -125H-63Q14 -24 70 90Z" />
<glyph unicode="*" glyph-name="asterisk" horiz-adv-x="411" d="M386 413L307 461L310 370H210L213 462L134 415L84 500L164 545L84 588L134 676L212 627L210 719H310L308 627L386 674L435 588L354 545L435 500L386 413Z" />
<glyph unicode="+" glyph-name="plus" horiz-adv-x="515" d="M508 391L483 265H320L287 101H160L193 265H30L55 391H218L251 555H377L344 391H508Z" />
<glyph unicode="," glyph-name="comma" horiz-adv-x="246" d="M128 180T152 158T176 95Q176 56 144 13L44 -126H-51L18 14Q-13 36 -13 75Q-13 120 16 150T90 180Q128 180 152 158Z" />
<glyph unicode="-" glyph-name="hyphen" horiz-adv-x="378" d="M345 371L320 245H47L72 371H345Z" />
<glyph unicode="." glyph-name="period" horiz-adv-x="260" d="M140 180T163 157T187 96Q187 51 158 22T84 -8Q46 -8 23 15T-1 77Q-1 123 28 151T101 180Q140 180 163 157Z" />
<glyph unicode="/" glyph-name="slash" horiz-adv-x="405" d="M503 808L103 -107H-66L334 808H503Z" />
<glyph unicode="0" glyph-name="zero" horiz-adv-x="753" d="M588 707T654 638T720 440Q720 306 673 205T536 49T324 -7Q197 -7 131 63T65 262Q65 396 112 496T248 652T463 707Q588 707 654 638ZM362 556T319 487T276 259Q276 199 294 172T353 145Q423 145 466
214T509 442Q509 501 491 528T433 556Q362 556 319 487Z" />
<glyph unicode="1" glyph-name="one" horiz-adv-x="463" d="M117 701H453L317 0H109L213 535H85L117 701Z" />
<glyph unicode="2" glyph-name="two" horiz-adv-x="658" d="M642 489T594 427T456 288L306 162H584L552 0H10L35 133L335 391Q370 421 392 449T416 499Q418 519 404 530T361 542Q320 542 265 519T152 453L103 603Q278 710 425 710Q523 710 582 667T642 551Q642
489 594 427Z" />
<glyph unicode="3" glyph-name="three" horiz-adv-x="655" d="M633 583L424 423L458 416Q524 404 563 362T602 255Q602 181 559 121T438 26T264 -9Q186 -9 114 15T-3 80L99 222Q177 146 277 146Q334 146 365 169T396 235Q396 264 373 280T307 296H182L203 405L380
549H125L154 702H656L633 583Z" />
<glyph unicode="4" glyph-name="four" horiz-adv-x="660" d="M628 295L598 143H514L486 0H296L324 143H16L43 280L308 701H505L253 295H353L381 437H571L543 295H628Z" />
<glyph unicode="5" glyph-name="five" horiz-adv-x="668" d="M343 539L326 448H372Q483 448 547 399T611 268Q611 189 567 126T445 27T268 -9Q196 -9 124 15T1 81L105 225Q186 146 274 146Q325 146 354 170T383 235Q383 293 300 293Q190 293 104 291L184 701H665L634
539H343Z" />
<glyph unicode="6" glyph-name="six" horiz-adv-x="675" d="M189 -9T125 62T61 259Q61 388 114 490T260 651T468 710Q529 710 588 694T685 650L581 511Q532 557 450 557Q377 557 332 515T272 397Q302 429 344 446T438 464Q524 464 573 414T622 280Q622 196 581
130T468 28T306 -9Q189 -9 125 62ZM378 150T405 178T433 254Q433 285 416 302T365 319Q317 319 289 292T259 221Q257 189 274 170T329 150Q378 150 405 178Z" />
<glyph unicode="7" glyph-name="seven" horiz-adv-x="648" d="M129 701H698L671 561L310 0H90L437 539H281L262 441H79L129 701Z" />
<glyph unicode="8" glyph-name="eight" horiz-adv-x="671" d="M522 710T580 666T639 547Q639 496 609 450T531 375Q569 354 591 314T613 228Q613 158 571 105T454 21T281 -9Q164 -9 97 38T29 165Q29 231 74 288T191 375Q162 396 146 429T130 500Q130 561 167 608T270
683T419 710Q522 710 580 666ZM349 574T325 553T301 493Q301 441 368 441Q413 441 437 461T461 520Q461 574 394 574Q349 574 325 553ZM287 293T259 269T230 201Q230 171 250 156T310 140Q363 140 392 164T421 231Q421 260 400 276T340 293Q287 293 259 269Z" />
<glyph unicode="9" glyph-name="nine" horiz-adv-x="674" d="M172 145T255 145Q328 145 374 186T434 304Q367 237 267 237Q183 237 135 287T86 421Q86 506 126 571T238 673T400 710Q517 710 581 639T645 442Q645 313 592 211T446 50T237 -9Q177 -9 119 7T21 51L124
190Q172 145 255 145ZM328 551T301 523T274 447Q274 383 342 383Q390 383 417 410T447 481Q449 512 432 531T376 551Q328 551 301 523Z" />
<glyph unicode=":" glyph-name="colon" horiz-adv-x="260" d="M199 477T222 454T246 393Q246 348 217 319T143 289Q105 289 82 312T58 374Q58 420 87 448T160 477Q199 477 222 454ZM140 180T163 157T187 96Q187 51 158 22T84 -8Q46 -8 23 15T-1 77Q-1 123 28 151T101
180Q140 180 163 157Z" />
<glyph unicode=";" glyph-name="semicolon" horiz-adv-x="248" d="M189 477T212 454T236 393Q236 348 207 319T133 289Q95 289 72 312T48 374Q48 420 77 448T150 477Q189 477 212 454ZM128 180T152 158T176 95Q176 56 144 13L44 -126H-51L18 14Q-13 36 -13 75Q-13
120 16 150T90 180Q128 180 152 158Z" />
<glyph unicode="&lt;" glyph-name="less" horiz-adv-x="518" d="M548 589L520 439L172 318L469 189L444 58L28 243L58 404L548 589Z" />
<glyph unicode="=" glyph-name="equal" horiz-adv-x="516" d="M530 500L505 374H52L77 500H530ZM487 282L461 156H8L33 282H487Z" />
<glyph unicode="&gt;" glyph-name="greater" horiz-adv-x="518" d="M-7 67L21 217L369 338L72 467L97 598L513 413L483 252L-7 67Z" />
<glyph unicode="?" glyph-name="question" horiz-adv-x="484" d="M55 579T125 643T308 707Q405 707 459 665T513 547Q513 505 499 473T464 417T409 363Q370 327 350 303T326 245H176Q183 303 206 338T267 410Q295 437 308 457T322 504Q322 548 272 548Q239 548
221 528T196 464H41Q55 579 125 643ZM282 180T305 157T329 96Q329 51 300 22T226 -8Q188 -8 165 15T141 77Q141 123 170 151T243 180Q282 180 305 157Z" />
<glyph unicode="@" glyph-name="at" horiz-adv-x="892" d="M619 699T701 652T830 520T876 330Q876 242 845 174T762 69T646 31Q599 31 571 49T539 106L538 116Q506 77 467 59T387 41Q338 41 296 66T229 136T204 241Q204 309 234 369T319 467T438 504Q472 504 497
492T537 466T554 446L561 492H690L643 162Q642 157 642 148Q642 116 670 116Q693 116 717 142T757 216T773 321Q773 402 742 466T648 567T499 604Q402 604 315 553T174 415T121 228Q121 148 155 85T252 -15T395 -51Q441 -51 493 -36T590 11L627 -72Q580 -106 511
-126T381 -147Q275 -147 192 -100T63 29T16 216Q16 346 85 457T269 634T513 699Q619 699 701 652ZM406 385T377 347T348 255Q348 213 366 185T417 157Q463 157 493 198T523 294Q523 334 504 359T448 385Q406 385 377 347Z" />
<glyph unicode="A" glyph-name="A" horiz-adv-x="754" d="M590 713T663 650T737 476Q737 450 730 408L651 0H443L473 158H235L205 0H-3L75 408Q93 500 146 569T280 675T459 713Q590 713 663 650ZM525 432T525 443Q525 488 499 514T427 540Q373 540 334 504T283
408L264 310H502L521 408Q525 432 525 443Z" />
<glyph unicode="B" glyph-name="B" horiz-adv-x="721" d="M625 361T654 322T683 228Q683 160 643 109T529 29T363 0H4L144 701H489Q599 701 662 660T726 549Q726 489 684 440T573 373Q625 361 654 322ZM457 426T479 446T502 498Q502 521 488 533T446 545H320L297
426H422Q457 426 479 446ZM413 156T441 176T469 231Q469 255 449 269T393 283H268L243 156H368Q413 156 441 176Z" />
<glyph unicode="C" glyph-name="C" horiz-adv-x="716" d="M532 714T607 680T731 589L595 446Q566 490 524 515T438 541Q388 541 345 514T277 440T251 336Q251 288 270 250T323 190T401 168Q442 168 489 190T576 250L683 122Q620 60 536 23T372 -14Q274 -14 198
29T80 147T37 319Q37 430 92 520T243 662T453 714Q532 714 607 680Z" />
<glyph unicode="D" glyph-name="D" horiz-adv-x="764" d="M540 701T616 662T730 551T764 385Q758 272 700 185T543 49T322 0H5L144 701H436Q540 701 616 662ZM554 445T515 491T406 537H320L246 163H360Q411 163 453 189T521 262T550 370Q554 445 515 491Z" />
<glyph unicode="E" glyph-name="E" horiz-adv-x="674" d="M525 717T595 702T706 663L611 511Q572 529 526 539T434 550Q378 550 344 531T310 481Q310 459 330 447T383 435H567L537 281H353Q301 281 268 263T235 213Q235 185 264 169T341 153Q399 153 461 170T568
214L617 63Q553 28 465 7T288 -14Q212 -14 149 7T49 67T12 160Q12 178 14 187Q24 252 73 300T198 370Q160 388 140 421T119 497Q119 515 121 525Q137 614 225 665T450 717Q525 717 595 702Z" />
<glyph unicode="F" glyph-name="F" horiz-adv-x="565" d="M363 540T332 514T292 451L282 399H538L506 239H250L202 0H-7L88 471Q110 584 192 649T395 714Q468 714 536 700T651 663L580 498Q540 517 491 528T404 540Q363 540 332 514Z" />
<glyph unicode="G" glyph-name="G" horiz-adv-x="751" d="M556 367H735L663 0H511L518 36Q436 -14 356 -14Q263 -14 190 28T77 146T36 316Q36 428 93 519T247 662T463 714Q544 714 622 685T751 606L619 464Q587 499 540 520T447 541Q394 541 349 514T277 438T250
331Q250 282 269 243T321 182T398 159Q431 159 464 173T526 212L556 367Z" />
<glyph unicode="H" glyph-name="H" horiz-adv-x="860" d="M640 701H848L708 0H500L552 261H303L251 0H43L183 701H391L335 421H584L640 701Z" />
<glyph unicode="I" glyph-name="I" horiz-adv-x="516" d="M528 541H416L340 160H451L420 0H-11L20 160H132L208 541H97L129 701H560L528 541Z" />
<glyph unicode="J" glyph-name="J" horiz-adv-x="553" d="M590 701L475 124Q452 11 376 -49T186 -109Q31 -109 -58 14L55 140Q84 103 118 85T180 66Q213 66 238 88T271 145L349 535H110L142 701H590Z" />
<glyph unicode="K" glyph-name="K" horiz-adv-x="758" d="M832 701L517 407L700 0H458L349 250L242 150L212 0H4L144 701H352L296 421L583 701H832Z" />
<glyph unicode="L" glyph-name="L" horiz-adv-x="574" d="M247 174H542L507 0H4L144 701H352L247 174Z" />
<glyph unicode="M" glyph-name="M" horiz-adv-x="1167" d="M1067 713T1115 663T1164 526Q1164 495 1156 455L1065 0H854L935 405Q939 422 939 441Q939 481 919 503T859 526Q808 526 769 488T717 391L639 0H428L509 405Q513 431 513 440Q513 480 492 503T432 526Q382
526 343 489T291 394L212 0H4L144 701H352L332 602Q376 655 433 684T556 713Q630 713 676 675T734 567Q778 636 842 674T982 713Q1067 713 1115 663Z" />
<glyph unicode="N" glyph-name="N" horiz-adv-x="763" d="M656 713T707 662T759 522Q759 489 752 455L660 0H450L530 405Q534 429 534 438Q534 479 511 502T447 526Q390 526 347 490T291 394L212 0H4L144 701H352L332 599Q378 654 438 683T566 713Q656 713 707 662Z" />
<glyph unicode="O" glyph-name="O" horiz-adv-x="809" d="M559 714T638 672T761 554T805 384Q805 273 749 182T597 39T384 -14Q283 -14 204 29T81 147T37 319Q37 430 93 520T245 662T458 714Q559 714 638 672ZM394 541T350 514T278 438T251 333Q251 284 271 245T327
182T404 159Q454 159 497 187T565 263T591 370Q591 418 572 457T519 518T443 541Q394 541 350 514Z" />
<glyph unicode="P" glyph-name="P" horiz-adv-x="696" d="M579 701T641 649T704 502Q704 408 663 337T543 227T360 188H250L212 0H4L144 701H463Q579 701 641 649ZM437 349T469 381T502 467Q502 503 481 522T420 541H320L282 349H382Q437 349 469 381Z" />
<glyph unicode="Q" glyph-name="Q" horiz-adv-x="809" d="M805 284T759 200T632 60T450 -9L423 -148H233L263 4Q159 37 98 121T37 319Q37 430 93 520T245 662T458 714Q559 714 638 672T761 554T805 384Q805 284 759 200ZM454 159T497 187T565 263T591 370Q591
418 572 457T519 518T443 541Q394 541 350 514T278 438T251 333Q251 284 271 245T327 182T404 159Q454 159 497 187Z" />
<glyph unicode="R" glyph-name="R" horiz-adv-x="725" d="M724 407T681 336T556 226L651 0H416L360 188H250L212 0H4L144 701H472Q594 701 659 649T724 501Q724 407 681 336ZM282 349H402Q457 349 489 381T522 467Q522 503 501 522T440 541H320L282 349Z" />
<glyph unicode="S" glyph-name="S" horiz-adv-x="642" d="M459 716T535 694T666 635L572 474Q520 506 455 529T347 553Q318 553 302 542T285 510Q285 483 313 468T401 435Q468 414 510 395T584 337T616 233Q616 153 574 98T462 15T305 -13Q215 -13 127 17T-22
101L73 260Q121 214 194 182T322 150Q358 150 378 164T399 204Q399 231 371 245T282 277Q216 296 173 315T99 372T67 472Q67 546 106 601T217 686T381 716Q459 716 535 694Z" />
<glyph unicode="T" glyph-name="T" horiz-adv-x="700" d="M664 477Q589 518 501 532L395 0H187L294 533Q196 517 109 477L86 632Q166 672 254 693T433 714Q522 714 603 693T749 631L664 477Z" />
<glyph unicode="U" glyph-name="U" horiz-adv-x="763" d="M138 -12T87 39T36 178Q36 212 43 246L134 701H345L264 295Q260 271 260 262Q260 222 283 199T348 175Q405 175 447 211T503 307L582 701H790L650 0H442L463 102Q417 47 357 18T228 -12Q138 -12 87 39Z" />
<glyph unicode="V" glyph-name="V" horiz-adv-x="748" d="M624 701H837L450 0H235L82 701H305L385 215L624 701Z" />
<glyph unicode="W" glyph-name="W" horiz-adv-x="1145" d="M1081 193T1033 127T914 23T763 -14Q687 -14 627 20T542 108Q497 54 425 20T275 -14Q205 -14 153 14T73 93T45 212Q45 243 51 276L133 701H341L259 276Q256 261 256 249Q256 208 279 184T342 159Q388
159 424 192T470 276L552 701H760L678 276Q675 263 675 250Q675 209 699 184T764 159Q809 159 844 192T889 276L971 701H1179L1097 276Q1081 193 1033 127Z" />
<glyph unicode="X" glyph-name="X" horiz-adv-x="765" d="M805 701L520 366L710 0H460L361 200L197 0H-47L260 357L85 701H327L413 518L560 701H805Z" />
<glyph unicode="Y" glyph-name="Y" horiz-adv-x="745" d="M783 701L680 183Q662 93 609 28T476 -73T298 -109Q211 -109 132 -81T5 -7L103 124Q137 96 187 81T283 65Q355 65 409 104T476 204L485 247Q445 202 393 178T280 153Q184 153 129 210T73 362Q73 396 80
430L134 701H342L289 433Q286 418 286 405Q286 369 307 350T370 331Q427 331 471 368T527 462L575 701H783Z" />
<glyph unicode="Z" glyph-name="Z" horiz-adv-x="691" d="M722 701L701 569L540 411H624L598 282H409L286 162H640L613 0H-19L3 131L174 298H85L111 427H305L420 539H83L109 701H722Z" />
<glyph unicode="[" glyph-name="bracketleft" horiz-adv-x="370" d="M452 742L422 593H303L191 25H309L278 -124H-20L154 742H452Z" />
<glyph unicode="\" glyph-name="backslash" horiz-adv-x="718" d="M71 808H240L640 -107H471L71 808Z" />
<glyph unicode="]" glyph-name="bracketright" horiz-adv-x="385" d="M-44 -124L-14 25H105L217 593H99L130 742H428L254 -124H-44Z" />
<glyph unicode="^" glyph-name="asciicircum" horiz-adv-x="593" d="M536 141H399L331 415L150 141H5L267 524H428L536 141Z" />
<glyph unicode="_" glyph-name="underscore" horiz-adv-x="592" d="M519 -95L497 -204H-95L-73 -95H519Z" />
<glyph unicode="`" glyph-name="grave" horiz-adv-x="318" d="M276 775L384 605L251 595L117 717L276 775Z" />
<glyph unicode="a" glyph-name="a" horiz-adv-x="720" d="M164 -7T117 23T44 106T18 230Q18 319 55 392T158 508T302 551Q358 551 399 529T463 463L479 544H681L614 209Q611 197 611 189Q611 176 618 171T640 165Q662 165 683 174L648 -1Q613 -9 588 -9Q528 -9
489 17T430 97L426 109Q386 53 334 23T224 -7Q164 -7 117 23ZM337 144T364 163T408 216T424 288Q424 332 401 359T339 386Q307 386 281 367T238 315T222 243Q222 197 244 171T305 144Q337 144 364 163Z" />
<glyph unicode="b" glyph-name="b" horiz-adv-x="694" d="M529 551T576 521T649 437T675 313Q675 224 638 151T535 35T392 -8Q336 -8 295 14T231 81L215 0H13L160 742H362L311 484Q345 516 385 533T469 551Q529 551 576 521ZM356 399T329 380T286 327T270 256Q270
211 293 185T355 158Q386 158 413 177T456 229T472 300Q472 346 450 372T388 399Q356 399 329 380Z" />
<glyph unicode="c" glyph-name="c" horiz-adv-x="578" d="M199 -7T141 23T52 110T20 241Q20 332 60 402T171 512T335 551Q420 551 481 514T571 409L409 333Q398 359 377 373T327 387Q283 387 254 350T225 255Q225 208 246 181T304 153Q365 153 396 213L545 134Q508
67 438 30T277 -7Q199 -7 141 23Z" />
<glyph unicode="d" glyph-name="d" horiz-adv-x="713" d="M614 208Q612 192 612 188Q612 175 618 170T639 164Q656 164 683 173L648 -2Q614 -10 588 -10Q531 -10 492 14T435 82L429 99Q386 48 332 20T224 -8Q165 -8 118 22T45 106T18 230Q18 319 55 392T158 508T302
551Q358 551 399 529T463 463L518 742H720L614 208ZM424 332T401 359T339 386Q307 386 281 367T238 315T222 243Q222 197 244 171T305 144Q337 144 364 163T408 216T424 288Q424 332 401 359Z" />
<glyph unicode="e" glyph-name="e" horiz-adv-x="606" d="M457 551T525 488T594 314Q594 294 593 284L234 207Q245 176 268 159T324 142Q356 142 390 158T456 205L559 104Q453 -7 293 -7Q210 -7 149 24T54 111T20 242Q20 332 60 402T172 511T338 551Q457 551 525
488ZM400 347Q397 379 379 396T332 414Q293 414 266 386T229 310L400 347Z" />
<glyph unicode="f" glyph-name="f" horiz-adv-x="364" d="M355 594T332 577T304 533L301 516H413L388 387H275L197 0H-4L111 574Q129 659 193 705T352 751Q418 751 479 728L430 583Q403 594 384 594Q355 594 332 577Z" />
<glyph unicode="g" glyph-name="g" horiz-adv-x="656" d="M150 -203T85 -182T-28 -127L55 0Q87 -23 130 -34T216 -46Q272 -46 308 -20T354 52L360 83Q295 31 214 31Q158 31 114 58T46 134T21 246Q21 331 56 400T153 510T288 551Q339 551 377 531T437 472L452 544H653L551
32Q530 -79 442 -141T225 -203Q150 -203 85 -182ZM339 182T369 217T400 301Q400 340 380 363T327 386Q285 386 255 349T225 259Q225 223 244 203T296 182Q339 182 369 217Z" />
<glyph unicode="h" glyph-name="h" horiz-adv-x="687" d="M556 551T606 501T656 372Q656 350 651 322L586 0H384L442 292Q445 306 445 316Q445 347 428 365T380 383Q341 383 310 352T270 271L216 0H14L160 742H363L310 474Q376 551 474 551Q556 551 606 501Z" />
<glyph unicode="i" glyph-name="i" horiz-adv-x="325" d="M318 544L209 0H7L116 544H318ZM307 803T330 780T354 718Q354 666 317 631T227 595Q188 595 165 618T141 680Q141 732 178 767T268 803Q307 803 330 780Z" />
<glyph unicode="j" glyph-name="j" horiz-adv-x="325" d="M-80 -45T-62 -45Q-35 -45 -15 -27T11 20L115 544H317L204 -27Q187 -111 127 -156T-23 -202Q-88 -202 -148 -178L-92 -42Q-80 -45 -62 -45ZM298 803T321 780T345 718Q345 666 308 631T218 595Q179 595
156 618T132 680Q132 732 169 767T259 803Q298 803 321 780Z" />
<glyph unicode="k" glyph-name="k" horiz-adv-x="669" d="M722 544L466 322L602 0H368L307 185L239 125L214 0H12L160 742H362L290 382L471 544H722Z" />
<glyph unicode="l" glyph-name="l" horiz-adv-x="367" d="M347 742L241 208Q239 194 239 190Q239 175 246 170T267 164Q291 164 327 181L317 9Q268 -10 216 -10Q137 -10 86 35T35 162Q35 188 41 218L146 742H347Z" />
<glyph unicode="m" glyph-name="m" horiz-adv-x="1082" d="M952 551T1001 502T1051 373Q1051 345 1046 322L982 0H780L838 292Q840 308 840 315Q840 347 823 365T776 383Q740 383 711 357T669 287L611 0H409L468 292Q470 308 470 315Q470 347 453 365T405 383Q366
383 336 352T295 271L241 0H39L106 336Q109 348 109 356Q109 380 80 380Q61 380 37 371L72 546Q104 553 132 553Q257 553 290 447L296 425Q335 487 386 519T499 551Q564 551 609 520T672 433Q755 551 870 551Q952 551 1001 502Z" />
<glyph unicode="n" glyph-name="n" horiz-adv-x="712" d="M106 336Q109 348 109 356Q109 380 80 380Q61 380 37 371L72 546Q104 553 132 553Q257 553 290 447L296 425Q335 487 386 519T499 551Q582 551 631 502T681 372Q681 350 676 322L611 0H409L468 292Q470
308 470 315Q470 347 453 365T405 383Q366 383 336 352T295 271L241 0H39L106 336Z" />
<glyph unicode="o" glyph-name="o" horiz-adv-x="649" d="M437 551T499 520T595 433T629 300Q629 209 587 140T470 32T297 -7Q213 -7 151 24T55 112T21 245Q21 335 63 404T180 512T353 551Q437 551 499 520ZM288 391T257 353T226 254Q226 206 249 178T313 149Q362
149 393 186T424 285Q424 333 401 362T337 391Q288 391 257 353Z" />
<glyph unicode="p" glyph-name="p" horiz-adv-x="693" d="M79 336Q82 348 82 356Q82 380 54 380Q37 380 10 371L45 546Q74 553 105 553Q162 553 201 530T258 462L264 445Q306 496 361 523T469 551Q528 551 575 522T648 438T675 314Q675 225 638 152T535 36T391
-7Q335 -7 294 15T230 81L175 -195H-27L79 336ZM269 211T292 185T354 158Q386 158 412 177T455 229T471 301Q471 347 449 373T388 400Q356 400 329 381T285 328T269 256Q269 211 292 185Z" />
<glyph unicode="q" glyph-name="q" horiz-adv-x="692" d="M164 -7T117 23T44 106T18 230Q18 319 55 392T158 508T302 551Q358 551 399 529T463 463L479 544H680L533 -194H331L382 59Q313 -7 224 -7Q164 -7 117 23ZM337 144T364 163T408 216T424 288Q424 332 401
359T339 386Q307 386 281 367T238 315T222 243Q222 197 244 171T305 144Q337 144 364 163Z" />
<glyph unicode="r" glyph-name="r" horiz-adv-x="451" d="M376 552T484 552L460 371Q440 373 430 373Q365 373 318 339T260 252L209 0H7L116 544H318L303 467Q376 552 484 552Z" />
<glyph unicode="s" glyph-name="s" horiz-adv-x="540" d="M184 -8T109 19T-21 97L61 214Q108 175 158 152T251 129Q274 129 286 137T299 161Q299 173 282 182T228 206Q177 226 145 243T87 291T62 369Q62 422 90 463T168 528T285 551Q354 551 424 527T554 458L466
343Q417 376 371 395T293 415Q275 415 263 407T251 385Q251 372 268 362T325 336Q376 316 409 298T467 249T492 172Q492 119 464 78T384 15T265 -8Q184 -8 109 19Z" />
<glyph unicode="t" glyph-name="t" horiz-adv-x="413" d="M239 205Q237 193 237 187Q237 169 246 159T275 149Q295 149 338 165L347 26Q315 10 272 1T188 -9Q113 -9 70 28T27 130Q27 147 32 174L130 667H331L301 516H435L409 387H275L239 205Z" />
<glyph unicode="u" glyph-name="u" horiz-adv-x="712" d="M606 208Q603 198 603 188Q603 164 632 164Q651 164 675 173L640 -2Q608 -9 580 -9Q455 -9 422 97L416 119Q377 57 326 25T213 -7Q131 -7 81 43T31 172Q31 194 36 222L101 544H303L244 252Q242 236 242
229Q242 197 259 179T307 161Q346 161 376 192T417 273L471 544H673L606 208Z" />
<glyph unicode="v" glyph-name="v" horiz-adv-x="594" d="M657 544L347 0H140L47 544H252L278 183L452 544H657Z" />
<glyph unicode="w" glyph-name="w" horiz-adv-x="984" d="M932 239Q918 165 877 109T776 22T644 -9Q584 -9 533 20T458 96Q417 49 354 20T231 -9Q139 -9 86 41T33 179Q33 208 39 239L100 544H300L240 248Q238 234 238 228Q238 199 254 183T299 166Q331 166 355
188T387 248L446 544H646L586 248Q584 234 584 228Q584 199 600 183T647 166Q679 166 703 188T734 248L794 544H994L932 239Z" />
<glyph unicode="x" glyph-name="x" horiz-adv-x="633" d="M297 544L341 403L455 544H680L455 279L579 0H351L300 154L172 0H-56L185 278L69 544H297Z" />
<glyph unicode="y" glyph-name="y" horiz-adv-x="673" d="M670 544L571 47Q556 -27 510 -83T393 -171T241 -202Q177 -202 109 -182T-4 -130L62 2Q97 -20 143 -32T227 -44Q280 -44 322 -12T375 67L387 129Q315 45 205 45Q127 45 83 89T39 208Q39 239 44 261L101
544H303L255 302Q252 287 252 275Q252 223 306 223Q348 223 381 253T427 330L469 544H670Z" />
<glyph unicode="z" glyph-name="z" horiz-adv-x="564" d="M584 543L562 424L448 320H506L486 216H335L264 151H516L485 0H-23L-1 119L117 227H54L74 331H231L298 392H66L95 544L584 543Z" />
<glyph unicode="{" glyph-name="braceleft" horiz-adv-x="371" d="M296 379T269 350T191 309Q228 298 244 280T261 228Q261 208 255 181L236 84Q234 68 234 64Q234 41 250 32T308 23L278 -126H200Q113 -126 76 -104T38 -29Q38 -8 44 21L78 194L80 210Q80 222 74
227T52 232H10L41 385H83Q102 385 111 393T125 424L159 596Q170 652 194 684T261 730T374 744H452L422 595Q373 595 353 582T326 534L307 437Q296 379 269 350Z" />
<glyph unicode="|" glyph-name="bar" horiz-adv-x="315" d="M338 799L157 -106H7L188 799H338Z" />
<glyph unicode="}" glyph-name="braceright" horiz-adv-x="414" d="M133 239T160 268T238 309Q201 320 185 338T168 390Q168 410 174 437L193 534Q195 550 195 554Q195 577 179 586T121 595L151 744H229Q316 744 353 722T391 647Q391 626 385 597L351 424L349
408Q349 396 355 391T377 386H419L388 233H346Q327 233 318 225T304 194L270 22Q259 -34 235 -66T168 -112T55 -126H-23L7 23Q56 23 76 36T103 84L122 181Q133 239 160 268Z" />
<glyph unicode="~" glyph-name="asciitilde" horiz-adv-x="516" d="M225 423T243 415T284 393Q307 377 319 377Q334 377 345 388T361 420H494Q474 324 436 278T336 232Q308 232 289 240T250 263Q227 279 215 279Q187 279 178 236H44Q63 332 100 377T198 423Q225
423 243 415Z" />
<glyph unicode="&#xa0;" glyph-name="uni00A0" horiz-adv-x="211" />
<glyph unicode="&#xa1;" glyph-name="exclamdown" horiz-adv-x="279" d="M128 363T105 386T81 447Q81 492 110 521T184 551Q223 551 246 528T270 466Q270 420 241 392T167 363Q128 363 105 386ZM-39 -156L-2 26L86 293H207L190 26L153 -156H-39Z" />
<glyph unicode="&#xa2;" glyph-name="cent" horiz-adv-x="578" d="M365 153T396 213L545 134Q513 77 457 42T328 -4L297 -160H147L180 7Q105 32 63 93T20 241Q20 324 53 390T147 497T287 548L319 707H468L434 536Q482 519 517 487T571 409L409 333Q398 359 377
373T327 387Q283 387 254 350T225 255Q225 208 246 181T304 153Q365 153 396 213Z" />
<glyph unicode="&#xa3;" glyph-name="sterling" horiz-adv-x="562" d="M358 536T343 464L325 375H488L475 307H312L282 156H529L497 0H-31L0 156H73L103 307H31L44 375H117L136 468Q158 583 236 646T434 710Q497 710 550 688T637 626L531 473Q478 536 422 536Q358
536 343 464Z" />
<glyph unicode="&#xa4;" glyph-name="currency" horiz-adv-x="783" d="M658 259T628 202L730 101L617 -12L514 92Q460 66 400 66Q340 66 288 92L184 -12L71 101L173 202Q143 259 143 322Q143 382 170 436L71 534L184 647L282 549Q335 578 400 578Q462 578 520
549L617 647L730 534L631 436Q658 382 658 322Q658 259 628 202ZM442 224T471 252T501 322Q501 363 472 392T400 422Q359 422 330 393T301 322Q301 281 330 253T400 224Q442 224 471 252Z" />
<glyph unicode="&#xa5;" glyph-name="yen" horiz-adv-x="684" d="M795 701L542 335H667L654 267H495L464 223V219H645L632 151H453L428 0H220L245 151H58L72 219H256V221L239 267H80L94 335H214L80 701H287L393 416L587 701H795Z" />
<glyph unicode="&#xa6;" glyph-name="brokenbar" horiz-adv-x="315" d="M338 799L270 459H120L188 799H338ZM225 235L157 -106H7L75 235H225Z" />
<glyph unicode="&#xa7;" glyph-name="section" horiz-adv-x="576" d="M167 -85T93 -58T-37 19L43 136Q95 95 146 73T240 50Q260 50 271 56T282 75Q282 89 263 101T202 130Q149 153 116 172T58 222T33 295Q33 348 65 386T159 445Q119 485 119 530Q119 574 148 610T228
667T339 688Q408 688 476 665T606 598L522 482Q471 517 424 536T343 556Q325 556 315 550T304 531Q304 516 324 504T388 472Q439 450 473 431T533 380T558 307Q558 256 526 217T434 157Q472 119 472 72Q472 29 442 -7T360 -64T245 -85Q167 -85 93 -58ZM341 265T354
272T367 293Q367 312 337 326T267 341Q244 341 232 333T219 311Q219 293 249 279T317 265Q341 265 354 272Z" />
<glyph unicode="&#xa8;" glyph-name="dieresis" horiz-adv-x="492" d="M279 774T297 755T316 705Q316 665 287 637T216 608Q185 608 166 627T147 676Q147 717 176 745T248 774Q279 774 297 755ZM476 774T494 755T512 705Q512 665 483 637T413 608Q382 608 363
627T344 676Q344 717 373 745T445 774Q476 774 494 755Z" />
<glyph unicode="&#xa9;" glyph-name="copyright" horiz-adv-x="728" d="M473 689T550 644T673 520T718 350Q718 259 673 181T550 56T378 9Q285 9 208 55T86 179T41 348Q41 439 86 517T208 642T380 689Q473 689 550 644ZM311 598T255 564T165 473T132 348Q132 281
164 224T253 134T378 100Q447 100 504 134T594 225T627 350Q627 417 594 474T505 564T380 598Q311 598 255 564ZM423 512T459 497T519 455L465 390Q449 410 429 421T389 433Q355 433 333 410T311 351Q311 315 333 292T389 268Q407 268 428 278T465 304L519 246Q493
217 457 201T383 184Q335 184 297 205T236 264T214 349Q214 395 236 432T298 491T387 512Q423 512 459 497Z" />
<glyph unicode="&#xaa;" glyph-name="ordfeminine" horiz-adv-x="398" d="M368 790T407 766T447 694Q447 678 445 670L402 458H268L275 494Q239 452 185 452Q133 452 102 475T71 538Q71 550 74 562Q82 608 119 630T226 654H307Q315 692 249 692Q209 692 149 671L136
759Q226 790 293 790Q368 790 407 766ZM265 536T289 562L295 593H243Q226 593 216 586T204 565Q201 551 208 544T232 536Q265 536 289 562Z" />
<glyph unicode="&#xab;" glyph-name="guillemotleft" horiz-adv-x="527" d="M314 459L159 263L238 80H76L-9 270L151 459H314ZM556 459L401 263L480 80H318L233 270L393 459H556Z" />
<glyph unicode="&#xac;" glyph-name="logicalnot" horiz-adv-x="590" d="M562 439L537 313L501 133H357L393 313H39L65 439H562Z" />
<glyph unicode="&#xad;" glyph-name="uni00AD" horiz-adv-x="378" d="M345 371L320 245H47L72 371H345Z" />
<glyph unicode="&#xae;" glyph-name="registered" horiz-adv-x="728" d="M473 689T550 644T673 520T718 350Q718 259 673 181T550 56T378 9Q285 9 208 55T86 179T41 348Q41 439 86 517T208 642T380 689Q473 689 550 644ZM447 100T504 134T594 225T627 350Q627
417 594 474T505 564T380 598Q311 598 255 564T165 473T132 348Q132 281 164 224T253 134T378 100Q447 100 504 134ZM521 336T469 307L532 206H429L387 290H341V206H250V516H390Q453 516 487 488T521 407Q521 336 469 307ZM341 359H390Q412 359 423 370T435 403Q435
424 424 435T390 447H341V359Z" />
<glyph unicode="&#xaf;" glyph-name="overscore" horiz-adv-x="470" d="M174 752H488L466 637H151L174 752Z" />
<glyph unicode="&#xb0;" glyph-name="degree" horiz-adv-x="394" d="M343 821T378 786T413 701Q413 652 378 617T293 582Q243 582 208 617T173 701Q173 751 208 786T293 821Q343 821 378 786ZM275 745T262 732T249 701Q249 683 262 670T293 657Q311 657 324 670T337
701Q337 719 324 732T293 745Q275 745 262 732Z" />
<glyph unicode="&#xb1;" glyph-name="plusminus" horiz-adv-x="586" d="M176 190L209 346H46L71 467H234L267 623H393L361 467H524L499 346H335L303 190H176ZM46 -8L71 118H524L499 -8H46Z" />
<glyph unicode="&#xb2;" glyph-name="uni00B2" horiz-adv-x="408" d="M246 464H418L398 360H62L75 444L260 595Q306 633 306 656Q306 669 297 676T272 683Q221 683 143 630L103 723Q208 788 298 788Q357 788 395 756T434 674Q434 639 411 604T332 528L246 464Z" />
<glyph unicode="&#xb3;" glyph-name="uni00B3" horiz-adv-x="395" d="M432 706L308 612L318 611Q361 604 385 577T410 512Q410 465 384 429T312 372T209 351Q161 353 117 367T45 406L106 493Q129 472 154 461T212 449Q244 449 263 464T283 505Q283 520 272 527T235
534H157L169 601L279 682H125L143 779H444L432 706Z" />
<glyph unicode="&#xb4;" glyph-name="acute" horiz-adv-x="354" d="M229 775L388 717L234 595L102 605L229 775Z" />
<glyph unicode="&#xb5;" glyph-name="uni00B5" horiz-adv-x="702" d="M693 544L586 0H384L397 70Q331 -8 233 -8Q220 -8 213 -7L176 -194H-26L53 202L56 221L121 544H323L265 251Q262 239 262 227Q262 197 279 179T327 161Q366 161 397 192T437 272L491 544H693Z" />
<glyph unicode="&#xb6;" glyph-name="paragraph" horiz-adv-x="668" d="M533 -106H384L531 630H447L299 -106H150L233 307H209Q116 307 77 354T37 469Q37 493 42 520Q54 580 90 630T188 711T338 742H703L533 -106Z" />
<glyph unicode="&#xb7;" glyph-name="middot" horiz-adv-x="243" d="M216 397T239 374T263 312Q263 260 226 225T136 189Q97 189 74 212T50 274Q50 326 87 361T177 397Q216 397 239 374Z" />
<glyph unicode="&#xb8;" glyph-name="cedilla" horiz-adv-x="351" d="M186 0L155 -53Q191 -62 208 -81T225 -126Q225 -182 180 -210T70 -239Q11 -239 -42 -218L4 -129Q27 -139 53 -139Q73 -139 86 -132T100 -114Q100 -103 85 -97T48 -91H26L77 10L186 0Z" />
<glyph unicode="&#xb9;" glyph-name="uni00B9" horiz-adv-x="293" d="M113 779H332L248 360H107L169 672H92L113 779Z" />
<glyph unicode="&#xba;" glyph-name="ordmasculine" horiz-adv-x="420" d="M379 789T426 748T474 637Q474 583 448 542T373 477T263 454Q182 454 135 495T87 606Q87 689 145 739T297 789Q379 789 426 748ZM260 685T243 665T225 611Q225 586 238 571T273 555Q300
555 317 575T334 628Q334 654 321 669T286 685Q260 685 243 665Z" />
<glyph unicode="&#xbb;" glyph-name="guillemotright" horiz-adv-x="528" d="M-24 80L131 276L52 459H214L299 269L139 80H-24ZM218 80L373 276L294 459H456L541 269L381 80H218Z" />
<glyph unicode="&#xbc;" glyph-name="onequarter" horiz-adv-x="969" d="M97 700H316L232 281H91L153 593H76L97 700ZM259 0H116L609 701H751L259 0ZM935 179L917 82H858L841 0H721L738 82H528L543 170L721 419H847L679 179H757L773 260H893L877 179H935Z" />
<glyph unicode="&#xbd;" glyph-name="onehalf" horiz-adv-x="953" d="M97 700H316L232 281H91L153 593H76L97 700ZM259 0H116L609 701H751L259 0ZM718 104H890L870 0H534L547 84L732 235Q778 273 778 296Q778 309 769 316T744 323Q693 323 615 270L575 363Q680
428 770 428Q829 428 867 396T906 314Q906 279 883 244T804 168L718 104Z" />
<glyph unicode="&#xbe;" glyph-name="threequarters" horiz-adv-x="1071" d="M416 627L292 533L302 532Q345 525 369 498T394 433Q394 386 368 350T296 293T193 272Q145 274 101 288T29 327L90 414Q113 393 138 382T196 370Q228 370 247 385T267 426Q267 441 256
448T219 455H141L153 522L263 603H109L127 700H428L416 627ZM361 0H218L711 701H853L361 0ZM1037 179L1019 82H960L943 0H823L840 82H630L645 170L823 419H949L781 179H859L875 260H995L979 179H1037Z" />
<glyph unicode="&#xbf;" glyph-name="questiondown" horiz-adv-x="484" d="M202 363T179 386T155 447Q155 492 184 521T258 551Q296 551 319 528T343 466Q343 420 314 392T241 363Q202 363 179 386ZM429 -36T359 -100T176 -164Q79 -164 25 -122T-29 -4Q-29 38
-15 70T20 126T75 180Q114 216 134 240T158 298H308Q301 240 278 205T217 133Q189 106 176 86T162 39Q162 -5 212 -5Q245 -5 263 15T288 79H443Q429 -36 359 -100Z" />
<glyph unicode="&#xc0;" glyph-name="Agrave" horiz-adv-x="754" d="M590 713T663 650T737 476Q737 450 730 408L651 0H443L473 158H235L205 0H-3L75 408Q93 500 146 569T280 675T459 713Q590 713 663 650ZM525 432T525 443Q525 488 499 514T427 540Q373 540 334
504T283 408L264 310H502L521 408Q525 432 525 443ZM480 928L588 758L455 748L321 870L480 928Z" />
<glyph unicode="&#xc1;" glyph-name="Aacute" horiz-adv-x="754" d="M590 713T663 650T737 476Q737 450 730 408L651 0H443L473 158H235L205 0H-3L75 408Q93 500 146 569T280 675T459 713Q590 713 663 650ZM525 432T525 443Q525 488 499 514T427 540Q373 540 334
504T283 408L264 310H502L521 408Q525 432 525 443ZM499 928L658 870L504 748L372 758L499 928Z" />
<glyph unicode="&#xc2;" glyph-name="Acircumflex" horiz-adv-x="754" d="M590 713T663 650T737 476Q737 450 730 408L651 0H443L473 158H235L205 0H-3L75 408Q93 500 146 569T280 675T459 713Q590 713 663 650ZM525 432T525 443Q525 488 499 514T427 540Q373
540 334 504T283 408L264 310H502L521 408Q525 432 525 443ZM669 755H535L486 824L410 755H276L416 912H589L669 755Z" />
<glyph unicode="&#xc3;" glyph-name="Atilde" horiz-adv-x="754" d="M590 713T663 650T737 476Q737 450 730 408L651 0H443L473 158H235L205 0H-3L75 408Q93 500 146 569T280 675T459 713Q590 713 663 650ZM525 432T525 443Q525 488 499 514T427 540Q373 540 334
504T283 408L264 310H502L521 408Q525 432 525 443ZM680 834T648 793T563 752Q538 752 518 759T476 780Q450 795 438 795Q410 795 401 755H293Q309 839 342 880T428 922Q452 922 471 915T514 895Q525 889 535 885T552 880Q567 880 575 889T589 919H697Q680 834
648 793Z" />
<glyph unicode="&#xc4;" glyph-name="Adieresis" horiz-adv-x="754" d="M590 713T663 650T737 476Q737 450 730 408L651 0H443L473 158H235L205 0H-3L75 408Q93 500 146 569T280 675T459 713Q590 713 663 650ZM525 432T525 443Q525 488 499 514T427 540Q373 540
334 504T283 408L264 310H502L521 408Q525 432 525 443ZM437 919T455 900T474 850Q474 810 445 782T374 753Q343 753 324 772T305 821Q305 862 334 890T406 919Q437 919 455 900ZM634 919T652 900T670 850Q670 810 641 782T571 753Q540 753 521 772T502 821Q502
862 531 890T603 919Q634 919 652 900Z" />
<glyph unicode="&#xc5;" glyph-name="Aring" horiz-adv-x="754" d="M590 713T663 650T737 476Q737 450 730 408L651 0H443L473 158H235L205 0H-3L75 408Q93 500 146 569T280 675T459 713Q590 713 663 650ZM525 432T525 443Q525 488 499 514T427 540Q373 540 334
504T283 408L264 310H502L521 408Q525 432 525 443ZM553 978T583 947T614 871Q614 835 595 804T545 755T477 736Q430 736 400 766T369 842Q369 878 388 909T439 959T506 978Q553 978 583 947ZM478 898T464 884T450 850Q450 835 460 825T486 815Q505 815 519 829T533
862Q533 877 523 887T497 898Q478 898 464 884Z" />
<glyph unicode="&#xc6;" glyph-name="AE" horiz-adv-x="1129" d="M1132 541H767L745 431H1076L1044 271H713L691 160H1066L1034 0H451L478 133H250L156 0H-62L471 701H1164L1132 541ZM357 283H508L559 542H541L357 283Z" />
<glyph unicode="&#xc7;" glyph-name="Ccedilla" horiz-adv-x="716" d="M627 67T554 32T407 -12L383 -53Q419 -62 436 -81T453 -126Q453 -182 408 -210T298 -239Q239 -239 186 -218L232 -129Q255 -139 281 -139Q301 -139 314 -132T328 -114Q328 -103 313 -97T276
-91H254L296 -7Q218 8 160 53T69 167T37 319Q37 430 92 520T243 662T453 714Q532 714 607 680T731 589L595 446Q566 490 524 515T438 541Q388 541 345 514T277 440T251 336Q251 288 270 250T323 190T401 168Q442 168 489 190T576 250L683 122Q627 67 554 32Z" />
<glyph unicode="&#xc8;" glyph-name="Egrave" horiz-adv-x="674" d="M525 717T595 702T706 663L611 511Q572 529 526 539T434 550Q378 550 344 531T310 481Q310 459 330 447T383 435H567L537 281H353Q301 281 268 263T235 213Q235 185 264 169T341 153Q399 153
461 170T568 214L617 63Q553 28 465 7T288 -14Q212 -14 149 7T49 67T12 160Q12 178 14 187Q24 252 73 300T198 370Q160 388 140 421T119 497Q119 515 121 525Q137 614 225 665T450 717Q525 717 595 702ZM469 936L577 766L444 756L310 878L469 936Z" />
<glyph unicode="&#xc9;" glyph-name="Eacute" horiz-adv-x="674" d="M525 717T595 702T706 663L611 511Q572 529 526 539T434 550Q378 550 344 531T310 481Q310 459 330 447T383 435H567L537 281H353Q301 281 268 263T235 213Q235 185 264 169T341 153Q399 153
461 170T568 214L617 63Q553 28 465 7T288 -14Q212 -14 149 7T49 67T12 160Q12 178 14 187Q24 252 73 300T198 370Q160 388 140 421T119 497Q119 515 121 525Q137 614 225 665T450 717Q525 717 595 702ZM488 936L647 878L493 756L361 766L488 936Z" />
<glyph unicode="&#xca;" glyph-name="Ecircumflex" horiz-adv-x="674" d="M525 717T595 702T706 663L611 511Q572 529 526 539T434 550Q378 550 344 531T310 481Q310 459 330 447T383 435H567L537 281H353Q301 281 268 263T235 213Q235 185 264 169T341 153Q399
153 461 170T568 214L617 63Q553 28 465 7T288 -14Q212 -14 149 7T49 67T12 160Q12 178 14 187Q24 252 73 300T198 370Q160 388 140 421T119 497Q119 515 121 525Q137 614 225 665T450 717Q525 717 595 702ZM658 763H524L475 832L399 763H265L405 920H578L658 763Z"
/>
<glyph unicode="&#xcb;" glyph-name="Edieresis" horiz-adv-x="674" d="M525 717T595 702T706 663L611 511Q572 529 526 539T434 550Q378 550 344 531T310 481Q310 459 330 447T383 435H567L537 281H353Q301 281 268 263T235 213Q235 185 264 169T341 153Q399
153 461 170T568 214L617 63Q553 28 465 7T288 -14Q212 -14 149 7T49 67T12 160Q12 178 14 187Q24 252 73 300T198 370Q160 388 140 421T119 497Q119 515 121 525Q137 614 225 665T450 717Q525 717 595 702ZM426 927T444 908T463 858Q463 818 434 790T363 761Q332
761 313 780T294 829Q294 870 323 898T395 927Q426 927 444 908ZM623 927T641 908T659 858Q659 818 630 790T560 761Q529 761 510 780T491 829Q491 870 520 898T592 927Q623 927 641 908Z" />
<glyph unicode="&#xcc;" glyph-name="Igrave" horiz-adv-x="516" d="M528 541H416L340 160H451L420 0H-11L20 160H132L208 541H97L129 701H560L528 541ZM362 928L470 758L337 748L203 870L362 928Z" />
<glyph unicode="&#xcd;" glyph-name="Iacute" horiz-adv-x="516" d="M528 541H416L340 160H451L420 0H-11L20 160H132L208 541H97L129 701H560L528 541ZM381 928L540 870L386 748L254 758L381 928Z" />
<glyph unicode="&#xce;" glyph-name="Icircumflex" horiz-adv-x="516" d="M528 541H416L340 160H451L420 0H-11L20 160H132L208 541H97L129 701H560L528 541ZM551 755H417L368 824L292 755H158L298 912H471L551 755Z" />
<glyph unicode="&#xcf;" glyph-name="Idieresis" horiz-adv-x="516" d="M528 541H416L340 160H451L420 0H-11L20 160H132L208 541H97L129 701H560L528 541ZM319 919T337 900T356 850Q356 810 327 782T256 753Q225 753 206 772T187 821Q187 862 216 890T288 919Q319
919 337 900ZM516 919T534 900T552 850Q552 810 523 782T453 753Q422 753 403 772T384 821Q384 862 413 890T485 919Q516 919 534 900Z" />
<glyph unicode="&#xd0;" glyph-name="Eth" horiz-adv-x="764" d="M540 701T616 662T730 551T764 385Q758 272 700 185T543 49T322 0H5L65 305H-3L15 396H84L144 701H436Q540 701 616 662ZM554 445T515 491T406 537H320L292 396H421L403 305H274L246 163H360Q411
163 453 189T521 262T550 370Q554 445 515 491Z" />
<glyph unicode="&#xd1;" glyph-name="Ntilde" horiz-adv-x="763" d="M656 713T707 662T759 522Q759 489 752 455L660 0H450L530 405Q534 429 534 438Q534 479 511 502T447 526Q390 526 347 490T291 394L212 0H4L144 701H352L332 599Q378 654 438 683T566 713Q656
713 707 662ZM723 834T691 793T606 752Q581 752 561 759T519 780Q493 795 481 795Q453 795 444 755H336Q352 839 385 880T471 922Q495 922 514 915T557 895Q568 889 578 885T595 880Q610 880 618 889T632 919H740Q723 834 691 793Z" />
<glyph unicode="&#xd2;" glyph-name="Ograve" horiz-adv-x="809" d="M559 714T638 672T761 554T805 384Q805 273 749 182T597 39T384 -14Q283 -14 204 29T81 147T37 319Q37 430 93 520T245 662T458 714Q559 714 638 672ZM394 541T350 514T278 438T251 333Q251
284 271 245T327 182T404 159Q454 159 497 187T565 263T591 370Q591 418 572 457T519 518T443 541Q394 541 350 514ZM473 928L581 758L448 748L314 870L473 928Z" />
<glyph unicode="&#xd3;" glyph-name="Oacute" horiz-adv-x="809" d="M559 714T638 672T761 554T805 384Q805 273 749 182T597 39T384 -14Q283 -14 204 29T81 147T37 319Q37 430 93 520T245 662T458 714Q559 714 638 672ZM394 541T350 514T278 438T251 333Q251
284 271 245T327 182T404 159Q454 159 497 187T565 263T591 370Q591 418 572 457T519 518T443 541Q394 541 350 514ZM492 928L651 870L497 748L365 758L492 928Z" />
<glyph unicode="&#xd4;" glyph-name="Ocircumflex" horiz-adv-x="809" d="M559 714T638 672T761 554T805 384Q805 273 749 182T597 39T384 -14Q283 -14 204 29T81 147T37 319Q37 430 93 520T245 662T458 714Q559 714 638 672ZM394 541T350 514T278 438T251 333Q251
284 271 245T327 182T404 159Q454 159 497 187T565 263T591 370Q591 418 572 457T519 518T443 541Q394 541 350 514ZM662 755H528L479 824L403 755H269L409 912H582L662 755Z" />
<glyph unicode="&#xd5;" glyph-name="Otilde" horiz-adv-x="809" d="M559 714T638 672T761 554T805 384Q805 273 749 182T597 39T384 -14Q283 -14 204 29T81 147T37 319Q37 430 93 520T245 662T458 714Q559 714 638 672ZM394 541T350 514T278 438T251 333Q251
284 271 245T327 182T404 159Q454 159 497 187T565 263T591 370Q591 418 572 457T519 518T443 541Q394 541 350 514ZM673 834T641 793T556 752Q531 752 511 759T469 780Q443 795 431 795Q403 795 394 755H286Q302 839 335 880T421 922Q445 922 464 915T507 895Q518
889 528 885T545 880Q560 880 568 889T582 919H690Q673 834 641 793Z" />
<glyph unicode="&#xd6;" glyph-name="Odieresis" horiz-adv-x="809" d="M559 714T638 672T761 554T805 384Q805 273 749 182T597 39T384 -14Q283 -14 204 29T81 147T37 319Q37 430 93 520T245 662T458 714Q559 714 638 672ZM394 541T350 514T278 438T251 333Q251
284 271 245T327 182T404 159Q454 159 497 187T565 263T591 370Q591 418 572 457T519 518T443 541Q394 541 350 514ZM430 919T448 900T467 850Q467 810 438 782T367 753Q336 753 317 772T298 821Q298 862 327 890T399 919Q430 919 448 900ZM627 919T645 900T663
850Q663 810 634 782T564 753Q533 753 514 772T495 821Q495 862 524 890T596 919Q627 919 645 900Z" />
<glyph unicode="&#xd7;" glyph-name="multiply" horiz-adv-x="561" d="M497 443L382 328L497 213L408 123L292 238L177 123L87 213L202 328L87 443L177 533L292 418L408 533L497 443Z" />
<glyph unicode="&#xd8;" glyph-name="Oslash" horiz-adv-x="809" d="M748 588T776 524T805 384Q805 273 749 182T597 39T384 -14Q299 -14 228 17L174 -55H53L146 68Q94 113 66 178T37 319Q37 430 93 520T245 662T458 714Q540 714 613 684L667 755H788L695 633Q748
588 776 524ZM251 281T275 238L497 530Q470 541 443 541Q394 541 350 514T278 438T251 333Q251 281 275 238ZM454 159T497 187T565 263T591 370Q591 424 568 465L346 172Q372 159 404 159Q454 159 497 187Z" />
<glyph unicode="&#xd9;" glyph-name="Ugrave" horiz-adv-x="763" d="M138 -12T87 39T36 178Q36 212 43 246L134 701H345L264 295Q260 271 260 262Q260 222 283 199T348 175Q405 175 447 211T503 307L582 701H790L650 0H442L463 102Q417 47 357 18T228 -12Q138
-12 87 39ZM485 928L593 758L460 748L326 870L485 928Z" />
<glyph unicode="&#xda;" glyph-name="Uacute" horiz-adv-x="763" d="M138 -12T87 39T36 178Q36 212 43 246L134 701H345L264 295Q260 271 260 262Q260 222 283 199T348 175Q405 175 447 211T503 307L582 701H790L650 0H442L463 102Q417 47 357 18T228 -12Q138
-12 87 39ZM504 928L663 870L509 748L377 758L504 928Z" />
<glyph unicode="&#xdb;" glyph-name="Ucircumflex" horiz-adv-x="763" d="M138 -12T87 39T36 178Q36 212 43 246L134 701H345L264 295Q260 271 260 262Q260 222 283 199T348 175Q405 175 447 211T503 307L582 701H790L650 0H442L463 102Q417 47 357 18T228 -12Q138
-12 87 39ZM674 755H540L491 824L415 755H281L421 912H594L674 755Z" />
<glyph unicode="&#xdc;" glyph-name="Udieresis" horiz-adv-x="763" d="M138 -12T87 39T36 178Q36 212 43 246L134 701H345L264 295Q260 271 260 262Q260 222 283 199T348 175Q405 175 447 211T503 307L582 701H790L650 0H442L463 102Q417 47 357 18T228 -12Q138
-12 87 39ZM442 919T460 900T479 850Q479 810 450 782T379 753Q348 753 329 772T310 821Q310 862 339 890T411 919Q442 919 460 900ZM639 919T657 900T675 850Q675 810 646 782T576 753Q545 753 526 772T507 821Q507 862 536 890T608 919Q639 919 657 900Z" />
<glyph unicode="&#xdd;" glyph-name="Yacute" horiz-adv-x="745" d="M783 701L680 183Q662 93 609 28T476 -73T298 -109Q211 -109 132 -81T5 -7L103 124Q137 96 187 81T283 65Q355 65 409 104T476 204L485 247Q445 202 393 178T280 153Q184 153 129 210T73 362Q73
396 80 430L134 701H342L289 433Q286 418 286 405Q286 369 307 350T370 331Q427 331 471 368T527 462L575 701H783ZM496 928L655 870L501 748L369 758L496 928Z" />
<glyph unicode="&#xde;" glyph-name="Thorn" horiz-adv-x="707" d="M563 612T630 558T697 410Q697 322 653 253T528 146T343 107H233L212 0H4L144 701H352L334 612H445Q563 612 630 558ZM418 265T448 297T479 381Q479 415 460 434T404 453H302L265 265H367Q418
265 448 297Z" />
<glyph unicode="&#xdf;" glyph-name="germandbls" horiz-adv-x="670" d="M484 751T539 729T625 665T656 571Q656 517 623 466T534 384Q580 367 606 327T633 235Q633 167 591 114T473 30T301 0H253L282 142H313Q373 142 404 165T436 233Q436 293 338 293H317L345
435Q399 435 427 462T455 541Q455 570 440 585T395 601Q315 601 297 509L195 0H-7L92 494Q115 613 201 682T412 751Q484 751 539 729Z" />
<glyph unicode="&#xe0;" glyph-name="agrave" horiz-adv-x="720" d="M164 -7T117 23T44 106T18 230Q18 319 55 392T158 508T302 551Q358 551 399 529T463 463L479 544H681L614 209Q611 197 611 189Q611 176 618 171T640 165Q662 165 683 174L648 -1Q613 -9 588
-9Q528 -9 489 17T430 97L426 109Q386 53 334 23T224 -7Q164 -7 117 23ZM337 144T364 163T408 216T424 288Q424 332 401 359T339 386Q307 386 281 367T238 315T222 243Q222 197 244 171T305 144Q337 144 364 163ZM394 775L502 605L369 595L235 717L394 775Z" />
<glyph unicode="&#xe1;" glyph-name="aacute" horiz-adv-x="720" d="M164 -7T117 23T44 106T18 230Q18 319 55 392T158 508T302 551Q358 551 399 529T463 463L479 544H681L614 209Q611 197 611 189Q611 176 618 171T640 165Q662 165 683 174L648 -1Q613 -9 588
-9Q528 -9 489 17T430 97L426 109Q386 53 334 23T224 -7Q164 -7 117 23ZM337 144T364 163T408 216T424 288Q424 332 401 359T339 386Q307 386 281 367T238 315T222 243Q222 197 244 171T305 144Q337 144 364 163ZM414 775L573 717L419 595L287 605L414 775Z" />
<glyph unicode="&#xe2;" glyph-name="acircumflex" horiz-adv-x="720" d="M164 -7T117 23T44 106T18 230Q18 319 55 392T158 508T302 551Q358 551 399 529T463 463L479 544H681L614 209Q611 197 611 189Q611 176 618 171T640 165Q662 165 683 174L648 -1Q613 -9
588 -9Q528 -9 489 17T430 97L426 109Q386 53 334 23T224 -7Q164 -7 117 23ZM337 144T364 163T408 216T424 288Q424 332 401 359T339 386Q307 386 281 367T238 315T222 243Q222 197 244 171T305 144Q337 144 364 163ZM585 609H451L402 678L326 609H192L332 766H505L585
609Z" />
<glyph unicode="&#xe3;" glyph-name="atilde" horiz-adv-x="720" d="M164 -7T117 23T44 106T18 230Q18 319 55 392T158 508T302 551Q358 551 399 529T463 463L479 544H681L614 209Q611 197 611 189Q611 176 618 171T640 165Q662 165 683 174L648 -1Q613 -9 588
-9Q528 -9 489 17T430 97L426 109Q386 53 334 23T224 -7Q164 -7 117 23ZM337 144T364 163T408 216T424 288Q424 332 401 359T339 386Q307 386 281 367T238 315T222 243Q222 197 244 171T305 144Q337 144 364 163ZM594 678T562 637T477 596Q452 596 432 603T390
624Q364 639 352 639Q324 639 315 599H207Q223 683 256 724T342 766Q366 766 385 759T428 739Q439 733 449 729T466 724Q481 724 489 733T503 763H611Q594 678 562 637Z" />
<glyph unicode="&#xe4;" glyph-name="adieresis" horiz-adv-x="720" d="M164 -7T117 23T44 106T18 230Q18 319 55 392T158 508T302 551Q358 551 399 529T463 463L479 544H681L614 209Q611 197 611 189Q611 176 618 171T640 165Q662 165 683 174L648 -1Q613 -9
588 -9Q528 -9 489 17T430 97L426 109Q386 53 334 23T224 -7Q164 -7 117 23ZM337 144T364 163T408 216T424 288Q424 332 401 359T339 386Q307 386 281 367T238 315T222 243Q222 197 244 171T305 144Q337 144 364 163ZM353 774T371 755T390 705Q390 665 361 637T290
608Q259 608 240 627T221 676Q221 717 250 745T322 774Q353 774 371 755ZM550 774T568 755T586 705Q586 665 557 637T487 608Q456 608 437 627T418 676Q418 717 447 745T519 774Q550 774 568 755Z" />
<glyph unicode="&#xe5;" glyph-name="aring" horiz-adv-x="720" d="M164 -7T117 23T44 106T18 230Q18 319 55 392T158 508T302 551Q358 551 399 529T463 463L479 544H681L614 209Q611 197 611 189Q611 176 618 171T640 165Q662 165 683 174L648 -1Q613 -9 588
-9Q528 -9 489 17T430 97L426 109Q386 53 334 23T224 -7Q164 -7 117 23ZM337 144T364 163T408 216T424 288Q424 332 401 359T339 386Q307 386 281 367T238 315T222 243Q222 197 244 171T305 144Q337 144 364 163ZM467 821T497 790T528 714Q528 678 509 647T459
598T391 579Q344 579 314 609T283 685Q283 721 302 752T353 802T420 821Q467 821 497 790ZM392 741T378 727T364 693Q364 678 374 668T400 658Q419 658 433 672T447 705Q447 720 437 730T411 741Q392 741 378 727Z" />
<glyph unicode="&#xe6;" glyph-name="ae" horiz-adv-x="951" d="M795 551T862 485T929 304Q929 285 928 276L570 202Q581 174 602 158T655 142Q688 142 723 159T790 207L898 101Q848 48 782 21T641 -7Q566 -7 510 21T422 100Q385 45 328 18T196 -10Q106 -10 54
33T2 151Q2 235 59 280T225 327H363L364 341Q364 401 279 401Q243 401 198 390T108 361L64 497Q203 552 329 552Q446 552 504 500Q577 551 678 551Q795 551 862 485ZM742 347Q739 380 721 397T672 414Q631 414 602 384T564 305L742 347ZM355 228H263Q232 228 214
213T192 170Q190 147 204 135T246 123Q278 123 306 139T349 180L355 228Z" />
<glyph unicode="&#xe7;" glyph-name="ccedilla" horiz-adv-x="578" d="M365 153T396 213L545 134Q511 73 450 37T309 -6L281 -53Q317 -62 334 -81T351 -126Q351 -182 306 -210T196 -239Q137 -239 84 -218L130 -129Q153 -139 179 -139Q199 -139 212 -132T226 -114Q226
-103 211 -97T174 -91H152L199 2Q115 22 68 85T20 241Q20 332 60 402T171 512T335 551Q420 551 481 514T571 409L409 333Q398 359 377 373T327 387Q283 387 254 350T225 255Q225 208 246 181T304 153Q365 153 396 213Z" />
<glyph unicode="&#xe8;" glyph-name="egrave" horiz-adv-x="606" d="M457 551T525 488T594 314Q594 294 593 284L234 207Q245 176 268 159T324 142Q356 142 390 158T456 205L559 104Q453 -7 293 -7Q210 -7 149 24T54 111T20 242Q20 332 60 402T172 511T338 551Q457
551 525 488ZM400 347Q397 379 379 396T332 414Q293 414 266 386T229 310L400 347ZM364 775L472 605L339 595L205 717L364 775Z" />
<glyph unicode="&#xe9;" glyph-name="eacute" horiz-adv-x="606" d="M457 551T525 488T594 314Q594 294 593 284L234 207Q245 176 268 159T324 142Q356 142 390 158T456 205L559 104Q453 -7 293 -7Q210 -7 149 24T54 111T20 242Q20 332 60 402T172 511T338 551Q457
551 525 488ZM400 347Q397 379 379 396T332 414Q293 414 266 386T229 310L400 347ZM384 775L543 717L389 595L257 605L384 775Z" />
<glyph unicode="&#xea;" glyph-name="ecircumflex" horiz-adv-x="606" d="M457 551T525 488T594 314Q594 294 593 284L234 207Q245 176 268 159T324 142Q356 142 390 158T456 205L559 104Q453 -7 293 -7Q210 -7 149 24T54 111T20 242Q20 332 60 402T172 511T338
551Q457 551 525 488ZM400 347Q397 379 379 396T332 414Q293 414 266 386T229 310L400 347ZM555 609H421L372 678L296 609H162L302 766H475L555 609Z" />
<glyph unicode="&#xeb;" glyph-name="edieresis" horiz-adv-x="606" d="M457 551T525 488T594 314Q594 294 593 284L234 207Q245 176 268 159T324 142Q356 142 390 158T456 205L559 104Q453 -7 293 -7Q210 -7 149 24T54 111T20 242Q20 332 60 402T172 511T338
551Q457 551 525 488ZM400 347Q397 379 379 396T332 414Q293 414 266 386T229 310L400 347ZM323 774T341 755T360 705Q360 665 331 637T260 608Q229 608 210 627T191 676Q191 717 220 745T292 774Q323 774 341 755ZM520 774T538 755T556 705Q556 665 527 637T457
608Q426 608 407 627T388 676Q388 717 417 745T489 774Q520 774 538 755Z" />
<glyph unicode="&#xec;" glyph-name="igrave" horiz-adv-x="325" d="M318 544L209 0H7L116 544H318ZM235 775L343 605L210 595L76 717L235 775Z" />
<glyph unicode="&#xed;" glyph-name="iacute" horiz-adv-x="325" d="M318 544L209 0H7L116 544H318ZM255 775L414 717L260 595L128 605L255 775Z" />
<glyph unicode="&#xee;" glyph-name="icircumflex" horiz-adv-x="325" d="M318 544L209 0H7L116 544H318ZM426 609H292L243 678L167 609H33L173 766H346L426 609Z" />
<glyph unicode="&#xef;" glyph-name="idieresis" horiz-adv-x="325" d="M318 544L209 0H7L116 544H318ZM196 774T214 755T233 705Q233 665 204 637T133 608Q102 608 84 627T65 676Q65 717 94 745T165 774Q196 774 214 755ZM388 774T406 755T425 705Q425 665 396
637T326 608Q295 608 276 627T257 676Q257 717 286 745T357 774Q388 774 406 755Z" />
<glyph unicode="&#xf0;" glyph-name="eth" horiz-adv-x="614" d="M483 619Q539 558 569 485T599 332Q599 233 558 156T441 36T268 -7Q188 -7 130 19T40 94T8 207Q8 277 38 332T122 418T248 449Q296 449 341 434T410 397Q395 474 322 552L145 479L116 548L260 608Q208
648 148 677L290 751Q360 722 421 676L585 744L613 673L483 619ZM318 158T346 185T374 250Q374 279 355 296T300 314Q257 314 229 287T201 220Q201 192 220 175T273 158Q318 158 346 185Z" />
<glyph unicode="&#xf1;" glyph-name="ntilde" horiz-adv-x="712" d="M106 336Q109 348 109 356Q109 380 80 380Q61 380 37 371L72 546Q104 553 132 553Q257 553 290 447L296 425Q335 487 386 519T499 551Q582 551 631 502T681 372Q681 350 676 322L611 0H409L468
292Q470 308 470 315Q470 347 453 365T405 383Q366 383 336 352T295 271L241 0H39L106 336ZM651 678T619 637T534 596Q509 596 489 603T447 624Q421 639 409 639Q381 639 372 599H264Q280 683 313 724T399 766Q423 766 442 759T485 739Q496 733 506 729T523 724Q538
724 546 733T560 763H668Q651 678 619 637Z" />
<glyph unicode="&#xf2;" glyph-name="ograve" horiz-adv-x="649" d="M437 551T499 520T595 433T629 300Q629 209 587 140T470 32T297 -7Q213 -7 151 24T55 112T21 245Q21 335 63 404T180 512T353 551Q437 551 499 520ZM288 391T257 353T226 254Q226 206 249 178T313
149Q362 149 393 186T424 285Q424 333 401 362T337 391Q288 391 257 353ZM370 775L478 605L345 595L211 717L370 775Z" />
<glyph unicode="&#xf3;" glyph-name="oacute" horiz-adv-x="649" d="M437 551T499 520T595 433T629 300Q629 209 587 140T470 32T297 -7Q213 -7 151 24T55 112T21 245Q21 335 63 404T180 512T353 551Q437 551 499 520ZM288 391T257 353T226 254Q226 206 249 178T313
149Q362 149 393 186T424 285Q424 333 401 362T337 391Q288 391 257 353ZM390 775L549 717L395 595L263 605L390 775Z" />
<glyph unicode="&#xf4;" glyph-name="ocircumflex" horiz-adv-x="649" d="M437 551T499 520T595 433T629 300Q629 209 587 140T470 32T297 -7Q213 -7 151 24T55 112T21 245Q21 335 63 404T180 512T353 551Q437 551 499 520ZM288 391T257 353T226 254Q226 206 249
178T313 149Q362 149 393 186T424 285Q424 333 401 362T337 391Q288 391 257 353ZM561 609H427L378 678L302 609H168L308 766H481L561 609Z" />
<glyph unicode="&#xf5;" glyph-name="otilde" horiz-adv-x="649" d="M437 551T499 520T595 433T629 300Q629 209 587 140T470 32T297 -7Q213 -7 151 24T55 112T21 245Q21 335 63 404T180 512T353 551Q437 551 499 520ZM288 391T257 353T226 254Q226 206 249 178T313
149Q362 149 393 186T424 285Q424 333 401 362T337 391Q288 391 257 353ZM570 678T538 637T453 596Q428 596 408 603T366 624Q340 639 328 639Q300 639 291 599H183Q199 683 232 724T318 766Q342 766 361 759T404 739Q415 733 425 729T442 724Q457 724 465 733T479
763H587Q570 678 538 637Z" />
<glyph unicode="&#xf6;" glyph-name="odieresis" horiz-adv-x="649" d="M437 551T499 520T595 433T629 300Q629 209 587 140T470 32T297 -7Q213 -7 151 24T55 112T21 245Q21 335 63 404T180 512T353 551Q437 551 499 520ZM288 391T257 353T226 254Q226 206 249
178T313 149Q362 149 393 186T424 285Q424 333 401 362T337 391Q288 391 257 353ZM329 774T347 755T366 705Q366 665 337 637T266 608Q235 608 216 627T197 676Q197 717 226 745T298 774Q329 774 347 755ZM526 774T544 755T562 705Q562 665 533 637T463 608Q432
608 413 627T394 676Q394 717 423 745T495 774Q526 774 544 755Z" />
<glyph unicode="&#xf7;" glyph-name="divide" horiz-adv-x="515" d="M357 594T376 575T395 524Q395 481 365 452T291 422Q259 422 240 441T220 492Q220 535 250 564T325 594Q357 594 376 575ZM508 391L483 265H30L55 391H508ZM286 235T305 216T324 165Q324 122
294 93T220 63Q188 63 169 82T149 133Q149 176 179 205T254 235Q286 235 305 216Z" />
<glyph unicode="&#xf8;" glyph-name="oslash" horiz-adv-x="649" d="M578 469T603 418T629 300Q629 209 587 140T470 32T297 -7Q241 -7 188 9L124 -83H37L123 40Q74 73 48 125T21 245Q21 335 63 404T180 512T353 551Q414 551 467 534L532 627H619L531 501Q578
469 603 418ZM213 214T226 188L374 400Q358 406 339 406Q284 406 249 363T213 253Q213 214 226 188ZM366 133T401 176T437 287Q437 324 425 349L278 138Q295 133 311 133Q366 133 401 176Z" />
<glyph unicode="&#xf9;" glyph-name="ugrave" horiz-adv-x="712" d="M606 208Q603 198 603 188Q603 164 632 164Q651 164 675 173L640 -2Q608 -9 580 -9Q455 -9 422 97L416 119Q377 57 326 25T213 -7Q131 -7 81 43T31 172Q31 194 36 222L101 544H303L244 252Q242
236 242 229Q242 197 259 179T307 161Q346 161 376 192T417 273L471 544H673L606 208ZM413 775L521 605L388 595L254 717L413 775Z" />
<glyph unicode="&#xfa;" glyph-name="uacute" horiz-adv-x="712" d="M606 208Q603 198 603 188Q603 164 632 164Q651 164 675 173L640 -2Q608 -9 580 -9Q455 -9 422 97L416 119Q377 57 326 25T213 -7Q131 -7 81 43T31 172Q31 194 36 222L101 544H303L244 252Q242
236 242 229Q242 197 259 179T307 161Q346 161 376 192T417 273L471 544H673L606 208ZM433 775L592 717L438 595L306 605L433 775Z" />
<glyph unicode="&#xfb;" glyph-name="ucircumflex" horiz-adv-x="712" d="M606 208Q603 198 603 188Q603 164 632 164Q651 164 675 173L640 -2Q608 -9 580 -9Q455 -9 422 97L416 119Q377 57 326 25T213 -7Q131 -7 81 43T31 172Q31 194 36 222L101 544H303L244
252Q242 236 242 229Q242 197 259 179T307 161Q346 161 376 192T417 273L471 544H673L606 208ZM604 609H470L421 678L345 609H211L351 766H524L604 609Z" />
<glyph unicode="&#xfc;" glyph-name="udieresis" horiz-adv-x="712" d="M606 208Q603 198 603 188Q603 164 632 164Q651 164 675 173L640 -2Q608 -9 580 -9Q455 -9 422 97L416 119Q377 57 326 25T213 -7Q131 -7 81 43T31 172Q31 194 36 222L101 544H303L244 252Q242
236 242 229Q242 197 259 179T307 161Q346 161 376 192T417 273L471 544H673L606 208ZM372 774T390 755T409 705Q409 665 380 637T309 608Q278 608 259 627T240 676Q240 717 269 745T341 774Q372 774 390 755ZM569 774T587 755T605 705Q605 665 576 637T506 608Q475
608 456 627T437 676Q437 717 466 745T538 774Q569 774 587 755Z" />
<glyph unicode="&#xfd;" glyph-name="yacute" horiz-adv-x="673" d="M670 544L571 47Q556 -27 510 -83T393 -171T241 -202Q177 -202 109 -182T-4 -130L62 2Q97 -20 143 -32T227 -44Q280 -44 322 -12T375 67L387 129Q315 45 205 45Q127 45 83 89T39 208Q39 239
44 261L101 544H303L255 302Q252 287 252 275Q252 223 306 223Q348 223 381 253T427 330L469 544H670ZM430 775L589 717L435 595L303 605L430 775Z" />
<glyph unicode="&#xfe;" glyph-name="thorn" horiz-adv-x="693" d="M529 551T576 521T649 437T675 314Q675 225 638 152T535 36T391 -7Q335 -7 294 15T230 81L175 -194H-27L160 742H362L311 485Q382 551 469 551Q529 551 576 521ZM356 400T329 381T285 328T269
256Q269 211 292 185T354 158Q386 158 412 177T455 229T471 301Q471 347 449 373T388 400Q356 400 329 381Z" />
<glyph unicode="&#xff;" glyph-name="ydieresis" horiz-adv-x="673" d="M670 544L571 47Q556 -27 510 -83T393 -171T241 -202Q177 -202 109 -182T-4 -130L62 2Q97 -20 143 -32T227 -44Q280 -44 322 -12T375 67L387 129Q315 45 205 45Q127 45 83 89T39 208Q39 239
44 261L101 544H303L255 302Q252 287 252 275Q252 223 306 223Q348 223 381 253T427 330L469 544H670ZM369 774T387 755T406 705Q406 665 377 637T306 608Q275 608 256 627T237 676Q237 717 266 745T338 774Q369 774 387 755ZM566 774T584 755T602 705Q602 665
573 637T503 608Q472 608 453 627T434 676Q434 717 463 745T535 774Q566 774 584 755Z" />
<glyph unicode="&#x2013;" glyph-name="endash" horiz-adv-x="409" d="M429 371L404 245H-5L20 371H429Z" />
<glyph unicode="&#x2014;" glyph-name="emdash" horiz-adv-x="627" d="M647 371L622 245H-5L20 371H647Z" />
<glyph unicode="&#x2018;" glyph-name="quoteleft" horiz-adv-x="246" d="M265 580T265 541Q265 496 236 466T162 436Q124 436 100 458T76 521Q76 560 108 603L208 742H303L234 602Q265 580 265 541Z" />
<glyph unicode="&#x2019;" glyph-name="quoteright" horiz-adv-x="247" d="M241 742T265 720T289 657Q289 618 257 575L157 436H62L131 576Q100 598 100 637Q100 682 129 712T203 742Q241 742 265 720Z" />
<glyph unicode="&#x201a;" glyph-name="quotesinglbase" horiz-adv-x="246" d="M128 180T152 158T176 95Q176 56 144 13L44 -126H-51L18 14Q-13 36 -13 75Q-13 120 16 150T90 180Q128 180 152 158Z" />
<glyph unicode="&#x201c;" glyph-name="quotedblleft" horiz-adv-x="450" d="M265 580T265 541Q265 496 236 466T162 436Q124 436 100 458T76 521Q76 560 108 603L208 742H303L234 602Q265 580 265 541ZM469 580T469 541Q469 496 440 466T366 436Q328 436 304
458T280 521Q280 560 312 603L412 742H507L438 602Q469 580 469 541Z" />
<glyph unicode="&#x201d;" glyph-name="quotedblright" horiz-adv-x="450" d="M241 742T265 720T289 657Q289 618 257 575L157 436H62L131 576Q100 598 100 637Q100 682 129 712T203 742Q241 742 265 720ZM445 742T469 720T493 657Q493 618 461 575L361 436H266L335
576Q304 598 304 637Q304 682 333 712T407 742Q445 742 469 720Z" />
<glyph unicode="&#x201e;" glyph-name="quotedblbase" horiz-adv-x="450" d="M128 180T152 158T176 95Q176 56 144 13L44 -126H-51L18 14Q-13 36 -13 75Q-13 120 16 150T90 180Q128 180 152 158ZM332 180T356 158T380 95Q380 56 348 13L248 -126H153L222 14Q191
36 191 75Q191 120 220 150T294 180Q332 180 356 158Z" />
<glyph unicode="&#x2022;" glyph-name="bullet" horiz-adv-x="361" d="M244 421T283 382T323 280Q323 217 284 178T181 138Q119 138 80 177T40 280Q40 342 79 381T181 421Q244 421 283 382Z" />
<glyph unicode="&#x2039;" glyph-name="guilsinglleft" horiz-adv-x="284" d="M314 459L159 263L238 80H76L-9 270L151 459H314Z" />
<glyph unicode="&#x203a;" glyph-name="guilsinglright" horiz-adv-x="286" d="M-24 80L131 276L52 459H214L299 269L139 80H-24Z" />
</font>
</defs>
</svg>
