<?xml version="1.0" standalone="no"?>
<!DOCTYPE svg PUBLIC "-//W3C//DTD SVG 1.1//EN" "http://www.w3.org/Graphics/SVG/1.1/DTD/svg11.dtd">
<svg xmlns="http://www.w3.org/2000/svg">
<defs >
<font id="FiraSansCondensed" horiz-adv-x="514" ><font-face
    font-family="Fira Sans Condensed SemiBold"
    units-per-em="1000"
    panose-1="2 11 7 3 5 0 0 2 0 4"
    ascent="935"
    descent="-265"
    alphabetic="0" />
<glyph unicode=" " glyph-name="space" horiz-adv-x="207" />
<glyph unicode="!" glyph-name="exclam" horiz-adv-x="226" d="M54 247L99 692H241L162 247H54ZM47 -16T27 5T7 58Q7 96 32 123T96 150Q129 150 149 129T169 76Q169 38 143 11T79 -16Q47 -16 27 5Z" />
<glyph unicode="&quot;" glyph-name="quotedbl" horiz-adv-x="409" d="M83 418L106 692H228L173 418H83ZM278 418L301 692H423L368 418H278Z" />
<glyph unicode="#" glyph-name="numbersign" horiz-adv-x="492" d="M504 443H441L389 242H443L430 150H366L327 0H218L257 150H159L120 0H11L50 150H-3L10 242H73L125 443H71L84 535H148L184 674H293L257 535H356L392 674H501L465 535H517L504 443ZM280 242L332
443H234L182 242H280Z" />
<glyph unicode="$" glyph-name="dollar" horiz-adv-x="487" d="M380 370T417 328T454 218Q454 134 402 72T253 -6L231 -159H134L155 -9Q48 3 -18 83L59 156Q89 124 122 108T198 92Q250 92 282 121T314 201Q314 236 294 257T217 303Q139 336 104 376T69 477Q69
528 92 571T160 644T262 681L283 828H381L359 679Q440 664 499 600L428 529Q371 582 306 582Q261 582 235 559T208 495Q208 464 228 445T306 402Q380 370 417 328Z" />
<glyph unicode="%" glyph-name="percent" horiz-adv-x="767" d="M615 717L101 15L176 -37L690 665L615 717ZM141 334T103 373T65 479Q65 529 85 577T146 656T245 687Q307 687 344 649T382 544Q382 493 362 445T302 366T202 334Q141 334 103 373ZM249 416T267 456T285
543Q285 604 239 604Q197 604 180 565T162 479Q162 416 208 416Q249 416 267 456ZM481 -16T443 23T405 129Q405 180 425 227T487 306T586 337Q647 337 684 299T722 194Q722 144 702 96T641 16T542 -16Q481 -16 443 23ZM589 67T607 107T625 194Q625 255 580 255Q537
255 520 216T502 130Q502 67 548 67Q589 67 607 107Z" />
<glyph unicode="&amp;" glyph-name="ampersand" horiz-adv-x="686" d="M421 707T468 667T515 563Q515 500 478 455T364 361L471 222Q508 289 534 362L640 327Q598 234 534 148L622 44L507 -16L447 65Q398 22 350 3T244 -16Q186 -16 142 6T75 67T51 155Q51 221
85 273T199 377Q166 418 151 452T136 523Q136 574 159 615T229 682T340 707Q421 707 468 667ZM301 617T282 591T263 526Q263 502 272 480T300 433Q347 465 368 494T389 562Q389 587 375 602T335 617Q301 617 282 591ZM222 267T207 235T191 163Q191 126 211 105T269
84Q331 84 387 135L263 299Q222 267 207 235Z" />
<glyph unicode="&apos;" glyph-name="quotesingle" horiz-adv-x="214" d="M83 418L106 692H228L173 418H83Z" />
<glyph unicode="(" glyph-name="parenleft" horiz-adv-x="291" d="M350 795Q154 537 154 214Q154 119 171 47T224 -100L131 -153Q94 -79 73 -28T37 87T22 228Q22 356 50 459T130 654T270 856L350 795Z" />
<glyph unicode=")" glyph-name="parenright" horiz-adv-x="292" d="M222 778T243 728T279 613T294 471Q294 344 266 241T184 46T45 -156L-34 -96Q66 37 113 181T161 486Q161 580 144 653T91 801L184 853Q222 778 243 728Z" />
<glyph unicode="*" glyph-name="asterisk" horiz-adv-x="413" d="M438 543L304 516L383 406L277 340L234 468L158 339L68 405L175 518L52 544L98 651L211 593V741H333L292 591L416 654L438 543Z" />
<glyph unicode="+" glyph-name="plus" horiz-adv-x="472" d="M332 539L310 385H443L428 278H294L272 124H160L182 278H49L63 385H198L220 539H332Z" />
<glyph unicode="," glyph-name="comma" horiz-adv-x="224" d="M125 150T144 130T164 78Q164 56 156 35T124 -29L45 -173H-32L32 1Q5 21 5 58Q5 96 30 123T93 150Q125 150 144 130Z" />
<glyph unicode="-" glyph-name="hyphen" horiz-adv-x="367" d="M43 259L58 367H337L323 259H43Z" />
<glyph unicode="." glyph-name="period" horiz-adv-x="225" d="M44 -16T24 5T4 58Q4 96 29 123T93 150Q126 150 146 129T166 76Q166 38 140 11T76 -16Q44 -16 24 5Z" />
<glyph unicode="/" glyph-name="slash" horiz-adv-x="467" d="M356 814L469 786L135 -109L23 -80L356 814Z" />
<glyph unicode="0" glyph-name="zero" horiz-adv-x="534" d="M226 687T163 616T72 439T44 223Q44 107 91 46T229 -16Q328 -16 391 55T482 233T510 448Q510 564 463 625T325 687Q226 687 163 616ZM349 584T363 560T378 480Q378 395 362 304T314 150T235 87Q206
87 191 112T176 192Q176 276 192 367T240 521T319 584Q349 584 363 560Z" />
<glyph unicode="1" glyph-name="one" horiz-adv-x="414" d="M388 674L293 0H162L235 528L94 442L47 538L268 674H388Z" />
<glyph unicode="2" glyph-name="two" horiz-adv-x="458" d="M350 687T399 639T448 516Q448 461 423 408T333 283T150 105L404 107L374 0H-12L1 101Q136 233 197 300T284 413T309 506Q309 543 291 562T241 581Q209 581 182 564T120 511L46 579Q92 632 145 659T261
687Q350 687 399 639Z" />
<glyph unicode="3" glyph-name="three" horiz-adv-x="461" d="M348 687T395 643T442 529Q442 465 404 421T288 355Q346 349 380 315T414 222Q414 163 385 109T297 19T158 -16Q33 -16 -34 84L49 150Q73 118 99 104T159 89Q211 89 244 127T277 229Q277 269 255 286T189
304H140L169 400H201Q252 400 280 432T309 515Q309 549 291 566T240 584Q178 584 114 526L55 601Q103 645 154 666T263 687Q348 687 395 643Z" />
<glyph unicode="4" glyph-name="four" horiz-adv-x="501" d="M480 255L465 152H397L376 0H246L267 152H9L22 245L254 689L364 646L167 255H282L321 422H435L412 255H480Z" />
<glyph unicode="5" glyph-name="five" horiz-adv-x="475" d="M447 574H226L204 414Q251 438 296 438Q363 438 402 393T441 264Q441 195 412 131T322 26T174 -16Q109 -16 64 10T-13 82L70 150Q93 119 118 104T178 89Q241 89 273 140T305 258Q305 342 237 342Q216
342 198 337T156 318H63L113 674H476L447 574Z" />
<glyph unicode="6" glyph-name="six" horiz-adv-x="509" d="M403 450T442 405T481 278Q481 207 454 140T370 28T233 -16Q135 -16 88 43T41 210Q41 328 79 438T191 617T361 687Q435 687 492 642L433 562Q397 587 356 587Q303 587 261 533T196 381Q259 450 336 450Q403
450 442 405ZM277 84T301 115T336 192T347 279Q347 319 333 336T292 354Q237 354 183 283Q175 219 175 189Q175 133 190 109T239 84Q277 84 301 115Z" />
<glyph unicode="7" glyph-name="seven" horiz-adv-x="413" d="M454 674L440 579L141 -14L25 27L301 569H55L70 674H454Z" />
<glyph unicode="8" glyph-name="eight" horiz-adv-x="516" d="M478 304T478 208Q478 143 446 92T355 13T221 -16Q156 -16 110 7T39 69T15 159Q15 287 159 352Q89 403 89 484Q89 541 117 587T196 660T315 687Q400 687 452 646T505 534Q505 478 476 436T379 359Q478
304 478 208ZM261 592T239 561T217 487Q217 455 232 436T282 402L297 395Q342 424 358 455T375 526Q375 558 358 575T308 592Q261 592 239 561ZM283 84T313 118T344 208Q344 241 326 261T261 303L238 313Q150 261 150 165Q150 126 171 105T231 84Q283 84 313 118Z"
/>
<glyph unicode="9" glyph-name="nine" horiz-adv-x="499" d="M393 687T443 632T493 480Q493 301 394 164T53 -27L35 69Q159 103 229 156T332 304Q303 271 270 254T198 237Q133 237 92 285T50 414Q50 484 78 546T162 648T298 687Q393 687 443 632ZM298 334T351
404Q357 461 357 492Q357 543 341 565T291 588Q236 588 210 535T184 417Q184 375 199 355T243 334Q298 334 351 404Z" />
<glyph unicode=":" glyph-name="colon" horiz-adv-x="226" d="M44 -16T24 5T4 58Q4 96 29 123T93 150Q126 150 146 129T166 76Q166 38 140 11T76 -16Q44 -16 24 5ZM94 336T74 357T54 410Q54 448 79 475T143 502Q176 502 196 481T216 428Q216 390 190 363T126 336Q94
336 74 357Z" />
<glyph unicode=";" glyph-name="semicolon" horiz-adv-x="228" d="M126 150T145 130T165 78Q165 56 157 35T125 -29L46 -173H-31L33 1Q6 21 6 58Q6 96 31 123T94 150Q126 150 145 130ZM96 336T76 357T56 410Q56 448 81 475T145 502Q178 502 198 481T218 428Q218
390 192 363T128 336Q96 336 76 357Z" />
<glyph unicode="&lt;" glyph-name="less" horiz-adv-x="462" d="M426 567L460 465L151 329L418 196L359 98L33 271L51 395L426 567Z" />
<glyph unicode="=" glyph-name="equal" horiz-adv-x="464" d="M63 379L77 487H448L433 379H63ZM291 431L305 539H676L661 431H291Z" />
<glyph unicode="&gt;" glyph-name="greater" horiz-adv-x="461" d="M121 567L447 395L429 271L55 98L22 202L330 338L63 471L121 567Z" />
<glyph unicode="?" glyph-name="question" horiz-adv-x="431" d="M362 707T408 665T454 558Q454 511 437 479T396 427T332 383Q286 354 264 332T242 273Q242 263 244 247L125 228Q117 258 117 279Q117 322 132 352T170 401T228 443Q270 469 291 491T312 549Q312
599 256 599Q201 599 139 535L65 604Q154 707 278 707Q362 707 408 665ZM139 -16T119 5T99 58Q99 96 124 123T188 150Q221 150 241 129T261 76Q261 38 235 11T171 -16Q139 -16 119 5Z" />
<glyph unicode="@" glyph-name="at" horiz-adv-x="921" d="M641 707T719 662T839 540T880 365Q880 281 853 198T773 61T645 6Q596 6 568 34T535 105Q485 9 397 9Q333 9 297 54T261 175Q261 253 286 327T367 450T506 499Q545 499 583 488T653 456L616 178Q613 157
613 139Q613 117 620 106T644 94Q681 94 707 137T747 244T761 368Q761 483 701 544T523 606Q397 606 317 539T200 371T164 163Q164 34 231 -41T424 -117Q468 -117 514 -107T600 -82L620 -178Q516 -219 413 -219Q300 -219 216 -171T87 -36T42 165Q42 293 96 418T260
625T531 707Q641 707 719 662ZM466 96T500 161L535 405Q514 412 498 412Q436 412 408 336T380 168Q380 131 390 114T424 96Q466 96 500 161Z" />
<glyph unicode="A" glyph-name="A" horiz-adv-x="530" d="M354 0L342 157H156L101 0H-44L240 692H409L499 0H354ZM193 262H334L308 592L193 262Z" />
<glyph unicode="B" glyph-name="B" horiz-adv-x="552" d="M450 353T484 321T519 226Q519 123 446 62T223 0H26L123 692H311Q419 692 479 653T540 537Q540 467 499 425T391 366Q450 353 484 321ZM247 590L222 410H281Q339 410 368 440T398 524Q398 590 312 590H247ZM314
105T345 139T376 233Q376 313 278 313H208L179 105H236Q314 105 345 139Z" />
<glyph unicode="C" glyph-name="C" d="M484 707T553 630L478 556Q453 578 428 589T373 600Q307 600 265 546T204 411T185 250Q185 171 213 134T293 96Q327 96 355 110T422 151L476 68Q384 -16 270 -16Q165 -16 103 54T40 255Q40 367 75 470T186 640T372 707Q484
707 553 630Z" />
<glyph unicode="D" glyph-name="D" horiz-adv-x="589" d="M420 692T495 637T571 442Q571 246 484 123T208 0H26L123 692H293Q420 692 495 637ZM248 588L180 104H231Q303 104 347 155T410 283T429 444Q429 525 396 556T301 588H248Z" />
<glyph unicode="E" glyph-name="E" horiz-adv-x="469" d="M495 692L465 588H248L222 403H412L398 301H208L180 104H414L399 0H26L123 692H495Z" />
<glyph unicode="F" glyph-name="F" horiz-adv-x="434" d="M485 692L454 588H248L220 388H402L386 284H205L165 0H26L123 692H485Z" />
<glyph unicode="G" glyph-name="G" horiz-adv-x="578" d="M509 707T583 623L504 553Q475 579 449 590T387 602Q315 602 269 546T203 405T182 230Q182 157 207 124T283 91Q334 91 377 117L402 291H319L320 393H551L504 55Q450 21 392 3T274 -15Q159 -15 99 51T39
246Q39 362 77 467T195 640T389 707Q509 707 583 623Z" />
<glyph unicode="H" glyph-name="H" horiz-adv-x="596" d="M165 0H26L123 692H262L223 417H415L454 692H593L496 0H357L399 305H208L165 0Z" />
<glyph unicode="I" glyph-name="I" horiz-adv-x="265" d="M262 692L165 0H26L123 692H262Z" />
<glyph unicode="J" glyph-name="J" horiz-adv-x="284" d="M201 98Q190 19 158 -31T80 -110T-29 -159L-55 -60Q-13 -42 10 -20T44 31T63 108L145 692H284L201 98Z" />
<glyph unicode="K" glyph-name="K" horiz-adv-x="564" d="M26 0L123 692H262L165 0H26ZM376 0L222 369L466 692H613L366 370L532 0H376Z" />
<glyph unicode="L" glyph-name="L" horiz-adv-x="452" d="M262 692L181 114H423L391 0H26L123 692H262Z" />
<glyph unicode="M" glyph-name="M" horiz-adv-x="710" d="M634 0H499L525 283Q537 421 561 575L395 75H260L223 574Q213 432 185 279L136 0H1L145 692H315L345 204L501 692H684L634 0Z" />
<glyph unicode="N" glyph-name="N" horiz-adv-x="595" d="M494 0H320L204 574V532Q204 401 187 269L150 0H26L123 692H296L413 118V176Q413 289 426 387L468 692H591L494 0Z" />
<glyph unicode="O" glyph-name="O" horiz-adv-x="624" d="M485 707T545 638T606 439Q606 328 572 224T463 52T273 -16Q162 -16 101 53T40 252Q40 362 74 466T184 638T374 707Q485 707 545 638ZM298 601T258 541T200 398T183 236Q183 160 208 126T282 91Q348 91
389 150T446 293T463 456Q463 532 439 566T364 601Q298 601 258 541Z" />
<glyph unicode="P" glyph-name="P" horiz-adv-x="528" d="M422 692T482 644T543 503Q543 432 513 372T419 275T258 238H199L165 0H26L123 692H311Q422 692 482 644ZM336 342T367 387T399 500Q399 547 374 568T298 589H248L213 342H259Q336 342 367 387Z" />
<glyph unicode="Q" glyph-name="Q" horiz-adv-x="623" d="M606 310T560 199T415 41Q472 38 513 21T587 -27L486 -133Q447 -74 399 -45T273 -15Q161 -15 101 54T40 252Q40 362 74 466T184 638T374 707Q485 707 545 638T606 439Q606 310 560 199ZM183 159T208 125T282
91Q349 91 389 150T446 294T463 459Q463 533 439 567T364 601Q298 601 258 541T200 397T183 234Q183 159 208 125Z" />
<glyph unicode="R" glyph-name="R" horiz-adv-x="550" d="M542 363T397 299L512 0H364L269 273H203L165 0H26L123 692H311Q426 692 484 646T542 515Q542 363 397 299ZM218 374H274Q340 374 369 413T399 509Q399 552 376 571T302 590H248L218 374Z" />
<glyph unicode="S" glyph-name="S" horiz-adv-x="506" d="M441 707T518 619L444 545Q416 574 386 587T318 601Q271 601 243 576T214 511Q214 478 235 459T320 413Q397 381 435 338T474 223Q474 159 443 105T350 17T204 -16Q68 -16 -19 82L61 159Q93 126 127 110T207
93Q263 93 296 123T329 204Q329 242 307 264T224 313Q142 346 106 387T70 494Q70 550 99 599T185 677T315 707Q441 707 518 619Z" />
<glyph unicode="T" glyph-name="T" horiz-adv-x="478" d="M536 692L506 581H353L271 0H132L214 581H52L68 692H536Z" />
<glyph unicode="U" glyph-name="U" horiz-adv-x="581" d="M519 206Q510 143 477 93T386 14T254 -15Q150 -15 96 37T42 174Q42 193 45 212L113 692H252L184 206Q182 186 182 176Q182 93 264 93Q315 93 343 124T380 210L448 692H587L519 206Z" />
<glyph unicode="V" glyph-name="V" horiz-adv-x="512" d="M578 692L309 0H136L54 692H197L239 119L434 692H578Z" />
<glyph unicode="W" glyph-name="W" horiz-adv-x="756" d="M803 692L601 0H420L416 547L258 0H80L73 692H209L194 111L364 692H511L514 111L670 692H803Z" />
<glyph unicode="X" glyph-name="X" horiz-adv-x="511" d="M557 692L350 373L476 0H328L257 282L111 0H-41L184 368L70 692H218L276 451L407 692H557Z" />
<glyph unicode="Y" glyph-name="Y" horiz-adv-x="522" d="M588 692L330 261L294 0H154L190 261L54 692H202L276 373L438 692H588Z" />
<glyph unicode="Z" glyph-name="Z" horiz-adv-x="479" d="M-21 0L-6 107L339 580H88L104 692H510L494 583L151 114H435L403 0H-21Z" />
<glyph unicode="[" glyph-name="bracketleft" horiz-adv-x="289" d="M340 820L326 716H224L122 -17H223L209 -121H-21L112 820H340Z" />
<glyph unicode="\" glyph-name="backslash" horiz-adv-x="468" d="M263 809L346 -86L228 -109L145 786L263 809Z" />
<glyph unicode="]" glyph-name="bracketright" horiz-adv-x="288" d="M334 820L201 -121H-27L-13 -17H89L191 716H90L104 820H334Z" />
<glyph unicode="^" glyph-name="asciicircum" horiz-adv-x="499" d="M392 843L515 527H384L316 737L193 527H58L270 843H392Z" />
<glyph unicode="_" glyph-name="underscore" horiz-adv-x="467" d="M-48 -161L-32 -53H410L395 -161H-48Z" />
<glyph unicode="`" glyph-name="grave" horiz-adv-x="303" d="M154 820L332 693L292 629L94 719L154 820Z" />
<glyph unicode="a" glyph-name="a" horiz-adv-x="521" d="M409 545T498 496L447 142Q444 126 444 115Q444 100 449 91T469 76L429 -14Q339 -4 323 69Q293 28 259 6T180 -16Q107 -16 67 37T27 181Q27 270 56 353T150 490T312 545Q409 545 498 496ZM258 446T227
406T180 305T165 179Q165 129 179 108T221 86Q247 86 270 105T317 162L356 437Q332 446 306 446Q258 446 227 406Z" />
<glyph unicode="b" glyph-name="b" horiz-adv-x="530" d="M427 545T464 496T502 354Q502 257 475 174T383 37T216 -16Q129 -16 25 25L126 741L261 756L223 483Q251 513 286 529T358 545Q427 545 464 496ZM260 444T209 381L170 97Q201 86 231 86Q277 86 307 126T351
227T365 351Q365 401 350 422T307 444Q260 444 209 381Z" />
<glyph unicode="c" glyph-name="c" horiz-adv-x="430" d="M393 545T453 481L386 404Q366 423 347 431T303 440Q233 440 201 365T169 195Q169 93 244 93Q269 93 290 101T340 129L390 43Q312 -16 226 -16Q133 -16 81 41T29 199Q29 284 59 363T150 494T301 545Q393
545 453 481Z" />
<glyph unicode="d" glyph-name="d" horiz-adv-x="533" d="M541 741L437 0H318L320 74Q262 -16 177 -16Q105 -16 67 36T28 183Q28 268 54 351T133 490T263 546Q332 546 372 491L408 755L541 741ZM246 444T219 402T179 299T166 182Q166 86 222 86Q251 86 276 111T329
183L359 399Q346 422 329 433T289 444Q246 444 219 402Z" />
<glyph unicode="e" glyph-name="e" horiz-adv-x="486" d="M386 545T431 506T477 407Q477 305 391 258T164 194V191Q164 88 247 88Q277 88 306 99T370 135L419 53Q330 -16 229 -16Q133 -16 81 38T29 193Q29 280 58 360T149 493T306 545Q386 545 431 506ZM343 298T343
401Q343 424 332 437T294 451Q244 451 214 402T172 281Q343 298 343 401Z" />
<glyph unicode="f" glyph-name="f" horiz-adv-x="313" d="M296 654T279 636T255 579L248 530H361L332 433H235L181 46Q170 -35 141 -85T69 -163T-40 -219L-73 -120Q-35 -103 -12 -85T25 -37T47 45L101 433H29L43 530H115L123 587Q133 663 183 709T317 756Q390
756 448 714L400 633Q365 654 328 654Q296 654 279 636Z" />
<glyph unicode="g" glyph-name="g" horiz-adv-x="524" d="M412 545T501 496L434 24Q416 -104 355 -162T184 -220Q138 -220 91 -206T6 -166L54 -75Q122 -114 181 -114Q229 -114 260 -89T301 8L310 70Q254 0 181 0Q109 0 69 52T28 192Q28 279 57 360T151 493T315
545Q412 545 501 496ZM260 446T228 408T181 312T166 192Q166 102 223 102Q250 102 274 122T322 178L360 437Q334 446 309 446Q260 446 228 408Z" />
<glyph unicode="h" glyph-name="h" horiz-adv-x="515" d="M420 546T450 512T480 420Q480 403 477 385L423 0H289L339 364Q341 382 341 388Q341 430 310 430Q260 430 198 306L156 0H22L126 741L261 755L218 445Q246 491 283 518T368 546Q420 546 450 512Z" />
<glyph unicode="i" glyph-name="i" horiz-adv-x="253" d="M230 530L156 0H22L96 530H230ZM146 639T127 659T107 710Q107 749 132 774T197 800Q230 800 249 781T269 729Q269 690 243 665T179 639Q146 639 127 659Z" />
<glyph unicode="j" glyph-name="j" horiz-adv-x="253" d="M-91 -120Q-53 -103 -30 -85T7 -37T29 45L97 530H231L163 46Q152 -35 123 -85T51 -163T-58 -219L-91 -120ZM148 639T129 659T109 710Q109 749 134 774T199 800Q232 800 251 781T271 729Q271 690 245 665T181
639Q148 639 129 659Z" />
<glyph unicode="k" glyph-name="k" horiz-adv-x="513" d="M220 455Q288 545 380 545Q438 545 473 512T508 424Q508 363 474 317T369 238L458 0H314L228 257Q306 283 338 318T371 402Q371 424 361 436T330 448Q300 448 266 418T201 327L156 0H22L126 741L262 756L220 455Z" />
<glyph unicode="l" glyph-name="l" horiz-adv-x="265" d="M169 127L168 116Q168 94 188 94Q196 94 212 98L228 3Q189 -15 141 -15Q90 -15 62 13T33 94Q33 114 35 125L121 741L256 756L169 127Z" />
<glyph unicode="m" glyph-name="m" horiz-adv-x="754" d="M660 546T689 512T719 420Q719 404 716 386L661 0H527L578 364Q580 384 580 389Q580 431 551 431Q507 431 453 310L408 0H274L325 364Q327 384 327 389Q327 431 297 431Q253 431 199 307L156 0H22L96 530H213L209
443Q275 546 358 546Q401 546 428 520T463 447Q526 546 611 546Q660 546 689 512Z" />
<glyph unicode="n" glyph-name="n" horiz-adv-x="516" d="M420 546T450 512T481 419Q481 402 478 384L423 0H289L340 364Q342 382 342 387Q342 430 310 430Q261 430 199 306L156 0H22L96 530H213L209 439Q280 546 369 546Q420 546 450 512Z" />
<glyph unicode="o" glyph-name="o" horiz-adv-x="526" d="M132 -16T81 40T29 198Q29 283 57 362T146 493T301 545Q394 545 445 489T496 332Q496 248 468 169T379 37T225 -16Q132 -16 81 40ZM280 87T308 130T347 234T359 350Q359 443 292 443Q246 443 218 401T178
299T166 184Q166 134 182 111T233 87Q280 87 308 130Z" />
<glyph unicode="p" glyph-name="p" horiz-adv-x="530" d="M96 530H215L213 472Q278 545 358 545Q427 545 465 496T503 354Q503 260 476 176T390 38T239 -16Q195 -16 155 -1L126 -205L-8 -221L96 530ZM277 85T307 127T352 230T366 352Q366 402 351 423T307 444Q259
444 210 381L170 97Q202 85 231 85Q277 85 307 127Z" />
<glyph unicode="q" glyph-name="q" horiz-adv-x="524" d="M305 49Q283 21 251 3T180 -16Q107 -16 67 37T27 181Q27 271 56 354T150 491T313 545Q412 545 501 496L402 -205L268 -221L305 49ZM249 86T272 105T319 162L359 437Q335 446 307 446Q259 446 227 407T180
306T165 179Q165 86 222 86Q249 86 272 105Z" />
<glyph unicode="r" glyph-name="r" horiz-adv-x="355" d="M370 544T394 536L354 405Q333 411 314 411Q273 411 244 371T192 257L156 0H22L96 530H212L208 434Q261 544 347 544Q370 544 394 536Z" />
<glyph unicode="s" glyph-name="s" horiz-adv-x="431" d="M302 545T346 528T423 479L363 405Q309 446 253 446Q219 446 200 432T181 391Q181 369 200 355T272 320Q333 296 363 261T394 168Q394 114 367 73T290 8T175 -16Q113 -16 64 6T-20 66L51 138Q108 84 176
84Q216 84 237 104T258 152Q258 180 240 196T167 233Q105 256 77 289T48 377Q48 422 72 460T143 522T250 545Q302 545 346 528Z" />
<glyph unicode="t" glyph-name="t" horiz-adv-x="341" d="M190 152Q188 138 188 133Q188 94 225 94Q249 94 281 110L316 22Q287 4 254 -6T188 -16Q124 -16 89 19T53 119Q53 136 56 155L95 433H26L40 530H114L145 649L261 662L243 530H351L322 433H229L190 152Z" />
<glyph unicode="u" glyph-name="u" horiz-adv-x="511" d="M97 -16T66 17T35 109Q35 125 38 143L92 530H226L174 158Q173 151 173 138Q173 96 205 96Q231 96 256 121T306 186L355 530H488L414 0H298L303 81Q270 34 234 9T151 -16Q97 -16 66 17Z" />
<glyph unicode="v" glyph-name="v" horiz-adv-x="457" d="M496 530L275 0H114L36 530H179L209 107L355 530H496Z" />
<glyph unicode="w" glyph-name="w" horiz-adv-x="669" d="M697 530L525 0H365L356 408L235 0H74L47 530H181L175 101L309 530H443L450 101L568 530H697Z" />
<glyph unicode="x" glyph-name="x" horiz-adv-x="454" d="M475 530L311 278L423 0H280L217 204L100 0H-43L148 283L46 530H189L239 350L334 530H475Z" />
<glyph unicode="y" glyph-name="y" horiz-adv-x="460" d="M279 -3Q236 -107 166 -159T-15 -219L-18 -123Q53 -111 89 -85T155 0H106L36 530H176L204 91L359 530H499L279 -3Z" />
<glyph unicode="z" glyph-name="z" horiz-adv-x="406" d="M421 530L407 432L151 106H367L339 0H-25L-11 98L245 425H53L69 530H421Z" />
<glyph unicode="{" glyph-name="braceleft" horiz-adv-x="288" d="M331 741Q292 741 275 726T253 674L226 474Q218 415 193 389T116 347Q154 338 173 318T192 256Q192 242 189 222L161 21Q160 14 160 3Q160 -22 173 -31T221 -41L209 -138Q119 -138 77 -107T35
-11Q35 6 38 24L64 219Q66 230 66 248Q66 273 55 283T14 294L30 405Q64 405 80 422T102 482L129 679Q137 736 158 770T223 821T342 838L331 741Z" />
<glyph unicode="|" glyph-name="bar" horiz-adv-x="339" d="M308 809L181 -104H56L183 809H308Z" />
<glyph unicode="}" glyph-name="braceright" horiz-adv-x="288" d="M-18 -41Q21 -41 38 -26T60 26L87 226Q95 285 120 311T196 353Q158 362 140 382T121 445Q121 466 123 478L151 679Q152 686 152 698Q152 722 139 731T92 741L103 838Q193 838 235 807T278 710Q278
694 275 676L248 481Q246 470 246 452Q246 427 257 417T298 406L283 295Q248 295 232 278T210 218L183 21Q175 -37 154 -71T89 -121T-30 -138L-18 -41Z" />
<glyph unicode="~" glyph-name="asciitilde" horiz-adv-x="460" d="M275 238T256 247T213 274Q197 287 185 293T160 299Q138 299 123 286T89 246L22 286Q53 337 90 369T176 401Q202 401 220 392T261 366Q277 353 289 347T314 341Q337 341 353 354T386 391L453
350Q422 300 386 269T301 238Q275 238 256 247Z" />
<glyph unicode="&#xa0;" glyph-name="uni00A0" horiz-adv-x="207" />
<glyph unicode="&#xa1;" glyph-name="exclamdown" horiz-adv-x="226" d="M96 338T76 359T56 412Q56 450 81 477T145 504Q178 504 198 483T218 430Q218 392 192 365T128 338Q96 338 76 359ZM164 239L118 -204H-24L55 239H164Z" />
<glyph unicode="&#xa2;" glyph-name="cent" horiz-adv-x="430" d="M390 43Q329 -4 261 -14L240 -159H142L163 -8Q99 10 64 64T29 199Q29 274 52 345T123 468T241 538L262 689H359L338 542Q405 532 453 481L386 404Q366 423 347 431T303 440Q233 440 201 365T169
195Q169 93 244 93Q269 93 290 101T340 129L390 43Z" />
<glyph unicode="&#xa3;" glyph-name="sterling" horiz-adv-x="479" d="M225 179T209 152T154 105H430L399 0H-8L6 101Q40 112 58 127T85 165T98 225L110 314H49L60 389H120L134 493Q147 582 201 634T345 687Q403 687 444 663T513 591L426 534Q410 561 393 572T350
583Q278 583 266 488L253 389H417L406 314H243L231 226Q225 179 209 152Z" />
<glyph unicode="&#xa4;" glyph-name="currency" horiz-adv-x="504" d="M432 81L364 157Q316 128 257 128Q199 128 153 158L83 81L19 142L93 221Q62 272 62 341Q62 406 92 460L18 543L85 602L153 525Q200 555 257 555Q317 555 364 525L433 602L497 542L424 462Q455
409 455 341Q455 274 425 222L499 141L432 81ZM347 221T347 342Q347 462 259 462Q169 462 169 342Q169 221 259 221Q347 221 347 342Z" />
<glyph unicode="&#xa5;" glyph-name="yen" horiz-adv-x="500" d="M563 674L358 350H448L437 274H318L308 197H426L415 122H297L280 0H146L163 122H45L56 197H174L184 274H67L78 350H167L52 674H190L267 387L422 674H563Z" />
<glyph unicode="&#xa6;" glyph-name="brokenbar" horiz-adv-x="339" d="M308 809L257 443H132L183 809H308ZM232 262L181 -104H56L107 262H232Z" />
<glyph unicode="&#xa7;" glyph-name="section" horiz-adv-x="497" d="M392 429T421 397T451 318Q451 272 427 238T355 176Q376 157 385 135T395 84Q395 41 372 4T301 -57T184 -80Q88 -80 18 -24L73 54Q123 17 186 17Q267 17 267 78Q267 104 249 119T175 155Q115
177 87 207T58 287Q58 374 154 428Q115 464 115 519Q115 569 141 607T213 665T319 686Q368 686 411 670T488 627L432 552Q382 589 322 589Q280 589 261 573T242 529Q242 504 260 488T333 451Q392 429 421 397ZM271 227T291 217Q331 256 331 295Q331 318 315 335T259
368Q239 375 213 388Q178 350 178 309Q178 286 191 271T236 242Q271 227 291 217Z" />
<glyph unicode="&#xa8;" glyph-name="dieresis" horiz-adv-x="407" d="M128 646T111 663T93 708Q93 742 116 765T172 788Q201 788 218 771T236 726Q236 691 213 669T157 646Q128 646 111 663ZM333 646T316 663T298 708Q298 742 321 765T377 788Q406 788 423 771T441
726Q441 692 418 669T362 646Q333 646 316 663Z" />
<glyph unicode="&#xa9;" glyph-name="copyright" horiz-adv-x="731" d="M474 760T542 719T651 604T691 433Q691 337 651 263T543 147T390 106Q306 106 237 147T128 262T87 433Q87 529 127 603T237 719T390 760Q474 760 542 719ZM326 690T276 659T196 569T167 433Q167
356 196 298T275 209T390 177Q454 177 504 208T583 298T612 433Q612 510 583 568T504 658T390 690Q326 690 276 659ZM459 628T508 581L467 527Q449 540 434 545T401 550Q370 550 352 523T333 434Q333 318 402 318Q422 318 438 325T472 347L511 289Q459 239 392
239Q320 239 278 289T235 434Q235 525 279 576T394 628Q459 628 508 581Z" />
<glyph unicode="&#xaa;" glyph-name="ordfeminine" horiz-adv-x="441" d="M118 266T88 298T57 381Q57 443 103 485T252 527H291L293 542Q295 556 295 561Q295 583 283 593T245 603Q205 603 142 583L122 663Q159 677 198 684T271 692Q413 692 413 571Q413 556 410
536L391 395Q389 383 389 378Q389 368 393 361T410 349L374 269Q306 274 286 324Q242 266 171 266Q118 266 88 298ZM246 354T273 391L282 458H253Q214 458 197 440T180 392Q180 354 213 354Q246 354 273 391ZM3 0L17 108H379L365 0H3Z" />
<glyph unicode="&#xab;" glyph-name="guillemotleft" horiz-adv-x="564" d="M240 549L317 493L172 284L258 77L169 22L33 241L45 329L240 549ZM484 549L561 493L416 284L502 77L413 22L277 241L289 329L484 549Z" />
<glyph unicode="&#xac;" glyph-name="logicalnot" horiz-adv-x="473" d="M443 380L406 123H287L308 273H48L63 380H443Z" />
<glyph unicode="&#xad;" glyph-name="uni00AD" horiz-adv-x="367" d="M43 259L58 367H337L323 259H43Z" />
<glyph unicode="&#xae;" glyph-name="registered" horiz-adv-x="574" d="M388 756T444 722T532 626T564 487Q564 410 532 350T444 255T319 221Q250 221 194 255T105 349T73 487Q73 565 105 626T193 721T319 756Q388 756 444 722ZM398 282T447 337T496 487Q496
550 474 597T411 669T319 695Q268 695 228 670T164 597T141 487Q141 424 164 378T227 307T319 282Q398 282 447 337ZM420 520T406 501T368 471L433 354H362L310 458H289V354H226V634H301Q360 634 390 612T420 547Q420 520 406 501ZM289 511H316Q334 511 345 520T356
549Q356 584 314 584H289V511Z" />
<glyph unicode="&#xaf;" glyph-name="overscore" horiz-adv-x="329" d="M353 659H86L100 755H367L353 659Z" />
<glyph unicode="&#xb0;" glyph-name="degree" horiz-adv-x="461" d="M154 373T115 410T76 514Q76 569 99 613T163 682T254 707Q313 707 352 670T391 567Q391 512 368 468T303 398T213 373Q154 373 115 410ZM256 454T277 485T298 564Q298 627 248 627Q210 627 190
596T169 516Q169 454 219 454Q256 454 277 485Z" />
<glyph unicode="&#xb1;" glyph-name="plusminus" horiz-adv-x="473" d="M16 0L30 108H401L386 0H16ZM340 598L318 444H451L436 337H302L280 183H168L190 337H57L71 444H206L228 598H340Z" />
<glyph unicode="&#xb2;" glyph-name="uni00B2" horiz-adv-x="357" d="M295 750T328 719T361 640Q361 599 339 562T282 491T179 401H339L317 321H55L66 397Q141 465 176 500T234 568T257 632Q257 651 247 660T219 670Q199 670 182 660T144 628L89 677Q152 750 238
750Q295 750 328 719Z" />
<glyph unicode="&#xb3;" glyph-name="uni00B3" horiz-adv-x="357" d="M297 750T329 723T361 651Q361 609 334 582T259 542Q299 539 322 518T345 457Q345 416 324 383T263 330T175 310Q85 310 42 376L102 425Q119 406 136 398T175 389Q205 389 224 409T244 463Q244
485 230 495T188 505H155L177 576H197Q226 576 244 593T262 637Q262 673 220 673Q182 673 138 639L95 694Q160 750 240 750Q297 750 329 723Z" />
<glyph unicode="&#xb4;" glyph-name="acute" horiz-adv-x="306" d="M295 821L341 719L121 628L88 695L295 821Z" />
<glyph unicode="&#xb5;" glyph-name="uni00B5" horiz-adv-x="521" d="M434 121T434 67Q434 25 438 -2L314 -14Q308 9 307 26T306 67Q257 -10 195 -10Q157 -10 135 17Q140 -5 140 -32Q140 -64 133 -109L120 -204L-9 -218L96 530H230L178 158Q176 142 176 137Q176
90 215 90Q239 90 262 108T306 166L357 530H491L442 180Q434 121 434 67Z" />
<glyph unicode="&#xb6;" glyph-name="paragraph" horiz-adv-x="696" d="M653 692L528 -204L410 -220L522 594H435L325 -204L207 -220L276 269Q185 273 139 320T92 445Q92 521 125 577T218 662T359 692H653Z" />
<glyph unicode="&#xb7;" glyph-name="middot" horiz-adv-x="225" d="M78 225T58 246T38 299Q38 337 63 364T127 391Q160 391 180 370T200 317Q200 279 174 252T110 225Q78 225 58 246Z" />
<glyph unicode="&#xb8;" glyph-name="cedilla" horiz-adv-x="287" d="M120 -53Q159 -57 179 -79T200 -136Q200 -165 185 -192T138 -237T57 -255Q0 -255 -39 -225L1 -163Q28 -178 55 -178Q76 -178 89 -169T102 -141Q102 -122 86 -115T26 -108L56 16H131L120 -53Z" />
<glyph unicode="&#xb9;" glyph-name="uni00B9" horiz-adv-x="357" d="M329 741L270 321H171L215 641L128 587L91 654L238 741H329Z" />
<glyph unicode="&#xba;" glyph-name="ordmasculine" horiz-adv-x="448" d="M359 692T402 649T445 524Q445 455 420 396T346 302T227 266Q149 266 106 309T63 434Q63 503 88 562T162 656T281 692Q359 692 402 649ZM228 601T207 547T186 425Q186 357 234 357Q280
357 301 412T323 535Q323 601 274 601Q228 601 207 547ZM2 0L16 108H387L372 0H2Z" />
<glyph unicode="&#xbb;" glyph-name="guillemotright" horiz-adv-x="564" d="M157 549L294 329L281 241L85 22L9 77L155 286L67 493L157 549ZM401 549L538 329L525 241L329 22L253 77L399 286L311 493L401 549Z" />
<glyph unicode="&#xbc;" glyph-name="onequarter" horiz-adv-x="854" d="M322 692L263 272H164L208 592L121 538L84 605L231 692H322ZM631 755L704 716L228 -83L155 -44L631 755ZM815 166L803 88H762L750 0H656L668 88H497L507 158L653 429L733 397L612 166H681L712
264H787L773 166H815Z" />
<glyph unicode="&#xbd;" glyph-name="onehalf" horiz-adv-x="854" d="M322 692L263 272H164L208 592L121 538L84 605L231 692H322ZM631 755L704 716L228 -83L155 -44L631 755ZM747 429T780 398T813 319Q813 278 791 241T734 170T631 80H791L769 0H507L518 76Q593
144 628 179T686 247T709 311Q709 330 699 339T671 349Q651 349 634 339T596 307L541 356Q604 429 690 429Q747 429 780 398Z" />
<glyph unicode="&#xbe;" glyph-name="threequarters" horiz-adv-x="854" d="M290 701T322 674T354 602Q354 560 327 533T252 493Q292 490 315 469T338 408Q338 367 317 334T256 281T168 261Q78 261 35 327L95 376Q112 357 129 349T168 340Q198 340 217 360T237
414Q237 436 223 446T181 456H148L170 527H190Q219 527 237 544T255 588Q255 624 213 624Q175 624 131 590L88 645Q153 701 233 701Q290 701 322 674ZM631 755L704 716L228 -83L155 -44L631 755ZM815 166L803 88H762L750 0H656L668 88H497L507 158L653 429L733
397L612 166H681L712 264H787L773 166H815Z" />
<glyph unicode="&#xbf;" glyph-name="questiondown" horiz-adv-x="431" d="M286 508T306 487T326 434Q326 396 301 369T237 342Q204 342 184 363T164 416Q164 454 190 481T254 508Q286 508 306 487ZM63 -221T17 -179T-29 -74Q-29 -27 -12 6T29 58T92 102Q138 129
160 152T183 213Q183 227 180 240L299 258Q307 236 307 207Q307 164 292 134T254 85T196 44Q153 16 133 -5T113 -62Q113 -112 168 -112Q226 -112 285 -48L360 -118Q268 -221 147 -221Q63 -221 17 -179Z" />
<glyph unicode="&#xc0;" glyph-name="Agrave" horiz-adv-x="530" d="M354 0L342 157H156L101 0H-44L240 692H409L499 0H354ZM193 262H334L308 592L193 262ZM291 931L469 815L430 750L233 830L291 931Z" />
<glyph unicode="&#xc1;" glyph-name="Aacute" horiz-adv-x="530" d="M354 0L342 157H156L101 0H-44L240 692H409L499 0H354ZM193 262H334L308 592L193 262ZM430 933L475 831L256 749L225 816L430 933Z" />
<glyph unicode="&#xc2;" glyph-name="Acircumflex" horiz-adv-x="530" d="M354 0L342 157H156L101 0H-44L240 692H409L499 0H354ZM193 262H334L308 592L193 262ZM216 757L168 813L312 938H394L504 810L450 757L343 840L216 757Z" />
<glyph unicode="&#xc3;" glyph-name="Atilde" horiz-adv-x="530" d="M354 0L342 157H156L101 0H-44L240 692H409L499 0H354ZM193 262H334L308 592L193 262ZM376 768T362 775T330 795Q318 805 310 809T292 814Q277 814 265 803T238 769L175 805Q200 853 232 882T299
912Q319 912 332 905T364 884Q377 874 384 870T400 866Q414 866 425 876T452 910L515 873Q491 824 459 796T393 768Q376 768 362 775Z" />
<glyph unicode="&#xc4;" glyph-name="Adieresis" horiz-adv-x="530" d="M354 0L342 157H156L101 0H-44L240 692H409L499 0H354ZM193 262H334L308 592L193 262ZM206 772T189 789T171 834Q171 868 194 891T250 914Q279 914 296 897T314 852Q314 817 291 795T235
772Q206 772 189 789ZM411 772T394 789T376 834Q376 868 399 891T455 914Q484 914 501 897T519 852Q519 818 496 795T440 772Q411 772 394 789Z" />
<glyph unicode="&#xc5;" glyph-name="Aring" horiz-adv-x="530" d="M354 0L342 157H156L101 0H-44L240 692H409L499 0H354ZM193 262H334L308 592L193 262ZM413 982T442 951T472 872Q472 836 455 805T406 756T335 738Q286 738 257 768T227 847Q227 883 244 914T293
963T363 982Q413 982 442 951ZM334 913T320 895T306 850Q306 829 315 818T341 807Q365 807 379 825T393 870Q393 891 384 902T358 913Q334 913 320 895Z" />
<glyph unicode="&#xc6;" glyph-name="AE" horiz-adv-x="751" d="M717 588H473L482 401H699L684 299H486L495 104H699L683 0H369L365 157H166L98 0H-51L281 692H747L717 588ZM212 262H362L353 587L212 262Z" />
<glyph unicode="&#xc7;" glyph-name="Ccedilla" d="M307 600T265 546T204 411T185 250Q185 171 213 134T293 96Q327 96 355 110T422 151L476 68Q397 -4 303 -14L297 -53Q336 -57 356 -79T377 -136Q377 -165 362 -192T315 -237T234 -255Q177 -255 138 -225L178
-163Q205 -178 232 -178Q253 -178 266 -169T279 -141Q279 -122 263 -115T203 -108L226 -13Q140 2 90 70T40 255Q40 367 75 470T186 640T372 707Q484 707 553 630L478 556Q453 578 428 589T373 600Q307 600 265 546Z" />
<glyph unicode="&#xc8;" glyph-name="Egrave" horiz-adv-x="469" d="M495 692L465 588H248L222 403H412L398 301H208L180 104H414L399 0H26L123 692H495ZM277 931L455 815L416 750L219 830L277 931Z" />
<glyph unicode="&#xc9;" glyph-name="Eacute" horiz-adv-x="469" d="M495 692L465 588H248L222 403H412L398 301H208L180 104H414L399 0H26L123 692H495ZM416 933L461 831L242 749L211 816L416 933Z" />
<glyph unicode="&#xca;" glyph-name="Ecircumflex" horiz-adv-x="469" d="M495 692L465 588H248L222 403H412L398 301H208L180 104H414L399 0H26L123 692H495ZM202 757L154 813L298 938H380L490 810L436 757L329 840L202 757Z" />
<glyph unicode="&#xcb;" glyph-name="Edieresis" horiz-adv-x="469" d="M495 692L465 588H248L222 403H412L398 301H208L180 104H414L399 0H26L123 692H495ZM192 772T175 789T157 834Q157 868 180 891T236 914Q265 914 282 897T300 852Q300 817 277 795T221 772Q192
772 175 789ZM397 772T380 789T362 834Q362 868 385 891T441 914Q470 914 487 897T505 852Q505 818 482 795T426 772Q397 772 380 789Z" />
<glyph unicode="&#xcc;" glyph-name="Igrave" horiz-adv-x="265" d="M262 692L165 0H26L123 692H262ZM159 931L337 815L298 750L101 830L159 931Z" />
<glyph unicode="&#xcd;" glyph-name="Iacute" horiz-adv-x="265" d="M262 692L165 0H26L123 692H262ZM298 933L343 831L124 749L93 816L298 933Z" />
<glyph unicode="&#xce;" glyph-name="Icircumflex" horiz-adv-x="265" d="M262 692L165 0H26L123 692H262ZM84 757L36 813L180 938H262L372 810L318 757L211 840L84 757Z" />
<glyph unicode="&#xcf;" glyph-name="Idieresis" horiz-adv-x="265" d="M262 692L165 0H26L123 692H262ZM74 772T57 789T39 834Q39 868 62 891T118 914Q147 914 164 897T182 852Q182 817 159 795T103 772Q74 772 57 789ZM279 772T262 789T244 834Q244 868 267
891T323 914Q352 914 369 897T387 852Q387 818 364 795T308 772Q279 772 262 789Z" />
<glyph unicode="&#xd0;" glyph-name="Eth" horiz-adv-x="597" d="M428 692T503 637T579 442Q579 246 492 123T216 0H34L77 308H18L31 398H90L131 692H301Q428 692 503 637ZM311 104T355 155T418 283T437 444Q437 525 404 556T309 588H256L229 398H351L338 308H217L188
104H239Q311 104 355 155Z" />
<glyph unicode="&#xd1;" glyph-name="Ntilde" horiz-adv-x="595" d="M494 0H320L204 574V532Q204 401 187 269L150 0H26L123 692H296L413 118V176Q413 289 426 387L468 692H591L494 0ZM413 768T399 775T367 795Q355 805 347 809T329 814Q314 814 302 803T275 769L212
805Q237 853 269 882T336 912Q356 912 369 905T401 884Q414 874 421 870T437 866Q451 866 462 876T489 910L552 873Q528 824 496 796T430 768Q413 768 399 775Z" />
<glyph unicode="&#xd2;" glyph-name="Ograve" horiz-adv-x="624" d="M485 707T545 638T606 439Q606 328 572 224T463 52T273 -16Q162 -16 101 53T40 252Q40 362 74 466T184 638T374 707Q485 707 545 638ZM298 601T258 541T200 398T183 236Q183 160 208 126T282
91Q348 91 389 150T446 293T463 456Q463 532 439 566T364 601Q298 601 258 541ZM340 931L518 815L479 750L282 830L340 931Z" />
<glyph unicode="&#xd3;" glyph-name="Oacute" horiz-adv-x="624" d="M485 707T545 638T606 439Q606 328 572 224T463 52T273 -16Q162 -16 101 53T40 252Q40 362 74 466T184 638T374 707Q485 707 545 638ZM298 601T258 541T200 398T183 236Q183 160 208 126T282
91Q348 91 389 150T446 293T463 456Q463 532 439 566T364 601Q298 601 258 541ZM479 933L524 831L305 749L274 816L479 933Z" />
<glyph unicode="&#xd4;" glyph-name="Ocircumflex" horiz-adv-x="624" d="M485 707T545 638T606 439Q606 328 572 224T463 52T273 -16Q162 -16 101 53T40 252Q40 362 74 466T184 638T374 707Q485 707 545 638ZM298 601T258 541T200 398T183 236Q183 160 208 126T282
91Q348 91 389 150T446 293T463 456Q463 532 439 566T364 601Q298 601 258 541ZM265 757L217 813L361 938H443L553 810L499 757L392 840L265 757Z" />
<glyph unicode="&#xd5;" glyph-name="Otilde" horiz-adv-x="624" d="M485 707T545 638T606 439Q606 328 572 224T463 52T273 -16Q162 -16 101 53T40 252Q40 362 74 466T184 638T374 707Q485 707 545 638ZM298 601T258 541T200 398T183 236Q183 160 208 126T282
91Q348 91 389 150T446 293T463 456Q463 532 439 566T364 601Q298 601 258 541ZM425 768T411 775T379 795Q367 805 359 809T341 814Q326 814 314 803T287 769L224 805Q249 853 281 882T348 912Q368 912 381 905T413 884Q426 874 433 870T449 866Q463 866 474 876T501
910L564 873Q540 824 508 796T442 768Q425 768 411 775Z" />
<glyph unicode="&#xd6;" glyph-name="Odieresis" horiz-adv-x="624" d="M485 707T545 638T606 439Q606 328 572 224T463 52T273 -16Q162 -16 101 53T40 252Q40 362 74 466T184 638T374 707Q485 707 545 638ZM298 601T258 541T200 398T183 236Q183 160 208 126T282
91Q348 91 389 150T446 293T463 456Q463 532 439 566T364 601Q298 601 258 541ZM255 772T238 789T220 834Q220 868 243 891T299 914Q328 914 345 897T363 852Q363 817 340 795T284 772Q255 772 238 789ZM460 772T443 789T425 834Q425 868 448 891T504 914Q533 914
550 897T568 852Q568 818 545 795T489 772Q460 772 443 789Z" />
<glyph unicode="&#xd7;" glyph-name="multiply" horiz-adv-x="465" d="M367 502L436 430L311 307L408 182L323 112L230 233L110 112L41 184L165 305L68 432L154 502L245 378L367 502Z" />
<glyph unicode="&#xd8;" glyph-name="Oslash" horiz-adv-x="624" d="M558 633T582 575T606 439Q606 328 572 224T463 52T273 -16Q250 -16 229 -13L182 -132L79 -103L132 27Q87 60 64 117T40 252Q40 362 74 466T184 638T374 707Q397 707 416 704L465 825L566 796L513
666Q558 633 582 575ZM297 602T256 542T198 397T180 234Q180 160 201 127L387 601Q379 602 364 602Q297 602 256 542ZM349 90T390 150T449 294T466 459Q466 530 445 565L260 91Q267 90 282 90Q349 90 390 150Z" />
<glyph unicode="&#xd9;" glyph-name="Ugrave" horiz-adv-x="581" d="M519 206Q510 143 477 93T386 14T254 -15Q150 -15 96 37T42 174Q42 193 45 212L113 692H252L184 206Q182 186 182 176Q182 93 264 93Q315 93 343 124T380 210L448 692H587L519 206ZM316 931L494
815L455 750L258 830L316 931Z" />
<glyph unicode="&#xda;" glyph-name="Uacute" horiz-adv-x="581" d="M519 206Q510 143 477 93T386 14T254 -15Q150 -15 96 37T42 174Q42 193 45 212L113 692H252L184 206Q182 186 182 176Q182 93 264 93Q315 93 343 124T380 210L448 692H587L519 206ZM455 933L500
831L281 749L250 816L455 933Z" />
<glyph unicode="&#xdb;" glyph-name="Ucircumflex" horiz-adv-x="581" d="M519 206Q510 143 477 93T386 14T254 -15Q150 -15 96 37T42 174Q42 193 45 212L113 692H252L184 206Q182 186 182 176Q182 93 264 93Q315 93 343 124T380 210L448 692H587L519 206ZM241
757L193 813L337 938H419L529 810L475 757L368 840L241 757Z" />
<glyph unicode="&#xdc;" glyph-name="Udieresis" horiz-adv-x="581" d="M519 206Q510 143 477 93T386 14T254 -15Q150 -15 96 37T42 174Q42 193 45 212L113 692H252L184 206Q182 186 182 176Q182 93 264 93Q315 93 343 124T380 210L448 692H587L519 206ZM231 772T214
789T196 834Q196 868 219 891T275 914Q304 914 321 897T339 852Q339 817 316 795T260 772Q231 772 214 789ZM436 772T419 789T401 834Q401 868 424 891T480 914Q509 914 526 897T544 852Q544 818 521 795T465 772Q436 772 419 789Z" />
<glyph unicode="&#xdd;" glyph-name="Yacute" horiz-adv-x="522" d="M588 692L330 261L294 0H154L190 261L54 692H202L276 373L438 692H588ZM425 933L470 831L251 749L220 816L425 933Z" />
<glyph unicode="&#xde;" glyph-name="Thorn" horiz-adv-x="531" d="M409 580T469 531T529 386Q529 315 500 255T407 156T244 118H182L165 0H26L123 692H262L246 580H297Q409 580 469 531ZM321 222T353 269T385 385Q385 434 361 455T285 477H232L196 222H245Q321
222 353 269Z" />
<glyph unicode="&#xdf;" glyph-name="germandbls" horiz-adv-x="536" d="M-91 -120Q-54 -104 -32 -87T6 -41T28 35L97 537Q111 641 172 698T331 756Q409 756 452 718T495 620Q495 576 478 550T429 492Q406 471 395 456T384 421Q384 402 394 387T428 350Q465 315
486 280T507 185Q507 135 485 89T418 14T306 -15Q248 -15 198 13L246 104Q272 90 297 90Q335 90 352 116T370 177Q370 210 357 232T318 283Q291 313 277 337T263 397Q263 434 277 458T318 512Q343 538 355 559T368 611Q368 634 355 646T320 658Q248 658 231 536L163
46Q152 -33 123 -83T51 -163T-58 -219L-91 -120Z" />
<glyph unicode="&#xe0;" glyph-name="agrave" horiz-adv-x="521" d="M409 545T498 496L447 142Q444 126 444 115Q444 100 449 91T469 76L429 -14Q339 -4 323 69Q293 28 259 6T180 -16Q107 -16 67 37T27 181Q27 270 56 353T150 490T312 545Q409 545 498 496ZM258
446T227 406T180 305T165 179Q165 129 179 108T221 86Q247 86 270 105T317 162L356 437Q332 446 306 446Q258 446 227 406ZM296 820L474 693L434 629L236 719L296 820Z" />
<glyph unicode="&#xe1;" glyph-name="aacute" horiz-adv-x="521" d="M409 545T498 496L447 142Q444 126 444 115Q444 100 449 91T469 76L429 -14Q339 -4 323 69Q293 28 259 6T180 -16Q107 -16 67 37T27 181Q27 270 56 353T150 490T312 545Q409 545 498 496ZM258
446T227 406T180 305T165 179Q165 129 179 108T221 86Q247 86 270 105T317 162L356 437Q332 446 306 446Q258 446 227 406ZM425 821L471 719L251 628L218 695L425 821Z" />
<glyph unicode="&#xe2;" glyph-name="acircumflex" horiz-adv-x="521" d="M409 545T498 496L447 142Q444 126 444 115Q444 100 449 91T469 76L429 -14Q339 -4 323 69Q293 28 259 6T180 -16Q107 -16 67 37T27 181Q27 270 56 353T150 490T312 545Q409 545 498 496ZM258
446T227 406T180 305T165 179Q165 129 179 108T221 86Q247 86 270 105T317 162L356 437Q332 446 306 446Q258 446 227 406ZM219 626L172 683L316 812H398L508 680L451 626L347 715L219 626Z" />
<glyph unicode="&#xe3;" glyph-name="atilde" horiz-adv-x="521" d="M409 545T498 496L447 142Q444 126 444 115Q444 100 449 91T469 76L429 -14Q339 -4 323 69Q293 28 259 6T180 -16Q107 -16 67 37T27 181Q27 270 56 353T150 490T312 545Q409 545 498 496ZM258
446T227 406T180 305T165 179Q165 129 179 108T221 86Q247 86 270 105T317 162L356 437Q332 446 306 446Q258 446 227 406ZM376 642T362 649T330 669Q318 679 310 683T292 688Q277 688 265 677T238 643L175 679Q200 727 232 756T299 786Q319 786 332 779T364 758Q377
748 384 744T400 740Q414 740 425 750T452 784L515 747Q491 698 459 670T393 642Q376 642 362 649Z" />
<glyph unicode="&#xe4;" glyph-name="adieresis" horiz-adv-x="521" d="M409 545T498 496L447 142Q444 126 444 115Q444 100 449 91T469 76L429 -14Q339 -4 323 69Q293 28 259 6T180 -16Q107 -16 67 37T27 181Q27 270 56 353T150 490T312 545Q409 545 498 496ZM258
446T227 406T180 305T165 179Q165 129 179 108T221 86Q247 86 270 105T317 162L356 437Q332 446 306 446Q258 446 227 406ZM207 646T190 663T172 708Q172 742 195 765T251 788Q280 788 297 771T315 726Q315 691 292 669T236 646Q207 646 190 663ZM412 646T395 663T377
708Q377 742 400 765T456 788Q485 788 502 771T520 726Q520 692 497 669T441 646Q412 646 395 663Z" />
<glyph unicode="&#xe5;" glyph-name="aring" horiz-adv-x="521" d="M409 545T498 496L447 142Q444 126 444 115Q444 100 449 91T469 76L429 -14Q339 -4 323 69Q293 28 259 6T180 -16Q107 -16 67 37T27 181Q27 270 56 353T150 490T312 545Q409 545 498 496ZM258
446T227 406T180 305T165 179Q165 129 179 108T221 86Q247 86 270 105T317 162L356 437Q332 446 306 446Q258 446 227 406ZM411 856T440 825T470 746Q470 710 453 679T404 630T333 612Q284 612 255 642T225 721Q225 757 242 788T291 837T361 856Q411 856 440 825ZM332
787T318 769T304 724Q304 703 313 692T339 681Q363 681 377 699T391 744Q391 765 382 776T356 787Q332 787 318 769Z" />
<glyph unicode="&#xe6;" glyph-name="ae" horiz-adv-x="757" d="M317 545T350 528T406 475Q437 508 480 526T576 545Q656 545 701 506T747 407Q747 305 661 258T433 195Q434 138 454 113T517 88Q548 88 577 99T640 135L689 53Q600 -16 499 -16Q439 -16 396 6T330
70Q292 24 250 5T157 -15Q89 -15 50 23T10 124Q10 207 67 262T259 317H315Q324 354 334 378Q328 409 304 426T243 443Q191 443 116 417L97 509Q185 545 265 545Q317 545 350 528ZM513 451T483 403T441 282Q614 299 614 401Q614 424 602 437T564 451Q513 451 483
403ZM261 236Q152 236 152 138Q152 83 201 83Q227 83 251 100T303 153Q301 166 301 200Q301 227 302 236H261Z" />
<glyph unicode="&#xe7;" glyph-name="ccedilla" horiz-adv-x="430" d="M322 -9T247 -15L241 -53Q280 -57 300 -79T321 -136Q321 -165 306 -192T259 -237T178 -255Q121 -255 82 -225L122 -163Q149 -178 176 -178Q197 -178 210 -169T223 -141Q223 -122 207 -115T147
-108L171 -10Q103 6 66 60T29 199Q29 284 59 363T150 494T301 545Q393 545 453 481L386 404Q366 423 347 431T303 440Q233 440 201 365T169 195Q169 93 244 93Q269 93 290 101T340 129L390 43Q322 -9 247 -15Z" />
<glyph unicode="&#xe8;" glyph-name="egrave" horiz-adv-x="486" d="M386 545T431 506T477 407Q477 305 391 258T164 194V191Q164 88 247 88Q277 88 306 99T370 135L419 53Q330 -16 229 -16Q133 -16 81 38T29 193Q29 280 58 360T149 493T306 545Q386 545 431 506ZM343
298T343 401Q343 424 332 437T294 451Q244 451 214 402T172 281Q343 298 343 401ZM273 820L451 693L411 629L213 719L273 820Z" />
<glyph unicode="&#xe9;" glyph-name="eacute" horiz-adv-x="486" d="M386 545T431 506T477 407Q477 305 391 258T164 194V191Q164 88 247 88Q277 88 306 99T370 135L419 53Q330 -16 229 -16Q133 -16 81 38T29 193Q29 280 58 360T149 493T306 545Q386 545 431 506ZM343
298T343 401Q343 424 332 437T294 451Q244 451 214 402T172 281Q343 298 343 401ZM402 821L448 719L228 628L195 695L402 821Z" />
<glyph unicode="&#xea;" glyph-name="ecircumflex" horiz-adv-x="486" d="M386 545T431 506T477 407Q477 305 391 258T164 194V191Q164 88 247 88Q277 88 306 99T370 135L419 53Q330 -16 229 -16Q133 -16 81 38T29 193Q29 280 58 360T149 493T306 545Q386 545
431 506ZM343 298T343 401Q343 424 332 437T294 451Q244 451 214 402T172 281Q343 298 343 401ZM196 626L149 683L293 812H375L485 680L428 626L324 715L196 626Z" />
<glyph unicode="&#xeb;" glyph-name="edieresis" horiz-adv-x="486" d="M386 545T431 506T477 407Q477 305 391 258T164 194V191Q164 88 247 88Q277 88 306 99T370 135L419 53Q330 -16 229 -16Q133 -16 81 38T29 193Q29 280 58 360T149 493T306 545Q386 545 431
506ZM343 298T343 401Q343 424 332 437T294 451Q244 451 214 402T172 281Q343 298 343 401ZM184 646T167 663T149 708Q149 742 172 765T228 788Q257 788 274 771T292 726Q292 691 269 669T213 646Q184 646 167 663ZM389 646T372 663T354 708Q354 742 377 765T433
788Q462 788 479 771T497 726Q497 692 474 669T418 646Q389 646 372 663Z" />
<glyph unicode="&#xec;" glyph-name="igrave" horiz-adv-x="253" d="M230 530L156 0H22L96 530H230ZM139 820L317 693L277 629L79 719L139 820Z" />
<glyph unicode="&#xed;" glyph-name="iacute" horiz-adv-x="253" d="M230 530L156 0H22L96 530H230ZM268 821L314 719L94 628L61 695L268 821Z" />
<glyph unicode="&#xee;" glyph-name="icircumflex" horiz-adv-x="253" d="M230 530L156 0H22L96 530H230ZM62 626L15 683L159 812H241L351 680L294 626L190 715L62 626Z" />
<glyph unicode="&#xef;" glyph-name="idieresis" horiz-adv-x="253" d="M230 530L156 0H22L96 530H230ZM50 646T33 663T15 708Q15 742 38 765T94 788Q123 788 140 771T158 726Q158 691 135 669T79 646Q50 646 33 663ZM255 646T238 663T220 708Q220 742 243 765T299
788Q328 788 345 771T363 726Q363 692 340 669T284 646Q255 646 238 663Z" />
<glyph unicode="&#xf0;" glyph-name="eth" horiz-adv-x="527" d="M438 613T465 547T493 388Q493 278 462 186T369 40T219 -15Q132 -15 79 38T26 187Q26 256 52 323T129 434T247 478Q285 478 313 465T363 426Q359 481 344 518T295 590L234 532L157 573L224 638Q193
652 141 665L179 755Q244 741 302 713L381 790L442 730L377 665Q438 613 465 547ZM287 86T315 149T356 327Q327 380 274 380Q215 380 188 319T161 181Q161 86 229 86Q287 86 315 149Z" />
<glyph unicode="&#xf1;" glyph-name="ntilde" horiz-adv-x="516" d="M420 546T450 512T481 419Q481 402 478 384L423 0H289L340 364Q342 382 342 387Q342 430 310 430Q261 430 199 306L156 0H22L96 530H213L209 439Q280 546 369 546Q420 546 450 512ZM353 642T339
649T307 669Q295 679 287 683T269 688Q254 688 242 677T215 643L152 679Q177 727 209 756T276 786Q296 786 309 779T341 758Q354 748 361 744T377 740Q391 740 402 750T429 784L492 747Q468 698 436 670T370 642Q353 642 339 649Z" />
<glyph unicode="&#xf2;" glyph-name="ograve" horiz-adv-x="526" d="M132 -16T81 40T29 198Q29 283 57 362T146 493T301 545Q394 545 445 489T496 332Q496 248 468 169T379 37T225 -16Q132 -16 81 40ZM280 87T308 130T347 234T359 350Q359 443 292 443Q246 443
218 401T178 299T166 184Q166 134 182 111T233 87Q280 87 308 130ZM275 820L453 693L413 629L215 719L275 820Z" />
<glyph unicode="&#xf3;" glyph-name="oacute" horiz-adv-x="526" d="M132 -16T81 40T29 198Q29 283 57 362T146 493T301 545Q394 545 445 489T496 332Q496 248 468 169T379 37T225 -16Q132 -16 81 40ZM280 87T308 130T347 234T359 350Q359 443 292 443Q246 443
218 401T178 299T166 184Q166 134 182 111T233 87Q280 87 308 130ZM404 821L450 719L230 628L197 695L404 821Z" />
<glyph unicode="&#xf4;" glyph-name="ocircumflex" horiz-adv-x="526" d="M132 -16T81 40T29 198Q29 283 57 362T146 493T301 545Q394 545 445 489T496 332Q496 248 468 169T379 37T225 -16Q132 -16 81 40ZM280 87T308 130T347 234T359 350Q359 443 292 443Q246
443 218 401T178 299T166 184Q166 134 182 111T233 87Q280 87 308 130ZM198 626L151 683L295 812H377L487 680L430 626L326 715L198 626Z" />
<glyph unicode="&#xf5;" glyph-name="otilde" horiz-adv-x="526" d="M132 -16T81 40T29 198Q29 283 57 362T146 493T301 545Q394 545 445 489T496 332Q496 248 468 169T379 37T225 -16Q132 -16 81 40ZM280 87T308 130T347 234T359 350Q359 443 292 443Q246 443
218 401T178 299T166 184Q166 134 182 111T233 87Q280 87 308 130ZM355 642T341 649T309 669Q297 679 289 683T271 688Q256 688 244 677T217 643L154 679Q179 727 211 756T278 786Q298 786 311 779T343 758Q356 748 363 744T379 740Q393 740 404 750T431 784L494
747Q470 698 438 670T372 642Q355 642 341 649Z" />
<glyph unicode="&#xf6;" glyph-name="odieresis" horiz-adv-x="526" d="M132 -16T81 40T29 198Q29 283 57 362T146 493T301 545Q394 545 445 489T496 332Q496 248 468 169T379 37T225 -16Q132 -16 81 40ZM280 87T308 130T347 234T359 350Q359 443 292 443Q246
443 218 401T178 299T166 184Q166 134 182 111T233 87Q280 87 308 130ZM186 646T169 663T151 708Q151 742 174 765T230 788Q259 788 276 771T294 726Q294 691 271 669T215 646Q186 646 169 663ZM391 646T374 663T356 708Q356 742 379 765T435 788Q464 788 481 771T499
726Q499 692 476 669T420 646Q391 646 374 663Z" />
<glyph unicode="&#xf7;" glyph-name="divide" horiz-adv-x="464" d="M172 12T152 33T132 86Q132 124 157 151T221 178Q254 178 274 157T294 104Q294 66 268 39T204 12Q172 12 152 33ZM238 485T218 506T198 559Q198 597 223 624T287 651Q320 651 340 630T360 577Q360
539 334 512T270 485Q238 485 218 506ZM49 278L63 386H434L419 278H49Z" />
<glyph unicode="&#xf8;" glyph-name="oslash" horiz-adv-x="526" d="M458 479T477 435T496 332Q496 248 468 169T379 37T225 -16Q214 -16 194 -14L144 -133L49 -103L103 22Q67 49 48 94T29 198Q29 283 57 362T146 493T301 545Q313 545 333 543L383 663L478 633L423
507Q458 479 477 435ZM244 446T214 405T170 303T157 185Q157 139 169 115L170 116L305 445Q301 446 293 446Q244 446 214 405ZM282 83T312 125T356 227T369 344Q369 387 358 411L357 410L222 83H233Q282 83 312 125Z" />
<glyph unicode="&#xf9;" glyph-name="ugrave" horiz-adv-x="511" d="M97 -16T66 17T35 109Q35 125 38 143L92 530H226L174 158Q173 151 173 138Q173 96 205 96Q231 96 256 121T306 186L355 530H488L414 0H298L303 81Q270 34 234 9T151 -16Q97 -16 66 17ZM266 820L444
693L404 629L206 719L266 820Z" />
<glyph unicode="&#xfa;" glyph-name="uacute" horiz-adv-x="511" d="M97 -16T66 17T35 109Q35 125 38 143L92 530H226L174 158Q173 151 173 138Q173 96 205 96Q231 96 256 121T306 186L355 530H488L414 0H298L303 81Q270 34 234 9T151 -16Q97 -16 66 17ZM395 821L441
719L221 628L188 695L395 821Z" />
<glyph unicode="&#xfb;" glyph-name="ucircumflex" horiz-adv-x="511" d="M97 -16T66 17T35 109Q35 125 38 143L92 530H226L174 158Q173 151 173 138Q173 96 205 96Q231 96 256 121T306 186L355 530H488L414 0H298L303 81Q270 34 234 9T151 -16Q97 -16 66 17ZM189
626L142 683L286 812H368L478 680L421 626L317 715L189 626Z" />
<glyph unicode="&#xfc;" glyph-name="udieresis" horiz-adv-x="511" d="M97 -16T66 17T35 109Q35 125 38 143L92 530H226L174 158Q173 151 173 138Q173 96 205 96Q231 96 256 121T306 186L355 530H488L414 0H298L303 81Q270 34 234 9T151 -16Q97 -16 66 17ZM177
646T160 663T142 708Q142 742 165 765T221 788Q250 788 267 771T285 726Q285 691 262 669T206 646Q177 646 160 663ZM382 646T365 663T347 708Q347 742 370 765T426 788Q455 788 472 771T490 726Q490 692 467 669T411 646Q382 646 365 663Z" />
<glyph unicode="&#xfd;" glyph-name="yacute" horiz-adv-x="460" d="M279 -3Q236 -107 166 -159T-15 -219L-18 -123Q53 -111 89 -85T155 0H106L36 530H176L204 91L359 530H499L279 -3ZM372 821L418 719L198 628L165 695L372 821Z" />
<glyph unicode="&#xfe;" glyph-name="thorn" horiz-adv-x="530" d="M427 545T465 496T503 354Q503 260 476 176T390 38T238 -16Q194 -16 156 -1L127 -205L-9 -221L126 741L262 756L223 483Q251 512 286 528T357 545Q427 545 465 496ZM277 85T307 127T352 230T366
352Q366 402 351 423T307 444Q260 444 209 381L170 97Q202 85 231 85Q277 85 307 127Z" />
<glyph unicode="&#xff;" glyph-name="ydieresis" horiz-adv-x="460" d="M279 -3Q236 -107 166 -159T-15 -219L-18 -123Q53 -111 89 -85T155 0H106L36 530H176L204 91L359 530H499L279 -3ZM154 646T137 663T119 708Q119 742 142 765T198 788Q227 788 244 771T262
726Q262 691 239 669T183 646Q154 646 137 663ZM359 646T342 663T324 708Q324 742 347 765T403 788Q432 788 449 771T467 726Q467 692 444 669T388 646Q359 646 342 663Z" />
<glyph unicode="&#x2013;" glyph-name="endash" horiz-adv-x="467" d="M23 259L38 367H458L443 259H23Z" />
<glyph unicode="&#x2014;" glyph-name="emdash" horiz-adv-x="711" d="M23 259L38 367H702L687 259H23Z" />
<glyph unicode="&#x2018;" glyph-name="quoteleft" horiz-adv-x="223" d="M113 472T95 489T77 536Q77 556 84 575T110 627L189 762H259L198 605Q224 587 224 552Q224 518 201 495T143 472Q113 472 95 489Z" />
<glyph unicode="&#x2019;" glyph-name="quoteright" horiz-adv-x="223" d="M209 761T227 744T245 697Q245 677 238 658T212 606L133 471H63L124 628Q98 646 98 681Q98 715 121 738T179 761Q209 761 227 744Z" />
<glyph unicode="&#x201a;" glyph-name="quotesinglbase" horiz-adv-x="223" d="M120 130T138 113T156 66Q156 46 149 27T123 -25L44 -160H-26L35 -3Q9 15 9 50Q9 84 32 107T90 130Q120 130 138 113Z" />
<glyph unicode="&#x201c;" glyph-name="quotedblleft" horiz-adv-x="421" d="M113 472T95 489T77 536Q77 556 84 575T110 627L189 762H259L198 605Q224 587 224 552Q224 518 201 495T143 472Q113 472 95 489ZM311 472T293 489T275 536Q275 556 282 575T308 627L387
762H457L396 605Q422 587 422 552Q422 518 399 495T341 472Q311 472 293 489Z" />
<glyph unicode="&#x201d;" glyph-name="quotedblright" horiz-adv-x="421" d="M209 761T227 744T245 697Q245 677 238 658T212 606L133 471H63L124 628Q98 646 98 681Q98 715 121 738T179 761Q209 761 227 744ZM407 761T425 744T443 697Q443 677 436 658T410 606L331
471H261L322 628Q296 646 296 681Q296 715 319 738T377 761Q407 761 425 744Z" />
<glyph unicode="&#x201e;" glyph-name="quotedblbase" horiz-adv-x="421" d="M120 130T138 113T156 66Q156 46 149 27T123 -25L44 -160H-26L35 -3Q9 15 9 50Q9 84 32 107T90 130Q120 130 138 113ZM318 130T336 113T354 66Q354 46 347 27T321 -25L242 -160H172L233
-3Q207 15 207 50Q207 84 230 107T288 130Q318 130 336 113Z" />
<glyph unicode="&#x2022;" glyph-name="bullet" horiz-adv-x="321" d="M236 470T266 439T297 359Q297 319 279 286T228 233T157 213Q107 213 76 244T45 325Q45 365 64 398T115 451T186 470Q236 470 266 439Z" />
<glyph unicode="&#x2039;" glyph-name="guilsinglleft" horiz-adv-x="320" d="M240 549L317 493L172 284L258 77L169 22L33 241L45 329L240 549Z" />
<glyph unicode="&#x203a;" glyph-name="guilsinglright" horiz-adv-x="320" d="M157 549L294 329L281 241L85 22L9 77L155 286L67 493L157 549Z" />
</font>
</defs>
</svg>
