<?xml version="1.0" standalone="no"?>
<!DOCTYPE svg PUBLIC "-//W3C//DTD SVG 1.1//EN" "http://www.w3.org/Graphics/SVG/1.1/DTD/svg11.dtd">
<svg xmlns="http://www.w3.org/2000/svg">
<defs >
<font id="NovaFlat" horiz-adv-x="1169" ><font-face
    font-family="Nova Flat"
    units-per-em="2048"
    panose-1="2 12 5 4 2 4 4 6 2 4"
    ascent="1966"
    descent="-506"
    alphabetic="0" />
<glyph unicode=" " glyph-name="space" horiz-adv-x="800" />
<glyph unicode="!" glyph-name="exclam" horiz-adv-x="600" d="M180 52T180 102T215 189T300 225T385 189T420 103T385 16T300 -20T215 16ZM390 1550H400V510L210 420H200V1460L390 1550Z" />
<glyph unicode="&quot;" glyph-name="quotedbl" horiz-adv-x="747" d="M587 1550H597V1066L441 992H431V1476L587 1550ZM306 1550H316V1066L160 992H150V1476L306 1550Z" />
<glyph unicode="#" glyph-name="numbersign" horiz-adv-x="1368" d="M458 222H448V520H150V530L231 702H448V810H150V820L231 992H448V1209L620 1290H630V992H738V1209L910 1290H920V992H1218V982L1137 810H920V702H1218V692L1137 520H920V303L748 222H738V520H630V303L458
222ZM630 702H738V810H630V702Z" />
<glyph unicode="$" glyph-name="dollar" horiz-adv-x="1330" d="M160 460L350 550H360V310Q360 240 481 193Q540 170 607 163V753Q514 760 437 790Q250 864 250 996V1285Q250 1418 437 1491Q514 1521 607 1528V1700L713 1750H723V1528Q816 1521 893 1491Q1080
1418 1080 1285V1157L890 1067H880V1250Q880 1300 818 1325Q776 1342 723 1347V929Q840 921 943 878Q1170 783 1170 601V310Q1170 129 943 33Q841 -10 723 -18V-190L617 -240H607V-18Q490 -10 387 33Q160 128 160 310V460ZM607 934V1347Q554 1342 512 1325Q450
1299 450 1250V1031Q450 982 512 956Q554 939 607 934ZM723 748V163Q790 170 849 193Q970 240 970 310V601Q970 671 849 718Q790 741 723 748Z" />
<glyph unicode="%" glyph-name="percent" horiz-adv-x="2144" d="M1364 260Q1364 210 1426 185T1579 160T1731 185T1794 260V500Q1794 550 1732 575T1579 600T1427 575T1364 500V260ZM1164 225V535Q1164 669 1351 741Q1452 780 1579 780Q1709 780 1807 741Q1994
666 1994 535V225Q1994 91 1807 19Q1706 -20 1579 -20Q1449 -20 1351 19Q1164 93 1164 225ZM350 1010Q350 960 412 935T565 910T717 935T780 1010V1250Q780 1300 718 1325T565 1350T413 1325T350 1250V1010ZM150 975V1285Q150 1419 337 1491Q438 1530 565 1530Q695
1530 793 1491Q980 1416 980 1285V975Q980 841 793 769Q692 730 565 730Q435 730 337 769Q150 843 150 975ZM788 -40L647 28L1356 1550H1366L1507 1482L798 -40H788Z" />
<glyph unicode="&amp;" glyph-name="ampersand" horiz-adv-x="1720" d="M849 -20Q757 -20 665 -20Q512 -20 387 33Q160 130 160 310V601Q160 764 373 857Q250 967 250 1081V1200Q250 1386 432 1477Q538 1530 665 1530T898 1477Q1080 1384 1080 1200V1137L890 1047H880V1200Q880
1271 804 1317Q750 1350 665 1350T526 1317Q450 1269 450 1200V1081Q450 1000 527 960Q586 929 653 923Q749 914 830 914L1124 560L1376 896H1386L1558 814L1240 418L1560 42L1386 -40H1376L1106 284L849 -20ZM726 747Q690 750 665 751Q565 751 481 718Q360 670
360 601V310Q360 240 481 193Q565 160 665 160Q800 160 1006 416L726 747Z" />
<glyph unicode="&apos;" glyph-name="quotesingle" horiz-adv-x="466" d="M306 1550H316V1066L160 992H150V1476L306 1550Z" />
<glyph unicode="(" glyph-name="parenleft" horiz-adv-x="755" d="M705 1750V1570Q605 1570 521 1537Q400 1489 400 1420V90Q400 21 521 -27Q605 -60 705 -60V-240Q554 -240 427 -187Q200 -93 200 90V1420Q200 1603 427 1697Q554 1750 705 1750Z" />
<glyph unicode=")" glyph-name="parenright" horiz-adv-x="755" d="M50 1750Q201 1750 328 1697Q555 1603 555 1420V90Q555 -93 328 -187Q201 -240 50 -240V-60Q150 -60 234 -27Q355 21 355 90V1420Q355 1489 234 1537Q150 1570 50 1570V1750Z" />
<glyph unicode="*" glyph-name="asterisk" horiz-adv-x="1183" d="M682 1550V1231L871 1360L1028 1251L1033 1243L753 1093L1033 943L1028 935L871 826L682 955V717L510 636H500V955L311 826L155 935L150 943L429 1093L150 1243L155 1251L311 1360L500 1231V1469L672
1550H682Z" />
<glyph unicode="+" glyph-name="plus" horiz-adv-x="1214" d="M698 1212V846H1064V836L983 664H698V379L526 298H516V664H150V674L231 846H516V1131L688 1212H698Z" />
<glyph unicode="," glyph-name="comma" horiz-adv-x="609" d="M340 278H350Q459 171 459 34Q459 -157 214 -286L171 -236Q284 -121 284 -20Q284 101 150 188L340 278Z" />
<glyph unicode="-" glyph-name="hyphen" horiz-adv-x="1214" d="M150 664V674L231 846H1064V836L983 664H150Z" />
<glyph unicode="." glyph-name="period" horiz-adv-x="600" d="M180 52T180 102T215 189T300 225T385 189T420 103T385 16T300 -20T215 16Z" />
<glyph unicode="/" glyph-name="slash" horiz-adv-x="974" d="M151 -140L10 -72L812 1650H822L964 1582L161 -140H151Z" />
<glyph unicode="0" glyph-name="zero" horiz-adv-x="1410" d="M400 310Q400 242 521 193Q605 160 705 160T889 193Q1010 241 1010 310V1200Q1010 1268 889 1317Q805 1350 705 1350T521 1317Q400 1269 400 1200V310ZM200 310Q200 310 200 1200Q200 1383 427 1477Q554
1530 705 1530T983 1477Q1210 1383 1210 1200V310Q1210 127 983 33Q856 -20 705 -20T427 33Q200 127 200 310Z" />
<glyph unicode="1" glyph-name="one" horiz-adv-x="714" d="M264 -40V1272L20 1138V1343L454 1550H464V50L274 -40H264Z" />
<glyph unicode="2" glyph-name="two" horiz-adv-x="1333" d="M150 0V10L231 182L710 646Q970 899 970 997V1200Q970 1269 849 1317Q765 1350 665 1350T481 1317Q360 1269 360 1200V1050L170 960H160V1200Q160 1383 387 1477Q514 1530 665 1530T943 1477Q1170 1383
1170 1200V987Q1170 805 899 564L472 182H1173V172L1092 0H150Z" />
<glyph unicode="3" glyph-name="three" horiz-adv-x="1330" d="M160 460L350 550H360V310Q360 241 481 193Q565 160 665 160T849 193Q970 241 970 310V601Q970 671 849 718Q765 751 665 751Q527 751 442 707L773 1328H249V1338L330 1510H1083L748 927Q852 916
943 878Q1170 783 1170 601V310Q1170 128 943 33Q816 -20 665 -20T387 33Q160 127 160 310V460Z" />
<glyph unicode="4" glyph-name="four" horiz-adv-x="1188" d="M738 540V1186L303 540H738ZM738 -40V358H5V368L86 540L738 1460L928 1550H938V540H1088V530L1007 358H938V50L748 -40H738Z" />
<glyph unicode="5" glyph-name="five" horiz-adv-x="1330" d="M160 460L350 550H360V310Q360 241 481 193Q565 160 665 160T849 193Q970 241 970 310V601Q970 671 849 718Q765 751 665 751Q527 751 442 707L233 808L400 1510H1093V1500L1012 1328H552L430 882Q522
931 665 931Q816 931 943 878Q1170 784 1170 601V310Q1170 128 943 33Q816 -20 665 -20T387 33Q160 127 160 310V460Z" />
<glyph unicode="6" glyph-name="six" horiz-adv-x="1410" d="M1190 1130L1000 1040H990V1200Q990 1269 869 1317Q785 1350 690 1350Q605 1350 521 1317Q400 1269 400 1200V897Q413 903 427 909Q551 962 705 962Q856 962 983 909Q1210 814 1210 632V310Q1210 128
983 33Q856 -20 705 -20T427 33Q200 127 200 310V1200Q200 1384 427 1477Q554 1530 690 1530Q836 1530 963 1477Q1190 1383 1190 1200V1130ZM400 310Q400 241 521 193Q605 160 705 160T889 193Q1010 241 1010 310V632Q1010 701 889 749Q805 782 705 782T521 749Q400
701 400 632V310Z" />
<glyph unicode="7" glyph-name="seven" horiz-adv-x="1047" d="M458 -40H448L268 45L726 1328H50V1338L131 1510H997V1500L458 -40Z" />
<glyph unicode="8" glyph-name="eight" horiz-adv-x="1330" d="M450 1081Q450 1012 526 964Q580 931 665 931T804 964Q880 1010 880 1081V1200Q880 1271 804 1317Q750 1350 665 1350T526 1317Q450 1269 450 1200V1081ZM360 310Q360 240 481 193Q565 160 665 160T849
193Q970 240 970 310V601Q970 670 849 718Q765 751 665 751T481 718Q360 670 360 601V310ZM160 310V601Q160 764 373 857Q250 967 250 1081V1200Q250 1384 432 1477Q538 1530 665 1530T898 1477Q1080 1386 1080 1200V1081Q1080 967 957 857Q1170 764 1170 601V310Q1170
128 943 33Q816 -20 665 -20T387 33Q160 128 160 310Z" />
<glyph unicode="9" glyph-name="nine" horiz-adv-x="1410" d="M200 380L390 470H400V310Q400 241 521 193Q605 160 705 160T889 193Q1010 241 1010 310V613Q997 607 983 601Q859 548 705 548Q554 548 427 601Q200 696 200 878V1200Q200 1382 427 1477Q554 1530
705 1530T983 1477Q1210 1383 1210 1200V310Q1210 128 983 33Q856 -20 705 -20T427 33Q200 127 200 310V380ZM1010 1200Q1010 1269 889 1317Q805 1350 705 1350T521 1317Q400 1269 400 1200V878Q400 809 521 761Q605 728 705 728T889 761Q1010 809 1010 878V1200Z"
/>
<glyph unicode=":" glyph-name="colon" horiz-adv-x="600" d="M180 703T180 753T215 840T300 876T385 840T420 754T385 667T300 631T215 667ZM180 52T180 102T215 189T300 225T385 189T420 103T385 16T300 -20T215 16Z" />
<glyph unicode=";" glyph-name="semicolon" horiz-adv-x="600" d="M205 -286Q205 -286 162 -236Q275 -121 275 -20Q275 101 141 188Q141 188 331 278H341Q450 171 450 34Q450 -157 205 -286ZM180 703T180 753T215 840T300 876T385 840T420 754T385 667T300 631T215 667Z" />
<glyph unicode="&lt;" glyph-name="less" horiz-adv-x="1338" d="M150 664V674L232 847L1056 1198L1138 1025V1015L454 738L1138 461V451L1056 278L150 664Z" />
<glyph unicode="=" glyph-name="equal" horiz-adv-x="1214" d="M150 846V856L231 1028H1064V1018L983 846H150ZM150 482V492L231 664H1064V654L983 482H150Z" />
<glyph unicode="&gt;" glyph-name="greater" horiz-adv-x="1338" d="M1188 812V802L1106 629L282 278L200 451V461L884 738L200 1015V1025L282 1198L1188 812Z" />
<glyph unicode="?" glyph-name="question" horiz-adv-x="1310" d="M528 361Q529 615 703 722Q960 880 960 1051V1200Q960 1269 839 1317Q755 1350 655 1350T471 1317Q350 1269 350 1200V1050L160 960H150V1200Q150 1383 377 1477Q504 1530 655 1530T933 1477Q1160
1383 1160 1200V1050Q1160 803 821 591Q734 537 731 454L538 361H528ZM525 52T525 102T560 189T645 225T730 189T765 103T730 16T645 -20T560 16Z" />
<glyph unicode="@" glyph-name="at" horiz-adv-x="1370" d="M1000 -40H904Q774 -40 676 -1Q489 73 489 205V424Q489 558 676 630Q777 669 904 669Q949 669 990 664V790Q990 859 869 907Q785 940 685 940T501 907Q380 859 380 790V-100Q380 -169 501 -217Q585 -250
685 -250V-430Q534 -430 407 -377Q180 -283 180 -100V790Q180 973 407 1067Q534 1120 685 1120T963 1067Q1190 972 1190 790V50L1000 -40ZM990 147V482Q951 489 904 489Q814 489 752 464T689 389V240Q689 190 751 165T904 140Q951 140 990 147Z" />
<glyph unicode="A" glyph-name="A" horiz-adv-x="1410" d="M200 -40V1200Q200 1383 427 1477Q554 1530 705 1530T983 1477Q1210 1383 1210 1200Q1210 1200 1210 50L1020 -40H1010V664H400V50L210 -40H200ZM400 846H1010V1200Q1010 1269 889 1317Q805 1350 705
1350T521 1317Q400 1269 400 1200V846Z" />
<glyph unicode="B" glyph-name="B" horiz-adv-x="1370" d="M400 926H685Q770 926 824 959Q900 1007 900 1076V1180Q900 1264 820 1297T685 1330H400V926ZM400 180H685Q785 180 869 213Q990 260 990 330V596Q990 665 869 713Q785 746 685 746H400V180ZM200 0V1460L306
1510H685Q812 1510 918 1457Q1100 1364 1100 1180V1076Q1100 962 977 852Q1190 759 1190 596V330Q1190 148 963 53Q836 0 685 0H200Z" />
<glyph unicode="C" glyph-name="C" horiz-adv-x="1410" d="M1210 550V310Q1210 127 983 33Q856 -20 705 -20T427 33Q200 127 200 310V1200Q200 1383 427 1477Q554 1530 705 1530T983 1477Q1210 1383 1210 1200V1050L1020 960H1010V1200Q1010 1268 889 1317Q805
1350 705 1350T521 1317Q400 1269 400 1200V310Q400 242 521 193Q605 160 705 160T889 193Q1010 241 1010 310V460L1200 550H1210Z" />
<glyph unicode="D" glyph-name="D" horiz-adv-x="1390" d="M400 180H685Q785 180 869 213Q990 261 990 330V1180Q990 1249 869 1297Q786 1330 685 1330H400V180ZM200 0V1460L306 1510H685Q836 1510 963 1457Q1190 1363 1190 1180V330Q1190 147 963 53Q836 0 685 0H200Z" />
<glyph unicode="E" glyph-name="E" horiz-adv-x="1157" d="M200 0V1460L306 1510H940V1500L859 1328H400V846H940V836L859 664H400V182H1107V172L1026 0H200Z" />
<glyph unicode="F" glyph-name="F" horiz-adv-x="1120" d="M200 -40V1460L306 1510H940V1500L859 1328H400V846H940V836L859 664H400V50L210 -40H200Z" />
<glyph unicode="G" glyph-name="G" horiz-adv-x="1410" d="M1210 846V310Q1210 127 983 33Q856 -20 705 -20T427 33Q200 127 200 310V1200Q200 1383 427 1477Q554 1530 705 1530T983 1477Q1210 1383 1210 1200V1050L1020 960H1010V1200Q1010 1269 889 1317Q805
1350 705 1350T521 1317Q400 1269 400 1200V310Q400 241 521 193Q605 160 705 160T889 193Q1010 241 1010 310V664H662V674L743 846H1210Z" />
<glyph unicode="H" glyph-name="H" horiz-adv-x="1390" d="M200 -40V1460L390 1550H400V846H990V1460L1180 1550H1190V50L1000 -40H990V664H400V50L210 -40H200Z" />
<glyph unicode="I" glyph-name="I" horiz-adv-x="600" d="M200 -40V1460L390 1550H400V50L210 -40H200Z" />
<glyph unicode="J" glyph-name="J" horiz-adv-x="1270" d="M80 460L270 550H280V310Q280 241 401 193Q485 160 580 160Q665 160 749 193Q870 241 870 310V1328H297V1338L378 1510H1070V310Q1070 127 843 33Q716 -20 580 -20Q434 -20 307 33Q80 127 80 310V460Z" />
<glyph unicode="K" glyph-name="K" horiz-adv-x="1360" d="M200 -40V1460L390 1550H400V797L943 1550H953L1129 1467L683 873Q822 873 953 818Q1180 723 1180 541V50L990 -40H980V541Q980 610 859 658Q764 693 683 693Q601 693 522 662Q400 615 400 541V50L210 -40H200Z" />
<glyph unicode="L" glyph-name="L" horiz-adv-x="1090" d="M200 0V1460L390 1550H400V182H1085V172L1004 0H200Z" />
<glyph unicode="M" glyph-name="M" horiz-adv-x="2220" d="M200 -40V1200Q200 1383 427 1477Q554 1530 705 1530Q857 1530 983 1477Q1059 1445 1110 1404Q1161 1445 1237 1477Q1363 1530 1515 1530Q1666 1530 1793 1477Q2020 1383 2020 1200V50L1830 -40H1820V1200Q1820
1269 1699 1317Q1615 1350 1515 1350T1331 1317Q1210 1269 1210 1200V50L1020 -40H1010V1200Q1010 1269 889 1317Q805 1350 705 1350T521 1317Q400 1269 400 1200V50L210 -40H200Z" />
<glyph unicode="N" glyph-name="N" horiz-adv-x="1410" d="M200 -40V1200Q200 1383 427 1477Q554 1530 705 1530T983 1477Q1210 1383 1210 1200V50L1020 -40H1010V1200Q1010 1269 889 1317Q805 1350 705 1350T521 1317Q400 1269 400 1200V50L210 -40H200Z" />
<glyph unicode="O" glyph-name="O" horiz-adv-x="1410" d="M400 310Q400 242 521 193Q605 160 705 160T889 193Q1010 241 1010 310V1200Q1010 1268 889 1317Q805 1350 705 1350T521 1317Q400 1269 400 1200V310ZM200 310Q200 310 200 1200Q200 1383 427 1477Q554
1530 705 1530T983 1477Q1210 1383 1210 1200V310Q1210 127 983 33Q856 -20 705 -20T427 33Q200 127 200 310Z" />
<glyph unicode="P" glyph-name="P" horiz-adv-x="1340" d="M200 -40V1460L306 1510H685Q836 1510 963 1457Q1190 1363 1190 1180V840Q1190 657 963 563Q836 510 685 510H400V50L210 -40H200ZM400 690H685Q785 690 869 723Q990 771 990 840V1180Q990 1250 869 1297Q785
1330 685 1330H400V690Z" />
<glyph unicode="Q" glyph-name="Q" horiz-adv-x="1410" d="M200 310V1200Q200 1383 427 1477Q554 1530 705 1530T983 1477Q1210 1383 1210 1200V310Q1210 192 1115 111L1163 43L987 -40H977L938 16Q829 -20 705 -20Q554 -20 427 33Q200 127 200 310ZM400 310Q400
241 521 193Q605 160 705 160Q770 160 828 174L631 455L807 538H817L1001 274Q1010 291 1010 310V1200Q1010 1268 889 1317Q805 1350 705 1350T521 1317Q400 1269 400 1200V310Z" />
<glyph unicode="R" glyph-name="R" horiz-adv-x="1364" d="M400 690H685Q785 690 869 723Q990 771 990 840V1180Q990 1250 869 1297Q785 1330 685 1330H400V690ZM200 -40V1460L306 1510H685Q836 1510 963 1457Q1190 1363 1190 1180V840Q1190 656 963 563Q919 545
872 533L1214 43L1038 -40H1028L643 510H400V50L210 -40H200Z" />
<glyph unicode="S" glyph-name="S" horiz-adv-x="1330" d="M160 460L350 550H360V310Q360 241 481 193Q565 160 665 160T849 193Q970 241 970 310V601Q970 671 849 718Q765 751 665 751Q538 751 437 790Q250 864 250 996V1285Q250 1419 437 1491Q538 1530 665
1530T893 1491Q1080 1417 1080 1285V1157L890 1067H880V1250Q880 1300 818 1325T665 1350T513 1325T450 1250V1031Q450 981 512 956T665 931Q816 931 943 878Q1170 784 1170 601V310Q1170 128 943 33Q816 -20 665 -20T387 33Q160 127 160 310V460Z" />
<glyph unicode="T" glyph-name="T" horiz-adv-x="1066" d="M433 -40V1328H5V1338L86 1510H1061V1500L980 1328H633V50L443 -40H433Z" />
<glyph unicode="U" glyph-name="U" horiz-adv-x="1410" d="M200 1460L390 1550H400V310Q400 241 521 193Q605 160 705 160T889 193Q1010 241 1010 310V1460L1200 1550H1210V310Q1210 127 983 33Q856 -20 705 -20T427 33Q200 127 200 310V1460Z" />
<glyph unicode="V" glyph-name="V" horiz-adv-x="1181" d="M515 -40L5 1468L178 1550H188L602 294L993 1550H1003L1176 1468L698 42L525 -40H515Z" />
<glyph unicode="W" glyph-name="W" horiz-adv-x="2220" d="M200 1460L390 1550H400V310Q400 241 521 193Q605 160 705 160T889 193Q1010 241 1010 310V1460L1200 1550H1210V310Q1210 241 1331 193Q1415 160 1515 160T1699 193Q1820 241 1820 310V1460L2010 1550H2020V310Q2020
127 1793 33Q1666 -20 1515 -20Q1363 -20 1237 33Q1161 65 1110 106Q1059 65 983 33Q857 -20 705 -20Q554 -20 427 33Q200 127 200 310V1460Z" />
<glyph unicode="X" glyph-name="X" horiz-adv-x="1278" d="M274 -40L100 42L522 755L100 1467L275 1550H285L639 932L993 1550H1003L1178 1467L756 755L1178 42L1004 -40H994L639 578L284 -40H274Z" />
<glyph unicode="Y" glyph-name="Y" horiz-adv-x="1310" d="M555 -40V482Q462 494 377 529Q150 622 150 806V1460L340 1550H350V806Q350 737 471 689Q555 656 655 656T839 689Q960 737 960 806V1460L1150 1550H1160V806Q1160 624 933 529Q849 494 755 482V50L565 -40H555Z" />
<glyph unicode="Z" glyph-name="Z" horiz-adv-x="1267" d="M150 0V10L797 1328H160V1338L241 1510H1107V1500L457 182H1117V172L1036 0H150Z" />
<glyph unicode="[" glyph-name="bracketleft" horiz-adv-x="864" d="M200 -240V1660L390 1750H814V1740L753 1610H400V-100H814V-110L753 -240H200Z" />
<glyph unicode="\" glyph-name="backslash" horiz-adv-x="974" d="M812 -140L10 1582L151 1650H161L964 -72L822 -140H812Z" />
<glyph unicode="]" glyph-name="bracketright" horiz-adv-x="864" d="M50 -240V-230L111 -100H464V1610H50V1620L111 1750H664V-150L474 -240H50Z" />
<glyph unicode="^" glyph-name="asciicircum" horiz-adv-x="1321" d="M150 1088L528 1468L701 1550H711L1171 1088L998 1006H988L659 1328L333 1006H323L150 1088Z" />
<glyph unicode="_" glyph-name="underscore" horiz-adv-x="1214" d="M150 -410V-400L231 -228H1064V-238L983 -410H150Z" />
<glyph unicode="`" glyph-name="grave" horiz-adv-x="648" d="M326 1550H336L498 1205L381 1150H371L150 1466L326 1550Z" />
<glyph unicode="a" glyph-name="a" horiz-adv-x="1060" d="M910 50L720 -40H710V14Q614 -20 505 -20Q388 -20 287 19Q100 93 100 225V495Q100 629 287 701Q388 740 505 740Q615 740 710 706V840Q710 890 648 915T495 940H252V950L332 1120H495Q622 1120 723 1081Q910
1009 910 875V50ZM300 260Q300 210 362 185T505 160T647 185T710 260V460Q710 510 648 535T505 560T362 535Q300 510 300 460V260Z" />
<glyph unicode="b" glyph-name="b" horiz-adv-x="1180" d="M200 225V1460L390 1550H400V1086Q496 1120 615 1120Q742 1120 843 1081Q1030 1007 1030 875V225Q1030 91 843 19Q742 -20 615 -20T387 19Q200 93 200 225ZM400 840V260Q400 210 462 185T615 160T767
185T830 260V840Q830 890 768 915T615 940T463 915T400 840Z" />
<glyph unicode="c" glyph-name="c" horiz-adv-x="1130" d="M980 443V225Q980 93 793 19Q692 -20 565 -20T337 19Q150 93 150 225V875Q150 1007 337 1081Q438 1120 565 1120T793 1081Q980 1007 980 875V747L790 657H780V840Q780 890 718 915T565 940T413 915T350
840V260Q350 210 412 185T565 160T717 185T780 260V353L970 443H980Z" />
<glyph unicode="d" glyph-name="d" horiz-adv-x="1180" d="M150 225Q150 225 150 875Q150 1009 337 1081Q438 1120 565 1120Q684 1120 780 1086V1460L970 1550H980V225Q980 91 793 19Q692 -20 565 -20T337 19Q150 93 150 225ZM350 260Q350 210 412 185T565 160T717
185T780 260V840Q780 890 718 915T565 940T413 915T350 840V260Z" />
<glyph unicode="e" glyph-name="e" horiz-adv-x="1130" d="M980 443V225Q980 93 793 19Q692 -20 565 -20T337 19Q150 93 150 225V875Q150 1007 337 1081Q438 1120 565 1120T793 1081Q980 1007 980 875V747L350 260Q350 210 412 185T565 160T717 185T780 260V353L970
443H980ZM350 471L780 817V840Q780 890 718 915T565 940T413 915T350 840V471Z" />
<glyph unicode="f" glyph-name="f" horiz-adv-x="850" d="M200 -40V818H50V828L131 1000H200V1285Q200 1419 387 1491Q488 1530 615 1530H750V1520L670 1350H615Q525 1350 463 1325T400 1250V1000H731V990L650 818H400V50L210 -40H200Z" />
<glyph unicode="g" glyph-name="g" horiz-adv-x="1160" d="M150 225V875Q150 1009 337 1081Q438 1120 565 1120T793 1081Q980 1007 980 875V-185Q980 -319 793 -391Q692 -430 565 -430H254V-420L334 -250H565Q655 -250 717 -225T780 -150V14Q684 -20 565 -20Q438
-20 337 19Q150 93 150 225ZM350 260Q350 210 412 185T565 160Q656 160 718 185T780 260V840Q780 890 718 915T565 940T413 915T350 840V260Z" />
<glyph unicode="h" glyph-name="h" horiz-adv-x="1180" d="M200 -40V1460L390 1550H400V1086Q496 1120 615 1120Q742 1120 843 1081Q1030 1009 1030 875V50L840 -40H830V840Q830 890 768 915T615 940T463 915T400 840V50L210 -40H200Z" />
<glyph unicode="i" glyph-name="i" horiz-adv-x="600" d="M180 1357T180 1407T215 1494T300 1530T385 1494T420 1408T385 1321T300 1285T215 1321ZM200 -40V1050L390 1140H400V50L210 -40H200Z" />
<glyph unicode="j" glyph-name="j" horiz-adv-x="600" d="M200 1050L390 1140H400V-185Q400 -319 213 -391Q112 -430 -15 -430V-420L68 -244Q106 -238 138 -225Q200 -199 200 -150V1050ZM180 1357T180 1407T215 1494T300 1530T385 1494T420 1408T385 1321T300
1285T215 1321Z" />
<glyph unicode="k" glyph-name="k" horiz-adv-x="1180" d="M200 -40V1460L390 1550H400V717L818 1140H828L1004 1057L669 749Q764 742 843 712Q1030 641 1030 506V50L840 -40H830V471Q830 521 768 546T615 571T463 546T400 471V50L210 -40H200Z" />
<glyph unicode="l" glyph-name="l" horiz-adv-x="600" d="M200 -40V1460L390 1550H400V50L210 -40H200Z" />
<glyph unicode="m" glyph-name="m" horiz-adv-x="1760" d="M150 -40V875Q150 1009 337 1081Q438 1120 565 1120Q690 1120 793 1081Q843 1062 880 1038Q917 1062 967 1081Q1070 1120 1195 1120Q1322 1120 1423 1081Q1610 1009 1610 875V50L1420 -40H1410V840Q1410
890 1348 915T1195 940T1043 915T980 840V50L790 -40H780V840Q780 890 718 915T565 940T413 915T350 840V50L160 -40H150Z" />
<glyph unicode="n" glyph-name="n" horiz-adv-x="1130" d="M150 -40V875Q150 1009 337 1081Q438 1120 565 1120T793 1081Q980 1009 980 875V50L790 -40H780V840Q780 890 718 915T565 940T413 915T350 840V50L160 -40H150Z" />
<glyph unicode="o" glyph-name="o" horiz-adv-x="1130" d="M350 260Q350 210 412 185T565 160T717 185T780 260V840Q780 890 718 915T565 940T413 915T350 840V260ZM150 225V875Q150 1007 337 1081Q438 1120 565 1120T793 1081Q980 1007 980 875V225Q980 93 793
19Q692 -20 565 -20T337 19Q150 93 150 225Z" />
<glyph unicode="p" glyph-name="p" horiz-adv-x="1180" d="M1030 875Q1030 875 1030 225Q1030 91 843 19Q742 -20 615 -20Q496 -20 400 14V-360L210 -450H200V875Q200 1009 387 1081Q488 1120 615 1120T843 1081Q1030 1007 1030 875ZM830 840Q830 890 768 915T615
940T463 915T400 840V260Q400 210 462 185T615 160T767 185T830 260V840Z" />
<glyph unicode="q" glyph-name="q" horiz-adv-x="1180" d="M150 225V875Q150 1009 337 1081Q438 1120 565 1120T793 1081Q980 1007 980 875V-360L790 -450H780V14Q684 -20 565 -20Q438 -20 337 19Q150 93 150 225ZM350 260Q350 210 412 185T565 160T717 185T780
260V840Q780 890 718 915T565 940T413 915T350 840V260Z" />
<glyph unicode="r" glyph-name="r" horiz-adv-x="720" d="M150 -40V875Q150 1009 337 1081Q438 1120 565 1120H700V1110L620 940H565Q475 940 413 915T350 840V50L160 -40H150Z" />
<glyph unicode="s" glyph-name="s" horiz-adv-x="1070" d="M120 353L310 443H320V260Q320 210 382 185T535 160Q628 160 688 185Q750 211 750 260V416Q750 465 686 491Q624 516 534 516Q435 516 337 555Q162 626 162 761V875Q162 1003 328 1075Q431 1120 535 1120Q634
1120 706 1090Q879 1016 879 875L689 785H679V840Q679 898 638 919T535 940Q449 940 405 915Q362 890 362 840V796Q362 746 403 721T534 696Q661 696 762 657Q950 585 950 451V225Q950 92 763 19Q662 -20 535 -20T307 19Q120 93 120 225V353Z" />
<glyph unicode="t" glyph-name="t" horiz-adv-x="764" d="M282 -40V918H25V928L106 1100H282V1460L472 1550H482V1100H739V1090L658 918H482V50L292 -40H282Z" />
<glyph unicode="u" glyph-name="u" horiz-adv-x="1130" d="M150 1050L340 1140H350V260Q350 210 412 185T565 160T717 185T780 260V1050L970 1140H980V225Q980 91 793 19Q692 -20 565 -20T337 19Q150 91 150 225V1050Z" />
<glyph unicode="v" glyph-name="v" horiz-adv-x="1026" d="M436 -40L50 1058L223 1140H233L516 306L793 1140H803L976 1058L619 42L446 -40H436Z" />
<glyph unicode="w" glyph-name="w" horiz-adv-x="1760" d="M150 1050L340 1140H350V260Q350 210 412 185T565 160T717 185T780 260V1050L970 1140H980V260Q980 210 1042 185T1195 160T1347 185T1410 260V1050L1600 1140H1610V225Q1610 91 1423 19Q1322 -20 1195
-20Q1070 -20 967 19Q917 38 880 62Q843 38 793 19Q690 -20 565 -20Q438 -20 337 19Q150 91 150 225V1050Z" />
<glyph unicode="x" glyph-name="x" horiz-adv-x="1015" d="M264 -40H254L80 42L390 550L80 1057L255 1140H265L508 713L750 1140H760L935 1057L625 550L935 42L761 -40H751L508 388L264 -40Z" />
<glyph unicode="y" glyph-name="y" horiz-adv-x="1180" d="M150 1050L340 1140H350V260Q350 210 412 185T565 160T717 185T780 260V1050L970 1140H980V-185Q980 -319 793 -391Q692 -430 565 -430H254V-420L334 -250H565Q655 -250 717 -225T780 -150V14Q684 -20
565 -20Q438 -20 337 19Q150 91 150 225V1050Z" />
<glyph unicode="z" glyph-name="z" horiz-adv-x="1053" d="M100 0V10L623 918H110V928L191 1100H943V1090L421 182H953V172L872 0H100Z" />
<glyph unicode="{" glyph-name="braceleft" horiz-adv-x="825" d="M775 1750V1570Q675 1570 591 1537Q470 1489 470 1420V90Q470 21 591 -27Q675 -60 775 -60V-240Q624 -240 497 -187Q270 -93 270 90V664H50V674L131 846H270V1420Q270 1603 497 1697Q624 1750 775 1750Z" />
<glyph unicode="|" glyph-name="bar" horiz-adv-x="666" d="M250 -240V1676L406 1750H416V-166L260 -240H250Z" />
<glyph unicode="}" glyph-name="braceright" horiz-adv-x="825" d="M50 1750Q201 1750 328 1697Q555 1603 555 1420V846H775V836L694 664H555V90Q555 -93 328 -187Q201 -240 50 -240V-60Q150 -60 234 -27Q355 21 355 90V1420Q355 1489 234 1537Q150 1570 50 1570V1750Z" />
<glyph unicode="~" glyph-name="asciitilde" horiz-adv-x="1138" d="M150 583Q150 944 387 944Q521 944 610 843Q683 760 738 760Q810 760 810 863L978 944H988Q988 583 751 583Q617 583 528 684Q455 767 400 767Q328 767 328 664L160 583H150Z" />
<glyph unicode="&#xa0;" glyph-name="uni00A0" horiz-adv-x="800" />
<glyph unicode="&#xa1;" glyph-name="exclamdown" horiz-adv-x="600" d="M420 1458T420 1408T385 1321T300 1285T215 1321T180 1407T215 1494T300 1530T385 1494ZM210 -40H200V1000L390 1090H400V50L210 -40Z" />
<glyph unicode="&#xa2;" glyph-name="cent" horiz-adv-x="1130" d="M980 443V225Q980 92 793 19Q716 -11 623 -18V-190L517 -240H507V-18Q414 -11 337 19Q150 92 150 225V875Q150 1008 337 1081Q414 1111 507 1118V1290L613 1340H623V1118Q716 1111 793 1081Q980
1008 980 875V747L790 657H780V840Q780 890 718 915Q676 932 623 937V163Q676 168 718 185Q780 211 780 260V353L970 443H980ZM507 163V937Q454 932 412 915Q350 889 350 840V260Q350 211 412 185Q454 168 507 163Z" />
<glyph unicode="&#xa3;" glyph-name="sterling" horiz-adv-x="1335" d="M150 0V10L231 182H300V598H150V608L231 780H300V1285Q300 1419 487 1491Q588 1530 715 1530Q845 1530 943 1491Q1130 1417 1130 1285V1137L940 1047H930V1250Q930 1300 868 1325T715 1350T563
1325T500 1250V780H915V770L834 598H500V182H1185V172L1104 0H150Z" />
<glyph unicode="&#xa4;" glyph-name="currency" horiz-adv-x="1440" d="M150 329L261 440Q223 501 223 576V918Q223 1007 277 1075L167 1185L174 1192L352 1256L425 1184Q437 1190 450 1195Q588 1248 728 1248Q879 1248 1006 1195Q1018 1190 1030 1185L1103 1257L1282
1193L1289 1186L1179 1076Q1233 1007 1233 918V576Q1233 487 1179 419L1290 308L1283 301L1104 237L1030 310Q1019 304 1006 299Q868 246 728 246Q562 246 450 299Q432 308 400 323L336 258L157 322L150 329ZM423 576Q423 507 544 459Q628 426 728 426T912 459Q1033
507 1033 576V918Q1033 987 912 1035Q828 1068 728 1068T544 1035Q423 987 423 918V576Z" />
<glyph unicode="&#xa5;" glyph-name="yen" horiz-adv-x="1278" d="M516 -40V430H181V440L262 612H484L417 760H181V770L262 942H336L100 1467L275 1550H285L553 942H781L1063 1550H1073L1178 1500L911 942H1095V932L1014 760H824L753 612H1095V602L1014 430H716V50L526
-40H516ZM696 760H633L664 690L696 760Z" />
<glyph unicode="&#xa6;" glyph-name="brokenbar" horiz-adv-x="666" d="M250 -240V587L406 661H416V-166L260 -240H250ZM406 1750H416V923L260 849H250V1676L406 1750Z" />
<glyph unicode="&#xa7;" glyph-name="section" horiz-adv-x="1130" d="M221 225L411 315H421V260Q421 202 462 181T565 160Q651 160 695 185Q738 210 738 260V304Q738 354 697 379T566 404Q439 404 338 443Q150 515 150 649V926L350 861V684Q350 635 414 609Q476
584 566 584Q665 584 763 545Q938 474 938 339V225Q938 97 772 25Q669 -20 565 -20Q466 -20 394 10Q221 84 221 225ZM909 1285L719 1195H709V1250Q709 1308 668 1329T565 1350Q479 1350 435 1325Q392 1300 392 1250V1206Q392 1156 433 1131T564 1106Q691 1106 792
1067Q980 995 980 861V584L780 649V826Q780 875 716 901Q654 926 564 926Q465 926 367 965Q192 1036 192 1171V1285Q192 1413 358 1485Q461 1530 565 1530Q664 1530 736 1500Q909 1426 909 1285Z" />
<glyph unicode="&#xa8;" glyph-name="dieresis" horiz-adv-x="840" d="M450 1357T450 1407T485 1494T570 1530T655 1494T690 1408T655 1321T570 1285T485 1321ZM150 1357T150 1407T185 1494T270 1530T355 1494T390 1408T355 1321T270 1285T185 1321Z" />
<glyph unicode="&#xa9;" glyph-name="copyright" horiz-adv-x="1401" d="M984 683V538Q984 428 855 376Q786 348 706 348Q628 348 557 376Q428 427 428 532V963Q428 1070 557 1120Q629 1148 706 1148Q788 1148 855 1120Q984 1066 984 958V867L869 813H834V958Q833
965 828 970Q818 981 789 993Q752 1008 706 1008Q659 1008 623 994Q595 983 584 972Q578 966 578 960V536Q579 529 584 524Q596 512 623 502Q660 488 706 488Q751 488 789 503Q815 513 828 526Q834 532 834 538V629L948 683H984ZM701 1331Q811 1331 911 1288Q1007
1247 1090 1161Q1170 1078 1211 975Q1251 874 1251 754Q1251 638 1211 535Q1173 437 1090 350Q1011 267 911 223Q813 180 701 180Q590 180 490 223Q394 264 311 350Q230 434 190 535T150 754Q150 873 190 975T311 1161Q392 1246 490 1288T701 1331ZM701 1251Q603
1251 520 1215T366 1105Q296 1032 260 944T224 759V754Q224 655 260 566Q294 483 366 406Q436 332 519 296Q604 259 701 259T883 296Q966 332 1037 406Q1106 478 1141 565T1176 754Q1176 857 1141 945Q1107 1031 1037 1105Q968 1178 883 1215Q798 1251 701 1251Z"
/>
<glyph unicode="&#xaa;" glyph-name="ordfeminine" horiz-adv-x="955" d="M698 962L588 910H558V930Q519 920 476 920Q414 920 360 941Q254 982 254 1062V1198Q254 1278 360 1319Q413 1340 476 1340Q519 1340 558 1330V1370Q558 1377 550 1383Q546 1386 529 1393Q513
1400 471 1400H330V1429L377 1530H471Q538 1530 592 1509Q698 1468 698 1388V962ZM394 1080Q394 1075 402 1067Q405 1064 422 1057T476 1050Q512 1050 529 1057Q535 1059 550 1067Q558 1071 558 1080V1180Q558 1185 550 1193Q547 1196 530 1203T476 1210Q445 1210
412 1199Q406 1197 402 1194Q394 1188 394 1180V1080ZM150 664V674L231 846H805V836L724 664H150Z" />
<glyph unicode="&#xab;" glyph-name="guillemotleft" horiz-adv-x="1208" d="M824 304L535 792L824 1284H834L1008 1202L766 795L1008 386L834 304H824ZM439 304L150 792L439 1284H449L623 1202L381 795L623 386L449 304H439Z" />
<glyph unicode="&#xac;" glyph-name="logicalnot" horiz-adv-x="1214" d="M642 402L784 664H150V674L231 846H1064V836L857 402H642Z" />
<glyph unicode="&#xad;" glyph-name="uni00AD" horiz-adv-x="1214" d="M150 664V674L231 846H1064V836L983 664H150Z" />
<glyph unicode="&#xae;" glyph-name="registered" horiz-adv-x="1401" d="M592 1015V770H710Q758 770 793 783Q822 794 832 804Q837 809 838 815V970Q838 976 832 981Q820 992 793 1002Q755 1015 710 1015H592ZM442 355V1121L515 1155H710Q792 1155 859 1127Q988
1073 988 973V811Q988 713 858 657Q851 654 844 652L1012 412L892 355H868L676 630H592V409L478 355H442ZM701 1251Q603 1251 520 1215T366 1105Q296 1032 260 944T224 759V754Q224 655 260 566Q294 483 366 406Q436 332 519 296Q604 259 701 259T883 296Q966 332
1037 406Q1106 478 1141 565T1176 754Q1176 857 1141 945Q1107 1031 1037 1105Q968 1178 883 1215Q798 1251 701 1251ZM701 1331Q811 1331 911 1288Q1007 1247 1090 1161Q1170 1078 1211 975Q1251 874 1251 754Q1251 638 1211 535Q1173 437 1090 350Q1011 267 911
223Q813 180 701 180Q590 180 490 223Q394 264 311 350Q230 434 190 535T150 754Q150 874 190 975T311 1161Q393 1246 490 1288T701 1331Z" />
<glyph unicode="&#xaf;" glyph-name="overscore" horiz-adv-x="1214" d="M150 1328V1338L231 1510H1064V1500L983 1328H150Z" />
<glyph unicode="&#xb0;" glyph-name="degree" horiz-adv-x="1130" d="M350 1010Q350 960 412 935T565 910T717 935T780 1010V1250Q780 1300 718 1325T565 1350T413 1325T350 1250V1010ZM150 975V1285Q150 1419 337 1491Q438 1530 565 1530Q695 1530 793 1491Q980
1416 980 1285V975Q980 841 793 769Q692 730 565 730Q435 730 337 769Q150 843 150 975Z" />
<glyph unicode="&#xb1;" glyph-name="plusminus" horiz-adv-x="1214" d="M150 243V253L231 425H1064V415L983 243H150ZM698 1383V1017H1064V1007L983 835H698V550L526 469H516V835H150V845L231 1017H516V1302L688 1383H698Z" />
<glyph unicode="&#xb2;" glyph-name="uni00B2" horiz-adv-x="862" d="M150 730V766L195 861L438 1085Q560 1199 560 1233Q560 1234 560 1235V1342Q559 1349 554 1354Q544 1365 515 1376Q477 1390 432 1390T349 1375Q323 1365 310 1352Q304 1346 304 1340L305 1239L191
1185H155L154 1340Q154 1448 283 1502Q352 1530 432 1530T581 1502Q709 1450 710 1346V1234Q710 1136 566 1013L401 871H712V835L662 730H150Z" />
<glyph unicode="&#xb3;" glyph-name="uni00B3" horiz-adv-x="855" d="M150 971L265 1026H300V901Q300 895 306 889Q318 877 345 866Q382 851 431 851Q472 851 510 865Q541 877 550 887Q555 893 555 899V1046Q555 1051 549 1058Q538 1070 510 1080Q471 1094 428
1094Q325 1094 288 1076L440 1369H194V1405L244 1510H680L509 1222Q545 1214 576 1202Q705 1152 705 1045V895Q705 792 577 739Q510 711 425 711Q345 711 279 739Q150 794 150 901V971Z" />
<glyph unicode="&#xb4;" glyph-name="acute" horiz-adv-x="648" d="M312 1550H322L498 1466L277 1150H267L150 1205L312 1550Z" />
<glyph unicode="&#xb5;" glyph-name="uni00B5" horiz-adv-x="1180" d="M200 -450V1050L390 1140H400V260Q400 210 462 185T615 160T767 185T830 260V1050L1020 1140H1030V225Q1030 91 843 19Q742 -20 615 -20Q496 -20 400 14V-360L210 -450H200Z" />
<glyph unicode="&#xb6;" glyph-name="paragraph" horiz-adv-x="1180" d="M780 -40V588Q685 554 565 554Q435 554 337 593Q150 667 150 799V1285Q150 1419 337 1491Q438 1530 565 1530Q695 1530 793 1491Q980 1416 980 1285V50L914 19V1137H850V-12L790 -40H780Z" />
<glyph unicode="&#xb7;" glyph-name="middot" horiz-adv-x="600" d="M180 703T180 753T215 840T300 876T385 840T420 754T385 667T300 631T215 667Z" />
<glyph unicode="&#xb8;" glyph-name="cedilla" horiz-adv-x="609" d="M214 278Q459 149 459 -42Q459 -179 350 -286H340L150 -196Q284 -109 284 12Q284 113 171 228L214 278Z" />
<glyph unicode="&#xb9;" glyph-name="uni00B9" horiz-adv-x="672" d="M386 1550H422V764L308 710H272V1382L150 1325V1437L386 1550Z" />
<glyph unicode="&#xba;" glyph-name="ordmasculine" horiz-adv-x="955" d="M391 1080Q391 1075 399 1067Q402 1064 419 1057T478 1050Q519 1050 536 1057Q542 1059 557 1067Q565 1071 566 1080V1370Q566 1376 557 1383Q552 1387 537 1393Q519 1400 478 1400T420
1393Q414 1391 399 1383Q391 1379 391 1370V1080ZM251 1062V1388Q251 1467 357 1509Q410 1530 478 1530Q544 1530 599 1509Q706 1468 706 1388V1062Q706 983 599 941Q545 920 478 920Q412 920 356 942Q251 983 251 1062ZM150 664V674L231 846H805V836L724 664H150Z"
/>
<glyph unicode="&#xbb;" glyph-name="guillemotright" horiz-adv-x="1208" d="M384 304H374L200 386L442 795L200 1202L374 1284H384L673 792L384 304ZM769 304H759L585 386L827 795L585 1202L759 1284H769L1058 792L769 304Z" />
<glyph unicode="&#xbc;" glyph-name="onequarter" horiz-adv-x="1469" d="M879 336H1044V540L879 336ZM1044 -40V195H678V231L722 324L1053 750L1158 800H1194V336H1269V300L1219 195H1194V14L1080 -40H1044ZM386 1550H422V764L308 710H272V1382L150 1325V1437L386
1550ZM352 -40L211 28L920 1550H930L1071 1482L362 -40H352Z" />
<glyph unicode="&#xbd;" glyph-name="onehalf" horiz-adv-x="1536" d="M774 0V36L819 131L1062 355Q1184 469 1184 503Q1184 504 1184 505V612Q1183 619 1178 624Q1168 635 1139 646Q1101 660 1056 660T973 645Q947 635 934 622Q928 616 928 610L929 509L815 455H779L778
610Q778 718 907 772Q976 800 1056 800T1205 772Q1333 720 1334 616V504Q1334 406 1190 283L1025 141H1336V105L1286 0H774ZM386 1550H422V764L308 710H272V1382L150 1325V1437L386 1550ZM352 -40L211 28L920 1550H930L1071 1482L362 -40H352Z" />
<glyph unicode="&#xbe;" glyph-name="threequarters" horiz-adv-x="1665" d="M150 971L265 1026H300V901Q300 895 306 889Q318 877 345 866Q382 851 431 851Q472 851 510 865Q541 877 550 887Q555 893 555 899V1046Q555 1051 549 1058Q538 1070 510 1080Q471 1094
428 1094Q325 1094 288 1076L440 1369H194V1405L244 1510H680L509 1222Q545 1214 576 1202Q705 1152 705 1045V895Q705 792 577 739Q510 711 425 711Q345 711 279 739Q150 794 150 901V971ZM1075 336H1240V540L1075 336ZM1240 -40V195H874V231L918 324L1249 750L1354
800H1390V336H1465V300L1415 195H1390V14L1276 -40H1240ZM548 -40L407 28L1116 1550H1126L1267 1482L558 -40H548Z" />
<glyph unicode="&#xbf;" glyph-name="questiondown" horiz-adv-x="1310" d="M1160 550V310Q1160 127 933 33Q806 -20 655 -20T377 33Q150 127 150 310V460Q150 707 489 919Q576 973 579 1056L772 1149H782Q781 895 607 788Q350 630 350 459V310Q350 241 471 193Q555
160 655 160T839 193Q960 241 960 310V460L1150 550H1160ZM785 1458T785 1408T750 1321T665 1285T580 1321T545 1407T580 1494T665 1530T750 1494Z" />
<glyph unicode="&#xc0;" glyph-name="Agrave" horiz-adv-x="1410" d="M200 -40V1200Q200 1383 427 1477Q554 1530 705 1530T983 1477Q1210 1383 1210 1200Q1210 1200 1210 50L1020 -40H1010V664H400V50L210 -40H200ZM400 846H1010V1200Q1010 1269 889 1317Q805
1350 705 1350T521 1317Q400 1269 400 1200V846ZM596 1966H606L768 1621L651 1566H641L420 1882L596 1966Z" />
<glyph unicode="&#xc1;" glyph-name="Aacute" horiz-adv-x="1410" d="M200 -40V1200Q200 1383 427 1477Q554 1530 705 1530T983 1477Q1210 1383 1210 1200Q1210 1200 1210 50L1020 -40H1010V664H400V50L210 -40H200ZM400 846H1010V1200Q1010 1269 889 1317Q805
1350 705 1350T521 1317Q400 1269 400 1200V846ZM817 1966H827L1003 1882L782 1566H772L655 1621L817 1966Z" />
<glyph unicode="&#xc2;" glyph-name="Acircumflex" horiz-adv-x="1410" d="M200 -40V1200Q200 1383 427 1477Q554 1530 705 1530T983 1477Q1210 1383 1210 1200Q1210 1200 1210 50L1020 -40H1010V664H400V50L210 -40H200ZM400 846H1010V1200Q1010 1269 889 1317Q805
1350 705 1350T521 1317Q400 1269 400 1200V846ZM434 1621L587 1882L763 1966H773L986 1621L870 1566H860L710 1774L562 1566H552L434 1621Z" />
<glyph unicode="&#xc3;" glyph-name="Atilde" horiz-adv-x="1410" d="M200 -40V1200Q200 1383 427 1477Q554 1530 705 1530T983 1477Q1210 1383 1210 1200Q1210 1200 1210 50L1020 -40H1010V664H400V50L210 -40H200ZM400 846H1010V1200Q1010 1269 889 1317Q805
1350 705 1350T521 1317Q400 1269 400 1200V846ZM471 1638Q471 1924 612 1924Q676 1924 749 1854Q800 1805 824 1805Q858 1805 858 1877L968 1924H974Q974 1638 833 1638Q769 1638 696 1708Q645 1757 621 1757Q587 1757 587 1685L477 1638H471Z" />
<glyph unicode="&#xc4;" glyph-name="Adieresis" horiz-adv-x="1410" d="M200 -40V1200Q200 1383 427 1477Q554 1530 705 1530T983 1477Q1210 1383 1210 1200Q1210 1200 1210 50L1020 -40H1010V664H400V50L210 -40H200ZM400 846H1010V1200Q1010 1269 889 1317Q805
1350 705 1350T521 1317Q400 1269 400 1200V846ZM742 1752T742 1802T777 1889T862 1925T947 1889T982 1803T947 1716T862 1680T777 1716ZM442 1752T442 1802T477 1889T562 1925T647 1889T682 1803T647 1716T562 1680T477 1716Z" />
<glyph unicode="&#xc5;" glyph-name="Aring" horiz-adv-x="1410" d="M200 -40V1200Q200 1383 427 1477Q554 1530 705 1530T983 1477Q1210 1383 1210 1200Q1210 1200 1210 50L1020 -40H1010V664H400V50L210 -40H200ZM400 846H1010V1200Q1010 1269 889 1317Q805
1350 705 1350T521 1317Q400 1269 400 1200V846ZM785 1588T705 1588T570 1637Q508 1692 508 1777Q508 1860 570 1917Q623 1966 705 1966Q785 1966 840 1917Q902 1862 902 1777T840 1637Q785 1588 705 1588ZM705 1862Q671 1862 651 1841T631 1777Q631 1731 652 1712Q674
1692 704 1692Q735 1692 757 1714Q777 1733 777 1777Q777 1822 755 1843Q735 1862 705 1862Z" />
<glyph unicode="&#xc6;" glyph-name="AE" horiz-adv-x="1967" d="M200 -40V1200Q200 1383 427 1477Q554 1530 705 1530Q868 1530 982 1473Q996 1466 1010 1460L1116 1510H1750V1500L1669 1328H1210V846H1750V836L1669 664H1210V182H1917V172L1836 0H1010V664H400V50L210
-40H200ZM400 846H1010V1200Q1010 1269 889 1317Q805 1350 705 1350T521 1317Q400 1269 400 1200V846Z" />
<glyph unicode="&#xc7;" glyph-name="Ccedilla" horiz-adv-x="1410" d="M1210 550V310Q1210 127 983 33Q886 -7 777 -17Q849 -103 849 -206Q849 -343 740 -450H730L540 -360Q674 -273 674 -152Q674 -88 628 -16Q521 -6 427 33Q200 127 200 310V1200Q200 1383 427
1477Q554 1530 705 1530T983 1477Q1210 1383 1210 1200V1050L1020 960H1010V1200Q1010 1268 889 1317Q805 1350 705 1350T521 1317Q400 1269 400 1200V310Q400 242 521 193Q602 160 705 160Q805 160 889 193Q1010 241 1010 310V460L1200 550H1210Z" />
<glyph unicode="&#xc8;" glyph-name="Egrave" horiz-adv-x="1157" d="M506 1966H516L678 1621L561 1566H551L330 1882L506 1966ZM200 0V1460L306 1510H940V1500L859 1328H400V846H940V836L859 664H400V182H1107V172L1026 0H200Z" />
<glyph unicode="&#xc9;" glyph-name="Eacute" horiz-adv-x="1157" d="M684 1966H694L870 1882L649 1566H639L522 1621L684 1966ZM200 0V1460L306 1510H940V1500L859 1328H400V846H940V836L859 664H400V182H1107V172L1026 0H200Z" />
<glyph unicode="&#xca;" glyph-name="Ecircumflex" horiz-adv-x="1157" d="M313 1621L466 1882L642 1966H652L865 1621L749 1566H739L589 1774L441 1566H431L313 1621ZM200 0V1460L306 1510H940V1500L859 1328H400V846H940V836L859 664H400V182H1107V172L1026 0H200Z" />
<glyph unicode="&#xcb;" glyph-name="Edieresis" horiz-adv-x="1157" d="M617 1752T617 1802T652 1889T737 1925T822 1889T857 1803T822 1716T737 1680T652 1716ZM317 1752T317 1802T352 1889T437 1925T522 1889T557 1803T522 1716T437 1680T352 1716ZM200 0V1460L306
1510H940V1500L859 1328H400V846H940V836L859 664H400V182H1107V172L1026 0H200Z" />
<glyph unicode="&#xcc;" glyph-name="Igrave" horiz-adv-x="600" d="M242 1966H252L414 1621L297 1566H287L66 1882L242 1966ZM200 -40V1460L390 1550H400V50L210 -40H200Z" />
<glyph unicode="&#xcd;" glyph-name="Iacute" horiz-adv-x="600" d="M348 1966H358L534 1882L313 1566H303L186 1621L348 1966ZM200 -40V1460L390 1550H400V50L210 -40H200Z" />
<glyph unicode="&#xce;" glyph-name="Icircumflex" horiz-adv-x="600" d="M200 -40V1460L390 1550H400V50L210 -40H200ZM24 1621L176 1882L352 1966H362L576 1621L459 1566H449L299 1774L151 1566H141L24 1621Z" />
<glyph unicode="&#xcf;" glyph-name="Idieresis" horiz-adv-x="600" d="M200 -40V1460L390 1550H400V50L210 -40H200ZM330 1752T330 1802T365 1889T450 1925T535 1889T570 1803T535 1716T450 1680T365 1716ZM30 1752T30 1802T65 1889T150 1925T235 1889T270 1803T235
1716T150 1680T65 1716Z" />
<glyph unicode="&#xd0;" glyph-name="Eth" horiz-adv-x="1390" d="M200 0V664H50V674L131 846H200V1460L306 1510H685Q836 1510 963 1457Q1190 1363 1190 1180V330Q1190 147 963 53Q836 0 685 0H200ZM400 180H685Q785 180 869 213Q990 261 990 330V1180Q990 1249
869 1297Q786 1330 685 1330H400V846H815V836L734 664H400V180Z" />
<glyph unicode="&#xd1;" glyph-name="Ntilde" horiz-adv-x="1410" d="M200 -40V1200Q200 1383 427 1477Q554 1530 705 1530T983 1477Q1210 1383 1210 1200V50L1020 -40H1010V1200Q1010 1269 889 1317Q805 1350 705 1350T521 1317Q400 1269 400 1200V50L210 -40H200ZM471
1638Q471 1924 612 1924Q676 1924 749 1854Q800 1805 824 1805Q858 1805 858 1877L968 1924H974Q974 1638 833 1638Q769 1638 696 1708Q645 1757 621 1757Q587 1757 587 1685L477 1638H471Z" />
<glyph unicode="&#xd2;" glyph-name="Ograve" horiz-adv-x="1410" d="M400 310Q400 242 521 193Q605 160 705 160T889 193Q1010 241 1010 310V1200Q1010 1268 889 1317Q805 1350 705 1350T521 1317Q400 1269 400 1200V310ZM200 310Q200 310 200 1200Q200 1383
427 1477Q554 1530 705 1530T983 1477Q1210 1383 1210 1200V310Q1210 127 983 33Q856 -20 705 -20T427 33Q200 127 200 310ZM596 1966H606L768 1621L651 1566H641L420 1882L596 1966Z" />
<glyph unicode="&#xd3;" glyph-name="Oacute" horiz-adv-x="1410" d="M400 310Q400 242 521 193Q605 160 705 160T889 193Q1010 241 1010 310V1200Q1010 1268 889 1317Q805 1350 705 1350T521 1317Q400 1269 400 1200V310ZM200 310Q200 310 200 1200Q200 1383
427 1477Q554 1530 705 1530T983 1477Q1210 1383 1210 1200V310Q1210 127 983 33Q856 -20 705 -20T427 33Q200 127 200 310ZM817 1966H827L1003 1882L782 1566H772L655 1621L817 1966Z" />
<glyph unicode="&#xd4;" glyph-name="Ocircumflex" horiz-adv-x="1410" d="M400 310Q400 242 521 193Q605 160 705 160T889 193Q1010 241 1010 310V1200Q1010 1268 889 1317Q805 1350 705 1350T521 1317Q400 1269 400 1200V310ZM200 310Q200 310 200 1200Q200
1383 427 1477Q554 1530 705 1530T983 1477Q1210 1383 1210 1200V310Q1210 127 983 33Q856 -20 705 -20T427 33Q200 127 200 310ZM434 1621L587 1882L763 1966H773L986 1621L870 1566H860L710 1774L562 1566H552L434 1621Z" />
<glyph unicode="&#xd5;" glyph-name="Otilde" horiz-adv-x="1410" d="M400 310Q400 242 521 193Q605 160 705 160T889 193Q1010 241 1010 310V1200Q1010 1268 889 1317Q805 1350 705 1350T521 1317Q400 1269 400 1200V310ZM200 310Q200 310 200 1200Q200 1383
427 1477Q554 1530 705 1530T983 1477Q1210 1383 1210 1200V310Q1210 127 983 33Q856 -20 705 -20T427 33Q200 127 200 310ZM471 1638Q471 1924 612 1924Q676 1924 749 1854Q800 1805 824 1805Q858 1805 858 1877L968 1924H974Q974 1638 833 1638Q769 1638 696
1708Q645 1757 621 1757Q587 1757 587 1685L477 1638H471Z" />
<glyph unicode="&#xd6;" glyph-name="Odieresis" horiz-adv-x="1410" d="M400 310Q400 242 521 193Q605 160 705 160T889 193Q1010 241 1010 310V1200Q1010 1268 889 1317Q805 1350 705 1350T521 1317Q400 1269 400 1200V310ZM200 310Q200 310 200 1200Q200 1383
427 1477Q554 1530 705 1530T983 1477Q1210 1383 1210 1200V310Q1210 127 983 33Q856 -20 705 -20T427 33Q200 127 200 310ZM742 1752T742 1802T777 1889T862 1925T947 1889T982 1803T947 1716T862 1680T777 1716ZM442 1752T442 1802T477 1889T562 1925T647 1889T682
1803T647 1716T562 1680T477 1716Z" />
<glyph unicode="&#xd7;" glyph-name="multiply" horiz-adv-x="1075" d="M150 1014L157 1021L336 1085L537 884L739 1085L918 1021L925 1014L666 755L925 496L918 489L739 425L537 626L336 425L157 489L150 496L409 755L150 1014Z" />
<glyph unicode="&#xd8;" glyph-name="Oslash" horiz-adv-x="1410" d="M404 -40H394L290 10L326 87Q200 174 200 310V1200Q200 1382 427 1477Q554 1530 705 1530Q850 1530 974 1481L1006 1550H1016L1120 1499L1085 1423Q1210 1336 1210 1200V310Q1210 128 983 33Q856
-20 705 -20Q560 -20 436 29L404 -40ZM514 196Q603 161 701 161Q805 161 889 193Q1010 241 1010 310V1200Q1010 1220 999 1239L514 196ZM896 1314Q812 1348 709 1348Q604 1348 521 1317Q400 1269 400 1200V310Q400 289 411 271L896 1314Z" />
<glyph unicode="&#xd9;" glyph-name="Ugrave" horiz-adv-x="1410" d="M200 1460L390 1550H400V310Q400 241 521 193Q605 160 705 160T889 193Q1010 241 1010 310V1460L1200 1550H1210V310Q1210 127 983 33Q856 -20 705 -20T427 33Q200 127 200 310V1460ZM596 1966H606L768
1621L651 1566H641L420 1882L596 1966Z" />
<glyph unicode="&#xda;" glyph-name="Uacute" horiz-adv-x="1410" d="M200 1460L390 1550H400V310Q400 241 521 193Q605 160 705 160T889 193Q1010 241 1010 310V1460L1200 1550H1210V310Q1210 127 983 33Q856 -20 705 -20T427 33Q200 127 200 310V1460ZM817 1966H827L1003
1882L782 1566H772L655 1621L817 1966Z" />
<glyph unicode="&#xdb;" glyph-name="Ucircumflex" horiz-adv-x="1410" d="M200 1460L390 1550H400V310Q400 241 521 193Q605 160 705 160T889 193Q1010 241 1010 310V1460L1200 1550H1210V310Q1210 127 983 33Q856 -20 705 -20T427 33Q200 127 200 310V1460ZM434
1621L587 1882L763 1966H773L986 1621L870 1566H860L710 1774L562 1566H552L434 1621Z" />
<glyph unicode="&#xdc;" glyph-name="Udieresis" horiz-adv-x="1410" d="M200 1460L390 1550H400V310Q400 241 521 193Q605 160 705 160T889 193Q1010 241 1010 310V1460L1200 1550H1210V310Q1210 127 983 33Q856 -20 705 -20T427 33Q200 127 200 310V1460ZM742
1752T742 1802T777 1889T862 1925T947 1889T982 1803T947 1716T862 1680T777 1716ZM442 1752T442 1802T477 1889T562 1925T647 1889T682 1803T647 1716T562 1680T477 1716Z" />
<glyph unicode="&#xdd;" glyph-name="Yacute" horiz-adv-x="1310" d="M555 -40V482Q462 494 377 529Q150 622 150 806V1460L340 1550H350V806Q350 737 471 689Q555 656 655 656T839 689Q960 737 960 806V1460L1150 1550H1160V806Q1160 624 933 529Q849 494 755
482V50L565 -40H555ZM817 1966H827L1003 1882L782 1566H772L655 1621L817 1966Z" />
<glyph unicode="&#xde;" glyph-name="Thorn" horiz-adv-x="1340" d="M200 -40V1460L390 1550H400V1270H685Q836 1270 963 1217Q1190 1123 1190 940V600Q1190 417 963 323Q836 270 685 270H400V50L210 -40H200ZM400 1090V450H685Q785 450 869 483Q990 531 990 600V940Q990
1010 869 1057Q785 1090 685 1090H400Z" />
<glyph unicode="&#xdf;" glyph-name="germandbls" horiz-adv-x="1270" d="M200 -40V1200Q200 1386 382 1477Q488 1530 615 1530T848 1477Q1030 1386 1030 1200V1081Q1030 967 907 857Q1120 764 1120 601V310Q1120 128 893 33Q766 -20 615 -20H535V-10L615 160Q715
160 799 193Q920 240 920 310V601Q920 670 799 718Q715 751 615 751H534V761L615 931Q700 931 754 964Q830 1010 830 1081V1200Q830 1271 754 1317Q700 1350 615 1350T476 1317Q400 1271 400 1200V50L210 -40H200Z" />
<glyph unicode="&#xe0;" glyph-name="agrave" horiz-adv-x="1060" d="M910 50L720 -40H710V14Q614 -20 505 -20Q388 -20 287 19Q100 93 100 225V495Q100 629 287 701Q388 740 505 740Q615 740 710 706V840Q710 890 648 915T495 940H252V950L332 1120H495Q622 1120
723 1081Q910 1009 910 875V50ZM300 260Q300 210 362 185T505 160T647 185T710 260V460Q710 510 648 535T505 560T362 535Q300 510 300 460V260ZM431 1566H441L603 1221L486 1166H476L255 1482L431 1566Z" />
<glyph unicode="&#xe1;" glyph-name="aacute" horiz-adv-x="1060" d="M910 50L720 -40H710V14Q614 -20 505 -20Q388 -20 287 19Q100 93 100 225V495Q100 629 287 701Q388 740 505 740Q615 740 710 706V840Q710 890 648 915T495 940H252V950L332 1120H495Q622 1120
723 1081Q910 1009 910 875V50ZM300 260Q300 210 362 185T505 160T647 185T710 260V460Q710 510 648 535T505 560T362 535Q300 510 300 460V260ZM663 1566H673L849 1482L628 1166H618L501 1221L663 1566Z" />
<glyph unicode="&#xe2;" glyph-name="acircumflex" horiz-adv-x="1060" d="M910 50L720 -40H710V14Q614 -20 505 -20Q388 -20 287 19Q100 93 100 225V495Q100 629 287 701Q388 740 505 740Q615 740 710 706V840Q710 890 648 915T495 940H252V950L332 1120H495Q622
1120 723 1081Q910 1009 910 875V50ZM300 260Q300 210 362 185T505 160T647 185T710 260V460Q710 510 648 535T505 560T362 535Q300 510 300 460V260ZM274 1221L427 1482L603 1566H613L826 1221L710 1166H700L550 1374L402 1166H392L274 1221Z" />
<glyph unicode="&#xe3;" glyph-name="atilde" horiz-adv-x="1060" d="M910 50L720 -40H710V14Q614 -20 505 -20Q388 -20 287 19Q100 93 100 225V495Q100 629 287 701Q388 740 505 740Q615 740 710 706V840Q710 890 648 915T495 940H252V950L332 1120H495Q622 1120
723 1081Q910 1009 910 875V50ZM300 260Q300 210 362 185T505 160T647 185T710 260V460Q710 510 648 535T505 560T362 535Q300 510 300 460V260ZM322 1232Q322 1518 463 1518Q527 1518 600 1448Q651 1399 675 1399Q709 1399 709 1471L819 1518H825Q825 1232 684
1232Q620 1232 547 1302Q496 1351 472 1351Q438 1351 438 1279L328 1232H322Z" />
<glyph unicode="&#xe4;" glyph-name="adieresis" horiz-adv-x="1060" d="M910 50L720 -40H710V14Q614 -20 505 -20Q388 -20 287 19Q100 93 100 225V495Q100 629 287 701Q388 740 505 740Q615 740 710 706V840Q710 890 648 915T495 940H252V950L332 1120H495Q622
1120 723 1081Q910 1009 910 875V50ZM300 260Q300 210 362 185T505 160T647 185T710 260V460Q710 510 648 535T505 560T362 535Q300 510 300 460V260ZM577 1357T577 1407T612 1494T697 1530T782 1494T817 1408T782 1321T697 1285T612 1321ZM277 1357T277 1407T312
1494T397 1530T482 1494T517 1408T482 1321T397 1285T312 1321Z" />
<glyph unicode="&#xe5;" glyph-name="aring" horiz-adv-x="1060" d="M910 50L720 -40H710V14Q614 -20 505 -20Q388 -20 287 19Q100 93 100 225V495Q100 629 287 701Q388 740 505 740Q615 740 710 706V840Q710 890 648 915T495 940H252V950L332 1120H495Q622 1120
723 1081Q910 1009 910 875V50ZM300 260Q300 210 362 185T505 160T647 185T710 260V460Q710 510 648 535T505 560T362 535Q300 510 300 460V260ZM630 1188T550 1188T415 1237Q353 1292 353 1377Q353 1460 415 1517Q468 1566 550 1566Q630 1566 685 1517Q747 1462
747 1377T685 1237Q630 1188 550 1188ZM550 1462Q516 1462 496 1441T476 1377Q476 1331 497 1312Q519 1292 549 1292Q580 1292 602 1314Q622 1333 622 1377Q622 1422 600 1443Q580 1462 550 1462Z" />
<glyph unicode="&#xe6;" glyph-name="ae" horiz-adv-x="1690" d="M300 260Q300 210 362 185T505 160T647 185T710 260V460Q710 510 648 535T505 560T362 535Q300 510 300 460V260ZM1540 443V225Q1540 91 1353 19Q1252 -20 1125 -20Q991 -20 897 19Q885 24 869
31L720 -40H710V14Q614 -20 505 -20Q388 -20 287 19Q100 93 100 225V495Q100 629 287 701Q388 740 505 740Q615 740 710 706V840Q710 890 648 915T495 940H252V950L332 1120H495Q624 1120 723 1081Q774 1061 811 1037Q847 1061 897 1081Q994 1120 1125 1120Q1252
1120 1353 1081Q1540 1007 1540 875V747L910 260Q910 210 972 185T1125 160T1277 185T1340 260V353L1530 443H1540ZM910 471L1340 817V840Q1340 890 1278 915T1125 940T973 915T910 840V471Z" />
<glyph unicode="&#xe7;" glyph-name="ccedilla" horiz-adv-x="1130" d="M980 443V225Q980 92 793 19Q721 -9 636 -17Q708 -102 708 -206Q708 -343 599 -450H589L399 -360Q533 -273 533 -152Q533 -87 486 -16Q406 -7 337 19Q150 89 150 225V875Q150 1007 337 1081Q438
1120 565 1120T793 1081Q980 1007 980 875V747L790 657H780V840Q780 890 718 915T565 940T413 915T350 840V260Q350 210 412 185T565 160T717 185T780 260V353L970 443H980Z" />
<glyph unicode="&#xe8;" glyph-name="egrave" horiz-adv-x="1130" d="M980 443V225Q980 93 793 19Q692 -20 565 -20T337 19Q150 93 150 225V875Q150 1007 337 1081Q438 1120 565 1120T793 1081Q980 1007 980 875V747L350 260Q350 210 412 185T565 160T717 185T780
260V353L970 443H980ZM350 471L780 817V840Q780 890 718 915T565 940T413 915T350 840V471ZM451 1566H461L623 1221L506 1166H496L275 1482L451 1566Z" />
<glyph unicode="&#xe9;" glyph-name="eacute" horiz-adv-x="1130" d="M980 443V225Q980 93 793 19Q692 -20 565 -20T337 19Q150 93 150 225V875Q150 1007 337 1081Q438 1120 565 1120T793 1081Q980 1007 980 875V747L350 260Q350 210 412 185T565 160T717 185T780
260V353L970 443H980ZM350 471L780 817V840Q780 890 718 915T565 940T413 915T350 840V471ZM683 1566H693L869 1482L648 1166H638L521 1221L683 1566Z" />
<glyph unicode="&#xea;" glyph-name="ecircumflex" horiz-adv-x="1130" d="M980 443V225Q980 93 793 19Q692 -20 565 -20T337 19Q150 93 150 225V875Q150 1007 337 1081Q438 1120 565 1120T793 1081Q980 1007 980 875V747L350 260Q350 210 412 185T565 160T717
185T780 260V353L970 443H980ZM350 471L780 817V840Q780 890 718 915T565 940T413 915T350 840V471ZM294 1221L447 1482L623 1566H633L846 1221L730 1166H720L570 1374L422 1166H412L294 1221Z" />
<glyph unicode="&#xeb;" glyph-name="edieresis" horiz-adv-x="1130" d="M980 443V225Q980 93 793 19Q692 -20 565 -20T337 19Q150 93 150 225V875Q150 1007 337 1081Q438 1120 565 1120T793 1081Q980 1007 980 875V747L350 260Q350 210 412 185T565 160T717 185T780
260V353L970 443H980ZM350 471L780 817V840Q780 890 718 915T565 940T413 915T350 840V471ZM597 1357T597 1407T632 1494T717 1530T802 1494T837 1408T802 1321T717 1285T632 1321ZM297 1357T297 1407T332 1494T417 1530T502 1494T537 1408T502 1321T417 1285T332
1321Z" />
<glyph unicode="&#xec;" glyph-name="igrave" horiz-adv-x="600" d="M200 -40V1050L390 1140H400V50L210 -40H200ZM242 1566H252L414 1221L297 1166H287L66 1482L242 1566Z" />
<glyph unicode="&#xed;" glyph-name="iacute" horiz-adv-x="600" d="M348 1566H358L534 1482L313 1166H303L186 1221L348 1566ZM200 -40V1050L390 1140H400V50L210 -40H200Z" />
<glyph unicode="&#xee;" glyph-name="icircumflex" horiz-adv-x="600" d="M24 1221L177 1482L353 1566H363L576 1221L460 1166H450L300 1374L152 1166H142L24 1221ZM200 -40V1050L390 1140H400V50L210 -40H200Z" />
<glyph unicode="&#xef;" glyph-name="idieresis" horiz-adv-x="600" d="M200 -40V1050L390 1140H400V50L210 -40H200ZM330 1357T330 1407T365 1494T450 1530T535 1494T570 1408T535 1321T450 1285T365 1321ZM30 1357T30 1407T65 1494T150 1530T235 1494T270 1408T235
1321T150 1285T65 1321Z" />
<glyph unicode="&#xf0;" glyph-name="eth" horiz-adv-x="1180" d="M350 260Q350 210 412 185T565 160Q656 160 718 185T780 260V638Q780 688 718 713T565 738T413 713T350 638V260ZM150 225V673Q150 807 337 879Q438 918 565 918Q686 918 780 884V1133L648 1034H638L481
1102L724 1284Q698 1302 659 1317Q573 1350 475 1350V1530Q624 1530 753 1477Q831 1445 882 1402L954 1456H964L1121 1388L969 1275Q980 1217 980 1200V225Q980 91 793 19Q692 -20 565 -20Q435 -20 337 19Q150 93 150 225Z" />
<glyph unicode="&#xf1;" glyph-name="ntilde" horiz-adv-x="1130" d="M150 -40V875Q150 1009 337 1081Q438 1120 565 1120T793 1081Q980 1009 980 875V50L790 -40H780V840Q780 890 718 915T565 940T413 915T350 840V50L160 -40H150ZM342 1232Q342 1518 483 1518Q547
1518 620 1448Q671 1399 695 1399Q729 1399 729 1471L839 1518H845Q845 1232 704 1232Q640 1232 567 1302Q516 1351 492 1351Q458 1351 458 1279L348 1232H342Z" />
<glyph unicode="&#xf2;" glyph-name="ograve" horiz-adv-x="1130" d="M350 260Q350 210 412 185T565 160T717 185T780 260V840Q780 890 718 915T565 940T413 915T350 840V260ZM150 225V875Q150 1007 337 1081Q438 1120 565 1120T793 1081Q980 1007 980 875V225Q980
93 793 19Q692 -20 565 -20T337 19Q150 93 150 225ZM451 1566H461L623 1221L506 1166H496L275 1482L451 1566Z" />
<glyph unicode="&#xf3;" glyph-name="oacute" horiz-adv-x="1130" d="M350 260Q350 210 412 185T565 160T717 185T780 260V840Q780 890 718 915T565 940T413 915T350 840V260ZM150 225V875Q150 1007 337 1081Q438 1120 565 1120T793 1081Q980 1007 980 875V225Q980
93 793 19Q692 -20 565 -20T337 19Q150 93 150 225ZM683 1566H693L869 1482L648 1166H638L521 1221L683 1566Z" />
<glyph unicode="&#xf4;" glyph-name="ocircumflex" horiz-adv-x="1130" d="M350 260Q350 210 412 185T565 160T717 185T780 260V840Q780 890 718 915T565 940T413 915T350 840V260ZM150 225V875Q150 1007 337 1081Q438 1120 565 1120T793 1081Q980 1007 980 875V225Q980
93 793 19Q692 -20 565 -20T337 19Q150 93 150 225ZM294 1221L447 1482L623 1566H633L846 1221L730 1166H720L570 1374L422 1166H412L294 1221Z" />
<glyph unicode="&#xf5;" glyph-name="otilde" horiz-adv-x="1130" d="M350 260Q350 210 412 185T565 160T717 185T780 260V840Q780 890 718 915T565 940T413 915T350 840V260ZM150 225V875Q150 1007 337 1081Q438 1120 565 1120T793 1081Q980 1007 980 875V225Q980
93 793 19Q692 -20 565 -20T337 19Q150 93 150 225ZM342 1232Q342 1518 483 1518Q547 1518 620 1448Q671 1399 695 1399Q729 1399 729 1471L839 1518H845Q845 1232 704 1232Q640 1232 567 1302Q516 1351 492 1351Q458 1351 458 1279L348 1232H342Z" />
<glyph unicode="&#xf6;" glyph-name="odieresis" horiz-adv-x="1130" d="M350 260Q350 210 412 185T565 160T717 185T780 260V840Q780 890 718 915T565 940T413 915T350 840V260ZM150 225V875Q150 1007 337 1081Q438 1120 565 1120T793 1081Q980 1007 980 875V225Q980
93 793 19Q692 -20 565 -20T337 19Q150 93 150 225ZM597 1357T597 1407T632 1494T717 1530T802 1494T837 1408T802 1321T717 1285T632 1321ZM297 1357T297 1407T332 1494T417 1530T502 1494T537 1408T502 1321T417 1285T332 1321Z" />
<glyph unicode="&#xf7;" glyph-name="divide" horiz-adv-x="1214" d="M488 1037T488 1087T523 1174T608 1210T693 1174T728 1088T693 1001T608 965T523 1001ZM488 377T488 427T523 514T608 550T693 514T728 428T693 341T608 305T523 341ZM150 664V674L231 846H1064V836L983
664H150Z" />
<glyph unicode="&#xf8;" glyph-name="oslash" horiz-adv-x="1130" d="M359 -40H349L245 10L265 54Q150 121 150 225V875Q150 1009 337 1081Q438 1120 565 1120Q665 1120 749 1096L770 1140H780L885 1089L865 1046Q980 978 980 875V225Q980 91 793 19Q692 -20 565
-20Q464 -20 380 5L359 -40ZM672 929Q625 940 565 940Q475 940 413 915T350 840V260Q350 250 352 241L672 929ZM778 859L457 171Q505 160 565 160Q655 160 717 185T780 260V840Q780 850 778 859Z" />
<glyph unicode="&#xf9;" glyph-name="ugrave" horiz-adv-x="1130" d="M150 1050L340 1140H350V260Q350 210 412 185T565 160T717 185T780 260V1050L970 1140H980V225Q980 91 793 19Q692 -20 565 -20T337 19Q150 91 150 225V1050ZM451 1566H461L623 1221L506 1166H496L275
1482L451 1566Z" />
<glyph unicode="&#xfa;" glyph-name="uacute" horiz-adv-x="1130" d="M150 1050L340 1140H350V260Q350 210 412 185T565 160T717 185T780 260V1050L970 1140H980V225Q980 91 793 19Q692 -20 565 -20T337 19Q150 91 150 225V1050ZM683 1566H693L869 1482L648 1166H638L521
1221L683 1566Z" />
<glyph unicode="&#xfb;" glyph-name="ucircumflex" horiz-adv-x="1130" d="M150 1050L340 1140H350V260Q350 210 412 185T565 160T717 185T780 260V1050L970 1140H980V225Q980 91 793 19Q692 -20 565 -20T337 19Q150 91 150 225V1050ZM294 1221L447 1482L623 1566H633L846
1221L730 1166H720L570 1374L422 1166H412L294 1221Z" />
<glyph unicode="&#xfc;" glyph-name="udieresis" horiz-adv-x="1130" d="M150 1050L340 1140H350V260Q350 210 412 185T565 160T717 185T780 260V1050L970 1140H980V225Q980 91 793 19Q692 -20 565 -20T337 19Q150 91 150 225V1050ZM597 1357T597 1407T632 1494T717
1530T802 1494T837 1408T802 1321T717 1285T632 1321ZM297 1357T297 1407T332 1494T417 1530T502 1494T537 1408T502 1321T417 1285T332 1321Z" />
<glyph unicode="&#xfd;" glyph-name="yacute" horiz-adv-x="1180" d="M150 1050L340 1140H350V260Q350 210 412 185T565 160T717 185T780 260V1050L970 1140H980V-185Q980 -319 793 -391Q692 -430 565 -430H254V-420L334 -250H565Q655 -250 717 -225T780 -150V14Q684
-20 565 -20Q438 -20 337 19Q150 91 150 225V1050ZM683 1566H693L869 1482L648 1166H638L521 1221L683 1566Z" />
<glyph unicode="&#xfe;" glyph-name="thorn" horiz-adv-x="1180" d="M830 840Q830 890 768 915T615 940T463 915T400 840V260Q400 210 462 185T615 160T767 185T830 260V840ZM200 -450V1460L390 1550H400V1086Q496 1120 615 1120Q742 1120 843 1081Q1030 1007
1030 875V225Q1030 91 843 19Q742 -20 615 -20Q496 -20 400 14V-360L210 -450H200Z" />
<glyph unicode="&#xff;" glyph-name="ydieresis" horiz-adv-x="1180" d="M150 1050L340 1140H350V260Q350 210 412 185T565 160T717 185T780 260V1050L970 1140H980V-185Q980 -319 793 -391Q692 -430 565 -430H254V-420L334 -250H565Q655 -250 717 -225T780 -150V14Q684
-20 565 -20Q438 -20 337 19Q150 91 150 225V1050ZM597 1357T597 1407T632 1494T717 1530T802 1494T837 1408T802 1321T717 1285T632 1321ZM297 1357T297 1407T332 1494T417 1530T502 1494T537 1408T502 1321T417 1285T332 1321Z" />
<glyph unicode="&#x2013;" glyph-name="endash" horiz-adv-x="1214" d="M150 664V674L231 846H1064V836L983 664H150Z" />
<glyph unicode="&#x2014;" glyph-name="emdash" horiz-adv-x="1214" d="M25 664V674L106 846H1189V836L1108 664H25Z" />
<glyph unicode="&#x2018;" glyph-name="quoteleft" horiz-adv-x="609" d="M395 1550L438 1500Q325 1385 325 1284Q325 1163 459 1076L269 986H259Q150 1093 150 1230Q150 1421 395 1550Z" />
<glyph unicode="&#x2019;" glyph-name="quoteright" horiz-adv-x="609" d="M340 1550H350Q459 1443 459 1306Q459 1115 214 986L171 1036Q284 1151 284 1252Q284 1373 150 1460L340 1550Z" />
<glyph unicode="&#x201a;" glyph-name="quotesinglbase" horiz-adv-x="609" d="M340 278H350Q459 171 459 34Q459 -157 214 -286L171 -236Q284 -121 284 -20Q284 101 150 188L340 278Z" />
<glyph unicode="&#x201c;" glyph-name="quotedblleft" horiz-adv-x="924" d="M395 1550L438 1500Q325 1385 325 1284Q325 1163 459 1076L269 986H259Q150 1093 150 1230Q150 1421 395 1550ZM710 1550L753 1500Q640 1385 640 1284Q640 1163 774 1076L584 986H574Q465
1093 465 1230Q465 1421 710 1550Z" />
<glyph unicode="&#x201d;" glyph-name="quotedblright" horiz-adv-x="924" d="M655 1550H665Q774 1443 774 1306Q774 1115 529 986L486 1036Q599 1151 599 1252Q599 1373 465 1460L655 1550ZM340 1550H350Q459 1443 459 1306Q459 1115 214 986L171 1036Q284 1151
284 1252Q284 1373 150 1460L340 1550Z" />
<glyph unicode="&#x201e;" glyph-name="quotedblbase" horiz-adv-x="924" d="M655 278H665Q774 171 774 34Q774 -157 529 -286L486 -236Q599 -121 599 -20Q599 101 465 188L655 278ZM340 278H350Q459 171 459 34Q459 -157 214 -286L171 -236Q284 -121 284 -20Q284
101 150 188L340 278Z" />
<glyph unicode="&#x2022;" glyph-name="bullet" horiz-adv-x="1130" d="M150 599V909Q150 1043 337 1115Q438 1154 565 1154Q695 1154 793 1115Q980 1040 980 909V599Q980 465 793 393Q692 354 565 354Q435 354 337 393Q150 467 150 599Z" />
<glyph unicode="&#x2039;" glyph-name="guilsinglleft" horiz-adv-x="823" d="M439 304L150 792L439 1284H449L623 1202L381 795L623 386L449 304H439Z" />
<glyph unicode="&#x203a;" glyph-name="guilsinglright" horiz-adv-x="823" d="M384 304H374L200 386L442 795L200 1202L374 1284H384L673 792L384 304Z" />
</font>
</defs>
</svg>
