<?xml version="1.0" standalone="no"?>
<!DOCTYPE svg PUBLIC "-//W3C//DTD SVG 1.1//EN" "http://www.w3.org/Graphics/SVG/1.1/DTD/svg11.dtd">
<svg xmlns="http://www.w3.org/2000/svg">
<defs >
<font id="Karma" horiz-adv-x="551" ><font-face
    font-family="Karma SemiBold"
    units-per-em="1000"
    panose-1="2 0 0 0 0 0 0 0 0 0"
    ascent="950"
    descent="-594"
    alphabetic="0" />
<glyph unicode=" " glyph-name="space" horiz-adv-x="268" />
<glyph unicode="!" glyph-name="exclam" horiz-adv-x="242" d="M150 -15T121 -15T72 5T52 54T72 103T121 124T170 104T190 54T170 5ZM86 209L70 696Q119 715 182 702L155 209Q123 199 86 209Z" />
<glyph unicode="&quot;" glyph-name="quotedbl" horiz-adv-x="338" d="M73 484L53 686Q102 702 158 692L132 484Q104 476 73 484ZM205 484L185 686Q234 702 290 692L264 484Q236 476 205 484Z" />
<glyph unicode="#" glyph-name="numbersign" horiz-adv-x="701" d="M472 260H590Q614 234 617 191H457L416 17H338L379 191H232L191 17H112L153 191H73Q49 217 46 260H168L209 431H111Q87 457 84 500H224L263 665H342L303 500H450L489 665H567L528 500H628Q652
476 655 431H513L472 260ZM394 260L435 431H288L247 260H394Z" />
<glyph unicode="$" glyph-name="dollar" horiz-adv-x="489" d="M420 513Q420 481 400 463T348 450Q348 556 244 556Q200 556 173 534T146 483T155 437T186 404Q218 384 285 356Q372 317 408 283T445 178T397 53T268 -13L276 -110Q262 -117 235 -117T195 -110L203
-15Q138 -10 91 18T44 95Q44 125 63 144T121 163Q125 103 155 76T240 49T328 72T360 142Q360 197 320 226Q287 252 244 269T181 296T136 322T96 354Q61 390 61 450T101 554T204 612L195 713Q208 720 235 720T276 713L268 619Q327 618 373 593T420 513Z" />
<glyph unicode="%" glyph-name="percent" horiz-adv-x="787" d="M606 337Q742 337 742 164Q742 75 706 30T604 -15T501 28T465 160T501 292T606 337ZM604 285Q537 285 537 161T602 37T668 161T604 285ZM186 628Q322 628 322 454Q322 365 286 321T184 276T81 319T45
450T81 583T186 628ZM184 576Q117 576 117 452T182 328T248 452T184 576ZM618 627L263 0H173L529 627H618Z" />
<glyph unicode="&amp;" glyph-name="ampersand" horiz-adv-x="737" d="M643 68Q661 68 681 76T710 96Q724 84 724 57T701 7T634 -17Q562 -17 460 54Q373 -18 260 -18T92 30T37 156Q37 276 164 346Q91 444 91 514T139 629T262 675T383 637T428 533T386 418T284
346Q368 244 468 160Q501 208 518 273L455 279Q450 334 491 334H654V325Q654 281 619 278L587 276Q564 187 520 121Q597 68 643 68ZM338 578T316 599T262 620T207 595T184 532Q184 476 252 386Q295 408 316 448T338 533ZM135 121T171 88T277 54T406 96Q326 160
234 263Q228 270 217 282T200 301Q135 250 135 174Q135 121 171 88Z" />
<glyph unicode="&apos;" glyph-name="quotesingle" horiz-adv-x="205" d="M70 484L50 686Q99 702 155 692L129 484Q101 476 70 484Z" />
<glyph unicode="(" glyph-name="parenleft" horiz-adv-x="297" d="M221 614T186 502T151 268T186 36T271 -145L231 -184Q153 -110 103 10T53 268T105 532T234 729L272 693Q221 614 186 502Z" />
<glyph unicode=")" glyph-name="parenright" horiz-adv-x="297" d="M140 657T192 532T244 269T194 10T66 -184L26 -145Q76 -75 111 35T146 267T111 501T25 693L63 729Q140 657 192 532Z" />
<glyph unicode="*" glyph-name="asterisk" horiz-adv-x="510" d="M264 565L402 638Q414 622 423 590T432 536L274 522L390 416Q379 398 352 379T303 354L241 494L181 355Q160 360 132 379T94 417L208 522L51 536Q51 560 59 592T81 639L219 564L187 719Q208 727
240 726T293 718L264 565Z" />
<glyph unicode="+" glyph-name="plus" horiz-adv-x="497" d="M447 310V239H286V76H213V239H50V310H213V473H286V310H447Z" />
<glyph unicode="," glyph-name="comma" horiz-adv-x="231" d="M84 122T115 122T165 103T184 42T150 -52T77 -121Q71 -124 61 -115T50 -100Q90 -72 105 -15Q79 -12 63 7T47 55T65 103Z" />
<glyph unicode="-" glyph-name="hyphen" horiz-adv-x="398" d="M43 299H355V221H43V299Z" />
<glyph unicode="." glyph-name="period" horiz-adv-x="232" d="M145 -15T116 -15T67 5T47 54T67 103T116 124T165 104T185 54T165 5Z" />
<glyph unicode="/" glyph-name="slash" horiz-adv-x="385" d="M107 -106H20L278 697H365L107 -106Z" />
<glyph unicode="0" glyph-name="zero" horiz-adv-x="526" d="M267 558Q134 558 134 296Q134 167 167 111T267 54T363 113T392 302T362 495T267 558ZM265 -15Q152 -15 94 66T35 302T93 541T267 627Q491 633 491 309T265 -15Z" />
<glyph unicode="1" glyph-name="one" horiz-adv-x="388" d="M314 0H53V8Q53 43 74 54Q82 59 92 59L155 61V512L90 491Q67 484 51 503T35 537L175 616Q195 627 220 627Q256 627 256 582V63L353 57Q359 0 314 0Z" />
<glyph unicode="2" glyph-name="two" horiz-adv-x="496" d="M51 546T107 586T249 627T386 580T437 457Q437 359 353 256Q324 221 306 200T252 148Q206 106 166 73H396L403 132Q406 156 425 164T462 167V1H48Q35 40 37 54Q159 164 202 211Q330 351 330 456Q330
503 306 531T235 559Q134 559 134 417Q101 415 76 431T51 487Q51 546 107 586Z" />
<glyph unicode="3" glyph-name="three" horiz-adv-x="458" d="M267 405Q299 437 299 480Q299 563 222 563Q178 563 157 535T133 466Q96 467 78 483T61 526Q63 569 108 598T229 627T354 589T403 487Q403 440 373 399T275 334Q348 325 391 283T435 175Q435 95 370
40T198 -15Q123 -15 79 13T35 87Q35 111 51 129T98 149Q101 106 129 80T208 53T294 84T327 168Q326 203 309 227T263 263Q210 283 135 279L134 353Q215 353 267 405Z" />
<glyph unicode="4" glyph-name="four" horiz-adv-x="485" d="M470 197V128H381V0L281 -10V128H43Q21 159 17 188L301 618Q345 629 381 623V197H470ZM281 197V476L98 197H281Z" />
<glyph unicode="5" glyph-name="five" horiz-adv-x="454" d="M233 383Q318 383 374 339T430 200T365 45T198 -15Q126 -15 82 12T38 83Q38 110 54 124T95 139Q108 50 200 50Q257 50 292 87T327 185T292 273T208 300T101 279L88 286L102 617H389L381 536H163L157
374Q192 383 233 383Z" />
<glyph unicode="6" glyph-name="six" horiz-adv-x="483" d="M149 326Q215 365 288 365T408 320T456 188T400 43T248 -15Q41 -15 41 262Q41 438 110 532T302 627Q362 627 394 606T427 558T412 513T363 496Q363 527 345 545T292 564Q231 564 194 505T149 326ZM147
149T174 100T252 50Q353 50 353 172T247 295Q191 295 147 265Q147 149 174 100Z" />
<glyph unicode="7" glyph-name="seven" horiz-adv-x="408" d="M26 617H388Q399 597 399 567L152 -13L52 21L307 533L90 532L84 482Q81 464 57 457T26 456V617Z" />
<glyph unicode="8" glyph-name="eight" horiz-adv-x="469" d="M439 177Q439 103 382 44T233 -15T89 29T35 141Q34 245 152 316Q69 377 69 460Q69 529 117 578T245 627T370 590T415 490Q415 400 321 337Q376 305 407 268T439 177ZM279 566T245 566T187 545T162
488T187 425T272 365Q324 413 324 479Q324 522 302 544ZM134 104T160 76T238 47T318 73T347 140Q347 212 224 273Q210 280 203 284Q134 229 134 150Q134 104 160 76Z" />
<glyph unicode="9" glyph-name="nine" horiz-adv-x="463" d="M221 627Q429 627 429 346Q429 173 359 79T165 -15Q108 -15 76 6T43 61Q43 82 58 99T107 116Q107 85 125 67T178 48Q239 48 276 107T321 287Q258 248 184 248T62 293T14 424T70 568T221 627ZM323 464T296
513T218 562Q117 562 117 440T221 317Q279 317 323 347Q323 464 296 513Z" />
<glyph unicode=":" glyph-name="colon" horiz-adv-x="238" d="M191 350T171 330T120 309T68 329T47 381T68 433T119 454T170 433T191 381ZM191 26T171 5T120 -16T68 5T47 56T68 108T119 129T170 108T191 57Z" />
<glyph unicode=";" glyph-name="semicolon" horiz-adv-x="238" d="M91 109T122 109T172 90T191 29T157 -65T84 -134Q78 -137 68 -128T57 -113Q97 -85 112 -28Q86 -25 70 -6T54 42T72 90ZM145 330T116 330T67 350T47 400T67 449T116 469T165 449T185 400T165 351Z" />
<glyph unicode="&lt;" glyph-name="less" horiz-adv-x="487" d="M434 426L151 280L430 138L394 69L33 256V305L397 494L434 426Z" />
<glyph unicode="=" glyph-name="equal" horiz-adv-x="497" d="M50 237H447V166H50V237ZM50 386H447V315H50V386Z" />
<glyph unicode="&gt;" glyph-name="greater" horiz-adv-x="481" d="M84 373L448 297V277L87 203L51 230L328 287L47 345L84 373Z" />
<glyph unicode="?" glyph-name="question" horiz-adv-x="497" d="M177 124T206 124T255 104T275 54T255 5T206 -15T157 5T137 54T157 103ZM43 626T97 669T246 713T398 666T454 539T394 399T246 322L240 206Q215 200 172 206L166 371Q347 418 347 537Q347 583 319
615T236 648T150 604T119 515Q86 515 65 529T43 574Q43 626 97 669Z" />
<glyph unicode="@" glyph-name="at" horiz-adv-x="1013" d="M872 350Q872 473 779 548T534 623Q358 623 251 521T144 255T252 -6T539 -104Q678 -104 762 -49L774 -105Q662 -165 527 -165Q323 -165 199 -52T75 253T201 564T534 684Q716 684 827 596T939 365T857
138T639 53Q601 53 583 63T563 99Q499 49 428 49T314 98T283 253T355 424T516 489Q568 489 612 467L613 473L713 480L662 115Q757 113 814 178T872 350ZM601 390Q566 425 512 425T426 378T385 266T395 162T465 122T570 166L601 390Z" />
<glyph unicode="A" glyph-name="A" horiz-adv-x="641" d="M589 0H371V8Q371 55 410 59L445 61L401 221H209L163 63L242 57Q248 0 203 0H12V8Q12 55 51 59L90 61L282 682Q320 686 369 682L559 63L627 57Q633 0 589 0ZM226 281H384L307 557L226 281Z" />
<glyph unicode="B" glyph-name="B" horiz-adv-x="574" d="M77 683H297Q410 683 464 636T518 521Q518 404 399 360Q465 350 507 311T549 205Q550 109 485 55T302 0H42Q43 28 50 42T78 58L116 62V620L43 626Q40 649 51 666T77 683ZM221 379H250Q334 379 371 412T409
509T370 603T265 627L221 625V379ZM441 193Q441 264 397 295T262 325L221 324V63L277 62Q441 61 441 193Z" />
<glyph unicode="C" glyph-name="C" horiz-adv-x="586" d="M357 697Q442 697 496 659T550 567Q550 531 528 512T465 493Q465 556 435 589T346 623Q250 623 198 546T146 338T196 136T356 64T542 125Q557 115 557 96Q557 59 490 22T330 -15Q187 -15 113 75T37 329T118
595T357 697Z" />
<glyph unicode="D" glyph-name="D" horiz-adv-x="694" d="M86 683H311Q487 683 572 600T658 347T569 89T314 0H41Q39 56 74 58L114 62V619L43 625Q42 654 51 668T86 683ZM421 55T484 122T548 342T483 561T274 622L220 620H219V64L287 61Q421 55 484 122Z" />
<glyph unicode="E" glyph-name="E" horiz-adv-x="565" d="M41 0V12Q41 34 47 41T57 52Q66 59 80 59L115 61V619L43 625Q37 682 82 682H514V535Q514 494 457 500L448 617L220 620V365L404 383Q414 343 405 294L220 305V63L465 71L474 187Q530 193 530 153V0H41Z" />
<glyph unicode="F" glyph-name="F" horiz-adv-x="523" d="M507 682V538Q507 497 450 503L441 615L221 620V373L404 391Q415 347 405 302L221 312V63L311 57Q317 0 272 0H41Q41 0 41 8Q41 55 80 59L115 61V619L43 625Q37 682 82 682H507Z" />
<glyph unicode="G" glyph-name="G" horiz-adv-x="662" d="M397 312H646Q646 312 646 304Q646 257 607 253L580 251H576V84Q547 40 478 13T327 -15Q187 -15 113 75T37 329T119 596T361 698Q471 698 528 661T585 568Q585 534 563 514T499 493Q499 566 464 599T349
633Q245 633 196 556T146 342Q146 61 357 61Q445 61 490 103V249L359 255Q353 312 397 312Z" />
<glyph unicode="H" glyph-name="H" horiz-adv-x="746" d="M665 0H451V8Q451 32 458 41Q471 57 491 59L526 61V308H220V63L293 57Q299 0 254 0H41V8Q41 55 80 59L115 61V619L43 625Q37 682 81 682H295V674Q295 627 256 623L220 621V369H526V619L454 625Q448 682
492 682H705V674Q705 627 666 623L631 621V63L703 57Q709 0 665 0Z" />
<glyph unicode="I" glyph-name="I" horiz-adv-x="335" d="M254 0H41V8Q41 55 80 59L115 61V619L43 625Q37 682 81 682H295V674Q295 627 256 623L220 621V63H221L293 57Q299 0 254 0Z" />
<glyph unicode="J" glyph-name="J" horiz-adv-x="379" d="M137 682H354Q354 682 354 674Q354 650 347 641Q334 625 314 623L281 621V136Q281 49 234 -7T107 -63Q65 -63 38 -41T10 11T27 60T81 78Q83 10 131 10Q154 10 165 35T176 128V619H175L99 625Q93 682 137 682Z" />
<glyph unicode="K" glyph-name="K" horiz-adv-x="626" d="M415 682H602Q602 652 595 642Q582 623 563 623L523 621L325 375L545 62L608 56Q614 44 604 22T569 0H460L257 290L220 245V63L300 57Q306 0 261 0H41V8Q41 55 80 59L115 61V619L43 625Q37 682 81 682H295V674Q295
627 256 623L220 621V339L441 620L376 625Q370 682 415 682Z" />
<glyph unicode="L" glyph-name="L" horiz-adv-x="547" d="M524 163V0H41V8Q41 55 80 59L115 61V619L44 625Q38 683 82 683H310V676Q310 640 289 628Q281 624 271 624L221 621H220V63L453 69L467 197Q524 203 524 163Z" />
<glyph unicode="M" glyph-name="M" horiz-adv-x="859" d="M808 0H597V8Q597 55 636 59L669 61L633 561L450 114Q418 104 394 110L200 542L167 63L245 57Q251 0 207 0H12V8Q12 55 51 59L93 61L132 619L63 625Q57 683 101 683H252L439 263L604 683H765Q810 683 804
625L734 619L776 64L846 57Q852 0 808 0Z" />
<glyph unicode="N" glyph-name="N" horiz-adv-x="690" d="M496 682H671Q671 682 671 674Q671 627 632 623L596 621V12Q567 -1 529 -1L183 522V63L255 57Q261 0 217 0H41V8Q41 55 80 59L115 61V619L43 625Q37 682 81 682H203L529 189V619L457 625Q451 682 496 682Z" />
<glyph unicode="O" glyph-name="O" horiz-adv-x="671" d="M241 627T193 553T145 343T192 131T332 55Q428 56 477 129T526 339T478 552T336 628ZM350 697Q476 697 555 611T634 353T552 84T318 -15Q186 -15 112 76T37 333T118 598T350 697Z" />
<glyph unicode="P" glyph-name="P" horiz-adv-x="576" d="M76 683H301Q424 683 490 631T556 490Q556 378 481 320T273 262H220V63L302 57Q308 0 263 0H41Q41 0 41 8Q41 55 80 59L115 61V621L42 627Q40 683 76 683ZM220 318H262Q351 318 398 360T446 479T404 594T282
628L220 626V318Z" />
<glyph unicode="Q" glyph-name="Q" horiz-adv-x="676" d="M630 -46Q638 -56 638 -80T615 -123T556 -141T456 -115T361 -69T261 -10Q155 10 97 98T37 328Q35 499 118 598T350 697Q476 697 555 611T634 363T570 106T383 -10Q512 -62 579 -62Q605 -62 630 -46ZM241
627T193 553T145 343T192 131T332 55Q428 56 477 129T526 339T478 552T336 628Z" />
<glyph unicode="R" glyph-name="R" horiz-adv-x="609" d="M41 0V12Q41 34 47 41T57 52Q66 59 80 59L115 61V621L42 627Q40 683 76 683H302Q539 683 539 509Q539 432 492 381T359 313Q419 194 484 128T606 62Q603 28 581 7T520 -15T429 38Q332 138 272 305Q238
305 220 306V63L301 57Q306 0 263 0H41ZM220 626V362Q233 361 256 361Q430 361 430 500Q430 635 282 628L222 626H220Z" />
<glyph unicode="S" glyph-name="S" horiz-adv-x="519" d="M430 650Q460 622 460 582T437 522T378 506Q378 629 263 629Q211 629 178 605T145 538Q145 505 164 484Q172 476 177 471T194 458T213 446T234 435T256 424Q285 414 306 403Q407 359 449 320T491 209Q491
112 422 49T235 -15Q152 -15 89 17T25 110Q25 144 47 165T113 187Q122 53 251 53Q320 53 360 86T400 172Q400 224 356 256Q332 273 312 283T251 310T190 338T138 367T92 404Q54 450 54 510Q54 599 120 647T279 697Q374 699 430 650Z" />
<glyph unicode="T" glyph-name="T" horiz-adv-x="623" d="M20 682H603V549Q603 521 580 515Q565 511 547 511L538 616H364V63L444 57Q450 0 406 0H178V8Q178 55 217 59L260 61V616H85L77 511Q36 511 26 526Q20 535 20 549V682Z" />
<glyph unicode="U" glyph-name="U" horiz-adv-x="660" d="M468 682H646Q646 682 646 674Q646 627 607 623L572 621V276Q572 -15 323 -15Q206 -15 147 53T88 272V619L16 625Q10 682 54 682H267V674Q267 627 228 623L193 621L192 264Q192 155 226 105T338 55Q502
55 502 255L501 619L430 625Q424 682 468 682Z" />
<glyph unicode="V" glyph-name="V" horiz-adv-x="634" d="M455 682H632Q632 682 632 674Q632 627 592 623L569 621L352 0H269L63 619L3 625Q-3 682 41 682H254V674Q254 650 247 641Q234 625 215 623L179 621L330 131L493 619L417 625Q416 635 416 645T426 668T455 682Z" />
<glyph unicode="W" glyph-name="W" horiz-adv-x="961" d="M793 682H959Q959 682 959 673Q959 640 944 630Q936 624 905 621L708 0H619L481 432L333 0H243L59 619L3 625Q-3 682 40 682H248V674Q248 627 209 623L175 621L305 131L464 616H538L680 129L826 619L755
625Q749 682 793 682Z" />
<glyph unicode="X" glyph-name="X" horiz-adv-x="664" d="M613 0H386V8Q386 32 393 41Q406 57 425 59L456 61H458L315 273L180 63H181L256 57Q262 0 218 0H16V8Q16 32 23 41Q36 57 56 59L91 61L276 329L80 619L13 625Q7 683 51 683H277V676Q277 628 238 624L205
621L350 408L485 619L410 625Q404 683 449 683H647V676Q647 628 608 624L577 622H575L389 350L583 63L652 57Q658 0 613 0Z" />
<glyph unicode="Y" glyph-name="Y" horiz-adv-x="619" d="M439 683H616Q616 683 616 676Q616 628 577 624L554 621L363 282V63H364L436 57Q442 0 397 0H183V8Q183 55 222 59L258 61V280L64 619L3 625Q-3 683 41 683H262V676Q262 640 241 628Q233 624 223 624L186
621H185L332 356L475 619L401 625Q395 683 439 683Z" />
<glyph unicode="Z" glyph-name="Z" horiz-adv-x="568" d="M536 0H33Q20 25 17 43L398 619L141 610L131 525Q123 465 66 477V685H515Q536 670 537 644L158 64L460 78L472 166Q480 223 536 212V0Z" />
<glyph unicode="[" glyph-name="bracketleft" horiz-adv-x="261" d="M157 662V-105H237V-163H74V719H237V662H157Z" />
<glyph unicode="\" glyph-name="backslash" horiz-adv-x="385" d="M365 -106H278L20 697H107L365 -106Z" />
<glyph unicode="]" glyph-name="bracketright" horiz-adv-x="258" d="M104 -105V662H24V719H187V-163H24V-105H104Z" />
<glyph unicode="^" glyph-name="asciicircum" horiz-adv-x="506" d="M449 204H359L256 487L148 204H57L232 653H284L449 204Z" />
<glyph unicode="_" glyph-name="underscore" horiz-adv-x="394" d="M-33 -76H427V-143H-33V-76Z" />
<glyph unicode="`" glyph-name="grave" horiz-adv-x="439" d="M274 545L71 654Q79 672 101 692T145 715L312 582Q301 558 274 545Z" />
<glyph unicode="a" glyph-name="a" horiz-adv-x="514" d="M501 40Q501 -15 429 -15T339 40Q274 -15 197 -15T78 21T36 122T84 228T241 270Q288 270 333 262V318Q333 445 234 445Q194 445 171 418T145 350Q111 347 89 362T66 408Q66 454 113 484T242 514T379 470T435
324V48L501 40ZM333 192Q293 209 246 209T171 189T144 133T165 76T233 56T333 93V192Z" />
<glyph unicode="b" glyph-name="b" horiz-adv-x="574" d="M256 514T338 514T477 455T537 269T476 64T293 -15Q237 -15 190 6L89 39V629L44 633Q9 637 13 688L190 709V455Q256 514 338 514ZM304 56Q430 56 430 250Q430 337 399 387T308 438T190 385V100Q241 56 304 56Z" />
<glyph unicode="c" glyph-name="c" horiz-adv-x="465" d="M280 514Q349 514 391 485T434 413T411 354T359 341Q358 381 335 412T266 443Q207 443 175 392T143 254Q143 63 291 63Q358 63 423 116Q431 111 436 100T441 80Q441 49 383 17T253 -15Q151 -15 94 52T37
240T102 437T280 514Z" />
<glyph unicode="d" glyph-name="d" horiz-adv-x="564" d="M551 42Q551 -16 475 -16T386 46Q320 -15 238 -15T97 44T37 230T98 435T281 514Q337 514 384 493V629L340 633Q304 637 308 688L486 709V49L551 42ZM384 399Q334 443 268 443T173 388T143 248T175 113T267
62T384 114V399Z" />
<glyph unicode="e" glyph-name="e" horiz-adv-x="484" d="M144 252V233Q144 150 176 106T282 62T425 116Q442 104 442 80Q442 48 387 17T255 -15Q152 -15 95 47T37 238T102 440T265 514T409 455T453 306V252H144ZM262 445Q171 445 150 312H352Q349 445 262 445Z" />
<glyph unicode="f" glyph-name="f" horiz-adv-x="366" d="M109 499V530Q109 616 156 669T284 724Q385 724 385 661Q385 632 367 618T318 603Q318 633 304 648T269 663Q211 663 211 541V499H337Q342 438 297 438H211V62L311 56Q316 0 273 0H36Q36 0 36 8Q36 54
75 58L109 60V438H38Q38 499 79 499H109Z" />
<glyph unicode="g" glyph-name="g" horiz-adv-x="476" d="M218 149Q195 149 168 154Q148 126 149 115T173 100T257 95Q366 91 415 64T464 -31Q464 -121 396 -175T225 -230T71 -193T19 -92T84 26Q66 42 66 73Q66 118 116 175Q39 219 37 320Q35 402 87 458T228 514Q287
514 331 489L460 523Q469 511 470 486T460 451Q445 443 379 445Q410 401 407 327T353 201T218 149ZM179 448T157 416T134 329T157 243T220 211T285 244T309 330T287 417T222 449ZM96 -109T131 -130T235 -152T347 -125T391 -62T354 -17T238 -4T132 5Q96 -36 96 -72Z"
/>
<glyph unicode="h" glyph-name="h" horiz-adv-x="638" d="M578 0H369V8Q369 54 408 58L442 60V308Q442 372 416 400T331 428T214 375V62L287 56Q293 0 249 0H38V8Q38 54 77 58L112 60V628L68 632Q36 636 36 687L214 708V448Q284 514 361 514T491 464T543 307L544
62L617 56Q623 0 578 0Z" />
<glyph unicode="i" glyph-name="i" horiz-adv-x="308" d="M249 0H38V8Q38 54 77 58L112 60V435L68 440Q36 443 36 494L214 514V62L287 56Q293 0 249 0ZM220 608T202 590T156 571T110 589T91 636T109 682T155 701T201 683T220 636Z" />
<glyph unicode="j" glyph-name="j" horiz-adv-x="276" d="M109 701T137 701T183 683T202 637T184 591T137 572T91 590T72 636T90 682ZM195 50Q195 -88 145 -159T6 -230Q-34 -230 -54 -210T-75 -164T-58 -123T-12 -110Q-10 -161 30 -161Q61 -161 77 -135T93 -29V436L46
441Q16 443 16 495L195 514V50Z" />
<glyph unicode="k" glyph-name="k" horiz-adv-x="567" d="M353 499H524V492Q524 468 517 459Q504 443 484 441L460 440L330 295L498 62L565 56Q568 31 555 16T523 0H425L266 223L214 166V62L288 56Q294 0 249 0H39V8Q39 54 78 58L112 60V629L68 633Q36 637 36
688L214 709V254L372 437L314 443Q308 499 353 499Z" />
<glyph unicode="l" glyph-name="l" horiz-adv-x="306" d="M247 0H37V8Q37 32 44 40Q57 56 77 58L112 60V629L68 633Q36 637 36 688L214 708V62L285 56Q291 0 247 0Z" />
<glyph unicode="m" glyph-name="m" horiz-adv-x="950" d="M891 0H682V8Q682 54 721 58L754 60V308Q754 371 728 399T645 428T528 373Q536 344 536 307V62L609 56Q615 0 570 0H360V8Q360 54 399 58L434 60V308Q434 428 331 428Q274 428 214 376V62L287 56Q293 0
249 0H38V8Q38 54 77 58L112 60V432L71 435Q36 438 36 490L198 510L206 446H209Q234 468 249 480T296 503T365 514T443 494T507 430Q589 514 677 514Q751 514 803 464T856 307V62L929 56Q935 0 891 0Z" />
<glyph unicode="n" glyph-name="n" horiz-adv-x="636" d="M576 0H368V8Q368 54 407 58L442 60V311Q442 429 345 429Q305 429 276 417T214 375V62L285 56Q291 0 247 0H37V8Q37 32 44 40Q57 56 77 58L112 60V431L68 436Q36 439 36 490L198 510L207 443H210Q287 514
364 514T492 465T544 311V62L614 56Q620 0 576 0Z" />
<glyph unicode="o" glyph-name="o" horiz-adv-x="529" d="M207 446T175 392T143 247T174 104T263 51T354 103T386 245T355 391T266 447ZM36 365T98 439T266 514T431 449T492 257T431 58T259 -15T93 50T37 240Z" />
<glyph unicode="p" glyph-name="p" horiz-adv-x="572" d="M254 514T336 514T476 455T536 269T475 64T292 -15Q236 -15 189 6V-155L262 -161Q268 -217 223 -217H13V-210Q13 -163 52 -159L87 -157V430L40 436Q12 439 12 488L173 508L183 450Q254 514 336 514ZM189
99Q241 56 306 56T400 111T429 251T397 387T306 438T189 386V99Z" />
<glyph unicode="q" glyph-name="q" horiz-adv-x="547" d="M515 -217H309V-210Q309 -163 348 -159L383 -157V40Q317 -15 236 -15T97 45T37 230T98 435T280 514Q347 514 400 485L485 499V-155L553 -161Q559 -217 515 -217ZM269 443Q172 443 149 320Q143 288 143
249Q143 163 175 113T267 62T383 111V400Q331 443 269 443Z" />
<glyph unicode="r" glyph-name="r" horiz-adv-x="431" d="M237 461T281 487T356 514T408 496T429 433T402 362Q386 350 351 353Q351 396 342 411T313 427Q265 427 213 361V62L296 56Q302 0 257 0H38Q38 0 38 8Q38 54 77 58L111 60V431L63 436Q36 439 36 488L199
509L207 429H210Q237 461 281 487Z" />
<glyph unicode="s" glyph-name="s" horiz-adv-x="419" d="M40 436T96 475T218 514T327 493T370 425Q370 393 349 377T298 364Q299 400 272 424T207 448T146 433T123 391T151 347T231 309T304 277T349 248Q395 214 395 147T340 32T192 -15Q125 -14 75 11T24 85Q25
116 46 133T96 150Q103 104 133 78T208 52T281 68T308 117T284 167T213 202T142 232T92 263Q40 301 40 368Z" />
<glyph unicode="t" glyph-name="t" horiz-adv-x="397" d="M191 438V154Q191 64 247 64Q283 64 308 73T365 108Q370 107 377 96T384 73Q384 38 332 12T226 -15Q146 -15 118 30T89 155V438H10Q10 499 51 499H89V623L191 638V499H374Q376 486 371 471Q363 440 338 438H191Z" />
<glyph unicode="u" glyph-name="u" horiz-adv-x="590" d="M325 439V451Q325 475 331 482T340 492Q347 499 362 499H504V63L536 61Q566 60 566 6L432 -7L414 48Q343 -15 268 -15T139 35T86 192V437L12 439V448Q12 499 50 499H188V192Q188 64 293 64Q350 64 402
106V437L325 439Z" />
<glyph unicode="v" glyph-name="v" horiz-adv-x="505" d="M222 499L221 480Q221 458 200 446Q192 442 157 439L265 151L376 438L327 443Q321 499 365 499H504Q504 444 470 441L458 440L278 0H219L45 437L2 443Q0 499 38 499H222Z" />
<glyph unicode="w" glyph-name="w" horiz-adv-x="721" d="M222 499L221 480Q221 458 200 446Q192 442 158 439L241 155L345 452L408 453L497 165L589 438L543 443Q537 499 581 499H719Q720 444 686 441L674 440L506 0H448L353 282L246 0H189L45 437L2 443Q0 499
38 499H222Z" />
<glyph unicode="x" glyph-name="x" horiz-adv-x="510" d="M466 0H274V7Q274 30 281 38Q294 54 313 58L332 60H334L237 195L152 62L206 56Q212 0 168 0H8V8Q8 54 47 58L75 60L201 244L62 437L10 443Q7 448 11 466Q18 499 48 499H237V492Q237 449 198 441L182 439L278
306L361 437H360L314 443Q308 499 352 499H498V490Q498 457 480 447Q471 442 438 440L313 257L454 62L504 56Q510 0 466 0Z" />
<glyph unicode="y" glyph-name="y" horiz-adv-x="520" d="M380 499H519V490Q519 447 480 441L473 440L306 31H307Q253 -97 231 -134Q174 -227 106 -228Q67 -228 45 -209T22 -163T37 -120T72 -103T96 -105Q91 -118 96 -135T119 -153Q146 -153 179 -92T234 35L58
437H55L3 443Q-3 499 41 499H233V492Q233 449 194 441L173 439L285 157L393 437L342 443Q336 499 380 499Z" />
<glyph unicode="z" glyph-name="z" horiz-adv-x="429" d="M49 499H391Q409 481 411 451L143 59L343 64L351 118Q354 143 374 151T414 154V0H30Q16 25 15 45L288 444L118 438L112 384Q109 359 89 351T49 348V499Z" />
<glyph unicode="{" glyph-name="braceleft" horiz-adv-x="351" d="M101 651T141 687T246 724T334 711L330 664Q314 666 300 666Q248 666 219 646T189 587Q189 566 197 504T206 394T191 314T152 273V264Q176 256 191 224T206 150T198 41T189 -51Q189 -89 218 -109T300
-129Q314 -129 330 -127L334 -175Q298 -188 238 -188T140 -152T101 -56Q101 -24 109 44T117 155T94 224Q83 238 50 252V285Q83 299 94 313Q117 339 117 381T109 490T101 592Q101 651 141 687Z" />
<glyph unicode="|" glyph-name="bar" horiz-adv-x="283" d="M100 -194V724H183V-194H100Z" />
<glyph unicode="}" glyph-name="braceright" horiz-adv-x="351" d="M11 711Q34 724 99 724T204 688T244 592Q244 558 236 491T228 381T251 313Q262 299 295 285V252Q262 238 251 224Q228 198 228 156T236 45T244 -56Q244 -116 206 -152T107 -188T11 -175L15 -127Q31
-129 45 -129Q97 -129 126 -109T156 -51Q156 -27 148 40T139 149T154 223T193 264V273Q169 281 154 313T139 393T147 503T156 587Q156 625 127 645T45 666Q31 666 15 664L11 711Z" />
<glyph unicode="~" glyph-name="asciitilde" horiz-adv-x="580" d="M315 225T268 252T199 279T161 266T136 234L100 247Q111 300 142 331T214 362T299 332T372 302T420 315T446 352L480 342Q459 223 357 224Q315 225 268 252Z" />
<glyph unicode="&#xa0;" glyph-name="uni00A0" horiz-adv-x="268" />
<glyph unicode="&#xa1;" glyph-name="exclamdown" horiz-adv-x="242" d="M70 -7L86 480Q123 490 155 480L182 -13Q119 -26 70 -7ZM92 704T121 704T170 684T190 635T170 586T121 565T72 585T52 635T72 684Z" />
<glyph unicode="&#xa2;" glyph-name="cent" horiz-adv-x="506" d="M376 508T412 481T448 412T425 355T373 341Q372 383 349 413T273 444T189 393T157 260Q157 62 302 62Q378 62 437 113Q456 100 456 76T415 25T313 -12L322 -112Q308 -119 281 -119T241 -112L249
-16Q156 -11 104 56T50 235T101 422T248 511L241 605Q254 612 280 612T322 605L314 513Q376 508 412 481Z" />
<glyph unicode="&#xa3;" glyph-name="sterling" horiz-adv-x="531" d="M435 0H53Q45 18 47 48Q101 63 119 111Q136 147 144 265H59V326H148Q150 367 151 389Q163 626 348 626Q403 626 440 603T477 540Q477 469 403 474Q403 563 335 563Q251 563 241 389Q237 330
237 326H398V265H233Q226 176 216 130T182 67H484Q488 0 435 0Z" />
<glyph unicode="&#xa4;" glyph-name="currency" horiz-adv-x="595" d="M247 169T297 169T377 200T408 283T378 366T297 398T217 367T186 284T216 201ZM455 402Q490 351 490 283T456 166L548 89Q537 74 518 55T487 29L408 121Q363 91 298 91T188 121L108 29Q96
36 77 55T47 89L139 166Q104 212 104 282T140 402L47 479Q58 494 77 513T108 538L187 447Q234 476 298 476T407 447L487 538Q499 532 518 513T548 479L455 402Z" />
<glyph unicode="&#xa5;" glyph-name="yen" horiz-adv-x="630" d="M425 617H617Q617 617 617 610Q617 562 578 558L547 556H545L399 325H486V265H372V214H486V154H372V63H373L445 57Q451 0 407 0H196V8Q196 32 203 41Q216 57 236 59L271 61V154H148V214H271V265H148V325H238L78
554L15 560Q9 617 53 617H266V610Q266 584 259 576Q246 560 227 558L199 557L334 346L460 554L387 560Q381 617 425 617Z" />
<glyph unicode="&#xa6;" glyph-name="brokenbar" horiz-adv-x="283" d="M100 352V724H183V352H100ZM183 178V-194H100V178H183Z" />
<glyph unicode="&#xa7;" glyph-name="section" horiz-adv-x="560" d="M513 -61Q513 -158 444 -221T257 -284Q174 -284 111 -252T47 -159Q47 -125 69 -104T135 -83Q144 -216 273 -216Q340 -216 381 -184T422 -98Q422 -45 378 -14Q343 12 288 35T212 69T160 98T114
135Q76 181 76 241Q76 327 143 379Q76 429 76 514T143 648T301 697Q396 699 452 650Q482 622 482 582T459 522T400 507Q400 629 285 629Q233 629 200 605T167 539Q167 486 228 451Q255 436 288 421T328 403Q428 360 470 321T513 203T457 63Q513 18 513 -61ZM167
269Q167 236 186 216Q194 207 199 202T216 189T235 177T256 166T278 156Q344 130 397 102Q422 132 422 165T413 218T379 255Q339 283 279 308T207 340Q167 316 167 269Z" />
<glyph unicode="&#xa8;" glyph-name="dieresis" horiz-adv-x="600" d="M409 607T391 589T346 570T301 588T282 632T301 677T346 696T390 678T409 633ZM191 570T165 570T120 588T101 633T120 677T165 696T209 678T228 633T210 589Z" />
<glyph unicode="&#xa9;" glyph-name="copyright" horiz-adv-x="693" d="M407 466T431 449T456 408T442 374T411 366Q411 386 398 401T357 416T312 390T294 321Q294 213 374 213Q416 213 450 241Q460 234 460 215T428 178T352 160Q292 160 257 199T222 308T260
422T365 466Q407 466 431 449ZM566 416T506 477T345 539T186 476T127 310T186 145T346 83T506 144T566 311ZM50 442T130 525T345 608T561 527T643 311T562 96T346 14T131 94T50 308Z" />
<glyph unicode="&#xaa;" glyph-name="ordfeminine" horiz-adv-x="358" d="M340 347Q340 308 291 308T228 340Q188 308 140 308T64 330T36 393T68 458T172 483Q200 483 223 479V501Q223 577 169 577T113 522Q90 520 74 530T58 566T89 610T174 629Q301 629 301 506V351L340
347ZM177 437Q120 437 120 397Q120 362 167 362Q192 362 223 380V429Q202 437 177 437Z" />
<glyph unicode="&#xab;" glyph-name="guillemotleft" horiz-adv-x="596" d="M341 440L168 252V244L345 57L294 15L50 222Q42 248 50 275L294 482L341 440ZM568 440L396 252V244L573 57L521 15L277 222Q271 248 277 275L521 482L568 440Z" />
<glyph unicode="&#xac;" glyph-name="logicalnot" horiz-adv-x="497" d="M50 314H447V126H375L376 243H50V314Z" />
<glyph unicode="&#xad;" glyph-name="uni00AD" horiz-adv-x="398" d="M43 299H355V221H43V299Z" />
<glyph unicode="&#xae;" glyph-name="registered" horiz-adv-x="617" d="M56 576T127 646T311 717T493 646T561 460T491 277T309 207Q196 208 126 277T56 461ZM122 372T174 319T309 265T444 317T495 460T445 604T311 659T174 606T122 462ZM219 598H310Q408 598
408 533Q408 475 342 460Q388 374 438 374Q433 340 401 340T340 375T295 455H285V379L318 377Q320 370 317 358T300 345H205Q205 377 222 378L233 379V564L204 566Q204 598 219 598ZM285 566V487H291Q354 487 354 529Q354 566 307 566H285Z" />
<glyph unicode="&#xaf;" glyph-name="overscore" horiz-adv-x="600" d="M116 643H399V578H116V643Z" />
<glyph unicode="&#xb0;" glyph-name="degree" horiz-adv-x="365" d="M156 639T141 623T125 580T141 536T183 519T224 536T240 579T224 622T182 639ZM57 525T57 579T92 666T183 700T273 667T308 580T273 492T182 458T92 491Z" />
<glyph unicode="&#xb1;" glyph-name="plusminus" horiz-adv-x="497" d="M286 310H447V239H286V133H213V239H50V310H213V473H286V310ZM50 20V91H447V20H50Z" />
<glyph unicode="&#xb2;" glyph-name="twosuperior" horiz-adv-x="341" d="M307 278H47Q34 309 37 318Q40 320 59 336T85 357T110 377T137 401T160 425T182 451T197 477Q212 503 212 528T200 568T162 583T122 560T107 503Q46 501 46 547Q46 582 81 605T171 628T260
602T293 532Q293 474 242 419T131 327H263L267 362Q268 376 281 381T307 382V278Z" />
<glyph unicode="&#xb3;" glyph-name="threesuperior" horiz-adv-x="316" d="M99 480Q131 480 163 496T195 547T154 583Q106 583 101 530Q54 531 54 566Q55 592 82 610T162 628T246 607T278 550Q278 491 195 468Q242 462 267 438T293 374T254 303T155 272T65 289T35
332Q35 347 46 357T80 368Q81 346 98 332T144 317T191 333T210 374Q209 439 99 431V480Z" />
<glyph unicode="&#xb4;" glyph-name="acute" horiz-adv-x="600" d="M407 654L204 545Q177 558 166 582L333 715Q354 712 376 692T407 654Z" />
<glyph unicode="&#xb5;" glyph-name="uni00B5" horiz-adv-x="577" d="M555 40Q555 -15 483 -15T394 39Q331 -15 256 -15Q210 -15 172 4L177 -214Q164 -222 123 -222T72 -214L78 157Q76 179 76 192V499H178V192Q178 64 283 64Q338 64 388 103V499H489V48L555 40Z" />
<glyph unicode="&#xb6;" glyph-name="paragraph" horiz-adv-x="695" d="M253 683H614Q650 683 648 627L575 621V-90H471V621H376V-90H272V283Q175 283 111 335T47 480T102 628T253 683Z" />
<glyph unicode="&#xb7;" glyph-name="middot" horiz-adv-x="224" d="M184 241T164 221T113 200T61 220T40 271T61 323T112 344T163 323T184 272Z" />
<glyph unicode="&#xb8;" glyph-name="cedilla" horiz-adv-x="600" d="M343 -45T363 -65T384 -119T357 -176T285 -200T213 -172Q212 -161 216 -149T225 -134Q244 -150 278 -150T313 -118Q313 -101 299 -92T242 -83L269 18H317L302 -45Q343 -45 363 -65Z" />
<glyph unicode="&#xb9;" glyph-name="onesuperior" horiz-adv-x="286" d="M224 281H49V288Q49 320 76 323L112 325V545L73 533Q57 528 46 543T35 566L127 617Q141 624 169 624Q191 624 191 594V326L251 322Q251 281 224 281Z" />
<glyph unicode="&#xba;" glyph-name="ordmasculine" horiz-adv-x="387" d="M189 576Q159 576 142 547T124 466T141 387T188 359T235 386T252 462Q252 576 189 576ZM42 540T81 584T191 629T297 585T334 465T295 348T184 306T78 346T43 463Z" />
<glyph unicode="&#xbb;" glyph-name="guillemotright" horiz-adv-x="596" d="M201 252L28 440L75 482L319 275Q327 248 319 222L75 15L24 57L201 244V252ZM428 252L256 440L303 482L547 275Q553 248 547 222L303 15L251 57L428 244V252Z" />
<glyph unicode="&#xbc;" glyph-name="onequarter" horiz-adv-x="698" d="M662 109V63H615V-8L536 -13V63H392Q378 82 375 100L549 345Q584 352 614 349L615 109H662ZM536 109V247L439 109H536ZM492 627H581L225 0H136L492 627ZM218 277H45Q45 277 45 284Q45 317
71 320L107 322V545L68 533Q52 528 40 543T29 567L122 618Q136 625 163 625Q185 625 185 595V323L245 319Q245 277 218 277Z" />
<glyph unicode="&#xbd;" glyph-name="onehalf" horiz-adv-x="698" d="M680 0H419Q407 29 409 40Q412 42 438 63T473 92Q527 140 536 152T560 184Q584 217 584 246T572 290T534 305T494 282T479 225Q418 223 418 269Q418 304 453 327T543 350T632 324T665 254Q665
196 613 141T503 49H635L639 84Q641 98 654 103T680 104V0ZM479 627H568L213 0H124L479 627ZM207 276H34V282Q34 316 61 319L96 321V544L57 532Q41 527 30 542T19 565L112 616Q125 624 153 624Q175 624 175 594V322L234 318Q234 314 234 305T228 286T207 276Z"
/>
<glyph unicode="&#xbe;" glyph-name="threequarters" horiz-adv-x="698" d="M669 109V63H622V-8L543 -13V63H399Q385 82 382 100L556 345Q591 352 621 349L622 109H669ZM543 109V246L446 109H543ZM511 627H600L245 0H156L511 627ZM95 480Q127 480 159 496T191
547T150 583Q102 583 97 530Q50 531 50 566Q51 592 79 610T159 628T242 607T274 550Q274 491 191 468Q238 462 263 438T289 374T250 303T151 272T61 289T31 332Q31 347 42 357T76 368Q77 346 94 332T140 317T187 333T206 374Q205 439 95 431V480Z" />
<glyph unicode="&#xbf;" glyph-name="questiondown" horiz-adv-x="497" d="M320 556T291 556T242 576T222 626T242 675T291 695T340 675T360 626T340 577ZM454 54T400 11T251 -33T99 14T43 141T103 281T251 358L257 474Q282 480 325 474L331 309Q150 262 150 143Q150
97 178 65T261 32T347 76T378 165Q411 165 432 151T454 106Q454 54 400 11Z" />
<glyph unicode="&#xc0;" glyph-name="Agrave" horiz-adv-x="641" d="M589 0H371V8Q371 55 410 59L445 61L401 221H209L163 63L242 57Q248 0 203 0H12V8Q12 55 51 59L90 61L282 682Q320 686 369 682L559 63L627 57Q633 0 589 0ZM226 281H384L307 557L226 281ZM255
898L422 765Q411 741 384 728L181 837Q189 855 211 875T255 898Z" />
<glyph unicode="&#xc1;" glyph-name="Aacute" horiz-adv-x="641" d="M589 0H371V8Q371 55 410 59L445 61L401 221H209L163 63L242 57Q248 0 203 0H12V8Q12 55 51 59L90 61L282 682Q320 686 369 682L559 63L627 57Q633 0 589 0ZM226 281H384L307 557L226 281ZM485
840L281 731Q255 744 244 768L410 901Q431 898 453 878T485 840Z" />
<glyph unicode="&#xc2;" glyph-name="Acircumflex" horiz-adv-x="641" d="M589 0H371V8Q371 55 410 59L445 61L401 221H209L163 63L242 57Q248 0 203 0H12V8Q12 55 51 59L90 61L282 682Q320 686 369 682L559 63L627 57Q633 0 589 0ZM226 281H384L307 557L226 281ZM324
808L187 722Q168 734 155 756L291 880Q327 889 362 880L495 756Q480 732 461 722L324 808Z" />
<glyph unicode="&#xc3;" glyph-name="Atilde" horiz-adv-x="641" d="M589 0H371V8Q371 55 410 59L445 61L401 221H209L163 63L242 57Q248 0 203 0H12V8Q12 55 51 59L90 61L282 682Q320 686 369 682L559 63L627 57Q633 0 589 0ZM226 281H384L307 557L226 281ZM387
746Q350 746 307 772T245 798T210 785T189 752L156 764Q165 818 193 849T256 881T333 853T400 824T442 838T465 875L497 866Q479 746 387 746Z" />
<glyph unicode="&#xc4;" glyph-name="Adieresis" horiz-adv-x="641" d="M589 0H371V8Q371 55 410 59L445 61L401 221H209L163 63L242 57Q248 0 203 0H12V8Q12 55 51 59L90 61L282 682Q320 686 369 682L559 63L627 57Q633 0 589 0ZM226 281H384L307 557L226 281ZM294
790T276 772T232 753T186 771T167 816T186 860T231 879T276 861T294 816ZM475 790T457 772T412 753T367 771T349 816T367 860T412 879T456 861T475 816Z" />
<glyph unicode="&#xc5;" glyph-name="Aring" horiz-adv-x="641" d="M589 0H371V8Q371 55 410 59L445 61L401 221H209L163 63L242 57Q248 0 203 0H12V8Q12 55 51 59L90 61L282 682Q320 686 369 682L559 63L627 57Q633 0 589 0ZM226 281H384L307 557L226 281ZM420
779T394 754T327 729T260 753T234 817T260 882T329 908T397 884T421 819ZM348 861T328 861T296 850T284 818T296 786T328 774T360 786T372 818T360 849Z" />
<glyph unicode="&#xc6;" glyph-name="AE" horiz-adv-x="889" d="M361 0V12Q361 34 367 41T377 52Q386 59 400 59L435 61V299H276L164 63L242 57Q248 0 203 0H12V8Q12 55 51 59L90 61L393 682L834 683V535Q834 495 777 501L768 617L540 621V366L724 384Q734 344
725 295L540 305V63L788 71L797 187Q854 193 854 153V0H361ZM435 359V619L429 620L305 359H435Z" />
<glyph unicode="&#xc7;" glyph-name="Ccedilla" horiz-adv-x="586" d="M357 697Q442 697 496 659T550 567Q550 531 528 512T465 493Q465 556 435 589T346 623Q250 623 198 546T146 338T196 136T356 64T542 125Q557 115 557 96Q557 62 498 27T355 -14L348 -45Q390
-45 410 -65T431 -119T404 -176T331 -200T259 -172Q258 -161 262 -149T271 -134Q290 -150 324 -150T359 -118Q359 -101 345 -92T288 -83L306 -14Q175 -7 107 83T37 333T118 595T357 697Z" />
<glyph unicode="&#xc8;" glyph-name="Egrave" horiz-adv-x="565" d="M374 728L171 837Q179 855 201 875T245 898L412 765Q401 741 374 728ZM41 0V12Q41 34 47 41T57 52Q66 59 80 59L115 61V619L43 625Q37 682 82 682H514V535Q514 494 457 500L448 617L220 620V365L404
383Q414 343 405 294L220 305V63L465 71L474 187Q530 193 530 153V0H41Z" />
<glyph unicode="&#xc9;" glyph-name="Eacute" horiz-adv-x="565" d="M475 840L271 731Q245 744 234 768L400 901Q421 898 443 878T475 840ZM41 0V12Q41 34 47 41T57 52Q66 59 80 59L115 61V619L43 625Q37 682 82 682H514V535Q514 494 457 500L448 617L220 620V365L404
383Q414 343 405 294L220 305V63L465 71L474 187Q530 193 530 153V0H41Z" />
<glyph unicode="&#xca;" glyph-name="Ecircumflex" horiz-adv-x="565" d="M41 0V12Q41 34 47 41T57 52Q66 59 80 59L115 61V619L43 625Q37 682 82 682H514V535Q514 494 457 500L448 617L220 620V365L404 383Q414 343 405 294L220 305V63L465 71L474 187Q530 193
530 153V0H41ZM315 809L177 722Q158 734 145 756L281 880Q317 889 352 880L485 756Q471 733 452 722L315 809Z" />
<glyph unicode="&#xcb;" glyph-name="Edieresis" horiz-adv-x="565" d="M466 790T448 772T402 753T357 771T339 816T357 860T402 879T447 861T466 816ZM284 790T266 772T222 753T177 771T158 816T176 860T221 879T266 861T284 816ZM41 0V12Q41 34 47 41T57 52Q66
59 80 59L115 61V619L43 625Q37 682 82 682H514V535Q514 494 457 500L448 617L220 620V365L404 383Q414 343 405 294L220 305V63L465 71L474 187Q530 193 530 153V0H41Z" />
<glyph unicode="&#xcc;" glyph-name="Igrave" horiz-adv-x="335" d="M254 0H41V8Q41 55 80 59L115 61V619L43 625Q37 682 81 682H295V674Q295 627 256 623L220 621V63H221L293 57Q299 0 254 0ZM99 898L266 765Q255 741 228 728L25 837Q33 855 55 875T99 898Z" />
<glyph unicode="&#xcd;" glyph-name="Iacute" horiz-adv-x="335" d="M220 63H221L293 57Q299 0 254 0H41V8Q41 55 80 59L115 61V619L43 625Q37 682 81 682H295V674Q295 627 256 623L220 621V63ZM329 840L125 731Q99 743 88 768L254 901Q275 898 297 878T329 840Z" />
<glyph unicode="&#xce;" glyph-name="Icircumflex" horiz-adv-x="335" d="M205 880L339 756Q324 732 305 722L168 808L31 722Q11 733 -2 756L135 880Q171 889 205 880ZM220 63H221L293 57Q299 0 254 0H41V8Q41 55 80 59L115 61V619L43 625Q37 682 81 682H295V674Q295
627 256 623L220 621V63Z" />
<glyph unicode="&#xcf;" glyph-name="Idieresis" horiz-adv-x="335" d="M192 842T211 860T256 879T300 861T319 816T301 772T256 753T211 771T192 816ZM220 63H221L293 57Q299 0 254 0H41V8Q41 55 80 59L115 61V619L43 625Q37 682 81 682H295V674Q295 627 256
623L220 621V63ZM138 842T138 816T120 772T75 753T30 771T11 816T30 860T75 879T119 861Z" />
<glyph unicode="&#xd0;" glyph-name="Eth" horiz-adv-x="710" d="M86 683H311Q487 683 572 600T658 347T569 89T314 0H41Q39 56 74 58L114 62V306H59V368H114V619L43 625Q42 654 51 668T86 683ZM421 55T484 122T548 342T483 561T274 622L220 620H219V368H375V306H219V64L287
61Q421 55 484 122Z" />
<glyph unicode="&#xd1;" glyph-name="Ntilde" horiz-adv-x="690" d="M496 682H671Q671 682 671 674Q671 627 632 623L596 621V12Q567 -1 529 -1L183 522V63L255 57Q261 0 217 0H41V8Q41 55 80 59L115 61V619L43 625Q37 682 81 682H203L529 189V619L457 625Q451
682 496 682ZM410 746Q372 746 329 772T267 798T233 785T212 752L179 764Q188 818 216 849T279 881T356 853T423 824T465 838T488 875L520 866Q502 746 410 746Z" />
<glyph unicode="&#xd2;" glyph-name="Ograve" horiz-adv-x="671" d="M405 728L202 837Q210 855 232 875T276 898L443 765Q432 741 405 728ZM350 697Q476 697 555 611T634 353T552 84T318 -15Q186 -15 112 76T37 333T118 598T350 697ZM241 627T193 553T145 343T192
131T332 55Q428 56 477 129T526 339T478 552T336 628Z" />
<glyph unicode="&#xd3;" glyph-name="Oacute" horiz-adv-x="671" d="M505 840L302 731Q275 744 264 768L430 901Q451 898 473 878T505 840ZM241 627T193 553T145 343T192 131T332 55Q428 56 477 129T526 339T478 552T336 628ZM350 697Q476 697 555 611T634 353T552
84T318 -15Q186 -15 112 76T37 333T118 598T350 697Z" />
<glyph unicode="&#xd4;" glyph-name="Ocircumflex" horiz-adv-x="671" d="M350 697Q476 697 555 611T634 353T552 84T318 -15Q186 -15 112 76T37 333T118 598T350 697ZM428 56T477 129T526 339T478 552T336 628T193 553T145 343T192 131T332 55Q428 56 477 129ZM345
808L208 722Q188 733 175 756L312 880Q348 889 382 880L516 756Q501 732 482 722L345 808Z" />
<glyph unicode="&#xd5;" glyph-name="Otilde" horiz-adv-x="671" d="M185 817T213 849T277 881T354 853T421 824T464 838T486 875L517 866Q499 746 408 746Q370 746 327 772T265 798T231 785T210 752L177 764Q185 817 213 849ZM241 627T193 553T145 343T192 131T332
55Q428 56 477 129T526 339T478 552T336 628ZM350 697Q476 697 555 611T634 353T552 84T318 -15Q186 -15 112 76T37 333T118 598T350 697Z" />
<glyph unicode="&#xd6;" glyph-name="Odieresis" horiz-adv-x="671" d="M496 790T478 772T433 753T388 771T369 816T387 860T432 879T477 861T496 816ZM278 753T252 753T207 771T188 816T207 860T252 879T296 861T315 816T297 772ZM241 627T193 553T145 343T192
131T332 55Q428 56 477 129T526 339T478 552T336 628ZM350 697Q476 697 555 611T634 353T552 84T318 -15Q186 -15 112 76T37 333T118 598T350 697Z" />
<glyph unicode="&#xd7;" glyph-name="multiply" horiz-adv-x="437" d="M387 390L270 273L386 157L335 106L219 222L102 105L50 157L167 274L50 391L101 442L218 325L335 442L387 390Z" />
<glyph unicode="&#xd8;" glyph-name="Oslash" horiz-adv-x="694" d="M318 -15Q249 -15 194 11L177 -18L113 17L134 53Q39 142 37 320T118 598T350 697Q428 697 489 664L512 703L576 671L546 620Q634 529 634 356T552 84T318 -15ZM335 627Q241 627 193 553T145
347T186 142L446 589Q402 627 335 627ZM428 56T477 129T526 329T492 526L236 84Q276 55 332 55Q428 56 477 129Z" />
<glyph unicode="&#xd9;" glyph-name="Ugrave" horiz-adv-x="660" d="M394 728L191 837Q199 855 221 875T265 898L432 765Q421 741 394 728ZM468 682H646Q646 682 646 674Q646 627 607 623L572 621V276Q572 -15 323 -15Q206 -15 147 53T88 272V619L16 625Q10 682
54 682H267V674Q267 627 228 623L193 621L192 264Q192 155 226 105T338 55Q502 55 502 255L501 619L430 625Q424 682 468 682Z" />
<glyph unicode="&#xda;" glyph-name="Uacute" horiz-adv-x="660" d="M494 840L291 731Q265 743 254 768L420 901Q441 898 463 878T494 840ZM468 682H646Q646 682 646 674Q646 627 607 623L572 621V276Q572 -15 323 -15Q206 -15 147 53T88 272V619L16 625Q10 682
54 682H267V674Q267 627 228 623L193 621L192 264Q192 155 226 105T338 55Q502 55 502 255L501 619L430 625Q424 682 468 682Z" />
<glyph unicode="&#xdb;" glyph-name="Ucircumflex" horiz-adv-x="660" d="M468 682H646Q646 682 646 674Q646 627 607 623L572 621V276Q572 -15 323 -15Q206 -15 147 53T88 272V619L16 625Q10 682 54 682H267V674Q267 627 228 623L193 621L192 264Q192 155 226
105T338 55Q502 55 502 255L501 619L430 625Q424 682 468 682ZM334 808L197 722Q177 733 164 756L301 880Q337 889 371 880L505 756Q490 732 471 722L334 808Z" />
<glyph unicode="&#xdc;" glyph-name="Udieresis" horiz-adv-x="660" d="M485 790T467 772T422 753T377 771T358 816T377 860T422 879T466 861T485 816ZM267 753T241 753T196 771T177 816T196 860T241 879T285 861T304 816T286 772ZM468 682H646V674Q646 627 607
623L572 621V276Q572 -15 323 -15Q206 -15 147 53T88 272V619L16 625Q10 682 54 682H267V674Q267 627 228 623L193 621L192 264Q192 155 226 105T338 55Q502 55 502 255L501 619L430 625Q424 682 468 682Z" />
<glyph unicode="&#xdd;" glyph-name="Yacute" horiz-adv-x="619" d="M439 683H616Q616 683 616 676Q616 628 577 624L554 621L363 282V63H364L436 57Q442 0 397 0H183V8Q183 55 222 59L258 61V280L64 619L3 625Q-3 683 41 683H262V676Q262 640 241 628Q233 624
223 624L186 621H185L332 356L475 619L401 625Q395 683 439 683ZM483 840L280 731Q253 744 242 768L409 901Q430 898 452 878T483 840Z" />
<glyph unicode="&#xde;" glyph-name="Thorn" horiz-adv-x="592" d="M220 557H288Q414 557 481 504T549 353T474 200T266 145H220V63H221L293 57Q299 0 254 0H41V8Q41 55 80 59L115 61V619L43 625Q37 683 81 683H295V676Q295 640 274 628Q266 624 256 624L220 621V557ZM270
501H220V201H250Q342 201 390 240T439 354Q439 501 270 501Z" />
<glyph unicode="&#xdf;" glyph-name="germandbls" horiz-adv-x="635" d="M111 449Q111 588 173 655T346 723Q430 722 479 688T529 592Q529 532 479 487Q458 468 438 452Q388 412 388 385Q388 356 429 330Q450 316 490 296Q553 267 582 234T611 152Q611 85 561
35T426 -15Q364 -15 316 11T267 85Q267 115 288 132T338 149Q344 106 372 79T440 52T501 72T524 122T503 169T444 207T393 235T357 258T324 288Q296 324 296 361T310 424T346 468T388 504Q438 544 438 588Q438 655 351 655Q213 655 213 450V0H36V8Q36 32 43 40Q56
56 76 58L111 59V449Z" />
<glyph unicode="&#xe0;" glyph-name="agrave" horiz-adv-x="514" d="M501 40Q501 -15 429 -15T339 40Q274 -15 197 -15T78 21T36 122T84 228T241 270Q288 270 333 262V318Q333 445 234 445Q194 445 171 418T145 350Q111 347 89 362T66 408Q66 454 113 484T242
514T379 470T435 324V48L501 40ZM333 192Q293 209 246 209T171 189T144 133T165 76T233 56T333 93V192ZM172 715L339 582Q328 558 301 545L98 654Q106 672 128 692T172 715Z" />
<glyph unicode="&#xe1;" glyph-name="aacute" horiz-adv-x="514" d="M501 40Q501 -15 429 -15T339 40Q274 -15 197 -15T78 21T36 122T84 228T241 270Q288 270 333 262V318Q333 445 234 445Q194 445 171 418T145 350Q111 347 89 362T66 408Q66 454 113 484T242
514T379 470T435 324V48L501 40ZM333 192Q293 209 246 209T171 189T144 133T165 76T233 56T333 93V192ZM402 654L199 545Q172 558 161 582L328 715Q349 712 371 692T402 654Z" />
<glyph unicode="&#xe2;" glyph-name="acircumflex" horiz-adv-x="514" d="M501 40Q501 -15 429 -15T339 40Q274 -15 197 -15T78 21T36 122T84 228T241 270Q288 270 333 262V318Q333 445 234 445Q194 445 171 418T145 350Q111 347 89 362T66 408Q66 454 113 484T242
514T379 470T435 324V48L501 40ZM333 192Q293 209 246 209T171 189T144 133T165 76T233 56T333 93V192ZM242 626L104 539Q85 551 72 573L208 697Q245 706 279 697L413 573Q396 548 379 539L242 626Z" />
<glyph unicode="&#xe3;" glyph-name="atilde" horiz-adv-x="514" d="M501 40Q501 -15 429 -15T339 40Q274 -15 197 -15T78 21T36 122T84 228T241 270Q288 270 333 262V318Q333 445 234 445Q194 445 171 418T145 350Q111 347 89 362T66 408Q66 454 113 484T242
514T379 470T435 324V48L501 40ZM333 192Q293 209 246 209T171 189T144 133T165 76T233 56T333 93V192ZM384 688L415 678Q396 558 304 560Q266 561 223 587T162 614T128 602T106 570L73 583Q83 636 111 667T175 697T251 667T319 638Q370 637 384 688Z" />
<glyph unicode="&#xe4;" glyph-name="adieresis" horiz-adv-x="514" d="M501 40Q501 -15 429 -15T339 40Q274 -15 197 -15T78 21T36 122T84 228T241 270Q288 270 333 262V318Q333 445 234 445Q194 445 171 418T145 350Q111 347 89 362T66 408Q66 454 113 484T242
514T379 470T435 324V48L501 40ZM333 192Q293 209 246 209T171 189T144 133T165 76T233 56T333 93V192ZM175 570T149 570T104 588T85 633T104 677T149 696T193 678T212 633T194 589ZM393 607T375 589T330 570T285 588T266 632T285 677T330 696T374 678T393 633Z"
/>
<glyph unicode="&#xe5;" glyph-name="aring" horiz-adv-x="514" d="M501 40Q501 -15 429 -15T339 40Q274 -15 197 -15T78 21T36 122T84 228T241 270Q288 270 333 262V318Q333 445 234 445Q194 445 171 418T145 350Q111 347 89 362T66 408Q66 454 113 484T242 514T379
470T435 324V48L501 40ZM333 192Q293 209 246 209T171 189T144 133T165 76T233 56T333 93V192ZM338 596T312 571T244 546T177 570T152 634T178 699T246 725T314 701T339 636ZM245 678Q202 678 202 635Q202 615 213 603T245 591T277 603T289 635T277 666T245 678Z"
/>
<glyph unicode="&#xe6;" glyph-name="ae" horiz-adv-x="780" d="M333 318Q333 445 238 445Q192 445 169 417T145 350Q111 347 89 361T66 407Q66 453 114 483T238 514Q360 514 402 441Q465 514 564 514T707 455T749 306V252H441V233Q441 151 472 107T579 62T722
116Q739 104 739 80Q739 48 684 17T552 -15Q433 -15 377 66Q300 -15 191 -15Q121 -15 79 21T36 122T84 228T242 270Q284 270 333 261V318ZM333 191Q294 209 247 209T172 189T144 131Q144 56 227 56Q284 56 333 95V191ZM559 445Q468 445 447 312H649Q646 445 559
445Z" />
<glyph unicode="&#xe7;" glyph-name="ccedilla" horiz-adv-x="465" d="M280 514Q349 514 391 485T434 413T411 354T359 341Q358 381 335 412T266 443Q207 443 175 392T143 254Q143 63 291 63Q358 63 423 116Q431 111 436 100T441 80Q441 51 389 20T269 -15L262
-45Q303 -45 323 -65T344 -119T317 -176T245 -200T173 -172Q172 -161 176 -149T185 -134Q204 -150 238 -150T273 -118Q273 -101 259 -92T202 -83L221 -13Q134 -3 86 63T37 234Q36 361 102 437T280 514Z" />
<glyph unicode="&#xe8;" glyph-name="egrave" horiz-adv-x="484" d="M144 252V233Q144 150 176 106T282 62T425 116Q442 104 442 80Q442 48 387 17T255 -15Q152 -15 95 47T37 238T102 440T265 514T409 455T453 306V252H144ZM262 445Q171 445 150 312H352Q349 445
262 445ZM201 715L368 582Q357 558 330 545L127 654Q135 672 157 692T201 715Z" />
<glyph unicode="&#xe9;" glyph-name="eacute" horiz-adv-x="484" d="M144 252V233Q144 150 176 106T282 62T425 116Q442 104 442 80Q442 48 387 17T255 -15Q152 -15 95 47T37 238T102 440T265 514T409 455T453 306V252H144ZM262 445Q171 445 150 312H352Q349 445
262 445ZM430 654L227 545Q200 558 189 582L356 715Q377 712 399 692T430 654Z" />
<glyph unicode="&#xea;" glyph-name="ecircumflex" horiz-adv-x="484" d="M144 252V233Q144 150 176 106T282 62T425 116Q442 104 442 80Q442 48 387 17T255 -15Q152 -15 95 47T37 238T102 440T265 514T409 455T453 306V252H144ZM262 445Q171 445 150 312H352Q349
445 262 445ZM271 626L133 539Q114 551 101 573L237 697Q273 706 308 697L441 573Q427 550 408 539L271 626Z" />
<glyph unicode="&#xeb;" glyph-name="edieresis" horiz-adv-x="484" d="M144 252V233Q144 150 176 106T282 62T425 116Q442 104 442 80Q442 48 387 17T255 -15Q152 -15 95 47T37 238T102 440T265 514T409 455T453 306V252H144ZM262 445Q171 445 150 312H352Q349
445 262 445ZM204 570T178 570T133 588T114 633T133 677T178 696T222 678T241 633T223 589ZM422 607T404 589T359 570T314 588T295 632T313 677T358 696T403 678T422 633Z" />
<glyph unicode="&#xec;" glyph-name="igrave" horiz-adv-x="308" d="M249 0H38V8Q38 54 77 58L112 60V435L68 440Q36 443 36 494L214 514V62L287 56Q293 0 249 0ZM84 715L251 582Q240 558 213 545L10 654Q18 672 40 692T84 715Z" />
<glyph unicode="&#xed;" glyph-name="iacute" horiz-adv-x="308" d="M249 0H38V8Q38 54 77 58L112 60V435L68 440Q36 443 36 494L214 514V62L287 56Q293 0 249 0ZM314 654L111 545Q84 558 73 582L240 715Q261 712 283 692T314 654Z" />
<glyph unicode="&#xee;" glyph-name="icircumflex" horiz-adv-x="308" d="M191 697L324 573Q310 550 291 539L154 626L16 539Q-3 551 -16 573L120 697Q156 706 191 697ZM249 0H38V8Q38 54 77 58L112 60V435L68 440Q36 443 36 494L214 514V62L287 56Q293 0 249 0Z" />
<glyph unicode="&#xef;" glyph-name="idieresis" horiz-adv-x="308" d="M249 0H38V8Q38 54 77 58L112 60V435L68 440Q36 443 36 494L214 514V62L287 56Q293 0 249 0ZM124 659T124 633T106 589T61 570T16 588T-3 633T16 677T61 696T105 678ZM305 607T287 589T242
570T197 588T178 632T197 677T242 696T286 678T305 633Z" />
<glyph unicode="&#xf0;" glyph-name="eth" horiz-adv-x="541" d="M504 293Q504 153 436 69T251 -15Q152 -15 96 46T37 217T99 403T281 480Q327 480 363 466Q334 529 281 573L185 510L155 561L229 608Q176 638 118 647L149 702Q225 690 296 652L379 705L409 658L349
618Q504 504 504 293ZM255 62Q322 62 359 124T397 293Q397 327 392 362Q341 409 272 409Q199 409 169 350Q143 298 143 223T172 105T255 62Z" />
<glyph unicode="&#xf1;" glyph-name="ntilde" horiz-adv-x="636" d="M197 570L165 583Q174 636 202 667T266 697T343 667T410 638Q461 637 475 688L506 678Q489 558 395 560Q357 561 314 587T253 614T219 603T197 570ZM576 0H368V8Q368 54 407 58L442 60V311Q442
429 345 429Q305 429 276 417T214 375V62L285 56Q291 0 247 0H37V8Q37 32 44 40Q57 56 77 58L112 60V431L68 436Q36 439 36 490L198 510L207 443H210Q287 514 364 514T492 465T544 311V62L614 56Q620 0 576 0Z" />
<glyph unicode="&#xf2;" glyph-name="ograve" horiz-adv-x="529" d="M327 545L124 654Q132 672 154 692T198 715L365 582Q354 558 327 545ZM36 365T98 439T266 514T431 449T492 257T431 58T259 -15T93 50T37 240ZM207 446T175 392T143 247T174 104T263 51T354
103T386 245T355 391T266 447Z" />
<glyph unicode="&#xf3;" glyph-name="oacute" horiz-adv-x="529" d="M207 446T175 392T143 247T174 104T263 51T354 103T386 245T355 391T266 447ZM36 365T98 439T266 514T431 449T492 257T431 58T259 -15T93 50T37 240ZM428 654L225 545Q198 558 187 582L354
715Q375 712 397 692T428 654Z" />
<glyph unicode="&#xf4;" glyph-name="ocircumflex" horiz-adv-x="529" d="M36 365T98 439T266 514T431 449T492 257T431 58T259 -15T93 50T37 240ZM322 52T354 103T386 245T355 391T266 447T175 392T143 247T174 104T263 51ZM268 626L130 539Q111 551 98 573L234
697Q270 706 305 697L438 573Q424 550 405 539L268 626Z" />
<glyph unicode="&#xf5;" glyph-name="otilde" horiz-adv-x="529" d="M132 570L99 583Q109 636 137 667T201 697T277 667T343 638T386 651T409 688L441 678Q422 558 329 560Q291 561 249 587T188 614T154 602T132 570ZM207 446T175 392T143 247T174 104T263 51T354
103T386 245T355 391T266 447ZM36 365T98 439T266 514T431 449T492 257T431 58T259 -15T93 50T37 240Z" />
<glyph unicode="&#xf6;" glyph-name="odieresis" horiz-adv-x="529" d="M207 446T175 392T143 247T174 104T263 51T354 103T386 245T355 391T266 447ZM36 365T98 439T266 514T431 449T492 257T431 58T259 -15T93 50T37 240ZM419 607T401 589T356 570T311 588T292
632T311 677T356 696T400 678T419 633ZM201 570T175 570T130 588T111 633T130 677T175 696T219 678T238 633T220 589Z" />
<glyph unicode="&#xf7;" glyph-name="divide" horiz-adv-x="497" d="M278 371T249 371T200 391T179 441T199 490T249 510T298 490T318 441T298 392ZM278 40T249 40T200 60T179 109T199 158T249 179T298 159T318 109T298 60ZM50 310H447V239H50V310Z" />
<glyph unicode="&#xf8;" glyph-name="oslash" horiz-adv-x="529" d="M254 -15Q203 -15 164 0L152 -21L89 14L103 39Q37 105 37 235T98 439T274 514Q326 514 368 495L383 522L447 490L426 454Q492 387 492 259T431 58T254 -15ZM207 446T175 392T143 259T159 136L327
425Q300 447 265 447Q207 446 175 392ZM264 52Q322 52 354 103T386 232T370 357L205 70Q229 52 264 52Z" />
<glyph unicode="&#xf9;" glyph-name="ugrave" horiz-adv-x="590" d="M348 545L145 654Q153 672 175 692T219 715L386 582Q375 558 348 545ZM325 439V451Q325 475 331 482T340 492Q347 499 362 499H504V63L536 61Q566 60 566 6L432 -7L414 48Q343 -15 268 -15T139
35T86 192V437L12 439V448Q12 499 50 499H188V192Q188 64 293 64Q350 64 402 106V437L325 439Z" />
<glyph unicode="&#xfa;" glyph-name="uacute" horiz-adv-x="590" d="M325 439V451Q325 475 331 482T340 492Q347 499 362 499H504V63L536 61Q566 60 566 6L432 -7L414 48Q343 -15 268 -15T139 35T86 192V437L12 439V448Q12 499 50 499H188V192Q188 64 293 64Q350
64 402 106V437L325 439ZM448 654L245 545Q218 558 207 582L374 715Q395 712 417 692T448 654Z" />
<glyph unicode="&#xfb;" glyph-name="ucircumflex" horiz-adv-x="590" d="M325 439V451Q325 475 331 482T340 492Q347 499 362 499H504V63L536 61Q566 60 566 6L432 -7L414 48Q343 -15 268 -15T139 35T86 192V437L12 439V448Q12 499 50 499H188V192Q188 64 293
64Q350 64 402 106V437L325 439ZM288 625L151 539Q131 550 118 573L255 697Q291 706 325 697L459 573Q444 549 425 539L288 625Z" />
<glyph unicode="&#xfc;" glyph-name="udieresis" horiz-adv-x="590" d="M325 439V451Q325 475 331 482T340 492Q347 499 362 499H504V63L536 61Q566 60 566 6L432 -7L414 48Q343 -15 268 -15T139 35T86 192V437L12 439V448Q12 499 50 499H188V192Q188 64 293 64Q350
64 402 106V437L325 439ZM439 607T421 589T376 570T331 588T312 632T331 677T376 696T420 678T439 633ZM221 570T195 570T150 588T131 633T150 677T195 696T239 678T258 633T240 589Z" />
<glyph unicode="&#xfd;" glyph-name="yacute" horiz-adv-x="520" d="M380 499H519V490Q519 447 480 441L473 440L306 31H307Q253 -97 231 -134Q174 -227 106 -228Q67 -228 45 -209T22 -163T37 -120T72 -103T96 -105Q91 -118 96 -135T119 -153Q146 -153 179 -92T234
35L58 437H55L3 443Q-3 499 41 499H233V492Q233 449 194 441L173 439L285 157L393 437L342 443Q336 499 380 499ZM441 654L238 545Q211 558 200 582L367 715Q388 712 410 692T441 654Z" />
<glyph unicode="&#xfe;" glyph-name="thorn" horiz-adv-x="572" d="M189 455Q257 514 337 514T476 455T536 269T475 64T292 -15Q236 -15 189 6V-155L262 -161Q268 -217 223 -217H13V-210Q13 -163 52 -159L87 -157V629L40 635Q12 638 12 687L189 707V455ZM189 99Q241
56 306 56T400 111T429 251T397 387T306 438T189 386V99Z" />
<glyph unicode="&#xff;" glyph-name="ydieresis" horiz-adv-x="520" d="M380 499H519V490Q519 447 480 441L473 440L306 31H307Q253 -97 231 -134Q174 -227 106 -228Q67 -228 45 -209T22 -163T37 -120T72 -103T96 -105Q91 -118 96 -135T119 -153Q146 -153 179
-92T234 35L58 437H55L3 443Q-3 499 41 499H233V492Q233 449 194 441L173 439L285 157L393 437L342 443Q336 499 380 499ZM214 570T188 570T143 588T124 633T143 677T188 696T232 678T251 633T233 589ZM432 607T414 589T369 570T324 588T305 632T323 677T368 696T413
678T432 633Z" />
<glyph unicode="&#x2013;" glyph-name="endash" horiz-adv-x="517" d="M43 301H474V230H43V301Z" />
<glyph unicode="&#x2014;" glyph-name="emdash" horiz-adv-x="830" d="M43 302H787V231H43V302Z" />
<glyph unicode="&#x2018;" glyph-name="quoteleft" horiz-adv-x="230" d="M151 582T167 563T183 516T165 469T116 450T66 469T47 528T81 619T153 687Q159 691 169 682T179 666Q139 639 125 585Q151 582 167 563Z" />
<glyph unicode="&#x2019;" glyph-name="quoteright" horiz-adv-x="230" d="M47 651T65 669T114 688T164 669T183 610T149 519T77 451Q71 447 61 456T50 472Q89 500 105 553Q79 556 63 575T47 622Z" />
<glyph unicode="&#x201a;" glyph-name="quotesinglbase" horiz-adv-x="231" d="M84 122T115 122T165 103T184 42T150 -52T77 -121Q71 -124 61 -115T50 -100Q90 -72 105 -15Q79 -12 63 7T47 55T65 103Z" />
<glyph unicode="&#x201c;" glyph-name="quotedblleft" horiz-adv-x="384" d="M305 582T321 563T337 516T319 469T270 450T220 469T201 528T235 619T307 687Q313 691 323 682T333 666Q293 637 279 585Q305 582 321 563ZM151 582T167 563T183 516T165 469T116 450T66
469T47 528T81 619T153 687Q159 691 169 682T179 666Q139 639 125 585Q151 582 167 563Z" />
<glyph unicode="&#x201d;" glyph-name="quotedblright" horiz-adv-x="384" d="M201 651T219 669T268 688T318 669T337 609T303 518T230 451Q225 447 215 456T204 472Q243 500 259 553Q233 556 217 575T201 622ZM47 651T65 669T114 688T164 669T183 610T149 519T77
451Q71 447 61 456T50 472Q89 500 105 553Q79 556 63 575T47 622Z" />
<glyph unicode="&#x201e;" glyph-name="quotedblbase" horiz-adv-x="384" d="M201 84T219 102T268 121T318 102T337 42T303 -49T230 -117Q225 -120 215 -111T204 -96Q242 -68 259 -14Q233 -11 217 8T201 55ZM47 84T65 102T114 121T164 102T183 43T149 -49T77 -117Q71
-120 61 -111T50 -96Q88 -68 105 -14Q79 -11 63 8T47 55Z" />
<glyph unicode="&#x2022;" glyph-name="bullet" horiz-adv-x="470" d="M344 306T313 275T236 243T158 274T126 351T158 429T235 461T312 429T344 352Z" />
<glyph unicode="&#x2039;" glyph-name="guilsinglleft" horiz-adv-x="369" d="M341 440L168 252V244L345 57L294 15L50 222Q42 248 50 275L294 482L341 440Z" />
<glyph unicode="&#x203a;" glyph-name="guilsinglright" horiz-adv-x="369" d="M201 252L28 440L75 482L319 275Q327 248 319 222L75 15L24 57L201 244V252Z" />
</font>
</defs>
</svg>
