<?xml version="1.0" standalone="no"?>
<!DOCTYPE svg PUBLIC "-//W3C//DTD SVG 1.1//EN" "http://www.w3.org/Graphics/SVG/1.1/DTD/svg11.dtd">
<svg xmlns="http://www.w3.org/2000/svg">
<defs >
<font id="Astloch" horiz-adv-x="1034" ><font-face
    font-family="Astloch"
    units-per-em="2048"
    panose-1="2 0 5 5 2 0 0 2 0 4"
    ascent="1948"
    descent="-526"
    alphabetic="0" />
<glyph unicode=" " glyph-name="space" horiz-adv-x="500" />
<glyph unicode="!" glyph-name="exclam" horiz-adv-x="470" d="M326 1539V418H155V1539H326ZM296 -68L126 -57L155 336L326 325L296 -68Z" />
<glyph unicode="&quot;" glyph-name="quotedbl" horiz-adv-x="678" d="M403 1568H574V957H403V1568ZM104 1568H274V957H104V1568Z" />
<glyph unicode="#" glyph-name="numbersign" horiz-adv-x="1105" d="M824 888L791 625H980L958 454H771L728 122H558L600 454H431L389 122H219L261 454H69L91 625H281L314 888H124L145 1059H335L377 1390H548L506 1059H675L717 1390H887L845 1059H1034L1012 888H824ZM452
625H621L653 888H484L452 625Z" />
<glyph unicode="$" glyph-name="dollar" horiz-adv-x="983" d="M307 452Q289 427 289 402T298 354T324 310T362 272L463 190V582L362 506L56 882L394 1183L463 1098V1230H280Q296 1305 345 1362T463 1449V1616H623V1470Q735 1454 812 1368T889 1165Q890 1006 760
914Q720 886 673 871Q800 750 842 594Q856 542 856 487T842 374T800 262Q740 148 623 74V-134H463V1L282 132Q120 249 120 400Q120 488 197 578L307 452ZM554 858Q449 868 371 939L288 871L390 736L554 858ZM665 1049T691 1084T718 1164T692 1245T623 1294V1036Q665
1049 691 1084ZM623 300Q686 391 686 491Q686 581 623 663V300Z" />
<glyph unicode="%" glyph-name="percent" horiz-adv-x="1602" d="M1250 1271L413 -48L275 46L1115 1372L1250 1271ZM1313 969Q1532 825 1532 653V448Q1532 301 1409 208L1084 -34L966 24V533Q966 704 1089 798L1313 969ZM1190 661Q1137 619 1137 533V215L1308
340Q1362 379 1362 448V653Q1362 709 1314 757L1190 661ZM437 1397Q655 1254 655 1081V876Q655 802 636 762Q602 690 532 637L207 394L90 452V962Q90 1132 213 1226L437 1397ZM314 1089Q260 1046 260 962V644L432 769Q486 808 486 876V1081Q486 1137 438 1185L314
1089Z" />
<glyph unicode="&amp;" glyph-name="ampersand" horiz-adv-x="1033" d="M140 1098Q140 1271 263 1363H262L530 1568Q627 1503 666 1454Q749 1353 749 1252V1114Q749 943 640 859L455 718L636 475Q786 602 794 721Q796 758 796 800V912H966V825Q966 758 962 699T936
582Q889 459 739 336L768 298Q818 230 846 209Q897 171 965 171V0Q808 0 700 117Q666 153 631 197L606 229L299 -15Q80 123 80 302V475Q80 644 217 751Q140 872 140 977V1098ZM578 1252Q578 1311 533 1356L365 1226Q311 1183 311 1098V977Q312 941 328 912L357
859L525 987Q578 1029 578 1114V1252ZM319 615Q251 559 251 475V302Q251 245 296 198L505 366L319 615Z" />
<glyph unicode="&apos;" glyph-name="quotesingle" horiz-adv-x="379" d="M104 1567H275V956H104V1567Z" />
<glyph unicode="(" glyph-name="parenleft" horiz-adv-x="565" d="M464 -290Q272 -111 164 144Q61 388 61 646Q62 1041 288 1364Q364 1473 467 1566L582 1438Q324 1205 254 859Q232 752 232 644T254 426Q276 315 320 210Q411 -9 580 -166L464 -290Z" />
<glyph unicode=")" glyph-name="parenright" horiz-adv-x="565" d="M-15 -165Q238 73 310 426Q332 536 332 644T312 859T246 1068Q154 1284 -17 1438L98 1566Q398 1296 479 894Q504 770 504 645T478 392T402 144Q295 -110 102 -290L-15 -165Z" />
<glyph unicode="*" glyph-name="asterisk" horiz-adv-x="841" d="M150 990Q77 1030 77 1115Q76 1174 118 1216T220 1259Q243 1259 277 1247Q287 1297 325 1330T403 1363T466 1354T509 1329Q548 1296 558 1245Q588 1259 618 1259T675 1248Q700 1236 720 1216Q762
1174 763 1115Q763 1030 688 990Q763 947 763 864Q762 804 720 762T633 720T558 734Q548 685 518 661Q468 620 417 620T327 652T277 732Q249 721 220 721T164 732Q138 742 118 762Q76 804 76 876T150 990ZM381 1022Q195 1038 168 1086Q160 1100 160 1119T177 1155T213
1172T249 1163L273 1207Q247 1222 221 1222T176 1213T142 1189Q110 1156 110 1121Q110 1013 256 991Q314 982 381 975Q278 814 221 814Q196 814 180 831T164 877T192 922L166 964Q114 932 114 872Q114 827 137 804Q177 764 221 764Q254 764 288 787Q343 824 418
949Q478 824 478 761Q478 737 461 720T420 703Q396 703 379 720T362 761H312Q312 716 335 693Q375 653 408 653T462 661T496 684Q528 716 528 768T458 968Q650 949 674 904Q682 890 682 871T664 835T628 818T593 827L569 783Q593 768 619 768T666 777T700 801Q731
834 731 869Q731 939 686 965Q623 1000 457 1015Q554 1176 621 1176Q646 1176 662 1159T679 1114T652 1069L678 1027Q729 1060 729 1119Q729 1163 705 1186Q663 1226 628 1226T561 1207Q513 1179 424 1041Q362 1170 362 1230Q362 1255 379 1272T420 1289Q444 1289
461 1272T478 1230H528Q528 1276 505 1299Q465 1339 431 1339T378 1331T344 1308Q312 1276 312 1216T381 1022Z" />
<glyph unicode="+" glyph-name="plus" horiz-adv-x="1028" d="M428 779V1142H599V779H963V609H599V247H428V609H65V779H428Z" />
<glyph unicode="," glyph-name="comma" horiz-adv-x="395" d="M80 -199Q179 -43 179 23Q179 52 160 73T97 94V258Q273 258 318 128Q332 88 332 31Q332 -90 214 -275L80 -199Z" />
<glyph unicode="-" glyph-name="hyphen" horiz-adv-x="777" d="M107 656L671 798V623L107 481V656Z" />
<glyph unicode="." glyph-name="period" horiz-adv-x="383" d="M258 -68L88 -57L117 336L288 325L258 -68Z" />
<glyph unicode="/" glyph-name="slash" horiz-adv-x="914" d="M850 1502L204 -201L39 -158L692 1563L850 1502Z" />
<glyph unicode="0" glyph-name="zero" horiz-adv-x="826" d="M515 1230Q734 1086 734 914V461Q734 290 611 196L310 -30Q208 36 168 85Q92 179 92 285V738Q92 908 215 1003L515 1230ZM563 914Q563 971 517 1019L317 866Q263 825 263 738V285Q263 227 309 181L509
333Q563 376 563 461V914Z" />
<glyph unicode="1" glyph-name="one" horiz-adv-x="608" d="M234 43Q303 200 303 448V969L258 934Q194 882 178 779L6 778Q23 934 98 1016Q122 1042 149 1064L371 1230L474 1177V448Q474 249 447 145T390 -30L234 43Z" />
<glyph unicode="2" glyph-name="two" horiz-adv-x="998" d="M326 1031Q407 983 407 889Q407 820 358 771T240 722Q170 722 122 771Q74 821 74 891T104 1024Q132 1086 188 1132Q307 1230 501 1229Q670 1230 778 1148Q899 1057 899 896Q899 725 722 597Q670 560
616 526L507 459Q382 384 335 329T271 225Q349 225 443 206Q621 170 703 170Q725 170 741 184T757 221T741 260T703 276L704 446Q796 446 863 380Q929 315 929 222Q929 128 863 64T704 0Q650 0 558 19Q385 55 273 55L295 0H111Q82 90 82 159T110 292T183 407T287
500Q346 542 406 578L524 650Q651 726 701 800Q729 842 729 894T707 978Q684 1009 650 1027Q589 1059 515 1059Q374 1059 326 1031Z" />
<glyph unicode="3" glyph-name="three" horiz-adv-x="911" d="M268 1025Q340 973 340 889Q340 820 291 771T173 722T56 771Q8 821 9 895T43 1032Q76 1094 132 1138Q246 1228 420 1228Q618 1228 736 1108Q844 998 844 847Q844 653 693 533Q844 457 844 253Q844
-24 412 -233Q282 -296 132 -353L70 -195Q360 -83 500 11Q674 129 674 253Q674 378 545 404Q505 412 457 414Q434 406 398 396L314 373L271 537Q572 620 646 744Q674 790 674 838T658 924T609 992Q537 1058 420 1058Q328 1058 268 1025Z" />
<glyph unicode="4" glyph-name="four" horiz-adv-x="901" d="M16 304Q16 391 62 491L443 1247Q628 1170 686 1034Q706 986 706 927V367H888V197H703Q692 4 628 -114Q540 -274 339 -334L296 -169Q484 -114 520 82Q530 138 533 197H16V304ZM514 1009Q205 394 197
367H535V927Q535 977 514 1009Z" />
<glyph unicode="5" glyph-name="five" horiz-adv-x="855" d="M386 725Q693 725 784 534Q817 465 817 357T759 147Q700 45 596 -44Q395 -215 29 -352L-35 -192Q270 -89 454 57Q646 210 646 365Q646 462 568 512Q499 556 386 555H43L131 1230H727V1060H283L236 725H386Z" />
<glyph unicode="6" glyph-name="six" horiz-adv-x="807" d="M319 0Q102 140 102 315V992Q102 1150 220 1304Q338 1459 542 1567L626 1418Q374 1283 296 1103Q272 1046 272 992V936L521 1122Q620 1055 658 1008Q740 908 740 807V485Q740 311 617 220L319 0ZM327
764Q272 722 272 648V315Q272 258 319 211L515 358Q569 399 569 485V807Q569 863 521 911L327 764Z" />
<glyph unicode="7" glyph-name="seven" horiz-adv-x="835" d="M-28 1048Q42 1138 102 1171Q208 1230 319 1230H815Q820 909 687 660Q648 589 608 522L530 387Q445 237 419 108T393 -101T396 -240L402 -352H232Q232 -338 230 -314L226 -264Q222 -204 222 -130T240
47T287 237T352 398Q389 474 428 540L504 668Q588 809 613 897T640 1060H319Q251 1060 204 1032T114 952L-28 1048Z" />
<glyph unicode="8" glyph-name="eight" horiz-adv-x="879" d="M700 915Q792 823 792 696V507Q792 336 669 242L310 -29Q208 33 167 85Q90 181 90 286V475Q90 637 199 729Q118 820 118 938V1074Q118 1243 241 1339L541 1566Q635 1502 676 1453Q759 1353 759 1250V1114Q759
995 700 915ZM621 696Q621 755 576 800L314 602Q261 564 261 475V286Q261 227 306 182L568 379Q621 419 621 507V696ZM588 1250Q588 1310 542 1354L342 1202Q288 1161 288 1074V938Q288 880 334 834L534 987Q588 1028 588 1114V1250Z" />
<glyph unicode="9" glyph-name="nine" horiz-adv-x="813" d="M306 108Q87 246 87 423V745Q87 919 210 1010L508 1230Q602 1167 642 1118Q725 1019 725 915V223Q725 64 607 -90Q489 -245 285 -352L201 -203Q362 -118 460 0Q555 115 555 223V294L306 108ZM500 466Q555
508 555 582V915Q555 972 508 1019L312 872Q258 831 258 745V423Q258 367 306 319L500 466Z" />
<glyph unicode=":" glyph-name="colon" horiz-adv-x="496" d="M255 -27L97 25L216 308L393 236L255 -27ZM254 642L96 694L215 977L392 905L254 642Z" />
<glyph unicode=";" glyph-name="semicolon" horiz-adv-x="491" d="M267 642L109 694L227 977L404 905L267 642ZM104 -136Q203 20 203 86Q203 115 184 136T121 157V321Q297 320 342 190Q356 150 356 94Q356 -27 238 -212L104 -136Z" />
<glyph unicode="&lt;" glyph-name="less" horiz-adv-x="849" d="M648 -251L45 663L651 1558L794 1464L249 662L790 -158L648 -251Z" />
<glyph unicode="=" glyph-name="equal" horiz-adv-x="1128" d="M115 447V607H1013V447H115ZM115 740V900H1013V740H115Z" />
<glyph unicode="&gt;" glyph-name="greater" horiz-adv-x="850" d="M58 -159Q58 -159 358 296V295L601 662L56 1464L199 1558L805 663L200 -252L58 -159Z" />
<glyph unicode="?" glyph-name="question" horiz-adv-x="886" d="M520 -68L349 -57L379 336L550 325L520 -68ZM235 1245Q235 1155 332 1155V985Q148 986 85 1130Q64 1178 64 1242T92 1364Q118 1423 168 1468Q277 1567 440 1567Q605 1567 712 1464Q817 1363 817
1214Q817 1022 632 902Q580 868 536 844L459 801Q387 760 366 726T345 666T353 619T377 584Q409 552 455 552Q500 552 524 576Q564 616 565 662H731Q731 547 649 465T452 383Q337 383 256 464T174 661Q174 828 348 934Q396 964 440 986T520 1032T584 1084Q647 1146
647 1214Q647 1288 590 1341Q531 1396 440 1396Q350 1396 290 1349Q234 1305 235 1245Z" />
<glyph unicode="@" glyph-name="at" horiz-adv-x="1558" d="M1029 117Q906 71 794 71T591 96T422 168T278 279T167 422Q70 588 70 780Q70 972 167 1138Q312 1386 590 1464Q680 1490 779 1489Q970 1489 1136 1392Q1384 1246 1462 968Q1488 878 1488 790T1472 629T1425
489Q1366 358 1256 256Q1123 283 1062 322T964 400T892 494L690 343Q529 372 470 489Q449 531 449 587V787Q449 989 596 1099L878 1313Q830 1322 749 1322T569 1280Q472 1238 398 1164Q240 1006 239 781Q239 558 397 400T779 241Q877 241 968 275L1029 117ZM1203
446Q1320 593 1320 781Q1320 938 1235 1072Q1154 1200 1015 1268V714Q1016 537 1136 472Q1170 454 1203 446ZM619 587Q619 548 651 530L845 675V1078L705 969Q619 902 619 787V587Z" />
<glyph unicode="A" glyph-name="A" horiz-adv-x="1554" d="M552 1393Q322 1393 322 1259Q322 1191 392 1118Q422 1087 456 1056T520 986Q590 896 589 792Q589 697 524 632T363 566Q270 566 206 632Q141 698 141 792Q141 902 230 970Q257 990 290 1002Q222 1052
197 1089Q147 1163 147 1244T170 1382Q194 1439 242 1480Q345 1567 552 1567Q886 1566 1002 1340Q1042 1260 1042 1168T1028 1011T988 885T931 768L866 659L928 596L1073 697V1167Q1074 1341 1194 1456Q1310 1567 1480 1567V1394Q1354 1394 1294 1306Q1242 1230
1243 1101V398Q1242 279 1374 176Q1414 145 1460 114L1360 -30Q1220 65 1170 130Q1073 255 1073 393V496L915 380L763 519Q568 274 334 76Q260 14 196 -30L68 89Q384 316 610 588Q874 906 874 1143Q874 1316 692 1374Q632 1394 552 1393ZM342 844T327 828T311 790T326
752T364 736T403 751T419 789T403 828T365 844Z" />
<glyph unicode="B" glyph-name="B" horiz-adv-x="1719" d="M513 296Q527 263 527 220T510 136T462 65Q396 0 303 0T145 65T80 212T111 342T196 418Q293 468 480 467Q618 558 698 712Q776 862 776 1030Q776 1166 700 1276Q620 1392 513 1393Q430 1393 389 1356T347
1267T367 1183T416 1118T480 1056Q514 1024 544 986Q614 896 614 792Q614 697 549 632T388 566Q295 566 231 632Q166 698 166 792Q166 902 255 970Q282 990 315 1002Q247 1052 222 1089Q172 1163 172 1244T194 1382T258 1480Q348 1567 513 1567Q610 1567 691 1517T832
1386Q909 1567 1089 1567Q1219 1568 1294 1426Q1316 1386 1330 1355L1354 1302Q1391 1226 1419 1226Q1444 1226 1457 1254Q1476 1295 1492 1356L1662 1314Q1620 1119 1496 1063L1335 990Q1573 781 1573 514Q1573 305 1439 159Q1293 0 1047 0Q851 0 726 129L660
196Q581 276 513 296ZM1156 907L910 794Q858 640 713 492Q669 447 623 411Q664 396 722 351L816 278Q950 174 1043 174T1201 203T1310 280Q1399 376 1399 514Q1399 642 1312 758Q1251 840 1156 907ZM1072 1393Q1050 1393 1029 1376T994 1329T972 1260Q963 1222
958 1178Q950 1108 950 1005L1246 1142Q1223 1171 1208 1204L1154 1316Q1118 1393 1072 1393ZM279 280T264 264T248 226T263 188T301 172T340 187T356 225T340 264T302 280ZM367 844T352 828T336 790T351 752T389 736T428 751T444 789T428 828T390 844Z" />
<glyph unicode="C" glyph-name="C" horiz-adv-x="1566" d="M1204 1138Q1112 1138 1055 1213Q1042 1114 934 1026Q888 988 836 954Q786 921 742 885Q642 802 641 711Q641 610 765 571Q810 557 876 557V383Q664 383 556 489Q466 577 466 711Q466 875 600 994Q638
1028 678 1058L756 1114Q890 1207 891 1291V1383Q865 1388 834 1390L781 1392Q580 1386 430 1218Q329 1106 287 938Q266 854 266 739T302 515Q337 408 405 332Q546 176 803 175Q1066 174 1244 392Q1309 471 1339 548L1501 484Q1434 316 1278 178Q1076 0 803 0Q444
0 257 224Q91 424 91 758Q91 1123 303 1351Q504 1567 781 1567Q898 1567 1004 1526Q1042 1511 1069 1489Q1113 1313 1202 1313T1331 1492L1502 1459Q1448 1210 1296 1154Q1250 1138 1204 1138Z" />
<glyph unicode="D" glyph-name="D" horiz-adv-x="1724" d="M542 317Q563 273 563 225T546 136T498 65Q432 0 339 0T181 65T116 207T144 330Q172 376 218 408Q311 472 416 472T585 451T703 396T802 324T892 252Q995 175 1081 175T1240 218Q1310 260 1362 331Q1470
481 1471 688Q1470 901 1296 1103Q1188 1230 1034 1310Q958 1350 876 1371L588 1095Q622 1045 686 1004L785 942Q909 862 909 734Q908 639 842 574Q778 511 685 511T527 576T462 741T544 908Q466 958 438 993Q385 1060 385 1141L645 1391Q470 1377 365 1294Q264
1214 264 1101Q264 1053 292 1011T381 947V762Q238 791 157 902Q89 995 89 1096T131 1284T254 1433Q424 1568 702 1568Q949 1568 1176 1432Q1385 1307 1515 1102T1645 688Q1646 406 1488 208Q1323 1 1070 1Q907 2 766 130L690 200Q596 289 542 317ZM662 788T647
772T631 734T646 696T684 680T723 695T739 733T723 772T685 788ZM316 280T301 264T285 226T300 188T338 172T377 187T393 225T377 264T339 280Z" />
<glyph unicode="E" glyph-name="E" horiz-adv-x="1530" d="M1038 785Q1086 706 1086 624T1062 486T996 388Q905 298 779 299Q652 299 563 388T473 605Q473 698 525 775L663 673Q645 643 645 610T655 553T684 511Q723 472 778 472Q834 472 873 511T912 597T894
677T847 737T782 786L713 828Q600 890 559 932Q477 1016 477 1118Q477 1216 548 1298Q575 1330 575 1354Q575 1393 528 1393T435 1356T353 1242Q272 1070 272 776Q272 482 429 318Q568 173 781 173Q972 172 1117 314Q1228 422 1299 607L1461 543Q1378 321 1226
177Q1040 -1 781 -1Q500 0 310 186Q98 395 97 776Q97 1153 234 1373Q295 1471 371 1519T526 1567Q643 1567 703 1491L805 1617Q869 1414 950 1341Q980 1314 1012 1314T1068 1330Q1092 1346 1109 1376Q1144 1437 1144 1537H1318Q1318 1360 1238 1252Q1154 1139 1003
1139T754 1275L682 1187Q652 1149 652 1123T664 1079T696 1044Q717 1028 743 1012L850 951Q876 936 902 918Q938 995 974 1026Q1039 1081 1119 1081Q1194 1081 1262 1024V1131H1432Q1432 993 1414 943T1365 868T1291 843T1228 853Q1210 863 1196 875L1170 897Q1158
907 1139 907T1105 897T1077 869Q1058 842 1038 785Z" />
<glyph unicode="F" glyph-name="F" horiz-adv-x="1573" d="M293 194Q293 298 383 396Q266 424 225 539Q212 575 212 629T247 736T339 817Q220 853 146 954Q70 1056 71 1183Q71 1342 183 1454T455 1567Q602 1568 780 1422L880 1344Q1005 1251 1102 1227Q1071 1280
1071 1334T1088 1430Q1106 1472 1136 1502Q1200 1568 1294 1567Q1387 1567 1452 1502T1518 1354T1485 1218T1397 1126Q1288 1050 1139 1051H1118Q1108 1051 1099 1053Q966 962 916 828Q900 786 900 752T909 693Q993 886 1104 886Q1147 886 1188 866T1250 834T1288
816L1192 922L1310 1048L1374 988Q1433 930 1447 891T1461 815T1448 749T1412 699Q1367 658 1317 658T1240 666T1194 685L1158 704Q1142 712 1125 712T1090 699T1057 662Q1022 607 1015 532L1086 453Q1155 373 1172 315T1190 188T1160 41T1072 -95Q949 -219 735
-219Q553 -220 426 -110Q293 4 293 194ZM740 743Q740 959 923 1110Q901 1122 880 1136T838 1164Q832 1034 750 936Q669 839 545 809Q597 780 628 730T660 616V606Q660 484 558 366Q501 299 484 259T466 174T488 88Q510 46 546 16Q621 -46 735 -46Q868 -46 944 28Q1016
98 1017 207Q1017 279 945 360Q914 395 879 431T812 513Q740 618 740 743ZM246 1183Q246 1097 307 1036T455 974Q541 974 602 1035T664 1183Q664 1269 603 1330T455 1392Q369 1392 308 1331T246 1183ZM413 668T398 652T382 614T397 576T435 560T474 575T490 613T474
652T436 668ZM1271 1397T1256 1381T1240 1343T1255 1305T1293 1289T1332 1304T1348 1342T1332 1381T1294 1397Z" />
<glyph unicode="G" glyph-name="G" horiz-adv-x="1702" d="M458 1503Q573 1567 702 1567T919 1515Q1041 1567 1199 1567V1393Q1093 1393 1047 1380Q1103 1266 1103 1083H929Q929 1229 902 1285Q859 1229 859 1182T868 1104T892 1046Q906 1018 926 991L967 937L1536
1380L1640 1241L1419 1069Q1573 879 1573 632Q1573 360 1390 184Q1198 0 876 0Q488 0 277 241Q89 455 89 769Q89 1100 261 1330Q343 1440 458 1503ZM1070 800Q1161 649 1164 507Q1164 412 1099 347T938 281Q845 280 781 346Q716 412 716 507Q716 594 774 658T920
728Q884 775 842 822Q802 868 766 920Q684 1041 684 1163T762 1389Q739 1393 713 1393Q516 1393 387 1207Q263 1028 263 770Q264 534 410 364Q511 246 682 198Q769 174 884 174T1098 210Q1195 248 1262 310Q1399 438 1399 632Q1399 821 1281 965L1070 800ZM917
559T902 543T886 505T901 467T939 451T978 466T994 504T978 543T940 559Z" />
<glyph unicode="H" glyph-name="H" horiz-adv-x="1433" d="M1128 1399Q1128 1399 1068 1382Q1014 1367 1000 1346T986 1304T995 1261T1020 1216T1056 1169Q1056 1169 1186 1020Q1354 822 1355 585Q1356 349 1214 196Q1091 63 859 -5Q688 76 591 88Q553 92 512
92T442 82Q414 72 396 56Q360 23 359 -25Q358 -70 382 -94Q422 -134 469 -135V-301Q354 -301 272 -219T190 -22Q190 51 223 111T314 210Q193 242 114 344T34 578H212Q212 492 273 431T420 370Q504 370 566 428Q628 487 628 569Q628 694 504 800Q470 830 430 861T348
928T274 1007Q202 1102 202 1226Q202 1442 507 1574L579 1423Q467 1367 436 1339Q377 1286 377 1238T391 1158Q404 1126 428 1098Q464 1055 521 1010L618 932Q658 898 688 867L925 1050L881 1108Q811 1203 811 1306T882 1472T1086 1568L1128 1399ZM779 716Q802
642 801 559T754 393T629 259Q735 245 869 180Q1181 287 1181 585Q1181 755 1046 921L779 716Z" />
<glyph unicode="I" glyph-name="I" horiz-adv-x="1643" d="M1380 1089T1313 1070T1164 1051T985 1092L828 968Q851 916 882 870L1009 686Q1119 521 1119 356Q1119 258 1072 180Q1085 176 1105 175L1136 174Q1148 174 1173 174T1236 189T1302 234Q1364 296 1364
382Q1364 468 1302 530T1153 591V766Q1312 766 1424 654T1537 382Q1536 222 1424 111Q1311 -1 1153 -1Q958 -1 756 157Q632 254 558 284T430 315T348 305Q322 294 304 280Q272 253 272 227T285 186T323 170V0Q230 0 166 66Q101 132 101 226Q100 330 176 404Q264
490 415 489Q621 488 812 340L917 261Q945 304 945 365T923 482T868 587T796 682T724 781Q647 905 647 1047L824 1187Q792 1210 752 1245Q714 1280 670 1313Q565 1393 503 1393T400 1372Q358 1352 330 1320Q270 1254 270 1191T290 1090T346 1026Q417 974 536 974V800Q338
800 220 896Q96 997 96 1178Q96 1319 204 1437Q322 1567 492 1567Q656 1568 836 1408Q950 1307 1015 1271T1139 1227Q1108 1280 1108 1334T1126 1430Q1143 1472 1173 1502Q1237 1568 1331 1567Q1424 1567 1489 1502T1555 1354T1522 1218T1434 1127ZM1308 1397T1293
1381T1277 1343T1292 1305T1330 1289T1369 1304T1385 1342T1369 1381T1331 1397Z" />
<glyph unicode="J" glyph-name="J" horiz-adv-x="1688" d="M1125 802Q1215 888 1215 950Q1214 1010 1172 1052T1071 1093Q1012 1093 971 1052T929 956T944 857T986 767T1045 679L1113 592H1112L1196 484Q1344 287 1345 94Q1345 -52 1248 -149Q1142 -255 970 -255Q768
-256 644 -94Q585 -17 541 67T469 192Q456 108 394 54Q331 0 246 0Q153 0 89 66Q24 132 24 226V244Q30 335 101 396Q178 462 300 462Q487 462 603 290Q636 240 666 190L726 91Q830 -81 973 -81Q1062 -82 1118 -28Q1170 21 1170 85T1153 201T1109 300T1046 395L894
590Q807 705 781 792T755 959T795 1110T907 1223L841 1278Q705 1392 621 1393Q526 1392 460 1320Q400 1254 400 1191T420 1090Q438 1052 474 1026Q545 974 665 974V800Q468 800 350 896Q226 997 225 1178Q224 1319 332 1437Q450 1567 621 1567Q785 1568 965 1408Q1079
1307 1144 1271T1268 1227Q1237 1280 1237 1334T1254 1430Q1272 1472 1302 1502Q1366 1568 1460 1567Q1553 1567 1618 1502T1684 1359T1658 1231Q1632 1181 1588 1145Q1500 1072 1371 1055Q1389 997 1389 939T1350 811T1243 676L1125 802ZM225 278T210 262T194
224T209 186T247 170T286 185T302 223T286 262T248 278ZM1437 1397T1422 1381T1406 1343T1421 1305T1459 1289T1498 1304T1514 1342T1498 1381T1460 1397Z" />
<glyph unicode="K" glyph-name="K" horiz-adv-x="1450" d="M737 670Q805 548 805 438T779 250T701 116Q594 -1 401 0Q265 0 158 89Q34 192 34 369Q34 494 114 567Q184 631 274 631Q360 630 422 550Q484 469 484 356H310Q310 397 299 426T274 456Q251 456 230 435T209
367T228 282Q248 246 276 222Q333 174 394 174T497 192T570 242Q632 310 631 420Q630 526 538 656L485 731H486L418 826Q300 998 299 1170Q298 1367 414 1471Q521 1567 708 1567Q854 1567 952 1486Q1055 1401 1055 1261Q1055 1191 1015 1115L1075 1163Q1128 1207
1128 1267Q1128 1297 1088 1390L1249 1456Q1303 1333 1303 1279T1292 1188T1262 1120Q1231 1065 1199 1038Q1168 1011 1148 996L1108 966Q1139 920 1150 849L1235 294Q1252 181 1393 114L1318 -44Q1099 56 1062 268L978 823Q975 844 971 856L737 670ZM638 815L777
925L700 1025L758 1074Q880 1177 881 1263Q882 1353 774 1384Q742 1393 699 1393T612 1379T537 1336Q473 1277 473 1167Q472 1045 570 907L626 831Q631 823 633 823L638 815ZM971 856H970H971Z" />
<glyph unicode="L" glyph-name="L" horiz-adv-x="1513" d="M248 473Q212 528 212 585T228 681T272 750Q331 813 420 819L377 891Q298 1020 298 1166Q298 1340 420 1453Q545 1568 743 1568Q936 1568 1048 1424Q1148 1295 1148 1105H973Q974 1222 916 1304Q852 1394
743 1394Q622 1394 546 1330Q472 1266 472 1166Q472 1084 521 988Q542 946 566 904T611 816Q660 708 660 605T593 437Q663 403 733 351L841 271Q977 173 1107 173Q1193 173 1254 234T1316 382Q1316 468 1254 530T1105 591V766Q1264 766 1376 654T1489 382Q1488
222 1376 111Q1263 -1 1105 -1Q893 -1 696 157Q575 254 505 284T381 315T300 305Q274 294 256 280Q224 253 224 227T237 186T275 170V0Q182 0 118 66Q53 132 53 226Q53 352 161 431Q198 458 248 473ZM413 650T398 634T382 596T397 558T435 542T474 557T490 595T474
634T436 650Z" />
<glyph unicode="M" glyph-name="M" horiz-adv-x="2329" d="M1031 143Q953 143 821 -33L696 62Q784 200 886 267Q962 318 1031 318Q1151 318 1182 220Q1344 486 1394 808Q1408 902 1408 994T1401 1164Q1394 1242 1376 1292Q1341 1392 1255 1392Q1134 1392 1006
1254Q970 1216 940 1179Q971 1076 971 991T965 844T941 714T895 565T819 394Q722 201 557 -28L438 18Q438 85 420 114T375 143Q307 143 167 -40L29 65Q220 318 377 318Q492 318 529 223Q797 623 797 960Q797 1142 707 1272Q622 1394 514 1393Q431 1393 390 1356T348
1267T368 1183T417 1118T481 1056T546 986Q616 896 615 792Q615 697 550 632T389 566Q296 566 232 632Q167 698 167 792Q167 902 256 970Q283 990 316 1002Q248 1052 223 1089Q173 1163 173 1244T195 1382Q218 1439 260 1480Q350 1567 514 1567Q612 1567 702 1516T858
1371Q1039 1567 1255 1567Q1348 1567 1404 1537T1499 1442Q1568 1503 1610 1525Q1693 1567 1782 1567T1927 1514T1999 1369Q2014 1267 2034 1238T2077 1203Q2118 1239 2118 1327H2293Q2292 1156 2178 1064L2101 1004Q1960 899 1908 698Q1890 626 1890 533T1917
369Q1944 300 1986 256Q2066 174 2180 174V0Q1999 0 1870 123Q1715 271 1715 549Q1715 880 1938 1093Q1890 1125 1872 1171T1848 1247L1835 1304Q1824 1355 1806 1373T1750 1392Q1677 1392 1560 1263Q1582 1131 1582 1003T1564 756Q1546 638 1502 508Q1406 221
1209 -28L1089 17Q1089 143 1031 143ZM368 844T353 828T337 790T352 752T390 736T429 751T445 789T429 828T391 844Z" />
<glyph unicode="N" glyph-name="N" horiz-adv-x="1729" d="M384 318Q490 318 539 232Q804 628 804 960Q804 1147 716 1272Q630 1393 504 1393Q423 1393 382 1356T341 1267T361 1183T410 1118T474 1056Q508 1024 538 986Q608 896 608 792Q608 697 543 632T382 566Q289
566 225 632Q160 698 160 792Q160 902 249 970Q276 990 309 1002Q241 1052 216 1089Q166 1163 166 1244T187 1382T252 1480Q343 1567 504 1567Q776 1567 921 1254L1145 763Q1183 997 1366 1220Q1474 1351 1505 1425T1536 1568H1710Q1710 1386 1582 1225L1508 1132Q1409
1007 1376 931Q1307 777 1307 628T1334 396Q1362 314 1404 264Q1482 174 1597 174V0Q1394 0 1268 136Q1222 185 1189 256L959 757Q898 432 564 -28L445 18Q446 113 416 134Q404 143 382 143Q309 143 178 -29L39 77Q192 279 314 309Q350 318 384 318ZM361 844T346
828T330 790T345 752T383 736T422 751T438 789T422 828T384 844Z" />
<glyph unicode="O" glyph-name="O" horiz-adv-x="1657" d="M194 714Q194 676 220 650T284 624Q322 624 348 650T375 717T361 793T326 859T280 922Q256 952 234 988Q184 1070 184 1169T227 1342T349 1467Q509 1568 787 1568Q1002 1568 1185 1462Q1364 1358 1468
1182Q1576 1000 1576 786Q1576 572 1469 389Q1365 211 1187 107Q1004 0 790 0Q526 0 308 176Q238 232 181 301L318 412Q411 302 532 238T763 174T952 196T1098 257T1222 353T1318 477Q1402 620 1402 766T1354 1024Q1306 1134 1222 1216Q1042 1394 787 1394Q478
1394 389 1273Q358 1231 358 1180T372 1095T407 1031T453 971T499 904Q548 818 548 712Q548 603 472 527T286 450Q176 450 100 528T24 714H194Z" />
<glyph unicode="P" glyph-name="P" horiz-adv-x="1594" d="M731 282Q575 266 426 117L300 236Q408 340 481 379Q606 447 731 462V1073Q732 1217 638 1309Q553 1393 455 1393T316 1356T274 1267T294 1183T343 1118T407 1056T472 986Q542 896 541 792Q541 697 476
632T315 566Q222 566 158 632Q93 698 93 792Q93 902 182 970Q209 990 242 1002Q174 1052 149 1089Q99 1163 99 1244T121 1382Q144 1439 186 1480Q276 1567 440 1567Q572 1568 690 1488Q815 1403 865 1267L1245 1566L1350 1360Q1449 1169 1472 1058T1496 854T1484
697T1450 582Q1419 507 1374 447T1311 361T1274 302Q1228 223 1184 119Q1106 182 1038 226T906 282V128Q906 -229 690 -325Q630 -352 562 -352H553Q460 -352 396 -286Q331 -220 331 -126Q331 -34 396 31T553 96Q672 96 723 -8Q731 20 731 82V282ZM906 459Q1017
446 1120 386L1155 440L1240 565Q1322 691 1322 847Q1322 982 1296 1060Q1269 1138 1244 1188L1188 1300L906 1077V459ZM532 -74T517 -90T501 -128T516 -166T554 -182T593 -167T609 -129T593 -90T555 -74ZM294 844T279 828T263 790T278 752T316 736T355 751T371
789T355 828T317 844Z" />
<glyph unicode="Q" glyph-name="Q" horiz-adv-x="1658" d="M1249 380Q1403 553 1403 786Q1402 1038 1222 1216T788 1394Q479 1394 390 1273Q359 1231 359 1180T373 1095T408 1031T454 971T500 904Q549 818 549 712Q549 603 473 527T287 450Q178 450 102 528T25
714H195Q195 676 221 650T285 624Q323 624 349 650T376 717T362 793T327 859T281 921T234 988Q184 1070 184 1169T228 1342T350 1467Q510 1568 788 1568Q1003 1568 1186 1462Q1366 1358 1470 1182Q1578 1000 1577 786Q1577 469 1359 242Q1408 170 1452 95Q1496
20 1538 -40Q1635 -178 1722 -178T1892 -97L2032 -204Q1892 -352 1715 -352Q1560 -352 1424 -190Q1354 -106 1301 -16L1215 124Q1025 0 791 0Q528 0 310 176Q240 232 182 301L319 412Q412 302 533 238T766 174Q965 174 1112 265Q992 393 851 271L728 396Q849 506
988 506T1249 380Z" />
<glyph unicode="R" glyph-name="R" horiz-adv-x="1693" d="M798 1386Q875 1567 1055 1567Q1185 1568 1260 1426Q1282 1386 1296 1355L1320 1302Q1357 1226 1385 1226Q1410 1226 1423 1254Q1442 1295 1458 1356L1628 1314Q1586 1119 1462 1063L1312 995Q1352 965
1365 886L1451 308Q1468 195 1609 128L1534 -30Q1309 73 1278 281L1195 848Q1186 908 1151 921L913 813Q896 504 770 270Q675 92 514 18Q431 -20 355 -20T239 -4T168 44Q103 110 103 202Q103 296 168 362Q232 428 326 427Q444 427 512 328Q532 298 542 262Q693
436 731 818Q742 928 742 1011T722 1160Q702 1224 666 1276Q586 1392 479 1393Q396 1393 355 1356T313 1267T333 1183T382 1118T446 1056Q480 1024 510 986Q580 896 580 792Q580 697 515 632T354 566Q261 566 197 632Q132 698 132 792Q132 902 221 970Q248 990
281 1002Q213 1052 188 1089Q138 1163 138 1244T160 1382T224 1480Q314 1567 479 1567Q576 1567 657 1517T798 1386ZM1038 1393Q1016 1393 995 1376T960 1329T938 1260Q929 1222 924 1178Q916 1108 916 1005L1212 1142Q1189 1171 1174 1204L1120 1316Q1084 1393
1038 1393ZM302 257T287 241T271 203T286 165T324 149T363 164T379 202T363 241T325 257ZM333 844T318 828T302 790T317 752T355 736T394 751T410 789T394 828T356 844Z" />
<glyph unicode="S" glyph-name="S" horiz-adv-x="1756" d="M209 599Q515 175 916 175Q1168 175 1330 293Q1488 408 1488 581Q1488 700 1432 762Q1386 813 1329 813T1226 793T1138 742T1048 675Q1000 638 944 608Q812 536 682 536T454 569T282 667Q119 812 119
1072Q120 1270 246 1408Q392 1568 667 1568Q847 1568 994 1470Q1035 1442 1072 1412L1143 1355Q1177 1327 1212 1305Q1212 1478 1331 1538Q1371 1558 1421 1558T1512 1540Q1554 1522 1584 1492Q1650 1426 1650 1349T1627 1228T1565 1155Q1490 1099 1358 1099Q1204
1099 1011 1246Q894 1335 816 1364T653 1393T496 1365Q426 1338 381 1292Q294 1204 294 1073Q294 897 404 799Q503 711 656 711Q778 711 896 783Q946 814 992 849T1089 916Q1205 988 1325 988Q1453 988 1546 900Q1662 790 1662 584Q1662 463 1608 357T1456 171Q1243
0 916 0Q549 0 257 277Q162 367 70 495L209 599ZM1402 1390T1387 1374T1371 1336T1386 1298T1424 1282T1463 1297T1479 1335T1463 1374T1425 1390Z" />
<glyph unicode="T" glyph-name="T" horiz-adv-x="1481" d="M1312 1089T1245 1070T1096 1051T917 1092L760 968Q788 898 845 819L932 694Q1044 530 1044 354Q1044 207 940 103Q837 0 689 0T438 103T335 354Q335 449 380 528T500 656L591 509Q507 456 507 355Q507
280 560 227T688 174Q764 174 816 227Q870 282 870 342T857 447T822 531T774 609L720 682Q652 768 627 827Q579 939 579 1047L756 1187Q724 1210 684 1245Q646 1280 602 1313Q497 1393 435 1393T332 1372Q290 1352 262 1320Q202 1254 202 1191T222 1090T278 1026Q349
974 468 974V800Q270 800 152 896Q28 997 28 1178Q28 1319 136 1437Q254 1567 424 1567Q588 1568 768 1408Q882 1307 947 1271T1071 1227Q1040 1280 1040 1334T1058 1430Q1075 1472 1105 1502Q1169 1568 1263 1567Q1356 1567 1421 1502T1487 1354T1454 1218T1366
1127ZM1240 1397T1225 1381T1209 1343T1224 1305T1262 1289T1301 1304T1317 1342T1301 1381T1263 1397Z" />
<glyph unicode="U" glyph-name="U" horiz-adv-x="1229" d="M1048 -30Q845 95 841 300L395 -30L307 73Q143 270 143 489Q143 605 176 770T225 1024T240 1188T204 1316T93 1429L198 1567Q368 1436 402 1302Q414 1254 414 1178T400 1016T366 846Q317 616 317 489Q317
346 419 210L841 522V1537H1015V341Q1015 264 1045 211T1145 109L1048 -30Z" />
<glyph unicode="V" glyph-name="V" horiz-adv-x="1622" d="M631 267Q635 245 635 212T618 138T570 66Q504 0 409 0Q316 0 252 66Q187 132 187 226Q190 395 344 455Q398 476 470 476T601 457Q732 708 732 960Q732 1148 647 1272Q564 1393 450 1393Q367 1393 326
1356T284 1267T304 1183T353 1118T417 1056T482 986Q552 896 551 792Q551 697 486 632T325 566Q232 566 168 632Q103 698 103 792Q103 902 192 970Q219 990 252 1002Q184 1052 159 1089Q109 1163 109 1244T131 1382Q154 1439 196 1480Q286 1567 450 1567Q537 1567
619 1523T765 1398Q907 1219 907 960Q907 673 746 365Q786 332 820 298Q854 266 892 238Q977 176 1062 176T1196 202Q1244 228 1274 270Q1334 354 1334 476Q1334 623 1272 764L1198 929Q1132 1081 1133 1231Q1133 1398 1244 1486Q1347 1568 1514 1569V1394Q1368
1394 1323 1307Q1307 1276 1307 1231T1314 1146T1334 1067T1363 992L1437 828Q1508 663 1508 476Q1508 275 1406 146Q1291 0 1087 0Q908 0 804 90Q750 136 706 187T631 267ZM388 278T373 262T357 224T372 186T410 170T449 185T465 223T449 262T411 278ZM304 844T289
828T273 790T288 752T326 736T365 751T381 789T365 828T327 844Z" />
<glyph unicode="W" glyph-name="W" horiz-adv-x="2119" d="M631 267Q635 245 635 212T618 138T570 66Q504 0 409 0Q316 0 252 66Q187 132 187 226Q190 395 344 455Q398 476 470 476T601 457Q732 708 732 960Q732 1148 647 1272Q564 1393 450 1393Q367 1393 326
1356T284 1267T304 1183T353 1118T417 1056T482 986Q552 896 551 792Q551 697 486 632T325 566Q232 566 168 632Q103 698 103 792Q103 902 192 970Q219 990 252 1002Q184 1052 159 1089Q109 1163 109 1244T131 1382Q154 1439 196 1480Q286 1567 450 1567Q537 1567
619 1523T765 1398Q907 1219 907 960Q907 673 746 365Q786 332 820 298Q854 266 892 238Q977 176 1062 176T1196 202Q1244 228 1274 270Q1334 354 1334 476Q1334 623 1272 764L1198 929Q1132 1081 1133 1231Q1133 1398 1244 1486Q1347 1568 1514 1569V1394Q1368
1394 1323 1307Q1307 1276 1307 1231T1314 1146T1334 1067T1363 992L1437 828Q1508 663 1508 476Q1508 316 1442 200Q1502 173 1573 173T1692 199T1770 269Q1830 352 1830 476Q1830 620 1769 764L1696 929Q1630 1084 1629 1231Q1629 1398 1740 1486Q1843 1568 2010
1569V1394Q1865 1394 1820 1307Q1804 1276 1804 1231T1811 1146T1831 1067T1860 992L1934 828Q2005 663 2005 476Q2005 274 1903 144Q1788 -3 1584 -2Q1433 -2 1323 67Q1225 0 1087 0Q908 0 804 90Q750 136 706 187T631 267ZM304 844T289 828T273 790T288 752T326
736T365 751T381 789T365 828T327 844ZM388 278T373 262T357 224T372 186T410 170T449 185T465 223T449 262T411 278Z" />
<glyph unicode="X" glyph-name="X" horiz-adv-x="1494" d="M1250 1033L1092 700H820V367Q820 251 903 198Q928 182 956 177L1101 304L1213 171L1038 0Q795 0 710 170Q678 234 678 329Q632 182 593 122Q514 0 417 0Q292 0 236 120L206 185L138 46L-31 90Q20 266
120 334Q158 360 204 360T278 346T324 311T352 266L370 222Q378 201 388 188T419 174T464 220T515 340Q542 416 568 510L620 700H467L356 465L196 541L371 870H645V1158Q645 1367 509 1391L364 1264L252 1397L427 1568Q680 1568 760 1367Q788 1296 788 1196L836
1332Q890 1478 968 1536Q1012 1568 1066 1568T1152 1555Q1182 1542 1204 1521Q1233 1493 1254 1451T1281 1399T1287 1385L1366 1536L1524 1478Q1467 1298 1372 1234Q1334 1208 1289 1208T1218 1222T1175 1257T1148 1302L1129 1346Q1108 1394 1079 1394T1024 1350T968
1234Q940 1160 910 1066L845 870H980L1092 1108L1250 1033Z" />
<glyph unicode="Y" glyph-name="Y" horiz-adv-x="1476" d="M538 664Q707 877 707 1030Q706 1166 630 1276Q550 1392 443 1393Q360 1393 319 1356T277 1267T297 1183T346 1118T410 1056Q444 1024 474 986Q544 896 544 792Q544 697 479 632T318 566Q225 566 161
632Q96 698 96 792Q96 902 185 970Q212 990 245 1002Q177 1052 152 1089Q102 1163 102 1244T124 1382T188 1480Q278 1567 443 1567Q622 1568 755 1396Q881 1234 881 1030Q882 864 772 700Q742 654 710 614Q717 491 812 398L1128 646Q1121 723 1114 790T1100 923T1088
1055Q1082 1122 1078 1196Q1068 1353 1068 1547H1242Q1235 1228 1275 915Q1317 587 1317 380T1265 44T1124 -174Q945 -352 677 -352Q498 -352 352 -268Q181 -171 181 9Q181 101 246 166T403 231Q498 231 564 166Q630 102 630 5T550 -163Q612 -178 689 -178T851
-144Q936 -110 1000 -44Q1142 103 1142 343V436L809 174Q538 390 538 664ZM382 61T367 45T351 7T366 -31T404 -47T443 -32T459 6T443 45T405 61ZM297 844T282 828T266 790T281 752T319 736T358 751T374 789T358 828T320 844Z" />
<glyph unicode="Z" glyph-name="Z" horiz-adv-x="1255" d="M953 1378Q834 1333 714 1333T506 1363Q494 1282 434 1230Q374 1177 291 1177Q201 1176 139 1240Q76 1304 76 1395Q76 1484 139 1547T291 1610Q364 1610 417 1591T501 1558T566 1533Q641 1506 720 1506Q856
1506 956 1567H1119Q1128 1502 1128 1408T1109 1233T1056 1082T976 949T876 832Q824 776 766 726L528 526Q316 344 269 174H735Q957 174 1075 336L1213 229Q1050 0 735 0H80Q80 258 222 451Q304 563 391 636L630 837Q938 1104 953 1378ZM268 1448T253 1432T237
1394T252 1356T290 1340T329 1355T345 1393T329 1432T291 1448Z" />
<glyph unicode="[" glyph-name="bracketleft" horiz-adv-x="620" d="M611 -194H146V1594H611V1435H316V-36H611V-194Z" />
<glyph unicode="\" glyph-name="backslash" horiz-adv-x="915" d="M223 1564L876 -158L711 -201L64 1502L223 1564Z" />
<glyph unicode="]" glyph-name="bracketright" horiz-adv-x="620" d="M9 -36H304V1435H9V1594H474V-194H9V-36Z" />
<glyph unicode="^" glyph-name="asciicircum" horiz-adv-x="1406" d="M1156 545L726 1229L258 545H50L677 1459H782L1356 545H1156Z" />
<glyph unicode="_" glyph-name="underscore" horiz-adv-x="1023" d="M0 -316V-156H1023V-316H0Z" />
<glyph unicode="`" glyph-name="grave" horiz-adv-x="564" d="M50 1537L166 1695L514 1441L423 1298L50 1537Z" />
<glyph unicode="a" glyph-name="a" horiz-adv-x="798" d="M256 214Q256 175 288 157L482 302V970L342 861Q256 794 256 679V214ZM685 -30Q578 36 529 121L327 -30Q166 -1 107 116Q86 158 86 214V679Q86 881 233 991L549 1230L652 1177V341Q652 264 682 211T782
109L685 -30Z" />
<glyph unicode="b" glyph-name="b" horiz-adv-x="767" d="M457 1230Q662 1032 700 814Q712 746 712 673Q712 367 474 162L252 -30L132 37V1226Q132 1462 311 1616Q365 1662 428 1696L513 1548Q365 1470 319 1330Q303 1282 303 1226V1104L457 1230ZM302 882V234L364
289Q542 445 542 679Q542 839 421 980L302 882Z" />
<glyph unicode="c" glyph-name="c" horiz-adv-x="683" d="M373 -30Q89 52 89 310V749Q88 862 116 920Q162 1019 249 1080L463 1230L664 848L525 765L406 983L347 941Q259 877 259 749V310Q259 206 340 162L543 320L643 180L373 -30Z" />
<glyph unicode="d" glyph-name="d" horiz-adv-x="739" d="M339 1556Q244 1489 244 1391Q244 1269 439 1105Q560 1003 607 930Q698 787 698 641Q698 367 460 162L238 -30L118 37V828Q118 910 166 962L245 1050Q75 1202 75 1389Q75 1532 182 1644Q212 1676 242 1697L339
1556ZM506 481T517 525T528 617T515 709T480 795Q438 876 374 939L288 840V234L350 289Q446 374 476 427Z" />
<glyph unicode="e" glyph-name="e" horiz-adv-x="702" d="M373 -30Q89 52 89 310V749Q88 862 116 920Q162 1019 249 1080L463 1230L665 847L259 541V310Q259 206 340 162L543 320L643 180L373 -30ZM347 941Q261 877 259 753L451 895Q414 961 404 982L347 941Z" />
<glyph unicode="f" glyph-name="f" horiz-adv-x="596" d="M382 1396Q330 1396 330 1308Q330 1266 344 1203L363 1120H571V949H397Q424 743 424 557T422 294Q422 218 416 134Q403 -61 377 -261L208 -239Q254 101 254 355Q254 732 229 927Q160 899 90 848L-13 983Q100
1068 193 1096Q160 1240 160 1306T172 1416T208 1494Q261 1568 352 1567Q422 1567 496 1521L451 1618L587 1696Q672 1547 672 1462Q672 1376 602 1342Q578 1330 547 1330T492 1341Q468 1352 450 1364L415 1386Q399 1396 382 1396Z" />
<glyph unicode="g" glyph-name="g" horiz-adv-x="784" d="M289 -170Q318 -181 358 -181T437 -161Q476 -140 505 -108Q568 -37 568 52Q568 123 511 258L319 115Q158 144 99 261Q78 303 78 359V680Q78 882 225 992L541 1231L645 1178V453Q645 401 660 356Q674 310
692 264Q740 138 740 53T710 -106Q680 -180 628 -234Q514 -352 353 -352Q215 -352 111 -283Q-10 -203 -10 -70Q-10 -1 38 47T156 96Q224 96 274 48Q323 0 323 -62T289 -170ZM249 359Q249 320 280 302L474 451V971L334 862Q249 796 249 680V359Z" />
<glyph unicode="h" glyph-name="h" horiz-adv-x="836" d="M256 -164Q574 150 574 442V741Q574 877 497 991L304 833V0H134V1230Q134 1472 316 1618Q370 1662 433 1696L517 1544Q412 1488 374 1440Q305 1351 305 1230L304 1054L516 1230Q744 976 744 741V442Q744
82 382 -278L256 -164Z" />
<glyph unicode="i" glyph-name="i" horiz-adv-x="440" d="M291 1203V341Q291 264 321 211T421 109L324 -30Q161 73 131 216Q121 264 121 319V1203H291ZM290 1274L132 1327L251 1609L428 1538L290 1274Z" />
<glyph unicode="j" glyph-name="j" horiz-adv-x="419" d="M297 1229V307Q297 145 284 70T249 -68T185 -185Q95 -304 -71 -352L-114 -187Q114 -121 124 214Q126 263 126 307V1229H297ZM302 1274L144 1327L263 1609L440 1538L302 1274Z" />
<glyph unicode="k" glyph-name="k" horiz-adv-x="871" d="M304 959Q304 959 685 1257L781 1118L569 951Q661 863 693 803Q747 702 747 598Q747 545 737 482Q718 361 718 322T724 259T746 212Q775 165 848 105L746 -29Q588 94 558 221Q548 262 548 303T552 379T562
449Q576 548 576 606Q576 727 434 843L304 742V0H134V1230Q134 1472 316 1618Q370 1662 433 1696L517 1544Q412 1488 374 1440Q304 1350 304 1230V959Z" />
<glyph unicode="l" glyph-name="l" horiz-adv-x="439" d="M517 1544Q412 1488 374 1440Q305 1351 305 1230V0H134V1230Q134 1472 316 1618Q370 1662 433 1696L517 1544Z" />
<glyph unicode="m" glyph-name="m" horiz-adv-x="1238" d="M706 861Q709 835 709 800V0H538V800Q538 915 490 992L313 854V0H142V938Q142 1000 70 1062Q50 1079 32 1091L127 1233Q258 1148 293 1054L517 1230Q620 1113 657 1039L900 1229Q1052 1059 1103 885Q1121
823 1121 762Q1121 679 1111 580Q1092 392 1092 299T1222 106L1120 -29Q960 95 930 221Q920 262 920 314T926 422Q930 478 936 532Q950 676 950 762Q950 878 875 992L706 861Z" />
<glyph unicode="n" glyph-name="n" horiz-adv-x="854" d="M708 305Q708 205 838 106L735 -29Q576 94 546 221Q536 262 536 314T542 422Q546 478 552 532Q566 676 566 763Q566 877 489 994L312 855V0H141V940Q141 1002 70 1064Q51 1080 32 1092L126 1235Q256 1150
292 1055L516 1230Q668 1060 718 886Q736 824 736 763Q736 690 726 586Q708 382 708 305Z" />
<glyph unicode="o" glyph-name="o" horiz-adv-x="749" d="M98 28V796Q98 969 221 1061L445 1231Q539 1167 580 1118Q663 1018 663 915V452Q663 305 540 212L215 -31L98 28ZM322 924Q268 881 268 796V219L440 344Q493 382 493 452V915Q493 973 446 1020L322 924Z" />
<glyph unicode="p" glyph-name="p" horiz-adv-x="891" d="M159 103Q125 103 105 0H-65Q-26 274 159 274Q179 274 197 271V854Q196 895 172 955Q126 1069 126 1108T133 1174T159 1228Q194 1281 279 1354L395 1226L348 1184Q297 1137 297 1109Q297 1064 322 1019L577
1230L661 1132Q751 1026 777 951T804 817V427Q804 231 676 131L469 -30L368 21V-352H197V99Q177 103 159 103ZM368 834V213Q413 189 426 183T451 169L569 263Q633 314 633 427V817Q633 896 558 992L368 834Z" />
<glyph unicode="q" glyph-name="q" horiz-adv-x="785" d="M257 212Q257 173 288 155L482 300V970L342 861Q257 793 257 679V212ZM482 84L327 -30Q165 -1 107 114Q86 156 86 212V679Q86 881 233 991L549 1230L652 1177V19Q652 -58 682 -111T782 -213L685 -352Q522
-249 492 -106Q482 -58 482 -3V84Z" />
<glyph unicode="r" glyph-name="r" horiz-adv-x="635" d="M125 1230Q231 1165 270 1096L440 1230Q572 1105 648 899L497 812Q464 901 416 963L311 880V0H141V935Q141 1014 32 1087L125 1230Z" />
<glyph unicode="s" glyph-name="s" horiz-adv-x="895" d="M551 1301Q470 1301 432 1230H249Q271 1336 355 1404Q441 1474 550 1473Q678 1473 768 1383T858 1165Q858 1006 728 914Q688 886 642 871Q768 750 810 594Q824 542 824 475T797 328Q768 248 714 179Q598
33 399 -30L247 121Q89 279 89 400Q89 488 166 578L276 452Q258 427 258 409T268 371T296 327Q312 304 334 280L440 167Q592 248 640 399Q654 445 654 496T631 599T571 687L331 506L25 882L363 1183L433 1097Q487 1030 551 1030Q608 1030 647 1069T687 1165Q687
1222 648 1261T551 1301ZM523 858Q418 868 340 939L257 871L359 736L523 858Z" />
<glyph unicode="t" glyph-name="t" horiz-adv-x="614" d="M213 950Q168 950 90 888L66 868L-22 1004L34 1044Q139 1120 229 1120L318 1428L482 1384L406 1120H585V950H382V579Q382 465 382 365T413 211T513 109L416 -30Q253 73 223 216Q213 264 213 319V950Z" />
<glyph unicode="u" glyph-name="u" horiz-adv-x="861" d="M17 1096L119 1231Q278 1108 308 981Q318 940 318 888T313 780T303 670Q289 517 289 445Q289 319 365 207L543 345V1199H713V341Q713 264 743 211T843 109L746 -30Q621 49 574 154L338 -30Q187 139 136
313Q118 375 118 437Q118 521 128 620Q147 808 147 901T17 1096Z" />
<glyph unicode="v" glyph-name="v" horiz-adv-x="776" d="M139 962Q138 1000 122 1022Q99 1053 41 1103L156 1230Q245 1151 270 1115Q309 1056 309 992V240L459 361Q533 420 533 552V798Q534 891 466 977Q446 1003 421 1030L350 1109L472 1230L542 1153Q620 1068
648 1015Q703 913 703 801V552Q703 342 568 230L254 -30L139 45V962Z" />
<glyph unicode="w" glyph-name="w" horiz-adv-x="1170" d="M309 240L459 361Q529 417 533 539V962Q532 1000 516 1022Q493 1053 435 1103L550 1230Q639 1151 664 1115Q703 1056 703 992V240L853 361Q927 420 927 552V798Q928 891 860 977Q840 1003 815 1030L744
1109L866 1230L936 1153Q1014 1068 1042 1015Q1097 913 1097 801V552Q1097 342 962 230L648 -30L533 45V201L254 -30L139 45V962Q138 1000 122 1022Q99 1053 41 1103L156 1230Q245 1151 270 1115Q309 1056 309 992V240Z" />
<glyph unicode="x" glyph-name="x" horiz-adv-x="815" d="M460 -181Q443 -145 443 -109T456 -42Q470 -10 492 12Q540 60 609 60Q677 60 727 12Q776 -36 776 -103T747 -217T669 -294Q576 -352 467 -352T289 -322Q220 -292 172 -240Q70 -132 70 21Q70 120 99 179Q137
257 177 305L236 378Q301 460 301 545V814Q301 906 227 966Q151 1028 37 1028V1200Q242 1200 366 1078Q404 1041 427 998L682 1232L779 1091L558 883Q472 807 472 702V468Q472 370 560 306Q646 244 776 244V74Q570 74 432 178Q385 214 357 263Q339 240 318 216T280
163Q240 95 240 38T254 -55T296 -120Q355 -181 444 -181H460Z" />
<glyph unicode="y" glyph-name="y" horiz-adv-x="855" d="M352 -170Q381 -181 421 -181T500 -161Q538 -140 568 -108Q632 -38 632 52Q632 109 608 162T573 240L383 88Q365 100 339 116L282 148Q210 188 142 214V962Q142 1014 92 1062Q74 1080 45 1103L160 1230Q249
1151 274 1115Q313 1056 313 992V327Q329 319 345 311T373 296L537 428V798Q538 891 470 977Q450 1003 425 1030L354 1109L476 1230L546 1153Q624 1068 652 1015Q707 913 707 801V434Q707 386 722 340Q736 294 754 248Q802 122 802 45T772 -106Q742 -180 690 -234Q576
-352 416 -352Q278 -352 174 -283Q53 -203 53 -70Q53 -1 101 47T219 96Q287 96 337 48Q386 0 386 -62T352 -170Z" />
<glyph unicode="z" glyph-name="z" horiz-adv-x="763" d="M31 1036L277 1231Q405 1175 459 1124T539 1020T566 919T555 835T528 766Q496 698 454 643Q473 660 504 684Q623 774 666 800L753 653Q664 595 632 574L572 530Q543 508 521 490Q597 407 624 339Q668 224
668 82T583 -196Q524 -290 436 -331Q390 -352 335 -352T232 -328T147 -257Q69 -157 69 4Q69 183 181 356Q214 407 250 446Q230 461 205 475L164 496Q148 504 133 511Q344 733 382 832Q396 868 396 910T367 984T296 1029L133 899L31 1036ZM472 -56T485 -9T498 82T492
165T473 243Q445 323 397 367Q288 258 251 104Q239 54 239 8T247 -73T268 -132Q295 -182 332 -182T398 -158T449 -95Z" />
<glyph unicode="{" glyph-name="braceleft" horiz-adv-x="585" d="M367 863Q367 726 304 653Q367 572 367 445V71Q367 0 389 -26Q429 -72 518 -72V-242Q247 -242 209 -56Q197 2 197 71V445Q197 548 -28 660Q159 744 188 818Q197 840 197 863V1259Q197 1418 257
1486Q329 1568 518 1567V1396Q391 1396 373 1318Q367 1292 367 1259V863Z" />
<glyph unicode="|" glyph-name="bar" horiz-adv-x="464" d="M147 1568H317V-134H147V1568Z" />
<glyph unicode="}" glyph-name="braceright" horiz-adv-x="585" d="M281 653Q218 726 218 863V1259Q218 1330 196 1354Q157 1396 67 1396V1567Q256 1568 328 1486Q388 1418 388 1259V863Q388 814 422 780Q483 719 613 660Q388 548 388 445V71Q388 -86 329 -155Q255
-242 67 -242V-72Q194 -72 212 13Q218 39 218 71V445Q218 572 281 653Z" />
<glyph unicode="~" glyph-name="asciitilde" horiz-adv-x="927" d="M38 1176Q137 1439 335 1439Q408 1439 494 1384Q527 1363 557 1346T613 1329T656 1342T691 1376T724 1424L758 1480L907 1394Q838 1274 798 1233Q717 1150 620 1150Q554 1150 462 1204L396 1242Q365
1259 331 1259T264 1220T190 1100L38 1176Z" />
<glyph unicode="&#xa0;" glyph-name="uni00A0" horiz-adv-x="500" />
<glyph unicode="&#xa1;" glyph-name="exclamdown" horiz-adv-x="443" d="M130 -352V797H301V-352H130ZM160 1283L330 1272L301 879L130 890L160 1283Z" />
<glyph unicode="&#xa2;" glyph-name="cent" horiz-adv-x="747" d="M534 933L415 1150L356 1108Q268 1049 268 917V436Q268 384 304 337T402 264L564 387L684 267L512 136V-85H342V108Q166 174 114 332Q98 382 98 436V917Q98 1026 134 1106T257 1247L342 1306V1617H512V1321L673
1015L534 933Z" />
<glyph unicode="&#xa3;" glyph-name="sterling" horiz-adv-x="1488" d="M650 565Q636 462 573 408Q630 386 698 340L806 266Q949 168 1047 168Q1140 168 1205 260Q1263 342 1263 441H1434Q1434 282 1330 146Q1216 -2 1047 -3Q894 -2 700 138Q584 222 508 250T382
278Q296 278 296 224Q296 201 311 186T350 170V0Q257 0 192 65T126 226T194 383Q264 448 370 448Q422 448 453 488Q478 521 478 565H79V730H455Q438 776 411 825T358 926Q296 1053 296 1145T330 1314Q362 1390 418 1446Q540 1568 712 1567Q884 1567 1005 1446T1127
1152H957Q957 1253 885 1325T712 1397Q611 1397 539 1325T467 1152Q468 1060 530 936L583 836Q611 786 630 730H977V565H650Z" />
<glyph unicode="&#xa4;" glyph-name="currency" horiz-adv-x="1123" d="M228 523Q195 589 195 674T232 827L124 911Q98 930 76 948L181 1089L353 956Q455 1019 564 1120Q655 1043 713 1017T799 968L953 1089L1047 949L901 832Q926 773 926 693T877 540L1050 406L953
273L755 419L700 380Q620 326 550 250Q502 292 450 327L343 397L174 273L75 403L228 523ZM477 830Q366 766 366 673Q366 570 501 502Q522 492 536 479Q562 499 600 522Q638 544 672 572Q756 640 755 717Q755 808 663 853Q640 864 618 873T573 897Q529 862 477 830Z"
/>
<glyph unicode="&#xa5;" glyph-name="yen" horiz-adv-x="1414" d="M954 1121Q942 1088 932 1055T911 990H1209V820H876Q871 798 868 777T861 734H1209V564H832Q788 341 672 186Q539 8 347 0H331Q238 0 174 66Q109 132 109 226Q109 318 174 383T331 448Q450 448
518 352Q538 322 548 288Q610 375 655 564H311V734H665Q658 812 657 820H311V990H626Q578 1179 495 1268L179 1023L74 1159L492 1484Q694 1349 771 1056Q870 1461 1102 1482Q1114 1484 1144 1484T1216 1467T1288 1419Q1354 1355 1354 1262Q1354 1167 1289 1102T1121
1036T954 1121ZM1107 1314T1092 1298T1076 1260T1091 1222T1129 1206T1168 1221T1184 1259T1168 1298T1130 1314ZM310 278T295 262T279 224T294 186T331 170H341Q360 173 373 188T387 225T371 262T333 278Z" />
<glyph unicode="&#xa6;" glyph-name="brokenbar" horiz-adv-x="471" d="M320 1364V572H150V1364H320ZM320 409V-339H150V409H320Z" />
<glyph unicode="&#xa7;" glyph-name="section" horiz-adv-x="919" d="M219 335Q102 469 102 572Q102 666 179 756Q203 784 232 813Q128 936 94 1096Q82 1150 82 1214T110 1345Q140 1411 188 1460Q293 1566 443 1566Q593 1566 699 1441T805 1141H634Q634 1246 578
1320T443 1395Q364 1395 308 1339T252 1204Q252 1091 320 974Q341 938 366 908L601 1088Q658 1048 710 975T786 858Q838 759 838 657T777 444Q837 328 837 204Q837 39 704 -117Q573 -270 400 -322Q338 -255 284 -203T189 -102Q101 1 101 103Q101 173 133 226T219
335ZM656 286Q546 187 402 142L333 212Q304 183 287 159T270 109T286 56Q302 28 328 -4Q376 -63 444 -128Q547 -69 589 -17Q667 83 667 204Q667 249 656 286ZM348 689Q284 648 274 605Q270 590 270 571T290 521T337 456Q364 422 396 390L453 333Q472 329 510 355Q579
403 589 430L348 689ZM672 594Q678 625 678 654T670 713T648 772Q625 822 591 870L480 789L672 594Z" />
<glyph unicode="&#xa8;" glyph-name="dieresis" horiz-adv-x="700" d="M513 1357L355 1410L473 1692L650 1621L513 1357ZM208 1357L50 1410L169 1692L346 1621L208 1357Z" />
<glyph unicode="&#xa9;" glyph-name="copyright" horiz-adv-x="1514" d="M71 716Q71 858 125 982T272 1200T490 1347T757 1401Q899 1401 1024 1347T1242 1200T1389 983T1443 716Q1443 574 1389 449T1242 231T1024 84T757 30Q615 30 490 84T272 231T125 449T71
716ZM241 716Q241 610 281 516T392 352Q544 200 757 200Q971 200 1121 352Q1272 504 1272 716Q1272 929 1121 1080T757 1231T392 1080Q240 930 241 716ZM740 229Q456 311 456 569V715Q456 828 484 886Q530 985 616 1046L830 1196L1031 814L892 731L773 949L714
907Q626 843 626 715V569Q626 465 707 421L910 579L1010 439L740 229Z" />
<glyph unicode="&#xaa;" glyph-name="ordfeminine" horiz-adv-x="748" d="M556 725Q556 626 686 528L589 390Q490 462 454 507L323 411Q160 444 103 557Q82 599 82 655V762Q82 974 229 1075L454 1230L556 1177V725ZM253 655Q253 616 285 598L387 672V981L338 944Q253
880 253 762V655Z" />
<glyph unicode="&#xab;" glyph-name="guillemotleft" horiz-adv-x="846" d="M618 56L355 514L628 976L776 891L553 514Q553 514 768 139L618 56ZM303 56L40 514L313 976L461 891L238 514L453 139L303 56Z" />
<glyph unicode="&#xac;" glyph-name="logicalnot" horiz-adv-x="1090" d="M968 1131V610H798V971H72V1131H968Z" />
<glyph unicode="&#xad;" glyph-name="uni00AD" horiz-adv-x="777" d="M107 656L671 798V623L107 481V656Z" />
<glyph unicode="&#xae;" glyph-name="registered" horiz-adv-x="1514" d="M71 716Q71 858 125 982T272 1200T490 1347T757 1401Q899 1401 1024 1347T1242 1200T1389 983T1443 716Q1443 574 1389 449T1242 231T1024 84T757 30Q615 30 490 84T272 231T125 449T71
716ZM574 1129Q689 1052 719 995L889 1169Q1025 1023 1097 838L954 726Q909 861 876 914L760 793V200Q972 202 1122 353Q1272 505 1272 716Q1272 852 1202 974Q1099 1153 894 1212Q828 1231 742 1231T562 1192T397 1084Q241 932 241 716Q242 548 340 414Q438 281
590 228V834Q590 913 481 986L574 1129Z" />
<glyph unicode="&#xaf;" glyph-name="overscore" horiz-adv-x="898" d="M848 1562V1402H50V1562H848Z" />
<glyph unicode="&#xb0;" glyph-name="degree" horiz-adv-x="556" d="M40 1498Q40 1598 109 1667T278 1737Q378 1738 448 1668T518 1498Q518 1398 448 1328T278 1259Q179 1259 110 1328T40 1498ZM250 1567T230 1547T210 1498T230 1450T278 1430T327 1449T348 1497T328
1546T279 1567Z" />
<glyph unicode="&#xb1;" glyph-name="plusminus" horiz-adv-x="1071" d="M446 837V1200H617V837H981V667H617V305H446V667H84V837H446ZM90 0V160H988V0H90Z" />
<glyph unicode="&#xb2;" glyph-name="twosuperior" horiz-adv-x="885" d="M348 1388Q394 1344 394 1281Q394 1182 303 1142Q276 1130 245 1130Q184 1130 138 1174Q94 1217 94 1279T119 1394T190 1484Q289 1566 449 1567Q670 1566 752 1410Q780 1358 780 1291T756
1175T693 1088Q654 1048 605 1016L505 953Q441 915 384 873T297 779Q335 776 370 770L522 743Q562 736 607 736Q630 736 630 758Q630 767 618 774T588 781L589 953Q678 953 742 896Q806 840 805 758Q806 678 748 620Q692 564 608 564Q559 564 499 576Q360 605 299
607L317 564H129L116 611Q102 660 102 716T129 830T200 932Q244 976 298 1011L483 1125Q563 1175 586 1214T609 1286Q609 1397 443 1397Q378 1397 348 1388Z" />
<glyph unicode="&#xb3;" glyph-name="threesuperior" horiz-adv-x="887" d="M682 1094Q813 990 813 874Q812 745 704 655T438 565Q278 566 180 640Q76 718 76 851Q76 910 120 956Q163 1000 209 1000T283 989T332 957Q377 914 377 858T336 756Q369 744 422 744T512
752Q549 762 577 778Q640 815 640 865T612 947T521 1013Q506 1010 485 1005L400 985Q380 980 365 977L338 1112Q476 1140 546 1182T616 1283T573 1372T476 1404Q396 1404 353 1389Q393 1347 393 1302T381 1230Q368 1202 348 1182Q303 1138 243 1138Q181 1138 137
1182T93 1291T120 1408T196 1496Q294 1568 457 1567Q608 1567 701 1485Q789 1407 789 1290Q788 1196 730 1136Q710 1115 682 1094Z" />
<glyph unicode="&#xb4;" glyph-name="acute" horiz-adv-x="565" d="M140 1299L50 1441L399 1695L515 1537L140 1299Z" />
<glyph unicode="&#xb5;" glyph-name="mu" horiz-adv-x="935" d="M177 692T185 774T194 946T64 1139L166 1274Q324 1151 354 1024Q364 983 364 917T358 782Q350 713 342 654Q320 505 320 446T329 358T350 300Q373 250 412 194L590 346V1228H760V267Q760 183 870
114L775 -29Q648 49 611 146L404 -29L306 127Q306 -53 490 -210L379 -341Q236 -220 184 -65Q140 67 140 323Q140 403 158 547Z" />
<glyph unicode="&#xb6;" glyph-name="paragraph" horiz-adv-x="1600" d="M1386 359Q1386 197 1373 122T1338 -16Q1314 -79 1274 -133Q1185 -252 1019 -300L976 -135Q1204 -69 1214 266Q1216 315 1216 359V1365H974V0H803V1365H737Q386 1365 276 1185Q238 1124
238 1050T261 929T319 848T401 789T495 739T590 689T672 628Q752 550 752 429Q752 294 640 216Q542 148 396 149V320Q521 320 565 378Q581 399 581 432T559 490T501 536T419 577T325 624T231 684T149 768Q69 877 69 1024T119 1264T259 1418Q432 1536 737 1536H1537V1365H1386V359Z"
/>
<glyph unicode="&#xb7;" glyph-name="middot" horiz-adv-x="402" d="M272 735L102 746L131 1139L302 1128L272 735Z" />
<glyph unicode="&#xb8;" glyph-name="cedilla" horiz-adv-x="538" d="M285 -136Q363 -185 363 -277Q363 -360 280 -412Q201 -462 86 -462V-291Q162 -291 173 -281T184 -257Q184 -233 159 -229T83 -225L50 -106L271 24H488L285 -136Z" />
<glyph unicode="&#xb9;" glyph-name="onesuperior" horiz-adv-x="514" d="M154 646Q231 777 231 924V1300Q192 1261 178 1210L24 1294Q53 1377 119 1429L303 1567L404 1515V943Q404 724 311 564L154 646Z" />
<glyph unicode="&#xba;" glyph-name="ordmasculine" horiz-adv-x="641" d="M356 1230Q575 1086 575 914V823Q574 747 558 708Q528 638 451 583L217 411L101 469V865Q101 1037 224 1130L356 1230ZM325 993Q271 950 271 865V658L351 715Q405 754 405 823V914Q405
971 358 1018L325 993Z" />
<glyph unicode="&#xbb;" glyph-name="guillemotright" horiz-adv-x="857" d="M404 140L618 514L395 891L543 976L816 514L554 57L404 140ZM79 140L293 514L70 891L218 976L491 514L229 57L79 140Z" />
<glyph unicode="&#xbc;" glyph-name="onequarter" horiz-adv-x="1650" d="M1175 1271L338 -48L200 46L1040 1372L1175 1271ZM187 499Q264 630 264 777V1153Q225 1114 211 1063L57 1147Q86 1230 152 1282L336 1420L437 1368V796Q437 577 344 417L187 499ZM866 393Q866
503 959 617L1278 999Q1474 917 1474 725V462H1588V295H1474Q1474 80 1276 -16L1168 119Q1301 187 1301 295H866V393ZM1057 462H1301V759L1057 462Z" />
<glyph unicode="&#xbd;" glyph-name="onehalf" horiz-adv-x="1822" d="M1224 1271L387 -48L249 46L1089 1372L1224 1271ZM185 499Q262 630 262 777V1153Q223 1114 209 1063L55 1147Q84 1230 150 1282L334 1420L435 1368V796Q435 577 342 417L185 499ZM1281 825Q1327
781 1327 718Q1327 619 1236 579Q1209 567 1178 567Q1118 567 1072 611Q1028 654 1028 716T1052 831Q1077 884 1123 922Q1222 1004 1382 1004Q1604 1004 1686 848Q1714 796 1714 728T1689 612T1626 525T1538 454L1438 390Q1374 352 1317 310T1230 216Q1268 214
1303 208L1456 180Q1496 173 1540 173Q1563 173 1563 195Q1563 204 1551 211T1521 218L1522 390Q1610 390 1674 333Q1738 277 1738 195Q1738 116 1680 58Q1624 2 1541 1Q1492 2 1432 14Q1293 43 1232 44L1250 1H1062L1048 48Q1034 97 1034 153T1062 267T1132 368T1230
448L1416 562Q1496 612 1519 651T1542 723Q1542 834 1376 834Q1311 834 1281 825Z" />
<glyph unicode="&#xbe;" glyph-name="threequarters" horiz-adv-x="2009" d="M1517 1271L680 -48L542 46L1382 1372L1517 1271ZM688 955Q819 851 819 735Q818 606 710 516T444 426Q284 426 186 500Q82 578 82 712Q82 772 126 818Q169 862 215 862T289 850T338
818Q383 775 383 719T342 617Q375 605 428 605T518 613T583 638Q646 675 646 726T618 808T527 874Q512 871 491 866L406 846Q386 841 371 838L344 973Q482 1001 552 1043T622 1144T579 1233T482 1265Q402 1265 359 1250Q399 1208 399 1163T387 1090Q374 1063 354
1043Q309 999 249 999Q187 999 143 1043T99 1152T126 1269Q154 1320 202 1356Q300 1428 463 1428Q614 1428 707 1346Q795 1268 795 1151Q794 1057 736 997Q716 976 688 955ZM1226 393Q1226 503 1319 617L1638 999Q1834 917 1834 725V462H1948V295H1834Q1834 80
1636 -16L1528 119Q1661 187 1661 295H1226V393ZM1417 462H1661V759L1417 462Z" />
<glyph unicode="&#xbf;" glyph-name="questiondown" horiz-adv-x="866" d="M352 1283L523 1272L493 879L322 890L352 1283ZM637 -30Q637 60 540 60V230Q724 230 787 86Q808 38 808 -26T780 -150Q754 -208 704 -253Q595 -352 432 -352Q267 -352 160 -249Q55 -148
55 1Q55 194 240 314Q292 348 336 371L413 414Q485 455 506 489T527 549T519 596T495 631Q463 663 417 663Q372 664 348 640Q308 600 307 553H141Q141 668 223 750T420 832Q535 832 616 751T698 554Q698 386 523 280Q474 250 431 228T352 182Q316 160 288 132Q225
70 225 1Q225 -73 282 -126Q341 -181 432 -181Q522 -181 582 -134Q638 -90 637 -30Z" />
<glyph unicode="&#xc0;" glyph-name="Agrave" horiz-adv-x="1554" d="M552 1393Q322 1393 322 1259Q322 1191 392 1118Q422 1087 456 1056T520 986Q590 896 589 792Q589 697 524 632T363 566Q270 566 206 632Q141 698 141 792Q141 902 230 970Q257 990 290 1002Q222
1052 197 1089Q147 1163 147 1244T170 1382Q194 1439 242 1480Q345 1567 552 1567Q886 1566 1002 1340Q1042 1260 1042 1168T1028 1011T988 885T931 768L866 659L928 596L1073 697V1167Q1074 1341 1194 1456Q1310 1567 1480 1567V1394Q1354 1394 1294 1306Q1242
1230 1243 1101V398Q1242 279 1374 176Q1414 145 1460 114L1360 -30Q1220 65 1170 130Q1073 255 1073 393V496L915 380L763 519Q568 274 334 76Q260 14 196 -30L68 89Q384 316 610 588Q874 906 874 1143Q874 1316 692 1374Q632 1394 552 1393ZM667 1837L783 1995L1131
1741L1040 1598L667 1837ZM342 844T327 828T311 790T326 752T364 736T403 751T419 789T403 828T365 844Z" />
<glyph unicode="&#xc1;" glyph-name="Aacute" horiz-adv-x="1554" d="M552 1393Q322 1393 322 1259Q322 1191 392 1118Q422 1087 456 1056T520 986Q590 896 589 792Q589 697 524 632T363 566Q270 566 206 632Q141 698 141 792Q141 902 230 970Q257 990 290 1002Q222
1052 197 1089Q147 1163 147 1244T170 1382Q194 1439 242 1480Q345 1567 552 1567Q886 1566 1002 1340Q1042 1260 1042 1168T1028 1011T988 885T931 768L866 659L928 596L1073 697V1167Q1074 1341 1194 1456Q1310 1567 1480 1567V1394Q1354 1394 1294 1306Q1242
1230 1243 1101V398Q1242 279 1374 176Q1414 145 1460 114L1360 -30Q1220 65 1170 130Q1073 255 1073 393V496L915 380L763 519Q568 274 334 76Q260 14 196 -30L68 89Q384 316 610 588Q874 906 874 1143Q874 1316 692 1374Q632 1394 552 1393ZM1072 1599L982 1741L1331
1995L1447 1837L1072 1599ZM342 844T327 828T311 790T326 752T364 736T403 751T419 789T403 828T365 844Z" />
<glyph unicode="&#xc2;" glyph-name="Acircumflex" horiz-adv-x="1554" d="M552 1393Q322 1393 322 1259Q322 1191 392 1118Q422 1087 456 1056T520 986Q590 896 589 792Q589 697 524 632T363 566Q270 566 206 632Q141 698 141 792Q141 902 230 970Q257 990 290
1002Q222 1052 197 1089Q147 1163 147 1244T170 1382Q194 1439 242 1480Q345 1567 552 1567Q886 1566 1002 1340Q1042 1260 1042 1168T1028 1011T988 885T931 768L866 659L928 596L1073 697V1167Q1074 1341 1194 1456Q1310 1567 1480 1567V1394Q1354 1394 1294
1306Q1242 1230 1243 1101V398Q1242 279 1374 176Q1414 145 1460 114L1360 -30Q1220 65 1170 130Q1073 255 1073 393V496L915 380L763 519Q568 274 334 76Q260 14 196 -30L68 89Q384 316 610 588Q874 906 874 1143Q874 1316 692 1374Q632 1394 552 1393ZM705 1745L1066
1997L1414 1745L1311 1609L1066 1790Q1038 1766 994 1736L808 1609L705 1745ZM342 844T327 828T311 790T326 752T364 736T403 751T419 789T403 828T365 844Z" />
<glyph unicode="&#xc3;" glyph-name="Atilde" horiz-adv-x="1554" d="M552 1393Q322 1393 322 1259Q322 1191 392 1118Q422 1087 456 1056T520 986Q590 896 589 792Q589 697 524 632T363 566Q270 566 206 632Q141 698 141 792Q141 902 230 970Q257 990 290 1002Q222
1052 197 1089Q147 1163 147 1244T170 1382Q194 1439 242 1480Q345 1567 552 1567Q886 1566 1002 1340Q1042 1260 1042 1168T1028 1011T988 885T931 768L866 659L928 596L1073 697V1167Q1074 1341 1194 1456Q1310 1567 1480 1567V1394Q1354 1394 1294 1306Q1242
1230 1243 1101V398Q1242 279 1374 176Q1414 145 1460 114L1360 -30Q1220 65 1170 130Q1073 255 1073 393V496L915 380L763 519Q568 274 334 76Q260 14 196 -30L68 89Q384 316 610 588Q874 906 874 1143Q874 1316 692 1374Q632 1394 552 1393ZM948 1765Q862 1765
789 1624L640 1708Q726 1868 844 1919Q884 1936 924 1936T997 1916T1058 1872L1110 1828Q1135 1808 1158 1808T1201 1820Q1221 1834 1240 1854Q1277 1894 1310 1955L1459 1872Q1374 1720 1256 1657Q1218 1637 1180 1637T1107 1657T1045 1701L994 1745Q971 1765
948 1765ZM342 844T327 828T311 790T326 752T364 736T403 751T419 789T403 828T365 844Z" />
<glyph unicode="&#xc4;" glyph-name="Adieresis" horiz-adv-x="1554" d="M552 1393Q322 1393 322 1259Q322 1191 392 1118Q422 1087 456 1056T520 986Q590 896 589 792Q589 697 524 632T363 566Q270 566 206 632Q141 698 141 792Q141 902 230 970Q257 990 290
1002Q222 1052 197 1089Q147 1163 147 1244T170 1382Q194 1439 242 1480Q345 1567 552 1567Q886 1566 1002 1340Q1042 1260 1042 1168T1028 1011T988 885T931 768L866 659L928 596L1073 697V1167Q1074 1341 1194 1456Q1310 1567 1480 1567V1394Q1354 1394 1294
1306Q1242 1230 1243 1101V398Q1242 279 1374 176Q1414 145 1460 114L1360 -30Q1220 65 1170 130Q1073 255 1073 393V496L915 380L763 519Q568 274 334 76Q260 14 196 -30L68 89Q384 316 610 588Q874 906 874 1143Q874 1316 692 1374Q632 1394 552 1393ZM964 1657L806
1710L925 1992L1102 1921L964 1657ZM1269 1657L1111 1710L1229 1992L1406 1921L1269 1657ZM342 844T327 828T311 790T326 752T364 736T403 751T419 789T403 828T365 844Z" />
<glyph unicode="&#xc5;" glyph-name="Aring" horiz-adv-x="1554" d="M552 1393Q322 1393 322 1259Q322 1191 392 1118Q422 1087 456 1056T520 986Q590 896 589 792Q589 697 524 632T363 566Q270 566 206 632Q141 698 141 792Q141 902 230 970Q257 990 290 1002Q222
1052 197 1089Q147 1163 147 1244T170 1382Q194 1439 242 1480Q345 1567 552 1567Q886 1566 1002 1340Q1042 1260 1042 1168T1028 1011T988 885T931 768L866 659L928 596L1073 697V1167Q1074 1341 1194 1456Q1310 1567 1480 1567V1394Q1354 1394 1294 1306Q1242
1230 1243 1101V398Q1242 279 1374 176Q1414 145 1460 114L1360 -30Q1220 65 1170 130Q1073 255 1073 393V496L915 380L763 519Q568 274 334 76Q260 14 196 -30L68 89Q384 316 610 588Q874 906 874 1143Q874 1316 692 1374Q632 1394 552 1393ZM843 1798Q843 1886
905 1950Q966 2012 1057 2013Q1149 2012 1210 1950Q1273 1886 1273 1798Q1273 1710 1210 1646Q1149 1584 1057 1583Q966 1584 905 1646Q843 1710 843 1798ZM1031 1867T1011 1847T991 1798T1011 1750T1059 1730T1108 1749T1129 1797T1109 1846T1060 1867ZM342 844T327
828T311 790T326 752T364 736T403 751T419 789T403 828T365 844Z" />
<glyph unicode="&#xc6;" glyph-name="AE" horiz-adv-x="2480" d="M1711 -1Q1101 -1 1071 497L911 380L759 519Q564 274 330 76Q256 14 192 -30L64 89Q380 316 606 588Q870 906 870 1143Q870 1316 688 1374Q628 1394 560 1394T448 1383T372 1354Q309 1316 309 1263T331
1176T387 1112T460 1054T534 992Q612 911 612 808Q612 714 546 650Q480 585 388 585Q295 585 230 650Q165 714 165 794Q165 944 286 1007Q217 1061 189 1099Q136 1173 136 1250T164 1385T246 1484Q355 1566 548 1567Q882 1566 998 1340Q1038 1260 1038 1168T1024
1011T984 885T927 768L862 659L924 596L1069 697V1167Q1070 1341 1190 1456Q1306 1567 1476 1567Q1593 1567 1653 1491L1755 1617Q1819 1414 1900 1341Q1930 1314 1962 1314T2018 1330Q2042 1346 2059 1376Q2094 1437 2094 1537H2268Q2268 1360 2188 1252Q2104
1139 1953 1139T1704 1275L1632 1187Q1602 1149 1602 1123T1614 1079T1646 1044Q1667 1028 1693 1012L1800 951Q1826 936 1852 918Q1888 995 1924 1026Q1989 1081 2069 1081Q2144 1081 2212 1024V1131H2382Q2382 993 2364 943T2315 868T2241 843T2178 853Q2160
863 2146 875L2120 897Q2108 907 2089 907T2055 897T2027 869Q2008 842 1988 785Q2036 706 2036 624T2012 486T1946 388Q1855 298 1729 299Q1602 299 1513 388T1423 605Q1423 698 1475 775L1613 673Q1595 643 1595 610T1605 553T1634 511Q1673 472 1728 472Q1784
472 1823 511T1862 597T1844 677T1797 737T1732 786L1663 828Q1550 890 1509 932Q1427 1016 1427 1118Q1427 1216 1498 1298Q1525 1330 1525 1354Q1525 1394 1467 1394T1364 1370T1290 1306Q1238 1230 1239 1101V588Q1239 173 1713 173Q1916 172 2064 314Q2177
422 2249 607L2411 543Q2326 322 2172 177Q1982 -1 1711 -1ZM317 806Q317 776 338 755T389 734Q419 734 440 755T462 806Q462 836 441 857T389 879Q359 879 338 858T317 806Z" />
<glyph unicode="&#xc7;" glyph-name="Ccedilla" horiz-adv-x="1565" d="M734 -136Q812 -185 812 -277Q812 -360 729 -412Q650 -462 535 -462V-291Q611 -291 622 -281T633 -257Q633 -233 608 -229T532 -225L499 -106L689 6Q386 40 230 257Q90 453 90 758Q90 1123
302 1351Q503 1567 780 1567Q896 1567 1002 1526Q1040 1511 1068 1489Q1112 1313 1201 1313T1330 1492L1501 1459Q1448 1210 1296 1154Q1250 1138 1203 1138Q1111 1138 1054 1213Q1041 1114 933 1026Q887 988 836 955T740 885Q640 802 640 711Q640 610 764 571Q809
557 875 557V383Q663 383 555 489Q465 577 465 711Q466 875 600 994Q638 1028 678 1058L756 1114Q890 1207 890 1291V1383Q864 1388 833 1390L780 1392Q578 1386 428 1218Q327 1106 286 938Q265 854 265 739T300 515Q336 408 404 332Q545 176 802 175Q1065 174
1243 392Q1308 471 1338 548L1500 484Q1438 332 1310 208Q1141 44 918 9L734 -136Z" />
<glyph unicode="&#xc8;" glyph-name="Egrave" horiz-adv-x="1530" d="M1038 785Q1086 706 1086 624T1062 486T996 388Q905 298 779 299Q652 299 563 388T473 605Q473 698 525 775L663 673Q645 643 645 610T655 553T684 511Q723 472 778 472Q834 472 873 511T912
597T894 677T847 737T782 786L713 828Q600 890 559 932Q477 1016 477 1118Q477 1216 548 1298Q575 1330 575 1354Q575 1393 528 1393T435 1356T353 1242Q272 1070 272 776Q272 482 429 318Q568 173 781 173Q972 172 1117 314Q1228 422 1299 607L1461 543Q1378 321
1226 177Q1040 -1 781 -1Q500 0 310 186Q98 395 97 776Q97 1153 234 1373Q295 1471 371 1519T526 1567Q643 1567 703 1491L796 1606L437 1837L553 1995L901 1741L810 1599Q907 1314 1013 1314Q1073 1314 1109 1376Q1144 1437 1144 1537H1318Q1318 1360 1238 1252Q1154
1139 1003 1139T754 1275L682 1187Q652 1149 652 1123T664 1079T696 1044Q717 1028 743 1012L850 951Q876 936 902 918Q938 995 974 1026Q1039 1081 1119 1081Q1194 1081 1262 1024V1131H1432Q1432 993 1414 943T1365 868T1291 843T1228 853Q1210 863 1196 875L1170
897Q1158 907 1139 907T1105 897T1077 869Q1058 842 1038 785Z" />
<glyph unicode="&#xc9;" glyph-name="Eacute" horiz-adv-x="1530" d="M526 1567Q643 1567 703 1491L797 1607L713 1741L1062 1995L1178 1837L809 1603Q872 1410 952 1340Q982 1314 1013 1314T1068 1330Q1092 1346 1109 1376Q1144 1437 1144 1537H1318Q1318 1360
1238 1252Q1154 1139 1003 1139T754 1275L682 1187Q652 1149 652 1123T664 1079T696 1044Q717 1028 743 1012L850 951Q876 936 902 918Q938 995 974 1026Q1039 1081 1119 1081Q1194 1081 1262 1024V1131H1432Q1432 993 1414 943T1365 868T1291 843T1228 853Q1210
863 1196 875L1170 897Q1158 907 1139 907T1105 897T1077 869Q1058 842 1038 785Q1086 706 1086 624T1062 486T996 388Q905 298 779 299Q652 299 563 388T473 605Q473 698 525 775L663 673Q645 643 645 610T655 553T684 511Q723 472 778 472Q834 472 873 511T912
597T894 677T847 737T782 786L713 828Q600 890 559 932Q477 1016 477 1118Q477 1216 548 1298Q575 1330 575 1354Q575 1393 528 1393T435 1356T353 1242Q272 1070 272 776Q272 482 429 318Q568 173 781 173Q972 172 1117 314Q1228 422 1299 607L1461 543Q1378 321
1226 177Q1040 -1 781 -1Q500 0 310 186Q98 395 97 776Q97 1153 234 1373Q295 1471 371 1519T526 1567Z" />
<glyph unicode="&#xca;" glyph-name="Ecircumflex" horiz-adv-x="1530" d="M1038 785Q1086 706 1086 624T1062 486T996 388Q905 298 779 299Q652 299 563 388T473 605Q473 698 525 775L663 673Q645 643 645 610T655 553T684 511Q723 472 778 472Q834 472 873 511T912
597T894 677T847 737T782 786L713 828Q600 890 559 932Q477 1016 477 1118Q477 1216 548 1298Q575 1330 575 1354Q575 1393 528 1393T435 1356T353 1242Q272 1070 272 776Q272 482 429 318Q568 173 781 173Q972 172 1117 314Q1228 422 1299 607L1461 543Q1378 321
1226 177Q1040 -1 781 -1Q500 0 310 186Q98 395 97 776Q97 1153 234 1373Q295 1471 371 1519T526 1567Q643 1567 703 1491L805 1617Q869 1414 950 1341Q980 1314 1012 1314T1068 1330Q1092 1346 1109 1376Q1144 1437 1144 1537H1318Q1318 1360 1238 1252Q1154 1139
1003 1139T754 1275L682 1187Q652 1149 652 1123T664 1079T696 1044Q717 1028 743 1012L850 951Q876 936 902 918Q938 995 974 1026Q1039 1081 1119 1081Q1194 1081 1262 1024V1131H1432Q1432 993 1414 943T1365 868T1291 843T1228 853Q1210 863 1196 875L1170
897Q1158 907 1139 907T1105 897T1077 869Q1058 842 1038 785ZM498 1745L859 1997L1207 1745L1104 1609L859 1790Q830 1766 786 1736L601 1609L498 1745Z" />
<glyph unicode="&#xcb;" glyph-name="Edieresis" horiz-adv-x="1530" d="M1038 785Q1086 706 1086 624T1062 486T996 388Q905 298 779 299Q652 299 563 388T473 605Q473 698 525 775L663 673Q645 643 645 610T655 553T684 511Q723 472 778 472Q834 472 873 511T912
597T894 677T847 737T782 786L713 828Q600 890 559 932Q477 1016 477 1118Q477 1216 548 1298Q575 1330 575 1354Q575 1393 528 1393T435 1356T353 1242Q272 1070 272 776Q272 482 429 318Q568 173 781 173Q972 172 1117 314Q1228 422 1299 607L1461 543Q1378 321
1226 177Q1040 -1 781 -1Q500 0 310 186Q98 395 97 776Q97 1153 234 1373Q295 1471 371 1519T526 1567Q643 1567 703 1491L805 1617Q869 1414 950 1341Q980 1314 1012 1314T1068 1330Q1092 1346 1109 1376Q1144 1437 1144 1537H1318Q1318 1360 1238 1252Q1154 1139
1003 1139T754 1275L682 1187Q652 1149 652 1123T664 1079T696 1044Q717 1028 743 1012L850 951Q876 936 902 918Q938 995 974 1026Q1039 1081 1119 1081Q1194 1081 1262 1024V1131H1432Q1432 993 1414 943T1365 868T1291 843T1228 853Q1210 863 1196 875L1170
897Q1158 907 1139 907T1105 897T1077 869Q1058 842 1038 785ZM1021 1657L863 1710L981 1992L1158 1921L1021 1657ZM716 1657L558 1710L677 1992L854 1921L716 1657Z" />
<glyph unicode="&#xcc;" glyph-name="Igrave" horiz-adv-x="1643" d="M1380 1089T1313 1070T1164 1051T985 1092L828 968Q851 916 882 870L1009 686Q1119 521 1119 356Q1119 258 1072 180Q1085 176 1105 175L1136 174Q1148 174 1173 174T1236 189T1302 234Q1364
296 1364 382Q1364 468 1302 530T1153 591V766Q1312 766 1424 654T1537 382Q1536 222 1424 111Q1311 -1 1153 -1Q958 -1 756 157Q632 254 558 284T430 315T348 305Q322 294 304 280Q272 253 272 227T285 186T323 170V0Q230 0 166 66Q101 132 101 226Q100 330 176
404Q264 490 415 489Q621 488 812 340L917 261Q945 304 945 365T923 482T868 587T796 682T724 781Q647 905 647 1047L824 1187Q792 1210 752 1245Q714 1280 670 1313Q565 1393 503 1393T400 1372Q358 1352 330 1320Q270 1254 270 1191T290 1090T346 1026Q417 974
536 974V800Q338 800 220 896Q96 997 96 1178Q96 1319 204 1437Q322 1567 492 1567Q656 1568 836 1408Q950 1307 1015 1271T1139 1227Q1108 1280 1108 1334T1126 1430Q1143 1472 1173 1502Q1237 1568 1331 1567Q1424 1567 1489 1502T1555 1354T1522 1218T1434 1127ZM1308
1397T1293 1381T1277 1343T1292 1305T1330 1289T1369 1304T1385 1342T1369 1381T1331 1397ZM547 1875L663 2033L1011 1779L920 1636L547 1875Z" />
<glyph unicode="&#xcd;" glyph-name="Iacute" horiz-adv-x="1643" d="M1380 1089T1313 1070T1164 1051T985 1092L828 968Q851 916 882 870L1009 686Q1119 521 1119 356Q1119 258 1072 180Q1085 176 1105 175L1136 174Q1148 174 1173 174T1236 189T1302 234Q1364
296 1364 382Q1364 468 1302 530T1153 591V766Q1312 766 1424 654T1537 382Q1536 222 1424 111Q1311 -1 1153 -1Q958 -1 756 157Q632 254 558 284T430 315T348 305Q322 294 304 280Q272 253 272 227T285 186T323 170V0Q230 0 166 66Q101 132 101 226Q100 330 176
404Q264 490 415 489Q621 488 812 340L917 261Q945 304 945 365T923 482T868 587T796 682T724 781Q647 905 647 1047L824 1187Q792 1210 752 1245Q714 1280 670 1313Q565 1393 503 1393T400 1372Q358 1352 330 1320Q270 1254 270 1191T290 1090T346 1026Q417 974
536 974V800Q338 800 220 896Q96 997 96 1178Q96 1319 204 1437Q322 1567 492 1567Q656 1568 836 1408Q950 1307 1015 1271T1139 1227Q1108 1280 1108 1334T1126 1430Q1143 1472 1173 1502Q1237 1568 1331 1567Q1424 1567 1489 1502T1555 1354T1522 1218T1434 1127ZM1308
1397T1293 1381T1277 1343T1292 1305T1330 1289T1369 1304T1385 1342T1369 1381T1331 1397ZM1060 1637L970 1779L1319 2033L1435 1875L1060 1637Z" />
<glyph unicode="&#xce;" glyph-name="Icircumflex" horiz-adv-x="1643" d="M1380 1089T1313 1070T1164 1051T985 1092L828 968Q851 916 882 870L1009 686Q1119 521 1119 356Q1119 258 1072 180Q1085 176 1105 175L1136 174Q1148 174 1173 174T1236 189T1302 234Q1364
296 1364 382Q1364 468 1302 530T1153 591V766Q1312 766 1424 654T1537 382Q1536 222 1424 111Q1311 -1 1153 -1Q958 -1 756 157Q632 254 558 284T430 315T348 305Q322 294 304 280Q272 253 272 227T285 186T323 170V0Q230 0 166 66Q101 132 101 226Q100 330 176
404Q264 490 415 489Q621 488 812 340L917 261Q945 304 945 365T923 482T868 587T796 682T724 781Q647 905 647 1047L824 1187Q792 1210 752 1245Q714 1280 670 1313Q565 1393 503 1393T400 1372Q358 1352 330 1320Q270 1254 270 1191T290 1090T346 1026Q417 974
536 974V800Q338 800 220 896Q96 997 96 1178Q96 1319 204 1437Q322 1567 492 1567Q656 1568 836 1408Q950 1307 1015 1271T1139 1227Q1108 1280 1108 1334T1126 1430Q1143 1472 1173 1502Q1237 1568 1331 1567Q1424 1567 1489 1502T1555 1354T1522 1218T1434 1127ZM1308
1397T1293 1381T1277 1343T1292 1305T1330 1289T1369 1304T1385 1342T1369 1381T1331 1397ZM584 1783L945 2035L1293 1783L1190 1647L945 1828Q916 1804 872 1774L687 1647L584 1783Z" />
<glyph unicode="&#xcf;" glyph-name="Idieresis" horiz-adv-x="1643" d="M1380 1089T1313 1070T1164 1051T985 1092L828 968Q851 916 882 870L1009 686Q1119 521 1119 356Q1119 258 1072 180Q1085 176 1105 175L1136 174Q1148 174 1173 174T1236 189T1302 234Q1364
296 1364 382Q1364 468 1302 530T1153 591V766Q1312 766 1424 654T1537 382Q1536 222 1424 111Q1311 -1 1153 -1Q958 -1 756 157Q632 254 558 284T430 315T348 305Q322 294 304 280Q272 253 272 227T285 186T323 170V0Q230 0 166 66Q101 132 101 226Q100 330 176
404Q264 490 415 489Q621 488 812 340L917 261Q945 304 945 365T923 482T868 587T796 682T724 781Q647 905 647 1047L824 1187Q792 1210 752 1245Q714 1280 670 1313Q565 1393 503 1393T400 1372Q358 1352 330 1320Q270 1254 270 1191T290 1090T346 1026Q417 974
536 974V800Q338 800 220 896Q96 997 96 1178Q96 1319 204 1437Q322 1567 492 1567Q656 1568 836 1408Q950 1307 1015 1271T1139 1227Q1108 1280 1108 1334T1126 1430Q1143 1472 1173 1502Q1237 1568 1331 1567Q1424 1567 1489 1502T1555 1354T1522 1218T1434 1127ZM1308
1397T1293 1381T1277 1343T1292 1305T1330 1289T1369 1304T1385 1342T1369 1381T1331 1397ZM1180 1695L1022 1748L1140 2030L1317 1959L1180 1695ZM875 1695L717 1748L836 2030L1013 1959L875 1695Z" />
<glyph unicode="&#xd0;" glyph-name="Eth" horiz-adv-x="1724" d="M542 317Q563 273 563 225T546 136T498 65Q432 0 339 0T181 65T116 207T144 330Q172 376 218 408Q311 472 416 472T585 451T703 396T802 324T892 252Q995 175 1081 175T1240 218Q1310 260 1362
331Q1470 481 1471 688Q1470 901 1296 1103Q1188 1230 1034 1310Q958 1350 876 1371L588 1095Q650 1005 770 936Q803 917 831 905H1119V734H909Q908 639 842 574Q778 511 685 511T527 576T462 734Q206 734 121 936Q89 1012 89 1105T131 1284T254 1433Q424 1568
702 1568Q949 1568 1176 1432Q1385 1307 1515 1102T1645 688Q1646 406 1488 208Q1323 1 1070 1Q907 2 766 130L690 200Q596 289 542 317ZM544 905Q467 954 439 990Q385 1059 385 1141L645 1391Q470 1377 365 1294Q264 1214 264 1101Q264 972 367 922Q401 906 447
905H544ZM268 224Q268 194 289 173T340 152Q370 152 391 173T413 224Q413 254 392 275T340 297Q310 297 289 276T268 224ZM615 734Q615 704 636 683T687 662Q717 662 738 683T760 734H615Z" />
<glyph unicode="&#xd1;" glyph-name="Ntilde" horiz-adv-x="1729" d="M384 318Q490 318 539 232Q804 628 804 960Q804 1147 716 1272Q630 1393 504 1393Q423 1393 382 1356T341 1267T361 1183T410 1118T474 1056Q508 1024 538 986Q608 896 608 792Q608 697 543
632T382 566Q289 566 225 632Q160 698 160 792Q160 902 249 970Q276 990 309 1002Q241 1052 216 1089Q166 1163 166 1244T187 1382T252 1480Q343 1567 504 1567Q776 1567 921 1254L1145 763Q1183 997 1366 1220Q1474 1351 1505 1425T1536 1568H1710Q1710 1386 1582
1225L1508 1132Q1409 1007 1376 931Q1307 777 1307 628T1334 396Q1362 314 1404 264Q1482 174 1597 174V0Q1394 0 1268 136Q1222 185 1189 256L959 757Q898 432 564 -28L445 18Q446 113 416 134Q404 143 382 143Q309 143 178 -29L39 77Q192 279 314 309Q350 318
384 318ZM361 844T346 828T330 790T345 752T383 736T422 751T438 789T422 828T384 844ZM1112 1803Q1026 1803 953 1662L804 1746Q890 1906 1008 1957Q1048 1974 1088 1974T1161 1954T1222 1910L1274 1866Q1299 1846 1322 1846T1365 1858Q1385 1872 1404 1892Q1441
1932 1474 1993L1623 1910Q1538 1758 1420 1695Q1382 1675 1344 1675T1271 1695T1209 1739L1158 1783Q1135 1803 1112 1803Z" />
<glyph unicode="&#xd2;" glyph-name="Ograve" horiz-adv-x="1657" d="M194 714Q194 676 220 650T284 624Q322 624 348 650T375 717T361 793T326 859T280 922Q256 952 234 988Q184 1070 184 1169T227 1342T349 1467Q509 1568 787 1568Q1002 1568 1185 1462Q1364
1358 1468 1182Q1576 1000 1576 786Q1576 572 1469 389Q1365 211 1187 107Q1004 0 790 0Q526 0 308 176Q238 232 181 301L318 412Q411 302 532 238T763 174T952 196T1098 257T1222 353T1318 477Q1402 620 1402 766T1354 1024Q1306 1134 1222 1216Q1042 1394 787
1394Q478 1394 389 1273Q358 1231 358 1180T372 1095T407 1031T453 971T499 904Q548 818 548 712Q548 603 472 527T286 450Q176 450 100 528T24 714H194ZM454 1837L570 1995L918 1741L827 1598L454 1837Z" />
<glyph unicode="&#xd3;" glyph-name="Oacute" horiz-adv-x="1657" d="M194 714Q194 676 220 650T284 624Q322 624 348 650T375 717T361 793T326 859T280 922Q256 952 234 988Q184 1070 184 1169T227 1342T349 1467Q509 1568 787 1568Q1002 1568 1185 1462Q1364
1358 1468 1182Q1576 1000 1576 786Q1576 572 1469 389Q1365 211 1187 107Q1004 0 790 0Q526 0 308 176Q238 232 181 301L318 412Q411 302 532 238T763 174T952 196T1098 257T1222 353T1318 477Q1402 620 1402 766T1354 1024Q1306 1134 1222 1216Q1042 1394 787
1394Q478 1394 389 1273Q358 1231 358 1180T372 1095T407 1031T453 971T499 904Q548 818 548 712Q548 603 472 527T286 450Q176 450 100 528T24 714H194ZM745 1599L655 1741L1004 1995L1120 1837L745 1599Z" />
<glyph unicode="&#xd4;" glyph-name="Ocircumflex" horiz-adv-x="1657" d="M194 714Q194 676 220 650T284 624Q322 624 348 650T375 717T361 793T326 859T280 922Q256 952 234 988Q184 1070 184 1169T227 1342T349 1467Q509 1568 787 1568Q1002 1568 1185 1462Q1364
1358 1468 1182Q1576 1000 1576 786Q1576 572 1469 389Q1365 211 1187 107Q1004 0 790 0Q526 0 308 176Q238 232 181 301L318 412Q411 302 532 238T763 174T952 196T1098 257T1222 353T1318 477Q1402 620 1402 766T1354 1024Q1306 1134 1222 1216Q1042 1394 787
1394Q478 1394 389 1273Q358 1231 358 1180T372 1095T407 1031T453 971T499 904Q548 818 548 712Q548 603 472 527T286 450Q176 450 100 528T24 714H194ZM451 1745L812 1997L1160 1745L1057 1609L812 1790Q784 1766 740 1736L554 1609L451 1745Z" />
<glyph unicode="&#xd5;" glyph-name="Otilde" horiz-adv-x="1657" d="M194 714Q194 676 220 650T284 624Q322 624 348 650T375 717T361 793T326 859T280 922Q256 952 234 988Q184 1070 184 1169T227 1342T349 1467Q509 1568 787 1568Q1002 1568 1185 1462Q1364
1358 1468 1182Q1576 1000 1576 786Q1576 572 1469 389Q1365 211 1187 107Q1004 0 790 0Q526 0 308 176Q238 232 181 301L318 412Q411 302 532 238T763 174T952 196T1098 257T1222 353T1318 477Q1402 620 1402 766T1354 1024Q1306 1134 1222 1216Q1042 1394 787
1394Q478 1394 389 1273Q358 1231 358 1180T372 1095T407 1031T453 971T499 904Q548 818 548 712Q548 603 472 527T286 450Q176 450 100 528T24 714H194ZM684 1765Q598 1765 525 1624L376 1708Q462 1868 580 1919Q620 1936 660 1936T733 1916T794 1872L846 1828Q871
1808 894 1808T937 1820Q957 1834 976 1854Q1013 1894 1046 1955L1195 1872Q1110 1720 992 1657Q954 1637 916 1637T843 1657T781 1701L730 1745Q707 1765 684 1765Z" />
<glyph unicode="&#xd6;" glyph-name="Odieresis" horiz-adv-x="1657" d="M194 714Q194 676 220 650T284 624Q322 624 348 650T375 717T361 793T326 859T280 922Q256 952 234 988Q184 1070 184 1169T227 1342T349 1467Q509 1568 787 1568Q1002 1568 1185 1462Q1364
1358 1468 1182Q1576 1000 1576 786Q1576 572 1469 389Q1365 211 1187 107Q1004 0 790 0Q526 0 308 176Q238 232 181 301L318 412Q411 302 532 238T763 174T952 196T1098 257T1222 353T1318 477Q1402 620 1402 766T1354 1024Q1306 1134 1222 1216Q1042 1394 787
1394Q478 1394 389 1273Q358 1231 358 1180T372 1095T407 1031T453 971T499 904Q548 818 548 712Q548 603 472 527T286 450Q176 450 100 528T24 714H194ZM1046 1657L888 1710L1006 1992L1183 1921L1046 1657ZM741 1657L583 1710L702 1992L879 1921L741 1657Z" />
<glyph unicode="&#xd7;" glyph-name="multiply" horiz-adv-x="952" d="M188 1063L475 839L762 1063L865 927L614 733L865 538L762 402L475 625L188 402L85 538L337 733L86 927L188 1063Z" />
<glyph unicode="&#xd8;" glyph-name="Oslash" horiz-adv-x="1714" d="M330 476Q375 423 420 385L1275 1235Q1142 1396 938 1442Q870 1458 787 1458T624 1446Q544 1433 488 1406Q370 1349 370 1237Q370 1165 419 1095Q440 1065 465 1035T511 968Q560 882 560 776Q560
667 484 591T298 514Q188 514 112 592T36 778H206Q206 740 232 714T296 688Q334 688 360 714T387 781T373 857T338 923T292 986Q268 1016 246 1052Q196 1134 196 1233T239 1406T361 1531Q521 1632 799 1632Q1065 1632 1278 1472Q1345 1422 1399 1358L1607 1564L1731
1440L1500 1210Q1588 1040 1588 850Q1588 636 1481 453Q1377 275 1199 171Q1016 64 815 64T441 159L259 -22L135 102L295 261Q241 306 193 365L330 476ZM572 289Q682 238 784 238T964 260T1110 321T1234 417T1330 541Q1414 684 1414 850Q1414 967 1368 1080L572
289Z" />
<glyph unicode="&#xd9;" glyph-name="Ugrave" horiz-adv-x="1228" d="M1048 -30Q845 95 841 300L395 -30L307 73Q143 270 143 489Q143 605 176 770T225 1024T240 1188T204 1316T93 1429L198 1567Q368 1436 402 1302Q414 1254 414 1178T400 1016T366 846Q317 616
317 489Q317 346 419 210L841 522V1537H1015V341Q1015 264 1045 211T1145 109L1048 -30ZM227 1837L343 1995L691 1741L600 1598L227 1837Z" />
<glyph unicode="&#xda;" glyph-name="Uacute" horiz-adv-x="1228" d="M1048 -30Q845 95 841 300L395 -30L307 73Q143 270 143 489Q143 605 176 770T225 1024T240 1188T204 1316T93 1429L198 1567Q368 1436 402 1302Q414 1254 414 1178T400 1016T366 846Q317 616
317 489Q317 346 419 210L841 522V1537H1015V341Q1015 264 1045 211T1145 109L1048 -30ZM629 1599L539 1741L888 1995L1004 1837L629 1599Z" />
<glyph unicode="&#xdb;" glyph-name="Ucircumflex" horiz-adv-x="1228" d="M1048 -30Q845 95 841 300L395 -30L307 73Q143 270 143 489Q143 605 176 770T225 1024T240 1188T204 1316T93 1429L198 1567Q368 1436 402 1302Q414 1254 414 1178T400 1016T366 846Q317
616 317 489Q317 346 419 210L841 522V1537H1015V341Q1015 264 1045 211T1145 109L1048 -30ZM240 1745L601 1997L949 1745L846 1609L601 1790Q572 1766 528 1736L343 1609L240 1745Z" />
<glyph unicode="&#xdc;" glyph-name="Udieresis" horiz-adv-x="1228" d="M1048 -30Q845 95 841 300L395 -30L307 73Q143 270 143 489Q143 605 176 770T225 1024T240 1188T204 1316T93 1429L198 1567Q368 1436 402 1302Q414 1254 414 1178T400 1016T366 846Q317
616 317 489Q317 346 419 210L841 522V1537H1015V341Q1015 264 1045 211T1145 109L1048 -30ZM806 1657L648 1710L766 1992L943 1921L806 1657ZM501 1657L343 1710L462 1992L639 1921L501 1657Z" />
<glyph unicode="&#xdd;" glyph-name="Yacute" horiz-adv-x="1476" d="M538 664Q707 877 707 1030Q706 1166 630 1276Q550 1392 443 1393Q360 1393 319 1356T277 1267T297 1183T346 1118T410 1056Q444 1024 474 986Q544 896 544 792Q544 697 479 632T318 566Q225
566 161 632Q96 698 96 792Q96 902 185 970Q212 990 245 1002Q177 1052 152 1089Q102 1163 102 1244T124 1382T188 1480Q278 1567 443 1567Q622 1568 755 1396Q881 1234 881 1030Q882 864 772 700Q742 654 710 614Q717 491 812 398L1128 646Q1121 723 1114 790T1100
923T1088 1055Q1082 1122 1078 1196Q1068 1353 1068 1547H1242Q1235 1228 1275 915Q1317 587 1317 380T1265 44T1124 -174Q945 -352 677 -352Q498 -352 352 -268Q181 -171 181 9Q181 101 246 166T403 231Q498 231 564 166Q630 102 630 5T550 -163Q612 -178 689
-178T851 -144Q936 -110 1000 -44Q1142 103 1142 343V436L809 174Q538 390 538 664ZM382 61T367 45T351 7T366 -31T404 -47T443 -32T459 6T443 45T405 61ZM297 844T282 828T266 790T281 752T319 736T358 751T374 789T358 828T320 844ZM936 1637L846 1779L1195 2033L1311
1875L936 1637Z" />
<glyph unicode="&#xde;" glyph-name="Thorn" horiz-adv-x="1603" d="M731 282Q575 266 426 117L300 236Q408 340 481 379Q606 447 731 462V1073Q732 1217 638 1309Q553 1393 455 1393T316 1356T274 1267T294 1183T343 1118T407 1056T472 986Q542 896 541 792Q541
697 476 632T315 566Q222 566 158 632Q93 698 93 792Q93 902 182 970Q209 990 242 1002Q174 1052 149 1089Q99 1163 99 1244T121 1382Q144 1439 186 1480Q276 1567 440 1567Q609 1568 746 1452Q906 1318 906 1077V1024L1286 1230Q1452 1110 1498 932Q1513 874 1513
817V427Q1513 231 1385 131L1271 42Q1142 176 996 251Q946 277 906 282V128Q906 -229 690 -325Q630 -352 562 -352H553Q460 -352 396 -286Q331 -220 331 -126Q331 -34 396 31T553 96Q672 96 723 -8Q731 20 731 82V282ZM1285 269Q1342 319 1342 427V817Q1342 958
1253 1020L906 827V459Q1065 440 1213 330Q1254 300 1285 269ZM532 -74T517 -90T501 -128T516 -166T554 -182T593 -167T609 -129T593 -90T555 -74ZM294 844T279 828T263 790T278 752T316 736T355 751T371 789T355 828T317 844Z" />
<glyph unicode="&#xdf;" glyph-name="germandbls" horiz-adv-x="953" d="M382 1396Q330 1396 330 1308Q330 1274 343 1213Q368 1097 376 1063L386 1014L655 1230Q816 1168 858 1040Q868 1012 868 974T858 898Q848 862 828 828Q795 771 716 690Q840 624 861 500Q868
460 868 392T838 249T756 104Q678 0 484 -167L400 -61L390 -156Q384 -206 377 -261L208 -239Q254 101 254 355Q254 732 229 927Q160 899 90 848L-13 983Q100 1068 193 1096Q160 1240 160 1306T172 1416T208 1494Q261 1568 352 1567Q422 1567 496 1521L450 1618L586
1696Q672 1546 672 1462Q672 1376 602 1342Q578 1330 547 1330T492 1341Q468 1352 450 1364L415 1386Q399 1396 382 1396ZM410 814Q424 651 424 522T424 338Q422 284 420 228Q415 109 404 -16Q545 108 597 178Q697 312 697 411Q697 475 639 529T453 640L556 746Q653
847 677 891T701 957Q701 1004 675 1028L411 814H410Z" />
<glyph unicode="&#xe0;" glyph-name="agrave" horiz-adv-x="798" d="M256 214Q256 175 288 157L482 302V970L342 861Q256 794 256 679V214ZM685 -30Q578 36 529 121L327 -30Q166 -1 107 116Q86 158 86 214V679Q86 881 233 991L549 1230L652 1177V341Q652 264 682
211T782 109L685 -30ZM51 1537L167 1695L515 1441L424 1298L51 1537Z" />
<glyph unicode="&#xe1;" glyph-name="aacute" horiz-adv-x="798" d="M256 214Q256 175 288 157L482 302V970L342 861Q256 794 256 679V214ZM685 -30Q578 36 529 121L327 -30Q166 -1 107 116Q86 158 86 214V679Q86 881 233 991L549 1230L652 1177V341Q652 264 682
211T782 109L685 -30ZM402 1299L312 1441L661 1695L777 1537L402 1299Z" />
<glyph unicode="&#xe2;" glyph-name="acircumflex" horiz-adv-x="798" d="M256 214Q256 175 288 157L482 302V970L342 861Q256 794 256 679V214ZM685 -30Q578 36 529 121L327 -30Q166 -1 107 116Q86 158 86 214V679Q86 881 233 991L549 1230L652 1177V341Q652
264 682 211T782 109L685 -30ZM55 1445L416 1697L764 1445L661 1309L416 1490Q388 1466 344 1436L158 1309L55 1445Z" />
<glyph unicode="&#xe3;" glyph-name="atilde" horiz-adv-x="798" d="M256 214Q256 175 288 157L482 302V970L342 861Q256 794 256 679V214ZM685 -30Q578 36 529 121L327 -30Q166 -1 107 116Q86 158 86 214V679Q86 881 233 991L549 1230L652 1177V341Q652 264 682
211T782 109L685 -30ZM288 1465Q202 1465 129 1324L-20 1408Q66 1568 184 1619Q224 1636 264 1636T337 1616T398 1572L450 1528Q475 1508 498 1508T541 1520Q561 1534 580 1554Q617 1594 650 1655L799 1572Q714 1420 596 1357Q558 1337 520 1337T447 1357T385 1401L334
1445Q311 1465 288 1465Z" />
<glyph unicode="&#xe4;" glyph-name="adieresis" horiz-adv-x="798" d="M256 214Q256 175 288 157L482 302V970L342 861Q256 794 256 679V214ZM685 -30Q578 36 529 121L327 -30Q166 -1 107 116Q86 158 86 214V679Q86 881 233 991L549 1230L652 1177V341Q652 264
682 211T782 109L685 -30ZM638 1357L480 1410L598 1692L775 1621L638 1357ZM333 1357L175 1410L294 1692L471 1621L333 1357Z" />
<glyph unicode="&#xe5;" glyph-name="aring" horiz-adv-x="798" d="M256 214Q256 175 288 157L482 302V970L342 861Q256 794 256 679V214ZM685 -30Q578 36 529 121L327 -30Q166 -1 107 116Q86 158 86 214V679Q86 881 233 991L549 1230L652 1177V341Q652 264 682
211T782 109L685 -30ZM165 1498Q165 1586 227 1650Q288 1712 379 1713Q471 1712 532 1650Q595 1586 595 1498Q595 1410 532 1346Q471 1284 379 1283Q288 1284 227 1346Q165 1410 165 1498ZM353 1567T333 1547T313 1498T333 1450T381 1430T430 1449T451 1497T431
1546T382 1567Z" />
<glyph unicode="&#xe6;" glyph-name="ae" horiz-adv-x="1106" d="M777 -30Q566 32 512 191L215 -31L98 28V796Q98 969 221 1061L445 1231Q571 1150 623 1058L867 1230L1069 847L663 541V310Q663 206 744 162L947 320L1047 180L777 -30ZM322 924Q268 881 268 796V219L440
344Q493 382 493 452V915Q493 973 446 1020L322 924ZM751 941Q665 877 663 753L855 895Q818 961 808 982L751 941Z" />
<glyph unicode="&#xe7;" glyph-name="ccedilla" horiz-adv-x="686" d="M310 -81Q388 -130 388 -222Q388 -305 305 -357Q226 -407 111 -407V-236Q187 -236 198 -226T209 -202Q209 -178 184 -174T108 -170L75 -51L227 38Q90 136 90 310V749Q90 862 118 920Q164 1019
250 1080L464 1230L665 848L526 765L407 983L348 941Q260 877 260 749V310Q260 206 341 162L544 320L644 180L310 -81Z" />
<glyph unicode="&#xe8;" glyph-name="egrave" horiz-adv-x="702" d="M373 -30Q89 52 89 310V749Q88 862 116 920Q162 1019 249 1080L463 1230L665 847L259 541V310Q259 206 340 162L543 320L643 180L373 -30ZM347 941Q261 877 259 753L451 895Q414 961 404 982L347
941ZM81 1537L197 1695L545 1441L454 1298L81 1537Z" />
<glyph unicode="&#xe9;" glyph-name="eacute" horiz-adv-x="702" d="M373 -30Q89 52 89 310V749Q88 862 116 920Q162 1019 249 1080L463 1230L665 847L259 541V310Q259 206 340 162L543 320L643 180L373 -30ZM347 941Q261 877 259 753L451 895Q414 961 404 982L347
941ZM372 1299L282 1441L631 1695L747 1537L372 1299Z" />
<glyph unicode="&#xea;" glyph-name="ecircumflex" horiz-adv-x="701" d="M373 -30Q89 52 89 310V749Q88 862 116 920Q162 1019 249 1080L463 1230L665 847L259 541V310Q259 206 340 162L543 320L643 180L373 -30ZM347 941Q261 877 259 753L451 895Q414 961 404
982L347 941ZM57 1445L418 1697L766 1445L663 1309L418 1490Q390 1466 346 1436L160 1309L57 1445Z" />
<glyph unicode="&#xeb;" glyph-name="edieresis" horiz-adv-x="701" d="M373 -30Q89 52 89 310V749Q88 862 116 920Q162 1019 249 1080L463 1230L665 847L259 541V310Q259 206 340 162L543 320L643 180L373 -30ZM347 941Q261 877 259 753L451 895Q414 961 404
982L347 941ZM614 1357L456 1410L574 1692L751 1621L614 1357ZM309 1357L151 1410L270 1692L447 1621L309 1357Z" />
<glyph unicode="&#xec;" glyph-name="igrave" horiz-adv-x="438" d="M290 1200V341Q290 264 320 211T420 109L323 -30Q160 73 130 216Q120 264 120 319V1200H290ZM-133 1537L-17 1695L331 1441L240 1298L-133 1537Z" />
<glyph unicode="&#xed;" glyph-name="iacute" horiz-adv-x="439" d="M291 1200V341Q291 264 321 211T421 109L324 -30Q161 73 131 216Q121 264 121 319V1200H291ZM192 1299L102 1441L451 1695L567 1537L192 1299Z" />
<glyph unicode="&#xee;" glyph-name="icircumflex" horiz-adv-x="438" d="M290 1200V341Q290 264 320 211T420 109L323 -30Q160 73 130 216Q120 264 120 319V1200H290ZM-149 1445L212 1697L560 1445L457 1309L212 1490Q184 1466 140 1436Q140 1436 -46 1309L-149 1445Z" />
<glyph unicode="&#xef;" glyph-name="idieresis" horiz-adv-x="439" d="M291 1200V341Q291 264 321 211T421 109L324 -30Q161 73 131 216Q121 264 121 319V1200H291ZM451 1357L293 1410L411 1692L588 1621L451 1357ZM146 1357L-12 1410L107 1692L284 1621L146 1357Z" />
<glyph unicode="&#xf0;" glyph-name="eth" horiz-adv-x="784" d="M384 1556Q289 1489 289 1391Q289 1376 292 1361L489 1514L585 1383L370 1216Q421 1156 477 1110T580 1018Q626 972 662 914Q742 787 743 641Q743 367 505 162L283 -30L163 37V828Q163 910 211
962L290 1050Q273 1064 259 1079L232 1109L91 999L-4 1131L147 1248Q120 1319 120 1380T134 1487T173 1574Q219 1650 287 1697L384 1556ZM551 481T562 525T573 617T560 709Q548 753 526 795Q484 876 419 939L333 840V234L395 289Q491 374 521 427Z" />
<glyph unicode="&#xf1;" glyph-name="ntilde" horiz-adv-x="855" d="M708 305Q708 205 838 106L735 -29Q576 94 546 221Q536 262 536 314T542 422Q546 478 552 532Q566 676 566 763Q566 877 489 994L312 855V0H141V940Q141 1002 70 1064Q51 1080 32 1092L126 1235Q256
1150 292 1055L516 1230Q668 1060 718 886Q736 824 736 763Q736 690 726 586Q708 382 708 305ZM287 1465Q201 1465 128 1324L-21 1408Q64 1568 182 1619Q222 1636 262 1636T336 1616Q368 1596 396 1572L449 1528Q474 1508 497 1508T540 1520Q560 1534 579 1554Q616
1594 649 1655L798 1572Q714 1420 596 1357Q558 1337 519 1337T446 1357T384 1401L333 1445Q310 1465 287 1465Z" />
<glyph unicode="&#xf2;" glyph-name="ograve" horiz-adv-x="749" d="M98 28V796Q98 969 221 1061L445 1231Q539 1167 580 1118Q663 1018 663 915V452Q663 305 540 212L215 -31L98 28ZM322 924Q268 881 268 796V219L440 344Q493 382 493 452V915Q493 973 446 1020L322
924ZM71 1537L187 1695L535 1441L444 1298L71 1537Z" />
<glyph unicode="&#xf3;" glyph-name="oacute" horiz-adv-x="749" d="M98 28V796Q98 969 221 1061L445 1231Q539 1167 580 1118Q663 1018 663 915V452Q663 305 540 212L215 -31L98 28ZM322 924Q268 881 268 796V219L440 344Q493 382 493 452V915Q493 973 446 1020L322
924ZM405 1299L315 1441L664 1695L780 1537L405 1299Z" />
<glyph unicode="&#xf4;" glyph-name="ocircumflex" horiz-adv-x="749" d="M98 28V796Q98 969 221 1061L445 1231Q539 1167 580 1118Q663 1018 663 915V452Q663 305 540 212L215 -31L98 28ZM322 924Q268 881 268 796V219L440 344Q493 382 493 452V915Q493 973 446
1020L322 924ZM34 1445L395 1697L743 1445L640 1309L395 1490Q366 1466 322 1436L137 1309L34 1445Z" />
<glyph unicode="&#xf5;" glyph-name="otilde" horiz-adv-x="748" d="M97 28V796Q97 969 220 1061L444 1231Q538 1167 579 1118Q662 1018 662 915V452Q662 305 539 212L214 -31L97 28ZM321 924Q267 881 267 796V219L439 344Q492 382 492 452V915Q492 973 445 1020L321
924ZM283 1465Q197 1465 124 1324L-25 1408Q60 1568 178 1619Q218 1636 258 1636T332 1616Q364 1596 392 1572L445 1528Q470 1508 493 1508T536 1520Q556 1534 575 1554Q612 1594 645 1655L794 1572Q710 1420 592 1357Q554 1337 515 1337T442 1357T380 1401L329
1445Q306 1465 283 1465Z" />
<glyph unicode="&#xf6;" glyph-name="odieresis" horiz-adv-x="749" d="M98 28V796Q98 969 221 1061L445 1231Q539 1167 580 1118Q663 1018 663 915V452Q663 305 540 212L215 -31L98 28ZM322 924Q268 881 268 796V219L440 344Q493 382 493 452V915Q493 973 446
1020L322 924ZM623 1357L465 1410L583 1692L760 1621L623 1357ZM318 1357L160 1410L279 1692L456 1621L318 1357Z" />
<glyph unicode="&#xf7;" glyph-name="divide" horiz-adv-x="1033" d="M68 611V777H966V611H68ZM536 854L378 906L496 1189L673 1117L536 854ZM473 548L631 496L513 213L336 285L473 548Z" />
<glyph unicode="&#xf8;" glyph-name="oslash" horiz-adv-x="856" d="M-35 377L158 528V796Q158 969 281 1061L505 1231Q588 1176 625 1134Q702 1050 718 966L792 1024L896 889L723 754V452Q723 305 600 212L275 -31L158 28V312L68 242L-35 377ZM500 344Q553 382
553 452V621L328 445V219L500 344ZM382 924Q328 881 328 796V661L553 837V915Q553 973 506 1020L382 924Z" />
<glyph unicode="&#xf9;" glyph-name="ugrave" horiz-adv-x="862" d="M18 1096L120 1231Q278 1108 308 981Q318 940 318 888T314 780T304 670Q290 517 290 445Q290 319 366 207L544 345V1199H714V341Q714 264 744 211T844 109L747 -30Q622 49 575 154L339 -30Q188
139 137 313Q119 375 119 437Q119 521 129 620Q148 808 148 901T18 1096ZM22 1530L138 1688L486 1434L395 1291L22 1530Z" />
<glyph unicode="&#xfa;" glyph-name="uacute" horiz-adv-x="862" d="M18 1096L120 1231Q278 1108 308 981Q318 940 318 888T314 780T304 670Q290 517 290 445Q290 319 366 207L544 345V1199H714V341Q714 264 744 211T844 109L747 -30Q622 49 575 154L339 -30Q188
139 137 313Q119 375 119 437Q119 521 129 620Q148 808 148 901T18 1096ZM415 1299L325 1441L674 1695L790 1537L415 1299Z" />
<glyph unicode="&#xfb;" glyph-name="ucircumflex" horiz-adv-x="862" d="M18 1096L120 1231Q278 1108 308 981Q318 940 318 888T314 780T304 670Q290 517 290 445Q290 319 366 207L544 345V1199H714V341Q714 264 744 211T844 109L747 -30Q622 49 575 154L339
-30Q188 139 137 313Q119 375 119 437Q119 521 129 620Q148 808 148 901T18 1096ZM70 1445L431 1697L779 1445L676 1309L431 1490Q402 1466 358 1436L173 1309L70 1445Z" />
<glyph unicode="&#xfc;" glyph-name="udieresis" horiz-adv-x="862" d="M18 1096L120 1231Q278 1108 308 981Q318 940 318 888T314 780T304 670Q290 517 290 445Q290 319 366 207L544 345V1199H714V341Q714 264 744 211T844 109L747 -30Q622 49 575 154L339 -30Q188
139 137 313Q119 375 119 437Q119 521 129 620Q148 808 148 901T18 1096ZM648 1357L490 1410L608 1692L785 1621L648 1357ZM343 1357L185 1410L304 1692L481 1621L343 1357Z" />
<glyph unicode="&#xfd;" glyph-name="yacute" horiz-adv-x="856" d="M353 -170Q382 -181 422 -181T501 -161Q540 -140 570 -108Q634 -38 633 52Q633 109 609 162T574 240L384 88Q366 100 340 116L282 148Q210 188 143 214V962Q142 1014 92 1062Q74 1080 46 1103L161
1230Q250 1151 275 1115Q314 1056 314 992V327Q330 319 346 311T374 296L538 428V798Q538 891 470 977Q450 1003 426 1030L355 1109L477 1230L547 1153Q625 1068 653 1015Q708 913 708 801V434Q708 386 723 340Q738 294 756 248Q804 122 804 45T773 -106Q742 -180
690 -234Q576 -352 417 -352Q279 -352 175 -283Q54 -203 54 -70Q54 -1 102 47T220 96Q288 96 338 48Q387 0 387 -62T353 -170ZM325 1299L235 1441L584 1695L700 1537L325 1299Z" />
<glyph unicode="&#xfe;" glyph-name="thorn" horiz-adv-x="766" d="M459 1252Q698 992 698 673Q698 518 670 432Q618 270 507 174V175L303 3V-316H133L135 1282Q156 1462 323 1598Q374 1640 432 1671L517 1523Q370 1444 320 1315Q304 1272 303 1226V1123L459 1252ZM303
902V224L397 301Q514 398 525 577Q528 628 528 674T523 765Q518 808 508 852Q486 943 440 1015L303 902Z" />
<glyph unicode="&#xff;" glyph-name="ydieresis" horiz-adv-x="856" d="M353 -170Q382 -181 422 -181T501 -161Q540 -140 570 -108Q634 -38 633 52Q633 109 609 162T574 240L384 88Q366 100 340 116L282 148Q210 188 143 214V962Q142 1014 92 1062Q74 1080 46
1103L161 1230Q250 1151 275 1115Q314 1056 314 992V327Q330 319 346 311T374 296L538 428V798Q538 891 470 977Q450 1003 426 1030L355 1109L477 1230L547 1153Q625 1068 653 1015Q708 913 708 801V434Q708 386 723 340Q738 294 756 248Q804 122 804 45T773 -106Q742
-180 690 -234Q576 -352 417 -352Q279 -352 175 -283Q54 -203 54 -70Q54 -1 102 47T220 96Q288 96 338 48Q387 0 387 -62T353 -170ZM317 1357L159 1410L278 1692L455 1621L317 1357ZM622 1357L464 1410L582 1692L759 1621L622 1357Z" />
<glyph unicode="&#x2013;" glyph-name="endash" horiz-adv-x="1036" d="M938 661V501H140V661H938Z" />
<glyph unicode="&#x2014;" glyph-name="emdash" horiz-adv-x="1427" d="M1329 661V501H140V661H1329Z" />
<glyph unicode="&#x2018;" glyph-name="quoteleft" horiz-adv-x="381" d="M310 1538Q211 1382 211 1316Q211 1287 230 1266T293 1245V1081Q117 1082 72 1212Q58 1252 58 1308Q58 1429 176 1614L310 1538Z" />
<glyph unicode="&#x2019;" glyph-name="quoteright" horiz-adv-x="369" d="M60 1146Q159 1302 159 1368Q159 1397 140 1418T77 1439V1603Q253 1602 298 1472Q312 1432 312 1376Q312 1255 194 1070L60 1146Z" />
<glyph unicode="&#x201a;" glyph-name="quotesinglbase" horiz-adv-x="395" d="M80 -199Q179 -43 179 23Q179 52 160 73T97 94V258Q273 258 318 128Q332 88 332 31Q332 -90 214 -275L80 -199Z" />
<glyph unicode="&#x201c;" glyph-name="quotedblleft" horiz-adv-x="687" d="M617 1538Q518 1382 518 1316Q518 1287 537 1266T600 1245V1081Q424 1082 379 1212Q365 1252 365 1308Q365 1429 483 1614L617 1538ZM310 1538Q211 1382 211 1316Q211 1287 230 1266T293
1245V1081Q117 1082 72 1212Q58 1252 58 1308Q58 1429 176 1614L310 1538Z" />
<glyph unicode="&#x201d;" glyph-name="quotedblright" horiz-adv-x="675" d="M367 1146Q466 1302 466 1368Q466 1397 447 1418T384 1439V1603Q560 1602 605 1472Q619 1432 619 1376Q619 1255 501 1070L367 1146ZM60 1146Q159 1302 159 1368Q159 1397 140 1418T77
1439V1603Q253 1602 298 1472Q312 1432 312 1376Q312 1255 194 1070L60 1146Z" />
<glyph unicode="&#x201e;" glyph-name="quotedblbase" horiz-adv-x="703" d="M387 -199Q486 -43 486 23Q486 52 467 73T404 94V258Q580 258 625 128Q639 88 639 31Q639 -90 521 -275L387 -199ZM80 -199Q179 -43 179 23Q179 52 160 73T97 94V258Q273 258 318 128Q332
88 332 31Q332 -90 214 -275L80 -199Z" />
<glyph unicode="&#x2022;" glyph-name="bullet" horiz-adv-x="740" d="M370 1126Q422 945 496 865Q571 784 749 718Q572 652 496 572Q422 493 370 311Q318 492 244 572Q168 653 -9 718Q168 784 244 865Q318 945 370 1126Z" />
<glyph unicode="&#x2039;" glyph-name="guilsinglleft" horiz-adv-x="532" d="M304 56L41 514L314 976L462 891L239 514Q239 514 454 139L304 56Z" />
<glyph unicode="&#x203a;" glyph-name="guilsinglright" horiz-adv-x="532" d="M79 140L293 514L70 891L218 976L491 514L229 57L79 140Z" />
</font>
</defs>
</svg>
