<?xml version="1.0" standalone="no"?>
<!DOCTYPE svg PUBLIC "-//W3C//DTD SVG 1.1//EN" "http://www.w3.org/Graphics/SVG/1.1/DTD/svg11.dtd">
<svg xmlns="http://www.w3.org/2000/svg">
<defs >
<font id="Bellefair" horiz-adv-x="489" ><font-face
    font-family="Bellefair"
    units-per-em="1000"
    panose-1="0 0 5 0 0 0 0 0 0 0"
    ascent="869"
    descent="-277"
    alphabetic="0" />
<glyph unicode=" " glyph-name="space" horiz-adv-x="256" />
<glyph unicode="!" glyph-name="exclam" horiz-adv-x="319" d="M128 592Q128 635 124 656T115 684T109 688H208Q203 688 198 670T192 592V354Q192 288 185 249Q179 218 171 190T160 153Q157 161 150 189T136 248Q128 285 128 355V592ZM184 90T197 75T210 40Q210
19 197 4T161 -11Q138 -11 126 4T113 40Q113 61 125 75T161 90Q184 90 197 75Z" />
<glyph unicode="&quot;" glyph-name="quotedbl" horiz-adv-x="448" d="M129 383T122 407T107 471T100 554V688H164V554Q164 511 157 472T143 408T132 377Q129 383 122 407ZM312 384T305 408T290 472T283 554V688H348V554Q348 511 341 472T326 409T315 378Q312
384 305 408Z" />
<glyph unicode="#" glyph-name="numbersign" horiz-adv-x="484" d="M351 194H430V154H343L312 0H266L297 154H166L135 0H89L120 154H46V194H128L154 324H74V364H162L190 506H236L208 364H339L368 506H413L385 364H456V324H377L351 194ZM174 194H305L331 324H200L174 194Z" />
<glyph unicode="$" glyph-name="dollar" horiz-adv-x="504" d="M264 -32T265 -63T268 -106H222Q222 -94 223 -64T225 -6Q132 -1 69 49V180Q92 113 134 77T225 35V327Q175 352 144 373T93 428T72 514Q72 591 115 638T225 692Q225 718 224 748T222 791H268Q267 779
266 748T264 693Q302 691 336 680T397 649V531Q374 587 339 616T264 652V383Q319 355 353 332T411 271T435 177Q435 98 386 51T264 -4Q264 -32 265 -63ZM225 652Q181 647 152 614T123 530Q123 486 149 457T225 402V652ZM264 35Q311 42 343 75T376 158Q376 213 347
246T264 308V35Z" />
<glyph unicode="%" glyph-name="percent" horiz-adv-x="520" d="M105 476T75 505T44 588Q44 620 60 645T101 685T155 699Q199 699 230 670T261 588Q261 560 246 534T204 492T149 476Q105 476 75 505ZM59 0L415 688H460L106 0H59ZM123 664T105 644T86 588Q86 552
105 532T152 511Q184 511 201 532T218 588Q218 624 199 644T152 664Q123 664 105 644ZM322 -11T291 18T260 100Q260 128 275 154T316 196T371 212Q415 212 445 183T476 100Q476 73 461 47T421 5T365 -11Q322 -11 291 18ZM338 177T320 154T302 100Q302 64 321 44T368
24Q397 24 416 46T435 100Q435 136 415 156T368 177Q338 177 320 154Z" />
<glyph unicode="&amp;" glyph-name="ampersand" horiz-adv-x="723" d="M662 -12T623 -12Q594 -12 552 14T448 91Q347 -12 250 -12Q158 -12 107 37T56 165Q56 228 92 271T201 360Q120 462 120 540Q120 592 143 628T205 682T286 700Q326 700 361 684T418 638T440
567Q440 509 399 465T282 370Q374 255 463 173Q503 236 526 284T549 370Q549 407 525 430H655Q632 407 587 306Q556 235 493 148Q499 144 511 134Q561 94 598 71T670 48Q680 48 704 63Q698 46 688 31Q662 -12 623 -12ZM229 669T205 639T181 568Q181 531 205 485T262
396Q324 434 350 471T377 557Q377 612 348 640T279 669Q229 669 205 639ZM171 300T146 266T120 187Q120 148 140 113T196 57T271 36Q314 36 345 55T419 117Q368 164 316 221T222 332Q171 300 146 266Z" />
<glyph unicode="&apos;" glyph-name="quotesingle" horiz-adv-x="224" d="M115 688H179L108 470H44L115 688Z" />
<glyph unicode="(" glyph-name="parenleft" horiz-adv-x="368" d="M341 731Q243 642 192 515T141 248Q141 108 192 -19T341 -235L326 -243Q197 -159 129 -27T61 248Q61 391 129 523T326 739L341 731Z" />
<glyph unicode=")" glyph-name="parenright" horiz-adv-x="368" d="M27 -235Q125 -146 176 -19T227 248Q227 388 176 515T27 731L42 739Q171 655 239 523T307 248Q307 105 239 -27T42 -243L27 -235Z" />
<glyph unicode="*" glyph-name="asterisk" horiz-adv-x="340" d="M212 568T247 555T302 541L253 474Q250 479 240 495T215 532T186 564Q183 555 181 535T178 494Q178 470 184 453L104 478Q108 482 121 497T149 533T171 570Q153 568 129 561T87 547T63 538V620Q68
618 86 610T129 595T172 586Q165 602 151 622T124 658T107 678L185 704Q181 689 181 663Q181 622 188 589Q201 601 216 621T241 659T254 681L303 613Q285 613 249 599T196 577Q212 568 247 555Z" />
<glyph unicode="+" glyph-name="plus" horiz-adv-x="560" d="M72 188V242H252V430H308V242H488V188H308V0H252V188H72Z" />
<glyph unicode="," glyph-name="comma" horiz-adv-x="256" d="M98 -123T116 -88T135 -17Q135 -8 134 -4H127Q102 -4 89 9T76 42Q76 62 89 76T126 91Q151 91 169 71T188 11Q188 -20 175 -52T135 -108T71 -133Q98 -123 116 -88Z" />
<glyph unicode="-" glyph-name="hyphen" horiz-adv-x="304" d="M64 242H240V184H64V242Z" />
<glyph unicode="." glyph-name="period" horiz-adv-x="256" d="M108 -10T93 3T77 41Q77 65 92 78T128 91Q149 91 164 78T179 41Q179 17 164 4T128 -10Q108 -10 93 3Z" />
<glyph unicode="/" glyph-name="slash" horiz-adv-x="412" d="M52 -29L367 727H412L100 -29H52Z" />
<glyph unicode="0" glyph-name="zero" horiz-adv-x="512" d="M48 437T75 522T149 654T257 700Q316 700 363 660T437 544T464 363Q464 251 437 166T363 34T255 -12Q196 -12 149 28T75 144T48 325Q48 437 75 522ZM392 424T373 503T321 622T247 664Q210 664 181 628T136
527T120 374Q120 264 139 185T191 65T265 24Q302 24 331 60T376 161T392 314Q392 424 373 503Z" />
<glyph unicode="1" glyph-name="one" horiz-adv-x="312" d="M95 5T109 26T124 105V619L35 615V629L188 700V105Q188 47 203 26T232 0H81Q95 5 109 26Z" />
<glyph unicode="2" glyph-name="two" horiz-adv-x="480" d="M102 93Q188 196 225 242T287 330Q313 374 324 414T336 497Q336 542 318 574T271 624T207 641Q144 641 106 595T67 479Q49 504 49 545Q49 583 68 619T127 677T221 700Q272 700 314 676T382 608T408 506Q408
412 333 311Q263 215 155 94L125 60H328Q380 60 406 75T441 106L422 0H24L102 93Z" />
<glyph unicode="3" glyph-name="three" horiz-adv-x="480" d="M343 371T383 320T424 204Q424 147 398 98T321 18T202 -12Q149 -12 113 2T38 40V120Q55 83 100 55T200 27Q273 27 312 71T352 182Q352 260 304 302T183 344H164V360Q230 383 271 425T312 524Q312 575
283 607T201 640Q169 640 141 624T96 578T78 505Q60 529 60 566Q60 627 105 663T213 700Q282 700 329 660T376 552Q376 508 347 463T266 390Q343 371 383 320Z" />
<glyph unicode="4" glyph-name="four" horiz-adv-x="504" d="M452 236V188H368V93Q368 20 398 0H275Q283 2 293 22T304 94V188H2L368 710V236H452ZM304 551L84 236H304V551Z" />
<glyph unicode="5" glyph-name="five" horiz-adv-x="448" d="M109 472Q191 470 246 453Q319 430 358 378T397 259Q397 182 353 122T234 27T70 -7H59L41 33H51Q180 33 256 86T332 237Q332 316 276 363T98 411H52L120 688H293Q375 688 392 705L372 624H145L109 472Z" />
<glyph unicode="6" glyph-name="six" horiz-adv-x="522" d="M402 204T388 237T347 292T282 313Q226 313 181 267Q181 283 196 305T241 344T312 361Q364 361 400 338T455 275T474 191Q474 139 451 93T382 17T274 -12Q208 -12 161 26T89 126T64 260Q64 347 107 438T226
600T395 701L434 683Q340 645 273 573T171 413T136 245Q136 178 155 128T206 52T277 25Q338 25 370 65T402 167Q402 204 388 237Z" />
<glyph unicode="7" glyph-name="seven" horiz-adv-x="456" d="M194 185T164 116T120 0H52Q80 63 127 153T252 391Q266 416 311 502T373 624H139Q60 624 31 575L61 688H456L228 250Q194 185 164 116Z" />
<glyph unicode="8" glyph-name="eight" horiz-adv-x="504" d="M122 313T85 271T48 168Q48 121 72 80T142 14T252 -12Q313 -12 359 14T431 82T456 172Q456 214 442 245T397 306T307 370Q362 398 395 442T428 541Q428 584 405 620T342 678T252 700Q202 700 162 678T100
618T77 535Q77 432 202 355Q122 313 85 271ZM253 401Q200 433 166 469T132 550Q132 600 167 632T252 664Q303 664 336 628T370 540Q370 484 343 447T273 389L253 401ZM256 323Q300 296 326 276T372 227T391 160Q391 99 351 62T252 24Q208 24 176 44T125 99T107
172Q107 218 125 249T169 297T235 335L256 323Z" />
<glyph unicode="9" glyph-name="nine" horiz-adv-x="522" d="M120 485T134 452T175 397T239 376Q295 376 340 422Q340 406 325 384T280 346T210 329Q158 329 122 352T67 414T48 498Q48 549 71 595T140 671T247 700Q313 700 360 662T431 562T456 429Q456 343 413
253T295 91T127 -10L88 8Q182 46 249 118T350 277T385 444Q385 511 366 560T315 636T244 663Q183 663 152 623T120 522Q120 485 134 452Z" />
<glyph unicode=":" glyph-name="colon" horiz-adv-x="256" d="M108 -10T93 3T77 41Q77 65 92 78T128 91Q149 91 164 78T179 41Q179 17 164 4T128 -10Q108 -10 93 3ZM108 267T93 280T77 318Q77 342 92 355T128 368Q149 368 164 355T179 318Q179 294 164 281T128
267Q108 267 93 280Z" />
<glyph unicode=";" glyph-name="semicolon" horiz-adv-x="256" d="M98 -123T116 -88T135 -17Q135 -8 134 -4H127Q102 -4 89 9T76 42Q76 62 89 76T126 91Q151 91 169 71T188 11Q188 -20 175 -52T135 -108T71 -133Q98 -123 116 -88ZM108 267T93 280T77 318Q77 342
92 355T128 368Q149 368 164 355T179 318Q179 294 164 281T128 267Q108 267 93 280Z" />
<glyph unicode="&lt;" glyph-name="less" horiz-adv-x="560" d="M97 238L463 439V377L165 216V212L463 56V-7L97 193V238Z" />
<glyph unicode="=" glyph-name="equal" horiz-adv-x="560" d="M72 334H488V280H72V334ZM72 155H488V101H72V155Z" />
<glyph unicode="&gt;" glyph-name="greater" horiz-adv-x="560" d="M97 55L396 215V218L97 376V438L463 237V192L97 -8V55Z" />
<glyph unicode="?" glyph-name="question" horiz-adv-x="444" d="M184 198T193 155Q167 176 154 201T141 251Q141 292 161 324T222 397Q264 441 284 473T305 549Q305 602 273 630T194 659Q155 659 118 637T58 581V666Q124 698 202 698Q287 698 335 657T384 549Q384
497 358 459T279 371Q246 338 228 318T197 272T184 216Q184 198 193 155ZM161 -10T146 3T130 41Q130 65 145 78T181 91Q202 91 217 78T232 41Q232 17 217 4T181 -10Q161 -10 146 3Z" />
<glyph unicode="@" glyph-name="at" horiz-adv-x="945" d="M542 -10T539 82Q493 -10 401 -10Q352 -10 324 27T296 133Q296 194 320 256T390 360T496 401Q518 401 547 393Q554 391 570 386T598 380Q619 380 646 394L596 102Q594 94 594 80Q594 56 610 40T650 24Q692
24 728 53T786 134T808 254Q808 327 772 391T668 495T508 535Q402 535 322 488T199 358T155 176Q155 82 195 5T316 -119T512 -165Q598 -165 675 -128T805 -33L829 -51Q770 -117 689 -156T510 -195Q384 -195 295 -147T161 -16T116 171Q116 278 162 368T298 511T514
564Q607 564 683 524T802 412T846 254Q846 178 818 118T743 24T643 -10Q542 -10 539 82ZM454 375T425 336T378 238T361 129Q361 77 378 51T422 24Q450 24 475 44T517 98Q534 131 548 201T562 306Q562 339 546 357T488 375Q454 375 425 336Z" />
<glyph unicode="A" glyph-name="A" horiz-adv-x="688" d="M211 267L147 108Q132 71 132 47Q132 14 162 0H19Q29 0 48 20T92 99L353 720L612 96Q634 42 654 22T687 0H521Q546 12 546 37Q546 58 530 97L460 267H211ZM444 308L335 575L228 308H444Z" />
<glyph unicode="B" glyph-name="B" horiz-adv-x="592" d="M376 8T343 4T250 0H85Q98 3 113 22T128 98V593Q128 645 114 664T86 688H250Q314 688 347 683T406 666Q450 645 474 607T498 525Q498 458 458 410T351 347Q396 342 436 321T502 264T528 182Q528 118 494
78T402 17Q376 8 343 4ZM354 633T331 640T269 648H200V364H281Q317 364 341 375T383 404Q402 423 413 450T424 505Q424 539 412 569T374 618Q354 633 331 640ZM376 310T348 317T272 324H200V40H295Q367 40 407 74T448 182Q448 251 395 295Q376 310 348 317Z" />
<glyph unicode="C" glyph-name="C" horiz-adv-x="704" d="M598 30T537 9T414 -12Q321 -12 241 31T113 155T64 345Q64 447 108 528T235 654T428 700Q545 700 636 649V538Q605 593 546 625T420 658Q335 658 273 618T177 509T144 353Q144 256 181 184T283 74T426
35Q553 35 636 109V61Q598 30 537 9Z" />
<glyph unicode="D" glyph-name="D" horiz-adv-x="744" d="M439 0T282 0H85Q85 -3 97 5T118 37T128 104V596Q128 635 119 655T97 683T85 688H281Q434 688 523 638Q602 594 645 519T688 350Q688 248 648 174T533 56Q439 0 282 0ZM450 622T400 635T281 648H200V40H281Q363
40 415 54T506 97Q555 135 581 196T608 340Q608 427 578 492T494 593Q450 622 400 635Z" />
<glyph unicode="E" glyph-name="E" horiz-adv-x="528" d="M85 0Q85 -3 97 4T118 34T128 100V591Q128 632 119 653T97 683T85 688H447V588Q429 648 339 648H200V364H372Q392 364 406 370T427 384T435 393V296Q434 298 427 305T407 318T373 324H200V40H356Q401 40
433 58T480 106L462 0H85Z" />
<glyph unicode="F" glyph-name="F" horiz-adv-x="496" d="M200 648V364H373Q410 364 422 375T435 393V295Q435 298 431 304T413 317T373 324H200V93Q200 54 210 34T232 6T244 0H85Q85 -2 97 5T118 32T128 93V590Q128 631 119 652T97 682T85 688H447V586Q442 610
419 629T354 648H200Z" />
<glyph unicode="G" glyph-name="G" horiz-adv-x="752" d="M324 -11T243 29T113 149T64 344Q64 446 110 527T241 654T436 700Q506 700 562 684T652 649V538Q621 592 560 625T434 658Q345 658 280 621T179 514T144 352Q144 251 184 179T292 71T438 35Q474 35 512
43T584 68V233Q584 264 574 281T552 306T540 312H700Q700 314 688 308T666 286T656 239V57Q603 24 542 7T419 -11Q324 -11 243 29Z" />
<glyph unicode="H" glyph-name="H" horiz-adv-x="760" d="M532 -3T544 4T566 32T576 93V320H200V93Q200 53 210 33T232 5T244 0H85Q85 -3 97 4T118 32T128 93V595Q128 635 119 655T97 683T85 688H244Q244 690 232 683T210 656T200 595V364H576V595Q576 635 566
655T544 683T532 688H691Q691 691 679 684T658 656T648 595V93Q648 53 658 33T680 5T692 0H532Q532 -3 544 4Z" />
<glyph unicode="I" glyph-name="I" horiz-adv-x="312" d="M84 -3T96 4T118 32T128 93V595Q128 635 119 655T97 683T85 688H244Q244 690 232 683T210 656T200 595V93Q200 53 210 33T232 5T244 0H84Q84 -3 96 4Z" />
<glyph unicode="J" glyph-name="J" horiz-adv-x="312" d="M200 31Q200 -27 175 -74T107 -147T16 -173Q68 -152 98 -97T128 35V596Q128 635 118 655T96 683T84 688H243Q243 690 231 683T210 656T200 596V31Z" />
<glyph unicode="K" glyph-name="K" horiz-adv-x="664" d="M514 0L200 350V92Q200 42 214 22T240 0H86Q98 2 113 21T128 92V595Q128 646 114 665T86 688H240Q228 686 214 667T200 595V353L437 589Q494 646 494 667Q494 685 480 688H637Q621 686 587 667T498 593L274
371L527 96Q573 43 599 24T637 0H514Z" />
<glyph unicode="L" glyph-name="L" horiz-adv-x="506" d="M128 635T119 655T97 683T85 688H244Q244 690 232 683T210 656T200 595V40H364Q409 40 441 58T488 106L470 0H85Q85 -3 97 4T118 34T128 100V595Q128 635 119 655Z" />
<glyph unicode="M" glyph-name="M" horiz-adv-x="888" d="M664 0Q676 2 690 21T704 94V594L442 -11L176 593V99Q176 45 193 24T225 0H77Q92 2 110 22T128 99V600Q128 648 111 666T77 688H212L457 129L698 688H819Q806 686 791 667T776 597V90Q776 40 791 21T819 0H664Z" />
<glyph unicode="N" glyph-name="N" horiz-adv-x="800" d="M729 688Q715 685 702 666T688 597V-28L176 569V90Q176 42 193 23T226 0H85Q99 3 113 22T128 91V591Q128 625 105 653T47 688H171L640 141V597Q640 674 588 688H729Z" />
<glyph unicode="O" glyph-name="O" horiz-adv-x="818" d="M64 442T109 525T237 654T428 700Q518 700 596 661T722 542T770 352Q770 246 725 163T597 34T406 -12Q316 -12 238 27T112 146T64 336Q64 442 109 525ZM690 428T653 501T550 616T402 658Q327 658 269 620T177
513T144 351Q144 260 181 187T284 72T432 30Q507 30 565 68T657 175T690 337Q690 428 653 501Z" />
<glyph unicode="P" glyph-name="P" horiz-adv-x="548" d="M516 444T489 399T410 327T290 301Q248 301 200 310V92Q200 53 210 33T232 5T244 0H85Q85 -2 97 5T118 32T128 92V593Q128 633 119 654T97 682T85 688H281Q332 688 365 682T423 662Q468 639 492 596T516
502Q516 444 489 399ZM439 560T395 604T278 648H200V349Q243 341 290 341Q360 341 399 381T439 489Q439 560 395 604Z" />
<glyph unicode="Q" glyph-name="Q" horiz-adv-x="834" d="M64 442T109 525T237 654T428 700Q518 700 596 661T722 542T770 352Q770 244 724 161T593 32Q636 -11 691 -46T794 -102T866 -123H872Q855 -131 828 -136T775 -141Q722 -141 653 -106T510 0Q453 -12 406
-12Q316 -12 238 27T112 146T64 336Q64 442 109 525ZM690 428T653 501T550 616T402 658Q327 658 269 620T177 513T144 351Q144 260 181 187T284 72T432 30Q507 30 565 68T657 175T690 337Q690 428 653 501Z" />
<glyph unicode="R" glyph-name="R" horiz-adv-x="620" d="M332 346T366 367T417 423T435 496Q435 535 419 569T368 626T285 648H200V92Q200 52 210 32T232 5T244 0H85Q85 -2 97 5T118 32T128 92V592Q128 633 119 654T97 683T85 688H283Q361 688 411 663T484 597T507
508Q507 468 488 430T434 363T351 323L335 320L511 96Q546 57 569 36T602 8T615 0H498L226 346H286Q332 346 366 367Z" />
<glyph unicode="S" glyph-name="S" horiz-adv-x="528" d="M215 -12T167 2T81 43V164Q107 97 160 63T272 28Q330 28 369 66T408 162Q408 200 393 227T343 277T247 330Q160 370 121 413T81 519Q81 572 106 613T175 677T271 700Q316 700 359 688T439 652V544Q415
599 367 629T268 660Q211 660 176 623T141 535Q141 498 162 472T213 427T299 383Q355 356 391 333T451 273T475 183Q475 123 447 79T371 12T267 -12Q215 -12 167 2Z" />
<glyph unicode="T" glyph-name="T" horiz-adv-x="552" d="M104 648T75 631T33 588L47 688H521L535 588Q522 614 493 631T420 648H320V93Q320 53 330 32T352 4T364 0H205Q205 -3 217 4T238 31T248 93V648H148Q104 648 75 631Z" />
<glyph unicode="U" glyph-name="U" horiz-adv-x="712" d="M618 239Q618 160 588 104T504 18T377 -12Q258 -12 193 54T128 237V595Q128 635 119 655T98 683T86 688H242Q242 690 231 683T210 656T200 598V237Q200 140 246 87T383 34Q466 34 514 84T562 234V595Q562
635 552 655T530 683T518 688H662Q662 690 650 683T628 656T618 595V239Z" />
<glyph unicode="V" glyph-name="V" horiz-adv-x="628" d="M534 655T523 669T489 688H657Q644 686 622 665T576 587L323 -24L66 590Q44 643 23 663T-13 688H154Q127 681 127 653Q127 638 134 621T142 601L336 126L524 588Q534 611 534 635Q534 655 523 669Z" />
<glyph unicode="W" glyph-name="W" horiz-adv-x="960" d="M850 624T850 644Q850 685 814 688H969Q954 685 931 665T887 587L671 -24L478 530L279 -24L82 590Q56 674 6 688H172Q144 683 144 655Q144 641 156 605L167 570L293 153L496 707L689 157L838 588Q850 624
850 644Z" />
<glyph unicode="X" glyph-name="X" horiz-adv-x="716" d="M531 3T531 18Q531 36 516 58T499 84L359 300L202 90Q187 70 179 55T170 26Q170 4 202 0H52Q52 -2 64 5T98 33T153 98L335 339L174 588Q146 631 124 653T88 682T74 688H241Q222 684 222 669Q222 654 244
620L383 404L528 596Q559 637 559 662Q559 685 529 688H678Q678 689 666 684T634 661T589 609L407 366L568 116Q600 66 625 41T665 7T680 0H513Q531 3 531 18Z" />
<glyph unicode="Y" glyph-name="Y" horiz-adv-x="560" d="M582 688Q572 686 550 666T497 592L324 295V93Q324 42 338 22T364 0H212Q224 2 238 21T252 93V296L81 593Q51 645 29 664T-6 688H162Q137 683 137 656Q137 647 143 635T162 599L307 344L452 595Q469 623
469 652Q469 671 458 678T435 688H582Z" />
<glyph unicode="Z" glyph-name="Z" horiz-adv-x="652" d="M98 648T80 588V688H588L172 40H480Q525 40 557 58T604 106L586 0H58L475 648H188Q98 648 80 588Z" />
<glyph unicode="[" glyph-name="bracketleft" horiz-adv-x="368" d="M80 727H324V687H144V-192H324V-232H80V727Z" />
<glyph unicode="\" glyph-name="backslash" horiz-adv-x="464" d="M97 727L412 -29H364L52 727H97Z" />
<glyph unicode="]" glyph-name="bracketright" horiz-adv-x="368" d="M44 -192H224V687H44V727H288V-232H44V-192Z" />
<glyph unicode="^" glyph-name="asciicircum" horiz-adv-x="560" d="M280 618H276L152 294H91L252 692H308L469 294H406L280 618Z" />
<glyph unicode="_" glyph-name="underscore" horiz-adv-x="464" d="M0 -64H464V-104H0V-64Z" />
<glyph unicode="`" glyph-name="grave" horiz-adv-x="304" d="M125 637L198 447L36 637H125Z" />
<glyph unicode="a" glyph-name="a" horiz-adv-x="400" d="M309 -11T287 5T262 42Q244 16 215 2T156 -12Q110 -12 79 14T48 84Q48 195 256 195V206Q256 261 240 287Q218 324 168 324Q129 324 104 301T78 241Q72 251 69 259T65 281Q65 317 99 344T188 372Q266 372
299 320Q310 304 315 280T320 217V98Q320 67 337 50T387 33H400L341 -12Q309 -11 287 5ZM176 165T148 145T120 91Q120 63 135 47T175 31Q194 31 211 40T240 65Q256 86 256 122V165Q176 165 148 145Z" />
<glyph unicode="b" glyph-name="b" horiz-adv-x="464" d="M80 657T67 672T36 688H30L144 740V307Q156 327 187 349T270 372Q314 372 349 350T404 289T424 202Q424 141 399 94T334 19Q289 -12 232 -12Q192 -12 147 5Q126 13 115 13Q98 13 80 -7V615Q80 657 67 672ZM144
90T151 70T175 40Q200 24 239 24Q287 24 319 64T352 172Q352 235 323 281T237 328Q216 328 194 317T158 285T144 240V122Q144 90 151 70Z" />
<glyph unicode="c" glyph-name="c" horiz-adv-x="400" d="M163 -12T123 14T61 83T40 174Q40 224 61 269T124 343T221 372Q288 372 318 343T360 282L294 250Q288 286 265 311T207 336Q158 336 131 298T104 205Q104 166 121 130T171 70T248 47Q284 47 316 63T368
108Q357 52 316 20T217 -12Q163 -12 123 14Z" />
<glyph unicode="d" glyph-name="d" horiz-adv-x="464" d="M320 615Q320 657 307 672T276 688H270L384 740V113Q384 71 397 56T428 40H434L320 -12V53Q308 33 277 11T194 -12Q150 -12 115 10T60 71T40 158Q40 219 65 266T130 341Q175 372 228 372Q263 372 286 363T320
345V615ZM112 125T141 79T227 32Q248 32 270 43T306 75T320 120V238Q320 270 313 290T289 320Q264 336 228 336Q178 336 145 296T112 188Q112 125 141 79Z" />
<glyph unicode="e" glyph-name="e" horiz-adv-x="400" d="M159 -12T120 14T61 83T40 174Q40 236 64 281T128 349T209 372Q269 372 312 329T360 208H100Q100 160 118 124T166 68T233 48Q327 48 360 108Q351 54 311 21T213 -12Q159 -12 120 14ZM163 339T135 312T101
240H283Q283 286 259 312T202 339Q163 339 135 312Z" />
<glyph unicode="f" glyph-name="f" horiz-adv-x="256" d="M317 671T292 681T240 692Q190 692 167 657T144 565V364H248V324H144V100Q144 57 153 35T173 5T184 0H39Q39 -3 50 4T71 34T80 100V324H24V364H80V503Q80 573 103 626T169 710T267 740Q310 740 335 731V653Q317
671 292 681Z" />
<glyph unicode="g" glyph-name="g" horiz-adv-x="416" d="M399 364V324H316Q352 280 352 234Q352 195 333 162T279 108T196 88Q172 88 148 92Q112 72 112 47Q112 37 117 28T132 15Q146 9 168 7T214 3T248 2Q326 -1 359 -28T392 -93Q392 -133 367 -166T293 -219T182
-239Q136 -239 102 -226T50 -192T32 -147Q32 -115 59 -88T128 -46Q95 -44 76 -24T56 19Q56 44 73 62T122 102Q86 118 67 152T48 224Q48 261 66 295T121 350T208 372Q234 372 262 364H399ZM160 336T136 310T112 242Q112 191 138 159T203 126Q243 126 265 152T288
223Q288 273 262 304T197 336Q160 336 136 310ZM180 -58Q143 -58 120 -81T96 -132Q96 -159 126 -178T208 -198Q269 -198 302 -175T336 -118Q336 -88 304 -73T201 -58H180Z" />
<glyph unicode="h" glyph-name="h" horiz-adv-x="464" d="M166 339T198 355T265 372Q319 372 351 338T384 238V99Q384 57 393 35T413 5T424 0H280Q280 -3 291 4T311 34T320 100V214Q320 248 311 268T287 301Q264 320 232 320Q196 320 170 297T144 231V100Q144
57 153 35T173 5T185 0H41Q41 -3 52 4T71 34T80 100V615Q80 657 67 672T36 688H30L144 740V313Q166 339 198 355Z" />
<glyph unicode="i" glyph-name="i" horiz-adv-x="224" d="M80 293T67 308T36 324L144 372V100Q144 56 153 34T173 5T184 0H40Q40 -3 51 4T71 34T80 100V251Q80 293 67 308ZM345 493T333 507T320 541Q320 560 332 574T367 589Q389 589 401 575T414 541Q414 522
402 508T367 493Q345 493 333 507Z" />
<glyph unicode="j" glyph-name="j" horiz-adv-x="224" d="M345 493T333 507T320 541Q320 560 332 574T367 589Q389 589 401 575T414 541Q414 522 402 508T367 493Q345 493 333 507ZM80 293T67 308T36 324L144 372V-94Q144 -161 116 -199T41 -237Q13 -237 -20 -222Q31
-216 53 -195Q68 -181 74 -158T80 -95V251Q80 293 67 308Z" />
<glyph unicode="k" glyph-name="k" horiz-adv-x="432" d="M80 657T67 672T36 688H30L144 740V196L244 281Q266 300 281 318T296 344Q296 352 291 356T281 362T274 364H418Q415 363 401 355T358 326T288 271L214 210L333 87Q372 47 395 32T430 16H434Q419 6 398
0T362 -6Q343 -6 325 8T278 53L263 68L144 193V100Q144 56 153 34T174 5T186 0H42Q42 -3 52 4T71 34T80 100V615Q80 657 67 672Z" />
<glyph unicode="l" glyph-name="l" horiz-adv-x="224" d="M80 657T67 672T36 688H30L144 740V100Q144 56 153 34T173 5T184 0H40Q40 -3 51 4T71 34T80 100V615Q80 657 67 672Z" />
<glyph unicode="m" glyph-name="m" horiz-adv-x="704" d="M144 304Q169 335 200 353T265 372Q302 372 330 355T372 304Q399 338 433 355T505 372Q559 372 591 338T624 238V99Q624 44 638 23T663 0H521Q533 2 546 23T560 100V214Q560 248 551 268T527 301Q504 320
472 320Q437 320 411 297T384 231V100Q384 44 397 23T423 0H281Q293 2 306 23T320 100V214Q320 248 311 268T287 301Q264 320 232 320Q196 320 170 297T144 231V100Q144 43 158 23T184 0H42Q54 2 67 23T80 100V251Q80 293 67 308T36 324L144 372V304Z" />
<glyph unicode="n" glyph-name="n" horiz-adv-x="464" d="M167 335T198 353T265 372Q319 372 351 338T384 238V99Q384 57 393 35T413 5T424 0H280Q280 -3 291 4T311 34T320 100V214Q320 248 311 268T287 301Q264 320 232 320Q196 320 170 297T144 231V100Q144
57 153 35T173 5T185 0H41Q41 -3 52 4T71 34T80 100V251Q80 293 67 308T36 324L144 372V304Q167 335 198 353Z" />
<glyph unicode="o" glyph-name="o" horiz-adv-x="464" d="M40 223T65 269T136 344T236 372Q289 372 332 348T399 281T424 189Q424 137 399 91T328 16T228 -12Q175 -12 132 12T65 79T40 171Q40 223 65 269ZM352 202T336 243T291 310T224 336Q171 336 142 296T112
200Q112 158 128 117T173 50T240 24Q293 24 322 64T352 160Q352 202 336 243Z" />
<glyph unicode="p" glyph-name="p" horiz-adv-x="464" d="M144 -176T153 -198T173 -227T184 -232H40Q40 -235 51 -228T71 -198T80 -132V251Q80 293 67 308T36 324L144 372V307Q156 327 187 349T270 372Q314 372 349 350T404 289T424 202Q424 141 399 94T334 19Q289
-12 236 -12Q201 -12 178 -3T144 15V-132Q144 -176 153 -198ZM352 235T323 281T237 328Q216 328 194 317T158 285T144 240V122Q144 90 151 70T175 40Q200 24 236 24Q286 24 319 64T352 172Q352 235 323 281Z" />
<glyph unicode="q" glyph-name="q" horiz-adv-x="464" d="M308 33T277 11T194 -12Q150 -12 115 10T60 71T40 158Q40 219 65 266T130 341Q175 372 232 372Q272 372 317 355Q338 347 349 347Q366 347 384 367V-132Q384 -176 393 -198T413 -227T424 -232H280Q280
-235 291 -228T311 -198T320 -132V53Q308 33 277 11ZM320 270T313 290T289 320Q264 336 225 336Q177 336 145 296T112 188Q112 125 141 79T227 32Q248 32 270 43T306 75T320 120V238Q320 270 313 290Z" />
<glyph unicode="r" glyph-name="r" horiz-adv-x="320" d="M159 313T193 342T263 372Q285 372 296 366V284Q274 311 234 311Q192 311 168 275T144 181V100Q144 44 157 23T182 0H41Q53 2 66 22T80 100V251Q80 293 67 308T36 324L144 372V281Q159 313 193 342Z" />
<glyph unicode="s" glyph-name="s" horiz-adv-x="344" d="M141 -12T109 -2T56 24V112Q75 65 107 45T178 24Q209 24 228 41T248 78Q248 100 228 115T167 149Q114 174 85 198T56 263Q56 308 90 340T179 372Q217 372 245 363T287 343L271 268Q259 302 231 319T172
336Q145 336 128 320T110 284Q110 257 131 241T197 206Q249 184 276 162T304 98Q304 69 288 44T242 4T171 -12Q141 -12 109 -2Z" />
<glyph unicode="t" glyph-name="t" horiz-adv-x="304" d="M130 -12T105 21T80 102V324H24L144 460V364H272V324H144V113Q144 75 164 56T210 36Q230 36 249 48T280 81Q265 -12 179 -12Q130 -12 105 21Z" />
<glyph unicode="u" glyph-name="u" horiz-adv-x="464" d="M270 -12T197 -12Q146 -12 113 21T80 124V266Q80 307 68 329T39 359T23 364H144V139Q144 92 169 67T230 42Q265 42 292 65T320 127V273Q320 312 310 332T287 359T274 364H384V113Q384 71 397 56T428 40H434L320
-12V58Q270 -12 197 -12Z" />
<glyph unicode="v" glyph-name="v" horiz-adv-x="400" d="M200 -12L64 295Q51 324 38 339T14 360T4 364H155Q153 364 146 362T133 352T126 330Q126 313 136 292L215 111L289 282Q296 300 296 319Q296 337 289 349T264 364H397Q397 365 387 360T363 339T335 291L200 -12Z" />
<glyph unicode="w" glyph-name="w" horiz-adv-x="632" d="M518 281Q525 299 525 318Q525 336 518 348T493 363H627Q616 361 599 346T564 290L436 -13L313 246L195 -12L62 295Q45 333 30 347T5 364H151Q125 359 125 330Q125 314 134 292L210 107L329 372L451 106L518 281Z" />
<glyph unicode="x" glyph-name="x" horiz-adv-x="400" d="M241 0T246 1T257 8T262 23Q262 43 246 66L196 140L153 81Q128 46 128 27Q128 16 134 10T146 2T154 0H23Q23 -1 33 5T62 30T110 87L174 173L110 271Q85 310 66 330T35 358T23 364H179Q177 364 172 362T161
353T156 335Q156 320 169 300L217 227L261 287Q285 319 285 338Q285 348 280 354T270 362T262 364H395Q395 365 383 359T352 336T306 285L237 195L314 79Q337 44 355 27T384 4T395 0H239Q241 0 246 1Z" />
<glyph unicode="y" glyph-name="y" horiz-adv-x="400" d="M180 30L63 295Q46 333 31 347T6 364H152Q143 362 134 355T125 330Q125 313 135 292L216 105L288 282Q295 300 295 319Q295 337 288 349T263 364H397Q386 362 369 347T334 291L198 -25Q171 -88 158 -124T133
-200Q128 -219 123 -232H21Q48 -219 87 -159T169 3L180 30Z" />
<glyph unicode="z" glyph-name="z" horiz-adv-x="384" d="M264 40Q303 40 317 61T336 103V0H38L240 324H135Q91 324 74 302T55 259V364H338L139 40H264Z" />
<glyph unicode="{" glyph-name="braceleft" horiz-adv-x="368" d="M200 227T200 124V-120Q200 -155 212 -177T253 -200H324V-232H287Q215 -232 172 -210T128 -121V152Q128 199 114 215T63 232H17V264H63Q99 264 113 280T128 344V616Q128 682 171 704T287 727H324V695H253Q224
695 212 677T200 625V372Q200 269 101 248Q200 227 200 124Z" />
<glyph unicode="|" glyph-name="bar" horiz-adv-x="208" d="M80 727H128V-232H80V727Z" />
<glyph unicode="}" glyph-name="braceright" horiz-adv-x="368" d="M168 658T156 676T115 695H44V727H81Q153 727 196 705T240 616V344Q240 297 254 281T306 264H352V232H306Q269 232 255 216T240 152V-121Q240 -187 197 -209T81 -232H44V-200H115Q143 -200 155
-178T168 -120V124Q168 170 191 203T268 248Q168 269 168 372V625Q168 658 156 676Z" />
<glyph unicode="~" glyph-name="asciitilde" horiz-adv-x="560" d="M354 162T328 172T261 205Q230 222 213 230T178 238Q136 238 135 168H78Q78 233 108 265T184 297Q212 297 237 287T301 255Q330 238 348 230T383 222Q422 222 424 292H480Q480 228 456 195T384
162Q354 162 328 172Z" />
<glyph unicode="&#xa0;" glyph-name="uni00A0" horiz-adv-x="256" />
<glyph unicode="&#xa1;" glyph-name="exclamdown" horiz-adv-x="304" d="M136 364T123 379T110 414Q110 435 123 450T159 465Q182 465 194 450T207 414Q207 393 195 379T159 364Q136 364 123 379ZM192 -179T196 -200T205 -228T211 -232H111Q116 -232 122 -214T128
-136V102Q128 169 135 207Q141 238 149 266T160 303Q163 295 170 267T184 208Q192 171 192 101V-136Q192 -179 196 -200Z" />
<glyph unicode="&#xa2;" glyph-name="cent" horiz-adv-x="400" d="M246 76H206V223Q147 231 105 276T62 394Q62 475 104 527T206 595V727H246V598Q284 597 307 589T353 562L321 501Q293 544 246 553V267Q281 270 313 291T366 347Q358 293 325 261T246 223V76ZM167
548T145 511T122 425Q122 360 145 323T206 273V554Q167 548 145 511Z" />
<glyph unicode="&#xa3;" glyph-name="sterling" horiz-adv-x="480" d="M291 -11T223 8Q185 17 162 21T113 26Q91 26 63 16T17 -7V51Q86 54 112 96T145 209L151 324H70V364H154Q155 385 158 446T167 531Q182 605 228 652T346 700Q368 700 387 694T414 674L377 613Q374
634 356 649T315 664Q278 664 255 634T227 558Q223 520 223 422Q223 376 222 364H328V324H222Q217 237 213 211Q203 148 181 118T109 59Q140 57 192 51Q264 43 293 43Q350 43 388 61T440 106L450 33Q437 14 406 2T332 -11Q291 -11 223 8Z" />
<glyph unicode="&#xa4;" glyph-name="currency" horiz-adv-x="455" d="M325 68Q286 39 236 39Q183 39 147 68L103 27L74 57L116 99Q86 138 86 188Q86 238 116 278L76 319L106 350L147 308Q168 324 189 331T236 339Q284 339 325 308L368 350L396 319L356 278Q371
258 377 237T384 189Q384 138 355 99L396 56L366 26L325 68ZM191 298T160 267T128 189Q128 143 159 112T236 80Q281 80 312 111T344 189Q344 236 313 267T236 298Q191 298 160 267Z" />
<glyph unicode="&#xa5;" glyph-name="yen" horiz-adv-x="560" d="M516 686T493 666T438 592L327 397H458V357H312V257H458V217H312V91Q312 52 326 28T358 0H203Q220 4 234 26T248 91V217H102V257H248V357H102V397H233L115 593Q84 644 64 664T33 688H187Q178 686
169 679T159 655Q159 634 179 599L290 407L394 594Q413 628 413 652Q413 671 403 679T382 688H527Q516 686 493 666Z" />
<glyph unicode="&#xa6;" glyph-name="brokenbar" horiz-adv-x="208" d="M80 727H128V381H80V727ZM80 114H128V-232H80V114Z" />
<glyph unicode="&#xa7;" glyph-name="section" horiz-adv-x="476" d="M347 50T372 16T398 -75Q398 -148 350 -194T221 -241Q180 -241 143 -226T84 -186L112 -114Q133 -153 174 -176T257 -199Q296 -199 324 -173T352 -99Q352 -58 322 -26T235 42Q145 100 109 142T72
238Q72 288 99 331T173 395Q127 426 102 459T77 546Q77 612 122 656T245 700Q319 700 370 654L343 586Q324 622 288 641T210 660Q173 660 147 637T121 569Q121 531 150 502T240 434Q302 394 335 367T385 309T403 238Q403 188 376 145T301 81Q347 50 372 16ZM162
362T141 331T119 268Q119 231 148 198T258 110L280 95Q312 112 334 144T356 208Q356 242 327 277T217 366L195 380Q162 362 141 331Z" />
<glyph unicode="&#xa8;" glyph-name="dieresis" horiz-adv-x="304" d="M56 488T46 500T35 528Q35 544 45 556T74 568Q92 568 102 556T113 528Q113 512 103 500T74 488Q56 488 46 500ZM212 488T202 500T191 528Q191 544 201 556T230 568Q248 568 258 556T269 528Q269
512 259 500T230 488Q212 488 202 500Z" />
<glyph unicode="&#xa9;" glyph-name="copyright" horiz-adv-x="800" d="M497 700T579 652T709 523T757 344Q757 247 709 166T579 36T400 -12Q303 -12 221 36T91 165T43 344Q43 441 91 522T221 652T400 700Q497 700 579 652ZM488 16T562 60T681 179T725 344Q725
433 681 508T563 628T400 672Q312 672 238 628T119 509T75 344Q75 255 119 180T237 60T400 16Q488 16 562 60ZM532 139T491 125T409 110Q347 110 294 138T208 219T175 345Q175 412 205 465T289 549T417 579Q495 579 559 544V455Q534 498 495 523T412 548Q359 548
320 522T259 452T237 351Q237 288 261 241T325 170T416 145Q499 145 559 199V160Q532 139 491 125Z" />
<glyph unicode="&#xaa;" glyph-name="ordfeminine" horiz-adv-x="304" d="M227 425T211 436T193 463Q184 444 163 434T118 424Q86 424 63 441T40 493Q40 574 189 574V591Q189 626 172 643T130 661Q102 661 82 644T61 595Q52 607 52 627Q52 662 78 681T140 700Q178
700 206 676T234 608V507Q234 488 248 474T285 460Q291 460 299 464L253 424Q227 425 211 436ZM130 551T109 538T88 498Q88 480 101 468T135 456Q157 456 173 472T189 509V551Q130 551 109 538Z" />
<glyph unicode="&#xab;" glyph-name="guillemotleft" horiz-adv-x="448" d="M331 204L425 352H477L389 204L477 52H425L331 204ZM227 204L321 352H373L285 204L373 52H321L227 204Z" />
<glyph unicode="&#xac;" glyph-name="logicalnot" horiz-adv-x="560" d="M440 257H78V311H494V106H440V257Z" />
<glyph unicode="&#xad;" glyph-name="uni00AD" horiz-adv-x="304" d="M64 238H240V180H64V238Z" />
<glyph unicode="&#xae;" glyph-name="registered" horiz-adv-x="800" d="M497 700T579 652T709 523T757 344Q757 247 709 166T579 36T400 -12Q303 -12 221 36T91 165T43 344Q43 441 91 522T221 652T400 700Q497 700 579 652ZM488 16T562 60T681 179T725 344Q725
433 681 508T563 628T400 672Q312 672 238 628T119 509T75 344Q75 255 119 180T237 60T400 16Q488 16 562 60ZM433 349T457 377T481 443Q481 481 458 509T391 538H331V182Q331 157 336 145T347 128T354 125H253Q253 123 259 127T271 145T276 182V508Q276 533 271
546T260 564T253 567H389Q465 567 501 533T537 450Q537 405 508 373T432 330L556 189Q577 165 592 151T615 131T624 125H540L345 349H391Q433 349 457 377Z" />
<glyph unicode="&#xaf;" glyph-name="overscore" horiz-adv-x="304" d="M30 560H274V514H30V560Z" />
<glyph unicode="&#xb0;" glyph-name="degree" horiz-adv-x="360" d="M223 701T253 671T283 597Q283 554 253 524T180 493Q137 493 107 523T77 597Q77 640 107 670T180 701Q223 701 253 671ZM206 534T224 552T242 597Q242 623 224 641T180 660Q154 660 136 642T118
597Q118 571 136 553T180 534Q206 534 224 552Z" />
<glyph unicode="&#xb1;" glyph-name="plusminus" horiz-adv-x="560" d="M308 107H252V259H77V313H252V463H308V313H483V259H308V107ZM77 54H483V0H77V54Z" />
<glyph unicode="&#xb2;" glyph-name="uni00B2" horiz-adv-x="304" d="M81 403Q146 478 170 516Q182 538 188 556T194 594Q194 627 177 645T137 663Q107 663 89 639T70 573Q53 592 53 620Q53 652 76 676T144 700Q185 700 214 674T243 603Q243 557 205 505Q188 480
144 434L111 397L103 387H198Q217 387 231 393T254 406T267 415L253 350H37L81 403Z" />
<glyph unicode="&#xb3;" glyph-name="uni00B3" horiz-adv-x="304" d="M190 630T174 646T136 663Q108 663 91 641T74 583Q58 605 58 629Q58 658 82 679T141 700Q178 700 205 678T233 621Q233 600 219 579T179 543Q216 534 236 510T256 454Q256 406 223 376T135
345Q83 345 44 371V422Q59 399 83 387T134 374Q168 374 187 393T206 444Q206 479 183 497T127 516H114V529Q146 537 168 558T190 607Q190 630 174 646Z" />
<glyph unicode="&#xb4;" glyph-name="acute" horiz-adv-x="304" d="M194 637H283L121 447L194 637Z" />
<glyph unicode="&#xb5;" glyph-name="uni00B5" horiz-adv-x="437" d="M304 47Q284 19 259 4T209 -11Q177 -11 155 11V-232H92L91 266Q91 307 79 329T51 359T35 364H156V129Q156 84 175 61T224 38Q253 38 276 60T299 118V273Q299 312 289 332T265 359T252 364H363L362
108Q362 65 375 50T405 34Q409 34 411 34T414 35L306 -19L304 47Z" />
<glyph unicode="&#xb6;" glyph-name="paragraph" horiz-adv-x="560" d="M523 691T510 683T486 651T475 583V-232H424V644H328V-232H280V176Q211 176 152 210T59 304T24 432Q24 501 58 560T152 653T280 688H523Q523 691 510 683Z" />
<glyph unicode="&#xb7;" glyph-name="middot" horiz-adv-x="256" d="M108 160T93 173T77 211Q77 235 92 248T128 261Q149 261 164 248T179 211Q179 187 164 174T128 160Q108 160 93 173Z" />
<glyph unicode="&#xb8;" glyph-name="cedilla" horiz-adv-x="304" d="M286 -144T266 -163T208 -183Q185 -183 165 -173T133 -141Q164 -152 186 -152Q207 -152 218 -141T230 -113Q230 -98 219 -87T187 -75H178L207 -8H244L222 -56Q253 -60 269 -77T286 -118Q286
-144 266 -163Z" />
<glyph unicode="&#xb9;" glyph-name="uni00B9" horiz-adv-x="312" d="M80 365T80 406V655L53 654Q44 653 28 653V662L126 709V406Q126 365 156 350H50Q80 365 80 406Z" />
<glyph unicode="&#xba;" glyph-name="ordmasculine" horiz-adv-x="360" d="M40 602T61 634T115 683T186 700Q241 700 280 666T320 568Q320 523 299 491T245 441T174 424Q119 424 80 459T40 557Q40 602 61 634ZM268 589T254 617T218 660T173 675Q140 675 116 649T92
575Q92 536 106 507T142 464T187 449Q219 449 243 476T268 550Q268 589 254 617Z" />
<glyph unicode="&#xbb;" glyph-name="guillemotright" horiz-adv-x="448" d="M331 52L417 202L331 352H382L477 202L382 52H331ZM227 52L313 202L227 352H278L373 202L278 52H227Z" />
<glyph unicode="&#xbc;" glyph-name="onequarter" horiz-adv-x="672" d="M128 365T128 406V655L101 654Q92 653 76 653V662L174 709V406Q174 365 204 350H98Q128 365 128 406ZM112 0L467 688H512L159 0H112ZM338 103L552 401V136H605V103H552V56Q552 15 582 0H474Q504
15 504 56V103H338ZM504 280L402 136H504V280Z" />
<glyph unicode="&#xbd;" glyph-name="onehalf" horiz-adv-x="696" d="M81 403Q146 478 170 516Q182 538 188 556T194 594Q194 627 177 645T137 663Q107 663 89 639T70 573Q53 592 53 620Q53 652 76 676T144 700Q185 700 214 674T243 603Q243 557 205 505Q188 480
144 434L111 397L103 387H198Q217 387 231 393T254 406T267 415L253 350H37L81 403ZM384 365T384 406V655L357 654Q348 653 332 653V662L430 709V406Q430 365 460 350H354Q384 365 384 406ZM456 0L811 688H856L503 0H456Z" />
<glyph unicode="&#xbe;" glyph-name="threequarters" horiz-adv-x="672" d="M190 630T174 646T136 663Q108 663 91 641T74 583Q58 605 58 629Q58 658 82 679T141 700Q178 700 205 678T233 621Q233 600 219 579T179 543Q216 534 236 510T256 454Q256 406 223 376T135
345Q83 345 44 371V422Q59 399 83 387T134 374Q168 374 187 393T206 444Q206 479 183 497T127 516H114V529Q146 537 168 558T190 607Q190 630 174 646ZM112 0L467 688H512L159 0H112ZM345 103L552 399V136H605V103H552V56Q552 15 582 0H474Q504 15 504 56V103H345ZM504
278L402 136H504V278Z" />
<glyph unicode="&#xbf;" glyph-name="questiondown" horiz-adv-x="400" d="M254 465T266 450T279 414Q279 393 267 379T231 364Q208 364 195 379T182 414Q182 435 195 450T231 465Q254 465 266 450ZM227 257T218 300Q244 279 257 254T271 204Q271 162 251 131T189
57Q147 13 127 -19T106 -95Q106 -148 138 -176T217 -205Q257 -205 294 -183T354 -127V-212Q288 -244 209 -244Q124 -244 76 -203T27 -95Q27 -59 41 -28T76 27T132 84Q180 130 203 163T227 239Q227 257 218 300Z" />
<glyph unicode="&#xc0;" glyph-name="Agrave" horiz-adv-x="688" d="M211 267L147 108Q132 71 132 47Q132 14 162 0H19Q29 0 48 20T92 99L353 720L612 96Q634 42 654 22T687 0H521Q546 12 546 37Q546 58 530 97L460 267H211ZM444 308L335 575L228 308H444ZM320
858L423 732L202 858H320Z" />
<glyph unicode="&#xc1;" glyph-name="Aacute" horiz-adv-x="688" d="M211 267L147 108Q132 71 132 47Q132 14 162 0H19Q29 0 48 20T92 99L353 720L612 96Q634 42 654 22T687 0H521Q546 12 546 37Q546 58 530 97L460 267H211ZM444 308L335 575L228 308H444ZM385
858H503L282 732L385 858Z" />
<glyph unicode="&#xc2;" glyph-name="Acircumflex" horiz-adv-x="688" d="M211 267L147 108Q132 71 132 47Q132 14 162 0H19Q29 0 48 20T92 99L353 720L612 96Q634 42 654 22T687 0H521Q546 12 546 37Q546 58 530 97L460 267H211ZM444 308L335 575L228 308H444ZM352
868L483 732L352 791L221 732L352 868Z" />
<glyph unicode="&#xc3;" glyph-name="Atilde" horiz-adv-x="688" d="M211 267L147 108Q132 71 132 47Q132 14 162 0H19Q29 0 48 20T92 99L353 720L612 96Q634 42 654 22T687 0H521Q546 12 546 37Q546 58 530 97L460 267H211ZM444 308L335 575L228 308H444ZM228
805T246 821T294 838Q323 838 365 820Q397 807 414 807Q448 807 448 851Q448 862 447 868Q466 851 466 820Q466 791 448 775T400 758Q371 758 329 776Q297 789 280 789Q246 789 246 745Q246 734 247 728Q228 745 228 776Q228 805 246 821Z" />
<glyph unicode="&#xc4;" glyph-name="Adieresis" horiz-adv-x="688" d="M211 267L147 108Q132 71 132 47Q132 14 162 0H19Q29 0 48 20T92 99L353 720L612 96Q634 42 654 22T687 0H521Q546 12 546 37Q546 58 530 97L460 267H211ZM444 308L335 575L228 308H444ZM221
741T211 753T200 781Q200 797 210 809T239 821Q257 821 267 809T278 781Q278 765 268 753T239 741Q221 741 211 753ZM449 741T439 753T428 781Q428 797 438 809T467 821Q485 821 495 809T506 781Q506 765 496 753T467 741Q449 741 439 753Z" />
<glyph unicode="&#xc5;" glyph-name="Aring" horiz-adv-x="688" d="M211 267L147 108Q132 71 132 47Q132 14 162 0H19Q29 0 48 20T92 99L353 720L612 96Q634 42 654 22T687 0H521Q546 12 546 37Q546 58 530 97L460 267H211ZM444 308L335 575L228 308H444ZM285
829T305 849T354 869Q383 869 403 849T423 800Q423 771 403 751T354 730Q326 730 306 750T285 800Q285 829 305 849ZM396 816T384 828T354 840Q337 840 325 828T312 800Q312 784 324 772T354 759Q371 759 383 771T396 800Q396 816 384 828Z" />
<glyph unicode="&#xc6;" glyph-name="AE" horiz-adv-x="935" d="M854 588Q836 648 746 648H607V364H779Q799 364 813 370T834 384T842 393V296Q841 298 834 305T814 318T780 324H607V40H763Q808 40 840 58T887 106L869 0H492Q492 -3 504 4T525 34T535 100V324H316L169
100Q143 59 143 34Q143 19 150 12T166 2T176 0H1Q46 4 103 90L444 602Q460 627 460 651Q460 676 441 688H854V588ZM342 364H535V658L342 364Z" />
<glyph unicode="&#xc7;" glyph-name="Ccedilla" horiz-adv-x="704" d="M465 -144T445 -163T387 -183Q364 -183 344 -173T312 -141Q343 -152 365 -152Q386 -152 397 -141T409 -113Q409 -98 398 -87T366 -75H357L385 -11Q298 -4 225 40T108 162T64 345Q64 447 108
528T235 655T428 701Q545 701 636 650V539Q605 594 546 626T420 659Q335 659 273 619T177 509T144 353Q144 256 181 184T283 74T426 35Q553 35 636 109V61Q599 31 541 10T421 -12L401 -56Q432 -60 448 -77T465 -118Q465 -144 445 -163Z" />
<glyph unicode="&#xc8;" glyph-name="Egrave" horiz-adv-x="528" d="M85 0Q85 -3 97 4T118 34T128 100V591Q128 632 119 653T97 683T85 688H447V588Q429 648 339 648H200V364H372Q392 364 406 370T427 384T435 393V296Q434 298 427 305T407 318T373 324H200V40H356Q401
40 433 58T480 106L462 0H85ZM220 858L323 732L102 858H220Z" />
<glyph unicode="&#xc9;" glyph-name="Eacute" horiz-adv-x="528" d="M85 0Q85 -3 97 4T118 34T128 100V591Q128 632 119 653T97 683T85 688H447V588Q429 648 339 648H200V364H372Q392 364 406 370T427 384T435 393V296Q434 298 427 305T407 318T373 324H200V40H356Q401
40 433 58T480 106L462 0H85ZM335 858H453L232 732L335 858Z" />
<glyph unicode="&#xca;" glyph-name="Ecircumflex" horiz-adv-x="528" d="M85 0Q85 -3 97 4T118 34T128 100V591Q128 632 119 653T97 683T85 688H447V588Q429 648 339 648H200V364H372Q392 364 406 370T427 384T435 393V296Q434 298 427 305T407 318T373 324H200V40H356Q401
40 433 58T480 106L462 0H85ZM282 868L413 732L282 791L151 732L282 868Z" />
<glyph unicode="&#xcb;" glyph-name="Edieresis" horiz-adv-x="528" d="M85 0Q85 -3 97 4T118 34T128 100V591Q128 632 119 653T97 683T85 688H447V588Q429 648 339 648H200V364H372Q392 364 406 370T427 384T435 393V296Q434 298 427 305T407 318T373 324H200V40H356Q401
40 433 58T480 106L462 0H85ZM152 741T142 753T131 781Q131 797 141 809T170 821Q188 821 198 809T209 781Q209 765 199 753T170 741Q152 741 142 753ZM380 741T370 753T359 781Q359 797 369 809T398 821Q416 821 426 809T437 781Q437 765 427 753T398 741Q380
741 370 753Z" />
<glyph unicode="&#xcc;" glyph-name="Igrave" horiz-adv-x="312" d="M84 -3T96 4T118 32T128 93V595Q128 635 119 655T97 683T85 688H244Q244 690 232 683T210 656T200 595V93Q200 53 210 33T232 5T244 0H84Q84 -3 96 4ZM368 858L471 732L250 858H368Z" />
<glyph unicode="&#xcd;" glyph-name="Iacute" horiz-adv-x="312" d="M84 -3T96 4T118 32T128 93V595Q128 635 119 655T97 683T85 688H244Q244 690 232 683T210 656T200 595V93Q200 53 210 33T232 5T244 0H84Q84 -3 96 4ZM433 858H551L330 732L433 858Z" />
<glyph unicode="&#xce;" glyph-name="Icircumflex" horiz-adv-x="312" d="M84 -3T96 4T118 32T128 93V595Q128 635 119 655T97 683T85 688H244Q244 690 232 683T210 656T200 595V93Q200 53 210 33T232 5T244 0H84Q84 -3 96 4ZM419 868L550 732L419 791L288 732L419 868Z" />
<glyph unicode="&#xcf;" glyph-name="Idieresis" horiz-adv-x="312" d="M84 -3T96 4T118 32T128 93V595Q128 635 119 655T97 683T85 688H244Q244 690 232 683T210 656T200 595V93Q200 53 210 33T232 5T244 0H84Q84 -3 96 4ZM288 741T278 753T267 781Q267 797 277
809T306 821Q324 821 334 809T345 781Q345 765 335 753T306 741Q288 741 278 753ZM516 741T506 753T495 781Q495 797 505 809T534 821Q552 821 562 809T573 781Q573 765 563 753T534 741Q516 741 506 753Z" />
<glyph unicode="&#xd0;" glyph-name="Eth" horiz-adv-x="744" d="M86 0Q98 2 113 24T128 104V324H62V364H128V596Q128 646 114 665T86 688H281Q434 688 523 638Q602 594 645 519T688 350Q688 237 638 159T501 40T301 0H86ZM450 622T402 635T292 648H200V364H299V324H200V40H317Q452
40 530 118T608 340Q608 427 578 492T494 593Q450 622 402 635Z" />
<glyph unicode="&#xd1;" glyph-name="Ntilde" horiz-adv-x="800" d="M729 688Q715 685 702 666T688 597V-28L176 569V90Q176 42 193 23T226 0H85Q99 3 113 22T128 91V591Q128 625 105 653T47 688H171L640 141V597Q640 674 588 688H729ZM288 805T306 821T354 838Q383
838 425 820Q457 807 474 807Q508 807 508 851Q508 862 507 868Q526 851 526 820Q526 791 508 775T460 758Q431 758 389 776Q357 789 340 789Q306 789 306 745Q306 734 307 728Q288 745 288 776Q288 805 306 821Z" />
<glyph unicode="&#xd2;" glyph-name="Ograve" horiz-adv-x="818" d="M64 442T109 525T237 654T428 700Q518 700 596 661T722 542T770 352Q770 246 725 163T597 34T406 -12Q316 -12 238 27T112 146T64 336Q64 442 109 525ZM690 428T653 501T550 616T402 658Q327
658 269 620T177 513T144 351Q144 260 181 187T284 72T432 30Q507 30 565 68T657 175T690 337Q690 428 653 501ZM365 858L468 732L247 858H365Z" />
<glyph unicode="&#xd3;" glyph-name="Oacute" horiz-adv-x="818" d="M64 442T109 525T237 654T428 700Q518 700 596 661T722 542T770 352Q770 246 725 163T597 34T406 -12Q316 -12 238 27T112 146T64 336Q64 442 109 525ZM690 428T653 501T550 616T402 658Q327
658 269 620T177 513T144 351Q144 260 181 187T284 72T432 30Q507 30 565 68T657 175T690 337Q690 428 653 501ZM440 858H558L337 732L440 858Z" />
<glyph unicode="&#xd4;" glyph-name="Ocircumflex" horiz-adv-x="818" d="M64 442T109 525T237 654T428 700Q518 700 596 661T722 542T770 352Q770 246 725 163T597 34T406 -12Q316 -12 238 27T112 146T64 336Q64 442 109 525ZM690 428T653 501T550 616T402 658Q327
658 269 620T177 513T144 351Q144 260 181 187T284 72T432 30Q507 30 565 68T657 175T690 337Q690 428 653 501ZM407 868L538 732L407 791L276 732L407 868Z" />
<glyph unicode="&#xd5;" glyph-name="Otilde" horiz-adv-x="818" d="M64 442T109 525T237 654T428 700Q518 700 596 661T722 542T770 352Q770 246 725 163T597 34T406 -12Q316 -12 238 27T112 146T64 336Q64 442 109 525ZM690 428T653 501T550 616T402 658Q327
658 269 620T177 513T144 351Q144 260 181 187T284 72T432 30Q507 30 565 68T657 175T690 337Q690 428 653 501ZM298 805T316 821T364 838Q393 838 435 820Q467 807 484 807Q518 807 518 851Q518 862 517 868Q536 851 536 820Q536 791 518 775T470 758Q441 758
399 776Q367 789 350 789Q316 789 316 745Q316 734 317 728Q298 745 298 776Q298 805 316 821Z" />
<glyph unicode="&#xd6;" glyph-name="Odieresis" horiz-adv-x="818" d="M64 442T109 525T237 654T428 700Q518 700 596 661T722 542T770 352Q770 246 725 163T597 34T406 -12Q316 -12 238 27T112 146T64 336Q64 442 109 525ZM690 428T653 501T550 616T402 658Q327
658 269 620T177 513T144 351Q144 260 181 187T284 72T432 30Q507 30 565 68T657 175T690 337Q690 428 653 501ZM277 741T267 753T256 781Q256 797 266 809T295 821Q313 821 323 809T334 781Q334 765 324 753T295 741Q277 741 267 753ZM505 741T495 753T484 781Q484
797 494 809T523 821Q541 821 551 809T562 781Q562 765 552 753T523 741Q505 741 495 753Z" />
<glyph unicode="&#xd7;" glyph-name="multiply" horiz-adv-x="560" d="M280 176L107 2L69 41L242 214L69 389L106 426L280 251L453 426L491 388L318 213L491 40L453 2L280 176Z" />
<glyph unicode="&#xd8;" glyph-name="Oslash" horiz-adv-x="818" d="M119 -12L87 17L154 90Q111 134 88 196T64 336Q64 442 109 525T237 654T428 700Q489 700 546 681T648 626L716 700L747 672L679 598Q722 553 746 492T770 352Q770 246 725 163T597 34T406 -12Q345
-12 288 6T186 61L119 -12ZM601 575Q562 615 511 636T402 658Q327 658 269 620T177 513T144 351Q144 292 160 240T206 146L601 575ZM690 396T674 448T628 542L233 112Q272 73 322 52T432 30Q507 30 565 68T657 175T690 337Q690 396 674 448Z" />
<glyph unicode="&#xd9;" glyph-name="Ugrave" horiz-adv-x="712" d="M618 239Q618 160 588 104T504 18T377 -12Q258 -12 193 54T128 237V595Q128 635 119 655T98 683T86 688H242Q242 690 231 683T210 656T200 598V237Q200 140 246 87T383 34Q466 34 514 84T562
234V595Q562 635 552 655T530 683T518 688H662Q662 690 650 683T628 656T618 595V239ZM312 858L415 732L194 858H312Z" />
<glyph unicode="&#xda;" glyph-name="Uacute" horiz-adv-x="712" d="M618 239Q618 160 588 104T504 18T377 -12Q258 -12 193 54T128 237V595Q128 635 119 655T98 683T86 688H242Q242 690 231 683T210 656T200 598V237Q200 140 246 87T383 34Q466 34 514 84T562
234V595Q562 635 552 655T530 683T518 688H662Q662 690 650 683T628 656T618 595V239ZM427 858H545L324 732L427 858Z" />
<glyph unicode="&#xdb;" glyph-name="Ucircumflex" horiz-adv-x="712" d="M618 239Q618 160 588 104T504 18T377 -12Q258 -12 193 54T128 237V595Q128 635 119 655T98 683T86 688H242Q242 690 231 683T210 656T200 598V237Q200 140 246 87T383 34Q466 34 514 84T562
234V595Q562 635 552 655T530 683T518 688H662Q662 690 650 683T628 656T618 595V239ZM378 868L509 732L378 791L247 732L378 868Z" />
<glyph unicode="&#xdc;" glyph-name="Udieresis" horiz-adv-x="712" d="M618 239Q618 160 588 104T504 18T377 -12Q258 -12 193 54T128 237V595Q128 635 119 655T98 683T86 688H242Q242 690 231 683T210 656T200 598V237Q200 140 246 87T383 34Q466 34 514 84T562
234V595Q562 635 552 655T530 683T518 688H662Q662 690 650 683T628 656T618 595V239ZM245 741T235 753T224 781Q224 797 234 809T263 821Q281 821 291 809T302 781Q302 765 292 753T263 741Q245 741 235 753ZM473 741T463 753T452 781Q452 797 462 809T491 821Q509
821 519 809T530 781Q530 765 520 753T491 741Q473 741 463 753Z" />
<glyph unicode="&#xdd;" glyph-name="Yacute" horiz-adv-x="560" d="M582 688Q572 686 550 666T497 592L324 295V93Q324 42 338 22T364 0H212Q224 2 238 21T252 93V296L81 593Q51 645 29 664T-6 688H162Q137 683 137 656Q137 647 143 635T162 599L307 344L452
595Q469 623 469 652Q469 671 458 678T435 688H582ZM317 858H435L214 732L317 858Z" />
<glyph unicode="&#xde;" glyph-name="Thorn" horiz-adv-x="548" d="M128 646T114 665T86 688H242Q229 686 215 667T200 596V553H281Q332 553 365 547T423 527Q468 504 492 461T516 367Q516 302 481 253T384 181Q362 173 335 170T260 166H200V92Q200 42 215 22T243
0H86Q99 3 113 21T128 92V596Q128 646 114 665ZM200 513V206H260Q302 206 325 210T365 222Q401 239 420 273T439 354Q439 425 395 469T278 513H200Z" />
<glyph unicode="&#xdf;" glyph-name="germandbls" horiz-adv-x="480" d="M286 -7T259 -3T209 7L220 105Q225 64 256 47T322 29Q356 29 375 49T394 102Q394 135 370 157T298 207Q250 233 226 256T201 313Q201 342 214 366T258 430Q293 474 311 509T330 591Q330
642 306 670T241 699Q144 699 144 560V93Q144 53 151 33T168 5T177 0H48Q48 -3 57 4T73 32T80 93V535Q80 601 106 646T172 714T258 737Q315 737 355 701T396 601Q396 556 376 521T316 441Q285 406 270 383T255 333Q255 320 270 308T320 277Q361 255 387 237T433
190T453 122Q453 89 436 59T385 11T306 -7Q286 -7 259 -3Z" />
<glyph unicode="&#xe0;" glyph-name="agrave" horiz-adv-x="400" d="M309 -11T287 5T262 42Q244 16 215 2T156 -12Q110 -12 79 14T48 84Q48 195 256 195V206Q256 261 240 287Q218 324 168 324Q129 324 104 301T78 241Q72 251 69 259T65 281Q65 317 99 344T188
372Q266 372 299 320Q310 304 315 280T320 217V98Q320 67 337 50T387 33H400L341 -12Q309 -11 287 5ZM176 165T148 145T120 91Q120 63 135 47T175 31Q194 31 211 40T240 65Q256 86 256 122V165Q176 165 148 145ZM187 637L260 447L98 637H187Z" />
<glyph unicode="&#xe1;" glyph-name="aacute" horiz-adv-x="400" d="M309 -11T287 5T262 42Q244 16 215 2T156 -12Q110 -12 79 14T48 84Q48 195 256 195V206Q256 261 240 287Q218 324 168 324Q129 324 104 301T78 241Q72 251 69 259T65 281Q65 317 99 344T188
372Q266 372 299 320Q310 304 315 280T320 217V98Q320 67 337 50T387 33H400L341 -12Q309 -11 287 5ZM176 165T148 145T120 91Q120 63 135 47T175 31Q194 31 211 40T240 65Q256 86 256 122V165Q176 165 148 145ZM214 637H303L141 447L214 637Z" />
<glyph unicode="&#xe2;" glyph-name="acircumflex" horiz-adv-x="400" d="M309 -11T287 5T262 42Q244 16 215 2T156 -12Q110 -12 79 14T48 84Q48 195 256 195V206Q256 261 240 287Q218 324 168 324Q129 324 104 301T78 241Q72 251 69 259T65 281Q65 317 99 344T188
372Q266 372 299 320Q310 304 315 280T320 217V98Q320 67 337 50T387 33H400L341 -12Q309 -11 287 5ZM176 165T148 145T120 91Q120 63 135 47T175 31Q194 31 211 40T240 65Q256 86 256 122V165Q176 165 148 145ZM199 647L310 457L199 553L88 457L199 647Z" />
<glyph unicode="&#xe3;" glyph-name="atilde" horiz-adv-x="400" d="M309 -11T287 5T262 42Q244 16 215 2T156 -12Q110 -12 79 14T48 84Q48 195 256 195V206Q256 261 240 287Q218 324 168 324Q129 324 104 301T78 241Q72 251 69 259T65 281Q65 317 99 344T188
372Q266 372 299 320Q310 304 315 280T320 217V98Q320 67 337 50T387 33H400L341 -12Q309 -11 287 5ZM176 165T148 145T120 91Q120 63 135 47T175 31Q194 31 211 40T240 65Q256 86 256 122V165Q176 165 148 145ZM76 544T94 560T142 577Q171 577 213 559Q245 546
262 546Q296 546 296 590Q296 601 295 607Q314 590 314 559Q314 530 296 514T248 497Q219 497 177 515Q145 528 128 528Q94 528 94 484Q94 473 95 467Q76 484 76 515Q76 544 94 560Z" />
<glyph unicode="&#xe4;" glyph-name="adieresis" horiz-adv-x="400" d="M309 -11T287 5T262 42Q244 16 215 2T156 -12Q110 -12 79 14T48 84Q48 195 256 195V206Q256 261 240 287Q218 324 168 324Q129 324 104 301T78 241Q72 251 69 259T65 281Q65 317 99 344T188
372Q266 372 299 320Q310 304 315 280T320 217V98Q320 67 337 50T387 33H400L341 -12Q309 -11 287 5ZM176 165T148 145T120 91Q120 63 135 47T175 31Q194 31 211 40T240 65Q256 86 256 122V165Q176 165 148 145ZM103 488T93 500T82 528Q82 544 92 556T121 568Q139
568 149 556T160 528Q160 512 150 500T121 488Q103 488 93 500ZM259 488T249 500T238 528Q238 544 248 556T277 568Q295 568 305 556T316 528Q316 512 306 500T277 488Q259 488 249 500Z" />
<glyph unicode="&#xe5;" glyph-name="aring" horiz-adv-x="400" d="M309 -11T287 5T262 42Q244 16 215 2T156 -12Q110 -12 79 14T48 84Q48 195 256 195V206Q256 261 240 287Q218 324 168 324Q129 324 104 301T78 241Q72 251 69 259T65 281Q65 317 99 344T188 372Q266
372 299 320Q310 304 315 280T320 217V98Q320 67 337 50T387 33H400L341 -12Q309 -11 287 5ZM176 165T148 145T120 91Q120 63 135 47T175 31Q194 31 211 40T240 65Q256 86 256 122V165Q176 165 148 145ZM123 557T143 577T192 597Q221 597 241 577T261 528Q261 499
241 479T192 458Q164 458 144 478T123 528Q123 557 143 577ZM234 544T222 556T192 568Q175 568 163 556T150 528Q150 512 162 500T192 487Q209 487 221 499T234 528Q234 544 222 556Z" />
<glyph unicode="&#xe6;" glyph-name="ae" horiz-adv-x="600" d="M326 118T364 83T451 47Q482 47 511 62T560 108Q549 49 512 19T427 -12Q384 -12 344 11T282 74Q271 36 239 12T160 -12Q108 -12 78 15T48 83Q48 116 68 141T143 181Q191 193 257 204Q257 323 172
323Q125 323 102 299T78 240Q74 245 71 256T67 278Q67 320 99 346T184 372Q229 372 259 353T302 302Q320 337 351 354T418 372Q474 372 514 332T559 215Q431 199 319 182Q326 118 364 83ZM483 237Q482 286 461 312T407 338Q371 338 345 305T318 214L483 237ZM190
162T164 153Q116 137 116 86Q116 61 131 46T173 31Q206 31 226 49Q242 63 249 83T257 138V173Q190 162 164 153Z" />
<glyph unicode="&#xe7;" glyph-name="ccedilla" horiz-adv-x="400" d="M268 -144T248 -163T190 -183Q167 -183 147 -173T115 -141Q146 -152 168 -152Q189 -152 200 -141T212 -113Q212 -98 201 -87T169 -75H160L188 -10Q120 0 80 53T40 174Q40 224 61 269T124 343T221
372Q288 372 318 343T360 282L294 250Q288 286 265 311T207 336Q158 336 131 298T104 205Q104 166 121 130T171 70T248 47Q284 47 316 63T368 108Q357 53 319 22T224 -12L204 -56Q235 -60 251 -77T268 -118Q268 -144 248 -163Z" />
<glyph unicode="&#xe8;" glyph-name="egrave" horiz-adv-x="400" d="M159 -12T120 14T61 83T40 174Q40 236 64 281T128 349T209 372Q269 372 312 329T360 208H100Q100 160 118 124T166 68T233 48Q327 48 360 108Q351 54 311 21T213 -12Q159 -12 120 14ZM163 339T135
312T101 240H283Q283 286 259 312T202 339Q163 339 135 312ZM177 637L250 447L88 637H177Z" />
<glyph unicode="&#xe9;" glyph-name="eacute" horiz-adv-x="400" d="M159 -12T120 14T61 83T40 174Q40 236 64 281T128 349T209 372Q269 372 312 329T360 208H100Q100 160 118 124T166 68T233 48Q327 48 360 108Q351 54 311 21T213 -12Q159 -12 120 14ZM163 339T135
312T101 240H283Q283 286 259 312T202 339Q163 339 135 312ZM244 637H333L171 447L244 637Z" />
<glyph unicode="&#xea;" glyph-name="ecircumflex" horiz-adv-x="400" d="M159 -12T120 14T61 83T40 174Q40 236 64 281T128 349T209 372Q269 372 312 329T360 208H100Q100 160 118 124T166 68T233 48Q327 48 360 108Q351 54 311 21T213 -12Q159 -12 120 14ZM163
339T135 312T101 240H283Q283 286 259 312T202 339Q163 339 135 312ZM199 647L310 457L199 553L88 457L199 647Z" />
<glyph unicode="&#xeb;" glyph-name="edieresis" horiz-adv-x="400" d="M159 -12T120 14T61 83T40 174Q40 236 64 281T128 349T209 372Q269 372 312 329T360 208H100Q100 160 118 124T166 68T233 48Q327 48 360 108Q351 54 311 21T213 -12Q159 -12 120 14ZM163
339T135 312T101 240H283Q283 286 259 312T202 339Q163 339 135 312ZM103 488T93 500T82 528Q82 544 92 556T121 568Q139 568 149 556T160 528Q160 512 150 500T121 488Q103 488 93 500ZM259 488T249 500T238 528Q238 544 248 556T277 568Q295 568 305 556T316
528Q316 512 306 500T277 488Q259 488 249 500Z" />
<glyph unicode="&#xec;" glyph-name="igrave" horiz-adv-x="224" d="M80 293T67 308T36 324L144 372V100Q144 56 153 34T173 5T184 0H40Q40 -3 51 4T71 34T80 100V251Q80 293 67 308ZM360 637L433 447L271 637H360Z" />
<glyph unicode="&#xed;" glyph-name="iacute" horiz-adv-x="224" d="M80 293T67 308T36 324L144 372V100Q144 56 153 34T173 5T184 0H40Q40 -3 51 4T71 34T80 100V251Q80 293 67 308ZM387 637H476L314 447L387 637Z" />
<glyph unicode="&#xee;" glyph-name="icircumflex" horiz-adv-x="224" d="M80 293T67 308T36 324L144 372V100Q144 56 153 34T173 5T184 0H40Q40 -3 51 4T71 34T80 100V251Q80 293 67 308ZM368 647L479 457L368 553L257 457L368 647Z" />
<glyph unicode="&#xef;" glyph-name="idieresis" horiz-adv-x="224" d="M80 293T67 308T36 324L144 372V100Q144 56 153 34T173 5T184 0H40Q40 -3 51 4T71 34T80 100V251Q80 293 67 308ZM272 488T262 500T251 528Q251 544 261 556T290 568Q308 568 318 556T329
528Q329 512 319 500T290 488Q272 488 262 500ZM428 488T418 500T407 528Q407 544 417 556T446 568Q464 568 474 556T485 528Q485 512 475 500T446 488Q428 488 418 500Z" />
<glyph unicode="&#xf0;" glyph-name="eth" horiz-adv-x="464" d="M172 -11T130 13T64 79T40 171Q40 225 64 270T133 342T233 369Q263 369 293 351T341 299L346 302Q335 390 289 475T189 609L121 575L106 603L162 631Q120 664 80 685L176 701Q204 689 227 667L299
703L315 673L250 643Q327 572 372 468T418 248Q418 123 366 56T225 -11Q172 -11 130 13ZM168 333T140 295T112 200Q112 158 127 117T172 50T239 24Q289 24 316 67T343 169Q343 235 311 284T221 333Q168 333 140 295Z" />
<glyph unicode="&#xf1;" glyph-name="ntilde" horiz-adv-x="464" d="M167 335T198 353T265 372Q319 372 351 338T384 238V99Q384 57 393 35T413 5T424 0H280Q280 -3 291 4T311 34T320 100V214Q320 248 311 268T287 301Q264 320 232 320Q196 320 170 297T144 231V100Q144
57 153 35T173 5T185 0H41Q41 -3 52 4T71 34T80 100V251Q80 293 67 308T36 324L144 372V304Q167 335 198 353ZM108 544T126 560T174 577Q203 577 245 559Q277 546 294 546Q328 546 328 590Q328 601 327 607Q346 590 346 559Q346 530 328 514T280 497Q251 497 209
515Q177 528 160 528Q126 528 126 484Q126 473 127 467Q108 484 108 515Q108 544 126 560Z" />
<glyph unicode="&#xf2;" glyph-name="ograve" horiz-adv-x="464" d="M40 223T65 269T136 344T236 372Q289 372 332 348T399 281T424 189Q424 137 399 91T328 16T228 -12Q175 -12 132 12T65 79T40 171Q40 223 65 269ZM352 202T336 243T291 310T224 336Q171 336
142 296T112 200Q112 158 128 117T173 50T240 24Q293 24 322 64T352 160Q352 202 336 243ZM209 637L282 447L120 637H209Z" />
<glyph unicode="&#xf3;" glyph-name="oacute" horiz-adv-x="464" d="M40 223T65 269T136 344T236 372Q289 372 332 348T399 281T424 189Q424 137 399 91T328 16T228 -12Q175 -12 132 12T65 79T40 171Q40 223 65 269ZM352 202T336 243T291 310T224 336Q171 336
142 296T112 200Q112 158 128 117T173 50T240 24Q293 24 322 64T352 160Q352 202 336 243ZM266 637H355L193 447L266 637Z" />
<glyph unicode="&#xf4;" glyph-name="ocircumflex" horiz-adv-x="464" d="M40 223T65 269T136 344T236 372Q289 372 332 348T399 281T424 189Q424 137 399 91T328 16T228 -12Q175 -12 132 12T65 79T40 171Q40 223 65 269ZM352 202T336 243T291 310T224 336Q171
336 142 296T112 200Q112 158 128 117T173 50T240 24Q293 24 322 64T352 160Q352 202 336 243ZM232 647L343 457L232 553L121 457L232 647Z" />
<glyph unicode="&#xf5;" glyph-name="otilde" horiz-adv-x="464" d="M40 223T65 269T136 344T236 372Q289 372 332 348T399 281T424 189Q424 137 399 91T328 16T228 -12Q175 -12 132 12T65 79T40 171Q40 223 65 269ZM352 202T336 243T291 310T224 336Q171 336
142 296T112 200Q112 158 128 117T173 50T240 24Q293 24 322 64T352 160Q352 202 336 243ZM108 544T126 560T174 577Q203 577 245 559Q277 546 294 546Q328 546 328 590Q328 601 327 607Q346 590 346 559Q346 530 328 514T280 497Q251 497 209 515Q177 528 160
528Q126 528 126 484Q126 473 127 467Q108 484 108 515Q108 544 126 560Z" />
<glyph unicode="&#xf6;" glyph-name="odieresis" horiz-adv-x="464" d="M40 223T65 269T136 344T236 372Q289 372 332 348T399 281T424 189Q424 137 399 91T328 16T228 -12Q175 -12 132 12T65 79T40 171Q40 223 65 269ZM352 202T336 243T291 310T224 336Q171 336
142 296T112 200Q112 158 128 117T173 50T240 24Q293 24 322 64T352 160Q352 202 336 243ZM136 488T126 500T115 528Q115 544 125 556T154 568Q172 568 182 556T193 528Q193 512 183 500T154 488Q136 488 126 500ZM292 488T282 500T271 528Q271 544 281 556T310
568Q328 568 338 556T349 528Q349 512 339 500T310 488Q292 488 282 500Z" />
<glyph unicode="&#xf7;" glyph-name="divide" horiz-adv-x="560" d="M258 320T246 334T233 368Q233 387 245 401T280 416Q302 416 314 402T327 368Q327 349 315 335T280 320Q258 320 246 334ZM72 242H488V188H72V242ZM258 14T246 28T233 62Q233 81 245 95T280
110Q302 110 314 96T327 62Q327 43 315 29T280 14Q258 14 246 28Z" />
<glyph unicode="&#xf8;" glyph-name="oslash" horiz-adv-x="464" d="M80 -12L53 12L86 48Q40 100 40 171Q40 223 65 269T136 344T236 372Q301 372 351 335L385 372L411 349L377 312Q424 260 424 189Q424 137 399 91T328 16T228 -12Q162 -12 113 24L80 -12ZM309
290Q275 336 224 336Q171 336 142 296T112 200Q112 147 135 101L309 290ZM352 213T329 259L154 69Q191 24 240 24Q293 24 322 64T352 160Q352 213 329 259Z" />
<glyph unicode="&#xf9;" glyph-name="ugrave" horiz-adv-x="464" d="M270 -12T197 -12Q146 -12 113 21T80 124V266Q80 307 68 329T39 359T23 364H144V139Q144 92 169 67T230 42Q265 42 292 65T320 127V273Q320 312 310 332T287 359T274 364H384V113Q384 71 397
56T428 40H434L320 -12V58Q270 -12 197 -12ZM199 637L272 447L110 637H199Z" />
<glyph unicode="&#xfa;" glyph-name="uacute" horiz-adv-x="464" d="M270 -12T197 -12Q146 -12 113 21T80 124V266Q80 307 68 329T39 359T23 364H144V139Q144 92 169 67T230 42Q265 42 292 65T320 127V273Q320 312 310 332T287 359T274 364H384V113Q384 71 397
56T428 40H434L320 -12V58Q270 -12 197 -12ZM266 637H355L193 447L266 637Z" />
<glyph unicode="&#xfb;" glyph-name="ucircumflex" horiz-adv-x="464" d="M270 -12T197 -12Q146 -12 113 21T80 124V266Q80 307 68 329T39 359T23 364H144V139Q144 92 169 67T230 42Q265 42 292 65T320 127V273Q320 312 310 332T287 359T274 364H384V113Q384 71
397 56T428 40H434L320 -12V58Q270 -12 197 -12ZM231 647L342 457L231 553L120 457L231 647Z" />
<glyph unicode="&#xfc;" glyph-name="udieresis" horiz-adv-x="464" d="M270 -12T197 -12Q146 -12 113 21T80 124V266Q80 307 68 329T39 359T23 364H144V139Q144 92 169 67T230 42Q265 42 292 65T320 127V273Q320 312 310 332T287 359T274 364H384V113Q384 71
397 56T428 40H434L320 -12V58Q270 -12 197 -12ZM135 488T125 500T114 528Q114 544 124 556T153 568Q171 568 181 556T192 528Q192 512 182 500T153 488Q135 488 125 500ZM291 488T281 500T270 528Q270 544 280 556T309 568Q327 568 337 556T348 528Q348 512 338
500T309 488Q291 488 281 500Z" />
<glyph unicode="&#xfd;" glyph-name="yacute" horiz-adv-x="400" d="M180 30L63 295Q46 333 31 347T6 364H152Q143 362 134 355T125 330Q125 313 135 292L216 105L288 282Q295 300 295 319Q295 337 288 349T263 364H397Q386 362 369 347T334 291L198 -25Q171 -88
158 -124T133 -200Q128 -219 123 -232H21Q48 -219 87 -159T169 3L180 30ZM244 637H333L171 447L244 637Z" />
<glyph unicode="&#xfe;" glyph-name="thorn" horiz-adv-x="464" d="M80 657T67 672T36 688H30L144 740V307Q156 327 187 349T270 372Q314 372 349 350T404 289T424 202Q424 141 399 94T334 19Q289 -12 236 -12Q201 -12 178 -3T144 15V-132Q144 -176 153 -198T173
-227T184 -232H40Q40 -235 51 -228T71 -198T80 -132V615Q80 657 67 672ZM352 235T323 281T237 328Q216 328 194 317T158 285T144 240V122Q144 90 151 70T175 40Q200 24 236 24Q286 24 319 64T352 172Q352 235 323 281Z" />
<glyph unicode="&#xff;" glyph-name="ydieresis" horiz-adv-x="400" d="M180 30L63 295Q46 333 31 347T6 364H152Q143 362 134 355T125 330Q125 313 135 292L216 105L288 282Q295 300 295 319Q295 337 288 349T263 364H397Q386 362 369 347T334 291L198 -25Q171
-88 158 -124T133 -200Q128 -219 123 -232H21Q48 -219 87 -159T169 3L180 30ZM103 488T93 500T82 528Q82 544 92 556T121 568Q139 568 149 556T160 528Q160 512 150 500T121 488Q103 488 93 500ZM259 488T249 500T238 528Q238 544 248 556T277 568Q295 568 305
556T316 528Q316 512 306 500T277 488Q259 488 249 500Z" />
<glyph unicode="&#x2013;" glyph-name="endash" horiz-adv-x="560" d="M72 242H488V188H72V242Z" />
<glyph unicode="&#x2014;" glyph-name="emdash" horiz-adv-x="1000" d="M72 242H928V188H72V242Z" />
<glyph unicode="&#x2018;" glyph-name="quoteleft" horiz-adv-x="224" d="M115 588T116 584H123Q148 584 161 571T174 539Q174 519 161 505T124 490Q99 490 81 510T62 570Q62 601 75 633T115 689T179 714Q152 704 134 668T115 597Q115 588 116 584Z" />
<glyph unicode="&#x2019;" glyph-name="quoteright" horiz-adv-x="224" d="M71 486T89 522T108 593Q108 602 107 606H100Q75 606 62 619T49 651Q49 671 62 685T99 700Q124 700 142 680T161 620Q161 589 148 557T108 501T44 476Q71 486 89 522Z" />
<glyph unicode="&#x201a;" glyph-name="quotesinglbase" horiz-adv-x="224" d="M344 -123T362 -88T381 -17Q381 -8 380 -4H373Q348 -4 335 9T322 42Q322 62 335 76T372 91Q397 91 415 71T434 11Q434 -20 421 -52T381 -108T317 -133Q344 -123 362 -88Z" />
<glyph unicode="&#x201c;" glyph-name="quotedblleft" horiz-adv-x="448" d="M137 588T138 584H145Q170 584 183 571T196 539Q196 519 183 505T146 490Q121 490 103 510T84 570Q84 601 97 633T137 689T201 714Q174 704 156 668T137 597Q137 588 138 584ZM309 588T310
584H317Q342 584 355 571T368 539Q368 519 355 505T318 490Q293 490 275 510T256 570Q256 601 269 633T309 689T373 714Q346 704 328 668T309 597Q309 588 310 584Z" />
<glyph unicode="&#x201d;" glyph-name="quotedblright" horiz-adv-x="448" d="M103 486T121 522T140 593Q140 602 139 606H132Q107 606 94 619T81 651Q81 671 94 685T131 700Q156 700 174 680T193 620Q193 589 180 557T140 501T76 476Q103 486 121 522ZM274 486T292
522T311 593Q311 602 310 606H303Q278 606 265 619T252 651Q252 671 265 685T302 700Q327 700 345 680T364 620Q364 589 351 557T311 501T247 476Q274 486 292 522Z" />
<glyph unicode="&#x201e;" glyph-name="quotedblbase" horiz-adv-x="448" d="M103 -123T121 -88T140 -17Q140 -8 139 -4H132Q107 -4 94 9T81 42Q81 62 94 76T131 91Q156 91 174 71T193 11Q193 -20 180 -52T140 -108T76 -133Q103 -123 121 -88ZM275 -123T293 -88T312
-17Q312 -8 311 -4H304Q279 -4 266 9T253 42Q253 62 266 76T303 91Q328 91 346 71T365 11Q365 -20 352 -52T312 -108T248 -133Q275 -123 293 -88Z" />
<glyph unicode="&#x2022;" glyph-name="bullet" horiz-adv-x="496" d="M290 308T314 281T338 215Q338 178 314 150T248 122Q206 122 182 150T158 215Q158 253 182 280T248 308Q290 308 314 281Z" />
<glyph unicode="&#x2039;" glyph-name="guilsinglleft" horiz-adv-x="304" d="M79 204L173 352H225L137 204L225 52H173L79 204Z" />
<glyph unicode="&#x203a;" glyph-name="guilsinglright" horiz-adv-x="304" d="M79 52L165 202L79 352H130L225 202L130 52H79Z" />
</font>
</defs>
</svg>
