<?xml version="1.0" standalone="no"?>
<!DOCTYPE svg PUBLIC "-//W3C//DTD SVG 1.1//EN" "http://www.w3.org/Graphics/SVG/1.1/DTD/svg11.dtd">
<svg xmlns="http://www.w3.org/2000/svg">
<defs >
<font id="Oswald" horiz-adv-x="423" ><font-face
    font-family="Oswald ExtraLight"
    units-per-em="1000"
    panose-1="0 0 3 0 0 0 0 0 0 0"
    ascent="1193"
    descent="-289"
    alphabetic="0" />
<glyph unicode=" " glyph-name="space" horiz-adv-x="189" />
<glyph unicode="!" glyph-name="exclam" horiz-adv-x="197" d="M69 810H129L108 174H89L69 810ZM68 74H128V0H68V74Z" />
<glyph unicode="&quot;" glyph-name="quotedbl" horiz-adv-x="341" d="M79 810H134L108 580H79V810ZM211 810H265L240 580H211V810Z" />
<glyph unicode="#" glyph-name="numbersign" horiz-adv-x="453" d="M110 292H47V331H117L144 499H65V538H150L194 810H244L201 538H305L349 810H399L355 538H413V499H350L322 331H394V292H316L269 0H219L266 292H161L114 0H64L110 292ZM271 331L299 499H194L167 331H271Z" />
<glyph unicode="$" glyph-name="dollar" horiz-adv-x="451" d="M232 -10Q58 -7 42 200L89 215Q101 125 132 80T238 35Q367 35 367 165Q367 215 342 256T262 352L114 499Q43 570 43 653Q43 729 87 772T208 818V913H238V818Q317 814 360 768T409 616L363 605Q356
692 325 733T227 775Q166 775 130 746T93 657Q93 625 106 596T152 534L298 390Q354 335 386 281T418 168Q418 87 376 42T261 -9V-94H232V-10Z" />
<glyph unicode="%" glyph-name="percent" horiz-adv-x="636" d="M42 417T42 554V696Q42 830 145 830Q246 830 246 697V553Q246 417 145 417Q42 417 42 554ZM433 820H481L206 0H156L433 820ZM174 459T186 482T198 551V698Q198 741 186 764T145 788Q115 788 103
765T91 698V551Q91 506 103 483T145 459Q174 459 186 482ZM390 -6T390 130V272Q390 336 414 371T492 406Q594 406 594 273V129Q594 -6 492 -6Q390 -6 390 130ZM521 35T533 58T545 127V274Q545 317 533 340T492 364Q463 364 451 341T438 274V127Q438 82 450 59T492
35Q521 35 533 58Z" />
<glyph unicode="&amp;" glyph-name="ampersand" horiz-adv-x="602" d="M187 -11T144 14T79 81T57 175Q57 232 87 289T193 420Q135 513 115 558T94 653Q94 732 140 775T265 819Q341 819 384 781T427 678Q427 620 382 557T247 414L423 136Q455 176 477 240T501 351H550Q550
296 524 224T453 102Q479 68 502 56T553 43V-6Q545 -6 531 -4Q470 3 421 69Q389 34 346 12T250 -11Q187 -11 144 14ZM297 512T336 568T375 680Q375 725 345 749T263 774Q206 774 176 741T146 654Q146 611 164 567T228 447Q297 512 336 568ZM290 34T324 50T393 103L215
382Q157 320 134 272T110 174Q110 117 144 76T250 34Q290 34 324 50Z" />
<glyph unicode="&apos;" glyph-name="quotesingle" horiz-adv-x="238" d="M79 810H134L108 580H79V810Z" />
<glyph unicode="(" glyph-name="parenleft" horiz-adv-x="266" d="M164 -140T131 -80T90 72T82 333Q82 504 90 597T131 751T235 815V776Q188 769 166 715T139 579T134 347V295Q134 157 139 78T167 -52T235 -109V-147Q164 -140 131 -80Z" />
<glyph unicode=")" glyph-name="parenright" horiz-adv-x="255" d="M31 -109Q78 -102 100 -48T127 88T132 320V360Q132 502 127 583T99 717T31 776V815Q102 812 135 752T177 597T185 334Q185 167 177 74T136 -80T31 -147V-109Z" />
<glyph unicode="*" glyph-name="asterisk" horiz-adv-x="356" d="M66 514L158 634L29 686L43 721L168 661L162 809H205L197 661L320 721L334 686L206 634L298 512L264 492L182 620L100 492L66 514Z" />
<glyph unicode="+" glyph-name="plus" horiz-adv-x="364" d="M161 396H22V436H161V588H202V436H341V396H202V240H161V396Z" />
<glyph unicode="," glyph-name="comma" horiz-adv-x="177" d="M55 -84Q80 -66 88 -49T97 0H61V105H125V11Q125 -36 113 -61T69 -107L55 -84Z" />
<glyph unicode="-" glyph-name="hyphen" horiz-adv-x="283" d="M39 363H245V319H39V363Z" />
<glyph unicode="." glyph-name="period" horiz-adv-x="177" d="M66 104H125V0H66V104Z" />
<glyph unicode="/" glyph-name="slash" horiz-adv-x="329" d="M260 810H307L69 0H21L260 810Z" />
<glyph unicode="0" glyph-name="zero" horiz-adv-x="493" d="M142 -11T100 51T58 228V582Q58 695 101 757T246 819Q348 819 391 757T435 582V228Q435 113 393 51T246 -11Q142 -11 100 51ZM319 30T349 79T380 219V590Q380 680 350 729T246 778Q174 778 143 729T112
590V219Q112 130 143 80T246 30Q319 30 349 79Z" />
<glyph unicode="1" glyph-name="one" horiz-adv-x="403" d="M208 737Q192 714 156 696T92 670V716Q121 724 157 750T216 810H262V0H208V737Z" />
<glyph unicode="2" glyph-name="two" horiz-adv-x="489" d="M54 40L279 382Q315 436 332 466T362 536T375 623Q375 694 343 734T252 774Q172 774 142 728T110 593V580H58V596Q58 710 104 764T250 819Q337 819 382 766T428 615Q428 551 403 496T327 365L115 45H412V0H54V40Z"
/>
<glyph unicode="3" glyph-name="three" horiz-adv-x="485" d="M150 -11T109 39T68 180V195H118V179Q119 106 147 69T238 32Q300 32 335 73T371 215Q371 399 241 400H218V447H241Q311 447 341 488T371 620Q371 776 250 776Q183 776 151 742T118 629V617H68V630Q68
720 110 769T249 819Q338 819 382 764T426 620Q426 532 395 482T311 422Q357 411 391 361T426 216Q426 110 381 50T238 -11Q150 -11 109 39Z" />
<glyph unicode="4" glyph-name="four" horiz-adv-x="493" d="M306 249H56V300L297 810H359V298H453V249H359V0H306V249ZM306 298V732L112 298H306Z" />
<glyph unicode="5" glyph-name="five" horiz-adv-x="488" d="M162 -9T122 42T81 198H133Q133 112 161 73T254 33Q301 33 328 55T367 124T379 248Q379 332 366 379T326 446T256 466Q186 466 142 398H99V810H393L392 764H144L142 449Q160 475 192 491T270 508Q353
508 392 445T431 253Q431 118 388 55T251 -9Q162 -9 122 42Z" />
<glyph unicode="6" glyph-name="six" horiz-adv-x="492" d="M159 -11T116 50T73 236V589Q73 819 252 819Q341 819 382 775T425 637V618H374Q374 705 347 740T256 775Q196 775 161 736T126 600V429Q152 446 189 459T264 472Q331 472 368 449T422 373T439 226Q439
109 395 49T253 -11Q159 -11 116 50ZM298 34T326 50T370 106T385 219Q385 302 376 345T338 409T253 429Q221 429 184 416T126 388V237Q126 159 140 115T181 52T253 34Q298 34 326 50Z" />
<glyph unicode="7" glyph-name="seven" horiz-adv-x="462" d="M338 766H76V810H393V783L225 0H173L338 766Z" />
<glyph unicode="8" glyph-name="eight" horiz-adv-x="489" d="M60 -11T60 211Q60 285 79 328T123 389T186 424Q130 440 98 489T66 619Q66 711 108 765T245 819Q339 819 380 764T422 616Q422 536 391 489T303 424Q340 408 365 390T410 328T429 211Q429 -11 245
-11Q60 -11 60 211ZM312 451T341 494T370 617Q370 698 340 736T245 774Q181 774 150 736T119 617Q119 538 148 495T245 447Q312 451 341 494ZM308 32T342 74T376 212Q376 298 345 345T245 401Q174 393 143 346T112 212Q112 116 146 74T245 32Q308 32 342 74Z" />
<glyph unicode="9" glyph-name="nine" horiz-adv-x="492" d="M162 -11T119 34T76 172V190H127Q127 130 139 96T178 48T253 33Q313 33 343 71T374 208V379Q354 362 319 349T236 336Q169 336 132 359T78 435T61 583Q61 699 106 759T249 819Q342 819 384 758T427
572V219Q427 107 386 48T252 -11Q162 -11 119 34ZM290 379T322 391T374 420V571Q374 649 361 693T320 756T249 774Q182 774 149 732T116 589Q116 506 125 463T163 399T248 379Q290 379 322 391Z" />
<glyph unicode=":" glyph-name="colon" horiz-adv-x="191" d="M75 531H134V428H75V531ZM75 178H134V76H75V178Z" />
<glyph unicode=";" glyph-name="semicolon" horiz-adv-x="204" d="M75 542H134V438H75V542ZM67 6Q93 23 101 38T109 85H75V182H138V97Q138 49 126 24T81 -17L67 6Z" />
<glyph unicode="&lt;" glyph-name="less" horiz-adv-x="357" d="M29 282V333L300 547V490L71 308L300 133V77L29 282Z" />
<glyph unicode="=" glyph-name="equal" horiz-adv-x="392" d="M49 495H342V451H49V495ZM49 333H342V288H49V333Z" />
<glyph unicode="&gt;" glyph-name="greater" horiz-adv-x="357" d="M57 133L287 316L57 491V547L329 341V290L57 77V133Z" />
<glyph unicode="?" glyph-name="question" horiz-adv-x="466" d="M181 323Q280 389 322 456T365 608Q365 691 330 731T230 772Q177 772 144 744T110 664Q110 637 122 606L74 594Q59 631 59 666Q59 737 107 778T231 819Q315 819 365 762T416 607Q416 512 371 444T227
308V200H181V323ZM179 73H231V0H179V73Z" />
<glyph unicode="@" glyph-name="at" horiz-adv-x="805" d="M59 -99T59 332Q59 490 110 597T247 756T440 809Q766 809 766 437Q766 410 765 396Q760 293 728 234T655 153T575 131Q541 131 516 156T495 224Q478 181 446 153T371 125Q312 125 277 170T241 298Q241
387 274 457T359 566T469 605Q509 605 542 580L550 600H590L544 265Q541 241 541 222Q541 195 550 182T584 168Q611 168 640 187T693 256T721 393Q722 409 722 438Q722 616 650 691T444 767Q348 767 272 717T152 569T108 333Q108 105 204 24T446 -58Q531 -58 631
-33L645 -72Q521 -99 443 -99Q59 -99 59 332ZM414 166T445 196T496 281L533 545Q509 563 474 563Q430 563 388 531T320 438T293 297Q293 227 317 197T377 166Q414 166 445 196Z" />
<glyph unicode="A" glyph-name="A" horiz-adv-x="468" d="M202 810H265L436 0H381L339 224H129L86 0H32L202 810ZM332 264L234 744L137 264H332Z" />
<glyph unicode="B" glyph-name="B" horiz-adv-x="488" d="M75 810H242Q346 810 387 756T429 608Q429 547 408 499T334 437Q397 418 422 361T447 236Q447 127 410 64T266 0H75V810ZM266 455Q328 455 353 496T378 608Q378 685 348 725T229 766H129V455H266ZM259
43Q312 43 341 63T382 125T394 235Q394 315 365 363T267 412H129V43H259Z" />
<glyph unicode="C" glyph-name="C" horiz-adv-x="489" d="M144 -11T101 53T58 233V577Q58 692 102 755T255 819Q356 819 398 761T440 591V550H388V591Q388 684 359 729T255 774Q173 774 143 726T113 583V225Q113 129 144 82T255 34Q331 34 359 80T388 218V267H440V227Q440
113 399 51T255 -11Q144 -11 101 53Z" />
<glyph unicode="D" glyph-name="D" horiz-adv-x="517" d="M75 810H252Q365 810 412 748T459 577V241Q459 127 414 64T257 0H75V810ZM254 43Q316 43 349 69T393 140T404 247V573Q404 670 372 718T252 766H129V43H254Z" />
<glyph unicode="E" glyph-name="E" horiz-adv-x="393" d="M74 810H354V766H129V441H314V399H129V43H357V0H74V810Z" />
<glyph unicode="F" glyph-name="F" horiz-adv-x="383" d="M75 810H354V767H129V441H323V399H129V0H75V810Z" />
<glyph unicode="G" glyph-name="G" horiz-adv-x="510" d="M144 -11T101 53T58 235V579Q58 695 101 757T255 819Q356 819 399 760T442 588V560H390V591Q390 685 361 729T255 774Q172 774 143 725T113 581V228Q113 132 144 83T256 34Q332 34 362 81T392 225V344H263V386H443V0H408L400
91Q384 41 349 15T252 -11Q144 -11 101 53Z" />
<glyph unicode="H" glyph-name="H" horiz-adv-x="542" d="M74 810H129V445H413V810H467V0H413V403H129V0H74V810Z" />
<glyph unicode="I" glyph-name="I" horiz-adv-x="206" d="M76 810H130V0H76V810Z" />
<glyph unicode="J" glyph-name="J" horiz-adv-x="265" d="M8 -2Q69 -2 95 9T128 50T136 150V810H190V144Q190 72 179 33T136 -25T36 -45H8V-2Z" />
<glyph unicode="K" glyph-name="K" horiz-adv-x="460" d="M74 810H129V355L364 810H418L247 467L459 0H405L214 420L129 265V0H74V810Z" />
<glyph unicode="L" glyph-name="L" horiz-adv-x="373" d="M75 810H129V43H374V0H75V810Z" />
<glyph unicode="M" glyph-name="M" horiz-adv-x="632" d="M89 810H143L314 79L488 810H544L567 0H520L500 679L335 0H295L132 678L112 0H65L89 810Z" />
<glyph unicode="N" glyph-name="N" horiz-adv-x="515" d="M75 810H118L393 126V810H441V0H398L123 685V0H75V810Z" />
<glyph unicode="O" glyph-name="O" horiz-adv-x="516" d="M147 -11T103 52T58 230V584Q58 696 103 757T258 819Q366 819 412 757T458 584V229Q458 115 414 52T258 -11Q147 -11 103 52ZM340 34T371 81T403 218V592Q403 682 372 728T258 774Q176 774 145 728T113
592V218Q113 127 144 81T258 34Q340 34 371 81Z" />
<glyph unicode="P" glyph-name="P" horiz-adv-x="485" d="M75 810H265Q368 810 410 755T453 601Q453 508 410 448T266 387H129V0H75V810ZM254 429Q329 429 363 468T397 601Q397 666 383 702T339 753T255 768H129V429H254Z" />
<glyph unicode="Q" glyph-name="Q" horiz-adv-x="523" d="M402 -142T366 -103T291 -9Q271 -11 261 -11Q150 -11 104 52T58 230V584Q58 695 105 757T261 819Q370 819 417 757T465 584V229Q465 136 435 77T333 -1Q355 -30 385 -62T434 -107L429 -156Q402 -142 366
-103ZM343 34T376 81T410 218V592Q410 681 377 727T261 774Q179 774 146 728T113 592V218Q113 128 146 81T261 34Q343 34 376 81Z" />
<glyph unicode="R" glyph-name="R" horiz-adv-x="508" d="M75 810H271Q371 810 410 757T449 610Q449 531 424 480T330 418L460 0H406L280 408H129V0H75V810ZM269 450Q342 450 369 489T396 610Q396 692 369 729T268 767H129V450H269Z" />
<glyph unicode="S" glyph-name="S" horiz-adv-x="452" d="M58 -10T42 200L89 215Q101 125 132 80T238 35Q367 35 367 165Q367 215 342 256T262 352L114 499Q43 570 43 653Q43 732 91 775T221 819Q308 819 355 773T409 616L363 605Q356 692 325 733T227 775Q166
775 130 746T93 657Q93 625 106 596T152 534L298 390Q354 335 386 281T418 168Q418 80 369 35T237 -10Q58 -10 42 200Z" />
<glyph unicode="T" glyph-name="T" horiz-adv-x="380" d="M165 766H-7V810H387V766H219V0H165V766Z" />
<glyph unicode="U" glyph-name="U" horiz-adv-x="533" d="M156 -11T111 42T65 190V810H119V189Q119 115 152 75T267 34Q345 34 380 76T415 189V810H468V190Q468 97 421 43T267 -11Q156 -11 111 42Z" />
<glyph unicode="V" glyph-name="V" horiz-adv-x="480" d="M24 810H78L246 95L403 810H456L271 0H220L24 810Z" />
<glyph unicode="W" glyph-name="W" horiz-adv-x="706" d="M34 809L82 810L201 107L331 792H383L517 107L625 810H672L541 0H495L357 709L222 0H175L34 809Z" />
<glyph unicode="X" glyph-name="X" horiz-adv-x="452" d="M193 420L16 810H66L225 464L380 810H434L249 412L438 0H385L218 364L69 0H15L193 420Z" />
<glyph unicode="Y" glyph-name="Y" horiz-adv-x="462" d="M207 259L20 810H76L235 324L386 810H442L261 259V0H207V259Z" />
<glyph unicode="Z" glyph-name="Z" horiz-adv-x="401" d="M31 43L322 767H57V810H381V776L87 43H382V0H31V43Z" />
<glyph unicode="[" glyph-name="bracketleft" horiz-adv-x="279" d="M74 810H221V777H128V-112H221V-145H74V810Z" />
<glyph unicode="\" glyph-name="backslash" horiz-adv-x="329" d="M21 810H69L307 0H259L21 810Z" />
<glyph unicode="]" glyph-name="bracketright" horiz-adv-x="270" d="M49 -112H142V777H49V810H196V-144H49V-112Z" />
<glyph unicode="^" glyph-name="asciicircum" horiz-adv-x="365" d="M154 810H211L339 525H294L183 776L71 525H26L154 810Z" />
<glyph unicode="_" glyph-name="underscore" horiz-adv-x="325" d="M0 -46H325V-90H0V-46Z" />
<glyph unicode="`" glyph-name="grave" horiz-adv-x="209" d="M50 810H104L159 616H131L50 810Z" />
<glyph unicode="a" glyph-name="a" horiz-adv-x="379" d="M102 -9T70 26T38 117Q38 168 56 200T122 264T274 345V386Q274 449 267 484T242 533T194 547Q153 547 128 524T102 438V422L50 423V438Q52 517 88 552T196 587Q268 587 297 542T327 392V101Q327 80 328
44T330 0H284L275 77Q262 40 229 16T154 -9Q102 -9 70 26ZM202 35T229 58T274 116V306Q187 261 155 241T107 195T91 125Q91 77 113 56T167 35Q202 35 229 58Z" />
<glyph unicode="b" glyph-name="b" horiz-adv-x="397" d="M156 -9T110 48V0H57V810H110V529Q128 554 156 570T221 587Q296 587 324 528T352 349V238Q352 111 322 51T216 -9Q156 -9 110 48ZM245 32T264 53T290 117T298 236V349Q298 423 292 464T266 526T210 546Q159
546 110 492V84Q154 32 209 32Q245 32 264 53Z" />
<glyph unicode="c" glyph-name="c" horiz-adv-x="375" d="M130 -9T99 19T57 96T46 217V353Q46 441 59 491T103 564T192 587Q275 587 304 539T333 400V377H283V400Q283 458 274 490T245 534T192 547Q153 547 133 529T106 472T99 359V209Q99 143 107 105T135 49T193
31Q231 31 250 47T276 98T283 194V216H333V195Q333 128 323 85T283 17T192 -9Q130 -9 99 19Z" />
<glyph unicode="d" glyph-name="d" horiz-adv-x="395" d="M132 -9T103 16T60 94T46 237V340Q46 426 57 479T98 560T179 587Q213 587 239 572T284 534V810H337V0H284V44Q239 -9 182 -9Q132 -9 103 16ZM216 32T240 46T284 81V496Q234 546 188 546Q151 546 132 527T106
466T99 353V233Q99 160 106 117T133 53T189 32Q216 32 240 46Z" />
<glyph unicode="e" glyph-name="e" horiz-adv-x="379" d="M144 -9T112 10T63 78T46 214V368Q46 455 63 503T113 569T194 587Q248 587 279 564T323 492T336 357L335 302H99V210Q99 141 108 102T138 47T193 31Q234 31 259 54T284 152V195H336V157Q336 77 304 34T193
-9Q144 -9 112 10ZM284 334V379Q284 438 278 473T253 527T194 547Q160 547 140 533T109 482T99 378V334H284Z" />
<glyph unicode="f" glyph-name="f" horiz-adv-x="256" d="M95 541H17V578H95V656Q95 699 101 726T127 770T189 787Q220 787 242 780V740Q236 741 223 743T200 746Q168 746 158 727T148 657V578H245V541H148V0H95V541Z" />
<glyph unicode="g" glyph-name="g" horiz-adv-x="429" d="M15 -196T15 -94Q15 -53 45 -17T118 41Q91 47 70 58T48 84Q48 110 69 142T120 209Q44 264 44 388Q44 439 61 484T114 558T205 587Q292 587 333 510Q343 529 364 548T411 578L425 583L440 543Q414 537 388
521T347 485Q354 466 360 436T366 387Q366 295 327 240T207 184Q190 184 173 187T145 194L131 172Q94 120 94 101Q94 90 142 81Q160 76 177 73T209 66L236 61Q311 45 349 15T388 -68Q388 -132 336 -164T202 -196Q15 -196 15 -94ZM317 223T317 388Q317 449 292 498T206
548Q145 548 119 497T93 388Q93 324 117 274T207 223Q317 223 317 388ZM265 -153T304 -132T343 -69Q343 -46 333 -31T296 -3T216 21L153 32Q115 10 88 -17T61 -81Q61 -118 96 -135T202 -153Q265 -153 304 -132Z" />
<glyph unicode="h" glyph-name="h" horiz-adv-x="392" d="M57 810H110V517Q139 550 174 568T248 587Q289 587 314 557T339 461V0H285V455Q285 506 270 526T225 546Q197 546 167 529T110 482V0H57V810Z" />
<glyph unicode="i" glyph-name="i" horiz-adv-x="189" d="M65 746H119V654H65V746ZM65 578H119V0H65V578Z" />
<glyph unicode="j" glyph-name="j" horiz-adv-x="202" d="M81 746H134V654H81V746ZM-8 -155T-16 -153V-110Q-14 -111 8 -111Q55 -111 68 -89T81 -25V578H134V-28Q134 -95 104 -125T14 -155Q-8 -155 -16 -153Z" />
<glyph unicode="k" glyph-name="k" horiz-adv-x="383" d="M57 810H110V276L325 578H382L230 357L374 0H320L190 325L110 217V0H57V810Z" />
<glyph unicode="l" glyph-name="l" horiz-adv-x="186" d="M67 810H120V0H67V810Z" />
<glyph unicode="m" glyph-name="m" horiz-adv-x="623" d="M57 578H107V517Q135 551 170 569T243 588Q315 588 333 511Q362 548 398 568T474 588Q516 588 543 559T570 457V0H519V458Q519 510 503 530T457 550Q427 550 396 532T337 482Q339 468 339 457V0H288V458Q288
510 272 530T226 550Q197 550 166 532T107 483V0H57V578Z" />
<glyph unicode="n" glyph-name="n" horiz-adv-x="391" d="M57 578H110V516Q138 549 173 568T247 587Q288 587 313 557T338 461V0H285V455Q285 505 270 525T224 546Q196 546 167 529T110 482V0H57V578Z" />
<glyph unicode="o" glyph-name="o" horiz-adv-x="383" d="M108 -9T77 43T46 211V367Q46 481 77 534T191 587Q274 587 305 535T337 367V211Q337 96 306 44T191 -9Q108 -9 77 43ZM231 31T251 51T278 109T284 209V369Q284 432 278 469T252 526T191 547Q151 547 131
527T105 470T99 369V209Q99 145 105 109T131 52T191 31Q231 31 251 51Z" />
<glyph unicode="p" glyph-name="p" horiz-adv-x="400" d="M57 578H110V529Q156 587 221 587Q296 587 324 528T352 349V238Q352 111 322 51T216 -9Q156 -9 110 48V-190H57V578ZM246 32T265 53T291 118T299 236V349Q299 423 292 464T266 526T210 546Q159 546 110
492V84Q129 61 155 47T210 32Q246 32 265 53Z" />
<glyph unicode="q" glyph-name="q" horiz-adv-x="396" d="M287 44Q242 -9 184 -9Q134 -9 105 16T62 94T48 237V340Q48 469 77 528T182 587Q215 587 242 572T287 533V578H340V-190H287V44ZM243 32T287 82V495Q238 546 190 546Q154 546 135 527T109 466T102 353V233Q102
159 109 116T136 53T192 32Q243 32 287 82Z" />
<glyph unicode="r" glyph-name="r" horiz-adv-x="283" d="M64 578H117V500Q141 540 179 562T254 584L264 583V528Q257 531 242 531Q162 531 117 457V0H64V578Z" />
<glyph unicode="s" glyph-name="s" horiz-adv-x="356" d="M120 -9T80 35T34 156L79 169Q84 98 112 65T190 31Q234 31 258 55T282 125Q280 189 197 260L130 317Q86 354 67 387T47 461Q47 521 82 554T178 587Q241 587 274 547T309 436L270 424Q266 547 181 547Q142
547 119 527T96 470Q96 436 108 413T155 360L224 299Q275 255 301 218T329 124Q329 62 291 27T188 -9Q120 -9 80 35Z" />
<glyph unicode="t" glyph-name="t" horiz-adv-x="263" d="M128 -6T110 24T92 114V543H16V578H92V763H145V578H243V543H145V121Q145 72 154 54T195 36Q215 36 238 41V0Q214 -6 184 -6Q128 -6 110 24Z" />
<glyph unicode="u" glyph-name="u" horiz-adv-x="395" d="M101 -9T77 21T52 117V578H105V123Q105 73 120 53T166 32Q196 32 227 51T285 102V578H337V0H285V68Q257 32 220 12T143 -9Q101 -9 77 21Z" />
<glyph unicode="v" glyph-name="v" horiz-adv-x="357" d="M19 578H73L181 67L287 578H338L211 0H152L19 578Z" />
<glyph unicode="w" glyph-name="w" horiz-adv-x="566" d="M33 578H80L160 61L259 578H311L412 63L487 578H534L441 0H386L286 507L188 0H128L33 578Z" />
<glyph unicode="x" glyph-name="x" horiz-adv-x="375" d="M161 301L29 578H83L191 349L298 578H353L216 296L355 0H305L187 246L72 0H20L161 301Z" />
<glyph unicode="y" glyph-name="y" horiz-adv-x="375" d="M37 -101Q92 -101 119 -92T155 -67T162 -21Q161 -12 158 5T152 30Q150 37 145 59L24 578H76L190 50L300 578H353L212 -47Q200 -98 165 -121T59 -144H37V-101Z" />
<glyph unicode="z" glyph-name="z" horiz-adv-x="325" d="M32 39L241 537H54V578H295V543L88 41H292V0H32V39Z" />
<glyph unicode="{" glyph-name="braceleft" horiz-adv-x="232" d="M154 -149T131 -136T101 -84T95 53V175Q95 232 91 261T74 302T37 314V360Q62 360 74 372T90 413T95 500V616Q95 715 101 752T130 803T214 817V777Q178 777 166 768T150 730T147 616V484Q147 409
136 378T93 337Q124 328 135 297T147 190V53Q147 -33 150 -62T165 -99T214 -108V-149Q154 -149 131 -136Z" />
<glyph unicode="|" glyph-name="bar" horiz-adv-x="204" d="M77 810H127V-141H77V810Z" />
<glyph unicode="}" glyph-name="braceright" horiz-adv-x="238" d="M23 -108Q59 -108 71 -100T87 -62T90 53V190Q90 265 102 296T145 337Q114 347 102 378T90 484V616Q90 701 87 730T72 768T23 777V817Q83 817 107 804T137 753T143 616V500Q143 443 147 414T164
372T201 360V314Q176 314 164 302T148 261T143 175V53Q143 -46 137 -84T107 -135T23 -149V-108Z" />
<glyph unicode="~" glyph-name="asciitilde" horiz-adv-x="382" d="M244 381T228 388T186 410Q169 420 153 428T126 436Q104 436 60 395L41 419Q90 476 129 476Q142 476 159 468T202 446Q206 444 219 437T242 426T258 422Q271 422 283 429T322 458L342 434Q289
381 257 381Q244 381 228 388Z" />
<glyph unicode="&#xa0;" glyph-name="uni00A0" horiz-adv-x="189" />
<glyph unicode="&#xa1;" glyph-name="exclamdown" horiz-adv-x="197" d="M69 607H129V533H69V607ZM89 433H108L128 -203H68L89 433Z" />
<glyph unicode="&#xa2;" glyph-name="cent" horiz-adv-x="379" d="M170 -8Q118 -3 91 26T55 102T46 217V353Q46 437 58 486T98 560T176 587V688H204V587Q279 583 306 535T333 400V377H283V400Q283 458 274 490T245 534T192 547Q153 547 133 529T106 472T99 359V209Q99
143 107 105T135 49T193 31Q231 31 250 47T276 98T283 194V216H333V195Q333 129 324 87T285 18T198 -9V-112H170V-8Z" />
<glyph unicode="&#xa3;" glyph-name="sterling" horiz-adv-x="361" d="M16 27L78 39V393H16V432H78V559Q78 649 88 703T130 788T225 819Q296 819 320 778T346 658V638H305Q305 690 299 719T276 763T224 778Q182 778 162 755T136 693T130 581V432H271V393H130V39H343V0H16V27Z"
/>
<glyph unicode="&#xa4;" glyph-name="currency" horiz-adv-x="512" d="M21 201L100 280Q74 308 60 345T46 423Q46 464 60 500T100 566L21 645L35 660L114 581Q142 608 179 622T257 637Q298 637 335 623T400 581L479 660L494 645L415 566Q440 537 454 500T469 423Q469
383 455 346T415 280L494 201L479 186L400 265Q371 238 335 223T257 209Q217 208 180 223T114 265L35 186L21 201ZM307 237T348 262T413 330T437 423Q437 473 414 515T349 583T257 608Q207 608 166 583T102 516T78 423Q78 373 101 330T166 262T257 237Q307 237
348 262Z" />
<glyph unicode="&#xa5;" glyph-name="yen" horiz-adv-x="420" d="M189 107H83V143H189V248H83V284H181L2 810H58L217 324L368 810H424L251 284H347V248H243V143H347V107H243V0H189V107Z" />
<glyph unicode="&#xa6;" glyph-name="brokenbar" horiz-adv-x="196" d="M75 810H122V391H75V810ZM75 239H122V-180H75V239Z" />
<glyph unicode="&#xa7;" glyph-name="section" horiz-adv-x="384" d="M135 -9T98 34T43 146L84 159Q96 105 125 69T197 33Q239 33 264 57T289 122Q289 147 273 176T202 260L91 362Q36 412 36 467Q36 509 62 537T127 580Q95 610 77 638T59 697Q59 750 95 784T193
818Q249 818 281 778T334 677L292 664Q276 712 254 743T191 775Q156 775 133 754T110 694Q110 650 178 588L281 502Q319 469 338 437T358 363Q358 316 336 289T276 242Q306 207 321 181T336 121Q336 61 297 26T196 -9Q135 -9 98 34ZM273 284T293 307T314 362Q314
390 298 415T248 471L157 551Q125 542 106 521T86 469Q86 435 123 396L245 271Q273 284 293 307Z" />
<glyph unicode="&#xa8;" glyph-name="dieresis" horiz-adv-x="372" d="M74 810H129V734H74V810ZM233 810H289V734H233V810Z" />
<glyph unicode="&#xa9;" glyph-name="copyright" horiz-adv-x="862" d="M296 -11T206 50T72 207T29 412Q29 520 72 616T205 773T431 834Q566 834 656 774T790 617T833 412Q833 303 791 207T658 50T431 -11Q296 -11 206 50ZM554 19T636 74T758 219T798 413Q798
517 758 606T636 749T432 804Q310 804 228 750T105 606T65 413Q65 309 105 219T227 74T432 19Q554 19 636 74ZM350 120T315 150T268 230T256 360V478Q256 573 270 626T320 703T418 727Q482 727 515 704T560 640T572 534V507H521V534Q521 597 511 629T478 672T418
684Q375 684 353 666T322 605T313 484V352Q313 280 322 240T354 182T419 163Q463 163 484 177T513 226T521 327V354H572V329Q572 256 562 213T519 145T418 120Q350 120 315 150Z" />
<glyph unicode="&#xaa;" glyph-name="ordfeminine" horiz-adv-x="392" d="M127 351T99 378T71 450Q71 489 87 514T145 562T277 622V660Q277 731 262 758T209 785Q129 785 129 694L85 695Q88 820 209 820Q274 820 299 782T324 655V358H284L280 416Q266 387 237
369T173 351Q127 351 99 378ZM214 388T238 406T277 453V595Q204 562 174 545T131 508T117 455Q117 419 136 404T183 388Q214 388 238 406Z" />
<glyph unicode="&#xab;" glyph-name="guillemotleft" horiz-adv-x="409" d="M41 321V342L209 550V481L89 333L209 182V113L41 321ZM185 321V342L354 550V481L234 332L354 182V113L185 321Z" />
<glyph unicode="&#xac;" glyph-name="logicalnot" horiz-adv-x="349" d="M282 396H41V440H319V284H282V396Z" />
<glyph unicode="&#xad;" glyph-name="uni00AD" horiz-adv-x="328" d="M57 354H277V312H57V354Z" />
<glyph unicode="&#xae;" glyph-name="registered" horiz-adv-x="869" d="M300 -12T210 48T77 205T34 410Q34 518 76 614T209 770T435 831Q570 831 660 771T792 614T835 410Q835 302 793 206T660 49T435 -12Q300 -12 210 48ZM555 21T636 75T757 218T797 410Q797
513 758 601T637 744T435 798Q314 798 233 744T112 602T72 410Q72 307 111 219T232 76T435 21Q555 21 636 75ZM303 718H471Q608 718 608 565Q608 507 585 468T510 418L613 110H563L465 411H351V110H303V718ZM462 443Q520 443 540 473T560 565Q560 625 540 653T466
682H351V443H462Z" />
<glyph unicode="&#xaf;" glyph-name="overscore" horiz-adv-x="351" d="M90 810H261V773H90V810Z" />
<glyph unicode="&#xb0;" glyph-name="degree" horiz-adv-x="389" d="M139 550T100 583T61 685Q61 752 100 785T195 818Q250 818 289 785T329 685Q329 617 290 584T195 550Q139 550 100 583ZM233 587T259 611T286 684Q286 733 260 758T194 783Q156 783 130 758T104
684Q104 635 130 611T195 587Q233 587 259 611Z" />
<glyph unicode="&#xb1;" glyph-name="plusminus" horiz-adv-x="322" d="M141 275H49V323H141V414H190V323H282V275H190V183H141V275ZM49 48H282V0H49V48Z" />
<glyph unicode="&#xb2;" glyph-name="uni00B2" horiz-adv-x="344" d="M30 471L154 604Q208 662 227 695T247 767Q247 809 227 833T164 858Q115 858 95 828T74 738H32V744Q32 812 66 855T166 898Q224 898 256 864T289 768Q289 722 268 685T194 592L83 473H304V433H30V471Z" />
<glyph unicode="&#xb3;" glyph-name="uni00B3" horiz-adv-x="330" d="M101 423T66 459T30 559V565H72V561Q72 463 164 463Q204 463 226 487T248 550Q248 594 225 618T152 643H138V683H149Q195 683 219 705T243 773Q243 811 222 834T163 858Q73 858 73 760V756H31V762Q31
828 66 863T163 898Q220 898 252 864T285 774Q285 732 265 703T215 664Q247 653 268 624T290 551Q290 493 255 458T163 423Q101 423 66 459Z" />
<glyph unicode="&#xb4;" glyph-name="acute" horiz-adv-x="206" d="M107 810H161L71 616H42L107 810Z" />
<glyph unicode="&#xb5;" glyph-name="uni00B5" horiz-adv-x="408" d="M52 578H105V123Q105 73 120 53T166 32Q196 32 227 51T285 102V578H337V0H285V68Q257 33 224 13T154 -8Q125 -8 105 8V-172H52V578Z" />
<glyph unicode="&#xb6;" glyph-name="paragraph" horiz-adv-x="480" d="M201 539Q119 538 73 573T27 673Q27 736 69 773T200 810H405V-94H365V774H241V-94H201V539Z" />
<glyph unicode="&#xb7;" glyph-name="middot" horiz-adv-x="195" d="M81 415H136V340H81V415Z" />
<glyph unicode="&#xb8;" glyph-name="cedilla" horiz-adv-x="291" d="M102 -186T80 -184V-155Q96 -157 102 -157Q137 -157 153 -147T170 -115Q170 -94 153 -82T102 -66V0H131V-47Q211 -51 211 -115Q211 -150 186 -168T113 -186Q102 -186 80 -184Z" />
<glyph unicode="&#xb9;" glyph-name="uni00B9" horiz-adv-x="227" d="M112 839L20 784V822L130 888H157V433H112V839Z" />
<glyph unicode="&#xba;" glyph-name="ordmasculine" horiz-adv-x="392" d="M121 351T93 388T64 497V674Q64 745 94 782T196 820Q268 820 298 782T328 674V497Q328 427 299 389T196 351Q121 351 93 388ZM246 384T265 413T285 498V673Q285 728 266 757T195 787Q146
787 126 757T105 673V498Q105 444 125 414T195 384Q246 384 265 413Z" />
<glyph unicode="&#xbb;" glyph-name="guillemotright" horiz-adv-x="415" d="M52 182L174 331L52 481V550L224 342V321L52 113V182ZM197 182L319 330L197 481V550L368 342V321L197 113V182Z" />
<glyph unicode="&#xbc;" glyph-name="onequarter" horiz-adv-x="689" d="M112 1017L20 962V1000L130 1066H157V611H112V1017ZM497 810H541L163 0H117L497 810ZM563 128H391V166L582 455H605V168H649V128H605V0H563V128ZM563 168L562 359L437 168H563Z" />
<glyph unicode="&#xbd;" glyph-name="onehalf" horiz-adv-x="705" d="M318 1017L226 962V1000L336 1066H363V611H318V1017ZM447 810H491L113 0H67L447 810ZM391 38L515 171Q569 229 588 262T608 334Q608 376 588 400T525 425Q476 425 456 395T435 305H393V311Q393
379 427 422T527 465Q585 465 617 431T650 335Q650 289 629 252T555 159L444 40H665V0H391V38Z" />
<glyph unicode="&#xbe;" glyph-name="threequarters" horiz-adv-x="867" d="M111 600T76 636T40 736V742H82V738Q82 640 174 640Q214 640 236 664T258 727Q258 771 235 795T162 820H148V860H159Q205 860 229 882T253 950Q253 988 232 1011T173 1035Q83 1035 83
937V933H41V939Q41 1005 76 1040T173 1075Q230 1075 262 1041T295 951Q295 909 275 880T225 841Q257 830 278 801T300 728Q300 670 265 635T173 600Q111 600 76 636ZM574 810H618L240 0H194L574 810ZM640 128H468V166L659 455H682V168H726V128H682V0H640V128ZM640
168L639 359L514 168H640Z" />
<glyph unicode="&#xbf;" glyph-name="questiondown" horiz-adv-x="466" d="M261 529H209V602H261V529ZM259 279Q160 213 118 146T75 -6Q75 -89 110 -129T210 -170Q263 -170 296 -142T330 -62Q330 -35 318 -4L366 8Q381 -29 381 -64Q381 -135 333 -176T209 -217Q125
-217 75 -160T24 -5Q24 90 69 158T213 294V402H259V279Z" />
<glyph unicode="&#xc0;" glyph-name="Agrave" horiz-adv-x="468" d="M202 810H265L436 0H381L339 224H129L86 0H32L202 810ZM332 264L234 744L137 264H332ZM138 1052H192L246 858H219L138 1052Z" />
<glyph unicode="&#xc1;" glyph-name="Aacute" horiz-adv-x="468" d="M202 810H265L436 0H381L339 224H129L86 0H32L202 810ZM332 264L234 744L137 264H332ZM285 1052H339L249 858H221L285 1052Z" />
<glyph unicode="&#xc2;" glyph-name="Acircumflex" horiz-adv-x="468" d="M202 810H265L436 0H381L339 224H129L86 0H32L202 810ZM332 264L234 744L137 264H332ZM201 1042H267L352 862H314L234 1015L154 862H115L201 1042Z" />
<glyph unicode="&#xc3;" glyph-name="Atilde" horiz-adv-x="468" d="M202 810H265L436 0H381L339 224H129L86 0H32L202 810ZM332 264L234 744L137 264H332ZM270 919T257 925T226 945Q211 956 202 961T183 966Q169 966 161 956T152 927H116Q116 951 129 977T178
1003Q195 1003 209 996T243 976Q268 956 285 956Q301 956 309 966T318 1001H352Q352 972 339 946T286 919Q270 919 257 925Z" />
<glyph unicode="&#xc4;" glyph-name="Adieresis" horiz-adv-x="468" d="M202 810H265L436 0H381L339 224H129L86 0H32L202 810ZM332 264L234 744L137 264H332ZM127 1042H182V966H127V1042ZM287 1042H343V966H287V1042Z" />
<glyph unicode="&#xc5;" glyph-name="Aring" horiz-adv-x="468" d="M202 810H265L436 0H381L339 224H129L86 0H32L202 810ZM332 264L234 744L137 264H332ZM199 881T174 902T148 966Q148 1008 173 1029T234 1051Q269 1051 294 1030T320 966Q320 924 295 903T234
881Q199 881 174 902ZM256 912T271 925T287 966Q287 994 272 1007T234 1021Q211 1021 196 1008T181 966Q181 939 196 926T234 912Q256 912 271 925Z" />
<glyph unicode="&#xc6;" glyph-name="AE" horiz-adv-x="629" d="M299 810H596V762H372V445H532V401H372V47H596V0H315V224H132L49 0H-15L299 810ZM314 268V727L148 268H314Z" />
<glyph unicode="&#xc7;" glyph-name="Ccedilla" horiz-adv-x="489" d="M388 550V591Q388 684 359 729T255 774Q173 774 143 726T113 583V225Q113 129 144 82T255 34Q331 34 359 80T388 218V267H440V227Q440 114 400 52T259 -11V-47Q339 -51 339 -115Q339 -150
314 -168T241 -186Q230 -186 208 -184V-155Q224 -157 230 -157Q265 -157 281 -147T298 -115Q298 -94 281 -82T230 -66V-10Q133 -2 96 61T58 233V577Q58 692 102 755T255 819Q356 819 398 761T440 591V550H388Z" />
<glyph unicode="&#xc8;" glyph-name="Egrave" horiz-adv-x="393" d="M74 810H354V766H129V441H314V399H129V43H357V0H74V810ZM121 1052H175L229 858H202L121 1052Z" />
<glyph unicode="&#xc9;" glyph-name="Eacute" horiz-adv-x="393" d="M74 810H354V766H129V441H314V399H129V43H357V0H74V810ZM268 1052H322L232 858H204L268 1052Z" />
<glyph unicode="&#xca;" glyph-name="Ecircumflex" horiz-adv-x="393" d="M74 810H354V766H129V441H314V399H129V43H357V0H74V810ZM184 1042H250L335 862H297L217 1015L137 862H98L184 1042Z" />
<glyph unicode="&#xcb;" glyph-name="Edieresis" horiz-adv-x="393" d="M74 810H354V766H129V441H314V399H129V43H357V0H74V810ZM110 1042H165V966H110V1042ZM270 1042H326V966H270V1042Z" />
<glyph unicode="&#xcc;" glyph-name="Igrave" horiz-adv-x="206" d="M76 810H130V0H76V810ZM7 1052H61L115 858H88L7 1052Z" />
<glyph unicode="&#xcd;" glyph-name="Iacute" horiz-adv-x="206" d="M76 810H130V0H76V810ZM154 1052H208L118 858H90L154 1052Z" />
<glyph unicode="&#xce;" glyph-name="Icircumflex" horiz-adv-x="206" d="M76 810H130V0H76V810ZM70 1042H136L221 862H183L103 1015L23 862H-16L70 1042Z" />
<glyph unicode="&#xcf;" glyph-name="Idieresis" horiz-adv-x="206" d="M76 810H130V0H76V810ZM-4 1042H51V966H-4V1042ZM156 1042H212V966H156V1042Z" />
<glyph unicode="&#xd0;" glyph-name="Eth" horiz-adv-x="561" d="M75 408H9V445H75V810H252Q365 810 412 748T459 577V241Q459 127 414 64T257 0H75V408ZM254 43Q316 43 349 69T393 140T404 247V573Q404 670 372 718T252 766H129V445H223V408H129V43H254Z" />
<glyph unicode="&#xd1;" glyph-name="Ntilde" horiz-adv-x="515" d="M75 810H118L393 126V810H441V0H398L123 685V0H75V810ZM294 919T281 925T250 945Q235 956 226 961T207 966Q193 966 185 956T176 927H140Q140 951 153 977T202 1003Q219 1003 233 996T267 976Q292
956 309 956Q325 956 333 966T342 1001H376Q376 972 363 946T310 919Q294 919 281 925Z" />
<glyph unicode="&#xd2;" glyph-name="Ograve" horiz-adv-x="516" d="M147 -11T103 52T58 230V584Q58 696 103 757T258 819Q366 819 412 757T458 584V229Q458 115 414 52T258 -11Q147 -11 103 52ZM340 34T371 81T403 218V592Q403 682 372 728T258 774Q176 774 145
728T113 592V218Q113 127 144 81T258 34Q340 34 371 81ZM162 1052H216L270 858H243L162 1052Z" />
<glyph unicode="&#xd3;" glyph-name="Oacute" horiz-adv-x="516" d="M147 -11T103 52T58 230V584Q58 696 103 757T258 819Q366 819 412 757T458 584V229Q458 115 414 52T258 -11Q147 -11 103 52ZM340 34T371 81T403 218V592Q403 682 372 728T258 774Q176 774 145
728T113 592V218Q113 127 144 81T258 34Q340 34 371 81ZM309 1052H363L273 858H245L309 1052Z" />
<glyph unicode="&#xd4;" glyph-name="Ocircumflex" horiz-adv-x="516" d="M147 -11T103 52T58 230V584Q58 696 103 757T258 819Q366 819 412 757T458 584V229Q458 115 414 52T258 -11Q147 -11 103 52ZM340 34T371 81T403 218V592Q403 682 372 728T258 774Q176
774 145 728T113 592V218Q113 127 144 81T258 34Q340 34 371 81ZM225 1042H291L376 862H338L258 1015L178 862H139L225 1042Z" />
<glyph unicode="&#xd5;" glyph-name="Otilde" horiz-adv-x="516" d="M147 -11T103 52T58 230V584Q58 696 103 757T258 819Q366 819 412 757T458 584V229Q458 115 414 52T258 -11Q147 -11 103 52ZM340 34T371 81T403 218V592Q403 682 372 728T258 774Q176 774 145
728T113 592V218Q113 127 144 81T258 34Q340 34 371 81ZM294 919T281 925T250 945Q235 956 226 961T207 966Q193 966 185 956T176 927H140Q140 951 153 977T202 1003Q219 1003 233 996T267 976Q292 956 309 956Q325 956 333 966T342 1001H376Q376 972 363 946T310
919Q294 919 281 925Z" />
<glyph unicode="&#xd6;" glyph-name="Odieresis" horiz-adv-x="516" d="M147 -11T103 52T58 230V584Q58 696 103 757T258 819Q366 819 412 757T458 584V229Q458 115 414 52T258 -11Q147 -11 103 52ZM340 34T371 81T403 218V592Q403 682 372 728T258 774Q176 774
145 728T113 592V218Q113 127 144 81T258 34Q340 34 371 81ZM151 1042H206V966H151V1042ZM311 1042H367V966H311V1042Z" />
<glyph unicode="&#xd7;" glyph-name="multiply" horiz-adv-x="335" d="M36 285L139 389L36 493L64 520L168 417L271 520L300 493L196 389L300 285L271 256L168 360L64 256L36 285Z" />
<glyph unicode="&#xd8;" glyph-name="Oslash" horiz-adv-x="523" d="M458 730T458 584V229Q458 115 414 52T258 -11Q200 -11 159 8L129 -95L104 -87L135 21Q94 50 76 103T58 230V584Q58 696 103 757T258 819Q318 819 360 799L388 896L413 889L383 785Q458 730
458 584ZM113 169T121 133T150 73L346 752Q313 774 258 774Q176 774 145 728T113 592V218Q113 169 121 133ZM403 592Q403 640 395 675T368 733L172 55Q204 34 258 34Q340 34 371 81T403 218V592Z" />
<glyph unicode="&#xd9;" glyph-name="Ugrave" horiz-adv-x="533" d="M156 -11T111 42T65 190V810H119V189Q119 115 152 75T267 34Q345 34 380 76T415 189V810H468V190Q468 97 421 43T267 -11Q156 -11 111 42ZM171 1052H225L279 858H252L171 1052Z" />
<glyph unicode="&#xda;" glyph-name="Uacute" horiz-adv-x="533" d="M156 -11T111 42T65 190V810H119V189Q119 115 152 75T267 34Q345 34 380 76T415 189V810H468V190Q468 97 421 43T267 -11Q156 -11 111 42ZM318 1052H372L282 858H254L318 1052Z" />
<glyph unicode="&#xdb;" glyph-name="Ucircumflex" horiz-adv-x="533" d="M156 -11T111 42T65 190V810H119V189Q119 115 152 75T267 34Q345 34 380 76T415 189V810H468V190Q468 97 421 43T267 -11Q156 -11 111 42ZM234 1042H300L385 862H347L267 1015L187 862H148L234
1042Z" />
<glyph unicode="&#xdc;" glyph-name="Udieresis" horiz-adv-x="533" d="M156 -11T111 42T65 190V810H119V189Q119 115 152 75T267 34Q345 34 380 76T415 189V810H468V190Q468 97 421 43T267 -11Q156 -11 111 42ZM160 1042H215V966H160V1042ZM320 1042H376V966H320V1042Z" />
<glyph unicode="&#xdd;" glyph-name="Yacute" horiz-adv-x="462" d="M207 259L20 810H76L235 324L386 810H442L261 259V0H207V259ZM282 1052H336L246 858H218L282 1052Z" />
<glyph unicode="&#xde;" glyph-name="Thorn" horiz-adv-x="505" d="M75 810H129V706H281Q381 706 426 644T472 485Q472 388 428 319T276 250H129V0H75V810ZM268 298Q344 298 380 342T416 483Q416 659 272 659H129V298H268Z" />
<glyph unicode="&#xdf;" glyph-name="germandbls" horiz-adv-x="484" d="M170 34Q386 34 386 237Q386 321 350 375T227 430L229 475Q344 475 344 634Q344 711 317 749T230 787Q191 787 167 774T130 722T117 611V0H64V610Q64 694 82 742T137 809T229 829Q308 829
352 780T396 634Q396 487 299 456Q373 439 405 380T438 240Q438 132 380 61T170 -11V34Z" />
<glyph unicode="&#xe0;" glyph-name="agrave" horiz-adv-x="379" d="M102 -9T70 26T38 117Q38 168 56 200T122 264T274 345V386Q274 449 267 484T242 533T194 547Q153 547 128 524T102 438V422L50 423V438Q52 517 88 552T196 587Q268 587 297 542T327 392V101Q327
80 328 44T330 0H284L275 77Q262 40 229 16T154 -9Q102 -9 70 26ZM202 35T229 58T274 116V306Q187 261 155 241T107 195T91 125Q91 77 113 56T167 35Q202 35 229 58ZM99 820H153L207 626H180L99 820Z" />
<glyph unicode="&#xe1;" glyph-name="aacute" horiz-adv-x="379" d="M102 -9T70 26T38 117Q38 168 56 200T122 264T274 345V386Q274 449 267 484T242 533T194 547Q153 547 128 524T102 438V422L50 423V438Q52 517 88 552T196 587Q268 587 297 542T327 392V101Q327
80 328 44T330 0H284L275 77Q262 40 229 16T154 -9Q102 -9 70 26ZM202 35T229 58T274 116V306Q187 261 155 241T107 195T91 125Q91 77 113 56T167 35Q202 35 229 58ZM246 820H300L210 626H182L246 820Z" />
<glyph unicode="&#xe2;" glyph-name="acircumflex" horiz-adv-x="379" d="M102 -9T70 26T38 117Q38 168 56 200T122 264T274 345V386Q274 449 267 484T242 533T194 547Q153 547 128 524T102 438V422L50 423V438Q52 517 88 552T196 587Q268 587 297 542T327 392V101Q327
80 328 44T330 0H284L275 77Q262 40 229 16T154 -9Q102 -9 70 26ZM202 35T229 58T274 116V306Q187 261 155 241T107 195T91 125Q91 77 113 56T167 35Q202 35 229 58ZM162 810H228L313 630H275L195 783L115 630H76L162 810Z" />
<glyph unicode="&#xe3;" glyph-name="atilde" horiz-adv-x="379" d="M102 -9T70 26T38 117Q38 168 56 200T122 264T274 345V386Q274 449 267 484T242 533T194 547Q153 547 128 524T102 438V422L50 423V438Q52 517 88 552T196 587Q268 587 297 542T327 392V101Q327
80 328 44T330 0H284L275 77Q262 40 229 16T154 -9Q102 -9 70 26ZM202 35T229 58T274 116V306Q187 261 155 241T107 195T91 125Q91 77 113 56T167 35Q202 35 229 58ZM231 687T218 693T187 713Q172 724 163 729T144 734Q130 734 122 724T113 695H77Q77 719 90 745T139
771Q156 771 170 764T204 744Q229 724 246 724Q262 724 270 734T279 769H313Q313 740 300 714T247 687Q231 687 218 693Z" />
<glyph unicode="&#xe4;" glyph-name="adieresis" horiz-adv-x="379" d="M102 -9T70 26T38 117Q38 168 56 200T122 264T274 345V386Q274 449 267 484T242 533T194 547Q153 547 128 524T102 438V422L50 423V438Q52 517 88 552T196 587Q268 587 297 542T327 392V101Q327
80 328 44T330 0H284L275 77Q262 40 229 16T154 -9Q102 -9 70 26ZM202 35T229 58T274 116V306Q187 261 155 241T107 195T91 125Q91 77 113 56T167 35Q202 35 229 58ZM88 810H143V734H88V810ZM248 810H304V734H248V810Z" />
<glyph unicode="&#xe5;" glyph-name="aring" horiz-adv-x="379" d="M102 -9T70 26T38 117Q38 168 56 200T122 264T274 345V386Q274 449 267 484T242 533T194 547Q153 547 128 524T102 438V422L50 423V438Q52 517 88 552T196 587Q268 587 297 542T327 392V101Q327
80 328 44T330 0H284L275 77Q262 40 229 16T154 -9Q102 -9 70 26ZM202 35T229 58T274 116V306Q187 261 155 241T107 195T91 125Q91 77 113 56T167 35Q202 35 229 58ZM160 649T135 670T109 734Q109 776 134 797T195 819Q230 819 255 798T281 734Q281 692 256 671T195
649Q160 649 135 670ZM217 680T232 693T248 734Q248 762 233 775T195 789Q172 789 157 776T142 734Q142 707 157 694T195 680Q217 680 232 693Z" />
<glyph unicode="&#xe6;" glyph-name="ae" horiz-adv-x="599" d="M563 195V157Q563 77 532 34T423 -9Q374 -9 339 18T296 107Q282 47 244 19T161 -9Q106 -9 73 25T40 117Q40 157 50 186T93 243T189 293L276 323V409Q276 487 256 516T186 546Q149 546 125 521T101
433L50 435Q50 511 85 549T184 587Q233 587 264 563T305 492Q315 542 350 564T433 587Q494 587 526 555T559 471Q559 418 531 389T441 338L330 300V223Q330 119 351 76T423 33Q463 33 487 57T511 155V195H563ZM330 335L432 371Q478 388 494 408T510 467Q510 500
491 522T429 545Q379 545 355 510T330 384V335ZM276 288Q274 288 240 274L203 259Q155 239 131 220T100 181T92 130Q92 79 114 56T168 32Q214 32 245 75T276 217V288Z" />
<glyph unicode="&#xe7;" glyph-name="ccedilla" horiz-adv-x="375" d="M283 377V400Q283 458 274 490T245 534T192 547Q153 547 133 529T106 472T99 359V209Q99 143 107 105T135 49T193 31Q231 31 250 47T276 98T283 194V216H333V195Q333 130 324 88T287 19T202
-9V-47Q282 -51 282 -115Q282 -150 257 -168T184 -186Q173 -186 151 -184V-155Q167 -157 173 -157Q208 -157 224 -147T241 -115Q241 -94 224 -82T173 -66V-8Q119 -4 92 25T55 101T46 217V353Q46 441 59 491T103 564T192 587Q275 587 304 539T333 400V377H283Z"
/>
<glyph unicode="&#xe8;" glyph-name="egrave" horiz-adv-x="379" d="M144 -9T112 10T63 78T46 214V368Q46 455 63 503T113 569T194 587Q248 587 279 564T323 492T336 357L335 302H99V210Q99 141 108 102T138 47T193 31Q234 31 259 54T284 152V195H336V157Q336
77 304 34T193 -9Q144 -9 112 10ZM284 334V379Q284 438 278 473T253 527T194 547Q160 547 140 533T109 482T99 378V334H284ZM94 820H148L202 626H175L94 820Z" />
<glyph unicode="&#xe9;" glyph-name="eacute" horiz-adv-x="379" d="M144 -9T112 10T63 78T46 214V368Q46 455 63 503T113 569T194 587Q248 587 279 564T323 492T336 357L335 302H99V210Q99 141 108 102T138 47T193 31Q234 31 259 54T284 152V195H336V157Q336
77 304 34T193 -9Q144 -9 112 10ZM284 334V379Q284 438 278 473T253 527T194 547Q160 547 140 533T109 482T99 378V334H284ZM241 820H295L205 626H177L241 820Z" />
<glyph unicode="&#xea;" glyph-name="ecircumflex" horiz-adv-x="379" d="M144 -9T112 10T63 78T46 214V368Q46 455 63 503T113 569T194 587Q248 587 279 564T323 492T336 357L335 302H99V210Q99 141 108 102T138 47T193 31Q234 31 259 54T284 152V195H336V157Q336
77 304 34T193 -9Q144 -9 112 10ZM284 334V379Q284 438 278 473T253 527T194 547Q160 547 140 533T109 482T99 378V334H284ZM157 810H223L308 630H270L190 783L110 630H71L157 810Z" />
<glyph unicode="&#xeb;" glyph-name="edieresis" horiz-adv-x="379" d="M144 -9T112 10T63 78T46 214V368Q46 455 63 503T113 569T194 587Q248 587 279 564T323 492T336 357L335 302H99V210Q99 141 108 102T138 47T193 31Q234 31 259 54T284 152V195H336V157Q336
77 304 34T193 -9Q144 -9 112 10ZM284 334V379Q284 438 278 473T253 527T194 547Q160 547 140 533T109 482T99 378V334H284ZM83 810H138V734H83V810ZM243 810H299V734H243V810Z" />
<glyph unicode="&#xec;" glyph-name="igrave" horiz-adv-x="182" d="M65 578H118V0H65V578ZM-4 820H50L104 626H77L-4 820Z" />
<glyph unicode="&#xed;" glyph-name="iacute" horiz-adv-x="182" d="M65 578H118V0H65V578ZM143 820H197L107 626H79L143 820Z" />
<glyph unicode="&#xee;" glyph-name="icircumflex" horiz-adv-x="182" d="M65 578H118V0H65V578ZM59 810H125L210 630H172L92 783L12 630H-27L59 810Z" />
<glyph unicode="&#xef;" glyph-name="idieresis" horiz-adv-x="182" d="M65 578H118V0H65V578ZM-15 810H40V734H-15V810ZM145 810H201V734H145V810Z" />
<glyph unicode="&#xf0;" glyph-name="eth" horiz-adv-x="430" d="M130 -11T93 49T55 223V302Q56 556 208 556Q255 556 306 529Q291 627 271 666L168 638V671L256 695Q235 739 192 762T81 791L84 828Q163 823 216 796T299 709L380 730V697L313 679Q332 636 351
541T370 332V248Q370 114 337 52T215 -11Q130 -11 93 49ZM261 32T282 56T311 133T318 283Q318 319 314 400T308 489Q302 491 284 498T250 510T220 514Q163 514 135 455T107 257Q107 141 133 87T217 32Q261 32 282 56Z" />
<glyph unicode="&#xf1;" glyph-name="ntilde" horiz-adv-x="391" d="M57 578H110V516Q138 549 173 568T247 587Q288 587 313 557T338 461V0H285V455Q285 505 270 525T224 546Q196 546 167 529T110 482V0H57V578ZM232 687T219 693T188 713Q173 724 164 729T145
734Q131 734 123 724T114 695H78Q78 719 91 745T140 771Q157 771 171 764T205 744Q230 724 247 724Q263 724 271 734T280 769H314Q314 740 301 714T248 687Q232 687 219 693Z" />
<glyph unicode="&#xf2;" glyph-name="ograve" horiz-adv-x="383" d="M108 -9T77 43T46 211V367Q46 481 77 534T191 587Q274 587 305 535T337 367V211Q337 96 306 44T191 -9Q108 -9 77 43ZM231 31T251 51T278 109T284 209V369Q284 432 278 469T252 526T191 547Q151
547 131 527T105 470T99 369V209Q99 145 105 109T131 52T191 31Q231 31 251 51ZM96 820H150L204 626H177L96 820Z" />
<glyph unicode="&#xf3;" glyph-name="oacute" horiz-adv-x="383" d="M108 -9T77 43T46 211V367Q46 481 77 534T191 587Q274 587 305 535T337 367V211Q337 96 306 44T191 -9Q108 -9 77 43ZM231 31T251 51T278 109T284 209V369Q284 432 278 469T252 526T191 547Q151
547 131 527T105 470T99 369V209Q99 145 105 109T131 52T191 31Q231 31 251 51ZM243 820H297L207 626H179L243 820Z" />
<glyph unicode="&#xf4;" glyph-name="ocircumflex" horiz-adv-x="383" d="M108 -9T77 43T46 211V367Q46 481 77 534T191 587Q274 587 305 535T337 367V211Q337 96 306 44T191 -9Q108 -9 77 43ZM231 31T251 51T278 109T284 209V369Q284 432 278 469T252 526T191
547Q151 547 131 527T105 470T99 369V209Q99 145 105 109T131 52T191 31Q231 31 251 51ZM159 810H225L310 630H272L192 783L112 630H73L159 810Z" />
<glyph unicode="&#xf5;" glyph-name="otilde" horiz-adv-x="383" d="M108 -9T77 43T46 211V367Q46 481 77 534T191 587Q274 587 305 535T337 367V211Q337 96 306 44T191 -9Q108 -9 77 43ZM231 31T251 51T278 109T284 209V369Q284 432 278 469T252 526T191 547Q151
547 131 527T105 470T99 369V209Q99 145 105 109T131 52T191 31Q231 31 251 51ZM228 687T215 693T184 713Q169 724 160 729T141 734Q127 734 119 724T110 695H74Q74 719 87 745T136 771Q153 771 167 764T201 744Q226 724 243 724Q259 724 267 734T276 769H310Q310
740 297 714T244 687Q228 687 215 693Z" />
<glyph unicode="&#xf6;" glyph-name="odieresis" horiz-adv-x="383" d="M108 -9T77 43T46 211V367Q46 481 77 534T191 587Q274 587 305 535T337 367V211Q337 96 306 44T191 -9Q108 -9 77 43ZM231 31T251 51T278 109T284 209V369Q284 432 278 469T252 526T191 547Q151
547 131 527T105 470T99 369V209Q99 145 105 109T131 52T191 31Q231 31 251 51ZM85 810H140V734H85V810ZM245 810H301V734H245V810Z" />
<glyph unicode="&#xf7;" glyph-name="divide" horiz-adv-x="331" d="M141 614H190V536H141V614ZM30 439H301V396H30V439ZM141 289H190V210H141V289Z" />
<glyph unicode="&#xf8;" glyph-name="oslash" horiz-adv-x="383" d="M337 489T337 367V211Q337 96 306 44T191 -9Q138 -9 107 13L78 -65L58 -58L90 27Q66 53 56 98T46 211V367Q46 481 77 534T191 587Q252 587 286 558L314 634L335 625L303 539Q337 489 337 367ZM99
121T111 85L266 505Q246 547 191 547Q151 547 131 527T105 470T99 369V209Q99 121 111 85ZM284 369Q284 438 277 471L124 59Q146 31 191 31Q231 31 251 51T278 109T284 209V369Z" />
<glyph unicode="&#xf9;" glyph-name="ugrave" horiz-adv-x="395" d="M101 -9T77 21T52 117V578H105V123Q105 73 120 53T166 32Q196 32 227 51T285 102V578H337V0H285V68Q257 32 220 12T143 -9Q101 -9 77 21ZM102 820H156L210 626H183L102 820Z" />
<glyph unicode="&#xfa;" glyph-name="uacute" horiz-adv-x="395" d="M101 -9T77 21T52 117V578H105V123Q105 73 120 53T166 32Q196 32 227 51T285 102V578H337V0H285V68Q257 32 220 12T143 -9Q101 -9 77 21ZM249 820H303L213 626H185L249 820Z" />
<glyph unicode="&#xfb;" glyph-name="ucircumflex" horiz-adv-x="395" d="M101 -9T77 21T52 117V578H105V123Q105 73 120 53T166 32Q196 32 227 51T285 102V578H337V0H285V68Q257 32 220 12T143 -9Q101 -9 77 21ZM165 810H231L316 630H278L198 783L118 630H79L165 810Z" />
<glyph unicode="&#xfc;" glyph-name="udieresis" horiz-adv-x="395" d="M101 -9T77 21T52 117V578H105V123Q105 73 120 53T166 32Q196 32 227 51T285 102V578H337V0H285V68Q257 32 220 12T143 -9Q101 -9 77 21ZM91 810H146V734H91V810ZM251 810H307V734H251V810Z" />
<glyph unicode="&#xfd;" glyph-name="yacute" horiz-adv-x="375" d="M37 -101Q92 -101 119 -92T155 -67T162 -21Q161 -12 158 5T152 30Q150 37 145 59L24 578H76L190 50L300 578H353L212 -47Q200 -98 165 -121T59 -144H37V-101ZM239 820H293L203 626H175L239 820Z" />
<glyph unicode="&#xfe;" glyph-name="thorn" horiz-adv-x="398" d="M58 810H111V529Q130 554 157 570T222 587Q297 587 324 528T352 349V238Q352 111 322 51T216 -9Q183 -9 156 7T111 48V-190H58V810ZM246 32T265 53T291 118T299 236V349Q299 423 293 464T267
526T211 546Q181 546 156 530T111 492V84Q129 61 155 47T210 32Q246 32 265 53Z" />
<glyph unicode="&#xff;" glyph-name="ydieresis" horiz-adv-x="375" d="M37 -101Q92 -101 119 -92T155 -67T162 -21Q161 -12 158 5T152 30Q150 37 145 59L24 578H76L190 50L300 578H353L212 -47Q200 -98 165 -121T59 -144H37V-101ZM81 810H136V734H81V810ZM241
810H297V734H241V810Z" />
<glyph unicode="&#x2013;" glyph-name="endash" horiz-adv-x="457" d="M60 261H405V214H60V261Z" />
<glyph unicode="&#x2014;" glyph-name="emdash" horiz-adv-x="747" d="M60 279H695V232H60V279Z" />
<glyph unicode="&#x2018;" glyph-name="quoteleft" horiz-adv-x="152" d="M33 704Q33 760 45 789T90 835L106 818Q81 801 73 781T65 719H98V629H33V704Z" />
<glyph unicode="&#x2019;" glyph-name="quoteright" horiz-adv-x="153" d="M46 621Q72 637 79 657T87 720H55V810H120V734Q120 678 108 649T63 603L46 621Z" />
<glyph unicode="&#x201a;" glyph-name="quotesinglbase" horiz-adv-x="153" d="M46 -93Q72 -77 79 -57T87 6H55V96H120V20Q120 -36 108 -65T63 -111L46 -93Z" />
<glyph unicode="&#x201c;" glyph-name="quotedblleft" horiz-adv-x="263" d="M33 704Q33 760 45 789T90 835L106 818Q81 801 73 781T65 719H98V629H33V704ZM144 704Q144 760 156 789T201 835L217 818Q192 801 184 781T176 719H209V629H144V704Z" />
<glyph unicode="&#x201d;" glyph-name="quotedblright" horiz-adv-x="264" d="M46 621Q72 637 79 657T87 720H55V810H120V734Q120 678 108 649T63 603L46 621ZM157 621Q183 637 190 657T198 720H166V810H231V734Q231 678 219 649T174 603L157 621Z" />
<glyph unicode="&#x201e;" glyph-name="quotedblbase" horiz-adv-x="264" d="M157 -93Q183 -77 190 -57T198 6H166V96H231V20Q231 -36 219 -65T174 -111L157 -93ZM46 -93Q72 -77 79 -57T87 6H55V96H120V20Q120 -36 108 -65T63 -111L46 -93Z" />
<glyph unicode="&#x2022;" glyph-name="bullet" horiz-adv-x="265" d="M97 312T77 334T57 389Q57 422 77 444T132 466Q168 466 188 444T208 389Q208 356 188 334T132 312Q97 312 77 334Z" />
<glyph unicode="&#x2039;" glyph-name="guilsinglleft" horiz-adv-x="356" d="M133 321V342L311 550V481L182 332L311 182V113L133 321Z" />
<glyph unicode="&#x203a;" glyph-name="guilsinglright" horiz-adv-x="331" d="M83 197L212 346L83 497V565L261 357V336L83 128V197Z" />
</font>
</defs>
</svg>
