<?xml version="1.0" standalone="no"?>
<!DOCTYPE svg PUBLIC "-//W3C//DTD SVG 1.1//EN" "http://www.w3.org/Graphics/SVG/1.1/DTD/svg11.dtd">
<svg xmlns="http://www.w3.org/2000/svg">
<defs >
<font id="ArchivoNarrow" horiz-adv-x="487" ><font-face
    font-family="Archivo Narrow"
    units-per-em="1000"
    panose-1="2 11 8 6 2 2 2 2 11 4"
    ascent="878"
    descent="-210"
    alphabetic="0" />
<glyph unicode=" " glyph-name="space" horiz-adv-x="228" />
<glyph unicode="!" glyph-name="exclam" horiz-adv-x="273" d="M60 686H213L177 197H95L60 686ZM68 137H206V0H68V137Z" />
<glyph unicode="&quot;" glyph-name="quotedbl" horiz-adv-x="389" d="M45 539V686H167V539L146 407H67L45 539ZM226 539V686H348V539L327 407H248L226 539Z" />
<glyph unicode="#" glyph-name="numbersign" horiz-adv-x="456" d="M68 195H5V279H87L118 420H44V504H137L181 698H269L225 504H300L344 698H432L388 504H450V420H369L338 279H411V195H319L275 0H187L231 195H156L112 0H24L68 195ZM250 279L281 420H206L175 279H250Z" />
<glyph unicode="$" glyph-name="dollar" horiz-adv-x="456" d="M198 69Q120 76 77 120T33 235L34 247H144V240Q144 208 159 188T198 161V304Q149 318 117 332T63 377T41 458Q41 527 84 568T198 616V723H253V617Q321 611 364 573T407 475L406 452H296V462Q296 510
253 526V397Q305 383 338 369T396 323T420 238Q420 81 253 69V-49H198V69ZM198 526Q177 519 164 504T151 468Q151 448 163 436T198 414V526ZM278 165T294 181T310 223Q310 246 296 260T253 286V159Q278 165 294 181Z" />
<glyph unicode="%" glyph-name="percent" horiz-adv-x="729" d="M104 337T70 377T35 517Q35 616 69 657T173 698Q242 698 276 657T311 517Q311 418 277 378T173 337Q104 337 70 377ZM532 686H618L199 0H114L532 686ZM201 410T211 435T222 510V525Q222 574 212
599T173 625Q145 625 135 600T124 525V510Q124 461 134 436T173 410Q201 410 211 435ZM488 -12T454 28T419 168Q419 267 453 308T557 349Q626 349 660 308T695 168Q695 69 661 29T557 -12Q488 -12 454 28ZM585 61T595 86T606 161V176Q606 225 596 250T557 276Q529
276 519 251T508 176V161Q508 112 518 87T557 61Q585 61 595 86Z" />
<glyph unicode="&amp;" glyph-name="ampersand" horiz-adv-x="592" d="M201 -12T148 11T66 79T36 184Q36 249 68 292T153 352V356Q104 380 77 416T50 510Q50 600 112 649T279 698Q343 698 393 675T470 609T498 510V482H378V501Q378 597 277 597Q229 597 202 573T175
505Q175 456 202 428T273 399H314V298H276Q161 298 161 190Q161 140 190 115T271 89Q324 89 351 115T378 191V399H577V298H498V194Q498 99 439 44T269 -12Q201 -12 148 11Z" />
<glyph unicode="&apos;" glyph-name="quotesingle" horiz-adv-x="195" d="M37 539V686H159V539L138 407H59L37 539Z" />
<glyph unicode="(" glyph-name="parenleft" horiz-adv-x="273" d="M107 -65T69 50T30 288Q30 411 68 527T179 735H258Q206 638 173 520T140 290Q140 178 173 59T258 -157H179Q107 -65 69 50Z" />
<glyph unicode=")" glyph-name="parenright" horiz-adv-x="273" d="M67 -60T100 59T133 290Q133 402 100 520T15 735H94Q166 643 204 527T243 288Q243 165 205 50T94 -157H15Q67 -60 100 59Z" />
<glyph unicode="*" glyph-name="asterisk" horiz-adv-x="319" d="M131 483L47 423L8 491L101 533L8 577L47 643L131 584L121 686H199L189 585L273 643L312 577L219 533L312 491L273 423L189 483L199 381H121L131 483Z" />
<glyph unicode="+" glyph-name="plus" horiz-adv-x="479" d="M187 203H33V307H187V511H290V307H445V203H290V0H187V203Z" />
<glyph unicode="," glyph-name="comma" horiz-adv-x="228" d="M100 0H45V137H183V12L117 -156H45L100 0Z" />
<glyph unicode="-" glyph-name="hyphen" horiz-adv-x="273" d="M16 329H257V211H16V329Z" />
<glyph unicode="." glyph-name="period" horiz-adv-x="228" d="M45 137H183V0H45V137Z" />
<glyph unicode="/" glyph-name="slash" horiz-adv-x="228" d="M143 735H228L87 -49H1L143 735Z" />
<glyph unicode="0" glyph-name="zero" horiz-adv-x="456" d="M162 -12T119 19T53 129T30 343Q30 479 53 557T119 666T228 698Q293 698 336 666T403 556T426 343Q426 208 403 130T337 20T228 -12Q162 -12 119 19ZM258 89T273 112T295 181T301 308V378Q301 458 295
504T274 574T228 597Q198 597 183 574T161 505T155 378V308Q155 228 161 182T182 112T228 89Q258 89 273 112Z" />
<glyph unicode="1" glyph-name="one" horiz-adv-x="456" d="M40 101H194V529H39V609Q83 614 146 635T255 686H314V101H455V0H40V101Z" />
<glyph unicode="2" glyph-name="two" horiz-adv-x="456" d="M33 24Q33 76 52 122T107 215Q134 249 170 288Q214 337 238 368T280 439T297 521Q297 550 282 572T234 595Q199 595 182 566T165 491V450H42Q41 453 40 464T39 490Q39 594 95 646T239 698Q321 698 372
654T423 520Q423 462 398 407T340 307T255 204Q211 154 204 144Q189 124 183 112H426V0H33V24Z" />
<glyph unicode="3" glyph-name="three" horiz-adv-x="456" d="M131 -12T78 43T25 194V212H150V191Q150 142 169 116T226 89Q261 89 281 114T301 190Q301 298 219 298H186V399H221Q251 399 270 426T289 505Q289 597 226 597Q195 597 179 573T162 501V482H37V510Q37
566 61 608T127 674T225 698Q312 698 363 649T414 510Q414 453 391 417T325 356V352Q371 335 398 292T426 184Q426 94 371 41T228 -12Q131 -12 78 43Z" />
<glyph unicode="4" glyph-name="four" horiz-adv-x="456" d="M255 155H8V251Q60 342 104 460T181 698H301Q284 616 248 526T173 362T112 256H255V410Q274 448 293 501T322 596H375V256H445V155H375V0H255V155Z" />
<glyph unicode="5" glyph-name="five" horiz-adv-x="456" d="M140 -12T85 48T30 213H155Q155 155 175 122T232 88Q267 88 288 123T309 224Q309 282 290 315T239 348Q191 348 165 290L49 306L72 686H404V574H178L168 412Q210 446 266 446Q340 446 386 390T433 224Q433
112 380 50T232 -12Q140 -12 85 48Z" />
<glyph unicode="6" glyph-name="six" horiz-adv-x="456" d="M135 -12T83 64T30 323Q30 462 53 545T119 663T228 698Q319 698 363 637T408 475H285Q285 536 271 566T224 597Q194 597 180 571T160 500T154 377Q171 403 199 417T260 431Q341 431 383 370T426 210Q426
143 402 93T334 15T237 -12Q135 -12 83 64ZM267 89T284 122T302 210Q302 267 285 300T232 333Q197 333 179 300T161 210Q161 156 179 123T232 89Q267 89 284 122Z" />
<glyph unicode="7" glyph-name="seven" horiz-adv-x="456" d="M99 154T157 306T303 574H23V686H433V605Q348 477 290 335T231 51Q231 24 232 0H99Q99 154 157 306Z" />
<glyph unicode="8" glyph-name="eight" horiz-adv-x="456" d="M128 -12T79 43T30 188Q30 308 118 352Q81 376 63 416T44 507Q44 590 92 644T228 698Q316 698 364 644T412 507Q412 457 393 417T337 352Q426 308 426 188Q426 99 377 44T228 -12Q128 -12 79 43ZM258
400T274 425T291 499Q291 547 275 572T228 598Q198 598 182 573T166 499Q166 450 182 425T228 400Q258 400 274 425ZM264 88T283 115T302 194Q302 246 283 273T228 301Q192 301 173 274T154 194Q154 142 173 115T228 88Q264 88 283 115Z" />
<glyph unicode="9" glyph-name="nine" horiz-adv-x="456" d="M137 -12T93 49T48 211H171Q171 150 185 120T232 89Q262 89 276 115T296 186T302 309Q285 283 257 269T196 255Q115 255 73 316T30 476Q30 543 54 593T122 671T219 698Q321 698 373 622T426 363Q426
224 403 141T337 23T228 -12Q137 -12 93 49ZM259 353T277 386T295 476Q295 530 277 563T224 597Q189 597 172 564T154 476Q154 419 171 386T224 353Q259 353 277 386Z" />
<glyph unicode=":" glyph-name="colon" horiz-adv-x="273" d="M55 526H193V389H55V526ZM55 137H193V0H55V137Z" />
<glyph unicode=";" glyph-name="semicolon" horiz-adv-x="273" d="M55 526H193V389H55V526ZM109 0H54V137H192V12L126 -156H54L109 0Z" />
<glyph unicode="&lt;" glyph-name="less" horiz-adv-x="479" d="M34 197V324L446 531V413L135 261L446 109V-9L34 197Z" />
<glyph unicode="=" glyph-name="equal" horiz-adv-x="479" d="M33 412H445V308H33V412ZM33 199H445V96H33V199Z" />
<glyph unicode="&gt;" glyph-name="greater" horiz-adv-x="479" d="M34 109L345 261L34 413V531L446 324V197L34 -9V109Z" />
<glyph unicode="?" glyph-name="question" horiz-adv-x="501" d="M202 240Q202 279 216 306T260 369Q291 406 306 435T322 509Q322 536 307 563T252 591Q208 591 192 559T175 486Q175 475 175 468T176 459H50Q49 463 48 473T47 494Q47 551 71 597T143 671T260
698Q348 698 400 649T453 520Q453 455 435 417T381 339Q354 308 341 284T328 225V197H202V240ZM197 137H335V0H197V137Z" />
<glyph unicode="@" glyph-name="at" horiz-adv-x="800" d="M210 -153T118 -51T25 262Q25 415 76 512T215 654T412 698Q578 698 677 606T776 321Q776 215 746 148T670 52T577 22Q531 22 509 38T473 85H468Q446 53 419 38T348 22Q303 22 266 52T228 156Q228 247
290 285T465 323V373Q465 401 455 416T415 432Q384 432 371 418T358 382V369H252Q251 374 251 389Q251 448 295 484T412 521Q494 521 534 485T575 380V152Q575 114 605 114Q645 114 674 164T703 322Q703 478 625 553T411 629Q263 629 181 536T98 261Q98 88 167
2T380 -84Q415 -84 465 -75T540 -52V-126Q511 -137 463 -145T380 -153Q210 -153 118 -51ZM430 113T447 142T465 217V244Q340 244 340 166Q340 141 353 127T393 113Q430 113 447 142Z" />
<glyph unicode="A" glyph-name="A" horiz-adv-x="592" d="M221 686H370L591 0H460L418 135H165L124 0H0L221 686ZM383 249L314 478Q307 500 301 531T294 571H290Q288 561 282 530T270 478L200 249H383Z" />
<glyph unicode="B" glyph-name="B" horiz-adv-x="592" d="M60 686H355Q409 686 451 665T518 605T542 516Q542 459 513 418T437 360V356Q490 340 524 294T558 184Q558 128 531 87T457 23T355 0H60V686ZM320 408Q364 408 387 432T411 493Q411 531 388 551T326 572H188V408H320ZM334
114Q375 114 401 136T427 200Q427 242 402 268T328 295H188V114H334Z" />
<glyph unicode="C" glyph-name="C" horiz-adv-x="592" d="M175 -12T105 76T34 343Q34 521 104 609T307 698Q420 698 489 631T559 431H428Q428 508 396 548T307 588Q237 588 202 531T166 368V318Q166 213 202 156T311 98Q368 98 401 137T434 254H559Q559 124 490
56T307 -12Q175 -12 105 76Z" />
<glyph unicode="D" glyph-name="D" horiz-adv-x="592" d="M60 686H283Q413 686 485 601T558 353Q558 180 486 90T283 0H60V686ZM271 114Q344 114 385 168T426 328V378Q426 473 385 522T271 572H188V114H271Z" />
<glyph unicode="E" glyph-name="E" horiz-adv-x="547" d="M60 686H497V572H188V408H453V294H188V114H503V0H60V686Z" />
<glyph unicode="F" glyph-name="F" horiz-adv-x="501" d="M60 686H463V572H188V399H423V285H188V0H60V686Z" />
<glyph unicode="G" glyph-name="G" horiz-adv-x="638" d="M302 373H587V0H504L482 76Q449 33 402 11T299 -12Q170 -12 102 75T34 343Q34 522 109 610T325 698Q396 698 455 669T551 582T587 446H456Q456 513 418 550T321 588Q243 588 205 531T166 368V318Q166 211
204 155T322 98Q381 98 418 143T456 263H302V373Z" />
<glyph unicode="H" glyph-name="H" horiz-adv-x="592" d="M60 686H188V408H404V686H532V0H404V294H188V0H60V686Z" />
<glyph unicode="I" glyph-name="I" horiz-adv-x="228" d="M50 686H178V0H50V686Z" />
<glyph unicode="J" glyph-name="J" horiz-adv-x="456" d="M110 -12T60 33T9 163V216H136V173Q136 137 153 118T203 98Q235 98 251 117T268 173V686H396V163Q396 78 346 33T203 -12Q110 -12 60 33Z" />
<glyph unicode="K" glyph-name="K" horiz-adv-x="592" d="M60 686H189V335L440 686H583L380 407L589 0H445L296 306L189 175V0H60V686Z" />
<glyph unicode="L" glyph-name="L" horiz-adv-x="501" d="M60 686H188V120H478V0H60V686Z" />
<glyph unicode="M" glyph-name="M" horiz-adv-x="683" d="M53 686H233L318 308Q324 280 333 226T345 153H349Q351 172 358 227T372 308L456 686H630V0H512V437Q512 467 514 500T517 547H513L489 439L393 0H282L185 441L161 547H157Q158 534 160 500T162 437V0H53V686Z" />
<glyph unicode="N" glyph-name="N" horiz-adv-x="592" d="M60 686H173L385 308Q392 297 402 275T416 244L419 247L418 304V686H532V0H418L206 378Q198 394 189 414T175 442L171 439Q171 433 172 416T173 382V0H60V686Z" />
<glyph unicode="O" glyph-name="O" horiz-adv-x="638" d="M183 -12T109 76T34 343Q34 521 108 609T319 698Q455 698 529 610T604 343Q604 165 530 77T319 -12Q183 -12 109 76ZM394 98T433 155T472 318V368Q472 473 433 530T319 588Q244 588 205 531T166 368V318Q166
213 205 156T319 98Q394 98 433 155Z" />
<glyph unicode="P" glyph-name="P" horiz-adv-x="547" d="M60 686H305Q408 686 464 629T520 480Q520 416 493 368T418 293T305 266H188V0H60V686ZM292 379Q338 379 363 405T388 480Q388 522 363 547T292 572H188V379H292Z" />
<glyph unicode="Q" glyph-name="Q" horiz-adv-x="638" d="M331 -12H319Q183 -12 109 76T34 343Q34 521 108 609T319 698Q455 698 529 610T604 343Q604 217 566 136T455 17L587 -124H430L331 -12ZM394 98T433 155T472 318V368Q472 473 433 530T319 588Q244 588
205 531T166 368V318Q166 213 205 156T319 98Q394 98 433 155Z" />
<glyph unicode="R" glyph-name="R" horiz-adv-x="592" d="M60 686H347Q448 686 502 632T557 490Q557 428 527 382T442 314L574 0H435L321 286H188V0H60V686ZM329 399Q374 399 396 422T419 490Q419 529 398 550T334 572H188V399H329Z" />
<glyph unicode="S" glyph-name="S" horiz-adv-x="547" d="M202 -12T148 12T62 85T30 201L31 223H164L163 207Q163 157 192 128T273 98Q326 98 351 121T377 179Q377 213 359 234T315 268T240 296Q177 316 138 336T72 397T44 506Q44 568 75 611T158 676T273 698Q371
698 433 648T496 496V484H365V493Q365 537 340 562T272 588Q227 588 202 568T176 515Q176 487 193 469T235 440T306 415Q371 394 411 375T480 314T509 206Q509 93 445 41T267 -12Q202 -12 148 12Z" />
<glyph unicode="T" glyph-name="T" horiz-adv-x="501" d="M187 572H17V686H485V572H315V0H187V572Z" />
<glyph unicode="U" glyph-name="U" horiz-adv-x="592" d="M184 -12T123 46T61 215V686H189V219Q189 160 217 129T296 98Q347 98 375 129T404 219V686H532V215Q532 105 470 47T296 -12Q184 -12 123 46Z" />
<glyph unicode="V" glyph-name="V" horiz-adv-x="547" d="M0 686H132L276 195H280L422 686H547L338 0H209L0 686Z" />
<glyph unicode="W" glyph-name="W" horiz-adv-x="774" d="M0 686H127L209 264Q213 245 217 212T222 168H226Q227 179 231 212T239 264L322 686H467L549 264Q553 238 557 209T562 168H566Q567 178 571 210T579 264L663 686H773L624 0H495L402 437Q397 459 393 491T388
534H384Q383 523 379 489T370 437L278 0H149L0 686Z" />
<glyph unicode="X" glyph-name="X" horiz-adv-x="547" d="M194 360L18 686H161L276 462H280L395 686H528L351 362L546 0H404L270 259H266L133 0H0L194 360Z" />
<glyph unicode="Y" glyph-name="Y" horiz-adv-x="547" d="M210 259L0 686H135L275 385H279L418 686H547L338 259V0H210V259Z" />
<glyph unicode="Z" glyph-name="Z" horiz-adv-x="501" d="M16 49L298 572H37V686H473V636L191 114H480V0H16V49Z" />
<glyph unicode="[" glyph-name="bracketleft" horiz-adv-x="273" d="M49 735H248V640H165V-66H248V-161H49V735Z" />
<glyph unicode="\" glyph-name="backslash" horiz-adv-x="228" d="M1 735H86L228 -49H142L1 735Z" />
<glyph unicode="]" glyph-name="bracketright" horiz-adv-x="273" d="M25 -66H108V640H25V735H224V-161H25V-66Z" />
<glyph unicode="^" glyph-name="asciicircum" horiz-adv-x="479" d="M188 686H295L452 294H342L241 564L142 294H32L188 686Z" />
<glyph unicode="_" glyph-name="underscore" horiz-adv-x="456" d="M0 -63H455V-132H0V-63Z" />
<glyph unicode="`" glyph-name="grave" horiz-adv-x="273" d="M21 720L22 723H142L228 591H129L21 720Z" />
<glyph unicode="a" glyph-name="a" horiz-adv-x="456" d="M97 -12T56 21T14 136Q14 236 82 278T275 320V375Q275 406 264 423T220 440Q187 440 172 424T157 385V370H40Q39 376 39 392Q39 458 87 498T217 538Q307 538 351 498T396 383V124Q396 106 404 98T424 89H448V4Q418
-12 377 -12Q342 -12 318 6T284 57H279Q254 22 225 5T146 -12Q97 -12 56 21ZM236 88T255 120T275 203V233Q214 233 176 214T137 147Q137 119 151 104T196 88Q236 88 255 120Z" />
<glyph unicode="b" glyph-name="b" horiz-adv-x="501" d="M253 -12T222 7T172 65H167L155 0H55V723H175V472H180Q194 503 225 520T297 538Q371 538 415 470T460 264Q460 125 416 57T291 -12Q253 -12 222 7ZM297 97T316 133T335 244V282Q335 356 316 392T255 429Q213
429 194 392T175 280V244Q175 170 194 134T255 97Q297 97 316 133Z" />
<glyph unicode="c" glyph-name="c" horiz-adv-x="456" d="M137 -12T89 54T41 263Q41 404 89 471T236 538Q323 538 371 487T420 328H297Q297 437 236 437Q199 437 183 399T166 282V244Q166 166 183 128T240 89Q272 89 286 116T301 198H420Q420 91 373 40T240 -12Q137
-12 89 54Z" />
<glyph unicode="d" glyph-name="d" horiz-adv-x="501" d="M130 -12T86 56T41 264Q41 401 85 469T204 538Q244 538 275 521T321 472H326V723H446V0H346L334 65H329Q310 27 279 8T210 -12Q130 -12 86 56ZM288 97T307 133T326 244V280Q326 354 307 391T246 429Q204
429 185 393T166 282V244Q166 170 185 134T246 97Q288 97 307 133Z" />
<glyph unicode="e" glyph-name="e" horiz-adv-x="456" d="M134 -12T83 55T31 263Q31 538 233 538Q329 538 376 471T423 263V233H156Q157 159 175 123T237 86Q268 86 286 112T304 186H423Q423 88 372 38T237 -12Q134 -12 83 55ZM297 320Q297 440 233 440Q196 440
178 410T157 320H297Z" />
<glyph unicode="f" glyph-name="f" horiz-adv-x="273" d="M62 425H9V526H62V590Q62 650 91 690T186 731Q206 731 231 728T273 719V630H224Q204 630 193 619T182 587V526H273V425H182V0H62V425Z" />
<glyph unicode="g" glyph-name="g" horiz-adv-x="501" d="M83 -182T50 -148T16 -61Q16 9 83 46Q41 72 41 125Q41 158 62 181T118 217Q54 264 54 359Q54 442 104 490T248 538Q298 538 336 523Q363 542 375 568T387 614H486Q486 506 401 480Q443 433 443 359Q443
276 393 228T248 180H198Q182 180 172 171T162 148Q162 135 171 126T193 117H375Q426 117 460 80T495 -20Q495 -68 473 -105T411 -162T325 -182H132Q83 -182 50 -148ZM285 269T304 292T323 359Q323 402 304 425T248 449Q212 449 193 426T174 359Q174 316 193 293T248
269Q285 269 304 292ZM320 -91Q343 -91 358 -78T374 -42Q374 -20 360 -7T325 6H185Q165 6 151 -8T137 -42Q137 -64 150 -77T185 -91H320Z" />
<glyph unicode="h" glyph-name="h" horiz-adv-x="501" d="M55 723H175V470H179Q199 499 231 518T306 538Q371 538 408 498T446 369V0H326V336Q326 385 309 407T257 429Q222 429 199 399T175 324V0H55V723Z" />
<glyph unicode="i" glyph-name="i" horiz-adv-x="228" d="M54 723H174V614H54V723ZM54 526H174V0H54V526Z" />
<glyph unicode="j" glyph-name="j" horiz-adv-x="228" d="M54 723H174V614H54V723ZM31 -182T6 -179T-37 -170V-81H7Q54 -81 54 -33V526H174V-41Q174 -102 146 -142T52 -182Q31 -182 6 -179Z" />
<glyph unicode="k" glyph-name="k" horiz-adv-x="456" d="M54 723H174V317L321 526H449L293 312L457 0H324L218 218L174 164V0H54V723Z" />
<glyph unicode="l" glyph-name="l" horiz-adv-x="228" d="M54 723H174V0H54V723Z" />
<glyph unicode="m" glyph-name="m" horiz-adv-x="729" d="M55 526H155L167 461H173Q194 495 225 516T298 538Q382 538 411 461Q433 495 468 516T547 538Q677 538 677 369V0H557V336Q557 386 543 407T498 429Q468 429 447 402T425 332V0H307V336Q307 386 293 407T247
429Q216 429 196 400T175 324V0H55V526Z" />
<glyph unicode="n" glyph-name="n" horiz-adv-x="501" d="M55 526H155L167 461H173Q196 495 229 516T306 538Q371 538 408 498T446 369V0H326V336Q326 385 309 407T257 429Q222 429 199 399T175 324V0H55V526Z" />
<glyph unicode="o" glyph-name="o" horiz-adv-x="501" d="M145 -12T93 55T41 263Q41 404 93 471T251 538Q357 538 409 471T461 263Q461 122 409 55T251 -12Q145 -12 93 55ZM296 89T316 127T336 244V282Q336 360 316 398T251 437Q206 437 186 399T166 282V244Q166
166 186 128T251 89Q296 89 316 127Z" />
<glyph unicode="p" glyph-name="p" horiz-adv-x="501" d="M55 526H155L167 461H172Q191 499 222 518T291 538Q371 538 415 470T460 262Q460 125 416 57T297 -12Q257 -12 226 5T180 54H175V-173H55V526ZM297 97T316 133T335 244V282Q335 356 316 392T255 429Q213
429 194 393T175 282V246Q175 172 194 135T255 97Q297 97 316 133Z" />
<glyph unicode="q" glyph-name="q" horiz-adv-x="501" d="M326 54H321Q307 23 276 6T204 -12Q130 -12 86 56T41 262Q41 401 85 469T210 538Q248 538 279 519T329 461H334L346 526H446V-173H326V54ZM288 97T307 134T326 246V282Q326 356 307 392T246 429Q204 429
185 393T166 282V244Q166 170 185 134T246 97Q288 97 307 134Z" />
<glyph unicode="r" glyph-name="r" horiz-adv-x="319" d="M55 526H155L169 449H175Q188 489 209 513T266 538Q285 538 299 535T316 530V414H273Q229 414 202 386T175 293V0H55V526Z" />
<glyph unicode="s" glyph-name="s" horiz-adv-x="456" d="M134 -12T84 33T33 155L34 167H156V160Q157 121 178 104T228 86Q256 86 277 99T298 143Q298 175 274 189T198 218Q148 232 117 246T64 292T41 378Q41 455 93 496T229 538Q306 538 356 500T407 395L406
372H284V374Q283 440 225 440Q197 440 180 426T163 388Q163 360 186 348T258 322Q309 309 341 295T396 248T420 158Q420 -12 224 -12Q134 -12 84 33Z" />
<glyph unicode="t" glyph-name="t" horiz-adv-x="273" d="M120 -12T91 28T62 129V425H9V526H62L80 674H182V526H258V425H182V132Q182 111 193 100T224 89H258V0Q245 -5 224 -8T186 -12Q120 -12 91 28Z" />
<glyph unicode="u" glyph-name="u" horiz-adv-x="501" d="M130 -12T93 28T55 157V526H175V190Q175 140 192 119T244 97Q279 97 302 126T326 200V526H446V0H346L334 65H328Q305 31 272 10T195 -12Q130 -12 93 28Z" />
<glyph unicode="v" glyph-name="v" horiz-adv-x="456" d="M4 526H130L198 300Q206 275 217 218T231 142H235Q238 160 247 215T265 300L332 526H452L289 0H167L4 526Z" />
<glyph unicode="w" glyph-name="w" horiz-adv-x="638" d="M1 526H121L171 310Q181 266 186 211T192 145H196Q197 160 203 211T218 309L263 526H383L428 308Q435 276 441 220T450 145H454Q456 162 464 216T480 308L526 526H637L510 0H389L337 251Q330 284 327 326T322
381H316Q315 368 312 327T301 252L250 0H129L1 526Z" />
<glyph unicode="x" glyph-name="x" horiz-adv-x="456" d="M157 272L17 526H153L231 373H236L314 526H443L301 275L451 0H316L227 174H222L133 0H5L157 272Z" />
<glyph unicode="y" glyph-name="y" horiz-adv-x="456" d="M91 -182T68 -179T44 -173V-81H98Q125 -81 147 -61T179 0L4 526H131L210 279Q218 254 227 206T238 142H242Q244 157 252 203T267 278L332 526H452L308 27Q280 -70 236 -126T122 -182Q91 -182 68 -179Z" />
<glyph unicode="z" glyph-name="z" horiz-adv-x="410" d="M18 51L222 425H30V526H385V476L180 101H392V0H18V51Z" />
<glyph unicode="{" glyph-name="braceleft" horiz-adv-x="319" d="M207 -159T154 -128T101 -11V182Q101 213 78 227T24 242V334Q55 334 78 348T101 394V587Q101 673 154 704T298 735V658Q265 658 242 645T219 597Q219 557 215 477L212 401Q210 348 185 321T104
293V283Q160 283 185 256T212 175L215 99Q219 19 219 -21Q219 -82 298 -82V-159Q207 -159 154 -128Z" />
<glyph unicode="|" glyph-name="bar" horiz-adv-x="230" d="M70 723H160V-173H70V723Z" />
<glyph unicode="}" glyph-name="braceright" horiz-adv-x="319" d="M21 -82Q100 -82 100 -21Q100 19 104 99L107 175Q109 229 134 256T215 283V293Q159 293 134 320T107 401L104 477Q100 557 100 597Q100 631 77 644T21 658V735Q112 735 165 704T218 587V394Q218
363 241 349T295 334V242Q264 242 241 228T218 182V-11Q218 -97 165 -128T21 -159V-82Z" />
<glyph unicode="~" glyph-name="asciitilde" horiz-adv-x="479" d="M27 317Q27 320 43 339T86 374T150 390Q171 390 190 383T238 360Q266 345 286 337T329 329Q361 329 388 345T434 380T452 402V282Q452 279 436 260T393 225T329 209Q308 209 289 216T241 239Q213
254 193 262T150 270Q118 270 91 254T45 219T27 197V317Z" />
<glyph unicode="&#xa0;" glyph-name="uni00A0" horiz-adv-x="228" />
<glyph unicode="&#xa1;" glyph-name="exclamdown" horiz-adv-x="273" d="M68 526H206V389H68V526ZM95 329H177L213 -160H60L95 329Z" />
<glyph unicode="&#xa2;" glyph-name="cent" horiz-adv-x="456" d="M207 70Q122 80 82 146T41 343Q41 473 82 540T207 616V723H262V617Q337 609 378 558T420 408H309Q309 499 262 516V168Q313 183 313 278H420Q420 178 379 127T262 69V-49H207V70ZM207 515Q179
503 167 465T154 362V324Q154 196 207 172V515Z" />
<glyph unicode="&#xa3;" glyph-name="sterling" horiz-adv-x="456" d="M20 108H71V288H9V389H71V499Q71 597 118 647T252 698Q336 698 384 649T433 504V491H314V517Q314 556 298 576T252 597Q224 597 208 579T192 525V389H312V288H191L180 108H426V0H20V108Z" />
<glyph unicode="&#xa4;" glyph-name="currency" horiz-adv-x="456" d="M160 108T103 155L61 113L0 174L50 224Q22 277 22 342Q22 406 49 458L0 508L60 570L102 528Q159 577 228 577Q262 577 294 564T353 528L395 570L455 508L406 459Q434 405 434 342Q434 279
405 223L455 174L394 113L352 155Q295 108 228 108Q160 108 103 155ZM261 198T288 217T332 270T349 342Q349 382 333 415T289 467T228 487Q195 487 167 468T123 415T106 342Q106 303 122 270T167 218T228 198Q261 198 288 217Z" />
<glyph unicode="&#xa5;" glyph-name="yen" horiz-adv-x="456" d="M168 153H28V234H167V304H28V385H133L4 686H135L229 423H233L326 686H451L323 385H428V303H288V234H428V153H288V0H168V153Z" />
<glyph unicode="&#xa6;" glyph-name="brokenbar" horiz-adv-x="230" d="M70 723H160V351H70V723ZM70 199H160V-173H70V199Z" />
<glyph unicode="&#xa7;" glyph-name="section" horiz-adv-x="456" d="M152 -182T102 -144T51 -39L52 -16H174Q174 -50 189 -67T233 -84Q261 -84 278 -70T295 -32Q295 -4 281 16T245 50T185 83Q137 107 108 127T58 181T37 268Q37 308 54 346T102 411Q51 460 51
538Q51 615 103 656T239 698Q316 698 366 660T417 555L416 532H294Q294 566 279 583T235 600Q207 600 190 586T173 548Q173 520 187 500T223 466T283 433Q331 409 360 389T410 335T431 248Q431 207 414 170T366 105Q417 54 417 -22Q417 -99 365 -140T229 -182Q152
-182 102 -144ZM313 183T313 213Q313 246 298 270T261 309T199 346L176 359Q155 331 155 303Q155 269 170 245T209 205T271 167L291 156Q313 183 313 213Z" />
<glyph unicode="&#xa8;" glyph-name="dieresis" horiz-adv-x="273" d="M-1 723H99V614H-1V723ZM174 723H274V614H174V723Z" />
<glyph unicode="&#xa9;" glyph-name="copyright" horiz-adv-x="604" d="M214 -12T150 31T51 155T16 343Q16 451 50 531T149 654T302 698Q390 698 454 655T553 531T588 343Q588 235 554 155T455 32T302 -12Q214 -12 150 31ZM373 43T425 79T504 184T532 343Q532
434 505 502T425 606T302 643Q231 643 179 607T100 502T72 343Q72 252 99 184T179 80T302 43Q373 43 425 79ZM227 134T185 186T143 343Q143 448 185 500T304 553Q371 553 412 514T453 395H366Q366 436 350 457T304 478Q268 478 250 447T231 358V329Q231 272 250
241T307 209Q336 209 352 229T369 291H453Q453 214 412 174T304 134Q227 134 185 186Z" />
<glyph unicode="&#xaa;" glyph-name="ordfeminine" horiz-adv-x="303" d="M70 363T42 385T14 463Q14 530 59 558T186 587V624Q186 643 179 653T153 664Q133 664 124 655T115 631V621H32Q31 625 31 635Q31 680 63 707T151 734Q212 734 242 707T272 629V459Q272
447 277 441T291 435H307V373Q285 363 259 363Q236 363 220 375T197 409H193Q177 386 157 375T103 363Q70 363 42 385ZM162 434T174 455T186 508V528Q101 528 101 470Q101 434 137 434Q162 434 174 455Z" />
<glyph unicode="&#xab;" glyph-name="guillemotleft" horiz-adv-x="456" d="M19 326L155 526H246L138 326L246 126H155L19 326ZM202 326L338 526H429L321 326L429 126H338L202 326Z" />
<glyph unicode="&#xac;" glyph-name="logicalnot" horiz-adv-x="479" d="M341 350H29V463H445V187H341V350Z" />
<glyph unicode="&#xad;" glyph-name="uni00AD" horiz-adv-x="273" d="M16 329H257V211H16V329Z" />
<glyph unicode="&#xae;" glyph-name="registered" horiz-adv-x="604" d="M214 -12T150 31T51 155T16 343Q16 451 50 531T149 654T302 698Q390 698 454 655T553 531T588 343Q588 235 554 155T455 32T302 -12Q214 -12 150 31ZM373 43T425 79T504 184T532 343Q532
434 505 502T425 606T302 643Q231 643 179 607T100 502T72 343Q72 252 99 184T179 80T302 43Q373 43 425 79ZM355 137T355 214Q355 264 339 284T296 305H260V140H174V546H332Q381 546 413 518T445 444Q445 407 428 384T382 349V345Q404 337 422 313T441 237Q441
202 448 186T470 165V145Q466 142 453 140T431 137Q355 137 355 214ZM301 382Q326 382 341 395T357 428Q357 447 343 457T304 468H260V382H301Z" />
<glyph unicode="&#xaf;" glyph-name="overscore" horiz-adv-x="273" d="M9 686H264V599H9V686Z" />
<glyph unicode="&#xb0;" glyph-name="degree" horiz-adv-x="400" d="M159 414T127 433T75 484T56 556Q56 595 75 627T126 679T198 698Q237 698 269 679T321 628T340 556Q340 517 321 485T270 433T198 414Q159 414 127 433ZM229 482T250 503T271 556Q271 587 250
608T198 629Q167 629 146 608T124 556Q124 525 145 504T198 482Q229 482 250 503Z" />
<glyph unicode="&#xb1;" glyph-name="plusminus" horiz-adv-x="549" d="M222 317H68V421H222V595H325V421H480V317H325V144H222V317ZM68 103H480V0H68V103Z" />
<glyph unicode="&#xb2;" glyph-name="uni00B2" horiz-adv-x="273" d="M15 338Q15 380 34 412T91 489Q131 534 149 563T168 627Q168 642 161 653T136 664Q119 664 110 649T101 609V581H22Q21 583 20 590T19 608Q19 672 53 703T139 734Q189 734 220 708T251 626Q251
592 238 562T208 511T155 446Q127 412 115 394H253V320H15V338Z" />
<glyph unicode="&#xb3;" glyph-name="uni00B3" horiz-adv-x="273" d="M79 312T47 345T14 437V452H96V435Q96 381 136 381Q153 381 163 394T174 435Q174 493 132 493H107V560H133Q147 560 157 575T167 617Q167 665 136 665Q103 665 103 615V599H21V620Q21 671 52
702T135 734Q187 734 218 704T250 620Q250 588 237 568T199 530Q225 517 240 492T256 431Q256 376 223 344T137 312Q79 312 47 345Z" />
<glyph unicode="&#xb4;" glyph-name="acute" horiz-adv-x="273" d="M134 723H254L255 720L147 591H48L134 723Z" />
<glyph unicode="&#xb5;" glyph-name="uni00B5" horiz-adv-x="501" d="M55 526H175V190Q175 140 192 119T244 97Q279 97 302 126T326 200V526H446V0H346L334 65H328Q309 31 281 10T215 -12Q194 -12 175 -4V-173H55V526Z" />
<glyph unicode="&#xb6;" glyph-name="paragraph" horiz-adv-x="456" d="M187 250Q139 256 101 286T40 364T18 467Q18 527 43 577T113 656T210 686H449V610H401V-173H320V610H267V-173H187V250Z" />
<glyph unicode="&#xb7;" glyph-name="middot" horiz-adv-x="228" d="M53 409H174V278H53V409Z" />
<glyph unicode="&#xb8;" glyph-name="cedilla" horiz-adv-x="273" d="M74 -182T36 -174V-125H107Q125 -125 134 -120T143 -101Q143 -89 136 -83T109 -77H76L87 11H155L150 -33Q185 -35 207 -52T229 -101Q229 -146 196 -164T120 -182Q74 -182 36 -174Z" />
<glyph unicode="&#xb9;" glyph-name="uni00B9" horiz-adv-x="273" d="M33 389H107V622H32V678Q55 681 89 694T147 723H187V389H253V320H33V389Z" />
<glyph unicode="&#xba;" glyph-name="ordmasculine" horiz-adv-x="299" d="M80 362T45 407T10 548Q10 643 45 688T152 734Q224 734 259 689T294 548Q294 453 259 408T152 362Q80 362 45 407ZM180 435T192 460T205 535V561Q205 611 193 636T152 661Q124 661 112
636T99 561V535Q99 485 111 460T152 435Q180 435 192 460Z" />
<glyph unicode="&#xbb;" glyph-name="guillemotright" horiz-adv-x="456" d="M135 326L27 526H118L254 326L118 126H27L135 326ZM318 326L210 526H301L437 326L301 126H210L318 326Z" />
<glyph unicode="&#xbc;" glyph-name="onequarter" horiz-adv-x="684" d="M526 698H592L197 -12H130L526 698ZM33 352H107V585H32V641Q55 644 89 657T147 686H187V352H253V283H33V352ZM540 89H397V150Q455 253 499 414H578Q563 345 530 270T472 158H540V195Q552
218 568 259T592 326H619V158H661V89H619V0H540V89Z" />
<glyph unicode="&#xbd;" glyph-name="onehalf" horiz-adv-x="684" d="M521 698H587L192 -12H125L521 698ZM33 352H107V585H32V641Q55 644 89 657T147 686H187V352H253V283H33V352ZM425 18Q425 60 444 92T501 169Q541 214 559 243T578 307Q578 322 571 333T546
344Q529 344 520 329T511 289V261H432Q431 263 430 270T429 288Q429 352 463 383T549 414Q599 414 630 388T661 306Q661 272 648 242T619 191T566 127Q534 88 525 74H663V0H425V18Z" />
<glyph unicode="&#xbe;" glyph-name="threequarters" horiz-adv-x="684" d="M94 276T62 309T29 401V416H111V399Q111 345 151 345Q168 345 178 358T189 399Q189 457 147 457H122V524H148Q162 524 172 539T182 581Q182 629 151 629Q118 629 118 579V563H36V584Q36
635 67 666T150 698Q202 698 233 668T265 584Q265 552 252 532T214 494Q240 481 255 456T271 395Q271 340 238 308T152 276Q94 276 62 309ZM522 698H588L193 -12H126L522 698ZM537 89H394V150Q452 253 496 414H575Q560 345 527 270T469 158H537V195Q549 218 565
259T589 326H616V158H658V89H616V0H537V89Z" />
<glyph unicode="&#xbf;" glyph-name="questiondown" horiz-adv-x="501" d="M166 526H304V389H166V526ZM153 -172T101 -123T48 6Q48 71 66 109T120 187Q147 218 160 242T173 301V329H299V286Q299 247 285 220T241 157Q210 120 195 91T179 17Q179 -10 194 -37T249
-65Q293 -65 309 -33T326 40Q326 51 326 58T325 67H451Q452 63 453 53T454 32Q454 -25 430 -71T358 -145T241 -172Q153 -172 101 -123Z" />
<glyph unicode="&#xc0;" glyph-name="Agrave" horiz-adv-x="592" d="M158 880L159 883H279L365 751H266L158 880ZM221 686H370L591 0H460L418 135H165L124 0H0L221 686ZM383 249L314 478Q307 500 301 531T294 571H290Q288 561 282 530T270 478L200 249H383Z" />
<glyph unicode="&#xc1;" glyph-name="Aacute" horiz-adv-x="592" d="M313 883H433L434 880L326 751H227L313 883ZM221 686H370L591 0H460L418 135H165L124 0H0L221 686ZM383 249L314 478Q307 500 301 531T294 571H290Q288 561 282 530T270 478L200 249H383Z" />
<glyph unicode="&#xc2;" glyph-name="Acircumflex" horiz-adv-x="592" d="M248 883H346L431 748H341L296 817L251 748H162L248 883ZM221 686H370L591 0H460L418 135H165L124 0H0L221 686ZM383 249L314 478Q307 500 301 531T294 571H290Q288 561 282 530T270 478L200
249H383Z" />
<glyph unicode="&#xc3;" glyph-name="Atilde" horiz-adv-x="592" d="M128 809T153 846T226 883Q242 883 256 879T295 864Q316 855 330 851T359 846Q376 846 385 854T398 883H464Q464 835 439 798T365 761Q349 761 336 765T297 780Q276 789 262 793T233 798Q199
798 194 761H128Q128 809 153 846ZM221 686H370L591 0H460L418 135H165L124 0H0L221 686ZM383 249L314 478Q307 500 301 531T294 571H290Q288 561 282 530T270 478L200 249H383Z" />
<glyph unicode="&#xc4;" glyph-name="Adieresis" horiz-adv-x="592" d="M159 883H259V774H159V883ZM333 883H434V774H333V883ZM221 686H370L591 0H460L418 135H165L124 0H0L221 686ZM383 249L314 478Q307 500 301 531T294 571H290Q288 561 282 530T270 478L200 249H383Z" />
<glyph unicode="&#xc5;" glyph-name="Aring" horiz-adv-x="592" d="M257 721T229 749T200 817Q200 857 228 885T296 913Q336 913 364 885T392 817Q392 777 364 749T296 721Q257 721 229 749ZM315 771T328 784T342 817Q342 836 329 849T296 863Q277 863 264 850T250
817Q250 798 263 785T296 771Q315 771 328 784ZM221 686H370L591 0H460L418 135H165L124 0H0L221 686ZM383 249L314 478Q307 500 301 531T294 571H290Q288 561 282 530T270 478L200 249H383Z" />
<glyph unicode="&#xc6;" glyph-name="AE" horiz-adv-x="820" d="M255 686H771V572H438L478 408H727V294H506L550 114H777V0H447L414 135H161L111 0H-8L255 686ZM387 249L328 500L317 546H313L295 498L203 249H387Z" />
<glyph unicode="&#xc7;" glyph-name="Ccedilla" horiz-adv-x="592" d="M252 -182T214 -174V-125H285Q303 -125 312 -120T321 -101Q321 -89 314 -83T287 -77H254L262 -9Q151 5 93 92T34 343Q34 521 104 609T307 698Q420 698 489 631T559 431H428Q428 508 396 548T307
588Q237 588 202 531T166 368V318Q166 213 202 156T311 98Q368 98 401 137T434 254H559Q559 131 497 64T330 -11L328 -33Q363 -35 385 -52T407 -101Q407 -146 374 -164T298 -182Q252 -182 214 -174Z" />
<glyph unicode="&#xc8;" glyph-name="Egrave" horiz-adv-x="547" d="M135 880L136 883H256L342 751H243L135 880ZM60 686H497V572H188V408H453V294H188V114H503V0H60V686Z" />
<glyph unicode="&#xc9;" glyph-name="Eacute" horiz-adv-x="547" d="M291 883H411L412 880L304 751H205L291 883ZM60 686H497V572H188V408H453V294H188V114H503V0H60V686Z" />
<glyph unicode="&#xca;" glyph-name="Ecircumflex" horiz-adv-x="547" d="M225 883H323L408 748H318L274 817L229 748H139L225 883ZM60 686H497V572H188V408H453V294H188V114H503V0H60V686Z" />
<glyph unicode="&#xcb;" glyph-name="Edieresis" horiz-adv-x="547" d="M136 883H236V774H136V883ZM311 883H411V774H311V883ZM60 686H497V572H188V408H453V294H188V114H503V0H60V686Z" />
<glyph unicode="&#xcc;" glyph-name="Igrave" horiz-adv-x="228" d="M-24 880L-23 883H97L183 751H84L-24 880ZM50 686H178V0H50V686Z" />
<glyph unicode="&#xcd;" glyph-name="Iacute" horiz-adv-x="228" d="M131 883H251L252 880L145 751H45L131 883ZM50 686H178V0H50V686Z" />
<glyph unicode="&#xce;" glyph-name="Icircumflex" horiz-adv-x="228" d="M66 883H164L249 748H159L115 817L70 748H-21L66 883ZM50 686H178V0H50V686Z" />
<glyph unicode="&#xcf;" glyph-name="Idieresis" horiz-adv-x="228" d="M-23 883H77V774H-23V883ZM152 883H252V774H152V883ZM50 686H178V0H50V686Z" />
<glyph unicode="&#xd0;" glyph-name="Eth" horiz-adv-x="592" d="M60 312H10V397H60V686H283Q413 686 485 601T558 353Q558 180 486 90T283 0H60V312ZM271 114Q344 114 385 168T426 328V378Q426 473 385 522T271 572H188V397H313V312H188V114H271Z" />
<glyph unicode="&#xd1;" glyph-name="Ntilde" horiz-adv-x="592" d="M128 809T153 846T226 883Q242 883 256 879T295 864Q316 855 330 851T359 846Q376 846 385 854T398 883H464Q464 835 439 798T365 761Q349 761 336 765T297 780Q276 789 262 793T233 798Q199
798 194 761H128Q128 809 153 846ZM60 686H173L385 308Q392 297 402 275T416 244L419 247L418 304V686H532V0H418L206 378Q198 394 189 414T175 442L171 439Q171 433 172 416T173 382V0H60V686Z" />
<glyph unicode="&#xd2;" glyph-name="Ograve" horiz-adv-x="638" d="M181 880L182 883H302L388 751H289L181 880ZM183 -12T109 76T34 343Q34 521 108 609T319 698Q455 698 529 610T604 343Q604 165 530 77T319 -12Q183 -12 109 76ZM394 98T433 155T472 318V368Q472
473 433 530T319 588Q244 588 205 531T166 368V318Q166 213 205 156T319 98Q394 98 433 155Z" />
<glyph unicode="&#xd3;" glyph-name="Oacute" horiz-adv-x="638" d="M336 883H457L458 880L350 751H250L336 883ZM183 -12T109 76T34 343Q34 521 108 609T319 698Q455 698 529 610T604 343Q604 165 530 77T319 -12Q183 -12 109 76ZM394 98T433 155T472 318V368Q472
473 433 530T319 588Q244 588 205 531T166 368V318Q166 213 205 156T319 98Q394 98 433 155Z" />
<glyph unicode="&#xd4;" glyph-name="Ocircumflex" horiz-adv-x="638" d="M271 883H369L454 748H364L320 817L275 748H185L271 883ZM183 -12T109 76T34 343Q34 521 108 609T319 698Q455 698 529 610T604 343Q604 165 530 77T319 -12Q183 -12 109 76ZM394 98T433
155T472 318V368Q472 473 433 530T319 588Q244 588 205 531T166 368V318Q166 213 205 156T319 98Q394 98 433 155Z" />
<glyph unicode="&#xd5;" glyph-name="Otilde" horiz-adv-x="638" d="M151 808T176 845T250 883Q266 883 280 879T319 864Q341 855 354 851T383 846Q400 846 409 854T421 883H488Q488 836 463 799T389 761Q373 761 360 765T321 780Q300 789 286 793T257 798Q240
798 231 790T218 761H151Q151 808 176 845ZM183 -12T109 76T34 343Q34 521 108 609T319 698Q455 698 529 610T604 343Q604 165 530 77T319 -12Q183 -12 109 76ZM394 98T433 155T472 318V368Q472 473 433 530T319 588Q244 588 205 531T166 368V318Q166 213 205 156T319
98Q394 98 433 155Z" />
<glyph unicode="&#xd6;" glyph-name="Odieresis" horiz-adv-x="638" d="M182 883H282V774H182V883ZM357 883H457V774H357V883ZM183 -12T109 76T34 343Q34 521 108 609T319 698Q455 698 529 610T604 343Q604 165 530 77T319 -12Q183 -12 109 76ZM394 98T433 155T472
318V368Q472 473 433 530T319 588Q244 588 205 531T166 368V318Q166 213 205 156T319 98Q394 98 433 155Z" />
<glyph unicode="&#xd7;" glyph-name="multiply" horiz-adv-x="479" d="M29 111L175 256L29 402L101 474L246 328L392 474L464 402L318 256L464 111L392 39L246 185L101 39L29 111Z" />
<glyph unicode="&#xd8;" glyph-name="Oslash" horiz-adv-x="638" d="M110 75Q34 165 34 343Q34 521 108 609T319 698Q410 698 474 658L515 723H599L528 610Q604 520 604 343Q604 165 530 77T319 -12Q229 -12 164 27L124 -37H40L110 75ZM410 556Q375 588 319 588Q244
588 205 531T166 368V318Q166 245 184 194L410 556ZM394 98T433 155T472 318V368Q472 442 453 490L228 129Q264 98 319 98Q394 98 433 155Z" />
<glyph unicode="&#xd9;" glyph-name="Ugrave" horiz-adv-x="592" d="M158 880L159 883H279L365 751H266L158 880ZM184 -12T123 46T61 215V686H189V219Q189 160 217 129T296 98Q347 98 375 129T404 219V686H532V215Q532 105 470 47T296 -12Q184 -12 123 46Z" />
<glyph unicode="&#xda;" glyph-name="Uacute" horiz-adv-x="592" d="M313 883H433L434 880L326 751H227L313 883ZM184 -12T123 46T61 215V686H189V219Q189 160 217 129T296 98Q347 98 375 129T404 219V686H532V215Q532 105 470 47T296 -12Q184 -12 123 46Z" />
<glyph unicode="&#xdb;" glyph-name="Ucircumflex" horiz-adv-x="592" d="M248 883H346L431 748H341L296 817L251 748H162L248 883ZM184 -12T123 46T61 215V686H189V219Q189 160 217 129T296 98Q347 98 375 129T404 219V686H532V215Q532 105 470 47T296 -12Q184
-12 123 46Z" />
<glyph unicode="&#xdc;" glyph-name="Udieresis" horiz-adv-x="592" d="M159 883H259V774H159V883ZM333 883H434V774H333V883ZM184 -12T123 46T61 215V686H189V219Q189 160 217 129T296 98Q347 98 375 129T404 219V686H532V215Q532 105 470 47T296 -12Q184 -12 123 46Z" />
<glyph unicode="&#xdd;" glyph-name="Yacute" horiz-adv-x="547" d="M291 883H411L412 880L304 751H205L291 883ZM210 259L0 686H135L275 385H279L418 686H547L338 259V0H210V259Z" />
<glyph unicode="&#xde;" glyph-name="Thorn" horiz-adv-x="547" d="M60 686H188V564H305Q408 564 464 507T520 358Q520 294 493 246T418 171T305 144H188V0H60V686ZM292 257Q338 257 363 283T388 358Q388 400 363 425T292 450H188V257H292Z" />
<glyph unicode="&#xdf;" glyph-name="germandbls" horiz-adv-x="501" d="M40 520Q40 629 99 682T254 735Q341 735 396 685T452 548Q452 498 426 455T357 395V391Q408 372 440 322T473 214Q473 151 447 103T375 27T273 0H208V102H260Q298 102 325 135T352 215Q352
260 325 292T260 324H208V437H257Q288 437 309 469T331 545Q331 585 310 609T249 634Q208 634 184 606T160 528V0H40V520Z" />
<glyph unicode="&#xe0;" glyph-name="agrave" horiz-adv-x="456" d="M79 720L80 723H200L286 591H187L79 720ZM97 -12T56 21T14 136Q14 236 82 278T275 320V375Q275 406 264 423T220 440Q187 440 172 424T157 385V370H40Q39 376 39 392Q39 458 87 498T217 538Q307
538 351 498T396 383V124Q396 106 404 98T424 89H448V4Q418 -12 377 -12Q342 -12 318 6T284 57H279Q254 22 225 5T146 -12Q97 -12 56 21ZM236 88T255 120T275 203V233Q214 233 176 214T137 147Q137 119 151 104T196 88Q236 88 255 120Z" />
<glyph unicode="&#xe1;" glyph-name="aacute" horiz-adv-x="456" d="M234 723H354L355 720L247 591H148L234 723ZM97 -12T56 21T14 136Q14 236 82 278T275 320V375Q275 406 264 423T220 440Q187 440 172 424T157 385V370H40Q39 376 39 392Q39 458 87 498T217 538Q307
538 351 498T396 383V124Q396 106 404 98T424 89H448V4Q418 -12 377 -12Q342 -12 318 6T284 57H279Q254 22 225 5T146 -12Q97 -12 56 21ZM236 88T255 120T275 203V233Q214 233 176 214T137 147Q137 119 151 104T196 88Q236 88 255 120Z" />
<glyph unicode="&#xe2;" glyph-name="acircumflex" horiz-adv-x="456" d="M168 723H267L352 588H262L217 657L172 588H83L168 723ZM97 -12T56 21T14 136Q14 236 82 278T275 320V375Q275 406 264 423T220 440Q187 440 172 424T157 385V370H40Q39 376 39 392Q39
458 87 498T217 538Q307 538 351 498T396 383V124Q396 106 404 98T424 89H448V4Q418 -12 377 -12Q342 -12 318 6T284 57H279Q254 22 225 5T146 -12Q97 -12 56 21ZM236 88T255 120T275 203V233Q214 233 176 214T137 147Q137 119 151 104T196 88Q236 88 255 120Z"
/>
<glyph unicode="&#xe3;" glyph-name="atilde" horiz-adv-x="456" d="M49 649T74 686T147 723Q163 723 177 719T216 704Q237 695 251 691T280 686Q297 686 306 694T319 723H385Q385 675 360 638T286 601Q270 601 257 605T218 620Q197 629 183 633T154 638Q120 638
115 601H49Q49 649 74 686ZM97 -12T56 21T14 136Q14 236 82 278T275 320V375Q275 406 264 423T220 440Q187 440 172 424T157 385V370H40Q39 376 39 392Q39 458 87 498T217 538Q307 538 351 498T396 383V124Q396 106 404 98T424 89H448V4Q418 -12 377 -12Q342 -12
318 6T284 57H279Q254 22 225 5T146 -12Q97 -12 56 21ZM236 88T255 120T275 203V233Q214 233 176 214T137 147Q137 119 151 104T196 88Q236 88 255 120Z" />
<glyph unicode="&#xe4;" glyph-name="adieresis" horiz-adv-x="456" d="M80 723H180V614H80V723ZM254 723H354V614H254V723ZM97 -12T56 21T14 136Q14 236 82 278T275 320V375Q275 406 264 423T220 440Q187 440 172 424T157 385V370H40Q39 376 39 392Q39 458 87
498T217 538Q307 538 351 498T396 383V124Q396 106 404 98T424 89H448V4Q418 -12 377 -12Q342 -12 318 6T284 57H279Q254 22 225 5T146 -12Q97 -12 56 21ZM236 88T255 120T275 203V233Q214 233 176 214T137 147Q137 119 151 104T196 88Q236 88 255 120Z" />
<glyph unicode="&#xe5;" glyph-name="aring" horiz-adv-x="456" d="M178 561T150 589T121 657Q121 697 149 725T217 753Q257 753 285 725T313 657Q313 617 285 589T217 561Q178 561 150 589ZM236 611T249 624T263 657Q263 676 250 689T217 703Q198 703 185 690T171
657Q171 638 184 625T217 611Q236 611 249 624ZM97 -12T56 21T14 136Q14 236 82 278T275 320V375Q275 406 264 423T220 440Q187 440 172 424T157 385V370H40Q39 376 39 392Q39 458 87 498T217 538Q307 538 351 498T396 383V124Q396 106 404 98T424 89H448V4Q418
-12 377 -12Q342 -12 318 6T284 57H279Q254 22 225 5T146 -12Q97 -12 56 21ZM236 88T255 120T275 203V233Q214 233 176 214T137 147Q137 119 151 104T196 88Q236 88 255 120Z" />
<glyph unicode="&#xe6;" glyph-name="ae" horiz-adv-x="729" d="M132 -12T85 21T37 136Q37 236 105 278T298 320V375Q298 406 287 423T243 440Q210 440 195 424T180 385V370H63Q62 376 62 392Q62 458 110 498T240 538Q328 538 375 488Q422 538 500 538Q596 538
643 471T690 263V233H423Q424 159 442 123T504 86Q535 86 553 112T571 186H690Q690 88 639 38T504 -12Q397 -12 347 59Q316 25 279 7T189 -12Q132 -12 85 21ZM564 320Q564 440 500 440Q463 440 445 410T424 320H564ZM259 88T278 120T298 203V233Q237 233 199 214T160
147Q160 119 174 104T219 88Q259 88 278 120Z" />
<glyph unicode="&#xe7;" glyph-name="ccedilla" horiz-adv-x="456" d="M184 -182T146 -174V-125H217Q235 -125 244 -120T253 -101Q253 -89 246 -83T219 -77H187L195 -8Q116 5 79 71T41 263Q41 404 89 471T236 538Q323 538 371 487T420 328H297Q297 437 236 437Q199
437 183 399T166 282V244Q166 166 183 128T240 89Q272 89 286 116T301 198H420Q420 98 379 47T262 -11L260 -33Q295 -35 317 -52T339 -101Q339 -146 306 -164T230 -182Q184 -182 146 -174Z" />
<glyph unicode="&#xe8;" glyph-name="egrave" horiz-adv-x="456" d="M90 720L91 723H211L297 591H198L90 720ZM134 -12T83 55T31 263Q31 538 233 538Q329 538 376 471T423 263V233H156Q157 159 175 123T237 86Q268 86 286 112T304 186H423Q423 88 372 38T237 -12Q134
-12 83 55ZM297 320Q297 440 233 440Q196 440 178 410T157 320H297Z" />
<glyph unicode="&#xe9;" glyph-name="eacute" horiz-adv-x="456" d="M245 723H365L366 720L258 591H159L245 723ZM134 -12T83 55T31 263Q31 538 233 538Q329 538 376 471T423 263V233H156Q157 159 175 123T237 86Q268 86 286 112T304 186H423Q423 88 372 38T237
-12Q134 -12 83 55ZM297 320Q297 440 233 440Q196 440 178 410T157 320H297Z" />
<glyph unicode="&#xea;" glyph-name="ecircumflex" horiz-adv-x="456" d="M180 723H278L363 588H273L229 657L184 588H94L180 723ZM134 -12T83 55T31 263Q31 538 233 538Q329 538 376 471T423 263V233H156Q157 159 175 123T237 86Q268 86 286 112T304 186H423Q423
88 372 38T237 -12Q134 -12 83 55ZM297 320Q297 440 233 440Q196 440 178 410T157 320H297Z" />
<glyph unicode="&#xeb;" glyph-name="edieresis" horiz-adv-x="456" d="M91 723H191V614H91V723ZM266 723H366V614H266V723ZM134 -12T83 55T31 263Q31 538 233 538Q329 538 376 471T423 263V233H156Q157 159 175 123T237 86Q268 86 286 112T304 186H423Q423 88
372 38T237 -12Q134 -12 83 55ZM297 320Q297 440 233 440Q196 440 178 410T157 320H297Z" />
<glyph unicode="&#xec;" glyph-name="igrave" horiz-adv-x="228" d="M-24 720L-23 723H97L183 591H84L-24 720ZM54 526H174V0H54V526Z" />
<glyph unicode="&#xed;" glyph-name="iacute" horiz-adv-x="228" d="M131 723H251L252 720L145 591H45L131 723ZM54 526H174V0H54V526Z" />
<glyph unicode="&#xee;" glyph-name="icircumflex" horiz-adv-x="228" d="M66 723H164L249 588H159L115 657L70 588H-21L66 723ZM54 526H174V0H54V526Z" />
<glyph unicode="&#xef;" glyph-name="idieresis" horiz-adv-x="228" d="M-23 723H77V614H-23V723ZM152 723H252V614H152V723ZM54 526H174V0H54V526Z" />
<glyph unicode="&#xf0;" glyph-name="eth" horiz-adv-x="501" d="M145 -12T93 55T41 263Q41 397 89 467T223 538Q248 538 272 530L275 534Q261 561 237 595L108 584V657L183 664Q170 679 130 719L132 723H258Q282 703 308 675L438 687V614L363 607Q461 464 461
263Q461 122 409 55T251 -12Q145 -12 93 55ZM296 89T316 127T336 244V282Q336 360 316 398T251 437Q206 437 186 399T166 282V244Q166 166 186 128T251 89Q296 89 316 127Z" />
<glyph unicode="&#xf1;" glyph-name="ntilde" horiz-adv-x="501" d="M83 649T108 686T181 723Q197 723 211 719T250 704Q271 695 285 691T314 686Q331 686 340 694T353 723H419Q419 675 394 638T320 601Q304 601 291 605T252 620Q231 629 217 633T188 638Q154
638 149 601H83Q83 649 108 686ZM55 526H155L167 461H173Q196 495 229 516T306 538Q371 538 408 498T446 369V0H326V336Q326 385 309 407T257 429Q222 429 199 399T175 324V0H55V526Z" />
<glyph unicode="&#xf2;" glyph-name="ograve" horiz-adv-x="501" d="M112 720L113 723H233L319 591H220L112 720ZM145 -12T93 55T41 263Q41 404 93 471T251 538Q357 538 409 471T461 263Q461 122 409 55T251 -12Q145 -12 93 55ZM296 89T316 127T336 244V282Q336
360 316 398T251 437Q206 437 186 399T166 282V244Q166 166 186 128T251 89Q296 89 316 127Z" />
<glyph unicode="&#xf3;" glyph-name="oacute" horiz-adv-x="501" d="M268 723H388L389 720L281 591H182L268 723ZM145 -12T93 55T41 263Q41 404 93 471T251 538Q357 538 409 471T461 263Q461 122 409 55T251 -12Q145 -12 93 55ZM296 89T316 127T336 244V282Q336
360 316 398T251 437Q206 437 186 399T166 282V244Q166 166 186 128T251 89Q296 89 316 127Z" />
<glyph unicode="&#xf4;" glyph-name="ocircumflex" horiz-adv-x="501" d="M202 723H300L385 588H295L251 657L206 588H116L202 723ZM145 -12T93 55T41 263Q41 404 93 471T251 538Q357 538 409 471T461 263Q461 122 409 55T251 -12Q145 -12 93 55ZM296 89T316 127T336
244V282Q336 360 316 398T251 437Q206 437 186 399T166 282V244Q166 166 186 128T251 89Q296 89 316 127Z" />
<glyph unicode="&#xf5;" glyph-name="otilde" horiz-adv-x="501" d="M83 649T108 686T181 723Q197 723 211 719T250 704Q271 695 285 691T314 686Q331 686 340 694T353 723H419Q419 675 394 638T320 601Q304 601 291 605T252 620Q231 629 217 633T188 638Q154
638 149 601H83Q83 649 108 686ZM145 -12T93 55T41 263Q41 404 93 471T251 538Q357 538 409 471T461 263Q461 122 409 55T251 -12Q145 -12 93 55ZM296 89T316 127T336 244V282Q336 360 316 398T251 437Q206 437 186 399T166 282V244Q166 166 186 128T251 89Q296
89 316 127Z" />
<glyph unicode="&#xf6;" glyph-name="odieresis" horiz-adv-x="501" d="M113 723H213V614H113V723ZM288 723H388V614H288V723ZM145 -12T93 55T41 263Q41 404 93 471T251 538Q357 538 409 471T461 263Q461 122 409 55T251 -12Q145 -12 93 55ZM296 89T316 127T336
244V282Q336 360 316 398T251 437Q206 437 186 399T166 282V244Q166 166 186 128T251 89Q296 89 316 127Z" />
<glyph unicode="&#xf7;" glyph-name="divide" horiz-adv-x="549" d="M222 470H326V359H222V470ZM33 307H515V203H33V307ZM222 151H326V41H222V151Z" />
<glyph unicode="&#xf8;" glyph-name="oslash" horiz-adv-x="501" d="M97 50Q41 118 41 263Q41 404 93 471T251 538Q309 538 351 517L373 558H448L404 477Q461 410 461 263Q461 122 409 55T251 -12Q193 -12 149 9L127 -32H52L97 50ZM298 421Q279 437 251 437Q206
437 186 399T166 282V244Q166 210 169 183L298 421ZM296 89T316 127T336 244V282Q336 307 332 345L202 106Q222 89 251 89Q296 89 316 127Z" />
<glyph unicode="&#xf9;" glyph-name="ugrave" horiz-adv-x="501" d="M112 720L113 723H233L319 591H220L112 720ZM130 -12T93 28T55 157V526H175V190Q175 140 192 119T244 97Q279 97 302 126T326 200V526H446V0H346L334 65H328Q305 31 272 10T195 -12Q130 -12 93 28Z" />
<glyph unicode="&#xfa;" glyph-name="uacute" horiz-adv-x="501" d="M268 723H388L389 720L281 591H182L268 723ZM130 -12T93 28T55 157V526H175V190Q175 140 192 119T244 97Q279 97 302 126T326 200V526H446V0H346L334 65H328Q305 31 272 10T195 -12Q130 -12 93 28Z" />
<glyph unicode="&#xfb;" glyph-name="ucircumflex" horiz-adv-x="501" d="M202 723H300L385 588H295L251 657L206 588H116L202 723ZM130 -12T93 28T55 157V526H175V190Q175 140 192 119T244 97Q279 97 302 126T326 200V526H446V0H346L334 65H328Q305 31 272 10T195
-12Q130 -12 93 28Z" />
<glyph unicode="&#xfc;" glyph-name="udieresis" horiz-adv-x="501" d="M113 723H213V614H113V723ZM288 723H388V614H288V723ZM130 -12T93 28T55 157V526H175V190Q175 140 192 119T244 97Q279 97 302 126T326 200V526H446V0H346L334 65H328Q305 31 272 10T195
-12Q130 -12 93 28Z" />
<glyph unicode="&#xfd;" glyph-name="yacute" horiz-adv-x="456" d="M245 723H365L366 720L258 591H159L245 723ZM91 -182T68 -179T44 -173V-81H98Q125 -81 147 -61T179 0L4 526H131L210 279Q218 254 227 206T238 142H242Q244 157 252 203T267 278L332 526H452L308
27Q280 -70 236 -126T122 -182Q91 -182 68 -179Z" />
<glyph unicode="&#xfe;" glyph-name="thorn" horiz-adv-x="501" d="M55 723H175V466H176Q195 501 225 519T291 538Q371 538 415 470T460 262Q460 125 416 57T297 -12Q257 -12 226 5T180 54H175V-173H55V723ZM297 97T316 133T335 244V282Q335 356 316 392T255 429Q213
429 194 393T175 282V246Q175 172 194 135T255 97Q297 97 316 133Z" />
<glyph unicode="&#xff;" glyph-name="ydieresis" horiz-adv-x="456" d="M91 723H191V614H91V723ZM266 723H366V614H266V723ZM91 -182T68 -179T44 -173V-81H98Q125 -81 147 -61T179 0L4 526H131L210 279Q218 254 227 206T238 142H242Q244 157 252 203T267 278L332
526H452L308 27Q280 -70 236 -126T122 -182Q91 -182 68 -179Z" />
<glyph unicode="&#x2013;" glyph-name="endash" horiz-adv-x="456" d="M0 319H456V221H0V319Z" />
<glyph unicode="&#x2014;" glyph-name="emdash" horiz-adv-x="820" d="M0 319H820V221H0V319Z" />
<glyph unicode="&#x2018;" glyph-name="quoteleft" horiz-adv-x="228" d="M45 518L111 686H183L128 530H183V393H45V518Z" />
<glyph unicode="&#x2019;" glyph-name="quoteright" horiz-adv-x="228" d="M100 549H45V686H183V561L117 393H45L100 549Z" />
<glyph unicode="&#x201a;" glyph-name="quotesinglbase" horiz-adv-x="228" d="M100 0H45V137H183V12L117 -156H45L100 0Z" />
<glyph unicode="&#x201c;" glyph-name="quotedblleft" horiz-adv-x="410" d="M44 518L110 686H182L127 530H182V393H44V518ZM227 518L293 686H365L310 530H365V393H227V518Z" />
<glyph unicode="&#x201d;" glyph-name="quotedblright" horiz-adv-x="410" d="M100 549H45V686H183V561L117 393H45L100 549ZM283 549H228V686H366V561L300 393H228L283 549Z" />
<glyph unicode="&#x201e;" glyph-name="quotedblbase" horiz-adv-x="410" d="M100 0H45V137H183V12L117 -156H45L100 0ZM283 0H228V137H366V12L300 -156H228L283 0Z" />
<glyph unicode="&#x2022;" glyph-name="bullet" horiz-adv-x="287" d="M110 220T83 237T39 282T23 344Q23 395 58 431T143 467Q193 467 228 431T264 344Q264 311 248 283T204 237T143 220Q110 220 83 237Z" />
<glyph unicode="&#x2039;" glyph-name="guilsinglleft" horiz-adv-x="273" d="M19 326L155 526H246L138 326L246 126H155L19 326Z" />
<glyph unicode="&#x203a;" glyph-name="guilsinglright" horiz-adv-x="273" d="M135 326L27 526H118L254 326L118 126H27L135 326Z" />
</font>
</defs>
</svg>
