<?xml version="1.0" standalone="no"?>
<!DOCTYPE svg PUBLIC "-//W3C//DTD SVG 1.1//EN" "http://www.w3.org/Graphics/SVG/1.1/DTD/svg11.dtd">
<svg xmlns="http://www.w3.org/2000/svg">
<defs >
<font id="ArimaMadurai" horiz-adv-x="637" ><font-face
    font-family="Arima Madurai ExtraBold"
    units-per-em="1000"
    panose-1="0 0 9 0 0 0 0 0 0 0"
    ascent="1073"
    descent="-560"
    alphabetic="0" />
<glyph unicode=" " glyph-name="space" horiz-adv-x="215" />
<glyph unicode="!" glyph-name="exclam" horiz-adv-x="321" d="M122 195H204L230 718Q198 729 161 729Q123 729 91 718L122 195ZM130 -14T110 6T89 56Q89 85 109 105T160 126Q189 126 209 106T229 56Q229 27 209 7T160 -14Q130 -14 110 6Z" />
<glyph unicode="&quot;" glyph-name="quotedbl" horiz-adv-x="335" d="M215 546H266L296 725Q276 733 244 733Q212 733 189 725L215 546ZM66 546H117L147 725Q127 733 95 733Q63 733 40 725L66 546Z" />
<glyph unicode="#" glyph-name="numbersign" horiz-adv-x="626" d="M464 409L440 278H595L585 209H428L390 0H310L348 209H228L190 0H110L148 209H2L12 278H160L184 409H34L44 478H197L236 696H316L277 478H397L436 696H516L477 478H627L617 409H464ZM384 409H264L240
278H360L384 409Z" />
<glyph unicode="$" glyph-name="dollar" horiz-adv-x="564" d="M527 102T472 49T310 -13Q310 -66 316 -87Q306 -95 293 -95Q272 -95 272 -73V-14Q157 -13 99 26T40 129Q40 161 57 180T115 199Q121 199 141 197Q138 187 138 173Q138 165 140 147Q146 101 179 69T272
32L271 296L266 299Q194 340 153 371T88 441T64 536Q64 618 121 661T270 709Q268 755 264 774Q274 782 286 782Q308 782 308 760V710Q398 708 451 677T505 591Q505 536 443 533H434Q425 533 407 535Q408 540 408 549Q408 571 401 589Q395 619 371 639T308 664L309
423L332 410Q393 377 433 348T500 276T527 179Q527 102 472 49ZM176 538T197 509T271 446L270 666Q231 663 204 642T176 577Q176 538 197 509ZM355 37T382 64T410 139Q410 181 386 211T309 274L310 32Q355 37 382 64Z" />
<glyph unicode="%" glyph-name="percent" horiz-adv-x="1081" d="M680 711T690 711Q730 711 745 684L403 -14Q398 -15 389 -15Q357 -15 335 8L675 710Q680 711 690 711ZM141 314T92 364T43 513Q43 610 92 660T236 710Q331 710 379 661T428 513Q428 415 380 365T236
314Q141 314 92 364ZM279 349T299 388T319 513Q319 598 299 636T236 675Q192 675 173 637T153 513Q153 427 172 388T236 349Q279 349 299 388ZM751 -10T702 40T653 188Q653 286 702 336T846 386Q941 386 989 336T1038 188Q1038 90 990 40T846 -10Q751 -10 702 40ZM889
25T909 64T930 188Q930 273 910 311T847 350Q803 350 783 312T763 188Q763 102 783 64T847 25Q889 25 909 64Z" />
<glyph unicode="&amp;" glyph-name="ampersand" horiz-adv-x="891" d="M831 667T850 652T870 609Q870 577 842 540Q803 484 744 430Q757 373 757 325Q757 226 712 149T585 28T402 -15Q298 -15 220 24T99 133T56 292Q56 358 86 413T172 500T305 532Q389 532 434
493T480 391Q480 311 401 243Q448 276 513 334T642 459Q603 539 529 586T362 631Q362 669 382 690T453 711Q533 711 599 661T707 529Q780 614 812 667Q831 667 850 652ZM674 345T670 368Q581 299 477 244T281 162L272 200Q325 244 353 286T381 379Q381 424 362
451T304 478Q255 478 222 431T188 301Q188 229 214 170T292 75T413 39Q482 39 542 73T638 171T674 316Q674 345 670 368Z" />
<glyph unicode="&apos;" glyph-name="quotesingle" horiz-adv-x="187" d="M66 546H117L147 725Q127 733 95 733Q63 733 40 725L66 546Z" />
<glyph unicode="(" glyph-name="parenleft" horiz-adv-x="444" d="M319 -173T258 -123T152 32T107 286Q107 436 152 540T258 695T367 746Q387 746 396 738T405 722Q314 650 273 545T232 292Q232 -15 405 -148Q405 -157 396 -165T367 -173Q319 -173 258 -123Z" />
<glyph unicode=")" glyph-name="parenright" horiz-adv-x="444" d="M58 -173T49 -165T39 -148Q210 -18 213 286Q213 436 172 542T39 722Q39 729 48 737T78 746Q125 746 186 695T293 540T338 286Q338 136 294 32T188 -122T78 -173Q58 -173 49 -165Z" />
<glyph unicode="*" glyph-name="asterisk" horiz-adv-x="501" d="M363 471T331 481Q319 457 314 438Q356 423 382 394T409 335Q409 312 393 297T351 281Q313 281 290 317T267 399V409Q261 410 249 410Q239 410 234 409Q234 358 207 318T135 278Q112 278 96 291T79
329Q79 365 111 396T191 441Q187 462 177 483Q144 473 117 473Q78 473 52 490T25 539Q25 562 40 578T86 595Q117 595 145 577T195 529Q213 540 228 553Q186 601 186 651Q186 681 202 697T251 713Q315 713 315 651Q315 602 280 557Q293 542 315 529Q337 559 364
576T418 594Q444 594 458 579T473 538Q473 505 450 488T389 471Q363 471 331 481ZM234 677T234 652Q234 618 256 585Q279 618 279 648Q279 661 273 669T256 677Q234 677 234 652ZM139 507T159 513Q145 533 128 545T94 557Q85 557 79 552T73 538Q73 523 85 515T119
507Q139 507 159 513ZM384 555T351 512Q371 506 390 506Q410 506 423 513T436 535Q436 544 431 549T415 555Q384 555 351 512ZM282 476T295 498Q270 511 252 528Q232 510 212 499Q224 475 230 448Q236 449 248 449Q258 449 274 447Q282 476 295 498ZM163 314T177
340T194 400Q164 389 145 370T125 332Q125 324 130 319T144 314Q163 314 177 340ZM372 353T354 370T308 399Q308 371 319 345T351 318Q360 318 366 323T372 336Q372 353 354 370Z" />
<glyph unicode="+" glyph-name="plus" horiz-adv-x="550" d="M480 364T480 347Q480 332 474 315H307V148Q290 143 275 143Q261 143 243 148V315H76Q70 332 70 347Q70 364 76 380H242V547Q259 553 275 553Q290 553 307 547V380H474Q480 364 480 347Z" />
<glyph unicode="," glyph-name="comma" horiz-adv-x="303" d="M124 -103T106 -84Q141 -44 141 -9Q141 22 125 35T80 56Q80 84 100 105T152 126Q182 126 202 105T223 39Q223 -36 145 -106Q124 -103 106 -84Z" />
<glyph unicode="-" glyph-name="hyphen" horiz-adv-x="399" d="M359 293V223H39V293H359Z" />
<glyph unicode="." glyph-name="period" horiz-adv-x="300" d="M121 -14T101 6T80 56Q80 85 100 105T150 126Q179 126 199 106T220 56Q220 27 200 7T150 -14Q121 -14 101 6Z" />
<glyph unicode="/" glyph-name="slash" horiz-adv-x="485" d="M3 -142L328 732H447L121 -142H3Z" />
<glyph unicode="0" glyph-name="zero" horiz-adv-x="635" d="M189 -14T124 77T58 348Q58 529 123 619T317 710Q445 710 511 620T577 348Q577 168 511 77T317 -14Q189 -14 124 77ZM382 30T413 106T444 348Q444 513 413 589T317 666Q252 666 221 590T190 348Q190
183 221 107T317 30Q382 30 413 106Z" />
<glyph unicode="1" glyph-name="one" horiz-adv-x="450" d="M338 60T355 13Q346 3 329 -5T288 -14Q259 -14 241 3T222 49L221 554Q221 580 218 602Q185 561 144 524T80 487Q54 487 43 502T31 530T29 561Q34 563 108 613T223 691Q245 704 270 704Q300 704 318 688T337
642L338 136Q338 60 355 13Z" />
<glyph unicode="2" glyph-name="two" horiz-adv-x="558" d="M49 6T44 18T38 45Q38 55 41 65Q58 82 102 119Q178 183 234 239T332 368T375 521Q375 583 347 626T264 669Q200 669 175 617T148 495Q94 495 72 518T50 572Q50 608 77 639T155 690T272 710Q373 710 437
661T501 514Q501 406 434 315T289 168T124 61Q204 63 329 83T508 125Q518 117 524 99T530 59Q530 35 523 18T501 0H57Q49 6 44 18Z" />
<glyph unicode="3" glyph-name="three" horiz-adv-x="562" d="M169 -12T117 9T46 57T27 108Q27 133 46 153T113 173Q118 115 144 72T252 28Q316 28 354 69T392 179Q392 265 326 304T158 346L159 390Q263 394 314 441T365 552Q365 607 340 638T262 669Q199 669
173 627T145 526Q94 525 76 543T58 582Q58 615 82 644T154 692T272 710Q361 710 429 672T497 545Q497 482 450 435T326 368Q524 335 524 190Q524 96 452 42T260 -12Q169 -12 117 9Z" />
<glyph unicode="4" glyph-name="four" horiz-adv-x="615" d="M586 241T586 221Q586 195 572 173H485V136Q485 57 502 13Q492 3 475 -5T435 -14Q406 -14 387 3T367 49V173H66Q49 175 40 187T30 216Q30 230 37 240L350 676Q358 687 377 696T416 705Q446 705 464
688T483 643L485 240Q543 246 579 256Q586 241 586 221ZM367 238V598L111 238H367Z" />
<glyph unicode="5" glyph-name="five" horiz-adv-x="568" d="M205 -12T156 11T81 69T56 139Q56 169 74 187T126 205Q135 205 140 204Q141 142 170 91T266 39Q331 39 362 85T394 210Q394 280 356 325T249 371Q198 371 159 362T113 351Q88 351 88 376L100 647Q101
668 115 681T152 695Q281 695 350 697T480 706Q486 694 486 677Q486 653 475 630T446 599Q271 599 186 606L177 410Q244 425 295 425Q404 425 465 370T526 218Q526 137 490 86T397 11T274 -12Q205 -12 156 11Z" />
<glyph unicode="6" glyph-name="six" horiz-adv-x="589" d="M398 430T444 406T518 334T546 218Q546 114 484 51T303 -12Q190 -12 124 59T58 316Q58 513 126 611T342 709Q404 709 454 688T504 628Q504 607 488 587T461 563Q430 615 400 636T336 658Q254 658 224
580T190 361Q247 430 341 430Q398 430 444 406ZM367 31T392 85T417 223Q417 297 393 336T316 375Q275 375 241 351T189 280Q192 164 218 98T308 31Q367 31 392 85Z" />
<glyph unicode="7" glyph-name="seven" horiz-adv-x="511" d="M243 -6T214 -6Q186 -6 152 2Q158 85 189 207T267 440T367 609Q311 601 254 599T119 596H50Q41 604 37 623T32 663Q32 690 39 703Q134 696 235 696H468Q475 682 475 662Q475 631 458 610Q405 537 362
423T295 192T270 0Q243 -6 214 -6Z" />
<glyph unicode="8" glyph-name="eight" horiz-adv-x="617" d="M456 336T512 284T568 163Q568 119 543 79T459 12T310 -14Q218 -14 161 12T80 78T55 162Q55 205 77 245T139 313T232 352Q166 390 126 435T86 545Q86 586 108 623T179 685T306 710Q382 710 433 687T510
627T535 548Q535 510 515 474T458 412T370 378Q456 336 512 284ZM266 667T238 636T209 554Q209 492 241 458T332 396Q332 396 332 396T333 395Q379 423 395 463T412 549Q411 604 383 635T310 667Q266 667 238 636ZM368 28T403 62T438 150Q438 209 396 248T270 331Q235
306 210 267T185 170Q185 98 222 63T313 28Q368 28 403 62Z" />
<glyph unicode="9" glyph-name="nine" horiz-adv-x="600" d="M413 710T477 636T542 382Q542 180 475 83T260 -14Q186 -14 132 9T77 76Q77 98 93 117T120 140Q158 83 193 60T266 36Q347 36 377 113T410 336Q354 268 262 268Q206 268 161 292T88 365T61 483Q61 586
121 648T299 710Q413 710 477 636ZM326 323T359 347T410 417Q407 536 383 601T294 667Q236 667 211 614T186 479Q186 403 209 363T285 323Q326 323 359 347Z" />
<glyph unicode=":" glyph-name="colon" horiz-adv-x="272" d="M108 350T88 370T67 420Q67 449 87 469T137 490Q166 490 186 470T207 420Q207 391 187 371T137 350Q108 350 88 370ZM364 -14T344 6T323 56Q323 85 343 105T393 126Q422 126 442 106T463 56Q463 27
443 7T393 -14Q364 -14 344 6Z" />
<glyph unicode=";" glyph-name="semicolon" horiz-adv-x="276" d="M110 350T90 370T69 420Q69 449 89 469T139 490Q168 490 188 470T209 420Q209 391 189 371T139 350Q110 350 90 370ZM367 -103T349 -84Q384 -44 384 -9Q384 22 368 35T323 56Q323 84 343 105T395
126Q425 126 445 105T466 39Q466 -36 388 -106Q367 -103 349 -84Z" />
<glyph unicode="&lt;" glyph-name="less" horiz-adv-x="494" d="M40 348T40 351Q40 356 44 362L404 538Q410 541 415 541Q425 541 432 532T440 505Q440 492 436 479L142 351L436 223Q441 206 441 195Q441 179 435 170T417 161Q412 161 404 164L44 340Q40 348 40 351Z" />
<glyph unicode="=" glyph-name="equal" horiz-adv-x="544" d="M471 474Q477 459 477 442Q477 427 471 410H73Q67 427 67 442Q67 459 73 474H471ZM471 276Q477 260 477 244Q477 228 471 211H73Q67 228 67 244Q67 260 73 276H471Z" />
<glyph unicode="&gt;" glyph-name="greater" horiz-adv-x="495" d="M91 164Q84 161 78 161Q67 161 61 171T54 197Q54 210 58 223L352 351L58 479Q55 493 55 503Q55 521 62 531T80 541Q85 541 91 538L450 362Q454 358 454 351Q454 345 450 340L91 164Z" />
<glyph unicode="?" glyph-name="question" horiz-adv-x="518" d="M171 351Q250 354 304 401T358 534Q358 600 326 644T228 688Q165 688 140 644T112 536Q15 536 15 599Q15 635 42 665T119 714T237 732Q347 732 415 683T484 530Q484 459 450 409T364 334T258 304V194H171V351ZM175
-14T155 6T135 56Q135 85 155 105T205 126Q234 126 254 106T274 56Q274 27 254 7T205 -14Q175 -14 155 6Z" />
<glyph unicode="@" glyph-name="at" horiz-adv-x="880" d="M593 659T674 602T791 458T827 284Q827 201 804 146T743 64T658 37Q617 37 584 62T543 126Q499 50 425 50Q332 50 302 107T272 242Q272 356 320 420T462 484Q559 484 598 431T637 302L636 186Q635 145
646 119T684 92Q719 92 741 141T764 288Q764 363 735 435T640 555T468 604Q363 604 293 557T189 432T155 262Q155 167 189 96T280 -12T402 -50Q419 -50 427 -49Q435 -62 435 -72Q435 -88 417 -97T367 -107Q301 -107 226 -68T99 54T46 258Q46 362 91 453T230 602T466
659Q593 659 674 602ZM453 91T479 118T520 194T535 303Q535 370 515 406T445 442Q385 442 353 392T321 243Q321 180 340 136T419 91Q453 91 479 118Z" />
<glyph unicode="A" glyph-name="A" horiz-adv-x="616" d="M594 33T611 14Q588 -13 541 -13Q512 -13 493 -1T468 34L420 208H186L149 71Q142 47 142 29Q142 9 152 0Q119 -13 86 -13Q51 -13 35 -1T19 38Q19 58 31 101L231 694Q285 711 332 711Q386 711 398 671L581
73Q594 33 611 14ZM401 274L301 638L203 274H401Z" />
<glyph unicode="B" glyph-name="B" horiz-adv-x="595" d="M462 363T505 317T548 195Q548 96 475 48T264 0H157Q126 0 107 16T87 62V560Q87 637 70 682Q128 710 243 710Q376 710 445 670T514 542Q514 479 481 435T387 374Q462 363 505 317ZM217 666T208 665V391H266Q325
390 356 427T387 532Q387 597 353 631T243 666Q217 666 208 665ZM341 44T379 83T417 193Q417 279 377 312T263 346H208V44H261Q341 44 379 83Z" />
<glyph unicode="C" glyph-name="C" horiz-adv-x="611" d="M197 -14T124 80T51 348Q51 521 126 615T336 710Q391 710 441 696T523 656T554 596Q554 568 529 547T458 527Q442 666 338 666Q260 666 222 587T183 348Q183 188 220 109T335 30Q389 30 425 69T471 184Q477
185 490 185Q524 185 548 169T572 124Q572 82 537 51T446 3T328 -14Q197 -14 124 80Z" />
<glyph unicode="D" glyph-name="D" horiz-adv-x="650" d="M121 0T102 16T83 62L82 560Q82 566 82 596T79 653T70 698Q139 707 288 707Q438 707 518 619T599 356Q599 174 521 87T295 0H153Q121 0 102 16ZM288 44Q381 44 423 114T466 348Q466 511 423 586T288 662H203V44H288Z"
/>
<glyph unicode="E" glyph-name="E" horiz-adv-x="549" d="M491 100T497 84T503 49Q503 29 496 15T474 0H156Q126 0 107 16T88 62L87 545Q87 617 70 666Q91 685 113 690T177 696H471Q490 696 490 664Q490 642 481 620T458 591Q338 634 207 637V395H430Q434 380
434 362Q434 342 430 329H208V59Q273 60 352 75T481 107Q491 100 497 84Z" />
<glyph unicode="F" glyph-name="F" horiz-adv-x="529" d="M490 696T490 664Q490 642 481 620T458 591Q338 634 207 637V393H430Q433 383 433 363Q433 343 430 326H208V136Q208 57 225 13Q215 3 197 -5T156 -14Q126 -14 107 3T88 49L87 545Q87 617 70 666Q91 685
113 690T177 696H471Q490 696 490 664Z" />
<glyph unicode="G" glyph-name="G" horiz-adv-x="646" d="M203 -14T127 80T51 348Q51 521 129 615T350 710Q402 710 451 696T531 656T562 597Q562 568 537 547T466 527Q459 597 430 631T352 666Q266 666 225 587T183 348Q183 188 223 109T349 30Q420 30 447 87T474
222Q474 332 410 357Q418 376 438 385T483 395Q534 395 565 359T597 250Q597 168 565 109T474 18T343 -14Q203 -14 127 80Z" />
<glyph unicode="H" glyph-name="H" horiz-adv-x="694" d="M607 57T624 13Q614 3 596 -5T555 -14Q525 -14 506 3T486 49V332H208V136Q208 57 225 13Q215 3 197 -5T156 -14Q126 -14 107 3T88 49L87 560Q87 633 70 682Q80 692 98 700T139 708Q169 708 188 692T208
647V397H486V560Q486 633 469 682Q479 692 497 700T538 708Q568 708 587 692T607 647V136Q607 57 624 13Z" />
<glyph unicode="I" glyph-name="I" horiz-adv-x="295" d="M126 -14T107 3T88 49L87 560Q87 633 70 682Q80 692 98 700T139 708Q169 708 188 692T208 647V136Q208 57 225 13Q215 3 197 -5T156 -14Q126 -14 107 3Z" />
<glyph unicode="J" glyph-name="J" horiz-adv-x="485" d="M121 -14T81 19T40 101Q40 133 57 156T109 180Q127 180 139 174T159 155Q145 128 145 99Q145 70 163 50T207 30Q251 30 266 69T281 179V598Q281 622 282 636T289 659Q274 659 240 661L198 662Q178 662
165 653T152 622Q152 583 183 565Q165 551 133 551Q104 551 82 572T59 629Q59 666 87 688T167 710Q194 710 228 707L310 704Q357 704 407 710Q402 682 402 633V192Q402 -14 207 -14Q121 -14 81 19Z" />
<glyph unicode="K" glyph-name="K" horiz-adv-x="609" d="M593 65T593 50Q593 21 571 2T512 -18Q462 -18 435 18T385 117L353 215Q337 262 310 289T226 317H208V136Q208 57 225 13Q215 3 197 -5T156 -14Q126 -14 107 3T88 49L87 560Q87 633 70 682Q80 692 98 700T139
708Q169 708 188 692T207 647L208 363Q220 364 232 368Q289 382 329 422T390 515T411 614Q411 641 406 661T393 693Q419 705 443 705Q479 705 503 684T528 608Q528 532 477 461T321 351Q378 345 410 321T460 252L505 139Q522 103 533 90T560 75H564Q575 75 585
84Q593 65 593 50Z" />
<glyph unicode="L" glyph-name="L" horiz-adv-x="499" d="M208 65Q272 66 342 80T457 114Q468 107 474 90T480 52Q480 30 473 15T451 0H156Q126 0 107 16T88 62L87 560Q87 633 70 682Q80 692 98 700T139 708Q169 708 188 692T207 647L208 65Z" />
<glyph unicode="M" glyph-name="M" horiz-adv-x="851" d="M764 57T781 13Q771 3 753 -5T712 -14Q684 -14 666 3T647 49L646 560L463 88Q424 75 398 75Q375 75 352 84Q300 192 247 319T151 566L152 135Q152 50 170 2Q152 -14 126 -14Q86 -14 86 35V562Q86 641 79
693Q94 708 161 708Q203 708 224 686L281 545Q350 371 426 189Q547 508 613 697Q644 708 689 708Q716 708 738 700T763 681L764 136Q764 57 781 13Z" />
<glyph unicode="N" glyph-name="N" horiz-adv-x="697" d="M95 -14T70 2Q88 50 88 136L87 559Q87 641 80 693Q86 700 102 704T135 708Q158 708 165 701Q209 638 296 522Q395 390 458 300T547 157L517 616Q516 621 516 631Q516 663 530 683T570 706Q599 708 620
695Q610 660 610 583L609 133Q609 46 615 2Q609 -5 594 -9T564 -13Q545 -13 534 -7Q277 295 155 520L180 56Q182 26 163 6T120 -14Q95 -14 70 2Z" />
<glyph unicode="O" glyph-name="O" horiz-adv-x="661" d="M193 -14T122 77T51 348Q51 528 122 619T331 710Q468 710 539 619T610 348Q610 168 539 77T331 -14Q193 -14 122 77ZM407 30T442 106T478 348Q478 513 443 589T331 666Q255 666 219 590T183 348Q183 183
219 107T331 30Q407 30 442 106Z" />
<glyph unicode="P" glyph-name="P" horiz-adv-x="577" d="M390 710T465 661T540 504Q540 392 461 332T232 272H208V129Q208 55 226 13Q215 3 197 -5T157 -14Q127 -14 108 3T87 49V560Q87 637 70 682Q128 710 241 710Q390 710 465 661ZM324 315T366 362T408 496Q408
578 369 622T242 666Q216 666 208 664V315H229Q324 315 366 362Z" />
<glyph unicode="Q" glyph-name="Q" horiz-adv-x="669" d="M472 -161T392 -125T239 -34Q148 31 100 120T51 347Q51 527 124 618T334 710Q470 710 543 619T617 348Q617 234 582 153T483 29T333 -14Q303 -14 278 -7Q313 -36 360 -52T455 -69Q505 -69 541 -53T586
-6Q616 -10 633 -27T651 -73Q651 -110 620 -135T536 -161Q472 -161 392 -125ZM406 30T442 106T478 349Q478 513 443 589T333 666Q256 666 223 584T189 328Q189 185 221 108T331 30Q406 30 442 106Z" />
<glyph unicode="R" glyph-name="R" horiz-adv-x="620" d="M607 72T607 55Q607 23 583 5T532 -13Q496 -13 473 2T435 45T400 122L365 212Q352 245 341 263T309 295T253 308L208 309V129Q208 55 226 13Q215 3 197 -5T157 -14Q127 -14 108 3T87 49V560Q87 637 70
682Q128 710 246 710Q392 710 464 667T537 526Q537 454 495 404T379 334Q414 324 435 303T476 246L520 144Q534 110 547 95T574 79Q589 79 599 89Q607 72 607 55ZM240 351T259 352Q328 353 366 399T405 518Q405 588 369 627T255 667Q232 667 208 665V353Q240 351
259 352Z" />
<glyph unicode="S" glyph-name="S" horiz-adv-x="564" d="M158 -14T99 25T40 129Q40 161 57 180T115 199Q121 199 141 197Q138 187 138 173Q138 165 140 147Q147 98 185 65T290 31Q343 31 376 58T410 139Q410 189 378 222T266 299Q194 340 153 371T88 441T64 536Q64
624 129 667T295 710Q390 710 447 680T505 591Q505 536 443 533H434Q425 533 407 535Q408 540 408 549Q408 571 401 589Q394 624 363 645T281 666Q239 666 208 645T176 577Q176 544 191 519T239 468T332 410Q393 377 433 348T500 276T527 179Q527 126 500 82T415
12T274 -14Q158 -14 99 25Z" />
<glyph unicode="T" glyph-name="T" horiz-adv-x="547" d="M525 696T530 687T535 663Q535 641 526 619T502 591Q402 635 334 647L335 136Q335 57 352 13Q342 3 324 -5T283 -14Q253 -14 234 3T214 49V647Q150 635 46 591Q32 597 23 619T14 664Q14 696 33 696H515Q525
696 530 687Z" />
<glyph unicode="U" glyph-name="U" horiz-adv-x="670" d="M593 306Q593 -14 335 -14Q209 -14 147 64T84 306V560Q84 634 66 682Q77 692 95 700T135 708Q164 708 183 692T203 647V301Q203 159 234 95T335 30Q406 30 440 98T474 301V560Q474 637 457 682Q467 692
484 700T525 708Q554 708 573 692T593 647V306Z" />
<glyph unicode="V" glyph-name="V" horiz-adv-x="602" d="M550 710T566 698T583 660Q583 636 570 597L374 3Q330 -14 294 -14Q261 -14 243 -6T219 21L35 625Q22 666 5 684Q31 710 77 710Q142 710 154 664L310 72L452 627Q459 650 459 668Q459 689 450 698Q481
710 515 710Q550 710 566 698Z" />
<glyph unicode="W" glyph-name="W" horiz-adv-x="949" d="M891 707T907 696T924 659Q924 640 911 595L747 3Q703 -14 667 -14Q607 -14 597 21L478 484L351 3Q306 -14 273 -14Q205 -14 198 21L46 625Q42 639 34 656T16 684Q42 710 88 710Q155 710 165 664L290 85L409
550Q412 567 412 580Q412 605 404 619Q421 628 445 633T489 638Q513 638 529 630T550 607L684 86L794 623Q795 631 797 644T800 665Q800 684 791 696Q824 707 856 707Q891 707 907 696Z" />
<glyph unicode="X" glyph-name="X" horiz-adv-x="628" d="M591 114T601 100T612 66Q612 34 585 11T513 -13Q468 -13 441 13T383 96L296 262L147 23Q136 6 123 -3T87 -12Q58 -12 43 5T24 60Q52 68 73 87T119 140L257 337L136 564Q125 583 116 591T96 599Q84 599
75 591T64 571Q48 579 38 593T28 628Q28 660 51 682T122 705Q169 705 198 679T257 596L336 440L471 670Q490 706 530 706Q559 706 574 689T593 633Q564 624 542 604T498 554L371 374L504 128Q513 111 524 102T546 93Q556 93 564 101T575 121Q591 114 601 100Z"
/>
<glyph unicode="Y" glyph-name="Y" horiz-adv-x="584" d="M352 259V136Q352 60 370 13Q360 3 342 -5T301 -14Q271 -14 252 3T232 49V260Q224 270 213 292L53 607Q32 644 7 669Q20 683 42 695T92 707Q125 707 142 691T176 640L315 338L444 620Q454 644 454 662Q454
681 442 695Q473 707 510 707Q537 707 551 692T566 654Q566 627 538 580L352 259Z" />
<glyph unicode="Z" glyph-name="Z" horiz-adv-x="589" d="M530 193T547 167T564 107Q564 57 526 27T413 -2L159 4Q128 5 108 3T62 -7L45 23Q45 55 51 76T77 120L430 606L219 592Q190 591 169 581T139 553Q132 536 132 522Q132 508 141 493Q110 496 86 512Q67 522
55 543T43 590Q43 640 84 670T208 699L406 693Q487 691 524 703L541 668Q541 637 534 616T509 570L153 91L381 105Q417 106 439 119T469 150Q476 165 476 181Q476 198 470 211Q483 209 500 203Q530 193 547 167Z" />
<glyph unicode="[" glyph-name="bracketleft" horiz-adv-x="363" d="M277 737V681H198V-114H277V-169H87V737H277Z" />
<glyph unicode="\" glyph-name="backslash" horiz-adv-x="533" d="M63 732H182L506 -142H388L63 732Z" />
<glyph unicode="]" glyph-name="bracketright" horiz-adv-x="363" d="M266 -169H77V-114H155V681H77V737H266V-169Z" />
<glyph unicode="^" glyph-name="asciicircum" horiz-adv-x="543" d="M95 252T82 257T67 266L240 431Q248 435 274 435Q296 435 304 431L477 266Q476 262 462 257T439 251L272 356L103 251Q95 252 82 257Z" />
<glyph unicode="_" glyph-name="underscore" horiz-adv-x="386" d="M416 -69V-130L-30 -128V-67L416 -69Z" />
<glyph unicode="`" glyph-name="grave" horiz-adv-x="600" d="M179 718T217 727T276 733L366 577Q361 574 348 572T322 569L169 710Q179 718 217 727Z" />
<glyph unicode="a" glyph-name="a" horiz-adv-x="562" d="M555 75T555 55Q555 27 531 9T468 -10Q420 -10 394 22T365 128Q336 65 285 28T167 -10Q109 -10 74 21T38 107Q38 171 86 212T210 274Q277 293 358 293V319Q358 404 336 445T261 486Q226 486 204 468T182
409Q182 386 190 366T219 336Q209 325 192 320T154 314Q112 314 87 340T61 405Q61 464 116 496T268 528Q378 528 429 477T480 311V132Q480 79 514 79Q521 79 529 82T542 94Q555 75 555 55ZM252 68T285 93T340 160T362 253Q282 255 235 232Q204 217 186 192T168
135Q168 106 181 87T221 68Q252 68 285 93Z" />
<glyph unicode="b" glyph-name="b" horiz-adv-x="551" d="M212 -14T155 3T63 53V670Q63 699 81 715T127 732Q165 732 200 706Q181 628 181 512V419Q198 469 239 498T337 528Q420 528 467 467T514 277Q514 140 456 63T275 -14Q212 -14 155 3ZM336 36T361 100T387
277Q387 375 369 419T310 464Q247 464 214 400T181 243V63Q195 51 217 44T264 36Q336 36 361 100Z" />
<glyph unicode="c" glyph-name="c" horiz-adv-x="511" d="M166 -14T102 56T37 257Q37 384 103 456T289 528Q376 528 422 492T469 400Q469 362 445 339T384 315Q365 315 348 320T321 337Q350 359 350 410Q350 449 331 467T279 485Q226 485 195 430T164 276Q164
165 204 113T319 61Q372 61 409 87T457 156Q474 149 474 125Q474 113 470 98Q455 45 405 16T284 -14Q166 -14 102 56Z" />
<glyph unicode="d" glyph-name="d" horiz-adv-x="584" d="M564 74T564 53Q564 26 541 9T484 -9Q439 -9 414 24T383 120Q360 54 318 20T213 -14Q121 -14 79 55T37 237Q37 376 92 452T250 528Q297 528 329 511T376 462V533Q376 638 356 706Q388 732 425 732Q454
732 473 715T493 670L492 132Q492 80 525 80Q544 80 552 93Q564 74 564 53ZM309 52T341 129T374 317Q374 385 354 426T278 467Q164 467 164 240Q164 146 182 99T248 52Q309 52 341 129Z" />
<glyph unicode="e" glyph-name="e" horiz-adv-x="522" d="M479 134T479 115Q479 103 472 85Q453 38 404 12T285 -14Q170 -14 104 57T37 257Q37 384 102 456T288 528Q375 528 430 489T486 378Q486 305 427 266T267 226Q210 226 166 231Q173 140 212 101T318 61Q371
61 409 83T463 141Q479 134 479 115ZM227 485T196 429T164 273Q192 271 208 271Q274 271 316 297T358 397Q358 485 283 485Q227 485 196 429Z" />
<glyph unicode="f" glyph-name="f" horiz-adv-x="400" d="M342 742T381 720T420 655Q420 626 400 608T350 590Q313 590 297 607Q316 634 316 659Q316 703 270 703Q239 703 225 679T207 618T204 519V513H232Q251 513 290 514T336 517L335 488Q334 474 326 466T305
458H204V136Q204 60 221 13Q192 -14 154 -14Q124 -14 105 3T86 49V458H75Q35 458 15 455L16 484Q17 498 25 505T48 513H86V540Q86 742 272 742Q342 742 381 720Z" />
<glyph unicode="g" glyph-name="g" horiz-adv-x="544" d="M146 -227T94 -198T41 -110Q41 -74 64 -52T125 -30Q165 -30 180 -50Q151 -75 151 -116Q151 -150 171 -169T229 -188Q298 -188 333 -130T368 32Q368 81 369 104Q351 54 312 27T215 0Q131 0 84 59T37 249Q37
375 93 451T278 528Q339 528 394 511T486 462V44Q486 -99 416 -163T225 -227Q146 -227 94 -198ZM308 57T337 109T367 249L368 459Q354 471 331 478T283 485Q214 485 189 422T163 237Q163 138 182 98T250 57Q308 57 337 109Z" />
<glyph unicode="h" glyph-name="h" horiz-adv-x="568" d="M503 60T520 13Q491 -14 453 -14Q423 -14 404 3T385 49V307Q385 390 367 430T303 471Q253 471 220 412T187 237Q187 123 190 85T207 12Q175 -14 140 -14Q110 -14 91 4T71 54V670Q70 698 85 713T127 731Q151
734 172 725T207 706Q195 667 191 618T186 490V422Q207 473 246 500T342 528Q424 528 463 477T503 325V136Q503 60 520 13Z" />
<glyph unicode="i" glyph-name="i" horiz-adv-x="269" d="M104 584T84 604T63 653Q63 683 83 703T133 723Q162 723 182 703T203 653Q203 624 183 604T133 584Q104 584 84 604ZM197 57T214 13Q204 3 187 -5T146 -14Q118 -14 99 3T80 49L79 379Q79 453 62 502Q91
528 128 528Q158 528 176 512T195 466L197 136Q197 57 214 13Z" />
<glyph unicode="j" glyph-name="j" horiz-adv-x="266" d="M105 596T86 615T66 663Q66 691 85 711T133 731Q162 731 181 712T201 663Q201 635 181 616T133 596Q105 596 86 615ZM-38 -229T-69 -206T-100 -143Q-100 -118 -84 -100T-38 -82Q-22 -82 -13 -88T4 -107Q-9
-130 -9 -150Q-9 -170 1 -179T27 -189Q61 -189 70 -144T80 -8L81 378Q81 454 63 502Q95 528 130 528Q159 528 178 511T197 465V-29Q197 -118 156 -173T22 -229Q-38 -229 -69 -206Z" />
<glyph unicode="k" glyph-name="k" horiz-adv-x="550" d="M531 80T531 57Q531 27 506 7T442 -14Q410 -14 385 4T344 60L274 216Q229 202 188 194Q188 107 191 76T208 12Q193 0 177 -7T136 -14Q99 -14 85 4T71 54V670Q70 699 89 715T138 732Q177 732 206 706Q196
656 193 622T189 542L187 489L186 397Q209 458 256 493T370 528Q433 528 464 497T496 416Q496 359 456 315T354 242Q369 239 381 226T408 190L445 126Q458 102 465 94T487 86Q503 86 515 96Q531 80 531 57ZM266 261T321 304T376 408Q376 467 324 467Q286 467 255
437T206 354T188 239Q266 261 321 304Z" />
<glyph unicode="l" glyph-name="l" horiz-adv-x="285" d="M129 -10T99 25T69 122V670Q69 699 88 715T138 732Q176 732 205 706Q194 667 191 626T188 511L187 132Q187 106 196 93T223 79Q233 79 242 82T255 94Q268 77 268 55Q268 27 243 9T184 -10Q129 -10 99 25Z" />
<glyph unicode="m" glyph-name="m" horiz-adv-x="871" d="M805 60T823 13Q792 -14 755 -14Q725 -14 706 3T687 49L686 307Q686 388 672 429T615 471Q587 471 562 446T521 369T504 243V136Q504 60 522 13Q491 -14 455 -14Q427 -14 408 3T389 49V307Q389 391 373
431T313 471Q267 471 237 411T207 234Q207 122 210 85T227 12Q213 1 198 -6T159 -14Q129 -14 110 4T91 54L90 385Q90 438 59 438Q51 438 43 434T31 422Q19 439 19 461Q19 491 39 509T95 527Q140 527 165 497T193 405Q212 463 252 495T352 528Q412 528 446 499T495
409Q514 465 554 496T653 528Q805 528 805 325V136Q805 60 823 13Z" />
<glyph unicode="n" glyph-name="n" horiz-adv-x="583" d="M520 53T536 13Q505 -14 467 -14Q437 -14 418 3T399 49V307Q398 389 381 428T317 467Q267 467 234 409T201 237Q201 123 204 85T221 12Q210 2 193 -6T154 -14Q123 -14 104 4T84 54V386Q83 414 77 426T57
438Q38 438 31 425Q19 445 19 465Q19 493 38 510T93 527Q138 527 162 498T188 408Q209 466 251 497T356 528Q438 528 477 477T517 325V136Q520 53 536 13Z" />
<glyph unicode="o" glyph-name="o" horiz-adv-x="557" d="M164 -14T101 57T37 257Q37 385 100 456T279 528Q393 528 456 457T520 257Q520 129 457 58T279 -14Q164 -14 101 57ZM392 29T392 257Q392 485 279 485Q164 485 164 257Q164 29 279 29Q392 29 392 257Z" />
<glyph unicode="p" glyph-name="p" horiz-adv-x="578" d="M457 528T498 457T540 277Q540 137 483 62T325 -14Q279 -14 247 2T200 51V-15Q200 -125 220 -192Q209 -202 192 -210T151 -218Q122 -218 103 -202T83 -157L84 383Q84 410 78 422T57 434Q38 434 31 422Q19
442 19 461Q19 489 40 506T94 523Q182 523 193 393Q239 528 363 528Q457 528 498 457ZM414 49T414 278Q414 367 396 415T328 463Q268 463 235 387T202 208Q202 129 223 89T296 49Q414 49 414 278Z" />
<glyph unicode="q" glyph-name="q" horiz-adv-x="547" d="M395 -226T379 -219T349 -199Q360 -163 364 -120T368 -23V21V95Q351 44 310 15T212 -15Q129 -15 83 47T37 241Q37 369 94 448T273 528Q338 528 396 510T487 461V-163Q487 -191 469 -208T417 -226Q395 -226
379 -219ZM284 50T312 83T355 166T369 268V451Q353 462 329 469T279 477Q213 477 189 417T164 247Q164 147 182 99T244 50Q284 50 312 83Z" />
<glyph unicode="r" glyph-name="r" horiz-adv-x="462" d="M376 528T410 498T445 416Q445 380 423 356T369 330Q351 330 337 335T315 348Q326 367 329 381T333 416Q333 471 287 471Q248 471 225 412T201 237Q201 125 204 88T221 16Q211 6 194 -2T153 -10Q124 -10
104 8T84 58V386Q84 414 78 426T57 438Q38 438 31 425Q19 445 19 465Q19 493 38 510T93 527Q135 527 160 500T188 418Q223 528 320 528Q376 528 410 498Z" />
<glyph unicode="s" glyph-name="s" horiz-adv-x="474" d="M128 -14T80 18T32 104Q32 131 48 151T100 171Q106 171 122 169Q119 157 119 144Q119 133 122 119Q127 82 156 57T237 32Q281 32 308 48T336 98Q336 131 312 151T234 196Q221 201 212 206Q159 231 127
251T72 304T49 387Q49 458 104 493T243 529Q326 529 375 504T424 431Q424 407 411 391T368 373H358Q349 373 335 375Q337 411 328 429Q321 455 298 470T239 485Q204 485 180 471T156 426Q156 399 172 380T212 346T280 311Q336 284 368 266T423 217T447 143Q447
77 393 32T222 -14Q128 -14 80 18Z" />
<glyph unicode="t" glyph-name="t" horiz-adv-x="350" d="M235 513T277 514T325 517L324 488Q323 473 315 466T293 458H202V426V132Q202 79 248 79Q261 79 273 82T289 94Q303 76 303 55Q303 26 275 8T201 -10Q145 -10 115 25T84 122V458H69Q28 458 9 455L10 484Q11
498 19 505T41 513H84V585Q84 614 103 630T152 647Q175 647 192 639T219 621Q206 569 203 513H215Q235 513 277 514Z" />
<glyph unicode="u" glyph-name="u" horiz-adv-x="578" d="M561 70T561 50Q561 22 542 5T487 -13Q441 -13 417 17T392 107Q350 -14 227 -14Q145 -14 108 33T69 190V378Q69 453 52 502Q82 528 120 528Q150 528 169 511T188 465V208Q188 120 205 81T266 42Q315 42
346 102T378 278Q378 391 375 429T359 502Q388 528 427 528Q456 528 475 510T495 460L496 128Q496 100 502 88T522 76Q541 76 549 89Q561 70 561 50Z" />
<glyph unicode="v" glyph-name="v" horiz-adv-x="505" d="M459 525T474 513T490 474Q490 442 478 411L323 4Q283 -14 243 -14Q192 -14 180 26L38 439Q37 441 30 462T9 498Q34 525 77 525Q105 525 123 513T147 478L264 60L366 441Q372 469 372 482Q372 502 364
512Q394 525 425 525Q459 525 474 513Z" />
<glyph unicode="w" glyph-name="w" horiz-adv-x="818" d="M180 -14T168 26L43 439Q41 444 33 464T13 498Q40 525 81 525Q109 525 127 513T151 478L251 68L336 441Q341 474 341 482Q341 502 333 512Q366 525 410 525Q477 525 490 483L587 68L674 441Q680 469 680
482Q680 502 672 512Q688 519 701 522T733 525Q767 525 783 513T799 474Q799 444 786 411L648 4Q606 -14 568 -14Q544 -14 527 -5T504 26L410 407L317 4Q274 -14 231 -14Q180 -14 168 26Z" />
<glyph unicode="x" glyph-name="x" horiz-adv-x="515" d="M485 111T496 97T508 62Q508 32 483 9T415 -15Q386 -15 366 -3T331 32T293 96L245 183L149 21Q129 -14 90 -14Q63 -14 45 3T23 58Q56 66 79 85T123 137L204 256L128 386Q108 422 88 422Q77 422 68 414T57
394Q40 401 30 415T19 451Q19 482 43 505T114 528Q142 528 161 517T195 484T234 417L275 341L364 491Q384 528 425 528Q456 528 473 511T494 455Q461 445 439 426T394 374L315 267L397 126Q407 109 418 100T440 91Q449 91 458 100T468 119Q485 111 496 97Z" />
<glyph unicode="y" glyph-name="y" horiz-adv-x="555" d="M496 52Q496 -96 429 -161T243 -227Q162 -227 110 -203T58 -121Q58 -90 81 -70T141 -50Q180 -50 195 -70Q182 -79 175 -93T168 -120Q168 -151 189 -169T245 -188Q314 -188 349 -129T385 37Q385 65 392
117Q349 -8 224 -8Q146 -8 108 39T69 196V378Q69 453 52 502Q82 528 120 528Q150 528 169 511T188 465V214Q188 128 204 89T263 50Q314 50 346 108T378 280Q378 392 375 429T359 502Q388 528 427 528Q456 528 475 510T495 460L496 52Z" />
<glyph unicode="z" glyph-name="z" horiz-adv-x="501" d="M457 162T471 137T486 88Q486 47 450 21T349 -5L139 0Q81 2 47 -10L32 16Q32 44 37 61T59 95L352 433L186 420Q165 419 149 410T124 389Q112 373 112 356Q112 352 114 344Q93 346 83 351Q56 363 42 386T27
430Q27 472 62 497T170 521L352 515Q414 513 444 524L457 494Q457 466 452 449T430 412L160 94L324 100Q350 101 367 111T393 137Q401 151 401 165Q401 174 398 181Q418 178 429 174Q457 162 471 137Z" />
<glyph unicode="{" glyph-name="braceleft" horiz-adv-x="414" d="M199 -177T155 -141T110 -30Q110 0 117 58Q126 139 126 172Q126 213 111 233T59 269V307Q96 321 111 343T126 408Q126 444 117 523Q110 572 110 598Q110 673 154 709T282 746Q315 746 341 741T378
728Q383 725 383 713Q383 705 381 698T373 690Q346 699 319 699Q275 699 253 678T230 608Q230 583 237 530Q247 460 247 416Q247 308 196 291V285Q219 278 233 247T247 162Q247 132 243 96T238 51Q230 -13 230 -35Q230 -83 253 -107T319 -131Q343 -131 373 -121Q378
-122 380 -129T383 -144Q383 -156 378 -159Q367 -166 341 -171T282 -177Q199 -177 155 -141Z" />
<glyph unicode="|" glyph-name="bar" horiz-adv-x="338" d="M113 730H224V-137H113V730Z" />
<glyph unicode="}" glyph-name="braceright" horiz-adv-x="413" d="M97 -177T72 -172T34 -159Q29 -156 29 -145Q29 -137 32 -130T40 -121Q68 -131 94 -131Q137 -131 160 -107T183 -35Q183 -13 175 51Q174 59 170 95T166 162Q166 216 180 247T217 285V291Q166 308
166 416Q166 460 176 530Q183 583 183 608Q183 657 161 678T94 699Q66 699 40 690Q35 691 32 698T29 714Q29 725 34 728Q46 735 71 740T131 746Q214 746 258 710T302 598Q302 572 295 523Q286 444 286 408Q286 366 301 344T353 307V269Q317 254 302 234T286 172Q286
139 295 58Q302 0 302 -30Q302 -105 258 -141T131 -177Q97 -177 72 -172Z" />
<glyph unicode="~" glyph-name="asciitilde" horiz-adv-x="505" d="M434 338T408 309T340 280Q317 280 298 287T250 311Q224 325 206 332T166 340Q116 340 96 293H91Q76 293 63 302Q68 357 99 382T173 407Q197 407 217 400T264 377Q290 362 309 355T350 348Q375
348 386 359T410 395Q430 395 442 386Q434 338 408 309Z" />
<glyph unicode="&#xa0;" glyph-name="uni00A0" horiz-adv-x="287" />
<glyph unicode="&#xa1;" glyph-name="exclamdown" horiz-adv-x="308" d="M182 528T202 508T222 458Q222 429 202 409T153 388Q123 388 103 408T82 458Q82 487 102 507T153 528Q182 528 202 508ZM120 -215T152 -215Q187 -215 223 -204L198 319H116L85 -204Q120
-215 152 -215Z" />
<glyph unicode="&#xa2;" glyph-name="cent" horiz-adv-x="515" d="M475 245T475 221Q475 209 471 194Q462 161 439 137T380 99L400 35Q417 -20 430 -47Q424 -57 412 -61Q409 -62 403 -62Q390 -62 385 -47L343 88Q316 82 285 82Q167 82 103 152T39 353Q39 448 76
513T183 606L169 652Q154 700 138 734Q141 738 145 741T157 748Q160 749 166 749Q178 749 184 734L220 617Q251 624 290 624Q377 624 423 588T470 496Q470 457 447 434T385 411Q366 411 349 416T322 433Q352 456 352 506Q352 545 333 563T280 581Q255 581 235 569L361
162Q398 170 424 194T459 252Q475 245 475 221ZM322 157L204 539Q165 484 165 372Q165 261 205 209T320 157H322Z" />
<glyph unicode="&#xa3;" glyph-name="sterling" horiz-adv-x="510" d="M483 108T483 66Q483 39 472 20T440 0H34V35Q82 103 99 145T117 239Q117 252 115 280H85Q51 280 25 278L26 306Q27 320 35 328T57 336H110L107 358Q97 436 97 469Q97 600 161 650T316 700Q385
700 424 673T463 609Q463 547 405 547Q392 547 381 550Q381 602 360 630T304 659Q263 659 239 629T214 515Q214 476 218 439T223 393L229 336H262Q283 336 321 337T380 339L379 310Q378 296 369 288T347 280H232V277Q232 189 200 133T97 46Q199 46 290 67T470 131Q483
108 483 66Z" />
<glyph unicode="&#xa4;" glyph-name="currency" horiz-adv-x="605" d="M523 165T545 151Q543 145 540 139T530 126Q520 114 509 114Q501 114 495 121L439 175Q378 131 301 131Q261 131 225 144T159 180L156 177Q109 130 99 111Q97 112 89 115T73 127Q61 138 61
147Q61 152 68 161L122 216Q76 276 76 355Q76 437 126 498L125 499Q104 519 86 535T59 556Q65 573 75 583Q86 594 96 594Q103 594 110 587L165 534Q224 579 303 579Q385 579 447 530L448 531Q496 584 504 597Q511 595 517 592T530 582Q542 570 542 560Q542 553
535 546L483 493Q528 434 528 355Q528 272 477 211L479 209Q523 165 545 151ZM341 196T374 216T426 273T445 355Q445 401 426 437T373 493T301 514Q262 514 230 494T178 437T158 355Q158 309 177 273T230 217T303 196Q341 196 374 216Z" />
<glyph unicode="&#xa5;" glyph-name="yen" horiz-adv-x="583" d="M566 627T538 580L380 307L422 308Q443 309 464 309T498 310L497 281Q497 272 492 265H498L497 237Q496 223 487 215T465 207H352V136Q352 60 370 13Q360 3 342 -5T301 -14Q271 -14 252 3T232 49V207H142Q129
207 112 206T82 203L83 232Q83 242 88 249H82L83 278Q84 292 92 299T114 307H205L53 607Q32 644 7 669Q20 683 42 695T92 707Q125 707 142 691T176 640L315 338L444 620Q454 644 454 662Q454 681 442 695Q473 707 510 707Q537 707 551 692T566 654Q566 627 538
580Z" />
<glyph unicode="&#xa6;" glyph-name="brokenbar" horiz-adv-x="338" d="M113 730H224V364H113V730ZM113 228H224V-137H113V228Z" />
<glyph unicode="&#xa7;" glyph-name="section" horiz-adv-x="472" d="M128 -114T80 -81T32 5Q32 32 48 51T98 71Q103 71 119 69Q116 57 116 46Q116 34 119 20Q124 -19 154 -44T236 -69Q281 -69 309 -52T337 -2Q337 24 321 43T281 74T211 107Q157 133 126 153T72
206T49 288Q49 339 76 372T152 419Q103 446 76 481T49 570Q49 641 103 675T243 710Q325 710 373 685T422 612Q422 589 409 573T368 555H359Q351 555 335 557Q336 562 336 572Q336 595 329 610Q322 637 299 652T237 667Q201 667 177 652T153 607Q153 580 169 560T209
526T277 491Q335 463 366 445T421 397T445 324Q445 278 417 240T329 185Q385 155 415 123T445 42Q445 1 423 -34T350 -92T221 -114Q128 -114 80 -81ZM297 218T317 234T337 281Q337 315 308 336T218 387Q188 385 171 369T153 325Q153 289 182 265T266 216Q297 218
317 234Z" />
<glyph unicode="&#xa8;" glyph-name="dieresis" horiz-adv-x="600" d="M172 585T155 602T138 642Q138 666 155 682T196 699Q219 699 236 683T253 642Q253 619 236 602T196 585Q172 585 155 602ZM358 585T341 602T324 642Q324 666 341 682T381 699Q405 699 422
683T439 642Q439 619 422 602T381 585Q358 585 341 602Z" />
<glyph unicode="&#xa9;" glyph-name="copyright" horiz-adv-x="810" d="M308 -12T226 36T95 168T47 350Q47 448 95 530T225 661T406 710Q503 710 585 662T716 530T764 350Q764 252 716 169T586 37T406 -12Q308 -12 226 36ZM489 34T560 76T673 191T715 350Q715
436 674 508T561 622T405 664Q320 664 249 622T136 508T94 350Q94 263 136 191T249 76T405 34Q489 34 560 76ZM320 130T272 187T223 350Q223 454 273 511T413 569Q469 569 512 550T556 497Q556 479 539 465T493 451Q488 497 468 518T413 540Q311 540 311 350Q311
254 335 207T410 160Q447 160 471 184T503 256Q507 257 516 257Q537 257 552 246T567 215Q567 175 519 153T406 130Q320 130 272 187Z" />
<glyph unicode="&#xaa;" glyph-name="ordfeminine" horiz-adv-x="400" d="M395 429T395 412Q395 391 378 378T332 364Q302 364 278 383T253 435Q253 442 254 446Q233 408 199 386T119 363Q77 363 52 383T27 440Q27 484 62 511T149 552Q197 563 252 565V582Q252
635 237 660T187 686Q164 686 150 675T135 639Q135 605 160 591Q144 575 112 575Q81 575 63 592T44 636Q44 675 83 696T192 718Q272 718 307 685T343 576V468Q343 434 367 434Q372 434 377 436T386 441Q395 429 395 412ZM180 425T202 439T239 479T254 535Q197 535
169 522Q148 513 136 498T124 464Q124 447 132 436T159 425Q180 425 202 439Z" />
<glyph unicode="&#xab;" glyph-name="guillemotleft" horiz-adv-x="720" d="M407 243V238L675 49L644 7L291 204Q288 212 288 236Q288 266 291 273L644 486L675 440L407 243ZM140 243V238L408 49L377 7L24 204Q21 212 21 236Q21 266 24 273L377 486L408 440L140 243Z" />
<glyph unicode="&#xac;" glyph-name="logicalnot" horiz-adv-x="538" d="M461 395V230Q444 223 431 223Q418 223 400 230V331H62Q56 348 56 363Q56 380 62 395H461Z" />
<glyph unicode="&#xad;" glyph-name="uni00AD" horiz-adv-x="399" d="M359 293V223H39V293H359Z" />
<glyph unicode="&#xae;" glyph-name="registered" horiz-adv-x="810" d="M503 710T585 662T716 530T764 350Q764 252 716 169T586 37T406 -12Q308 -12 226 36T95 168T47 350Q47 448 95 530T225 661T406 710Q503 710 585 662ZM489 34T560 76T673 191T715 350Q715
435 673 507T560 621T405 664Q320 664 249 622T136 508T94 350Q94 263 136 191T249 76T405 34Q489 34 560 76ZM587 189Q595 189 601 194Q606 181 606 172Q606 152 591 139T552 126Q521 126 504 148T467 215L444 266Q431 297 415 310T368 323L337 324V218Q337 170
348 144Q326 125 301 125Q282 125 269 136T256 167V476Q256 525 245 555Q286 573 362 573Q462 573 510 546T558 458Q558 414 531 384T456 342Q478 336 491 323T516 289L546 231Q559 207 566 199T583 189H587ZM348 353T372 353Q418 355 445 382T472 453Q472 542
368 543H337V354Q348 353 372 353Z" />
<glyph unicode="&#xaf;" glyph-name="overscore" horiz-adv-x="600" d="M409 656Q413 638 413 628Q413 619 409 601H133Q129 613 129 628Q129 644 133 656H409Z" />
<glyph unicode="&#xb0;" glyph-name="degree" horiz-adv-x="375" d="M152 455T122 472T73 518T55 583Q55 617 73 646T121 692T188 710Q224 710 254 693T303 646T321 583Q321 548 303 519T255 472T188 455Q152 455 122 472ZM215 512T235 533T255 583Q255 612 235
632T188 653Q160 653 141 633T121 583Q121 554 140 533T188 512Q215 512 235 533Z" />
<glyph unicode="&#xb1;" glyph-name="plusminus" horiz-adv-x="577" d="M90 352Q84 369 84 384Q84 401 90 416H256V533Q273 539 288 539Q305 539 320 533V416H487Q493 401 493 384Q493 369 487 352H320V235Q305 229 288 229Q273 229 256 235V352H90ZM487 182Q493
167 493 150Q493 135 487 118H90Q84 135 84 150Q84 167 90 182H487Z" />
<glyph unicode="&#xb2;" glyph-name="uni00B2" horiz-adv-x="415" d="M37 237T33 247T29 268Q29 277 32 286Q82 318 129 356T223 458T269 596Q269 629 251 653T196 677Q151 677 135 639T116 546Q73 546 55 567T36 614Q36 655 82 682T204 710Q279 710 326 679T373
586Q373 511 321 444T201 333T98 282Q155 284 248 303T374 344Q382 337 387 320T392 284Q392 262 386 247T368 231H43Q37 237 33 247Z" />
<glyph unicode="&#xb3;" glyph-name="uni00B3" horiz-adv-x="424" d="M102 223T65 248T27 301Q27 322 42 339T97 357Q101 315 119 285T193 254Q236 254 262 280T288 351Q288 408 240 434T120 460V494Q195 499 231 532T268 605Q268 640 252 658T201 677Q124 677
122 577Q80 576 66 591T51 624Q51 663 91 686T208 710Q275 710 325 685T376 598Q376 557 341 525T252 478Q396 457 396 362Q396 298 343 261T199 223Q102 223 65 248Z" />
<glyph unicode="&#xb5;" glyph-name="uni00B5" horiz-adv-x="584" d="M567 70T567 50Q567 22 547 5T492 -13Q448 -13 423 17T397 105Q376 47 335 17T232 -14Q202 -14 178 -8V-36Q182 -133 211 -192Q201 -202 184 -210T143 -218Q113 -218 94 -202T75 -157V378Q75
454 57 502Q89 528 125 528Q155 528 174 511T193 465L194 208Q194 119 210 81T272 42Q321 42 352 102T384 278Q384 391 381 429T364 502Q396 528 432 528Q461 528 480 510T500 460L501 128Q501 100 507 88T528 76Q546 76 554 89Q567 70 567 50Z" />
<glyph unicode="&#xb6;" glyph-name="paragraph" horiz-adv-x="774" d="M675 -78T686 -120T716 -166Q708 -180 685 -187T636 -195Q607 -195 583 -168T558 -98V413Q558 529 506 595T356 662Q257 662 213 605T168 469Q168 384 209 340T314 301V406Q314 480 297 529Q326
555 363 555Q390 555 407 539T424 493V136Q424 60 442 13Q433 3 417 -5T381 -14Q352 -14 333 3T314 49V252Q304 251 284 251Q222 251 169 276T83 350T50 468Q50 562 114 636T356 710Q509 710 592 636T675 420V-24Q675 -78 686 -120Z" />
<glyph unicode="&#xb7;" glyph-name="middot" horiz-adv-x="300" d="M121 219T101 239T80 289Q80 318 100 338T150 359Q179 359 199 339T220 289Q220 260 200 240T150 219Q121 219 101 239Z" />
<glyph unicode="&#xb8;" glyph-name="cedilla" horiz-adv-x="600" d="M295 -54Q344 -53 373 -73T402 -128Q402 -170 371 -195T283 -220Q216 -220 187 -187Q185 -178 189 -164T199 -147Q212 -158 223 -164T258 -171Q279 -171 290 -160T301 -129Q301 -110 288 -98T250
-85L237 -86L256 14H307L295 -54Z" />
<glyph unicode="&#xb9;" glyph-name="uni00B9" horiz-adv-x="347" d="M203 225T188 239T173 277V595Q173 613 171 623Q145 594 117 570T71 546Q30 546 30 612Q33 613 141 682Q154 690 161 695T172 702Q190 710 210 710Q235 710 250 696T266 657V340Q266 287 280
247Q258 225 225 225Q203 225 188 239Z" />
<glyph unicode="&#xba;" glyph-name="ordmasculine" horiz-adv-x="397" d="M116 359T71 406T26 539Q26 623 71 670T198 718Q279 718 324 671T370 539Q370 454 325 407T198 359Q116 359 71 406ZM274 391T274 539Q274 685 199 685Q159 685 141 649T122 539Q122 465
141 428T199 391Q274 391 274 539Z" />
<glyph unicode="&#xbb;" glyph-name="guillemotright" horiz-adv-x="720" d="M343 486L696 273Q699 266 699 236Q699 212 696 204L343 7L312 49L580 238V243L312 440L343 486ZM76 486L429 273Q432 266 432 236Q432 212 429 204L76 7L45 49L313 238V243L45 440L76 486Z" />
<glyph unicode="&#xbc;" glyph-name="onequarter" horiz-adv-x="965" d="M203 225T188 239T173 277V595Q173 613 171 623Q145 594 117 570T71 546Q30 546 30 612Q33 613 141 682Q154 690 161 695T172 702Q190 710 210 710Q235 710 250 696T266 657V340Q266 287
280 247Q258 225 225 225Q203 225 188 239ZM588 711T598 711Q638 711 654 684L311 -14Q306 -15 298 -15Q266 -15 244 8L583 710Q588 711 598 711ZM875 107V105Q875 52 888 13Q880 4 866 -3T834 -11Q811 -11 797 3T782 43V107H567Q554 108 546 119T537 143Q537 154
543 163L765 452Q772 461 788 468T819 475Q844 475 859 461T875 422V167Q910 170 943 180Q949 167 949 151Q949 128 937 107H875ZM782 165V392L602 165H782Z" />
<glyph unicode="&#xbd;" glyph-name="onehalf" horiz-adv-x="1001" d="M203 225T188 239T173 277V595Q173 613 171 623Q145 594 117 570T71 546Q30 546 30 612Q33 613 141 682Q154 690 161 695T172 702Q190 710 210 710Q235 710 250 696T266 657V340Q266 287 280
247Q258 225 225 225Q203 225 188 239ZM599 711T609 711Q649 711 665 684L322 -14Q317 -15 309 -15Q277 -15 255 8L594 710Q599 711 609 711ZM619 6T615 16T610 37Q610 46 613 55Q663 87 710 125T804 227T850 365Q850 399 832 423T777 447Q732 447 716 409T697
315Q654 315 636 336T617 383Q617 425 663 452T785 479Q861 479 907 448T954 355Q954 280 902 213T782 102T679 51Q737 53 830 73T955 114Q963 107 968 90T973 53Q973 31 967 16T949 0H625Q619 6 615 16Z" />
<glyph unicode="&#xbe;" glyph-name="threequarters" horiz-adv-x="1040" d="M102 223T65 248T27 301Q27 322 42 339T97 357Q101 315 119 285T193 254Q236 254 262 280T288 351Q288 408 240 434T120 460V494Q195 499 231 532T268 605Q268 640 252 658T201 677Q124
677 122 577Q80 576 66 591T51 624Q51 663 91 686T208 710Q275 710 325 685T376 598Q376 557 341 525T252 478Q396 457 396 362Q396 298 343 261T199 223Q102 223 65 248ZM666 711T676 711Q716 711 732 684L389 -14Q384 -15 376 -15Q344 -15 322 8L661 710Q666
711 676 711ZM954 107V105Q954 52 967 13Q959 4 945 -3T913 -11Q890 -11 876 3T861 43V107H646Q633 108 625 119T616 143Q616 154 622 163L844 452Q851 461 867 468T898 475Q923 475 938 461T954 422V167Q989 170 1022 180Q1028 167 1028 151Q1028 128 1016 107H954ZM861
165V392L681 165H861Z" />
<glyph unicode="&#xbf;" glyph-name="questiondown" horiz-adv-x="500" d="M345 533T365 513T385 463Q385 434 365 414T315 393Q286 393 266 413T246 463Q246 492 266 512T315 533Q345 533 365 513ZM350 168Q300 166 258 146T189 84T163 -15Q163 -81 195 -125T293
-169Q355 -169 380 -124T408 -17Q463 -17 484 -34T505 -80Q505 -116 479 -146T402 -195T284 -213Q173 -213 105 -164T36 -10Q36 61 70 110T156 185T262 215V325H350V168Z" />
<glyph unicode="&#xc0;" glyph-name="Agrave" horiz-adv-x="616" d="M594 33T611 14Q588 -13 541 -13Q512 -13 493 -1T468 34L420 208H186L149 71Q142 47 142 29Q142 9 152 0Q119 -13 86 -13Q51 -13 35 -1T19 38Q19 58 31 101L231 694Q285 711 332 711Q386 711
398 671L581 73Q594 33 611 14ZM401 274L301 638L203 274H401ZM166 844T188 867T227 899L370 771Q370 767 363 757T350 743L159 824Q166 844 188 867Z" />
<glyph unicode="&#xc1;" glyph-name="Aacute" horiz-adv-x="616" d="M594 33T611 14Q588 -13 541 -13Q512 -13 493 -1T468 34L420 208H186L149 71Q142 47 142 29Q142 9 152 0Q119 -13 86 -13Q51 -13 35 -1T19 38Q19 58 31 101L231 694Q285 711 332 711Q386 711
398 671L581 73Q594 33 611 14ZM401 274L301 638L203 274H401ZM274 743Q268 746 261 756T255 771L397 899Q414 891 436 868T466 824L274 743Z" />
<glyph unicode="&#xc2;" glyph-name="Acircumflex" horiz-adv-x="616" d="M594 33T611 14Q588 -13 541 -13Q512 -13 493 -1T468 34L420 208H186L149 71Q142 47 142 29Q142 9 152 0Q119 -13 86 -13Q51 -13 35 -1T19 38Q19 58 31 101L231 694Q285 711 332 711Q386
711 398 671L581 73Q594 33 611 14ZM401 274L301 638L203 274H401ZM476 763Q475 758 467 749T453 736L310 815L166 736Q160 739 153 748T143 763L278 890Q286 894 311 894Q333 894 341 890L476 763Z" />
<glyph unicode="&#xc3;" glyph-name="Atilde" horiz-adv-x="616" d="M594 33T611 14Q588 -13 541 -13Q512 -13 493 -1T468 34L420 208H186L149 71Q142 47 142 29Q142 9 152 0Q119 -13 86 -13Q51 -13 35 -1T19 38Q19 58 31 101L231 694Q285 711 332 711Q386 711
398 671L581 73Q594 33 611 14ZM401 274L301 638L203 274H401ZM460 811T437 784T378 757Q361 757 346 762T308 779Q287 790 273 795T243 800Q218 800 204 790T181 761L177 760Q165 760 153 770Q159 823 185 846T249 870Q266 870 281 865T319 848Q341 837 355 832T387
827Q409 827 419 836T440 865Q451 865 456 864T468 857Q460 811 437 784Z" />
<glyph unicode="&#xc4;" glyph-name="Adieresis" horiz-adv-x="616" d="M594 33T611 14Q588 -13 541 -13Q512 -13 493 -1T468 34L420 208H186L149 71Q142 47 142 29Q142 9 152 0Q119 -13 86 -13Q51 -13 35 -1T19 38Q19 58 31 101L231 694Q285 711 332 711Q386
711 398 671L581 73Q594 33 611 14ZM401 274L301 638L203 274H401ZM184 757T166 775T147 821Q147 848 165 867T211 886Q238 886 257 867T276 821Q276 794 257 776T211 757Q184 757 166 775ZM390 757T371 775T352 821Q352 847 371 866T417 886Q443 886 462 867T481
821Q481 794 462 776T417 757Q390 757 371 775Z" />
<glyph unicode="&#xc5;" glyph-name="Aring" horiz-adv-x="616" d="M594 33T611 14Q588 -13 541 -13Q512 -13 493 -1T468 34L420 208H186L149 71Q142 47 142 29Q142 9 152 0Q119 -13 86 -13Q51 -13 35 -1T19 38Q19 58 31 101L231 694Q285 711 332 711Q386 711
398 671L581 73Q594 33 611 14ZM401 274L301 638L203 274H401ZM360 916T386 893T413 831Q412 791 385 767T313 743Q270 743 244 766T217 827Q217 867 244 891T317 916Q360 916 386 893ZM296 882T286 868T275 829Q275 804 285 790T315 776Q334 776 344 789T355 829Q355
855 345 868T315 882Q296 882 286 868Z" />
<glyph unicode="&#xc6;" glyph-name="AE" horiz-adv-x="862" d="M805 100T811 84T817 49Q817 29 810 15T788 0H470Q440 0 421 16T402 62V208H215L153 71Q146 57 146 29Q146 10 154 0Q138 -6 124 -9T90 -13Q56 -13 38 2T19 45Q19 69 35 101L338 677Q366 685 416
690T503 696H785Q794 696 799 687T804 663Q804 642 795 620T772 591Q654 634 521 637V395H744Q748 382 748 364Q748 349 744 329H522V59Q587 60 666 74T795 107Q805 100 811 84ZM402 274L401 545Q401 585 397 608L245 274H402Z" />
<glyph unicode="&#xc7;" glyph-name="Ccedilla" horiz-adv-x="611" d="M572 83T539 52T451 4T336 -14L329 -54Q378 -53 407 -73T436 -128Q436 -170 405 -195T317 -220Q250 -220 221 -187Q219 -178 223 -164T233 -147Q246 -158 257 -164T292 -171Q313 -171 324
-160T335 -129Q335 -110 322 -98T284 -85L271 -86L285 -11Q173 4 112 97T51 348Q51 521 126 615T336 710Q391 710 441 696T523 656T554 596Q554 568 529 547T458 527Q442 666 338 666Q260 666 222 587T183 348Q183 188 220 109T335 30Q389 30 425 69T471 184Q477
185 490 185Q524 185 548 169T572 124Q572 83 539 52Z" />
<glyph unicode="&#xc8;" glyph-name="Egrave" horiz-adv-x="549" d="M491 100T497 84T503 49Q503 29 496 15T474 0H156Q126 0 107 16T88 62L87 545Q87 617 70 666Q91 685 113 690T177 696H471Q490 696 490 664Q490 642 481 620T458 591Q338 634 207 637V395H430Q434
380 434 362Q434 342 430 329H208V59Q273 60 352 75T481 107Q491 100 497 84ZM132 844T154 867T193 899L336 771Q336 767 329 757T316 743L125 824Q132 844 154 867Z" />
<glyph unicode="&#xc9;" glyph-name="Eacute" horiz-adv-x="549" d="M491 100T497 84T503 49Q503 29 496 15T474 0H156Q126 0 107 16T88 62L87 545Q87 617 70 666Q91 685 113 690T177 696H471Q490 696 490 664Q490 642 481 620T458 591Q338 634 207 637V395H430Q434
380 434 362Q434 342 430 329H208V59Q273 60 352 75T481 107Q491 100 497 84ZM240 743Q234 746 227 756T221 771L363 899Q380 891 402 868T432 824L240 743Z" />
<glyph unicode="&#xca;" glyph-name="Ecircumflex" horiz-adv-x="549" d="M491 100T497 84T503 49Q503 29 496 15T474 0H156Q126 0 107 16T88 62L87 545Q87 617 70 666Q91 685 113 690T177 696H471Q490 696 490 664Q490 642 481 620T458 591Q338 634 207 637V395H430Q434
380 434 362Q434 342 430 329H208V59Q273 60 352 75T481 107Q491 100 497 84ZM442 763Q441 758 433 749T419 736L276 815L132 736Q126 739 119 748T109 763L244 890Q252 894 277 894Q299 894 307 890L442 763Z" />
<glyph unicode="&#xcb;" glyph-name="Edieresis" horiz-adv-x="549" d="M491 100T497 84T503 49Q503 29 496 15T474 0H156Q126 0 107 16T88 62L87 545Q87 617 70 666Q91 685 113 690T177 696H471Q490 696 490 664Q490 642 481 620T458 591Q338 634 207 637V395H430Q434
380 434 362Q434 342 430 329H208V59Q273 60 352 75T481 107Q491 100 497 84ZM150 757T132 775T113 821Q113 848 131 867T177 886Q204 886 223 867T242 821Q242 794 223 776T177 757Q150 757 132 775ZM356 757T337 775T318 821Q318 847 337 866T383 886Q409 886
428 867T447 821Q447 794 428 776T383 757Q356 757 337 775Z" />
<glyph unicode="&#xcc;" glyph-name="Igrave" horiz-adv-x="295" d="M126 -14T107 3T88 49L87 560Q87 633 70 682Q80 692 98 700T139 708Q169 708 188 692T208 647V136Q208 57 225 13Q215 3 197 -5T156 -14Q126 -14 107 3ZM-12 844T10 867T49 899L192 771Q192
767 185 757T172 743L-19 824Q-12 844 10 867Z" />
<glyph unicode="&#xcd;" glyph-name="Iacute" horiz-adv-x="295" d="M126 -14T107 3T88 49L87 560Q87 633 70 682Q80 692 98 700T139 708Q169 708 188 692T208 647V136Q208 57 225 13Q215 3 197 -5T156 -14Q126 -14 107 3ZM96 743Q90 746 83 756T77 771L219 899Q236
891 258 868T288 824L96 743Z" />
<glyph unicode="&#xce;" glyph-name="Icircumflex" horiz-adv-x="295" d="M126 -14T107 3T88 49L87 560Q87 633 70 682Q80 692 98 700T139 708Q169 708 188 692T208 647V136Q208 57 225 13Q215 3 197 -5T156 -14Q126 -14 107 3ZM298 763Q297 758 289 749T275 736L132
815L-12 736Q-18 739 -25 748T-35 763L100 890Q108 894 133 894Q155 894 163 890L298 763Z" />
<glyph unicode="&#xcf;" glyph-name="Idieresis" horiz-adv-x="295" d="M126 -14T107 3T88 49L87 560Q87 633 70 682Q80 692 98 700T139 708Q169 708 188 692T208 647V136Q208 57 225 13Q215 3 197 -5T156 -14Q126 -14 107 3ZM6 757T-12 775T-31 821Q-31 848 -13
867T33 886Q60 886 79 867T98 821Q98 794 79 776T33 757Q6 757 -12 775ZM212 757T193 775T174 821Q174 847 193 866T239 886Q265 886 284 867T303 821Q303 794 284 776T239 757Q212 757 193 775Z" />
<glyph unicode="&#xd0;" glyph-name="Eth" horiz-adv-x="651" d="M438 707T518 619T599 356Q599 174 521 87T295 0H153Q121 0 102 16T83 62L82 326H22Q18 337 18 350Q18 362 22 373H82V560Q82 566 82 596T79 653T70 698Q139 707 288 707Q438 707 518 619ZM381
44T423 114T466 348Q466 511 423 586T288 662H203V373H336Q339 361 339 350Q339 338 336 326H203V44H288Q381 44 423 114Z" />
<glyph unicode="&#xd1;" glyph-name="Ntilde" horiz-adv-x="697" d="M95 -14T70 2Q88 50 88 136L87 559Q87 641 80 693Q86 700 102 704T135 708Q158 708 165 701Q209 638 296 522Q395 390 458 300T547 157L517 616Q516 621 516 631Q516 663 530 683T570 706Q599
708 620 695Q610 660 610 583L609 133Q609 46 615 2Q609 -5 594 -9T564 -13Q545 -13 534 -7Q277 295 155 520L180 56Q182 26 163 6T120 -14Q95 -14 70 2ZM496 811T473 784T414 757Q397 757 382 762T344 779Q323 790 309 795T279 800Q254 800 240 790T217 761L213
760Q201 760 189 770Q195 823 221 846T285 870Q302 870 317 865T355 848Q377 837 391 832T423 827Q445 827 455 836T476 865Q487 865 492 864T504 857Q496 811 473 784Z" />
<glyph unicode="&#xd2;" glyph-name="Ograve" horiz-adv-x="661" d="M193 -14T122 77T51 348Q51 528 122 619T331 710Q468 710 539 619T610 348Q610 168 539 77T331 -14Q193 -14 122 77ZM407 30T442 106T478 348Q478 513 443 589T331 666Q255 666 219 590T183
348Q183 183 219 107T331 30Q407 30 442 106ZM183 844T205 867T244 899L387 771Q387 767 380 757T367 743L176 824Q183 844 205 867Z" />
<glyph unicode="&#xd3;" glyph-name="Oacute" horiz-adv-x="661" d="M193 -14T122 77T51 348Q51 528 122 619T331 710Q468 710 539 619T610 348Q610 168 539 77T331 -14Q193 -14 122 77ZM407 30T442 106T478 348Q478 513 443 589T331 666Q255 666 219 590T183
348Q183 183 219 107T331 30Q407 30 442 106ZM291 743Q285 746 278 756T272 771L414 899Q431 891 453 868T483 824L291 743Z" />
<glyph unicode="&#xd4;" glyph-name="Ocircumflex" horiz-adv-x="661" d="M193 -14T122 77T51 348Q51 528 122 619T331 710Q468 710 539 619T610 348Q610 168 539 77T331 -14Q193 -14 122 77ZM407 30T442 106T478 348Q478 513 443 589T331 666Q255 666 219 590T183
348Q183 183 219 107T331 30Q407 30 442 106ZM493 763Q492 758 484 749T470 736L327 815L183 736Q177 739 170 748T160 763L295 890Q303 894 328 894Q350 894 358 890L493 763Z" />
<glyph unicode="&#xd5;" glyph-name="Otilde" horiz-adv-x="661" d="M193 -14T122 77T51 348Q51 528 122 619T331 710Q468 710 539 619T610 348Q610 168 539 77T331 -14Q193 -14 122 77ZM407 30T442 106T478 348Q478 513 443 589T331 666Q255 666 219 590T183
348Q183 183 219 107T331 30Q407 30 442 106ZM478 811T455 784T396 757Q379 757 364 762T326 779Q305 790 291 795T261 800Q236 800 222 790T199 761L195 760Q183 760 171 770Q177 823 203 846T267 870Q284 870 299 865T337 848Q359 837 373 832T405 827Q427 827
437 836T458 865Q469 865 474 864T486 857Q478 811 455 784Z" />
<glyph unicode="&#xd6;" glyph-name="Odieresis" horiz-adv-x="661" d="M193 -14T122 77T51 348Q51 528 122 619T331 710Q468 710 539 619T610 348Q610 168 539 77T331 -14Q193 -14 122 77ZM407 30T442 106T478 348Q478 513 443 589T331 666Q255 666 219 590T183
348Q183 183 219 107T331 30Q407 30 442 106ZM201 757T183 775T164 821Q164 848 182 867T228 886Q255 886 274 867T293 821Q293 794 274 776T228 757Q201 757 183 775ZM407 757T388 775T369 821Q369 847 388 866T434 886Q460 886 479 867T498 821Q498 794 479 776T434
757Q407 757 388 775Z" />
<glyph unicode="&#xd7;" glyph-name="multiply" horiz-adv-x="500" d="M295 348L427 215Q414 184 383 169L250 302L117 169Q87 184 73 215L205 347L73 479Q86 509 118 525L250 392L383 525Q414 510 427 480L295 348Z" />
<glyph unicode="&#xd8;" glyph-name="Oslash" horiz-adv-x="654" d="M610 556T610 348Q610 168 539 77T331 -14Q224 -14 156 42L122 -15Q97 -15 83 8L123 75Q51 168 51 348Q51 528 122 619T331 710Q419 710 480 673L512 726Q538 727 551 703L516 645Q610 556 610
348ZM183 260T194 194L437 600Q402 666 331 666Q255 666 219 590T183 348Q183 260 194 194ZM407 30T442 106T478 348Q478 470 458 547L209 131Q244 30 331 30Q407 30 442 106Z" />
<glyph unicode="&#xd9;" glyph-name="Ugrave" horiz-adv-x="670" d="M593 306Q593 -14 335 -14Q209 -14 147 64T84 306V560Q84 634 66 682Q77 692 95 700T135 708Q164 708 183 692T203 647V301Q203 159 234 95T335 30Q406 30 440 98T474 301V560Q474 637 457 682Q467
692 484 700T525 708Q554 708 573 692T593 647V306ZM188 844T210 867T249 899L392 771Q392 767 385 757T372 743L181 824Q188 844 210 867Z" />
<glyph unicode="&#xda;" glyph-name="Uacute" horiz-adv-x="670" d="M593 306Q593 -14 335 -14Q209 -14 147 64T84 306V560Q84 634 66 682Q77 692 95 700T135 708Q164 708 183 692T203 647V301Q203 159 234 95T335 30Q406 30 440 98T474 301V560Q474 637 457 682Q467
692 484 700T525 708Q554 708 573 692T593 647V306ZM296 743Q290 746 283 756T277 771L419 899Q436 891 458 868T488 824L296 743Z" />
<glyph unicode="&#xdb;" glyph-name="Ucircumflex" horiz-adv-x="670" d="M593 306Q593 -14 335 -14Q209 -14 147 64T84 306V560Q84 634 66 682Q77 692 95 700T135 708Q164 708 183 692T203 647V301Q203 159 234 95T335 30Q406 30 440 98T474 301V560Q474 637
457 682Q467 692 484 700T525 708Q554 708 573 692T593 647V306ZM498 763Q497 758 489 749T475 736L332 815L188 736Q182 739 175 748T165 763L300 890Q308 894 333 894Q355 894 363 890L498 763Z" />
<glyph unicode="&#xdc;" glyph-name="Udieresis" horiz-adv-x="670" d="M593 306Q593 -14 335 -14Q209 -14 147 64T84 306V560Q84 634 66 682Q77 692 95 700T135 708Q164 708 183 692T203 647V301Q203 159 234 95T335 30Q406 30 440 98T474 301V560Q474 637 457
682Q467 692 484 700T525 708Q554 708 573 692T593 647V306ZM206 757T188 775T169 821Q169 848 187 867T233 886Q260 886 279 867T298 821Q298 794 279 776T233 757Q206 757 188 775ZM412 757T393 775T374 821Q374 847 393 866T439 886Q465 886 484 867T503 821Q503
794 484 776T439 757Q412 757 393 775Z" />
<glyph unicode="&#xdd;" glyph-name="Yacute" horiz-adv-x="584" d="M352 259V136Q352 60 370 13Q360 3 342 -5T301 -14Q271 -14 252 3T232 49V260Q224 270 213 292L53 607Q32 644 7 669Q20 683 42 695T92 707Q125 707 142 691T176 640L315 338L444 620Q454 644
454 662Q454 681 442 695Q473 707 510 707Q537 707 551 692T566 654Q566 627 538 580L352 259ZM273 743Q267 746 260 756T254 771L396 899Q413 891 435 868T465 824L273 743Z" />
<glyph unicode="&#xde;" glyph-name="Thorn" horiz-adv-x="577" d="M390 580T464 531T539 374Q539 262 460 202T232 142H208V136Q208 57 225 13Q215 3 197 -5T156 -14Q126 -14 107 3T88 49L87 560Q87 633 70 682Q80 692 98 700T139 708Q169 708 188 692T207 647V580H241Q390
580 464 531ZM324 185T365 232T407 366Q407 448 369 492T242 536H207L208 185H229Q324 185 365 232Z" />
<glyph unicode="&#xdf;" glyph-name="germandbls" horiz-adv-x="612" d="M110 -10T91 8T71 58V409Q70 573 134 652T321 732Q412 732 459 692T507 586Q507 542 490 513T439 449Q416 425 406 411T396 379Q396 357 413 341T468 300L487 288Q533 259 559 227T585 144Q585
78 539 33T397 -12Q322 -12 285 17T247 97Q247 120 257 138T295 158H301Q310 158 314 157Q311 141 311 121Q311 84 331 63T386 42Q421 42 441 63T462 118Q462 153 443 173T386 216Q349 237 328 253T294 292T280 348Q280 393 301 422T364 485Q400 515 417 538T435
592Q435 633 406 661T322 690Q262 690 233 655T196 566T188 432V292Q188 175 189 130T194 63T208 16Q198 7 179 -1T138 -10Q110 -10 91 8Z" />
<glyph unicode="&#xe0;" glyph-name="agrave" horiz-adv-x="562" d="M555 75T555 55Q555 27 531 9T468 -10Q420 -10 394 22T365 128Q336 65 285 28T167 -10Q109 -10 74 21T38 107Q38 171 86 212T210 274Q277 293 358 293V319Q358 404 336 445T261 486Q226 486
204 468T182 409Q182 386 190 366T219 336Q209 325 192 320T154 314Q112 314 87 340T61 405Q61 464 116 496T268 528Q378 528 429 477T480 311V132Q480 79 514 79Q521 79 529 82T542 94Q555 75 555 55ZM252 68T285 93T340 160T362 253Q282 255 235 232Q204 217
186 192T168 135Q168 106 181 87T221 68Q252 68 285 93ZM125 718T163 727T222 733L312 577Q307 574 294 572T268 569L115 710Q125 718 163 727Z" />
<glyph unicode="&#xe1;" glyph-name="aacute" horiz-adv-x="562" d="M555 75T555 55Q555 27 531 9T468 -10Q420 -10 394 22T365 128Q336 65 285 28T167 -10Q109 -10 74 21T38 107Q38 171 86 212T210 274Q277 293 358 293V319Q358 404 336 445T261 486Q226 486
204 468T182 409Q182 386 190 366T219 336Q209 325 192 320T154 314Q112 314 87 340T61 405Q61 464 116 496T268 528Q378 528 429 477T480 311V132Q480 79 514 79Q521 79 529 82T542 94Q555 75 555 55ZM252 68T285 93T340 160T362 253Q282 255 235 232Q204 217
186 192T168 135Q168 106 181 87T221 68Q252 68 285 93ZM277 569Q265 569 252 571T233 577L323 733Q344 736 382 727T430 710L277 569Z" />
<glyph unicode="&#xe2;" glyph-name="acircumflex" horiz-adv-x="562" d="M555 75T555 55Q555 27 531 9T468 -10Q420 -10 394 22T365 128Q336 65 285 28T167 -10Q109 -10 74 21T38 107Q38 171 86 212T210 274Q277 293 358 293V319Q358 404 336 445T261 486Q226
486 204 468T182 409Q182 386 190 366T219 336Q209 325 192 320T154 314Q112 314 87 340T61 405Q61 464 116 496T268 528Q378 528 429 477T480 311V132Q480 79 514 79Q521 79 529 82T542 94Q555 75 555 55ZM252 68T285 93T340 160T362 253Q282 255 235 232Q204
217 186 192T168 135Q168 106 181 87T221 68Q252 68 285 93ZM136 566T123 571T108 580L235 732Q243 736 268 736Q290 736 298 732L425 580Q424 576 410 571T387 566L267 650L144 566Q136 566 123 571Z" />
<glyph unicode="&#xe3;" glyph-name="atilde" horiz-adv-x="562" d="M555 75T555 55Q555 27 531 9T468 -10Q420 -10 394 22T365 128Q336 65 285 28T167 -10Q109 -10 74 21T38 107Q38 171 86 212T210 274Q277 293 358 293V319Q358 404 336 445T261 486Q226 486
204 468T182 409Q182 386 190 366T219 336Q209 325 192 320T154 314Q112 314 87 340T61 405Q61 464 116 496T268 528Q378 528 429 477T480 311V132Q480 79 514 79Q521 79 529 82T542 94Q555 75 555 55ZM252 68T285 93T340 160T362 253Q282 255 235 232Q204 217
186 192T168 135Q168 106 181 87T221 68Q252 68 285 93ZM410 634T388 607T331 580Q315 580 301 586T267 603Q249 614 235 619T206 625Q163 625 146 585H144Q139 585 132 587T120 594Q125 645 150 668T211 692Q228 692 243 686T277 668Q298 657 311 652T339 646Q361
646 372 656T391 687Q400 687 405 686T416 679Q410 634 388 607Z" />
<glyph unicode="&#xe4;" glyph-name="adieresis" horiz-adv-x="562" d="M555 75T555 55Q555 27 531 9T468 -10Q420 -10 394 22T365 128Q336 65 285 28T167 -10Q109 -10 74 21T38 107Q38 171 86 212T210 274Q277 293 358 293V319Q358 404 336 445T261 486Q226 486
204 468T182 409Q182 386 190 366T219 336Q209 325 192 320T154 314Q112 314 87 340T61 405Q61 464 116 496T268 528Q378 528 429 477T480 311V132Q480 79 514 79Q521 79 529 82T542 94Q555 75 555 55ZM252 68T285 93T340 160T362 253Q282 255 235 232Q204 217
186 192T168 135Q168 106 181 87T221 68Q252 68 285 93ZM155 585T138 602T121 642Q121 666 138 682T179 699Q202 699 219 683T236 642Q236 619 219 602T179 585Q155 585 138 602ZM341 585T324 602T307 642Q307 666 324 682T364 699Q388 699 405 683T422 642Q422
619 405 602T364 585Q341 585 324 602Z" />
<glyph unicode="&#xe5;" glyph-name="aring" horiz-adv-x="562" d="M555 75T555 55Q555 27 531 9T468 -10Q420 -10 394 22T365 128Q336 65 285 28T167 -10Q109 -10 74 21T38 107Q38 171 86 212T210 274Q277 293 358 293V319Q358 404 336 445T261 486Q226 486 204
468T182 409Q182 386 190 366T219 336Q209 325 192 320T154 314Q112 314 87 340T61 405Q61 464 116 496T268 528Q378 528 429 477T480 311V132Q480 79 514 79Q521 79 529 82T542 94Q555 75 555 55ZM252 68T285 93T340 160T362 253Q282 255 235 232Q204 217 186
192T168 135Q168 106 181 87T221 68Q252 68 285 93ZM317 733T343 710T370 648Q369 608 342 584T270 560Q227 560 201 583T174 644Q174 684 201 708T274 733Q317 733 343 710ZM253 699T243 685T232 646Q232 621 242 607T272 593Q291 593 301 606T312 646Q312 672
302 685T272 699Q253 699 243 685Z" />
<glyph unicode="&#xe6;" glyph-name="ae" horiz-adv-x="850" d="M807 133T807 116Q807 106 799 85Q780 38 731 12T613 -14Q524 -14 463 29T379 153Q350 79 296 35T167 -10Q109 -10 74 21T38 107Q38 171 86 212T210 274Q277 293 362 293V319Q362 404 340 445T264
486Q227 486 205 468T182 409Q182 386 190 366T219 336Q209 325 192 320T154 314Q112 314 87 340T61 405Q61 464 117 496T272 528Q381 528 430 457Q496 528 615 528Q702 528 757 489T813 378Q813 305 754 266T594 226Q537 226 493 231Q500 140 539 101T645 61Q698
61 736 82T791 141Q807 133 807 116ZM554 485T523 429T491 273Q519 271 536 271Q601 271 643 297T686 397Q686 445 665 465T610 485Q554 485 523 429ZM252 68T285 93T342 160T365 253Q282 255 235 232Q204 217 186 192T168 135Q168 106 181 87T221 68Q252 68 285
93Z" />
<glyph unicode="&#xe7;" glyph-name="ccedilla" horiz-adv-x="511" d="M474 149T474 125Q474 113 470 98Q456 48 411 19T299 -14L292 -54Q341 -53 370 -73T399 -128Q399 -170 368 -195T280 -220Q213 -220 184 -187Q182 -178 186 -164T196 -147Q209 -158 220 -164T255
-171Q276 -171 287 -160T298 -129Q298 -110 285 -98T247 -85L234 -86L248 -12Q146 -1 92 68T37 257Q37 384 103 456T289 528Q376 528 422 492T469 400Q469 362 445 339T384 315Q365 315 348 320T321 337Q350 359 350 410Q350 449 331 467T279 485Q226 485 195 430T164
276Q164 165 204 113T319 61Q372 61 409 87T457 156Q474 149 474 125Z" />
<glyph unicode="&#xe8;" glyph-name="egrave" horiz-adv-x="522" d="M479 134T479 115Q479 103 472 85Q453 38 404 12T285 -14Q170 -14 104 57T37 257Q37 384 102 456T288 528Q375 528 430 489T486 378Q486 305 427 266T267 226Q210 226 166 231Q173 140 212 101T318
61Q371 61 409 83T463 141Q479 134 479 115ZM227 485T196 429T164 273Q192 271 208 271Q274 271 316 297T358 397Q358 485 283 485Q227 485 196 429ZM126 718T164 727T223 733L313 577Q308 574 295 572T269 569L116 710Q126 718 164 727Z" />
<glyph unicode="&#xe9;" glyph-name="eacute" horiz-adv-x="522" d="M479 134T479 115Q479 103 472 85Q453 38 404 12T285 -14Q170 -14 104 57T37 257Q37 384 102 456T288 528Q375 528 430 489T486 378Q486 305 427 266T267 226Q210 226 166 231Q173 140 212 101T318
61Q371 61 409 83T463 141Q479 134 479 115ZM227 485T196 429T164 273Q192 271 208 271Q274 271 316 297T358 397Q358 485 283 485Q227 485 196 429ZM278 569Q266 569 253 571T234 577L324 733Q345 736 383 727T431 710L278 569Z" />
<glyph unicode="&#xea;" glyph-name="ecircumflex" horiz-adv-x="522" d="M479 134T479 115Q479 103 472 85Q453 38 404 12T285 -14Q170 -14 104 57T37 257Q37 384 102 456T288 528Q375 528 430 489T486 378Q486 305 427 266T267 226Q210 226 166 231Q173 140
212 101T318 61Q371 61 409 83T463 141Q479 134 479 115ZM227 485T196 429T164 273Q192 271 208 271Q274 271 316 297T358 397Q358 485 283 485Q227 485 196 429ZM137 566T124 571T109 580L236 732Q244 736 269 736Q291 736 299 732L426 580Q425 576 411 571T388
566L268 650L145 566Q137 566 124 571Z" />
<glyph unicode="&#xeb;" glyph-name="edieresis" horiz-adv-x="522" d="M479 134T479 115Q479 103 472 85Q453 38 404 12T285 -14Q170 -14 104 57T37 257Q37 384 102 456T288 528Q375 528 430 489T486 378Q486 305 427 266T267 226Q210 226 166 231Q173 140 212
101T318 61Q371 61 409 83T463 141Q479 134 479 115ZM227 485T196 429T164 273Q192 271 208 271Q274 271 316 297T358 397Q358 485 283 485Q227 485 196 429ZM156 585T139 602T122 642Q122 666 139 682T180 699Q203 699 220 683T237 642Q237 619 220 602T180 585Q156
585 139 602ZM342 585T325 602T308 642Q308 666 325 682T365 699Q389 699 406 683T423 642Q423 619 406 602T365 585Q342 585 325 602Z" />
<glyph unicode="&#xec;" glyph-name="igrave" horiz-adv-x="262" d="M192 57T210 13Q180 -14 141 -14Q113 -14 94 3T75 49V379Q75 454 57 502Q89 528 124 528Q154 528 172 512T191 466L192 136Q192 57 210 13ZM-23 718T15 727T74 733L164 577Q159 574 146 572T120
569L-33 710Q-23 718 15 727Z" />
<glyph unicode="&#xed;" glyph-name="iacute" horiz-adv-x="262" d="M192 57T210 13Q180 -14 141 -14Q113 -14 94 3T75 49V379Q75 454 57 502Q89 528 124 528Q154 528 172 512T191 466L192 136Q192 57 210 13ZM130 569Q118 569 105 571T86 577L176 733Q197 736
235 727T283 710L130 569Z" />
<glyph unicode="&#xee;" glyph-name="icircumflex" horiz-adv-x="262" d="M192 57T210 13Q180 -14 141 -14Q113 -14 94 3T75 49V379Q75 454 57 502Q89 528 124 528Q154 528 172 512T191 466L192 136Q192 57 210 13ZM-11 566T-24 571T-39 580L88 732Q96 736 121
736Q143 736 151 732L278 580Q277 576 263 571T240 566L120 650L-3 566Q-11 566 -24 571Z" />
<glyph unicode="&#xef;" glyph-name="idieresis" horiz-adv-x="262" d="M192 57T210 13Q180 -14 141 -14Q113 -14 94 3T75 49V379Q75 454 57 502Q89 528 124 528Q154 528 172 512T191 466L192 136Q192 57 210 13ZM8 585T-9 602T-26 642Q-26 666 -9 682T32 699Q55
699 72 683T89 642Q89 619 72 602T32 585Q8 585 -9 602ZM194 585T177 602T160 642Q160 666 177 682T217 699Q241 699 258 683T275 642Q275 619 258 602T217 585Q194 585 177 602Z" />
<glyph unicode="&#xf0;" glyph-name="eth" horiz-adv-x="540" d="M450 583T476 492T502 292Q502 155 441 71T259 -14Q137 -14 87 55T37 241Q37 360 93 432T249 504Q292 504 323 491T375 455Q362 529 306 587L236 546Q215 559 212 585L268 618Q243 637 216 647T164
657Q150 657 142 655Q149 733 220 733Q304 733 368 677L440 720Q464 710 464 680L401 643Q450 583 476 492ZM322 52T348 106T374 275Q374 353 353 398T278 443Q220 443 192 390T164 247Q164 149 186 101T265 52Q322 52 348 106Z" />
<glyph unicode="&#xf1;" glyph-name="ntilde" horiz-adv-x="583" d="M520 53T536 13Q505 -14 467 -14Q437 -14 418 3T399 49V307Q398 389 381 428T317 467Q267 467 234 409T201 237Q201 123 204 85T221 12Q210 2 193 -6T154 -14Q123 -14 104 4T84 54V386Q83 414
77 426T57 438Q38 438 31 425Q19 445 19 465Q19 493 38 510T93 527Q138 527 162 498T188 408Q209 466 251 497T356 528Q438 528 477 477T517 325V136Q520 53 536 13ZM447 634T425 607T368 580Q352 580 338 586T304 603Q286 614 272 619T243 625Q200 625 183 585H181Q176
585 169 587T157 594Q162 645 187 668T248 692Q265 692 280 686T314 668Q335 657 348 652T376 646Q398 646 409 656T428 687Q437 687 442 686T453 679Q447 634 425 607Z" />
<glyph unicode="&#xf2;" glyph-name="ograve" horiz-adv-x="557" d="M164 -14T101 57T37 257Q37 385 100 456T279 528Q393 528 456 457T520 257Q520 129 457 58T279 -14Q164 -14 101 57ZM392 29T392 257Q392 485 279 485Q164 485 164 257Q164 29 279 29Q392 29
392 257ZM133 718T171 727T230 733L320 577Q315 574 302 572T276 569L123 710Q133 718 171 727Z" />
<glyph unicode="&#xf3;" glyph-name="oacute" horiz-adv-x="557" d="M164 -14T101 57T37 257Q37 385 100 456T279 528Q393 528 456 457T520 257Q520 129 457 58T279 -14Q164 -14 101 57ZM392 29T392 257Q392 485 279 485Q164 485 164 257Q164 29 279 29Q392 29
392 257ZM285 569Q273 569 260 571T241 577L331 733Q352 736 390 727T438 710L285 569Z" />
<glyph unicode="&#xf4;" glyph-name="ocircumflex" horiz-adv-x="557" d="M164 -14T101 57T37 257Q37 385 100 456T279 528Q393 528 456 457T520 257Q520 129 457 58T279 -14Q164 -14 101 57ZM392 29T392 257Q392 485 279 485Q164 485 164 257Q164 29 279 29Q392
29 392 257ZM144 566T131 571T116 580L243 732Q251 736 276 736Q298 736 306 732L433 580Q432 576 418 571T395 566L275 650L152 566Q144 566 131 571Z" />
<glyph unicode="&#xf5;" glyph-name="otilde" horiz-adv-x="557" d="M164 -14T101 57T37 257Q37 385 100 456T279 528Q393 528 456 457T520 257Q520 129 457 58T279 -14Q164 -14 101 57ZM392 29T392 257Q392 485 279 485Q164 485 164 257Q164 29 279 29Q392 29
392 257ZM418 634T396 607T339 580Q323 580 309 586T275 603Q257 614 243 619T214 625Q171 625 154 585H152Q147 585 140 587T128 594Q133 645 158 668T219 692Q236 692 251 686T285 668Q306 657 319 652T347 646Q369 646 380 656T399 687Q408 687 413 686T424
679Q418 634 396 607Z" />
<glyph unicode="&#xf6;" glyph-name="odieresis" horiz-adv-x="557" d="M164 -14T101 57T37 257Q37 385 100 456T279 528Q393 528 456 457T520 257Q520 129 457 58T279 -14Q164 -14 101 57ZM392 29T392 257Q392 485 279 485Q164 485 164 257Q164 29 279 29Q392
29 392 257ZM163 585T146 602T129 642Q129 666 146 682T187 699Q210 699 227 683T244 642Q244 619 227 602T187 585Q163 585 146 602ZM349 585T332 602T315 642Q315 666 332 682T372 699Q396 699 413 683T430 642Q430 619 413 602T372 585Q349 585 332 602Z" />
<glyph unicode="&#xf7;" glyph-name="divide" horiz-adv-x="544" d="M252 466T238 480T224 514Q224 535 238 549T272 563Q293 563 307 549T321 514Q321 494 307 480T272 466Q252 466 238 480ZM471 380Q477 364 477 347Q477 332 471 315H73Q67 332 67 347Q67 364
73 380H471ZM252 131T238 145T224 180Q224 200 238 214T272 229Q293 229 307 215T321 180Q321 159 307 145T272 131Q252 131 238 145Z" />
<glyph unicode="&#xf8;" glyph-name="oslash" horiz-adv-x="557" d="M481 434T500 380T520 257Q520 129 457 58T279 -14Q210 -14 157 14L134 -22Q104 -20 94 1L119 40Q79 75 58 130T37 257Q37 385 100 456T279 528Q352 528 406 497L424 525Q450 525 464 502L444
470Q481 434 500 380ZM164 181T177 132L363 429Q336 485 279 485Q164 485 164 257Q164 181 177 132ZM392 29T392 257Q392 326 382 372L197 78Q226 29 279 29Q392 29 392 257Z" />
<glyph unicode="&#xf9;" glyph-name="ugrave" horiz-adv-x="578" d="M561 70T561 50Q561 22 542 5T487 -13Q441 -13 417 17T392 107Q350 -14 227 -14Q145 -14 108 33T69 190V378Q69 453 52 502Q82 528 120 528Q150 528 169 511T188 465V208Q188 120 205 81T266
42Q315 42 346 102T378 278Q378 391 375 429T359 502Q388 528 427 528Q456 528 475 510T495 460L496 128Q496 100 502 88T522 76Q541 76 549 89Q561 70 561 50ZM126 718T164 727T223 733L313 577Q308 574 295 572T269 569L116 710Q126 718 164 727Z" />
<glyph unicode="&#xfa;" glyph-name="uacute" horiz-adv-x="578" d="M561 70T561 50Q561 22 542 5T487 -13Q441 -13 417 17T392 107Q350 -14 227 -14Q145 -14 108 33T69 190V378Q69 453 52 502Q82 528 120 528Q150 528 169 511T188 465V208Q188 120 205 81T266
42Q315 42 346 102T378 278Q378 391 375 429T359 502Q388 528 427 528Q456 528 475 510T495 460L496 128Q496 100 502 88T522 76Q541 76 549 89Q561 70 561 50ZM278 569Q266 569 253 571T234 577L324 733Q345 736 383 727T431 710L278 569Z" />
<glyph unicode="&#xfb;" glyph-name="ucircumflex" horiz-adv-x="578" d="M561 70T561 50Q561 22 542 5T487 -13Q441 -13 417 17T392 107Q350 -14 227 -14Q145 -14 108 33T69 190V378Q69 453 52 502Q82 528 120 528Q150 528 169 511T188 465V208Q188 120 205 81T266
42Q315 42 346 102T378 278Q378 391 375 429T359 502Q388 528 427 528Q456 528 475 510T495 460L496 128Q496 100 502 88T522 76Q541 76 549 89Q561 70 561 50ZM137 566T124 571T109 580L236 732Q244 736 269 736Q291 736 299 732L426 580Q425 576 411 571T388
566L268 650L145 566Q137 566 124 571Z" />
<glyph unicode="&#xfc;" glyph-name="udieresis" horiz-adv-x="578" d="M561 70T561 50Q561 22 542 5T487 -13Q441 -13 417 17T392 107Q350 -14 227 -14Q145 -14 108 33T69 190V378Q69 453 52 502Q82 528 120 528Q150 528 169 511T188 465V208Q188 120 205 81T266
42Q315 42 346 102T378 278Q378 391 375 429T359 502Q388 528 427 528Q456 528 475 510T495 460L496 128Q496 100 502 88T522 76Q541 76 549 89Q561 70 561 50ZM156 585T139 602T122 642Q122 666 139 682T180 699Q203 699 220 683T237 642Q237 619 220 602T180
585Q156 585 139 602ZM342 585T325 602T308 642Q308 666 325 682T365 699Q389 699 406 683T423 642Q423 619 406 602T365 585Q342 585 325 602Z" />
<glyph unicode="&#xfd;" glyph-name="yacute" horiz-adv-x="555" d="M496 52Q496 -96 429 -161T243 -227Q162 -227 110 -203T58 -121Q58 -90 81 -70T141 -50Q180 -50 195 -70Q182 -79 175 -93T168 -120Q168 -151 189 -169T245 -188Q314 -188 349 -129T385 37Q385
65 392 117Q349 -8 224 -8Q146 -8 108 39T69 196V378Q69 453 52 502Q82 528 120 528Q150 528 169 511T188 465V214Q188 128 204 89T263 50Q314 50 346 108T378 280Q378 392 375 429T359 502Q388 528 427 528Q456 528 475 510T495 460L496 52ZM287 569Q275 569 262
571T243 577L333 733Q354 736 392 727T440 710L287 569Z" />
<glyph unicode="&#xfe;" glyph-name="thorn" horiz-adv-x="565" d="M444 528T485 457T527 277Q527 138 470 63T313 -13Q267 -13 235 3T188 51V-15Q188 -124 207 -192Q197 -202 180 -210T139 -218Q109 -218 90 -202T71 -157V670Q71 699 85 714T124 731Q148 734
169 726T205 706Q193 667 189 618T184 490V403Q207 464 249 496T350 528Q444 528 485 457ZM401 49T401 278Q401 367 383 415T315 463Q255 463 222 387T189 208Q189 129 210 89T283 49Q401 49 401 278Z" />
<glyph unicode="&#xff;" glyph-name="ydieresis" horiz-adv-x="555" d="M496 52Q496 -96 429 -161T243 -227Q162 -227 110 -203T58 -121Q58 -90 81 -70T141 -50Q180 -50 195 -70Q182 -79 175 -93T168 -120Q168 -151 189 -169T245 -188Q314 -188 349 -129T385 37Q385
65 392 117Q349 -8 224 -8Q146 -8 108 39T69 196V378Q69 453 52 502Q82 528 120 528Q150 528 169 511T188 465V214Q188 128 204 89T263 50Q314 50 346 108T378 280Q378 392 375 429T359 502Q388 528 427 528Q456 528 475 510T495 460L496 52ZM165 585T148 602T131
642Q131 666 148 682T189 699Q212 699 229 683T246 642Q246 619 229 602T189 585Q165 585 148 602ZM351 585T334 602T317 642Q317 666 334 682T374 699Q398 699 415 683T432 642Q432 619 415 602T374 585Q351 585 334 602Z" />
<glyph unicode="&#x2013;" glyph-name="endash" horiz-adv-x="506" d="M470 293V223H37V293H470Z" />
<glyph unicode="&#x2014;" glyph-name="emdash" horiz-adv-x="792" d="M753 293V223H39V293H753Z" />
<glyph unicode="&#x2018;" glyph-name="quoteleft" horiz-adv-x="195" d="M122 770T142 750Q107 709 107 675Q107 644 123 631T168 610Q168 582 148 561T96 540Q66 540 46 561T25 626Q25 702 103 772Q122 770 142 750Z" />
<glyph unicode="&#x2019;" glyph-name="quoteright" horiz-adv-x="196" d="M71 529T53 548Q88 588 88 623Q88 654 72 667T27 688Q27 716 47 737T99 758Q129 758 149 737T170 671Q170 596 92 526Q71 529 53 548Z" />
<glyph unicode="&#x201a;" glyph-name="quotesinglbase" horiz-adv-x="196" d="M327 152T309 171Q344 211 344 246Q344 277 328 290T283 311Q283 339 303 360T355 381Q385 381 405 360T426 294Q426 219 348 149Q327 152 309 171Z" />
<glyph unicode="&#x201c;" glyph-name="quotedblleft" horiz-adv-x="370" d="M122 770T142 750Q107 709 107 675Q107 644 123 631T168 610Q168 582 148 561T96 540Q66 540 46 561T25 626Q25 702 103 772Q122 770 142 750ZM298 769T318 749Q283 708 283 674Q283
643 299 630T344 609Q344 581 324 560T272 539Q242 539 222 560T201 625Q201 663 219 698T279 771Q298 769 318 749Z" />
<glyph unicode="&#x201d;" glyph-name="quotedblright" horiz-adv-x="371" d="M248 529T230 548Q265 588 265 623Q265 654 249 667T204 688Q204 716 224 737T276 758Q306 758 326 737T347 671Q347 596 269 526Q248 529 230 548ZM73 530T55 549Q90 589 90 624Q90
655 74 668T29 689Q29 717 49 738T101 759Q131 759 151 738T172 672Q172 597 94 527Q73 530 55 549Z" />
<glyph unicode="&#x201e;" glyph-name="quotedblbase" horiz-adv-x="371" d="M246 -103T228 -84Q263 -44 263 -9Q263 22 247 35T202 56Q202 84 222 105T274 126Q304 126 324 105T345 39Q345 -36 267 -106Q246 -103 228 -84ZM327 -103T309 -84Q344 -44 344 -9Q344
22 328 35T283 56Q283 84 303 105T355 126Q385 126 405 105T426 39Q426 -36 348 -106Q327 -103 309 -84Z" />
<glyph unicode="&#x2022;" glyph-name="bullet" horiz-adv-x="375" d="M143 170T112 201T80 278Q80 322 111 353T188 384Q232 384 263 353T295 278Q295 233 264 202T188 170Q143 170 112 201Z" />
<glyph unicode="&#x2039;" glyph-name="guilsinglleft" horiz-adv-x="453" d="M140 243V238L408 49L377 7L24 204Q21 212 21 236Q21 266 24 273L377 486L408 440L140 243Z" />
<glyph unicode="&#x203a;" glyph-name="guilsinglright" horiz-adv-x="453" d="M76 486L429 273Q432 266 432 236Q432 212 429 204L76 7L45 49L313 238V243L45 440L76 486Z" />
</font>
</defs>
</svg>
