<?xml version="1.0" standalone="no"?>
<!DOCTYPE svg PUBLIC "-//W3C//DTD SVG 1.1//EN" "http://www.w3.org/Graphics/SVG/1.1/DTD/svg11.dtd">
<svg xmlns="http://www.w3.org/2000/svg">
<defs >
<font id="ArchivoNarrow" horiz-adv-x="469" ><font-face
    font-family="Archivo Narrow"
    units-per-em="1000"
    panose-1="2 11 5 6 2 2 2 2 11 4"
    ascent="878"
    descent="-210"
    alphabetic="0" />
<glyph unicode=" " glyph-name="space" horiz-adv-x="228" />
<glyph unicode="!" glyph-name="exclam" horiz-adv-x="228" d="M60 686H173L147 171H85L60 686ZM67 108H167V0H67V108Z" />
<glyph unicode="&quot;" glyph-name="quotedbl" horiz-adv-x="291" d="M37 539V686H119V539L98 407H59L37 539ZM170 539V686H252V539L230 407H191L170 539Z" />
<glyph unicode="#" glyph-name="numbersign" horiz-adv-x="456" d="M73 179H9V255H90L124 410H48V486H141L188 696H264L217 486H307L354 696H430L383 486H443V410H366L332 255H403V179H315L275 0H199L239 179H149L109 0H33L73 179ZM256 255L290 410H200L166 255H256Z" />
<glyph unicode="$" glyph-name="dollar" horiz-adv-x="456" d="M202 69Q127 75 90 118T53 222Q53 234 53 238T54 244H136V234Q136 194 153 171T202 140V319Q159 334 131 349T84 393T65 468Q65 530 101 569T202 616V723H251V617Q316 612 353 572T390 474L389 455H308V464Q308
494 295 516T251 546V388Q297 373 327 357T379 311T400 230Q400 155 360 115T251 69V-49H202V69ZM202 546Q172 540 160 520T147 474Q147 450 161 435T202 407V546ZM281 144T299 164T318 218Q318 249 301 268T251 301V139Q281 144 299 164Z" />
<glyph unicode="%" glyph-name="percent" horiz-adv-x="729" d="M109 337T77 377T45 517Q45 617 77 657T173 698Q237 698 269 658T301 517Q301 418 269 378T173 337Q109 337 77 377ZM543 686H614L195 0H125L543 686ZM207 396T219 425T232 510V525Q232 581 220
610T173 639Q139 639 127 610T114 525V510Q114 454 126 425T173 396Q207 396 219 425ZM501 -12T469 28T437 168Q437 268 469 308T565 349Q629 349 661 309T693 168Q693 69 661 29T565 -12Q501 -12 469 28ZM599 47T611 76T624 161V176Q624 232 612 261T565 290Q531
290 519 261T506 176V161Q506 105 518 76T565 47Q599 47 611 76Z" />
<glyph unicode="&amp;" glyph-name="ampersand" horiz-adv-x="547" d="M153 -12T94 41T35 184Q35 249 62 292T136 352V356Q94 380 71 416T47 510Q47 600 103 649T256 698Q317 698 364 675T437 609T464 510V492H382V501Q382 562 348 592T255 623Q202 623 169 594T135
505Q135 447 165 416T240 385H291V312H242Q123 312 123 190Q123 125 158 94T254 63Q382 63 382 191V385H534V311H464V194Q464 98 409 43T248 -12Q153 -12 94 41Z" />
<glyph unicode="&apos;" glyph-name="quotesingle" horiz-adv-x="157" d="M35 539V686H117V539L96 407H57L35 539Z" />
<glyph unicode="(" glyph-name="parenleft" horiz-adv-x="273" d="M125 -64T83 50T40 288Q40 411 82 527T204 735H258Q199 639 162 521T125 290Q125 178 162 59T258 -157H204Q125 -64 83 50Z" />
<glyph unicode=")" glyph-name="parenright" horiz-adv-x="273" d="M74 -61T111 58T148 290Q148 402 111 520T15 735H69Q148 643 190 527T233 288Q233 165 191 51T69 -157H15Q74 -61 111 58Z" />
<glyph unicode="*" glyph-name="asterisk" horiz-adv-x="319" d="M134 508L60 456L26 515L108 553L26 591L60 649L134 597L125 686H193L184 598L258 649L292 591L210 553L292 515L258 456L184 508L193 419H125L134 508Z" />
<glyph unicode="+" glyph-name="plus" horiz-adv-x="479" d="M197 213H43V297H197V511H280V297H435V213H280V0H197V213Z" />
<glyph unicode="," glyph-name="comma" horiz-adv-x="228" d="M104 0H64V108H164V9L116 -124H64L104 0Z" />
<glyph unicode="-" glyph-name="hyphen" horiz-adv-x="273" d="M10 319H262V221H10V319Z" />
<glyph unicode="." glyph-name="period" horiz-adv-x="228" d="M64 108H164V0H64V108Z" />
<glyph unicode="/" glyph-name="slash" horiz-adv-x="228" d="M158 735H228L72 -49H1L158 735Z" />
<glyph unicode="0" glyph-name="zero" horiz-adv-x="456" d="M166 -12T125 19T62 129T40 343Q40 479 62 557T125 666T228 698Q290 698 331 666T394 557T416 343Q416 207 394 130T331 20T228 -12Q166 -12 125 19ZM286 61T309 125T332 308V378Q332 496 309 560T228
625Q170 625 147 561T124 378V308Q124 190 147 126T228 61Q286 61 309 125Z" />
<glyph unicode="1" glyph-name="one" horiz-adv-x="456" d="M50 73H213V561H49V613Q93 618 155 638T263 686H295V73H445V0H50V73Z" />
<glyph unicode="2" glyph-name="two" horiz-adv-x="456" d="M39 13Q39 92 87 162Q104 188 125 212T181 273Q228 324 256 359T303 435T322 521Q322 562 301 592T229 622Q179 622 156 586T133 491V450H48Q47 453 46 464T45 490Q45 594 97 646T230 698Q310 698 359
654T409 520Q409 465 387 415T333 325T249 229Q242 221 211 186T158 119Q146 102 140 84H412V0H39V13Z" />
<glyph unicode="3" glyph-name="three" horiz-adv-x="456" d="M136 -12T86 43T35 194V202H119V191Q119 127 145 94T222 61Q273 61 302 93T332 190Q332 312 219 312H162V385H221Q263 385 291 416T320 505Q320 565 294 595T226 625Q183 625 157 594T131 501V492H47V510Q47
566 69 608T132 674T225 698Q307 698 355 649T404 510Q404 453 381 417T315 356V352Q361 335 388 292T416 184Q416 94 364 41T228 -12Q136 -12 86 43Z" />
<glyph unicode="4" glyph-name="four" horiz-adv-x="456" d="M285 169H20V243Q74 342 121 461T198 698H281Q264 613 229 519T156 350T97 242H285V458Q299 491 307 519T327 596H367V242H437V169H367V0H285V169Z" />
<glyph unicode="5" glyph-name="five" horiz-adv-x="456" d="M144 -12T92 48T40 213H125Q125 144 155 102T232 60Q280 60 309 102T338 224Q338 294 311 333T239 372Q207 372 180 351T137 293L59 306L82 686H394V602H153L140 393Q193 446 261 446Q332 446 377 389T423
224Q423 112 372 50T232 -12Q144 -12 92 48Z" />
<glyph unicode="6" glyph-name="six" horiz-adv-x="456" d="M139 -12T90 64T40 323Q40 463 62 545T127 663T232 698Q316 698 357 637T398 475H315Q315 547 293 586T228 625Q169 625 147 561T124 366Q146 397 177 414T245 431Q328 431 372 369T416 210Q416 143
393 93T329 15T237 -12Q139 -12 90 64ZM281 61T306 103T332 210Q332 275 307 317T232 359Q183 359 157 317T131 210Q131 145 157 103T232 61Q281 61 306 103Z" />
<glyph unicode="7" glyph-name="seven" horiz-adv-x="456" d="M119 159T177 313T320 602H33V686H423V633Q334 498 273 349T211 51Q211 24 212 0H119Q119 159 177 313Z" />
<glyph unicode="8" glyph-name="eight" horiz-adv-x="456" d="M133 -12T87 43T40 188Q40 308 128 352Q92 376 73 416T54 507Q54 590 99 644T228 698Q311 698 356 644T402 507Q402 457 383 417T327 352Q416 308 416 188Q416 99 370 44T228 -12Q133 -12 87 43ZM270
387T295 419T321 506Q321 561 296 593T228 625Q186 625 161 593T136 506Q136 451 161 419T228 387Q270 387 295 419ZM278 61T305 95T332 188Q332 247 305 280T228 314Q178 314 151 281T124 188Q124 129 151 95T228 61Q278 61 305 95Z" />
<glyph unicode="9" glyph-name="nine" horiz-adv-x="456" d="M142 -12T100 49T58 211H141Q141 139 164 100T232 61Q288 61 309 125T332 319Q284 255 211 255Q128 255 84 317T40 476Q40 543 63 593T127 671T219 698Q317 698 366 622T416 363Q416 224 394 141T331
23T228 -12Q142 -12 100 49ZM273 327T299 369T325 476Q325 541 299 583T224 625Q175 625 150 583T124 476Q124 411 149 369T224 327Q273 327 299 369Z" />
<glyph unicode=":" glyph-name="colon" horiz-adv-x="228" d="M64 526H164V418H64V526ZM64 108H164V0H64V108Z" />
<glyph unicode=";" glyph-name="semicolon" horiz-adv-x="228" d="M64 526H164V418H64V526ZM104 0H64V108H164V9L116 -124H64L104 0Z" />
<glyph unicode="&lt;" glyph-name="less" horiz-adv-x="479" d="M44 200V307L436 504V414L125 254L436 94V4L44 200Z" />
<glyph unicode="=" glyph-name="equal" horiz-adv-x="479" d="M43 402H435V318H43V402ZM43 189H435V106H43V189Z" />
<glyph unicode="&gt;" glyph-name="greater" horiz-adv-x="479" d="M44 94L355 254L44 414V504L436 307V200L44 4V94Z" />
<glyph unicode="?" glyph-name="question" horiz-adv-x="456" d="M192 236Q192 281 208 310T256 374Q287 409 302 437T318 509Q318 547 300 584T229 621Q173 621 154 579T134 486Q134 475 134 468T135 459H46Q45 463 44 473T43 494Q43 583 93 640T236 698Q285
698 324 676T386 613T409 520Q409 470 398 435T372 378T332 330Q305 301 292 279T279 221V180H192V236ZM185 108H285V0H185V108Z" />
<glyph unicode="@" glyph-name="at" horiz-adv-x="832" d="M228 -153T137 -51T45 262Q45 415 96 512T232 654T427 698Q591 698 688 606T786 321Q786 215 757 148T685 52T597 22Q557 22 536 38T508 84H504Q485 54 455 38T387 21Q339 21 301 50T262 155Q262 247
324 281T504 315V377Q504 415 488 435T428 455Q389 455 372 433T355 379V368H281Q280 374 280 388Q280 452 322 486T434 521Q505 521 541 487T578 387V125Q578 87 612 87Q659 87 693 141T728 322Q728 486 647 564T426 643Q273 643 188 547T103 261Q103 81 175 -8T395
-98Q428 -98 474 -89T545 -66V-126Q518 -137 472 -145T395 -153Q228 -153 137 -51ZM444 87T474 118T504 205V249Q422 249 381 231T340 160Q340 120 356 104T405 87Q444 87 474 118Z" />
<glyph unicode="A" glyph-name="A" horiz-adv-x="547" d="M217 686H330L548 0H453L406 153H134L87 0H-1L217 686ZM381 233L288 538Q284 552 279 578T272 614H268Q267 605 262 579T252 538L158 233H381Z" />
<glyph unicode="B" glyph-name="B" horiz-adv-x="547" d="M65 686H325Q402 686 452 640T502 518Q502 461 473 419T397 360V356Q450 340 484 293T518 182Q518 126 492 85T422 22T325 0H65V686ZM299 391Q348 391 379 422T410 499Q410 552 382 579T305 606H153V391H299ZM313
80Q363 80 394 110T426 194Q426 242 393 276T307 311H153V80H313Z" />
<glyph unicode="C" glyph-name="C" horiz-adv-x="592" d="M42 -12T42 343Q42 698 312 698Q421 698 486 632T551 438H461Q461 526 421 571T312 617Q222 617 178 555T134 368V318Q134 193 178 131T312 69Q383 69 423 114T464 246H551Q551 118 487 53T312 -12Q42
-12 42 343Z" />
<glyph unicode="D" glyph-name="D" horiz-adv-x="592" d="M70 686H283Q406 686 474 601T543 353Q543 179 475 90T283 0H70V686ZM275 80Q358 80 404 142T451 328V378Q451 490 405 548T275 606H158V80H275Z" />
<glyph unicode="E" glyph-name="E" horiz-adv-x="547" d="M70 686H493V606H158V391H449V311H158V80H499V0H70V686Z" />
<glyph unicode="F" glyph-name="F" horiz-adv-x="501" d="M70 686H466V606H158V384H430V304H158V0H70V686Z" />
<glyph unicode="G" glyph-name="G" horiz-adv-x="638" d="M305 357H573V0H515L496 76Q436 -12 319 -12Q188 -12 119 77T49 343Q49 518 121 608T324 698Q436 698 504 635T573 452H483Q483 535 441 576T324 617Q237 617 189 554T141 368V318Q141 194 186 132T319
69Q404 69 443 117T483 264V280H305V357Z" />
<glyph unicode="H" glyph-name="H" horiz-adv-x="592" d="M70 686H158V391H434V686H522V0H434V311H158V0H70V686Z" />
<glyph unicode="I" glyph-name="I" horiz-adv-x="228" d="M70 686H158V0H70V686Z" />
<glyph unicode="J" glyph-name="J" horiz-adv-x="410" d="M100 -12T57 33T13 163V208H101V158Q101 115 121 92T179 69Q217 69 237 92T257 158V686H345V163Q345 78 302 33T179 -12Q100 -12 57 33Z" />
<glyph unicode="K" glyph-name="K" horiz-adv-x="547" d="M70 686H158V323L430 686H528L322 409L535 0H435L268 335L158 213V0H70V686Z" />
<glyph unicode="L" glyph-name="L" horiz-adv-x="456" d="M70 686H158V80H438V0H70V686Z" />
<glyph unicode="M" glyph-name="M" horiz-adv-x="683" d="M62 686H196L317 236Q325 205 331 152T340 82H344Q345 99 351 152T366 236L488 686H621V0H533V498Q533 513 536 552T540 604H536Q533 591 525 552T513 498L376 0H297L160 498Q154 523 148 556T139 604H135Q136
590 138 557T141 498V0H62V686Z" />
<glyph unicode="N" glyph-name="N" horiz-adv-x="592" d="M70 686H146L401 255Q410 239 424 207T443 163L446 164Q446 175 445 203T443 255V686H522V0H449L192 437Q181 455 167 487T148 529L145 528Q146 518 147 491T149 437V0H70V686Z" />
<glyph unicode="O" glyph-name="O" horiz-adv-x="638" d="M191 -12T120 78T49 343Q49 518 120 608T319 698Q447 698 518 608T589 343Q589 168 518 78T319 -12Q191 -12 120 78ZM403 69T450 132T497 318V368Q497 491 450 554T319 617Q235 617 188 554T141 368V318Q141
195 188 132T319 69Q403 69 450 132Z" />
<glyph unicode="P" glyph-name="P" horiz-adv-x="547" d="M70 686H315Q414 686 467 632T520 486Q520 394 465 339T315 283H158V0H70V686ZM312 363Q364 363 396 396T428 486Q428 542 398 574T312 606H158V363H312Z" />
<glyph unicode="Q" glyph-name="Q" horiz-adv-x="638" d="M331 -12H319Q191 -12 120 78T49 343Q49 518 120 608T319 698Q447 698 518 608T589 343Q589 209 547 124T426 7L568 -124H450L331 -12ZM403 69T450 132T497 318V368Q497 491 450 554T319 617Q235 617 188
554T141 368V318Q141 195 188 132T319 69Q403 69 450 132Z" />
<glyph unicode="R" glyph-name="R" horiz-adv-x="592" d="M70 686H346Q445 686 498 635T551 496Q551 432 519 385T429 319L567 0H469L342 303H158V0H70V686ZM343 383Q395 383 427 414T459 496Q459 548 429 577T343 606H158V383H343Z" />
<glyph unicode="S" glyph-name="S" horiz-adv-x="547" d="M170 -12T106 38T41 194L42 214H133L132 193Q132 132 169 101T268 69Q337 69 374 98T412 183Q412 220 392 243T341 281T257 312Q192 334 152 354T84 412T55 514Q55 604 116 651T273 698Q369 698 428 651T488
505V493H397V508Q397 559 363 588T275 617Q218 617 183 593T148 521Q148 486 168 464T218 428T300 397Q366 375 406 356T475 298T504 198Q504 88 442 38T272 -12Q170 -12 106 38Z" />
<glyph unicode="T" glyph-name="T" horiz-adv-x="501" d="M206 606H19V686H481V606H294V0H206V606Z" />
<glyph unicode="U" glyph-name="U" horiz-adv-x="592" d="M189 -12T130 48T70 223V686H158V218Q158 146 194 108T296 69Q361 69 397 107T434 218V686H522V223Q522 109 463 49T296 -12Q189 -12 130 48Z" />
<glyph unicode="V" glyph-name="V" horiz-adv-x="547" d="M8 686H105L275 97H279L454 686H539L330 0H217L8 686Z" />
<glyph unicode="W" glyph-name="W" horiz-adv-x="774" d="M10 686H103L208 212Q214 187 220 145T229 90H233Q234 101 238 134T250 212L329 686H451L536 212Q542 181 547 142T554 90H558Q560 103 566 143T579 212L684 686H764L605 0H491L407 465Q402 494 396 541T388
603H384Q382 588 376 541T365 465L283 0H169L10 686Z" />
<glyph unicode="X" glyph-name="X" horiz-adv-x="547" d="M223 356L24 686H128L275 441H276L427 686H521L322 364L543 0H439L271 280H270L98 0H4L223 356Z" />
<glyph unicode="Y" glyph-name="Y" horiz-adv-x="547" d="M230 284L8 686H105L279 368H283L454 686H539L318 284V0H230V284Z" />
<glyph unicode="Z" glyph-name="Z" horiz-adv-x="501" d="M20 38L346 606H41V686H472V648L145 80H479V0H20V38Z" />
<glyph unicode="[" glyph-name="bracketleft" horiz-adv-x="228" d="M49 735H208V670H125V-96H208V-161H49V735Z" />
<glyph unicode="\" glyph-name="backslash" horiz-adv-x="228" d="M1 735H71L228 -49H157L1 735Z" />
<glyph unicode="]" glyph-name="bracketright" horiz-adv-x="228" d="M20 -96H103V670H20V735H179V-161H20V-96Z" />
<glyph unicode="^" glyph-name="asciicircum" horiz-adv-x="385" d="M140 686H247L384 294H294L193 609L94 294H4L140 686Z" />
<glyph unicode="_" glyph-name="underscore" horiz-adv-x="456" d="M0 -71H455V-124H0V-71Z" />
<glyph unicode="`" glyph-name="grave" horiz-adv-x="273" d="M27 720L28 723H118L204 591H135L27 720Z" />
<glyph unicode="a" glyph-name="a" horiz-adv-x="456" d="M118 -12T76 20T34 136Q34 237 102 274T300 312V380Q300 421 282 443T217 465Q174 465 155 441T136 382V370H55Q54 376 54 392Q54 462 100 500T223 538Q302 538 342 500T382 391V96Q382 79 390 70T410
61H442V4Q420 -8 388 -8Q356 -8 335 9T305 57H300Q280 24 247 6T172 -12Q118 -12 76 20ZM218 61T243 76T284 120T300 191V239Q210 239 165 219T120 141Q120 98 137 80T191 61Q218 61 243 76Z" />
<glyph unicode="b" glyph-name="b" horiz-adv-x="456" d="M217 -12T187 6T138 61H133L122 0H60V723H142V476H147Q160 505 190 521T259 538Q329 538 372 469T416 264Q416 124 374 56T253 -12Q217 -12 187 6ZM284 61T307 104T330 244V282Q330 379 307 422T236 465Q142
465 142 278V244Q142 61 236 61Q284 61 307 104Z" />
<glyph unicode="c" glyph-name="c" horiz-adv-x="410" d="M123 -12T80 54T36 263Q36 405 80 471T216 538Q300 538 338 486T377 331H292Q292 402 276 433T216 465Q168 465 145 420T122 282V244Q122 152 144 107T216 61Q259 61 277 94T296 195H377Q377 105 338 47T216
-12Q123 -12 80 54Z" />
<glyph unicode="d" glyph-name="d" horiz-adv-x="456" d="M125 -12T83 56T40 264Q40 400 83 469T197 538Q236 538 266 522T309 476H314V723H396V0H334L323 61H318Q299 25 269 7T203 -12Q125 -12 83 56ZM314 61T314 244V278Q314 465 220 465Q172 465 149 422T126
282V244Q126 147 149 104T220 61Q314 61 314 244Z" />
<glyph unicode="e" glyph-name="e" horiz-adv-x="456" d="M141 -12T92 53T42 263Q42 404 91 471T240 538Q328 538 370 480T413 291V239H128Q129 147 156 104T243 61Q283 61 307 93T332 179H413Q413 91 366 40T241 -12Q141 -12 92 53ZM327 312Q327 387 305 426T240
465Q187 465 161 428T129 312H327Z" />
<glyph unicode="f" glyph-name="f" horiz-adv-x="228" d="M55 453H9V526H55V610Q55 662 79 696T159 731Q194 731 228 719V662H184Q137 662 137 614V526H228V453H137V0H55V453Z" />
<glyph unicode="g" glyph-name="g" horiz-adv-x="456" d="M81 -182T47 -147T13 -57Q13 -18 31 12T81 55Q61 68 50 89T38 134Q38 165 58 189T112 225Q51 275 51 361Q51 444 97 491T223 538Q264 538 299 519Q331 536 345 559T364 611H436Q436 563 413 529T348 485Q395
436 395 361Q395 280 350 233T227 184H172Q152 184 138 171T124 137Q124 118 138 104T172 90H322Q378 90 412 55T446 -33Q446 -98 406 -140T292 -182H143Q81 -182 47 -147ZM265 252T288 281T312 361Q312 414 289 442T222 470Q179 470 156 441T133 361Q133 308 156
280T222 252Q265 252 288 281ZM301 -111Q327 -111 345 -93T363 -49Q363 -22 347 -5T301 12H156Q126 12 111 -5T95 -49Q95 -76 111 -93T156 -111H301Z" />
<glyph unicode="h" glyph-name="h" horiz-adv-x="456" d="M60 723H142V471H148Q186 538 266 538Q329 538 362 501T396 379V0H314V373Q314 424 295 444T240 465Q199 465 171 426T142 321V0H60V723Z" />
<glyph unicode="i" glyph-name="i" horiz-adv-x="182" d="M50 723H132V625H50V723ZM50 526H132V0H50V526Z" />
<glyph unicode="j" glyph-name="j" horiz-adv-x="182" d="M50 723H132V625H50V723ZM-7 -182T-41 -170V-113H3Q50 -113 50 -65V526H132V-61Q132 -113 108 -147T28 -182Q-7 -182 -41 -170Z" />
<glyph unicode="k" glyph-name="k" horiz-adv-x="410" d="M60 723H142V282L312 526H403L248 310L411 0H318L198 240L142 179V0H60V723Z" />
<glyph unicode="l" glyph-name="l" horiz-adv-x="182" d="M50 723H132V0H50V723Z" />
<glyph unicode="m" glyph-name="m" horiz-adv-x="683" d="M60 526H122L133 465H139Q178 538 259 538Q344 538 371 462Q391 499 425 518T499 538Q623 538 623 379V0H541V373Q541 424 523 444T473 465Q435 465 409 426T383 321V0H301V373Q301 424 283 444T233 465Q195
465 169 426T142 321V0H60V526Z" />
<glyph unicode="n" glyph-name="n" horiz-adv-x="456" d="M60 526H122L133 465H139Q180 538 266 538Q329 538 362 501T396 379V0H314V373Q314 424 295 444T240 465Q199 465 171 426T142 321V0H60V526Z" />
<glyph unicode="o" glyph-name="o" horiz-adv-x="456" d="M135 -12T88 55T40 263Q40 403 87 470T228 538Q321 538 368 471T416 263Q416 123 369 56T228 -12Q135 -12 88 55ZM330 61T330 244V282Q330 465 228 465Q126 465 126 282V244Q126 61 228 61Q330 61 330 244Z" />
<glyph unicode="p" glyph-name="p" horiz-adv-x="456" d="M60 526H122L133 465H138Q157 501 187 519T253 538Q331 538 373 470T416 262Q416 126 373 57T259 -12Q221 -12 191 3T147 46H142V-173H60V526ZM284 61T307 104T330 244V282Q330 379 307 422T236 465Q142
465 142 282V244Q142 61 236 61Q284 61 307 104Z" />
<glyph unicode="q" glyph-name="q" horiz-adv-x="456" d="M314 46H309Q296 19 266 4T197 -12Q127 -12 84 57T40 262Q40 402 82 470T203 538Q239 538 269 520T318 465H323L334 526H396V-173H314V46ZM314 61T314 244V282Q314 465 220 465Q172 465 149 422T126 282V244Q126
147 149 104T220 61Q314 61 314 244Z" />
<glyph unicode="r" glyph-name="r" horiz-adv-x="273" d="M60 526H122L133 457H139Q150 492 172 515T228 538Q242 538 253 535T267 530V445H240Q197 445 170 416T142 321V0H60V526Z" />
<glyph unicode="s" glyph-name="s" horiz-adv-x="410" d="M117 -12T75 32T33 142Q33 154 33 158T34 164H120V154Q120 107 144 84T206 60Q240 60 262 80T285 138Q285 166 271 184T237 212T181 236Q137 251 110 266T64 310T45 388Q45 457 89 497T209 538Q280 538
320 497T360 394L359 375H274V384Q274 419 257 442T201 466Q162 466 146 444T130 394Q130 360 153 344T226 311Q271 295 300 280T349 233T370 150Q370 69 325 29T202 -12Q117 -12 75 32Z" />
<glyph unicode="t" glyph-name="t" horiz-adv-x="228" d="M103 -10T81 24T59 111V453H14V526H59L77 672H141V526H212V453H141V109Q141 61 188 61H212V4Q201 -2 185 -6T153 -10Q103 -10 81 24Z" />
<glyph unicode="u" glyph-name="u" horiz-adv-x="456" d="M127 -12T94 25T60 147V526H142V153Q142 102 161 82T216 61Q257 61 285 100T314 205V526H396V0H334L323 61H317Q276 -12 190 -12Q127 -12 94 25Z" />
<glyph unicode="v" glyph-name="v" horiz-adv-x="410" d="M10 526H100L171 259L207 126H211L247 262L318 526H401L250 0H161L10 526Z" />
<glyph unicode="w" glyph-name="w" horiz-adv-x="592" d="M1 526H91L157 230Q163 203 169 161T178 105H182Q183 117 187 156T198 230L251 526H346L400 230Q406 197 410 157T416 105H420Q421 116 427 154T441 230L507 526H590L459 0H368L313 300Q307 334 303 372T297
421H293Q292 410 288 372T277 300L223 0H132L1 526Z" />
<glyph unicode="x" glyph-name="x" horiz-adv-x="410" d="M159 266L13 526H112L206 346H207L305 526H397L250 273L404 0H305L203 192H202L96 0H6L159 266Z" />
<glyph unicode="y" glyph-name="y" horiz-adv-x="410" d="M61 -182T38 -174V-117H67Q146 -117 171 0L10 526H100L189 212L216 118H220L243 214L318 526H401L267 27Q241 -71 201 -126T97 -182Q61 -182 38 -174Z" />
<glyph unicode="z" glyph-name="z" horiz-adv-x="410" d="M26 39L257 453H42V526H370V488L138 73H383V0H26V39Z" />
<glyph unicode="{" glyph-name="braceleft" horiz-adv-x="274" d="M181 -159T139 -128T97 -11V186Q97 217 74 231T20 246V330Q51 330 74 344T97 390V587Q97 673 139 704T254 735V678Q221 678 198 663T175 607Q175 536 170 446L168 401Q166 347 146 320T80 293V283Q126
283 146 256T168 175L170 130Q175 40 175 -31Q175 -71 198 -86T254 -102V-159Q181 -159 139 -128Z" />
<glyph unicode="|" glyph-name="bar" horiz-adv-x="213" d="M67 723H146V-173H67V723Z" />
<glyph unicode="}" glyph-name="braceright" horiz-adv-x="274" d="M20 -102Q53 -102 76 -87T99 -31Q99 40 104 130L106 175Q108 229 128 256T194 283V293Q148 293 128 320T106 401L104 446Q99 536 99 607Q99 647 76 662T20 678V735Q93 735 135 704T177 587V390Q177
359 200 345T254 330V246Q223 246 200 232T177 186V-11Q177 -97 135 -128T20 -159V-102Z" />
<glyph unicode="~" glyph-name="asciitilde" horiz-adv-x="479" d="M35 303Q35 306 50 325T91 360T153 376Q174 376 192 369T238 346Q265 331 284 323T326 315Q357 315 383 331T426 366T444 388V296Q444 293 429 274T388 239T326 223Q305 223 287 230T241 253Q214
268 195 276T153 284Q122 284 96 268T53 233T35 211V303Z" />
<glyph unicode="&#xa0;" glyph-name="uni00A0" horiz-adv-x="228" />
<glyph unicode="&#xa1;" glyph-name="exclamdown" horiz-adv-x="273" d="M107 526H207V418H107V526ZM125 355H187L213 -160H100L125 355Z" />
<glyph unicode="&#xa2;" glyph-name="cent" horiz-adv-x="456" d="M210 69Q127 78 88 144T48 343Q48 474 87 541T210 616V723H259V617Q336 610 371 559T407 411H322Q322 473 308 504T259 543V143Q295 150 310 182T326 275H407Q407 191 371 134T259 69V-49H210V69ZM210
541Q171 531 153 486T134 362V324Q134 244 152 200T210 144V541Z" />
<glyph unicode="&#xa3;" glyph-name="sterling" horiz-adv-x="456" d="M30 79H91V304H19V376H91V499Q91 597 133 647T252 698Q330 698 371 653T413 504V491H331V507Q331 625 252 625Q174 625 174 515V376H307V304H173L164 79H413V0H30V79Z" />
<glyph unicode="&#xa4;" glyph-name="currency" horiz-adv-x="456" d="M149 96T88 154L45 111L-3 159L46 208Q11 268 11 342Q11 414 46 476L-3 525L45 573L87 530Q116 558 152 573T228 589Q267 589 303 574T368 530L411 573L459 525L410 476Q445 414 445 342Q445
268 410 208L459 159L411 111L368 154Q339 126 303 111T228 96Q149 96 88 154ZM268 165T302 189T356 253T376 342Q376 391 356 431T302 496T228 520Q187 520 153 496T99 432T79 342Q79 294 99 253T153 189T228 165Q268 165 302 189Z" />
<glyph unicode="&#xa5;" glyph-name="yen" horiz-adv-x="456" d="M184 169H25V234H184V304H25V369H153L2 686H97L233 393H237L370 686H453L303 369H431V304H272V234H431V169H272V0H184V169Z" />
<glyph unicode="&#xa6;" glyph-name="brokenbar" horiz-adv-x="213" d="M67 723H146V343H67V723ZM67 207H146V-173H67V207Z" />
<glyph unicode="&#xa7;" glyph-name="section" horiz-adv-x="456" d="M158 -182T118 -141T78 -38L79 -19H164Q164 -65 182 -87T237 -110Q275 -110 291 -88T308 -38Q308 -6 294 17T260 55T202 92Q158 117 132 137T87 192T68 277Q68 322 88 356T138 411Q78 462 78
548Q78 618 121 658T242 698Q313 698 353 657T393 554L392 535H307Q307 581 289 603T234 626Q196 626 180 604T163 554Q163 522 177 499T211 461T269 424Q313 399 339 379T384 324T403 239Q403 194 383 160T333 104Q361 79 377 47T393 -32Q393 -102 350 -142T229
-182Q158 -182 118 -141ZM323 164T323 218Q323 255 308 281T270 323T209 363L182 379Q148 353 148 298Q148 262 163 236T199 194T259 153Q273 146 288 136Q323 164 323 218Z" />
<glyph unicode="&#xa8;" glyph-name="dieresis" horiz-adv-x="273" d="M18 723H105V628H18V723ZM168 723H255V628H168V723Z" />
<glyph unicode="&#xa9;" glyph-name="copyright" horiz-adv-x="604" d="M215 -12T152 31T55 155T21 343Q21 451 55 531T152 654T302 698Q389 698 452 655T549 531T583 343Q583 235 549 155T452 32T302 -12Q215 -12 152 31ZM374 35T427 73T508 180T537 343Q537
436 509 505T427 613T302 651Q230 651 177 613T96 506T67 343Q67 250 95 181T177 73T302 35Q374 35 427 73ZM145 139T145 348Q145 558 304 558Q368 558 406 519T445 405H387Q387 455 365 480T304 506Q253 506 229 471T204 364V334Q204 191 304 191Q343 191 366
216T389 291H445Q445 216 407 178T304 139Q145 139 145 348Z" />
<glyph unicode="&#xaa;" glyph-name="ordfeminine" horiz-adv-x="303" d="M78 362T49 383T20 463Q20 533 66 558T199 584V627Q199 654 188 668T146 683Q118 683 106 667T93 628V618H34V635Q34 683 65 709T149 735Q203 735 230 709T258 635V437Q258 426 263 421T275
415H298V374Q285 365 260 365Q239 365 225 376T204 408H202Q188 386 166 374T115 362Q78 362 49 383ZM155 415T177 437T199 500V531Q141 531 112 518T82 466Q82 438 93 427T128 415Q155 415 177 437Z" />
<glyph unicode="&#xab;" glyph-name="guillemotleft" horiz-adv-x="456" d="M54 326L195 526H266L153 326L266 126H195L54 326ZM205 326L347 526H417L305 326L417 126H347L205 326Z" />
<glyph unicode="&#xac;" glyph-name="logicalnot" horiz-adv-x="479" d="M351 360H39V453H435V197H351V360Z" />
<glyph unicode="&#xad;" glyph-name="uni00AD" horiz-adv-x="273" d="M10 319H262V221H10V319Z" />
<glyph unicode="&#xae;" glyph-name="registered" horiz-adv-x="604" d="M215 -12T152 31T55 155T21 343Q21 451 55 531T152 654T302 698Q389 698 452 655T549 531T583 343Q583 235 549 155T452 32T302 -12Q215 -12 152 31ZM374 35T427 73T508 180T537 343Q537
436 509 505T427 613T302 651Q230 651 177 613T96 506T67 343Q67 250 95 181T177 73T302 35Q374 35 427 73ZM377 145T377 221Q377 276 358 299T312 323H231V148H174V550H335Q380 550 409 522T438 449Q438 414 421 389T375 355V351Q394 343 414 318T435 244Q435
204 441 189T463 167V150Q451 145 434 145Q377 145 377 221ZM314 376Q344 376 361 393T379 438Q379 466 362 481T317 497H231V376H314Z" />
<glyph unicode="&#xaf;" glyph-name="overscore" horiz-adv-x="273" d="M12 671H262V599H12V671Z" />
<glyph unicode="&#xb0;" glyph-name="degree" horiz-adv-x="400" d="M161 428T130 446T81 495T63 563Q63 600 81 631T130 680T198 698Q235 698 266 680T315 631T333 563Q333 526 315 495T266 446T198 428Q161 428 130 446ZM232 481T255 505T279 563Q279 597 256
620T198 644Q164 644 140 621T116 563Q116 529 140 505T198 481Q232 481 255 505Z" />
<glyph unicode="&#xb1;" glyph-name="plusminus" horiz-adv-x="549" d="M232 310H78V394H232V578H315V394H470V310H315V127H232V310ZM78 83H470V0H78V83Z" />
<glyph unicode="&#xb2;" glyph-name="uni00B2" horiz-adv-x="273" d="M24 338Q24 380 45 413T107 491Q146 532 165 561T185 626Q185 646 175 661T140 676Q116 676 105 658T93 610V579H30Q30 582 29 590T28 609Q28 672 60 703T141 735Q190 735 220 708T251 626Q251
582 226 543T157 455Q151 448 138 435T116 409T101 385H252V322H24V338Z" />
<glyph unicode="&#xb3;" glyph-name="uni00B3" horiz-adv-x="273" d="M85 316T54 349T23 441V452H87V439Q87 373 137 373Q163 373 177 389T192 438Q192 500 136 500H101V557H137Q158 557 172 572T186 617Q186 647 173 662T140 678Q119 678 106 662T93 615V602H30V620Q30
672 60 703T139 735Q189 735 219 705T249 620Q249 588 237 567T201 531Q225 518 240 494T255 435Q255 380 224 348T141 316Q85 316 54 349Z" />
<glyph unicode="&#xb4;" glyph-name="acute" horiz-adv-x="273" d="M154 723H244L245 720L137 591H68L154 723Z" />
<glyph unicode="&#xb5;" glyph-name="uni00B5" horiz-adv-x="456" d="M60 526H142V142Q142 97 161 79T216 61Q257 61 285 100T314 205V526H396V0H334L323 61H317Q276 -12 190 -12Q162 -12 142 -5V-173H60V526Z" />
<glyph unicode="&#xb6;" glyph-name="paragraph" horiz-adv-x="440" d="M187 250Q139 256 101 286T40 364T18 467Q18 527 43 577T113 656T210 686H419V625H371V-173H305V625H252V-173H187V250Z" />
<glyph unicode="&#xb7;" glyph-name="middot" horiz-adv-x="228" d="M63 399H164V288H63V399Z" />
<glyph unicode="&#xb8;" glyph-name="cedilla" horiz-adv-x="273" d="M74 -182T36 -174V-125H112Q130 -125 139 -120T148 -101Q148 -89 141 -83T114 -77H81L95 11H150L143 -36Q224 -42 224 -101Q224 -146 192 -164T120 -182Q74 -182 36 -174Z" />
<glyph unicode="&#xb9;" glyph-name="uni00B9" horiz-adv-x="273" d="M40 380H119V638H39V681Q63 684 96 696T152 724H181V380H254V322H40V380Z" />
<glyph unicode="&#xba;" glyph-name="ordmasculine" horiz-adv-x="299" d="M21 361T21 548Q21 735 149 735Q277 735 277 548Q277 361 149 361Q21 361 21 548ZM216 414T216 535V561Q216 682 149 682Q83 682 83 561V535Q83 414 149 414Q216 414 216 535Z" />
<glyph unicode="&#xbb;" glyph-name="guillemotright" horiz-adv-x="456" d="M151 326L39 526H109L251 326L109 126H39L151 326ZM303 326L190 526H261L402 326L261 126H190L303 326Z" />
<glyph unicode="&#xbc;" glyph-name="onequarter" horiz-adv-x="684" d="M531 698H593L178 -12H115L531 698ZM32 342H111V600H31V643Q55 646 88 658T144 686H173V342H246V284H32V342ZM540 96H389V148Q452 262 493 413H555Q540 344 510 269T455 153H540V244Q567
316 575 355H602V153H642V96H602V0H540V96Z" />
<glyph unicode="&#xbd;" glyph-name="onehalf" horiz-adv-x="684" d="M520 698H582L167 -12H104L520 698ZM32 342H111V600H31V643Q55 646 88 658T144 686H173V342H246V284H32V342ZM413 16Q413 58 433 91T495 168Q536 212 555 240T574 304Q574 324 564 339T529
354Q505 354 494 336T482 288V257H419Q419 260 418 268T417 287Q417 350 449 381T530 413Q579 413 609 386T640 304Q640 260 615 221T546 133Q540 126 527 113T505 87T490 63H641V0H413V16Z" />
<glyph unicode="&#xbe;" glyph-name="threequarters" horiz-adv-x="684" d="M89 279T58 312T27 404V415H91V402Q91 336 141 336Q167 336 181 352T196 401Q196 463 140 463H105V520H141Q162 520 176 535T190 580Q190 610 177 625T144 641Q123 641 110 625T97 578V565H34V583Q34
635 64 666T143 698Q193 698 223 668T253 583Q253 551 241 530T205 494Q229 481 244 457T259 398Q259 343 228 311T145 279Q89 279 58 312ZM523 698H585L170 -12H107L523 698ZM540 96H389V148Q452 262 493 413H555Q540 344 510 269T455 153H540V244Q567 316 575
355H602V153H642V96H602V0H540V96Z" />
<glyph unicode="&#xbf;" glyph-name="questiondown" horiz-adv-x="501" d="M194 526H294V418H194V526ZM197 -172T157 -150T93 -89T70 2Q70 49 80 83T106 139T145 189Q173 221 186 245T200 305V346H287V290Q287 245 271 216T223 150Q192 114 177 86T161 13Q161
-23 181 -59T255 -95Q308 -95 326 -54T345 40Q345 51 345 58T344 67H433Q434 63 435 53T436 32Q436 -60 388 -116T248 -172Q197 -172 157 -150Z" />
<glyph unicode="&#xc0;" glyph-name="Agrave" horiz-adv-x="547" d="M156 880L157 883H247L333 751H264L156 880ZM217 686H330L548 0H453L406 153H134L87 0H-1L217 686ZM381 233L288 538Q284 552 279 578T272 614H268Q267 605 262 579T252 538L158 233H381Z" />
<glyph unicode="&#xc1;" glyph-name="Aacute" horiz-adv-x="547" d="M300 883H390L391 880L283 751H214L300 883ZM217 686H330L548 0H453L406 153H134L87 0H-1L217 686ZM381 233L288 538Q284 552 279 578T272 614H268Q267 605 262 579T252 538L158 233H381Z" />
<glyph unicode="&#xc2;" glyph-name="Acircumflex" horiz-adv-x="547" d="M235 882H313L398 747H318L274 826L229 747H149L235 882ZM217 686H330L548 0H453L406 153H134L87 0H-1L217 686ZM381 233L288 538Q284 552 279 578T272 614H268Q267 605 262 579T252 538L158
233H381Z" />
<glyph unicode="&#xc3;" glyph-name="Atilde" horiz-adv-x="547" d="M127 819T149 851T212 883Q227 883 240 879T272 867Q308 853 327 853Q357 853 361 883H419Q419 843 398 811T334 779Q319 779 306 783T274 795Q240 810 219 810Q189 810 186 779H127Q127 819
149 851ZM217 686H330L548 0H453L406 153H134L87 0H-1L217 686ZM381 233L288 538Q284 552 279 578T272 614H268Q267 605 262 579T252 538L158 233H381Z" />
<glyph unicode="&#xc4;" glyph-name="Adieresis" horiz-adv-x="547" d="M155 883H242V788H155V883ZM305 883H392V788H305V883ZM217 686H330L548 0H453L406 153H134L87 0H-1L217 686ZM381 233L288 538Q284 552 279 578T272 614H268Q267 605 262 579T252 538L158 233H381Z" />
<glyph unicode="&#xc5;" glyph-name="Aring" horiz-adv-x="547" d="M234 723T206 751T177 819Q177 859 205 887T273 915Q314 915 341 887T369 819Q369 779 341 751T273 723Q234 723 206 751ZM293 768T308 783T324 819Q324 840 309 855T273 870Q253 870 238 855T222
819Q222 798 237 783T273 768Q293 768 308 783ZM217 686H330L548 0H453L406 153H134L87 0H-1L217 686ZM381 233L288 538Q284 552 279 578T272 614H268Q267 605 262 579T252 538L158 233H381Z" />
<glyph unicode="&#xc6;" glyph-name="AE" horiz-adv-x="820" d="M279 686H777V606H410L459 391H733V311H477L529 80H783V0H453L419 153H146L87 0H-1L279 686ZM402 233L334 543Q330 557 327 578T323 605H319Q317 598 311 580T298 543L177 233H402Z" />
<glyph unicode="&#xc7;" glyph-name="Ccedilla" horiz-adv-x="592" d="M240 -182T202 -174V-125H278Q296 -125 305 -120T314 -101Q314 -89 307 -83T280 -77H247L258 -8Q42 25 42 343Q42 698 312 698Q421 698 486 632T551 438H461Q461 526 421 571T312 617Q222
617 178 555T134 368V318Q134 193 178 131T312 69Q383 69 423 114T464 246H551Q551 118 487 53T312 -12L309 -36Q390 -42 390 -101Q390 -146 358 -164T286 -182Q240 -182 202 -174Z" />
<glyph unicode="&#xc8;" glyph-name="Egrave" horiz-adv-x="547" d="M156 880L157 883H247L333 751H264L156 880ZM70 686H493V606H158V391H449V311H158V80H499V0H70V686Z" />
<glyph unicode="&#xc9;" glyph-name="Eacute" horiz-adv-x="547" d="M300 883H390L391 880L283 751H214L300 883ZM70 686H493V606H158V391H449V311H158V80H499V0H70V686Z" />
<glyph unicode="&#xca;" glyph-name="Ecircumflex" horiz-adv-x="547" d="M235 882H313L398 747H318L274 826L229 747H149L235 882ZM70 686H493V606H158V391H449V311H158V80H499V0H70V686Z" />
<glyph unicode="&#xcb;" glyph-name="Edieresis" horiz-adv-x="547" d="M155 883H242V788H155V883ZM305 883H392V788H305V883ZM70 686H493V606H158V391H449V311H158V80H499V0H70V686Z" />
<glyph unicode="&#xcc;" glyph-name="Igrave" horiz-adv-x="228" d="M-3 880L-2 883H88L174 751H105L-3 880ZM70 686H158V0H70V686Z" />
<glyph unicode="&#xcd;" glyph-name="Iacute" horiz-adv-x="228" d="M141 883H230L231 880L124 751H55L141 883ZM70 686H158V0H70V686Z" />
<glyph unicode="&#xce;" glyph-name="Icircumflex" horiz-adv-x="228" d="M76 882H154L239 747H159L115 826L70 747H-11L76 882ZM70 686H158V0H70V686Z" />
<glyph unicode="&#xcf;" glyph-name="Idieresis" horiz-adv-x="228" d="M-4 883H83V788H-4V883ZM146 883H233V788H146V883ZM70 686H158V0H70V686Z" />
<glyph unicode="&#xd0;" glyph-name="Eth" horiz-adv-x="592" d="M70 323H5V387H70V686H283Q406 686 474 601T543 353Q543 179 475 90T283 0H70V323ZM275 80Q358 80 404 142T451 328V378Q451 490 405 548T275 606H158V387H315V323H158V80H275Z" />
<glyph unicode="&#xd1;" glyph-name="Ntilde" horiz-adv-x="592" d="M150 819T172 851T235 883Q250 883 263 879T295 867Q331 853 350 853Q380 853 384 883H442Q442 843 420 811T357 779Q342 779 329 783T296 795Q262 810 242 810Q212 810 208 779H150Q150 819
172 851ZM70 686H146L401 255Q410 239 424 207T443 163L446 164Q446 175 445 203T443 255V686H522V0H449L192 437Q181 455 167 487T148 529L145 528Q146 518 147 491T149 437V0H70V686Z" />
<glyph unicode="&#xd2;" glyph-name="Ograve" horiz-adv-x="638" d="M202 880L203 883H293L379 751H310L202 880ZM191 -12T120 78T49 343Q49 518 120 608T319 698Q447 698 518 608T589 343Q589 168 518 78T319 -12Q191 -12 120 78ZM403 69T450 132T497 318V368Q497
491 450 554T319 617Q235 617 188 554T141 368V318Q141 195 188 132T319 69Q403 69 450 132Z" />
<glyph unicode="&#xd3;" glyph-name="Oacute" horiz-adv-x="638" d="M346 883H436L437 880L329 751H260L346 883ZM191 -12T120 78T49 343Q49 518 120 608T319 698Q447 698 518 608T589 343Q589 168 518 78T319 -12Q191 -12 120 78ZM403 69T450 132T497 318V368Q497
491 450 554T319 617Q235 617 188 554T141 368V318Q141 195 188 132T319 69Q403 69 450 132Z" />
<glyph unicode="&#xd4;" glyph-name="Ocircumflex" horiz-adv-x="638" d="M281 882H359L444 747H364L320 826L275 747H195L281 882ZM191 -12T120 78T49 343Q49 518 120 608T319 698Q447 698 518 608T589 343Q589 168 518 78T319 -12Q191 -12 120 78ZM403 69T450
132T497 318V368Q497 491 450 554T319 617Q235 617 188 554T141 368V318Q141 195 188 132T319 69Q403 69 450 132Z" />
<glyph unicode="&#xd5;" glyph-name="Otilde" horiz-adv-x="638" d="M173 819T195 851T258 883Q273 883 286 879T318 867Q354 853 373 853Q403 853 407 883H465Q465 843 443 811T380 779Q365 779 352 783T320 795Q286 810 265 810Q235 810 231 779H173Q173 819
195 851ZM191 -12T120 78T49 343Q49 518 120 608T319 698Q447 698 518 608T589 343Q589 168 518 78T319 -12Q191 -12 120 78ZM403 69T450 132T497 318V368Q497 491 450 554T319 617Q235 617 188 554T141 368V318Q141 195 188 132T319 69Q403 69 450 132Z" />
<glyph unicode="&#xd6;" glyph-name="Odieresis" horiz-adv-x="638" d="M201 883H288V788H201V883ZM351 883H438V788H351V883ZM191 -12T120 78T49 343Q49 518 120 608T319 698Q447 698 518 608T589 343Q589 168 518 78T319 -12Q191 -12 120 78ZM403 69T450 132T497
318V368Q497 491 450 554T319 617Q235 617 188 554T141 368V318Q141 195 188 132T319 69Q403 69 450 132Z" />
<glyph unicode="&#xd7;" glyph-name="multiply" horiz-adv-x="479" d="M38 104L191 255L38 407L93 466L247 314L400 466L455 407L302 255L455 104L400 45L247 195L93 45L38 104Z" />
<glyph unicode="&#xd8;" glyph-name="Oslash" horiz-adv-x="638" d="M121 76Q49 166 49 343Q49 518 120 608T319 698Q414 698 478 648L525 723H589L517 609Q589 517 589 343Q589 168 518 78T319 -12Q222 -12 160 37L114 -37H50L121 76ZM432 574Q388 617 319 617Q235
617 188 554T141 368V318Q141 220 172 158L432 574ZM403 69T450 132T497 318V368Q497 465 466 527L206 111Q249 69 319 69Q403 69 450 132Z" />
<glyph unicode="&#xd9;" glyph-name="Ugrave" horiz-adv-x="592" d="M178 880L179 883H270L355 751H287L178 880ZM189 -12T130 48T70 223V686H158V218Q158 146 194 108T296 69Q361 69 397 107T434 218V686H522V223Q522 109 463 49T296 -12Q189 -12 130 48Z" />
<glyph unicode="&#xda;" glyph-name="Uacute" horiz-adv-x="592" d="M322 883H412L413 880L306 751H236L322 883ZM189 -12T130 48T70 223V686H158V218Q158 146 194 108T296 69Q361 69 397 107T434 218V686H522V223Q522 109 463 49T296 -12Q189 -12 130 48Z" />
<glyph unicode="&#xdb;" glyph-name="Ucircumflex" horiz-adv-x="592" d="M257 882H335L421 747H341L297 826L251 747H171L257 882ZM189 -12T130 48T70 223V686H158V218Q158 146 194 108T296 69Q361 69 397 107T434 218V686H522V223Q522 109 463 49T296 -12Q189
-12 130 48Z" />
<glyph unicode="&#xdc;" glyph-name="Udieresis" horiz-adv-x="592" d="M177 883H264V788H177V883ZM327 883H415V788H327V883ZM189 -12T130 48T70 223V686H158V218Q158 146 194 108T296 69Q361 69 397 107T434 218V686H522V223Q522 109 463 49T296 -12Q189 -12 130 48Z" />
<glyph unicode="&#xdd;" glyph-name="Yacute" horiz-adv-x="547" d="M300 883H390L391 880L283 751H214L300 883ZM230 284L8 686H105L279 368H283L454 686H539L318 284V0H230V284Z" />
<glyph unicode="&#xde;" glyph-name="Thorn" horiz-adv-x="547" d="M70 686H158V550H315Q414 550 467 496T520 350Q520 258 465 203T315 147H158V0H70V686ZM312 227Q364 227 396 260T428 350Q428 406 398 438T312 470H158V227H312Z" />
<glyph unicode="&#xdf;" glyph-name="germandbls" horiz-adv-x="501" d="M50 516Q50 627 106 681T254 735Q337 735 389 685T442 548Q442 498 416 455T347 395V391Q398 372 430 322T463 214Q463 151 437 103T365 27T263 0H188V74H255Q289 74 317 93T362 144T379
215Q379 251 363 282T318 332T255 350H188V423H247Q293 423 325 459T358 545Q358 599 330 630T249 662Q195 662 164 625T132 518V0H50V516Z" />
<glyph unicode="&#xe0;" glyph-name="agrave" horiz-adv-x="456" d="M106 720L107 723H197L283 591H214L106 720ZM118 -12T76 20T34 136Q34 237 102 274T300 312V380Q300 421 282 443T217 465Q174 465 155 441T136 382V370H55Q54 376 54 392Q54 462 100 500T223
538Q302 538 342 500T382 391V96Q382 79 390 70T410 61H442V4Q420 -8 388 -8Q356 -8 335 9T305 57H300Q280 24 247 6T172 -12Q118 -12 76 20ZM218 61T243 76T284 120T300 191V239Q210 239 165 219T120 141Q120 98 137 80T191 61Q218 61 243 76Z" />
<glyph unicode="&#xe1;" glyph-name="aacute" horiz-adv-x="456" d="M250 723H340L341 720L233 591H164L250 723ZM118 -12T76 20T34 136Q34 237 102 274T300 312V380Q300 421 282 443T217 465Q174 465 155 441T136 382V370H55Q54 376 54 392Q54 462 100 500T223
538Q302 538 342 500T382 391V96Q382 79 390 70T410 61H442V4Q420 -8 388 -8Q356 -8 335 9T305 57H300Q280 24 247 6T172 -12Q118 -12 76 20ZM218 61T243 76T284 120T300 191V239Q210 239 165 219T120 141Q120 98 137 80T191 61Q218 61 243 76Z" />
<glyph unicode="&#xe2;" glyph-name="acircumflex" horiz-adv-x="456" d="M189 722H268L353 587H273L229 666L184 587H104L189 722ZM118 -12T76 20T34 136Q34 237 102 274T300 312V380Q300 421 282 443T217 465Q174 465 155 441T136 382V370H55Q54 376 54 392Q54
462 100 500T223 538Q302 538 342 500T382 391V96Q382 79 390 70T410 61H442V4Q420 -8 388 -8Q356 -8 335 9T305 57H300Q280 24 247 6T172 -12Q118 -12 76 20ZM218 61T243 76T284 120T300 191V239Q210 239 165 219T120 141Q120 98 137 80T191 61Q218 61 243 76Z"
/>
<glyph unicode="&#xe3;" glyph-name="atilde" horiz-adv-x="456" d="M82 659T104 691T167 723Q182 723 195 719T227 707Q261 692 282 692Q312 692 316 723H374Q374 683 352 651T289 619Q274 619 261 623T229 635Q195 650 174 650Q144 650 140 619H82Q82 659 104
691ZM118 -12T76 20T34 136Q34 237 102 274T300 312V380Q300 421 282 443T217 465Q174 465 155 441T136 382V370H55Q54 376 54 392Q54 462 100 500T223 538Q302 538 342 500T382 391V96Q382 79 390 70T410 61H442V4Q420 -8 388 -8Q356 -8 335 9T305 57H300Q280
24 247 6T172 -12Q118 -12 76 20ZM218 61T243 76T284 120T300 191V239Q210 239 165 219T120 141Q120 98 137 80T191 61Q218 61 243 76Z" />
<glyph unicode="&#xe4;" glyph-name="adieresis" horiz-adv-x="456" d="M109 723H196V628H109V723ZM259 723H347V628H259V723ZM118 -12T76 20T34 136Q34 237 102 274T300 312V380Q300 421 282 443T217 465Q174 465 155 441T136 382V370H55Q54 376 54 392Q54 462
100 500T223 538Q302 538 342 500T382 391V96Q382 79 390 70T410 61H442V4Q420 -8 388 -8Q356 -8 335 9T305 57H300Q280 24 247 6T172 -12Q118 -12 76 20ZM218 61T243 76T284 120T300 191V239Q210 239 165 219T120 141Q120 98 137 80T191 61Q218 61 243 76Z" />
<glyph unicode="&#xe5;" glyph-name="aring" horiz-adv-x="456" d="M189 562T161 590T132 659Q132 699 160 726T228 754Q268 754 296 726T324 659Q324 619 296 591T228 562Q189 562 161 590ZM248 607T263 622T279 659Q279 680 264 694T228 709Q207 709 192 695T177
659Q177 638 192 623T228 607Q248 607 263 622ZM118 -12T76 20T34 136Q34 237 102 274T300 312V380Q300 421 282 443T217 465Q174 465 155 441T136 382V370H55Q54 376 54 392Q54 462 100 500T223 538Q302 538 342 500T382 391V96Q382 79 390 70T410 61H442V4Q420
-8 388 -8Q356 -8 335 9T305 57H300Q280 24 247 6T172 -12Q118 -12 76 20ZM218 61T243 76T284 120T300 191V239Q210 239 165 219T120 141Q120 98 137 80T191 61Q218 61 243 76Z" />
<glyph unicode="&#xe6;" glyph-name="ae" horiz-adv-x="729" d="M130 -12T85 19T40 136Q40 237 108 274T306 312V380Q306 421 288 443T223 465Q180 465 161 441T142 382V370H61Q60 376 60 392Q60 462 106 500T229 538Q326 538 364 478Q412 538 504 538Q592 538
634 480T677 291V239H392Q393 147 420 104T507 61Q547 61 571 93T596 179H677Q677 91 630 40T505 -12Q392 -12 345 68Q317 30 278 9T193 -12Q130 -12 85 19ZM591 312Q591 387 569 426T504 465Q451 465 425 428T393 312H591ZM240 61T273 93T306 183V239Q216 239
171 219T126 141Q126 98 143 80T197 61Q240 61 273 93Z" />
<glyph unicode="&#xe7;" glyph-name="ccedilla" horiz-adv-x="410" d="M149 -182T111 -174V-125H187Q205 -125 214 -120T223 -101Q223 -89 216 -83T189 -77H156L167 -6Q100 10 68 75T36 263Q36 405 80 471T216 538Q300 538 338 486T377 331H292Q292 402 276 433T216
465Q168 465 145 420T122 282V244Q122 152 144 107T216 61Q259 61 277 94T296 195H377Q377 107 339 49T221 -12L218 -36Q299 -42 299 -101Q299 -146 267 -164T195 -182Q149 -182 111 -174Z" />
<glyph unicode="&#xe8;" glyph-name="egrave" horiz-adv-x="456" d="M122 720L123 723H213L299 591H230L122 720ZM141 -12T92 53T42 263Q42 404 91 471T240 538Q328 538 370 480T413 291V239H128Q129 147 156 104T243 61Q283 61 307 93T332 179H413Q413 91 366
40T241 -12Q141 -12 92 53ZM327 312Q327 387 305 426T240 465Q187 465 161 428T129 312H327Z" />
<glyph unicode="&#xe9;" glyph-name="eacute" horiz-adv-x="456" d="M266 723H356L357 720L250 591H180L266 723ZM141 -12T92 53T42 263Q42 404 91 471T240 538Q328 538 370 480T413 291V239H128Q129 147 156 104T243 61Q283 61 307 93T332 179H413Q413 91 366
40T241 -12Q141 -12 92 53ZM327 312Q327 387 305 426T240 465Q187 465 161 428T129 312H327Z" />
<glyph unicode="&#xea;" glyph-name="ecircumflex" horiz-adv-x="456" d="M189 722H268L353 587H273L229 666L184 587H104L189 722ZM141 -12T92 53T42 263Q42 404 91 471T240 538Q328 538 370 480T413 291V239H128Q129 147 156 104T243 61Q283 61 307 93T332 179H413Q413
91 366 40T241 -12Q141 -12 92 53ZM327 312Q327 387 305 426T240 465Q187 465 161 428T129 312H327Z" />
<glyph unicode="&#xeb;" glyph-name="edieresis" horiz-adv-x="456" d="M109 723H196V628H109V723ZM259 723H347V628H259V723ZM141 -12T92 53T42 263Q42 404 91 471T240 538Q328 538 370 480T413 291V239H128Q129 147 156 104T243 61Q283 61 307 93T332 179H413Q413
91 366 40T241 -12Q141 -12 92 53ZM327 312Q327 387 305 426T240 465Q187 465 161 428T129 312H327Z" />
<glyph unicode="&#xec;" glyph-name="igrave" horiz-adv-x="228" d="M-3 720L-2 723H88L174 591H105L-3 720ZM73 526H155V0H73V526Z" />
<glyph unicode="&#xed;" glyph-name="iacute" horiz-adv-x="228" d="M141 723H230L231 720L124 591H55L141 723ZM73 526H155V0H73V526Z" />
<glyph unicode="&#xee;" glyph-name="icircumflex" horiz-adv-x="228" d="M76 722H154L239 587H159L115 666L70 587H-11L76 722ZM73 526H155V0H73V526Z" />
<glyph unicode="&#xef;" glyph-name="idieresis" horiz-adv-x="228" d="M-4 723H83V628H-4V723ZM146 723H233V628H146V723ZM73 526H155V0H73V526Z" />
<glyph unicode="&#xf0;" glyph-name="eth" horiz-adv-x="456" d="M135 -12T88 55T40 263Q40 403 88 470T217 538Q241 538 267 526V527Q257 546 242 567T211 610L93 600V660L164 666L150 682Q139 695 117 719L119 723H207Q245 682 252 674L369 685V625L298 618Q355
541 385 454T416 263Q416 123 369 56T228 -12Q135 -12 88 55ZM330 61T330 244V282Q330 373 304 419T228 465Q126 465 126 282V244Q126 61 228 61Q330 61 330 244Z" />
<glyph unicode="&#xf1;" glyph-name="ntilde" horiz-adv-x="456" d="M82 659T104 691T167 723Q182 723 195 719T227 707Q261 692 282 692Q312 692 316 723H374Q374 683 352 651T289 619Q274 619 261 623T229 635Q195 650 174 650Q144 650 140 619H82Q82 659 104
691ZM60 526H122L133 465H139Q180 538 266 538Q329 538 362 501T396 379V0H314V373Q314 424 295 444T240 465Q199 465 171 426T142 321V0H60V526Z" />
<glyph unicode="&#xf2;" glyph-name="ograve" horiz-adv-x="456" d="M110 720L111 723H202L288 591H219L110 720ZM135 -12T88 55T40 263Q40 403 87 470T228 538Q321 538 368 471T416 263Q416 123 369 56T228 -12Q135 -12 88 55ZM330 61T330 244V282Q330 465 228
465Q126 465 126 282V244Q126 61 228 61Q330 61 330 244Z" />
<glyph unicode="&#xf3;" glyph-name="oacute" horiz-adv-x="456" d="M254 723H344L345 720L238 591H168L254 723ZM135 -12T88 55T40 263Q40 403 87 470T228 538Q321 538 368 471T416 263Q416 123 369 56T228 -12Q135 -12 88 55ZM330 61T330 244V282Q330 465 228
465Q126 465 126 282V244Q126 61 228 61Q330 61 330 244Z" />
<glyph unicode="&#xf4;" glyph-name="ocircumflex" horiz-adv-x="456" d="M189 722H268L353 587H273L229 666L184 587H104L189 722ZM135 -12T88 55T40 263Q40 403 87 470T228 538Q321 538 368 471T416 263Q416 123 369 56T228 -12Q135 -12 88 55ZM330 61T330 244V282Q330
465 228 465Q126 465 126 282V244Q126 61 228 61Q330 61 330 244Z" />
<glyph unicode="&#xf5;" glyph-name="otilde" horiz-adv-x="456" d="M82 659T104 691T167 723Q182 723 195 719T227 707Q261 692 282 692Q312 692 316 723H374Q374 683 352 651T289 619Q274 619 261 623T229 635Q195 650 174 650Q144 650 140 619H82Q82 659 104
691ZM135 -12T88 55T40 263Q40 403 87 470T228 538Q321 538 368 471T416 263Q416 123 369 56T228 -12Q135 -12 88 55ZM330 61T330 244V282Q330 465 228 465Q126 465 126 282V244Q126 61 228 61Q330 61 330 244Z" />
<glyph unicode="&#xf6;" glyph-name="odieresis" horiz-adv-x="456" d="M109 723H196V628H109V723ZM259 723H347V628H259V723ZM135 -12T88 55T40 263Q40 403 87 470T228 538Q321 538 368 471T416 263Q416 123 369 56T228 -12Q135 -12 88 55ZM330 61T330 244V282Q330
465 228 465Q126 465 126 282V244Q126 61 228 61Q330 61 330 244Z" />
<glyph unicode="&#xf7;" glyph-name="divide" horiz-adv-x="549" d="M232 460H316V369H232V460ZM43 297H505V213H43V297ZM232 141H316V51H232V141Z" />
<glyph unicode="&#xf8;" glyph-name="oslash" horiz-adv-x="501" d="M109 55Q62 123 62 263Q62 403 109 470T250 538Q314 538 355 507L383 558H438L390 471Q438 404 438 263Q438 123 391 56T250 -12Q185 -12 144 19L117 -32H62L109 55ZM316 435Q291 465 250 465Q148
465 148 282V244Q148 184 158 145L316 435ZM352 61T352 244V282Q352 339 341 380L184 91Q208 61 250 61Q352 61 352 244Z" />
<glyph unicode="&#xf9;" glyph-name="ugrave" horiz-adv-x="456" d="M110 720L111 723H202L288 591H219L110 720ZM127 -12T94 25T60 147V526H142V153Q142 102 161 82T216 61Q257 61 285 100T314 205V526H396V0H334L323 61H317Q276 -12 190 -12Q127 -12 94 25Z" />
<glyph unicode="&#xfa;" glyph-name="uacute" horiz-adv-x="456" d="M254 723H344L345 720L238 591H168L254 723ZM127 -12T94 25T60 147V526H142V153Q142 102 161 82T216 61Q257 61 285 100T314 205V526H396V0H334L323 61H317Q276 -12 190 -12Q127 -12 94 25Z" />
<glyph unicode="&#xfb;" glyph-name="ucircumflex" horiz-adv-x="456" d="M189 722H268L353 587H273L229 666L184 587H104L189 722ZM127 -12T94 25T60 147V526H142V153Q142 102 161 82T216 61Q257 61 285 100T314 205V526H396V0H334L323 61H317Q276 -12 190 -12Q127
-12 94 25Z" />
<glyph unicode="&#xfc;" glyph-name="udieresis" horiz-adv-x="456" d="M109 723H196V628H109V723ZM259 723H347V628H259V723ZM127 -12T94 25T60 147V526H142V153Q142 102 161 82T216 61Q257 61 285 100T314 205V526H396V0H334L323 61H317Q276 -12 190 -12Q127
-12 94 25Z" />
<glyph unicode="&#xfd;" glyph-name="yacute" horiz-adv-x="410" d="M231 723H321L322 720L215 591H146L231 723ZM61 -182T38 -174V-117H67Q146 -117 171 0L10 526H100L189 212L216 118H220L243 214L318 526H401L267 27Q241 -71 201 -126T97 -182Q61 -182 38 -174Z" />
<glyph unicode="&#xfe;" glyph-name="thorn" horiz-adv-x="456" d="M60 723H142V480L146 479Q162 506 190 522T253 538Q331 538 373 470T416 262Q416 126 373 57T259 -12Q221 -12 191 3T147 46H142V-173H60V723ZM284 61T307 104T330 244V282Q330 379 307 422T236
465Q142 465 142 282V244Q142 61 236 61Q284 61 307 104Z" />
<glyph unicode="&#xff;" glyph-name="ydieresis" horiz-adv-x="410" d="M86 723H173V628H86V723ZM236 723H324V628H236V723ZM61 -182T38 -174V-117H67Q146 -117 171 0L10 526H100L189 212L216 118H220L243 214L318 526H401L267 27Q241 -71 201 -126T97 -182Q61
-182 38 -174Z" />
<glyph unicode="&#x2013;" glyph-name="endash" horiz-adv-x="456" d="M0 308H455V233H0V308Z" />
<glyph unicode="&#x2014;" glyph-name="emdash" horiz-adv-x="820" d="M0 308H820V233H0V308Z" />
<glyph unicode="&#x2018;" glyph-name="quoteleft" horiz-adv-x="182" d="M41 553L89 686H141L101 562H141V454H41V553Z" />
<glyph unicode="&#x2019;" glyph-name="quoteright" horiz-adv-x="182" d="M81 578H41V686H141V587L93 454H41L81 578Z" />
<glyph unicode="&#x201a;" glyph-name="quotesinglbase" horiz-adv-x="182" d="M77 0H37V108H137V9L89 -124H37L77 0Z" />
<glyph unicode="&#x201c;" glyph-name="quotedblleft" horiz-adv-x="273" d="M22 553L70 686H122L82 562H122V454H22V553ZM149 553L197 686H249L209 562H249V454H149V553Z" />
<glyph unicode="&#x201d;" glyph-name="quotedblright" horiz-adv-x="273" d="M64 578H24V686H124V587L76 454H24L64 578ZM191 578H151V686H251V587L203 454H151L191 578Z" />
<glyph unicode="&#x201e;" glyph-name="quotedblbase" horiz-adv-x="273" d="M64 0H24V108H124V9L76 -124H24L64 0ZM191 0H151V108H251V9L203 -124H151L191 0Z" />
<glyph unicode="&#x2022;" glyph-name="bullet" horiz-adv-x="287" d="M98 232T66 265T34 344Q34 390 66 422T143 455Q189 455 221 423T253 344Q253 298 221 265T143 232Q98 232 66 265Z" />
<glyph unicode="&#x2039;" glyph-name="guilsinglleft" horiz-adv-x="273" d="M29 326L170 526H241L128 326L241 126H170L29 326Z" />
<glyph unicode="&#x203a;" glyph-name="guilsinglright" horiz-adv-x="273" d="M145 326L32 526H103L244 326L103 126H32L145 326Z" />
</font>
</defs>
</svg>
