<?xml version="1.0" standalone="no"?>
<!DOCTYPE svg PUBLIC "-//W3C//DTD SVG 1.1//EN" "http://www.w3.org/Graphics/SVG/1.1/DTD/svg11.dtd">
<svg xmlns="http://www.w3.org/2000/svg">
<defs >
<font id="RussoOne" horiz-adv-x="599" ><font-face
    font-family="Russo One"
    units-per-em="1000"
    panose-1="2 0 5 3 5 0 0 2 0 4"
    ascent="926"
    descent="-279"
    alphabetic="0" />
<glyph unicode=" " glyph-name="space" horiz-adv-x="300" />
<glyph unicode="!" glyph-name="exclam" horiz-adv-x="280" d="M50 150H230V0H50V150ZM70 210L50 420V700H230V420L210 210H70Z" />
<glyph unicode="&quot;" glyph-name="quotedbl" horiz-adv-x="400" d="M50 450L30 610V700H180V610L160 450H50ZM240 450L220 610V700H370V610L350 450H240Z" />
<glyph unicode="#" glyph-name="numbersign" horiz-adv-x="730" d="M70 0L102 150H10V280H130L160 420H50V550H188L220 700H380L348 550H468L500 700H660L628 550H720V420H600L570 280H680V150H542L510 0H350L382 150H262L230 0H70ZM290 280H410L440 420H320L290 280Z" />
<glyph unicode="$" glyph-name="dollar" horiz-adv-x="629" d="M39 145Q271 130 369 130Q392 130 405 143T419 180V280H230Q125 280 78 327T30 480V500Q30 605 77 652T230 700H250L240 790H390L380 700H540V560H270Q210 560 210 500V480Q210 420 270 420H409Q507
420 553 374T599 230V180Q599 82 554 36T410 -10H382L390 -100H240L250 -5Q134 1 39 10V145Z" />
<glyph unicode="%" glyph-name="percent" horiz-adv-x="860" d="M150 0L550 700H700L310 0H150ZM360 465Q360 405 328 373T235 340H145Q85 340 53 372T20 465V585Q20 645 52 677T145 710H235Q295 710 327 678T360 585V465ZM240 585Q240 620 205 620H175Q140 620
140 585V465Q140 430 175 430H205Q240 430 240 465V585ZM840 115Q840 55 808 23T715 -10H625Q565 -10 533 22T500 115V235Q500 295 532 327T625 360H715Q775 360 807 328T840 235V115ZM720 235Q720 270 685 270H655Q620 270 620 235V115Q620 80 655 80H685Q720
80 720 115V235Z" />
<glyph unicode="&amp;" glyph-name="ampersand" horiz-adv-x="720" d="M630 10Q403 -10 220 -10Q122 -10 76 36T30 180Q30 256 68 306Q98 346 150 360Q105 375 78 412T50 510V520Q50 611 96 655T240 700H560V560H290Q230 560 230 500V470Q230 410 290 410H450L465
490H630V410H710V270H630V10ZM260 130Q370 130 450 135V270H270Q210 270 210 210V180Q210 157 223 144T260 130Z" />
<glyph unicode="&apos;" glyph-name="quotesingle" horiz-adv-x="210" d="M50 450L30 610V700H180V610L160 450H50Z" />
<glyph unicode="(" glyph-name="parenleft" horiz-adv-x="325" d="M210 295Q210 31 335 -160L250 -230Q144 -132 87 4T30 295Q30 450 87 586T250 820L335 750Q210 559 210 295Z" />
<glyph unicode=")" glyph-name="parenright" horiz-adv-x="325" d="M115 295Q115 559 -10 750L75 820Q181 722 238 586T295 295Q295 140 238 4T75 -230L-10 -160Q115 31 115 295Z" />
<glyph unicode="*" glyph-name="asterisk" horiz-adv-x="495" d="M310 365V240H185V365L70 300L10 400L130 470L10 540L70 640L185 575V700H310V575L425 640L485 540L365 470L485 400L425 300L310 365Z" />
<glyph unicode="+" glyph-name="plus" horiz-adv-x="540" d="M340 420H510V280H340V110H200V280H30V420H200V590H340V420Z" />
<glyph unicode="," glyph-name="comma" horiz-adv-x="240" d="M30 150H210V10L140 -100H50L90 0H30V150Z" />
<glyph unicode="-" glyph-name="hyphen" horiz-adv-x="470" d="M30 280V420H440V280H30Z" />
<glyph unicode="." glyph-name="period" horiz-adv-x="240" d="M30 150H210V0H30V150Z" />
<glyph unicode="/" glyph-name="slash" horiz-adv-x="470" d="M0 0L300 700H470L180 0H0Z" />
<glyph unicode="0" glyph-name="zero" horiz-adv-x="670" d="M450 510Q450 570 390 570H280Q220 570 220 510V190Q220 130 280 130H390Q450 130 450 190V510ZM630 190Q630 85 583 38T430 -10H240Q135 -10 88 37T40 190V510Q40 615 87 662T240 710H430Q535 710
582 663T630 510V190Z" />
<glyph unicode="1" glyph-name="one" horiz-adv-x="405" d="M165 0V545L50 505L0 620L185 700H345V0H165Z" />
<glyph unicode="2" glyph-name="two" horiz-adv-x="590" d="M560 480Q560 395 488 333Q466 314 440 295L225 140H560V0H20V190L380 450V500Q380 560 320 560H40V700H360Q465 700 512 653T560 500V480Z" />
<glyph unicode="3" glyph-name="three" horiz-adv-x="610" d="M390 -10Q223 -10 20 10V145Q241 130 350 130Q373 130 386 143T400 180V220Q400 280 340 280H130V420H320Q380 420 380 480V500Q380 560 320 560H30V700H370Q468 700 514 656T560 520Q560 460 533
423T460 370Q541 348 570 262Q580 231 580 190V180Q580 82 534 36T390 -10Z" />
<glyph unicode="4" glyph-name="four" horiz-adv-x="650" d="M390 140H20V280L260 700H460L220 280H390V430H570V280H640V140H570V0H390V140Z" />
<glyph unicode="5" glyph-name="five" horiz-adv-x="600" d="M390 -10Q223 -10 20 10V145Q241 130 350 130Q373 130 386 143T400 180V230Q400 290 340 290H50V700H530V560H230V430H390Q488 430 534 386T580 250V180Q580 82 534 36T390 -10Z" />
<glyph unicode="6" glyph-name="six" horiz-adv-x="630" d="M230 710Q367 710 560 690V555Q505 558 467 560T404 564T355 568Q315 570 281 570Q220 570 220 520V430Q317 450 390 450H460Q528 450 569 409T610 300V170Q610 79 564 35T420 -10H230Q132 -10 86 34T40
170V520Q40 618 86 664T230 710ZM340 310Q302 310 271 306T220 300V190Q220 130 280 130H370Q430 130 430 190V275Q430 290 420 300T395 310H340Z" />
<glyph unicode="7" glyph-name="seven" horiz-adv-x="560" d="M10 700H550V560L320 0H120L360 560H10V700Z" />
<glyph unicode="8" glyph-name="eight" horiz-adv-x="670" d="M270 280Q210 280 210 220V180Q210 157 223 144T260 130H410Q433 130 446 143T460 180V220Q460 280 400 280H270ZM290 570Q230 570 230 510V480Q230 420 290 420H380Q440 420 440 480V510Q440 570
380 570H290ZM640 180Q640 82 594 36T450 -10H220Q122 -10 76 36T30 180V190Q30 266 68 316Q98 356 150 370Q105 385 78 422T50 520V530Q50 621 96 665T240 710H430Q528 710 574 666T620 530V520Q620 460 593 423T520 370Q601 348 630 262Q640 231 640 190V180Z"
/>
<glyph unicode="9" glyph-name="nine" horiz-adv-x="630" d="M70 145Q276 130 360 130Q383 130 396 143T410 180V270Q313 250 240 250H170Q102 250 61 291T20 400V530Q20 621 66 665T210 710H400Q498 710 544 666T590 530V180Q590 82 544 36T400 -10Q263 -10 70
10V145ZM290 390Q347 390 410 400V510Q410 570 350 570H260Q200 570 200 510V425Q200 410 210 400T235 390H290Z" />
<glyph unicode=":" glyph-name="colon" horiz-adv-x="240" d="M30 150H210V0H30V150ZM30 530H210V380H30V530Z" />
<glyph unicode=";" glyph-name="semicolon" horiz-adv-x="240" d="M30 530H210V380H30V530ZM30 150H210V10L140 -100H50L100 0H30V150Z" />
<glyph unicode="&lt;" glyph-name="less" horiz-adv-x="510" d="M470 150V0L20 200V330L470 530V380L185 265L470 150Z" />
<glyph unicode="=" glyph-name="equal" horiz-adv-x="490" d="M40 390V520H450V390H40ZM40 180V310H450V180H40Z" />
<glyph unicode="&gt;" glyph-name="greater" horiz-adv-x="510" d="M325 265L40 380V530L490 330V200L40 0V150L325 265Z" />
<glyph unicode="?" glyph-name="question" horiz-adv-x="580" d="M10 690Q203 710 370 710Q468 710 514 664T560 520V475Q560 400 530 361Q500 321 425 295L325 260V210H145V350L380 435V520Q380 543 367 556T320 570Q260 570 165 564T10 555V690ZM145 150H325V0H145V150Z"
/>
<glyph unicode="@" glyph-name="at" horiz-adv-x="770" d="M650 10Q437 -10 260 -10Q154 -10 97 47T40 210V490Q40 596 97 653T260 710H580Q655 710 697 668T740 550V180H600L590 230Q546 199 503 185T430 170H410Q342 170 301 211T260 320V355Q260 423 301 464T410
505H580V535Q580 554 567 567T535 580H270Q240 580 220 560T200 510V190Q200 160 220 140T270 120Q399 120 650 135V10ZM480 305Q523 305 580 325V380H465Q450 380 440 370T430 345V340Q430 325 440 315T465 305H480Z" />
<glyph unicode="A" glyph-name="A" horiz-adv-x="710" d="M185 0H-10L255 700H455L720 0H525L480 125H230L185 0ZM275 255H435L355 490L275 255Z" />
<glyph unicode="B" glyph-name="B" horiz-adv-x="710" d="M60 700H460Q558 700 604 656T650 520Q650 460 624 423T560 370Q641 348 670 262Q680 231 680 190Q680 92 634 46T490 0H60V700ZM500 220Q500 280 440 280H240V140H440Q500 140 500 200V220ZM470 500Q470
560 410 560H240V420H410Q470 420 470 480V500Z" />
<glyph unicode="C" glyph-name="C" horiz-adv-x="620" d="M600 10Q377 -10 230 -10Q132 -10 86 36T40 180V500Q40 605 87 652T240 700H600V560H280Q220 560 220 500V180Q220 157 233 144T268 130T314 130T366 132T420 134T491 138T600 145V10Z" />
<glyph unicode="D" glyph-name="D" horiz-adv-x="720" d="M450 700Q563 700 621 642T680 470V230Q680 117 622 59T450 0H60V700H450ZM500 470Q500 560 410 560H240V140H410Q500 140 500 230V470Z" />
<glyph unicode="E" glyph-name="E" horiz-adv-x="635" d="M615 0H60V700H615V560H240V425H535V285H240V140H615V0Z" />
<glyph unicode="F" glyph-name="F" horiz-adv-x="625" d="M240 0H60V700H615V560H240V395H535V255H240V0Z" />
<glyph unicode="G" glyph-name="G" horiz-adv-x="700" d="M660 15Q426 -10 230 -10Q132 -10 86 36T40 180V500Q40 605 87 652T240 700H600V560H280Q220 560 220 500V180Q220 157 233 144T270 130Q385 130 480 135V280H350V400H660V15Z" />
<glyph unicode="H" glyph-name="H" horiz-adv-x="730" d="M670 0H490V285H240V0H60V700H240V425H490V700H670V0Z" />
<glyph unicode="I" glyph-name="I" horiz-adv-x="420" d="M390 0H30V140H120V560H30V700H390V560H300V140H390V0Z" />
<glyph unicode="J" glyph-name="J" horiz-adv-x="460" d="M400 82T354 36T213 -10T10 0V135Q88 130 170 130Q193 130 206 143T220 180V560H90V700H400V180Q400 82 354 36Z" />
<glyph unicode="K" glyph-name="K" horiz-adv-x="676" d="M240 0H60V700H240V425H330L486 700H676L480 355L675 0H485L330 285H240V0Z" />
<glyph unicode="L" glyph-name="L" horiz-adv-x="615" d="M240 140H605V0H60V700H240V140Z" />
<glyph unicode="M" glyph-name="M" horiz-adv-x="900" d="M660 390L520 140H380L240 390V0H60V700H250L450 330L650 700H840V0H660V390Z" />
<glyph unicode="N" glyph-name="N" horiz-adv-x="730" d="M670 0H480L240 420V0H60V700H250L490 280V700H670V0Z" />
<glyph unicode="O" glyph-name="O" horiz-adv-x="730" d="M510 510Q510 570 450 570H280Q220 570 220 510V190Q220 130 280 130H450Q510 130 510 190V510ZM690 190Q690 85 643 38T490 -10H240Q135 -10 88 37T40 190V510Q40 615 87 662T240 710H490Q595 710 642
663T690 510V190Z" />
<glyph unicode="P" glyph-name="P" horiz-adv-x="710" d="M60 700H480Q585 700 632 653T680 500V400Q680 295 633 248T480 200H240V0H60V700ZM500 500Q500 560 440 560H240V340H440Q500 340 500 400V500Z" />
<glyph unicode="Q" glyph-name="Q" horiz-adv-x="730" d="M550 -160Q480 -170 416 -170T311 -129T270 -20V-10H240Q135 -10 88 37T40 190V510Q40 615 87 662T240 710H490Q595 710 642 663T690 510V190Q690 85 643 38T490 -10H440V-20Q440 -35 450 -45T475 -55H550V-160ZM510
510Q510 570 450 570H280Q220 570 220 510V190Q220 130 280 130H450Q510 130 510 190V510Z" />
<glyph unicode="R" glyph-name="R" horiz-adv-x="720" d="M60 700H480Q585 700 632 653T680 500V410Q680 327 653 281T565 220L690 0H495L380 210H240V0H60V700ZM500 500Q500 560 440 560H240V350H440Q500 350 500 410V500Z" />
<glyph unicode="S" glyph-name="S" horiz-adv-x="670" d="M39 145Q313 130 410 130Q433 130 446 143T460 180V270H230Q125 270 78 317T30 470V500Q30 605 77 652T230 700H581V560H270Q210 560 210 500V480Q210 420 270 420H450Q548 420 594 374T640 230V180Q640
82 594 36T450 -10Q399 -10 342 -8L250 -4Q148 1 39 10V145Z" />
<glyph unicode="T" glyph-name="T" horiz-adv-x="620" d="M400 0H220V560H10V700H610V560H400V0Z" />
<glyph unicode="U" glyph-name="U" horiz-adv-x="750" d="M510 700H690V190Q690 85 643 38T490 -10H260Q155 -10 108 37T60 190V700H240V190Q240 130 300 130H450Q510 130 510 190V700Z" />
<glyph unicode="V" glyph-name="V" horiz-adv-x="710" d="M355 210L525 700H720L455 0H255L-10 700H185L355 210Z" />
<glyph unicode="W" glyph-name="W" horiz-adv-x="980" d="M570 700L690 250L795 700H990L800 0H610L490 435L370 0H180L-10 700H185L290 250L410 700H570Z" />
<glyph unicode="X" glyph-name="X" horiz-adv-x="660" d="M465 700H665L440 350L670 0H470L330 220L190 0H-10L220 350L-5 700H194L330 480L465 700Z" />
<glyph unicode="Y" glyph-name="Y" horiz-adv-x="670" d="M-20 700H170L335 360L500 700H690L425 185V0H245V185L-20 700Z" />
<glyph unicode="Z" glyph-name="Z" horiz-adv-x="610" d="M590 560L240 140H590V0H20V140L370 560H20V700H590V560Z" />
<glyph unicode="[" glyph-name="bracketleft" horiz-adv-x="360" d="M60 800H360V660H240V-70H360V-210H60V800Z" />
<glyph unicode="\" glyph-name="backslash" horiz-adv-x="470" d="M290 0L0 700H170L470 0H290Z" />
<glyph unicode="]" glyph-name="bracketright" horiz-adv-x="360" d="M300 -210H0V-70H120V660H0V800H300V-210Z" />
<glyph unicode="^" glyph-name="asciicircum" horiz-adv-x="510" d="M330 700L510 400H360L255 580L150 400H0L180 700H330Z" />
<glyph unicode="_" glyph-name="underscore" horiz-adv-x="470" d="M30 -190V-50H440V-190H30Z" />
<glyph unicode="`" glyph-name="grave" horiz-adv-x="250" d="M110 540L0 710H170L230 540H110Z" />
<glyph unicode="a" glyph-name="a" horiz-adv-x="595" d="M260 130Q313 130 380 150V210H235Q220 210 210 200T200 175V165Q200 150 210 140T235 130H260ZM75 520Q258 540 405 540Q473 540 514 499T555 390V0H400L390 50Q343 19 294 5T210 -10H175Q107 -10 66
31T25 140V185Q25 253 66 294T175 335H380V375Q380 390 370 400T345 410Q280 410 202 404T75 395V520Z" />
<glyph unicode="b" glyph-name="b" horiz-adv-x="620" d="M405 370Q405 385 395 395T370 405H345Q303 405 273 401T225 395V135H365Q405 135 405 175V370ZM225 520Q322 540 395 540H430Q498 540 539 499T580 390V160Q580 85 538 43T420 0H50V700H225V520Z" />
<glyph unicode="c" glyph-name="c" horiz-adv-x="550" d="M520 10Q333 -10 190 -10Q122 -10 81 31T40 140V370Q40 445 82 487T200 530H520V395H255Q215 395 215 355V160Q215 145 225 135T250 125Q340 125 520 140V10Z" />
<glyph unicode="d" glyph-name="d" horiz-adv-x="630" d="M425 0L415 50Q368 19 319 5T235 -10H190Q122 -10 81 31T40 140V370Q40 445 82 487T200 530H405V700H580V0H425ZM285 135Q338 135 405 155V395H255Q215 395 215 355V170Q215 155 225 145T250 135H285Z" />
<glyph unicode="e" glyph-name="e" horiz-adv-x="600" d="M255 415Q215 415 215 375V320H385V375Q385 415 345 415H255ZM540 10Q347 -10 190 -10Q122 -10 81 31T40 140V380Q40 455 82 497T200 540H400Q475 540 517 498T560 380V195H215V155Q215 140 225 130T250
120Q349 120 540 135V10Z" />
<glyph unicode="f" glyph-name="f" horiz-adv-x="450" d="M480 565Q451 567 403 571T320 575T275 565T265 540V490H430V355H265V0H90V355H20V490H90V560Q90 628 131 669T240 710Q301 710 369 706T480 700V565Z" />
<glyph unicode="g" glyph-name="g" horiz-adv-x="620" d="M395 40Q298 20 225 20H190Q122 20 81 61T40 170V370Q40 445 82 487T200 530H570V-30Q570 -98 529 -139T420 -180Q263 -180 70 -160V-30Q261 -45 360 -45Q375 -45 385 -35T395 -10V40ZM275 155Q338 155
395 165V395H255Q215 395 215 355V190Q215 175 225 165T250 155H275Z" />
<glyph unicode="h" glyph-name="h" horiz-adv-x="630" d="M225 520Q322 540 395 540H440Q508 540 549 499T590 390V0H415V370Q415 385 405 395T380 405H345Q307 405 276 401T225 395V0H50V700H225V520Z" />
<glyph unicode="i" glyph-name="i" horiz-adv-x="320" d="M270 510V0H95V375H20V510H270ZM95 710H270V570H95V710Z" />
<glyph unicode="j" glyph-name="j" horiz-adv-x="300" d="M100 -180Q7 -180 -90 -170V-40H40Q55 -40 65 -30T75 -5V510H250V-30Q250 -98 209 -139T100 -180ZM75 710H250V570H75V710Z" />
<glyph unicode="k" glyph-name="k" horiz-adv-x="600" d="M225 210V0H50V700H225V345H305L415 530H600L450 275L600 0H415L300 210H225Z" />
<glyph unicode="l" glyph-name="l" horiz-adv-x="340" d="M320 0Q253 -10 193 -10T91 31T50 140V700H225V165Q225 150 235 140T260 130H320V0Z" />
<glyph unicode="m" glyph-name="m" horiz-adv-x="925" d="M405 540Q486 540 530 480Q576 511 629 525T725 540H735Q803 540 844 499T885 390V0H710V360Q710 375 700 385T675 395H670Q625 395 555 375V0H380V360Q380 375 370 385T345 395H340Q295 395 225 375V0H50V530H205L215
480Q262 511 311 525T395 540H405Z" />
<glyph unicode="n" glyph-name="n" horiz-adv-x="630" d="M345 395Q292 395 225 375V0H50V530H205L215 480Q262 511 311 525T395 540H440Q508 540 549 499T590 390V0H415V360Q415 375 405 385T380 395H345Z" />
<glyph unicode="o" glyph-name="o" horiz-adv-x="630" d="M590 150Q590 75 548 33T430 -10H200Q125 -10 83 32T40 150V380Q40 455 82 497T200 540H430Q505 540 547 498T590 380V150ZM415 365Q415 405 375 405H255Q215 405 215 365V165Q215 125 255 125H375Q415
125 415 165V365Z" />
<glyph unicode="p" glyph-name="p" horiz-adv-x="630" d="M345 395Q292 395 225 375V135H375Q415 135 415 175V360Q415 375 405 385T380 395H345ZM225 0V-170H50V530H205L215 480Q262 511 311 525T395 540H440Q508 540 549 499T590 390V160Q590 85 548 43T430 0H225Z" />
<glyph unicode="q" glyph-name="q" horiz-adv-x="620" d="M275 125Q338 125 395 135V395H255Q215 395 215 355V160Q215 145 225 135T250 125H275ZM395 10Q298 -10 225 -10H190Q122 -10 81 31T40 140V370Q40 445 82 487T200 530H570V-170H395V10Z" />
<glyph unicode="r" glyph-name="r" horiz-adv-x="460" d="M355 385Q292 385 225 355V0H50V530H205L215 465Q301 540 395 540H440V385H355Z" />
<glyph unicode="s" glyph-name="s" horiz-adv-x="580" d="M30 140Q233 125 350 125Q365 125 375 135T385 160V195H170Q102 195 61 236T20 345V380Q20 448 61 489T170 530H510V400H230Q215 400 205 390T195 365Q195 350 205 340T230 330H410Q478 330 519 289T560
180V140Q560 72 519 31T410 -10Q233 -10 30 10V140Z" />
<glyph unicode="t" glyph-name="t" horiz-adv-x="440" d="M420 0Q323 -10 230 -10Q162 -10 121 31T80 140V395H20V530H80L100 650H255V530H380V395H255V165Q255 150 265 140T290 130H420V0Z" />
<glyph unicode="u" glyph-name="u" horiz-adv-x="640" d="M295 135Q348 135 415 155V530H590V0H435L425 50Q378 19 329 5T245 -10H200Q132 -10 91 31T50 140V530H225V170Q225 155 235 145T260 135H295Z" />
<glyph unicode="v" glyph-name="v" horiz-adv-x="580" d="M405 530H590L390 0H190L-10 530H175L290 170L405 530Z" />
<glyph unicode="w" glyph-name="w" horiz-adv-x="880" d="M610 210L700 530H890L725 0H540L440 320L340 0H155L-10 530H180L270 210L360 530H520L610 210Z" />
<glyph unicode="x" glyph-name="x" horiz-adv-x="550" d="M360 530H555L395 265L560 0H365L275 160L185 0H-10L155 265L-5 530H190L275 370L360 530Z" />
<glyph unicode="y" glyph-name="y" horiz-adv-x="570" d="M190 -180Q137 -180 60 -170V-40H150Q188 -40 199 -19T195 40L-10 530H175L300 190L405 530H590L390 -20Q361 -99 315 -139T190 -180Z" />
<glyph unicode="z" glyph-name="z" horiz-adv-x="535" d="M515 395L240 135H515V0H20V135L295 395H20V530H515V395Z" />
<glyph unicode="{" glyph-name="braceleft" horiz-adv-x="370" d="M180 295Q270 257 270 170V-35Q270 -50 280 -60T305 -70H370V-210H240Q172 -210 131 -169T90 -60V190Q90 205 80 215T55 225H10V365H55Q70 365 80 375T90 400V650Q90 718 131 759T240 800H370V660H305Q290
660 280 650T270 625V420Q270 333 180 295Z" />
<glyph unicode="|" glyph-name="bar" horiz-adv-x="300" d="M240 -170H60V700H240V-170Z" />
<glyph unicode="}" glyph-name="braceright" horiz-adv-x="370" d="M190 295Q100 333 100 420V625Q100 640 90 650T65 660H0V800H130Q198 800 239 759T280 650V400Q280 385 290 375T315 365H360V225H315Q300 225 290 215T280 190V-60Q280 -128 239 -169T130 -210H0V-70H65Q80
-70 90 -60T100 -35V170Q100 257 190 295Z" />
<glyph unicode="~" glyph-name="asciitilde" horiz-adv-x="501" d="M175 305Q129 305 85 250L10 330Q36 395 94 435Q123 455 160 455T217 446T254 425T286 405T325 395Q371 395 416 450L491 370Q463 303 406 264Q377 245 340 245T283 254T246 275T213 295T175 305Z" />
<glyph unicode="&#xa0;" glyph-name="space" horiz-adv-x="300" />
<glyph unicode="&#xa1;" glyph-name="exclamdown" horiz-adv-x="280" d="M50 530H230V380H50V530ZM210 320L230 110V-170H50V110L70 320H210Z" />
<glyph unicode="&#xa2;" glyph-name="cent" horiz-adv-x="550" d="M520 10Q455 3 370 -2L380 -90H230L239 -9Q226 -10 214 -10H190Q122 -10 81 31T40 140V370Q40 445 82 487T200 530H240L230 620H380L370 530H520V395H255Q215 395 215 355V160Q215 145 225 135T250
125Q340 125 520 140V10Z" />
<glyph unicode="&#xa3;" glyph-name="sterling" horiz-adv-x="565" d="M260 240Q260 178 230 140H555V0H20V120Q85 120 85 175V295H15V430H85V560Q85 628 126 669T235 710Q302 710 378 706T505 700V565Q470 567 436 570Q363 575 295 575Q280 575 270 565T260 540V430H415V295H260V240Z"
/>
<glyph unicode="&#xa4;" glyph-name="currency" horiz-adv-x="730" d="M260 0H80V110H10L20 215H80V255H10L20 364H80V700H500Q605 700 652 653T700 500V460Q700 354 653 305T500 255H260V215H520V110H260V0ZM520 500Q520 560 460 560H260V360H460Q520 360 520 420V500Z" />
<glyph unicode="&#xa5;" glyph-name="yen" horiz-adv-x="670" d="M245 0V130H90V235H220L200 275H90V380H145L-20 700H170L335 360L500 700H690L525 380H580V275H470L450 235H580V130H425V0H245Z" />
<glyph unicode="&#xa6;" glyph-name="brokenbar" horiz-adv-x="300" d="M240 330H60V700H240V330ZM60 -170V200H240V-170H60Z" />
<glyph unicode="&#xa7;" glyph-name="section" horiz-adv-x="590" d="M90 405Q30 443 30 510V550Q30 618 71 659T180 700H500V570H245Q230 570 220 560T210 535V515Q210 486 250 480L410 455Q482 444 521 407T560 305V245Q560 207 545 176T500 130Q560 92 560
25V-30Q560 -98 519 -139T410 -180Q237 -180 40 -160V-25Q228 -40 345 -40Q360 -40 370 -30T380 -5V45L180 75Q108 86 69 123T30 225V290Q30 328 45 359T90 405ZM210 245Q210 216 250 210L345 195Q360 195 370 205T380 230V320L245 340Q230 340 220 330T210 305V245Z"
/>
<glyph unicode="&#xa8;" glyph-name="dieresis" horiz-adv-x="400" d="M230 805H400V665H230V805ZM0 805H170V665H0V805Z" />
<glyph unicode="&#xa9;" glyph-name="copyright" horiz-adv-x="850" d="M20 490Q20 596 77 653T240 710H610Q716 710 773 653T830 490V210Q830 104 773 47T610 -10H240Q134 -10 77 47T20 210V490ZM680 520Q680 550 660 570T610 590H240Q210 590 190 570T170 520V180Q170
150 190 130T240 110H610Q640 110 660 130T680 180V520ZM415 255Q482 255 595 270V170Q464 155 365 155Q308 155 277 186T245 275V410Q245 470 277 502T370 535H595V435H420Q385 435 385 400V285Q385 255 415 255Z" />
<glyph unicode="&#xaa;" glyph-name="ordfeminine" horiz-adv-x="365" d="M160 425Q188 425 225 440V490H155Q130 490 130 465V450Q130 425 155 425H160ZM230 380Q165 340 115 340H110Q65 340 38 367T10 440V470Q10 515 37 542T110 570H225V600Q225 630 195 630Q160
630 116 624T45 615V695Q72 698 100 702Q168 710 227 710T316 682T345 605V350H240L230 380Z" />
<glyph unicode="&#xab;" glyph-name="guillemotleft" horiz-adv-x="611" d="M341 90L240 0L10 265L240 530L341 441L189 265L341 90ZM439 265L591 90L490 0L260 265L490 530L591 441L439 265Z" />
<glyph unicode="&#xac;" glyph-name="logicalnot" horiz-adv-x="540" d="M500 220H360V310H40V450H500V220Z" />
<glyph unicode="&#xad;" glyph-name="uni00AD" horiz-adv-x="470" d="M30 280V420H440V280H30Z" />
<glyph unicode="&#xae;" glyph-name="registered" horiz-adv-x="850" d="M20 490Q20 596 77 653T240 710H610Q716 710 773 653T830 490V210Q830 104 773 47T610 -10H240Q134 -10 77 47T20 210V490ZM680 520Q680 550 660 570T610 590H240Q210 590 190 570T170 520V180Q170
150 190 130T240 110H610Q640 110 660 130T680 180V520ZM425 265H385V165H245V535H500Q560 535 592 503T625 410V400Q625 351 606 324T560 285L625 165H480L425 265ZM450 355Q485 355 485 390V410Q485 445 450 445H385V355H450Z" />
<glyph unicode="&#xaf;" glyph-name="overscore" horiz-adv-x="300" d="M0 785H300V665H0V785Z" />
<glyph unicode="&#xb0;" glyph-name="degree" horiz-adv-x="390" d="M370 465Q370 405 338 373T245 340H145Q85 340 53 372T20 465V585Q20 645 52 677T145 710H245Q305 710 337 678T370 585V465ZM250 585Q250 620 215 620H175Q140 620 140 585V465Q140 430 175
430H215Q250 430 250 465V585Z" />
<glyph unicode="&#xb1;" glyph-name="plusminus" horiz-adv-x="540" d="M340 440H510V300H340V190H495V50H45V190H200V300H30V440H200V590H340V440Z" />
<glyph unicode="&#xb2;" glyph-name="twosuperior" horiz-adv-x="345" d="M325 594Q325 533 270 495L175 430H325V340H20V440L205 570V590Q205 620 175 620H30V710H210Q267 710 296 682T325 604V594Z" />
<glyph unicode="&#xb3;" glyph-name="threesuperior" horiz-adv-x="350" d="M215 340Q118 340 20 355V440Q125 425 180 425Q210 425 210 455Q210 485 180 485H70V565H170Q200 565 200 595Q200 625 170 625H25V710H205Q262 710 291 684T320 616Q320 556 267 538Q291
532 310 511T330 443T301 368T215 340Z" />
<glyph unicode="&#xb4;" glyph-name="acute" horiz-adv-x="260" d="M10 635L70 805H250L140 635H10Z" />
<glyph unicode="&#xb5;" glyph-name="mu" horiz-adv-x="640" d="M425 50Q332 0 245 0H226V-170H50V530H226V180Q226 165 236 155T261 145H295Q348 145 415 165V530H590V0H435L425 50Z" />
<glyph unicode="&#xb6;" glyph-name="paragraph" horiz-adv-x="690" d="M20 615T62 657T180 700H670V560H580V-170H425V560H365V-170H210V260H180Q105 260 63 302T20 420V540Q20 615 62 657Z" />
<glyph unicode="&#xb7;" glyph-name="middot" horiz-adv-x="300" d="M60 425H240V275H60V425Z" />
<glyph unicode="&#xb8;" glyph-name="cedilla" horiz-adv-x="220" d="M110 20V-20H120Q169 -20 194 -44T220 -110Q220 -152 195 -176T120 -200H0V-135H100Q135 -135 135 -110Q135 -85 100 -85H25V20H110Z" />
<glyph unicode="&#xb9;" glyph-name="onesuperior" horiz-adv-x="250" d="M100 340V610L40 590L10 665L110 710H220V340H100Z" />
<glyph unicode="&#xba;" glyph-name="ordmasculine" horiz-adv-x="380" d="M360 465Q360 405 328 373T235 340H145Q85 340 53 372T20 465V585Q20 645 52 677T145 710H235Q295 710 327 678T360 585V465ZM240 585Q240 620 205 620H175Q140 620 140 585V465Q140 430
175 430H205Q240 430 240 465V585Z" />
<glyph unicode="&#xbb;" glyph-name="guillemotright" horiz-adv-x="611" d="M20 441L121 530L351 265L121 0L20 90L172 265L20 441ZM422 265L270 441L371 530L601 265L371 0L270 90L422 265Z" />
<glyph unicode="&#xbc;" glyph-name="onequarter" horiz-adv-x="750" d="M70 0L470 700H620L230 0H70ZM100 340V610L40 590L10 665L110 710H220V340H100ZM585 65H390V155L505 360H630L515 155H585V220H695V155H730V65H695V-10H585V65Z" />
<glyph unicode="&#xbd;" glyph-name="onehalf" horiz-adv-x="785" d="M70 0L470 700H620L230 0H70ZM100 340V610L40 590L10 665L110 710H220V340H100ZM755 244Q755 183 700 145L605 80H755V-10H450V90L635 220V240Q635 270 605 270H460V360H640Q697 360 726 332T755
254V244Z" />
<glyph unicode="&#xbe;" glyph-name="threequarters" horiz-adv-x="820" d="M140 0L540 700H690L300 0H140ZM655 65H460V155L575 360H700L585 155H655V220H765V155H800V65H765V-10H655V65ZM215 340Q118 340 20 355V440Q125 425 180 425Q210 425 210 455Q210 485
180 485H70V565H170Q200 565 200 595Q200 625 170 625H25V710H205Q262 710 291 684T320 616Q320 556 267 538Q291 532 310 511T330 443T301 368T215 340Z" />
<glyph unicode="&#xbf;" glyph-name="questiondown" horiz-adv-x="580" d="M570 -160Q377 -180 210 -180Q112 -180 66 -134T20 10V55Q20 130 50 169Q81 210 155 235L255 270V320H435V180L200 95V10Q200 -13 213 -26T250 -40Q349 -40 570 -25V-160ZM435 380H255V530H435V380Z"
/>
<glyph unicode="&#xc0;" glyph-name="Agrave" horiz-adv-x="710" d="M185 0H-10L255 700H455L720 0H525L480 125H230L185 0ZM275 255H435L355 490L275 255ZM295 730L185 900H355L415 730H295Z" />
<glyph unicode="&#xc1;" glyph-name="Aacute" horiz-adv-x="710" d="M185 0H-10L255 700H455L720 0H525L480 125H230L185 0ZM275 255H435L355 490L275 255ZM285 731L345 901H525L415 731H285Z" />
<glyph unicode="&#xc2;" glyph-name="Acircumflex" horiz-adv-x="710" d="M185 0H-10L255 700H455L720 0H525L480 125H230L185 0ZM275 255H435L355 490L275 255ZM165 731L285 901H425L545 731H420L355 811L290 731H165Z" />
<glyph unicode="&#xc3;" glyph-name="Atilde" horiz-adv-x="710" d="M185 0H-10L255 700H455L720 0H525L480 125H230L185 0ZM275 255H435L355 490L275 255ZM415 841Q447 841 465 881L530 841Q521 809 506 785Q471 726 415 726Q394 726 379 734T350 751T323 768T295
776Q263 776 245 736L180 776Q196 838 239 873Q261 891 288 891T331 883T360 866T387 849T415 841Z" />
<glyph unicode="&#xc4;" glyph-name="Adieresis" horiz-adv-x="710" d="M185 0H-10L255 700H455L720 0H525L480 125H230L185 0ZM275 255H435L355 490L275 255ZM385 871H555V731H385V871ZM155 871H325V731H155V871Z" />
<glyph unicode="&#xc5;" glyph-name="Aring" horiz-adv-x="710" d="M185 0H-10L255 700H455L720 0H525L480 125H230L185 0ZM275 255H435L355 490L275 255ZM385 926Q434 926 459 902T485 836V821Q485 779 460 755T385 731H325Q276 731 251 755T225 821V836Q225
878 250 902T325 926H385ZM400 831Q400 861 370 861H340Q310 861 310 831V826Q310 796 340 796H370Q400 796 400 826V831Z" />
<glyph unicode="&#xc6;" glyph-name="AE" horiz-adv-x="995" d="M-10 0L255 700H975V560H640V425H895V285H640V140H975V0H460V125H230L185 0H-10ZM275 255H460V560H380L275 255Z" />
<glyph unicode="&#xc7;" glyph-name="Ccedilla" horiz-adv-x="620" d="M600 10Q377 -10 230 -10Q132 -10 86 36T40 180V500Q40 605 87 652T240 700H600V560H280Q220 560 220 500V180Q220 157 233 144T268 130T314 130T366 132T420 134T491 138T600 145V10ZM360
20V-20H370Q419 -20 444 -44T470 -110Q470 -152 445 -176T370 -200H250V-135H350Q385 -135 385 -110Q385 -85 350 -85H275V20H360Z" />
<glyph unicode="&#xc8;" glyph-name="Egrave" horiz-adv-x="635" d="M615 0H60V700H615V560H240V425H535V285H240V140H615V0ZM302 731L192 901H362L422 731H302Z" />
<glyph unicode="&#xc9;" glyph-name="Eacute" horiz-adv-x="635" d="M615 0H60V700H615V560H240V425H535V285H240V140H615V0ZM267 731L327 901H507L397 731H267Z" />
<glyph unicode="&#xca;" glyph-name="Ecircumflex" horiz-adv-x="635" d="M615 0H60V700H615V560H240V425H535V285H240V140H615V0ZM147 731L267 901H407L527 731H402L337 811L272 731H147Z" />
<glyph unicode="&#xcb;" glyph-name="Edieresis" horiz-adv-x="635" d="M615 0H60V700H615V560H240V425H535V285H240V140H615V0ZM367 901H537V761H367V901ZM137 901H307V761H137V901Z" />
<glyph unicode="&#xcc;" glyph-name="Igrave" horiz-adv-x="420" d="M390 0H30V140H120V560H30V700H390V560H300V140H390V0ZM165 730L55 900H225L285 730H165Z" />
<glyph unicode="&#xcd;" glyph-name="Iacute" horiz-adv-x="420" d="M390 0H30V140H120V560H30V700H390V560H300V140H390V0ZM140 731L200 901H380L270 731H140Z" />
<glyph unicode="&#xce;" glyph-name="Icircumflex" horiz-adv-x="420" d="M390 0H30V140H120V560H30V700H390V560H300V140H390V0ZM20 730L140 900H280L400 730H275L210 810L145 730H20Z" />
<glyph unicode="&#xcf;" glyph-name="Idieresis" horiz-adv-x="420" d="M390 0H30V140H120V560H30V700H390V560H300V140H390V0ZM240 901H410V761H240V901ZM10 901H180V761H10V901Z" />
<glyph unicode="&#xd0;" glyph-name="Eth" horiz-adv-x="740" d="M80 420V700H470Q583 700 641 642T700 470V230Q700 117 642 59T470 0H80V285H20V420H80ZM520 470Q520 560 430 560H260V420H380V285H260V140H430Q520 140 520 230V470Z" />
<glyph unicode="&#xd1;" glyph-name="Ntilde" horiz-adv-x="730" d="M670 0H480L240 420V0H60V700H250L490 280V700H670V0ZM425 851Q457 851 475 891L540 851Q531 819 516 795Q481 736 425 736Q404 736 389 744T360 761T333 778T305 786Q273 786 255 746L190 786Q206
848 249 883Q271 901 298 901T341 893T370 876T397 859T425 851Z" />
<glyph unicode="&#xd2;" glyph-name="Ograve" horiz-adv-x="730" d="M510 510Q510 570 450 570H280Q220 570 220 510V190Q220 130 280 130H450Q510 130 510 190V510ZM690 190Q690 85 643 38T490 -10H240Q135 -10 88 37T40 190V510Q40 615 87 662T240 710H490Q595
710 642 663T690 510V190ZM320 740L210 910H380L440 740H320Z" />
<glyph unicode="&#xd3;" glyph-name="Oacute" horiz-adv-x="730" d="M510 510Q510 570 450 570H280Q220 570 220 510V190Q220 130 280 130H450Q510 130 510 190V510ZM690 190Q690 85 643 38T490 -10H240Q135 -10 88 37T40 190V510Q40 615 87 662T240 710H490Q595
710 642 663T690 510V190ZM295 741L355 911H535L425 741H295Z" />
<glyph unicode="&#xd4;" glyph-name="Ocircumflex" horiz-adv-x="730" d="M510 510Q510 570 450 570H280Q220 570 220 510V190Q220 130 280 130H450Q510 130 510 190V510ZM690 190Q690 85 643 38T490 -10H240Q135 -10 88 37T40 190V510Q40 615 87 662T240 710H490Q595
710 642 663T690 510V190ZM175 741L295 911H435L555 741H430L365 821L300 741H175Z" />
<glyph unicode="&#xd5;" glyph-name="Otilde" horiz-adv-x="730" d="M510 510Q510 570 450 570H280Q220 570 220 510V190Q220 130 280 130H450Q510 130 510 190V510ZM690 190Q690 85 643 38T490 -10H240Q135 -10 88 37T40 190V510Q40 615 87 662T240 710H490Q595
710 642 663T690 510V190ZM425 861Q457 861 475 901L540 861Q531 829 516 805Q481 746 425 746Q404 746 389 754T360 771T333 788T305 796Q273 796 255 756L190 796Q206 858 249 893Q271 911 298 911T341 903T370 886T397 869T425 861Z" />
<glyph unicode="&#xd6;" glyph-name="Odieresis" horiz-adv-x="730" d="M510 510Q510 570 450 570H280Q220 570 220 510V190Q220 130 280 130H450Q510 130 510 190V510ZM690 190Q690 85 643 38T490 -10H240Q135 -10 88 37T40 190V510Q40 615 87 662T240 710H490Q595
710 642 663T690 510V190ZM395 901H565V761H395V901ZM165 901H335V761H165V901Z" />
<glyph unicode="&#xd7;" glyph-name="multiply" horiz-adv-x="540" d="M270 450L400 580L500 480L370 350L500 220L400 120L270 250L140 120L40 220L170 350L40 480L140 580L270 450Z" />
<glyph unicode="&#xd8;" glyph-name="Oslash" horiz-adv-x="730" d="M25 50L56 84Q40 125 40 190V510Q40 615 87 662T240 710H490Q562 710 609 686L635 715L705 650L673 615Q690 575 690 510V190Q690 85 643 38T490 -10H240Q167 -10 121 13L95 -15L25 50ZM220
262L491 558Q476 570 450 570H280Q220 570 220 510V262ZM510 437L238 141Q252 130 280 130H450Q510 130 510 190V437Z" />
<glyph unicode="&#xd9;" glyph-name="Ugrave" horiz-adv-x="750" d="M510 700H690V190Q690 85 643 38T490 -10H260Q155 -10 108 37T60 190V700H240V190Q240 130 300 130H450Q510 130 510 190V700ZM330 721L220 891H390L450 721H330Z" />
<glyph unicode="&#xda;" glyph-name="Uacute" horiz-adv-x="750" d="M510 700H690V190Q690 85 643 38T490 -10H260Q155 -10 108 37T60 190V700H240V190Q240 130 300 130H450Q510 130 510 190V700ZM305 721L365 891H545L435 721H305Z" />
<glyph unicode="&#xdb;" glyph-name="Ucircumflex" horiz-adv-x="750" d="M510 700H690V190Q690 85 643 38T490 -10H260Q155 -10 108 37T60 190V700H240V190Q240 130 300 130H450Q510 130 510 190V700ZM185 731L305 901H445L565 731H440L375 811L310 731H185Z" />
<glyph unicode="&#xdc;" glyph-name="Udieresis" horiz-adv-x="750" d="M510 700H690V190Q690 85 643 38T490 -10H260Q155 -10 108 37T60 190V700H240V190Q240 130 300 130H450Q510 130 510 190V700ZM405 891H575V751H405V891ZM175 891H345V751H175V891Z" />
<glyph unicode="&#xdd;" glyph-name="Yacute" horiz-adv-x="670" d="M-20 700H170L335 360L500 700H690L425 185V0H245V185L-20 700ZM255 721L315 891H495L385 721H255Z" />
<glyph unicode="&#xde;" glyph-name="Thorn" horiz-adv-x="730" d="M700 270Q700 165 653 118T500 70H240V-10H60V710H240V630H500Q605 630 652 583T700 430V270ZM520 430Q520 490 460 490H240V210H460Q520 210 520 270V430Z" />
<glyph unicode="&#xdf;" glyph-name="germandbls" horiz-adv-x="620" d="M600 72T559 31T453 -10T320 0V125H390Q405 125 415 135T425 160V250Q425 290 385 290H295V425H305Q345 425 345 465V535Q345 575 305 575H265Q225 575 225 535V0H50V550Q50 625 92 667T210
710H360Q435 710 477 668T520 550V460Q520 405 490 375Q539 364 569 331T600 240V140Q600 72 559 31Z" />
<glyph unicode="&#xe0;" glyph-name="agrave" horiz-adv-x="595" d="M260 130Q313 130 380 150V210H235Q220 210 210 200T200 175V165Q200 150 210 140T235 130H260ZM75 520Q258 540 405 540Q473 540 514 499T555 390V0H400L390 50Q343 19 294 5T210 -10H175Q107
-10 66 31T25 140V185Q25 253 66 294T175 335H380V375Q380 390 370 400T345 410Q280 410 202 404T75 395V520ZM262 570L152 740H322L382 570H262Z" />
<glyph unicode="&#xe1;" glyph-name="aacute" horiz-adv-x="595" d="M260 130Q313 130 380 150V210H235Q220 210 210 200T200 175V165Q200 150 210 140T235 130H260ZM75 520Q258 540 405 540Q473 540 514 499T555 390V0H400L390 50Q343 19 294 5T210 -10H175Q107
-10 66 31T25 140V185Q25 253 66 294T175 335H380V375Q380 390 370 400T345 410Q280 410 202 404T75 395V520ZM219 571L279 741H459L349 571H219Z" />
<glyph unicode="&#xe2;" glyph-name="acircumflex" horiz-adv-x="595" d="M260 130Q313 130 380 150V210H235Q220 210 210 200T200 175V165Q200 150 210 140T235 130H260ZM75 520Q258 540 405 540Q473 540 514 499T555 390V0H400L390 50Q343 19 294 5T210 -10H175Q107
-10 66 31T25 140V185Q25 253 66 294T175 335H380V375Q380 390 370 400T345 410Q280 410 202 404T75 395V520ZM130 571L250 741H390L510 571H385L320 651L255 571H130Z" />
<glyph unicode="&#xe3;" glyph-name="atilde" horiz-adv-x="595" d="M260 130Q313 130 380 150V210H235Q220 210 210 200T200 175V165Q200 150 210 140T235 130H260ZM75 520Q258 540 405 540Q473 540 514 499T555 390V0H400L390 50Q343 19 294 5T210 -10H175Q107
-10 66 31T25 140V185Q25 253 66 294T175 335H380V375Q380 390 370 400T345 410Q280 410 202 404T75 395V520ZM377 686Q409 686 427 726L492 686Q483 654 468 630Q433 571 377 571Q356 571 341 579T312 596T285 613T257 621Q225 621 207 581L142 621Q158 683 201
718Q223 736 250 736T293 728T322 711T349 694T377 686Z" />
<glyph unicode="&#xe4;" glyph-name="adieresis" horiz-adv-x="595" d="M260 130Q313 130 380 150V210H235Q220 210 210 200T200 175V165Q200 150 210 140T235 130H260ZM75 520Q258 540 405 540Q473 540 514 499T555 390V0H400L390 50Q343 19 294 5T210 -10H175Q107
-10 66 31T25 140V185Q25 253 66 294T175 335H380V375Q380 390 370 400T345 410Q280 410 202 404T75 395V520ZM350 987H520V847H350V987ZM120 987H290V847H120V987Z" />
<glyph unicode="&#xe5;" glyph-name="aring" horiz-adv-x="595" d="M260 130Q313 130 380 150V210H235Q220 210 210 200T200 175V165Q200 150 210 140T235 130H260ZM75 520Q258 540 405 540Q473 540 514 499T555 390V0H400L390 50Q343 19 294 5T210 -10H175Q107
-10 66 31T25 140V185Q25 253 66 294T175 335H380V375Q380 390 370 400T345 410Q280 410 202 404T75 395V520ZM337 765Q386 765 411 741T437 675V660Q437 618 412 594T337 570H277Q228 570 203 594T177 660V675Q177 717 202 741T277 765H337ZM352 670Q352 700 322
700H292Q262 700 262 670V665Q262 635 292 635H322Q352 635 352 665V670Z" />
<glyph unicode="&#xe6;" glyph-name="ae" horiz-adv-x="920" d="M75 520Q228 540 360 540Q422 540 465 505Q504 540 570 540H720Q795 540 837 498T880 380V205H545V150Q545 139 555 130T580 120Q680 120 860 135V10Q673 -10 520 -10Q451 -10 414 22Q397 36 390
55Q340 20 289 5T200 -10H175Q107 -10 66 31T25 140V185Q25 253 66 294T175 335H370V379Q368 393 359 401T322 410Q270 410 166 402L75 395V520ZM585 415Q545 415 545 375V330H705V375Q705 415 665 415H585ZM250 130Q303 130 370 150V210H235Q220 210 210 200T200
175V165Q200 150 210 140T235 130H250Z" />
<glyph unicode="&#xe7;" glyph-name="ccedilla" horiz-adv-x="550" d="M520 10Q333 -10 190 -10Q122 -10 81 31T40 140V370Q40 445 82 487T200 530H520V395H255Q215 395 215 355V160Q215 145 225 135T250 125Q340 125 520 140V10ZM315 20V-20H325Q374 -20 399
-44T425 -110Q425 -152 400 -176T325 -200H205V-135H305Q340 -135 340 -110Q340 -85 305 -85H230V20H315Z" />
<glyph unicode="&#xe8;" glyph-name="egrave" horiz-adv-x="600" d="M255 415Q215 415 215 375V320H385V375Q385 415 345 415H255ZM540 10Q347 -10 190 -10Q122 -10 81 31T40 140V380Q40 455 82 497T200 540H400Q475 540 517 498T560 380V195H215V155Q215 140
225 130T250 120Q349 120 540 135V10ZM255 570L145 740H315L375 570H255Z" />
<glyph unicode="&#xe9;" glyph-name="eacute" horiz-adv-x="600" d="M255 415Q215 415 215 375V320H385V375Q385 415 345 415H255ZM540 10Q347 -10 190 -10Q122 -10 81 31T40 140V380Q40 455 82 497T200 540H400Q475 540 517 498T560 380V195H215V155Q215 140
225 130T250 120Q349 120 540 135V10ZM220 571L280 741H460L350 571H220Z" />
<glyph unicode="&#xea;" glyph-name="ecircumflex" horiz-adv-x="600" d="M255 415Q215 415 215 375V320H385V375Q385 415 345 415H255ZM540 10Q347 -10 190 -10Q122 -10 81 31T40 140V380Q40 455 82 497T200 540H400Q475 540 517 498T560 380V195H215V155Q215
140 225 130T250 120Q349 120 540 135V10ZM110 827L230 997H370L490 827H365L300 907L235 827H110Z" />
<glyph unicode="&#xeb;" glyph-name="edieresis" horiz-adv-x="600" d="M255 415Q215 415 215 375V320H385V375Q385 415 345 415H255ZM540 10Q347 -10 190 -10Q122 -10 81 31T40 140V380Q40 455 82 497T200 540H400Q475 540 517 498T560 380V195H215V155Q215 140
225 130T250 120Q349 120 540 135V10ZM330 966H500V826H330V966ZM100 966H270V826H100V966Z" />
<glyph unicode="&#xec;" glyph-name="igrave" horiz-adv-x="320" d="M270 530V0H95V395H20V530H270ZM134 570L24 740H194L254 570H134Z" />
<glyph unicode="&#xed;" glyph-name="iacute" horiz-adv-x="320" d="M270 530V0H95V395H20V530H270ZM100 571L160 741H340L230 571H100Z" />
<glyph unicode="&#xee;" glyph-name="icircumflex" horiz-adv-x="320" d="M270 530V0H95V395H20V530H270ZM-25 569L95 739H235L355 569H230L165 649L100 569H-25Z" />
<glyph unicode="&#xef;" glyph-name="idieresis" horiz-adv-x="320" d="M270 530V0H95V395H20V530H270ZM190 710H360V570H190V710ZM-40 710H130V570H-40V710Z" />
<glyph unicode="&#xf0;" glyph-name="eth" horiz-adv-x="610" d="M235 440Q308 440 405 420V485Q405 511 388 527T340 546L300 550L295 495L180 505L185 562L105 570L120 710L199 703L205 765L320 755L314 692L380 685Q471 675 525 620Q580 563 580 485V150Q580
75 538 33T420 -10H200Q125 -10 83 32T40 150V290Q40 358 81 399T190 440H235ZM365 125Q405 125 405 165V295Q386 297 368 300Q327 305 285 305H250Q235 305 225 295T215 270V165Q215 125 255 125H365Z" />
<glyph unicode="&#xf1;" glyph-name="ntilde" horiz-adv-x="630" d="M345 395Q292 395 225 375V0H50V530H205L215 480Q262 511 311 525T395 540H440Q508 540 549 499T590 390V0H415V360Q415 375 405 385T380 395H345ZM375 696Q407 696 425 736L490 696Q481 664
466 640Q431 581 375 581Q354 581 339 589T310 606T283 623T255 631Q223 631 205 591L140 631Q156 693 199 728Q221 746 248 746T291 738T320 721T347 704T375 696Z" />
<glyph unicode="&#xf2;" glyph-name="ograve" horiz-adv-x="630" d="M590 150Q590 75 548 33T430 -10H200Q125 -10 83 32T40 150V380Q40 455 82 497T200 540H430Q505 540 547 498T590 380V150ZM415 365Q415 405 375 405H255Q215 405 215 365V165Q215 125 255 125H375Q415
125 415 165V365ZM260 570L150 740H320L380 570H260Z" />
<glyph unicode="&#xf3;" glyph-name="oacute" horiz-adv-x="630" d="M590 150Q590 75 548 33T430 -10H200Q125 -10 83 32T40 150V380Q40 455 82 497T200 540H430Q505 540 547 498T590 380V150ZM415 365Q415 405 375 405H255Q215 405 215 365V165Q215 125 255 125H375Q415
125 415 165V365ZM245 570L305 740H485L375 570H245Z" />
<glyph unicode="&#xf4;" glyph-name="ocircumflex" horiz-adv-x="630" d="M590 150Q590 75 548 33T430 -10H200Q125 -10 83 32T40 150V380Q40 455 82 497T200 540H430Q505 540 547 498T590 380V150ZM415 365Q415 405 375 405H255Q215 405 215 365V165Q215 125
255 125H375Q415 125 415 165V365ZM125 827L245 997H385L505 827H380L315 907L250 827H125Z" />
<glyph unicode="&#xf5;" glyph-name="otilde" horiz-adv-x="630" d="M590 150Q590 75 548 33T430 -10H200Q125 -10 83 32T40 150V380Q40 455 82 497T200 540H430Q505 540 547 498T590 380V150ZM415 365Q415 405 375 405H255Q215 405 215 365V165Q215 125 255 125H375Q415
125 415 165V365ZM375 686Q407 686 425 726L490 686Q481 654 466 630Q431 571 375 571Q354 571 339 579T310 596T283 613T255 621Q223 621 205 581L140 621Q156 683 199 718Q221 736 248 736T291 728T320 711T347 694T375 686Z" />
<glyph unicode="&#xf6;" glyph-name="odieresis" horiz-adv-x="630" d="M590 150Q590 75 548 33T430 -10H200Q125 -10 83 32T40 150V380Q40 455 82 497T200 540H430Q505 540 547 498T590 380V150ZM415 365Q415 405 375 405H255Q215 405 215 365V165Q215 125 255
125H375Q415 125 415 165V365ZM345 986H515V846H345V986ZM115 986H285V846H115V986Z" />
<glyph unicode="&#xf7;" glyph-name="divide" horiz-adv-x="540" d="M510 420V280H30V420H510ZM190 230H350V90H190V230ZM190 610H350V470H190V610Z" />
<glyph unicode="&#xf8;" glyph-name="oslash" horiz-adv-x="630" d="M580 443Q590 415 590 380V150Q590 75 548 33T430 -10H200Q144 -10 106 13L75 -15L15 55L50 86Q40 113 40 150V380Q40 455 82 497T200 540H430Q485 540 523 516L555 545L615 475L580 443ZM415
293L235 130Q245 125 255 125H375Q415 125 415 165V293ZM215 236L395 400Q385 405 375 405H255Q215 405 215 365V236Z" />
<glyph unicode="&#xf9;" glyph-name="ugrave" horiz-adv-x="640" d="M295 135Q348 135 415 155V530H590V0H435L425 50Q378 19 329 5T245 -10H200Q132 -10 91 31T50 140V530H225V170Q225 155 235 145T260 135H295ZM275 560L165 730H335L395 560H275Z" />
<glyph unicode="&#xfa;" glyph-name="uacute" horiz-adv-x="640" d="M295 135Q348 135 415 155V530H590V0H435L425 50Q378 19 329 5T245 -10H200Q132 -10 91 31T50 140V530H225V170Q225 155 235 145T260 135H295ZM240 560L300 730H480L370 560H240Z" />
<glyph unicode="&#xfb;" glyph-name="ucircumflex" horiz-adv-x="640" d="M295 135Q348 135 415 155V530H590V0H435L425 50Q378 19 329 5T245 -10H200Q132 -10 91 31T50 140V530H225V170Q225 155 235 145T260 135H295ZM130 570L250 740H390L510 570H385L320 650L255
570H130Z" />
<glyph unicode="&#xfc;" glyph-name="udieresis" horiz-adv-x="640" d="M295 135Q348 135 415 155V530H590V0H435L425 50Q378 19 329 5T245 -10H200Q132 -10 91 31T50 140V530H225V170Q225 155 235 145T260 135H295ZM350 966H520V826H350V966ZM120 966H290V826H120V966Z" />
<glyph unicode="&#xfd;" glyph-name="yacute" horiz-adv-x="570" d="M190 -180Q137 -180 60 -170V-40H150Q188 -40 199 -19T195 40L-10 530H175L300 190L405 530H590L390 -20Q361 -99 315 -139T190 -180ZM215 560L275 730H455L345 560H215Z" />
<glyph unicode="&#xfe;" glyph-name="thorn" horiz-adv-x="630" d="M430 530Q505 530 547 488T590 370V160Q590 85 548 43T430 0H225V-170H50V700H225V530H430ZM415 355Q415 395 375 395H225V135H375Q415 135 415 175V355Z" />
<glyph unicode="&#xff;" glyph-name="ydieresis" horiz-adv-x="570" d="M190 -180Q137 -180 60 -170V-40H150Q188 -40 199 -19T195 40L-10 530H175L300 190L405 530H590L390 -20Q361 -99 315 -139T190 -180ZM315 986H485V846H315V986ZM85 986H255V846H85V986Z" />
<glyph unicode="&#x2013;" glyph-name="endash" horiz-adv-x="630" d="M30 285V415H600V285H30Z" />
<glyph unicode="&#x2014;" glyph-name="emdash" horiz-adv-x="800" d="M30 285V415H770V285H30Z" />
<glyph unicode="&#x2018;" glyph-name="quoteleft" horiz-adv-x="240" d="M210 450H30V590L100 700H190L150 600H210V450Z" />
<glyph unicode="&#x2019;" glyph-name="quoteright" horiz-adv-x="240" d="M30 700H210V560L140 450H50L90 550H30V700Z" />
<glyph unicode="&#x201a;" glyph-name="quotesinglbase" horiz-adv-x="240" d="M30 150H210V10L140 -100H50L90 0H30V150Z" />
<glyph unicode="&#x201c;" glyph-name="quotedblleft" horiz-adv-x="460" d="M430 450H250V590L320 700H410L370 600H430V450ZM210 450H30V590L100 700H190L150 600H210V450Z" />
<glyph unicode="&#x201d;" glyph-name="quotedblright" horiz-adv-x="460" d="M30 700H210V560L140 450H50L90 550H30V700ZM250 700H430V560L360 450H270L310 550H250V700Z" />
<glyph unicode="&#x201e;" glyph-name="quotedblbase" horiz-adv-x="460" d="M30 150H210V10L140 -100H50L90 0H30V150ZM250 150H430V10L360 -100H270L310 0H250V150Z" />
<glyph unicode="&#x2022;" glyph-name="bullet" horiz-adv-x="360" d="M200 480Q249 480 279 450T310 370V330Q310 281 280 251T200 220H160Q111 220 81 250T50 330V370Q50 419 80 449T160 480H200Z" />
<glyph unicode="&#x2039;" glyph-name="guilsinglleft" horiz-adv-x="361" d="M341 90L240 0L10 265L240 530L341 441L189 265L341 90Z" />
<glyph unicode="&#x203a;" glyph-name="guilsinglright" horiz-adv-x="361" d="M172 265L20 441L121 530L351 265L121 0L20 90L172 265Z" />
</font>
</defs>
</svg>
