<?xml version="1.0" standalone="no"?>
<!DOCTYPE svg PUBLIC "-//W3C//DTD SVG 1.1//EN" "http://www.w3.org/Graphics/SVG/1.1/DTD/svg11.dtd">
<svg xmlns="http://www.w3.org/2000/svg">
<defs >
<font id="CarroisGothicSC" horiz-adv-x="493" ><font-face
    font-family="Carrois Gothic SC"
    units-per-em="1000"
    panose-1="2 11 5 6 4 0 0 2 0 4"
    ascent="922"
    descent="-270"
    alphabetic="0" />
<glyph unicode=" " glyph-name="space" horiz-adv-x="300" />
<glyph unicode="!" glyph-name="exclam" horiz-adv-x="270" d="M98 240L88 720H178L168 240H98ZM85 0V100H185V0H85Z" />
<glyph unicode="&quot;" glyph-name="quotedbl" horiz-adv-x="400" d="M150 502H100L75 642V735H175V643L150 502ZM300 502H250L225 642V735H325V643L300 502Z" />
<glyph unicode="#" glyph-name="numbersign" horiz-adv-x="575" d="M498 197H414L397 0H326L343 197H201L184 0H113L130 197H51L55 258H135L152 447H71L77 508H157L174 700H245L228 508H370L387 700H458L441 508H524L518 447H436L419 258H502L498 197ZM206 258H348L365
447H223L206 258Z" />
<glyph unicode="$" glyph-name="dollar" horiz-adv-x="540" d="M280 644Q256 644 234 638T196 619T169 586T159 537Q159 516 164 499T185 465T229 434T301 402Q337 389 371 372T432 330T474 268T490 182Q490 147 478 115T444 56T389 12T316 -12V-135H244V-13Q202
-8 170 8T113 46T74 95T51 146L129 160Q135 140 146 121T175 87T219 63T280 53Q300 53 322 59T363 81T394 119T407 175Q407 213 396 237T363 280T306 313T224 347Q146 378 112 424T78 528Q78 602 121 650T244 708V820H316V707Q351 702 379 688T427 653T462 609T485
559L411 545Q399 584 368 614T280 644Z" />
<glyph unicode="%" glyph-name="percent" horiz-adv-x="740" d="M255 -23L193 0L479 722L542 700L255 -23ZM60 541Q60 583 71 615T101 668T144 699T195 710Q222 710 246 700T289 668T319 615T331 541Q331 499 320 468T289 415T246 384T195 374Q169 374 145 384T101
415T71 467T60 541ZM130 541Q130 481 148 455T195 429Q224 429 243 455T262 541Q262 601 243 627T195 653Q166 653 148 627T130 541ZM409 159Q409 201 420 233T450 286T493 317T544 328Q571 328 595 318T638 286T668 233T680 159Q680 117 669 86T638 33T595 2T544
-8Q518 -8 494 2T450 33T420 85T409 159ZM479 159Q479 99 497 73T544 47Q573 47 592 73T611 159Q611 219 592 245T544 271Q515 271 497 245T479 159Z" />
<glyph unicode="&amp;" glyph-name="ampersand" horiz-adv-x="697" d="M600 349Q594 290 580 237T541 139L658 21L604 -26L500 79Q463 37 411 14T289 -10Q244 -10 206 4T139 42T96 100T80 173Q80 208 89 235T115 286T157 330T213 370Q191 392 173 412T140 454T118
499T110 548Q110 578 121 607T154 659T211 696T290 710Q333 710 366 698T422 666T457 619T469 564Q469 530 459 503T431 453T384 408T320 364L489 192Q506 229 515 270T528 357L600 349ZM301 55Q349 55 386 75T450 129L258 325Q232 308 214 292T185 259T169 223T163
180Q163 158 170 136T193 95T236 66T301 55ZM188 553Q188 536 192 522T207 491T234 455T276 409Q311 431 334 449T370 485T389 521T395 561Q395 600 365 624T292 649Q241 649 215 624T188 553Z" />
<glyph unicode="&apos;" glyph-name="quotesingle" horiz-adv-x="250" d="M150 482H100L75 642V735H175V643L150 482Z" />
<glyph unicode="(" glyph-name="parenleft" horiz-adv-x="340" d="M75 330Q75 421 87 492T120 621T167 725T221 815L275 790Q250 744 228 697T188 596T161 477T151 330Q151 247 161 183T188 64T227 -37T275 -130L221 -155Q193 -112 167 -66T121 38T88 167T75 330Z" />
<glyph unicode=")" glyph-name="parenright" horiz-adv-x="340" d="M265 330Q265 238 253 167T220 39T173 -65T119 -155L65 -130Q90 -84 112 -37T152 64T179 182T189 330Q189 412 179 477T152 596T113 697T65 790L119 815Q147 772 173 726T219 622T252 493T265 330Z" />
<glyph unicode="*" glyph-name="asterisk" horiz-adv-x="470" d="M258 584L397 644L420 572L275 540L377 426L312 384L235 513L158 383L94 426L195 540L49 571L73 643L211 583L195 735H275L258 584Z" />
<glyph unicode="+" glyph-name="plus" horiz-adv-x="540" d="M231 288H65V358H231V521H309V358H475V288H309V122H231V288Z" />
<glyph unicode="," glyph-name="comma" horiz-adv-x="230" d="M95 -152H39L65 0V100H165V1L95 -152Z" />
<glyph unicode="-" glyph-name="hyphen" horiz-adv-x="425" d="M60 287V359H365V287H60Z" />
<glyph unicode="." glyph-name="period" horiz-adv-x="230" d="M65 0V100H165V0H65Z" />
<glyph unicode="/" glyph-name="slash" horiz-adv-x="265" d="M208 720L277 705L57 -100L-12 -85L208 720Z" />
<glyph unicode="0" glyph-name="zero" horiz-adv-x="540" d="M141 344Q141 262 150 206T176 116T217 68T271 53Q301 53 325 67T366 116T392 206T401 344Q401 426 392 482T366 572T325 622T271 637Q241 637 217 622T176 573T150 482T141 344ZM483 344Q483 247 468
180T426 70T359 9T271 -10Q223 -10 184 7T117 66T74 175T59 344Q59 441 74 509T116 619T183 681T271 700Q319 700 358 682T425 623T468 513T483 344Z" />
<glyph unicode="1" glyph-name="one" horiz-adv-x="540" d="M135 0V69H268V624L131 540L94 597L262 700H347V69H456V0H135Z" />
<glyph unicode="2" glyph-name="two" horiz-adv-x="540" d="M74 555Q99 628 151 669T282 710Q321 710 355 700T416 667T457 611T472 528Q472 497 465 468T443 409T402 344T340 267L172 71H463V0H83V79L289 324Q316 357 335 383T367 432T384 478T390 528Q390 582
364 614T278 646Q230 646 197 617T150 534L74 555Z" />
<glyph unicode="3" glyph-name="three" horiz-adv-x="540" d="M74 593Q99 652 151 681T263 710Q300 710 334 699T393 666T433 611T448 535Q448 502 438 475T409 427T368 393T318 374Q348 370 376 358Q404 346 425 325T458 273T470 203Q470 150 451 110T402 44T335
4T259 -10Q195 -10 147 16T70 92L133 128Q149 100 178 77T258 53Q281 53 304 61T346 86T376 132T388 200Q388 241 377 267T348 308T305 328T254 334H210V401H257Q303 401 334 436T366 530Q366 595 337 622T259 650Q213 650 183 624T141 567L74 593Z" />
<glyph unicode="4" glyph-name="four" horiz-adv-x="540" d="M389 444V202H485V137H389V0H312V137H71V209L220 708L294 694L149 202H312V338L331 444H389Z" />
<glyph unicode="5" glyph-name="five" horiz-adv-x="540" d="M145 128Q157 98 185 76T257 54Q276 54 299 61T341 88T374 142T387 230Q387 275 378 306T353 355T316 382T269 391Q245 391 218 381T164 343L98 350L117 700H431V636H189L177 413Q200 429 228 439T290
450Q326 450 358 440T416 404T455 335T470 226Q470 174 455 131T411 57T344 8T256 -10Q186 -10 142 20T74 98L145 128Z" />
<glyph unicode="6" glyph-name="six" horiz-adv-x="540" d="M450 663Q407 650 363 628T281 573T213 494T171 384Q197 412 230 428T306 445Q350 445 382 429T435 383T466 312T476 221Q476 162 460 119T417 47T355 4T282 -10Q178 -10 130 67T82 285Q82 387 113 462T194
590T305 675T425 723L450 663ZM289 382Q249 382 217 362T162 315V292Q162 168 191 111T283 53Q304 53 324 60T360 85T385 135T395 215Q395 305 367 343T289 382Z" />
<glyph unicode="7" glyph-name="seven" horiz-adv-x="540" d="M221 0H133L395 630H97V700H471V620L221 0Z" />
<glyph unicode="8" glyph-name="eight" horiz-adv-x="540" d="M54 177Q54 219 67 252T100 309T143 349T187 374Q169 384 151 397T117 430T93 473T83 530Q83 576 99 610T141 666T200 699T270 710Q306 710 339 701T399 671T441 617T457 537Q457 507 447 482T422
436T386 401T346 376Q373 363 398 346T442 306T474 253T486 184Q486 142 471 107T428 45T359 5T270 -10Q220 -10 181 4T113 44T69 104T54 177ZM400 184Q400 219 387 243T352 286T300 319T237 349Q218 338 201 324T170 290T148 244T140 184Q140 155 149 131T176
90T217 62T270 52Q328 52 364 87T400 184ZM162 535Q162 507 173 487T203 451T245 423T293 401Q327 422 351 453T376 535Q376 568 368 590T345 626T311 646T270 652Q249 652 230 646T195 625T171 589T162 535Z" />
<glyph unicode="9" glyph-name="nine" horiz-adv-x="540" d="M123 42Q176 47 221 66T302 122T360 210T393 332Q367 302 331 284T252 265Q210 265 178 280T125 324T92 392T81 479Q81 537 97 580T140 653T204 696T280 710Q384 710 431 638T478 424Q478 312 450 231T375
95T265 12T133 -23L123 42ZM269 328Q309 328 341 349T398 396V417Q398 538 370 593T279 649Q258 649 237 641T200 613T173 562T162 485Q162 401 190 365T269 328Z" />
<glyph unicode=":" glyph-name="colon" horiz-adv-x="230" d="M65 0V100H165V0H65ZM65 440V540H165V440H65Z" />
<glyph unicode=";" glyph-name="semicolon" horiz-adv-x="230" d="M65 440V540H165V440H65ZM95 -152H42L65 -1V100H165V1L95 -152Z" />
<glyph unicode="&lt;" glyph-name="less" horiz-adv-x="540" d="M65 281V371L457 533L480 464L128 325L480 168L457 99L65 281Z" />
<glyph unicode="=" glyph-name="equal" horiz-adv-x="540" d="M65 391V461H475V391H65ZM65 191V261H475V191H65Z" />
<glyph unicode="&gt;" glyph-name="greater" horiz-adv-x="540" d="M83 99L60 168L412 325L60 464L83 533L475 371V281L83 99Z" />
<glyph unicode="?" glyph-name="question" horiz-adv-x="484" d="M57 594Q77 663 128 699T251 735Q332 735 379 692T427 574Q427 522 406 484T357 416L285 336V220H203V359L295 459Q324 490 334 517T344 576Q344 613 322 641T247 670Q199 670 172 642T134 574L57
594ZM194 0V105H299V0H194Z" />
<glyph unicode="@" glyph-name="at" horiz-adv-x="920" d="M654 98Q629 98 611 105T581 125T562 152T553 184Q539 150 507 125T422 100Q395 100 370 109T326 141T295 197T283 282Q283 328 293 378T328 469T392 536T490 563Q534 563 566 552T627 514L597 274Q595
263 595 252T594 233Q594 188 608 170T651 151Q672 151 692 165T727 206T752 275T761 370Q761 516 692 597T486 678Q432 678 374 657T268 591T190 477T159 311Q159 226 183 162T249 56T345 -8T461 -30Q486 -30 505 -29T541 -25T573 -19T606 -11L622 -68Q591 -76
555 -83T463 -91Q380 -91 310 -64T189 14T109 141T80 312Q80 429 119 509T217 640T348 712T486 735Q565 735 630 713T741 645T814 532T840 371Q840 322 828 273T793 185T734 122T654 98ZM441 157Q471 157 494 181T525 271L551 490Q541 499 529 503T496 508Q454
508 428 485T387 426T367 351T361 275Q361 239 367 216T385 180T411 162T441 157Z" />
<glyph unicode="A" glyph-name="A" horiz-adv-x="553" d="M453 0L400 193H148L94 0H10L225 720H329L543 0H453ZM167 258H382L276 642L167 258Z" />
<glyph unicode="B" glyph-name="B" horiz-adv-x="569" d="M269 720Q381 720 433 673T486 543Q486 515 478 490T454 443T417 407T370 384Q397 380 424 368T472 335T506 281T519 204Q519 149 499 110T444 47T367 11T277 0H90V720H269ZM175 351V65H275Q305 65 332
72T382 95T417 138T430 204Q430 276 390 313T271 351H175ZM175 661V412H267Q336 412 368 446T401 540Q401 604 365 632T267 661H175Z" />
<glyph unicode="C" glyph-name="C" horiz-adv-x="582" d="M531 119Q503 59 454 22T325 -15Q285 -15 241 0T158 58T95 173T70 360Q70 472 94 545T155 660T238 718T326 735Q365 735 396 725T452 699T493 660T522 614L447 585Q431 626 403 647T326 668Q292 668 262
654T208 604T172 509T158 360Q158 271 172 212T209 118T263 68T327 53Q382 53 411 80T458 150L531 119Z" />
<glyph unicode="D" glyph-name="D" horiz-adv-x="611" d="M218 720Q289 720 348 704T450 646T517 536T541 360Q541 257 518 188T451 77T349 18T220 0H90V720H218ZM175 657V66H219Q280 66 324 81T398 132T441 223T455 360Q455 515 398 586T217 657H175Z" />
<glyph unicode="E" glyph-name="E" horiz-adv-x="500" d="M410 333H175V68H440V0H90V720H440V652H175V399H410V333Z" />
<glyph unicode="F" glyph-name="F" horiz-adv-x="470" d="M395 312H175V0H90V720H435V652H175V380H395V312Z" />
<glyph unicode="G" glyph-name="G" horiz-adv-x="598" d="M521 0H455L450 45Q423 14 387 0T310 -14Q260 -14 217 5T141 67T89 183T70 361Q70 468 91 540T149 655T231 717T328 736Q402 736 448 707T520 623L448 590Q431 628 404 649T331 671Q292 671 260 654T205
600T170 504T157 361Q157 272 168 213T202 118T254 67T322 52Q405 52 445 112V329H322V397H521V0Z" />
<glyph unicode="H" glyph-name="H" horiz-adv-x="620" d="M530 720V0H445V330H175V0H90V720H175V398H445V720H530Z" />
<glyph unicode="I" glyph-name="I" horiz-adv-x="265" d="M175 720V0H90V720H175Z" />
<glyph unicode="J" glyph-name="J" horiz-adv-x="408" d="M238 720H323V165Q323 77 278 32T154 -14Q99 -14 61 9T5 64L70 108Q82 84 104 70T153 56Q193 56 215 82T238 170V720Z" />
<glyph unicode="K" glyph-name="K" horiz-adv-x="543" d="M424 0L175 335V0H90V720H175V406L401 720H496L245 377L528 0H424Z" />
<glyph unicode="L" glyph-name="L" horiz-adv-x="472" d="M175 720V74H452V0H90V720H175Z" />
<glyph unicode="M" glyph-name="M" horiz-adv-x="747" d="M341 95L171 572V0H90V720H201L381 204L547 720H657V0H573V572L416 95H341Z" />
<glyph unicode="N" glyph-name="N" horiz-adv-x="601" d="M511 720V0H401L167 608V0H90V720H203L436 121V720H511Z" />
<glyph unicode="O" glyph-name="O" horiz-adv-x="658" d="M70 360Q70 465 92 536T150 652T232 715T329 735Q379 735 425 716T508 652T566 537T588 360Q588 255 566 184T508 68T425 5T329 -15Q279 -15 233 4T150 68T92 183T70 360ZM157 360Q157 208 200 129T329
50Q415 50 458 129T501 360Q501 512 458 591T329 670Q243 670 200 591T157 360Z" />
<glyph unicode="P" glyph-name="P" horiz-adv-x="521" d="M252 720Q307 720 353 707T432 665T483 593T501 491Q501 432 483 389T431 317T352 274T251 260H175V0H90V720H252ZM175 655V325H250Q414 325 414 491Q414 569 375 612T254 655H175Z" />
<glyph unicode="Q" glyph-name="Q" horiz-adv-x="658" d="M70 360Q70 465 92 536T150 652T232 715T329 735Q379 735 425 716T508 652T566 537T588 360Q588 277 574 216T536 111T479 40T409 0L556 -88L499 -168L320 -15Q272 -13 227 7T147 72T91 187T70 360ZM157
360Q157 208 200 129T329 50Q415 50 458 129T501 360Q501 512 458 591T329 670Q243 670 200 591T157 360Z" />
<glyph unicode="R" glyph-name="R" horiz-adv-x="557" d="M441 0L280 282H175V0H90V720H240Q357 720 423 667T489 498Q489 457 479 426T452 370T412 329T363 301L542 0H441ZM175 655V347H242Q320 347 361 384T402 498Q402 574 365 614T239 655H175Z" />
<glyph unicode="S" glyph-name="S" horiz-adv-x="548" d="M284 669Q228 669 192 643T156 559Q156 533 163 513T186 477T230 447T297 417Q336 402 371 384T432 340T474 277T490 187Q490 146 474 109T428 45T357 1T267 -15Q217 -15 180 -3T115 30T71 77T43 131L115
158Q122 138 133 119T163 86T206 62T268 53Q292 53 316 59T359 81T391 121T403 182Q403 220 394 245T364 289T310 323T231 357Q150 390 112 437T73 553Q73 591 87 624T128 682T193 721T282 735Q367 735 415 701T489 607L415 581Q398 623 368 646T284 669Z" />
<glyph unicode="T" glyph-name="T" horiz-adv-x="475" d="M455 646H279V0H194V646H20V720H455V646Z" />
<glyph unicode="U" glyph-name="U" horiz-adv-x="609" d="M170 720V210Q170 135 201 94T305 53Q378 53 410 94T443 210V720H524V209Q524 99 468 42T305 -15Q199 -15 142 42T85 209V720H170Z" />
<glyph unicode="V" glyph-name="V" horiz-adv-x="525" d="M515 720L321 0H207L10 720H98L265 61L437 720H515Z" />
<glyph unicode="W" glyph-name="W" horiz-adv-x="759" d="M734 720L614 0H512L385 536L254 0H145L25 720H112L207 89L334 627H443L562 91L656 720H734Z" />
<glyph unicode="X" glyph-name="X" horiz-adv-x="550" d="M320 375L515 0H418L274 292L122 0H35L232 372L53 720H148L281 452L420 720H508L320 375Z" />
<glyph unicode="Y" glyph-name="Y" horiz-adv-x="512" d="M502 720L300 288V0H216V288L10 720H103L260 376L419 720H502Z" />
<glyph unicode="Z" glyph-name="Z" horiz-adv-x="500" d="M129 67H440V0H40V75L362 653H63V720H450V648L129 67Z" />
<glyph unicode="[" glyph-name="bracketleft" horiz-adv-x="340" d="M278 -170H75V810H278V742H153V-102H278V-170Z" />
<glyph unicode="\" glyph-name="backslash" horiz-adv-x="265" d="M277 -85L208 -100L-12 705L57 720L277 -85Z" />
<glyph unicode="]" glyph-name="bracketright" horiz-adv-x="340" d="M62 -102H187V742H62V810H265V-170H62V-102Z" />
<glyph unicode="^" glyph-name="asciicircum" horiz-adv-x="500" d="M207 720H297L460 400H376L252 658L124 400H40L207 720Z" />
<glyph unicode="_" glyph-name="underscore" horiz-adv-x="480" d="M-2 -120V-52H482V-120H-2Z" />
<glyph unicode="`" glyph-name="grave" horiz-adv-x="270" d="M250 651L216 608L50 706L105 775L250 651Z" />
<glyph unicode="a" glyph-name="a" horiz-adv-x="537" d="M438 0L391 135H141L93 0H10L220 560H318L527 0H438ZM163 199H369L268 494L163 199Z" />
<glyph unicode="b" glyph-name="b" horiz-adv-x="546" d="M258 560Q375 560 424 523T474 415Q474 365 446 334T371 295Q397 292 419 283T459 256T486 214T496 156Q496 113 479 83T430 35T354 8T256 0H90V560H258ZM172 262V65H271Q299 65 324 67T369 79T399 107T410
156Q410 207 381 234T275 262H172ZM172 500V324H272Q338 324 365 347T392 415Q392 463 361 481T266 500H172Z" />
<glyph unicode="c" glyph-name="c" horiz-adv-x="563" d="M507 96Q482 48 433 17T308 -15Q269 -15 227 -1T150 46T93 137T70 280Q70 364 93 421T151 512T230 560T312 575Q382 575 427 546T498 474L429 440Q413 471 384 490T312 509Q285 509 257 499T207 462T170
391T155 280Q155 214 169 170T206 100T256 63T311 52Q357 52 389 73T439 133L507 96Z" />
<glyph unicode="d" glyph-name="d" horiz-adv-x="588" d="M235 560Q285 560 335 548T426 505T492 419T518 280Q518 196 490 142T420 56T328 12T234 0H90V560H235ZM171 499V63H238Q275 63 311 72T375 105T420 171T437 280Q437 347 419 389T372 456T308 490T237 499H171Z" />
<glyph unicode="e" glyph-name="e" horiz-adv-x="489" d="M400 252H172V67H429V0H90V560H429V493H172V317H400V252Z" />
<glyph unicode="f" glyph-name="f" horiz-adv-x="451" d="M382 242H172V0H90V560H411V493H172V307H382V242Z" />
<glyph unicode="g" glyph-name="g" horiz-adv-x="575" d="M430 444Q410 477 383 495T311 513Q284 513 256 503T205 466T168 394T153 280Q153 214 165 170T199 98T246 60T300 48Q343 48 374 70T426 121V246H308V309H498V0H442L437 56Q418 25 380 5T298 -15Q257
-15 217 0T144 50T91 141T70 280Q70 366 93 423T151 513T229 561T310 575Q344 575 372 567T422 546T461 516T489 480L430 444Z" />
<glyph unicode="h" glyph-name="h" horiz-adv-x="607" d="M517 560V0H434V251H172V0H90V560H172V318H434V560H517Z" />
<glyph unicode="i" glyph-name="i" horiz-adv-x="262" d="M172 560V0H90V560H172Z" />
<glyph unicode="j" glyph-name="j" horiz-adv-x="381" d="M73 109Q95 55 143 55Q181 55 197 77T214 146V560H296V148Q296 67 254 27T142 -13Q94 -13 59 12T5 77L73 109Z" />
<glyph unicode="k" glyph-name="k" horiz-adv-x="521" d="M402 0L171 257V0H90V560H171V318L378 560H476L244 293L506 0H402Z" />
<glyph unicode="l" glyph-name="l" horiz-adv-x="461" d="M172 560V71H441V0H90V560H172Z" />
<glyph unicode="m" glyph-name="m" horiz-adv-x="719" d="M321 0L167 440V0H90V560H205L366 92L514 560H629V0H549V440L407 0H321Z" />
<glyph unicode="n" glyph-name="n" horiz-adv-x="580" d="M490 560V0H374L167 468V0H90V560H208L415 97V560H490Z" />
<glyph unicode="o" glyph-name="o" horiz-adv-x="642" d="M70 280Q70 358 91 414T147 506T227 558T321 575Q369 575 414 559T495 506T551 414T572 280Q572 202 551 146T495 54T414 2T321 -15Q273 -15 228 1T148 54T91 146T70 280ZM154 280Q154 166 198 109T321
51Q399 51 443 108T488 280Q488 394 444 452T321 510Q243 510 199 453T154 280Z" />
<glyph unicode="p" glyph-name="p" horiz-adv-x="508" d="M244 560Q295 560 337 549T409 515T456 457T473 376Q473 329 456 295T407 237T333 203T240 192H171V0H90V560H244ZM171 498V254H242Q390 254 390 376Q390 435 354 466T246 498H171Z" />
<glyph unicode="q" glyph-name="q" horiz-adv-x="642" d="M308 -15Q262 -13 219 5T143 59T90 149T70 280Q70 358 91 414T147 506T227 558T321 575Q369 575 414 559T495 506T551 414T572 280Q572 218 558 170T521 88T465 31T397 -1L524 -84L461 -157L308 -15ZM154
280Q154 166 198 109T321 51Q399 51 443 108T488 280Q488 394 444 452T321 510Q243 510 199 453T154 280Z" />
<glyph unicode="r" glyph-name="r" horiz-adv-x="534" d="M423 0L277 206H171V0H90V560H239Q290 560 332 550T404 518T451 463T468 383Q468 313 437 275T358 220L519 0H423ZM171 498V268H237Q312 268 348 294T385 383Q385 442 349 470T241 498H171Z" />
<glyph unicode="s" glyph-name="s" horiz-adv-x="527" d="M119 136Q125 122 137 107T167 78T209 57T264 49Q286 49 308 54T347 70T375 98T386 141Q386 166 379 182T353 211T305 235T230 262Q158 286 117 322T75 421Q75 449 88 475T125 522T185 555T267 567Q336
567 384 538T459 461L389 433Q371 468 343 486T269 505Q247 505 226 501T189 487T163 463T153 427Q153 406 160 392T184 365T226 343T290 318Q334 302 367 288T422 254T456 209T467 144Q467 109 453 80T412 30T348 -3T264 -15Q219 -15 184 -4T122 24T77 63T50 104L119
136Z" />
<glyph unicode="t" glyph-name="t" horiz-adv-x="462" d="M437 489H271V0H189V489H25V560H437V489Z" />
<glyph unicode="u" glyph-name="u" horiz-adv-x="596" d="M167 560V175Q167 118 197 85T299 52Q370 52 401 85T432 175V560H511V181Q511 93 456 39T298 -15Q196 -15 141 39T85 181V560H167Z" />
<glyph unicode="v" glyph-name="v" horiz-adv-x="502" d="M492 560L307 0H195L10 560H100L253 62L410 560H492Z" />
<glyph unicode="w" glyph-name="w" horiz-adv-x="724" d="M699 560L588 0H485L367 478L246 0H136L25 560H112L197 86L316 560H425L535 88L619 560H699Z" />
<glyph unicode="x" glyph-name="x" horiz-adv-x="540" d="M320 295L505 0H407L269 226L125 0H35L222 288L52 560H148L274 356L406 560H496L320 295Z" />
<glyph unicode="y" glyph-name="y" horiz-adv-x="487" d="M477 560L285 216V0H205V216L10 560H102L247 290L395 560H477Z" />
<glyph unicode="z" glyph-name="z" horiz-adv-x="479" d="M131 64H420V0H40V70L340 496H62V560H429V492L131 64Z" />
<glyph unicode="{" glyph-name="braceleft" horiz-adv-x="340" d="M34 358Q70 358 91 378T113 446V643Q113 685 122 716T151 769T204 800T287 810V750Q228 750 208 730T188 658V468Q188 402 168 369T109 321Q147 307 167 273T188 173V-18Q188 -44 192 -62T208
-90T238 -105T287 -110V-170Q238 -170 205 -160T151 -129T122 -77T113 -3V195Q113 243 92 263T34 283V358Z" />
<glyph unicode="|" glyph-name="bar" horiz-adv-x="320" d="M201 800V-120H119V800H201Z" />
<glyph unicode="}" glyph-name="braceright" horiz-adv-x="340" d="M306 283Q270 283 249 263T227 195V-3Q227 -45 218 -76T189 -129T136 -160T53 -170V-110Q83 -110 102 -106T132 -91T147 -62T152 -18V173Q152 239 172 273T231 321Q193 335 173 368T152 468V658Q152
710 132 730T53 750V810Q102 810 135 800T189 769T218 717T227 643V446Q227 398 248 378T306 358V283Z" />
<glyph unicode="~" glyph-name="asciitilde" horiz-adv-x="560" d="M375 259Q340 259 315 266T268 283T228 299T184 307Q153 307 133 295T90 262L40 315Q75 349 112 365T184 382Q219 382 244 375T291 358T331 342T375 334Q406 334 426 346T469 379L519 326Q484
292 447 276T375 259Z" />
<glyph unicode="&#xa0;" glyph-name="nbspace" horiz-adv-x="300" />
<glyph unicode="&#xa1;" glyph-name="exclamdown" horiz-adv-x="270" d="M172 300L182 -180H92L102 300H172ZM185 540V440H85V540H185Z" />
<glyph unicode="&#xa2;" glyph-name="cent" horiz-adv-x="540" d="M147 271Q147 157 184 105T283 53Q326 53 354 73T408 137L473 95Q447 55 409 27T316 -10V-135H244V-10Q206 -4 173 15T116 67T77 151T63 269Q63 334 76 384T114 468T172 523T244 551V690H316V553Q361
548 396 529T462 468L400 423Q374 461 348 476T285 491Q223 491 185 438T147 271Z" />
<glyph unicode="&#xa3;" glyph-name="sterling" horiz-adv-x="540" d="M331 648Q287 648 259 617T231 519V414H427V354H231V172Q231 135 219 109T181 66H472V0H60V66H67Q102 68 125 92T148 166V354H70V414H148V521Q148 570 163 605T203 664T262 698T331 710Q402
710 445 681T515 592L441 566Q424 608 400 628T331 648Z" />
<glyph unicode="&#xa4;" glyph-name="currency" horiz-adv-x="600" d="M105 191Q86 219 75 255T64 340Q64 385 74 421T102 487L41 549L89 597L147 539Q180 567 220 580T299 594Q338 594 378 580T451 537L511 597L559 549L495 485Q512 456 522 421T533 340Q533
293 523 257T493 192L559 127L511 79L448 142Q415 116 376 104T299 91Q261 91 222 103T151 141L89 79L41 127L105 191ZM134 340Q134 250 180 201T300 152Q373 152 418 201T463 340Q463 385 451 420T418 480T366 518T299 532Q263 532 233 519T180 481T146 421T134
340Z" />
<glyph unicode="&#xa5;" glyph-name="yen" horiz-adv-x="540" d="M236 0V155H80V215H236V295H80V354H200L36 700H126L275 344L426 700H508L347 355H460V295H311V215H460V155H311V0H236Z" />
<glyph unicode="&#xa6;" glyph-name="brokenbar" horiz-adv-x="320" d="M201 800V420H119V800H201ZM201 260V-120H119V260H201Z" />
<glyph unicode="&#xa7;" glyph-name="section" horiz-adv-x="540" d="M457 309Q457 257 430 224T365 171Q437 128 437 50Q437 13 422 -15T382 -62T326 -91T260 -101Q194 -101 147 -73T80 3L151 33Q165 0 191 -19T261 -39Q279 -39 296 -34T326 -20T348 5T357 41Q357
62 351 76T329 102T290 122T229 142Q163 162 124 198T84 300Q84 351 111 384T175 437Q104 478 104 559Q104 596 118 624T156 671T211 700T276 710Q342 710 387 683T453 608L382 578Q368 611 344 629T275 648Q257 648 241 643T212 629T192 604T184 568Q184 547 191
533T214 508T254 488T312 467Q345 456 372 442T417 409T446 366T457 309ZM237 411Q202 394 182 372T161 312Q161 284 172 266T202 236T246 216T300 199L303 198Q338 215 359 237T380 297Q380 325 369 343T338 374T294 394T241 410L237 411Z" />
<glyph unicode="&#xa8;" glyph-name="dieresis" horiz-adv-x="360" d="M30 655V745H125V655H30ZM235 655V745H330V655H235Z" />
<glyph unicode="&#xa9;" glyph-name="copyright" horiz-adv-x="843" d="M551 239Q537 203 506 179T420 155Q398 155 373 163T327 195T293 258T279 361Q279 423 293 463T328 526T376 558T426 567Q474 567 502 542T546 481L487 460Q483 472 479 482T467 499T450
511T425 516Q410 516 396 509T371 483T353 436T346 361Q346 316 353 287T371 240T397 215T426 207Q457 207 471 222T492 261L551 239ZM783 360Q783 261 751 191T668 74T551 7T421 -15Q356 -15 291 6T175 74T91 190T59 360Q59 459 91 529T174 646T291 713T421 735Q486
735 551 714T667 646T751 530T783 360ZM715 360Q715 441 690 501T624 601T530 661T421 681Q365 681 312 661T218 602T152 502T127 360Q127 279 152 219T218 119T312 59T421 39Q477 39 530 59T624 118T690 218T715 360Z" />
<glyph unicode="&#xaa;" glyph-name="ordfeminine" horiz-adv-x="475" d="M331 318L324 368Q304 343 275 328T202 312Q175 312 152 320T112 344T86 380T76 426Q76 505 137 537T317 569V612Q317 644 299 663T243 682Q219 682 198 668T167 626L97 653Q117 689 152
712T248 735Q278 735 305 728T351 707T382 670T394 618V318H331ZM95 0V70H400V0H95ZM228 366Q255 366 278 378T317 407V519Q270 519 239 514T190 497T163 470T155 432Q155 412 161 400T178 380T202 369T228 366Z" />
<glyph unicode="&#xab;" glyph-name="guillemotleft" horiz-adv-x="490" d="M60 306L177 511L231 491L149 303L221 101L167 81L60 306ZM239 306L356 511L410 491L328 303L400 101L346 81L239 306Z" />
<glyph unicode="&#xac;" glyph-name="logicalnot" horiz-adv-x="540" d="M402 141V288H65V358H475V141H402Z" />
<glyph unicode="&#xad;" glyph-name="uni00AD" horiz-adv-x="425" d="M60 287V359H365V287H60Z" />
<glyph unicode="&#xae;" glyph-name="registered" horiz-adv-x="614" d="M591 445Q591 367 565 312T497 222T406 171T307 155Q259 155 209 171T117 222T50 312T23 445Q23 523 49 578T117 668T208 719T307 735Q355 735 405 719T497 668T564 578T591 445ZM525 445Q525
509 507 554T458 627T388 669T307 682Q266 682 227 669T157 628T108 554T89 445Q89 381 107 336T156 263T226 221T307 208Q348 208 387 221T457 262T506 336T525 445ZM361 294L304 406H275V294H217V600H306Q351 600 382 576T414 505Q414 474 399 452T359 419L427
294H361ZM275 553V454H307Q327 454 339 468T352 505Q352 527 340 540T304 553H275Z" />
<glyph unicode="&#xaf;" glyph-name="overscore" horiz-adv-x="330" d="M30 666V735H300V666H30Z" />
<glyph unicode="&#xb0;" glyph-name="degree" horiz-adv-x="355" d="M40 566Q40 601 51 628T82 673T126 700T178 710Q205 710 230 701T274 673T304 628T315 566Q315 531 304 505T274 460T230 433T178 424Q151 424 126 433T82 460T52 504T40 566ZM108 566Q108 524
126 500T178 476Q211 476 229 500T248 566Q248 608 230 633T178 658Q145 658 127 633T108 566Z" />
<glyph unicode="&#xb1;" glyph-name="plusminus" horiz-adv-x="540" d="M231 288H65V358H231V521H309V358H475V288H309V142H231V288ZM65 0V70H475V0H65Z" />
<glyph unicode="&#xb2;" glyph-name="twosuperior" horiz-adv-x="340" d="M169 754Q145 754 130 738T111 702L42 720Q56 759 88 784T175 810Q200 810 222 804T262 783T289 747T300 694Q300 656 275 624T217 559L138 480H298V420H47V480L179 614Q195 630 209 651T224
697Q224 718 212 736T169 754Z" />
<glyph unicode="&#xb3;" glyph-name="threesuperior" horiz-adv-x="340" d="M167 469Q198 469 212 487T227 536Q227 573 207 584T160 595H147V646H165Q187 646 202 660T217 704Q217 724 203 739T164 754Q140 754 125 740T105 701L39 721Q55 766 89 788T171 810Q192
810 213 804T252 785T279 752T290 705Q290 679 275 657T229 625Q243 622 256 615T280 597T297 570T303 531Q303 503 293 481T264 444T221 422T168 414Q141 414 119 422T81 442T54 471T39 503L107 523Q111 503 125 486T167 469Z" />
<glyph unicode="&#xb4;" glyph-name="acute" horiz-adv-x="270" d="M165 775L220 706L54 608L20 651L165 775Z" />
<glyph unicode="&#xb5;" glyph-name="mu" horiz-adv-x="536" d="M80 -180V540H160V180Q160 142 167 118T188 80T220 61T261 55Q298 55 325 76T376 138V540H456V0H386L382 62Q361 27 330 9T258 -10Q230 -10 204 0T160 30V-180H80Z" />
<glyph unicode="&#xb6;" glyph-name="paragraph" horiz-adv-x="550" d="M211 -170V375Q192 375 167 378T118 398T79 446T63 537Q63 592 79 624T118 673T166 695T211 700H287V-170H211ZM450 700V-170H374V700H450Z" />
<glyph unicode="&#xb7;" glyph-name="middot" horiz-adv-x="315" d="M107 273V373H207V273H107Z" />
<glyph unicode="&#xb8;" glyph-name="cedilla" horiz-adv-x="279" d="M249 -142Q249 -186 216 -213T132 -241Q103 -241 79 -235T35 -217L60 -168Q71 -173 87 -177T119 -182Q142 -182 159 -173T176 -138Q176 -115 152 -105T90 -89L110 20H175L170 -51Q212 -60 230
-85T249 -142Z" />
<glyph unicode="&#xb9;" glyph-name="onesuperior" horiz-adv-x="340" d="M54 420V481H144V730L69 686L39 739L140 800H215V481H289V420H54Z" />
<glyph unicode="&#xba;" glyph-name="ordmasculine" horiz-adv-x="475" d="M70 521Q70 580 84 621T121 687T174 724T238 735Q271 735 301 724T354 688T391 621T405 521Q405 462 392 422T355 357T302 322T238 311Q205 311 175 321T121 356T84 421T70 521ZM150 521Q150
440 175 404T239 367Q277 367 301 403T326 521Q326 602 302 640T238 678Q199 678 175 640T150 521ZM87 0V70H390V0H87Z" />
<glyph unicode="&#xbb;" glyph-name="guillemotright" horiz-adv-x="490" d="M323 81L269 101L341 303L259 491L313 511L430 306L323 81ZM144 81L90 101L162 303L80 491L134 511L251 306L144 81Z" />
<glyph unicode="&#xbc;" glyph-name="onequarter" horiz-adv-x="840" d="M707 240V129H763V71H707V0H641V71H494V133L586 389L646 371L561 129H643V177L654 240H707ZM243 -99L179 -70L626 810L690 781L243 -99ZM79 320V381H169V630L94 586L64 639L165 700H240V381H314V320H79Z"
/>
<glyph unicode="&#xbd;" glyph-name="onehalf" horiz-adv-x="840" d="M243 -99L179 -70L626 810L690 781L243 -99ZM639 334Q615 334 600 318T581 282L512 300Q526 339 558 364T645 390Q670 390 692 384T732 363T759 327T770 274Q770 236 745 204T687 139L608 60H768V0H517V60L649
194Q665 210 679 231T694 277Q694 298 682 316T639 334ZM72 320V381H162V630L87 586L57 639L158 700H233V381H307V320H72Z" />
<glyph unicode="&#xbe;" glyph-name="threequarters" horiz-adv-x="840" d="M707 240V129H763V71H707V0H641V71H494V133L586 389L646 371L561 129H643V177L654 240H707ZM243 -99L179 -70L626 810L690 781L243 -99ZM205 369Q236 369 250 387T265 436Q265 473 245
484T198 495H185V546H203Q225 546 240 560T255 604Q255 624 241 639T202 654Q178 654 163 640T143 601L77 621Q93 666 127 688T209 710Q230 710 251 704T290 685T317 652T328 605Q328 579 313 557T267 525Q281 522 294 515T318 497T335 470T341 431Q341 403 331
381T302 344T259 322T206 314Q179 314 157 322T119 342T92 371T77 403L145 423Q149 403 163 386T205 369Z" />
<glyph unicode="&#xbf;" glyph-name="questiondown" horiz-adv-x="484" d="M427 -54Q407 -123 356 -159T233 -195Q152 -195 105 -152T57 -34Q57 18 78 56T127 124L199 204V320H281V181L189 81Q160 50 150 23T140 -36Q140 -54 145 -71T162 -101T192 -122T237 -130Q285
-130 312 -102T350 -34L427 -54ZM290 540V435H185V540H290Z" />
<glyph unicode="&#xc0;" glyph-name="Agrave" horiz-adv-x="553" d="M453 0L400 193H148L94 0H10L225 720H329L543 0H453ZM167 258H382L276 642L167 258ZM330 802L306 758L131 836L174 905L330 802Z" />
<glyph unicode="&#xc1;" glyph-name="Aacute" horiz-adv-x="553" d="M453 0L400 193H148L94 0H10L225 720H329L543 0H453ZM167 258H382L276 642L167 258ZM380 905L423 836L248 758L224 802L380 905Z" />
<glyph unicode="&#xc2;" glyph-name="Acircumflex" horiz-adv-x="553" d="M453 0L400 193H148L94 0H10L225 720H329L543 0H453ZM167 258H382L276 642L167 258ZM154 756L118 804L240 895H312L434 804L398 756L276 826L154 756Z" />
<glyph unicode="&#xc3;" glyph-name="Atilde" horiz-adv-x="553" d="M453 0L400 193H148L94 0H10L225 720H329L543 0H453ZM167 258H382L276 642L167 258ZM216 1070Q196 1070 184 1063T157 1045L123 1093Q141 1112 167 1125T220 1138Q244 1138 259 1133T287 1121T311
1110T340 1104Q360 1104 372 1111T399 1129L433 1081Q415 1062 389 1049T336 1036Q312 1036 297 1041T269 1053T245 1064T216 1070Z" />
<glyph unicode="&#xc4;" glyph-name="Adieresis" horiz-adv-x="553" d="M453 0L400 193H148L94 0H10L225 720H329L543 0H453ZM167 258H382L276 642L167 258ZM127 785V875H222V785H127ZM332 785V875H427V785H332Z" />
<glyph unicode="&#xc5;" glyph-name="Aring" horiz-adv-x="553" d="M453 0L400 193H148L94 0H10L225 720H329L543 0H453ZM167 258H382L276 642L167 258ZM276 743Q301 743 318 759T336 808Q336 840 319 856T276 873Q251 873 234 857T216 808Q216 776 233 760T276
743ZM276 694Q251 694 229 701T190 724T163 760T153 808Q153 835 163 856T189 892T228 914T276 922Q301 922 323 915T362 892T389 856T399 808Q399 781 389 760T363 724T324 702T276 694Z" />
<glyph unicode="&#xc6;" glyph-name="AE" horiz-adv-x="820" d="M760 0H457L416 193H163L94 0H10L285 720H725V655H397L455 397H720V333H469L528 65H760V0ZM187 258H402L323 634L187 258Z" />
<glyph unicode="&#xc7;" glyph-name="Ccedilla" horiz-adv-x="582" d="M428 -142Q428 -186 395 -213T311 -241Q282 -241 258 -235T214 -217L239 -168Q250 -173 266 -177T298 -182Q321 -182 338 -173T355 -138Q355 -115 331 -105T269 -89L283 -11Q245 -5 208 16T139
81T89 192T70 360Q70 472 94 545T155 660T238 718T326 735Q365 735 396 725T452 699T493 660T522 614L447 585Q431 626 403 647T326 668Q292 668 262 654T208 604T172 509T158 360Q158 271 172 212T209 118T263 68T327 53Q382 53 411 80T458 150L531 119Q505 64
462 29T351 -14L349 -51Q391 -60 409 -85T428 -142Z" />
<glyph unicode="&#xc8;" glyph-name="Egrave" horiz-adv-x="500" d="M410 333H175V68H440V0H90V720H440V652H175V399H410V333ZM318 802L294 758L119 836L162 905L318 802Z" />
<glyph unicode="&#xc9;" glyph-name="Eacute" horiz-adv-x="500" d="M410 333H175V68H440V0H90V720H440V652H175V399H410V333ZM362 908L405 839L230 761L206 805L362 908Z" />
<glyph unicode="&#xca;" glyph-name="Ecircumflex" horiz-adv-x="500" d="M410 333H175V68H440V0H90V720H440V652H175V399H410V333ZM144 756L108 804L230 895H302L424 804L388 756L266 826L144 756Z" />
<glyph unicode="&#xcb;" glyph-name="Edieresis" horiz-adv-x="500" d="M410 333H175V68H440V0H90V720H440V652H175V399H410V333ZM116 785V875H211V785H116ZM321 785V875H416V785H321Z" />
<glyph unicode="&#xcc;" glyph-name="Igrave" horiz-adv-x="265" d="M175 720V0H90V720H175ZM452 802L428 758L253 836L296 905L452 802Z" />
<glyph unicode="&#xcd;" glyph-name="Iacute" horiz-adv-x="265" d="M175 720V0H90V720H175ZM227 905L270 836L95 758L71 802L227 905Z" />
<glyph unicode="&#xce;" glyph-name="Icircumflex" horiz-adv-x="265" d="M175 720V0H90V720H175ZM267 756L231 804L353 895H425L547 804L511 756L389 826L267 756Z" />
<glyph unicode="&#xcf;" glyph-name="Idieresis" horiz-adv-x="265" d="M175 720V0H90V720H175ZM240 785V875H335V785H240ZM445 785V875H540V785H445Z" />
<glyph unicode="&#xd0;" glyph-name="Eth" horiz-adv-x="621" d="M30 416H100V720H228Q299 720 358 704T460 646T527 536T551 360Q551 257 528 188T461 77T359 18T230 0H100V351H30V416ZM185 351V66H229Q290 66 334 81T408 132T451 223T465 360Q465 515 408 586T227
657H185V416H369V351H185Z" />
<glyph unicode="&#xd1;" glyph-name="Ntilde" horiz-adv-x="601" d="M511 720V0H401L167 608V0H90V720H203L436 121V720H511ZM242 818Q222 818 210 811T183 793L149 841Q167 860 193 873T246 886Q270 886 285 881T313 869T337 858T366 852Q386 852 398 859T425
877L459 829Q441 810 415 797T362 784Q338 784 323 789T295 801T271 812T242 818Z" />
<glyph unicode="&#xd2;" glyph-name="Ograve" horiz-adv-x="658" d="M70 360Q70 465 92 536T150 652T232 715T329 735Q379 735 425 716T508 652T566 537T588 360Q588 255 566 184T508 68T425 5T329 -15Q279 -15 233 4T150 68T92 183T70 360ZM157 360Q157 208 200
129T329 50Q415 50 458 129T501 360Q501 512 458 591T329 670Q243 670 200 591T157 360ZM372 802L348 758L173 836L216 905L372 802Z" />
<glyph unicode="&#xd3;" glyph-name="Oacute" horiz-adv-x="658" d="M70 360Q70 465 92 536T150 652T232 715T329 735Q379 735 425 716T508 652T566 537T588 360Q588 255 566 184T508 68T425 5T329 -15Q279 -15 233 4T150 68T92 183T70 360ZM157 360Q157 208 200
129T329 50Q415 50 458 129T501 360Q501 512 458 591T329 670Q243 670 200 591T157 360ZM441 905L484 836L309 758L285 802L441 905Z" />
<glyph unicode="&#xd4;" glyph-name="Ocircumflex" horiz-adv-x="658" d="M70 360Q70 465 92 536T150 652T232 715T329 735Q379 735 425 716T508 652T566 537T588 360Q588 255 566 184T508 68T425 5T329 -15Q279 -15 233 4T150 68T92 183T70 360ZM157 360Q157
208 200 129T329 50Q415 50 458 129T501 360Q501 512 458 591T329 670Q243 670 200 591T157 360ZM207 756L171 804L293 895H365L487 804L451 756L329 826L207 756Z" />
<glyph unicode="&#xd5;" glyph-name="Otilde" horiz-adv-x="658" d="M70 360Q70 465 92 536T150 652T232 715T329 735Q379 735 425 716T508 652T566 537T588 360Q588 255 566 184T508 68T425 5T329 -15Q279 -15 233 4T150 68T92 183T70 360ZM157 360Q157 208 200
129T329 50Q415 50 458 129T501 360Q501 512 458 591T329 670Q243 670 200 591T157 360ZM266 816Q246 816 234 809T207 791L173 839Q191 858 217 871T270 884Q294 884 309 879T337 867T361 856T390 850Q410 850 422 857T449 875L483 827Q465 808 439 795T386 782Q362
782 347 787T319 799T295 810T266 816Z" />
<glyph unicode="&#xd6;" glyph-name="Odieresis" horiz-adv-x="658" d="M70 360Q70 465 92 536T150 652T232 715T329 735Q379 735 425 716T508 652T566 537T588 360Q588 255 566 184T508 68T425 5T329 -15Q279 -15 233 4T150 68T92 183T70 360ZM157 360Q157 208
200 129T329 50Q415 50 458 129T501 360Q501 512 458 591T329 670Q243 670 200 591T157 360ZM178 785V875H273V785H178ZM383 785V875H478V785H383Z" />
<glyph unicode="&#xd7;" glyph-name="multiply" horiz-adv-x="540" d="M270 267L134 131L80 185L216 321L80 457L134 511L270 375L406 511L460 457L324 321L460 185L406 131L270 267Z" />
<glyph unicode="&#xd8;" glyph-name="Oslash" horiz-adv-x="658" d="M70 360Q70 465 92 536T150 652T232 715T329 735Q354 735 378 731T426 715L468 826L531 806L483 678Q530 636 559 559T588 360Q588 255 566 184T508 68T425 5T329 -15Q278 -15 233 4L192 -108L129
-88L176 40Q129 82 100 159T70 360ZM157 360Q157 191 209 114L403 650Q371 670 329 670Q243 670 200 591T157 360ZM501 360Q501 524 449 604L254 70Q288 50 329 50Q415 50 458 129T501 360Z" />
<glyph unicode="&#xd9;" glyph-name="Ugrave" horiz-adv-x="609" d="M170 720V210Q170 135 201 94T305 53Q378 53 410 94T443 210V720H524V209Q524 99 468 42T305 -15Q199 -15 142 42T85 209V720H170ZM349 802L325 758L150 836L193 905L349 802Z" />
<glyph unicode="&#xda;" glyph-name="Uacute" horiz-adv-x="609" d="M170 720V210Q170 135 201 94T305 53Q378 53 410 94T443 210V720H524V209Q524 99 468 42T305 -15Q199 -15 142 42T85 209V720H170ZM420 905L463 836L288 758L264 802L420 905Z" />
<glyph unicode="&#xdb;" glyph-name="Ucircumflex" horiz-adv-x="609" d="M170 720V210Q170 135 201 94T305 53Q378 53 410 94T443 210V720H524V209Q524 99 468 42T305 -15Q199 -15 142 42T85 209V720H170ZM183 1010L147 1058L269 1149H341L463 1058L427 1010L305
1080L183 1010Z" />
<glyph unicode="&#xdc;" glyph-name="Udieresis" horiz-adv-x="609" d="M170 720V210Q170 135 201 94T305 53Q378 53 410 94T443 210V720H524V209Q524 99 468 42T305 -15Q199 -15 142 42T85 209V720H170ZM156 785V875H251V785H156ZM361 785V875H456V785H361Z" />
<glyph unicode="&#xdd;" glyph-name="Yacute" horiz-adv-x="512" d="M502 720L300 288V0H216V288L10 720H103L260 376L419 720H502ZM384 905L427 836L252 758L228 802L384 905Z" />
<glyph unicode="&#xde;" glyph-name="Thorn" horiz-adv-x="561" d="M175 720V595H252Q307 595 353 582T432 540T483 468T501 366Q501 307 483 264T431 192T352 149T251 135H175V0H90V720H175ZM175 530V200H250Q414 200 414 366Q414 444 375 487T254 530H175Z" />
<glyph unicode="&#xdf;" glyph-name="germandbls" horiz-adv-x="1023" d="M119 136Q125 122 137 107T167 78T209 57T264 49Q286 49 308 54T347 70T375 98T386 141Q386 166 379 182T353 211T305 235T230 262Q158 286 117 322T75 421Q75 449 88 475T125 522T185
555T267 567Q336 567 384 538T459 461L389 433Q371 468 343 486T269 505Q247 505 226 501T189 487T163 463T153 427Q153 406 160 392T184 365T226 343T290 318Q334 302 367 288T422 254T456 209T467 144Q467 109 453 80T412 30T348 -3T264 -15Q219 -15 184 -4T122
24T77 63T50 104L119 136ZM615 136Q621 122 633 107T663 78T705 57T760 49Q782 49 804 54T843 70T871 98T882 141Q882 166 875 182T849 211T801 235T726 262Q654 286 613 322T571 421Q571 449 584 475T621 522T681 555T763 567Q832 567 880 538T955 461L885 433Q867
468 839 486T765 505Q743 505 722 501T685 487T659 463T649 427Q649 406 656 392T680 365T722 343T786 318Q830 302 863 288T918 254T952 209T963 144Q963 109 949 80T908 30T844 -3T760 -15Q715 -15 680 -4T618 24T573 63T546 104L615 136Z" />
<glyph unicode="&#xe0;" glyph-name="agrave" horiz-adv-x="537" d="M438 0L391 135H141L93 0H10L220 560H318L527 0H438ZM163 199H369L268 494L163 199ZM328 651L294 608L128 706L183 775L328 651Z" />
<glyph unicode="&#xe1;" glyph-name="aacute" horiz-adv-x="537" d="M438 0L391 135H141L93 0H10L220 560H318L527 0H438ZM163 199H369L268 494L163 199ZM353 775L408 706L242 608L208 651L353 775Z" />
<glyph unicode="&#xe2;" glyph-name="acircumflex" horiz-adv-x="537" d="M438 0L391 135H141L93 0H10L220 560H318L527 0H438ZM163 199H369L268 494L163 199ZM148 617L110 664L232 765H304L426 664L388 617L268 696L148 617Z" />
<glyph unicode="&#xe3;" glyph-name="atilde" horiz-adv-x="537" d="M438 0L391 135H141L93 0H10L220 560H318L527 0H438ZM163 199H369L268 494L163 199ZM206 676Q186 676 174 669T147 651L113 699Q131 718 157 731T210 744Q234 744 249 739T277 727T301 716T330
710Q350 710 362 717T389 735L423 687Q405 668 379 655T326 642Q302 642 287 647T259 659T235 670T206 676Z" />
<glyph unicode="&#xe4;" glyph-name="adieresis" horiz-adv-x="537" d="M438 0L391 135H141L93 0H10L220 560H318L527 0H438ZM163 199H369L268 494L163 199ZM118 655V745H213V655H118ZM323 655V745H418V655H323Z" />
<glyph unicode="&#xe5;" glyph-name="aring" horiz-adv-x="537" d="M438 0L391 135H141L93 0H10L218 556Q186 568 166 595T145 662Q145 689 155 710T181 746T220 768T268 776Q293 776 315 769T354 746T381 710T391 662Q391 622 371 596T319 557L527 0H438ZM163
199H369L268 494L163 199ZM268 597Q293 597 310 613T328 662Q328 694 311 710T268 727Q243 727 226 711T208 662Q208 630 225 614T268 597Z" />
<glyph unicode="&#xe6;" glyph-name="ae" horiz-adv-x="792" d="M732 0H442L402 135H149L93 0H10L253 560H714V493H372L427 317H698V252H448L506 67H732V0ZM176 199H383L297 488L176 199Z" />
<glyph unicode="&#xe7;" glyph-name="ccedilla" horiz-adv-x="563" d="M407 -142Q407 -186 374 -213T290 -241Q261 -241 237 -235T193 -217L218 -168Q229 -173 245 -177T277 -182Q300 -182 317 -173T334 -138Q334 -115 310 -105T248 -89L262 -10Q227 -4 193 14T131
67T87 154T70 280Q70 364 93 421T151 512T230 560T312 575Q382 575 427 546T498 474L429 440Q413 471 384 490T312 509Q285 509 257 499T207 462T170 391T155 280Q155 214 169 170T206 100T256 63T311 52Q357 52 389 73T439 133L507 96Q484 51 440 21T330 -14L328
-51Q370 -60 388 -85T407 -142Z" />
<glyph unicode="&#xe8;" glyph-name="egrave" horiz-adv-x="489" d="M400 252H172V67H429V0H90V560H429V493H172V317H400V252ZM334 651L300 608L134 706L189 775L334 651Z" />
<glyph unicode="&#xe9;" glyph-name="eacute" horiz-adv-x="489" d="M400 252H172V67H429V0H90V560H429V493H172V317H400V252ZM329 775L384 706L218 608L184 651L329 775Z" />
<glyph unicode="&#xea;" glyph-name="ecircumflex" horiz-adv-x="489" d="M400 252H172V67H429V0H90V560H429V493H172V317H400V252ZM142 617L104 664L226 765H298L420 664L382 617L262 696L142 617Z" />
<glyph unicode="&#xeb;" glyph-name="edieresis" horiz-adv-x="489" d="M400 252H172V67H429V0H90V560H429V493H172V317H400V252ZM110 655V745H205V655H110ZM315 655V745H410V655H315Z" />
<glyph unicode="&#xec;" glyph-name="igrave" horiz-adv-x="262" d="M172 560V0H90V560H172ZM448 651L414 608L248 706L303 775L448 651Z" />
<glyph unicode="&#xed;" glyph-name="iacute" horiz-adv-x="262" d="M172 560V0H90V560H172ZM216 775L271 706L105 608L71 651L216 775Z" />
<glyph unicode="&#xee;" glyph-name="icircumflex" horiz-adv-x="262" d="M172 560V0H90V560H172ZM268 617L230 664L352 765H424L546 664L508 617L388 696L268 617Z" />
<glyph unicode="&#xef;" glyph-name="idieresis" horiz-adv-x="262" d="M172 560V0H90V560H172ZM238 655V745H333V655H238ZM443 655V745H538V655H443Z" />
<glyph unicode="&#xf0;" glyph-name="eth" horiz-adv-x="598" d="M100 250H40V313H100V560H245Q295 560 345 548T436 505T502 419T528 280Q528 196 500 142T430 56T338 12T244 0H100V250ZM181 250V63H248Q285 63 321 72T385 105T430 171T447 280Q447 347 429 389T382
456T318 490T247 499H181V313H344V250H181Z" />
<glyph unicode="&#xf1;" glyph-name="ntilde" horiz-adv-x="580" d="M490 560V0H374L167 468V0H90V560H208L415 97V560H490ZM228 676Q208 676 196 669T169 651L135 699Q153 718 179 731T232 744Q256 744 271 739T299 727T323 716T352 710Q372 710 384 717T411
735L445 687Q427 668 401 655T348 642Q324 642 309 647T281 659T257 670T228 676Z" />
<glyph unicode="&#xf2;" glyph-name="ograve" horiz-adv-x="642" d="M70 280Q70 358 91 414T147 506T227 558T321 575Q369 575 414 559T495 506T551 414T572 280Q572 202 551 146T495 54T414 2T321 -15Q273 -15 228 1T148 54T91 146T70 280ZM154 280Q154 166 198
109T321 51Q399 51 443 108T488 280Q488 394 444 452T321 510Q243 510 199 453T154 280ZM381 651L347 608L181 706L236 775L381 651Z" />
<glyph unicode="&#xf3;" glyph-name="oacute" horiz-adv-x="642" d="M70 280Q70 358 91 414T147 506T227 558T321 575Q369 575 414 559T495 506T551 414T572 280Q572 202 551 146T495 54T414 2T321 -15Q273 -15 228 1T148 54T91 146T70 280ZM154 280Q154 166 198
109T321 51Q399 51 443 108T488 280Q488 394 444 452T321 510Q243 510 199 453T154 280ZM406 775L461 706L295 608L261 651L406 775Z" />
<glyph unicode="&#xf4;" glyph-name="ocircumflex" horiz-adv-x="642" d="M70 280Q70 358 91 414T147 506T227 558T321 575Q369 575 414 559T495 506T551 414T572 280Q572 202 551 146T495 54T414 2T321 -15Q273 -15 228 1T148 54T91 146T70 280ZM154 280Q154
166 198 109T321 51Q399 51 443 108T488 280Q488 394 444 452T321 510Q243 510 199 453T154 280ZM201 617L163 664L285 765H357L479 664L441 617L321 696L201 617Z" />
<glyph unicode="&#xf5;" glyph-name="otilde" horiz-adv-x="642" d="M70 280Q70 358 91 414T147 506T227 558T321 575Q369 575 414 559T495 506T551 414T572 280Q572 202 551 146T495 54T414 2T321 -15Q273 -15 228 1T148 54T91 146T70 280ZM154 280Q154 166 198
109T321 51Q399 51 443 108T488 280Q488 394 444 452T321 510Q243 510 199 453T154 280ZM259 676Q239 676 227 669T200 651L166 699Q184 718 210 731T263 744Q287 744 302 739T330 727T354 716T383 710Q403 710 415 717T442 735L476 687Q458 668 432 655T379 642Q355
642 340 647T312 659T288 670T259 676Z" />
<glyph unicode="&#xf6;" glyph-name="odieresis" horiz-adv-x="642" d="M70 280Q70 358 91 414T147 506T227 558T321 575Q369 575 414 559T495 506T551 414T572 280Q572 202 551 146T495 54T414 2T321 -15Q273 -15 228 1T148 54T91 146T70 280ZM154 280Q154 166
198 109T321 51Q399 51 443 108T488 280Q488 394 444 452T321 510Q243 510 199 453T154 280ZM171 655V745H266V655H171ZM376 655V745H471V655H376Z" />
<glyph unicode="&#xf7;" glyph-name="divide" horiz-adv-x="540" d="M220 51V151H320V51H220ZM220 489V589H320V489H220ZM65 288V358H475V288H65Z" />
<glyph unicode="&#xf8;" glyph-name="oslash" horiz-adv-x="642" d="M70 280Q70 358 91 414T147 506T227 558T321 575Q366 575 410 560L452 653L520 626L474 525Q518 490 545 430T572 280Q572 202 551 146T495 54T414 2T321 -15Q279 -15 237 -1L192 -102L122 -74L171
33Q126 68 98 128T70 280ZM154 280Q154 158 206 100L384 498Q355 510 321 510Q243 510 199 453T154 280ZM488 280Q488 396 440 456L263 61Q287 51 321 51Q399 51 443 108T488 280Z" />
<glyph unicode="&#xf9;" glyph-name="ugrave" horiz-adv-x="596" d="M167 560V175Q167 118 197 85T299 52Q370 52 401 85T432 175V560H511V181Q511 93 456 39T298 -15Q196 -15 141 39T85 181V560H167ZM358 651L324 608L158 706L213 775L358 651Z" />
<glyph unicode="&#xfa;" glyph-name="uacute" horiz-adv-x="596" d="M167 560V175Q167 118 197 85T299 52Q370 52 401 85T432 175V560H511V181Q511 93 456 39T298 -15Q196 -15 141 39T85 181V560H167ZM383 775L438 706L272 608L238 651L383 775Z" />
<glyph unicode="&#xfb;" glyph-name="ucircumflex" horiz-adv-x="596" d="M167 560V175Q167 118 197 85T299 52Q370 52 401 85T432 175V560H511V181Q511 93 456 39T298 -15Q196 -15 141 39T85 181V560H167ZM178 617L140 664L262 765H334L456 664L418 617L298 696L178
617Z" />
<glyph unicode="&#xfc;" glyph-name="udieresis" horiz-adv-x="596" d="M167 560V175Q167 118 197 85T299 52Q370 52 401 85T432 175V560H511V181Q511 93 456 39T298 -15Q196 -15 141 39T85 181V560H167ZM148 655V745H243V655H148ZM353 655V745H448V655H353Z" />
<glyph unicode="&#xfd;" glyph-name="yacute" horiz-adv-x="487" d="M477 560L285 216V0H205V216L10 560H102L247 290L395 560H477ZM328 775L383 706L217 608L183 651L328 775Z" />
<glyph unicode="&#xfe;" glyph-name="thorn" horiz-adv-x="543" d="M171 560V470H244Q295 470 337 459T409 425T456 367T473 286Q473 239 456 205T407 147T333 113T240 102H171V0H90V560H171ZM171 408V164H242Q390 164 390 286Q390 345 354 376T246 408H171Z" />
<glyph unicode="&#xff;" glyph-name="ydieresis" horiz-adv-x="487" d="M477 560L285 216V0H205V216L10 560H102L247 290L395 560H477ZM93 655V745H188V655H93ZM298 655V745H393V655H298Z" />
<glyph unicode="&#x2013;" glyph-name="endash" horiz-adv-x="400" d="M0 287V359H400V287H0Z" />
<glyph unicode="&#x2014;" glyph-name="emdash" horiz-adv-x="600" d="M0 287V359H600V287H0Z" />
<glyph unicode="&#x2018;" glyph-name="quoteleft" horiz-adv-x="258" d="M159 583V488H59V582L134 736H181L159 583Z" />
<glyph unicode="&#x2019;" glyph-name="quoteright" horiz-adv-x="258" d="M83 610V705H183V611L108 457H61L83 610Z" />
<glyph unicode="&#x201a;" glyph-name="quotesinglbase" horiz-adv-x="258" d="M83 0V95H183V1L108 -153H61L83 0Z" />
<glyph unicode="&#x201c;" glyph-name="quotedblleft" horiz-adv-x="417" d="M318 583V488H218V582L293 736H340L318 583ZM159 583V488H59V582L134 736H181L159 583Z" />
<glyph unicode="&#x201d;" glyph-name="quotedblright" horiz-adv-x="408" d="M83 610V705H183V611L108 457H61L83 610ZM233 610V705H333V611L258 457H211L233 610Z" />
<glyph unicode="&#x201e;" glyph-name="quotedblbase" horiz-adv-x="408" d="M233 0V95H333V1L258 -153H211L233 0ZM83 0V95H183V1L108 -153H61L83 0Z" />
<glyph unicode="&#x2022;" glyph-name="bullet" horiz-adv-x="315" d="M80 252V397H235V252H80Z" />
<glyph unicode="&#x2039;" glyph-name="guilsinglleft" horiz-adv-x="311" d="M60 306L177 511L231 491L149 303L221 101L167 81L60 306Z" />
<glyph unicode="&#x203a;" glyph-name="guilsinglright" horiz-adv-x="311" d="M144 81L90 101L162 303L80 491L134 511L251 306L144 81Z" />
</font>
</defs>
</svg>
