<?xml version="1.0" standalone="no"?>
<!DOCTYPE svg PUBLIC "-//W3C//DTD SVG 1.1//EN" "http://www.w3.org/Graphics/SVG/1.1/DTD/svg11.dtd">
<svg xmlns="http://www.w3.org/2000/svg">
<defs >
<font id="SixCaps" horiz-adv-x="410" ><font-face
    font-family="Six Caps"
    units-per-em="2048"
    panose-1="2 0 5 8 2 0 0 2 0 4"
    ascent="2263"
    descent="-432"
    alphabetic="0" />
<glyph unicode=" " glyph-name="space" horiz-adv-x="237" />
<glyph unicode="!" glyph-name="exclam" horiz-adv-x="259" d="M224 1728L160 256H96L32 1728H224ZM192 160V0H64V160H192Z" />
<glyph unicode="&quot;" glyph-name="quotedbl" horiz-adv-x="448" d="M384 1728L352 1376H288L256 1728H384ZM192 1728L160 1376H96L64 1728H192Z" />
<glyph unicode="#" glyph-name="numbersign" horiz-adv-x="512" d="M480 608H418L384 0H256L290 608H194L160 0H32L66 608H0V704H71L87 992H32V1088H93L128 1728H256L221 1088H317L352 1728H480L445 1088H512V992H439L423 704H480V608ZM199 704H295L311 992H215L199 704Z" />
<glyph unicode="$" glyph-name="dollar" horiz-adv-x="461" d="M183 -13Q156 -6 132 7T89 40Q72 60 62 87T52 150V737H187V150Q187 130 199 119T232 107Q249 107 260 118T272 150V421Q272 527 263 603T238 736T203 835T162 914T122 988T87 1073T62 1182T52 1330V1625Q52
1686 89 1722T183 1775V2001H288V1772Q342 1756 376 1719Q391 1701 399 1678T408 1628V1108H272V1626Q272 1643 261 1654T232 1665Q213 1665 200 1653T187 1625V1376Q187 1291 196 1228T221 1115T257 1026T297 951T338 877T373 793T398 688T408 550V154Q408 82
378 43T288 -13V-240H183V-13Z" />
<glyph unicode="%" glyph-name="percent" horiz-adv-x="1084" d="M1036 362Q1036 331 1022 304T984 257T928 224T861 212Q824 212 792 224T735 257T697 306T683 367V909Q683 941 697 969T735 1018T791 1051T861 1063Q896 1063 928 1052T984 1020T1022 973T1036
912V362ZM898 933Q898 949 887 958T861 968Q845 968 833 959T820 933V342Q820 334 830 322T861 310Q876 310 887 319T898 342V933ZM402 844Q402 813 388 786T349 738T293 705T226 693Q190 693 158 705T101 738T63 787T48 849V1391Q48 1422 62 1450T101 1499T157
1532T226 1545Q261 1545 293 1534T349 1502T387 1454T402 1393V844ZM264 1415Q264 1430 253 1440T226 1450Q211 1450 199 1440T186 1415V824Q186 815 196 804T226 792Q242 792 253 801T264 824V1415ZM701 1761L512 0H378L567 1761H701Z" />
<glyph unicode="&amp;" glyph-name="ampersand" horiz-adv-x="491" d="M415 1077H280V1638Q280 1652 267 1663T231 1674Q213 1674 200 1663T186 1638V1062Q186 1029 192 1011T211 985T241 976T282 974V857Q259 857 241 857T211 851T193 833T186 797V127Q186 112
199 100T231 88Q254 88 267 100T280 127V749H503L502 638L415 636V124Q415 95 401 69T361 22T303 -9T231 -21Q195 -21 163 -10T106 22T67 70T52 127V801Q52 840 67 865T103 903Q127 919 156 926Q125 932 103 950Q83 964 68 990T52 1062V1638Q52 1668 66 1695T105
1741T162 1772T231 1784Q269 1784 302 1773T361 1743T400 1696T415 1638V1077Z" />
<glyph unicode="&apos;" glyph-name="quotesingle" horiz-adv-x="273" d="M216 1761L174 1402H88L57 1761H216Z" />
<glyph unicode="(" glyph-name="parenleft" horiz-adv-x="352" d="M32 896Q32 984 33 1080T43 1268T68 1444T117 1590T198 1691T320 1728V1632Q280 1632 253 1602T208 1520T180 1396T166 1243T161 1073T160 896Q160 808 160 715T165 532T180 364T207 226T252 131T320
96V0Q248 0 199 42T117 154T68 316T43 507T34 707T32 896Z" />
<glyph unicode=")" glyph-name="parenright" horiz-adv-x="352" d="M320 896Q320 984 319 1080T309 1268T284 1444T235 1590T154 1691T32 1728V1632Q72 1632 99 1602T144 1520T172 1396T186 1243T191 1073T192 896Q192 808 192 715T187 532T172 364T145 226T100
131T32 96V0Q104 0 153 42T235 154T284 316T309 507T318 707T320 896Z" />
<glyph unicode="*" glyph-name="asterisk" horiz-adv-x="608" d="M408 1161L305 1326L207 1161L122 1210L224 1376H32V1472H225L122 1639L206 1688L305 1521L408 1688L492 1639L383 1472H576V1376H384L492 1210L408 1161Z" />
<glyph unicode="+" glyph-name="plus" horiz-adv-x="640" d="M32 896H256V1152H384V896H608V768H384V512H256V768H32V896Z" />
<glyph unicode="," glyph-name="comma" horiz-adv-x="192" d="M160 192L128 -160H32V192H160Z" />
<glyph unicode="-" glyph-name="hyphen" horiz-adv-x="544" d="M512 704H32V832H512V704Z" />
<glyph unicode="." glyph-name="period" horiz-adv-x="224" d="M192 160V0H32V160H192Z" />
<glyph unicode="/" glyph-name="slash" horiz-adv-x="352" d="M320 1728L160 0H32L192 1728H320Z" />
<glyph unicode="0" glyph-name="zero" horiz-adv-x="416" d="M384 160Q384 112 369 76T329 16T273 -20T208 -32Q175 -32 144 -20T87 16T47 76T32 160V1568Q32 1616 47 1652T87 1712T143 1748T208 1760Q241 1760 272 1748T329 1712T369 1652T384 1568V160ZM256
1568Q256 1604 241 1622T208 1640Q190 1640 175 1622T160 1568V160Q160 124 175 106T208 88Q226 88 241 106T256 160V1568Z" />
<glyph unicode="1" glyph-name="one" horiz-adv-x="384" d="M32 96H128V1632H32V1728H256V96H352V0H32V96Z" />
<glyph unicode="2" glyph-name="two" horiz-adv-x="416" d="M32 1568Q32 1632 58 1674T123 1738T208 1760T293 1739T358 1675T384 1568Q384 1538 384 1521T380 1484T371 1432T354 1341T327 1186T287 944T233 588T160 96H384V0H32Q75 301 108 524T165 908T205 1175T231
1349T246 1452T253 1508T256 1539V1568Q256 1616 241 1640T208 1664T175 1640T160 1568V1280H32V1568Z" />
<glyph unicode="3" glyph-name="three" horiz-adv-x="448" d="M32 1568Q32 1616 47 1652T87 1712T143 1748T208 1760Q241 1760 272 1748T329 1712T369 1652T384 1568V1024Q384 1012 383 995T372 960T344 925T288 896Q324 884 343 867T372 832T382 797T384 768V160Q384
112 369 76T329 16T273 -20T208 -32Q175 -32 144 -20T87 16T47 76T32 160V608H160V160Q160 112 175 88T208 64Q226 64 241 88T256 160V768Q256 792 251 805T236 824T216 831T192 832H128V960H192Q204 960 215 961T236 968T250 987T256 1025V1568Q256 1616 241 1640T208
1664Q190 1664 175 1640T160 1568V1152H32V1568Z" />
<glyph unicode="4" glyph-name="four" horiz-adv-x="448" d="M384 1120V0H256V352H32L96 1728H224L160 470H256V1120H384Z" />
<glyph unicode="5" glyph-name="five" horiz-adv-x="451" d="M288 864Q288 900 273 918T240 936Q222 936 207 918T192 864H64V1728H416V1632H192V992Q211 1021 239 1037T297 1053Q319 1053 340 1043T379 1009T406 951T416 864V160Q416 112 401 76T361 16T305 -20T240
-32Q207 -32 176 -20T119 16T79 76T64 160V736H192V160Q192 112 207 88T240 64Q258 64 273 88T288 160V864Z" />
<glyph unicode="6" glyph-name="six" horiz-adv-x="480" d="M192 992Q221 1006 248 1014T298 1022Q352 1022 384 978T416 832V160Q416 112 401 76T361 16T305 -20T240 -32Q207 -32 176 -20T119 16T79 76T64 160V1568Q64 1616 79 1652T119 1712T175 1748T240 1760Q273
1760 304 1748T361 1712T401 1652T416 1568V1216H288V1568Q288 1616 273 1640T240 1664Q222 1664 207 1640T192 1568V992ZM288 832Q288 868 278 882T252 896Q237 896 221 886T192 864V160Q192 124 207 106T240 88Q258 88 273 106T288 160V832Z" />
<glyph unicode="7" glyph-name="seven" horiz-adv-x="352" d="M64 0L192 1632H32V1728H320L192 0H64Z" />
<glyph unicode="8" glyph-name="eight" horiz-adv-x="437" d="M208 -32Q175 -32 144 -20T87 16T47 76T32 160V416Q32 549 47 645T80 804Q101 878 128 928Q101 977 80 1040Q62 1094 47 1170T32 1344V1568Q32 1616 47 1652T87 1712T143 1748T208 1760Q241 1760 272
1748T329 1712T369 1652T384 1568V1344Q384 1247 369 1171T336 1040Q315 977 288 928Q315 878 336 804Q354 741 369 645T384 416V160Q384 112 369 76T329 16T273 -20T208 -32ZM208 1640Q190 1640 175 1622T160 1568V1312Q160 1264 167 1213T184 1119Q195 1070 209
1023Q221 1070 232 1119Q241 1161 248 1212T256 1312V1568Q256 1604 241 1622T208 1640ZM209 832Q195 768 184 702Q175 645 168 578T160 448V160Q160 124 175 106T208 88Q226 88 241 106T256 160V448Q256 510 249 577T232 702Q221 768 209 832Z" />
<glyph unicode="9" glyph-name="nine" horiz-adv-x="480" d="M288 736Q259 722 232 714T182 706Q128 706 96 750T64 896V1568Q64 1616 79 1652T119 1712T175 1748T240 1760Q273 1760 304 1748T361 1712T401 1652T416 1568V160Q416 112 401 76T361 16T305 -20T240
-32Q207 -32 176 -20T119 16T79 76T64 160V512H192V160Q192 112 207 88T240 64Q258 64 273 88T288 160V736ZM192 896Q192 860 202 846T228 832Q243 832 259 842T288 864V1568Q288 1604 273 1622T240 1640Q222 1640 207 1622T192 1568V896Z" />
<glyph unicode=":" glyph-name="colon" horiz-adv-x="224" d="M192 1120V960H32V1120H192ZM192 448V288H32V448H192Z" />
<glyph unicode=";" glyph-name="semicolon" horiz-adv-x="224" d="M192 1120V960H32V1120H192ZM192 480L128 128H32V480H192Z" />
<glyph unicode="&lt;" glyph-name="less" horiz-adv-x="371" d="M5 876L288 0V391L141 876L288 1393V1761L5 876Z" />
<glyph unicode="=" glyph-name="equal" horiz-adv-x="576" d="M544 512H32V640H544V512ZM544 736H32V864H544V736Z" />
<glyph unicode="&gt;" glyph-name="greater" horiz-adv-x="371" d="M314 876L31 0V391L178 876L31 1393V1761L314 876Z" />
<glyph unicode="?" glyph-name="question" horiz-adv-x="433" d="M256 256H128V544Q128 651 137 723T161 849T192 948T223 1047T246 1170T256 1344V1568Q256 1612 241 1633T207 1655Q190 1655 175 1634T160 1568V1120H32V1568Q32 1616 47 1652T87 1712T143 1748T208
1760Q241 1760 272 1748T329 1712T369 1652T384 1568V1344Q384 1260 379 1200T364 1095T344 1013T320 940T297 862T276 763T262 630T256 448V256ZM256 128V0H128V128H256Z" />
<glyph unicode="@" glyph-name="at" horiz-adv-x="928" d="M640 288Q640 240 655 216T688 192T721 216T736 288V1376Q736 1442 713 1491T651 1574T564 1623T464 1640T364 1624T277 1574T216 1492T192 1376V288Q192 198 216 137T283 36T380 -23T495 -53T618 -63T736
-64L704 -160Q632 -160 557 -158T410 -144T276 -104T166 -28T92 99T64 288V1376Q64 1472 98 1544T189 1664T317 1736T464 1760T611 1736T739 1664T829 1544T864 1376V288Q864 224 845 181T797 114T732 84T665 89T609 126T576 192Q568 152 544 126T487 89T420 84T356
114T307 181T288 288V1376Q288 1432 314 1470T379 1529T464 1550T549 1534T614 1476T640 1376V288ZM512 1376Q512 1412 497 1430T464 1448T431 1430T416 1376V288Q416 240 431 216T464 192T497 216T512 288V1376Z" />
<glyph unicode="A" glyph-name="A" horiz-adv-x="448" d="M416 0H288L272 416H177L160 0H32L128 1728H320L416 0ZM256 896L224 1664L192 896L177 512H272L256 896Z" />
<glyph unicode="B" glyph-name="B" horiz-adv-x="512" d="M448 160Q448 100 426 68T368 20T286 3T192 0H64V1728H192Q252 1728 299 1726T380 1708T430 1661T448 1568V1024Q448 976 424 950T352 911Q400 900 424 874T448 800V160ZM192 960H288Q300 960 306 965T316
980T319 1000T320 1024V1568Q320 1592 314 1605T292 1624T253 1631T192 1632V960ZM320 800Q320 812 320 823T316 844T307 858T288 864H192V96Q228 96 252 97T292 104T313 123T320 160V800Z" />
<glyph unicode="C" glyph-name="C" horiz-adv-x="512" d="M448 1024H320V1568Q320 1592 315 1607T300 1631T280 1643T256 1647Q244 1647 233 1644T212 1632T198 1608T192 1568V160Q192 148 193 132T200 100T219 75T256 64Q280 64 293 74T312 100T319 131T320 160V832H448V160Q448
148 445 117T424 52T367 -6T256 -32Q184 -32 145 -7T88 52T67 116T64 160V1568Q64 1614 81 1647T125 1702T187 1733T256 1743Q293 1743 327 1732T389 1699T432 1644T448 1568V1024Z" />
<glyph unicode="D" glyph-name="D" horiz-adv-x="512" d="M320 1568Q320 1592 314 1605T292 1624T253 1631T192 1632V96Q228 96 252 97T292 104T313 123T320 160V1568ZM448 160Q448 100 426 68T368 20T286 3T192 0H64V1728H192Q240 1728 286 1726T368 1708T426
1661T448 1568V160Z" />
<glyph unicode="E" glyph-name="E" horiz-adv-x="384" d="M352 1632H192V960H320V864H192V96H352V0H64V1728H352V1632Z" />
<glyph unicode="F" glyph-name="F" horiz-adv-x="384" d="M352 1632H192V992H320V896H192V0H64V1728H352V1632Z" />
<glyph unicode="G" glyph-name="G" horiz-adv-x="512" d="M448 1024H320V1568Q320 1580 319 1594T312 1619T293 1639T256 1647Q232 1647 219 1639T200 1620T193 1594T192 1568V160Q192 148 193 132T200 100T219 75T256 64Q280 64 293 74T312 100T319 131T320 160V800H288V896H448V160Q448
148 445 117T424 52T367 -6T256 -32Q184 -32 145 -7T88 52T67 116T64 160V1568Q64 1576 65 1592T71 1627T88 1667T121 1705T175 1732T256 1743Q304 1743 337 1733T391 1705T424 1668T441 1628T447 1592T448 1568V1024Z" />
<glyph unicode="H" glyph-name="H" horiz-adv-x="512" d="M192 928H320V1728H448V0H320V832H192V0H64V1728H192V928Z" />
<glyph unicode="I" glyph-name="I" horiz-adv-x="288" d="M208 1728V0H80V1728H208Z" />
<glyph unicode="J" glyph-name="J" horiz-adv-x="512" d="M448 160Q445 106 424 64Q415 46 401 29T367 -2T320 -24T256 -32Q220 -32 193 -24T145 -3T111 28T88 64Q67 106 64 160V832H192V160Q192 148 193 132T200 100T219 75T256 64Q280 64 293 74T312 100T319
131T320 160V1728H448V160Z" />
<glyph unicode="K" glyph-name="K" horiz-adv-x="480" d="M448 0H320L192 864V0H64V1728H192V928L320 1728H448L320 992L306 896L320 800L448 0Z" />
<glyph unicode="L" glyph-name="L" horiz-adv-x="384" d="M192 1728V96H320V0H64V1728H192Z" />
<glyph unicode="M" glyph-name="M" horiz-adv-x="640" d="M416 1728H544L576 0H448V1184L352 96H288L192 1184V0H64L96 1728H224L320 544L416 1728Z" />
<glyph unicode="N" glyph-name="N" horiz-adv-x="512" d="M448 0H320L160 1280V0H64V1728H192L352 448V1728H448V0Z" />
<glyph unicode="O" glyph-name="O" horiz-adv-x="512" d="M448 160Q448 148 445 117T424 52T367 -6T256 -32Q184 -32 145 -7T88 52T67 116T64 160V1568Q64 1576 65 1592T71 1627T88 1667T121 1705T175 1732T256 1743Q304 1743 337 1733T391 1705T424 1668T441
1628T447 1592T448 1568V160ZM192 160Q192 148 193 132T200 100T219 75T256 64Q280 64 293 74T312 100T319 131T320 160V1568Q320 1580 319 1594T312 1619T293 1639T256 1647Q232 1647 219 1639T200 1620T193 1594T192 1568V160Z" />
<glyph unicode="P" glyph-name="P" horiz-adv-x="480" d="M448 992Q448 932 426 900T368 852T286 835T192 832V0H64V1728H192Q288 1728 340 1712T416 1672T444 1620T448 1568V992ZM320 1568Q320 1592 314 1605T292 1624T253 1631T192 1632V928Q216 928 239 929T280
936T309 955T320 992V1568Z" />
<glyph unicode="Q" glyph-name="Q" horiz-adv-x="512" d="M192 1568Q192 1580 193 1594T200 1619T219 1639T256 1647T293 1639T312 1620T319 1594T320 1568V160Q320 148 319 132T312 100T293 75T256 64T219 74T200 100T193 131T192 160V1568ZM448 1568Q448 1576
447 1592T441 1627T424 1667T391 1705T337 1732T256 1743T175 1733T121 1705T88 1668T71 1628T65 1592T64 1568V160Q64 148 67 117T88 52T145 -6Q166 -20 195 -26L224 -256H352L323 -25Q349 -18 367 -6Q406 19 424 52T445 116T448 160V1568Z" />
<glyph unicode="R" glyph-name="R" horiz-adv-x="512" d="M448 1024Q448 952 424 924T352 896Q376 896 394 885T424 856T442 815T448 768V0H320V800Q320 824 309 837T280 856T239 863T192 864V0H64V1728H192Q240 1728 286 1726T368 1708T426 1661T448 1568V1024ZM320
1568Q320 1592 314 1605T292 1624T253 1631T192 1632V928Q216 928 239 929T280 936T309 955T320 992V1568Z" />
<glyph unicode="S" glyph-name="S" horiz-adv-x="448" d="M288 421Q288 527 277 603T248 735T207 834T160 913T113 987T72 1071T43 1179T32 1327V1568Q32 1592 39 1622T68 1679T126 1724T224 1743Q284 1743 321 1725T380 1680T408 1623T416 1568V1120H288V1568Q288
1592 283 1607T268 1631T248 1643T224 1647Q212 1647 201 1644T180 1632T166 1608T160 1568V1373Q160 1260 179 1184T226 1052T288 949T349 850T397 726T416 550V160Q416 148 413 117T392 52T335 -6T224 -32Q152 -32 113 -7T56 52T35 116T32 160V736H160V160Q160
148 161 132T168 100T187 75T224 64Q248 64 261 74T280 100T287 131T288 160V421Z" />
<glyph unicode="T" glyph-name="T" horiz-adv-x="448" d="M416 1728V1632H288V0H160V1632H32V1728H416Z" />
<glyph unicode="U" glyph-name="U" horiz-adv-x="512" d="M192 160Q192 148 193 132T200 100T219 75T256 64Q280 64 293 74T312 100T319 131T320 160V1728H448V160Q448 148 445 117T424 52T367 -6T256 -32Q184 -32 145 -7T88 52T67 116T64 160V1728H192V160Z" />
<glyph unicode="V" glyph-name="V" horiz-adv-x="448" d="M193 1184L224 544L255 1184L288 1728H416L288 0H160L32 1728H160L193 1184Z" />
<glyph unicode="W" glyph-name="W" horiz-adv-x="704" d="M352 1472L320 992L256 0H128L32 1728H160L192 512L288 1728H416L512 512L544 1728H672L576 0H448L384 992L352 1472Z" />
<glyph unicode="X" glyph-name="X" horiz-adv-x="416" d="M192 1280L209 1024L224 1280L256 1728H384L288 864L384 0H256L224 448L208 704L192 448L160 0H32L128 864L32 1728H160L192 1280Z" />
<glyph unicode="Y" glyph-name="Y" horiz-adv-x="448" d="M192 1280L224 832L256 1280L288 1728H416L288 608V0H160V608L32 1728H160L192 1280Z" />
<glyph unicode="Z" glyph-name="Z" horiz-adv-x="352" d="M320 1728L160 96H320V0H32L192 1632H32V1728H320Z" />
<glyph unicode="[" glyph-name="bracketleft" horiz-adv-x="433" d="M6 1856V-96H262V0H134V1760H262V1856H6Z" />
<glyph unicode="\" glyph-name="backslash" horiz-adv-x="324" d="M135 1761L324 0H190L1 1761H135Z" />
<glyph unicode="]" glyph-name="bracketright" horiz-adv-x="392" d="M288 1856V-96H32V0H160V1760H32V1856H288Z" />
<glyph unicode="^" glyph-name="asciicircum" horiz-adv-x="320" d="M224 1120L288 768H192L160 1024L128 768H32L96 1120H224Z" />
<glyph unicode="_" glyph-name="underscore" horiz-adv-x="544" d="M544 -96H0V0H544V-96Z" />
<glyph unicode="`" glyph-name="grave" horiz-adv-x="326" d="M160 512L288 96H192L0 512H160Z" />
<glyph unicode="a" glyph-name="a" horiz-adv-x="448" d="M416 0H288L268 332H179L160 0H32L160 1536H288L416 0ZM261 436L224 1216L186 436H261Z" />
<glyph unicode="b" glyph-name="b" horiz-adv-x="512" d="M192 832H288Q300 832 306 837T316 852T319 872T320 896V1376Q320 1400 314 1413T292 1432T253 1439T192 1440V832ZM320 672Q320 684 320 695T316 716T307 730T288 736H192V96Q214 96 237 97T278 103T308
122T320 160V672ZM448 896Q448 848 423 822T343 783Q398 772 423 746T448 672V160Q448 100 426 68T368 20T286 3T192 0H64V1536H192Q252 1536 299 1534T380 1516T430 1469T448 1376V896Z" />
<glyph unicode="c" glyph-name="c" horiz-adv-x="512" d="M448 896H320V1392Q320 1426 303 1440T264 1455Q251 1455 239 1451T216 1438T199 1418T192 1392V144Q192 130 198 118T215 98T238 85T264 80Q286 80 303 95T320 144V704H448V144Q448 104 431 74T387 23T325
-8T254 -19Q218 -19 184 -9T123 21T80 72T64 144V1392Q64 1432 80 1463T124 1514T186 1544T257 1555Q293 1555 327 1545T388 1515T431 1464T448 1392V896Z" />
<glyph unicode="d" glyph-name="d" horiz-adv-x="512" d="M320 1410Q320 1429 302 1434Q285 1440 192 1440V96Q285 96 302 102Q320 108 320 127V1410ZM448 135Q448 84 427 57T363 16Q343 10 314 7T234 1Q183 0 144 0H64V1536Q105 1536 146 1536T231 1534Q319 1532
361 1521Q404 1509 426 1483T448 1407V135Z" />
<glyph unicode="e" glyph-name="e" horiz-adv-x="352" d="M320 1440H192V864H320V768H192V96H320V0H64V1536H320V1440Z" />
<glyph unicode="f" glyph-name="f" horiz-adv-x="368" d="M352 1440H192V864H320V768H192V0H64V1536H352V1440Z" />
<glyph unicode="g" glyph-name="g" horiz-adv-x="480" d="M192 144Q192 108 207 94T240 80Q258 80 273 94T288 144V672H256V768H416V144Q416 102 401 72T361 22T305 -7T240 -16Q207 -16 176 -7T119 21T79 71T64 144V1408Q64 1450 79 1480T119 1530T175 1559T240
1568Q273 1568 304 1559T361 1531T401 1481T416 1409V896H288V1409Q288 1445 273 1458T240 1472Q222 1472 207 1459T192 1409V144Z" />
<glyph unicode="h" glyph-name="h" horiz-adv-x="512" d="M320 1536H448V0H320V746H192V0H64V1536H192V846H320V1536Z" />
<glyph unicode="i" glyph-name="i" horiz-adv-x="288" d="M208 1536V0H80V1536H208Z" />
<glyph unicode="j" glyph-name="j" horiz-adv-x="480" d="M416 144Q416 102 401 72T361 22T305 -7T240 -16Q207 -16 176 -7T119 21T79 71T64 144V704H192V144Q192 108 207 94T240 80Q258 80 273 94T288 144V1536H416V144Z" />
<glyph unicode="k" glyph-name="k" horiz-adv-x="448" d="M416 0H288L192 704V0H64V1536H192V832L288 1536H416L305 768L416 0Z" />
<glyph unicode="l" glyph-name="l" horiz-adv-x="320" d="M192 1536V96H320V0H64V1536H192Z" />
<glyph unicode="m" glyph-name="m" horiz-adv-x="576" d="M399 1536H512V0H400V928L313 64H263L176 928V0H64V1536H177L288 608L399 1536Z" />
<glyph unicode="n" glyph-name="n" horiz-adv-x="512" d="M448 0H352L176 896V0H64V1536H160L337 608V1536H448V0Z" />
<glyph unicode="o" glyph-name="o" horiz-adv-x="512" d="M448 144Q448 102 433 72T391 21T332 -8T264 -18Q227 -18 191 -8T127 23T82 74T64 144V1392Q64 1430 81 1459T127 1509T192 1539T265 1550Q300 1550 333 1541T391 1512T432 1462T448 1392V144ZM320 1392Q320
1426 304 1440T265 1455Q252 1455 239 1451T216 1438T199 1418T192 1392V144Q192 130 198 118T215 98T238 86T264 81Q286 81 303 95T320 144V1392Z" />
<glyph unicode="p" glyph-name="p" horiz-adv-x="480" d="M448 864Q448 804 426 772T368 724T286 707T192 704V0H64V1536H224Q309 1536 354 1520T421 1480T445 1428T448 1376V864ZM320 1376Q320 1400 314 1413T292 1432T253 1439T192 1440V800Q216 800 239 801T280
812T309 840T320 896V1376Z" />
<glyph unicode="q" glyph-name="q" horiz-adv-x="512" d="M192 64H320L384 -192H256L192 64ZM448 144Q448 102 433 72T391 21T332 -8T264 -18Q227 -18 191 -8T127 23T82 74T64 144V1392Q64 1430 81 1459T127 1509T192 1539T265 1550Q300 1550 333 1541T391 1512T432
1462T448 1392V144ZM320 1392Q320 1426 304 1440T265 1455Q252 1455 239 1451T216 1438T199 1418T192 1392V144Q192 130 198 118T215 98T238 86T264 81Q286 81 303 95T320 144V1392Z" />
<glyph unicode="r" glyph-name="r" horiz-adv-x="480" d="M416 896Q416 848 392 822T320 785Q368 772 392 746T416 672V0H288V672Q288 696 282 709T264 728T234 735T192 736V0H64V1536H208Q273 1536 319 1526T391 1489T416 1408V896ZM288 1376Q288 1400 282 1413T264
1432T234 1439T192 1440V832Q216 832 234 833T264 840T282 859T288 896V1376Z" />
<glyph unicode="s" glyph-name="s" horiz-adv-x="480" d="M416 992H288V1392Q288 1428 273 1442T240 1456Q222 1456 207 1442T192 1392Q192 1285 202 1195T228 1029T264 891T304 776Q320 735 339 681T376 552T404 377T416 144Q416 102 401 72T361 22T305 -7T240
-16Q207 -16 176 -7T119 21T79 71T64 144V544H192V144Q192 108 207 94T240 80Q258 80 273 94T288 144Q288 273 276 370T244 542T203 673T161 776Q142 822 125 881T94 1015T72 1183T64 1392Q64 1434 79 1464T119 1513T175 1542T240 1552Q273 1552 304 1543T361 1514T401
1464T416 1392V992Z" />
<glyph unicode="t" glyph-name="t" horiz-adv-x="416" d="M400 1536V1440H272V0H144V1440H16V1536H400Z" />
<glyph unicode="u" glyph-name="u" horiz-adv-x="480" d="M288 1536H416V144Q416 102 401 72T361 22T305 -7T240 -16Q207 -16 176 -7T119 21T79 71T64 144V1536H192V144Q192 108 207 94T240 80Q258 80 273 94T288 144V1536Z" />
<glyph unicode="v" glyph-name="v" horiz-adv-x="416" d="M192 832L209 160L224 832L256 1536H384L288 0H128L32 1536H160L192 832Z" />
<glyph unicode="w" glyph-name="w" horiz-adv-x="640" d="M448 191V832L480 1536H608L512 0H384L352 608L320 1280L288 608L256 0H128L32 1536H160L192 832V191L224 832L256 1536H384L416 832L448 191Z" />
<glyph unicode="x" glyph-name="x" horiz-adv-x="416" d="M224 1088L256 1536H384L288 736L384 0H256L224 384L208 640L192 384L160 0H32L128 736L32 1536H160L192 1088L208 832L224 1088Z" />
<glyph unicode="y" glyph-name="y" horiz-adv-x="448" d="M256 1152L288 1536H416L288 512V0H160V512L32 1536H160L192 1152L224 736L256 1152Z" />
<glyph unicode="z" glyph-name="z" horiz-adv-x="320" d="M288 1536L168 96H288V0H32L160 1440H32V1536H288Z" />
<glyph unicode="{" glyph-name="braceleft" horiz-adv-x="348" d="M338 1876V1758H189V6H338V-109H55V1876H338Z" />
<glyph unicode="|" glyph-name="bar" horiz-adv-x="247" d="M192 1882V-120H58V1882H192Z" />
<glyph unicode="}" glyph-name="braceright" horiz-adv-x="392" d="M282 1876V-109H-1V6H145V1758H-1V1876H282Z" />
<glyph unicode="~" glyph-name="asciitilde" horiz-adv-x="326" d="M-15 101Q-15 135 -10 164T8 214T40 248T89 260Q114 260 132 254T169 239T207 224T255 217Q265 217 271 223T280 238Q285 247 286 260H365Q365 237 363 218T355 181Q345 150 323 126T255 101Q230
101 209 108T168 123T129 138T90 145Q81 145 76 139T67 123Q64 115 64 101H-15Z" />
<glyph unicode="&#xa1;" glyph-name="exclamdown" horiz-adv-x="242" d="M221 33L157 1505H93L29 33H221ZM189 1601V1761H61V1601H189Z" />
<glyph unicode="&#xa2;" glyph-name="cent" horiz-adv-x="430" d="M250 1686V1542Q278 1538 302 1527T346 1499T376 1461T389 1415V888H258V1412Q255 1426 245 1435T224 1444Q207 1444 197 1435T186 1412V109Q186 101 196 93T224 84Q234 84 244 92T258 109V713H389V109Q388
86 377 64T346 25T303 -3T250 -18V-155H193V-18Q164 -15 139 -4T94 25T64 64T52 109V1412Q52 1436 63 1458T94 1497T138 1526T193 1542V1686H250Z" />
<glyph unicode="&#xa3;" glyph-name="sterling" horiz-adv-x="548" d="M36 968H145V1637Q145 1667 160 1694T199 1741T256 1772T325 1784Q363 1784 396 1772T455 1740T494 1692T509 1635V1319H373V1638Q373 1655 359 1667T325 1679Q304 1679 292 1667T279 1638V968H507V862H279V383Q279
302 263 249T228 165Q205 126 175 106H507V0H18V106Q35 117 51 131T82 165Q106 196 125 248T145 382V862H36V968Z" />
<glyph unicode="&#xa4;" glyph-name="currency" horiz-adv-x="524" d="M419 801L355 869Q311 845 261 845Q209 845 166 869L102 800L29 862L107 952Q103 964 100 976T97 1000V1542Q97 1557 100 1571T111 1599Q109 1604 96 1620T69 1655L29 1700L102 1761L172 1676Q193
1686 214 1691T261 1697Q286 1697 307 1692T350 1676L421 1764L494 1700L409 1598Q422 1576 422 1545V996Q422 976 413 954L494 862L419 801ZM298 1566Q298 1582 288 1591T261 1601Q246 1601 233 1592T220 1566V975Q220 967 230 956T261 944Q277 944 287 952T298
975V1566Z" />
<glyph unicode="&#xa5;" glyph-name="yen" horiz-adv-x="445" d="M436 636H288V560H436V449H288V0H154V449H7V560H154V636H7V746H145L15 1761H156L222 1023L288 1761H422L295 746H436V636Z" />
<glyph unicode="&#xa6;" glyph-name="brokenbar" horiz-adv-x="254" d="M193 806V0H60V806H193ZM193 1761V888H60V1761H193Z" />
<glyph unicode="&#xa7;" glyph-name="section" horiz-adv-x="412" d="M24 932Q24 1005 38 1053T72 1131T117 1174T163 1195Q138 1240 113 1286T69 1388T37 1513T25 1673Q25 1705 41 1730T82 1773T138 1800T199 1809Q230 1809 261 1800T316 1774T356 1732T371 1674V1390H241V1673Q241
1689 229 1698T199 1707Q181 1707 169 1698T157 1673Q157 1576 174 1503T216 1369T271 1257T326 1151T369 1034T386 890Q386 818 373 770T339 692T295 647T248 626Q272 581 296 531T341 421T373 288T386 126Q386 93 370 67T329 24T273 -2T212 -11Q181 -11 151 -3T96
23T56 65T41 123V421H169V126Q169 108 181 99T212 90Q230 90 242 99T254 126Q254 223 237 297T195 435T139 553T84 665T41 786T24 932ZM145 942Q145 873 160 820T199 717Q207 719 218 726T240 752T258 800T265 880Q265 949 251 1003T212 1109Q204 1107 193 1099T171
1072T153 1022T145 942Z" />
<glyph unicode="&#xa8;" glyph-name="dieresis" horiz-adv-x="587" d="M461 235V76H318V235H461ZM260 235V76H115V235H260Z" />
<glyph unicode="&#xa9;" glyph-name="copyright" horiz-adv-x="1474" d="M906 1150H776V1412Q776 1419 771 1424T759 1434T745 1441T732 1444Q716 1444 701 1435T686 1412V711Q686 702 700 693T732 684Q746 684 761 693T776 711V975H906V711Q906 685 891 662T851
620T795 592T732 581Q697 581 665 591T608 620T568 661T553 711V1412Q553 1440 568 1464T607 1506T664 1534T732 1545Q763 1545 794 1535T850 1507T890 1466T906 1415V1150ZM24 1068Q24 1166 49 1257T121 1427T233 1572T377 1683T548 1755T737 1781Q835 1781 926
1756T1096 1684T1240 1572T1352 1428T1424 1257T1450 1068Q1450 970 1425 879T1353 709T1241 565T1096 453T926 381T737 355Q639 355 548 380T378 452T233 564T122 709T50 879T24 1068ZM156 1068Q156 946 201 839T324 651T509 525T737 478Q818 478 892 499T1031
558T1149 651T1239 770T1297 911T1318 1068Q1318 1149 1298 1224T1240 1365T1149 1484T1032 1577T893 1637T737 1658Q655 1658 581 1637T442 1577T325 1485T235 1365T177 1224T156 1068Z" />
<glyph unicode="&#xaa;" glyph-name="ordfeminine" horiz-adv-x="418" d="M451 241H323L303 573H214L195 241H67L195 1777H323L451 241ZM296 677L259 1457L221 677H296Z" />
<glyph unicode="&#xab;" glyph-name="guillemotleft" horiz-adv-x="574" d="M556 1460V1176L409 881L556 608V301L273 881L556 1460ZM324 1460V1176L177 881L324 608V301L41 881L324 1460Z" />
<glyph unicode="&#xac;" glyph-name="logicalnot" horiz-adv-x="1006" d="M982 1159V1060H150V722H24V1161L982 1159Z" />
<glyph unicode="&#xad;" glyph-name="uni00AD" horiz-adv-x="1468" />
<glyph unicode="&#xae;" glyph-name="registered" horiz-adv-x="1474" d="M897 1204Q897 1165 885 1141T857 1102Q839 1084 819 1075Q830 1071 839 1066T857 1053Q872 1039 884 1018T897 962V597H777V999Q777 1009 774 1016T762 1027T735 1033T690 1035V597H567V1560Q645
1560 706 1559T810 1545T874 1507T897 1433V1204ZM765 1433Q765 1453 747 1457T689 1462V1109Q728 1109 746 1113T765 1139V1433ZM24 1068Q24 1166 49 1257T121 1427T233 1572T377 1683T548 1755T737 1781Q835 1781 926 1756T1096 1684T1240 1572T1352 1428T1424
1257T1450 1068Q1450 970 1425 879T1353 709T1241 565T1096 453T926 381T737 355Q639 355 548 380T378 452T233 564T122 709T50 879T24 1068ZM156 1068Q156 946 201 839T324 651T509 525T737 478Q818 478 892 499T1031 558T1149 651T1239 770T1297 911T1318 1068Q1318
1149 1298 1224T1240 1365T1149 1484T1032 1577T893 1637T737 1658Q655 1658 581 1637T442 1577T325 1485T235 1365T177 1224T156 1068Z" />
<glyph unicode="&#xaf;" glyph-name="overscore" horiz-adv-x="326" d="M327 87H0V192H327V87Z" />
<glyph unicode="&#xb0;" glyph-name="degree" horiz-adv-x="326" d="M33 1612Q33 1642 44 1668T74 1713T119 1743T175 1754Q238 1754 278 1714Q318 1674 318 1612Q318 1583 307 1558T277 1513T232 1483T175 1472Q145 1472 119 1483T74 1513T44 1557T33 1612ZM112
1613Q112 1587 130 1569T175 1550Q204 1550 222 1568T240 1613Q240 1641 222 1658T175 1676Q148 1676 130 1659T112 1613Z" />
<glyph unicode="&#xb1;" glyph-name="plusminus" horiz-adv-x="681" d="M38 923H262V1179H390V923H614V795H390V539H262V795H38V923ZM541 314H137V449H541V314Z" />
<glyph unicode="&#xb2;" glyph-name="uni00B2" horiz-adv-x="464" d="M52 1277Q52 1307 65 1334T102 1380T159 1411T234 1423Q274 1423 310 1410T373 1372T412 1315T418 1243Q361 940 320 728T252 380L200 121H418V0H53Q67 69 83 149T118 322Q150 482 192 709T284
1237Q292 1277 273 1291Q256 1305 234 1305Q213 1305 200 1294T186 1267V927H52V1277Z" />
<glyph unicode="&#xb3;" glyph-name="uni00B3" horiz-adv-x="439" d="M52 1295Q52 1322 66 1345T103 1386T155 1414T217 1424Q251 1424 282 1414T336 1387T374 1345T388 1293V860Q388 837 382 823T370 798L352 780Q362 775 370 765Q376 756 382 741T388 701V100Q388
72 374 48T337 7T282 -21T217 -31Q185 -31 156 -21T103 6T66 46T52 97V505H181V120Q181 100 188 85T217 70Q233 70 241 77T252 95T255 118T254 142V681Q254 701 249 714T219 728H150V832H219Q243 832 248 843T254 873V1249Q254 1259 254 1272T253 1296T242 1316T217
1324Q195 1324 188 1309T181 1274V1009H52V1295Z" />
<glyph unicode="&#xb4;" glyph-name="acute" horiz-adv-x="326" d="M288 512L96 96H0L128 512H288Z" />
<glyph unicode="&#xb5;" glyph-name="uni00B5" horiz-adv-x="442" d="M53 1520H187V112Q187 99 197 91T220 82Q234 82 244 90T255 112V1520H389V107Q389 80 377 57T344 17T298 -11T244 -21Q235 -21 225 -15T206 -3Q196 3 187 13V-112H53V1520Z" />
<glyph unicode="&#xb6;" glyph-name="paragraph" horiz-adv-x="649" d="M55 1600Q55 1638 70 1668T110 1718T168 1750T238 1761H593V0H457V826H419V0H279V825Q167 825 111 858T55 976V1600Z" />
<glyph unicode="&#xb7;" glyph-name="middot" horiz-adv-x="238" d="M204 961V777H21V961H204Z" />
<glyph unicode="&#xb8;" glyph-name="cedilla" horiz-adv-x="326" d="M71 -409L129 0H235V-409H71Z" />
<glyph unicode="&#xb9;" glyph-name="uni00B9" horiz-adv-x="402" d="M13 115H141V1280H13V1397H277V115H389V0H13V115Z" />
<glyph unicode="&#xba;" glyph-name="ordmasculine" horiz-adv-x="458" d="M513 144Q513 102 498 72T456 21T397 -8T329 -18Q292 -18 256 -8T192 23T147 74T129 144V1392Q129 1430 146 1459T192 1509T257 1539T330 1550Q365 1550 398 1541T456 1512T497 1462T513
1392V144ZM385 1392Q385 1426 369 1440T330 1455Q317 1455 304 1451T281 1438T264 1418T257 1392V144Q257 130 263 118T280 98T303 86T329 81Q351 81 368 95T385 144V1392Z" />
<glyph unicode="&#xbb;" glyph-name="guillemotright" horiz-adv-x="593" d="M73 1460V1176L220 881L73 608V301L356 881L73 1460ZM305 1460V1176L452 881L305 608V301L588 881L305 1460Z" />
<glyph unicode="&#xbc;" glyph-name="onequarter" horiz-adv-x="1122" d="M1080 795V0H946V359H690L834 1397H967L827 470H946V795H1080ZM740 1761L550 0H416L605 1761H740ZM33 479H160V1643H33V1760H296V479H408V364H33V479Z" />
<glyph unicode="&#xbd;" glyph-name="onehalf" horiz-adv-x="1145" d="M714 1728L554 0H426L586 1728H714ZM34 477H162V1642H34V1759H298V477H410V362H34V477ZM750 1277Q750 1307 763 1334T800 1380T857 1411T932 1423Q972 1423 1008 1410T1071 1372T1110 1315T1116
1243Q1059 940 1018 728T950 380L898 121H1116V0H751Q765 69 781 149T816 322Q848 482 890 709T982 1237Q990 1277 971 1291Q954 1305 932 1305Q911 1305 898 1294T884 1267V927H750V1277Z" />
<glyph unicode="&#xbe;" glyph-name="threequarters" horiz-adv-x="1087" d="M39 1632Q39 1659 52 1682T89 1723T141 1751T204 1761Q238 1761 269 1751T323 1724T360 1682T374 1631V1197Q374 1174 368 1160T356 1135Q348 1124 338 1117Q350 1112 356 1103Q362
1093 368 1078T374 1038V437Q374 409 361 385T324 344T269 316T204 306Q171 306 142 316T89 343T53 383T39 434V842H169V457Q169 437 175 422T204 407Q220 407 228 414T239 432T242 455T241 479V1018Q241 1038 236 1052T206 1066H136V1169H206Q230 1169 235 1180T241
1210V1586Q241 1596 241 1609T240 1633T229 1653T204 1661Q182 1661 176 1646T169 1611V1346H39V1632ZM1042 795V0H909V359H653L797 1397H930L789 470H909V795H1042ZM720 1761L531 0H397L587 1761H720Z" />
<glyph unicode="&#xbf;" glyph-name="questiondown" horiz-adv-x="443" d="M640 1526H512V1238Q512 1131 521 1059T545 933T576 834T607 735T630 612T640 438V214Q640 170 625 149T591 127Q574 127 559 148T544 214V662H416V214Q416 166 431 130T471 70T527 34T592
22Q625 22 656 34T713 70T753 130T768 214V438Q768 522 763 582T748 687T728 769T704 842T681 920T660 1019T646 1152T640 1334V1526ZM640 1654V1782H512V1654H640Z" />
<glyph unicode="&#xc0;" glyph-name="Agrave" horiz-adv-x="448" d="M144 2281L272 1865H176L-16 2281H144ZM416 0H288L272 416H177L160 0H32L128 1728H320L416 0ZM256 896L224 1664L192 896L177 512H272L256 896Z" />
<glyph unicode="&#xc1;" glyph-name="Aacute" horiz-adv-x="448" d="M464 2281L272 1865H176L304 2281H464ZM416 0H288L272 416H177L160 0H32L128 1728H320L416 0ZM256 896L224 1664L192 896L177 512H272L256 896Z" />
<glyph unicode="&#xc2;" glyph-name="Acircumflex" horiz-adv-x="448" d="M297 2211L356 1865H254L224 2103L193 1865H92L151 2211H297ZM416 0H288L272 416H177L160 0H32L128 1728H320L416 0ZM256 896L224 1664L192 896L177 512H272L256 896Z" />
<glyph unicode="&#xc3;" glyph-name="Atilde" horiz-adv-x="448" d="M34 1865Q34 1899 39 1928T57 1978T89 2012T138 2024Q163 2024 181 2018T218 2003T256 1988T304 1981Q314 1981 320 1987T329 2002Q334 2011 335 2024H414Q414 2001 412 1982T404 1945Q394 1914
372 1890T304 1865Q279 1865 258 1872T217 1887T178 1902T139 1909Q130 1909 125 1903T116 1887Q113 1879 113 1865H34ZM416 0H288L272 416H177L160 0H32L128 1728H320L416 0ZM256 896L224 1664L192 896L177 512H272L256 896Z" />
<glyph unicode="&#xc4;" glyph-name="Adieresis" horiz-adv-x="448" d="M397 2024V1865H254V2024H397ZM196 2024V1865H51V2024H196ZM416 0H288L272 416H177L160 0H32L128 1728H320L416 0ZM256 896L224 1664L192 896L177 512H272L256 896Z" />
<glyph unicode="&#xc5;" glyph-name="Aring" horiz-adv-x="448" d="M81 1874Q81 1904 92 1930T122 1975T167 2005T223 2016Q286 2016 326 1976Q366 1936 366 1874Q366 1845 355 1820T325 1775T280 1745T223 1734Q193 1734 167 1745T122 1775T92 1819T81 1874ZM160
1875Q160 1849 178 1831T223 1812Q252 1812 270 1830T288 1875Q288 1903 270 1920T223 1938Q196 1938 178 1921T160 1875ZM416 0H288L272 416H177L160 0H32L128 1728H320L416 0ZM256 896L224 1664L192 896L177 512H272L256 896Z" />
<glyph unicode="&#xc6;" glyph-name="AE" horiz-adv-x="590" d="M581 1644H408L406 996H537V876H406V112H581V0H274L268 383H190L144 0H6L213 1761H581V1644ZM267 502L295 1472L202 502H267Z" />
<glyph unicode="&#xc7;" glyph-name="Ccedilla" horiz-adv-x="466" d="M512 1024H384V1568Q384 1592 379 1607T364 1631T344 1643T320 1647Q308 1647 297 1644T276 1632T262 1608T256 1568V160Q256 148 257 132T264 100T283 75T320 64Q344 64 357 74T376 100T383
131T384 160V832H512V160Q512 148 509 117T488 52T431 -6T320 -32Q248 -32 209 -7T152 52T131 116T128 160V1568Q128 1614 145 1647T189 1702T251 1733T320 1743Q357 1743 391 1732T453 1699T496 1644T512 1568V1024ZM123 -409L181 0H287V-409H123Z" />
<glyph unicode="&#xc8;" glyph-name="Egrave" horiz-adv-x="384" d="M128 2281L256 1865H160L-32 2281H128ZM352 1632H192V960H320V864H192V96H352V0H64V1728H352V1632Z" />
<glyph unicode="&#xc9;" glyph-name="Eacute" horiz-adv-x="384" d="M448 2281L256 1865H160L288 2281H448ZM352 1632H192V960H320V864H192V96H352V0H64V1728H352V1632Z" />
<glyph unicode="&#xca;" glyph-name="Ecircumflex" horiz-adv-x="384" d="M281 2211L340 1865H238L208 2103L177 1865H76L135 2211H281ZM352 1632H192V960H320V864H192V96H352V0H64V1728H352V1632Z" />
<glyph unicode="&#xcb;" glyph-name="Edieresis" horiz-adv-x="384" d="M381 2024V1865H238V2024H381ZM180 2024V1865H35V2024H180ZM352 1632H192V960H320V864H192V96H352V0H64V1728H352V1632Z" />
<glyph unicode="&#xcc;" glyph-name="Igrave" horiz-adv-x="288" d="M64 2281L192 1865H96L-96 2281H64ZM208 1728V0H80V1728H208Z" />
<glyph unicode="&#xcd;" glyph-name="Iacute" horiz-adv-x="288" d="M384 2281L192 1865H96L224 2281H384ZM208 1728V0H80V1728H208Z" />
<glyph unicode="&#xce;" glyph-name="Icircumflex" horiz-adv-x="288" d="M217 2211L276 1865H174L144 2103L113 1865H12L71 2211H217ZM208 1728V0H80V1728H208Z" />
<glyph unicode="&#xcf;" glyph-name="Idieresis" horiz-adv-x="288" d="M317 2024V1865H174V2024H317ZM116 2024V1865H-29V2024H116ZM208 1728V0H80V1728H208Z" />
<glyph unicode="&#xd0;" glyph-name="Eth" horiz-adv-x="487" d="M428 165Q428 124 412 94T368 42T305 11T234 0H59V815H12V937H59V1761H234Q267 1761 301 1752T364 1722T410 1669T428 1590V165ZM248 815H198V120Q219 120 237 120T267 125T287 139T294 166V1592Q294
1611 287 1621T268 1637T237 1643T198 1644V937H248V815Z" />
<glyph unicode="&#xd1;" glyph-name="Ntilde" horiz-adv-x="512" d="M66 1865Q66 1899 71 1928T89 1978T121 2012T170 2024Q195 2024 213 2018T250 2003T288 1988T336 1981Q346 1981 352 1987T361 2002Q366 2011 367 2024H446Q446 2001 444 1982T436 1945Q426
1914 404 1890T336 1865Q311 1865 290 1872T249 1887T210 1902T171 1909Q162 1909 157 1903T148 1887Q145 1879 145 1865H66ZM448 0H320L160 1280V0H64V1728H192L352 448V1728H448V0Z" />
<glyph unicode="&#xd2;" glyph-name="Ograve" horiz-adv-x="512" d="M176 2281L304 1865H208L16 2281H176ZM448 160Q448 148 445 117T424 52T367 -6T256 -32Q184 -32 145 -7T88 52T67 116T64 160V1568Q64 1576 65 1592T71 1627T88 1667T121 1705T175 1732T256
1743Q304 1743 337 1733T391 1705T424 1668T441 1628T447 1592T448 1568V160ZM192 160Q192 148 193 132T200 100T219 75T256 64Q280 64 293 74T312 100T319 131T320 160V1568Q320 1580 319 1594T312 1619T293 1639T256 1647Q232 1647 219 1639T200 1620T193 1594T192
1568V160Z" />
<glyph unicode="&#xd3;" glyph-name="Oacute" horiz-adv-x="512" d="M496 2281L304 1865H208L336 2281H496ZM448 160Q448 148 445 117T424 52T367 -6T256 -32Q184 -32 145 -7T88 52T67 116T64 160V1568Q64 1576 65 1592T71 1627T88 1667T121 1705T175 1732T256
1743Q304 1743 337 1733T391 1705T424 1668T441 1628T447 1592T448 1568V160ZM192 160Q192 148 193 132T200 100T219 75T256 64Q280 64 293 74T312 100T319 131T320 160V1568Q320 1580 319 1594T312 1619T293 1639T256 1647Q232 1647 219 1639T200 1620T193 1594T192
1568V160Z" />
<glyph unicode="&#xd4;" glyph-name="Ocircumflex" horiz-adv-x="512" d="M329 2211L388 1865H286L256 2103L225 1865H124L183 2211H329ZM448 160Q448 148 445 117T424 52T367 -6T256 -32Q184 -32 145 -7T88 52T67 116T64 160V1568Q64 1576 65 1592T71 1627T88
1667T121 1705T175 1732T256 1743Q304 1743 337 1733T391 1705T424 1668T441 1628T447 1592T448 1568V160ZM192 160Q192 148 193 132T200 100T219 75T256 64Q280 64 293 74T312 100T319 131T320 160V1568Q320 1580 319 1594T312 1619T293 1639T256 1647Q232 1647
219 1639T200 1620T193 1594T192 1568V160Z" />
<glyph unicode="&#xd5;" glyph-name="Otilde" horiz-adv-x="512" d="M66 1865Q66 1899 71 1928T89 1978T121 2012T170 2024Q195 2024 213 2018T250 2003T288 1988T336 1981Q346 1981 352 1987T361 2002Q366 2011 367 2024H446Q446 2001 444 1982T436 1945Q426
1914 404 1890T336 1865Q311 1865 290 1872T249 1887T210 1902T171 1909Q162 1909 157 1903T148 1887Q145 1879 145 1865H66ZM448 160Q448 148 445 117T424 52T367 -6T256 -32Q184 -32 145 -7T88 52T67 116T64 160V1568Q64 1576 65 1592T71 1627T88 1667T121 1705T175
1732T256 1743Q304 1743 337 1733T391 1705T424 1668T441 1628T447 1592T448 1568V160ZM192 160Q192 148 193 132T200 100T219 75T256 64Q280 64 293 74T312 100T319 131T320 160V1568Q320 1580 319 1594T312 1619T293 1639T256 1647Q232 1647 219 1639T200 1620T193
1594T192 1568V160Z" />
<glyph unicode="&#xd6;" glyph-name="Odieresis" horiz-adv-x="512" d="M429 2024V1865H286V2024H429ZM228 2024V1865H83V2024H228ZM448 160Q448 148 445 117T424 52T367 -6T256 -32Q184 -32 145 -7T88 52T67 116T64 160V1568Q64 1576 65 1592T71 1627T88 1667T121
1705T175 1732T256 1743Q304 1743 337 1733T391 1705T424 1668T441 1628T447 1592T448 1568V160ZM192 160Q192 148 193 132T200 100T219 75T256 64Q280 64 293 74T312 100T319 131T320 160V1568Q320 1580 319 1594T312 1619T293 1639T256 1647Q232 1647 219 1639T200
1620T193 1594T192 1568V160Z" />
<glyph unicode="&#xd7;" glyph-name="multiply" horiz-adv-x="398" d="M378 196H249L200 458L154 196H21L138 716L21 1247H154L200 970L249 1247H378L266 716L378 196Z" />
<glyph unicode="&#xd8;" glyph-name="Oslash" horiz-adv-x="467" d="M52 1637Q52 1667 66 1694T105 1741T162 1772T231 1784Q269 1784 302 1772T361 1740T400 1692T415 1635V130Q415 98 401 71T361 23T303 -9T231 -21Q195 -21 163 -10T106 22T67 68T52 124V1637ZM186
127Q186 112 198 100T231 88Q252 88 265 100T279 127V1225L186 127ZM279 1638Q279 1655 265 1667T231 1679Q211 1679 199 1667T186 1638V539L279 1638Z" />
<glyph unicode="&#xd9;" glyph-name="Ugrave" horiz-adv-x="451" d="M195 160Q195 148 196 132T203 100T222 75T259 64Q283 64 296 74T315 100T322 131T323 160V1728H451V160Q451 148 448 117T427 52T370 -6T259 -32Q187 -32 148 -7T91 52T70 116T67 160V1728H195V160ZM177
2258L305 1842H209L17 2258H177Z" />
<glyph unicode="&#xda;" glyph-name="Uacute" horiz-adv-x="451" d="M195 160Q195 148 196 132T203 100T222 75T259 64Q283 64 296 74T315 100T322 131T323 160V1728H451V160Q451 148 448 117T427 52T370 -6T259 -32Q187 -32 148 -7T91 52T70 116T67 160V1728H195V160ZM330
2258L138 1842H42L170 2258H330Z" />
<glyph unicode="&#xdb;" glyph-name="Ucircumflex" horiz-adv-x="451" d="M195 160Q195 148 196 132T203 100T222 75T259 64Q283 64 296 74T315 100T322 131T323 160V1728H451V160Q451 148 448 117T427 52T370 -6T259 -32Q187 -32 148 -7T91 52T70 116T67 160V1728H195V160ZM299
2176L358 1830H256L226 2068L195 1830H94L153 2176H299Z" />
<glyph unicode="&#xdc;" glyph-name="Udieresis" horiz-adv-x="451" d="M195 160Q195 148 196 132T203 100T222 75T259 64Q283 64 296 74T315 100T322 131T323 160V1728H451V160Q451 148 448 117T427 52T370 -6T259 -32Q187 -32 148 -7T91 52T70 116T67 160V1728H195V160ZM400
1981V1822H257V1981H400ZM199 1981V1822H54V1981H199Z" />
<glyph unicode="&#xdd;" glyph-name="Yacute" horiz-adv-x="413" d="M224 1280L256 832L288 1280L320 1728H448L320 608V0H192V608L64 1728H192L224 1280ZM293 2258L101 1842H5L133 2258H293Z" />
<glyph unicode="&#xde;" glyph-name="Thorn" horiz-adv-x="449" d="M413 609Q413 525 356 492T189 458V0H55V1761H189V1520H230Q267 1520 300 1509T359 1478T398 1427T413 1360V609ZM276 1372Q276 1397 252 1406T189 1415V573Q236 573 256 580T276 617V1372Z" />
<glyph unicode="&#xdf;" glyph-name="germandbls" horiz-adv-x="467" d="M52 1611Q52 1656 68 1688T111 1742T169 1774T231 1784Q261 1784 293 1775T353 1744T397 1691T415 1613V1159Q415 1122 392 1082Q369 1044 322 1029Q346 1023 363 1010T392 980T409 943T415
904V150Q415 120 401 93T362 45T304 12T234 0H186V-204H52V1611ZM279 921Q279 926 278 934T272 951T259 964T236 970H186V114Q211 114 228 114T257 118T274 128T279 150V921ZM186 1089H242Q267 1089 273 1105T279 1147V1631Q279 1655 266 1667T232 1679Q186 1679
186 1631V1089Z" />
<glyph unicode="&#xe0;" glyph-name="agrave" horiz-adv-x="448" d="M144 2088L272 1672H176L-16 2088H144ZM416 0H288L268 332H179L160 0H32L160 1536H288L416 0ZM261 436L224 1216L186 436H261Z" />
<glyph unicode="&#xe1;" glyph-name="aacute" horiz-adv-x="448" d="M464 2088L272 1672H176L304 2088H464ZM416 0H288L268 332H179L160 0H32L160 1536H288L416 0ZM261 436L224 1216L186 436H261Z" />
<glyph unicode="&#xe2;" glyph-name="acircumflex" horiz-adv-x="448" d="M297 2018L356 1672H254L224 1910L193 1672H92L151 2018H297ZM416 0H288L268 332H179L160 0H32L160 1536H288L416 0ZM261 436L224 1216L186 436H261Z" />
<glyph unicode="&#xe3;" glyph-name="atilde" horiz-adv-x="448" d="M34 1672Q34 1706 39 1735T57 1785T89 1819T138 1831Q163 1831 181 1825T218 1810T256 1795T304 1788Q314 1788 320 1794T329 1809Q334 1818 335 1831H414Q414 1808 412 1789T404 1752Q394 1721
372 1697T304 1672Q279 1672 258 1679T217 1694T178 1709T139 1716Q130 1716 125 1710T116 1694Q113 1686 113 1672H34ZM416 0H288L268 332H179L160 0H32L160 1536H288L416 0ZM261 436L224 1216L186 436H261Z" />
<glyph unicode="&#xe4;" glyph-name="adieresis" horiz-adv-x="448" d="M397 1831V1672H254V1831H397ZM196 1831V1672H51V1831H196ZM416 0H288L268 332H179L160 0H32L160 1536H288L416 0ZM261 436L224 1216L186 436H261Z" />
<glyph unicode="&#xe5;" glyph-name="aring" horiz-adv-x="448" d="M81 1812Q81 1842 92 1868T122 1913T167 1943T223 1954Q286 1954 326 1914Q366 1874 366 1812Q366 1783 355 1758T325 1713T280 1683T223 1672Q193 1672 167 1683T122 1713T92 1757T81 1812ZM160
1813Q160 1787 178 1769T223 1750Q252 1750 270 1768T288 1813Q288 1841 270 1858T223 1876Q196 1876 178 1859T160 1813ZM416 0H288L268 332H179L160 0H32L160 1536H288L416 0ZM261 436L224 1216L186 436H261Z" />
<glyph unicode="&#xe6;" glyph-name="ae" horiz-adv-x="589" d="M568 1422H402V858H526V752H402V101H568V0H280L283 332H184L139 0H11L220 1520H568V1422ZM282 436L289 1259L198 436H282Z" />
<glyph unicode="&#xe7;" glyph-name="ccedilla" horiz-adv-x="512" d="M143 -158L201 251H307V-158H143ZM448 896H320V1392Q320 1426 303 1440T264 1455Q251 1455 239 1451T216 1438T199 1418T192 1392V144Q192 130 198 118T215 98T238 85T264 80Q286 80 303 95T320
144V704H448V144Q448 104 431 74T387 23T325 -8T254 -19Q218 -19 184 -9T123 21T80 72T64 144V1392Q64 1432 80 1463T124 1514T186 1544T257 1555Q293 1555 327 1545T388 1515T431 1464T448 1392V896Z" />
<glyph unicode="&#xe8;" glyph-name="egrave" horiz-adv-x="352" d="M112 2088L240 1672H144L-48 2088H112ZM320 1440H192V864H320V768H192V96H320V0H64V1536H320V1440Z" />
<glyph unicode="&#xe9;" glyph-name="eacute" horiz-adv-x="352" d="M432 2088L240 1672H144L272 2088H432ZM320 1440H192V864H320V768H192V96H320V0H64V1536H320V1440Z" />
<glyph unicode="&#xea;" glyph-name="ecircumflex" horiz-adv-x="352" d="M265 2018L324 1672H222L192 1910L161 1672H60L119 2018H265ZM320 1440H192V864H320V768H192V96H320V0H64V1536H320V1440Z" />
<glyph unicode="&#xeb;" glyph-name="edieresis" horiz-adv-x="352" d="M365 1831V1672H222V1831H365ZM164 1831V1672H19V1831H164ZM320 1440H192V864H320V768H192V96H320V0H64V1536H320V1440Z" />
<glyph unicode="&#xec;" glyph-name="igrave" horiz-adv-x="292" d="M66 2088L194 1672H98L-94 2088H66ZM213 1520V0H79V1520H213Z" />
<glyph unicode="&#xed;" glyph-name="iacute" horiz-adv-x="292" d="M386 2088L194 1672H98L226 2088H386ZM213 1520V0H79V1520H213Z" />
<glyph unicode="&#xee;" glyph-name="icircumflex" horiz-adv-x="292" d="M219 2018L278 1672H176L146 1910L115 1672H14L73 2018H219ZM213 1520V0H79V1520H213Z" />
<glyph unicode="&#xef;" glyph-name="idieresis" horiz-adv-x="292" d="M319 1831V1672H176V1831H319ZM118 1831V1672H-27V1831H118ZM213 1520V0H79V1520H213Z" />
<glyph unicode="&#xf0;" glyph-name="eth" horiz-adv-x="469" d="M481 1321L394 1295Q397 1228 397 1157T398 1004V141Q398 108 384 80T346 32T290 0T222 -12Q187 -12 156 -2T102 28T65 75T51 136V867Q52 897 64 924T98 971T149 1004T214 1017Q231 1017 246 1011T264
1005V1138Q264 1200 261 1259L49 1201V1304L254 1361Q248 1430 235 1483T199 1573T139 1629T49 1649V1765Q137 1765 197 1740T296 1667T355 1551T385 1397L481 1424V1321ZM222 900Q197 900 191 884T184 845V141Q184 126 195 116T222 106Q247 106 255 122T264 157V888Q261
888 250 894T222 900Z" />
<glyph unicode="&#xf1;" glyph-name="ntilde" horiz-adv-x="512" d="M66 1672Q66 1706 71 1735T89 1785T121 1819T170 1831Q195 1831 213 1825T250 1810T288 1795T336 1788Q346 1788 352 1794T361 1809Q366 1818 367 1831H446Q446 1808 444 1789T436 1752Q426
1721 404 1697T336 1672Q311 1672 290 1679T249 1694T210 1709T171 1716Q162 1716 157 1710T148 1694Q145 1686 145 1672H66ZM448 0H352L176 896V0H64V1536H160L337 608V1536H448V0Z" />
<glyph unicode="&#xf2;" glyph-name="ograve" horiz-adv-x="512" d="M185 2088L313 1672H217L25 2088H185ZM448 144Q448 102 433 72T391 21T332 -8T264 -18Q227 -18 191 -8T127 23T82 74T64 144V1392Q64 1430 81 1459T127 1509T192 1539T265 1550Q300 1550 333
1541T391 1512T432 1462T448 1392V144ZM320 1392Q320 1426 304 1440T265 1455Q252 1455 239 1451T216 1438T199 1418T192 1392V144Q192 130 198 118T215 98T238 86T264 81Q286 81 303 95T320 144V1392Z" />
<glyph unicode="&#xf3;" glyph-name="oacute" horiz-adv-x="512" d="M505 2088L313 1672H217L345 2088H505ZM448 144Q448 102 433 72T391 21T332 -8T264 -18Q227 -18 191 -8T127 23T82 74T64 144V1392Q64 1430 81 1459T127 1509T192 1539T265 1550Q300 1550 333
1541T391 1512T432 1462T448 1392V144ZM320 1392Q320 1426 304 1440T265 1455Q252 1455 239 1451T216 1438T199 1418T192 1392V144Q192 130 198 118T215 98T238 86T264 81Q286 81 303 95T320 144V1392Z" />
<glyph unicode="&#xf4;" glyph-name="ocircumflex" horiz-adv-x="512" d="M338 2018L397 1672H295L265 1910L234 1672H133L192 2018H338ZM448 144Q448 102 433 72T391 21T332 -8T264 -18Q227 -18 191 -8T127 23T82 74T64 144V1392Q64 1430 81 1459T127 1509T192
1539T265 1550Q300 1550 333 1541T391 1512T432 1462T448 1392V144ZM320 1392Q320 1426 304 1440T265 1455Q252 1455 239 1451T216 1438T199 1418T192 1392V144Q192 130 198 118T215 98T238 86T264 81Q286 81 303 95T320 144V1392Z" />
<glyph unicode="&#xf5;" glyph-name="otilde" horiz-adv-x="512" d="M75 1672Q75 1706 80 1735T98 1785T130 1819T179 1831Q204 1831 222 1825T259 1810T297 1795T345 1788Q355 1788 361 1794T370 1809Q375 1818 376 1831H455Q455 1808 453 1789T445 1752Q435
1721 413 1697T345 1672Q320 1672 299 1679T258 1694T219 1709T180 1716Q171 1716 166 1710T157 1694Q154 1686 154 1672H75ZM448 144Q448 102 433 72T391 21T332 -8T264 -18Q227 -18 191 -8T127 23T82 74T64 144V1392Q64 1430 81 1459T127 1509T192 1539T265 1550Q300
1550 333 1541T391 1512T432 1462T448 1392V144ZM320 1392Q320 1426 304 1440T265 1455Q252 1455 239 1451T216 1438T199 1418T192 1392V144Q192 130 198 118T215 98T238 86T264 81Q286 81 303 95T320 144V1392Z" />
<glyph unicode="&#xf6;" glyph-name="odieresis" horiz-adv-x="512" d="M438 1831V1672H295V1831H438ZM237 1831V1672H92V1831H237ZM448 144Q448 102 433 72T391 21T332 -8T264 -18Q227 -18 191 -8T127 23T82 74T64 144V1392Q64 1430 81 1459T127 1509T192 1539T265
1550Q300 1550 333 1541T391 1512T432 1462T448 1392V144ZM320 1392Q320 1426 304 1440T265 1455Q252 1455 239 1451T216 1438T199 1418T192 1392V144Q192 130 198 118T215 98T238 86T264 81Q286 81 303 95T320 144V1392Z" />
<glyph unicode="&#xf7;" glyph-name="divide" horiz-adv-x="561" d="M537 665H24V800H537V665ZM379 1044V858H196V1044H379ZM379 599V415H196V599H379Z" />
<glyph unicode="&#xf8;" glyph-name="oslash" horiz-adv-x="458" d="M407 130Q407 99 393 72T354 24T298 -9T231 -21Q195 -21 163 -9T106 24T67 73T53 135V1391Q53 1422 67 1450T105 1499T162 1532T231 1545Q266 1545 298 1534T354 1502T392 1454T407 1393V130ZM268
834L190 400V109Q190 101 200 90T231 78Q247 78 257 87T268 109V834ZM268 1178V1415Q268 1430 258 1440T231 1450Q216 1450 203 1440T190 1415V728L268 1178Z" />
<glyph unicode="&#xf9;" glyph-name="ugrave" horiz-adv-x="480" d="M160 2088L288 1672H192L0 2088H160ZM288 1536H416V144Q416 102 401 72T361 22T305 -7T240 -16Q207 -16 176 -7T119 21T79 71T64 144V1536H192V144Q192 108 207 94T240 80Q258 80 273 94T288 144V1536Z" />
<glyph unicode="&#xfa;" glyph-name="uacute" horiz-adv-x="480" d="M480 2088L288 1672H192L320 2088H480ZM288 1536H416V144Q416 102 401 72T361 22T305 -7T240 -16Q207 -16 176 -7T119 21T79 71T64 144V1536H192V144Q192 108 207 94T240 80Q258 80 273 94T288
144V1536Z" />
<glyph unicode="&#xfb;" glyph-name="ucircumflex" horiz-adv-x="480" d="M313 2018L372 1672H270L240 1910L209 1672H108L167 2018H313ZM288 1536H416V144Q416 102 401 72T361 22T305 -7T240 -16Q207 -16 176 -7T119 21T79 71T64 144V1536H192V144Q192 108 207
94T240 80Q258 80 273 94T288 144V1536Z" />
<glyph unicode="&#xfc;" glyph-name="udieresis" horiz-adv-x="480" d="M413 1831V1672H270V1831H413ZM212 1831V1672H67V1831H212ZM288 1536H416V144Q416 102 401 72T361 22T305 -7T240 -16Q207 -16 176 -7T119 21T79 71T64 144V1536H192V144Q192 108 207 94T240
80Q258 80 273 94T288 144V1536Z" />
<glyph unicode="&#xfd;" glyph-name="yacute" horiz-adv-x="448" d="M464 2088L272 1672H176L304 2088H464ZM256 1152L288 1536H416L288 512V0H160V512L32 1536H160L192 1152L224 736L256 1152Z" />
<glyph unicode="&#xfe;" glyph-name="thorn" horiz-adv-x="437" d="M189 1560V1280H223Q257 1280 288 1271T343 1243T381 1199T395 1139V602Q395 536 395 486T394 404V374Q394 332 377 304T330 258T264 233T186 224V-241H55L54 1560H189ZM265 1139Q265 1161 250
1171T189 1181V330Q234 330 249 339T265 371V1139Z" />
<glyph unicode="&#xff;" glyph-name="ydieresis" horiz-adv-x="448" d="M397 1831V1672H254V1831H397ZM196 1831V1672H51V1831H196ZM256 1152L288 1536H416L288 512V0H160V512L32 1536H160L192 1152L224 736L256 1152Z" />
<glyph unicode="&#x2013;" glyph-name="endash" horiz-adv-x="691" d="M668 750H23V885H668V750Z" />
<glyph unicode="&#x2014;" glyph-name="emdash" horiz-adv-x="691" d="M668 750H23V885H668V750Z" />
<glyph unicode="&#x2018;" glyph-name="quoteleft" horiz-adv-x="488" d="M7 1403L81 1763H166V1403H7Z" />
<glyph unicode="&#x2019;" glyph-name="quoteright" horiz-adv-x="488" d="M400 1761L326 1402H242L241 1761H400Z" />
<glyph unicode="&#x201a;" glyph-name="quotesinglbase" horiz-adv-x="488" d="M7 0L81 360H166V0H7Z" />
<glyph unicode="&#x201c;" glyph-name="quotedblleft" horiz-adv-x="488" d="M226 1403L300 1763H384L385 1403H226ZM7 1403L81 1763H166V1403H7Z" />
<glyph unicode="&#x201d;" glyph-name="quotedblright" horiz-adv-x="488" d="M181 1761L108 1402H23L21 1761H181ZM400 1761L326 1402H242L241 1761H400Z" />
<glyph unicode="&#x201e;" glyph-name="quotedblbase" horiz-adv-x="488" d="M400 360L326 0H242L241 360H400Z" />
<glyph unicode="&#x2022;" glyph-name="bullet" horiz-adv-x="458" d="M406 683Q406 652 392 625T353 577T297 544T230 532Q193 532 161 544T104 577T66 627T52 689V1159Q52 1191 66 1219T104 1268T160 1301T230 1313Q265 1313 297 1302T353 1271T391 1223T406 1162V683Z" />
<glyph unicode="&#x2039;" glyph-name="guilsinglleft" horiz-adv-x="342" d="M303 1460V1176L156 881L303 608V301L20 881L303 1460Z" />
<glyph unicode="&#x203a;" glyph-name="guilsinglright" horiz-adv-x="720" d="M193 1460V1176L340 881L193 608V301L476 881L193 1460Z" />
</font>
</defs>
</svg>
