<?xml version="1.0" standalone="no"?>
<!DOCTYPE svg PUBLIC "-//W3C//DTD SVG 1.1//EN" "http://www.w3.org/Graphics/SVG/1.1/DTD/svg11.dtd">
<svg xmlns="http://www.w3.org/2000/svg">
<defs >
<font id="Sura" horiz-adv-x="1149" ><font-face
    font-family="Sura"
    units-per-em="2048"
    panose-1="0 0 8 0 0 0 0 0 0 0"
    ascent="2359"
    descent="-872"
    alphabetic="0" />
<glyph unicode=" " glyph-name="space" horiz-adv-x="366" />
<glyph unicode="!" glyph-name="exclam" horiz-adv-x="489" d="M330 463T266 467T147 471L150 606L131 1458L377 1477L436 1419Q432 1384 420 1260T397 965T385 651Q385 600 387 555T391 494L356 461Q330 463 266 467ZM193 295T153 250T113 131Q113 57 153 13T264
-31Q336 -31 376 13T416 131Q416 207 376 251T264 295Q193 295 153 250Z" />
<glyph unicode="&quot;" glyph-name="quotedbl" horiz-adv-x="735" d="M88 1507T103 1391T121 1249L119 1059L299 1049L326 1548H82Q88 1507 103 1391ZM416 1507T431 1391T449 1249L446 1059L627 1049L653 1548H410Q416 1507 431 1391Z" />
<glyph unicode="#" glyph-name="numbersign" horiz-adv-x="1167" d="M834 471L1079 473V287H803L754 -31L590 -10L637 287H451L401 -31L238 -10L285 287H66V463L313 465L346 672L106 670V856H375L424 1171L588 1151L541 856H727L776 1171L940 1151L893 856H1120V680L866
678L834 471ZM512 674L479 467L666 469L696 676L512 674Z" />
<glyph unicode="$" glyph-name="dollar" horiz-adv-x="1110" d="M1030 197T911 93T600 -29L594 -188L461 -182L467 -29Q365 -21 281 1T144 45T90 70L121 393L266 383Q266 373 266 344T268 293Q266 287 272 257T281 213Q304 197 363 179T516 160Q594 160 647 195T700
303Q700 358 670 399T593 470T461 545Q344 606 271 657T145 795T92 1008Q92 1174 213 1268T524 1366L532 1554L664 1548L655 1360Q796 1346 967 1303L940 991L791 999V1110L786 1135Q755 1162 712 1175T600 1188Q520 1188 470 1150T420 1047Q420 977 476 932T653
825Q774 764 848 714T976 579T1030 371Q1030 197 911 93Z" />
<glyph unicode="%" glyph-name="percent" horiz-adv-x="1839" d="M342 -8L1212 1475L1356 1382L487 -100L342 -8ZM37 881T125 767T393 653Q573 653 661 767T750 1057Q750 1233 662 1345T393 1458Q213 1458 125 1346T37 1057Q37 881 125 767ZM522 944T494 868T393
791Q266 791 266 1057Q266 1323 393 1323Q465 1323 493 1246T522 1057Q522 944 494 868ZM1042 217T1133 101T1415 -16Q1605 -16 1696 100T1788 397Q1788 579 1697 696T1415 813Q1225 813 1134 697T1042 397Q1042 217 1133 101ZM1550 125T1415 125Q1280 125 1280
397Q1280 671 1415 672Q1550 672 1550 397Q1550 125 1415 125Z" />
<glyph unicode="&amp;" glyph-name="ampersand" horiz-adv-x="1552" d="M1491 -10Q1464 -8 1361 -4T1112 0H1079Q1026 61 997 90Q827 -21 580 -20Q357 -20 220 73T82 356Q82 481 143 573T328 739Q209 895 209 1036Q209 1190 335 1273T643 1356Q737 1356 830 1336T987
1292L963 971L829 979V1067Q829 1073 817 1105T801 1147Q719 1165 676 1165Q553 1165 553 1044Q553 972 599 898T743 726T1030 465Q1042 508 1042 557Q1042 584 1039 623T1034 676L934 688L944 834Q967 832 1043 828T1190 823Q1260 823 1317 827T1391 834L1401
688L1268 676L1255 547Q1243 424 1196 319L1247 274Q1335 200 1399 156L1501 145L1491 -10ZM416 293T485 244T651 195Q749 195 840 242L729 340Q561 487 485 561Q415 479 416 389Q416 293 485 244Z" />
<glyph unicode="&apos;" glyph-name="quotesingle" horiz-adv-x="407" d="M88 1507T103 1391T121 1249L119 1059L299 1049L326 1548H82Q88 1507 103 1391Z" />
<glyph unicode="(" glyph-name="parenleft" horiz-adv-x="651" d="M342 465T372 316T459 20Q467 -5 519 -82T590 -186L479 -276Q276 -90 179 145T82 649Q82 917 179 1153T479 1575L590 1485Q572 1458 520 1382T459 1278Q404 1133 373 984T342 649Q342 465 372 316Z" />
<glyph unicode=")" glyph-name="parenright" horiz-adv-x="651" d="M309 834T279 983T193 1278Q185 1303 133 1380T61 1485L172 1575Q375 1389 472 1154T569 649Q569 381 472 146T172 -276L61 -186Q79 -159 131 -83T193 20Q248 165 278 315T309 649Q309 834 279 983Z" />
<glyph unicode="*" glyph-name="asterisk" horiz-adv-x="837" d="M664 1122L756 1069L694 932L510 1016Q500 950 500 934V827L350 811L330 1012Q258 981 256 981L162 928L74 1049L238 1167Q220 1181 202 1194T174 1214L80 1270L141 1407L326 1325Q336 1386 336
1403V1511L485 1528L506 1327L582 1358L674 1411L762 1290L598 1174L664 1122Z" />
<glyph unicode="+" glyph-name="plus" horiz-adv-x="1189" d="M698 422L702 0H487V420L68 416V631H487V1047H692L696 631H1122V426L698 422Z" />
<glyph unicode="," glyph-name="comma" horiz-adv-x="489" d="M217 -158T55 -213L80 -279Q184 -261 257 -201T365 -59T401 106Q401 200 366 257T246 315Q170 315 131 270T92 145Q92 77 128 31T231 -20Q217 -158 55 -213Z" />
<glyph unicode="-" glyph-name="hyphen" horiz-adv-x="577" d="M506 422H66L61 616H516L506 422Z" />
<glyph unicode="." glyph-name="period" horiz-adv-x="507" d="M178 315T135 267T92 141Q92 63 135 16T254 -31Q330 -31 373 16T416 141Q416 223 373 269T254 315Q178 315 135 267Z" />
<glyph unicode="/" glyph-name="slash" horiz-adv-x="811" d="M831 1522L207 -133L14 -72L641 1583L831 1522Z" />
<glyph unicode="0" glyph-name="zero" horiz-adv-x="1171" d="M53 367T184 174T586 -20Q856 -20 987 173T1118 668Q1118 969 987 1162T586 1356Q316 1356 185 1163T53 668Q53 367 184 174ZM782 449T739 302T586 154Q475 154 432 301T389 668Q389 887 432 1034T586
1182Q697 1182 739 1035T782 668Q782 449 739 302Z" />
<glyph unicode="1" glyph-name="one" horiz-adv-x="872" d="M797 -8T689 -4T434 0Q375 0 287 -4T170 -10L160 133L342 158Q344 181 352 245T360 334V991L150 911L74 1038Q113 1069 207 1139T362 1260Q376 1272 413 1316T463 1376L674 1352Q672 1291 665 1114T657
872V395Q657 329 666 244T678 158L838 145L825 -10Q797 -8 689 -4Z" />
<glyph unicode="2" glyph-name="two" horiz-adv-x="1120" d="M727 1356T849 1264T971 1004Q971 895 923 794T753 562T406 242H651Q690 242 748 250T829 262L862 367L877 442L1036 430L1020 35L958 -6Q929 -6 858 -3T735 0H68L39 203Q285 424 411 558T589 787T641
977Q641 1063 591 1109T457 1155Q369 1155 279 1106Q263 1055 262 1028V940L100 930L86 1284Q287 1356 500 1356Q727 1356 849 1264Z" />
<glyph unicode="3" glyph-name="three" horiz-adv-x="1005" d="M633 1356T750 1265T868 997Q868 901 809 818T641 680Q762 653 844 561T926 356Q926 213 817 89T515 -116T84 -215L39 -59Q203 -41 328 14T521 151T590 334Q590 553 381 553Q348 553 307 550T254
545L225 694Q387 721 472 802T557 1010Q557 1092 515 1134T395 1176Q319 1176 246 1151Q244 1139 238 1113T229 1071V963L68 952L39 1296Q217 1355 408 1356Q633 1356 750 1265Z" />
<glyph unicode="4" glyph-name="four" horiz-adv-x="1153" d="M915 1309T820 1212T707 1085L317 559H602V758L889 856V578L1081 588V373H889V328Q889 254 898 207T907 158L1085 145L1075 -10Q1038 -8 908 -4T637 0Q580 0 493 -4T377 -10L367 133L584 158Q584 162
593 230T602 330V373H172L20 561L745 1513L950 1341Q915 1309 820 1212Z" />
<glyph unicode="5" glyph-name="five" horiz-adv-x="995" d="M825 1092T704 1080T543 1067H350L332 776Q387 784 459 784Q682 784 802 678T922 383Q922 145 723 -5T133 -215L88 -63Q360 -2 481 91T602 336Q602 574 365 573Q281 573 182 545L86 655L137 1298L176
1335H356L854 1356L866 1096Q825 1092 704 1080Z" />
<glyph unicode="6" glyph-name="six" horiz-adv-x="1130" d="M616 846T570 840T500 825L512 678Q518 680 538 682T582 684Q666 684 703 610T741 426Q741 315 703 241T575 166Q473 166 430 266T387 504Q387 686 450 861T654 1179T1016 1395L983 1530Q688 1479 479
1320T166 945T61 504Q61 346 123 228T303 43T578 -23Q713 -23 825 33T1003 192T1069 426Q1069 619 961 732T662 846Q616 846 570 840Z" />
<glyph unicode="7" glyph-name="seven" horiz-adv-x="1046" d="M164 1352T256 1344T377 1335H1028L1061 1194L414 -215L158 -127L618 776Q628 796 657 889T709 1065H395Q370 1065 281 1057Q273 1028 265 1007T250 971L233 877L72 883L94 1313L131 1354Q164 1352
256 1344Z" />
<glyph unicode="8" glyph-name="eight" horiz-adv-x="1112" d="M907 641T977 550T1047 319Q1047 208 975 132T791 18T553 -20Q424 -20 312 18T130 137T61 336Q61 537 322 700Q222 768 164 855T106 1069Q106 1173 171 1247T338 1359T555 1397Q668 1397 771 1358T937
1243T1001 1063Q1001 961 939 873T784 717Q907 641 977 550ZM487 1229T444 1183T401 1067Q401 989 451 933T600 819Q706 942 707 1061Q707 1135 667 1182T555 1229Q487 1229 444 1183ZM643 147T693 195T743 332Q743 416 685 472T512 592Q362 473 362 338Q362 250
414 199T555 147Q643 147 693 195Z" />
<glyph unicode="9" glyph-name="nine" horiz-adv-x="1130" d="M570 488T631 508L618 655Q612 653 592 651T549 649Q477 649 433 723T389 907Q389 1018 428 1092T555 1167Q649 1167 696 1070T743 829Q743 522 602 276T115 -63L160 -215Q455 -164 659 -1T966 383T1069
829Q1069 985 1009 1104T833 1289T553 1356Q420 1356 307 1296T127 1133T61 907Q61 708 175 598T489 487Q570 488 631 508Z" />
<glyph unicode=":" glyph-name="colon" horiz-adv-x="487" d="M172 997T132 952T92 834Q92 760 132 716T244 672Q316 672 355 716T395 834Q395 910 355 953T244 997Q172 997 132 952ZM172 295T132 250T92 131Q92 57 132 13T244 -31Q316 -31 355 13T395 131Q395
207 355 251T244 295Q172 295 132 250Z" />
<glyph unicode=";" glyph-name="semicolon" horiz-adv-x="489" d="M172 977T132 932T92 813Q92 739 132 695T244 651Q316 651 355 695T395 813Q395 889 355 933T244 977Q172 977 132 932ZM217 -158T55 -213L80 -279Q184 -261 257 -201T365 -59T401 106Q401 200
366 257T246 315Q170 315 131 270T92 145Q92 77 128 31T231 -20Q217 -158 55 -213Z" />
<glyph unicode="&lt;" glyph-name="less" horiz-adv-x="985" d="M381 510L821 897L688 1051L82 510L688 -31L821 123L381 510Z" />
<glyph unicode="=" glyph-name="equal" horiz-adv-x="1198" d="M133 807V590L1065 600V807H133ZM133 418V201L1065 211V418H133Z" />
<glyph unicode="&gt;" glyph-name="greater" horiz-adv-x="985" d="M604 508L164 121L297 -33L903 508L297 1049L164 895L604 508Z" />
<glyph unicode="?" glyph-name="question" horiz-adv-x="864" d="M590 954T533 880T379 805Q309 805 258 811L195 741V475L201 469Q267 469 322 466T406 461L440 494L434 657Q629 663 746 772T864 1065Q864 1268 738 1378T391 1489Q305 1489 228 1470T61 1409L86
1106L225 1116L221 1190Q221 1210 224 1248T233 1305Q282 1338 371 1337Q480 1337 535 1263T590 1067Q590 954 533 880ZM238 295T198 250T158 131Q158 57 198 13T309 -31Q381 -31 421 13T461 131Q461 207 421 251T309 295Q238 295 198 250Z" />
<glyph unicode="@" glyph-name="at" horiz-adv-x="1953" d="M1094 57T1023 19T860 -20Q721 -20 640 57T559 270Q559 387 624 457T829 553L1120 600V662Q1120 756 1090 810T977 864Q936 864 892 850T815 819L807 739L809 639L655 633L625 975Q641 979 698 992T837
1018T989 1030Q1192 1030 1299 932T1407 662V395Q1407 332 1414 248T1425 137L1423 135Q1540 164 1598 299T1657 588Q1657 776 1576 920T1344 1145T987 1225Q721 1225 571 1102T365 811T309 475Q309 133 476 -68T997 -268Q1044 -268 1197 -233T1403 -182L1436 -260Q1411
-274 1327 -316T1145 -397T997 -436Q651 -436 442 -304T147 33T61 475Q61 711 156 912T459 1240T987 1366Q1261 1366 1465 1274T1780 1006T1892 588Q1892 457 1823 326T1620 105T1309 0H1159L1143 147Q1094 57 1023 19ZM911 428T887 399T862 311Q862 248 888 219T973
190Q1041 190 1078 231T1120 354V467L969 438Q911 428 887 399Z" />
<glyph unicode="A" glyph-name="A" horiz-adv-x="1366" d="M1341 -8T1286 -4T1186 0Q1034 0 917 -4T768 -10L758 139L879 158L868 264L840 367H453L418 236L406 158L524 133L514 -10Q494 -8 425 -4T297 0Q188 0 111 -4T12 -10L2 139L94 154L180 330L567 1444L797
1466L1206 262L1253 152L1368 133L1358 -10Q1341 -8 1286 -4ZM655 1020L508 535L786 539L655 1020Z" />
<glyph unicode="B" glyph-name="B" horiz-adv-x="1296" d="M846 1464T951 1422T1119 1301T1182 1112Q1182 979 1103 885T897 760V745Q1055 720 1150 631T1245 387Q1245 192 1106 91T756 -10Q652 -10 524 -4Q360 0 303 0Q244 0 188 -4T115 -10L104 133L227 158Q233
191 239 248T246 334V1049Q246 1110 241 1175T227 1276L106 1300L117 1454Q133 1452 189 1448T305 1444Q377 1444 510 1454Q553 1456 622 1460T721 1464Q846 1464 951 1422ZM567 1260T565 1206T563 1110V395Q563 250 569 164Q624 158 684 158Q797 158 864 226T932
416Q932 656 662 655H641L655 834H668Q770 834 827 898T885 1087Q885 1175 825 1235T670 1296Q635 1296 569 1288Q567 1260 565 1206Z" />
<glyph unicode="C" glyph-name="C" horiz-adv-x="1304" d="M1098 6T994 -12T772 -31Q539 -31 378 62T136 326T55 721Q55 946 136 1116T379 1380T772 1475Q887 1475 976 1459T1214 1405L1190 1038L1032 1047L1026 1171Q1026 1191 1001 1255Q870 1284 772 1284Q594
1284 509 1131T424 723Q424 469 508 315T770 160Q887 160 1024 190Q1028 200 1042 239T1057 291L1063 387L1217 391L1233 39Q1098 6 994 -12Z" />
<glyph unicode="D" glyph-name="D" horiz-adv-x="1513" d="M971 1464T1132 1371T1376 1111T1458 721Q1458 502 1376 337T1132 80T737 -12Q669 -12 614 -10T518 -6Q405 0 307 0Q248 0 185 -4T102 -10L92 133L227 158Q229 181 237 245T246 334V1049Q246 1112 239
1183T227 1276L94 1300L104 1454Q122 1452 186 1448T309 1444Q385 1444 522 1454Q561 1456 631 1460T737 1464Q971 1464 1132 1371ZM665 1294T571 1278Q563 1139 563 1110V395Q563 262 571 164Q639 158 705 158Q922 158 1019 311T1116 725Q1116 981 1019 1137T709
1294Q665 1294 571 1278Z" />
<glyph unicode="E" glyph-name="E" horiz-adv-x="1261" d="M127 1452T195 1448T309 1444H858Q885 1444 973 1452T1092 1464L1130 1427L1145 1108L997 1098Q985 1196 979 1219Q973 1246 958 1268Q876 1276 797 1276H571Q563 1129 563 1110V817Q583 815 616 815H731Q758
815 785 822T821 834L840 965L967 954L965 784Q965 700 967 626T971 524L840 512L821 635Q807 637 761 642T690 647H627Q578 647 563 645V395Q563 301 569 178H825Q901 178 983 195Q1010 244 1022 283Q1040 353 1047 399L1190 389L1159 29L1120 -8Q1089 -6 1015
-3T887 0H309Q235 -2 178 -5T102 -10L92 133L227 158Q231 174 238 238T246 334V1049Q246 1199 227 1276L94 1300L104 1454Q127 1452 195 1448Z" />
<glyph unicode="F" glyph-name="F" horiz-adv-x="1165" d="M1061 1460T973 1452T858 1444H309Q250 1444 187 1448T104 1454L94 1300L227 1276Q233 1251 239 1186T246 1049V334Q246 303 239 239T227 158L92 133L102 -10Q120 -8 184 -4T307 0Q452 0 589 -4T766 -10L776
145L582 158Q576 187 570 252T563 389V623Q579 625 614 625H690Q715 625 761 620T821 612L840 489L971 502Q969 529 967 603T965 762L967 932L840 942L821 811Q813 807 786 800T731 793H612Q585 793 563 795V1110Q563 1128 571 1276H797Q858 1276 961 1266Q979
1221 979 1219Q985 1196 997 1098L1145 1108L1130 1427L1092 1464Q1061 1460 973 1452Z" />
<glyph unicode="G" glyph-name="G" horiz-adv-x="1431" d="M930 1475T1023 1459T1276 1405L1249 1067L1087 1075L1081 1171Q1081 1191 1057 1255Q918 1284 807 1284Q612 1284 518 1130T424 723Q424 469 517 315T805 160Q897 160 1006 176Q1020 242 1020 262V401Q1020
428 1012 470T999 526L782 543L793 743H1020Q1086 743 1157 746T1255 750L1313 698Q1309 665 1302 565T1294 401V39Q1151 6 1041 -12T807 -31Q563 -31 394 62T140 326T55 721Q55 946 140 1116T394 1380T807 1475Q930 1475 1023 1459Z" />
<glyph unicode="H" glyph-name="H" horiz-adv-x="1693" d="M1460 1243T1454 1191T1448 1110V395Q1448 286 1466 158L1599 145L1589 -10Q1560 -8 1449 -4T1192 0Q1133 0 1070 -4T987 -10L977 133L1112 158Q1114 170 1122 236T1130 334V618H563V395Q563 286 582
158L715 145L705 -10Q676 -8 565 -4T307 0Q248 0 185 -4T102 -10L92 133L227 158Q229 170 237 236T246 334V1049Q246 1139 237 1204T227 1276L94 1300L104 1454Q122 1452 186 1448T309 1444Q454 1444 566 1448T707 1454L717 1288L582 1276Q576 1243 570 1191T563
1110V797L1130 805V1049Q1130 1139 1121 1204T1112 1276L979 1300L989 1454Q1007 1452 1071 1448T1194 1444Q1339 1444 1451 1448T1591 1454L1602 1288L1466 1276Q1460 1243 1454 1191Z" />
<glyph unicode="I" glyph-name="I" horiz-adv-x="829" d="M586 1243T580 1191T573 1110V395Q573 286 592 158L725 145L715 -10Q686 -8 575 -4T317 0Q258 0 195 -4T113 -10L102 133L238 158Q240 170 248 236T256 334V1049Q256 1139 247 1204T238 1276L104 1300L115
1454Q133 1452 196 1448T319 1444Q464 1444 576 1448T717 1454L727 1288L592 1276Q586 1243 580 1191Z" />
<glyph unicode="J" glyph-name="J" horiz-adv-x="759" d="M551 1247T545 1192T539 1110V20Q539 -27 438 -144T176 -410L66 -346Q91 -295 156 -150T221 23V1049Q221 1117 215 1181T203 1276L70 1300L80 1454Q98 1452 161 1448T285 1444Q430 1444 541 1448T682 1454L692
1288L557 1276Q551 1247 545 1192Z" />
<glyph unicode="K" glyph-name="K" horiz-adv-x="1538" d="M672 1452T562 1448T307 1444Q246 1444 187 1448T111 1454L100 1300L227 1276Q227 1270 236 1205T246 1049V334Q246 303 238 237T227 158L98 133L109 -10Q125 -8 184 -4T305 0Q448 0 558 -4T696 -10L707
145L582 158Q564 287 563 395V1110Q563 1139 569 1191T582 1276L711 1288L700 1454Q672 1452 562 1448ZM1505 -8T1387 -4T1124 0Q1063 0 1005 -4T930 -10L920 133L999 150Q911 291 879 336Q852 367 732 518T571 723L903 1182L961 1288L897 1300L907 1454Q923 1452
983 1448T1106 1444Q1247 1444 1336 1448T1446 1454L1456 1288L1337 1276Q1243 1186 1182 1118L918 758L1065 586L1337 264Q1353 244 1450 158L1548 145L1538 -10Q1505 -8 1387 -4Z" />
<glyph unicode="L" glyph-name="L" horiz-adv-x="1157" d="M575 1243T569 1191T563 1110V395Q563 293 580 178H772Q852 178 930 195Q967 275 969 283Q987 353 993 399L1137 389L1106 29L1067 -8Q1036 -6 962 -3T834 0H307Q248 0 185 -4T102 -10L92 133L227 158Q229
170 237 236T246 334V1049Q246 1139 237 1204T227 1276L94 1300L104 1454Q122 1452 186 1448T309 1444Q454 1444 566 1448T707 1454L717 1288L582 1276Q575 1243 569 1191Z" />
<glyph unicode="M" glyph-name="M" horiz-adv-x="2007" d="M1626 1444T1715 1448T1831 1454L1839 1307L1708 1284Q1702 1229 1702 1165L1767 270Q1769 250 1774 230T1784 195L1794 152L1931 139L1921 -10Q1894 -8 1793 -4T1552 0Q1499 0 1431 -4T1341 -10L1331
127L1468 152Q1476 246 1477 332L1444 1061L1067 0H879L512 1061L473 332Q473 246 481 152L621 139L608 -10Q590 -8 511 -4T293 0Q240 0 173 -4T86 -10L76 127L215 152Q223 179 244 270L301 1165Q301 1208 289 1282L152 1307L162 1454Q185 1452 254 1448T379 1444H668L709
1403Q719 1366 745 1270T797 1094L1008 453L1237 1124Q1257 1187 1284 1276T1321 1403L1362 1444H1561Q1626 1444 1715 1448Z" />
<glyph unicode="N" glyph-name="N" horiz-adv-x="1642" d="M1561 1452T1459 1448T1251 1444L1047 1454L1036 1300L1169 1276Q1187 1129 1188 1049V471L737 1100Q719 1129 651 1245T557 1403L518 1444H309Q250 1444 187 1448T104 1454L94 1300L227 1276Q233 1245
239 1180T246 1049V334Q246 307 239 248T227 158L92 133L102 -10Q120 -8 184 -4T307 0Q452 0 539 -4T647 -10L657 145L524 158Q524 164 515 236T506 395V922L1171 0H1448V395V1110Q1448 1137 1455 1191T1466 1276L1602 1288L1591 1454Q1561 1452 1459 1448Z" />
<glyph unicode="O" glyph-name="O" horiz-adv-x="1572" d="M1518 492T1428 321T1172 56T786 -39Q567 -39 402 55T146 321T55 721Q55 950 145 1122T400 1388T786 1483Q1007 1483 1172 1389T1427 1122T1518 721Q1518 492 1428 321ZM424 436T513 298T786 160Q970
160 1059 298T1149 721Q1149 1008 1060 1146T786 1284Q602 1284 513 1146T424 721Q424 436 513 298Z" />
<glyph unicode="P" glyph-name="P" horiz-adv-x="1261" d="M563 555V395Q563 286 582 158L735 145L725 -10Q692 -8 573 -4T307 0Q248 0 185 -4T102 -10L92 133L227 158Q229 170 237 236T246 334V1049Q246 1139 237 1204T227 1276L94 1300L104 1454Q122 1452 185
1448T307 1444Q348 1444 420 1448T528 1454Q665 1464 748 1464Q967 1464 1099 1346T1231 1016Q1231 875 1154 771T950 611T676 555H563ZM901 1163T837 1229T629 1296L573 1294Q563 1161 563 1110V723H598Q739 723 820 801T901 1018Q901 1163 837 1229Z" />
<glyph unicode="Q" glyph-name="Q" horiz-adv-x="1585" d="M786 -39Q567 -39 402 55T146 321T55 721Q55 950 145 1122T400 1388T786 1483Q1007 1483 1172 1389T1427 1122T1518 721Q1518 475 1413 295T1118 29L1260 -66Q1280 -78 1409 -132T1583 -205L1399 -459L829
-39H786ZM424 436T513 298T786 160Q970 160 1059 298T1149 721Q1149 1008 1060 1146T786 1284Q602 1284 513 1146T424 721Q424 436 513 298Z" />
<glyph unicode="R" glyph-name="R" horiz-adv-x="1353" d="M1346 -10Q1317 -8 1209 -4T954 0Q942 31 906 119T854 238L684 567H653Q618 567 563 573V395Q563 286 582 158L715 145L705 -10Q676 -8 565 -4T307 0Q248 0 185 -4T102 -10L92 133L227 158Q229 170 237
236T246 334V1049Q246 1160 227 1276L94 1300L104 1454Q122 1452 187 1448T315 1444Q358 1444 429 1448T532 1454Q659 1464 737 1464Q954 1464 1085 1349T1217 1032Q1217 905 1150 806T969 643Q1043 496 1111 388T1186 268L1257 154L1356 145L1346 -10ZM612 739Q755
739 821 811T887 1028Q887 1163 822 1229T618 1296L575 1294Q563 1171 563 1110V739H612Z" />
<glyph unicode="S" glyph-name="S" horiz-adv-x="1173" d="M293 309Q293 295 322 225Q431 168 543 168Q635 168 695 212T756 340Q756 401 721 447T634 525T487 604Q366 663 290 715T159 854T104 1067Q104 1190 165 1283T336 1425T586 1475Q791 1475 1036 1401L1008
1006L838 1016V1167Q838 1177 813 1237Q772 1260 734 1272T647 1284Q553 1284 498 1240T442 1118Q442 1063 476 1021T561 949T702 874Q825 815 904 764T1038 627T1094 418Q1094 281 1024 180T835 24T567 -31Q444 -31 338 -10T161 39T90 68L121 463L291 453L293
309Z" />
<glyph unicode="T" glyph-name="T" horiz-adv-x="1282" d="M1110 1174T1098 1219Q1098 1221 1079 1266Q987 1276 924 1276H819Q813 1241 807 1190T801 1110V395Q801 286 819 158L952 145L942 -10Q913 -8 802 -4T545 0Q486 0 422 -4T340 -10L330 133L465 158Q467
170 475 236T483 334V1049Q483 1133 475 1200T465 1276H369Q308 1276 205 1266Q187 1221 186 1219Q174 1174 168 1077L20 1087L35 1427L74 1464Q105 1460 193 1452T307 1444H975Q1000 1444 1089 1452T1208 1464L1247 1427L1264 1087L1116 1077Q1110 1174 1098 1219Z"
/>
<glyph unicode="U" glyph-name="U" horiz-adv-x="1595" d="M1403 1243T1397 1191T1391 1110V549Q1391 281 1237 125T797 -31Q510 -31 358 125T205 549V1049Q205 1117 199 1182T186 1276L53 1300L63 1454Q81 1452 145 1448T268 1444Q413 1444 529 1448T676 1454L686
1288L551 1276Q547 1258 540 1199T532 1110V532Q532 389 611 296T831 203Q987 203 1053 287T1120 532V1049Q1120 1139 1102 1276L969 1300L979 1454Q997 1452 1060 1448T1184 1444Q1329 1444 1420 1448T1534 1454L1544 1288L1409 1276Q1403 1243 1397 1191Z" />
<glyph unicode="V" glyph-name="V" horiz-adv-x="1447" d="M164 1214T146 1248T121 1292L-2 1311L8 1454Q26 1452 88 1448T197 1444Q342 1444 465 1448T623 1454L633 1305L500 1286Q500 1274 504 1238T516 1180L754 424L1014 1208Q1022 1235 1025 1257T1028 1286L897
1311L907 1454Q930 1452 1001 1448T1133 1444Q1239 1444 1325 1448T1434 1454L1444 1305L1341 1290Q1329 1272 1297 1213T1249 1114L840 0H604L176 1182Q164 1214 146 1248Z" />
<glyph unicode="W" glyph-name="W" horiz-adv-x="2107" d="M1985 1274T1957 1220T1913 1114L1556 0H1321L1059 866L784 0H549L174 1182Q162 1221 147 1252T127 1292L4 1311L14 1454Q32 1452 94 1448T203 1444Q348 1444 471 1448T629 1454L639 1305L506 1286Q506
1278 506 1245T514 1180L698 424L971 1382H1202L1470 424L1677 1208Q1683 1226 1683 1257Q1683 1269 1682 1276T1681 1286L1550 1311L1561 1454Q1584 1452 1655 1448T1786 1444Q1892 1444 1978 1448T2087 1454L2097 1305L1995 1290Q1985 1274 1957 1220Z" />
<glyph unicode="X" glyph-name="X" horiz-adv-x="1427" d="M127 1294L18 1311L31 1454Q49 1452 112 1448T223 1444Q368 1444 480 1448T623 1454L629 1303L543 1292Q590 1188 627 1137L743 961L883 1184Q910 1223 942 1294L858 1311L870 1454Q888 1452 952 1448T1075
1444Q1181 1444 1267 1448T1376 1454L1384 1303L1251 1286Q1149 1188 1130 1165L874 774L1231 270Q1301 188 1331 156L1436 145L1423 -10Q1392 -8 1281 -4T1024 0Q977 0 920 -4T844 -10L836 133L911 147Q858 256 831 291L672 518L504 270Q479 233 440 154L541 145L528
-10Q505 -8 420 -4T227 0Q168 0 105 -4T23 -10L14 133L121 152Q262 299 289 336L543 702L236 1143L127 1294Z" />
<glyph unicode="Y" glyph-name="Y" horiz-adv-x="1458" d="M1331 1290Q1317 1272 1272 1214T1204 1114L891 512V395Q891 286 909 158L1042 145L1032 -10Q1003 -8 892 -4T635 0Q576 0 513 -4T430 -10L420 133L555 158Q557 170 565 236T573 334V510L209 1182Q191
1213 157 1247T111 1292L-12 1311L-2 1454Q16 1452 77 1448T186 1444Q331 1444 454 1448T612 1454L623 1305L514 1286Q516 1276 526 1240T549 1180L764 756L989 1208Q995 1218 996 1247T997 1286L907 1311L918 1454Q941 1452 1012 1448T1143 1444Q1249 1444 1335
1448T1444 1454L1454 1305L1331 1290Z" />
<glyph unicode="Z" glyph-name="Z" horiz-adv-x="1251" d="M372 1261T270 1251L244 1194Q236 1161 227 1117T213 1038L66 1049L80 1427L121 1464Q152 1460 242 1452T356 1444H1133L1153 1280L934 950L614 434L483 182H805Q891 182 977 199Q1016 279 1018 295Q1041
377 1044 416L1184 406L1153 29L1112 -8Q1081 -6 1006 -3T877 0H86L66 164Q95 203 178 317T293 485L651 1057L754 1262H440Q372 1261 270 1251Z" />
<glyph unicode="[" glyph-name="bracketleft" horiz-adv-x="542" d="M322 1282T329 1340T340 1415L481 1434L475 1569Q440 1567 330 1564T131 1561L82 1501Q84 1448 87 1326T92 1128V193Q90 115 87 -10T82 -188L131 -248Q219 -248 329 -251T475 -256L481 -121L340
-102Q336 -86 329 -28T322 82V1231Q322 1282 329 1340Z" />
<glyph unicode="\" glyph-name="backslash" horiz-adv-x="815" d="M176 1583L803 -72L610 -133L-14 1522L176 1583Z" />
<glyph unicode="]" glyph-name="bracketright" horiz-adv-x="542" d="M221 31T214 -27T203 -102L61 -121L68 -256Q103 -254 213 -251T412 -248L461 -188Q459 -135 456 -10T451 193V1128Q453 1204 456 1326T461 1501L412 1561Q324 1561 213 1564T68 1569L61 1434L203
1415Q207 1399 214 1341T221 1231V82Q221 31 214 -27Z" />
<glyph unicode="^" glyph-name="asciicircum" horiz-adv-x="1204" d="M223 643L602 1184L981 643L1163 764L602 1499L41 764L223 643Z" />
<glyph unicode="_" glyph-name="underscore" horiz-adv-x="1032" d="M1022 -475H4L0 -281H1032L1022 -475Z" />
<glyph unicode="`" glyph-name="grave" horiz-adv-x="737" d="M336 1286T242 1329T109 1391L205 1546L629 1276L532 1157L395 1257Q336 1286 242 1329Z" />
<glyph unicode="a" glyph-name="a" horiz-adv-x="1071" d="M594 61T525 21T358 -20Q219 -20 138 57T57 270Q57 510 328 553L618 600V659Q618 759 584 801T465 844Q428 844 381 833T299 805L285 723L287 635L133 629L102 975Q196 998 303 1014T477 1030Q680 1030
792 933T905 662V395Q905 332 912 256T924 158L1047 145L1034 -10Q1014 -8 922 -4T657 0L641 147Q594 61 525 21ZM410 432T385 403T360 315Q360 190 471 190Q524 190 564 225T618 322V467L467 442Q410 432 385 403Z" />
<glyph unicode="b" glyph-name="b" horiz-adv-x="1175" d="M27 1565T107 1557T242 1548L422 1552L465 1513Q461 1470 453 1337T444 1141V887Q499 957 569 993T735 1030Q936 1030 1030 890T1124 520Q1124 264 992 122T610 -20Q387 -20 137 53Q141 92 149 200T158
334V1202Q158 1229 150 1293T137 1380L-16 1415L2 1569Q27 1565 107 1557ZM458 798T444 532V395Q444 360 451 201Q535 174 586 174Q711 174 755 256T799 494Q799 633 763 716T625 799Q458 798 444 532Z" />
<glyph unicode="c" glyph-name="c" horiz-adv-x="954" d="M633 1030T714 1019T848 997T915 981L885 618L711 625L713 735Q709 788 705 815Q678 840 641 854T571 868Q471 868 424 779T377 502Q377 168 623 168Q686 168 739 182T823 212T862 233L934 115Q856 45
759 7T563 -31Q313 -31 182 105T51 502Q51 748 185 889T553 1030Q633 1030 714 1019Z" />
<glyph unicode="d" glyph-name="d" horiz-adv-x="1204" d="M1124 -8T1032 -4T768 0L752 154Q689 62 614 21T438 -20Q252 -20 151 113T49 489Q49 747 183 888T563 1030Q631 1030 729 1020V1202Q729 1229 721 1293T709 1380L555 1415L573 1569Q598 1565 679 1557T813
1548L993 1552L1036 1513Q1032 1470 1024 1337T1016 1141V395Q1016 332 1023 256T1034 158L1157 145L1145 -10Q1124 -8 1032 -4ZM647 836T588 836Q475 836 425 760T375 516Q375 360 417 286T549 211Q713 211 729 477V809Q647 836 588 836Z" />
<glyph unicode="e" glyph-name="e" horiz-adv-x="1019" d="M379 453Q389 297 450 232T635 166Q701 166 756 181T842 212T883 233L954 115Q792 -30 553 -31Q317 -31 184 107T51 496Q51 750 185 890T545 1030Q750 1030 862 912T975 582L973 532L930 453H379ZM651
635Q651 868 522 868Q448 868 416 800T379 604L649 618L651 635Z" />
<glyph unicode="f" glyph-name="f" horiz-adv-x="739" d="M664 1577T770 1564T877 1548L846 1206L694 1212V1305Q694 1334 686 1395Q649 1411 610 1411Q538 1411 515 1356T492 1167V1012H719L700 858H492V395Q492 332 499 256T510 158L684 145L674 -10Q645 -8
539 -4T287 0Q228 0 164 -4T82 -10L72 133L186 158Q188 181 196 245T205 334V858H88L82 987Q129 1001 139 1004Q153 1010 169 1015T205 1026V1188Q205 1301 251 1389T381 1527T575 1577Q664 1577 770 1564Z" />
<glyph unicode="g" glyph-name="g" horiz-adv-x="1073" d="M942 813T954 769T967 664Q967 553 912 468T757 336T526 289Q452 289 387 305Q358 270 358 250Q358 217 397 200T528 172Q741 149 826 137T948 111Q1054 70 1055 -80Q1055 -191 982 -283T783 -428T506
-481Q283 -481 169 -408T55 -188Q55 -155 107 -106T244 -8Q199 25 178 70T156 180Q156 221 281 344Q193 391 144 472T94 655Q94 766 149 851T304 983T535 1030Q664 1030 758 987L1026 1032L1034 856H913Q942 813 954 769ZM406 895T406 651Q406 424 528 424Q594
424 624 483T655 668Q655 783 626 839T535 895Q406 895 406 651ZM328 -107T328 -156Q328 -234 396 -275T596 -317Q692 -317 748 -283T805 -188Q805 -159 788 -141T737 -119L471 -78Q403 -68 365 -57Q328 -107 328 -156Z" />
<glyph unicode="h" glyph-name="h" horiz-adv-x="1292" d="M68 1565T148 1557T283 1548L463 1552L506 1513Q498 1431 492 1321T485 1141V891Q598 1030 764 1030Q942 1030 1034 937T1126 666V395Q1126 332 1133 256T1145 158L1278 145L1268 -10Q1243 -8 1145 -4T901
0Q842 0 791 -4T725 -10L715 133L829 158L836 248L840 334V637Q840 721 802 773T688 825Q606 825 546 750T485 543V395Q485 332 492 256T504 158L637 145L627 -10Q602 -8 504 -4T260 0Q201 0 138 -4T55 -10L45 133L180 158Q184 189 191 248T199 334V1202Q199 1229
191 1293T178 1380L25 1415L43 1569Q68 1565 148 1557Z" />
<glyph unicode="i" glyph-name="i" horiz-adv-x="679" d="M422 1505T465 1461T508 1341Q508 1267 466 1224T346 1180Q268 1180 226 1224T184 1341Q184 1415 227 1460T346 1505Q422 1505 465 1461ZM612 -8T514 -4T270 0Q211 0 148 -4T66 -10L55 133L190 158Q192
181 200 245T209 334V666Q209 693 201 757T188 844L35 879L53 1030Q78 1026 159 1019T293 1012L473 1016L516 977Q512 934 504 801T496 604V395Q496 332 503 256T514 158L647 145L637 -10Q612 -8 514 -4Z" />
<glyph unicode="j" glyph-name="j" horiz-adv-x="630" d="M385 1505T428 1461T471 1341Q471 1267 429 1224T309 1180Q231 1180 189 1224T147 1341Q147 1415 190 1460T309 1505Q385 1505 428 1461ZM53 1026T134 1019T268 1012L449 1016L492 977Q488 934 480 801T471
604V-20Q471 -57 394 -159T236 -357T127 -481L31 -428Q43 -399 80 -301T150 -99T184 43V240V666Q184 693 176 757T164 844L10 879L29 1030Q53 1026 134 1019Z" />
<glyph unicode="k" glyph-name="k" horiz-adv-x="1251" d="M68 1565T148 1557T283 1548L463 1552L506 1513Q498 1431 492 1321T485 1141V395Q485 332 492 256T504 158L637 145L627 -10Q602 -8 504 -4T260 0Q201 0 138 -4T55 -10L45 133L180 158Q184 189 191 248T199
334V1202Q199 1229 191 1293T178 1380L25 1415L43 1569Q68 1565 148 1557ZM694 1020T796 1016T989 1012Q1061 1012 1131 1015T1227 1020L1223 877L1114 866Q1046 827 1006 800T946 750L809 573L963 332Q977 309 1063 223L1124 158L1247 145L1235 -10Q1217 -8 1147
-4T1004 0H803L743 123L735 139L690 225L508 543L764 864L653 877L664 1022Q694 1020 796 1016Z" />
<glyph unicode="l" glyph-name="l" horiz-adv-x="673" d="M68 1565T148 1557T283 1548L463 1552L506 1513Q498 1431 492 1321T485 1141V395Q485 332 492 256T504 158L637 145L627 -10Q602 -8 504 -4T260 0Q201 0 138 -4T55 -10L45 133L180 158Q184 189 191 248T199
334V1202Q199 1229 191 1293T178 1380L25 1415L43 1569Q68 1565 148 1557Z" />
<glyph unicode="m" glyph-name="m" horiz-adv-x="1878" d="M1853 -10Q1828 -8 1730 -4T1487 0Q1428 0 1377 -4T1311 -10L1300 133L1415 158L1421 248L1425 334V637Q1425 723 1393 774T1290 825Q1214 825 1159 750T1104 543V395Q1104 332 1111 256T1122 158L1255
145L1245 -10Q1220 -8 1122 -4T879 0Q820 0 769 -4T702 -10L692 133L807 158L813 248L817 334V637Q817 723 785 774T682 825Q606 825 551 750T496 543V395Q496 332 503 256T514 158L647 145L637 -10Q612 -8 514 -4T270 0Q211 0 148 -4T66 -10L55 133L190 158Q192
181 200 244T209 334V666Q209 691 201 756T188 844L35 879L53 1030Q78 1026 159 1019T293 1012L391 1016L434 977L455 834Q516 928 595 979T778 1030Q1001 1030 1073 850Q1198 1030 1386 1030Q1546 1030 1629 937T1712 666V395Q1712 332 1719 256T1731 158L1864
145L1853 -10Z" />
<glyph unicode="n" glyph-name="n" horiz-adv-x="1302" d="M1278 -10Q1253 -8 1155 -4T911 0Q852 0 801 -4T735 -10L725 133L840 158L846 248L850 334V637Q850 721 812 773T698 825Q616 825 556 750T496 543V395Q496 332 503 256T514 158L647 145L637 -10Q612
-8 514 -4T270 0Q211 0 148 -4T66 -10L55 133L190 158Q192 181 200 244T209 334V666Q209 691 201 756T188 844L35 879L53 1030Q78 1026 159 1019T293 1012L391 1016L434 977L455 831Q521 927 602 978T795 1030Q963 1030 1050 937T1137 666V395Q1137 332 1144 256T1155
158L1288 145L1278 -10Z" />
<glyph unicode="o" glyph-name="o" horiz-adv-x="1114" d="M1063 244T932 107T557 -31Q313 -31 182 106T51 500Q51 756 182 893T557 1030Q801 1030 932 893T1063 500Q1063 244 932 107ZM737 688T695 772T557 856Q461 856 419 772T377 500Q377 312 419 228T557
143Q653 143 695 227T737 500Q737 688 695 772Z" />
<glyph unicode="p" glyph-name="p" horiz-adv-x="1206" d="M952 1030T1053 897T1155 520Q1155 262 1021 121T641 -20Q571 -20 475 -10V-74Q475 -137 483 -217T496 -322L657 -334L647 -479Q622 -477 524 -473T281 -469Q222 -469 158 -473T76 -479L66 -346L168 -322Q172
-299 180 -231T188 -135V666Q188 693 180 757T168 844L14 879L33 1030Q56 1026 132 1019T272 1012L371 1016L414 977L434 827Q500 933 578 981T766 1030Q952 1030 1053 897ZM573 799T528 732T475 532V203Q561 174 616 174Q729 174 779 250T829 494Q829 650 787
724T655 799Q573 799 528 732Z" />
<glyph unicode="q" glyph-name="q" horiz-adv-x="1169" d="M1128 -481Q1103 -479 1005 -475T762 -471Q703 -471 639 -475T557 -481L547 -348L711 -324Q715 -301 723 -233T731 -137V123Q672 47 602 12T440 -23Q254 -23 153 110T51 487Q51 745 185 886T565 1028Q667
1028 794 1009T1038 954Q1034 915 1026 808T1018 674V-76Q1018 -139 1026 -219T1038 -324L1139 -336L1128 -481ZM715 209T731 475V612Q731 649 725 809Q641 834 590 834Q477 834 427 758T377 514Q377 358 419 284T551 209Q715 209 731 475Z" />
<glyph unicode="r" glyph-name="r" horiz-adv-x="937" d="M573 1030T741 1030Q788 1030 840 1022T909 1010L879 598L727 604V717Q727 725 711 823Q707 825 698 825Q616 825 556 750T496 543V395Q496 332 503 256T514 158L684 145L674 -10Q645 -8 539 -4T287 0Q228
0 156 -4T61 -10L51 133L190 158Q192 181 200 245T209 334V666Q209 693 201 757T188 844L35 879L53 1032Q78 1028 159 1020T293 1012L391 1016L434 977L453 842Q573 1030 741 1030Z" />
<glyph unicode="s" glyph-name="s" horiz-adv-x="878" d="M622 1030T778 981L754 657L616 668V756Q616 764 607 789T588 834Q514 867 444 866Q376 866 344 844T311 788Q311 749 351 725T481 666Q583 627 653 589T773 481T823 299Q823 145 716 63T424 -20Q358 -20
278 -10T138 11T61 27L86 365L231 354V262Q233 246 239 222T250 186Q361 141 430 141Q485 141 523 164T561 229Q561 272 522 297T393 358Q293 399 229 436T116 543T68 725Q68 877 170 953T451 1030Q622 1030 778 981Z" />
<glyph unicode="t" glyph-name="t" horiz-adv-x="733" d="M682 37T619 9T473 -20Q309 -20 238 62T166 319V858H35L29 987Q41 993 130 1027T227 1073Q243 1096 284 1162T340 1251L453 1243V1012H696L678 858H453V293Q453 240 481 202T559 164Q584 164 608 173T649
191T670 205L745 88Q682 37 619 9Z" />
<glyph unicode="u" glyph-name="u" horiz-adv-x="1273" d="M674 1026T755 1019T889 1012L1069 1016L1112 977Q1108 934 1100 801T1092 604V395Q1092 332 1099 256T1110 158L1233 145L1221 -10Q1201 -8 1109 -4T844 0L825 160Q766 78 695 35T528 -8Q350 -8 259
85T168 356V666Q168 693 160 760T147 850L35 879L53 1030Q78 1026 153 1019T283 1012L432 1016L475 977Q471 934 463 801T455 604V385Q455 299 491 248T604 197Q686 197 745 272T805 479V666Q805 693 797 757T784 844L631 879L649 1030Q674 1026 755 1019Z" />
<glyph unicode="v" glyph-name="v" horiz-adv-x="1144" d="M952 686T940 653L694 0H434L188 705Q163 785 127 866L-6 889L4 1030Q31 1026 125 1019T309 1012Q360 1012 430 1016T522 1022L532 877L440 868Q452 776 465 725L580 303L719 725Q731 762 756 868L664
877L674 1022Q694 1020 771 1016T938 1012Q989 1012 1045 1016T1118 1022L1128 877L1036 864Q952 686 940 653Z" />
<glyph unicode="w" glyph-name="w" horiz-adv-x="1705" d="M1523 686T1511 653L1272 0H1006L854 494L688 0H424L178 705Q153 785 117 866L4 889L14 1030Q39 1026 124 1019T299 1012Q350 1012 436 1016T551 1022L561 877L426 868L436 815L455 723L569 303L786 1012H967L1157
303L1290 727Q1304 768 1327 868L1208 877L1219 1022Q1244 1020 1331 1016T1509 1012Q1560 1012 1614 1016T1686 1022L1696 877L1608 864Q1523 686 1511 653Z" />
<glyph unicode="x" glyph-name="x" horiz-adv-x="1177" d="M569 1022Q549 1020 481 1016T362 1012Q276 1012 176 1019T45 1030L35 891L102 874L295 662L397 516L295 377L106 156L29 141L39 -10Q55 -8 111 -4T217 0Q305 0 380 -4T475 -10L485 143L420 150L436 184L557
371L674 195L700 150L618 141L629 -10Q649 -8 717 -4T836 0Q924 0 1024 -7T1155 -18L1161 131L1077 154L897 350L772 520L858 637L1055 866L1128 879L1118 1022Q1102 1020 1046 1016T940 1012Q852 1012 777 1016T682 1022L672 879L741 870L684 780L610 659L532
786L483 870L580 879L569 1022Z" />
<glyph unicode="y" glyph-name="y" horiz-adv-x="1169" d="M750 758T757 799T766 866L676 877L688 1022Q706 1020 777 1016T932 1012Q989 1012 1061 1016T1155 1022L1163 877L1063 866Q1047 839 1020 777T977 672L530 -481L125 -455L147 -293L260 -297Q309 -297
350 -285Q389 -240 414 -170L477 0L223 666Q164 818 137 866L8 889L20 1030Q47 1026 134 1019T305 1012Q362 1012 438 1016T537 1022L545 877L459 866Q461 835 470 794T487 729L616 324L741 733Q750 758 757 799Z" />
<glyph unicode="z" glyph-name="z" horiz-adv-x="942" d="M125 1018T183 1015T289 1012H877L891 870L733 670L487 291Q467 262 422 164H588Q602 164 653 174Q669 176 691 180T735 186Q768 262 768 272L782 362L924 350L901 35L860 -6Q835 -6 775 -3T668 0H72L43
143Q66 168 131 241T215 344L465 721Q492 758 532 848H371L315 840Q270 828 238 825Q230 807 221 779T211 739L203 623L47 629L57 977L100 1018Q125 1018 183 1015Z" />
<glyph unicode="{" glyph-name="braceleft" horiz-adv-x="591" d="M385 586T354 605T299 635T270 647V666Q276 668 299 678T353 707T412 752L391 1231Q391 1282 398 1340T410 1415L551 1434L545 1569Q510 1567 400 1564T201 1561L152 1501L213 784Q188 757 137
732T70 707L61 606Q81 606 133 581T211 528L152 -188L201 -248Q289 -248 399 -251T545 -256L551 -121L410 -102Q406 -86 399 -28T391 82L412 561Q385 586 354 605Z" />
<glyph unicode="|" glyph-name="bar" horiz-adv-x="571" d="M383 1540V-250L188 -231V1556L383 1540Z" />
<glyph unicode="}" glyph-name="braceright" horiz-adv-x="591" d="M207 727T238 708T292 678T322 666V647Q316 645 293 635T239 606T180 561L201 82Q201 31 194 -27T182 -102L41 -121L47 -256Q82 -254 192 -251T391 -248L440 -188Q436 -139 420 46T379 528Q404
553 455 579T522 606L530 707Q507 707 455 732T379 784L440 1501L391 1561Q303 1561 193 1564T47 1569L41 1434L182 1415Q186 1399 193 1341T201 1231L180 752Q207 727 238 708Z" />
<glyph unicode="~" glyph-name="asciitilde" horiz-adv-x="1236" d="M918 328T972 381T1070 497T1114 565L1004 657Q998 649 976 626T924 580T866 557Q831 557 781 570T645 612Q547 645 482 662T365 680Q320 680 266 627T167 510T123 442L233 350Q239 358 261
382T313 428T371 451Q428 451 610 391Q716 358 773 343T872 328Q918 328 972 381Z" />
<glyph unicode="&#xa0;" glyph-name="nbsp" horiz-adv-x="366" />
<glyph unicode="&#xa1;" glyph-name="exclamdown" horiz-adv-x="489" d="M154 1040T114 995T74 877Q74 803 114 759T225 715Q297 715 337 759T377 877Q377 953 337 996T225 1040Q154 1040 114 995ZM160 547T224 543T342 539L340 403L358 -449L113 -467L53 -410Q57
-375 69 -250T93 45T104 358Q104 409 102 454T98 516L133 549Q160 547 224 543Z" />
<glyph unicode="&#xa2;" glyph-name="cent" horiz-adv-x="1036" d="M895 215T807 178T629 135L621 -86L487 -80L496 139Q291 166 187 300T82 666Q82 891 200 1034T539 1192L549 1411L680 1405L672 1190Q764 1184 855 1166T946 1145L915 782L762 788L764 899L756
979Q731 1002 694 1017T623 1032Q531 1032 484 984T422 858T408 666Q408 512 463 422T653 332Q716 332 769 346T854 375T893 397L965 279Q895 215 807 178Z" />
<glyph unicode="&#xa3;" glyph-name="sterling" horiz-adv-x="1261" d="M1169 29L1130 -8Q1099 -6 1025 -3T897 0H336Q277 0 214 -4T131 -10L121 133L256 158Q258 181 266 244T274 334V463L106 455L102 588L274 596V680L96 672L92 805L274 813V956Q274 1151 405
1258T743 1366Q893 1366 1159 1300L1135 967L987 973L981 1065Q981 1085 965 1143Q908 1168 856 1177T741 1186Q665 1186 618 1132T571 999V825L932 842L936 711L571 694V608L942 625L946 494L571 477V395Q571 286 588 178H836Q916 178 993 195Q1030 275 1032 283Q1050
353 1057 399L1200 389L1169 29Z" />
<glyph unicode="&#xa5;" glyph-name="yen" horiz-adv-x="1339" d="M821 395Q821 332 828 256T840 158L973 145L963 -10Q938 -8 840 -4T596 0Q537 0 469 -4T381 -10L371 133L506 158Q508 181 516 245T524 334V467L219 455L215 588L475 598L428 682L209 672L205
805L354 811L217 1057Q197 1096 125 1180L25 1202L35 1346Q51 1344 110 1340T229 1335Q374 1335 472 1339T596 1346L606 1190L494 1180L524 1102L702 784L895 1124L913 1178L772 1202L782 1346Q805 1344 874 1340T997 1335Q1142 1335 1215 1339T1305 1346L1315
1190L1214 1180Q1093 1033 1077 1001L979 836L1126 842L1130 711L899 700L848 612L1137 625L1141 494L821 479V395Z" />
<glyph unicode="&#xa6;" glyph-name="brokenbar" horiz-adv-x="571" d="M383 1540V803L188 819V1556L383 1540ZM188 -231V434L383 420V-250L188 -231Z" />
<glyph unicode="&#xa7;" glyph-name="section" horiz-adv-x="1175" d="M889 520T851 561T756 634T596 711Q459 770 373 820T226 951T164 1145Q164 1303 280 1389T584 1475Q760 1475 969 1415L944 1108L799 1118V1229Q799 1233 791 1270Q744 1309 641 1309Q567
1309 522 1273T477 1176Q477 1117 534 1079T713 991Q815 948 878 914T987 825T1032 694Q1032 641 1008 586T957 495T922 449L889 469Q889 520 851 561ZM307 739T345 698T440 626T600 549Q737 490 823 440T970 308T1032 115Q1032 -43 913 -129T602 -215Q508 -215
396 -199T186 -156L211 172L356 162V51Q356 33 367 -12Q424 -49 545 -49Q625 -49 672 -13T719 84Q719 143 662 181T483 268Q381 311 318 346T209 435T164 565Q164 618 188 673T239 765T274 811L307 791Q307 739 345 698Z" />
<glyph unicode="&#xa8;" glyph-name="dieresis" horiz-adv-x="737" d="M193 1485T228 1447T264 1341Q264 1275 229 1238T127 1200Q61 1200 25 1239T-12 1341Q-12 1407 24 1446T127 1485Q193 1485 228 1447ZM678 1485T714 1447T750 1341Q750 1275 714 1238T612
1200Q546 1200 511 1238T475 1341Q475 1407 511 1446T612 1485Q678 1485 714 1447Z" />
<glyph unicode="&#xa9;" glyph-name="copyright" horiz-adv-x="1730" d="M1614 311T1513 140T1239 -133T864 -236Q663 -236 491 -137T218 134T117 512Q117 715 218 887T491 1159T864 1260Q1069 1260 1241 1161T1513 889T1614 512Q1614 311 1513 140ZM1470 674T1389
813T1168 1035T864 1118Q700 1118 561 1037T340 817T258 512Q258 348 340 209T561 -12T864 -94Q1030 -94 1168 -12T1388 209T1470 512Q1470 674 1389 813ZM1075 111T1017 101T891 90Q678 90 567 207T455 518Q455 715 566 831T891 948Q952 948 1004 940T1100 922T1157
907L1139 684L1038 688L1032 768Q1030 774 1027 786T1018 811Q944 823 891 823Q795 823 751 741T707 520Q707 383 750 299T889 215Q959 215 1034 231Q1036 237 1043 254T1053 283L1059 340L1155 342L1165 131Q1075 111 1017 101Z" />
<glyph unicode="&#xaa;" glyph-name="ordfeminine" horiz-adv-x="724" d="M389 958T347 933T242 907Q148 907 95 959T41 1102Q41 1260 219 1286L408 1315V1354Q408 1415 384 1441T311 1468Q288 1468 258 1461T205 1444L195 1393L197 1325L90 1321L70 1554Q127
1568 199 1579T317 1591Q454 1591 533 1529T612 1360V1186Q612 1143 616 1093T623 1028L702 1020L694 915Q680 917 618 919T430 922L422 1016Q389 958 347 933ZM289 1206T274 1188T258 1133Q258 1094 274 1076T326 1057Q385 1057 408 1128V1225L326 1214Q289 1206
274 1188Z" />
<glyph unicode="&#xab;" glyph-name="guillemetleft" horiz-adv-x="909" d="M276 496L492 113L354 20L41 496L354 971L492 879L276 496ZM633 496L848 113L711 20L397 496L711 971L848 879L633 496Z" />
<glyph unicode="&#xac;" glyph-name="logicalnot" horiz-adv-x="1198" d="M872 432L868 133H1065V631H133V424L872 432Z" />
<glyph unicode="&#xae;" glyph-name="registered" horiz-adv-x="1730" d="M1614 311T1513 140T1239 -133T864 -236Q663 -236 491 -137T218 134T117 512Q117 715 218 887T491 1159T864 1260Q1069 1260 1241 1161T1513 889T1614 512Q1614 311 1513 140ZM1470 674T1389
813T1168 1035T864 1118Q700 1118 561 1037T340 817T258 512Q258 348 340 209T561 -12T864 -94Q1030 -94 1168 -12T1388 209T1470 512Q1470 674 1389 813ZM1026 965T1107 897T1188 715Q1188 647 1151 591T1051 498Q1086 428 1128 362T1182 285Q1188 273 1197 259T1217
227L1262 221L1257 125Q1241 127 1174 129T1012 131Q1006 147 989 190T954 266L860 444H807V369Q807 318 814 277T821 229L887 221L883 125Q865 127 792 129T625 131Q582 131 551 129T512 125L506 217L580 229Q582 247 586 278T590 334V700Q590 755 585 795T580
846L508 860L514 958Q524 956 558 954T639 952Q676 952 709 954T772 958Q840 964 897 965Q1026 965 1107 897ZM807 799T807 764V555H817Q897 555 927 594T958 713Q958 787 928 820T823 854H813Q807 799 807 764Z" />
<glyph unicode="&#xaf;" glyph-name="overscore" horiz-adv-x="737" d="M698 1370L684 1221H39V1370H698Z" />
<glyph unicode="&#xb0;" glyph-name="degree" horiz-adv-x="780" d="M719 918T630 836T389 754Q237 754 149 836T61 1059Q61 1200 149 1282T389 1364Q541 1364 630 1282T719 1059Q719 918 630 836ZM260 981T293 930T391 879Q457 879 488 930T520 1059Q520 1137
489 1188T391 1239Q325 1239 293 1188T260 1059Q260 981 293 930Z" />
<glyph unicode="&#xb1;" glyph-name="plusminus" horiz-adv-x="1230" d="M1081 625L713 621L717 281H512V618L150 614V819H512V1151H707L711 819H1081V625ZM1081 197V0H150V186L1081 197Z" />
<glyph unicode="&#xb4;" glyph-name="acute" horiz-adv-x="737" d="M590 1372T496 1329T342 1257L205 1157L109 1276L532 1546L629 1391Q590 1372 496 1329Z" />
<glyph unicode="&#xb5;" glyph-name="mu" horiz-adv-x="1210" d="M1038 248T1045 214T1072 165T1167 113L1128 -31Q1112 -29 1022 -21T887 23T815 127Q715 -8 551 -8Q457 -8 399 23V-141L410 -446H125L82 -408Q86 -371 99 -257T113 -80V666Q111 738 108 850T102
1012H377L420 973Q416 930 408 799T399 604V385Q399 301 437 249T551 197Q633 197 693 272T754 479V686L743 1012H1018L1061 973Q1057 934 1049 814T1038 625V342Q1038 248 1045 214Z" />
<glyph unicode="&#xb6;" glyph-name="paragraph" horiz-adv-x="1280" d="M1053 147T1061 17T1071 -156L1032 -193L989 -190Q835 -184 756 -184Q697 -184 633 -188T551 -195L541 -51L717 -27Q719 -4 727 59T735 150V1049V1444H922Q1067 1444 1126 1448T1186 1454L1196
1288L1061 1276Q1053 1129 1053 1110V211Q1053 147 1061 17ZM414 596T301 648T122 797T55 1026Q55 1151 113 1248T275 1399T506 1452Q572 1452 633 1444V676L549 596Q414 596 301 648Z" />
<glyph unicode="&#xb7;" glyph-name="middot" horiz-adv-x="497" d="M168 786T125 738T82 612Q82 534 125 487T244 440Q320 440 363 487T406 612Q406 694 363 740T244 786Q168 786 125 738Z" />
<glyph unicode="&#xb8;" glyph-name="cedilla" horiz-adv-x="737" d="M504 -123T561 -170T618 -299Q618 -391 554 -436T385 -481Q332 -481 275 -470T188 -444L225 -344Q297 -367 338 -367Q379 -367 406 -351T434 -299Q434 -264 412 -250T348 -236L305 -238L283
-209L305 20H440L412 -121Q504 -123 561 -170Z" />
<glyph unicode="&#xba;" glyph-name="ordmasculine" horiz-adv-x="753" d="M715 1077T628 989T377 901Q213 901 126 989T39 1245Q39 1415 126 1503T377 1591Q539 1591 627 1502T715 1245Q715 1077 628 989ZM483 1370T458 1420T377 1470Q320 1470 295 1420T270
1245Q270 1122 294 1072T377 1022Q432 1022 457 1072T483 1245Q483 1370 458 1420Z" />
<glyph unicode="&#xbb;" glyph-name="guillemetright" horiz-adv-x="909" d="M276 496L61 879L199 971L512 496L199 20L61 113L276 496ZM633 496L418 879L555 971L868 496L555 20L418 113L633 496Z" />
<glyph unicode="&#xbf;" glyph-name="questiondown" horiz-adv-x="864" d="M502 1040T462 995T422 877Q422 803 462 759T573 715Q645 715 685 759T725 877Q725 953 685 996T573 1040Q502 1040 462 995ZM295 55T352 130T506 205Q576 205 627 199L690 268V535L684
541Q618 541 563 544T479 549L444 516L451 352Q256 346 138 238T20 -55Q20 -258 146 -368T494 -479Q580 -479 657 -460T823 -399L799 -96L659 -106L664 -180Q664 -200 661 -238T651 -295Q602 -328 514 -328Q405 -328 350 -253T295 -57Q295 55 352 130Z" />
<glyph unicode="&#xc6;" glyph-name="AE" horiz-adv-x="1867" d="M1657 1185T1651 1208Q1651 1210 1632 1255Q1530 1265 1468 1266H1126Q1132 1164 1139 1110L1184 819Q1200 815 1237 815H1403Q1430 815 1457 822T1493 834L1511 965L1638 954L1636 791Q1636 707
1638 632T1642 530L1511 518L1493 641Q1479 643 1434 648T1362 653H1247Q1222 653 1210 649L1249 395L1290 178H1497Q1573 178 1655 195Q1692 275 1694 283Q1712 353 1718 399L1862 389L1831 29L1792 -8Q1761 -6 1687 -3T1559 0H1004Q957 0 905 -4T838 -10L827
133L965 158Q965 246 961 270L944 377H500L420 236Q416 226 408 205T387 158L528 145L518 -10Q495 -8 410 -4T217 0Q158 0 95 -4T12 -10L2 133L106 152Q204 287 229 330L768 1276L637 1300L647 1454Q665 1452 729 1448T852 1444H1530Q1557 1444 1645 1452T1763
1464L1802 1427L1817 1098L1669 1087Q1657 1185 1651 1208ZM846 997L594 545L918 549L850 981L846 997Z" />
<glyph unicode="&#xc7;" glyph-name="Ccedilla" horiz-adv-x="1304" d="M905 -123T962 -170T1020 -299Q1020 -391 956 -436T786 -481Q733 -481 676 -470T590 -444L627 -344Q699 -367 739 -367Q780 -367 808 -351T836 -299Q836 -264 814 -250T750 -236L707 -238L684
-209L702 -29Q387 -9 221 193T55 721Q55 946 136 1116T379 1380T772 1475Q887 1475 976 1459T1214 1405L1190 1038L1032 1047L1026 1171Q1026 1191 1001 1255Q870 1284 772 1284Q594 1284 509 1131T424 723Q424 469 508 315T770 160Q885 160 1024 190Q1028 200
1042 239T1057 291L1063 387L1217 391L1233 39Q1114 10 1022 -7T831 -29L813 -121Q905 -123 962 -170Z" />
<glyph unicode="&#xd0;" glyph-name="Eth" horiz-adv-x="1400" d="M104 1452T167 1448T291 1444Q367 1444 504 1454Q543 1456 613 1460T719 1464Q952 1464 1114 1371T1358 1111T1440 721Q1440 502 1358 337T1113 80T719 -12Q651 -12 596 -10T500 -6Q387 0 289
0Q230 0 166 -4T84 -10L74 133L209 158Q211 181 219 245T227 334V659H86V809H227V1049Q227 1112 220 1183T209 1276L76 1300L86 1454Q104 1452 167 1448ZM545 262T553 164Q621 158 686 158Q903 158 1000 311T1098 725Q1098 981 1001 1137T690 1294Q647 1294 553
1278Q545 1139 545 1110V809H745L735 659H545V395Q545 262 553 164Z" />
<glyph unicode="&#xd7;" glyph-name="multiply" horiz-adv-x="1138" d="M569 354L266 49L125 188L426 496L123 799L262 940L567 641L864 942L1012 797L713 498L1016 201L870 53L569 354Z" />
<glyph unicode="&#xd8;" glyph-name="Oslash" horiz-adv-x="1572" d="M1356 1272T1437 1105T1518 721Q1518 492 1428 321T1172 56T786 -39Q626 -39 492 12L336 -281L219 -221L373 72Q221 168 138 335T55 721Q55 950 145 1122T400 1388T786 1483Q950 1483 1085
1430L1237 1716L1358 1657L1206 1368Q1356 1272 1437 1105ZM424 452T502 317L981 1229Q905 1284 786 1284Q602 1284 513 1146T424 721Q424 452 502 317ZM971 160T1060 298T1149 721Q1149 981 1075 1120L596 211Q672 160 786 160Q971 160 1060 298Z" />
<glyph unicode="&#xde;" glyph-name="Thorn" horiz-adv-x="1228" d="M561 1225T555 1159Q694 1167 737 1167Q956 1167 1088 1052T1221 733Q1221 598 1152 500T967 350T709 299H557Q559 250 565 209T571 158L705 145L694 -10Q665 -8 554 -4T297 0Q238 0 175 -4T92
-10L82 133L217 158Q219 170 227 236T236 334V1049Q236 1139 227 1204T217 1276L84 1300L94 1454Q112 1452 176 1448T299 1444Q444 1444 556 1448T696 1454L707 1288L571 1276Q561 1225 555 1159ZM588 467Q729 467 810 535T891 735Q891 870 826 934T618 999Q581
999 553 997V467H588Z" />
<glyph unicode="&#xdf;" glyph-name="germandbls" horiz-adv-x="1269" d="M205 305T205 334V858H88L82 987Q129 1001 139 1004Q153 1010 169 1015T205 1026V1188Q207 1577 680 1577Q1120 1577 1120 1255Q1120 1177 1094 1117T1031 1016T938 924Q883 875 857 842T831
768Q831 727 865 702T979 637Q1061 600 1116 564T1210 465T1249 309Q1249 153 1156 67T905 -20Q848 -20 778 -10T656 11T590 27L614 365L758 354V262Q760 246 764 221T770 184Q848 139 903 139Q944 139 970 163T997 229Q997 288 958 324T834 403Q758 444 710 478T628
570T594 715Q594 811 634 872T750 1006Q820 1069 854 1120T889 1247Q889 1327 831 1366T680 1405Q565 1405 529 1337T492 1118V395Q492 297 506 78L510 0H350Q258 0 180 -4T82 -10L72 133L186 158Q205 305 205 334Z" />
<glyph unicode="&#xe0;" glyph-name="agrave" horiz-adv-x="1071" d="M594 61T525 21T358 -20Q219 -20 138 57T57 270Q57 510 328 553L618 600V659Q618 759 584 801T465 844Q428 844 381 833T299 805L285 723L287 635L133 629L102 975Q196 998 303 1014T477 1030Q680
1030 792 933T905 662V395Q905 332 912 256T924 158L1047 145L1034 -10Q1014 -8 922 -4T657 0L641 147Q594 61 525 21ZM410 432T385 403T360 315Q360 190 471 190Q524 190 564 225T618 322V467L467 442Q410 432 385 403ZM422 1286T328 1329T195 1391L291 1546L715
1276L618 1157L481 1257Q422 1286 328 1329Z" />
<glyph unicode="&#xe1;" glyph-name="aacute" horiz-adv-x="1071" d="M594 61T525 21T358 -20Q219 -20 138 57T57 270Q57 510 328 553L618 600V659Q618 759 584 801T465 844Q428 844 381 833T299 805L285 723L287 635L133 629L102 975Q196 998 303 1014T477 1030Q680
1030 792 933T905 662V395Q905 332 912 256T924 158L1047 145L1034 -10Q1014 -8 922 -4T657 0L641 147Q594 61 525 21ZM410 432T385 403T360 315Q360 190 471 190Q524 190 564 225T618 322V467L467 442Q410 432 385 403ZM758 1372T664 1329T510 1257L373 1157L277
1276L700 1546L797 1391Q758 1372 664 1329Z" />
<glyph unicode="&#xe2;" glyph-name="acircumflex" horiz-adv-x="1071" d="M594 61T525 21T358 -20Q219 -20 138 57T57 270Q57 510 328 553L618 600V659Q618 759 584 801T465 844Q428 844 381 833T299 805L285 723L287 635L133 629L102 975Q196 998 303 1014T477
1030Q680 1030 792 933T905 662V395Q905 332 912 256T924 158L1047 145L1034 -10Q1014 -8 922 -4T657 0L641 147Q594 61 525 21ZM410 432T385 403T360 315Q360 190 471 190Q524 190 564 225T618 322V467L467 442Q410 432 385 403ZM805 1155L668 1264L496 1356L324
1264L186 1155L90 1274L496 1567L901 1274L805 1155Z" />
<glyph unicode="&#xe3;" glyph-name="atilde" horiz-adv-x="1071" d="M594 61T525 21T358 -20Q219 -20 138 57T57 270Q57 510 328 553L618 600V659Q618 759 584 801T465 844Q428 844 381 833T299 805L285 723L287 635L133 629L102 975Q196 998 303 1014T477 1030Q680
1030 792 933T905 662V395Q905 332 912 256T924 158L1047 145L1034 -10Q1014 -8 922 -4T657 0L641 147Q594 61 525 21ZM410 432T385 403T360 315Q360 190 471 190Q524 190 564 225T618 322V467L467 442Q410 432 385 403ZM852 1419T822 1364T751 1263T672 1217Q643
1217 596 1229T504 1255Q383 1294 334 1294Q311 1294 290 1275T253 1235T233 1208L137 1266Q137 1270 168 1327T240 1432T320 1481Q369 1481 489 1442Q534 1428 581 1416T657 1403Q680 1403 700 1420T734 1456T752 1481L852 1423Q852 1419 822 1364Z" />
<glyph unicode="&#xe4;" glyph-name="adieresis" horiz-adv-x="1071" d="M594 61T525 21T358 -20Q219 -20 138 57T57 270Q57 510 328 553L618 600V659Q618 759 584 801T465 844Q428 844 381 833T299 805L285 723L287 635L133 629L102 975Q196 998 303 1014T477
1030Q680 1030 792 933T905 662V395Q905 332 912 256T924 158L1047 145L1034 -10Q1014 -8 922 -4T657 0L641 147Q594 61 525 21ZM410 432T385 403T360 315Q360 190 471 190Q524 190 564 225T618 322V467L467 442Q410 432 385 403ZM320 1485T355 1447T391 1341Q391
1275 356 1238T254 1200Q188 1200 152 1239T115 1341Q115 1407 151 1446T254 1485Q320 1485 355 1447ZM805 1485T841 1447T877 1341Q877 1275 841 1238T739 1200Q673 1200 638 1238T602 1341Q602 1407 638 1446T739 1485Q805 1485 841 1447Z" />
<glyph unicode="&#xe6;" glyph-name="ae" horiz-adv-x="1488" d="M186 1001T286 1015T459 1030Q652 1030 762 944Q879 1030 1059 1030Q1260 1030 1373 909T1487 571L1444 492L891 459Q901 301 959 234T1149 166Q1215 166 1270 181T1357 212T1397 233L1468 115Q1306
-30 1067 -31Q827 -31 707 158Q639 64 557 22T360 -20Q217 -20 128 59T39 270Q39 395 107 468T309 553L600 582V662Q600 766 562 815T446 864Q413 864 365 852T274 819L268 739V639L115 633L84 975Q186 1001 286 1015ZM903 868T893 602L1163 621L1165 637Q1165
756 1134 812T1036 868Q903 868 893 602ZM389 416T366 392T342 311Q342 248 368 219T453 190Q525 190 562 236T600 373V438L449 424Q389 416 366 392Z" />
<glyph unicode="&#xe7;" glyph-name="ccedilla" horiz-adv-x="954" d="M694 -123T751 -170T809 -299Q809 -391 745 -436T575 -481Q522 -481 465 -470T379 -444L416 -344Q488 -367 528 -367Q569 -367 597 -351T625 -299Q625 -264 603 -250T539 -236L496 -238L473
-209L492 -27Q275 -9 163 126T51 502Q51 748 185 889T553 1030Q633 1030 714 1019T848 997T915 981L885 618L711 625L713 735Q709 788 705 815Q678 840 641 854T571 868Q471 868 424 779T377 502Q377 168 623 168Q686 168 739 182T823 212T862 233L934 115Q866
56 786 19T621 -27L602 -121Q694 -123 751 -170Z" />
<glyph unicode="&#xe8;" glyph-name="egrave" horiz-adv-x="1019" d="M379 453Q389 297 450 232T635 166Q701 166 756 181T842 212T883 233L954 115Q792 -30 553 -31Q317 -31 184 107T51 496Q51 750 185 890T545 1030Q750 1030 862 912T975 582L973 532L930 453H379ZM651
635Q651 868 522 868Q448 868 416 800T379 604L649 618L651 635ZM461 1286T367 1329T234 1391L330 1546L754 1276L657 1157L520 1257Q461 1286 367 1329Z" />
<glyph unicode="&#xe9;" glyph-name="eacute" horiz-adv-x="1019" d="M379 453Q389 297 450 232T635 166Q701 166 756 181T842 212T883 233L954 115Q792 -30 553 -31Q317 -31 184 107T51 496Q51 750 185 890T545 1030Q750 1030 862 912T975 582L973 532L930 453H379ZM651
635Q651 868 522 868Q448 868 416 800T379 604L649 618L651 635ZM797 1372T703 1329T549 1257L412 1157L316 1276L739 1546L836 1391Q797 1372 703 1329Z" />
<glyph unicode="&#xea;" glyph-name="ecircumflex" horiz-adv-x="1019" d="M379 453Q389 297 450 232T635 166Q701 166 756 181T842 212T883 233L954 115Q792 -30 553 -31Q317 -31 184 107T51 496Q51 750 185 890T545 1030Q750 1030 862 912T975 582L973 532L930
453H379ZM651 635Q651 868 522 868Q448 868 416 800T379 604L649 618L651 635ZM844 1155L707 1264L535 1356L363 1264L225 1155L129 1274L535 1567L940 1274L844 1155Z" />
<glyph unicode="&#xeb;" glyph-name="edieresis" horiz-adv-x="1019" d="M379 453Q389 297 450 232T635 166Q701 166 756 181T842 212T883 233L954 115Q792 -30 553 -31Q317 -31 184 107T51 496Q51 750 185 890T545 1030Q750 1030 862 912T975 582L973 532L930
453H379ZM651 635Q651 868 522 868Q448 868 416 800T379 604L649 618L651 635ZM359 1485T394 1447T430 1341Q430 1275 395 1238T293 1200Q227 1200 191 1239T154 1341Q154 1407 190 1446T293 1485Q359 1485 394 1447ZM844 1485T880 1447T916 1341Q916 1275 880
1238T778 1200Q712 1200 677 1238T641 1341Q641 1407 677 1446T778 1485Q844 1485 880 1447Z" />
<glyph unicode="&#xf0;" glyph-name="eth" horiz-adv-x="1056" d="M922 1161T994 956T1067 516Q1067 264 931 117T549 -31Q305 -31 174 109T43 498Q43 643 98 754T255 927T487 989Q542 989 586 975T655 942L631 799Q582 811 549 811Q445 811 408 719T371 483Q371
340 407 249T549 158Q742 158 741 571Q741 759 710 921T594 1214L381 1106L315 1219L510 1321Q438 1399 332 1456L383 1577Q549 1524 684 1409L903 1524L969 1407L784 1313Q922 1161 994 956Z" />
<glyph unicode="&#xf1;" glyph-name="ntilde" horiz-adv-x="1302" d="M1278 -10Q1253 -8 1155 -4T911 0Q852 0 801 -4T735 -10L725 133L840 158L846 248L850 334V637Q850 721 812 773T698 825Q616 825 556 750T496 543V395Q496 332 503 256T514 158L647 145L637
-10Q612 -8 514 -4T270 0Q211 0 148 -4T66 -10L55 133L190 158Q192 181 200 244T209 334V666Q209 691 201 756T188 844L35 879L53 1030Q78 1026 159 1019T293 1012L391 1016L434 977L455 831Q521 927 602 978T795 1030Q963 1030 1050 937T1137 666V395Q1137 332
1144 256T1155 158L1288 145L1278 -10ZM1012 1419T982 1364T911 1263T832 1217Q803 1217 756 1229T664 1255Q543 1294 494 1294Q471 1294 450 1275T413 1235T393 1208L297 1266Q297 1270 328 1327T400 1432T480 1481Q529 1481 649 1442Q694 1428 741 1416T817 1403Q840
1403 860 1420T894 1456T912 1481L1012 1423Q1012 1419 982 1364Z" />
<glyph unicode="&#xf2;" glyph-name="ograve" horiz-adv-x="1114" d="M1063 244T932 107T557 -31Q313 -31 182 106T51 500Q51 756 182 893T557 1030Q801 1030 932 893T1063 500Q1063 244 932 107ZM737 688T695 772T557 856Q461 856 419 772T377 500Q377 312 419
228T557 143Q653 143 695 227T737 500Q737 688 695 772ZM483 1286T389 1329T256 1391L352 1546L776 1276L679 1157L542 1257Q483 1286 389 1329Z" />
<glyph unicode="&#xf3;" glyph-name="oacute" horiz-adv-x="1114" d="M1063 244T932 107T557 -31Q313 -31 182 106T51 500Q51 756 182 893T557 1030Q801 1030 932 893T1063 500Q1063 244 932 107ZM737 688T695 772T557 856Q461 856 419 772T377 500Q377 312 419
228T557 143Q653 143 695 227T737 500Q737 688 695 772ZM819 1372T725 1329T571 1257L434 1157L338 1276L761 1546L858 1391Q819 1372 725 1329Z" />
<glyph unicode="&#xf4;" glyph-name="ocircumflex" horiz-adv-x="1114" d="M1063 244T932 107T557 -31Q313 -31 182 106T51 500Q51 756 182 893T557 1030Q801 1030 932 893T1063 500Q1063 244 932 107ZM737 688T695 772T557 856Q461 856 419 772T377 500Q377 312
419 228T557 143Q653 143 695 227T737 500Q737 688 695 772ZM866 1155L729 1264L557 1356L385 1264L247 1155L151 1274L557 1567L962 1274L866 1155Z" />
<glyph unicode="&#xf5;" glyph-name="otilde" horiz-adv-x="1114" d="M1063 244T932 107T557 -31Q313 -31 182 106T51 500Q51 756 182 893T557 1030Q801 1030 932 893T1063 500Q1063 244 932 107ZM737 688T695 772T557 856Q461 856 419 772T377 500Q377 312 419
228T557 143Q653 143 695 227T737 500Q737 688 695 772ZM913 1419T883 1364T812 1263T733 1217Q704 1217 657 1229T565 1255Q444 1294 395 1294Q372 1294 351 1275T314 1235T294 1208L198 1266Q198 1270 229 1327T301 1432T381 1481Q430 1481 550 1442Q595 1428
642 1416T718 1403Q741 1403 761 1420T795 1456T813 1481L913 1423Q913 1419 883 1364Z" />
<glyph unicode="&#xf6;" glyph-name="odieresis" horiz-adv-x="1114" d="M1063 244T932 107T557 -31Q313 -31 182 106T51 500Q51 756 182 893T557 1030Q801 1030 932 893T1063 500Q1063 244 932 107ZM737 688T695 772T557 856Q461 856 419 772T377 500Q377 312
419 228T557 143Q653 143 695 227T737 500Q737 688 695 772ZM381 1485T416 1447T452 1341Q452 1275 417 1238T315 1200Q249 1200 213 1239T176 1341Q176 1407 212 1446T315 1485Q381 1485 416 1447ZM866 1485T902 1447T938 1341Q938 1275 902 1238T800 1200Q734
1200 699 1238T663 1341Q663 1407 699 1446T800 1485Q866 1485 902 1447Z" />
<glyph unicode="&#xf7;" glyph-name="divide" horiz-adv-x="1210" d="M532 1057T493 1012T453 893Q453 819 492 775T604 731Q676 731 716 775T756 893Q756 969 716 1013T604 1057Q532 1057 493 1012ZM139 631V416L1071 426V631H139ZM532 313T493 268T453 150Q453
76 492 32T604 -12Q676 -12 716 32T756 150Q756 226 716 269T604 313Q532 313 493 268Z" />
<glyph unicode="&#xf8;" glyph-name="oslash" horiz-adv-x="1089" d="M1051 811T1051 500Q1051 244 920 107T545 -31Q443 -31 356 -6L252 -203L135 -143L238 49Q39 184 39 500Q39 756 170 893T545 1030Q651 1030 741 1001L860 1225L981 1165L862 942Q1051 811
1051 500ZM365 385T379 315L647 821Q610 856 545 856Q449 856 407 772T365 500Q365 385 379 315ZM641 143T683 227T725 500Q725 596 713 666L451 172Q486 143 545 143Q641 143 683 227Z" />
<glyph unicode="&#xf9;" glyph-name="ugrave" horiz-adv-x="1273" d="M674 1026T755 1019T889 1012L1069 1016L1112 977Q1108 934 1100 801T1092 604V395Q1092 332 1099 256T1110 158L1233 145L1221 -10Q1201 -8 1109 -4T844 0L825 160Q766 78 695 35T528 -8Q350
-8 259 85T168 356V666Q168 693 160 760T147 850L35 879L53 1030Q78 1026 153 1019T283 1012L432 1016L475 977Q471 934 463 801T455 604V385Q455 299 491 248T604 197Q686 197 745 272T805 479V666Q805 693 797 757T784 844L631 879L649 1030Q674 1026 755 1019ZM543
1286T449 1329T316 1391L412 1546L836 1276L739 1157L602 1257Q543 1286 449 1329Z" />
<glyph unicode="&#xfa;" glyph-name="uacute" horiz-adv-x="1273" d="M674 1026T755 1019T889 1012L1069 1016L1112 977Q1108 934 1100 801T1092 604V395Q1092 332 1099 256T1110 158L1233 145L1221 -10Q1201 -8 1109 -4T844 0L825 160Q766 78 695 35T528 -8Q350
-8 259 85T168 356V666Q168 693 160 760T147 850L35 879L53 1030Q78 1026 153 1019T283 1012L432 1016L475 977Q471 934 463 801T455 604V385Q455 299 491 248T604 197Q686 197 745 272T805 479V666Q805 693 797 757T784 844L631 879L649 1030Q674 1026 755 1019ZM879
1372T785 1329T631 1257L494 1157L398 1276L821 1546L918 1391Q879 1372 785 1329Z" />
<glyph unicode="&#xfb;" glyph-name="ucircumflex" horiz-adv-x="1273" d="M674 1026T755 1019T889 1012L1069 1016L1112 977Q1108 934 1100 801T1092 604V395Q1092 332 1099 256T1110 158L1233 145L1221 -10Q1201 -8 1109 -4T844 0L825 160Q766 78 695 35T528
-8Q350 -8 259 85T168 356V666Q168 693 160 760T147 850L35 879L53 1030Q78 1026 153 1019T283 1012L432 1016L475 977Q471 934 463 801T455 604V385Q455 299 491 248T604 197Q686 197 745 272T805 479V666Q805 693 797 757T784 844L631 879L649 1030Q674 1026
755 1019ZM926 1155L789 1264L617 1356L445 1264L307 1155L211 1274L617 1567L1022 1274L926 1155Z" />
<glyph unicode="&#xfc;" glyph-name="udieresis" horiz-adv-x="1273" d="M674 1026T755 1019T889 1012L1069 1016L1112 977Q1108 934 1100 801T1092 604V395Q1092 332 1099 256T1110 158L1233 145L1221 -10Q1201 -8 1109 -4T844 0L825 160Q766 78 695 35T528 -8Q350
-8 259 85T168 356V666Q168 693 160 760T147 850L35 879L53 1030Q78 1026 153 1019T283 1012L432 1016L475 977Q471 934 463 801T455 604V385Q455 299 491 248T604 197Q686 197 745 272T805 479V666Q805 693 797 757T784 844L631 879L649 1030Q674 1026 755 1019ZM441
1485T476 1447T512 1341Q512 1275 477 1238T375 1200Q309 1200 273 1239T236 1341Q236 1407 272 1446T375 1485Q441 1485 476 1447ZM926 1485T962 1447T998 1341Q998 1275 962 1238T860 1200Q794 1200 759 1238T723 1341Q723 1407 759 1446T860 1485Q926 1485 962
1447Z" />
<glyph unicode="&#xfd;" glyph-name="yacute" horiz-adv-x="1169" d="M750 758T757 799T766 866L676 877L688 1022Q706 1020 777 1016T932 1012Q989 1012 1061 1016T1155 1022L1163 877L1063 866Q1047 839 1020 777T977 672L530 -481L125 -455L147 -293L260 -297Q309
-297 350 -285Q389 -240 414 -170L477 0L223 666Q164 818 137 866L8 889L20 1030Q47 1026 134 1019T305 1012Q362 1012 438 1016T537 1022L545 877L459 866Q461 835 470 794T487 729L616 324L741 733Q750 758 757 799ZM848 1372T754 1329T600 1257L463 1157L367
1276L790 1546L887 1391Q848 1372 754 1329Z" />
<glyph unicode="&#xfe;" glyph-name="thorn" horiz-adv-x="1132" d="M41 1563T118 1556T258 1548L438 1552L481 1513L461 1237V887Q580 1030 752 1030Q938 1030 1039 897T1141 520Q1141 262 1007 121T627 -20Q557 -20 461 -10V-74Q461 -137 469 -217T481 -322L643
-334L633 -479Q608 -477 510 -473T266 -469Q207 -469 144 -473T61 -479L51 -346L154 -322Q158 -299 166 -231T174 -135V1202Q174 1229 166 1293T154 1380L0 1415L18 1567Q41 1563 118 1556ZM559 799T514 732T461 532V203Q547 174 602 174Q715 174 765 250T815 494Q815
650 773 724T641 799Q559 799 514 732Z" />
<glyph unicode="&#xff;" glyph-name="ydieresis" horiz-adv-x="1169" d="M750 758T757 799T766 866L676 877L688 1022Q706 1020 777 1016T932 1012Q989 1012 1061 1016T1155 1022L1163 877L1063 866Q1047 839 1020 777T977 672L530 -481L125 -455L147 -293L260
-297Q309 -297 350 -285Q389 -240 414 -170L477 0L223 666Q164 818 137 866L8 889L20 1030Q47 1026 134 1019T305 1012Q362 1012 438 1016T537 1022L545 877L459 866Q461 835 470 794T487 729L616 324L741 733Q750 758 757 799ZM410 1485T445 1447T481 1341Q481
1275 446 1238T344 1200Q278 1200 242 1239T205 1341Q205 1407 241 1446T344 1485Q410 1485 445 1447ZM895 1485T931 1447T967 1341Q967 1275 931 1238T829 1200Q763 1200 728 1238T692 1341Q692 1407 728 1446T829 1485Q895 1485 931 1447Z" />
<glyph unicode="&#x2013;" glyph-name="endash" horiz-adv-x="1032" d="M1022 422H4L0 616H1032L1022 422Z" />
<glyph unicode="&#x2014;" glyph-name="emdash" horiz-adv-x="2060" d="M2050 422H4L0 616H2060L2050 422Z" />
<glyph unicode="&#x2018;" glyph-name="quoteleft" horiz-adv-x="468" d="M266 1425T302 1459T389 1518L371 1577Q279 1569 211 1521T109 1401T74 1255Q74 1169 117 1111T238 1053Q308 1053 353 1104T399 1225Q399 1288 358 1329T254 1370Q266 1425 302 1459Z" />
<glyph unicode="&#x2019;" glyph-name="quoteright" horiz-adv-x="468" d="M203 1204T167 1171T80 1112L98 1053Q190 1061 258 1109T360 1228T395 1374Q395 1460 352 1518T231 1577Q161 1577 116 1526T70 1405Q70 1342 111 1301T215 1260Q203 1204 167 1171Z" />
<glyph unicode="&#x201a;" glyph-name="quotesinglbase" horiz-adv-x="448" d="M189 -123T153 -156T66 -215L84 -274Q176 -266 244 -218T346 -99T381 47Q381 133 338 191T217 250Q147 250 102 199T56 78Q56 15 97 -26T201 -67Q189 -123 153 -156Z" />
<glyph unicode="&#x201c;" glyph-name="quotedblleft" horiz-adv-x="878" d="M266 1425T302 1459T389 1518L371 1577Q279 1569 211 1521T109 1401T74 1255Q74 1169 117 1111T238 1053Q308 1053 353 1104T399 1225Q399 1288 358 1329T254 1370Q266 1425 302 1459ZM676
1425T712 1459T799 1518L781 1577Q689 1569 621 1521T519 1401T484 1255Q484 1169 527 1111T648 1053Q718 1053 763 1104T809 1225Q809 1288 768 1329T664 1370Q676 1425 712 1459Z" />
<glyph unicode="&#x201d;" glyph-name="quotedblright" horiz-adv-x="880" d="M203 1450T167 1417T80 1358L98 1299Q190 1307 258 1355T360 1474T395 1620Q395 1706 352 1764T231 1823Q161 1823 116 1772T70 1651Q70 1588 111 1547T215 1506Q203 1450 167 1417ZM615
1194T579 1161T492 1102L510 1043Q602 1051 670 1099T772 1218T807 1364Q807 1450 764 1508T643 1567Q573 1567 528 1516T482 1395Q482 1332 523 1291T627 1250Q615 1194 579 1161Z" />
<glyph unicode="&#x201e;" glyph-name="quotedblbase" horiz-adv-x="880" d="M203 -123T167 -156T80 -215L98 -274Q190 -266 258 -218T360 -99T395 47Q395 133 352 191T231 250Q161 250 116 199T70 78Q70 15 111 -26T215 -67Q203 -123 167 -156ZM615 -123T579
-156T492 -215L510 -274Q602 -266 670 -218T772 -99T807 47Q807 133 764 191T643 250Q573 250 528 199T482 78Q482 15 523 -26T627 -67Q615 -123 579 -156Z" />
<glyph unicode="&#x2022;" glyph-name="bullet" horiz-adv-x="471" d="M143 727T92 670T41 518Q41 424 92 368T236 311Q328 311 379 367T430 518Q430 616 378 671T236 727Q143 727 92 670Z" />
<glyph unicode="&#x2039;" glyph-name="guilsinglleft" horiz-adv-x="552" d="M492 113L354 20L41 496L354 971L492 879L276 496L492 113Z" />
<glyph unicode="&#x203a;" glyph-name="guilsinglright" horiz-adv-x="552" d="M199 20L61 113L276 496L61 879L199 971L512 496L199 20Z" />
</font>
</defs>
</svg>
