<?xml version="1.0" standalone="no"?>
<!DOCTYPE svg PUBLIC "-//W3C//DTD SVG 1.1//EN" "http://www.w3.org/Graphics/SVG/1.1/DTD/svg11.dtd">
<svg xmlns="http://www.w3.org/2000/svg">
<defs >
<font id="Oldenburg" horiz-adv-x="1299" ><font-face
    font-family="Oldenburg"
    units-per-em="2048"
    panose-1="2 0 0 0 0 0 0 0 0 0"
    ascent="2020"
    descent="-540"
    alphabetic="0" />
<glyph unicode=" " glyph-name="space" horiz-adv-x="856" />
<glyph unicode="!" glyph-name="exclam" horiz-adv-x="512" d="M192 -15T154 23T116 122T152 222T254 261T357 224T395 126T357 25T255 -15ZM360 1491L349 1236V887Q349 775 355 715T361 632T351 588T326 554Q297 527 253 527T180 558T150 622T152 674L158 718Q167
784 167 887V1236Q167 1344 159 1391T150 1479T178 1547T252 1575T329 1551T360 1491Z" />
<glyph unicode="&quot;" glyph-name="quotedbl" horiz-adv-x="855" d="M263 971Q194 971 194 1072Q194 1216 182 1293L165 1403Q159 1436 159 1480T188 1559T266 1594T340 1559T366 1472T350 1326T333 1072Q333 1022 313 997T263 971ZM593 971Q524 971 524 1072Q524
1216 512 1293L495 1403Q489 1436 489 1480T518 1559T596 1594T670 1559T696 1472T680 1326T663 1072Q663 1022 643 997T593 971Z" />
<glyph unicode="#" glyph-name="numbersign" horiz-adv-x="1536" d="M727 882L589 881L533 674Q533 674 722 674Q796 674 824 675L878 881Q840 882 802 882H727ZM627 521L491 520Q456 389 446 346L394 123Q362 -15 274 -15Q186 -15 186 73Q186 120 211 182T248
278L272 344Q293 406 309 465L321 511Q286 508 217 508Q80 508 80 598Q80 641 120 664T228 688T365 680L415 872Q382 869 317 869Q180 869 180 959Q180 1002 220 1025T330 1049L460 1042L502 1203Q534 1328 554 1426T602 1559T674 1594Q761 1594 761 1501Q761 1465
736 1388L694 1259Q678 1206 668 1171L631 1035H819Q892 1035 918 1036L962 1203Q992 1313 1012 1418T1062 1559T1134 1594Q1221 1594 1221 1501Q1221 1465 1200 1400L1161 1282Q1144 1228 1128 1171L1093 1044Q1150 1049 1204 1049Q1354 1049 1354 967Q1354 900
1272 876Q1243 868 1198 868T1107 872L1047 875L995 683Q1050 688 1104 688Q1254 688 1254 606Q1254 539 1172 516Q1143 507 1098 507T1007 511L949 514L934 458Q908 366 854 124Q823 -15 735 -15T646 73Q646 120 671 182T708 278L732 344Q753 406 769 465L783
519Q705 521 627 521Z" />
<glyph unicode="$" glyph-name="dollar" horiz-adv-x="1369" d="M519 7Q487 -58 423 -58T343 25Q334 70 297 125L146 336Q86 421 78 449T69 502T87 550T139 572T204 550T273 460Q364 299 432 239Q530 152 751 152Q823 152 896 173Q1118 237 1118 445Q1118 630
890 740Q810 779 691 808Q451 867 345 967T238 1213T346 1457T662 1571V1852Q662 1905 682 1930T733 1956Q804 1956 804 1852V1575Q871 1573 903 1570V1572Q905 1604 926 1622T979 1640T1035 1618T1093 1531T1163 1418L1216 1352Q1260 1297 1260 1257Q1260 1174
1186 1174Q1127 1174 1069 1267T946 1393T774 1426Q591 1426 513 1365T435 1223T501 1081T739 976Q1041 900 1168 778Q1299 652 1299 470T1163 152T814 -9V-288Q814 -395 743 -395T672 -288V-14Q582 -10 519 7Z" />
<glyph unicode="%" glyph-name="percent" horiz-adv-x="1707" d="M1216 141Q1301 141 1342 186T1384 279Q1384 364 1342 409T1230 455T1118 410T1076 299T1121 188T1216 141ZM915 420T1005 508T1231 597T1454 515T1542 304T1448 87T1223 0T1004 84T915 294ZM326
1294Q326 1171 422 1131Q450 1119 483 1119Q551 1119 592 1164T634 1257Q634 1342 592 1387T480 1433T368 1388T326 1294ZM342 978T254 1062T165 1273T255 1487T480 1575T704 1493T792 1282T698 1065T473 978ZM264 87Q264 152 339 232Q462 363 539 480L1013 1184Q1045
1232 1080 1294L1153 1422Q1203 1508 1243 1541T1327 1575T1397 1552T1423 1506Q1423 1436 1363 1364T1284 1266L1243 1211Q1221 1181 943 774T643 332L518 128Q473 53 435 27Q375 0 367 0T357 0Q316 0 290 26T264 87Z" />
<glyph unicode="&amp;" glyph-name="ampersand" horiz-adv-x="1703" d="M943 261Q715 443 521 678Q362 565 330 458Q320 422 320 376Q320 279 397 212T581 145Q766 145 943 261ZM575 908Q759 1035 786 1142Q796 1179 796 1227Q796 1320 741 1367T617 1414Q508
1414 461 1358T413 1256Q413 1174 450 1097T575 908ZM1076 163Q847 -15 603 -15T232 108Q129 207 129 370T283 688Q339 744 420 804Q232 1049 232 1206T330 1469T602 1575T876 1484T978 1258Q978 1056 821 900Q763 843 678 782L712 743Q890 526 1088 376Q1229 511
1275 651Q1290 697 1290 737T1253 812T1216 888T1249 961T1344 992T1444 948T1483 838Q1483 714 1409 565T1213 289Q1338 211 1431 183T1554 132T1583 73Q1583 -15 1479 -15Q1337 -15 1076 163Z" />
<glyph unicode="&apos;" glyph-name="quotesingle" horiz-adv-x="512" d="M256 971Q187 971 187 1072Q187 1216 175 1293L158 1403Q152 1436 152 1480T181 1559T259 1594T333 1559T359 1472T343 1326T326 1072Q326 1022 306 997T256 971Z" />
<glyph unicode="(" glyph-name="parenleft" horiz-adv-x="856" d="M704 -224Q596 -224 468 -104Q150 189 150 675T468 1455Q596 1575 704 1575Q742 1575 765 1554T788 1501T773 1447T691 1393T554 1294Q333 1083 333 676Q333 410 434 222T712 -53Q788 -90 788
-150Q788 -181 765 -202T704 -224Z" />
<glyph unicode=")" glyph-name="parenright" horiz-adv-x="856" d="M152 -224Q260 -224 388 -104Q706 189 706 675T388 1455Q260 1575 152 1575Q114 1575 91 1554T68 1501T83 1447T165 1393T302 1294Q523 1083 523 676Q523 410 422 222T144 -53Q68 -90 68 -150Q68
-181 91 -202T152 -224Z" />
<glyph unicode="*" glyph-name="asterisk" horiz-adv-x="1196" d="M501 1195L480 1480Q480 1533 503 1563T567 1594T632 1564T657 1485T646 1351T633 1193Q722 1215 774 1243L848 1282Q910 1314 947 1314T1010 1292T1036 1237Q1036 1180 986 1157T833 1111T676
1068Q710 1016 755 970L826 895Q874 842 881 820T889 770T867 720T808 697Q738 697 658 844Q611 932 594 956L567 996Q524 938 492 879T439 784T400 729T367 704T325 697T274 717T249 764Q249 843 348 944L418 1018Q442 1043 462 1069Q414 1088 363 1099L289 1114Q139
1142 110 1195Q100 1212 100 1240T126 1290T198 1312T345 1262T501 1195Z" />
<glyph unicode="+" glyph-name="plus" horiz-adv-x="1192" d="M674 133T591 133T508 260V529H271Q144 529 144 610Q144 645 174 668T271 691H508V963Q508 1026 532 1056T591 1087Q674 1087 674 963V691H924Q981 691 1014 670T1048 610Q1048 529 924 529H674V260Q674
133 591 133Z" />
<glyph unicode="," glyph-name="comma" horiz-adv-x="512" d="M155 -318Q96 -318 96 -267Q96 -231 144 -198Q242 -130 242 -73Q242 -39 210 -5Q144 65 144 122T179 214T275 248T375 197T415 82Q415 -34 355 -151T200 -308Q174 -318 155 -318Z" />
<glyph unicode="-" glyph-name="hyphen" horiz-adv-x="1022" d="M704 571L511 577Q475 577 454 576L410 574Q359 571 318 571T251 597T224 659T251 721T321 747L511 740L701 747Q767 747 791 693Q798 677 798 650T772 597T704 571Z" />
<glyph unicode="." glyph-name="period" horiz-adv-x="512" d="M190 -15T151 24T111 128T148 232T254 272T362 233T401 131T361 27T256 -15Z" />
<glyph unicode="/" glyph-name="slash" horiz-adv-x="1024" d="M242 -182Q233 -163 233 -132T272 -4L312 97Q334 156 357 244L609 1203Q633 1293 652 1408T703 1559T778 1594T846 1569T871 1504T852 1409L818 1301Q802 1249 781 1171L493 103Q485 72 478 40L466
-24Q459 -58 448 -116Q427 -236 320 -236Q265 -236 242 -182Z" />
<glyph unicode="0" glyph-name="zero" horiz-adv-x="1531" d="M1183 764Q1183 1419 766 1419Q471 1419 380 1066Q349 943 349 770Q349 441 464 291T759 141T1052 288Q1183 458 1183 764ZM468 -15T317 191T166 764Q166 1368 516 1526Q628 1577 770 1577Q1051 1577
1208 1369T1365 782T1201 194T753 -15Z" />
<glyph unicode="1" glyph-name="one" horiz-adv-x="1020" d="M155 43T155 79T185 138T268 161H509V1295L449 1241Q396 1192 316 1092T172 992Q128 992 107 1017T86 1081Q86 1148 173 1214Q307 1307 452 1477L489 1518Q543 1575 594 1575T670 1541T695 1453V161H871Q941
161 970 137T999 80T974 24T891 0H860Q839 0 815 0L768 2Q745 2 731 2T672 4L635 6Q616 6 599 6T556 6L508 4Q448 3 433 3T392 2L339 0Q311 0 286 0H251Q206 0 181 21Z" />
<glyph unicode="2" glyph-name="two" horiz-adv-x="1707" d="M1204 1229T1094 1322T805 1416T523 1332T418 1115T535 982Q573 982 603 962T634 899T598 828T506 799Q395 799 317 890T238 1115Q238 1302 391 1438T811 1575T1234 1439T1390 1099T1238 705T720 265Q784
248 867 220Q1127 150 1189 149T1305 174T1383 246T1428 308T1484 325T1539 302T1561 240T1531 156T1447 71Q1327 -15 1191 -15T972 7T759 72T565 115T459 95T359 30T240 -15T154 32Q145 49 145 86T181 155T368 262T691 451T977 674Q1204 893 1204 1078Q1204 1229
1094 1322Z" />
<glyph unicode="3" glyph-name="three" horiz-adv-x="1704" d="M954 1388Q873 1377 769 1377T572 1381Q322 1392 294 1470Q289 1486 289 1512T318 1560T391 1582T523 1565T767 1547T968 1556T1073 1583T1168 1601T1226 1581T1249 1529T1236 1474T1181 1404L940
1142H943Q1170 1142 1336 1002T1503 607T1306 169T816 -15T362 129T200 464Q200 601 264 695T419 790Q468 790 496 766T524 699T502 633T446 590Q386 554 386 477Q386 333 512 238T812 143Q1032 143 1174 266T1317 595Q1317 872 1094 956Q1020 984 960 984T874
980T820 959T777 930T738 903T684 888T633 909T613 956Q613 1009 683 1085L954 1388Z" />
<glyph unicode="4" glyph-name="four" horiz-adv-x="1704" d="M1157 670L1422 690Q1533 690 1533 584Q1533 534 1450 508Q1424 500 1392 500T1322 502L1244 506Q1222 508 1201 508T1156 510V157H1298Q1425 157 1425 76Q1425 48 1401 24T1318 0L1072 6L759 0Q715
0 689 21T663 79T693 136T776 157H992V511H528L372 514H349Q326 514 306 508Q241 489 202 489T140 516T117 577T133 635T173 686T222 736T282 816Q367 950 432 1160T498 1552V1610Q498 1694 537 1742Q558 1767 600 1767Q697 1767 697 1645Q697 1415 594 1100Q533
912 474 811T375 668H993V742Q993 968 987 1088T981 1258T1011 1337T1080 1366T1146 1340T1174 1262T1166 1070T1157 735V670Z" />
<glyph unicode="5" glyph-name="five" horiz-adv-x="1704" d="M493 1436L486 1523Q486 1549 507 1571T567 1594T682 1567T818 1540Q978 1540 1048 1553T1146 1570T1222 1575T1300 1553T1329 1505Q1329 1413 1219 1394Q1084 1370 924 1370T657 1383L577 1115Q663
1164 854 1164Q1120 1164 1308 997T1497 581T1302 159T825 -15T366 128Q289 190 248 265T206 411Q206 600 332 600Q414 600 414 518Q414 500 403 474T392 404T427 312T522 226Q652 143 818 143Q1040 143 1176 257T1313 572T1178 897T830 1021T558 942Q515 878 467
878Q373 878 373 967Q373 988 380 1013L481 1367Q493 1404 493 1436Z" />
<glyph unicode="6" glyph-name="six" horiz-adv-x="1704" d="M291 275T239 409T186 688Q186 945 307 1143T624 1458T1028 1575Q1182 1575 1217 1508Q1227 1488 1227 1457T1196 1400T1127 1374T1068 1377L1025 1383Q986 1390 947 1390Q811 1390 678 1300T457 1059T370
746Q370 452 517 298T898 143Q1076 143 1206 269T1336 584T1223 876T939 981Q824 981 727 909Q696 886 674 852T632 802T584 785T536 803T516 865T552 958T647 1049Q780 1139 923 1139Q1197 1139 1357 986T1518 574Q1518 454 1469 347T1334 160Q1148 -15 862 -15T384
180Q291 275 239 409Z" />
<glyph unicode="7" glyph-name="seven" horiz-adv-x="1362" d="M149 1167Q62 1167 62 1238Q62 1271 70 1289T110 1346T191 1577Q206 1640 269 1640Q299 1640 319 1619T346 1572Q530 1547 882 1547Q1003 1547 1079 1572T1190 1597T1251 1577T1278 1510T1228 1421Q1156
1361 1002 1060Q778 617 678 254Q652 160 643 96T603 8T532 -15T464 14T436 84Q436 226 552 498Q688 806 750 930Q908 1233 998 1385Q921 1377 704 1377T314 1403Q288 1292 239 1230T149 1167Z" />
<glyph unicode="8" glyph-name="eight" horiz-adv-x="1531" d="M1189 468Q1189 710 755 806Q751 806 747 808Q550 799 446 704T341 477T460 248T764 150T1069 239T1189 468ZM786 966Q970 987 1024 1112Q1041 1151 1041 1198Q1041 1297 968 1354T760 1411T561 1356T497
1219Q497 1102 654 1016Q709 987 786 966ZM1012 898Q1376 756 1376 476Q1376 276 1206 131T747 -15T306 130T154 476Q154 619 248 738T498 905Q310 1021 310 1208Q310 1357 412 1456Q534 1575 767 1575T1114 1474T1228 1216T1094 951Q1055 920 1012 898Z" />
<glyph unicode="9" glyph-name="nine" horiz-adv-x="1704" d="M1118 777Q1189 777 1189 703Q1189 601 1057 512T782 422Q511 422 348 585T184 993T370 1406T842 1575T1323 1378T1519 848Q1519 617 1398 419T1081 103T676 -15Q521 -15 486 52Q476 71 476 102T508
160T577 187T663 178T739 168T800 169T900 195Q1117 274 1248 504Q1334 655 1334 816Q1334 1110 1186 1264T805 1419Q627 1419 494 1292T361 983T478 692T766 581Q881 581 977 652Q1008 675 1033 712T1076 763T1118 777Z" />
<glyph unicode=":" glyph-name="colon" horiz-adv-x="512" d="M190 -15T151 24T111 128T148 232T254 272T362 233T401 131T361 27T256 -15ZM190 625T151 664T111 768T148 872T254 912T362 873T401 771T361 667T256 625Z" />
<glyph unicode=";" glyph-name="semicolon" horiz-adv-x="512" d="M207 625T168 664T128 768T165 872T271 912T379 873T418 771T378 667T273 625ZM410 -318Q351 -318 351 -267Q351 -231 399 -198Q497 -130 497 -73Q497 -39 465 -5Q399 65 399 122T434 214T530
248T630 197T670 82Q670 -34 610 -151T455 -308Q429 -318 410 -318Z" />
<glyph unicode="&lt;" glyph-name="less" horiz-adv-x="1022" d="M208 527Q86 598 86 672Q86 723 104 752T205 828Q573 1041 624 1074T696 1132Q746 1192 790 1192T859 1170T884 1114T858 1044T720 938L536 829L272 679L675 446Q831 352 866 303Q884 277 884 244T860
189T800 166Q746 166 696 226Q669 259 524 344L208 527Z" />
<glyph unicode="=" glyph-name="equal" horiz-adv-x="1022" d="M963 427Q963 346 839 346H186Q59 346 59 427Q59 462 89 485T186 508H839Q896 508 929 487T963 427ZM963 786Q963 705 839 705H186Q59 705 59 786Q59 821 89 844T186 867H839Q896 867 929 846T963 786Z" />
<glyph unicode="&gt;" glyph-name="greater" horiz-adv-x="1022" d="M814 527Q936 598 936 672Q936 723 918 752T817 828Q449 1041 398 1074T326 1132Q276 1192 232 1192T163 1170T138 1114T164 1044T302 938L486 829L750 679L347 446Q191 352 156 303Q138 277
138 244T162 189T222 166Q276 166 326 226Q353 259 498 344L814 527Z" />
<glyph unicode="?" glyph-name="question" horiz-adv-x="851" d="M371 -15T333 23T295 122T331 222T433 261T536 224T574 126T536 25T434 -15ZM334 506T262 573T189 737T222 892Q277 990 365 1068T484 1200T516 1311T491 1395T424 1424T360 1408T318 1352T280
1296T227 1279T171 1303T150 1367Q150 1451 229 1513T427 1575T623 1503T701 1318Q701 1166 549 1024Q427 909 398 858T369 758Q369 655 454 655Q507 655 535 692T579 742T620 754T664 737T683 684Q683 615 606 561T432 506Z" />
<glyph unicode="@" glyph-name="at" horiz-adv-x="2218" d="M1074 302Q1218 302 1306 433V793Q1249 859 1134 886Q1100 894 1056 894Q957 894 887 816T816 602T888 384T1074 302ZM1345 286Q1252 148 1030 148Q960 148 884 180T753 271Q641 393 641 592T756 923T1052
1054T1344 955Q1396 1054 1486 1054Q1549 1054 1570 1004Q1576 991 1576 971Q1576 929 1529 898Q1498 875 1489 841T1480 699V455Q1480 370 1529 332T1635 293Q1755 293 1832 401T1909 725T1796 1104Q1640 1329 1329 1392Q1233 1412 1122 1412Q896 1412 709 1308T416
1021T310 639Q310 270 509 60T987 -151Q1023 -151 1060 -136T1131 -120Q1193 -120 1211 -183Q1216 -200 1216 -218Q1216 -261 1167 -300T1010 -339Q783 -339 580 -225T254 106T130 600T258 1098T619 1446T1150 1575Q1550 1575 1819 1335T2088 732Q2088 477 1955
313T1619 148T1345 286Z" />
<glyph unicode="A" glyph-name="A" horiz-adv-x="1704" d="M521 611Q742 441 768 415L804 378Q835 349 856 349T893 359T931 393T982 440L1205 612L932 1201Q905 1260 890 1290T862 1320T837 1299T804 1232L521 611ZM177 8L29 0Q-49 0 -49 63Q-49 104 16 154Q132
246 232 440L580 1140L704 1403Q748 1500 779 1537T860 1575T942 1542T1023 1408L1242 940Q1523 382 1541 349L1578 282Q1622 205 1639 189T1674 162Q1753 115 1753 78Q1753 0 1675 0L1524 7L1321 0Q1270 0 1241 20T1212 80Q1212 162 1394 162Q1405 162 1416 162T1438
163Q1411 202 1382 262L1280 470L1092 324Q1000 253 955 199T873 144T815 162T776 200L734 248Q716 269 686 293L532 408Q485 442 436 481L289 157H319Q417 157 461 140T505 73Q505 -1 403 -1L177 8Z" />
<glyph unicode="B" glyph-name="B" horiz-adv-x="1534" d="M492 145Q517 142 549 140L614 138Q668 135 774 135Q1268 135 1268 493Q1268 639 1158 715T863 791H492V145ZM771 939Q1019 939 1068 1075Q1084 1119 1084 1168Q1084 1255 1016 1319T836 1394T626 1406T492
1403V939H771ZM1121 887Q1461 830 1461 473Q1461 382 1420 290T1292 130Q1106 -15 744 -15Q706 -15 660 -12L467 -2Q429 0 391 0L195 -13Q72 -13 72 77T218 168Q261 168 307 164V1384L275 1380Q200 1367 151 1367T70 1390T39 1453Q39 1527 160 1544Q248 1555 533
1555T914 1539Q1091 1510 1186 1413T1281 1178T1193 942Q1163 909 1121 887Z" />
<glyph unicode="C" glyph-name="C" horiz-adv-x="1534" d="M1112 5Q997 -15 900 -15Q539 -15 314 198T88 772T311 1344T903 1555Q1041 1555 1154 1520Q1148 1535 1148 1557T1173 1600T1228 1621T1283 1593T1343 1485T1442 1337L1478 1295Q1524 1242 1524 1200Q1524
1110 1449 1110Q1387 1110 1327 1210T1142 1358T887 1407Q615 1407 449 1241T282 778T455 312T872 143T1216 245Q1267 299 1287 334L1320 393Q1365 479 1410 490Q1425 494 1451 494T1501 467T1525 402Q1525 338 1444 250T1334 105T1299 -15Q1291 -100 1207 -100Q1170
-100 1141 -72T1112 -5Q1112 0 1112 5Z" />
<glyph unicode="D" glyph-name="D" horiz-adv-x="1534" d="M541 1401Q515 1401 483 1399V143Q540 140 648 140T854 163T1010 219Q1138 289 1217 431T1297 778Q1297 1154 1049 1295Q863 1401 541 1401ZM298 1383L182 1367Q51 1367 51 1449Q51 1504 112 1529T353
1555H545Q1280 1555 1440 1116Q1492 975 1492 821Q1492 542 1363 342T1038 64T606 -15L395 0Q336 0 287 -6T199 -13Q76 -13 76 77T222 168H264Q281 168 298 166V1383Z" />
<glyph unicode="E" glyph-name="E" horiz-adv-x="1364" d="M1272 377Q1343 377 1343 304Q1343 269 1315 233Q1247 144 1212 38L1200 0Q1188 -44 1183 -75T1156 -123T1105 -139T1052 -112T1028 -64V-36Q1028 -31 1029 -26Q908 -5 764 -5Q612 0 504 0T304 -8T174
-16Q86 -16 86 66Q86 123 180 144Q212 151 257 151H340V1387H301Q110 1387 110 1479Q110 1555 249 1555L697 1541Q877 1541 1001 1563Q996 1579 996 1597T1015 1634T1070 1653Q1160 1653 1273 1344Q1294 1286 1294 1256Q1294 1187 1232 1187Q1177 1187 1140 1294Q1117
1360 1067 1386T938 1413H913Q861 1413 791 1407T680 1398L597 1392Q556 1389 526 1387V947Q766 947 800 953T850 973T872 1025T904 1082T955 1101T1000 1086T1020 1043T1002 967T984 872T1002 777L1028 705Q1038 680 1038 650T1016 601T960 583Q895 583 880 667T845
775T777 800H526V151Q569 150 612 148L701 144Q728 142 763 141T847 138T962 136T1061 158T1143 253T1217 352T1272 377Z" />
<glyph unicode="F" glyph-name="F" horiz-adv-x="1194" d="M429 0L229 -6Q184 -6 158 15T132 73T162 132T244 155H311V1387H272Q185 1387 148 1413T111 1479Q111 1555 250 1555L710 1541Q852 1541 972 1563Q967 1579 967 1597T986 1634T1041 1653Q1131 1653 1244
1344Q1265 1286 1265 1256Q1265 1187 1203 1187Q1148 1187 1111 1294Q1088 1360 1038 1386T909 1413H886Q873 1413 848 1412L790 1408Q772 1407 736 1404T656 1398L497 1387V882Q752 882 784 889T832 910T854 962Q867 1036 942 1036Q963 1036 982 1022T1002 981T984
904T966 806T984 713L1010 642Q1020 617 1020 587T997 538T942 519Q878 519 862 603T827 712T759 736H497V155H658Q728 155 756 131T785 81Q785 -6 679 -6H655Q641 -6 626 -6L595 -4Q580 -4 565 -4T506 -2L466 0Q446 0 429 0Z" />
<glyph unicode="G" glyph-name="G" horiz-adv-x="1530" d="M1134 883L1343 894Q1464 894 1483 816Q1489 791 1489 761V448Q1489 321 1452 261T1314 121Q1213 37 1004 -1Q927 -15 804 -15T544 35T306 183Q88 392 88 756T307 1337T883 1555Q1036 1555 1131 1538Q1130
1543 1130 1546V1552Q1132 1584 1152 1602T1201 1621T1258 1594T1315 1505T1368 1412L1448 1307Q1494 1248 1494 1211T1475 1150T1422 1127T1363 1145T1304 1216Q1243 1317 1139 1359T890 1401Q615 1401 449 1231T283 764T441 307T844 148Q1009 148 1139 200Q1197
224 1240 265T1299 340T1316 490V686Q1316 700 1306 712T1268 725Q1164 725 1077 719T931 712T848 737T822 799Q822 888 969 888Q999 888 1020 887L1056 885Q1100 883 1134 883Z" />
<glyph unicode="H" glyph-name="H" horiz-adv-x="1704" d="M408 6L208 0Q163 0 137 21T111 79T141 138T225 161H307V1394H225Q172 1394 142 1416T111 1474T137 1532T208 1555L408 1548L595 1555Q675 1555 696 1506Q702 1492 702 1477Q702 1394 574 1394H493V996H1211V1394H1117Q1066
1394 1035 1416T1004 1474T1030 1532T1102 1555L1301 1548L1486 1555Q1567 1555 1586 1506Q1592 1492 1592 1477Q1592 1394 1468 1394H1396V161H1468Q1537 161 1564 137T1592 87Q1592 0 1486 0L1301 6L1102 0Q1056 0 1030 21T1004 79T1035 138T1117 161H1211V849H493V161H574Q644
161 673 137T702 87Q702 0 595 0L408 6Z" />
<glyph unicode="I" glyph-name="I" horiz-adv-x="850" d="M426 6L236 0Q191 0 165 21T139 79T169 138T251 161H336V1394H251Q200 1394 170 1416T139 1474T165 1532T236 1555L426 1548L601 1555Q683 1555 702 1506Q708 1492 708 1477Q708 1394 582 1394H522V161H582Q652
161 680 137T708 87Q708 0 601 0L426 6Z" />
<glyph unicode="J" glyph-name="J" horiz-adv-x="1366" d="M348 1224Q266 1224 266 1298Q266 1335 322 1408T395 1536T433 1605T486 1619T537 1596T559 1541H787Q876 1541 957 1548T1070 1555Q1211 1555 1211 1429Q1211 1415 1205 1325T1199 1081V685Q1199 443
1145 313Q1044 77 784 8Q700 -15 592 -15T392 24T238 127Q113 256 113 426T219 722T488 849Q572 849 618 816T664 731T633 650T561 620T496 636T444 652Q380 652 339 592T298 455Q298 314 386 230T610 146Q834 146 939 306Q1001 399 1008 530Q1013 606 1013 696V1384Q688
1381 619 1367T512 1336T430 1272T348 1224Z" />
<glyph unicode="K" glyph-name="K" horiz-adv-x="1534" d="M1590 87Q1590 0 1490 0Q1442 0 1399 3T1303 6L1211 3Q1161 0 1120 0T1052 21T1026 79T1056 138T1138 161H1211Q1114 466 793 831Q669 747 530 674V161H600Q670 161 698 137T726 87Q726 0 619 0L434 6L234
0Q189 0 163 21T137 79T167 138T249 161H344V1394H249Q198 1394 168 1416T137 1474T163 1532T234 1555L434 1548L619 1555Q701 1555 720 1506Q726 1492 726 1477Q726 1394 600 1394H530V837Q748 959 1026 1214Q1157 1334 1227 1420T1329 1530T1396 1555T1456 1536T1482
1482T1467 1418T1409 1346Q1288 1226 1217 1162L1079 1043Q1011 987 936 931Q1276 574 1408 161H1464Q1534 161 1562 137T1590 87Z" />
<glyph unicode="L" glyph-name="L" horiz-adv-x="1364" d="M1022 -9Q901 16 668 16T334 8T216 0Q127 0 127 82Q127 139 221 160Q253 167 298 167H381V1394H280Q229 1394 199 1416T168 1474T194 1532T265 1555L475 1548L672 1555Q752 1555 773 1506Q779 1492 779
1477Q779 1394 652 1394H567V164Q819 148 902 148T1008 158Q1067 182 1129 293T1222 432T1286 459Q1353 459 1362 382Q1363 378 1363 360T1321 285T1241 139T1189 -13Q1164 -123 1103 -123Q1068 -123 1045 -97T1021 -29Q1021 -24 1021 -19T1022 -9Z" />
<glyph unicode="M" glyph-name="M" horiz-adv-x="2212" d="M2030 1379L1954 1382Q1939 1382 1927 1380V161H2016Q2068 161 2098 138T2129 79T2103 22T2032 0L1833 6L1646 0Q1565 0 1546 48Q1540 62 1540 87T1567 136T1665 161H1748V1087Q1748 1204 1756 1296L1210
231Q1171 139 1113 139Q1072 139 1052 158T1004 230L452 1282Q461 1176 461 1018V161H542Q611 161 639 137T668 87Q668 0 561 0L374 6L174 0Q130 0 105 21T79 79T109 138T191 161H280V1378L256 1379L176 1376Q152 1376 127 1380Q61 1390 61 1458Q61 1553 184 1553H214Q427
1553 506 1486Q546 1453 594 1360L1106 398L1581 1324Q1656 1474 1774 1518Q1854 1548 1926 1550T2044 1553Q2146 1553 2146 1462Q2146 1393 2088 1384Q2058 1379 2030 1379Z" />
<glyph unicode="N" glyph-name="N" horiz-adv-x="1835" d="M432 6L232 0Q188 0 163 21T137 79T167 138T249 161H345V1398L260 1390Q252 1390 245 1390Q184 1390 152 1413T119 1476Q119 1555 252 1555Q442 1555 513 1522T625 1435T698 1333L1345 300Q1338 405 1338
473V1394H1244Q1193 1394 1162 1416T1131 1474T1157 1532T1228 1555L1428 1548L1614 1555Q1695 1555 1714 1506Q1720 1492 1720 1477Q1720 1394 1595 1394H1522V162H1574Q1704 162 1704 78Q1704 0 1574 0H1486Q1418 0 1367 31T1286 105L520 1301Q529 1206 529 1090V161H600Q669
161 697 137T726 87Q726 0 619 0L432 6Z" />
<glyph unicode="O" glyph-name="O" horiz-adv-x="1706" d="M259 501T419 327T844 152T1277 318T1445 775T1279 1226T853 1388T427 1210T259 766ZM185 307T131 448T76 731Q76 985 182 1168T468 1453T862 1555Q1015 1555 1154 1503T1400 1353T1570 1114T1633 796Q1633
437 1419 211T852 -15T285 204Q185 307 131 448Z" />
<glyph unicode="P" glyph-name="P" horiz-adv-x="1536" d="M624 1397Q563 1397 527 1395V666Q627 661 696 661Q867 661 995 691T1203 809T1283 1061Q1283 1298 989 1371Q878 1397 624 1397ZM441 6L231 0Q186 0 160 21T134 79T164 138T246 161H341V1387Q267 1383
202 1383Q74 1383 74 1468Q74 1522 151 1546Q178 1555 217 1555H551Q824 1555 889 1548T1031 1529T1199 1472T1352 1366Q1480 1240 1480 1079T1432 811T1282 636Q1082 502 631 502Q605 502 579 502T527 503V161H618Q688 161 716 137T745 87Q745 0 638 0L441 6Z"
/>
<glyph unicode="Q" glyph-name="Q" horiz-adv-x="1745" d="M1754 78Q1754 -15 1642 -15Q1533 -15 1438 56Q1395 87 1347 132Q1150 -15 858 -15Q517 -15 303 204Q203 307 149 448T94 731Q94 985 200 1168T486 1453T880 1555Q1033 1555 1172 1503T1418 1353T1588
1114T1651 796Q1651 456 1460 237Q1538 154 1612 150Q1754 142 1754 78ZM277 501T437 327T868 152Q1078 152 1227 260Q1049 455 952 486Q922 496 867 498T786 524T761 582Q761 625 792 645T846 665Q972 665 1075 609T1312 404L1341 371Q1463 527 1463 758Q1463
1065 1297 1226T871 1388T445 1210T277 766Z" />
<glyph unicode="R" glyph-name="R" horiz-adv-x="1532" d="M1278 1027Q1278 1298 1018 1368Q895 1400 644 1400Q558 1400 522 1398V663H718Q1161 663 1249 870Q1278 938 1278 1027ZM611 0L426 6Q389 6 368 5L324 3Q286 0 244 0T175 21T149 79T179 138T261 161H341V1382Q266
1367 224 1367T150 1389T119 1440Q119 1529 222 1542T527 1555T821 1550Q1325 1526 1438 1217Q1467 1136 1467 1038Q1467 842 1350 709T1015 534Q1112 374 1175 311Q1293 193 1405 170T1534 99Q1539 83 1539 57T1513 8T1439 -15Q1333 -15 1252 33Q1107 119 1018
223T837 515H522V161H592Q662 161 690 137T718 87Q718 0 611 0Z" />
<glyph unicode="S" glyph-name="S" horiz-adv-x="1366" d="M835 1569Q833 1580 833 1600T855 1640T905 1659T960 1633T1024 1532T1103 1403L1160 1332Q1204 1277 1204 1237Q1204 1154 1130 1154Q1071 1154 1012 1249T913 1375T819 1406Q492 1406 402 1220Q389
1195 389 1163Q389 1089 452 1048T680 991Q1004 960 1147 847Q1293 730 1293 520Q1293 368 1207 244T992 57Q845 -15 636 -15Q580 -15 528 -8Q509 -56 488 -77T433 -98Q349 -98 342 -18T268 158L140 336Q80 421 72 449T63 502T81 550T133 572T198 550T267 460Q358
299 426 239Q524 152 735 152Q807 152 883 179T1009 252Q1112 347 1112 499T993 727T606 829Q192 871 192 1140Q192 1248 296 1352Q475 1531 835 1569Z" />
<glyph unicode="T" glyph-name="T" horiz-adv-x="1190" d="M142 1558Q301 1530 592 1530T1023 1558V1568Q1023 1600 1045 1618T1098 1636T1146 1618T1168 1576Q1177 1524 1198 1464L1215 1415Q1225 1389 1238 1360T1251 1296T1231 1243T1180 1224Q1124 1224 1100
1291T1042 1380T926 1402H902L674 1386V161H798Q867 161 894 137T922 80T898 24T816 0H794Q780 0 765 0T735 1T687 4T585 6T475 4T420 2L390 0Q375 0 362 0H339Q294 0 268 21T241 79T272 138T354 161H488V1388L378 1396Q347 1398 327 1399T293 1401T267 1402T206
1403T124 1382T71 1309T33 1241T-15 1224T-65 1243T-86 1296T-73 1359T-50 1416L-33 1464Q-20 1503 -14 1527L-3 1574Q9 1636 62 1636T135 1598Q142 1585 142 1568V1558Z" />
<glyph unicode="U" glyph-name="U" horiz-adv-x="1532" d="M1539 1477Q1539 1394 1414 1394H1380V587Q1380 322 1204 154T774 -15T351 148T181 591V1394H127Q76 1394 45 1416T14 1474T40 1532T111 1555L293 1548L449 1555Q524 1555 532 1506Q535 1492 535 1464Q535
1394 430 1394H367V594Q367 373 484 258T782 143T1079 260T1195 594V1394H1111Q1018 1394 1018 1474T1095 1555H1112L1247 1548L1433 1555Q1514 1555 1534 1506Q1539 1492 1539 1477Z" />
<glyph unicode="V" glyph-name="V" horiz-adv-x="1530" d="M1475 1543Q1568 1543 1568 1471Q1568 1407 1498 1395Q1455 1387 1436 1368Q1395 1328 1312 1134Q922 213 900 156L866 71Q828 -24 772 -24Q725 -24 702 -4T663 61L484 505L219 1124Q140 1309 106 1348T30
1402T-26 1434T-41 1476T-17 1523T46 1545L188 1538Q221 1538 254 1541L374 1552Q400 1555 435 1555T499 1535T527 1474Q527 1384 358 1384H316L749 275Q760 250 771 258T786 275L1219 1383Q1205 1382 1193 1382H1168Q1077 1382 1038 1409T999 1474T1028 1533T1093
1555T1153 1552T1204 1546T1261 1540T1338 1536L1475 1543Z" />
<glyph unicode="W" glyph-name="W" horiz-adv-x="2390" d="M2204 1536L2355 1543Q2393 1543 2412 1522T2432 1475T2420 1434T2391 1406T2356 1382T2304 1339T2230 1236T2123 966Q1851 182 1826 104T1777 5T1714 -15T1651 5T1613 72T1588 159L1560 246Q1544 294
1521 356L1465 505L1206 1151Q1200 1166 1194 1166T1183 1154L773 79Q737 -16 677 -16Q628 -16 603 4T561 86Q517 239 501 292L429 505L267 966Q172 1243 108 1315Q67 1362 42 1377T0 1406Q-43 1436 -43 1468T-23 1521T36 1543L187 1536Q221 1536 254 1539L319
1545Q348 1548 377 1551T443 1555T503 1534T527 1472Q527 1382 357 1382H336Q325 1382 314 1383L665 362Q674 330 686 330T709 361L1103 1433Q1122 1487 1145 1508T1206 1530T1267 1510T1310 1433L1697 362Q1708 330 1718 330T1739 361L2087 1383Q2073 1382 2060
1382H2033Q1898 1382 1872 1438Q1864 1457 1864 1484T1888 1533T1948 1555T2012 1552T2073 1545L2137 1539Q2170 1536 2204 1536Z" />
<glyph unicode="X" glyph-name="X" horiz-adv-x="1702" d="M262 14L53 0Q15 0 -10 21T-35 74T-10 125T62 152Q142 166 177 188T292 300L725 821Q568 1007 498 1097T375 1245Q262 1369 157 1388L120 1394Q42 1408 42 1471Q42 1500 66 1521T129 1543L281 1536Q314
1536 347 1539L412 1545Q427 1546 445 1548T494 1552T558 1555T617 1534T642 1480Q642 1382 474 1382H471L840 944L1208 1382Q1055 1386 1055 1480Q1055 1512 1080 1533T1133 1555T1178 1554T1215 1552T1252 1548T1294 1544L1350 1539Q1383 1536 1416 1536L1558
1543Q1596 1543 1620 1522T1645 1472Q1645 1408 1568 1394L1530 1388Q1426 1369 1317 1256Q1265 1202 1208 1128L1077 965L961 827L1158 600Q1398 311 1473 239T1604 158L1658 148Q1736 135 1736 71Q1736 42 1712 22T1661 1T1606 4L1543 9L1486 13Q1458 15 1439
15L1195 0Q1128 0 1102 44Q1094 57 1094 73Q1094 165 1274 165H1298L845 704L395 165H418Q597 165 597 73Q597 24 534 6Q516 0 496 0L262 14Z" />
<glyph unicode="Y" glyph-name="Y" horiz-adv-x="1706" d="M80 1550L213 1536Q247 1536 269 1537L314 1539Q364 1541 386 1544L427 1548Q490 1555 532 1555T599 1535T624 1477T584 1414T455 1388H414Q465 1322 516 1248L811 787L855 708L900 787L1089 1080Q1232
1294 1301 1388H1253Q1178 1388 1135 1411T1092 1473T1117 1533T1178 1555T1249 1552L1313 1545Q1343 1541 1380 1540L1438 1537Q1460 1536 1477 1536L1628 1548Q1685 1548 1708 1500Q1715 1486 1715 1456T1683 1410T1599 1388T1492 1329Q1394 1239 1245 1014L1081
772Q952 587 952 502V161H1063Q1133 161 1161 137T1189 80T1165 24T1083 0H1058Q1043 0 1026 0L992 2Q976 2 944 4T863 6T774 4T715 2L678 0Q660 0 644 0H617Q572 0 546 21T519 79T550 138T633 161H766V484Q766 576 629 774L561 870Q488 972 431 1061T321 1220Q209
1369 108 1388L70 1394Q-8 1408 -8 1471Q-8 1550 80 1550Z" />
<glyph unicode="Z" glyph-name="Z" horiz-adv-x="1526" d="M1189 -131T1178 -135T1143 -139T1100 -115T1080 -68T1085 -25Q997 -7 931 -6T814 -4T659 -1T477 1T291 -7T148 -16Q61 -16 61 66Q61 133 167 266L1067 1376Q1021 1377 957 1379L824 1383Q773 1385 724
1386T603 1390T477 1393Q357 1393 319 1274Q286 1187 250 1172Q237 1167 215 1167T170 1186T147 1238Q147 1331 266 1539Q306 1609 329 1621T377 1633T422 1617T443 1579T441 1546Q556 1521 701 1521L1220 1535Q1311 1535 1311 1459Q1311 1413 1252 1336L313 157Q413
156 498 153L665 147L849 140Q939 136 1002 136T1089 145Q1151 168 1226 279T1336 416T1402 443T1452 422T1470 365T1420 272T1320 122T1253 -21T1225 -91T1201 -120Z" />
<glyph unicode="[" glyph-name="bracketleft" horiz-adv-x="856" d="M324 1575L470 1569L601 1575Q652 1575 679 1554T707 1495T682 1432T616 1405T556 1407T492 1410L454 1412Q435 1412 418 1412H365V-61H418Q435 -61 454 -60H492Q537 -58 556 -56T599 -54Q707
-54 707 -136Q707 -172 680 -198T601 -224L470 -218Q451 -218 436 -219L404 -221Q378 -224 317 -224T218 -180T180 -51T183 113T187 230T189 314T192 439T194 637T194 819T192 938T190 1037T187 1120T185 1198T182 1296T180 1420T217 1530T324 1575Z" />
<glyph unicode="\" glyph-name="backslash" horiz-adv-x="1024" d="M791 -132Q791 -236 694 -236T572 -98Q558 -18 548 27L530 103L243 1171Q222 1249 206 1301L178 1390Q153 1465 153 1504T177 1568T246 1594Q340 1594 365 1444T415 1203L667 244Q690 156 712
97L752 -4Q791 -100 791 -132Z" />
<glyph unicode="]" glyph-name="bracketright" horiz-adv-x="856" d="M544 1575L398 1569L267 1575Q216 1575 189 1554T161 1495T186 1432T252 1405T312 1407T376 1410L414 1412Q433 1412 450 1412H503V-61H450Q433 -61 414 -60H376Q331 -58 312 -56T269 -54Q161
-54 161 -136Q161 -172 188 -198T267 -224L398 -218Q417 -218 432 -219L464 -221Q490 -224 551 -224T650 -180T688 -51T685 113T681 230T679 314T676 439T674 637T674 819T676 938T678 1037T681 1120T683 1198T686 1296T688 1420T651 1530T544 1575Z" />
<glyph unicode="^" glyph-name="asciicircum" horiz-adv-x="1196" d="M290 844T277 840T240 836T195 856T174 896Q174 937 212 990L243 1034L483 1518Q540 1594 583 1594T649 1579T707 1518L955 1034Q1014 958 1018 935T1022 891T1002 853T951 836T895 854T825
932L595 1359L373 932Q329 873 310 859Z" />
<glyph unicode="_" glyph-name="underscore" horiz-adv-x="849" d="M860 0V-165H-10V0H860Z" />
<glyph unicode="`" glyph-name="grave" horiz-adv-x="550" d="M378 1231T365 1216T322 1200T262 1226L214 1268Q175 1299 136 1325L60 1375Q-17 1426 -17 1493Q-17 1531 9 1556T75 1581Q142 1581 189 1511Q294 1361 336 1324T378 1259Z" />
<glyph unicode="a" glyph-name="a" horiz-adv-x="1194" d="M836 416Q674 447 549 447T364 398T304 285T359 182T513 141Q716 141 836 272V416ZM859 117Q749 -15 494 -15Q324 -15 224 63T123 274Q123 495 368 562Q451 584 582 584T836 554V664Q836 829 704 866Q657
880 578 880Q409 880 383 790Q367 742 326 721Q308 712 285 712Q190 712 190 814Q190 901 304 968T595 1035Q893 1035 980 824Q1009 752 1009 654V395Q1009 259 1020 213T1061 147Q1114 113 1114 68Q1114 -15 1010 -15T859 117Z" />
<glyph unicode="b" glyph-name="b" horiz-adv-x="1194" d="M354 219Q451 143 590 143T830 242T932 510T844 776T606 873T357 757V281Q357 247 354 219ZM311 67Q264 -15 173 -15T81 70Q81 112 121 139T173 212T184 395V1353Q184 1392 177 1402T157 1412L72 1400Q32
1400 7 1420T-18 1476Q-18 1552 90 1563Q162 1569 200 1581T280 1594Q357 1594 357 1498V933Q465 1035 622 1035Q830 1035 969 901T1108 528T956 137T569 -15Q458 -15 364 31Q334 46 311 67Z" />
<glyph unicode="c" glyph-name="c" horiz-adv-x="1194" d="M967 325Q1056 325 1056 246Q1056 210 1028 164T944 78Q816 -15 617 -15T274 118Q204 184 162 282T119 500Q119 729 272 882T656 1035Q719 1035 783 1015Q781 1020 781 1024V1046Q781 1065 799 1086T847
1108Q899 1108 916 1056L928 1021Q952 958 1012 885T1073 774T1054 716T1004 695Q945 695 881 778Q800 877 644 877T391 771T293 502T391 241T636 143Q833 143 888 261Q923 325 967 325Z" />
<glyph unicode="d" glyph-name="d" horiz-adv-x="1194" d="M855 803Q758 877 617 877T378 774T280 505T369 241T607 143T855 258V803ZM881 111Q768 -15 577 -15T246 123T106 495T259 882T643 1035Q761 1035 855 984V1353Q855 1392 849 1402T830 1412L744 1400Q704
1400 679 1420T653 1476Q653 1552 762 1563Q836 1570 872 1582T951 1594Q1028 1594 1028 1498V395Q1028 259 1039 213T1080 147Q1132 113 1132 70Q1132 -15 1030 -15T881 111Z" />
<glyph unicode="e" glyph-name="e" horiz-adv-x="1194" d="M299 604L368 602Q402 601 586 601T827 631T884 722T815 830T662 877Q515 877 420 802T299 604ZM970 315Q1058 315 1058 236Q1058 200 1031 156T950 73Q826 -15 626 -15T278 120Q205 187 161 285T117
500Q117 728 267 881T645 1035Q835 1035 946 943T1058 715T949 514T535 447Q454 447 295 453Q313 298 415 221T628 143T803 167T896 253T970 315Z" />
<glyph unicode="f" glyph-name="f" horiz-adv-x="856" d="M629 0L412 6Q376 6 355 5L311 3Q260 0 219 0T152 19T125 74T156 130T238 150H317V888Q311 887 306 887H295Q244 884 203 884T136 903T109 958T135 1014T203 1034T295 1031L317 1029V1241Q317 1403 400
1498T611 1594T806 1542T872 1395Q872 1351 850 1326T793 1300Q728 1300 710 1367T609 1434Q491 1434 491 1205V1028L532 1031Q605 1034 670 1034T760 1013T784 970Q784 884 665 884T491 889V150H611Q736 150 736 71Q736 43 712 22T629 0Z" />
<glyph unicode="g" glyph-name="g" horiz-adv-x="1194" d="M858 259V770Q858 785 860 799Q757 881 618 881T379 772T279 521Q279 337 370 240T609 143T858 259ZM903 952Q950 1035 1042 1035T1134 948Q1134 906 1094 880T1043 806T1032 624V9Q1032 -238 909 -382T581
-527Q413 -527 315 -453T217 -270Q217 -192 259 -139T367 -85Q406 -85 438 -111T471 -167T461 -210T440 -234T414 -254T400 -280Q400 -317 443 -341T566 -365Q709 -365 783 -271T858 -4V85Q747 -15 592 -15Q386 -15 245 124T104 500T254 886T635 1035Q753 1035
848 988Q879 973 903 952Z" />
<glyph unicode="h" glyph-name="h" horiz-adv-x="1364" d="M556 0L368 6Q326 6 305 5L261 3Q211 0 173 0Q76 0 76 74Q76 110 106 130T188 150H278V1352Q278 1412 254 1412Q244 1412 234 1410L211 1404Q184 1399 155 1399T101 1419T76 1476Q76 1551 184 1562Q252
1568 295 1581T376 1594Q451 1594 451 1497V822Q494 909 590 972T793 1035Q1154 1035 1154 683V150H1221Q1347 150 1347 71Q1347 43 1323 22T1260 0L1070 6Q1028 6 1007 5L963 3Q915 0 875 0Q779 0 779 74Q779 110 809 130T892 150H979V618Q979 828 861 864Q823
875 773 875Q669 875 576 790T451 578V150H518Q644 150 644 71Q644 43 620 22T556 0Z" />
<glyph unicode="i" glyph-name="i" horiz-adv-x="682" d="M592 0L404 6Q362 6 341 5L297 3Q247 0 209 0Q112 0 112 74Q112 110 142 130T224 150H302V802Q302 862 276 862Q264 862 239 855T182 848T125 869T100 926Q100 1002 208 1013Q275 1019 317 1031T400 1043Q475
1043 475 947V150H554Q680 150 680 71Q680 43 656 22T592 0ZM512 1386Q512 1289 430 1260Q407 1252 365 1252T288 1285T253 1371T289 1459T385 1494T478 1463T512 1386Z" />
<glyph unicode="j" glyph-name="j" horiz-adv-x="682" d="M521 -53Q521 -506 208 -506Q78 -506 3 -437T-72 -255Q-72 -182 -39 -139T40 -96Q132 -96 132 -170Q132 -198 118 -222T103 -277T129 -331T190 -354Q264 -354 300 -295T337 -79V802Q337 862 305 862L190
848Q150 848 125 869T100 926T128 987T233 1014T343 1025T395 1038T435 1043Q521 1043 521 947V-53ZM525 1376Q525 1281 444 1252Q421 1244 379 1244T301 1277T265 1363T302 1451T401 1486T494 1453T525 1376Z" />
<glyph unicode="k" glyph-name="k" horiz-adv-x="1364" d="M538 0L355 6L254 3Q215 0 175 0Q79 0 79 74Q79 110 109 130T192 150H278V1352Q278 1412 254 1412Q246 1412 236 1410L212 1404Q187 1399 166 1399Q78 1399 78 1480Q78 1512 106 1534T192 1562T279 1576L324
1589Q342 1594 363 1594Q454 1594 454 1497V548Q663 617 826 770Q879 820 915 874L801 868Q753 868 726 889T698 944T727 1000T810 1021L1016 1013L1191 1025Q1244 1025 1267 1003T1291 949Q1291 873 1186 873H1154Q1135 873 1110 875Q1022 734 843 598Q953 473
1027 351L1146 150H1214Q1340 150 1340 71Q1340 43 1316 22T1253 0L1060 6L959 3Q920 0 870 0Q774 0 774 74Q774 110 804 130T887 150H955Q829 373 710 509Q577 430 454 395V150H499Q625 150 625 71Q625 43 601 22T538 0Z" />
<glyph unicode="l" glyph-name="l" horiz-adv-x="682" d="M600 214Q665 214 665 138Q665 81 592 33T419 -15Q252 -15 196 143Q177 197 177 271V1353Q177 1392 171 1402T152 1412L65 1400Q26 1400 1 1420T-25 1476Q-25 1552 83 1563Q153 1569 192 1581T273 1594Q351
1594 351 1498V385Q351 245 365 207T396 156T448 144T512 169T557 204T600 214Z" />
<glyph unicode="m" glyph-name="m" horiz-adv-x="2040" d="M559 0L364 6L263 3Q224 0 174 0Q78 0 78 74Q78 110 108 130T191 150H279V802Q279 862 255 862Q240 862 217 855T160 848T103 869T78 926Q78 1003 187 1013Q253 1019 295 1031T364 1043Q455 1043 455
947V834Q508 924 601 979T785 1035Q1056 1035 1127 821Q1177 916 1274 975T1468 1035Q1652 1035 1741 940T1831 683V145L1898 144Q2024 144 2024 65Q2024 37 2000 16T1937 -6Q1840 -6 1807 0T1740 6T1684 5L1640 3Q1604 0 1548 0Q1451 0 1451 74Q1451 110 1481
130T1563 150L1658 148V618Q1658 875 1459 875Q1368 875 1274 785T1147 564V150H1214Q1340 150 1340 71Q1340 43 1316 22T1253 0L1063 6Q1021 6 1000 5L956 3Q908 0 866 0T796 19T768 74T800 130T885 150H974V618Q974 875 772 875Q680 875 584 785T455 564V150H520Q646
150 646 71Q646 43 622 22T559 0Z" />
<glyph unicode="n" glyph-name="n" horiz-adv-x="1364" d="M172 0Q76 0 76 74Q76 110 106 130T189 150H278V802Q278 862 252 862Q238 862 215 855T159 848T101 869T76 926Q76 1002 184 1013Q241 1018 290 1030T378 1043Q451 1043 451 947V816Q494 912 592 973T799
1035Q993 1035 1074 937T1155 673V150H1222Q1348 150 1348 71Q1348 43 1324 22T1242 0L1066 6L876 0Q780 0 780 74Q780 110 810 130T893 150H980V608Q980 818 874 860Q837 875 785 875Q678 875 581 793T451 585V150H518Q644 150 644 71Q644 43 620 22T538 0L362
6L172 0Z" />
<glyph unicode="o" glyph-name="o" horiz-adv-x="1194" d="M266 349T360 246T601 143T836 240T926 499Q926 768 735 850Q672 877 593 877Q442 877 354 779T266 515ZM92 732T237 883T603 1035T962 895T1101 520T957 135T588 -15T228 130T92 503Z" />
<glyph unicode="p" glyph-name="p" horiz-adv-x="1194" d="M669 879Q488 879 377 723V240Q478 143 636 143T887 252T981 508Q981 789 795 858Q738 879 669 879ZM377 903Q494 1035 691 1035T1022 905T1155 535T1008 140T628 -15Q527 -15 430 28Q400 41 377 59V-140Q377
-289 404 -334Q415 -352 437 -366Q480 -393 480 -433Q480 -523 380 -523Q258 -523 218 -355Q204 -299 204 -224V794Q204 832 197 842T177 852L92 840Q52 840 27 860T2 918Q2 994 111 1004Q172 1010 203 1018L252 1030Q270 1035 305 1035T359 1008T377 939V903Z"
/>
<glyph unicode="q" glyph-name="q" horiz-adv-x="1194" d="M841 807Q747 877 607 877T365 770T263 521Q263 338 352 241T590 143T838 259V737Q838 774 841 807ZM838 85Q729 -15 573 -15Q368 -15 228 123T88 495T241 882T626 1035Q736 1035 830 988Q860 972 883
952Q930 1035 1022 1035T1114 948Q1114 906 1074 879T1022 806T1011 624V-281Q1011 -341 1037 -341Q1051 -341 1076 -335T1132 -328T1188 -349T1213 -406Q1213 -482 1105 -492Q1040 -498 998 -510T915 -523Q838 -523 838 -426V85Z" />
<glyph unicode="r" glyph-name="r" horiz-adv-x="1190" d="M683 0L424 6Q379 6 358 5L314 3Q264 0 226 0Q129 0 129 74Q129 110 159 130T241 150H331V802Q331 862 305 862Q293 862 268 855T211 848T154 869T129 926Q129 1002 237 1013Q304 1019 346 1031T429 1043Q504
1043 504 947V793Q582 965 760 1018Q817 1035 874 1035Q981 1035 1046 985T1112 840T1079 696T991 646Q905 646 905 724Q905 740 908 750L916 772Q925 797 925 823Q925 880 828 880T639 770T504 480V150H666Q794 150 794 71Q794 43 770 22T683 0Z" />
<glyph unicode="s" glyph-name="s" horiz-adv-x="1022" d="M536 -15Q449 -15 368 -1Q327 -73 282 -73Q218 -73 218 -14Q218 38 192 83T145 158Q78 258 78 298T101 357T152 376Q207 376 251 289T357 172T549 143Q742 143 800 253Q818 286 818 325Q818 403 750 435T539
477T328 508Q130 575 130 746Q130 851 240 935T564 1020Q609 1020 654 1012Q644 1040 644 1059T661 1094T703 1111T743 1098T775 1050T844 949T907 859T920 806T903 759T856 740Q801 740 757 813Q735 850 693 864T547 878T381 841T318 752T350 681Q409 643 534
636Q774 622 882 554T991 351Q991 178 859 82T536 -15Z" />
<glyph unicode="t" glyph-name="t" horiz-adv-x="852" d="M439 1013L692 1020Q751 1020 775 999T799 946T772 891T691 867T539 872L439 875V395Q439 246 460 205T503 154T569 144T652 179T709 226T757 238T807 215T828 161Q828 96 747 41T575 -15Q418 -15 342
66T265 281V868Q230 865 189 865T121 887T94 944T120 1000T185 1020T264 1018Q263 1051 262 1096L258 1184Q257 1228 256 1262T254 1307Q254 1358 282 1383T352 1408Q448 1408 448 1297L439 1013Z" />
<glyph unicode="u" glyph-name="u" horiz-adv-x="1190" d="M841 188Q742 -15 509 -15Q433 -15 368 12Q187 88 187 345V794Q187 852 161 852L87 840Q-2 840 -2 922Q-2 995 94 1004Q151 1009 183 1018L234 1030Q253 1035 288 1035T342 1008T361 939V410Q361 209
462 162Q499 145 549 145Q643 145 724 237T838 462V794Q838 832 831 842T811 852L741 840Q652 840 652 922Q652 995 750 1004Q802 1009 835 1017L885 1030Q903 1035 938 1035T992 1008T1011 939V395Q1011 207 1057 164Q1071 151 1094 142Q1134 126 1134 79Q1134
-15 1023 -15T864 96Q847 135 841 188Z" />
<glyph unicode="v" glyph-name="v" horiz-adv-x="1190" d="M1090 1020Q1171 1020 1171 963Q1171 924 1136 895Q1065 837 1030 789T954 645Q732 109 702 30Q693 5 665 -15T594 -36Q512 -36 484 39Q470 77 442 144L234 645Q184 765 156 800T108 851L63 886Q16 924
16 963Q16 1020 98 1020L210 1013L383 1020Q431 1020 456 1001T481 954Q481 869 325 869H317L599 191L878 869H863Q708 869 708 954Q708 982 732 1001T805 1020L985 1013L1090 1020Z" />
<glyph unicode="w" glyph-name="w" horiz-adv-x="1868" d="M1761 1014Q1842 1014 1842 949Q1842 917 1792 877T1709 791T1635 638L1422 85Q1417 70 1414 60Q1383 -36 1292 -36Q1252 -36 1219 -11T1173 62Q1171 70 1167 83T1154 125T1130 199L945 748Q760 211 749
180L698 39Q669 -36 585 -36T468 39Q463 51 456 68L238 645Q174 800 120 847Q102 863 68 889T33 957Q33 1014 116 1014L220 1007Q248 1007 270 1008L307 1011Q321 1012 346 1016T422 1020T497 1001T521 954Q521 863 366 863H335L587 199L808 862Q854 999 946 999Q996
999 1023 971T1077 863L1293 199L1548 863H1511Q1356 863 1356 954Q1356 982 1380 1001T1453 1020L1656 1007L1761 1014Z" />
<glyph unicode="x" glyph-name="x" horiz-adv-x="1360" d="M1196 0L1080 6Q1057 6 1034 4L981 1Q951 -1 922 -3T846 -6T771 17T742 74Q742 148 901 148H921L658 421L426 148H462Q620 148 620 70Q620 34 583 14T501 -6T429 -4L377 0Q351 2 328 4T281 6L172 0Q128
0 106 20T84 69Q84 125 168 148Q235 169 305 248L560 522L330 761Q257 834 196 857Q177 864 150 874Q88 896 88 950Q88 978 110 999T174 1020L295 1014L470 1024Q512 1024 536 1004T561 952Q561 871 430 869L689 613L936 869H920Q782 869 782 951Q782 982 806 1002T873
1023L1049 1014L1178 1020Q1210 1020 1233 999T1256 948Q1256 897 1187 871Q1091 839 995 739L786 517L1058 248Q1125 181 1153 167T1210 144Q1278 124 1278 70Q1278 41 1254 21T1196 0Z" />
<glyph unicode="y" glyph-name="y" horiz-adv-x="1194" d="M1091 1020Q1173 1020 1173 952Q1173 918 1152 903T1112 878Q1037 838 960 645L646 -125Q553 -359 478 -449T284 -540T98 -477T31 -338T62 -221T142 -180Q232 -180 232 -261Q232 -281 224 -301T215 -338T235
-370T284 -385Q341 -385 397 -300T539 14L250 645Q171 814 84 876Q27 917 27 956Q27 1020 110 1020L218 1013L397 1026Q445 1026 470 1007T495 960Q495 869 340 869L626 209L871 869H856Q700 869 700 960Q700 988 724 1007T796 1026L977 1013L1091 1020Z" />
<glyph unicode="z" glyph-name="z" horiz-adv-x="1192" d="M190 718Q124 718 124 794Q124 830 159 880Q226 976 244 1022L258 1058Q279 1115 331 1115Q360 1115 380 1097T400 1058T396 1026Q460 1006 514 1006H581L902 1019Q1040 1019 1040 929Q1040 860 935 755L351
163Q556 152 676 152T817 156Q885 172 927 239Q1003 365 1044 377Q1058 381 1079 381T1121 361T1143 305T1107 226Q1035 141 977 -25Q949 -101 886 -101Q854 -101 837 -81T819 -41T822 -9Q687 16 585 16Q421 16 349 10L299 6Q206 0 177 0T123 24T98 82T119 149T205
250L813 870Q649 878 518 878T352 864T293 803T245 737T190 718Z" />
<glyph unicode="{" glyph-name="braceleft" horiz-adv-x="856" d="M587 -223Q291 -223 277 204Q268 426 249 484T213 557T150 579T77 611T50 676T77 741T150 773T212 794T248 867T274 1096T306 1348Q375 1575 587 1575Q738 1575 775 1508Q786 1488 786 1457T760
1403T701 1380T636 1397T573 1415T522 1399T480 1317T444 970Q429 739 291 676Q429 611 444 382Q460 103 480 36T522 -47T573 -63T635 -45T702 -27T761 -49T786 -100Q786 -159 735 -191T587 -223Z" />
<glyph unicode="|" glyph-name="bar" horiz-adv-x="849" d="M524 -360T424 -360T324 -200Q324 -136 328 -70Q335 21 336 278L338 414Q338 480 338 534V693Q338 745 338 810T336 1044T330 1274L326 1328Q325 1349 324 1371L322 1414Q321 1435 321 1481T351 1560T424
1594Q493 1594 518 1520Q527 1491 527 1461T526 1410T524 1368T521 1327T519 1288T517 1216Q511 907 511 698V540Q511 488 512 422V284Q514 19 519 -65T524 -212Q524 -360 424 -360Z" />
<glyph unicode="}" glyph-name="braceright" horiz-adv-x="856" d="M269 -223Q565 -223 579 204Q588 426 607 484T643 557T706 579T779 611T806 676T779 741T706 773T644 794T608 867T582 1096T550 1348Q481 1575 269 1575Q118 1575 81 1508Q70 1488 70 1457T96
1403T155 1380T220 1397T283 1415T334 1399T376 1317T412 970Q427 739 565 676Q427 611 412 382Q396 103 376 36T334 -47T283 -63T221 -45T154 -27T95 -49T70 -100Q70 -159 121 -191T269 -223Z" />
<glyph unicode="~" glyph-name="asciitilde" horiz-adv-x="1338" d="M204 373T191 370T156 366T113 390T90 473T115 592T184 694Q276 782 405 782Q479 782 533 758T687 658L824 557Q896 506 919 500T959 494Q1057 494 1090 644Q1105 714 1122 731T1170 748T1224
724T1248 641T1223 522T1154 420Q1062 332 935 332T646 464L545 545Q471 604 444 612T396 620Q284 620 249 471Q232 399 218 386Z" />
<glyph unicode="&#xa0;" glyph-name="nbspace" horiz-adv-x="520" />
<glyph unicode="&#xa1;" glyph-name="exclamdown" horiz-adv-x="512" d="M192 1575T154 1537T116 1438T152 1338T254 1299T357 1336T395 1434T357 1535T255 1575ZM360 69L349 324V673Q349 785 355 845T361 928T351 972T326 1006Q297 1033 253 1033T180 1002T150
938T152 886L158 842Q167 776 167 673V324Q167 216 159 169T150 81T178 13T252 -15T329 9T360 69Z" />
<glyph unicode="&#xa2;" glyph-name="cent" horiz-adv-x="1029" d="M597 -275T526 -275T455 -168V94Q294 120 188 237T81 539T186 851T455 1011V1278Q455 1331 475 1356T526 1382Q597 1382 597 1278V1018Q657 1012 693 999Q696 1025 712 1041T754 1058Q798 1058
815 1011Q823 989 852 943T897 878T930 833T948 778T931 730T893 711Q832 711 783 772Q712 862 564 862T336 777T256 552T332 330T563 246T780 338Q802 371 819 384T865 397T912 378T932 326Q932 253 839 179T597 91V-168Q597 -275 526 -275Z" />
<glyph unicode="&#xa3;" glyph-name="sterling" horiz-adv-x="1369" d="M386 451Q386 532 353 665H171Q65 665 65 736T173 807H314Q255 1014 255 1119Q255 1327 391 1451T783 1575Q977 1575 1093 1480T1209 1268T1147 1091T1008 1029Q900 1029 900 1113Q900 1181
978 1198Q1029 1210 1029 1268T951 1372T773 1419Q598 1419 520 1336T441 1129T497 807H816Q869 807 894 787T919 737Q919 665 814 665H537Q573 528 573 431T518 251Q619 248 731 207T890 156T980 147Q1080 147 1122 226T1217 305Q1252 305 1278 278T1304 212T1275
131T1198 56Q1092 -15 962 -15T685 41T504 101T442 105T346 56T248 -4T184 -15T124 8T97 76T122 146T228 200Q386 254 386 451Z" />
<glyph unicode="&#xa4;" glyph-name="currency" horiz-adv-x="1199" d="M696 426T771 490T846 663T773 840T596 909T424 843T356 670T428 495T598 426ZM1112 223Q1112 135 1024 135Q983 135 945 176Q848 283 806 325Q706 269 593 269T386 319L256 181Q215 135
174 135T111 156T87 192T86 210Q86 265 141 315Q225 391 263 427Q192 524 192 661T275 907L141 1032Q86 1082 86 1125T109 1190T160 1212Q215 1212 253 1170Q352 1061 400 1013Q492 1064 600 1064T802 1017L942 1166Q983 1212 1024 1212T1087 1191T1111 1155T1112
1135Q1112 1082 1068 1043L930 914Q1010 813 1010 675T929 433L1057 315Q1112 265 1112 223Z" />
<glyph unicode="&#xa5;" glyph-name="yen" horiz-adv-x="1710" d="M82 1570L215 1556Q249 1556 271 1557L316 1559Q366 1561 388 1564L429 1568Q492 1575 534 1575T601 1555T626 1497T586 1434T457 1408H417L673 1078L777 939Q824 875 856 827H857L936 938L1163
1234L1301 1408H1255Q1180 1408 1137 1431T1094 1493T1119 1553T1180 1575T1251 1572L1315 1565Q1345 1561 1382 1560L1440 1557Q1462 1556 1479 1556L1630 1568Q1687 1568 1710 1520Q1717 1506 1717 1476T1685 1430T1615 1409Q1551 1402 1495 1359T1337 1194L1215
1040L1055 827H1343Q1396 827 1421 807T1447 756Q1447 685 1343 685H954V517H1343Q1396 517 1421 497T1447 446Q1447 375 1343 375H954V161H1065Q1135 161 1163 137T1191 80T1167 24T1085 0H1060Q1045 0 1028 0L994 2Q978 2 946 4T865 6T776 4T717 2L680 0Q662
0 646 0H619Q574 0 548 21T521 79T552 138T635 161H768V375H370Q263 375 263 446T370 517H768V684L767 685H370Q263 685 263 756T370 827H661Q362 1225 305 1284T213 1369T135 1402T72 1414Q-6 1428 -6 1491Q-6 1570 82 1570Z" />
<glyph unicode="&#xa6;" glyph-name="brokenbar" horiz-adv-x="849" d="M527 340L511 67L524 -212Q524 -360 424 -360T324 -200Q324 -166 327 -132L333 -61Q338 6 338 54L321 345Q321 427 351 460T424 494Q527 494 527 340ZM524 888Q524 740 424 740T324 900Q324
934 327 973L333 1049Q338 1116 338 1167L321 1452Q321 1563 388 1588Q406 1594 424 1594Q493 1594 518 1520Q527 1491 527 1448L511 1167L524 888Z" />
<glyph unicode="&#xa7;" glyph-name="section" horiz-adv-x="1196" d="M428 865T390 818T351 726Q351 642 415 584T642 480L674 470Q690 465 704 460Q767 486 805 533T843 628Q843 718 782 769T552 871Q511 884 492 891Q428 865 390 818ZM848 387Q994 283 994
132T874 -122T546 -224Q392 -224 287 -149T182 8T238 122Q256 133 285 133T338 112T370 62Q382 5 441 -30T575 -65Q704 -65 757 -14T810 108T751 227T565 314Q339 384 251 472T162 688T273 915Q307 945 349 966Q201 1075 201 1241Q201 1378 320 1476T648 1575Q802
1575 907 1500T1012 1343T956 1228Q937 1218 908 1218T856 1239T826 1289Q813 1346 754 1381T620 1416Q491 1416 439 1366T386 1246Q386 1114 644 1034Q868 964 950 880T1033 668T923 440Q889 409 848 387Z" />
<glyph unicode="&#xa8;" glyph-name="dieresis" horiz-adv-x="879" d="M359 1344Q359 1247 277 1218Q254 1210 212 1210T135 1243T100 1329T136 1417T232 1452T325 1421T359 1344ZM779 1344Q779 1247 697 1218Q674 1210 632 1210T555 1243T520 1329T556 1417T652
1452T745 1421T779 1344Z" />
<glyph unicode="&#xa9;" glyph-name="copyright" horiz-adv-x="1880" d="M559 934T671 1044T961 1155Q997 1155 1031 1145Q1030 1150 1030 1166T1047 1199T1089 1216Q1140 1216 1154 1173T1192 1094L1240 1023Q1266 983 1266 956T1248 911T1195 893T1127 931Q1067
1004 957 1004T789 939T732 768T791 601T962 538T1103 596T1187 654Q1219 654 1236 632T1254 576Q1254 500 1167 441T973 381Q783 381 671 493T559 769ZM296 498T480 321T950 144T1410 314T1584 773T1405 1239T940 1416T475 1239T296 780ZM119 794Q119 934 179
1081T349 1338T611 1511T949 1575Q1289 1575 1522 1354Q1675 1211 1732 1002Q1761 896 1761 778Q1761 546 1648 365T1345 85T938 -15T533 87T233 369T119 794Z" />
<glyph unicode="&#xaa;" glyph-name="ordfeminine" horiz-adv-x="1196" d="M773 1050Q643 1075 547 1075T396 1038T341 951T386 873T505 843Q670 843 773 950V1050ZM795 803Q698 693 484 693Q338 693 252 759T166 941Q166 1131 376 1188Q447 1207 558 1207T773
1182V1275Q773 1353 723 1399T564 1445T425 1409Q415 1397 401 1374Q365 1316 305 1316Q221 1316 221 1393T321 1532T571 1594Q832 1594 912 1413Q940 1351 940 1267V1044Q940 886 965 852Q974 839 1002 821T1030 767Q1030 693 933 693T795 803Z" />
<glyph unicode="&#xab;" glyph-name="guillemotleft" horiz-adv-x="1360" d="M243 475T234 490T224 528Q224 570 291 630Q405 734 502 870Q538 919 561 929T611 939T662 920T685 867T672 808T606 737T470 589L423 529Q442 503 504 429T612 315T671 251T685 192T662
138T605 119T548 137T467 237T326 396ZM693 475T684 490T674 528Q674 570 741 630Q855 734 952 870Q988 919 1011 929T1061 939T1112 920T1135 867T1122 808T1056 737T920 589L873 529Q892 503 954 429T1062 315T1121 251T1135 192T1112 138T1055 119T998 137T917
237T776 396Z" />
<glyph unicode="&#xac;" glyph-name="logicalnot" horiz-adv-x="1192" d="M1053 211T970 211T887 338V529H265Q198 529 168 548T138 610Q138 691 265 691H918Q990 691 1021 664T1052 576L1053 338Q1053 211 970 211Z" />
<glyph unicode="&#xad;" glyph-name="uni00AD" horiz-adv-x="774" />
<glyph unicode="&#xae;" glyph-name="registered" horiz-adv-x="1366" d="M667 1033Q801 1033 801 1107Q801 1147 778 1160Q734 1184 651 1184H631Q623 1184 616 1183V1033H667ZM929 1105Q929 990 809 949Q844 892 892 880Q905 876 924 872Q965 864 965 818Q965
798 950 781T906 764Q814 764 750 844Q723 876 694 936H616V866H644Q668 866 681 852T695 820T683 785T645 767H477Q451 767 437 782T422 818T436 852T477 866H499V1168Q487 1165 463 1165T424 1182T409 1222T435 1265T524 1285H667Q929 1285 929 1105ZM880 590T997
705T1114 1014T994 1326T681 1445T369 1326T249 1017T372 709T687 590ZM437 461T272 618T107 1012T273 1412T680 1575T1089 1418T1258 1016T1089 617T678 461Z" />
<glyph unicode="&#xaf;" glyph-name="overscore" horiz-adv-x="904" d="M227 1260Q100 1260 100 1341Q100 1376 130 1399T227 1422H680Q737 1422 770 1401T804 1341Q804 1260 680 1260H227Z" />
<glyph unicode="&#xb0;" glyph-name="degree" horiz-adv-x="855" d="M290 1321Q290 1214 375 1178Q400 1168 445 1168T528 1206T566 1304T529 1404T429 1444T328 1405T290 1321ZM306 1035T225 1110T144 1302T224 1496T428 1575T631 1501T711 1311T626 1115T424 1035Z" />
<glyph unicode="&#xb1;" glyph-name="plusminus" horiz-adv-x="1104" d="M227 172Q100 172 100 253Q100 288 130 311T227 334H880Q937 334 970 313T1004 253Q1004 172 880 172H227ZM630 565Q630 438 547 438T464 565V774H227Q100 774 100 855Q100 890 130 913T227
936H464V1178Q464 1241 488 1271T547 1302Q630 1302 630 1178V936H880Q937 936 970 915T1004 855Q1004 774 880 774H630V565Z" />
<glyph unicode="&#xb2;" glyph-name="twosuperior" horiz-adv-x="1025" d="M495 848Q657 789 698 789Q773 789 797 834T858 879Q930 879 930 803Q930 748 862 699T700 649T499 686L442 704Q373 726 340 726T292 714T242 675T170 649T114 670T94 721Q94 783 192
832Q423 944 546 1069T669 1300Q669 1370 623 1414T481 1458Q340 1458 307 1374Q297 1348 297 1320Q297 1266 343 1254T390 1188Q390 1163 370 1145T314 1127Q244 1127 194 1179T144 1298Q144 1424 235 1505T487 1586T738 1506T829 1310Q829 1076 495 848Z" />
<glyph unicode="&#xb3;" glyph-name="threesuperior" horiz-adv-x="1025" d="M327 649T225 731T122 929Q122 1005 161 1052T242 1100Q327 1100 327 1030Q327 1004 299 978T270 925Q270 866 336 821T478 776Q741 776 741 1013Q741 1101 687 1154T546 1207Q504 1207
464 1189T402 1171T364 1185T348 1223T359 1263T394 1307L514 1439H490Q318 1439 269 1448T203 1477T185 1523T204 1569T249 1590T325 1580T477 1570T627 1585T699 1601Q755 1601 755 1549Q755 1522 704 1467L577 1333Q715 1329 808 1245T902 1013T788 757T501
649Z" />
<glyph unicode="&#xb4;" glyph-name="acute" horiz-adv-x="550" d="M162 1200Q106 1200 106 1259Q106 1286 139 1315T214 1400L253 1451Q272 1477 294 1511Q341 1581 395 1581T475 1556T501 1493Q501 1426 418 1371T311 1299L270 1268Q251 1253 221 1227T162 1200Z" />
<glyph unicode="&#xb5;" glyph-name="mu" horiz-adv-x="1363" d="M579 -15Q440 -15 362 42L369 -115Q375 -249 389 -286T418 -338T455 -366T491 -396T505 -452T476 -516T394 -540T310 -508Q255 -450 234 -354T212 -80V734Q212 816 208 855T204 924Q204 1035 300
1035Q345 1035 369 1012T393 924L386 732V280Q386 234 443 190T594 145Q736 145 821 268Q849 309 863 362V734Q863 816 859 855T855 924Q855 1035 951 1035Q996 1035 1020 1012T1044 924L1037 732V395Q1037 251 1046 217T1067 171T1103 149Q1159 127 1159 79Q1159
-15 1050 -15Q990 -15 941 26T872 151Q811 39 674 -2Q629 -15 579 -15Z" />
<glyph unicode="&#xb6;" glyph-name="paragraph" horiz-adv-x="1707" d="M896 -224T796 -224T696 -84Q696 -17 703 81T710 308V651Q415 657 253 798T90 1143T266 1461T759 1575L1271 1568L1446 1575Q1528 1575 1548 1526Q1553 1512 1553 1497Q1553 1414 1427 1414H1361V308Q1361
158 1367 63T1374 -94T1348 -190T1279 -224Q1174 -224 1174 -84Q1174 -17 1181 81T1188 308V1414H883V308Q883 158 889 63T896 -96Q896 -224 796 -224Z" />
<glyph unicode="&#xb7;" glyph-name="middot" horiz-adv-x="512" d="M190 517T151 556T111 660T148 764T254 804T362 765T401 663T361 559T256 517Z" />
<glyph unicode="&#xb8;" glyph-name="cedilla" horiz-adv-x="625" d="M297 -102Q525 -139 525 -279Q525 -378 432 -439T189 -500Q140 -500 120 -486T100 -452T119 -424T205 -407Q344 -389 344 -299Q344 -244 255 -225L215 -216Q184 -210 179 -200T173 -178Q173
-143 216 -52L262 39L371 34L330 -38Q311 -70 297 -102Z" />
<glyph unicode="&#xb9;" glyph-name="onesuperior" horiz-adv-x="855" d="M420 661L322 657H282Q240 657 222 678T203 724T223 771T285 792H392V1354Q373 1335 358 1318L322 1277Q266 1214 227 1214T166 1235T144 1286T160 1339T246 1412T360 1513T431 1575T482
1586T529 1568T551 1514V792H627Q672 792 691 771T711 724T689 677T629 657L470 661H420Z" />
<glyph unicode="&#xba;" glyph-name="ordmasculine" horiz-adv-x="1196" d="M721 841T795 920T869 1134Q869 1357 712 1424Q660 1447 594 1447Q469 1447 397 1365T324 1147T402 926T601 841ZM396 693T281 817T165 1136T290 1463T603 1594T911 1474T1031 1152T907
822T589 693Z" />
<glyph unicode="&#xbb;" glyph-name="guillemotright" horiz-adv-x="1360" d="M666 475T675 490T685 528Q685 570 618 630Q504 734 407 870Q371 919 348 929T298 939T247 920T224 867T237 808T303 737T439 589L486 529Q467 503 405 429T297 315T238 251T224 192T247
138T304 119T361 137T442 237T583 396ZM1116 475T1125 490T1135 528Q1135 570 1068 630Q954 734 857 870Q821 919 798 929T748 939T697 920T674 867T687 808T753 737T889 589L936 529Q917 503 855 429T747 315T688 251T674 192T697 138T754 119T811 137T892 237T1033
396Z" />
<glyph unicode="&#xbc;" glyph-name="onequarter" horiz-adv-x="2221" d="M438 661L341 657H301Q259 657 241 678T222 724T242 771T304 792H411V1354Q392 1335 376 1318L341 1277Q285 1214 246 1214T185 1235T163 1286T179 1339T265 1412T379 1513T450 1575T501
1586T548 1568T570 1514V792H646Q691 792 710 771T730 724T708 677T648 657L489 661H438ZM1408 399Q1458 404 1477 404H1673V701L1408 399ZM1317 272Q1218 272 1218 340Q1218 389 1279 458L1618 845Q1690 929 1747 929Q1833 929 1833 840V407L1869 410Q1932 415
1969 415T2032 394T2058 340T2032 286T1959 265T1862 269L1833 270V135H1892Q1937 135 1956 114T1976 67T1955 20T1895 0L1755 4L1578 0Q1528 0 1508 21T1488 67T1508 114T1570 135H1673V272H1317ZM418 0T398 24T378 72Q378 152 466 229Q511 269 538 295L654 415L711
480L1308 1184Q1349 1232 1395 1294L1491 1422Q1558 1513 1595 1544T1677 1575T1743 1553T1765 1505Q1765 1434 1684 1355T1489 1142Q767 300 714 235T618 112T535 28T457 0Z" />
<glyph unicode="&#xbd;" glyph-name="onehalf" horiz-adv-x="2218" d="M1683 184Q1845 125 1886 125Q1961 125 1985 170T2046 215Q2118 215 2118 139Q2118 84 2050 35T1888 -15T1687 22L1630 40Q1561 62 1528 62T1480 50T1430 11T1358 -15T1302 6T1282 57Q1282
119 1380 168Q1611 280 1734 405T1857 636Q1857 706 1811 750T1669 794Q1528 794 1495 710Q1485 684 1485 656Q1485 602 1531 590T1578 524Q1578 499 1558 481T1502 463Q1432 463 1382 515T1332 634Q1332 760 1423 841T1675 922T1926 842T2017 646Q2017 412 1683
184ZM376 661L278 657H238Q196 657 178 678T159 724T179 771T241 792H348V1354Q329 1335 314 1318L278 1277Q222 1214 183 1214T122 1235T100 1286T116 1339T202 1412T316 1513T387 1575T438 1586T485 1568T507 1514V792H583Q628 792 647 771T667 724T645 677T585
657L426 661H376ZM389 0T369 24T349 72Q349 152 437 229Q482 269 508 295L624 415L682 480L1279 1184Q1320 1232 1366 1294L1462 1422Q1529 1513 1566 1544T1648 1575T1714 1553T1736 1505Q1736 1434 1655 1355T1460 1142Q738 300 685 235T589 112T506 28T428 0Z"
/>
<glyph unicode="&#xbe;" glyph-name="threequarters" horiz-adv-x="2385" d="M371 649T269 731T166 929Q166 1005 205 1052T286 1100Q371 1100 371 1030Q371 1004 343 978T314 925Q314 866 380 821T522 776Q785 776 785 1013Q785 1101 731 1154T590 1207Q548 1207
508 1189T446 1171T408 1185T392 1223T403 1263T438 1307L558 1439H534Q362 1439 313 1448T247 1477T229 1523T248 1569T293 1590T369 1580T521 1570T671 1585T743 1601Q799 1601 799 1549Q799 1522 748 1467L621 1333Q759 1329 852 1245T946 1013T832 757T545
649ZM1568 399Q1618 404 1637 404H1833V701L1568 399ZM1477 272Q1378 272 1378 340Q1378 389 1439 458L1778 845Q1850 929 1907 929Q1993 929 1993 840V407L2029 410Q2092 415 2129 415T2192 394T2218 340T2192 286T2119 265T2022 269L1993 270V135H2052Q2097 135
2116 114T2136 67T2115 20T2055 0L1915 4L1738 0Q1688 0 1668 21T1648 67T1668 114T1730 135H1833V272H1477ZM578 0T558 24T538 72Q538 152 626 229Q671 269 698 295L814 415L871 480L1468 1184Q1509 1232 1555 1294L1651 1422Q1718 1513 1755 1544T1837 1575T1903
1553T1925 1505Q1925 1434 1844 1355T1649 1142Q927 300 874 235T778 112T695 28T617 0Z" />
<glyph unicode="&#xbf;" glyph-name="questiondown" horiz-adv-x="851" d="M371 1575T333 1537T295 1438T331 1338T433 1299T536 1336T574 1434T536 1535T434 1575ZM334 1054T262 987T189 823T222 668Q277 570 365 492T484 360T516 249T491 165T424 136T360 152T318
208T280 264T227 281T171 257T150 193Q150 109 229 47T427 -15T623 57T701 242Q701 394 549 536Q427 651 398 702T369 802Q369 905 454 905Q507 905 535 868T579 818T620 806T664 823T683 876Q683 945 606 999T432 1054Z" />
<glyph unicode="&#xc0;" glyph-name="Agrave" horiz-adv-x="1704" d="M521 611Q742 441 768 415L804 378Q835 349 856 349T893 359T931 393T982 440L1205 612L932 1201Q905 1260 890 1290T862 1320T837 1299T804 1232L521 611ZM177 8L29 0Q-49 0 -49 63Q-49 104
16 154Q132 246 232 440L580 1140L704 1403Q748 1500 779 1537T860 1575T942 1542T1023 1408L1242 940Q1523 382 1541 349L1578 282Q1622 205 1639 189T1674 162Q1753 115 1753 78Q1753 0 1675 0L1524 7L1321 0Q1270 0 1241 20T1212 80Q1212 162 1394 162Q1405
162 1416 162T1438 163Q1411 202 1382 262L1280 470L1092 324Q1000 253 955 199T873 144T815 162T776 200L734 248Q716 269 686 293L532 408Q485 442 436 481L289 157H319Q417 157 461 140T505 73Q505 -1 403 -1L177 8ZM1021 1670T1008 1655T965 1639T905 1666L857
1706Q818 1738 779 1764L703 1814Q626 1865 626 1932Q626 1970 652 1995T718 2020Q785 2020 832 1950Q937 1800 979 1763T1021 1698Z" />
<glyph unicode="&#xc1;" glyph-name="Aacute" horiz-adv-x="1704" d="M521 611Q742 441 768 415L804 378Q835 349 856 349T893 359T931 393T982 440L1205 612L932 1201Q905 1260 890 1290T862 1320T837 1299T804 1232L521 611ZM177 8L29 0Q-49 0 -49 63Q-49 104
16 154Q132 246 232 440L580 1140L704 1403Q748 1500 779 1537T860 1575T942 1542T1023 1408L1242 940Q1523 382 1541 349L1578 282Q1622 205 1639 189T1674 162Q1753 115 1753 78Q1753 0 1675 0L1524 7L1321 0Q1270 0 1241 20T1212 80Q1212 162 1394 162Q1405
162 1416 162T1438 163Q1411 202 1382 262L1280 470L1092 324Q1000 253 955 199T873 144T815 162T776 200L734 248Q716 269 686 293L532 408Q485 442 436 481L289 157H319Q417 157 461 140T505 73Q505 -1 403 -1L177 8ZM709 1639Q653 1639 653 1698Q653 1725 686
1754T762 1839L800 1890Q819 1916 842 1950Q888 2020 942 2020T1022 1995T1048 1932Q1048 1865 965 1810T858 1738L816 1706Q798 1692 768 1666T709 1639Z" />
<glyph unicode="&#xc2;" glyph-name="Acircumflex" horiz-adv-x="1704" d="M521 611Q742 441 768 415L804 378Q835 349 856 349T893 359T931 393T982 440L1205 612L932 1201Q905 1260 890 1290T862 1320T837 1299T804 1232L521 611ZM177 8L29 0Q-49 0 -49 63Q-49
104 16 154Q132 246 232 440L580 1140L704 1403Q748 1500 779 1537T860 1575T942 1542T1023 1408L1242 940Q1523 382 1541 349L1578 282Q1622 205 1639 189T1674 162Q1753 115 1753 78Q1753 0 1675 0L1524 7L1321 0Q1270 0 1241 20T1212 80Q1212 162 1394 162Q1405
162 1416 162T1438 163Q1411 202 1382 262L1280 470L1092 324Q1000 253 955 199T873 144T815 162T776 200L734 248Q716 269 686 293L532 408Q485 442 436 481L289 157H319Q417 157 461 140T505 73Q505 -1 403 -1L177 8ZM651 1646T638 1643T603 1639T561 1658T540
1710T558 1766T632 1829T749 1937T825 2012T871 2020T946 1970Q1034 1871 1099 1824T1174 1753T1184 1704T1164 1658T1121 1639T1081 1644T1034 1676L862 1847Q682 1667 667 1657Z" />
<glyph unicode="&#xc3;" glyph-name="Atilde" horiz-adv-x="1704" d="M521 611Q742 441 768 415L804 378Q835 349 856 349T893 359T931 393T982 440L1205 612L932 1201Q905 1260 890 1290T862 1320T837 1299T804 1232L521 611ZM177 8L29 0Q-49 0 -49 63Q-49 104
16 154Q132 246 232 440L580 1140L704 1403Q748 1500 779 1537T860 1575T942 1542T1023 1408L1242 940Q1523 382 1541 349L1578 282Q1622 205 1639 189T1674 162Q1753 115 1753 78Q1753 0 1675 0L1524 7L1321 0Q1270 0 1241 20T1212 80Q1212 162 1394 162Q1405
162 1416 162T1438 163Q1411 202 1382 262L1280 470L1092 324Q1000 253 955 199T873 144T815 162T776 200L734 248Q716 269 686 293L532 408Q485 442 436 481L289 157H319Q417 157 461 140T505 73Q505 -1 403 -1L177 8ZM568 1743Q540 1743 517 1764T494 1820Q494
1892 570 1956T733 2020T901 1927Q942 1881 955 1873T986 1865T1016 1878T1053 1932Q1092 2000 1154 2000Q1181 2000 1204 1979T1227 1922Q1227 1853 1151 1788T987 1723T815 1822Q773 1872 757 1875T730 1878Q707 1878 669 1811T568 1743Z" />
<glyph unicode="&#xc4;" glyph-name="Adieresis" horiz-adv-x="1704" d="M521 611Q742 441 768 415L804 378Q835 349 856 349T893 359T931 393T982 440L1205 612L932 1201Q905 1260 890 1290T862 1320T837 1299T804 1232L521 611ZM177 8L29 0Q-49 0 -49 63Q-49
104 16 154Q132 246 232 440L580 1140L704 1403Q748 1500 779 1537T860 1575T942 1542T1023 1408L1242 940Q1523 382 1541 349L1578 282Q1622 205 1639 189T1674 162Q1753 115 1753 78Q1753 0 1675 0L1524 7L1321 0Q1270 0 1241 20T1212 80Q1212 162 1394 162Q1405
162 1416 162T1438 163Q1411 202 1382 262L1280 470L1092 324Q1000 253 955 199T873 144T815 162T776 200L734 248Q716 269 686 293L532 408Q485 442 436 481L289 157H319Q417 157 461 140T505 73Q505 -1 403 -1L177 8ZM750 1874Q750 1777 668 1748Q645 1740 603
1740T526 1773T491 1859T527 1947T623 1982T716 1951T750 1874ZM1230 1874Q1230 1777 1148 1748Q1125 1740 1083 1740T1006 1773T971 1859T1007 1947T1103 1982T1196 1951T1230 1874Z" />
<glyph unicode="&#xc5;" glyph-name="Aring" horiz-adv-x="1704" d="M521 611Q742 441 768 415L804 378Q835 349 856 349T893 359T931 393T982 440L1205 612L932 1201Q905 1260 890 1290T862 1320T837 1299T804 1232L521 611ZM720 1782Q720 1655 867 1655Q909
1655 944 1684T980 1767T945 1854T850 1886T755 1854T720 1782ZM177 8L29 0Q-49 0 -49 63Q-49 104 16 154Q132 246 232 440L580 1140L704 1403Q742 1491 770 1525Q679 1547 622 1611T565 1748Q565 1878 646 1949T851 2020T1056 1949T1138 1760T1025 1568Q991 1545
952 1532Q981 1497 1025 1402L1242 940Q1523 382 1541 349L1578 282Q1622 205 1639 189T1674 162Q1753 115 1753 78Q1753 0 1675 0L1524 7L1321 0Q1270 0 1241 20T1212 80Q1212 162 1394 162Q1405 162 1416 162T1438 163Q1411 202 1382 262L1280 470L1092 324Q1000
253 955 199T873 144T815 162T776 200L734 248Q716 269 686 293L532 408Q485 442 436 481L289 157H319Q417 157 461 140T505 73Q505 -1 403 -1L177 8Z" />
<glyph unicode="&#xc6;" glyph-name="AE" horiz-adv-x="2227" d="M723 711Q910 550 926 529T957 508T1009 534T1086 586L1167 636V1354L723 711ZM2048 377Q2119 377 2119 303Q2119 267 2081 219T2012 95T1974 -18T1958 -84Q1942 -139 1888 -139Q1853 -139 1830
-113T1806 -42Q1806 -38 1806 -34T1807 -25Q1649 0 1357 0Q1319 0 1276 -3L1165 -11Q1107 -16 1070 -16Q982 -16 982 66Q982 123 1076 144Q1108 151 1153 151H1167V457Q1094 411 1051 375T988 326T946 313T905 331T858 374L624 575L321 157H348Q446 157 490 140T534
73Q534 -1 432 -1L206 8L58 0Q-20 0 -20 63Q-20 88 39 129T135 212T226 320L354 486L530 723L754 1038L1032 1437Q1088 1517 1134 1546T1230 1575T1304 1570Q1358 1558 1397 1558L1596 1561Q1704 1561 1828 1583Q1823 1599 1823 1617T1842 1654T1897 1673Q1987
1673 2100 1364Q2121 1306 2121 1276Q2121 1207 2059 1207Q2004 1207 1967 1314Q1944 1380 1894 1407T1765 1434H1740L1353 1410V967Q1593 967 1627 973T1677 993T1699 1045T1731 1102T1782 1121T1827 1106T1847 1063T1829 987T1811 892T1828 797L1856 725Q1865
700 1865 670T1843 621T1787 603Q1722 603 1707 687T1672 795T1604 820H1353V150Q1390 149 1436 147L1530 143Q1670 136 1737 136T1837 158T1920 253T1994 352T2048 377Z" />
<glyph unicode="&#xc7;" glyph-name="Ccedilla" horiz-adv-x="1534" d="M823 -102Q1051 -139 1051 -279Q1051 -378 958 -439T715 -500Q666 -500 646 -486T626 -452T645 -424T731 -407Q870 -389 870 -299Q870 -244 781 -225L741 -216Q710 -210 705 -200T699 -178Q699
-148 732 -76L765 -6Q459 32 274 239T88 771Q88 1133 311 1344T903 1555Q1041 1555 1154 1520Q1148 1535 1148 1557T1173 1600T1228 1621T1283 1593T1343 1485T1442 1337L1478 1295Q1524 1242 1524 1200Q1524 1110 1449 1110Q1387 1110 1327 1210T1142 1358T887
1407Q615 1407 449 1241T282 778T455 312T872 143T1216 245Q1267 299 1287 334L1320 393Q1365 479 1410 490Q1425 494 1451 494T1501 467T1525 402Q1525 338 1444 250T1334 105T1299 -15Q1291 -100 1207 -100Q1170 -100 1141 -72T1112 -5Q1112 0 1112 5Q997 -15
944 -15H884Q876 -15 868 -14Q840 -62 823 -102Z" />
<glyph unicode="&#xc8;" glyph-name="Egrave" horiz-adv-x="1364" d="M1272 377Q1343 377 1343 304Q1343 269 1315 233Q1247 144 1212 38L1200 0Q1188 -44 1183 -75T1156 -123T1105 -139T1052 -112T1028 -64V-36Q1028 -31 1029 -26Q908 -5 764 -5Q612 0 504 0T304
-8T174 -16Q86 -16 86 66Q86 123 180 144Q212 151 257 151H340V1387H301Q110 1387 110 1479Q110 1555 249 1555L697 1541Q877 1541 1001 1563Q996 1579 996 1597T1015 1634T1070 1653Q1160 1653 1273 1344Q1294 1286 1294 1256Q1294 1187 1232 1187Q1177 1187 1140
1294Q1117 1360 1067 1386T938 1413H913Q861 1413 791 1407T680 1398L597 1392Q556 1389 526 1387V947Q766 947 800 953T850 973T872 1025T904 1082T955 1101T1000 1086T1020 1043T1002 967T984 872T1002 777L1028 705Q1038 680 1038 650T1016 601T960 583Q895
583 880 667T845 775T777 800H526V151Q569 150 612 148L701 144Q728 142 763 141T847 138T962 136T1061 158T1143 253T1217 352T1272 377ZM856 1670T843 1655T800 1639T740 1666L692 1706Q653 1738 614 1764L538 1814Q461 1865 461 1932Q461 1970 487 1995T553
2020Q620 2020 667 1950Q772 1800 814 1763T856 1698Z" />
<glyph unicode="&#xc9;" glyph-name="Eacute" horiz-adv-x="1364" d="M1272 377Q1343 377 1343 304Q1343 269 1315 233Q1247 144 1212 38L1200 0Q1188 -44 1183 -75T1156 -123T1105 -139T1052 -112T1028 -64V-36Q1028 -31 1029 -26Q908 -5 764 -5Q612 0 504 0T304
-8T174 -16Q86 -16 86 66Q86 123 180 144Q212 151 257 151H340V1387H301Q110 1387 110 1479Q110 1555 249 1555L697 1541Q877 1541 1001 1563Q996 1579 996 1597T1015 1634T1070 1653Q1160 1653 1273 1344Q1294 1286 1294 1256Q1294 1187 1232 1187Q1177 1187 1140
1294Q1117 1360 1067 1386T938 1413H913Q861 1413 791 1407T680 1398L597 1392Q556 1389 526 1387V947Q766 947 800 953T850 973T872 1025T904 1082T955 1101T1000 1086T1020 1043T1002 967T984 872T1002 777L1028 705Q1038 680 1038 650T1016 601T960 583Q895
583 880 667T845 775T777 800H526V151Q569 150 612 148L701 144Q728 142 763 141T847 138T962 136T1061 158T1143 253T1217 352T1272 377ZM544 1639Q488 1639 488 1698Q488 1725 521 1754T597 1839L635 1890Q654 1916 677 1950Q723 2020 777 2020T857 1995T883
1932Q883 1865 800 1810T693 1738L651 1706Q633 1692 603 1666T544 1639Z" />
<glyph unicode="&#xca;" glyph-name="Ecircumflex" horiz-adv-x="1364" d="M1272 377Q1343 377 1343 304Q1343 269 1315 233Q1247 144 1212 38L1200 0Q1188 -44 1183 -75T1156 -123T1105 -139T1052 -112T1028 -64V-36Q1028 -31 1029 -26Q908 -5 764 -5Q612 0 504
0T304 -8T174 -16Q86 -16 86 66Q86 123 180 144Q212 151 257 151H340V1387H301Q110 1387 110 1479Q110 1555 249 1555L697 1541Q877 1541 1001 1563Q996 1579 996 1597T1015 1634T1070 1653Q1160 1653 1273 1344Q1294 1286 1294 1256Q1294 1187 1232 1187Q1177
1187 1140 1294Q1117 1360 1067 1386T938 1413H913Q861 1413 791 1407T680 1398L597 1392Q556 1389 526 1387V947Q766 947 800 953T850 973T872 1025T904 1082T955 1101T1000 1086T1020 1043T1002 967T984 872T1002 777L1028 705Q1038 680 1038 650T1016 601T960
583Q895 583 880 667T845 775T777 800H526V151Q569 150 612 148L701 144Q728 142 763 141T847 138T962 136T1061 158T1143 253T1217 352T1272 377ZM486 1646T473 1643T438 1639T396 1658T375 1710T393 1766T467 1829T584 1937T660 2012T706 2020T781 1970Q869 1871
934 1824T1009 1753T1019 1704T999 1658T956 1639T916 1644T869 1676L697 1847Q517 1667 502 1657Z" />
<glyph unicode="&#xcb;" glyph-name="Edieresis" horiz-adv-x="1364" d="M1272 377Q1343 377 1343 304Q1343 269 1315 233Q1247 144 1212 38L1200 0Q1188 -44 1183 -75T1156 -123T1105 -139T1052 -112T1028 -64V-36Q1028 -31 1029 -26Q908 -5 764 -5Q612 0 504
0T304 -8T174 -16Q86 -16 86 66Q86 123 180 144Q212 151 257 151H340V1387H301Q110 1387 110 1479Q110 1555 249 1555L697 1541Q877 1541 1001 1563Q996 1579 996 1597T1015 1634T1070 1653Q1160 1653 1273 1344Q1294 1286 1294 1256Q1294 1187 1232 1187Q1177
1187 1140 1294Q1117 1360 1067 1386T938 1413H913Q861 1413 791 1407T680 1398L597 1392Q556 1389 526 1387V947Q766 947 800 953T850 973T872 1025T904 1082T955 1101T1000 1086T1020 1043T1002 967T984 872T1002 777L1028 705Q1038 680 1038 650T1016 601T960
583Q895 583 880 667T845 775T777 800H526V151Q569 150 612 148L701 144Q728 142 763 141T847 138T962 136T1061 158T1143 253T1217 352T1272 377ZM585 1874Q585 1777 503 1748Q480 1740 438 1740T361 1773T326 1859T362 1947T458 1982T551 1951T585 1874ZM1065
1874Q1065 1777 983 1748Q960 1740 918 1740T841 1773T806 1859T842 1947T938 1982T1031 1951T1065 1874Z" />
<glyph unicode="&#xcc;" glyph-name="Igrave" horiz-adv-x="850" d="M426 6L236 0Q191 0 165 21T139 79T169 138T251 161H336V1394H251Q200 1394 170 1416T139 1474T165 1532T236 1555L426 1548L601 1555Q683 1555 702 1506Q708 1492 708 1477Q708 1394 582 1394H522V161H582Q652
161 680 137T708 87Q708 0 601 0L426 6ZM593 1670T580 1655T537 1639T477 1666L429 1706Q390 1738 351 1764L275 1814Q198 1865 198 1932Q198 1970 224 1995T290 2020Q357 2020 404 1950Q509 1800 551 1763T593 1698Z" />
<glyph unicode="&#xcd;" glyph-name="Iacute" horiz-adv-x="850" d="M426 6L236 0Q191 0 165 21T139 79T169 138T251 161H336V1394H251Q200 1394 170 1416T139 1474T165 1532T236 1555L426 1548L601 1555Q683 1555 702 1506Q708 1492 708 1477Q708 1394 582 1394H522V161H582Q652
161 680 137T708 87Q708 0 601 0L426 6ZM281 1639Q225 1639 225 1698Q225 1725 258 1754T334 1839L372 1890Q391 1916 414 1950Q460 2020 514 2020T594 1995T620 1932Q620 1865 537 1810T430 1738L388 1706Q370 1692 340 1666T281 1639Z" />
<glyph unicode="&#xce;" glyph-name="Icircumflex" horiz-adv-x="850" d="M426 6L236 0Q191 0 165 21T139 79T169 138T251 161H336V1394H251Q200 1394 170 1416T139 1474T165 1532T236 1555L426 1548L601 1555Q683 1555 702 1506Q708 1492 708 1477Q708 1394 582
1394H522V161H582Q652 161 680 137T708 87Q708 0 601 0L426 6ZM223 1646T210 1643T175 1639T133 1658T112 1710T130 1766T204 1829T321 1937T397 2012T443 2020T518 1970Q606 1871 671 1824T746 1753T756 1704T736 1658T693 1639T653 1644T606 1676L434 1847Q254
1667 239 1657Z" />
<glyph unicode="&#xcf;" glyph-name="Idieresis" horiz-adv-x="850" d="M426 6L236 0Q191 0 165 21T139 79T169 138T251 161H336V1394H251Q200 1394 170 1416T139 1474T165 1532T236 1555L426 1548L601 1555Q683 1555 702 1506Q708 1492 708 1477Q708 1394 582
1394H522V161H582Q652 161 680 137T708 87Q708 0 601 0L426 6ZM579 1874Q579 1777 497 1748Q474 1740 432 1740T355 1773T320 1859T356 1947T452 1982T545 1951T579 1874ZM1059 1874Q1059 1777 977 1748Q954 1740 912 1740T835 1773T800 1859T836 1947T932 1982T1025
1951T1059 1874Z" />
<glyph unicode="&#xd0;" glyph-name="Eth" horiz-adv-x="1534" d="M884 779Q884 708 780 708H483V143Q540 140 648 140T854 163T1010 219Q1138 289 1217 431T1297 778Q1297 1154 1049 1295Q863 1401 542 1401Q515 1401 483 1399V850H780Q833 850 858 830T884 779ZM298
1383L182 1367Q51 1367 51 1449Q51 1504 112 1529T353 1555H545Q1280 1555 1440 1116Q1492 975 1492 821Q1492 542 1363 342T1038 64T606 -15L395 0Q336 0 287 -6T199 -13Q76 -13 76 77T222 168H264Q281 168 298 166V708H187Q80 708 80 779T187 850H298V1383Z"
/>
<glyph unicode="&#xd1;" glyph-name="Ntilde" horiz-adv-x="1835" d="M432 6L232 0Q188 0 163 21T137 79T167 138T249 161H345V1398L260 1390Q252 1390 245 1390Q184 1390 152 1413T119 1476Q119 1555 252 1555Q442 1555 513 1522T625 1435T698 1333L1345 300Q1338
405 1338 473V1394H1244Q1193 1394 1162 1416T1131 1474T1157 1532T1228 1555L1428 1548L1614 1555Q1695 1555 1714 1506Q1720 1492 1720 1477Q1720 1394 1595 1394H1522V162H1574Q1704 162 1704 78Q1704 0 1574 0H1486Q1418 0 1367 31T1286 105L520 1301Q529 1206
529 1090V161H600Q669 161 697 137T726 87Q726 0 619 0L432 6ZM622 1743Q594 1743 571 1764T548 1820Q548 1892 624 1956T787 2020T955 1927Q996 1881 1009 1873T1040 1865T1070 1878T1107 1932Q1146 2000 1208 2000Q1235 2000 1258 1979T1281 1922Q1281 1853 1205
1788T1041 1723T869 1822Q827 1872 811 1875T784 1878Q761 1878 723 1811T622 1743Z" />
<glyph unicode="&#xd2;" glyph-name="Ograve" horiz-adv-x="1706" d="M259 501T419 327T844 152T1277 318T1445 775T1279 1226T853 1388T427 1210T259 766ZM185 307T131 448T76 731Q76 985 182 1168T468 1453T862 1555Q1015 1555 1154 1503T1400 1353T1570 1114T1633
796Q1633 437 1419 211T852 -15T285 204Q185 307 131 448ZM1025 1670T1012 1655T969 1639T909 1666L861 1706Q822 1738 783 1764L707 1814Q630 1865 630 1932Q630 1970 656 1995T722 2020Q789 2020 836 1950Q941 1800 983 1763T1025 1698Z" />
<glyph unicode="&#xd3;" glyph-name="Oacute" horiz-adv-x="1706" d="M259 501T419 327T844 152T1277 318T1445 775T1279 1226T853 1388T427 1210T259 766ZM185 307T131 448T76 731Q76 985 182 1168T468 1453T862 1555Q1015 1555 1154 1503T1400 1353T1570 1114T1633
796Q1633 437 1419 211T852 -15T285 204Q185 307 131 448ZM713 1639Q657 1639 657 1698Q657 1725 690 1754T766 1839L804 1890Q823 1916 846 1950Q892 2020 946 2020T1026 1995T1052 1932Q1052 1865 969 1810T862 1738L820 1706Q802 1692 772 1666T713 1639Z" />
<glyph unicode="&#xd4;" glyph-name="Ocircumflex" horiz-adv-x="1706" d="M259 501T419 327T844 152T1277 318T1445 775T1279 1226T853 1388T427 1210T259 766ZM185 307T131 448T76 731Q76 985 182 1168T468 1453T862 1555Q1015 1555 1154 1503T1400 1353T1570
1114T1633 796Q1633 437 1419 211T852 -15T285 204Q185 307 131 448ZM655 1646T642 1643T607 1639T565 1658T544 1710T562 1766T636 1829T753 1937T829 2012T875 2020T950 1970Q1038 1871 1103 1824T1178 1753T1188 1704T1168 1658T1125 1639T1085 1644T1038 1676L866
1847Q686 1667 671 1657Z" />
<glyph unicode="&#xd5;" glyph-name="Otilde" horiz-adv-x="1706" d="M259 501T419 327T844 152T1277 318T1445 775T1279 1226T853 1388T427 1210T259 766ZM185 307T131 448T76 731Q76 985 182 1168T468 1453T862 1555Q1015 1555 1154 1503T1400 1353T1570 1114T1633
796Q1633 437 1419 211T852 -15T285 204Q185 307 131 448ZM572 1743Q544 1743 521 1764T498 1820Q498 1892 574 1956T737 2020T905 1927Q946 1881 959 1873T990 1865T1020 1878T1057 1932Q1096 2000 1158 2000Q1185 2000 1208 1979T1231 1922Q1231 1853 1155 1788T991
1723T819 1822Q777 1872 761 1875T734 1878Q711 1878 673 1811T572 1743Z" />
<glyph unicode="&#xd6;" glyph-name="Odieresis" horiz-adv-x="1706" d="M259 501T419 327T844 152T1277 318T1445 775T1279 1226T853 1388T427 1210T259 766ZM185 307T131 448T76 731Q76 985 182 1168T468 1453T862 1555Q1015 1555 1154 1503T1400 1353T1570
1114T1633 796Q1633 437 1419 211T852 -15T285 204Q185 307 131 448ZM754 1874Q754 1777 672 1748Q649 1740 607 1740T530 1773T495 1859T531 1947T627 1982T720 1951T754 1874ZM1234 1874Q1234 1777 1152 1748Q1129 1740 1087 1740T1010 1773T975 1859T1011 1947T1107
1982T1200 1951T1234 1874Z" />
<glyph unicode="&#xd7;" glyph-name="multiply" horiz-adv-x="1022" d="M794 970Q872 970 872 895Q872 858 819 805L624 610L818 417Q871 364 871 326T851 268T795 247T704 303L510 496L316 303Q262 247 226 247T170 267T149 326T202 417L396 611L202 805Q149
858 149 895Q149 970 228 970Q265 970 316 919L510 725L705 919Q756 970 794 970Z" />
<glyph unicode="&#xd8;" glyph-name="Oslash" horiz-adv-x="1706" d="M548 225Q679 152 829 152Q1109 152 1277 318T1445 763T1297 1206L548 225ZM1192 1295Q1046 1388 838 1388Q594 1388 427 1210T259 756T439 306L1192 1295ZM821 -15Q616 -15 441 84L266 -145Q227
-206 179 -206Q158 -206 140 -191T122 -154Q122 -112 179 -36L330 162Q209 266 143 418T76 722Q76 985 182 1168T468 1453T875 1555T1296 1432L1423 1599Q1485 1680 1534 1680Q1557 1680 1573 1667T1589 1630T1576 1579T1511 1487L1405 1348Q1633 1135 1633 786T1419
211T821 -15Z" />
<glyph unicode="&#xd9;" glyph-name="Ugrave" horiz-adv-x="1532" d="M1539 1477Q1539 1394 1414 1394H1380V587Q1380 322 1204 154T774 -15T351 148T181 591V1394H127Q76 1394 45 1416T14 1474T40 1532T111 1555L293 1548L449 1555Q524 1555 532 1506Q535 1492
535 1464Q535 1394 430 1394H367V594Q367 373 484 258T782 143T1079 260T1195 594V1394H1111Q1018 1394 1018 1474T1095 1555H1112L1247 1548L1433 1555Q1514 1555 1534 1506Q1539 1492 1539 1477ZM952 1670T939 1655T896 1639T836 1666L788 1706Q749 1738 710
1764L634 1814Q557 1865 557 1932Q557 1970 583 1995T649 2020Q716 2020 763 1950Q868 1800 910 1763T952 1698Z" />
<glyph unicode="&#xda;" glyph-name="Uacute" horiz-adv-x="1532" d="M1539 1477Q1539 1394 1414 1394H1380V587Q1380 322 1204 154T774 -15T351 148T181 591V1394H127Q76 1394 45 1416T14 1474T40 1532T111 1555L293 1548L449 1555Q524 1555 532 1506Q535 1492
535 1464Q535 1394 430 1394H367V594Q367 373 484 258T782 143T1079 260T1195 594V1394H1111Q1018 1394 1018 1474T1095 1555H1112L1247 1548L1433 1555Q1514 1555 1534 1506Q1539 1492 1539 1477ZM640 1639Q584 1639 584 1698Q584 1725 617 1754T693 1839L731
1890Q750 1916 773 1950Q819 2020 873 2020T953 1995T979 1932Q979 1865 896 1810T789 1738L747 1706Q729 1692 699 1666T640 1639Z" />
<glyph unicode="&#xdb;" glyph-name="Ucircumflex" horiz-adv-x="1532" d="M1539 1477Q1539 1394 1414 1394H1380V587Q1380 322 1204 154T774 -15T351 148T181 591V1394H127Q76 1394 45 1416T14 1474T40 1532T111 1555L293 1548L449 1555Q524 1555 532 1506Q535
1492 535 1464Q535 1394 430 1394H367V594Q367 373 484 258T782 143T1079 260T1195 594V1394H1111Q1018 1394 1018 1474T1095 1555H1112L1247 1548L1433 1555Q1514 1555 1534 1506Q1539 1492 1539 1477ZM582 1646T569 1643T534 1639T492 1658T471 1710T489 1766T563
1829T680 1937T756 2012T802 2020T877 1970Q965 1871 1030 1824T1105 1753T1115 1704T1095 1658T1052 1639T1012 1644T965 1676L793 1847Q613 1667 598 1657Z" />
<glyph unicode="&#xdc;" glyph-name="Udieresis" horiz-adv-x="1532" d="M1539 1477Q1539 1394 1414 1394H1380V587Q1380 322 1204 154T774 -15T351 148T181 591V1394H127Q76 1394 45 1416T14 1474T40 1532T111 1555L293 1548L449 1555Q524 1555 532 1506Q535
1492 535 1464Q535 1394 430 1394H367V594Q367 373 484 258T782 143T1079 260T1195 594V1394H1111Q1018 1394 1018 1474T1095 1555H1112L1247 1548L1433 1555Q1514 1555 1534 1506Q1539 1492 1539 1477ZM681 1874Q681 1777 599 1748Q576 1740 534 1740T457 1773T422
1859T458 1947T554 1982T647 1951T681 1874ZM1161 1874Q1161 1777 1079 1748Q1056 1740 1014 1740T937 1773T902 1859T938 1947T1034 1982T1127 1951T1161 1874Z" />
<glyph unicode="&#xdd;" glyph-name="Yacute" horiz-adv-x="1706" d="M80 1550L213 1536Q247 1536 269 1537L314 1539Q364 1541 386 1544L427 1548Q490 1555 532 1555T599 1535T624 1477T584 1414T455 1388H414Q465 1322 516 1248L811 787L855 708L900 787L1089
1080Q1232 1294 1301 1388H1253Q1178 1388 1135 1411T1092 1473T1117 1533T1178 1555T1249 1552L1313 1545Q1343 1541 1380 1540L1438 1537Q1460 1536 1477 1536L1628 1548Q1685 1548 1708 1500Q1715 1486 1715 1456T1683 1410T1599 1388T1492 1329Q1394 1239 1245
1014L1081 772Q952 587 952 502V161H1063Q1133 161 1161 137T1189 80T1165 24T1083 0H1058Q1043 0 1026 0L992 2Q976 2 944 4T863 6T774 4T715 2L678 0Q660 0 644 0H617Q572 0 546 21T519 79T550 138T633 161H766V484Q766 576 629 774L561 870Q488 972 431 1061T321
1220Q209 1369 108 1388L70 1394Q-8 1408 -8 1471Q-8 1550 80 1550ZM704 1639Q648 1639 648 1698Q648 1725 681 1754T757 1839L795 1890Q814 1916 837 1950Q883 2020 937 2020T1017 1995T1043 1932Q1043 1865 960 1810T853 1738L811 1706Q793 1692 763 1666T704
1639Z" />
<glyph unicode="&#xde;" glyph-name="Thorn" horiz-adv-x="1536" d="M986 1050Q894 1070 757 1070T527 1058V527Q634 517 765 517Q1253 517 1253 790Q1253 990 986 1050ZM441 6L231 0Q186 0 160 21T134 79T164 138T246 161H341V1413H246Q195 1413 165 1436T134
1495T160 1552T231 1574L441 1568L638 1574Q717 1574 739 1526Q745 1512 745 1487T717 1438T618 1413H527V1222Q648 1235 794 1235Q1096 1235 1273 1119T1450 800Q1450 476 1064 385Q933 354 812 354T650 356L580 360Q551 361 527 363V161H618Q688 161 716 137T745
87Q745 0 638 0L441 6Z" />
<glyph unicode="&#xdf;" glyph-name="germandbls" horiz-adv-x="1366" d="M877 237Q877 143 993 143Q1057 143 1096 206T1135 341Q1135 468 1083 547T882 735Q697 869 697 969Q697 1013 719 1048T800 1137T875 1221T893 1286Q893 1352 831 1393T682 1434Q567 1434
506 1343T444 1066V150H482Q608 150 608 71Q608 43 584 22T515 0T434 3L356 6L255 3Q216 0 166 0Q70 0 70 74Q70 110 100 130T183 150H270V868Q240 865 191 865T116 887T89 944T115 1000T184 1020T270 1018V1083Q270 1308 385 1451T680 1594T957 1509T1055 1292T919
1046Q873 1008 870 996T866 971Q866 943 1022 836T1243 626T1308 406Q1308 201 1214 93T981 -15T771 47T700 189Q700 241 733 274T806 308Q877 308 877 237Z" />
<glyph unicode="&#xe0;" glyph-name="agrave" horiz-adv-x="1194" d="M836 416Q674 447 549 447T364 398T304 285T359 182T513 141Q716 141 836 272V416ZM859 117Q749 -15 494 -15Q324 -15 224 63T123 274Q123 495 368 562Q451 584 582 584T836 554V664Q836 829
704 866Q657 880 578 880Q409 880 383 790Q367 742 326 721Q308 712 285 712Q190 712 190 814Q190 901 304 968T595 1035Q893 1035 980 824Q1009 752 1009 654V395Q1009 259 1020 213T1061 147Q1114 113 1114 68Q1114 -15 1010 -15T859 117ZM747 1202T734 1187T691
1171T631 1197L583 1239Q544 1270 505 1296L429 1346Q352 1397 352 1464Q352 1502 378 1527T444 1552Q511 1552 558 1482Q663 1332 705 1295T747 1230Z" />
<glyph unicode="&#xe1;" glyph-name="aacute" horiz-adv-x="1194" d="M836 416Q674 447 549 447T364 398T304 285T359 182T513 141Q716 141 836 272V416ZM859 117Q749 -15 494 -15Q324 -15 224 63T123 274Q123 495 368 562Q451 584 582 584T836 554V664Q836 829
704 866Q657 880 578 880Q409 880 383 790Q367 742 326 721Q308 712 285 712Q190 712 190 814Q190 901 304 968T595 1035Q893 1035 980 824Q1009 752 1009 654V395Q1009 259 1020 213T1061 147Q1114 113 1114 68Q1114 -15 1010 -15T859 117ZM459 1171Q403 1171
403 1230Q403 1257 436 1286T511 1371L550 1422Q569 1448 591 1482Q638 1552 692 1552T772 1527T798 1464Q798 1397 715 1342T608 1270L567 1239Q548 1224 518 1198T459 1171Z" />
<glyph unicode="&#xe2;" glyph-name="acircumflex" horiz-adv-x="1194" d="M836 416Q674 447 549 447T364 398T304 285T359 182T513 141Q716 141 836 272V416ZM859 117Q749 -15 494 -15Q324 -15 224 63T123 274Q123 495 368 562Q451 584 582 584T836 554V664Q836
829 704 866Q657 880 578 880Q409 880 383 790Q367 742 326 721Q308 712 285 712Q190 712 190 814Q190 901 304 968T595 1035Q893 1035 980 824Q1009 752 1009 654V395Q1009 259 1020 213T1061 147Q1114 113 1114 68Q1114 -15 1010 -15T859 117ZM384 1188T371 1185T336
1181T294 1200T273 1252T291 1308T365 1371T482 1479T558 1554T604 1562T679 1512Q767 1413 832 1366T907 1295T917 1246T897 1200T854 1181T814 1186T767 1219L595 1389Q415 1209 400 1199Z" />
<glyph unicode="&#xe3;" glyph-name="atilde" horiz-adv-x="1194" d="M836 416Q674 447 549 447T364 398T304 285T359 182T513 141Q716 141 836 272V416ZM859 117Q749 -15 494 -15Q324 -15 224 63T123 274Q123 495 368 562Q451 584 582 584T836 554V664Q836 829
704 866Q657 880 578 880Q409 880 383 790Q367 742 326 721Q308 712 285 712Q190 712 190 814Q190 901 304 968T595 1035Q893 1035 980 824Q1009 752 1009 654V395Q1009 259 1020 213T1061 147Q1114 113 1114 68Q1114 -15 1010 -15T859 117ZM303 1457Q276 1457
253 1478T230 1534Q230 1606 306 1670T469 1734T637 1641Q678 1595 691 1587T722 1579T752 1592T789 1646Q828 1714 890 1714Q917 1714 940 1693T963 1637Q963 1567 887 1502T723 1437T551 1536Q509 1586 493 1589T466 1592Q443 1592 405 1525T303 1457Z" />
<glyph unicode="&#xe4;" glyph-name="adieresis" horiz-adv-x="1194" d="M836 416Q674 447 549 447T364 398T304 285T359 182T513 141Q716 141 836 272V416ZM859 117Q749 -15 494 -15Q324 -15 224 63T123 274Q123 495 368 562Q451 584 582 584T836 554V664Q836
829 704 866Q657 880 578 880Q409 880 383 790Q367 742 326 721Q308 712 285 712Q190 712 190 814Q190 901 304 968T595 1035Q893 1035 980 824Q1009 752 1009 654V395Q1009 259 1020 213T1061 147Q1114 113 1114 68Q1114 -15 1010 -15T859 117ZM516 1315Q516 1218
434 1189Q411 1181 369 1181T292 1214T257 1300T293 1388T389 1423T482 1392T516 1315ZM936 1315Q936 1218 854 1189Q831 1181 789 1181T712 1214T677 1300T713 1388T809 1423T902 1392T936 1315Z" />
<glyph unicode="&#xe5;" glyph-name="aring" horiz-adv-x="1194" d="M836 416Q674 447 549 447T364 398T304 285T359 182T513 141Q716 141 836 272V416ZM859 117Q749 -15 494 -15Q324 -15 224 63T123 274Q123 495 368 562Q451 584 582 584T836 554V664Q836 829
704 866Q657 880 578 880Q409 880 383 790Q367 742 326 721Q308 712 285 712Q190 712 190 814Q190 901 304 968T595 1035Q893 1035 980 824Q1009 752 1009 654V395Q1009 259 1020 213T1061 147Q1114 113 1114 68Q1114 -15 1010 -15T859 117ZM461 1490Q461 1391
542 1361Q566 1352 607 1352T685 1386T721 1474T686 1566T592 1603T497 1566T461 1490ZM471 1213T389 1289T306 1476T388 1662T592 1737T796 1662T879 1477T793 1290T589 1213Z" />
<glyph unicode="&#xe6;" glyph-name="ae" horiz-adv-x="1880" d="M549 441Q327 441 283 338Q271 309 271 280Q271 222 326 182T485 141T683 185T829 306Q811 355 805 409Q647 441 549 441ZM977 605Q1049 601 1106 601H1208Q1456 601 1513 631T1570 722T1501 830T1347
877Q1195 877 1098 804T977 605ZM1656 315Q1744 315 1744 236Q1744 200 1717 156T1636 73Q1512 -15 1323 -15Q1188 -15 1081 36T904 174Q744 -15 470 -15T115 155Q90 208 90 276Q90 418 202 501T529 584Q681 584 803 554V647Q803 767 743 823T574 880T415 859T349
790T292 721Q275 712 252 712Q157 712 157 814Q157 901 271 968T562 1035Q830 1035 930 842Q997 930 1098 982T1316 1035Q1521 1035 1632 943T1744 715T1636 514T1186 448Q1090 448 977 453Q987 315 1084 229T1334 143Q1531 143 1580 248Q1611 315 1656 315Z" />
<glyph unicode="&#xe7;" glyph-name="ccedilla" horiz-adv-x="1194" d="M514 -177Q514 -136 577 -13Q385 2 252 140T119 503T272 882T656 1035Q719 1035 783 1015Q781 1020 781 1024V1046Q781 1065 799 1086T847 1108Q899 1108 916 1056L928 1021Q952 958 1012
885T1073 774T1054 716T1004 695Q945 695 881 778Q800 877 644 877T391 771T293 502T391 241T636 143Q833 143 888 261Q923 325 967 325T1034 304T1056 248Q1056 168 954 86T684 -12Q670 -36 659 -58L638 -102Q866 -139 866 -279Q866 -378 773 -439T530 -500Q481
-500 461 -486T441 -452T460 -424T546 -407Q685 -389 685 -299Q685 -244 596 -225L556 -216Q525 -210 520 -200T514 -177Z" />
<glyph unicode="&#xe8;" glyph-name="egrave" horiz-adv-x="1194" d="M299 604L368 602Q402 601 586 601T827 631T884 722T815 830T662 877Q515 877 420 802T299 604ZM970 315Q1058 315 1058 236Q1058 200 1031 156T950 73Q826 -15 626 -15T278 120Q205 187 161
285T117 500Q117 728 267 881T645 1035Q835 1035 946 943T1058 715T949 514T535 447Q454 447 295 453Q313 298 415 221T628 143T803 167T896 253T970 315ZM798 1202T785 1187T742 1171T682 1197L634 1239Q595 1270 556 1296L480 1346Q403 1397 403 1464Q403 1502
429 1527T495 1552Q562 1552 609 1482Q714 1332 756 1295T798 1230Z" />
<glyph unicode="&#xe9;" glyph-name="eacute" horiz-adv-x="1194" d="M299 604L368 602Q402 601 586 601T827 631T884 722T815 830T662 877Q515 877 420 802T299 604ZM970 315Q1058 315 1058 236Q1058 200 1031 156T950 73Q826 -15 626 -15T278 120Q205 187 161
285T117 500Q117 728 267 881T645 1035Q835 1035 946 943T1058 715T949 514T535 447Q454 447 295 453Q313 298 415 221T628 143T803 167T896 253T970 315ZM510 1171Q454 1171 454 1230Q454 1257 487 1286T562 1371L601 1422Q620 1448 642 1482Q689 1552 743 1552T823
1527T849 1464Q849 1397 766 1342T659 1270L618 1239Q599 1224 569 1198T510 1171Z" />
<glyph unicode="&#xea;" glyph-name="ecircumflex" horiz-adv-x="1194" d="M299 604L368 602Q402 601 586 601T827 631T884 722T815 830T662 877Q515 877 420 802T299 604ZM970 315Q1058 315 1058 236Q1058 200 1031 156T950 73Q826 -15 626 -15T278 120Q205 187
161 285T117 500Q117 728 267 881T645 1035Q835 1035 946 943T1058 715T949 514T535 447Q454 447 295 453Q313 298 415 221T628 143T803 167T896 253T970 315ZM435 1188T422 1185T387 1181T345 1200T324 1252T342 1308T416 1371T533 1479T609 1554T655 1562T730
1512Q818 1413 883 1366T958 1295T968 1246T948 1200T905 1181T865 1186T818 1219L646 1389Q466 1209 451 1199Z" />
<glyph unicode="&#xeb;" glyph-name="edieresis" horiz-adv-x="1194" d="M299 604L368 602Q402 601 586 601T827 631T884 722T815 830T662 877Q515 877 420 802T299 604ZM970 315Q1058 315 1058 236Q1058 200 1031 156T950 73Q826 -15 626 -15T278 120Q205 187
161 285T117 500Q117 728 267 881T645 1035Q835 1035 946 943T1058 715T949 514T535 447Q454 447 295 453Q313 298 415 221T628 143T803 167T896 253T970 315ZM567 1315Q567 1218 485 1189Q462 1181 420 1181T343 1214T308 1300T344 1388T440 1423T533 1392T567
1315ZM987 1315Q987 1218 905 1189Q882 1181 840 1181T763 1214T728 1300T764 1388T860 1423T953 1392T987 1315Z" />
<glyph unicode="&#xec;" glyph-name="igrave" horiz-adv-x="682" d="M592 0L404 6Q362 6 341 5L297 3Q247 0 209 0Q112 0 112 74Q112 110 142 130T224 150H302V802Q302 862 276 862Q264 862 239 855T182 848T125 869T100 926Q100 1002 208 1013Q275 1019 317 1031T400
1043Q475 1043 475 947V150H554Q680 150 680 71Q680 43 656 22T592 0ZM506 1202T493 1187T450 1171T390 1197L342 1239Q303 1270 264 1296L188 1346Q111 1397 111 1464Q111 1502 137 1527T203 1552Q270 1552 317 1482Q422 1332 464 1295T506 1230Z" />
<glyph unicode="&#xed;" glyph-name="iacute" horiz-adv-x="682" d="M592 0L404 6Q362 6 341 5L297 3Q247 0 209 0Q112 0 112 74Q112 110 142 130T224 150H302V802Q302 862 276 862Q264 862 239 855T182 848T125 869T100 926Q100 1002 208 1013Q275 1019 317 1031T400
1043Q475 1043 475 947V150H554Q680 150 680 71Q680 43 656 22T592 0ZM218 1427Q162 1427 162 1486Q162 1513 195 1542T270 1627L309 1678Q328 1704 350 1738Q397 1808 451 1808T531 1783T557 1720Q557 1653 474 1598T367 1526L326 1495Q307 1480 277 1454T218
1427Z" />
<glyph unicode="&#xee;" glyph-name="icircumflex" horiz-adv-x="682" d="M592 0L404 6Q362 6 341 5L297 3Q247 0 209 0Q112 0 112 74Q112 110 142 130T224 150H302V802Q302 862 276 862Q264 862 239 855T182 848T125 869T100 926Q100 1002 208 1013Q275 1019
317 1031T400 1043Q475 1043 475 947V150H554Q680 150 680 71Q680 43 656 22T592 0ZM400 1444T387 1441T352 1437T310 1456T289 1508T307 1564T381 1627T498 1735T574 1810T620 1818T695 1768Q783 1669 848 1622T923 1551T933 1502T913 1456T870 1437T830 1442T783
1475L611 1645Q431 1465 416 1455Z" />
<glyph unicode="&#xef;" glyph-name="idieresis" horiz-adv-x="682" d="M592 0L404 6Q362 6 341 5L297 3Q247 0 209 0Q112 0 112 74Q112 110 142 130T224 150H302V802Q302 862 276 862Q264 862 239 855T182 848T125 869T100 926Q100 1002 208 1013Q275 1019 317
1031T400 1043Q475 1043 475 947V150H554Q680 150 680 71Q680 43 656 22T592 0ZM532 1571Q532 1474 450 1445Q427 1437 385 1437T308 1470T273 1556T309 1644T405 1679T498 1648T532 1571ZM952 1571Q952 1474 870 1445Q847 1437 805 1437T728 1470T693 1556T729
1644T825 1679T918 1648T952 1571Z" />
<glyph unicode="&#xf0;" glyph-name="eth" horiz-adv-x="1196" d="M889 577L888 614Q853 707 766 762T589 817Q431 817 348 728T264 488T357 240T574 143Q792 143 864 380Q889 463 889 577ZM441 1100Q371 1100 371 1157Q371 1192 428 1216L619 1294Q504 1380 335
1407Q273 1417 248 1439T223 1498Q223 1575 343 1575T591 1508T795 1365L924 1417Q1012 1452 1039 1452Q1106 1452 1106 1401Q1106 1372 1090 1356T1035 1324L882 1262Q1062 1007 1062 624Q1062 324 925 155T572 -15T223 126T90 480T224 834T553 975T862 869Q820
1070 720 1196L585 1142Q482 1100 441 1100Z" />
<glyph unicode="&#xf1;" glyph-name="ntilde" horiz-adv-x="1364" d="M172 0Q76 0 76 74Q76 110 106 130T189 150H278V802Q278 862 252 862Q238 862 215 855T159 848T101 869T76 926Q76 1002 184 1013Q241 1018 290 1030T378 1043Q451 1043 451 947V816Q494 912
592 973T799 1035Q993 1035 1074 937T1155 673V150H1222Q1348 150 1348 71Q1348 43 1324 22T1242 0L1066 6L876 0Q780 0 780 74Q780 110 810 130T893 150H980V608Q980 818 874 860Q837 875 785 875Q678 875 581 793T451 585V150H518Q644 150 644 71Q644 43 620
22T538 0L362 6L172 0ZM470 1201Q443 1201 420 1222T397 1278Q397 1350 473 1414T636 1478T804 1385Q845 1339 858 1331T889 1323T919 1336T956 1390Q995 1458 1057 1458Q1084 1458 1107 1437T1130 1381Q1130 1311 1054 1246T890 1181T718 1280Q676 1330 660 1333T633
1336Q610 1336 572 1269T470 1201Z" />
<glyph unicode="&#xf2;" glyph-name="ograve" horiz-adv-x="1194" d="M266 349T360 246T601 143T836 240T926 499Q926 768 735 850Q672 877 593 877Q442 877 354 779T266 515ZM92 732T237 883T603 1035T962 895T1101 520T957 135T588 -15T228 130T92 503ZM754
1202T741 1187T698 1171T638 1197L590 1239Q551 1270 512 1296L436 1346Q359 1397 359 1464Q359 1502 385 1527T451 1552Q518 1552 565 1482Q670 1332 712 1295T754 1230Z" />
<glyph unicode="&#xf3;" glyph-name="oacute" horiz-adv-x="1194" d="M266 349T360 246T601 143T836 240T926 499Q926 768 735 850Q672 877 593 877Q442 877 354 779T266 515ZM92 732T237 883T603 1035T962 895T1101 520T957 135T588 -15T228 130T92 503ZM466
1171Q410 1171 410 1230Q410 1257 443 1286T518 1371L557 1422Q576 1448 598 1482Q645 1552 699 1552T779 1527T805 1464Q805 1397 722 1342T615 1270L574 1239Q555 1224 525 1198T466 1171Z" />
<glyph unicode="&#xf4;" glyph-name="ocircumflex" horiz-adv-x="1194" d="M266 349T360 246T601 143T836 240T926 499Q926 768 735 850Q672 877 593 877Q442 877 354 779T266 515ZM92 732T237 883T603 1035T962 895T1101 520T957 135T588 -15T228 130T92 503ZM391
1188T378 1185T343 1181T301 1200T280 1252T298 1308T372 1371T489 1479T565 1554T611 1562T686 1512Q774 1413 839 1366T914 1295T924 1246T904 1200T861 1181T821 1186T774 1219L602 1389Q422 1209 407 1199Z" />
<glyph unicode="&#xf5;" glyph-name="otilde" horiz-adv-x="1194" d="M266 349T360 246T601 143T836 240T926 499Q926 768 735 850Q672 877 593 877Q442 877 354 779T266 515ZM92 732T237 883T603 1035T962 895T1101 520T957 135T588 -15T228 130T92 503ZM310
1457Q283 1457 260 1478T237 1534Q237 1606 313 1670T476 1734T644 1641Q685 1595 698 1587T729 1579T759 1592T796 1646Q835 1714 897 1714Q924 1714 947 1693T970 1637Q970 1567 894 1502T730 1437T558 1536Q516 1586 500 1589T473 1592Q450 1592 412 1525T310
1457Z" />
<glyph unicode="&#xf6;" glyph-name="odieresis" horiz-adv-x="1194" d="M266 349T360 246T601 143T836 240T926 499Q926 768 735 850Q672 877 593 877Q442 877 354 779T266 515ZM92 732T237 883T603 1035T962 895T1101 520T957 135T588 -15T228 130T92 503ZM523
1315Q523 1218 441 1189Q418 1181 376 1181T299 1214T264 1300T300 1388T396 1423T489 1392T523 1315ZM943 1315Q943 1218 861 1189Q838 1181 796 1181T719 1214T684 1300T720 1388T816 1423T909 1392T943 1315Z" />
<glyph unicode="&#xf7;" glyph-name="divide" horiz-adv-x="1022" d="M447 107T409 145T371 244T407 344T509 383T612 346T650 248T612 147T510 107ZM958 610Q958 529 834 529H191Q64 529 64 610Q64 645 94 668T191 691H834Q891 691 924 670T958 610ZM650 1002Q650
847 494 847Q447 847 409 885T371 984T407 1084T509 1123T612 1086T650 1002Z" />
<glyph unicode="&#xf8;" glyph-name="oslash" horiz-adv-x="1194" d="M459 173Q523 143 598 143Q747 143 836 240T926 505T840 773L459 173ZM732 851Q669 877 592 877Q442 877 354 779T266 518T354 253L732 851ZM586 -15Q469 -15 369 30L258 -145Q219 -206 171
-206Q150 -206 132 -191T114 -160Q114 -126 143 -80L257 101Q92 244 92 488T237 883T601 1035Q720 1035 820 992L916 1143Q970 1228 1021 1228Q1044 1228 1060 1215T1076 1185T1073 1154T1044 1095L934 921Q1101 775 1101 510Q1101 285 957 135T586 -15Z" />
<glyph unicode="&#xf9;" glyph-name="ugrave" horiz-adv-x="1190" d="M841 188Q742 -15 509 -15Q433 -15 368 12Q187 88 187 345V794Q187 852 161 852L87 840Q-2 840 -2 922Q-2 995 94 1004Q151 1009 183 1018L234 1030Q253 1035 288 1035T342 1008T361 939V410Q361
209 462 162Q499 145 549 145Q643 145 724 237T838 462V794Q838 832 831 842T811 852L741 840Q652 840 652 922Q652 995 750 1004Q802 1009 835 1017L885 1030Q903 1035 938 1035T992 1008T1011 939V395Q1011 207 1057 164Q1071 151 1094 142Q1134 126 1134 79Q1134
-15 1023 -15T864 96Q847 135 841 188ZM733 1202T720 1187T677 1171T617 1197L569 1239Q530 1270 491 1296L415 1346Q338 1397 338 1464Q338 1502 364 1527T430 1552Q497 1552 544 1482Q649 1332 691 1295T733 1230Z" />
<glyph unicode="&#xfa;" glyph-name="uacute" horiz-adv-x="1190" d="M841 188Q742 -15 509 -15Q433 -15 368 12Q187 88 187 345V794Q187 852 161 852L87 840Q-2 840 -2 922Q-2 995 94 1004Q151 1009 183 1018L234 1030Q253 1035 288 1035T342 1008T361 939V410Q361
209 462 162Q499 145 549 145Q643 145 724 237T838 462V794Q838 832 831 842T811 852L741 840Q652 840 652 922Q652 995 750 1004Q802 1009 835 1017L885 1030Q903 1035 938 1035T992 1008T1011 939V395Q1011 207 1057 164Q1071 151 1094 142Q1134 126 1134 79Q1134
-15 1023 -15T864 96Q847 135 841 188ZM445 1171Q389 1171 389 1230Q389 1257 422 1286T497 1371L536 1422Q555 1448 577 1482Q624 1552 678 1552T758 1527T784 1464Q784 1397 701 1342T594 1270L553 1239Q534 1224 504 1198T445 1171Z" />
<glyph unicode="&#xfb;" glyph-name="ucircumflex" horiz-adv-x="1190" d="M841 188Q742 -15 509 -15Q433 -15 368 12Q187 88 187 345V794Q187 852 161 852L87 840Q-2 840 -2 922Q-2 995 94 1004Q151 1009 183 1018L234 1030Q253 1035 288 1035T342 1008T361 939V410Q361
209 462 162Q499 145 549 145Q643 145 724 237T838 462V794Q838 832 831 842T811 852L741 840Q652 840 652 922Q652 995 750 1004Q802 1009 835 1017L885 1030Q903 1035 938 1035T992 1008T1011 939V395Q1011 207 1057 164Q1071 151 1094 142Q1134 126 1134 79Q1134
-15 1023 -15T864 96Q847 135 841 188ZM370 1188T357 1185T322 1181T280 1200T259 1252T277 1308T351 1371T468 1479T544 1554T590 1562T665 1512Q753 1413 818 1366T893 1295T903 1246T883 1200T840 1181T800 1186T753 1219L581 1389Q401 1209 386 1199Z" />
<glyph unicode="&#xfc;" glyph-name="udieresis" horiz-adv-x="1190" d="M841 188Q742 -15 509 -15Q433 -15 368 12Q187 88 187 345V794Q187 852 161 852L87 840Q-2 840 -2 922Q-2 995 94 1004Q151 1009 183 1018L234 1030Q253 1035 288 1035T342 1008T361 939V410Q361
209 462 162Q499 145 549 145Q643 145 724 237T838 462V794Q838 832 831 842T811 852L741 840Q652 840 652 922Q652 995 750 1004Q802 1009 835 1017L885 1030Q903 1035 938 1035T992 1008T1011 939V395Q1011 207 1057 164Q1071 151 1094 142Q1134 126 1134 79Q1134
-15 1023 -15T864 96Q847 135 841 188ZM502 1315Q502 1218 420 1189Q397 1181 355 1181T278 1214T243 1300T279 1388T375 1423T468 1392T502 1315ZM922 1315Q922 1218 840 1189Q817 1181 775 1181T698 1214T663 1300T699 1388T795 1423T888 1392T922 1315Z" />
<glyph unicode="&#xfd;" glyph-name="yacute" horiz-adv-x="1194" d="M1091 1020Q1173 1020 1173 952Q1173 918 1152 903T1112 878Q1037 838 960 645L646 -125Q553 -359 478 -449T284 -540T98 -477T31 -338T62 -221T142 -180Q232 -180 232 -261Q232 -281 224 -301T215
-338T235 -370T284 -385Q341 -385 397 -300T539 14L250 645Q171 814 84 876Q27 917 27 956Q27 1020 110 1020L218 1013L397 1026Q445 1026 470 1007T495 960Q495 869 340 869L626 209L871 869H856Q700 869 700 960Q700 988 724 1007T796 1026L977 1013L1091 1020ZM470
1171Q414 1171 414 1230Q414 1257 447 1286T522 1371L561 1422Q580 1448 602 1482Q649 1552 703 1552T783 1527T809 1464Q809 1397 726 1342T619 1270L578 1239Q559 1224 529 1198T470 1171Z" />
<glyph unicode="&#xfe;" glyph-name="thorn" horiz-adv-x="1194" d="M649 879Q468 879 357 723V240Q458 143 616 143T867 252T961 508Q961 789 775 858Q718 879 649 879ZM357 903Q474 1035 671 1035T1002 905T1135 535T988 140T608 -15Q507 -15 410 28Q380 41
357 59V-140Q357 -289 384 -334Q395 -352 417 -366Q460 -393 460 -433Q460 -523 360 -523Q238 -523 198 -355Q184 -299 184 -224V1353Q184 1391 177 1401T157 1411L72 1399Q32 1399 7 1419T-18 1477Q-18 1553 91 1563Q152 1569 183 1577L232 1590Q250 1594 285
1594T339 1567T357 1498V903Z" />
<glyph unicode="&#xff;" glyph-name="ydieresis" horiz-adv-x="1194" d="M1091 1020Q1173 1020 1173 952Q1173 918 1152 903T1112 878Q1037 838 960 645L646 -125Q553 -359 478 -449T284 -540T98 -477T31 -338T62 -221T142 -180Q232 -180 232 -261Q232 -281 224
-301T215 -338T235 -370T284 -385Q341 -385 397 -300T539 14L250 645Q171 814 84 876Q27 917 27 956Q27 1020 110 1020L218 1013L397 1026Q445 1026 470 1007T495 960Q495 869 340 869L626 209L871 869H856Q700 869 700 960Q700 988 724 1007T796 1026L977 1013L1091
1020ZM527 1315Q527 1218 445 1189Q422 1181 380 1181T303 1214T268 1300T304 1388T400 1423T493 1392T527 1315ZM947 1315Q947 1218 865 1189Q842 1181 800 1181T723 1214T688 1300T724 1388T820 1423T913 1392T947 1315Z" />
<glyph unicode="&#x2013;" glyph-name="endash" horiz-adv-x="1025" d="M477 577L221 571Q159 571 130 597T100 658T131 720T234 747L477 740L736 747Q796 747 825 721T854 659T827 597T761 571T692 572L629 574Q555 577 477 577Z" />
<glyph unicode="&#x2014;" glyph-name="emdash" horiz-adv-x="1196" d="M1000 571L577 582L157 571Q0 571 0 659T170 747L539 735Q706 735 805 741T1004 747Q1154 747 1154 659T1000 571Z" />
<glyph unicode="&#x2018;" glyph-name="quoteleft" horiz-adv-x="512" d="M340 1594Q399 1594 399 1543Q399 1507 356 1478Q277 1422 277 1365Q277 1331 323 1282T370 1177T337 1090T248 1058T153 1107T113 1220Q113 1394 206 1507Q250 1561 286 1577T340 1594Z" />
<glyph unicode="&#x2019;" glyph-name="quoteright" horiz-adv-x="512" d="M172 1058Q113 1058 113 1109Q113 1145 156 1174Q235 1230 235 1287Q235 1321 189 1370T142 1475T175 1562T264 1594T359 1545T399 1432Q399 1258 306 1145Q262 1091 226 1075T172 1058Z" />
<glyph unicode="&#x201a;" glyph-name="quotesinglbase" horiz-adv-x="512" d="M172 -302Q113 -302 113 -251Q113 -215 156 -186Q235 -130 235 -73Q235 -39 189 10T142 115T175 202T264 234T359 185T399 72Q399 -102 306 -215Q262 -269 226 -285T172 -302Z" />
<glyph unicode="&#x201c;" glyph-name="quotedblleft" horiz-adv-x="855" d="M588 1594Q647 1594 647 1543Q647 1507 604 1478Q525 1422 525 1365Q525 1331 571 1282T618 1177T585 1090T496 1058T401 1107T361 1220Q361 1394 454 1507Q498 1561 534 1577T588 1594ZM691
1594Q750 1594 750 1543Q750 1507 707 1478Q628 1422 628 1365Q628 1331 674 1282T721 1177T688 1090T599 1058T504 1107T464 1220Q464 1394 557 1507Q601 1561 637 1577T691 1594Z" />
<glyph unicode="&#x201d;" glyph-name="quotedblright" horiz-adv-x="855" d="M163 1058Q104 1058 104 1109Q104 1145 147 1174Q226 1230 226 1287Q226 1321 180 1370T133 1475T166 1562T255 1594T350 1545T390 1432Q390 1258 297 1145Q253 1091 217 1075T163
1058ZM523 1058Q464 1058 464 1109Q464 1145 507 1174Q586 1230 586 1287Q586 1321 540 1370T493 1475T526 1562T615 1594T710 1545T750 1432Q750 1258 657 1145Q613 1091 577 1075T523 1058Z" />
<glyph unicode="&#x201e;" glyph-name="quotedblbase" horiz-adv-x="855" d="M163 -302Q104 -302 104 -251Q104 -215 147 -186Q226 -130 226 -73Q226 -39 180 10T133 115T166 202T255 234T350 185T390 72Q390 -102 297 -215Q253 -269 217 -285T163 -302ZM523 -302Q464
-302 464 -251Q464 -215 507 -186Q586 -130 586 -73Q586 -39 540 10T493 115T526 202T615 234T710 185T750 72Q750 -102 657 -215Q613 -269 577 -285T523 -302Z" />
<glyph unicode="&#x2022;" glyph-name="bullet" horiz-adv-x="512" d="M172 478T120 528T67 659Q67 784 177 826Q212 840 255 840Q339 840 392 791T445 662T391 531T255 478Z" />
<glyph unicode="&#x2039;" glyph-name="guilsinglleft" horiz-adv-x="849" d="M213 475T204 490T194 528Q194 570 261 630Q375 734 472 870Q508 919 531 929T581 939T632 920T655 867T642 808T576 737T440 589L393 529Q412 503 474 429T582 315T641 251T655 192T632
138T575 119T518 137T437 237T296 396Z" />
<glyph unicode="&#x203a;" glyph-name="guilsinglright" horiz-adv-x="849" d="M636 475T645 490T655 528Q655 570 588 630Q474 734 377 870Q341 919 318 929T268 939T217 920T194 867T207 808T273 737T409 589L456 529Q437 503 375 429T267 315T208 251T194 192T217
138T274 119T331 137T412 237T553 396Z" />
</font>
</defs>
</svg>
