<?xml version="1.0" standalone="no"?>
<!DOCTYPE svg PUBLIC "-//W3C//DTD SVG 1.1//EN" "http://www.w3.org/Graphics/SVG/1.1/DTD/svg11.dtd">
<svg xmlns="http://www.w3.org/2000/svg">
<defs >
<font id="Neuton" horiz-adv-x="912" ><font-face
    font-family="Neuton Light"
    units-per-em="2048"
    panose-1="0 0 4 0 0 0 0 0 0 0"
    ascent="2106"
    descent="-485"
    alphabetic="0" />
<glyph unicode=" " glyph-name="space" horiz-adv-x="316" />
<glyph unicode="!" glyph-name="exclam" horiz-adv-x="293" d="M178 361Q199 615 214 873T230 1254Q230 1275 213 1284T171 1293Q138 1293 105 1283T71 1254Q71 1169 83 892T111 376L178 361ZM188 -35T213 -3T238 78Q238 123 211 153T145 184Q107 184 81 154T55
79Q55 31 79 -2T145 -35Q188 -35 213 -3Z" />
<glyph unicode="&quot;" glyph-name="quotedbl" horiz-adv-x="453" d="M96 891L169 899L205 1291L60 1303L96 891ZM283 891L357 899L393 1291L246 1303L283 891Z" />
<glyph unicode="#" glyph-name="numbersign" horiz-adv-x="1095" d="M1027 712H775L733 427H978L952 326H718L666 -19L572 -26L625 326H400L348 -19L255 -26L308 326H43L70 427H323L366 712H114L142 813H381L432 1150L525 1160L473 813H698L749 1150L842 1159L790
813H1052L1027 712ZM640 427L683 712H458L415 427H640Z" />
<glyph unicode="$" glyph-name="dollar" horiz-adv-x="850" d="M804 244T763 172T650 51T483 -15L494 -164L349 -179L359 -25Q262 -21 179 19T47 119L69 395L144 384L177 181Q205 132 262 99T389 58V564Q291 622 229 669T125 783T83 938Q83 1026 121 1094T223
1204T365 1262L354 1395L491 1411L478 1269Q552 1264 617 1238T731 1165L704 869L631 878L605 1096Q587 1130 543 1159T449 1197V721L497 692Q599 632 659 588T762 479T804 331Q804 244 763 172ZM219 925T264 868T393 756V1199Q317 1193 268 1141T219 1001Q219
925 264 868ZM506 65T553 91T628 163T657 274Q657 351 604 408T451 527V59Q506 65 553 91Z" />
<glyph unicode="%" glyph-name="percent" horiz-adv-x="1177" d="M647 591L300 -40L154 -26L530 588L846 1143L469 1150Q487 1128 501 1080T524 979T532 899Q532 816 496 743T403 627T287 584Q223 584 168 623T79 734T46 899Q46 981 80 1053T171 1169T288 1213Q312
1213 324 1209V1153Q312 1162 305 1165T284 1168Q228 1168 201 1085T174 899Q174 837 187 777T226 677T287 637Q345 637 374 716T404 899Q404 1083 358 1196L885 1211L1015 1207L1013 1191L647 591ZM954 591T1009 550T1096 436T1128 274Q1128 192 1093 121T1001
7T886 -36Q822 -36 766 3T676 113T642 277Q642 359 676 431T767 547T884 591Q954 591 1009 550ZM944 16T973 95T1002 280Q1002 343 988 404T947 506T884 546Q826 546 799 463T771 277Q771 215 784 155T824 55T886 16Q944 16 973 95Z" />
<glyph unicode="&amp;" glyph-name="ampersand" horiz-adv-x="1277" d="M458 -20T529 13T653 99T757 227L852 122Q905 63 969 22T1104 -20Q1135 -20 1157 -16T1210 -2L1220 52L1181 64Q1121 83 1033 155T837 356L1056 723L1225 757L1233 812H808L802 757L959 720L776
417L533 693V700Q650 778 712 854T775 1016Q775 1140 703 1206T502 1272Q424 1272 356 1231T247 1121T206 975Q206 900 247 825T348 687Q207 596 129 498T51 278Q51 192 90 124T201 18T367 -20Q458 -20 529 13ZM528 1200T564 1173T620 1098T640 994Q640 918 600
864T478 752Q414 818 370 889T326 1025Q326 1071 344 1111T398 1175T478 1200Q528 1200 564 1173ZM400 626L698 286Q646 198 576 142T419 86Q353 86 304 120T228 211T201 337Q201 425 252 494T390 627L400 626Z" />
<glyph unicode="&apos;" glyph-name="quotesingle" horiz-adv-x="265" d="M96 891L169 899L205 1291L59 1303L96 891Z" />
<glyph unicode="(" glyph-name="parenleft" horiz-adv-x="478" d="M401 1256Q333 1198 262 1112T128 856T64 450Q64 122 176 -77T396 -375L444 -330Q395 -250 347 -153T254 107T209 456Q209 651 245 797T330 1032T438 1201L401 1256Z" />
<glyph unicode=")" glyph-name="parenright" horiz-adv-x="477" d="M276 269T232 107T139 -152T41 -330L89 -375Q197 -276 309 -77T421 450Q421 687 358 856T223 1111T84 1256L47 1201Q107 1122 155 1033T239 797T276 456Q276 269 232 107Z" />
<glyph unicode="*" glyph-name="asterisk" horiz-adv-x="801" d="M371 974L95 1092L47 978L357 912L159 685L252 604L413 882L569 623L674 686L462 923L753 990L726 1106L436 981L461 1280L338 1291L371 974Z" />
<glyph unicode="+" glyph-name="plus" horiz-adv-x="637" d="M275 417V186L366 173L364 417H573L584 503H364L363 730L275 742V503H66L54 417H275Z" />
<glyph unicode="," glyph-name="comma" horiz-adv-x="414" d="M231 -252T292 -167T353 9Q353 78 330 125T270 195T194 218Q151 218 119 190T86 112Q86 95 94 71Q107 74 123 74Q171 74 203 39T235 -50Q235 -181 55 -240L73 -298Q231 -252 292 -167Z" />
<glyph unicode="-" glyph-name="hyphen" horiz-adv-x="545" d="M473 426L484 507L76 489L65 409L473 426Z" />
<glyph unicode="." glyph-name="period" horiz-adv-x="309" d="M197 -32T222 -1T247 80Q247 128 221 157T154 186Q113 186 89 158T64 81Q64 31 89 0T155 -32Q197 -32 222 -1Z" />
<glyph unicode="/" glyph-name="slash" horiz-adv-x="651" d="M144 -355L610 1244L503 1238L40 -361L144 -355Z" />
<glyph unicode="0" glyph-name="zero" horiz-adv-x="917" d="M569 -27T659 37T804 239T860 587Q860 787 812 925T675 1133T464 1203Q351 1203 258 1132T110 921T55 587Q55 369 108 232T253 34T463 -27Q569 -27 659 37ZM578 1125T634 986T691 587Q691 313 637 181T465
48Q343 48 283 182T223 584Q223 847 279 986T461 1125Q578 1125 634 986Z" />
<glyph unicode="1" glyph-name="one" horiz-adv-x="792" d="M741 1L750 70L482 98V1185H455L69 1121L64 1060H323V103L49 61L45 1H741Z" />
<glyph unicode="2" glyph-name="two" horiz-adv-x="910" d="M818 0L865 353L810 361L715 118H216L295 180Q476 324 578 417T749 623T818 860Q818 1031 726 1120T476 1209Q403 1209 330 1187T201 1130T116 1057L126 788L183 780L224 1021Q248 1066 301 1097T430
1128Q541 1128 592 1047T644 842Q644 738 603 648T485 471T283 278L45 74L51 0H818Z" />
<glyph unicode="3" glyph-name="three" horiz-adv-x="835" d="M460 -33T561 16T724 152T786 345Q786 423 745 483T633 582T471 633V643Q538 668 599 712T700 819T740 959Q740 1035 701 1092T594 1180T442 1211Q333 1211 244 1174T108 1092L115 844L179 833L222
1057Q292 1137 391 1137Q450 1137 491 1107T552 1029T573 929Q573 808 483 732T278 605L284 555Q379 553 456 519T576 426T620 292Q620 215 588 157T498 68T364 36Q301 36 247 67T169 138L159 342L92 353L47 90Q66 58 110 30T215 -16T345 -33Q460 -33 561 16Z"
/>
<glyph unicode="4" glyph-name="four" horiz-adv-x="1004" d="M559 361V95L312 57L305 0H897L908 64L702 89V357H941L957 462H702V683Q702 998 711 1176L662 1191L45 415L64 361H559ZM555 948V462H193L555 948Z" />
<glyph unicode="5" glyph-name="five" horiz-adv-x="801" d="M446 -16T543 36T695 177T750 368Q750 477 698 563T535 705T253 771L297 1032L682 1049L703 1198L254 1171L139 639Q356 625 479 541T603 308Q603 233 575 177T494 89T370 58Q308 58 255 82T162 155L144
355L77 369L49 88Q106 33 175 9T327 -16Q446 -16 543 36Z" />
<glyph unicode="6" glyph-name="six" horiz-adv-x="862" d="M527 -21T616 28T758 165T810 362Q810 462 771 541T660 664T492 709Q345 709 237 609H228Q263 784 364 931T658 1164L629 1214Q471 1160 340 1036T132 750T55 422Q55 299 92 199T211 39T419 -21Q527
-21 616 28ZM246 570T300 594T419 619Q492 619 543 580T621 474T647 327Q647 191 597 118T434 44Q373 44 324 91T247 222T218 407Q218 492 225 540Q246 570 300 594Z" />
<glyph unicode="7" glyph-name="seven" horiz-adv-x="879" d="M100 820L168 1047H719L245 -16L404 -33L837 1130V1182H74L46 829L100 820Z" />
<glyph unicode="8" glyph-name="eight" horiz-adv-x="810" d="M489 -27T576 14T713 127T762 291Q762 359 736 413T658 514T523 619L526 625Q609 668 664 749T720 927Q720 1004 685 1066T583 1165T424 1202Q330 1202 255 1161T138 1049T95 897Q95 803 142 731T279
597V590Q49 454 49 281Q49 192 92 122T211 12T377 -27Q489 -27 576 14ZM450 1141T496 1108T569 1017T596 890Q596 807 562 751T469 656Q332 744 274 812T215 955Q215 1007 237 1049T300 1116T398 1141Q450 1141 496 1108ZM488 459T560 386T632 233Q632 146 578
97T431 47Q375 47 319 78T226 170T189 312Q189 397 226 451T332 557Q488 459 560 386Z" />
<glyph unicode="9" glyph-name="nine" horiz-adv-x="845" d="M499 472T608 576H618Q592 384 488 241T159 31L178 -27Q360 7 500 123T716 407T792 760Q792 883 754 984T635 1147T430 1209Q329 1209 241 1158T101 1018T48 818Q48 718 83 640T187 517T349 472Q499
472 608 576ZM474 1144T523 1099T601 973T630 793Q630 702 621 651Q598 616 546 591T430 565Q357 565 307 603T231 707T206 853Q206 996 255 1070T415 1144Q474 1144 523 1099Z" />
<glyph unicode=":" glyph-name="colon" horiz-adv-x="302" d="M193 630T217 660T241 739Q241 785 217 813T153 842Q114 842 90 814T65 740Q65 691 89 661T153 630Q193 630 217 660ZM192 0T215 30T239 110Q239 156 215 183T151 211Q112 211 88 184T63 110Q63 62
87 31T152 0Q192 0 215 30Z" />
<glyph unicode=";" glyph-name="semicolon" horiz-adv-x="397" d="M215 629T240 660T265 741Q265 789 239 818T172 847Q131 847 107 819T82 742Q82 692 107 661T173 629Q215 629 240 660ZM223 -254T284 -173T345 -3Q345 63 322 108T262 175T186 197Q143 197 111
170T78 96Q78 80 86 56Q100 59 115 59Q163 59 195 25T227 -60Q227 -185 47 -243L65 -298Q223 -254 284 -173Z" />
<glyph unicode="&lt;" glyph-name="less" horiz-adv-x="764" d="M706 -82L748 -25L257 437L728 914L693 974L72 456L71 427L706 -82Z" />
<glyph unicode="=" glyph-name="equal" horiz-adv-x="754" d="M680 569L691 655H76L65 569H680ZM677 330L688 415H73L62 330H677Z" />
<glyph unicode="&gt;" glyph-name="greater" horiz-adv-x="766" d="M84 -82L719 427L718 456L97 974L62 914L533 437L42 -25L84 -82Z" />
<glyph unicode="?" glyph-name="question" horiz-adv-x="617" d="M134 1107T185 1127T294 1147Q341 1147 383 1118T450 1042T476 943Q476 904 457 875T410 825T334 777Q280 746 247 721T190 658T167 565Q167 509 192 449T248 354L306 371Q271 457 271 508Q271
543 288 569T330 615T400 662Q455 696 488 723T546 792T570 893Q570 998 523 1089T400 1233T241 1287Q182 1287 137 1268T68 1219T43 1159Q43 1131 60 1108T102 1073Q134 1107 185 1127ZM327 -35T352 -3T377 78Q377 123 351 153T285 184Q247 184 221 154T194 79Q194
31 219 -2T285 -35Q327 -35 352 -3Z" />
<glyph unicode="@" glyph-name="at" horiz-adv-x="1325" d="M760 -227T838 -205T965 -156T1085 -82L1056 -31Q1030 -53 972 -81T840 -129T697 -149Q536 -149 419 -87T240 90T178 355Q178 523 247 664T440 889T720 972Q839 972 941 920T1103 771T1164 545Q1164
433 1125 343T1020 203T878 152Q861 152 854 163T847 202Q847 225 852 266T858 319L866 385L908 752L890 773Q847 783 813 786T738 790Q651 790 562 732T415 567T357 325Q357 199 401 130T521 60Q574 60 631 99T721 187H730Q727 132 742 101T801 69Q934 69 1042
140T1211 329T1272 582Q1272 716 1203 821T1015 986T757 1045Q551 1045 392 947T144 684T56 329Q56 146 140 21T362 -166T660 -227Q760 -227 838 -205ZM708 714T738 711T786 703L732 248Q704 216 653 188T564 160Q480 160 480 369Q480 460 506 539T579 666T684
714Q708 714 738 711Z" />
<glyph unicode="A" glyph-name="A" horiz-adv-x="1326" d="M480 0L490 63L305 95L436 455H861L985 101L816 58L806 0H1268L1276 64L1141 95L739 1268L637 1246L199 101L54 58L46 0H480ZM657 1060L837 534H464L657 1060Z" />
<glyph unicode="B" glyph-name="B" horiz-adv-x="1097" d="M712 0T831 52T1000 190T1051 380Q1051 449 1015 514T909 623T741 672V679Q842 725 894 800T947 967Q947 1046 901 1111T761 1217T530 1257Q426 1257 335 1248T117 1219L62 1211L53 1155L224 1129V96L56
58L46 0H518Q712 0 831 52ZM403 1192T471 1192Q637 1192 719 1119T802 922Q802 840 761 780T655 685H371V1186Q403 1192 471 1192ZM610 618Q709 618 774 578T870 476T900 347Q900 275 870 214T772 114T603 75H371V618H610Z" />
<glyph unicode="C" glyph-name="C" horiz-adv-x="1096" d="M699 -25T789 8T948 92T1055 195L1026 252Q955 180 862 132T669 84Q536 84 433 150T272 344T213 651Q213 810 265 934T406 1126T601 1195Q785 1195 869 1086L905 846L973 836L1004 1171Q874 1270 653
1270Q455 1270 319 1169T117 912T50 599Q50 408 122 267T320 50T600 -25Q699 -25 789 8Z" />
<glyph unicode="D" glyph-name="D" horiz-adv-x="1302" d="M753 0T921 89T1171 327T1254 654Q1254 821 1188 956T967 1175T557 1259Q453 1259 338 1247T64 1210L54 1154L227 1128V101L56 58L45 0H508Q753 0 921 89ZM414 1181T521 1181Q705 1181 833 1107T1026
901T1091 599Q1091 448 1026 330T834 146T535 79H373V1176Q414 1181 521 1181Z" />
<glyph unicode="E" glyph-name="E" horiz-adv-x="1098" d="M228 1151V96L59 58L53 0H1023L1053 313L991 324L905 75H376V594H679L704 408L770 419L803 808L731 797L691 668H376V1173H879L909 934L976 925L1007 1244H56L47 1185L228 1151Z" />
<glyph unicode="F" glyph-name="F" horiz-adv-x="1053" d="M227 1151V96L58 58L53 0H604L616 68L375 96L376 579H677L701 391L770 402L799 792L728 782L687 652H376V1173H873L901 933L969 923L1006 1244H56L48 1185L227 1151Z" />
<glyph unicode="G" glyph-name="G" horiz-adv-x="1258" d="M756 -26T868 -3T1077 79V467L1206 499L1216 556H698L688 495L927 463L926 119Q886 92 830 77T710 61Q546 61 435 142T269 355T214 640Q214 808 268 930T419 1117T635 1182Q744 1182 828 1147T953 1066L986
852L1052 841L1080 1162Q1008 1211 902 1236T677 1262Q502 1262 359 1172T133 927T50 591Q50 410 117 270T309 52T601 -26Q756 -26 868 -3Z" />
<glyph unicode="H" glyph-name="H" horiz-adv-x="1435" d="M228 1154V96L60 58L54 0H551L563 63L377 90V591L1050 592V96L885 58L875 0H1374L1382 63L1200 90V1156L1367 1187L1376 1244H876L867 1187L1050 1154V672H377V1156L546 1187L554 1244H53L46 1187L228 1154Z" />
<glyph unicode="I" glyph-name="I" horiz-adv-x="614" d="M223 1154V96L61 58L54 0H551L561 63L374 90V1156L546 1187L555 1244H54L46 1187L223 1154Z" />
<glyph unicode="J" glyph-name="J" horiz-adv-x="656" d="M220 -228T292 -147T397 53T431 372L433 1156L603 1187L612 1244H109L101 1187L283 1154V209Q283 74 223 -36T38 -259L76 -325Q220 -228 292 -147Z" />
<glyph unicode="K" glyph-name="K" horiz-adv-x="1251" d="M227 1149V101L63 58L55 0H555L565 63L378 95V1152L549 1187L556 1244H56L46 1187L227 1149ZM696 246Q764 159 819 103T936 13T1070 -21Q1100 -21 1126 -16T1189 2L1200 58L1154 68Q1094 82 1045 116T947
201T809 358L564 649L975 1152L1140 1187L1147 1244H697L691 1187L856 1151L567 790Q517 728 417 623L419 604L696 246Z" />
<glyph unicode="L" glyph-name="L" horiz-adv-x="1078" d="M998 0L1032 331L968 341L863 75H376V1152L551 1186L558 1244H56L47 1186L227 1148V96L60 58L52 0H998Z" />
<glyph unicode="M" glyph-name="M" horiz-adv-x="1711" d="M491 0L501 60L318 86L389 1059L765 41L854 55L1277 1087L1334 92L1165 54L1157 0H1656L1662 60L1481 86L1427 1154L1598 1188L1605 1244H1245L1178 1092L844 268L557 1053L482 1244H122L113 1188L297
1151L220 92L52 54L44 0H491Z" />
<glyph unicode="N" glyph-name="N" horiz-adv-x="1368" d="M229 1147V96L62 58L56 0H504L514 63L330 90V1047L1043 -24L1147 -3V1156L1313 1187L1324 1244H874L865 1187L1050 1154V225L383 1244H56L46 1188L229 1147Z" />
<glyph unicode="O" glyph-name="O" horiz-adv-x="1266" d="M795 -27T935 65T1147 306T1218 624Q1218 806 1153 954T964 1188T669 1274Q482 1274 342 1192T126 961T50 620Q50 442 119 294T313 60T599 -27Q795 -27 935 65ZM758 1197T855 1113T1002 886T1052 574Q1052
443 1011 326T878 133T647 58Q507 58 410 141T265 366T217 678Q217 818 257 935T388 1124T620 1197Q758 1197 855 1113Z" />
<glyph unicode="P" glyph-name="P" horiz-adv-x="1039" d="M603 65L368 94V1186Q379 1187 413 1189T474 1192Q591 1192 670 1148T788 1029T827 865Q827 726 743 644T483 555L430 553L445 491Q479 488 519 488Q643 488 752 539T927 683T993 893Q993 1084 856 1170T500
1256Q397 1256 306 1246T96 1217L59 1211L51 1155L217 1129V96L54 58L46 0H592L603 65Z" />
<glyph unicode="Q" glyph-name="Q" horiz-adv-x="1273" d="M638 -27T672 -21Q685 -126 733 -209T855 -338T1017 -385Q1118 -385 1181 -355Q1184 -347 1187 -328T1191 -294Q1067 -278 988 -248T853 -161T755 -9Q901 25 1007 121T1169 351T1225 629Q1225 809 1160
956T971 1188T676 1274Q490 1274 348 1190T128 955T50 614Q50 437 121 290T317 58T600 -27Q638 -27 672 -21ZM756 1193T857 1109T1013 881T1068 568Q1068 447 1027 338T903 152T699 47Q541 53 430 142T263 372T207 670Q207 826 256 944T398 1127T623 1193Q756 1193
857 1109Z" />
<glyph unicode="R" glyph-name="R" horiz-adv-x="1223" d="M564 64L364 96V554H558L739 245Q815 117 889 49T1058 -19Q1089 -19 1111 -16T1164 -2L1175 51L1134 64Q1085 79 1049 106T970 184T857 336L671 604V605Q814 666 883 756T952 952Q952 1105 829 1179T501
1254Q400 1254 298 1243T61 1209L51 1153L217 1127V96L55 58L46 0H554L564 64ZM374 1185T410 1187T485 1189Q581 1189 650 1155T757 1059T794 910Q794 811 732 736T577 628H364V1184Q374 1185 410 1187Z" />
<glyph unicode="S" glyph-name="S" horiz-adv-x="850" d="M499 -25T596 20T749 147T805 331Q805 415 763 479T660 588T497 693Q403 749 349 787T257 879T220 1001Q220 1064 246 1109T316 1177T415 1200Q473 1200 529 1168T606 1096L632 878L705 869L732 1165Q678
1216 603 1243T445 1270Q353 1270 270 1231T136 1116T84 938Q84 849 127 781T233 667T398 559Q486 507 537 470T623 384T658 274Q658 204 624 155T534 82T419 57Q342 57 276 91T178 181L145 384L70 395L48 119Q99 57 188 16T381 -25Q499 -25 596 20Z" />
<glyph unicode="T" glyph-name="T" horiz-adv-x="1166" d="M55 923L126 912L171 1173H496V96L324 58L318 0H815L827 63L646 94V1173H984L1011 920L1084 909L1118 1244H46L55 923Z" />
<glyph unicode="U" glyph-name="U" horiz-adv-x="1398" d="M226 465Q226 -27 693 -27Q943 -27 1057 106T1173 503L1178 1156L1344 1187L1353 1244H902L894 1187L1078 1154L1077 466Q1077 271 988 172T734 73Q565 73 470 175T374 503V1156L543 1187L550 1244H52L43
1187L226 1154V465Z" />
<glyph unicode="V" glyph-name="V" horiz-adv-x="1325" d="M191 1152L607 -25L709 -4L1143 1156L1273 1188L1278 1244H856L850 1188L1035 1152L687 206L357 1156L526 1188L533 1244H51L44 1188L191 1152Z" />
<glyph unicode="W" glyph-name="W" horiz-adv-x="1841" d="M175 1153L506 -24L623 -4L913 971L1178 -25L1287 -4L1667 1154L1787 1188L1795 1244H1378L1370 1189L1554 1151L1262 233L996 1214L885 1199L595 225L331 1156L497 1190L506 1244H52L44 1188L175 1153Z" />
<glyph unicode="X" glyph-name="X" horiz-adv-x="1294" d="M449 0L461 62L295 89L628 550L937 90L775 51L766 0H1231L1241 58L1105 84L727 654L1095 1159L1221 1188L1225 1244H823L814 1187L985 1155L671 727L382 1152L538 1189L545 1244H79L71 1189L208 1154L572
620L181 92L55 56L46 0H449Z" />
<glyph unicode="Y" glyph-name="Y" horiz-adv-x="1214" d="M183 1152L537 497V96L375 58L367 0H850L859 63L687 91V509L1034 1156L1161 1188L1167 1244H750L744 1188L928 1152L641 605L345 1156L508 1188L516 1244H53L44 1188L183 1152Z" />
<glyph unicode="Z" glyph-name="Z" horiz-adv-x="1070" d="M56 0H977L1025 336L956 347L841 79H223L1008 1188L1006 1244H103L94 918L158 903L236 1170H823L49 71L56 0Z" />
<glyph unicode="[" glyph-name="bracketleft" horiz-adv-x="484" d="M435 -375H75L76 1256H434L441 1185L206 1164V-286L443 -306L435 -375Z" />
<glyph unicode="\" glyph-name="backslash" horiz-adv-x="651" d="M507 -362L611 -367L149 1254L41 1259L507 -362Z" />
<glyph unicode="]" glyph-name="bracketright" horiz-adv-x="485" d="M50 -375H410L409 1256H52L44 1185L279 1164V-286L42 -306L50 -375Z" />
<glyph unicode="^" glyph-name="asciicircum" horiz-adv-x="743" d="M93 797L355 1098H365L642 792L690 824L396 1251L340 1238L51 826L93 797Z" />
<glyph unicode="_" glyph-name="underscore" horiz-adv-x="985" d="M903 -133L913 -47H85L73 -133H903Z" />
<glyph unicode="`" glyph-name="grave" horiz-adv-x="393" d="M263 1332L314 1363L181 1698L77 1661L263 1332Z" />
<glyph unicode="a" glyph-name="a" horiz-adv-x="821" d="M324 -25T381 0T476 61T530 130H538V116Q538 61 573 22T678 -18Q705 -18 726 -15T777 -3L797 2L806 62L748 73Q704 80 683 99T655 148T648 230V581Q648 738 589 811T401 885Q329 885 255 856T133 780T85
681Q85 630 118 611T198 591Q203 673 214 719T251 789T329 813Q432 813 476 739T521 528V461Q364 454 258 415T99 310T46 159Q46 103 74 61T150 -3T252 -25Q324 -25 381 0ZM521 187Q494 139 439 105T318 71Q278 71 248 89T203 136T187 197Q187 374 521 410V187Z"
/>
<glyph unicode="b" glyph-name="b" horiz-adv-x="978" d="M196 49Q309 -24 445 -24Q577 -24 688 33T864 202T930 466Q930 591 891 686T779 833T612 886Q459 886 323 733H311L325 837V1279L310 1295L52 1275L43 1221L196 1179V49ZM382 728T438 756T545 785Q672
785 730 681T788 406Q788 299 752 221T657 103T533 62Q467 62 411 79T325 126V668Q382 728 438 756Z" />
<glyph unicode="c" glyph-name="c" horiz-adv-x="765" d="M480 -30T541 -12T650 37T724 102L703 148Q606 69 484 69Q394 69 328 122T227 269T192 480Q192 583 220 657T296 771T404 810Q471 810 514 762T588 627Q683 643 683 726Q683 768 659 805T584 865T452 888Q343
888 252 829T106 659T52 405Q52 284 96 185T223 28T418 -30Q480 -30 541 -12Z" />
<glyph unicode="d" glyph-name="d" horiz-adv-x="983" d="M466 -21T538 22T659 131H669V124Q669 59 703 19T807 -22Q844 -22 867 -18T928 -2L937 58L884 70Q850 77 831 87T798 129T785 222V1282L770 1299L512 1277L503 1224L655 1181V972L669 841H661Q636 860
581 874T477 889Q370 889 272 826T112 650T51 393Q51 262 93 169T207 27T370 -21Q466 -21 538 22ZM491 810T554 777T659 685V193Q625 147 560 112T433 77Q317 77 253 176T189 452Q189 562 218 642T302 766T428 810Q491 810 554 777Z" />
<glyph unicode="e" glyph-name="e" horiz-adv-x="765" d="M507 -30T587 6T720 104L701 148Q645 110 594 94T480 78Q386 78 322 129T227 263T193 445L677 451Q684 477 689 517T694 582Q694 734 627 810T444 886Q345 886 255 831T108 669T52 420Q52 274 101 173T231
21T411 -30Q507 -30 587 6ZM468 809T510 755T553 610Q553 550 546 530L195 507Q197 605 224 673T296 775T395 809Q468 809 510 755Z" />
<glyph unicode="f" glyph-name="f" horiz-adv-x="636" d="M587 61L341 91V791H586L599 861H341L342 981Q343 1100 384 1160T487 1220Q538 1220 583 1185T664 1099Q691 1110 712 1135T733 1192Q733 1243 684 1274T555 1305Q480 1305 405 1257T276 1109T208 867L70
845L58 791H207V87L55 51L43 0H580L587 61Z" />
<glyph unicode="g" glyph-name="g" horiz-adv-x="902" d="M499 -387T601 -341T766 -217T829 -53Q829 25 797 65T708 119T561 132H407Q319 132 278 151T237 210Q237 233 253 253T303 306Q317 301 343 296T396 291Q470 291 543 330T664 437T711 588Q711 629 696
678T667 753L670 764L811 723L823 725L858 820L842 838Q810 835 737 830T623 822Q534 885 432 885Q348 885 275 843T157 730T113 578Q113 515 138 462T199 373T264 327V322Q205 290 159 244T112 162Q112 121 138 88T208 35V28Q136 -10 87 -54T38 -165Q38 -237 83
-287T206 -362T384 -387Q499 -387 601 -341ZM459 825T498 788T559 691T581 565Q581 464 537 412T423 359Q374 359 332 392T265 480T240 599Q240 703 281 764T408 825Q459 825 498 788ZM480 17Q571 17 618 5T683 -34T701 -107Q701 -171 667 -214T575 -278T450 -299Q174
-299 174 -116Q174 -71 195 -42T242 4T268 17H480Z" />
<glyph unicode="h" glyph-name="h" horiz-adv-x="1064" d="M488 58L343 87V670Q397 729 451 756T572 783Q648 783 697 732T746 568V561L743 86L606 54L597 0H1008L1017 58L875 86V588Q875 751 815 821T642 891Q561 891 482 847T338 733H330L343 839V1284L327 1301L63
1280L54 1226L211 1184V87L57 57L46 0H478L488 58Z" />
<glyph unicode="i" glyph-name="i" horiz-adv-x="556" d="M296 1093T319 1122T342 1199Q342 1245 318 1273T256 1301Q218 1301 195 1273T172 1199Q172 1152 194 1123T256 1093Q296 1093 319 1122ZM488 0L499 57L339 87V871L323 887L64 865L56 814L208 772V87L57
55L45 0H488Z" />
<glyph unicode="j" glyph-name="j" horiz-adv-x="463" d="M351 1077T377 1108T403 1191Q403 1239 377 1269T309 1299Q268 1299 242 1270T216 1191Q216 1141 241 1109T309 1077Q351 1077 377 1108ZM123 -356Q383 -191 383 151V858L366 875L108 855L99 801L250 760V160Q250
-25 193 -133T38 -315L79 -383L123 -356Z" />
<glyph unicode="k" glyph-name="k" horiz-adv-x="1020" d="M491 0L500 57L340 87V1279L324 1296L61 1274L55 1222L211 1181V87L57 55L47 0H491ZM597 140T648 85T745 5T849 -20Q878 -20 909 -14T960 0L969 59L930 64Q879 70 842 92T770 151T671 267L598 355L498
473L763 782L913 819L923 873H530L522 818L656 781L370 447V429L504 258Q597 140 648 85Z" />
<glyph unicode="l" glyph-name="l" horiz-adv-x="544" d="M488 0L500 57L339 87V1284L322 1300L60 1279L54 1227L210 1186V87L56 55L46 0H488Z" />
<glyph unicode="m" glyph-name="m" horiz-adv-x="1596" d="M483 58L340 86V666Q382 718 444 749T573 781Q653 781 699 724T746 573V86L613 54L605 0H1003L1011 58L872 86V660Q919 710 974 745T1096 780Q1181 780 1226 726T1272 573V86L1142 54L1136 2H1533L1546
60L1404 87V597Q1404 735 1349 810T1168 885Q1080 885 1000 838T867 723H856Q838 804 780 846T643 889Q555 889 473 842T336 728H328L339 861L327 875L58 845L52 793L209 753V86L57 54L48 0H473L483 58Z" />
<glyph unicode="n" glyph-name="n" horiz-adv-x="1070" d="M485 58L339 86V670Q399 730 453 755T577 781Q652 781 699 729T747 568V86L607 52L599 0H1012L1019 58L878 86V600Q878 744 816 817T647 890Q556 890 471 841T336 730H328L338 862L326 876L61 846L54
794L209 755V86L56 52L48 0H475L485 58Z" />
<glyph unicode="o" glyph-name="o" horiz-adv-x="893" d="M553 -27T645 32T791 197T845 439Q845 567 799 670T668 832T469 891Q356 891 260 833T108 667T51 411Q51 282 99 183T237 28T444 -27Q553 -27 645 32ZM515 806T578 744T672 583T704 380Q704 291 677 217T599
98T479 54Q387 54 322 113T225 271T192 483Q192 572 219 646T300 763T426 806Q515 806 578 744Z" />
<glyph unicode="p" glyph-name="p" horiz-adv-x="957" d="M484 -312L328 -286V662Q379 715 429 748T542 781Q655 781 710 683T766 404Q766 299 735 222T649 105T524 64Q465 64 431 69T363 87L368 -9Q429 -20 470 -20Q595 -20 695 41T851 212T908 462Q908 607 870
701T764 841T608 886Q519 886 448 837T328 722H321L330 859L317 873L52 845L44 792L198 754V-285L46 -315L40 -373H474L484 -312Z" />
<glyph unicode="q" glyph-name="q" horiz-adv-x="976" d="M433 -21T501 3T615 71L611 127Q577 104 523 91T429 78Q318 78 255 176T191 468Q191 567 223 645T309 766T428 809Q501 809 556 774T642 691V-280L491 -308L483 -367H927L936 -306L775 -280V878H752L658
845Q628 861 579 875T477 889Q372 889 274 825T114 649T52 407Q52 262 93 166T206 25T369 -21Q433 -21 501 3Z" />
<glyph unicode="r" glyph-name="r" horiz-adv-x="733" d="M571 61L341 88V464Q352 545 378 611T440 717T517 756Q573 756 624 704Q653 724 669 749T686 799Q686 839 656 867T575 895Q527 895 481 861T397 764T335 615H321L335 860L319 877L60 848L51 796L211 757V86L56
52L48 0H563L571 61Z" />
<glyph unicode="s" glyph-name="s" horiz-adv-x="667" d="M400 -35T469 -4T580 84T622 212Q622 273 590 321T511 404T388 485Q321 525 282 553T216 619T189 700Q189 756 225 790T322 825Q374 825 413 784T477 636L485 597Q533 601 561 629T590 713Q590 763 560
803T478 866T360 889Q270 889 208 852T114 757T83 637Q83 571 117 520T198 432T324 349Q386 311 421 286T480 229T504 160Q504 108 462 74T355 40Q275 40 226 93T152 264Q106 259 76 229T46 154Q46 100 82 57T181 -10T323 -35Q400 -35 469 -4Z" />
<glyph unicode="t" glyph-name="t" horiz-adv-x="650" d="M163 251Q162 107 210 42T354 -24Q428 -24 495 14T609 119L590 163Q590 162 564 145T503 113T435 98Q386 98 356 116T312 181T297 310L300 768H576L584 840H301V1068H254Q215 971 164 908T40 811V771H167L163
251Z" />
<glyph unicode="u" glyph-name="u" horiz-adv-x="1026" d="M186 275Q186 -24 414 -24Q496 -24 568 16T692 132H704V120Q704 59 740 19T841 -21Q876 -21 904 -16T967 -1L974 58L920 70Q863 81 842 114T821 223V857L807 874L541 850L535 790L692 754V187Q653 144
601 115T486 86Q314 86 314 317V857L298 874L49 853L41 800L186 757V275Z" />
<glyph unicode="v" glyph-name="v" horiz-adv-x="978" d="M164 769L446 -26L536 -11L817 771L926 808L935 861H576L565 806L725 769L513 161L304 771L450 808L455 861H49L42 806L164 769Z" />
<glyph unicode="w" glyph-name="w" horiz-adv-x="1311" d="M158 775L395 -25L482 -9L654 630L845 -25L930 -9L1152 777L1260 809L1268 863H912L905 808L1056 775L895 193L863 345L725 817L611 798L448 203L411 360L290 777L425 809L432 863H49L42 808L158 775Z" />
<glyph unicode="x" glyph-name="x" horiz-adv-x="1011" d="M407 0L416 54L274 86L486 362L682 84L555 51L543 0H948L956 52L842 84L580 459L831 783L935 816L946 870H597L585 815L723 781L526 527L342 785L457 817L467 870H73L66 815L184 783L430 431L164 86L56
52L47 0H407Z" />
<glyph unicode="y" glyph-name="y" horiz-adv-x="992" d="M262 -379T317 -347T418 -244T512 -53L842 772L943 808L948 861H631L620 806L750 771L520 195L305 775L432 808L438 861H55L46 805L170 772L448 12L425 -49Q354 -229 243 -229Q193 -229 157 -217T85 -176Q40
-215 40 -274Q40 -303 59 -327T111 -365T185 -379Q262 -379 317 -347Z" />
<glyph unicode="z" glyph-name="z" horiz-adv-x="796" d="M60 0H720L750 269L699 275L624 78H211L734 809L732 861H85L75 592L131 583L187 788H572L56 63L60 0Z" />
<glyph unicode="{" glyph-name="braceleft" horiz-adv-x="613" d="M364 -378T314 -320T251 -178T236 43Q234 156 226 222T189 338T96 395L45 402V476L93 484Q157 493 187 542T226 659T236 841Q239 977 251 1059T313 1198T465 1256H567L559 1182L465 1175Q424 1172
405 1135T382 1044T376 892Q375 763 366 681T317 531T197 443V438Q277 420 316 355T365 206T379 -5Q381 -104 386 -161T413 -256T477 -297L564 -303L572 -378H469Q364 -378 314 -320Z" />
<glyph unicode="|" glyph-name="bar" horiz-adv-x="247" d="M171 -380V1248L75 1261V-367L171 -380Z" />
<glyph unicode="}" glyph-name="braceright" horiz-adv-x="614" d="M249 -378T299 -320T361 -179T377 43Q379 157 386 223T423 338T516 395L568 402V476L519 484Q455 493 425 542T386 659T376 841Q374 976 362 1058T300 1198T148 1256H46L54 1182L148 1175Q189
1172 208 1135T231 1044T237 892Q238 765 247 682T295 531T415 443V438Q335 420 296 355T247 206T234 -5Q232 -104 227 -161T200 -256T136 -297L49 -303L41 -378H144Q249 -378 299 -320Z" />
<glyph unicode="~" glyph-name="asciitilde" horiz-adv-x="900" d="M106 407T122 430T161 474T211 494Q220 494 224 493L623 422Q638 419 652 419Q712 419 755 464T821 562T845 623L790 624Q790 621 775 599T738 559T688 540Q683 540 673 542L274 613Q259 616
246 616Q186 616 145 572T81 477T59 417L106 404Q106 407 122 430Z" />
<glyph unicode="&#xa0;" glyph-name="uni00A0" horiz-adv-x="316" />
<glyph unicode="&#xa1;" glyph-name="exclamdown" horiz-adv-x="291" d="M185 692T211 721T238 796Q238 844 213 877T147 910Q105 910 80 878T55 797Q55 752 81 722T147 692Q185 692 211 721ZM154 -417T185 -407T223 -377V-375Q223 -294 210 -12T181 512V515L117
529L114 524Q93 276 78 12T63 -377Q63 -398 80 -407T122 -417Q154 -417 185 -407Z" />
<glyph unicode="&#xa2;" glyph-name="cent" horiz-adv-x="767" d="M688 53T613 16T452 -29L481 -250L353 -267L376 -28Q277 -16 204 45T93 203T54 412Q54 538 95 643T209 817T371 909L342 1135L469 1152L447 920H454Q534 920 585 897T660 838T684 759Q684 676
589 660Q558 747 516 795T406 843Q347 843 299 798T222 672T194 486Q194 369 229 274T329 124T485 69Q607 69 704 148L725 102Q688 53 613 16Z" />
<glyph unicode="&#xa3;" glyph-name="sterling" horiz-adv-x="1072" d="M1025 322L962 336L851 77L352 78Q411 215 414 516V568L625 581L635 661L416 648V702Q418 901 435 999T493 1134T618 1171Q643 1171 680 1161T736 1141L767 902L834 892L865 1211Q810 1234
755 1242T633 1251Q459 1251 365 1137T265 786L262 641L92 631L81 552L259 561L258 461Q256 339 247 254T218 96L50 58L43 0H991L1025 322Z" />
<glyph unicode="&#xa4;" glyph-name="currency" horiz-adv-x="712" d="M121 610T107 567T93 490Q93 452 109 405T146 325L62 247L129 179L206 268Q239 248 280 233T349 218Q382 218 429 234T513 274L592 184L661 248L568 334Q589 362 604 408T619 492Q619 526
606 571T575 646L659 720L600 790L523 710Q491 734 443 752T356 770Q321 770 275 750T195 701L117 789L49 723L140 638Q121 610 107 567ZM432 685T481 631T530 488Q530 433 508 391T445 325T353 301Q277 301 230 354T183 495Q183 580 229 632T352 685Q432 685 481
631Z" />
<glyph unicode="&#xa5;" glyph-name="yen" horiz-adv-x="1067" d="M179 1152L442 578H149L138 505H461V338H146L135 265H461V96L299 56L291 0H772L781 62L607 90V265H942L953 338H607V505H945L956 578H626L893 1155L1019 1188L1026 1244H632L626 1188L797 1151L570
638L331 1156L481 1188L489 1244H50L42 1188L179 1152Z" />
<glyph unicode="&#xa6;" glyph-name="brokenbar" horiz-adv-x="241" d="M165 529L167 1248L73 1257V537L165 529ZM168 -380V411L73 419V-370L168 -380Z" />
<glyph unicode="&#xa7;" glyph-name="section" horiz-adv-x="850" d="M798 318Q803 407 762 475T657 589T490 697Q397 752 344 790T253 881T216 1001Q216 1064 242 1109T313 1177T412 1200Q470 1200 525 1168T602 1096L628 878L701 869L728 1165Q674 1216 599
1243T441 1270Q349 1270 267 1231T133 1116T81 938Q81 850 123 784T225 672T386 567L421 546L798 318ZM495 -381T591 -336T743 -209T799 -25Q799 61 756 125T650 235T485 338L432 369L86 576Q81 488 123 421T227 308T394 200Q482 147 533 111T619 27T654 -81Q654
-151 619 -200T529 -274T414 -299Q337 -299 270 -265T172 -176L140 29L64 39L43 -238Q93 -300 183 -340T377 -381Q495 -381 591 -336Z" />
<glyph unicode="&#xa8;" glyph-name="dieresis" horiz-adv-x="582" d="M190 1384T209 1405T228 1465Q228 1501 208 1522T156 1543Q126 1543 106 1522T86 1465Q86 1428 105 1406T157 1384Q190 1384 209 1405ZM458 1384T477 1405T497 1465Q497 1501 477 1522T424
1543Q394 1543 375 1522T355 1465Q355 1428 374 1406T425 1384Q458 1384 477 1405Z" />
<glyph unicode="&#xa9;" glyph-name="copyright" horiz-adv-x="1352" d="M841 -21T987 65T1216 301T1298 636Q1298 830 1221 981T1000 1216T667 1301Q499 1301 358 1215T135 977T52 633Q52 443 127 295T339 63T657 -21Q841 -21 987 65ZM828 1222T950 1145T1138
931T1204 626Q1204 467 1133 338T939 136T666 62Q516 62 398 137T214 345T147 644Q147 804 215 936T402 1145T668 1222Q828 1222 950 1145ZM740 264T812 296T918 374L900 413Q820 347 717 347Q642 347 587 391T503 514T473 690Q473 776 496 838T559 932T650 965Q706
965 742 925T804 813Q883 826 883 895Q883 951 836 990T690 1030Q599 1030 523 981T401 839T356 627Q356 526 393 444T499 313T662 264Q740 264 812 296Z" />
<glyph unicode="&#xaa;" glyph-name="ordfeminine" horiz-adv-x="718" d="M277 537T321 557T392 606T431 662H437V651Q437 624 452 599T495 559T563 543Q595 543 618 550T662 574L669 622L621 631Q586 637 571 652T551 689T547 756V1022Q547 1148 497 1208T342
1268Q284 1268 223 1247T122 1189T81 1111Q81 1067 113 1044T191 1023Q198 1092 206 1127T234 1182T292 1202Q346 1202 375 1176T414 1103T424 980V950Q296 946 213 909T91 814T53 690Q53 643 76 608T137 555T219 537Q277 537 321 557ZM424 715Q361 625 276 625Q229
625 207 653T185 725Q185 799 244 840T424 900V715Z" />
<glyph unicode="&#xab;" glyph-name="guillemotleft" horiz-adv-x="652" d="M296 449L557 77L599 128L422 461L598 774L562 821L294 469L296 449ZM305 449L566 77L608 128L431 461L607 774L571 821L303 469L305 449Z" />
<glyph unicode="&#xac;" glyph-name="logicalnot" horiz-adv-x="876" d="M722 584V332L811 351L810 664H65L53 584H722Z" />
<glyph unicode="&#xad;" glyph-name="uni00AD" horiz-adv-x="538" d="M469 480L477 570L69 509L61 420L469 480Z" />
<glyph unicode="&#xae;" glyph-name="registered" horiz-adv-x="1065" d="M652 542T766 600T948 768T1016 1026Q1016 1181 952 1292T776 1462T524 1520Q391 1520 283 1461T112 1289T49 1022Q49 880 111 771T279 602T514 542Q652 542 766 600ZM639 1459T736 1406T888
1252T944 1016Q944 895 888 801T735 656T522 604Q406 604 315 658T172 810T121 1036Q121 1171 173 1266T316 1410T519 1459Q639 1459 736 1406ZM531 817L446 835V1010H519L580 899Q619 826 655 796T745 765Q785 765 807 773L813 814L794 821Q762 835 740 853T677
926L593 1033L594 1034Q654 1060 689 1104T725 1198Q725 1269 666 1303T506 1338Q458 1338 395 1332T278 1317L273 1279L350 1266V834L275 813L270 774H526L531 817ZM491 1285Q622 1285 622 1181Q622 1108 537 1062H446V1284L491 1285Z" />
<glyph unicode="&#xaf;" glyph-name="overscore" horiz-adv-x="610" d="M521 1380L531 1456H90L79 1380H521Z" />
<glyph unicode="&#xb0;" glyph-name="degree" horiz-adv-x="482" d="M280 928T324 954T395 1026T422 1128Q422 1212 379 1258T251 1304Q198 1304 154 1277T84 1204T58 1107Q58 1021 103 975T227 928Q280 928 324 954ZM285 1251T315 1209T345 1105Q345 1048 317
1015T244 981Q193 981 164 1023T134 1129Q134 1183 161 1217T236 1251Q285 1251 315 1209Z" />
<glyph unicode="&#xb1;" glyph-name="plusminus" horiz-adv-x="723" d="M311 479V248L402 235L400 479H609L620 565H400L399 792L311 804V565H102L90 479H311ZM659 29L676 113L65 110L48 26L659 29Z" />
<glyph unicode="&#xb4;" glyph-name="acute" horiz-adv-x="387" d="M128 1346L310 1667L207 1706L79 1376L128 1346Z" />
<glyph unicode="&#xb5;" glyph-name="uni00B5" horiz-adv-x="1017" d="M187 494Q187 292 179 -15T167 -362L278 -388L263 -86Q261 -65 259 -15Q257 36 255 49H261Q283 13 323 -5T415 -24Q490 -24 562 16T693 131H705V119Q705 58 740 19T841 -21Q877 -21 906 -17T968
-2L974 57L922 68Q865 79 843 112T821 222V860L807 878L541 854L535 795L693 759V186Q646 140 596 111T486 82Q404 82 360 139T316 316V860L299 878L50 857L42 803L187 761V494Z" />
<glyph unicode="&#xb6;" glyph-name="paragraph" horiz-adv-x="1191" d="M546 537Q442 537 368 579T255 693T217 852Q217 1010 298 1090T553 1171Q602 1171 643 1169V97L414 58L408 0H773V1245H508Q385 1245 280 1192T111 1046T48 836Q48 632 178 548T528 463L546
537ZM1139 -1L1148 63L962 89V1157L1135 1188L1142 1245H840V0L1139 -1Z" />
<glyph unicode="&#xb7;" glyph-name="middot" horiz-adv-x="307" d="M196 391T221 422T246 503Q246 551 221 579T154 608Q113 608 88 580T62 503Q62 453 87 422T154 391Q196 391 221 422Z" />
<glyph unicode="&#xb8;" glyph-name="cedilla" horiz-adv-x="334" d="M168 -362T220 -323T273 -227Q273 -183 248 -147T184 -76L238 3H171L80 -128Q86 -134 110 -157T147 -202T160 -248Q160 -271 130 -297T57 -339L73 -390Q168 -362 220 -323Z" />
<glyph unicode="&#xba;" glyph-name="ordmasculine" horiz-adv-x="770" d="M473 536T549 583T671 715T717 909Q717 1011 678 1093T568 1222T402 1270Q309 1270 229 1224T101 1090T53 886Q53 783 94 704T210 580T382 536Q473 536 549 583ZM440 1198T488 1151T559
1027T582 862Q582 750 539 677T411 604Q298 604 243 699T188 944Q188 1056 233 1127T367 1198Q440 1198 488 1151Z" />
<glyph unicode="&#xbb;" glyph-name="guillemotright" horiz-adv-x="653" d="M331 449L333 469L65 821L29 774L205 461L28 128L70 77L331 449ZM578 449L580 469L312 821L276 774L452 461L275 128L317 77L578 449Z" />
<glyph unicode="&#xbc;" glyph-name="onequarter" horiz-adv-x="1333" d="M497 550L502 620L347 630V1260H328L60 1224L56 1163H206V633L48 610L45 550H497ZM392 -40L740 591L1106 1190L1108 1207L972 1211L618 588L242 -26L392 -40ZM1014 192V76L864 50L859 0H1253L1259
55L1140 74V188H1279L1288 274H1140V425Q1140 626 1148 721L1098 730L702 250L712 192H1014ZM1012 532V274H808L1012 532Z" />
<glyph unicode="&#xbd;" glyph-name="onehalf" horiz-adv-x="1399" d="M497 550L502 620L347 630V1260H328L60 1224L56 1163H206V633L48 610L45 550H497ZM382 -40L730 591L1096 1190L1098 1207L962 1211L608 588L232 -26L382 -40ZM1334 1L1354 242L1308 254L1246
104H953L988 128Q1109 216 1174 272T1280 391T1320 526Q1320 624 1259 675T1090 726Q1011 726 942 701T845 636L850 472L905 467L929 606Q959 646 1044 646Q1108 646 1137 602T1167 492Q1167 421 1119 356T962 202L808 78L806 1H1334Z" />
<glyph unicode="&#xbe;" glyph-name="threequarters" horiz-adv-x="1326" d="M332 508T404 538T519 622T563 742Q563 817 506 867T345 930V937Q422 961 472 1008T523 1126Q523 1174 496 1210T421 1266T316 1286Q239 1286 173 1263T81 1208L85 1052L147 1046L175
1188Q189 1203 211 1208T269 1214Q318 1214 346 1177T375 1092Q375 1043 341 1007T269 952T185 915L193 876Q251 875 302 856T385 803T417 726Q417 659 375 618T263 576Q225 576 192 592T144 632L138 759L79 766L45 595Q65 556 121 532T251 508Q332 508 404 538ZM393
-40L740 591L1106 1190L1109 1207L972 1211L619 588L242 -26L393 -40ZM1007 192V76L857 50L852 0H1246L1252 55L1133 74V188H1272L1281 274H1133V425Q1133 626 1141 721L1091 730L695 250L705 192H1007ZM1005 532V274H801L1005 532Z" />
<glyph unicode="&#xbf;" glyph-name="questiondown" horiz-adv-x="615" d="M287 935T262 903T237 822Q237 777 263 747T329 716Q367 716 393 746T420 821Q420 869 395 902T329 935Q287 935 262 903ZM480 -207T429 -227T320 -247Q273 -247 231 -218T164 -142T138
-43Q138 -4 157 25T204 75T280 123Q334 154 367 179T424 242T447 335Q447 391 422 451T366 546L308 529Q343 443 343 392Q343 357 326 331T284 285T214 238Q159 204 126 177T68 108T44 7Q44 -98 91 -189T214 -333T373 -387Q432 -387 477 -368T546 -319T571 -259Q571
-231 554 -208T512 -173Q480 -207 429 -227Z" />
<glyph unicode="&#xc0;" glyph-name="Agrave" horiz-adv-x="1326" d="M655 1362L706 1393L573 1728L469 1691L655 1362ZM480 0L490 63L305 95L436 455H861L985 101L816 58L806 0H1268L1276 64L1141 95L739 1268L637 1246L199 101L54 58L46 0H480ZM657 1060L837
534H464L657 1060Z" />
<glyph unicode="&#xc1;" glyph-name="Aacute" horiz-adv-x="1326" d="M687 1362L869 1683L766 1722L638 1392L687 1362ZM480 0L490 63L305 95L436 455H861L985 101L816 58L806 0H1268L1276 64L1141 95L739 1268L637 1246L199 101L54 58L46 0H480ZM657 1060L837
534H464L657 1060Z" />
<glyph unicode="&#xc2;" glyph-name="Acircumflex" horiz-adv-x="1326" d="M523 1372L672 1495H681L854 1373L894 1410L716 1596L661 1582L493 1402L523 1372ZM480 0L490 63L305 95L436 455H861L985 101L816 58L806 0H1268L1276 64L1141 95L739 1268L637 1246L199
101L54 58L46 0H480ZM657 1060L837 534H464L657 1060Z" />
<glyph unicode="&#xc3;" glyph-name="Atilde" horiz-adv-x="1326" d="M490 1377T499 1392T523 1421T557 1435Q564 1435 567 1434L768 1392Q780 1389 791 1389Q833 1389 862 1420T907 1488T923 1531L881 1533Q879 1529 872 1516T850 1490T817 1477Q813 1477 805
1479L602 1521Q594 1523 580 1523Q539 1523 511 1492T469 1425T455 1382L488 1372Q490 1377 499 1392ZM480 0L490 63L305 95L436 455H861L985 101L816 58L806 0H1268L1276 64L1141 95L739 1268L637 1246L199 101L54 58L46 0H480ZM657 1060L837 534H464L657 1060Z"
/>
<glyph unicode="&#xc4;" glyph-name="Adieresis" horiz-adv-x="1326" d="M578 1359T597 1380T616 1440Q616 1476 596 1497T544 1518Q514 1518 494 1497T474 1440Q474 1403 493 1381T545 1359Q578 1359 597 1380ZM846 1359T865 1380T885 1440Q885 1476 865 1497T812
1518Q782 1518 763 1497T743 1440Q743 1403 762 1381T813 1359Q846 1359 865 1380ZM480 0L490 63L305 95L436 455H861L985 101L816 58L806 0H1268L1276 64L1141 95L739 1268L637 1246L199 101L54 58L46 0H480ZM657 1060L837 534H464L657 1060Z" />
<glyph unicode="&#xc5;" glyph-name="Aring" horiz-adv-x="1326" d="M727 1345T765 1369T825 1434T847 1520Q847 1592 804 1637T690 1683Q644 1683 606 1660T545 1597T523 1511Q523 1435 565 1390T678 1345Q727 1345 765 1369ZM724 1639T751 1599T779 1507Q779
1451 755 1421T689 1390Q643 1390 617 1431T590 1523Q590 1571 612 1605T679 1639Q724 1639 751 1599ZM480 0L490 63L305 95L436 455H861L985 101L816 58L806 0H1268L1276 64L1141 95L739 1268L637 1246L199 101L54 58L46 0H480ZM657 1060L837 534H464L657 1060Z"
/>
<glyph unicode="&#xc6;" glyph-name="AE" horiz-adv-x="1740" d="M484 2L494 66L308 96L535 472H890V96L710 58L703 0H1665L1695 313L1635 326L1549 75H1035V596H1321L1346 409L1412 421L1446 808L1374 801L1334 669H1035V1173H1521L1552 936L1617 926L1649 1244H625L616
1187L840 1154L196 102L57 60L49 2H484ZM894 1075L891 553H581L894 1075Z" />
<glyph unicode="&#xc7;" glyph-name="Ccedilla" horiz-adv-x="1096" d="M1021 149T964 104T829 24T667 -21L619 -91Q658 -125 683 -161T708 -242Q708 -298 656 -337T508 -405L492 -354Q535 -339 565 -313T595 -263Q595 -234 578 -211T541 -168T515 -143L597 -25Q443
-24 319 51T122 268T50 599Q50 757 116 912T319 1168T653 1270Q874 1270 1004 1171L973 836L905 846L869 1086Q785 1195 601 1195Q495 1195 406 1127T265 934T213 651Q213 472 271 344T433 150T669 84Q769 84 862 132T1026 252L1055 195Q1021 149 964 104Z" />
<glyph unicode="&#xc8;" glyph-name="Egrave" horiz-adv-x="1098" d="M566 1362L617 1393L484 1728L380 1691L566 1362ZM228 1151V96L59 58L53 0H1023L1053 313L991 324L905 75H376V594H679L704 408L770 419L803 808L731 797L691 668H376V1173H879L909 934L976
925L1007 1244H56L47 1185L228 1151Z" />
<glyph unicode="&#xc9;" glyph-name="Eacute" horiz-adv-x="1098" d="M539 1362L721 1683L618 1722L490 1392L539 1362ZM228 1151V96L59 58L53 0H1023L1053 313L991 324L905 75H376V594H679L704 408L770 419L803 808L731 797L691 668H376V1173H879L909 934L976
925L1007 1244H56L47 1185L228 1151Z" />
<glyph unicode="&#xca;" glyph-name="Ecircumflex" horiz-adv-x="1098" d="M406 1362L555 1485H564L737 1363L777 1400L599 1586L544 1572L376 1392L406 1362ZM228 1151V96L59 58L53 0H1023L1053 313L991 324L905 75H376V594H679L704 408L770 419L803 808L731
797L691 668H376V1173H879L909 934L976 925L1007 1244H56L47 1185L228 1151Z" />
<glyph unicode="&#xcb;" glyph-name="Edieresis" horiz-adv-x="1098" d="M467 1372T486 1393T505 1453Q505 1489 485 1510T433 1531Q403 1531 383 1510T363 1453Q363 1416 382 1394T434 1372Q467 1372 486 1393ZM735 1372T754 1393T774 1453Q774 1489 754 1510T701
1531Q671 1531 652 1510T632 1453Q632 1416 651 1394T702 1372Q735 1372 754 1393ZM228 1151V96L59 58L53 0H1023L1053 313L991 324L905 75H376V594H679L704 408L770 419L803 808L731 797L691 668H376V1173H879L909 934L976 925L1007 1244H56L47 1185L228 1151Z"
/>
<glyph unicode="&#xcc;" glyph-name="Igrave" horiz-adv-x="614" d="M282 1365L333 1396L200 1731L96 1694L282 1365ZM223 1154V96L61 58L54 0H551L561 63L374 90V1156L546 1187L555 1244H54L46 1187L223 1154Z" />
<glyph unicode="&#xcd;" glyph-name="Iacute" horiz-adv-x="614" d="M278 1362L460 1683L357 1722L229 1392L278 1362ZM223 1154V96L61 58L54 0H551L561 63L374 90V1156L546 1187L555 1244H54L46 1187L223 1154Z" />
<glyph unicode="&#xce;" glyph-name="Icircumflex" horiz-adv-x="614" d="M135 1362L284 1485H293L466 1363L506 1400L328 1586L273 1572L105 1392L135 1362ZM223 1154V96L61 58L54 0H551L561 63L374 90V1156L546 1187L555 1244H54L46 1187L223 1154Z" />
<glyph unicode="&#xcf;" glyph-name="Idieresis" horiz-adv-x="614" d="M206 1618T225 1639T244 1699Q244 1735 224 1756T172 1777Q142 1777 122 1756T102 1699Q102 1662 121 1640T173 1618Q206 1618 225 1639ZM474 1618T493 1639T513 1699Q513 1735 493 1756T440
1777Q410 1777 391 1756T371 1699Q371 1662 390 1640T441 1618Q474 1618 493 1639ZM223 1154V96L61 58L54 0H551L561 63L374 90V1156L546 1187L555 1244H54L46 1187L223 1154Z" />
<glyph unicode="&#xd0;" glyph-name="Eth" horiz-adv-x="1314" d="M232 101L61 58L50 0H522Q763 0 931 92T1182 334T1266 657Q1266 823 1198 958T973 1177T562 1260Q458 1260 343 1248T69 1211L59 1155L232 1129V662L61 650L51 574L232 587V101ZM640 616L650 692L378
672V1176Q427 1182 526 1182Q711 1182 840 1108T1035 901T1101 599Q1101 450 1040 332T859 147T574 79H378V597L640 616Z" />
<glyph unicode="&#xd1;" glyph-name="Ntilde" horiz-adv-x="1368" d="M449 1367T458 1382T482 1411T516 1425Q523 1425 526 1424L727 1382Q739 1379 750 1379Q792 1379 821 1410T866 1478T882 1521L840 1523Q838 1519 831 1506T809 1480T776 1467Q772 1467 764
1469L561 1511Q553 1513 539 1513Q498 1513 470 1482T428 1415T414 1372L447 1362Q449 1367 458 1382ZM229 1147V96L62 58L56 0H504L514 63L330 90V1047L1043 -24L1147 -3V1156L1313 1187L1324 1244H874L865 1187L1050 1154V225L383 1244H56L46 1188L229 1147Z"
/>
<glyph unicode="&#xd2;" glyph-name="Ograve" horiz-adv-x="1266" d="M617 1362L668 1393L535 1728L431 1691L617 1362ZM795 -27T935 65T1147 306T1218 624Q1218 806 1153 954T964 1188T669 1274Q482 1274 342 1192T126 961T50 620Q50 442 119 294T313 60T599
-27Q795 -27 935 65ZM758 1197T855 1113T1002 886T1052 574Q1052 443 1011 326T878 133T647 58Q507 58 410 141T265 366T217 678Q217 818 257 935T388 1124T620 1197Q758 1197 855 1113Z" />
<glyph unicode="&#xd3;" glyph-name="Oacute" horiz-adv-x="1266" d="M610 1362L792 1683L689 1722L561 1392L610 1362ZM795 -27T935 65T1147 306T1218 624Q1218 806 1153 954T964 1188T669 1274Q482 1274 342 1192T126 961T50 620Q50 442 119 294T313 60T599
-27Q795 -27 935 65ZM758 1197T855 1113T1002 886T1052 574Q1052 443 1011 326T878 133T647 58Q507 58 410 141T265 366T217 678Q217 818 257 935T388 1124T620 1197Q758 1197 855 1113Z" />
<glyph unicode="&#xd4;" glyph-name="Ocircumflex" horiz-adv-x="1266" d="M473 1362L622 1485H631L804 1363L844 1400L666 1586L611 1572L443 1392L473 1362ZM795 -27T935 65T1147 306T1218 624Q1218 806 1153 954T964 1188T669 1274Q482 1274 342 1192T126 961T50
620Q50 442 119 294T313 60T599 -27Q795 -27 935 65ZM758 1197T855 1113T1002 886T1052 574Q1052 443 1011 326T878 133T647 58Q507 58 410 141T265 366T217 678Q217 818 257 935T388 1124T620 1197Q758 1197 855 1113Z" />
<glyph unicode="&#xd5;" glyph-name="Otilde" horiz-adv-x="1266" d="M432 1367T441 1382T465 1411T499 1425Q506 1425 509 1424L710 1382Q722 1379 733 1379Q775 1379 804 1410T849 1478T865 1521L823 1523Q821 1519 814 1506T792 1480T759 1467Q755 1467 747
1469L544 1511Q536 1513 522 1513Q481 1513 453 1482T411 1415T397 1372L430 1362Q432 1367 441 1382ZM795 -27T935 65T1147 306T1218 624Q1218 806 1153 954T964 1188T669 1274Q482 1274 342 1192T126 961T50 620Q50 442 119 294T313 60T599 -27Q795 -27 935 65ZM758
1197T855 1113T1002 886T1052 574Q1052 443 1011 326T878 133T647 58Q507 58 410 141T265 366T217 678Q217 818 257 935T388 1124T620 1197Q758 1197 855 1113Z" />
<glyph unicode="&#xd6;" glyph-name="Odieresis" horiz-adv-x="1266" d="M528 1364T547 1385T566 1445Q566 1481 546 1502T494 1523Q464 1523 444 1502T424 1445Q424 1408 443 1386T495 1364Q528 1364 547 1385ZM796 1364T815 1385T835 1445Q835 1481 815 1502T762
1523Q732 1523 713 1502T693 1445Q693 1408 712 1386T763 1364Q796 1364 815 1385ZM795 -27T935 65T1147 306T1218 624Q1218 806 1153 954T964 1188T669 1274Q482 1274 342 1192T126 961T50 620Q50 442 119 294T313 60T599 -27Q795 -27 935 65ZM758 1197T855 1113T1002
886T1052 574Q1052 443 1011 326T878 133T647 58Q507 58 410 141T265 366T217 678Q217 818 257 935T388 1124T620 1197Q758 1197 855 1113Z" />
<glyph unicode="&#xd7;" glyph-name="multiply" horiz-adv-x="558" d="M108 232L277 407L441 236L511 292L338 458L506 615L450 686L281 514L123 681L52 625L221 462L51 302L108 232Z" />
<glyph unicode="&#xd8;" glyph-name="Oslash" horiz-adv-x="1264" d="M1136 1014T1176 891T1216 624Q1216 456 1145 307T934 65T598 -27Q508 -27 429 0T284 80L224 -5L108 8L212 148Q134 237 92 359T50 620Q50 812 125 960T341 1191T668 1274Q855 1274 989 1170L1037
1233L1158 1220L1060 1102Q1136 1014 1176 891ZM478 1197T388 1125T256 935T215 678Q215 556 240 447T316 255L916 1048Q861 1119 787 1158T619 1197Q478 1197 388 1125ZM787 58T878 133T1010 325T1051 574Q1051 694 1027 801T954 991L354 199Q469 58 647 58Q787
58 878 133Z" />
<glyph unicode="&#xd9;" glyph-name="Ugrave" horiz-adv-x="1398" d="M698 1362L749 1393L616 1728L512 1691L698 1362ZM226 465Q226 -27 693 -27Q943 -27 1057 106T1173 503L1178 1156L1344 1187L1353 1244H902L894 1187L1078 1154L1077 466Q1077 271 988 172T734
73Q565 73 470 175T374 503V1156L543 1187L550 1244H52L43 1187L226 1154V465Z" />
<glyph unicode="&#xda;" glyph-name="Uacute" horiz-adv-x="1398" d="M711 1362L893 1683L790 1722L662 1392L711 1362ZM226 465Q226 -27 693 -27Q943 -27 1057 106T1173 503L1178 1156L1344 1187L1353 1244H902L894 1187L1078 1154L1077 466Q1077 271 988 172T734
73Q565 73 470 175T374 503V1156L543 1187L550 1244H52L43 1187L226 1154V465Z" />
<glyph unicode="&#xdb;" glyph-name="Ucircumflex" horiz-adv-x="1398" d="M549 1362L698 1485H707L880 1363L920 1400L742 1586L687 1572L519 1392L549 1362ZM226 465Q226 -27 693 -27Q943 -27 1057 106T1173 503L1178 1156L1344 1187L1353 1244H902L894 1187L1078
1154L1077 466Q1077 271 988 172T734 73Q565 73 470 175T374 503V1156L543 1187L550 1244H52L43 1187L226 1154V465Z" />
<glyph unicode="&#xdc;" glyph-name="Udieresis" horiz-adv-x="1398" d="M616 1368T635 1389T654 1449Q654 1485 634 1506T582 1527Q552 1527 532 1506T512 1449Q512 1412 531 1390T583 1368Q616 1368 635 1389ZM884 1368T903 1389T923 1449Q923 1485 903 1506T850
1527Q820 1527 801 1506T781 1449Q781 1412 800 1390T851 1368Q884 1368 903 1389ZM226 465Q226 -27 693 -27Q943 -27 1057 106T1173 503L1178 1156L1344 1187L1353 1244H902L894 1187L1078 1154L1077 466Q1077 271 988 172T734 73Q565 73 470 175T374 503V1156L543
1187L550 1244H52L43 1187L226 1154V465Z" />
<glyph unicode="&#xdd;" glyph-name="Yacute" horiz-adv-x="1214" d="M629 1362L811 1683L708 1722L580 1392L629 1362ZM183 1152L537 497V96L375 58L367 0H850L859 63L687 91V509L1034 1156L1161 1188L1167 1244H750L744 1188L928 1152L641 605L345 1156L508
1188L516 1244H53L44 1188L183 1152Z" />
<glyph unicode="&#xde;" glyph-name="Thorn" horiz-adv-x="1045" d="M225 96L60 57L53 0H599L610 64L375 94V946Q386 947 421 950T482 953Q597 953 676 910T795 793T834 632Q834 492 749 410T490 323L437 322Q437 301 451 259Q499 254 535 254Q659 254 765 305T935
449T999 660Q999 852 863 938T506 1024Q436 1024 375 1021V1156L548 1187L556 1244H55L47 1187L225 1154V96Z" />
<glyph unicode="&#xdf;" glyph-name="germandbls" horiz-adv-x="1101" d="M342 945Q342 1078 386 1148T515 1219Q569 1219 616 1192T690 1117T718 1012Q718 965 696 928T629 839Q594 799 574 771T539 704T524 620Q524 553 559 501T643 413T770 330Q828 296 862
273T918 221T940 161Q940 106 899 74T791 41Q628 41 587 269Q542 264 512 236T481 158Q481 104 517 61T617 -8T760 -33Q837 -33 905 -2T1015 86T1057 214Q1057 275 1025 322T945 403T822 480Q756 518 718 545T653 606T627 682Q627 714 649 745T716 822Q757 864
782 895T826 967T844 1054Q844 1128 809 1185T712 1273T575 1304Q467 1304 387 1247T261 1092T209 877L71 853L60 804H207V88L56 52L44 0H342V945Z" />
<glyph unicode="&#xe0;" glyph-name="agrave" horiz-adv-x="821" d="M371 990L422 1021L289 1356L185 1319L371 990ZM324 -25T381 0T476 61T530 130H538V116Q538 61 573 22T678 -18Q705 -18 726 -15T777 -3L797 2L806 62L748 73Q704 80 683 99T655 148T648 230V581Q648
738 589 811T401 885Q329 885 255 856T133 780T85 681Q85 630 118 611T198 591Q203 673 214 719T251 789T329 813Q432 813 476 739T521 528V461Q364 454 258 415T99 310T46 159Q46 103 74 61T150 -3T252 -25Q324 -25 381 0ZM521 187Q494 139 439 105T318 71Q278
71 248 89T203 136T187 197Q187 374 521 410V187Z" />
<glyph unicode="&#xe1;" glyph-name="aacute" horiz-adv-x="821" d="M384 990L566 1311L463 1350L335 1020L384 990ZM324 -25T381 0T476 61T530 130H538V116Q538 61 573 22T678 -18Q705 -18 726 -15T777 -3L797 2L806 62L748 73Q704 80 683 99T655 148T648 230V581Q648
738 589 811T401 885Q329 885 255 856T133 780T85 681Q85 630 118 611T198 591Q203 673 214 719T251 789T329 813Q432 813 476 739T521 528V461Q364 454 258 415T99 310T46 159Q46 103 74 61T150 -3T252 -25Q324 -25 381 0ZM521 187Q494 139 439 105T318 71Q278
71 248 89T203 136T187 197Q187 374 521 410V187Z" />
<glyph unicode="&#xe2;" glyph-name="acircumflex" horiz-adv-x="821" d="M199 980L348 1103H357L530 981L570 1018L392 1204L337 1190L169 1010L199 980ZM324 -25T381 0T476 61T530 130H538V116Q538 61 573 22T678 -18Q705 -18 726 -15T777 -3L797 2L806 62L748
73Q704 80 683 99T655 148T648 230V581Q648 738 589 811T401 885Q329 885 255 856T133 780T85 681Q85 630 118 611T198 591Q203 673 214 719T251 789T329 813Q432 813 476 739T521 528V461Q364 454 258 415T99 310T46 159Q46 103 74 61T150 -3T252 -25Q324 -25
381 0ZM521 187Q494 139 439 105T318 71Q278 71 248 89T203 136T187 197Q187 374 521 410V187Z" />
<glyph unicode="&#xe3;" glyph-name="atilde" horiz-adv-x="821" d="M156 995T165 1010T189 1039T223 1053Q230 1053 233 1052L434 1010Q446 1007 457 1007Q499 1007 528 1038T573 1106T589 1149L547 1151Q545 1147 538 1134T516 1108T483 1095Q479 1095 471 1097L268
1139Q260 1141 246 1141Q205 1141 177 1110T135 1043T121 1000L154 990Q156 995 165 1010ZM324 -25T381 0T476 61T530 130H538V116Q538 61 573 22T678 -18Q705 -18 726 -15T777 -3L797 2L806 62L748 73Q704 80 683 99T655 148T648 230V581Q648 738 589 811T401
885Q329 885 255 856T133 780T85 681Q85 630 118 611T198 591Q203 673 214 719T251 789T329 813Q432 813 476 739T521 528V461Q364 454 258 415T99 310T46 159Q46 103 74 61T150 -3T252 -25Q324 -25 381 0ZM521 187Q494 139 439 105T318 71Q278 71 248 89T203 136T187
197Q187 374 521 410V187Z" />
<glyph unicode="&#xe4;" glyph-name="adieresis" horiz-adv-x="821" d="M262 980T281 1001T300 1061Q300 1097 280 1118T228 1139Q198 1139 178 1118T158 1061Q158 1024 177 1002T229 980Q262 980 281 1001ZM530 980T549 1001T569 1061Q569 1097 549 1118T496
1139Q466 1139 447 1118T427 1061Q427 1024 446 1002T497 980Q530 980 549 1001ZM324 -25T381 0T476 61T530 130H538V116Q538 61 573 22T678 -18Q705 -18 726 -15T777 -3L797 2L806 62L748 73Q704 80 683 99T655 148T648 230V581Q648 738 589 811T401 885Q329 885
255 856T133 780T85 681Q85 630 118 611T198 591Q203 673 214 719T251 789T329 813Q432 813 476 739T521 528V461Q364 454 258 415T99 310T46 159Q46 103 74 61T150 -3T252 -25Q324 -25 381 0ZM521 187Q494 139 439 105T318 71Q278 71 248 89T203 136T187 197Q187
374 521 410V187Z" />
<glyph unicode="&#xe5;" glyph-name="aring" horiz-adv-x="821" d="M409 980T447 1004T507 1069T529 1155Q529 1227 486 1272T372 1318Q326 1318 288 1295T227 1232T205 1146Q205 1070 247 1025T360 980Q409 980 447 1004ZM406 1274T433 1234T461 1142Q461 1086
437 1056T371 1025Q325 1025 299 1066T272 1158Q272 1206 294 1240T361 1274Q406 1274 433 1234ZM324 -25T381 0T476 61T530 130H538V116Q538 61 573 22T678 -18Q705 -18 726 -15T777 -3L797 2L806 62L748 73Q704 80 683 99T655 148T648 230V581Q648 738 589 811T401
885Q329 885 255 856T133 780T85 681Q85 630 118 611T198 591Q203 673 214 719T251 789T329 813Q432 813 476 739T521 528V461Q364 454 258 415T99 310T46 159Q46 103 74 61T150 -3T252 -25Q324 -25 381 0ZM521 187Q494 139 439 105T318 71Q278 71 248 89T203 136T187
197Q187 374 521 410V187Z" />
<glyph unicode="&#xe6;" glyph-name="ae" horiz-adv-x="1203" d="M319 -26T382 2T488 76T546 172Q564 112 615 66T731 -5T849 -30Q945 -30 1025 6T1158 104L1139 146Q1081 106 1030 88T918 70Q823 70 760 118T665 248T632 428L1115 448Q1122 474 1127 514T1133
578Q1133 731 1065 808T882 886Q805 886 732 852T605 748Q584 819 531 853T397 888Q327 888 254 861T132 789T84 693Q84 609 192 609Q201 680 213 722T252 788T329 813Q431 813 469 746T508 539V476Q338 451 237 408T91 304T46 163Q46 104 73 61T147 -4T247 -26Q319
-26 382 2ZM904 809T948 755T992 611Q992 596 989 569T982 529L632 492Q634 589 661 661T734 771T832 809Q904 809 948 755ZM508 255Q508 202 478 158T402 88T309 62Q249 62 216 100T182 200Q182 263 216 304T321 372T508 416V255Z" />
<glyph unicode="&#xe7;" glyph-name="ccedilla" horiz-adv-x="765" d="M693 59T630 25T492 -23L454 -79Q493 -113 518 -149T543 -230Q543 -286 491 -325T343 -393L327 -342Q370 -327 400 -301T430 -251Q430 -222 413 -199T376 -156T350 -131L420 -30H418Q306 -30
223 28T96 185T52 405Q52 549 106 659T251 828T452 888Q532 888 583 865T659 805T683 726Q683 643 588 627Q557 714 514 762T404 810Q344 810 296 771T220 658T192 480Q192 363 227 270T328 123T484 69Q606 69 703 148L724 102Q693 59 630 25Z" />
<glyph unicode="&#xe8;" glyph-name="egrave" horiz-adv-x="765" d="M407 980L458 1011L325 1346L221 1309L407 980ZM507 -30T587 6T720 104L701 148Q645 110 594 94T480 78Q386 78 322 129T227 263T193 445L677 451Q684 477 689 517T694 582Q694 734 627 810T444
886Q345 886 255 831T108 669T52 420Q52 274 101 173T231 21T411 -30Q507 -30 587 6ZM468 809T510 755T553 610Q553 550 546 530L195 507Q197 605 224 673T296 775T395 809Q468 809 510 755Z" />
<glyph unicode="&#xe9;" glyph-name="eacute" horiz-adv-x="765" d="M440 980L622 1301L519 1340L391 1010L440 980ZM507 -30T587 6T720 104L701 148Q645 110 594 94T480 78Q386 78 322 129T227 263T193 445L677 451Q684 477 689 517T694 582Q694 734 627 810T444
886Q345 886 255 831T108 669T52 420Q52 274 101 173T231 21T411 -30Q507 -30 587 6ZM468 809T510 755T553 610Q553 550 546 530L195 507Q197 605 224 673T296 775T395 809Q468 809 510 755Z" />
<glyph unicode="&#xea;" glyph-name="ecircumflex" horiz-adv-x="765" d="M230 980L379 1103H388L561 981L601 1018L423 1204L368 1190L200 1010L230 980ZM507 -30T587 6T720 104L701 148Q645 110 594 94T480 78Q386 78 322 129T227 263T193 445L677 451Q684 477
689 517T694 582Q694 734 627 810T444 886Q345 886 255 831T108 669T52 420Q52 274 101 173T231 21T411 -30Q507 -30 587 6ZM468 809T510 755T553 610Q553 550 546 530L195 507Q197 605 224 673T296 775T395 809Q468 809 510 755Z" />
<glyph unicode="&#xeb;" glyph-name="edieresis" horiz-adv-x="765" d="M316 985T335 1006T354 1066Q354 1102 334 1123T282 1144Q252 1144 232 1123T212 1066Q212 1029 231 1007T283 985Q316 985 335 1006ZM584 985T603 1006T623 1066Q623 1102 603 1123T550
1144Q520 1144 501 1123T481 1066Q481 1029 500 1007T551 985Q584 985 603 1006ZM507 -30T587 6T720 104L701 148Q645 110 594 94T480 78Q386 78 322 129T227 263T193 445L677 451Q684 477 689 517T694 582Q694 734 627 810T444 886Q345 886 255 831T108 669T52
420Q52 274 101 173T231 21T411 -30Q507 -30 587 6ZM468 809T510 755T553 610Q553 550 546 530L195 507Q197 605 224 673T296 775T395 809Q468 809 510 755Z" />
<glyph unicode="&#xec;" glyph-name="igrave" horiz-adv-x="556" d="M264 990L315 1021L182 1356L78 1319L264 990ZM488 0L499 57L339 87V871L323 887L64 865L56 814L208 772V87L57 55L45 0H488Z" />
<glyph unicode="&#xed;" glyph-name="iacute" horiz-adv-x="556" d="M263 990L445 1311L342 1350L214 1020L263 990ZM488 0L499 57L339 87V871L323 887L64 865L56 814L208 772V87L57 55L45 0H488Z" />
<glyph unicode="&#xee;" glyph-name="icircumflex" horiz-adv-x="556" d="M76 990L225 1113H234L407 991L447 1028L269 1214L214 1200L46 1020L76 990ZM488 0L499 57L339 87V871L323 887L64 865L56 814L208 772V87L57 55L45 0H488Z" />
<glyph unicode="&#xef;" glyph-name="idieresis" horiz-adv-x="560" d="M149 988T168 1009T187 1069Q187 1105 167 1126T115 1147Q85 1147 65 1126T45 1069Q45 1032 64 1010T116 988Q149 988 168 1009ZM417 988T436 1009T456 1069Q456 1105 436 1126T383 1147Q353
1147 334 1126T314 1069Q314 1032 333 1010T384 988Q417 988 436 1009ZM492 0L503 57L343 87V871L327 887L68 865L60 814L212 772V87L61 55L49 0H492Z" />
<glyph unicode="&#xf0;" glyph-name="eth" horiz-adv-x="851" d="M535 -27T620 32T753 203T802 465Q802 666 747 828T599 1112L702 1133L711 1197L555 1164Q474 1255 397 1303H305Q382 1233 451 1141L264 1103L253 1040L485 1086Q587 936 618 821L611 820Q589
876 532 912T413 949Q308 949 226 886T97 710T51 451Q51 324 92 215T218 40T427 -27Q535 -27 620 32ZM400 875Q464 874 525 818T626 659T665 425Q665 253 613 152T450 50Q376 50 318 102T225 255T190 499Q190 664 240 769T395 875H400Z" />
<glyph unicode="&#xf1;" glyph-name="ntilde" horiz-adv-x="1070" d="M327 995T336 1010T360 1039T394 1053Q401 1053 404 1052L605 1010Q617 1007 628 1007Q670 1007 699 1038T744 1106T760 1149L718 1151Q716 1147 709 1134T687 1108T654 1095Q650 1095 642
1097L439 1139Q431 1141 417 1141Q376 1141 348 1110T306 1043T292 1000L325 990Q327 995 336 1010ZM485 58L339 86V670Q399 730 453 755T577 781Q652 781 699 729T747 568V86L607 52L599 0H1012L1019 58L878 86V600Q878 744 816 817T647 890Q556 890 471 841T336
730H328L338 862L326 876L61 846L54 794L209 755V86L56 52L48 0H475L485 58Z" />
<glyph unicode="&#xf2;" glyph-name="ograve" horiz-adv-x="893" d="M450 990L501 1021L368 1356L264 1319L450 990ZM553 -27T645 32T791 197T845 439Q845 567 799 670T668 832T469 891Q356 891 260 833T108 667T51 411Q51 282 99 183T237 28T444 -27Q553 -27
645 32ZM515 806T578 744T672 583T704 380Q704 291 677 217T599 98T479 54Q387 54 322 113T225 271T192 483Q192 572 219 646T300 763T426 806Q515 806 578 744Z" />
<glyph unicode="&#xf3;" glyph-name="oacute" horiz-adv-x="893" d="M473 990L655 1311L552 1350L424 1020L473 990ZM553 -27T645 32T791 197T845 439Q845 567 799 670T668 832T469 891Q356 891 260 833T108 667T51 411Q51 282 99 183T237 28T444 -27Q553 -27
645 32ZM515 806T578 744T672 583T704 380Q704 291 677 217T599 98T479 54Q387 54 322 113T225 271T192 483Q192 572 219 646T300 763T426 806Q515 806 578 744Z" />
<glyph unicode="&#xf4;" glyph-name="ocircumflex" horiz-adv-x="893" d="M287 985L436 1108H445L618 986L658 1023L480 1209L425 1195L257 1015L287 985ZM553 -27T645 32T791 197T845 439Q845 567 799 670T668 832T469 891Q356 891 260 833T108 667T51 411Q51
282 99 183T237 28T444 -27Q553 -27 645 32ZM515 806T578 744T672 583T704 380Q704 291 677 217T599 98T479 54Q387 54 322 113T225 271T192 483Q192 572 219 646T300 763T426 806Q515 806 578 744Z" />
<glyph unicode="&#xf5;" glyph-name="otilde" horiz-adv-x="893" d="M246 995T255 1010T279 1039T313 1053Q320 1053 323 1052L524 1010Q536 1007 547 1007Q589 1007 618 1038T663 1106T679 1149L637 1151Q635 1147 628 1134T606 1108T573 1095Q569 1095 561 1097L358
1139Q350 1141 336 1141Q295 1141 267 1110T225 1043T211 1000L244 990Q246 995 255 1010ZM553 -27T645 32T791 197T845 439Q845 567 799 670T668 832T469 891Q356 891 260 833T108 667T51 411Q51 282 99 183T237 28T444 -27Q553 -27 645 32ZM515 806T578 744T672
583T704 380Q704 291 677 217T599 98T479 54Q387 54 322 113T225 271T192 483Q192 572 219 646T300 763T426 806Q515 806 578 744Z" />
<glyph unicode="&#xf6;" glyph-name="odieresis" horiz-adv-x="893" d="M353 985T372 1006T391 1066Q391 1102 371 1123T319 1144Q289 1144 269 1123T249 1066Q249 1029 268 1007T320 985Q353 985 372 1006ZM621 985T640 1006T660 1066Q660 1102 640 1123T587
1144Q557 1144 538 1123T518 1066Q518 1029 537 1007T588 985Q621 985 640 1006ZM553 -27T645 32T791 197T845 439Q845 567 799 670T668 832T469 891Q356 891 260 833T108 667T51 411Q51 282 99 183T237 28T444 -27Q553 -27 645 32ZM515 806T578 744T672 583T704
380Q704 291 677 217T599 98T479 54Q387 54 322 113T225 271T192 483Q192 572 219 646T300 763T426 806Q515 806 578 744Z" />
<glyph unicode="&#xf7;" glyph-name="divide" horiz-adv-x="918" d="M494 676T519 707T545 790Q545 837 519 865T451 894Q410 894 386 866T361 790Q361 740 386 708T452 676Q494 676 519 707ZM860 465L871 550H59L46 465H860ZM494 112T519 143T545 225Q545 272
519 301T451 330Q410 330 386 302T361 226Q361 176 386 144T452 112Q494 112 519 143Z" />
<glyph unicode="&#xf8;" glyph-name="oslash" horiz-adv-x="946" d="M790 741Q829 681 849 606T870 445Q870 309 816 201T670 33T469 -27Q324 -27 222 58L180 6L43 0L157 129Q117 186 96 259T75 417Q75 565 132 675T285 844T494 903Q630 903 726 816L770 873L905
880L790 741ZM378 819T326 774T246 654T218 489Q218 340 268 230L650 695Q614 753 564 786T451 819Q378 819 326 774ZM573 54T624 99T701 221T728 386Q728 451 716 516T679 638L296 176Q334 118 386 86T504 54Q573 54 624 99Z" />
<glyph unicode="&#xf9;" glyph-name="ugrave" horiz-adv-x="1026" d="M454 980L505 1011L372 1346L268 1309L454 980ZM186 275Q186 -24 414 -24Q496 -24 568 16T692 132H704V120Q704 59 740 19T841 -21Q876 -21 904 -16T967 -1L974 58L920 70Q863 81 842 114T821
223V857L807 874L541 850L535 790L692 754V187Q653 144 601 115T486 86Q314 86 314 317V857L298 874L49 853L41 800L186 757V275Z" />
<glyph unicode="&#xfa;" glyph-name="uacute" horiz-adv-x="1026" d="M483 990L665 1311L562 1350L434 1020L483 990ZM186 275Q186 -24 414 -24Q496 -24 568 16T692 132H704V120Q704 59 740 19T841 -21Q876 -21 904 -16T967 -1L974 58L920 70Q863 81 842 114T821
223V857L807 874L541 850L535 790L692 754V187Q653 144 601 115T486 86Q314 86 314 317V857L298 874L49 853L41 800L186 757V275Z" />
<glyph unicode="&#xfb;" glyph-name="ucircumflex" horiz-adv-x="1026" d="M304 990L453 1113H462L635 991L675 1028L497 1214L442 1200L274 1020L304 990ZM186 275Q186 -24 414 -24Q496 -24 568 16T692 132H704V120Q704 59 740 19T841 -21Q876 -21 904 -16T967
-1L974 58L920 70Q863 81 842 114T821 223V857L807 874L541 850L535 790L692 754V187Q653 144 601 115T486 86Q314 86 314 317V857L298 874L49 853L41 800L186 757V275Z" />
<glyph unicode="&#xfc;" glyph-name="udieresis" horiz-adv-x="1026" d="M401 991T420 1012T439 1072Q439 1108 419 1129T367 1150Q337 1150 317 1129T297 1072Q297 1035 316 1013T368 991Q401 991 420 1012ZM669 991T688 1012T708 1072Q708 1108 688 1129T635
1150Q605 1150 586 1129T566 1072Q566 1035 585 1013T636 991Q669 991 688 1012ZM186 275Q186 -24 414 -24Q496 -24 568 16T692 132H704V120Q704 59 740 19T841 -21Q876 -21 904 -16T967 -1L974 58L920 70Q863 81 842 114T821 223V857L807 874L541 850L535 790L692
754V187Q653 144 601 115T486 86Q314 86 314 317V857L298 874L49 853L41 800L186 757V275Z" />
<glyph unicode="&#xfd;" glyph-name="yacute" horiz-adv-x="992" d="M532 990L714 1311L611 1350L483 1020L532 990ZM262 -379T317 -347T418 -244T512 -53L842 772L943 808L948 861H631L620 806L750 771L520 195L305 775L432 808L438 861H55L46 805L170 772L448
12L425 -49Q354 -229 243 -229Q193 -229 157 -217T85 -176Q40 -215 40 -274Q40 -303 59 -327T111 -365T185 -379Q262 -379 317 -347Z" />
<glyph unicode="&#xfe;" glyph-name="thorn" horiz-adv-x="955" d="M484 -309L328 -283V678Q377 729 427 760T539 792Q651 792 706 692T762 411Q762 311 733 233T646 111T503 66Q462 66 433 69T375 82L379 -4Q427 -17 485 -17Q605 -17 701 45T852 218T907 468Q907
605 868 702T761 848T605 898Q456 898 328 740H319L331 849V1284L315 1300L54 1280L46 1226L196 1184L199 -282L47 -311L41 -370H474L484 -309Z" />
<glyph unicode="&#xff;" glyph-name="ydieresis" horiz-adv-x="992" d="M427 989T446 1010T465 1070Q465 1106 445 1127T393 1148Q363 1148 343 1127T323 1070Q323 1033 342 1011T394 989Q427 989 446 1010ZM695 989T714 1010T734 1070Q734 1106 714 1127T661
1148Q631 1148 612 1127T592 1070Q592 1033 611 1011T662 989Q695 989 714 1010ZM262 -379T317 -347T418 -244T512 -53L842 772L943 808L948 861H631L620 806L750 771L520 195L305 775L432 808L438 861H55L46 805L170 772L448 12L425 -49Q354 -229 243 -229Q193
-229 157 -217T85 -176Q40 -215 40 -274Q40 -303 59 -327T111 -365T185 -379Q262 -379 317 -347Z" />
<glyph unicode="&#x2013;" glyph-name="endash" horiz-adv-x="752" d="M676 426L689 509L78 503L65 420L676 426Z" />
<glyph unicode="&#x2014;" glyph-name="emdash" horiz-adv-x="1261" d="M1184 426L1198 509L78 503L64 420L1184 426Z" />
<glyph unicode="&#x2018;" glyph-name="quoteleft" horiz-adv-x="404" d="M176 1237T115 1152T54 976Q54 907 77 860T137 790T213 767Q256 767 288 796T321 873Q321 890 313 914Q299 911 284 911Q236 911 204 946T172 1035Q172 1166 352 1225L334 1283Q176 1237
115 1152Z" />
<glyph unicode="&#x2019;" glyph-name="quoteright" horiz-adv-x="406" d="M231 812T292 897T353 1073Q353 1142 330 1189T270 1259T194 1282Q151 1282 119 1254T86 1176Q86 1159 94 1135Q108 1138 123 1138Q171 1138 203 1103T235 1014Q235 883 55 824L73 766Q231
812 292 897Z" />
<glyph unicode="&#x201a;" glyph-name="quotesinglbase" horiz-adv-x="414" d="M232 -252T293 -167T354 9Q354 78 331 125T271 195T195 218Q152 218 120 190T87 112Q87 95 95 71Q109 74 124 74Q172 74 204 39T236 -50Q236 -181 56 -240L74 -298Q232 -252 293 -167Z" />
<glyph unicode="&#x201c;" glyph-name="quotedblleft" horiz-adv-x="720" d="M492 1237T431 1152T370 976Q370 907 393 860T453 790T529 767Q572 767 604 796T637 873Q637 890 629 914Q615 911 600 911Q552 911 520 946T488 1035Q488 1166 668 1225L650 1283Q492
1237 431 1152ZM176 1237T115 1152T54 976Q54 907 77 860T137 790T213 767Q256 767 288 796T321 873Q321 890 313 914Q299 911 284 911Q236 911 204 946T172 1035Q172 1166 352 1225L334 1283Q176 1237 115 1152Z" />
<glyph unicode="&#x201d;" glyph-name="quotedblright" horiz-adv-x="753" d="M578 812T639 897T700 1073Q700 1142 677 1189T617 1259T541 1282Q498 1282 466 1254T433 1176Q433 1159 441 1135Q455 1138 470 1138Q518 1138 550 1103T582 1014Q582 883 402 824L420
766Q578 812 639 897ZM231 812T292 897T353 1073Q353 1142 330 1189T270 1259T194 1282Q151 1282 119 1254T86 1176Q86 1159 94 1135Q108 1138 123 1138Q171 1138 203 1103T235 1014Q235 883 55 824L73 766Q231 812 292 897Z" />
<glyph unicode="&#x201e;" glyph-name="quotedblbase" horiz-adv-x="736" d="M232 -252T293 -167T354 9Q354 78 331 125T271 195T195 218Q152 218 120 190T87 112Q87 95 95 71Q109 74 124 74Q172 74 204 39T236 -50Q236 -181 56 -240L74 -298Q232 -252 293 -167ZM556
-252T617 -167T678 9Q678 78 655 125T595 195T519 218Q476 218 444 190T411 112Q411 95 419 71Q433 74 448 74Q496 74 528 39T560 -50Q560 -181 380 -240L398 -298Q556 -252 617 -167Z" />
<glyph unicode="&#x2022;" glyph-name="bullet" horiz-adv-x="1174" d="M243 414T276 458T309 575Q309 644 275 686T187 728Q134 728 102 687T69 577Q69 505 101 460T188 414Q243 414 276 458Z" />
<glyph unicode="&#x2039;" glyph-name="guilsinglleft" horiz-adv-x="405" d="M51 449L312 77L354 128L177 461L353 774L317 821L49 469L51 449Z" />
<glyph unicode="&#x203a;" glyph-name="guilsinglright" horiz-adv-x="406" d="M357 449L359 469L91 821L55 774L231 461L54 128L96 77L357 449Z" />
</font>
</defs>
</svg>
