<?xml version="1.0" standalone="no"?>
<!DOCTYPE svg PUBLIC "-//W3C//DTD SVG 1.1//EN" "http://www.w3.org/Graphics/SVG/1.1/DTD/svg11.dtd">
<svg xmlns="http://www.w3.org/2000/svg">
<defs >
<font id="Sarpanch" horiz-adv-x="686" ><font-face
    font-family="Sarpanch ExtraBold"
    units-per-em="1000"
    panose-1="0 0 9 0 0 0 0 0 0 0"
    ascent="1050"
    descent="-350"
    alphabetic="0" />
<glyph unicode=" " glyph-name="space" horiz-adv-x="274" />
<glyph unicode="!" glyph-name="exclam" horiz-adv-x="352" d="M69 622H283L251 209H102L69 622ZM77 0V137H275V0H77Z" />
<glyph unicode="&quot;" glyph-name="quotedbl" horiz-adv-x="504" d="M54 622H219V372H54V622ZM285 622H450V372H285V622Z" />
<glyph unicode="#" glyph-name="numbersign" horiz-adv-x="951" d="M549 237L597 384H408L360 237H549ZM903 384H756L707 237H845V147H677L629 0H471L519 147H330L282 0H124L172 147H47V237H202L251 384H106V475H281L329 622H486L438 475H627L675 622H834L786
475H903V384Z" />
<glyph unicode="$" glyph-name="dollar" horiz-adv-x="677" d="M275 343H540Q619 343 619 264V79Q619 0 540 0H430V-90H242V0H137Q58 0 58 79V189H247V90Q247 70 252 65T278 59H400Q420 59 425 64T431 90V253Q431 272 426 278T400 284H134Q55 284 55 363V543Q55
622 134 622H242V714H430V622H537Q616 622 616 543V433H427V532Q427 552 422 557T396 563H275Q256 563 250 558T244 532V374Q244 354 250 349T275 343Z" />
<glyph unicode="%" glyph-name="percent" horiz-adv-x="1195" d="M1154 302V57Q1154 1 1100 1H793Q739 1 739 57V302Q739 358 793 358H1100Q1154 358 1154 302ZM1012 71V287Q1012 301 1008 305T990 309H903Q889 309 885 305T881 287V71Q881 57 885 53T903 49H990Q1004
49 1008 53T1012 71ZM759 622H903L433 0H291L759 622ZM456 566V321Q456 265 402 265H95Q41 265 41 321V566Q41 622 95 622H402Q456 622 456 566ZM315 335V551Q315 565 311 569T293 573H205Q191 573 188 569T184 551V335Q184 321 188 317T205 313H293Q307 313 311
317T315 335Z" />
<glyph unicode="&amp;" glyph-name="ampersand" horiz-adv-x="872" d="M272 59H513L312 228L278 216Q258 208 250 198T241 169V90Q241 70 246 65T272 59ZM309 532V452Q309 424 322 405T375 352L410 365Q447 378 462 391T477 427V532Q477 552 472 557T446 563H340Q320
563 315 558T309 532ZM137 0Q58 0 58 79V165Q58 209 81 232T167 277L228 299Q184 336 168 352Q125 391 125 446V543Q125 622 204 622H582Q661 622 661 543V446Q661 393 631 364T533 310L458 283L675 101V237H824V92Q824 32 783 11L849 -45H636L583 0H137Z" />
<glyph unicode="&apos;" glyph-name="quotesingle" horiz-adv-x="274" d="M54 622H221V372H54V622Z" />
<glyph unicode="(" glyph-name="parenleft" horiz-adv-x="373" d="M68 113V386Q68 551 152 634T389 718H430V659H411Q261 656 261 418V80Q261 -157 411 -161H430V-220H389Q237 -220 153 -136T68 113Z" />
<glyph unicode=")" glyph-name="parenright" horiz-adv-x="373" d="M305 386V113Q305 -52 221 -136T-17 -220H-57V-161H-38Q112 -157 112 80V418Q112 656 -38 659H-57V718H-17Q136 718 220 635T305 386Z" />
<glyph unicode="*" glyph-name="asterisk" horiz-adv-x="561" d="M215 662H352V601Q352 557 335 513Q372 540 411 553L468 572L512 441L453 422Q421 411 398 411T365 412Q404 384 426 352L462 303L351 221L315 271Q291 306 278 353Q263 308 240 275L204 226L93
307L129 356Q152 388 195 416Q144 418 109 429L51 448L94 579L152 560Q190 547 230 516Q215 558 215 601V662Z" />
<glyph unicode="+" glyph-name="plus" horiz-adv-x="717" d="M663 367V253H447V106H270V253H54V367H270V514H447V367H663Z" />
<glyph unicode="," glyph-name="comma" horiz-adv-x="304" d="M57 -140V150H254V66L122 -140H57Z" />
<glyph unicode="-" glyph-name="hyphen" horiz-adv-x="432" d="M57 242V301H375V242H57Z" />
<glyph unicode="." glyph-name="period" horiz-adv-x="311" d="M57 0V137H254V0H57Z" />
<glyph unicode="/" glyph-name="slash" horiz-adv-x="486" d="M397 699H558L134 -136H-27L397 699Z" />
<glyph unicode="0" glyph-name="zero" horiz-adv-x="709" d="M641 543V79Q641 0 562 0H147Q68 0 68 79V543Q68 622 147 622H562Q641 622 641 543ZM448 90V532Q448 552 442 557T417 563H293Q274 563 268 558T262 532V90Q262 70 268 65T293 59H417Q436 59 442 64T448 90Z" />
<glyph unicode="1" glyph-name="one" horiz-adv-x="411" d="M344 622V0H144V563H17V622H344Z" />
<glyph unicode="2" glyph-name="two" horiz-adv-x="661" d="M244 532V409H49V543Q49 622 128 622H538Q617 622 617 543V455Q617 389 604 357T553 289L298 59H620V0H48V59L372 353Q402 381 413 402T425 456V532Q425 552 420 557T394 563H275Q256 563 250 558T244 532Z" />
<glyph unicode="3" glyph-name="three" horiz-adv-x="688" d="M248 532V423H55V543Q55 622 134 622H548Q627 622 627 543V387Q627 321 567 318Q627 314 627 249V79Q627 0 548 0H134Q55 0 55 79V198H248V90Q248 70 254 65T279 59H403Q422 59 428 64T434 90V254Q434
274 428 279T403 285H279V345H403Q422 345 428 350T434 376V532Q434 552 428 557T403 563H279Q260 563 254 558T248 532Z" />
<glyph unicode="4" glyph-name="four" horiz-adv-x="702" d="M688 160V101H590V0H408V101H27V186L300 622H498L218 160H408V328H590V160H688Z" />
<glyph unicode="5" glyph-name="five" horiz-adv-x="672" d="M273 379H546Q625 379 625 300V79Q625 0 546 0H144Q65 0 65 79V210H258V90Q258 70 264 65T289 59H401Q420 59 426 64T432 90V289Q432 308 426 314T401 320H73V622H613V563H273V379Z" />
<glyph unicode="6" glyph-name="six" horiz-adv-x="687" d="M433 90V270Q433 290 428 295T402 301H262V90Q262 70 268 65T293 59H402Q422 59 427 64T433 90ZM262 360H547Q626 360 626 281V79Q626 0 547 0H147Q68 0 68 79V543Q68 622 147 622H537Q616 622 616 543V430H423V532Q423
552 418 557T392 563H293Q274 563 268 558T262 532V360Z" />
<glyph unicode="7" glyph-name="seven" horiz-adv-x="568" d="M554 622V545L289 0H84L365 563H24V622H554Z" />
<glyph unicode="8" glyph-name="eight" horiz-adv-x="688" d="M144 622H545Q624 622 624 543V383Q624 317 563 314Q624 309 624 245V79Q624 0 545 0H144Q65 0 65 79V245Q65 310 125 314Q65 317 65 383V543Q65 622 144 622ZM258 252V90Q258 70 264 65T289 59H400Q420
59 425 64T431 90V252Q431 272 426 277T400 283H289Q270 283 264 278T258 252ZM431 373V532Q431 552 426 557T400 563H289Q270 563 264 558T258 532V373Q258 354 264 348T289 342H400Q420 342 425 348T431 373Z" />
<glyph unicode="9" glyph-name="nine" horiz-adv-x="689" d="M287 318H427V532Q427 552 422 557T396 563H287Q268 563 262 558T256 532V349Q256 330 262 324T287 318ZM142 622H542Q621 622 621 543V79Q621 0 542 0H151Q72 0 72 79V188H265V90Q265 70 270 65T296
59H396Q416 59 421 64T427 90V259H142Q63 259 63 338V543Q63 622 142 622Z" />
<glyph unicode=":" glyph-name="colon" horiz-adv-x="311" d="M57 362H254V123H57V362Z" />
<glyph unicode=";" glyph-name="semicolon" horiz-adv-x="304" d="M57 348V485H254V348H57ZM57 -140V150H254V66L122 -140H57Z" />
<glyph unicode="&lt;" glyph-name="less" horiz-adv-x="712" d="M671 390L186 312L671 231V108L34 253V374L671 512V390Z" />
<glyph unicode="=" glyph-name="equal" horiz-adv-x="731" d="M61 355V470H670V355H61ZM61 150V265H670V150H61Z" />
<glyph unicode="&gt;" glyph-name="greater" horiz-adv-x="712" d="M525 312L41 390V512L678 374V253L41 108V231L525 312Z" />
<glyph unicode="?" glyph-name="question" horiz-adv-x="619" d="M195 0V137H392V0H195ZM103 622H506Q585 622 585 544V356Q585 278 506 278H382L373 209H218L203 343H368Q387 343 392 349T398 375V532Q398 551 393 557T368 563H241Q222 563 216 557T210 532V427H24V544Q24
622 103 622Z" />
<glyph unicode="@" glyph-name="at" horiz-adv-x="1156" d="M410 426H597Q634 426 644 401V426H796V118H915Q932 118 936 123T941 144V477Q941 494 937 498T915 503H248Q232 503 227 499T222 477V15Q222 -2 227 -6T248 -11H855V-71H137Q71 -71 71 -5V497Q71 563
137 563H1026Q1092 563 1092 497V125Q1092 59 1026 59H648V109Q641 78 597 78H410Q344 78 344 144V360Q344 426 410 426ZM495 341V163Q495 146 499 142T521 137H614Q643 137 644 161V343Q643 367 614 367H521Q504 367 500 363T495 341Z" />
<glyph unicode="A" glyph-name="A" horiz-adv-x="738" d="M260 182H475L368 508L260 182ZM534 0L494 123H241L200 0H14L250 622H487L724 0H534Z" />
<glyph unicode="B" glyph-name="B" horiz-adv-x="721" d="M75 622H574Q653 622 653 543V381Q653 315 592 312Q653 307 653 244V79Q653 0 574 0H75V622ZM468 84V251Q468 270 462 276T437 282H268V59H434Q468 59 468 84ZM468 372V532Q468 552 462 557T437 563H268V341H437Q456
341 462 346T468 372Z" />
<glyph unicode="C" glyph-name="C" horiz-adv-x="688" d="M638 398H445V532Q445 552 440 557T414 563H292Q272 563 267 558T261 532V90Q261 70 266 65T292 59H414Q434 59 439 64T445 90V222H638V79Q638 0 559 0H147Q68 0 68 79V543Q68 622 147 622H559Q638 622
638 543V398Z" />
<glyph unicode="D" glyph-name="D" horiz-adv-x="723" d="M462 90V532Q462 552 456 557T431 563H268V59H431Q450 59 456 64T462 90ZM75 622H576Q655 622 655 543V79Q655 0 576 0H75V622Z" />
<glyph unicode="E" glyph-name="E" horiz-adv-x="621" d="M275 59H587V0H75V622H574V563H275V348H533V289H275V59Z" />
<glyph unicode="F" glyph-name="F" horiz-adv-x="601" d="M574 563H275V324H535V265H275V0H75V622H574V563Z" />
<glyph unicode="G" glyph-name="G" horiz-adv-x="700" d="M639 418H446V532Q446 552 440 557T415 563H292Q272 563 267 558T261 532V90Q261 70 266 65T292 59H415Q434 59 440 64T446 90V261H344V320H639V79Q639 0 560 0H147Q68 0 68 79V543Q68 622 147 622H560Q639
622 639 543V418Z" />
<glyph unicode="H" glyph-name="H" horiz-adv-x="769" d="M501 622H694V0H501V282H268V0H75V622H268V341H501V622Z" />
<glyph unicode="I" glyph-name="I" horiz-adv-x="363" d="M81 622H281V0H81V622Z" />
<glyph unicode="J" glyph-name="J" horiz-adv-x="632" d="M27 238H221V90Q221 70 226 65T252 59H340Q360 59 365 64T371 90V622H565V79Q565 0 486 0H106Q27 0 27 79V238Z" />
<glyph unicode="K" glyph-name="K" horiz-adv-x="725" d="M493 622H701L476 318L707 0H498L274 318L493 622ZM75 622H263V0H75V622Z" />
<glyph unicode="L" glyph-name="L" horiz-adv-x="576" d="M268 59H559V0H75V622H268V59Z" />
<glyph unicode="M" glyph-name="M" horiz-adv-x="919" d="M248 0H75V622H281L458 242L639 622H845V0H671V450L520 135H397L248 448V0Z" />
<glyph unicode="N" glyph-name="N" horiz-adv-x="744" d="M491 622H670V0H504L253 442V0H75V622H243L491 179V622Z" />
<glyph unicode="O" glyph-name="O" horiz-adv-x="708" d="M640 543V79Q640 0 561 0H147Q68 0 68 79V543Q68 622 147 622H561Q640 622 640 543ZM448 90V532Q448 552 442 557T417 563H292Q272 563 267 558T261 532V90Q261 70 266 65T292 59H417Q436 59 442 64T448 90Z" />
<glyph unicode="P" glyph-name="P" horiz-adv-x="698" d="M464 293V532Q464 552 458 557T433 563H268V262H433Q452 262 458 268T464 293ZM75 622H578Q657 622 657 543V282Q657 203 578 203H268V0H75V622Z" />
<glyph unicode="Q" glyph-name="Q" horiz-adv-x="695" d="M250 532V90Q250 70 256 65T281 59H413Q432 59 438 64T444 90V532Q444 552 438 557T413 563H281Q262 563 256 558T250 532ZM139 0Q60 0 60 79V543Q60 622 139 622H554Q633 622 633 543V79Q633 0 554 0H519L644
-97H427L313 0H139Z" />
<glyph unicode="R" glyph-name="R" horiz-adv-x="716" d="M268 563V282H433Q452 282 458 288T464 313V532Q464 552 458 557T433 563H268ZM268 223V0H75V622H578Q657 622 657 543V302Q657 223 578 223H533L674 0H473L340 223H268Z" />
<glyph unicode="S" glyph-name="S" horiz-adv-x="678" d="M427 90V253Q427 272 422 278T396 284H135Q56 284 56 363V543Q56 622 135 622H538Q617 622 617 543V427H424V532Q424 552 418 557T393 563H280Q260 563 255 558T249 532V374Q249 354 254 349T280 343H541Q620
343 620 264V79Q620 0 541 0H138Q59 0 59 79V195H252V90Q252 70 258 65T283 59H396Q416 59 421 64T427 90Z" />
<glyph unicode="T" glyph-name="T" horiz-adv-x="590" d="M584 622V563H391V0H198V563H7V622H584Z" />
<glyph unicode="U" glyph-name="U" horiz-adv-x="715" d="M261 622V90Q261 70 266 65T292 59H423Q442 59 448 64T454 90V622H647V79Q647 0 568 0H147Q68 0 68 79V622H261Z" />
<glyph unicode="V" glyph-name="V" horiz-adv-x="721" d="M510 622H705L474 0H246L16 622H211L360 127L510 622Z" />
<glyph unicode="W" glyph-name="W" horiz-adv-x="1119" d="M916 622H1102L903 0H678L559 426L440 0H216L17 622H212L328 135L464 622H653L789 135L916 622Z" />
<glyph unicode="X" glyph-name="X" horiz-adv-x="711" d="M455 323L698 0H492L351 209L209 0H13L247 310L21 622H227L351 428L475 622H672L455 323Z" />
<glyph unicode="Y" glyph-name="Y" horiz-adv-x="699" d="M452 0H259V205L5 622H195L354 309L505 622H693L452 206V0Z" />
<glyph unicode="Z" glyph-name="Z" horiz-adv-x="647" d="M606 622V563L260 59H596V0H41V59L387 563H57V622H606Z" />
<glyph unicode="[" glyph-name="bracketleft" horiz-adv-x="369" d="M405 660H265V-161H405V-220H71V719H405V660Z" />
<glyph unicode="\" glyph-name="backslash" horiz-adv-x="483" d="M-71 699H89L513 -136H352L-71 699Z" />
<glyph unicode="]" glyph-name="bracketright" horiz-adv-x="369" d="M298 719V-220H-36V-161H104V660H-36V719H298Z" />
<glyph unicode="^" glyph-name="asciicircum" horiz-adv-x="654" d="M217 668H437L631 328H460L327 567L193 328H23L217 668Z" />
<glyph unicode="_" glyph-name="underscore" horiz-adv-x="646" d="M6 -59V0H640V-59H6Z" />
<glyph unicode="`" glyph-name="grave" horiz-adv-x="605" d="M346 657L484 506H333L161 657H346Z" />
<glyph unicode="a" glyph-name="a" horiz-adv-x="662" d="M276 59H374Q410 59 410 90V395Q410 426 374 426H276Q256 426 251 420T245 395V90Q245 70 250 65T276 59ZM410 485H594V0H410V29Q396 0 353 0H140Q61 0 61 79V406Q61 485 140 485H353Q396 485 410 456V485Z" />
<glyph unicode="b" glyph-name="b" horiz-adv-x="662" d="M417 90V395Q417 414 412 420T386 426H288Q252 426 252 395V90Q252 59 288 59H386Q406 59 411 64T417 90ZM309 485H522Q601 485 601 406V79Q601 0 522 0H309Q266 0 252 29V0H68V669H252V456Q266 485 309 485Z" />
<glyph unicode="c" glyph-name="c" horiz-adv-x="627" d="M583 312H404V395Q404 414 398 420T373 426H276Q256 426 251 420T245 395V90Q245 70 250 65T276 59H373Q392 59 398 64T404 90V171H583V79Q583 0 504 0H140Q61 0 61 79V406Q61 485 140 485H504Q583 485
583 406V312Z" />
<glyph unicode="d" glyph-name="d" horiz-adv-x="662" d="M276 59H374Q410 59 410 90V395Q410 426 374 426H276Q256 426 251 420T245 395V90Q245 70 250 65T276 59ZM410 669H594V0H410V29Q396 0 353 0H140Q61 0 61 79V406Q61 485 140 485H353Q396 485 410 456V669Z" />
<glyph unicode="e" glyph-name="e" horiz-adv-x="658" d="M245 278H426V395Q426 414 420 420T395 426H276Q256 426 251 420T245 395V278ZM140 485H525Q604 485 604 406V219H245V90Q245 70 250 65T276 59H394Q414 59 419 64T425 90V154H603V79Q603 0 524 0H140Q61
0 61 79V406Q61 485 140 485Z" />
<glyph unicode="f" glyph-name="f" horiz-adv-x="413" d="M406 609H315Q296 609 290 604T284 578V485H406V426H284V0H100V426H28V485H100V590Q100 669 179 669H406V609Z" />
<glyph unicode="g" glyph-name="g" horiz-adv-x="658" d="M276 59H374Q410 59 410 90V395Q410 426 374 426H276Q256 426 251 420T245 395V90Q245 70 250 65T276 59ZM594 30H595V-62Q595 -141 516 -141H88V-82H380Q400 -82 405 -76T411 -51V22H410V29Q396 0 353
0H140Q61 0 61 79V406Q61 485 140 485H353Q396 485 410 456V485H594V30Z" />
<glyph unicode="h" glyph-name="h" horiz-adv-x="662" d="M309 485H522Q601 485 601 406V0H418V395Q418 414 412 420T387 426H288Q252 426 252 395V0H68V669H252V456Q266 485 309 485Z" />
<glyph unicode="i" glyph-name="i" horiz-adv-x="327" d="M255 0H71V485H255V0ZM68 558V669H259V558H68Z" />
<glyph unicode="j" glyph-name="j" horiz-adv-x="323" d="M71 -51V485H256V-62Q256 -141 177 -141H-31V-82H40Q60 -82 65 -76T71 -51ZM68 558V669H259V558H68Z" />
<glyph unicode="k" glyph-name="k" horiz-adv-x="654" d="M68 0V669H252V0H68ZM636 485L449 245L636 0H442L263 245L443 485H636Z" />
<glyph unicode="l" glyph-name="l" horiz-adv-x="333" d="M258 0H75V669H258V0Z" />
<glyph unicode="m" glyph-name="m" horiz-adv-x="999" d="M658 485H859Q938 485 938 406V0H754V395Q754 414 748 420T723 426H635Q597 426 597 388V0H414V395Q414 414 408 420T383 426H288Q252 426 252 395V0H68V485H252V457Q264 485 308 485H518Q578 485 592
440Q604 485 658 485Z" />
<glyph unicode="n" glyph-name="n" horiz-adv-x="662" d="M309 485H522Q601 485 601 406V0H417V395Q417 414 412 420T386 426H288Q252 426 252 395V0H68V485H252V456Q266 485 309 485Z" />
<glyph unicode="o" glyph-name="o" horiz-adv-x="658" d="M414 90V395Q414 414 408 420T383 426H275Q256 426 250 420T244 395V90Q244 70 250 65T275 59H383Q402 59 408 64T414 90ZM140 485H518Q597 485 597 406V79Q597 0 518 0H140Q61 0 61 79V406Q61 485 140 485Z" />
<glyph unicode="p" glyph-name="p" horiz-adv-x="666" d="M421 90V394Q421 414 416 419T390 425H288Q252 425 252 394V90Q252 59 288 59H390Q410 59 415 64T421 90ZM308 484H526Q605 484 605 405V79Q605 0 526 0H308Q264 0 252 28V-141H68V484H248V445Q258 484 308 484Z" />
<glyph unicode="q" glyph-name="q" horiz-adv-x="663" d="M289 59H390Q427 59 427 90V394Q427 411 419 418T390 425H289Q270 425 264 420T258 394V90Q258 70 264 65T289 59ZM430 484H611V-141H427V30Q415 0 370 0H153Q74 0 74 79V405Q74 484 153 484H370Q419 484
430 446V484Z" />
<glyph unicode="r" glyph-name="r" horiz-adv-x="432" d="M361 487H425V418H325Q252 418 252 342V0H68V485H252V427Q275 487 361 487Z" />
<glyph unicode="s" glyph-name="s" horiz-adv-x="612" d="M378 90V181Q378 200 372 206T347 212H130Q51 212 51 291V406Q51 485 130 485H475Q554 485 554 406V334H376V395Q376 414 370 420T345 426H266Q246 426 241 420T235 395V302Q235 282 240 277T266 271H482Q561
271 561 192V79Q561 0 482 0H134Q55 0 55 79V151H234V90Q234 70 240 65T265 59H347Q366 59 372 64T378 90Z" />
<glyph unicode="t" glyph-name="t" horiz-adv-x="407" d="M380 426H280V92Q280 72 286 67T311 61H379V0H175Q96 0 96 79V426H18V485H96V596H280V485H380V426Z" />
<glyph unicode="u" glyph-name="u" horiz-adv-x="662" d="M410 485H594V0H410V29Q396 0 353 0H140Q61 0 61 79V485H245V90Q245 70 250 65T276 59H374Q410 59 410 90V485Z" />
<glyph unicode="v" glyph-name="v" horiz-adv-x="633" d="M12 485H193L315 114L439 485H620L430 0H202L12 485Z" />
<glyph unicode="w" glyph-name="w" horiz-adv-x="926" d="M740 485H913L758 0H549L463 360L377 0H169L13 485H186L283 114L380 485H546L643 114L740 485Z" />
<glyph unicode="x" glyph-name="x" horiz-adv-x="624" d="M401 268L621 0H405L280 155L142 0H16L219 227L10 485H224L339 338L467 485H596L401 268Z" />
<glyph unicode="y" glyph-name="y" horiz-adv-x="629" d="M237 -141H110V-82H177Q213 -82 231 -71T261 -34L276 0H206L14 485H206L322 119L440 485H625L425 -16Q412 -50 400 -70T366 -108Q329 -141 237 -141Z" />
<glyph unicode="z" glyph-name="z" horiz-adv-x="543" d="M509 59V0H35V59L303 426H51V485H500V426L228 59H509Z" />
<glyph unicode="{" glyph-name="braceleft" horiz-adv-x="430" d="M340 568V375Q340 320 316 286T247 249Q292 246 316 212T340 123V-70Q340 -117 351 -139T397 -162H453V-221H365Q251 -221 199 -181T147 -36V131Q147 179 126 200T54 221H42V280H54Q104 280 125
302T147 372V534Q147 639 199 679T365 719H453V660H397Q363 660 352 638T340 568Z" />
<glyph unicode="|" glyph-name="bar" horiz-adv-x="325" d="M78 778H248V-158H78V778Z" />
<glyph unicode="}" glyph-name="braceright" horiz-adv-x="442" d="M103 375V568Q103 616 92 638T46 660H-11V719H77Q192 719 243 679T295 534V372Q295 324 316 302T388 280H400V221H388Q338 221 317 200T295 131V-36Q295 -141 244 -181T77 -221H-11V-162H46Q80
-162 91 -140T103 -70V123Q103 177 126 211T196 249Q150 251 127 285T103 375Z" />
<glyph unicode="~" glyph-name="asciitilde" horiz-adv-x="803" d="M400 211T358 235T285 260T246 253T237 224V163H55V257Q55 335 133 335H279Q318 335 354 320T414 286Q477 237 526 237Q549 237 557 244T566 273V335H748V241Q748 162 670 162H525Q484 162 442 186Z" />
<glyph unicode="&#xa1;" glyph-name="exclamdown" horiz-adv-x="361" d="M106 275H255L287 -138H73L106 275ZM81 484H279V347H81V484Z" />
<glyph unicode="&#xa2;" glyph-name="cent" horiz-adv-x="618" d="M578 312H399V395Q399 414 394 420T368 426H271Q252 426 246 420T240 395V90Q240 70 246 65T271 59H368Q388 59 393 64T399 90V171H578V79Q578 0 499 0H411V-79H224V0H135Q56 0 56 79V406Q56 485
135 485H224V562H411V485H499Q578 485 578 406V312Z" />
<glyph unicode="&#xa3;" glyph-name="sterling" horiz-adv-x="706" d="M670 101V0H47V80Q87 87 101 119T116 208V270H43V329H116V543Q116 622 195 622H583Q662 622 662 543V421H469V532Q469 552 464 557T438 563H340Q320 563 315 558T309 532V329H545V270H309V216Q309
166 301 138T268 101H670Z" />
<glyph unicode="&#xa4;" glyph-name="currency" horiz-adv-x="790" d="M346 167H446Q503 167 523 181T543 248V332Q543 386 522 407T446 429H346Q292 429 270 408T248 332V248Q248 196 268 182T346 167ZM683 345V252Q683 213 673 186L731 129L634 30L552 110Q524
108 506 108H285Q268 108 238 110L156 30L59 129L118 187Q108 213 108 252V345Q108 382 118 408L59 466L156 565L238 485Q259 488 285 488H506Q523 488 553 486L634 565L731 466L673 409Q683 382 683 345Z" />
<glyph unicode="&#xa5;" glyph-name="yen" horiz-adv-x="733" d="M664 328V269H506L469 206V200H664V141H469V0H276V141H78V200H276V205L237 269H78V328H201L22 622H212L371 309L522 622H711L540 328H664Z" />
<glyph unicode="&#xa6;" glyph-name="brokenbar" horiz-adv-x="318" d="M74 252H244V-158H74V252ZM244 369H74V778H244V369Z" />
<glyph unicode="&#xa7;" glyph-name="section" horiz-adv-x="868" d="M711 123V19Q711 -60 632 -60H272Q193 -60 193 19V84H382V30Q382 10 388 5T413 -1H492Q512 -1 517 4T523 30V119Q523 138 518 144T492 150H279Q200 150 200 229V322Q200 357 217 378T258 404Q214
416 214 464V576Q214 655 293 655H654Q733 655 733 576V511H545V565Q545 584 540 590T514 596H434Q414 596 409 590T403 565V475Q403 456 408 450T434 444H647Q726 444 726 365V266Q726 231 709 213T668 190Q684 184 697 167T711 123ZM507 385H420Q400 385 395
380T389 354V240Q389 220 394 215T420 209H507Q526 209 532 214T538 240V354Q538 374 532 379T507 385Z" />
<glyph unicode="&#xa8;" glyph-name="dieresis" horiz-adv-x="667" d="M384 646H581V526H384V646ZM86 646H283V526H86V646Z" />
<glyph unicode="&#xa9;" glyph-name="copyright" horiz-adv-x="1073" d="M1012 339V280Q1012 138 943 69T700 0H372Q199 0 130 69T60 280V339Q60 481 129 551T372 622H700Q873 622 942 552T1012 339ZM404 59H669Q772 59 814 109T857 268V351Q857 461 814 512T669
563H404Q302 563 259 512T215 351V268Q215 159 258 109T404 59ZM602 240V278H736V229Q736 150 657 150H418Q339 150 339 229V398Q339 477 418 477H657Q736 477 736 398V350H602V387Q602 406 596 412T571 418H503Q484 418 478 412T472 387V240Q472 220 478 215T503
209H571Q590 209 596 214T602 240Z" />
<glyph unicode="&#xaa;" glyph-name="ordfeminine" horiz-adv-x="457" d="M196 322H254Q281 322 281 344V558Q281 580 254 580H196Q182 580 178 577T174 559V344Q174 330 178 326T196 322ZM281 622H411V280H281V301Q272 280 241 280H100Q44 280 44 335V566Q44
622 100 622H241Q272 622 281 601V622Z" />
<glyph unicode="&#xab;" glyph-name="guillemotleft" horiz-adv-x="694" d="M581 398L445 248L581 97H248L110 248L248 398H581Z" />
<glyph unicode="&#xac;" glyph-name="logicalnot" horiz-adv-x="779" d="M704 401V124H596V265H66V401H704Z" />
<glyph unicode="&#xad;" glyph-name="uni00AD" horiz-adv-x="403" d="M55 249V308H348V249H55Z" />
<glyph unicode="&#xae;" glyph-name="registered" horiz-adv-x="651" d="M602 538V505Q602 423 562 383T422 343H230Q130 343 90 383T49 505V538Q49 620 89 660T230 701H422Q522 701 562 661T602 538ZM249 381H403Q460 381 484 409T509 498V545Q509 607 485 635T403
664H249Q192 664 168 636T143 545V498Q143 437 167 409T249 381ZM228 617H395Q423 617 423 590V525Q423 498 396 498H387L431 430H356L317 496H299V430H228V617ZM351 532V583Q351 593 342 593H299V523H342Q351 523 351 532Z" />
<glyph unicode="&#xaf;" glyph-name="overscore" horiz-adv-x="667" d="M96 550V608H570V550H96Z" />
<glyph unicode="&#xb0;" glyph-name="degree" horiz-adv-x="633" d="M575 544V388Q575 310 497 310H137Q59 310 59 388V544Q59 622 137 622H497Q575 622 575 544ZM401 399V533Q401 552 396 558T370 564H266Q246 564 241 558T235 533V399Q235 380 240 374T266 368H370Q390
368 395 374T401 399Z" />
<glyph unicode="&#xb1;" glyph-name="plusminus" horiz-adv-x="726" d="M51 129V216H660V129H51ZM438 431H660V330H438V256H274V330H51V431H274V514H438V431Z" />
<glyph unicode="&#xb2;" glyph-name="twosuperior" horiz-adv-x="391" d="M152 563V507H36V579Q36 622 79 622H314Q357 622 357 579V532Q357 463 319 429L188 323H356V280H42V323L213 468Q241 492 241 532V563Q241 574 238 577T224 580H169Q158 580 155 577T152 563Z" />
<glyph unicode="&#xb3;" glyph-name="threesuperior" horiz-adv-x="403" d="M161 563V512H45V579Q45 622 88 622H327Q371 622 371 579V493Q371 457 338 455Q371 452 371 417V323Q371 280 327 280H88Q45 280 45 323V389H161V339Q161 328 164 325T178 322H237Q248
322 251 325T254 339V415Q254 426 251 429T237 432H168V474H237Q248 474 251 477T254 491V563Q254 574 251 577T237 580H178Q168 580 165 577T161 563Z" />
<glyph unicode="&#xb4;" glyph-name="acute" horiz-adv-x="667" d="M167 506L305 657H490L318 506H167Z" />
<glyph unicode="&#xb5;" glyph-name="uni00B5" horiz-adv-x="670" d="M418 485H602V0H418V30Q406 0 361 0H252V-141H68V485H252V90Q252 70 258 65T283 59H381Q401 59 409 66T418 90V485Z" />
<glyph unicode="&#xb6;" glyph-name="paragraph" horiz-adv-x="777" d="M450 622V-141H286V212H132Q53 212 53 291V543Q53 622 132 622H450ZM546 622H710V-141H546V622Z" />
<glyph unicode="&#xb7;" glyph-name="middot" horiz-adv-x="326" d="M69 244V381H266V244H69Z" />
<glyph unicode="&#xb8;" glyph-name="cedilla" horiz-adv-x="667" d="M301 -148V-47H474V-157Q474 -239 392 -239H175V-181H269Q288 -181 294 -175T301 -148Z" />
<glyph unicode="&#xb9;" glyph-name="onesuperior" horiz-adv-x="283" d="M226 622V280H96V580H17V622H226Z" />
<glyph unicode="&#xba;" glyph-name="ordmasculine" horiz-adv-x="453" d="M395 575V327Q395 280 348 280H95Q48 280 48 327V575Q48 622 95 622H348Q395 622 395 575ZM271 341V562Q271 573 268 576T253 580H190Q178 580 175 577T171 562V341Q171 329 174 326T190
322H253Q265 322 268 325T271 341Z" />
<glyph unicode="&#xbb;" glyph-name="guillemotright" horiz-adv-x="682" d="M436 398L574 248L436 97H103L239 248L103 398H436Z" />
<glyph unicode="&#xbf;" glyph-name="questiondown" horiz-adv-x="644" d="M451 484V347H253V484H451ZM435 57H622V-60Q622 -138 543 -138H140Q61 -138 61 -60V128Q61 206 140 206H264L272 275H428L443 141H277Q259 141 253 135T247 109V-48Q247 -67 252 -73T277
-79H405Q424 -79 429 -73T435 -48V57Z" />
<glyph unicode="&#xc0;" glyph-name="Agrave" horiz-adv-x="735" d="M437 669H287L115 820H299L437 669ZM259 182H474L367 508L259 182ZM533 0L493 123H240L199 0H13L249 622H486L723 0H533Z" />
<glyph unicode="&#xc1;" glyph-name="Aacute" horiz-adv-x="735" d="M623 820L451 669H300L438 820H623ZM259 182H474L367 508L259 182ZM533 0L493 123H240L199 0H13L249 622H486L723 0H533Z" />
<glyph unicode="&#xc2;" glyph-name="Acircumflex" horiz-adv-x="735" d="M367 758L278 668H100L280 824H454L634 668H457L367 758ZM259 182H474L367 508L259 182ZM533 0L493 123H240L199 0H13L249 622H486L723 0H533Z" />
<glyph unicode="&#xc3;" glyph-name="Atilde" horiz-adv-x="735" d="M259 725V669H111V733Q111 811 187 811H248Q291 811 361 773T446 735Q466 735 466 756V811H613V748Q613 669 537 669H475Q442 669 401 688T327 727T278 746Q259 746 259 725ZM259 182H474L367
508L259 182ZM533 0L493 123H240L199 0H13L249 622H486L723 0H533Z" />
<glyph unicode="&#xc4;" glyph-name="Adieresis" horiz-adv-x="735" d="M615 789V669H419V789H615ZM318 789V669H121V789H318ZM259 182H474L367 508L259 182ZM533 0L493 123H240L199 0H13L249 622H486L723 0H533Z" />
<glyph unicode="&#xc5;" glyph-name="Aring" horiz-adv-x="735" d="M299 767V754Q299 735 304 730T329 724H407Q426 724 431 729T437 754V767Q437 786 432 791T407 797H329Q310 797 305 792T299 767ZM480 669H256Q182 669 182 744V778Q182 852 256 852H480Q554
852 554 778V744Q554 669 480 669ZM259 182H474L367 508L259 182ZM533 0L493 123H240L199 0H13L249 622H486L723 0H533Z" />
<glyph unicode="&#xc6;" glyph-name="AE" horiz-adv-x="1072" d="M529 190V518L329 190H529ZM723 59H1031V0H529V131H294L214 0H13L406 622H1018V563H723V348H981V289H723V59Z" />
<glyph unicode="&#xc7;" glyph-name="Ccedilla" horiz-adv-x="678" d="M257 -148V-47H430V-157Q430 -239 348 -239H131V-181H225Q244 -181 250 -175T257 -148ZM634 398H441V532Q441 552 436 557T410 563H288Q268 563 263 558T257 532V90Q257 70 262 65T288 59H410Q430
59 435 64T441 90V222H634V79Q634 0 555 0H143Q64 0 64 79V543Q64 622 143 622H555Q634 622 634 543V398Z" />
<glyph unicode="&#xc8;" glyph-name="Egrave" horiz-adv-x="616" d="M407 668H256L84 819H269L407 668ZM272 59H584V0H72V622H571V563H272V348H530V289H272V59Z" />
<glyph unicode="&#xc9;" glyph-name="Eacute" horiz-adv-x="616" d="M575 819L403 668H252L390 819H575ZM272 59H584V0H72V622H571V563H272V348H530V289H272V59Z" />
<glyph unicode="&#xca;" glyph-name="Ecircumflex" horiz-adv-x="616" d="M327 759L238 669H60L240 825H414L594 669H417L327 759ZM272 289V59H584V0H72V622H571V563H272V348H530V289H272Z" />
<glyph unicode="&#xcb;" glyph-name="Edieresis" horiz-adv-x="662" d="M570 789V669H374V789H570ZM273 789V669H76V789H273ZM272 59H585V0H72V622H571V563H272V348H530V289H272V59Z" />
<glyph unicode="&#xcc;" glyph-name="Igrave" horiz-adv-x="341" d="M75 622H275V0H75V622ZM109 820L247 669H96L-76 820H109Z" />
<glyph unicode="&#xcd;" glyph-name="Iacute" horiz-adv-x="341" d="M75 622H275V0H75V622ZM106 668L244 819H429L257 668H106Z" />
<glyph unicode="&#xce;" glyph-name="Icircumflex" horiz-adv-x="341" d="M75 622H275V0H75V622ZM-89 669L91 825H265L445 669H268L178 759L89 669H-89Z" />
<glyph unicode="&#xcf;" glyph-name="Idieresis" horiz-adv-x="341" d="M76 622H275V0H76V622ZM-70 788H127V668H-70V788ZM228 788H424V668H228V788Z" />
<glyph unicode="&#xd0;" glyph-name="Eth" horiz-adv-x="732" d="M475 90V532Q475 552 470 557T444 563H282V346H402V284H282V59H444Q464 59 469 64T475 90ZM88 622H589Q668 622 668 543V79Q668 0 589 0H88V284H20V346H88V622Z" />
<glyph unicode="&#xd1;" glyph-name="Ntilde" horiz-adv-x="740" d="M488 622H667V0H501L250 442V0H72V622H240L488 179V622ZM288 746Q269 746 269 725V669H121V733Q121 811 197 811H258Q301 811 371 773T456 735Q476 735 476 756V811H623V748Q623 669 547 669H485Q452
669 411 688T337 727T288 746Z" />
<glyph unicode="&#xd2;" glyph-name="Ograve" horiz-adv-x="705" d="M638 543V79Q638 0 559 0H145Q66 0 66 79V543Q66 622 145 622H559Q638 622 638 543ZM446 90V532Q446 552 440 557T415 563H290Q270 563 265 558T259 532V90Q259 70 264 65T290 59H415Q434 59
440 64T446 90ZM295 821L433 670H282L110 821H295Z" />
<glyph unicode="&#xd3;" glyph-name="Oacute" horiz-adv-x="705" d="M285 669L423 820H608L436 669H285ZM638 543V79Q638 0 559 0H145Q66 0 66 79V543Q66 622 145 622H559Q638 622 638 543ZM446 90V532Q446 552 440 557T415 563H290Q270 563 265 558T259 532V90Q259
70 264 65T290 59H415Q434 59 440 64T446 90Z" />
<glyph unicode="&#xd4;" glyph-name="Ocircumflex" horiz-adv-x="705" d="M86 669L266 825H440L620 669H443L353 759L264 669H86ZM638 543V79Q638 0 559 0H145Q66 0 66 79V543Q66 622 145 622H559Q638 622 638 543ZM446 90V532Q446 552 440 557T415 563H290Q270
563 265 558T259 532V90Q259 70 264 65T290 59H415Q434 59 440 64T446 90Z" />
<glyph unicode="&#xd5;" glyph-name="Otilde" horiz-adv-x="705" d="M638 543V79Q638 0 559 0H145Q66 0 66 79V543Q66 622 145 622H559Q638 622 638 543ZM446 90V532Q446 552 440 557T415 563H290Q270 563 265 558T259 532V90Q259 70 264 65T290 59H415Q434 59
440 64T446 90ZM265 746Q246 746 246 725V669H98V733Q98 811 174 811H235Q278 811 348 773T433 735Q453 735 453 756V811H600V748Q600 669 524 669H462Q429 669 388 688T314 727T265 746Z" />
<glyph unicode="&#xd6;" glyph-name="Odieresis" horiz-adv-x="690" d="M639 543V79Q639 0 560 0H145Q66 0 66 79V543Q66 622 145 622H560Q639 622 639 543ZM446 90V532Q446 552 440 557T415 563H290Q270 563 265 558T259 532V90Q259 70 264 65T290 59H415Q434
59 440 64T446 90ZM404 789H600V670H404V789ZM106 789H303V670H106V789Z" />
<glyph unicode="&#xd7;" glyph-name="multiply" horiz-adv-x="672" d="M619 436L448 312L617 189L537 105L349 241L161 105L82 190L250 312L80 435L160 521L349 384L538 521L619 436Z" />
<glyph unicode="&#xd8;" glyph-name="Oslash" horiz-adv-x="719" d="M462 89V383L255 119V89Q255 70 260 64T286 58H431Q450 58 456 64T462 89ZM255 533V230L462 494V533Q462 552 456 558T431 564H286Q266 564 261 558T255 533ZM648 543V79Q648 0 569 0H162L136
-33H49L90 19Q70 39 70 79V543Q70 622 149 622H562L588 655H675L631 599Q648 579 648 543Z" />
<glyph unicode="&#xd9;" glyph-name="Ugrave" horiz-adv-x="717" d="M262 622V90Q262 70 268 65T293 59H424Q444 59 449 64T455 90V622H648V79Q648 0 569 0H148Q69 0 69 79V622H262ZM305 821L443 670H292L120 821H305Z" />
<glyph unicode="&#xda;" glyph-name="Uacute" horiz-adv-x="717" d="M286 669L424 820H609L437 669H286ZM262 622V90Q262 70 268 65T293 59H424Q444 59 449 64T455 90V622H648V79Q648 0 569 0H148Q69 0 69 79V622H262Z" />
<glyph unicode="&#xdb;" glyph-name="Ucircumflex" horiz-adv-x="717" d="M90 669L270 825H444L624 669H447L357 759L268 669H90ZM262 622V90Q262 70 268 65T293 59H424Q444 59 449 64T455 90V622H648V79Q648 0 569 0H148Q69 0 69 79V622H262Z" />
<glyph unicode="&#xdc;" glyph-name="Udieresis" horiz-adv-x="717" d="M455 622H648V79Q648 0 569 0H147Q68 0 68 79V622H261V90Q261 70 266 65T292 59H424Q444 59 449 64T455 90V622ZM109 789H305V669H109V789ZM406 789H603V669H406V789Z" />
<glyph unicode="&#xdd;" glyph-name="Yacute" horiz-adv-x="695" d="M599 820L427 669H276L414 820H599ZM450 0H257V205L3 622H193L352 309L503 622H691L450 206V0Z" />
<glyph unicode="&#xde;" glyph-name="Thorn" horiz-adv-x="698" d="M456 192V430Q456 450 450 455T425 461H270V161H425Q444 161 450 166T456 192ZM270 520H570Q649 520 649 441V181Q649 102 570 102H270V0H77V622H270V520Z" />
<glyph unicode="&#xdf;" glyph-name="germandbls" horiz-adv-x="902" d="M350 160H533V90Q533 70 538 65T564 59H655Q674 59 680 64T686 90V201Q686 220 680 226T655 232H432Q353 232 353 311V380Q353 459 431 459H580Q601 459 607 464T613 488V531Q613 550 608
556T582 562H296Q276 562 271 556T265 531V0H77V543Q77 622 156 622H731Q810 622 810 543V474Q810 400 734 400H564Q544 400 539 394T533 369V322Q533 302 538 297T564 291H790Q869 291 869 212V79Q869 0 790 0H429Q350 0 350 79V160Z" />
<glyph unicode="&#xe0;" glyph-name="agrave" horiz-adv-x="657" d="M436 532H285L113 683H298L436 532ZM271 59H369Q405 59 405 90V395Q405 426 369 426H271Q252 426 246 420T240 395V90Q240 70 246 65T271 59ZM405 485H589V0H405V29Q391 0 348 0H135Q56 0 56
79V406Q56 485 135 485H348Q391 485 405 456V485Z" />
<glyph unicode="&#xe1;" glyph-name="aacute" horiz-adv-x="657" d="M580 683L408 532H257L395 683H580ZM271 59H369Q405 59 405 90V395Q405 426 369 426H271Q252 426 246 420T240 395V90Q240 70 246 65T271 59ZM405 485H589V0H405V29Q391 0 348 0H135Q56 0 56
79V406Q56 485 135 485H348Q391 485 405 456V485Z" />
<glyph unicode="&#xe2;" glyph-name="acircumflex" horiz-adv-x="657" d="M328 622L239 532H61L241 688H415L595 532H418L328 622ZM271 59H369Q405 59 405 90V395Q405 426 369 426H271Q252 426 246 420T240 395V90Q240 70 246 65T271 59ZM405 485H589V0H405V29Q391
0 348 0H135Q56 0 56 79V406Q56 485 135 485H348Q391 485 405 456V485Z" />
<glyph unicode="&#xe3;" glyph-name="atilde" horiz-adv-x="657" d="M224 588V532H76V596Q76 674 152 674H213Q256 674 326 636T411 598Q431 598 431 619V674H578V611Q578 532 502 532H440Q390 532 292 590Q258 609 243 609Q224 609 224 588ZM271 59H369Q405 59
405 90V395Q405 426 369 426H271Q252 426 246 420T240 395V90Q240 70 246 65T271 59ZM405 485H589V0H405V29Q391 0 348 0H135Q56 0 56 79V406Q56 485 135 485H348Q391 485 405 456V485Z" />
<glyph unicode="&#xe4;" glyph-name="adieresis" horiz-adv-x="657" d="M586 651V531H389V651H586ZM288 651V531H91V651H288ZM271 59H369Q405 59 405 90V395Q405 426 369 426H271Q252 426 246 420T240 395V90Q240 70 246 65T271 59ZM405 485H589V0H405V29Q391
0 348 0H135Q56 0 56 79V406Q56 485 135 485H348Q391 485 405 456V485Z" />
<glyph unicode="&#xe5;" glyph-name="aring" horiz-adv-x="657" d="M258 630V617Q258 598 263 593T288 587H366Q385 587 390 592T396 617V630Q396 649 391 654T366 660H288Q269 660 264 655T258 630ZM439 532H215Q141 532 141 607V641Q141 715 215 715H439Q513
715 513 641V607Q513 532 439 532ZM271 59H369Q405 59 405 90V395Q405 426 369 426H271Q252 426 246 420T240 395V90Q240 70 246 65T271 59ZM405 485H589V0H405V29Q391 0 348 0H135Q56 0 56 79V406Q56 485 135 485H348Q391 485 405 456V485Z" />
<glyph unicode="&#xe6;" glyph-name="ae" horiz-adv-x="1011" d="M731 426H612Q592 426 587 420T581 395V278H762V395Q762 414 756 420T731 426ZM275 59H370Q389 59 395 65T402 90V215L244 178V90Q244 70 250 65T275 59ZM937 219H581V90Q581 70 586 65T612 59H729Q748
59 754 64T760 90V153H939V79Q939 0 860 0H587Q535 0 517 8T492 37Q486 18 463 9T385 0H139Q60 0 60 79V201L402 280V397Q402 415 396 421T370 427H275Q256 427 250 422T244 396V303H60V406Q60 485 139 485H385Q439 485 462 476T492 448Q498 468 516 476T587 485H862Q941
485 941 406V223H937V219Z" />
<glyph unicode="&#xe7;" glyph-name="ccedilla" horiz-adv-x="618" d="M234 -148V-47H407V-157Q407 -239 325 -239H108V-181H202Q221 -181 227 -175T234 -148ZM578 312H399V395Q399 414 394 420T368 426H271Q252 426 246 420T240 395V90Q240 70 246 65T271 59H368Q388
59 393 64T399 90V171H578V79Q578 0 499 0H135Q56 0 56 79V406Q56 485 135 485H499Q578 485 578 406V312Z" />
<glyph unicode="&#xe8;" glyph-name="egrave" horiz-adv-x="647" d="M410 532H259L87 683H272L410 532ZM240 278H421V395Q421 414 416 420T390 426H271Q252 426 246 420T240 395V278ZM135 485H520Q599 485 599 406V219H240V90Q240 70 246 65T271 59H389Q408 59
414 64T420 90V154H598V79Q598 0 519 0H135Q56 0 56 79V406Q56 485 135 485Z" />
<glyph unicode="&#xe9;" glyph-name="eacute" horiz-adv-x="647" d="M581 683L409 532H258L396 683H581ZM240 278H421V395Q421 414 416 420T390 426H271Q252 426 246 420T240 395V278ZM135 485H520Q599 485 599 406V219H240V90Q240 70 246 65T271 59H389Q408 59
414 64T420 90V154H598V79Q598 0 519 0H135Q56 0 56 79V406Q56 485 135 485Z" />
<glyph unicode="&#xea;" glyph-name="ecircumflex" horiz-adv-x="647" d="M330 622L241 532H63L243 688H417L597 532H420L330 622ZM240 278H421V395Q421 414 416 420T390 426H271Q252 426 246 420T240 395V278ZM135 485H520Q599 485 599 406V219H240V90Q240 70
246 65T271 59H389Q408 59 414 64T420 90V154H598V79Q598 0 519 0H135Q56 0 56 79V406Q56 485 135 485Z" />
<glyph unicode="&#xeb;" glyph-name="edieresis" horiz-adv-x="647" d="M280 652V532H84V652H280ZM578 652V532H381V652H578ZM135 485H520Q599 485 599 406V219H240V90Q240 70 246 65T271 59H389Q408 59 414 64T420 90V154H598V79Q598 0 519 0H135Q56 0 56 79V406Q56
485 135 485ZM240 278H421V395Q421 414 416 420T390 426H271Q252 426 246 420T240 395V278Z" />
<glyph unicode="&#xec;" glyph-name="igrave" horiz-adv-x="328" d="M256 0H72V485H256V0ZM95 683L233 532H82L-90 683H95Z" />
<glyph unicode="&#xed;" glyph-name="iacute" horiz-adv-x="328" d="M256 0H72V485H256V0ZM94 532L232 683H417L245 532H94Z" />
<glyph unicode="&#xee;" glyph-name="icircumflex" horiz-adv-x="328" d="M256 0H72V484H256V0ZM-101 532L79 688H253L433 532H256L166 622L77 532H-101Z" />
<glyph unicode="&#xef;" glyph-name="idieresis" horiz-adv-x="328" d="M256 0H72V484H256V0ZM215 653H412V533H215V653ZM-83 653H114V533H-83V653Z" />
<glyph unicode="&#xf0;" glyph-name="eth" horiz-adv-x="582" d="M438 90V316H279Q260 316 254 310T248 285V90Q248 70 254 65T279 59H407Q426 59 432 64T438 90ZM622 305V79Q622 0 543 0H143Q64 0 64 79V296Q64 375 143 375H427Q411 424 367 473L206 436V498L314
523Q258 569 155 622H407Q446 599 489 563L604 589V527L539 512Q622 416 622 305Z" />
<glyph unicode="&#xf1;" glyph-name="ntilde" horiz-adv-x="662" d="M230 587V531H82V595Q82 673 158 673H219Q262 673 332 635T417 597Q437 597 437 618V673H584V610Q584 531 508 531H446Q413 531 372 550T298 589T249 608Q230 608 230 587ZM310 485H523Q602
485 602 406V0H418V395Q418 414 412 420T387 426H289Q253 426 253 395V0H69V485H253V456Q267 485 310 485Z" />
<glyph unicode="&#xf2;" glyph-name="ograve" horiz-adv-x="657" d="M408 531H257L85 682H270L408 531ZM413 90V395Q413 414 408 420T382 426H274Q254 426 249 420T243 395V90Q243 70 248 65T274 59H382Q402 59 407 64T413 90ZM139 485H517Q596 485 596 406V79Q596
0 517 0H139Q60 0 60 79V406Q60 485 139 485Z" />
<glyph unicode="&#xf3;" glyph-name="oacute" horiz-adv-x="657" d="M587 682L415 531H264L402 682H587ZM413 90V395Q413 414 408 420T382 426H274Q254 426 249 420T243 395V90Q243 70 248 65T274 59H382Q402 59 407 64T413 90ZM139 485H517Q596 485 596 406V79Q596
0 517 0H139Q60 0 60 79V406Q60 485 139 485Z" />
<glyph unicode="&#xf4;" glyph-name="ocircumflex" horiz-adv-x="657" d="M330 623L241 533H63L243 689H417L597 533H420L330 623ZM413 90V395Q413 414 408 420T382 426H274Q254 426 249 420T243 395V90Q243 70 248 65T274 59H382Q402 59 407 64T413 90ZM139 485H517Q596
485 596 406V79Q596 0 517 0H139Q60 0 60 79V406Q60 485 139 485Z" />
<glyph unicode="&#xf5;" glyph-name="otilde" horiz-adv-x="657" d="M226 588V532H78V596Q78 674 154 674H215Q258 674 328 636T413 598Q433 598 433 619V674H580V611Q580 532 504 532H442Q392 532 294 590Q260 609 245 609Q226 609 226 588ZM413 90V395Q413 414
408 420T382 426H274Q254 426 249 420T243 395V90Q243 70 248 65T274 59H382Q402 59 407 64T413 90ZM139 485H517Q596 485 596 406V79Q596 0 517 0H139Q60 0 60 79V406Q60 485 139 485Z" />
<glyph unicode="&#xf6;" glyph-name="odieresis" horiz-adv-x="657" d="M139 485H518Q597 485 597 406V79Q597 0 518 0H139Q60 0 60 79V406Q60 485 139 485ZM413 395Q413 414 408 420T382 426H275Q256 426 250 420T244 395V90Q244 70 250 65T275 59H382Q402 59
407 64T413 90V395ZM85 652H281V532H85V652ZM382 652H579V532H382V652Z" />
<glyph unicode="&#xf7;" glyph-name="divide" horiz-adv-x="711" d="M42 253V367H651V253H42ZM251 514H442V420H251V514ZM251 200H442V106H251V200Z" />
<glyph unicode="&#xf8;" glyph-name="oslash" horiz-adv-x="664" d="M424 89V292L240 89Q240 69 246 63T272 57H393Q413 57 418 63T424 89ZM240 397V188L424 390V397Q424 416 418 422T393 428H272Q252 428 246 423T240 397ZM600 406V79Q600 0 521 0H159L129 -33H39L85
18Q64 38 64 79V406Q64 485 143 485H511L540 517H629L581 464Q600 445 600 406Z" />
<glyph unicode="&#xf9;" glyph-name="ugrave" horiz-adv-x="662" d="M421 532H270L98 683H283L421 532ZM409 485H593V0H409V29Q395 0 352 0H139Q60 0 60 79V485H244V90Q244 70 250 65T275 59H373Q409 59 409 90V485Z" />
<glyph unicode="&#xfa;" glyph-name="uacute" horiz-adv-x="662" d="M574 684L402 533H251L389 684H574ZM409 485H593V0H409V29Q395 0 352 0H139Q60 0 60 79V485H244V90Q244 70 250 65T275 59H373Q409 59 409 90V485Z" />
<glyph unicode="&#xfb;" glyph-name="ucircumflex" horiz-adv-x="662" d="M327 622L238 532H60L240 688H414L594 532H417L327 622ZM409 485H593V0H409V29Q395 0 352 0H139Q60 0 60 79V485H244V90Q244 70 250 65T275 59H373Q409 59 409 90V485Z" />
<glyph unicode="&#xfc;" glyph-name="udieresis" horiz-adv-x="677" d="M574 652V532H378V652H574ZM277 652V532H80V652H277ZM410 485H594V0H410V30Q398 0 353 0H139Q60 0 60 79V485H244V90Q244 70 250 65T275 59H373Q410 59 410 90V485Z" />
<glyph unicode="&#xfd;" glyph-name="yacute" horiz-adv-x="626" d="M236 -141H109V-82H176Q212 -82 230 -71T260 -34L275 0H205L13 485H205L321 119L439 485H624L424 -16Q411 -50 399 -70T366 -108Q328 -141 236 -141ZM251 533L389 684H574L402 533H251Z" />
<glyph unicode="&#xfe;" glyph-name="thorn" horiz-adv-x="662" d="M417 100V404Q417 424 412 429T386 435H288Q252 435 252 404V100Q252 69 288 69H386Q406 69 411 74T417 100ZM308 494H522Q601 494 601 415V89Q601 10 522 10H308Q264 10 252 38V-141H68V669H248V454Q259
494 308 494Z" />
<glyph unicode="&#xff;" glyph-name="ydieresis" horiz-adv-x="658" d="M236 -141H109V-82H175Q211 -82 230 -71T260 -34L275 0H205L13 485H204L320 119L439 485H623L424 -16Q411 -50 399 -70T366 -108Q328 -141 236 -141ZM376 651H573V531H376V651ZM79 651H275V531H79V651Z"
/>
<glyph unicode="&#x2013;" glyph-name="endash" horiz-adv-x="754" d="M63 262V321H596V262H63Z" />
<glyph unicode="&#x2014;" glyph-name="emdash" horiz-adv-x="997" d="M63 262V321H927V262H63Z" />
<glyph unicode="&#x2018;" glyph-name="quoteleft" horiz-adv-x="304" d="M251 622V346H54V416L186 622H251Z" />
<glyph unicode="&#x2019;" glyph-name="quoteright" horiz-adv-x="304" d="M57 346V622H255V551L123 346H57Z" />
<glyph unicode="&#x201a;" glyph-name="quotesinglbase" horiz-adv-x="302" d="M57 -126V150H255V80L123 -126H57Z" />
<glyph unicode="&#x201c;" glyph-name="quotedblleft" horiz-adv-x="546" d="M251 622V346H54V416L186 622H251ZM502 622V346H304V416L437 622H502Z" />
<glyph unicode="&#x201d;" glyph-name="quotedblright" horiz-adv-x="546" d="M308 346V622H505V551L373 346H308ZM57 346V622H255V551L123 346H57Z" />
<glyph unicode="&#x201e;" glyph-name="quotedblbase" horiz-adv-x="546" d="M308 -126V150H505V80L373 -126H308ZM57 -126V150H255V80L123 -126H57Z" />
<glyph unicode="&#x2022;" glyph-name="bullet" horiz-adv-x="511" d="M74 371T127 411T255 452T384 412T438 315T384 217T256 176T128 217T74 314Z" />
<glyph unicode="&#x2039;" glyph-name="guilsinglleft" horiz-adv-x="384" d="M172 97L35 248L172 398H365L229 248L365 97H172Z" />
<glyph unicode="&#x203a;" glyph-name="guilsinglright" horiz-adv-x="382" d="M358 248L220 97H28L164 248L28 398H220L358 248Z" />
</font>
</defs>
</svg>
