<?xml version="1.0" standalone="no"?>
<!DOCTYPE svg PUBLIC "-//W3C//DTD SVG 1.1//EN" "http://www.w3.org/Graphics/SVG/1.1/DTD/svg11.dtd">
<svg xmlns="http://www.w3.org/2000/svg">
<defs >
<font id="Rokkitt" horiz-adv-x="529" ><font-face
    font-family="Rokkitt"
    units-per-em="1000"
    panose-1="0 0 5 0 0 0 0 0 0 0"
    ascent="817"
    descent="-320"
    alphabetic="0" />
<glyph unicode=" " glyph-name="space" horiz-adv-x="305" />
<glyph unicode="!" glyph-name="exclam" horiz-adv-x="177" d="M59 153L45 417V587H122V417L108 153H59ZM61 -6T46 8T30 44Q30 66 45 80T83 95Q106 95 121 81T137 44Q137 23 122 9T83 -6Q61 -6 46 8Z" />
<glyph unicode="&quot;" glyph-name="quotedbl" horiz-adv-x="309" d="M74 420L54 630H135L119 420H74ZM194 420L174 630H255L239 420H194Z" />
<glyph unicode="#" glyph-name="numbersign" horiz-adv-x="553" d="M93 -4L116 172H35V222H126L146 374H45V425H156L179 591H238L215 425H376L399 591H459L435 425H520V374H426L406 222H510V172H396L373 -4H313L337 172H175L151 -4H93ZM185 222H346L366 374H205L185 222Z" />
<glyph unicode="$" glyph-name="dollar" horiz-adv-x="521" d="M459 111T438 74T377 13T282 -10V-89H222V-3Q153 15 115 69V0H50V190H110Q115 141 144 105T222 55V257Q139 271 93 311T47 420Q47 492 94 532T222 574V661H282V567Q338 551 368 514V563H432V404H373Q360
488 282 510V321Q376 302 417 266T459 155Q459 111 438 74ZM120 389T145 367T222 332V516Q174 515 147 491T120 428Q120 389 145 367ZM331 50T358 74T386 143Q386 191 364 212T282 246V48Q331 50 358 74Z" />
<glyph unicode="%" glyph-name="percent" horiz-adv-x="714" d="M118 291T79 332T40 434Q40 495 79 534T177 574Q237 574 276 535T316 434Q316 372 277 332T177 291Q118 291 79 332ZM146 -1L519 567H570L198 -1H146ZM215 336T239 363T263 434Q263 476 239 503T177
531Q141 530 117 503T92 434Q92 392 116 364T177 335Q215 336 239 363ZM477 -11T438 29T399 132Q399 193 438 232T536 272Q595 272 634 233T674 132Q674 71 635 30T536 -11Q477 -11 438 29ZM574 34T598 61T622 132Q622 174 598 201T536 229Q500 229 476 202T451
132Q451 90 475 62T536 34Q574 34 598 61Z" />
<glyph unicode="&amp;" glyph-name="ampersand" horiz-adv-x="625" d="M190 -10T145 12T75 74T50 165Q50 282 197 336Q165 375 149 407T133 471Q133 525 174 559T282 593Q344 593 383 560T423 476Q423 375 293 318L429 156Q447 181 460 217T480 290H595V234H528Q519
200 503 166T467 108L508 56H595V0H467L422 58Q349 -10 249 -10Q190 -10 145 12ZM360 407T360 472Q360 504 339 522T281 541Q245 541 223 523T201 474Q201 452 215 427T260 362Q360 407 360 472ZM335 52T385 105L231 293Q125 256 125 168Q125 117 162 85T260 52Q335
52 385 105Z" />
<glyph unicode="&apos;" glyph-name="quotesingle" horiz-adv-x="189" d="M74 420L54 630H135L119 420H74Z" />
<glyph unicode="(" glyph-name="parenleft" horiz-adv-x="277" d="M149 -22T98 65T46 256Q46 360 98 447T245 573L246 525Q193 498 164 424T135 258Q135 166 164 91T246 -11L245 -59Q149 -22 98 65Z" />
<glyph unicode=")" glyph-name="parenright" horiz-adv-x="277" d="M55 -11Q108 16 137 91T166 258Q166 349 137 423T55 525V573Q151 536 203 448T255 256Q255 153 203 66T55 -59V-11Z" />
<glyph unicode="*" glyph-name="asterisk" horiz-adv-x="456" d="M134 201L82 239L208 379L25 422L44 482L217 401L196 589H260L239 401L412 482L431 422L248 379L374 239L322 201L228 365L134 201Z" />
<glyph unicode="+" glyph-name="plus" horiz-adv-x="572" d="M256 60V253H70V306H256V499H316V306H502V253H316V60H256Z" />
<glyph unicode="," glyph-name="comma" horiz-adv-x="241" d="M60 -78Q91 -73 102 -57T114 0H63V95H161V15Q161 -50 137 -83T60 -116V-78Z" />
<glyph unicode="-" glyph-name="hyphen" horiz-adv-x="347" d="M54 206V262H293V206H54Z" />
<glyph unicode="." glyph-name="period" horiz-adv-x="234" d="M60 0V94H154V0H60Z" />
<glyph unicode="/" glyph-name="slash" horiz-adv-x="323" d="M10 -140L290 593H353L73 -140H10Z" />
<glyph unicode="0" glyph-name="zero" horiz-adv-x="536" d="M165 -11T113 64T60 284Q60 421 113 497T268 573Q370 573 423 497T476 284Q476 140 424 65T268 -11Q165 -11 113 64ZM333 42T367 104T402 284Q402 399 368 459T268 520Q203 520 169 460T134 284Q134
166 168 104T268 42Q333 42 367 104Z" />
<glyph unicode="1" glyph-name="one" horiz-adv-x="312" d="M47 0V53H131V498L46 484L44 537L203 563V53H282V0H47Z" />
<glyph unicode="2" glyph-name="two" horiz-adv-x="457" d="M411 0H40V50L202 214Q254 267 280 297T319 357T332 421Q332 464 307 492T230 520Q178 520 149 491T119 408Q119 383 127 346H59Q50 378 50 409Q50 484 101 528T240 573Q317 573 361 533T406 429Q406
388 388 352T339 280T247 183L121 56H344V163H410L411 0Z" />
<glyph unicode="3" glyph-name="three" horiz-adv-x="478" d="M371 286T404 247T438 151Q438 76 385 33T238 -10Q166 -10 114 20T30 107L89 140Q141 48 241 48Q299 48 331 75T364 151Q364 210 321 238T187 266V323Q356 323 356 427Q356 467 327 491T243 515Q191
515 154 490T101 418L41 446Q66 506 119 539T244 573Q327 573 376 534T426 430Q426 382 396 346T316 297Q371 286 404 247Z" />
<glyph unicode="4" glyph-name="four" horiz-adv-x="453" d="M179 0V53H267V148H7L0 198L266 563H335V201H423V148H335V53H403V0H179ZM67 201H267V474L67 201Z" />
<glyph unicode="5" glyph-name="five" horiz-adv-x="491" d="M354 358T403 308T452 174Q452 88 396 39T245 -11Q124 -11 40 83L87 131Q155 51 244 51Q307 51 342 84T378 172Q378 228 345 261T252 294Q215 294 183 280T125 241L66 265L73 563H419V419H349V504H136L130
314Q157 335 192 346T265 358Q354 358 403 308Z" />
<glyph unicode="6" glyph-name="six" horiz-adv-x="460" d="M302 357T341 335T403 272T426 179Q426 125 402 82T333 15T235 -10Q178 -10 134 13T64 80T38 178Q38 219 46 252T75 323T138 425L261 611L320 571L157 331Q199 357 256 357Q302 357 341 335ZM291 47T324
83T357 177Q357 234 326 268T240 302Q186 302 149 268T112 174Q112 119 144 83T235 47Q291 47 324 83Z" />
<glyph unicode="7" glyph-name="seven" horiz-adv-x="434" d="M128 0L317 507H84V411H12V563H394V512L200 0H128Z" />
<glyph unicode="8" glyph-name="eight" horiz-adv-x="464" d="M136 -11T83 34T30 150Q30 201 59 238T141 294Q92 315 70 347T48 426Q48 492 98 532T232 573Q317 573 367 533T417 426Q417 328 322 293Q377 278 405 241T434 151Q434 79 381 34T233 -11Q136 -11 83
34ZM296 321T318 350T341 420Q341 464 313 490T232 517Q181 517 153 491T124 420Q124 372 162 347T274 313Q296 321 318 350ZM288 46T321 75T354 153Q354 207 314 232T187 272Q170 268 152 252T122 210T110 154Q110 105 143 76T233 46Q288 46 321 75Z" />
<glyph unicode="9" glyph-name="nine" horiz-adv-x="460" d="M282 574T326 551T396 484T422 386Q422 345 414 312T385 241T322 139L199 -47L140 -7L303 233Q261 207 204 207Q158 207 119 229T57 292T34 385Q34 439 58 482T127 549T225 574Q282 574 326 551ZM274
262T311 296T348 390Q348 445 316 481T225 517Q169 517 136 481T103 387Q103 330 134 296T220 262Q274 262 311 296Z" />
<glyph unicode=":" glyph-name="colon" horiz-adv-x="234" d="M60 0V94H154V0H60ZM60 299V393H154V299H60Z" />
<glyph unicode=";" glyph-name="semicolon" horiz-adv-x="241" d="M60 -78Q91 -73 102 -57T114 0H63V95H161V15Q161 -50 137 -83T60 -116V-78ZM60 299V393H154V299H60Z" />
<glyph unicode="&lt;" glyph-name="less" horiz-adv-x="513" d="M463 68L70 258V308L463 498V438L133 283L463 128V68Z" />
<glyph unicode="=" glyph-name="equal" horiz-adv-x="551" d="M70 341V394H481V341H70ZM70 175V228H481V175H70Z" />
<glyph unicode="&gt;" glyph-name="greater" horiz-adv-x="513" d="M50 68V128L380 283L50 438V498L443 308V258L50 68Z" />
<glyph unicode="?" glyph-name="question" horiz-adv-x="383" d="M134 158Q134 194 143 220T167 268T213 323Q246 360 259 388T273 451Q273 491 251 512T193 534Q153 534 131 511T106 443H22Q26 514 74 553T192 593Q268 593 314 554T360 453Q360 412 340 381T271
299Q234 261 223 235T211 158V152H134V158ZM149 -7T134 7T118 44Q118 66 133 80T172 95Q195 95 211 81T227 44Q227 22 211 8T172 -7Q149 -7 134 7Z" />
<glyph unicode="@" glyph-name="at" horiz-adv-x="708" d="M275 -26T201 15T90 124T53 271Q53 352 91 425T204 545T379 591Q472 591 533 556T622 463T651 339Q651 283 628 230T569 144T494 111Q434 111 434 169Q434 181 437 196Q421 157 392 134T321 110Q287 110
258 127T210 178T192 258Q192 308 212 354T271 430T364 460Q405 460 432 436T462 375L477 452H528L480 231Q474 200 474 180Q474 151 487 148Q495 146 499 146Q522 146 548 172T591 242T609 338Q609 393 582 441T503 517T376 546Q299 546 238 511T142 412T107 270Q107
194 139 137T234 49T383 18Q493 18 563 70L590 37Q549 6 499 -10T383 -26Q275 -26 201 15ZM362 153T388 175T429 236T444 324Q444 367 421 391T359 415Q325 415 300 392T260 333T246 257Q246 211 267 182T330 153Q362 153 388 175Z" />
<glyph unicode="A" glyph-name="A" horiz-adv-x="675" d="M28 0V53H100L263 510H200V563H475V510H410L578 53H646V0H417V53H492L435 217H231L175 53H250V0H28ZM247 270H419L337 509H331L247 270Z" />
<glyph unicode="B" glyph-name="B" horiz-adv-x="580" d="M39 53H117V510H39V563H318Q412 563 461 528T511 423Q511 377 488 345T426 300Q482 286 511 249T541 159Q541 91 492 46T339 0H39V53ZM313 323Q430 323 430 420Q430 469 399 489T295 510H199V323H313ZM325
53Q458 53 458 162Q458 211 424 239T322 268H199V53H325Z" />
<glyph unicode="C" glyph-name="C" horiz-adv-x="665" d="M608 152Q545 -9 344 -11Q257 -11 190 26T86 130T49 282Q49 366 85 432T189 535T345 573Q408 573 458 550T536 485V563H596V393L542 391Q511 455 464 484T349 513Q284 513 235 483T158 400T131 283Q131
213 159 160T237 78T349 49Q417 49 470 81T548 182L608 152Z" />
<glyph unicode="D" glyph-name="D" horiz-adv-x="684" d="M40 53H118V510H40V563H346Q439 563 504 524T602 422T635 287Q635 203 603 138T506 37T347 0H40V53ZM339 53Q446 53 498 117T551 285Q551 345 528 396T458 478T342 510H200V53H339Z" />
<glyph unicode="E" glyph-name="E" horiz-adv-x="582" d="M39 0V53H117V510H39V563H529V396H466V510H199V319H374V385H415V197H374V264H199V53H471V170H534V0H39Z" />
<glyph unicode="F" glyph-name="F" horiz-adv-x="542" d="M39 0V53H117V510H39V563H520V392H457V510H199V321H369V382H411V199H369V264H199V53H277V0H39Z" />
<glyph unicode="G" glyph-name="G" horiz-adv-x="684" d="M639 284V254Q639 132 565 61T356 -10Q260 -10 191 27T85 130T48 283Q48 369 87 435T195 537T354 573Q417 573 466 552T547 492V563H612V389H554Q527 449 476 481T357 514Q255 514 196 453T136 288Q136
178 196 114T359 50Q447 52 502 96T559 228H440V284H639Z" />
<glyph unicode="H" glyph-name="H" horiz-adv-x="697" d="M39 0V53H117V510H39V563H277V510H199V318H499V510H420V563H658V510H580V53H658V0H420V53H499V261H199V53H277V0H39Z" />
<glyph unicode="I" glyph-name="I" horiz-adv-x="339" d="M50 0V53H128V510H50V563H289V510H210V53H289V0H50Z" />
<glyph unicode="J" glyph-name="J" horiz-adv-x="326" d="M33 -42H93Q127 -42 138 -22T150 40V510H73V563H304V510H231V41Q231 -35 202 -70T106 -106H33V-42Z" />
<glyph unicode="K" glyph-name="K" horiz-adv-x="633" d="M39 0V53H117V510H39V563H277V510H199V295L431 510H367V563H600V510H526L282 284L530 53H605V0H364V53H430L199 267V53H277V0H39Z" />
<glyph unicode="L" glyph-name="L" horiz-adv-x="525" d="M39 0V53H117V510H39V563H277V510H199V53H433V226H499V0H39Z" />
<glyph unicode="M" glyph-name="M" horiz-adv-x="824" d="M40 0V53H116V510H40V563H231L415 168L590 563H784V510H708V53H784V0H557V53H630V496L418 29H392L177 496V53H250V0H40Z" />
<glyph unicode="N" glyph-name="N" horiz-adv-x="704" d="M41 0V53H121V510H41V563H215L537 108V510H457V563H678V510H600V0H519L183 479V53H263V0H41Z" />
<glyph unicode="O" glyph-name="O" horiz-adv-x="709" d="M264 -11T195 28T87 134T49 280Q49 359 87 426T194 533T354 573Q444 573 513 534T621 427T659 280Q659 201 621 135T514 29T354 -11Q264 -11 195 28ZM421 49T470 80T545 163T572 280Q572 345 546 398T470
482T354 514Q287 514 238 483T163 398T137 279Q137 214 163 162T238 80T354 49Q421 49 470 80Z" />
<glyph unicode="P" glyph-name="P" horiz-adv-x="563" d="M39 53H117V510H39V563H317Q420 563 474 522T528 403Q528 320 473 277T312 233H237V286H309Q374 286 409 316T444 402Q444 454 414 482T326 510H199V53H277V0H39V53Z" />
<glyph unicode="Q" glyph-name="Q" horiz-adv-x="706" d="M410 -134T327 -9Q244 -4 181 36T83 141T49 280Q49 359 87 426T194 533T354 573Q444 573 513 534T621 427T659 280Q659 207 627 145T536 42T398 -8Q428 -44 456 -62T525 -80Q548 -80 582 -72L583 -125Q553
-134 525 -134Q410 -134 327 -9ZM421 49T470 80T545 163T572 280Q572 345 546 398T470 482T354 514Q287 514 238 483T163 398T137 279Q137 214 163 162T238 80T354 49Q421 49 470 80Z" />
<glyph unicode="R" glyph-name="R" horiz-adv-x="619" d="M39 53H117V510H39V563H335Q425 563 475 526T526 416Q526 288 381 266L510 53H593V0H454L303 258H234V313H322Q389 313 417 342T445 415Q445 457 418 483T336 510H199V53H277V0H39V53Z" />
<glyph unicode="S" glyph-name="S" horiz-adv-x="522" d="M389 306T434 270T480 155Q480 110 459 73T397 13T300 -10Q248 -10 206 11T136 69V0H71V190H131Q137 127 181 88T297 48Q349 48 378 73T407 143Q407 179 394 199T353 231T271 252L247 256Q162 270 115
310T68 420Q68 493 116 533T245 574Q291 574 328 559T389 514V563H453V404H394Q375 516 249 516Q198 516 170 492T141 428Q141 386 171 363T262 328L285 324Q389 306 434 270Z" />
<glyph unicode="T" glyph-name="T" horiz-adv-x="559" d="M162 0V53H240V510H86V367H25V563H533V367H472V510H321V53H399V0H162Z" />
<glyph unicode="U" glyph-name="U" horiz-adv-x="670" d="M217 -10T160 48T102 204V510H27V563H258V510H183V193Q183 126 224 88T339 50Q418 50 461 88T505 194V510H431V563H650V510H574V197Q574 96 510 43T337 -10Q217 -10 160 48Z" />
<glyph unicode="V" glyph-name="V" horiz-adv-x="646" d="M289 0L87 510H16V563H245V510H171L330 89L487 510H415V563H629V510H560L360 0H289Z" />
<glyph unicode="W" glyph-name="W" horiz-adv-x="922" d="M253 0L93 510H24V563H244V510H171L293 104L438 553H497L643 104L762 510H689V563H899V510H829L674 0H604L463 426L323 0H253Z" />
<glyph unicode="X" glyph-name="X" horiz-adv-x="637" d="M30 0V50H108L273 288L114 512H37V563H268V512H200L323 334L444 512H375V563H594V512H517L359 289L528 50H607V0H371V50H441L311 243L182 50H253V0H30Z" />
<glyph unicode="Y" glyph-name="Y" horiz-adv-x="632" d="M195 0V53H277V241L89 510H14V563H248V510H177L325 294L468 510H396V563H618V510H541L358 242V53H441V0H195Z" />
<glyph unicode="Z" glyph-name="Z" horiz-adv-x="576" d="M62 0V57L417 510H137V377H77V563H516V512L158 53H463V195H523V0H62Z" />
<glyph unicode="[" glyph-name="bracketleft" horiz-adv-x="282" d="M83 -85V607H246V551H163V-29H246V-85H83Z" />
<glyph unicode="\" glyph-name="backslash" horiz-adv-x="315" d="M254 -140L24 593H85L315 -140H254Z" />
<glyph unicode="]" glyph-name="bracketright" horiz-adv-x="281" d="M35 -85V-29H118V551H35V607H198V-85H35Z" />
<glyph unicode="^" glyph-name="asciicircum" horiz-adv-x="452" d="M37 322L193 610H261L415 322H347L228 550L105 322H37Z" />
<glyph unicode="_" glyph-name="underscore" horiz-adv-x="431" d="M6 -79V-38H425V-79H6Z" />
<glyph unicode="`" glyph-name="grave" horiz-adv-x="337" d="M190 477L100 622H184L237 477H190Z" />
<glyph unicode="a" glyph-name="a" horiz-adv-x="456" d="M441 53V0H314L310 35Q278 11 246 0T174 -11Q114 -11 77 22T39 106Q39 170 82 199T197 229Q248 229 306 216V257Q306 302 282 325T213 348Q184 348 147 339T78 312L56 360Q89 381 132 392T214 403Q291
403 335 366T379 264V53H441ZM109 79T129 60T185 40Q244 40 306 83V173Q253 185 202 185Q162 185 136 168T109 110Q109 79 129 60Z" />
<glyph unicode="b" glyph-name="b" horiz-adv-x="522" d="M360 403T403 380T472 311T497 202Q497 137 470 89T395 16T293 -10Q221 -10 172 33V0H25V53H98V521H27V573H172V358Q202 380 237 391T306 403Q360 403 403 380ZM342 45T381 84T420 196Q420 266 383 306T286
346Q258 346 228 335T172 303V85Q196 66 224 56T280 45Q342 45 381 84Z" />
<glyph unicode="c" glyph-name="c" horiz-adv-x="469" d="M185 346T144 305T103 201Q103 133 143 91T247 48Q295 48 328 66T392 120L423 75Q392 35 346 13T240 -10Q178 -10 130 17T54 91T26 199Q26 259 52 305T126 378T232 404Q276 404 310 388T362 345V395H424V254H368Q359
297 327 321T249 346Q185 346 144 305Z" />
<glyph unicode="d" glyph-name="d" horiz-adv-x="513" d="M490 53V0H354V28Q299 -11 229 -11Q174 -11 128 14T55 86T28 197Q28 261 54 308T124 379T221 403Q255 403 290 393T354 362V521H284V573H428V53H490ZM105 123T144 84T245 45Q302 45 354 81V309Q326 327
295 337T236 347Q177 347 141 306T105 191Q105 123 144 84Z" />
<glyph unicode="e" glyph-name="e" horiz-adv-x="461" d="M426 181H102Q109 118 147 82T244 45Q326 45 393 108L419 63Q390 29 346 9T247 -12Q185 -12 134 14T54 87T25 196Q25 258 52 305T127 378T233 404Q323 404 374 349T426 200V181ZM353 227Q353 284 320 317T233
350Q181 350 145 317T102 227H353Z" />
<glyph unicode="f" glyph-name="f" horiz-adv-x="316" d="M41 53H119V340H42V393H119V477Q119 533 148 564T237 596Q282 596 312 574T346 504L289 488Q284 516 274 530T240 544Q193 544 193 476V393H313V340H193V53H294V0H41V53Z" />
<glyph unicode="g" glyph-name="g" horiz-adv-x="513" d="M503 393V340H437V-9Q437 -100 382 -144T235 -188Q165 -188 87 -164L102 -106Q178 -129 233 -129Q295 -129 329 -101T363 -14V40Q335 19 301 8T232 -3Q176 -3 130 21T58 92T31 200Q31 264 57 309T128 378T230
402Q264 402 300 391T362 358V393H503ZM108 128T147 90T247 52Q276 52 306 62T363 91L362 307Q333 326 301 337T239 348Q180 348 144 308T108 195Q108 128 147 90Z" />
<glyph unicode="h" glyph-name="h" horiz-adv-x="521" d="M509 53V0H298V53H363V258Q363 299 344 322T289 345Q229 345 159 299V53H223V0H12V53H85V521H13V573H159V349Q240 403 307 403Q363 403 400 369T437 272V53H509Z" />
<glyph unicode="i" glyph-name="i" horiz-adv-x="267" d="M102 479T87 493T71 530Q71 552 86 566T125 581Q148 581 163 567T179 530Q179 508 164 494T125 479Q102 479 87 493ZM22 0V53H98V340H23V393H171V53H242V0H22Z" />
<glyph unicode="j" glyph-name="j" horiz-adv-x="249" d="M111 479T96 494T80 531Q80 552 95 566T134 581Q157 581 172 567T188 531Q188 509 173 494T134 479Q111 479 96 494ZM5 -94H47Q86 -94 99 -76T112 -14V340H32V393H187V4Q187 -48 178 -80T139 -132T48 -152H5V-94Z" />
<glyph unicode="k" glyph-name="k" horiz-adv-x="498" d="M26 0V53H100V521H28V573H174V210L344 340H271V393H480V340H420L250 205L404 53H482V0H367L174 193V53H238V0H26Z" />
<glyph unicode="l" glyph-name="l" horiz-adv-x="260" d="M27 0V53H100V521H29V573H174V53H238V0H27Z" />
<glyph unicode="m" glyph-name="m" horiz-adv-x="787" d="M785 53V0H574V53H640V258Q640 299 620 322T565 345Q504 345 437 300Q440 285 440 270V53H512V0H301V53H367V258Q367 299 347 322T292 345Q241 345 171 305V53H242V0H22V53H98V340H22V393H171V355Q247
403 311 403Q350 403 379 387T423 341Q467 371 505 387T584 403Q640 403 676 369T713 272V53H785Z" />
<glyph unicode="n" glyph-name="n" horiz-adv-x="517" d="M515 53V0H304V53H369V258Q369 299 349 322T294 345Q265 345 236 335T171 303V53H242V0H22V53H98V340H22V393H171V354Q249 403 313 403Q369 403 405 369T442 272V53H515Z" />
<glyph unicode="o" glyph-name="o" horiz-adv-x="476" d="M174 -12T126 14T52 87T25 197Q25 259 51 306T126 378T237 404Q300 404 348 379T424 306T451 198Q451 136 424 88T349 14T237 -12Q174 -12 126 14ZM299 46T337 87T375 198Q375 265 337 305T237 346Q175
346 138 305T101 197Q101 129 138 88T237 46Q299 46 337 87Z" />
<glyph unicode="p" glyph-name="p" horiz-adv-x="512" d="M348 403T391 380T460 311T485 202Q485 137 458 89T384 16T282 -10Q247 -10 216 1T164 30L163 -103H240V-156H19V-103H90V340H21V393H159L160 356Q189 379 223 391T294 403Q348 403 391 380ZM331 45T369
84T408 196Q408 266 371 306T274 346Q250 346 219 336T163 306L164 83Q187 65 214 55T269 45Q331 45 369 84Z" />
<glyph unicode="q" glyph-name="q" horiz-adv-x="530" d="M509 -105V-161H288V-105H365V37Q335 14 300 2T229 -11Q174 -11 128 14T55 86T28 197Q28 261 54 308T124 379T221 403Q259 403 297 390T365 354L366 393H508V340H439V-105H509ZM104 123T143 84T244 45Q274
45 305 56T365 88V302Q334 324 301 335T235 347Q177 347 141 306T104 191Q104 123 143 84Z" />
<glyph unicode="r" glyph-name="r" horiz-adv-x="386" d="M323 398T365 378L347 311Q313 333 278 333Q238 333 212 301T185 211L184 53H254V0H35V53H111V340H35V393H184V321Q216 398 285 398Q323 398 365 378Z" />
<glyph unicode="s" glyph-name="s" horiz-adv-x="432" d="M305 217T332 205T377 168T394 104Q394 48 350 19T244 -10Q206 -10 172 2T118 34V0H60V136H112L116 93Q133 68 165 55T234 41Q273 41 298 56T323 98Q323 128 304 141T233 165L178 177Q117 192 88 216T59
293Q59 344 99 373T204 403Q235 403 267 393T319 365V395H378V260H326L319 309Q304 327 275 338T216 350Q181 350 157 336T133 295Q133 273 150 261T208 239L259 228Q305 217 332 205ZM330 289L329 291L330 289ZM104 118Q104 116 105 115L104 118Z" />
<glyph unicode="t" glyph-name="t" horiz-adv-x="301" d="M85 0T85 116V340H20V393H85V527L159 556V393H263V340H159V120Q159 83 171 68T212 53H272V0H199Q85 0 85 116Z" />
<glyph unicode="u" glyph-name="u" horiz-adv-x="510" d="M499 53V0H355L353 48Q281 -10 208 -10Q142 -10 110 27T77 122V340H11V393H151V130Q151 92 169 71T225 49Q293 49 353 104V340H282V393H426V53H499Z" />
<glyph unicode="v" glyph-name="v" horiz-adv-x="514" d="M224 0L74 340H7V393H217V340H153L263 76L372 340H309V393H507V340H444L291 0H224Z" />
<glyph unicode="w" glyph-name="w" horiz-adv-x="715" d="M185 0L61 340H9V393H187V340H133L226 73L319 340H263V393H456V340H399L496 72L582 340H527V393H704V340H649L531 0H459L358 279L257 0H185Z" />
<glyph unicode="x" glyph-name="x" horiz-adv-x="504" d="M24 0V53H83L214 201L90 340H26V393H224V340H165L255 236L345 340H286V393H483V340H413L292 204L426 53H485V0H284V53H351L250 165L153 53H214V0H24Z" />
<glyph unicode="y" glyph-name="y" horiz-adv-x="519" d="M101 -99H146Q174 -99 189 -95T215 -77T237 -33L258 25H227L81 340H8V393H214V340H156L274 73L379 340H311V393H516V340H452L306 -23Q284 -80 270 -105T228 -145T152 -159H101V-99Z" />
<glyph unicode="z" glyph-name="z" horiz-adv-x="438" d="M51 0V52L304 342H112V261H56V393H390V338L137 50H338V140H396V0H51Z" />
<glyph unicode="{" glyph-name="braceleft" horiz-adv-x="283" d="M168 -65T143 -44T113 13T107 123Q107 171 102 197T81 236T31 250V306Q64 306 80 320T102 360T107 434Q107 505 112 541T142 599T221 621H258V570Q219 570 202 564T178 541T171 484Q171 407 167
369T148 311T103 278Q131 266 145 247T164 193T170 94Q170 41 175 21T197 -7T258 -15V-65H222Q168 -65 143 -44Z" />
<glyph unicode="|" glyph-name="bar" horiz-adv-x="141" d="M40 -140V593H101V-140H40Z" />
<glyph unicode="}" glyph-name="braceright" horiz-adv-x="284" d="M43 -15Q87 -15 104 -8T126 19T131 91Q131 156 136 191T156 246T199 278Q168 290 154 310T135 369T130 484Q130 523 124 540T100 564T43 570V621H80Q134 621 158 600T188 542T194 435Q194 387
199 361T220 320T270 306V250Q237 250 221 237T199 197T194 123Q194 50 189 14T159 -44T80 -65H43V-15Z" />
<glyph unicode="~" glyph-name="asciitilde" horiz-adv-x="525" d="M329 229T308 236T257 259Q230 272 212 278T176 285Q135 285 131 242H70Q74 290 102 315T173 341Q198 341 220 333T272 310Q299 297 315 291T349 285Q388 285 394 328H455Q451 281 423 255T352
229Q329 229 308 236Z" />
<glyph unicode="&#xa0;" glyph-name="uni00A0" horiz-adv-x="305" />
<glyph unicode="&#xa1;" glyph-name="exclamdown" horiz-adv-x="161" d="M110 443T125 429T141 393Q141 371 126 357T87 342Q64 342 49 356T34 393Q34 414 49 428T87 443Q110 443 125 429ZM63 284H112L126 20V-150H49V20L63 284Z" />
<glyph unicode="&#xa2;" glyph-name="cent" horiz-adv-x="469" d="M361 291T336 314T273 344V50Q311 54 338 72T392 120L423 75Q368 3 273 -8V-89H213V-9Q129 0 78 57T26 199Q26 285 78 341T213 403V483H273V400Q333 388 362 345V395H424V254H368Q361 291 336
314ZM103 144T133 104T213 52V342Q163 331 133 293T103 201Q103 144 133 104Z" />
<glyph unicode="&#xa3;" glyph-name="sterling" horiz-adv-x="512" d="M486 137V131Q486 65 458 29T374 -7Q337 -7 309 9T252 52Q234 23 207 7T147 -10Q100 -10 72 16T43 80Q43 119 70 147T144 175Q183 175 223 149V151Q223 181 212 207T181 263H71V314H147Q116
364 116 414Q116 488 164 531T292 574Q376 574 418 533T461 418H391Q391 465 367 491T293 517Q245 517 218 489T190 410Q190 367 218 314H416V263H246Q263 232 271 207T280 155Q280 133 275 108Q303 84 323 72T366 60Q432 60 432 137H486ZM171 33T188 48T214 91Q180
127 147 127Q124 127 110 115T95 80Q95 59 109 46T146 33Q171 33 188 48Z" />
<glyph unicode="&#xa4;" glyph-name="currency" horiz-adv-x="609" d="M554 204T502 138L569 74L524 29L460 97Q428 73 389 60T305 46Q218 46 149 97L85 29L40 74L107 138Q55 204 55 294Q55 383 107 449L40 513L85 558L149 490Q216 541 305 541Q349 541 388 528T460
490L524 558L569 513L502 449Q554 383 554 294Q554 204 502 138ZM354 116T394 139T457 203T480 294Q480 344 457 384T394 448T305 471Q255 471 215 448T152 385T129 294Q129 244 152 203T215 139T305 116Q354 116 394 139Z" />
<glyph unicode="&#xa5;" glyph-name="yen" horiz-adv-x="628" d="M394 563H616V510H539L375 270H483V225H356V174H483V128H356V53H439V0H193V53H275V128H147V174H275V225H147V270H255L87 510H12V563H246V510H175L323 294L466 510H394V563Z" />
<glyph unicode="&#xa6;" glyph-name="brokenbar" horiz-adv-x="141" d="M40 293V593H101V293H40ZM40 -140V160H101V-140H40Z" />
<glyph unicode="&#xa7;" glyph-name="section" horiz-adv-x="444" d="M152 -83T116 -56T80 12Q80 37 95 49T134 62Q135 10 161 -19T236 -48Q281 -48 304 -26T328 36Q328 61 318 77T280 111T191 160Q122 194 94 225T66 303Q66 332 82 354T126 388Q84 425 84 485Q84
541 125 574T233 607Q300 607 335 581T370 516Q370 495 355 483T313 470Q311 515 292 543T230 572Q190 572 168 551T146 492Q146 466 157 450T186 422T250 387Q336 343 370 311T405 233Q405 203 391 177T353 135Q381 102 381 52Q381 -10 342 -46T229 -83Q152 -83
116 -56ZM344 179T344 212Q344 241 321 265T235 322Q170 353 151 367Q138 360 131 347T123 318Q123 294 133 278T165 248T236 209Q292 182 324 160Q344 179 344 212Z" />
<glyph unicode="&#xa8;" glyph-name="dieresis" horiz-adv-x="482" d="M125 457T113 469T100 500Q100 519 112 531T145 543Q165 543 177 531T190 500Q190 481 178 469T145 457Q125 457 113 469ZM317 457T305 468T293 500Q293 520 305 531T337 543Q357 543 369
531T382 500Q382 481 370 469T337 457Q317 457 305 468Z" />
<glyph unicode="&#xa9;" glyph-name="copyright" horiz-adv-x="747" d="M284 -15T212 24T100 134T59 291Q59 378 99 447T212 556T373 596Q463 596 535 557T647 448T688 291Q688 204 648 134T535 25T373 -15Q284 -15 212 24ZM445 33T503 66T594 158T627 290Q627
364 594 423T503 515T373 549Q301 549 244 516T153 423T120 290Q120 217 152 158T243 66T373 33Q445 33 503 66ZM329 117T290 139T228 200T205 291Q205 344 228 383T290 442T375 463Q407 463 434 452T475 420V456H521V344H477Q470 379 444 399T381 419Q332 419
298 385T263 292Q263 234 296 198T380 161Q413 161 442 176T493 217L526 189Q504 156 464 137T378 117Q329 117 290 139Z" />
<glyph unicode="&#xaa;" glyph-name="ordfeminine" horiz-adv-x="363" d="M79 244T50 271T20 337Q20 388 56 411T152 435Q190 435 233 427V458Q233 492 214 509T159 526Q135 526 105 518T52 495L32 535Q56 554 91 563T162 573Q224 573 259 543T295 463V295H346V251H238L235
280Q193 244 129 244Q79 244 50 271ZM163 287T188 296T233 321V389Q195 397 158 397Q80 397 80 339Q80 316 95 302T138 287Q163 287 188 296Z" />
<glyph unicode="&#xab;" glyph-name="guillemotleft" horiz-adv-x="435" d="M164 94L19 289L164 484H218L116 290L218 94H164ZM350 94L204 289L350 484H403L301 290L403 94H350Z" />
<glyph unicode="&#xac;" glyph-name="logicalnot" horiz-adv-x="520" d="M399 133V253H70V306H450V133H399Z" />
<glyph unicode="&#xad;" glyph-name="uni00AD" horiz-adv-x="347" d="M54 206V262H293V206H54Z" />
<glyph unicode="&#xae;" glyph-name="registered" horiz-adv-x="747" d="M277 -11T207 29T99 138T61 290Q61 374 99 443T206 552T369 592Q462 592 532 552T640 442T678 290Q678 207 640 138T532 29T369 -11Q277 -11 207 29ZM443 37T499 70T586 162T617 289Q617
359 587 417T500 509T369 544Q294 544 238 510T152 418T121 289Q121 219 151 162T237 71T369 37Q443 37 499 70ZM229 167H273V431H228V461H389Q438 461 466 438T495 375Q495 343 474 321T416 292L486 167H532V137H456L374 288H317V167H360V137H229V167ZM388 319Q417
319 434 334T451 375Q451 401 435 416T390 431H317V319H388Z" />
<glyph unicode="&#xaf;" glyph-name="overscore" horiz-adv-x="410" d="M100 473V518H310V473H100Z" />
<glyph unicode="&#xb0;" glyph-name="degree" horiz-adv-x="236" d="M66 374T34 408T2 489Q2 536 34 570T118 604Q170 604 202 570T234 489Q234 442 202 408T118 374Q66 374 34 408ZM152 410T173 433T194 489Q194 521 174 544T118 568Q84 568 63 545T42 489Q42
456 63 433T119 410Q152 410 173 433Z" />
<glyph unicode="&#xb1;" glyph-name="plusminus" horiz-adv-x="571" d="M256 146V327H70V380H256V558H316V380H501V327H316V146H256ZM70 42V95H501V42H70Z" />
<glyph unicode="&#xb2;" glyph-name="uni00B2" horiz-adv-x="295" d="M269 404V298H24V335L121 425Q168 469 188 497T209 556Q209 584 193 601T142 618Q108 618 89 597T70 538Q70 520 76 497H28Q20 523 20 544Q20 597 52 630T142 664Q198 664 230 635T263 558Q263
515 238 481T156 394L98 341H223V404H269Z" />
<glyph unicode="&#xb3;" glyph-name="uni00B3" horiz-adv-x="303" d="M245 472T264 447T283 386Q283 340 248 313T153 285Q104 285 68 307T20 366L62 390Q74 362 98 347T155 331Q188 331 207 348T227 395Q227 427 202 442T120 458L119 501Q170 501 193 516T216
559Q216 586 198 602T150 618Q120 618 99 603T64 564L21 586Q37 622 71 643T151 664Q205 664 237 638T270 566Q270 537 254 516T207 483Q245 472 264 447Z" />
<glyph unicode="&#xb4;" glyph-name="acute" horiz-adv-x="337" d="M100 477L153 622H237L147 477H100Z" />
<glyph unicode="&#xb5;" glyph-name="uni00B5" horiz-adv-x="525" d="M92 340H26V393H166V130Q166 92 185 71T243 49Q310 49 368 104V340H297V393H441V53H514V0H370L368 48Q299 -10 229 -10Q193 -10 166 6V-133H92V340Z" />
<glyph unicode="&#xb6;" glyph-name="paragraph" horiz-adv-x="532" d="M244 51H351V250H228Q175 250 137 271T79 329T59 407Q59 474 104 518T239 563H495V511H423V51H495V-3H244V51ZM256 305H351V511H256V305Z" />
<glyph unicode="&#xb7;" glyph-name="middot" horiz-adv-x="228" d="M91 219T76 234T60 270Q60 291 75 305T114 320Q137 320 152 306T168 270Q168 249 153 234T114 219Q91 219 76 234Z" />
<glyph unicode="&#xb8;" glyph-name="cedilla" horiz-adv-x="358" d="M144 -175T100 -156V-127Q135 -137 157 -137Q195 -137 195 -111Q195 -83 138 -80L169 0H202L186 -58Q222 -62 240 -78T258 -118Q258 -147 239 -161T187 -175Q144 -175 100 -156Z" />
<glyph unicode="&#xb9;" glyph-name="uni00B9" horiz-adv-x="214" d="M20 298V338H80V604L22 596L21 635L134 652V338H194V298H20Z" />
<glyph unicode="&#xba;" glyph-name="ordmasculine" horiz-adv-x="398" d="M125 244T78 289T30 410Q30 483 77 528T199 573Q273 573 320 528T368 410Q368 335 320 290T198 244Q125 244 78 289ZM244 294T273 325T303 410Q303 462 274 492T198 523Q154 523 125 492T95
409Q95 356 124 325T199 294Q244 294 273 325Z" />
<glyph unicode="&#xbb;" glyph-name="guillemotright" horiz-adv-x="435" d="M32 94L134 290L32 484H85L231 289L85 94H32ZM217 94L319 290L217 484H271L417 289L271 94H217Z" />
<glyph unicode="&#xbc;" glyph-name="onequarter" horiz-adv-x="677" d="M40 476V516H100V782L42 774L41 813L154 830V516H214V476H40ZM118 -1L491 567H542L170 -1H118ZM467 0V40H523V91H355L350 126L522 354H573V130H637V91H573V40H629V0H467ZM407 130H523V285L407 130Z" />
<glyph unicode="&#xbd;" glyph-name="onehalf" horiz-adv-x="708" d="M40 475V515H100V781L42 773L41 812L154 829V515H214V475H40ZM117 -1L490 567H541L169 -1H117ZM668 106V0H423V37L520 127Q567 171 587 199T608 258Q608 286 592 303T541 320Q507 320 488 299T469
240Q469 222 475 199H427Q419 225 419 246Q419 299 451 332T541 366Q597 366 629 337T662 260Q662 217 637 183T555 96L497 43H622V106H668Z" />
<glyph unicode="&#xbe;" glyph-name="threequarters" horiz-adv-x="751" d="M265 648T284 623T303 562Q303 516 268 489T173 461Q124 461 88 483T40 542L82 566Q94 538 118 523T175 507Q208 507 227 524T247 571Q247 603 222 618T140 634L139 677Q190 677 213
692T236 735Q236 762 218 778T170 794Q140 794 119 779T84 740L41 762Q57 798 91 819T171 840Q225 840 257 814T290 742Q290 713 274 692T227 659Q265 648 284 623ZM195 -1L568 567H619L247 -1H195ZM541 0V40H597V91H429L424 126L596 354H647V130H711V91H647V40H703V0H541ZM481
130H597V285L481 130Z" />
<glyph unicode="&#xbf;" glyph-name="questiondown" horiz-adv-x="386" d="M239 440T254 426T270 389Q270 367 255 353T216 338Q193 338 177 352T161 389Q161 411 177 425T216 440Q239 440 254 426ZM254 275Q254 239 245 213T221 165T175 110Q142 73 129 45T115
-18Q115 -58 137 -79T195 -101Q235 -101 257 -78T282 -10H366Q362 -81 314 -120T196 -160Q120 -160 74 -121T28 -20Q28 21 48 52T117 134Q154 172 165 198T177 275V281H254V275Z" />
<glyph unicode="&#xc0;" glyph-name="Agrave" horiz-adv-x="675" d="M28 0V53H100L263 510H200V563H475V510H410L578 53H646V0H417V53H492L435 217H231L175 53H250V0H28ZM247 270H419L337 509H331L247 270ZM314 647L224 792H308L361 647H314Z" />
<glyph unicode="&#xc1;" glyph-name="Aacute" horiz-adv-x="675" d="M28 0V53H100L263 510H200V563H475V510H410L578 53H646V0H417V53H492L435 217H231L175 53H250V0H28ZM247 270H419L337 509H331L247 270ZM315 647L368 792H452L362 647H315Z" />
<glyph unicode="&#xc2;" glyph-name="Acircumflex" horiz-adv-x="675" d="M28 0V53H100L263 510H200V563H475V510H410L578 53H646V0H417V53H492L435 217H231L175 53H250V0H28ZM247 270H419L337 509H331L247 270ZM216 619L299 776H377L460 619H404L338 744L272 619H216Z" />
<glyph unicode="&#xc3;" glyph-name="Atilde" horiz-adv-x="675" d="M28 0V53H100L263 510H200V563H475V510H410L578 53H646V0H417V53H492L435 217H231L175 53H250V0H28ZM247 270H419L337 509H331L247 270ZM387 640T372 644T343 653T325 660Q285 677 268 677Q255
677 248 670T237 644H206Q210 688 229 710T279 732Q301 732 349 712Q391 695 405 695Q420 695 429 703T442 730H471Q468 689 451 665T401 640Q387 640 372 644Z" />
<glyph unicode="&#xc4;" glyph-name="Adieresis" horiz-adv-x="675" d="M28 0V53H100L263 510H200V563H475V510H410L578 53H646V0H417V53H492L435 217H231L175 53H250V0H28ZM247 270H419L337 509H331L247 270ZM222 627T210 639T197 670Q197 689 209 701T242 713Q262
713 274 701T287 670Q287 651 275 639T242 627Q222 627 210 639ZM414 627T402 638T390 670Q390 690 402 701T434 713Q454 713 466 701T479 670Q479 651 467 639T434 627Q414 627 402 638Z" />
<glyph unicode="&#xc5;" glyph-name="Aring" horiz-adv-x="675" d="M28 0V53H100L263 510H200V563H475V510H410L578 53H646V0H417V53H492L435 217H231L175 53H250V0H28ZM247 270H419L337 509H331L247 270ZM302 598T281 619T259 673Q259 705 280 725T338 746Q375
746 396 726T417 673Q417 641 396 620T338 598Q302 598 281 619ZM358 629T370 641T382 673Q382 692 370 704T338 716Q317 716 305 704T293 673Q293 654 305 642T338 629Q358 629 370 641Z" />
<glyph unicode="&#xc6;" glyph-name="AE" horiz-adv-x="970" d="M22 0V53H98L378 510H317V563H875L884 385H822L813 510H541L553 315H731L727 381H767L779 191H738L732 259H554L566 53H848L840 179H902L912 0H409V53H485L476 205H271L184 53H252V0H22ZM297 255H475L460
510H451L297 255Z" />
<glyph unicode="&#xc7;" glyph-name="Ccedilla" horiz-adv-x="665" d="M546 -6T351 -11L338 -58Q374 -62 392 -78T410 -118Q410 -147 391 -161T339 -175Q296 -175 252 -156V-127Q287 -137 309 -137Q347 -137 347 -111Q347 -83 290 -80L317 -10Q237 -4 177 34T83
137T49 282Q49 366 85 432T189 535T345 573Q408 573 458 550T536 485V563H596V393L542 391Q511 455 464 484T349 513Q284 513 235 483T158 400T131 283Q131 213 159 160T237 78T349 49Q417 49 470 81T548 182L608 152Q546 -6 351 -11Z" />
<glyph unicode="&#xc8;" glyph-name="Egrave" horiz-adv-x="582" d="M39 0V53H117V510H39V563H529V396H466V510H199V319H374V385H415V197H374V264H199V53H471V170H534V0H39ZM286 647L196 792H280L333 647H286Z" />
<glyph unicode="&#xc9;" glyph-name="Eacute" horiz-adv-x="582" d="M39 0V53H117V510H39V563H529V396H466V510H199V319H374V385H415V197H374V264H199V53H471V170H534V0H39ZM287 647L340 792H424L334 647H287Z" />
<glyph unicode="&#xca;" glyph-name="Ecircumflex" horiz-adv-x="582" d="M39 0V53H117V510H39V563H529V396H466V510H199V319H374V385H415V197H374V264H199V53H471V170H534V0H39ZM188 619L271 776H349L432 619H376L310 744L244 619H188Z" />
<glyph unicode="&#xcb;" glyph-name="Edieresis" horiz-adv-x="582" d="M39 0V53H117V510H39V563H529V396H466V510H199V319H374V385H415V197H374V264H199V53H471V170H534V0H39ZM194 627T182 639T169 670Q169 689 181 701T214 713Q234 713 246 701T259 670Q259
651 247 639T214 627Q194 627 182 639ZM386 627T374 638T362 670Q362 690 374 701T406 713Q426 713 438 701T451 670Q451 651 439 639T406 627Q386 627 374 638Z" />
<glyph unicode="&#xcc;" glyph-name="Igrave" horiz-adv-x="339" d="M50 0V53H128V510H50V563H289V510H210V53H289V0H50ZM146 647L56 792H140L193 647H146Z" />
<glyph unicode="&#xcd;" glyph-name="Iacute" horiz-adv-x="339" d="M50 0V53H128V510H50V563H289V510H210V53H289V0H50ZM147 647L200 792H284L194 647H147Z" />
<glyph unicode="&#xce;" glyph-name="Icircumflex" horiz-adv-x="339" d="M50 0V53H128V510H50V563H289V510H210V53H289V0H50ZM48 619L131 776H209L292 619H236L170 744L104 619H48Z" />
<glyph unicode="&#xcf;" glyph-name="Idieresis" horiz-adv-x="339" d="M50 0V53H128V510H50V563H289V510H210V53H289V0H50ZM54 627T42 639T29 670Q29 689 41 701T74 713Q94 713 106 701T119 670Q119 651 107 639T74 627Q54 627 42 639ZM246 627T234 638T222 670Q222
690 234 701T266 713Q286 713 298 701T311 670Q311 651 299 639T266 627Q246 627 234 638Z" />
<glyph unicode="&#xd0;" glyph-name="Eth" horiz-adv-x="684" d="M439 563T504 524T602 422T635 287Q635 203 603 138T506 37T347 0H40V53H118V261H40V317H118V510H40V563H346Q439 563 504 524ZM446 53T498 117T551 285Q551 345 528 396T458 478T342 510H200V317H279V261H200V53H339Q446
53 498 117Z" />
<glyph unicode="&#xd1;" glyph-name="Ntilde" horiz-adv-x="704" d="M41 0V53H121V510H41V563H215L537 108V510H457V563H678V510H600V0H519L183 479V53H263V0H41ZM400 640T385 644T356 653T338 660Q298 677 281 677Q268 677 261 670T250 644H219Q223 688 242 710T292
732Q314 732 362 712Q404 695 418 695Q433 695 442 703T455 730H484Q481 689 464 665T414 640Q400 640 385 644Z" />
<glyph unicode="&#xd2;" glyph-name="Ograve" horiz-adv-x="709" d="M264 -11T195 28T87 134T49 280Q49 359 87 426T194 533T354 573Q444 573 513 534T621 427T659 280Q659 201 621 135T514 29T354 -11Q264 -11 195 28ZM421 49T470 80T545 163T572 280Q572 345
546 398T470 482T354 514Q287 514 238 483T163 398T137 279Q137 214 163 162T238 80T354 49Q421 49 470 80ZM329 647L239 792H323L376 647H329Z" />
<glyph unicode="&#xd3;" glyph-name="Oacute" horiz-adv-x="709" d="M264 -11T195 28T87 134T49 280Q49 359 87 426T194 533T354 573Q444 573 513 534T621 427T659 280Q659 201 621 135T514 29T354 -11Q264 -11 195 28ZM421 49T470 80T545 163T572 280Q572 345
546 398T470 482T354 514Q287 514 238 483T163 398T137 279Q137 214 163 162T238 80T354 49Q421 49 470 80ZM330 647L383 792H467L377 647H330Z" />
<glyph unicode="&#xd4;" glyph-name="Ocircumflex" horiz-adv-x="709" d="M264 -11T195 28T87 134T49 280Q49 359 87 426T194 533T354 573Q444 573 513 534T621 427T659 280Q659 201 621 135T514 29T354 -11Q264 -11 195 28ZM421 49T470 80T545 163T572 280Q572
345 546 398T470 482T354 514Q287 514 238 483T163 398T137 279Q137 214 163 162T238 80T354 49Q421 49 470 80ZM231 619L314 776H392L475 619H419L353 744L287 619H231Z" />
<glyph unicode="&#xd5;" glyph-name="Otilde" horiz-adv-x="709" d="M264 -11T195 28T87 134T49 280Q49 359 87 426T194 533T354 573Q444 573 513 534T621 427T659 280Q659 201 621 135T514 29T354 -11Q264 -11 195 28ZM421 49T470 80T545 163T572 280Q572 345
546 398T470 482T354 514Q287 514 238 483T163 398T137 279Q137 214 163 162T238 80T354 49Q421 49 470 80ZM402 640T387 644T358 653T340 660Q300 677 283 677Q270 677 263 670T252 644H221Q225 688 244 710T294 732Q316 732 364 712Q406 695 420 695Q435 695
444 703T457 730H486Q483 689 466 665T416 640Q402 640 387 644Z" />
<glyph unicode="&#xd6;" glyph-name="Odieresis" horiz-adv-x="709" d="M264 -11T195 28T87 134T49 280Q49 359 87 426T194 533T354 573Q444 573 513 534T621 427T659 280Q659 201 621 135T514 29T354 -11Q264 -11 195 28ZM421 49T470 80T545 163T572 280Q572
345 546 398T470 482T354 514Q287 514 238 483T163 398T137 279Q137 214 163 162T238 80T354 49Q421 49 470 80ZM237 627T225 639T212 670Q212 689 224 701T257 713Q277 713 289 701T302 670Q302 651 290 639T257 627Q237 627 225 639ZM429 627T417 638T405 670Q405
690 417 701T449 713Q469 713 481 701T494 670Q494 651 482 639T449 627Q429 627 417 638Z" />
<glyph unicode="&#xd7;" glyph-name="multiply" horiz-adv-x="491" d="M68 62L28 103L205 280L31 455L70 494L245 320L422 497L463 457L285 279L459 105L420 66L246 240L68 62Z" />
<glyph unicode="&#xd8;" glyph-name="Oslash" horiz-adv-x="660" d="M584 458T609 401T635 279Q635 200 597 134T490 28T330 -12Q241 -12 168 29L117 -37L79 -10L130 55Q80 96 53 154T25 279Q25 358 63 425T170 532T330 572Q425 572 500 526L554 595L592 569L537
499Q584 458 609 401ZM113 228T128 185T174 111L458 473Q404 513 330 513Q263 513 214 482T139 397T113 278Q113 228 128 185ZM397 48T446 79T521 162T548 279Q548 326 534 368T492 442L210 81Q260 48 330 48Q397 48 446 79Z" />
<glyph unicode="&#xd9;" glyph-name="Ugrave" horiz-adv-x="670" d="M217 -10T160 48T102 204V510H27V563H258V510H183V193Q183 126 224 88T339 50Q418 50 461 88T505 194V510H431V563H650V510H574V197Q574 96 510 43T337 -10Q217 -10 160 48ZM320 647L230 792H314L367
647H320Z" />
<glyph unicode="&#xda;" glyph-name="Uacute" horiz-adv-x="670" d="M217 -10T160 48T102 204V510H27V563H258V510H183V193Q183 126 224 88T339 50Q418 50 461 88T505 194V510H431V563H650V510H574V197Q574 96 510 43T337 -10Q217 -10 160 48ZM321 647L374 792H458L368
647H321Z" />
<glyph unicode="&#xdb;" glyph-name="Ucircumflex" horiz-adv-x="670" d="M217 -10T160 48T102 204V510H27V563H258V510H183V193Q183 126 224 88T339 50Q418 50 461 88T505 194V510H431V563H650V510H574V197Q574 96 510 43T337 -10Q217 -10 160 48ZM222 619L305
776H383L466 619H410L344 744L278 619H222Z" />
<glyph unicode="&#xdc;" glyph-name="Udieresis" horiz-adv-x="670" d="M217 -10T160 48T102 204V510H27V563H258V510H183V193Q183 126 224 88T339 50Q418 50 461 88T505 194V510H431V563H650V510H574V197Q574 96 510 43T337 -10Q217 -10 160 48ZM228 627T216
639T203 670Q203 689 215 701T248 713Q268 713 280 701T293 670Q293 651 281 639T248 627Q228 627 216 639ZM420 627T408 638T396 670Q396 690 408 701T440 713Q460 713 472 701T485 670Q485 651 473 639T440 627Q420 627 408 638Z" />
<glyph unicode="&#xdd;" glyph-name="Yacute" horiz-adv-x="632" d="M195 0V53H277V241L89 510H14V563H248V510H177L325 294L468 510H396V563H618V510H541L358 242V53H441V0H195ZM299 647L352 792H436L346 647H299Z" />
<glyph unicode="&#xde;" glyph-name="Thorn" horiz-adv-x="555" d="M421 446T470 409T520 306Q520 235 472 198T333 160H240V208H333Q385 208 413 233T442 306Q442 347 413 370T331 394H210V53H289V0H50V53H128V510H50V563H289V510H210V446H331Q421 446 470 409Z" />
<glyph unicode="&#xdf;" glyph-name="germandbls" horiz-adv-x="530" d="M431 307T468 269T505 165Q505 83 447 42T284 0V54Q425 54 425 166Q425 283 280 283H265V335H280Q322 336 345 363T368 435Q368 477 345 501T281 526Q231 526 203 491T174 396V54H232V0H20V54H94V392Q94
482 143 532T279 583Q356 583 399 545T443 442Q443 397 422 364T363 317Q431 307 468 269Z" />
<glyph unicode="&#xe0;" glyph-name="agrave" horiz-adv-x="456" d="M441 53V0H314L310 35Q278 11 246 0T174 -11Q114 -11 77 22T39 106Q39 170 82 199T197 229Q248 229 306 216V257Q306 302 282 325T213 348Q184 348 147 339T78 312L56 360Q89 381 132 392T214
403Q291 403 335 366T379 264V53H441ZM109 79T129 60T185 40Q244 40 306 83V173Q253 185 202 185Q162 185 136 168T109 110Q109 79 129 60ZM193 477L103 622H187L240 477H193Z" />
<glyph unicode="&#xe1;" glyph-name="aacute" horiz-adv-x="456" d="M441 53V0H314L310 35Q278 11 246 0T174 -11Q114 -11 77 22T39 106Q39 170 82 199T197 229Q248 229 306 216V257Q306 302 282 325T213 348Q184 348 147 339T78 312L56 360Q89 381 132 392T214
403Q291 403 335 366T379 264V53H441ZM109 79T129 60T185 40Q244 40 306 83V173Q253 185 202 185Q162 185 136 168T109 110Q109 79 129 60ZM194 477L247 622H331L241 477H194Z" />
<glyph unicode="&#xe2;" glyph-name="acircumflex" horiz-adv-x="456" d="M441 53V0H314L310 35Q278 11 246 0T174 -11Q114 -11 77 22T39 106Q39 170 82 199T197 229Q248 229 306 216V257Q306 302 282 325T213 348Q184 348 147 339T78 312L56 360Q89 381 132 392T214
403Q291 403 335 366T379 264V53H441ZM109 79T129 60T185 40Q244 40 306 83V173Q253 185 202 185Q162 185 136 168T109 110Q109 79 129 60ZM95 449L178 606H256L339 449H283L217 574L151 449H95Z" />
<glyph unicode="&#xe3;" glyph-name="atilde" horiz-adv-x="456" d="M441 53V0H314L310 35Q278 11 246 0T174 -11Q114 -11 77 22T39 106Q39 170 82 199T197 229Q248 229 306 216V257Q306 302 282 325T213 348Q184 348 147 339T78 312L56 360Q89 381 132 392T214
403Q291 403 335 366T379 264V53H441ZM109 79T129 60T185 40Q244 40 306 83V173Q253 185 202 185Q162 185 136 168T109 110Q109 79 129 60ZM266 470T251 474T222 483T204 490Q164 507 147 507Q134 507 127 500T116 474H85Q89 518 108 540T158 562Q180 562 228 542Q270
525 284 525Q299 525 308 533T321 560H350Q347 519 330 495T280 470Q266 470 251 474Z" />
<glyph unicode="&#xe4;" glyph-name="adieresis" horiz-adv-x="456" d="M441 53V0H314L310 35Q278 11 246 0T174 -11Q114 -11 77 22T39 106Q39 170 82 199T197 229Q248 229 306 216V257Q306 302 282 325T213 348Q184 348 147 339T78 312L56 360Q89 381 132 392T214
403Q291 403 335 366T379 264V53H441ZM109 79T129 60T185 40Q244 40 306 83V173Q253 185 202 185Q162 185 136 168T109 110Q109 79 129 60ZM101 457T89 469T76 500Q76 519 88 531T121 543Q141 543 153 531T166 500Q166 481 154 469T121 457Q101 457 89 469ZM293
457T281 468T269 500Q269 520 281 531T313 543Q333 543 345 531T358 500Q358 481 346 469T313 457Q293 457 281 468Z" />
<glyph unicode="&#xe5;" glyph-name="aring" horiz-adv-x="456" d="M441 53V0H314L310 35Q278 11 246 0T174 -11Q114 -11 77 22T39 106Q39 170 82 199T197 229Q248 229 306 216V257Q306 302 282 325T213 348Q184 348 147 339T78 312L56 360Q89 381 132 392T214
403Q291 403 335 366T379 264V53H441ZM109 79T129 60T185 40Q244 40 306 83V173Q253 185 202 185Q162 185 136 168T109 110Q109 79 129 60ZM181 428T160 449T138 503Q138 535 159 555T217 576Q254 576 275 556T296 503Q296 471 275 450T217 428Q181 428 160 449ZM237
459T249 471T261 503Q261 522 249 534T217 546Q196 546 184 534T172 503Q172 484 184 472T217 459Q237 459 249 471Z" />
<glyph unicode="&#xe6;" glyph-name="ae" horiz-adv-x="742" d="M117 -11T78 22T39 106Q39 169 85 198T206 227H306V257Q306 302 282 325T213 348Q184 348 147 339T78 312L56 360Q89 381 132 392T214 403Q264 403 301 386T358 339Q386 370 426 387T514 404Q604
404 655 349T707 200V181H383Q390 118 428 82T525 45Q608 45 674 108L700 63Q671 29 627 9T528 -12Q475 -12 430 7T354 62Q313 24 272 7T179 -11Q117 -11 78 22ZM634 227Q634 284 601 317T514 350Q462 350 426 317T383 227H634ZM226 40T259 54T329 99Q309 136 306
181H211Q166 181 138 165T109 110Q109 79 131 60T190 40Q226 40 259 54Z" />
<glyph unicode="&#xe7;" glyph-name="ccedilla" horiz-adv-x="469" d="M185 346T144 305T103 201Q103 133 143 91T247 48Q295 48 328 66T392 120L423 75Q362 -4 254 -10L241 -58Q277 -62 295 -78T313 -118Q313 -147 294 -161T242 -175Q199 -175 155 -156V-127Q190
-137 212 -137Q250 -137 250 -111Q250 -83 193 -80L220 -9Q164 -5 120 22T51 96T26 199Q26 259 52 305T126 378T232 404Q276 404 310 388T362 345V395H424V254H368Q359 297 327 321T249 346Q185 346 144 305Z" />
<glyph unicode="&#xe8;" glyph-name="egrave" horiz-adv-x="461" d="M426 181H102Q109 118 147 82T244 45Q326 45 393 108L419 63Q390 29 346 9T247 -12Q185 -12 134 14T54 87T25 196Q25 258 52 305T127 378T233 404Q323 404 374 349T426 200V181ZM353 227Q353
284 320 317T233 350Q181 350 145 317T102 227H353ZM212 477L122 622H206L259 477H212Z" />
<glyph unicode="&#xe9;" glyph-name="eacute" horiz-adv-x="461" d="M426 181H102Q109 118 147 82T244 45Q326 45 393 108L419 63Q390 29 346 9T247 -12Q185 -12 134 14T54 87T25 196Q25 258 52 305T127 378T233 404Q323 404 374 349T426 200V181ZM353 227Q353
284 320 317T233 350Q181 350 145 317T102 227H353ZM213 477L266 622H350L260 477H213Z" />
<glyph unicode="&#xea;" glyph-name="ecircumflex" horiz-adv-x="461" d="M426 181H102Q109 118 147 82T244 45Q326 45 393 108L419 63Q390 29 346 9T247 -12Q185 -12 134 14T54 87T25 196Q25 258 52 305T127 378T233 404Q323 404 374 349T426 200V181ZM353 227Q353
284 320 317T233 350Q181 350 145 317T102 227H353ZM114 449L197 606H275L358 449H302L236 574L170 449H114Z" />
<glyph unicode="&#xeb;" glyph-name="edieresis" horiz-adv-x="461" d="M426 181H102Q109 118 147 82T244 45Q326 45 393 108L419 63Q390 29 346 9T247 -12Q185 -12 134 14T54 87T25 196Q25 258 52 305T127 378T233 404Q323 404 374 349T426 200V181ZM353 227Q353
284 320 317T233 350Q181 350 145 317T102 227H353ZM120 457T108 469T95 500Q95 519 107 531T140 543Q160 543 172 531T185 500Q185 481 173 469T140 457Q120 457 108 469ZM312 457T300 468T288 500Q288 520 300 531T332 543Q352 543 364 531T377 500Q377 481 365
469T332 457Q312 457 300 468Z" />
<glyph unicode="&#xec;" glyph-name="igrave" horiz-adv-x="267" d="M22 0V53H98V340H23V393H171V53H242V0H22ZM101 477L11 622H95L148 477H101Z" />
<glyph unicode="&#xed;" glyph-name="iacute" horiz-adv-x="267" d="M22 0V53H98V340H23V393H171V53H242V0H22ZM102 477L155 622H239L149 477H102Z" />
<glyph unicode="&#xee;" glyph-name="icircumflex" horiz-adv-x="267" d="M22 0V53H98V340H23V393H171V53H242V0H22ZM3 449L86 606H164L247 449H191L125 574L59 449H3Z" />
<glyph unicode="&#xef;" glyph-name="idieresis" horiz-adv-x="267" d="M22 0V53H98V340H23V393H171V53H242V0H22ZM9 457T-3 469T-16 500Q-16 519 -4 531T29 543Q49 543 61 531T74 500Q74 481 62 469T29 457Q9 457 -3 469ZM201 457T189 468T177 500Q177 520 189
531T221 543Q241 543 253 531T266 500Q266 481 254 469T221 457Q201 457 189 468Z" />
<glyph unicode="&#xf0;" glyph-name="eth" horiz-adv-x="479" d="M363 443T402 365T442 195Q442 136 416 89T345 16T242 -10Q179 -10 134 16T66 86T42 186Q42 243 65 288T131 359T234 385Q273 385 301 374T342 350Q309 418 237 488L111 432L89 477L198 526Q146
573 78 624L114 669Q204 599 256 551L383 608L406 564L294 514Q363 443 402 365ZM307 49T340 91T374 195Q374 258 339 294T242 331Q182 331 148 292T113 187Q113 130 147 90T242 49Q307 49 340 91Z" />
<glyph unicode="&#xf1;" glyph-name="ntilde" horiz-adv-x="517" d="M515 53V0H304V53H369V258Q369 299 349 322T294 345Q265 345 236 335T171 303V53H242V0H22V53H98V340H22V393H171V354Q249 403 313 403Q369 403 405 369T442 272V53H515ZM331 470T316 474T287
483T269 490Q229 507 212 507Q199 507 192 500T181 474H150Q154 518 173 540T223 562Q245 562 293 542Q335 525 349 525Q364 525 373 533T386 560H415Q412 519 395 495T345 470Q331 470 316 474Z" />
<glyph unicode="&#xf2;" glyph-name="ograve" horiz-adv-x="476" d="M174 -12T126 14T52 87T25 197Q25 259 51 306T126 378T237 404Q300 404 348 379T424 306T451 198Q451 136 424 88T349 14T237 -12Q174 -12 126 14ZM299 46T337 87T375 198Q375 265 337 305T237
346Q175 346 138 305T101 197Q101 129 138 88T237 46Q299 46 337 87ZM213 477L123 622H207L260 477H213Z" />
<glyph unicode="&#xf3;" glyph-name="oacute" horiz-adv-x="476" d="M174 -12T126 14T52 87T25 197Q25 259 51 306T126 378T237 404Q300 404 348 379T424 306T451 198Q451 136 424 88T349 14T237 -12Q174 -12 126 14ZM299 46T337 87T375 198Q375 265 337 305T237
346Q175 346 138 305T101 197Q101 129 138 88T237 46Q299 46 337 87ZM214 477L267 622H351L261 477H214Z" />
<glyph unicode="&#xf4;" glyph-name="ocircumflex" horiz-adv-x="476" d="M174 -12T126 14T52 87T25 197Q25 259 51 306T126 378T237 404Q300 404 348 379T424 306T451 198Q451 136 424 88T349 14T237 -12Q174 -12 126 14ZM299 46T337 87T375 198Q375 265 337
305T237 346Q175 346 138 305T101 197Q101 129 138 88T237 46Q299 46 337 87ZM115 449L198 606H276L359 449H303L237 574L171 449H115Z" />
<glyph unicode="&#xf5;" glyph-name="otilde" horiz-adv-x="476" d="M174 -12T126 14T52 87T25 197Q25 259 51 306T126 378T237 404Q300 404 348 379T424 306T451 198Q451 136 424 88T349 14T237 -12Q174 -12 126 14ZM299 46T337 87T375 198Q375 265 337 305T237
346Q175 346 138 305T101 197Q101 129 138 88T237 46Q299 46 337 87ZM286 470T271 474T242 483T224 490Q184 507 167 507Q154 507 147 500T136 474H105Q109 518 128 540T178 562Q200 562 248 542Q290 525 304 525Q319 525 328 533T341 560H370Q367 519 350 495T300
470Q286 470 271 474Z" />
<glyph unicode="&#xf6;" glyph-name="odieresis" horiz-adv-x="476" d="M174 -12T126 14T52 87T25 197Q25 259 51 306T126 378T237 404Q300 404 348 379T424 306T451 198Q451 136 424 88T349 14T237 -12Q174 -12 126 14ZM299 46T337 87T375 198Q375 265 337 305T237
346Q175 346 138 305T101 197Q101 129 138 88T237 46Q299 46 337 87ZM121 457T109 469T96 500Q96 519 108 531T141 543Q161 543 173 531T186 500Q186 481 174 469T141 457Q121 457 109 469ZM313 457T301 468T289 500Q289 520 301 531T333 543Q353 543 365 531T378
500Q378 481 366 469T333 457Q313 457 301 468Z" />
<glyph unicode="&#xf7;" glyph-name="divide" horiz-adv-x="571" d="M241 409V499H331V409H241ZM70 253V306H501V253H70ZM241 60V150H331V60H241Z" />
<glyph unicode="&#xf8;" glyph-name="oslash" horiz-adv-x="482" d="M403 346T427 301T451 198Q451 136 424 88T349 14T237 -12Q192 -12 157 1L122 -63L87 -45L121 17Q76 43 51 89T25 197Q25 259 51 306T126 378T237 404Q285 404 324 389L359 453L394 436L359
372Q403 346 427 301ZM101 157T114 126T152 74L295 335Q267 346 237 346Q175 346 138 305T101 197Q101 157 114 126ZM299 46T337 87T375 198Q375 235 363 265T328 314L186 55Q210 46 237 46Q299 46 337 87Z" />
<glyph unicode="&#xf9;" glyph-name="ugrave" horiz-adv-x="510" d="M499 53V0H355L353 48Q281 -10 208 -10Q142 -10 110 27T77 122V340H11V393H151V130Q151 92 169 71T225 49Q293 49 353 104V340H282V393H426V53H499ZM215 477L125 622H209L262 477H215Z" />
<glyph unicode="&#xfa;" glyph-name="uacute" horiz-adv-x="510" d="M499 53V0H355L353 48Q281 -10 208 -10Q142 -10 110 27T77 122V340H11V393H151V130Q151 92 169 71T225 49Q293 49 353 104V340H282V393H426V53H499ZM216 477L269 622H353L263 477H216Z" />
<glyph unicode="&#xfb;" glyph-name="ucircumflex" horiz-adv-x="510" d="M499 53V0H355L353 48Q281 -10 208 -10Q142 -10 110 27T77 122V340H11V393H151V130Q151 92 169 71T225 49Q293 49 353 104V340H282V393H426V53H499ZM117 449L200 606H278L361 449H305L239
574L173 449H117Z" />
<glyph unicode="&#xfc;" glyph-name="udieresis" horiz-adv-x="510" d="M499 53V0H355L353 48Q281 -10 208 -10Q142 -10 110 27T77 122V340H11V393H151V130Q151 92 169 71T225 49Q293 49 353 104V340H282V393H426V53H499ZM123 457T111 469T98 500Q98 519 110 531T143
543Q163 543 175 531T188 500Q188 481 176 469T143 457Q123 457 111 469ZM315 457T303 468T291 500Q291 520 303 531T335 543Q355 543 367 531T380 500Q380 481 368 469T335 457Q315 457 303 468Z" />
<glyph unicode="&#xfd;" glyph-name="yacute" horiz-adv-x="519" d="M101 -99H146Q174 -99 189 -95T215 -77T237 -33L258 25H227L81 340H8V393H214V340H156L274 73L379 340H311V393H516V340H452L306 -23Q284 -80 270 -105T228 -145T152 -159H101V-99ZM240 477L293
622H377L287 477H240Z" />
<glyph unicode="&#xfe;" glyph-name="thorn" horiz-adv-x="537" d="M20 -105H88V509H16V563H163V353Q196 381 235 395T313 410Q366 410 409 387T478 318T504 209Q504 144 477 96T403 23T301 -3Q263 -3 227 12T163 54V-105H233V-159H20V-105ZM350 52T388 91T427
203Q427 273 390 313T293 354Q261 354 227 339T163 295V106Q190 80 223 66T288 52Q350 52 388 91Z" />
<glyph unicode="&#xff;" glyph-name="ydieresis" horiz-adv-x="519" d="M101 -99H146Q174 -99 189 -95T215 -77T237 -33L258 25H227L81 340H8V393H214V340H156L274 73L379 340H311V393H516V340H452L306 -23Q284 -80 270 -105T228 -145T152 -159H101V-99ZM147 457T135
469T122 500Q122 519 134 531T167 543Q187 543 199 531T212 500Q212 481 200 469T167 457Q147 457 135 469ZM339 457T327 468T315 500Q315 520 327 531T359 543Q379 543 391 531T404 500Q404 481 392 469T359 457Q339 457 327 468Z" />
<glyph unicode="&#x2013;" glyph-name="endash" horiz-adv-x="637" d="M0 206V262H637V206H0Z" />
<glyph unicode="&#x2014;" glyph-name="emdash" horiz-adv-x="744" d="M0 206V262H744V206H0Z" />
<glyph unicode="&#x2018;" glyph-name="quoteleft" horiz-adv-x="211" d="M171 553Q140 548 129 532T117 475H168V380H70V460Q70 525 94 558T171 591V553Z" />
<glyph unicode="&#x2019;" glyph-name="quoteright" horiz-adv-x="211" d="M40 418Q71 423 82 439T94 496H43V591H141V511Q141 446 117 413T40 380V418Z" />
<glyph unicode="&#x201a;" glyph-name="quotesinglbase" horiz-adv-x="211" d="M296 -78Q327 -73 338 -57T350 0H299V95H397V15Q397 -50 373 -83T296 -116V-78Z" />
<glyph unicode="&#x201c;" glyph-name="quotedblleft" horiz-adv-x="355" d="M171 553Q140 548 129 532T117 475H168V380H70V460Q70 525 94 558T171 591V553ZM315 553Q284 548 273 532T261 475H312V380H214V460Q214 525 238 558T315 591V553Z" />
<glyph unicode="&#x201d;" glyph-name="quotedblright" horiz-adv-x="355" d="M40 418Q71 423 82 439T94 496H43V591H141V511Q141 446 117 413T40 380V418ZM184 418Q215 423 226 439T238 496H187V591H285V511Q285 446 261 413T184 380V418Z" />
<glyph unicode="&#x201e;" glyph-name="quotedblbase" horiz-adv-x="355" d="M296 -78Q327 -73 338 -57T350 0H299V95H397V15Q397 -50 373 -83T296 -116V-78ZM184 -78Q215 -73 226 -57T238 0H187V95H285V15Q285 -50 261 -83T184 -116V-78Z" />
<glyph unicode="&#x2022;" glyph-name="bullet" horiz-adv-x="268" d="M92 150T64 178T36 244Q36 283 64 310T134 338Q178 338 205 312T232 244Q232 204 205 177T134 150Q92 150 64 178Z" />
<glyph unicode="&#x2039;" glyph-name="guilsinglleft" horiz-adv-x="271" d="M156 94L10 289L156 484H209L107 290L209 94H156Z" />
<glyph unicode="&#x203a;" glyph-name="guilsinglright" horiz-adv-x="271" d="M62 94L164 290L62 484H115L261 290L115 94H62Z" />
</font>
</defs>
</svg>
