<?xml version="1.0" standalone="no"?>
<!DOCTYPE svg PUBLIC "-//W3C//DTD SVG 1.1//EN" "http://www.w3.org/Graphics/SVG/1.1/DTD/svg11.dtd">
<svg xmlns="http://www.w3.org/2000/svg">
<defs >
<font id="LibreFranklin" horiz-adv-x="590" ><font-face
    font-family="Libre Franklin SemiBold"
    units-per-em="1000"
    panose-1="0 0 7 0 0 0 0 0 0 0"
    ascent="966"
    descent="-246"
    alphabetic="0" />
<glyph unicode=" " glyph-name="space" horiz-adv-x="209" />
<glyph unicode="!" glyph-name="exclam" horiz-adv-x="257" d="M167 230Q164 220 160 217T144 214H99Q80 214 82 235L119 730Q119 737 121 739T130 742H255Q261 742 265 736T268 724L167 230ZM165 17Q164 6 160 3T141 0H40Q29 0 24 6T20 22L36 133Q37 141 40 143T49
145H167Q174 145 178 140T181 127L165 17Z" />
<glyph unicode="&quot;" glyph-name="quotedbl" horiz-adv-x="449" d="M360 488Q357 477 354 475T337 472H305Q296 472 291 478T287 493L290 731Q290 738 292 740T302 742H411Q417 742 421 737T424 724L360 488ZM412 488Q409 477 406 475T389 472H357Q348 472
343 478T339 493L342 731Q342 738 344 740T354 742H463Q469 742 473 737T476 724L412 488Z" />
<glyph unicode="#" glyph-name="numbersign" horiz-adv-x="603" d="M609 515T611 510T613 497L608 460Q607 450 602 447T585 444H485L445 305H540Q546 305 549 300T551 287L545 250Q544 240 540 237T523 234H424L361 17Q359 7 357 4T348 0Q343 0 340 1L309 5Q286
8 289 25L350 234H209L146 17Q144 7 142 4T133 0Q128 0 125 1L94 5Q71 8 74 25L135 234H39Q29 234 24 240T21 255L26 293Q27 300 30 302T41 305H156L196 444H101Q91 444 87 450T84 465L89 503Q90 510 93 512T104 515H217L279 729Q281 737 284 739T292 741L336 736Q343
735 347 730T350 717L291 515H431L493 729Q496 737 499 739T507 741L551 736Q558 735 562 730T565 717L506 515H603Q609 515 611 510ZM410 444H270L230 305H370L410 444Z" />
<glyph unicode="$" glyph-name="dollar" horiz-adv-x="638" d="M595 164T564 114T477 32T350 -6Q338 -7 334 -10T327 -23L322 -66Q321 -76 317 -79T301 -82H253Q244 -82 239 -76T235 -61L242 -14Q243 -7 242 -6T236 -5Q160 -2 109 23T21 98Q6 106 6 116Q6 120
11 125L69 178Q76 183 79 183Q88 183 94 170Q123 135 157 116T239 91H241Q249 91 254 95T260 105L288 302V307Q288 317 279 322Q178 348 133 393T87 506Q87 523 90 541Q101 619 163 673T327 743Q335 744 343 749T352 761L358 803Q359 808 360 809T367 811H425Q433
811 438 806T442 790L435 747Q435 744 436 743T441 740Q544 723 607 659Q617 656 617 646Q617 641 613 637L558 581Q554 577 550 577Q544 577 536 590Q520 608 494 622T437 645H435Q429 645 424 641T418 631L391 434V429Q391 427 393 426T399 424L447 410Q516 385
555 338T595 226Q595 164 564 114ZM335 640Q336 646 335 647T328 645Q271 638 236 605T201 527Q201 501 219 483T283 446Q294 445 301 451T311 468L335 640ZM343 90T345 91T350 94Q408 97 443 129T479 209Q479 239 459 259T391 296H388Q372 296 369 281L343 94Q343
90 345 91Z" />
<glyph unicode="%" glyph-name="percent" horiz-adv-x="935" d="M364 753T408 703T452 572Q452 554 449 534Q441 475 412 429T338 357T244 331Q172 331 127 380T82 509Q82 529 85 548Q93 607 123 653T198 726T293 753Q364 753 408 703ZM191 3Q187 -2 184 -3T175
-4T168 -4L132 -3Q125 -3 121 1T117 12Q117 20 121 25L701 744Q705 749 708 750T715 751T722 750H767Q775 750 779 745T778 732L191 3ZM286 399T315 439T353 547Q357 570 357 594Q357 637 341 661T292 685Q248 685 219 644T180 533Q177 509 177 489Q177 399 241
399Q286 399 315 439ZM794 412T838 362T882 232Q882 213 879 193Q871 134 842 88T768 16T674 -10Q602 -10 558 39T513 168Q513 186 516 207Q524 266 554 312T628 385T723 412Q794 412 838 362ZM715 58T745 98T784 206Q787 230 787 250Q787 295 771 319T723 344Q680
344 650 303T611 192Q608 170 608 150Q608 106 624 82T672 58Q715 58 745 98Z" />
<glyph unicode="&amp;" glyph-name="ampersand" horiz-adv-x="818" d="M513 753T567 714T622 611Q622 604 620 590Q613 540 565 489T438 402Q418 399 425 386L530 247Q534 243 535 243Q538 243 542 247T551 259Q584 286 618 329T669 405Q672 409 677 409Q682 409
689 406L750 385Q758 382 762 374T763 356Q726 289 618 173Q609 167 607 164T609 155Q633 137 669 125T742 111Q753 111 758 106T762 91L753 19Q751 8 747 4T735 0Q669 0 609 21T509 78L501 80Q494 80 484 68Q374 -5 244 -5Q141 -5 84 40T27 165Q27 181 30 199Q38
256 82 304T216 403Q224 406 229 409T234 418Q234 421 229 431Q182 486 182 553Q182 609 214 655T303 727T426 753Q513 753 567 714ZM384 671T352 642T313 572Q309 537 333 505L360 469Q362 467 364 467Q371 467 379 475Q438 500 469 530T506 599L507 610Q507 640
486 655T430 671Q384 671 352 642ZM301 333T295 333Q288 333 279 324Q230 303 200 265T169 183Q169 144 198 119T273 93Q308 93 345 108T410 147Q429 156 422 168L305 327Q301 333 295 333Z" />
<glyph unicode="&apos;" glyph-name="quotesingle" horiz-adv-x="245" d="M193 488Q190 477 187 475T170 472H138Q129 472 124 478T120 493L123 731Q123 738 125 740T135 742H244Q250 742 254 737T257 724L193 488Z" />
<glyph unicode="(" glyph-name="parenleft" horiz-adv-x="304" d="M144 -165T140 -161T135 -149Q94 -61 73 19T51 188Q51 242 58 292Q75 410 127 524T258 737Q267 742 280 742H342Q348 742 351 737T352 724Q285 622 238 508T174 277Q166 222 166 157Q166 9 219
-159Q222 -161 222 -163T215 -165H149Q144 -165 140 -161Z" />
<glyph unicode=")" glyph-name="parenright" horiz-adv-x="304" d="M-37 -165T-40 -160T-41 -147Q26 -45 73 69T137 300Q145 355 145 420Q145 568 92 736Q89 738 89 740T96 742H162Q167 742 171 738T176 726Q217 637 238 558T259 390Q259 337 252 285Q235 167
183 53T53 -160Q44 -165 31 -165H-31Q-37 -165 -40 -160Z" />
<glyph unicode="*" glyph-name="asterisk" horiz-adv-x="436" d="M258 490Q258 491 256 491Q254 491 250 484L157 361Q156 359 152 359Q148 359 140 365L96 399Q89 404 89 410Q89 413 92 417L197 524Q199 527 200 529T197 532L80 567Q75 569 73 574T72 587L99
638Q102 643 104 643Q107 643 112 640L222 591L225 590Q229 590 232 593T236 602L245 735Q245 739 246 740T254 742H318Q323 742 327 737T329 727L300 593Q299 589 300 590T305 592L431 644Q433 645 436 645Q440 645 443 641T447 632L457 582V576Q457 568 450 567L325
530Q320 529 317 525T316 518L387 416Q390 412 390 407Q390 400 382 395L335 366Q331 363 327 363Q322 363 319 366T314 372L258 490Z" />
<glyph unicode="+" glyph-name="plus" horiz-adv-x="574" d="M534 421T538 416T542 404L532 341Q531 331 527 328T510 325H344L320 148Q319 142 317 141T307 139H245Q235 139 230 146T226 166L248 325H82Q62 325 64 346L74 409Q75 416 77 418T85 421H262L286 594Q287
603 290 605T302 608H365Q373 608 378 603T381 591L358 421H528Q534 421 538 416Z" />
<glyph unicode="," glyph-name="comma" horiz-adv-x="239" d="M-16 -151T-16 -146Q-16 -142 -13 -136L51 -26Q57 -16 57 -10Q57 0 43 0H25Q15 0 13 3T11 14L27 127Q28 135 32 140T43 146H163Q176 146 174 131L158 29Q157 19 151 11L41 -133Q32 -143 25 -147T10
-151H-9Q-16 -151 -16 -146Z" />
<glyph unicode="-" glyph-name="hyphen" horiz-adv-x="380" d="M322 232Q321 222 317 219T300 216H68Q58 216 53 222T49 237L59 300Q60 307 62 309T71 312H318Q324 312 328 307T331 295L322 232Z" />
<glyph unicode="." glyph-name="period" horiz-adv-x="237" d="M155 17Q154 6 150 3T131 0H30Q19 0 14 6T10 22L26 135Q27 144 30 146T39 148H157Q164 148 168 143T170 129L155 17Z" />
<glyph unicode="/" glyph-name="slash" horiz-adv-x="357" d="M-27 -26T-30 -21T-32 -10L323 733Q328 742 340 742H400Q415 742 415 729Q415 724 412 716L65 -11Q60 -21 55 -23T40 -26H-19Q-27 -26 -30 -21Z" />
<glyph unicode="0" glyph-name="zero" horiz-adv-x="701" d="M491 753T548 716T637 610T669 448Q669 409 663 362Q647 248 598 164T476 36T318 -9Q241 -9 183 27T93 130T61 290Q61 324 68 375Q84 490 134 575T257 707T415 753Q491 753 548 716ZM399 97T447 163T515
376Q524 452 524 485Q524 648 410 648Q336 648 286 578T216 361Q207 301 207 257Q207 97 323 97Q399 97 447 163Z" />
<glyph unicode="1" glyph-name="one" horiz-adv-x="494" d="M435 111T434 97L422 12Q420 5 417 3T406 0H22Q13 0 11 3T9 14L21 101Q22 107 24 109T35 111H149Q159 111 160 122L225 586V589Q225 594 217 591L103 556Q101 555 96 555Q83 555 86 570L95 633Q97 643
99 646T109 654L280 733Q292 739 300 740T319 742H382Q396 742 393 726L307 118V116Q307 111 314 111H421Q435 111 434 97Z" />
<glyph unicode="2" glyph-name="two" horiz-adv-x="628" d="M282 320Q385 401 427 451T470 552Q470 595 441 619T365 643Q320 643 274 616T192 536Q188 527 179 533L89 587Q85 588 85 593Q85 599 94 611Q146 679 221 715T378 752Q484 752 548 702T613 561Q613
507 592 463T532 380T431 293L225 135Q218 130 218 126T225 122H543Q561 122 558 108L546 13Q544 6 541 3T529 0H27Q4 0 7 23L16 88Q18 99 25 107T60 137L282 320Z" />
<glyph unicode="3" glyph-name="three" horiz-adv-x="658" d="M116 641T116 644Q116 650 122 656Q173 701 241 726T381 752Q459 752 515 730T600 669T630 579Q630 517 587 467T479 395Q473 393 473 390T479 385Q535 370 569 329T604 230Q604 155 564 101T450 19T278
-10Q184 -10 120 23T19 114Q15 121 15 124T18 131L95 182Q104 189 109 182Q145 137 188 117T286 96Q360 96 410 133T460 230Q460 277 421 304T322 332L229 333Q218 333 219 344L230 429Q231 437 244 437L314 438Q360 438 399 455T461 502T485 567Q485 603 455 625T375
648Q323 648 285 630T195 572Q187 568 186 568Q180 568 176 574L119 636Q116 641 116 644Z" />
<glyph unicode="4" glyph-name="four" horiz-adv-x="675" d="M443 737T449 739T469 742H578Q594 742 591 726L530 293V291Q530 286 537 286H626Q641 286 640 273L629 196Q627 188 624 186T612 183H525Q520 183 517 180T512 171L492 16Q490 6 486 3T469 0H360Q350
0 346 4T342 17L364 176V178Q364 183 357 183H44Q35 183 32 186T29 199L40 276Q41 285 46 293T66 319L435 728Q443 737 449 739ZM369 286Q375 286 377 288T381 297L421 575V578Q421 583 419 583Q415 583 408 573L166 298Q155 286 167 286H369Z" />
<glyph unicode="5" glyph-name="five" horiz-adv-x="669" d="M626 742Q635 742 638 740T642 731Q642 726 641 723L624 635Q622 627 618 625T605 622H278Q270 622 267 619T261 609L225 447V444Q225 437 233 440Q279 458 314 466T390 475Q494 475 558 424T622 276Q622
189 580 125T463 25T294 -10Q204 -10 135 22T25 111Q20 119 20 124Q20 129 27 134L102 184Q106 186 108 186Q115 186 124 175Q158 137 193 116T281 95Q338 95 382 117T451 179T476 266Q476 315 443 342T352 369Q313 369 280 357T201 319Q193 317 191 317Q184 317
178 322L103 367Q95 372 95 383Q95 387 97 399L172 725Q174 737 179 739T203 742H626Z" />
<glyph unicode="6" glyph-name="six" horiz-adv-x="677" d="M485 751T530 733T606 684T644 618V615Q644 609 637 607L545 576Q544 575 542 575Q536 575 525 593Q507 620 487 633T431 646Q345 646 290 584T221 421L219 409Q219 405 223 405Q226 405 232 408Q322
450 403 450Q473 450 524 426T603 359T630 258Q630 182 588 121T475 26T322 -9Q198 -9 129 68T60 280Q60 319 66 364Q83 484 133 571T261 705T433 751Q485 751 530 733ZM338 351T295 339T226 311Q209 300 204 284T199 236Q199 175 230 133T322 91Q365 91 402 113T462
173T485 251Q485 297 454 324T372 351Q338 351 295 339Z" />
<glyph unicode="7" glyph-name="seven" horiz-adv-x="612" d="M621 742Q643 742 639 720L631 672Q625 644 604 620Q532 532 463 418T344 196T277 18Q275 7 271 4T258 0H126Q119 0 115 4T110 17Q110 25 112 29Q226 303 460 610Q464 616 464 618Q464 622 454 622H102Q85
622 88 641L110 730Q112 737 116 739T130 742H621Z" />
<glyph unicode="8" glyph-name="eight" horiz-adv-x="678" d="M470 752T525 729T610 663T641 565Q641 521 621 487T576 433T516 392Q510 388 510 385Q510 383 516 378Q521 375 552 357T604 304T625 220Q625 147 581 95T463 17T297 -10Q176 -10 106 36T35 168Q35
232 72 279T179 363Q187 366 187 370Q187 375 180 379Q142 405 123 431T104 508Q104 574 141 630T246 719T399 752Q470 752 525 729ZM354 652T319 635T264 589T244 527Q244 500 260 482T311 454L392 430Q400 428 405 428Q429 428 455 448T498 500T515 562Q515 603
484 627T399 652Q354 652 319 635ZM384 90T431 123T479 211Q479 242 461 262T403 295L298 326Q295 327 288 327Q266 327 236 306T185 251T164 181Q164 139 200 115T303 90Q384 90 431 123Z" />
<glyph unicode="9" glyph-name="nine" horiz-adv-x="675" d="M215 -9T170 10T97 60T59 121L58 125Q58 132 66 135L156 165Q158 166 161 166Q170 166 178 152Q193 124 216 110T277 96Q361 96 415 158T484 321V326Q484 334 480 334Q477 334 469 331Q423 312 386
302T304 292Q234 292 183 316T105 384T77 485Q77 561 119 622T233 717T385 751Q508 751 576 675T645 463Q645 337 600 229T471 56T274 -9Q215 -9 170 10ZM370 391T408 403T478 435Q496 445 501 461T507 508Q507 568 476 610T386 652Q343 652 306 630T246 570T223
492Q223 446 253 419T334 391Q370 391 408 403Z" />
<glyph unicode=":" glyph-name="colon" horiz-adv-x="237" d="M206 386Q205 375 201 372T183 369H81Q70 369 65 375T62 392L77 502Q78 510 81 512T91 514H209Q216 514 220 509T222 496L206 386ZM155 20Q153 9 149 6T131 3H30Q19 3 14 9T11 26L26 136Q27 144 30
146T39 148H157Q164 148 167 143T170 130L155 20Z" />
<glyph unicode=";" glyph-name="semicolon" horiz-adv-x="249" d="M59 365T61 387L77 500Q78 508 81 510T90 512H208Q215 512 219 507T222 494L206 382Q205 371 201 368T182 365H81Q59 365 61 387ZM-10 -154T-14 -147T-15 -132L49 -19Q56 -7 56 -4Q56 0 47 0H31Q21
0 16 6T12 21L28 135Q29 142 31 144T41 146H160Q166 146 170 141T173 128L157 21Q155 11 154 8L44 -141Q33 -154 13 -154H-3Q-10 -154 -14 -147Z" />
<glyph unicode="&lt;" glyph-name="less" horiz-adv-x="566" d="M487 146Q484 128 473 128Q470 128 460 132L71 291Q63 294 58 301T54 317L64 395Q65 405 69 409T84 417L517 578Q523 580 526 580Q535 580 541 572T545 555L536 490Q535 479 528 473T504 460L204
352L467 244Q483 237 490 229T496 209L487 146Z" />
<glyph unicode="=" glyph-name="equal" horiz-adv-x="574" d="M547 439Q546 429 541 426T524 423H96Q76 423 78 444L87 506Q88 514 90 516T99 519H542Q548 519 552 514T555 501L547 439ZM514 207Q513 197 509 194T492 191H64Q54 191 49 197T46 212L54 275Q55 282
58 284T67 287H510Q516 287 520 282T523 270L514 207Z" />
<glyph unicode="&gt;" glyph-name="greater" horiz-adv-x="566" d="M56 228T62 233T88 246L387 352L123 463Q91 476 94 497L104 563Q105 579 119 579Q123 579 131 576L519 415Q528 412 533 405T537 388L526 310Q525 301 521 297T507 289L74 129Q68 127 65 127Q56
127 51 134T46 153L55 216Q56 228 62 233Z" />
<glyph unicode="?" glyph-name="question" horiz-adv-x="531" d="M62 590T62 604Q62 610 63 613Q105 680 173 716T327 752Q394 752 443 731T519 674T546 591Q546 576 545 569Q537 516 507 480T421 398Q364 351 334 315T297 227Q295 217 281 217H210Q202 217 197
224T193 244Q202 308 235 352T324 448Q368 489 389 516T416 577Q417 581 417 589Q417 622 392 641T324 661Q279 661 236 635T170 567Q167 564 163 564L153 566L71 588Q62 590 62 604ZM286 17Q285 6 281 3T263 0H161Q150 0 145 6T142 22L157 133Q158 141 160 143T170
145H288Q295 145 299 140T302 127L286 17Z" />
<glyph unicode="@" glyph-name="at" horiz-adv-x="834" d="M575 -79T514 -96T384 -113Q276 -113 198 -71T79 44T38 210Q38 242 42 269Q57 375 120 465T282 608T500 661Q587 661 660 631T777 539T822 386Q822 357 818 332Q808 259 776 202T695 113T592 81Q550 81
528 96T501 136L499 138Q496 138 489 124Q427 67 347 67Q290 67 254 107T217 215Q217 233 220 251Q229 311 260 362T340 444T446 475Q520 475 549 415H550Q557 415 563 427L570 446Q571 450 573 450T578 449H639Q643 449 646 446T648 438L582 223Q574 194 574 182Q574
158 600 158Q629 158 657 179T706 242T736 340Q739 364 739 385Q739 489 671 537T499 585Q393 585 314 541T186 422T125 255Q121 231 121 202Q121 88 193 23T398 -42Q459 -42 496 -28T582 16Q588 18 589 18Q598 18 602 8L626 -29Q628 -35 628 -36Q628 -41 625 -45T620
-51Q575 -79 514 -96ZM313 187T327 168T371 149Q417 149 457 189T510 283Q515 301 515 321Q515 355 498 374T451 393Q416 393 384 369T333 305T313 220Q313 187 327 168Z" />
<glyph unicode="A" glyph-name="A" horiz-adv-x="756" d="M-2 0T-2 9Q-2 16 4 28L356 728Q360 737 366 739T384 742H510Q527 742 531 719L683 20L684 14Q684 0 671 0H550Q537 0 534 16L499 177Q498 182 496 183T488 185H229Q223 185 220 183T214 174L130 8Q128
3 124 2T113 0H8Q-2 0 -2 9ZM468 298Q482 298 479 314L419 579Q418 588 413 588Q408 588 404 578L271 313Q268 306 268 303Q268 298 276 298H468Z" />
<glyph unicode="B" glyph-name="B" horiz-adv-x="715" d="M49 0T46 4T45 20L144 726Q145 735 149 738T162 742H419Q550 742 619 698T689 571Q689 500 648 453T534 382Q527 381 527 378T532 372Q595 354 626 318T658 225Q658 102 567 51T335 0H56Q49 0 46 4ZM389
427Q453 427 497 461T541 555Q541 597 507 618T413 640H296Q278 640 277 624L252 440L251 435Q251 427 261 427H389ZM334 102Q405 102 456 134T507 236Q507 280 473 301T380 323H250Q242 323 238 320T233 307L206 115L205 110Q205 105 207 104T216 102H334Z" />
<glyph unicode="C" glyph-name="C" horiz-adv-x="719" d="M519 752T578 723T671 643T706 530V527Q706 513 693 513L583 506H582Q572 506 570 527Q565 582 533 614T443 647Q361 647 310 589T236 446T213 276Q213 187 249 144T358 101Q424 101 473 133T558 234Q562
242 571 242Q576 242 579 241L668 218Q673 216 673 210Q673 203 669 192Q650 148 608 102T499 23T349 -10Q259 -10 195 28T96 135T62 299Q62 417 105 520T234 688T445 752Q519 752 578 723Z" />
<glyph unicode="D" glyph-name="D" horiz-adv-x="741" d="M55 0T50 7T45 25L144 728Q146 736 149 739T163 742H353Q530 742 620 664T710 445Q710 307 658 207T504 54T261 0H65Q55 0 50 7ZM275 106Q419 106 488 197T557 452Q557 548 507 592T354 636H293Q279 636
276 620L208 122Q208 121 208 120T208 117Q208 106 220 106H275Z" />
<glyph unicode="E" glyph-name="E" horiz-adv-x="645" d="M146 737T148 739T158 742H647Q660 742 657 723L646 648Q644 639 641 636T627 632H292Q284 632 281 630T277 619L252 439L251 433Q251 428 260 428H494Q502 428 504 425T505 415L493 330Q492 324 490 322T480
320H245Q239 320 237 317T232 306L207 121V117Q207 110 213 110H568Q575 110 578 107T579 96L568 12Q567 5 565 3T553 0H62Q51 0 47 5T45 22L145 729Q146 737 148 739Z" />
<glyph unicode="F" glyph-name="F" horiz-adv-x="621" d="M146 737T148 739T159 742H640Q646 742 648 739T649 728L637 648Q636 639 633 636T620 632H290Q283 632 280 629T276 616L250 429L249 424Q249 417 259 417H499Q506 417 508 415T509 407L498 322Q497 315
494 313T482 311H244Q238 311 235 308T231 294L192 16Q191 6 188 3T173 0H58Q50 0 47 2T44 10Q44 17 45 22L145 728Q146 737 148 739Z" />
<glyph unicode="G" glyph-name="G" horiz-adv-x="747" d="M255 -10T192 27T95 132T61 294Q61 419 108 523T243 690T447 752Q523 752 583 722T676 643T711 537Q711 528 710 525T704 520L588 503H587Q583 503 581 507T577 525Q571 578 536 612T441 646Q364 646 313
592T238 453T213 274Q213 182 249 139T357 96Q428 96 476 137T543 236L550 274Q552 280 552 281Q552 286 541 286H404Q399 286 397 288T396 298L404 368Q406 377 413 377L688 376Q698 376 701 373T702 361L653 12Q652 0 638 0H611Q603 0 599 3T592 14L581 94Q580
99 576 99Q570 99 564 92Q530 48 476 19T343 -10Q255 -10 192 27Z" />
<glyph unicode="H" glyph-name="H" horiz-adv-x="746" d="M247 327Q235 327 234 312L192 16Q191 6 187 3T170 0H59Q49 0 46 3T44 17L145 729Q146 737 148 739T158 742H282Q289 742 291 739T291 728L254 455L253 449Q253 441 263 441H532Q544 441 546 460L584 730Q585
737 588 739T598 742H721Q728 742 730 738T731 721L631 15Q630 5 627 3T613 0H503Q491 0 487 4T485 20L526 320V322Q526 327 516 327H247Z" />
<glyph unicode="I" glyph-name="I" horiz-adv-x="306" d="M279 742Q294 742 291 722L192 18Q191 6 187 3T169 0H61Q50 0 47 5T45 22L145 729Q146 737 148 739T158 742H279Z" />
<glyph unicode="J" glyph-name="J" horiz-adv-x="437" d="M337 79T286 35T138 -10Q83 -10 21 9Q8 14 4 17T1 28L24 115Q26 123 29 125T40 125Q54 121 71 117T107 113Q152 113 176 139T209 222L280 729Q281 737 284 739T294 742H417Q430 742 427 722L351 178Q337
79 286 35Z" />
<glyph unicode="K" glyph-name="K" horiz-adv-x="729" d="M657 13T657 9Q657 0 644 0H518Q501 0 498 17L362 350Q361 353 359 353Q356 353 352 348T345 341L231 226Q221 217 218 205L192 16Q191 7 187 4T170 0H59Q42 0 45 22L145 729Q146 737 148 739T158 742H278Q285
742 289 737T291 723L246 401L245 396Q245 395 246 395Q246 395 256 405L573 731Q579 738 585 740T604 742H717Q730 742 730 735Q730 730 725 725L480 482Q474 475 473 472T472 461L654 19Q657 13 657 9Z" />
<glyph unicode="L" glyph-name="L" horiz-adv-x="619" d="M145 736T148 739T159 742H281Q294 742 291 722L207 123L206 118Q206 110 216 110H546Q560 110 558 92L547 12Q546 5 543 3T531 0H62Q42 0 45 22L144 727Q145 736 148 739Z" />
<glyph unicode="M" glyph-name="M" horiz-adv-x="934" d="M49 0T47 2T44 12L45 24L145 729Q146 738 148 740T159 742H329Q345 742 348 726L458 254Q459 247 463 247Q466 247 471 256L710 726Q714 735 718 738T730 742H909Q923 742 920 728L820 17Q819 6 815 3T799
0H692Q669 0 673 22L745 537Q747 543 744 543Q743 543 739 536L474 12Q470 5 466 3T454 0H381Q373 0 369 3T363 18L248 533Q247 540 243 540Q240 540 238 534L165 13Q163 5 160 3T149 0H56Q49 0 47 2Z" />
<glyph unicode="N" glyph-name="N" horiz-adv-x="758" d="M734 742Q746 742 744 728L643 11Q642 4 639 2T628 0H544Q531 0 523 14L248 500Q245 506 241 506Q237 506 235 495L167 14Q165 6 162 3T149 0H57Q42 0 44 19L145 729Q146 737 148 739T160 742H259Q268
742 273 739T283 726L540 263Q544 256 550 256Q557 256 558 268L623 730Q625 738 627 740T638 742H734Z" />
<glyph unicode="O" glyph-name="O" horiz-adv-x="770" d="M214 -10T138 69T61 292Q61 332 67 375Q83 492 135 577T267 707T449 752Q585 752 661 671T738 445Q738 397 732 362Q716 246 665 163T533 35T352 -10Q214 -10 138 69ZM451 96T505 163T580 374Q587 427
587 473Q587 562 552 604T446 647Q353 647 297 577T220 360Q212 304 212 266Q212 178 248 137T357 96Q451 96 505 163Z" />
<glyph unicode="P" glyph-name="P" horiz-adv-x="706" d="M244 293Q231 293 229 279L192 16Q191 6 187 3T171 0H58Q41 0 45 21L145 728Q146 737 148 739T158 742H441Q557 742 628 693T700 546Q700 466 662 409T556 323T401 293H244ZM549 635T423 635H295Q286 635
282 631T276 618L248 414L247 408Q247 400 257 400H392Q462 400 505 440T549 546Q549 635 423 635Z" />
<glyph unicode="Q" glyph-name="Q" horiz-adv-x="772" d="M83 493T135 578T267 707T448 752Q585 752 662 671T739 446Q739 406 733 362Q704 153 566 55Q555 47 558 41Q564 23 594 5T661 -19Q669 -21 671 -23T673 -32L662 -109Q661 -119 655 -122T631 -125Q578
-125 529 -96T445 -5Q440 1 435 1L427 -1Q394 -10 352 -10Q215 -10 138 69T61 292Q61 333 67 376Q83 493 135 578ZM212 301T212 264Q212 177 247 137T356 96Q450 96 505 163T580 375Q588 434 588 473Q588 561 553 604T445 647Q351 647 296 576T220 360Q212 301
212 264Z" />
<glyph unicode="R" glyph-name="R" horiz-adv-x="713" d="M624 13T624 11Q624 0 608 0H487Q471 0 468 19L393 311Q391 317 389 319T377 321H247Q240 321 237 319T233 309L192 17Q191 6 186 3T167 0H62Q41 0 45 22L145 729Q146 737 148 739T158 742H459Q577 742
641 697T706 568Q706 490 662 429T542 344Q533 340 530 337T529 329L622 21Q624 13 624 11ZM467 423T509 458T552 558Q552 600 524 620T441 641H292Q285 641 283 638T278 626L250 435V432Q250 423 259 423H393Q467 423 509 458Z" />
<glyph unicode="S" glyph-name="S" horiz-adv-x="665" d="M521 613T483 630T392 647Q325 647 283 617T240 536Q240 484 319 455L466 404Q543 377 579 337T615 238Q615 160 574 104T462 19T300 -10Q199 -10 130 24T25 124Q21 131 21 136Q21 144 29 148L94 188Q102
193 108 193Q117 193 127 181Q153 147 175 129T229 101T312 91Q383 91 426 119T470 204Q470 231 451 250T386 286L241 337Q172 360 136 405T100 508Q100 580 140 635T249 721T399 752Q480 752 542 723T642 646Q649 636 649 632Q649 627 643 624L567 573Q566 572
563 572Q559 572 553 578T545 586Q521 613 483 630Z" />
<glyph unicode="T" glyph-name="T" horiz-adv-x="669" d="M102 730Q103 737 106 739T118 742H686Q695 742 697 739T697 729L685 645Q684 638 681 636T670 634H478Q469 634 467 632T462 621L377 15Q376 6 373 3T362 0H244Q234 0 231 4T230 19L315 622V625Q315 634
305 634H103Q95 634 92 636T90 646L102 730Z" />
<glyph unicode="U" glyph-name="U" horiz-adv-x="717" d="M626 117T545 54T325 -10Q191 -10 129 45T67 212Q67 233 73 287L136 728Q137 737 139 739T149 742H268Q275 742 279 736T282 722L217 258Q214 234 214 214Q214 154 245 126T340 98Q416 98 464 139T524
268L589 729Q591 737 593 739T602 742H697Q704 742 708 736T711 722L646 262Q626 117 545 54Z" />
<glyph unicode="V" glyph-name="V" horiz-adv-x="724" d="M757 742T757 733Q757 727 755 724L408 16Q403 6 397 3T380 0H275Q262 0 256 3T248 16L103 725L102 731Q102 742 116 742H237Q244 742 247 738T253 723L357 187Q359 178 361 178Q365 178 368 186L624 730Q627
737 631 739T643 742H745Q757 742 757 733Z" />
<glyph unicode="W" glyph-name="W" horiz-adv-x="1071" d="M1101 742T1101 731Q1101 725 1096 712L793 16Q788 6 783 3T765 0H674Q662 0 656 4T648 17L576 500Q576 506 573 506Q570 506 567 500L358 16Q353 6 348 3T331 0H235Q223 0 217 4T210 18L104 718Q103
721 103 726Q103 742 123 742H228Q239 742 243 738T250 723L321 228Q322 218 325 218Q329 218 332 227L546 730Q549 738 553 740T570 742H662Q672 742 675 738T681 723L754 222Q754 216 758 216Q762 216 765 225L977 730Q980 737 984 739T1000 742H1086Q1101 742
1101 731Z" />
<glyph unicode="X" glyph-name="X" horiz-adv-x="715" d="M643 14T643 9Q643 0 626 0H509Q499 0 494 2T485 13L360 263Q356 273 351 273Q347 273 340 263L144 10Q139 3 134 2T116 0H15Q-1 0 -1 10Q-1 20 11 36L275 365Q285 376 285 385Q285 391 283 395L112 725Q109
730 109 734Q109 742 122 742H245Q256 742 260 739T269 728L380 502Q383 495 388 495Q391 495 397 502L575 732Q580 738 585 740T600 742H711Q721 742 721 733Q721 725 716 718L460 401Q452 392 452 385Q452 379 454 376L635 30Q643 14 643 9Z" />
<glyph unicode="Y" glyph-name="Y" horiz-adv-x="715" d="M748 742T748 732Q748 728 745 723L452 331Q445 323 442 314T437 285L399 18Q398 6 393 3T374 0H266Q256 0 253 4T251 19L290 295Q292 307 292 309Q292 316 287 328L104 724Q101 730 101 735Q101 742 115
742H239Q249 742 253 738T263 723L385 442Q388 434 392 434Q396 434 401 442L605 730Q611 738 615 740T631 742H736Q748 742 748 732Z" />
<glyph unicode="Z" glyph-name="Z" horiz-adv-x="664" d="M12 0T8 4T4 18L9 53Q10 63 13 70T26 88L459 623Q464 629 464 630T457 632H131Q114 632 116 652L127 731Q129 738 131 740T139 742H677Q683 742 686 738T687 727L682 688Q679 675 669 660L226 119Q222
115 223 113T227 111H584Q592 111 594 109T596 99L583 12Q582 5 580 3T568 0H23Q12 0 8 4Z" />
<glyph unicode="[" glyph-name="bracketleft" horiz-adv-x="306" d="M27 -165T21 -159T15 -143L138 731Q139 738 141 740T155 742H344Q350 742 353 738T356 729L349 672Q348 668 346 667T339 666H257Q248 666 242 660T234 643L132 -78V-83Q132 -87 133 -88T138
-89T143 -89H225Q232 -89 236 -94T239 -105L232 -155Q230 -163 229 -164T220 -165H36Q27 -165 21 -159Z" />
<glyph unicode="\" glyph-name="backslash" horiz-adv-x="357" d="M230 -26T224 -21T217 -5L74 722L72 734Q72 739 75 740T85 742H145Q151 742 156 737T162 726L308 -17V-22Q308 -24 306 -25T299 -26H239Q230 -26 224 -21Z" />
<glyph unicode="]" glyph-name="bracketright" horiz-adv-x="306" d="M-37 -165T-40 -161T-43 -152L-35 -95Q-34 -91 -32 -90T-26 -89H56Q65 -89 71 -83T79 -66L181 655Q182 658 182 662Q182 665 180 665T175 666T170 666H88Q81 666 77 671T74 682L81 732Q83 740
84 741T93 742H278Q287 742 293 735T298 720L176 -154Q175 -161 172 -163T159 -165H-31Q-37 -165 -40 -161Z" />
<glyph unicode="^" glyph-name="asciicircum" horiz-adv-x="475" d="M263 385Q262 390 258 390Q251 390 246 378L111 133Q109 129 106 128T100 127T94 128H33Q26 128 23 134T23 149L224 507Q233 523 245 531T271 540Q286 540 297 530T313 501L415 140Q416 137
416 133Q416 129 414 128T406 127H348Q341 127 335 130T328 139L263 385Z" />
<glyph unicode="_" glyph-name="underscore" horiz-adv-x="535" d="M428 -119Q427 -129 423 -131T406 -134L17 -135Q8 -135 3 -129T0 -114L9 -51Q10 -43 12 -41T21 -38H424Q430 -38 434 -43T437 -56L428 -119Z" />
<glyph unicode="`" glyph-name="grave" horiz-adv-x="299" d="M104 756T113 750L333 652Q338 649 341 644T341 632L325 601Q321 593 316 593Q312 593 305 596L84 661Q68 666 68 679L70 687L99 746Q104 756 113 750Z" />
<glyph unicode="a" glyph-name="a" horiz-adv-x="558" d="M267 -10T162 -10Q92 -10 52 25T12 119Q12 188 57 233T172 298T317 322L367 325Q386 327 389 344L392 367Q394 379 394 385Q394 419 373 437T311 456Q228 456 181 388Q177 382 170 382Q165 382 162 383L81
404Q72 406 72 415Q72 423 76 432Q110 486 172 513T319 540Q421 540 470 502T519 397Q519 388 517 368L467 16Q465 5 463 3T450 0H365Q350 0 350 22L352 56Q352 63 348 63Q343 63 334 53Q267 -10 162 -10ZM375 246V253Q375 257 373 258T365 259L318 255Q251 250
196 224T141 139Q141 111 161 95T218 78Q246 78 272 87T318 111Q361 142 365 175L375 246Z" />
<glyph unicode="b" glyph-name="b" horiz-adv-x="606" d="M49 0Q37 0 32 6T29 24L128 729Q129 737 132 739T142 742H248Q259 742 257 722L225 490V485Q225 480 228 480Q229 480 238 487Q312 540 390 540Q479 540 525 483T571 328Q571 244 543 167T454 40T306 -10Q253
-10 216 14T157 72Q153 76 151 76Q144 76 141 64L127 17Q125 7 121 4T106 0H49ZM180 178Q179 173 179 163Q179 123 206 98T275 72Q331 72 368 113T422 215T440 334Q440 455 345 455Q308 455 274 438T212 392L180 178Z" />
<glyph unicode="c" glyph-name="c" horiz-adv-x="548" d="M416 540T467 498T533 391V387Q533 378 521 377L436 367H434Q430 367 428 372T423 384Q405 420 387 436T334 453Q279 453 241 415T183 320T163 208Q163 143 192 110T276 76Q323 76 355 97T421 166Q424
170 426 170T435 168L496 151Q505 150 505 138Q505 132 503 128Q471 73 410 32T264 -10Q195 -10 143 19T62 100T33 222Q33 304 70 377T175 495T331 540Q416 540 467 498Z" />
<glyph unicode="d" glyph-name="d" horiz-adv-x="606" d="M399 0Q378 0 381 17L387 50V54Q387 59 384 59Q381 59 373 53Q340 26 304 8T218 -10Q133 -10 83 44T33 202Q33 288 65 366T158 492T297 540Q339 540 369 525T423 482Q430 475 434 475Q443 475 446 499L479
728Q480 742 496 742H597Q610 742 607 721L507 17Q506 7 502 4T485 0H399ZM434 402Q413 429 389 441T335 454Q278 454 240 414T183 315T164 198Q164 135 192 105T268 74Q300 74 329 89T377 129T400 177L434 402Z" />
<glyph unicode="e" glyph-name="e" horiz-adv-x="584" d="M198 -10T145 18T63 99T33 219Q33 302 71 375T178 494T333 540Q435 540 495 480T555 312Q555 283 551 256Q549 247 545 244T529 240H178Q169 240 166 229T162 196Q162 142 196 112T285 81Q328 81 364 98T432
153Q437 158 442 158Q445 158 453 154L510 126Q520 123 520 115Q520 111 515 104Q461 41 404 16T268 -10Q198 -10 145 18ZM412 311Q436 311 436 352Q436 397 409 427T333 458Q294 458 261 438T206 384T179 311H412Z" />
<glyph unicode="f" glyph-name="f" horiz-adv-x="394" d="M411 530T408 517L399 451Q398 444 395 442T385 439H288Q279 439 278 425L220 13Q219 4 216 2T206 0H104Q98 0 94 6T90 19L148 432Q150 439 142 439H58Q46 439 48 456L57 519Q59 525 61 527T72 530H148Q155
530 159 535T165 547L174 612Q183 676 222 709T328 742H423Q432 742 437 738T442 725L434 664Q433 658 430 656T420 654H362Q336 654 319 637T298 592L290 540V538Q290 530 300 530H396Q411 530 408 517Z" />
<glyph unicode="g" glyph-name="g" horiz-adv-x="622" d="M101 -174T35 -142T-32 -53Q-32 -15 -4 13T73 59Q85 64 85 68Q85 72 78 75Q57 85 47 99T36 135Q36 167 65 190T135 227Q147 232 147 237Q147 240 141 243Q105 259 86 287T67 353Q67 414 101 455T191 517T312
538Q427 538 480 489Q483 486 487 486Q495 486 509 500Q529 520 560 534T614 548Q626 548 631 544T635 530L627 474Q626 461 622 457T608 453Q573 453 553 448Q537 444 531 438T528 423Q535 402 535 384Q535 325 498 286T404 228T284 209Q246 209 202 200T157 167Q157
156 171 151T222 144L359 136Q531 127 531 3Q531 -92 439 -133T219 -174Q101 -174 35 -142ZM343 277T380 307T418 393Q418 429 391 449T314 469Q259 469 221 437T183 350Q183 316 210 297T287 277Q343 277 380 307ZM310 -108T361 -86T412 -16Q412 8 395 20T336
34L180 43Q139 35 109 15T79 -39Q79 -108 225 -108Q310 -108 361 -86Z" />
<glyph unicode="h" glyph-name="h" horiz-adv-x="592" d="M48 0Q38 0 33 6T29 22L129 729Q130 736 133 739T145 742H244Q258 742 255 726L220 477V472Q220 468 221 468T227 469Q284 508 325 524T410 540Q479 540 516 505T554 410Q554 396 551 379L500 17Q499 7
495 4T480 0H387Q378 0 374 6T370 22L419 366Q421 380 421 385Q421 444 352 444Q316 444 285 427T210 372L159 16Q157 6 153 3T137 0H48Z" />
<glyph unicode="i" glyph-name="i" horiz-adv-x="256" d="M246 624Q244 613 239 609T221 605H125Q108 605 112 629L126 724Q128 742 143 742H249Q255 742 258 736T259 721L246 624ZM158 18Q157 6 153 3T135 0H48Q37 0 32 6T29 22L98 517Q99 525 102 527T112 530H217Q223
530 226 525T228 511L158 18Z" />
<glyph unicode="j" glyph-name="j" horiz-adv-x="256" d="M246 624Q244 613 239 609T221 605H125Q108 605 112 629L126 724Q128 742 143 742H249Q255 742 258 736T259 721L246 624ZM143 -94T100 -132T-30 -170Q-73 -170 -87 -166T-99 -148L-90 -82Q-88 -70 -77
-67L-31 -63Q-7 -61 7 -46T27 4L99 517Q100 525 103 527T113 530H214Q221 530 225 524T228 511L155 -10Q143 -94 100 -132Z" />
<glyph unicode="k" glyph-name="k" d="M532 12T532 9Q532 0 519 0H410Q401 0 397 5T388 21L299 243Q296 250 293 250Q290 250 283 245L189 160Q177 150 175 136L159 18Q157 6 153 3T136 0H49Q27 0 29 22L129 729Q130 737 132 739T142 742H248Q261 742 257 722L198
293L197 289Q197 287 206 296L447 519Q459 530 472 530H563Q571 530 576 526T581 517Q581 510 574 504L406 356Q399 350 397 345T397 331L530 18Q532 12 532 9Z" />
<glyph unicode="l" glyph-name="l" horiz-adv-x="257" d="M159 18Q157 6 153 3T135 0H48Q37 0 32 6T28 22L131 729Q132 737 134 739T144 742H248Q261 742 258 725L159 18Z" />
<glyph unicode="m" glyph-name="m" horiz-adv-x="914" d="M37 0T32 6T29 22L98 517Q100 525 102 527T111 530H216Q223 530 224 527T225 515L218 470V468Q218 460 226 465Q280 503 321 522T405 541Q458 541 491 516T534 450Q536 446 538 446Q542 446 553 457Q656
540 738 540Q803 540 839 505T875 408Q875 389 873 378L823 17Q821 7 817 4T802 0H710Q701 0 697 6T693 22L741 361Q743 370 743 385Q743 444 679 444Q619 444 556 385Q547 376 543 370T538 355L490 17Q489 7 485 4T470 0H378Q370 0 365 6T361 22L410 366Q411 373
411 385Q411 444 347 444Q312 444 282 427T209 372L158 16Q157 6 153 3T136 0H47Q37 0 32 6Z" />
<glyph unicode="n" glyph-name="n" horiz-adv-x="592" d="M26 0T29 22L98 517Q100 525 102 527T111 530H217Q223 530 225 528T226 518L218 465V462Q218 458 220 458Q221 458 228 463Q321 540 409 540Q477 540 515 504T553 408Q553 399 551 381L500 17Q499 7 495
4T479 0H383Q367 0 370 22L419 363L421 384Q421 444 352 444Q316 444 285 427T209 372L158 16Q157 6 152 3T135 0H42Q26 0 29 22Z" />
<glyph unicode="o" glyph-name="o" horiz-adv-x="599" d="M195 -10T143 19T62 100T33 221Q33 312 74 385T184 499T334 540Q404 540 456 511T537 428T565 305Q565 216 526 144T418 31T265 -10Q195 -10 143 19ZM316 79T354 108T414 195T436 329Q436 389 409 421T332
454Q285 454 247 424T186 336T163 202Q163 143 190 111T269 79Q316 79 354 108Z" />
<glyph unicode="p" glyph-name="p" horiz-adv-x="605" d="M8 -165T6 -160T6 -145L98 514Q100 524 103 527T118 530H208Q219 530 223 527T226 514L221 480V479Q221 475 224 475Q230 475 237 481Q265 501 281 511T326 531T390 540Q472 540 521 487T571 330Q571 248
544 170T458 41T314 -10Q272 -10 239 5T181 47Q176 52 172 52Q162 52 160 31L134 -153Q133 -161 131 -163T122 -165H15Q8 -165 6 -160ZM327 75T365 116T422 217T441 335Q441 397 413 426T338 455Q305 455 276 441T228 404T206 360L172 127Q192 101 215 88T270 75Q327
75 365 116Z" />
<glyph unicode="q" glyph-name="q" horiz-adv-x="606" d="M352 -165T355 -145L380 29L381 37Q381 41 379 41Q376 41 368 35Q296 -10 225 -10Q134 -10 84 47T34 208Q34 288 62 364T150 491T298 541Q405 541 452 460Q455 456 458 456Q463 456 469 470L487 514Q491
524 495 527T509 530H564Q578 530 578 516Q578 510 577 506L485 -152Q484 -160 479 -162T466 -165H365Q352 -165 355 -145ZM301 74T333 88T392 129L426 352Q427 357 427 368Q427 408 401 433T333 459Q277 459 239 419T183 319T165 202Q165 139 192 107T267 74Q301
74 333 88Z" />
<glyph unicode="r" glyph-name="r" horiz-adv-x="411" d="M37 0T32 6T29 22L98 517Q100 525 102 527T111 530H210Q226 530 223 511L215 462V458Q215 452 218 452Q222 452 227 458Q265 497 307 518T385 540Q406 540 415 537T424 526L411 432Q410 423 408 421T401
419Q357 423 341 423Q313 423 282 408T227 370T201 322L158 16Q157 6 153 3T136 0H47Q37 0 32 6Z" />
<glyph unicode="s" glyph-name="s" horiz-adv-x="524" d="M142 -10T84 22T4 105Q1 111 1 115Q1 122 9 125L66 153Q72 156 77 156Q85 156 92 146Q129 75 228 75Q272 75 314 92T356 149Q356 186 285 205L186 231Q120 248 89 279T58 357Q58 414 91 455T178 518T296
540Q367 540 417 513T494 440Q496 436 496 432Q496 425 489 421L433 395Q427 393 426 393Q419 393 409 405Q393 429 364 443T293 458Q249 458 214 440T178 388Q178 371 189 359T233 338L347 308Q411 291 442 256T474 171Q474 112 439 71T348 10T231 -10Q142 -10
84 22Z" />
<glyph unicode="t" glyph-name="t" horiz-adv-x="417" d="M163 0T130 26T96 103Q96 111 98 131L140 428V430Q140 439 127 439H58Q47 439 48 458L57 521Q58 527 60 528T71 530H145Q150 530 154 534T159 544L194 698Q197 710 211 710H300Q307 710 309 706T310 689L288
541V539Q288 531 297 531H407Q425 531 422 518L413 450Q412 443 409 441T397 439H284Q272 439 269 425L232 157Q230 149 230 136Q230 111 243 102T287 92H345Q352 92 356 87T359 74L351 22Q348 7 335 4Q295 0 225 0Q163 0 130 26Z" />
<glyph unicode="u" glyph-name="u" horiz-adv-x="588" d="M116 -10T78 26T39 124Q39 134 41 152L91 513Q93 524 97 527T112 530H204Q213 530 217 524T221 508L173 168Q171 154 171 149Q171 85 237 85Q301 85 378 157L430 514Q432 524 436 527T452 530H542Q552
530 557 524T560 508L488 13Q487 5 485 3T475 0H377Q361 0 364 13L372 64V66Q372 71 369 71Q366 71 359 66Q309 25 267 8T179 -10Q116 -10 78 26Z" />
<glyph unicode="v" glyph-name="v" horiz-adv-x="564" d="M571 530T575 523T576 507L306 16Q301 6 295 3T278 0H219Q207 0 200 6T191 22L59 513L58 518Q58 530 73 530H177Q184 530 189 525T196 512L280 183Q282 177 284 177Q290 177 296 191L470 519Q477 530 489
530H562Q571 530 575 523Z" />
<glyph unicode="w" glyph-name="w" horiz-adv-x="811" d="M815 530T819 523T820 507L590 12Q586 4 583 2T570 0H500Q490 0 484 5T477 20L422 329Q421 336 418 336Q414 336 409 322L268 12Q265 4 262 2T248 0H175Q165 0 160 5T153 20L61 513L60 518Q60 530 74 530H172Q179
530 184 525T190 512L246 193Q247 186 250 186Q255 186 260 200L404 519Q408 530 422 530H493Q500 530 505 525T511 512L567 193Q567 186 570 186Q575 186 580 200L722 519Q729 530 742 530H806Q815 530 819 523Z" />
<glyph unicode="x" glyph-name="x" horiz-adv-x="575" d="M517 11T517 6Q517 2 514 1T501 0H395Q376 0 367 17L274 177Q270 186 265 186Q262 186 259 182T250 173L108 10Q100 0 74 0H-2Q-17 0 -17 10Q-17 19 -1 38L200 256Q211 267 211 274Q211 278 208 284L73
510Q70 516 70 520Q70 530 84 530H187Q198 530 204 526T213 513L300 364Q301 360 305 360Q309 360 317 371L441 520Q447 527 452 528T470 530H552Q565 530 565 521Q565 513 559 507L372 297Q362 287 362 279Q362 274 365 269L508 26Q517 11 517 6Z" />
<glyph unicode="y" glyph-name="y" horiz-adv-x="554" d="M8 -165T-3 -162T-13 -147L-5 -83Q-3 -69 30 -69H94Q117 -69 137 -56T170 -22T182 18Q182 26 181 30L55 505Q54 509 54 516Q54 530 68 530H182Q195 530 198 519L276 189Q279 178 284 178Q290 178 296 191L462
512Q470 530 485 530H558Q568 530 568 524Q568 521 564 513L279 -13Q246 -74 213 -107T139 -152T39 -165Q8 -165 -3 -162Z" />
<glyph unicode="z" glyph-name="z" horiz-adv-x="506" d="M-4 0T-7 3T-8 17L-4 49Q-3 60 1 66T18 87L328 430Q332 434 332 439Q332 446 319 446H86Q78 446 76 450T75 464L83 517Q86 530 101 530H499Q511 530 509 518L503 480Q502 472 498 465T484 448L172 102Q168
96 168 93Q168 85 179 85H438Q452 85 449 71L442 15Q440 7 437 4T425 0H6Q-4 0 -7 3Z" />
<glyph unicode="{" glyph-name="braceleft" horiz-adv-x="345" d="M151 -165T112 -137T72 -60Q72 -50 73 -44L103 169Q104 174 104 183Q104 216 82 236T13 257Q8 257 4 262T1 275L7 317Q9 327 12 327Q69 327 100 353T139 426L168 630Q175 684 221 713T329 742H383Q389
742 392 738T395 729L388 672Q387 668 385 667T378 666H348Q309 666 293 651T273 609L244 400Q235 349 203 324T129 294Q121 293 117 291T117 287Q157 284 184 262T212 193Q212 179 211 172L182 -39Q181 -45 181 -54Q181 -74 193 -81T237 -89H265Q271 -89 275 -94T279
-105L271 -155Q270 -162 269 -163T259 -165H209Q151 -165 112 -137Z" />
<glyph unicode="|" glyph-name="bar" horiz-adv-x="255" d="M41 -165Q31 -165 26 -158T22 -140L159 833Q160 842 163 844T175 847H238Q246 847 251 842T254 828L117 -155Q116 -161 114 -163T104 -165H41Z" />
<glyph unicode="}" glyph-name="braceright" horiz-adv-x="345" d="M-37 -165T-40 -161T-43 -152L-35 -95Q-34 -91 -32 -90T-26 -89H4Q43 -89 59 -74T79 -32L108 177Q117 228 149 253T223 283Q231 284 235 286T235 290Q195 293 168 315T140 386Q140 398 141 405L170
616Q171 622 171 631Q171 651 159 658T115 666H88Q81 666 77 671T74 682L81 732Q83 740 84 741T93 742H143Q201 742 240 714T280 638Q280 627 279 621L250 408Q249 403 249 393Q249 360 271 340T338 320Q344 320 347 315T350 302L344 261Q343 255 342 253T339 250Q283
250 252 224T214 151L185 -53Q177 -107 131 -136T23 -165H-31Q-37 -165 -40 -161Z" />
<glyph unicode="~" glyph-name="asciitilde" horiz-adv-x="595" d="M524 335T487 319T409 302Q379 302 357 310T305 335Q280 349 264 355T226 362Q191 362 164 345T108 298Q107 297 104 297Q96 297 93 309L72 355Q70 361 70 363Q70 369 76 378Q121 412 154 428T227
445Q257 445 278 437T331 413Q356 399 372 393T409 386Q470 386 514 444Q517 446 521 446Q530 446 535 432L552 392Q554 389 554 383Q554 374 550 366Q524 335 487 319Z" />
<glyph unicode="&#xa0;" glyph-name="uni00A0" horiz-adv-x="209" />
<glyph unicode="&#xa1;" glyph-name="exclamdown" horiz-adv-x="257" d="M219 389T217 387T208 385H90Q84 385 80 390T76 405L92 515Q93 525 96 527T110 530H212Q238 530 235 505L220 396Q219 389 217 387ZM145 -161T143 -163T135 -165H10Q4 -165 0 -159T-3 -145L92
302Q94 311 97 313T110 316H154Q166 316 172 310T176 293L145 -154Q145 -161 143 -163Z" />
<glyph unicode="&#xa2;" glyph-name="cent" horiz-adv-x="558" d="M511 498Q511 489 499 488L414 478H412Q408 478 406 483T401 495Q383 531 365 547T312 564Q257 564 219 526T161 431T141 319Q141 254 170 221T254 187Q301 187 333 208T399 277Q402 281 404 281T413
279L474 262Q483 261 483 249Q483 243 481 239Q457 199 416 164T320 112L306 18Q305 7 301 4T284 0H239Q228 0 223 7T219 24L230 101Q130 106 71 169T11 333Q11 415 48 488T152 606T307 651L318 726Q320 736 323 739T338 742H387Q397 742 401 736T405 720L394 637Q442
619 471 583T511 502V498Z" />
<glyph unicode="&#xa3;" glyph-name="sterling" horiz-adv-x="635" d="M-16 0T-20 6T-23 19L-11 101Q-10 107 -9 108T-1 109H24Q65 108 95 139T134 234Q138 265 141 348Q139 350 137 350T133 350H47Q43 350 40 354T37 364L44 419Q44 422 45 423T48 424T51 424H121Q126
424 131 428T136 438L135 518Q134 590 169 643T262 724T387 752Q460 752 520 716T595 617Q598 614 598 613Q598 611 590 608L499 581Q498 580 495 580Q490 580 487 584T482 594Q471 619 453 633T401 647Q357 647 324 619T284 543Q282 529 282 496Q282 471 284 427Q285
425 293 425H430Q435 425 438 421T441 412L433 356Q433 352 432 351T429 350T426 350H302Q295 350 291 346T286 334Q283 280 272 231Q255 164 210 116Q209 115 205 113T202 111T207 110H344Q391 110 422 128T473 187Q478 190 481 190L491 188L568 170Q575 168 579
162T580 146Q548 75 487 38T343 0H-9Q-16 0 -20 6Z" />
<glyph unicode="&#xa4;" glyph-name="currency" horiz-adv-x="562" d="M240 160T213 169T165 196H163Q152 196 146 188L89 139Q86 136 83 136Q78 136 71 145L38 183Q29 194 36 201L93 251Q101 259 100 272Q81 312 81 348Q81 364 84 380Q91 436 128 489Q132 492
133 495T133 501L90 550Q86 558 86 561Q86 566 89 569L133 607Q136 610 140 610Q145 610 150 603L194 553Q195 552 197 552Q200 552 207 559Q266 585 319 585Q351 585 379 576T428 549Q436 549 444 557L501 607Q502 608 504 608Q508 608 511 601L551 555Q557 548
553 543L494 493Q488 487 489 479Q509 441 509 395Q509 360 497 324T461 254Q458 254 457 252T457 248L500 198Q507 190 503 185L452 140Q451 139 449 139Q445 139 441 146L398 196L396 197Q392 197 387 189Q327 160 272 160Q240 160 213 169ZM313 249T347 270T401
325T422 396Q422 438 393 467T319 497Q280 497 246 476T192 421T171 350Q171 308 200 279T274 249Q313 249 347 270Z" />
<glyph unicode="&#xa5;" glyph-name="yen" horiz-adv-x="641" d="M703 742T707 738T712 729Q712 726 709 721L433 353H551Q557 353 561 348T564 336L559 295Q558 285 554 283T536 280H403L391 196H528Q534 196 538 191T542 179L536 138Q535 128 531 126T514 123H380L365
18Q364 6 359 3T341 0H238Q227 0 222 6T218 23L232 123H99Q89 123 84 129T80 144L86 184Q88 192 90 194T98 196H243L254 279H121Q111 279 106 285T103 300L108 341Q110 349 112 351T120 353H242L71 724Q68 730 68 734Q68 742 83 742H207Q218 742 223 738T231 723L353
442Q356 435 359 435Q362 435 365 440T370 447L572 730Q578 739 582 740T599 742H696Q703 742 707 738Z" />
<glyph unicode="&#xa6;" glyph-name="brokenbar" horiz-adv-x="255" d="M124 432Q114 432 110 438T107 456L159 833Q160 842 163 844T175 847H238Q246 847 251 842T254 828L200 442Q199 436 197 434T187 432H124ZM41 -165Q31 -165 26 -158T22 -140L75 236Q76 245
79 247T91 250H154Q162 250 167 245T171 231L117 -155Q116 -161 114 -163T104 -165H41Z" />
<glyph unicode="&#xa7;" glyph-name="section" horiz-adv-x="500" d="M446 163T446 98Q446 47 418 7T337 -55T213 -78Q133 -78 77 -47T4 32Q-2 39 -2 42T0 48L67 78L72 80Q76 80 79 76T85 66Q129 5 212 5Q262 5 295 25T328 82Q328 100 311 115T253 148L175 179Q108
206 77 239T46 320Q46 373 76 412T160 475Q122 498 105 525T88 584Q88 631 115 669T192 729T307 752Q377 752 427 723T496 651Q501 644 501 641T498 635L433 605Q431 604 428 604Q418 604 414 617Q369 670 311 670Q265 670 236 650T206 597Q206 583 219 570T264
544L339 513Q411 483 444 448T477 364Q477 309 450 273T372 209Q446 163 446 98ZM310 254T336 276T366 329Q367 334 367 344Q367 363 353 379T299 411L252 429Q212 425 184 398T155 338Q155 321 169 309T226 277L278 256Q310 254 336 276Z" />
<glyph unicode="&#xa8;" glyph-name="dieresis" horiz-adv-x="322" d="M180 634Q179 624 175 622T159 619H80Q60 619 63 639L75 730Q76 738 78 740T87 742H179Q186 742 190 737T193 724L180 634ZM363 634Q362 624 358 622T342 619H263Q244 619 246 639L259 730Q260
738 262 740T271 742H363Q370 742 374 737T376 724L363 634Z" />
<glyph unicode="&#xa9;" glyph-name="copyright" horiz-adv-x="830" d="M285 -10T209 33T89 153T46 323Q46 353 50 378Q64 480 126 566T282 702T478 752Q573 752 650 708T770 588T814 418Q814 388 810 364Q795 261 733 176T577 40T381 -10Q285 -10 209 33ZM468
66T542 105T666 214T729 378Q733 412 733 428Q733 503 701 559T611 646T478 677Q391 677 317 638T193 527T131 364Q127 340 127 311Q127 236 158 181T248 96T382 66Q468 66 542 105ZM524 587T563 552T616 466Q618 462 617 461T611 458L538 448H537Q533 448 531
452T528 464Q518 488 503 501T462 515Q415 515 381 476T337 367Q334 348 334 330Q334 282 356 257T416 231Q451 231 478 250T528 306H529Q531 306 533 305T540 301L587 288Q596 286 593 269Q566 225 520 193T408 160Q327 160 278 210T229 341Q229 360 232 379Q241
440 273 487T353 561T458 587Q524 587 563 552Z" />
<glyph unicode="&#xaa;" glyph-name="ordfeminine" horiz-adv-x="393" d="M383 750T383 658Q383 646 382 639L358 470Q356 460 356 443Q356 429 357 419Q358 418 358 416Q358 414 355 414T348 413T341 413H289Q282 413 279 417T275 428V447Q275 449 273 449Q271
449 263 439Q234 422 212 415T165 407Q116 407 90 429T63 492Q63 601 248 614L282 617Q288 618 293 622T299 631L301 644Q304 670 292 682T252 694Q227 694 208 684T172 649L170 648Q169 648 167 649T160 651L105 666Q103 667 102 673T102 685Q125 719 160 735T252
751Q383 750 383 658ZM146 481T158 472T194 462Q211 462 227 469T256 488Q280 502 283 521L289 562V566Q289 568 288 568T285 569T281 568L251 566Q209 563 181 545T148 498Q146 481 158 472Z" />
<glyph unicode="&#xab;" glyph-name="guillemotleft" horiz-adv-x="473" d="M204 74L205 70Q205 68 201 68T195 68H148Q144 68 140 71T136 79L47 245Q43 252 43 261Q43 270 47 275L186 451Q190 456 193 456T198 455H246Q252 455 256 450T257 439L150 264Q143 252
145 244L204 74ZM394 74L395 70Q395 68 391 68T385 68H338Q334 68 330 71T326 79L237 245Q233 255 233 262Q233 270 237 275L376 451Q380 456 383 456T388 455H436Q442 455 446 450T447 439L340 264Q333 252 335 244L394 74Z" />
<glyph unicode="&#xac;" glyph-name="logicalnot" horiz-adv-x="574" d="M534 421T538 416T542 404L537 373V371L511 187Q510 178 507 176T492 173H423Q414 173 409 178T406 192L424 325H82Q62 325 64 346L74 409Q75 416 77 418T85 421H528Q534 421 538 416Z" />
<glyph unicode="&#xad;" glyph-name="uni00AD" horiz-adv-x="380" d="M541 232Q540 222 536 219T519 216H287Q277 216 272 222T268 237L278 300Q279 307 281 309T290 312H537Q543 312 547 307T550 295L541 232Z" />
<glyph unicode="&#xae;" glyph-name="registered" horiz-adv-x="545" d="M396 752T444 724T519 648T547 540Q547 518 545 506Q536 443 497 390T401 306T279 275Q219 275 171 302T95 378T68 485Q68 508 70 520Q79 584 117 637T214 721T336 752Q396 752 444 724ZM489
531T489 552Q489 619 449 658T339 697Q256 697 198 645T128 506Q125 488 125 472Q125 406 165 368T276 330Q358 330 416 382T487 520Q489 531 489 552ZM374 630T395 614T417 570Q417 525 368 503Q365 504 363 503T361 499L388 398Q388 397 388 396T386 394H340Q338
394 336 396T334 402L313 498Q312 499 311 499T306 499H271Q267 499 263 491L250 397Q250 394 249 394T245 394H205Q202 394 200 397T198 403L229 628V630H231H336Q374 630 395 614ZM362 591T329 591H286Q277 591 276 583L270 539Q270 538 270 538T269 537H271H319Q336
537 349 547T362 575Q362 591 329 591Z" />
<glyph unicode="&#xaf;" glyph-name="overscore" horiz-adv-x="361" d="M407 661Q406 652 402 650T387 647H82Q73 647 69 653T67 667L74 723Q75 730 77 731T84 733H403Q408 733 412 728T415 717L407 661Z" />
<glyph unicode="&#xb0;" glyph-name="degree" horiz-adv-x="464" d="M461 656T436 613T367 546T273 521Q206 521 165 562T123 668Q123 722 147 765T215 832T310 857Q377 857 419 816T461 709Q461 656 436 613ZM380 701T380 711Q380 742 361 760T308 779Q263 779
232 747T200 667Q200 635 219 616T272 597Q314 597 343 624T379 696Q380 701 380 711Z" />
<glyph unicode="&#xb1;" glyph-name="plusminus" horiz-adv-x="574" d="M546 505T550 500T554 488L545 425Q544 415 539 412T522 409H356L331 232Q330 226 328 225T319 223H256Q246 223 241 230T238 250L260 409H94Q74 409 76 430L85 493Q86 500 88 502T98 505H274L298
678Q299 688 302 690T314 692H377Q384 692 389 687T393 675L369 505H541Q546 505 550 500ZM495 141T499 136T502 123L494 61Q493 51 488 48T471 45H43Q23 45 25 66L34 129Q35 136 37 138T46 141H489Q495 141 499 136Z" />
<glyph unicode="&#xb2;" glyph-name="uni00B2" horiz-adv-x="452" d="M175 585Q240 636 267 667T294 731Q294 758 276 773T228 788Q199 788 171 771T119 721Q116 716 111 719L54 753Q51 755 51 757Q51 761 57 768Q90 811 137 834T236 857Q303 857 343 826T384
737Q384 688 357 651T269 568L140 469Q136 466 136 464T140 461H340Q351 461 349 452L341 392Q339 384 331 384H15Q0 384 2 398L8 439Q9 446 13 451T36 470L175 585Z" />
<glyph unicode="&#xb3;" glyph-name="uni00B3" horiz-adv-x="467" d="M81 788T81 789Q81 793 85 797Q118 825 160 841T248 857Q321 857 362 827T404 748Q404 709 377 677T309 632Q305 631 305 629T309 626Q345 617 366 591T388 529Q388 458 333 418T183 378Q123
378 83 399T20 456Q15 464 19 466L68 498Q73 503 77 498Q99 470 126 457T188 444Q235 444 266 467T297 529Q297 559 273 575T211 593H152Q145 593 146 600L153 654Q153 659 161 659L206 660Q249 660 281 683T313 741Q313 763 295 777T244 792Q212 792 189 781T131
744Q123 739 119 745L83 784Q81 788 81 789Z" />
<glyph unicode="&#xb4;" glyph-name="acute" horiz-adv-x="299" d="M345 680Q346 677 346 672Q346 667 343 665T332 660L93 594Q91 593 87 593Q75 593 72 608L65 638Q64 641 64 646Q64 653 69 654L317 752L320 753Q324 753 327 749T332 740L345 680Z" />
<glyph unicode="&#xb6;" glyph-name="paragraph" horiz-adv-x="589" d="M537 667Q533 667 528 663T523 653L420 -77Q420 -78 420 -80T417 -84T412 -85H354Q347 -85 343 -80T340 -69L443 662Q443 666 442 666T436 667H399Q395 667 391 663T385 653L282 -77Q282
-82 281 -83T273 -85H214Q208 -85 205 -81T202 -69L254 304Q254 307 252 309Q170 313 120 362T70 491Q70 509 73 527Q82 586 115 635T206 713T338 742H586Q591 742 594 738T596 729L589 672Q588 667 587 667T581 667H537Z" />
<glyph unicode="&#xb7;" glyph-name="middot" horiz-adv-x="232" d="M193 322Q192 311 188 309T172 306H71Q61 306 56 311T53 326L68 430Q69 438 71 439T79 441H195Q201 441 204 436T207 424L193 322Z" />
<glyph unicode="&#xb8;" glyph-name="cedilla" horiz-adv-x="247" d="M139 -57T160 -78T181 -128Q181 -170 145 -193T56 -216Q-6 -216 -44 -189Q-49 -188 -51 -185T-53 -178L-34 -146Q-32 -142 -30 -146T-28 -151Q4 -167 37 -167Q64 -167 81 -156T101 -126Q103
-107 87 -99T26 -90Q18 -90 15 -87T13 -78L63 5H124L96 -52Q94 -55 93 -55H94Q139 -57 160 -78Z" />
<glyph unicode="&#xb9;" glyph-name="uni00B9" horiz-adv-x="367" d="M260 450T258 441L250 388Q249 383 247 382T240 380H-1Q-7 380 -8 382T-9 389L-2 444Q-1 448 0 449T7 450H79Q85 450 86 457L127 749Q127 752 126 752T121 752L50 730L46 729Q42 729 40 732T39
739L45 778Q46 784 47 786T54 791L161 841Q174 847 186 847H225Q233 847 232 837L178 454Q177 450 183 450H250Q260 450 258 441Z" />
<glyph unicode="&#xba;" glyph-name="ordmasculine" horiz-adv-x="403" d="M333 752T372 711T412 602Q412 593 410 571Q399 498 350 453T227 408Q158 408 119 448T79 555Q79 565 81 585Q91 660 142 706T264 752Q333 752 372 711ZM227 692T202 661T169 574Q166
555 166 537Q166 467 224 467Q264 467 289 498T324 588Q326 610 326 619Q326 692 266 692Q227 692 202 661Z" />
<glyph unicode="&#xbb;" glyph-name="guillemotright" horiz-adv-x="472" d="M137 263T135 270L77 446L76 451Q76 455 84 455H132Q139 455 144 445L234 268Q237 262 237 254Q237 246 232 238L95 72Q94 69 91 69T84 68H38Q30 68 26 72T23 81L130 250Q137 263 135
270ZM327 263T325 270L267 446L266 451Q266 455 274 455H322Q330 455 335 445L424 268Q428 260 428 254Q428 247 422 238L286 72Q283 68 274 68H228Q220 68 216 72T214 81L320 250Q327 263 325 270Z" />
<glyph unicode="&#xbc;" glyph-name="onequarter" horiz-adv-x="924" d="M249 346T247 337L239 284Q238 279 236 278T229 276H-12Q-18 276 -19 278T-20 285L-13 340Q-12 344 -11 345T-4 346H68Q74 346 75 353L116 645Q116 648 115 648T110 648L39 626L35 625Q31
625 29 628T28 635L34 674Q35 680 36 682T43 687L150 737Q163 743 175 743H214Q222 743 221 733L167 350Q166 346 172 346H239Q249 346 247 337ZM180 3Q176 -2 173 -3T164 -4T157 -4L121 -3Q114 -3 110 1T106 12Q106 20 110 25L690 744Q694 749 697 750T704 751T711
750H756Q764 750 768 745T767 732L180 3ZM701 464T704 465T716 467H785Q794 467 793 457L754 184Q754 180 759 180H815Q824 180 824 172L817 123Q815 118 814 117T806 115H751Q744 115 743 108L730 10Q729 4 727 2T716 0H647Q635 0 636 11L650 111Q651 115 646
115H449Q443 115 441 117T439 125L446 174Q447 183 463 201L695 458Q701 464 704 465ZM653 180Q657 180 658 181T661 187L686 362Q686 367 685 367Q683 367 678 360L525 187Q518 180 526 180H653Z" />
<glyph unicode="&#xbd;" glyph-name="onehalf" horiz-adv-x="978" d="M249 346T247 337L239 284Q238 279 236 278T229 276H-12Q-18 276 -19 278T-20 285L-13 340Q-12 344 -11 345T-4 346H68Q74 346 75 353L116 645Q116 648 115 648T110 648L39 626L35 625Q31 625
29 628T28 635L34 674Q35 680 36 682T43 687L150 737Q163 743 175 743H214Q222 743 221 733L167 350Q166 346 172 346H239Q249 346 247 337ZM206 3Q202 -2 199 -3T190 -4T183 -4L147 -3Q140 -3 136 1T132 12Q132 20 136 25L716 744Q720 749 723 750T730 751T737
750H782Q790 750 794 745T793 732L206 3ZM668 201Q733 252 760 283T787 347Q787 374 769 389T721 404Q692 404 664 387T612 337Q609 332 604 335L547 369Q544 371 544 373Q544 377 550 384Q583 427 630 450T729 473Q796 473 836 442T877 353Q877 304 850 267T762
184L633 85Q629 82 629 80T633 77H833Q844 77 842 68L834 8Q832 0 824 0H508Q493 0 495 14L501 55Q502 62 506 67T529 86L668 201Z" />
<glyph unicode="&#xbe;" glyph-name="threequarters" horiz-adv-x="984" d="M69 683T69 684Q69 688 73 692Q106 720 148 736T236 752Q309 752 350 722T392 643Q392 604 365 572T297 527Q293 526 293 524T297 521Q333 512 354 486T376 424Q376 353 321 313T171
273Q111 273 71 294T8 351Q3 359 7 361L56 393Q61 398 65 393Q87 365 114 352T176 339Q223 339 254 362T285 424Q285 454 261 470T199 488H140Q133 488 134 495L141 549Q141 554 149 554L194 555Q237 555 269 578T301 636Q301 658 283 672T232 687Q200 687 177
676T119 639Q111 634 107 640L71 679Q69 683 69 684ZM280 3Q276 -2 273 -3T264 -4T257 -4L221 -3Q214 -3 210 1T206 12Q206 20 210 25L790 744Q794 749 797 750T804 751T811 750H856Q864 750 868 745T867 732L280 3ZM756 464T759 465T771 467H840Q849 467 848 457L809
184Q809 180 814 180H870Q879 180 879 172L872 123Q870 118 869 117T861 115H806Q799 115 798 108L785 10Q784 4 782 2T771 0H702Q690 0 691 11L705 111Q706 115 701 115H504Q498 115 496 117T494 125L501 174Q502 183 518 201L750 458Q756 464 759 465ZM708 180Q712
180 713 181T716 187L741 362Q741 367 740 367Q738 367 733 360L580 187Q573 180 581 180H708Z" />
<glyph unicode="&#xbf;" glyph-name="questiondown" horiz-adv-x="527" d="M241 513Q242 524 247 527T265 530H367Q377 530 382 524T386 508L370 397Q369 389 367 387T357 385H239Q233 385 229 390T225 403L241 513ZM468 -12T470 -16T473 -26Q473 -30 471 -36Q429
-103 361 -139T206 -175Q101 -175 44 -131T-13 -16Q-13 -8 -11 8Q-6 44 12 71T53 118T113 163Q167 200 195 231T231 309Q233 319 247 319H318Q327 319 332 311T335 291Q326 231 295 193T209 114Q167 82 145 58T118 1Q117 -3 117 -11Q117 -43 142 -62T210 -81Q255
-81 299 -55T364 10Q368 14 371 14Q375 14 382 11L464 -11Q468 -12 470 -16Z" />
<glyph unicode="&#xc0;" glyph-name="Agrave" horiz-adv-x="756" d="M-2 0T-2 9Q-2 16 4 28L356 728Q360 737 366 739T384 742H510Q527 742 531 719L683 20L684 14Q684 0 671 0H550Q537 0 534 16L499 177Q498 182 496 183T488 185H229Q223 185 220 183T214 174L130
8Q128 3 124 2T113 0H8Q-2 0 -2 9ZM468 298Q482 298 479 314L419 579Q418 588 413 588Q408 588 404 578L271 313Q268 306 268 303Q268 298 276 298H468ZM352 968T361 962L581 864Q586 861 589 856T589 844L573 813Q569 805 564 805Q560 805 553 808L332 873Q316
878 316 891L318 899L347 958Q352 968 361 962Z" />
<glyph unicode="&#xc1;" glyph-name="Aacute" horiz-adv-x="756" d="M-2 0T-2 9Q-2 16 4 28L356 728Q360 737 366 739T384 742H510Q527 742 531 719L683 20L684 14Q684 0 671 0H550Q537 0 534 16L499 177Q498 182 496 183T488 185H229Q223 185 220 183T214 174L130
8Q128 3 124 2T113 0H8Q-2 0 -2 9ZM468 298Q482 298 479 314L419 579Q418 588 413 588Q408 588 404 578L271 313Q268 306 268 303Q268 298 276 298H468ZM600 892Q601 889 601 884Q601 879 598 877T587 872L348 806Q346 805 342 805Q330 805 327 820L320 850Q319
853 319 858Q319 865 324 866L572 964L575 965Q579 965 582 961T587 952L600 892Z" />
<glyph unicode="&#xc2;" glyph-name="Acircumflex" horiz-adv-x="756" d="M-2 0T-2 9Q-2 16 4 28L356 728Q360 737 366 739T384 742H510Q527 742 531 719L683 20L684 14Q684 0 671 0H550Q537 0 534 16L499 177Q498 182 496 183T488 185H229Q223 185 220 183T214
174L130 8Q128 3 124 2T113 0H8Q-2 0 -2 9ZM468 298Q482 298 479 314L419 579Q418 588 413 588Q408 588 404 578L271 313Q268 306 268 303Q268 298 276 298H468ZM478 891Q470 899 468 899Q465 899 461 895T451 885L389 833Q384 829 381 828T374 827T368 828H296Q292
828 289 830T286 836Q286 841 291 846L412 951Q419 956 425 958T443 960H504Q514 960 519 955T525 947L616 840Q618 838 621 834T624 829T617 828H540Q528 828 519 839L478 891Z" />
<glyph unicode="&#xc3;" glyph-name="Atilde" horiz-adv-x="756" d="M-2 0T-2 9Q-2 16 4 28L356 728Q360 737 366 739T384 742H510Q527 742 531 719L683 20L684 14Q684 0 671 0H550Q537 0 534 16L499 177Q498 182 496 183T488 185H229Q223 185 220 183T214 174L130
8Q128 3 124 2T113 0H8Q-2 0 -2 9ZM468 298Q482 298 479 314L419 579Q418 588 413 588Q408 588 404 578L271 313Q268 306 268 303Q268 298 276 298H468ZM575 849T534 849Q514 849 498 853T459 864Q422 877 398 877Q376 877 362 871T328 850Q326 849 322 849Q313
849 310 864L302 901Q300 909 300 911Q300 918 306 925Q330 939 349 946T393 953Q413 953 429 949T474 936Q511 923 534 923Q569 923 604 950Q606 951 611 951Q623 951 625 936L630 892Q631 890 631 885Q631 878 622 869Q575 849 534 849Z" />
<glyph unicode="&#xc4;" glyph-name="Adieresis" horiz-adv-x="756" d="M-2 0T-2 9Q-2 16 4 28L356 728Q360 737 366 739T384 742H510Q527 742 531 719L683 20L684 14Q684 0 671 0H550Q537 0 534 16L499 177Q498 182 496 183T488 185H229Q223 185 220 183T214
174L130 8Q128 3 124 2T113 0H8Q-2 0 -2 9ZM468 298Q482 298 479 314L419 579Q418 588 413 588Q408 588 404 578L271 313Q268 306 268 303Q268 298 276 298H468ZM424 846Q423 836 419 834T403 831H324Q304 831 307 851L319 942Q320 950 322 952T331 954H423Q430
954 434 949T437 936L424 846ZM607 846Q606 836 602 834T586 831H507Q488 831 490 851L503 942Q504 950 506 952T515 954H607Q614 954 618 949T620 936L607 846Z" />
<glyph unicode="&#xc5;" glyph-name="Aring" horiz-adv-x="756" d="M-2 0T-2 9Q-2 16 4 28L356 728Q360 737 366 739T384 742H510Q527 742 531 719L683 20L684 14Q684 0 671 0H550Q537 0 534 16L499 177Q498 182 496 183T488 185H229Q223 185 220 183T214 174L130
8Q128 3 124 2T113 0H8Q-2 0 -2 9ZM468 298Q482 298 479 314L419 579Q418 588 413 588Q408 588 404 578L271 313Q268 306 268 303Q268 298 276 298H468ZM565 829T549 802T505 759T445 743Q402 743 374 772T346 845Q346 856 347 862Q352 903 386 931T465 960Q508
960 536 932T565 861Q565 829 549 802ZM508 883T497 893T467 904Q443 904 423 887T399 845Q397 826 409 812T441 798Q466 798 487 819T508 867Q508 883 497 893Z" />
<glyph unicode="&#xc6;" glyph-name="AE" horiz-adv-x="1053" d="M980 110T984 105T988 92L977 12Q975 5 973 3T961 0H485Q475 0 470 6T466 22L489 179Q489 184 488 184T482 185H258Q253 185 248 182T241 173L128 8Q124 3 120 2T108 0H12Q7 0 3 4T-1 14Q-1 20
4 28L483 728Q489 737 494 739T509 742H1052Q1059 742 1062 737T1065 723L1054 647Q1052 638 1049 635T1036 632H719Q711 632 705 627T697 614L673 439L672 434Q672 430 675 429T682 428H901Q908 428 913 423T917 410L905 328Q904 323 902 322T893 320H672Q665
320 660 315T654 304L628 118Q627 111 627 111T634 110H972Q980 110 984 105ZM495 298T501 304T508 317L548 601Q550 616 543 616Q533 616 520 595L322 310Q315 302 315 300T321 298H488Q495 298 501 304Z" />
<glyph unicode="&#xc7;" glyph-name="Ccedilla" horiz-adv-x="719" d="M706 527Q706 513 693 513L583 506H582Q572 506 570 527Q565 582 533 614T443 647Q361 647 310 589T236 446T213 276Q213 187 249 144T358 101Q424 101 473 133T558 234Q562 242 571 242Q576
242 579 241L668 218Q673 216 673 210Q673 203 669 192Q651 150 612 106T510 28T371 -9L350 -52Q349 -55 347 -55H348Q393 -57 414 -78T435 -128Q435 -170 399 -193T310 -216Q248 -216 210 -189Q205 -188 203 -185T201 -178L220 -146Q222 -142 224 -146T226 -151Q258
-167 291 -167Q318 -167 335 -156T355 -126Q357 -107 341 -99T280 -90Q272 -90 269 -87T267 -78L309 -8Q191 5 127 86T62 299Q62 417 105 520T234 688T445 752Q519 752 578 723T671 643T706 530V527Z" />
<glyph unicode="&#xc8;" glyph-name="Egrave" horiz-adv-x="645" d="M146 737T148 739T158 742H647Q660 742 657 723L646 648Q644 639 641 636T627 632H292Q284 632 281 630T277 619L252 439L251 433Q251 428 260 428H494Q502 428 504 425T505 415L493 330Q492
324 490 322T480 320H245Q239 320 237 317T232 306L207 121V117Q207 110 213 110H568Q575 110 578 107T579 96L568 12Q567 5 565 3T553 0H62Q51 0 47 5T45 22L145 729Q146 737 148 739ZM317 968T326 962L546 864Q551 861 554 856T554 844L538 813Q534 805 529 805Q525
805 518 808L297 873Q281 878 281 891L283 899L312 958Q317 968 326 962Z" />
<glyph unicode="&#xc9;" glyph-name="Eacute" horiz-adv-x="645" d="M146 737T148 739T158 742H647Q660 742 657 723L646 648Q644 639 641 636T627 632H292Q284 632 281 630T277 619L252 439L251 433Q251 428 260 428H494Q502 428 504 425T505 415L493 330Q492
324 490 322T480 320H245Q239 320 237 317T232 306L207 121V117Q207 110 213 110H568Q575 110 578 107T579 96L568 12Q567 5 565 3T553 0H62Q51 0 47 5T45 22L145 729Q146 737 148 739ZM565 892Q566 889 566 884Q566 879 563 877T552 872L313 806Q311 805 307 805Q295
805 292 820L285 850Q284 853 284 858Q284 865 289 866L537 964L540 965Q544 965 547 961T552 952L565 892Z" />
<glyph unicode="&#xca;" glyph-name="Ecircumflex" horiz-adv-x="645" d="M146 737T148 739T158 742H647Q660 742 657 723L646 648Q644 639 641 636T627 632H292Q284 632 281 630T277 619L252 439L251 433Q251 428 260 428H494Q502 428 504 425T505 415L493 330Q492
324 490 322T480 320H245Q239 320 237 317T232 306L207 121V117Q207 110 213 110H568Q575 110 578 107T579 96L568 12Q567 5 565 3T553 0H62Q51 0 47 5T45 22L145 729Q146 737 148 739ZM443 891Q435 899 433 899Q430 899 426 895T416 885L354 833Q349 829 346 828T339
827T333 828H261Q257 828 254 830T251 836Q251 841 256 846L377 951Q384 956 390 958T408 960H469Q479 960 484 955T490 947L581 840Q583 838 586 834T589 829T582 828H505Q493 828 484 839L443 891Z" />
<glyph unicode="&#xcb;" glyph-name="Edieresis" horiz-adv-x="645" d="M146 737T148 739T158 742H647Q660 742 657 723L646 648Q644 639 641 636T627 632H292Q284 632 281 630T277 619L252 439L251 433Q251 428 260 428H494Q502 428 504 425T505 415L493 330Q492
324 490 322T480 320H245Q239 320 237 317T232 306L207 121V117Q207 110 213 110H568Q575 110 578 107T579 96L568 12Q567 5 565 3T553 0H62Q51 0 47 5T45 22L145 729Q146 737 148 739ZM389 846Q388 836 384 834T368 831H289Q269 831 272 851L284 942Q285 950 287
952T296 954H388Q395 954 399 949T402 936L389 846ZM572 846Q571 836 567 834T551 831H472Q453 831 455 851L468 942Q469 950 471 952T480 954H572Q579 954 583 949T585 936L572 846Z" />
<glyph unicode="&#xcc;" glyph-name="Igrave" horiz-adv-x="306" d="M279 742Q294 742 291 722L192 18Q191 6 187 3T169 0H61Q50 0 47 5T45 22L145 729Q146 737 148 739T158 742H279ZM132 968T141 962L361 864Q366 861 369 856T369 844L353 813Q349 805 344 805Q340
805 333 808L112 873Q96 878 96 891L98 899L127 958Q132 968 141 962Z" />
<glyph unicode="&#xcd;" glyph-name="Iacute" horiz-adv-x="306" d="M279 742Q294 742 291 722L192 18Q191 6 187 3T169 0H61Q50 0 47 5T45 22L145 729Q146 737 148 739T158 742H279ZM380 892Q381 889 381 884Q381 879 378 877T367 872L128 806Q126 805 122 805Q110
805 107 820L100 850Q99 853 99 858Q99 865 104 866L352 964L355 965Q359 965 362 961T367 952L380 892Z" />
<glyph unicode="&#xce;" glyph-name="Icircumflex" horiz-adv-x="306" d="M279 742Q294 742 291 722L192 18Q191 6 187 3T169 0H61Q50 0 47 5T45 22L145 729Q146 737 148 739T158 742H279ZM258 891Q250 899 248 899Q245 899 241 895T231 885L169 833Q164 829 161
828T154 827T148 828H76Q72 828 69 830T66 836Q66 841 71 846L192 951Q199 956 205 958T223 960H284Q294 960 299 955T305 947L396 840Q398 838 401 834T404 829T397 828H320Q308 828 299 839L258 891Z" />
<glyph unicode="&#xcf;" glyph-name="Idieresis" horiz-adv-x="306" d="M279 742Q294 742 291 722L192 18Q191 6 187 3T169 0H61Q50 0 47 5T45 22L145 729Q146 737 148 739T158 742H279ZM204 846Q203 836 199 834T183 831H104Q84 831 87 851L99 942Q100 950 102
952T111 954H203Q210 954 214 949T217 936L204 846ZM387 846Q386 836 382 834T366 831H287Q268 831 270 851L283 942Q284 950 286 952T295 954H387Q394 954 398 949T400 936L387 846Z" />
<glyph unicode="&#xd0;" glyph-name="Eth" horiz-adv-x="716" d="M504 742T594 664T684 445Q684 307 632 207T478 54T235 0H39Q29 0 24 7T19 25L60 319H58Q37 319 39 342L48 404Q50 412 52 414T61 417H74L118 728Q120 736 123 739T137 742H327Q504 742 594 664ZM393
106T462 197T531 452Q531 548 481 592T328 636H267Q253 636 250 620L222 417H398Q405 417 409 411T411 398L403 336Q402 325 397 322T379 319H209L182 122Q182 121 182 120T182 117Q182 106 194 106H249Q393 106 462 197Z" />
<glyph unicode="&#xd1;" glyph-name="Ntilde" horiz-adv-x="758" d="M734 742Q746 742 744 728L643 11Q642 4 639 2T628 0H544Q531 0 523 14L248 500Q245 506 241 506Q237 506 235 495L167 14Q165 6 162 3T149 0H57Q42 0 44 19L145 729Q146 737 148 739T160 742H259Q268
742 273 739T283 726L540 263Q544 256 550 256Q557 256 558 268L623 730Q625 738 627 740T638 742H734ZM587 849T546 849Q526 849 510 853T471 864Q434 877 410 877Q388 877 374 871T340 850Q338 849 334 849Q325 849 322 864L314 901Q312 909 312 911Q312 918
318 925Q342 939 361 946T405 953Q425 953 441 949T486 936Q523 923 546 923Q581 923 616 950Q618 951 623 951Q635 951 637 936L642 892Q643 890 643 885Q643 878 634 869Q587 849 546 849Z" />
<glyph unicode="&#xd2;" glyph-name="Ograve" horiz-adv-x="770" d="M214 -10T138 69T61 292Q61 332 67 375Q83 492 135 577T267 707T449 752Q585 752 661 671T738 445Q738 397 732 362Q716 246 665 163T533 35T352 -10Q214 -10 138 69ZM451 96T505 163T580 374Q587
427 587 473Q587 562 552 604T446 647Q353 647 297 577T220 360Q212 304 212 266Q212 178 248 137T357 96Q451 96 505 163ZM363 968T372 962L592 864Q597 861 600 856T600 844L584 813Q580 805 575 805Q571 805 564 808L343 873Q327 878 327 891L329 899L358 958Q363
968 372 962Z" />
<glyph unicode="&#xd3;" glyph-name="Oacute" horiz-adv-x="770" d="M214 -10T138 69T61 292Q61 332 67 375Q83 492 135 577T267 707T449 752Q585 752 661 671T738 445Q738 397 732 362Q716 246 665 163T533 35T352 -10Q214 -10 138 69ZM451 96T505 163T580 374Q587
427 587 473Q587 562 552 604T446 647Q353 647 297 577T220 360Q212 304 212 266Q212 178 248 137T357 96Q451 96 505 163ZM611 892Q612 889 612 884Q612 879 609 877T598 872L359 806Q357 805 353 805Q341 805 338 820L331 850Q330 853 330 858Q330 865 335 866L583
964L586 965Q590 965 593 961T598 952L611 892Z" />
<glyph unicode="&#xd4;" glyph-name="Ocircumflex" horiz-adv-x="770" d="M214 -10T138 69T61 292Q61 332 67 375Q83 492 135 577T267 707T449 752Q585 752 661 671T738 445Q738 397 732 362Q716 246 665 163T533 35T352 -10Q214 -10 138 69ZM451 96T505 163T580
374Q587 427 587 473Q587 562 552 604T446 647Q353 647 297 577T220 360Q212 304 212 266Q212 178 248 137T357 96Q451 96 505 163ZM489 891Q481 899 479 899Q476 899 472 895T462 885L400 833Q395 829 392 828T385 827T379 828H307Q303 828 300 830T297 836Q297
841 302 846L423 951Q430 956 436 958T454 960H515Q525 960 530 955T536 947L627 840Q629 838 632 834T635 829T628 828H551Q539 828 530 839L489 891Z" />
<glyph unicode="&#xd5;" glyph-name="Otilde" horiz-adv-x="770" d="M214 -10T138 69T61 292Q61 332 67 375Q83 492 135 577T267 707T449 752Q585 752 661 671T738 445Q738 397 732 362Q716 246 665 163T533 35T352 -10Q214 -10 138 69ZM451 96T505 163T580 374Q587
427 587 473Q587 562 552 604T446 647Q353 647 297 577T220 360Q212 304 212 266Q212 178 248 137T357 96Q451 96 505 163ZM586 849T545 849Q525 849 509 853T470 864Q433 877 409 877Q387 877 373 871T339 850Q337 849 333 849Q324 849 321 864L313 901Q311 909
311 911Q311 918 317 925Q341 939 360 946T404 953Q424 953 440 949T485 936Q522 923 545 923Q580 923 615 950Q617 951 622 951Q634 951 636 936L641 892Q642 890 642 885Q642 878 633 869Q586 849 545 849Z" />
<glyph unicode="&#xd6;" glyph-name="Odieresis" horiz-adv-x="770" d="M214 -10T138 69T61 292Q61 332 67 375Q83 492 135 577T267 707T449 752Q585 752 661 671T738 445Q738 397 732 362Q716 246 665 163T533 35T352 -10Q214 -10 138 69ZM451 96T505 163T580
374Q587 427 587 473Q587 562 552 604T446 647Q353 647 297 577T220 360Q212 304 212 266Q212 178 248 137T357 96Q451 96 505 163ZM435 846Q434 836 430 834T414 831H335Q315 831 318 851L330 942Q331 950 333 952T342 954H434Q441 954 445 949T448 936L435 846ZM618
846Q617 836 613 834T597 831H518Q499 831 501 851L514 942Q515 950 517 952T526 954H618Q625 954 629 949T631 936L618 846Z" />
<glyph unicode="&#xd7;" glyph-name="multiply" horiz-adv-x="564" d="M546 528T540 521L365 368L492 220Q497 215 497 210Q497 206 493 202L442 157Q437 153 432 153Q427 153 423 156T413 165L293 305L119 153Q116 150 113 150Q109 150 101 158L63 203Q56 210
56 218Q56 226 64 233L229 378L105 522Q98 531 98 536Q98 541 104 547L155 592Q159 595 163 595Q170 595 175 588L301 441L472 591Q477 595 483 595Q489 595 496 586L535 541Q546 528 540 521Z" />
<glyph unicode="&#xd8;" glyph-name="Oslash" horiz-adv-x="752" d="M801 693T801 689Q801 685 797 681L701 596Q729 531 729 445Q729 407 723 362Q707 246 656 163T524 35T343 -10Q203 -10 128 73L53 0Q46 -7 39 -7Q31 -7 22 4L-4 34Q-14 46 -14 51Q-14 56 -9
61L81 141Q52 205 52 292Q52 332 58 375Q74 492 126 577T258 707T440 752Q509 752 563 730T655 665L737 744Q742 749 747 749Q754 749 759 742L795 701Q801 693 801 689ZM208 333T208 302Q208 272 212 252L557 580Q526 647 436 647Q343 647 288 577T212 360Q208
333 208 302ZM573 402T573 432Q573 464 568 484L225 158Q243 126 273 112T348 97Q441 97 495 164T569 374Q573 402 573 432Z" />
<glyph unicode="&#xd9;" glyph-name="Ugrave" horiz-adv-x="717" d="M626 117T545 54T325 -10Q191 -10 129 45T67 212Q67 233 73 287L136 728Q137 737 139 739T149 742H268Q275 742 279 736T282 722L217 258Q214 234 214 214Q214 154 245 126T340 98Q416 98 464
139T524 268L589 729Q591 737 593 739T602 742H697Q704 742 708 736T711 722L646 262Q626 117 545 54ZM347 968T356 962L576 864Q581 861 584 856T584 844L568 813Q564 805 559 805Q555 805 548 808L327 873Q311 878 311 891L313 899L342 958Q347 968 356 962Z"
/>
<glyph unicode="&#xda;" glyph-name="Uacute" horiz-adv-x="717" d="M626 117T545 54T325 -10Q191 -10 129 45T67 212Q67 233 73 287L136 728Q137 737 139 739T149 742H268Q275 742 279 736T282 722L217 258Q214 234 214 214Q214 154 245 126T340 98Q416 98 464
139T524 268L589 729Q591 737 593 739T602 742H697Q704 742 708 736T711 722L646 262Q626 117 545 54ZM595 892Q596 889 596 884Q596 879 593 877T582 872L343 806Q341 805 337 805Q325 805 322 820L315 850Q314 853 314 858Q314 865 319 866L567 964L570 965Q574
965 577 961T582 952L595 892Z" />
<glyph unicode="&#xdb;" glyph-name="Ucircumflex" horiz-adv-x="717" d="M626 117T545 54T325 -10Q191 -10 129 45T67 212Q67 233 73 287L136 728Q137 737 139 739T149 742H268Q275 742 279 736T282 722L217 258Q214 234 214 214Q214 154 245 126T340 98Q416
98 464 139T524 268L589 729Q591 737 593 739T602 742H697Q704 742 708 736T711 722L646 262Q626 117 545 54ZM473 891Q465 899 463 899Q460 899 456 895T446 885L384 833Q379 829 376 828T369 827T363 828H291Q287 828 284 830T281 836Q281 841 286 846L407 951Q414
956 420 958T438 960H499Q509 960 514 955T520 947L611 840Q613 838 616 834T619 829T612 828H535Q523 828 514 839L473 891Z" />
<glyph unicode="&#xdc;" glyph-name="Udieresis" horiz-adv-x="717" d="M626 117T545 54T325 -10Q191 -10 129 45T67 212Q67 233 73 287L136 728Q137 737 139 739T149 742H268Q275 742 279 736T282 722L217 258Q214 234 214 214Q214 154 245 126T340 98Q416 98
464 139T524 268L589 729Q591 737 593 739T602 742H697Q704 742 708 736T711 722L646 262Q626 117 545 54ZM419 846Q418 836 414 834T398 831H319Q299 831 302 851L314 942Q315 950 317 952T326 954H418Q425 954 429 949T432 936L419 846ZM602 846Q601 836 597
834T581 831H502Q483 831 485 851L498 942Q499 950 501 952T510 954H602Q609 954 613 949T615 936L602 846Z" />
<glyph unicode="&#xdd;" glyph-name="Yacute" horiz-adv-x="715" d="M748 742T748 732Q748 728 745 723L452 331Q445 323 442 314T437 285L399 18Q398 6 393 3T374 0H266Q256 0 253 4T251 19L290 295Q292 307 292 309Q292 316 287 328L104 724Q101 730 101 735Q101
742 115 742H239Q249 742 253 738T263 723L385 442Q388 434 392 434Q396 434 401 442L605 730Q611 738 615 740T631 742H736Q748 742 748 732ZM589 892Q590 889 590 884Q590 879 587 877T576 872L337 806Q335 805 331 805Q319 805 316 820L309 850Q308 853 308
858Q308 865 313 866L561 964L564 965Q568 965 571 961T576 952L589 892Z" />
<glyph unicode="&#xde;" glyph-name="Thorn" horiz-adv-x="712" d="M670 269T591 215T390 160H225Q219 160 215 156T210 146L192 16Q191 6 187 3T171 0H63Q54 0 49 6T45 21L145 729Q146 737 148 739T158 742H277Q284 742 288 736T291 722L274 600Q273 596 274
596T279 595H428Q544 595 615 547T687 407Q687 385 685 373Q670 269 591 215ZM537 395T537 406Q537 488 410 488H278Q269 488 263 483T256 469L229 280Q228 277 228 272Q228 269 230 268T237 267H380Q444 267 486 299T536 389Q537 395 537 406Z" />
<glyph unicode="&#xdf;" glyph-name="germandbls" horiz-adv-x="635" d="M483 742T530 706T577 608Q577 602 575 586Q568 536 535 507T430 445Q404 434 393 425T380 402Q379 393 384 388T411 373Q465 353 501 333T562 279T588 193Q588 174 586 163Q574 79 511
35T355 -10Q316 -10 284 -2T232 22Q225 24 223 29T222 39L261 99Q264 102 266 102Q270 102 274 94Q295 85 311 81T351 76Q398 76 430 99T468 164Q469 168 469 176Q469 197 458 210T431 232T377 258Q332 274 306 299T279 368Q279 410 300 439T367 500Q410 525 431
543T457 594Q461 622 442 638T383 655Q329 655 293 622T248 531L175 14V9Q175 3 173 2T164 0H62Q56 0 52 6T48 19L104 413Q105 418 104 419T99 420H57Q50 420 46 425T42 437L51 500Q52 506 55 508T66 511H104Q116 511 120 532Q135 625 203 683T392 742Q483 742
530 706Z" />
<glyph unicode="&#xe0;" glyph-name="agrave" horiz-adv-x="558" d="M267 -10T162 -10Q92 -10 52 25T12 119Q12 188 57 233T172 298T317 322L367 325Q386 327 389 344L392 367Q394 379 394 385Q394 419 373 437T311 456Q228 456 181 388Q177 382 170 382Q165 382
162 383L81 404Q72 406 72 415Q72 423 76 432Q110 486 172 513T319 540Q421 540 470 502T519 397Q519 388 517 368L467 16Q465 5 463 3T450 0H365Q350 0 350 22L352 56Q352 63 348 63Q343 63 334 53Q267 -10 162 -10ZM375 246V253Q375 257 373 258T365 259L318
255Q251 250 196 224T141 139Q141 111 161 95T218 78Q246 78 272 87T318 111Q361 142 365 175L375 246ZM230 756T239 750L459 652Q464 649 467 644T467 632L451 601Q447 593 442 593Q438 593 431 596L210 661Q194 666 194 679L196 687L225 746Q230 756 239 750Z"
/>
<glyph unicode="&#xe1;" glyph-name="aacute" horiz-adv-x="558" d="M267 -10T162 -10Q92 -10 52 25T12 119Q12 188 57 233T172 298T317 322L367 325Q386 327 389 344L392 367Q394 379 394 385Q394 419 373 437T311 456Q228 456 181 388Q177 382 170 382Q165 382
162 383L81 404Q72 406 72 415Q72 423 76 432Q110 486 172 513T319 540Q421 540 470 502T519 397Q519 388 517 368L467 16Q465 5 463 3T450 0H365Q350 0 350 22L352 56Q352 63 348 63Q343 63 334 53Q267 -10 162 -10ZM375 246V253Q375 257 373 258T365 259L318
255Q251 250 196 224T141 139Q141 111 161 95T218 78Q246 78 272 87T318 111Q361 142 365 175L375 246ZM478 680Q479 677 479 672Q479 667 476 665T465 660L226 594Q224 593 220 593Q208 593 205 608L198 638Q197 641 197 646Q197 653 202 654L450 752L453 753Q457
753 460 749T465 740L478 680Z" />
<glyph unicode="&#xe2;" glyph-name="acircumflex" horiz-adv-x="558" d="M267 -10T162 -10Q92 -10 52 25T12 119Q12 188 57 233T172 298T317 322L367 325Q386 327 389 344L392 367Q394 379 394 385Q394 419 373 437T311 456Q228 456 181 388Q177 382 170 382Q165
382 162 383L81 404Q72 406 72 415Q72 423 76 432Q110 486 172 513T319 540Q421 540 470 502T519 397Q519 388 517 368L467 16Q465 5 463 3T450 0H365Q350 0 350 22L352 56Q352 63 348 63Q343 63 334 53Q267 -10 162 -10ZM375 246V253Q375 257 373 258T365 259L318
255Q251 250 196 224T141 139Q141 111 161 95T218 78Q246 78 272 87T318 111Q361 142 365 175L375 246ZM356 679Q348 687 346 687Q343 687 339 683T329 673L267 621Q262 617 259 616T252 615T246 616H174Q170 616 167 618T164 624Q164 629 169 634L290 739Q297
744 303 746T321 748H382Q392 748 397 743T403 735L494 628Q496 626 499 622T502 617T495 616H418Q406 616 397 627L356 679Z" />
<glyph unicode="&#xe3;" glyph-name="atilde" horiz-adv-x="558" d="M267 -10T162 -10Q92 -10 52 25T12 119Q12 188 57 233T172 298T317 322L367 325Q386 327 389 344L392 367Q394 379 394 385Q394 419 373 437T311 456Q228 456 181 388Q177 382 170 382Q165 382
162 383L81 404Q72 406 72 415Q72 423 76 432Q110 486 172 513T319 540Q421 540 470 502T519 397Q519 388 517 368L467 16Q465 5 463 3T450 0H365Q350 0 350 22L352 56Q352 63 348 63Q343 63 334 53Q267 -10 162 -10ZM375 246V253Q375 257 373 258T365 259L318
255Q251 250 196 224T141 139Q141 111 161 95T218 78Q246 78 272 87T318 111Q361 142 365 175L375 246ZM453 637T412 637Q392 637 376 641T337 652Q300 665 276 665Q254 665 240 659T206 638Q204 637 200 637Q191 637 188 652L180 689Q178 697 178 699Q178 706
184 713Q208 727 227 734T271 741Q291 741 307 737T352 724Q389 711 412 711Q447 711 482 738Q484 739 489 739Q501 739 503 724L508 680Q509 678 509 673Q509 666 500 657Q453 637 412 637Z" />
<glyph unicode="&#xe4;" glyph-name="adieresis" horiz-adv-x="558" d="M267 -10T162 -10Q92 -10 52 25T12 119Q12 188 57 233T172 298T317 322L367 325Q386 327 389 344L392 367Q394 379 394 385Q394 419 373 437T311 456Q228 456 181 388Q177 382 170 382Q165
382 162 383L81 404Q72 406 72 415Q72 423 76 432Q110 486 172 513T319 540Q421 540 470 502T519 397Q519 388 517 368L467 16Q465 5 463 3T450 0H365Q350 0 350 22L352 56Q352 63 348 63Q343 63 334 53Q267 -10 162 -10ZM375 246V253Q375 257 373 258T365 259L318
255Q251 250 196 224T141 139Q141 111 161 95T218 78Q246 78 272 87T318 111Q361 142 365 175L375 246ZM302 634Q301 624 297 622T281 619H202Q182 619 185 639L197 730Q198 738 200 740T209 742H301Q308 742 312 737T315 724L302 634ZM485 634Q484 624 480 622T464
619H385Q366 619 368 639L381 730Q382 738 384 740T393 742H485Q492 742 496 737T498 724L485 634Z" />
<glyph unicode="&#xe5;" glyph-name="aring" horiz-adv-x="558" d="M267 -10T162 -10Q92 -10 52 25T12 119Q12 188 57 233T172 298T317 322L367 325Q386 327 389 344L392 367Q394 379 394 385Q394 419 373 437T311 456Q228 456 181 388Q177 382 170 382Q165 382
162 383L81 404Q72 406 72 415Q72 423 76 432Q110 486 172 513T319 540Q421 540 470 502T519 397Q519 388 517 368L467 16Q465 5 463 3T450 0H365Q350 0 350 22L352 56Q352 63 348 63Q343 63 334 53Q267 -10 162 -10ZM375 246V253Q375 257 373 258T365 259L318
255Q251 250 196 224T141 139Q141 111 161 95T218 78Q246 78 272 87T318 111Q361 142 365 175L375 246ZM453 671T437 644T393 601T333 585Q290 585 262 614T234 687Q234 698 235 704Q240 745 274 773T353 802Q396 802 424 774T453 703Q453 671 437 644ZM396 725T385
735T355 746Q331 746 311 729T287 687Q285 668 297 654T329 640Q354 640 375 661T396 709Q396 725 385 735Z" />
<glyph unicode="&#xe6;" glyph-name="ae" horiz-adv-x="921" d="M503 240T500 212Q499 206 499 193Q499 145 533 113T621 81Q668 81 701 100T772 158Q774 159 777 159Q779 159 789 154L846 126Q854 123 854 115Q854 110 851 104Q801 44 741 17T603 -10Q532 -10
485 19T409 93Q405 93 402 90T397 81Q348 38 294 14T166 -10Q92 -10 52 25T11 121Q11 129 13 147Q24 223 96 268T302 321L364 325Q372 326 379 331T388 344L391 367Q392 374 392 386Q392 456 308 456Q272 456 239 438T179 383Q176 380 172 380Q169 380 160 383L80
404Q73 405 73 420Q73 428 75 432Q114 487 171 513T316 540Q454 539 487 465Q561 540 669 540Q771 540 831 480T891 312Q891 283 887 256Q885 246 883 244T869 240H523Q503 240 500 212ZM614 458T570 418T516 311L748 314Q759 314 764 319T770 336Q771 342 771
354Q771 397 745 427T671 458Q614 458 570 418ZM374 248Q374 252 372 253T361 254L311 250Q237 244 189 213T140 130Q140 103 159 88T215 73Q250 73 283 86T338 122T364 171L373 241L374 248Z" />
<glyph unicode="&#xe7;" glyph-name="ccedilla" horiz-adv-x="548" d="M533 387Q533 378 521 377L436 367H434Q430 367 428 372T423 384Q405 420 387 436T334 453Q279 453 241 415T183 320T163 208Q163 143 192 110T276 76Q323 76 355 97T421 166Q424 170 426
170T435 168L496 151Q505 150 505 138Q505 132 503 128Q473 77 418 37T286 -9L265 -52Q264 -55 262 -55H263Q308 -57 329 -78T350 -128Q350 -170 314 -193T225 -216Q163 -216 125 -189Q120 -188 118 -185T116 -178L135 -146Q137 -142 139 -146T141 -151Q173 -167
206 -167Q233 -167 250 -156T270 -126Q272 -107 256 -99T195 -90Q187 -90 184 -87T182 -78L225 -7Q136 5 85 66T33 222Q33 304 70 377T175 495T331 540Q416 540 467 498T533 391V387Z" />
<glyph unicode="&#xe8;" glyph-name="egrave" horiz-adv-x="584" d="M198 -10T145 18T63 99T33 219Q33 302 71 375T178 494T333 540Q435 540 495 480T555 312Q555 283 551 256Q549 247 545 244T529 240H178Q169 240 166 229T162 196Q162 142 196 112T285 81Q328
81 364 98T432 153Q437 158 442 158Q445 158 453 154L510 126Q520 123 520 115Q520 111 515 104Q461 41 404 16T268 -10Q198 -10 145 18ZM412 311Q436 311 436 352Q436 397 409 427T333 458Q294 458 261 438T206 384T179 311H412ZM246 756T255 750L475 652Q480
649 483 644T483 632L467 601Q463 593 458 593Q454 593 447 596L226 661Q210 666 210 679L212 687L241 746Q246 756 255 750Z" />
<glyph unicode="&#xe9;" glyph-name="eacute" horiz-adv-x="584" d="M198 -10T145 18T63 99T33 219Q33 302 71 375T178 494T333 540Q435 540 495 480T555 312Q555 283 551 256Q549 247 545 244T529 240H178Q169 240 166 229T162 196Q162 142 196 112T285 81Q328
81 364 98T432 153Q437 158 442 158Q445 158 453 154L510 126Q520 123 520 115Q520 111 515 104Q461 41 404 16T268 -10Q198 -10 145 18ZM412 311Q436 311 436 352Q436 397 409 427T333 458Q294 458 261 438T206 384T179 311H412ZM494 680Q495 677 495 672Q495
667 492 665T481 660L242 594Q240 593 236 593Q224 593 221 608L214 638Q213 641 213 646Q213 653 218 654L466 752L469 753Q473 753 476 749T481 740L494 680Z" />
<glyph unicode="&#xea;" glyph-name="ecircumflex" horiz-adv-x="584" d="M198 -10T145 18T63 99T33 219Q33 302 71 375T178 494T333 540Q435 540 495 480T555 312Q555 283 551 256Q549 247 545 244T529 240H178Q169 240 166 229T162 196Q162 142 196 112T285
81Q328 81 364 98T432 153Q437 158 442 158Q445 158 453 154L510 126Q520 123 520 115Q520 111 515 104Q461 41 404 16T268 -10Q198 -10 145 18ZM412 311Q436 311 436 352Q436 397 409 427T333 458Q294 458 261 438T206 384T179 311H412ZM372 679Q364 687 362 687Q359
687 355 683T345 673L283 621Q278 617 275 616T268 615T262 616H190Q186 616 183 618T180 624Q180 629 185 634L306 739Q313 744 319 746T337 748H398Q408 748 413 743T419 735L510 628Q512 626 515 622T518 617T511 616H434Q422 616 413 627L372 679Z" />
<glyph unicode="&#xeb;" glyph-name="edieresis" horiz-adv-x="584" d="M198 -10T145 18T63 99T33 219Q33 302 71 375T178 494T333 540Q435 540 495 480T555 312Q555 283 551 256Q549 247 545 244T529 240H178Q169 240 166 229T162 196Q162 142 196 112T285 81Q328
81 364 98T432 153Q437 158 442 158Q445 158 453 154L510 126Q520 123 520 115Q520 111 515 104Q461 41 404 16T268 -10Q198 -10 145 18ZM412 311Q436 311 436 352Q436 397 409 427T333 458Q294 458 261 438T206 384T179 311H412ZM318 634Q317 624 313 622T297
619H218Q198 619 201 639L213 730Q214 738 216 740T225 742H317Q324 742 328 737T331 724L318 634ZM501 634Q500 624 496 622T480 619H401Q382 619 384 639L397 730Q398 738 400 740T409 742H501Q508 742 512 737T514 724L501 634Z" />
<glyph unicode="&#xec;" glyph-name="igrave" horiz-adv-x="256" d="M158 18Q157 6 153 3T135 0H48Q37 0 32 6T29 22L98 517Q100 525 102 527T112 530H213Q220 530 224 525T228 511L158 18ZM75 756T84 750L304 652Q309 649 312 644T312 632L296 601Q292 593 287
593Q283 593 276 596L55 661Q39 666 39 679L41 687L70 746Q75 756 84 750Z" />
<glyph unicode="&#xed;" glyph-name="iacute" horiz-adv-x="256" d="M158 18Q157 6 153 3T135 0H48Q37 0 32 6T29 22L98 517Q100 525 102 527T112 530H213Q220 530 224 525T228 511L158 18ZM323 680Q324 677 324 672Q324 667 321 665T310 660L71 594Q69 593 65
593Q53 593 50 608L43 638Q42 641 42 646Q42 653 47 654L295 752L298 753Q302 753 305 749T310 740L323 680Z" />
<glyph unicode="&#xee;" glyph-name="icircumflex" horiz-adv-x="256" d="M158 18Q157 6 153 3T135 0H48Q37 0 32 6T29 22L98 517Q100 525 102 527T112 530H213Q220 530 224 525T228 511L158 18ZM201 679Q193 687 191 687Q188 687 184 683T174 673L112 621Q107
617 104 616T97 615T91 616H19Q15 616 12 618T9 624Q9 629 14 634L135 739Q142 744 148 746T166 748H227Q237 748 242 743T248 735L339 628Q341 626 344 622T347 617T340 616H263Q251 616 242 627L201 679Z" />
<glyph unicode="&#xef;" glyph-name="idieresis" horiz-adv-x="256" d="M158 18Q157 6 153 3T135 0H48Q37 0 32 6T29 22L98 517Q100 525 102 527T112 530H213Q220 530 224 525T228 511L158 18ZM147 634Q146 624 142 622T126 619H47Q27 619 30 639L42 730Q43 738
45 740T54 742H146Q153 742 157 737T160 724L147 634ZM330 634Q329 624 325 622T309 619H230Q211 619 213 639L226 730Q227 738 229 740T238 742H330Q337 742 341 737T343 724L330 634Z" />
<glyph unicode="&#xf0;" glyph-name="eth" horiz-adv-x="599" d="M551 181T511 120T407 24T265 -10Q195 -10 142 19T61 99T32 217Q32 238 35 259Q46 334 87 393T191 486T326 520Q381 520 406 498Q378 567 313 618L174 542Q170 540 168 540Q161 540 157 553L146
572Q143 579 143 582T146 588L267 649Q225 672 180 692Q174 693 172 697T173 705L235 749Q239 752 242 752Q245 752 252 747Q308 733 366 698L461 752Q462 753 464 753Q471 753 475 745L488 714Q488 713 490 710T488 703L413 667Q491 608 530 525T569 341Q569 304
563 263Q551 181 511 120ZM331 79T375 129T430 262Q433 285 433 305Q433 365 406 399T329 434Q267 434 223 383T166 248Q163 227 163 208Q163 147 190 113T269 79Q331 79 375 129Z" />
<glyph unicode="&#xf1;" glyph-name="ntilde" horiz-adv-x="592" d="M26 0T29 22L98 517Q100 525 102 527T111 530H217Q223 530 225 528T226 518L218 465V462Q218 458 220 458Q221 458 228 463Q321 540 409 540Q477 540 515 504T553 408Q553 399 551 381L500 17Q499
7 495 4T479 0H383Q367 0 370 22L419 363L421 384Q421 444 352 444Q316 444 285 427T209 372L158 16Q157 6 152 3T135 0H42Q26 0 29 22ZM474 637T433 637Q413 637 397 641T358 652Q321 665 297 665Q275 665 261 659T227 638Q225 637 221 637Q212 637 209 652L201
689Q199 697 199 699Q199 706 205 713Q229 727 248 734T292 741Q312 741 328 737T373 724Q410 711 433 711Q468 711 503 738Q505 739 510 739Q522 739 524 724L529 680Q530 678 530 673Q530 666 521 657Q474 637 433 637Z" />
<glyph unicode="&#xf2;" glyph-name="ograve" horiz-adv-x="599" d="M195 -10T143 19T62 100T33 221Q33 312 74 385T184 499T334 540Q404 540 456 511T537 428T565 305Q565 216 526 144T418 31T265 -10Q195 -10 143 19ZM316 79T354 108T414 195T436 329Q436 389
409 421T332 454Q285 454 247 424T186 336T163 202Q163 143 190 111T269 79Q316 79 354 108ZM247 756T256 750L476 652Q481 649 484 644T484 632L468 601Q464 593 459 593Q455 593 448 596L227 661Q211 666 211 679L213 687L242 746Q247 756 256 750Z" />
<glyph unicode="&#xf3;" glyph-name="oacute" horiz-adv-x="599" d="M195 -10T143 19T62 100T33 221Q33 312 74 385T184 499T334 540Q404 540 456 511T537 428T565 305Q565 216 526 144T418 31T265 -10Q195 -10 143 19ZM316 79T354 108T414 195T436 329Q436 389
409 421T332 454Q285 454 247 424T186 336T163 202Q163 143 190 111T269 79Q316 79 354 108ZM495 680Q496 677 496 672Q496 667 493 665T482 660L243 594Q241 593 237 593Q225 593 222 608L215 638Q214 641 214 646Q214 653 219 654L467 752L470 753Q474 753 477
749T482 740L495 680Z" />
<glyph unicode="&#xf4;" glyph-name="ocircumflex" horiz-adv-x="599" d="M195 -10T143 19T62 100T33 221Q33 312 74 385T184 499T334 540Q404 540 456 511T537 428T565 305Q565 216 526 144T418 31T265 -10Q195 -10 143 19ZM316 79T354 108T414 195T436 329Q436
389 409 421T332 454Q285 454 247 424T186 336T163 202Q163 143 190 111T269 79Q316 79 354 108ZM373 679Q365 687 363 687Q360 687 356 683T346 673L284 621Q279 617 276 616T269 615T263 616H191Q187 616 184 618T181 624Q181 629 186 634L307 739Q314 744 320
746T338 748H399Q409 748 414 743T420 735L511 628Q513 626 516 622T519 617T512 616H435Q423 616 414 627L373 679Z" />
<glyph unicode="&#xf5;" glyph-name="otilde" horiz-adv-x="599" d="M195 -10T143 19T62 100T33 221Q33 312 74 385T184 499T334 540Q404 540 456 511T537 428T565 305Q565 216 526 144T418 31T265 -10Q195 -10 143 19ZM316 79T354 108T414 195T436 329Q436 389
409 421T332 454Q285 454 247 424T186 336T163 202Q163 143 190 111T269 79Q316 79 354 108ZM470 637T429 637Q409 637 393 641T354 652Q317 665 293 665Q271 665 257 659T223 638Q221 637 217 637Q208 637 205 652L197 689Q195 697 195 699Q195 706 201 713Q225
727 244 734T288 741Q308 741 324 737T369 724Q406 711 429 711Q464 711 499 738Q501 739 506 739Q518 739 520 724L525 680Q526 678 526 673Q526 666 517 657Q470 637 429 637Z" />
<glyph unicode="&#xf6;" glyph-name="odieresis" horiz-adv-x="599" d="M195 -10T143 19T62 100T33 221Q33 312 74 385T184 499T334 540Q404 540 456 511T537 428T565 305Q565 216 526 144T418 31T265 -10Q195 -10 143 19ZM316 79T354 108T414 195T436 329Q436
389 409 421T332 454Q285 454 247 424T186 336T163 202Q163 143 190 111T269 79Q316 79 354 108ZM319 634Q318 624 314 622T298 619H219Q199 619 202 639L214 730Q215 738 217 740T226 742H318Q325 742 329 737T332 724L319 634ZM502 634Q501 624 497 622T481 619H402Q383
619 385 639L398 730Q399 738 401 740T410 742H502Q509 742 513 737T515 724L502 634Z" />
<glyph unicode="&#xf7;" glyph-name="divide" horiz-adv-x="575" d="M395 514Q394 504 390 502T373 499H271Q261 499 256 505T253 520L268 624Q269 632 271 634T279 636H397Q403 636 407 631T410 618L395 514ZM532 341Q531 331 527 328T510 325H82Q62 325 64 346L74
409Q75 416 77 418T85 421H528Q534 421 538 416T542 404L532 341ZM340 126Q339 116 335 113T318 110H216Q206 110 202 116T198 131L213 236Q214 244 216 245T224 247H343Q349 247 352 242T355 230L340 126Z" />
<glyph unicode="&#xf8;" glyph-name="oslash" horiz-adv-x="591" d="M603 488T603 484Q603 480 598 475L532 419Q556 370 556 305Q556 216 517 144T409 31T256 -10Q154 -10 92 49L41 6Q34 0 27 0Q19 0 11 11L-3 28Q-12 39 -12 45Q-12 51 -5 57L51 104Q24 154 24
221Q24 312 65 385T175 499T325 540Q429 540 493 476L551 524Q557 529 563 529Q570 529 575 522L597 496Q603 488 603 484ZM154 191L411 406Q385 454 323 454Q276 454 238 424T177 336T154 202V191ZM427 331L175 119Q203 79 260 79Q307 79 345 108T405 195T427
329V331Z" />
<glyph unicode="&#xf9;" glyph-name="ugrave" horiz-adv-x="588" d="M116 -10T78 26T39 124Q39 134 41 152L91 513Q93 524 97 527T112 530H204Q213 530 217 524T221 508L173 168Q171 154 171 149Q171 85 237 85Q301 85 378 157L430 514Q432 524 436 527T452 530H542Q552
530 557 524T560 508L488 13Q487 5 485 3T475 0H377Q361 0 364 13L372 64V66Q372 71 369 71Q366 71 359 66Q309 25 267 8T179 -10Q116 -10 78 26ZM232 756T241 750L461 652Q466 649 469 644T469 632L453 601Q449 593 444 593Q440 593 433 596L212 661Q196 666 196
679L198 687L227 746Q232 756 241 750Z" />
<glyph unicode="&#xfa;" glyph-name="uacute" horiz-adv-x="588" d="M116 -10T78 26T39 124Q39 134 41 152L91 513Q93 524 97 527T112 530H204Q213 530 217 524T221 508L173 168Q171 154 171 149Q171 85 237 85Q301 85 378 157L430 514Q432 524 436 527T452 530H542Q552
530 557 524T560 508L488 13Q487 5 485 3T475 0H377Q361 0 364 13L372 64V66Q372 71 369 71Q366 71 359 66Q309 25 267 8T179 -10Q116 -10 78 26ZM480 680Q481 677 481 672Q481 667 478 665T467 660L228 594Q226 593 222 593Q210 593 207 608L200 638Q199 641 199
646Q199 653 204 654L452 752L455 753Q459 753 462 749T467 740L480 680Z" />
<glyph unicode="&#xfb;" glyph-name="ucircumflex" horiz-adv-x="588" d="M116 -10T78 26T39 124Q39 134 41 152L91 513Q93 524 97 527T112 530H204Q213 530 217 524T221 508L173 168Q171 154 171 149Q171 85 237 85Q301 85 378 157L430 514Q432 524 436 527T452
530H542Q552 530 557 524T560 508L488 13Q487 5 485 3T475 0H377Q361 0 364 13L372 64V66Q372 71 369 71Q366 71 359 66Q309 25 267 8T179 -10Q116 -10 78 26ZM358 679Q350 687 348 687Q345 687 341 683T331 673L269 621Q264 617 261 616T254 615T248 616H176Q172
616 169 618T166 624Q166 629 171 634L292 739Q299 744 305 746T323 748H384Q394 748 399 743T405 735L496 628Q498 626 501 622T504 617T497 616H420Q408 616 399 627L358 679Z" />
<glyph unicode="&#xfc;" glyph-name="udieresis" horiz-adv-x="588" d="M116 -10T78 26T39 124Q39 134 41 152L91 513Q93 524 97 527T112 530H204Q213 530 217 524T221 508L173 168Q171 154 171 149Q171 85 237 85Q301 85 378 157L430 514Q432 524 436 527T452
530H542Q552 530 557 524T560 508L488 13Q487 5 485 3T475 0H377Q361 0 364 13L372 64V66Q372 71 369 71Q366 71 359 66Q309 25 267 8T179 -10Q116 -10 78 26ZM304 634Q303 624 299 622T283 619H204Q184 619 187 639L199 730Q200 738 202 740T211 742H303Q310 742
314 737T317 724L304 634ZM487 634Q486 624 482 622T466 619H387Q368 619 370 639L383 730Q384 738 386 740T395 742H487Q494 742 498 737T500 724L487 634Z" />
<glyph unicode="&#xfd;" glyph-name="yacute" horiz-adv-x="554" d="M8 -165T-3 -162T-13 -147L-5 -83Q-3 -69 30 -69H94Q117 -69 137 -56T170 -22T182 18Q182 26 181 30L55 505Q54 509 54 516Q54 530 68 530H182Q195 530 198 519L276 189Q279 178 284 178Q290
178 296 191L462 512Q470 530 485 530H558Q568 530 568 524Q568 521 564 513L279 -13Q246 -74 213 -107T139 -152T39 -165Q8 -165 -3 -162ZM490 680Q491 677 491 672Q491 667 488 665T477 660L238 594Q236 593 232 593Q220 593 217 608L210 638Q209 641 209 646Q209
653 214 654L462 752L465 753Q469 753 472 749T477 740L490 680Z" />
<glyph unicode="&#xfe;" glyph-name="thorn" horiz-adv-x="603" d="M248 742T253 736T256 720L222 474V472Q222 469 223 469Q226 469 234 481Q270 508 304 524T390 540Q472 540 521 486T571 329Q571 303 566 263Q547 129 479 60T314 -10Q229 -10 185 46Q180 50
173 50Q162 50 160 31L134 -153Q133 -161 131 -163T122 -165H20Q13 -165 9 -159T6 -145L127 726Q129 736 132 739T148 742H238Q248 742 253 736ZM192 101T215 88T270 75Q334 75 378 126T436 279Q440 306 440 333Q440 455 338 455Q305 455 276 441T228 404T206 360L172
127Q192 101 215 88Z" />
<glyph unicode="&#xff;" glyph-name="ydieresis" horiz-adv-x="554" d="M8 -165T-3 -162T-13 -147L-5 -83Q-3 -69 30 -69H94Q117 -69 137 -56T170 -22T182 18Q182 26 181 30L55 505Q54 509 54 516Q54 530 68 530H182Q195 530 198 519L276 189Q279 178 284 178Q290
178 296 191L462 512Q470 530 485 530H558Q568 530 568 524Q568 521 564 513L279 -13Q246 -74 213 -107T139 -152T39 -165Q8 -165 -3 -162ZM314 634Q313 624 309 622T293 619H214Q194 619 197 639L209 730Q210 738 212 740T221 742H313Q320 742 324 737T327 724L314
634ZM497 634Q496 624 492 622T476 619H397Q378 619 380 639L393 730Q394 738 396 740T405 742H497Q504 742 508 737T510 724L497 634Z" />
<glyph unicode="&#x2013;" glyph-name="endash" horiz-adv-x="575" d="M516 223Q515 214 511 211T493 208H65Q56 208 51 213T48 228L57 292Q59 300 61 302T69 304H512Q518 304 522 299T525 287L516 223Z" />
<glyph unicode="&#x2014;" glyph-name="emdash" horiz-adv-x="899" d="M840 223Q839 214 835 211T817 208H65Q56 208 51 213T48 228L57 292Q59 300 61 302T69 304H836Q841 304 845 299T849 287L840 223Z" />
<glyph unicode="&#x2018;" glyph-name="quoteleft" horiz-adv-x="234" d="M295 742T290 730L232 632Q228 625 228 619Q228 609 239 607L255 605Q265 604 267 603T268 593L253 488Q252 481 247 476T235 470H121Q115 470 114 471T113 479L126 577Q127 581 132 589L237
725Q242 732 251 737T268 742H284Q295 742 290 730Z" />
<glyph unicode="&#x2019;" glyph-name="quoteright" horiz-adv-x="234" d="M73 470T78 482L136 580Q140 587 140 593Q140 603 129 605L113 607Q103 608 101 609T100 619L115 724Q116 731 121 736T133 742H247Q253 742 254 741T255 733L242 635Q241 631 236 623L131
487Q126 480 117 475T100 470H84Q73 470 78 482Z" />
<glyph unicode="&#x201a;" glyph-name="quotesinglbase" horiz-adv-x="234" d="M-14 -137T-7 -125L52 -27Q55 -20 55 -14Q55 -4 44 -2L28 -1Q18 1 16 2T15 12L30 117Q31 124 36 129T47 135H162Q168 135 169 134T171 126L157 27Q156 24 154 21T151 16L46 -120Q41
-127 32 -132T15 -137H-2Q-14 -137 -7 -125Z" />
<glyph unicode="&#x201c;" glyph-name="quotedblleft" horiz-adv-x="442" d="M337 632Q334 625 334 619Q334 609 345 607L361 606Q371 604 373 603T374 593L359 488Q358 481 353 476T341 470H147Q141 470 139 471T138 479L152 578Q153 581 158 589L263 725Q268
732 277 737T294 742H310Q321 742 316 730L257 632Q254 626 254 620Q254 616 256 612L343 725Q347 732 356 737T374 742H391Q401 742 396 730L337 632Z" />
<glyph unicode="&#x201d;" glyph-name="quotedblright" horiz-adv-x="444" d="M73 470T78 482L136 580Q140 587 140 593Q140 603 129 605L113 607Q103 608 101 609T100 619L115 724Q116 731 121 736T133 742H247Q253 742 254 741T255 733L242 635Q241 631 236
623L131 487Q126 480 117 475T100 470H84Q73 470 78 482ZM281 470T286 482L344 580Q348 587 348 593Q348 603 337 605L321 607Q311 608 309 610T308 619L323 724Q324 731 329 736T341 742H455Q461 742 462 741T463 733L450 635Q449 631 444 623L338 487Q333 480
324 475T308 470H291Q281 470 286 482Z" />
<glyph unicode="&#x201e;" glyph-name="quotedblbase" horiz-adv-x="407" d="M157 -137T164 -125L223 -27Q226 -20 226 -14Q226 -4 215 -2L199 -1Q189 1 187 2T186 12L201 117Q202 124 207 129T218 135H333Q339 135 340 134T342 126L328 27Q327 24 325 21T322
16L217 -120Q212 -127 203 -132T186 -137H169Q157 -137 164 -125ZM205 -137T212 -125L271 -27Q274 -20 274 -14Q274 -4 263 -2L247 -1Q237 1 235 2T234 12L249 117Q250 124 255 129T266 135H381Q387 135 388 134T390 126L376 27Q375 24 373 21T370 16L265 -120Q260
-127 251 -132T234 -137H217Q205 -137 212 -125Z" />
<glyph unicode="&#x2022;" glyph-name="bullet" horiz-adv-x="329" d="M122 259T92 290T61 366Q61 401 79 430T126 477T190 495Q236 495 266 465T297 388Q297 354 279 324T232 277T168 259Q122 259 92 290Z" />
<glyph unicode="&#x2039;" glyph-name="guilsinglleft" horiz-adv-x="282" d="M204 74L205 70Q205 68 201 68T195 68H148Q144 68 140 71T136 79L47 245Q43 252 43 261Q43 270 47 275L186 451Q190 456 193 456T198 455H246Q252 455 256 450T257 439L150 264Q143
252 145 244L204 74Z" />
<glyph unicode="&#x203a;" glyph-name="guilsinglright" horiz-adv-x="283" d="M137 261T136 270L78 446L77 451Q77 455 85 455H133Q140 455 145 445L234 268Q238 260 238 254Q238 247 232 238L96 72Q93 68 84 68H38Q30 68 26 72T24 81L131 250Q137 261 136 270Z" />
</font>
</defs>
</svg>
