<?xml version="1.0" standalone="no"?>
<!DOCTYPE svg PUBLIC "-//W3C//DTD SVG 1.1//EN" "http://www.w3.org/Graphics/SVG/1.1/DTD/svg11.dtd">
<svg xmlns="http://www.w3.org/2000/svg">
<defs >
<font id="Mada" horiz-adv-x="463" ><font-face
    font-family="Mada ExtraLight"
    units-per-em="1000"
    panose-1="0 0 0 0 0 0 0 0 0 0"
    ascent="900"
    descent="-300"
    alphabetic="0" />
<glyph unicode=" " glyph-name="space" horiz-adv-x="200" />
<glyph unicode="!" glyph-name="exclam" horiz-adv-x="248" d="M112 172L108 608V670H140V608L136 172H112ZM124 -12Q110 -12 99 -2T88 26Q88 46 99 56T124 66Q138 66 149 56T160 26Q160 8 149 -2T124 -12Z" />
<glyph unicode="&quot;" glyph-name="quotedbl" horiz-adv-x="336" d="M90 494L84 634V694H122V634L116 494H90ZM218 494L212 634V694H250V634L244 494H218Z" />
<glyph unicode="#" glyph-name="numbersign" horiz-adv-x="472" d="M152 246H308L330 424H174L152 246ZM94 0L120 218H36V246H124L146 424H56V452H148L174 650H202L176 452H332L358 650H386L360 452H442V424H358L336 246H422V218H332L306 0H278L304 218H148L122 0H94Z" />
<glyph unicode="$" glyph-name="dollar" horiz-adv-x="472" d="M258 -110H228V-11Q175 -8 133 15T62 66L80 88Q107 62 148 39T244 16Q310 16 345 52T380 146Q380 209 351 244T278 302T191 347T118 403T88 500Q88 562 128 604T228 651V750H258V652Q307 649 338
629T394 582L374 562Q346 590 318 607T242 624Q188 624 154 589T120 502Q120 446 149 416T222 365T309 321T382 258T412 148Q412 77 367 35T258 -12V-110Z" />
<glyph unicode="%" glyph-name="percent" horiz-adv-x="798" d="M180 258Q116 258 79 312T42 466Q42 565 79 618T180 672Q244 672 281 619T318 466Q318 366 281 312T180 258ZM180 284Q230 284 259 332T288 466Q288 552 259 599T180 646Q130 646 101 599T72 466Q72
380 101 332T180 284ZM196 -12L566 672H598L228 -12H196ZM618 -12Q554 -12 517 42T480 196Q480 295 517 348T618 402Q682 402 719 349T756 196Q756 96 719 42T618 -12ZM618 14Q668 14 697 62T726 196Q726 282 697 329T618 376Q568 376 539 329T510 196Q510 110
539 62T618 14Z" />
<glyph unicode="&amp;" glyph-name="ampersand" horiz-adv-x="562" d="M538 -12Q508 -1 474 20T401 74Q365 36 322 12T224 -12Q149 -12 94 36T38 166Q38 230 80 276T175 362Q154 405 142 447T130 528Q130 591 166 631T260 672Q311 672 337 639T364 556Q364 493
316 447T210 357Q245 290 296 227T399 115Q437 162 463 219T508 342H538Q518 273 489 210T420 97Q488 39 550 16L538 -12ZM160 530Q160 495 170 457T199 380Q251 419 292 459T334 554Q334 587 317 615T258 644Q212 644 186 610T160 530ZM226 16Q270 16 309 37T380
93Q326 143 275 207T187 339Q140 302 105 262T70 168Q70 99 116 58T226 16Z" />
<glyph unicode="&apos;" glyph-name="quotesingle" horiz-adv-x="208" d="M90 494L84 634V694H122V634L116 494H90Z" />
<glyph unicode="(" glyph-name="parenleft" horiz-adv-x="270" d="M222 -174Q160 -75 125 35T90 278Q90 410 125 520T222 730L240 718Q118 526 118 278Q118 30 240 -162L222 -174Z" />
<glyph unicode=")" glyph-name="parenright" horiz-adv-x="270" d="M48 -174L30 -162Q152 30 152 278Q152 526 30 718L48 730Q110 631 145 521T180 278Q180 146 145 36T48 -174Z" />
<glyph unicode="*" glyph-name="asterisk" horiz-adv-x="386" d="M130 478L108 494L162 580L74 614L82 638L174 612L180 712H206L212 614L304 638L312 614L224 580L278 494L256 478L194 560L130 478Z" />
<glyph unicode="+" glyph-name="plus" horiz-adv-x="472" d="M220 112V316H34V344H220V548H252V344H438V316H252V112H220Z" />
<glyph unicode="," glyph-name="comma" horiz-adv-x="208" d="M60 -150L48 -126Q80 -108 100 -77T120 -5Q115 -6 108 -6Q72 -6 72 30Q72 48 83 57T108 66Q152 66 152 4Q152 -47 126 -86T60 -150Z" />
<glyph unicode="-" glyph-name="hyphen" horiz-adv-x="294" d="M40 234V264H256V234H40Z" />
<glyph unicode="." glyph-name="period" horiz-adv-x="208" d="M104 -12Q90 -12 79 -2T68 26Q68 46 79 56T104 66Q118 66 129 56T140 26Q140 8 129 -2T104 -12Z" />
<glyph unicode="/" glyph-name="slash" horiz-adv-x="360" d="M8 -160L328 710H358L38 -160H8Z" />
<glyph unicode="0" glyph-name="zero" horiz-adv-x="472" d="M236 -12Q146 -12 98 75T50 322Q50 481 98 566T236 652Q326 652 374 567T422 322Q422 163 374 76T236 -12ZM236 16Q306 16 348 95T390 322Q390 470 348 547T236 624Q166 624 124 547T82 322Q82 174
124 95T236 16Z" />
<glyph unicode="1" glyph-name="one" horiz-adv-x="472" d="M86 0V28H238V580H124V602Q162 608 191 618T242 640H268V28H410V0H86Z" />
<glyph unicode="2" glyph-name="two" horiz-adv-x="472" d="M42 0V20Q204 186 283 288T362 476Q362 538 327 581T216 624Q171 624 132 600T62 538L40 558Q74 597 117 624T218 652Q302 652 348 604T394 476Q394 378 312 276T88 24Q115 26 142 27T196 28H426V0H42Z" />
<glyph unicode="3" glyph-name="three" horiz-adv-x="472" d="M230 -12Q154 -12 107 17T30 78L50 100Q78 68 120 42T232 16Q300 16 344 57T388 166Q388 235 334 278T158 322V352Q272 352 318 395T364 498Q364 555 327 589T228 624Q183 624 144 603T78 552L58 574Q90
606 131 629T228 652Q298 652 347 612T396 500Q396 436 360 397T272 340V336Q332 324 376 281T420 168Q420 86 366 37T230 -12Z" />
<glyph unicode="4" glyph-name="four" horiz-adv-x="472" d="M58 224H312V476Q312 497 313 529T316 582H312Q300 562 287 545T260 506L58 224ZM440 196H342V0H312V196H16V212L322 640H342V224H440V196Z" />
<glyph unicode="5" glyph-name="five" horiz-adv-x="472" d="M224 -12Q148 -12 102 16T26 74L46 96Q74 66 115 41T226 16Q292 16 342 66T392 198Q392 279 348 325T228 372Q190 372 162 360T106 328L80 344L104 640H390V612H132L110 366Q136 382 164 392T230 402Q311
402 367 354T424 200Q424 98 362 43T224 -12Z" />
<glyph unicode="6" glyph-name="six" horiz-adv-x="472" d="M428 186Q428 100 378 44T258 -12Q162 -12 108 67T54 288Q54 424 86 503T172 617T286 652Q328 652 359 636T414 592L394 570Q350 624 284 624Q204 624 145 551T86 293Q120 334 162 359T252 384Q336 384
382 333T428 186ZM260 16Q318 16 357 66T396 186Q396 258 362 307T250 356Q215 356 172 333T87 255Q92 150 133 83T260 16Z" />
<glyph unicode="7" glyph-name="seven" horiz-adv-x="472" d="M192 0Q197 132 218 236T281 430T388 612H44V640H430V622Q353 519 311 424T250 227T226 0H192Z" />
<glyph unicode="8" glyph-name="eight" horiz-adv-x="472" d="M240 -12Q153 -12 97 38T40 164Q40 230 82 277T170 348V352Q136 374 107 410T78 498Q78 566 125 609T240 652Q321 652 365 604T410 486Q410 432 378 387T318 320V316Q358 290 394 254T430 154Q430
85 378 37T240 -12ZM288 330Q378 401 378 486Q378 542 342 583T240 624Q183 624 147 588T110 498Q110 450 136 419T204 368T288 330ZM240 16Q312 16 355 56T398 154Q398 206 368 238T292 292T194 334Q142 304 107 262T72 164Q72 102 119 59T240 16Z" />
<glyph unicode="9" glyph-name="nine" horiz-adv-x="472" d="M222 284Q257 284 300 307T385 385Q380 490 339 557T212 624Q154 624 115 574T76 454Q76 382 110 333T222 284ZM186 -12Q144 -12 113 4T58 48L78 70Q122 16 188 16Q268 16 327 89T386 347Q352 306 310
281T220 256Q136 256 90 307T44 454Q44 540 94 596T214 652Q310 652 364 573T418 352Q418 216 386 137T300 23T186 -12Z" />
<glyph unicode=":" glyph-name="colon" horiz-adv-x="208" d="M104 378Q90 378 79 388T68 416Q68 436 79 446T104 456Q118 456 129 446T140 416Q140 398 129 388T104 378ZM104 -12Q90 -12 79 -2T68 26Q68 46 79 56T104 66Q118 66 129 56T140 26Q140 8 129 -2T104 -12Z" />
<glyph unicode=";" glyph-name="semicolon" horiz-adv-x="208" d="M60 -150L48 -126Q80 -108 100 -77T120 -5Q115 -6 108 -6Q72 -6 72 30Q72 48 83 57T108 66Q152 66 152 4Q152 -47 126 -86T60 -150ZM104 378Q90 378 79 388T68 416Q68 436 79 446T104 456Q118
456 129 446T140 416Q140 398 129 388T104 378Z" />
<glyph unicode="&lt;" glyph-name="less" horiz-adv-x="472" d="M438 152L34 314V350L438 512V480L198 386L66 334V330L198 278L438 184V152Z" />
<glyph unicode="=" glyph-name="equal" horiz-adv-x="472" d="M34 416V444H438V416H34ZM34 472V500H438V472H34Z" />
<glyph unicode="&gt;" glyph-name="greater" horiz-adv-x="472" d="M34 152V184L274 278L406 330V334L274 386L34 480V512L438 350V314L34 152Z" />
<glyph unicode="?" glyph-name="question" horiz-adv-x="394" d="M164 172Q156 236 176 282T228 366T285 442T310 530Q310 578 282 616T190 654Q109 654 56 588L36 606Q64 638 102 660T192 682Q264 682 303 638T342 532Q342 480 317 439T260 359T206 276T192 172H164ZM182
-12Q168 -12 157 -2T146 26Q146 46 157 56T182 66Q196 66 207 56T218 26Q218 8 207 -2T182 -12Z" />
<glyph unicode="@" glyph-name="at" horiz-adv-x="802" d="M382 -142Q238 -142 145 -51T52 202Q52 331 106 426T250 575T442 628Q584 628 667 543T750 316Q750 232 722 175T653 88T572 58Q533 58 507 76T478 134H476Q449 106 419 85T354 64Q309 64 276 97T242
198Q242 245 263 296T326 384T426 420Q480 420 510 372H512L520 412H546L512 228Q476 86 574 86Q622 86 671 145T720 314Q720 446 644 523T440 600Q348 600 266 551T133 413T82 204Q82 58 165 -28T384 -114Q435 -114 476 -100T554 -64L568 -88Q484 -142 382 -142ZM356
92Q409 92 470 162L502 340Q482 370 465 381T424 392Q377 392 343 363T291 289T272 200Q272 140 297 116T356 92Z" />
<glyph unicode="A" glyph-name="A" horiz-adv-x="520" d="M182 396L135 264H384L338 396Q317 456 299 510T262 626H258Q240 564 222 510T182 396ZM476 0L394 236H125L42 0H10L246 660H274L510 0H476Z" />
<glyph unicode="B" glyph-name="B" horiz-adv-x="574" d="M100 0V660H272Q371 660 428 621T486 500Q486 448 460 410T382 356V352Q448 342 488 302T528 192Q528 98 462 49T284 0H100ZM132 366H252Q360 366 407 401T454 498Q454 572 404 602T258 632H132V366ZM132
28H272Q376 28 436 67T496 190Q496 265 437 301T272 338H132V28Z" />
<glyph unicode="C" glyph-name="C" horiz-adv-x="562" d="M328 -12Q206 -12 131 82T56 332Q56 488 132 580T334 672Q391 672 433 648T502 594L482 572Q455 604 418 623T334 642Q220 642 155 558T90 332Q90 190 154 104T330 18Q382 18 423 39T502 102L522 82Q484
38 438 13T328 -12Z" />
<glyph unicode="D" glyph-name="D" horiz-adv-x="600" d="M100 0V660H248Q401 660 472 570T544 332Q544 185 473 93T248 0H100ZM132 28H244Q385 28 447 115T510 332Q510 462 448 547T244 632H132V28Z" />
<glyph unicode="E" glyph-name="E" horiz-adv-x="510" d="M100 0V660H454V632H132V366H402V338H132V28H464V0H100Z" />
<glyph unicode="F" glyph-name="F" horiz-adv-x="470" d="M100 0V660H452V632H132V354H402V326H132V0H100Z" />
<glyph unicode="G" glyph-name="G" horiz-adv-x="600" d="M334 -12Q208 -12 132 82T56 332Q56 488 135 580T344 672Q410 672 452 647T520 594L500 572Q474 600 437 621T344 642Q226 642 158 558T90 332Q90 190 155 104T336 18Q384 18 426 32T494 72V290H330V318H526V62Q496
29 447 9T334 -12Z" />
<glyph unicode="H" glyph-name="H" horiz-adv-x="634" d="M100 0V660H132V366H502V660H534V0H502V338H132V0H100Z" />
<glyph unicode="I" glyph-name="I" horiz-adv-x="232" d="M100 0V660H132V0H100Z" />
<glyph unicode="J" glyph-name="J" horiz-adv-x="456" d="M200 -12Q94 -12 44 82L70 98Q96 54 127 36T202 18Q326 18 326 178V660H358V174Q358 96 323 42T200 -12Z" />
<glyph unicode="K" glyph-name="K" horiz-adv-x="550" d="M100 0V660H132V280H134L470 660H510L298 418L538 0H500L274 394L132 234V0H100Z" />
<glyph unicode="L" glyph-name="L" horiz-adv-x="460" d="M100 0V660H132V28H442V0H100Z" />
<glyph unicode="M" glyph-name="M" horiz-adv-x="698" d="M100 0V660H152L294 260Q308 222 321 185T348 110H352Q366 148 378 185T404 260L546 660H598V0H566V460Q566 499 567 545T570 632H566L515 486L366 74H332L182 486L130 632H126Q128 592 129 546T130 460V0H100Z" />
<glyph unicode="N" glyph-name="N" horiz-adv-x="632" d="M100 0V660H134L426 176L502 46H506Q504 94 503 140T502 232V660H532V0H498L206 484L130 614H126Q128 568 129 524T130 434V0H100Z" />
<glyph unicode="O" glyph-name="O" horiz-adv-x="648" d="M324 -12Q207 -12 132 82T56 332Q56 488 131 580T324 672Q441 672 516 580T592 332Q592 176 517 82T324 -12ZM324 18Q429 18 493 104T558 332Q558 474 494 558T324 642Q219 642 155 558T90 332Q90 190
154 104T324 18Z" />
<glyph unicode="P" glyph-name="P" horiz-adv-x="542" d="M100 0V660H258Q370 660 432 620T494 480Q494 386 434 339T262 292H132V0H100ZM132 320H250Q356 320 408 357T460 480Q460 567 407 599T246 632H132V320Z" />
<glyph unicode="Q" glyph-name="Q" horiz-adv-x="648" d="M514 -152Q434 -152 381 -112T304 -11Q195 -3 126 90T56 332Q56 488 131 580T324 672Q441 672 516 580T592 332Q592 182 522 89T341 -11Q388 -120 516 -120Q538 -120 554 -118T582 -112L590 -142Q578 -145
557 -148T514 -152ZM324 16Q429 16 493 103T558 332Q558 474 494 558T324 642Q219 642 155 558T90 332Q90 190 154 103T324 16Z" />
<glyph unicode="R" glyph-name="R" horiz-adv-x="534" d="M132 340H270Q362 340 411 377T460 490Q460 568 411 600T270 632H132V340ZM132 0H100V660H282Q380 660 437 621T494 490Q494 411 447 366T316 314L504 0H466L280 312H132V0Z" />
<glyph unicode="S" glyph-name="S" horiz-adv-x="516" d="M268 -12Q194 -12 140 16T48 88L70 110Q106 68 157 43T268 18Q348 18 395 57T442 160Q442 226 406 255T320 306L218 352Q190 364 159 383T106 434T84 514Q84 584 137 628T270 672Q330 672 376 649T450
594L430 572Q402 604 362 623T270 642Q201 642 159 608T116 516Q116 454 156 426T232 382L334 336Q389 311 431 275T474 162Q474 87 418 38T268 -12Z" />
<glyph unicode="T" glyph-name="T" horiz-adv-x="520" d="M244 0V632H30V660H490V632H276V0H244Z" />
<glyph unicode="U" glyph-name="U" horiz-adv-x="630" d="M314 -12Q261 -12 212 10T130 88T98 246V660H130V254Q130 163 156 112T224 39T314 18Q363 18 406 39T475 111T502 254V660H532V246Q532 144 500 88T417 10T314 -12Z" />
<glyph unicode="V" glyph-name="V" horiz-adv-x="482" d="M226 0L6 660H40L168 264Q188 202 203 152T240 41H244Q265 102 280 152T316 264L444 660H476L258 0H226Z" />
<glyph unicode="W" glyph-name="W" horiz-adv-x="764" d="M184 0L30 660H64L152 260Q164 206 176 152T200 44H204Q216 98 229 152T256 260L364 660H400L508 260Q522 206 535 152T562 44H566Q578 98 589 152T612 260L700 660H732L580 0H548L420 474Q411 513 402
548T384 622H380Q371 583 361 548T342 474L216 0H184Z" />
<glyph unicode="X" glyph-name="X" horiz-adv-x="470" d="M18 0L218 342L32 660H66L182 456Q196 434 208 415T236 368H240Q255 395 265 414T290 456L406 660H438L252 340L452 0H418L296 212Q282 236 267 261T234 316H230Q214 286 200 261T172 212L50 0H18Z" />
<glyph unicode="Y" glyph-name="Y" horiz-adv-x="436" d="M202 0V272L4 660H38L144 446Q162 410 179 375T216 304H220Q240 340 259 375T294 446L400 660H432L234 272V0H202Z" />
<glyph unicode="Z" glyph-name="Z" horiz-adv-x="538" d="M52 0V18L444 632H86V660H484V642L92 28H488V0H52Z" />
<glyph unicode="[" glyph-name="bracketleft" horiz-adv-x="270" d="M100 -152V708H252V686H124V-130H252V-152H100Z" />
<glyph unicode="\" glyph-name="backslash" horiz-adv-x="360" d="M322 -160L2 710H32L352 -160H322Z" />
<glyph unicode="]" glyph-name="bracketright" horiz-adv-x="270" d="M18 -152V-130H146V686H18V708H170V-152H18Z" />
<glyph unicode="^" glyph-name="asciicircum" horiz-adv-x="472" d="M68 292L218 670H254L404 292H372L290 506L238 638H234L182 506L100 292H68Z" />
<glyph unicode="_" glyph-name="underscore" horiz-adv-x="500" d="M12 -114V-82H488V-114H12Z" />
<glyph unicode="`" glyph-name="grave" horiz-adv-x="532" d="M300 574L162 724L186 744L318 590L300 574Z" />
<glyph unicode="a" glyph-name="a" horiz-adv-x="486" d="M200 16Q244 16 285 37T374 98V272Q216 254 154 217T92 118Q92 62 124 39T200 16ZM198 -12Q142 -12 101 18T60 117Q60 197 136 238T374 298Q375 337 367 374T332 437T256 462Q205 462 164 442T100 404L84
428Q106 444 153 467T258 490Q342 490 373 436T404 310V0H378L374 64H372Q334 34 290 11T198 -12Z" />
<glyph unicode="b" glyph-name="b" horiz-adv-x="538" d="M274 -12Q240 -12 201 4T128 48H126L122 0H96V722H126V508L124 412Q162 444 205 467T294 490Q392 490 439 424T486 246Q486 124 423 56T274 -12ZM276 16Q354 16 404 81T454 246Q454 338 417 400T292 462Q219
462 126 378V82Q168 46 208 31T276 16Z" />
<glyph unicode="c" glyph-name="c" horiz-adv-x="446" d="M268 -12Q176 -12 115 54T54 238Q54 358 118 424T268 490Q318 490 351 471T408 430L388 408Q364 430 335 446T268 462Q192 462 139 400T86 238Q86 139 136 78T268 16Q308 16 342 33T402 74L420 52Q390
25 352 7T268 -12Z" />
<glyph unicode="d" glyph-name="d" horiz-adv-x="540" d="M254 16Q296 16 335 38T414 100V396Q374 432 339 447T266 462Q190 462 138 397T86 238Q86 139 129 78T254 16ZM252 -12Q162 -12 108 52T54 238Q54 354 117 422T268 490Q312 490 345 474T416 430L414 520V722H444V0H418L414
64H412Q382 34 342 11T252 -12Z" />
<glyph unicode="e" glyph-name="e" horiz-adv-x="478" d="M272 -12Q182 -12 118 54T54 238Q54 355 117 422T260 490Q342 490 391 433T440 270Q440 262 440 255T438 238H86Q86 142 137 79T274 16Q314 16 346 28T406 60L420 34Q393 18 360 3T272 -12ZM86 266H410Q410
365 369 413T260 462Q196 462 145 410T86 266Z" />
<glyph unicode="f" glyph-name="f" horiz-adv-x="252" d="M244 450H130V0H100V450H34V474L100 478V596Q100 666 129 700T210 734Q241 734 276 718L266 692Q238 706 208 706Q130 706 130 592V478H244V450Z" />
<glyph unicode="g" glyph-name="g" horiz-adv-x="480" d="M240 180Q292 180 332 219T372 322Q372 386 333 424T240 462Q186 462 147 424T108 322Q108 259 148 220T240 180ZM250 -234Q158 -234 106 -197T54 -100Q54 -68 73 -37T126 18V22Q108 32 96 51T84 98Q84
131 102 153T136 186V190Q114 210 95 244T76 322Q76 394 123 442T240 490Q260 490 276 486T302 478H462V450H346Q372 429 388 396T404 322Q404 250 357 201T240 152Q193 152 158 174Q142 160 129 143T116 100Q116 73 135 54T210 34H316Q470 34 470 -74Q470 -134
410 -184T250 -234ZM252 -206Q338 -206 388 -165T438 -76Q438 2 322 2H212Q208 2 191 4T154 10Q118 -14 102 -42T86 -98Q86 -146 129 -176T252 -206Z" />
<glyph unicode="h" glyph-name="h" horiz-adv-x="522" d="M126 366V0H96V722H126V400Q165 439 204 464T294 490Q438 490 438 308V0H408V304Q408 384 381 423T292 462Q247 462 210 438T126 366Z" />
<glyph unicode="i" glyph-name="i" horiz-adv-x="222" d="M112 600Q98 600 88 609T78 634Q78 650 88 659T112 668Q126 668 136 659T146 634Q146 619 136 610T112 600ZM96 0V478H126V0H96Z" />
<glyph unicode="j" glyph-name="j" horiz-adv-x="222" d="M112 600Q98 600 88 609T78 634Q78 650 88 659T112 668Q126 668 136 659T146 634Q146 619 136 610T112 600ZM28 -234Q13 -234 -3 -230T-30 -222L-22 -196Q-13 -199 1 -202T30 -206Q72 -206 84 -175T96
-98V478H126V-102Q126 -234 28 -234Z" />
<glyph unicode="k" glyph-name="k" horiz-adv-x="452" d="M96 0V722H126V174H128L376 478H412L258 290L440 0H406L240 266L126 132V0H96Z" />
<glyph unicode="l" glyph-name="l" horiz-adv-x="230" d="M144 -12Q96 -12 96 52V722H126V46Q126 16 146 16Q154 16 164 18L170 -8Q164 -10 159 -11T144 -12Z" />
<glyph unicode="m" glyph-name="m" horiz-adv-x="806" d="M96 0V478H122L126 402H128Q161 440 201 465T280 490Q338 490 369 463T412 390Q454 436 495 463T576 490Q718 490 718 308V0H688V304Q688 462 574 462Q506 462 422 366V0H392V304Q392 462 278 462Q210
462 126 366V0H96Z" />
<glyph unicode="n" glyph-name="n" horiz-adv-x="526" d="M96 0V478H122L126 402H128Q166 440 205 465T294 490Q438 490 438 308V0H408V304Q408 384 381 423T292 462Q247 462 210 438T126 366V0H96Z" />
<glyph unicode="o" glyph-name="o" horiz-adv-x="532" d="M266 -12Q180 -12 117 54T54 238Q54 358 117 424T266 490Q352 490 415 424T478 238Q478 120 415 54T266 -12ZM266 16Q342 16 394 77T446 238Q446 337 394 399T266 462Q190 462 138 400T86 238Q86 139 138
78T266 16Z" />
<glyph unicode="p" glyph-name="p" horiz-adv-x="540" d="M276 16Q354 16 404 81T454 246Q454 338 417 400T292 462Q254 462 213 440T126 378V82Q170 46 209 31T276 16ZM126 48V-222H96V478H122L126 416H128Q164 444 206 467T294 490Q392 490 439 424T486 246Q486
124 423 56T274 -12Q208 -12 126 48Z" />
<glyph unicode="q" glyph-name="q" horiz-adv-x="540" d="M414 -222V-32L416 66Q383 34 343 11T252 -12Q162 -12 108 52T54 238Q54 354 117 422T268 490Q312 490 345 475T412 434H414L418 478H444V-222H414ZM254 16Q296 16 335 38T414 100V396Q374 432 339 447T266
462Q190 462 138 397T86 238Q86 139 129 78T254 16Z" />
<glyph unicode="r" glyph-name="r" horiz-adv-x="306" d="M96 0V478H122L126 388H128Q152 432 186 461T264 490Q290 490 310 480L302 452Q281 460 260 460Q227 460 191 431T126 332V0H96Z" />
<glyph unicode="s" glyph-name="s" horiz-adv-x="400" d="M208 -12Q154 -12 110 7T34 54L54 78Q84 52 120 34T210 16Q270 16 301 47T332 118Q332 166 293 190T212 230Q156 250 106 277T56 366Q56 416 94 453T206 490Q242 490 277 477T338 442L320 418Q296 436
269 449T204 462Q144 462 116 433T88 368Q88 324 124 303T204 266Q242 252 279 236T340 194T364 120Q364 68 324 28T208 -12Z" />
<glyph unicode="t" glyph-name="t" horiz-adv-x="302" d="M218 -12Q152 -12 129 26T106 126V450H30V474L106 478L110 618H136V478H278V450H136V122Q136 76 152 46T220 16Q234 16 251 21T282 32L292 6Q271 -2 251 -7T218 -12Z" />
<glyph unicode="u" glyph-name="u" horiz-adv-x="524" d="M232 -12Q88 -12 88 170V478H118V174Q118 94 145 55T234 16Q279 16 316 41T398 120V478H428V0H402L398 82H396Q360 40 321 14T232 -12Z" />
<glyph unicode="v" glyph-name="v" horiz-adv-x="422" d="M194 0L12 478H46L160 168Q172 134 185 99T210 32H214Q226 64 239 99T264 168L378 478H410L230 0H194Z" />
<glyph unicode="w" glyph-name="w" horiz-adv-x="672" d="M168 0L24 478H58L150 156Q159 123 167 93T184 30H188Q197 62 206 92T224 156L316 478H358L450 156Q459 123 468 93T486 30H490Q499 62 508 92T526 156L616 478H648L508 0H466L376 312Q366 346 357 380T338
448H334Q325 414 316 379T294 310L206 0H168Z" />
<glyph unicode="x" glyph-name="x" horiz-adv-x="392" d="M14 0L178 250L28 478H62L144 350Q156 330 169 311T196 272H200Q214 292 226 311T252 350L332 478H364L214 248L378 0H344L254 138Q228 180 196 226H192Q177 205 163 183T134 138L46 0H14Z" />
<glyph unicode="y" glyph-name="y" horiz-adv-x="424" d="M66 -222Q40 -222 20 -212L28 -184Q48 -192 68 -192Q113 -192 144 -153T196 -56L210 -12L12 478H46L168 164Q180 134 194 98T222 30H226Q238 62 250 98T272 164L380 478H412L220 -68Q202 -124 165 -173T66 -222Z" />
<glyph unicode="z" glyph-name="z" horiz-adv-x="396" d="M26 0V16L320 450H58V478H360V462L66 28H370V0H26Z" />
<glyph unicode="{" glyph-name="braceleft" horiz-adv-x="270" d="M222 -152Q168 -152 141 -127T114 -26Q114 30 118 81T122 184Q122 216 105 241T36 266V290Q88 290 105 315T122 370Q122 424 118 475T114 582Q114 657 141 682T222 708H252V686H220Q172 686 156
659T140 578Q140 528 143 483T146 382Q146 340 136 315T98 280V276Q126 267 136 241T146 174Q146 118 143 73T140 -22Q140 -76 156 -103T220 -130H252V-152H222Z" />
<glyph unicode="|" glyph-name="bar" horiz-adv-x="220" d="M96 -250V750H124V-250H96Z" />
<glyph unicode="}" glyph-name="braceright" horiz-adv-x="270" d="M18 -152V-130H50Q98 -130 114 -103T130 -22Q130 28 127 73T124 174Q124 214 134 240T172 276V280Q144 289 134 314T124 382Q124 438 127 483T130 578Q130 632 114 659T50 686H18V708H48Q102
708 129 683T156 582Q156 526 152 475T148 370Q148 340 165 315T234 290V266Q182 266 165 241T148 184Q148 132 152 81T156 -26Q156 -101 129 -126T48 -152H18Z" />
<glyph unicode="~" glyph-name="asciitilde" horiz-adv-x="472" d="M326 270Q288 270 258 293T201 339T144 362Q122 362 102 348T64 298L42 310Q62 350 90 370T146 390Q184 390 214 367T271 321T328 298Q350 298 370 312T408 362L430 348Q410 309 382 290T326 270Z" />
<glyph unicode="&#xa0;" glyph-name="space" horiz-adv-x="200" />
<glyph unicode="&#xa1;" glyph-name="exclamdown" horiz-adv-x="248" d="M124 412Q110 412 99 422T88 452Q88 470 99 480T124 490Q138 490 149 480T160 452Q160 432 149 422T124 412ZM108 -192V-130L112 306H136L140 -130V-192H108Z" />
<glyph unicode="&#xa2;" glyph-name="cent" horiz-adv-x="472" d="M428 148Q398 121 361 103T280 84V-26H252V85Q170 93 116 151T62 312Q62 415 118 473T252 539V652H280V540Q328 539 360 521T416 480L398 460Q374 482 344 497T280 512V112Q319 113 352 129T410
168L428 148ZM94 312Q94 229 137 175T252 113V510Q184 502 139 449T94 312Z" />
<glyph unicode="&#xa3;" glyph-name="sterling" horiz-adv-x="472" d="M418 28V0H58V18Q115 51 139 105T164 218Q164 238 161 257T154 296H54V322L120 324H146Q135 364 124 404T112 486Q112 562 156 607T276 652Q327 652 361 631T416 582L394 562Q373 588 345
606T274 624Q210 624 177 584T144 488Q144 445 156 406T179 324H346V296H185Q189 278 191 259T194 218Q194 152 174 109T118 32V28H418Z" />
<glyph unicode="&#xa4;" glyph-name="currency" horiz-adv-x="472" d="M52 118L32 140L98 208Q60 259 60 328Q60 400 98 451L32 520L52 542L118 473Q167 520 236 520Q304 520 354 473L420 542L440 520L373 451Q412 399 412 328Q412 293 402 263T374 208L440 140L420
118L354 186Q306 138 236 138Q167 138 117 186L52 118ZM236 166Q294 166 337 211T380 328Q380 400 337 446T236 492Q178 492 135 446T92 328Q92 256 135 211T236 166Z" />
<glyph unicode="&#xa5;" glyph-name="yen" horiz-adv-x="472" d="M220 0V168H52V196H220V270H52V298H208L32 640H66L166 438Q182 405 199 372T234 300H238Q258 338 274 371T308 438L408 640H440L262 298H420V270H250V196H420V168H250V0H220Z" />
<glyph unicode="&#xa6;" glyph-name="brokenbar" horiz-adv-x="220" d="M96 274V750H124V274H96ZM96 -250V222H124V-250H96Z" />
<glyph unicode="&#xa7;" glyph-name="section" horiz-adv-x="472" d="M82 358Q82 302 121 274T213 225T308 176Q347 194 368 216T390 282Q390 340 351 369T259 419T165 468Q129 448 106 424T82 358ZM232 -48Q181 -48 143 -31T76 12L98 34Q124 10 154 -5T232 -20Q280
-20 309 7T338 70Q338 113 309 138T238 180T153 218T81 269T52 356Q52 405 78 435T142 487Q126 502 117 522T108 568Q108 607 139 643T238 680Q277 680 311 665T372 628L354 606Q330 626 304 639T238 652Q184 652 161 626T138 570Q138 528 166 504T237 463T321
425T391 373T420 284Q420 233 395 205T333 157Q349 141 358 121T368 72Q368 20 326 -14T232 -48Z" />
<glyph unicode="&#xa8;" glyph-name="dieresis" horiz-adv-x="532" d="M352 602Q320 602 320 634Q320 666 352 666Q384 666 384 634Q384 602 352 602ZM180 602Q148 602 148 634Q148 666 180 666Q212 666 212 634Q212 602 180 602Z" />
<glyph unicode="&#xa9;" glyph-name="copyright" horiz-adv-x="740" d="M370 -12Q284 -12 212 29T96 146T52 322Q52 422 95 496T211 611T370 652Q456 652 528 611T644 496T688 322Q688 221 645 146T529 30T370 -12ZM370 14Q447 14 512 52T618 160T658 322Q658
413 618 481T513 588T370 626Q293 626 228 588T122 482T82 322Q82 230 122 161T227 53T370 14ZM374 124Q305 124 254 176T202 322Q202 409 256 458T380 508Q419 508 446 493T498 454L480 432Q456 454 433 466T378 478Q316 478 276 435T236 322Q236 244 274 199T376
154Q414 154 443 169T496 206L512 184Q485 159 455 142T374 124Z" />
<glyph unicode="&#xaa;" glyph-name="ordfeminine" horiz-adv-x="334" d="M146 428Q197 428 252 480V588Q153 578 114 554T74 494Q74 428 146 428ZM140 402Q98 402 71 425T44 492Q44 544 94 572T252 610Q252 650 238 679T180 708Q148 708 117 695T70 670L58 692Q76
704 109 719T182 734Q239 734 259 700T280 612V410H258L252 450H248Q227 432 200 417T140 402Z" />
<glyph unicode="&#xab;" glyph-name="guillemotleft" horiz-adv-x="388" d="M180 74L42 238V266L180 430L200 412L76 252L200 90L180 74ZM314 74L176 238V266L314 430L334 412L210 252L334 90L314 74Z" />
<glyph unicode="&#xac;" glyph-name="logicalnot" horiz-adv-x="472" d="M406 112V316H34V344H438V112H406Z" />
<glyph unicode="&#xad;" glyph-name="uni00AD" horiz-adv-x="294" d="M40 234V264H256V234H40Z" />
<glyph unicode="&#xae;" glyph-name="registered" horiz-adv-x="392" d="M196 326Q122 326 69 378T16 518Q16 605 69 658T196 712Q270 712 323 659T376 518Q376 431 323 379T196 326ZM196 352Q259 352 303 399T348 518Q348 590 304 638T196 686Q133 686 89 638T44
518Q44 446 88 399T196 352ZM158 522H188Q242 522 242 560Q242 578 231 589T192 600H158V522ZM130 418V626H196Q224 626 248 613T272 562Q272 542 260 526T232 506L282 418H248L208 496H158V418H130Z" />
<glyph unicode="&#xaf;" glyph-name="overscore" horiz-adv-x="532" d="M146 608V636H386V608H146Z" />
<glyph unicode="&#xb0;" glyph-name="degree" horiz-adv-x="304" d="M152 454Q110 454 76 484T42 568Q42 624 76 654T152 684Q194 684 228 654T262 568Q262 514 228 484T152 454ZM152 480Q188 480 211 505T234 568Q234 607 211 632T152 658Q116 658 93 633T70
568Q70 530 93 505T152 480Z" />
<glyph unicode="&#xb1;" glyph-name="plusminus" horiz-adv-x="472" d="M220 102V312H34V340H220V548H252V340H438V312H252V102H220ZM34 0V28H438V0H34Z" />
<glyph unicode="&#xb2;" glyph-name="two.sups" horiz-adv-x="360" d="M58 410V430Q162 528 208 582T254 688Q254 733 229 759T164 786Q136 786 111 767T70 722L50 740Q66 768 98 790T166 812Q218 812 251 782T284 690Q284 627 235 571T106 436H308V410H58Z" />
<glyph unicode="&#xb3;" glyph-name="three.sups" horiz-adv-x="360" d="M176 398Q131 398 97 421T42 472L66 490Q84 462 114 443T178 424Q217 424 245 447T274 512Q274 552 235 574T130 596V620Q192 620 225 647T258 708Q258 742 234 764T170 786Q146 786 122
771T78 732L58 750Q78 776 107 794T172 812Q220 812 254 785T288 710Q288 672 266 647T210 610Q246 604 275 579T304 512Q304 458 267 428T176 398Z" />
<glyph unicode="&#xb4;" glyph-name="acute" horiz-adv-x="532" d="M232 574L214 590L346 744L370 724L232 574Z" />
<glyph unicode="&#xb5;" glyph-name="uni00B5" horiz-adv-x="536" d="M96 -180V478H126V174Q126 100 152 58T238 16Q277 16 316 35T402 134V478H432Q431 370 431 265T430 52Q430 16 458 16Q468 16 486 22L492 -4Q485 -7 476 -9T456 -12Q423 -12 412 12T402 92H400Q336
-12 242 -12Q203 -12 173 1T122 54Q122 -3 122 -39T123 -107T126 -180H96Z" />
<glyph unicode="&#xb6;" glyph-name="paragraph" horiz-adv-x="498" d="M290 250Q179 250 111 296T42 454Q42 565 106 612T272 660H316V250H290ZM370 -80V660H402V-80H370Z" />
<glyph unicode="&#xb7;" glyph-name="middot" horiz-adv-x="208" d="M104 284Q90 284 79 294T68 322Q68 342 79 352T104 362Q118 362 129 352T140 322Q140 304 129 294T104 284Z" />
<glyph unicode="&#xb8;" glyph-name="cedilla" horiz-adv-x="532" d="M202 -216L196 -190Q262 -186 286 -172T310 -136Q310 -96 232 -84L272 2H300L270 -66Q302 -74 321 -89T340 -134Q340 -207 202 -216Z" />
<glyph unicode="&#xb9;" glyph-name="one.sups" horiz-adv-x="360" d="M178 410V740H96V762Q148 773 180 800H206V410H178Z" />
<glyph unicode="&#xba;" glyph-name="ordmasculine" horiz-adv-x="358" d="M178 402Q118 402 76 446T34 568Q34 648 76 691T178 734Q238 734 280 691T322 568Q322 490 280 446T178 402ZM178 428Q229 428 260 467T292 568Q292 631 261 669T178 708Q127 708 96 670T64
568Q64 506 95 467T178 428Z" />
<glyph unicode="&#xbb;" glyph-name="guillemotright" horiz-adv-x="388" d="M74 74L54 90L178 252L54 412L74 430L212 266V238L74 74ZM208 74L188 90L312 252L188 412L208 430L346 266V238L208 74Z" />
<glyph unicode="&#xbc;" glyph-name="onequarter" horiz-adv-x="758" d="M158 270V600H76V622Q128 633 160 660H186V270H158ZM176 -12L546 672H578L208 -12H176ZM486 144H622V238L626 340H622L564 256L486 144ZM708 118H650V0H622V118H446V134L628 390H650V144H708V118Z" />
<glyph unicode="&#xbd;" glyph-name="onehalf" horiz-adv-x="778" d="M158 270V600H76V622Q128 633 160 660H186V270H158ZM152 -12L522 672H554L184 -12H152ZM476 0V20Q580 118 626 172T672 278Q672 323 647 349T582 376Q554 376 529 357T488 312L468 330Q484
358 516 380T584 402Q636 402 669 372T702 280Q702 217 653 161T524 26H726V0H476Z" />
<glyph unicode="&#xbe;" glyph-name="threequarters" horiz-adv-x="778" d="M176 258Q131 258 97 281T42 332L66 350Q84 322 114 303T178 284Q217 284 245 307T274 372Q274 412 235 434T130 456V480Q192 480 225 507T258 568Q258 602 234 624T170 646Q146 646
122 631T78 592L58 610Q78 636 107 654T172 672Q220 672 254 645T288 570Q288 532 266 507T210 470Q246 464 275 439T304 372Q304 318 267 288T176 258ZM226 -12L596 672H628L258 -12H226ZM506 144H642V238L646 340H642L584 256L506 144ZM728 118H670V0H642V118H466V134L648
390H670V144H728V118Z" />
<glyph unicode="&#xbf;" glyph-name="questiondown" horiz-adv-x="394" d="M212 412Q198 412 187 422T176 452Q176 470 187 480T212 490Q226 490 237 480T248 452Q248 432 237 422T212 412ZM202 -204Q130 -204 91 -160T52 -54Q52 -2 77 39T134 119T188 202T202
306H230Q238 242 218 196T166 112T109 36T84 -52Q84 -100 112 -138T204 -176Q285 -176 338 -110L358 -128Q330 -160 292 -182T202 -204Z" />
<glyph unicode="&#xc0;" glyph-name="Agrave" horiz-adv-x="520" d="M182 396L135 264H384L338 396Q317 456 299 510T262 626H258Q240 564 222 510T182 396ZM476 0L394 236H125L42 0H10L246 660H274L510 0H476ZM282 710L156 822L178 846L296 726L282 710Z" />
<glyph unicode="&#xc1;" glyph-name="Aacute" horiz-adv-x="520" d="M182 396L135 264H384L338 396Q317 456 299 510T262 626H258Q240 564 222 510T182 396ZM476 0L394 236H125L42 0H10L246 660H274L510 0H476ZM238 710L224 726L342 846L364 822L238 710Z" />
<glyph unicode="&#xc2;" glyph-name="Acircumflex" horiz-adv-x="520" d="M182 396L135 264H384L338 396Q317 456 299 510T262 626H258Q240 564 222 510T182 396ZM476 0L394 236H125L42 0H10L246 660H274L510 0H476ZM130 726L246 840H274L390 726L376 710L262
810H258L144 710L130 726Z" />
<glyph unicode="&#xc3;" glyph-name="Atilde" horiz-adv-x="520" d="M182 396L135 264H384L338 396Q317 456 299 510T262 626H258Q240 564 222 510T182 396ZM476 0L394 236H125L42 0H10L246 660H274L510 0H476ZM338 722Q299 722 276 742T232 783T182 804Q159 804
143 782T124 724L100 726Q102 769 122 800T182 832Q221 832 244 812T288 771T338 750Q361 750 376 772T396 830L420 828Q418 785 398 754T338 722Z" />
<glyph unicode="&#xc4;" glyph-name="Adieresis" horiz-adv-x="520" d="M182 396L135 264H384L338 396Q317 456 299 510T262 626H258Q240 564 222 510T182 396ZM476 0L394 236H125L42 0H10L246 660H274L510 0H476ZM356 728Q324 728 324 760Q324 792 356 792Q388
792 388 760Q388 728 356 728ZM164 728Q132 728 132 760Q132 792 164 792Q196 792 196 760Q196 728 164 728Z" />
<glyph unicode="&#xc5;" glyph-name="Aring" horiz-adv-x="520" d="M260 700Q225 700 201 723T176 784Q176 822 200 845T260 868Q294 868 319 845T344 784Q344 746 319 723T260 700ZM260 722Q283 722 300 737T318 784Q318 813 301 829T260 846Q235 846 218 830T200
784Q200 753 217 738T260 722ZM182 396L135 264H384L338 396Q317 456 299 510T262 626H258Q240 564 222 510T182 396ZM476 0L394 236H125L42 0H10L246 660H274L510 0H476Z" />
<glyph unicode="&#xc6;" glyph-name="AE" horiz-adv-x="804" d="M280 392L203 254H414V630H410Q378 573 346 514T280 392ZM414 0V226H187L60 0H26L398 660H748V632H446V366H696V338H446V28H758V0H414Z" />
<glyph unicode="&#xc7;" glyph-name="Ccedilla" horiz-adv-x="562" d="M402 -134Q402 -207 264 -216L258 -190Q324 -186 348 -172T372 -136Q372 -96 294 -84L327 -12Q206 -12 131 82T56 332Q56 488 132 580T334 672Q391 672 433 648T502 594L482 572Q455 604 418
623T334 642Q220 642 155 558T90 332Q90 190 154 104T330 18Q382 18 423 39T502 102L522 82Q489 43 449 19T356 -11L332 -66Q364 -74 383 -89T402 -134Z" />
<glyph unicode="&#xc8;" glyph-name="Egrave" horiz-adv-x="510" d="M100 0V660H454V632H132V366H402V338H132V28H464V0H100ZM303 710L177 822L199 846L317 726L303 710Z" />
<glyph unicode="&#xc9;" glyph-name="Eacute" horiz-adv-x="510" d="M100 0V660H454V632H132V366H402V338H132V28H464V0H100ZM259 710L245 726L363 846L385 822L259 710Z" />
<glyph unicode="&#xca;" glyph-name="Ecircumflex" horiz-adv-x="510" d="M100 0V660H454V632H132V366H402V338H132V28H464V0H100ZM151 726L267 840H295L411 726L397 710L283 810H279L165 710L151 726Z" />
<glyph unicode="&#xcb;" glyph-name="Edieresis" horiz-adv-x="510" d="M100 0V660H454V632H132V366H402V338H132V28H464V0H100ZM377 728Q345 728 345 760Q345 792 377 792Q409 792 409 760Q409 728 377 728ZM185 728Q153 728 153 760Q153 792 185 792Q217 792
217 760Q217 728 185 728Z" />
<glyph unicode="&#xcc;" glyph-name="Igrave" horiz-adv-x="232" d="M100 0V660H132V0H100ZM138 710L12 822L34 846L152 726L138 710Z" />
<glyph unicode="&#xcd;" glyph-name="Iacute" horiz-adv-x="232" d="M100 0V660H132V0H100ZM94 710L80 726L198 846L220 822L94 710Z" />
<glyph unicode="&#xce;" glyph-name="Icircumflex" horiz-adv-x="232" d="M100 0V660H132V0H100ZM-14 726L102 840H130L246 726L232 710L118 810H114L0 710L-14 726Z" />
<glyph unicode="&#xcf;" glyph-name="Idieresis" horiz-adv-x="232" d="M100 0V660H132V0H100ZM212 728Q180 728 180 760Q180 792 212 792Q244 792 244 760Q244 728 212 728ZM20 728Q-12 728 -12 760Q-12 792 20 792Q52 792 52 760Q52 728 20 728Z" />
<glyph unicode="&#xd0;" glyph-name="Eth" horiz-adv-x="620" d="M268 0H120V336H38V362L120 364V660H268Q421 660 492 570T564 332Q564 185 493 93T268 0ZM152 28H264Q405 28 467 115T530 332Q530 462 468 547T264 632H152V364H320V336H152V28Z" />
<glyph unicode="&#xd1;" glyph-name="Ntilde" horiz-adv-x="632" d="M100 0V660H134L426 176L502 46H506Q504 94 503 140T502 232V660H532V0H498L206 484L130 614H126Q128 568 129 524T130 434V0H100ZM399 722Q360 722 337 742T293 783T243 804Q220 804 204 782T185
724L161 726Q162 769 183 800T243 832Q282 832 305 812T349 771T399 750Q422 750 437 772T457 830L481 828Q480 785 459 754T399 722Z" />
<glyph unicode="&#xd2;" glyph-name="Ograve" horiz-adv-x="648" d="M324 -12Q207 -12 132 82T56 332Q56 488 131 580T324 672Q441 672 516 580T592 332Q592 176 517 82T324 -12ZM324 18Q429 18 493 104T558 332Q558 474 494 558T324 642Q219 642 155 558T90 332Q90
190 154 104T324 18ZM346 710L220 822L242 846L360 726L346 710Z" />
<glyph unicode="&#xd3;" glyph-name="Oacute" horiz-adv-x="648" d="M324 -12Q207 -12 132 82T56 332Q56 488 131 580T324 672Q441 672 516 580T592 332Q592 176 517 82T324 -12ZM324 18Q429 18 493 104T558 332Q558 474 494 558T324 642Q219 642 155 558T90 332Q90
190 154 104T324 18ZM302 710L288 726L406 846L428 822L302 710Z" />
<glyph unicode="&#xd4;" glyph-name="Ocircumflex" horiz-adv-x="648" d="M324 -12Q207 -12 132 82T56 332Q56 488 131 580T324 672Q441 672 516 580T592 332Q592 176 517 82T324 -12ZM324 18Q429 18 493 104T558 332Q558 474 494 558T324 642Q219 642 155 558T90
332Q90 190 154 104T324 18ZM194 726L310 840H338L454 726L440 710L326 810H322L208 710L194 726Z" />
<glyph unicode="&#xd5;" glyph-name="Otilde" horiz-adv-x="648" d="M324 -12Q207 -12 132 82T56 332Q56 488 131 580T324 672Q441 672 516 580T592 332Q592 176 517 82T324 -12ZM324 18Q429 18 493 104T558 332Q558 474 494 558T324 642Q219 642 155 558T90 332Q90
190 154 104T324 18ZM402 722Q363 722 340 742T296 783T246 804Q223 804 207 782T188 724L164 726Q166 769 186 800T246 832Q285 832 308 812T352 771T402 750Q425 750 440 772T460 830L484 828Q482 785 462 754T402 722Z" />
<glyph unicode="&#xd6;" glyph-name="Odieresis" horiz-adv-x="648" d="M324 -12Q207 -12 132 82T56 332Q56 488 131 580T324 672Q441 672 516 580T592 332Q592 176 517 82T324 -12ZM324 18Q429 18 493 104T558 332Q558 474 494 558T324 642Q219 642 155 558T90
332Q90 190 154 104T324 18ZM420 728Q388 728 388 760Q388 792 420 792Q452 792 452 760Q452 728 420 728ZM228 728Q196 728 196 760Q196 792 228 792Q260 792 260 760Q260 728 228 728Z" />
<glyph unicode="&#xd7;" glyph-name="multiply" horiz-adv-x="472" d="M72 138L52 160L216 330L52 500L72 522L236 350L400 522L420 500L256 330L420 160L400 138L236 310L72 138Z" />
<glyph unicode="&#xd8;" glyph-name="Oslash" horiz-adv-x="648" d="M80 -20L58 -4L564 680L586 664L80 -20ZM328 -12Q211 -12 136 82T60 332Q60 488 135 580T328 672Q445 672 520 580T596 332Q596 176 521 82T328 -12ZM328 18Q433 18 497 104T562 332Q562 474
498 558T328 642Q223 642 159 558T94 332Q94 190 158 104T328 18Z" />
<glyph unicode="&#xd9;" glyph-name="Ugrave" horiz-adv-x="630" d="M314 -12Q261 -12 212 10T130 88T98 246V660H130V254Q130 163 156 112T224 39T314 18Q363 18 406 39T475 111T502 254V660H532V246Q532 144 500 88T417 10T314 -12ZM337 710L211 822L233 846L351
726L337 710Z" />
<glyph unicode="&#xda;" glyph-name="Uacute" horiz-adv-x="630" d="M314 -12Q261 -12 212 10T130 88T98 246V660H130V254Q130 163 156 112T224 39T314 18Q363 18 406 39T475 111T502 254V660H532V246Q532 144 500 88T417 10T314 -12ZM293 710L279 726L397 846L419
822L293 710Z" />
<glyph unicode="&#xdb;" glyph-name="Ucircumflex" horiz-adv-x="630" d="M314 -12Q261 -12 212 10T130 88T98 246V660H130V254Q130 163 156 112T224 39T314 18Q363 18 406 39T475 111T502 254V660H532V246Q532 144 500 88T417 10T314 -12ZM185 726L301 840H329L445
726L431 710L317 810H313L199 710L185 726Z" />
<glyph unicode="&#xdc;" glyph-name="Udieresis" horiz-adv-x="630" d="M314 -12Q261 -12 212 10T130 88T98 246V660H130V254Q130 163 156 112T224 39T314 18Q363 18 406 39T475 111T502 254V660H532V246Q532 144 500 88T417 10T314 -12ZM411 728Q379 728 379
760Q379 792 411 792Q443 792 443 760Q443 728 411 728ZM219 728Q187 728 187 760Q187 792 219 792Q251 792 251 760Q251 728 219 728Z" />
<glyph unicode="&#xdd;" glyph-name="Yacute" horiz-adv-x="436" d="M202 0V272L4 660H38L144 446Q162 410 179 375T216 304H220Q240 340 259 375T294 446L400 660H432L234 272V0H202ZM196 710L182 726L300 846L322 822L196 710Z" />
<glyph unicode="&#xde;" glyph-name="Thorn" horiz-adv-x="556" d="M100 0V660H132V540H272Q383 540 443 500T504 360Q504 266 444 219T272 172H132V0H100ZM132 200H260Q366 200 418 237T470 360Q470 447 418 479T260 512H132V200Z" />
<glyph unicode="&#xdf;" glyph-name="germandbls" horiz-adv-x="530" d="M360 -12Q321 -12 287 2T226 40L244 64Q272 40 299 28T360 16Q414 16 441 49T468 122Q468 166 447 191T393 233T329 266T276 307T254 376Q254 426 279 458T330 522T356 600Q356 645 331
674T256 704Q198 704 162 661T126 524V0H96V538Q96 630 141 681T258 732Q318 732 353 695T388 602Q388 550 363 516T312 451T286 378Q286 341 307 321T361 285T425 252T478 205T500 124Q500 66 460 27T360 -12Z" />
<glyph unicode="&#xe0;" glyph-name="agrave" horiz-adv-x="486" d="M200 16Q244 16 285 37T374 98V272Q216 254 154 217T92 118Q92 62 124 39T200 16ZM198 -12Q142 -12 101 18T60 117Q60 197 136 238T374 298Q375 337 367 374T332 437T256 462Q205 462 164 442T100
404L84 428Q106 444 153 467T258 490Q342 490 373 436T404 310V0H378L374 64H372Q334 34 290 11T198 -12ZM286 574L148 724L172 744L304 590L286 574Z" />
<glyph unicode="&#xe1;" glyph-name="aacute" horiz-adv-x="486" d="M200 16Q244 16 285 37T374 98V272Q216 254 154 217T92 118Q92 62 124 39T200 16ZM198 -12Q142 -12 101 18T60 117Q60 197 136 238T374 298Q375 337 367 374T332 437T256 462Q205 462 164 442T100
404L84 428Q106 444 153 467T258 490Q342 490 373 436T404 310V0H378L374 64H372Q334 34 290 11T198 -12ZM218 574L200 590L332 744L356 724L218 574Z" />
<glyph unicode="&#xe2;" glyph-name="acircumflex" horiz-adv-x="486" d="M200 16Q244 16 285 37T374 98V272Q216 254 154 217T92 118Q92 62 124 39T200 16ZM198 -12Q142 -12 101 18T60 117Q60 197 136 238T374 298Q375 337 367 374T332 437T256 462Q205 462 164
442T100 404L84 428Q106 444 153 467T258 490Q342 490 373 436T404 310V0H378L374 64H372Q334 34 290 11T198 -12ZM120 590L238 736H266L384 590L366 574L254 704H250L138 574L120 590Z" />
<glyph unicode="&#xe3;" glyph-name="atilde" horiz-adv-x="486" d="M200 16Q244 16 285 37T374 98V272Q216 254 154 217T92 118Q92 62 124 39T200 16ZM198 -12Q142 -12 101 18T60 117Q60 197 136 238T374 298Q375 337 367 374T332 437T256 462Q205 462 164 442T100
404L84 428Q106 444 153 467T258 490Q342 490 373 436T404 310V0H378L374 64H372Q334 34 290 11T198 -12ZM329 580Q290 580 267 605T224 655T174 680Q146 680 133 651T118 582L92 584Q95 627 111 666T176 706Q214 706 237 681T281 631T331 606Q359 606 371 635T386
704L412 702Q409 660 393 620T329 580Z" />
<glyph unicode="&#xe4;" glyph-name="adieresis" horiz-adv-x="486" d="M200 16Q244 16 285 37T374 98V272Q216 254 154 217T92 118Q92 62 124 39T200 16ZM198 -12Q142 -12 101 18T60 117Q60 197 136 238T374 298Q375 337 367 374T332 437T256 462Q205 462 164
442T100 404L84 428Q106 444 153 467T258 490Q342 490 373 436T404 310V0H378L374 64H372Q334 34 290 11T198 -12ZM338 602Q306 602 306 634Q306 666 338 666Q370 666 370 634Q370 602 338 602ZM166 602Q134 602 134 634Q134 666 166 666Q198 666 198 634Q198 602
166 602Z" />
<glyph unicode="&#xe5;" glyph-name="aring" horiz-adv-x="486" d="M200 16Q244 16 285 37T374 98V272Q216 254 154 217T92 118Q92 62 124 39T200 16ZM198 -12Q142 -12 101 18T60 117Q60 197 136 238T374 298Q375 337 367 374T332 437T256 462Q205 462 164 442T100
404L84 428Q106 444 153 467T258 490Q342 490 373 436T404 310V0H378L374 64H372Q334 34 290 11T198 -12ZM252 546Q213 546 187 572T160 640Q160 682 186 708T252 734Q291 734 317 708T344 640Q344 598 318 572T252 546ZM252 568Q280 568 300 587T320 640Q320 673
300 692T252 712Q224 712 204 693T184 640Q184 607 204 588T252 568Z" />
<glyph unicode="&#xe6;" glyph-name="ae" horiz-adv-x="784" d="M206 -12Q150 -12 109 18T68 116Q68 197 144 238T376 298Q377 337 369 374T334 437T258 462Q212 462 171 442T108 404L92 428Q114 444 160 467T260 490Q320 490 355 456T400 364Q426 421 471 455T570
490Q652 490 699 433T746 270Q746 262 746 255T744 238H406Q404 142 456 79T584 16Q624 16 654 28T712 60L726 34Q699 18 668 3T582 -12Q516 -12 476 20T410 90Q364 44 308 16T206 -12ZM406 264H716Q716 363 677 412T570 462Q507 462 461 407T406 264ZM208 16Q248
16 301 42T398 116Q388 138 382 173T376 244V272Q226 254 163 217T100 118Q100 62 132 39T208 16Z" />
<glyph unicode="&#xe7;" glyph-name="ccedilla" horiz-adv-x="446" d="M268 -12Q176 -12 115 54T54 238Q54 358 118 424T268 490Q318 490 351 471T408 430L388 408Q364 430 335 446T268 462Q192 462 139 400T86 238Q86 139 136 78T268 16Q308 16 342 33T402 74L420
52Q390 25 352 7T268 -12ZM189 -216L183 -190Q249 -186 273 -172T297 -136Q297 -96 219 -84L259 2H287L257 -66Q288 -74 307 -89T327 -134Q327 -207 189 -216Z" />
<glyph unicode="&#xe8;" glyph-name="egrave" horiz-adv-x="478" d="M272 -12Q182 -12 118 54T54 238Q54 355 117 422T260 490Q342 490 391 433T440 270Q440 262 440 255T438 238H86Q86 142 137 79T274 16Q314 16 346 28T406 60L420 34Q393 18 360 3T272 -12ZM86
266H410Q410 365 369 413T260 462Q196 462 145 410T86 266ZM294 574L156 724L180 744L312 590L294 574Z" />
<glyph unicode="&#xe9;" glyph-name="eacute" horiz-adv-x="478" d="M272 -12Q182 -12 118 54T54 238Q54 355 117 422T260 490Q342 490 391 433T440 270Q440 262 440 255T438 238H86Q86 142 137 79T274 16Q314 16 346 28T406 60L420 34Q393 18 360 3T272 -12ZM86
266H410Q410 365 369 413T260 462Q196 462 145 410T86 266ZM226 574L208 590L340 744L364 724L226 574Z" />
<glyph unicode="&#xea;" glyph-name="ecircumflex" horiz-adv-x="478" d="M272 -12Q182 -12 118 54T54 238Q54 355 117 422T260 490Q342 490 391 433T440 270Q440 262 440 255T438 238H86Q86 142 137 79T274 16Q314 16 346 28T406 60L420 34Q393 18 360 3T272
-12ZM86 266H410Q410 365 369 413T260 462Q196 462 145 410T86 266ZM128 590L246 736H274L392 590L374 574L262 704H258L146 574L128 590Z" />
<glyph unicode="&#xeb;" glyph-name="edieresis" horiz-adv-x="478" d="M272 -12Q182 -12 118 54T54 238Q54 355 117 422T260 490Q342 490 391 433T440 270Q440 262 440 255T438 238H86Q86 142 137 79T274 16Q314 16 346 28T406 60L420 34Q393 18 360 3T272 -12ZM86
266H410Q410 365 369 413T260 462Q196 462 145 410T86 266ZM346 602Q314 602 314 634Q314 666 346 666Q378 666 378 634Q378 602 346 602ZM174 602Q142 602 142 634Q142 666 174 666Q206 666 206 634Q206 602 174 602Z" />
<glyph unicode="&#xec;" glyph-name="igrave" horiz-adv-x="222" d="M96 0V478H126V0H96ZM145 574L7 724L31 744L163 590L145 574Z" />
<glyph unicode="&#xed;" glyph-name="iacute" horiz-adv-x="222" d="M96 0V478H126V0H96ZM77 574L59 590L191 744L215 724L77 574Z" />
<glyph unicode="&#xee;" glyph-name="icircumflex" horiz-adv-x="222" d="M96 0V478H126V0H96ZM-21 590L97 736H125L243 590L225 574L113 704H109L-3 574L-21 590Z" />
<glyph unicode="&#xef;" glyph-name="idieresis" horiz-adv-x="222" d="M96 0V478H126V0H96ZM197 602Q165 602 165 634Q165 666 197 666Q229 666 229 634Q229 602 197 602ZM25 602Q-7 602 -7 634Q-7 666 25 666Q57 666 57 634Q57 602 25 602Z" />
<glyph unicode="&#xf0;" glyph-name="eth" horiz-adv-x="532" d="M266 -12Q188 -12 125 49T62 218Q62 316 119 378T270 440Q361 440 423 361Q409 439 378 495T303 594L162 520L150 542L283 612Q255 637 223 658T156 700L172 722Q209 702 244 679T310 626L452 700L464
678L329 607Q389 547 426 460T464 250Q464 130 409 59T266 -12ZM266 16Q353 16 392 85T432 250Q432 284 429 315Q388 375 348 393T268 412Q182 412 138 353T94 218Q94 130 145 73T266 16Z" />
<glyph unicode="&#xf1;" glyph-name="ntilde" horiz-adv-x="526" d="M96 0V478H122L126 402H128Q166 440 205 465T294 490Q438 490 438 308V0H408V304Q408 384 381 423T292 462Q247 462 210 438T126 366V0H96ZM356 580Q318 580 295 605T251 655T201 680Q172 680
159 651T145 582L119 584Q122 627 138 666T203 706Q241 706 264 681T308 631T358 606Q386 606 399 635T413 704L439 702Q436 660 420 620T356 580Z" />
<glyph unicode="&#xf2;" glyph-name="ograve" horiz-adv-x="532" d="M266 -12Q180 -12 117 54T54 238Q54 358 117 424T266 490Q352 490 415 424T478 238Q478 120 415 54T266 -12ZM266 16Q342 16 394 77T446 238Q446 337 394 399T266 462Q190 462 138 400T86 238Q86
139 138 78T266 16ZM300 574L162 724L186 744L318 590L300 574Z" />
<glyph unicode="&#xf3;" glyph-name="oacute" horiz-adv-x="532" d="M266 -12Q180 -12 117 54T54 238Q54 358 117 424T266 490Q352 490 415 424T478 238Q478 120 415 54T266 -12ZM266 16Q342 16 394 77T446 238Q446 337 394 399T266 462Q190 462 138 400T86 238Q86
139 138 78T266 16ZM232 574L214 590L346 744L370 724L232 574Z" />
<glyph unicode="&#xf4;" glyph-name="ocircumflex" horiz-adv-x="532" d="M266 -12Q180 -12 117 54T54 238Q54 358 117 424T266 490Q352 490 415 424T478 238Q478 120 415 54T266 -12ZM266 16Q342 16 394 77T446 238Q446 337 394 399T266 462Q190 462 138 400T86
238Q86 139 138 78T266 16ZM134 590L252 736H280L398 590L380 574L268 704H264L152 574L134 590Z" />
<glyph unicode="&#xf5;" glyph-name="otilde" horiz-adv-x="532" d="M266 -12Q180 -12 117 54T54 238Q54 358 117 424T266 490Q352 490 415 424T478 238Q478 120 415 54T266 -12ZM266 16Q342 16 394 77T446 238Q446 337 394 399T266 462Q190 462 138 400T86 238Q86
139 138 78T266 16ZM343 580Q304 580 281 605T238 655T188 680Q160 680 147 651T132 582L106 584Q109 627 125 666T190 706Q228 706 251 681T295 631T345 606Q373 606 385 635T400 704L426 702Q423 660 407 620T343 580Z" />
<glyph unicode="&#xf6;" glyph-name="odieresis" horiz-adv-x="532" d="M266 -12Q180 -12 117 54T54 238Q54 358 117 424T266 490Q352 490 415 424T478 238Q478 120 415 54T266 -12ZM266 16Q342 16 394 77T446 238Q446 337 394 399T266 462Q190 462 138 400T86
238Q86 139 138 78T266 16ZM352 602Q320 602 320 634Q320 666 352 666Q384 666 384 634Q384 602 352 602ZM180 602Q148 602 148 634Q148 666 180 666Q212 666 212 634Q212 602 180 602Z" />
<glyph unicode="&#xf7;" glyph-name="divide" horiz-adv-x="472" d="M236 474Q204 474 204 510Q204 544 236 544Q268 544 268 510Q268 474 236 474ZM34 316V344H438V316H34ZM236 114Q204 114 204 150Q204 184 236 184Q268 184 268 150Q268 114 236 114Z" />
<glyph unicode="&#xf8;" glyph-name="oslash" horiz-adv-x="532" d="M86 238Q86 152 126 93L388 407Q338 462 266 462Q190 462 138 400T86 238ZM266 16Q342 16 394 77T446 238Q446 323 406 384L144 70Q194 16 266 16ZM266 -12Q183 -12 125 46L68 -22L46 -4L106
68Q82 99 68 142T54 238Q54 358 117 424T266 490Q350 490 408 431L464 498L486 480L427 409Q451 378 464 335T478 238Q478 120 415 54T266 -12Z" />
<glyph unicode="&#xf9;" glyph-name="ugrave" horiz-adv-x="524" d="M232 -12Q88 -12 88 170V478H118V174Q118 94 145 55T234 16Q279 16 316 41T398 120V478H428V0H402L398 82H396Q360 40 321 14T232 -12ZM296 574L158 724L182 744L314 590L296 574Z" />
<glyph unicode="&#xfa;" glyph-name="uacute" horiz-adv-x="524" d="M232 -12Q88 -12 88 170V478H118V174Q118 94 145 55T234 16Q279 16 316 41T398 120V478H428V0H402L398 82H396Q360 40 321 14T232 -12ZM228 574L210 590L342 744L366 724L228 574Z" />
<glyph unicode="&#xfb;" glyph-name="ucircumflex" horiz-adv-x="524" d="M232 -12Q88 -12 88 170V478H118V174Q118 94 145 55T234 16Q279 16 316 41T398 120V478H428V0H402L398 82H396Q360 40 321 14T232 -12ZM130 590L248 736H276L394 590L376 574L264 704H260L148
574L130 590Z" />
<glyph unicode="&#xfc;" glyph-name="udieresis" horiz-adv-x="524" d="M232 -12Q88 -12 88 170V478H118V174Q118 94 145 55T234 16Q279 16 316 41T398 120V478H428V0H402L398 82H396Q360 40 321 14T232 -12ZM348 602Q316 602 316 634Q316 666 348 666Q380 666
380 634Q380 602 348 602ZM176 602Q144 602 144 634Q144 666 176 666Q208 666 208 634Q208 602 176 602Z" />
<glyph unicode="&#xfd;" glyph-name="yacute" horiz-adv-x="424" d="M66 -222Q40 -222 20 -212L28 -184Q48 -192 68 -192Q113 -192 144 -153T196 -56L210 -12L12 478H46L168 164Q180 134 194 98T222 30H226Q238 62 250 98T272 164L380 478H412L220 -68Q202 -124
165 -173T66 -222ZM190 574L172 590L304 744L328 724L190 574Z" />
<glyph unicode="&#xfe;" glyph-name="thorn" horiz-adv-x="540" d="M276 16Q354 16 404 81T454 246Q454 338 417 400T292 462Q254 462 213 440T126 378V82Q170 46 209 31T276 16ZM126 48V-222H96V722H126V416Q164 444 206 467T294 490Q392 490 439 424T486 246Q486
124 423 56T274 -12Q208 -12 126 48Z" />
<glyph unicode="&#xff;" glyph-name="ydieresis" horiz-adv-x="424" d="M66 -222Q40 -222 20 -212L28 -184Q48 -192 68 -192Q113 -192 144 -153T196 -56L210 -12L12 478H46L168 164Q180 134 194 98T222 30H226Q238 62 250 98T272 164L380 478H412L220 -68Q202
-124 165 -173T66 -222ZM310 602Q278 602 278 634Q278 666 310 666Q342 666 342 634Q342 602 310 602ZM138 602Q106 602 106 634Q106 666 138 666Q170 666 170 634Q170 602 138 602Z" />
<glyph unicode="&#x2013;" glyph-name="endash" horiz-adv-x="480" d="M40 236V264H440V236H40Z" />
<glyph unicode="&#x2014;" glyph-name="emdash" horiz-adv-x="800" d="M40 236V264H760V236H40Z" />
<glyph unicode="&#x2018;" glyph-name="quoteleft" horiz-adv-x="208" d="M96 500Q58 500 58 558Q58 609 79 644T136 706L152 688Q120 661 104 634T88 565Q91 566 96 566Q108 566 119 558T130 534Q130 500 96 500Z" />
<glyph unicode="&#x2019;" glyph-name="quoteright" horiz-adv-x="208" d="M72 494L56 512Q88 539 104 566T120 635Q117 634 112 634Q100 634 89 642T78 666Q78 700 112 700Q150 700 150 642Q150 591 129 556T72 494Z" />
<glyph unicode="&#x201a;" glyph-name="quotesinglbase" horiz-adv-x="208" d="M72 -126L56 -108Q88 -81 104 -54T120 15Q117 14 112 14Q100 14 89 22T78 46Q78 80 112 80Q150 80 150 22Q150 -29 129 -64T72 -126Z" />
<glyph unicode="&#x201c;" glyph-name="quotedblleft" horiz-adv-x="336" d="M96 500Q58 500 58 558Q58 609 79 644T136 706L152 688Q120 661 104 634T88 565Q91 566 96 566Q108 566 119 558T130 534Q130 500 96 500ZM224 500Q186 500 186 558Q186 609 207 644T264
706L280 688Q248 661 232 634T216 565Q219 566 224 566Q236 566 247 558T258 534Q258 500 224 500Z" />
<glyph unicode="&#x201d;" glyph-name="quotedblright" horiz-adv-x="336" d="M72 494L56 512Q88 539 104 566T120 635Q117 634 112 634Q100 634 89 642T78 666Q78 700 112 700Q150 700 150 642Q150 591 129 556T72 494ZM200 494L184 512Q216 539 232 566T248
635Q245 634 240 634Q228 634 217 642T206 666Q206 700 240 700Q278 700 278 642Q278 591 257 556T200 494Z" />
<glyph unicode="&#x201e;" glyph-name="quotedblbase" horiz-adv-x="336" d="M72 -126L56 -108Q88 -81 104 -54T120 15Q117 14 112 14Q100 14 89 22T78 46Q78 80 112 80Q150 80 150 22Q150 -29 129 -64T72 -126ZM200 -126L184 -108Q216 -81 232 -54T248 15Q245
14 240 14Q228 14 217 22T206 46Q206 80 240 80Q278 80 278 22Q278 -29 257 -64T200 -126Z" />
<glyph unicode="&#x2022;" glyph-name="bullet" horiz-adv-x="272" d="M136 158Q100 158 70 186T40 264Q40 314 70 342T136 370Q172 370 202 342T232 264Q232 214 202 186T136 158Z" />
<glyph unicode="&#x2039;" glyph-name="guilsinglleft" horiz-adv-x="254" d="M180 74L42 238V266L180 430L200 412L76 252L200 90L180 74Z" />
<glyph unicode="&#x203a;" glyph-name="guilsinglright" horiz-adv-x="254" d="M74 74L54 90L178 252L54 412L74 430L212 266V238L74 74Z" />
</font>
</defs>
</svg>
