<?xml version="1.0" standalone="no"?>
<!DOCTYPE svg PUBLIC "-//W3C//DTD SVG 1.1//EN" "http://www.w3.org/Graphics/SVG/1.1/DTD/svg11.dtd">
<svg xmlns="http://www.w3.org/2000/svg">
<defs >
<font id="Maitree" horiz-adv-x="622" ><font-face
    font-family="Maitree"
    units-per-em="1000"
    panose-1="0 0 8 0 0 0 0 0 0 0"
    ascent="1150"
    descent="-500"
    alphabetic="0" />
<glyph unicode=" " glyph-name="space" horiz-adv-x="270" />
<glyph unicode="!" glyph-name="exclam" horiz-adv-x="348" d="M94 710H254L217 166H132L94 710ZM146 -15T128 3T109 51Q109 80 127 98T174 116Q202 116 221 98T240 51Q240 21 221 3T174 -15Q146 -15 128 3Z" />
<glyph unicode="&quot;" glyph-name="quotedbl" horiz-adv-x="450" d="M72 711L207 699L132 411H27L72 711ZM287 711L423 699L347 411H243L287 711Z" />
<glyph unicode="#" glyph-name="numbersign" horiz-adv-x="636" d="M102 144H17V239H119L140 349H52V444H157L183 582H306L280 444H396L422 582H545L519 444H604V349H502L481 239H571V144H464L437 0H314L341 144H225L198 0H75L102 144ZM358 239L379 349H263L242 239H358Z" />
<glyph unicode="$" glyph-name="dollar" horiz-adv-x="690" d="M253 -12Q200 -6 148 9T62 44V209Q62 220 68 226T86 233Q104 233 115 219T140 163L159 107Q178 95 215 87T292 78Q348 78 386 97T425 158Q425 187 412 207T368 246T277 293Q211 323 167 351T94 421T65
517Q65 595 119 641T259 697V781H369V695Q417 687 461 671T536 631V478Q536 468 530 461T513 454Q494 454 483 468T458 524L440 580Q388 607 317 607Q270 607 242 589T213 533Q213 509 229 491T272 457T356 414Q367 409 376 405T394 396Q451 368 489 341T550 273T573
174Q573 91 516 45T363 -12V-94H253V-12Z" />
<glyph unicode="%" glyph-name="percent" horiz-adv-x="891" d="M129 370T86 415T42 536Q42 611 85 655T204 700Q279 700 322 656T366 536Q366 460 323 415T204 370Q129 370 86 415ZM160 53L616 700L725 627L265 -17L160 53ZM227 457T241 475T256 536Q256 578
242 596T204 615Q181 615 167 597T152 536Q152 494 166 476T204 457Q227 457 241 475ZM612 -15T569 30T525 151Q525 226 568 270T687 315Q762 315 805 271T849 151Q849 75 806 30T687 -15Q612 -15 569 30ZM710 72T724 90T739 151Q739 193 725 211T687 230Q664 230
650 212T635 151Q635 109 649 91T687 72Q710 72 724 90Z" />
<glyph unicode="&amp;" glyph-name="ampersand" horiz-adv-x="746" d="M214 -15T157 8T66 74T32 174Q32 298 169 356Q130 394 108 434T86 521Q86 573 114 610T189 667T293 687Q356 687 403 665T474 604T499 520Q499 462 466 422T368 355L514 215Q537 250 547 306H496Q482
306 475 315T467 341Q467 366 485 378T533 391H726Q744 391 744 371Q744 356 736 347T709 330L633 301Q626 263 611 226T573 159L653 81L701 64Q726 56 737 46T748 21Q748 11 744 6T729 0H528L479 49Q444 20 394 3T283 -15Q214 -15 157 8ZM358 452T358 527Q358
561 341 581T295 602Q266 602 249 585T231 533Q231 502 249 472T297 417Q358 452 358 527ZM367 70T422 108L232 286Q177 245 177 177Q177 126 213 98T302 70Q367 70 422 108Z" />
<glyph unicode="&apos;" glyph-name="quotesingle" horiz-adv-x="234" d="M72 711L207 699L132 411H27L72 711Z" />
<glyph unicode="(" glyph-name="parenleft" horiz-adv-x="337" d="M108 12T74 121T39 350Q39 468 73 576T168 775H298Q246 674 218 570T189 350Q189 132 298 -79H168Q108 12 74 121Z" />
<glyph unicode=")" glyph-name="parenright" horiz-adv-x="337" d="M148 132T148 350Q148 465 120 569T39 775H169Q230 684 264 576T298 350Q298 231 264 122T169 -79H39Q148 132 148 350Z" />
<glyph unicode="*" glyph-name="asterisk" horiz-adv-x="427" d="M186 492L87 402L22 513L156 548L22 582L77 700L186 603L148 733H279L241 603L338 700L402 585L271 548L405 510L335 397L237 492L275 362H148L186 492Z" />
<glyph unicode="+" glyph-name="plus" horiz-adv-x="595" d="M223 273H49V388H223V572H372V388H546V273H372V96H223V273Z" />
<glyph unicode="," glyph-name="comma" horiz-adv-x="350" d="M57 -133Q82 -99 106 -48T134 34L103 44Q91 48 85 55T79 75Q79 95 92 107T127 119Q140 119 147 117L278 88Q262 29 221 -48T131 -178L57 -133Z" />
<glyph unicode="-" glyph-name="hyphen" horiz-adv-x="348" d="M15 357H333V242H15V357Z" />
<glyph unicode="." glyph-name="period" horiz-adv-x="285" d="M109 -15T86 8T62 66Q62 101 85 124T143 147Q176 147 199 124T223 66Q223 31 200 8T143 -15Q109 -15 86 8Z" />
<glyph unicode="/" glyph-name="slash" horiz-adv-x="406" d="M-38 -84L308 766L439 716L93 -134L-38 -84Z" />
<glyph unicode="0" glyph-name="zero" horiz-adv-x="732" d="M261 -15T189 32T82 161T47 342Q47 442 82 523T189 652T366 700Q471 700 543 652T650 523T685 342Q685 242 650 161T543 33T366 -15Q261 -15 189 32ZM448 78T491 147T535 342Q535 468 492 537T366 607Q284
607 241 538T197 342Q197 216 240 147T366 78Q448 78 491 147Z" />
<glyph unicode="1" glyph-name="one" horiz-adv-x="462" d="M64 0T57 9T49 35Q49 60 67 72T115 85H159V596L70 569Q56 569 48 577T39 602Q39 625 52 638T92 661L166 685H308V84L360 67Q388 58 399 48T410 23Q410 0 391 0H78Q64 0 57 9Z" />
<glyph unicode="2" glyph-name="two" horiz-adv-x="596" d="M54 109L272 328Q326 382 353 425T381 513Q381 558 353 579T280 601Q227 601 170 577L151 521Q137 478 126 464T96 450Q84 450 78 456T72 474V629Q196 695 309 695Q419 695 477 647T535 502Q535 439
498 377T387 242L243 97V93H544V0H54V109Z" />
<glyph unicode="3" glyph-name="three" horiz-adv-x="597" d="M204 -10T143 1T44 29V125Q89 107 145 95T251 83Q389 83 389 200Q389 246 355 276T266 306Q231 306 161 294V387L237 397Q366 413 366 508Q366 552 337 576T259 601Q206 601 149 577L130 521Q116 478
105 464T75 450Q63 450 57 456T51 474V629Q175 695 292 695Q388 695 451 653T515 528Q515 465 477 421T370 358Q445 346 491 302T538 187Q538 126 502 82T403 14T262 -10Q204 -10 143 1Z" />
<glyph unicode="4" glyph-name="four" horiz-adv-x="657" d="M375 137H27V224L354 685H524V230H610V137H524V0H375V137ZM375 230V548L150 230H375Z" />
<glyph unicode="5" glyph-name="five" horiz-adv-x="560" d="M189 -10T136 0T37 28V122Q76 106 127 95T224 83Q291 83 332 112T374 208Q374 268 338 301T243 334Q212 334 184 330T115 315L53 373L79 685H468V592H221L206 415Q257 427 309 427Q405 427 464 372T523
219Q523 100 444 45T243 -10Q189 -10 136 0Z" />
<glyph unicode="6" glyph-name="six" horiz-adv-x="618" d="M187 -10T117 80T47 329Q47 434 87 517T205 647T390 695Q426 695 479 683V592Q440 602 392 602Q338 602 293 578T222 504T195 387Q225 404 262 414T337 425Q410 425 463 399T543 325T571 216Q571 145
538 94T448 17T319 -10Q187 -10 117 80ZM370 83T396 121T422 211Q422 269 393 300T311 332Q284 332 253 321T196 292Q196 191 226 137T315 83Q370 83 396 121Z" />
<glyph unicode="7" glyph-name="seven" horiz-adv-x="584" d="M383 592H121L108 553Q101 530 90 518T61 506Q49 506 43 512T37 530V685H547V605L305 0H140L383 592Z" />
<glyph unicode="8" glyph-name="eight" horiz-adv-x="664" d="M250 -13T189 10T92 78T57 182Q57 236 95 282T199 358Q140 390 113 430T86 523Q86 572 117 612T205 675T336 698Q409 698 463 676T545 614T574 524Q574 474 548 437T465 362Q533 331 570 287T607 187Q607
126 571 81T471 12T328 -13Q250 -13 189 10ZM434 464T434 525Q434 562 406 583T336 605Q295 605 267 584T238 525Q238 464 336 419Q434 464 434 525ZM379 80T415 107T452 179Q452 219 415 250T326 303Q274 282 237 251T200 179Q200 134 236 107T326 80Q379 80 415
107Z" />
<glyph unicode="9" glyph-name="nine" horiz-adv-x="618" d="M214 -10T182 -6T129 6V97Q177 83 227 83Q309 83 364 131T423 278Q393 261 356 251T281 240Q209 240 156 269T75 348T47 459Q47 531 80 584T170 666T299 695Q433 695 502 608T571 356Q571 254 533 171T420
39T242 -10Q214 -10 182 -6ZM334 333T365 344T422 373Q422 482 392 542T303 602Q247 602 222 563T196 464Q196 405 225 369T307 333Q334 333 365 344Z" />
<glyph unicode=":" glyph-name="colon" horiz-adv-x="310" d="M115 356T89 382T62 449Q62 490 88 516T155 542Q195 542 221 516T248 449Q248 408 222 382T155 356Q115 356 89 382ZM115 -4T89 22T62 89Q62 130 88 156T155 182Q195 182 221 156T248 89Q248 48 222
22T155 -4Q115 -4 89 22Z" />
<glyph unicode=";" glyph-name="semicolon" horiz-adv-x="313" d="M123 356T97 382T70 449Q70 490 96 516T163 542Q203 542 229 516T256 449Q256 408 230 382T163 356Q123 356 97 382ZM34 -123Q59 -91 83 -43T111 34L80 44Q68 48 62 55T56 75Q56 95 69 107T104
119Q117 119 124 117L255 88Q240 34 196 -43T108 -168L34 -123Z" />
<glyph unicode="&lt;" glyph-name="less" horiz-adv-x="572" d="M52 260V372L454 595L510 487L193 316L510 145L454 37L52 260Z" />
<glyph unicode="=" glyph-name="equal" horiz-adv-x="542" d="M49 473H493V363H49V473ZM49 277H493V167H49V277Z" />
<glyph unicode="&gt;" glyph-name="greater" horiz-adv-x="572" d="M62 145L379 316L62 487L118 595L520 372V260L118 37L62 145Z" />
<glyph unicode="?" glyph-name="question" horiz-adv-x="489" d="M185 278Q185 327 204 360T263 437Q289 465 303 492T317 554Q317 588 296 611T238 635Q189 635 150 614L138 570Q127 526 93 526Q80 526 74 532T67 548V659Q97 683 147 701T254 720Q346 720 396
676T447 563Q447 513 428 478T373 404Q343 369 330 352T311 313T305 256V166H185V278ZM217 -15T199 3T180 51Q180 80 198 98T245 116Q273 116 292 98T311 51Q311 21 292 3T245 -15Q217 -15 199 3Z" />
<glyph unicode="@" glyph-name="at" horiz-adv-x="856" d="M305 -95T219 -51T86 77T39 280Q39 407 91 507T240 663T462 720Q573 720 658 676T791 550T839 357Q839 286 816 226T751 131T658 95Q626 95 597 109T548 149Q518 124 485 110T418 95Q335 95 287 146T239
295Q239 364 265 418T341 502T458 533Q497 533 537 526T628 503L611 247Q610 221 624 207T659 192Q693 192 715 238T737 358Q737 437 703 497T609 590T471 623Q372 623 298 581T183 462T142 283Q142 150 217 77T422 3Q516 3 652 53V-51Q520 -95 422 -95Q305 -95
219 -51ZM476 192T508 233L521 430Q490 435 459 435Q405 435 374 397T343 293Q343 192 419 192Q476 192 508 233Z" />
<glyph unicode="A" glyph-name="A" horiz-adv-x="771" d="M12 0T5 9T-3 35Q-3 60 15 72T63 85H73L303 695H464L696 84L730 70Q754 60 764 51T774 26Q774 0 757 0H481Q467 0 460 9T452 35Q452 60 470 72T518 85H545L500 199H226L183 84L237 64Q264 54 274 45T284
22Q284 0 267 0H26Q12 0 5 9ZM466 293L364 570L261 293H466Z" />
<glyph unicode="B" glyph-name="B" horiz-adv-x="737" d="M59 0T53 7T47 29Q47 50 61 61T113 88L126 93V602L113 607Q75 622 61 633T47 666Q47 681 53 688T69 695H412Q530 695 591 643T653 504Q653 459 627 421T554 365V361Q620 342 655 298T690 195Q690 104 625
52T450 0H69Q59 0 53 7ZM406 400Q452 400 477 428T503 501Q503 545 478 574T406 603H276V400H406ZM429 92Q483 92 511 119T540 198Q540 249 512 279T429 310H276V92H429Z" />
<glyph unicode="C" glyph-name="C" horiz-adv-x="676" d="M292 -15T212 26T84 150T36 349Q36 464 84 546T211 669T380 710Q460 710 521 689T624 633V489Q624 477 619 470T599 463Q580 463 570 476T550 521L529 590Q477 616 408 616Q344 616 295 586T217 496T188
349Q188 262 218 201T298 110T412 79Q457 79 491 88T554 116Q568 125 577 130T595 136Q610 136 622 124T634 94Q634 76 624 63T597 38Q566 16 515 1T390 -15Q292 -15 212 26Z" />
<glyph unicode="D" glyph-name="D" horiz-adv-x="773" d="M59 0T53 7T47 29Q47 50 61 61T113 88L126 93V602L113 607Q75 622 61 633T47 666Q47 681 53 688T69 695H392Q488 695 566 658T690 542T736 346Q736 229 690 152T567 37T392 0H69Q59 0 53 7ZM392 94Q487
94 535 160T584 346Q584 466 536 533T392 601H276V94H392Z" />
<glyph unicode="E" glyph-name="E" horiz-adv-x="726" d="M59 0T53 7T47 29Q47 50 61 61T113 88L126 93V602L113 607Q75 622 61 633T47 666Q47 681 53 688T69 695H652V523Q652 512 647 506T629 500Q615 500 605 515T581 570L569 603H276V400H503L520 436Q529 455
537 464T555 473Q576 473 576 453V257Q576 237 555 237Q546 237 538 246T520 274L503 310H276V92H584L596 125Q610 164 620 179T644 195Q657 195 662 189T667 172V0H69Q59 0 53 7Z" />
<glyph unicode="F" glyph-name="F" horiz-adv-x="679" d="M66 0T59 9T51 35Q51 60 68 72T117 85H126V602L113 607Q75 622 61 633T47 666Q47 681 53 688T69 695H625V521Q625 510 620 504T602 498Q588 498 578 513T554 568L542 601H276V376H476L493 412Q502 431
510 440T528 449Q549 449 549 429V229Q549 209 528 209Q519 209 511 218T493 246L476 282H276V84L314 65Q339 53 348 44T358 20Q358 10 354 5T339 0H80Q66 0 59 9Z" />
<glyph unicode="G" glyph-name="G" horiz-adv-x="744" d="M309 -15T225 24T90 145T39 349Q39 465 86 546T212 669T381 710Q461 710 523 689T627 633V489Q627 477 622 470T602 463Q583 463 573 476T553 521L532 590Q480 616 411 616Q311 616 251 548T191 349Q191
262 221 201T301 110T415 79Q456 79 487 90V271H421Q407 271 400 280T392 306Q392 331 410 343T458 356H694Q712 356 712 336Q712 322 704 314T670 291L637 272V33Q590 10 530 -2T410 -15Q309 -15 225 24Z" />
<glyph unicode="H" glyph-name="H" horiz-adv-x="847" d="M62 0T55 9T47 35Q47 60 64 72T113 85H122V610H76Q62 610 55 619T47 645Q47 670 65 682T113 695H335Q346 695 350 690T354 675Q354 661 345 652T310 630L272 611V408H573V610H522Q508 610 501 619T493
645Q493 670 511 682T559 695H782Q800 695 800 675Q800 661 792 653T765 634L723 611V84L765 61Q784 51 792 43T800 20Q800 0 782 0H522Q508 0 501 9T493 35Q493 60 511 72T559 85H573V314H272V84L310 65Q335 53 344 44T354 20Q354 10 350 5T335 0H76Q62 0 55 9Z"
/>
<glyph unicode="I" glyph-name="I" horiz-adv-x="411" d="M67 0T60 9T52 35Q52 60 70 72T118 85H127V610H81Q67 610 60 619T52 645Q52 670 70 682T118 695H340Q351 695 355 690T359 675Q359 661 350 652T315 630L277 611V84L315 65Q340 53 349 44T359 20Q359 10
355 5T340 0H81Q67 0 60 9Z" />
<glyph unicode="J" glyph-name="J" horiz-adv-x="459" d="M75 -15T53 9T27 84Q87 106 122 128T175 186T193 277V610H127Q113 610 106 619T98 645Q98 670 116 682T164 695H406Q417 695 421 690T425 675Q425 661 416 652T381 630L343 611V267Q343 166 303 104T211
12Q164 -15 111 -15Q75 -15 53 9Z" />
<glyph unicode="K" glyph-name="K" horiz-adv-x="762" d="M62 0T55 9T47 35Q47 60 65 72T113 85H122V610H76Q62 610 55 619T47 645Q47 670 65 682T113 695H333Q342 695 347 690T352 675Q352 660 343 651T310 630L272 611V84L310 65Q335 53 344 44T354 20Q354 0
335 0H76Q62 0 55 9ZM272 340L533 610H473Q459 610 452 619T444 645Q444 670 462 682T510 695H722Q745 695 745 667Q745 639 697 622L665 611L429 364L667 81L715 64Q740 56 751 46T762 21Q762 11 758 6T743 0H535L272 340Z" />
<glyph unicode="L" glyph-name="L" horiz-adv-x="645" d="M59 0T53 7T47 29Q47 50 61 61T113 88L126 93V610H80Q66 610 59 619T51 645Q51 670 69 682T117 695H349Q360 695 364 690T368 675Q368 660 358 650T324 630L276 611V94H543L566 157Q580 196 590 211T614
227Q627 227 632 221T637 204V0H69Q59 0 53 7Z" />
<glyph unicode="M" glyph-name="M" horiz-adv-x="1097" d="M31 0T24 9T16 35Q16 60 34 72T82 85H92L191 602L178 607Q140 622 126 633T112 666Q112 681 118 688T134 695H400L522 258Q531 224 537 170T545 99H549Q550 116 556 170T571 258L682 695H950Q960 695
966 688T972 666Q972 645 958 634T906 607L893 602L1005 85L1040 70Q1064 60 1074 51T1084 26Q1084 0 1067 0H790Q776 0 769 9T761 35Q761 60 779 72T827 85H860L770 510Q766 531 763 558T760 595H756Q755 586 751 559T741 510L612 0H449L304 510Q298 531 295 558T290
595H286Q286 586 284 559T278 510L201 84L255 64Q282 54 292 45T302 22Q302 0 285 0H45Q31 0 24 9Z" />
<glyph unicode="N" glyph-name="N" horiz-adv-x="824" d="M62 0T55 9T47 35Q47 60 65 72T113 85H122V604L109 609Q73 623 60 634T47 666Q47 681 53 688T69 695H260L522 317Q542 289 557 258T588 182V610H532Q518 610 511 619T503 645Q503 670 521 682T569 695H761Q772
695 776 690T780 675Q780 663 768 653T730 629L698 611V0H560L283 399Q268 421 258 444T232 512V84L280 64Q304 54 314 45T324 20Q324 10 320 5T305 0H76Q62 0 55 9Z" />
<glyph unicode="O" glyph-name="O" horiz-adv-x="766" d="M285 -15T208 23T85 143T39 347Q39 469 84 550T207 671T383 710Q481 710 558 671T681 551T727 347Q727 225 682 144T559 24T383 -15Q285 -15 208 23ZM478 79T526 147T575 347Q575 478 527 547T383 616Q288
616 240 547T191 347Q191 216 239 148T383 79Q478 79 526 147Z" />
<glyph unicode="P" glyph-name="P" horiz-adv-x="665" d="M66 0T59 9T51 35Q51 60 69 72T117 85H126V602L113 607Q75 622 61 633T47 666Q47 681 53 688T69 695H394Q470 695 527 669T615 593T647 479Q647 414 616 365T527 290T394 263H276V84L316 65Q347 51 357
43T368 20Q368 10 364 5T349 0H80Q66 0 59 9ZM380 357Q433 357 465 390T497 479Q497 535 465 568T380 601H276V357H380Z" />
<glyph unicode="Q" glyph-name="Q" horiz-adv-x="766" d="M471 -160T391 -85Q361 -57 322 -11Q194 7 117 96T39 347Q39 469 84 550T207 671T383 710Q481 710 558 671T681 551T727 347Q727 188 652 99T452 -10L458 -13Q498 -32 545 -47Q578 -57 591 -68T605 -102Q605
-131 588 -145T539 -160Q471 -160 391 -85ZM478 79T526 147T575 347Q575 478 527 547T383 616Q288 616 240 547T191 347Q191 216 239 148T383 79Q478 79 526 147Z" />
<glyph unicode="R" glyph-name="R" horiz-adv-x="736" d="M66 0T59 9T51 35Q51 60 69 72T117 85H126V608L113 613Q75 627 61 637T47 666Q47 681 53 688T69 695H397Q513 695 580 642T647 491Q647 406 596 356T451 294L632 81L680 64Q705 56 716 46T727 21Q727 11
723 6T708 0H500L276 289V84L314 65Q339 53 348 44T358 20Q358 10 354 5T339 0H80Q66 0 59 9ZM383 375Q437 375 467 405T497 491Q497 546 467 576T383 607H276V375H383Z" />
<glyph unicode="S" glyph-name="S" horiz-adv-x="600" d="M227 -15T156 2T41 45V212Q41 223 47 229T65 236Q84 236 95 222T120 165L139 109Q159 97 196 88T274 79Q331 79 370 98T409 160Q409 189 396 209T351 249T259 297Q192 328 147 357T73 427T44 524Q44 585
78 627T167 689T287 710Q353 710 416 691T522 640V485Q522 474 516 468T498 461Q479 461 468 475T443 532L424 588Q374 616 300 616Q252 616 223 597T194 541Q194 517 210 499T254 464T338 421L378 402Q436 374 474 346T535 277T559 177Q559 81 485 33T289 -15Q227
-15 156 2Z" />
<glyph unicode="T" glyph-name="T" horiz-adv-x="652" d="M191 0T184 9T176 35Q176 60 194 72T242 85H251V601H110L96 554Q87 523 77 509T50 494Q38 494 30 500T22 520V695H630V520Q630 507 622 501T602 494Q585 494 575 508T556 554L542 601H401V84L439 65Q464
53 473 44T483 20Q483 10 479 5T464 0H205Q191 0 184 9Z" />
<glyph unicode="U" glyph-name="U" horiz-adv-x="822" d="M330 -15T260 18T148 115T107 271V610H61Q47 610 40 619T32 645Q32 670 50 682T98 695H320Q331 695 335 690T339 675Q339 661 330 652T295 630L257 611V253Q257 168 302 124T425 79Q504 79 550 124T597
253V610H542Q528 610 521 619T513 645Q513 670 531 682T579 695H771Q782 695 786 691T790 677Q790 667 781 659T750 635L713 611V271Q713 177 675 113T569 17T417 -15Q330 -15 260 18Z" />
<glyph unicode="V" glyph-name="V" horiz-adv-x="795" d="M77 610H29Q15 610 8 619T0 645Q0 670 18 682T66 695H314Q333 695 333 675Q333 658 320 648T280 627L236 611L393 150Q399 132 402 113T406 89H410Q410 94 413 113T424 150L593 610H534Q520 610 513 619T505
645Q505 670 523 682T571 695H776Q795 695 795 675Q795 651 757 633L707 610L477 0H302L77 610Z" />
<glyph unicode="W" glyph-name="W" horiz-adv-x="1171" d="M78 610H30Q16 610 9 619T1 645Q1 670 19 682T67 695H305Q324 695 324 675Q324 658 311 648T271 627L227 611L355 185Q362 161 365 134T369 99H373Q374 107 377 134T387 185L516 695H678L823 185Q830
161 833 134T837 99H841Q842 107 845 134T855 185L971 610H906Q892 610 885 619T877 645Q877 670 895 682T943 695H1151Q1170 695 1170 675Q1170 651 1132 633L1082 610L907 0H729L600 458Q591 488 587 526T583 574H579Q578 563 574 526T562 458L446 0H268L78 610Z"
/>
<glyph unicode="X" glyph-name="X" horiz-adv-x="755" d="M19 0T12 9T4 35Q4 60 22 72T70 85H98L281 350L106 610H58Q44 610 37 619T29 645Q29 670 47 682T95 695H344Q363 695 363 675Q363 658 350 648T310 627L282 617L401 441L521 610H476Q462 610 455 619T447
645Q447 670 465 682T513 695H706Q725 695 725 675Q725 651 687 633L637 610L468 372L670 78L698 68Q725 58 738 48T751 20Q751 0 732 0H416Q402 0 395 9T387 35Q387 60 405 72T453 85H482L348 280L212 85L262 62Q300 44 300 20Q300 0 281 0H33Q19 0 12 9Z" />
<glyph unicode="Y" glyph-name="Y" horiz-adv-x="734" d="M229 0T222 9T214 35Q214 60 232 72T280 85H289V279L78 610H30Q16 610 9 619T1 645Q1 670 19 682T67 695H328Q347 695 347 673Q347 655 336 645T300 626L257 611L391 399L531 610H484Q470 610 463 619T455
645Q455 670 473 682T521 695H714Q733 695 733 675Q733 651 695 633L645 610L439 302V84L477 65Q502 53 511 44T521 20Q521 10 517 5T502 0H243Q229 0 222 9Z" />
<glyph unicode="Z" glyph-name="Z" horiz-adv-x="641" d="M38 99L404 601H141L127 550Q119 519 109 505T81 490Q69 490 61 496T53 516V695H587V596L221 94H515L529 145Q537 176 547 190T575 205Q587 205 595 199T603 179V0H38V99Z" />
<glyph unicode="[" glyph-name="bracketleft" horiz-adv-x="336" d="M50 785H299V691H190V-61H299V-155H50V785Z" />
<glyph unicode="\" glyph-name="backslash" horiz-adv-x="402" d="M-38 716L93 766L439 -84L308 -134L-38 716Z" />
<glyph unicode="]" glyph-name="bracketright" horiz-adv-x="336" d="M37 -61H146V691H37V785H286V-155H37V-61Z" />
<glyph unicode="^" glyph-name="asciicircum" horiz-adv-x="592" d="M52 355L254 680H337L539 355L431 294L296 517L160 294L52 355Z" />
<glyph unicode="_" glyph-name="underscore" horiz-adv-x="479" d="M-19 -100H498V-215H-19V-100Z" />
<glyph unicode="`" glyph-name="grave" horiz-adv-x="340" d="M62 711L167 780L278 592L198 539L62 711Z" />
<glyph unicode="a" glyph-name="a" horiz-adv-x="561" d="M125 -15T79 21T33 126Q33 205 89 241T234 290L339 306V338Q339 376 316 396T249 417Q223 417 193 409T146 391L135 352Q129 330 118 319T89 308Q76 308 70 314T63 330V446Q107 471 163 486T274 502Q366
502 422 459T479 334V76L509 61Q532 50 541 41T550 19Q550 9 546 5T532 0H341V46H337Q312 18 272 2T190 -15Q125 -15 79 21ZM276 74T307 103T339 169V226L259 213Q173 198 173 133Q173 107 189 91T234 74Q276 74 307 103Z" />
<glyph unicode="b" glyph-name="b" d="M258 -15T196 0T81 45V630H37Q10 630 10 663Q10 686 26 698T72 710H218V450L221 448Q251 473 288 487T366 502Q428 502 479 475T561 388T592 240Q592 156 555 99T456 13T319 -15Q258 -15 196 0ZM452 70T452 239Q452 417 326
417Q284 417 252 391T220 321V92Q263 70 315 70Q452 70 452 239Z" />
<glyph unicode="c" glyph-name="c" horiz-adv-x="506" d="M222 -15T161 15T64 104T28 245Q28 330 64 388T158 474T283 502Q340 502 389 484T469 441V328Q469 318 463 312T443 306Q409 306 398 350L386 396Q351 417 302 417Q244 417 206 374T168 244Q168 158 207
114T311 70Q339 70 363 78T414 103Q417 105 424 109T435 115T444 117Q459 117 469 106T479 77Q479 46 434 19Q378 -15 299 -15Q222 -15 161 15Z" />
<glyph unicode="d" glyph-name="d" horiz-adv-x="634" d="M199 -15T146 12T60 97T28 240Q28 320 61 379T153 470T281 502Q348 502 403 475V630H359Q332 630 332 663Q332 686 348 698T394 710H540V79L576 61Q599 50 608 41T617 19Q617 9 613 5T599 0H406V46H402Q379
18 343 2T262 -15Q199 -15 146 12ZM342 70T371 97T401 171V389Q383 401 357 409T306 417Q246 417 207 371T168 241Q168 155 203 113T295 70Q342 70 371 97Z" />
<glyph unicode="e" glyph-name="e" horiz-adv-x="542" d="M222 -15T162 13T66 99T30 239Q30 323 63 382T154 472T283 502Q349 502 402 476T485 402T515 289Q515 268 509 245T494 203H171Q171 136 210 103T304 70Q338 70 363 77T422 104Q425 106 433 110T446 116T455
118Q470 118 480 107T491 78Q491 61 481 49T449 23Q384 -15 297 -15Q222 -15 162 13ZM369 288Q375 302 375 319Q375 364 350 390T281 417Q237 417 206 383T171 288H369Z" />
<glyph unicode="f" glyph-name="f" horiz-adv-x="500" d="M44 0T44 33Q44 56 60 68T106 80H115V402H63Q50 402 42 411T34 437Q34 461 51 474T96 487H115V535Q115 629 170 675T310 722Q368 722 417 705T503 659V553Q503 543 497 537T477 531Q459 531 449 542T432
575L420 616Q384 637 345 637Q306 637 281 613T255 541V487H391Q411 487 411 465Q411 443 394 430T340 412L255 402V79L291 61Q314 50 323 41T332 19Q332 9 328 5T314 0H71Q44 0 44 33Z" />
<glyph unicode="g" glyph-name="g" horiz-adv-x="590" d="M234 -240T187 -229T110 -199Q88 -186 78 -174T68 -144Q68 -126 78 -115T104 -104Q110 -104 116 -107T128 -113T137 -118Q202 -155 275 -155Q340 -155 373 -121T406 -29V43H402Q380 16 344 1T262 -15Q199
-15 146 12T60 97T28 240Q28 328 65 387T165 474T301 502Q366 502 429 481T540 422V-9Q540 -119 472 -179T281 -240Q234 -240 187 -229ZM342 70T371 97T401 171V395Q357 417 306 417Q246 417 207 371T168 241Q168 155 203 113T295 70Q342 70 371 97Z" />
<glyph unicode="h" glyph-name="h" horiz-adv-x="670" d="M40 0T40 33Q40 56 56 68T102 80H111V630H67Q40 630 40 663Q40 686 56 698T102 710H247V432H251Q332 502 415 502Q489 502 535 461T581 347V79L617 61Q640 50 649 42T658 19Q658 9 654 5T640 0H397Q370
0 370 33Q370 56 386 68T432 80H441V336Q441 415 367 415Q338 415 307 399T251 355V79L287 61Q310 50 319 42T328 19Q328 9 324 5T310 0H67Q40 0 40 33Z" />
<glyph unicode="i" glyph-name="i" horiz-adv-x="329" d="M131 557T106 581T80 647Q80 688 105 712T170 737Q209 737 234 713T260 647Q260 606 235 582T170 557Q131 557 106 581ZM32 0T32 33Q32 56 48 68T94 80H103V412H59Q32 412 32 445Q32 468 48 480T94 492H243V79L279
61Q302 50 311 42T320 19Q320 9 316 5T302 0H59Q32 0 32 33Z" />
<glyph unicode="j" glyph-name="j" horiz-adv-x="373" d="M197 557T172 581T146 647Q146 688 171 712T236 737Q275 737 300 713T326 647Q326 606 301 582T236 557Q197 557 172 581ZM47 -240T25 -216T-1 -141Q59 -119 94 -97T147 -39T165 52V412H121Q94 412 94
445Q94 468 110 480T156 492H305V42Q305 -59 265 -121T173 -213Q148 -227 127 -233T83 -240Q47 -240 25 -216Z" />
<glyph unicode="k" glyph-name="k" horiz-adv-x="665" d="M40 0T40 33Q40 56 56 68T102 80H111V630H67Q40 630 40 663Q40 686 56 698T102 710H251V79L285 61Q309 48 317 40T326 19Q326 9 322 5T308 0H67Q40 0 40 33ZM251 252L420 407H360Q346 407 339 416T331
442Q331 467 349 479T397 492H595Q618 492 618 464Q618 435 570 419L538 408L398 275L555 81L603 64Q628 56 639 46T650 21Q650 11 646 6T631 0H441L251 252Z" />
<glyph unicode="l" glyph-name="l" horiz-adv-x="347" d="M42 0T42 33Q42 56 58 68T104 80H113V630H69Q42 630 42 663Q42 686 58 698T104 710H253V79L289 61Q312 50 321 42T330 19Q330 9 326 5T312 0H69Q42 0 42 33Z" />
<glyph unicode="m" glyph-name="m" horiz-adv-x="974" d="M37 0T37 33Q37 56 53 68T99 80H108V412H64Q37 412 37 445Q37 468 53 480T99 492H242V432H246Q331 502 412 502Q460 502 496 482T552 425Q639 502 729 502Q799 502 843 462T888 350V79L924 61Q945 50 953
41T962 19Q962 9 958 5T944 0H708Q681 0 681 33Q681 56 697 68T743 80H748V337Q748 375 733 394T679 413Q650 413 621 398T568 359V79L604 61Q625 50 633 41T642 19Q642 9 638 5T624 0H388Q361 0 361 33Q361 56 377 68T423 80H428V337Q428 375 413 394T359 413Q330
413 301 398T248 359V79L284 61Q305 50 313 41T322 19Q322 9 318 5T304 0H64Q37 0 37 33Z" />
<glyph unicode="n" glyph-name="n" horiz-adv-x="667" d="M37 0T37 33Q37 56 53 68T99 80H108V412H64Q37 412 37 445Q37 468 53 480T99 492H242V432H246Q283 464 325 483T412 502Q486 502 532 461T578 347V79L614 61Q637 50 646 42T655 19Q655 9 651 5T637 0H394Q367
0 367 33Q367 56 383 68T429 80H438V334Q438 413 364 413Q335 413 304 397T248 353V79L284 61Q307 50 316 42T325 19Q325 9 321 5T307 0H64Q37 0 37 33Z" />
<glyph unicode="o" glyph-name="o" horiz-adv-x="568" d="M214 -15T157 13T64 99T29 244Q29 330 63 388T156 474T284 502Q354 502 412 474T504 388T539 244Q539 158 504 100T412 13T284 -15Q214 -15 157 13ZM340 70T369 114T398 244Q398 329 369 373T284 417Q228
417 199 373T170 244Q170 159 199 115T284 70Q340 70 369 114Z" />
<glyph unicode="p" glyph-name="p" horiz-adv-x="654" d="M40 -213T40 -180Q40 -157 56 -145T102 -133H111V412H67Q40 412 40 445Q40 468 56 480T102 492H248V450L251 448Q315 502 391 502Q453 502 506 475T591 388T624 240Q624 118 554 52T367 -15Q341 -15 309
-9T250 9V-134L286 -152Q309 -163 318 -171T327 -194Q327 -204 323 -208T309 -213H67Q40 -213 40 -180ZM410 70T447 110T484 239Q484 329 451 373T356 417Q314 417 282 391T250 321V92Q270 81 296 76T345 70Q410 70 447 110Z" />
<glyph unicode="q" glyph-name="q" horiz-adv-x="627" d="M322 -213T322 -180Q322 -157 338 -145T384 -133H406V43H402Q380 16 344 1T262 -15Q199 -15 146 12T60 97T28 240Q28 320 61 379T153 470T281 502Q344 502 403 473Q407 482 417 487T438 492H540V-134L576
-152Q599 -163 608 -171T617 -194Q617 -204 613 -208T599 -213H349Q322 -213 322 -180ZM342 70T371 97T401 171V389Q383 401 357 409T306 417Q246 417 207 371T168 241Q168 155 203 113T295 70Q342 70 371 97Z" />
<glyph unicode="r" glyph-name="r" horiz-adv-x="489" d="M37 0T37 33Q37 56 53 68T99 80H108V412H64Q37 412 37 445Q37 468 53 480T99 492H242V390H246Q280 438 326 470T417 502Q451 502 469 483T487 435Q487 417 481 400T464 372Q340 372 248 304V79L284 61Q307
50 316 42T325 19Q325 9 321 5T307 0H64Q37 0 37 33Z" />
<glyph unicode="s" glyph-name="s" horiz-adv-x="465" d="M171 -15T117 1T32 39V156Q32 166 38 173T58 180Q92 180 103 135L114 94Q128 83 155 77T212 70Q293 70 293 113Q293 133 276 146T206 185L171 202Q94 241 63 274T32 361Q32 425 87 463T225 502Q282 502
332 484T412 441V330Q412 320 406 314T386 308Q352 308 341 352L329 396Q294 417 245 417Q212 417 192 406T172 371Q172 351 186 340T253 302L302 277Q373 240 403 208T433 121Q433 50 374 18T226 -15Q171 -15 117 1Z" />
<glyph unicode="t" glyph-name="t" horiz-adv-x="456" d="M216 -15T170 25T123 134V402H54Q41 402 33 411T25 437Q25 461 42 474T87 487H125L146 602H263V487H418Q425 487 430 483T436 470Q436 451 422 441T375 424L263 402V125Q263 97 277 84T317 70Q345 70 373
91Q377 94 386 101T404 108Q419 108 429 99T439 72Q439 43 395 15Q347 -15 284 -15Q216 -15 170 25Z" />
<glyph unicode="u" glyph-name="u" horiz-adv-x="649" d="M177 -15T131 26T85 140V412H41Q14 412 14 445Q14 468 30 480T76 492H225V153Q225 74 299 74Q328 74 359 90T415 134V412H371Q344 412 344 445Q344 468 360 480T406 492H555V79L591 61Q614 50 623 42T632
19Q632 9 628 5T614 0H421V55H417Q380 23 338 4T251 -15Q177 -15 131 26Z" />
<glyph unicode="v" glyph-name="v" horiz-adv-x="615" d="M57 412H21Q-6 412 -6 445Q-6 468 10 480T56 492H264Q274 492 278 488T282 473Q282 460 272 451T241 431L202 411L302 116Q306 103 310 86T315 63H319Q320 68 324 86T332 116L441 412H391Q364 412 364
445Q364 468 380 480T426 492H603Q613 492 617 488T621 473Q621 461 611 452T580 431L543 411L389 0H209L57 412Z" />
<glyph unicode="w" glyph-name="w" horiz-adv-x="938" d="M57 412H21Q-6 412 -6 445Q-6 468 10 480T56 492H264Q274 492 278 488T282 473Q282 460 272 450T241 431L195 411L279 134Q284 117 286 98T289 72H293Q293 78 296 97T303 134L392 492H566L668 134Q673
117 675 98T678 72H682Q682 78 684 97T692 134L767 412H714Q687 412 687 445Q687 468 703 480T749 492H926Q936 492 940 488T944 473Q944 461 934 452T903 431L866 411L748 0H569L477 331Q471 352 468 379T464 415H460Q460 407 457 380T448 331L364 0H185L57 412Z"
/>
<glyph unicode="x" glyph-name="x" horiz-adv-x="581" d="M5 0T5 33Q5 54 21 67T60 80H68L189 254L83 412H40Q13 412 13 445Q13 466 29 479T68 492H198L317 311L388 412H352Q325 412 325 445Q325 466 341 479T380 492H550Q565 492 565 473Q565 461 557 452T527
431L492 411L380 254L501 81L538 61Q559 50 567 41T576 19Q576 0 561 0H388L252 199L172 81L207 61Q228 50 236 41T245 19Q245 0 230 0H32Q5 0 5 33Z" />
<glyph unicode="y" glyph-name="y" horiz-adv-x="605" d="M94 -228T72 -210T50 -160Q50 -137 64 -114Q128 -114 166 -97T229 -26L241 0L59 412H23Q-4 412 -4 445Q-4 468 12 480T58 492H266Q276 492 280 488T284 473Q284 460 274 451T243 431L204 411L303 179Q308
167 309 151T311 130H316Q316 135 318 151T324 179L431 412H381Q354 412 354 445Q354 468 370 480T416 492H593Q603 492 607 488T611 473Q611 461 601 452T570 431L533 411L345 -6Q312 -80 284 -126T217 -200T128 -228Q94 -228 72 -210Z" />
<glyph unicode="z" glyph-name="z" horiz-adv-x="462" d="M31 98L257 407H122L111 366Q105 343 96 332T68 321Q55 321 49 328T42 345V492H420V394L193 85H351L362 126Q368 149 377 160T405 171Q418 171 424 164T431 147V0H31V98Z" />
<glyph unicode="{" glyph-name="braceleft" horiz-adv-x="452" d="M234 -165T190 -129T146 -9V154Q146 242 44 253V377Q146 388 146 476V639Q146 722 190 758T309 795H415V701H336Q309 701 298 690T286 652V458Q286 404 266 371T196 315Q245 292 265 259T286 172V-22Q286
-49 297 -60T336 -71H415V-165H309Q234 -165 190 -129Z" />
<glyph unicode="|" glyph-name="bar" horiz-adv-x="332" d="M96 740H236V-120H96V740Z" />
<glyph unicode="}" glyph-name="braceright" horiz-adv-x="452" d="M37 -71H116Q143 -71 154 -60T166 -22V172Q166 226 186 259T256 315Q207 338 187 371T166 458V652Q166 679 155 690T116 701H37V795H143Q218 795 262 759T306 639V476Q306 388 408 377V253Q306
242 306 154V-9Q306 -92 262 -128T143 -165H37V-71Z" />
<glyph unicode="~" glyph-name="asciitilde" horiz-adv-x="625" d="M367 221T303 249Q249 273 208 273Q178 273 150 263T90 229L45 325Q91 361 130 377T209 393Q234 393 258 387T315 365Q371 341 415 341Q445 341 472 351T528 385L573 289Q526 252 491 237T416
221Q367 221 303 249Z" />
<glyph unicode="&#xa0;" glyph-name="uni00A0" horiz-adv-x="270" />
<glyph unicode="&#xa1;" glyph-name="exclamdown" horiz-adv-x="348" d="M146 361T128 379T109 426Q109 456 127 474T174 492Q202 492 221 474T240 426Q240 397 221 379T174 361Q146 361 128 379ZM132 311H217L254 -233H94L132 311Z" />
<glyph unicode="&#xa2;" glyph-name="cent" horiz-adv-x="584" d="M249 27Q159 51 106 120T52 293Q52 407 113 476T267 561V642H377V561Q420 554 457 537T517 501V379Q517 369 510 363T490 356Q454 356 443 402L430 451Q394 473 342 473Q281 473 241 428T201 292Q201
201 242 155T351 109Q381 109 406 117T460 143Q470 150 477 154T491 158Q506 158 517 146T528 115Q528 81 481 52Q428 20 359 17V-69H249V27Z" />
<glyph unicode="&#xa3;" glyph-name="sterling" horiz-adv-x="656" d="M62 0T53 11T44 39Q44 65 61 79T106 94H154Q175 115 184 137T194 188Q194 213 182 247H103Q86 247 75 257T64 285Q64 311 81 326T126 341H142Q125 385 125 421Q125 507 185 552T333 597Q389
597 442 578T539 523V415Q539 381 502 381Q482 381 470 394T448 435L433 483Q391 504 347 504Q312 504 290 483T268 422Q268 392 290 341H474Q507 341 507 311Q507 291 492 281T453 266L329 247Q338 213 338 189Q338 138 298 94H456L464 114Q486 169 521 169Q536
169 545 161T554 135V0H79Q62 0 53 11Z" />
<glyph unicode="&#xa4;" glyph-name="currency" horiz-adv-x="617" d="M67 131L132 204Q94 262 94 321Q94 357 102 384T132 440L67 512L170 589L226 518Q261 536 308 536Q359 536 392 518L447 588L550 512L484 440Q522 382 522 321Q522 258 484 203L550 131L448
56L392 125Q359 107 308 107Q257 107 225 125L169 55L67 131ZM346 228T371 253T397 321Q397 363 372 389T308 415Q271 415 246 389T220 321Q220 279 245 254T308 228Q346 228 371 253Z" />
<glyph unicode="&#xa5;" glyph-name="yen" horiz-adv-x="674" d="M204 0T197 9T189 35Q189 59 207 71T255 84H264V180H61V270H264V275L213 356H61V446H155L54 605H7Q-7 605 -14 614T-22 639Q-22 664 -5 676T43 689H302Q321 689 321 667Q321 649 310 639T274 621L232
606L364 395L503 605H457Q443 605 436 614T428 639Q428 664 446 676T494 689H685Q704 689 704 669Q704 645 666 628L616 605L510 446H615V356H450L412 300V270H615V180H412V83L450 64Q474 52 484 43T494 20Q494 10 490 5T475 0H218Q204 0 197 9Z" />
<glyph unicode="&#xa6;" glyph-name="brokenbar" horiz-adv-x="340" d="M100 735H240V360H100V735ZM100 205H240V-170H100V205Z" />
<glyph unicode="&#xa7;" glyph-name="section" horiz-adv-x="607" d="M220 -113T160 -98T62 -62V79Q62 88 67 94T83 100Q99 100 108 88T129 40L145 -8Q162 -19 194 -26T260 -34Q308 -34 341 -17T375 35Q375 60 364 77T326 111T247 152Q160 192 113 234T65 344Q65
379 79 408T118 458Q108 485 108 511Q108 563 136 598T212 651T314 669Q371 669 424 653T513 609V478Q513 469 508 464T493 458Q477 458 469 469T447 518L430 565Q390 590 325 590Q284 590 260 574T235 525Q235 496 262 477T359 423L391 408Q466 371 505 330T545
217Q545 182 532 153T495 104Q502 82 502 50Q502 -32 439 -72T273 -113Q220 -113 160 -98ZM428 207T426 223Q423 243 414 255T385 279T319 312L285 328Q208 363 193 372Q193 343 198 327Q206 303 227 289T312 244Q356 223 381 209T428 174Q428 207 426 223Z" />
<glyph unicode="&#xa8;" glyph-name="dieresis" horiz-adv-x="438" d="M84 552T64 572T43 623Q43 653 63 673T114 694Q143 694 163 674T184 623Q184 593 164 573T114 552Q84 552 64 572ZM296 552T276 572T255 623Q255 653 275 673T326 694Q355 694 375 674T396
623Q396 593 376 573T326 552Q296 552 276 572Z" />
<glyph unicode="&#xa9;" glyph-name="copyright" horiz-adv-x="797" d="M294 -16T211 28T82 153T35 338Q35 441 81 521T211 645T398 690Q504 690 586 646T715 522T762 338Q762 234 716 154T587 29T398 -16Q294 -16 211 28ZM481 52T545 88T646 189T683 338Q683
421 647 485T546 586T398 622Q316 622 252 586T151 486T114 338Q114 254 150 189T251 88T398 52Q481 52 545 88ZM360 132T311 156T234 226T206 338Q206 405 234 450T309 518T408 541Q453 541 492 527T555 493V404Q555 386 537 386Q523 386 515 394T500 421L489
457Q465 473 423 473Q377 473 347 439T317 337Q317 269 348 234T430 199Q476 199 512 225Q520 230 525 233T536 236Q547 236 555 228T563 204Q563 191 554 181T527 159Q483 132 421 132Q360 132 311 156Z" />
<glyph unicode="&#xaa;" glyph-name="ordfeminine" horiz-adv-x="399" d="M103 316T74 339T45 405Q45 455 80 477T172 509L239 519V539Q239 563 224 576T182 589Q166 589 147 584T116 573L110 549Q102 520 81 520Q64 520 64 534V607Q92 623 127 633T197 643Q256
643 291 616T327 536V374L346 364Q360 358 366 352T372 337Q372 325 361 325H241V355H237Q222 337 197 327T145 316Q103 316 74 339ZM199 372T219 390T239 433V468L188 460Q133 450 133 409Q133 393 143 383T172 372Q199 372 219 390Z" />
<glyph unicode="&#xab;" glyph-name="guillemotleft" horiz-adv-x="625" d="M57 224V250L221 434L306 366L203 237L306 108L221 40L57 224ZM309 224V250L473 434L558 366L455 237L558 108L473 40L309 224Z" />
<glyph unicode="&#xac;" glyph-name="logicalnot" horiz-adv-x="645" d="M430 281H66V396H570V141H430V281Z" />
<glyph unicode="&#xad;" glyph-name="uni00AD" horiz-adv-x="312" d="M37 337H275V242H37V337Z" />
<glyph unicode="&#xae;" glyph-name="registered" horiz-adv-x="468" d="M173 328T122 355T40 432T9 547Q9 612 39 662T121 739T234 766Q295 766 346 739T428 662T459 547Q459 482 429 432T347 355T234 328Q173 328 122 355ZM305 380T351 423T398 547Q398 627
352 670T234 714Q163 714 117 671T70 547Q70 467 116 424T234 380Q305 380 351 423ZM140 439T136 443T132 453Q132 473 155 474V625L143 633Q131 641 131 649Q131 660 141 660H242Q279 660 301 641T323 592Q323 563 309 546T269 528H264L315 473L331 467Q341 463
344 460T348 450Q348 439 338 439H271L211 521V471L220 466Q236 457 236 449Q236 439 225 439H146Q140 439 136 443ZM238 562Q252 562 259 570T267 593Q267 607 260 615T238 623H211V562H238Z" />
<glyph unicode="&#xaf;" glyph-name="overscore" horiz-adv-x="376" d="M38 667H338V573H38V667Z" />
<glyph unicode="&#xb0;" glyph-name="degree" horiz-adv-x="361" d="M119 544T78 578T37 672Q37 731 78 765T180 800Q241 800 282 766T323 672Q323 613 282 579T180 544Q119 544 78 578ZM204 613T218 628T233 672Q233 700 219 715T180 731Q156 731 142 716T127
672Q127 644 141 629T180 613Q204 613 218 628Z" />
<glyph unicode="&#xb1;" glyph-name="plusminus" horiz-adv-x="565" d="M210 337H49V430H210V600H355V430H516V337H355V174H210V337ZM49 93H516V0H49V93Z" />
<glyph unicode="&#xb2;" glyph-name="uni00B2" horiz-adv-x="317" d="M24 453L140 570Q173 603 186 626T199 667Q199 688 186 698T149 709Q125 709 96 697L85 669Q76 644 70 636T52 628Q43 628 39 633T34 646V731Q105 769 165 769Q226 769 258 742T290 661Q290
633 274 602T221 533L138 448H295V388H24V453Z" />
<glyph unicode="&#xb3;" glyph-name="uni00B3" horiz-adv-x="319" d="M101 382T68 388T14 403V465Q39 455 70 449T128 442Q168 442 183 456T199 500Q199 525 183 540T136 556Q118 556 78 549V600L120 605Q155 609 170 623T186 663Q186 687 173 698T132 709Q104
709 72 695L62 665Q54 642 48 634T32 626Q18 626 18 639V732Q87 769 151 769Q204 769 240 746T277 678Q277 643 256 619T198 584Q239 578 264 553T290 490Q290 438 246 410T134 382Q101 382 68 388Z" />
<glyph unicode="&#xb4;" glyph-name="acute" horiz-adv-x="339" d="M65 592L176 780L281 711L145 539L65 592Z" />
<glyph unicode="&#xb5;" glyph-name="uni00B5" horiz-adv-x="642" d="M81 48V492H221V153Q221 74 295 74Q329 74 355 88T411 134V492H551V99Q551 82 558 76T578 69Q601 69 627 85V16Q608 5 575 -5T511 -15Q476 -15 455 0T433 48V55H429Q406 24 373 5T298 -15Q255
-15 218 7L230 -240H69L81 48Z" />
<glyph unicode="&#xb6;" glyph-name="paragraph" horiz-adv-x="749" d="M217 -160T217 -127Q217 -104 233 -92T279 -80H308V332H257Q207 332 167 356T105 422T82 514Q82 601 138 648T287 695H629Q639 695 643 691T647 676Q647 666 638 658T606 634L576 614V-15H482V615H402V-81L581
-97Q617 -100 632 -110T647 -138Q647 -148 642 -154T627 -160H244Q217 -160 217 -127Z" />
<glyph unicode="&#xb7;" glyph-name="middot" horiz-adv-x="309" d="M121 231T98 254T74 312Q74 347 97 370T155 393Q188 393 211 370T235 312Q235 277 212 254T155 231Q121 231 98 254Z" />
<glyph unicode="&#xb8;" glyph-name="cedilla" horiz-adv-x="400" d="M115 -174Q181 -153 181 -108Q181 -74 140 -60L161 0H251L230 -48Q279 -68 279 -112Q279 -149 237 -179T134 -220L115 -174Z" />
<glyph unicode="&#xb9;" glyph-name="uni00B9" horiz-adv-x="248" d="M23 388T18 394T13 412Q13 428 23 436T52 444H71V707L9 689V737L79 761H172V442L195 434Q212 428 219 422T226 405Q226 388 210 388H32Q23 388 18 394Z" />
<glyph unicode="&#xba;" glyph-name="ordmasculine" horiz-adv-x="400" d="M131 316T85 357T39 479Q39 560 85 601T200 643Q269 643 315 602T361 479Q361 399 315 358T200 316Q131 316 85 357ZM235 370T253 398T272 479Q272 533 254 561T200 589Q128 589 128 479Q128
370 200 370Q235 370 253 398Z" />
<glyph unicode="&#xbb;" glyph-name="guillemotright" horiz-adv-x="625" d="M67 108L170 237L67 366L152 434L316 250V224L152 40L67 108ZM319 108L422 237L319 366L404 434L568 250V224L404 40L319 108Z" />
<glyph unicode="&#xbc;" glyph-name="onequarter" horiz-adv-x="821" d="M145 35L601 695L687 639L231 -21L145 35ZM39 307T34 313T29 331Q29 347 39 355T68 363H87V626L25 608V656L95 680H188V361L211 353Q228 347 235 341T242 324Q242 307 226 307H48Q39 307
34 313ZM668 72H483V126L659 373H758V132H804V72H758V0H668V72ZM658 132V279L551 132H658Z" />
<glyph unicode="&#xbd;" glyph-name="onehalf" horiz-adv-x="866" d="M145 35L601 695L687 639L231 -21L145 35ZM39 307T34 313T29 331Q29 347 39 355T68 363H87V626L25 608V656L95 680H188V361L211 353Q228 347 235 341T242 324Q242 307 226 307H48Q39 307 34
313ZM573 65L687 180Q722 215 735 236T748 279Q748 300 735 310T698 321Q674 321 645 309L634 281Q625 256 619 248T601 240Q592 240 588 245T583 258V343Q654 381 714 381Q775 381 807 354T839 273Q839 241 823 212T765 140L687 60H844V0H573V65Z" />
<glyph unicode="&#xbe;" glyph-name="threequarters" horiz-adv-x="819" d="M143 35L599 695L685 639L229 -21L143 35ZM103 300T70 306T16 321V383Q41 373 72 367T130 360Q170 360 185 374T201 418Q201 443 185 458T138 474Q120 474 80 467V518L122 523Q157 527
172 541T188 581Q188 605 175 616T134 627Q106 627 74 613L64 583Q56 560 50 552T34 544Q20 544 20 557V650Q89 687 153 687Q206 687 242 664T279 596Q279 561 258 537T200 502Q241 496 266 471T292 408Q292 356 248 328T136 300Q103 300 70 306ZM668 72H483V126L659
373H758V132H804V72H758V0H668V72ZM658 132V279L551 132H658Z" />
<glyph unicode="&#xbf;" glyph-name="questiondown" horiz-adv-x="489" d="M216 361T197 379T178 426Q178 456 197 474T244 492Q272 492 290 474T309 426Q309 397 291 379T244 361Q216 361 197 379ZM143 -243T93 -199T42 -86Q42 -36 61 -1T116 73Q146 108 159
125T178 164T184 221V311H304V199Q304 150 285 117T226 40Q200 12 186 -15T172 -77Q172 -111 193 -134T251 -158Q277 -158 300 -152T339 -137L351 -93Q362 -49 396 -49Q409 -49 415 -55T422 -71V-182Q392 -206 342 -224T235 -243Q143 -243 93 -199Z" />
<glyph unicode="&#xc0;" glyph-name="Agrave" horiz-adv-x="771" d="M209 927L314 996L425 808L345 755L209 927ZM12 0T5 9T-3 35Q-3 60 15 72T63 85H73L303 695H464L696 84L730 70Q754 60 764 51T774 26Q774 0 757 0H481Q467 0 460 9T452 35Q452 60 470 72T518
85H545L500 199H226L183 84L237 64Q264 54 274 45T284 22Q284 0 267 0H26Q12 0 5 9ZM466 293L364 570L261 293H466Z" />
<glyph unicode="&#xc1;" glyph-name="Aacute" horiz-adv-x="771" d="M330 807L441 995L546 926L410 754L330 807ZM12 0T5 9T-3 35Q-3 60 15 72T63 85H73L303 695H464L696 84L730 70Q754 60 764 51T774 26Q774 0 757 0H481Q467 0 460 9T452 35Q452 60 470 72T518
85H545L500 199H226L183 84L237 64Q264 54 274 45T284 22Q284 0 267 0H26Q12 0 5 9ZM466 293L364 570L261 293H466Z" />
<glyph unicode="&#xc2;" glyph-name="Acircumflex" horiz-adv-x="771" d="M214 808L339 971H405L530 808L469 754L372 865L275 754L214 808ZM12 0T5 9T-3 35Q-3 60 15 72T63 85H73L303 695H464L696 84L730 70Q754 60 764 51T774 26Q774 0 757 0H481Q467 0 460
9T452 35Q452 60 470 72T518 85H545L500 199H226L183 84L237 64Q264 54 274 45T284 22Q284 0 267 0H26Q12 0 5 9ZM466 293L364 570L261 293H466Z" />
<glyph unicode="&#xc3;" glyph-name="Atilde" horiz-adv-x="771" d="M435 765T421 770T384 786Q362 796 349 801T320 806Q302 806 288 800T258 782L211 850Q237 874 266 888T320 903Q347 903 387 882Q409 872 422 867T451 862Q479 862 510 885L557 818Q532 793
505 779T452 765Q435 765 421 770ZM12 0T5 9T-3 35Q-3 60 15 72T63 85H73L303 695H464L696 84L730 70Q754 60 764 51T774 26Q774 0 757 0H481Q467 0 460 9T452 35Q452 60 470 72T518 85H545L500 199H226L183 84L237 64Q264 54 274 45T284 22Q284 0 267 0H26Q12
0 5 9ZM466 293L364 570L261 293H466Z" />
<glyph unicode="&#xc4;" glyph-name="Adieresis" horiz-adv-x="771" d="M244 765T224 785T203 836Q203 866 223 886T274 907Q303 907 323 887T344 836Q344 806 324 786T274 765Q244 765 224 785ZM456 765T436 785T415 836Q415 866 435 886T486 907Q515 907 535
887T556 836Q556 806 536 786T486 765Q456 765 436 785ZM12 0T5 9T-3 35Q-3 60 15 72T63 85H73L303 695H464L696 84L730 70Q754 60 764 51T774 26Q774 0 757 0H481Q467 0 460 9T452 35Q452 60 470 72T518 85H545L500 199H226L183 84L237 64Q264 54 274 45T284 22Q284
0 267 0H26Q12 0 5 9ZM466 293L364 570L261 293H466Z" />
<glyph unicode="&#xc5;" glyph-name="Aring" horiz-adv-x="771" d="M324 734T292 766T259 844Q259 890 291 922T377 954Q430 954 462 922T495 844Q495 798 463 766T377 734Q324 734 292 766ZM395 801T407 812T419 844Q419 864 407 875T377 887Q359 887 347 876T335
844Q335 824 347 813T377 801Q395 801 407 812ZM12 0T5 9T-3 35Q-3 60 15 72T63 85H73L303 695H464L696 84L730 70Q754 60 764 51T774 26Q774 0 757 0H481Q467 0 460 9T452 35Q452 60 470 72T518 85H545L500 199H226L183 84L237 64Q264 54 274 45T284 22Q284 0
267 0H26Q12 0 5 9ZM466 293L364 570L261 293H466Z" />
<glyph unicode="&#xc6;" glyph-name="AE" horiz-adv-x="1155" d="M14 0T7 9T-1 35Q-1 60 17 72T65 85H75L442 602L429 607Q391 622 377 633T363 666Q363 681 370 688T387 695H1081V523Q1081 512 1076 506T1058 500Q1044 500 1034 515T1010 570L998 603H715V400H932L949
436Q958 455 966 464T984 473Q1005 473 1005 453V257Q1005 237 984 237Q975 237 967 246T949 274L932 310H715V92H1013L1025 125Q1039 164 1049 179T1073 195Q1086 195 1091 189T1096 172V0H508Q498 0 492 7T486 29Q486 50 500 61T552 88L565 93V199H283L200 84L254
64Q281 54 291 45T301 22Q301 0 284 0H28Q14 0 7 9ZM565 293V598L347 293H565Z" />
<glyph unicode="&#xc7;" glyph-name="Ccedilla" horiz-adv-x="676" d="M298 -185Q364 -164 364 -119Q364 -85 323 -71L343 -13Q256 -3 187 41T77 163T36 349Q36 464 84 546T211 669T380 710Q460 710 521 689T624 633V489Q624 477 619 470T599 463Q580 463 570
476T550 521L529 590Q477 616 408 616Q344 616 295 586T217 496T188 349Q188 262 218 201T298 110T412 79Q457 79 491 88T554 116Q568 125 577 130T595 136Q610 136 622 124T634 94Q634 76 624 63T597 38Q572 20 531 6T433 -13L413 -59Q462 -79 462 -123Q462 -160
420 -190T317 -231L298 -185Z" />
<glyph unicode="&#xc8;" glyph-name="Egrave" horiz-adv-x="726" d="M225 927L330 996L441 808L361 755L225 927ZM59 0T53 7T47 29Q47 50 61 61T113 88L126 93V602L113 607Q75 622 61 633T47 666Q47 681 53 688T69 695H652V523Q652 512 647 506T629 500Q615 500
605 515T581 570L569 603H276V400H503L520 436Q529 455 537 464T555 473Q576 473 576 453V257Q576 237 555 237Q546 237 538 246T520 274L503 310H276V92H584L596 125Q610 164 620 179T644 195Q657 195 662 189T667 172V0H69Q59 0 53 7Z" />
<glyph unicode="&#xc9;" glyph-name="Eacute" horiz-adv-x="726" d="M289 808L400 996L505 927L369 755L289 808ZM59 0T53 7T47 29Q47 50 61 61T113 88L126 93V602L113 607Q75 622 61 633T47 666Q47 681 53 688T69 695H652V523Q652 512 647 506T629 500Q615 500
605 515T581 570L569 603H276V400H503L520 436Q529 455 537 464T555 473Q576 473 576 453V257Q576 237 555 237Q546 237 538 246T520 274L503 310H276V92H584L596 125Q610 164 620 179T644 195Q657 195 662 189T667 172V0H69Q59 0 53 7Z" />
<glyph unicode="&#xca;" glyph-name="Ecircumflex" horiz-adv-x="726" d="M202 808L327 971H393L518 808L457 754L360 865L263 754L202 808ZM59 0T53 7T47 29Q47 50 61 61T113 88L126 93V602L113 607Q75 622 61 633T47 666Q47 681 53 688T69 695H652V523Q652 512
647 506T629 500Q615 500 605 515T581 570L569 603H276V400H503L520 436Q529 455 537 464T555 473Q576 473 576 453V257Q576 237 555 237Q546 237 538 246T520 274L503 310H276V92H584L596 125Q610 164 620 179T644 195Q657 195 662 189T667 172V0H69Q59 0 53 7Z"
/>
<glyph unicode="&#xcb;" glyph-name="Edieresis" horiz-adv-x="726" d="M239 765T219 785T198 836Q198 866 218 886T269 907Q298 907 318 887T339 836Q339 806 319 786T269 765Q239 765 219 785ZM451 765T431 785T410 836Q410 866 430 886T481 907Q510 907 530
887T551 836Q551 806 531 786T481 765Q451 765 431 785ZM59 0T53 7T47 29Q47 50 61 61T113 88L126 93V602L113 607Q75 622 61 633T47 666Q47 681 53 688T69 695H652V523Q652 512 647 506T629 500Q615 500 605 515T581 570L569 603H276V400H503L520 436Q529 455
537 464T555 473Q576 473 576 453V257Q576 237 555 237Q546 237 538 246T520 274L503 310H276V92H584L596 125Q610 164 620 179T644 195Q657 195 662 189T667 172V0H69Q59 0 53 7Z" />
<glyph unicode="&#xcc;" glyph-name="Igrave" horiz-adv-x="411" d="M58 927L163 996L274 808L194 755L58 927ZM67 0T60 9T52 35Q52 60 70 72T118 85H127V610H81Q67 610 60 619T52 645Q52 670 70 682T118 695H340Q351 695 355 690T359 675Q359 661 350 652T315
630L277 611V84L315 65Q340 53 349 44T359 20Q359 10 355 5T340 0H81Q67 0 60 9Z" />
<glyph unicode="&#xcd;" glyph-name="Iacute" horiz-adv-x="411" d="M124 808L235 996L340 927L204 755L124 808ZM67 0T60 9T52 35Q52 60 70 72T118 85H127V610H81Q67 610 60 619T52 645Q52 670 70 682T118 695H340Q351 695 355 690T359 675Q359 661 350 652T315
630L277 611V84L315 65Q340 53 349 44T359 20Q359 10 355 5T340 0H81Q67 0 60 9Z" />
<glyph unicode="&#xce;" glyph-name="Icircumflex" horiz-adv-x="375" d="M28 808L153 971H219L344 808L283 754L186 865L89 754L28 808ZM57 0T50 9T42 35Q42 60 60 72T108 85H117V610H71Q57 610 50 619T42 645Q42 670 60 682T108 695H330Q341 695 345 690T349
675Q349 661 340 652T305 630L267 611V84L305 65Q330 53 339 44T349 20Q349 10 345 5T330 0H71Q57 0 50 9Z" />
<glyph unicode="&#xcf;" glyph-name="Idieresis" horiz-adv-x="379" d="M54 765T34 785T13 836Q13 866 33 886T84 907Q113 907 133 887T154 836Q154 806 134 786T84 765Q54 765 34 785ZM266 765T246 785T225 836Q225 866 245 886T296 907Q325 907 345 887T366
836Q366 806 346 786T296 765Q266 765 246 785ZM54 0T47 9T39 35Q39 60 57 72T105 85H114V610H68Q54 610 47 619T39 645Q39 670 57 682T105 695H327Q338 695 342 690T346 675Q346 661 337 652T302 630L264 611V84L302 65Q327 53 336 44T346 20Q346 10 342 5T327
0H68Q54 0 47 9Z" />
<glyph unicode="&#xd0;" glyph-name="Eth" horiz-adv-x="775" d="M61 0T55 7T49 29Q49 50 63 61T115 88L128 93V307H59V401H128V602L115 607Q77 622 63 633T49 666Q49 681 55 688T71 695H394Q490 695 568 658T692 542T738 346Q738 229 692 152T569 37T394 0H71Q61
0 55 7ZM394 94Q489 94 537 160T586 346Q586 466 538 533T394 601H278V401H440V307H278V94H394Z" />
<glyph unicode="&#xd1;" glyph-name="Ntilde" horiz-adv-x="824" d="M451 765T437 770T400 786Q378 796 365 801T336 806Q318 806 304 800T274 782L227 850Q253 874 282 888T336 903Q363 903 403 882Q425 872 438 867T467 862Q495 862 526 885L573 818Q548 793
521 779T468 765Q451 765 437 770ZM62 0T55 9T47 35Q47 60 65 72T113 85H122V604L109 609Q73 623 60 634T47 666Q47 681 53 688T69 695H260L522 317Q542 289 557 258T588 182V610H532Q518 610 511 619T503 645Q503 670 521 682T569 695H761Q772 695 776 690T780
675Q780 663 768 653T730 629L698 611V0H560L283 399Q268 421 258 444T232 512V84L280 64Q304 54 314 45T324 20Q324 10 320 5T305 0H76Q62 0 55 9Z" />
<glyph unicode="&#xd2;" glyph-name="Ograve" horiz-adv-x="766" d="M234 927L339 996L450 808L370 755L234 927ZM285 -15T208 23T85 143T39 347Q39 469 84 550T207 671T383 710Q481 710 558 671T681 551T727 347Q727 225 682 144T559 24T383 -15Q285 -15 208
23ZM478 79T526 147T575 347Q575 478 527 547T383 616Q288 616 240 547T191 347Q191 216 239 148T383 79Q478 79 526 147Z" />
<glyph unicode="&#xd3;" glyph-name="Oacute" horiz-adv-x="766" d="M288 807L399 995L504 926L368 754L288 807ZM285 -15T208 23T85 143T39 347Q39 469 84 550T207 671T383 710Q481 710 558 671T681 551T727 347Q727 225 682 144T559 24T383 -15Q285 -15 208
23ZM478 79T526 147T575 347Q575 478 527 547T383 616Q288 616 240 547T191 347Q191 216 239 148T383 79Q478 79 526 147Z" />
<glyph unicode="&#xd4;" glyph-name="Ocircumflex" horiz-adv-x="766" d="M225 808L350 971H416L541 808L480 754L383 865L286 754L225 808ZM285 -15T208 23T85 143T39 347Q39 469 84 550T207 671T383 710Q481 710 558 671T681 551T727 347Q727 225 682 144T559
24T383 -15Q285 -15 208 23ZM478 79T526 147T575 347Q575 478 527 547T383 616Q288 616 240 547T191 347Q191 216 239 148T383 79Q478 79 526 147Z" />
<glyph unicode="&#xd5;" glyph-name="Otilde" horiz-adv-x="766" d="M434 765T420 770T383 786Q361 796 348 801T319 806Q301 806 287 800T257 782L210 850Q236 874 265 888T319 903Q346 903 386 882Q408 872 421 867T450 862Q478 862 509 885L556 818Q531 793
504 779T451 765Q434 765 420 770ZM285 -15T208 23T85 143T39 347Q39 469 84 550T207 671T383 710Q481 710 558 671T681 551T727 347Q727 225 682 144T559 24T383 -15Q285 -15 208 23ZM478 79T526 147T575 347Q575 478 527 547T383 616Q288 616 240 547T191 347Q191
216 239 148T383 79Q478 79 526 147Z" />
<glyph unicode="&#xd6;" glyph-name="Odieresis" horiz-adv-x="766" d="M248 765T228 785T207 836Q207 866 227 886T278 907Q307 907 327 887T348 836Q348 806 328 786T278 765Q248 765 228 785ZM460 765T440 785T419 836Q419 866 439 886T490 907Q519 907 539
887T560 836Q560 806 540 786T490 765Q460 765 440 785ZM285 -15T208 23T85 143T39 347Q39 469 84 550T207 671T383 710Q481 710 558 671T681 551T727 347Q727 225 682 144T559 24T383 -15Q285 -15 208 23ZM478 79T526 147T575 347Q575 478 527 547T383 616Q288
616 240 547T191 347Q191 216 239 148T383 79Q478 79 526 147Z" />
<glyph unicode="&#xd7;" glyph-name="multiply" d="M48 179L215 349L48 519L146 607L307 443L468 607L566 519L399 349L566 179L468 91L307 255L146 91L48 179Z" />
<glyph unicode="&#xd8;" glyph-name="Oslash" horiz-adv-x="777" d="M74 -53L151 66Q44 162 44 347Q44 469 89 550T212 671T388 710Q475 710 545 680L599 763L682 716L626 628Q677 582 704 512T732 347Q732 225 687 144T564 24T388 -15Q302 -15 231 15L156 -101L74
-53ZM487 589Q446 616 388 616Q293 616 245 547T196 347Q196 248 225 182L487 589ZM483 79T531 147T580 347Q580 448 551 512L289 105Q330 79 388 79Q483 79 531 147Z" />
<glyph unicode="&#xd9;" glyph-name="Ugrave" horiz-adv-x="822" d="M286 927L391 996L502 808L422 755L286 927ZM330 -15T260 18T148 115T107 271V610H61Q47 610 40 619T32 645Q32 670 50 682T98 695H320Q331 695 335 690T339 675Q339 661 330 652T295 630L257
611V253Q257 168 302 124T425 79Q504 79 550 124T597 253V610H542Q528 610 521 619T513 645Q513 670 531 682T579 695H771Q782 695 786 691T790 677Q790 667 781 659T750 635L713 611V271Q713 177 675 113T569 17T417 -15Q330 -15 260 18Z" />
<glyph unicode="&#xda;" glyph-name="Uacute" horiz-adv-x="822" d="M327 807L438 995L543 926L407 754L327 807ZM330 -15T260 18T148 115T107 271V610H61Q47 610 40 619T32 645Q32 670 50 682T98 695H320Q331 695 335 690T339 675Q339 661 330 652T295 630L257
611V253Q257 168 302 124T425 79Q504 79 550 124T597 253V610H542Q528 610 521 619T513 645Q513 670 531 682T579 695H771Q782 695 786 691T790 677Q790 667 781 659T750 635L713 611V271Q713 177 675 113T569 17T417 -15Q330 -15 260 18Z" />
<glyph unicode="&#xdb;" glyph-name="Ucircumflex" horiz-adv-x="822" d="M262 808L387 971H453L578 808L517 754L420 865L323 754L262 808ZM330 -15T260 18T148 115T107 271V610H61Q47 610 40 619T32 645Q32 670 50 682T98 695H320Q331 695 335 690T339 675Q339
661 330 652T295 630L257 611V253Q257 168 302 124T425 79Q504 79 550 124T597 253V610H542Q528 610 521 619T513 645Q513 670 531 682T579 695H771Q782 695 786 691T790 677Q790 667 781 659T750 635L713 611V271Q713 177 675 113T569 17T417 -15Q330 -15 260
18Z" />
<glyph unicode="&#xdc;" glyph-name="Udieresis" horiz-adv-x="822" d="M283 765T263 785T242 836Q242 866 262 886T313 907Q342 907 362 887T383 836Q383 806 363 786T313 765Q283 765 263 785ZM495 765T475 785T454 836Q454 866 474 886T525 907Q554 907 574
887T595 836Q595 806 575 786T525 765Q495 765 475 785ZM330 -15T260 18T148 115T107 271V610H61Q47 610 40 619T32 645Q32 670 50 682T98 695H320Q331 695 335 690T339 675Q339 661 330 652T295 630L257 611V253Q257 168 302 124T425 79Q504 79 550 124T597 253V610H542Q528
610 521 619T513 645Q513 670 531 682T579 695H771Q782 695 786 691T790 677Q790 667 781 659T750 635L713 611V271Q713 177 675 113T569 17T417 -15Q330 -15 260 18Z" />
<glyph unicode="&#xdd;" glyph-name="Yacute" horiz-adv-x="734" d="M281 808L392 996L497 927L361 755L281 808ZM229 0T222 9T214 35Q214 60 232 72T280 85H289V279L78 610H30Q16 610 9 619T1 645Q1 670 19 682T67 695H328Q347 695 347 673Q347 655 336 645T300
626L257 611L391 399L531 610H484Q470 610 463 619T455 645Q455 670 473 682T521 695H714Q733 695 733 675Q733 651 695 633L645 610L439 302V84L477 65Q502 53 511 44T521 20Q521 10 517 5T502 0H243Q229 0 222 9Z" />
<glyph unicode="&#xde;" glyph-name="Thorn" horiz-adv-x="742" d="M62 0T55 9T47 35Q47 60 65 72T113 85H122V610H76Q62 610 55 619T47 645Q47 670 65 682T113 695H335Q346 695 350 690T354 675Q354 661 345 652T310 630L272 611V566Q336 586 408 586Q535 586
616 529T698 352Q698 233 617 176T408 118Q336 118 272 138V84L310 65Q335 53 344 44T354 20Q354 10 350 5T335 0H76Q62 0 55 9ZM548 212T548 352Q548 493 408 493Q342 493 272 471V234Q342 212 408 212Q548 212 548 352Z" />
<glyph unicode="&#xdf;" glyph-name="germandbls" horiz-adv-x="742" d="M445 -15T403 -3T325 30V163Q325 173 331 180T351 187Q369 187 378 176T394 142L405 98Q440 79 473 79Q509 79 528 99T547 155Q547 195 530 222T479 285Q453 312 440 331T427 375Q427 397
434 412T455 447Q470 468 477 485T485 528Q485 573 457 601T383 630Q327 630 299 601T270 516V0H76Q62 0 55 8T47 33Q47 56 64 68T111 80H130V488Q130 607 198 665T385 724Q452 724 508 702T597 640T630 555Q630 519 620 494T592 440Q579 417 573 404T567 375Q567
359 578 344T612 308Q650 270 671 237T692 152Q692 70 635 28T487 -15Q445 -15 403 -3Z" />
<glyph unicode="&#xe0;" glyph-name="agrave" horiz-adv-x="561" d="M144 734L249 803L360 615L280 562L144 734ZM125 -15T79 21T33 126Q33 205 89 241T234 290L339 306V338Q339 376 316 396T249 417Q223 417 193 409T146 391L135 352Q129 330 118 319T89 308Q76
308 70 314T63 330V446Q107 471 163 486T274 502Q366 502 422 459T479 334V76L509 61Q532 50 541 41T550 19Q550 9 546 5T532 0H341V46H337Q312 18 272 2T190 -15Q125 -15 79 21ZM276 74T307 103T339 169V226L259 213Q173 198 173 133Q173 107 189 91T234 74Q276
74 307 103Z" />
<glyph unicode="&#xe1;" glyph-name="aacute" horiz-adv-x="561" d="M179 615L290 803L395 734L259 562L179 615ZM125 -15T79 21T33 126Q33 205 89 241T234 290L339 306V338Q339 376 316 396T249 417Q223 417 193 409T146 391L135 352Q129 330 118 319T89 308Q76
308 70 314T63 330V446Q107 471 163 486T274 502Q366 502 422 459T479 334V76L509 61Q532 50 541 41T550 19Q550 9 546 5T532 0H341V46H337Q312 18 272 2T190 -15Q125 -15 79 21ZM276 74T307 103T339 169V226L259 213Q173 198 173 133Q173 107 189 91T234 74Q276
74 307 103Z" />
<glyph unicode="&#xe2;" glyph-name="acircumflex" horiz-adv-x="561" d="M109 606L234 769H300L425 606L364 552L267 663L170 552L109 606ZM125 -15T79 21T33 126Q33 205 89 241T234 290L339 306V338Q339 376 316 396T249 417Q223 417 193 409T146 391L135 352Q129
330 118 319T89 308Q76 308 70 314T63 330V446Q107 471 163 486T274 502Q366 502 422 459T479 334V76L509 61Q532 50 541 41T550 19Q550 9 546 5T532 0H341V46H337Q312 18 272 2T190 -15Q125 -15 79 21ZM276 74T307 103T339 169V226L259 213Q173 198 173 133Q173
107 189 91T234 74Q276 74 307 103Z" />
<glyph unicode="&#xe3;" glyph-name="atilde" horiz-adv-x="561" d="M320 571T306 576T269 592Q247 602 234 607T205 612Q187 612 173 606T143 588L96 656Q122 680 151 694T205 709Q232 709 272 688Q294 678 307 673T336 668Q364 668 395 691L442 624Q417 599
390 585T337 571Q320 571 306 576ZM125 -15T79 21T33 126Q33 205 89 241T234 290L339 306V338Q339 376 316 396T249 417Q223 417 193 409T146 391L135 352Q129 330 118 319T89 308Q76 308 70 314T63 330V446Q107 471 163 486T274 502Q366 502 422 459T479 334V76L509
61Q532 50 541 41T550 19Q550 9 546 5T532 0H341V46H337Q312 18 272 2T190 -15Q125 -15 79 21ZM276 74T307 103T339 169V226L259 213Q173 198 173 133Q173 107 189 91T234 74Q276 74 307 103Z" />
<glyph unicode="&#xe4;" glyph-name="adieresis" horiz-adv-x="561" d="M139 564T119 584T98 635Q98 665 118 685T169 706Q198 706 218 686T239 635Q239 605 219 585T169 564Q139 564 119 584ZM351 564T331 584T310 635Q310 665 330 685T381 706Q410 706 430 686T451
635Q451 605 431 585T381 564Q351 564 331 584ZM125 -15T79 21T33 126Q33 205 89 241T234 290L339 306V338Q339 376 316 396T249 417Q223 417 193 409T146 391L135 352Q129 330 118 319T89 308Q76 308 70 314T63 330V446Q107 471 163 486T274 502Q366 502 422 459T479
334V76L509 61Q532 50 541 41T550 19Q550 9 546 5T532 0H341V46H337Q312 18 272 2T190 -15Q125 -15 79 21ZM276 74T307 103T339 169V226L259 213Q173 198 173 133Q173 107 189 91T234 74Q276 74 307 103Z" />
<glyph unicode="&#xe5;" glyph-name="aring" horiz-adv-x="561" d="M230 558T198 590T165 668Q165 714 197 746T283 778Q336 778 368 746T401 668Q401 622 369 590T283 558Q230 558 198 590ZM301 625T313 636T325 668Q325 688 313 699T283 711Q265 711 253 700T241
668Q241 648 253 637T283 625Q301 625 313 636ZM125 -15T79 21T33 126Q33 205 89 241T234 290L339 306V338Q339 376 316 396T249 417Q223 417 193 409T146 391L135 352Q129 330 118 319T89 308Q76 308 70 314T63 330V446Q107 471 163 486T274 502Q366 502 422 459T479
334V76L509 61Q532 50 541 41T550 19Q550 9 546 5T532 0H341V46H337Q312 18 272 2T190 -15Q125 -15 79 21ZM276 74T307 103T339 169V226L259 213Q173 198 173 133Q173 107 189 91T234 74Q276 74 307 103Z" />
<glyph unicode="&#xe6;" glyph-name="ae" horiz-adv-x="843" d="M125 -15T79 21T33 126Q33 205 89 241T234 290L339 306V338Q339 376 316 396T249 417Q223 417 193 409T146 391L135 352Q129 330 118 319T89 308Q76 308 70 314T63 330V446Q107 471 163 486T274
502Q321 502 360 485T428 435Q461 467 501 484T584 502Q650 502 703 476T786 402T816 289Q816 268 810 245T795 203H472V199Q475 134 514 102T605 70Q639 70 664 77T723 104Q726 106 734 110T747 116T756 118Q771 118 781 107T792 78Q792 61 782 49T750 23Q685
-15 598 -15Q531 -15 475 8T383 76Q352 31 302 8T190 -15Q125 -15 79 21ZM670 288Q676 302 676 319Q676 364 651 390T582 417Q538 417 507 383T472 288H670ZM262 74T286 87T324 122T339 168L333 201Q331 217 331 225L259 213Q173 198 173 133Q173 107 189 91T234
74Q262 74 286 87Z" />
<glyph unicode="&#xe7;" glyph-name="ccedilla" horiz-adv-x="506" d="M203 -179Q269 -158 269 -113Q269 -79 228 -65L247 -11Q148 4 88 70T28 245Q28 330 64 388T158 474T283 502Q340 502 389 484T469 441V328Q469 318 463 312T443 306Q409 306 398 350L386 396Q351
417 302 417Q244 417 206 374T168 244Q168 158 207 114T311 70Q339 70 363 78T414 103Q417 105 424 109T435 115T444 117Q459 117 469 106T479 77Q479 46 434 19Q392 -7 336 -13L318 -53Q367 -73 367 -117Q367 -154 325 -184T222 -225L203 -179Z" />
<glyph unicode="&#xe8;" glyph-name="egrave" horiz-adv-x="542" d="M137 734L242 803L353 615L273 562L137 734ZM222 -15T162 13T66 99T30 239Q30 323 63 382T154 472T283 502Q349 502 402 476T485 402T515 289Q515 268 509 245T494 203H171Q171 136 210 103T304
70Q338 70 363 77T422 104Q425 106 433 110T446 116T455 118Q470 118 480 107T491 78Q491 61 481 49T449 23Q384 -15 297 -15Q222 -15 162 13ZM369 288Q375 302 375 319Q375 364 350 390T281 417Q237 417 206 383T171 288H369Z" />
<glyph unicode="&#xe9;" glyph-name="eacute" horiz-adv-x="542" d="M195 615L306 803L411 734L275 562L195 615ZM222 -15T162 13T66 99T30 239Q30 323 63 382T154 472T283 502Q349 502 402 476T485 402T515 289Q515 268 509 245T494 203H171Q171 136 210 103T304
70Q338 70 363 77T422 104Q425 106 433 110T446 116T455 118Q470 118 480 107T491 78Q491 61 481 49T449 23Q384 -15 297 -15Q222 -15 162 13ZM369 288Q375 302 375 319Q375 364 350 390T281 417Q237 417 206 383T171 288H369Z" />
<glyph unicode="&#xea;" glyph-name="ecircumflex" horiz-adv-x="542" d="M119 606L244 769H310L435 606L374 552L277 663L180 552L119 606ZM222 -15T162 13T66 99T30 239Q30 323 63 382T154 472T283 502Q349 502 402 476T485 402T515 289Q515 268 509 245T494
203H171Q171 136 210 103T304 70Q338 70 363 77T422 104Q425 106 433 110T446 116T455 118Q470 118 480 107T491 78Q491 61 481 49T449 23Q384 -15 297 -15Q222 -15 162 13ZM369 288Q375 302 375 319Q375 364 350 390T281 417Q237 417 206 383T171 288H369Z" />
<glyph unicode="&#xeb;" glyph-name="edieresis" horiz-adv-x="542" d="M138 554T118 574T97 625Q97 655 117 675T168 696Q197 696 217 676T238 625Q238 595 218 575T168 554Q138 554 118 574ZM350 554T330 574T309 625Q309 655 329 675T380 696Q409 696 429 676T450
625Q450 595 430 575T380 554Q350 554 330 574ZM222 -15T162 13T66 99T30 239Q30 323 63 382T154 472T283 502Q349 502 402 476T485 402T515 289Q515 268 509 245T494 203H171Q171 136 210 103T304 70Q338 70 363 77T422 104Q425 106 433 110T446 116T455 118Q470
118 480 107T491 78Q491 61 481 49T449 23Q384 -15 297 -15Q222 -15 162 13ZM369 288Q375 302 375 319Q375 364 350 390T281 417Q237 417 206 383T171 288H369Z" />
<glyph unicode="&#xec;" glyph-name="igrave" horiz-adv-x="350" d="M35 734L140 803L251 615L171 562L35 734ZM51 0T51 33Q51 56 67 68T113 80H122V412H78Q51 412 51 445Q51 468 67 480T113 492H262V79L298 61Q321 50 330 42T339 19Q339 9 335 5T321 0H78Q51 0 51 33Z" />
<glyph unicode="&#xed;" glyph-name="iacute" horiz-adv-x="336" d="M73 615L184 803L289 734L153 562L73 615ZM38 0T38 33Q38 56 54 68T100 80H109V412H65Q38 412 38 445Q38 468 54 480T100 492H249V79L285 61Q308 50 317 42T326 19Q326 9 322 5T308 0H65Q38 0 38 33Z" />
<glyph unicode="&#xee;" glyph-name="icircumflex" horiz-adv-x="336" d="M2 616L127 779H193L318 616L257 562L160 673L63 562L2 616ZM42 0T42 33Q42 56 58 68T104 80H113V412H69Q42 412 42 445Q42 468 58 480T104 492H253V79L289 61Q312 50 321 42T330 19Q330
9 326 5T312 0H69Q42 0 42 33Z" />
<glyph unicode="&#xef;" glyph-name="idieresis" horiz-adv-x="356" d="M40 564T20 584T-1 635Q-1 665 19 685T70 706Q99 706 119 686T140 635Q140 605 120 585T70 564Q40 564 20 584ZM252 564T232 584T211 635Q211 665 231 685T282 706Q311 706 331 686T352 635Q352
605 332 585T282 564Q252 564 232 584ZM49 0T49 33Q49 56 65 68T111 80H120V412H76Q49 412 49 445Q49 468 65 480T111 492H260V79L296 61Q319 50 328 42T337 19Q337 9 333 5T319 0H76Q49 0 49 33Z" />
<glyph unicode="&#xf0;" glyph-name="eth" horiz-adv-x="639" d="M223 -10T166 16T75 94T42 216Q42 277 69 324T150 398T276 425Q313 425 350 415T418 387Q418 467 379 524L264 472L233 538L320 577Q277 602 221 602Q173 602 134 592V683Q187 695 223 695Q349
695 435 629L566 687L597 622L490 574Q527 526 546 464T566 329Q566 170 496 80T294 -10Q223 -10 166 16ZM357 83T387 137T417 292Q392 310 361 321T302 332Q249 332 220 301T191 211Q191 159 217 121T298 83Q357 83 387 137Z" />
<glyph unicode="&#xf1;" glyph-name="ntilde" horiz-adv-x="667" d="M383 571T369 576T332 592Q310 602 297 607T268 612Q250 612 236 606T206 588L159 656Q185 680 214 694T268 709Q295 709 335 688Q357 678 370 673T399 668Q427 668 458 691L505 624Q480 599
453 585T400 571Q383 571 369 576ZM37 0T37 33Q37 56 53 68T99 80H108V412H64Q37 412 37 445Q37 468 53 480T99 492H242V432H246Q283 464 325 483T412 502Q486 502 532 461T578 347V79L614 61Q637 50 646 42T655 19Q655 9 651 5T637 0H394Q367 0 367 33Q367 56
383 68T429 80H438V334Q438 413 364 413Q335 413 304 397T248 353V79L284 61Q307 50 316 42T325 19Q325 9 321 5T307 0H64Q37 0 37 33Z" />
<glyph unicode="&#xf2;" glyph-name="ograve" horiz-adv-x="568" d="M149 734L254 803L365 615L285 562L149 734ZM214 -15T157 13T64 99T29 244Q29 330 63 388T156 474T284 502Q354 502 412 474T504 388T539 244Q539 158 504 100T412 13T284 -15Q214 -15 157 13ZM340
70T369 114T398 244Q398 329 369 373T284 417Q228 417 199 373T170 244Q170 159 199 115T284 70Q340 70 369 114Z" />
<glyph unicode="&#xf3;" glyph-name="oacute" horiz-adv-x="568" d="M204 615L315 803L420 734L284 562L204 615ZM214 -15T157 13T64 99T29 244Q29 330 63 388T156 474T284 502Q354 502 412 474T504 388T539 244Q539 158 504 100T412 13T284 -15Q214 -15 157 13ZM340
70T369 114T398 244Q398 329 369 373T284 417Q228 417 199 373T170 244Q170 159 199 115T284 70Q340 70 369 114Z" />
<glyph unicode="&#xf4;" glyph-name="ocircumflex" horiz-adv-x="568" d="M126 606L251 769H317L442 606L381 552L284 663L187 552L126 606ZM214 -15T157 13T64 99T29 244Q29 330 63 388T156 474T284 502Q354 502 412 474T504 388T539 244Q539 158 504 100T412
13T284 -15Q214 -15 157 13ZM340 70T369 114T398 244Q398 329 369 373T284 417Q228 417 199 373T170 244Q170 159 199 115T284 70Q340 70 369 114Z" />
<glyph unicode="&#xf5;" glyph-name="otilde" horiz-adv-x="568" d="M337 571T323 576T286 592Q264 602 251 607T222 612Q204 612 190 606T160 588L113 656Q139 680 168 694T222 709Q249 709 289 688Q311 678 324 673T353 668Q381 668 412 691L459 624Q434 599
407 585T354 571Q337 571 323 576ZM214 -15T157 13T64 99T29 244Q29 330 63 388T156 474T284 502Q354 502 412 474T504 388T539 244Q539 158 504 100T412 13T284 -15Q214 -15 157 13ZM340 70T369 114T398 244Q398 329 369 373T284 417Q228 417 199 373T170 244Q170
159 199 115T284 70Q340 70 369 114Z" />
<glyph unicode="&#xf6;" glyph-name="odieresis" horiz-adv-x="568" d="M149 564T129 584T108 635Q108 665 128 685T179 706Q208 706 228 686T249 635Q249 605 229 585T179 564Q149 564 129 584ZM361 564T341 584T320 635Q320 665 340 685T391 706Q420 706 440
686T461 635Q461 605 441 585T391 564Q361 564 341 584ZM214 -15T157 13T64 99T29 244Q29 330 63 388T156 474T284 502Q354 502 412 474T504 388T539 244Q539 158 504 100T412 13T284 -15Q214 -15 157 13ZM340 70T369 114T398 244Q398 329 369 373T284 417Q228
417 199 373T170 244Q170 159 199 115T284 70Q340 70 369 114Z" />
<glyph unicode="&#xf7;" glyph-name="divide" horiz-adv-x="599" d="M271 429T251 449T231 499Q231 529 251 549T301 569Q330 569 350 549T370 499Q370 469 350 449T301 429Q271 429 251 449ZM51 367H548V252H51V367ZM271 50T251 70T231 120Q231 150 251 170T301
190Q330 190 350 170T370 120Q370 90 350 70T301 50Q271 50 251 70Z" />
<glyph unicode="&#xf8;" glyph-name="oslash" horiz-adv-x="560" d="M55 -27L103 46Q25 117 25 244Q25 330 59 388T152 474T280 502Q338 502 388 483L432 551L503 508L459 439Q535 370 535 244Q535 158 500 100T408 13T280 -15Q226 -15 177 2L129 -73L55 -27ZM335
403Q312 417 280 417Q224 417 195 373T166 244Q166 192 176 158L335 403ZM336 70T365 114T394 244Q394 291 385 325L229 82Q250 70 280 70Q336 70 365 114Z" />
<glyph unicode="&#xf9;" glyph-name="ugrave" horiz-adv-x="649" d="M146 734L251 803L362 615L282 562L146 734ZM177 -15T131 26T85 140V412H41Q14 412 14 445Q14 468 30 480T76 492H225V153Q225 74 299 74Q328 74 359 90T415 134V412H371Q344 412 344 445Q344
468 360 480T406 492H555V79L591 61Q614 50 623 42T632 19Q632 9 628 5T614 0H421V55H417Q380 23 338 4T251 -15Q177 -15 131 26Z" />
<glyph unicode="&#xfa;" glyph-name="uacute" horiz-adv-x="649" d="M213 615L324 803L429 734L293 562L213 615ZM177 -15T131 26T85 140V412H41Q14 412 14 445Q14 468 30 480T76 492H225V153Q225 74 299 74Q328 74 359 90T415 134V412H371Q344 412 344 445Q344
468 360 480T406 492H555V79L591 61Q614 50 623 42T632 19Q632 9 628 5T614 0H421V55H417Q380 23 338 4T251 -15Q177 -15 131 26Z" />
<glyph unicode="&#xfb;" glyph-name="ucircumflex" horiz-adv-x="649" d="M143 616L268 779H334L459 616L398 562L301 673L204 562L143 616ZM177 -15T131 26T85 140V412H41Q14 412 14 445Q14 468 30 480T76 492H225V153Q225 74 299 74Q328 74 359 90T415 134V412H371Q344
412 344 445Q344 468 360 480T406 492H555V79L591 61Q614 50 623 42T632 19Q632 9 628 5T614 0H421V55H417Q380 23 338 4T251 -15Q177 -15 131 26Z" />
<glyph unicode="&#xfc;" glyph-name="udieresis" horiz-adv-x="649" d="M171 564T151 584T130 635Q130 665 150 685T201 706Q230 706 250 686T271 635Q271 605 251 585T201 564Q171 564 151 584ZM383 564T363 584T342 635Q342 665 362 685T413 706Q442 706 462
686T483 635Q483 605 463 585T413 564Q383 564 363 584ZM177 -15T131 26T85 140V412H41Q14 412 14 445Q14 468 30 480T76 492H225V153Q225 74 299 74Q328 74 359 90T415 134V412H371Q344 412 344 445Q344 468 360 480T406 492H555V79L591 61Q614 50 623 42T632
19Q632 9 628 5T614 0H421V55H417Q380 23 338 4T251 -15Q177 -15 131 26Z" />
<glyph unicode="&#xfd;" glyph-name="yacute" horiz-adv-x="605" d="M205 615L316 803L421 734L285 562L205 615ZM94 -228T72 -210T50 -160Q50 -137 64 -114Q128 -114 166 -97T229 -26L241 0L59 412H23Q-4 412 -4 445Q-4 468 12 480T58 492H266Q276 492 280 488T284
473Q284 460 274 451T243 431L204 411L303 179Q308 167 309 151T311 130H316Q316 135 318 151T324 179L431 412H381Q354 412 354 445Q354 468 370 480T416 492H593Q603 492 607 488T611 473Q611 461 601 452T570 431L533 411L345 -6Q312 -80 284 -126T217 -200T128
-228Q94 -228 72 -210Z" />
<glyph unicode="&#xfe;" glyph-name="thorn" horiz-adv-x="656" d="M44 -213T44 -180Q44 -157 60 -145T106 -133H115V630H71Q44 630 44 663Q44 686 60 698T106 710H255V451L258 449Q321 502 401 502Q463 502 514 475T596 388T627 240Q627 156 590 99T491 13T354
-15Q309 -15 255 -2V-134L291 -152Q314 -163 323 -171T332 -194Q332 -204 328 -208T314 -213H71Q44 -213 44 -180ZM487 70T487 239Q487 417 361 417Q319 417 287 391T255 321V92Q298 70 350 70Q487 70 487 239Z" />
<glyph unicode="&#xff;" glyph-name="ydieresis" horiz-adv-x="605" d="M178 564T158 584T137 635Q137 665 157 685T208 706Q237 706 257 686T278 635Q278 605 258 585T208 564Q178 564 158 584ZM390 564T370 584T349 635Q349 665 369 685T420 706Q449 706 469
686T490 635Q490 605 470 585T420 564Q390 564 370 584ZM94 -228T72 -210T50 -160Q50 -137 64 -114Q128 -114 166 -97T229 -26L241 0L59 412H23Q-4 412 -4 445Q-4 468 12 480T58 492H266Q276 492 280 488T284 473Q284 460 274 451T243 431L204 411L303 179Q308
167 309 151T311 130H316Q316 135 318 151T324 179L431 412H381Q354 412 354 445Q354 468 370 480T416 492H593Q603 492 607 488T611 473Q611 461 601 452T570 431L533 411L345 -6Q312 -80 284 -126T217 -200T128 -228Q94 -228 72 -210Z" />
<glyph unicode="&#x2013;" glyph-name="endash" horiz-adv-x="481" d="M2 357H479V242H2V357Z" />
<glyph unicode="&#x2014;" glyph-name="emdash" horiz-adv-x="871" d="M2 357H869V242H2V357Z" />
<glyph unicode="&#x2018;" glyph-name="quoteleft" horiz-adv-x="319" d="M54 466Q69 522 113 605T201 734L265 695Q246 666 219 605T186 507L224 495Q236 491 242 484T248 464Q248 443 235 432T200 420Q183 420 171 425L54 466Z" />
<glyph unicode="&#x2019;" glyph-name="quoteright" horiz-adv-x="319" d="M54 450Q73 479 100 540T133 638L95 650Q83 654 77 661T71 681Q71 702 84 713T119 725Q136 725 148 720L265 679Q250 623 206 540T118 411L54 450Z" />
<glyph unicode="&#x201a;" glyph-name="quotesinglbase" horiz-adv-x="330" d="M58 -133Q83 -99 107 -48T135 34L104 44Q92 48 86 55T80 75Q80 95 93 107T128 119Q141 119 148 117L279 88Q263 29 222 -48T132 -178L58 -133Z" />
<glyph unicode="&#x201c;" glyph-name="quotedblleft" horiz-adv-x="549" d="M54 466Q69 522 113 605T201 734L265 695Q246 666 219 605T186 507L224 495Q236 491 242 484T248 464Q248 443 235 432T200 420Q183 420 171 425L54 466ZM284 466Q299 522 343 605T431
734L495 695Q476 666 449 605T416 507L454 495Q466 491 472 484T478 464Q478 443 465 432T430 420Q413 420 401 425L284 466Z" />
<glyph unicode="&#x201d;" glyph-name="quotedblright" horiz-adv-x="549" d="M54 450Q73 479 100 540T133 638L95 650Q83 654 77 661T71 681Q71 702 84 713T119 725Q136 725 148 720L265 679Q250 623 206 540T118 411L54 450ZM284 450Q303 479 330 540T363 638L325
650Q313 654 307 661T301 681Q301 702 314 713T349 725Q366 725 378 720L495 679Q480 623 436 540T348 411L284 450Z" />
<glyph unicode="&#x201e;" glyph-name="quotedblbase" horiz-adv-x="566" d="M58 -133Q83 -99 107 -48T135 34L104 44Q92 48 86 55T80 75Q80 95 93 107T128 119Q141 119 148 117L279 88Q263 29 222 -48T132 -178L58 -133ZM293 -133Q318 -99 342 -48T370 34L339
44Q327 48 321 55T315 75Q315 95 328 107T363 119Q376 119 383 117L514 88Q498 29 457 -48T367 -178L293 -133Z" />
<glyph unicode="&#x2022;" glyph-name="bullet" horiz-adv-x="441" d="M160 150T121 189T82 290Q82 349 121 388T219 427Q279 427 319 388T359 290Q359 228 320 189T219 150Q160 150 121 189Z" />
<glyph unicode="&#x2039;" glyph-name="guilsinglleft" horiz-adv-x="373" d="M57 224V250L221 434L306 366L203 237L306 108L221 40L57 224Z" />
<glyph unicode="&#x203a;" glyph-name="guilsinglright" horiz-adv-x="373" d="M67 108L170 237L67 366L152 434L316 250V224L152 40L67 108Z" />
</font>
</defs>
</svg>
