<?xml version="1.0" standalone="no"?>
<!DOCTYPE svg PUBLIC "-//W3C//DTD SVG 1.1//EN" "http://www.w3.org/Graphics/SVG/1.1/DTD/svg11.dtd">
<svg xmlns="http://www.w3.org/2000/svg">
<defs >
<font id="Podkova" horiz-adv-x="557" ><font-face
    font-family="Podkova Medium"
    units-per-em="1000"
    panose-1="0 0 6 0 0 0 0 0 0 0"
    ascent="859"
    descent="-249"
    alphabetic="0" />
<glyph unicode=" " glyph-name="space" horiz-adv-x="248" />
<glyph unicode="!" glyph-name="exclam" horiz-adv-x="215" d="M61 593H155L139 189H74L61 593ZM133 118T153 98T174 50Q174 23 154 4T107 -16Q79 -16 60 3T40 50Q40 77 60 97T107 118Q133 118 153 98Z" />
<glyph unicode="&quot;" glyph-name="quotedbl" horiz-adv-x="342" d="M55 593H142L121 404H76L55 593ZM200 593H287L266 404H221L200 593Z" />
<glyph unicode="#" glyph-name="numbersign" horiz-adv-x="605" d="M258 589H328L275 397H403L457 589H527L474 397H597V334H456L414 181H563V118H397L346 -69H275L325 118H198L147 -69H75L127 118H8V181H144L187 334H42V397H204L258 589ZM258 334L215 181H343L385
334H258Z" />
<glyph unicode="$" glyph-name="dollar" horiz-adv-x="454" d="M148 72T189 67V256Q117 266 75 308T33 414Q33 482 74 522T189 568V658H259V568Q305 565 333 557T394 531L410 413L342 406L329 482Q299 497 259 500V318L281 315Q425 295 425 170Q425 10 258 -1V-83H189V0Q141
4 109 14T44 38L27 147L96 155L107 88Q148 72 189 67ZM104 492T104 418Q104 343 189 329V501Q104 492 104 418ZM348 82T348 162Q348 200 325 221T258 246V67Q348 82 348 162Z" />
<glyph unicode="%" glyph-name="percent" horiz-adv-x="780" d="M328 609T328 432Q328 255 193 255Q58 255 58 432Q58 609 193 609Q328 609 328 432ZM490 608H567L281 -21H203L490 608ZM163 538T146 515T129 432Q129 372 146 349T193 326Q223 326 240 349T257
432Q257 492 240 515T193 538Q163 538 146 515ZM651 336T686 295T722 159Q722 -17 587 -17Q452 -17 452 159Q452 336 587 336Q651 336 686 295ZM557 266T540 243T523 159Q523 99 540 76T587 53Q617 53 634 76T651 159Q651 219 634 242T587 266Q557 266 540 243Z"
/>
<glyph unicode="&amp;" glyph-name="ampersand" horiz-adv-x="713" d="M400 -20T261 -20Q214 -20 167 -4T86 54T52 163Q52 210 71 245T121 304T197 354Q142 430 142 484Q142 554 182 581T275 609Q332 609 370 580T408 495Q408 448 380 414T301 344Q361 274 462
194Q493 262 516 381L633 418L655 350L582 325L576 305Q561 254 549 218T519 148Q602 85 667 43L629 -22L607 -6Q557 28 481 85Q400 -20 261 -20ZM222 549T222 485Q222 446 261 390Q295 413 313 435T332 489Q332 520 319 534T276 549Q222 549 222 485ZM192 269T166
237T140 163Q140 120 162 94T214 58T265 47Q317 47 355 68T424 130Q310 219 238 301Q192 269 166 237Z" />
<glyph unicode="&apos;" glyph-name="quotesingle" horiz-adv-x="197" d="M53 593H148L133 384H67L53 593Z" />
<glyph unicode="(" glyph-name="parenleft" horiz-adv-x="228" d="M160 528T132 435T103 263Q103 185 131 92T236 -76L192 -132Q146 -102 105 -42T39 98T13 263Q13 348 38 428T105 569T192 659L236 603Q160 528 132 435Z" />
<glyph unicode=")" glyph-name="parenright" horiz-adv-x="228" d="M82 629T123 569T189 429T215 263Q215 178 190 98T123 -42T36 -132L-8 -76Q68 -1 96 92T125 263Q125 342 97 435T-8 603L36 659Q82 629 123 569Z" />
<glyph unicode="*" glyph-name="asterisk" horiz-adv-x="416" d="M162 653H247L237 507L376 564L404 482L258 446L352 334L282 282L206 405L129 282L58 332L155 447L13 481L39 564L173 508L162 653Z" />
<glyph unicode="+" glyph-name="plus" horiz-adv-x="474" d="M195 488H279V342H424V266H279V121H195V266H50V342H195V488Z" />
<glyph unicode="," glyph-name="comma" horiz-adv-x="218" d="M53 -93Q58 -86 74 -61T100 -14Q73 -10 58 7T42 48Q42 77 61 95T111 114Q140 114 161 93T183 42Q184 -30 89 -125L53 -93Z" />
<glyph unicode="-" glyph-name="hyphen" horiz-adv-x="403" d="M45 267H358V192H45V267Z" />
<glyph unicode="." glyph-name="period" horiz-adv-x="230" d="M141 118T161 98T182 50Q182 23 162 4T115 -16Q87 -16 68 3T48 50Q48 77 68 97T115 118Q141 118 161 98Z" />
<glyph unicode="/" glyph-name="slash" horiz-adv-x="360" d="M301 589H386L59 -131H-26L301 589Z" />
<glyph unicode="0" glyph-name="zero" horiz-adv-x="598" d="M413 605T476 533T540 294Q540 128 476 56T299 -16Q185 -16 122 56T59 294Q59 462 122 533T299 605Q413 605 476 533ZM230 527T193 478T155 294Q155 161 193 112T299 62Q368 62 406 111T444 294Q444
428 406 477T299 527Q230 527 193 478Z" />
<glyph unicode="1" glyph-name="one" horiz-adv-x="494" d="M258 593H314L313 78H467V0H60V78H224L225 461L89 349L39 411L258 593Z" />
<glyph unicode="2" glyph-name="two" horiz-adv-x="545" d="M34 81Q87 130 168 197Q183 210 222 243T286 301Q323 336 341 367T359 431Q359 477 328 502T248 528Q212 528 175 512T107 468L51 522Q94 566 146 587T255 609Q310 609 355 588T428 528T455 436Q455
392 426 348T343 253Q307 218 219 146Q202 132 182 115T138 78H393L444 159L508 124L436 0H60L34 81Z" />
<glyph unicode="3" glyph-name="three" horiz-adv-x="512" d="M294 342T321 369T349 442Q349 481 320 504T241 528Q202 528 165 513T103 474L44 531Q79 567 131 586T246 605Q335 605 388 561T441 445Q441 397 414 358T343 303Q399 292 434 254T469 163Q469 82
409 33T248 -16Q177 -16 125 2T33 56L89 121Q131 89 166 76T249 62Q305 62 339 89T374 163Q374 209 335 237T230 265H180V342H248Q294 342 321 369Z" />
<glyph unicode="4" glyph-name="four" horiz-adv-x="555" d="M219 0V78H328V166H25L24 217L234 623L306 582L129 241H328V494H418V241L507 242V166H418V78H503V0H219Z" />
<glyph unicode="5" glyph-name="five" horiz-adv-x="520" d="M220 396T283 396Q368 396 422 345T477 202Q477 96 418 40T250 -16Q191 -16 137 6T47 69L111 120Q138 91 174 76T253 60Q317 60 350 94T384 193Q384 253 347 287T256 321Q223 321 191 307T132 266L79
290V589H433V510H168V362Q220 396 283 396Z" />
<glyph unicode="6" glyph-name="six" horiz-adv-x="555" d="M375 528T327 528Q238 528 197 462T153 305Q178 334 220 353T312 373Q399 373 455 329T512 179Q512 136 492 92T423 16T290 -16Q59 -16 59 290Q59 378 91 450T184 563T325 605Q363 605 396 596T452 575T481
559L445 493Q375 528 327 528ZM255 299T214 281T155 232Q162 132 200 96T297 60Q337 60 364 77T406 122T420 179Q420 238 391 268T306 299Q255 299 214 281Z" />
<glyph unicode="7" glyph-name="seven" horiz-adv-x="510" d="M388 409T338 266T283 0H192Q214 254 377 511H123L108 447L30 464L53 589H493V539Q388 409 338 266Z" />
<glyph unicode="8" glyph-name="eight" horiz-adv-x="536" d="M354 605T411 561T469 435Q469 392 442 355T369 304Q419 294 450 254T481 163Q481 104 452 64T375 4T268 -16Q210 -16 162 4T84 64T55 163Q55 214 85 254T167 304Q121 317 94 354T67 435Q67 516 123
560T267 605Q354 605 411 561ZM218 530T190 504T161 435Q161 393 189 366T268 338Q318 338 346 365T375 435Q375 477 347 503T268 530Q218 530 190 504ZM211 266T181 237T151 163Q151 117 183 88T268 59Q320 59 352 88T385 163Q385 208 355 237T268 266Q211 266
181 237Z" />
<glyph unicode="9" glyph-name="nine" horiz-adv-x="554" d="M187 61T247 61Q331 61 367 119T408 265Q382 235 340 215T249 194Q162 194 106 242T49 404Q49 449 69 494T138 572T271 605Q388 605 447 527T506 298Q506 184 468 114T369 14T242 -16Q185 -16 141 1T80
30L117 96Q187 61 247 61ZM204 529T173 491T141 394Q141 338 170 303T254 268Q310 268 349 289T407 345Q401 454 363 491T264 529Q204 529 173 491Z" />
<glyph unicode=":" glyph-name="colon" horiz-adv-x="216" d="M135 448T155 428T175 381Q175 354 155 334T108 314Q80 314 61 334T41 381Q41 408 60 428T108 448Q135 448 155 428ZM135 118T155 98T175 50Q175 23 155 4T108 -16Q80 -16 61 3T41 50Q41 77 61 97T108
118Q135 118 155 98Z" />
<glyph unicode=";" glyph-name="semicolon" horiz-adv-x="215" d="M134 448T154 428T174 381Q174 354 154 334T107 314Q79 314 60 334T40 381Q40 408 59 428T107 448Q134 448 154 428ZM56 -86T72 -61T98 -13Q71 -10 56 7T40 48Q40 78 59 96T109 114Q138 114 159
93T181 42Q182 -30 87 -125L51 -93Q56 -86 72 -61Z" />
<glyph unicode="&lt;" glyph-name="less" horiz-adv-x="474" d="M398 523L433 452L148 313V308L433 156L397 85L41 280V347L398 523Z" />
<glyph unicode="=" glyph-name="equal" horiz-adv-x="474" d="M50 349V425H424V349H50ZM50 189V265H424V189H50Z" />
<glyph unicode="&gt;" glyph-name="greater" horiz-adv-x="474" d="M76 523L433 347V280L77 85L41 156L326 308V313L41 452L76 523Z" />
<glyph unicode="?" glyph-name="question" horiz-adv-x="377" d="M44 582T90 593T186 605Q272 605 322 567T372 464Q372 421 347 391T264 330Q215 305 199 291T183 258Q183 246 192 235T221 210L175 161Q132 186 117 210T102 263Q102 300 123 324T201 379Q237
399 254 412T277 437T283 468Q283 497 255 515T179 534Q133 534 90 516L77 432L4 440L21 565Q44 582 90 593ZM208 118T228 98T248 50Q248 24 229 4T181 -16Q154 -16 134 3T114 50Q114 78 134 98T181 118Q208 118 228 98Z" />
<glyph unicode="@" glyph-name="at" horiz-adv-x="762" d="M541 -67T519 -79T462 -101T381 -112Q278 -112 207 -70T100 45T64 213Q64 289 99 364T207 489T389 539Q488 539 559 496T667 382T703 226Q703 165 682 121T627 53T555 29Q503 29 468 73Q453 58 435 46T381
34Q318 34 277 75T235 201Q235 287 282 328T400 370Q437 370 469 357T517 332V112Q523 103 533 98T556 92Q583 92 602 123T622 225Q622 291 598 346T522 435T389 469Q321 469 267 438T182 348T150 213Q150 78 216 18T383 -42Q420 -42 454 -31T504 -12L541 -65Q541
-67 519 -79ZM442 297T428 301T399 306Q358 306 337 281T316 200Q316 149 336 123T388 97Q425 97 435 109T447 123V295Q442 297 428 301Z" />
<glyph unicode="A" glyph-name="A" horiz-adv-x="659" d="M9 0V78H106L268 511H171V589H375L556 78H650V0H402V78H463L431 168H220L187 78H249V0H9ZM246 239H406L330 484L246 239Z" />
<glyph unicode="B" glyph-name="B" horiz-adv-x="566" d="M38 78H130V511H38V589H295Q405 589 462 549T520 434Q520 393 499 358T440 303Q485 287 512 250T539 161Q539 87 489 44T341 0H38V78ZM340 331Q381 331 403 355T425 421Q425 511 306 511H220V331H340ZM333
79Q387 79 415 102T444 173Q444 217 417 240T339 263H220V79H333Z" />
<glyph unicode="C" glyph-name="C" horiz-adv-x="584" d="M430 515T400 522T332 529Q239 529 189 468T139 295Q139 183 189 122T332 60Q390 60 445 82L465 164L541 146L515 23Q515 22 489 12T422 -7T332 -16Q245 -16 180 21T80 129T44 297Q44 390 79 459T179 567T329
605Q388 605 430 595T495 572T518 557L542 434L466 417L445 507Q430 515 400 522Z" />
<glyph unicode="D" glyph-name="D" horiz-adv-x="655" d="M450 589T531 509T612 285Q612 151 533 76T314 0H38V78H130V511H38V589H306Q450 589 531 509ZM405 78T461 130T517 284Q517 396 464 453T306 511H220V78H296Q405 78 461 130Z" />
<glyph unicode="E" glyph-name="E" horiz-adv-x="593" d="M39 589H486L539 429L466 404L426 511H222V342H404V264H222L221 78H448L487 183L560 158L507 0H38V78H131L132 511H39V589Z" />
<glyph unicode="F" glyph-name="F" horiz-adv-x="567" d="M39 589H485L539 427L466 402L426 511H221V337H383V259H220V78H344V0H38V78H131L132 511H39V589Z" />
<glyph unicode="G" glyph-name="G" horiz-adv-x="601" d="M485 16T442 0T327 -16Q245 -16 181 19T80 125T43 295Q43 389 79 459T180 567T334 605Q449 605 522 548L547 434L470 416L451 499Q425 515 400 522T336 530Q284 530 239 502T166 421T138 295Q138 178 191
119T326 60Q370 60 398 68T456 96V218H328V294H541V55Q485 16 442 0Z" />
<glyph unicode="H" glyph-name="H" horiz-adv-x="720" d="M39 589H284V511H222L221 339H499L500 511H438V589H682V511H590L588 78H681V0H437V78H499V262H221L220 78H282V0H38V78H131L132 511H39V589Z" />
<glyph unicode="I" glyph-name="I" horiz-adv-x="357" d="M39 589H319V511H226L224 78H319V0H38V78H135V511H39V589Z" />
<glyph unicode="J" glyph-name="J" horiz-adv-x="518" d="M399 116T346 50T194 -16Q132 -16 51 17L24 147L101 165L122 74Q161 58 193 58Q247 58 277 101T308 226L309 511H179V589H490V511H399V237Q399 116 346 50Z" />
<glyph unicode="K" glyph-name="K" horiz-adv-x="676" d="M38 589H281V511H219V335H306L436 511H369V589H619V511H527L380 314L542 78H642V0H366V78H444L322 258H219V78H281V0H38V78H130V511H38V589Z" />
<glyph unicode="L" glyph-name="L" horiz-adv-x="555" d="M38 589H348V511H238L236 78H417L455 182L529 157L474 0H38V78H147L148 511H38V589Z" />
<glyph unicode="M" glyph-name="M" horiz-adv-x="852" d="M41 589H274L432 178L586 589H814V511H722V78H814V0H568V78H632V516L588 385L471 71H385L259 390L215 514L212 78H278V0H37V78H130L131 511H41V589Z" />
<glyph unicode="N" glyph-name="N" horiz-adv-x="724" d="M39 589H271L514 134V511H432V589H697V511H601V0H493L217 511L219 78H303V0H38V78H132L131 511H39V589Z" />
<glyph unicode="O" glyph-name="O" horiz-adv-x="645" d="M404 605T467 567T566 459T601 295Q601 201 566 131T468 22T322 -16Q240 -16 177 22T79 130T44 295Q44 388 78 458T176 567T321 605Q404 605 467 567ZM235 528T187 467T139 295Q139 183 187 122T322 61Q410
61 458 122T507 295Q507 406 459 467T322 528Q235 528 187 467Z" />
<glyph unicode="P" glyph-name="P" horiz-adv-x="547" d="M412 589T469 542T527 403Q527 310 470 262T302 213H219V78H333V0H38V78H129V511H38V589H302Q412 589 469 542ZM432 289T432 401Q432 511 301 511H220V289H301Q432 289 432 401Z" />
<glyph unicode="Q" glyph-name="Q" horiz-adv-x="671" d="M407 -16T322 -16Q240 -16 177 21T79 129T44 295Q44 390 79 460T176 567T321 605Q404 605 467 568T566 460T601 295Q601 150 522 66L652 -10L593 -83L469 22Q407 -16 322 -16ZM231 529T185 469T139 295Q139
182 185 121T322 60Q414 60 460 121T507 295Q507 408 461 468T322 529Q231 529 185 469Z" />
<glyph unicode="R" glyph-name="R" horiz-adv-x="618" d="M590 78V0H435L314 222H309H219V78H279V0H38V78H129V511H38V589H303Q424 589 474 544T525 407Q525 336 497 293T406 233L497 78H590ZM370 301T400 322T430 406Q430 468 400 489T302 511H220V301H302Q370
301 400 322Z" />
<glyph unicode="S" glyph-name="S" horiz-adv-x="543" d="M161 -16T62 22L43 148L117 156L130 81Q164 70 196 65T273 59Q334 59 373 83T412 161Q412 202 390 228T311 262L236 273Q149 286 103 330T56 442Q56 516 113 560T274 605Q330 605 372 598T463 571L481
441L405 433L392 516Q344 532 273 532Q210 532 174 510T138 446Q138 406 164 384T242 354L329 340Q415 328 457 285T499 173Q499 110 468 68T386 5T275 -16Q161 -16 62 22Z" />
<glyph unicode="T" glyph-name="T" horiz-adv-x="591" d="M34 589H554V415H471V511H340L338 78H430V0H156V78H248L249 511H118V415H34V589Z" />
<glyph unicode="U" glyph-name="U" horiz-adv-x="681" d="M560 105T505 45T337 -16Q228 -16 174 44T120 214V511H27V589H273V511H210V189Q210 123 243 91T337 59Q400 59 435 94T470 199V511H408V589H653V511H560V214Q560 105 505 45Z" />
<glyph unicode="V" glyph-name="V" horiz-adv-x="662" d="M5 589H257V511H193L293 248L342 97L387 242L483 511H418V589H657V511H569L391 0H292L96 511H5V589Z" />
<glyph unicode="W" glyph-name="W" horiz-adv-x="918" d="M2 589H253V511H191L269 241L309 99L338 237L417 514H520L590 242L620 100L659 242L743 511H679V589H916V511H827L666 0H562L494 268L463 401L426 265L356 0H257L95 511H2V589Z" />
<glyph unicode="X" glyph-name="X" horiz-adv-x="674" d="M22 0V77H111L278 299L108 511H23V589H280V511H218L337 362L451 511H386V589H639V511H546L388 302L567 77H658V0H389V77H459L329 238L206 77H274V0H22Z" />
<glyph unicode="Y" glyph-name="Y" horiz-adv-x="654" d="M5 589H253V511H197L332 322L479 511H407V589H650V511H581L373 252L372 78H466V0H189V78H283L284 249L87 511H5V589Z" />
<glyph unicode="Z" glyph-name="Z" horiz-adv-x="543" d="M61 589H488V531L159 78H397L435 182L510 157L457 0H43V63L368 511H126L107 416L33 427L61 589Z" />
<glyph unicode="[" glyph-name="bracketleft" horiz-adv-x="238" d="M56 655H241V584H142V-56H241V-127H56V655Z" />
<glyph unicode="\" glyph-name="backslash" horiz-adv-x="360" d="M-26 589H58L386 -131H301L-26 589Z" />
<glyph unicode="]" glyph-name="bracketright" horiz-adv-x="237" d="M-3 655H181V-127H-3V-56H96V584H-3V655Z" />
<glyph unicode="^" glyph-name="asciicircum" horiz-adv-x="474" d="M277 717L465 429L402 382L249 613H242L90 382L27 429L215 717H277Z" />
<glyph unicode="_" glyph-name="underscore" horiz-adv-x="597" d="M64 -18H533V-95H64V-18Z" />
<glyph unicode="`" glyph-name="grave" horiz-adv-x="288" d="M199 491L48 660L112 708L239 520L199 491Z" />
<glyph unicode="a" glyph-name="a" horiz-adv-x="532" d="M287 -16T213 -16Q126 -16 81 19T36 121Q36 186 79 219T207 252H331Q331 380 233 380Q186 380 146 368L136 314L64 327L81 422Q159 450 232 450Q324 450 371 401T419 255V83L511 53L488 -19L355 27Q287
-16 213 -16ZM169 186T148 169T126 120Q126 54 217 54Q282 54 331 89V185L210 186Q169 186 148 169Z" />
<glyph unicode="b" glyph-name="b" horiz-adv-x="525" d="M204 -16T154 -2T66 40V551L-30 584L-6 655L153 601V418Q211 450 267 450Q376 450 429 395T482 227Q482 103 428 44T260 -16Q204 -16 154 -2ZM327 56T359 98T392 227Q392 304 361 341T266 378Q210 378
153 342V78Q196 56 259 56Q327 56 359 98Z" />
<glyph unicode="c" glyph-name="c" horiz-adv-x="477" d="M313 382T271 382Q204 382 167 340T130 216Q130 141 170 99T271 57Q338 57 400 100L437 46Q392 13 356 -1T263 -16Q162 -16 101 46T40 216Q40 291 69 344T151 424T272 452Q308 452 341 445T424 422L441
308L368 292L355 369Q313 382 271 382Z" />
<glyph unicode="d" glyph-name="d" horiz-adv-x="570" d="M395 27Q366 7 332 -4T264 -16Q158 -16 100 47T41 225Q41 331 99 390T264 450Q319 450 370 430V551L274 584L298 655L458 601V86L549 54L526 -19L395 27ZM288 56T317 65T370 89V355Q348 365 320 371T265
378Q205 378 168 336T131 226Q131 149 168 103T265 56Q288 56 317 65Z" />
<glyph unicode="e" glyph-name="e" horiz-adv-x="499" d="M412 17T369 1T274 -16Q165 -16 102 46T38 217Q38 286 65 339T143 421T260 450Q354 450 408 392T463 237Q463 215 460 194L124 192Q128 124 169 90T272 56Q356 56 417 105L454 52Q412 17 369 1ZM375 314T344
347T261 381Q209 381 171 347T125 259H376Q375 314 344 347Z" />
<glyph unicode="f" glyph-name="f" horiz-adv-x="361" d="M122 572T169 617T303 663Q341 663 375 652T432 621L399 559Q361 591 303 591Q259 591 234 561T209 477V434H333V364H209V70H299V0H38V70H122V364H38V434H122V489Q122 572 169 617Z" />
<glyph unicode="g" glyph-name="g" horiz-adv-x="546" d="M377 34T418 3T460 -89Q460 -156 401 -192T242 -228Q187 -228 120 -213T23 -179L55 -112Q94 -131 144 -142T242 -153Q306 -153 339 -138T373 -94Q373 -37 276 -37H129V135Q82 154 58 190T33 279Q33 358
87 404T235 450Q309 450 357 423L502 476L528 400L409 375Q439 339 439 284Q439 205 383 161T234 117Q217 117 209 118V34H295Q377 34 418 3ZM179 380T150 355T120 283Q120 240 151 214T236 187Q289 187 320 213T352 283Q352 329 322 354T236 380Q179 380 150 355Z"
/>
<glyph unicode="h" glyph-name="h" horiz-adv-x="611" d="M21 70H105V553L10 586L33 656L193 601V409Q257 450 328 450Q417 450 460 408T503 277V70H587V0H371V70H415V261Q415 322 391 349T314 377Q284 377 250 368T193 345V70H237V0H21V70Z" />
<glyph unicode="i" glyph-name="i" horiz-adv-x="315" d="M37 434H209V70H292V0H37V70H120V364H37V434ZM182 648T200 631T218 584Q218 556 200 538T154 520Q126 520 109 537T91 584Q91 613 108 630T154 648Q182 648 200 631Z" />
<glyph unicode="j" glyph-name="j" horiz-adv-x="262" d="M195 -91T186 -130T136 -199T11 -228Q-3 -228 -45 -222L-34 -154Q-8 -156 11 -156Q58 -156 79 -139T103 -100T107 -40V364H23V434H195V-32Q195 -91 186 -130ZM170 648T188 631T206 584Q206 556 188 538T142
520Q114 520 97 537T79 584Q79 613 96 630T142 648Q170 648 188 631Z" />
<glyph unicode="k" glyph-name="k" horiz-adv-x="561" d="M36 657L195 602V254H281L346 364H294V434H513V364H431L347 224L442 70H527V0H392L280 184H195V70H237V0H23V70H107V554L12 587L36 657Z" />
<glyph unicode="l" glyph-name="l" horiz-adv-x="304" d="M25 0V70H109V562L10 586L30 658L197 615V70H281V0H25Z" />
<glyph unicode="m" glyph-name="m" horiz-adv-x="894" d="M43 70H127V346L31 378L54 448L189 402Q217 424 254 437T327 450Q425 450 469 397Q496 421 535 435T613 450Q705 450 745 409T786 274V70H871V0H655V70H698V261Q698 324 677 350T605 377Q575 377 546 368T501
343V70H544V0H369V70H413V261Q413 324 392 350T319 377Q289 377 260 368T215 343V70H259V0H43V70Z" />
<glyph unicode="n" glyph-name="n" horiz-adv-x="632" d="M43 70H127V345L31 378L54 448L189 401Q263 450 347 450Q426 450 475 404T525 276V70H608V0H393V70H437V260Q437 318 409 347T330 376Q303 376 273 367T215 342V70H259V0H43V70Z" />
<glyph unicode="o" glyph-name="o" horiz-adv-x="530" d="M367 450T428 388T490 216Q490 108 429 46T264 -16Q163 -16 103 46T42 216Q42 325 102 387T264 450Q367 450 428 388ZM199 378T165 336T131 216Q131 138 165 97T265 56Q332 56 366 97T401 216Q401 294
367 336T265 378Q199 378 165 336Z" />
<glyph unicode="p" glyph-name="p" horiz-adv-x="571" d="M30 -142H114V349L20 380L43 452L179 405Q212 426 247 438T314 450Q415 450 473 391T531 228Q531 156 503 101T425 15T308 -16Q252 -16 202 -1V-142H286V-211H30V-142ZM370 55T405 100T441 228Q441 302
409 340T312 378Q281 378 251 368T202 341V78Q219 68 248 62T307 55Q370 55 405 100Z" />
<glyph unicode="q" glyph-name="q" horiz-adv-x="523" d="M283 -142H370V14Q345 0 316 -8T261 -16Q157 -16 99 48T41 226Q41 331 104 390T274 450Q328 450 375 436T459 393V-142H539V-211H283V-142ZM290 56T319 65T370 89V352Q325 378 264 378Q204 378 168 337T131
227Q131 150 167 103T264 56Q290 56 319 65Z" />
<glyph unicode="r" glyph-name="r" horiz-adv-x="433" d="M228 424T270 437T354 450Q387 450 401 444L418 334L345 319L335 374Q304 373 273 364T216 339L215 70H313V0H44V70H128V344L32 377L55 447L192 400Q228 424 270 437Z" />
<glyph unicode="s" glyph-name="s" horiz-adv-x="454" d="M292 376T273 380T225 384Q185 384 157 368T129 323Q129 267 220 258L267 252Q345 244 380 212T415 124Q415 60 363 22T230 -16Q180 -16 135 -4T53 29L35 131L112 148L125 82Q171 57 226 57Q272 57 303
74T335 122Q335 150 316 162T249 181L201 187Q128 196 89 230T49 317Q49 380 100 415T225 451Q314 451 382 413L400 318L331 303L314 367Q292 376 273 380Z" />
<glyph unicode="t" glyph-name="t" horiz-adv-x="374" d="M188 -16T148 23T107 153V364H24V434H107V528L193 550V434H317V364H193V193Q193 123 208 88T262 52Q278 52 293 56T331 71L348 7Q292 -16 254 -16Q188 -16 148 23Z" />
<glyph unicode="u" glyph-name="u" horiz-adv-x="617" d="M405 8T365 -4T290 -16Q195 -16 151 26T106 157V364H23V434H194V174Q194 113 218 86T295 58Q325 58 359 67T416 90V364H333V434H504V86L596 55L573 -19L437 28Q405 8 365 -4Z" />
<glyph unicode="v" glyph-name="v" horiz-adv-x="581" d="M3 434H222V364H174L258 165L294 77L330 165L414 364H367V434H578V364H504L340 0H242L83 364H3V434Z" />
<glyph unicode="w" glyph-name="w" horiz-adv-x="755" d="M201 0L82 364H3V434H233V364H170L221 198L253 93L283 196L337 372H424L479 192L509 91L538 188L594 364H538V434H752V364H673L553 0H464L380 268L292 0H201Z" />
<glyph unicode="x" glyph-name="x" horiz-adv-x="599" d="M27 0V70H114L242 220L103 364H27V434H260V364H211L308 261L394 364H352V434H560V364H485L357 213L496 70H578V0H344V70H389L292 171L205 70H248V0H27Z" />
<glyph unicode="y" glyph-name="y" horiz-adv-x="558" d="M556 434V364H482L314 -86Q287 -157 247 -193T151 -229Q117 -229 79 -216L94 -148Q126 -158 146 -158Q174 -158 191 -149T222 -114T255 -39L258 -29L74 364H2V434H220V364H164L293 67L399 364H345L346 434H556Z" />
<glyph unicode="z" glyph-name="z" horiz-adv-x="464" d="M44 0V60L307 364H117L106 308L31 323L52 434H410V377L145 70H345L355 131L432 117L409 0H44Z" />
<glyph unicode="{" glyph-name="braceleft" horiz-adv-x="244" d="M72 287T76 308T81 366V479Q81 559 118 602T239 652L248 581Q196 575 178 546T159 463V342Q159 279 106 255Q159 233 159 169V56Q159 2 177 -27T248 -63L239 -133Q156 -127 119 -84T81 40V145Q81
181 77 202T54 224H-13V287H54Q72 287 76 308Z" />
<glyph unicode="|" glyph-name="bar" horiz-adv-x="297" d="M108 653H188V-211H108V653Z" />
<glyph unicode="}" glyph-name="braceright" horiz-adv-x="245" d="M173 224T169 203T164 145V40Q164 -40 127 -83T6 -133L-4 -63Q49 -57 67 -28T85 56V169Q85 233 139 255Q85 279 85 342V463Q85 517 67 546T-4 581L6 652Q89 646 126 603T164 479V366Q164 330
168 309T191 287H258V224H191Q173 224 169 203Z" />
<glyph unicode="~" glyph-name="asciitilde" horiz-adv-x="474" d="M43 303Q78 330 104 342T163 354Q185 354 205 348T250 330Q272 321 287 316T318 311Q336 311 353 317T392 344L431 289Q387 257 366 247T308 237Q293 237 279 242T239 258Q216 268 201 273T169
279Q146 279 128 272T85 247L43 303Z" />
<glyph unicode="&#xa0;" glyph-name="uni00A0" horiz-adv-x="248" />
<glyph unicode="&#xa1;" glyph-name="exclamdown" horiz-adv-x="215" d="M134 445T154 426T174 378Q174 351 154 331T107 311Q79 311 60 331T40 378Q40 406 59 425T107 445Q134 445 154 426ZM74 240H140L155 -203H62L74 240Z" />
<glyph unicode="&#xa2;" glyph-name="cent" horiz-adv-x="437" d="M315 446T302 449T277 453V134Q303 138 332 150T382 176L419 122Q342 71 277 62V-32H204V63Q118 76 70 136T22 292Q22 386 70 447T204 522V619H277V524Q310 522 341 515T387 500L409 387L336 371L323
441Q315 446 302 449ZM158 437T134 397T110 292Q110 160 204 136V449Q158 437 134 397Z" />
<glyph unicode="&#xa3;" glyph-name="sterling" horiz-adv-x="543" d="M522 32Q497 11 460 -2T391 -16Q358 -16 336 -10T279 8Q251 19 235 23T196 28Q163 28 133 18T68 -16L25 42Q81 80 107 123T133 222Q133 241 130 262H39V325H119Q113 366 113 399Q113 500 164
553T316 606Q365 606 399 596T482 558L503 425L433 414L411 515Q389 529 366 534T310 540Q257 540 227 505T197 398Q197 363 204 325H368V262H215Q219 239 219 216Q219 177 202 148T143 79L145 76Q182 100 231 100Q254 100 273 95T318 80Q344 71 360 67T396 62Q418
62 440 70T482 95L522 32Z" />
<glyph unicode="&#xa4;" glyph-name="currency" horiz-adv-x="503" d="M41 155L108 199Q78 241 78 294Q78 346 109 392L42 437L82 497L164 441Q202 463 250 463Q298 463 337 442L418 497L458 438L393 394Q426 351 426 294Q426 239 396 198L459 156L418 96L339
149Q300 128 251 128Q201 128 163 150L82 95L41 155ZM295 191T324 221T354 294Q354 338 325 368T251 399Q209 399 179 368T149 294Q149 251 179 221T251 191Q295 191 324 221Z" />
<glyph unicode="&#xa5;" glyph-name="yen" horiz-adv-x="661" d="M192 0V78H286V133H127V193H286V235H127V295H267L90 511H8V589H256V511H202L337 338L465 511H410V589H653V511H560L394 295H534V235H376V193H534V133H376L375 78H469V0H192Z" />
<glyph unicode="&#xa6;" glyph-name="brokenbar" horiz-adv-x="296" d="M108 658H188V298H108V658ZM108 146H188V-212H108V146Z" />
<glyph unicode="&#xa7;" glyph-name="section" horiz-adv-x="520" d="M438 199T386 155Q434 117 434 56Q434 14 409 -18T342 -69T250 -87Q151 -87 81 -37L66 53L135 67L147 13Q182 -17 249 -17Q296 -17 322 0T348 52Q348 80 317 101T221 141Q156 162 120 198T83
282Q83 317 103 344T157 384Q96 425 96 485Q96 548 146 582T273 617Q315 617 355 604T428 568L442 474L367 461L355 528Q315 549 273 549Q229 549 204 535T179 492Q179 445 290 409Q360 387 399 348T438 256Q438 199 386 155ZM304 198T332 186Q354 211 354 243Q354
277 329 301T242 345Q228 349 204 359Q185 350 175 334T165 296Q165 268 191 247T277 206Q304 198 332 186Z" />
<glyph unicode="&#xa8;" glyph-name="dieresis" horiz-adv-x="381" d="M122 616T140 598T158 556Q158 532 140 515T98 497Q74 497 57 514T39 556Q39 580 56 598T98 616Q122 616 140 598ZM304 616T321 598T339 556Q339 532 322 515T280 497Q255 497 238 514T220
556Q220 580 237 598T280 616Q304 616 321 598Z" />
<glyph unicode="&#xa9;" glyph-name="copyright" horiz-adv-x="847" d="M529 657T611 611T739 481T786 293Q786 190 740 108T611 -21T425 -68Q321 -68 238 -21T108 108T61 293Q61 398 108 481T238 610T425 657Q529 657 611 611ZM336 588T271 549T169 441T132 288Q132
207 168 142T270 39T421 1Q506 1 573 38T678 142T716 288Q716 372 678 440T573 548T421 588Q336 588 271 549ZM503 413T489 419T441 426Q380 426 350 391T319 295Q319 236 350 200T441 163Q461 163 480 168T505 177L521 228L584 209L558 125Q554 123 539 117T496
105T436 99Q347 99 295 149T242 294Q242 388 294 439T436 490Q471 490 498 482T543 465T560 455L583 377L523 359L504 413Q503 413 489 419Z" />
<glyph unicode="&#xaa;" glyph-name="ordfeminine" horiz-adv-x="365" d="M250 183Q201 156 157 156Q105 156 75 180T44 244Q44 287 73 307T153 328H226Q226 368 214 383T169 399Q146 399 120 392L112 358L60 368L71 431Q122 450 167 450Q242 450 265 418T289
328V224L335 208L318 156L250 183ZM195 207T226 231V280H155Q133 280 121 273T109 244Q109 227 123 217T160 207Q195 207 226 231Z" />
<glyph unicode="&#xab;" glyph-name="guillemotleft" horiz-adv-x="323" d="M151 436L208 396L82 217L208 38L151 -2L-7 217L151 436ZM254 365L313 327L240 217L313 107L254 69L157 217L254 365Z" />
<glyph unicode="&#xac;" glyph-name="logicalnot" horiz-adv-x="474" d="M50 342H424V126H336V266H50V342Z" />
<glyph unicode="&#xad;" glyph-name="uni00AD" horiz-adv-x="362" d="M46 315H316V232H46V315Z" />
<glyph unicode="&#xae;" glyph-name="registered" horiz-adv-x="657" d="M254 69T194 103T100 197T66 331Q66 406 100 466T194 560T328 594Q403 594 463 560T557 466T591 331Q591 256 557 197T463 103T328 69Q254 69 194 103ZM385 124T431 150T502 223T528 327Q528
386 503 434T431 509T327 537Q269 537 224 510T154 434T129 327Q129 270 154 224T224 151T327 124Q385 124 431 150ZM212 244H252V425H212V470H336Q393 470 416 449T440 382Q440 324 390 306L425 244H470V197H391L339 297H304V244H332V197H212V244ZM337 343Q360
343 373 351T386 381Q386 407 374 416T335 425H305V343H337Z" />
<glyph unicode="&#xaf;" glyph-name="overscore" horiz-adv-x="399" d="M47 597H356V533H47V597Z" />
<glyph unicode="&#xb0;" glyph-name="degree" horiz-adv-x="381" d="M234 607T265 579T296 501Q296 452 265 424T190 396Q146 396 116 424T85 501Q85 550 115 578T190 607Q234 607 265 579ZM169 557T155 542T140 501Q140 475 154 461T190 446Q211 446 225 460T239
501Q239 527 225 542T190 557Q169 557 155 542Z" />
<glyph unicode="&#xb1;" glyph-name="plusminus" horiz-adv-x="474" d="M195 488H279V363H424V287H279V182H195V287H50V363H195V488ZM424 145V69H50V145H424Z" />
<glyph unicode="&#xb2;" glyph-name="uni00B2" horiz-adv-x="392" d="M27 293Q36 299 54 309Q132 356 168 381Q243 435 243 487Q243 511 225 523T177 536Q150 536 121 525T69 494L22 543Q60 575 95 589T173 604Q241 604 282 574T324 490Q324 416 223 348Q189 324
111 282H272L310 334L366 300L311 218H53L27 293Z" />
<glyph unicode="&#xb3;" glyph-name="uni00B3" horiz-adv-x="388" d="M214 439T232 453T251 490Q251 512 232 524T178 537Q150 537 122 528T76 504L31 552Q58 577 96 589T178 602Q247 602 287 573T328 498Q328 467 308 444T255 412Q297 403 321 380T346 323Q346
271 302 238T185 205Q133 205 95 217T23 256L67 314Q96 292 122 282T184 271Q222 271 244 286T266 325Q266 349 245 363T184 378H135V439H183Q214 439 232 453Z" />
<glyph unicode="&#xb4;" glyph-name="acute" horiz-adv-x="288" d="M176 708L240 660L89 491L49 520L176 708Z" />
<glyph unicode="&#xb5;" glyph-name="uni00B5" horiz-adv-x="629" d="M172 -224T136 -178T100 -28V434H188V213Q188 126 212 91T291 56Q321 56 355 68T410 99V434H498V87L590 55L567 -17L431 30Q399 9 360 -3T284 -15Q254 -15 227 -5T181 25V-31Q181 -98 201 -126T265
-154Q291 -154 319 -144L333 -212Q294 -224 252 -224Q172 -224 136 -178Z" />
<glyph unicode="&#xb6;" glyph-name="paragraph" horiz-adv-x="612" d="M134 293T93 330T52 444Q52 514 96 551T214 589H574V512H482V76H570V0H406V512H335V0H163V76H260V293H227Q134 293 93 330Z" />
<glyph unicode="&#xb7;" glyph-name="middot" horiz-adv-x="229" d="M142 287T161 268T181 220Q181 192 162 173T115 153Q87 153 68 172T48 220Q48 248 67 267T115 287Q142 287 161 268Z" />
<glyph unicode="&#xb8;" glyph-name="cedilla" horiz-adv-x="279" d="M97 -226T71 -214T25 -187L50 -147Q67 -159 90 -166T135 -174Q187 -174 187 -139Q187 -121 173 -113T125 -105H82V0H138V-60Q251 -58 251 -140Q251 -181 220 -203T137 -226Q97 -226 71 -214Z" />
<glyph unicode="&#xb9;" glyph-name="uni00B9" horiz-adv-x="368" d="M191 589H240L238 282H351V218H46V282H162L163 488L64 422L29 470L191 589Z" />
<glyph unicode="&#xba;" glyph-name="ordmasculine" horiz-adv-x="370" d="M248 450T286 412T325 304Q325 237 287 198T184 159Q121 159 83 197T45 304Q45 373 83 411T184 450Q248 450 286 412ZM149 395T130 371T110 304Q110 261 129 238T185 214Q221 214 240
237T260 304Q260 347 241 371T185 395Q149 395 130 371Z" />
<glyph unicode="&#xbb;" glyph-name="guillemotright" horiz-adv-x="323" d="M171 436L330 217L171 -2L116 38L241 217L116 396L171 436ZM68 365L166 217L68 69L10 107L84 217L10 327L68 365Z" />
<glyph unicode="&#xbc;" glyph-name="onequarter" horiz-adv-x="950" d="M191 589H240L238 282H351V218H46V282H162L163 488L64 422L29 470L191 589ZM658 652H733L293 -76H217L658 652ZM689 0V64H772V106H551L550 169L715 401L773 359L633 170H772V297H849V170H912V106H849V64H910V0H689Z"
/>
<glyph unicode="&#xbd;" glyph-name="onehalf" horiz-adv-x="954" d="M191 589H240L238 282H351V218H46V282H162L163 488L64 422L29 470L191 589ZM658 652H733L293 -76H217L658 652ZM589 75Q598 81 616 91Q694 138 730 163Q805 217 805 269Q805 293 787 305T739
318Q712 318 683 307T631 276L584 325Q622 357 657 371T735 386Q803 386 844 356T886 272Q886 198 785 130Q751 106 673 64H834L872 116L928 82L873 0H615L589 75Z" />
<glyph unicode="&#xbe;" glyph-name="threequarters" horiz-adv-x="932" d="M214 439T232 453T251 490Q251 512 232 524T178 537Q150 537 122 528T76 504L31 552Q58 577 96 589T178 602Q247 602 287 573T328 498Q328 467 308 444T255 412Q297 403 321 380T346
323Q346 271 302 238T185 205Q133 205 95 217T23 256L67 314Q96 292 122 282T184 271Q222 271 244 286T266 325Q266 349 245 363T184 378H135V439H183Q214 439 232 453ZM640 652H715L275 -76H199L640 652ZM671 0V64H754V106H533L532 169L697 401L755 359L615 170H754V297H831V170H894V106H831V64H892V0H671Z"
/>
<glyph unicode="&#xbf;" glyph-name="questiondown" horiz-adv-x="377" d="M169 264T149 284T129 332Q129 359 149 378T196 398Q223 398 243 379T263 332Q263 304 243 284T196 264Q169 264 149 284ZM333 -200T287 -211T191 -223Q105 -223 55 -185T5 -82Q5 -39
30 -9T113 52Q162 77 178 91T194 124Q194 136 185 147T156 172L202 221Q245 196 260 172T275 119Q275 82 254 58T176 3Q140 -17 123 -30T100 -55T94 -86Q94 -115 122 -133T198 -152Q244 -152 287 -134L300 -50L373 -58L356 -183Q333 -200 287 -211Z" />
<glyph unicode="&#xc0;" glyph-name="Agrave" horiz-adv-x="659" d="M9 0V78H106L268 511H171V589H375L556 78H650V0H402V78H463L431 168H220L187 78H249V0H9ZM246 239H406L330 484L246 239ZM142 771L386 685L375 647L122 692L142 771Z" />
<glyph unicode="&#xc1;" glyph-name="Aacute" horiz-adv-x="659" d="M9 0V78H106L268 511H171V589H375L556 78H650V0H402V78H463L431 168H220L187 78H249V0H9ZM246 239H406L330 484L246 239ZM475 775L495 696L243 651L232 689L475 775Z" />
<glyph unicode="&#xc2;" glyph-name="Acircumflex" horiz-adv-x="659" d="M9 0V78H106L268 511H171V589H375L556 78H650V0H402V78H463L431 168H220L187 78H249V0H9ZM246 239H406L330 484L246 239ZM322 783L496 684L474 649L322 706L169 649L148 684L322 783Z" />
<glyph unicode="&#xc3;" glyph-name="Atilde" horiz-adv-x="659" d="M9 0V78H106L268 511H171V589H375L556 78H650V0H402V78H463L431 168H220L187 78H249V0H9ZM246 239H406L330 484L246 239ZM173 716Q208 740 230 749T286 759Q307 759 324 753T361 736Q378 727
388 723T412 719Q429 719 441 725T481 751L506 693Q476 667 455 658T405 648Q390 648 377 653T345 669Q326 679 313 684T286 689Q265 689 251 685T220 672T196 661L173 716Z" />
<glyph unicode="&#xc4;" glyph-name="Adieresis" horiz-adv-x="659" d="M9 0V78H106L268 511H171V589H375L556 78H650V0H402V78H463L431 168H220L187 78H249V0H9ZM246 239H406L330 484L246 239ZM255 785T273 767T291 725Q291 701 273 684T231 666Q207 666 190
683T172 725Q172 749 189 767T231 785Q255 785 273 767ZM437 785T454 767T472 725Q472 701 455 684T413 666Q388 666 371 683T353 725Q353 749 370 767T413 785Q437 785 454 767Z" />
<glyph unicode="&#xc5;" glyph-name="Aring" horiz-adv-x="688" d="M650 78V0H402V78H463L431 168H220L187 78H249V0H9V78H106L268 511H171V589H275Q248 614 248 657Q248 698 272 723T338 748Q380 748 405 723T430 657Q430 628 417 607T380 574L556 78H650ZM320
699T309 687T297 657Q297 638 308 627T338 615Q357 615 368 626T380 657Q380 675 369 687T338 699Q320 699 309 687ZM246 239H406L330 484L246 239Z" />
<glyph unicode="&#xc6;" glyph-name="AE" horiz-adv-x="925" d="M27 0V78H126L399 511H298V589H816L871 429L796 404L757 511H574V334H735V257H573V78H778L817 183L891 158L838 0H391V78H483V163H269L216 78H273V0H27ZM316 241H483L484 511L316 241Z" />
<glyph unicode="&#xc7;" glyph-name="Ccedilla" horiz-adv-x="584" d="M465 164L541 146L515 23Q510 20 491 13T438 -3T363 -15V-60Q476 -58 476 -140Q476 -181 445 -203T362 -226Q322 -226 296 -214T250 -187L275 -147Q292 -159 315 -166T360 -174Q412 -174 412
-139Q412 -121 398 -113T350 -105H307V-15Q227 -10 168 29T76 136T44 297Q44 390 79 459T179 567T329 605Q388 605 430 595T495 572T518 557L542 434L466 417L445 507Q430 515 400 522T332 529Q239 529 189 468T139 295Q139 183 189 122T332 60Q390 60 445 82L465
164Z" />
<glyph unicode="&#xc8;" glyph-name="Egrave" horiz-adv-x="593" d="M39 589H486L539 429L466 404L426 511H222V342H404V264H222L221 78H448L487 183L560 158L507 0H38V78H131L132 511H39V589ZM115 771L359 685L348 647L95 692L115 771Z" />
<glyph unicode="&#xc9;" glyph-name="Eacute" horiz-adv-x="593" d="M39 589H486L539 429L466 404L426 511H222V342H404V264H222L221 78H448L487 183L560 158L507 0H38V78H131L132 511H39V589ZM448 775L468 696L216 651L205 689L448 775Z" />
<glyph unicode="&#xca;" glyph-name="Ecircumflex" horiz-adv-x="593" d="M39 589H486L539 429L466 404L426 511H222V342H404V264H222L221 78H448L487 183L560 158L507 0H38V78H131L132 511H39V589ZM295 783L469 684L447 649L295 706L142 649L121 684L295 783Z" />
<glyph unicode="&#xcb;" glyph-name="Edieresis" horiz-adv-x="593" d="M39 589H486L539 429L466 404L426 511H222V342H404V264H222L221 78H448L487 183L560 158L507 0H38V78H131L132 511H39V589ZM228 785T246 767T264 725Q264 701 246 684T204 666Q180 666 163
683T145 725Q145 749 162 767T204 785Q228 785 246 767ZM410 785T427 767T445 725Q445 701 428 684T386 666Q361 666 344 683T326 725Q326 749 343 767T386 785Q410 785 427 767Z" />
<glyph unicode="&#xcc;" glyph-name="Igrave" horiz-adv-x="357" d="M39 589H319V511H226L224 78H319V0H38V78H135V511H39V589ZM-1 771L243 685L232 647L-21 692L-1 771Z" />
<glyph unicode="&#xcd;" glyph-name="Iacute" horiz-adv-x="357" d="M39 589H319V511H226L224 78H319V0H38V78H135V511H39V589ZM332 775L352 696L100 651L89 689L332 775Z" />
<glyph unicode="&#xce;" glyph-name="Icircumflex" horiz-adv-x="357" d="M39 589H319V511H226L224 78H319V0H38V78H135V511H39V589ZM179 783L353 684L331 649L179 706L26 649L5 684L179 783Z" />
<glyph unicode="&#xcf;" glyph-name="Idieresis" horiz-adv-x="357" d="M39 589H319V511H226L224 78H319V0H38V78H135V511H39V589ZM112 785T130 767T148 725Q148 701 130 684T88 666Q64 666 47 683T29 725Q29 749 46 767T88 785Q112 785 130 767ZM294 785T311
767T329 725Q329 701 312 684T270 666Q245 666 228 683T210 725Q210 749 227 767T270 785Q294 785 311 767Z" />
<glyph unicode="&#xd0;" glyph-name="Eth" horiz-adv-x="668" d="M466 589T545 519T625 285Q625 195 587 131T480 34T327 0H51V78H143V267H51V341H143V511H51V589H319Q466 589 545 519ZM420 78T475 128T530 284Q530 374 507 423T438 492T319 511H233V341H341V267H233V78H309Q420
78 475 128Z" />
<glyph unicode="&#xd1;" glyph-name="Ntilde" horiz-adv-x="724" d="M39 589H271L514 134V511H432V589H697V511H601V0H493L217 511L219 78H303V0H38V78H132L131 511H39V589ZM214 716Q249 740 271 749T327 759Q348 759 365 753T402 736Q419 727 429 723T453 719Q470
719 482 725T522 751L547 693Q517 667 496 658T446 648Q431 648 418 653T386 669Q367 679 354 684T327 689Q306 689 292 685T261 672T237 661L214 716Z" />
<glyph unicode="&#xd2;" glyph-name="Ograve" horiz-adv-x="645" d="M404 605T467 567T566 459T601 295Q601 201 566 131T468 22T322 -16Q240 -16 177 22T79 130T44 295Q44 388 78 458T176 567T321 605Q404 605 467 567ZM235 528T187 467T139 295Q139 183 187
122T322 61Q410 61 458 122T507 295Q507 406 459 467T322 528Q235 528 187 467ZM142 771L386 685L375 647L122 692L142 771Z" />
<glyph unicode="&#xd3;" glyph-name="Oacute" horiz-adv-x="645" d="M404 605T467 567T566 459T601 295Q601 201 566 131T468 22T322 -16Q240 -16 177 22T79 130T44 295Q44 388 78 458T176 567T321 605Q404 605 467 567ZM235 528T187 467T139 295Q139 183 187
122T322 61Q410 61 458 122T507 295Q507 406 459 467T322 528Q235 528 187 467ZM475 775L495 696L243 651L232 689L475 775Z" />
<glyph unicode="&#xd4;" glyph-name="Ocircumflex" horiz-adv-x="645" d="M404 605T467 567T566 459T601 295Q601 201 566 131T468 22T322 -16Q240 -16 177 22T79 130T44 295Q44 388 78 458T176 567T321 605Q404 605 467 567ZM235 528T187 467T139 295Q139 183
187 122T322 61Q410 61 458 122T507 295Q507 406 459 467T322 528Q235 528 187 467ZM322 783L496 684L474 649L322 706L169 649L148 684L322 783Z" />
<glyph unicode="&#xd5;" glyph-name="Otilde" horiz-adv-x="645" d="M404 605T467 567T566 459T601 295Q601 201 566 131T468 22T322 -16Q240 -16 177 22T79 130T44 295Q44 388 78 458T176 567T321 605Q404 605 467 567ZM235 528T187 467T139 295Q139 183 187
122T322 61Q410 61 458 122T507 295Q507 406 459 467T322 528Q235 528 187 467ZM173 716Q208 740 230 749T286 759Q307 759 324 753T361 736Q378 727 388 723T412 719Q429 719 441 725T481 751L506 693Q476 667 455 658T405 648Q390 648 377 653T345 669Q326 679
313 684T286 689Q265 689 251 685T220 672T196 661L173 716Z" />
<glyph unicode="&#xd6;" glyph-name="Odieresis" horiz-adv-x="645" d="M404 605T467 567T566 459T601 295Q601 201 566 131T468 22T322 -16Q240 -16 177 22T79 130T44 295Q44 388 78 458T176 567T321 605Q404 605 467 567ZM235 528T187 467T139 295Q139 183 187
122T322 61Q410 61 458 122T507 295Q507 406 459 467T322 528Q235 528 187 467ZM255 785T273 767T291 725Q291 701 273 684T231 666Q207 666 190 683T172 725Q172 749 189 767T231 785Q255 785 273 767ZM437 785T454 767T472 725Q472 701 455 684T413 666Q388 666
371 683T353 725Q353 749 370 767T413 785Q437 785 454 767Z" />
<glyph unicode="&#xd7;" glyph-name="multiply" horiz-adv-x="474" d="M136 462L238 360L342 463L396 410L292 306L395 203L338 147L236 249L131 146L78 199L182 303L79 406L136 462Z" />
<glyph unicode="&#xd8;" glyph-name="Oslash" horiz-adv-x="645" d="M547 506T574 442T601 295Q601 201 566 131T468 22T322 -16Q277 -16 236 -4L206 -69H126L169 27Q110 66 77 135T44 295Q44 388 78 458T176 567T321 605Q384 605 435 584L465 651H545L497 546Q547
506 574 442ZM235 528T187 467T139 295Q139 228 157 179T209 100L398 514Q364 528 322 528Q235 528 187 467ZM410 61T458 122T507 295Q507 410 456 470L273 67Q296 61 322 61Q410 61 458 122Z" />
<glyph unicode="&#xd9;" glyph-name="Ugrave" horiz-adv-x="681" d="M560 105T505 45T337 -16Q228 -16 174 44T120 214V511H27V589H273V511H210V189Q210 123 243 91T337 59Q400 59 435 94T470 199V511H408V589H653V511H560V214Q560 105 505 45ZM160 771L404 685L393
647L140 692L160 771Z" />
<glyph unicode="&#xda;" glyph-name="Uacute" horiz-adv-x="681" d="M560 105T505 45T337 -16Q228 -16 174 44T120 214V511H27V589H273V511H210V189Q210 123 243 91T337 59Q400 59 435 94T470 199V511H408V589H653V511H560V214Q560 105 505 45ZM493 775L513 696L261
651L250 689L493 775Z" />
<glyph unicode="&#xdb;" glyph-name="Ucircumflex" horiz-adv-x="681" d="M560 105T505 45T337 -16Q228 -16 174 44T120 214V511H27V589H273V511H210V189Q210 123 243 91T337 59Q400 59 435 94T470 199V511H408V589H653V511H560V214Q560 105 505 45ZM340 783L514
684L492 649L340 706L187 649L166 684L340 783Z" />
<glyph unicode="&#xdc;" glyph-name="Udieresis" horiz-adv-x="681" d="M560 105T505 45T337 -16Q228 -16 174 44T120 214V511H27V589H273V511H210V189Q210 123 243 91T337 59Q400 59 435 94T470 199V511H408V589H653V511H560V214Q560 105 505 45ZM273 785T291
767T309 725Q309 701 291 684T249 666Q225 666 208 683T190 725Q190 749 207 767T249 785Q273 785 291 767ZM455 785T472 767T490 725Q490 701 473 684T431 666Q406 666 389 683T371 725Q371 749 388 767T431 785Q455 785 472 767Z" />
<glyph unicode="&#xdd;" glyph-name="Yacute" horiz-adv-x="654" d="M5 589H253V511H197L332 322L479 511H407V589H650V511H581L373 252L372 78H466V0H189V78H283L284 249L87 511H5V589ZM480 775L500 696L248 651L237 689L480 775Z" />
<glyph unicode="&#xde;" glyph-name="Thorn" horiz-adv-x="545" d="M38 78H129V515H38V589H312V515H219V453H323Q423 453 474 419T525 305Q525 228 473 186T332 144H219V78H336V0H38V78ZM319 221Q373 221 402 238T431 298Q431 344 403 361T317 378H220V221H319Z" />
<glyph unicode="&#xdf;" glyph-name="germandbls" horiz-adv-x="591" d="M375 -15T338 -2T283 30L267 118L339 133L348 76Q358 66 375 61T413 55Q442 55 460 71T479 114Q479 141 460 160T400 195Q342 217 311 250T280 324Q280 366 297 391T348 444Q373 465 384
479T396 514Q396 541 372 559T311 577Q255 577 233 550T210 457V0H38V72H122V362H38V434H122V477Q122 564 167 605T306 647Q385 647 431 611T478 514Q478 476 461 451T411 397Q388 377 377 363T366 332Q366 310 383 296T446 264Q504 242 532 206T560 116Q560 58
519 22T413 -15Q375 -15 338 -2Z" />
<glyph unicode="&#xe0;" glyph-name="agrave" horiz-adv-x="532" d="M287 -16T213 -16Q126 -16 81 19T36 121Q36 186 79 219T207 252H331Q331 380 233 380Q186 380 146 368L136 314L64 327L81 422Q159 450 232 450Q324 450 371 401T419 255V83L511 53L488 -19L355
27Q287 -16 213 -16ZM169 186T148 169T126 120Q126 54 217 54Q282 54 331 89V185L210 186Q169 186 148 169ZM233 491L82 660L146 708L273 520L233 491Z" />
<glyph unicode="&#xe1;" glyph-name="aacute" horiz-adv-x="532" d="M287 -16T213 -16Q126 -16 81 19T36 121Q36 186 79 219T207 252H331Q331 380 233 380Q186 380 146 368L136 314L64 327L81 422Q159 450 232 450Q324 450 371 401T419 255V83L511 53L488 -19L355
27Q287 -16 213 -16ZM169 186T148 169T126 120Q126 54 217 54Q282 54 331 89V185L210 186Q169 186 148 169ZM312 708L376 660L225 491L185 520L312 708Z" />
<glyph unicode="&#xe2;" glyph-name="acircumflex" horiz-adv-x="532" d="M287 -16T213 -16Q126 -16 81 19T36 121Q36 186 79 219T207 252H331Q331 380 233 380Q186 380 146 368L136 314L64 327L81 422Q159 450 232 450Q324 450 371 401T419 255V83L511 53L488
-19L355 27Q287 -16 213 -16ZM169 186T148 169T126 120Q126 54 217 54Q282 54 331 89V185L210 186Q169 186 148 169ZM239 642L392 539L366 493L239 561L111 495L82 539L239 642Z" />
<glyph unicode="&#xe3;" glyph-name="atilde" horiz-adv-x="532" d="M287 -16T213 -16Q126 -16 81 19T36 121Q36 186 79 219T207 252H331Q331 380 233 380Q186 380 146 368L136 314L64 327L81 422Q159 450 232 450Q324 450 371 401T419 255V83L511 53L488 -19L355
27Q287 -16 213 -16ZM169 186T148 169T126 120Q126 54 217 54Q282 54 331 89V185L210 186Q169 186 148 169ZM88 561Q123 585 145 594T201 604Q222 604 239 598T276 581Q293 572 303 568T327 564Q344 564 356 570T396 596L421 538Q391 512 370 503T320 493Q305 493
292 498T260 514Q241 524 228 529T201 534Q180 534 166 530T135 517T111 506L88 561Z" />
<glyph unicode="&#xe4;" glyph-name="adieresis" horiz-adv-x="532" d="M287 -16T213 -16Q126 -16 81 19T36 121Q36 186 79 219T207 252H331Q331 380 233 380Q186 380 146 368L136 314L64 327L81 422Q159 450 232 450Q324 450 371 401T419 255V83L511 53L488 -19L355
27Q287 -16 213 -16ZM169 186T148 169T126 120Q126 54 217 54Q282 54 331 89V185L210 186Q169 186 148 169ZM170 630T188 612T206 570Q206 546 188 529T146 511Q122 511 105 528T87 570Q87 594 104 612T146 630Q170 630 188 612ZM352 630T369 612T387 570Q387 546
370 529T328 511Q303 511 286 528T268 570Q268 594 285 612T328 630Q352 630 369 612Z" />
<glyph unicode="&#xe5;" glyph-name="aring" horiz-adv-x="532" d="M287 -16T213 -16Q126 -16 81 19T36 121Q36 186 79 219T207 252H331Q331 380 233 380Q186 380 146 368L136 314L64 327L81 422Q159 450 232 450Q324 450 371 401T419 255V83L511 53L488 -19L355
27Q287 -16 213 -16ZM169 186T148 169T126 120Q126 54 217 54Q282 54 331 89V185L210 186Q169 186 148 169ZM278 684T303 659T328 593Q328 552 303 527T236 502Q195 502 171 527T146 593Q146 634 170 659T236 684Q278 684 303 659ZM218 635T207 623T195 593Q195
574 206 563T236 551Q255 551 266 562T278 593Q278 611 267 623T236 635Q218 635 207 623Z" />
<glyph unicode="&#xe6;" glyph-name="ae" horiz-adv-x="784" d="M119 434T151 441T228 448Q292 448 332 423T388 354Q417 398 461 423T561 448Q638 448 688 398T739 246Q739 221 736 194L417 192Q422 126 456 91T552 55Q608 55 646 72T702 103L742 52Q742 49 717
32T649 -1T551 -16Q450 -16 389 45Q358 24 306 4T213 -16Q131 -16 84 22T36 121Q36 188 83 221T207 254H333Q333 319 313 346T232 374Q188 374 146 363L136 310L63 323L80 419Q119 434 151 441ZM661 318T636 347T557 376Q501 376 465 346T419 260L662 261Q661 318
636 347ZM171 185T149 172T126 120Q126 88 152 72T217 55Q249 55 287 68T354 98Q335 138 332 185H210Q171 185 149 172Z" />
<glyph unicode="&#xe7;" glyph-name="ccedilla" horiz-adv-x="477" d="M401 19T374 6T310 -13V-60Q423 -58 423 -140Q423 -181 392 -203T309 -226Q269 -226 243 -214T197 -187L222 -147Q239 -159 262 -166T307 -174Q359 -174 359 -139Q359 -121 345 -113T297 -105H254V-16Q157
-13 99 48T40 216Q40 291 69 344T151 424T272 452Q308 452 341 445T424 422L441 308L368 292L355 369Q313 382 271 382Q204 382 167 340T130 216Q130 141 170 99T271 57Q338 57 400 100L437 46Q401 19 374 6Z" />
<glyph unicode="&#xe8;" glyph-name="egrave" horiz-adv-x="499" d="M412 17T369 1T274 -16Q165 -16 102 46T38 217Q38 286 65 339T143 421T260 450Q354 450 408 392T463 237Q463 215 460 194L124 192Q128 124 169 90T272 56Q356 56 417 105L454 52Q412 17 369
1ZM375 314T344 347T261 381Q209 381 171 347T125 259H376Q375 314 344 347ZM253 491L102 660L166 708L293 520L253 491Z" />
<glyph unicode="&#xe9;" glyph-name="eacute" horiz-adv-x="499" d="M412 17T369 1T274 -16Q165 -16 102 46T38 217Q38 286 65 339T143 421T260 450Q354 450 408 392T463 237Q463 215 460 194L124 192Q128 124 169 90T272 56Q356 56 417 105L454 52Q412 17 369
1ZM375 314T344 347T261 381Q209 381 171 347T125 259H376Q375 314 344 347ZM332 708L396 660L245 491L205 520L332 708Z" />
<glyph unicode="&#xea;" glyph-name="ecircumflex" horiz-adv-x="499" d="M412 17T369 1T274 -16Q165 -16 102 46T38 217Q38 286 65 339T143 421T260 450Q354 450 408 392T463 237Q463 215 460 194L124 192Q128 124 169 90T272 56Q356 56 417 105L454 52Q412 17
369 1ZM375 314T344 347T261 381Q209 381 171 347T125 259H376Q375 314 344 347ZM259 642L412 539L386 493L259 561L131 495L102 539L259 642Z" />
<glyph unicode="&#xeb;" glyph-name="edieresis" horiz-adv-x="499" d="M412 17T369 1T274 -16Q165 -16 102 46T38 217Q38 286 65 339T143 421T260 450Q354 450 408 392T463 237Q463 215 460 194L124 192Q128 124 169 90T272 56Q356 56 417 105L454 52Q412 17
369 1ZM375 314T344 347T261 381Q209 381 171 347T125 259H376Q375 314 344 347ZM190 630T208 612T226 570Q226 546 208 529T166 511Q142 511 125 528T107 570Q107 594 124 612T166 630Q190 630 208 612ZM372 630T389 612T407 570Q407 546 390 529T348 511Q323
511 306 528T288 570Q288 594 305 612T348 630Q372 630 389 612Z" />
<glyph unicode="&#xec;" glyph-name="igrave" horiz-adv-x="315" d="M37 434H209V70H292V0H37V70H120V364H37V434ZM151 491L0 660L64 708L191 520L151 491Z" />
<glyph unicode="&#xed;" glyph-name="iacute" horiz-adv-x="315" d="M37 434H209V70H292V0H37V70H120V364H37V434ZM230 708L294 660L143 491L103 520L230 708Z" />
<glyph unicode="&#xee;" glyph-name="icircumflex" horiz-adv-x="315" d="M37 434H209V70H292V0H37V70H120V364H37V434ZM157 642L310 539L284 493L157 561L29 495L0 539L157 642Z" />
<glyph unicode="&#xef;" glyph-name="idieresis" horiz-adv-x="315" d="M37 434H209V70H292V0H37V70H120V364H37V434ZM88 630T106 612T124 570Q124 546 106 529T64 511Q40 511 23 528T5 570Q5 594 22 612T64 630Q88 630 106 612ZM270 630T287 612T305 570Q305
546 288 529T246 511Q221 511 204 528T186 570Q186 594 203 612T246 630Q270 630 287 612Z" />
<glyph unicode="&#xf0;" glyph-name="eth" horiz-adv-x="532" d="M381 538T433 449T487 262Q487 169 458 107T378 14T262 -17Q201 -17 151 8T70 86T39 215Q39 283 67 334T146 412T258 439Q317 439 360 420Q321 485 253 528L208 478L162 522L195 559Q153 578 99
597L114 656Q152 645 185 634T243 611L289 663L335 618L301 580Q381 538 433 449ZM198 371T164 330T129 213Q129 136 163 96T263 55Q328 55 363 105T398 246Q398 288 384 339Q364 353 332 362T265 371Q198 371 164 330Z" />
<glyph unicode="&#xf1;" glyph-name="ntilde" horiz-adv-x="632" d="M43 70H127V345L31 378L54 448L189 401Q263 450 347 450Q426 450 475 404T525 276V70H608V0H393V70H437V260Q437 318 409 347T330 376Q303 376 273 367T215 342V70H259V0H43V70ZM165 561Q200
585 222 594T278 604Q299 604 316 598T353 581Q370 572 380 568T404 564Q421 564 433 570T473 596L498 538Q468 512 447 503T397 493Q382 493 369 498T337 514Q318 524 305 529T278 534Q257 534 243 530T212 517T188 506L165 561Z" />
<glyph unicode="&#xf2;" glyph-name="ograve" horiz-adv-x="530" d="M367 450T428 388T490 216Q490 108 429 46T264 -16Q163 -16 103 46T42 216Q42 325 102 387T264 450Q367 450 428 388ZM199 378T165 336T131 216Q131 138 165 97T265 56Q332 56 366 97T401 216Q401
294 367 336T265 378Q199 378 165 336ZM262 491L111 660L175 708L302 520L262 491Z" />
<glyph unicode="&#xf3;" glyph-name="oacute" horiz-adv-x="530" d="M367 450T428 388T490 216Q490 108 429 46T264 -16Q163 -16 103 46T42 216Q42 325 102 387T264 450Q367 450 428 388ZM199 378T165 336T131 216Q131 138 165 97T265 56Q332 56 366 97T401 216Q401
294 367 336T265 378Q199 378 165 336ZM341 708L405 660L254 491L214 520L341 708Z" />
<glyph unicode="&#xf4;" glyph-name="ocircumflex" horiz-adv-x="530" d="M367 450T428 388T490 216Q490 108 429 46T264 -16Q163 -16 103 46T42 216Q42 325 102 387T264 450Q367 450 428 388ZM199 378T165 336T131 216Q131 138 165 97T265 56Q332 56 366 97T401
216Q401 294 367 336T265 378Q199 378 165 336ZM268 642L421 539L395 493L268 561L140 495L111 539L268 642Z" />
<glyph unicode="&#xf5;" glyph-name="otilde" horiz-adv-x="530" d="M367 450T428 388T490 216Q490 108 429 46T264 -16Q163 -16 103 46T42 216Q42 325 102 387T264 450Q367 450 428 388ZM199 378T165 336T131 216Q131 138 165 97T265 56Q332 56 366 97T401 216Q401
294 367 336T265 378Q199 378 165 336ZM117 561Q152 585 174 594T230 604Q251 604 268 598T305 581Q322 572 332 568T356 564Q373 564 385 570T425 596L450 538Q420 512 399 503T349 493Q334 493 321 498T289 514Q270 524 257 529T230 534Q209 534 195 530T164
517T140 506L117 561Z" />
<glyph unicode="&#xf6;" glyph-name="odieresis" horiz-adv-x="530" d="M367 450T428 388T490 216Q490 108 429 46T264 -16Q163 -16 103 46T42 216Q42 325 102 387T264 450Q367 450 428 388ZM199 378T165 336T131 216Q131 138 165 97T265 56Q332 56 366 97T401
216Q401 294 367 336T265 378Q199 378 165 336ZM199 630T217 612T235 570Q235 546 217 529T175 511Q151 511 134 528T116 570Q116 594 133 612T175 630Q199 630 217 612ZM381 630T398 612T416 570Q416 546 399 529T357 511Q332 511 315 528T297 570Q297 594 314
612T357 630Q381 630 398 612Z" />
<glyph unicode="&#xf7;" glyph-name="divide" horiz-adv-x="474" d="M263 526T283 507T303 461Q303 434 283 415T237 395Q210 395 191 414T171 461Q171 487 190 506T237 526Q263 526 283 507ZM424 342V266H50V342H424ZM263 201T283 182T303 136Q303 109 283 90T237
70Q210 70 191 89T171 136Q171 162 190 181T237 201Q263 201 283 182Z" />
<glyph unicode="&#xf8;" glyph-name="oslash" horiz-adv-x="530" d="M432 397T461 344T490 216Q490 108 429 46T264 -16Q231 -16 197 -8L171 -71H118L152 9Q100 36 71 89T42 216Q42 325 102 387T264 450Q299 450 333 442L359 503H412L379 424Q432 397 461 344ZM131
120T182 81L305 374Q289 378 265 378Q199 378 165 336T131 216Q131 120 182 81ZM332 56T366 97T401 216Q401 312 349 353L226 60Q242 56 265 56Q332 56 366 97Z" />
<glyph unicode="&#xf9;" glyph-name="ugrave" horiz-adv-x="617" d="M405 8T365 -4T290 -16Q195 -16 151 26T106 157V364H23V434H194V174Q194 113 218 86T295 58Q325 58 359 67T416 90V364H333V434H504V86L596 55L573 -19L437 28Q405 8 365 -4ZM281 491L130 660L194
708L321 520L281 491Z" />
<glyph unicode="&#xfa;" glyph-name="uacute" horiz-adv-x="617" d="M405 8T365 -4T290 -16Q195 -16 151 26T106 157V364H23V434H194V174Q194 113 218 86T295 58Q325 58 359 67T416 90V364H333V434H504V86L596 55L573 -19L437 28Q405 8 365 -4ZM360 708L424 660L273
491L233 520L360 708Z" />
<glyph unicode="&#xfb;" glyph-name="ucircumflex" horiz-adv-x="617" d="M405 8T365 -4T290 -16Q195 -16 151 26T106 157V364H23V434H194V174Q194 113 218 86T295 58Q325 58 359 67T416 90V364H333V434H504V86L596 55L573 -19L437 28Q405 8 365 -4ZM287 642L440
539L414 493L287 561L159 495L130 539L287 642Z" />
<glyph unicode="&#xfc;" glyph-name="udieresis" horiz-adv-x="617" d="M405 8T365 -4T290 -16Q195 -16 151 26T106 157V364H23V434H194V174Q194 113 218 86T295 58Q325 58 359 67T416 90V364H333V434H504V86L596 55L573 -19L437 28Q405 8 365 -4ZM218 630T236
612T254 570Q254 546 236 529T194 511Q170 511 153 528T135 570Q135 594 152 612T194 630Q218 630 236 612ZM400 630T417 612T435 570Q435 546 418 529T376 511Q351 511 334 528T316 570Q316 594 333 612T376 630Q400 630 417 612Z" />
<glyph unicode="&#xfd;" glyph-name="yacute" horiz-adv-x="558" d="M556 434V364H482L314 -86Q287 -157 247 -193T151 -229Q117 -229 79 -216L94 -148Q126 -158 146 -158Q174 -158 191 -149T222 -114T255 -39L258 -29L74 364H2V434H220V364H164L293 67L399 364H345L346
434H556ZM356 708L420 660L269 491L229 520L356 708Z" />
<glyph unicode="&#xfe;" glyph-name="thorn" horiz-adv-x="526" d="M213 449T269 449Q368 449 427 391T487 227Q487 155 459 100T380 15T263 -16Q206 -16 158 -1V-142H242V-211H-14V-142H70V553L-26 585L-2 658L157 603V419Q213 449 269 449ZM158 78T170 72T208
61T262 55Q327 55 361 101T396 227Q396 301 363 339T266 377Q227 377 202 366T157 341V78Q158 78 170 72Z" />
<glyph unicode="&#xff;" glyph-name="ydieresis" horiz-adv-x="558" d="M556 434V364H482L314 -86Q287 -157 247 -193T151 -229Q117 -229 79 -216L94 -148Q126 -158 146 -158Q174 -158 191 -149T222 -114T255 -39L258 -29L74 364H2V434H220V364H164L293 67L399
364H345L346 434H556ZM214 630T232 612T250 570Q250 546 232 529T190 511Q166 511 149 528T131 570Q131 594 148 612T190 630Q214 630 232 612ZM396 630T413 612T431 570Q431 546 414 529T372 511Q347 511 330 528T312 570Q312 594 329 612T372 630Q396 630 413
612Z" />
<glyph unicode="&#x2013;" glyph-name="endash" horiz-adv-x="559" d="M45 271H514V194H45V271Z" />
<glyph unicode="&#x2014;" glyph-name="emdash" horiz-adv-x="780" d="M45 270H735V193H45V270Z" />
<glyph unicode="&#x2018;" glyph-name="quoteleft" horiz-adv-x="200" d="M151 569T135 544T110 497Q136 493 151 476T167 435Q167 405 147 387T97 369Q69 369 48 391T26 442Q26 514 120 608L156 576Q151 569 135 544Z" />
<glyph unicode="&#x2019;" glyph-name="quoteright" horiz-adv-x="200" d="M49 408T65 433T91 480Q64 484 49 501T33 542Q33 572 53 590T103 608Q131 608 152 587T174 536Q175 464 80 369L44 401Q49 408 65 433Z" />
<glyph unicode="&#x201a;" glyph-name="quotesinglbase" horiz-adv-x="202" d="M49 -84T63 -61T87 -14Q63 -10 48 7T33 47Q33 77 53 95T103 114Q132 114 154 93T176 41Q176 5 156 -32T109 -100T83 -128L44 -91Q49 -84 63 -61Z" />
<glyph unicode="&#x201c;" glyph-name="quotedblleft" horiz-adv-x="391" d="M151 569T135 544T110 497Q124 494 145 472T167 435Q167 405 147 387T97 369Q69 369 48 391T26 442Q26 514 120 608L156 576Q151 569 135 544ZM342 569T326 544T300 497Q315 494 336
472T357 435Q357 405 338 387T288 369Q260 369 238 390T216 441Q216 513 311 608L347 576Q342 569 326 544Z" />
<glyph unicode="&#x201d;" glyph-name="quotedblright" horiz-adv-x="391" d="M45 403T61 428T90 481Q76 483 55 505T33 542Q33 572 52 590T102 608Q131 608 152 587T174 536Q174 500 154 464T112 403T79 369L44 401Q45 403 61 428ZM236 403T252 428T281 481Q267
483 246 505T224 542Q224 572 243 590T293 608Q322 608 343 587T365 536Q365 501 345 465T303 403T270 369L235 401Q236 403 252 428Z" />
<glyph unicode="&#x201e;" glyph-name="quotedblbase" horiz-adv-x="388" d="M50 -81T65 -56T90 -8Q63 -5 48 12T33 53Q33 83 52 101T102 120Q131 120 152 99T174 48Q175 -24 79 -120L44 -88Q50 -81 65 -56ZM238 -81T253 -56T278 -8Q251 -5 236 12T221 53Q221
83 240 101T290 120Q319 120 340 99T362 48Q362 12 343 -24T278 -111T268 -120L232 -88Q238 -81 253 -56Z" />
<glyph unicode="&#x2022;" glyph-name="bullet" horiz-adv-x="318" d="M209 439T244 404T280 318Q280 268 245 233T159 197Q109 197 74 232T38 318Q38 368 73 403T159 439Q209 439 244 404Z" />
<glyph unicode="&#x2039;" glyph-name="guilsinglleft" horiz-adv-x="215" d="M151 -2L-7 217L151 436L208 396L83 217L208 38L151 -2Z" />
<glyph unicode="&#x203a;" glyph-name="guilsinglright" horiz-adv-x="214" d="M63 -2L6 38L131 217L6 396L63 436L221 217L63 -2Z" />
</font>
</defs>
</svg>
