<?xml version="1.0" standalone="no"?>
<!DOCTYPE svg PUBLIC "-//W3C//DTD SVG 1.1//EN" "http://www.w3.org/Graphics/SVG/1.1/DTD/svg11.dtd">
<svg xmlns="http://www.w3.org/2000/svg">
<defs >
<font id="Rochester" horiz-adv-x="918" ><font-face
    font-family="Rochester"
    units-per-em="2048"
    panose-1="2 0 5 4 0 0 0 2 0 2"
    ascent="2109"
    descent="-528"
    alphabetic="0" />
<glyph unicode=" " glyph-name="space" horiz-adv-x="471" />
<glyph unicode="!" glyph-name="exclam" horiz-adv-x="430" d="M123 92Q123 111 130 128T149 157T178 177T215 184Q234 184 251 177T280 158T300 128T307 92Q307 73 300 56T281 27T251 7T215 0Q196 0 179 7T150 26T130 56T123 92ZM195 1374Q196 1390 207 1402T232
1422T262 1434T287 1438Q305 1438 316 1431T328 1389Q328 1360 325 1307T316 1185T303 1035T289 871T274 706T261 553T251 426T246 338L195 340Q195 499 193 657T190 977Q190 1076 190 1174T195 1374Z" />
<glyph unicode="&quot;" glyph-name="quotedbl" horiz-adv-x="410" d="M82 1403H174V1075H113L82 1403ZM297 1075H236V1403H328L297 1075Z" />
<glyph unicode="#" glyph-name="numbersign" horiz-adv-x="942" d="M799 696Q808 696 813 680T819 647Q819 630 812 626T795 621Q779 621 734 622T612 623Q612 579 612 550T612 500T612 466T614 440Q614 429 598 425T565 420Q548 420 544 427T539 444Q539 460
540 505T541 623Q494 625 448 625T356 625Q356 580 356 551T356 501T356 466T358 440Q358 429 342 425T309 420Q292 420 288 427T283 444Q283 460 284 505T285 627Q241 627 212 627T162 627T128 627T102 625Q91 625 87 641T82 674Q82 691 89 695T106 700Q122 700
167 699T285 698Q287 743 287 789T287 883Q242 883 213 883T163 883T128 883T102 881Q91 881 87 897T82 930Q82 947 89 951T106 956Q122 956 167 955T289 954Q289 997 289 1026T289 1076T289 1111T287 1137Q287 1146 303 1151T336 1157Q353 1157 357 1150T362 1133Q362
1117 361 1072T360 952Q405 952 451 952T545 950Q545 995 545 1025T545 1076T545 1111T543 1137Q543 1146 559 1151T592 1157Q609 1157 613 1150T618 1133Q618 1117 617 1072T616 950Q659 950 688 950T738 950T773 950T799 952Q808 952 813 936T819 903Q819 886
812 882T795 877Q779 877 734 878T614 879Q614 832 614 786T612 694Q657 694 687 694T738 694T773 694T799 696ZM358 881Q358 836 358 790T356 696Q403 696 449 696T541 694Q543 741 543 787T543 879Q498 881 452 881T358 881Z" />
<glyph unicode="$" glyph-name="dollar" horiz-adv-x="1034" d="M471 213Q399 218 334 241T220 301T142 382T113 479Q113 507 121 532T143 578T175 617T211 650Q254 684 309 709L332 662Q307 643 289 617Q272 594 259 561T246 485Q246 444 260 407T303 341T374
291T471 264V782Q412 813 355 846T254 921T182 1014T154 1133Q154 1213 180 1274T249 1378T350 1448T471 1487V1622H532V1493Q539 1495 545 1495T559 1495Q617 1494 671 1480T768 1439T835 1371T860 1276Q860 1244 851 1217T828 1166T796 1123T758 1089Q713 1054
657 1030L621 1069Q650 1094 674 1126Q694 1153 710 1189T727 1270Q727 1320 712 1354T669 1411T607 1442T532 1452V924Q599 888 666 852T788 773T877 674T911 543Q911 480 886 421T813 316T694 242T532 211V0H471V213ZM788 477Q788 525 767 563T711 634T630 695T532
750V262Q590 263 637 279T718 324T770 392T788 477ZM256 1217Q256 1171 273 1134T319 1065T387 1006T471 954V1448Q429 1441 390 1423T321 1375T274 1306T256 1217Z" />
<glyph unicode="%" glyph-name="percent" horiz-adv-x="1290" d="M952 1188Q917 1174 873 1166T778 1157Q718 1157 673 1166T594 1190Q603 1159 608 1126T614 1055Q614 986 596 928T546 827T468 761T369 737Q315 737 270 760T192 826T141 927T123 1055Q123 1124
141 1182T192 1282T270 1348T369 1372Q427 1372 476 1344T559 1264Q594 1242 647 1225T778 1208Q824 1208 860 1214T925 1229T974 1249T1012 1272L1047 1323L1122 1270L254 29L178 82L952 1188ZM922 0Q868 0 823 23T745 89T694 190T676 317Q676 386 694 444T745
545T823 611T922 635Q976 635 1021 612T1098 546T1149 445T1167 317Q1167 248 1149 190T1099 90T1021 24T922 0ZM369 788Q407 788 431 808T468 863T487 948T492 1055Q492 1112 487 1161T469 1245T431 1301T369 1321Q330 1321 306 1301T269 1246T251 1161T246 1055Q246
997 250 948T268 864T306 808T369 788ZM922 51Q960 51 984 71T1021 126T1039 211T1044 317Q1044 375 1040 424T1022 508T984 564T922 584Q883 584 859 564T822 509T804 424T799 317Q799 260 803 211T821 127T859 71T922 51Z" />
<glyph unicode="&amp;" glyph-name="ampersand" horiz-adv-x="1516" d="M1280 559Q1318 559 1342 580T1366 627Q1366 640 1359 653T1336 676T1295 692T1233 698Q1186 698 1142 687T1053 659Q1095 617 1120 562T1145 434Q1145 329 1104 248T993 112T832 29T643
0Q545 0 452 29T286 116T168 262T123 467Q123 575 157 656T246 796T367 893T496 952Q457 972 420 1001T353 1066T307 1145T289 1239Q289 1309 319 1366T397 1463T508 1524T635 1546Q713 1546 769 1529T860 1484T911 1421T928 1352Q928 1323 918 1296T888 1249T840
1216T778 1204Q752 1204 731 1213T694 1235T668 1259T655 1276L688 1296Q693 1291 702 1284T724 1271T749 1260T778 1255Q818 1255 842 1284T866 1352Q866 1375 856 1398T823 1441T767 1473T684 1485Q621 1485 573 1462T493 1401T445 1314T428 1214Q428 1176 437
1140T465 1073T512 1016T580 975Q600 980 618 981T651 983Q677 983 692 976T707 954Q707 933 690 922T645 911Q628 911 609 914T567 924Q498 908 446 869T359 774T307 654T289 520Q289 438 314 358T392 215T521 113T702 74Q775 74 843 97T964 165T1049 276T1081
428Q1081 497 1058 549T997 639Q956 622 916 605T833 574T746 552T655 543Q619 543 593 552T549 575T523 609T514 649Q514 681 531 706T579 748T649 775T735 784Q783 784 834 774T936 741Q999 772 1069 796T1221 821Q1276 821 1316 807T1382 769T1421 717T1434
659Q1434 632 1424 607T1395 562T1347 530T1284 518L1280 559ZM735 737Q678 737 640 722T602 680Q602 664 620 654T678 643Q724 643 773 663T879 711Q841 725 804 731T735 737Z" />
<glyph unicode="&apos;" glyph-name="quotesingle" horiz-adv-x="276" d="M174 1075H102L82 1403H195L174 1075Z" />
<glyph unicode="(" glyph-name="parenleft" horiz-adv-x="686" d="M602 1620Q583 1613 551 1589T481 1521T406 1411T336 1254T286 1045T266 778Q266 629 285 511T336 302T405 145T481 36T550 -32T602 -63L586 -111Q557 -101 511 -74T414 1T311 118T217 283T149
502T123 778Q123 932 149 1054T217 1272T311 1437T414 1554T511 1629T586 1667L602 1620Z" />
<glyph unicode=")" glyph-name="parenright" horiz-adv-x="686" d="M100 1667Q129 1657 175 1630T272 1555T375 1438T469 1273T537 1055T563 778Q563 624 537 502T469 284T375 119T272 2T175 -73T100 -111L84 -63Q103 -56 135 -32T205 35T280 145T350 302T400
511T420 778Q420 926 401 1044T350 1254T281 1411T205 1521T136 1589T84 1620L100 1667Z" />
<glyph unicode="*" glyph-name="asterisk" horiz-adv-x="799" d="M477 889L397 1114L324 905L203 954L358 1137L141 1100L123 1229L356 1188L203 1366L332 1417L401 1212L487 1436L588 1352L442 1186L678 1227L655 1098L444 1137L586 977L477 889Z" />
<glyph unicode="+" glyph-name="plus" horiz-adv-x="829" d="M461 870V614H707V532H461V266H369V532H123V614H369V870H461Z" />
<glyph unicode="," glyph-name="comma" horiz-adv-x="399" d="M172 225Q195 225 214 216T247 189T268 149T276 100Q276 48 253 4T203 -72Q171 -110 131 -141L102 -115Q111 -109 123 -96T146 -65T164 -29T172 8Q172 20 158 28T127 49T96 79T82 131Q82 150 89 167T108
197T137 217T172 225Z" />
<glyph unicode="-" glyph-name="hyphen" horiz-adv-x="737" d="M123 614H614V532H123V614Z" />
<glyph unicode="." glyph-name="period" horiz-adv-x="389" d="M82 92Q82 111 89 128T108 157T138 177T174 184Q193 184 210 177T239 158T259 128T266 92Q266 73 259 56T240 27T210 7T174 0Q155 0 138 7T109 26T89 56T82 92Z" />
<glyph unicode="/" glyph-name="slash" horiz-adv-x="788" d="M199 -113L127 -94L590 1628L662 1610L199 -113Z" />
<glyph unicode="0" glyph-name="zero" horiz-adv-x="1167" d="M584 51Q668 51 723 109T811 265T857 487T870 748Q870 837 865 923T846 1087T812 1230T758 1343T683 1417T584 1444Q527 1444 484 1418T409 1344T356 1231T321 1088T303 924T297 748Q297 613 310 488T355
265T443 110T584 51ZM584 0Q468 0 384 56T243 212T160 449T133 748Q133 909 160 1046T243 1282T383 1438T584 1495Q699 1495 784 1439T924 1283T1007 1046T1034 748Q1034 586 1007 449T925 213T784 57T584 0Z" />
<glyph unicode="1" glyph-name="one" horiz-adv-x="778" d="M72 72L256 78Q294 80 311 95T328 150V1229Q289 1209 243 1193Q204 1179 152 1168T41 1157V1208Q96 1208 152 1233T255 1299T338 1391T389 1495H481V150Q481 111 498 96T553 78L707 72V0H72V72Z" />
<glyph unicode="2" glyph-name="two" horiz-adv-x="1096" d="M82 0Q82 9 81 19T80 39Q80 166 113 262T201 434T326 568T469 679T612 780T736 886T824 1010T858 1167Q858 1236 835 1293T771 1390T674 1453T553 1475Q476 1475 416 1446T315 1372T251 1276T229 1178Q229
1132 242 1100T278 1046T329 1016T389 1006Q423 1006 455 1016T516 1044L549 1004Q534 981 511 956T459 911T396 877T322 864Q281 864 243 878T175 921T127 996T109 1106Q109 1171 139 1245T229 1381T373 1485T569 1526Q650 1526 725 1495T859 1410T953 1280T989
1116Q989 1018 961 947T884 823T771 728T638 650T497 573T361 485T245 370T162 213Q177 233 194 250T232 280T280 300T338 307Q374 307 411 297T487 270T564 236T641 201T716 175T788 164Q818 164 842 168T885 183T921 214T952 268L987 260Q982 216 968 170T925
86T854 24T748 0Q709 0 670 14T591 50T514 97T439 144T367 180T299 195Q267 195 242 182T199 149T168 104T147 59T134 21T127 0H82Z" />
<glyph unicode="3" glyph-name="three" horiz-adv-x="1126" d="M410 799Q473 832 538 878T657 981T744 1109T778 1260Q778 1312 762 1350T718 1412T653 1448T575 1460Q528 1460 484 1442T405 1392T349 1315T328 1219Q328 1172 345 1138T383 1080Q407 1053 438
1034L416 989Q361 1001 322 1023T256 1073T218 1135T205 1204Q205 1259 232 1313T311 1412T436 1483T600 1511Q664 1511 725 1497T834 1454T911 1379T940 1270Q940 1218 916 1168T854 1072T771 985T684 911T609 855T563 819Q670 815 754 782T895 696T983 574T1014
430Q1014 358 993 298T935 190T848 106T741 46T621 10T496 -2Q417 -2 344 17T215 74T126 171T92 307Q92 349 103 390T134 469T180 540T238 600L274 573Q250 525 239 476T227 377Q227 297 254 237T325 137T425 77T541 57Q599 57 655 77T755 136T827 233T854 369Q854
435 828 502T748 624T616 713T430 748L410 799Z" />
<glyph unicode="4" glyph-name="four" horiz-adv-x="1065" d="M72 549Q239 697 344 834T510 1093T592 1316T614 1495H778Q778 1405 750 1317T674 1143T568 979T448 830T330 699T229 592Q243 594 258 596T297 598Q363 598 420 577T528 527T628 472T725 432Q731
610 731 807V942L874 983Q874 934 874 872T872 738T870 588T866 428Q888 431 909 438T958 461L983 430Q957 408 926 395T864 375Q861 281 857 186T848 0H705Q710 90 715 183T723 377Q671 389 622 417T520 475T411 527T287 549Q253 549 226 542T176 525T138 505T109
487L72 549Z" />
<glyph unicode="5" glyph-name="five" horiz-adv-x="1188" d="M270 1452H754Q784 1452 813 1453T869 1459T916 1472T952 1495L987 1468Q955 1430 923 1398T851 1343T757 1307T629 1294H334L309 991Q444 987 553 964T746 902T892 812T992 703T1050 581T1069 453Q1069
362 1034 277T934 126T777 20T571 -20Q483 -20 402 2T258 67T159 170T121 307Q121 349 132 390T162 469T208 540T266 600L303 573Q278 525 267 476T256 377Q256 309 277 247T341 136T446 60T592 31Q670 31 732 60T836 137T901 250T924 385Q924 446 907 509T853
630T760 740T626 830T450 890T229 913L270 1452Z" />
<glyph unicode="6" glyph-name="six" horiz-adv-x="1106" d="M600 821Q546 821 493 794T399 718T333 604T307 461Q307 372 329 297T389 166T478 80T588 49Q639 49 688 76T774 155T835 278T858 440Q858 527 840 597T789 717T708 794T600 821ZM774 1454Q733 1436
685 1408T588 1336T490 1235T402 1099T332 923T289 702Q299 719 325 749T393 808T489 859T612 881Q706 881 782 849T910 763T991 636T1020 483Q1020 369 985 279T889 127T750 31T582 -2Q483 -2 399 42T253 167T158 362T123 616Q123 732 149 839T222 1039T331 1211T463
1348T609 1444T758 1493L774 1454Z" />
<glyph unicode="7" glyph-name="seven" horiz-adv-x="963" d="M68 1249Q68 1304 79 1349T115 1426T175 1477T260 1495Q318 1495 375 1482T489 1454T607 1426T733 1413Q775 1413 805 1420T856 1438Q879 1449 895 1464L920 1434Q822 1331 751 1239T630 1063T550
903T502 758T479 625T473 504Q473 415 481 349T500 234T519 147T528 76Q528 34 507 17T453 0Q418 0 391 9T344 45T314 117T303 236Q303 385 332 532T416 816T550 1075T729 1296Q715 1293 698 1292T662 1290Q620 1290 568 1296T462 1311T355 1326T256 1333Q196 1333
161 1315T119 1249H68Z" />
<glyph unicode="8" glyph-name="eight" horiz-adv-x="1188" d="M1083 446Q1083 339 1042 253T933 107T779 13T602 -20Q502 -20 415 9T262 93T159 223T121 393Q121 484 153 553T237 675T356 771T492 852Q443 886 400 923T325 1003T273 1093T254 1198Q254 1273 284
1332T363 1432T474 1494T602 1516Q677 1516 740 1496T850 1438T923 1347T950 1229Q950 1170 931 1125T880 1042T804 974T711 915Q779 872 846 826T965 723T1050 599T1083 446ZM254 385Q254 298 283 232T362 122T473 54T602 31Q669 31 730 51T837 114T912 219T940
369Q940 447 904 509T811 625T683 724T541 819Q484 785 432 746T341 655T278 537T254 385ZM848 1239Q848 1291 832 1334T784 1409T706 1457T602 1475Q557 1475 516 1460T444 1418T395 1350T377 1260Q377 1211 400 1170T461 1091T550 1019T657 950Q698 977 733 1007T793
1072T833 1149T848 1239Z" />
<glyph unicode="9" glyph-name="nine" horiz-adv-x="1075" d="M512 670Q566 670 615 698T702 776T762 898T784 1055Q784 1150 766 1222T713 1343T630 1417T524 1442Q473 1442 428 1415T348 1336T294 1213T274 1051Q274 964 288 894T333 774T407 697T512 670ZM338
37Q379 55 425 83T519 155T612 256T695 392T761 567T803 788Q792 771 769 741T709 682T620 632T500 610Q405 610 331 642T206 728T129 855T102 1008Q102 1122 136 1212T228 1364T364 1460T530 1493Q629 1493 710 1453T848 1335T937 1141T969 874Q969 758 944 652T875
452T772 280T644 143T501 47T354 -2L338 37Z" />
<glyph unicode=":" glyph-name="colon" horiz-adv-x="430" d="M123 154Q123 173 130 190T149 219T179 239T215 246Q234 246 251 239T280 220T300 190T307 154Q307 134 300 118T281 88T251 68T215 61Q196 61 179 68T150 88T130 117T123 154ZM123 625Q123 644 130
661T149 690T179 710T215 717Q234 717 251 710T280 691T300 661T307 625Q307 605 300 589T281 559T251 539T215 532Q196 532 179 539T150 559T130 588T123 625Z" />
<glyph unicode=";" glyph-name="semicolon" horiz-adv-x="430" d="M123 625Q123 644 130 661T149 690T179 710T215 717Q234 717 251 710T280 691T300 661T307 625Q307 605 300 589T281 559T251 539T215 532Q196 532 179 539T150 559T130 588T123 625ZM225 246Q272
246 300 211T328 123Q328 71 305 27T254 -50Q221 -89 180 -121L152 -94Q161 -88 173 -75T195 -44T213 -8T221 29Q221 41 206 49T173 69T140 100T125 152Q125 171 133 188T156 218T188 238T225 246Z" />
<glyph unicode="&lt;" glyph-name="less" horiz-adv-x="932" d="M809 328L778 266L123 645L778 1024L809 963L276 645L809 328Z" />
<glyph unicode="=" glyph-name="equal" horiz-adv-x="809" d="M123 748H686V686H123V748ZM123 604H686V543H123V604Z" />
<glyph unicode="&gt;" glyph-name="greater" horiz-adv-x="932" d="M655 645L123 963L154 1024L809 645L154 266L123 328L655 645Z" />
<glyph unicode="?" glyph-name="question" horiz-adv-x="891" d="M371 375Q369 389 368 403Q366 415 366 428T365 453Q365 565 388 646T445 785T520 886T595 962T653 1028T676 1100Q676 1143 657 1178T608 1238T537 1276T455 1290Q416 1290 379 1278T312 1239T264
1172T246 1075Q246 1022 262 983T297 917T331 877T346 864L322 823Q321 823 306 827T269 843T222 872T174 919T138 985T123 1075Q123 1136 152 1183T227 1262T331 1310T446 1327Q510 1327 568 1308T670 1250T741 1156T768 1024Q768 977 742 938T677 860T592 777T507
679T442 556T416 395V375H371ZM307 92Q307 111 314 128T333 157T363 177T399 184Q418 184 435 177T465 158T485 128T492 92Q492 73 485 56T465 27T435 7T399 0Q380 0 363 7T334 26T314 56T307 92Z" />
<glyph unicode="@" glyph-name="at" horiz-adv-x="1188" d="M1065 487Q1065 415 1048 357T1004 259T941 196T868 174Q844 174 822 181T780 205T747 244T727 299Q695 236 645 206T541 176Q488 176 449 197T383 252T345 331T332 424Q332 476 347 527T393 618T468
684T573 709Q626 709 674 684T752 606L756 662Q758 680 779 685T823 690Q837 690 843 685T850 666Q850 659 845 636T835 572T824 474T819 342Q819 289 834 265T872 240Q914 240 933 301T952 487Q952 567 932 633T869 748T763 823T610 850Q546 850 483 824T370 746T289
614T258 426Q258 346 282 279T353 164T463 88T608 61Q648 61 683 65T744 76Q774 83 799 92L815 49Q788 35 755 24Q727 15 690 8T608 0Q485 0 394 37T242 137T153 278T123 442Q123 529 154 613T246 763T399 870T610 911Q710 911 793 880T937 792T1031 657T1065 487ZM729
504Q729 540 719 568T691 614T650 643T602 653Q564 653 536 634T489 582T461 510T451 428Q451 390 459 355T483 293T523 250T580 233Q605 233 631 249T679 300T715 385T729 504Z" />
<glyph unicode="A" glyph-name="A" horiz-adv-x="1352" d="M969 358Q969 270 973 219T987 142T1012 109T1047 102Q1074 102 1103 119T1160 163T1213 223T1260 287T1297 346T1321 389L1352 451L1393 420L1362 358Q1354 343 1336 310T1291 236T1230 152T1157 72T1075
13T987 -10Q946 -10 914 4T860 53T827 150T815 307Q815 344 816 377T821 459Q770 360 704 268T561 105T403 -8T236 -51Q183 -51 135 -32T50 26T-9 128T-31 276Q-31 414 -1 547T84 804T211 1042T368 1253T544 1428T728 1563T907 1649T1071 1679Q1155 1679 1205 1637T1255
1516Q1255 1464 1235 1415T1181 1320T1105 1234T1019 1161T936 1104T866 1065L836 1106Q861 1119 893 1142T959 1196T1023 1264T1080 1343T1120 1429T1135 1518Q1135 1561 1113 1589T1040 1618Q981 1618 912 1588T770 1501T624 1368T482 1197T356 997T254 776T185
543T160 307Q160 253 168 208T194 130T241 79T313 61Q367 61 419 85T520 152T614 250T700 370T774 501T836 635Q843 710 852 778T870 901T887 990T901 1034Q905 1041 918 1050T947 1066T981 1079T1010 1085Q1040 1085 1040 1055Q1040 1027 1036 990T1025 913T1009
833T987 758Q979 649 974 549T969 358Z" />
<glyph unicode="B" glyph-name="B" horiz-adv-x="1402" d="M1173 1372Q1173 1283 1138 1205T1050 1060T933 941T812 848Q892 841 971 810T1114 723T1217 589T1257 410Q1257 328 1234 263T1171 146T1083 57T982 -4T882 -39T794 -51Q698 -51 635 -28T534 28T481
99T466 164Q466 207 484 246T534 318T606 374T691 412L712 379Q649 345 619 292T589 184Q589 154 601 122T639 62T703 18T794 0Q870 0 936 28T1050 107T1126 226T1154 373Q1154 454 1121 516T1032 620T904 685T753 707Q721 707 690 704T632 695T582 684T548 676L538
686L630 829Q641 832 655 836Q667 839 684 842T722 848Q770 877 822 921T918 1024T990 1156T1019 1315Q1019 1460 950 1534T753 1608Q679 1608 604 1577T460 1480T330 1316T225 1083T154 778T128 399Q128 313 135 240T158 114T197 30T251 0Q282 0 300 45T328 164T340
329T343 512Q343 652 339 775T331 996T322 1158T317 1245L433 1280Q438 1272 447 1232T465 1127T480 975T487 788Q487 619 478 492T451 271T412 115T363 17T308 -35T251 -51Q190 -51 142 -10T59 100T7 257T-11 440Q-11 575 14 719T88 1000T209 1261T375 1477T584
1624T835 1679Q912 1679 974 1659T1081 1599T1149 1502T1173 1372Z" />
<glyph unicode="C" glyph-name="C" horiz-adv-x="1116" d="M153 760Q153 580 194 446T302 223T456 90T634 45Q699 45 762 69T886 141T1001 261T1105 430L1116 451L1157 420L1146 399Q1091 288 1025 204T883 64T728 -22T563 -51Q491 -51 421 -31T287 31T169 136T74
283T12 474T-11 709Q-11 878 17 1015T94 1260T207 1447T343 1577T488 1654T630 1679Q719 1679 794 1649T923 1563T1007 1428T1038 1251Q1038 1158 1010 1076T934 933T825 835T696 799Q651 799 612 815T544 860T498 931T481 1024Q481 1073 496 1118T534 1202T584
1270T638 1317L665 1290Q644 1266 626 1239T593 1180T571 1112T563 1034Q563 991 573 957T602 899T645 863T696 850Q733 850 770 877T836 958T883 1090T901 1270Q901 1362 881 1429T824 1541T739 1606T634 1628Q594 1628 543 1611T439 1553T334 1448T243 1286T178
1059T153 760Z" />
<glyph unicode="D" glyph-name="D" horiz-adv-x="1554" d="M558 1679Q756 1679 916 1616T1191 1439T1367 1170T1429 829Q1429 710 1406 599T1340 390T1235 211T1094 72T922 -19T722 -51Q614 -51 504 -31T286 12Q249 -9 210 -24T132 -50T56 -66T-15 -72Q-115 -72
-167 -49T-220 20Q-220 47 -206 68T-157 103T-69 125T67 133Q130 133 191 127T312 111L339 139Q360 164 371 202T387 302T393 451T394 666Q394 788 395 874T403 1023T421 1128T453 1208T505 1280T579 1362L630 1317Q608 1296 596 1266T577 1194T570 1100T568 981V418Q568
353 554 305T517 218T463 150T401 94Q460 82 516 70T624 48T725 32T818 25Q900 25 964 61T1075 159T1154 306T1207 488T1235 691T1244 901Q1244 1066 1202 1197T1078 1419T873 1559T589 1608Q473 1608 387 1590T240 1541T139 1471T78 1391T47 1308T38 1233Q38 1193
44 1155T70 1086T126 1038T222 1020Q242 1020 255 1022T277 1029Q287 1033 294 1038L306 979Q291 968 256 960T179 952Q119 952 68 973T-22 1030T-81 1115T-103 1217Q-103 1310 -54 1393T83 1540T292 1641T558 1679ZM-56 61Q-72 61 -90 60T-123 55T-149 43T-159
20Q-159 0 -126 -10T-15 -20Q45 -20 99 -7T202 31Q136 43 71 52T-56 61Z" />
<glyph unicode="E" glyph-name="E" horiz-adv-x="1269" d="M532 0Q632 0 707 36T835 131Q771 143 718 173T625 247T564 348T542 471Q542 536 565 590T627 684T717 746T825 768Q877 768 925 749T1011 694T1070 603T1093 477Q1093 405 1062 326T974 176Q1034 184
1079 210T1157 272T1215 349T1259 430L1269 451L1310 420L1300 399Q1269 337 1231 286T1147 199T1046 144T927 123Q850 45 742 -3T501 -51Q384 -51 288 -12T124 94T17 250T-21 440Q-21 554 14 638T106 783T230 882T366 946Q302 970 253 1007T171 1089T120 1186T102
1290Q102 1384 141 1456T242 1578T383 1653T542 1679Q608 1679 668 1663T774 1618Q798 1623 824 1625T880 1628V1587Q863 1587 848 1586T819 1583Q848 1555 864 1521T880 1444Q880 1405 868 1373T833 1318T780 1283T716 1270Q678 1270 649 1282T599 1314T568 1361T557
1417Q557 1442 565 1468T591 1518T636 1563T702 1599Q664 1615 623 1621T552 1628Q482 1628 429 1604T339 1534T285 1425T266 1282Q266 1231 278 1182T313 1091T371 1019T452 973Q495 984 529 988T583 993Q617 993 632 982T647 954Q647 946 644 939T633 925T611
915T573 911Q544 911 516 913T462 920Q396 903 341 863T247 762T185 620T163 440Q163 326 194 243T277 106T395 26T532 0ZM962 461Q962 523 948 568T909 642T854 686T790 700Q755 700 722 685T663 640T620 568T604 471Q604 411 623 361T678 272T763 209T872 176Q918
242 940 317T962 461ZM829 1444Q829 1487 808 1518T755 1571Q716 1560 688 1543T643 1506T617 1463T608 1419Q608 1379 636 1350T716 1321Q770 1321 799 1355T829 1444Z" />
<glyph unicode="F" glyph-name="F" horiz-adv-x="1190" d="M820 819V1004Q820 1124 827 1222T861 1405Q782 1417 699 1433T537 1465T386 1490T257 1501Q180 1501 129 1489T47 1455T4 1407T-9 1348Q-9 1317 5 1291T47 1246T111 1215T195 1204Q246 1204 285 1215T353
1241Q386 1257 411 1278L431 1235Q400 1212 363 1194Q331 1178 289 1166T195 1153Q128 1153 77 1171T-10 1219T-63 1291T-81 1378Q-81 1427 -65 1473T-10 1555T92 1612T247 1634Q332 1634 417 1621T586 1588T749 1546T902 1505Q945 1584 1009 1631T1148 1679Q1180
1679 1205 1669T1247 1641T1272 1602T1281 1554Q1281 1512 1262 1482T1208 1431T1128 1401T1029 1391Q1017 1391 1005 1391T980 1393Q972 1343 968 1282T963 1143V819H1097L1076 758H963V512Q963 428 961 366T950 255T923 168T873 92Q818 29 720 -11T482 -51Q396
-51 318 -27T181 40T87 143T52 276Q52 330 69 373T115 449T176 507T242 547T300 572T339 584L359 543Q336 531 308 511T254 459T212 382T195 276Q195 211 217 160T278 73T372 19T492 0Q565 0 625 20T729 87T796 212T820 406V758H626L646 819H820ZM1148 1624Q1103
1624 1065 1592T1002 1481Q1033 1476 1062 1473T1117 1470Q1144 1470 1163 1477T1195 1497T1213 1524T1219 1554Q1219 1583 1199 1603T1148 1624Z" />
<glyph unicode="G" glyph-name="G" horiz-adv-x="1137" d="M1167 399Q1146 358 1119 322T1061 255T1001 199T946 154V39Q946 -92 926 -194T867 -367T775 -475T655 -512Q619 -512 589 -498T538 -458T504 -400T492 -328Q492 -255 516 -194T583 -78T680 26T797 125Q798
180 800 234T805 336T810 423T815 487Q781 418 739 352T648 225T548 115T442 27T337 -30T236 -51Q182 -51 134 -30T49 38T-9 156T-31 328Q-31 440 -6 558T63 792T168 1019T301 1228T454 1409T619 1552T787 1645T952 1679Q1036 1679 1086 1637T1137 1516Q1137 1474
1120 1435T1073 1359T1006 1290T931 1230T855 1182T788 1147L758 1188Q796 1207 841 1242T925 1321T990 1416T1016 1518Q1016 1561 994 1589T922 1618Q846 1618 760 1571T588 1440T424 1240T286 984T190 689T154 369Q154 297 164 240T194 144T242 83T307 61Q351
61 403 88T507 161T611 267T705 395T780 531T827 662Q833 735 839 795T850 902T861 976T870 1014Q878 1029 893 1044T925 1070T960 1089T989 1096Q1005 1096 1010 1083T1016 1055Q1016 1011 1001 938T963 768Q953 726 949 658T943 512T941 356T940 215Q1014 269
1058 326T1126 430L1137 451L1178 420L1167 399ZM795 51Q748 14 709 -27T643 -115T600 -217T584 -338Q584 -400 604 -430T655 -461Q686 -461 711 -435T755 -348T784 -189T795 51Z" />
<glyph unicode="H" glyph-name="H" horiz-adv-x="1857" d="M1469 -61V713Q1291 721 1126 732T823 754V530Q823 395 798 296T717 130T577 32T373 0Q289 0 216 25T89 98T5 211T-26 358Q-26 446 14 529T131 677T323 780T588 819H670V987Q670 1067 673 1140T692 1283T738
1417T823 1546Q768 1505 704 1491T572 1477Q526 1477 480 1481T388 1491T301 1500T219 1505Q177 1505 146 1495T95 1466T65 1423T55 1372Q55 1345 68 1320T106 1274T167 1241T250 1229Q292 1229 326 1237T384 1255Q412 1266 434 1282L455 1239Q428 1221 395 1208Q367
1197 330 1188T250 1178Q192 1178 145 1194T65 1239T13 1307T-6 1393Q-6 1447 14 1488T68 1559T149 1603T250 1618Q305 1618 359 1611T466 1596T572 1580T676 1573Q727 1573 776 1582T875 1618L916 1587Q893 1557 876 1520T847 1430T829 1304T823 1126V819H1469V1106Q1469
1203 1474 1278T1488 1413T1512 1519T1544 1604T1585 1675T1632 1741L1673 1710Q1658 1679 1647 1643T1628 1549T1616 1405T1612 1188V819H1786L1755 707Q1720 707 1684 707T1612 709V-41L1469 -61ZM393 51Q462 51 514 70T600 133T652 249T670 428V764Q639 766
610 767T557 768Q470 768 403 750T286 700T202 628T146 542T116 449T107 358Q107 274 133 216T200 121T292 68T393 51Z" />
<glyph unicode="I" glyph-name="I" horiz-adv-x="1004" d="M677 406Q677 433 676 458T672 511T667 568T661 637Q620 621 574 613T472 604Q410 604 353 623T252 681T182 776T155 911Q155 960 166 1005T207 1101T284 1209T407 1343T582 1513T820 1731L861 1700Q839
1670 822 1634T793 1551T775 1443T769 1300Q769 1179 778 1055T798 811Q818 839 833 870T861 932L902 911Q882 863 859 821T804 743Q809 692 814 650T822 570T828 499T831 430Q831 322 812 238T736 92Q681 29 580 -11T339 -51Q253 -51 175 -27T38 40T-56 143T-91
276Q-91 330 -74 373T-28 449T33 507T99 547T157 572T196 584L216 543Q193 531 165 511T111 459T69 382T52 276Q52 211 74 160T135 73T229 19T349 0Q422 0 482 20T586 87T653 212T677 406ZM677 1526Q599 1451 539 1391T435 1281T360 1189T312 1105T286 1022T278
932Q278 786 343 721T523 655Q561 655 594 662T657 684Q650 753 643 822T629 956T620 1078T616 1178Q616 1221 620 1272T633 1371T652 1461T677 1526Z" />
<glyph unicode="J" glyph-name="J" horiz-adv-x="1013" d="M491 1679Q578 1679 646 1627T762 1467T834 1196T859 809Q859 783 858 758T857 707L890 748L931 717L853 629Q821 339 762 125T627 -231T465 -442T290 -512Q254 -512 225 -498T175 -458T143 -400T132
-328Q132 -232 174 -132T289 77T464 301T683 545Q688 636 692 732T696 942Q696 1139 682 1271T640 1482T575 1595T491 1628Q430 1628 370 1574T261 1416T183 1162T153 819Q153 718 169 648T212 535T274 471T347 451Q401 451 446 487T524 585T575 725T593 889Q593
913 592 934T588 971Q585 989 583 1004L634 1014Q636 1001 639 983Q641 967 642 945T644 891Q644 799 622 711T559 553T460 442T327 399Q246 399 184 432T78 528T12 680T-11 881Q-11 991 10 1093T69 1283T155 1445T260 1570T375 1650T491 1679ZM327 -451Q350 -451
381 -437T447 -384T516 -281T582 -114T638 129T677 461Q572 342 490 247T351 64T265 -107T235 -287Q235 -359 259 -405T327 -451Z" />
<glyph unicode="K" glyph-name="K" horiz-adv-x="1438" d="M1438 1577H1364Q1313 1577 1280 1555T1226 1496T1191 1409T1167 1303T1142 1187T1107 1071T1051 963T965 874Q1018 832 1055 773T1120 643T1167 497T1205 344T1243 197T1290 67T1355 -36T1446 -100Q1497
-120 1556 -126T1694 -133L1698 -174Q1685 -177 1668 -179Q1654 -181 1633 -182T1585 -184Q1441 -184 1346 -150T1190 -58T1098 76T1050 236T1025 407T1003 574T964 720T887 831Q849 816 803 805T700 791V512Q700 428 698 366T686 255T657 168T606 92Q551 29 450
-11T209 -51Q123 -51 45 -27T-92 40T-186 143T-221 276Q-221 330 -204 373T-159 449T-97 507T-32 547T26 572T66 584L86 543Q63 531 35 511T-19 459T-61 382T-78 276Q-78 211 -56 160T5 73T99 19T219 0Q292 0 352 20T456 87T523 212T547 406V797Q518 803 499 812T468
833T451 857T446 881Q446 892 451 904T467 928T498 949T547 965V1047Q547 1127 550 1199T569 1340T615 1473T700 1602Q649 1570 595 1558T485 1546Q416 1546 345 1555T199 1565Q157 1565 126 1554T75 1525T45 1483T35 1432Q35 1405 48 1379T86 1333T147 1301T229
1288Q271 1288 305 1296T364 1314Q392 1325 414 1341L434 1298Q407 1280 374 1267Q346 1256 309 1247T229 1237Q172 1237 125 1253T44 1298T-8 1366T-27 1452Q-27 1506 -7 1547T47 1618T128 1662T229 1677Q284 1677 332 1671T423 1657T507 1643T588 1636Q628 1636
668 1645T752 1677L793 1647Q770 1617 753 1580T724 1490T706 1363T700 1186V969Q810 960 887 924Q939 960 965 1009T1004 1115T1021 1231T1031 1348T1051 1456T1097 1545T1186 1605T1335 1628H1438V1577ZM700 858Q757 864 805 881Q758 899 700 905V858ZM498 881Q498
868 508 861T547 850V907Q516 904 507 897T498 881Z" />
<glyph unicode="L" glyph-name="L" horiz-adv-x="818" d="M654 1137Q708 1183 737 1250T767 1403Q767 1449 756 1490T722 1561T667 1610T593 1628Q558 1628 527 1613T471 1567T433 1490T418 1382Q418 1321 427 1237T449 1049T470 825T480 573Q480 505 469 445T436
332T387 236T324 156Q380 130 434 99T542 37T649 -24T758 -76T871 -113T992 -127Q1111 -127 1176 -92L1197 -119Q1176 -137 1140 -157T1058 -195T961 -224T859 -236Q750 -236 658 -206T488 -130T343 -33T216 63Q157 26 98 8T-12 -10Q-54 -10 -82 0T-128 27T-153
63T-161 102Q-161 125 -147 147T-107 186T-43 214T40 225Q91 225 138 216T232 193Q269 251 292 336T316 543Q316 675 307 783T286 987T265 1171T255 1352Q255 1433 284 1494T360 1597T465 1658T582 1679Q647 1679 701 1659T795 1605T857 1524T879 1423Q879 1365
860 1315T813 1223T750 1149T685 1096L654 1137ZM-12 41Q26 41 70 55T156 104Q114 130 76 147T-1 164Q-45 164 -74 149T-104 102Q-104 71 -79 56T-12 41Z" />
<glyph unicode="M" glyph-name="M" horiz-adv-x="1684" d="M517 1677Q531 1639 551 1564T595 1389T645 1174T698 938T750 701T798 484T837 307T865 188Q887 244 916 326T980 505T1052 712T1128 933T1206 1154T1281 1360T1349 1539T1408 1677L1490 1667Q1472 1604
1454 1521T1420 1340T1388 1135T1362 918T1345 702T1338 498Q1338 309 1365 211T1449 113Q1474 113 1497 133T1547 193T1604 292T1674 430L1684 451L1725 420L1715 399Q1665 299 1626 225T1550 100T1477 25T1397 0Q1337 0 1297 29T1233 113T1198 246T1187 422Q1187
529 1198 646T1224 875T1256 1080T1285 1237L834 -51L752 -31Q752 -10 739 58T705 224T658 439T603 676Q538 956 455 1298Q458 1226 462 1153Q465 1090 467 1019T470 885Q470 704 450 564T394 321T312 146T212 32T104 -30T-5 -49Q-58 -49 -104 -32T-185 17T-240
91T-261 184Q-261 243 -242 297T-188 398T-106 487T-5 563L25 532Q-13 505 -45 472T-100 400T-136 320T-149 236Q-149 197 -137 163T-101 103T-45 62T29 47Q71 47 116 64T203 122T284 229T351 393T397 622T414 924Q414 973 412 1039T405 1177T394 1321T382 1456T368
1566T353 1636L517 1677Z" />
<glyph unicode="N" glyph-name="N" horiz-adv-x="1483" d="M162 1679Q210 1679 255 1634T342 1511T418 1331T482 1114Q553 1022 633 921T798 716T972 508T1149 303Q1086 580 1054 801T1022 1190Q1022 1311 1045 1402T1109 1555T1203 1648T1319 1679Q1365 1679
1399 1663T1457 1620T1492 1558T1504 1485Q1504 1434 1494 1390T1471 1313Q1456 1274 1438 1241L1399 1266Q1403 1275 1410 1292T1425 1335T1437 1393T1442 1464Q1442 1526 1414 1561T1340 1597Q1280 1597 1239 1557T1172 1445T1135 1277T1123 1069Q1123 965 1132
853T1156 628T1192 407T1237 205L1381 51L1260 -63Q1201 -6 1117 82T934 281T730 521T520 788Q530 731 533 668T537 528Q537 389 504 290T419 126T302 31T174 0Q125 0 81 17T3 67T-51 147T-71 256Q-71 349 -26 436T88 600L127 580Q107 550 90 516T59 447T37 374T29
301Q29 255 43 218T82 154T138 113T207 98Q254 98 302 125T390 213T455 370T480 604Q480 683 471 757T443 897Q334 1052 264 1165T153 1358T96 1491T80 1577Q80 1631 105 1655T162 1679ZM142 1608Q142 1598 159 1567T209 1487T288 1374T391 1235Q366 1314 337 1385T277
1511T217 1596T162 1628Q142 1628 142 1608Z" />
<glyph unicode="O" glyph-name="O" horiz-adv-x="1432" d="M265 967Q265 1040 278 1121T318 1282T387 1433T486 1559T615 1646T777 1679Q868 1679 943 1649T1077 1564T1180 1434T1254 1270T1297 1082T1312 879Q1312 765 1294 652T1239 436T1147 243T1019 89T855
-13T654 -51Q552 -51 463 -20T300 69T168 206T71 381T10 585T-11 809Q-11 922 9 1019T64 1198T141 1347T232 1467T325 1559T410 1624L453 1595Q384 1539 329 1457T234 1273T173 1054T152 809Q152 594 194 441T307 190T467 46T654 0Q758 0 847 46T1001 190T1104
441T1142 809Q1142 1015 1111 1167T1025 1418T897 1567T742 1616Q678 1616 627 1587T538 1508T471 1390T426 1245T400 1087T392 926Q392 832 398 768T412 663Q421 616 433 588L374 573Q360 589 342 618T306 694T277 808T265 967Z" />
<glyph unicode="P" glyph-name="P" horiz-adv-x="1218" d="M532 236Q521 158 500 104T449 15T381 -35T296 -51Q231 -51 175 -13T77 100T13 286T-11 543Q-11 696 18 840T102 1110T233 1340T404 1519T609 1635T839 1677Q942 1677 1027 1646T1173 1560T1267 1430T1300
1268Q1300 1163 1271 1073T1191 907T1068 773T914 673T738 610T550 584Q547 459 544 374T532 236ZM358 655Q363 653 370 651Q376 649 384 647T405 643Q403 768 401 872T395 1055Q391 1146 388 1219Q395 1225 404 1229Q412 1233 423 1236T450 1239Q496 1239 524
1223T552 1167Q552 1002 552 871T550 635Q681 635 787 685T969 818T1085 1011T1126 1239Q1126 1315 1106 1383T1043 1503T938 1585T788 1616Q701 1616 617 1583T456 1484T315 1320T203 1091T129 798T102 440Q102 356 110 277T139 136T192 37T276 0Q303 0 327 11T369
56T398 155T409 328Q409 396 408 462T407 592Q392 594 381 597T362 602Q353 605 347 608L358 655Z" />
<glyph unicode="Q" glyph-name="Q" horiz-adv-x="1403" d="M1024 -143Q989 -143 953 -132T880 -104T806 -65T733 -20Q655 -51 563 -51Q473 -51 426 -17T379 72Q379 126 417 160T532 195Q604 195 674 167T811 102Q872 156 922 236T1009 419T1065 649T1085 922Q1085
1102 1054 1235T966 1455T830 1585T655 1628Q570 1628 501 1596T378 1506T283 1369T217 1195T177 994T164 778Q164 650 179 545T218 360T273 226T338 143L307 102Q284 117 253 145T187 215T119 315T60 447T17 615T0 821Q0 941 25 1051T94 1257T199 1430T333 1563T488
1649T655 1679Q745 1679 824 1653T969 1580T1087 1467T1175 1319T1230 1145T1249 952Q1249 814 1223 682T1149 434T1033 223T881 63Q935 33 981 17T1065 0Q1102 0 1139 30T1216 115T1299 250T1393 430L1403 451L1444 420L1434 399Q1376 284 1325 185T1224 13T1125
-101T1024 -143ZM451 51Q451 28 479 14T553 0Q611 0 670 18Q622 47 580 66T502 86Q479 86 465 77T451 51Z" />
<glyph unicode="R" glyph-name="R" horiz-adv-x="1300" d="M931 1679Q1035 1679 1113 1652T1245 1578T1324 1467T1351 1331Q1351 1252 1325 1180T1252 1042T1142 920T1007 816T858 732T704 670Q758 622 802 559T886 424T965 277T1047 132T1140 -2T1255 -112T1400
-187T1583 -215L1587 -256Q1574 -259 1557 -261Q1543 -263 1522 -264T1474 -266Q1344 -266 1247 -237T1079 -157T957 -40T870 101T804 253T749 403T691 538T618 645Q598 640 579 637T540 631Q539 559 538 507T534 415T529 345T522 287Q511 209 490 155T439 66T371
16T286 0Q221 0 165 38T67 151T3 337T-21 594Q-21 747 12 887T105 1148T252 1367T443 1534T672 1641T931 1679ZM317 707Q317 733 337 751T393 776Q391 874 388 955T383 1095Q380 1164 378 1219Q385 1225 394 1229Q402 1233 413 1236T440 1239Q486 1239 514 1223T542
1167Q542 1049 542 949T540 760Q572 751 601 738T657 707Q749 732 842 779T1009 898T1130 1070T1177 1300Q1177 1385 1154 1445T1090 1543T996 1600T880 1618Q778 1618 680 1589T494 1499T333 1347T206 1130T122 846T92 492Q92 407 100 328T129 187T182 88T266
51Q293 51 317 62T359 107T388 206T399 379Q399 418 399 448T399 507T399 565T397 629Q359 638 338 658T317 707ZM368 707Q368 697 371 690T395 678V725Q368 719 368 707ZM540 682Q548 682 555 683T571 686Q563 691 556 695T540 702V682Z" />
<glyph unicode="S" glyph-name="S" horiz-adv-x="1096" d="M758 1135Q781 1152 799 1176T831 1228T851 1287T858 1350Q858 1398 842 1445T789 1531T694 1594T553 1618Q461 1618 379 1588T236 1507T138 1389T102 1249Q102 1172 138 1113T234 1005T370 915T525 834T680
751T815 653T911 532T948 377Q948 293 908 216T798 80T634 -15T430 -51Q308 -51 229 -25T103 42T38 128T20 215Q20 264 35 303T77 374T135 429T202 469T269 496T328 512L338 461Q326 457 295 442T229 397T169 323T143 219Q143 178 160 139T213 69T299 19T418 0Q500
0 561 15T667 56T740 113T785 181T808 250T815 313Q815 389 780 446T688 549T557 632T408 707T258 784T128 875T35 991T0 1145Q0 1263 49 1361T181 1530T373 1640T604 1679Q707 1679 780 1655T899 1592T967 1503T989 1401Q989 1339 968 1288T916 1198T850 1132T788
1094L758 1135Z" />
<glyph unicode="T" glyph-name="T" horiz-adv-x="1189" d="M909 1188Q909 1086 920 990T944 797T969 602T981 395Q981 294 954 212T868 71T717 -19T494 -51Q408 -51 330 -27T193 40T99 143T64 276Q64 330 81 373T126 449T187 507T253 547T311 572T350 584L371
543Q348 531 320 511T266 459T224 382T207 276Q207 211 229 160T290 73T384 19T504 0Q571 0 631 16T738 72T811 175T838 334Q838 429 828 524T805 716T783 910T772 1108Q772 1195 781 1267T811 1405Q732 1417 649 1433T487 1465T336 1490T207 1501Q130 1501 79
1489T-3 1455T-46 1407T-59 1348Q-59 1317 -45 1291T-3 1246T61 1215T145 1204Q196 1204 235 1215T303 1241Q336 1257 361 1278L381 1235Q350 1212 313 1194Q281 1178 239 1166T145 1153Q78 1153 27 1171T-60 1219T-113 1291T-131 1378Q-131 1427 -115 1473T-60
1555T42 1612T197 1634Q282 1634 367 1621T536 1588T699 1546T852 1505Q895 1584 959 1631T1098 1679Q1130 1679 1155 1669T1197 1641T1222 1602T1231 1554Q1231 1512 1212 1482T1158 1431T1078 1401T979 1391Q967 1391 955 1391T930 1393Q921 1359 915 1305T909
1188ZM1098 1624Q1053 1624 1015 1592T952 1481Q983 1476 1012 1473T1067 1470Q1094 1470 1113 1477T1145 1497T1163 1524T1169 1554Q1169 1583 1149 1603T1098 1624Z" />
<glyph unicode="U" glyph-name="U" horiz-adv-x="1551" d="M619 0Q678 0 733 28T839 106T935 225T1022 375V422Q1022 547 1031 688T1059 970T1103 1238T1161 1464T1233 1620T1315 1679Q1346 1679 1361 1647T1376 1546Q1376 1475 1364 1366T1326 1127T1263 851T1174
561V498Q1174 309 1203 211T1305 113Q1333 113 1358 131T1409 187T1466 285T1540 430L1551 451L1591 420L1581 399Q1531 299 1492 225T1416 100T1337 25T1243 0Q1143 0 1092 74T1026 289Q985 214 939 152T840 44T730 -26T608 -51Q543 -51 482 -28T374 42T299 163T271
338Q271 448 293 555T350 764T424 964T498 1150T555 1321T578 1475Q578 1518 569 1547T544 1595T505 1620T455 1628Q381 1628 311 1594T178 1503T63 1372T-28 1217T-87 1055T-108 901Q-108 824 -79 786T4 748Q43 748 83 771T160 837T231 937T291 1065L332 1044Q313
998 281 938T203 824T101 733T-26 696Q-68 696 -104 709T-166 750T-206 817T-221 911Q-221 1001 -191 1093T-108 1270T14 1430T162 1560T324 1647T486 1679Q534 1679 573 1664T641 1618T685 1541T701 1434Q701 1360 680 1267T627 1072T558 861T489 646T436 440T414
256Q414 174 435 124T488 46T554 9T619 0ZM1284 1587Q1270 1587 1258 1548T1236 1442T1216 1288T1200 1104T1187 910T1178 723Q1211 836 1236 947T1278 1159T1304 1343T1313 1483Q1313 1532 1306 1559T1284 1587Z" />
<glyph unicode="V" glyph-name="V" horiz-adv-x="1361" d="M1082 1669Q1143 1669 1186 1638T1257 1548T1298 1406T1311 1219Q1311 1123 1300 1018T1268 806T1215 593T1143 393T1054 217T948 76T827 -17T691 -51Q616 -51 562 -25T470 47T409 152T374 278T357 412T353
543Q353 662 363 774T385 992T408 1193T418 1376Q418 1449 410 1497T386 1575T344 1616T285 1628Q241 1628 198 1608T116 1553T43 1469T-14 1363T-53 1244T-67 1118Q-67 1053 -58 1009T-34 938T4 899T54 887Q101 887 139 912T205 984T251 1096T277 1241L324 1239Q321
1205 314 1162T292 1074T257 986T205 910T133 857T38 836Q-1 836 -43 851T-120 898T-177 981T-200 1106Q-200 1178 -180 1248T-124 1382T-40 1500T66 1594T186 1656T312 1679Q580 1679 580 1290Q580 1195 572 1088T554 870T536 647T527 432Q527 298 539 215T574
87T630 26T705 10Q768 10 829 56T945 182T1046 368T1127 595T1180 844T1199 1096Q1199 1235 1184 1327T1143 1475T1083 1554T1010 1577Q983 1577 959 1568T913 1544T875 1514T847 1485L806 1516Q820 1534 847 1560T911 1610T991 1651T1082 1669Z" />
<glyph unicode="W" glyph-name="W" horiz-adv-x="1927" d="M651 72Q688 72 726 93T801 152T871 241T931 350T978 472T1008 600Q1010 693 1017 784T1034 951Q1045 1038 1057 1118L1216 1161Q1204 1073 1194 962Q1186 867 1180 737T1173 451Q1173 325 1189 241T1234
105T1300 32T1380 10Q1434 10 1480 43T1564 135T1631 274T1680 450T1710 650T1720 862Q1720 1002 1709 1109T1678 1296T1632 1428T1578 1513T1519 1559T1462 1573Q1433 1573 1409 1563T1366 1536T1331 1503T1305 1470L1259 1497Q1271 1516 1295 1545T1354 1602T1432
1649T1526 1669Q1599 1669 1655 1620T1750 1481T1809 1265T1829 985Q1829 857 1817 731T1779 489T1716 275T1627 104T1512 -10T1370 -51Q1301 -51 1243 -23T1139 60T1063 198T1018 389Q989 313 947 243T853 118T741 32T616 0Q556 0 500 19T401 86T331 211T305 408Q305
499 322 592T365 779T421 963T477 1140T520 1305T537 1454Q537 1545 501 1586T401 1628Q331 1628 268 1597T150 1512T51 1390T-25 1243T-73 1087T-90 936Q-90 737 29 737Q67 737 105 760T177 826T239 926T287 1055L330 1034Q320 1003 305 966T268 889T220 814T160
749T88 703T2 686Q-95 686 -153 751T-211 948Q-211 1035 -185 1123T-112 1292T-4 1444T129 1567T276 1649T428 1679Q490 1679 540 1663T624 1613T677 1527T696 1403Q696 1332 681 1249T642 1076T591 890T540 698T501 507T485 324Q485 256 496 208T528 130T580 86T651
72Z" />
<glyph unicode="X" glyph-name="X" horiz-adv-x="1444" d="M236 1667Q269 1667 296 1656T350 1614T407 1530T479 1393T574 1193T702 918Q774 1093 830 1224T945 1442T1069 1572T1225 1616L1303 1612L1284 1470Q1270 1472 1255 1475Q1242 1477 1227 1479T1198 1481Q1154
1481 1120 1471T1053 1433T990 1360T923 1240T844 1065T745 825Q786 735 828 648T913 481T995 335T1073 218T1145 141T1208 113Q1242 113 1273 144T1331 223T1384 326T1434 430L1444 451L1485 420L1475 399Q1433 314 1398 241T1325 115T1246 31T1147 0Q1079 0 1018
54T899 199T783 406T662 647Q603 522 537 404T400 192T254 43T106 -14Q79 -14 58 -10T22 0Q4 6 -8 14L33 172Q93 141 145 141Q191 141 235 168T323 242T406 349T482 476T551 610T612 739Q530 922 471 1054T371 1280T301 1430T253 1519T216 1562T182 1573Q158 1573
137 1554T97 1507T66 1450T45 1401L0 1421Q14 1463 34 1507T84 1586T150 1644T236 1667Z" />
<glyph unicode="Y" glyph-name="Y" horiz-adv-x="1479" d="M650 0Q717 0 778 33T894 127T999 268T1092 446Q1096 604 1101 757T1116 1047T1140 1300T1180 1500T1240 1631T1326 1679Q1356 1679 1381 1647T1407 1546Q1407 1482 1398 1388T1369 1180T1320 939T1250
682V627Q1250 491 1248 350T1238 67T1217 -213T1182 -481L1029 -502Q1058 -319 1070 -106T1090 338Q1046 251 996 180T890 57T771 -23T639 -51Q574 -51 513 -30T405 37T330 154T302 328Q302 438 324 546T381 757T455 959T529 1148T586 1321T609 1475Q609 1518 600
1547T575 1595T536 1620T486 1628Q412 1628 342 1594T209 1501T94 1368T3 1210T-56 1046T-77 891Q-77 813 -48 775T35 737Q74 737 114 760T191 826T262 926T322 1055L363 1034Q350 1003 332 966T289 889T234 814T169 749T92 703T5 686Q-37 686 -73 699T-135 740T-175
807T-190 901Q-190 991 -160 1084T-77 1263T45 1425T193 1557T355 1646T517 1679Q565 1679 604 1664T672 1618T716 1541T732 1434Q732 1360 711 1267T658 1069T589 855T520 638T467 431T445 246Q445 164 466 115T519 41T585 8T650 0ZM1315 1587Q1293 1587 1280
1551T1259 1448T1250 1288T1248 1083V862Q1271 956 1289 1047T1319 1220T1337 1368T1344 1483Q1344 1532 1337 1559T1315 1587Z" />
<glyph unicode="Z" glyph-name="Z" horiz-adv-x="1332" d="M486 819H664Q691 876 721 946T785 1091T857 1241T938 1382Q866 1401 791 1425T637 1472T480 1510T322 1526Q263 1526 226 1514T167 1481T137 1435T129 1382Q129 1354 139 1330T171 1287T226 1259T304
1249Q349 1249 383 1260T443 1286Q472 1302 494 1323L512 1280Q485 1257 452 1239Q424 1223 387 1211T304 1198Q246 1198 202 1214T127 1259T82 1325T66 1403Q66 1457 85 1506T144 1594T245 1656T390 1679Q482 1679 568 1660T736 1613T891 1555T1031 1503Q1077
1551 1126 1579T1233 1608Q1287 1608 1314 1584T1342 1516Q1342 1487 1333 1458T1300 1406T1238 1367T1141 1352Q1106 1352 1070 1356T996 1368Q955 1306 918 1234T848 1088T786 944T732 819H914L895 758H703Q635 617 568 486T422 250Q492 230 557 205T687 156T817
118T951 102Q1016 102 1065 120T1157 178T1238 280T1321 430L1332 451L1373 420L1362 399Q1315 306 1270 224T1171 81T1049 -15T887 -51Q812 -51 738 -33T591 12T448 69T312 123Q253 64 188 32T50 0Q0 0 -30 26T-61 102Q-61 133 -45 166T4 226T85 270T195 287Q235
287 277 282T359 266Q431 365 499 491T635 758H467L486 819ZM58 51Q109 51 156 74T250 141Q178 164 103 164Q69 164 47 159T10 144T-10 123T-16 98Q-16 78 3 65T58 51ZM1233 1556Q1196 1556 1160 1538T1090 1487Q1142 1475 1186 1475Q1242 1475 1265 1491T1289
1524Q1289 1538 1274 1547T1233 1556Z" />
<glyph unicode="[" glyph-name="bracketleft" horiz-adv-x="512" d="M287 0H369V-51H143V1741H369V1690H287V0Z" />
<glyph unicode="\" glyph-name="backslash" horiz-adv-x="737" d="M96 1569L168 1587L631 -135L559 -154L96 1569Z" />
<glyph unicode="]" glyph-name="bracketright" horiz-adv-x="512" d="M225 1690H143V1741H369V-51H143V0H225V1690Z" />
<glyph unicode="^" glyph-name="asciicircum" horiz-adv-x="901" d="M451 1055L164 645L123 676L451 1219L778 676L737 645L451 1055Z" />
<glyph unicode="_" glyph-name="underscore" horiz-adv-x="850" d="M123 82H727V0H123V82Z" />
<glyph unicode="`" glyph-name="grave" horiz-adv-x="246" d="M205 891L0 1116L133 1178L246 922L205 891Z" />
<glyph unicode="a" glyph-name="a" horiz-adv-x="874" d="M606 248Q606 191 616 152T651 113Q666 113 683 127T724 175T776 260T844 389L874 451L915 420L885 358Q843 274 807 208T737 95T673 25T610 0Q577 0 555 18T517 67T494 140T483 229Q459 181 430 140T370
67T304 18T236 0Q186 0 139 21T56 85T-3 193T-25 348Q-25 452 2 538T75 687T181 784T307 819Q347 819 381 801T440 758T483 704T506 655L518 752Q520 771 536 784T573 804T612 815T639 819Q651 819 655 815T659 799Q659 784 651 739T633 623T615 457T606 248ZM496
512Q496 558 482 602T444 681T389 737T322 758Q279 758 242 734T177 665T133 558T117 420Q117 270 164 192T289 113Q323 113 359 140T426 219T476 345T496 512Z" />
<glyph unicode="b" glyph-name="b" horiz-adv-x="797" d="M131 532Q132 417 146 328T185 177T246 83T328 51Q391 51 432 101T494 240Q442 251 395 281T312 355T255 458T233 584Q233 640 247 682T286 753T341 796T408 811Q449 811 492 788T570 718T627 601T649
438Q649 403 645 369T633 303Q681 317 720 348T786 430L797 451L838 420L827 399Q793 331 737 291T614 238Q596 187 568 144T503 68T421 18T322 0Q247 0 185 32T77 136T6 325T-20 614Q-20 852 2 1019T60 1292T143 1446T240 1495Q271 1495 291 1471T311 1382Q311
1332 303 1268T282 1131T251 980T213 824T172 672T131 532ZM299 592Q299 533 315 484T360 397T425 334T504 299Q509 327 510 357T512 420Q512 491 501 548T472 646T430 709T381 731Q347 731 323 695T299 592ZM246 1358Q246 1379 241 1391T225 1403Q214 1403 203
1372T182 1288T163 1165T147 1017T136 856T131 698Q155 786 176 878T212 1058T237 1222T246 1358Z" />
<glyph unicode="c" glyph-name="c" horiz-adv-x="639" d="M338 571Q350 590 358 618T367 674Q367 708 350 733T289 758Q260 758 230 737T175 674T133 568T117 418Q117 350 131 294T172 198T237 136T324 113Q359 113 395 131T469 187T547 285T629 430L639 451L680
420L670 399Q616 292 563 216T457 92T356 22T260 0Q195 0 144 27T58 100T5 208T-14 338Q-14 446 15 534T92 686T198 784T317 819Q363 819 394 806T444 773T471 730T479 686Q479 665 470 643T444 601T402 566T348 543L338 571Z" />
<glyph unicode="d" glyph-name="d" horiz-adv-x="963" d="M203 0Q142 0 98 26T24 96T-19 199T-33 322Q-33 379 -22 438T9 552T61 656T132 741T221 798T328 819Q393 819 438 790T512 719Q513 908 531 1053T581 1296T659 1444T758 1495Q777 1495 792 1491T818 1474T834
1442T840 1389Q840 1323 827 1238T790 1052T732 838T655 602Q656 495 658 417T663 285T672 197T685 145T703 120T727 113Q750 113 773 133T824 194T882 294T952 430L963 451L1004 420L993 399Q935 282 891 206T811 83T741 19T672 0Q637 0 612 17T568 72T539 168T522
309Q487 239 450 182T374 85T291 22T203 0ZM348 768Q293 768 252 735T184 648T144 527T131 393Q131 338 139 288T165 198T208 136T266 113Q298 113 328 129T389 180T450 272T516 410Q514 458 513 512T512 629Q490 694 446 731T348 768ZM768 1352Q768 1398 758 1416T733
1434Q709 1434 694 1388T671 1262T659 1079T655 860V750Q686 851 708 932T743 1083T762 1218T768 1352Z" />
<glyph unicode="e" glyph-name="e" horiz-adv-x="610" d="M295 113Q330 113 366 131T440 187T518 285T600 430L610 451L651 420L641 399Q587 292 534 216T429 92T327 22T231 0Q166 0 115 27T29 100T-24 208T-43 338Q-43 446 -14 534T65 686T178 784T309 819Q378
819 414 784T451 696Q451 645 422 601T344 514T229 430T92 344Q99 292 116 250T159 177T219 130T295 113ZM326 666Q326 706 305 729T252 752Q226 752 197 734T144 675T104 571T88 418V395Q122 413 163 442T241 508T301 584T326 666Z" />
<glyph unicode="f" glyph-name="f" horiz-adv-x="428" d="M428 451L469 420L459 399Q422 325 362 282T229 238Q208 238 186 242T141 256V-502L39 -512Q27 -343 18 -147Q14 -63 11 35T4 241T0 467T-2 707Q-2 899 19 1046T75 1293T157 1444T254 1495Q273 1495 290
1489T319 1468T339 1430T346 1372Q346 1286 326 1183T276 973T209 766T141 582V358Q150 346 162 337T189 323T219 314T246 311Q298 311 342 338T418 430L428 451ZM141 711Q166 782 188 859T227 1014T254 1171T264 1321Q264 1367 255 1395T221 1423Q199 1423 184
1378T159 1257T145 1078T141 860V711Z" />
<glyph unicode="g" glyph-name="g" horiz-adv-x="850" d="M279 -379Q279 -335 295 -290T341 -198T408 -101T492 4V193Q468 146 438 110T375 50T306 13T236 0Q189 0 146 23T68 92T14 210T-6 377Q-6 458 13 537T70 678T164 780T295 819Q354 819 405 795T492 725V737Q492
756 503 771T532 797T569 813T604 819Q621 819 628 815T635 799Q635 783 631 727T627 563V129Q652 160 680 198T736 277T790 363T840 451L850 471L891 440L881 420Q857 372 826 321T760 220T691 125T627 43V-174Q627 -266 611 -330T566 -435T498 -494T412 -512Q355
-512 317 -477T279 -379ZM297 102Q328 102 358 120T415 166T461 227T492 293V575Q492 620 478 656T441 718T389 758T328 772Q280 772 244 744T184 669T149 562T137 440Q137 363 146 301T176 195T226 126T297 102ZM401 -451Q417 -451 433 -445T463 -415T484 -347T492
-225V-76Q423 -159 380 -233T336 -373Q336 -404 353 -427T401 -451Z" />
<glyph unicode="h" glyph-name="h" horiz-adv-x="786" d="M133 348Q133 299 130 245T118 136T90 30T41 -66L-35 -43Q-10 41 -5 133T0 317Q0 417 -6 517T-21 717T-36 920T-43 1126Q-43 1189 -30 1236T6 1314T55 1360T109 1376Q147 1376 169 1349T203 1276T214 1169T209
1040T192 901T168 763T143 638T121 539Q121 531 122 523T123 506Q144 553 174 607T243 709T327 787T424 819Q499 819 537 769T575 625Q575 560 568 500T553 385T537 277T530 174Q530 113 561 113Q576 113 599 139T652 210T713 311T776 430L786 451L827 420L817
399Q782 330 744 259T666 131T585 37T502 0Q484 0 466 6T432 27T407 67T397 133Q397 173 401 220T410 316T423 415T435 507T445 584T449 641Q449 698 433 724T385 750Q345 750 308 715T239 628T179 515T131 403Q131 388 132 374T133 348ZM68 1204Q68 1163 71 1105T80
978T92 836T106 690Q117 746 128 813T147 949T160 1083T163 1198T149 1278T117 1309Q98 1309 83 1286T68 1204Z" />
<glyph unicode="i" glyph-name="i" horiz-adv-x="494" d="M51 440L41 420L31 399L-10 430L0 451Q25 502 41 553T68 650T86 729T100 778Q106 790 117 797T141 810T165 817T182 819Q204 819 211 810T219 778Q219 767 215 724T205 615T195 468T190 299Q190 236 196
200T211 145T232 122T256 117Q272 117 292 131T339 180T401 276T483 430L494 451L535 420L524 399Q486 325 449 253T373 125T295 35T217 0Q176 0 147 16T98 71T69 171T59 326Q59 352 59 380T61 440H51ZM256 1024Q256 989 233 966T174 942Q140 942 116 965T92 1024Q92
1058 116 1082T174 1106Q209 1106 232 1082T256 1024Z" />
<glyph unicode="j" glyph-name="j" horiz-adv-x="399" d="M61 778Q67 790 81 797T112 810T144 817T164 819Q186 819 190 810T195 778V131Q246 197 297 273T389 430L399 451L440 420L430 399Q410 359 383 315T324 226T260 135T195 49V-174Q195 -266 179 -330T133
-435T65 -494T-20 -512Q-49 -512 -73 -503T-116 -477T-144 -435T-154 -379Q-154 -334 -138 -289T-92 -196T-23 -98T61 8V440H51L31 399L-10 430L0 451Q25 502 35 553T49 650T53 729T61 778ZM-31 -451Q-15 -451 1 -445T31 -415T52 -347T61 -225V-74Q27 -116 -1 -155T-51
-232T-84 -305T-96 -373Q-96 -404 -79 -427T-31 -451ZM215 1024Q215 989 192 966T133 942Q99 942 75 965T51 1024Q51 1058 75 1082T133 1106Q168 1106 191 1082T215 1024Z" />
<glyph unicode="k" glyph-name="k" horiz-adv-x="805" d="M846 420L836 399Q794 315 756 242T680 115T603 31T518 0Q473 0 430 24T345 91T260 191T172 317L137 311Q135 223 131 153T121 37Q118 17 105 9T68 0Q41 0 23 7T-5 24T-20 47T-25 72Q-25 136 -4 231V748Q-4
940 16 1080T70 1313T149 1450T246 1495Q301 1495 324 1460T348 1362Q348 1308 332 1224T288 1038T221 828T139 614V592Q167 637 204 678T285 750T373 800T463 819Q502 819 534 808T591 776T628 724T641 651Q641 609 623 567T565 486T463 413T313 352Q319 343 333
322T366 275T409 220T456 168T505 129T549 113Q576 113 604 135T662 199T726 299T795 430L805 451L846 420ZM139 506Q139 483 139 466T138 432T138 398T137 360Q239 375 309 400T424 458T488 530T508 614Q508 637 501 658T479 696T445 723T399 733Q364 733 329
715T259 665T194 593T139 506ZM227 1444Q206 1444 191 1403T164 1276T146 1056T135 737Q177 848 203 945T243 1121T263 1258T268 1352Q268 1405 259 1424T227 1444Z" />
<glyph unicode="l" glyph-name="l" horiz-adv-x="436" d="M215 127Q233 127 256 150T307 215T364 311T426 430L436 451L477 420L467 399Q414 293 373 218T295 94T227 23T160 0Q115 0 83 29T29 128T-3 312T-14 594Q-14 832 6 1002T60 1282T140 1443T236 1495Q266
1495 286 1471T307 1382Q307 1332 299 1268T278 1131T247 980T209 824T168 672T127 532Q133 409 140 331T158 207T183 145T215 127ZM242 1358Q242 1379 237 1391T221 1403Q210 1403 199 1372T178 1288T159 1165T143 1017T132 856T127 698Q151 786 171 878T208 1058T233
1222T242 1358Z" />
<glyph unicode="m" glyph-name="m" horiz-adv-x="1167" d="M326 748Q297 748 271 728T220 672T174 589T129 487V475Q126 387 124 288T121 72Q121 52 108 39T76 17T39 4T8 0Q-7 0 -20 9T-33 49Q-33 64 -30 86T-23 135T-13 188T-2 240Q-2 325 -2 393T-3 514T-3 607T-4
676Q-4 724 -3 746T2 778Q7 792 20 800T49 812T79 818T102 819Q121 819 127 808T133 774Q133 722 133 680T131 596Q150 641 175 681T232 752T297 801T369 819Q414 819 443 801T490 749T516 672T528 575Q556 626 588 670T657 748T734 800T819 819Q895 819 930 772T965
643Q965 592 957 529T940 402T923 275T915 162Q915 100 946 100Q962 100 981 119T1024 179T1081 282T1157 430L1167 451L1208 420L1198 399Q1139 281 1098 204T1023 82T961 18T895 0Q874 0 854 6T819 27T795 67T786 133Q786 193 794 268T812 418T830 559T838 668Q838
705 822 727T774 750Q742 750 708 725T641 661T580 572T530 475Q530 370 528 292T523 159T513 74T500 31Q495 24 483 18T457 8T429 2T408 0Q392 0 381 9T369 47Q369 60 371 82T378 131T387 189T397 252Q398 282 399 319T401 392T402 462T403 520Q403 571 400 613T389
685T365 731T326 748Z" />
<glyph unicode="n" glyph-name="n" horiz-adv-x="809" d="M385 750Q357 750 323 725T253 661T186 572T129 475Q126 387 124 283T121 61Q121 46 108 35T76 16T39 4T8 0Q-7 0 -20 9T-33 49Q-33 64 -30 86T-23 135T-13 188T-2 240V729Q-2 749 -2 760T2 778Q8 792
23 800T55 812T88 818T113 819Q130 819 136 810T143 778Q143 781 139 729T131 580Q161 627 196 670T269 746T347 799T430 819Q505 819 540 772T575 643Q575 592 569 530T554 403T539 277T532 164Q532 98 573 98Q586 98 603 111T647 162T711 263T799 430L809 451L850
420L840 399Q780 279 734 202T649 80T578 18T512 0Q491 0 470 6T433 27T407 67T397 133Q397 193 405 268T423 418T441 559T449 668Q449 705 433 727T385 750Z" />
<glyph unicode="o" glyph-name="o" horiz-adv-x="797" d="M838 420L827 399Q793 331 737 291T614 238Q596 187 568 144T503 68T421 18T322 0Q245 0 184 32T79 120T13 250T-10 410Q-10 484 7 544T50 652T108 735T171 794T227 828T266 840L279 805Q238 775 206 721Q178
675 156 599T133 410Q133 341 146 276T184 161T245 81T328 51Q391 51 432 101T494 240Q442 251 395 281T312 355T255 458T233 584Q233 640 247 682T286 753T341 796T408 811Q449 811 492 788T570 718T627 601T649 438Q649 403 645 369T633 303Q681 317 720 348T786
430L797 451L838 420ZM299 592Q299 533 315 484T360 397T425 334T504 299Q509 327 510 357T512 420Q512 491 501 548T472 646T430 709T381 731Q347 731 323 695T299 592Z" />
<glyph unicode="p" glyph-name="p" horiz-adv-x="778" d="M131 631Q148 668 172 702T227 762T296 803T379 819Q439 819 485 791T562 715T609 605T625 475Q625 372 605 290T549 145Q603 186 658 254T768 430L778 451L819 420L809 399Q763 307 708 233T592 108T463
28T326 0Q264 0 212 27T131 94V-379Q131 -417 126 -442T108 -483T74 -505T23 -512Q0 -512 -9 -505T-18 -481Q-18 -474 -16 -456T-12 -402T-8 -306T-6 -154V399Q-6 510 -7 576T-9 680T-11 734T-12 762Q-12 772 -2 782T24 800T58 813T94 819Q111 819 121 810T131
778V631ZM326 731Q284 731 249 702T188 628T148 527T133 420V305Q133 251 147 207T186 132T242 85T311 68Q396 68 439 156T483 432Q483 496 474 551T446 646T397 708T326 731Z" />
<glyph unicode="q" glyph-name="q" horiz-adv-x="829" d="M494 168Q455 86 396 43T264 0Q199 0 149 28T64 106T12 221T-6 360Q-6 476 21 562T92 706T190 791T297 819Q335 819 367 807T424 776T468 734T496 688Q498 728 504 753T521 793T551 813T596 819Q619 819
628 812T637 788Q637 780 636 765T632 722T629 656T627 563V125Q646 147 667 174T711 238T761 321T819 430L829 451L870 420L860 399Q798 278 737 188T627 41V-328Q627 -385 623 -421T607 -477T575 -505T524 -512Q501 -512 492 -505T483 -481Q483 -474 484 -458T488
-415T492 -349T494 -256V168ZM496 471Q496 513 484 563T449 657T391 729T311 758Q276 758 243 742T185 687T143 584T127 426Q127 344 143 285T185 188T245 131T313 113Q353 113 386 129T443 182T480 279T496 426V471Z" />
<glyph unicode="r" glyph-name="r" horiz-adv-x="604" d="M-10 430L0 451Q15 481 27 513T49 573T63 624T70 659Q44 662 20 672T-22 699T-50 739T-61 791Q-61 814 -53 832T-32 862T-2 880T33 887Q57 887 75 877T105 851T123 813T129 768Q157 768 189 776T255 793T320
811T379 819Q402 819 416 810T430 778Q430 762 421 725T397 639T367 533T336 417T313 303T303 205Q303 151 315 132T358 113Q371 113 390 124T438 169T504 265T594 430L604 451L645 420L635 399Q575 279 528 202T442 80T367 18T297 0Q238 0 201 45T164 184Q164
235 178 290T213 399T260 507T309 607T352 696T379 768L373 774Q357 774 330 757T270 719T198 678T121 655Q119 641 113 614T95 554T70 486T41 420L31 399L-10 430ZM39 831Q30 831 24 825T18 811Q18 799 24 791T39 777T57 769T74 766Q74 794 65 812T39 831Z" />
<glyph unicode="s" glyph-name="s" horiz-adv-x="666" d="M584 348Q584 280 564 218T504 107T406 29T272 0Q218 0 176 17T103 64T57 131T41 209Q41 249 56 283T98 342T159 381T231 395Q255 395 281 389V360Q249 360 219 347T165 312T127 258T113 190Q113 124 158
85T283 45Q323 45 356 60T412 103T448 169T461 252Q461 295 444 332T399 402T336 464T264 519T192 571T131 621L31 399L-10 430L92 653Q55 688 38 719T20 795Q20 819 28 840T51 877T85 902T125 911Q163 911 182 890T201 836Q201 821 198 805T191 772T182 741T174
717Q204 694 246 673T333 628T424 578T504 518T562 443T584 348ZM127 866Q113 866 105 857T96 831Q96 813 105 791T137 748Q147 769 152 789T158 829Q158 845 150 855T127 866Z" />
<glyph unicode="t" glyph-name="t" horiz-adv-x="477" d="M-4 328Q-4 434 4 541T25 758H-66L-55 819H33Q47 921 61 1023T88 1229H190Q188 1207 185 1166T177 1070T168 951T160 819H354L344 758H156Q152 701 149 646T144 542T140 451T139 379Q139 303 143 252T157
170T181 126T215 113Q240 113 270 138T334 207T401 307T467 430L477 451L518 420L508 399Q462 306 417 232T327 107T241 28T160 0Q121 0 91 18T39 75T7 177T-4 328Z" />
<glyph unicode="u" glyph-name="u" horiz-adv-x="809" d="M410 217Q405 209 396 190T372 146T338 96T293 49T238 14T170 0Q141 0 110 12T53 56T9 143T-8 287Q-8 371 -2 455T12 610T29 727T41 784Q45 793 57 800T84 811T116 817T145 819Q161 819 170 811T180 784Q180
775 177 749T168 684T158 600T147 507T139 413T135 328Q135 219 158 166T236 113Q282 113 329 180T412 375Q417 429 421 490T430 607T437 707T444 770Q447 784 460 793T489 808T521 816T545 819Q562 819 568 812T575 788Q575 774 573 735T567 643T559 530T552 415T546
314T543 246Q543 178 550 139T584 100Q603 100 625 124T674 193T732 297T799 430L809 451L850 420L840 399Q792 304 756 230T686 104T619 27T543 0Q504 0 479 15T438 58T417 126T410 217Z" />
<glyph unicode="v" glyph-name="v" horiz-adv-x="694" d="M168 758Q168 719 162 659T148 526T134 368T127 197Q127 127 150 101T213 74Q241 74 270 89T325 130T375 192T416 270Q359 305 320 384T281 586Q281 647 294 689T328 759T377 798T432 811Q457 811 481
801T523 769T552 709T563 618Q563 550 547 466T498 297Q503 297 508 296T518 295Q574 295 613 331T684 430L694 451L735 420L725 399Q685 321 629 283T512 244Q503 244 493 245T477 248Q454 197 423 152T355 74T273 20T178 0Q137 0 102 12T41 58T-1 149T-16 297Q-16
337 -14 386T-9 487T-1 587T9 676T19 744T29 780Q41 802 69 810T123 819Q141 819 154 806T168 758ZM336 582Q336 486 364 421T436 324Q458 387 470 454T483 584Q483 624 477 651T460 696T437 720T410 727Q396 727 383 720T360 695T343 650T336 582Z" />
<glyph unicode="w" glyph-name="w" horiz-adv-x="995" d="M152 0Q106 0 76 26T27 98T2 201T-6 324Q-6 425 2 506T21 645T43 737T59 778Q66 787 77 795T101 808T125 816T145 819Q168 819 177 810T186 778Q185 778 182 758T173 702T162 621T152 522T144 417T141
313Q141 269 144 231T154 164T173 119T203 102Q221 102 237 125T267 186T293 270T315 364T333 454T348 526Q352 541 363 553T391 575T425 589T459 594Q471 594 475 587T479 563Q479 473 490 388T521 237T570 132T633 92Q657 92 678 110T715 156T742 215T756 270Q716
287 681 324T620 412T578 522T563 641Q563 674 570 706T591 763T628 803T680 819Q720 819 749 794T798 727T828 628T838 510Q838 464 832 408T817 305H836Q886 305 922 341T985 430L995 451L1036 420L1026 399Q994 336 943 296T821 256H807Q792 202 771 156T723
75T662 20T592 0Q549 0 517 17T460 62T420 126T393 199T376 272T367 336Q359 303 350 266T329 191T301 119T264 58T215 16T152 0ZM621 639Q621 593 631 545T660 453T705 376T764 324Q765 336 766 352T768 385T769 419T770 449Q770 505 763 557T743 651T712 716T672
741Q657 741 647 732T631 707T623 674T621 639Z" />
<glyph unicode="x" glyph-name="x" horiz-adv-x="768" d="M20 -41Q20 -21 26 -1T52 53T113 138T223 274L274 336Q242 453 226 521T200 623T187 667T174 676Q166 676 157 660T132 611T94 531T41 420L31 399L-10 430L0 451Q37 526 62 582T105 679T136 747T163 790T194
812T238 819Q260 819 276 807T308 757T344 646T395 451Q420 483 445 519T491 591T524 660T537 721Q537 738 533 750T524 771Q519 781 512 788L532 819Q558 818 578 810Q595 803 610 789T625 748Q625 718 610 680T566 597T499 500T412 389Q436 299 456 247T492 167T523
131T553 123Q572 123 593 145T640 207T694 304T758 430L768 451L809 420L799 399Q745 292 706 217T632 93T565 23T492 0Q461 0 436 8T388 45T341 130T291 281L248 229Q177 145 146 90T115 -4Q115 -30 121 -50T137 -82L123 -113Q109 -113 91 -111T58 -100T31 -78T20
-41Z" />
<glyph unicode="y" glyph-name="y" horiz-adv-x="795" d="M63 791Q67 801 82 807T114 815T146 818T166 819Q181 819 185 812T190 788Q190 780 185 753T173 684T157 591T141 484T128 373T123 266Q123 179 152 136T219 92Q285 92 336 189T442 473V764Q442 781 457
791T493 808T532 816T559 819Q590 819 590 788Q590 777 589 752T585 692T582 616T580 532V125Q598 148 625 186T682 267T739 353T784 430L795 451L836 420L825 399Q804 357 775 312T714 222T647 132T580 47V-174Q580 -266 564 -330T518 -435T450 -494T365 -512Q336
-512 312 -503T269 -477T241 -435T231 -379Q231 -334 247 -289T293 -196T362 -98T446 8V311Q421 243 392 186T329 87T256 23T172 0Q140 0 107 10T45 49T-2 124T-20 246Q-20 330 -10 417T13 579T41 710T63 791ZM354 -451Q370 -451 386 -445T416 -415T437 -347T446
-225V-74Q412 -116 384 -155T334 -232T301 -305T289 -373Q289 -404 306 -427T354 -451Z" />
<glyph unicode="z" glyph-name="z" horiz-adv-x="717" d="M573 616Q573 562 547 507T478 401T385 306T283 231Q326 205 367 165T440 70Q469 101 504 139T574 224T644 321T707 430L717 451L758 420L748 399Q719 341 684 289T611 189T536 100T465 20Q482 -22 492
-69T502 -174Q502 -266 486 -330T441 -435T373 -494T287 -512Q230 -512 192 -477T154 -379Q154 -340 168 -299T208 -213T268 -121T342 -23Q329 26 311 63T274 127T236 168T203 190Q160 174 137 174Q103 174 87 189T70 223Q70 243 88 259T141 276Q157 276 175 272T213
262Q261 287 302 325T374 409T422 505T440 604Q440 635 433 661T410 706T371 737T317 748Q275 748 239 722T172 653T113 560T61 461L31 399L-10 430L20 492Q45 543 76 600T148 706T240 787T358 819Q408 819 448 804T515 761T558 697T573 616ZM367 -225Q367 -187
364 -153T356 -90Q293 -171 252 -242T211 -373Q211 -404 228 -427T276 -451Q292 -451 308 -445T338 -415T359 -347T367 -225Z" />
<glyph unicode="{" glyph-name="braceleft" horiz-adv-x="768" d="M121 860Q185 860 228 869T298 894T335 933T346 983Q346 1029 333 1093T305 1231T277 1380T264 1526Q264 1586 281 1623T327 1682T394 1710T475 1718Q517 1718 559 1714T639 1706L637 1665L571
1667Q542 1668 512 1663T456 1640T414 1591T397 1505Q397 1448 408 1382T432 1250T457 1125T469 1024Q469 955 428 908T311 840Q387 818 428 772T469 655Q469 613 458 554T433 430T408 299T397 174Q397 121 413 89T455 40T511 17T571 12L637 14L639 -27Q596 -32
553 -35T469 -39Q426 -39 389 -32T324 -3T280 56T264 154Q264 223 277 299T305 448T333 585T346 696Q346 723 335 745T298 784T229 810T121 819V860Z" />
<glyph unicode="|" glyph-name="bar" horiz-adv-x="328" d="M205 -51H123V1731H205V-51Z" />
<glyph unicode="}" glyph-name="braceright" horiz-adv-x="768" d="M645 819Q580 819 537 810T468 785T431 746T420 696Q420 650 433 586T461 448T489 299T502 154Q502 94 486 57T443 -2T378 -31T297 -39Q257 -39 214 -36T127 -27L129 14L195 12Q224 11 254 16T310
39T352 89T369 174Q369 232 358 298T333 430T308 554T297 655Q297 725 338 771T455 840Q379 860 338 907T297 1024Q297 1066 308 1125T332 1249T357 1381T369 1505Q369 1558 353 1590T311 1640T255 1662T195 1667L129 1665L127 1706Q165 1709 207 1713T289 1718Q332
1718 370 1711T438 1682T484 1624T502 1526Q502 1457 489 1381T461 1231T433 1094T420 983Q420 956 431 934T468 895T537 869T645 860V819Z" />
<glyph unicode="~" glyph-name="asciitilde" horiz-adv-x="758" d="M123 492Q128 537 145 573Q159 604 187 629T266 655Q297 655 329 646T394 625T459 604T522 594Q545 594 559 603T581 624Q590 637 594 655H635Q630 609 613 573Q599 542 570 517T492 492Q461
492 429 501T363 522T298 543T236 553Q213 553 199 543T177 522Q168 509 164 492H123Z" />
<glyph unicode="&#xa0;" glyph-name="uni00A0" horiz-adv-x="471" />
<glyph unicode="&#xa1;" glyph-name="exclamdown" horiz-adv-x="430" d="M307 1085Q307 1066 300 1049T281 1020T252 1000T215 993Q196 993 179 1000T150 1019T130 1049T123 1085Q123 1104 130 1121T149 1151T179 1171T215 1178Q234 1178 251 1171T280 1151T300
1121T307 1085ZM233 -197Q232 -213 221 -225T196 -244T166 -256T141 -260Q134 -260 127 -260T114 -255T104 -240T100 -211Q100 -183 103 -130T112 -7T125 143T140 307T155 472T169 625T179 752T184 840L236 838Q236 711 237 585T239 330T239 70T233 -197Z" />
<glyph unicode="&#xa2;" glyph-name="cent" horiz-adv-x="922" d="M502 1229L563 1235Q613 1235 650 1223T711 1191T748 1146T760 1094Q760 1052 738 1023T690 975Q659 953 621 940L596 985Q608 996 618 1010Q626 1022 633 1040T641 1081Q641 1099 634 1115T612
1143T579 1162T535 1169Q525 1169 518 1168T502 1167V543H522Q582 543 632 561T720 602Q763 628 799 662L834 623Q793 579 742 542Q698 510 638 482T502 446V102H440V444Q359 448 300 476T202 549T146 651T127 772Q127 839 148 907T208 1036T306 1143T440 1214V1516H502V1229ZM262
838Q262 790 272 745T305 662T360 596T440 553V1151Q396 1133 363 1100T308 1024T274 934T262 838Z" />
<glyph unicode="&#xa3;" glyph-name="sterling" horiz-adv-x="1147" d="M209 834H397Q375 880 353 924T312 1014T282 1106T270 1208Q270 1282 299 1336T375 1425T482 1478T604 1495Q672 1495 723 1475T809 1422T861 1347T879 1260Q879 1187 830 1131T690 1049L666
1085Q720 1116 752 1169T784 1294Q784 1328 773 1358T739 1409T683 1443T606 1456Q571 1456 538 1443T479 1404T438 1339T422 1249Q422 1196 431 1146T453 1045T483 942T514 834H782V784H526Q540 727 548 667T557 537Q557 509 555 485T547 438Q576 424 603 411T658
386T713 369T770 362Q807 362 842 376T909 418T965 483T1006 567L1044 555Q1033 500 1008 440T945 328T857 244T748 211Q710 211 678 223T618 253T563 293T510 336Q491 303 466 279T413 240T355 217T297 209Q263 209 233 219T179 247T141 294T127 358Q127 385 137
411T170 459T226 493T309 506Q356 506 396 497T473 473Q473 482 474 493T475 516Q475 595 459 660T420 784H209V834ZM297 260Q318 260 340 266T384 286T423 323T453 379Q415 407 374 425T281 444Q231 444 205 418T178 358Q178 334 187 316T213 286T251 267T297
260Z" />
<glyph unicode="&#xa4;" glyph-name="currency" horiz-adv-x="1106" d="M195 758Q195 818 213 872T266 973L123 1116L195 1188L338 1044Q383 1079 437 1097T553 1116Q613 1116 667 1096T766 1042L911 1188L983 1116L838 971Q872 926 891 872T911 758Q911 696 893
642T840 543L983 399L911 328L768 471Q722 437 668 418T553 399Q491 399 437 418T338 471L195 328L123 399L266 543Q232 588 214 642T195 758ZM276 758Q276 700 297 650T356 562T444 503T553 481Q611 481 661 502T748 561T807 649T829 758Q829 815 808 865T749
953T661 1012T553 1034Q495 1034 445 1013T357 954T298 866T276 758Z" />
<glyph unicode="&#xa5;" glyph-name="yen" horiz-adv-x="1055" d="M784 1464Q818 1464 846 1458T894 1439T925 1404T936 1352Q936 1300 915 1233T856 1086T766 913T653 715H846V653H618L571 571H846V510H537Q477 401 449 327T420 205Q420 181 425 161T439 124T457
95T475 76L463 27Q454 25 444 24T422 23Q396 23 373 27T332 45T305 82T295 143Q295 165 303 194T330 265T381 366T461 510H283V571H496L543 653H283V715H524Q507 753 491 787T461 854Q396 999 356 1088T289 1225T243 1290T203 1307Q192 1307 178 1304T152 1298Q138
1294 123 1290L102 1333Q140 1359 185 1380T276 1401Q300 1401 320 1393T361 1362T405 1303T458 1208T524 1071T612 885L637 831Q668 885 700 944T758 1062T800 1179T817 1288Q817 1323 809 1347T789 1388Q777 1406 762 1417L784 1464Z" />
<glyph unicode="&#xa6;" glyph-name="brokenbar" horiz-adv-x="328" d="M205 717V-51H123V717H205ZM123 963V1731H205V963H123Z" />
<glyph unicode="&#xa7;" glyph-name="section" horiz-adv-x="983" d="M123 891Q123 1005 182 1096Q154 1131 139 1174T123 1270Q123 1358 159 1433T257 1562T401 1648T573 1679Q649 1679 703 1660T792 1611T843 1541T860 1462Q860 1417 844 1380T805 1314T757
1266T711 1237L688 1266Q707 1292 722 1338T737 1434Q737 1469 728 1502T696 1561T633 1602T532 1618Q471 1618 412 1600T307 1547T233 1462T205 1350Q205 1286 232 1237T302 1148T402 1076T516 1012T631 950T731 881T802 799T829 696Q829 645 811 598T758 512Q792
474 810 427T829 317Q829 253 800 196T719 95T599 26T449 0Q357 0 296 19T199 67T148 130T133 193Q133 248 158 288T220 356T297 399T367 420L375 379Q366 376 350 365T317 335T288 288T276 225Q276 184 290 152T330 97T389 63T461 51Q505 51 552 64T638 103T702
170T727 266Q727 329 701 376T633 462T536 530T425 588T314 646T218 710T149 789T123 891ZM215 983Q215 925 238 881T301 802T392 737T497 680T606 624T705 561Q717 592 717 625Q717 680 693 722T628 797T535 859T428 915T320 975T225 1047Q220 1031 218 1016T215
983Z" />
<glyph unicode="&#xa8;" glyph-name="dieresis" horiz-adv-x="430" d="M164 1065Q164 1030 141 1007T82 983Q48 983 24 1006T0 1065Q0 1099 24 1123T82 1147Q117 1147 140 1123T164 1065ZM430 1065Q430 1030 407 1007T348 983Q314 983 290 1006T266 1065Q266 1099
290 1123T348 1147Q383 1147 406 1123T430 1065Z" />
<glyph unicode="&#xa9;" glyph-name="copyright" horiz-adv-x="1393" d="M123 573Q123 692 168 796T290 979T472 1102T696 1147Q815 1147 919 1102T1102 979T1225 797T1270 573Q1270 454 1225 350T1102 168T920 45T696 0Q577 0 473 45T291 167T168 349T123 573ZM184
573Q184 468 224 375T335 212T498 102T696 61Q801 61 894 101T1057 212T1167 375T1208 573Q1208 678 1168 771T1058 934T895 1044T696 1085Q591 1085 498 1045T335 935T225 772T184 573ZM1030 461Q1006 411 973 364T897 279T804 218T692 195Q617 195 561 225T468
307T412 423T393 559Q393 635 416 709T483 842T589 937T729 973Q775 973 809 960T866 927T900 884T911 840Q911 818 902 796T876 755T834 720T780 696L770 725Q787 751 794 785T796 849T769 901T707 922Q669 922 639 900T588 839T556 744T545 623Q545 564 557 508T595
407T660 335T756 307Q801 307 838 326T905 373T955 432T989 489L1030 461Z" />
<glyph unicode="&#xaa;" glyph-name="ordfeminine" horiz-adv-x="737" d="M655 897Q643 875 627 858Q613 843 595 831T555 819Q505 819 486 856T461 963Q453 943 436 919T395 872T341 834T276 819Q238 819 203 834T141 882T98 963T82 1079Q82 1156 102 1220T157
1331T236 1404T330 1430Q372 1430 400 1415T447 1380Q468 1358 481 1331L487 1378Q489 1393 499 1403T522 1419T548 1427T569 1430Q583 1430 588 1424T594 1403Q594 1394 589 1356T577 1263T565 1141T559 1004Q559 957 568 932T594 907Q605 907 613 913T629 928L655
897ZM471 1196Q471 1229 462 1260T436 1315T397 1353T350 1368Q319 1368 293 1351T247 1304T216 1230T205 1135Q205 1031 238 977T326 922Q350 922 376 941T423 995T457 1081T471 1196Z" />
<glyph unicode="&#xab;" glyph-name="guillemotleft" horiz-adv-x="1116" d="M778 51L737 0L123 461L737 922L778 870L317 461L778 51ZM993 51L952 0L438 461L952 922L993 870L604 461L993 51Z" />
<glyph unicode="&#xad;" glyph-name="sfthyphen" horiz-adv-x="737" d="M123 614H614V532H123V614Z" />
<glyph unicode="&#xae;" glyph-name="registered" horiz-adv-x="922" d="M123 1157Q123 1227 149 1288T222 1396T329 1468T461 1495Q531 1495 592 1469T700 1396T772 1289T799 1157Q799 1087 773 1026T700 918T593 846T461 819Q391 819 330 845T222 918T150 1025T123
1157ZM184 1157Q184 1100 206 1050T265 963T353 903T461 881Q518 881 568 903T655 962T715 1050T737 1157Q737 1214 715 1264T656 1352T568 1412T461 1434Q404 1434 354 1412T266 1353T206 1265T184 1157ZM471 1122H395V958H334V1348H498Q521 1348 541 1339T577
1315T601 1279T610 1235Q610 1198 590 1170T537 1128L621 987L569 956L471 1122ZM395 1286V1184H498Q518 1184 533 1199T549 1235Q549 1255 534 1270T498 1286H395Z" />
<glyph unicode="&#xaf;" glyph-name="overscore" horiz-adv-x="510" d="M492 1106Q496 1106 500 1100T506 1085T510 1066T512 1047Q512 1030 492 1025T446 1020Q363 1020 283 1023T121 1026Q95 1026 70 1026T20 1024Q15 1024 11 1030T5 1046T1 1065T0 1083Q0 1100
20 1105T66 1110Q149 1110 229 1107T391 1104Q416 1104 441 1104T492 1106Z" />
<glyph unicode="&#xb0;" glyph-name="degree" horiz-adv-x="594" d="M123 1331Q123 1367 136 1398T174 1454T229 1491T297 1505Q333 1505 364 1492T420 1454T457 1399T471 1331Q471 1295 458 1264T420 1208T365 1171T297 1157Q261 1157 230 1170T174 1208T137
1263T123 1331ZM184 1331Q184 1308 193 1288T217 1252T253 1228T297 1219Q320 1219 340 1228T376 1252T401 1287T410 1331Q410 1354 401 1374T377 1410T341 1435T297 1444Q274 1444 254 1435T218 1411T193 1375T184 1331Z" />
<glyph unicode="&#xb1;" glyph-name="plusminus" horiz-adv-x="840" d="M461 931V675H707V593H461V327H369V593H123V675H369V931H461ZM114 246H718V164H114V246Z" />
<glyph unicode="&#xb2;" glyph-name="twosuperior" horiz-adv-x="584" d="M82 942Q82 1015 105 1069T161 1166T234 1243T306 1309T362 1376T385 1454Q385 1479 377 1495T356 1520T326 1532T291 1536Q273 1536 255 1532T222 1519T199 1493T190 1454Q190 1423 205
1407T246 1391V1352Q233 1344 216 1339T182 1333Q165 1333 149 1338T120 1353T100 1381T92 1423Q92 1462 109 1491T155 1539T218 1567T291 1577Q326 1577 359 1569T419 1542T461 1494T477 1423Q477 1372 457 1339T406 1280T337 1235T262 1191T194 1135T147 1055Q154
1064 177 1072T223 1081Q251 1081 274 1075T320 1063T363 1050T408 1044Q423 1044 436 1048T459 1059Q470 1066 479 1075L502 1053Q490 1031 478 1011T452 976T422 951T387 942Q358 942 332 952T281 974T234 996T193 1006Q173 1006 160 997T139 977T128 956T123
942H82Z" />
<glyph unicode="&#xb3;" glyph-name="threesuperior" horiz-adv-x="584" d="M236 1280Q290 1309 324 1357T358 1475Q358 1550 291 1550Q274 1550 258 1545T229 1528T209 1499T201 1460Q201 1440 208 1425T224 1400Q235 1389 248 1380L240 1362Q192 1373 160 1398T127
1454Q127 1485 143 1509T187 1551T248 1576T317 1585Q345 1585 371 1579T418 1560T451 1528T463 1481Q463 1448 446 1418T407 1363T364 1320T334 1294Q365 1289 395 1275T449 1240T487 1189T502 1124Q502 1072 483 1035T433 975T364 941T287 930Q241 930 203 941T138
974T97 1025T82 1092Q82 1127 101 1154T145 1196L178 1180Q169 1160 166 1141T162 1100Q162 1065 172 1041T199 1000T237 977T281 969Q304 969 323 976T357 1000T380 1043T389 1108Q389 1138 382 1165T358 1214T314 1247T246 1260L236 1280Z" />
<glyph unicode="&#xb4;" glyph-name="acute" horiz-adv-x="297" d="M0 971L193 1171L297 1069L27 928L0 971Z" />
<glyph unicode="&#xb5;" glyph-name="mu" horiz-adv-x="809" d="M410 217Q397 176 376 138T328 68T270 19T205 0Q192 0 179 3T155 12T135 23T123 35Q120 -77 118 -203T115 -457Q115 -476 102 -489T70 -511T33 -524T2 -528Q-13 -528 -26 -519T-39 -479Q-39 -464
-37 -442T-31 -393T-23 -340T-12 -289Q-12 -89 -11 66T-8 339T-4 538T1 672T7 751T12 784Q16 793 28 800T56 811T88 817T117 819Q132 819 142 811T152 784Q152 770 150 732T144 635T138 498T135 328Q135 272 142 231T163 164T193 126T231 113Q256 113 282 131T333
182T378 264T412 375Q417 429 421 490T430 607T437 707T444 770Q447 784 460 793T489 808T521 816T545 819Q562 819 568 812T575 788Q575 774 573 735T567 643T559 530T552 415T546 314T543 246Q543 178 550 139T584 100Q603 100 625 124T674 193T732 297T799 430L809
451L850 420L840 399Q792 304 756 230T686 104T619 27T543 0Q504 0 479 15T438 58T417 126T410 217Z" />
<glyph unicode="&#xb6;" glyph-name="paragraph" horiz-adv-x="1544" d="M1146 1452L1187 1421Q1165 1391 1148 1354T1119 1265T1101 1138T1095 961V205Q1095 121 1093 59T1081 -52T1052 -139T1001 -215Q945 -278 844 -318T604 -358Q518 -358 440 -334T303 -267T209
-164T174 -31Q174 23 191 66T236 142T297 199T363 240T421 264T460 276L481 236Q458 224 430 204T376 152T334 75T317 -31Q317 -96 339 -147T400 -234T494 -288T614 -307Q687 -307 747 -287T850 -220T918 -96T942 98V821Q942 901 945 973T964 1114T1010 1247T1095
1376L1146 1452ZM1126 1546Q1091 1546 1045 1549T947 1556T842 1566T738 1576T646 1584T573 1587Q481 1587 409 1549T288 1449T212 1309T186 1151Q186 1080 208 1013T275 893T389 810T552 778Q641 778 713 791T840 820Q902 838 952 862V809Q902 786 840 768Q786
752 714 740T552 727Q412 727 309 766T137 871T34 1020T0 1192Q0 1283 36 1370T142 1526T318 1637T563 1679Q609 1679 668 1676T790 1668T917 1658T1035 1647T1129 1639T1187 1636Q1207 1636 1233 1638T1288 1645T1343 1658T1392 1677L1433 1647Q1411 1617 1394
1580T1365 1490T1347 1363T1341 1186V143Q1341 59 1339 0T1327 -104T1298 -184T1247 -256Q1205 -304 1136 -339T974 -389L964 -336Q1015 -316 1056 -282T1126 -201T1171 -94T1187 37V1047Q1187 1127 1190 1199T1209 1340T1256 1473T1341 1602Q1290 1570 1236 1558T1126
1546Z" />
<glyph unicode="&#xb7;" glyph-name="middot" horiz-adv-x="430" d="M123 543Q123 562 130 579T149 608T179 628T215 635Q234 635 251 628T280 609T300 579T307 543Q307 524 300 507T281 478T251 458T215 451Q196 451 179 458T150 477T130 507T123 543Z" />
<glyph unicode="&#xb8;" glyph-name="cedilla" horiz-adv-x="256" d="M41 12H92V-25Q176 -25 216 -48T256 -109Q256 -131 241 -157T195 -209T120 -258T14 -297L0 -250Q82 -221 118 -196T154 -156Q154 -139 124 -129T41 -119V12Z" />
<glyph unicode="&#xb9;" glyph-name="onesuperior" horiz-adv-x="328" d="M31 1368Q62 1394 84 1419T122 1469T149 1521T170 1577H244Q246 1545 247 1496T248 1386Q248 1332 247 1274T245 1157T241 1043T236 942H143Q144 963 145 995T147 1064T149 1143T150 1225Q150
1290 148 1334T143 1409Q133 1395 119 1382Q107 1371 90 1357T51 1331L31 1368Z" />
<glyph unicode="&#xba;" glyph-name="ordmasculine" horiz-adv-x="666" d="M256 1239Q271 1324 304 1368T389 1413Q430 1413 465 1394T527 1339T569 1255T584 1147Q584 1085 567 1027T519 922T442 847T338 819Q280 819 233 842T153 906T101 1000T82 1116Q82 1170
94 1214T126 1293T168 1353T215 1396T256 1421T285 1430L293 1405Q268 1389 249 1353Q232 1321 219 1265T205 1116Q205 1066 212 1022T235 943T274 890T328 870Q355 870 380 890T426 949T458 1045T471 1178Q471 1218 464 1250T444 1305T414 1340T379 1352Q348 1352
330 1319T299 1227L256 1239Z" />
<glyph unicode="&#xbb;" glyph-name="guillemotright" horiz-adv-x="1116" d="M799 461L338 870L379 922L993 461L379 0L338 51L799 461ZM512 461L123 870L164 922L678 461L164 0L123 51L512 461Z" />
<glyph unicode="&#xbc;" glyph-name="onequarter" horiz-adv-x="717" d="M133 233Q205 296 247 354T312 464T341 559T348 635H451Q451 578 425 523T361 417T283 325T217 254H229Q257 254 281 245T326 225T369 202T412 184Q414 234 414 288T414 399L506 418Q506
376 506 314T502 182Q513 184 524 187T543 195L553 164Q542 155 528 148T500 139Q500 99 498 69T494 0H401Q405 38 406 68T410 139Q387 145 366 157T322 182T276 204T221 213Q195 213 176 203T150 186L133 233ZM123 778H594V727H123V778ZM215 1286Q246 1312 268
1337T306 1387T333 1439T354 1495H428Q430 1463 431 1414T432 1304Q432 1250 431 1192T429 1075T425 961T420 860H327Q328 881 329 913T331 982T333 1061T334 1143Q334 1208 332 1252T327 1327Q317 1313 303 1300Q291 1289 274 1275T235 1249L215 1286Z" />
<glyph unicode="&#xbd;" glyph-name="onehalf" horiz-adv-x="717" d="M209 1287Q240 1313 262 1338T300 1388T327 1440T348 1496H422Q424 1464 425 1415T426 1305Q426 1251 425 1193T423 1076T419 962T414 861H321Q322 882 323 914T325 983T327 1062T328 1144Q328
1209 326 1253T321 1328Q311 1314 297 1301Q285 1290 268 1276T229 1250L209 1287ZM168 1Q168 74 191 128T247 225T320 302T392 368T448 435T471 513Q471 538 463 554T442 579T412 591T377 595Q359 595 341 591T308 578T285 552T276 513Q276 482 291 466T332 450V411Q319
403 302 398T268 392Q251 392 235 397T206 412T186 440T178 482Q178 521 195 550T241 598T304 626T377 636Q412 636 445 628T505 601T547 553T563 482Q563 431 543 398T492 339T423 294T348 250T280 194T233 114Q240 123 263 131T309 140Q337 140 360 134T406 122T449
109T494 103Q509 103 522 107T545 118Q556 125 565 134L588 112Q576 90 564 70T538 35T508 10T473 1Q444 1 418 11T367 33T320 55T279 65Q259 65 246 56T225 36T214 15T209 1H168ZM123 778H594V727H123V778Z" />
<glyph unicode="&#xbe;" glyph-name="threequarters" horiz-adv-x="717" d="M133 233Q205 296 247 354T312 464T341 559T348 635H451Q451 578 425 523T361 417T283 325T217 254H229Q257 254 281 245T326 225T369 202T412 184Q414 234 414 288T414 399L506 418Q506
376 506 314T502 182Q513 184 524 187T543 195L553 164Q542 155 528 148T500 139Q500 99 498 69T494 0H401Q405 38 406 68T410 139Q387 145 366 157T322 182T276 204T221 213Q195 213 176 203T150 186L133 233ZM123 778H594V727H123V778ZM297 1188Q351 1217 385
1265T419 1383Q419 1458 352 1458Q335 1458 319 1453T290 1436T270 1407T262 1368Q262 1348 269 1333T285 1308Q296 1297 309 1288L301 1270Q253 1281 221 1306T188 1362Q188 1393 204 1417T248 1459T309 1484T378 1493Q406 1493 432 1487T479 1468T512 1436T524
1389Q524 1356 507 1326T468 1271T425 1228T395 1202Q426 1197 456 1183T510 1148T548 1097T563 1032Q563 980 544 943T494 883T425 849T348 838Q302 838 264 849T199 882T158 933T143 1000Q143 1035 162 1062T206 1104L239 1088Q230 1068 227 1049T223 1008Q223
973 233 949T260 908T298 885T342 877Q365 877 384 884T418 908T441 951T450 1016Q450 1046 443 1073T419 1122T375 1155T307 1168L297 1188Z" />
<glyph unicode="&#xbf;" glyph-name="questiondown" horiz-adv-x="891" d="M473 803Q474 789 476 775Q477 763 478 750T479 725Q479 612 460 532T411 392T347 292T284 216T235 149T215 78Q215 35 234 0T285 -61T357 -99T440 -113Q479 -113 515 -100T581 -61T627
7T645 104Q645 157 630 196T596 262T563 300T549 313L573 354Q573 354 588 350T624 334T671 305T717 259T753 193T768 104Q768 43 740 -4T665 -84T563 -133T449 -150Q385 -150 326 -131T222 -73T150 22T123 154Q123 200 145 239T202 318T275 401T349 498T405 622T428
782V803H473ZM537 1085Q537 1066 530 1049T510 1020T480 1000T444 993Q425 993 408 1000T379 1019T359 1049T352 1085Q352 1104 359 1121T378 1151T408 1171T444 1178Q483 1178 510 1151T537 1085Z" />
<glyph unicode="&#xc0;" glyph-name="Agrave" horiz-adv-x="1352" d="M969 358Q969 270 973 219T987 142T1012 109T1047 102Q1074 102 1103 119T1160 163T1213 223T1260 287T1297 346T1321 389L1352 451L1393 420L1362 358Q1354 343 1336 310T1291 236T1230 152T1157
72T1075 13T987 -10Q946 -10 914 4T860 53T827 150T815 307Q815 344 816 377T821 459Q770 360 704 268T561 105T403 -8T236 -51Q183 -51 135 -32T50 26T-9 128T-31 276Q-31 414 -1 547T84 804T211 1042T368 1253T544 1428T728 1563T907 1649T1071 1679Q1155 1679
1205 1637T1255 1516Q1255 1464 1235 1415T1181 1320T1105 1234T1019 1161T936 1104T866 1065L836 1106Q861 1119 893 1142T959 1196T1023 1264T1080 1343T1120 1429T1135 1518Q1135 1561 1113 1589T1040 1618Q981 1618 912 1588T770 1501T624 1368T482 1197T356
997T254 776T185 543T160 307Q160 253 168 208T194 130T241 79T313 61Q367 61 419 85T520 152T614 250T700 370T774 501T836 635Q843 710 852 778T870 901T887 990T901 1034Q905 1041 918 1050T947 1066T981 1079T1010 1085Q1040 1085 1040 1055Q1040 1027 1036
990T1025 913T1009 833T987 758Q979 649 974 549T969 358ZM741 1751L536 1976L669 2038L782 1782L741 1751Z" />
<glyph unicode="&#xc1;" glyph-name="Aacute" horiz-adv-x="1352" d="M969 358Q969 270 973 219T987 142T1012 109T1047 102Q1074 102 1103 119T1160 163T1213 223T1260 287T1297 346T1321 389L1352 451L1393 420L1362 358Q1354 343 1336 310T1291 236T1230 152T1157
72T1075 13T987 -10Q946 -10 914 4T860 53T827 150T815 307Q815 344 816 377T821 459Q770 360 704 268T561 105T403 -8T236 -51Q183 -51 135 -32T50 26T-9 128T-31 276Q-31 414 -1 547T84 804T211 1042T368 1253T544 1428T728 1563T907 1649T1071 1679Q1155 1679
1205 1637T1255 1516Q1255 1464 1235 1415T1181 1320T1105 1234T1019 1161T936 1104T866 1065L836 1106Q861 1119 893 1142T959 1196T1023 1264T1080 1343T1120 1429T1135 1518Q1135 1561 1113 1589T1040 1618Q981 1618 912 1588T770 1501T624 1368T482 1197T356
997T254 776T185 543T160 307Q160 253 168 208T194 130T241 79T313 61Q367 61 419 85T520 152T614 250T700 370T774 501T836 635Q843 710 852 778T870 901T887 990T901 1034Q905 1041 918 1050T947 1066T981 1079T1010 1085Q1040 1085 1040 1055Q1040 1027 1036
990T1025 913T1009 833T987 758Q979 649 974 549T969 358ZM778 1831L971 2031L1075 1929L805 1788L778 1831Z" />
<glyph unicode="&#xc2;" glyph-name="Acircumflex" horiz-adv-x="1352" d="M969 358Q969 270 973 219T987 142T1012 109T1047 102Q1074 102 1103 119T1160 163T1213 223T1260 287T1297 346T1321 389L1352 451L1393 420L1362 358Q1354 343 1336 310T1291 236T1230
152T1157 72T1075 13T987 -10Q946 -10 914 4T860 53T827 150T815 307Q815 344 816 377T821 459Q770 360 704 268T561 105T403 -8T236 -51Q183 -51 135 -32T50 26T-9 128T-31 276Q-31 414 -1 547T84 804T211 1042T368 1253T544 1428T728 1563T907 1649T1071 1679Q1155
1679 1205 1637T1255 1516Q1255 1464 1235 1415T1181 1320T1105 1234T1019 1161T936 1104T866 1065L836 1106Q861 1119 893 1142T959 1196T1023 1264T1080 1343T1120 1429T1135 1518Q1135 1561 1113 1589T1040 1618Q981 1618 912 1588T770 1501T624 1368T482 1197T356
997T254 776T185 543T160 307Q160 253 168 208T194 130T241 79T313 61Q367 61 419 85T520 152T614 250T700 370T774 501T836 635Q843 710 852 778T870 901T887 990T901 1034Q905 1041 918 1050T947 1066T981 1079T1010 1085Q1040 1085 1040 1055Q1040 1027 1036
990T1025 913T1009 833T987 758Q979 649 974 549T969 358ZM948 2038L1214 1843L1184 1802L948 1925L713 1802L682 1843L948 2038Z" />
<glyph unicode="&#xc3;" glyph-name="Atilde" horiz-adv-x="1352" d="M969 358Q969 270 973 219T987 142T1012 109T1047 102Q1074 102 1103 119T1160 163T1213 223T1260 287T1297 346T1321 389L1352 451L1393 420L1362 358Q1354 343 1336 310T1291 236T1230 152T1157
72T1075 13T987 -10Q946 -10 914 4T860 53T827 150T815 307Q815 344 816 377T821 459Q770 360 704 268T561 105T403 -8T236 -51Q183 -51 135 -32T50 26T-9 128T-31 276Q-31 414 -1 547T84 804T211 1042T368 1253T544 1428T728 1563T907 1649T1071 1679Q1155 1679
1205 1637T1255 1516Q1255 1464 1235 1415T1181 1320T1105 1234T1019 1161T936 1104T866 1065L836 1106Q861 1119 893 1142T959 1196T1023 1264T1080 1343T1120 1429T1135 1518Q1135 1561 1113 1589T1040 1618Q981 1618 912 1588T770 1501T624 1368T482 1197T356
997T254 776T185 543T160 307Q160 253 168 208T194 130T241 79T313 61Q367 61 419 85T520 152T614 250T700 370T774 501T836 635Q843 710 852 778T870 901T887 990T901 1034Q905 1041 918 1050T947 1066T981 1079T1010 1085Q1040 1085 1040 1055Q1040 1027 1036
990T1025 913T1009 833T987 758Q979 649 974 549T969 358ZM657 1843Q662 1889 679 1925Q693 1956 721 1981T800 2007Q831 2007 863 1998T928 1976T993 1955T1056 1945Q1079 1945 1093 1954T1115 1976Q1124 1989 1128 2007H1169Q1164 1961 1147 1925Q1133 1894 1104
1869T1026 1843Q995 1843 963 1852T897 1873T832 1894T770 1904Q747 1904 733 1894T711 1873Q702 1860 698 1843H657Z" />
<glyph unicode="&#xc4;" glyph-name="Adieresis" horiz-adv-x="1352" d="M969 358Q969 270 973 219T987 142T1012 109T1047 102Q1074 102 1103 119T1160 163T1213 223T1260 287T1297 346T1321 389L1352 451L1393 420L1362 358Q1354 343 1336 310T1291 236T1230
152T1157 72T1075 13T987 -10Q946 -10 914 4T860 53T827 150T815 307Q815 344 816 377T821 459Q770 360 704 268T561 105T403 -8T236 -51Q183 -51 135 -32T50 26T-9 128T-31 276Q-31 414 -1 547T84 804T211 1042T368 1253T544 1428T728 1563T907 1649T1071 1679Q1155
1679 1205 1637T1255 1516Q1255 1464 1235 1415T1181 1320T1105 1234T1019 1161T936 1104T866 1065L836 1106Q861 1119 893 1142T959 1196T1023 1264T1080 1343T1120 1429T1135 1518Q1135 1561 1113 1589T1040 1618Q981 1618 912 1588T770 1501T624 1368T482 1197T356
997T254 776T185 543T160 307Q160 253 168 208T194 130T241 79T313 61Q367 61 419 85T520 152T614 250T700 370T774 501T836 635Q843 710 852 778T870 901T887 990T901 1034Q905 1041 918 1050T947 1066T981 1079T1010 1085Q1040 1085 1040 1055Q1040 1027 1036
990T1025 913T1009 833T987 758Q979 649 974 549T969 358ZM913 1925Q913 1890 890 1867T831 1843Q797 1843 773 1866T749 1925Q749 1959 773 1983T831 2007Q866 2007 889 1983T913 1925ZM1179 1925Q1179 1890 1156 1867T1097 1843Q1063 1843 1039 1866T1015 1925Q1015
1959 1039 1983T1097 2007Q1132 2007 1155 1983T1179 1925Z" />
<glyph unicode="&#xc5;" glyph-name="Aring" horiz-adv-x="1352" d="M969 358Q969 270 973 219T987 142T1012 109T1047 102Q1074 102 1103 119T1160 163T1213 223T1260 287T1297 346T1321 389L1352 451L1393 420L1362 358Q1354 343 1336 310T1291 236T1230 152T1157
72T1075 13T987 -10Q946 -10 914 4T860 53T827 150T815 307Q815 344 816 377T821 459Q770 360 704 268T561 105T403 -8T236 -51Q183 -51 135 -32T50 26T-9 128T-31 276Q-31 414 -1 547T84 804T211 1042T368 1253T544 1428T728 1563T907 1649T1071 1679Q1155 1679
1205 1637T1255 1516Q1255 1464 1235 1415T1181 1320T1105 1234T1019 1161T936 1104T866 1065L836 1106Q861 1119 893 1142T959 1196T1023 1264T1080 1343T1120 1429T1135 1518Q1135 1561 1113 1589T1040 1618Q981 1618 912 1588T770 1501T624 1368T482 1197T356
997T254 776T185 543T160 307Q160 253 168 208T194 130T241 79T313 61Q367 61 419 85T520 152T614 250T700 370T774 501T836 635Q843 710 852 778T870 901T887 990T901 1034Q905 1041 918 1050T947 1066T981 1079T1010 1085Q1040 1085 1040 1055Q1040 1027 1036
990T1025 913T1009 833T987 758Q979 649 974 549T969 358ZM768 1943Q768 1977 781 2007T816 2060T868 2096T932 2109Q966 2109 995 2096T1047 2061T1083 2008T1096 1943Q1096 1910 1083 1881T1048 1830T996 1795T932 1782Q898 1782 869 1795T817 1829T781 1880T768
1943ZM829 1945Q829 1924 837 1906T860 1873T892 1851T932 1843Q953 1843 971 1851T1004 1873T1026 1905T1034 1945Q1034 1966 1026 1984T1004 2017T972 2040T932 2048Q911 2048 893 2040T860 2018T838 1985T829 1945Z" />
<glyph unicode="&#xc6;" glyph-name="AE" horiz-adv-x="1997" d="M1536 1444Q1536 1484 1516 1517T1462 1574T1385 1611T1294 1624Q1240 1624 1186 1605T1089 1545T1020 1439T993 1282Q993 1231 1005 1182T1040 1091T1099 1019T1180 973Q1223 984 1257 988T1311
993Q1345 993 1359 982T1374 954Q1374 946 1371 939T1360 925T1338 915T1300 911Q1271 911 1244 913T1190 920Q1115 899 1059 851T965 738T908 597T889 442Q889 358 912 278T981 137T1096 38T1260 0Q1360 0 1435 36T1563 131Q1515 143 1463 173T1368 247T1298 348T1270
471Q1270 529 1290 579T1345 667T1428 726T1532 748Q1584 748 1632 729T1718 673T1777 582T1800 457Q1800 421 1793 383T1772 308T1741 238T1702 176Q1762 184 1806 210T1885 272T1943 349T1987 430L1997 451L2038 420L2028 399Q1997 337 1959 286T1875 199T1774
144T1655 123Q1577 45 1470 -3T1229 -51Q1139 -51 1061 -28T920 37T811 137T739 264Q710 213 673 163T589 73T487 7T367 -18Q281 -18 220 22T119 131T60 295T41 498Q41 623 63 759T127 1026T229 1275T365 1483T532 1626T727 1679Q768 1679 802 1670T863 1645T911
1610T948 1573Q1010 1627 1090 1652T1251 1677Q1316 1677 1377 1662T1484 1616T1559 1543T1587 1444Q1587 1405 1574 1374T1538 1322T1485 1289T1421 1278Q1398 1278 1374 1283T1327 1300L1346 1341Q1366 1332 1386 1327T1425 1321Q1473 1321 1504 1353T1536 1444ZM829
1290Q829 1369 852 1430T915 1538Q888 1569 843 1594T727 1620Q650 1620 584 1571T464 1438T367 1244T295 1013T251 768T236 532Q236 443 247 366T282 233T342 144T428 111Q465 111 503 127T579 174T651 247T715 342Q710 367 709 391T707 440Q707 554 742 638T833
783T958 882T1094 946Q1030 970 981 1007T898 1089T847 1186T829 1290ZM1669 440Q1669 502 1655 547T1616 622T1561 666T1497 680Q1462 680 1432 665T1380 623T1344 557T1331 471Q1331 411 1356 361T1421 272T1508 209T1599 176Q1614 201 1627 232T1649 298T1664
369T1669 440Z" />
<glyph unicode="&#xc7;" glyph-name="Ccedilla" horiz-adv-x="1116" d="M153 760Q153 580 194 446T302 223T456 90T634 45Q699 45 762 69T886 141T1001 261T1105 430L1116 451L1157 420L1146 399Q1094 294 1032 213T899 76T754 -12T599 -50V-93Q712 -93 766 -124T821
-206Q821 -236 801 -271T739 -341T636 -407T494 -460L475 -397Q586 -357 634 -324T683 -270Q683 -247 643 -234T530 -220V-49Q426 -42 329 7T156 151T35 384T-11 709Q-11 878 17 1015T94 1260T207 1447T343 1577T488 1654T630 1679Q719 1679 794 1649T923 1563T1007
1428T1038 1251Q1038 1158 1010 1076T934 933T825 835T696 799Q651 799 612 815T544 860T498 931T481 1024Q481 1073 496 1118T534 1202T584 1270T638 1317L665 1290Q644 1266 626 1239T593 1180T571 1112T563 1034Q563 991 573 957T602 899T645 863T696 850Q733
850 770 877T836 958T883 1090T901 1270Q901 1362 881 1429T824 1541T739 1606T634 1628Q594 1628 543 1611T439 1553T334 1448T243 1286T178 1059T153 760Z" />
<glyph unicode="&#xc8;" glyph-name="Egrave" horiz-adv-x="1269" d="M532 0Q632 0 707 36T835 131Q771 143 718 173T625 247T564 348T542 471Q542 536 565 590T627 684T717 746T825 768Q877 768 925 749T1011 694T1070 603T1093 477Q1093 405 1062 326T974 176Q1034
184 1079 210T1157 272T1215 349T1259 430L1269 451L1310 420L1300 399Q1269 337 1231 286T1147 199T1046 144T927 123Q850 45 742 -3T501 -51Q384 -51 288 -12T124 94T17 250T-21 440Q-21 554 14 638T106 783T230 882T366 946Q302 970 253 1007T171 1089T120 1186T102
1290Q102 1384 141 1456T242 1578T383 1653T542 1679Q608 1679 668 1663T774 1618Q798 1623 824 1625T880 1628V1587Q863 1587 848 1586T819 1583Q848 1555 864 1521T880 1444Q880 1405 868 1373T833 1318T780 1283T716 1270Q678 1270 649 1282T599 1314T568 1361T557
1417Q557 1442 565 1468T591 1518T636 1563T702 1599Q664 1615 623 1621T552 1628Q482 1628 429 1604T339 1534T285 1425T266 1282Q266 1231 278 1182T313 1091T371 1019T452 973Q495 984 529 988T583 993Q617 993 632 982T647 954Q647 946 644 939T633 925T611
915T573 911Q544 911 516 913T462 920Q396 903 341 863T247 762T185 620T163 440Q163 326 194 243T277 106T395 26T532 0ZM962 461Q962 523 948 568T909 642T854 686T790 700Q755 700 722 685T663 640T620 568T604 471Q604 411 623 361T678 272T763 209T872 176Q918
242 940 317T962 461ZM829 1444Q829 1487 808 1518T755 1571Q716 1560 688 1543T643 1506T617 1463T608 1419Q608 1379 636 1350T716 1321Q770 1321 799 1355T829 1444ZM686 1751L481 1976L614 2038L727 1782L686 1751Z" />
<glyph unicode="&#xc9;" glyph-name="Eacute" horiz-adv-x="1269" d="M532 0Q632 0 707 36T835 131Q771 143 718 173T625 247T564 348T542 471Q542 536 565 590T627 684T717 746T825 768Q877 768 925 749T1011 694T1070 603T1093 477Q1093 405 1062 326T974 176Q1034
184 1079 210T1157 272T1215 349T1259 430L1269 451L1310 420L1300 399Q1269 337 1231 286T1147 199T1046 144T927 123Q850 45 742 -3T501 -51Q384 -51 288 -12T124 94T17 250T-21 440Q-21 554 14 638T106 783T230 882T366 946Q302 970 253 1007T171 1089T120 1186T102
1290Q102 1384 141 1456T242 1578T383 1653T542 1679Q608 1679 668 1663T774 1618Q798 1623 824 1625T880 1628V1587Q863 1587 848 1586T819 1583Q848 1555 864 1521T880 1444Q880 1405 868 1373T833 1318T780 1283T716 1270Q678 1270 649 1282T599 1314T568 1361T557
1417Q557 1442 565 1468T591 1518T636 1563T702 1599Q664 1615 623 1621T552 1628Q482 1628 429 1604T339 1534T285 1425T266 1282Q266 1231 278 1182T313 1091T371 1019T452 973Q495 984 529 988T583 993Q617 993 632 982T647 954Q647 946 644 939T633 925T611
915T573 911Q544 911 516 913T462 920Q396 903 341 863T247 762T185 620T163 440Q163 326 194 243T277 106T395 26T532 0ZM962 461Q962 523 948 568T909 642T854 686T790 700Q755 700 722 685T663 640T620 568T604 471Q604 411 623 361T678 272T763 209T872 176Q918
242 940 317T962 461ZM829 1444Q829 1487 808 1518T755 1571Q716 1560 688 1543T643 1506T617 1463T608 1419Q608 1379 636 1350T716 1321Q770 1321 799 1355T829 1444ZM475 1831L668 2031L772 1929L502 1788L475 1831Z" />
<glyph unicode="&#xca;" glyph-name="Ecircumflex" horiz-adv-x="1269" d="M532 0Q632 0 707 36T835 131Q771 143 718 173T625 247T564 348T542 471Q542 536 565 590T627 684T717 746T825 768Q877 768 925 749T1011 694T1070 603T1093 477Q1093 405 1062 326T974
176Q1034 184 1079 210T1157 272T1215 349T1259 430L1269 451L1310 420L1300 399Q1269 337 1231 286T1147 199T1046 144T927 123Q850 45 742 -3T501 -51Q384 -51 288 -12T124 94T17 250T-21 440Q-21 554 14 638T106 783T230 882T366 946Q302 970 253 1007T171 1089T120
1186T102 1290Q102 1384 141 1456T242 1578T383 1653T542 1679Q608 1679 668 1663T774 1618Q798 1623 824 1625T880 1628V1587Q863 1587 848 1586T819 1583Q848 1555 864 1521T880 1444Q880 1405 868 1373T833 1318T780 1283T716 1270Q678 1270 649 1282T599 1314T568
1361T557 1417Q557 1442 565 1468T591 1518T636 1563T702 1599Q664 1615 623 1621T552 1628Q482 1628 429 1604T339 1534T285 1425T266 1282Q266 1231 278 1182T313 1091T371 1019T452 973Q495 984 529 988T583 993Q617 993 632 982T647 954Q647 946 644 939T633
925T611 915T573 911Q544 911 516 913T462 920Q396 903 341 863T247 762T185 620T163 440Q163 326 194 243T277 106T395 26T532 0ZM962 461Q962 523 948 568T909 642T854 686T790 700Q755 700 722 685T663 640T620 568T604 471Q604 411 623 361T678 272T763 209T872
176Q918 242 940 317T962 461ZM829 1444Q829 1487 808 1518T755 1571Q716 1560 688 1543T643 1506T617 1463T608 1419Q608 1379 636 1350T716 1321Q770 1321 799 1355T829 1444ZM530 1995L796 1800L766 1759L530 1882L295 1759L264 1800L530 1995Z" />
<glyph unicode="&#xcb;" glyph-name="Edieresis" horiz-adv-x="1269" d="M532 0Q632 0 707 36T835 131Q771 143 718 173T625 247T564 348T542 471Q542 536 565 590T627 684T717 746T825 768Q877 768 925 749T1011 694T1070 603T1093 477Q1093 405 1062 326T974
176Q1034 184 1079 210T1157 272T1215 349T1259 430L1269 451L1310 420L1300 399Q1269 337 1231 286T1147 199T1046 144T927 123Q850 45 742 -3T501 -51Q384 -51 288 -12T124 94T17 250T-21 440Q-21 554 14 638T106 783T230 882T366 946Q302 970 253 1007T171 1089T120
1186T102 1290Q102 1384 141 1456T242 1578T383 1653T542 1679Q608 1679 668 1663T774 1618Q798 1623 824 1625T880 1628V1587Q863 1587 848 1586T819 1583Q848 1555 864 1521T880 1444Q880 1405 868 1373T833 1318T780 1283T716 1270Q678 1270 649 1282T599 1314T568
1361T557 1417Q557 1442 565 1468T591 1518T636 1563T702 1599Q664 1615 623 1621T552 1628Q482 1628 429 1604T339 1534T285 1425T266 1282Q266 1231 278 1182T313 1091T371 1019T452 973Q495 984 529 988T583 993Q617 993 632 982T647 954Q647 946 644 939T633
925T611 915T573 911Q544 911 516 913T462 920Q396 903 341 863T247 762T185 620T163 440Q163 326 194 243T277 106T395 26T532 0ZM962 461Q962 523 948 568T909 642T854 686T790 700Q755 700 722 685T663 640T620 568T604 471Q604 411 623 361T678 272T763 209T872
176Q918 242 940 317T962 461ZM829 1444Q829 1487 808 1518T755 1571Q716 1560 688 1543T643 1506T617 1463T608 1419Q608 1379 636 1350T716 1321Q770 1321 799 1355T829 1444ZM475 1925Q475 1890 452 1867T393 1843Q359 1843 335 1866T311 1925Q311 1959 335
1983T393 2007Q428 2007 451 1983T475 1925ZM741 1925Q741 1890 718 1867T659 1843Q625 1843 601 1866T577 1925Q577 1959 601 1983T659 2007Q694 2007 717 1983T741 1925Z" />
<glyph unicode="&#xcc;" glyph-name="Igrave" horiz-adv-x="1004" d="M677 406Q677 433 676 458T672 511T667 568T661 637Q620 621 574 613T472 604Q410 604 353 623T252 681T182 776T155 911Q155 960 166 1005T207 1101T284 1209T407 1343T582 1513T820 1731L861
1700Q839 1670 822 1634T793 1551T775 1443T769 1300Q769 1179 778 1055T798 811Q818 839 833 870T861 932L902 911Q882 863 859 821T804 743Q809 692 814 650T822 570T828 499T831 430Q831 322 812 238T736 92Q681 29 580 -11T339 -51Q253 -51 175 -27T38 40T-56
143T-91 276Q-91 330 -74 373T-28 449T33 507T99 547T157 572T196 584L216 543Q193 531 165 511T111 459T69 382T52 276Q52 211 74 160T135 73T229 19T349 0Q422 0 482 20T586 87T653 212T677 406ZM677 1526Q599 1451 539 1391T435 1281T360 1189T312 1105T286
1022T278 932Q278 786 343 721T523 655Q561 655 594 662T657 684Q650 753 643 822T629 956T620 1078T616 1178Q616 1221 620 1272T633 1371T652 1461T677 1526ZM520 1751L315 1976L448 2038L561 1782L520 1751Z" />
<glyph unicode="&#xcd;" glyph-name="Iacute" horiz-adv-x="1004" d="M677 406Q677 433 676 458T672 511T667 568T661 637Q620 621 574 613T472 604Q410 604 353 623T252 681T182 776T155 911Q155 960 166 1005T207 1101T284 1209T407 1343T582 1513T820 1731L861
1700Q839 1670 822 1634T793 1551T775 1443T769 1300Q769 1179 778 1055T798 811Q818 839 833 870T861 932L902 911Q882 863 859 821T804 743Q809 692 814 650T822 570T828 499T831 430Q831 322 812 238T736 92Q681 29 580 -11T339 -51Q253 -51 175 -27T38 40T-56
143T-91 276Q-91 330 -74 373T-28 449T33 507T99 547T157 572T196 584L216 543Q193 531 165 511T111 459T69 382T52 276Q52 211 74 160T135 73T229 19T349 0Q422 0 482 20T586 87T653 212T677 406ZM677 1526Q599 1451 539 1391T435 1281T360 1189T312 1105T286
1022T278 932Q278 786 343 721T523 655Q561 655 594 662T657 684Q650 753 643 822T629 956T620 1078T616 1178Q616 1221 620 1272T633 1371T652 1461T677 1526ZM474 1831L667 2031L771 1929L501 1788L474 1831Z" />
<glyph unicode="&#xce;" glyph-name="Icircumflex" horiz-adv-x="1010" d="M677 406Q677 433 676 458T672 511T667 568T661 637Q620 621 574 613T472 604Q410 604 353 623T252 681T182 776T155 911Q155 960 166 1005T207 1101T284 1209T407 1343T582 1513T820
1731L861 1700Q839 1670 822 1634T793 1551T775 1443T769 1300Q769 1179 778 1055T798 811Q818 839 833 870T861 932L902 911Q882 863 859 821T804 743Q809 692 814 650T822 570T828 499T831 430Q831 322 812 238T736 92Q681 29 580 -11T339 -51Q253 -51 175 -27T38
40T-56 143T-91 276Q-91 330 -74 373T-28 449T33 507T99 547T157 572T196 584L216 543Q193 531 165 511T111 459T69 382T52 276Q52 211 74 160T135 73T229 19T349 0Q422 0 482 20T586 87T653 212T677 406ZM677 1526Q599 1451 539 1391T435 1281T360 1189T312 1105T286
1022T278 932Q278 786 343 721T523 655Q561 655 594 662T657 684Q650 753 643 822T629 956T620 1078T616 1178Q616 1221 620 1272T633 1371T652 1461T677 1526ZM642 2038L908 1843L878 1802L642 1925L407 1802L376 1843L642 2038Z" />
<glyph unicode="&#xcf;" glyph-name="Idieresis" horiz-adv-x="1021" d="M677 406Q677 433 676 458T672 511T667 568T661 637Q620 621 574 613T472 604Q410 604 353 623T252 681T182 776T155 911Q155 960 166 1005T207 1101T284 1209T407 1343T582 1513T820 1731L861
1700Q839 1670 822 1634T793 1551T775 1443T769 1300Q769 1179 778 1055T798 811Q818 839 833 870T861 932L902 911Q882 863 859 821T804 743Q809 692 814 650T822 570T828 499T831 430Q831 322 812 238T736 92Q681 29 580 -11T339 -51Q253 -51 175 -27T38 40T-56
143T-91 276Q-91 330 -74 373T-28 449T33 507T99 547T157 572T196 584L216 543Q193 531 165 511T111 459T69 382T52 276Q52 211 74 160T135 73T229 19T349 0Q422 0 482 20T586 87T653 212T677 406ZM677 1526Q599 1451 539 1391T435 1281T360 1189T312 1105T286
1022T278 932Q278 786 343 721T523 655Q561 655 594 662T657 684Q650 753 643 822T629 956T620 1078T616 1178Q616 1221 620 1272T633 1371T652 1461T677 1526ZM653 1925Q653 1890 630 1867T571 1843Q537 1843 513 1866T489 1925Q489 1959 513 1983T571 2007Q606
2007 629 1983T653 1925ZM919 1925Q919 1890 896 1867T837 1843Q803 1843 779 1866T755 1925Q755 1959 779 1983T837 2007Q872 2007 895 1983T919 1925Z" />
<glyph unicode="&#xd0;" glyph-name="Eth" horiz-adv-x="1554" d="M231 686H394Q394 803 396 885T404 1028T422 1130T454 1209T505 1281T579 1362L630 1317Q608 1296 596 1266T577 1194T570 1100T568 981V686H722V604H568V418Q568 353 554 305T517 218T463 150T401
94Q460 82 516 70T624 48T725 32T818 25Q900 25 964 61T1075 159T1154 306T1207 488T1235 691T1244 901Q1244 1066 1202 1197T1078 1419T873 1559T589 1608Q473 1608 387 1590T240 1541T139 1471T78 1391T47 1308T38 1233Q38 1193 44 1155T70 1086T126 1038T222
1020Q242 1020 255 1022T277 1029Q287 1033 294 1038L306 979Q291 968 256 960T179 952Q119 952 68 973T-22 1030T-81 1115T-103 1217Q-103 1310 -54 1393T83 1540T292 1641T558 1679Q756 1679 916 1616T1191 1439T1367 1170T1429 829Q1429 710 1406 599T1340 390T1235
211T1094 72T922 -19T722 -51Q614 -51 504 -31T286 12Q249 -9 210 -24T132 -50T56 -66T-15 -72Q-115 -72 -167 -49T-220 20Q-220 47 -206 68T-157 103T-69 125T67 133Q130 133 191 127T312 111L339 139Q358 162 369 197T385 287T392 419T394 604H231V686ZM-56 61Q-72
61 -90 60T-123 55T-149 43T-159 20Q-159 0 -126 -10T-15 -20Q45 -20 99 -7T202 31Q136 43 71 52T-56 61Z" />
<glyph unicode="&#xd1;" glyph-name="Ntilde" horiz-adv-x="1483" d="M162 1679Q210 1679 255 1634T342 1511T418 1331T482 1114Q553 1022 633 921T798 716T972 508T1149 303Q1086 580 1054 801T1022 1190Q1022 1311 1045 1402T1109 1555T1203 1648T1319 1679Q1365
1679 1399 1663T1457 1620T1492 1558T1504 1485Q1504 1434 1494 1390T1471 1313Q1456 1274 1438 1241L1399 1266Q1403 1275 1410 1292T1425 1335T1437 1393T1442 1464Q1442 1526 1414 1561T1340 1597Q1280 1597 1239 1557T1172 1445T1135 1277T1123 1069Q1123 965
1132 853T1156 628T1192 407T1237 205L1381 51L1260 -63Q1201 -6 1117 82T934 281T730 521T520 788Q530 731 533 668T537 528Q537 389 504 290T419 126T302 31T174 0Q125 0 81 17T3 67T-51 147T-71 256Q-71 349 -26 436T88 600L127 580Q107 550 90 516T59 447T37
374T29 301Q29 255 43 218T82 154T138 113T207 98Q254 98 302 125T390 213T455 370T480 604Q480 683 471 757T443 897Q334 1052 264 1165T153 1358T96 1491T80 1577Q80 1631 105 1655T162 1679ZM142 1608Q142 1598 159 1567T209 1487T288 1374T391 1235Q366 1314
337 1385T277 1511T217 1596T162 1628Q142 1628 142 1608ZM498 1843Q503 1889 520 1925Q534 1956 562 1981T641 2007Q672 2007 704 1998T769 1976T834 1955T897 1945Q920 1945 934 1954T956 1976Q965 1989 969 2007H1010Q1005 1961 988 1925Q974 1894 945 1869T867
1843Q836 1843 804 1852T738 1873T673 1894T611 1904Q588 1904 574 1894T552 1873Q543 1860 539 1843H498Z" />
<glyph unicode="&#xd2;" glyph-name="Ograve" horiz-adv-x="1432" d="M265 967Q265 1040 278 1121T318 1282T387 1433T486 1559T615 1646T777 1679Q868 1679 943 1649T1077 1564T1180 1434T1254 1270T1297 1082T1312 879Q1312 765 1294 652T1239 436T1147 243T1019
89T855 -13T654 -51Q552 -51 463 -20T300 69T168 206T71 381T10 585T-11 809Q-11 922 9 1019T64 1198T141 1347T232 1467T325 1559T410 1624L453 1595Q384 1539 329 1457T234 1273T173 1054T152 809Q152 594 194 441T307 190T467 46T654 0Q758 0 847 46T1001 190T1104
441T1142 809Q1142 1015 1111 1167T1025 1418T897 1567T742 1616Q678 1616 627 1587T538 1508T471 1390T426 1245T400 1087T392 926Q392 832 398 768T412 663Q421 616 433 588L374 573Q360 589 342 618T306 694T277 808T265 967ZM671 1751L466 1976L599 2038L712
1782L671 1751Z" />
<glyph unicode="&#xd3;" glyph-name="Oacute" horiz-adv-x="1432" d="M265 967Q265 1040 278 1121T318 1282T387 1433T486 1559T615 1646T777 1679Q868 1679 943 1649T1077 1564T1180 1434T1254 1270T1297 1082T1312 879Q1312 765 1294 652T1239 436T1147 243T1019
89T855 -13T654 -51Q552 -51 463 -20T300 69T168 206T71 381T10 585T-11 809Q-11 922 9 1019T64 1198T141 1347T232 1467T325 1559T410 1624L453 1595Q384 1539 329 1457T234 1273T173 1054T152 809Q152 594 194 441T307 190T467 46T654 0Q758 0 847 46T1001 190T1104
441T1142 809Q1142 1015 1111 1167T1025 1418T897 1567T742 1616Q678 1616 627 1587T538 1508T471 1390T426 1245T400 1087T392 926Q392 832 398 768T412 663Q421 616 433 588L374 573Q360 589 342 618T306 694T277 808T265 967ZM521 1831L714 2031L818 1929L548
1788L521 1831Z" />
<glyph unicode="&#xd4;" glyph-name="Ocircumflex" horiz-adv-x="1432" d="M265 967Q265 1040 278 1121T318 1282T387 1433T486 1559T615 1646T777 1679Q868 1679 943 1649T1077 1564T1180 1434T1254 1270T1297 1082T1312 879Q1312 765 1294 652T1239 436T1147
243T1019 89T855 -13T654 -51Q552 -51 463 -20T300 69T168 206T71 381T10 585T-11 809Q-11 922 9 1019T64 1198T141 1347T232 1467T325 1559T410 1624L453 1595Q384 1539 329 1457T234 1273T173 1054T152 809Q152 594 194 441T307 190T467 46T654 0Q758 0 847 46T1001
190T1104 441T1142 809Q1142 1015 1111 1167T1025 1418T897 1567T742 1616Q678 1616 627 1587T538 1508T471 1390T426 1245T400 1087T392 926Q392 832 398 768T412 663Q421 616 433 588L374 573Q360 589 342 618T306 694T277 808T265 967ZM691 2038L957 1843L927
1802L691 1925L456 1802L425 1843L691 2038Z" />
<glyph unicode="&#xd5;" glyph-name="Otilde" horiz-adv-x="1432" d="M265 967Q265 1040 278 1121T318 1282T387 1433T486 1559T615 1646T777 1679Q868 1679 943 1649T1077 1564T1180 1434T1254 1270T1297 1082T1312 879Q1312 765 1294 652T1239 436T1147 243T1019
89T855 -13T654 -51Q552 -51 463 -20T300 69T168 206T71 381T10 585T-11 809Q-11 922 9 1019T64 1198T141 1347T232 1467T325 1559T410 1624L453 1595Q384 1539 329 1457T234 1273T173 1054T152 809Q152 594 194 441T307 190T467 46T654 0Q758 0 847 46T1001 190T1104
441T1142 809Q1142 1015 1111 1167T1025 1418T897 1567T742 1616Q678 1616 627 1587T538 1508T471 1390T426 1245T400 1087T392 926Q392 832 398 768T412 663Q421 616 433 588L374 573Q360 589 342 618T306 694T277 808T265 967ZM423 1843Q428 1889 445 1925Q459
1956 487 1981T566 2007Q597 2007 629 1998T694 1976T759 1955T822 1945Q845 1945 859 1954T881 1976Q890 1989 894 2007H935Q930 1961 913 1925Q899 1894 870 1869T792 1843Q761 1843 729 1852T663 1873T598 1894T536 1904Q513 1904 499 1894T477 1873Q468 1860
464 1843H423Z" />
<glyph unicode="&#xd6;" glyph-name="Odieresis" horiz-adv-x="1432" d="M265 967Q265 1040 278 1121T318 1282T387 1433T486 1559T615 1646T777 1679Q868 1679 943 1649T1077 1564T1180 1434T1254 1270T1297 1082T1312 879Q1312 765 1294 652T1239 436T1147 243T1019
89T855 -13T654 -51Q552 -51 463 -20T300 69T168 206T71 381T10 585T-11 809Q-11 922 9 1019T64 1198T141 1347T232 1467T325 1559T410 1624L453 1595Q384 1539 329 1457T234 1273T173 1054T152 809Q152 594 194 441T307 190T467 46T654 0Q758 0 847 46T1001 190T1104
441T1142 809Q1142 1015 1111 1167T1025 1418T897 1567T742 1616Q678 1616 627 1587T538 1508T471 1390T426 1245T400 1087T392 926Q392 832 398 768T412 663Q421 616 433 588L374 573Q360 589 342 618T306 694T277 808T265 967ZM620 1925Q620 1890 597 1867T538
1843Q504 1843 480 1866T456 1925Q456 1959 480 1983T538 2007Q573 2007 596 1983T620 1925ZM886 1925Q886 1890 863 1867T804 1843Q770 1843 746 1866T722 1925Q722 1959 746 1983T804 2007Q839 2007 862 1983T886 1925Z" />
<glyph unicode="&#xd7;" glyph-name="multiply" horiz-adv-x="848" d="M725 815L481 571L725 330L668 270L424 514L180 270L123 330L365 571L123 815L180 874L424 631L668 874L725 815Z" />
<glyph unicode="&#xd8;" glyph-name="Oslash" horiz-adv-x="1432" d="M265 967Q265 1040 278 1121T318 1282T387 1433T486 1559T615 1646T777 1679Q813 1679 851 1673L922 1937L1013 1913L941 1649Q1035 1612 1104 1536T1220 1356T1289 1131T1312 879Q1312 775
1295 665T1242 451T1153 255T1029 94T868 -16T671 -57Q627 -57 583 -50T490 -29L419 -297L326 -274L402 4Q304 52 228 133T98 319T17 550T-11 809Q-11 922 9 1019T64 1198T141 1347T232 1467T325 1559T410 1624L453 1595Q384 1539 329 1457T234 1273T173 1054T152
809Q152 655 172 535T228 326T314 177T423 82L830 1599Q787 1616 742 1616Q678 1616 627 1587T538 1508T471 1390T426 1245T400 1087T392 926Q392 832 398 768T412 663Q421 616 433 588L374 573Q360 589 342 618T306 694T277 808T265 967ZM1142 809Q1142 956 1125
1076T1078 1288T1006 1446T914 1552L509 39Q530 30 556 24Q577 19 605 15T664 10Q775 10 864 65T1014 223T1109 474T1142 809Z" />
<glyph unicode="&#xd9;" glyph-name="Ugrave" horiz-adv-x="1551" d="M619 0Q678 0 733 28T839 106T935 225T1022 375V422Q1022 547 1031 688T1059 970T1103 1238T1161 1464T1233 1620T1315 1679Q1346 1679 1361 1647T1376 1546Q1376 1475 1364 1366T1326 1127T1263
851T1174 561V498Q1174 309 1203 211T1305 113Q1333 113 1358 131T1409 187T1466 285T1540 430L1551 451L1591 420L1581 399Q1531 299 1492 225T1416 100T1337 25T1243 0Q1143 0 1092 74T1026 289Q985 214 939 152T840 44T730 -26T608 -51Q543 -51 482 -28T374
42T299 163T271 338Q271 448 293 555T350 764T424 964T498 1150T555 1321T578 1475Q578 1518 569 1547T544 1595T505 1620T455 1628Q381 1628 311 1594T178 1503T63 1372T-28 1217T-87 1055T-108 901Q-108 824 -79 786T4 748Q43 748 83 771T160 837T231 937T291
1065L332 1044Q313 998 281 938T203 824T101 733T-26 696Q-68 696 -104 709T-166 750T-206 817T-221 911Q-221 1001 -191 1093T-108 1270T14 1430T162 1560T324 1647T486 1679Q534 1679 573 1664T641 1618T685 1541T701 1434Q701 1360 680 1267T627 1072T558 861T489
646T436 440T414 256Q414 174 435 124T488 46T554 9T619 0ZM1284 1587Q1270 1587 1258 1548T1236 1442T1216 1288T1200 1104T1187 910T1178 723Q1211 836 1236 947T1278 1159T1304 1343T1313 1483Q1313 1532 1306 1559T1284 1587ZM951 1751L746 1976L879 2038L992
1782L951 1751Z" />
<glyph unicode="&#xda;" glyph-name="Uacute" horiz-adv-x="1551" d="M619 0Q678 0 733 28T839 106T935 225T1022 375V422Q1022 547 1031 688T1059 970T1103 1238T1161 1464T1233 1620T1315 1679Q1346 1679 1361 1647T1376 1546Q1376 1475 1364 1366T1326 1127T1263
851T1174 561V498Q1174 309 1203 211T1305 113Q1333 113 1358 131T1409 187T1466 285T1540 430L1551 451L1591 420L1581 399Q1531 299 1492 225T1416 100T1337 25T1243 0Q1143 0 1092 74T1026 289Q985 214 939 152T840 44T730 -26T608 -51Q543 -51 482 -28T374
42T299 163T271 338Q271 448 293 555T350 764T424 964T498 1150T555 1321T578 1475Q578 1518 569 1547T544 1595T505 1620T455 1628Q381 1628 311 1594T178 1503T63 1372T-28 1217T-87 1055T-108 901Q-108 824 -79 786T4 748Q43 748 83 771T160 837T231 937T291
1065L332 1044Q313 998 281 938T203 824T101 733T-26 696Q-68 696 -104 709T-166 750T-206 817T-221 911Q-221 1001 -191 1093T-108 1270T14 1430T162 1560T324 1647T486 1679Q534 1679 573 1664T641 1618T685 1541T701 1434Q701 1360 680 1267T627 1072T558 861T489
646T436 440T414 256Q414 174 435 124T488 46T554 9T619 0ZM1284 1587Q1270 1587 1258 1548T1236 1442T1216 1288T1200 1104T1187 910T1178 723Q1211 836 1236 947T1278 1159T1304 1343T1313 1483Q1313 1532 1306 1559T1284 1587ZM823 1831L1016 2031L1120 1929L850
1788L823 1831Z" />
<glyph unicode="&#xdb;" glyph-name="Ucircumflex" horiz-adv-x="1551" d="M928 2038L1194 1843L1164 1802L928 1925L693 1802L662 1843L928 2038ZM619 0Q678 0 733 28T839 106T935 225T1022 375V422Q1022 547 1031 688T1059 970T1103 1238T1161 1464T1233 1620T1315
1679Q1346 1679 1361 1647T1376 1546Q1376 1475 1364 1366T1326 1127T1263 851T1174 561V498Q1174 309 1203 211T1305 113Q1333 113 1358 131T1409 187T1466 285T1540 430L1551 451L1591 420L1581 399Q1531 299 1492 225T1416 100T1337 25T1243 0Q1143 0 1092 74T1026
289Q985 214 939 152T840 44T730 -26T608 -51Q543 -51 482 -28T374 42T299 163T271 338Q271 448 293 555T350 764T424 964T498 1150T555 1321T578 1475Q578 1518 569 1547T544 1595T505 1620T455 1628Q381 1628 311 1594T178 1503T63 1372T-28 1217T-87 1055T-108
901Q-108 824 -79 786T4 748Q43 748 83 771T160 837T231 937T291 1065L332 1044Q313 998 281 938T203 824T101 733T-26 696Q-68 696 -104 709T-166 750T-206 817T-221 911Q-221 1001 -191 1093T-108 1270T14 1430T162 1560T324 1647T486 1679Q534 1679 573 1664T641
1618T685 1541T701 1434Q701 1360 680 1267T627 1072T558 861T489 646T436 440T414 256Q414 174 435 124T488 46T554 9T619 0ZM1284 1587Q1270 1587 1258 1548T1236 1442T1216 1288T1200 1104T1187 910T1178 723Q1211 836 1236 947T1278 1159T1304 1343T1313 1483Q1313
1532 1306 1559T1284 1587Z" />
<glyph unicode="&#xdc;" glyph-name="Udieresis" horiz-adv-x="1551" d="M887 1925Q887 1890 864 1867T805 1843Q771 1843 747 1866T723 1925Q723 1959 747 1983T805 2007Q840 2007 863 1983T887 1925ZM1153 1925Q1153 1890 1130 1867T1071 1843Q1037 1843 1013
1866T989 1925Q989 1959 1013 1983T1071 2007Q1106 2007 1129 1983T1153 1925ZM619 0Q678 0 733 28T839 106T935 225T1022 375V422Q1022 547 1031 688T1059 970T1103 1238T1161 1464T1233 1620T1315 1679Q1346 1679 1361 1647T1376 1546Q1376 1475 1364 1366T1326
1127T1263 851T1174 561V498Q1174 309 1203 211T1305 113Q1333 113 1358 131T1409 187T1466 285T1540 430L1551 451L1591 420L1581 399Q1531 299 1492 225T1416 100T1337 25T1243 0Q1143 0 1092 74T1026 289Q985 214 939 152T840 44T730 -26T608 -51Q543 -51 482
-28T374 42T299 163T271 338Q271 448 293 555T350 764T424 964T498 1150T555 1321T578 1475Q578 1518 569 1547T544 1595T505 1620T455 1628Q381 1628 311 1594T178 1503T63 1372T-28 1217T-87 1055T-108 901Q-108 824 -79 786T4 748Q43 748 83 771T160 837T231
937T291 1065L332 1044Q313 998 281 938T203 824T101 733T-26 696Q-68 696 -104 709T-166 750T-206 817T-221 911Q-221 1001 -191 1093T-108 1270T14 1430T162 1560T324 1647T486 1679Q534 1679 573 1664T641 1618T685 1541T701 1434Q701 1360 680 1267T627 1072T558
861T489 646T436 440T414 256Q414 174 435 124T488 46T554 9T619 0ZM1284 1587Q1270 1587 1258 1548T1236 1442T1216 1288T1200 1104T1187 910T1178 723Q1211 836 1236 947T1278 1159T1304 1343T1313 1483Q1313 1532 1306 1559T1284 1587Z" />
<glyph unicode="&#xdd;" glyph-name="Yacute" horiz-adv-x="1479" d="M650 0Q717 0 778 33T894 127T999 268T1092 446Q1096 604 1101 757T1116 1047T1140 1300T1180 1500T1240 1631T1326 1679Q1356 1679 1381 1647T1407 1546Q1407 1482 1398 1388T1369 1180T1320
939T1250 682V627Q1250 491 1248 350T1238 67T1217 -213T1182 -481L1029 -502Q1058 -319 1070 -106T1090 338Q1046 251 996 180T890 57T771 -23T639 -51Q574 -51 513 -30T405 37T330 154T302 328Q302 438 324 546T381 757T455 959T529 1148T586 1321T609 1475Q609
1518 600 1547T575 1595T536 1620T486 1628Q412 1628 342 1594T209 1501T94 1368T3 1210T-56 1046T-77 891Q-77 813 -48 775T35 737Q74 737 114 760T191 826T262 926T322 1055L363 1034Q350 1003 332 966T289 889T234 814T169 749T92 703T5 686Q-37 686 -73 699T-135
740T-175 807T-190 901Q-190 991 -160 1084T-77 1263T45 1425T193 1557T355 1646T517 1679Q565 1679 604 1664T672 1618T716 1541T732 1434Q732 1360 711 1267T658 1069T589 855T520 638T467 431T445 246Q445 164 466 115T519 41T585 8T650 0ZM1315 1587Q1293 1587
1280 1551T1259 1448T1250 1288T1248 1083V862Q1271 956 1289 1047T1319 1220T1337 1368T1344 1483Q1344 1532 1337 1559T1315 1587ZM881 1831L1074 2031L1178 1929L908 1788L881 1831Z" />
<glyph unicode="&#xde;" glyph-name="Thorn" horiz-adv-x="1197" d="M544 137Q544 58 534 -5T498 -112T427 -179T310 -203Q239 -203 181 -156T79 -23T13 178T-11 432Q-11 562 14 683T87 911T204 1106T360 1260Q355 1343 352 1415T346 1542Q343 1605 341 1659Q341
1658 344 1661T355 1669T374 1677T401 1681Q423 1681 442 1678T476 1668T498 1647T507 1614Q507 1572 508 1500T515 1348Q580 1374 650 1388T798 1403Q901 1403 989 1374T1142 1290T1242 1153T1279 965Q1279 837 1226 735T1077 559T845 443T546 395Q546 392 546
369T545 309T545 227T544 137ZM747 1341Q687 1341 629 1328T517 1286Q520 1206 523 1120T528 948T533 783T538 637T542 521T544 446Q674 451 777 494T954 607T1066 770T1105 965Q1105 1072 1077 1144T1001 1260T887 1322T747 1341ZM351 461Q356 459 363 457Q369
455 378 453T399 449L364 1176Q305 1115 257 1032T174 843T121 609T102 330Q102 273 108 216T127 105T157 4T198 -77T248 -132T308 -152Q343 -152 363 -137T395 -89T409 -6T413 115Q413 153 412 197T410 280T406 351T403 397Q388 399 377 402T358 407Q349 410 343
412L351 461Z" />
<glyph unicode="&#xdf;" glyph-name="germandbls" horiz-adv-x="838" d="M121 0Q121 -69 105 -111T61 -176T-7 -207T-92 -215V-164Q-54 -164 -33 -125T-12 0V872Q-12 1006 8 1101T70 1256T172 1344T317 1372Q367 1372 416 1357T503 1313T566 1240T590 1139Q590
1085 567 1042T510 966T436 906T361 858T304 820T281 788Q281 768 316 751T404 714T518 666T633 597T721 498T756 358Q756 281 733 216T666 102T561 27T424 0Q370 0 328 17T255 64T209 131T193 209Q193 249 208 283T250 342T311 381T383 395Q408 395 432 389V360Q400
360 376 349T336 320T313 277T305 225Q305 187 313 155T337 100T378 64T436 51Q477 51 513 65T575 106T617 169T633 252Q633 334 602 393T524 497T423 576T322 642T244 705T213 778Q213 814 232 837T280 878T342 913T404 956T452 1019T471 1116Q471 1170 456 1209T417
1272T364 1309T305 1321Q251 1321 216 1301T159 1237T130 1129T121 975V0Z" />
<glyph unicode="&#xe0;" glyph-name="agrave" horiz-adv-x="874" d="M606 248Q606 191 616 152T651 113Q666 113 683 127T724 175T776 260T844 389L874 451L915 420L885 358Q843 274 807 208T737 95T673 25T610 0Q577 0 555 18T517 67T494 140T483 229Q459 181
430 140T370 67T304 18T236 0Q186 0 139 21T56 85T-3 193T-25 348Q-25 452 2 538T75 687T181 784T307 819Q347 819 381 801T440 758T483 704T506 655L518 752Q520 771 536 784T573 804T612 815T639 819Q651 819 655 815T659 799Q659 784 651 739T633 623T615 457T606
248ZM496 512Q496 558 482 602T444 681T389 737T322 758Q279 758 242 734T177 665T133 558T117 420Q117 270 164 192T289 113Q323 113 359 140T426 219T476 345T496 512ZM457 891L252 1116L385 1178L498 922L457 891Z" />
<glyph unicode="&#xe1;" glyph-name="aacute" horiz-adv-x="874" d="M606 248Q606 191 616 152T651 113Q666 113 683 127T724 175T776 260T844 389L874 451L915 420L885 358Q843 274 807 208T737 95T673 25T610 0Q577 0 555 18T517 67T494 140T483 229Q459 181
430 140T370 67T304 18T236 0Q186 0 139 21T56 85T-3 193T-25 348Q-25 452 2 538T75 687T181 784T307 819Q347 819 381 801T440 758T483 704T506 655L518 752Q520 771 536 784T573 804T612 815T639 819Q651 819 655 815T659 799Q659 784 651 739T633 623T615 457T606
248ZM496 512Q496 558 482 602T444 681T389 737T322 758Q279 758 242 734T177 665T133 558T117 420Q117 270 164 192T289 113Q323 113 359 140T426 219T476 345T496 512ZM248 971L441 1171L545 1069L275 928L248 971Z" />
<glyph unicode="&#xe2;" glyph-name="acircumflex" horiz-adv-x="874" d="M606 248Q606 191 616 152T651 113Q666 113 683 127T724 175T776 260T844 389L874 451L915 420L885 358Q843 274 807 208T737 95T673 25T610 0Q577 0 555 18T517 67T494 140T483 229Q459
181 430 140T370 67T304 18T236 0Q186 0 139 21T56 85T-3 193T-25 348Q-25 452 2 538T75 687T181 784T307 819Q347 819 381 801T440 758T483 704T506 655L518 752Q520 771 536 784T573 804T612 815T639 819Q651 819 655 815T659 799Q659 784 651 739T633 623T615
457T606 248ZM496 512Q496 558 482 602T444 681T389 737T322 758Q279 758 242 734T177 665T133 558T117 420Q117 270 164 192T289 113Q323 113 359 140T426 219T476 345T496 512ZM372 1178L638 983L608 942L372 1065L137 942L106 983L372 1178Z" />
<glyph unicode="&#xe3;" glyph-name="atilde" horiz-adv-x="874" d="M606 248Q606 191 616 152T651 113Q666 113 683 127T724 175T776 260T844 389L874 451L915 420L885 358Q843 274 807 208T737 95T673 25T610 0Q577 0 555 18T517 67T494 140T483 229Q459 181
430 140T370 67T304 18T236 0Q186 0 139 21T56 85T-3 193T-25 348Q-25 452 2 538T75 687T181 784T307 819Q347 819 381 801T440 758T483 704T506 655L518 752Q520 771 536 784T573 804T612 815T639 819Q651 819 655 815T659 799Q659 784 651 739T633 623T615 457T606
248ZM496 512Q496 558 482 602T444 681T389 737T322 758Q279 758 242 734T177 665T133 558T117 420Q117 270 164 192T289 113Q323 113 359 140T426 219T476 345T496 512ZM111 983Q116 1029 133 1065Q147 1096 175 1121T254 1147Q285 1147 317 1138T382 1116T447
1095T510 1085Q533 1085 547 1094T569 1116Q578 1129 582 1147H623Q618 1101 601 1065Q587 1034 558 1009T480 983Q449 983 417 992T351 1013T286 1034T224 1044Q201 1044 187 1034T165 1013Q156 1000 152 983H111Z" />
<glyph unicode="&#xe4;" glyph-name="adieresis" horiz-adv-x="874" d="M606 248Q606 191 616 152T651 113Q666 113 683 127T724 175T776 260T844 389L874 451L915 420L885 358Q843 274 807 208T737 95T673 25T610 0Q577 0 555 18T517 67T494 140T483 229Q459
181 430 140T370 67T304 18T236 0Q186 0 139 21T56 85T-3 193T-25 348Q-25 452 2 538T75 687T181 784T307 819Q347 819 381 801T440 758T483 704T506 655L518 752Q520 771 536 784T573 804T612 815T639 819Q651 819 655 815T659 799Q659 784 651 739T633 623T615
457T606 248ZM496 512Q496 558 482 602T444 681T389 737T322 758Q279 758 242 734T177 665T133 558T117 420Q117 270 164 192T289 113Q323 113 359 140T426 219T476 345T496 512ZM354 1065Q354 1030 331 1007T272 983Q238 983 214 1006T190 1065Q190 1099 214 1123T272
1147Q307 1147 330 1123T354 1065ZM620 1065Q620 1030 597 1007T538 983Q504 983 480 1006T456 1065Q456 1099 480 1123T538 1147Q573 1147 596 1123T620 1065Z" />
<glyph unicode="&#xe5;" glyph-name="aring" horiz-adv-x="874" d="M606 248Q606 191 616 152T651 113Q666 113 683 127T724 175T776 260T844 389L874 451L915 420L885 358Q843 274 807 208T737 95T673 25T610 0Q577 0 555 18T517 67T494 140T483 229Q459 181
430 140T370 67T304 18T236 0Q186 0 139 21T56 85T-3 193T-25 348Q-25 452 2 538T75 687T181 784T307 819Q347 819 381 801T440 758T483 704T506 655L518 752Q520 771 536 784T573 804T612 815T639 819Q651 819 655 815T659 799Q659 784 651 739T633 623T615 457T606
248ZM496 512Q496 558 482 602T444 681T389 737T322 758Q279 758 242 734T177 665T133 558T117 420Q117 270 164 192T289 113Q323 113 359 140T426 219T476 345T496 512ZM262 1083Q262 1117 275 1147T310 1200T362 1236T426 1249Q460 1249 489 1236T541 1201T577
1148T590 1083Q590 1050 577 1021T542 970T490 935T426 922Q392 922 363 935T311 969T275 1020T262 1083ZM323 1085Q323 1064 331 1046T354 1013T386 991T426 983Q447 983 465 991T498 1013T520 1045T528 1085Q528 1106 520 1124T498 1157T466 1180T426 1188Q405
1188 387 1180T354 1158T332 1125T323 1085Z" />
<glyph unicode="&#xe6;" glyph-name="ae" horiz-adv-x="1157" d="M639 778Q639 770 637 754T631 709Q679 761 736 790T856 819Q894 819 921 808T965 781T989 745T997 707Q997 670 979 634T932 563T864 497T786 437T707 385T635 342Q637 288 644 243T668 164T712
111T780 92Q815 92 861 113T956 176T1055 282T1147 430L1157 451L1198 420L1188 399Q1134 292 1071 216T945 92T822 22T717 0Q670 0 636 14T577 53T539 114T516 190Q491 151 460 117T394 56T319 15T236 0Q186 0 139 21T56 85T-3 193T-25 348Q-25 452 2 538T73 687T174
784T289 819Q337 819 374 804T439 768T483 721T506 676V752Q506 771 518 784T547 804T580 815T604 819Q624 819 631 810T639 778ZM504 512Q504 558 489 602T449 681T390 737T322 758Q279 758 242 734T177 665T133 558T117 420Q117 370 126 316T157 217T213 143T297
113Q335 113 365 126T417 158T455 201T481 246T495 284T500 307Q500 349 502 401T504 512ZM893 666Q893 704 872 731T807 758Q778 758 748 737T693 674T651 568T635 418V393Q669 412 714 442T798 508T865 584T893 666Z" />
<glyph unicode="&#xe7;" glyph-name="ccedilla" horiz-adv-x="635" d="M334 571Q346 590 354 618T363 674Q363 708 346 733T285 758Q256 758 226 737T171 674T129 568T113 418Q113 350 127 294T168 198T233 136T320 113Q355 113 391 131T465 187T543 285T625 430L635
451L676 420L666 399Q618 304 571 234T477 115T386 40T299 4V-25Q383 -25 423 -48T463 -109Q463 -131 448 -157T402 -209T327 -258T221 -297L207 -250Q289 -221 325 -196T361 -156Q361 -139 331 -129T248 -119V0Q185 2 136 30T52 104T0 210T-18 338Q-18 446 11
534T88 686T194 784T313 819Q359 819 390 806T440 773T467 730T475 686Q475 665 466 643T440 601T398 566T344 543L334 571Z" />
<glyph unicode="&#xe8;" glyph-name="egrave" horiz-adv-x="606" d="M295 113Q330 113 366 131T440 187T518 285T600 430L610 451L651 420L641 399Q587 292 534 216T429 92T327 22T231 0Q166 0 115 27T29 100T-24 208T-43 338Q-43 446 -14 534T65 686T178 784T309
819Q378 819 414 784T451 696Q451 645 422 601T344 514T229 430T92 344Q99 292 116 250T159 177T219 130T295 113ZM326 666Q326 706 305 729T252 752Q226 752 197 734T144 675T104 571T88 418V395Q122 413 163 442T241 508T301 584T326 666ZM303 891L98 1116L231
1178L344 922L303 891Z" />
<glyph unicode="&#xe9;" glyph-name="eacute" horiz-adv-x="606" d="M295 113Q330 113 366 131T440 187T518 285T600 430L610 451L651 420L641 399Q587 292 534 216T429 92T327 22T231 0Q166 0 115 27T29 100T-24 208T-43 338Q-43 446 -14 534T65 686T178 784T309
819Q378 819 414 784T451 696Q451 645 422 601T344 514T229 430T92 344Q99 292 116 250T159 177T219 130T295 113ZM326 666Q326 706 305 729T252 752Q226 752 197 734T144 675T104 571T88 418V395Q122 413 163 442T241 508T301 584T326 666ZM133 971L326 1171L430
1069L160 928L133 971Z" />
<glyph unicode="&#xea;" glyph-name="ecircumflex" horiz-adv-x="606" d="M295 113Q330 113 366 131T440 187T518 285T600 430L610 451L651 420L641 399Q587 292 534 216T429 92T327 22T231 0Q166 0 115 27T29 100T-24 208T-43 338Q-43 446 -14 534T65 686T178
784T309 819Q378 819 414 784T451 696Q451 645 422 601T344 514T229 430T92 344Q99 292 116 250T159 177T219 130T295 113ZM326 666Q326 706 305 729T252 752Q226 752 197 734T144 675T104 571T88 418V395Q122 413 163 442T241 508T301 584T326 666ZM272 1178L538
983L508 942L272 1065L37 942L6 983L272 1178Z" />
<glyph unicode="&#xeb;" glyph-name="edieresis" horiz-adv-x="606" d="M295 113Q330 113 366 131T440 187T518 285T600 430L610 451L651 420L641 399Q587 292 534 216T429 92T327 22T231 0Q166 0 115 27T29 100T-24 208T-43 338Q-43 446 -14 534T65 686T178 784T309
819Q378 819 414 784T451 696Q451 645 422 601T344 514T229 430T92 344Q99 292 116 250T159 177T219 130T295 113ZM326 666Q326 706 305 729T252 752Q226 752 197 734T144 675T104 571T88 418V395Q122 413 163 442T241 508T301 584T326 666ZM232 1065Q232 1030
209 1007T150 983Q116 983 92 1006T68 1065Q68 1099 92 1123T150 1147Q185 1147 208 1123T232 1065ZM498 1065Q498 1030 475 1007T416 983Q382 983 358 1006T334 1065Q334 1099 358 1123T416 1147Q451 1147 474 1123T498 1065Z" />
<glyph unicode="&#xec;" glyph-name="igrave" horiz-adv-x="494" d="M266 891L61 1116L194 1178L307 922L266 891ZM51 440L31 399L-10 430L0 451Q25 502 41 553T68 650T86 729T100 778Q106 790 117 797T141 810T165 817T182 819Q204 819 211 810T219 778Q219 767
215 724T205 615T195 468T190 299Q190 236 196 200T211 145T232 122T256 117Q272 117 292 131T339 180T401 276T483 430L494 451L535 420L524 399Q486 325 449 253T374 125T295 35T211 0Q173 0 145 16T97 71T69 171T59 326Q59 352 59 380T61 440H51Z" />
<glyph unicode="&#xed;" glyph-name="iacute" horiz-adv-x="494" d="M16 971L209 1171L313 1069L43 928L16 971ZM51 440L31 399L-10 430L0 451Q25 502 41 553T68 650T86 729T100 778Q106 790 117 797T141 810T165 817T182 819Q204 819 211 810T219 778Q219 767
215 724T205 615T195 468T190 299Q190 236 196 200T211 145T232 122T256 117Q272 117 292 131T339 180T401 276T483 430L494 451L535 420L524 399Q486 325 449 253T374 125T295 35T211 0Q173 0 145 16T97 71T69 171T59 326Q59 352 59 380T61 440H51Z" />
<glyph unicode="&#xee;" glyph-name="icircumflex" horiz-adv-x="494" d="M51 440L31 399L-10 430L0 451Q25 502 41 553T68 650T86 729T100 778Q106 790 117 797T141 810T165 817T182 819Q204 819 211 810T219 778Q219 767 215 724T205 615T195 468T190 299Q190
236 196 200T211 145T232 122T256 117Q272 117 292 131T339 180T401 276T483 430L494 451L535 420L524 399Q486 325 449 253T374 125T295 35T211 0Q173 0 145 16T97 71T69 171T59 326Q59 352 59 380T61 440H51ZM423 1178L689 983L659 942L423 1065L188 942L157
983L423 1178Z" />
<glyph unicode="&#xef;" glyph-name="idieresis" horiz-adv-x="494" d="M401 1065Q401 1030 378 1007T319 983Q285 983 261 1006T237 1065Q237 1099 261 1123T319 1147Q354 1147 377 1123T401 1065ZM667 1065Q667 1030 644 1007T585 983Q551 983 527 1006T503
1065Q503 1099 527 1123T585 1147Q620 1147 643 1123T667 1065ZM51 440L31 399L-10 430L0 451Q25 502 41 553T68 650T86 729T100 778Q106 790 117 797T141 810T165 817T182 819Q204 819 211 810T219 778Q219 767 215 724T205 615T195 468T190 299Q190 236 196 200T211
145T232 122T256 117Q272 117 292 131T339 180T401 276T483 430L494 451L535 420L524 399Q486 325 449 253T374 125T295 35T211 0Q173 0 145 16T97 71T69 171T59 326Q59 352 59 380T61 440H51Z" />
<glyph unicode="&#xf0;" glyph-name="eth" horiz-adv-x="768" d="M348 799Q307 799 268 774T199 699T151 577T133 410Q133 341 146 276T184 161T245 81T328 51Q373 51 410 79T475 159T517 288T532 461Q532 561 515 657T471 843T408 1013T337 1163Q252 1325 143
1464L184 1495Q320 1356 427 1193Q472 1124 516 1042T594 870T649 681T670 479Q670 372 645 284T573 133T462 35T322 0Q245 0 184 29T79 110T13 233T-10 389Q-10 500 21 584T100 725T209 811T328 840Q361 840 388 833T436 813T475 786T506 755Q536 717 553 670L532
625Q516 673 490 712Q479 728 465 743T433 771T394 791T348 799ZM195 1090L522 1278L553 1225L225 1036L195 1090Z" />
<glyph unicode="&#xf1;" glyph-name="ntilde" horiz-adv-x="809" d="M385 750Q357 750 323 725T253 661T186 572T129 475Q126 387 124 283T121 61Q121 46 108 35T76 16T39 4T8 0Q-7 0 -20 9T-33 49Q-33 64 -30 86T-23 135T-13 188T-2 240V729Q-2 749 -2 760T2
778Q8 792 23 800T55 812T88 818T113 819Q130 819 136 810T143 778Q143 781 139 729T131 580Q161 627 196 670T269 746T347 799T430 819Q505 819 540 772T575 643Q575 592 569 530T554 403T539 277T532 164Q532 98 573 98Q586 98 603 111T647 162T711 263T799 430L809
451L850 420L840 399Q780 279 734 202T649 80T578 18T512 0Q491 0 470 6T433 27T407 67T397 133Q397 193 405 268T423 418T441 559T449 668Q449 705 433 727T385 750ZM14 983Q19 1029 36 1065Q50 1096 78 1121T157 1147Q188 1147 220 1138T285 1116T350 1095T413
1085Q436 1085 450 1094T472 1116Q481 1129 485 1147H526Q521 1101 504 1065Q490 1034 461 1009T383 983Q352 983 320 992T254 1013T189 1034T127 1044Q104 1044 90 1034T68 1013Q59 1000 55 983H14Z" />
<glyph unicode="&#xf2;" glyph-name="ograve" horiz-adv-x="797" d="M838 420L827 399Q793 331 737 291T614 238Q596 187 568 144T503 68T421 18T322 0Q245 0 184 32T79 120T13 250T-10 410Q-10 484 7 544T50 652T108 735T171 794T227 828T266 840L279 805Q238
775 206 721Q178 675 156 599T133 410Q133 341 146 276T184 161T245 81T328 51Q391 51 432 101T494 240Q442 251 395 281T312 355T255 458T233 584Q233 640 247 682T286 753T341 796T408 811Q449 811 492 788T570 718T627 601T649 438Q649 403 645 369T633 303Q681
317 720 348T786 430L797 451L838 420ZM299 592Q299 533 315 484T360 397T425 334T504 299Q509 327 510 357T512 420Q512 491 501 548T472 646T430 709T381 731Q347 731 323 695T299 592ZM357 891L152 1116L285 1178L398 922L357 891Z" />
<glyph unicode="&#xf3;" glyph-name="oacute" horiz-adv-x="797" d="M838 420L827 399Q793 331 737 291T614 238Q596 187 568 144T503 68T421 18T322 0Q245 0 184 32T79 120T13 250T-10 410Q-10 484 7 544T50 652T108 735T171 794T227 828T266 840L279 805Q238
775 206 721Q178 675 156 599T133 410Q133 341 146 276T184 161T245 81T328 51Q391 51 432 101T494 240Q442 251 395 281T312 355T255 458T233 584Q233 640 247 682T286 753T341 796T408 811Q449 811 492 788T570 718T627 601T649 438Q649 403 645 369T633 303Q681
317 720 348T786 430L797 451L838 420ZM299 592Q299 533 315 484T360 397T425 334T504 299Q509 327 510 357T512 420Q512 491 501 548T472 646T430 709T381 731Q347 731 323 695T299 592ZM168 971L361 1171L465 1069L195 928L168 971Z" />
<glyph unicode="&#xf4;" glyph-name="ocircumflex" horiz-adv-x="797" d="M838 420L827 399Q793 331 737 291T614 238Q596 187 568 144T503 68T421 18T322 0Q245 0 184 32T79 120T13 250T-10 410Q-10 484 7 544T50 652T108 735T171 794T227 828T266 840L279 805Q238
775 206 721Q178 675 156 599T133 410Q133 341 146 276T184 161T245 81T328 51Q391 51 432 101T494 240Q442 251 395 281T312 355T255 458T233 584Q233 640 247 682T286 753T341 796T408 811Q449 811 492 788T570 718T627 601T649 438Q649 403 645 369T633 303Q681
317 720 348T786 430L797 451L838 420ZM299 592Q299 533 315 484T360 397T425 334T504 299Q509 327 510 357T512 420Q512 491 501 548T472 646T430 709T381 731Q347 731 323 695T299 592ZM315 1178L581 983L551 942L315 1065L80 942L49 983L315 1178Z" />
<glyph unicode="&#xf5;" glyph-name="otilde" horiz-adv-x="797" d="M838 420L827 399Q793 331 737 291T614 238Q596 187 568 144T503 68T421 18T322 0Q245 0 184 32T79 120T13 250T-10 410Q-10 484 7 544T50 652T108 735T171 794T227 828T266 840L279 805Q238
775 206 721Q178 675 156 599T133 410Q133 341 146 276T184 161T245 81T328 51Q391 51 432 101T494 240Q442 251 395 281T312 355T255 458T233 584Q233 640 247 682T286 753T341 796T408 811Q449 811 492 788T570 718T627 601T649 438Q649 403 645 369T633 303Q681
317 720 348T786 430L797 451L838 420ZM299 592Q299 533 315 484T360 397T425 334T504 299Q509 327 510 357T512 420Q512 491 501 548T472 646T430 709T381 731Q347 731 323 695T299 592ZM55 983Q60 1029 77 1065Q91 1096 119 1121T198 1147Q229 1147 261 1138T326
1116T391 1095T454 1085Q477 1085 491 1094T513 1116Q522 1129 526 1147H567Q562 1101 545 1065Q531 1034 502 1009T424 983Q393 983 361 992T295 1013T230 1034T168 1044Q145 1044 131 1034T109 1013Q100 1000 96 983H55Z" />
<glyph unicode="&#xf6;" glyph-name="odieresis" horiz-adv-x="797" d="M838 420L827 399Q793 331 737 291T614 238Q596 187 568 144T503 68T421 18T322 0Q245 0 184 32T79 120T13 250T-10 410Q-10 484 7 544T50 652T108 735T171 794T227 828T266 840L279 805Q238
775 206 721Q178 675 156 599T133 410Q133 341 146 276T184 161T245 81T328 51Q391 51 432 101T494 240Q442 251 395 281T312 355T255 458T233 584Q233 640 247 682T286 753T341 796T408 811Q449 811 492 788T570 718T627 601T649 438Q649 403 645 369T633 303Q681
317 720 348T786 430L797 451L838 420ZM299 592Q299 533 315 484T360 397T425 334T504 299Q509 327 510 357T512 420Q512 491 501 548T472 646T430 709T381 731Q347 731 323 695T299 592ZM270 1065Q270 1030 247 1007T188 983Q154 983 130 1006T106 1065Q106 1099
130 1123T188 1147Q223 1147 246 1123T270 1065ZM536 1065Q536 1030 513 1007T454 983Q420 983 396 1006T372 1065Q372 1099 396 1123T454 1147Q489 1147 512 1123T536 1065Z" />
<glyph unicode="&#xf7;" glyph-name="divide" horiz-adv-x="850" d="M332 349Q332 368 339 385T358 414T388 434T424 441Q443 441 460 434T489 415T509 385T516 349Q516 329 509 313T490 283T460 263T424 256Q405 256 388 263T359 283T339 312T332 349ZM332 820Q332
839 339 856T358 885T388 905T424 912Q443 912 460 905T489 886T509 856T516 820Q516 800 509 784T490 754T460 734T424 727Q405 727 388 734T359 754T339 783T332 820ZM123 614H727V532H123V614Z" />
<glyph unicode="&#xf8;" glyph-name="oslash" horiz-adv-x="797" d="M838 420L827 399Q793 331 737 291T614 238Q596 187 568 144T503 68T421 18T322 0Q306 0 293 0T266 4L223 -154L152 -135L195 27Q147 49 109 87T44 175T4 285T-10 410Q-10 484 7 544T50 652T108
735T171 794T227 828T266 840L279 805Q238 775 206 721Q178 675 156 599T133 410Q133 341 146 276T184 161T245 81T328 51Q391 51 432 101T494 240Q442 251 395 281T312 355T255 458T233 584Q233 639 247 681T284 751T339 795T406 811L444 956L516 936L477 795Q510
780 541 750T596 675T634 571T649 438Q649 403 645 369T633 303Q681 317 720 348T786 430L797 451L838 420ZM299 592Q299 533 315 484T360 397T425 334T504 299Q509 327 510 357T512 420Q512 491 501 548T472 646T430 709T381 731Q347 731 323 695T299 592Z" />
<glyph unicode="&#xf9;" glyph-name="ugrave" horiz-adv-x="809" d="M410 217Q405 209 396 190T372 146T338 96T293 49T238 14T170 0Q141 0 110 12T53 56T9 143T-8 287Q-8 371 -2 455T12 610T29 727T41 784Q45 793 57 800T84 811T116 817T145 819Q161 819 170
811T180 784Q180 775 177 749T168 684T158 600T147 507T139 413T135 328Q135 219 158 166T236 113Q282 113 329 180T412 375Q417 429 421 490T430 607T437 707T444 770Q447 784 460 793T489 808T521 816T545 819Q562 819 568 812T575 788Q575 774 573 735T567 643T559
530T552 415T546 314T543 246Q543 178 550 139T584 100Q603 100 625 124T674 193T732 297T799 430L809 451L850 420L840 399Q792 304 756 230T686 104T619 27T543 0Q504 0 479 15T438 58T417 126T410 217ZM328 891L123 1116L256 1178L369 922L328 891Z" />
<glyph unicode="&#xfa;" glyph-name="uacute" horiz-adv-x="809" d="M410 217Q405 209 396 190T372 146T338 96T293 49T238 14T170 0Q141 0 110 12T53 56T9 143T-8 287Q-8 371 -2 455T12 610T29 727T41 784Q45 793 57 800T84 811T116 817T145 819Q161 819 170
811T180 784Q180 775 177 749T168 684T158 600T147 507T139 413T135 328Q135 219 158 166T236 113Q282 113 329 180T412 375Q417 429 421 490T430 607T437 707T444 770Q447 784 460 793T489 808T521 816T545 819Q562 819 568 812T575 788Q575 774 573 735T567 643T559
530T552 415T546 314T543 246Q543 178 550 139T584 100Q603 100 625 124T674 193T732 297T799 430L809 451L850 420L840 399Q792 304 756 230T686 104T619 27T543 0Q504 0 479 15T438 58T417 126T410 217ZM236 971L429 1171L533 1069L263 928L236 971Z" />
<glyph unicode="&#xfb;" glyph-name="ucircumflex" horiz-adv-x="809" d="M410 217Q405 209 396 190T372 146T338 96T293 49T238 14T170 0Q141 0 110 12T53 56T9 143T-8 287Q-8 371 -2 455T12 610T29 727T41 784Q45 793 57 800T84 811T116 817T145 819Q161 819
170 811T180 784Q180 775 177 749T168 684T158 600T147 507T139 413T135 328Q135 219 158 166T236 113Q282 113 329 180T412 375Q417 429 421 490T430 607T437 707T444 770Q447 784 460 793T489 808T521 816T545 819Q562 819 568 812T575 788Q575 774 573 735T567
643T559 530T552 415T546 314T543 246Q543 178 550 139T584 100Q603 100 625 124T674 193T732 297T799 430L809 451L850 420L840 399Q792 304 756 230T686 104T619 27T543 0Q504 0 479 15T438 58T417 126T410 217ZM321 1178L587 983L557 942L321 1065L86 942L55
983L321 1178Z" />
<glyph unicode="&#xfc;" glyph-name="udieresis" horiz-adv-x="809" d="M410 217Q405 209 396 190T372 146T338 96T293 49T238 14T170 0Q141 0 110 12T53 56T9 143T-8 287Q-8 371 -2 455T12 610T29 727T41 784Q45 793 57 800T84 811T116 817T145 819Q161 819 170
811T180 784Q180 775 177 749T168 684T158 600T147 507T139 413T135 328Q135 219 158 166T236 113Q282 113 329 180T412 375Q417 429 421 490T430 607T437 707T444 770Q447 784 460 793T489 808T521 816T545 819Q562 819 568 812T575 788Q575 774 573 735T567 643T559
530T552 415T546 314T543 246Q543 178 550 139T584 100Q603 100 625 124T674 193T732 297T799 430L809 451L850 420L840 399Q792 304 756 230T686 104T619 27T543 0Q504 0 479 15T438 58T417 126T410 217ZM260 1065Q260 1030 237 1007T178 983Q144 983 120 1006T96
1065Q96 1099 120 1123T178 1147Q213 1147 236 1123T260 1065ZM526 1065Q526 1030 503 1007T444 983Q410 983 386 1006T362 1065Q362 1099 386 1123T444 1147Q479 1147 502 1123T526 1065Z" />
<glyph unicode="&#xfd;" glyph-name="yacute" horiz-adv-x="795" d="M63 791Q67 801 82 807T114 815T146 818T166 819Q181 819 185 812T190 788Q190 780 185 753T173 684T157 591T141 484T128 373T123 266Q123 179 152 136T219 92Q285 92 336 189T442 473V764Q442
781 457 791T493 808T532 816T559 819Q590 819 590 788Q590 777 589 752T585 692T582 616T580 532V125Q598 148 625 186T682 267T739 353T784 430L795 451L836 420L825 399Q804 357 775 312T714 222T647 132T580 47V-174Q580 -266 564 -330T518 -435T450 -494T365
-512Q336 -512 312 -503T269 -477T241 -435T231 -379Q231 -334 247 -289T293 -196T362 -98T446 8V311Q421 243 392 186T329 87T256 23T172 0Q140 0 107 10T45 49T-2 124T-20 246Q-20 330 -10 417T13 579T41 710T63 791ZM354 -451Q370 -451 386 -445T416 -415T437
-347T446 -225V-74Q412 -116 384 -155T334 -232T301 -305T289 -373Q289 -404 306 -427T354 -451ZM248 971L441 1171L545 1069L275 928L248 971Z" />
<glyph unicode="&#xfe;" glyph-name="thorn" horiz-adv-x="772" d="M125 631Q142 668 166 702T221 762T290 803T373 819Q433 819 478 791T555 715T602 605T618 475Q618 372 598 290T543 145Q597 186 652 254T762 430L772 451L813 420L803 399Q757 307 702 233T585
108T456 28T319 0Q258 0 206 27T125 94V-379Q125 -417 121 -442T107 -483T77 -505T27 -512Q4 -512 -5 -505T-14 -481Q-14 -474 -12 -456T-8 -402T-4 -306T-2 -154V1171Q-2 1181 6 1191T29 1210T60 1223T94 1229Q111 1229 121 1220T131 1188Q131 1169 128 1116T125
991V631ZM319 731Q277 731 242 702T181 628T141 527T127 420V305Q127 251 141 207T180 132T236 85T305 68Q390 68 433 156T477 432Q477 496 468 551T440 646T391 708T319 731Z" />
<glyph unicode="&#xff;" glyph-name="ydieresis" horiz-adv-x="795" d="M63 791Q67 801 82 807T114 815T146 818T166 819Q181 819 185 812T190 788Q190 780 185 753T173 684T157 591T141 484T128 373T123 266Q123 179 152 136T219 92Q285 92 336 189T442 473V764Q442
781 457 791T493 808T532 816T559 819Q590 819 590 788Q590 777 589 752T585 692T582 616T580 532V125Q598 148 625 186T682 267T739 353T784 430L795 451L836 420L825 399Q804 357 775 312T714 222T647 132T580 47V-174Q580 -266 564 -330T518 -435T450 -494T365
-512Q336 -512 312 -503T269 -477T241 -435T231 -379Q231 -334 247 -289T293 -196T362 -98T446 8V311Q421 243 392 186T329 87T256 23T172 0Q140 0 107 10T45 49T-2 124T-20 246Q-20 330 -10 417T13 579T41 710T63 791ZM354 -451Q370 -451 386 -445T416 -415T437
-347T446 -225V-74Q412 -116 384 -155T334 -232T301 -305T289 -373Q289 -404 306 -427T354 -451ZM281 1065Q281 1030 258 1007T199 983Q165 983 141 1006T117 1065Q117 1099 141 1123T199 1147Q234 1147 257 1123T281 1065ZM547 1065Q547 1030 524 1007T465 983Q431
983 407 1006T383 1065Q383 1099 407 1123T465 1147Q500 1147 523 1123T547 1065Z" />
<glyph unicode="&#x2013;" glyph-name="endash" horiz-adv-x="799" d="M123 614H676V532H123V614Z" />
<glyph unicode="&#x2014;" glyph-name="emdash" horiz-adv-x="1167" d="M123 614H1044V532H123V614Z" />
<glyph unicode="&#x2018;" glyph-name="quoteleft" horiz-adv-x="358" d="M184 1055Q161 1055 141 1064T105 1089T81 1128T72 1178Q72 1232 96 1276T150 1352Q184 1389 229 1419L258 1393Q249 1384 236 1370T212 1340T192 1306T184 1270Q184 1255 198 1245T230
1224T261 1195T276 1147Q276 1128 269 1111T250 1082T220 1062T184 1055Z" />
<glyph unicode="&#x2019;" glyph-name="quoteright" horiz-adv-x="0" d="M76 1407Q99 1407 118 1398T151 1371T172 1331T180 1282Q180 1230 157 1186T107 1110Q75 1072 35 1040L6 1067Q15 1073 27 1086T50 1117T68 1153T76 1190Q76 1202 61 1210T28 1231T-5 1261T-20
1313Q-20 1332 -12 1349T9 1379T40 1399T76 1407Z" />
<glyph unicode="&#x201a;" glyph-name="quotesinglbase" horiz-adv-x="358" d="M174 215Q221 215 248 180T276 92Q276 40 253 -4T203 -80Q171 -118 131 -150L102 -123Q111 -117 123 -104T146 -73T164 -37T172 0Q172 12 158 20T127 41T96 71T82 123Q82 142 89 159T108
188T138 208T174 215Z" />
<glyph unicode="&#x201c;" glyph-name="quotedblleft" horiz-adv-x="604" d="M180 1042Q135 1042 109 1075T82 1155Q82 1193 96 1226T131 1286T177 1333T223 1368T257 1390T270 1397L293 1366Q284 1362 269 1351T240 1323T214 1289T203 1253Q203 1243 215 1234T241
1212T267 1182T279 1139Q279 1117 271 1099T249 1069T217 1049T180 1042ZM426 1040Q403 1040 384 1050T351 1077T330 1116T322 1165Q322 1217 344 1261T394 1338Q426 1376 467 1407L496 1380Q487 1374 475 1361T452 1331T434 1294T426 1257Q426 1245 441 1237T474
1217T507 1187T522 1135Q522 1115 514 1098T493 1068T462 1048T426 1040Z" />
<glyph unicode="&#x201d;" glyph-name="quotedblright" horiz-adv-x="604" d="M420 1403Q465 1403 493 1371T522 1292Q522 1254 508 1221T473 1162T427 1115T381 1080T347 1058T334 1051L311 1081Q320 1085 334 1097T363 1125T388 1159T399 1194Q399 1204 388
1213T363 1236T338 1266T326 1309Q326 1352 354 1377T420 1403ZM178 1407Q201 1407 220 1398T254 1371T275 1331T283 1282Q283 1230 260 1186T210 1110Q177 1072 137 1040L109 1067Q118 1073 130 1086T152 1117T170 1153T178 1190Q178 1202 163 1210T130 1231T97
1261T82 1313Q82 1332 90 1349T111 1379T142 1399T178 1407Z" />
<glyph unicode="&#x201e;" glyph-name="quotedblbase" horiz-adv-x="604" d="M424 215Q469 215 495 182T522 102Q522 64 508 31T473 -28T427 -75T381 -110T347 -132T334 -139L311 -109Q320 -105 335 -93T364 -65T390 -31T401 4Q401 14 390 23T364 46T338 76T326
119Q326 140 334 158T355 188T387 208T424 215ZM178 217Q201 217 220 208T254 181T275 141T283 92Q283 40 260 -4T210 -80Q177 -118 137 -150L109 -123Q118 -117 130 -104T152 -73T170 -37T178 0Q178 12 163 20T130 41T97 71T82 123Q82 142 90 159T111 189T142
209T178 217Z" />
<glyph unicode="&#x2022;" glyph-name="bullet" horiz-adv-x="573" d="M123 481Q123 515 136 545T171 597T223 633T287 647Q321 647 350 634T402 598T438 545T451 481Q451 448 438 419T403 367T351 332T287 319Q253 319 224 332T172 367T136 418T123 481Z" />
<glyph unicode="&#x2039;" glyph-name="guilsinglleft" horiz-adv-x="799" d="M678 51L637 0L123 461L637 922L678 870L289 461L678 51Z" />
<glyph unicode="&#x203a;" glyph-name="guilsinglright" horiz-adv-x="799" d="M512 461L123 870L164 922L678 461L164 0L123 51L512 461Z" />
</font>
</defs>
</svg>
