<?xml version="1.0" standalone="no"?>
<!DOCTYPE svg PUBLIC "-//W3C//DTD SVG 1.1//EN" "http://www.w3.org/Graphics/SVG/1.1/DTD/svg11.dtd">
<svg xmlns="http://www.w3.org/2000/svg">
<defs >
<font id="Trirong" horiz-adv-x="640" ><font-face
    font-family="Trirong"
    units-per-em="1000"
    panose-1="0 0 8 0 0 0 0 0 0 0"
    ascent="1200"
    descent="-534"
    alphabetic="0" />
<glyph unicode=" " glyph-name="space" horiz-adv-x="263" />
<glyph unicode="!" glyph-name="exclam" horiz-adv-x="355" d="M97 613L96 629Q96 710 177 710Q224 710 241 687T258 629L257 613L209 169H145L97 613ZM145 -10T126 9T106 62Q106 95 125 114T178 134Q211 134 230 115T250 62Q250 29 231 10T178 -10Q145 -10 126 9Z" />
<glyph unicode="&quot;" glyph-name="quotedbl" horiz-adv-x="466" d="M55 637V642Q55 679 69 698T125 717Q166 717 181 698T196 643V637L149 416H99L55 637ZM270 637V642Q270 679 284 698T340 717Q381 717 396 698T411 643V637L364 416H314L270 637Z" />
<glyph unicode="#" glyph-name="numbersign" horiz-adv-x="872" d="M677 459L623 233H779V183H611L564 -10H461L508 183H286L239 -10H136L182 183H29V233H194L248 459H92V509H260L303 687H407L364 509H586L629 687H732L689 509H843V459H677ZM574 459H352L298 233H520L574
459Z" />
<glyph unicode="$" glyph-name="dollar" horiz-adv-x="601" d="M572 108T507 55T338 -8V-98H291V-10Q209 -9 141 17T39 85L54 231H91Q103 195 112 98Q137 72 174 57T255 42Q321 42 366 76T412 174Q412 213 391 239T339 282T252 319Q186 344 146 366T77 428T49
530Q49 614 114 659T291 710V785H338V710Q409 707 459 690T547 637L533 500H496Q479 549 473 621Q452 639 419 648T347 658Q283 658 246 633T208 555Q208 526 226 506T272 471T349 438Q420 410 464 385T540 313T572 195Q572 108 507 55Z" />
<glyph unicode="%" glyph-name="percent" horiz-adv-x="954" d="M146 -12L758 731L801 696L186 -45L146 -12ZM126 315T76 365T26 507Q26 597 76 647T230 698Q335 698 385 648T435 507Q435 415 385 365T230 315Q126 315 76 365ZM269 364T287 407T305 507Q305 562
287 605T230 649Q192 649 174 605T155 507Q155 452 173 408T230 364Q269 364 287 407ZM619 -11T569 39T519 181Q519 271 569 321T723 372Q828 372 878 322T928 181Q928 90 878 40T723 -11Q619 -11 569 39ZM762 38T780 82T798 181Q798 236 780 280T723 324Q685 324
667 280T648 181Q648 126 666 82T723 38Q762 38 780 82Z" />
<glyph unicode="&amp;" glyph-name="ampersand" horiz-adv-x="766" d="M568 0Q553 13 538 30Q538 30 521 47Q423 -10 304 -10Q225 -10 165 12T70 75T36 174Q36 249 82 297T212 390Q129 505 129 565Q129 638 182 674T319 710Q494 710 494 585Q494 550 476 522T432
474T353 417Q413 343 588 161Q618 199 636 243T659 333H715Q709 276 685 223T621 126L744 0H568ZM272 553T285 522T328 450Q378 479 405 510T433 582Q433 621 412 641T353 661Q317 661 295 642T272 581Q272 553 285 522ZM189 133T208 103T258 57T323 42Q415 42
488 80Q329 241 253 337Q189 268 189 177Q189 133 208 103Z" />
<glyph unicode="&apos;" glyph-name="quotesingle" horiz-adv-x="252" d="M55 637V642Q55 679 69 698T125 717Q166 717 181 698T196 643V637L149 416H99L55 637Z" />
<glyph unicode="(" glyph-name="parenleft" horiz-adv-x="272" d="M36 68T36 310Q36 553 187 730H247Q202 665 182 600T157 469T152 288Q152 137 172 51T247 -109H187Q36 68 36 310Z" />
<glyph unicode=")" glyph-name="parenright" horiz-adv-x="272" d="M69 -47T89 19T115 153T120 330Q120 482 100 568T25 730H85Q236 553 236 310Q236 68 85 -109H25Q69 -47 89 19Z" />
<glyph unicode="*" glyph-name="asterisk" horiz-adv-x="542" d="M138 324T125 336T112 367Q112 391 148 419L228 480L112 505Q92 510 81 522T70 555Q70 573 80 584T108 596Q128 596 141 589L250 526Q223 614 223 655Q223 676 235 689T271 702Q295 702 307 689T319
655Q319 614 292 526L401 589Q414 596 434 596Q451 596 461 585T472 555Q472 535 461 523T430 505L314 480L394 419Q430 391 430 367Q430 348 417 336T387 324Q356 324 334 351T285 430Q282 435 279 442T271 456Q267 449 264 442T257 430Q230 378 208 351T155 324Q138
324 125 336Z" />
<glyph unicode="+" glyph-name="plus" horiz-adv-x="608" d="M228 276H40V349H228V540H380V349H568V276H380V85H228V276Z" />
<glyph unicode="," glyph-name="comma" horiz-adv-x="267" d="M60 -114Q83 -90 102 -60T126 0H121Q111 0 103 3Q79 7 65 25T50 67Q50 101 70 124T128 148Q171 148 192 122T213 60Q213 5 183 -53T108 -151L60 -114Z" />
<glyph unicode="-" glyph-name="hyphen" horiz-adv-x="451" d="M47 322H404V240H47V322Z" />
<glyph unicode="." glyph-name="period" horiz-adv-x="267" d="M96 -10T74 13T52 71Q52 106 74 129T133 152Q170 152 192 129T214 71Q214 36 192 13T133 -10Q96 -10 74 13Z" />
<glyph unicode="/" glyph-name="slash" horiz-adv-x="372" d="M290 702H348L82 0H25L290 702Z" />
<glyph unicode="0" glyph-name="zero" horiz-adv-x="631" d="M33 -10T33 350Q33 710 315 710Q463 710 530 616T597 350Q597 178 530 84T315 -10Q33 -10 33 350ZM380 42T408 122T437 350Q437 498 409 578T315 658Q250 658 222 578T193 350Q193 202 221 122T315
42Q380 42 408 122Z" />
<glyph unicode="1" glyph-name="one" horiz-adv-x="631" d="M120 26Q210 45 250 46V622L118 565V630L407 745V45Q465 41 536 27V0H120V26Z" />
<glyph unicode="2" glyph-name="two" horiz-adv-x="631" d="M35 48Q45 98 74 141T139 218T231 296Q288 343 321 375T377 446T400 531Q400 590 367 624T272 658Q224 658 177 640T93 590L66 632Q170 710 299 710Q421 710 490 667T560 530Q560 474 531 429T458 350T345
273Q289 237 258 215T202 164T166 103H508Q511 121 520 147T539 190H578L565 0H35V48Z" />
<glyph unicode="3" glyph-name="three" horiz-adv-x="631" d="M140 -10T50 68L77 109Q111 80 161 61T258 42Q326 42 369 83T412 202Q412 263 378 304T279 346H177V398H279Q318 398 345 418T386 469T400 533Q400 591 367 624T274 658Q225 658 179 641T97 591L69
632Q172 710 301 710Q423 710 493 668T564 537Q564 500 546 466T495 407T423 376V372Q489 358 530 314T571 204Q571 95 492 43T291 -10Q140 -10 50 68Z" />
<glyph unicode="4" glyph-name="four" horiz-adv-x="631" d="M248 24Q317 44 354 44V154H30V226L365 701H511V249H620L604 154H511V45Q561 42 611 24V0H248V24ZM354 249V592H353L117 249H354Z" />
<glyph unicode="5" glyph-name="five" horiz-adv-x="631" d="M204 -10T148 9T45 68L72 109Q107 78 155 60T248 42Q317 42 358 87T400 218Q400 295 371 344T268 393Q180 393 120 311L74 321L122 700H526L519 604H168L139 387Q208 444 314 444Q445 444 502 381T560
219Q560 150 527 99T430 19T277 -10Q204 -10 148 9Z" />
<glyph unicode="6" glyph-name="six" horiz-adv-x="631" d="M44 -10T44 308Q44 510 127 610T363 710Q445 710 489 689T567 632L539 591Q479 658 382 658Q341 658 303 633T235 546T200 379Q216 415 255 437T342 460Q466 460 528 398T590 230Q590 159 559 105T466
20T318 -10Q44 -10 44 308ZM375 42T404 92T433 221Q433 302 404 354T320 406Q271 406 241 356T210 226Q210 151 240 97T321 42Q375 42 404 92Z" />
<glyph unicode="7" glyph-name="seven" horiz-adv-x="631" d="M205 325T421 604H121Q120 600 115 571T96 514H53V700H586V649Q512 580 452 466T357 227T315 0H164Q205 325 421 604Z" />
<glyph unicode="8" glyph-name="eight" horiz-adv-x="631" d="M168 -10T105 47T41 194Q41 260 83 308T191 372V375Q155 383 126 408T79 468T61 537Q61 620 129 665T315 710Q432 710 500 665T569 537Q569 502 552 468T505 409T439 375V372Q504 356 546 308T589
194Q589 105 526 48T315 -10Q168 -10 105 47ZM361 396T387 438T413 540Q413 598 385 628T315 658Q273 658 246 629T218 540Q218 480 243 438T315 396Q361 396 387 438ZM345 42T372 59T416 109T433 191Q433 264 402 304T315 345Q261 345 230 305T198 191Q198 142
214 109T257 59T314 42Q345 42 372 59Z" />
<glyph unicode="9" glyph-name="nine" horiz-adv-x="631" d="M187 -10T143 11T65 67L93 109Q151 42 250 42Q317 42 371 103T432 314Q418 278 378 256T290 233Q167 233 105 297T42 467Q42 538 73 593T166 679T314 710Q589 710 589 392Q589 190 506 90T269 -10Q187
-10 143 11ZM361 288T391 339T422 470Q422 546 392 602T311 658Q258 658 229 606T199 475Q199 394 229 341T312 288Q361 288 391 339Z" />
<glyph unicode=":" glyph-name="colon" horiz-adv-x="267" d="M96 336T74 359T52 417Q52 452 74 475T133 498Q170 498 192 475T214 417Q214 382 192 359T133 336Q96 336 74 359ZM96 -10T74 13T52 71Q52 106 74 129T133 152Q170 152 192 129T214 71Q214 36 192
13T133 -10Q96 -10 74 13Z" />
<glyph unicode=";" glyph-name="semicolon" horiz-adv-x="267" d="M96 336T74 359T52 417Q52 452 74 475T133 498Q170 498 192 475T214 417Q214 382 192 359T133 336Q96 336 74 359ZM60 -114Q83 -90 102 -60T126 0Q93 -3 72 17T50 67Q50 101 70 124T128 148Q171
148 192 122T213 60Q213 5 183 -53T108 -151L60 -114Z" />
<glyph unicode="&lt;" glyph-name="less" horiz-adv-x="608" d="M49 312V351L550 595V515L182 332L550 149V68L49 312Z" />
<glyph unicode="=" glyph-name="equal" horiz-adv-x="608" d="M51 424H556V352H51V424ZM51 225H556V153H51V225Z" />
<glyph unicode="&gt;" glyph-name="greater" horiz-adv-x="608" d="M58 149L425 332L58 515V595L559 351V312L58 68V149Z" />
<glyph unicode="?" glyph-name="question" horiz-adv-x="501" d="M185 204T185 227Q185 272 197 306T225 363T270 418Q303 455 318 481T334 544Q334 599 306 628T208 658Q162 658 124 642T46 592L22 631Q72 671 129 690T258 710Q353 710 415 670T477 546Q477 505
462 475T425 424T366 377Q329 349 307 329T270 278T255 206Q255 190 257 180H189Q185 204 185 227ZM190 -10T171 9T151 62Q151 95 170 114T223 134Q257 134 276 115T296 62Q296 29 277 10T223 -10Q190 -10 171 9Z" />
<glyph unicode="@" glyph-name="at" horiz-adv-x="833" d="M289 -58T204 -10T76 118T33 294Q33 394 80 480T217 618T433 671Q535 671 617 630T746 515T793 346Q793 285 771 233T710 150T619 119Q575 119 552 139T528 200H524Q508 158 469 139T387 119Q297 119
255 166T212 290Q212 343 235 390T307 466T428 496Q527 496 593 456L575 227Q575 201 587 185T627 168Q656 168 681 191T722 255T737 347Q737 427 699 490T593 588T438 624Q332 624 256 580T141 463T101 302Q101 167 180 80T427 -7Q474 -7 535 4T647 40V-14Q592
-35 529 -46T410 -58Q289 -58 204 -10ZM425 169T447 194T474 260L490 426Q479 432 461 435T431 438Q384 438 354 389T324 275Q324 227 342 198T394 169Q425 169 447 194Z" />
<glyph unicode="A" glyph-name="A" horiz-adv-x="777" d="M726 33T770 18V0H457V20Q502 36 537 41L489 178H215L165 39Q196 35 247 16V0H6V21Q28 28 50 34T85 42L332 704H444L692 40Q726 33 770 18ZM471 228L353 562L233 228H471Z" />
<glyph unicode="B" glyph-name="B" horiz-adv-x="643" d="M23 17Q76 38 103 42V660Q69 666 23 681V700H349Q480 700 536 660T593 537Q593 481 561 436T465 373V367Q546 350 584 301T622 194Q622 97 566 49T380 0H23V17ZM324 392Q379 392 407 428T435 528Q435 592
410 621T328 650H260V392H324ZM359 49Q466 49 466 200Q466 270 435 306T346 343H260V49H359Z" />
<glyph unicode="C" glyph-name="C" horiz-adv-x="664" d="M217 -10T128 85T39 350Q39 519 128 614T384 710Q468 710 525 690T624 631L610 485H573Q555 537 548 618Q497 658 424 658Q318 658 259 576T199 350Q199 205 252 124T410 42Q453 42 503 57T597 104L619
62Q579 28 519 9T388 -10Q217 -10 128 85Z" />
<glyph unicode="D" glyph-name="D" horiz-adv-x="716" d="M30 19Q88 38 109 41V660Q81 666 30 682V700H361Q527 700 603 612T680 350Q680 178 604 89T360 0H30V19ZM358 49Q446 49 483 127T520 350Q520 494 483 572T360 650H264V49H358Z" />
<glyph unicode="E" glyph-name="E" horiz-adv-x="660" d="M621 175L602 0H30V18Q72 33 116 40V660Q75 667 30 682V700H603V523H569Q558 541 545 584T530 650H273V375H446Q455 432 467 461H492V239H467Q459 260 454 285T446 325H273V49H536Q538 75 555 116T587 175H621Z" />
<glyph unicode="F" glyph-name="F" horiz-adv-x="613" d="M588 700V523H554Q543 541 530 584T515 650H273V354H446Q455 411 467 440H492V218H467Q459 239 454 264T446 304H273V39Q323 31 360 17V0H30V18Q79 34 116 39V660Q73 667 30 682V700H588Z" />
<glyph unicode="G" glyph-name="G" horiz-adv-x="722" d="M217 -10T126 85T35 350Q35 461 77 542T199 666T392 710Q478 710 547 689T655 631L641 485H604Q586 543 579 618Q554 638 512 648T431 658Q360 658 307 621T224 514T195 350Q195 206 250 124T410 42Q427
42 450 45T491 55V302Q432 316 412 322V341H712V327Q700 320 679 312T643 300V48Q606 21 535 6T389 -10Q217 -10 126 85Z" />
<glyph unicode="H" glyph-name="H" horiz-adv-x="827" d="M734 661T717 658V39Q761 30 796 17V0H483V15Q521 30 534 34T560 40V330H266V38Q302 30 343 17V0H30V19Q88 38 109 41V660Q73 667 30 682V700H343V684Q293 665 281 663T266 659V380H560V661Q527 668 483
682V700H796V680Q734 661 717 658Z" />
<glyph unicode="I" glyph-name="I" horiz-adv-x="380" d="M31 20Q63 29 111 40V660Q89 664 31 681V700H349V680Q337 676 319 672T292 665L268 659V39Q291 35 349 18V0H31V20Z" />
<glyph unicode="J" glyph-name="J" horiz-adv-x="521" d="M148 -10T99 5T18 48L41 86Q63 71 93 61T155 50Q200 50 228 75T256 156V659Q220 664 177 680V700H491V680Q433 661 413 658V163Q413 76 353 33T201 -10Q148 -10 99 5Z" />
<glyph unicode="K" glyph-name="K" horiz-adv-x="805" d="M750 32T799 18V0H577L336 324L267 251V39Q288 36 347 18V0H30V20Q53 27 75 32T110 40V660Q66 669 30 682V700H347V680Q309 668 267 659V337L573 657Q562 662 545 665T521 670Q510 671 493 675V700H725V675Q712
671 702 670Q680 665 670 662T649 651L428 420L712 39Q750 32 799 18Z" />
<glyph unicode="L" glyph-name="L" horiz-adv-x="655" d="M30 18Q78 33 117 39V660Q75 668 37 682V700H353V680Q322 670 274 659V49H533Q535 75 552 116T584 175H617L599 0H30V18Z" />
<glyph unicode="M" glyph-name="M" horiz-adv-x="965" d="M31 17Q74 31 110 38V660Q66 669 30 682V700H274L473 194L691 700H935V682Q919 677 856 658V38Q888 32 935 17V0H620V17Q665 31 699 38V581L479 76H388L172 593V38Q206 31 251 17V0H31V17Z" />
<glyph unicode="N" glyph-name="N" horiz-adv-x="786" d="M31 17Q74 31 110 38V660Q68 668 30 682V700H267L614 189V661Q564 673 535 682V700H756V682Q727 673 677 661V0H597L172 621V38Q206 31 251 17V0H31V17Z" />
<glyph unicode="O" glyph-name="O" horiz-adv-x="766" d="M215 -10T125 85T34 350Q34 519 124 614T383 710Q551 710 641 615T732 350Q732 181 642 86T383 -10Q215 -10 125 85ZM477 42T525 126T573 350Q573 490 525 574T383 658Q288 658 241 574T193 350Q193 209
240 126T383 42Q477 42 525 126Z" />
<glyph unicode="P" glyph-name="P" horiz-adv-x="645" d="M23 20Q46 27 68 32T103 40V660Q67 668 25 681V700H375Q509 700 566 646T624 494Q624 432 599 382T521 301T393 271H260V39Q283 35 341 18V0H23V20ZM352 320Q412 320 440 369T469 496Q469 569 440 609T352
650H260V320H352Z" />
<glyph unicode="Q" glyph-name="Q" horiz-adv-x="766" d="M486 -49T529 -78T639 -112V-159Q504 -148 424 -109T321 -6Q182 11 108 104T34 350Q34 519 124 614T383 710Q551 710 641 615T732 350Q732 205 665 114T472 -2Q486 -49 529 -78ZM193 210T241 126T383 42Q477
42 525 126T573 350Q573 490 525 574T383 658Q289 658 241 574T193 350Q193 210 241 126Z" />
<glyph unicode="R" glyph-name="R" horiz-adv-x="721" d="M678 28T703 18V0H500L348 299H268V39Q290 35 348 18V0H30V20Q53 27 76 32T111 40V660Q79 666 32 681V700H412Q537 700 588 649T639 504Q639 426 598 375T481 306L626 39Q678 28 703 18ZM268 348H359Q484
348 484 506Q484 578 454 614T359 650H268V348Z" />
<glyph unicode="S" glyph-name="S" horiz-adv-x="601" d="M207 -10T138 16T34 85L49 231H85Q97 195 106 98Q131 73 169 58T249 42Q315 42 360 76T406 174Q406 213 385 239T333 282T246 319Q180 344 140 366T71 428T43 530Q43 618 114 664T308 710Q389 710 445
693T541 637L527 500H490Q473 555 467 621Q446 639 413 648T341 658Q278 658 241 633T203 555Q203 526 221 506T266 472T343 438Q414 410 458 385T534 313T566 195Q566 131 530 85T431 14T290 -10Q207 -10 138 16Z" />
<glyph unicode="T" glyph-name="T" horiz-adv-x="678" d="M173 20L227 33Q249 37 260 40V650H103Q101 625 88 571T64 501H30V700H647V501H613Q603 517 590 571T574 650H417V39Q456 32 505 18V0H173V20Z" />
<glyph unicode="U" glyph-name="U" horiz-adv-x="802" d="M106 -10T106 220V660Q62 669 26 682V700H343V680Q323 673 284 664L263 659V206Q263 118 314 80T447 42Q528 42 580 81T633 206V661Q588 670 552 682V700H776V682Q723 663 695 659V220Q695 107 623 49T408
-10Q106 -10 106 220Z" />
<glyph unicode="V" glyph-name="V" horiz-adv-x="787" d="M93 661Q58 668 15 684V702H325V681Q280 665 245 660L428 127L613 662Q575 668 531 685V702H772V681Q750 674 725 667T693 659L452 -4H335L93 661Z" />
<glyph unicode="W" glyph-name="W" horiz-adv-x="1047" d="M90 659Q66 664 44 672T15 682V700H323V681Q308 675 282 668T240 658L351 175L517 672H583L768 108L903 666Q862 672 834 681V700H1031V685Q1019 678 1002 673T971 665L803 -3H668L516 454L365 -3H252L90 659Z" />
<glyph unicode="X" glyph-name="X" horiz-adv-x="711" d="M688 27T714 18V0H403V15Q453 38 490 43L329 289L136 37L202 19V0H7V20L48 33L67 38L298 337L88 658Q57 665 13 681V700H324V679Q272 662 237 657L378 440L548 661L482 681V700H678V683Q641 668 616 661L409
392L637 40Q688 27 714 18Z" />
<glyph unicode="Y" glyph-name="Y" horiz-adv-x="761" d="M226 17Q232 19 257 28T305 39V307L95 658Q44 670 15 681V700H330V679Q278 662 245 657L419 368L603 662Q563 673 538 682V700H746V679Q717 669 687 661L462 306V39Q485 35 543 18V0H226V17Z" />
<glyph unicode="Z" glyph-name="Z" horiz-adv-x="618" d="M22 32L422 650H127Q126 627 113 584T88 523H54V700H590V680L185 49H506Q508 75 525 116T557 175H591L572 0H22V32Z" />
<glyph unicode="[" glyph-name="bracketleft" horiz-adv-x="315" d="M33 707H293V659H144V-72H293V-123H33V707Z" />
<glyph unicode="\" glyph-name="backslash" horiz-adv-x="358" d="M17 702H75L341 0H283L17 702Z" />
<glyph unicode="]" glyph-name="bracketright" horiz-adv-x="315" d="M22 -72H170V659H22V707H282V-123H22V-72Z" />
<glyph unicode="^" glyph-name="asciicircum" horiz-adv-x="579" d="M238 726H340L548 315H452L289 680L127 315H31L238 726Z" />
<glyph unicode="_" glyph-name="underscore" horiz-adv-x="480" d="M-3 -63H483V-114H-3V-63Z" />
<glyph unicode="`" glyph-name="grave" horiz-adv-x="517" d="M195 677Q171 691 159 706T146 739Q146 756 158 768T193 780Q224 780 257 747L320 682L380 620L355 584L195 677Z" />
<glyph unicode="a" glyph-name="a" horiz-adv-x="585" d="M105 -10T63 27T21 137Q21 217 78 252T230 288H356V357Q356 458 243 458Q204 458 160 446T77 415L69 457Q115 481 172 494T290 507Q392 507 450 468T509 363V46Q550 37 577 28V16L356 -5V59Q327 25 285
8T196 -10Q105 -10 63 27ZM282 42T311 60T356 107V239H265Q218 239 195 212T172 138Q172 89 193 66T254 42Q282 42 311 60Z" />
<glyph unicode="b" glyph-name="b" horiz-adv-x="649" d="M308 -10T266 14T207 72Q194 32 182 0H78V652Q37 661 10 671V683L231 704V454Q290 507 388 507Q452 507 504 478T588 394T619 261Q619 122 553 56T365 -10Q308 -10 266 14ZM410 39T439 98T468 256Q468
356 438 407T341 458Q310 458 280 440T231 399V171Q231 116 261 78T345 39Q410 39 439 98Z" />
<glyph unicode="c" glyph-name="c" horiz-adv-x="547" d="M224 -10T161 22T64 112T30 248Q30 330 66 388T167 476T318 507Q439 507 522 437L513 315H480Q474 333 470 363T466 419Q413 458 356 458Q278 458 231 405T184 247Q184 160 225 98T348 36Q388 36 434 50T512
91L526 56Q492 28 436 9T312 -10Q224 -10 161 22Z" />
<glyph unicode="d" glyph-name="d" horiz-adv-x="647" d="M149 -10T90 50T30 234Q30 357 95 432T281 507Q323 507 357 496T418 457V652Q379 661 351 671V683L571 704V46Q615 36 639 28V18L449 -9Q444 32 441 81Q385 -10 259 -10Q149 -10 90 50ZM351 39T384 74T418
171V400Q394 428 365 443T306 458Q238 458 211 389T183 233Q183 39 304 39Q351 39 384 74Z" />
<glyph unicode="e" glyph-name="e" horiz-adv-x="583" d="M556 239H179Q181 152 221 94T342 36Q383 36 432 50T516 91L531 56Q497 28 438 9T309 -10Q221 -10 157 22T59 112T25 248Q25 372 99 439T306 507Q389 507 445 475T529 388T556 268V239ZM423 288Q423 325
412 364T374 431T306 458Q251 458 220 410T181 288H423Z" />
<glyph unicode="f" glyph-name="f" horiz-adv-x="451" d="M317 670T293 641T268 556V498H415V449H268V38Q316 30 354 17V0H36V19Q106 39 115 39V449H22V498H115V543Q115 630 164 676T295 722Q375 722 428 702L420 659Q387 670 355 670Q317 670 293 641Z" />
<glyph unicode="g" glyph-name="g" horiz-adv-x="570" d="M451 138T497 103T544 5Q544 -82 477 -121T269 -160Q156 -160 96 -127T36 -32Q36 -10 47 11T82 47Q65 60 57 77T49 114Q49 173 109 210Q72 230 53 263T33 341Q33 421 96 464T273 507Q375 507 436 472Q458
502 458 525H563Q553 454 494 416Q512 385 512 341Q512 261 450 218T273 175Q217 175 176 185Q167 176 167 162Q167 152 176 145T202 138H380Q451 138 497 103ZM230 458T207 425T184 341Q184 290 207 257T273 224Q316 224 338 256T361 341Q361 393 339 425T273
458Q230 458 207 425ZM407 -112T407 -33Q407 -6 386 10T329 26H162Q150 26 145 27Q136 5 136 -25Q136 -65 176 -88T278 -112Q407 -112 407 -33Z" />
<glyph unicode="h" glyph-name="h" horiz-adv-x="721" d="M657 32T701 17V0H399V17Q445 34 470 39V360Q470 458 383 458Q353 458 319 441T254 387V38Q285 33 325 17V0H24V17Q70 35 102 39V652Q61 661 34 671V683L254 704V437Q288 469 335 488T437 507Q520 507
571 470T622 365V38Q657 32 701 17Z" />
<glyph unicode="i" glyph-name="i" horiz-adv-x="354" d="M134 542T113 563T91 617Q91 650 112 671T168 693Q203 693 225 672T247 617Q247 584 225 563T168 542Q134 542 113 563ZM22 17Q52 27 100 39V454Q69 460 32 473V484L253 506V38Q289 31 331 17V0H22V17Z" />
<glyph unicode="j" glyph-name="j" horiz-adv-x="362" d="M160 542T139 563T117 617Q117 650 138 671T194 693Q229 693 250 672T272 617Q272 584 251 563T194 542Q160 542 139 563ZM21 -127T-33 -105L-25 -62Q2 -74 42 -74Q82 -74 104 -47T126 25V454Q95 460 58
473V484L279 506V30Q279 -47 228 -87T102 -127Q21 -127 -33 -105Z" />
<glyph unicode="k" glyph-name="k" horiz-adv-x="702" d="M645 32T690 17V0H493L308 231L255 182V38Q292 32 334 17V0H24V17Q29 19 54 27T102 39V652Q61 661 34 671V683L255 704V253L449 433Q464 445 469 452L449 459Q407 473 390 481V498H640V481Q617 470 543
449L392 309L605 40Q645 32 690 17Z" />
<glyph unicode="l" glyph-name="l" horiz-adv-x="358" d="M24 17Q53 27 102 39V652Q61 661 34 671V683L255 704V38Q292 32 334 17V0H24V17Z" />
<glyph unicode="m" glyph-name="m" horiz-adv-x="1046" d="M982 32T1026 17V0H725V17Q728 18 750 27T795 39V360Q795 458 708 458Q648 458 596 390Q598 374 598 365V38Q639 31 667 17V0H385V17Q389 18 410 27T453 39V360Q453 414 432 436T371 458Q343 458 313
442T255 392V38Q290 32 333 17V0H24V17Q67 34 102 39V457Q71 463 34 476V487L255 509V442Q285 472 326 489T417 507Q478 507 522 486T585 426Q615 462 660 484T761 507Q844 507 895 470T947 365V38Q982 32 1026 17Z" />
<glyph unicode="n" glyph-name="n" horiz-adv-x="720" d="M671 30T700 17V0H400V17Q438 33 470 39V360Q470 458 383 458Q354 458 321 442T255 389V38Q290 32 333 17V0H24V17Q67 34 102 39V457Q71 463 34 476V487L255 509V439Q289 470 336 488T437 507Q520 507
571 470T623 365V38Q671 30 700 17Z" />
<glyph unicode="o" glyph-name="o" horiz-adv-x="628" d="M173 -10T98 57T22 248Q22 371 97 439T314 507Q454 507 529 439T605 248Q605 125 530 58T314 -10Q173 -10 98 57ZM377 39T414 95T451 248Q451 346 414 402T314 458Q251 458 214 402T176 248Q176 150 213
95T314 39Q377 39 414 95Z" />
<glyph unicode="p" glyph-name="p" horiz-adv-x="658" d="M15 -217Q31 -212 94 -196V457Q63 463 26 475V487L247 509V447Q276 480 316 493T390 507Q509 507 572 446T635 261Q635 -10 379 -10Q340 -10 303 3T247 48V-198Q277 -203 325 -218V-236H15V-217ZM425 39T453
98T481 256Q481 359 455 408T364 458Q331 458 299 438T247 388V171Q247 116 277 78T360 39Q425 39 453 98Z" />
<glyph unicode="q" glyph-name="q" horiz-adv-x="659" d="M333 -219Q376 -203 412 -197V50Q392 20 356 5T281 -10Q161 -10 92 50T22 248Q22 329 54 387T139 476T257 507Q303 507 344 493T412 448V509L634 487V476Q600 465 565 455V-199Q593 -204 644 -218V-236H333V-219ZM350
39T381 77T412 171V397Q394 423 362 440T301 458Q176 458 176 255Q176 156 204 98T297 39Q350 39 381 77Z" />
<glyph unicode="r" glyph-name="r" horiz-adv-x="503" d="M20 19Q53 32 99 39V457Q65 463 31 476V486L234 509L247 414H251Q270 459 306 483T385 507Q417 507 442 502T490 481L462 409Q433 429 401 429Q355 429 316 400T251 322V38Q287 32 329 17V0H20V19Z" />
<glyph unicode="s" glyph-name="s" horiz-adv-x="514" d="M192 -10T130 9T34 57L43 180H76Q82 163 86 133T91 76Q110 60 141 50T208 39Q261 39 295 61T329 127Q329 160 300 178T211 216Q157 234 123 251T64 298T40 376Q40 438 100 472T252 507Q385 507 454 448L444
341H411Q397 381 397 432Q380 445 349 452T284 460Q242 460 216 445T190 397Q190 364 218 347T307 307Q362 288 397 271T456 221T481 139Q481 63 419 27T264 -10Q192 -10 130 9Z" />
<glyph unicode="t" glyph-name="t" horiz-adv-x="416" d="M392 10Q339 -10 259 -10Q177 -10 128 24T79 137V449H3V498H79V520Q145 540 156 632H232V498H376V449H232V137Q232 82 255 62T319 42Q351 42 384 53L392 10Z" />
<glyph unicode="u" glyph-name="u" horiz-adv-x="686" d="M632 34T671 21V9L450 -12V44Q415 20 372 5T283 -10Q190 -10 137 26T83 129V457Q49 463 15 476V487L235 509V139Q235 85 258 62T324 39Q348 39 384 53T450 93V457Q418 463 383 476V487L602 509V39Q632 34 671 21Z" />
<glyph unicode="v" glyph-name="v" horiz-adv-x="613" d="M72 461Q37 468 7 481V498H295Q300 482 279 475T218 461L330 108L465 462Q408 472 392 480V498H606V482Q578 469 541 460L358 0H235L72 461Z" />
<glyph unicode="w" glyph-name="w" horiz-adv-x="835" d="M75 461Q29 471 7 480V498H298V476Q294 475 275 469T224 459L303 162L407 450H486L596 128L686 459Q651 466 612 481V498H828V481Q789 467 759 461L632 0H525L418 320L305 0H202L75 461Z" />
<glyph unicode="x" glyph-name="x" horiz-adv-x="637" d="M590 31T629 17V0H338V18Q388 36 406 38L292 190L153 38Q183 33 228 18V0H7V16Q60 35 82 38L260 233L91 459Q63 464 21 482V498H307V479Q252 460 239 459L341 321L468 460Q419 470 394 481V498H615V481Q583
466 539 459L373 278L553 37Q590 31 629 17Z" />
<glyph unicode="y" glyph-name="y" horiz-adv-x="620" d="M613 498V482Q572 466 544 460L341 -56Q312 -130 276 -161T174 -193Q119 -193 60 -165L85 -98Q143 -120 176 -120Q198 -120 213 -113T243 -85T274 -22L284 3L69 462Q31 468 4 481V498H294V480Q271 471
212 462L343 154L466 465Q428 471 401 480V498H613Z" />
<glyph unicode="z" glyph-name="z" horiz-adv-x="511" d="M19 23L334 449H117Q109 396 92 362H50V498H492V468L180 48H401Q407 69 416 94T434 135H481L469 0H19V23Z" />
<glyph unicode="{" glyph-name="braceleft" horiz-adv-x="402" d="M267 -122T215 -106T147 -58T131 37V177Q131 208 123 225T93 252T29 262V327Q88 328 109 345T131 401V561Q131 619 148 649T217 695T376 710V664Q335 662 311 655T274 628T260 569V397Q260 319
161 294Q260 266 260 191V19Q260 -20 273 -40T311 -67T376 -75V-122Q267 -122 215 -106Z" />
<glyph unicode="|" glyph-name="bar" horiz-adv-x="464" d="M171 750H293V-203H171V750Z" />
<glyph unicode="}" glyph-name="braceright" horiz-adv-x="402" d="M26 -75Q66 -74 90 -67T127 -40T141 19V191Q141 266 240 294Q192 306 167 332T141 397V569Q141 608 128 628T90 655T26 664V710Q133 710 185 695T254 650T271 561V411Q271 380 278 363T308 336T372
327V262Q330 262 308 253T279 226T271 177V27Q271 -31 254 -61T185 -107T26 -122V-75Z" />
<glyph unicode="~" glyph-name="asciitilde" horiz-adv-x="609" d="M63 292Q84 315 115 330T179 346Q205 346 233 340T304 320Q348 306 379 299T439 292Q472 292 496 305T546 346V274Q527 250 499 238T438 225Q405 225 373 232T293 254Q251 266 226 272T176 278Q147
278 118 263T63 223V292Z" />
<glyph unicode="&#xa0;" glyph-name="uni00A0" horiz-adv-x="263" />
<glyph unicode="&#xa1;" glyph-name="exclamdown" horiz-adv-x="355" d="M145 362T126 381T106 435Q106 468 125 487T178 507Q211 507 230 488T250 435Q250 401 231 382T178 362Q145 362 126 381ZM96 -213T96 -132L97 -116L145 328H209L257 -116L258 -132Q258
-167 241 -190T177 -213Q96 -213 96 -132Z" />
<glyph unicode="&#xa2;" glyph-name="cent" horiz-adv-x="547" d="M496 31T447 13T338 -9V-90H291V-10Q169 -4 100 66T30 248Q30 364 100 431T291 506V581H338V507Q448 501 522 437L513 315H480Q474 333 470 363T466 419Q413 458 353 458Q275 458 230 405T184
247Q184 160 225 98T348 36Q388 36 434 50T512 91L526 56Q496 31 447 13Z" />
<glyph unicode="&#xa3;" glyph-name="sterling" horiz-adv-x="623" d="M24 48H95Q116 69 121 86T127 135V329H32V377H127V531Q127 616 194 663T383 710Q457 710 507 690T593 635L571 600Q544 631 503 648T414 665Q353 665 315 630T277 521V377H481V329H277V150Q277
116 266 92T228 49H495Q497 75 514 116T546 175H579L561 0H24V48Z" />
<glyph unicode="&#xa4;" glyph-name="currency" horiz-adv-x="609" d="M81 111L145 173Q104 227 104 293Q104 359 145 413L79 477L116 515L182 451Q235 493 304 493Q372 493 427 451L492 515L529 477L463 413Q504 359 504 293Q504 227 463 173L526 111L489 74L426
135Q373 93 304 93Q237 93 182 135L118 73L81 111ZM344 146T378 165T432 218T452 292Q452 333 432 367T378 420T304 440Q264 440 231 421T177 368T157 293Q157 253 177 219T230 166T304 146Q344 146 378 165Z" />
<glyph unicode="&#xa5;" glyph-name="yen" horiz-adv-x="762" d="M749 700V679Q720 669 690 661L525 400H673V352H494L465 306V204H673V156H465V39Q486 36 545 18V0H229V17Q254 27 272 32T308 39V156H117V204H308V307L281 352H117V400H252L98 658Q47 670 18 681V700H333V679Q282
662 247 657L402 400H443L606 662Q566 673 541 682V700H749Z" />
<glyph unicode="&#xa6;" glyph-name="brokenbar" horiz-adv-x="464" d="M171 750H293V338H171V750ZM171 250H293V-203H171V250Z" />
<glyph unicode="&#xa7;" glyph-name="section" horiz-adv-x="610" d="M571 56T571 -33Q571 -97 535 -143T436 -213T295 -237Q211 -237 142 -211T38 -142L53 5H90Q103 -33 111 -129Q136 -155 173 -170T254 -185Q320 -185 365 -152T411 -54Q411 -15 390 11T337 54T251
90Q186 114 145 136T76 198T48 300Q48 392 127 439Q48 491 48 583Q48 671 119 716T312 762Q393 762 449 745T546 689L532 552H495Q478 601 472 673Q451 691 418 700T346 710Q282 710 245 685T207 608Q207 580 225 560T270 526T347 492Q417 465 462 440T539 368T571
250Q571 167 509 113Q571 56 571 -33ZM192 294T212 272T261 236T345 200Q391 182 414 172Q426 196 426 229Q426 271 403 298T347 342T255 380L221 393Q192 369 192 325Q192 294 212 272Z" />
<glyph unicode="&#xa8;" glyph-name="dieresis" horiz-adv-x="517" d="M110 584T94 601T77 645Q77 672 93 689T138 707Q166 707 183 690T200 645Q200 618 183 601T138 584Q110 584 94 601ZM350 584T334 601T317 645Q317 672 333 689T378 707Q406 707 423 690T440
645Q440 618 423 601T378 584Q350 584 334 601Z" />
<glyph unicode="&#xa9;" glyph-name="copyright" horiz-adv-x="830" d="M310 -10T227 37T96 168T48 357Q48 462 95 545T226 676T415 724Q520 724 603 677T734 546T782 357Q782 252 735 169T604 38T415 -10Q310 -10 227 37ZM505 39T576 80T688 194T728 357Q728
447 688 519T577 633T415 675Q324 675 253 634T141 520T101 357Q101 267 141 195T252 81T415 39Q505 39 576 80ZM376 135T325 162T243 240T212 357Q212 462 269 520T438 578Q473 578 514 568T574 541L569 442H537Q534 449 530 476T523 521Q511 531 490 538T442
546Q361 546 333 498T304 357Q304 277 339 225T442 173Q465 173 500 182T556 208L560 177Q540 159 505 147T436 135Q376 135 325 162Z" />
<glyph unicode="&#xaa;" glyph-name="ordfeminine" horiz-adv-x="393" d="M23 382T23 476Q23 525 58 549T153 574H237V613Q237 677 164 677Q116 677 58 650L53 679Q113 710 193 710Q261 710 298 685T336 614V419Q344 418 382 408V400L237 385V427Q220 406 194
394T136 382Q23 382 23 476ZM190 417T207 428T237 460V540H176Q148 540 135 523T121 477Q121 417 173 417Q190 417 207 428Z" />
<glyph unicode="&#xab;" glyph-name="guillemotleft" horiz-adv-x="581" d="M204 88T149 146T34 252V273Q177 393 257 516L317 422Q282 361 166 262Q285 157 317 102L257 8Q204 88 149 146ZM432 88T377 146T262 252V273Q405 393 485 516L545 422Q511 362 395 262Q514
156 545 102L485 8Q432 88 377 146Z" />
<glyph unicode="&#xac;" glyph-name="logicalnot" horiz-adv-x="505" d="M400 325H35V374H460V176H400V325Z" />
<glyph unicode="&#xad;" glyph-name="uni00AD" horiz-adv-x="451" d="M47 322H404V240H47V322Z" />
<glyph unicode="&#xae;" glyph-name="registered" horiz-adv-x="830" d="M520 724T603 677T734 546T782 357Q782 252 735 169T604 38T415 -10Q310 -10 227 37T96 168T48 357Q48 462 95 545T226 676T415 724Q520 724 603 677ZM505 39T576 80T688 194T728 357Q728
447 688 519T577 633T415 675Q324 675 253 634T141 520T101 357Q101 267 141 195T252 81T415 39Q505 39 576 80ZM584 173Q607 170 629 161V149H506L415 330H366V173Q384 171 415 161V149H223V161Q237 166 250 169T271 174V545Q243 549 223 557V570H452Q528 570
559 539T591 453Q591 351 486 333L584 173ZM366 362H420Q497 362 497 454Q497 497 479 517T420 538H366V362Z" />
<glyph unicode="&#xaf;" glyph-name="overscore" horiz-adv-x="517" d="M37 758H480V709H37V758Z" />
<glyph unicode="&#xb0;" glyph-name="degree" horiz-adv-x="357" d="M112 445T71 486T30 590Q30 652 71 693T178 735Q245 735 286 694T327 590Q327 527 286 486T178 445Q112 445 71 486ZM218 497T244 524T270 590Q270 629 245 655T178 682Q138 682 112 656T86
590Q86 551 112 524T178 497Q218 497 244 524Z" />
<glyph unicode="&#xb1;" glyph-name="plusminus" horiz-adv-x="608" d="M228 323H40V395H228V572H380V395H568V323H380V147H228V323ZM53 87H547V15H53V87Z" />
<glyph unicode="&#xb2;" glyph-name="uni00B2" horiz-adv-x="456" d="M47 307Q58 346 85 375T157 441Q192 470 212 490T247 537T261 595Q261 628 241 646T189 665Q127 665 72 620L55 652Q77 673 120 691T219 710Q303 710 349 682T395 594Q395 559 379 531T339
483T274 433Q235 404 214 386T176 346H359Q362 358 368 375T383 402H406L398 269H47V307Z" />
<glyph unicode="&#xb3;" glyph-name="uni00B3" horiz-adv-x="456" d="M158 260T113 278T46 318L63 350Q91 326 123 316T185 305Q225 305 248 328T271 391Q271 425 252 448T196 472H121V521H196Q233 521 250 543T268 596Q268 629 246 647T186 665Q160 665 130 653T76
622L60 652Q81 673 125 691T227 710Q309 710 352 683T395 602Q395 566 377 538T325 500V495Q404 473 404 393Q404 329 353 295T214 260Q158 260 113 278Z" />
<glyph unicode="&#xb4;" glyph-name="acute" horiz-adv-x="517" d="M149 620L271 746Q280 756 297 768T334 780Q358 780 370 767T383 738Q383 706 334 677L174 584L149 620Z" />
<glyph unicode="&#xb6;" glyph-name="paragraph" horiz-adv-x="552" d="M143 19Q183 31 222 39V310Q132 318 84 371T36 512Q36 609 87 654T240 700H535V683Q480 663 455 660V38Q490 32 534 17V0H377V655H300V0H143V19ZM222 655Q154 655 122 616T89 511Q89 461
108 428T158 378T222 361V655Z" />
<glyph unicode="&#xb7;" glyph-name="middot" horiz-adv-x="301" d="M118 279T100 298T81 350Q81 381 99 401T150 421Q182 421 201 401T220 350Q220 319 201 299T150 279Q118 279 100 298Z" />
<glyph unicode="&#xb8;" glyph-name="cedilla" horiz-adv-x="517" d="M226 -252T195 -244T140 -221L164 -182Q179 -190 200 -195T243 -200Q279 -200 301 -187T324 -145Q324 -122 304 -112T256 -102Q247 -102 233 -104L207 -70L255 24H321L280 -60L294 -61Q347
-64 373 -87T400 -145Q400 -196 359 -224T255 -252Q226 -252 195 -244Z" />
<glyph unicode="&#xb9;" glyph-name="uni00B9" horiz-adv-x="456" d="M80 291Q114 303 169 312V618L84 590V633L311 713V310Q328 308 352 304T393 293V269H80V291Z" />
<glyph unicode="&#xba;" glyph-name="ordmasculine" horiz-adv-x="405" d="M112 382T66 425T20 546Q20 623 66 666T202 710Q292 710 338 667T385 546Q385 469 339 426T202 382Q112 382 66 425ZM238 429T257 460T276 546Q276 600 257 631T203 663Q169 663 149 632T129
546Q129 492 149 461T203 429Q238 429 257 460Z" />
<glyph unicode="&#xbb;" glyph-name="guillemotright" horiz-adv-x="581" d="M36 102Q68 157 187 262Q71 361 36 422L96 516Q176 393 319 273V252Q259 204 204 146T96 8L36 102ZM264 102Q295 156 414 262Q298 362 264 422L324 516Q404 393 547 273V252Q487 204
432 146T324 8L264 102Z" />
<glyph unicode="&#xbc;" glyph-name="onequarter" horiz-adv-x="1022" d="M53 291Q88 303 142 312V618L57 590V633L284 713V310Q301 308 325 304T367 293V269H53V291ZM719 702H771L336 0H285L719 702ZM687 26Q719 34 755 38V102H543V130L754 436H897V150H959V102H897V39Q920
36 955 25V0H687V26ZM755 150V364L606 150H755Z" />
<glyph unicode="&#xbd;" glyph-name="onehalf" horiz-adv-x="1022" d="M53 291Q88 303 142 312V618L57 590V633L284 713V310Q301 308 325 304T367 293V269H53V291ZM703 702H755L319 0H268L703 702ZM611 38Q623 77 649 106T721 172Q756 201 776 221T811 268T825
326Q825 359 806 377T753 396Q690 396 637 351L619 382Q641 404 683 422T783 440Q867 440 913 412T959 325Q959 289 943 261T902 212T838 163Q801 137 779 119T740 77H924Q927 90 933 106T947 133H970L963 0H611V38Z" />
<glyph unicode="&#xbe;" glyph-name="threequarters" horiz-adv-x="1022" d="M161 263T116 281T49 321L67 352Q95 328 127 318T189 307Q229 307 251 331T274 393Q274 428 255 451T199 475H125V524H199Q237 524 254 545T271 596Q271 629 249 647T190 665Q163 665
134 653T80 622L63 652Q86 674 129 692T230 710Q312 710 355 683T398 602Q398 567 381 540T329 502V498Q407 474 407 396Q407 332 356 298T218 263Q161 263 116 281ZM716 702H768L333 0H282L716 702ZM687 26Q719 34 755 38V102H543V130L754 436H897V150H959V102H897V39Q920
36 955 25V0H687V26ZM755 150V364L606 150H755Z" />
<glyph unicode="&#xbf;" glyph-name="questiondown" horiz-adv-x="501" d="M243 357T224 376T204 429Q204 463 223 482T276 502Q309 502 328 483T348 429Q348 396 329 377T276 357Q243 357 224 376ZM146 -218T84 -178T22 -54Q22 -13 37 17T74 67T134 115Q171 143
193 163T230 213T245 284Q245 296 242 312H310Q314 288 314 266Q314 220 302 186T273 128T229 73Q196 37 181 11T165 -52Q165 -107 193 -136T292 -166Q338 -166 376 -150T453 -101L478 -139Q427 -179 370 -198T241 -218Q146 -218 84 -178Z" />
<glyph unicode="&#xc0;" glyph-name="Agrave" horiz-adv-x="777" d="M282 894T270 908T257 940Q257 956 269 969T306 982Q340 982 369 948L492 821L467 786L307 879Q282 894 270 908ZM726 33T770 18V0H457V20Q502 36 537 41L489 178H215L165 39Q196 35 247 16V0H6V21Q28
28 50 34T85 42L332 704H444L692 40Q726 33 770 18ZM471 228L353 562L233 228H471Z" />
<glyph unicode="&#xc1;" glyph-name="Aacute" horiz-adv-x="777" d="M311 786L286 821L408 947Q438 982 472 982Q496 982 508 969T521 940Q521 923 509 909T471 879L311 786ZM726 33T770 18V0H457V20Q502 36 537 41L489 178H215L165 39Q196 35 247 16V0H6V21Q28
28 50 34T85 42L332 704H444L692 40Q726 33 770 18ZM471 228L353 562L233 228H471Z" />
<glyph unicode="&#xc2;" glyph-name="Acircumflex" horiz-adv-x="777" d="M370 887T332 849T260 783L197 829Q231 850 282 897T352 972H424Q442 946 493 898T579 829L517 783Q484 809 446 847T390 912H386Q370 887 332 849ZM726 33T770 18V0H457V20Q502 36 537
41L489 178H215L165 39Q196 35 247 16V0H6V21Q28 28 50 34T85 42L332 704H444L692 40Q726 33 770 18ZM471 228L353 562L233 228H471Z" />
<glyph unicode="&#xc3;" glyph-name="Atilde" horiz-adv-x="777" d="M285 839T270 825T250 786H183Q191 843 222 873T305 903Q332 903 353 895T404 872Q427 860 437 856T460 851Q482 851 497 862T521 905H586Q581 849 551 818T465 786Q443 786 422 794T367 817Q325
839 307 839Q285 839 270 825ZM726 33T770 18V0H457V20Q502 36 537 41L489 178H215L165 39Q196 35 247 16V0H6V21Q28 28 50 34T85 42L332 704H444L692 40Q726 33 770 18ZM471 228L353 562L233 228H471Z" />
<glyph unicode="&#xc4;" glyph-name="Adieresis" horiz-adv-x="777" d="M225 785T208 802T191 847Q191 874 208 891T252 909Q280 909 297 892T314 847Q314 820 297 803T252 785Q225 785 208 802ZM464 785T448 802T431 847Q431 874 447 891T492 909Q520 909 537
892T554 847Q554 820 537 803T492 785Q464 785 448 802ZM726 33T770 18V0H457V20Q502 36 537 41L489 178H215L165 39Q196 35 247 16V0H6V21Q28 28 50 34T85 42L332 704H444L692 40Q726 33 770 18ZM471 228L353 562L233 228H471Z" />
<glyph unicode="&#xc5;" glyph-name="Aring" horiz-adv-x="777" d="M338 745T308 773T278 847Q278 892 308 920T387 949Q435 949 465 921T495 847Q495 801 466 773T387 745Q338 745 308 773ZM362 903T345 888T328 847Q328 822 345 806T387 790Q412 790 428 806T445
847Q445 872 429 887T387 903Q362 903 345 888ZM726 33T770 18V0H457V20Q502 36 537 41L489 178H215L165 39Q196 35 247 16V0H6V21Q28 28 50 34T85 42L332 704H444L692 40Q726 33 770 18ZM471 228L353 562L233 228H471Z" />
<glyph unicode="&#xc6;" glyph-name="AE" horiz-adv-x="1034" d="M6 18Q45 32 83 41L454 667Q418 676 402 682V700H977V523H943Q932 541 919 584T904 650H645V384H820Q822 401 827 426T840 470H865V248H840Q833 269 828 294T820 334H645V49H910Q912 75 929 116T960
175H994L976 0H404V18Q450 33 490 39V178H248L168 39Q210 33 255 16V0H6V18ZM490 228V595L277 228H490Z" />
<glyph unicode="&#xc7;" glyph-name="Ccedilla" horiz-adv-x="664" d="M581 29T524 11T398 -10L371 -66Q430 -66 460 -91T491 -151Q491 -202 450 -230T345 -258Q315 -258 284 -250T231 -227L255 -188Q270 -196 291 -201T333 -206Q370 -206 392 -193T415 -151Q415
-128 395 -118T347 -108Q338 -108 324 -110L298 -76L333 -7Q189 8 114 101T39 350Q39 519 128 614T384 710Q468 710 525 690T624 631L610 485H573Q555 537 548 618Q497 658 424 658Q318 658 259 576T199 350Q199 205 252 124T410 42Q453 42 503 57T597 104L619
62Q581 29 524 11Z" />
<glyph unicode="&#xc8;" glyph-name="Egrave" horiz-adv-x="660" d="M275 894T263 908T250 940Q250 956 262 969T299 982Q333 982 362 948L485 821L460 786L300 879Q275 894 263 908ZM621 175L602 0H30V18Q72 33 116 40V660Q75 667 30 682V700H603V523H569Q558
541 545 584T530 650H273V375H446Q455 432 467 461H492V239H467Q459 260 454 285T446 325H273V49H536Q538 75 555 116T587 175H621Z" />
<glyph unicode="&#xc9;" glyph-name="Eacute" horiz-adv-x="660" d="M280 786L255 821L377 947Q407 982 441 982Q465 982 477 969T490 940Q490 923 478 909T440 879L280 786ZM621 175L602 0H30V18Q72 33 116 40V660Q75 667 30 682V700H603V523H569Q558 541 545
584T530 650H273V375H446Q455 432 467 461H492V239H467Q459 260 454 285T446 325H273V49H536Q538 75 555 116T587 175H621Z" />
<glyph unicode="&#xca;" glyph-name="Ecircumflex" horiz-adv-x="660" d="M350 887T312 849T240 783L177 829Q211 850 262 897T332 972H404Q422 946 473 898T559 829L497 783Q464 809 426 847T370 912H366Q350 887 312 849ZM621 175L602 0H30V18Q72 33 116 40V660Q75
667 30 682V700H603V523H569Q558 541 545 584T530 650H273V375H446Q455 432 467 461H492V239H467Q459 260 454 285T446 325H273V49H536Q538 75 555 116T587 175H621Z" />
<glyph unicode="&#xcb;" glyph-name="Edieresis" horiz-adv-x="660" d="M231 785T214 802T197 847Q197 874 214 891T258 909Q286 909 303 892T320 847Q320 820 303 803T258 785Q231 785 214 802ZM470 785T454 802T437 847Q437 874 453 891T498 909Q526 909 543
892T560 847Q560 820 543 803T498 785Q470 785 454 802ZM621 175L602 0H30V18Q72 33 116 40V660Q75 667 30 682V700H603V523H569Q558 541 545 584T530 650H273V375H446Q455 432 467 461H492V239H467Q459 260 454 285T446 325H273V49H536Q538 75 555 116T587 175H621Z"
/>
<glyph unicode="&#xcc;" glyph-name="Igrave" horiz-adv-x="380" d="M121 879Q96 894 84 908T71 940Q71 956 83 969T120 982Q154 982 183 948L306 821L281 786L121 879ZM31 20Q63 29 111 40V660Q89 664 31 681V700H349V680Q337 676 319 672T292 665L268 659V39Q291
35 349 18V0H31V20Z" />
<glyph unicode="&#xcd;" glyph-name="Iacute" horiz-adv-x="380" d="M71 821L193 947Q223 982 257 982Q281 982 293 969T306 940Q306 923 294 909T256 879L96 786L71 821ZM31 20Q63 29 111 40V660Q89 664 31 681V700H349V680Q337 676 319 672T292 665L268 659V39Q291
35 349 18V0H31V20Z" />
<glyph unicode="&#xce;" glyph-name="Icircumflex" horiz-adv-x="380" d="M-2 829Q32 850 83 897T153 972H225Q243 946 294 898T380 829L318 783Q285 809 247 847T191 912H187Q171 887 133 849T61 783L-2 829ZM31 20Q63 29 111 40V660Q89 664 31 681V700H349V680Q337
676 319 672T292 665L268 659V39Q291 35 349 18V0H31V20Z" />
<glyph unicode="&#xcf;" glyph-name="Idieresis" horiz-adv-x="380" d="M42 785T25 802T8 847Q8 874 25 891T69 909Q97 909 114 892T131 847Q131 820 114 803T69 785Q42 785 25 802ZM281 785T265 802T248 847Q248 874 264 891T309 909Q337 909 354 892T371 847Q371
820 354 803T309 785Q281 785 265 802ZM31 20Q63 29 111 40V660Q89 664 31 681V700H349V680Q337 676 319 672T292 665L268 659V39Q291 35 349 18V0H31V20Z" />
<glyph unicode="&#xd0;" glyph-name="Eth" horiz-adv-x="716" d="M527 700T603 612T680 350Q680 178 604 89T360 0H30V19Q88 38 109 41V309H44V358H109V660Q81 666 30 682V700H361Q527 700 603 612ZM446 49T483 127T520 350Q520 494 483 572T360 650H264V358H408V309H264V49H358Q446
49 483 127Z" />
<glyph unicode="&#xd1;" glyph-name="Ntilde" horiz-adv-x="786" d="M207 843T238 873T321 903Q348 903 369 895T420 872Q443 860 453 856T476 851Q498 851 513 862T537 905H602Q597 849 567 818T481 786Q459 786 438 794T383 817Q341 839 323 839Q301 839 286
825T266 786H199Q207 843 238 873ZM31 17Q74 31 110 38V660Q68 668 30 682V700H267L614 189V661Q564 673 535 682V700H756V682Q727 673 677 661V0H597L172 621V38Q206 31 251 17V0H31V17Z" />
<glyph unicode="&#xd2;" glyph-name="Ograve" horiz-adv-x="766" d="M307 879Q282 894 270 908T257 940Q257 956 269 969T306 982Q340 982 369 948L492 821L467 786L307 879ZM215 -10T125 85T34 350Q34 519 124 614T383 710Q551 710 641 615T732 350Q732 181 642
86T383 -10Q215 -10 125 85ZM477 42T525 126T573 350Q573 490 525 574T383 658Q288 658 241 574T193 350Q193 209 240 126T383 42Q477 42 525 126Z" />
<glyph unicode="&#xd3;" glyph-name="Oacute" horiz-adv-x="766" d="M272 821L394 947Q424 982 458 982Q482 982 494 969T507 940Q507 923 495 909T457 879L297 786L272 821ZM215 -10T125 85T34 350Q34 519 124 614T383 710Q551 710 641 615T732 350Q732 181 642
86T383 -10Q215 -10 125 85ZM477 42T525 126T573 350Q573 490 525 574T383 658Q288 658 241 574T193 350Q193 209 240 126T383 42Q477 42 525 126Z" />
<glyph unicode="&#xd4;" glyph-name="Ocircumflex" horiz-adv-x="766" d="M191 829Q225 850 276 897T346 972H418Q436 946 487 898T573 829L511 783Q478 809 440 847T384 912H380Q364 887 326 849T254 783L191 829ZM215 -10T125 85T34 350Q34 519 124 614T383
710Q551 710 641 615T732 350Q732 181 642 86T383 -10Q215 -10 125 85ZM477 42T525 126T573 350Q573 490 525 574T383 658Q288 658 241 574T193 350Q193 209 240 126T383 42Q477 42 525 126Z" />
<glyph unicode="&#xd5;" glyph-name="Otilde" horiz-adv-x="766" d="M189 843T220 873T303 903Q330 903 351 895T402 872Q425 860 435 856T458 851Q480 851 495 862T519 905H584Q579 849 549 818T463 786Q441 786 420 794T365 817Q323 839 305 839Q283 839 268
825T248 786H181Q189 843 220 873ZM215 -10T125 85T34 350Q34 519 124 614T383 710Q551 710 641 615T732 350Q732 181 642 86T383 -10Q215 -10 125 85ZM477 42T525 126T573 350Q573 490 525 574T383 658Q288 658 241 574T193 350Q193 209 240 126T383 42Q477 42
525 126Z" />
<glyph unicode="&#xd6;" glyph-name="Odieresis" horiz-adv-x="766" d="M235 785T218 802T201 847Q201 874 218 891T262 909Q290 909 307 892T324 847Q324 820 307 803T262 785Q235 785 218 802ZM474 785T458 802T441 847Q441 874 457 891T502 909Q530 909 547
892T564 847Q564 820 547 803T502 785Q474 785 458 802ZM215 -10T125 85T34 350Q34 519 124 614T383 710Q551 710 641 615T732 350Q732 181 642 86T383 -10Q215 -10 125 85ZM477 42T525 126T573 350Q573 490 525 574T383 658Q288 658 241 574T193 350Q193 209 240
126T383 42Q477 42 525 126Z" />
<glyph unicode="&#xd7;" glyph-name="multiply" horiz-adv-x="608" d="M63 149L227 311L63 473L134 545L304 375L474 545L545 473L381 311L545 149L474 77L304 247L134 77L63 149Z" />
<glyph unicode="&#xd8;" glyph-name="Oslash" horiz-adv-x="766" d="M732 527T732 350Q732 181 642 86T383 -10Q254 -10 167 49L98 -36L58 -3L127 83Q34 178 34 350Q34 519 124 614T383 710Q506 710 590 657L645 725L689 692L633 623Q732 527 732 350ZM193 261T213
190L524 575Q475 658 383 658Q288 658 241 574T193 350Q193 261 213 190ZM477 42T525 126T573 350Q573 448 549 520L236 134Q285 42 383 42Q477 42 525 126Z" />
<glyph unicode="&#xd9;" glyph-name="Ugrave" horiz-adv-x="802" d="M334 879Q309 894 297 908T284 940Q284 956 296 969T333 982Q367 982 396 948L519 821L494 786L334 879ZM106 -10T106 220V660Q62 669 26 682V700H343V680Q323 673 284 664L263 659V206Q263
118 314 80T447 42Q528 42 580 81T633 206V661Q588 670 552 682V700H776V682Q723 663 695 659V220Q695 107 623 49T408 -10Q106 -10 106 220Z" />
<glyph unicode="&#xda;" glyph-name="Uacute" horiz-adv-x="802" d="M330 821L452 947Q482 982 516 982Q540 982 552 969T565 940Q565 923 553 909T515 879L355 786L330 821ZM106 -10T106 220V660Q62 669 26 682V700H343V680Q323 673 284 664L263 659V206Q263
118 314 80T447 42Q528 42 580 81T633 206V661Q588 670 552 682V700H776V682Q723 663 695 659V220Q695 107 623 49T408 -10Q106 -10 106 220Z" />
<glyph unicode="&#xdb;" glyph-name="Ucircumflex" horiz-adv-x="802" d="M210 829Q244 850 295 897T365 972H437Q455 946 506 898T592 829L530 783Q497 809 459 847T403 912H399Q383 887 345 849T273 783L210 829ZM106 -10T106 220V660Q62 669 26 682V700H343V680Q323
673 284 664L263 659V206Q263 118 314 80T447 42Q528 42 580 81T633 206V661Q588 670 552 682V700H776V682Q723 663 695 659V220Q695 107 623 49T408 -10Q106 -10 106 220Z" />
<glyph unicode="&#xdc;" glyph-name="Udieresis" horiz-adv-x="802" d="M276 785T259 802T242 847Q242 874 259 891T303 909Q331 909 348 892T365 847Q365 820 348 803T303 785Q276 785 259 802ZM515 785T499 802T482 847Q482 874 498 891T543 909Q571 909 588
892T605 847Q605 820 588 803T543 785Q515 785 499 802ZM106 -10T106 220V660Q62 669 26 682V700H343V680Q323 673 284 664L263 659V206Q263 118 314 80T447 42Q528 42 580 81T633 206V661Q588 670 552 682V700H776V682Q723 663 695 659V220Q695 107 623 49T408
-10Q106 -10 106 220Z" />
<glyph unicode="&#xdd;" glyph-name="Yacute" horiz-adv-x="761" d="M311 821L433 947Q463 982 497 982Q521 982 533 969T546 940Q546 923 534 909T496 879L336 786L311 821ZM226 17Q232 19 257 28T305 39V307L95 658Q44 670 15 681V700H330V679Q278 662 245 657L419
368L603 662Q563 673 538 682V700H746V679Q717 669 687 661L462 306V39Q485 35 543 18V0H226V17Z" />
<glyph unicode="&#xde;" glyph-name="Thorn" horiz-adv-x="644" d="M23 20Q46 27 68 32T103 40V660Q67 668 25 681V700H260V576H391Q515 576 569 520T624 371Q624 309 599 259T521 178T394 148H260V39Q283 35 341 18V0H23V20ZM352 197Q412 197 440 246T469 373Q469
447 441 487T352 527H260V197H352Z" />
<glyph unicode="&#xdf;" glyph-name="germandbls" horiz-adv-x="770" d="M487 364T512 347T593 307Q642 288 673 271T726 221T749 139Q749 61 691 26T539 -10Q472 -10 426 7T343 57L353 180H386Q392 162 396 132T400 76Q422 58 444 49T499 39Q546 39 570 62T594
123Q594 157 569 175T489 216Q443 234 413 251T362 298T341 376Q341 424 377 453T465 495Q465 559 439 618T341 677Q308 677 284 653T260 579V38Q297 32 339 17V0H29V19Q99 39 108 39V449H15V498H108V538Q108 633 176 681T352 730Q513 730 559 650T606 480V458Q557
458 522 444T487 397Q487 364 512 347Z" />
<glyph unicode="&#xe0;" glyph-name="agrave" horiz-adv-x="585" d="M212 677Q187 692 175 706T162 738Q162 754 174 767T211 780Q245 780 274 746L397 619L372 584L212 677ZM105 -10T63 27T21 137Q21 217 78 252T230 288H356V357Q356 458 243 458Q204 458 160
446T77 415L69 457Q115 481 172 494T290 507Q392 507 450 468T509 363V46Q550 37 577 28V16L356 -5V59Q327 25 285 8T196 -10Q105 -10 63 27ZM282 42T311 60T356 107V239H265Q218 239 195 212T172 138Q172 89 193 66T254 42Q282 42 311 60Z" />
<glyph unicode="&#xe1;" glyph-name="aacute" horiz-adv-x="585" d="M195 619L317 745Q347 780 381 780Q405 780 417 767T430 738Q430 721 418 707T380 677L220 584L195 619ZM105 -10T63 27T21 137Q21 217 78 252T230 288H356V357Q356 458 243 458Q204 458 160
446T77 415L69 457Q115 481 172 494T290 507Q392 507 450 468T509 363V46Q550 37 577 28V16L356 -5V59Q327 25 285 8T196 -10Q105 -10 63 27ZM282 42T311 60T356 107V239H265Q218 239 195 212T172 138Q172 89 193 66T254 42Q282 42 311 60Z" />
<glyph unicode="&#xe2;" glyph-name="acircumflex" horiz-adv-x="585" d="M95 627Q129 648 180 695T250 770H322Q340 744 391 696T477 627L415 581Q382 607 344 645T288 710H284Q268 685 230 647T158 581L95 627ZM105 -10T63 27T21 137Q21 217 78 252T230 288H356V357Q356
458 243 458Q204 458 160 446T77 415L69 457Q115 481 172 494T290 507Q392 507 450 468T509 363V46Q550 37 577 28V16L356 -5V59Q327 25 285 8T196 -10Q105 -10 63 27ZM282 42T311 60T356 107V239H265Q218 239 195 212T172 138Q172 89 193 66T254 42Q282 42 311
60Z" />
<glyph unicode="&#xe3;" glyph-name="atilde" horiz-adv-x="585" d="M91 641T122 671T205 701Q232 701 253 693T304 670Q327 658 337 654T360 649Q382 649 397 660T421 703H486Q481 647 451 616T365 584Q343 584 322 592T267 615Q225 637 207 637Q185 637 170
623T150 584H83Q91 641 122 671ZM105 -10T63 27T21 137Q21 217 78 252T230 288H356V357Q356 458 243 458Q204 458 160 446T77 415L69 457Q115 481 172 494T290 507Q392 507 450 468T509 363V46Q550 37 577 28V16L356 -5V59Q327 25 285 8T196 -10Q105 -10 63 27ZM282
42T311 60T356 107V239H265Q218 239 195 212T172 138Q172 89 193 66T254 42Q282 42 311 60Z" />
<glyph unicode="&#xe4;" glyph-name="adieresis" horiz-adv-x="585" d="M134 583T117 600T100 645Q100 672 117 689T161 707Q189 707 206 690T223 645Q223 618 206 601T161 583Q134 583 117 600ZM373 583T357 600T340 645Q340 672 356 689T401 707Q429 707 446
690T463 645Q463 618 446 601T401 583Q373 583 357 600ZM105 -10T63 27T21 137Q21 217 78 252T230 288H356V357Q356 458 243 458Q204 458 160 446T77 415L69 457Q115 481 172 494T290 507Q392 507 450 468T509 363V46Q550 37 577 28V16L356 -5V59Q327 25 285 8T196
-10Q105 -10 63 27ZM282 42T311 60T356 107V239H265Q218 239 195 212T172 138Q172 89 193 66T254 42Q282 42 311 60Z" />
<glyph unicode="&#xe5;" glyph-name="aring" horiz-adv-x="585" d="M244 578T214 606T184 680Q184 725 214 753T293 782Q341 782 371 754T401 680Q401 634 372 606T293 578Q244 578 214 606ZM318 623T334 639T351 680Q351 705 335 720T293 736Q268 736 251 721T234
680Q234 655 251 639T293 623Q318 623 334 639ZM105 -10T63 27T21 137Q21 217 78 252T230 288H356V357Q356 458 243 458Q204 458 160 446T77 415L69 457Q115 481 172 494T290 507Q392 507 450 468T509 363V46Q550 37 577 28V16L356 -5V59Q327 25 285 8T196 -10Q105
-10 63 27ZM282 42T311 60T356 107V239H265Q218 239 195 212T172 138Q172 89 193 66T254 42Q282 42 311 60Z" />
<glyph unicode="&#xe6;" glyph-name="ae" horiz-adv-x="911" d="M129 -10T75 27T21 137Q21 217 84 254T242 291H355Q356 303 359 318T364 340L368 360Q367 409 331 433T243 458Q204 458 160 446T77 415L69 457Q115 481 172 494T290 507Q344 507 386 494T455 455Q489
480 534 493T634 507Q717 507 773 476T857 391T884 272V242H505Q507 141 551 89T673 37Q715 37 762 51T844 91L859 56Q824 27 770 9T648 -10Q579 -10 523 11T428 71Q392 31 333 11T211 -10Q129 -10 75 27ZM751 292Q748 360 720 409T632 459Q574 459 542 412T506
292H751ZM297 42T336 59T399 102Q356 158 353 242H278Q230 242 201 213T172 138Q172 88 196 65T262 42Q297 42 336 59Z" />
<glyph unicode="&#xe7;" glyph-name="ccedilla" horiz-adv-x="547" d="M392 -60T422 -85T453 -145Q453 -196 412 -224T307 -252Q277 -252 246 -244T193 -221L217 -182Q232 -190 253 -195T295 -200Q332 -200 354 -187T377 -145Q377 -122 357 -112T309 -102Q300
-102 286 -104L260 -70L291 -9Q210 -6 151 27T61 117T30 248Q30 330 66 388T167 476T318 507Q439 507 522 437L513 315H480Q474 333 470 363T466 419Q413 458 356 458Q278 458 231 405T184 247Q184 160 225 98T348 36Q388 36 434 50T512 91L526 56Q498 33 455 16T359
-7L333 -60Q392 -60 422 -85Z" />
<glyph unicode="&#xe8;" glyph-name="egrave" horiz-adv-x="583" d="M210 692T198 706T185 738Q185 754 197 767T234 780Q268 780 297 746L420 619L395 584L235 677Q210 692 198 706ZM556 239H179Q181 152 221 94T342 36Q383 36 432 50T516 91L531 56Q497 28 438
9T309 -10Q221 -10 157 22T59 112T25 248Q25 372 99 439T306 507Q389 507 445 475T529 388T556 268V239ZM423 288Q423 325 412 364T374 431T306 458Q251 458 220 410T181 288H423Z" />
<glyph unicode="&#xe9;" glyph-name="eacute" horiz-adv-x="583" d="M235 584L210 619L332 745Q362 780 396 780Q420 780 432 767T445 738Q445 721 433 707T395 677L235 584ZM556 239H179Q181 152 221 94T342 36Q383 36 432 50T516 91L531 56Q497 28 438 9T309
-10Q221 -10 157 22T59 112T25 248Q25 372 99 439T306 507Q389 507 445 475T529 388T556 268V239ZM423 288Q423 325 412 364T374 431T306 458Q251 458 220 410T181 288H423Z" />
<glyph unicode="&#xea;" glyph-name="ecircumflex" horiz-adv-x="583" d="M286 685T248 647T176 581L113 627Q147 648 198 695T268 770H340Q358 744 409 696T495 627L433 581Q400 607 362 645T306 710H302Q286 685 248 647ZM556 239H179Q181 152 221 94T342 36Q383
36 432 50T516 91L531 56Q497 28 438 9T309 -10Q221 -10 157 22T59 112T25 248Q25 372 99 439T306 507Q389 507 445 475T529 388T556 268V239ZM423 288Q423 325 412 364T374 431T306 458Q251 458 220 410T181 288H423Z" />
<glyph unicode="&#xeb;" glyph-name="edieresis" horiz-adv-x="583" d="M158 583T141 600T124 645Q124 672 141 689T185 707Q213 707 230 690T247 645Q247 618 230 601T185 583Q158 583 141 600ZM397 583T381 600T364 645Q364 672 380 689T425 707Q453 707 470
690T487 645Q487 618 470 601T425 583Q397 583 381 600ZM556 239H179Q181 152 221 94T342 36Q383 36 432 50T516 91L531 56Q497 28 438 9T309 -10Q221 -10 157 22T59 112T25 248Q25 372 99 439T306 507Q389 507 445 475T529 388T556 268V239ZM423 288Q423 325 412
364T374 431T306 458Q251 458 220 410T181 288H423Z" />
<glyph unicode="&#xec;" glyph-name="igrave" horiz-adv-x="374" d="M110 677Q85 692 73 706T60 738Q60 754 72 767T109 780Q143 780 172 746L295 619L270 584L110 677ZM32 17Q62 27 110 39V454Q79 460 42 473V484L263 506V38Q299 31 341 17V0H32V17Z" />
<glyph unicode="&#xed;" glyph-name="iacute" horiz-adv-x="374" d="M67 619L189 745Q219 780 253 780Q277 780 289 767T302 738Q302 721 290 707T252 677L92 584L67 619ZM32 17Q62 27 110 39V454Q79 460 42 473V484L263 506V38Q299 31 341 17V0H32V17Z" />
<glyph unicode="&#xee;" glyph-name="icircumflex" horiz-adv-x="374" d="M-5 627Q29 648 80 695T150 770H222Q240 744 291 696T377 627L315 581Q282 607 244 645T188 710H184Q168 685 130 647T58 581L-5 627ZM32 17Q62 27 110 39V454Q79 460 42 473V484L263 506V38Q299
31 341 17V0H32V17Z" />
<glyph unicode="&#xef;" glyph-name="idieresis" horiz-adv-x="374" d="M39 583T22 600T5 645Q5 672 22 689T66 707Q94 707 111 690T128 645Q128 618 111 601T66 583Q39 583 22 600ZM278 583T262 600T245 645Q245 672 261 689T306 707Q334 707 351 690T368 645Q368
618 351 601T306 583Q278 583 262 600ZM32 17Q62 27 110 39V454Q79 460 42 473V484L263 506V38Q299 31 341 17V0H32V17Z" />
<glyph unicode="&#xf0;" glyph-name="eth" horiz-adv-x="620" d="M488 577T539 480T590 291Q590 149 518 70T301 -10Q214 -10 153 25T61 119T30 248Q30 311 58 369T148 464T306 502Q336 502 370 492T425 465Q394 542 323 615L145 515L122 581Q210 632 268 664Q215
704 156 731L196 779Q269 751 336 704Q446 768 479 789L521 726L397 656Q488 577 539 480ZM366 39T402 105T438 269Q438 317 422 359T376 427T310 453Q273 453 244 427T198 354T182 248Q182 161 214 100T303 39Q366 39 402 105Z" />
<glyph unicode="&#xf1;" glyph-name="ntilde" horiz-adv-x="720" d="M254 637T239 623T219 584H152Q160 641 191 671T274 701Q301 701 322 693T373 670Q396 658 406 654T429 649Q451 649 466 660T490 703H555Q550 647 520 616T434 584Q412 584 391 592T336 615Q294
637 276 637Q254 637 239 623ZM671 30T700 17V0H400V17Q438 33 470 39V360Q470 458 383 458Q354 458 321 442T255 389V38Q290 32 333 17V0H24V17Q67 34 102 39V457Q71 463 34 476V487L255 509V439Q289 470 336 488T437 507Q520 507 571 470T623 365V38Q671 30 700
17Z" />
<glyph unicode="&#xf2;" glyph-name="ograve" horiz-adv-x="628" d="M238 677Q213 692 201 706T188 738Q188 754 200 767T237 780Q271 780 300 746L423 619L398 584L238 677ZM173 -10T98 57T22 248Q22 371 97 439T314 507Q454 507 529 439T605 248Q605 125 530
58T314 -10Q173 -10 98 57ZM377 39T414 95T451 248Q451 346 414 402T314 458Q251 458 214 402T176 248Q176 150 213 95T314 39Q377 39 414 95Z" />
<glyph unicode="&#xf3;" glyph-name="oacute" horiz-adv-x="628" d="M203 619L325 745Q355 780 389 780Q413 780 425 767T438 738Q438 721 426 707T388 677L228 584L203 619ZM173 -10T98 57T22 248Q22 371 97 439T314 507Q454 507 529 439T605 248Q605 125 530
58T314 -10Q173 -10 98 57ZM377 39T414 95T451 248Q451 346 414 402T314 458Q251 458 214 402T176 248Q176 150 213 95T314 39Q377 39 414 95Z" />
<glyph unicode="&#xf4;" glyph-name="ocircumflex" horiz-adv-x="628" d="M122 627Q156 648 207 695T277 770H349Q367 744 418 696T504 627L442 581Q409 607 371 645T315 710H311Q295 685 257 647T185 581L122 627ZM173 -10T98 57T22 248Q22 371 97 439T314 507Q454
507 529 439T605 248Q605 125 530 58T314 -10Q173 -10 98 57ZM377 39T414 95T451 248Q451 346 414 402T314 458Q251 458 214 402T176 248Q176 150 213 95T314 39Q377 39 414 95Z" />
<glyph unicode="&#xf5;" glyph-name="otilde" horiz-adv-x="628" d="M119 641T150 671T233 701Q260 701 281 693T332 670Q355 658 365 654T388 649Q410 649 425 660T449 703H514Q509 647 479 616T393 584Q371 584 350 592T295 615Q253 637 235 637Q213 637 198
623T178 584H111Q119 641 150 671ZM173 -10T98 57T22 248Q22 371 97 439T314 507Q454 507 529 439T605 248Q605 125 530 58T314 -10Q173 -10 98 57ZM377 39T414 95T451 248Q451 346 414 402T314 458Q251 458 214 402T176 248Q176 150 213 95T314 39Q377 39 414
95Z" />
<glyph unicode="&#xf6;" glyph-name="odieresis" horiz-adv-x="628" d="M166 583T149 600T132 645Q132 672 149 689T193 707Q221 707 238 690T255 645Q255 618 238 601T193 583Q166 583 149 600ZM405 583T389 600T372 645Q372 672 388 689T433 707Q461 707 478
690T495 645Q495 618 478 601T433 583Q405 583 389 600ZM173 -10T98 57T22 248Q22 371 97 439T314 507Q454 507 529 439T605 248Q605 125 530 58T314 -10Q173 -10 98 57ZM377 39T414 95T451 248Q451 346 414 402T314 458Q251 458 214 402T176 248Q176 150 213 95T314
39Q377 39 414 95Z" />
<glyph unicode="&#xf7;" glyph-name="divide" horiz-adv-x="608" d="M263 414T243 435T223 488Q223 520 243 540T296 561Q330 561 350 541T370 488Q370 456 350 435T296 414Q263 414 243 435ZM40 349H568V276H40V349ZM262 64T242 84T222 137Q222 169 242 190T296
211Q330 211 350 190T370 137Q370 105 350 85T296 64Q262 64 242 84Z" />
<glyph unicode="&#xf8;" glyph-name="oslash" horiz-adv-x="628" d="M605 375T605 248Q605 125 530 58T314 -10Q212 -10 144 26L89 -34L49 0L100 56Q22 122 22 248Q22 371 97 439T314 507Q409 507 478 474L527 528L571 492L526 442Q605 375 605 248ZM174 193T186
152L414 403Q377 458 314 458Q250 458 212 402T174 248Q174 193 186 152ZM377 39T415 95T454 248Q454 304 440 349L210 98Q249 39 314 39Q377 39 415 95Z" />
<glyph unicode="&#xf9;" glyph-name="ugrave" horiz-adv-x="686" d="M248 692T236 706T223 738Q223 754 235 767T272 780Q306 780 335 746L458 619L433 584L273 677Q248 692 236 706ZM632 34T671 21V9L450 -12V44Q415 20 372 5T283 -10Q190 -10 137 26T83 129V457Q49
463 15 476V487L235 509V139Q235 85 258 62T324 39Q348 39 384 53T450 93V457Q418 463 383 476V487L602 509V39Q632 34 671 21Z" />
<glyph unicode="&#xfa;" glyph-name="uacute" horiz-adv-x="686" d="M282 584L257 619L379 745Q409 780 443 780Q467 780 479 767T492 738Q492 721 480 707T442 677L282 584ZM632 34T671 21V9L450 -12V44Q415 20 372 5T283 -10Q190 -10 137 26T83 129V457Q49 463
15 476V487L235 509V139Q235 85 258 62T324 39Q348 39 384 53T450 93V457Q418 463 383 476V487L602 509V39Q632 34 671 21Z" />
<glyph unicode="&#xfb;" glyph-name="ucircumflex" horiz-adv-x="686" d="M322 685T284 647T212 581L149 627Q183 648 234 695T304 770H376Q394 744 445 696T531 627L469 581Q436 607 398 645T342 710H338Q322 685 284 647ZM632 34T671 21V9L450 -12V44Q415 20
372 5T283 -10Q190 -10 137 26T83 129V457Q49 463 15 476V487L235 509V139Q235 85 258 62T324 39Q348 39 384 53T450 93V457Q418 463 383 476V487L602 509V39Q632 34 671 21Z" />
<glyph unicode="&#xfc;" glyph-name="udieresis" horiz-adv-x="686" d="M193 583T176 600T159 645Q159 672 176 689T220 707Q248 707 265 690T282 645Q282 618 265 601T220 583Q193 583 176 600ZM432 583T416 600T399 645Q399 672 415 689T460 707Q488 707 505
690T522 645Q522 618 505 601T460 583Q432 583 416 600ZM632 34T671 21V9L450 -12V44Q415 20 372 5T283 -10Q190 -10 137 26T83 129V457Q49 463 15 476V487L235 509V139Q235 85 258 62T324 39Q348 39 384 53T450 93V457Q418 463 383 476V487L602 509V39Q632 34
671 21Z" />
<glyph unicode="&#xfd;" glyph-name="yacute" horiz-adv-x="620" d="M287 584L262 619L384 745Q414 780 448 780Q472 780 484 767T497 738Q497 721 485 707T447 677L287 584ZM613 498V482Q572 466 544 460L341 -56Q312 -130 276 -161T174 -193Q119 -193 60 -165L85
-98Q143 -120 176 -120Q198 -120 213 -113T243 -85T274 -22L284 3L69 462Q31 468 4 481V498H294V480Q271 471 212 462L343 154L466 465Q428 471 401 480V498H613Z" />
<glyph unicode="&#xfe;" glyph-name="thorn" horiz-adv-x="658" d="M15 -217Q31 -212 94 -196V657Q63 663 26 675V687L247 709V447Q276 480 316 493T390 507Q509 507 572 446T635 261Q635 -10 379 -10Q340 -10 303 3T247 48V-198Q277 -203 325 -218V-236H15V-217ZM425
39T453 98T481 256Q481 359 455 408T364 458Q331 458 299 438T247 388V171Q247 116 277 78T360 39Q425 39 453 98Z" />
<glyph unicode="&#xff;" glyph-name="ydieresis" horiz-adv-x="620" d="M187 583T170 600T153 645Q153 672 170 689T214 707Q242 707 259 690T276 645Q276 618 259 601T214 583Q187 583 170 600ZM426 583T410 600T393 645Q393 672 409 689T454 707Q482 707 499
690T516 645Q516 618 499 601T454 583Q426 583 410 600ZM613 498V482Q572 466 544 460L341 -56Q312 -130 276 -161T174 -193Q119 -193 60 -165L85 -98Q143 -120 176 -120Q198 -120 213 -113T243 -85T274 -22L284 3L69 462Q31 468 4 481V498H294V480Q271 471 212
462L343 154L466 465Q428 471 401 480V498H613Z" />
<glyph unicode="&#x2013;" glyph-name="endash" horiz-adv-x="711" d="M47 322H663V240H47V322Z" />
<glyph unicode="&#x2014;" glyph-name="emdash" horiz-adv-x="1051" d="M47 322H1004V240H47V322Z" />
<glyph unicode="&#x2018;" glyph-name="quoteleft" horiz-adv-x="261" d="M92 417T71 443T50 505Q50 560 80 618T155 715L203 679Q145 616 137 565Q169 565 191 546T213 497Q213 463 193 440T135 417Q92 417 71 443Z" />
<glyph unicode="&#x2019;" glyph-name="quoteright" horiz-adv-x="261" d="M60 448Q83 472 102 502T126 562Q93 562 72 580T50 629Q50 663 70 686T128 710Q171 710 192 684T213 622Q213 567 183 509T108 411L60 448Z" />
<glyph unicode="&#x201a;" glyph-name="quotesinglbase" horiz-adv-x="261" d="M60 4Q118 67 126 118Q92 118 71 137T50 186Q50 220 70 243T128 266Q171 266 192 240T213 178Q213 123 183 65T108 -32L60 4Z" />
<glyph unicode="&#x201c;" glyph-name="quotedblleft" horiz-adv-x="456" d="M92 417T71 443T50 505Q50 560 80 618T155 715L203 679Q145 616 137 565Q169 565 191 546T213 497Q213 463 193 440T135 417Q92 417 71 443ZM286 417T266 443T245 505Q245 560 275 618T349
715L398 679Q339 618 331 565Q363 565 385 546T407 497Q407 463 387 440T330 417Q286 417 266 443Z" />
<glyph unicode="&#x201d;" glyph-name="quotedblright" horiz-adv-x="456" d="M60 448Q83 472 102 502T126 562Q93 562 72 580T50 629Q50 663 70 686T128 710Q171 710 192 684T213 622Q213 567 183 509T108 411L60 448ZM261 448Q284 472 303 502T327 562Q294 562
273 580T251 629Q251 663 271 686T329 710Q372 710 393 684T414 622Q414 567 384 509T309 411L261 448Z" />
<glyph unicode="&#x201e;" glyph-name="quotedblbase" horiz-adv-x="456" d="M60 4Q118 67 126 118Q92 118 71 137T50 186Q50 220 70 243T128 266Q171 266 192 240T213 178Q213 123 183 65T108 -32L60 4ZM261 4Q319 67 327 118Q293 118 272 137T251 186Q251 220
271 243T329 266Q372 266 393 240T414 178Q414 123 384 65T309 -32L261 4Z" />
<glyph unicode="&#x2022;" glyph-name="bullet" horiz-adv-x="288" d="M103 234T77 261T50 329Q50 371 76 398T144 425Q186 425 212 398T238 329Q238 289 212 262T144 234Q103 234 77 261Z" />
<glyph unicode="&#x2039;" glyph-name="guilsinglleft" horiz-adv-x="353" d="M204 88T149 146T34 252V273Q177 393 257 516L317 422Q282 361 166 262Q285 157 317 102L257 8Q204 88 149 146Z" />
<glyph unicode="&#x203a;" glyph-name="guilsinglright" horiz-adv-x="353" d="M36 102Q67 156 186 262Q70 362 36 422L96 516Q176 393 319 273V252Q259 204 204 146T96 8L36 102Z" />
</font>
</defs>
</svg>
