<?xml version="1.0" standalone="no"?>
<!DOCTYPE svg PUBLIC "-//W3C//DTD SVG 1.1//EN" "http://www.w3.org/Graphics/SVG/1.1/DTD/svg11.dtd">
<svg xmlns="http://www.w3.org/2000/svg">
<defs >
<font id="EncodeSans" horiz-adv-x="1075" ><font-face
    font-family="Encode Sans ExtraLight"
    units-per-em="2000"
    panose-1="0 0 3 0 0 0 0 0 0 0"
    ascent="2060"
    descent="-440"
    alphabetic="0" />
<glyph unicode=" " glyph-name="space" horiz-adv-x="483" />
<glyph unicode="!" glyph-name="exclam" horiz-adv-x="458" d="M199 328L182 896V1480H276V896L259 328H199ZM196 -11T176 8T155 61Q155 94 176 114T229 135Q261 135 282 115T303 61Q303 28 283 9T229 -11Q196 -11 176 8Z" />
<glyph unicode="&quot;" glyph-name="quotedbl" horiz-adv-x="685" d="M170 947L147 1616H246L223 947H170ZM462 947L439 1616H538L515 947H462Z" />
<glyph unicode="#" glyph-name="numbersign" horiz-adv-x="1112" d="M1012 914H794L758 566H1012V486H750L699 0H619L670 486H391L340 0H259L310 486H100V566H318L354 914H100V994H362L413 1480H494L443 994H722L773 1480H853L802 994H1012V914ZM678 566L714 914H435L399
566H678Z" />
<glyph unicode="$" glyph-name="dollar" horiz-adv-x="1021" d="M939 215T840 113T553 -12V-240H470V-18H443Q360 -18 271 -4T100 39V123Q274 64 446 64Q646 64 746 144T847 380Q847 468 814 527T709 626T518 697L452 714Q264 762 174 857T83 1107Q83 1270 182
1371T470 1493V1720H553V1498H571Q650 1498 731 1487T879 1453V1370Q730 1416 569 1416Q372 1416 274 1338T175 1112Q175 1025 205 967T303 869T484 799L550 782Q752 730 845 635T939 385Q939 215 840 113Z" />
<glyph unicode="%" glyph-name="percent" horiz-adv-x="1734" d="M280 577T197 687T113 1038Q113 1279 195 1388T426 1498Q574 1498 656 1389T739 1038Q739 798 656 688T426 577Q280 577 197 687ZM502 0L1146 1480H1232L588 0H502ZM536 651T596 740T657 1036Q657
1245 597 1334T426 1424Q315 1424 255 1335T195 1040Q195 832 255 742T426 651Q536 651 596 740ZM1161 -18T1078 92T995 442Q995 683 1078 793T1308 903Q1455 903 1538 793T1621 442Q1621 202 1538 92T1308 -18Q1161 -18 1078 92ZM1418 56T1478 144T1539 441Q1539
649 1479 739T1308 829Q1198 829 1138 740T1077 444Q1077 237 1137 147T1308 56Q1418 56 1478 144Z" />
<glyph unicode="&amp;" glyph-name="ampersand" horiz-adv-x="1448" d="M1398 -20L1136 190Q1071 87 953 35T671 -18Q503 -18 387 34T212 181T153 402Q153 539 219 643T411 810Q360 878 338 944T315 1090Q315 1288 436 1393T799 1498Q926 1498 1034 1469V1386Q925
1416 799 1416Q598 1416 503 1334T407 1090Q407 1012 430 950T514 819T687 658L1108 320Q1132 394 1132 491Q1132 557 1121 629T1087 768H1172Q1213 638 1213 491Q1213 365 1175 266L1448 47L1398 -20ZM819 61T919 106T1073 241L638 591Q527 679 462 750Q245 641
245 411Q245 248 352 155T676 61Q819 61 919 106Z" />
<glyph unicode="&apos;" glyph-name="quotesingle" horiz-adv-x="393" d="M170 947L147 1616H246L223 947H170Z" />
<glyph unicode="(" glyph-name="parenleft" horiz-adv-x="633" d="M135 -8T135 588Q135 1184 476 1616H575Q396 1389 312 1132T228 588Q228 301 312 44T575 -440H476Q135 -8 135 588Z" />
<glyph unicode=")" glyph-name="parenright" horiz-adv-x="633" d="M238 -213T322 44T406 588Q406 875 322 1132T58 1616H157Q498 1184 498 588Q498 -8 157 -440H58Q238 -213 322 44Z" />
<glyph unicode="*" glyph-name="asterisk" horiz-adv-x="879" d="M473 1202L606 1048L711 905L650 860L544 1003L440 1178L335 1003L229 860L168 905L274 1048L406 1202L209 1249L30 1306L54 1378L231 1320L419 1241L402 1444V1616H477V1444L460 1241L648 1320L825
1378L849 1306L670 1249L473 1202Z" />
<glyph unicode="+" glyph-name="plus" horiz-adv-x="1065" d="M491 373V721H163V799H491V1147H574V799H902V721H574V373H491Z" />
<glyph unicode="," glyph-name="comma" horiz-adv-x="418" d="M282 136T282 39Q282 -52 262 -139T207 -303H152Q181 -218 196 -149T214 -11H209Q177 -11 156 10T135 64Q135 96 155 116T207 136Q282 136 282 39Z" />
<glyph unicode="-" glyph-name="hyphen" horiz-adv-x="807" d="M163 521V600H644V521H163Z" />
<glyph unicode="." glyph-name="period" horiz-adv-x="418" d="M176 -11T156 9T135 62Q135 95 155 115T209 136Q241 136 262 116T283 62Q283 29 263 9T209 -11Q176 -11 156 9Z" />
<glyph unicode="/" glyph-name="slash" horiz-adv-x="539" d="M0 -240L450 1616H539L88 -240H0Z" />
<glyph unicode="0" glyph-name="zero" horiz-adv-x="1209" d="M374 -18T250 160T125 740Q125 1142 248 1320T605 1498Q837 1498 960 1320T1084 740Q1084 339 960 161T605 -18Q374 -18 250 160ZM728 64T813 126T945 337T992 736Q992 991 945 1141T813 1353T605
1416Q481 1416 396 1354T264 1143T217 744Q217 489 264 339T396 127T605 64Q728 64 813 126Z" />
<glyph unicode="1" glyph-name="one" horiz-adv-x="685" d="M435 1484H490V0H401V1362L23 1087V1182L435 1484Z" />
<glyph unicode="2" glyph-name="two" horiz-adv-x="947" d="M878 80V0H66V51L495 639Q609 792 656 901T704 1114Q704 1273 621 1344T367 1416Q197 1416 48 1358V1441Q112 1468 196 1483T370 1498Q575 1498 684 1406T794 1124Q794 1040 773 963T702 797T564 591L188
80H878Z" />
<glyph unicode="3" glyph-name="three" horiz-adv-x="978" d="M733 738T817 642T902 395Q902 197 774 90T400 -18Q312 -18 224 -3T56 40V122Q229 62 400 62Q604 62 708 147T813 396Q813 552 714 636T413 720H254V801H318Q535 801 649 886T764 1130Q764 1270 675
1344T415 1418Q246 1418 95 1362V1444Q164 1470 248 1484T418 1498Q627 1498 740 1403T853 1132Q853 1000 779 907T571 771Q733 738 817 642Z" />
<glyph unicode="4" glyph-name="four" horiz-adv-x="1140" d="M1095 457V378H877V0H791V378H53V429L653 1480H748L163 457H791L807 980H877V457H1095Z" />
<glyph unicode="5" glyph-name="five" horiz-adv-x="988" d="M553 821T680 771T868 632T928 408Q928 200 800 91T427 -18Q338 -18 249 -3T82 41V123Q166 93 254 78T428 62Q839 62 839 406Q839 518 788 590T625 702T326 753L141 764L190 1480H866V1401H272L232
840L351 833Q553 821 680 771Z" />
<glyph unicode="6" glyph-name="six" horiz-adv-x="1106" d="M729 833T830 786T986 643T1042 408Q1042 269 989 173T840 30T623 -18Q391 -18 264 149T136 692Q136 1107 284 1302T722 1498Q874 1498 978 1455V1372Q923 1395 856 1406T723 1417Q474 1417 350 1249T226
711Q293 768 391 800T593 833Q729 833 830 786ZM773 61T864 146T955 405Q955 582 857 668T585 754Q489 754 392 721T227 621Q237 319 339 190T624 61Q773 61 864 146Z" />
<glyph unicode="7" glyph-name="seven" horiz-adv-x="902" d="M12 1480H843V1429L271 0H178L741 1400H12V1480Z" />
<glyph unicode="8" glyph-name="eight" horiz-adv-x="1209" d="M952 682T1026 594T1101 370Q1101 252 1044 165T877 30T615 -18Q370 -18 239 83T108 372Q108 512 184 616T399 773Q273 831 216 916T158 1124Q158 1238 211 1322T364 1452T601 1498Q740 1498 841
1453T996 1324T1050 1126Q1050 994 982 897T783 740Q952 682 1026 594ZM249 1035T285 971T407 861T642 780Q678 771 688 769Q834 830 899 912T965 1122Q965 1266 869 1342T600 1419Q430 1419 340 1342T249 1127Q249 1035 285 971ZM806 61T908 139T1011 364Q1011
456 974 517T852 622T620 701Q536 722 485 739Q347 694 272 599T197 377Q197 223 303 142T616 61Q806 61 908 139Z" />
<glyph unicode="9" glyph-name="nine" horiz-adv-x="1106" d="M715 1498T842 1331T970 788Q970 373 822 178T384 -18Q232 -18 128 25V108Q183 85 250 74T383 63Q632 63 756 231T880 769Q813 712 715 680T513 647Q377 647 276 694T120 837T64 1072Q64 1211 117
1307T266 1450T483 1498Q715 1498 842 1331ZM151 898T249 812T521 726Q617 726 714 759T879 859Q869 1161 767 1290T482 1419Q333 1419 242 1334T151 1075Q151 898 249 812Z" />
<glyph unicode=":" glyph-name="colon" horiz-adv-x="418" d="M176 -11T156 9T135 62Q135 95 155 115T209 136Q241 136 262 116T283 62Q283 29 263 9T209 -11Q176 -11 156 9ZM176 944T156 964T135 1017Q135 1050 155 1070T209 1091Q241 1091 262 1071T283 1017Q283
984 263 964T209 944Q176 944 156 964Z" />
<glyph unicode=";" glyph-name="semicolon" horiz-adv-x="418" d="M282 136T282 39Q282 -52 262 -139T207 -303H152Q181 -218 196 -149T214 -11H209Q177 -11 156 10T135 64Q135 96 155 116T207 136Q282 136 282 39ZM176 944T156 964T135 1017Q135 1050 155 1070T209
1091Q241 1091 262 1071T283 1017Q283 984 263 964T209 944Q176 944 156 964Z" />
<glyph unicode="&lt;" glyph-name="less" horiz-adv-x="1065" d="M902 1124V1038L265 760L902 482V396L163 724V796L902 1124Z" />
<glyph unicode="=" glyph-name="equal" horiz-adv-x="1065" d="M163 906V984H902V906H163ZM163 536V614H902V536H163Z" />
<glyph unicode="&gt;" glyph-name="greater" horiz-adv-x="1065" d="M163 1124L902 796V724L163 396V482L800 760L163 1038V1124Z" />
<glyph unicode="?" glyph-name="question" horiz-adv-x="864" d="M343 738Q481 786 561 841T677 966T712 1130Q712 1270 623 1343T362 1417Q195 1417 43 1362V1444Q112 1470 196 1484T366 1498Q575 1498 688 1403T801 1132Q801 1024 766 945T650 803T430 684L419
313H359L343 738ZM357 -11T336 9T315 61Q315 94 335 114T389 135Q421 135 441 115T462 61Q462 29 442 9T389 -11Q357 -11 336 9Z" />
<glyph unicode="@" glyph-name="at" horiz-adv-x="1838" d="M1314 1498T1518 1267T1722 565Q1722 365 1681 235T1570 45T1408 -16Q1326 -16 1275 21T1206 126H1197Q1141 59 1054 22T868 -16Q721 -16 636 59T551 269Q551 406 637 481T908 578L1197 613V742Q1197
848 1164 908T1068 992T906 1016Q841 1016 766 1004T618 965V1047Q680 1070 759 1083T911 1096Q1035 1096 1116 1063T1241 951T1284 741V233Q1284 141 1316 100T1417 59Q1479 59 1529 108T1611 269T1642 555Q1642 1004 1461 1212T924 1421Q567 1421 384 1206T201
524Q201 201 286 1T541 -291T966 -383Q1061 -383 1150 -369T1336 -325V-404Q1252 -430 1157 -445T966 -460Q544 -459 330 -222T115 520Q115 1019 322 1258T924 1498Q1314 1498 1518 1267ZM968 62T1051 101T1197 224V538L910 504Q772 488 708 433T644 278Q644 172
703 117T879 62Q968 62 1051 101Z" />
<glyph unicode="A" glyph-name="A" horiz-adv-x="1299" d="M1170 0L977 517H320L128 0H35L591 1480H708L1264 0H1170ZM351 599H947L649 1398L351 599Z" />
<glyph unicode="B" glyph-name="B" horiz-adv-x="1225" d="M988 737T1066 641T1144 397Q1144 261 1082 171T883 35T527 -11Q360 -11 185 10V1459Q274 1477 363 1485T561 1494Q842 1494 971 1400T1101 1108Q1101 978 1036 888T829 765Q988 737 1066 641ZM399 1415T273
1392V801H599Q818 801 915 875T1013 1107Q1013 1218 968 1285T825 1383T564 1415Q399 1415 273 1392ZM729 69T843 104T1006 212T1055 398Q1055 563 951 641T626 720H273V85Q384 69 536 69Q729 69 843 104Z" />
<glyph unicode="C" glyph-name="C" horiz-adv-x="1112" d="M442 -18T279 158T115 738Q115 1134 280 1316T755 1498Q916 1498 1075 1452V1368Q921 1416 752 1416Q574 1416 455 1350T272 1135T209 742Q209 490 273 341T454 128T742 64Q828 64 906 77T1075 123V39Q915
-18 739 -18Q442 -18 279 158Z" />
<glyph unicode="D" glyph-name="D" horiz-adv-x="1355" d="M429 -10T355 -6T185 10V1460Q360 1494 535 1494Q886 1494 1063 1308T1240 740Q1240 355 1058 173T511 -10Q429 -10 355 -6ZM731 71T869 140T1077 358T1147 740Q1147 1087 996 1249T532 1412Q411 1412
274 1391V87Q382 71 519 71Q731 71 869 140Z" />
<glyph unicode="E" glyph-name="E" horiz-adv-x="1126" d="M274 82H1055V0H185V1480H1045V1398H274V801H949V720H274V82Z" />
<glyph unicode="F" glyph-name="F" horiz-adv-x="1085" d="M1035 1398H274V799H940V717H274V0H185V1480H1035V1398Z" />
<glyph unicode="G" glyph-name="G" horiz-adv-x="1311" d="M1149 720V17Q1058 2 986 -4T835 -11Q475 -11 296 169T115 738Q114 1132 293 1315T789 1498Q947 1498 1119 1452V1368Q1029 1394 950 1405T790 1416Q512 1416 360 1258T209 739Q209 502 278 355T485 140T833
72Q966 72 1062 89V720H1149Z" />
<glyph unicode="H" glyph-name="H" horiz-adv-x="1408" d="M185 0V1480H274V802H1134V1480H1223V0H1134V719H274V0H185Z" />
<glyph unicode="I" glyph-name="I" horiz-adv-x="459" d="M185 0V1480H274V0H185Z" />
<glyph unicode="J" glyph-name="J" horiz-adv-x="459" d="M-3 -298Q97 -161 141 -25T186 287V1480H274V257Q266 80 218 -57T59 -341L-3 -298Z" />
<glyph unicode="K" glyph-name="K" horiz-adv-x="1195" d="M1101 0L521 719H274V0H185V1480H274V802H525L1062 1480H1166L594 762L1208 0H1101Z" />
<glyph unicode="L" glyph-name="L" horiz-adv-x="1037" d="M185 0V1480H274V82H1024V0H185Z" />
<glyph unicode="M" glyph-name="M" horiz-adv-x="1707" d="M1417 1480H1517V0H1432V1322L899 201H808L274 1318V0H189V1480H290L855 289L1417 1480Z" />
<glyph unicode="N" glyph-name="N" horiz-adv-x="1436" d="M1166 1480H1251V0H1156L271 1342V0H185V1480H280L1166 138V1480Z" />
<glyph unicode="O" glyph-name="O" horiz-adv-x="1383" d="M419 -18T267 165T115 740Q115 1131 268 1314T692 1498Q964 1498 1116 1315T1268 740Q1268 349 1115 166T692 -18Q419 -18 267 165ZM922 65T1048 222T1175 736Q1175 1098 1049 1256T692 1415Q461 1415
335 1258T208 744Q208 382 334 224T692 65Q922 65 1048 222Z" />
<glyph unicode="P" glyph-name="P" horiz-adv-x="1195" d="M185 1460Q364 1494 534 1494Q814 1494 956 1374T1098 1004Q1098 760 951 636T492 511Q384 511 274 521V0H185V1460ZM762 591T884 691T1006 1001Q1006 1215 891 1314T537 1414Q403 1414 274 1393V605Q373
591 495 591Q762 591 884 691Z" />
<glyph unicode="Q" glyph-name="Q" horiz-adv-x="1383" d="M1268 367T1124 176T701 -12Q909 -82 1242 -110L1228 -191Q794 -145 555 -43T216 243T115 739Q115 1130 268 1314T692 1498Q963 1498 1115 1316T1268 740Q1268 367 1124 176ZM208 381T334 223T692 65Q922
65 1048 222T1175 736Q1175 1098 1049 1256T692 1415Q461 1415 335 1258T208 744Q208 381 334 223Z" />
<glyph unicode="R" glyph-name="R" horiz-adv-x="1275" d="M1105 0L605 646Q561 642 501 642Q395 642 273 652V0H185V1460Q274 1476 360 1485T549 1494Q830 1494 964 1392T1099 1074Q1102 721 699 656L1210 0H1105ZM680 722T793 760T959 875T1012 1071Q1012 1194
965 1269T816 1379T548 1414Q466 1414 404 1409T273 1391V731Q332 727 384 725T499 722Q680 722 793 760Z" />
<glyph unicode="S" glyph-name="S" horiz-adv-x="1021" d="M360 -18T271 -4T100 39V123Q274 64 447 64Q646 64 746 144T847 380Q847 468 814 527T709 626T518 697L452 714Q264 762 174 857T83 1107Q83 1228 138 1316T302 1451T570 1498Q650 1498 731 1487T879
1453V1370Q730 1416 568 1416Q372 1416 274 1338T175 1112Q175 1025 205 967T303 869T484 799L550 782Q752 730 845 635T939 385Q939 190 810 86T443 -18Q360 -18 271 -4Z" />
<glyph unicode="T" glyph-name="T" horiz-adv-x="1126" d="M519 0V1398H14V1480H1112V1398H607V0H519Z" />
<glyph unicode="U" glyph-name="U" horiz-adv-x="1382" d="M514 -18T401 41T233 222T178 536V1480H266V524Q266 364 310 263T449 113T692 64Q841 64 935 113T1073 263T1118 524V1480H1204V536Q1204 344 1150 222T982 41T692 -18Q514 -18 401 41Z" />
<glyph unicode="V" glyph-name="V" horiz-adv-x="1260" d="M1154 1480H1245L693 0H568L16 1480H112L633 74L1154 1480Z" />
<glyph unicode="W" glyph-name="W" horiz-adv-x="2041" d="M1886 1480H1974L1546 0H1426L1021 1382L615 0H495L66 1480H159L558 86L964 1480H1079L1485 84L1886 1480Z" />
<glyph unicode="X" glyph-name="X" horiz-adv-x="1234" d="M670 750L1203 0H1096L616 675L135 0H30L563 749L42 1480H149L617 822L1087 1480H1191L670 750Z" />
<glyph unicode="Y" glyph-name="Y" horiz-adv-x="1126" d="M1139 1480L607 674V0H519V674L-22 1480H82L564 758L1040 1480H1139Z" />
<glyph unicode="Z" glyph-name="Z" horiz-adv-x="1114" d="M183 81H1051V0H63V51L919 1399H74V1480H1039V1429L183 81Z" />
<glyph unicode="[" glyph-name="bracketleft" horiz-adv-x="633" d="M205 -440V1616H672V1537H293V-361H672V-440H205Z" />
<glyph unicode="\" glyph-name="backslash" horiz-adv-x="542" d="M452 -240L0 1616H90L542 -240H452Z" />
<glyph unicode="]" glyph-name="bracketright" horiz-adv-x="633" d="M-39 -440V-361H340V1537H-39V1616H428V-440H-39Z" />
<glyph unicode="^" glyph-name="asciicircum" horiz-adv-x="1112" d="M1002 740H905L556 1410L207 740H110L500 1480H610L1002 740Z" />
<glyph unicode="_" glyph-name="underscore" horiz-adv-x="1083" d="M94 -79V0H988V-79H94Z" />
<glyph unicode="`" glyph-name="grave" horiz-adv-x="1013" d="M465 1262L239 1616H338L547 1262H465Z" />
<glyph unicode="a" glyph-name="a" horiz-adv-x="990" d="M587 1097T669 1063T795 951T838 738V0H761L754 127H746Q690 59 605 22T422 -16Q274 -16 189 59T104 269Q104 407 192 482T471 579L750 612V740Q750 847 717 907T620 992T456 1017Q390 1017 314 1005T165
967V1048Q227 1071 307 1084T461 1097Q587 1097 669 1063ZM522 62T604 101T750 224V537L472 505Q328 489 263 434T198 277Q198 171 257 117T433 62Q522 62 604 101Z" />
<glyph unicode="b" glyph-name="b" horiz-adv-x="1084" d="M385 -18T309 -7T166 25V1616H254V967H261Q313 1026 392 1061T568 1097Q754 1097 866 970T979 561Q979 -18 461 -18Q385 -18 309 -7ZM677 62T782 179T887 551Q887 806 799 911T555 1016Q465 1016 386
977T254 862V91Q296 78 352 70T467 62Q677 62 782 179Z" />
<glyph unicode="c" glyph-name="c" horiz-adv-x="837" d="M329 -18T217 116T105 540Q105 832 226 964T590 1097Q705 1097 802 1069V986Q695 1016 595 1016Q458 1016 371 970T241 821T197 544Q197 369 237 263T357 110T556 63Q665 63 802 111V28Q674 -18 546 -18Q329
-18 217 116Z" />
<glyph unicode="d" glyph-name="d" horiz-adv-x="1084" d="M332 -18T219 110T105 519Q105 1097 630 1097Q731 1097 830 1080V1616H918V0H841L834 119H825Q774 57 696 20T523 -18Q332 -18 219 110ZM621 63T699 103T830 225V995Q788 1005 734 1011T627 1017Q410
1017 304 900T197 528Q197 274 285 169T533 63Q621 63 699 103Z" />
<glyph unicode="e" glyph-name="e" horiz-adv-x="994" d="M906 506H197Q202 269 299 166T587 62Q700 62 855 110V28Q711 -18 580 -18Q345 -18 225 115T105 541Q105 823 213 960T513 1097Q703 1097 804 962T906 540V506ZM364 1020T283 917T197 581H817Q813 815
736 917T512 1020Q364 1020 283 917Z" />
<glyph unicode="f" glyph-name="f" horiz-adv-x="678" d="M448 1555T384 1493T320 1287V1081H685V1002H320V0H232V1002H16V1081H232V1283Q232 1636 583 1636Q657 1636 724 1624V1541Q651 1555 583 1555Q448 1555 384 1493Z" />
<glyph unicode="g" glyph-name="g" horiz-adv-x="1084" d="M399 -460T317 -447T171 -410V-327Q326 -380 468 -380Q593 -380 672 -344T791 -226T830 -7V113H823Q770 54 691 19T515 -17Q330 -17 218 110T105 519Q105 811 236 954T623 1097Q698 1097 775 1086T918
1054V2Q918 -242 808 -351T470 -460Q399 -460 317 -447ZM617 64T697 103T830 218V991Q787 1003 731 1010T617 1017Q407 1017 302 900T197 528Q197 274 285 169T529 64Q617 64 697 103Z" />
<glyph unicode="h" glyph-name="h" horiz-adv-x="1098" d="M166 1616H254V955H261Q330 1025 419 1061T610 1097Q945 1097 945 735V0H857V734Q857 884 790 948T598 1013Q503 1013 410 972T254 844V0H166V1616Z" />
<glyph unicode="i" glyph-name="i" horiz-adv-x="420" d="M166 0V1081H254V0H166ZM177 1351T158 1370T138 1422Q138 1454 157 1474T210 1494Q243 1494 263 1474T283 1422Q283 1389 263 1370T210 1351Q177 1351 158 1370Z" />
<glyph unicode="j" glyph-name="j" horiz-adv-x="420" d="M-22 -418Q78 -280 122 -145T166 167V1081H254V174Q254 -17 204 -163T39 -461L-22 -418ZM177 1357T158 1376T138 1428Q138 1460 157 1480T210 1500Q243 1500 263 1480T283 1428Q283 1395 263 1376T210
1357Q177 1357 158 1376Z" />
<glyph unicode="k" glyph-name="k" horiz-adv-x="975" d="M885 0L460 513H254V0H166V1616H254V592H459L854 1081H959L535 554L991 0H885Z" />
<glyph unicode="l" glyph-name="l" horiz-adv-x="420" d="M166 0V1616H254V0H166Z" />
<glyph unicode="m" glyph-name="m" horiz-adv-x="1645" d="M1327 1097T1410 1011T1493 734V0H1405V732Q1405 883 1343 949T1171 1015Q1091 1015 1009 975T868 844Q876 793 876 735V0H789V732Q789 883 729 949T560 1015Q477 1015 395 972T254 839V0H166V1081H242L249
953H258Q321 1024 402 1060T575 1097Q775 1097 843 934Q916 1020 1004 1058T1183 1097Q1327 1097 1410 1011Z" />
<glyph unicode="n" glyph-name="n" horiz-adv-x="1098" d="M166 1081H242L249 953H258Q327 1023 417 1060T607 1097Q945 1097 945 734V0H857V732Q857 883 790 949T598 1015Q506 1015 412 974T254 845V0H166V1081Z" />
<glyph unicode="o" glyph-name="o" horiz-adv-x="1069" d="M332 -18T219 117T105 540Q105 826 218 961T535 1097Q738 1097 851 963T965 540Q965 255 851 119T535 -18Q332 -18 219 117ZM698 62T785 172T873 537Q873 796 786 906T535 1017Q371 1017 284 908T197
543Q197 284 284 173T535 62Q698 62 785 172Z" />
<glyph unicode="p" glyph-name="p" horiz-adv-x="1084" d="M166 1081H243L251 960H258Q309 1023 387 1060T561 1097Q750 1097 864 970T979 561Q979 267 847 125T453 -18Q370 -18 254 -2V-440H166V1081ZM674 62T780 179T887 551Q887 806 798 911T551 1016Q463 1016
385 976T254 854V84Q295 74 350 68T456 62Q674 62 780 179Z" />
<glyph unicode="q" glyph-name="q" horiz-adv-x="1084" d="M830 112H823Q770 53 691 18T515 -18Q330 -18 218 109T105 518Q105 1097 623 1097Q698 1097 775 1086T918 1054V-440H830V112ZM617 63T697 102T830 217V991Q787 1003 731 1010T617 1017Q407 1017 302
900T197 528Q197 274 285 169T529 63Q617 63 697 102Z" />
<glyph unicode="r" glyph-name="r" horiz-adv-x="684" d="M166 1081H242L249 934H258Q316 1008 405 1049T587 1090Q633 1090 671 1083V997Q636 1002 584 1002Q494 1002 402 957T254 827V0H166V1081Z" />
<glyph unicode="s" glyph-name="s" horiz-adv-x="866" d="M245 -18T118 23V105Q196 81 262 71T398 61Q551 61 625 116T699 278Q699 367 654 414T501 486L368 514Q226 546 164 616T101 800Q101 887 144 954T275 1059T492 1097Q617 1097 732 1067V985Q666 1003 611
1010T493 1018Q337 1018 264 959T190 803Q190 721 234 671T381 599L513 571Q662 537 725 469T788 284Q788 141 688 62T396 -18Q245 -18 118 23Z" />
<glyph unicode="t" glyph-name="t" horiz-adv-x="706" d="M622 64T698 82V-1Q623 -18 547 -18Q224 -18 224 317V1002H8V1081H224L236 1480H312V1081H677V1002H312V332Q312 188 373 126T558 64Q622 64 698 82Z" />
<glyph unicode="u" glyph-name="u" horiz-adv-x="1088" d="M330 -18T241 67T152 345V1081H240V345Q240 196 307 131T495 65Q587 65 679 106T834 234V1081H922V0H846L838 123H830Q761 54 672 18T486 -18Q330 -18 241 67Z" />
<glyph unicode="v" glyph-name="v" horiz-adv-x="1008" d="M893 1081H985L563 0H445L23 1081H119L506 78L893 1081Z" />
<glyph unicode="w" glyph-name="w" horiz-adv-x="1639" d="M1482 1081H1571L1244 0H1129L820 988L510 0H396L68 1081H159L456 88L764 1081H878L1186 90L1482 1081Z" />
<glyph unicode="x" glyph-name="x" horiz-adv-x="956" d="M532 547L933 0H826L477 477L132 0H26L425 545L33 1081H140L480 615L820 1081H923L532 547Z" />
<glyph unicode="y" glyph-name="y" horiz-adv-x="1008" d="M893 1081H985L391 -440H300L473 0H445L23 1081H119L505 73L893 1081Z" />
<glyph unicode="z" glyph-name="z" horiz-adv-x="876" d="M179 79H820V0H61V53L691 1002H73V1081H808V1028L179 79Z" />
<glyph unicode="{" glyph-name="braceleft" horiz-adv-x="673" d="M333 757T301 701T201 623Q269 600 301 544T333 391V-135Q333 -262 396 -320T589 -379H712V-450Q660 -460 588 -460Q245 -460 245 -129V401Q245 496 201 539T66 583H48V662H66Q156 662 200 705T245
844V1305Q245 1636 588 1636Q660 1636 712 1626V1555H589Q459 1555 396 1497T333 1311V854Q333 757 301 701Z" />
<glyph unicode="|" glyph-name="bar" horiz-adv-x="456" d="M185 -440V1616H271V-440H185Z" />
<glyph unicode="}" glyph-name="braceright" horiz-adv-x="673" d="M626 662V583H608Q517 583 473 540T428 401V-129Q428 -460 85 -460Q13 -460 -39 -450V-379H84Q215 -379 277 -321T340 -135V391Q340 488 372 544T472 623Q404 645 372 701T340 854V1311Q340 1438
278 1496T84 1555H-39V1626Q13 1636 85 1636Q428 1636 428 1305V844Q428 749 472 706T608 662H626Z" />
<glyph unicode="~" glyph-name="asciitilde" horiz-adv-x="1065" d="M659 657T616 673T513 720Q460 747 427 760T360 773Q246 773 163 665V761Q196 805 247 828T359 851Q406 851 449 835T552 788Q605 761 638 748T705 735Q818 735 902 843V748Q868 704 817 681T706
657Q659 657 616 673Z" />
<glyph unicode="&#xa0;" glyph-name="uni00A0" horiz-adv-x="483" />
<glyph unicode="&#xa1;" glyph-name="exclamdown" horiz-adv-x="458" d="M262 1092T282 1072T303 1019Q303 986 282 966T229 945Q197 945 176 965T155 1019Q155 1052 175 1072T229 1092Q262 1092 282 1072ZM199 751H259L276 184V-380H182V184L199 751Z" />
<glyph unicode="&#xa2;" glyph-name="cent" horiz-adv-x="842" d="M456 1016T370 970T240 821T197 544Q197 369 237 263T357 110T556 63Q665 63 802 111V28Q693 -11 584 -17V-240H503V-17Q307 -5 206 129T105 540Q105 804 205 937T503 1092V1321H584V1097H591Q699
1097 802 1069V986Q692 1016 592 1016Q456 1016 370 970Z" />
<glyph unicode="&#xa3;" glyph-name="sterling" horiz-adv-x="1232" d="M1153 80V0H79V80H310V711H79V789H310V1061Q310 1498 805 1498Q886 1498 966 1487T1115 1453V1370Q966 1416 804 1416Q599 1416 499 1333T398 1062V789H943V711H398V80H1153Z" />
<glyph unicode="&#xa4;" glyph-name="currency" horiz-adv-x="1112" d="M903 453L1004 356L940 292L843 393L772 487Q730 448 676 428T556 408Q426 408 340 486L269 393L172 292L108 356L209 453L305 525Q241 612 241 740Q241 866 305 953L209 1027L106 1124L170
1188L268 1087L341 992Q425 1070 556 1070Q621 1070 675 1050T771 992L845 1087L942 1188L1006 1124L903 1027L807 953Q872 866 872 740Q872 613 807 526L903 453ZM629 479T683 510T768 599T799 740Q799 817 771 876T689 968T558 1001Q485 1001 430 970T344 880T313
740Q313 659 343 600T429 510T556 479Q629 479 683 510Z" />
<glyph unicode="&#xa5;" glyph-name="yen" horiz-adv-x="1175" d="M1167 1480L671 733H951V659H632V389H951V315H632V0H543V315H224V389H543V659H224V733H504L7 1480H110L589 758L1068 1480H1167Z" />
<glyph unicode="&#xa6;" glyph-name="brokenbar" horiz-adv-x="456" d="M185 836V1616H271V836H185ZM185 -440V340H271V-440H185Z" />
<glyph unicode="&#xa7;" glyph-name="section" horiz-adv-x="972" d="M785 438T802 391T819 284Q819 141 719 62T426 -18Q278 -18 149 23V103Q226 80 292 70T428 60Q731 60 731 277Q731 366 685 413T532 485L396 514Q256 545 194 615T131 799Q131 861 155 913T227
1006Q152 1075 152 1199Q152 1286 195 1353T326 1458T544 1496Q668 1496 783 1466V1386Q718 1404 664 1411T546 1418Q389 1418 315 1359T241 1203Q241 1122 285 1072T432 999L568 970Q715 936 778 868T841 684Q841 555 748 473Q785 438 802 391ZM545 566Q631 546
685 517Q759 576 759 677Q759 766 711 815T555 889L419 918Q346 934 291 962Q252 933 233 892T213 803Q213 721 259 670T409 595L545 566Z" />
<glyph unicode="&#xa8;" glyph-name="dieresis" horiz-adv-x="1013" d="M271 1352T252 1371T232 1422Q232 1454 251 1474T303 1494Q334 1494 353 1474T373 1422Q373 1390 354 1371T303 1352Q271 1352 252 1371ZM678 1352T659 1371T639 1422Q639 1454 658 1474T710
1494Q742 1494 761 1474T781 1422Q781 1390 762 1371T710 1352Q678 1352 659 1371Z" />
<glyph unicode="&#xa9;" glyph-name="copyright" horiz-adv-x="1719" d="M639 -22T470 73T208 340T115 740Q115 967 208 1139T470 1407T860 1502Q1081 1502 1249 1407T1511 1140T1604 740Q1604 513 1511 341T1250 73T860 -22Q639 -22 470 73ZM1059 54T1210 139T1444
379T1527 740Q1527 945 1444 1100T1210 1341T860 1426Q660 1426 509 1341T275 1101T192 740Q192 535 275 380T509 139T860 54Q1059 54 1210 139ZM778 324T691 370T556 509T508 734Q508 931 615 1037T921 1144Q1023 1144 1113 1116V1040Q1015 1067 924 1067Q762
1067 678 986T593 738Q593 570 674 486T903 401Q1005 401 1113 442V365Q1018 324 896 324Q778 324 691 370Z" />
<glyph unicode="&#xaa;" glyph-name="ordfeminine" horiz-adv-x="837" d="M495 1493T566 1465T673 1372T710 1196V610H639L632 711H626Q578 657 506 627T351 596Q226 596 154 658T82 829Q82 940 157 1002T393 1080L628 1105V1201Q628 1284 600 1331T518 1398T378
1418Q324 1418 261 1408T135 1376V1452Q189 1472 255 1482T386 1493Q495 1493 566 1465ZM439 669T507 699T628 793V1039L397 1014Q276 1001 222 958T168 837Q168 755 218 712T366 669Q439 669 507 699Z" />
<glyph unicode="&#xab;" glyph-name="guillemotleft" horiz-adv-x="909" d="M380 139L125 561L380 982H474L218 561L474 139H380ZM730 139L475 561L730 982H824L568 561L824 139H730Z" />
<glyph unicode="&#xac;" glyph-name="logicalnot" horiz-adv-x="1334" d="M1099 192V721H163V799H1182V192H1099Z" />
<glyph unicode="&#xad;" glyph-name="uni00AD" horiz-adv-x="807" d="M163 521V600H644V521H163Z" />
<glyph unicode="&#xae;" glyph-name="registered" horiz-adv-x="1532" d="M945 1498T1083 1420T1299 1202T1376 882Q1376 702 1299 563T1084 346T766 268Q587 268 449 345T233 562T156 882Q156 1062 233 1202T448 1420T766 1498Q945 1498 1083 1420ZM927 339T1048
406T1236 596T1302 882Q1302 1045 1236 1168T1049 1359T766 1427Q605 1427 484 1360T296 1169T230 882Q230 719 296 596T483 406T766 339Q927 339 1048 406ZM997 941T963 898T861 837L1022 600H940L786 825Q775 824 752 824H629V600H557V1192H752Q872 1192 934
1144T997 1007Q997 941 963 898ZM765 890Q848 890 887 918T926 1007Q926 1126 765 1126H629V890H765Z" />
<glyph unicode="&#xaf;" glyph-name="overscore" horiz-adv-x="1013" d="M217 1388V1458H795V1388H217Z" />
<glyph unicode="&#xb0;" glyph-name="degree" horiz-adv-x="983" d="M395 826T319 869T199 988T156 1161Q156 1257 199 1333T318 1453T492 1496Q588 1496 664 1453T784 1334T827 1161Q827 1065 784 989T665 869T492 826Q395 826 319 869ZM567 900T625 932T717
1023T750 1161Q750 1240 717 1299T626 1390T492 1422Q417 1422 358 1390T266 1299T233 1161Q233 1082 266 1023T358 932T492 900Q567 900 625 932Z" />
<glyph unicode="&#xb1;" glyph-name="plusminus" horiz-adv-x="1065" d="M491 321V666H163V745H491V1091H574V745H902V666H574V321H491ZM163 0V78H902V0H163Z" />
<glyph unicode="&#xb2;" glyph-name="uni00B2" horiz-adv-x="757" d="M667 -63V-136H93V-90L392 301Q471 404 504 473T538 609Q538 710 481 756T306 803Q182 803 81 763V838Q174 876 312 876Q619 876 619 617Q619 536 582 457T455 263L204 -63H667Z" />
<glyph unicode="&#xb3;" glyph-name="uni00B3" horiz-adv-x="757" d="M559 364T617 299T675 132Q675 -2 583 -75T316 -148Q186 -148 72 -110V-36Q189 -77 315 -77Q455 -77 526 -23T597 136Q597 235 530 288T325 342H207V414H263Q409 414 486 467T563 622Q563 711
502 758T323 805Q200 805 98 766V840Q144 858 204 867T328 876Q479 876 560 811T641 626Q641 538 590 476T448 386Q559 364 617 299Z" />
<glyph unicode="&#xb4;" glyph-name="acute" horiz-adv-x="1013" d="M465 1262L675 1616H774L547 1262H465Z" />
<glyph unicode="&#xb5;" glyph-name="uni00B5" horiz-adv-x="1088" d="M922 1081V0H846L838 123H830Q762 54 675 18T491 -18Q313 -18 240 97V-440H152V1081H240V345Q240 196 307 131T495 65Q587 65 679 106T834 234V1081H922Z" />
<glyph unicode="&#xb6;" glyph-name="paragraph" horiz-adv-x="1195" d="M718 520Q640 511 563 511Q324 511 211 635T97 1004Q97 1254 206 1374T531 1494Q659 1494 799 1480V0H718V520ZM929 0V1480H1009V0H929Z" />
<glyph unicode="&#xb7;" glyph-name="middot" horiz-adv-x="418" d="M176 486T156 505T135 558Q135 592 156 612T209 633Q241 633 262 612T283 558Q283 525 263 506T209 486Q176 486 156 505Z" />
<glyph unicode="&#xb8;" glyph-name="cedilla" horiz-adv-x="1013" d="M614 -118T653 -155T693 -257Q693 -325 645 -364T511 -403Q467 -403 422 -394T346 -367V-305Q424 -346 512 -346Q629 -346 629 -256Q629 -209 599 -187T510 -165H477V20H541V-112Q614 -118 653 -155Z" />
<glyph unicode="&#xb9;" glyph-name="uni00B9" horiz-adv-x="757" d="M461 -63H686V-136H144V-63H382V763L140 586V670L410 868H461V-63Z" />
<glyph unicode="&#xba;" glyph-name="ordmasculine" horiz-adv-x="912" d="M284 596T186 707T88 1046Q88 1274 186 1383T456 1493Q628 1493 726 1384T824 1046Q824 818 726 707T456 596Q284 596 186 707ZM592 671T665 758T738 1046Q738 1246 666 1331T456 1417Q320
1417 248 1332T175 1046Q175 846 248 759T456 671Q592 671 665 758Z" />
<glyph unicode="&#xbb;" glyph-name="guillemotright" horiz-adv-x="909" d="M85 139L340 561L85 982H178L434 561L178 139H85ZM435 139L690 561L435 982H528L784 561L528 139H435Z" />
<glyph unicode="&#xbc;" glyph-name="onequarter" horiz-adv-x="1749" d="M461 689H686V616H144V689H382V1515L140 1338V1422L410 1620H461V689ZM439 -136L1228 1616H1309L521 -136H439ZM1723 182V112H1579V-136H1504V112H1024V159L1406 864H1488L1119 182H1504L1519
526H1579V182H1723Z" />
<glyph unicode="&#xbd;" glyph-name="onehalf" horiz-adv-x="1749" d="M461 689H686V616H144V689H382V1515L140 1338V1422L410 1620H461V689ZM439 -136L1228 1616H1309L521 -136H439ZM1659 -63V-136H1085V-90L1384 301Q1463 404 1496 473T1530 609Q1530 710 1473
756T1298 803Q1174 803 1073 763V838Q1166 876 1304 876Q1611 876 1611 617Q1611 536 1574 457T1447 263L1196 -63H1659Z" />
<glyph unicode="&#xbe;" glyph-name="threequarters" horiz-adv-x="1749" d="M559 1116T617 1051T675 884Q675 750 583 677T316 604Q186 604 72 642V716Q189 675 315 675Q455 675 526 729T597 888Q597 987 530 1040T325 1094H207V1166H263Q409 1166 486 1219T563
1374Q563 1463 502 1510T323 1557Q200 1557 98 1518V1592Q144 1610 205 1619T328 1628Q479 1628 560 1563T641 1378Q641 1290 590 1228T448 1138Q559 1116 617 1051ZM439 -136L1228 1616H1309L521 -136H439ZM1723 182V112H1579V-136H1504V112H1024V159L1406 864H1488L1119
182H1504L1519 526H1579V182H1723Z" />
<glyph unicode="&#xbf;" glyph-name="questiondown" horiz-adv-x="864" d="M507 1092T528 1072T549 1020Q549 987 529 967T475 946Q443 946 423 966T402 1020Q402 1052 422 1072T475 1092Q507 1092 528 1072ZM521 343Q383 295 303 240T187 118T152 -41Q152 -175
242 -247T502 -319Q669 -319 821 -263V-346Q752 -372 668 -386T498 -400Q359 -400 262 -358T114 -235T63 -44Q63 60 98 137T214 278T434 397L445 768H505L521 343Z" />
<glyph unicode="&#xc0;" glyph-name="Agrave" horiz-adv-x="1299" d="M1170 0L977 517H320L128 0H35L591 1480H708L1264 0H1170ZM351 599H947L649 1398L351 599ZM610 1614L417 1889H517L692 1614H610Z" />
<glyph unicode="&#xc1;" glyph-name="Aacute" horiz-adv-x="1299" d="M1170 0L977 517H320L128 0H35L591 1480H708L1264 0H1170ZM351 599H947L649 1398L351 599ZM610 1614L786 1889H885L692 1614H610Z" />
<glyph unicode="&#xc2;" glyph-name="Acircumflex" horiz-adv-x="1299" d="M1170 0L977 517H320L128 0H35L591 1480H708L1264 0H1170ZM351 599H947L649 1398L351 599ZM938 1614H844L651 1839L458 1614H364L606 1889H697L938 1614Z" />
<glyph unicode="&#xc3;" glyph-name="Atilde" horiz-adv-x="1299" d="M1170 0L977 517H320L128 0H35L591 1480H708L1264 0H1170ZM351 599H947L649 1398L351 599ZM758 1691T722 1701T637 1732Q592 1750 564 1758T505 1767Q455 1767 418 1750T346 1696V1772Q402
1834 505 1834Q545 1834 581 1824T666 1793Q711 1775 739 1767T798 1758Q847 1758 885 1775T957 1829V1753Q900 1691 798 1691Q758 1691 722 1701Z" />
<glyph unicode="&#xc4;" glyph-name="Adieresis" horiz-adv-x="1299" d="M1170 0L977 517H320L128 0H35L591 1480H708L1264 0H1170ZM351 599H947L649 1398L351 599ZM396 1683T377 1702T357 1752Q357 1783 376 1802T428 1822Q460 1822 479 1803T499 1752Q499 1721
480 1702T428 1683Q396 1683 377 1702ZM842 1683T823 1702T804 1752Q804 1784 823 1803T874 1822Q906 1822 925 1803T945 1752Q945 1721 926 1702T874 1683Q842 1683 823 1702Z" />
<glyph unicode="&#xc5;" glyph-name="Aring" horiz-adv-x="1299" d="M977 517H320L128 0H35L581 1452Q529 1473 498 1518T467 1625Q467 1678 491 1720T557 1787T653 1811Q706 1811 749 1787T816 1721T840 1625Q840 1563 807 1516T719 1450L1264 0H1170L977 517ZM526
1566T561 1531T653 1496Q710 1496 745 1531T780 1625Q780 1684 745 1719T653 1754Q597 1754 562 1719T526 1625Q526 1566 561 1531ZM351 599H947L649 1398L351 599Z" />
<glyph unicode="&#xc6;" glyph-name="AE" horiz-adv-x="1775" d="M1006 82H1704V0H923L889 517H325L128 0H35L602 1480H1694V1398H919L958 801H1598V720H964L1006 82ZM356 599H884L832 1398H660L356 599Z" />
<glyph unicode="&#xc7;" glyph-name="Ccedilla" horiz-adv-x="1112" d="M574 1416T455 1350T272 1135T209 742Q209 490 273 341T454 128T742 64Q828 64 906 77T1075 123V39Q915 -18 739 -18H725V-110Q807 -114 853 -151T900 -256Q900 -328 848 -365T703 -403Q654
-403 605 -394T515 -365V-304Q568 -327 612 -336T702 -346Q766 -346 800 -324T835 -255Q835 -165 700 -165H661V-15Q400 6 258 184T115 738Q115 1134 280 1316T755 1498Q916 1498 1075 1452V1368Q921 1416 752 1416Q574 1416 455 1350Z" />
<glyph unicode="&#xc8;" glyph-name="Egrave" horiz-adv-x="1126" d="M274 82H1055V0H185V1480H1045V1398H274V801H949V720H274V82ZM596 1614L403 1889H503L678 1614H596Z" />
<glyph unicode="&#xc9;" glyph-name="Eacute" horiz-adv-x="1126" d="M274 82H1055V0H185V1480H1045V1398H274V801H949V720H274V82ZM596 1614L772 1889H871L678 1614H596Z" />
<glyph unicode="&#xca;" glyph-name="Ecircumflex" horiz-adv-x="1126" d="M274 82H1055V0H185V1480H1045V1398H274V801H949V720H274V82ZM924 1614H830L637 1839L444 1614H350L592 1889H683L924 1614Z" />
<glyph unicode="&#xcb;" glyph-name="Edieresis" horiz-adv-x="1126" d="M274 82H1055V0H185V1480H1045V1398H274V801H949V720H274V82ZM382 1683T363 1702T343 1752Q343 1783 362 1802T414 1822Q446 1822 465 1803T485 1752Q485 1721 466 1702T414 1683Q382 1683
363 1702ZM828 1683T809 1702T790 1752Q790 1784 809 1803T860 1822Q892 1822 911 1803T931 1752Q931 1721 912 1702T860 1683Q828 1683 809 1702Z" />
<glyph unicode="&#xcc;" glyph-name="Igrave" horiz-adv-x="459" d="M185 0V1480H274V0H185ZM189 1614L-4 1889H96L271 1614H189Z" />
<glyph unicode="&#xcd;" glyph-name="Iacute" horiz-adv-x="459" d="M185 0V1480H274V0H185ZM189 1614L365 1889H464L271 1614H189Z" />
<glyph unicode="&#xce;" glyph-name="Icircumflex" horiz-adv-x="459" d="M185 0V1480H274V0H185ZM517 1614H423L230 1839L37 1614H-57L185 1889H276L517 1614Z" />
<glyph unicode="&#xcf;" glyph-name="Idieresis" horiz-adv-x="459" d="M185 0V1480H274V0H185ZM-25 1683T-44 1702T-64 1752Q-64 1783 -45 1802T7 1822Q39 1822 58 1803T78 1752Q78 1721 59 1702T7 1683Q-25 1683 -44 1702ZM421 1683T402 1702T383 1752Q383 1784
402 1803T453 1822Q485 1822 504 1803T524 1752Q524 1721 505 1702T453 1683Q421 1683 402 1702Z" />
<glyph unicode="&#xd0;" glyph-name="Eth" horiz-adv-x="1355" d="M886 1494T1063 1308T1240 740Q1240 355 1058 173T511 -10Q429 -10 355 -6T185 10V726H2V798H185V1460Q360 1494 535 1494Q886 1494 1063 1308ZM731 71T869 140T1077 358T1147 740Q1147 1087 996
1249T532 1412Q411 1412 274 1391V798H631V726H274V87Q382 71 519 71Q731 71 869 140Z" />
<glyph unicode="&#xd1;" glyph-name="Ntilde" horiz-adv-x="1436" d="M1166 1480H1251V0H1156L271 1342V0H185V1480H280L1166 138V1480ZM826 1691T790 1701T705 1732Q660 1750 632 1758T573 1767Q523 1767 486 1750T414 1696V1772Q470 1834 573 1834Q613 1834
649 1824T734 1793Q779 1775 807 1767T866 1758Q915 1758 953 1775T1025 1829V1753Q968 1691 866 1691Q826 1691 790 1701Z" />
<glyph unicode="&#xd2;" glyph-name="Ograve" horiz-adv-x="1383" d="M419 -18T267 165T115 740Q115 1131 268 1314T692 1498Q964 1498 1116 1315T1268 740Q1268 349 1115 166T692 -18Q419 -18 267 165ZM922 65T1048 222T1175 736Q1175 1098 1049 1256T692 1415Q461
1415 335 1258T208 744Q208 382 334 224T692 65Q922 65 1048 222ZM651 1614L458 1889H558L733 1614H651Z" />
<glyph unicode="&#xd3;" glyph-name="Oacute" horiz-adv-x="1383" d="M419 -18T267 165T115 740Q115 1131 268 1314T692 1498Q964 1498 1116 1315T1268 740Q1268 349 1115 166T692 -18Q419 -18 267 165ZM922 65T1048 222T1175 736Q1175 1098 1049 1256T692 1415Q461
1415 335 1258T208 744Q208 382 334 224T692 65Q922 65 1048 222ZM651 1614L827 1889H926L733 1614H651Z" />
<glyph unicode="&#xd4;" glyph-name="Ocircumflex" horiz-adv-x="1383" d="M419 -18T267 165T115 740Q115 1131 268 1314T692 1498Q964 1498 1116 1315T1268 740Q1268 349 1115 166T692 -18Q419 -18 267 165ZM922 65T1048 222T1175 736Q1175 1098 1049 1256T692
1415Q461 1415 335 1258T208 744Q208 382 334 224T692 65Q922 65 1048 222ZM979 1614H885L692 1839L499 1614H405L647 1889H738L979 1614Z" />
<glyph unicode="&#xd5;" glyph-name="Otilde" horiz-adv-x="1383" d="M419 -18T267 165T115 740Q115 1131 268 1314T692 1498Q964 1498 1116 1315T1268 740Q1268 349 1115 166T692 -18Q419 -18 267 165ZM922 65T1048 222T1175 736Q1175 1098 1049 1256T692 1415Q461
1415 335 1258T208 744Q208 382 334 224T692 65Q922 65 1048 222ZM799 1691T763 1701T678 1732Q633 1750 605 1758T546 1767Q496 1767 459 1750T387 1696V1772Q443 1834 546 1834Q586 1834 622 1824T707 1793Q752 1775 780 1767T839 1758Q888 1758 926 1775T998
1829V1753Q941 1691 839 1691Q799 1691 763 1701Z" />
<glyph unicode="&#xd6;" glyph-name="Odieresis" horiz-adv-x="1383" d="M419 -18T267 165T115 740Q115 1131 268 1314T692 1498Q964 1498 1116 1315T1268 740Q1268 349 1115 166T692 -18Q419 -18 267 165ZM922 65T1048 222T1175 736Q1175 1098 1049 1256T692
1415Q461 1415 335 1258T208 744Q208 382 334 224T692 65Q922 65 1048 222ZM437 1683T418 1702T398 1752Q398 1783 417 1802T469 1822Q501 1822 520 1803T540 1752Q540 1721 521 1702T469 1683Q437 1683 418 1702ZM883 1683T864 1702T845 1752Q845 1784 864 1803T915
1822Q947 1822 966 1803T986 1752Q986 1721 967 1702T915 1683Q883 1683 864 1702Z" />
<glyph unicode="&#xd7;" glyph-name="multiply" horiz-adv-x="981" d="M186 402L132 456L436 760L132 1064L186 1118L491 814L795 1118L849 1064L545 760L849 456L795 402L491 706L186 402Z" />
<glyph unicode="&#xd8;" glyph-name="Oslash" horiz-adv-x="1383" d="M1268 1098T1268 740Q1268 349 1115 166T692 -18Q438 -18 295 134L184 -19L126 23L248 191Q115 382 115 740Q115 1131 268 1314T692 1498Q944 1498 1088 1347L1199 1499L1257 1457L1135 1289Q1268
1098 1268 740ZM208 436T305 269L1035 1273Q917 1415 692 1415Q461 1415 335 1258T208 744Q208 436 305 269ZM922 65T1048 222T1175 736Q1175 1044 1078 1211L348 207Q468 65 692 65Q922 65 1048 222Z" />
<glyph unicode="&#xd9;" glyph-name="Ugrave" horiz-adv-x="1382" d="M514 -18T401 41T233 222T178 536V1480H266V524Q266 364 310 263T449 113T692 64Q841 64 935 113T1073 263T1118 524V1480H1204V536Q1204 344 1150 222T982 41T692 -18Q514 -18 401 41ZM651
1614L458 1889H558L733 1614H651Z" />
<glyph unicode="&#xda;" glyph-name="Uacute" horiz-adv-x="1382" d="M514 -18T401 41T233 222T178 536V1480H266V524Q266 364 310 263T449 113T692 64Q841 64 935 113T1073 263T1118 524V1480H1204V536Q1204 344 1150 222T982 41T692 -18Q514 -18 401 41ZM651
1614L827 1889H926L733 1614H651Z" />
<glyph unicode="&#xdb;" glyph-name="Ucircumflex" horiz-adv-x="1382" d="M514 -18T401 41T233 222T178 536V1480H266V524Q266 364 310 263T449 113T692 64Q841 64 935 113T1073 263T1118 524V1480H1204V536Q1204 344 1150 222T982 41T692 -18Q514 -18 401 41ZM979
1614H885L692 1839L499 1614H405L647 1889H738L979 1614Z" />
<glyph unicode="&#xdc;" glyph-name="Udieresis" horiz-adv-x="1382" d="M514 -18T401 41T233 222T178 536V1480H266V524Q266 364 310 263T449 113T692 64Q841 64 935 113T1073 263T1118 524V1480H1204V536Q1204 344 1150 222T982 41T692 -18Q514 -18 401 41ZM437
1683T418 1702T398 1752Q398 1783 417 1802T469 1822Q501 1822 520 1803T540 1752Q540 1721 521 1702T469 1683Q437 1683 418 1702ZM883 1683T864 1702T845 1752Q845 1784 864 1803T915 1822Q947 1822 966 1803T986 1752Q986 1721 967 1702T915 1683Q883 1683 864
1702Z" />
<glyph unicode="&#xdd;" glyph-name="Yacute" horiz-adv-x="1126" d="M1139 1480L607 674V0H519V674L-22 1480H82L564 758L1040 1480H1139ZM522 1614L698 1889H797L604 1614H522Z" />
<glyph unicode="&#xde;" glyph-name="Thorn" horiz-adv-x="1205" d="M185 1481H274V1231Q402 1252 535 1252Q814 1252 956 1132T1098 761Q1098 517 951 393T492 268Q380 268 274 279V0H185V1481ZM762 349T884 449T1006 758Q1006 973 891 1072T537 1171Q394 1171
274 1150V362Q377 349 495 349Q762 349 884 449Z" />
<glyph unicode="&#xdf;" glyph-name="germandbls" horiz-adv-x="1310" d="M1107 537T1169 469T1232 284Q1232 141 1133 62T841 -18Q688 -18 562 22V103Q640 80 706 71T841 61Q995 61 1069 116T1144 278Q1144 367 1098 414T945 486L812 514Q670 546 608 616T545
798Q545 885 588 952T718 1057T935 1095Q984 1095 1022 1090Q1031 1147 1031 1203Q1031 1391 939 1474T688 1558Q508 1558 414 1459T320 1138V0H232V1000H16V1081H232V1143Q232 1391 350 1513T687 1636Q811 1636 906 1591T1055 1448T1109 1201Q1109 1154 1102 1098T1084
1003Q1049 1010 1017 1014T939 1018Q782 1018 708 959T634 803Q634 722 678 672T825 599L958 571Q1107 537 1169 469Z" />
<glyph unicode="&#xe0;" glyph-name="agrave" horiz-adv-x="990" d="M587 1097T669 1063T795 951T838 738V0H761L754 127H746Q690 59 605 22T422 -16Q274 -16 189 59T104 269Q104 407 192 482T471 579L750 612V740Q750 847 717 907T620 992T456 1017Q390 1017
314 1005T165 967V1048Q227 1071 307 1084T461 1097Q587 1097 669 1063ZM522 62T604 101T750 224V537L472 505Q328 489 263 434T198 277Q198 171 257 117T433 62Q522 62 604 101ZM450 1262L224 1616H323L532 1262H450Z" />
<glyph unicode="&#xe1;" glyph-name="aacute" horiz-adv-x="990" d="M587 1097T669 1063T795 951T838 738V0H761L754 127H746Q690 59 605 22T422 -16Q274 -16 189 59T104 269Q104 407 192 482T471 579L750 612V740Q750 847 717 907T620 992T456 1017Q390 1017
314 1005T165 967V1048Q227 1071 307 1084T461 1097Q587 1097 669 1063ZM522 62T604 101T750 224V537L472 505Q328 489 263 434T198 277Q198 171 257 117T433 62Q522 62 604 101ZM450 1262L660 1616H759L532 1262H450Z" />
<glyph unicode="&#xe2;" glyph-name="acircumflex" horiz-adv-x="990" d="M587 1097T669 1063T795 951T838 738V0H761L754 127H746Q690 59 605 22T422 -16Q274 -16 189 59T104 269Q104 407 192 482T471 579L750 612V740Q750 847 717 907T620 992T456 1017Q390
1017 314 1005T165 967V1048Q227 1071 307 1084T461 1097Q587 1097 669 1063ZM522 62T604 101T750 224V537L472 505Q328 489 263 434T198 277Q198 171 257 117T433 62Q522 62 604 101ZM756 1262H672L491 1561L310 1262H227L446 1616H537L756 1262Z" />
<glyph unicode="&#xe3;" glyph-name="atilde" horiz-adv-x="990" d="M587 1097T669 1063T795 951T838 738V0H761L754 127H746Q690 59 605 22T422 -16Q274 -16 189 59T104 269Q104 407 192 482T471 579L750 612V740Q750 847 717 907T620 992T456 1017Q390 1017
314 1005T165 967V1048Q227 1071 307 1084T461 1097Q587 1097 669 1063ZM522 62T604 101T750 224V537L472 505Q328 489 263 434T198 277Q198 171 257 117T433 62Q522 62 604 101ZM591 1372T559 1382T476 1414Q438 1432 410 1441T355 1450Q310 1450 273 1433T202
1378V1455Q259 1517 355 1517Q392 1517 426 1506T506 1475Q547 1457 574 1449T628 1440Q673 1440 710 1457T780 1512V1435Q723 1372 627 1372Q591 1372 559 1382Z" />
<glyph unicode="&#xe4;" glyph-name="adieresis" horiz-adv-x="990" d="M587 1097T669 1063T795 951T838 738V0H761L754 127H746Q690 59 605 22T422 -16Q274 -16 189 59T104 269Q104 407 192 482T471 579L750 612V740Q750 847 717 907T620 992T456 1017Q390 1017
314 1005T165 967V1048Q227 1071 307 1084T461 1097Q587 1097 669 1063ZM522 62T604 101T750 224V537L472 505Q328 489 263 434T198 277Q198 171 257 117T433 62Q522 62 604 101ZM256 1352T237 1371T217 1422Q217 1454 236 1474T288 1494Q319 1494 338 1474T358
1422Q358 1390 339 1371T288 1352Q256 1352 237 1371ZM663 1352T644 1371T624 1422Q624 1454 643 1474T695 1494Q727 1494 746 1474T766 1422Q766 1390 747 1371T695 1352Q663 1352 644 1371Z" />
<glyph unicode="&#xe5;" glyph-name="aring" horiz-adv-x="990" d="M587 1097T669 1063T795 951T838 738V0H761L754 127H746Q690 59 605 22T422 -16Q274 -16 189 59T104 269Q104 407 192 482T471 579L750 612V740Q750 847 717 907T620 992T456 1017Q390 1017 314
1005T165 967V1048Q227 1071 307 1084T461 1097Q587 1097 669 1063ZM522 62T604 101T750 224V537L472 505Q328 489 263 434T198 277Q198 171 257 117T433 62Q522 62 604 101ZM438 1257T396 1281T329 1347T305 1443Q305 1496 329 1538T395 1605T491 1629Q544 1629
587 1605T654 1539T678 1443Q678 1390 654 1348T587 1281T491 1257Q438 1257 396 1281ZM548 1314T583 1349T618 1443Q618 1503 583 1538T491 1573Q435 1573 400 1538T364 1443Q364 1384 399 1349T491 1314Q548 1314 583 1349Z" />
<glyph unicode="&#xe6;" glyph-name="ae" horiz-adv-x="1627" d="M1539 506H838Q843 269 939 166T1224 62Q1337 62 1488 110V28Q1347 -18 1217 -18Q1073 -18 973 33T818 191Q733 78 635 31T426 -16Q328 -16 256 17T144 115T104 269Q104 414 200 497T502 581H750V743Q750
849 717 909T620 993T456 1017Q390 1017 314 1005T165 967V1048Q227 1071 306 1084T460 1097Q609 1097 696 1047T813 878Q906 1098 1149 1098Q1337 1098 1438 963T1539 542V506ZM1002 1021T922 918T838 581H1450Q1445 817 1368 919T1147 1021Q1002 1021 922 918ZM535
62T626 111T785 273Q754 372 750 506H500Q198 506 198 276Q198 172 258 117T435 62Q535 62 626 111Z" />
<glyph unicode="&#xe7;" glyph-name="ccedilla" horiz-adv-x="837" d="M458 1016T371 970T241 821T197 544Q197 369 237 263T357 110T556 63Q665 63 802 111V28Q674 -18 546 -18H536V-112Q609 -118 648 -155T688 -257Q688 -325 640 -364T506 -403Q462 -403 417
-394T341 -367V-305Q419 -346 507 -346Q624 -346 624 -256Q624 -209 594 -187T505 -165H472V-14Q291 7 198 141T105 540Q105 832 226 964T590 1097Q705 1097 802 1069V986Q695 1016 595 1016Q458 1016 371 970Z" />
<glyph unicode="&#xe8;" glyph-name="egrave" horiz-adv-x="994" d="M906 506H197Q202 269 299 166T587 62Q700 62 855 110V28Q711 -18 580 -18Q345 -18 225 115T105 541Q105 823 213 960T513 1097Q703 1097 804 962T906 540V506ZM364 1020T283 917T197 581H817Q813
815 736 917T512 1020Q364 1020 283 917ZM472 1262L246 1616H345L554 1262H472Z" />
<glyph unicode="&#xe9;" glyph-name="eacute" horiz-adv-x="994" d="M906 506H197Q202 269 299 166T587 62Q700 62 855 110V28Q711 -18 580 -18Q345 -18 225 115T105 541Q105 823 213 960T513 1097Q703 1097 804 962T906 540V506ZM364 1020T283 917T197 581H817Q813
815 736 917T512 1020Q364 1020 283 917ZM472 1262L682 1616H781L554 1262H472Z" />
<glyph unicode="&#xea;" glyph-name="ecircumflex" horiz-adv-x="994" d="M906 506H197Q202 269 299 166T587 62Q700 62 855 110V28Q711 -18 580 -18Q345 -18 225 115T105 541Q105 823 213 960T513 1097Q703 1097 804 962T906 540V506ZM364 1020T283 917T197 581H817Q813
815 736 917T512 1020Q364 1020 283 917ZM778 1262H694L513 1561L332 1262H249L468 1616H559L778 1262Z" />
<glyph unicode="&#xeb;" glyph-name="edieresis" horiz-adv-x="994" d="M906 506H197Q202 269 299 166T587 62Q700 62 855 110V28Q711 -18 580 -18Q345 -18 225 115T105 541Q105 823 213 960T513 1097Q703 1097 804 962T906 540V506ZM364 1020T283 917T197 581H817Q813
815 736 917T512 1020Q364 1020 283 917ZM278 1352T259 1371T239 1422Q239 1454 258 1474T310 1494Q341 1494 360 1474T380 1422Q380 1390 361 1371T310 1352Q278 1352 259 1371ZM685 1352T666 1371T646 1422Q646 1454 665 1474T717 1494Q749 1494 768 1474T788
1422Q788 1390 769 1371T717 1352Q685 1352 666 1371Z" />
<glyph unicode="&#xec;" glyph-name="igrave" horiz-adv-x="420" d="M166 0V1081H254V0H166ZM169 1262L-57 1616H42L251 1262H169Z" />
<glyph unicode="&#xed;" glyph-name="iacute" horiz-adv-x="420" d="M166 0V1081H254V0H166ZM169 1262L379 1616H478L251 1262H169Z" />
<glyph unicode="&#xee;" glyph-name="icircumflex" horiz-adv-x="420" d="M166 0V1081H254V0H166ZM475 1262H391L210 1561L29 1262H-54L165 1616H256L475 1262Z" />
<glyph unicode="&#xef;" glyph-name="idieresis" horiz-adv-x="420" d="M166 0V1081H254V0H166ZM-25 1352T-44 1371T-64 1422Q-64 1454 -45 1474T7 1494Q38 1494 57 1474T77 1422Q77 1390 58 1371T7 1352Q-25 1352 -44 1371ZM382 1352T363 1371T343 1422Q343 1454
362 1474T414 1494Q446 1494 465 1474T485 1422Q485 1390 466 1371T414 1352Q382 1352 363 1371Z" />
<glyph unicode="&#xf0;" glyph-name="eth" horiz-adv-x="1069" d="M835 1160T899 964T963 573Q963 273 850 128T537 -18Q332 -18 219 117T105 540Q105 826 218 961T532 1097Q612 1097 679 1073T800 993Q737 1170 636 1312L212 1243L201 1310L589 1373Q484 1504
336 1616H453Q572 1530 680 1388L930 1429L941 1362L723 1326Q835 1160 899 964ZM696 62T784 176T873 537Q873 796 786 906T535 1017Q371 1017 284 908T197 543Q197 284 284 173T537 62Q696 62 784 176Z" />
<glyph unicode="&#xf1;" glyph-name="ntilde" horiz-adv-x="1098" d="M166 1081H242L249 953H258Q327 1023 417 1060T607 1097Q945 1097 945 734V0H857V732Q857 883 790 949T598 1015Q506 1015 412 974T254 845V0H166V1081ZM656 1372T624 1382T541 1414Q503 1432
475 1441T420 1450Q375 1450 338 1433T267 1378V1455Q324 1517 420 1517Q457 1517 491 1506T571 1475Q612 1457 639 1449T693 1440Q738 1440 775 1457T845 1512V1435Q788 1372 692 1372Q656 1372 624 1382Z" />
<glyph unicode="&#xf2;" glyph-name="ograve" horiz-adv-x="1069" d="M332 -18T219 117T105 540Q105 826 218 961T535 1097Q738 1097 851 963T965 540Q965 255 851 119T535 -18Q332 -18 219 117ZM698 62T785 172T873 537Q873 796 786 906T535 1017Q371 1017 284
908T197 543Q197 284 284 173T535 62Q698 62 785 172ZM494 1262L268 1616H367L576 1262H494Z" />
<glyph unicode="&#xf3;" glyph-name="oacute" horiz-adv-x="1069" d="M332 -18T219 117T105 540Q105 826 218 961T535 1097Q738 1097 851 963T965 540Q965 255 851 119T535 -18Q332 -18 219 117ZM698 62T785 172T873 537Q873 796 786 906T535 1017Q371 1017 284
908T197 543Q197 284 284 173T535 62Q698 62 785 172ZM494 1262L704 1616H803L576 1262H494Z" />
<glyph unicode="&#xf4;" glyph-name="ocircumflex" horiz-adv-x="1069" d="M332 -18T219 117T105 540Q105 826 218 961T535 1097Q738 1097 851 963T965 540Q965 255 851 119T535 -18Q332 -18 219 117ZM698 62T785 172T873 537Q873 796 786 906T535 1017Q371 1017
284 908T197 543Q197 284 284 173T535 62Q698 62 785 172ZM800 1262H716L535 1561L354 1262H271L490 1616H581L800 1262Z" />
<glyph unicode="&#xf5;" glyph-name="otilde" horiz-adv-x="1069" d="M332 -18T219 117T105 540Q105 826 218 961T535 1097Q738 1097 851 963T965 540Q965 255 851 119T535 -18Q332 -18 219 117ZM698 62T785 172T873 537Q873 796 786 906T535 1017Q371 1017 284
908T197 543Q197 284 284 173T535 62Q698 62 785 172ZM635 1372T603 1382T520 1414Q482 1432 454 1441T399 1450Q354 1450 317 1433T246 1378V1455Q303 1517 399 1517Q436 1517 470 1506T550 1475Q591 1457 618 1449T672 1440Q717 1440 754 1457T824 1512V1435Q767
1372 671 1372Q635 1372 603 1382Z" />
<glyph unicode="&#xf6;" glyph-name="odieresis" horiz-adv-x="1069" d="M332 -18T219 117T105 540Q105 826 218 961T535 1097Q738 1097 851 963T965 540Q965 255 851 119T535 -18Q332 -18 219 117ZM698 62T785 172T873 537Q873 796 786 906T535 1017Q371 1017
284 908T197 543Q197 284 284 173T535 62Q698 62 785 172ZM300 1352T281 1371T261 1422Q261 1454 280 1474T332 1494Q363 1494 382 1474T402 1422Q402 1390 383 1371T332 1352Q300 1352 281 1371ZM707 1352T688 1371T668 1422Q668 1454 687 1474T739 1494Q771 1494
790 1474T810 1422Q810 1390 791 1371T739 1352Q707 1352 688 1371Z" />
<glyph unicode="&#xf7;" glyph-name="divide" horiz-adv-x="1065" d="M500 1023T480 1042T460 1094Q460 1127 480 1147T532 1167Q564 1167 584 1147T604 1094Q604 1061 585 1042T532 1023Q500 1023 480 1042ZM163 721V799H902V721H163ZM500 353T480 372T460 424Q460
457 480 477T532 497Q564 497 584 477T604 424Q604 392 584 373T532 353Q500 353 480 372Z" />
<glyph unicode="&#xf8;" glyph-name="oslash" horiz-adv-x="1069" d="M965 806T965 540Q965 255 851 119T535 -18Q358 -18 252 81L181 -19L124 22L205 135Q105 276 105 540Q105 826 218 961T535 1097Q712 1097 817 999L888 1100L946 1060L865 945Q965 806 965
540ZM371 1018T284 908T196 543Q196 331 259 211L768 928Q688 1018 535 1018Q371 1018 284 908ZM699 61T786 171T873 537Q873 753 810 870L301 152Q382 61 535 61Q699 61 786 171Z" />
<glyph unicode="&#xf9;" glyph-name="ugrave" horiz-adv-x="1088" d="M330 -18T241 67T152 345V1081H240V345Q240 196 307 131T495 65Q587 65 679 106T834 234V1081H922V0H846L838 123H830Q761 54 672 18T486 -18Q330 -18 241 67ZM497 1262L271 1616H370L579 1262H497Z" />
<glyph unicode="&#xfa;" glyph-name="uacute" horiz-adv-x="1088" d="M330 -18T241 67T152 345V1081H240V345Q240 196 307 131T495 65Q587 65 679 106T834 234V1081H922V0H846L838 123H830Q761 54 672 18T486 -18Q330 -18 241 67ZM497 1262L707 1616H806L579 1262H497Z" />
<glyph unicode="&#xfb;" glyph-name="ucircumflex" horiz-adv-x="1088" d="M330 -18T241 67T152 345V1081H240V345Q240 196 307 131T495 65Q587 65 679 106T834 234V1081H922V0H846L838 123H830Q761 54 672 18T486 -18Q330 -18 241 67ZM803 1262H719L538 1561L357
1262H274L493 1616H584L803 1262Z" />
<glyph unicode="&#xfc;" glyph-name="udieresis" horiz-adv-x="1088" d="M330 -18T241 67T152 345V1081H240V345Q240 196 307 131T495 65Q587 65 679 106T834 234V1081H922V0H846L838 123H830Q761 54 672 18T486 -18Q330 -18 241 67ZM303 1352T284 1371T264 1422Q264
1454 283 1474T335 1494Q366 1494 385 1474T405 1422Q405 1390 386 1371T335 1352Q303 1352 284 1371ZM710 1352T691 1371T671 1422Q671 1454 690 1474T742 1494Q774 1494 793 1474T813 1422Q813 1390 794 1371T742 1352Q710 1352 691 1371Z" />
<glyph unicode="&#xfd;" glyph-name="yacute" horiz-adv-x="1008" d="M893 1081H985L391 -440H300L473 0H445L23 1081H119L505 73L893 1081ZM465 1262L675 1616H774L547 1262H465Z" />
<glyph unicode="&#xfe;" glyph-name="thorn" horiz-adv-x="1084" d="M166 1616H254V965H261Q314 1026 393 1061T569 1097Q754 1097 866 970T979 561Q979 267 847 125T453 -18Q370 -18 254 -2V-440H166V1616ZM674 62T780 179T887 551Q887 806 799 911T555 1016Q466
1016 386 976T254 857V84Q295 74 350 68T456 62Q674 62 780 179Z" />
<glyph unicode="&#xff;" glyph-name="ydieresis" horiz-adv-x="1008" d="M893 1081H985L391 -440H300L473 0H445L23 1081H119L505 73L893 1081ZM271 1352T252 1371T232 1422Q232 1454 251 1474T303 1494Q334 1494 353 1474T373 1422Q373 1390 354 1371T303 1352Q271
1352 252 1371ZM678 1352T659 1371T639 1422Q639 1454 658 1474T710 1494Q742 1494 761 1474T781 1422Q781 1390 762 1371T710 1352Q678 1352 659 1371Z" />
<glyph unicode="&#x2013;" glyph-name="endash" horiz-adv-x="900" d="M0 522V599H900V522H0Z" />
<glyph unicode="&#x2014;" glyph-name="emdash" horiz-adv-x="1800" d="M0 522V599H1800V522H0Z" />
<glyph unicode="&#x2018;" glyph-name="quoteleft" horiz-adv-x="418" d="M241 1323T262 1303T283 1249Q283 1217 263 1197T212 1176Q136 1176 136 1274Q136 1447 211 1616H266Q238 1531 223 1461T204 1323H209Q241 1323 262 1303Z" />
<glyph unicode="&#x2019;" glyph-name="quoteright" horiz-adv-x="418" d="M282 1627T282 1529Q282 1438 262 1351T207 1187H152Q180 1271 195 1341T214 1480H209Q176 1480 156 1500T135 1554Q135 1586 155 1606T207 1627Q282 1627 282 1529Z" />
<glyph unicode="&#x201a;" glyph-name="quotesinglbase" horiz-adv-x="418" d="M282 136T282 39Q282 -52 262 -139T207 -303H152Q181 -218 196 -149T214 -11H209Q177 -11 156 10T135 64Q135 96 155 116T207 136Q282 136 282 39Z" />
<glyph unicode="&#x201c;" glyph-name="quotedblleft" horiz-adv-x="715" d="M241 1323T262 1303T283 1249Q283 1217 263 1197T212 1176Q136 1176 136 1274Q136 1447 211 1616H266Q238 1531 223 1461T204 1323H209Q241 1323 262 1303ZM538 1323T559 1303T580 1249Q580
1217 560 1197T509 1176Q433 1176 433 1274Q433 1447 508 1616H563Q535 1531 520 1461T501 1323H506Q538 1323 559 1303Z" />
<glyph unicode="&#x201d;" glyph-name="quotedblright" horiz-adv-x="715" d="M282 1627T282 1529Q282 1438 262 1351T207 1187H152Q180 1271 195 1341T214 1480H209Q176 1480 156 1500T135 1554Q135 1586 155 1606T207 1627Q282 1627 282 1529ZM579 1627T579
1529Q579 1438 559 1351T504 1187H449Q477 1271 492 1341T511 1480H506Q473 1480 453 1500T432 1554Q432 1586 452 1606T504 1627Q579 1627 579 1529Z" />
<glyph unicode="&#x201e;" glyph-name="quotedblbase" horiz-adv-x="715" d="M282 136T282 39Q282 -52 262 -139T207 -303H152Q181 -218 196 -149T214 -11H209Q177 -11 156 10T135 64Q135 96 155 116T207 136Q282 136 282 39ZM579 136T579 39Q579 -52 559 -139T504
-303H449Q478 -218 493 -149T511 -11H506Q474 -11 453 10T432 64Q432 96 452 116T504 136Q579 136 579 39Z" />
<glyph unicode="&#x2022;" glyph-name="bullet" horiz-adv-x="688" d="M286 351T238 378T163 453T135 560Q135 619 162 667T238 742T344 769Q402 769 450 742T525 667T553 560Q553 501 526 453T450 378T344 351Q286 351 238 378Z" />
<glyph unicode="&#x2039;" glyph-name="guilsinglleft" horiz-adv-x="559" d="M380 139L125 561L380 982H474L218 561L474 139H380Z" />
<glyph unicode="&#x203a;" glyph-name="guilsinglright" horiz-adv-x="559" d="M85 139L340 561L85 982H178L434 561L178 139H85Z" />
</font>
</defs>
</svg>
