<?xml version="1.0" standalone="no"?>
<!DOCTYPE svg PUBLIC "-//W3C//DTD SVG 1.1//EN" "http://www.w3.org/Graphics/SVG/1.1/DTD/svg11.dtd">
<svg xmlns="http://www.w3.org/2000/svg">
<defs >
<font id="Raleway" horiz-adv-x="455" ><font-face
    font-family="Raleway Medium"
    units-per-em="1000"
    panose-1="2 11 6 3 3 1 1 6 0 3"
    ascent="940"
    descent="-234"
    alphabetic="0" />
<glyph unicode=" " glyph-name="space" horiz-adv-x="247" />
<glyph unicode="!" glyph-name="exclam" horiz-adv-x="258" d="M72 240L173 717H261L160 240H72ZM21 0L47 124H135L109 0H21Z" />
<glyph unicode="&quot;" glyph-name="quotedbl" horiz-adv-x="318" d="M106 502L152 718H228L182 502H106ZM218 502L264 718H340L294 502H218Z" />
<glyph unicode="#" glyph-name="numbersign" horiz-adv-x="664" d="M658 447H530L452 269H578L564 201H422L333 0H260L350 201H195L106 0H33L123 201H16L30 269H154L231 447H110L124 511H261L349 710H421L333 511H488L575 710H648L559 511H672L658 447ZM380 269L458
447H303L226 269H380Z" />
<glyph unicode="$" glyph-name="dollar" horiz-adv-x="596" d="M540 561Q524 587 483 609T386 634L336 397Q384 385 421 371T485 338T524 292T538 229Q538 170 516 127T455 54T365 10T256 -7L235 -107H192L213 -6Q146 -1 90 23T-9 93L50 169Q60 154 77 139T119
110T172 88T235 75L286 314Q276 316 271 318Q230 329 198 342T144 372T111 413T99 469Q99 524 120 567T177 642T261 692T366 714L388 815H431L410 714Q472 711 518 690T597 634L540 561ZM438 201Q438 242 406 264T316 305L267 74Q347 75 392 108T438 201ZM198 498Q198
460 225 441T306 405L355 634Q273 630 236 593T198 498Z" />
<glyph unicode="%" glyph-name="percent" horiz-adv-x="707" d="M212 428Q185 428 163 437T126 463T101 501T92 549Q92 583 107 614T148 669T206 706T274 720Q328 720 361 685T394 599Q394 564 379 533T338 479T280 442T212 428ZM222 476Q242 476 261 486T295
512T319 549T329 593Q329 626 311 649T264 672Q244 672 225 662T191 636T167 599T157 555Q157 522 175 499T222 476ZM456 -10Q429 -10 407 -1T370 25T345 63T336 111Q336 145 351 176T392 231T450 268T518 282Q572 282 604 247T637 161Q637 126 622 95T582 41T524
4T456 -10ZM466 38Q486 38 505 47T539 73T563 111T573 155Q573 188 555 211T507 234Q487 234 468 224T434 198T410 161T400 117Q400 84 418 61T466 38ZM15 33L353 370L680 715L715 678L381 343L49 -5L15 33Z" />
<glyph unicode="&amp;" glyph-name="ampersand" horiz-adv-x="672" d="M402 98Q353 47 297 19T184 -10Q147 -10 117 2T64 36T30 88T17 154Q17 197 32 231T72 295T130 348T199 395Q170 440 158 472T145 534Q145 573 162 606T208 665T276 704T357 719Q411 719 453
691T516 614L456 560Q442 599 412 625T343 652Q320 652 299 644T262 621T237 587T228 548Q228 528 240 498T288 415L415 232Q436 272 452 318T477 416H653L638 347H539Q525 297 505 253T459 170L578 0H469L402 98ZM203 60Q245 60 286 84T364 153L236 339Q177 301
140 260T103 165Q103 114 132 87T203 60Z" />
<glyph unicode="&apos;" glyph-name="quotesingle" horiz-adv-x="206" d="M106 501L152 718H228L182 501H106Z" />
<glyph unicode="(" glyph-name="parenleft" horiz-adv-x="278" d="M42 261Q42 327 60 388T109 507T183 624T273 744L334 714Q307 681 271 631T202 520T148 395T125 268Q125 206 139 132T179 -8L107 -42Q78 27 60 107T42 261Z" />
<glyph unicode=")" glyph-name="parenright" horiz-adv-x="278" d="M256 432Q256 368 238 308T189 189T116 73T26 -42L-32 -8Q13 47 50 100T115 208T157 315T172 424Q172 464 167 506T155 587T138 659T119 714L194 744Q220 670 238 589T256 432Z" />
<glyph unicode="*" glyph-name="asterisk" horiz-adv-x="322" d="M131 538L187 603L126 625L148 667L209 640L221 714H272L253 640L326 667L329 625L259 603L288 538L245 513L219 580L162 513L131 538Z" />
<glyph unicode="+" glyph-name="plus" horiz-adv-x="416" d="M375 391V319H257V191H177V319H59V391H177V519H257V391H375Z" />
<glyph unicode="," glyph-name="comma" horiz-adv-x="208" d="M-7 -81L32 8H2L24 112H106L84 8L36 -81H-7Z" />
<glyph unicode="-" glyph-name="hyphen" horiz-adv-x="406" d="M48 233L65 313H346L329 233H48Z" />
<glyph unicode="." glyph-name="period" horiz-adv-x="200" d="M0 0L24 112H98L74 0H0Z" />
<glyph unicode="/" glyph-name="slash" horiz-adv-x="628" d="M680 710L72 0H-26L582 710H680Z" />
<glyph unicode="0" glyph-name="zero" horiz-adv-x="594" d="M231 -10Q188 -10 154 7T95 55T58 128T45 222Q45 300 71 368T140 487T241 567T360 597Q403 597 437 580T496 532T533 458T546 364Q546 286 520 218T450 99T349 19T231 -10ZM248 72Q289 72 327 94T393
154T439 243T456 354Q456 426 426 470T343 515Q301 515 263 493T197 432T151 342T134 232Q134 160 164 116T248 72Z" />
<glyph unicode="1" glyph-name="one" horiz-adv-x="434" d="M20 80H155L238 470Q227 458 206 445T160 420T110 400T66 392L84 476Q105 476 133 488T188 517T235 549T259 571H349L245 80H366L349 0H3L20 80Z" />
<glyph unicode="2" glyph-name="two" horiz-adv-x="514" d="M-21 0Q-12 40 1 75T38 142T98 203T189 261Q224 279 260 295T324 330T371 371T389 424Q389 454 366 478T295 503Q267 503 243 495T198 474T161 447T133 422L90 486Q100 495 122 510T175 542T245 569T328
581Q367 581 396 571T446 542T477 500T488 447Q488 402 468 368T418 309T355 267T295 237Q272 226 244 211T188 176T138 132T104 80H422L405 0H-21V0Z" />
<glyph unicode="3" glyph-name="three" horiz-adv-x="519" d="M152 -147Q80 -147 31 -119T-38 -38L32 21Q46 -20 77 -43T168 -67Q246 -67 291 -27T337 87Q337 137 305 166T206 196H181L197 270H224Q263 270 294 281T347 312T381 358T393 414Q393 456 365 476T291
497Q240 497 197 474T121 408L79 464Q97 489 123 509T180 545T246 568T317 576Q397 576 442 536T488 430Q488 396 476 364T443 305T393 260T330 236Q378 227 404 190T430 98Q430 44 409 -1T351 -78T263 -129T152 -147Z" />
<glyph unicode="4" glyph-name="four" horiz-adv-x="539" d="M274 42H-28L-11 120L415 571H475L379 122H463L446 42H362L326 -127H238L274 42ZM300 122L367 435L80 122H300Z" />
<glyph unicode="5" glyph-name="five" horiz-adv-x="528" d="M156 -149Q84 -149 34 -113T-34 -17L31 31Q48 -15 85 -43T173 -71Q210 -71 243 -57T302 -17T343 42T359 116Q359 170 328 203T246 237Q206 237 167 218T99 164H20Q23 171 36 204T68 282T106 378T143
472T171 543T183 571H511L494 490H230L143 264Q168 287 201 300T273 314Q313 314 346 301T402 263T438 206T451 132Q451 71 427 20T361 -69T267 -128T156 -149Z" />
<glyph unicode="6" glyph-name="six" horiz-adv-x="591" d="M238 -10Q147 -10 97 50T47 216Q47 316 73 406T145 565T257 674T401 715Q467 715 513 682T578 589L513 536Q502 583 468 610T383 638Q345 638 310 620T246 565T193 478T154 360Q186 412 238 443T349
474Q391 474 426 459T485 418T523 356T537 278Q537 220 512 168T446 76T350 13T238 -10ZM255 66Q291 66 326 82T389 125T434 189T451 265Q451 294 442 319T417 363T377 392T326 403Q289 403 254 387T192 344T147 280T130 205Q130 176 139 151T164 107T204 77T255
66Z" />
<glyph unicode="7" glyph-name="seven" horiz-adv-x="516" d="M408 502H66L83 583H565L75 -127H-25L408 502Z" />
<glyph unicode="8" glyph-name="eight" horiz-adv-x="576" d="M220 -8Q176 -8 140 5T78 43T38 99T24 170Q24 211 39 245T79 305T132 350T190 380Q158 396 137 427T116 500Q116 549 140 588T203 654T286 695T374 710Q408 710 441 700T499 670T540 621T556 555Q556
523 544 496T513 447T468 408T417 380Q456 362 482 324T509 233Q509 180 485 136T420 59T327 10T220 -8ZM239 71Q270 71 302 82T360 115T403 165T420 230Q420 257 410 278T382 313T342 335T295 343Q264 343 232 332T175 299T133 249T116 184Q116 158 126 137T154
102T193 79T239 71ZM311 411Q335 411 362 419T411 444T449 485T464 541Q464 583 433 607T357 631Q329 631 302 622T254 597T219 556T205 503Q205 481 214 464T238 435T272 417T311 411Z" />
<glyph unicode="9" glyph-name="nine" horiz-adv-x="574" d="M173 -154Q107 -154 61 -121T-4 -28L61 25Q72 -22 106 -49T191 -77Q229 -77 264 -59T328 -4T381 83T419 201Q387 149 335 118T224 87Q182 87 148 102T89 143T51 205T37 283Q37 341 62 393T128 485T224
548T336 571Q426 571 476 511T527 345Q527 245 501 155T429 -4T317 -113T173 -154ZM247 158Q284 158 319 174T382 217T427 281T444 356Q444 385 435 410T410 454T370 484T319 495Q283 495 248 479T184 436T139 372T122 296Q122 267 131 242T157 198T197 169T247
158Z" />
<glyph unicode=":" glyph-name="colon" horiz-adv-x="198" d="M84 406L108 518H181L157 406H84ZM-2 0L22 112H95L71 0H-2Z" />
<glyph unicode=";" glyph-name="semicolon" horiz-adv-x="202" d="M85 406L108 518H181L157 406H85ZM-9 -81L30 8H0L22 112H104L82 8L34 -81H-9Z" />
<glyph unicode="&lt;" glyph-name="less" horiz-adv-x="547" d="M30 280L450 533V439L158 259L450 82V-16L30 234V280Z" />
<glyph unicode="=" glyph-name="equal" horiz-adv-x="479" d="M81 179V239H386V179H81ZM81 313V373H386V313H81Z" />
<glyph unicode="&gt;" glyph-name="greater" horiz-adv-x="546" d="M498 234L78 -16V82L370 259L78 439V533L498 280V234Z" />
<glyph unicode="?" glyph-name="question" horiz-adv-x="462" d="M117 211Q128 265 154 305T231 375Q253 388 281 402T335 437T378 485T396 554Q396 599 369 622T303 646Q280 646 258 639T215 618T177 588T146 551L95 590Q114 621 140 645T196 685T257 710T321
719Q352 719 380 710T429 682T463 635T476 567Q476 519 463 486T429 429T378 386T315 351Q295 341 276 330T240 304T211 266T191 211H117ZM74 0L99 116H172L148 0H74Z" />
<glyph unicode="@" glyph-name="at" horiz-adv-x="808" d="M569 28Q601 28 626 57T669 128T696 217T705 302Q705 351 689 397T642 481T563 540T453 563Q381 563 312 532T188 448T100 321T66 164Q66 107 82 58T130 -28T207 -85T309 -106Q351 -106 387 -96T463 -68L468
-106Q425 -126 383 -136T300 -146Q239 -146 188 -124T101 -62T44 35T24 160Q24 226 42 284T92 392T166 480T258 546T359 588T463 603Q531 603 584 579T673 514T728 421T747 314Q747 290 743 256T730 186T707 113T671 48T621 2T556 -16Q527 -16 507 -2T487 50Q487
55 487 61T489 73Q456 41 412 20T322 -1Q285 -1 256 13T206 53T175 112T164 183Q164 236 184 285T238 373T316 435T407 458Q461 458 494 431T542 362L560 450H616L541 99Q539 89 538 81T537 66Q537 28 569 28ZM347 49Q371 49 395 58T439 83T476 119T501 163L525
300Q509 357 477 382T406 407Q374 407 341 391T282 346T240 280T223 199Q223 166 233 139T259 91T298 60T347 49Z" />
<glyph unicode="A" glyph-name="A" horiz-adv-x="652" d="M378 710H455L578 0H482L448 208H170L49 0H-47L378 710ZM444 278L395 606L202 278H444Z" />
<glyph unicode="B" glyph-name="B" horiz-adv-x="647" d="M171 710H509Q539 710 561 698T599 665T621 619T629 565Q629 533 619 503T591 447T548 399T492 364Q537 349 560 311T584 221Q584 171 564 131T509 61T431 16T341 0H20L171 710ZM357 78Q383 78 408 90T452
122T483 169T495 224Q495 264 474 293T416 322H178L127 78H357ZM405 395Q430 395 453 406T495 438T524 484T535 539Q535 579 516 605T461 632H244L194 395H405Z" />
<glyph unicode="C" glyph-name="C" horiz-adv-x="653" d="M293 -6Q234 -6 188 19T110 87T62 183T45 294Q45 367 75 442T160 577T288 676T451 714Q496 714 532 703T597 671T643 622T670 559L589 513Q581 547 565 570T528 607T481 627T430 633Q365 633 311 602T218
523T158 415T136 299Q136 254 148 213T183 142T239 93T314 75Q340 75 369 82T427 104T483 143T531 200L597 159Q573 119 537 89T460 37T376 5T293 -6Z" />
<glyph unicode="D" glyph-name="D" horiz-adv-x="692" d="M171 710H406Q473 710 522 689T604 631T652 544T668 437Q668 343 637 263T551 125T420 33T255 0H20L171 710ZM272 80Q342 80 398 108T493 183T554 293T575 423Q575 468 563 506T528 571T470 614T389 630H244L127
80H272Z" />
<glyph unicode="E" glyph-name="E" horiz-adv-x="580" d="M171 710H621L604 630H244L195 400H508L492 325H179L127 80H496L479 0H20L171 710Z" />
<glyph unicode="F" glyph-name="F" horiz-adv-x="565" d="M171 710H617L600 630H244L194 393H493L477 318H178L110 0H20L171 710Z" />
<glyph unicode="G" glyph-name="G" horiz-adv-x="686" d="M516 95Q461 44 406 20T292 -5Q235 -5 189 19T111 85T62 180T45 292Q45 373 78 449T167 584T295 679T445 715Q543 715 597 672T671 560L592 512Q575 574 532 604T426 634Q367 634 314 605T222 528T159
420T136 297Q136 251 148 211T184 141T241 94T316 76Q370 76 424 103T536 189L557 286H412L427 354H647L572 0H496L516 95Z" />
<glyph unicode="H" glyph-name="H" horiz-adv-x="713" d="M171 710H261L196 403H561L626 710H716L565 0H475L544 323H179L110 0H20L171 710Z" />
<glyph unicode="I" glyph-name="I" horiz-adv-x="258" d="M171 709H261L110 0H20L171 709Z" />
<glyph unicode="J" glyph-name="J" horiz-adv-x="472" d="M98 -11Q13 -11 -39 33L-1 106Q14 92 44 81T115 70Q162 70 194 88T248 141T285 229T316 349L393 709H483L406 349Q389 268 368 202T312 88T227 15T98 -11Z" />
<glyph unicode="K" glyph-name="K" horiz-adv-x="625" d="M171 709H261L177 317L602 710H700L364 397L564 0H465L297 345L156 217L110 0H20L171 709Z" />
<glyph unicode="L" glyph-name="L" horiz-adv-x="559" d="M171 710H261L127 80H500L483 0H20L171 710Z" />
<glyph unicode="M" glyph-name="M" horiz-adv-x="838" d="M171 710H266L408 249L747 710H841L690 0H600L717 549L408 128H357L227 549L110 0H20L171 710Z" />
<glyph unicode="N" glyph-name="N" horiz-adv-x="739" d="M171 710H241L535 157L652 709H742L591 0H516L225 542L110 0H20L171 710Z" />
<glyph unicode="O" glyph-name="O" horiz-adv-x="721" d="M295 -5Q235 -5 188 19T109 84T61 178T44 288Q44 369 78 446T168 583T298 679T450 715Q510 715 556 690T634 624T682 530T699 420Q699 339 666 263T576 127T446 31T295 -5ZM313 76Q374 76 428 106T521
185T584 294T607 413Q607 457 596 497T562 567T506 615T431 633Q369 633 316 603T222 525T159 416T136 296Q136 252 147 212T181 142T237 94T313 76Z" />
<glyph unicode="P" glyph-name="P" horiz-adv-x="601" d="M171 710H453Q491 710 521 694T572 652T604 592T615 522Q615 474 595 426T540 340T459 279T361 255H164L110 0H20L171 710ZM373 335Q403 335 430 350T478 390T511 447T523 514Q523 565 497 597T430 630H244L181
335H373Z" />
<glyph unicode="Q" glyph-name="Q" horiz-adv-x="720" d="M488 54Q443 26 395 11T295 -5Q235 -5 188 19T109 84T61 178T44 288Q44 369 78 446T168 583T298 679T450 715Q510 715 556 690T634 624T682 530T699 420Q699 329 658 245T548 100L610 0H522L488 54ZM313
76Q350 76 384 87T448 119L379 232H466L506 167Q553 218 580 282T607 413Q607 457 596 497T562 567T506 616T431 634Q369 634 316 604T222 525T159 417T136 296Q136 252 147 212T181 142T237 94T313 76Z" />
<glyph unicode="R" glyph-name="R" horiz-adv-x="633" d="M20 0L171 710H461Q499 710 529 694T580 652T612 592T623 522Q623 480 608 440T568 366T508 307T433 272L538 0H436L338 255H164L110 0H20ZM382 335Q412 335 439 350T486 391T518 447T530 512Q530 536
523 557T504 595T476 620T439 630H244L181 335H382Z" />
<glyph unicode="S" glyph-name="S" horiz-adv-x="588" d="M242 -7Q164 -7 100 18T-12 93L47 169Q58 152 78 135T126 105T188 83T261 74Q342 74 388 107T435 201Q435 225 424 242T391 273T338 297T268 318Q227 329 195 342T141 372T108 413T96 469Q96 527 119 572T182
649T275 698T389 715Q457 715 508 693T594 634L537 561Q529 575 513 588T475 611T427 628T370 635Q279 635 237 596T195 498Q195 476 204 461T233 434T280 413T346 394Q389 383 424 370T483 337T521 292T535 229Q535 169 512 125T448 51T355 8T242 -7Z" />
<glyph unicode="T" glyph-name="T" horiz-adv-x="586" d="M317 630H86L103 710H655L638 630H407L273 0H183L317 630Z" />
<glyph unicode="U" glyph-name="U" horiz-adv-x="725" d="M298 -5Q235 -5 192 13T122 64T83 139T71 232Q71 287 85 351L161 710H251L175 351Q163 297 163 247Q163 211 170 180T196 126T243 89T314 76Q372 76 415 100T489 162T540 250T571 351L647 710H737L661
351Q646 279 617 215T542 101T437 24T298 -5Z" />
<glyph unicode="V" glyph-name="V" horiz-adv-x="650" d="M95 710H190L282 113L627 710H722L297 0H219L95 710Z" />
<glyph unicode="W" glyph-name="W" horiz-adv-x="1002" d="M93 710H190L286 104L461 397L410 706H495L530 459L671 706H756L574 397L624 104L977 710H1076L643 0H566L505 335L300 0H223L93 710Z" />
<glyph unicode="X" glyph-name="X" horiz-adv-x="610" d="M267 350L91 710H191L330 414L594 710H693L364 350L534 0H435L302 286L48 0H-52L267 350Z" />
<glyph unicode="Y" glyph-name="Y" horiz-adv-x="612" d="M248 261L89 710H188L310 340L591 710H689L337 259L282 0H192L248 261Z" />
<glyph unicode="Z" glyph-name="Z" horiz-adv-x="600" d="M-19 70L530 630H109L126 710H652L637 640L96 80H518L501 0H-34L-19 70Z" />
<glyph unicode="[" glyph-name="bracketleft" horiz-adv-x="265" d="M10 -40L176 740H313L298 668H242L107 32H163L148 -40H10Z" />
<glyph unicode="\" glyph-name="backslash" horiz-adv-x="556" d="M207 710L469 0H371L108 710H207Z" />
<glyph unicode="]" glyph-name="bracketright" horiz-adv-x="265" d="M-27 -40L-12 32H44L179 668H123L139 740H276L111 -40H-27Z" />
<glyph unicode="^" glyph-name="asciicircum" horiz-adv-x="556" d="M51 303L249 710H323L520 303H445L286 631L124 303H51Z" />
<glyph unicode="_" glyph-name="underscore" horiz-adv-x="483" d="M-19 -80L-2 0H355L338 -80H-19Z" />
<glyph unicode="`" glyph-name="grave" horiz-adv-x="223" d="M72 730H158L192 629L131 609L72 730Z" />
<glyph unicode="a" glyph-name="a" horiz-adv-x="606" d="M208 -10Q164 -10 130 7T71 54T35 123T22 207Q22 270 46 328T109 432T201 504T311 531Q371 531 410 499T467 418L490 522H578L490 108Q489 104 489 101T488 95Q488 77 510 76L494 0Q483 -2 475 -3T459
-4Q431 -4 417 8T402 41Q402 57 411 98Q372 47 317 19T208 -10ZM246 66Q268 66 293 75T343 100T388 137T418 183L449 333Q446 358 434 380T405 419T366 445T321 455Q279 455 242 435T177 381T132 305T115 221Q115 189 124 161T150 111T192 78T246 66Z" />
<glyph unicode="b" glyph-name="b" horiz-adv-x="599" d="M263 -10Q201 -10 161 20T104 98L83 0H5L160 730H248L182 418Q224 469 276 500T386 531Q429 531 461 514T516 467T549 399T560 318Q560 252 535 193T468 88T373 17T263 -10ZM260 66Q299 66 336 86T403
139T449 214T467 302Q467 332 459 359T435 408T397 442T344 455Q318 455 293 445T244 419T201 380T164 333L132 182Q132 158 142 137T169 100T210 75T260 66Z" />
<glyph unicode="c" glyph-name="c" horiz-adv-x="531" d="M225 -10Q177 -10 140 7T76 55T36 125T22 210Q22 273 47 331T114 433T215 504T339 531Q414 531 460 497T522 404L431 377Q420 414 391 434T321 455Q281 455 244 437T177 387T131 312T113 221Q113 188 122
160T147 111T187 78T239 66Q260 66 282 72T324 90T360 115T385 147L466 121Q449 92 424 68T367 27T299 0T225 -10Z" />
<glyph unicode="d" glyph-name="d" horiz-adv-x="606" d="M208 -10Q164 -10 130 7T71 54T35 123T22 207Q22 270 46 328T109 432T201 504T311 531Q371 531 410 499T467 418L534 730H622L490 108Q489 104 489 101T488 95Q488 77 510 76L494 0Q483 -2 475 -3T459
-4Q431 -4 417 8T402 41Q402 50 404 63T411 98Q372 47 317 19T208 -10ZM246 66Q268 66 293 75T343 100T388 137T418 183L449 333Q446 358 434 380T405 419T366 445T321 455Q279 455 242 435T177 381T132 305T115 221Q115 189 124 161T150 111T192 78T246 66Z" />
<glyph unicode="e" glyph-name="e" horiz-adv-x="539" d="M228 -10Q179 -10 141 7T77 54T37 124T23 210Q23 273 47 331T114 433T215 504T341 531Q418 531 465 496T513 390Q513 310 444 270T228 229Q204 229 175 230T113 234Q112 228 112 222T112 211Q112 180 120
152T144 103T184 69T242 56Q288 56 332 79T401 143L472 122Q454 93 427 69T368 28T301 0T228 -10ZM333 465Q290 465 256 451T196 412T153 358T125 295Q155 292 181 291T231 290Q288 290 326 297T389 318T423 350T434 391Q434 429 407 447T333 465Z" />
<glyph unicode="f" glyph-name="f" horiz-adv-x="334" d="M126 453H59L74 522H141L143 533Q162 630 216 685T341 740Q370 740 397 732T445 708L409 643Q398 653 380 659T343 665Q302 665 274 632T232 536L229 522H360L345 453H214L73 -212H-15L126 453Z" />
<glyph unicode="g" glyph-name="g" horiz-adv-x="599" d="M164 -223Q80 -223 33 -192T-38 -108L22 -63Q42 -109 83 -132T178 -155Q212 -155 244 -145T304 -115T350 -65T379 6L398 98Q361 50 308 22T201 -6Q159 -6 126 11T69 57T34 125T22 207Q22 270 46 328T110
432T204 504T317 531Q379 531 417 499T477 418L499 522H577L467 6Q455 -50 427 -92T358 -164T267 -208T164 -223ZM244 66Q270 66 296 76T346 102T388 140T417 183L449 333Q445 360 433 382T404 420T365 446T319 455Q276 455 239 434T173 379T129 303T113 221Q113
189 122 161T149 112T190 79T244 66Z" />
<glyph unicode="h" glyph-name="h" horiz-adv-x="567" d="M160 730H248L180 410Q222 467 278 499T395 531Q461 531 488 495T515 401Q515 358 505 312L439 0H351L413 292Q417 312 419 328T421 360Q421 452 344 452Q320 452 294 442T243 413T196 370T160 315L93
0H5L160 730Z" />
<glyph unicode="i" glyph-name="i" horiz-adv-x="226" d="M116 522H204L93 0H5L116 522ZM160 730H248L225 620H137L160 730Z" />
<glyph unicode="j" glyph-name="j" horiz-adv-x="232" d="M-97 -186Q-130 -186 -157 -176T-203 -144L-150 -85Q-139 -98 -123 -103T-90 -108Q-75 -108 -60 -102T-31 -84T-8 -57T6 -23L122 522H210L95 -17Q87 -54 68 -85T22 -138T-35 -173T-97 -186ZM166 730H254L230
620H142L166 730Z" />
<glyph unicode="k" glyph-name="k" horiz-adv-x="542" d="M160 730H248L175 385Q198 415 224 441T280 488T341 519T409 531Q463 531 488 503T513 426Q513 362 471 308T345 219L460 0H365L241 255Q288 265 324 282T384 321T420 366T433 414Q433 440 420 449T386
459Q353 459 317 442T248 394T188 322T143 234L93 0H5L160 730Z" />
<glyph unicode="l" glyph-name="l" horiz-adv-x="280" d="M112 -7Q70 -7 48 13T25 71Q25 79 26 87T29 103L162 730H249L123 135Q122 130 122 126T121 116Q121 73 166 73Q177 73 192 76T221 85L218 14Q195 5 165 -1T112 -7Z" />
<glyph unicode="m" glyph-name="m" horiz-adv-x="883" d="M116 522H196L172 410Q212 466 268 498T382 531Q440 531 470 498T503 404Q549 467 603 499T717 531Q781 531 807 496T833 404Q833 364 822 312L755 0H667L729 292Q738 334 738 365Q738 452 666 452Q641
452 616 442T568 414T525 370T490 314L424 0H336L398 292Q407 335 407 366Q407 452 336 452Q286 452 238 415T160 315L93 0H5L116 522Z" />
<glyph unicode="n" glyph-name="n" horiz-adv-x="567" d="M116 522H196L172 410Q213 465 275 498T403 531Q466 531 491 498T517 408Q517 386 514 362T505 312L439 0H351L413 292Q422 335 422 367Q422 452 351 452Q326 452 299 442T245 413T197 370T160 315L93
0H5L116 522Z" />
<glyph unicode="o" glyph-name="o" horiz-adv-x="578" d="M222 -10Q174 -10 137 7T74 54T35 123T22 208Q22 271 47 329T115 432T215 504T337 531Q385 531 422 514T486 467T525 397T539 312Q539 250 514 192T446 89T345 17T222 -10ZM239 66Q278 66 315 85T381 136T429
210T447 301Q447 334 438 362T413 410T373 443T321 455Q283 455 246 436T179 385T131 309T113 219Q113 186 122 158T147 110T187 78T239 66Z" />
<glyph unicode="p" glyph-name="p" horiz-adv-x="600" d="M116 522H194L173 424Q213 472 266 501T376 531Q419 531 453 514T511 466T547 397T560 313Q560 251 537 193T475 89T383 17T273 -10Q212 -10 172 22T115 103L48 -213H-40L116 522ZM262 66Q304 66 341 86T406
140T451 215T468 299Q468 331 459 359T433 409T391 442T337 455Q315 455 289 446T239 421T195 384T165 338L133 189Q143 137 177 102T262 66Z" />
<glyph unicode="q" glyph-name="q" horiz-adv-x="599" d="M194 -10Q153 -10 121 7T67 53T34 120T22 203Q22 269 47 328T115 433T210 504T321 531Q379 531 420 501T478 423L499 522H577L445 -101Q444 -105 444 -108T443 -114Q443 -132 465 -133L449 -209Q429 -212
407 -212Q380 -212 363 -197T346 -157Q346 -152 348 -142L400 103Q355 47 303 19T194 -10ZM240 66Q292 66 337 98T416 178L448 328Q448 353 438 376T411 417T372 444T325 455Q284 455 246 435T178 381T132 305T114 218Q114 186 122 159T147 111T187 78T240 66Z"
/>
<glyph unicode="r" glyph-name="r" horiz-adv-x="354" d="M116 522H198L172 401Q210 455 258 489T355 523Q364 523 370 523T381 521L365 445Q302 443 248 411T161 322L93 0H5L116 522Z" />
<glyph unicode="s" glyph-name="s" horiz-adv-x="475" d="M178 -10Q118 -10 64 9T-24 66L26 125Q62 90 102 73T190 55Q250 55 287 82T324 154Q324 186 295 201T205 232Q168 242 141 252T96 275T69 304T60 344Q60 388 79 422T129 481T202 518T289 531Q345 531 389
512T461 462L410 409Q384 438 349 452T273 467Q247 467 225 461T185 443T157 411T147 367Q147 339 170 326T246 299Q287 288 318 277T371 252T402 219T413 174Q413 133 396 100T347 42T273 4T178 -10Z" />
<glyph unicode="t" glyph-name="t" horiz-adv-x="338" d="M142 -7Q101 -7 75 12T48 73Q48 87 51 102L126 453H58L73 522H140L177 696H265L228 522H339L324 453H214L145 129Q143 119 143 114Q143 93 156 84T188 74Q213 74 235 82T266 96L271 26Q253 13 218 3T142 -7Z" />
<glyph unicode="u" glyph-name="u" horiz-adv-x="577" d="M155 -10Q33 -10 33 122Q33 157 44 209L111 522H198L135 226Q126 185 126 157Q126 66 204 66Q254 66 305 100T392 195L461 522H549L461 108Q460 104 460 101T459 95Q459 77 481 76L465 0Q454 -2 446 -3T430
-4Q403 -4 389 8T375 40Q375 49 377 64T386 112Q341 53 280 22T155 -10Z" />
<glyph unicode="v" glyph-name="v" horiz-adv-x="508" d="M56 522H147L206 77Q287 189 345 299T433 522H517Q481 391 409 261T234 0H139L56 522Z" />
<glyph unicode="w" glyph-name="w" horiz-adv-x="768" d="M49 522H140L223 77Q255 119 283 159T338 242L268 522H359L399 353Q441 438 464 522H548Q528 453 498 384T425 245L466 77Q547 189 605 299T693 522H777Q741 391 669 261T494 0H399L362 147Q311 73 251
0H156L49 522Z" />
<glyph unicode="x" glyph-name="x" horiz-adv-x="492" d="M189 260L60 522H152L244 330L248 314L260 330L433 522H526L286 260L416 0H323L231 191L225 206L214 191L41 0H-52L189 260Z" />
<glyph unicode="y" glyph-name="y" horiz-adv-x="501" d="M-35 -153Q-4 -149 18 -143T58 -126T91 -98T123 -55L152 -11L51 522H142L214 79L248 135Q290 204 319 256T368 352T403 436T429 522H516Q502 474 487 432T449 344T393 240T310 103L230 -26Q196 -81 166
-118T107 -179T46 -212T-23 -224L-35 -153Z" />
<glyph unicode="z" glyph-name="z" horiz-adv-x="470" d="M-23 57L371 458H71L85 522H483L471 465L79 64H387L373 0H-35L-23 57Z" />
<glyph unicode="{" glyph-name="braceleft" horiz-adv-x="265" d="M245 668L193 424Q190 410 180 392T151 360Q160 350 163 337T167 311Q167 301 166 296L112 41H164L149 -31H38Q32 -31 27 -27T22 -12Q22 -5 23 -1L80 270Q81 275 81 285Q81 302 74 314T52 329L66
393Q76 393 85 399T101 414T112 432T119 450L174 710Q178 729 187 734T202 740H313L297 668H245Z" />
<glyph unicode="|" glyph-name="bar" horiz-adv-x="302" d="M118 -130V775H194V-130H118Z" />
<glyph unicode="}" glyph-name="braceright" horiz-adv-x="264" d="M124 668L139 740H249Q253 740 259 736T266 719Q266 713 265 710L209 450Q208 446 208 438Q208 423 214 408T238 393L224 329Q205 326 191 309T171 270L114 -1Q110 -18 101 -24T85 -31H-25L-10
41H43L97 296Q100 310 110 328T138 360Q130 371 126 383T122 408Q122 413 122 416T124 424L176 668H124Z" />
<glyph unicode="~" glyph-name="asciitilde" horiz-adv-x="513" d="M49 237Q50 243 60 261T87 298T129 333T186 349Q209 349 227 340T261 321T295 301T332 292Q351 292 365 299T389 316T404 333T409 344H460Q459 341 450 324T423 288T379 253T319 237Q295 237
276 245T241 264T208 284T174 293Q156 293 143 285T120 266T106 247T101 237H49V237Z" />
<glyph unicode="&#xa0;" glyph-name="uni00A0" horiz-adv-x="247" />
<glyph unicode="&#xa1;" glyph-name="exclamdown" horiz-adv-x="257" d="M209 474L108 -3H20L121 474H209ZM260 714L234 590H146L172 714H260Z" />
<glyph unicode="&#xa2;" glyph-name="cent" horiz-adv-x="548" d="M176 -120L200 -9Q159 -6 127 14T73 64T40 133T28 211Q28 266 49 320T108 419T198 493T314 530L339 645H382L358 530Q427 528 469 495T529 404L438 377Q427 413 402 431T341 452L260 68Q276 69
296 75T334 92T368 116T392 147L473 121Q454 88 425 64T364 23T300 -2T243 -10L220 -120H176ZM119 221Q119 194 125 169T145 124T176 91T217 72L297 449Q259 444 227 422T170 367T133 297T119 221Z" />
<glyph unicode="&#xa3;" glyph-name="sterling" horiz-adv-x="491" d="M69 375H151Q143 410 133 444T123 512Q123 554 142 590T192 655T263 699T345 715Q399 715 441 687T504 610L444 556Q430 595 398 618T328 642Q304 642 281 632T241 604T214 563T203 512Q203
480 213 447T232 375H404L389 307H240Q240 278 235 253T215 200T173 142T101 69Q138 79 173 79Q192 79 208 76T240 70T270 64T302 61Q320 61 340 65T386 79L393 12Q367 -1 338 -8T282 -15Q261 -15 242 -11T203 -3T164 6T122 10Q99 10 68 5T9 -8L1 56Q47 96 77 126T126
185T153 242T161 307H55L69 375Z" />
<glyph unicode="&#xa4;" glyph-name="currency" horiz-adv-x="567" d="M181 486Q203 503 230 512T290 521Q322 521 349 512T399 486L470 558L511 517L439 445Q472 398 472 337Q472 277 438 229L511 157L475 121L401 190Q379 173 351 164T290 154Q257 154 229 163T178
190L105 121L69 157L141 229Q125 252 117 279T108 337Q108 399 140 445L69 517L110 558L181 486ZM180 336Q180 310 188 288T212 250T247 225T290 215Q313 215 333 224T368 250T391 289T400 338Q400 364 392 386T368 424T333 450T290 459Q267 459 247 450T212 424T189
385T180 336Z" />
<glyph unicode="&#xa5;" glyph-name="yen" horiz-adv-x="660" d="M450 377H527L514 317H405L360 259L354 231H496L484 171H341L305 0H215L251 171H111L124 231H264L271 261L252 317H142L155 377H233L113 710H211L332 340L613 710H712L450 377Z" />
<glyph unicode="&#xa6;" glyph-name="brokenbar" horiz-adv-x="296" d="M191 273V-130H115V273H191ZM191 775V372H115V775H191Z" />
<glyph unicode="&#xa7;" glyph-name="section" horiz-adv-x="498" d="M392 201Q415 181 415 132Q415 75 391 34T330 -35T251 -75T172 -88Q137 -88 109 -79T60 -56T23 -25T-3 7L65 61Q91 27 120 12T186 -4Q209 -4 233 4T276 26T308 62T321 111Q321 130 313 142T292
161T264 170T232 174Q158 179 116 213T73 310Q73 349 88 378T117 423Q106 434 100 456T93 506Q93 551 114 589T168 655T242 699T326 715Q364 715 391 706T437 681T469 648T489 611L414 579Q405 610 376 623T314 636Q290 636 267 628T225 605T195 568T183 519Q183
480 209 465T275 449Q306 449 335 442T388 420T426 380T441 319Q441 281 425 250T392 201ZM158 310Q158 277 176 263T219 243T271 235T315 225Q332 237 343 259T355 305Q355 325 347 339T325 361T295 373T263 377Q220 377 194 390Q180 378 169 357T158 310Z" />
<glyph unicode="&#xa8;" glyph-name="dieresis" horiz-adv-x="357" d="M73 624L95 726H169L147 624H73ZM230 624L252 726H325L304 624H230Z" />
<glyph unicode="&#xa9;" glyph-name="copyright" horiz-adv-x="849" d="M434 -7Q354 -7 287 20T170 96T93 211T65 355Q65 432 93 498T170 612T286 687T434 715Q514 715 582 688T701 612T779 498T807 355Q807 277 779 211T701 97T583 21T434 -7ZM434 31Q504 31
564 54T670 120T740 222T766 353Q766 422 741 481T672 584T567 652T434 677Q363 677 303 653T199 585T130 482T105 354Q105 285 130 226T199 124T303 56T434 31ZM442 121Q393 121 350 138T274 186T222 260T203 355Q203 398 217 440T261 515T334 569T437 590Q507
590 560 560T638 474L553 447Q544 467 530 480T500 500T468 511T437 514Q401 514 374 501T329 465T302 414T293 355Q293 317 306 288T341 238T388 208T439 197Q474 197 508 215T559 267L644 241Q636 221 618 200T574 161T515 132T442 121Z" />
<glyph unicode="&#xaa;" glyph-name="ordfeminine" horiz-adv-x="418" d="M165 344Q123 344 98 370T73 435Q73 464 86 488T122 529T175 557T241 567Q292 567 328 550L333 575Q336 588 336 599Q336 628 319 644T268 661Q242 661 214 651T152 620L139 665Q215 711
284 711Q342 711 374 685T406 608Q406 598 405 588T401 567L373 436Q372 433 372 427Q372 413 388 412L375 350Q360 347 348 347Q304 347 304 379Q304 384 305 389T308 409Q278 377 241 361T165 344ZM196 397Q213 397 232 402T267 417T294 437T308 461L318 509Q303
517 284 520T244 524Q200 524 171 504T141 450Q141 427 156 412T196 397Z" />
<glyph unicode="&#xab;" glyph-name="guillemotleft" horiz-adv-x="576" d="M36 280L316 461L300 387L102 259L246 134L230 60L26 234L36 280ZM270 280L550 461L535 387L337 259L481 134L465 60L261 234L270 280Z" />
<glyph unicode="&#xac;" glyph-name="logicalnot" horiz-adv-x="571" d="M517 375L462 120H387L424 295H65L82 375H517Z" />
<glyph unicode="&#xad;" glyph-name="uni00AD" horiz-adv-x="560" d="M48 233L65 313H500L483 233H48Z" />
<glyph unicode="&#xae;" glyph-name="registered" horiz-adv-x="849" d="M435 -7Q355 -7 288 20T171 96T93 211T65 355Q65 432 93 498T170 612T287 687T435 715Q515 715 583 688T701 612T779 498T807 355Q807 277 779 211T701 97T583 21T435 -7ZM435 30Q505 30
565 53T669 120T739 222T765 354Q765 423 740 482T671 584T567 652T435 677Q364 677 304 653T200 585T132 482T107 355Q107 286 131 227T199 124T303 55T435 30ZM280 579H472Q502 579 527 567T570 534T598 487T608 435Q608 388 582 351T512 302L621 130H548L446
292H345V130H280V579ZM469 349Q505 349 524 373T544 435Q544 473 522 496T466 520H345V349H469Z" />
<glyph unicode="&#xaf;" glyph-name="overscore" horiz-adv-x="385" d="M83 652L95 710H374L361 652H83Z" />
<glyph unicode="&#xb0;" glyph-name="degree" horiz-adv-x="265" d="M182 546Q151 546 132 565T113 616Q113 636 121 655T144 690T178 714T220 724Q252 724 270 704T289 653Q289 631 281 612T257 578T223 555T182 546ZM192 593Q209 593 225 608T241 643Q241 658
233 667T210 677Q192 677 176 663T160 628Q160 611 169 602T192 593Z" />
<glyph unicode="&#xb1;" glyph-name="plusminus" horiz-adv-x="485" d="M64 51V123H396V51H64ZM396 404V332H270V196H190V332H64V404H190V540H270V404H396Z" />
<glyph unicode="&#xb2;" glyph-name="twosuperior" horiz-adv-x="383" d="M56 400Q64 439 77 468T110 520T156 558T217 588Q243 598 270 607T319 629T355 658T369 701Q369 725 350 741T291 757Q245 757 212 739T160 704L133 743Q139 750 154 761T192 784T245 803T310
811Q372 811 402 784T432 712Q432 652 392 619T271 560Q240 550 219 537T185 510T164 482T154 454H372L360 400H56Z" />
<glyph unicode="&#xb3;" glyph-name="threesuperior" horiz-adv-x="379" d="M204 394Q147 394 113 418T69 480L109 518Q109 507 115 496T134 474T167 457T214 450Q237 450 258 455T296 469T323 492T333 522Q333 552 299 567T205 583H183L193 634H215Q281 634 319
651T358 704Q358 731 335 745T276 760Q239 760 208 745T156 706L129 749Q154 778 198 794T287 811Q347 811 382 784T418 713Q418 675 390 649T309 611Q347 605 367 582T388 524Q388 493 372 469T329 428T270 403T204 394Z" />
<glyph unicode="&#xb4;" glyph-name="acute" horiz-adv-x="222" d="M83 609L29 629L105 730H192L83 609Z" />
<glyph unicode="&#xb5;" glyph-name="mu" horiz-adv-x="606" d="M124 522H212L149 226Q140 187 140 157Q140 66 220 66Q269 66 320 100T406 195L476 522H564L476 108Q475 104 475 101T474 95Q474 77 497 76L480 0Q469 -2 460 -3T444 -4Q418 -4 404 7T389 39Q389
48 391 62T401 112Q385 88 362 66T312 27T256 0T199 -10Q156 -10 135 12T110 67L56 -212H-32L124 522Z" />
<glyph unicode="&#xb6;" glyph-name="paragraph" horiz-adv-x="595" d="M64 412Q64 479 87 534T152 628T255 688T391 710H639L624 642H558L404 -80H328L393 224H331L266 -80H190L255 224Q164 226 114 276T64 412ZM141 428Q141 362 177 329T269 292L344 642Q296
641 259 625T195 580T155 512T141 428ZM482 642H420L345 292H407L482 642Z" />
<glyph unicode="&#xb7;" glyph-name="middot" horiz-adv-x="199" d="M50 245L76 369H150L124 245H50Z" />
<glyph unicode="&#xb8;" glyph-name="cedilla" horiz-adv-x="283" d="M14 -126Q25 -133 46 -139T93 -145Q122 -145 139 -135T156 -103Q156 -87 145 -81T114 -75Q94 -75 71 -79T35 -88L113 21L149 7L104 -48Q112 -45 121 -44T139 -43Q168 -43 185 -55T202 -94Q202
-133 171 -157T78 -182Q49 -182 26 -177T-14 -163L14 -126Z" />
<glyph unicode="&#xb9;" glyph-name="onesuperior" horiz-adv-x="269" d="M282 455L270 400H69L81 455H157L219 749Q213 743 201 735T174 719T145 706T118 700L130 755Q145 755 162 763T195 782T221 801T232 811H288L212 455H282Z" />
<glyph unicode="&#xba;" glyph-name="ordmasculine" horiz-adv-x="431" d="M223 344Q189 344 163 356T120 388T93 435T84 492Q84 535 101 574T147 644T216 693T301 711Q334 711 360 700T404 668T431 621T440 563Q440 521 423 482T377 412T308 363T223 344ZM236
405Q261 405 284 417T326 449T356 496T368 553Q368 595 346 622T288 649Q263 649 240 638T198 606T168 558T156 501Q156 459 178 432T236 405Z" />
<glyph unicode="&#xbb;" glyph-name="guillemotright" horiz-adv-x="576" d="M521 234L243 60L258 134L455 259L312 387L328 461L531 280L521 234ZM286 234L8 60L24 134L221 259L78 387L93 461L296 280L286 234Z" />
<glyph unicode="&#xbc;" glyph-name="onequarter" horiz-adv-x="818" d="M629 100H415L426 153L711 406H749L695 154H752L740 100H684L663 0H608L629 100ZM643 154L681 334L483 154H643ZM272 375L260 320H59L71 375H147L209 669Q203 663 191 655T164 639T135 626T108
620L120 675Q135 675 152 683T185 702T211 721T222 731H278L202 375H272ZM82 33L420 370L747 715L782 678L448 343L116 -5L82 33Z" />
<glyph unicode="&#xbd;" glyph-name="onehalf" horiz-adv-x="847" d="M444 0Q452 39 465 68T496 120T541 158T600 188Q625 198 651 207T698 228T732 257T746 300Q746 325 728 341T671 357Q627 357 595 339T544 303L518 343Q524 350 539 361T576 384T626 403T689
411Q749 411 778 384T807 312Q807 282 798 260T771 221T723 189T652 160Q622 150 602 137T569 110T549 82T539 54H756L745 0H444ZM273 375L261 320H60L72 375H148L210 669Q204 663 192 655T165 639T136 626T109 620L121 675Q136 675 153 683T186 702T212 721T223
731H279L203 375H273ZM48 33L386 370L713 715L748 678L414 343L82 -5L48 33Z" />
<glyph unicode="&#xbe;" glyph-name="threequarters" horiz-adv-x="825" d="M189 314Q129 314 94 337T57 400L97 438Q97 427 103 415T122 393T154 377T200 370Q224 370 246 375T284 390T311 413T321 443Q321 472 287 487T193 503H171L181 554H203Q269 554 307
571T346 625Q346 651 322 665T265 680Q227 680 196 665T144 626L117 669Q142 698 185 714T276 731Q335 731 370 704T406 635Q406 594 378 568T297 531Q335 525 355 501T376 445Q376 413 360 389T318 348T258 323T189 314ZM635 100H421L432 153L717 406H755L701
154H758L746 100H690L669 0H614L635 100ZM649 154L687 334L489 154H649ZM111 33L449 370L776 715L811 678L477 343L145 -5L111 33Z" />
<glyph unicode="&#xbf;" glyph-name="questiondown" horiz-adv-x="457" d="M322 295Q311 241 285 201T208 131Q186 118 158 104T104 69T61 21T43 -48Q43 -93 70 -116T136 -140Q159 -140 181 -133T224 -112T262 -82T293 -45L344 -84Q324 -115 299 -139T243 -179T181
-204T118 -213Q87 -213 59 -204T10 -176T-24 -129T-37 -61Q-37 -13 -24 20T10 77T61 120T124 155Q144 165 163 176T199 202T228 240T248 295H322ZM365 506L340 390H267L291 506H365Z" />
<glyph unicode="&#xc0;" glyph-name="Agrave" horiz-adv-x="652" d="M378 710H455L578 0H482L448 208H170L49 0H-47L378 710ZM444 278L395 606L202 278H444ZM340 917H426L460 816L399 796L340 917Z" />
<glyph unicode="&#xc1;" glyph-name="Aacute" horiz-adv-x="652" d="M378 710H455L578 0H482L448 208H170L49 0H-47L378 710ZM444 278L395 606L202 278H444ZM432 795L378 815L454 916H541L432 795Z" />
<glyph unicode="&#xc2;" glyph-name="Acircumflex" horiz-adv-x="652" d="M378 710H455L578 0H482L448 208H170L49 0H-47L378 710ZM444 278L395 606L202 278H444ZM312 826L428 916H492L569 826L516 802L449 865L355 802L312 826Z" />
<glyph unicode="&#xc3;" glyph-name="Atilde" horiz-adv-x="652" d="M378 710H455L578 0H482L448 208H170L49 0H-47L378 710ZM444 278L395 606L202 278H444ZM495 813Q474 813 459 819T432 834T408 848T381 855Q365 855 355 848T338 833T328 816T325 807H273Q274
813 282 830T305 865T341 896T391 910Q411 910 425 904T450 889T474 874T504 867Q522 867 534 874T553 890T564 906T568 916H619Q618 910 610 894T587 859T549 827T495 813Z" />
<glyph unicode="&#xc4;" glyph-name="Adieresis" horiz-adv-x="652" d="M378 710H455L578 0H482L448 208H170L49 0H-47L378 710ZM444 278L395 606L202 278H444ZM309 811L331 913H405L383 811H309ZM466 811L488 913H561L540 811H466Z" />
<glyph unicode="&#xc5;" glyph-name="Aring" horiz-adv-x="652" d="M378 710H455L578 0H482L448 208H170L49 0H-47L378 710ZM444 278L395 606L202 278H444ZM364 834Q364 871 392 893T459 916Q490 916 507 901T524 860Q524 824 497 801T429 778Q399 778 382 793T364
834ZM452 885Q434 885 420 873T405 840Q405 827 413 818T436 809Q453 809 468 821T484 854Q484 868 475 876T452 885Z" />
<glyph unicode="&#xc6;" glyph-name="AE" horiz-adv-x="924" d="M500 710H966L949 630H596L548 402H849L832 322H531L479 80H840L823 0H373L418 208H183L18 0H-80L500 710ZM428 288L496 605L240 288H428Z" />
<glyph unicode="&#xc7;" glyph-name="Ccedilla" horiz-adv-x="649" d="M177 -126Q188 -133 209 -139T256 -145Q285 -145 302 -135T319 -103Q319 -87 308 -81T277 -75Q257 -75 234 -79T198 -88L258 -4Q206 3 166 30T98 98T56 189T41 294Q41 367 71 442T156 577T284
676T447 714Q492 714 528 703T593 671T639 622T666 559L585 513Q577 547 561 570T524 607T477 627T426 633Q361 633 307 602T214 523T154 415T132 299Q132 254 144 213T179 142T235 93T310 75Q336 75 365 82T423 104T479 143T527 200L593 159Q569 121 535 91T462
40T382 8T301 -5L267 -48Q275 -45 284 -44T302 -43Q331 -43 348 -55T365 -94Q365 -133 334 -157T241 -182Q212 -182 189 -177T149 -163L177 -126Z" />
<glyph unicode="&#xc8;" glyph-name="Egrave" horiz-adv-x="580" d="M171 710H621L604 630H244L195 400H508L492 325H179L127 80H496L479 0H20L171 710ZM351 917H437L471 816L410 796L351 917Z" />
<glyph unicode="&#xc9;" glyph-name="Eacute" horiz-adv-x="580" d="M432 795L378 815L454 916H541L432 795ZM171 710H621L604 630H244L195 400H508L492 325H179L127 80H496L479 0H20L171 710Z" />
<glyph unicode="&#xca;" glyph-name="Ecircumflex" horiz-adv-x="580" d="M303 826L419 916H483L560 826L507 802L440 865L346 802L303 826ZM171 710H621L604 630H244L195 400H508L492 325H179L127 80H496L479 0H20L171 710Z" />
<glyph unicode="&#xcb;" glyph-name="Edieresis" horiz-adv-x="580" d="M304 811L326 913H400L378 811H304ZM461 811L483 913H556L535 811H461ZM171 710H621L604 630H244L195 400H508L492 325H179L127 80H496L479 0H20L171 710Z" />
<glyph unicode="&#xcc;" glyph-name="Igrave" horiz-adv-x="258" d="M171 709H261L110 0H20L171 709ZM164 917H250L284 816L223 796L164 917Z" />
<glyph unicode="&#xcd;" glyph-name="Iacute" horiz-adv-x="258" d="M171 709H261L110 0H20L171 709ZM229 795L175 815L251 916H338L229 795Z" />
<glyph unicode="&#xce;" glyph-name="Icircumflex" horiz-adv-x="258" d="M171 709H261L110 0H20L171 709ZM110 826L226 916H290L367 826L314 802L247 865L153 802L110 826Z" />
<glyph unicode="&#xcf;" glyph-name="Idieresis" horiz-adv-x="258" d="M171 709H261L110 0H20L171 709ZM121 811L143 913H217L195 811H121ZM278 811L300 913H373L352 811H278Z" />
<glyph unicode="&#xd0;" glyph-name="Eth" horiz-adv-x="699" d="M57 391H110L178 710H413Q480 710 529 689T611 631T659 544T675 437Q675 343 644 263T558 125T427 33T262 0H27L95 323H42L57 391ZM279 80Q349 80 405 108T500 183T561 293T582 423Q582 468 570
506T535 571T477 614T396 630H251L200 391H351L337 323H185L134 80H279Z" />
<glyph unicode="&#xd1;" glyph-name="Ntilde" horiz-adv-x="739" d="M171 710H241L535 157L652 709H742L591 0H516L225 542L110 0H20L171 710ZM538 813Q517 813 502 819T475 834T451 848T424 855Q408 855 398 848T381 833T371 816T368 807H316Q317 813 325 830T348
865T384 896T434 910Q454 910 468 904T493 889T517 874T547 867Q565 867 577 874T596 890T607 906T611 916H662Q661 910 653 894T630 859T592 827T538 813Z" />
<glyph unicode="&#xd2;" glyph-name="Ograve" horiz-adv-x="721" d="M295 -5Q235 -5 188 19T109 84T61 178T44 288Q44 369 78 446T168 583T298 679T450 715Q510 715 556 690T634 624T682 530T699 420Q699 339 666 263T576 127T446 31T295 -5ZM313 76Q374 76 428
106T521 185T584 294T607 413Q607 457 596 497T562 567T506 615T431 633Q369 633 316 603T222 525T159 416T136 296Q136 252 147 212T181 142T237 94T313 76ZM421 917H507L541 816L480 796L421 917Z" />
<glyph unicode="&#xd3;" glyph-name="Oacute" horiz-adv-x="721" d="M474 795L420 815L496 916H583L474 795ZM295 -5Q235 -5 188 19T109 84T61 178T44 288Q44 369 78 446T168 583T298 679T450 715Q510 715 556 690T634 624T682 530T699 420Q699 339 666 263T576
127T446 31T295 -5ZM313 76Q374 76 428 106T521 185T584 294T607 413Q607 457 596 497T562 567T506 615T431 633Q369 633 316 603T222 525T159 416T136 296Q136 252 147 212T181 142T237 94T313 76Z" />
<glyph unicode="&#xd4;" glyph-name="Ocircumflex" horiz-adv-x="721" d="M352 826L468 916H532L609 826L556 802L489 865L395 802L352 826ZM295 -5Q235 -5 188 19T109 84T61 178T44 288Q44 369 78 446T168 583T298 679T450 715Q510 715 556 690T634 624T682 530T699
420Q699 339 666 263T576 127T446 31T295 -5ZM313 76Q374 76 428 106T521 185T584 294T607 413Q607 457 596 497T562 567T506 615T431 633Q369 633 316 603T222 525T159 416T136 296Q136 252 147 212T181 142T237 94T313 76Z" />
<glyph unicode="&#xd5;" glyph-name="Otilde" horiz-adv-x="721" d="M295 -5Q235 -5 188 19T109 84T61 178T44 288Q44 369 78 446T168 583T298 679T450 715Q510 715 556 690T634 624T682 530T699 420Q699 339 666 263T576 127T446 31T295 -5ZM313 76Q374 76 428
106T521 185T584 294T607 413Q607 457 596 497T562 567T506 615T431 633Q369 633 316 603T222 525T159 416T136 296Q136 252 147 212T181 142T237 94T313 76ZM532 813Q511 813 496 819T469 834T445 848T418 855Q402 855 392 848T375 833T365 816T362 807H310Q311
813 319 830T342 865T378 896T428 910Q448 910 462 904T487 889T511 874T541 867Q559 867 571 874T590 890T601 906T605 916H656Q655 910 647 894T624 859T586 827T532 813Z" />
<glyph unicode="&#xd6;" glyph-name="Odieresis" horiz-adv-x="721" d="M356 811L378 913H452L430 811H356ZM513 811L535 913H608L587 811H513ZM295 -5Q235 -5 188 19T109 84T61 178T44 288Q44 369 78 446T168 583T298 679T450 715Q510 715 556 690T634 624T682
530T699 420Q699 339 666 263T576 127T446 31T295 -5ZM313 76Q374 76 428 106T521 185T584 294T607 413Q607 457 596 497T562 567T506 615T431 633Q369 633 316 603T222 525T159 416T136 296Q136 252 147 212T181 142T237 94T313 76Z" />
<glyph unicode="&#xd7;" glyph-name="multiply" horiz-adv-x="471" d="M400 157L344 102L228 218L112 102L57 158L172 273L59 387L115 442L228 329L342 443L397 387L284 273L400 157Z" />
<glyph unicode="&#xd8;" glyph-name="Oslash" horiz-adv-x="721" d="M728 710L644 611Q671 571 685 522T699 420Q699 339 666 263T576 127T446 31T295 -5Q253 -5 218 7T154 40L120 0H22L102 93Q73 133 59 183T44 288Q44 369 78 446T168 583T298 679T450 715Q493
715 528 702T593 666L630 710H728ZM136 296Q136 260 143 227T165 167L533 597Q513 614 488 623T431 633Q369 633 316 603T222 525T159 416T136 296ZM313 76Q374 76 428 106T521 185T584 294T607 413Q607 483 580 537L213 109Q255 76 313 76Z" />
<glyph unicode="&#xd9;" glyph-name="Ugrave" horiz-adv-x="724" d="M298 -5Q235 -5 192 13T122 64T83 139T71 232Q71 287 85 351L161 710H251L175 351Q163 297 163 247Q163 211 170 180T196 126T243 89T314 76Q372 76 415 100T489 162T540 250T571 351L647 710H737L661
351Q646 279 617 215T542 101T437 24T298 -5ZM401 917H487L521 816L460 796L401 917Z" />
<glyph unicode="&#xda;" glyph-name="Uacute" horiz-adv-x="724" d="M464 795L410 815L486 916H573L464 795ZM298 -5Q235 -5 192 13T122 64T83 139T71 232Q71 287 85 351L161 710H251L175 351Q163 297 163 247Q163 211 170 180T196 126T243 89T314 76Q372 76 415
100T489 162T540 250T571 351L647 710H737L661 351Q646 279 617 215T542 101T437 24T298 -5Z" />
<glyph unicode="&#xdb;" glyph-name="Ucircumflex" horiz-adv-x="724" d="M339 826L455 916H519L596 826L543 802L476 865L382 802L339 826ZM298 -5Q235 -5 192 13T122 64T83 139T71 232Q71 287 85 351L161 710H251L175 351Q163 297 163 247Q163 211 170 180T196
126T243 89T314 76Q372 76 415 100T489 162T540 250T571 351L647 710H737L661 351Q646 279 617 215T542 101T437 24T298 -5Z" />
<glyph unicode="&#xdc;" glyph-name="Udieresis" horiz-adv-x="724" d="M347 811L369 913H443L421 811H347ZM504 811L526 913H599L578 811H504ZM298 -5Q235 -5 192 13T122 64T83 139T71 232Q71 287 85 351L161 710H251L175 351Q163 297 163 247Q163 211 170 180T196
126T243 89T314 76Q372 76 415 100T489 162T540 250T571 351L647 710H737L661 351Q646 279 617 215T542 101T437 24T298 -5Z" />
<glyph unicode="&#xdd;" glyph-name="Yacute" horiz-adv-x="612" d="M248 261L89 710H188L310 340L591 710H689L337 259L282 0H192L248 261ZM404 795L350 815L426 916H513L404 795Z" />
<glyph unicode="&#xde;" glyph-name="Thorn" horiz-adv-x="581" d="M171 710H261L232 573H406Q445 573 475 557T526 515T558 455T569 385Q569 336 549 289T494 203T413 142T315 118H135L110 0H20L171 710ZM328 198Q359 198 386 213T433 254T465 312T477 376Q477
425 452 459T385 493H215L152 198H328Z" />
<glyph unicode="&#xdf;" glyph-name="germandbls" horiz-adv-x="532" d="M184 75Q228 76 266 86T331 117T374 169T390 245Q390 296 360 326T277 357H258L275 437H293Q319 437 341 446T381 472T407 511T417 561Q417 600 393 619T335 638Q306 638 283 627T243 597T214
554T196 503L89 0H5L115 517Q124 560 146 596T201 659T272 699T355 714Q422 714 463 678T505 581Q505 551 494 522T464 468T423 427T375 402Q428 390 454 348T481 249Q481 188 457 142T390 63T290 14T167 -6L184 75Z" />
<glyph unicode="&#xe0;" glyph-name="agrave" horiz-adv-x="606" d="M208 -10Q164 -10 130 7T71 54T35 123T22 207Q22 270 46 328T109 432T201 504T311 531Q371 531 410 499T467 418L490 522H578L490 108Q489 104 489 101T488 95Q488 77 510 76L494 0Q483 -2 475
-3T459 -4Q431 -4 417 8T402 41Q402 57 411 98Q372 47 317 19T208 -10ZM246 66Q268 66 293 75T343 100T388 137T418 183L449 333Q446 358 434 380T405 419T366 445T321 455Q279 455 242 435T177 381T132 305T115 221Q115 189 124 161T150 111T192 78T246 66ZM262
730H348L382 629L321 609L262 730Z" />
<glyph unicode="&#xe1;" glyph-name="aacute" horiz-adv-x="606" d="M208 -10Q164 -10 130 7T71 54T35 123T22 207Q22 270 46 328T109 432T201 504T311 531Q371 531 410 499T467 418L490 522H578L490 108Q489 104 489 101T488 95Q488 77 510 76L494 0Q483 -2 475
-3T459 -4Q431 -4 417 8T402 41Q402 57 411 98Q372 47 317 19T208 -10ZM246 66Q268 66 293 75T343 100T388 137T418 183L449 333Q446 358 434 380T405 419T366 445T321 455Q279 455 242 435T177 381T132 305T115 221Q115 189 124 161T150 111T192 78T246 66ZM354
609L300 629L376 730H463L354 609Z" />
<glyph unicode="&#xe2;" glyph-name="acircumflex" horiz-adv-x="606" d="M208 -10Q164 -10 130 7T71 54T35 123T22 207Q22 270 46 328T109 432T201 504T311 531Q371 531 410 499T467 418L490 522H578L490 108Q489 104 489 101T488 95Q488 77 510 76L494 0Q483
-2 475 -3T459 -4Q431 -4 417 8T402 41Q402 57 411 98Q372 47 317 19T208 -10ZM246 66Q268 66 293 75T343 100T388 137T418 183L449 333Q446 358 434 380T405 419T366 445T321 455Q279 455 242 435T177 381T132 305T115 221Q115 189 124 161T150 111T192 78T246
66ZM223 640L339 730H403L480 640L427 616L360 679L266 616L223 640Z" />
<glyph unicode="&#xe3;" glyph-name="atilde" horiz-adv-x="606" d="M208 -10Q164 -10 130 7T71 54T35 123T22 207Q22 270 46 328T109 432T201 504T311 531Q371 531 410 499T467 418L490 522H578L490 108Q489 104 489 101T488 95Q488 77 510 76L494 0Q483 -2 475
-3T459 -4Q431 -4 417 8T402 41Q402 57 411 98Q372 47 317 19T208 -10ZM246 66Q268 66 293 75T343 100T388 137T418 183L449 333Q446 358 434 380T405 419T366 445T321 455Q279 455 242 435T177 381T132 305T115 221Q115 189 124 161T150 111T192 78T246 66ZM402
627Q381 627 366 633T339 648T315 662T288 669Q272 669 262 662T245 647T235 630T232 621H180Q181 627 189 644T212 679T248 710T298 724Q318 724 332 718T357 703T381 688T411 681Q429 681 441 688T460 704T471 720T475 730H526Q525 724 517 708T494 673T456 641T402
627Z" />
<glyph unicode="&#xe4;" glyph-name="adieresis" horiz-adv-x="606" d="M208 -10Q164 -10 130 7T71 54T35 123T22 207Q22 270 46 328T109 432T201 504T311 531Q371 531 410 499T467 418L490 522H578L490 108Q489 104 489 101T488 95Q488 77 510 76L494 0Q483 -2
475 -3T459 -4Q431 -4 417 8T402 41Q402 57 411 98Q372 47 317 19T208 -10ZM246 66Q268 66 293 75T343 100T388 137T418 183L449 333Q446 358 434 380T405 419T366 445T321 455Q279 455 242 435T177 381T132 305T115 221Q115 189 124 161T150 111T192 78T246 66ZM232
624L254 726H328L306 624H232ZM389 624L411 726H484L463 624H389Z" />
<glyph unicode="&#xe5;" glyph-name="aring" horiz-adv-x="606" d="M208 -10Q164 -10 130 7T71 54T35 123T22 207Q22 270 46 328T109 432T201 504T311 531Q371 531 410 499T467 418L490 522H578L490 108Q489 104 489 101T488 95Q488 77 510 76L494 0Q483 -2 475
-3T459 -4Q431 -4 417 8T402 41Q402 57 411 98Q372 47 317 19T208 -10ZM246 66Q268 66 293 75T343 100T388 137T418 183L449 333Q446 358 434 380T405 419T366 445T321 455Q279 455 242 435T177 381T132 305T115 221Q115 189 124 161T150 111T192 78T246 66ZM272
648Q272 685 300 707T367 730Q398 730 415 715T432 674Q432 638 405 615T337 592Q307 592 290 607T272 648ZM360 699Q342 699 328 687T313 654Q313 641 321 632T344 623Q361 623 376 635T392 668Q392 682 383 690T360 699Z" />
<glyph unicode="&#xe6;" glyph-name="ae" horiz-adv-x="888" d="M133 -10Q100 -10 75 0T31 28T4 70T-6 124Q-6 166 13 200T65 260T144 300T240 314Q272 314 303 309T358 294Q366 320 375 338T385 381Q385 417 358 442T280 467Q242 467 200 452T110 406L94 463Q206
531 303 531Q363 531 401 506T454 436Q495 479 548 505T661 531Q709 531 746 514T808 467T847 397T861 311Q861 273 855 255T846 231H429Q426 216 426 201Q426 169 436 142T464 96T508 67T563 56Q586 56 609 62T653 80T691 107T721 143L793 122Q775 93 749 69T690
28T621 0T547 -10Q479 -10 432 21T363 103Q340 72 311 51T250 16T188 -4T133 -10ZM169 56Q193 56 221 64T274 86T318 117T345 155Q342 168 342 188Q342 217 347 242Q298 261 243 261Q208 261 178 252T127 228T93 190T80 141Q80 106 102 81T169 56ZM775 288Q777
296 777 304T777 321Q777 386 742 425T644 465Q609 465 577 452T518 416T470 360T439 288H775Z" />
<glyph unicode="&#xe7;" glyph-name="ccedilla" horiz-adv-x="531" d="M118 -126Q129 -133 150 -139T197 -145Q226 -145 243 -135T260 -103Q260 -87 249 -81T218 -75Q198 -75 175 -79T139 -88L196 -8Q154 -3 122 16T68 64T34 130T22 210Q22 273 47 331T114 433T215
504T339 531Q414 531 460 497T522 404L431 377Q420 414 391 434T321 455Q281 455 244 437T177 387T131 312T113 221Q113 188 122 160T147 111T187 78T239 66Q260 66 282 72T324 90T360 115T385 147L466 121Q433 66 372 31T239 -9L208 -48Q216 -45 225 -44T243 -43Q272
-43 289 -55T306 -94Q306 -133 275 -157T182 -182Q153 -182 130 -177T90 -163L118 -126Z" />
<glyph unicode="&#xe8;" glyph-name="egrave" horiz-adv-x="539" d="M228 -10Q179 -10 141 7T77 54T37 124T23 210Q23 273 47 331T114 433T215 504T341 531Q418 531 465 496T513 390Q513 310 444 270T228 229Q204 229 175 230T113 234Q112 228 112 222T112 211Q112
180 120 152T144 103T184 69T242 56Q288 56 332 79T401 143L472 122Q454 93 427 69T368 28T301 0T228 -10ZM333 465Q290 465 256 451T196 412T153 358T125 295Q155 292 181 291T231 290Q288 290 326 297T389 318T423 350T434 391Q434 429 407 447T333 465ZM282
730H368L402 629L341 609L282 730Z" />
<glyph unicode="&#xe9;" glyph-name="eacute" horiz-adv-x="539" d="M344 609L290 629L366 730H453L344 609ZM228 -10Q179 -10 141 7T77 54T37 124T23 210Q23 273 47 331T114 433T215 504T341 531Q418 531 465 496T513 390Q513 310 444 270T228 229Q204 229 175
230T113 234Q112 228 112 222T112 211Q112 180 120 152T144 103T184 69T242 56Q288 56 332 79T401 143L472 122Q454 93 427 69T368 28T301 0T228 -10ZM333 465Q290 465 256 451T196 412T153 358T125 295Q155 292 181 291T231 290Q288 290 326 297T389 318T423 350T434
391Q434 429 407 447T333 465Z" />
<glyph unicode="&#xea;" glyph-name="ecircumflex" horiz-adv-x="539" d="M234 640L350 730H414L491 640L438 616L371 679L277 616L234 640ZM228 -10Q179 -10 141 7T77 54T37 124T23 210Q23 273 47 331T114 433T215 504T341 531Q418 531 465 496T513 390Q513 310
444 270T228 229Q204 229 175 230T113 234Q112 228 112 222T112 211Q112 180 120 152T144 103T184 69T242 56Q288 56 332 79T401 143L472 122Q454 93 427 69T368 28T301 0T228 -10ZM333 465Q290 465 256 451T196 412T153 358T125 295Q155 292 181 291T231 290Q288
290 326 297T389 318T423 350T434 391Q434 429 407 447T333 465Z" />
<glyph unicode="&#xeb;" glyph-name="edieresis" horiz-adv-x="539" d="M236 624L258 726H332L310 624H236ZM393 624L415 726H488L467 624H393ZM228 -10Q179 -10 141 7T77 54T37 124T23 210Q23 273 47 331T114 433T215 504T341 531Q418 531 465 496T513 390Q513
310 444 270T228 229Q204 229 175 230T113 234Q112 228 112 222T112 211Q112 180 120 152T144 103T184 69T242 56Q288 56 332 79T401 143L472 122Q454 93 427 69T368 28T301 0T228 -10ZM333 465Q290 465 256 451T196 412T153 358T125 295Q155 292 181 291T231 290Q288
290 326 297T389 318T423 350T434 391Q434 429 407 447T333 465Z" />
<glyph unicode="&#xec;" glyph-name="igrave" horiz-adv-x="226" d="M116 522H204L93 0H5L116 522ZM98 730H184L218 629L157 609L98 730Z" />
<glyph unicode="&#xed;" glyph-name="iacute" horiz-adv-x="226" d="M181 609L127 629L203 730H290L181 609ZM116 522H204L93 0H5L116 522Z" />
<glyph unicode="&#xee;" glyph-name="icircumflex" horiz-adv-x="226" d="M60 640L176 730H240L317 640L264 616L197 679L103 616L60 640ZM116 522H204L93 0H5L116 522Z" />
<glyph unicode="&#xef;" glyph-name="idieresis" horiz-adv-x="226" d="M62 624L84 726H158L136 624H62ZM219 624L241 726H314L293 624H219ZM116 522H204L93 0H5L116 522Z" />
<glyph unicode="&#xf0;" glyph-name="eth" horiz-adv-x="583" d="M563 676L476 628Q516 566 532 499T549 372Q549 284 521 214T445 94T339 17T218 -10Q174 -10 137 5T74 48T33 112T18 191Q18 247 42 298T107 388T200 450T306 473Q365 473 407 445T465 368Q465
385 464 400T461 432Q456 474 443 514T402 594L292 532L273 569L376 627Q354 653 325 678T258 730H380Q421 701 452 662L544 713L563 676ZM109 202Q109 173 118 149T144 106T184 77T237 66Q276 66 313 83T378 128T424 192T441 268Q441 296 432 320T405 363T365
391T312 401Q273 401 237 385T172 342T126 278T109 202Z" />
<glyph unicode="&#xf1;" glyph-name="ntilde" horiz-adv-x="567" d="M116 522H196L172 410Q213 465 275 498T403 531Q466 531 491 498T517 408Q517 386 514 362T505 312L439 0H351L413 292Q422 335 422 367Q422 452 351 452Q326 452 299 442T245 413T197 370T160
315L93 0H5L116 522ZM385 627Q364 627 349 633T322 648T298 662T271 669Q255 669 245 662T228 647T218 630T215 621H163Q164 627 172 644T195 679T231 710T281 724Q301 724 315 718T340 703T364 688T394 681Q412 681 424 688T443 704T454 720T458 730H509Q508 724
500 708T477 673T439 641T385 627Z" />
<glyph unicode="&#xf2;" glyph-name="ograve" horiz-adv-x="578" d="M222 -10Q174 -10 137 7T74 54T35 123T22 208Q22 271 47 329T115 432T215 504T337 531Q385 531 422 514T486 467T525 397T539 312Q539 250 514 192T446 89T345 17T222 -10ZM239 66Q278 66 315
85T381 136T429 210T447 301Q447 334 438 362T413 410T373 443T321 455Q283 455 246 436T179 385T131 309T113 219Q113 186 122 158T147 110T187 78T239 66ZM277 730H363L397 629L336 609L277 730Z" />
<glyph unicode="&#xf3;" glyph-name="oacute" horiz-adv-x="578" d="M349 609L295 629L371 730H458L349 609ZM222 -10Q174 -10 137 7T74 54T35 123T22 208Q22 271 47 329T115 432T215 504T337 531Q385 531 422 514T486 467T525 397T539 312Q539 250 514 192T446
89T345 17T222 -10ZM239 66Q278 66 315 85T381 136T429 210T447 301Q447 334 438 362T413 410T373 443T321 455Q283 455 246 436T179 385T131 309T113 219Q113 186 122 158T147 110T187 78T239 66Z" />
<glyph unicode="&#xf4;" glyph-name="ocircumflex" horiz-adv-x="578" d="M229 640L345 730H409L486 640L433 616L366 679L272 616L229 640ZM222 -10Q174 -10 137 7T74 54T35 123T22 208Q22 271 47 329T115 432T215 504T337 531Q385 531 422 514T486 467T525 397T539
312Q539 250 514 192T446 89T345 17T222 -10ZM239 66Q278 66 315 85T381 136T429 210T447 301Q447 334 438 362T413 410T373 443T321 455Q283 455 246 436T179 385T131 309T113 219Q113 186 122 158T147 110T187 78T239 66Z" />
<glyph unicode="&#xf5;" glyph-name="otilde" horiz-adv-x="578" d="M222 -10Q174 -10 137 7T74 54T35 123T22 208Q22 271 47 329T115 432T215 504T337 531Q385 531 422 514T486 467T525 397T539 312Q539 250 514 192T446 89T345 17T222 -10ZM239 66Q278 66 315
85T381 136T429 210T447 301Q447 334 438 362T413 410T373 443T321 455Q283 455 246 436T179 385T131 309T113 219Q113 186 122 158T147 110T187 78T239 66ZM410 627Q389 627 374 633T347 648T323 662T296 669Q280 669 270 662T253 647T243 630T240 621H188Q189
627 197 644T220 679T256 710T306 724Q326 724 340 718T365 703T389 688T419 681Q437 681 449 688T468 704T479 720T483 730H534Q533 724 525 708T502 673T464 641T410 627Z" />
<glyph unicode="&#xf6;" glyph-name="odieresis" horiz-adv-x="578" d="M241 624L263 726H337L315 624H241ZM398 624L420 726H493L472 624H398ZM222 -10Q174 -10 137 7T74 54T35 123T22 208Q22 271 47 329T115 432T215 504T337 531Q385 531 422 514T486 467T525
397T539 312Q539 250 514 192T446 89T345 17T222 -10ZM239 66Q278 66 315 85T381 136T429 210T447 301Q447 334 438 362T413 410T373 443T321 455Q283 455 246 436T179 385T131 309T113 219Q113 186 122 158T147 110T187 78T239 66Z" />
<glyph unicode="&#xf7;" glyph-name="divide" horiz-adv-x="533" d="M225 405V507H300V405H225ZM225 66V168H300V66H225ZM61 251V323H464V251H61Z" />
<glyph unicode="&#xf8;" glyph-name="oslash" horiz-adv-x="578" d="M72 57Q47 86 35 125T22 208Q22 271 47 329T116 432T216 504T338 531Q374 531 404 521T459 492L491 524H546L487 465Q513 435 526 396T539 312Q539 250 514 192T446 89T346 17T223 -10Q185 -10
154 0T99 30L67 -2H13L72 57ZM239 66Q278 66 315 85T381 136T429 210T447 301Q447 356 422 397L160 95Q192 66 239 66ZM113 219Q113 164 138 123L398 425Q366 455 321 455Q283 455 246 436T179 385T131 309T113 219Z" />
<glyph unicode="&#xf9;" glyph-name="ugrave" horiz-adv-x="577" d="M155 -10Q33 -10 33 122Q33 157 44 209L111 522H198L135 226Q126 185 126 157Q126 66 204 66Q254 66 305 100T392 195L461 522H549L461 108Q460 104 460 101T459 95Q459 77 481 76L465 0Q454
-2 446 -3T430 -4Q403 -4 389 8T375 40Q375 49 377 64T386 112Q341 53 280 22T155 -10ZM268 730H354L388 629L327 609L268 730Z" />
<glyph unicode="&#xfa;" glyph-name="uacute" horiz-adv-x="577" d="M331 609L277 629L353 730H440L331 609ZM155 -10Q33 -10 33 122Q33 157 44 209L111 522H198L135 226Q126 185 126 157Q126 66 204 66Q254 66 305 100T392 195L461 522H549L461 108Q460 104 460
101T459 95Q459 77 481 76L465 0Q454 -2 446 -3T430 -4Q403 -4 389 8T375 40Q375 49 377 64T386 112Q341 53 280 22T155 -10Z" />
<glyph unicode="&#xfb;" glyph-name="ucircumflex" horiz-adv-x="577" d="M230 640L346 730H410L487 640L434 616L367 679L273 616L230 640ZM155 -10Q33 -10 33 122Q33 157 44 209L111 522H198L135 226Q126 185 126 157Q126 66 204 66Q254 66 305 100T392 195L461
522H549L461 108Q460 104 460 101T459 95Q459 77 481 76L465 0Q454 -2 446 -3T430 -4Q403 -4 389 8T375 40Q375 49 377 64T386 112Q341 53 280 22T155 -10Z" />
<glyph unicode="&#xfc;" glyph-name="udieresis" horiz-adv-x="577" d="M231 624L253 726H327L305 624H231ZM388 624L410 726H483L462 624H388ZM155 -10Q33 -10 33 122Q33 157 44 209L111 522H198L135 226Q126 185 126 157Q126 66 204 66Q254 66 305 100T392 195L461
522H549L461 108Q460 104 460 101T459 95Q459 77 481 76L465 0Q454 -2 446 -3T430 -4Q403 -4 389 8T375 40Q375 49 377 64T386 112Q341 53 280 22T155 -10Z" />
<glyph unicode="&#xfd;" glyph-name="yacute" horiz-adv-x="501" d="M-35 -153Q-4 -149 18 -143T58 -126T91 -98T123 -55L152 -11L51 522H142L214 79L248 135Q290 204 319 256T368 352T403 436T429 522H516Q502 474 487 432T449 344T393 240T310 103L230 -26Q196
-81 166 -118T107 -179T46 -212T-23 -224L-35 -153ZM296 609L242 629L318 730H405L296 609Z" />
<glyph unicode="&#xfe;" glyph-name="thorn" horiz-adv-x="578" d="M156 710H246L191 449Q220 484 260 509T356 534Q402 534 436 516T494 468T529 400T541 321Q541 264 519 204T456 95T361 14T238 -18Q178 -18 149 6T108 60L50 -213H-40L156 710ZM254 62Q295 62
331 82T393 136T435 213T450 301Q450 332 443 360T420 409T383 442T332 454Q308 454 285 445T241 421T202 386T168 344L132 173Q131 169 131 166T130 158Q130 140 139 123T165 92T205 70T254 62Z" />
<glyph unicode="&#xff;" glyph-name="ydieresis" horiz-adv-x="501" d="M-35 -153Q-4 -149 18 -143T58 -126T91 -98T123 -55L152 -11L51 522H142L214 79L248 135Q290 204 319 256T368 352T403 436T429 522H516Q502 474 487 432T449 344T393 240T310 103L230 -26Q196
-81 166 -118T107 -179T46 -212T-23 -224L-35 -153ZM178 624L200 726H274L252 624H178ZM335 624L357 726H430L409 624H335Z" />
<glyph unicode="&#x2013;" glyph-name="endash" horiz-adv-x="560" d="M48 233L65 313H500L483 233H48Z" />
<glyph unicode="&#x2014;" glyph-name="emdash" horiz-adv-x="872" d="M48 233L65 313H812L795 233H48Z" />
<glyph unicode="&#x2018;" glyph-name="quoteleft" horiz-adv-x="206" d="M225 730L182 615H211L187 501H103L127 615L181 730H225Z" />
<glyph unicode="&#x2019;" glyph-name="quoteright" horiz-adv-x="200" d="M111 501L154 616H125L149 730H233L209 616L155 501H111Z" />
<glyph unicode="&#x201a;" glyph-name="quotesinglbase" horiz-adv-x="212" d="M-13 -115L31 0H1L25 114H109L85 0L32 -115H-13Z" />
<glyph unicode="&#x201c;" glyph-name="quotedblleft" horiz-adv-x="337" d="M225 730L182 615H211L187 501H103L127 615L181 730H225ZM356 730L313 615H342L318 501H234L258 615L312 730H356Z" />
<glyph unicode="&#x201d;" glyph-name="quotedblright" horiz-adv-x="331" d="M111 501L154 616H125L149 730H233L209 616L155 501H111ZM242 501L285 616H256L280 730H364L340 616L286 501H242Z" />
<glyph unicode="&#x201e;" glyph-name="quotedblbase" horiz-adv-x="348" d="M-13 -115L31 0H1L25 114H109L85 0L32 -115H-13ZM122 -115L166 0H137L161 114H245L220 0L167 -115H122Z" />
<glyph unicode="&#x2022;" glyph-name="bullet" horiz-adv-x="345" d="M273 363Q273 341 264 321T238 286T202 262T160 253Q128 253 108 275T88 331Q88 353 98 373T123 408T159 432T200 441Q233 441 253 418T273 363Z" />
<glyph unicode="&#x2039;" glyph-name="guilsinglleft" horiz-adv-x="341" d="M36 280L316 461L300 387L102 259L246 134L230 60L26 234L36 280Z" />
<glyph unicode="&#x203a;" glyph-name="guilsinglright" horiz-adv-x="341" d="M286 234L8 60L24 134L221 259L78 387L93 461L296 280L286 234Z" />
</font>
</defs>
</svg>
