<?xml version="1.0" standalone="no"?>
<!DOCTYPE svg PUBLIC "-//W3C//DTD SVG 1.1//EN" "http://www.w3.org/Graphics/SVG/1.1/DTD/svg11.dtd">
<svg xmlns="http://www.w3.org/2000/svg">
<defs >
<font id="Dosis" horiz-adv-x="492" ><font-face
    font-family="Dosis"
    units-per-em="1000"
    panose-1="2 1 9 3 2 2 2 6 0 3"
    ascent="1027"
    descent="-237"
    alphabetic="0" />
<glyph unicode=" " glyph-name="space" horiz-adv-x="200" />
<glyph unicode="!" glyph-name="exclam" horiz-adv-x="229" d="M39 71Q39 103 61 125T116 148Q147 148 169 125T192 71T170 17T116 -6Q84 -6 62 17T39 71ZM42 670Q42 698 62 714T115 731Q146 731 166 715T187 670Q187 610 180 465T173 261Q173 240 155 229T115
217Q56 217 56 261Q56 320 49 465T42 670Z" />
<glyph unicode="&quot;" glyph-name="quotedbl" horiz-adv-x="315" d="M23 731Q23 747 39 757T77 768T115 758T132 731L122 597Q122 581 111 570T77 559T44 570T33 597L23 731ZM183 731Q183 747 199 757T237 768T275 758T292 731L282 597Q282 581 271 570T237
559T204 570T193 597L183 731Z" />
<glyph unicode="#" glyph-name="numbersign" horiz-adv-x="717" d="M21 238T21 263T33 305T64 322H156L177 430H106Q87 430 76 445T64 486Q64 511 76 528T107 545H200L226 681Q229 695 248 704T291 713Q321 713 341 699T361 656L340 545H443L469 681Q472 695 491
704T534 713Q563 713 583 699T605 656L583 545H653Q670 545 683 529T696 488Q696 463 683 447T652 430H562L540 322H610Q627 322 640 305T654 265Q654 240 640 224T609 207H518L490 62Q487 48 469 38T430 28Q402 28 378 43T353 85L376 207H275L247 62Q244 48 225
38T187 28Q159 28 135 43T111 85L133 207H63Q44 207 33 222ZM297 322H399L420 430H318L297 322Z" />
<glyph unicode="$" glyph-name="dollar" horiz-adv-x="541" d="M24 130Q24 158 44 186T92 214Q111 214 157 182T242 142V304Q206 318 185 327T133 354T85 392T55 442T42 510Q42 599 98 650T242 713V741Q242 752 253 760T280 768Q294 768 306 760T318 741V716Q346
715 373 711T430 698T478 671T497 629Q497 603 481 575T435 547Q421 547 388 564T318 584V438Q351 425 374 415T426 386T472 346T502 293T515 222Q515 131 462 75T318 4V-25Q318 -35 306 -43T280 -52Q264 -52 253 -44T242 -25V0Q153 3 89 42T24 130ZM188 525Q188
489 252 462V581Q188 568 188 525ZM308 143Q369 157 369 206Q369 248 308 277V143Z" />
<glyph unicode="%" glyph-name="percent" horiz-adv-x="807" d="M24 454V596Q24 666 64 698T174 731Q242 731 283 699T324 596V454Q324 384 283 352T174 319Q105 319 65 351T24 454ZM125 454Q125 406 174 406Q224 406 224 454V596Q224 644 174 644Q125 644 125
596V454ZM177 7Q177 16 182 26L533 747Q545 772 575 772Q597 772 615 757T634 719Q634 708 630 700L278 -21Q266 -46 233 -46Q209 -46 193 -30T177 7ZM483 132V274Q483 344 523 376T633 409Q701 409 742 377T783 274V132Q783 62 742 30T633 -3Q564 -3 524 29T483
132ZM584 132Q584 84 633 84Q683 84 683 132V274Q683 322 633 322Q584 322 584 274V132Z" />
<glyph unicode="&amp;" glyph-name="ampersand" horiz-adv-x="655" d="M18 213Q18 276 52 331T138 418Q73 490 73 563Q73 648 136 698T294 748Q383 748 443 708T504 623Q504 596 481 574T430 551Q413 551 398 562T372 587T341 612T295 624Q261 624 239 606T217
556Q217 540 223 524T244 488L268 458Q276 449 299 426L324 401L468 252Q482 285 482 330T494 393T554 411Q593 411 606 394T620 340Q620 248 562 156L638 78Q647 68 647 53Q647 30 625 10T575 -10Q555 -10 537 8L483 63Q395 -10 278 -10Q163 -10 91 55T18 213ZM175
226Q175 181 206 153T295 125Q355 125 392 157L225 328Q175 285 175 226Z" />
<glyph unicode="&apos;" glyph-name="quotesingle" horiz-adv-x="155" d="M23 731Q23 747 39 757T77 768T115 758T132 731L122 597Q122 581 111 570T77 559T44 570T33 597L23 731Z" />
<glyph unicode="(" glyph-name="parenleft" horiz-adv-x="358" d="M43 173V561Q43 652 113 710T267 768Q344 768 344 701Q344 670 331 652T297 633Q252 633 226 611T199 561V173Q199 115 297 115Q344 115 344 46Q344 13 328 -3T263 -20Q224 -20 187 -9T117 24T64
84T43 173Z" />
<glyph unicode=")" glyph-name="parenright" horiz-adv-x="358" d="M14 46Q14 115 61 115Q159 115 159 173V561Q159 589 133 611T61 633Q40 633 27 651T14 701Q14 768 91 768Q174 768 244 710T315 561V173Q315 123 295 85T241 24T171 -9T95 -20Q46 -20 30 -4T14 46Z" />
<glyph unicode="*" glyph-name="asterisk" horiz-adv-x="491" d="M22 563Q22 584 38 601T77 618Q85 618 92 615L197 581L192 683Q193 706 208 718T246 731Q268 731 283 719T299 683L295 579L401 615Q408 618 416 618Q438 618 453 599T468 556Q468 519 434 512L332
488L402 387Q410 377 410 358Q410 335 391 320T349 304Q323 304 311 323L246 423L180 322Q169 304 145 304Q124 304 103 318T82 356Q82 374 94 388L160 482L56 512Q22 519 22 563Z" />
<glyph unicode="+" glyph-name="plus" horiz-adv-x="455" d="M20 240Q20 267 33 285T67 304H164V400Q164 419 183 433T228 448Q255 448 273 434T291 400V304H387Q406 304 420 285T435 240Q435 213 421 195T387 177H291V80Q291 59 274 46T228 33Q201 33 183 46T164
80V177H67Q46 177 33 194T20 240Z" />
<glyph unicode="," glyph-name="comma" horiz-adv-x="199" d="M23 71Q23 103 45 125T99 148T153 126T176 72Q176 56 114 -88Q106 -106 84 -106Q66 -106 50 -95T34 -67Q34 -59 38 -51L63 3Q23 26 23 71Z" />
<glyph unicode="-" glyph-name="hyphen" horiz-adv-x="416" d="M31 240Q31 267 44 285T78 304H338Q357 304 371 285T386 240Q386 213 372 195T338 177H78Q57 177 44 194T31 240Z" />
<glyph unicode="." glyph-name="period" horiz-adv-x="199" d="M23 71Q23 103 45 125T100 148Q131 148 153 125T176 71T154 17T100 -6Q68 -6 46 17T23 71Z" />
<glyph unicode="/" glyph-name="slash" horiz-adv-x="491" d="M17 7Q17 16 22 26L373 747Q385 772 415 772Q437 772 455 757T474 719Q474 708 470 700L118 -21Q106 -46 73 -46Q49 -46 33 -30T17 7Z" />
<glyph unicode="0" glyph-name="zero" horiz-adv-x="569" d="M39 230V495Q39 617 106 674T284 731Q396 731 463 674T530 495V230Q530 108 463 51T284 -6Q173 -6 106 51T39 230ZM195 230Q195 130 284 130Q374 130 374 230V495Q374 595 284 595Q195 595 195 495V230ZM234
339T234 362T247 398T285 412Q308 412 321 399T335 362T322 325T285 311Q261 311 248 325Z" />
<glyph unicode="1" glyph-name="one" horiz-adv-x="308" d="M-2 593Q-2 629 27 646L159 726Q170 733 188 733Q214 733 235 719T257 684V48Q257 25 234 13T179 0T124 12T101 48V557L72 539Q60 531 47 531Q26 531 12 550T-2 593Z" />
<glyph unicode="2" glyph-name="two" horiz-adv-x="517" d="M23 48V145Q23 188 55 231T134 308L226 376Q273 410 305 447T338 519Q338 547 319 568T262 590Q229 590 208 572T187 515Q187 492 165 475T105 458Q35 458 35 539Q35 626 102 678T261 731Q354 731 424
675T494 524Q494 464 462 411T385 322T295 256T217 198T185 145V136H447Q466 136 480 116T494 69T480 21T447 0H91Q68 0 46 14T23 48Z" />
<glyph unicode="3" glyph-name="three" horiz-adv-x="534" d="M16 183Q16 216 32 228T90 240Q137 240 153 229T170 188Q170 130 259 130Q310 130 330 150T351 220V239Q351 286 327 302T255 319Q210 319 210 379T255 439Q272 439 283 441T307 451T326 477T333 525Q333
597 259 597Q221 597 203 586T185 546T169 504T112 489Q60 489 46 501T31 552Q31 622 86 676T259 731Q482 731 482 550Q482 493 462 448T405 386Q507 348 507 239V220Q507 104 438 49T254 -6Q136 -6 76 52T16 183Z" />
<glyph unicode="4" glyph-name="four" horiz-adv-x="525" d="M-5 208Q-5 223 3 238L234 691Q255 731 299 731Q323 731 350 714T377 672Q377 665 372 653L195 298H281V368Q281 391 304 403T359 415T414 403T437 368V298H480Q503 298 515 277T528 226Q528 199 513
177T480 154H437V48Q437 25 414 13T359 0T304 12T281 48V154H47Q24 154 10 168T-5 208Z" />
<glyph unicode="5" glyph-name="five" horiz-adv-x="521" d="M13 180Q13 219 32 234T91 249Q138 249 153 234T169 191Q169 162 193 146T256 130Q347 130 347 224V243Q347 292 324 316T258 341H106Q73 341 60 356T46 402Q46 409 48 431L75 683Q80 731 103 731H422Q443
731 455 711T467 663T455 615T422 595H203L193 461H258Q370 461 436 409T503 243V224Q503 106 436 50T260 -6Q145 -6 79 49T13 180Z" />
<glyph unicode="6" glyph-name="six" horiz-adv-x="562" d="M39 230V495Q39 617 108 674T294 731T470 673T530 543Q530 508 513 494T457 480Q376 480 376 537Q376 564 351 579T289 595Q195 595 195 495V405Q235 449 320 449Q415 449 472 400T530 239V230Q530 108
463 51T285 -6Q173 -6 106 51T39 230ZM195 219Q195 120 285 120Q374 120 374 219V228Q374 329 284 329Q195 329 195 237V219Z" />
<glyph unicode="7" glyph-name="seven" horiz-adv-x="512" d="M12 528V683Q12 701 33 716T80 731H435Q458 731 480 716T503 683V558Q503 523 471 463L237 15Q226 -6 193 -6Q155 -6 125 17T94 73Q94 86 101 99L347 525V595H168V528Q168 508 144 494T89 480Q57 480
35 494T12 528Z" />
<glyph unicode="8" glyph-name="eight" horiz-adv-x="545" d="M27 200V212Q27 358 151 400Q52 434 52 553Q52 643 111 687T273 731T434 687T494 553Q494 434 395 400Q518 358 518 212V200Q518 94 451 44T273 -6T95 44T27 200ZM183 219Q183 119 273 119Q362 119
362 219V241Q362 336 273 336Q183 336 183 241V219ZM202 533Q202 461 273 461T344 533Q344 606 273 606T202 533Z" />
<glyph unicode="9" glyph-name="nine" horiz-adv-x="563" d="M33 182Q33 217 50 231T106 245Q187 245 187 188Q187 161 212 146T274 130Q368 130 368 230V320Q328 276 243 276Q148 276 91 325T33 486V495Q33 617 100 674T278 731Q390 731 457 674T524 495V230Q524
108 455 51T269 -6T93 52T33 182ZM189 497Q189 396 279 396Q368 396 368 488V506Q368 605 278 605Q189 605 189 506V497Z" />
<glyph unicode=":" glyph-name="colon" horiz-adv-x="225" d="M36 71Q36 103 58 125T113 148Q144 148 166 125T189 71T167 17T113 -6Q81 -6 59 17T36 71ZM36 345Q36 377 58 399T113 422Q144 422 166 399T189 345T167 291T113 268Q81 268 59 291T36 345Z" />
<glyph unicode=";" glyph-name="semicolon" horiz-adv-x="225" d="M33 71Q33 103 55 125T109 148T163 126T186 72Q186 56 124 -88Q116 -106 94 -106Q76 -106 60 -95T44 -67Q44 -59 48 -51L73 3Q33 26 33 71ZM39 345Q39 377 61 399T116 422Q147 422 169 399T192
345T170 291T116 268Q84 268 62 291T39 345Z" />
<glyph unicode="&lt;" glyph-name="less" horiz-adv-x="427" d="M19 241T19 277T50 333L304 498Q310 503 323 503Q347 503 369 481T391 430Q391 402 373 391L197 277L373 163Q391 152 391 124Q391 95 369 73T323 51Q310 51 304 56L50 221Q19 241 19 277Z" />
<glyph unicode="=" glyph-name="equal" horiz-adv-x="448" d="M47 135Q47 162 60 180T94 199H354Q373 199 387 180T402 135Q402 108 388 90T354 72H94Q73 72 60 89T47 135ZM47 338Q47 365 60 383T94 402H354Q373 402 387 383T402 338Q402 311 388 293T354 275H94Q73
275 60 292T47 338Z" />
<glyph unicode="&gt;" glyph-name="greater" horiz-adv-x="427" d="M36 124Q36 152 54 163L230 277L54 391Q36 402 36 430Q36 459 58 481T104 503Q117 503 123 498L377 333Q408 313 408 277T377 221L123 56Q117 51 104 51Q80 51 58 73T36 124Z" />
<glyph unicode="?" glyph-name="question" horiz-adv-x="453" d="M20 597Q20 645 72 688T217 731Q312 731 371 684T430 566Q430 470 318 383Q292 362 280 342T265 306T262 258Q262 217 203 217Q172 217 160 231T148 284Q148 378 215 436Q218 439 241 457T273 484T293
511T304 549Q304 582 279 599T214 617Q180 617 158 605T129 579T110 552T80 540Q57 540 39 555T20 597ZM128 71Q128 103 150 125T204 148Q236 148 258 125T281 71T259 17T204 -6T150 17T128 71Z" />
<glyph unicode="@" glyph-name="at" horiz-adv-x="753" d="M35 206Q35 370 125 472T388 575Q548 575 639 485T730 240Q730 137 689 71T571 4Q527 4 498 25T463 80Q409 7 337 7Q288 7 250 37T212 125Q212 252 415 252H442V265Q442 329 368 329Q333 329 303 315T269
301Q255 301 245 321T234 358Q234 388 280 410T383 432Q452 432 502 396T552 296V125Q556 98 562 88T580 78Q634 78 634 215Q634 491 389 491Q132 491 132 207Q132 -59 359 -59Q405 -59 444 -47T488 -35Q505 -35 515 -50T525 -79Q525 -111 463 -127T340 -143Q213
-143 124 -52T35 206ZM334 127Q334 86 368 86Q396 86 422 111T448 168V190H430Q334 190 334 127Z" />
<glyph unicode="A" glyph-name="A" horiz-adv-x="589" d="M4 64Q4 67 6 75L192 685Q200 710 228 723T294 737T359 724T396 685L583 75Q585 67 585 64Q585 38 553 19T485 0Q442 0 434 29L400 154H189L155 29Q147 0 104 0Q69 0 37 19T4 64ZM221 274H367L294 542L221 274Z" />
<glyph unicode="B" glyph-name="B" horiz-adv-x="572" d="M54 47V683Q54 706 74 718T122 731H327Q527 731 527 553Q527 433 442 396Q493 377 519 342T545 236V215Q545 103 491 52T344 0H122Q91 0 73 14T54 47ZM209 136H309Q389 136 389 228V244Q389 336 309 336H209V136ZM209
456H314Q341 456 356 476T371 525T356 574T314 595H209V456Z" />
<glyph unicode="C" glyph-name="C" horiz-adv-x="562" d="M46 230V495Q46 617 112 674T286 731Q396 731 466 678T537 532Q537 489 519 474T459 458Q384 458 381 505Q378 595 292 595Q202 595 202 495V230Q202 130 293 130Q321 130 339 139T366 166T376 197T381
230Q385 277 458 277Q501 277 519 262T537 203Q537 106 467 50T286 -6Q179 -6 113 51T46 230Z" />
<glyph unicode="D" glyph-name="D" horiz-adv-x="590" d="M54 47V684Q54 703 73 717T122 731H299Q411 731 478 674T545 495V236Q545 114 478 57T299 0H122Q92 0 73 14T54 47ZM210 136H299Q389 136 389 236V495Q389 595 299 595H210V136Z" />
<glyph unicode="E" glyph-name="E" horiz-adv-x="539" d="M54 48V683Q54 706 74 718T122 731H478Q501 731 513 711T525 664Q525 635 513 615T478 595H210V426H360Q382 426 394 408T407 365Q407 342 395 324T360 306H210V136H478Q500 136 512 116T525 67Q525 40
513 20T478 0H122Q94 0 74 12T54 48Z" />
<glyph unicode="F" glyph-name="F" horiz-adv-x="515" d="M54 48V683Q54 706 74 718T122 731H469Q492 731 504 711T516 664Q516 635 504 615T469 595H210V426H361Q383 426 395 408T408 365Q408 342 396 324T361 306H210V48Q210 25 187 13T132 0T77 12T54 48Z" />
<glyph unicode="G" glyph-name="G" horiz-adv-x="573" d="M46 230V495Q46 617 112 674T286 731Q396 731 466 678T537 532Q537 489 519 474T459 458Q382 458 381 505Q381 519 380 528T374 552T360 574T334 588T292 595Q202 595 202 495V230Q202 130 291 130Q381
130 381 230V264H322Q300 264 288 281T275 324Q275 347 288 365T322 384H490Q512 384 524 370T537 335V230Q537 108 470 51T291 -6Q180 -6 113 51T46 230Z" />
<glyph unicode="H" glyph-name="H" horiz-adv-x="619" d="M54 48V684Q54 707 77 719T132 731T187 719T210 684V439H409V684Q409 707 432 719T487 731T542 719T565 684V48Q565 25 542 13T487 0T432 12T409 48V319H210V48Q210 25 187 13T132 0T77 12T54 48Z" />
<glyph unicode="I" glyph-name="I" horiz-adv-x="264" d="M54 48V684Q54 707 77 719T132 731T187 719T210 684V48Q210 25 187 13T132 0T77 12T54 48Z" />
<glyph unicode="J" glyph-name="J" horiz-adv-x="548" d="M6 203Q6 246 24 261T85 277Q158 277 162 230Q164 209 166 197T177 167T203 139T250 130Q341 130 341 230V595H254Q232 595 220 615T207 664Q207 691 219 711T254 731H429Q457 731 477 719T497 683V230Q497
108 431 51T257 -6Q147 -6 77 50T6 203Z" />
<glyph unicode="K" glyph-name="K" horiz-adv-x="566" d="M54 48V684Q54 707 77 719T132 731T187 719T210 684V444L397 709Q412 731 438 731Q469 731 499 706T530 651Q530 635 520 621L356 415L563 98Q571 85 571 72Q571 43 541 19T477 -6Q441 -6 423 23L252 283L210
229V48Q210 25 187 13T132 0T77 12T54 48Z" />
<glyph unicode="L" glyph-name="L" d="M54 48V684Q54 707 77 719T132 731T187 719T210 684V136H438Q459 136 471 116T483 68T471 20T438 0H122Q94 0 74 12T54 48Z" />
<glyph unicode="M" glyph-name="M" horiz-adv-x="712" d="M54 48V653Q54 693 76 712T132 731Q177 731 200 718T253 653L356 473L459 653Q488 704 511 717T580 731Q613 731 635 712T658 653V48Q658 25 635 13T580 0T525 12T502 48V423L406 259Q389 230 354 230Q320
230 305 259L210 433V48Q210 25 187 13T132 0T77 12T54 48Z" />
<glyph unicode="N" glyph-name="N" horiz-adv-x="619" d="M54 48V683Q54 706 77 718T132 731Q177 731 198 718T247 653L409 344V684Q409 707 432 719T487 731T542 719T565 684V48Q565 25 542 13T487 0Q423 0 400 42L210 388V48Q210 25 187 13T132 0T77 12T54 48Z" />
<glyph unicode="O" glyph-name="O" horiz-adv-x="583" d="M46 230V495Q46 617 113 674T291 731Q403 731 470 674T537 495V230Q537 108 470 51T291 -6Q180 -6 113 51T46 230ZM202 230Q202 130 291 130Q381 130 381 230V495Q381 595 291 595Q202 595 202 495V230Z" />
<glyph unicode="P" glyph-name="P" horiz-adv-x="569" d="M54 48V684Q54 703 70 717T112 731H319Q426 731 490 676T555 501V496Q555 377 488 321T309 264H210V48Q210 25 187 13T132 0T77 12T54 48ZM210 384H309Q399 384 399 484V495Q399 595 309 595H210V384Z" />
<glyph unicode="Q" glyph-name="Q" horiz-adv-x="583" d="M46 230V495Q46 618 112 674T291 731T470 675T537 495V230Q537 122 484 65T339 -3V-61Q339 -84 325 -96T291 -109T258 -97T243 -61V-3Q152 8 99 64T46 230ZM202 230Q202 163 243 140V184Q243 207 257 219T291
231T325 219T339 184V140Q381 164 381 230V495Q381 595 291 595Q202 595 202 495V230Z" />
<glyph unicode="R" glyph-name="R" horiz-adv-x="584" d="M54 48V684Q54 703 67 717T102 731H309Q555 731 555 517Q555 361 434 314L556 93Q561 86 561 75Q561 46 530 20T463 -6T413 23L276 289H210V48Q210 25 187 13T132 0T77 12T54 48ZM210 409H309Q353 409
376 430T399 502T376 573T309 595H210V409Z" />
<glyph unicode="S" glyph-name="S" horiz-adv-x="533" d="M19 120Q19 148 39 176T87 204Q102 204 120 193T154 167T198 142T257 130Q296 130 325 146T354 196T322 254T243 299T149 345T70 418T37 530Q37 634 112 685T293 737Q319 737 347 734T411 723T469 695T492
649Q492 623 476 595T430 567Q418 567 379 586T293 605Q243 605 218 588T193 545Q193 522 216 503T275 471T351 436T428 389T486 317T510 212Q510 107 441 49T260 -10Q163 -10 91 30T19 120Z" />
<glyph unicode="T" glyph-name="T" horiz-adv-x="542" d="M8 662Q8 690 20 710T55 731H487Q510 731 522 711T534 662Q534 632 522 612T487 591H349V48Q349 25 326 13T271 0T216 12T193 48V591H55Q33 591 21 611T8 662Z" />
<glyph unicode="U" glyph-name="U" horiz-adv-x="606" d="M51 230V684Q51 707 73 719T129 731Q161 731 184 719T207 684V230Q207 130 303 130T399 230V684Q399 707 421 719T477 731Q509 731 532 719T555 684V230Q555 108 486 51T303 -6Q188 -6 120 51T51 230Z" />
<glyph unicode="V" glyph-name="V" horiz-adv-x="589" d="M4 667Q4 693 36 712T104 731Q147 731 155 702L295 189L434 702Q442 731 485 731Q520 731 552 712T585 667Q585 664 583 656L397 46Q389 21 361 8T295 -6T230 7T193 46L6 656Q4 664 4 667Z" />
<glyph unicode="W" glyph-name="W" horiz-adv-x="920" d="M3 669Q3 693 35 712T104 731Q146 731 154 702L306 189L385 527Q389 546 411 557T460 568T509 557T535 527L614 189L766 702Q774 731 816 731Q852 731 884 712T917 669Q917 662 915 656L716 46Q707 21
679 8T613 -6T547 7T512 46L460 283L408 46Q402 21 373 8T307 -6T241 7T204 46L5 656Q3 662 3 669Z" />
<glyph unicode="X" glyph-name="X" horiz-adv-x="590" d="M8 71Q8 84 17 99L190 366L24 632Q14 648 14 663Q14 693 47 715T115 737Q148 737 162 711L295 479L428 711Q442 737 475 737Q510 737 543 715T576 663Q576 648 566 632L400 366L573 99Q582 84 582 71Q582
41 548 18T478 -6Q450 -6 441 10L295 258L149 10Q139 -6 112 -6Q77 -6 43 17T8 71Z" />
<glyph unicode="Y" glyph-name="Y" horiz-adv-x="590" d="M4 667Q4 693 39 712T110 731Q128 731 137 725T155 702L295 445L434 702Q449 731 479 731Q514 731 549 712T585 667Q585 660 583 656L377 313Q373 307 373 299V48Q373 25 350 13T295 0T240 12T217 48V299Q217
307 213 313L6 656Q4 660 4 667Z" />
<glyph unicode="Z" glyph-name="Z" horiz-adv-x="536" d="M9 41Q9 67 26 96L308 595H76Q54 595 42 615T29 663T41 711T76 731H462Q507 731 507 690Q507 666 490 635L208 136H480Q501 136 514 115T527 68T514 21T480 0H54Q9 0 9 41Z" />
<glyph unicode="[" glyph-name="bracketleft" horiz-adv-x="355" d="M50 27V720Q50 743 70 755T118 768H294Q317 768 329 748T341 701Q341 672 329 652T294 632H206V115H294Q316 115 328 95T341 46Q341 19 329 -1T294 -21H118Q90 -21 70 -9T50 27Z" />
<glyph unicode="\" glyph-name="backslash" horiz-adv-x="382" d="M18 704Q18 724 35 739T76 755Q110 755 121 725L361 67Q363 62 363 53Q363 32 346 16T307 -1Q273 -1 261 31L21 689Q18 696 18 704Z" />
<glyph unicode="]" glyph-name="bracketright" horiz-adv-x="355" d="M14 46Q14 75 26 95T61 115H149V632H61Q39 632 27 652T14 701Q14 728 26 748T61 768H237Q265 768 285 756T305 720V27Q305 4 285 -8T237 -21H61Q38 -21 26 -1T14 46Z" />
<glyph unicode="^" glyph-name="asciicircum" horiz-adv-x="292" d="M0 615Q0 645 25 659L129 715Q139 720 146 720T163 715L267 659Q292 645 292 615Q292 597 283 583T261 569Q256 569 250 572L146 628L42 572Q36 569 31 569Q18 569 9 583T0 615Z" />
<glyph unicode="_" glyph-name="underscore" horiz-adv-x="306" d="M-54 -64Q-54 -37 -41 -19T-7 0H313Q332 0 346 -19T361 -64Q361 -91 347 -109T313 -127H-7Q-28 -127 -41 -110T-54 -64Z" />
<glyph unicode="`" glyph-name="grave" horiz-adv-x="221" d="M0 662Q0 683 14 701T47 720Q54 720 61 717L201 652Q221 642 221 617Q221 596 208 578T175 559Q170 559 160 563L20 628Q0 638 0 662Z" />
<glyph unicode="a" glyph-name="a" horiz-adv-x="484" d="M18 123Q18 206 78 240T252 274H288V284Q288 314 270 336T213 358Q165 358 134 342T96 325Q72 325 58 348T44 402Q44 435 99 458T215 482Q330 482 386 426T443 286V48Q443 28 422 14T367 0Q338 0 318 14T298
48V70Q229 -10 146 -10Q91 -10 55 24T18 123ZM174 145Q174 103 213 103Q238 103 263 131T288 195V199H284Q251 199 230 196T191 181T174 145Z" />
<glyph unicode="b" glyph-name="b" horiz-adv-x="533" d="M46 48V701Q46 722 67 735T122 748Q156 748 178 735T201 701V406Q218 438 251 460T328 482Q401 482 453 420T505 272V202Q505 118 453 54T331 -10Q285 -10 246 13T191 70V48Q191 30 171 15T122 0Q90 0
68 14T46 48ZM201 189Q201 173 225 149T278 125T328 148T350 202V272Q350 301 329 324T277 347Q248 347 225 326T201 272V189Z" />
<glyph unicode="c" glyph-name="c" horiz-adv-x="442" d="M28 202V270Q28 365 84 423T253 482Q325 482 373 458T422 399Q422 374 405 349T362 323Q354 323 326 335T266 347Q183 347 183 270V202Q183 125 267 125Q297 125 324 138T362 152Q391 152 409 128T428
78Q428 43 377 17T255 -10Q141 -10 85 48T28 202Z" />
<glyph unicode="d" glyph-name="d" horiz-adv-x="533" d="M28 202V272Q28 358 80 420T205 482Q248 482 281 460T332 406V701Q332 722 354 735T411 748Q444 748 465 735T487 701V48Q487 29 465 15T411 0Q383 0 363 15T342 48V70Q326 37 287 14T202 -10Q133 -10
81 54T28 202ZM183 202Q183 172 204 149T255 125T308 149T332 189V272Q332 305 309 326T256 347Q226 347 205 324T183 272V202Z" />
<glyph unicode="e" glyph-name="e" horiz-adv-x="496" d="M27 202V275Q27 360 94 421T257 482Q346 482 409 429T472 292Q472 260 464 240T440 212T411 202T375 199H182V193Q182 156 210 134T284 111Q319 111 357 129T409 148Q434 148 450 125T466 80Q466 49 413
20T280 -10Q168 -10 98 48T27 202ZM182 286H306Q327 286 327 310Q327 338 306 354T254 370Q225 370 204 354T182 310V286Z" />
<glyph unicode="f" glyph-name="f" horiz-adv-x="354" d="M46 47V547Q46 633 97 690T222 748H294Q322 748 337 729T352 683Q352 656 337 637T294 618H256Q201 618 201 564V476H314Q332 476 342 460T352 421Q352 398 342 382T314 366H201V47Q201 27 178 14T122
0Q89 0 68 13T46 47Z" />
<glyph unicode="g" glyph-name="g" horiz-adv-x="478" d="M12 -72Q12 -6 79 32Q43 53 43 94Q43 138 94 175Q29 223 29 302V317Q29 390 85 436T234 482Q297 482 347 458Q364 499 377 513T404 528Q430 528 446 513T463 482Q463 466 447 452L427 436Q412 424 404
416Q442 375 442 317V302Q442 230 384 183T234 135Q201 135 174 141Q170 134 170 128Q170 114 200 107T274 94T361 77T435 32T466 -54Q466 -136 400 -176T240 -217T79 -178T12 -72ZM158 -56Q158 -85 181 -102T237 -119T292 -102T316 -58Q316 -41 307 -30T280 -13T244
-3T198 4Q158 -17 158 -56ZM179 303Q179 269 194 247T236 225Q262 225 277 246T292 302V317Q292 349 277 370T235 392Q209 392 194 371T179 317V303Z" />
<glyph unicode="h" glyph-name="h" horiz-adv-x="535" d="M46 48V701Q46 722 67 735T123 748Q155 748 178 735T201 701V406Q216 438 248 460T325 482Q394 482 444 420T495 272V48Q495 25 472 13T417 0Q387 0 364 13T340 48V272Q340 301 319 324T268 347Q242 347
222 327T201 272V48Q201 30 178 15T123 0Q90 0 68 14T46 48Z" />
<glyph unicode="i" glyph-name="i" horiz-adv-x="244" d="M40 611T40 640T64 690T122 711Q155 711 179 690T203 640T179 590T122 568Q88 568 64 589ZM45 48V429Q45 450 66 463T122 476Q155 476 177 463T200 429V48Q200 30 177 15T122 0Q89 0 67 14T45 48Z" />
<glyph unicode="j" glyph-name="j" horiz-adv-x="245" d="M-40 -154Q-40 -124 -24 -106T18 -87Q35 -87 40 -73T45 -28V429Q45 450 66 463T121 476Q155 476 177 463T200 429V-28Q200 -113 158 -165T41 -217Q-40 -217 -40 -154ZM40 611T40 640T64 690T122 711Q155
711 179 690T203 640T179 590T122 568Q88 568 64 589Z" />
<glyph unicode="k" glyph-name="k" horiz-adv-x="509" d="M46 48V701Q46 722 67 735T122 748Q156 748 178 735T201 701V309L367 470Q379 482 397 482Q422 482 447 458T472 408Q472 393 460 381L354 283L491 91Q499 78 499 67Q499 41 469 16T410 -10Q386 -10 373
9L252 188L201 141V48Q201 30 178 15T122 0T68 14T46 48Z" />
<glyph unicode="l" glyph-name="l" horiz-adv-x="263" d="M54 48V701Q54 722 75 735T131 748Q164 748 186 735T209 701V48Q209 30 186 15T131 0Q98 0 76 14T54 48Z" />
<glyph unicode="m" glyph-name="m" horiz-adv-x="813" d="M45 48V429Q45 450 66 463T122 476Q150 476 170 463T190 429V406Q233 482 322 482Q362 482 393 455T440 382Q465 431 505 456T590 482Q665 482 718 425T772 272V48Q772 30 749 15T694 0Q664 0 641 15T617
48V272Q617 308 597 328T550 348Q524 348 505 328T486 272V47Q486 24 463 12T408 0Q378 0 355 12T331 47V271Q331 306 311 326T263 347Q237 347 219 328T200 272V48Q200 30 177 15T122 0Q89 0 67 14T45 48Z" />
<glyph unicode="n" glyph-name="n" horiz-adv-x="534" d="M45 48V429Q45 450 66 463T122 476Q150 476 170 463T190 429V406Q206 438 241 460T324 482Q393 482 443 420T494 272V48Q494 25 471 13T416 0Q386 0 363 13T339 48V272Q339 301 318 324T267 347Q241 347
221 327T200 272V48Q200 30 177 15T122 0Q89 0 67 14T45 48Z" />
<glyph unicode="o" glyph-name="o" horiz-adv-x="509" d="M27 202V272Q27 357 94 419T254 482Q346 482 414 420T482 272V202Q482 118 414 54T254 -10T95 54T27 202ZM182 202Q182 172 203 149T254 125T305 148T327 202V272Q327 301 305 324T254 347T204 324T182 272V202Z" />
<glyph unicode="p" glyph-name="p" horiz-adv-x="533" d="M46 -169V429Q46 450 67 463T120 476T171 463T191 429V406Q210 438 246 460T326 482Q401 482 453 421T505 272V202Q505 118 453 54T331 -10Q289 -10 253 13T201 70V-169Q201 -187 178 -202T122 -217T68
-203T46 -169ZM201 189Q201 173 223 149T276 125Q305 125 327 148T350 202V272Q350 301 328 324T274 347Q245 347 223 327T201 272V189Z" />
<glyph unicode="q" glyph-name="q" horiz-adv-x="533" d="M28 202V272Q28 359 80 420T207 482Q251 482 287 460T342 406V429Q342 450 362 463T413 476T465 463T487 429V-169Q487 -188 465 -202T411 -217T356 -202T332 -169V70Q317 37 281 14T202 -10Q133 -10 81
54T28 202ZM183 202Q183 172 205 149T257 125Q287 125 309 149T332 189V272Q332 306 310 326T259 347Q228 347 206 324T183 272V202Z" />
<glyph unicode="r" glyph-name="r" horiz-adv-x="394" d="M45 48V429Q45 450 66 463T121 476Q150 476 170 463T190 429V392Q206 428 239 455T309 482H338Q360 482 376 462T393 415Q393 387 377 367T338 347H309Q266 347 233 306T200 198V48Q200 30 177 15T121
0T67 14T45 48Z" />
<glyph unicode="s" glyph-name="s" horiz-adv-x="429" d="M21 82Q21 103 36 126T72 150Q84 150 101 139T145 117T207 105Q269 105 269 138Q269 156 245 167T187 187T118 208T59 251T35 328Q35 392 80 437T223 482Q290 482 341 462T393 410Q393 390 377 364T337
337Q327 337 291 352T225 367Q197 367 183 358T168 335Q168 320 192 311T251 294T320 272T379 226T404 144Q404 72 354 31T211 -10Q133 -10 77 17T21 82Z" />
<glyph unicode="t" glyph-name="t" horiz-adv-x="364" d="M43 169V636Q43 656 67 669T120 683Q151 683 174 670T198 636V476H311Q329 476 339 460T349 421Q349 398 339 382T311 366H198V169Q198 147 207 139T239 130H282Q314 130 331 111T348 65Q348 38 331 19T282
0H239Q43 0 43 169Z" />
<glyph unicode="u" glyph-name="u" horiz-adv-x="535" d="M40 200V428Q40 446 63 461T118 476Q148 476 171 461T195 428V200Q195 171 217 148T268 125T318 148T340 200V429Q340 448 363 462T418 476Q451 476 473 462T495 429V200Q495 116 428 53T268 -10Q175 -10
108 53T40 200Z" />
<glyph unicode="v" glyph-name="v" horiz-adv-x="503" d="M1 418Q1 443 37 463T106 483T149 458L252 197L355 458Q365 483 397 483Q425 483 463 463T502 417Q502 408 498 399L322 14Q310 -13 252 -13T182 14L6 399Q1 407 1 418Z" />
<glyph unicode="w" glyph-name="w" horiz-adv-x="702" d="M2 420Q2 445 36 463T104 482Q139 482 147 458L236 204L300 419Q309 449 351 449T402 419L466 204L555 458Q563 482 597 482Q630 482 664 463T699 418Q699 407 695 399L541 14Q530 -13 481 -13Q427 -13
417 14L351 188L285 14Q275 -13 220 -13Q172 -13 161 14L7 399Q2 412 2 420Z" />
<glyph unicode="x" glyph-name="x" horiz-adv-x="493" d="M18 67Q18 80 27 93L140 243L38 379Q28 392 28 404Q28 429 65 455T133 482Q156 482 166 466L246 335L327 465Q337 482 362 482Q391 482 428 456T465 404Q465 393 455 379L352 242L466 93Q475 82 475 67Q475
43 440 17T373 -10Q349 -10 338 6L246 144L155 6Q143 -10 118 -10Q92 -10 55 16T18 67Z" />
<glyph unicode="y" glyph-name="y" horiz-adv-x="496" d="M1 -151Q1 -87 39 -87Q181 -87 181 41L6 389Q1 399 1 409Q1 437 37 460T106 483T149 458L262 187L345 458Q355 483 385 483Q416 483 454 460T492 406Q492 396 488 389L346 35Q341 21 328 -12L310 -58Q305
-73 292 -99T267 -139T235 -170T193 -196T140 -210T72 -217Q37 -217 19 -204T1 -151Z" />
<glyph unicode="z" glyph-name="z" horiz-adv-x="448" d="M18 54Q18 83 45 118L222 351H69Q51 351 38 369T25 414T37 458T69 476H368Q388 476 402 463T416 425Q416 391 391 358L213 125H390Q408 125 421 107T434 62T422 18T390 0H69Q43 0 31 16T18 54Z" />
<glyph unicode="{" glyph-name="braceleft" horiz-adv-x="380" d="M17 363T17 387T26 423T47 439T67 449T77 469Q77 478 70 526T62 593Q62 660 131 714T281 768Q328 768 348 749T368 700Q368 676 356 657T321 637Q287 637 253 622T218 572Q218 560 225 511T233
449Q233 428 220 408T197 384Q209 381 221 362T233 320Q233 307 226 240T218 164Q218 136 251 124T321 111Q346 111 357 91T368 46Q368 -20 279 -20Q196 -20 129 27T62 144Q62 163 69 227T77 301Q77 315 68 322T47 333T27 349Z" />
<glyph unicode="|" glyph-name="bar" horiz-adv-x="255" d="M50 27V721Q50 742 71 755T127 768Q160 768 182 755T205 721V27Q205 9 182 -6T127 -21Q94 -21 72 -7T50 27Z" />
<glyph unicode="}" glyph-name="braceright" horiz-adv-x="380" d="M12 46Q12 70 23 90T59 111Q95 111 128 123T162 164Q162 173 155 240T147 320Q147 342 159 361T183 384Q173 387 160 407T147 449Q147 461 154 510T162 572Q162 607 128 622T59 637Q37 637 25
656T12 700Q12 729 32 748T99 768Q180 768 249 714T318 593Q318 575 311 527T303 469Q303 456 312 449T333 439T353 424T363 387T354 350T333 333T313 323T303 301Q303 292 310 228T318 144Q318 75 251 28T101 -20Q12 -20 12 46Z" />
<glyph unicode="~" glyph-name="asciitilde" horiz-adv-x="411" d="M28 247Q28 320 113 320Q144 320 188 307T259 293Q282 293 309 303T345 314Q365 314 374 297T383 265Q383 192 298 192Q260 192 217 205T152 219Q129 219 102 209T66 198Q46 198 37 215T28 247Z" />
<glyph unicode="&#xa0;" glyph-name="uni00A0" horiz-adv-x="200" />
<glyph unicode="&#xa1;" glyph-name="exclamdown" horiz-adv-x="229" d="M37 623T37 654T59 708T113 731Q145 731 167 708T190 654Q190 622 168 600T113 577Q82 577 60 600ZM42 55Q42 114 49 259T56 464Q56 485 74 496T114 508Q173 508 173 464Q173 404 180 259T187
55Q187 27 167 11T114 -6Q83 -6 63 10T42 55Z" />
<glyph unicode="&#xa2;" glyph-name="cent" horiz-adv-x="448" d="M23 362V380Q23 468 71 525T217 591V655Q217 673 229 684T260 695T291 684T304 655V587Q355 579 386 557T417 509Q417 485 400 462T357 438Q350 438 342 441T324 451T304 460V283Q312 287 322
293T341 304T357 308Q386 308 404 286T423 238Q423 211 390 188T304 154V81Q304 65 291 52T260 39Q242 39 230 52T217 81V151Q119 160 71 216T23 362ZM158 362Q158 295 217 280V462Q158 447 158 380V362Z" />
<glyph unicode="&#xa3;" glyph-name="sterling" horiz-adv-x="565" d="M20 40T20 68T32 116T65 136H115L147 366H100Q82 366 72 382T62 421Q62 443 72 459T100 476H163L173 545Q187 642 265 705T442 768H484Q507 768 520 748T534 701T521 654T484 633H437Q340
633 328 545L318 476H425Q443 476 453 460T463 421Q463 398 453 382T425 366H302L269 136H489Q510 136 522 116T534 68T522 20T489 0H65Q44 0 32 20Z" />
<glyph unicode="&#xa4;" glyph-name="currency" horiz-adv-x="440" d="M42 335Q42 342 48 348L74 372Q43 417 43 472T74 572L48 596Q42 602 42 609Q42 620 51 630T73 640Q81 640 87 635L111 613Q160 652 220 652Q279 652 329 613L353 635Q359 640 367 640Q379
640 388 630T398 609Q398 602 392 596L366 572Q398 527 398 473Q398 418 366 372L392 348Q398 342 398 335Q398 324 389 314T367 304Q359 304 353 309L329 331Q280 290 220 290Q161 290 111 330L87 309Q81 304 73 304Q61 304 52 314T42 335ZM123 472Q123 432 151
402T220 371T289 401T318 471T289 540T220 571T152 541T123 472Z" />
<glyph unicode="&#xa5;" glyph-name="yen" horiz-adv-x="587" d="M20 674Q20 697 51 717T114 738Q129 738 137 730T156 702L294 451L431 702Q441 721 449 729T473 738Q503 738 535 717T567 675Q567 664 562 656L406 417H455Q473 417 488 401T503 363Q503 340 489
325T455 310H372V250H455Q473 250 488 234T503 196T489 159T455 143H372V48Q372 25 349 13T294 0T239 12T216 48V143H135Q114 143 101 157T88 195Q88 219 101 234T135 250H216V310H135Q114 310 101 324T88 362Q88 386 101 401T135 417H181L25 656Q20 662 20 674Z"
/>
<glyph unicode="&#xa6;" glyph-name="brokenbar" horiz-adv-x="255" d="M50 27V268Q50 289 71 302T127 315Q160 315 182 302T205 268V27Q205 9 182 -6T127 -21Q94 -21 72 -7T50 27ZM50 480V721Q50 742 71 755T127 768Q160 768 182 755T205 721V480Q205 462 182
447T127 432Q94 432 72 446T50 480Z" />
<glyph unicode="&#xa7;" glyph-name="section" horiz-adv-x="485" d="M38 99Q38 133 54 146T103 159Q169 159 169 118Q169 58 229 58Q263 58 279 73T295 110Q295 138 269 157T204 194T129 234T65 303T38 417V517Q38 579 57 623T108 689T173 721T242 731Q332 731
381 680T431 562Q431 528 417 516T374 503Q309 503 309 550Q309 607 247 607Q213 607 197 591T180 552Q180 524 208 505T276 468T355 428T423 359T451 245V145Q451 83 431 39T378 -27T310 -59T237 -69Q143 -69 91 -18T38 99ZM165 384Q165 352 184 329T226 296L281
272Q312 259 326 248V266Q326 298 307 321T264 354L210 378Q179 391 165 402V384Z" />
<glyph unicode="&#xa8;" glyph-name="dieresis" horiz-adv-x="273" d="M0 607T0 630T17 670T57 688T96 671T113 630Q113 606 97 589T57 571T17 589ZM160 607T160 630T177 670T217 688T256 671T273 630Q273 606 257 589T217 571T177 589Z" />
<glyph unicode="&#xa9;" glyph-name="copyright" horiz-adv-x="680" d="M33 358Q33 438 61 502T136 605T235 664T343 685T450 665T547 606T619 504T647 362Q647 282 619 218T544 115T445 56T337 35T230 55T133 114T61 216T33 358ZM103 358Q103 246 166 176T337
105T510 176T577 362Q577 474 513 544T343 615Q236 615 170 544T103 358ZM216 302V432Q216 500 250 531T341 563Q398 563 434 534T471 453Q471 430 462 422T431 413Q391 413 390 439Q387 490 344 490Q297 490 297 432V302Q297 244 344 244Q363 244 374 255T386
275T390 301Q391 326 430 326Q452 326 461 318T471 286Q471 233 435 202T341 171Q285 171 251 202T216 302Z" />
<glyph unicode="&#xaa;" glyph-name="ordfeminine" horiz-adv-x="338" d="M21 524Q21 580 62 603T180 626H205V633Q205 655 192 671T152 687Q120 687 99 676T73 665Q58 665 49 680T39 715Q39 737 76 752T153 768Q230 768 267 730T305 634V471Q305 458 291 449T256
440Q237 440 225 449T212 471V488Q177 448 139 438Q126 434 107 434Q70 435 46 458T21 524ZM122 538Q122 507 151 507Q170 507 187 526T205 570V576H187Q122 576 122 538Z" />
<glyph unicode="&#xab;" glyph-name="guillemotleft" horiz-adv-x="537" d="M21 268T21 276T24 291T36 312L49 336L116 461Q126 480 158 480Q195 480 225 454T256 402Q256 394 253 388L194 277L253 166Q256 160 256 152Q256 127 226 101T158 74Q126 74 116 93L49
218Q44 228 36 241T24 261ZM271 268T271 276T274 291T286 312L299 336L366 461Q376 480 408 480Q445 480 475 454T506 402Q506 394 503 388L444 277L503 166Q506 160 506 152Q506 127 476 101T408 74Q376 74 366 93L299 218Q294 228 286 241T274 261Z" />
<glyph unicode="&#xac;" glyph-name="logicalnot" horiz-adv-x="504" d="M26 240Q26 267 39 285T73 304H414Q433 304 447 285T462 240V111Q462 93 439 78T384 63Q351 63 329 77T307 111V177H73Q52 177 39 194T26 240Z" />
<glyph unicode="&#xad;" glyph-name="uni00AD" horiz-adv-x="476" d="M31 240Q31 267 44 285T78 304H398Q417 304 431 285T446 240Q446 213 432 195T398 177H78Q57 177 44 194T31 240Z" />
<glyph unicode="&#xae;" glyph-name="registered" horiz-adv-x="680" d="M33 358Q33 438 61 502T136 605T235 664T343 685T450 665T547 606T619 504T647 362Q647 282 619 218T544 115T445 56T337 35T230 55T133 114T61 216T33 358ZM103 358Q103 246 166 176T337
105T510 176T577 362Q577 474 513 544T343 615Q236 615 170 544T103 358ZM228 208V522Q228 532 235 539T253 547H354Q408 547 442 522T476 439Q476 362 413 337L472 229Q473 227 473 222Q473 207 460 194T432 181Q418 181 409 198L346 324H304V208Q304 196 294
189T268 182Q252 182 240 189T228 208ZM304 388H354Q401 388 401 431Q401 480 354 480H304V388Z" />
<glyph unicode="&#xaf;" glyph-name="overscore" horiz-adv-x="295" d="M0 649Q0 670 13 684T47 699H247Q266 699 280 685T295 649T281 614T247 600H47Q26 600 13 613T0 649Z" />
<glyph unicode="&#xb0;" glyph-name="degree" horiz-adv-x="389" d="M17 516T17 588T69 714T194 768T319 715T372 589T319 461T194 406T70 461ZM97 588Q97 548 125 518T194 487T263 517T292 587T263 656T194 687T126 657T97 588Z" />
<glyph unicode="&#xb1;" glyph-name="plusminus" horiz-adv-x="473" d="M29 85Q29 112 42 130T76 149H396Q415 149 429 130T444 85Q444 58 430 40T396 22H76Q55 22 42 39T29 85ZM29 375Q29 402 42 420T76 439H173V525Q173 544 192 558T237 573Q264 573 282 559T300
525V439H396Q415 439 429 420T444 375Q444 348 430 330T396 312H300V225Q300 204 283 191T237 178Q210 178 192 191T173 225V312H76Q55 312 42 329T29 375Z" />
<glyph unicode="&#xb2;" glyph-name="uni00B2" horiz-adv-x="326" d="M19 352V407Q19 436 48 466T112 517T177 563T206 610Q206 622 196 631T165 641Q124 641 124 605Q124 591 110 580T71 569Q26 569 26 620T67 701T164 731Q221 731 264 700T307 613Q307 573 279
539T216 485T153 446T124 413V409H276Q288 409 297 396T306 366T297 336T276 322H63Q48 322 34 330T19 352Z" />
<glyph unicode="&#xb3;" glyph-name="uni00B3" horiz-adv-x="336" d="M15 428Q15 449 25 456T63 463Q93 463 103 456T114 431Q114 419 123 414T140 407T164 406Q193 406 204 415T215 447V458Q215 481 202 488T161 495Q132 495 132 533T161 572Q172 573 176 573T189
577T200 590T204 613Q204 646 163 646Q147 646 141 645T129 640T123 625Q123 590 76 590Q42 590 33 597T24 628Q24 670 57 700T163 731Q300 731 300 629Q300 599 288 573T254 538Q315 518 315 458V447Q315 381 273 350T160 319Q88 319 52 352T15 428Z" />
<glyph unicode="&#xb4;" glyph-name="acute" horiz-adv-x="221" d="M0 617Q0 642 20 652L160 717Q168 720 174 720Q193 720 207 702T221 662Q221 638 201 628L61 563Q51 559 46 559Q27 559 14 577T0 617Z" />
<glyph unicode="&#xb5;" glyph-name="uni00B5" horiz-adv-x="529" d="M51 -169V428Q51 446 74 461T129 476Q159 476 182 461T206 428V200Q206 171 228 148T279 125T329 148T351 200V429Q351 448 374 462T429 476Q462 476 484 462T506 429V200Q506 116 439 53T279
-10Q231 -10 186 19V-169Q186 -187 169 -202T127 -217Q95 -217 73 -203T51 -169Z" />
<glyph unicode="&#xb6;" glyph-name="paragraph" horiz-adv-x="572" d="M22 513V525Q22 632 75 681T218 731H465Q484 731 498 719T513 683V47Q513 24 499 12T465 0T431 12T417 47V665H332V48Q332 25 318 13T284 0T250 12T236 48V306H218Q129 306 76 356T22 513Z" />
<glyph unicode="&#xb7;" glyph-name="middot" horiz-adv-x="213" d="M25 271T25 300T49 350T107 371Q140 371 164 350T188 300T164 250T107 228Q73 228 49 249Z" />
<glyph unicode="&#xb8;" glyph-name="cedilla" horiz-adv-x="199" d="M0 -188Q0 -178 7 -162T26 -146Q30 -146 48 -153T84 -160Q130 -160 130 -129Q130 -99 87 -95L25 -89L54 9H118L99 -47Q148 -49 173 -71T199 -126Q199 -160 173 -189T88 -219Q56 -219 28 -211T0 -188Z" />
<glyph unicode="&#xb9;" glyph-name="uni00B9" horiz-adv-x="201" d="M1 657Q1 680 19 690L103 730Q110 733 120 733Q137 733 151 725T165 702V352Q165 338 150 330T115 322Q94 322 79 330T64 352V625L48 621Q39 618 32 618Q19 618 10 630T1 657Z" />
<glyph unicode="&#xba;" glyph-name="ordmasculine" horiz-adv-x="349" d="M22 576V626Q22 683 66 725T174 768Q236 768 281 726T327 626V576Q327 519 281 476T174 433T68 476T22 576ZM122 576Q122 554 137 538T174 521Q196 521 211 537T227 576V626Q227 647 211
663T174 680T138 664T122 626V576Z" />
<glyph unicode="&#xbb;" glyph-name="guillemotright" horiz-adv-x="537" d="M31 152Q31 160 34 166L93 277L34 388Q31 394 31 402Q31 427 61 453T129 480Q162 480 171 461L238 336L249 316L258 301Q261 296 263 289T266 276Q266 268 263 261T252 241T238 218L171
93Q162 74 129 74Q92 74 62 100T31 152ZM281 152Q281 160 284 166L343 277L284 388Q281 394 281 402Q281 427 311 453T379 480Q412 480 421 461L488 336L499 316L508 301Q511 296 513 289T516 276Q516 268 513 261T502 241T488 218L421 93Q412 74 379 74Q342 74
312 100T281 152Z" />
<glyph unicode="&#xbc;" glyph-name="onequarter" horiz-adv-x="691" d="M23 657Q23 680 41 690L125 730Q132 733 142 733Q159 733 173 725T187 702V352Q187 338 172 330T137 322Q116 322 101 330T86 352V625L70 621Q61 618 54 618Q41 618 32 630T23 657ZM81 7Q81
16 86 26L437 747Q449 772 479 772Q501 772 519 757T538 719Q538 708 534 700L182 -21Q170 -46 137 -46Q113 -46 97 -30T81 7ZM345 118Q345 127 350 136L487 384Q501 409 529 409Q544 409 561 399T579 372Q579 366 576 360L474 176H517V197Q517 212 531 219T567
227Q618 227 618 197V176H643Q657 176 665 163T673 130Q673 113 664 99T643 84H618V30Q618 16 603 8T567 0Q547 0 532 8T517 30V84H378Q364 84 355 93T345 118Z" />
<glyph unicode="&#xbd;" glyph-name="onehalf" horiz-adv-x="674" d="M21 657Q21 680 39 690L123 730Q130 733 140 733Q157 733 171 725T185 702V352Q185 338 170 330T135 322Q114 322 99 330T84 352V625L68 621Q59 618 52 618Q39 618 30 630T21 657ZM63 7Q63
16 68 26L419 747Q431 772 461 772Q483 772 501 757T520 719Q520 708 516 700L164 -21Q152 -46 119 -46Q95 -46 79 -30T63 7ZM360 30V85Q360 114 389 144T453 195T518 241T547 288Q547 300 537 309T506 319Q465 319 465 283Q465 269 451 258T412 247Q367 247 367
298T408 379T505 409Q562 409 605 378T648 291Q648 251 620 217T557 163T494 124T465 91V87H617Q629 87 638 74T647 44T638 14T617 0H404Q389 0 375 8T360 30Z" />
<glyph unicode="&#xbe;" glyph-name="threequarters" horiz-adv-x="826" d="M27 428Q27 449 37 456T75 463Q105 463 115 456T126 431Q126 419 135 414T152 407T176 406Q205 406 216 415T227 447V458Q227 481 214 488T173 495Q144 495 144 533T173 572Q184 573
188 573T201 577T212 590T216 613Q216 646 175 646Q159 646 153 645T141 640T135 625Q135 590 88 590Q54 590 45 597T36 628Q36 670 69 700T175 731Q312 731 312 629Q312 599 300 573T266 538Q327 518 327 458V447Q327 381 285 350T172 319Q100 319 64 352T27 428ZM210
7Q210 16 215 26L566 747Q578 772 608 772Q630 772 648 757T667 719Q667 708 663 700L311 -21Q299 -46 266 -46Q242 -46 226 -30T210 7ZM480 118Q480 127 485 136L622 384Q636 409 664 409Q679 409 696 399T714 372Q714 366 711 360L609 176H652V197Q652 212 666
219T702 227Q753 227 753 197V176H778Q792 176 800 163T808 130Q808 113 799 99T778 84H753V30Q753 16 738 8T702 0Q682 0 667 8T652 30V84H513Q499 84 490 93T480 118Z" />
<glyph unicode="&#xbf;" glyph-name="questiondown" horiz-adv-x="452" d="M22 159Q22 255 134 342Q160 363 172 383T187 419T190 467Q190 508 249 508Q280 508 292 494T304 441Q304 347 237 289Q234 286 211 268T179 241T159 214T148 176Q148 143 173 126T238
108Q272 108 294 120T323 146T342 173T372 185Q395 185 413 170T432 128Q432 80 380 37T235 -6Q140 -6 81 41T22 159ZM171 654Q171 685 193 708T248 731T302 708T324 654Q324 622 302 600T248 577Q216 577 194 599T171 654Z" />
<glyph unicode="&#xc0;" glyph-name="Agrave" horiz-adv-x="589" d="M4 64Q4 67 6 75L192 685Q200 710 228 723T294 737T359 724T396 685L583 75Q585 67 585 64Q585 38 553 19T485 0Q442 0 434 29L400 154H189L155 29Q147 0 104 0Q69 0 37 19T4 64ZM166 901Q166
922 180 940T213 959Q220 959 227 956L367 891Q387 881 387 856Q387 835 374 817T341 798Q336 798 326 802L186 867Q166 877 166 901ZM221 274H367L294 542L221 274Z" />
<glyph unicode="&#xc1;" glyph-name="Aacute" horiz-adv-x="589" d="M4 64Q4 67 6 75L192 685Q200 710 228 723T294 737T359 724T396 685L583 75Q585 67 585 64Q585 38 553 19T485 0Q442 0 434 29L400 154H189L155 29Q147 0 104 0Q69 0 37 19T4 64ZM221 274H367L294
542L221 274ZM221 856Q221 881 241 891L381 956Q388 959 395 959Q414 959 428 941T442 901Q442 877 422 867L282 802Q272 798 267 798Q248 798 235 816T221 856Z" />
<glyph unicode="&#xc2;" glyph-name="Acircumflex" horiz-adv-x="589" d="M4 64Q4 67 6 75L192 685Q200 710 228 723T294 737T359 724T396 685L583 75Q585 67 585 64Q585 38 553 19T485 0Q442 0 434 29L400 154H189L155 29Q147 0 104 0Q69 0 37 19T4 64ZM148 854Q148
884 173 898L277 954Q287 959 294 959T311 954L415 898Q440 884 440 854Q440 836 431 822T409 808Q404 808 398 811L294 867L190 811Q184 808 179 808Q166 808 157 822T148 854ZM221 274H367L294 542L221 274Z" />
<glyph unicode="&#xc3;" glyph-name="Atilde" horiz-adv-x="589" d="M4 64Q4 67 6 75L192 685Q200 710 228 723T294 737T359 724T396 685L583 75Q585 67 585 64Q585 38 553 19T485 0Q442 0 434 29L400 154H189L155 29Q147 0 104 0Q69 0 37 19T4 64ZM117 873Q117
946 202 946Q233 946 277 933T348 919Q371 919 398 929T434 940Q454 940 463 923T472 891Q472 818 387 818Q349 818 306 831T241 845Q218 845 191 835T155 824Q135 824 126 841T117 873ZM221 274H367L294 542L221 274Z" />
<glyph unicode="&#xc4;" glyph-name="Adieresis" horiz-adv-x="589" d="M4 64Q4 67 6 75L192 685Q200 710 228 723T294 737T359 724T396 685L583 75Q585 67 585 64Q585 38 553 19T485 0Q442 0 434 29L400 154H189L155 29Q147 0 104 0Q69 0 37 19T4 64ZM159 846T159
869T176 909T216 927T255 910T272 869Q272 845 256 828T216 810T176 828ZM221 274H367L294 542L221 274ZM319 846T319 869T336 909T376 927T415 910T432 869Q432 845 416 828T376 810T336 828Z" />
<glyph unicode="&#xc5;" glyph-name="Aring" horiz-adv-x="589" d="M4 64Q4 67 6 75L192 685Q200 710 228 723T294 737T359 724T396 685L583 75Q585 67 585 64Q585 38 553 19T485 0Q442 0 434 29L400 154H189L155 29Q147 0 104 0Q69 0 37 19T4 64ZM194 907Q194
947 223 977T293 1008Q333 1008 363 978T394 907Q394 866 364 835T293 804T224 835T194 907ZM221 274H367L294 542L221 274ZM253 906Q253 890 265 877T294 864Q310 864 321 877T333 906Q333 921 322 933T294 945Q277 945 265 933T253 906Z" />
<glyph unicode="&#xc6;" glyph-name="AE" horiz-adv-x="817" d="M51 53V495Q51 617 115 674T287 731H756Q779 731 791 711T803 664Q803 635 791 615T756 595H530V426H638Q660 426 672 408T685 365Q685 342 673 324T638 306H530V136H756Q778 136 790 116T803 67Q803
40 791 20T756 0H442Q414 0 394 12T374 48V306H197V53Q197 27 182 14T119 0Q51 0 51 53ZM197 426H374V595H287Q197 595 197 495V426Z" />
<glyph unicode="&#xc7;" glyph-name="Ccedilla" horiz-adv-x="562" d="M46 230V495Q46 617 112 674T286 731Q396 731 466 678T537 532Q537 489 519 474T459 458Q384 458 381 505Q378 595 292 595Q202 595 202 495V230Q202 130 293 130Q321 130 339 139T366 166T376
197T381 230Q385 277 458 277Q501 277 519 262T537 203Q537 114 478 60T322 -4L308 -47Q357 -49 382 -71T408 -126Q408 -160 382 -189T297 -219Q265 -219 237 -211T209 -188Q209 -178 216 -162T235 -146Q238 -146 256 -153T293 -160Q339 -160 339 -129Q339 -99
296 -95L234 -89L259 -5Q163 1 105 58T46 230Z" />
<glyph unicode="&#xc8;" glyph-name="Egrave" horiz-adv-x="539" d="M54 48V683Q54 706 74 718T122 731H478Q501 731 513 711T525 664Q525 635 513 615T478 595H210V426H360Q382 426 394 408T407 365Q407 342 395 324T360 306H210V136H478Q500 136 512 116T525
67Q525 40 513 20T478 0H122Q94 0 74 12T54 48ZM173 901Q173 922 187 940T220 959Q226 959 234 956L374 891Q394 881 394 856Q394 835 381 817T348 798Q343 798 333 802L193 867Q173 877 173 901Z" />
<glyph unicode="&#xc9;" glyph-name="Eacute" horiz-adv-x="539" d="M54 48V683Q54 706 74 718T122 731H478Q501 731 513 711T525 664Q525 635 513 615T478 595H210V426H360Q382 426 394 408T407 365Q407 342 395 324T360 306H210V136H478Q500 136 512 116T525
67Q525 40 513 20T478 0H122Q94 0 74 12T54 48ZM203 856Q203 881 223 891L363 956Q370 959 377 959Q396 959 410 941T424 901Q424 877 404 867L264 802Q254 798 249 798Q230 798 217 816T203 856Z" />
<glyph unicode="&#xca;" glyph-name="Ecircumflex" horiz-adv-x="539" d="M54 48V683Q54 706 74 718T122 731H478Q501 731 513 711T525 664Q525 635 513 615T478 595H210V426H360Q382 426 394 408T407 365Q407 342 395 324T360 306H210V136H478Q500 136 512 116T525
67Q525 40 513 20T478 0H122Q94 0 74 12T54 48ZM153 854Q153 884 178 898L282 954Q292 959 299 959T316 954L420 898Q445 884 445 854Q445 836 436 822T414 808Q409 808 403 811L299 867L195 811Q189 808 184 808Q171 808 162 822T153 854Z" />
<glyph unicode="&#xcb;" glyph-name="Edieresis" horiz-adv-x="539" d="M54 48V683Q54 706 74 718T122 731H478Q501 731 513 711T525 664Q525 635 513 615T478 595H210V426H360Q382 426 394 408T407 365Q407 342 395 324T360 306H210V136H478Q500 136 512 116T525
67Q525 40 513 20T478 0H122Q94 0 74 12T54 48ZM156 846T156 869T173 909T213 927T252 910T269 869Q269 845 253 828T213 810T173 828ZM316 846T316 869T333 909T373 927T412 910T429 869Q429 845 413 828T373 810T333 828Z" />
<glyph unicode="&#xcc;" glyph-name="Igrave" horiz-adv-x="264" d="M13 901Q13 922 27 940T60 959Q66 959 74 956L214 891Q234 881 234 856Q234 835 221 817T188 798Q183 798 173 802L33 867Q13 877 13 901ZM54 48V684Q54 707 77 719T132 731T187 719T210 684V48Q210
25 187 13T132 0T77 12T54 48Z" />
<glyph unicode="&#xcd;" glyph-name="Iacute" horiz-adv-x="264" d="M31 856Q31 881 51 891L191 956Q198 959 205 959Q224 959 238 941T252 901Q252 877 232 867L92 802Q82 798 77 798Q58 798 45 816T31 856ZM54 48V684Q54 707 77 719T132 731T187 719T210 684V48Q210
25 187 13T132 0T77 12T54 48Z" />
<glyph unicode="&#xce;" glyph-name="Icircumflex" horiz-adv-x="264" d="M-12 854Q-12 884 13 898L117 954Q127 959 134 959T151 954L255 898Q280 884 280 854Q280 836 271 822T249 808Q244 808 238 811L134 867L30 811Q24 808 19 808Q6 808 -3 822T-12 854ZM54
48V684Q54 707 77 719T132 731T187 719T210 684V48Q210 25 187 13T132 0T77 12T54 48Z" />
<glyph unicode="&#xcf;" glyph-name="Idieresis" horiz-adv-x="264" d="M-3 846T-3 869T14 909T54 927T93 910T110 869Q110 845 94 828T54 810T14 828ZM54 48V684Q54 707 77 719T132 731T187 719T210 684V48Q210 25 187 13T132 0T77 12T54 48ZM157 846T157 869T174
909T214 927T253 910T270 869Q270 845 254 828T214 810T174 828Z" />
<glyph unicode="&#xd0;" glyph-name="Eth" horiz-adv-x="596" d="M-10 382Q-10 404 0 420T28 437H60V684Q60 703 79 717T128 731H305Q417 731 484 674T551 495V236Q551 114 484 57T305 0H128Q98 0 79 14T60 47V327H28Q10 327 0 343T-10 382ZM216 136H305Q395 136
395 236V495Q395 595 305 595H216V437H278Q296 437 306 421T316 382Q316 359 306 343T278 327H216V136Z" />
<glyph unicode="&#xd1;" glyph-name="Ntilde" horiz-adv-x="619" d="M54 48V683Q54 706 77 718T132 731Q177 731 198 718T247 653L409 344V684Q409 707 432 719T487 731T542 719T565 684V48Q565 25 542 13T487 0Q423 0 400 42L210 388V48Q210 25 187 13T132 0T77
12T54 48ZM123 873Q123 946 208 946Q239 946 283 933T354 919Q377 919 404 929T440 940Q460 940 469 923T478 891Q478 818 393 818Q355 818 312 831T247 845Q224 845 197 835T161 824Q141 824 132 841T123 873Z" />
<glyph unicode="&#xd2;" glyph-name="Ograve" horiz-adv-x="583" d="M46 230V495Q46 617 113 674T291 731Q403 731 470 674T537 495V230Q537 108 470 51T291 -6Q180 -6 113 51T46 230ZM165 901Q165 922 179 940T212 959Q218 959 226 956L366 891Q386 881 386 856Q386
835 373 817T340 798Q335 798 325 802L185 867Q165 877 165 901ZM202 230Q202 130 291 130Q381 130 381 230V495Q381 595 291 595Q202 595 202 495V230Z" />
<glyph unicode="&#xd3;" glyph-name="Oacute" horiz-adv-x="583" d="M46 230V495Q46 617 113 674T291 731Q403 731 470 674T537 495V230Q537 108 470 51T291 -6Q180 -6 113 51T46 230ZM202 230Q202 130 291 130Q381 130 381 230V495Q381 595 291 595Q202 595 202
495V230ZM225 856Q225 881 245 891L385 956Q392 959 399 959Q418 959 432 941T446 901Q446 877 426 867L286 802Q276 798 271 798Q252 798 239 816T225 856Z" />
<glyph unicode="&#xd4;" glyph-name="Ocircumflex" horiz-adv-x="583" d="M46 230V495Q46 617 113 674T291 731Q403 731 470 674T537 495V230Q537 108 470 51T291 -6Q180 -6 113 51T46 230ZM145 854Q145 884 170 898L274 954Q284 959 291 959T308 954L412 898Q437
884 437 854Q437 836 428 822T406 808Q401 808 395 811L291 867L187 811Q181 808 176 808Q163 808 154 822T145 854ZM202 230Q202 130 291 130Q381 130 381 230V495Q381 595 291 595Q202 595 202 495V230Z" />
<glyph unicode="&#xd5;" glyph-name="Otilde" horiz-adv-x="583" d="M46 230V495Q46 617 113 674T291 731Q403 731 470 674T537 495V230Q537 108 470 51T291 -6Q180 -6 113 51T46 230ZM114 873Q114 946 199 946Q230 946 274 933T345 919Q368 919 395 929T431 940Q451
940 460 923T469 891Q469 818 384 818Q346 818 303 831T238 845Q215 845 188 835T152 824Q132 824 123 841T114 873ZM202 230Q202 130 291 130Q381 130 381 230V495Q381 595 291 595Q202 595 202 495V230Z" />
<glyph unicode="&#xd6;" glyph-name="Odieresis" horiz-adv-x="583" d="M46 230V495Q46 617 113 674T291 731Q403 731 470 674T537 495V230Q537 108 470 51T291 -6Q180 -6 113 51T46 230ZM156 846T156 869T173 909T213 927T252 910T269 869Q269 845 253 828T213
810T173 828ZM202 230Q202 130 291 130Q381 130 381 230V495Q381 595 291 595Q202 595 202 495V230ZM316 846T316 869T333 909T373 927T412 910T429 869Q429 845 413 828T373 810T333 828Z" />
<glyph unicode="&#xd7;" glyph-name="multiply" horiz-adv-x="410" d="M34 177Q34 194 46 206L125 275L47 342Q36 353 36 371Q36 398 58 420T107 443Q124 443 137 432L204 364L272 432Q283 443 301 443Q328 443 350 421T373 372Q373 353 362 342L284 275L363 206Q375
194 375 176Q375 150 352 127T302 104Q285 104 273 116L204 185L136 116Q124 104 106 104Q82 104 58 128T34 177Z" />
<glyph unicode="&#xd8;" glyph-name="Oslash" horiz-adv-x="583" d="M46 230V495Q46 617 113 674T291 731Q355 731 405 712L422 747Q434 772 464 772Q486 772 504 757T523 719Q523 708 519 700L493 648Q537 590 537 495V230Q537 108 470 51T291 -6Q230 -6 182
10L167 -21Q155 -46 122 -46Q98 -46 82 -30T66 7Q66 16 71 26L93 71Q46 129 46 230ZM202 295L342 583Q321 595 291 595Q202 595 202 495V295ZM245 139Q264 130 291 130Q381 130 381 230V417L245 139Z" />
<glyph unicode="&#xd9;" glyph-name="Ugrave" horiz-adv-x="606" d="M51 230V684Q51 707 73 719T129 731Q161 731 184 719T207 684V230Q207 130 303 130T399 230V684Q399 707 421 719T477 731Q509 731 532 719T555 684V230Q555 108 486 51T303 -6Q188 -6 120 51T51
230ZM170 901Q170 922 184 940T217 959Q224 959 231 956L371 891Q391 881 391 856Q391 835 378 817T345 798Q340 798 330 802L190 867Q170 877 170 901Z" />
<glyph unicode="&#xda;" glyph-name="Uacute" horiz-adv-x="606" d="M51 230V684Q51 707 73 719T129 731Q161 731 184 719T207 684V230Q207 130 303 130T399 230V684Q399 707 421 719T477 731Q509 731 532 719T555 684V230Q555 108 486 51T303 -6Q188 -6 120 51T51
230ZM220 856Q220 881 240 891L380 956Q388 959 394 959Q413 959 427 941T441 901Q441 877 421 867L281 802Q271 798 266 798Q247 798 234 816T220 856Z" />
<glyph unicode="&#xdb;" glyph-name="Ucircumflex" horiz-adv-x="606" d="M51 230V684Q51 707 73 719T129 731Q161 731 184 719T207 684V230Q207 130 303 130T399 230V684Q399 707 421 719T477 731Q509 731 532 719T555 684V230Q555 108 486 51T303 -6Q188 -6
120 51T51 230ZM150 854Q150 884 175 898L279 954Q289 959 296 959T313 954L417 898Q442 884 442 854Q442 836 433 822T411 808Q406 808 400 811L296 867L192 811Q186 808 181 808Q168 808 159 822T150 854Z" />
<glyph unicode="&#xdc;" glyph-name="Udieresis" horiz-adv-x="606" d="M51 230V684Q51 707 73 719T129 731Q161 731 184 719T207 684V230Q207 130 303 130T399 230V684Q399 707 421 719T477 731Q509 731 532 719T555 684V230Q555 108 486 51T303 -6Q188 -6 120
51T51 230ZM166 846T166 869T183 909T223 927T262 910T279 869Q279 845 263 828T223 810T183 828ZM326 846T326 869T343 909T383 927T422 910T439 869Q439 845 423 828T383 810T343 828Z" />
<glyph unicode="&#xdd;" glyph-name="Yacute" horiz-adv-x="590" d="M4 667Q4 693 39 712T110 731Q128 731 137 725T155 702L295 445L434 702Q449 731 479 731Q514 731 549 712T585 667Q585 660 583 656L377 313Q373 307 373 299V48Q373 25 350 13T295 0T240 12T217
48V299Q217 307 213 313L6 656Q4 660 4 667ZM205 856Q205 881 225 891L365 956Q372 959 379 959Q398 959 412 941T426 901Q426 877 406 867L266 802Q256 798 251 798Q232 798 219 816T205 856Z" />
<glyph unicode="&#xde;" glyph-name="Thorn" horiz-adv-x="529" d="M54 48V701Q54 722 75 735T128 748Q163 748 186 735T209 701V547Q226 579 259 601T334 623Q409 623 461 562T513 413V343Q513 259 461 195T339 131Q297 131 261 154T209 211V48Q209 30 186 15T130
0T76 14T54 48ZM209 330Q209 314 231 290T284 266Q313 266 335 289T358 343V413Q358 442 336 465T282 488Q253 488 231 468T209 413V330Z" />
<glyph unicode="&#xdf;" glyph-name="germandbls" horiz-adv-x="617" d="M-1 421Q-1 443 9 459T37 476H86V560Q86 651 136 709T293 768Q384 768 442 721T500 582Q500 533 482 490T434 431Q494 420 544 363T594 225V214Q594 106 526 43T359 -20Q340 -20 329 -20T304
-16T281 -5T268 15T262 47Q262 72 271 96T298 120Q303 120 323 116T360 111Q399 111 420 134T442 200V211Q442 247 434 272T407 312T375 334T334 350Q312 357 302 369T292 413Q292 443 301 452T335 469Q374 480 374 547Q374 633 305 633Q241 633 241 560V47Q241
27 218 14T162 0Q129 0 108 13T86 47V366H37Q19 366 9 382T-1 421Z" />
<glyph unicode="&#xe0;" glyph-name="agrave" horiz-adv-x="484" d="M18 123Q18 206 78 240T252 274H288V284Q288 314 270 336T213 358Q165 358 134 342T96 325Q72 325 58 348T44 402Q44 435 99 458T215 482Q330 482 386 426T443 286V48Q443 28 422 14T367 0Q338
0 318 14T298 48V70Q229 -10 146 -10Q91 -10 55 24T18 123ZM125 662Q125 683 139 701T172 720Q178 720 186 717L326 652Q346 642 346 617Q346 596 333 578T300 559Q295 559 285 563L145 628Q125 638 125 662ZM174 145Q174 103 213 103Q238 103 263 131T288 195V199H284Q251
199 230 196T191 181T174 145Z" />
<glyph unicode="&#xe1;" glyph-name="aacute" horiz-adv-x="484" d="M18 123Q18 206 78 240T252 274H288V284Q288 314 270 336T213 358Q165 358 134 342T96 325Q72 325 58 348T44 402Q44 435 99 458T215 482Q330 482 386 426T443 286V48Q443 28 422 14T367 0Q338
0 318 14T298 48V70Q229 -10 146 -10Q91 -10 55 24T18 123ZM145 617Q145 642 165 652L305 717Q312 720 319 720Q338 720 352 702T366 662Q366 638 346 628L206 563Q196 559 191 559Q172 559 159 577T145 617ZM174 145Q174 103 213 103Q238 103 263 131T288 195V199H284Q251
199 230 196T191 181T174 145Z" />
<glyph unicode="&#xe2;" glyph-name="acircumflex" horiz-adv-x="484" d="M18 123Q18 206 78 240T252 274H288V284Q288 314 270 336T213 358Q165 358 134 342T96 325Q72 325 58 348T44 402Q44 435 99 458T215 482Q330 482 386 426T443 286V48Q443 28 422 14T367
0Q338 0 318 14T298 48V70Q229 -10 146 -10Q91 -10 55 24T18 123ZM80 615Q80 645 105 659L209 715Q219 720 226 720T243 715L347 659Q372 645 372 615Q372 597 363 583T341 569Q336 569 330 572L226 628L122 572Q116 569 111 569Q98 569 89 583T80 615ZM174 145Q174
103 213 103Q238 103 263 131T288 195V199H284Q251 199 230 196T191 181T174 145Z" />
<glyph unicode="&#xe3;" glyph-name="atilde" horiz-adv-x="484" d="M18 123Q18 206 78 240T252 274H288V284Q288 314 270 336T213 358Q165 358 134 342T96 325Q72 325 58 348T44 402Q44 435 99 458T215 482Q330 482 386 426T443 286V48Q443 28 422 14T367 0Q338
0 318 14T298 48V70Q229 -10 146 -10Q91 -10 55 24T18 123ZM58 634Q58 707 143 707Q174 707 218 694T289 680Q312 680 339 690T375 701Q395 701 404 684T413 652Q413 579 328 579Q290 579 247 592T182 606Q159 606 132 596T96 585Q76 585 67 602T58 634ZM174 145Q174
103 213 103Q238 103 263 131T288 195V199H284Q251 199 230 196T191 181T174 145Z" />
<glyph unicode="&#xe4;" glyph-name="adieresis" horiz-adv-x="484" d="M18 123Q18 206 78 240T252 274H288V284Q288 314 270 336T213 358Q165 358 134 342T96 325Q72 325 58 348T44 402Q44 435 99 458T215 482Q330 482 386 426T443 286V48Q443 28 422 14T367
0Q338 0 318 14T298 48V70Q229 -10 146 -10Q91 -10 55 24T18 123ZM97 607T97 630T114 670T154 688T193 671T210 630Q210 606 194 589T154 571T114 589ZM174 145Q174 103 213 103Q238 103 263 131T288 195V199H284Q251 199 230 196T191 181T174 145ZM257 607T257
630T274 670T314 688T353 671T370 630Q370 606 354 589T314 571T274 589Z" />
<glyph unicode="&#xe5;" glyph-name="aring" horiz-adv-x="484" d="M18 123Q18 206 78 240T252 274H288V284Q288 314 270 336T213 358Q165 358 134 342T96 325Q72 325 58 348T44 402Q44 435 99 458T215 482Q330 482 386 426T443 286V48Q443 28 422 14T367 0Q338
0 318 14T298 48V70Q229 -10 146 -10Q91 -10 55 24T18 123ZM137 668Q137 708 166 738T236 769Q276 769 306 739T337 668Q337 627 307 596T236 565T167 596T137 668ZM174 145Q174 103 213 103Q238 103 263 131T288 195V199H284Q251 199 230 196T191 181T174 145ZM196
667Q196 651 208 638T237 625Q253 625 264 638T276 667Q276 682 265 694T237 706Q220 706 208 694T196 667Z" />
<glyph unicode="&#xe6;" glyph-name="ae" horiz-adv-x="756" d="M17 123Q17 206 77 240T251 274H287V284Q287 314 269 336T212 358Q164 358 133 342T95 325Q71 325 57 348T43 402Q43 435 98 458T214 482Q315 482 372 410Q436 482 517 482Q606 482 669 429T732
292Q732 260 724 240T700 212T671 202T635 199H442V193Q442 156 470 134T544 111Q579 111 617 129T669 148Q694 148 710 125T726 80Q726 49 673 20T540 -10Q421 -10 351 84Q269 -10 175 -10Q107 -10 62 24T17 123ZM173 145Q173 103 212 103Q237 103 262 131T287
195V199H283Q250 199 229 196T190 181T173 145ZM442 286H566Q587 286 587 310Q587 338 566 354T514 370Q485 370 464 354T442 310V286Z" />
<glyph unicode="&#xe7;" glyph-name="ccedilla" horiz-adv-x="442" d="M28 202V270Q28 365 84 423T253 482Q325 482 373 458T422 399Q422 374 405 349T362 323Q354 323 326 335T266 347Q183 347 183 270V202Q183 125 267 125Q297 125 324 138T362 152Q391 152
409 128T428 78Q428 47 386 22T282 -9L269 -47Q318 -49 343 -71T369 -126Q369 -160 343 -189T258 -219Q226 -219 198 -211T170 -188Q170 -178 177 -162T196 -146Q200 -146 218 -153T254 -160Q300 -160 300 -129Q300 -99 257 -95L195 -89L219 -8Q123 1 76 57T28
202Z" />
<glyph unicode="&#xe8;" glyph-name="egrave" horiz-adv-x="496" d="M27 202V275Q27 360 94 421T257 482Q346 482 409 429T472 292Q472 260 464 240T440 212T411 202T375 199H182V193Q182 156 210 134T284 111Q319 111 357 129T409 148Q434 148 450 125T466 80Q466
49 413 20T280 -10Q168 -10 98 48T27 202ZM128 662Q128 683 142 701T175 720Q182 720 189 717L329 652Q349 642 349 617Q349 596 336 578T303 559Q298 559 288 563L148 628Q128 638 128 662ZM182 286H306Q327 286 327 310Q327 338 306 354T254 370Q225 370 204
354T182 310V286Z" />
<glyph unicode="&#xe9;" glyph-name="eacute" horiz-adv-x="496" d="M27 202V275Q27 360 94 421T257 482Q346 482 409 429T472 292Q472 260 464 240T440 212T411 202T375 199H182V193Q182 156 210 134T284 111Q319 111 357 129T409 148Q434 148 450 125T466 80Q466
49 413 20T280 -10Q168 -10 98 48T27 202ZM148 617Q148 642 168 652L308 717Q316 720 322 720Q341 720 355 702T369 662Q369 638 349 628L209 563Q199 559 194 559Q175 559 162 577T148 617ZM182 286H306Q327 286 327 310Q327 338 306 354T254 370Q225 370 204
354T182 310V286Z" />
<glyph unicode="&#xea;" glyph-name="ecircumflex" horiz-adv-x="496" d="M27 202V275Q27 360 94 421T257 482Q346 482 409 429T472 292Q472 260 464 240T440 212T411 202T375 199H182V193Q182 156 210 134T284 111Q319 111 357 129T409 148Q434 148 450 125T466
80Q466 49 413 20T280 -10Q168 -10 98 48T27 202ZM109 615Q109 645 134 659L238 715Q248 720 255 720T272 715L376 659Q401 645 401 615Q401 597 392 583T370 569Q365 569 359 572L255 628L151 572Q145 569 140 569Q127 569 118 583T109 615ZM182 286H306Q327 286
327 310Q327 338 306 354T254 370Q225 370 204 354T182 310V286Z" />
<glyph unicode="&#xeb;" glyph-name="edieresis" horiz-adv-x="496" d="M27 202V275Q27 360 94 421T257 482Q346 482 409 429T472 292Q472 260 464 240T440 212T411 202T375 199H182V193Q182 156 210 134T284 111Q319 111 357 129T409 148Q434 148 450 125T466
80Q466 49 413 20T280 -10Q168 -10 98 48T27 202ZM117 607T117 630T134 670T174 688T213 671T230 630Q230 606 214 589T174 571T134 589ZM182 286H306Q327 286 327 310Q327 338 306 354T254 370Q225 370 204 354T182 310V286ZM277 607T277 630T294 670T334 688T373
671T390 630Q390 606 374 589T334 571T294 589Z" />
<glyph unicode="&#xec;" glyph-name="igrave" horiz-adv-x="244" d="M-7 662Q-7 683 7 701T40 720Q46 720 54 717L194 652Q214 642 214 617Q214 596 201 578T168 559Q163 559 153 563L13 628Q-7 638 -7 662ZM45 48V429Q45 450 66 463T122 476Q155 476 177 463T200
429V48Q200 30 177 15T122 0Q89 0 67 14T45 48Z" />
<glyph unicode="&#xed;" glyph-name="iacute" horiz-adv-x="244" d="M33 617Q33 642 53 652L193 717Q200 720 207 720Q226 720 240 702T254 662Q254 638 234 628L94 563Q84 559 79 559Q60 559 47 577T33 617ZM45 48V429Q45 450 66 463T122 476Q155 476 177 463T200
429V48Q200 30 177 15T122 0Q89 0 67 14T45 48Z" />
<glyph unicode="&#xee;" glyph-name="icircumflex" horiz-adv-x="244" d="M-23 615Q-23 645 2 659L106 715Q116 720 123 720T140 715L244 659Q269 645 269 615Q269 597 260 583T238 569Q233 569 227 572L123 628L19 572Q13 569 8 569Q-5 569 -14 583T-23 615ZM45
48V429Q45 450 66 463T122 476Q155 476 177 463T200 429V48Q200 30 177 15T122 0Q89 0 67 14T45 48Z" />
<glyph unicode="&#xef;" glyph-name="idieresis" horiz-adv-x="244" d="M-10 607T-10 630T7 670T47 688T86 671T103 630Q103 606 87 589T47 571T7 589ZM45 48V429Q45 450 66 463T122 476Q155 476 177 463T200 429V48Q200 30 177 15T122 0Q89 0 67 14T45 48ZM150
607T150 630T167 670T207 688T246 671T263 630Q263 606 247 589T207 571T167 589Z" />
<glyph unicode="&#xf0;" glyph-name="eth" horiz-adv-x="525" d="M27 202V272Q27 358 79 420T204 482Q247 482 280 460T331 406Q331 468 296 535L255 510Q250 506 241 506Q222 506 205 526T188 567Q188 585 204 595L237 615Q236 617 233 619T228 623L222 629L216
635L210 641Q206 645 205 648T201 656T198 665T197 675Q197 701 215 725T272 749Q325 749 370 696L419 726Q426 730 434 730Q453 730 469 711T486 670Q486 651 470 641L423 612Q486 481 486 343V202Q486 118 418 54T257 -10T96 54T27 202ZM182 202Q182 172 204
149T257 125T309 148T331 202V272Q331 305 308 326T255 347Q225 347 204 324T182 272V202Z" />
<glyph unicode="&#xf1;" glyph-name="ntilde" horiz-adv-x="534" d="M45 48V429Q45 450 66 463T122 476Q150 476 170 463T190 429V406Q206 438 241 460T324 482Q393 482 443 420T494 272V48Q494 25 471 13T416 0Q386 0 363 13T339 48V272Q339 301 318 324T267
347Q241 347 221 327T200 272V48Q200 30 177 15T122 0Q89 0 67 14T45 48ZM89 634Q89 707 174 707Q205 707 249 694T320 680Q343 680 370 690T406 701Q426 701 435 684T444 652Q444 579 359 579Q321 579 278 592T213 606Q190 606 163 596T127 585Q107 585 98 602T89
634Z" />
<glyph unicode="&#xf2;" glyph-name="ograve" horiz-adv-x="509" d="M27 202V272Q27 357 94 419T254 482Q346 482 414 420T482 272V202Q482 118 414 54T254 -10T95 54T27 202ZM128 662Q128 683 142 701T175 720Q182 720 189 717L329 652Q349 642 349 617Q349 596
336 578T303 559Q298 559 288 563L148 628Q128 638 128 662ZM182 202Q182 172 203 149T254 125T305 148T327 202V272Q327 301 305 324T254 347T204 324T182 272V202Z" />
<glyph unicode="&#xf3;" glyph-name="oacute" horiz-adv-x="509" d="M27 202V272Q27 357 94 419T254 482Q346 482 414 420T482 272V202Q482 118 414 54T254 -10T95 54T27 202ZM148 617Q148 642 168 652L308 717Q316 720 322 720Q341 720 355 702T369 662Q369 638
349 628L209 563Q199 559 194 559Q175 559 162 577T148 617ZM182 202Q182 172 203 149T254 125T305 148T327 202V272Q327 301 305 324T254 347T204 324T182 272V202Z" />
<glyph unicode="&#xf4;" glyph-name="ocircumflex" horiz-adv-x="509" d="M27 202V272Q27 357 94 419T254 482Q346 482 414 420T482 272V202Q482 118 414 54T254 -10T95 54T27 202ZM108 615Q108 645 133 659L237 715Q247 720 254 720T271 715L375 659Q400 645
400 615Q400 597 391 583T369 569Q364 569 358 572L254 628L150 572Q144 569 139 569Q126 569 117 583T108 615ZM182 202Q182 172 203 149T254 125T305 148T327 202V272Q327 301 305 324T254 347T204 324T182 272V202Z" />
<glyph unicode="&#xf5;" glyph-name="otilde" horiz-adv-x="509" d="M27 202V272Q27 357 94 419T254 482Q346 482 414 420T482 272V202Q482 118 414 54T254 -10T95 54T27 202ZM78 634Q78 707 163 707Q194 707 238 694T309 680Q332 680 359 690T395 701Q415 701
424 684T433 652Q433 579 348 579Q310 579 267 592T202 606Q179 606 152 596T116 585Q96 585 87 602T78 634ZM182 202Q182 172 203 149T254 125T305 148T327 202V272Q327 301 305 324T254 347T204 324T182 272V202Z" />
<glyph unicode="&#xf6;" glyph-name="odieresis" horiz-adv-x="509" d="M27 202V272Q27 357 94 419T254 482Q346 482 414 420T482 272V202Q482 118 414 54T254 -10T95 54T27 202ZM119 607T119 630T136 670T176 688T215 671T232 630Q232 606 216 589T176 571T136
589ZM182 202Q182 172 203 149T254 125T305 148T327 202V272Q327 301 305 324T254 347T204 324T182 272V202ZM279 607T279 630T296 670T336 688T375 671T392 630Q392 606 376 589T336 571T296 589Z" />
<glyph unicode="&#xf7;" glyph-name="divide" horiz-adv-x="455" d="M20 238Q20 264 33 281T69 298H385Q404 298 419 281T435 238Q435 212 420 196T385 179H69Q47 179 34 195T20 238ZM157 66Q157 93 177 111T224 129Q249 129 269 111T290 66Q290 41 270 22T224
2Q198 2 178 21T157 66ZM157 385T157 411T177 456T224 475Q249 475 269 456T290 411T270 367T224 348Q197 348 177 366Z" />
<glyph unicode="&#xf8;" glyph-name="oslash" horiz-adv-x="509" d="M27 202V272Q27 357 94 419T254 482Q318 482 375 449L411 497Q420 510 433 510T456 501T466 478Q466 468 458 457L423 411Q482 350 482 272V202Q482 118 414 54T254 -10Q188 -10 128 27L89 -24Q83
-32 72 -32Q60 -32 51 -23T41 -2Q41 7 48 16L84 64Q27 126 27 202ZM182 194L290 336Q273 347 254 347Q225 347 204 324T182 272V194ZM214 138Q232 125 254 125Q284 125 305 148T327 202V272Q327 274 327 278T326 284L214 138Z" />
<glyph unicode="&#xf9;" glyph-name="ugrave" horiz-adv-x="535" d="M40 200V428Q40 446 63 461T118 476Q148 476 171 461T195 428V200Q195 171 217 148T268 125T318 148T340 200V429Q340 448 363 462T418 476Q451 476 473 462T495 429V200Q495 116 428 53T268
-10Q175 -10 108 53T40 200ZM141 662Q141 683 155 701T188 720Q194 720 202 717L342 652Q362 642 362 617Q362 596 349 578T316 559Q311 559 301 563L161 628Q141 638 141 662Z" />
<glyph unicode="&#xfa;" glyph-name="uacute" horiz-adv-x="535" d="M40 200V428Q40 446 63 461T118 476Q148 476 171 461T195 428V200Q195 171 217 148T268 125T318 148T340 200V429Q340 448 363 462T418 476Q451 476 473 462T495 429V200Q495 116 428 53T268
-10Q175 -10 108 53T40 200ZM171 617Q171 642 191 652L331 717Q338 720 345 720Q364 720 378 702T392 662Q392 638 372 628L232 563Q222 559 217 559Q198 559 185 577T171 617Z" />
<glyph unicode="&#xfb;" glyph-name="ucircumflex" horiz-adv-x="535" d="M40 200V428Q40 446 63 461T118 476Q148 476 171 461T195 428V200Q195 171 217 148T268 125T318 148T340 200V429Q340 448 363 462T418 476Q451 476 473 462T495 429V200Q495 116 428 53T268
-10Q175 -10 108 53T40 200ZM123 615Q123 645 148 659L252 715Q262 720 269 720T286 715L390 659Q415 645 415 615Q415 597 406 583T384 569Q379 569 373 572L269 628L165 572Q159 569 154 569Q141 569 132 583T123 615Z" />
<glyph unicode="&#xfc;" glyph-name="udieresis" horiz-adv-x="535" d="M40 200V428Q40 446 63 461T118 476Q148 476 171 461T195 428V200Q195 171 217 148T268 125T318 148T340 200V429Q340 448 363 462T418 476Q451 476 473 462T495 429V200Q495 116 428 53T268
-10Q175 -10 108 53T40 200ZM132 607T132 630T149 670T189 688T228 671T245 630Q245 606 229 589T189 571T149 589ZM292 607T292 630T309 670T349 688T388 671T405 630Q405 606 389 589T349 571T309 589Z" />
<glyph unicode="&#xfd;" glyph-name="yacute" horiz-adv-x="496" d="M1 -151Q1 -87 39 -87Q181 -87 181 41L6 389Q1 399 1 409Q1 437 37 460T106 483T149 458L262 187L345 458Q355 483 385 483Q416 483 454 460T492 406Q492 396 488 389L346 35Q341 21 328 -12L310
-58Q305 -73 292 -99T267 -139T235 -170T193 -196T140 -210T72 -217Q37 -217 19 -204T1 -151ZM187 617Q187 642 207 652L347 717Q354 720 361 720Q380 720 394 702T408 662Q408 638 388 628L248 563Q238 559 233 559Q214 559 201 577T187 617Z" />
<glyph unicode="&#xfe;" glyph-name="thorn" horiz-adv-x="533" d="M46 -169V701Q46 722 67 735T120 748Q155 748 178 735T201 701V406Q218 438 251 460T326 482Q401 482 453 421T505 272V202Q505 118 453 54T331 -10Q289 -10 253 13T201 70V-169Q201 -187 178
-202T122 -217T68 -203T46 -169ZM201 189Q201 173 223 149T276 125Q305 125 327 148T350 202V272Q350 301 328 324T274 347Q245 347 223 327T201 272V189Z" />
<glyph unicode="&#xff;" glyph-name="ydieresis" horiz-adv-x="496" d="M1 -151Q1 -87 39 -87Q181 -87 181 41L6 389Q1 399 1 409Q1 437 37 460T106 483T149 458L262 187L345 458Q355 483 385 483Q416 483 454 460T492 406Q492 396 488 389L346 35Q341 21 328
-12L310 -58Q305 -73 292 -99T267 -139T235 -170T193 -196T140 -210T72 -217Q37 -217 19 -204T1 -151ZM124 607T124 630T141 670T181 688T220 671T237 630Q237 606 221 589T181 571T141 589ZM284 607T284 630T301 670T341 688T380 671T397 630Q397 606 381 589T341
571T301 589Z" />
<glyph unicode="&#x2013;" glyph-name="endash" horiz-adv-x="476" d="M31 240Q31 267 44 285T78 304H398Q417 304 431 285T446 240Q446 213 432 195T398 177H78Q57 177 44 194T31 240Z" />
<glyph unicode="&#x2014;" glyph-name="emdash" horiz-adv-x="757" d="M31 240Q31 267 44 285T78 304H679Q698 304 712 285T727 240Q727 213 713 195T679 177H78Q57 177 44 194T31 240Z" />
<glyph unicode="&#x2018;" glyph-name="quoteleft" horiz-adv-x="191" d="M16 563Q16 579 78 723Q86 741 108 741Q126 741 142 730T158 702Q158 694 154 686L129 632Q169 609 169 564Q169 532 147 510T93 487T39 509T16 563Z" />
<glyph unicode="&#x2019;" glyph-name="quoteright" horiz-adv-x="190" d="M23 664Q23 696 45 718T99 741T153 719T176 665Q176 649 114 505Q106 487 84 487Q66 487 50 498T34 526Q34 534 38 542L63 596Q23 619 23 664Z" />
<glyph unicode="&#x201a;" glyph-name="quotesinglbase" horiz-adv-x="199" d="M23 71Q23 103 45 125T99 148T153 126T176 72Q176 56 114 -88Q106 -106 84 -106Q66 -106 50 -95T34 -67Q34 -59 38 -51L63 3Q23 26 23 71Z" />
<glyph unicode="&#x201c;" glyph-name="quotedblleft" horiz-adv-x="391" d="M16 563Q16 579 78 723Q86 741 108 741Q126 741 142 730T158 702Q158 694 154 686L129 632Q169 609 169 564Q169 532 147 510T93 487T39 509T16 563ZM216 563Q216 579 278 723Q286 741
308 741Q326 741 342 730T358 702Q358 694 354 686L329 632Q369 609 369 564Q369 532 347 510T293 487T239 509T216 563Z" />
<glyph unicode="&#x201d;" glyph-name="quotedblright" horiz-adv-x="390" d="M23 664Q23 696 45 718T99 741T153 719T176 665Q176 649 114 505Q106 487 84 487Q66 487 50 498T34 526Q34 534 38 542L63 596Q23 619 23 664ZM223 664Q223 696 245 718T299 741T353
719T376 665Q376 649 314 505Q306 487 284 487Q266 487 250 498T234 526Q234 534 238 542L263 596Q223 619 223 664Z" />
<glyph unicode="&#x201e;" glyph-name="quotedblbase" horiz-adv-x="399" d="M23 71Q23 103 45 125T99 148T153 126T176 72Q176 56 114 -88Q106 -106 84 -106Q66 -106 50 -95T34 -67Q34 -59 38 -51L63 3Q23 26 23 71ZM223 71Q223 103 245 125T299 148T353 126T376
72Q376 56 314 -88Q306 -106 284 -106Q266 -106 250 -95T234 -67Q234 -59 238 -51L263 3Q223 26 223 71Z" />
<glyph unicode="&#x2022;" glyph-name="bullet" horiz-adv-x="335" d="M26 300Q26 354 68 394T168 435Q224 435 266 395T309 300Q309 245 267 205T168 164Q111 164 69 204T26 300Z" />
<glyph unicode="&#x2039;" glyph-name="guilsinglleft" horiz-adv-x="287" d="M21 268T21 276T24 291T36 312L49 336L116 461Q126 480 158 480Q195 480 225 454T256 402Q256 394 253 388L194 277L253 166Q256 160 256 152Q256 127 226 101T158 74Q126 74 116 93L49
218Q44 228 36 241T24 261Z" />
<glyph unicode="&#x203a;" glyph-name="guilsinglright" horiz-adv-x="287" d="M31 152Q31 160 34 166L93 277L34 388Q31 394 31 402Q31 427 61 453T129 480Q162 480 171 461L238 336L249 316L258 301Q261 296 263 289T266 276Q266 268 263 261T252 241T238 218L171
93Q162 74 129 74Q92 74 62 100T31 152Z" />
</font>
</defs>
</svg>
