<?xml version="1.0" standalone="no"?>
<!DOCTYPE svg PUBLIC "-//W3C//DTD SVG 1.1//EN" "http://www.w3.org/Graphics/SVG/1.1/DTD/svg11.dtd">
<svg xmlns="http://www.w3.org/2000/svg">
<defs >
<font id="Shrikhand" horiz-adv-x="847" ><font-face
    font-family="Shrikhand"
    units-per-em="1000"
    panose-1="2 0 0 0 0 0 0 0 0 0"
    ascent="1026"
    descent="-432"
    alphabetic="0" />
<glyph unicode=" " glyph-name="space" horiz-adv-x="200" />
<glyph unicode="!" glyph-name="exclam" horiz-adv-x="361" d="M148 743T292 743Q347 743 377 719T408 652Q408 608 377 552L220 272Q208 249 196 240T165 230Q126 230 128 277L141 594Q148 743 292 743ZM178 202T205 175T233 109Q233 82 219 56T179 14T121 -3Q82
-3 55 24T27 90Q27 117 41 143T80 185T138 202Q178 202 205 175Z" />
<glyph unicode="&quot;" glyph-name="quotedbl" horiz-adv-x="426" d="M132 697T146 710T191 724H264Q285 724 297 714T310 689Q310 675 298 655L220 522Q209 504 197 498T167 491H132Q117 491 109 499T104 523L127 664Q132 697 146 710ZM342 697T356 710T401
724H474Q495 724 507 714T520 689Q520 675 508 655L430 522Q419 504 407 498T377 491H342Q327 491 319 499T314 523L337 664Q342 697 356 710Z" />
<glyph unicode="#" glyph-name="numbersign" horiz-adv-x="584" d="M562 511T573 502T585 477Q585 474 583 464Q577 442 559 433T511 423H483L427 256H456Q478 256 489 247T501 222Q501 218 499 210Q487 168 427 168H398L375 99Q366 70 352 58T320 45Q300 45 289
54T278 81Q278 90 283 107L303 168H210L187 99Q177 70 164 58T133 45Q112 45 101 54T90 81Q90 89 95 106L116 168H88Q66 168 55 177T43 202Q43 205 45 215Q51 237 69 246T117 256H145L201 423H172Q150 423 139 432T127 457Q127 461 129 469Q141 511 201 511H230L253
580Q263 609 276 621T308 634Q350 634 350 599Q350 590 345 573L324 511H418L441 580Q458 634 495 634Q515 634 526 625T538 598Q538 588 533 573L512 511H540Q562 511 573 502ZM389 423H295L239 256H333L389 423Z" />
<glyph unicode="$" glyph-name="dollar" horiz-adv-x="655" d="M233 -114T220 -102T206 -67Q206 -56 209 -44L225 18Q187 34 146 66L110 36Q85 15 69 8T33 0Q10 0 -3 11T-17 41Q-17 51 -13 62L36 211Q44 237 58 248T94 259Q117 259 135 243T184 185Q222 131 253
116L287 241Q279 246 228 277T147 353T117 449Q117 483 128 519Q149 588 214 630T363 672L405 670L421 730Q429 757 443 768T482 779Q502 779 512 768T523 736Q523 722 519 710L501 646Q516 644 563 616L586 635Q610 654 625 661T661 668Q685 668 699 658T713 627Q713
619 710 610L668 472Q661 448 651 438T619 428Q597 428 581 441T529 497Q509 520 498 531T474 549L442 432Q450 427 504 395T590 318T622 221Q622 190 612 159Q588 79 519 38T358 -4H322L305 -64Q297 -90 286 -102T256 -114Q233 -114 220 -102ZM380 579Q347 581
325 567T303 526Q303 509 314 494T348 468L380 579ZM347 91Q380 89 402 103T424 144Q424 161 413 176T379 202L347 91Z" />
<glyph unicode="%" glyph-name="percent" horiz-adv-x="1316" d="M1269 401T1269 250Q1269 226 1263 199Q1240 91 1166 44T966 -3Q730 -3 730 148Q730 172 736 199Q760 307 834 354T1032 401Q1269 401 1269 250ZM1002 341T983 312T948 199Q937 141 937 106Q937
77 945 67T970 56Q998 56 1017 86T1051 199Q1063 262 1063 293Q1063 320 1055 330T1030 341Q1002 341 983 312ZM913 724T927 731T962 739Q981 739 991 731T1002 709Q1002 694 989 677L456 -41Q444 -58 430 -65T395 -73Q376 -73 366 -65T355 -43Q355 -28 368 -11L901
707Q913 724 927 731ZM629 674T629 523Q629 499 623 472Q600 364 526 317T326 270Q90 270 90 421Q90 445 96 472Q120 580 194 627T392 674Q629 674 629 523ZM362 614T343 585T308 472Q297 414 297 379Q297 350 305 340T330 329Q358 329 377 359T411 472Q423 535
423 566Q423 593 415 603T390 614Q362 614 343 585Z" />
<glyph unicode="&amp;" glyph-name="ampersand" horiz-adv-x="819" d="M776 443T812 418T849 347Q849 288 811 264T730 240Q715 240 707 246T691 267Q683 280 677 285T658 291Q657 291 648 291T622 277L601 258L653 206Q681 178 695 146T710 82Q710 62 704 44Q686
-22 623 -61T473 -101Q416 -101 367 -88T317 -49Q317 -46 319 -40Q322 -31 332 -26T352 -20L388 -22Q414 -22 432 -8T451 31Q451 57 417 96L409 89Q354 41 304 20T184 -2Q85 -2 31 37T-24 139Q-24 160 -16 186Q7 258 72 289T217 320L189 351Q154 390 154 446Q154
501 185 543T278 608T426 632Q507 632 555 599T604 514Q604 470 572 435T480 379L536 323L606 385Q641 416 671 429T733 443Q776 443 812 418ZM408 547T395 535T381 502Q381 478 404 456L421 439Q443 448 458 464T478 499Q479 502 479 508Q479 524 466 535T432
547Q408 547 395 535ZM222 183T222 178Q222 158 236 147T276 135Q309 135 354 166L282 247Q258 238 243 224T224 195Q222 183 222 178Z" />
<glyph unicode="&apos;" glyph-name="quotesingle" horiz-adv-x="259" d="M164 697T178 710T223 724H296Q317 724 329 714T342 689Q342 675 330 655L252 522Q241 504 229 498T199 491H164Q149 491 141 499T136 523L159 664Q164 697 178 710Z" />
<glyph unicode="(" glyph-name="parenleft" horiz-adv-x="473" d="M72 301T72 251Q72 126 129 25T263 -135T392 -193Q419 -193 425 -176Q426 -173 426 -168Q426 -159 420 -147T400 -111Q365 -54 343 7T321 157Q321 239 343 330Q371 445 418 521T511 638T616 715Q644
732 658 742T675 765Q676 768 676 774Q676 790 660 798T616 807Q533 807 418 754T207 598T82 351Q72 301 72 251Z" />
<glyph unicode=")" glyph-name="parenright" horiz-adv-x="517" d="M448 313T448 363Q448 488 391 589T257 749T128 807Q101 807 95 790Q94 787 94 782Q94 773 100 761T120 725Q155 668 177 607T199 457Q199 375 177 284Q149 169 102 93T9 -24T-96 -101Q-124 -118
-138 -128T-155 -151Q-156 -154 -156 -160Q-156 -176 -140 -184T-96 -193Q-13 -193 102 -140T313 16T438 263Q448 313 448 363Z" />
<glyph unicode="*" glyph-name="asterisk" horiz-adv-x="414" d="M467 588T434 575T353 561Q416 538 416 494Q416 485 413 474Q406 450 389 439T350 427Q320 427 303 455T283 527Q263 479 236 453T181 427Q163 427 150 440T136 474Q136 508 161 528T225 561Q176
561 150 578T124 621Q124 629 127 638Q133 659 150 670T190 681Q213 681 229 670T262 634Q261 639 258 654T255 684Q255 719 274 742T325 766Q346 766 359 753T372 716Q372 702 368 690Q365 680 356 663T339 633Q365 657 387 669T431 681Q454 681 466 667T478 633Q478
623 475 614Q467 588 434 575Z" />
<glyph unicode="+" glyph-name="plus" horiz-adv-x="657" d="M621 394T621 356Q621 352 619 340Q602 286 544 286H391L356 155Q349 127 332 113T291 99Q268 99 255 111T241 146Q241 157 244 169L276 286H128Q104 286 92 295T79 322Q79 330 82 340Q89 366 108 380T156
394H305L340 525Q347 553 364 567T404 581Q427 581 440 569T454 534Q454 523 451 511L420 394H572Q621 394 621 356Z" />
<glyph unicode="," glyph-name="comma" horiz-adv-x="291" d="M142 202T173 170T204 85Q204 22 168 -33T79 -121T-16 -154Q-49 -154 -49 -131Q-49 -118 -38 -106T-6 -78Q16 -61 28 -48T40 -19Q40 -7 24 13Q9 33 2 49T-6 90Q-6 136 23 169T96 202Q142 202 173 170Z" />
<glyph unicode="-" glyph-name="hyphen" horiz-adv-x="569" d="M132 381T154 397T208 413H441Q496 413 496 370Q496 359 494 352Q475 291 410 291H177Q150 291 136 301T122 332Q122 342 125 352Q132 381 154 397Z" />
<glyph unicode="." glyph-name="period" horiz-adv-x="297" d="M159 202T186 175T214 109Q214 82 200 56T160 14T102 -3Q63 -3 36 24T8 90Q8 117 22 143T61 185T119 202Q159 202 186 175Z" />
<glyph unicode="/" glyph-name="slash" horiz-adv-x="450" d="M76 -35Q63 -55 50 -64T23 -73Q2 -73 -10 -62T-22 -33Q-22 -19 -13 -5L449 701Q473 739 504 739Q524 739 535 727T547 698Q547 683 538 669L76 -35Z" />
<glyph unicode="0" glyph-name="zero" horiz-adv-x="711" d="M737 668T737 459Q737 401 717 331Q666 151 563 73T300 -6Q28 -6 28 202Q28 261 48 331Q99 511 202 589T464 668Q737 668 737 459ZM430 576T410 556T367 483T317 331Q279 192 279 135Q279 107 287 96T313
85Q336 85 356 105T399 179T448 331Q487 474 487 527Q487 554 479 565T453 576Q430 576 410 556Z" />
<glyph unicode="1" glyph-name="one" horiz-adv-x="452" d="M410 670T427 670Q448 670 460 658T472 621Q472 605 466 582L335 123Q333 118 333 108Q333 94 341 86T365 69Q380 60 386 54T392 37Q392 30 391 27Q386 12 370 6T316 0H15Q-6 0 -16 8T-26 30Q-26 36
-25 39Q-21 51 -11 57T21 72Q47 81 62 92T84 125L188 493Q190 499 190 508Q190 523 181 533T156 554Q141 565 134 572T127 591Q127 595 129 601Q131 612 141 618T173 628L384 665Q410 670 427 670Z" />
<glyph unicode="2" glyph-name="two" horiz-adv-x="710" d="M495 666T568 638T680 563T719 465Q719 446 713 426Q699 384 666 360T565 317T356 270Q271 254 229 242T170 215T151 179H439Q499 179 530 195T588 238Q600 251 607 256T625 262Q643 262 658 238T673
175Q673 150 664 118Q644 54 592 27T435 0H82Q50 0 31 27T11 100Q11 134 23 174Q44 243 100 285T258 357Q326 377 363 396T416 435T441 484Q446 504 446 517Q446 545 429 562T383 579Q375 579 355 575Q356 569 356 557Q356 489 315 455T212 421Q166 421 139 445T112
510Q112 530 117 546Q135 605 208 635T395 666Q495 666 568 638Z" />
<glyph unicode="3" glyph-name="three" horiz-adv-x="722" d="M730 383T693 356T591 318Q646 296 672 267T698 197Q698 175 691 151Q669 80 575 38T344 -5Q234 -5 160 16T50 74T14 157Q14 176 20 194Q33 237 67 255T148 274Q209 274 247 247T285 177Q285 160 280
140T264 106Q290 95 329 95Q367 95 393 115T429 174Q435 194 435 211Q435 246 414 266T358 287Q301 287 301 321Q301 325 303 335Q310 355 322 365T358 375H387Q422 376 446 398T483 459Q489 483 489 500Q489 538 468 556T418 575Q397 575 380 571Q383 555 383
538Q383 523 380 508Q370 470 336 446T244 422Q185 422 153 446T120 512Q120 529 126 548Q142 602 215 634T432 666Q523 666 596 642T710 576T752 479Q752 459 746 438Q730 383 693 356Z" />
<glyph unicode="4" glyph-name="four" horiz-adv-x="786" d="M753 272T769 262T785 236Q785 233 783 225Q772 179 700 179H655L638 118Q634 105 634 92Q634 80 637 73T647 55Q656 42 656 33Q656 15 642 8T595 0H365Q339 0 327 10T318 37Q321 46 326 50T343 63Q359
73 369 84T387 118L404 177Q315 174 217 162Q131 153 89 153Q61 153 44 166T27 201Q27 227 44 245T96 288Q132 314 152 334T181 384Q185 396 185 411Q185 432 178 451T154 501Q140 527 133 545T125 581Q125 593 128 603Q138 634 166 650T234 666Q282 666 326 640T399
570T427 474Q427 452 421 428Q403 365 349 325T179 245Q324 267 430 270L514 566Q524 601 544 614T603 628H711Q738 628 752 617T766 584Q766 571 762 559L681 272H727Q753 272 769 262Z" />
<glyph unicode="5" glyph-name="five" horiz-adv-x="676" d="M683 675T697 652T712 590Q712 565 707 545Q693 481 654 451T539 421Q501 421 466 430T382 458Q348 471 325 477T282 484Q249 484 237 445L212 354Q294 387 388 387Q457 387 516 367T612 308T649 213Q649
197 644 174Q625 92 539 43T309 -6Q198 -6 129 14T28 65T-3 135Q-3 151 1 164Q11 198 38 216T110 235Q159 235 186 212T214 152Q214 122 194 87Q222 82 241 82Q295 82 329 108T376 181Q382 204 382 221Q382 255 361 273T302 292Q275 292 240 281Q202 269 170 269H137Q100
269 100 302Q100 312 105 330L173 561Q186 606 212 623T289 640Q327 640 374 637Q392 636 427 635T488 634Q551 634 583 643T642 666Q660 675 667 675Q683 675 697 652Z" />
<glyph unicode="6" glyph-name="six" horiz-adv-x="723" d="M563 428T529 454T495 523Q495 552 511 584Q495 586 487 586Q433 586 396 541T331 396Q384 420 447 420Q522 420 580 397T670 333T702 236Q702 215 696 191Q674 99 591 46T357 -7Q210 -7 133 60T55 250Q55
315 78 396Q119 537 217 605T461 673Q550 673 613 655T709 606T743 536Q743 490 714 459T620 428Q563 428 529 454ZM361 321T338 290T302 200Q296 173 296 151Q296 119 307 101T339 83Q364 83 385 114T422 200Q429 228 429 253Q429 284 418 302T389 321Q361 321
338 290Z" />
<glyph unicode="7" glyph-name="seven" horiz-adv-x="650" d="M668 636T696 613T725 554Q725 539 721 527Q714 501 697 481T642 433Q576 382 538 322T459 149Q428 62 389 27T291 -8Q235 -8 197 28T159 120Q159 141 165 163Q179 212 216 254T335 345T556 454H253Q233
454 218 448T188 427L166 406Q147 388 135 382T107 375Q67 375 67 404Q67 409 71 425L129 629Q142 671 173 671Q185 671 193 668T212 655Q225 645 237 641T267 636H615Q668 636 696 613Z" />
<glyph unicode="8" glyph-name="eight" horiz-adv-x="720" d="M526 666T599 643T708 581T744 497Q744 481 740 468Q726 418 680 391T551 356Q610 321 644 284T678 198Q678 184 673 162Q651 81 570 37T327 -8Q230 -8 160 12T54 70T17 158Q17 178 23 199Q51 302
232 334Q177 374 147 412T116 496Q116 509 121 529Q140 597 215 631T419 666Q526 666 599 643ZM354 525T354 516Q354 490 375 468T438 420Q470 445 484 493Q488 505 488 518Q488 546 469 562T423 579Q396 579 380 568T357 534Q354 525 354 516ZM402 153T402 164Q402
191 382 216T324 269Q272 240 256 183Q252 167 252 152Q252 119 271 102T319 85Q383 85 400 147Q402 153 402 164Z" />
<glyph unicode="9" glyph-name="nine" horiz-adv-x="735" d="M583 673T661 606T740 415Q740 351 717 270Q678 130 574 62T321 -7Q229 -7 161 15T56 74T19 152Q19 163 22 175Q31 213 60 232T133 251Q191 251 225 221T259 144Q259 116 248 91Q273 81 308 81Q362
81 400 126T464 270Q416 247 352 246Q277 246 219 269T128 333T95 428Q95 451 101 475Q123 566 206 619T433 673Q583 673 661 606ZM436 347T455 374T490 465Q499 501 499 525Q499 584 450 584Q417 584 400 558T364 465Q354 429 354 403Q354 347 403 347Q436 347
455 374Z" />
<glyph unicode=":" glyph-name="colon" horiz-adv-x="353" d="M290 528T317 501T344 435Q344 408 330 382T290 340T232 323Q192 323 166 350T139 417Q139 444 153 469T192 511T250 528Q290 528 317 501ZM187 202T214 175T242 109Q242 82 228 56T188 14T130 -3Q91
-3 64 24T36 90Q36 117 50 143T89 185T147 202Q187 202 214 175Z" />
<glyph unicode=";" glyph-name="semicolon" horiz-adv-x="353" d="M290 528T317 501T344 435Q344 408 330 382T290 340T232 323Q192 323 166 350T139 417Q139 444 153 469T192 511T250 528Q290 528 317 501ZM188 202T213 176T238 107Q238 53 206 2T128 -80T47
-112Q26 -112 26 -98Q26 -92 34 -82T52 -62Q84 -30 85 -14Q85 -6 71 10Q56 26 48 42T39 86Q39 113 53 140T92 184T149 202Q188 202 213 176Z" />
<glyph unicode="&lt;" glyph-name="less" horiz-adv-x="690" d="M607 556T623 556Q650 556 664 540T679 502Q679 494 678 490Q671 463 654 449T600 421L283 314L543 213Q572 202 587 185T602 145Q602 135 599 126Q588 87 548 87Q530 87 502 98L94 267Q57 283 57
313Q57 318 59 326Q63 346 76 357T115 378L585 548Q607 556 623 556Z" />
<glyph unicode="=" glyph-name="equal" horiz-adv-x="700" d="M113 459T135 475T189 491H632Q687 491 687 448Q687 437 685 430Q666 369 601 369H158Q131 369 117 379T103 410Q103 420 106 430Q113 459 135 475ZM57 239T79 255T133 271H576Q631 271 631 228Q631
217 629 210Q610 149 545 149H102Q75 149 61 159T47 190Q47 200 50 210Q57 239 79 255Z" />
<glyph unicode="&gt;" glyph-name="greater" horiz-adv-x="690" d="M669 360T669 330Q669 325 667 317Q663 297 650 286T611 265L141 95Q119 87 103 87Q76 87 62 103T47 141Q47 149 48 153Q55 180 72 194T126 222L443 329L183 430Q154 441 139 458T124 498Q124
508 127 517Q138 556 178 556Q196 556 224 545L632 376Q669 360 669 330Z" />
<glyph unicode="?" glyph-name="question" horiz-adv-x="682" d="M378 227T377 220Q374 210 360 204T330 197Q283 197 254 220T224 281Q224 295 228 307Q237 339 262 359T338 409Q392 439 421 464T461 529Q464 543 464 555Q464 589 441 607T392 625Q364 625 343
617Q354 588 354 556Q354 541 351 529Q340 491 311 470T237 449Q183 449 150 478T117 554Q117 570 121 585Q136 649 210 683T399 718Q496 718 569 687T681 605T720 494Q720 476 715 454Q703 405 674 376T588 327T431 290Q393 283 379 277T361 261L360 257Q360 251
368 239Q378 227 377 220ZM328 174T355 152T382 96Q383 72 369 49T328 12T270 -3Q229 -3 203 20T176 78Q176 101 190 123T230 159T288 174Q328 174 355 152Z" />
<glyph unicode="@" glyph-name="at" horiz-adv-x="1065" d="M754 647T849 608T992 499T1041 344Q1041 296 1026 245Q998 155 921 101T739 47Q686 47 641 65T575 115Q545 82 503 65T417 47Q348 47 299 81T241 179Q239 190 239 212Q239 287 284 348T410 444T591
479Q713 479 775 442T838 339Q838 315 829 286L793 170L791 158Q791 141 809 141Q827 141 850 155T893 197T926 263Q939 302 939 339Q939 408 896 457T778 531T610 557Q437 557 315 483T156 269Q147 229 147 193Q147 89 217 31T401 -27Q445 -27 506 -18Q540 -14
547 -14Q557 -14 562 -18T568 -31Q568 -48 542 -67T469 -100T363 -113Q277 -113 204 -78T86 24T42 183Q42 244 63 314Q95 419 175 494T369 608T620 647Q754 647 849 608ZM569 400T546 369T509 293T495 216Q495 206 497 196Q500 186 508 180T528 173Q540 173 547
179T560 202L616 384Q617 386 617 389Q617 400 599 400Q569 400 546 369Z" />
<glyph unicode="A" glyph-name="A" horiz-adv-x="698" d="M611 118Q607 105 607 92Q607 81 610 74T616 62T621 55Q631 45 631 35Q631 33 629 25Q625 11 612 6T570 0H333Q312 0 301 7T289 26Q289 32 292 39Q295 47 300 51T316 62Q332 71 342 82T359 118L385 204H229L202
147Q185 110 185 89Q185 77 189 70T201 54Q208 46 210 41T211 26Q207 11 195 6T155 0H6Q-17 0 -29 8T-41 31Q-41 47 -30 56T5 77Q35 92 53 106T84 147L262 516Q303 602 358 640T505 679Q607 679 663 638T719 522Q719 491 709 458L611 118ZM415 304L468 480Q472
492 472 505Q472 524 462 533T432 543Q408 543 391 529T357 479L275 304H415Z" />
<glyph unicode="B" glyph-name="B" horiz-adv-x="761" d="M635 666T685 646T762 590T789 508Q789 482 782 460Q753 359 615 332Q663 318 691 286T719 205Q719 183 711 153Q689 75 623 38T434 0H18Q-3 0 -14 7T-26 26Q-26 32 -23 39Q-19 50 -10 56T1 63Q17 73 27
83T44 118L166 549Q170 562 170 574Q170 585 167 592T157 610Q148 623 148 631Q148 634 150 642Q154 655 167 660T209 666H567Q635 666 685 646ZM529 505T529 524Q529 576 470 576H425L372 389H416Q458 389 482 409T522 483Q529 505 529 524ZM456 213T456 233Q456
287 394 287H344L287 90H338Q381 90 407 111T449 189Q456 213 456 233Z" />
<glyph unicode="C" glyph-name="C" horiz-adv-x="692" d="M264 -6T197 25T91 116T51 263Q51 323 72 393Q118 543 211 609T410 676Q467 676 511 659T592 610L619 631Q646 652 664 660T706 668Q731 668 746 657T761 625Q761 614 757 603L701 447Q692 420 680 409T642
398Q616 398 600 416T562 480Q538 527 523 542T479 557Q438 557 400 507T331 355Q305 270 305 213Q305 163 324 139T375 114Q422 114 452 135T515 192Q535 214 547 224T574 235Q592 235 612 217T631 181Q632 159 596 113T495 31T348 -6Q264 -6 197 25Z" />
<glyph unicode="D" glyph-name="D" horiz-adv-x="772" d="M629 666T705 609T781 440Q781 385 761 313Q728 197 672 129T525 30T290 0L18 1Q-3 1 -14 8T-26 27Q-26 33 -23 40Q-20 49 -15 53T2 64Q18 73 27 84T44 119L166 549Q170 562 170 574Q170 585 167 592T157
610Q148 623 148 631Q148 634 150 642Q154 655 167 660T209 666H479Q629 666 705 609ZM531 429T531 483Q531 536 509 556T446 576H424L289 90H313Q359 90 390 109T449 181T505 335Q531 429 531 483Z" />
<glyph unicode="E" glyph-name="E" horiz-adv-x="671" d="M690 666T710 650T731 606Q731 592 727 579L701 486Q694 459 681 449T642 438Q618 438 605 448T584 483L568 540Q563 558 556 564T529 570H424L374 392H418Q425 392 437 402L471 432Q486 445 497 451T524
457Q542 457 553 448T565 423Q565 419 563 411L522 272Q516 250 502 240T470 229Q442 229 428 258L411 293Q404 308 389 308H350L291 96H379Q398 96 412 103T444 130L504 196Q520 213 534 220T570 228Q592 228 606 218T620 188Q620 180 617 169L588 68Q577 30 556
15T495 0H18Q-3 0 -14 7T-26 26Q-26 32 -23 39Q-19 50 -10 56T1 63Q17 73 27 83T44 118L167 549Q171 562 171 573Q171 585 168 593T157 610Q148 623 148 631Q148 634 150 642Q154 655 168 660T209 666H653Q690 666 710 650Z" />
<glyph unicode="F" glyph-name="F" horiz-adv-x="631" d="M689 666T709 650T730 606Q730 592 726 579L700 486Q693 460 677 449T635 438Q610 438 595 448T573 483L557 540Q553 555 547 560T522 565H422L366 367H385Q399 367 409 371T432 386L463 412Q480 427 493
433T522 440Q541 440 553 429T566 398Q566 390 563 379L519 227Q504 178 465 178Q433 178 415 211L397 245Q390 259 384 263T366 267H337L295 118Q293 112 293 102Q293 88 299 79T319 60Q330 51 334 46T338 32Q338 14 322 7T275 0H24Q-2 0 -15 9T-24 36Q-22 45
-17 50T0 63Q17 73 27 84T43 118L166 549Q170 562 170 573Q170 585 167 593T156 610Q147 623 147 631Q147 634 149 642Q153 655 167 660T208 666H652Q689 666 709 650Z" />
<glyph unicode="G" glyph-name="G" horiz-adv-x="757" d="M229 -6T175 23T88 110T56 248Q56 309 77 384Q123 544 221 610T432 676Q534 676 616 602L646 631Q671 652 689 660T731 668Q757 668 773 656T789 622Q789 614 786 603L750 477Q740 445 727 432T690 419Q666
419 648 431T605 474Q573 516 549 533T495 551Q450 551 410 506T339 354Q320 285 320 235Q320 182 340 155T398 127Q430 127 447 142T475 194L482 219Q487 239 487 246Q487 258 482 263T463 274L428 287Q405 296 405 320Q405 327 406 331Q410 344 420 350T453 356L755
355Q788 355 788 334Q788 330 786 322Q782 307 773 298T747 280L721 265Q711 259 706 254T699 240L646 55Q636 22 624 11T593 0H551Q527 0 512 10T486 49L476 78Q404 -6 296 -6Q229 -6 175 23Z" />
<glyph unicode="H" glyph-name="H" horiz-adv-x="834" d="M895 666T906 659T918 641Q918 636 915 628Q912 621 907 616T897 608T890 603Q874 594 864 583T847 549L724 118Q720 105 720 93Q720 81 723 74T734 56Q735 55 739 49T744 35Q744 33 742 25Q737 11 723
6T681 0H446Q425 0 414 7T402 26Q402 32 405 39Q409 47 416 52T430 62Q446 71 456 82T473 118L521 285H344L296 118Q292 105 292 93Q292 81 295 74T306 56Q307 55 311 49T316 35Q316 33 314 25Q309 11 295 6T253 0H18Q-3 0 -14 7T-26 26Q-26 32 -23 39Q-19 47 -12
52T2 62Q18 71 28 82T45 118L168 549Q172 562 172 574Q172 585 169 592T159 610Q155 615 152 620T149 632Q149 634 151 642Q155 655 169 660T211 666H446Q467 666 478 659T490 641Q490 636 487 628Q484 621 479 616T469 608T462 603Q446 594 436 583T419 549L372
385H549L596 549Q600 562 600 574Q600 585 597 592T587 610Q583 615 580 620T577 632Q577 634 579 642Q583 655 597 660T639 666H874Q895 666 906 659Z" />
<glyph unicode="I" glyph-name="I" horiz-adv-x="404" d="M465 666T476 660T488 641Q488 636 485 628Q482 621 477 616T467 608T460 603Q444 594 434 583T417 549L296 118Q292 105 292 93Q292 81 295 73T306 56Q315 43 315 35Q315 33 313 25Q309 11 295 6T253
0H18Q-3 0 -14 7T-26 26Q-26 32 -23 39Q-19 50 -10 56T1 63Q17 73 27 83T44 118L166 549Q170 562 170 574Q170 585 167 592T157 610Q148 623 148 631Q148 634 150 642Q154 655 167 660T209 666H444Q465 666 476 660Z" />
<glyph unicode="J" glyph-name="J" horiz-adv-x="590" d="M351 540Q353 546 353 556Q353 572 345 582T318 604Q303 615 297 623T293 642Q296 656 308 661T346 666H630Q651 666 662 659T674 641Q674 636 671 628Q668 621 663 616T653 608T646 603Q630 594 620 583T603
549L505 203Q475 97 403 46T216 -6Q139 -6 86 16T5 77T-22 160Q-22 182 -16 203Q-3 248 28 271T99 294Q144 294 168 267T192 198Q192 177 186 156Q174 114 141 94Q157 84 178 84Q199 84 215 105T242 164L351 540Z" />
<glyph unicode="K" glyph-name="K" horiz-adv-x="787" d="M774 670T802 643T830 570Q830 518 799 486T725 454Q697 454 677 464T639 496L553 424L650 137Q659 112 669 97T695 67Q706 56 710 50T715 34Q715 18 701 9T650 0H519Q470 0 447 21T408 93L358 261L329
237L296 118Q292 105 292 93Q292 81 295 73T306 56Q315 43 315 35Q315 33 313 25Q309 11 295 6T253 0H18Q-3 0 -14 7T-26 26Q-26 32 -23 39Q-19 50 -10 56T1 63Q17 73 27 83T44 118L166 549Q170 562 170 574Q170 585 167 592T157 610Q148 623 148 631Q148 634 150
642Q154 655 167 660T209 666H444Q465 666 476 660T488 641Q488 636 485 628Q482 621 477 616T467 608T460 603Q444 594 434 583T417 549L375 400L640 629Q666 651 687 660T732 670Q774 670 802 643Z" />
<glyph unicode="L" glyph-name="L" horiz-adv-x="651" d="M601 258T615 247T630 214Q630 205 627 194L594 77Q581 34 558 17T488 0H18Q-3 0 -14 7T-26 26Q-26 32 -23 39Q-20 47 -13 52T2 63Q18 73 28 83T45 118L167 549Q171 562 171 574Q171 585 168 592T158 610Q149
623 149 631Q149 634 151 642Q155 655 168 660T210 666H445Q466 666 477 660T489 641Q489 636 486 628Q483 621 478 616T468 608T461 603Q445 594 435 583T418 549L289 96H351Q374 96 390 104T425 134L494 216Q513 238 530 248T573 258Q601 258 615 247Z" />
<glyph unicode="M" glyph-name="M" horiz-adv-x="1035" d="M1095 666T1106 660T1118 641Q1118 636 1115 628Q1112 619 1107 615T1090 603Q1074 594 1065 583T1048 549L926 119Q922 106 922 94Q922 83 925 76T935 58Q939 53 942 48T945 36Q945 34 943 26Q939 13
925 7T883 1H648Q627 1 616 8T604 27Q604 33 607 40Q610 47 615 52T625 60T632 65Q648 74 658 85T675 119L751 389L492 68Q460 29 441 15T396 0Q372 0 359 15T334 68L240 377L166 118Q162 105 162 93Q162 81 165 73T176 56Q185 43 185 35Q185 33 183 25Q179 11
165 6T123 0H40Q19 0 8 7T-4 26Q-4 32 -1 39Q3 50 12 56T23 63Q39 73 49 83T66 118L188 550L172 603Q167 618 167 632Q167 650 178 658T214 666H369Q399 666 413 653T437 608L537 276L808 613Q834 645 859 655T925 666H1074Q1095 666 1106 660Z" />
<glyph unicode="N" glyph-name="N" horiz-adv-x="727" d="M820 666T820 640Q820 633 819 630Q816 620 810 615T793 602Q778 593 768 582T751 548L627 104Q610 44 585 20T514 -4Q474 -4 448 19T398 92L247 410L163 118Q160 105 160 95Q160 82 164 74T177 56Q188
43 188 34Q188 28 187 25Q183 11 169 6T127 0H18Q-23 0 -23 26Q-23 33 -22 36Q-19 46 -13 51T4 64Q19 73 29 84T46 118L173 567L157 600Q147 620 147 635Q147 666 187 666H335Q367 666 383 652T419 600L565 307L634 548Q637 562 637 571Q637 584 633 592T620 610Q609
623 609 632Q609 638 610 641Q614 655 628 660T670 666H779Q820 666 820 640Z" />
<glyph unicode="O" glyph-name="O" horiz-adv-x="733" d="M613 681T684 622T755 450Q755 397 739 336Q709 224 646 146T496 28T307 -12Q182 -12 111 47T40 219Q40 270 57 336Q86 447 148 524T297 641T487 681Q613 681 684 622ZM439 583T415 559T368 481T317 329Q277
189 277 136Q277 105 288 91T323 77Q353 77 377 101T424 180T475 329Q514 467 514 523Q514 555 503 569T469 583Q439 583 415 559Z" />
<glyph unicode="P" glyph-name="P" horiz-adv-x="683" d="M645 666T702 620T760 498Q760 468 751 435Q723 335 641 287T432 239H329L295 118Q293 112 293 102Q293 88 299 79T319 58Q330 48 334 43T338 31Q338 14 322 7T275 0H24Q-2 0 -15 9T-24 36Q-22 45 -17
50T0 63Q17 73 27 84T43 118L165 549Q169 562 169 574Q169 585 166 592T156 610Q147 623 147 631Q147 634 149 642Q153 655 166 660T208 666H539Q645 666 702 620ZM524 490T524 518Q524 576 470 576H425L354 329H398Q440 329 466 355T513 453Q524 490 524 518Z"
/>
<glyph unicode="Q" glyph-name="Q" horiz-adv-x="733" d="M702 196T613 110T403 -2Q442 -32 490 -32Q515 -32 534 -23T573 2Q575 4 584 10T600 17Q609 17 616 -3T624 -54Q624 -84 616 -111Q601 -163 563 -192T466 -221Q342 -221 292 -70L272 -11Q163 -3 102 56T40
220Q40 271 57 336Q86 447 148 524T297 641T487 681Q613 681 684 622T755 450Q755 397 739 336Q702 196 613 110ZM514 467T514 523Q514 555 503 569T469 583Q439 583 415 559T368 481T317 329Q277 189 277 136Q277 105 288 91T323 77Q353 77 377 101T424 180T475
329Q514 467 514 523Z" />
<glyph unicode="R" glyph-name="R" horiz-adv-x="759" d="M748 405T704 373T593 332Q641 328 665 304T689 241Q689 226 684 204L673 155Q671 145 671 141Q671 128 677 122T694 115Q715 115 724 109T731 87Q727 64 707 42T651 6T562 -9Q496 -9 457 20T418 105Q418
126 424 150L440 214Q444 227 444 241Q444 264 429 274T379 284H341L295 118Q293 112 293 103Q293 89 300 79T319 58Q328 51 333 45T338 31Q338 14 322 7T275 0H24Q-2 0 -15 9T-24 36Q-22 45 -17 50T0 63Q17 73 27 84T43 118L165 549Q169 562 169 574Q169 585 166
592T156 610Q147 623 147 631Q147 634 149 642Q153 655 166 660T208 666H543Q612 666 663 645T742 588T770 505Q770 484 764 463Q748 405 704 373ZM513 496T513 508Q513 561 455 561H413L369 384H411Q450 384 472 403T508 473Q513 496 513 508Z" />
<glyph unicode="S" glyph-name="S" horiz-adv-x="689" d="M430 672T477 659T574 616L597 635Q621 654 636 661T672 668Q696 668 710 658T724 627Q724 619 721 610L679 472Q672 448 662 438T630 428Q608 428 592 441T540 497Q505 537 477 553T418 570Q396 570 381
556T366 520Q366 496 390 476T465 424Q517 393 551 368T609 306T633 221Q633 190 623 159Q599 79 530 38T369 -4Q300 -4 253 12T157 66L121 36Q96 15 80 8T44 0Q21 0 8 11T-6 41Q-6 51 -2 62L47 211Q55 237 69 248T105 259Q128 259 146 243T195 185Q227 139 254
121T320 103Q347 103 361 111T382 139Q384 144 384 154Q384 178 361 198T290 246Q239 277 207 301T152 363T128 450Q128 485 139 519Q160 588 225 630T374 672Q430 672 477 659Z" />
<glyph unicode="T" glyph-name="T" horiz-adv-x="759" d="M856 666T856 621Q856 607 850 586L826 505Q815 468 799 453T753 438Q728 438 715 451T689 492L672 533Q664 552 655 559T627 566H604L477 119Q474 106 474 96Q474 84 477 76T488 59Q497 45 497 36Q497
34 495 26Q490 13 476 7T434 1H199Q178 1 167 8T155 28Q155 34 158 40Q162 49 167 53T184 65Q199 74 209 85T226 119L352 566H329Q307 566 293 559T263 533L230 492Q207 465 186 452T139 438Q116 438 103 450T90 483Q90 493 93 505L119 596Q127 624 137 638T165
659T218 666H801Q856 666 856 621Z" />
<glyph unicode="U" glyph-name="U" horiz-adv-x="788" d="M630 600T664 635T760 670Q808 670 837 640T866 564Q866 549 861 529Q850 485 822 466T761 446Q744 446 731 448T705 455L646 238Q614 119 539 57T335 -6Q217 -6 152 39T86 179Q86 225 102 280L178 549Q182
562 182 574Q182 586 179 593T169 611Q160 624 160 632Q160 636 162 642Q166 655 180 660T221 666H456Q499 666 499 640Q499 634 498 630Q495 621 490 616T473 603Q457 594 447 583T430 549L343 243Q334 209 334 185Q334 118 406 118Q450 118 479 146T529 244L611
531Q630 600 664 635Z" />
<glyph unicode="V" glyph-name="V" horiz-adv-x="733" d="M851 534T836 508T796 469T748 455Q724 455 705 465T672 492L431 86Q404 40 381 20T329 0Q298 0 280 20T253 86L169 548Q166 566 158 577T137 601Q127 610 123 615T119 629Q114 666 163 666H413Q436 666
448 657T459 631Q459 622 456 616T444 601Q435 591 430 582T425 560Q425 554 426 550L464 317L597 553Q632 617 666 643T750 670Q796 670 823 644T851 570Q851 534 836 508Z" />
<glyph unicode="W" glyph-name="W" horiz-adv-x="1144" d="M1255 534T1238 508T1196 468T1146 454Q1123 454 1103 465T1076 492L833 86Q805 39 783 20T731 0Q664 0 655 86L623 380L421 86Q386 35 365 18T315 0Q254 0 241 96L177 548Q174 568 166 580T144 603Q135
611 131 616T127 629Q122 666 171 666H420Q443 666 454 657T465 631Q465 623 461 616T451 602Q440 590 435 579T432 550L458 309L608 524L605 548Q603 567 595 579T573 602Q563 611 559 616T555 629Q550 666 599 666H849Q872 666 884 657T895 631Q895 618 881 602Q871
590 866 579T862 550L874 332L1009 568Q1042 625 1073 647T1154 670Q1199 670 1227 643T1255 570Q1255 534 1238 508Z" />
<glyph unicode="X" glyph-name="X" horiz-adv-x="809" d="M879 666T891 658T903 635Q903 629 902 626Q899 613 890 607T861 592Q834 580 813 569T763 533L564 364L661 128Q671 104 683 91T714 66Q727 56 732 51T737 35Q737 17 725 9T685 0H416Q390 0 378 8T365
31Q365 37 366 40Q368 47 373 52T383 62Q391 69 395 75T399 92Q399 109 388 136L353 221L262 136Q234 111 234 91Q234 82 238 76T251 60Q260 51 264 43T266 26Q262 11 250 6T210 0H1Q-22 0 -34 8T-46 31Q-46 37 -45 40Q-42 53 -33 59T-4 74Q24 86 45 98T94 133L312
320L222 538Q212 562 200 575T169 600Q156 610 151 615T146 631Q146 649 158 657T198 666H467Q493 666 505 658T518 635Q518 629 517 626Q515 619 510 614T500 604Q492 597 488 591T484 574Q484 558 495 530L523 463L595 530Q624 556 624 575Q624 584 620 590T606
606Q604 608 599 614T591 627T591 640Q595 655 607 660T647 666H856Q879 666 891 658Z" />
<glyph unicode="Y" glyph-name="Y" horiz-adv-x="789" d="M842 670T870 642T898 569Q898 563 896 547Q888 499 859 476T790 453Q764 453 746 461T712 488L547 273L501 118Q499 112 499 102Q499 88 506 79T526 58Q537 48 542 41T544 25Q540 11 525 6T482 0H230Q204
0 192 9T183 36Q185 45 190 50T208 64Q223 73 233 84T250 118L296 274L204 536Q194 565 181 580T149 611Q138 619 133 625T128 639Q128 651 138 658T169 666H436Q471 666 484 660T498 639Q498 630 494 624T482 608Q473 596 469 589T464 570Q464 567 466 557L512
381L639 562Q680 620 716 645T798 670Q842 670 870 642Z" />
<glyph unicode="Z" glyph-name="Z" horiz-adv-x="734" d="M740 666T760 649T780 604Q780 566 743 529L309 96H427Q446 96 460 103T492 130L552 196Q568 213 582 220T618 228Q640 228 654 218T668 188Q668 180 665 169L636 68Q625 30 604 15T543 0H95Q52 0 31 17T9
65Q9 83 18 100T49 140L456 570H363Q344 570 330 563T298 536L238 470Q222 453 208 446T172 438Q150 438 136 448T122 478Q122 487 125 497L154 598Q165 636 186 651T247 666H707Q740 666 760 649Z" />
<glyph unicode="[" glyph-name="bracketleft" horiz-adv-x="522" d="M64 -169T48 -155T31 -116Q31 -102 35 -90L269 740Q285 799 348 799H594Q611 799 620 791T630 769Q630 759 628 754L624 739Q616 705 580 705H545Q509 705 500 671L302 -30Q300 -35 300 -44Q300
-58 309 -66T336 -75H347Q364 -75 373 -83T383 -105Q383 -115 381 -120L377 -135Q372 -153 362 -161T333 -169H95Q64 -169 48 -155Z" />
<glyph unicode="\" glyph-name="backslash" horiz-adv-x="552" d="M458 -11Q461 -20 461 -29Q461 -48 448 -60T413 -73Q374 -73 361 -32L135 677Q132 686 132 694Q132 714 146 726T182 739Q201 739 212 730T230 703L458 -11Z" />
<glyph unicode="]" glyph-name="bracketright" horiz-adv-x="523" d="M491 799T507 785T524 746Q524 732 520 720L286 -110Q270 -169 207 -169H-39Q-56 -169 -65 -161T-75 -139Q-75 -129 -73 -124L-69 -109Q-61 -75 -25 -75H10Q46 -75 55 -41L253 660Q255 665
255 674Q255 688 246 696T219 705H208Q191 705 182 713T172 735Q172 745 174 750L178 765Q183 783 193 791T222 799H460Q491 799 507 785Z" />
<glyph unicode="^" glyph-name="asciicircum" horiz-adv-x="615" d="M572 341T572 327Q572 297 556 279T513 260Q490 260 475 278T449 336L387 578L200 308Q170 265 135 265Q112 265 96 281T79 321Q79 325 81 335Q85 355 106 382L354 712Q372 735 386 745T418
755Q441 755 457 738T484 678L568 354Q572 341 572 327Z" />
<glyph unicode="_" glyph-name="underscore" horiz-adv-x="869" d="M-6 -53T16 -37T70 -21H663Q718 -21 718 -64Q718 -75 716 -82Q697 -143 632 -143H39Q12 -143 -2 -133T-16 -102Q-16 -93 -13 -82Q-6 -53 16 -37Z" />
<glyph unicode="`" glyph-name="grave" horiz-adv-x="258" d="M315 602Q319 591 319 581Q319 569 312 561T294 553Q282 553 271 557T246 573L188 618Q160 641 148 659T135 700Q135 727 152 744T201 761Q233 761 254 742T290 681L315 602Z" />
<glyph unicode="a" glyph-name="a" horiz-adv-x="654" d="M472 529T541 487T610 357Q610 324 598 282L557 144Q556 140 556 134Q556 118 569 118Q581 118 589 128T601 139Q606 139 609 132T613 116Q614 89 593 61T535 15T456 -3Q404 -3 367 16T316 72Q286 36 245
17T157 -3Q104 -3 68 17T15 70T-3 139Q-3 155 0 170Q16 239 69 274T197 309Q280 309 360 283L385 349Q398 391 398 414Q397 438 382 450T336 462Q342 446 342 429Q342 392 314 365T234 338Q185 338 158 359T130 413Q130 463 186 496T357 529Q472 529 541 487ZM273
226T256 205T238 158Q238 142 245 132T267 122Q280 122 295 132T318 164L339 223Q322 226 301 226Q273 226 256 205Z" />
<glyph unicode="b" glyph-name="b" horiz-adv-x="677" d="M584 533T628 480T673 340Q673 295 662 252Q630 123 553 57T374 -9Q317 -9 276 10T209 66L173 35Q152 17 132 9T86 0H42Q17 0 4 10T-10 41Q-10 50 -7 62L160 605Q163 614 163 620Q163 637 142 652Q132
661 128 666T127 681Q134 704 190 721T309 739Q367 739 394 717T422 656Q422 635 415 614L373 478Q431 533 510 533Q584 533 628 480ZM417 326T417 368Q417 414 390 414Q366 414 345 389L280 177L274 158V158Q269 143 269 127Q269 92 302 92Q326 92 348 127T397
258Q417 326 417 368Z" />
<glyph unicode="c" glyph-name="c" horiz-adv-x="542" d="M424 534T470 517T541 469T567 401Q567 361 540 335T465 309Q417 309 390 333T363 400Q363 420 369 442Q327 431 295 399T251 313Q245 283 245 259Q245 205 275 177T361 149Q393 149 416 155T463 173Q483
183 492 183Q498 183 500 181T502 170Q503 133 472 93T385 25T260 -3Q188 -3 133 23T47 99T16 215Q16 246 24 284Q51 408 143 471T363 534Q424 534 470 517Z" />
<glyph unicode="d" glyph-name="d" horiz-adv-x="655" d="M557 136T557 133Q557 126 561 122T571 118Q583 118 591 128T603 139Q608 139 611 132T614 116Q615 89 594 61T536 15T458 -3Q408 -3 371 16T320 66Q293 31 258 14T184 -3Q138 -3 99 20T36 85T12 182Q12
273 46 353T143 483T284 533Q327 533 357 523T413 493L447 605Q450 614 450 620Q450 631 445 638T430 652Q420 660 416 666T414 682Q420 705 477 722T596 739Q654 739 681 717T709 657Q709 635 702 614L559 144Q557 136 557 133ZM376 439T357 439Q328 439 300 396T255
292T239 182Q239 127 275 127Q288 127 297 137T314 172L392 425Q376 439 357 439Z" />
<glyph unicode="e" glyph-name="e" horiz-adv-x="560" d="M466 534T523 494T580 390Q580 371 576 355Q561 289 493 261T331 232Q284 232 243 238Q242 186 271 165T352 144Q376 144 398 149T454 166Q482 176 492 176Q503 176 503 163Q504 128 477 90T397 24T269
-3Q158 -3 87 53T16 216Q16 246 24 286Q49 409 133 471T339 534Q466 534 523 494ZM254 297T261 297Q303 297 325 336T346 423Q345 451 330 451Q319 451 304 434T275 381T250 298Q254 297 261 297Z" />
<glyph unicode="f" glyph-name="f" horiz-adv-x="416" d="M515 739T568 707T622 627Q622 589 591 569T508 548Q461 548 435 571T409 628Q409 649 422 672Q392 672 372 658T341 608Q335 586 335 567Q335 543 343 530T368 516H427Q479 516 479 484Q479 480 477 472Q471
450 453 439T397 428H367L268 104Q265 92 265 83Q265 70 270 63T284 48Q291 41 294 37T295 25Q290 12 275 6T229 0H1Q-25 0 -37 8T-45 31Q-41 43 -24 52Q-9 60 1 71T18 106L96 362Q101 377 101 393Q101 413 93 424T67 450Q56 459 51 465T45 481Q44 500 58 508T114
516H139Q132 541 132 566Q132 591 141 618Q160 669 222 704T408 739Q515 739 568 707Z" />
<glyph unicode="g" glyph-name="g" horiz-adv-x="635" d="M638 692T668 679T718 642T738 591Q738 532 658 532Q635 532 623 535T593 547Q590 540 590 527Q590 511 595 489T609 448Q630 417 630 374Q630 355 625 328Q613 276 573 233T469 166T329 141Q271 141 220
149Q205 136 205 117Q205 104 217 96T257 87H407Q484 87 527 61T570 -15Q570 -33 564 -52Q552 -91 510 -124T390 -179T203 -200Q105 -200 37 -183T-64 -137T-98 -71Q-98 -63 -94 -47Q-85 -18 -54 0T50 25Q26 48 26 80Q26 91 29 103Q45 155 123 180Q48 221 48 300Q48
322 54 346Q66 398 107 440T212 508T352 533Q471 533 539 502Q524 525 516 551T507 600Q507 638 531 665T606 692Q638 692 668 679ZM405 388T405 415Q405 449 376 449Q351 449 333 425T295 337Q279 285 279 258Q279 225 307 225Q332 225 351 250T389 337Q405 388
405 415ZM190 -14Q162 -14 139 -11Q127 -26 127 -51Q128 -76 147 -87T208 -98Q258 -98 289 -83T321 -40Q321 -28 312 -21T286 -14H190Z" />
<glyph unicode="h" glyph-name="h" horiz-adv-x="710" d="M613 138Q611 134 611 126Q611 119 614 115T624 111Q636 111 644 121T656 132Q661 132 664 126T667 110Q668 81 648 54T590 9T497 -9Q431 -9 392 21T352 103Q352 140 370 186L425 330Q430 343 430 351Q430
364 422 371T401 379Q382 379 363 362T331 305V307L268 104Q265 92 265 83Q265 70 270 63T284 48Q291 41 294 37T295 25Q290 12 275 6T229 0H1Q-25 0 -37 8T-45 31Q-41 43 -24 52Q-9 60 1 71T18 106L170 605Q173 614 173 620Q173 631 168 638T153 652Q143 660 139
666T137 682Q143 705 200 722T319 739Q377 739 404 717T432 657Q432 635 425 614L371 438Q410 489 453 509T548 529Q609 529 646 492T684 396Q684 365 674 335L613 138Z" />
<glyph unicode="i" glyph-name="i" horiz-adv-x="366" d="M318 529T345 507T372 447Q372 424 365 403L273 104Q270 92 270 83Q270 70 275 63T289 48Q296 41 299 37T300 25Q295 12 280 6T234 0H6Q-20 0 -32 8T-40 31Q-36 43 -19 52Q-4 60 6 71T23 106L110 395Q113
404 113 410Q113 421 108 427T93 441Q83 449 79 455T78 471Q84 494 141 511T260 529Q318 529 345 507ZM366 750T392 725T418 662Q418 636 405 611T367 571T312 555Q274 555 249 580T222 644Q222 669 235 693T272 734T327 750Q366 750 392 725Z" />
<glyph unicode="j" glyph-name="j" horiz-adv-x="335" d="M370 753T397 727T424 662Q425 634 411 608T371 565T312 548Q272 548 246 575T219 643Q219 669 233 694T272 736T330 753Q370 753 397 727ZM93 400T93 409Q93 420 89 426T74 441Q64 449 60 455T59 471Q65
494 122 511T241 529Q299 529 326 507T353 447Q353 424 346 403L223 -11Q193 -110 129 -150T-43 -190Q-86 -190 -117 -179T-143 -149Q-141 -142 -134 -136T-113 -123Q-87 -109 -70 -93T-42 -44L91 395Q93 400 93 409Z" />
<glyph unicode="k" glyph-name="k" horiz-adv-x="699" d="M650 529T684 498T719 421Q719 373 690 346T614 319Q572 319 549 340T527 389Q517 391 510 381T495 342Q490 323 476 307Q544 302 577 276T610 209Q610 189 603 169L595 138Q593 133 593 125Q593 111 606
111Q618 111 626 121T638 132Q643 132 646 126T649 110Q650 81 632 54T576 9T485 -9Q421 -9 379 23T336 107Q336 126 344 150L363 200Q368 218 368 226Q368 239 360 245T333 251H313L268 104Q265 92 265 83Q265 70 270 63T284 48Q291 41 294 37T295 25Q290 12 275
6T229 0H1Q-25 0 -37 8T-45 31Q-41 43 -24 52Q-9 60 1 71T18 106L170 605Q173 614 173 620Q173 631 168 638T153 652Q143 660 139 666T137 682Q143 705 200 722T319 739Q377 739 404 718T431 658Q431 635 424 614L337 330H370Q390 330 402 342T422 377Q447 451
487 490T593 529Q650 529 684 498Z" />
<glyph unicode="l" glyph-name="l" horiz-adv-x="366" d="M377 739T404 717T432 657Q432 635 425 614L268 104Q265 92 265 83Q265 70 270 63T284 48Q291 41 294 37T295 25Q290 12 275 6T229 0H1Q-25 0 -37 8T-45 31Q-41 43 -24 52Q-9 60 1 71T18 106L170 605Q173
614 173 620Q173 631 168 638T153 652Q143 660 139 666T137 682Q143 705 200 722T319 739Q377 739 404 717Z" />
<glyph unicode="m" glyph-name="m" horiz-adv-x="1048" d="M951 138Q949 134 949 126Q949 119 952 115T962 111Q974 111 982 121T994 132Q999 132 1002 126T1005 110Q1006 81 986 54T928 9T835 -9Q769 -9 730 21T690 103Q690 140 708 186L763 330Q768 343 768
351Q768 364 760 371T739 379Q722 379 704 364T672 317L617 138Q615 134 615 126Q615 119 618 115T628 111Q640 111 648 121T660 132Q665 132 668 126T671 110Q672 81 652 54T594 9T501 -9Q435 -9 396 21T356 103Q356 140 374 186L429 330Q434 343 434 351Q434
364 426 371T405 379Q388 379 370 365T340 318L274 104Q270 93 270 83Q270 71 275 64T289 48Q296 42 299 37T300 25Q296 12 281 6T234 0H6Q-20 0 -31 8T-40 31Q-36 43 -19 52Q-4 60 6 71T23 106L112 395Q114 400 114 409Q114 420 110 426T95 441Q85 449 81 455T80
471Q86 494 143 511T262 529Q311 529 339 502T367 428Q408 485 453 507T552 529Q610 529 646 496T687 408Q730 476 779 502T886 529Q947 529 984 492T1022 396Q1022 365 1012 335L951 138Z" />
<glyph unicode="n" glyph-name="n" horiz-adv-x="716" d="M619 138Q617 134 617 126Q617 119 620 115T630 111Q642 111 650 121T662 132Q667 132 670 126T673 110Q674 81 654 54T596 9T503 -9Q437 -9 398 21T358 103Q358 140 376 186L431 330Q436 343 436 351Q436
364 428 371T407 379Q385 379 365 359T336 308L274 104Q270 93 270 83Q270 71 275 64T289 48Q296 42 299 37T300 25Q296 12 281 6T234 0H6Q-20 0 -31 8T-40 31Q-36 43 -19 52Q-4 60 6 71T23 106L112 395Q114 400 114 409Q114 420 110 426T95 441Q85 449 81 455T80
471Q86 494 143 511T262 529Q312 529 341 502T367 425Q408 484 454 506T554 529Q615 529 652 492T690 396Q690 365 680 335L619 138Z" />
<glyph unicode="o" glyph-name="o" horiz-adv-x="656" d="M523 529T587 474T652 330Q652 300 644 263Q625 181 573 120T446 25T282 -9Q143 -9 77 46T10 194Q10 225 18 263Q37 341 90 401T221 495T387 529Q523 529 587 474ZM363 440T340 403T284 261Q252 157 252
115Q252 93 259 86T278 78Q299 76 321 114T378 262Q409 359 409 403Q409 424 403 432T384 440Q363 440 340 403Z" />
<glyph unicode="p" glyph-name="p" horiz-adv-x="691" d="M600 533T644 482T688 343Q688 296 675 244Q645 120 563 56T373 -9Q304 -9 253 20L221 -87Q217 -98 217 -108Q217 -119 222 -126T235 -141Q243 -149 245 -154T246 -166Q242 -179 227 -184T181 -190H-48Q-74
-190 -85 -182T-92 -160Q-90 -152 -85 -147T-71 -138Q-56 -128 -47 -118T-31 -84L115 395Q118 404 118 410Q118 421 113 427T98 441Q88 449 84 455T83 471Q89 494 146 511T265 529Q309 529 337 507T370 446Q438 533 523 533Q600 533 644 482ZM431 325T431 359Q431
380 425 386T406 393Q397 393 383 385T355 356L276 94Q288 82 305 82Q332 82 356 112T407 236Q431 325 431 359Z" />
<glyph unicode="q" glyph-name="q" horiz-adv-x="682" d="M553 0Q545 -29 545 -40Q545 -53 551 -58T573 -63Q586 -63 604 -60T628 -56Q640 -56 640 -72Q640 -97 610 -125T532 -171T435 -190Q363 -190 324 -161T285 -78Q285 -51 293 -26L320 62Q258 -3 173 -3Q128
-3 91 18T32 82T10 184Q10 233 22 278Q43 361 87 417T190 501T312 529Q371 529 411 512T484 460L513 484Q534 502 553 510T599 519H644Q669 519 682 509T696 479Q696 474 692 458L553 0ZM406 342L412 361V361Q417 377 417 394Q417 427 387 427Q362 427 340 396T293
284Q275 229 275 188Q275 157 285 142T313 127Q326 127 336 138T355 175L406 342Z" />
<glyph unicode="r" glyph-name="r" horiz-adv-x="579" d="M547 529T580 495T614 411Q614 392 610 376Q600 335 572 313T505 291Q467 291 448 309T413 357Q405 374 398 382T382 390Q372 390 365 382T351 354L274 104Q272 99 272 89Q272 76 279 68T300 51Q312 43
316 38T319 25Q317 12 305 6T262 0H6Q-20 0 -31 8T-40 31Q-36 43 -19 52Q-4 60 6 71T23 106L112 395Q114 400 114 409Q114 420 110 426T95 441Q85 449 81 455T80 471Q86 494 143 511T262 529Q303 529 330 511T365 458Q413 529 491 529Q547 529 580 495Z" />
<glyph unicode="s" glyph-name="s" horiz-adv-x="593" d="M412 538T472 523T565 481T598 420Q598 385 571 363T494 341Q444 341 410 366T375 429Q375 442 379 454Q361 459 347 459Q322 459 306 447T290 413Q290 387 316 369T400 324Q450 302 482 284T537 237T560
171Q560 163 556 141Q540 74 467 35T275 -4Q141 -4 63 32T-16 131Q-16 174 10 196T79 218Q129 218 164 187T200 108Q200 95 197 81Q221 75 243 75Q269 75 286 89T303 128Q302 151 280 167T210 207Q165 228 136 246T87 293T66 359Q66 441 134 489T329 538Q412 538
472 523Z" />
<glyph unicode="t" glyph-name="t" horiz-adv-x="430" d="M466 516T476 508T487 486Q487 482 485 472Q472 428 425 428H367L292 181Q287 166 287 150Q287 132 297 125T325 118Q341 118 365 122Q377 125 386 125Q393 125 396 121T400 109Q401 89 371 61T288 12T173
-9Q105 -9 64 22T23 107Q23 132 31 155L95 353Q100 370 100 380Q100 400 91 414T64 443Q49 457 43 466T40 489Q44 502 57 509T98 516H154L217 579Q250 612 277 625T349 638Q412 638 412 590Q412 575 408 562L394 516H447Q466 516 476 508Z" />
<glyph unicode="u" glyph-name="u" horiz-adv-x="686" d="M594 138Q592 130 592 126Q592 119 595 115T605 111Q617 111 625 121T637 132Q642 132 645 126T649 110Q650 82 629 55T570 9T485 -9Q426 -9 391 15T346 78Q310 38 267 18T178 -3Q108 -3 61 31T13 128Q13
156 23 186L87 395Q90 404 90 410Q90 421 85 427T70 441Q60 449 56 455T55 471Q61 494 118 511T237 529Q295 529 322 507T349 447Q349 424 342 403L279 195Q275 184 275 174Q275 160 283 153T304 146Q323 146 335 157T359 194L420 395Q423 404 423 410Q423 421
418 427T404 441Q394 449 390 455T389 471Q394 494 451 511T570 529Q628 529 655 507T683 448Q683 429 675 403L594 138Z" />
<glyph unicode="v" glyph-name="v" horiz-adv-x="599" d="M541 529T576 491T611 387Q611 298 549 205T392 52T207 -9Q121 -9 68 26T14 126Q14 150 23 180L86 395Q88 403 88 407Q88 417 83 424T69 439Q54 452 54 462Q53 476 71 492T121 518T195 529Q262 529 299
497T337 412Q337 389 329 362L264 148Q261 139 261 133Q261 120 270 113T295 106Q317 106 346 125T405 181T452 268Q412 303 396 337T379 407Q379 458 407 493T488 529Q541 529 576 491Z" />
<glyph unicode="w" glyph-name="w" horiz-adv-x="927" d="M939 298T877 205T721 52T535 -9Q463 -9 413 16T348 88Q311 43 266 20T172 -3Q104 -3 62 30T19 129Q19 163 30 199L86 395Q88 403 88 407Q88 417 83 424T69 439Q54 452 54 462Q53 476 71 492T121 518T195
529Q262 529 299 497T337 412Q337 389 329 362L278 192Q274 178 274 173Q274 160 281 153T302 146Q320 146 332 158T357 199L414 395Q416 403 416 407Q416 417 411 424T397 439Q382 452 382 462Q381 476 399 492T449 518T523 529Q591 529 628 497T665 412Q665 391
657 362L592 148Q590 143 590 133Q590 120 599 113T624 106Q646 106 675 125T733 181T780 268Q740 303 724 337T707 407Q707 458 735 493T816 529Q869 529 904 491T939 387Q939 298 877 205Z" />
<glyph unicode="x" glyph-name="x" horiz-adv-x="598" d="M569 529T596 501T623 430Q623 411 617 391Q606 357 585 340T536 323Q504 323 474 344L424 297Q449 229 465 196T491 154T514 144Q521 144 532 149T549 155Q555 155 559 150T563 135Q563 130 561 120Q553
86 527 58T465 14T392 -3Q355 -3 328 6T273 49T216 148L191 92Q167 39 143 18T85 -4Q41 -4 13 24T-15 95Q-15 115 -9 134Q2 168 23 185T72 202Q104 202 134 181L184 228Q160 296 145 329T120 372T96 382Q89 382 79 377T62 371Q47 371 47 392Q47 395 49 405Q62 457
112 493T219 529Q255 529 282 518T337 474T393 378L421 441Q443 489 467 509T527 529Q569 529 596 501Z" />
<glyph unicode="y" glyph-name="y" horiz-adv-x="620" d="M574 529T600 494T627 397Q627 344 608 283Q571 160 490 51T303 -124T92 -190Q40 -190 3 -172T-54 -124T-74 -60Q-74 -45 -69 -27Q-60 1 -39 16T11 31Q57 31 86 0T124 -87Q188 -84 242 -32Q191 -23 167
2T133 82L93 327Q90 346 85 353T70 361Q63 361 54 354T40 347Q32 347 32 364Q32 378 37 394Q55 451 104 490T218 530Q282 530 312 492T352 375L382 155Q385 130 400 130Q418 130 442 162T489 255Q459 282 443 317T427 392Q427 423 435 448Q447 488 472 508T530
529Q574 529 600 494Z" />
<glyph unicode="z" glyph-name="z" horiz-adv-x="662" d="M565 529T593 513T638 472T655 420Q655 382 634 355T567 300L355 174Q385 140 414 140Q437 140 455 157T496 206Q510 225 517 233T531 241Q549 241 570 228T607 190T623 130Q623 94 605 64T553 15T474
-3Q430 -3 400 12T354 47T321 92Q308 115 301 115Q295 115 289 108T270 84Q243 45 215 21T140 -3Q96 -3 61 13T5 55T-16 113Q-16 168 57 214L314 371Q297 392 284 401T256 410Q237 410 224 397T196 359Q186 343 180 335T165 327Q134 327 111 349T88 409Q88 440
103 467T147 512T214 529Q269 529 299 503T354 437Q368 415 373 415Q378 415 384 421T395 434T403 444Q433 483 461 506T532 529Q565 529 593 513Z" />
<glyph unicode="{" glyph-name="braceleft" horiz-adv-x="495" d="M83 340T91 346T121 359Q145 365 159 380T180 425Q186 449 186 478L185 520Q183 552 183 569Q183 617 193 652Q205 697 240 733T325 790T435 811Q497 811 542 794T611 754T635 713Q635 690 605
690Q597 690 573 696Q547 704 531 704Q504 704 481 687T445 628Q437 597 437 554L438 511Q439 497 439 471Q439 433 433 413Q425 382 400 359T335 323Q316 317 316 313Q316 309 332 300Q376 276 376 229Q376 211 370 190Q364 169 355 151T327 103Q293 52 283 15Q279
2 279 -12Q279 -38 295 -53T343 -69Q352 -69 382 -64Q400 -60 405 -60Q417 -60 421 -67T423 -85Q417 -111 388 -133T315 -169T219 -182Q117 -182 69 -144T20 -44Q20 -20 28 10Q34 31 44 51T73 105Q86 127 98 151T116 195Q122 219 122 227Q122 254 96 270Q75 284
75 302Q75 311 78 321Q83 340 91 346Z" />
<glyph unicode="|" glyph-name="bar" horiz-adv-x="439" d="M247 -82T236 -91T202 -100H45Q2 -100 2 -71Q2 -63 5 -51L226 725Q233 748 244 757T278 766H435Q478 766 478 737Q478 729 475 717L254 -59Q247 -82 236 -91Z" />
<glyph unicode="}" glyph-name="braceright" horiz-adv-x="495" d="M444 289T436 283T406 270Q382 264 368 249T347 204Q341 180 341 151L342 109Q344 77 344 60Q344 12 334 -23Q322 -68 287 -104T202 -161T92 -182Q30 -182 -15 -165T-84 -125T-108 -84Q-108 -61
-78 -61Q-70 -61 -46 -67Q-20 -75 -4 -75Q23 -75 46 -58T82 1Q90 32 90 75L89 118Q88 132 88 158Q88 196 94 216Q102 247 127 270T192 306Q211 312 211 316Q211 320 195 329Q151 353 151 400Q151 418 157 439Q163 460 172 478T200 526Q234 577 244 614Q248 627
248 641Q248 667 232 682T184 698Q175 698 145 693Q127 689 122 689Q110 689 106 696T104 714Q110 740 139 762T212 798T308 811Q410 811 458 773T507 673Q507 649 499 619Q493 598 483 578T454 524Q441 502 429 478T411 434Q405 410 405 402Q405 375 431 359Q452
346 452 327Q452 319 449 308Q444 289 436 283Z" />
<glyph unicode="~" glyph-name="asciitilde" horiz-adv-x="532" d="M351 244T320 252T241 277Q213 287 187 294T146 302Q128 302 115 295T87 274Q71 260 64 260Q57 260 52 271T47 300Q47 321 52 338Q67 395 111 429T209 464Q230 464 260 456T337 433Q377 420 402
413T442 406Q458 406 470 413T497 434Q514 449 521 449Q528 449 532 439T537 410Q537 395 532 370Q519 314 475 279T376 244Q351 244 320 252Z" />
<glyph unicode="&#xa0;" glyph-name="uni00A0" horiz-adv-x="600" />
<glyph unicode="&#xa1;" glyph-name="exclamdown" horiz-adv-x="361" d="M225 470T198 497T170 563Q170 590 184 616T224 658T282 675Q322 675 348 648T376 582Q376 555 362 529T323 487T265 470Q225 470 198 497ZM286 71T245 31T132 -9Q78 -9 46 16T13 87Q13
135 49 191L183 400Q198 423 209 432T238 442Q273 442 275 395L283 150Q286 71 245 31Z" />
<glyph unicode="&#xa2;" glyph-name="cent" horiz-adv-x="550" d="M417 309T390 333T363 400Q363 420 369 442Q327 431 295 399T251 313Q245 283 245 259Q245 205 275 177T361 149Q393 149 416 155T463 173Q483 183 492 183Q498 183 500 181T502 170Q503 136 477
99T402 34T294 -1L280 -51Q272 -78 258 -89T222 -100Q201 -100 191 -89T180 -57Q180 -43 184 -31L193 3Q111 21 64 76T16 214Q16 251 24 284Q50 401 134 464T337 533L350 581Q364 631 409 631Q430 631 441 620T453 590Q453 582 450 571L437 526Q498 513 532 479T567
401Q567 361 540 335T465 309Q417 309 390 333Z" />
<glyph unicode="&#xa3;" glyph-name="sterling" horiz-adv-x="799" d="M643 667T708 645T803 589T834 519Q834 512 832 500Q823 462 793 441T713 420Q657 420 623 447T589 518Q589 543 603 574Q585 582 572 582Q551 582 536 570T516 536L476 394H570Q591 394 601
386T612 362Q612 358 610 348Q596 302 547 302H450L414 173L408 154Q433 149 451 149Q499 149 533 162T588 193T630 236Q642 250 649 256T662 262Q677 262 700 246T742 201T760 135Q760 117 756 101Q744 52 692 24T553 -4Q438 -4 344 53Q282 -4 178 -4Q90 -4 44
35T-3 133Q-3 150 1 165Q12 208 47 235T135 262Q159 262 179 256T232 235L251 302H181Q140 302 140 333Q140 338 142 348Q148 370 164 382T205 394H256Q234 430 234 474Q234 498 242 527Q262 593 339 630T547 667Q643 667 708 645ZM186 99T200 143Q182 156 170
162T143 168Q126 168 117 159T107 135Q107 120 119 110T149 99Q186 99 200 143Z" />
<glyph unicode="&#xa4;" glyph-name="currency" horiz-adv-x="715" d="M726 564T726 554Q726 527 691 504L649 478Q660 448 660 414Q660 384 651 346Q630 267 579 213L598 196Q622 174 622 154Q622 138 603 119Q585 101 567 101Q547 101 524 123L494 150Q418 113
321 113Q222 113 167 150L106 113Q86 100 69 100Q49 100 40 119Q36 127 36 137Q36 164 71 187L114 214Q103 244 103 278Q103 309 112 346Q131 421 183 478L154 504Q139 518 139 534Q139 552 159 572Q178 591 198 591Q215 591 229 578L268 541Q345 578 443 578Q540
578 596 541L656 578Q676 591 693 591Q713 591 722 572Q726 564 726 554ZM444 386T444 415Q444 437 436 447T411 457Q384 457 365 432T330 346Q318 301 318 276Q318 254 326 244T353 234Q379 234 398 260T433 346Q444 386 444 415Z" />
<glyph unicode="&#xa5;" glyph-name="yen" horiz-adv-x="819" d="M834 670T862 642T890 569Q890 563 888 547Q880 499 851 476T782 453Q756 453 738 461T704 488L622 381H678Q699 381 709 373T720 349Q720 345 718 335Q704 289 655 289H551L539 273L526 231H648Q669
231 679 223T690 199Q690 195 688 185Q674 139 625 139H499L493 118Q491 112 491 102Q491 88 498 79T518 58Q529 48 534 41T536 25Q532 11 517 6T474 0H222Q196 0 184 9T175 36Q177 45 182 50T200 64Q215 73 225 84T242 118L248 139H149Q108 139 108 170Q108 175
110 185Q116 207 132 219T173 231H275L288 274L283 289H179Q138 289 138 320Q138 325 140 335Q146 357 162 369T203 381H250L196 536Q186 565 173 580T141 611Q130 619 125 625T120 639Q120 651 130 658T161 666H428Q463 666 476 660T490 639Q490 630 486 624T474
608Q465 596 461 589T456 570Q456 567 458 557L504 381L631 562Q672 620 708 645T790 670Q834 670 862 642Z" />
<glyph unicode="&#xa6;" glyph-name="brokenbar" horiz-adv-x="440" d="M391 419T379 410T345 400H188Q145 400 145 430Q145 439 148 449L227 725Q233 747 245 756T279 766H436Q479 766 479 736Q479 728 476 717L397 441Q391 419 379 410ZM248 -80T236 -89T202
-99H45Q2 -99 2 -69Q2 -61 5 -50L84 226Q90 248 102 257T136 267H293Q336 267 336 237Q336 229 333 218L254 -58Q248 -80 236 -89Z" />
<glyph unicode="&#xa7;" glyph-name="section" horiz-adv-x="722" d="M565 519T555 527T544 549Q544 560 550 575Q554 586 554 595Q554 612 541 621T507 631Q462 631 462 589Q462 572 474 549L606 333Q634 286 649 247T664 165Q664 131 654 97Q636 35 578 -17T438
-100T269 -131Q209 -131 164 -114T95 -69T70 -8Q70 31 97 52T161 74Q180 74 190 66T201 44Q201 33 195 18Q191 7 191 -2Q191 -19 204 -28T238 -38Q283 -38 283 4Q283 22 271 44L139 260Q111 307 96 346T81 428Q81 462 91 496Q109 558 167 610T307 693T476 724Q536
724 581 707T650 662T675 601Q675 562 648 541T584 519Q565 519 555 527ZM497 94T497 110Q497 163 456 231L347 414Q307 481 307 534Q307 571 327 606Q267 570 253 519Q248 499 248 483Q248 430 289 362L398 179Q438 112 438 59Q438 22 418 -13Q478 23 492 74Q497
94 497 110Z" />
<glyph unicode="&#xa8;" glyph-name="dieresis" horiz-adv-x="460" d="M264 750T290 725T316 662Q316 636 303 611T265 571T210 555Q172 555 147 580T120 644Q120 669 133 693T170 734T225 750Q264 750 290 725ZM488 750T514 725T540 662Q540 636 527 611T489
571T434 555Q396 555 371 580T344 644Q344 669 357 693T394 734T449 750Q488 750 514 725Z" />
<glyph unicode="&#xa9;" glyph-name="copyright" horiz-adv-x="785" d="M266 -12T198 25T94 128T57 274Q57 307 63 340Q79 434 138 512T286 636T473 682Q562 682 629 645T733 542T770 396Q770 364 764 331Q748 237 689 158T541 34T355 -12Q266 -12 198 25ZM438
51T512 89T635 194T699 340Q704 370 704 393Q704 458 676 509T596 590T472 619Q389 619 315 581T192 476T128 331Q123 301 123 277Q123 212 151 161T232 80T356 51Q438 51 512 89ZM299 114T248 157T196 279Q196 317 209 359Q237 451 294 492T416 533Q480 533 528
492L544 505Q561 518 572 523T598 528Q613 528 622 521T632 502Q632 496 629 488L595 393Q590 376 582 369T558 362Q543 362 533 373T510 412Q495 441 486 450T458 460Q433 460 410 429T368 335Q352 283 352 248Q352 188 395 188Q424 188 442 200T480 236Q493 250
500 256T517 262Q527 262 539 251T552 229Q552 216 530 188T468 137T378 114Q299 114 248 157Z" />
<glyph unicode="&#xaa;" glyph-name="ordfeminine" horiz-adv-x="490" d="M414 678T470 645T527 542Q527 520 519 490L490 385Q489 383 489 378Q489 373 492 370T501 366Q510 366 517 374T526 382Q530 382 532 377T536 364Q537 343 521 322T476 288T413 274Q372
274 342 288T299 331Q276 304 244 289T174 274Q131 274 102 290T57 331T42 385Q42 391 44 405Q55 458 96 484T198 511Q262 511 329 491L347 541Q356 571 356 591Q354 609 342 618T305 627Q310 616 310 600Q310 572 289 553T227 533Q186 533 164 550T142 593Q142
629 186 653T320 678Q414 678 470 645ZM262 448T249 433T235 398Q235 385 241 377T259 369Q269 369 281 377T299 401L314 445Q301 448 283 448Q262 448 249 433Z" />
<glyph unicode="&#xab;" glyph-name="guillemotleft" horiz-adv-x="549" d="M244 237Q257 222 264 210T271 186Q271 167 256 153T221 138Q197 138 177 162L81 278Q65 297 59 307T52 330Q52 345 61 356T91 384L224 484Q234 492 242 495T260 498Q278 498 290 484T303
453Q303 449 301 441Q297 428 289 419T261 395L168 325L244 237ZM522 498T535 484T549 452Q549 449 547 441Q543 428 534 418T507 395L381 307L454 239Q480 215 480 192Q480 173 464 157T428 140Q410 140 391 159L289 260Q273 275 266 287T259 311Q259 327 268
338T299 366L470 484Q490 498 506 498Q522 498 535 484Z" />
<glyph unicode="&#xac;" glyph-name="logicalnot" horiz-adv-x="689" d="M655 481T669 470T684 439Q684 431 681 420L630 241Q621 210 602 194T557 178Q531 178 516 192T500 231Q500 239 504 257L532 359H114Q87 359 73 369T59 400Q59 410 62 420Q69 449 91 465T145
481H628Q655 481 669 470Z" />
<glyph unicode="&#xad;" glyph-name="uni00AD" horiz-adv-x="600" d="M132 381T154 397T208 413H441Q496 413 496 370Q496 359 494 352Q475 291 410 291H177Q150 291 136 301T122 332Q122 342 125 352Q132 381 154 397Z" />
<glyph unicode="&#xae;" glyph-name="registered" horiz-adv-x="517" d="M226 290T184 311T119 369T96 451Q96 471 100 488Q110 540 147 584T238 654T354 680Q409 680 451 659T516 602T539 520Q539 499 535 483Q525 430 488 386T397 316T281 290Q226 290 184 311ZM338
332T386 357T463 425T492 517Q492 571 455 604T353 638Q298 638 250 613T172 545T143 454Q143 400 181 366T283 332Q338 332 386 357ZM423 495T381 492Q411 489 411 463L409 451L406 436L405 431Q405 423 412 423Q420 423 422 422T424 415Q422 404 409 395T371
385Q351 385 339 394T327 420Q327 425 329 435L333 455L335 464Q335 476 314 476H303L288 425Q287 423 287 420Q287 412 294 406T301 396Q300 391 296 390T282 388H204Q186 388 188 399Q189 403 197 408T209 425L248 559Q249 562 249 567Q249 572 245 577T243 588Q244
592 248 593T261 595H365Q398 595 417 581T437 545Q437 540 435 532Q423 495 381 492ZM356 539T356 546Q356 556 352 559T338 563H325L311 507H324Q336 507 343 513T355 535Q356 539 356 546Z" />
<glyph unicode="&#xaf;" glyph-name="overscore" horiz-adv-x="398" d="M120 649T136 661T177 673H432Q453 673 463 665T474 641Q474 637 472 627Q458 581 409 581H153Q112 581 112 612Q112 617 114 627Q120 649 136 661Z" />
<glyph unicode="&#xb0;" glyph-name="degree" horiz-adv-x="436" d="M221 375T179 394T113 447T88 522Q88 572 116 612T193 674T305 697Q358 697 400 678T467 625T491 550Q491 501 463 461T385 398T273 375Q221 375 179 394ZM295 452T310 474T336 546Q340 574
340 582Q340 621 309 621Q284 621 270 600T246 527Q242 497 242 490Q242 470 249 461T270 452Q295 452 310 474Z" />
<glyph unicode="&#xb1;" glyph-name="plusminus" horiz-adv-x="639" d="M619 424T619 386Q619 382 617 370Q600 316 542 316H389L355 189H512Q537 189 549 180T562 153Q562 149 560 139Q543 89 486 89H70Q46 89 33 98T20 123Q20 130 23 139Q29 163 48 176T96 189H239L273
316H126Q102 316 90 325T77 352Q77 360 80 370Q87 396 106 410T154 424H302L332 535Q339 563 356 577T396 591Q419 591 432 579T446 544Q446 533 443 521L417 424H570Q619 424 619 386Z" />
<glyph unicode="&#xb2;" glyph-name="twosuperior" horiz-adv-x="563" d="M432 673T484 658T562 616T589 559Q589 553 587 543Q578 505 531 482T373 445Q311 437 281 432T236 419T222 401H396Q444 401 471 410T520 435Q534 444 540 444Q550 444 560 424T570 375Q570
361 567 346Q558 308 526 291T432 273H139Q113 273 97 291T81 341Q81 359 87 378Q99 419 140 446T261 497Q321 515 344 532T373 575Q377 594 365 605T332 617Q320 617 314 615Q316 601 316 596Q316 560 289 543T218 526Q182 526 159 542T135 584Q135 627 192 650T359
673Q432 673 484 658Z" />
<glyph unicode="&#xb3;" glyph-name="threesuperior" horiz-adv-x="570" d="M608 503T583 487T516 464Q595 438 595 387Q595 332 529 301T318 270Q195 270 131 299T67 373Q67 408 95 426T173 445Q215 445 241 428T269 384Q271 365 257 346Q278 340 303 340Q329
340 346 351T370 384Q372 390 372 401Q372 440 315 440Q296 440 285 447T274 469Q274 488 286 496T323 504Q355 505 371 514T394 545Q396 557 396 562Q396 585 381 596T343 608Q325 608 317 606Q321 590 321 582Q321 555 298 539T230 523Q182 523 153 541T124 586Q124
625 181 649T356 673Q435 673 494 656T585 611T617 547Q617 538 614 527Q608 503 583 487Z" />
<glyph unicode="&#xb4;" glyph-name="acute" horiz-adv-x="245" d="M180 723T205 742T267 761Q298 761 316 745T334 700Q334 670 314 648T249 604L162 562Q143 554 130 554Q118 554 111 560T103 578Q103 591 113 608L156 681Q180 723 205 742Z" />
<glyph unicode="&#xb5;" glyph-name="uni00B5" horiz-adv-x="685" d="M593 138Q591 130 591 126Q591 119 594 115T604 111Q616 111 624 121T636 132Q641 132 644 126T648 110Q649 82 628 55T569 9T484 -9Q425 -9 390 15T345 78Q291 16 218 1L199 -60Q196 -69 196
-75Q196 -86 201 -92T216 -106Q226 -114 230 -120T231 -136Q225 -159 168 -176T49 -194Q-9 -194 -36 -172T-63 -112Q-63 -89 -56 -68L86 395Q89 404 89 410Q89 421 84 427T69 441Q59 449 55 455T54 471Q60 494 117 511T236 529Q294 529 321 507T348 447Q348 424
341 403L276 191L278 195Q274 184 274 174Q274 160 282 153T303 146Q322 146 334 157T358 194L419 395Q422 404 422 410Q422 421 417 427T403 441Q393 449 389 455T388 471Q393 494 450 511T569 529Q627 529 654 507T682 448Q682 429 674 403L593 138Z" />
<glyph unicode="&#xb6;" glyph-name="paragraph" horiz-adv-x="610" d="M693 666T704 659T716 641Q716 636 713 628Q710 619 705 615T688 604Q672 594 662 584T645 549L478 -32Q474 -45 474 -58Q474 -69 477 -76T488 -94Q489 -95 493 -101T498 -115Q498 -117 496
-125Q491 -139 477 -144T435 -150H368Q345 -150 345 -130Q345 -124 346 -121L536 537Q537 540 537 545Q537 553 531 558T514 563H505Q491 563 484 558T473 538L281 -128Q275 -150 252 -150H175Q154 -150 143 -143T131 -124Q131 -119 134 -111Q140 -98 159 -87Q175
-78 185 -67T202 -32L267 195H222Q148 195 106 239T64 358Q64 399 78 450Q109 559 183 612T359 666H672Q693 666 704 659Z" />
<glyph unicode="&#xb7;" glyph-name="middot" horiz-adv-x="297" d="M216 431T243 404T271 338Q271 311 257 285T217 243T159 226Q120 226 93 253T65 319Q65 346 79 372T118 414T176 431Q216 431 243 404Z" />
<glyph unicode="&#xb8;" glyph-name="cedilla" horiz-adv-x="400" d="M214 42L184 -43Q224 -43 253 -68T282 -132Q282 -149 276 -165Q262 -205 220 -227T113 -250Q63 -250 19 -234T-51 -194T-77 -145Q-77 -141 -75 -133Q-71 -123 -61 -123Q-54 -123 -36 -133Q15
-162 63 -162Q113 -162 122 -134Q123 -131 123 -125Q123 -112 114 -106T91 -99Q82 -99 64 -101Q46 -103 39 -103Q19 -103 19 -85Q19 -82 21 -76L64 44L214 42Z" />
<glyph unicode="&#xb9;" glyph-name="onesuperior" horiz-adv-x="366" d="M340 675T352 675Q370 675 380 667T391 642Q391 633 388 622L314 370Q311 358 317 349T338 331Q363 316 363 301Q363 287 348 280T298 273H58Q42 273 35 279T28 296Q28 309 38 316T68 333Q87
342 98 350T113 371L165 549Q166 552 166 558Q166 569 159 576T138 592Q126 600 120 606T114 621Q114 644 151 650L315 672Q340 675 352 675Z" />
<glyph unicode="&#xba;" glyph-name="ordmasculine" horiz-adv-x="531" d="M470 678T523 634T577 519Q577 501 572 476Q552 382 475 326T289 269Q175 269 121 313T66 430Q66 449 71 476Q84 535 125 581T227 652T359 678Q470 678 523 634ZM342 610T325 582T284
474Q262 400 262 367Q262 335 284 335Q300 334 317 362T359 475Q380 542 380 579Q380 610 359 610Q342 610 325 582Z" />
<glyph unicode="&#xbb;" glyph-name="guillemotright" horiz-adv-x="549" d="M519 341T525 331T532 308Q532 293 523 282T493 254L360 154Q350 146 342 143T324 140Q306 140 294 154T281 185Q281 189 283 197Q287 210 295 219T323 243L416 313L340 401Q327 416
320 428T313 452Q313 471 328 485T363 500Q387 500 407 476L503 360Q519 341 525 331ZM325 311T316 300T285 272L114 154Q94 140 78 140Q62 140 49 154T35 186Q35 189 37 197Q41 210 50 220T77 243L203 331L130 399Q104 423 104 446Q104 466 120 482T156 498Q174
498 193 479L295 378Q311 363 318 351T325 327Q325 311 316 300Z" />
<glyph unicode="&#xbc;" glyph-name="onequarter" horiz-adv-x="1314" d="M410 675T422 675Q440 675 450 667T461 642Q461 633 458 622L384 370Q381 358 387 349T408 331Q433 316 433 301Q433 287 418 280T368 273H128Q112 273 105 279T98 296Q98 309 108 316T138
333Q157 342 168 350T183 371L235 549Q236 552 236 558Q236 569 229 576T208 592Q196 600 190 606T184 621Q184 644 221 650L385 672Q410 675 422 675ZM828 724T842 731T877 739Q896 739 906 731T917 709Q917 694 904 677L371 -41Q359 -58 345 -65T310 -73Q291
-73 281 -65T270 -43Q270 -28 283 -11L816 707Q828 724 842 731ZM1259 170T1270 162T1279 138Q1276 123 1263 116T1222 108H1177L1164 71Q1161 64 1161 57Q1161 45 1171 36T1181 20Q1181 9 1170 5T1133 0H949Q928 0 918 6T910 22Q912 28 917 31T930 38Q944 45 951
51T964 71L976 107Q927 105 829 98Q751 92 725 92Q702 92 688 100T674 122Q674 138 687 149T727 173Q756 189 771 201T793 231Q796 239 796 246Q796 259 790 269T769 301Q757 316 751 327T744 350Q744 358 746 362Q754 381 776 390T830 400Q869 400 905 384T965
341T988 282Q988 269 984 257Q971 221 937 201T823 154Q900 168 998 169L1056 340Q1063 361 1078 369T1126 377H1212Q1257 377 1257 350Q1257 344 1254 336L1198 170H1235Q1259 170 1270 162Z" />
<glyph unicode="&#xbd;" glyph-name="onehalf" horiz-adv-x="1228" d="M410 675T422 675Q440 675 450 667T461 642Q461 633 458 622L384 370Q381 358 387 349T408 331Q433 316 433 301Q433 287 418 280T368 273H128Q112 273 105 279T98 296Q98 309 108 316T138
333Q157 342 168 350T183 371L235 549Q236 552 236 558Q236 569 229 576T208 592Q196 600 190 606T184 621Q184 644 221 650L385 672Q410 675 422 675ZM828 724T842 731T877 739Q896 739 906 731T917 709Q917 694 904 677L371 -41Q359 -58 345 -65T310 -73Q291
-73 281 -65T270 -43Q270 -28 283 -11L816 707Q828 724 842 731ZM1037 400T1089 385T1167 343T1194 286Q1194 280 1192 270Q1183 232 1136 209T978 172Q916 164 886 159T841 146T827 128H1001Q1049 128 1076 137T1125 162Q1139 171 1145 171Q1155 171 1165 151T1175
102Q1175 88 1172 73Q1163 35 1131 18T1037 0H744Q718 0 702 18T686 68Q686 86 692 105Q704 146 745 173T866 224Q926 242 949 259T978 302Q982 321 970 332T937 344Q925 344 919 342Q921 328 921 323Q921 287 894 270T823 253Q787 253 764 269T740 311Q740 354
797 377T964 400Q1037 400 1089 385Z" />
<glyph unicode="&#xbe;" glyph-name="threequarters" horiz-adv-x="1391" d="M905 724T919 731T954 739Q973 739 983 731T994 709Q994 694 981 677L448 -41Q436 -58 422 -65T387 -73Q368 -73 358 -65T347 -43Q347 -28 360 -11L893 707Q905 724 919 731ZM1336 170T1347
162T1356 138Q1353 123 1340 116T1299 108H1254L1241 71Q1238 64 1238 57Q1238 45 1248 36T1258 20Q1258 9 1247 5T1210 0H1026Q1005 0 995 6T987 22Q989 28 994 31T1007 38Q1021 45 1028 51T1041 71L1053 107Q1004 105 906 98Q828 92 802 92Q779 92 765 100T751
122Q751 138 764 149T804 173Q833 189 848 201T870 231Q873 239 873 246Q873 259 867 269T846 301Q834 316 828 327T821 350Q821 358 823 362Q831 381 853 390T907 400Q946 400 982 384T1042 341T1065 282Q1065 269 1061 257Q1048 221 1014 201T900 154Q977 168
1075 169L1133 340Q1140 361 1155 369T1203 377H1289Q1334 377 1334 350Q1334 344 1331 336L1275 170H1312Q1336 170 1347 162ZM608 503T583 487T516 464Q595 438 595 387Q595 332 529 301T318 270Q195 270 131 299T67 373Q67 408 95 426T173 445Q215 445 241 428T269
384Q271 365 257 346Q278 340 303 340Q329 340 346 351T370 384Q372 390 372 401Q372 440 315 440Q296 440 285 447T274 469Q274 488 286 496T323 504Q355 505 371 514T394 545Q396 557 396 562Q396 585 381 596T343 608Q325 608 317 606Q321 590 321 582Q321 555
298 539T230 523Q182 523 153 541T124 586Q124 625 181 649T356 673Q435 673 494 656T585 611T617 547Q617 538 614 527Q608 503 583 487Z" />
<glyph unicode="&#xbf;" glyph-name="questiondown" horiz-adv-x="677" d="M377 401T350 424T323 481Q323 505 337 527T377 564T435 578Q475 578 502 555T529 498Q530 475 516 453T475 416T417 401Q377 401 350 424ZM327 348T328 355Q331 365 345 371T375 378Q422
378 451 355T481 294Q481 280 477 268Q468 236 443 216T367 166Q313 136 284 111T244 46Q241 33 241 20Q241 -14 264 -32T313 -50Q341 -50 362 -42Q351 -13 351 19Q351 34 354 46Q365 84 394 105T468 126Q522 126 555 97T588 21Q588 5 584 -10Q569 -74 495 -108T306
-143Q209 -143 136 -112T24 -30T-15 81Q-15 99 -10 121Q2 170 31 199T117 248T274 285Q312 292 326 298T344 314L345 318Q345 324 337 336Q327 348 328 355Z" />
<glyph unicode="&#xc0;" glyph-name="Agrave" horiz-adv-x="698" d="M611 118Q607 105 607 92Q607 81 610 74T616 62T621 55Q631 45 631 35Q631 33 629 25Q625 11 612 6T570 0H333Q312 0 301 7T289 26Q289 32 292 39Q295 47 300 51T316 62Q332 71 342 82T359 118L385
204H229L202 147Q185 110 185 89Q185 77 189 70T201 54Q208 46 210 41T211 26Q207 11 195 6T155 0H6Q-17 0 -29 8T-41 31Q-41 47 -30 56T5 77Q35 92 53 106T84 147L262 516Q303 602 358 640T505 679Q607 679 663 638T719 522Q719 491 709 458L611 118ZM415 304L468
480Q472 492 472 505Q472 524 462 533T432 543Q408 543 391 529T357 479L275 304H415ZM580 753Q584 742 584 732Q584 720 577 712T559 704Q547 704 536 708T511 724L453 769Q425 792 413 810T400 851Q400 878 417 895T466 912Q498 912 519 893T555 832L580 753Z"
/>
<glyph unicode="&#xc1;" glyph-name="Aacute" horiz-adv-x="698" d="M611 118Q607 105 607 92Q607 81 610 74T616 62T621 55Q631 45 631 35Q631 33 629 25Q625 11 612 6T570 0H333Q312 0 301 7T289 26Q289 32 292 39Q295 47 300 51T316 62Q332 71 342 82T359 118L385
204H229L202 147Q185 110 185 89Q185 77 189 70T201 54Q208 46 210 41T211 26Q207 11 195 6T155 0H6Q-17 0 -29 8T-41 31Q-41 47 -30 56T5 77Q35 92 53 106T84 147L262 516Q303 602 358 640T505 679Q607 679 663 638T719 522Q719 491 709 458L611 118ZM415 304L468
480Q472 492 472 505Q472 524 462 533T432 543Q408 543 391 529T357 479L275 304H415ZM610 874T635 893T697 912Q728 912 746 896T764 851Q764 821 744 799T679 755L592 713Q573 705 560 705Q548 705 541 711T533 729Q533 742 543 759L586 832Q610 874 635 893Z"
/>
<glyph unicode="&#xc2;" glyph-name="Acircumflex" horiz-adv-x="698" d="M611 118Q607 105 607 92Q607 81 610 74T616 62T621 55Q631 45 631 35Q631 33 629 25Q625 11 612 6T570 0H333Q312 0 301 7T289 26Q289 32 292 39Q295 47 300 51T316 62Q332 71 342 82T359
118L385 204H229L202 147Q185 110 185 89Q185 77 189 70T201 54Q208 46 210 41T211 26Q207 11 195 6T155 0H6Q-17 0 -29 8T-41 31Q-41 47 -30 56T5 77Q35 92 53 106T84 147L262 516Q303 602 358 640T505 679Q607 679 663 638T719 522Q719 491 709 458L611 118ZM415
304L468 480Q472 492 472 505Q472 524 462 533T432 543Q408 543 391 529T357 479L275 304H415ZM717 756T717 741Q717 723 706 713T679 703Q656 703 635 720T587 773L579 783L535 754Q466 710 429 710Q416 710 409 717T402 735Q402 757 425 780L527 876Q546 894
567 904T607 915Q647 915 666 872L710 773Q717 756 717 741Z" />
<glyph unicode="&#xc3;" glyph-name="Atilde" horiz-adv-x="698" d="M611 118Q607 105 607 92Q607 81 610 74T616 62T621 55Q631 45 631 35Q631 33 629 25Q625 11 612 6T570 0H333Q312 0 301 7T289 26Q289 32 292 39Q295 47 300 51T316 62Q332 71 342 82T359 118L385
204H229L202 147Q185 110 185 89Q185 77 189 70T201 54Q208 46 210 41T211 26Q207 11 195 6T155 0H6Q-17 0 -29 8T-41 31Q-41 47 -30 56T5 77Q35 92 53 106T84 147L262 516Q303 602 358 640T505 679Q607 679 663 638T719 522Q719 491 709 458L611 118ZM415 304L468
480Q472 492 472 505Q472 524 462 533T432 543Q408 543 391 529T357 479L275 304H415ZM571 714T554 721T514 742Q511 744 500 750T480 759T464 762Q451 762 441 756T419 739Q417 737 411 732T399 727Q392 727 389 736T385 760Q385 776 389 792Q401 839 437 867T519
896Q537 896 554 889T594 869Q613 858 624 853T646 848Q659 848 669 854T691 871Q693 873 699 878T711 883Q717 883 721 874T725 852Q725 838 720 818Q709 771 673 743T591 714Q571 714 554 721Z" />
<glyph unicode="&#xc4;" glyph-name="Adieresis" horiz-adv-x="698" d="M611 118Q607 105 607 92Q607 81 610 74T616 62T621 55Q631 45 631 35Q631 33 629 25Q625 11 612 6T570 0H333Q312 0 301 7T289 26Q289 32 292 39Q295 47 300 51T316 62Q332 71 342 82T359
118L385 204H229L202 147Q185 110 185 89Q185 77 189 70T201 54Q208 46 210 41T211 26Q207 11 195 6T155 0H6Q-17 0 -29 8T-41 31Q-41 47 -30 56T5 77Q35 92 53 106T84 147L262 516Q303 602 358 640T505 679Q607 679 663 638T719 522Q719 491 709 458L611 118ZM415
304L468 480Q472 492 472 505Q472 524 462 533T432 543Q408 543 391 529T357 479L275 304H415ZM505 901T531 876T557 813Q557 787 544 762T506 722T451 706Q413 706 388 731T361 795Q361 820 374 844T411 885T466 901Q505 901 531 876ZM729 901T755 876T781 813Q781
787 768 762T730 722T675 706Q637 706 612 731T585 795Q585 820 598 844T635 885T690 901Q729 901 755 876Z" />
<glyph unicode="&#xc5;" glyph-name="Aring" horiz-adv-x="698" d="M611 118Q607 105 607 92Q607 81 610 74T616 62T621 55Q631 45 631 35Q631 33 629 25Q625 11 612 6T570 0H333Q312 0 301 7T289 26Q289 32 292 39Q295 47 300 51T316 62Q332 71 342 82T359 118L385
204H229L202 147Q185 110 185 89Q185 77 189 70T201 54Q208 46 210 41T211 26Q207 11 195 6T155 0H6Q-17 0 -29 8T-41 31Q-41 47 -30 56T5 77Q35 92 53 106T84 147L262 516Q303 602 358 640T505 679Q607 679 663 638T719 522Q719 491 709 458L611 118ZM415 304L468
480Q472 492 472 505Q472 524 462 533T432 543Q408 543 391 529T357 479L275 304H415ZM528 706T496 734T463 803Q463 853 500 885T595 918Q644 918 676 891T709 823Q709 773 671 740T576 706Q528 706 496 734ZM586 760T594 773T610 818Q614 840 614 845Q614 864
599 864Q586 864 578 851T563 807Q559 783 559 779Q559 760 573 760Q586 760 594 773Z" />
<glyph unicode="&#xc6;" glyph-name="AE" horiz-adv-x="986" d="M1005 666T1025 650T1046 606Q1046 592 1042 579L1016 486Q1009 459 996 449T957 438Q933 438 920 448T899 483L883 540Q878 558 871 564T844 570H740L689 392H733Q740 392 752 402L786 432Q801
445 812 451T839 457Q857 457 868 448T880 423Q880 419 878 411L837 272Q831 250 817 240T785 229Q757 229 743 258L726 293Q719 308 704 308H665L605 96H694Q713 96 727 103T759 130L819 196Q835 213 849 220T885 228Q907 228 921 218T935 188Q935 180 932 169L903
68Q892 30 871 15T810 0H333Q312 0 301 7T289 26Q289 32 292 39Q295 47 300 51T316 62Q332 71 342 82T359 118L385 204H229L202 147Q185 110 185 89Q185 77 189 70T201 53Q208 46 210 41T211 26Q207 11 195 6T155 0H6Q-17 0 -29 8T-41 31Q-41 47 -30 56T4 77Q34
92 52 106T84 147L258 503Q290 567 321 602T395 651T501 666H968Q1005 666 1025 650ZM415 304L465 472Q469 484 469 497Q469 516 459 525T429 535Q405 535 388 521T354 471L276 304H415Z" />
<glyph unicode="&#xc7;" glyph-name="Ccedilla" horiz-adv-x="692" d="M731 668T746 657T761 625Q761 614 757 603L701 447Q692 420 680 409T642 398Q616 398 600 416T562 480Q538 527 523 542T479 557Q438 557 400 507T331 355Q305 270 305 213Q305 163 324 139T375
114Q422 114 452 135T515 192Q535 214 547 224T574 235Q592 235 612 217T631 181Q632 161 600 119T511 40T381 -4L367 -43Q407 -43 436 -68T465 -132Q465 -149 459 -165Q445 -205 403 -227T296 -250Q246 -250 202 -234T132 -194T106 -145Q106 -141 108 -133Q112
-123 122 -123Q129 -123 147 -133Q198 -162 246 -162Q296 -162 305 -134Q306 -131 306 -125Q306 -112 297 -106T274 -99Q265 -99 247 -101Q229 -103 222 -103Q202 -103 202 -85Q202 -82 204 -76L235 10Q150 37 101 101T51 263Q51 323 72 393Q118 543 211 609T410
676Q467 676 511 659T592 610L619 631Q646 652 664 660T706 668Q731 668 746 657Z" />
<glyph unicode="&#xc8;" glyph-name="Egrave" horiz-adv-x="671" d="M690 666T710 650T731 606Q731 592 727 579L701 486Q694 459 681 449T642 438Q618 438 605 448T584 483L568 540Q563 558 556 564T529 570H424L374 392H418Q425 392 437 402L471 432Q486 445
497 451T524 457Q542 457 553 448T565 423Q565 419 563 411L522 272Q516 250 502 240T470 229Q442 229 428 258L411 293Q404 308 389 308H350L291 96H379Q398 96 412 103T444 130L504 196Q520 213 534 220T570 228Q592 228 606 218T620 188Q620 180 617 169L588
68Q577 30 556 15T495 0H18Q-3 0 -14 7T-26 26Q-26 32 -23 39Q-19 50 -10 56T1 63Q17 73 27 83T44 118L167 549Q171 562 171 573Q171 585 168 593T157 610Q148 623 148 631Q148 634 150 642Q154 655 168 660T209 666H653Q690 666 710 650ZM484 753Q488 742 488
732Q488 720 481 712T463 704Q451 704 440 708T415 724L357 769Q329 792 317 810T304 851Q304 878 321 895T370 912Q402 912 423 893T459 832L484 753Z" />
<glyph unicode="&#xc9;" glyph-name="Eacute" horiz-adv-x="671" d="M690 666T710 650T731 606Q731 592 727 579L701 486Q694 459 681 449T642 438Q618 438 605 448T584 483L568 540Q563 558 556 564T529 570H424L374 392H418Q425 392 437 402L471 432Q486 445
497 451T524 457Q542 457 553 448T565 423Q565 419 563 411L522 272Q516 250 502 240T470 229Q442 229 428 258L411 293Q404 308 389 308H350L291 96H379Q398 96 412 103T444 130L504 196Q520 213 534 220T570 228Q592 228 606 218T620 188Q620 180 617 169L588
68Q577 30 556 15T495 0H18Q-3 0 -14 7T-26 26Q-26 32 -23 39Q-19 50 -10 56T1 63Q17 73 27 83T44 118L167 549Q171 562 171 573Q171 585 168 593T157 610Q148 623 148 631Q148 634 150 642Q154 655 168 660T209 666H653Q690 666 710 650ZM514 874T539 893T601
912Q632 912 650 896T668 851Q668 821 648 799T583 755L496 713Q477 705 464 705Q452 705 445 711T437 729Q437 742 447 759L490 832Q514 874 539 893Z" />
<glyph unicode="&#xca;" glyph-name="Ecircumflex" horiz-adv-x="671" d="M690 666T710 650T731 606Q731 592 727 579L701 486Q694 459 681 449T642 438Q618 438 605 448T584 483L568 540Q563 558 556 564T529 570H424L374 392H418Q425 392 437 402L471 432Q486
445 497 451T524 457Q542 457 553 448T565 423Q565 419 563 411L522 272Q516 250 502 240T470 229Q442 229 428 258L411 293Q404 308 389 308H350L291 96H379Q398 96 412 103T444 130L504 196Q520 213 534 220T570 228Q592 228 606 218T620 188Q620 180 617 169L588
68Q577 30 556 15T495 0H18Q-3 0 -14 7T-26 26Q-26 32 -23 39Q-19 50 -10 56T1 63Q17 73 27 83T44 118L167 549Q171 562 171 573Q171 585 168 593T157 610Q148 623 148 631Q148 634 150 642Q154 655 168 660T209 666H653Q690 666 710 650ZM621 756T621 741Q621
723 610 713T583 703Q560 703 539 720T491 773L483 783L439 754Q370 710 333 710Q320 710 313 717T306 735Q306 757 329 780L431 876Q450 894 471 904T511 915Q551 915 570 872L614 773Q621 756 621 741Z" />
<glyph unicode="&#xcb;" glyph-name="Edieresis" horiz-adv-x="671" d="M690 666T710 650T731 606Q731 592 727 579L701 486Q694 459 681 449T642 438Q618 438 605 448T584 483L568 540Q563 558 556 564T529 570H424L374 392H418Q425 392 437 402L471 432Q486
445 497 451T524 457Q542 457 553 448T565 423Q565 419 563 411L522 272Q516 250 502 240T470 229Q442 229 428 258L411 293Q404 308 389 308H350L291 96H379Q398 96 412 103T444 130L504 196Q520 213 534 220T570 228Q592 228 606 218T620 188Q620 180 617 169L588
68Q577 30 556 15T495 0H18Q-3 0 -14 7T-26 26Q-26 32 -23 39Q-19 50 -10 56T1 63Q17 73 27 83T44 118L167 549Q171 562 171 573Q171 585 168 593T157 610Q148 623 148 631Q148 634 150 642Q154 655 168 660T209 666H653Q690 666 710 650ZM409 901T435 876T461
813Q461 787 448 762T410 722T355 706Q317 706 292 731T265 795Q265 820 278 844T315 885T370 901Q409 901 435 876ZM633 901T659 876T685 813Q685 787 672 762T634 722T579 706Q541 706 516 731T489 795Q489 820 502 844T539 885T594 901Q633 901 659 876Z" />
<glyph unicode="&#xcc;" glyph-name="Igrave" horiz-adv-x="404" d="M465 666T476 660T488 641Q488 636 485 628Q482 621 477 616T467 608T460 603Q444 594 434 583T417 549L296 118Q292 105 292 93Q292 81 295 73T306 56Q315 43 315 35Q315 33 313 25Q309 11
295 6T253 0H18Q-3 0 -14 7T-26 26Q-26 32 -23 39Q-19 50 -10 56T1 63Q17 73 27 83T44 118L166 549Q170 562 170 574Q170 585 167 592T157 610Q148 623 148 631Q148 634 150 642Q154 655 167 660T209 666H444Q465 666 476 660ZM364 753Q368 742 368 732Q368 720
361 712T343 704Q331 704 320 708T295 724L237 769Q209 792 197 810T184 851Q184 878 201 895T250 912Q282 912 303 893T339 832L364 753Z" />
<glyph unicode="&#xcd;" glyph-name="Iacute" horiz-adv-x="404" d="M465 666T476 660T488 641Q488 636 485 628Q482 621 477 616T467 608T460 603Q444 594 434 583T417 549L296 118Q292 105 292 93Q292 81 295 73T306 56Q315 43 315 35Q315 33 313 25Q309 11
295 6T253 0H18Q-3 0 -14 7T-26 26Q-26 32 -23 39Q-19 50 -10 56T1 63Q17 73 27 83T44 118L166 549Q170 562 170 574Q170 585 167 592T157 610Q148 623 148 631Q148 634 150 642Q154 655 167 660T209 666H444Q465 666 476 660ZM394 874T419 893T481 912Q512 912
530 896T548 851Q548 821 528 799T463 755L376 713Q357 705 344 705Q332 705 325 711T317 729Q317 742 327 759L370 832Q394 874 419 893Z" />
<glyph unicode="&#xce;" glyph-name="Icircumflex" horiz-adv-x="404" d="M465 666T476 660T488 641Q488 636 485 628Q482 621 477 616T467 608T460 603Q444 594 434 583T417 549L296 118Q292 105 292 93Q292 81 295 73T306 56Q315 43 315 35Q315 33 313 25Q309
11 295 6T253 0H18Q-3 0 -14 7T-26 26Q-26 32 -23 39Q-19 50 -10 56T1 63Q17 73 27 83T44 118L166 549Q170 562 170 574Q170 585 167 592T157 610Q148 623 148 631Q148 634 150 642Q154 655 167 660T209 666H444Q465 666 476 660ZM501 756T501 741Q501 723 490
713T463 703Q440 703 419 720T371 773L363 783L319 754Q250 710 213 710Q200 710 193 717T186 735Q186 757 209 780L311 876Q330 894 351 904T391 915Q431 915 450 872L494 773Q501 756 501 741Z" />
<glyph unicode="&#xcf;" glyph-name="Idieresis" horiz-adv-x="404" d="M465 666T476 660T488 641Q488 636 485 628Q482 621 477 616T467 608T460 603Q444 594 434 583T417 549L296 118Q292 105 292 93Q292 81 295 73T306 56Q315 43 315 35Q315 33 313 25Q309
11 295 6T253 0H18Q-3 0 -14 7T-26 26Q-26 32 -23 39Q-19 50 -10 56T1 63Q17 73 27 83T44 118L166 549Q170 562 170 574Q170 585 167 592T157 610Q148 623 148 631Q148 634 150 642Q154 655 167 660T209 666H444Q465 666 476 660ZM289 901T315 876T341 813Q341
787 328 762T290 722T235 706Q197 706 172 731T145 795Q145 820 158 844T195 885T250 901Q289 901 315 876ZM513 901T539 876T565 813Q565 787 552 762T514 722T459 706Q421 706 396 731T369 795Q369 820 382 844T419 885T474 901Q513 901 539 876Z" />
<glyph unicode="&#xd0;" glyph-name="Eth" horiz-adv-x="760" d="M617 666T693 609T769 440Q769 385 749 313Q716 197 660 129T513 30T278 0L6 1Q-15 1 -26 8T-38 27Q-38 33 -35 40Q-32 49 -27 53T-10 64Q6 73 15 84T32 119L77 278L38 275Q18 274 8 282T-3 306Q-3
311 -1 321Q10 362 62 367L103 371L154 549Q158 562 158 574Q158 585 155 592T145 610Q136 623 136 631Q136 634 138 642Q142 655 155 660T197 666H467Q617 666 693 609ZM519 429T519 483Q519 536 497 556T434 576H412L361 393L415 398Q436 399 446 391T457 366Q457
362 455 352Q448 330 433 319T392 306L336 301L277 90H301Q347 90 378 109T437 181T493 335Q519 429 519 483Z" />
<glyph unicode="&#xd1;" glyph-name="Ntilde" horiz-adv-x="727" d="M820 666T820 640Q820 633 819 630Q816 620 810 615T793 602Q778 593 768 582T751 548L627 104Q610 44 585 20T514 -4Q474 -4 448 19T398 92L247 410L163 118Q160 105 160 95Q160 82 164 74T177
56Q188 43 188 34Q188 28 187 25Q183 11 169 6T127 0H18Q-23 0 -23 26Q-23 33 -22 36Q-19 46 -13 51T4 64Q19 73 29 84T46 118L173 567L157 600Q147 620 147 635Q147 666 187 666H335Q367 666 383 652T419 600L565 307L634 548Q637 562 637 571Q637 584 633 592T620
610Q609 623 609 632Q609 638 610 641Q614 655 628 660T670 666H779Q820 666 820 640ZM516 714T499 721T459 742Q456 744 445 750T425 759T409 762Q396 762 386 756T364 739Q362 737 356 732T344 727Q337 727 334 736T330 760Q330 776 334 792Q346 839 382 867T464
896Q482 896 499 889T539 869Q558 858 569 853T591 848Q604 848 614 854T636 871Q638 873 644 878T656 883Q662 883 666 874T670 852Q670 838 665 818Q654 771 618 743T536 714Q516 714 499 721Z" />
<glyph unicode="&#xd2;" glyph-name="Ograve" horiz-adv-x="733" d="M613 681T684 622T755 450Q755 397 739 336Q709 224 646 146T496 28T307 -12Q182 -12 111 47T40 219Q40 270 57 336Q86 447 148 524T297 641T487 681Q613 681 684 622ZM439 583T415 559T368
481T317 329Q277 189 277 136Q277 105 288 91T323 77Q353 77 377 101T424 180T475 329Q514 467 514 523Q514 555 503 569T469 583Q439 583 415 559ZM527 753Q531 742 531 732Q531 720 524 712T506 704Q494 704 483 708T458 724L400 769Q372 792 360 810T347 851Q347
878 364 895T413 912Q445 912 466 893T502 832L527 753Z" />
<glyph unicode="&#xd3;" glyph-name="Oacute" horiz-adv-x="733" d="M613 681T684 622T755 450Q755 397 739 336Q709 224 646 146T496 28T307 -12Q182 -12 111 47T40 219Q40 270 57 336Q86 447 148 524T297 641T487 681Q613 681 684 622ZM439 583T415 559T368
481T317 329Q277 189 277 136Q277 105 288 91T323 77Q353 77 377 101T424 180T475 329Q514 467 514 523Q514 555 503 569T469 583Q439 583 415 559ZM557 874T582 893T644 912Q675 912 693 896T711 851Q711 821 691 799T626 755L539 713Q520 705 507 705Q495 705
488 711T480 729Q480 742 490 759L533 832Q557 874 582 893Z" />
<glyph unicode="&#xd4;" glyph-name="Ocircumflex" horiz-adv-x="733" d="M613 681T684 622T755 450Q755 397 739 336Q709 224 646 146T496 28T307 -12Q182 -12 111 47T40 219Q40 270 57 336Q86 447 148 524T297 641T487 681Q613 681 684 622ZM439 583T415 559T368
481T317 329Q277 189 277 136Q277 105 288 91T323 77Q353 77 377 101T424 180T475 329Q514 467 514 523Q514 555 503 569T469 583Q439 583 415 559ZM664 756T664 741Q664 723 653 713T626 703Q603 703 582 720T534 773L526 783L482 754Q413 710 376 710Q363 710
356 717T349 735Q349 757 372 780L474 876Q493 894 514 904T554 915Q594 915 613 872L657 773Q664 756 664 741Z" />
<glyph unicode="&#xd5;" glyph-name="Otilde" horiz-adv-x="733" d="M613 681T684 622T755 450Q755 397 739 336Q709 224 646 146T496 28T307 -12Q182 -12 111 47T40 219Q40 270 57 336Q86 447 148 524T297 641T487 681Q613 681 684 622ZM439 583T415 559T368
481T317 329Q277 189 277 136Q277 105 288 91T323 77Q353 77 377 101T424 180T475 329Q514 467 514 523Q514 555 503 569T469 583Q439 583 415 559ZM559 714T542 721T502 742Q499 744 488 750T468 759T452 762Q439 762 429 756T407 739Q405 737 399 732T387 727Q380
727 377 736T373 760Q373 776 377 792Q389 839 425 867T507 896Q525 896 542 889T582 869Q601 858 612 853T634 848Q647 848 657 854T679 871Q681 873 687 878T699 883Q705 883 709 874T713 852Q713 838 708 818Q697 771 661 743T579 714Q559 714 542 721Z" />
<glyph unicode="&#xd6;" glyph-name="Odieresis" horiz-adv-x="733" d="M613 681T684 622T755 450Q755 397 739 336Q709 224 646 146T496 28T307 -12Q182 -12 111 47T40 219Q40 270 57 336Q86 447 148 524T297 641T487 681Q613 681 684 622ZM439 583T415 559T368
481T317 329Q277 189 277 136Q277 105 288 91T323 77Q353 77 377 101T424 180T475 329Q514 467 514 523Q514 555 503 569T469 583Q439 583 415 559ZM452 901T478 876T504 813Q504 787 491 762T453 722T398 706Q360 706 335 731T308 795Q308 820 321 844T358 885T413
901Q452 901 478 876ZM676 901T702 876T728 813Q728 787 715 762T677 722T622 706Q584 706 559 731T532 795Q532 820 545 844T582 885T637 901Q676 901 702 876Z" />
<glyph unicode="&#xd7;" glyph-name="multiply" horiz-adv-x="663" d="M635 555T649 540T664 503Q664 492 662 487Q658 473 649 463T619 440L448 329L539 236Q571 202 571 175Q571 152 555 138T519 124Q492 124 457 159L352 267L162 144Q133 124 108 124Q86 124
72 139T58 175Q58 185 60 191Q67 215 102 239L272 349L183 441Q167 457 159 471T151 499Q151 523 166 538T204 554Q218 554 231 547T261 522L368 412L559 535Q590 555 613 555Q635 555 649 540Z" />
<glyph unicode="&#xd8;" glyph-name="Oslash" horiz-adv-x="764" d="M789 676T800 661T812 627Q812 621 811 618Q809 605 802 597T781 576L749 550Q767 506 767 451Q767 397 751 336Q721 224 658 146T508 28T319 -12Q198 -12 128 43L88 10Q66 -7 46 -7Q31 -7 19
8T7 41Q7 57 14 69T40 96L70 121Q52 163 52 220Q52 275 69 336Q98 447 160 524T309 641T499 681Q619 681 691 626L731 659Q753 676 769 676Q789 676 800 661ZM451 583T427 560T380 482T330 332L524 490Q526 514 526 522Q526 554 515 568T481 583Q451 583 427 560ZM490
338L293 177Q289 145 289 136Q289 105 300 91T335 77Q365 77 389 101T436 180T487 329L490 338Z" />
<glyph unicode="&#xd9;" glyph-name="Ugrave" horiz-adv-x="788" d="M630 600T664 635T760 670Q808 670 837 640T866 564Q866 549 861 529Q850 485 822 466T761 446Q744 446 731 448T705 455L646 238Q614 119 539 57T335 -6Q217 -6 152 39T86 179Q86 225 102 280L178
549Q182 562 182 574Q182 586 179 593T169 611Q160 624 160 632Q160 636 162 642Q166 655 180 660T221 666H456Q499 666 499 640Q499 634 498 630Q495 621 490 616T473 603Q457 594 447 583T430 549L343 243Q334 209 334 185Q334 118 406 118Q450 118 479 146T529
244L611 531Q630 600 664 635ZM583 753Q587 742 587 732Q587 720 580 712T562 704Q550 704 539 708T514 724L456 769Q428 792 416 810T403 851Q403 878 420 895T469 912Q501 912 522 893T558 832L583 753Z" />
<glyph unicode="&#xda;" glyph-name="Uacute" horiz-adv-x="788" d="M630 600T664 635T760 670Q808 670 837 640T866 564Q866 549 861 529Q850 485 822 466T761 446Q744 446 731 448T705 455L646 238Q614 119 539 57T335 -6Q217 -6 152 39T86 179Q86 225 102 280L178
549Q182 562 182 574Q182 586 179 593T169 611Q160 624 160 632Q160 636 162 642Q166 655 180 660T221 666H456Q499 666 499 640Q499 634 498 630Q495 621 490 616T473 603Q457 594 447 583T430 549L343 243Q334 209 334 185Q334 118 406 118Q450 118 479 146T529
244L611 531Q630 600 664 635ZM613 874T638 893T700 912Q731 912 749 896T767 851Q767 821 747 799T682 755L595 713Q576 705 563 705Q551 705 544 711T536 729Q536 742 546 759L589 832Q613 874 638 893Z" />
<glyph unicode="&#xdb;" glyph-name="Ucircumflex" horiz-adv-x="788" d="M630 600T664 635T760 670Q808 670 837 640T866 564Q866 549 861 529Q850 485 822 466T761 446Q744 446 731 448T705 455L646 238Q614 119 539 57T335 -6Q217 -6 152 39T86 179Q86 225
102 280L178 549Q182 562 182 574Q182 586 179 593T169 611Q160 624 160 632Q160 636 162 642Q166 655 180 660T221 666H456Q499 666 499 640Q499 634 498 630Q495 621 490 616T473 603Q457 594 447 583T430 549L343 243Q334 209 334 185Q334 118 406 118Q450 118
479 146T529 244L611 531Q630 600 664 635ZM720 756T720 741Q720 723 709 713T682 703Q659 703 638 720T590 773L582 783L538 754Q469 710 432 710Q419 710 412 717T405 735Q405 757 428 780L530 876Q549 894 570 904T610 915Q650 915 669 872L713 773Q720 756
720 741Z" />
<glyph unicode="&#xdc;" glyph-name="Udieresis" horiz-adv-x="788" d="M630 600T664 635T760 670Q808 670 837 640T866 564Q866 549 861 529Q850 485 822 466T761 446Q744 446 731 448T705 455L646 238Q614 119 539 57T335 -6Q217 -6 152 39T86 179Q86 225 102
280L178 549Q182 562 182 574Q182 586 179 593T169 611Q160 624 160 632Q160 636 162 642Q166 655 180 660T221 666H456Q499 666 499 640Q499 634 498 630Q495 621 490 616T473 603Q457 594 447 583T430 549L343 243Q334 209 334 185Q334 118 406 118Q450 118 479
146T529 244L611 531Q630 600 664 635ZM508 901T534 876T560 813Q560 787 547 762T509 722T454 706Q416 706 391 731T364 795Q364 820 377 844T414 885T469 901Q508 901 534 876ZM732 901T758 876T784 813Q784 787 771 762T733 722T678 706Q640 706 615 731T588
795Q588 820 601 844T638 885T693 901Q732 901 758 876Z" />
<glyph unicode="&#xdd;" glyph-name="Yacute" horiz-adv-x="789" d="M842 670T870 642T898 569Q898 563 896 547Q888 499 859 476T790 453Q764 453 746 461T712 488L547 273L501 118Q499 112 499 102Q499 88 506 79T526 58Q537 48 542 41T544 25Q540 11 525 6T482
0H230Q204 0 192 9T183 36Q185 45 190 50T208 64Q223 73 233 84T250 118L296 274L204 536Q194 565 181 580T149 611Q138 619 133 625T128 639Q128 651 138 658T169 666H436Q471 666 484 660T498 639Q498 630 494 624T482 608Q473 596 469 589T464 570Q464 567 466
557L512 381L639 562Q680 620 716 645T798 670Q842 670 870 642ZM615 874T640 893T702 912Q733 912 751 896T769 851Q769 821 749 799T684 755L597 713Q578 705 565 705Q553 705 546 711T538 729Q538 742 548 759L591 832Q615 874 640 893Z" />
<glyph unicode="&#xde;" glyph-name="Thorn" horiz-adv-x="693" d="M641 518T692 483T743 383Q743 355 734 325Q710 239 639 200T435 161H308L296 118Q292 105 292 93Q292 81 295 73T306 56Q315 43 315 35Q315 33 313 25Q309 11 295 6T253 0H18Q-3 0 -14 7T-26
26Q-26 32 -23 39Q-19 50 -10 56T1 63Q17 73 27 83T44 118L166 549Q170 562 170 574Q170 585 167 592T157 610Q148 623 148 631Q148 634 150 642Q154 655 167 660T209 666H444Q465 666 476 660T488 641Q488 636 485 628Q482 621 477 616T467 608T460 603Q444 594
434 583T417 549L408 518H536Q641 518 692 483ZM492 366T492 380Q492 428 436 428H383L333 251H386Q460 251 485 340Q492 366 492 380Z" />
<glyph unicode="&#xdf;" glyph-name="germandbls" horiz-adv-x="720" d="M313 666T237 623T128 471L17 106Q10 82 0 71T-25 52Q-42 43 -46 31Q-50 17 -38 9T0 0H228Q259 0 274 6T294 25Q296 32 293 36T283 48Q274 55 269 62T264 83Q264 92 267 104L393 514Q405
554 420 570T457 587Q470 587 479 577T488 548Q488 535 482 515Q473 487 461 468T428 423Q404 394 400 378Q397 367 402 356T420 325Q436 300 445 280T454 235Q454 212 448 194Q439 166 420 151T376 135Q360 135 350 139T335 144Q326 144 320 125Q317 113 317 102Q317
74 335 50T389 11T474 -4Q554 -4 614 39T692 152Q699 177 699 203Q699 255 676 292T615 363Q604 373 597 382T589 396Q589 401 598 406T625 419Q662 435 684 450T715 491Q720 508 720 521Q720 560 689 593T596 646T449 666Q313 666 237 623Z" />
<glyph unicode="&#xe0;" glyph-name="agrave" horiz-adv-x="654" d="M472 529T541 487T610 357Q610 324 598 282L557 144Q556 140 556 134Q556 118 569 118Q581 118 589 128T601 139Q606 139 609 132T613 116Q614 89 593 61T535 15T456 -3Q404 -3 367 16T316 72Q286
36 245 17T157 -3Q104 -3 68 17T15 70T-3 139Q-3 155 0 170Q16 239 69 274T197 309Q280 309 360 283L385 349Q398 391 398 414Q397 438 382 450T336 462Q342 446 342 429Q342 392 314 365T234 338Q185 338 158 359T130 413Q130 463 186 496T357 529Q472 529 541
487ZM273 226T256 205T238 158Q238 142 245 132T267 122Q280 122 295 132T318 164L339 223Q322 226 301 226Q273 226 256 205ZM458 602Q462 591 462 581Q462 569 455 561T437 553Q425 553 414 557T389 573L331 618Q303 641 291 659T278 700Q278 727 295 744T344
761Q376 761 397 742T433 681L458 602Z" />
<glyph unicode="&#xe1;" glyph-name="aacute" horiz-adv-x="654" d="M472 529T541 487T610 357Q610 324 598 282L557 144Q556 140 556 134Q556 118 569 118Q581 118 589 128T601 139Q606 139 609 132T613 116Q614 89 593 61T535 15T456 -3Q404 -3 367 16T316 72Q286
36 245 17T157 -3Q104 -3 68 17T15 70T-3 139Q-3 155 0 170Q16 239 69 274T197 309Q280 309 360 283L385 349Q398 391 398 414Q397 438 382 450T336 462Q342 446 342 429Q342 392 314 365T234 338Q185 338 158 359T130 413Q130 463 186 496T357 529Q472 529 541
487ZM273 226T256 205T238 158Q238 142 245 132T267 122Q280 122 295 132T318 164L339 223Q322 226 301 226Q273 226 256 205ZM488 723T513 742T575 761Q606 761 624 745T642 700Q642 670 622 648T557 604L470 562Q451 554 438 554Q426 554 419 560T411 578Q411
591 421 608L464 681Q488 723 513 742Z" />
<glyph unicode="&#xe2;" glyph-name="acircumflex" horiz-adv-x="654" d="M472 529T541 487T610 357Q610 324 598 282L557 144Q556 140 556 134Q556 118 569 118Q581 118 589 128T601 139Q606 139 609 132T613 116Q614 89 593 61T535 15T456 -3Q404 -3 367 16T316
72Q286 36 245 17T157 -3Q104 -3 68 17T15 70T-3 139Q-3 155 0 170Q16 239 69 274T197 309Q280 309 360 283L385 349Q398 391 398 414Q397 438 382 450T336 462Q342 446 342 429Q342 392 314 365T234 338Q185 338 158 359T130 413Q130 463 186 496T357 529Q472
529 541 487ZM273 226T256 205T238 158Q238 142 245 132T267 122Q280 122 295 132T318 164L339 223Q322 226 301 226Q273 226 256 205ZM595 605T595 590Q595 572 584 562T557 552Q534 552 513 569T465 622L457 632L413 603Q344 559 307 559Q294 559 287 566T280
584Q280 606 303 629L405 725Q424 743 445 753T485 764Q525 764 544 721L588 622Q595 605 595 590Z" />
<glyph unicode="&#xe3;" glyph-name="atilde" horiz-adv-x="654" d="M472 529T541 487T610 357Q610 324 598 282L557 144Q556 140 556 134Q556 118 569 118Q581 118 589 128T601 139Q606 139 609 132T613 116Q614 89 593 61T535 15T456 -3Q404 -3 367 16T316 72Q286
36 245 17T157 -3Q104 -3 68 17T15 70T-3 139Q-3 155 0 170Q16 239 69 274T197 309Q280 309 360 283L385 349Q398 391 398 414Q397 438 382 450T336 462Q342 446 342 429Q342 392 314 365T234 338Q185 338 158 359T130 413Q130 463 186 496T357 529Q472 529 541
487ZM273 226T256 205T238 158Q238 142 245 132T267 122Q280 122 295 132T318 164L339 223Q322 226 301 226Q273 226 256 205ZM449 563T432 570T392 591Q389 593 378 599T358 608T342 611Q329 611 319 605T297 588Q295 586 289 581T277 576Q270 576 267 585T263
609Q263 625 267 641Q279 688 315 716T397 745Q415 745 432 738T472 718Q491 707 502 702T524 697Q537 697 547 703T569 720Q571 722 577 727T589 732Q595 732 599 723T603 701Q603 687 598 667Q587 620 551 592T469 563Q449 563 432 570Z" />
<glyph unicode="&#xe4;" glyph-name="adieresis" horiz-adv-x="654" d="M472 529T541 487T610 357Q610 324 598 282L557 144Q556 140 556 134Q556 118 569 118Q581 118 589 128T601 139Q606 139 609 132T613 116Q614 89 593 61T535 15T456 -3Q404 -3 367 16T316
72Q286 36 245 17T157 -3Q104 -3 68 17T15 70T-3 139Q-3 155 0 170Q16 239 69 274T197 309Q280 309 360 283L385 349Q398 391 398 414Q397 438 382 450T336 462Q342 446 342 429Q342 392 314 365T234 338Q185 338 158 359T130 413Q130 463 186 496T357 529Q472
529 541 487ZM273 226T256 205T238 158Q238 142 245 132T267 122Q280 122 295 132T318 164L339 223Q322 226 301 226Q273 226 256 205ZM383 750T409 725T435 662Q435 636 422 611T384 571T329 555Q291 555 266 580T239 644Q239 669 252 693T289 734T344 750Q383
750 409 725ZM607 750T633 725T659 662Q659 636 646 611T608 571T553 555Q515 555 490 580T463 644Q463 669 476 693T513 734T568 750Q607 750 633 725Z" />
<glyph unicode="&#xe5;" glyph-name="aring" horiz-adv-x="654" d="M472 529T541 487T610 357Q610 324 598 282L557 144Q556 140 556 134Q556 118 569 118Q581 118 589 128T601 139Q606 139 609 132T613 116Q614 89 593 61T535 15T456 -3Q404 -3 367 16T316 72Q286
36 245 17T157 -3Q104 -3 68 17T15 70T-3 139Q-3 155 0 170Q16 239 69 274T197 309Q280 309 360 283L385 349Q398 391 398 414Q397 438 382 450T336 462Q342 446 342 429Q342 392 314 365T234 338Q185 338 158 359T130 413Q130 463 186 496T357 529Q472 529 541
487ZM273 226T256 205T238 158Q238 142 245 132T267 122Q280 122 295 132T318 164L339 223Q322 226 301 226Q273 226 256 205ZM406 555T374 583T341 652Q341 702 378 734T473 767Q522 767 554 740T587 672Q587 622 549 589T454 555Q406 555 374 583ZM464 609T472
622T488 667Q492 689 492 694Q492 713 477 713Q464 713 456 700T441 656Q437 632 437 628Q437 609 451 609Q464 609 472 622Z" />
<glyph unicode="&#xe6;" glyph-name="ae" horiz-adv-x="905" d="M811 534T868 494T925 390Q925 371 921 355Q906 289 838 261T676 232Q628 232 588 238Q587 186 616 165T697 144Q721 144 743 149T799 166Q827 176 837 176Q848 176 848 163Q849 128 822 89T739
24T604 -3Q466 -3 410 64Q318 -3 207 -3Q133 -3 86 17T18 71T-3 141Q-3 157 0 170Q16 239 69 274T197 309Q286 309 360 283L382 340Q398 384 398 414Q397 438 382 450T336 462Q342 446 342 429Q342 392 314 365T234 338Q185 338 158 359T130 413Q130 463 186 496T357
529Q456 529 521 498Q592 534 684 534Q811 534 868 494ZM599 297T606 297Q648 297 670 336T691 423Q690 451 675 451Q664 451 649 434T620 381T595 298Q599 297 606 297ZM291 95T306 131L337 220Q322 226 301 226Q278 226 263 212T238 168Q232 149 232 133Q232
115 240 105T264 95Q291 95 306 131Z" />
<glyph unicode="&#xe7;" glyph-name="ccedilla" horiz-adv-x="542" d="M417 309T390 333T363 400Q363 420 369 442Q327 431 295 399T251 313Q245 283 245 259Q245 205 275 177T361 149Q393 149 416 155T463 173Q483 183 492 183Q498 183 500 181T502 170Q503 137
478 101T408 37T304 0L289 -43Q329 -43 358 -68T387 -132Q387 -149 381 -165Q367 -205 325 -227T218 -250Q168 -250 124 -234T54 -194T28 -145Q28 -141 30 -133Q34 -123 44 -123Q51 -123 69 -133Q120 -162 168 -162Q218 -162 227 -134Q228 -131 228 -125Q228 -112
219 -106T196 -99Q187 -99 169 -101Q151 -103 144 -103Q124 -103 124 -85Q124 -82 126 -76L158 13Q92 36 54 88T16 215Q16 246 24 284Q51 408 143 471T363 534Q424 534 470 517T541 469T567 401Q567 361 540 335T465 309Q417 309 390 333Z" />
<glyph unicode="&#xe8;" glyph-name="egrave" horiz-adv-x="560" d="M466 534T523 494T580 390Q580 371 576 355Q561 289 493 261T331 232Q284 232 243 238Q242 186 271 165T352 144Q376 144 398 149T454 166Q482 176 492 176Q503 176 503 163Q504 128 477 90T397
24T269 -3Q158 -3 87 53T16 216Q16 246 24 286Q49 409 133 471T339 534Q466 534 523 494ZM254 297T261 297Q303 297 325 336T346 423Q345 451 330 451Q319 451 304 434T275 381T250 298Q254 297 261 297ZM400 602Q404 591 404 581Q404 569 397 561T379 553Q367
553 356 557T331 573L273 618Q245 641 233 659T220 700Q220 727 237 744T286 761Q318 761 339 742T375 681L400 602Z" />
<glyph unicode="&#xe9;" glyph-name="eacute" horiz-adv-x="560" d="M466 534T523 494T580 390Q580 371 576 355Q561 289 493 261T331 232Q284 232 243 238Q242 186 271 165T352 144Q376 144 398 149T454 166Q482 176 492 176Q503 176 503 163Q504 128 477 90T397
24T269 -3Q158 -3 87 53T16 216Q16 246 24 286Q49 409 133 471T339 534Q466 534 523 494ZM254 297T261 297Q303 297 325 336T346 423Q345 451 330 451Q319 451 304 434T275 381T250 298Q254 297 261 297ZM430 723T455 742T517 761Q548 761 566 745T584 700Q584
670 564 648T499 604L412 562Q393 554 380 554Q368 554 361 560T353 578Q353 591 363 608L406 681Q430 723 455 742Z" />
<glyph unicode="&#xea;" glyph-name="ecircumflex" horiz-adv-x="560" d="M466 534T523 494T580 390Q580 371 576 355Q561 289 493 261T331 232Q284 232 243 238Q242 186 271 165T352 144Q376 144 398 149T454 166Q482 176 492 176Q503 176 503 163Q504 128 477
90T397 24T269 -3Q158 -3 87 53T16 216Q16 246 24 286Q49 409 133 471T339 534Q466 534 523 494ZM254 297T261 297Q303 297 325 336T346 423Q345 451 330 451Q319 451 304 434T275 381T250 298Q254 297 261 297ZM537 605T537 590Q537 572 526 562T499 552Q476 552
455 569T407 622L399 632L355 603Q286 559 249 559Q236 559 229 566T222 584Q222 606 245 629L347 725Q366 743 387 753T427 764Q467 764 486 721L530 622Q537 605 537 590Z" />
<glyph unicode="&#xeb;" glyph-name="edieresis" horiz-adv-x="560" d="M466 534T523 494T580 390Q580 371 576 355Q561 289 493 261T331 232Q284 232 243 238Q242 186 271 165T352 144Q376 144 398 149T454 166Q482 176 492 176Q503 176 503 163Q504 128 477
90T397 24T269 -3Q158 -3 87 53T16 216Q16 246 24 286Q49 409 133 471T339 534Q466 534 523 494ZM254 297T261 297Q303 297 325 336T346 423Q345 451 330 451Q319 451 304 434T275 381T250 298Q254 297 261 297ZM325 750T351 725T377 662Q377 636 364 611T326 571T271
555Q233 555 208 580T181 644Q181 669 194 693T231 734T286 750Q325 750 351 725ZM549 750T575 725T601 662Q601 636 588 611T550 571T495 555Q457 555 432 580T405 644Q405 669 418 693T455 734T510 750Q549 750 575 725Z" />
<glyph unicode="&#xec;" glyph-name="igrave" horiz-adv-x="366" d="M318 529T345 507T372 447Q372 424 365 403L273 104Q270 92 270 83Q270 70 275 63T289 48Q296 41 299 37T300 25Q295 12 280 6T234 0H6Q-20 0 -32 8T-40 31Q-36 43 -19 52Q-4 60 6 71T23 106L110
395Q113 404 113 410Q113 421 108 427T93 441Q83 449 79 455T78 471Q84 494 141 511T260 529Q318 529 345 507ZM570 602Q574 591 574 581Q574 569 567 561T549 553Q537 553 526 557T501 573L443 618Q415 641 403 659T390 700Q390 727 407 744T456 761Q488 761 509
742T545 681L570 602Z" />
<glyph unicode="&#xed;" glyph-name="iacute" horiz-adv-x="366" d="M318 529T345 507T372 447Q372 424 365 403L273 104Q270 92 270 83Q270 70 275 63T289 48Q296 41 299 37T300 25Q295 12 280 6T234 0H6Q-20 0 -32 8T-40 31Q-36 43 -19 52Q-4 60 6 71T23 106L110
395Q113 404 113 410Q113 421 108 427T93 441Q83 449 79 455T78 471Q84 494 141 511T260 529Q318 529 345 507ZM344 723T369 742T431 761Q462 761 480 745T498 700Q498 670 478 648T413 604L326 562Q307 554 294 554Q282 554 275 560T267 578Q267 591 277 608L320
681Q344 723 369 742Z" />
<glyph unicode="&#xee;" glyph-name="icircumflex" horiz-adv-x="366" d="M318 529T345 507T372 447Q372 424 365 403L273 104Q270 92 270 83Q270 70 275 63T289 48Q296 41 299 37T300 25Q295 12 280 6T234 0H6Q-20 0 -32 8T-40 31Q-36 43 -19 52Q-4 60 6 71T23
106L110 395Q113 404 113 410Q113 421 108 427T93 441Q83 449 79 455T78 471Q84 494 141 511T260 529Q318 529 345 507ZM707 605T707 590Q707 572 696 562T669 552Q646 552 625 569T577 622L569 632L525 603Q456 559 419 559Q406 559 399 566T392 584Q392 606 415
629L517 725Q536 743 557 753T597 764Q637 764 656 721L700 622Q707 605 707 590Z" />
<glyph unicode="&#xef;" glyph-name="idieresis" horiz-adv-x="366" d="M318 529T345 507T372 447Q372 424 365 403L273 104Q270 92 270 83Q270 70 275 63T289 48Q296 41 299 37T300 25Q295 12 280 6T234 0H6Q-20 0 -32 8T-40 31Q-36 43 -19 52Q-4 60 6 71T23
106L110 395Q113 404 113 410Q113 421 108 427T93 441Q83 449 79 455T78 471Q84 494 141 511T260 529Q318 529 345 507ZM495 750T521 725T547 662Q547 636 534 611T496 571T441 555Q403 555 378 580T351 644Q351 669 364 693T401 734T456 750Q495 750 521 725ZM719
750T745 725T771 662Q771 636 758 611T720 571T665 555Q627 555 602 580T575 644Q575 669 588 693T625 734T680 750Q719 750 745 725Z" />
<glyph unicode="&#xf0;" glyph-name="eth" horiz-adv-x="682" d="M684 584T626 576L608 574Q636 524 651 466T666 351Q666 300 655 257Q635 178 584 118T458 25T295 -9Q156 -9 90 46T23 194Q23 225 31 263Q48 332 92 385T204 467T352 497Q421 497 475 471Q475
516 461 555L381 545Q374 544 361 544Q306 544 306 584Q306 603 319 612T364 627L418 634Q402 656 384 675Q366 696 360 705T355 722Q358 739 388 739Q431 739 474 716T553 652L609 659Q623 661 629 661Q656 661 670 650T684 617Q684 584 626 576ZM413 335T413
372Q413 394 406 402T386 410Q365 410 343 376T292 246Q264 154 264 115Q264 93 271 86T291 78Q311 76 333 111T386 247Q413 335 413 372Z" />
<glyph unicode="&#xf1;" glyph-name="ntilde" horiz-adv-x="716" d="M619 138Q617 134 617 126Q617 119 620 115T630 111Q642 111 650 121T662 132Q667 132 670 126T673 110Q674 81 654 54T596 9T503 -9Q437 -9 398 21T358 103Q358 140 376 186L431 330Q436 343
436 351Q436 364 428 371T407 379Q385 379 365 359T336 308L274 104Q270 93 270 83Q270 71 275 64T289 48Q296 42 299 37T300 25Q296 12 281 6T234 0H6Q-20 0 -31 8T-40 31Q-36 43 -19 52Q-4 60 6 71T23 106L112 395Q114 400 114 409Q114 420 110 426T95 441Q85
449 81 455T80 471Q86 494 143 511T262 529Q312 529 341 502T367 425Q408 484 454 506T554 529Q615 529 652 492T690 396Q690 365 680 335L619 138ZM500 563T483 570T443 591Q440 593 429 599T409 608T393 611Q380 611 370 605T348 588Q346 586 340 581T328 576Q321
576 318 585T314 609Q314 625 318 641Q330 688 366 716T448 745Q466 745 483 738T523 718Q542 707 553 702T575 697Q588 697 598 703T620 720Q622 722 628 727T640 732Q646 732 650 723T654 701Q654 687 649 667Q638 620 602 592T520 563Q500 563 483 570Z" />
<glyph unicode="&#xf2;" glyph-name="ograve" horiz-adv-x="656" d="M523 529T587 474T652 330Q652 300 644 263Q625 181 573 120T446 25T282 -9Q143 -9 77 46T10 194Q10 225 18 263Q37 341 90 401T221 495T387 529Q523 529 587 474ZM363 440T340 403T284 261Q252
157 252 115Q252 93 259 86T278 78Q299 76 321 114T378 262Q409 359 409 403Q409 424 403 432T384 440Q363 440 340 403ZM470 602Q474 591 474 581Q474 569 467 561T449 553Q437 553 426 557T401 573L343 618Q315 641 303 659T290 700Q290 727 307 744T356 761Q388
761 409 742T445 681L470 602Z" />
<glyph unicode="&#xf3;" glyph-name="oacute" horiz-adv-x="656" d="M523 529T587 474T652 330Q652 300 644 263Q625 181 573 120T446 25T282 -9Q143 -9 77 46T10 194Q10 225 18 263Q37 341 90 401T221 495T387 529Q523 529 587 474ZM363 440T340 403T284 261Q252
157 252 115Q252 93 259 86T278 78Q299 76 321 114T378 262Q409 359 409 403Q409 424 403 432T384 440Q363 440 340 403ZM500 723T525 742T587 761Q618 761 636 745T654 700Q654 670 634 648T569 604L482 562Q463 554 450 554Q438 554 431 560T423 578Q423 591
433 608L476 681Q500 723 525 742Z" />
<glyph unicode="&#xf4;" glyph-name="ocircumflex" horiz-adv-x="656" d="M523 529T587 474T652 330Q652 300 644 263Q625 181 573 120T446 25T282 -9Q143 -9 77 46T10 194Q10 225 18 263Q37 341 90 401T221 495T387 529Q523 529 587 474ZM363 440T340 403T284
261Q252 157 252 115Q252 93 259 86T278 78Q299 76 321 114T378 262Q409 359 409 403Q409 424 403 432T384 440Q363 440 340 403ZM607 605T607 590Q607 572 596 562T569 552Q546 552 525 569T477 622L469 632L425 603Q356 559 319 559Q306 559 299 566T292 584Q292
606 315 629L417 725Q436 743 457 753T497 764Q537 764 556 721L600 622Q607 605 607 590Z" />
<glyph unicode="&#xf5;" glyph-name="otilde" horiz-adv-x="656" d="M523 529T587 474T652 330Q652 300 644 263Q625 181 573 120T446 25T282 -9Q143 -9 77 46T10 194Q10 225 18 263Q37 341 90 401T221 495T387 529Q523 529 587 474ZM363 440T340 403T284 261Q252
157 252 115Q252 93 259 86T278 78Q299 76 321 114T378 262Q409 359 409 403Q409 424 403 432T384 440Q363 440 340 403ZM487 563T470 570T430 591Q427 593 416 599T396 608T380 611Q367 611 357 605T335 588Q333 586 327 581T315 576Q308 576 305 585T301 609Q301
625 305 641Q317 688 353 716T435 745Q453 745 470 738T510 718Q529 707 540 702T562 697Q575 697 585 703T607 720Q609 722 615 727T627 732Q633 732 637 723T641 701Q641 687 636 667Q625 620 589 592T507 563Q487 563 470 570Z" />
<glyph unicode="&#xf6;" glyph-name="odieresis" horiz-adv-x="656" d="M523 529T587 474T652 330Q652 300 644 263Q625 181 573 120T446 25T282 -9Q143 -9 77 46T10 194Q10 225 18 263Q37 341 90 401T221 495T387 529Q523 529 587 474ZM363 440T340 403T284 261Q252
157 252 115Q252 93 259 86T278 78Q299 76 321 114T378 262Q409 359 409 403Q409 424 403 432T384 440Q363 440 340 403ZM395 750T421 725T447 662Q447 636 434 611T396 571T341 555Q303 555 278 580T251 644Q251 669 264 693T301 734T356 750Q395 750 421 725ZM619
750T645 725T671 662Q671 636 658 611T620 571T565 555Q527 555 502 580T475 644Q475 669 488 693T525 734T580 750Q619 750 645 725Z" />
<glyph unicode="&#xf7;" glyph-name="divide" horiz-adv-x="599" d="M405 611T425 591T446 540Q446 508 422 482T360 456Q331 456 311 476T290 525Q290 558 314 584T374 611Q405 611 425 591ZM42 379T64 395T118 411H561Q616 411 616 368Q616 357 614 350Q595
289 530 289H87Q60 289 46 299T32 330Q32 340 35 350Q42 379 64 395ZM320 244T340 224T361 173Q361 141 337 115T275 89Q246 89 226 109T205 158Q205 191 229 217T289 244Q320 244 340 224Z" />
<glyph unicode="&#xf8;" glyph-name="oslash" horiz-adv-x="682" d="M675 520T685 509T695 483Q695 478 694 475Q693 466 687 459T668 444L642 425Q665 385 665 330Q665 300 657 263Q638 181 586 120T459 25T295 -9Q172 -9 104 37L71 13Q61 6 53 3T35 0Q20 0 10
14T2 43Q6 62 30 79L49 93Q23 136 23 195Q23 226 31 263Q50 341 103 401T234 495T400 529Q520 529 590 482L625 507Q645 520 658 520Q675 520 685 509ZM373 440T350 404T295 269L421 361Q425 382 425 400Q425 423 418 431T396 440Q373 440 350 404ZM313 76T336
110T390 243L265 153Q262 134 262 119Q262 95 270 87T292 78Q313 76 336 110Z" />
<glyph unicode="&#xf9;" glyph-name="ugrave" horiz-adv-x="686" d="M594 138Q592 130 592 126Q592 119 595 115T605 111Q617 111 625 121T637 132Q642 132 645 126T649 110Q650 82 629 55T570 9T485 -9Q426 -9 391 15T346 78Q310 38 267 18T178 -3Q108 -3 61
31T13 128Q13 156 23 186L87 395Q90 404 90 410Q90 421 85 427T70 441Q60 449 56 455T55 471Q61 494 118 511T237 529Q295 529 322 507T349 447Q349 424 342 403L279 195Q275 184 275 174Q275 160 283 153T304 146Q323 146 335 157T359 194L420 395Q423 404 423
410Q423 421 418 427T404 441Q394 449 390 455T389 471Q394 494 451 511T570 529Q628 529 655 507T683 448Q683 429 675 403L594 138ZM437 602Q441 591 441 581Q441 569 434 561T416 553Q404 553 393 557T368 573L310 618Q282 641 270 659T257 700Q257 727 274
744T323 761Q355 761 376 742T412 681L437 602Z" />
<glyph unicode="&#xfa;" glyph-name="uacute" horiz-adv-x="686" d="M594 138Q592 130 592 126Q592 119 595 115T605 111Q617 111 625 121T637 132Q642 132 645 126T649 110Q650 82 629 55T570 9T485 -9Q426 -9 391 15T346 78Q310 38 267 18T178 -3Q108 -3 61
31T13 128Q13 156 23 186L87 395Q90 404 90 410Q90 421 85 427T70 441Q60 449 56 455T55 471Q61 494 118 511T237 529Q295 529 322 507T349 447Q349 424 342 403L279 195Q275 184 275 174Q275 160 283 153T304 146Q323 146 335 157T359 194L420 395Q423 404 423
410Q423 421 418 427T404 441Q394 449 390 455T389 471Q394 494 451 511T570 529Q628 529 655 507T683 448Q683 429 675 403L594 138ZM467 723T492 742T554 761Q585 761 603 745T621 700Q621 670 601 648T536 604L449 562Q430 554 417 554Q405 554 398 560T390
578Q390 591 400 608L443 681Q467 723 492 742Z" />
<glyph unicode="&#xfb;" glyph-name="ucircumflex" horiz-adv-x="686" d="M594 138Q592 130 592 126Q592 119 595 115T605 111Q617 111 625 121T637 132Q642 132 645 126T649 110Q650 82 629 55T570 9T485 -9Q426 -9 391 15T346 78Q310 38 267 18T178 -3Q108 -3
61 31T13 128Q13 156 23 186L87 395Q90 404 90 410Q90 421 85 427T70 441Q60 449 56 455T55 471Q61 494 118 511T237 529Q295 529 322 507T349 447Q349 424 342 403L279 195Q275 184 275 174Q275 160 283 153T304 146Q323 146 335 157T359 194L420 395Q423 404
423 410Q423 421 418 427T404 441Q394 449 390 455T389 471Q394 494 451 511T570 529Q628 529 655 507T683 448Q683 429 675 403L594 138ZM574 605T574 590Q574 572 563 562T536 552Q513 552 492 569T444 622L436 632L392 603Q323 559 286 559Q273 559 266 566T259
584Q259 606 282 629L384 725Q403 743 424 753T464 764Q504 764 523 721L567 622Q574 605 574 590Z" />
<glyph unicode="&#xfc;" glyph-name="udieresis" horiz-adv-x="686" d="M594 138Q592 130 592 126Q592 119 595 115T605 111Q617 111 625 121T637 132Q642 132 645 126T649 110Q650 82 629 55T570 9T485 -9Q426 -9 391 15T346 78Q310 38 267 18T178 -3Q108 -3
61 31T13 128Q13 156 23 186L87 395Q90 404 90 410Q90 421 85 427T70 441Q60 449 56 455T55 471Q61 494 118 511T237 529Q295 529 322 507T349 447Q349 424 342 403L279 195Q275 184 275 174Q275 160 283 153T304 146Q323 146 335 157T359 194L420 395Q423 404
423 410Q423 421 418 427T404 441Q394 449 390 455T389 471Q394 494 451 511T570 529Q628 529 655 507T683 448Q683 429 675 403L594 138ZM362 750T388 725T414 662Q414 636 401 611T363 571T308 555Q270 555 245 580T218 644Q218 669 231 693T268 734T323 750Q362
750 388 725ZM586 750T612 725T638 662Q638 636 625 611T587 571T532 555Q494 555 469 580T442 644Q442 669 455 693T492 734T547 750Q586 750 612 725Z" />
<glyph unicode="&#xfd;" glyph-name="yacute" horiz-adv-x="620" d="M574 529T600 494T627 397Q627 344 608 283Q571 160 490 51T303 -124T92 -190Q40 -190 3 -172T-54 -124T-74 -60Q-74 -45 -69 -27Q-60 1 -39 16T11 31Q57 31 86 0T124 -87Q188 -84 242 -32Q191
-23 167 2T133 82L93 327Q90 346 85 353T70 361Q63 361 54 354T40 347Q32 347 32 364Q32 378 37 394Q55 451 104 490T218 530Q282 530 312 492T352 375L382 155Q385 130 400 130Q418 130 442 162T489 255Q459 282 443 317T427 392Q427 423 435 448Q447 488 472
508T530 529Q574 529 600 494ZM411 723T436 742T498 761Q529 761 547 745T565 700Q565 670 545 648T480 604L393 562Q374 554 361 554Q349 554 342 560T334 578Q334 591 344 608L387 681Q411 723 436 742Z" />
<glyph unicode="&#xfe;" glyph-name="thorn" horiz-adv-x="700" d="M594 533T638 480T682 338Q682 295 670 244Q640 120 558 56T368 -9Q295 -9 244 22L211 -87Q207 -98 207 -108Q207 -119 212 -126T225 -141Q232 -148 235 -153T236 -166Q232 -179 217 -184T171
-190H-58Q-84 -190 -95 -182T-102 -160Q-100 -152 -95 -147T-81 -138Q-66 -128 -57 -118T-41 -84L171 605Q174 614 174 620Q174 637 153 652Q143 661 139 666T138 681Q145 704 201 721T320 739Q378 739 405 717T433 656Q433 635 426 614L385 480Q443 533 520 533Q594
533 638 480ZM427 325T427 368Q427 414 400 414Q377 414 358 392L267 97Q282 82 300 82Q327 82 352 114T405 247Q427 325 427 368Z" />
<glyph unicode="&#xff;" glyph-name="ydieresis" horiz-adv-x="620" d="M574 529T600 494T627 397Q627 344 608 283Q571 160 490 51T303 -124T92 -190Q40 -190 3 -172T-54 -124T-74 -60Q-74 -45 -69 -27Q-60 1 -39 16T11 31Q57 31 86 0T124 -87Q188 -84 242 -32Q191
-23 167 2T133 82L93 327Q90 346 85 353T70 361Q63 361 54 354T40 347Q32 347 32 364Q32 378 37 394Q55 451 104 490T218 530Q282 530 312 492T352 375L382 155Q385 130 400 130Q418 130 442 162T489 255Q459 282 443 317T427 392Q427 423 435 448Q447 488 472
508T530 529Q574 529 600 494ZM306 750T332 725T358 662Q358 636 345 611T307 571T252 555Q214 555 189 580T162 644Q162 669 175 693T212 734T267 750Q306 750 332 725ZM530 750T556 725T582 662Q582 636 569 611T531 571T476 555Q438 555 413 580T386 644Q386
669 399 693T436 734T491 750Q530 750 556 725Z" />
<glyph unicode="&#x2013;" glyph-name="endash" horiz-adv-x="869" d="M132 381T154 397T208 413H741Q796 413 796 370Q796 359 794 352Q775 291 710 291H177Q150 291 136 301T122 332Q122 342 125 352Q132 381 154 397Z" />
<glyph unicode="&#x2014;" glyph-name="emdash" horiz-adv-x="1209" d="M132 381T154 397T208 413H1081Q1136 413 1136 370Q1136 359 1134 352Q1115 291 1050 291H177Q150 291 136 301T122 332Q122 342 125 352Q132 381 154 397Z" />
<glyph unicode="&#x2018;" glyph-name="quoteleft" horiz-adv-x="284" d="M173 387T141 420T109 507Q109 528 115 552Q126 597 154 629T220 678T292 695Q333 695 333 671Q333 665 332 662Q329 651 320 644T292 623Q270 607 260 597T250 573Q250 564 255 555T273
531Q289 510 297 496T305 464Q305 454 302 443Q294 416 272 402T217 387Q173 387 141 420Z" />
<glyph unicode="&#x2019;" glyph-name="quoteright" horiz-adv-x="304" d="M276 695T308 662T340 575Q340 554 334 530Q323 485 295 453T229 404T157 387Q116 387 116 411Q116 417 117 420Q120 431 129 438T157 459Q179 475 189 485T199 509Q199 518 194 527T176
551Q160 572 152 586T144 618Q144 629 147 639Q155 666 177 680T232 695Q276 695 308 662Z" />
<glyph unicode="&#x201a;" glyph-name="quotesinglbase" horiz-adv-x="600" d="M142 202T173 170T204 85Q204 22 168 -33T79 -121T-16 -154Q-49 -154 -49 -131Q-49 -118 -38 -106T-6 -78Q16 -61 28 -48T40 -19Q40 -7 24 13Q9 33 2 49T-6 90Q-6 136 23 169T96 202Q142
202 173 170Z" />
<glyph unicode="&#x201c;" glyph-name="quotedblleft" horiz-adv-x="512" d="M401 387T369 420T337 507Q337 528 343 552Q354 597 382 629T448 678T520 695Q561 695 561 671Q561 665 560 662Q557 651 548 644T520 623Q498 607 488 597T478 573Q478 564 483 555T501
531Q517 510 525 496T533 464Q533 454 530 443Q522 416 500 402T445 387Q401 387 369 420ZM173 387T141 420T109 507Q109 528 115 552Q126 597 154 629T220 678T292 695Q333 695 333 671Q333 665 332 662Q329 651 320 644T292 623Q270 607 260 597T250 573Q250
564 255 555T273 531Q289 510 297 496T305 464Q305 454 302 443Q294 416 272 402T217 387Q173 387 141 420Z" />
<glyph unicode="&#x201d;" glyph-name="quotedblright" horiz-adv-x="532" d="M276 695T308 662T340 575Q340 554 334 530Q323 485 295 453T229 404T157 387Q116 387 116 411Q116 417 117 420Q120 431 129 438T157 459Q179 475 189 485T199 509Q199 518 194 527T176
551Q160 572 152 586T144 618Q144 629 147 639Q155 666 177 680T232 695Q276 695 308 662ZM504 695T536 662T568 575Q568 554 562 530Q551 485 523 453T457 404T385 387Q344 387 344 411Q344 417 345 420Q348 431 357 438T385 459Q407 475 417 485T427 509Q427
518 422 527T404 551Q388 572 380 586T372 618Q372 629 375 639Q383 666 405 680T460 695Q504 695 536 662Z" />
<glyph unicode="&#x201e;" glyph-name="quotedblbase" horiz-adv-x="600" d="M142 202T173 170T204 85Q204 22 168 -33T79 -121T-16 -154Q-49 -154 -49 -131Q-49 -118 -38 -106T-6 -78Q16 -61 28 -48T40 -19Q40 -7 24 13Q9 33 2 49T-6 90Q-6 136 23 169T96 202Q142
202 173 170Z" />
<glyph unicode="&#x2022;" glyph-name="bullet" horiz-adv-x="490" d="M326 516T361 496T417 440T438 363Q438 318 415 276T350 208T255 181Q212 181 178 201T123 256T101 333Q101 376 124 418T188 488T283 516Q326 516 361 496Z" />
<glyph unicode="&#x2039;" glyph-name="guilsinglleft" horiz-adv-x="336" d="M309 498T322 484T336 452Q336 449 334 441Q330 428 321 418T294 395L168 307L241 239Q267 215 267 192Q267 173 251 157T215 140Q197 140 178 159L76 260Q60 275 53 287T46 311Q46
327 55 338T86 366L257 484Q277 498 293 498Q309 498 322 484Z" />
<glyph unicode="&#x203a;" glyph-name="guilsinglright" horiz-adv-x="337" d="M311 363T318 351T325 327Q325 311 316 300T285 272L114 154Q94 140 78 140Q62 140 49 154T35 186Q35 189 37 197Q41 210 50 220T77 243L203 331L130 399Q104 423 104 446Q104 466
120 482T156 498Q174 498 193 479L295 378Q311 363 318 351Z" />
</font>
</defs>
</svg>
