<?xml version="1.0" standalone="no"?>
<!DOCTYPE svg PUBLIC "-//W3C//DTD SVG 1.1//EN" "http://www.w3.org/Graphics/SVG/1.1/DTD/svg11.dtd">
<svg xmlns="http://www.w3.org/2000/svg">
<defs >
<font id="Tinos" horiz-adv-x="1170" ><font-face
    font-family="Tinos"
    units-per-em="2048"
    panose-1="2 2 8 3 7 5 5 2 3 4"
    ascent="1825"
    descent="-443"
    alphabetic="0" />
<glyph unicode=" " glyph-name="space" horiz-adv-x="512" />
<glyph unicode="!" glyph-name="exclam" horiz-adv-x="682" d="M397 420H282L190 1341H489L397 420ZM340 -29Q271 -29 223 19T174 137Q174 206 222 254T340 303Q409 303 457 255T506 137Q506 68 458 20T340 -29Z" />
<glyph unicode="&quot;" glyph-name="quotedbl" horiz-adv-x="1137" d="M653 1341H911L833 860H729L653 1341ZM227 1341H485L407 860H303L227 1341Z" />
<glyph unicode="#" glyph-name="numbersign" horiz-adv-x="1024" d="M741 411L665 0H522L598 411H328L254 0H108L184 411H27V534H209L262 821H27V944H285L358 1341H502L428 944H698L772 1341H915L841 944H997V821H819L768 534H997V411H741ZM405 821L352 534H622L676
821H405Z" />
<glyph unicode="$" glyph-name="dollar" horiz-adv-x="1024" d="M466 -20Q359 -18 244 4T73 51V371H166L202 185Q232 144 316 112T466 78V566Q298 632 231 685T127 817T89 1014Q89 1158 192 1249T466 1354V1483H568V1356Q719 1350 874 1313V1034H783L751 1177Q722
1206 672 1228T568 1256V841Q693 791 744 764T835 703T904 625T949 522T966 387Q966 212 859 105T568 -16V-156H466V-20ZM752 330Q752 379 734 414T682 474T568 528V77Q657 93 704 156T752 330ZM303 1067Q303 1021 318 989T363 933T466 879V1254Q387 1242 345 1193T303
1067Z" />
<glyph unicode="%" glyph-name="percent" horiz-adv-x="2048" d="M640 -20H490L1438 1362H1589L640 -20ZM861 995Q861 623 531 623Q370 623 290 718T210 995Q210 1362 537 1362Q696 1362 778 1270T861 995ZM645 995Q645 1141 618 1204T531 1268Q475 1268 450 1207T425
995Q425 840 450 778T531 716Q589 716 617 781T645 995ZM1856 346Q1856 -27 1527 -27Q1366 -27 1286 68T1205 346Q1205 524 1286 618T1533 713Q1692 713 1774 621T1856 346ZM1641 346Q1641 492 1614 555T1527 619Q1471 619 1446 558T1421 346Q1421 191 1446 129T1527
67Q1585 67 1613 132T1641 346Z" />
<glyph unicode="&amp;" glyph-name="ampersand" horiz-adv-x="1706" d="M1043 1073Q1043 997 1013 941T927 843T752 753L1132 410Q1183 541 1191 717L1080 743V807H1557V743L1447 717L1420 626Q1359 420 1270 286L1490 88L1606 63V0H1222L1103 110Q927 -20 660
-20Q385 -20 252 74T118 356Q118 452 153 523T249 646T430 745Q304 890 304 1067Q304 1206 402 1284T681 1362Q856 1362 949 1288T1043 1073ZM660 86Q868 86 999 206L522 650Q454 604 424 535T394 367Q394 224 465 155T660 86ZM554 1089Q554 1025 575 970T661 844Q737
885 765 940T793 1089Q793 1262 681 1262Q613 1262 584 1219T554 1089Z" />
<glyph unicode="&apos;" glyph-name="quotesingle" horiz-adv-x="569" d="M156 1341H414L336 860H232L156 1341Z" />
<glyph unicode="(" glyph-name="parenleft" horiz-adv-x="682" d="M363 494Q363 257 388 112T469 -143T616 -322V-436Q418 -331 307 -207T143 86T90 495Q90 733 142 901T306 1193T616 1421V1307Q525 1238 470 1129T389 875T363 494Z" />
<glyph unicode=")" glyph-name="parenright" horiz-adv-x="682" d="M66 -436V-322Q157 -252 212 -142T293 114T319 494Q319 731 293 876T212 1129T66 1307V1421Q266 1314 377 1191T540 900T592 495Q592 256 540 88T377 -205T66 -436Z" />
<glyph unicode="*" glyph-name="asterisk" horiz-adv-x="1024" d="M556 895L629 579H396L466 899L179 663L85 876L392 964L85 1054L179 1267L466 1034L396 1351H629L556 1034L844 1261L939 1052L627 964L939 878L844 667L556 895Z" />
<glyph unicode="+" glyph-name="plus" horiz-adv-x="1167" d="M655 608V203H512V608H108V751H512V1157H655V751H1060V608H655Z" />
<glyph unicode="," glyph-name="comma" horiz-adv-x="512" d="M434 106Q434 -50 330 -157T27 -317V-225Q90 -206 135 -175T204 -107T229 -35Q229 -13 214 3T154 44Q78 84 78 168Q78 233 123 267T237 301Q322 301 378 247T434 106Z" />
<glyph unicode="-" glyph-name="hyphen" horiz-adv-x="682" d="M75 395V569H607V395H75Z" />
<glyph unicode="." glyph-name="period" horiz-adv-x="512" d="M256 -29Q187 -29 139 19T90 137Q90 206 138 254T256 303Q325 303 373 255T422 137Q422 68 374 20T256 -29Z" />
<glyph unicode="/" glyph-name="slash" horiz-adv-x="569" d="M121 -20H-20L450 1349H590L121 -20Z" />
<glyph unicode="0" glyph-name="zero" horiz-adv-x="1024" d="M946 676Q946 -20 506 -20Q294 -20 186 158T78 676Q78 1009 186 1185T514 1362Q726 1362 836 1188T946 676ZM653 676Q653 988 618 1124T508 1261Q434 1261 403 1129T371 676Q371 350 403 215T508 80Q582
80 617 218T653 676Z" />
<glyph unicode="1" glyph-name="one" horiz-adv-x="1024" d="M685 110L918 86V0H164V86L396 110V1121L165 1045V1130L543 1352H685V110Z" />
<glyph unicode="2" glyph-name="two" horiz-adv-x="1024" d="M936 0H86V189Q172 281 245 354Q405 512 479 602T587 790T622 1011Q622 1120 569 1187T428 1254Q366 1254 329 1241T261 1202L218 1008H131V1313Q211 1331 287 1343T454 1356Q675 1356 792 1265T910
1006Q910 901 875 816T765 649T464 385Q378 315 278 226H936V0Z" />
<glyph unicode="3" glyph-name="three" horiz-adv-x="1024" d="M954 365Q954 182 823 81T459 -20Q273 -20 89 20L77 345H169L221 130Q308 81 403 81Q524 81 592 158T660 375Q660 496 606 560T429 633L313 640V761L425 769Q514 775 556 834T599 1014Q599 1126 549
1190T405 1254Q351 1254 317 1238T251 1202L208 1008H121V1313Q223 1339 297 1347T443 1356Q894 1356 894 1026Q894 890 822 806T616 702Q954 661 954 365Z" />
<glyph unicode="4" glyph-name="four" horiz-adv-x="1024" d="M852 265V0H583V265H28V428L632 1348H852V470H986V265H852ZM583 867Q583 979 593 1079L194 470H583V867Z" />
<glyph unicode="5" glyph-name="five" horiz-adv-x="1024" d="M480 793Q718 793 833 695T949 399Q949 197 824 89T464 -20Q278 -20 94 20L82 345H174L226 130Q265 108 322 95T425 81Q655 81 655 389Q655 549 597 620T410 692Q339 692 280 666L249 653H149V1341H849V1118H260V766Q382
793 480 793Z" />
<glyph unicode="6" glyph-name="six" horiz-adv-x="1024" d="M964 416Q964 205 855 93T545 -20Q315 -20 193 155T70 662Q70 878 134 1035T315 1274T582 1356Q738 1356 883 1313V1008H796L753 1202Q684 1254 602 1254Q502 1254 440 1126T366 768Q475 815 582 815Q765
815 864 712T964 416ZM541 81Q614 81 642 160T670 397Q670 538 631 614T515 690Q441 690 364 667V662Q364 81 541 81Z" />
<glyph unicode="7" glyph-name="seven" horiz-adv-x="1024" d="M204 958H117V1341H974V1262L453 0H214L779 1118H250L204 958Z" />
<glyph unicode="8" glyph-name="eight" horiz-adv-x="1024" d="M925 1011Q925 901 871 824T719 711Q834 668 895 578T956 362Q956 172 847 76T506 -20Q68 -20 68 362Q68 490 130 580T302 711Q205 748 152 825T99 1014Q99 1178 207 1270T514 1362Q708 1362 816
1269T925 1011ZM672 362Q672 516 632 586T506 656Q424 656 388 588T352 362Q352 207 388 144T506 81Q592 81 632 147T672 362ZM641 1011Q641 1142 608 1201T508 1261Q444 1261 414 1202T383 1011Q383 875 413 819T508 763Q577 763 609 820T641 1011Z" />
<glyph unicode="9" glyph-name="nine" horiz-adv-x="1024" d="M56 932Q56 1136 173 1246T498 1356Q733 1356 841 1191T950 674Q950 448 887 293T704 59T418 -20Q252 -20 107 23V328H194L237 134Q272 109 320 95T414 81Q522 81 582 203T653 558Q549 521 446 521Q265
521 161 629T56 932ZM350 928Q350 642 506 642Q582 642 656 660V674Q656 963 622 1109T500 1255Q350 1255 350 928Z" />
<glyph unicode=":" glyph-name="colon" horiz-adv-x="682" d="M333 -29Q263 -29 216 19T168 137Q168 207 215 255T333 303Q402 303 450 255T499 137Q499 68 451 20T333 -29ZM333 628Q263 628 216 676T168 794Q168 864 214 912T333 960Q404 960 451 912T499 794Q499
725 451 677T333 628Z" />
<glyph unicode=";" glyph-name="semicolon" horiz-adv-x="682" d="M335 628Q265 628 218 676T170 794Q170 864 216 912T335 960Q406 960 453 912T501 794Q501 725 453 677T335 628ZM514 106Q514 -50 410 -157T106 -317V-225Q169 -206 214 -175T284 -106T309 -35Q309
-13 293 3T232 44Q155 84 155 168Q155 228 198 264T317 301Q400 301 457 247T514 106Z" />
<glyph unicode="&lt;" glyph-name="less" horiz-adv-x="1167" d="M102 635V725L1054 1193V1050L287 680L1054 309V166L102 635Z" />
<glyph unicode="=" glyph-name="equal" horiz-adv-x="1167" d="M1054 547V403H102V547H1054ZM1054 956V813H102V956H1054Z" />
<glyph unicode="&gt;" glyph-name="greater" horiz-adv-x="1167" d="M104 166V309L872 680L104 1050V1193L1056 725V635L104 166Z" />
<glyph unicode="?" glyph-name="question" horiz-adv-x="1024" d="M445 -29Q375 -29 328 19T280 137Q280 207 327 255T445 303Q514 303 562 255T611 137Q611 68 563 20T445 -29ZM491 390H388L331 703L426 728Q530 755 571 819T613 994Q613 1131 565 1192T405 1254Q321
1254 256 1212L213 1018H124V1313Q290 1356 448 1356Q902 1356 902 1001Q902 856 825 756T605 616L518 592L491 390Z" />
<glyph unicode="@" glyph-name="at" horiz-adv-x="1905" d="M1798 752Q1798 564 1701 397T1437 127T1085 25Q961 25 957 150L905 107Q805 25 686 25Q600 25 550 95T500 283Q500 412 551 534T692 745T895 879T1184 924Q1271 924 1367 913L1246 372Q1237 335 1230
285T1223 215Q1223 192 1231 176T1273 159Q1367 159 1445 239T1568 459T1614 751Q1614 994 1472 1128T1079 1263Q853 1263 675 1151T394 830T291 363Q291 174 364 27T573 -202T895 -284Q1042 -284 1171 -244T1436 -109L1480 -173Q1338 -287 1189 -338T864 -389Q636
-389 464 -295T200 -30T107 362Q107 648 236 879T588 1237T1083 1364Q1424 1364 1611 1204T1798 752ZM740 316Q740 244 761 207T811 169Q845 169 889 189T965 237L1085 798Q1068 803 1024 803Q922 803 868 751T777 571T740 316Z" />
<glyph unicode="A" glyph-name="A" horiz-adv-x="1479" d="M428 73V0H20V73L120 100L597 1352H887L1362 100L1464 73V0H867V73L1022 100L894 447H379L256 100L428 73ZM641 1150L420 557H856L641 1150Z" />
<glyph unicode="B" glyph-name="B" horiz-adv-x="1366" d="M878 1010Q878 1127 828 1179T661 1231H522V764H669Q776 764 827 820T878 1010ZM979 391Q979 524 913 589T695 654H522V110Q666 104 749 104Q866 104 922 175T979 391ZM34 0V73L207 100V1242L34 1268V1341H685Q952
1341 1079 1270T1206 1038Q1206 918 1131 831T930 717Q1117 698 1213 616T1309 391Q1309 196 1165 95T752 -6L296 0H34Z" />
<glyph unicode="C" glyph-name="C" horiz-adv-x="1479" d="M815 -20Q478 -20 289 159T100 655Q100 999 280 1177T814 1356Q1047 1356 1297 1289L1303 967H1213L1185 1161Q1053 1251 878 1251Q646 1251 539 1107T432 658Q432 377 544 230T870 83Q983 83 1067 113T1200
184L1232 404H1323L1317 64Q1227 29 1083 5T815 -20Z" />
<glyph unicode="D" glyph-name="D" horiz-adv-x="1479" d="M1047 670Q1047 960 941 1095T596 1231H522V114Q618 106 696 106Q826 106 901 162T1012 337T1047 670ZM673 1341Q1034 1341 1206 1178T1379 678Q1379 333 1214 165T715 -4L266 0H36V73L208 100V1242L36
1268V1341H673Z" />
<glyph unicode="E" glyph-name="E" horiz-adv-x="1366" d="M35 73L207 100V1242L35 1268V1341H1177V1000H1086L1054 1217Q942 1231 730 1231H522V739H873L904 887H993V475H904L873 627H522V110H775Q1033 110 1113 126L1170 374H1261L1242 0H35V73Z" />
<glyph unicode="F" glyph-name="F" horiz-adv-x="1251" d="M522 572V100L745 73V0H48V73L207 100V1242L35 1268V1341H1153V980H1059L1027 1217Q978 1224 865 1227T687 1231H522V682H849L880 852H969V400H880L849 572H522Z" />
<glyph unicode="G" glyph-name="G" horiz-adv-x="1593" d="M1406 70Q1282 29 1118 5T823 -20Q604 -20 441 60T189 293T100 655Q100 992 292 1174T842 1356Q929 1356 1000 1349T1134 1330T1362 1271V963H1272L1248 1137Q1169 1191 1074 1221T878 1251Q645 1251
539 1106T432 657Q432 374 544 229T870 83Q986 83 1091 118V506L919 532V606H1537V532L1406 506V70Z" />
<glyph unicode="H" glyph-name="H" horiz-adv-x="1593" d="M35 0V74L207 100V1241L35 1268V1341H694V1268L522 1241V745H1070V1241L898 1268V1341H1559V1268L1386 1241V100L1559 74V0H898V74L1070 100V635H522V100L694 74V0H35Z" />
<glyph unicode="I" glyph-name="I" horiz-adv-x="797" d="M556 100L728 74V0H69V74L241 100V1241L69 1268V1341H728V1268L556 1241V100Z" />
<glyph unicode="J" glyph-name="J" horiz-adv-x="1024" d="M501 1242L329 1268V1341H968V1268L816 1242V432Q816 215 696 98T354 -20Q279 -20 207 -12T91 10V314H180L210 135Q229 112 264 99T341 86Q410 86 455 134T501 276V1242Z" />
<glyph unicode="K" glyph-name="K" horiz-adv-x="1593" d="M1469 1341V1268L1305 1242L862 851L1452 100L1577 73V0H1139L638 646L522 546V100L715 73V0H35V73L207 100V1242L35 1268V1341H695V1268L522 1242V696L1133 1242L1010 1268V1341H1469Z" />
<glyph unicode="L" glyph-name="L" horiz-adv-x="1366" d="M729 1268L522 1242V106H795Q1008 106 1108 126L1190 405H1280L1242 0H35V73L207 100V1242L36 1268V1341H729V1268Z" />
<glyph unicode="M" glyph-name="M" horiz-adv-x="1933" d="M882 0H827L332 1133V100L512 73V0H35V73L207 100V1242L35 1268V1341H562L945 459L1336 1341H1874V1268L1702 1242V100L1874 73V0H1207V73L1387 100V1133L882 0Z" />
<glyph unicode="N" glyph-name="N" horiz-adv-x="1479" d="M1155 1242L975 1268V1341H1452V1268L1280 1242V0H1163L336 1078V100L516 73V0H39V73L211 100V1242L39 1268V1341H498L1155 484V1242Z" />
<glyph unicode="O" glyph-name="O" horiz-adv-x="1593" d="M432 672Q432 353 519 217T797 80Q986 80 1073 217T1161 672Q1161 989 1074 1122T797 1255Q607 1255 520 1122T432 672ZM100 672Q100 1356 797 1356Q1141 1356 1317 1183T1493 672Q1493 331 1315 156T797
-20Q458 -20 279 155T100 672Z" />
<glyph unicode="P" glyph-name="P" horiz-adv-x="1251" d="M871 944Q871 1104 812 1167T602 1231H523V636H606Q745 636 808 706T871 944ZM523 526V100L746 73V0H48V73L207 100V1242L35 1268V1341H626Q911 1341 1052 1246T1193 946Q1193 526 703 526H523Z" />
<glyph unicode="Q" glyph-name="Q" horiz-adv-x="1593" d="M100 672Q100 1356 797 1356Q1141 1356 1317 1183T1493 672Q1493 175 1119 32L1169 -29Q1316 -213 1421 -213Q1473 -213 1503 -205V-291Q1482 -301 1406 -316T1267 -332Q1194 -332 1138 -319T1033 -277T938
-202T785 -20Q452 -18 276 158T100 672ZM432 672Q432 353 519 217T797 80Q986 80 1073 217T1161 672Q1161 989 1074 1122T797 1255Q607 1255 520 1122T432 672Z" />
<glyph unicode="R" glyph-name="R" horiz-adv-x="1479" d="M523 568V100L695 73V0H48V73L207 100V1242L35 1268V1341H676Q972 1341 1118 1250T1264 966Q1264 678 994 596L1352 100L1497 73V0H1063L689 568H523ZM952 964Q952 1114 890 1172T663 1231H523V678H668Q822
678 887 742T952 964Z" />
<glyph unicode="S" glyph-name="S" horiz-adv-x="1139" d="M109 411H197L242 196Q284 147 369 114T545 81Q832 81 832 317Q832 391 778 442T606 533Q434 590 359 625T231 709T148 825T117 994Q117 1171 237 1263T590 1356Q758 1356 962 1313V994H873L828 1178Q726
1252 590 1252Q467 1252 401 1207T335 1067Q335 1000 390 953T562 868Q791 793 876 738T1007 600T1052 407Q1052 -20 549 -20Q434 -20 315 -1T109 51V411Z" />
<glyph unicode="T" glyph-name="T" horiz-adv-x="1366" d="M310 0V73L523 100V1235H472Q243 1235 150 1215L123 966H32V1341H1335V966H1243L1216 1215Q1133 1233 888 1233H839V100L1052 73V0H310Z" />
<glyph unicode="U" glyph-name="U" horiz-adv-x="1479" d="M838 122Q988 122 1070 206T1152 453V1242L972 1268V1341H1428V1268L1276 1242V461Q1276 229 1142 105T759 -19Q490 -19 347 106T203 469V1242L51 1268V1341H690V1268L518 1242V455Q518 294 599 208T838 122Z" />
<glyph unicode="V" glyph-name="V" horiz-adv-x="1479" d="M1456 1341V1268L1329 1241L811 -31H678L133 1241L23 1268V1341H606V1268L467 1241L844 362L1196 1241L1061 1268V1341H1456Z" />
<glyph unicode="W" glyph-name="W" horiz-adv-x="2048" d="M1501 -31H1378L1044 796L713 -31H590L146 1242L29 1268V1341H631V1268L474 1242L760 443L1074 1227H1199L1514 445L1751 1242L1582 1268V1341H2016V1268L1899 1242L1501 -31Z" />
<glyph unicode="X" glyph-name="X" horiz-adv-x="1479" d="M330 100L496 73V0H38V73L186 100L617 648L233 1242L82 1268V1341H735V1268L565 1242L799 880L1084 1242L918 1268V1341H1377V1268L1229 1242L864 779L1303 100L1455 73V0H802V73L972 100L682 547L330 100Z" />
<glyph unicode="Y" glyph-name="Y" horiz-adv-x="1479" d="M911 528V100L1124 73V0H382V73L595 100V522L187 1242L36 1268V1341H726V1268L546 1242L852 680L1148 1242L984 1268V1341H1440V1268L1298 1242L911 528Z" />
<glyph unicode="Z" glyph-name="Z" horiz-adv-x="1366" d="M98 114L840 1235H600Q373 1235 280 1215L249 1004H160V1341H1196V1235L449 104H729Q843 104 953 115T1113 137L1172 393H1262L1235 0H98V114Z" />
<glyph unicode="[" glyph-name="bracketleft" horiz-adv-x="682" d="M152 -274V1421H608V1354L405 1313V-166L608 -207V-274H152Z" />
<glyph unicode="\" glyph-name="backslash" horiz-adv-x="569" d="M-20 1349H120L590 -20H449L-20 1349Z" />
<glyph unicode="]" glyph-name="bracketright" horiz-adv-x="682" d="M74 -274V-207L277 -166V1313L74 1354V1421H530V-274H74Z" />
<glyph unicode="^" glyph-name="asciicircum" horiz-adv-x="1190" d="M925 389L595 1150L265 389H122L550 1341H640L1068 389H925Z" />
<glyph unicode="_" glyph-name="underscore" horiz-adv-x="1024" d="M-16 -285V-141H1040V-285H-16Z" />
<glyph unicode="`" glyph-name="grave" horiz-adv-x="682" d="M452 1118L88 1386V1423H373L538 1150V1118H452Z" />
<glyph unicode="a" glyph-name="a" horiz-adv-x="1024" d="M546 961Q899 961 899 701V90L993 66V0H647L625 72Q547 19 484 0T357 -20Q66 -20 66 260Q66 366 109 429T233 523T488 558L610 561V698Q610 868 471 868Q387 868 283 816L245 699H179V926Q330 949 401
955T546 961ZM610 472L526 469Q429 465 392 418T354 266Q354 181 384 141T462 101Q530 101 610 136V472Z" />
<glyph unicode="b" glyph-name="b" horiz-adv-x="1139" d="M763 497Q763 682 718 768T568 854Q530 854 485 846T411 820V101Q475 85 568 85Q667 85 715 181T763 497ZM122 1333L26 1356V1421H411V1076Q411 983 401 887Q441 920 516 942T664 965Q868 965 962 853T1056
496Q1056 254 936 117T596 -20Q434 -20 122 48V1333Z" />
<glyph unicode="c" glyph-name="c" horiz-adv-x="909" d="M858 57Q813 21 734 1T570 -19Q319 -19 195 102T70 472Q70 627 126 737T288 906T532 965Q672 965 837 930V652H765L723 817Q689 842 656 852T569 862Q510 862 462 815T388 683T361 478Q361 277 423 191T622
105Q760 105 858 134V57Z" />
<glyph unicode="d" glyph-name="d" horiz-adv-x="1139" d="M733 53Q677 17 647 6T579 -13T495 -20Q287 -20 185 99T83 467Q83 711 192 838T510 965Q619 965 730 938Q724 971 724 1093V1331L628 1355V1421H1013V90L1116 66V0H754L733 53ZM376 475Q376 288 423 190T558
91Q638 91 724 134V842Q646 863 566 863Q476 863 426 765T376 475Z" />
<glyph unicode="e" glyph-name="e" horiz-adv-x="909" d="M494 963Q685 963 770 861T856 544V462H363V446Q363 297 387 234T465 138T613 105Q701 105 835 134V57Q780 24 693 3T522 -19Q291 -19 181 101T70 475Q70 721 175 842T494 963ZM483 862Q423 862 394 797T364
567H582Q582 701 573 755T543 836T483 862Z" />
<glyph unicode="f" glyph-name="f" horiz-adv-x="682" d="M157 836H15V905L157 944V1045Q157 1237 255 1339T536 1442Q635 1442 702 1423V1199H638L609 1308Q585 1332 546 1332Q446 1332 446 1077V940H637V836H446V90L599 66V0H55V66L157 90V836Z" />
<glyph unicode="g" glyph-name="g" horiz-adv-x="1024" d="M257 347Q79 422 79 640Q79 796 188 880T500 965Q543 965 610 958T709 940L934 1051L969 1008L855 846Q917 770 917 640Q917 481 810 396T496 310Q417 310 343 322L319 246Q321 217 356 192T442 166H661Q1004
166 1004 -98Q1004 -207 945 -285T770 -408T482 -452Q278 -452 166 -394T54 -233Q54 -188 90 -146T232 -43Q173 -20 132 37T90 157L257 347ZM785 -166Q785 -71 658 -71H341Q253 -135 253 -216Q253 -280 314 -312T483 -344Q628 -344 706 -297T785 -166ZM494 410Q568
410 601 467T634 640Q634 755 602 809T494 864Q425 864 394 810T362 640Q362 525 393 468T494 410Z" />
<glyph unicode="h" glyph-name="h" horiz-adv-x="1139" d="M436 1014Q436 948 430 858L499 893Q641 965 754 965Q1014 965 1014 688V90L1108 66V0H641V66L725 90V649Q725 733 690 780T588 827Q512 827 436 793V90L522 66V0H55V66L147 90V1331L51 1355V1421H436V1014Z" />
<glyph unicode="i" glyph-name="i" horiz-adv-x="569" d="M436 90L539 66V0H45V66L147 90V850L51 874V940H436V90ZM137 1268Q137 1333 182 1377T291 1421Q355 1421 399 1377T444 1268Q444 1205 400 1160T291 1114Q227 1114 182 1158T137 1268Z" />
<glyph unicode="j" glyph-name="j" horiz-adv-x="682" d="M553 1268Q553 1204 509 1159T400 1114Q336 1114 291 1158T246 1268Q246 1331 290 1376T400 1421Q463 1421 508 1377T553 1268ZM545 -39Q545 -227 444 -331T155 -436Q66 -436 -17 -418V-193H47L90 -307Q114
-326 139 -326Q193 -326 224 -260T256 -71V840L90 874V940H545V-39Z" />
<glyph unicode="k" glyph-name="k" horiz-adv-x="1139" d="M436 451L803 851L703 874V940H1061V874L953 852L729 616L1052 90L1136 66V0H684V66L739 90L551 419L436 339V90L529 66V0H58V66L147 90V1331L51 1355V1421H436V451Z" />
<glyph unicode="l" glyph-name="l" horiz-adv-x="569" d="M431 90L534 66V0H40V66L142 90V1331L46 1355V1421H431V90Z" />
<glyph unicode="m" glyph-name="m" horiz-adv-x="1706" d="M434 858L502 893Q642 965 753 965Q921 965 977 843Q1182 965 1323 965Q1577 965 1577 688V90L1671 66V0H1204V66L1288 90V649Q1288 733 1256 780T1157 827Q1083 827 997 785Q1007 743 1007 688V90L1101
66V0H634V66L718 90V649Q718 733 686 780T587 827Q521 827 436 788V90L522 66V0H55V66L147 90V850L55 874V940H420L434 858Z" />
<glyph unicode="n" glyph-name="n" horiz-adv-x="1139" d="M434 858L502 893Q642 965 754 965Q1014 965 1014 688V90L1108 66V0H641V66L725 90V649Q725 733 690 780T588 827Q512 827 436 793V90L522 66V0H55V66L147 90V850L55 874V940H420L434 858Z" />
<glyph unicode="o" glyph-name="o" horiz-adv-x="1024" d="M946 475Q946 222 838 101T506 -20Q290 -20 184 102T78 475Q78 724 185 844T514 965Q737 965 841 841T946 475ZM653 475Q653 695 621 779T508 864Q431 864 401 783T371 475Q371 244 401 162T508 80Q587
80 620 166T653 475Z" />
<glyph unicode="p" glyph-name="p" horiz-adv-x="1139" d="M409 892Q516 965 669 965Q865 965 960 850T1056 487Q1056 241 945 111T626 -20Q520 -20 412 7Q418 -59 418 -141V-346L556 -370V-436H27V-370L129 -346V850L26 874V940H407L409 892ZM763 480Q763 854
589 854Q496 854 418 816V107Q499 86 587 86Q763 86 763 480Z" />
<glyph unicode="q" glyph-name="q" horiz-adv-x="1139" d="M377 448Q377 268 423 180T577 91Q615 91 657 101T729 129V845Q661 862 577 862Q475 862 426 761T377 448ZM1018 -346L1120 -370V-436H591V-370L729 -346V-131Q729 -38 739 58Q641 -20 494 -20Q285 -20
185 103T84 474Q84 715 196 840T529 965Q601 965 808 942L927 985H1018V-346Z" />
<glyph unicode="r" glyph-name="r" horiz-adv-x="909" d="M461 745Q569 865 654 917T811 970H865V627H809L750 753Q687 753 607 726T466 661V90L617 66V0H55V66L177 90V850L55 874V940H450L461 745Z" />
<glyph unicode="s" glyph-name="s" horiz-adv-x="797" d="M747 298Q747 141 651 61T370 -20Q294 -20 203 -4T64 31V287H130L168 155Q203 120 260 97T376 73Q463 73 505 110T548 206Q548 261 507 294T328 370Q183 415 123 493T62 685Q62 813 157 889T402 965Q505
965 679 936V695H613L581 805Q552 834 500 852T400 871Q328 871 294 842T259 761Q259 708 302 674T479 600Q625 555 686 482T747 298Z" />
<glyph unicode="t" glyph-name="t" horiz-adv-x="682" d="M438 -20Q303 -20 230 41T156 217V836H33V901L178 940L295 1153H445V940H643V836H445V235Q445 170 472 137T543 104Q596 104 673 120V35Q643 14 571 -3T438 -20Z" />
<glyph unicode="u" glyph-name="u" horiz-adv-x="1139" d="M705 82L637 47Q497 -25 385 -25Q125 -25 125 252V850L31 874V940H414V291Q414 207 449 160T551 113Q627 113 703 147V850L617 874V940H992V90L1084 66V0H719L705 82Z" />
<glyph unicode="v" glyph-name="v" horiz-adv-x="1024" d="M580 -20H459L66 850L0 874V940H481V874L369 848L610 312L827 850L717 874V940H1024V874L956 854L580 -20Z" />
<glyph unicode="w" glyph-name="w" horiz-adv-x="1479" d="M874 846L1091 311L1273 850L1163 874V940H1468V874L1396 854L1080 -20H959L744 507L530 -20H409L76 850L6 874V940H471V874L359 848L561 311L779 846H874Z" />
<glyph unicode="x" glyph-name="x" horiz-adv-x="1024" d="M31 875V940H533V875L428 848L565 637L746 850L652 875V940H972V875L889 854L625 544L923 86L1013 65V0H511V65L616 88L452 341L234 86L328 65V0H8V65L92 81L392 433L122 850L31 875Z" />
<glyph unicode="y" glyph-name="y" horiz-adv-x="1024" d="M462 -29L86 850L20 874V940H501V874L389 848L610 328L807 850L697 874V940H1004V874L936 854L565 -59Q501 -222 453 -295T347 -405T213 -442Q132 -442 48 -423V-181H108L151 -307Q180 -330 225 -330Q263
-330 292 -312T346 -260T395 -177T462 -29Z" />
<glyph unicode="z" glyph-name="z" horiz-adv-x="909" d="M40 0V45L472 850H365Q309 850 257 841T185 815L154 660H82V940H812V891L380 90H530Q587 90 650 103T739 137L792 354H864L837 0H40Z" />
<glyph unicode="{" glyph-name="braceleft" horiz-adv-x="807" d="M592 -274Q442 -274 362 -197T281 20V315Q281 421 230 475T66 533V618Q168 621 224 670T281 834V1128Q281 1269 359 1345T592 1421H727V1334H665Q596 1334 567 1290T537 1159V829Q537 735 482
666T335 578V575Q429 554 483 487T537 322V-12Q537 -98 566 -142T665 -187H727V-274H592Z" />
<glyph unicode="|" glyph-name="bar" horiz-adv-x="451" d="M154 -442V1421H297V-442H154Z" />
<glyph unicode="}" glyph-name="braceright" horiz-adv-x="807" d="M80 -274V-187H142Q211 -187 240 -143T270 -12V322Q270 420 324 487T472 575V578Q380 597 325 664T270 829V1159Q270 1246 241 1290T142 1334H80V1421H215Q370 1421 448 1345T526 1128V834Q526
720 582 671T741 618V533Q628 529 577 475T526 315V20Q526 -120 445 -197T215 -274H80Z" />
<glyph unicode="~" glyph-name="asciitilde" horiz-adv-x="1065" d="M761 481Q704 481 643 510T508 602Q422 674 381 698T306 723Q235 723 203 668T157 481H16Q31 630 64 706T155 824T306 866Q362 866 421 839T566 743Q644 674 687 649T761 624Q827 624 860 681T908
866H1052Q1032 715 998 640T907 523T761 481Z" />
<glyph unicode="&#xa0;" glyph-name="space" horiz-adv-x="512" />
<glyph unicode="&#xa1;" glyph-name="exclamdown" horiz-adv-x="682" d="M283 512H398L490 -409H191L283 512ZM340 961Q409 961 457 913T506 795Q506 726 458 678T340 629Q271 629 223 677T174 795Q174 864 222 912T340 961Z" />
<glyph unicode="&#xa2;" glyph-name="cent" horiz-adv-x="1024" d="M927 262Q883 230 813 211T669 187V0H577V187Q89 206 89 677Q89 831 148 942T316 1111T575 1170H577V1341H669V1166Q799 1156 906 1135V857H834L780 1022Q729 1055 669 1064V310Q816 310 927
339V262ZM380 683Q380 518 428 431T577 320V1063Q485 1044 433 943T380 683Z" />
<glyph unicode="&#xa3;" glyph-name="sterling" horiz-adv-x="1024" d="M960 223V0H87V123L158 185Q301 305 301 430Q301 475 285 521T245 620H82V721H170Q103 872 103 1006Q103 1174 221 1265T576 1356Q636 1356 698 1349T887 1313V1008H800L757 1202Q670 1255
576 1255Q397 1255 397 1006Q397 872 423 721H674V620H436Q450 531 450 467Q450 383 423 325T360 222L960 223Z" />
<glyph unicode="&#xa4;" glyph-name="currency" horiz-adv-x="1024" d="M735 352Q638 283 512 283Q392 283 289 352L184 248L84 350L186 453Q119 554 119 676Q119 799 186 899L84 1004L188 1108L289 1001Q394 1071 512 1071Q630 1071 735 1001L840 1106L942 1006L838
899Q907 796 907 676Q907 557 838 453L942 350L842 248L735 352ZM512 932Q406 932 332 857T258 676Q258 571 332 497T512 422Q617 422 692 496T768 676Q768 782 693 857T512 932Z" />
<glyph unicode="&#xa5;" glyph-name="yen" horiz-adv-x="1024" d="M2 1275V1341H501V1275L389 1249L595 709L807 1251L697 1275V1341H1022V1275L936 1255L679 639H905V537H661V399H905V297H661V90L804 66V0H230V66L372 90V297H115V399H372V537H115V639H348L86
1251L2 1275Z" />
<glyph unicode="&#xa6;" glyph-name="brokenbar" horiz-adv-x="451" d="M154 801V1421H296V801H154ZM154 -442V180H296V-442H154Z" />
<glyph unicode="&#xa7;" glyph-name="section" horiz-adv-x="1024" d="M855 42Q855 -100 758 -177T478 -255Q402 -255 311 -239T172 -204V57H238L276 -75Q315 -114 372 -138T484 -162Q565 -162 609 -125T653 -29Q653 30 612 78T488 170L392 220Q285 276 235 322T158
426T130 560Q130 660 188 732T348 834Q254 885 212 952T169 1110Q169 1238 264 1314T509 1390Q612 1390 786 1361V1120H720L688 1230Q659 1259 607 1277T507 1296Q435 1296 401 1267T366 1186Q366 1129 406 1086T533 1006Q691 937 740 907T824 838T876 752T894
642Q894 532 835 454T666 344Q763 284 809 210T855 42ZM692 571Q692 614 673 646T616 705T481 774Q417 766 372 725T327 636Q327 594 347 560T405 496T541 414Q607 426 649 472T692 571Z" />
<glyph unicode="&#xa8;" glyph-name="dieresis" horiz-adv-x="682" d="M510 1130Q462 1130 426 1165T389 1251Q389 1301 425 1335T510 1370Q559 1370 594 1336T629 1251Q629 1201 594 1166T510 1130ZM174 1130Q126 1130 90 1167T53 1251Q53 1299 89 1334T174 1370Q223
1370 258 1335T293 1251Q293 1201 258 1166T174 1130Z" />
<glyph unicode="&#xa9;" glyph-name="copyright" horiz-adv-x="1530" d="M88 670Q88 859 181 1019T433 1271T778 1362Q965 1362 1125 1270T1377 1019T1470 670Q1470 485 1380 327T1129 74T778 -20Q592 -20 432 72T180 324T88 670ZM813 254Q614 254 501 365T387
664Q387 872 497 980T815 1089Q933 1089 1083 1059L1087 852H1018L999 957Q958 982 917 995T819 1008Q689 1008 633 932T577 666Q577 501 630 418T813 334Q935 334 1008 393L1030 512H1100L1096 293Q969 254 813 254ZM778 1278Q617 1278 478 1197T259 975T178 670Q178
507 258 366T477 144T778 63Q938 63 1077 143T1298 366T1380 670Q1380 832 1300 972T1082 1195T778 1278Z" />
<glyph unicode="&#xaa;" glyph-name="ordfeminine" horiz-adv-x="614" d="M323 1362Q423 1362 481 1315T539 1186V850L595 835V786H381L374 829Q348 803 305 789T217 774Q28 774 28 942Q28 1031 91 1076T303 1125L365 1127V1196Q365 1246 338 1271T268 1296Q235
1296 214 1287T166 1265L143 1188H94V1341Q200 1357 241 1359T323 1362ZM365 1064L309 1062Q247 1060 224 1033T201 945Q201 856 264 856Q311 856 365 883V1064Z" />
<glyph unicode="&#xab;" glyph-name="guillemotleft" horiz-adv-x="1024" d="M106 496L436 852H537L354 463L537 74H436L106 430V496ZM516 496L846 852H946L764 463L946 74H846L516 430V496Z" />
<glyph unicode="&#xac;" glyph-name="logicalnot" horiz-adv-x="1167" d="M1055 752V203H913V608H102V752H1055Z" />
<glyph unicode="&#xad;" glyph-name="hyphen" horiz-adv-x="682" d="M75 395V569H607V395H75Z" />
<glyph unicode="&#xae;" glyph-name="registered" horiz-adv-x="1530" d="M1470 670Q1470 485 1380 327T1129 74T778 -20Q592 -20 432 72T180 324T88 670Q88 859 181 1019T433 1271T778 1362Q965 1362 1125 1270T1377 1019T1470 670ZM967 276L737 619H688V350L782
334V276H436V334L512 350V1010L428 1026V1081H778Q934 1081 1014 1024T1094 860Q1094 783 1049 725T915 639L1122 350L1192 334V276H967ZM911 858Q911 940 869 973T707 1006H688V694H711Q815 694 863 730T911 858ZM778 1278Q617 1278 478 1197T259 975T178 670Q178
507 258 366T477 144T778 63Q938 63 1077 143T1298 366T1380 670Q1380 832 1300 972T1082 1195T778 1278Z" />
<glyph unicode="&#xaf;" glyph-name="uni00AF" horiz-adv-x="1024" d="M1042 1392H-17V1541H1042V1392Z" />
<glyph unicode="&#xb0;" glyph-name="degree" horiz-adv-x="819" d="M98 1051Q98 1134 139 1206T252 1320T408 1362Q491 1362 563 1321T677 1207T719 1051Q719 967 677 895T562 782T408 741Q278 741 188 831T98 1051ZM407 1250Q327 1250 272 1193T217 1049Q217
966 272 908T407 850Q488 850 543 908T599 1049Q599 1135 544 1192T407 1250Z" />
<glyph unicode="&#xb1;" glyph-name="plusminus" horiz-adv-x="1124" d="M633 608V203H490V608H86V752H490V1157H633V752H1039V608H633ZM1039 141V0H86V141H1039Z" />
<glyph unicode="&#xb2;" glyph-name="uni00B2" horiz-adv-x="614" d="M566 536H56V649Q133 732 192 790T291 900T351 1008T372 1143Q372 1209 343 1243T261 1278Q208 1278 171 1247L145 1131H83V1324Q196 1350 276 1350Q409 1350 479 1295T550 1140Q550 1072 528
1018T457 912T301 772L191 677H566V536Z" />
<glyph unicode="&#xb3;" glyph-name="uni00B3" horiz-adv-x="614" d="M571 754Q571 645 494 584T274 523Q155 523 52 547L45 752H110L142 620Q187 594 241 594Q390 594 390 760Q390 830 359 867T251 910L187 914V997L249 1001Q303 1005 328 1038T353 1143Q353
1277 242 1277Q204 1277 160 1249L134 1130H72V1323Q174 1349 265 1349Q535 1349 535 1151Q535 1075 496 1023T369 956Q473 943 522 894T571 754Z" />
<glyph unicode="&#xb4;" glyph-name="acute" horiz-adv-x="682" d="M145 1118V1151L311 1423H596V1386L231 1118H145Z" />
<glyph unicode="&#xb5;" glyph-name="uni00B5" horiz-adv-x="1180" d="M768 92Q705 29 653 5T544 -20Q454 -20 400 32Q400 -78 387 -436H105V-391Q129 -131 129 103V849L35 874V940H418V288Q418 197 456 156T573 114Q668 114 763 193V849L677 874V940H1052V90L1144
65V0H787L768 92Z" />
<glyph unicode="&#xb6;" glyph-name="paragraph" horiz-adv-x="1106" d="M936 1245V-258H796V1245H661V-258H521V545Q327 552 212 659T97 952Q97 1138 210 1239T531 1341H1019V1268L936 1245Z" />
<glyph unicode="&#xb7;" glyph-name="uni00B7" horiz-adv-x="683" d="M341 511Q272 511 224 559T175 677Q175 746 223 794T341 843Q410 843 458 795T507 677Q507 608 459 560T341 511Z" />
<glyph unicode="&#xb8;" glyph-name="cedilla" horiz-adv-x="682" d="M283 -422Q193 -422 123 -391V-301Q195 -320 258 -320Q350 -320 350 -234Q350 -190 319 -167T219 -138L270 57H381L358 -53Q543 -80 543 -221Q543 -315 471 -368T283 -422Z" />
<glyph unicode="&#xb9;" glyph-name="uni00B9" horiz-adv-x="614" d="M393 616L533 602V535H76V602L215 616V1193L76 1147V1213L303 1347H393V616Z" />
<glyph unicode="&#xba;" glyph-name="ordmasculine" horiz-adv-x="676" d="M618 1067Q618 923 548 847T334 770Q199 770 128 845T57 1067Q57 1211 128 1286T338 1361Q473 1361 545 1287T618 1067ZM442 1067Q442 1290 335 1290Q282 1290 258 1237T233 1067Q233
949 257 895T335 840Q389 840 415 894T442 1067Z" />
<glyph unicode="&#xbb;" glyph-name="guillemotright" horiz-adv-x="1024" d="M918 430L588 74H487L670 463L487 852H588L918 496V430ZM508 430L178 74H78L260 463L78 852H178L508 496V430Z" />
<glyph unicode="&#xbc;" glyph-name="onequarter" horiz-adv-x="1536" d="M386 0H263L1228 1341H1348L386 0ZM403 616L543 602V535H86V602L225 616V1193L86 1147V1213L313 1347H403V616ZM1318 157V-2H1150V157H823V255L1184 807H1318V280H1398V157H1318ZM1150
613H1147L932 280H1150V613Z" />
<glyph unicode="&#xbd;" glyph-name="onehalf" horiz-adv-x="1536" d="M389 0H266L1231 1341H1351L389 0ZM396 616L536 602V535H79V602L218 616V1193L79 1147V1213L306 1347H396V616ZM1457 2H947V115Q1024 198 1083 256T1182 366T1242 474T1263 609Q1263 675 1234
709T1152 744Q1099 744 1062 713L1036 597H974V790Q1087 816 1167 816Q1300 816 1370 761T1441 606Q1441 538 1419 484T1348 378T1192 238L1082 143H1457V2Z" />
<glyph unicode="&#xbe;" glyph-name="threequarters" horiz-adv-x="1536" d="M386 0H263L1228 1341H1348L386 0ZM622 754Q622 645 545 584T325 523Q206 523 103 547L96 752H161L193 620Q238 594 292 594Q441 594 441 760Q441 830 410 867T302 910L238 914V997L300
1001Q354 1005 379 1038T404 1143Q404 1277 293 1277Q255 1277 211 1249L185 1130H123V1323Q225 1349 316 1349Q586 1349 586 1151Q586 1075 547 1023T420 956Q524 943 573 894T622 754ZM1339 157V-2H1171V157H844V255L1205 807H1339V280H1419V157H1339ZM1171 613H1168L953
280H1171V613Z" />
<glyph unicode="&#xbf;" glyph-name="questiondown" horiz-adv-x="1024" d="M581 961Q651 961 698 913T746 795Q746 725 699 677T581 629Q512 629 464 677T415 795Q415 864 463 912T581 961ZM535 542H638L695 229L600 204Q496 177 455 113T413 -62Q413 -199 461
-260T621 -322Q705 -322 770 -280L813 -86H902V-381Q736 -424 578 -424Q124 -424 124 -69Q124 76 201 176T421 316L508 340L535 542Z" />
<glyph unicode="&#xc0;" glyph-name="Agrave" horiz-adv-x="1479" d="M428 73V0H20V73L120 100L597 1352H887L1362 100L1464 73V0H867V73L1022 100L894 447H379L256 100L428 73ZM641 1150L420 557H856L641 1150ZM815 1452L451 1720V1757H736L901 1484V1452H815Z" />
<glyph unicode="&#xc1;" glyph-name="Aacute" horiz-adv-x="1479" d="M428 73V0H20V73L120 100L597 1352H887L1362 100L1464 73V0H867V73L1022 100L894 447H379L256 100L428 73ZM641 1150L420 557H856L641 1150ZM602 1452V1485L768 1757H1053V1720L688 1452H602Z" />
<glyph unicode="&#xc2;" glyph-name="Acircumflex" horiz-adv-x="1479" d="M428 73V0H20V73L120 100L597 1352H887L1362 100L1464 73V0H867V73L1022 100L894 447H379L256 100L428 73ZM641 1150L420 557H856L641 1150ZM416 1452V1485L634 1778H847L1064 1485V1452H988L740
1614L492 1452H416Z" />
<glyph unicode="&#xc3;" glyph-name="Atilde" horiz-adv-x="1479" d="M428 73V0H20V73L120 100L597 1352H887L1362 100L1464 73V0H867V73L1022 100L894 447H379L256 100L428 73ZM641 1150L420 557H856L641 1150ZM854 1454Q769 1454 657 1542Q600 1587 567 1587Q533
1587 520 1565T498 1472H393Q404 1626 457 1692T608 1759Q657 1759 696 1741T806 1673Q867 1628 895 1628Q914 1628 925 1634T944 1656T964 1740H1069Q1058 1588 1006 1521T854 1454Z" />
<glyph unicode="&#xc4;" glyph-name="Adieresis" horiz-adv-x="1479" d="M428 73V0H20V73L120 100L597 1352H887L1362 100L1464 73V0H867V73L1022 100L894 447H379L256 100L428 73ZM641 1150L420 557H856L641 1150ZM905 1464Q857 1464 821 1499T784 1585Q784 1635
820 1669T905 1704Q954 1704 989 1670T1024 1585Q1024 1535 989 1500T905 1464ZM569 1464Q521 1464 485 1501T448 1585Q448 1633 484 1668T569 1704Q618 1704 653 1669T688 1585Q688 1535 653 1500T569 1464Z" />
<glyph unicode="&#xc5;" glyph-name="Aring" horiz-adv-x="1479" d="M428 73V0H20V73L120 100L597 1352H887L1362 100L1464 73V0H867V73L1022 100L894 447H379L256 100L428 73ZM641 1150L420 557H856L641 1150ZM732 1272Q645 1272 583 1333T521 1485Q521 1575
582 1635T732 1696Q820 1696 881 1636T943 1485Q943 1396 882 1334T732 1272ZM732 1584Q693 1584 664 1555T634 1485Q634 1446 663 1417T732 1387Q771 1387 800 1416T830 1485Q830 1525 800 1554T732 1584Z" />
<glyph unicode="&#xc6;" glyph-name="AE" horiz-adv-x="2048" d="M827 1252L684 1270V1341H1858V1000H1767L1735 1217Q1623 1231 1471 1231H1271V739H1554L1585 887H1674V475H1585L1554 627H1271V110H1516Q1714 110 1794 126L1851 374H1942L1923 0H784V73L956
100V447H495L290 100L442 73V0H14V73L136 100L827 1252ZM956 557V1236L560 557H956Z" />
<glyph unicode="&#xc7;" glyph-name="Ccedilla" horiz-adv-x="1479" d="M815 -20Q478 -20 289 159T100 655Q100 999 280 1177T814 1356Q1047 1356 1297 1289L1303 967H1213L1185 1161Q1053 1251 878 1251Q646 1251 539 1107T432 658Q432 377 544 230T870 83Q983
83 1067 113T1200 184L1232 404H1323L1317 64Q1227 29 1083 5T815 -20ZM740 -422Q650 -422 580 -391V-301Q652 -320 715 -320Q807 -320 807 -234Q807 -190 776 -167T676 -138L727 57H838L815 -53Q1000 -80 1000 -221Q1000 -315 928 -368T740 -422Z" />
<glyph unicode="&#xc8;" glyph-name="Egrave" horiz-adv-x="1366" d="M35 73L207 100V1242L35 1268V1341H1177V1000H1086L1054 1217Q942 1231 730 1231H522V739H873L904 887H993V475H904L873 627H522V110H775Q1033 110 1113 126L1170 374H1261L1242 0H35V73ZM794
1452L430 1720V1757H715L880 1484V1452H794Z" />
<glyph unicode="&#xc9;" glyph-name="Eacute" horiz-adv-x="1366" d="M35 73L207 100V1242L35 1268V1341H1177V1000H1086L1054 1217Q942 1231 730 1231H522V739H873L904 887H993V475H904L873 627H522V110H775Q1033 110 1113 126L1170 374H1261L1242 0H35V73ZM538
1452V1485L704 1757H989V1720L624 1452H538Z" />
<glyph unicode="&#xca;" glyph-name="Ecircumflex" horiz-adv-x="1366" d="M35 73L207 100V1242L35 1268V1341H1177V1000H1086L1054 1217Q942 1231 730 1231H522V739H873L904 887H993V475H904L873 627H522V110H775Q1033 110 1113 126L1170 374H1261L1242 0H35V73ZM358
1452V1485L576 1778H789L1006 1485V1452H930L682 1614L434 1452H358Z" />
<glyph unicode="&#xcb;" glyph-name="Edieresis" horiz-adv-x="1366" d="M35 73L207 100V1242L35 1268V1341H1177V1000H1086L1054 1217Q942 1231 730 1231H522V739H873L904 887H993V475H904L873 627H522V110H775Q1033 110 1113 126L1170 374H1261L1242 0H35V73ZM852
1464Q804 1464 768 1499T731 1585Q731 1635 767 1669T852 1704Q901 1704 936 1670T971 1585Q971 1535 936 1500T852 1464ZM516 1464Q468 1464 432 1501T395 1585Q395 1633 431 1668T516 1704Q565 1704 600 1669T635 1585Q635 1535 600 1500T516 1464Z" />
<glyph unicode="&#xcc;" glyph-name="Igrave" horiz-adv-x="797" d="M556 100L728 74V0H69V74L241 100V1241L69 1268V1341H728V1268L556 1241V100ZM503 1452L139 1720V1757H424L589 1484V1452H503Z" />
<glyph unicode="&#xcd;" glyph-name="Iacute" horiz-adv-x="797" d="M556 100L728 74V0H69V74L241 100V1241L69 1268V1341H728V1268L556 1241V100ZM238 1452V1485L404 1757H689V1720L324 1452H238Z" />
<glyph unicode="&#xce;" glyph-name="Icircumflex" horiz-adv-x="797" d="M556 100L728 74V0H69V74L241 100V1241L69 1268V1341H728V1268L556 1241V100ZM71 1452V1485L289 1778H502L719 1485V1452H643L395 1614L147 1452H71Z" />
<glyph unicode="&#xcf;" glyph-name="Idieresis" horiz-adv-x="797" d="M556 100L728 74V0H69V74L241 100V1241L69 1268V1341H728V1268L556 1241V100ZM565 1464Q517 1464 481 1499T444 1585Q444 1635 480 1669T565 1704Q614 1704 649 1670T684 1585Q684 1535 649
1500T565 1464ZM229 1464Q181 1464 145 1501T108 1585Q108 1633 144 1668T229 1704Q278 1704 313 1669T348 1585Q348 1535 313 1500T229 1464Z" />
<glyph unicode="&#xd0;" glyph-name="Eth" horiz-adv-x="1479" d="M695 1341Q1056 1341 1228 1178T1401 678Q1401 333 1236 165T737 -4L288 0H80V73L230 100V609H51V731H230V1242L58 1268V1341H695ZM1069 670Q1069 960 963 1095T618 1231H544V731H800V609H544V114Q640
106 718 106Q848 106 923 162T1034 337T1069 670Z" />
<glyph unicode="&#xd1;" glyph-name="Ntilde" horiz-adv-x="1479" d="M1155 1242L975 1268V1341H1452V1268L1280 1242V0H1163L336 1078V100L516 73V0H39V73L211 100V1242L39 1268V1341H498L1155 484V1242ZM874 1454Q789 1454 677 1542Q620 1587 587 1587Q553 1587
540 1565T518 1472H413Q424 1626 477 1692T628 1759Q677 1759 716 1741T826 1673Q887 1628 915 1628Q934 1628 945 1634T964 1656T984 1740H1089Q1078 1588 1026 1521T874 1454Z" />
<glyph unicode="&#xd2;" glyph-name="Ograve" horiz-adv-x="1593" d="M432 672Q432 353 519 217T797 80Q986 80 1073 217T1161 672Q1161 989 1074 1122T797 1255Q607 1255 520 1122T432 672ZM100 672Q100 1356 797 1356Q1141 1356 1317 1183T1493 672Q1493 331
1315 156T797 -20Q458 -20 279 155T100 672ZM855 1452L491 1720V1757H776L941 1484V1452H855Z" />
<glyph unicode="&#xd3;" glyph-name="Oacute" horiz-adv-x="1593" d="M432 672Q432 353 519 217T797 80Q986 80 1073 217T1161 672Q1161 989 1074 1122T797 1255Q607 1255 520 1122T432 672ZM100 672Q100 1356 797 1356Q1141 1356 1317 1183T1493 672Q1493 331
1315 156T797 -20Q458 -20 279 155T100 672ZM695 1452V1485L861 1757H1146V1720L781 1452H695Z" />
<glyph unicode="&#xd4;" glyph-name="Ocircumflex" horiz-adv-x="1593" d="M432 672Q432 353 519 217T797 80Q986 80 1073 217T1161 672Q1161 989 1074 1122T797 1255Q607 1255 520 1122T432 672ZM100 672Q100 1356 797 1356Q1141 1356 1317 1183T1493 672Q1493
331 1315 156T797 -20Q458 -20 279 155T100 672ZM473 1452V1485L691 1778H904L1121 1485V1452H1045L797 1614L549 1452H473Z" />
<glyph unicode="&#xd5;" glyph-name="Otilde" horiz-adv-x="1593" d="M432 672Q432 353 519 217T797 80Q986 80 1073 217T1161 672Q1161 989 1074 1122T797 1255Q607 1255 520 1122T432 672ZM100 672Q100 1356 797 1356Q1141 1356 1317 1183T1493 672Q1493 331
1315 156T797 -20Q458 -20 279 155T100 672ZM918 1454Q833 1454 721 1542Q664 1587 631 1587Q597 1587 584 1565T562 1472H457Q468 1626 521 1692T672 1759Q721 1759 760 1741T870 1673Q931 1628 959 1628Q978 1628 989 1634T1008 1656T1028 1740H1133Q1122 1588
1070 1521T918 1454Z" />
<glyph unicode="&#xd6;" glyph-name="Odieresis" horiz-adv-x="1593" d="M432 672Q432 353 519 217T797 80Q986 80 1073 217T1161 672Q1161 989 1074 1122T797 1255Q607 1255 520 1122T432 672ZM100 672Q100 1356 797 1356Q1141 1356 1317 1183T1493 672Q1493
331 1315 156T797 -20Q458 -20 279 155T100 672ZM971 1464Q923 1464 887 1499T850 1585Q850 1635 886 1669T971 1704Q1020 1704 1055 1670T1090 1585Q1090 1535 1055 1500T971 1464ZM635 1464Q587 1464 551 1501T514 1585Q514 1633 550 1668T635 1704Q684 1704
719 1669T754 1585Q754 1535 719 1500T635 1464Z" />
<glyph unicode="&#xd7;" glyph-name="multiply" horiz-adv-x="1167" d="M578 578L253 254L152 356L476 682L152 1004L256 1108L578 784L904 1108L1005 1006L681 682L1005 356L904 254L578 578Z" />
<glyph unicode="&#xd8;" glyph-name="Oslash" horiz-adv-x="1593" d="M291 144Q100 319 100 672Q100 1356 797 1356Q1049 1356 1213 1261L1321 1391H1466L1304 1194Q1493 1021 1493 672Q1493 331 1315 156T797 -20Q549 -20 383 75L276 -55H127L291 144ZM432 672Q432
473 463 353L1084 1104Q998 1255 797 1255Q607 1255 520 1122T432 672ZM1161 672Q1161 866 1130 983L511 231Q597 80 797 80Q986 80 1073 217T1161 672Z" />
<glyph unicode="&#xd9;" glyph-name="Ugrave" horiz-adv-x="1479" d="M838 122Q988 122 1070 206T1152 453V1242L972 1268V1341H1428V1268L1276 1242V461Q1276 229 1142 105T759 -19Q490 -19 347 106T203 469V1242L51 1268V1341H690V1268L518 1242V455Q518 294
599 208T838 122ZM849 1452L485 1720V1757H770L935 1484V1452H849Z" />
<glyph unicode="&#xda;" glyph-name="Uacute" horiz-adv-x="1479" d="M838 122Q988 122 1070 206T1152 453V1242L972 1268V1341H1428V1268L1276 1242V461Q1276 229 1142 105T759 -19Q490 -19 347 106T203 469V1242L51 1268V1341H690V1268L518 1242V455Q518 294
599 208T838 122ZM706 1452V1485L872 1757H1157V1720L792 1452H706Z" />
<glyph unicode="&#xdb;" glyph-name="Ucircumflex" horiz-adv-x="1479" d="M838 122Q988 122 1070 206T1152 453V1242L972 1268V1341H1428V1268L1276 1242V461Q1276 229 1142 105T759 -19Q490 -19 347 106T203 469V1242L51 1268V1341H690V1268L518 1242V455Q518
294 599 208T838 122ZM478 1452V1485L696 1778H909L1126 1485V1452H1050L802 1614L554 1452H478Z" />
<glyph unicode="&#xdc;" glyph-name="Udieresis" horiz-adv-x="1479" d="M838 122Q988 122 1070 206T1152 453V1242L972 1268V1341H1428V1268L1276 1242V461Q1276 229 1142 105T759 -19Q490 -19 347 106T203 469V1242L51 1268V1341H690V1268L518 1242V455Q518
294 599 208T838 122ZM965 1464Q917 1464 881 1499T844 1585Q844 1635 880 1669T965 1704Q1014 1704 1049 1670T1084 1585Q1084 1535 1049 1500T965 1464ZM629 1464Q581 1464 545 1501T508 1585Q508 1633 544 1668T629 1704Q678 1704 713 1669T748 1585Q748 1535
713 1500T629 1464Z" />
<glyph unicode="&#xdd;" glyph-name="Yacute" horiz-adv-x="1479" d="M911 528V100L1124 73V0H382V73L595 100V522L187 1242L36 1268V1341H726V1268L546 1242L852 680L1148 1242L984 1268V1341H1440V1268L1298 1242L911 528ZM643 1452V1485L809 1757H1094V1720L729
1452H643Z" />
<glyph unicode="&#xde;" glyph-name="Thorn" horiz-adv-x="1251" d="M530 100L702 74V0H43V74L215 100V1241L43 1268V1341H702V1268L530 1241V1083H586Q871 1083 1012 988T1153 688Q1153 268 663 268H530V100ZM831 686Q831 846 772 909T562 973H530V378H566Q705
378 768 448T831 686Z" />
<glyph unicode="&#xdf;" glyph-name="germandbls" horiz-adv-x="1139" d="M537 785Q537 875 582 944T706 1046Q700 1195 665 1268T552 1341Q475 1341 445 1261T414 952V0H43V66L125 90V952Q125 1203 232 1322T558 1442Q983 1442 995 985Q892 985 839 948T786 841Q786
785 813 733T913 607Q1001 518 1030 477T1073 385T1088 277Q1088 139 995 60T740 -20Q672 -20 599 -7T496 21V269H562L600 127Q643 73 711 73H721Q770 75 802 116T834 216Q834 274 803 325T698 448Q656 489 614 548T555 664T537 785Z" />
<glyph unicode="&#xe0;" glyph-name="agrave" horiz-adv-x="1024" d="M546 961Q899 961 899 701V90L993 66V0H647L625 72Q547 19 484 0T357 -20Q66 -20 66 260Q66 366 109 429T233 523T488 558L610 561V698Q610 868 471 868Q387 868 283 816L245 699H179V926Q330
949 401 955T546 961ZM610 472L526 469Q429 465 392 418T354 266Q354 181 384 141T462 101Q530 101 610 136V472ZM622 1118L258 1386V1423H543L708 1150V1118H622Z" />
<glyph unicode="&#xe1;" glyph-name="aacute" horiz-adv-x="1024" d="M546 961Q899 961 899 701V90L993 66V0H647L625 72Q547 19 484 0T357 -20Q66 -20 66 260Q66 366 109 429T233 523T488 558L610 561V698Q610 868 471 868Q387 868 283 816L245 699H179V926Q330
949 401 955T546 961ZM610 472L526 469Q429 465 392 418T354 266Q354 181 384 141T462 101Q530 101 610 136V472ZM363 1118V1151L529 1423H814V1386L449 1118H363Z" />
<glyph unicode="&#xe2;" glyph-name="acircumflex" horiz-adv-x="1024" d="M546 961Q899 961 899 701V90L993 66V0H647L625 72Q547 19 484 0T357 -20Q66 -20 66 260Q66 366 109 429T233 523T488 558L610 561V698Q610 868 471 868Q387 868 283 816L245 699H179V926Q330
949 401 955T546 961ZM610 472L526 469Q429 465 392 418T354 266Q354 181 384 141T462 101Q530 101 610 136V472ZM186 1118V1151L404 1444H617L834 1151V1118H758L510 1280L262 1118H186Z" />
<glyph unicode="&#xe3;" glyph-name="atilde" horiz-adv-x="1024" d="M546 961Q899 961 899 701V90L993 66V0H647L625 72Q547 19 484 0T357 -20Q66 -20 66 260Q66 366 109 429T233 523T488 558L610 561V698Q610 868 471 868Q387 868 283 816L245 699H179V926Q330
949 401 955T546 961ZM610 472L526 469Q429 465 392 418T354 266Q354 181 384 141T462 101Q530 101 610 136V472ZM631 1122Q546 1122 434 1210Q377 1255 344 1255Q310 1255 297 1233T275 1140H170Q181 1294 234 1360T385 1427Q434 1427 473 1409T583 1341Q644 1296
672 1296Q691 1296 702 1302T721 1324T741 1408H846Q835 1256 783 1189T631 1122Z" />
<glyph unicode="&#xe4;" glyph-name="adieresis" horiz-adv-x="1024" d="M546 961Q899 961 899 701V90L993 66V0H647L625 72Q547 19 484 0T357 -20Q66 -20 66 260Q66 366 109 429T233 523T488 558L610 561V698Q610 868 471 868Q387 868 283 816L245 699H179V926Q330
949 401 955T546 961ZM610 472L526 469Q429 465 392 418T354 266Q354 181 384 141T462 101Q530 101 610 136V472ZM682 1130Q634 1130 598 1165T561 1251Q561 1301 597 1335T682 1370Q731 1370 766 1336T801 1251Q801 1201 766 1166T682 1130ZM346 1130Q298 1130
262 1167T225 1251Q225 1299 261 1334T346 1370Q395 1370 430 1335T465 1251Q465 1201 430 1166T346 1130Z" />
<glyph unicode="&#xe5;" glyph-name="aring" horiz-adv-x="1024" d="M546 961Q899 961 899 701V90L993 66V0H647L625 72Q547 19 484 0T357 -20Q66 -20 66 260Q66 366 109 429T233 523T488 558L610 561V698Q610 868 471 868Q387 868 283 816L245 699H179V926Q330
949 401 955T546 961ZM610 472L526 469Q429 465 392 418T354 266Q354 181 384 141T462 101Q530 101 610 136V472ZM518 1059Q431 1059 369 1120T307 1272Q307 1362 368 1422T518 1483Q606 1483 667 1423T729 1272Q729 1183 668 1121T518 1059ZM518 1371Q479 1371
450 1342T420 1272Q420 1233 449 1204T518 1174Q557 1174 586 1203T616 1272Q616 1312 586 1341T518 1371Z" />
<glyph unicode="&#xe6;" glyph-name="ae" horiz-adv-x="1479" d="M988 965Q1193 965 1297 859T1401 544V462H878V409Q880 293 908 232T994 138T1149 105Q1195 105 1257 114T1360 134V57Q1308 23 1228 2T1070 -19Q934 -19 849 12T710 105Q552 -20 355 -20Q211 -20
139 48T66 260Q66 335 90 389T160 478T284 533T503 558L602 561V696Q602 785 568 826T463 868Q371 868 283 817L244 699H179V925Q354 961 514 961Q672 961 746 891Q839 965 988 965ZM466 101Q522 101 569 119T661 164Q635 196 619 266T602 420V472L528 469Q457
465 423 445T371 382T354 266Q354 181 386 141T466 101ZM1004 862Q940 862 910 797T879 567H1107Q1107 734 1084 798T1004 862Z" />
<glyph unicode="&#xe7;" glyph-name="ccedilla" horiz-adv-x="909" d="M858 57Q813 21 734 1T570 -19Q319 -19 195 102T70 472Q70 627 126 737T288 906T532 965Q672 965 837 930V652H765L723 817Q689 842 656 852T569 862Q510 862 462 815T388 683T361 478Q361
277 423 191T622 105Q760 105 858 134V57ZM440 -422Q350 -422 280 -391V-301Q352 -320 415 -320Q507 -320 507 -234Q507 -190 476 -167T376 -138L427 57H538L515 -53Q700 -80 700 -221Q700 -315 628 -368T440 -422Z" />
<glyph unicode="&#xe8;" glyph-name="egrave" horiz-adv-x="909" d="M494 963Q685 963 770 861T856 544V462H363V446Q363 297 387 234T465 138T613 105Q701 105 835 134V57Q780 24 693 3T522 -19Q291 -19 181 101T70 475Q70 721 175 842T494 963ZM483 862Q423
862 394 797T364 567H582Q582 701 573 755T543 836T483 862ZM571 1118L207 1386V1423H492L657 1150V1118H571Z" />
<glyph unicode="&#xe9;" glyph-name="eacute" horiz-adv-x="909" d="M494 963Q685 963 770 861T856 544V462H363V446Q363 297 387 234T465 138T613 105Q701 105 835 134V57Q780 24 693 3T522 -19Q291 -19 181 101T70 475Q70 721 175 842T494 963ZM483 862Q423
862 394 797T364 567H582Q582 701 573 755T543 836T483 862ZM358 1118V1151L524 1423H809V1386L444 1118H358Z" />
<glyph unicode="&#xea;" glyph-name="ecircumflex" horiz-adv-x="909" d="M494 963Q685 963 770 861T856 544V462H363V446Q363 297 387 234T465 138T613 105Q701 105 835 134V57Q780 24 693 3T522 -19Q291 -19 181 101T70 475Q70 721 175 842T494 963ZM483 862Q423
862 394 797T364 567H582Q582 701 573 755T543 836T483 862ZM154 1118V1151L372 1444H585L802 1151V1118H726L478 1280L230 1118H154Z" />
<glyph unicode="&#xeb;" glyph-name="edieresis" horiz-adv-x="909" d="M494 963Q685 963 770 861T856 544V462H363V446Q363 297 387 234T465 138T613 105Q701 105 835 134V57Q780 24 693 3T522 -19Q291 -19 181 101T70 475Q70 721 175 842T494 963ZM483 862Q423
862 394 797T364 567H582Q582 701 573 755T543 836T483 862ZM642 1130Q594 1130 558 1165T521 1251Q521 1301 557 1335T642 1370Q691 1370 726 1336T761 1251Q761 1201 726 1166T642 1130ZM306 1130Q258 1130 222 1167T185 1251Q185 1299 221 1334T306 1370Q355
1370 390 1335T425 1251Q425 1201 390 1166T306 1130Z" />
<glyph unicode="&#xec;" glyph-name="igrave" horiz-adv-x="569" d="M436 90L539 66V0H45V66L147 90V850L51 874V940H436V90ZM608 1118L244 1386V1423H529L694 1150V1118H608Z" />
<glyph unicode="&#xed;" glyph-name="iacute" horiz-adv-x="569" d="M436 90L539 66V0H45V66L147 90V850L51 874V940H436V90ZM399 1118V1151L565 1423H850V1386L485 1118H399Z" />
<glyph unicode="&#xee;" glyph-name="icircumflex" horiz-adv-x="569" d="M436 90L539 66V0H45V66L147 90V850L51 874V940H436V90ZM220 1118V1151L438 1444H651L868 1151V1118H792L544 1280L296 1118H220Z" />
<glyph unicode="&#xef;" glyph-name="idieresis" horiz-adv-x="569" d="M436 90L539 66V0H45V66L147 90V850L51 874V940H436V90ZM716 1130Q668 1130 632 1165T595 1251Q595 1301 631 1335T716 1370Q765 1370 800 1336T835 1251Q835 1201 800 1166T716 1130ZM380
1130Q332 1130 296 1167T259 1251Q259 1299 295 1334T380 1370Q429 1370 464 1335T499 1251Q499 1201 464 1166T380 1130Z" />
<glyph unicode="&#xf0;" glyph-name="eth" horiz-adv-x="1024" d="M229 1117L402 1217Q313 1283 218 1313V1421Q390 1382 534 1294L819 1459V1335L628 1224Q939 966 946 479V444Q946 -20 506 -20Q294 -20 186 99T78 444Q78 667 186 785T514 903Q580 903 617 895Q584
1033 484 1139L229 991V1117ZM653 445Q653 632 618 718T508 804Q435 804 403 722T371 445Q371 245 403 163T508 80Q583 80 618 169T653 445Z" />
<glyph unicode="&#xf1;" glyph-name="ntilde" horiz-adv-x="1139" d="M434 858L502 893Q642 965 754 965Q1014 965 1014 688V90L1108 66V0H641V66L725 90V649Q725 733 690 780T588 827Q512 827 436 793V90L522 66V0H55V66L147 90V850L55 874V940H420L434 858ZM707
1122Q622 1122 510 1210Q453 1255 420 1255Q386 1255 373 1233T351 1140H246Q257 1294 310 1360T461 1427Q510 1427 549 1409T659 1341Q720 1296 748 1296Q767 1296 778 1302T797 1324T817 1408H922Q911 1256 859 1189T707 1122Z" />
<glyph unicode="&#xf2;" glyph-name="ograve" horiz-adv-x="1024" d="M946 475Q946 222 838 101T506 -20Q290 -20 184 102T78 475Q78 724 185 844T514 965Q737 965 841 841T946 475ZM653 475Q653 695 621 779T508 864Q431 864 401 783T371 475Q371 244 401 162T508
80Q587 80 620 166T653 475ZM591 1118L227 1386V1423H512L677 1150V1118H591Z" />
<glyph unicode="&#xf3;" glyph-name="oacute" horiz-adv-x="1024" d="M946 475Q946 222 838 101T506 -20Q290 -20 184 102T78 475Q78 724 185 844T514 965Q737 965 841 841T946 475ZM653 475Q653 695 621 779T508 864Q431 864 401 783T371 475Q371 244 401 162T508
80Q587 80 620 166T653 475ZM375 1118V1151L541 1423H826V1386L461 1118H375Z" />
<glyph unicode="&#xf4;" glyph-name="ocircumflex" horiz-adv-x="1024" d="M946 475Q946 222 838 101T506 -20Q290 -20 184 102T78 475Q78 724 185 844T514 965Q737 965 841 841T946 475ZM653 475Q653 695 621 779T508 864Q431 864 401 783T371 475Q371 244 401
162T508 80Q587 80 620 166T653 475ZM186 1118V1151L404 1444H617L834 1151V1118H758L510 1280L262 1118H186Z" />
<glyph unicode="&#xf5;" glyph-name="otilde" horiz-adv-x="1024" d="M946 475Q946 222 838 101T506 -20Q290 -20 184 102T78 475Q78 724 185 844T514 965Q737 965 841 841T946 475ZM653 475Q653 695 621 779T508 864Q431 864 401 783T371 475Q371 244 401 162T508
80Q587 80 620 166T653 475ZM629 1122Q544 1122 432 1210Q375 1255 342 1255Q308 1255 295 1233T273 1140H168Q179 1294 232 1360T383 1427Q432 1427 471 1409T581 1341Q642 1296 670 1296Q689 1296 700 1302T719 1324T739 1408H844Q833 1256 781 1189T629 1122Z"
/>
<glyph unicode="&#xf6;" glyph-name="odieresis" horiz-adv-x="1024" d="M946 475Q946 222 838 101T506 -20Q290 -20 184 102T78 475Q78 724 185 844T514 965Q737 965 841 841T946 475ZM653 475Q653 695 621 779T508 864Q431 864 401 783T371 475Q371 244 401
162T508 80Q587 80 620 166T653 475ZM680 1130Q632 1130 596 1165T559 1251Q559 1301 595 1335T680 1370Q729 1370 764 1336T799 1251Q799 1201 764 1166T680 1130ZM344 1130Q296 1130 260 1167T223 1251Q223 1299 259 1334T344 1370Q393 1370 428 1335T463 1251Q463
1201 428 1166T344 1130Z" />
<glyph unicode="&#xf7;" glyph-name="divide" horiz-adv-x="1124" d="M1038 751V608H86V751H1038ZM561 183Q505 183 466 222T427 317Q427 373 466 412T561 451Q617 451 656 412T695 317Q695 261 656 222T561 183ZM561 909Q505 909 466 948T427 1043Q427 1099 466
1138T561 1177Q617 1177 656 1138T695 1043Q695 987 656 948T561 909Z" />
<glyph unicode="&#xf8;" glyph-name="oslash" horiz-adv-x="1024" d="M192 94Q78 216 78 475Q78 724 185 844T514 965Q658 965 753 912L828 1022H952L834 849Q946 727 946 475Q946 222 838 101T506 -20Q369 -20 275 30L198 -84H70L192 94ZM371 475V414L373 358L633
738Q618 801 589 832T508 864Q431 864 401 783T371 475ZM653 475L651 581L390 199Q404 139 432 110T508 80Q587 80 620 166T653 475Z" />
<glyph unicode="&#xf9;" glyph-name="ugrave" horiz-adv-x="1139" d="M705 82L637 47Q497 -25 385 -25Q125 -25 125 252V850L31 874V940H414V291Q414 207 449 160T551 113Q627 113 703 147V850L617 874V940H992V90L1084 66V0H719L705 82ZM631 1118L267 1386V1423H552L717
1150V1118H631Z" />
<glyph unicode="&#xfa;" glyph-name="uacute" horiz-adv-x="1139" d="M705 82L637 47Q497 -25 385 -25Q125 -25 125 252V850L31 874V940H414V291Q414 207 449 160T551 113Q627 113 703 147V850L617 874V940H992V90L1084 66V0H719L705 82ZM416 1118V1151L582 1423H867V1386L502
1118H416Z" />
<glyph unicode="&#xfb;" glyph-name="ucircumflex" horiz-adv-x="1139" d="M705 82L637 47Q497 -25 385 -25Q125 -25 125 252V850L31 874V940H414V291Q414 207 449 160T551 113Q627 113 703 147V850L617 874V940H992V90L1084 66V0H719L705 82ZM239 1118V1151L457
1444H670L887 1151V1118H811L563 1280L315 1118H239Z" />
<glyph unicode="&#xfc;" glyph-name="udieresis" horiz-adv-x="1139" d="M705 82L637 47Q497 -25 385 -25Q125 -25 125 252V850L31 874V940H414V291Q414 207 449 160T551 113Q627 113 703 147V850L617 874V940H992V90L1084 66V0H719L705 82ZM735 1130Q687 1130
651 1165T614 1251Q614 1301 650 1335T735 1370Q784 1370 819 1336T854 1251Q854 1201 819 1166T735 1130ZM399 1130Q351 1130 315 1167T278 1251Q278 1299 314 1334T399 1370Q448 1370 483 1335T518 1251Q518 1201 483 1166T399 1130Z" />
<glyph unicode="&#xfd;" glyph-name="yacute" horiz-adv-x="1024" d="M462 -29L86 850L20 874V940H501V874L389 848L610 328L807 850L697 874V940H1004V874L936 854L565 -59Q501 -222 453 -295T347 -405T213 -442Q132 -442 48 -423V-181H108L151 -307Q180 -330
225 -330Q263 -330 292 -312T346 -260T395 -177T462 -29ZM412 1118V1151L578 1423H863V1386L498 1118H412Z" />
<glyph unicode="&#xfe;" glyph-name="thorn" horiz-adv-x="1139" d="M129 1333L14 1356V1421H418V1076Q418 977 409 892Q469 933 530 949T658 965Q866 965 970 846T1075 478Q1075 238 965 109T643 -20Q520 -20 412 7Q418 -59 418 -141V-346L556 -370V-436H27V-370L129
-346V1333ZM782 470Q782 655 733 754T595 854Q504 854 418 811V103Q499 82 587 82Q677 82 729 180T782 470Z" />
<glyph unicode="&#xff;" glyph-name="ydieresis" horiz-adv-x="1024" d="M462 -29L86 850L20 874V940H501V874L389 848L610 328L807 850L697 874V940H1004V874L936 854L565 -59Q501 -222 453 -295T347 -405T213 -442Q132 -442 48 -423V-181H108L151 -307Q180 -330
225 -330Q263 -330 292 -312T346 -260T395 -177T462 -29ZM707 1130Q659 1130 623 1165T586 1251Q586 1301 622 1335T707 1370Q756 1370 791 1336T826 1251Q826 1201 791 1166T707 1130ZM371 1130Q323 1130 287 1167T250 1251Q250 1299 286 1334T371 1370Q420 1370
455 1335T490 1251Q490 1201 455 1166T371 1130Z" />
<glyph unicode="&#x2013;" glyph-name="endash" horiz-adv-x="1024" d="M1038 549V406H-14V549H1038Z" />
<glyph unicode="&#x2014;" glyph-name="emdash" horiz-adv-x="2048" d="M2062 549V406H-14V549H2062Z" />
<glyph unicode="&#x2018;" glyph-name="quoteleft" horiz-adv-x="682" d="M161 936Q161 1091 264 1199T569 1362V1270Q506 1251 462 1221T392 1153T366 1079Q366 1056 381 1041T443 1001Q520 960 520 877Q520 816 476 780T358 743Q273 743 217 797T161 936Z" />
<glyph unicode="&#x2019;" glyph-name="quoteright" horiz-adv-x="682" d="M535 1167Q535 1010 431 903T127 743V836Q190 855 235 886T305 955T330 1026Q330 1050 311 1068T254 1105Q178 1143 178 1229Q178 1290 221 1326T338 1362Q422 1362 478 1308T535 1167Z" />
<glyph unicode="&#x201a;" glyph-name="quotesinglbase" horiz-adv-x="682" d="M524 106Q524 -210 117 -317V-225Q180 -206 225 -175T294 -107T319 -35Q319 -13 304 3T244 44Q168 84 168 168Q168 229 211 265T328 301Q413 301 468 246T524 106Z" />
<glyph unicode="&#x201c;" glyph-name="quotedblleft" horiz-adv-x="1024" d="M99 936Q99 1091 202 1199T507 1362V1270Q444 1251 400 1221T330 1153T304 1079Q304 1056 319 1041T381 1001Q458 960 458 877Q458 816 414 780T296 743Q211 743 155 797T99 936ZM549
936Q549 1091 652 1199T957 1362V1270Q894 1251 850 1221T780 1153T754 1079Q754 1056 769 1041T831 1001Q908 960 908 877Q908 816 864 780T746 743Q661 743 605 797T549 936Z" />
<glyph unicode="&#x201d;" glyph-name="quotedblright" horiz-adv-x="1024" d="M932 1167Q932 1011 830 904T527 743V836Q590 855 635 886T704 954T729 1026Q729 1050 711 1067T653 1105Q576 1144 576 1229Q576 1291 620 1326T738 1362Q822 1362 877 1308T932
1167ZM484 1167Q484 1012 380 904T77 743V836Q140 855 185 886T254 954T279 1026Q279 1050 261 1067T203 1105Q126 1144 126 1229Q126 1291 170 1326T288 1362Q372 1362 428 1307T484 1167Z" />
<glyph unicode="&#x201e;" glyph-name="quotedblbase" horiz-adv-x="1024" d="M916 106Q916 -210 509 -317V-225Q572 -206 617 -175T686 -107T711 -35Q711 -13 696 3T636 44Q560 84 560 168Q560 233 605 267T720 301Q805 301 860 246T916 106ZM466 106Q466 -209
59 -317V-225Q122 -206 167 -175T236 -107T261 -35Q261 -13 246 3T186 44Q110 84 110 168Q110 233 155 267T270 301Q355 301 410 246T466 106Z" />
<glyph unicode="&#x2022;" glyph-name="bullet" horiz-adv-x="717" d="M358 401Q244 401 163 481T81 678Q81 794 162 874T358 955Q472 955 553 875T635 678Q635 562 554 482T358 401Z" />
<glyph unicode="&#x2039;" glyph-name="guilsinglleft" horiz-adv-x="682" d="M126 495L456 851H556L374 462L556 74H456L126 429V495Z" />
<glyph unicode="&#x203a;" glyph-name="guilsinglright" horiz-adv-x="682" d="M556 430L226 74H126L308 463L126 852H226L556 496V430Z" />
</font>
</defs>
</svg>
