<?xml version="1.0" standalone="no"?>
<!DOCTYPE svg PUBLIC "-//W3C//DTD SVG 1.1//EN" "http://www.w3.org/Graphics/SVG/1.1/DTD/svg11.dtd">
<svg xmlns="http://www.w3.org/2000/svg">
<defs >
<font id="IMFellEnglish" horiz-adv-x="834" ><font-face
    font-family="IM FELL English"
    units-per-em="2048"
    panose-1="2 0 0 0 0 0 0 0 0 0"
    ascent="1854"
    descent="-744"
    alphabetic="0" />
<glyph unicode=" " glyph-name="space" horiz-adv-x="447" />
<glyph unicode="!" glyph-name="exclam" horiz-adv-x="558" d="M187 97Q187 126 194 154T225 201Q228 201 234 201T247 201T261 202T270 202Q291 202 311 198T347 184T372 156T382 114Q382 60 358 34T277 7H258Q246 7 234 9T216 19Q214 22 210 30T201 47T192 64T187
76V97ZM197 498V519Q197 530 198 557T200 615T203 673T206 711Q213 713 214 718T216 728V737Q216 750 212 764T203 791T193 818T187 846V972Q187 973 186 977T183 986T180 995T178 1000Q177 1005 175 1014T172 1033T169 1049T168 1059V1140V1221Q171 1230 177 1240T191
1260T208 1275T225 1282Q227 1282 233 1280T245 1276T258 1272T267 1270Q268 1270 275 1274T284 1282H292H303Q312 1275 323 1267T346 1248T366 1227T379 1202Q380 1199 380 1191T381 1172T382 1153T382 1140Q382 1134 382 1124T382 1104T381 1087T379 1078Q379
1073 377 1055T371 1016T364 975T360 951Q360 947 361 925T362 882Q362 860 360 856Q360 853 359 846T357 832T355 818T353 808V452Q353 444 352 430T348 400T344 372T341 355Q338 341 326 329T298 317H292Q242 351 220 392T197 498Z" />
<glyph unicode="&quot;" glyph-name="quotedbl" horiz-adv-x="1022" d="M112 753Q112 770 119 785T137 815T159 844T178 875Q179 876 182 883T190 899T198 916T204 926Q214 941 231 956T266 988T297 1022T310 1062Q310 1071 310 1087T313 1112Q315 1129 317 1139T320
1169Q320 1178 313 1187T295 1205T273 1219T252 1230Q251 1230 251 1231V1232Q244 1231 234 1230T213 1226T193 1223T180 1221Q158 1221 136 1233T95 1263T66 1303T55 1346Q55 1367 64 1391T89 1437T126 1472T171 1486Q184 1490 196 1492T221 1495Q235 1495 248
1493T275 1486Q277 1486 281 1483T287 1477Q330 1462 369 1436T438 1374T484 1294T502 1199Q502 1131 490 1075T451 969T386 875T292 789Q277 777 264 766T236 746T205 732T164 727Q158 727 150 727T133 730T118 738T112 753ZM548 753Q548 768 555 783T574 813T599
839T624 862Q663 920 695 970T759 1074Q761 1076 763 1084T768 1095Q768 1135 766 1161T759 1204T743 1228T714 1235Q701 1230 686 1228T656 1225Q619 1225 586 1235Q574 1239 559 1251T532 1280T511 1312T502 1342Q502 1376 515 1405T550 1455T603 1489T669 1502Q686
1502 714 1495T772 1477T827 1451T863 1424Q866 1419 869 1413T873 1405L882 1382Q885 1379 892 1372T907 1355T922 1337T932 1323Q935 1301 946 1280T958 1235Q958 1224 957 1215T953 1195Q948 1180 946 1169T944 1144Q944 1137 945 1132T948 1119Q950 1111 951
1106T953 1095Q953 1076 949 1061T938 1033T923 1006T906 977Q888 948 877 922T842 862Q820 835 790 811T726 768T656 739T585 728H560Q556 731 552 738T548 753Z" />
<glyph unicode="#" glyph-name="numbersign" horiz-adv-x="1644" d="M767 163Q767 179 773 192T786 218T800 244T809 273Q810 289 811 298T815 313T819 323T824 334Q827 338 830 344T837 362Q839 371 840 376T843 387T849 398T864 417Q863 424 863 429T863 439Q863
446 863 453T864 471Q864 475 867 480T871 490H869Q868 490 867 490T863 491Q848 491 815 488T733 477L638 490Q613 490 613 481H549Q549 463 536 455Q531 453 527 447T517 441Q517 433 517 428T518 417Q518 396 515 387T504 374Q504 342 503 320T497 285Q496 281
485 273T470 263Q462 250 461 241T459 218Q459 204 458 201Q455 187 451 182T442 172T435 163T428 145L375 125Q369 125 360 135T342 157T327 179T321 192Q321 208 325 220T334 245T345 269T354 296Q356 300 357 311T363 327Q364 341 371 353T383 384Q383 386 383
392T385 406T387 420T388 429Q390 433 402 444T416 462Q416 466 416 472T411 479Q394 470 379 466T363 462Q358 464 355 464T347 464Q336 464 328 462T311 456T295 451T276 448L210 457Q190 453 184 452T172 450Q159 450 143 452T111 459T86 475T75 502Q75 510
80 522T92 545T108 566T124 580Q173 587 205 589T267 592Q290 592 311 592T356 590Q380 583 388 582T399 580Q444 593 463 615T489 665T501 727T523 796Q526 804 531 807T541 814T549 822T553 837Q552 838 552 840Q551 842 551 844Q544 844 541 844T534 846T525
849T511 853Q505 851 500 850T487 849L449 856Q440 856 431 852T413 843T395 833T375 829L312 844Q292 839 286 837T274 834Q261 834 245 836T214 845T189 861T179 889Q179 897 183 908T194 932T209 953T226 967H254L458 977L497 965Q512 965 527 972T560 984Q565
984 575 981T587 977Q588 978 590 979Q593 982 593 984Q616 1022 633 1070T660 1163V1189Q660 1193 665 1199T672 1211Q681 1219 684 1226T688 1244Q688 1266 696 1285T717 1322T747 1353T783 1379Q797 1379 806 1370T821 1349T829 1324T831 1306Q831 1293 823
1288T814 1275Q818 1267 820 1254T824 1235Q824 1225 821 1219T814 1208T804 1199T795 1189Q794 1186 791 1176T785 1154T779 1129T776 1112Q776 1087 771 1071T757 1041T741 1015T729 984L864 977H939Q956 977 974 977T1010 980T1043 987T1068 1000Q1068 1001
1074 1018T1088 1058T1102 1099T1108 1123V1154Q1110 1160 1115 1165T1127 1175T1138 1186T1143 1199Q1143 1223 1148 1243T1162 1282T1180 1316T1198 1349Q1205 1351 1211 1352T1222 1353Q1236 1353 1245 1350T1255 1344Q1263 1327 1272 1317T1286 1301Q1286 1296
1283 1287T1276 1269T1269 1253T1266 1244Q1267 1232 1267 1224T1267 1211Q1267 1200 1266 1195T1262 1186T1255 1178T1245 1166Q1240 1160 1239 1154T1236 1141T1232 1124T1222 1100L1229 1067Q1229 1059 1228 1049T1223 1029T1215 1011T1203 1000L1271 1005Q1282
1005 1290 998T1312 990Q1323 990 1335 997T1364 1005L1466 1000L1542 1005Q1561 1005 1569 989T1582 957Q1556 925 1524 907T1451 889Q1439 889 1436 889T1433 891Q1413 888 1395 884T1373 877Q1369 875 1362 872T1343 868Q1332 868 1323 877Q1307 875 1302 875T1292
875Q1266 875 1257 875T1245 877Q1224 866 1212 861T1184 856Q1166 861 1158 861T1146 862Q1129 846 1121 830T1108 797T1102 762T1096 723Q1092 713 1083 699T1064 671T1047 646T1039 630Q1041 623 1043 616T1048 607Q1058 610 1074 612T1107 616T1141 618T1170
619L1209 607Q1220 607 1233 613T1262 619L1364 612L1440 619Q1459 619 1468 603T1482 573Q1432 502 1349 502Q1344 502 1338 504T1330 507Q1328 507 1317 502T1302 497Q1294 497 1286 495T1269 490Q1255 484 1245 484Q1236 485 1229 487Q1223 488 1217 489T1209
490Q1204 488 1199 488T1189 488Q1158 488 1151 488T1143 490Q1125 474 1112 472T1084 469L1006 484Q999 479 998 469T997 450L965 374Q963 370 961 362T958 346T957 331T956 320Q956 300 953 288T944 266T930 246T909 218Q904 206 904 202Q904 191 905 186T906
176Q906 172 905 169T904 164Q902 160 895 151T883 140Q882 135 879 126T876 112Q863 104 851 101T823 97Q817 97 808 105T789 125T774 147T767 163ZM741 877Q713 877 697 873T672 858T660 831T655 789Q653 763 643 749T632 734Q632 733 631 728T629 717T628 706T627
701Q619 688 612 682T600 673T591 664T587 647Q584 644 584 619V590L754 600Q760 600 779 599T845 590Q868 590 889 591T927 600Q929 600 935 621T948 669T963 721T973 756Q976 762 978 763T982 765T988 767T994 773Q1011 808 1011 860Q996 877 985 881T959 886L835
862L741 877Z" />
<glyph unicode="$" glyph-name="dollar" horiz-adv-x="1134" d="M568 -107Q568 -70 568 -56T567 -34T565 -14T561 28L395 35Q369 44 340 48T281 57T225 69T176 90T143 129T130 194V220L149 410Q153 418 156 422T170 427Q191 427 201 408Q240 355 268 304T329 195Q334
183 361 170T422 146T493 126T552 114Q549 145 549 178L566 223Q566 231 564 237T558 251T552 265T549 284Q553 332 554 370T556 445Q556 471 555 500T550 559V626Q540 635 533 644T511 661Q508 661 501 662T485 666T469 669T459 671L407 725Q393 735 382 740T360
748T341 757T319 773Q310 781 305 789T297 805T292 821T284 837Q282 845 276 856T265 874Q242 901 228 920T207 958T197 999T194 1057Q194 1099 204 1144T233 1233T280 1314T343 1379Q353 1389 365 1393T391 1400T418 1403T445 1406Q457 1408 467 1413T487 1425T508
1436T531 1443L526 1560Q526 1565 526 1571T529 1584T536 1594T549 1600Q563 1603 573 1604T594 1605Q614 1605 625 1601T647 1592Q647 1587 649 1571T652 1547Q655 1547 657 1537T661 1515V1495L671 1448L668 1432Q677 1431 685 1429T701 1426Q727 1419 748 1410T798
1400Q817 1400 832 1411T862 1435T893 1459T931 1470Q941 1470 947 1465T956 1452T961 1435T962 1419L943 1353L952 1235V1209Q952 1182 950 1164T941 1118Q940 1113 935 1109T927 1104Q927 1102 921 1102Q916 1102 905 1115T880 1148T850 1192T817 1238T787 1279T761
1304Q738 1318 709 1327T651 1341L645 1310L661 1187L652 1142Q657 1127 659 1119T663 1106T665 1099T665 1095Q665 1079 663 1074T652 1057Q659 1049 664 1024T674 969T680 912T682 874L677 837Q695 828 714 820T761 799L877 725Q879 724 882 722T888 717Q892
714 895 711L912 661Q916 654 919 646T927 633Q930 631 937 623T951 606T965 588T971 576Q974 570 978 559T987 535T995 513T998 497V349Q998 348 994 337T985 317Q981 316 979 311Q978 308 978 306Q976 303 973 293T965 271T958 249T952 237Q949 228 942 218T925
199T908 183T895 173Q886 161 885 147T872 126Q839 114 817 100T775 71T736 46T692 28L689 14V28Q685 26 677 26Q674 11 671 -16Q671 -42 677 -64T685 -118Q675 -119 675 -135V-138Q675 -147 674 -158T667 -179T649 -195T614 -202Q597 -202 587 -198T568 -170V-107ZM535
1346Q510 1343 492 1335T459 1314T432 1283T410 1240Q400 1218 394 1206T383 1182T376 1159T374 1124Q374 1079 387 1045T422 984T475 938T540 905Q543 925 549 951Q547 956 542 969T535 991L549 1041Q549 1053 542 1068T535 1102L542 1218L535 1346ZM670 242Q672
237 678 214T690 163H692L734 173Q738 173 751 194T780 242Q798 272 818 311Q818 313 819 322T821 341T823 361T824 375V391Q824 402 823 410T821 427T817 446T810 471L808 476Q800 487 788 496T765 517Q753 534 749 543T739 558T725 569T696 583Q694 583 689 584T678
588Q673 562 667 537T661 491Q661 462 669 431T677 368L671 330Q671 300 671 284T671 259T670 248T670 242Z" />
<glyph unicode="%" glyph-name="percent" horiz-adv-x="1529" d="M246 -183Q249 -166 255 -154T268 -132T284 -111T300 -86L315 -59Q319 -43 326 -34T339 -12L360 35Q360 37 364 40T374 46T385 51T391 56L400 99Q403 111 410 119T425 136T440 151T453 168Q457
172 464 182T477 202T489 222T495 236Q496 239 506 259T529 303T557 346T582 365Q611 398 631 442T668 523L729 609Q748 652 759 677T778 714T790 731T798 737Q809 764 827 797T867 865T911 935T953 1000T987 1056T1007 1095Q1017 1118 1029 1135T1071 1153Q1084
1153 1099 1150Q1112 1148 1124 1140T1151 1117L1141 1065Q1139 1063 1132 1055T1123 1044Q1113 1026 1111 1006T1097 965Q1091 952 1081 948T1056 934Q1052 927 1050 921T1046 896Q1015 846 996 819T965 778T949 763T944 761T945 761T947 749Q943 733 939 724T930
709T921 700T912 692Q909 687 903 679T892 660T882 640T877 623Q872 597 862 581T843 554T825 538T815 528Q815 524 809 518T801 509Q795 489 787 475T769 449T746 426T720 402Q711 393 707 382T697 362Q693 330 691 318T684 298Q665 285 657 269T647 251Q646 248
640 244T627 237T614 230T606 227Q599 220 593 203T581 167T569 130T556 106Q554 103 549 100T539 94T531 87T528 82Q530 75 530 71T530 63Q530 57 528 54Q523 31 509 20T486 5Q477 -15 475 -26T460 -41Q459 -45 459 -54T453 -74Q451 -89 448 -99T439 -118T424
-134T402 -148Q395 -152 392 -158T387 -172T384 -188T379 -204Q371 -215 366 -218T356 -224T347 -232T339 -251L280 -257Q274 -255 268 -244T256 -220T248 -196T246 -183ZM962 99Q945 134 936 156T927 197Q927 240 931 277T955 343L996 409Q1003 418 1019 430T1053
453T1090 472T1119 480Q1129 477 1135 476T1146 475Q1151 475 1154 476T1159 480H1189Q1212 480 1228 475T1264 454L1303 416L1325 405Q1337 397 1342 387T1349 364T1353 341T1364 320Q1370 311 1375 307T1384 300T1391 291T1396 274Q1397 264 1398 241T1399 200Q1399
195 1396 186T1390 166T1383 147T1379 139Q1377 132 1372 121T1360 97T1348 73T1338 58Q1324 52 1316 45T1301 30T1290 17T1274 8Q1258 -2 1239 -4T1201 -14H1171Q1129 -14 1102 -7T1053 15T1011 51T962 99ZM977 240Q977 227 983 206T1000 162T1023 120T1048 91Q1062
81 1082 73T1125 59T1169 50T1206 46Q1214 46 1218 52T1230 61Q1239 65 1244 66T1254 70T1262 76T1271 88Q1277 97 1284 103T1298 114T1310 127T1318 145Q1319 149 1320 159T1322 170Q1326 185 1330 194T1334 221Q1334 241 1331 256T1310 285Q1308 293 1308 296T1307
302Q1307 322 1298 332T1274 358Q1260 378 1249 386T1227 398T1203 405T1175 419H1118Q1117 419 1102 413T1078 400Q1061 391 1043 372T1011 330T987 283T977 240ZM165 679Q148 714 139 736T130 777Q130 820 134 857T158 923L199 989Q206 998 222 1010T256 1033T293
1052T322 1060Q332 1057 338 1056T349 1055Q354 1055 357 1056T362 1060H392Q415 1060 431 1055T467 1034L506 996L528 985Q540 977 545 967T552 944T556 921T567 900Q573 891 578 887T587 880T594 871T599 854Q600 844 601 821T602 780Q602 775 599 766T593 746T586
727T582 719Q580 712 575 701T563 677T551 653T541 638Q527 632 519 625T504 610T493 597T477 588Q461 578 442 576T404 566H374Q332 566 305 573T256 595T214 631T165 679ZM180 820Q180 807 186 786T203 742T226 700T251 671Q265 661 285 653T328 639T372 630T409
626Q417 626 421 632T433 641Q442 645 447 646T457 650T465 656T474 668Q480 677 487 683T501 694T513 707T521 725Q522 729 523 739T525 750Q529 765 533 774T537 801Q537 821 534 836T513 865Q511 873 511 876T510 882Q510 902 501 912T477 938Q463 958 452 966T430
978T406 985T378 999H321Q320 999 305 993T281 980Q264 971 246 952T214 910T190 863T180 820Z" />
<glyph unicode="&amp;" glyph-name="ampersand" horiz-adv-x="1539" d="M90 389Q90 421 98 459T123 524Q140 549 162 574T209 623T260 668T312 704Q321 706 326 708T335 712T345 718T362 727Q375 732 395 736T433 747T465 766T478 799Q478 801 465 814T436 845T404
877T386 898Q380 908 363 929T329 974T298 1018T284 1045L289 1067Q291 1072 292 1090T296 1119Q298 1146 305 1166T325 1203T355 1236T393 1273Q409 1289 431 1297T479 1310T529 1316T576 1317Q654 1317 713 1284T811 1183Q811 1181 814 1177T821 1167T828 1157T832
1150Q832 1095 821 1063T789 1007T743 964T689 912Q689 903 702 880T733 832T768 787T792 763Q797 760 806 757T824 750T842 740T856 727Q870 707 882 681T909 632T944 594T995 578Q1017 578 1029 595T1047 637T1056 686T1064 727Q1068 745 1077 762T1087 799Q1087
817 1070 837T1033 876T995 914T978 945V965Q1010 974 1047 981T1116 988Q1125 988 1139 988T1168 987T1196 985T1218 981Q1220 981 1225 978T1236 970T1247 961T1254 957Q1256 956 1259 956Q1262 955 1268 955Q1279 955 1289 956T1311 960Q1319 965 1330 968T1350
971L1377 965Q1387 958 1398 954T1417 946T1430 934T1436 912Q1436 896 1430 892T1412 879Q1406 877 1394 872T1369 861T1343 850T1325 843Q1321 844 1315 844T1299 844Q1263 844 1239 821T1197 764T1166 695T1140 635Q1131 618 1119 602T1096 567T1077 530T1069
490Q1069 478 1076 466T1094 441T1115 418T1133 398Q1167 355 1201 315T1282 242Q1296 232 1327 223T1389 201T1443 172T1467 130Q1467 82 1435 59T1360 35Q1343 35 1330 35T1305 37T1277 42T1242 50Q1224 61 1213 78T1183 109Q1175 115 1164 118T1143 125T1123
134T1109 147Q1100 159 1092 180T1074 221T1051 255T1017 270Q1002 270 979 244T929 184T878 115T831 64Q795 37 764 19T700 -12T632 -34T555 -54L500 -64Q470 -64 448 -59T404 -46T362 -27T312 -5Q298 -1 291 -1T272 3Q258 13 251 16T239 20T229 22T213 31Q208
31 208 36Q199 49 188 65T167 97T148 130T137 159Q137 161 135 171T132 194Q127 207 126 217T123 232L104 265Q101 269 99 279T94 303T91 332T90 360V389ZM355 221Q363 204 370 191T388 167T411 148T445 131Q451 130 455 129T465 128Q474 128 485 119Q503 104 513
96T545 88Q583 88 616 97T683 119Q685 121 692 122T707 125T723 128T734 131L761 159Q762 160 767 163T780 170T794 177T805 183Q822 192 840 201T863 232L941 306Q948 313 950 326T953 349Q935 362 924 377T904 407T886 435T863 460Q848 471 836 487T811 519T786
550T761 573Q730 584 707 602T658 642Q636 661 624 678T600 710T573 737T529 758Q517 758 500 747T463 718T422 679T380 637T344 599T317 573Q304 552 297 527T285 477T276 426T263 377Q263 366 266 353T273 327T281 302T289 285L355 221ZM464 1107Q464 1083 476
1056T507 1007T551 970T599 955Q603 955 610 956T619 965Q619 991 619 1000T618 1014Q616 1025 615 1033T613 1048Q613 1059 615 1063T621 1073Q632 1086 632 1099Q632 1122 629 1147T615 1194T585 1228T535 1242Q516 1242 503 1226T481 1187T468 1142T464 1107Z"
/>
<glyph unicode="&apos;" glyph-name="quotesingle" horiz-adv-x="560" d="M81 756Q83 768 90 779T106 802T124 823T138 843Q163 876 185 912T235 981L266 1014Q270 1018 277 1039T291 1085T303 1132T308 1161Q308 1197 292 1212T252 1232T199 1238T147 1248T106
1279T90 1349V1358L107 1381Q118 1391 118 1402T123 1427Q127 1442 141 1454T175 1476T214 1491T251 1496L275 1491Q307 1480 338 1463T398 1434Q406 1421 419 1411T441 1394Q455 1365 461 1337T467 1278Q467 1267 473 1264T489 1253Q496 1243 498 1229T500 1201V1175Q500
1142 491 1117T472 1062Q472 1060 472 1053T470 1038T469 1023T467 1014Q458 982 441 957T403 909T359 866T315 823L256 765Q242 752 225 745T187 733T147 728T107 727Q100 727 97 728T90 737L83 744L81 756Z" />
<glyph unicode="(" glyph-name="parenleft" horiz-adv-x="526" d="M336 -296Q335 -275 327 -255T307 -216T284 -179T266 -142L240 -62Q230 -40 215 -20T192 19L161 161Q140 196 134 230T128 304V329Q109 359 109 396Q109 395 111 407T115 435T120 464T123 477Q123
496 121 519T116 564Q112 587 111 610T109 661L128 701Q131 745 136 785T147 864T160 942T178 1026Q186 1062 204 1094T240 1164Q242 1166 244 1179T246 1197L266 1233Q275 1248 280 1256T287 1269T291 1276T292 1284Q297 1288 298 1298T304 1323Q306 1328 312
1333T326 1343T339 1353T348 1363Q352 1367 356 1377T365 1400T374 1422T381 1436Q382 1436 392 1437T406 1441Q420 1449 432 1459T456 1477T483 1492T517 1498Q524 1498 532 1497T548 1492T561 1482T566 1465Q566 1443 548 1426T507 1393T460 1365T426 1339Q403
1313 385 1275T350 1195T322 1111T298 1036Q291 1016 284 999T271 964T259 928T251 887V856Q251 851 251 843T249 827T247 812T246 803Q246 801 241 794T230 785Q225 774 224 764T223 737V706Q223 695 221 685T214 668V590L209 552Q216 528 219 505T224 457T229
409T240 360Q242 358 246 348T251 336Q256 298 256 263T266 190L322 0Q326 -11 332 -18T345 -33T357 -50T362 -73L420 -206Q433 -213 441 -225T454 -252T464 -281T476 -306L502 -334Q507 -339 512 -348T522 -369T530 -393T533 -417Q533 -421 531 -436T528 -455Q501
-455 473 -436T420 -391T373 -338T336 -296Z" />
<glyph unicode=")" glyph-name="parenright" horiz-adv-x="521" d="M-33 -424Q-22 -398 -8 -385T12 -362Q12 -360 14 -352T17 -341L47 -310Q47 -294 52 -282T62 -263Q78 -244 88 -232T103 -214T111 -204T114 -201Q127 -168 148 -130T191 -53T228 25T247 95V147L277
202Q293 266 298 332T303 464Q303 485 303 503T302 539T300 574T296 614Q293 632 288 649T277 683T267 717T263 754L277 808Q277 817 273 825T264 841T254 857T247 877Q247 880 246 886T244 898T243 911T242 919V945L220 969V1005Q216 1026 205 1037T189 1066L170
1130Q168 1133 164 1140T156 1156T146 1173T138 1187Q129 1201 126 1215T114 1247Q97 1275 74 1304T29 1365T-6 1429T-21 1496Q-21 1505 -2 1505Q20 1505 35 1497T63 1477T85 1449T106 1419Q114 1409 124 1401T144 1385T165 1367T183 1344Q193 1327 198 1304T215
1263L272 1154Q272 1143 274 1136T280 1122T288 1109T296 1093Q316 1042 333 992T367 893Q369 888 371 875T374 856V806Q378 783 388 762T401 713Q408 658 411 599T415 486Q415 465 409 440T403 398L389 246Q388 244 385 236T379 223V189L348 90V48Q341 10 322
-21T289 -87Q286 -98 283 -113T276 -143T268 -171T258 -192L227 -223L220 -247Q218 -256 205 -275T172 -317T128 -366T81 -411T37 -445T2 -458Q-19 -458 -26 -452T-33 -424Z" />
<glyph unicode="*" glyph-name="asterisk" horiz-adv-x="1012" d="M344 751Q344 771 349 790T359 828T370 866T375 905H367Q365 905 354 896T327 875T296 850T270 827Q267 827 260 819T251 808Q246 806 236 801T214 789T194 778T181 770H171Q162 770 155 775T143
789T136 808T133 827Q133 850 139 860T156 876T181 883T209 894Q211 895 215 899T225 909T234 918T239 924Q242 927 253 935T278 953T303 971T318 981Q318 983 321 990T325 1002V1007V1010Q325 1013 323 1016T318 1021Q300 1018 287 1016T262 1013T238 1011T209
1010Q197 1010 173 1013T125 1024T84 1043T66 1071Q66 1084 83 1096T123 1117T168 1132T200 1138Q235 1138 270 1132T341 1126H386Q377 1147 362 1162T329 1191T292 1217T258 1244Q253 1248 242 1258T219 1281T197 1303T181 1318Q175 1327 173 1335T171 1353V1372V1406Q178
1422 188 1424T209 1427Q229 1427 247 1418T277 1398L462 1213Q468 1214 470 1221T472 1235V1247Q472 1268 467 1286T462 1327Q462 1359 463 1390T472 1455Q473 1463 480 1473T498 1493T519 1508T540 1514Q543 1511 547 1509Q553 1504 559 1503Q571 1496 581 1491T600
1479T612 1463T617 1439Q617 1413 610 1388T593 1337T573 1285T559 1232V1195Q557 1186 552 1181T542 1170T533 1160T529 1145Q529 1140 531 1128T543 1116H548Q550 1120 553 1132T559 1145Q568 1162 585 1187T625 1241T674 1297T726 1347T777 1384T822 1398Q832
1398 843 1396T864 1388T880 1375T886 1353V1349Q874 1314 858 1283T818 1225Q816 1221 809 1214T799 1202Q793 1198 772 1182T726 1146T680 1111T654 1090Q645 1081 645 1080Q645 1078 646 1075T647 1066Q669 1066 686 1063T726 1059Q746 1059 759 1065T792 1071Q813
1071 839 1070T889 1062T928 1039T944 995Q944 954 915 934T847 913Q827 913 809 921T770 934Q738 941 718 943T668 946Q664 946 654 944Q650 943 645 943L635 924L742 818Q755 804 763 780T771 737Q771 723 767 708T756 681T736 662T707 654Q680 654 657 672T613
717T576 775T546 833T522 878T505 896Q503 896 502 895T498 894Q496 893 494 891Q491 888 491 886V732Q490 717 487 697T477 659T457 629T424 616Q394 616 379 626T357 654T349 694T344 740V751Z" />
<glyph unicode="+" glyph-name="plus" horiz-adv-x="1153" d="M122 699Q133 710 155 715T205 721Q225 721 232 720T244 716H395Q429 716 453 719T487 732Q504 749 504 803L485 1038Q485 1064 489 1086T504 1119Q520 1133 554 1133Q577 1133 598 1127T630 1109L658
1048Q659 1048 660 1046T662 1037T665 1016T670 976Q662 973 654 965Q646 954 643 944T639 920Q639 897 642 870T651 822Q653 808 653 804T654 796Q654 780 653 764T651 737Q651 735 652 735Q652 734 653 734Q659 727 661 727Q695 727 732 735T801 744Q817 744
829 741T852 734H1006Q1010 734 1018 731T1028 727Q1037 716 1037 697V621L1019 602Q986 569 930 569Q885 569 839 579T755 592L732 583L670 578Q665 569 661 552T654 512T650 466T648 419Q648 396 650 378T656 344Q659 335 660 327T661 315Q661 311 659 298T656
282L660 234Q660 222 658 215T651 204Q637 194 606 194Q580 194 557 200T526 211Q513 235 508 264T501 324T497 388T487 452L507 529Q507 534 506 539T500 550Q490 559 480 564T455 569Q438 569 422 565T385 561Q371 561 365 561T355 562Q351 569 331 569L307 567Q291
563 275 562T241 561Q224 561 208 562T175 567Q159 567 149 570T127 588Q120 600 118 614T115 649Q117 680 119 688T122 699Z" />
<glyph unicode="," glyph-name="comma" horiz-adv-x="545" d="M94 -472Q94 -456 110 -428T146 -370T187 -315T217 -277L238 -265Q250 -252 258 -236T273 -204T289 -173T309 -144Q314 -136 315 -130T316 -118V-93Q316 -55 299 -36T256 -9T200 4T144 15T101 40T84
92Q84 111 92 138T115 191T151 235T198 254Q206 254 220 253T248 251Q264 250 281 249Q287 249 297 244T317 231T336 217T348 209Q371 194 383 188T402 175T414 161T428 133L437 121Q451 95 467 74T483 26V0Q483 -13 480 -26Q478 -42 477 -55T475 -85V-111Q459
-137 455 -164T444 -218Q438 -242 423 -260T391 -295T359 -329T338 -367L217 -490Q212 -495 200 -497T181 -500H156Q146 -500 135 -500T115 -497T100 -489T94 -472Z" />
<glyph unicode="-" glyph-name="hyphen" horiz-adv-x="951" d="M625 372L613 374L534 360Q511 360 491 367T447 374Q428 374 412 368Q393 360 371 360Q332 360 294 368T217 377Q179 398 164 417T148 462Q148 487 156 509T179 548T215 575T264 585L317 580H342Q348
580 354 580T369 581Q381 583 394 584T419 585H452Q464 585 475 585T497 580Q506 578 515 577T532 576H601Q610 576 618 577T636 580Q649 586 657 588T675 590Q693 590 714 588T755 578T787 559T800 526Q800 496 793 466T770 411T729 371T667 355H663Q661 355 656
358T644 364T633 369T625 372Z" />
<glyph unicode="." glyph-name="period" horiz-adv-x="439" d="M97 142Q97 202 123 233T212 265Q233 265 249 258T282 244Q304 233 315 223T332 201T339 172T340 133V74Q338 66 329 54T307 29T281 9T259 0Q224 7 195 16T144 40T110 79T97 142Z" />
<glyph unicode="/" glyph-name="slash" horiz-adv-x="698" d="M25 7Q28 24 34 36T47 58T63 79T79 104L94 131Q98 147 105 156T118 178L139 225Q139 227 143 230T153 236T164 241T170 246L179 289Q182 301 189 309T204 326T219 341T232 358Q236 362 243 372T256
392T268 412T274 426Q275 429 285 449T308 493T336 536T361 555Q390 588 410 632T447 713L508 799Q527 842 538 867T557 904T569 921T577 927L598 962Q603 977 609 986T622 1004T636 1020T653 1043Q684 1086 707 1132T755 1223Q764 1241 776 1256T803 1291Q806
1295 813 1308T830 1338T847 1371T860 1400Q870 1423 882 1440T924 1458Q937 1458 952 1455Q965 1453 981 1445T1004 1422L994 1370Q992 1368 985 1360T976 1349Q966 1331 964 1311T950 1270Q944 1257 934 1253T909 1239Q905 1232 903 1226T899 1201Q894 1189 884
1177T861 1154T838 1132T817 1112Q796 1091 796 1081V1080L786 1050Q775 1024 760 1002T729 967Q727 958 727 951T726 939Q722 923 718 914T709 899T700 890T691 882Q688 877 682 869T671 850T661 830T656 813Q651 787 641 771T622 744T604 728T594 718Q594 714
588 708T580 699Q574 679 566 665T548 639T525 616T499 592Q490 583 486 572T476 552Q472 520 470 508T463 488Q444 475 436 459T426 441Q425 438 419 434T406 427T393 420T385 417Q378 410 372 393T360 357T348 320T335 296Q333 293 328 290T318 284T310 277T307
272Q309 265 309 261T309 253Q309 247 307 244Q302 221 288 210T265 195Q256 175 254 164T239 149Q238 145 238 136T232 116Q230 101 227 91T218 72T203 56T181 42Q174 38 171 32T166 18T163 2T158 -14Q150 -25 145 -28T135 -34T126 -42T118 -61L59 -67Q53 -65
47 -54T35 -30T27 -6T25 7Z" />
<glyph unicode="0" glyph-name="zero" horiz-adv-x="1006" d="M169 180Q140 239 126 276T111 344Q111 416 118 476T157 586L226 697Q237 711 263 731T321 770T382 802T431 815Q448 810 458 808T476 806Q485 806 489 809T498 815H548Q585 815 613 807T673 772L737
709L775 690Q795 677 802 659T814 622T822 583T839 548Q850 533 858 527T872 514T884 499T893 471Q893 463 894 449T896 417T897 382T898 349Q898 341 894 325T883 291T872 261T865 246Q862 235 853 215T833 175T812 136T796 111Q772 100 759 88T735 65T716 43T690
28Q676 20 661 16T630 8T598 1T567 -9H517Q448 -9 402 4T320 41T249 101T169 180ZM194 415Q194 393 205 357T233 284T271 214T313 166Q336 150 370 137T442 113T514 98T576 92Q583 92 587 95T596 102T604 110T616 116Q630 122 639 125T656 132T669 142T685 161Q694
176 706 186T729 205T749 226T763 256Q764 259 765 266T766 279T768 291T770 298Q773 311 776 320T783 339T788 358T790 384Q790 416 784 442T749 490Q745 503 745 509T744 519Q744 535 740 546T729 568T711 588T690 612Q667 645 648 659T611 679T572 691T524 714H429Q428
714 421 711T403 703T381 693T363 682Q334 667 305 635T250 565T210 486T194 415Z" />
<glyph unicode="1" glyph-name="one" horiz-adv-x="763" d="M110 36Q110 56 121 68T149 86T188 95T230 101T266 109T290 126Q293 133 297 145T306 169T313 194T316 213L290 344Q290 351 293 365T300 396T307 425T311 441L290 625Q290 635 293 643T302 663Q280
686 258 701T212 727Q197 732 177 735T139 745T109 762T96 794Q96 806 103 813T121 823T143 828T162 829L268 822Q281 822 288 823T311 829Q333 826 353 824T394 822Q411 822 429 823T468 829Q476 836 493 841T529 849T568 853T600 855Q608 855 620 854T643 850T663
839T671 820Q671 795 655 780T615 756T568 742T527 732Q520 729 514 721T502 703T491 683T482 664L468 476L486 334L468 308Q468 306 471 297T477 285V284Q477 272 473 260T468 234Q468 210 477 193T491 152Q494 152 502 151T520 148T540 145T555 142Q562 138 581
128T620 105T655 78T671 52V50Q669 39 662 29T643 9L501 3Q500 5 494 7T486 9Q481 10 474 10T458 10H413Q365 10 315 9T219 0L200 -10Q169 -10 146 4T110 36Z" />
<glyph unicode="2" glyph-name="two" horiz-adv-x="961" d="M92 12Q93 17 99 32T111 59Q115 65 126 72T151 86T178 99T197 111Q214 124 232 134T270 156T307 179T342 206Q373 233 407 272T469 355T515 447T533 538Q533 559 523 579T497 614T459 640T413 650L375
637H337Q328 637 318 636T299 623Q284 612 272 594T248 558T220 529T183 516Q172 516 161 517T143 528V557Q143 584 147 597T160 618T179 633T202 659L216 676Q239 706 264 733T330 772L406 782L455 792Q479 792 511 788T577 775T641 751T690 714Q697 705 702 694T711
682L742 631V516Q742 497 729 482T704 452Q703 451 702 448T698 437T690 415T676 379Q675 377 674 376Q672 374 671 374Q660 367 655 359T647 343T639 326T626 310Q615 301 605 297T585 290T564 285T543 277Q542 277 536 272T522 259T507 246T498 239Q497 239 489
234T472 222T455 209T446 202Q441 198 432 189T415 170T400 150T394 135Q394 130 400 130H432Q458 130 480 128T522 116H573Q626 116 680 124T782 154Q791 159 792 166T797 180Q811 197 832 210T874 234L889 183Q889 166 882 149T863 111Q860 104 857 86T848 49T832
15T806 0L789 -2Q750 -7 713 -13T637 -19Q625 -19 614 -15T591 -6T569 3T547 7Q526 7 501 4T458 -3Q454 -3 446 -8T432 -19L341 7Q329 7 318 0T292 -9Q273 -11 257 -12T223 -15T187 -18T145 -19Q128 -19 110 -14T92 9V12Z" />
<glyph unicode="3" glyph-name="three" horiz-adv-x="765" d="M49 -337Q49 -318 51 -307T59 -289T76 -279T107 -270Q117 -266 133 -260T158 -253Q173 -253 187 -260T214 -277T243 -293T275 -301Q299 -301 321 -293T363 -270T399 -236T426 -197Q428 -193 429 -181T431
-164Q435 -160 440 -158T451 -152T460 -145T464 -131V-31Q464 -25 460 -16T450 2T439 17T431 26Q415 48 398 64T361 95T321 123T279 152Q278 154 275 158T267 168T258 176T251 180Q240 180 228 176T204 166T180 157T158 152Q146 152 135 166T123 192Q123 213 140
227T179 252T225 270T261 282Q262 283 266 287T275 297T285 307T293 313Q303 322 314 329T336 342T357 357T374 377L386 394Q413 438 436 484T459 580Q459 582 453 589T438 605T420 624T405 644Q396 659 378 663T343 668Q306 656 281 649T223 642L177 644Q161 645
156 659T151 685Q151 708 156 713L182 727Q203 738 215 754T246 785Q264 797 285 806T330 821T376 831T422 834Q443 834 459 826T497 806Q532 793 554 781T589 751T611 711T628 654Q630 643 634 633T639 611Q639 589 632 562T612 506T585 453T554 410Q547 400 538
395T520 387T502 379T485 367Q469 351 465 336T448 308Q428 301 428 280Q428 276 428 276T429 273Q435 260 453 244T493 211T535 179T564 152Q567 123 576 104T595 66T612 28T620 -26Q620 -37 618 -58T613 -102T605 -145T595 -173L569 -206Q563 -213 559 -223T550
-243T541 -263T528 -280Q502 -308 456 -341T357 -402T251 -448T159 -467Q142 -467 131 -454T107 -427Q93 -419 83 -411T65 -393T53 -370T49 -337Z" />
<glyph unicode="4" glyph-name="four" horiz-adv-x="1004" d="M440 -310L459 -256L452 -194Q452 -173 456 -156T466 -118Q471 -97 474 -77T478 -36Q478 -27 468 -17T452 -2L338 3Q324 3 305 2T265 -3Q242 -8 223 -11T184 -14L146 -5Q144 -5 139 -7T122 -14Q113
-14 109 -11T100 -5T90 2T72 5Q58 5 53 3Q46 19 44 30T42 57Q42 78 44 89T53 114Q98 177 138 240T217 370L239 408Q244 415 250 417T262 422T274 428T286 439Q288 444 289 453T291 467Q293 469 299 474T311 486T323 499T329 509L343 545L362 562Q364 566 370 577T383
601T398 625T409 642Q409 644 410 652T414 661L468 716Q468 721 469 724T473 732Q473 733 474 737T477 747T481 757T483 763L515 796Q528 812 536 825T553 847T575 860T611 865Q628 865 638 841T653 786T660 725T662 682L660 635Q647 619 645 607T643 578Q643 561
648 552T653 528L644 457V439L653 408L639 228Q639 214 642 200T665 183Q682 181 698 181T732 180Q749 180 767 180T803 183Q819 197 834 199T871 201Q881 201 900 195T939 178T974 154T989 126Q989 101 984 77T966 35T933 5T885 -7Q874 -7 864 -5T844 1T820 6T791
9Q780 7 768 6T743 5Q724 5 706 3T672 -6T648 -28T639 -66Q637 -70 637 -77T637 -92V-173Q637 -182 637 -189T639 -202Q632 -215 632 -232Q632 -245 638 -250T649 -272Q655 -308 655 -341Q655 -378 649 -408Q649 -417 640 -429T618 -452T593 -471T575 -479Q566
-479 557 -470T537 -458Q504 -451 490 -444T470 -424T462 -395T452 -348L440 -310ZM233 190Q233 178 242 171T264 161T292 158T322 157Q334 157 364 160T427 169T484 185T509 209Q509 221 508 241T504 280T501 315T499 332L490 349Q489 357 489 367T489 391Q489
409 486 428T476 463T457 489T426 500Q409 500 392 486T360 451T333 409T312 375L246 242Q237 224 235 215T233 190Z" />
<glyph unicode="5" glyph-name="five" horiz-adv-x="742" d="M95 -375Q95 -349 111 -321T154 -282Q196 -244 231 -207T288 -130Q296 -116 296 -93Q296 -84 298 -76T301 -61L320 -10Q320 -1 321 2T322 10Q322 15 324 18T330 26T336 36T339 55L334 97L345 151Q345
158 336 174T314 208T288 243T265 272Q263 273 262 275T258 280L256 284Q251 291 236 302T205 326T176 350T160 370L154 401Q146 415 140 425T130 445T124 466T121 495Q121 508 121 518T124 538T129 559T139 586Q137 591 136 598T134 609Q134 632 139 648T151 679T168
706T187 735V761L218 794Q234 814 245 827T270 849T301 860T346 863Q368 863 391 859T439 850T486 840T531 836Q556 836 577 848T617 876T649 904T675 917Q679 917 681 913T684 903T685 891T685 881V879Q679 853 674 832Q669 814 665 799T658 782Q658 777 654 771T647
761L628 742Q623 732 621 718T614 691T601 669T576 659Q538 659 505 665T439 680T375 695T308 702H262Q246 697 238 678T229 642Q229 635 252 609T305 552L341 516Q358 496 374 475T398 439Q407 417 424 398T457 356L473 317Q492 301 495 296T499 285Q499 268 501
254T514 235V192L506 95L514 69Q514 61 513 49T510 24T506 -1T500 -22L478 -47Q473 -55 471 -66T468 -90T464 -115T457 -138Q447 -155 428 -184T384 -246T331 -313T274 -375T218 -420T170 -438Q159 -438 146 -434T121 -421T103 -401T95 -375Z" />
<glyph unicode="6" glyph-name="six" horiz-adv-x="864" d="M101 337Q101 376 111 416T127 493Q132 498 134 510Q144 528 151 548T165 590T181 633T205 676Q217 697 230 712T255 739Q271 752 282 764T303 790T322 819T345 851L392 893L404 920Q405 921 415 928T439
943T469 961T498 977Q509 982 513 985T520 990Q522 990 527 991T538 995T549 999T558 1003Q568 1013 575 1022T588 1038T602 1053T622 1069Q643 1078 668 1088T714 1111Q726 1121 734 1130T751 1145T770 1155T797 1159Q809 1159 826 1158T858 1153T883 1138T894
1111Q894 1097 890 1089T878 1076T860 1066T840 1057Q829 1044 821 1028T797 1003Q793 1002 782 998T762 986L733 972Q716 961 707 948T681 920Q669 909 652 897T618 872T591 842T579 806Q566 797 551 792T521 780T492 765T467 739Q467 737 465 726T461 713L451
701Q451 698 467 694T506 684T549 673T579 663Q600 651 617 641T648 618T677 592T707 559Q713 554 722 532T740 485T755 438T761 410Q759 384 757 373T754 360Q755 348 756 340T757 325Q757 312 756 306T754 296Q754 275 750 257T733 218Q712 186 698 159T664 102Q662
100 659 99T655 95Q653 95 643 94T627 90Q625 88 620 83T609 72T598 61T591 52Q586 52 576 52T555 50T533 48T520 43Q509 41 502 36T487 25T471 15T451 10Q429 10 412 13T378 23T345 36T309 52Q307 52 299 54T282 58T264 62T255 64Q243 66 230 76T203 100T179 127T160
147Q158 148 154 163T144 196T134 232T127 254Q127 258 125 267T119 285T113 303T107 313Q105 324 103 326T101 337ZM217 336L223 311Q225 306 229 293T239 260T255 219T276 175Q287 152 307 133T351 102Q352 100 355 100T363 100H427Q438 102 449 106T467 116Q469
118 478 126T497 144T515 163T525 175Q548 194 562 215T583 259T593 310T596 370Q596 387 593 399T585 424T574 448T563 477V510Q553 535 539 544T505 562Q497 565 486 573T461 592T435 611T408 623Q400 623 385 621T354 616T325 606T309 590L243 462L245 446Q245
436 245 424T244 400T242 379T238 367Q238 365 235 360T228 350T221 341T217 336Z" />
<glyph unicode="7" glyph-name="seven" horiz-adv-x="958" d="M497 -467L490 -458L497 -426Q492 -415 492 -396Q492 -386 497 -375L490 -344Q503 -321 514 -297T532 -247L549 -190Q554 -167 567 -145T585 -100Q589 -66 599 -40T618 21Q622 32 623 38T625 52Q625
57 623 61T621 74L625 97L627 103Q629 110 630 111Q633 113 638 118T648 130T658 141T663 149L672 180Q682 211 692 246T722 308V334Q722 359 726 382T735 428T745 476T753 531Q753 556 743 572T718 596T682 608T642 611H568Q526 615 487 619T403 623H386L374 631H213Q200
631 191 610T170 562T140 515T92 493Q87 493 87 502L89 526Q89 545 92 560T98 589T105 613T109 637Q112 651 113 681T119 741T138 795T177 818Q189 816 194 813T201 806T205 796T213 785Q214 784 231 780T270 771T310 763T334 759Q339 759 343 760T353 763Q358
765 362 765T374 765Q395 765 415 761T457 754Q494 753 528 749T596 744Q615 744 637 751Q655 754 675 754Q686 754 691 752T710 739H819Q822 739 827 736T838 727T848 717T852 709Q852 691 849 675T841 643T833 612T829 583L838 516Q833 493 829 465T818 408T802
353T774 308V225Q762 211 755 194T734 161Q730 154 724 145T717 131L729 97Q728 95 725 90T717 78T708 67T701 59Q693 46 692 32T690 4T683 -22T663 -42V-59Q663 -74 661 -93T656 -130T650 -166T644 -197Q644 -204 639 -209Q628 -229 624 -247T618 -285T616 -324T613
-365Q609 -383 597 -397T580 -427L575 -445Q567 -465 558 -473T516 -481Q501 -481 497 -467Z" />
<glyph unicode="8" glyph-name="eight" horiz-adv-x="803" d="M481 644Q495 623 509 608T539 580T569 553T602 521L621 490L645 469Q653 457 661 431T677 374T688 317T693 277Q693 261 692 240T688 197T678 156T659 123Q630 90 602 66T543 25T476 0T392 -9Q322
-9 260 18T152 102Q143 132 129 162T114 225Q114 247 121 269T138 313T160 354T183 393Q192 411 196 428T216 462Q226 474 240 487T268 514T290 544T299 580Q299 595 288 612T261 645T227 675T193 701Q188 705 176 732T149 792T125 853T114 891Q114 955 128 1013T174
1115T255 1185T375 1211Q423 1211 467 1203T557 1175Q578 1162 597 1138T632 1084T659 1023T673 965Q673 938 661 901T630 828T590 759T550 708Q546 702 535 695T511 679T490 662T481 644ZM299 128Q320 105 350 87T415 69Q439 69 460 81T497 113T522 155T531 201Q531
215 525 227T519 256Q519 258 520 263T526 279Q530 285 533 293T538 306Q538 325 523 356T485 417T437 468T392 490Q352 490 330 468T295 414T278 346T268 282Q266 278 265 267T263 251Q263 247 268 235T275 218Q276 213 280 201T288 175T295 147T299 128ZM268
958Q268 933 278 893T306 815T350 749T406 721Q411 721 422 722T444 728Q444 730 444 736T446 749T448 762T449 770Q449 772 452 776T459 786T467 796T474 803Q475 807 482 821T491 844Q493 848 498 858T509 878T519 897T524 907Q524 924 518 942T507 977Q503 998
500 1017T492 1055T479 1089T455 1119Q448 1123 439 1130T421 1143T405 1153T396 1159H373Q335 1159 314 1139T282 1089T270 1023T268 958Z" />
<glyph unicode="9" glyph-name="nine" horiz-adv-x="894" d="M-23 -223L-9 -204Q-9 -201 -8 -195T-6 -181T-5 -167T-4 -159Q0 -148 5 -143T15 -135T26 -128T39 -116Q44 -110 45 -104T48 -93T51 -82T60 -73Q87 -64 106 -46T152 -12L273 43Q285 59 310 78T362 119T408
161T428 204Q428 206 405 212T353 228T296 247T259 266Q214 301 184 332T134 398T107 476T98 581Q98 616 111 651T146 717T195 776T249 823Q260 832 271 837T293 848T315 859T337 875Q360 880 383 882T432 884Q453 884 474 882T518 875Q523 874 527 870T536 862L595
851Q614 845 634 834T672 807T704 774T726 734Q726 729 727 716T731 701L755 676Q766 661 774 639T786 593T793 547T795 510Q795 504 792 488T785 454T778 422T774 405L762 393V360Q762 359 758 356T750 348T741 340T736 336V308Q736 303 732 298T722 288T711 279T704
272Q704 270 702 258T698 244Q690 233 680 225T657 210T634 194T614 175Q573 118 525 73T428 -19Q427 -21 419 -30T406 -42Q404 -42 396 -45T382 -52Q359 -61 335 -76T290 -109L268 -131L226 -140L204 -164Q189 -175 169 -188T126 -214T81 -234T39 -242L-18 -232L-23
-223ZM280 448V429Q282 426 288 416T301 394T315 373T326 360Q340 335 357 325T396 306L434 287Q441 285 445 279T451 264T456 249T465 239Q486 248 501 259T530 285T555 317T581 355Q583 374 588 393T599 431T609 469T614 509Q614 522 614 527T612 538Q610 545
609 551T608 569L614 609Q594 653 582 688T553 747T508 785T428 798H396Q395 786 387 775T368 752T345 731T326 713Q315 700 307 684T291 649T279 613T268 580Q268 554 271 532T278 486Q280 482 280 476T280 465V448Z" />
<glyph unicode=":" glyph-name="colon" horiz-adv-x="540" d="M111 116Q111 139 115 154T126 181T146 201T175 221Q195 235 207 250T235 265Q240 265 251 263T273 259T295 254T308 249Q312 247 321 241T335 234H372Q380 231 386 219T397 190T403 159T405 135Q405
115 398 90T386 43Q380 35 367 28T339 16T307 8T280 5H251Q237 5 220 7T190 21Q188 23 183 28T172 38T161 50T154 59Q149 63 142 70T128 84T116 100T111 116ZM143 640L142 650Q142 673 149 702T170 758T206 803T254 822Q269 822 288 817T328 803T365 784T393 763Q396
758 399 748T405 726T410 701T412 682Q412 659 405 643T384 616T353 597T313 583Q313 582 312 582Q310 581 310 581Q305 579 295 576T275 570T254 565T240 562Q228 562 212 570T180 591T154 616T143 640Z" />
<glyph unicode=";" glyph-name="semicolon" horiz-adv-x="574" d="M68 -462Q68 -440 87 -415T133 -366T186 -317T230 -273Q235 -265 238 -255T244 -235T252 -217T268 -204Q276 -187 285 -169T303 -131T318 -87T324 -36Q319 -26 314 -23T302 -18T289 -14T279 -3Q277
-1 274 6T265 22T254 36T239 43Q230 43 223 40T209 32T195 25T178 21Q135 21 108 42T80 109V123L94 142Q105 167 118 191T149 235T190 265T244 277Q305 277 352 249T432 175T480 74T497 -36Q497 -68 491 -90T474 -140L447 -237Q437 -262 422 -283T390 -323T354
-362T319 -403Q317 -403 315 -411T312 -422Q308 -432 292 -440T254 -455T212 -471T178 -491Q168 -493 159 -494T139 -495Q128 -495 119 -494T101 -491Q89 -487 79 -481T68 -462ZM178 728V763Q180 773 195 784T228 806T263 822T287 829Q326 829 349 822T386 799T407
759T422 699Q422 666 406 640T366 595T315 567T265 557Q240 557 224 577T197 625T183 682T178 728Z" />
<glyph unicode="&lt;" glyph-name="less" horiz-adv-x="1116" d="M508 362L484 391Q461 405 447 414T425 428T413 434T409 436Q398 436 389 445T372 466T359 490T350 507Q339 512 332 515T317 522T304 533T288 552L224 618Q208 622 187 632T148 658T116 691T103
730Q103 753 118 770T156 800T201 825T238 848Q244 850 250 857T261 873T273 889T285 896Q297 909 306 916T322 928T337 938T354 953Q358 958 360 964T363 974Q363 984 378 996L442 1017L508 1083Q524 1083 533 1086Q538 1088 542 1090Q549 1094 551 1101T565 1112Q585
1128 598 1137T618 1151Q626 1156 629 1159Q643 1161 657 1175T683 1207T708 1240T731 1259Q748 1265 756 1272T769 1286T779 1301T797 1317Q812 1327 828 1334T861 1349T894 1363T925 1382Q936 1373 948 1356T961 1318Q961 1294 952 1281T929 1258T899 1238T868
1209Q858 1209 841 1199T806 1174T771 1147T748 1128Q745 1126 738 1120T722 1107T706 1093T696 1083L629 1038Q622 1031 613 1020T594 998T572 980T548 972Q542 972 541 974Q540 971 538 966T534 954T528 943T522 936Q519 934 515 932Q509 929 506 929Q495 926
488 921T474 910T463 898T449 887Q424 867 407 856T373 836T340 815T299 784Q299 767 310 752T333 737Q376 710 410 682T482 625Q484 623 492 619T504 612Q507 612 519 604T547 585T575 565T593 554Q603 534 609 529T621 524T634 522T655 507Q659 500 672 485T700
454T731 427T755 415Q778 398 802 382T847 348Q857 340 864 333T877 320T890 308T909 296Q923 287 942 277T980 253T1010 222T1023 183Q1023 169 1015 150T993 114T960 84T920 71Q903 71 887 85T854 111Q845 117 829 119T797 130L748 192L724 202Q713 209 704 221T685
247T661 274T629 296Q619 300 605 311T578 334T555 355T542 365L508 362Z" />
<glyph unicode="=" glyph-name="equal" horiz-adv-x="939" d="M141 310Q136 312 136 329V349Q136 363 136 383T141 422T156 457T184 476H233Q243 476 252 479T270 485T288 490T309 493L366 481Q382 481 389 483T407 486Q424 486 442 483T478 476Q492 469 506 467T534
464Q561 464 588 472T643 481L682 476Q690 476 696 478T709 484T721 490T736 493Q759 493 780 484T816 453V427Q816 412 815 400T812 375T809 350T807 317Q800 302 789 293T765 279T739 272T714 270L610 277Q541 277 472 276T333 272Q304 270 274 262T212 254Q201
254 190 259T168 271T151 289T141 310ZM124 663V704Q124 718 124 738T129 777T144 809T172 825H219Q229 826 238 829T257 837T276 844T298 848Q314 848 325 839T356 830L395 837Q412 837 428 834T461 827Q478 823 492 821T520 818L631 830L670 825Q678 825 684
828T697 836T709 844T724 848Q746 848 767 836T802 803V784L795 680V654Q779 634 753 627T700 619L596 630Q526 630 458 628T321 621Q292 619 260 614T198 609Q190 609 179 613T156 625T136 642T124 663Z" />
<glyph unicode="&gt;" glyph-name="greater" horiz-adv-x="1114" d="M608 370H574Q571 370 561 361T537 339T506 316T477 301Q463 292 452 279T431 253T412 227T390 208L368 201L318 135Q304 128 287 127T259 116Q243 104 228 92T195 80Q173 80 154 92T122 121T101
157T93 190Q93 212 105 228T135 258T172 281T207 301Q219 307 226 313T239 326T251 340T269 356Q290 372 314 388T359 420Q369 420 384 431T415 458T442 489T459 512Q473 525 481 527T495 530T507 535T523 559Q525 563 539 572T569 592T598 610T612 618Q617 619
624 625T632 633Q670 661 705 689T783 744Q794 744 806 758T818 789Q794 809 777 821T744 843T709 864T665 893Q650 904 641 917T610 938Q609 938 607 938T601 939L593 941Q585 950 581 963T565 977Q553 977 542 985T520 1005T502 1027T487 1043L420 1093Q417 1093
410 1098T394 1111T379 1124T368 1133Q360 1137 344 1150T310 1178T275 1203T245 1214Q232 1233 216 1243T186 1262T163 1285T153 1323Q153 1344 166 1361T193 1387Q206 1376 222 1369T254 1354T287 1340T318 1322Q329 1315 335 1307T347 1292T361 1278T385 1265Q394
1262 406 1247T431 1213T459 1181T487 1164L491 1162Q496 1159 496 1159Q520 1141 533 1130T554 1111T565 1101T574 1095Q579 1094 584 1094Q589 1093 594 1093T608 1093Q614 1088 622 1079T638 1060T655 1041T672 1026Q703 1011 719 1001T744 983T755 970T762
958Q771 950 779 946T795 936T812 925T833 905Q837 905 842 898T854 881T866 864T876 853Q892 842 915 831T959 807T996 776T1011 735Q1011 715 999 697T968 663T930 638T894 623Q886 621 877 611T858 588T840 567T828 557Q819 545 812 538T799 527T784 520T766
512Q762 507 756 496T743 472T726 451T705 441Q704 441 698 439Q695 438 693 438Q676 433 663 427T636 407L608 370Z" />
<glyph unicode="?" glyph-name="question" horiz-adv-x="742" d="M89 97Q89 110 96 126T116 157T144 182T175 192Q244 187 269 151T295 55Q295 39 286 28T264 10T237 0T210 -3Q183 -3 161 1T123 17T98 48T89 97ZM538 879V882Q527 915 518 941T496 988T465 1027T417
1062Q411 1067 405 1076T397 1090L353 1144Q339 1144 327 1148T304 1157T280 1167T255 1175Q232 1202 222 1219T212 1265Q212 1280 217 1297T237 1323H262Q288 1323 305 1311T338 1283T367 1251T402 1225L449 1211Q467 1202 482 1189T511 1160T537 1129T564 1100Q566
1099 572 1096T583 1090Q598 1081 613 1062T640 1021T660 976T668 938Q668 908 659 882T641 829L628 713Q626 702 620 694T606 677T591 662T577 649Q576 647 574 645Q570 641 570 637Q546 598 520 579T464 551T399 540T321 531Q310 528 306 524T299 513T294 500T286
483Q286 481 279 470T267 457Q258 438 255 414T246 369T228 333T187 318L163 324Q159 325 156 331T153 341Q151 377 150 412T149 486Q149 509 149 532T153 580Q153 613 168 632T208 661T263 675T324 681T382 687T429 701Q440 706 442 718T449 739Q455 750 461 751T478
753Q490 753 494 754Q505 756 513 773T526 811T535 852T538 879Z" />
<glyph unicode="@" glyph-name="at" horiz-adv-x="1538" d="M820 417Q821 420 824 426T830 439T837 454T842 464Q849 474 849 493Q848 495 848 498Q847 500 847 502T847 507Q847 511 842 518T830 526Q827 526 826 525T823 522Q821 522 819 521T814 519Q812 517
812 516T809 514Q807 513 806 512Q805 511 801 507T792 499T783 490T776 484L717 446Q715 443 710 438T700 428T689 417T681 410Q658 385 623 370T555 349H525Q510 349 496 349T467 355Q465 355 463 357T458 362Q437 373 423 394T401 439Q397 453 397 463T396 488V510Q396
524 400 538T411 567Q425 601 441 633T475 697Q482 705 487 714T498 730Q498 731 500 737Q501 739 503 742Q507 746 514 755T530 774T545 792T555 804Q559 812 568 815T583 825L667 896Q667 896 669 900Q670 901 671 903Q673 905 681 913T698 932T715 952T726 965Q728
967 731 969T737 974L738 976H744Q746 976 749 977Q757 979 762 983T773 995Q812 1026 851 1044T941 1071Q956 1075 972 1075T1006 1076H1015Q1026 1074 1032 1069T1046 1062Q1052 1059 1057 1059H1081L1083 1060Q1092 1067 1097 1074T1108 1090Q1122 1103 1135
1114T1169 1126H1181Q1195 1112 1201 1095T1207 1059Q1207 1027 1196 1002T1171 951Q1168 942 1167 935T1164 919Q1164 912 1160 908L1050 682Q1048 677 1048 675T1048 668Q1048 664 1048 661T1046 652Q1038 635 1030 617T1013 581V578Q1011 570 1009 565Q1007
560 1006 556T1003 550Q1001 546 998 541T994 528Q994 519 996 510T1010 500Q1021 500 1030 506T1048 519L1160 583Q1163 585 1166 587T1174 592Q1204 617 1233 643T1287 699T1329 761T1351 832Q1355 849 1356 868T1358 907Q1358 920 1355 936T1349 969Q1326 1025
1308 1069T1268 1145H1266L1195 1242Q1163 1254 1140 1271T1089 1304Q1055 1325 1028 1339T974 1358Q959 1356 952 1355T939 1353H922Q914 1353 909 1353T896 1351L859 1368Q830 1368 799 1364T747 1336Q685 1330 642 1318T567 1284T507 1231T449 1154L422 1126L384
1069Q377 1062 374 1051T371 1031L321 907Q316 896 313 881T307 851T303 822T299 796Q298 791 295 782T287 761T280 738T276 720Q281 636 301 569T349 445Q357 434 360 420T367 391T380 361T408 334Q419 311 434 286T470 246Q483 235 493 224T514 201T535 175T564
147Q576 145 591 141T620 131T646 122T664 116L726 97L820 99Q844 103 863 104T899 106Q929 106 945 103T970 100Q977 100 982 98T1003 95Q1016 95 1025 97T1041 104T1058 112T1081 118Q1083 120 1102 131T1144 155T1186 178T1207 189Q1239 189 1250 181T1262 159Q1262
142 1248 123T1223 92Q1209 71 1199 59T1181 42T1167 35T1153 33Q1140 33 1130 30T1108 22Q1082 11 1051 2T979 -7L982 -5Q976 -7 965 -7T942 -7H806Q792 -7 780 -7T761 -5Q731 -5 701 -1T639 11T578 25T519 38Q517 38 512 40T505 45Q477 66 447 87T384 125L349
131Q344 132 327 146T291 177T255 210T237 234L157 374Q149 393 136 432T111 514T90 595T81 652Q81 663 84 668T88 685L81 744Q81 766 86 800T98 870T112 938T122 990Q123 996 130 1010T143 1029Q153 1041 158 1053T166 1077T174 1102T186 1126Q191 1135 197 1139T209
1148T219 1158T223 1175L342 1296L427 1339Q429 1341 432 1345T441 1355L491 1372L626 1438L889 1490H946L998 1465L1024 1469L1095 1445Q1103 1442 1122 1435T1162 1419T1201 1402T1228 1387Q1241 1374 1251 1365T1272 1348T1294 1333T1320 1317Q1329 1312 1345
1292T1378 1249T1408 1204T1423 1175Q1426 1162 1426 1150T1427 1128T1432 1109T1449 1093Q1457 1059 1465 1022T1479 952T1490 896T1494 867Q1494 844 1490 832T1480 801Q1466 779 1455 765T1444 740Q1430 722 1424 708T1411 681T1395 656T1368 628Q1332 599 1309
581T1264 548T1219 520T1160 486L1095 431L1086 424Q1084 422 1076 415T1065 407Q1056 399 1046 397T1025 389Q1010 378 997 365T968 344L934 334H930L865 344Q863 345 860 346Q858 347 856 348T852 349Q848 354 841 359T832 368Q825 378 823 387T820 407V417ZM579
502Q579 488 583 478T598 462Q602 458 607 455T617 452Q643 452 661 462T698 491Q712 503 732 523T773 562Q796 584 820 609L903 720L946 766L993 862L1013 941Q1013 943 1014 946T1015 951Q1015 959 1013 969T1005 984Q1004 986 1003 988T1001 992L998 995H994Q990
995 989 996Q987 996 982 996T977 998H961L958 996Q955 996 948 993T931 985T914 977T901 972Q896 971 894 969T889 962Q886 960 877 952T857 935T837 917T825 907L816 896H804L728 815Q715 802 712 785Q710 780 709 774T705 763Q697 750 687 741T669 721Q667 718
664 713T657 701T650 691T647 685L583 571V562Q581 548 580 533T579 502Z" />
<glyph unicode="A" glyph-name="A" horiz-adv-x="1384" d="M-31 38Q-31 57 -19 67T11 82T45 91T74 102Q77 104 82 108T93 118T105 128T114 135L162 159Q171 163 184 182T211 224T237 270T254 304Q256 306 257 315T258 329Q259 333 262 339T265 348Q267 350 272
357T283 373T293 388T299 398Q300 399 301 405T303 419T305 434T306 443Q312 475 323 507T346 572T367 637T379 704L448 894Q462 934 464 978T479 1066Q496 1105 520 1142T564 1223Q571 1245 572 1269T588 1315Q593 1322 613 1342T656 1383T701 1420T733 1436Q752
1436 759 1422Q764 1418 769 1409T775 1398Q780 1380 789 1362T804 1323L803 1301Q803 1287 809 1272T820 1246Q831 1211 839 1178T853 1112Q857 1092 866 1076T875 1038L874 1022Q892 1006 901 993T915 967T926 938T944 900Q954 880 959 863T967 827T975 789T988
746Q989 741 994 729T1000 713V675Q1000 673 1004 666T1013 651T1022 634T1026 623Q1026 622 1026 618T1027 608T1029 597T1031 592L1059 564Q1066 558 1068 550T1071 533T1073 514T1079 495Q1091 467 1100 438T1124 379Q1133 358 1139 335T1145 289V277Q1158 254
1174 236T1200 201Q1209 179 1219 166T1238 145T1257 133T1275 123Q1297 110 1320 104T1380 92L1408 85Q1421 77 1424 62T1427 35Q1427 14 1411 5T1377 -5L1292 0H1271Q1266 4 1258 6T1240 10T1224 11T1214 12H1095Q1087 23 1081 24T1062 26Q1021 26 977 16T882
5H860Q844 5 830 6T804 14Q799 17 799 31L801 47Q803 52 803 56T803 62Q803 69 809 71Q827 79 850 83T894 92T929 106T944 133V135Q943 158 941 187T938 246Q938 256 932 267T924 287V348Q922 361 912 389T886 446T852 495T816 517Q790 517 763 506T707 495Q683
495 662 504T611 514H547Q526 514 505 512T465 498Q434 480 408 450T370 374L363 304Q363 302 361 294T357 277T353 261T351 251Q351 249 350 245T349 237Q349 219 355 211T370 187Q375 178 383 163T401 137Q415 125 438 118T485 103T524 83T541 50V43Q536 4 512
-8T450 -21L363 2H327Q309 2 290 1T254 -2T223 -7T202 -16Q177 -16 153 -17T109 -19T77 -20T62 -21Q49 -21 33 -17T3 -5T-21 13T-31 38ZM484 716Q483 705 482 695T481 675Q481 647 494 638T534 628Q537 628 539 630Q540 631 541 633Q543 633 554 635T571 638Q580
637 588 635T602 633H759Q827 633 827 695Q827 704 821 718T805 748T788 783T775 818Q775 825 770 830L723 900Q723 905 720 910T714 920L709 941Q704 962 697 992T680 1049T658 1095T630 1114Q621 1114 607 1088T577 1022T544 934T514 841T493 763T484 716Z" />
<glyph unicode="B" glyph-name="B" horiz-adv-x="1355" d="M87 33V38Q90 41 103 46T134 58T172 70T210 81T240 90T255 95Q273 120 282 146T295 200T300 256T305 315Q312 338 316 359T321 403Q321 420 313 433T305 462Q305 488 313 514T321 564Q321 572 320 577T318
588T315 598T314 611Q314 621 316 628T322 642T328 655T331 670L305 772Q305 787 313 797T321 825L314 855V919Q314 922 312 927T307 939T302 950T300 957Q300 983 305 1003T310 1043L305 1202Q300 1212 294 1218T281 1228T266 1236T248 1249Q231 1274 203 1283T148
1297T102 1312T82 1346Q82 1364 96 1373T131 1387T171 1393T203 1394H239Q257 1394 278 1394T317 1392T349 1388T364 1382L687 1394L769 1389L810 1394Q846 1379 881 1370T948 1349T1010 1319T1064 1266Q1086 1234 1101 1211T1127 1164T1141 1113T1146 1048Q1146
1019 1139 984T1118 919Q1107 902 1096 891T1071 871T1044 854T1013 836L1002 815Q995 806 977 802T939 793T905 779T890 751Q890 742 908 735T949 722T995 711T1028 702Q1057 687 1079 672T1128 640L1161 618Q1175 591 1194 563T1230 506T1260 445T1272 379Q1272
342 1270 309T1253 251Q1248 242 1234 226T1202 189T1162 146T1120 106T1083 74T1054 57Q1019 57 1006 53T988 48Q935 31 892 20T796 5L751 -10Q724 0 696 0Q662 0 635 -10Q577 -5 521 -1T404 3Q356 3 307 -6T203 -16Q198 -16 180 -14T141 -5T104 10T87 33ZM506
303L520 256Q523 217 524 196T529 162T546 141T584 119Q594 114 600 110T613 102Q634 93 653 81T699 69Q718 69 729 75T757 81L803 76Q815 76 829 82T858 97T884 116T905 135Q910 137 919 145T939 164T957 183T971 197Q975 211 983 224T999 250T1013 278T1019 310Q1019
354 1016 398T1001 484T970 563T914 630Q882 653 852 667T782 687H731Q690 691 657 699T590 708L532 702Q530 698 527 691T520 675T513 659T506 649Q506 633 509 624T513 602L499 462Q499 435 506 404T513 339L506 303ZM526 761L539 744L596 763Q631 767 669 770T744
773Q763 773 770 773T782 772Q811 796 834 826T876 890T910 958T938 1026V1043L924 1069Q914 1105 899 1141T862 1207T809 1257T737 1282Q735 1282 729 1283T715 1284T702 1286T694 1287Q681 1289 670 1295T647 1308T624 1320T597 1325Q590 1325 577 1318T550 1301T526
1279T513 1259V1218L520 1138Q520 1122 517 1105T510 1070T503 1036T499 1005Q499 940 510 879T526 761Z" />
<glyph unicode="C" glyph-name="C" horiz-adv-x="1464" d="M109 529Q109 532 108 538T105 550T102 562T100 571Q98 578 98 582T98 590Q98 598 100 603T107 618L95 818L100 874Q102 877 104 881Q106 884 107 886T109 891Q118 912 123 931T135 971Q140 991 140 1009Q140
1031 148 1045Q161 1075 177 1102T218 1167Q220 1170 222 1173T226 1180Q235 1193 245 1209T257 1227Q269 1245 280 1254T308 1278Q342 1304 368 1326T430 1370L455 1381Q464 1384 475 1389T498 1401T521 1412T541 1420L643 1434Q647 1434 656 1437T669 1445Q712
1446 738 1447T787 1448Q818 1448 848 1447T908 1445Q927 1440 939 1438T958 1434T968 1432T974 1432Q986 1433 993 1433T1007 1434T1022 1434T1043 1434Q1054 1428 1067 1417T1091 1406Q1095 1406 1099 1409T1105 1412H1164Q1177 1414 1188 1420T1211 1434T1234
1447T1259 1453Q1276 1453 1288 1443T1301 1412V1246Q1302 1241 1304 1230T1306 1214Q1315 1166 1327 1116T1339 1017Q1338 1011 1334 1004T1325 991T1314 981T1306 976Q1306 974 1299 974Q1279 974 1265 983T1240 1006T1225 1036T1218 1066V1099Q1216 1113 1213
1121T1204 1136T1193 1150T1178 1168Q1167 1179 1165 1192T1154 1220Q1152 1224 1145 1228T1136 1232L1072 1278Q1072 1279 1068 1283T1058 1293T1049 1304T1043 1311Q1032 1317 1031 1317Q1029 1315 1017 1315Q1010 1315 1010 1317Q989 1321 970 1330T934 1348L813
1353Q806 1361 799 1363T782 1365Q748 1365 724 1359T680 1342Q679 1340 678 1339Q676 1337 674 1337Q660 1326 644 1320T610 1309T577 1297T546 1278L508 1246Q507 1244 498 1238T488 1227Q483 1216 471 1207T455 1195Q447 1184 444 1172T436 1157L413 1124L385
1060L372 1002Q371 1000 368 995T360 985T351 975T344 971Q344 970 343 963T342 947T340 928T339 913V886L344 784L356 735L344 680Q344 632 357 584T385 491Q387 490 403 467L413 439Q416 431 422 424T435 409T450 396T462 384Q467 366 469 359T473 350T478 346T488
337Q495 334 499 328T508 313T516 297T527 284Q546 281 559 281T584 268Q608 248 629 234T671 209T717 191T771 178L823 163Q849 163 865 170T898 178Q913 178 926 168T955 157Q968 157 976 165T998 178Q1000 178 1010 180T1024 183Q1028 183 1037 188T1050 197Q1084
202 1093 205T1105 209Q1106 210 1110 213T1118 221T1127 230T1133 237Q1137 237 1146 242T1165 254T1186 268T1204 279Q1209 282 1211 286T1218 296Q1233 317 1248 327T1280 358Q1284 362 1291 370T1301 384Q1302 386 1305 396T1313 408Q1326 419 1338 423T1363
427Q1370 427 1375 421T1384 407T1390 390T1392 374Q1392 354 1383 339T1363 309T1342 281T1327 247Q1323 244 1314 237T1296 220T1279 203T1269 190Q1247 161 1229 150T1195 126Q1188 117 1185 108T1169 93Q1155 85 1138 79T1100 67Q1068 47 1043 40T991 24L951
2Q898 -1 878 -6T854 -12Q822 -11 811 -7T795 -2L733 -22Q722 -21 710 -20T685 -18T663 -14T648 -7Q621 0 592 3T536 19L462 48Q460 50 450 52T436 55Q407 93 403 93H379Q371 98 361 112T339 145Q339 157 326 160T302 163Q296 166 294 171T291 183T287 197T280
209Q278 214 270 223T257 237Q250 241 246 243T239 246T233 251T225 263L200 301L178 325Q178 360 173 374T166 389Q166 393 164 406T159 422Q139 431 134 435Q130 438 128 439L109 529Z" />
<glyph unicode="D" glyph-name="D" horiz-adv-x="1644" d="M106 61Q106 76 120 83T155 94T202 104T248 120T284 151T298 206L291 239Q291 246 295 250T304 259T313 268T317 282L309 351L314 391Q316 396 316 412Q316 444 307 467T297 514Q297 528 298 531Q310
569 317 609T324 687Q324 703 317 709L309 891Q305 908 298 928T291 969Q291 971 292 974T298 991Q298 1039 294 1085T286 1182L288 1213Q288 1214 283 1219T272 1230T260 1242T255 1251Q257 1256 258 1260T259 1268Q259 1273 258 1278T255 1289Q254 1294 242 1300T211
1313T173 1325T135 1337T106 1348T94 1358Q94 1372 102 1381T122 1396T148 1404T177 1406Q200 1397 224 1396T272 1394Q333 1394 383 1400Q422 1404 465 1409T544 1420Q565 1427 576 1430T589 1434Q601 1434 607 1433T618 1431H720Q725 1429 732 1429T746 1429Q753
1429 759 1429T772 1431Q831 1431 885 1416T996 1384Q998 1384 1010 1382T1037 1376T1065 1371T1082 1368Q1084 1368 1089 1364T1102 1355T1114 1346T1122 1342L1169 1336Q1169 1336 1172 1333T1180 1326T1188 1319T1194 1315Q1222 1294 1254 1283T1319 1251Q1351
1213 1390 1175T1464 1097Q1465 1096 1466 1093T1470 1083T1476 1062T1485 1028Q1485 1016 1489 1012Q1489 1009 1494 1003T1505 990T1518 977T1527 969Q1527 949 1531 934T1540 904T1549 877T1553 851L1549 794L1561 716Q1561 686 1556 658T1544 603T1529 549T1515
491V453Q1515 452 1509 444T1502 431Q1493 409 1482 388T1458 346T1435 302T1414 256L1329 182L1272 149Q1265 149 1265 144Q1243 114 1211 90T1139 66L1087 71Q1078 71 1066 65T1042 54Q1039 54 1030 53T1012 50T994 47T983 45Q980 45 967 42T937 36T903 28T876
22Q864 12 845 12Q838 12 827 14T795 22Q794 22 789 21T777 17T763 14T752 12Q745 14 734 18T719 22Q674 16 632 14T547 12Q503 12 462 14T378 22Q352 27 334 28T290 29L176 7Q164 7 152 10T129 19T113 36T106 61ZM511 320Q511 273 541 230T615 155T711 104T803
85Q857 85 900 97T989 135Q1002 143 1012 147T1033 156T1053 167T1077 182Q1113 208 1147 238T1212 306L1217 332Q1221 349 1227 361T1240 386T1253 410T1265 439Q1265 440 1266 446T1268 459T1270 472T1272 479Q1279 497 1288 515T1305 553T1318 592T1324 633Q1319
647 1318 652T1317 663Q1317 668 1318 675T1319 683Q1317 691 1314 713T1309 759T1304 806T1302 837Q1293 849 1291 865T1288 896Q1288 909 1289 918T1290 936Q1273 948 1266 965T1255 1002T1247 1040T1231 1076Q1230 1078 1226 1082T1217 1092T1208 1102T1203
1107L1186 1130L1130 1187Q1107 1209 1088 1234T1042 1277Q1023 1290 1006 1295T970 1306T933 1320T893 1348Q881 1358 855 1364T798 1373T741 1378T700 1379Q654 1379 601 1373T504 1348Q496 1344 491 1329T482 1294T477 1252T475 1213V1183Q475 1147 484 1115T494
1043Q494 1038 492 1030T487 1019Q484 998 483 977T482 936Q482 919 483 902T487 868Q494 848 495 835T497 808Q497 795 497 784T494 756L496 732L494 714Q489 705 488 699T487 682V666Q487 621 490 573T499 479Q503 452 511 425T520 372L511 320Z" />
<glyph unicode="E" glyph-name="E" horiz-adv-x="1419" d="M53 59Q53 78 67 90T102 109T144 120T179 123H260Q269 125 283 134T310 155T334 183T347 213Q350 234 350 258Q350 277 347 298L361 320Q347 371 342 422T337 522Q337 532 338 547T342 577T348 607T354
633Q355 636 357 640Q361 648 361 650Q364 657 368 663Q370 668 372 673T375 682Q375 690 367 696T354 702Q356 735 357 768T359 834Q359 868 358 900T354 967Q349 981 348 987T347 1005L354 1064L347 1171Q347 1183 337 1198T312 1226T284 1249T260 1261H188L180
1265Q177 1267 174 1268T169 1270Q155 1274 138 1276T105 1285T80 1302T70 1336Q70 1354 75 1363T89 1377T112 1383T143 1384Q170 1384 195 1382T238 1367Q243 1368 248 1369T257 1370H276Q324 1370 375 1363T470 1351L527 1341Q540 1341 553 1345T581 1355T610
1365T638 1370Q648 1370 655 1365T677 1360Q682 1360 686 1365T702 1370Q712 1370 717 1369T728 1360H767Q788 1360 811 1367T857 1375Q871 1375 879 1373T902 1360L1082 1351Q1095 1350 1106 1348Q1116 1346 1127 1345T1146 1341Q1151 1341 1158 1340T1171 1336T1181
1328T1186 1315Q1189 1306 1192 1286T1197 1242T1201 1199T1203 1171Q1208 1137 1211 1102T1214 1033H1198Q1176 1033 1162 1067Q1153 1079 1149 1083T1143 1093Q1129 1112 1115 1134T1088 1177T1067 1213T1055 1237Q1043 1242 1030 1244T1005 1249T983 1256T966
1272Q958 1287 935 1287Q926 1287 925 1285Q920 1284 913 1283T897 1282Q880 1282 863 1283T835 1285Q828 1285 826 1287T819 1289Q817 1289 816 1290T812 1292Q790 1295 768 1296T724 1297Q702 1297 681 1296T638 1292Q631 1290 622 1284T605 1270T589 1252T580
1235Q572 1201 570 1159T568 1071V967Q559 956 557 945T555 917V882Q555 858 556 835T564 790T581 748T613 708L774 702Q793 702 811 709Q816 711 823 712T837 714L876 713Q893 713 907 723Q915 725 925 730T946 743T966 758T980 772Q986 784 993 811T1010 865T1031
913T1058 934Q1071 934 1082 915V823Q1082 810 1080 800T1070 772L1058 756L1063 723Q1063 719 1065 700T1069 655T1073 603T1075 559L1070 522Q1070 505 1076 493T1082 471Q1082 445 1073 426T1037 407Q1024 407 1017 411T1007 422T1002 437T1001 455Q1001 462
1001 467T999 479L971 528V559Q970 572 948 584T893 606T821 624T744 638T676 647T631 650Q613 650 600 639T577 611T562 576T555 543V464L568 310V223Q570 200 586 177T626 135T675 104T722 90L793 85L812 78H876Q900 78 920 78T960 79T1001 81T1049 85L1129 116Q1145
127 1168 148T1213 192T1255 239T1283 277Q1288 280 1293 292T1304 319T1319 345T1340 356Q1351 356 1356 347T1361 329L1343 266Q1328 214 1314 161T1295 52Q1274 20 1242 14T1176 7Q1165 7 1154 7T1134 5L1113 0Q1103 0 1097 2T1086 6T1076 10T1063 12L999 5L966
12L812 0Q739 0 666 6T515 12L387 0L297 5Q279 5 262 1T229 -8T198 -17T169 -21Q152 -21 132 -16T95 -1T65 24T53 59Z" />
<glyph unicode="F" glyph-name="F" horiz-adv-x="1300" d="M1128 1208L1079 1259Q1054 1281 1033 1295T990 1317T948 1329T900 1332Q891 1332 889 1330Q862 1330 847 1330T823 1330T813 1330T810 1329H733Q716 1324 698 1323T663 1322Q625 1322 606 1321T574 1313Q563
1309 561 1303T559 1291Q559 1270 554 1261T531 1240Q528 1238 527 1230T524 1212T522 1192T521 1176Q521 1153 528 1132T535 1085L526 1022Q526 999 536 976T547 926L531 777Q531 768 539 757T552 739Q583 735 615 728T678 720Q685 720 690 721T701 734Q712 735
727 736T763 737Q790 737 821 737T882 740T937 748T976 765Q990 774 997 791T1009 827T1016 867T1024 903T1040 930T1071 941Q1077 941 1082 939T1093 926V884Q1093 836 1083 792Q1078 757 1074 729T1069 671Q1069 646 1076 623T1092 577T1108 531T1116 484Q1116
469 1116 462T1111 452Q1106 444 1104 440T1093 436Q1078 436 1071 447T1052 469L1038 500Q1027 524 1017 546T994 587T963 624T920 656H875Q840 656 803 657T739 664L678 675Q652 675 622 666T564 656Q555 645 543 629T531 593Q547 519 558 448T569 304Q569 270
568 259T564 240Q572 216 586 198T620 165T660 138T701 116Q702 116 707 110T713 102Q717 100 731 99T749 97Q757 97 762 97T775 99Q783 100 788 100T801 100Q808 100 816 100T830 99Q837 97 843 97T856 97Q861 92 868 87T882 75T893 60T898 42Q898 31 893 20T880
-2T861 -19T841 -26H839Q828 -28 815 -28T791 -29Q777 -29 765 -29T732 -26L713 -21Q696 -12 675 -5T632 7T587 14T545 17Q524 17 509 16T469 7Q446 3 422 2T374 0Q348 0 326 1T277 7Q265 3 255 -6T227 -19Q220 -17 215 -16T202 -14Q197 -16 187 -16H149Q126 -8
112 0T90 31Q90 63 123 85Q147 87 185 98T260 127T322 170T349 225Q349 278 347 316T341 391T335 466T332 562Q332 579 335 595T342 628T349 661T353 695Q353 698 353 703T352 713T352 723T351 728L339 772V849Q339 866 335 883T327 917T319 950T315 983Q315 987
316 996T320 1010Q324 1030 326 1050T329 1092Q329 1112 327 1131T320 1171Q320 1189 312 1206T290 1240T260 1268T230 1287Q212 1294 181 1296T119 1303T66 1322T43 1367V1382Q59 1391 82 1400T123 1410H147Q161 1410 174 1407T197 1393Q214 1390 231 1388T265
1386Q280 1386 298 1388T334 1393Q339 1401 341 1402T351 1403Q372 1403 392 1395T438 1387H460Q471 1387 483 1387T509 1393Q545 1387 588 1387Q628 1387 669 1393Q706 1406 747 1406T834 1410Q857 1412 877 1413T919 1415Q934 1415 950 1414T983 1410Q987 1408
993 1404T1006 1394T1019 1386T1028 1382Q1037 1382 1043 1385T1060 1393Q1076 1397 1093 1398T1128 1400Q1159 1400 1190 1393Q1192 1393 1199 1387T1215 1373T1231 1359T1239 1351V1208Q1259 1159 1259 1109Q1259 1097 1259 1085T1255 1061T1243 1043T1221 1036Q1215
1043 1207 1053T1191 1073T1175 1094T1162 1112Q1162 1114 1158 1123T1149 1143T1140 1163T1133 1176Q1131 1178 1130 1192T1128 1208Z" />
<glyph unicode="G" glyph-name="G" horiz-adv-x="1628" d="M109 509Q109 518 112 523T116 541Q116 551 111 555T95 567Q92 586 92 604V678Q92 689 92 697T95 716Q102 725 103 729T104 739L90 785L104 844Q104 856 100 866T95 887Q95 895 99 901T109 913T120 925T128
939L137 971Q151 1024 183 1065T259 1145Q260 1166 276 1187T317 1230T372 1271T433 1308T491 1338T536 1360Q559 1369 583 1373T633 1389Q642 1391 668 1394T723 1401T780 1408T818 1413Q832 1412 843 1411T867 1410H964Q977 1410 990 1410T1016 1408Q1028 1401
1050 1393T1097 1377T1146 1365T1185 1360Q1206 1360 1218 1369T1239 1391T1259 1412T1287 1422Q1300 1422 1309 1416T1323 1399T1331 1379T1334 1360L1339 1254Q1343 1246 1345 1240T1348 1228Q1348 1210 1351 1204Q1351 1197 1353 1184T1359 1157T1364 1133T1367
1121Q1369 1105 1373 1094T1381 1073T1389 1051T1393 1024Q1393 1021 1389 1017T1380 1008T1369 1001T1360 998Q1336 998 1314 1013T1274 1052T1242 1100T1218 1145L1211 1157L1206 1183L1173 1214Q1170 1217 1165 1223T1153 1238T1141 1255T1131 1268Q1120 1284
1102 1292T1064 1306T1022 1315T984 1327Q970 1334 960 1340T939 1350T917 1357T887 1360Q864 1360 843 1348T798 1332L727 1327Q681 1319 640 1296T563 1242T493 1174T431 1104Q422 1092 420 1075T413 1040Q405 1018 391 996T364 950T340 903T329 855Q329 850
330 837T333 806T335 768T336 728L334 694L349 670V614Q354 560 362 510T396 412Q407 392 421 377T449 347T477 316T503 280Q508 271 519 270T541 259Q589 189 654 153T798 95Q818 91 831 85T862 78Q870 78 881 81L893 85Q899 85 912 86T941 88T971 92T993 95Q994
95 1006 103T1037 123T1077 149T1116 176T1148 199T1164 211V242L1159 301Q1159 322 1161 340T1164 372V393L1154 412V462Q1152 480 1144 491T1125 513T1106 533T1095 557V588L1090 616Q1092 625 1102 630T1127 638T1159 641T1190 642H1223L1296 630Q1319 630 1340
633T1377 640L1382 642H1564Q1567 642 1575 640T1591 634T1605 624T1611 611Q1611 590 1592 578T1547 559T1497 547T1462 535L1403 462Q1407 453 1412 440T1417 412L1403 301Q1403 285 1410 277T1417 259Q1417 236 1414 210T1401 161T1376 119T1334 95L1280 90Q1266
88 1248 79T1210 57T1173 32T1142 12Q1130 5 1117 4T1095 3H1059Q1038 3 1022 1T984 -10H818Q774 0 725 0Q702 0 679 1T633 3Q622 3 616 7T604 17T593 28T580 36Q577 39 566 43T541 52T517 59T503 62L439 95Q433 95 420 99T398 104Q384 107 361 128T312 175T265
227T234 265Q234 269 225 280T211 296L201 322Q199 325 192 330T178 341T165 352T159 360L149 424Q146 434 140 444T127 464T115 485T109 509Z" />
<glyph unicode="H" glyph-name="H" horiz-adv-x="1759" d="M106 7H94Q75 11 75 26Q75 44 78 55T103 76Q120 84 142 89T186 99T227 110T260 128Q270 136 277 148T290 173T300 200T309 225L319 464L309 522Q309 527 311 537T316 554Q311 592 310 632T309 714Q309
751 310 788T316 863L314 884Q314 888 311 911T304 962T297 1020T293 1066L288 1097L293 1152Q293 1173 293 1195T288 1233Q282 1254 266 1266T229 1285T186 1296T144 1304T113 1315T101 1334Q101 1345 105 1346T118 1355L127 1358Q172 1363 218 1365T309 1368Q324
1368 338 1366T366 1362T395 1358T430 1356L636 1368H715Q733 1360 733 1353Q733 1344 727 1338T713 1328T695 1322T679 1320H634Q623 1320 614 1319T596 1311Q564 1294 539 1274T482 1233Q473 1233 473 1228Q485 1208 489 1187T494 1145Q494 1129 489 1114T477
1083L473 1067Q473 1048 475 1034T481 1005T489 977T499 943V843L502 810Q502 808 502 799T499 782Q499 771 510 757T532 735H558Q579 735 594 738T629 746H677L861 735L932 740Q952 740 964 732T990 723Q1011 723 1029 729T1065 735L1163 723L1207 727Q1212 728
1223 734T1239 746Q1239 746 1243 748L1246 751Q1249 766 1252 786T1258 827T1262 869T1264 907Q1264 922 1258 938T1252 971Q1252 992 1258 1012T1271 1052T1284 1090T1290 1128Q1290 1180 1264 1212T1198 1272Q1191 1278 1174 1281T1135 1285T1090 1288T1047
1294T1014 1305T1001 1327Q1001 1342 1008 1350T1024 1363T1045 1373T1065 1384H1122L1513 1356H1532Q1544 1356 1544 1358L1572 1368H1663Q1674 1368 1681 1360T1689 1339Q1689 1323 1676 1315T1644 1302T1607 1296T1577 1292Q1549 1287 1529 1267T1489 1220Q1486
1172 1478 1127T1459 1033Q1457 1029 1452 1018T1447 1002L1452 922L1447 837Q1447 833 1449 822T1452 810L1447 780Q1447 774 1449 768T1452 751L1438 654L1459 585L1435 498L1447 455Q1447 441 1441 427T1435 394L1452 329Q1452 313 1444 299T1435 263Q1435 143
1508 104Q1528 92 1559 90T1615 88Q1624 88 1631 87T1646 85Q1667 81 1671 66T1675 36Q1674 25 1664 18T1648 7Q1602 -4 1554 -7T1451 -10H1414Q1405 -10 1397 -10T1381 -9L1257 7L1144 -3L1108 -9H1037Q1021 -9 1009 2T997 21Q997 39 1003 50T1020 67Q1031 72
1043 74T1066 76H1092Q1103 78 1106 84T1117 97Q1132 108 1152 116T1190 135T1220 160T1233 197L1226 259Q1226 297 1230 333T1239 405Q1241 416 1246 425T1252 443Q1252 450 1252 456T1246 469V609Q1246 624 1233 636T1200 658T1161 671T1127 676Q1119 676 1112
673T1096 665T1080 658T1061 654L985 668Q974 668 965 663T946 652T924 640T893 635Q874 640 860 644T831 650T802 654T767 656H734Q723 656 716 655T707 654Q693 650 679 647T646 644Q640 646 630 647T610 650T593 653T584 654L556 676Q547 676 537 667T522 654Q509
645 501 638T489 623T484 603T482 576Q482 550 484 520T494 464Q495 461 496 456T498 443T501 431T502 422Q504 422 504 413Q504 403 502 394T499 370L504 313Q504 310 502 308L494 284Q495 279 496 275Q498 265 499 263Q503 254 503 243T504 221V197Q504 175 507
155T532 119Q536 117 546 114T567 107T588 101T603 97H624L720 102Q775 102 779 50V48Q779 39 775 29T761 11T735 -3T695 -9Q674 -7 665 -2T644 7Q623 14 589 14H568Q564 14 559 13T549 10Q545 9 541 8T532 7L435 12H359Q354 12 344 12T324 10T305 9T293 7L272
-9Q228 -9 186 -3Q165 2 146 4T106 7Z" />
<glyph unicode="I" glyph-name="I" horiz-adv-x="881" d="M427 26Q413 26 399 23T369 15T339 7T306 3L261 9Q246 9 234 6T208 3H135Q126 3 119 4T106 7Q68 15 68 55Q68 67 70 75T90 92Q107 99 132 102T185 107T236 113T275 126Q281 129 289 142T305 170T318 200T324
220L312 301L334 349L312 391L334 621L327 725Q322 730 322 747Q322 763 324 774T330 792T336 807T339 823Q339 849 331 872T322 924L334 995Q334 1005 334 1019T331 1048T325 1076T312 1099Q312 1103 314 1111T317 1135Q317 1148 315 1158T312 1173Q312 1178 310
1185T306 1192L242 1251Q230 1251 202 1257T144 1273T91 1296T68 1325Q68 1353 86 1362T125 1372Q133 1372 140 1371T154 1368Q196 1366 237 1361T320 1356Q352 1356 384 1361T448 1368Q462 1373 487 1376T539 1380T593 1383T635 1386Q667 1391 699 1398T763 1406Q784
1406 803 1397T822 1358Q822 1352 816 1347T801 1338T785 1330T777 1322Q774 1319 766 1312T748 1296T729 1281T715 1272Q700 1272 672 1267T615 1252T566 1226T545 1192V1045Q545 1044 546 1038T550 1024T553 1008T556 995Q566 988 566 976Q550 947 543 917T535
856L545 782L540 721Q540 707 543 693T551 665T558 636T562 605Q562 591 559 578T551 552T544 526T540 500Q540 486 542 476T550 450V327Q546 316 546 311T545 296Q545 258 553 228T576 164Q576 161 586 154T608 139T632 125T645 119Q666 119 679 123T706 128Q718
128 740 125T780 112Q790 104 798 95T806 74Q806 59 802 44T789 24Q777 12 758 12Q749 12 738 11T718 9L678 0Q657 0 633 0T584 2T536 5T493 9Q490 9 482 11T464 17T446 22T433 24Q432 24 431 25Q430 25 429 25T427 26Z" />
<glyph unicode="J" glyph-name="J" horiz-adv-x="837" d="M76 -576H59Q45 -578 32 -579T7 -580Q-9 -577 -38 -577T-98 -564Q-123 -550 -141 -525T-188 -472Q-188 -458 -184 -433T-171 -384T-149 -340T-116 -318Q-93 -313 -72 -313Q-55 -313 -38 -318Q-29 -318
-19 -326T-1 -347T13 -372T19 -396Q19 -397 18 -400T15 -409Q13 -414 12 -420Q14 -425 15 -434T21 -448Q29 -457 32 -466T35 -483Q33 -506 32 -511T26 -519L99 -522Q133 -522 154 -512Q175 -500 196 -484T236 -449T269 -408T293 -363V-294Q293 -292 300 -281T310
-268L298 -216L315 -137L308 -95L320 22Q320 33 320 40T315 64Q312 85 312 107V199Q312 211 312 221T315 246Q318 252 320 261T323 280T325 299T326 315Q326 332 317 344T308 372Q308 385 314 395T320 420L308 488L320 555Q313 584 313 590L329 654L315 853Q315
857 315 867T317 887T319 906T320 917L329 941Q321 964 318 974T315 986V1064L298 1102Q298 1112 300 1120T306 1136T312 1151T315 1166Q315 1178 310 1184T298 1196T287 1215T281 1253L282 1277Q272 1279 265 1284T251 1297T236 1310T218 1320Q207 1323 182 1328T130
1342T84 1360T64 1384Q64 1390 68 1400T80 1419T94 1436T108 1443L251 1431Q253 1431 258 1433T268 1438L369 1415Q380 1415 385 1418T402 1422L492 1415L706 1429H772Q781 1418 789 1410T798 1389Q798 1386 792 1381T777 1369T761 1358T749 1349H642Q634 1340
628 1336T616 1329T603 1324T585 1315Q565 1302 555 1284T539 1245T532 1203T531 1161V1133L552 1111Q552 1100 548 1090T539 1071T530 1050T526 1026L533 971L512 834Q512 823 514 810T518 784T523 759T526 740Q529 730 530 721T531 706Q531 697 530 692T526 683L512
607Q523 594 525 587T528 566Q528 562 525 554T505 517Q505 516 513 505T521 490Q522 488 522 482T524 468T525 455T526 445Q526 440 524 424T518 389Q515 369 514 352T512 332Q512 316 516 311T521 299Q521 286 513 278T505 254Q505 237 513 223T521 187L505 133L512
95Q512 78 507 65T500 35Q498 26 495 6T489 -37T483 -79T478 -107Q471 -116 469 -122T467 -138Q467 -162 467 -168T466 -176L443 -246Q439 -278 438 -310T421 -368Q409 -391 392 -409T362 -453L287 -531Q281 -536 265 -542T229 -555T195 -567T177 -576L94 -581Q81
-581 76 -576Z" />
<glyph unicode="K" glyph-name="K" horiz-adv-x="1481" d="M1356 -10Q1354 -10 1347 -11T1330 -13T1311 -15T1296 -16Q1287 -16 1268 -11T1227 1T1186 15T1157 28L1121 69Q1119 72 1118 77T1105 88Q1094 100 1080 110T1064 128Q1053 138 1049 147T1041 164T1033
180T1020 197L962 256L939 294Q934 308 922 321T894 345T862 368T832 389Q811 403 800 424T780 464Q771 476 757 485T730 505T706 527T692 559L598 649Q594 654 584 657T561 663T536 667T515 668Q506 668 498 663T484 649T474 632T470 614Q470 598 476 582T484
552Q486 520 488 484T491 413L479 375L484 346L491 289L503 256L491 201Q491 174 498 159T519 136T549 125T585 119H605Q609 119 619 115T641 106T660 95T668 86Q675 75 681 71T692 64T699 59T702 50Q702 -10 640 -10Q617 -10 594 -4T548 9T501 22T453 28Q419 28
386 20T315 12L263 17L187 12Q184 12 178 13T166 17T155 22T150 28Q155 60 175 70T221 83Q235 95 249 105T273 128T290 155T297 189Q297 213 297 221T294 234L299 299L315 330Q310 346 307 362T304 393V394Q304 398 305 404T307 416T309 426T311 431Q312 432 312
433Q312 435 313 436Q314 438 315 441L311 464V564Q302 585 296 605T290 645Q290 654 292 654L297 675Q294 696 293 708T291 728T290 740T290 749L304 798Q304 802 302 805T297 810L296 849L304 922Q304 936 300 948T296 972L304 998Q295 1043 294 1072T292 1128Q292
1138 286 1157T269 1195T246 1228T221 1242Q208 1242 200 1242T181 1244Q169 1250 153 1254T123 1266T98 1283T88 1311Q88 1323 90 1330T104 1341H126L218 1336L303 1339Q312 1339 322 1338T342 1330Q353 1326 364 1326T387 1325Q408 1325 431 1330L477 1346Q482
1348 487 1348T498 1348H522Q536 1348 548 1347T574 1341L614 1330Q618 1329 619 1317T621 1301Q621 1288 608 1277T576 1257T541 1241T515 1228Q509 1220 503 1202T492 1161T483 1119T479 1088Q479 1083 481 1079T484 1064L463 1019Q463 1011 465 1009T471 1005T477
1003T484 995V971Q484 956 477 941T470 912Q470 908 474 899T479 887V810Q477 808 474 805T470 798Q470 793 476 790T491 787Q500 787 505 791T514 802T523 816T536 829Q552 840 570 849T608 867T644 887T676 912Q697 932 706 959T726 1010Q730 1017 738 1020T754
1027T772 1033T787 1043Q794 1050 812 1072T850 1120T883 1171T898 1208Q898 1208 893 1216T882 1233T870 1251T863 1261L846 1259Q833 1259 820 1261T797 1269T780 1284T773 1306Q773 1315 778 1325T791 1343T809 1357T828 1363L849 1356L939 1349Q948 1354 981
1357T1053 1363T1128 1367T1178 1368Q1184 1368 1201 1366T1235 1359T1266 1346T1280 1323Q1278 1308 1269 1305T1244 1292Q1229 1284 1211 1275T1176 1257T1144 1244T1121 1239Q1108 1230 1103 1229T1097 1227L1067 1213Q1055 1213 1040 1201T1011 1172T985 1138T967
1112L951 1097Q908 1063 878 1025T811 943L797 931L768 926Q755 918 746 908T728 886T711 865T692 846Q687 846 687 841Q687 837 688 830T692 820V777Q700 777 716 767T751 742T791 708T830 671T861 638T880 616Q882 614 889 604T896 590Q905 573 918 561T945 538T974
513T1000 479Q1002 474 1007 474Q1011 474 1018 474T1033 470T1049 460T1064 441Q1068 430 1073 418T1086 396T1102 379T1126 372Q1136 360 1150 347T1180 321T1211 293T1237 266Q1238 265 1243 259T1249 251Q1263 231 1282 216T1320 187T1357 157T1386 119Q1392
107 1410 104T1449 97T1484 81T1500 42Q1500 23 1493 10T1475 -11T1448 -22T1417 -26Q1406 -26 1398 -24T1384 -18T1371 -13T1356 -10Z" />
<glyph unicode="L" glyph-name="L" horiz-adv-x="1456" d="M40 50Q40 66 47 84T71 102L154 109Q179 114 203 118T249 128T292 146T329 178Q333 185 335 191T338 206Q338 222 346 235Q346 260 346 280T341 327Q339 339 339 347T339 360Q339 376 340 382T346 405Q346
434 345 453T344 491Q344 525 355 561L346 709Q344 713 343 725T341 742Q346 754 350 768T355 799Q352 828 352 855T346 912Q344 920 339 925T334 939Q334 950 339 954T346 964V1012Q346 1033 346 1059T343 1114T334 1170T317 1225Q312 1229 303 1235T286 1249T271
1261T263 1266Q254 1273 238 1278T201 1289T161 1301T123 1315T96 1335T85 1363Q85 1369 92 1373T109 1379T128 1383T142 1384Q154 1382 160 1382T170 1382Q178 1382 180 1384Q214 1386 250 1387T322 1389Q356 1389 387 1388T457 1384Q461 1379 466 1377T476 1375Q521
1379 553 1384T613 1394T665 1406T720 1417H744Q763 1417 790 1416T842 1410T884 1396T902 1368Q902 1359 901 1347T895 1325Q890 1317 866 1312T812 1304T755 1300T715 1299Q710 1297 705 1296Q700 1295 696 1295T687 1294L670 1289Q634 1285 615 1282T586 1273T574
1258T568 1230Q566 1213 566 1196T561 1156L547 1124Q547 1111 552 1096T563 1066T575 1034T580 1003L573 926L587 862Q587 839 583 822T573 784Q568 755 567 720T566 657L564 626Q564 601 573 593V391Q568 382 567 378T566 368Q566 353 573 341T580 317Q580 296
576 272T566 230Q566 228 565 224T563 215Q562 210 561 204Q564 188 580 172T617 143T660 122T697 114L741 123Q745 123 751 119T774 114Q787 114 797 121T824 128L855 114L919 109L947 102H964Q992 106 1019 109T1073 118T1125 133T1171 161L1174 164Q1178 168
1178 173Q1183 189 1191 199T1208 218T1228 234T1249 253Q1263 264 1274 284T1299 322Q1309 332 1323 343T1352 364T1381 380T1408 386Q1413 386 1421 385T1436 382T1449 377T1455 368Q1455 346 1451 332T1440 305T1423 282T1403 258Q1399 253 1397 244T1395 228Q1395
222 1396 213T1398 199Q1395 186 1389 175T1374 155T1357 138T1344 123L1339 92Q1328 41 1295 16T1211 -9L1132 7L1100 -9H991Q971 3 956 5T919 7Q896 7 876 -1T838 -9H824L670 12L651 19H561Q550 30 543 31T521 33Q510 33 505 32T490 24H329Q314 12 282 5T215
-7T146 -12T95 -14Q82 -14 72 -8T55 7T44 28T40 50Z" />
<glyph unicode="M" glyph-name="M" horiz-adv-x="1926" d="M82 31Q82 47 85 52T97 64Q113 75 137 87T186 111T234 134T272 154Q294 193 303 237T312 327V356Q312 364 312 372T313 388Q314 390 315 395T317 406T318 417T319 426L331 446L332 483Q332 488 331 494T319
514L336 569Q336 577 335 582T331 592Q329 594 327 600T325 612V631L336 709L325 777Q325 800 335 823T346 868L341 907Q341 923 344 941T352 977T361 1015T365 1054Q361 1060 353 1070T341 1088Q341 1101 339 1121T329 1159T309 1191T277 1204L194 1197H173Q152
1200 134 1203T101 1212T78 1231T69 1265Q69 1283 71 1292T79 1305T95 1310T123 1315L147 1325H180Q248 1325 310 1317T438 1308Q454 1308 465 1311T490 1315Q544 1294 571 1260T613 1171L614 1159Q617 1139 620 1127T629 1106T648 1089T682 1069L680 1048Q680
1033 683 1019T692 990T703 960T711 927Q711 924 712 917T714 901T717 886T718 877Q724 862 735 844T759 806T783 768T803 734Q829 679 853 623T900 510L929 462Q935 451 938 439T945 416T957 400T978 393Q993 393 999 396T1007 406T1010 422T1016 446Q1016 448
1025 454T1037 462Q1056 487 1069 515T1092 574T1112 636T1132 697Q1132 698 1136 708T1146 730T1157 755T1165 772Q1180 810 1189 842T1215 908L1222 927Q1242 965 1264 1006T1313 1074Q1313 1090 1311 1097T1308 1109Q1308 1114 1310 1124T1315 1146T1320 1167T1322
1180Q1324 1184 1326 1196T1329 1213L1350 1235Q1350 1238 1351 1245T1352 1260T1354 1274T1355 1282Q1361 1295 1375 1305T1407 1322T1442 1332T1471 1336Q1491 1336 1511 1325Q1532 1318 1554 1318L1644 1336Q1680 1336 1707 1335T1773 1325Q1803 1320 1803 1292Q1803
1266 1785 1252T1740 1228T1682 1212T1624 1197T1579 1175T1561 1138Q1561 1117 1568 1098T1583 1058T1599 1018T1606 976L1590 882V682Q1595 674 1595 661L1599 554L1621 516V452Q1621 450 1621 443T1623 426T1625 409T1626 398Q1628 382 1631 352T1638 287T1649
222T1666 175Q1677 156 1696 147T1737 131T1783 121T1824 110T1855 89T1867 52Q1867 32 1857 21T1832 4T1800 -3T1770 -5H1718Q1697 -5 1674 -4T1629 -1T1592 3T1569 10Q1566 12 1549 12H1530L1422 -5L1329 5Q1325 5 1318 1T1308 -5Q1290 -5 1272 -2T1240 8T1216
26T1206 55Q1206 77 1235 85Q1247 86 1258 87T1282 88Q1319 88 1352 94T1408 130Q1409 135 1411 139Q1412 142 1413 145T1414 149Q1414 151 1415 154T1419 161L1426 185Q1432 208 1434 231T1436 277Q1436 306 1434 333T1426 391L1424 400Q1422 406 1422 415T1422
436Q1422 451 1422 468T1421 501T1416 529T1408 548Q1410 553 1410 555T1410 562V578L1388 742L1393 863Q1393 872 1392 886T1391 915T1389 940T1388 951Q1388 960 1388 977T1384 1011T1374 1041T1355 1054Q1351 1054 1348 1052T1344 1048L1329 979Q1315 973 1313
959T1310 929Q1310 921 1310 914T1308 900Q1292 871 1272 848T1235 798Q1230 793 1226 781T1218 754T1211 727T1206 708Q1193 673 1176 638T1139 569L1132 554Q1130 552 1129 539T1126 521Q1123 519 1118 514T1106 503T1095 492T1087 484L1073 412Q1070 398 1063
386T1049 363T1034 340T1023 315Q1023 313 1022 305T1020 287T1017 268T1016 256Q1016 253 1013 237T1004 201T995 167T988 149L964 121Q962 118 962 102Q962 94 961 84T956 64T946 49T929 43Q920 43 911 50T892 68T874 91T858 114Q858 116 854 121T850 130Q831
162 825 198T808 272Q806 281 796 301T772 343T747 387T729 420Q706 465 682 510T635 600L613 670Q584 735 552 791T488 908Q486 912 481 919T474 927L452 951Q449 957 449 964T447 977T442 987T428 991Q423 991 422 990T417 984L405 868V820Q405 786 405 754T407
687Q410 622 410 554Q411 551 413 545Q415 540 417 532T422 510L414 490Q414 473 410 461T405 422V405L424 368Q426 364 426 359T426 348V315Q426 289 428 264T443 223L521 135Q521 115 531 105T556 89T588 80T621 72T646 56T656 28Q656 25 656 20T654 9T649 -1T642
-5H547L521 5H497Q475 5 456 7T417 13T377 18T332 21Q322 21 312 13T291 0Q265 -2 238 -7T184 -12Q176 -12 165 -14T139 -17Q132 -17 124 -16T107 -9Q82 1 82 31Z" />
<glyph unicode="N" glyph-name="N" horiz-adv-x="1772" d="M219 102L234 106Q242 110 248 118T259 137T271 157T286 176Q286 187 283 192T279 202L310 240L338 479Q351 496 353 515T355 550L350 668Q350 684 352 693T359 718Q363 727 364 740T368 765V858Q368
863 371 870T376 879V1000L380 1059Q381 1060 383 1070T385 1081Q376 1113 372 1144T350 1202Q348 1202 347 1205Q346 1206 345 1208L305 1225L253 1277Q244 1284 230 1286T202 1290T173 1294T150 1304L117 1330Q112 1335 105 1336T86 1337L61 1336Q47 1341 37
1353T20 1382Q20 1400 34 1410T69 1425T109 1431T141 1432Q162 1425 181 1423T221 1420T262 1419T305 1415Q306 1415 314 1413T331 1408T350 1403T361 1400H374L447 1422Q455 1422 465 1418T486 1407T506 1393T522 1382L528 1374Q538 1356 554 1332T589 1283T627
1236T662 1202L710 1175Q714 1173 720 1165T726 1156L734 1130Q740 1119 744 1114T753 1104T764 1097T779 1086Q798 1067 811 1054T834 1028T852 999T869 957Q870 957 883 946T912 921T940 896T952 884L963 858Q963 855 966 850T972 838T980 827T987 820L1009 810Q1030
791 1053 769T1096 722T1133 672T1158 623L1258 528Q1273 485 1309 456T1388 427V467Q1388 476 1389 487T1392 507Q1392 508 1394 513T1399 525T1404 538T1407 548Q1407 559 1402 563T1397 573L1407 630Q1407 657 1403 691T1397 751Q1397 753 1397 759T1395 772T1393
785T1392 794V796Q1392 805 1394 811Q1395 814 1397 815L1406 834L1423 926Q1416 937 1414 947T1412 967L1418 1062L1412 1161Q1412 1172 1414 1180T1428 1194V1220Q1428 1232 1422 1247T1406 1276T1384 1302T1359 1317Q1357 1317 1351 1318T1338 1320T1325 1323T1316
1325L1293 1341Q1291 1342 1280 1344T1264 1346Q1244 1354 1229 1361T1202 1378T1180 1399T1158 1427Q1153 1434 1148 1434T1137 1446Q1139 1452 1149 1455T1172 1461T1196 1464T1210 1465Q1215 1465 1215 1464Q1219 1464 1229 1462T1245 1458Q1308 1452 1362 1445T1478
1438L1630 1453Q1643 1453 1657 1452T1684 1447T1704 1433T1712 1406Q1712 1378 1694 1365T1649 1345T1596 1333T1551 1317L1540 1284L1492 1239Q1490 1237 1489 1231T1487 1220Q1488 1215 1491 1207T1498 1191T1506 1175T1513 1161V1156Q1513 1149 1511 1135T1506
1106T1501 1079T1499 1064Q1497 1062 1497 1052Q1497 1047 1497 1042T1499 1035V974Q1499 953 1496 933T1482 898V775Q1482 762 1482 746T1479 715T1473 684T1461 659V631Q1461 591 1457 553T1449 474Q1447 453 1441 435T1435 396Q1435 375 1435 350T1436 299T1441
247T1449 202Q1455 182 1459 167T1465 135T1469 102T1471 62V12Q1461 -5 1444 -5Q1426 -5 1405 8T1361 43T1316 90T1271 143T1229 192T1193 230Q1191 234 1188 248T1179 266Q1163 283 1145 306T1110 346Q1089 362 1072 379T1040 414T1011 452T980 491Q974 499 966
504T950 514T935 524T925 538Q890 586 855 624T774 692Q766 696 762 702T753 715T742 728T726 740Q724 743 718 753T703 776T688 800T679 815L667 825Q662 846 655 860T637 887T613 912T582 943L573 957Q568 972 558 982T536 1001T512 1018T490 1038Q483 1046 480
1053T474 1068T465 1079T445 1086Q439 1086 427 1078T414 1062L419 1033Q419 1022 414 1006T409 974L419 943L409 915Q409 901 413 880T426 848Q431 832 433 815T435 778Q435 756 433 737T426 699Q433 690 433 683Q433 666 430 652T424 626T417 601T414 576V543Q414
530 414 515T416 486T420 459T426 441Q421 428 418 419T413 402T410 386T409 367Q409 337 415 306T433 245T465 189T511 144Q519 139 528 137T547 133T566 127T582 114Q598 114 616 113T650 108T681 100T703 86Q711 68 716 53T722 12Q705 -10 688 -22T641 -35H622L582
-14Q552 -9 509 -6T425 -3H357Q346 -3 335 -4T310 -10H150Q147 0 139 2T121 5T106 8T99 19Q99 42 109 56T136 80T173 93T212 102H219Z" />
<glyph unicode="O" glyph-name="O" horiz-adv-x="1697" d="M100 502Q100 515 107 527T114 555L88 666Q88 695 91 731T100 794Q108 819 113 847T121 904T125 958T126 1002Q137 1016 148 1026T168 1045T183 1067T192 1099L247 1156L273 1168Q279 1171 287 1182T303
1207T320 1235T337 1256Q394 1297 449 1332T571 1400Q576 1401 581 1403Q586 1404 590 1405T598 1406Q614 1408 624 1413T643 1424T662 1434T688 1439L737 1431L752 1439L789 1450Q834 1456 876 1457T963 1458Q977 1458 1009 1452T1077 1438T1143 1420T1183 1406Q1212
1386 1235 1358T1285 1310Q1301 1298 1316 1290T1347 1275T1377 1259T1406 1237Q1411 1235 1418 1229T1432 1216T1444 1202T1453 1192L1460 1161Q1462 1149 1470 1139T1489 1118T1509 1097T1522 1076Q1530 1064 1540 1046T1560 1006T1577 965T1586 929V870Q1590
853 1593 843T1604 822Q1608 811 1611 801T1614 773Q1614 771 1613 766T1612 755T1610 744T1609 735L1619 709L1614 666Q1616 661 1616 654T1616 638Q1616 606 1612 582T1604 550Q1593 518 1579 491T1550 438T1521 383T1493 322Q1487 316 1481 313T1469 308T1457
302T1446 291Q1443 286 1440 278T1432 261T1422 242T1411 227L1391 215Q1383 215 1376 208T1368 194Q1361 185 1348 170T1320 138T1291 107T1268 86Q1261 82 1256 79Q1251 77 1247 75T1240 73L1129 35Q1122 27 1119 23T1113 16T1106 13T1093 9L1027 3L956 -28Q947
-30 938 -31Q930 -32 922 -32T905 -33Q894 -33 879 -31T846 -25T813 -19T783 -12Q763 -7 741 -6T697 -5Q659 -5 624 -3T555 14L540 35Q529 38 514 39T484 44T455 52T434 67Q419 85 410 97T392 119T370 137T332 156L301 163Q291 168 279 183T255 218T231 261T208
305T190 344T178 370Q169 394 156 404T130 424T109 450T100 502ZM311 725Q311 705 318 688T336 655T354 623T365 588Q367 585 367 576L365 528Q365 519 367 508T377 486Q383 475 390 471T403 462T415 451T424 432L425 422Q425 415 425 409T424 391Q424 374 429
363Q433 352 444 349T462 337Q477 298 492 273T533 225Q568 197 604 171T680 125T762 92T853 80Q866 80 875 82T892 87T910 93T932 99Q960 103 995 108T1060 114Q1081 130 1107 144T1158 173T1205 208T1240 253L1292 358Q1306 368 1312 384T1323 417T1331 451T1347
481L1368 619Q1368 635 1366 649T1363 683L1375 716Q1375 732 1368 754T1350 800T1328 846T1309 884L1299 901L1304 929Q1304 944 1299 955T1288 976T1276 995T1268 1017L1259 1066Q1250 1094 1222 1131T1159 1205T1088 1268T1027 1303Q1012 1308 986 1309T944
1310L918 1342Q911 1345 894 1350T857 1361T818 1370T789 1374Q769 1374 738 1370T673 1358T612 1338T571 1310L566 1294Q558 1288 550 1285T534 1277T521 1266T512 1246Q489 1240 481 1235T469 1224T461 1211T443 1192Q404 1166 380 1125T344 1036T327 938T322
844L327 773Q327 764 319 752T311 725Z" />
<glyph unicode="P" glyph-name="P" horiz-adv-x="1184" d="M71 62Q71 68 75 74T84 87T95 98T104 106H130Q152 106 173 107T214 114T251 131T284 164L315 202Q320 207 321 211T322 227L315 358Q315 390 325 419T336 476Q336 507 326 540T315 607Q315 615 317 620T322
631T327 643T330 657L320 728L330 823V862L315 889Q313 914 310 937Q308 957 306 977T303 1010L317 1057Q317 1071 311 1103T295 1169T274 1231T251 1265Q234 1270 204 1274T145 1288T93 1314T71 1358Q71 1367 76 1367Q92 1367 104 1370T126 1377T147 1384T171
1387L251 1377L412 1393L445 1382L497 1393Q526 1397 554 1398T611 1400Q638 1400 665 1399T718 1393Q739 1382 760 1381T804 1379Q828 1379 851 1377T896 1370Q914 1367 943 1354T1002 1322T1058 1281T1095 1239Q1104 1216 1111 1189T1125 1135T1134 1080T1138
1028Q1138 1016 1138 996T1135 955T1128 916T1118 889L1088 851L1081 813Q1076 801 1059 781T1020 739T978 699T945 676Q936 671 923 665T896 651T870 639T849 631L779 626L735 612Q723 612 706 615T674 626T647 641T635 661Q635 677 656 685L772 709Q773 714 779
717T791 723Q826 741 856 770T908 836T942 912T955 995Q953 1003 950 1009T945 1021Q945 1022 944 1023T943 1029Q939 1057 934 1094T919 1159Q915 1169 898 1186T858 1224T812 1263T772 1297L683 1318H604Q595 1313 579 1309T547 1299T519 1283T507 1254V1138Q514
1129 515 1124T516 1107L507 1069Q507 1067 511 1057T516 1041V1024L498 972L521 856Q521 847 521 842T516 825V671Q520 662 520 655T521 638L507 580Q507 543 517 507T529 432Q530 404 530 375T531 316T535 258T547 202Q548 195 569 180T618 150T669 123T701 111H732Q743
111 748 111T760 106Q760 105 764 101T775 92T787 81T799 73Q801 68 802 65T804 57V54Q795 34 777 23T736 7T691 1T649 0L573 14Q562 14 552 10T529 5L446 28H434Q426 28 424 26Q381 21 338 11T246 0Q226 0 197 1T139 8T91 26T71 62Z" />
<glyph unicode="Q" glyph-name="Q" horiz-adv-x="1678" d="M77 753Q77 781 89 806T106 858Q106 860 107 870T109 891T112 913T115 926Q117 929 123 940T135 964T148 988T157 1002Q157 1003 158 1007T160 1016T163 1025T164 1031Q195 1099 246 1153T356 1253Q358
1254 365 1258T381 1266T396 1275T404 1282Q411 1284 422 1291T435 1301Q436 1302 440 1306T448 1316T458 1325T465 1330Q466 1331 472 1332T487 1335T503 1338T513 1339Q514 1340 519 1343T530 1349T543 1355T551 1358H553H560Q571 1361 582 1368T604 1381T627
1393T651 1398H657Q658 1396 665 1392T676 1387Q680 1389 690 1395T705 1406Q737 1411 769 1414T833 1417Q865 1417 898 1414T965 1406Q966 1406 976 1404T1001 1399T1029 1393T1051 1387Q1053 1387 1060 1383T1070 1379Q1071 1377 1076 1371T1088 1358T1101 1346T1110
1339Q1114 1337 1123 1336T1144 1333T1167 1331T1188 1330H1196Q1197 1327 1200 1323T1208 1314T1217 1306T1224 1301Q1225 1300 1229 1299T1239 1296T1248 1293T1253 1291Q1255 1291 1263 1282T1272 1272Q1282 1265 1293 1261T1315 1252T1338 1244T1359 1233Q1361
1233 1368 1225T1380 1214Q1422 1166 1457 1121T1523 1022Q1533 1005 1544 977T1566 918T1582 858T1591 810V734Q1591 729 1595 718T1601 704V699Q1601 674 1597 653T1587 613T1574 573T1561 531Q1557 513 1556 500T1554 475T1548 451T1534 422Q1533 421 1529 417T1519
409T1510 400T1504 394Q1503 393 1499 386T1490 371T1481 355T1475 346Q1461 324 1444 305T1408 269T1370 235T1331 201Q1324 196 1309 183T1276 156T1244 130T1224 114Q1216 108 1199 102T1163 89T1132 75T1118 57Q1118 46 1122 42T1138 28Q1142 26 1148 21T1160
12T1171 3T1177 -2Q1178 -2 1185 -3T1200 -5T1215 -8T1224 -10Q1227 -12 1238 -17T1263 -30T1287 -42T1302 -48Q1331 -62 1359 -66T1418 -78Q1420 -78 1427 -82T1437 -88Q1444 -91 1457 -95T1484 -104T1509 -112T1523 -116Q1527 -117 1542 -120T1576 -126T1609
-131T1629 -135Q1633 -136 1651 -142T1693 -156T1739 -171T1774 -183Q1792 -190 1809 -195T1844 -206T1877 -221T1909 -242Q1919 -244 1945 -249T2001 -260T2056 -271T2091 -280Q2095 -280 2106 -284T2120 -291Q2154 -304 2189 -310T2260 -321T2331 -328T2402 -337Q2404
-339 2415 -343T2428 -348H2444H2459Q2461 -348 2472 -344T2489 -337H2584L2594 -329H2738Q2740 -329 2747 -325T2759 -318Q2776 -308 2793 -302T2827 -290T2863 -281T2902 -270Q2921 -266 2937 -255T2970 -232T3004 -211T3042 -202Q3058 -202 3068 -207T3085 -222T3093
-243T3096 -268Q3096 -287 3089 -303T3071 -334T3046 -362T3018 -386Q2976 -420 2934 -441T2845 -483Q2832 -489 2818 -491T2791 -496T2764 -502T2738 -512Q2735 -514 2726 -519T2705 -530T2684 -541T2670 -550Q2595 -552 2523 -560T2376 -569H2293Q2270 -559 2248
-558T2198 -550Q2196 -550 2189 -545T2181 -540H2137H2120Q2115 -539 2094 -534T2047 -523T1996 -511T1958 -502Q1956 -502 1948 -498T1937 -491H1928Q1920 -491 1910 -492T1888 -493Q1877 -493 1865 -491T1842 -483Q1840 -482 1836 -478T1828 -468T1819 -459T1812
-453H1805H1781H1774Q1772 -453 1763 -451T1742 -445T1720 -438T1707 -434Q1705 -434 1697 -433T1678 -430T1660 -427T1648 -424Q1646 -424 1639 -416T1629 -405Q1626 -404 1615 -402T1591 -396T1567 -390T1553 -386Q1551 -385 1543 -381T1524 -372T1506 -363T1494
-358Q1493 -357 1488 -356T1476 -353T1463 -350T1456 -348Q1451 -346 1440 -343T1426 -337Q1424 -337 1413 -331T1389 -319T1365 -306T1350 -299H1338H1300H1291Q1289 -299 1282 -294T1267 -281T1253 -269T1245 -261Q1229 -250 1211 -250T1177 -242Q1148 -229 1125
-212T1070 -183Q1068 -183 1060 -182T1043 -179T1025 -176T1013 -175Q1008 -173 997 -170T984 -164Q983 -164 981 -160T975 -150T969 -141T965 -135H944H935Q933 -135 926 -131T916 -126Q912 -124 904 -121T886 -115T869 -110T859 -107H840Q838 -107 832 -103T820
-93T808 -84T802 -78Q798 -76 786 -73T772 -69Q769 -68 761 -64T744 -55T727 -46T714 -40Q712 -39 708 -36T700 -30T691 -24T686 -21Q684 -20 679 -19T667 -16T655 -13T646 -10Q643 -10 633 -9T612 -7T591 -4T579 -2Q570 2 550 11T509 32T469 52T446 66Q442 69
430 80T406 105T382 130T368 144Q366 144 362 147T353 153T344 159T337 163Q328 170 311 184T277 212T246 237T231 249Q230 250 227 256T219 269T210 285T202 298Q199 305 192 319T178 349T164 377T157 394Q152 404 144 423T128 463T114 499T106 519V538V586Q106
589 101 596T96 605Q95 612 93 629T87 667T81 706T77 734V753ZM288 718V711Q291 709 294 698T298 685Q312 631 320 577T349 471Q378 396 415 330T503 201Q504 199 507 196T513 192Q515 190 526 187T541 182Q544 180 555 170T579 149T604 127T619 114Q620 113 626
112T641 110T657 107T667 106Q668 105 676 101T694 91T712 82T724 76Q727 75 740 74T767 71T795 68T811 66Q812 66 817 65T829 62T841 59T849 57Q849 57 853 57T862 56T872 56T880 55Q886 55 896 56T907 57Q908 57 912 59T920 65T929 72T935 76Q949 81 969 82T1003
95Q1005 97 1011 104T1026 120T1041 135T1051 144Q1053 144 1061 145T1080 148T1098 151T1110 154Q1111 155 1116 160T1128 173T1140 185T1148 192Q1152 195 1159 201T1174 214T1188 224T1196 230Q1197 231 1202 233T1214 236T1227 239T1234 240Q1237 241 1241
245T1250 254T1258 263T1264 268Q1265 270 1266 276T1268 288T1271 300T1272 308Q1274 313 1277 323T1283 336Q1284 338 1287 342T1293 351T1299 360T1302 365Q1303 368 1304 380T1307 405T1310 430T1312 445Q1312 446 1315 452T1321 467T1328 481T1331 490Q1332
493 1333 500T1336 515T1339 529T1340 538V573V656Q1342 683 1351 713T1361 772Q1360 772 1360 773V775Q1359 776 1359 778Q1359 783 1351 795T1340 810Q1339 813 1337 824T1331 848T1325 872T1321 887Q1320 888 1318 893T1312 905T1306 918T1302 926Q1301 928
1300 937T1298 958T1294 980T1291 993Q1291 995 1284 1003T1269 1020T1253 1038T1245 1050Q1234 1067 1228 1088T1215 1130T1201 1171T1177 1204Q1176 1205 1170 1207T1158 1210T1145 1213T1138 1214Q1137 1215 1133 1219T1124 1228T1115 1237T1110 1244Q1108 1245
1103 1247T1090 1253T1077 1259T1070 1263Q1068 1264 1063 1268T1051 1278T1039 1287T1032 1291Q998 1302 960 1305T888 1320Q868 1327 856 1328T830 1330H811H772Q768 1330 757 1325T743 1320H707H695Q691 1319 677 1312T646 1297T616 1281T599 1272Q567 1257
540 1240T488 1203T442 1160T397 1109Q384 1093 383 1075T378 1041Q377 1039 373 1030T363 1012T354 994T349 983Q347 979 344 964T338 930T333 897T330 877Q319 836 310 799T288 723V718Z" />
<glyph unicode="R" glyph-name="R" horiz-adv-x="1548" d="M1172 36Q1111 86 1065 149T987 282L973 318Q968 328 959 338T941 359T922 379T909 398L887 434L812 516Q810 545 785 572T725 622T654 657T593 670Q583 670 568 667T539 658T514 641T503 618L510 580Q510
566 507 560T503 545Q503 529 504 520T510 493L501 334L503 313Q504 296 504 280T504 247Q504 230 504 216T503 185Q503 176 511 164T530 147L577 116Q591 106 613 102T659 96T708 93T752 86T784 70T797 40Q797 25 786 13T759 -9T726 -23T697 -28Q681 -28 668 -25T641
-17T613 -8T582 0Q546 7 511 12T430 31Q419 31 407 28T378 24L307 31Q296 31 284 21T257 10L94 16Q84 26 84 36Q84 60 107 74T161 97T220 112T259 126Q270 142 270 162T274 197Q279 199 284 205T292 211Q301 233 303 263T306 322V365Q306 386 302 401T297 434L318
614L302 711L297 734V739Q297 742 297 749T298 765T300 781T302 792Q314 797 316 800T318 810L306 872L318 926Q318 927 320 937T323 951L318 977V1007L323 1071L306 1223V1244Q284 1271 263 1290T218 1322T167 1346T103 1365Q89 1368 89 1382Q89 1396 107 1406T150
1422T197 1431T229 1434L288 1429L351 1434L439 1415Q466 1415 492 1422T549 1429L632 1420L717 1429Q767 1429 814 1420T909 1396Q932 1388 959 1384T1008 1365L1030 1349Q1070 1325 1102 1304T1157 1256T1193 1194T1210 1105Q1212 1079 1217 1058T1222 1010Q1222
999 1220 993T1213 982T1205 972T1196 958Q1191 948 1189 935T1185 908T1180 882T1172 862Q1155 838 1132 823T1087 787Q1078 772 1059 763T1021 744T988 722T973 687Q973 676 977 671T986 662T997 654T1008 642Q1009 639 1017 627T1034 602T1052 577T1062 564Q1099
516 1128 466T1196 372Q1219 346 1241 320T1293 277Q1301 273 1307 262T1318 238T1329 211T1342 190Q1380 163 1412 142T1480 95Q1496 84 1517 76T1558 58T1591 34T1605 -3Q1605 -24 1588 -30T1549 -36H1402Q1371 -22 1341 -22T1273 -17Q1265 -16 1253 -11T1227
2T1200 18T1177 33L1172 36ZM489 810Q489 787 497 770T521 742T555 724T596 718H632Q635 734 661 745T720 765T784 780T830 792Q850 801 870 819T906 856L939 919Q954 945 963 973T973 1033Q973 1041 970 1048T962 1063T955 1079T951 1099Q957 1126 958 1132T959
1142V1152Q959 1156 950 1164T939 1176Q915 1220 884 1249T816 1296T735 1321T641 1329Q637 1329 624 1327T596 1323T569 1318T553 1313Q551 1311 548 1306T541 1294T534 1283T530 1275V1247Q530 1193 520 1142T496 1036L482 1016L503 990Q504 985 506 970T510
945V931Q508 931 506 927T503 919Q503 917 505 909T510 900L489 810Z" />
<glyph unicode="S" glyph-name="S" horiz-adv-x="1050" d="M349 10Q323 19 294 23T236 32T179 44T131 65T98 105T85 170V195L104 386Q108 394 111 398T124 403Q146 403 156 384Q194 330 222 279T284 171Q288 161 305 152T347 133T399 115T452 101T498 92T529 88H548Q564
88 566 90Q569 92 576 97T592 108T608 119T619 126Q623 130 633 134T647 138L688 149Q692 149 706 170T735 218Q753 248 773 287Q773 289 774 298T775 317T777 337T778 351V367Q778 378 778 386T776 403T772 422T765 446L763 452Q755 463 743 472T720 493Q708 510
703 519T693 534T679 545T650 559Q649 559 639 562T624 569Q610 577 597 580T571 585T543 588T514 595Q500 606 491 617T465 637Q462 637 455 638T439 642T423 645T413 647L361 701Q347 711 336 715T314 724T295 733T273 749Q264 757 260 765T252 781T247 797T239
813Q237 821 231 832T220 849Q197 876 183 895T162 934T152 975T149 1033Q149 1075 159 1120T188 1209T234 1290T297 1355Q307 1365 319 1369T345 1376T373 1378T400 1382Q413 1385 424 1391T447 1403T471 1415T498 1420Q541 1420 579 1415T656 1401Q682 1395 703
1385T752 1375Q771 1375 786 1386T817 1410T848 1435T886 1446Q905 1446 911 1428T917 1394L898 1329L906 1211V1185Q906 1158 905 1140T896 1093Q894 1088 890 1084T882 1080Q882 1078 875 1078Q870 1078 860 1091T835 1124T804 1168T772 1214T742 1255T716 1280Q696
1293 672 1301T622 1314T570 1321T522 1323Q489 1323 465 1317T423 1298T391 1265T365 1216Q355 1194 349 1181T338 1157T331 1134T329 1100Q329 1047 347 1008T395 941T465 894T550 862L560 855Q584 840 602 830T638 811T673 794T716 775L832 701Q834 700 836
698T842 693Q846 690 849 687L867 637Q871 630 874 622T882 609Q885 607 892 599T906 582T919 564T925 552Q928 546 932 535T941 511T949 488T953 472V325Q953 324 949 312T939 292Q936 291 934 287Q933 285 932 282Q931 279 928 269T920 247T912 225T906 213Q903
204 896 194T879 175T862 159T849 149Q840 137 839 123T827 102Q788 88 763 71T716 38T668 11T605 0H593Q566 2 558 2T545 3L349 10Z" />
<glyph unicode="T" glyph-name="T" horiz-adv-x="1491" d="M352 43Q352 71 369 85T412 100L478 92Q503 92 528 102T576 128T615 167T637 213V266Q642 310 651 349T660 431L646 474V704Q644 716 644 727T643 754V936Q647 947 648 962T649 996Q649 1015 648 1028T646
1054L653 1064V1180Q645 1197 642 1210T634 1233T620 1248T589 1253L534 1239Q508 1239 483 1247T428 1266Q379 1263 346 1260T286 1249T233 1231T172 1201Q159 1184 148 1160T125 1114T96 1075T58 1059Q52 1059 44 1059T30 1060T18 1065T13 1073Q13 1090 15 1102T22
1126T29 1148T35 1175V1239L51 1277Q54 1284 56 1298T61 1329T67 1361T73 1387Q76 1402 80 1418T91 1447T108 1470T136 1479Q155 1479 177 1464T221 1430T265 1392T305 1368Q314 1366 336 1363T384 1355T432 1349T463 1346Q478 1346 490 1348T513 1354T536 1360T566
1363H591Q613 1363 617 1362Q621 1360 632 1354T646 1346H651Q668 1346 683 1349T715 1357T747 1364T781 1368Q802 1368 820 1362T854 1356H885Q926 1356 965 1358T1046 1364T1131 1370T1224 1374Q1238 1374 1248 1371T1269 1367Q1282 1367 1290 1373T1306 1388T1319
1405T1335 1419Q1348 1424 1359 1431T1381 1446T1402 1459T1426 1464Q1437 1464 1445 1452T1461 1431Q1461 1429 1462 1428Q1462 1427 1463 1427Q1461 1421 1461 1412T1461 1391V1292Q1461 1279 1461 1271T1463 1258L1471 1150Q1471 1147 1471 1139T1470 1123T1469
1107T1468 1097Q1461 1085 1442 1085Q1424 1085 1410 1098T1384 1130T1360 1165T1335 1192Q1315 1208 1297 1219T1262 1251L1226 1247L990 1266L956 1258L906 1266H888L873 1251Q873 1252 872 1241T870 1214T867 1182T866 1156L873 1052V853L859 778L873 656Q873
645 872 639T866 621Q866 609 866 582T867 521Q867 489 867 464T866 427L859 377Q859 365 860 344T863 296T869 243T880 192T896 153T919 133L1049 100H1072L1099 106Q1111 106 1119 100T1133 83T1141 63T1144 43Q1144 26 1137 17T1119 2T1095 -4T1068 -5Q1057
-5 1048 -2T1028 9Q1019 14 1007 18T983 22L933 9Q913 9 885 16T828 28Q827 28 819 27T801 23T783 19T772 17H682Q659 16 641 8T601 0Q594 2 581 5T566 9Q552 9 541 6T515 -2Q496 -6 479 -10T440 -14H425Q411 -14 399 -12T369 -5Q369 -3 364 14T352 43Z" />
<glyph unicode="U" glyph-name="U" horiz-adv-x="1734" d="M396 227Q376 279 357 332T318 434Q318 436 317 439T313 445Q310 449 308 453V550L299 569V642Q296 649 291 655T279 667T269 680T264 699Q263 710 263 720T263 739Q263 750 263 757T264 773V912L259
988L264 1007L259 1052V1071L264 1140Q262 1145 261 1149Q259 1159 259 1163Q257 1167 253 1177T242 1201T227 1226T211 1246Q203 1252 190 1258T160 1272T126 1291T93 1317Q84 1327 74 1333T56 1345T42 1355T36 1368Q36 1382 45 1392T67 1408T97 1416T126 1419L159
1429L211 1424H230Q262 1424 291 1420T340 1410L396 1412Q407 1412 420 1413T448 1417Q462 1419 474 1422T498 1426Q519 1426 534 1422T562 1417Q587 1417 609 1423T661 1429L706 1426Q712 1423 722 1418T741 1408T757 1398T764 1386V1342Q764 1333 745 1323T701
1305T653 1289T621 1278Q598 1264 569 1244T519 1199V1099L510 1019Q510 1015 511 1009T513 991Q513 973 503 960V832L510 806Q510 804 512 789T518 754T523 713T526 678Q523 673 521 667T519 647Q519 643 521 640T534 633V574Q534 561 534 551T536 529L552 481L609
365Q621 345 632 325T656 285T683 249T718 220L764 209L789 183Q818 163 853 160T925 157Q944 157 958 157T985 158T1014 163T1052 171Q1059 171 1064 174T1075 181T1085 189T1100 195Q1126 200 1141 206T1167 222T1192 243T1226 273L1252 285Q1253 285 1258 298T1271
331T1287 375T1304 422T1318 462T1328 486Q1334 498 1339 521T1348 571T1357 624T1365 671Q1365 689 1362 714T1359 761L1354 784L1375 822Q1375 826 1370 837T1359 853V919L1373 1033L1361 1128Q1361 1132 1360 1140T1359 1163Q1357 1167 1349 1180T1333 1208L1311
1246Q1308 1248 1300 1252T1284 1261T1268 1269T1257 1273Q1248 1277 1237 1282T1213 1293T1190 1303T1169 1310Q1161 1313 1145 1315T1113 1321T1084 1332T1072 1353V1368L1105 1375L1141 1394Q1159 1398 1177 1399T1215 1401T1252 1405T1285 1417H1328Q1363 1417
1394 1415T1465 1412H1522Q1560 1432 1602 1441T1690 1450Q1694 1450 1702 1448T1720 1442T1735 1432T1742 1417V1358L1733 1353Q1715 1342 1695 1340T1654 1336Q1631 1333 1609 1327T1562 1317Q1532 1295 1519 1264T1499 1198T1487 1129T1470 1066V832L1456 794V671Q1452
663 1452 656T1451 635Q1451 623 1453 616T1456 593L1443 557Q1438 537 1431 519T1420 479L1399 394Q1391 368 1381 346T1358 301Q1353 290 1346 283T1332 268T1318 253T1308 234Q1295 204 1254 173Q1234 156 1212 138T1169 104Q1161 100 1154 94T1139 81T1123
69T1105 62H1072L1026 40Q1014 36 999 36T968 35H925L859 29L808 35L731 29Q730 31 722 34T702 42Q689 48 674 53T645 62L614 69Q589 77 569 81T546 88Q539 92 534 99T525 114T515 129T501 140Q470 154 443 174T396 227Z" />
<glyph unicode="V" glyph-name="V" horiz-adv-x="1339" d="M376 697L375 704Q361 741 348 771T325 839Q322 851 315 860T301 879T288 898T280 919Q269 970 257 1017T226 1112L202 1163L188 1213Q177 1232 161 1246T127 1272T95 1297T72 1323Q61 1323 48 1324T22
1331T1 1344T-8 1367Q-8 1382 1 1390T22 1398L81 1391Q86 1391 91 1396T105 1401Q113 1401 119 1408H188L302 1398Q336 1398 364 1406T425 1419Q445 1420 459 1421T485 1422Q497 1422 512 1424T546 1431Q549 1431 563 1430T592 1424T619 1413T631 1394L626 1339Q626
1333 618 1327T598 1314T575 1305T558 1301L525 1308Q505 1308 493 1307T459 1301Q450 1297 444 1289T437 1270Q437 1247 446 1227T459 1185L465 1104Q467 1087 472 1071T485 1038T499 1006T510 974V924Q510 920 518 910T529 896Q540 876 547 851T560 798T572 745T588
697Q598 670 614 640T638 583L643 526Q649 516 655 497T669 460T685 427T705 413Q722 413 732 422T754 443L762 453Q767 464 767 472Q766 483 766 490T766 502Q766 509 767 510L800 564Q805 577 811 595T824 632T837 670T849 706Q855 719 860 737T871 775T885 811T904
839Q901 841 901 853V901Q901 906 901 910T904 919Q904 921 905 928T909 943T915 960T920 974L932 998V1047Q937 1051 945 1058T953 1071Q970 1113 981 1167T992 1272V1291Q983 1305 972 1317T940 1334Q925 1337 901 1337Q885 1337 868 1338T837 1345T814 1361T805
1391Q805 1406 810 1415T826 1430T849 1437T876 1439L1053 1417Q1097 1417 1141 1438Q1164 1444 1184 1450T1222 1457Q1248 1445 1271 1442T1321 1438H1342Q1348 1438 1353 1438T1366 1439Q1371 1437 1375 1434Q1379 1432 1382 1430T1385 1426Q1389 1418 1391 1409T1394
1391Q1394 1369 1385 1355Q1381 1344 1371 1335T1356 1323H1299L1274 1329Q1270 1329 1263 1328T1246 1324T1229 1321T1216 1318Q1193 1299 1178 1275T1152 1225T1135 1171T1124 1116Q1124 1109 1119 1104L1089 1062Q1079 1052 1079 1035Q1079 1028 1079 1021T1077
1005Q1074 998 1069 994T1058 985T1047 977T1039 967L1041 931Q1041 905 1036 882T1011 846L989 759Q968 739 951 708T920 647Q915 635 914 624T912 601T906 579T889 555Q889 536 885 519T874 486T858 452T840 415Q831 393 822 366T802 318L786 296Q778 288 776
280Q776 274 777 266T778 249Q778 236 777 229T776 218Q776 215 774 209T770 195T765 183T762 175L754 159Q751 150 747 129T738 84T727 39T717 10Q706 -25 687 -41T631 -57Q621 -57 613 -48T599 -25T588 1T581 21Q578 28 573 51T562 101T551 153T541 190Q530 240
515 284T491 377Q489 387 482 393T466 404T450 417T439 436L425 526Q423 531 419 543T411 569T404 593T401 607Q396 628 385 646T373 685L376 697Z" />
<glyph unicode="W" glyph-name="W" horiz-adv-x="1953" d="M926 1009L876 1150L855 1189Q844 1218 840 1247T824 1304Q818 1316 801 1319T764 1326T729 1337T714 1365Q714 1386 726 1393T755 1401Q776 1401 795 1400T835 1394Q849 1392 864 1391T897 1389H928Q954
1389 959 1391Q976 1398 993 1399T1028 1401H1049Q1075 1397 1086 1397T1101 1396Q1147 1407 1179 1413T1246 1420Q1249 1420 1257 1419T1274 1416T1288 1410T1295 1401Q1301 1392 1305 1383T1310 1365Q1310 1357 1306 1348T1295 1330Q1288 1325 1280 1320T1267
1315L1226 1327Q1205 1327 1182 1321T1138 1303T1105 1273T1092 1228V1213Q1097 1193 1100 1176T1105 1144T1108 1111T1111 1074L1113 1055Q1113 1044 1119 1028T1132 995T1148 963T1160 938Q1168 913 1174 886T1187 832T1201 777T1219 725Q1219 695 1219 673T1224
640Q1224 638 1227 633T1235 622T1242 611T1246 604Q1246 602 1249 593T1256 574T1263 555T1267 545Q1269 538 1271 525T1277 498T1287 474T1305 464Q1330 464 1344 475T1366 504T1381 539T1395 571L1421 604Q1423 606 1424 612T1426 625T1427 639T1428 649Q1430
653 1438 659T1449 668Q1455 676 1458 694T1467 735T1480 779T1501 815Q1505 819 1509 826T1513 836Q1514 840 1517 852T1523 877T1528 902T1530 917L1542 931Q1543 931 1548 942T1559 968T1572 1000T1582 1028Q1594 1053 1613 1075T1641 1124L1653 1197Q1662 1217
1666 1225T1670 1244Q1670 1255 1669 1259T1667 1268Q1663 1286 1650 1291T1634 1297L1585 1310Q1570 1310 1559 1310T1536 1310T1512 1312T1483 1315Q1478 1323 1472 1335T1466 1358Q1466 1370 1477 1381T1503 1400T1533 1414T1556 1420Q1594 1420 1638 1417T1720
1396L1807 1415Q1818 1415 1828 1406T1847 1396Q1851 1396 1856 1400T1866 1406Q1895 1420 1928 1431T1994 1443Q2005 1443 2012 1436T2020 1415Q2020 1407 2017 1397T2007 1376T1992 1360T1975 1353Q1964 1350 1954 1343T1935 1328T1917 1316T1897 1310Q1893 1310
1890 1310T1885 1311Q1884 1311 1878 1309T1862 1302T1844 1291T1829 1277Q1812 1254 1802 1241T1784 1208Q1758 1158 1738 1111T1691 1009Q1678 983 1674 955T1660 900Q1651 874 1632 848T1601 794Q1593 777 1587 761T1574 729T1560 697T1542 661Q1533 640 1518
617T1495 571Q1486 549 1481 526T1471 479T1460 433T1444 391Q1442 388 1435 379T1418 358T1402 338T1395 327L1390 268Q1381 250 1367 240T1343 209Q1339 193 1337 169T1333 119T1325 71T1310 36Q1306 30 1298 22T1282 5T1268 -8T1260 -14Q1256 -18 1250 -19T1238
-21Q1219 -21 1201 -14Q1191 -12 1183 3T1167 39T1154 86T1143 133T1135 173T1130 197L1124 289Q1124 292 1121 303T1113 327T1105 351T1101 363Q1090 402 1087 439T1077 512Q1077 516 1072 522T1060 535Q1055 544 1047 556T1035 571Q1035 573 1033 586T1028 604Q1028
605 1027 613T1023 623H1008Q991 623 978 608T955 573T935 533T918 502Q916 499 910 494T898 481T885 465T876 448L869 396Q869 394 866 389T858 377T851 366T847 358Q843 341 841 323T828 289Q826 283 823 281T817 277T810 272T805 261Q804 254 801 242T794 218T787
196T784 183V128Q784 126 784 123T783 118Q778 100 770 72T750 18T722 -26T684 -45Q671 -45 655 -34T624 -6T596 29T579 61Q571 81 567 102T561 144T555 187T547 230Q544 242 538 252T524 272T511 292T502 313Q494 342 484 368T462 420T438 471T414 526Q414 531
413 537T411 545V597Q409 606 404 617T391 639T377 662T366 682Q366 683 364 689T359 699Q351 731 342 761T322 821T304 881T290 945Q279 955 274 967T265 993T259 1021T252 1048Q238 1081 226 1113T199 1175T166 1233T122 1289Q111 1297 96 1299T68 1304T44 1313T34
1337L32 1363Q32 1372 42 1382Q50 1388 63 1391T90 1397T118 1400T143 1401Q149 1400 157 1398T167 1396H169Q209 1396 252 1403T335 1415L414 1406L475 1415L584 1401Q604 1395 607 1381T611 1349V1330L599 1315H502Q489 1307 477 1301T454 1287T438 1267T432
1235Q432 1226 436 1219T445 1205T455 1191T463 1176Q469 1153 472 1132T478 1088T486 1043T502 996Q504 990 512 974T528 941T544 908T551 886L565 778L611 713Q612 711 613 705T615 691T617 677T618 668Q623 634 632 599T656 533L675 497Q677 493 681 485T691
468T700 452T707 443Q712 436 715 425T721 403T730 385T746 377Q757 377 767 383T791 410Q793 414 801 423T818 444T836 466T847 481Q847 500 852 513T865 538T881 562T895 590L935 713Q939 728 945 743T956 773T966 804T970 839Q970 861 963 881T948 920T933 960T926
1003V1009Z" />
<glyph unicode="X" glyph-name="X" horiz-adv-x="1657" d="M36 29Q36 53 51 68T90 94T145 110T206 120T263 130T308 142Q325 149 348 166T394 206T437 250T467 291Q467 291 468 296T470 306T472 316T474 322Q480 340 490 353T513 378T539 400T566 424Q575 434
581 449T594 478T610 505T635 521Q640 521 645 527T655 535L668 557Q673 567 686 581T714 607T746 630T773 644Q778 645 778 656Q778 667 769 683T745 716T715 749T687 777Q661 804 661 811Q660 813 659 819T655 831T651 843T649 849Q647 852 641 857T627 867T614
876T607 882L566 951L533 977Q516 993 507 1013T481 1050L424 1105Q421 1127 417 1137T406 1152T391 1162T372 1178L356 1209Q333 1235 310 1252T249 1270H100Q89 1270 82 1276T71 1290T64 1309T62 1327Q62 1351 73 1365T102 1385T140 1394T180 1396Q195 1396 203
1395T223 1382H372Q383 1377 391 1376T415 1375L521 1382Q529 1382 550 1381T599 1379T657 1375T713 1371T754 1365T771 1358Q773 1351 775 1347T777 1339Q777 1334 775 1326T771 1313Q767 1299 748 1292T706 1277T665 1257T647 1220Q647 1199 655 1181T674 1145T699
1113T725 1081Q726 1081 728 1075T730 1067Q746 1027 771 994T820 929Q820 922 823 918Q825 915 827 913Q827 909 828 897T834 882Q838 877 847 872T868 862T889 852T905 843L918 837Q932 842 950 864T987 918T1027 988T1065 1062T1099 1129T1124 1178Q1132 1194
1142 1202T1152 1228Q1152 1232 1149 1243T1141 1267T1132 1289T1124 1299Q1110 1297 1100 1293T1076 1289Q1063 1289 1049 1293T1019 1299Q1011 1304 1005 1307T993 1315T985 1326T982 1344Q982 1355 984 1366T1001 1377Q1027 1381 1063 1384T1145 1387Q1195 1387
1252 1384T1372 1377Q1415 1381 1457 1386T1538 1391Q1560 1391 1572 1383T1584 1348Q1584 1334 1574 1325T1547 1311T1511 1302T1473 1296T1441 1290T1420 1280L1367 1228L1332 1211Q1320 1202 1306 1187T1279 1154T1255 1120T1238 1090Q1238 1086 1237 1075T1232
1062Q1230 1060 1222 1059T1213 1057Q1197 1046 1178 1026T1143 993Q1132 977 1131 959T1119 929L1072 882Q1052 856 1038 834T998 785Q981 767 981 753Q981 727 999 697T1041 638T1085 586T1109 552L1150 477Q1161 457 1181 440T1213 408Q1230 381 1240 355T1266
303Q1270 294 1283 287T1302 275Q1338 235 1360 213T1393 180T1408 165T1413 159L1463 116Q1484 105 1506 100T1550 89T1595 77T1638 59V36Q1638 23 1633 16T1618 6T1598 1T1574 0H1548Q1537 0 1524 3T1496 10T1466 17T1437 21Q1424 21 1411 18T1382 14L1332 26L1271
21H1251Q1241 21 1236 21T1226 26H1176L984 14H965Q957 14 948 15T931 19T918 26T912 36Q912 44 925 54T957 75T998 98T1040 123T1072 149T1085 176Q1085 181 1083 188T1078 201Q1075 208 1072 216Q1072 219 1066 225T1053 237T1040 249T1031 258Q1025 268 1022
279T1017 302T1011 323T1001 341Q999 342 994 346T983 355T973 365T967 372V400Q960 419 948 436T922 469T896 503T875 541Q872 546 865 561T850 591T833 619T820 631Q783 593 758 548T706 458Q669 400 639 346T590 234Q588 232 587 226T585 216Q583 216 578 209T571
201Q571 180 581 167T606 144T639 126T672 109T697 89T707 59Q707 41 691 33T661 21Q659 19 650 17T628 12T603 7T585 5H581Q546 5 512 15T444 26L325 0Q320 1 316 2Q312 3 308 4T301 5Q283 5 261 0T216 -13T173 -25T140 -31Q124 -29 106 -24T83 -19Q70 -14 61
-11T47 -4T39 7T36 29Z" />
<glyph unicode="Y" glyph-name="Y" horiz-adv-x="1392" d="M305 76Q305 89 317 98T347 112T381 120T407 123L447 118Q458 124 474 126T506 132T534 144T549 170V197L568 215Q568 225 565 230T557 239V334L568 443V484Q568 548 556 604Q542 655 498 704Q498 713
494 722T485 742T476 763T471 782V825L459 841Q448 849 436 862T413 889T392 919T376 948Q374 948 372 958T370 972Q365 994 353 1021T324 1075T291 1129T258 1175Q251 1186 249 1198T245 1223T238 1248T220 1270Q204 1280 176 1288T121 1307T74 1334T54 1375Q54
1386 62 1396T81 1414T105 1426T128 1431Q146 1431 166 1426T208 1419H277Q325 1414 371 1404T464 1393L556 1413Q567 1413 581 1411T609 1404T632 1389T642 1367Q642 1349 630 1337T601 1315T563 1297T525 1277T495 1251T483 1214Q483 1208 488 1188T503 1140T523
1082T545 1025T566 979T582 957Q585 948 593 929T612 890T631 851T646 825Q647 820 656 804T676 769T697 737T713 723Q723 723 738 734T770 760T800 792T820 818Q822 822 823 833T825 846Q825 848 827 852T831 856Q833 860 841 870T860 890T879 910T891 924Q894
949 906 971T932 1014T961 1056T983 1100Q994 1123 1000 1141T1012 1180L1026 1211Q1026 1220 1020 1233T1004 1259T986 1282T972 1297H967Q961 1297 953 1297T936 1296Q921 1296 906 1297T880 1304T861 1319T853 1344Q853 1360 861 1377T886 1394Q888 1394 893
1391T900 1386H902Q920 1386 934 1390T962 1394L1120 1386Q1156 1386 1185 1387T1249 1394Q1251 1394 1259 1395T1276 1399T1296 1402T1312 1405Q1321 1405 1325 1403T1341 1394L1410 1386Q1418 1385 1428 1383T1447 1377T1462 1365T1469 1346Q1469 1342 1463 1335T1455
1323Q1451 1319 1442 1314T1423 1305T1403 1296T1388 1291Q1374 1277 1358 1269T1318 1259Q1287 1254 1266 1245T1223 1218Q1214 1210 1209 1204T1203 1192L1135 1123Q1132 1110 1127 1105T1115 1096T1102 1090T1090 1078Q1084 1069 1081 1058T1074 1036T1068 1014T1057
995L983 915Q979 910 977 901T974 877Q974 866 974 857T972 846Q968 830 952 816T915 787T877 757T853 723L836 671Q827 656 820 648T807 632T798 613T794 581L810 467L794 330Q794 312 794 291T796 249T801 207T810 170Q818 163 828 162T843 159L863 137Q867 133
886 129T931 120T986 110T1040 100T1081 89T1097 78Q1100 73 1101 67T1102 54Q1102 47 1101 42T1097 28Q1097 27 1093 25T1084 21T1074 15T1066 9Q1062 9 1056 6T1049 0H1004Q949 0 897 1T794 14Q749 22 712 27T644 33Q613 33 584 27T526 14T469 1T410 -5H386Q365
-5 345 -2T313 17Q307 26 306 43T305 76Z" />
<glyph unicode="Z" glyph-name="Z" horiz-adv-x="1437" d="M100 16Q100 18 100 23T99 33T99 42T98 48V62Q98 74 100 82T109 102Q113 106 127 123T158 159T189 196T205 218Q215 231 227 247T250 281T269 317T282 353Q288 357 300 369T327 395T352 421T368 439Q389
462 402 487T436 535Q438 538 448 548T470 569T492 589T503 602Q504 604 505 610T509 622T512 634T515 642Q516 643 520 647T528 656T538 665T545 670Q546 673 554 685T572 712T590 740T602 756Q603 759 607 765T615 777T624 789T631 796Q633 800 640 806T650 815Q651
816 655 817T665 820T674 822T678 823Q679 825 680 831T683 844T685 856T688 863Q689 864 693 868T702 877T711 886T718 891Q718 893 719 899T722 911T725 923T726 931L730 935Q732 937 733 937T737 939Q737 940 741 943T749 949T758 955T764 958Q771 963 773 966T776
974T778 983T785 996Q790 1009 798 1024T817 1052T841 1074T872 1085Q874 1090 880 1103T894 1132T908 1161T918 1180Q926 1194 927 1202T929 1225Q929 1237 923 1244T906 1256T884 1262T861 1266H852Q838 1266 827 1261T804 1256Q799 1256 797 1257Q795 1257 794
1258Q791 1258 784 1262T775 1266Q773 1266 767 1265T755 1262T744 1259T737 1258Q731 1257 711 1256T668 1254T626 1250T602 1247Q600 1247 594 1246T582 1244T571 1241T564 1240Q559 1240 548 1243T534 1247H380Q377 1247 370 1244T353 1236T336 1226T323 1218Q318
1216 304 1203T273 1173T240 1138T214 1112Q205 1101 194 1076T168 1026T137 983T100 969Q92 971 87 978T78 994T73 1012T71 1026Q71 1043 77 1058T91 1089T107 1120T119 1150Q119 1153 120 1160T123 1175T126 1190T128 1199Q129 1202 133 1210T143 1229T152 1247T157
1258Q163 1277 164 1293T166 1322T174 1348T195 1372Q198 1373 203 1373T216 1374T228 1375T237 1375Q268 1375 301 1367T361 1334H410Q442 1334 474 1340T539 1346Q553 1346 566 1340T593 1334H602Q603 1335 609 1338T624 1344T640 1350T650 1353Q651 1353 656
1352T668 1350T680 1347T688 1346H699Q714 1346 728 1349T759 1353H775Q820 1345 864 1340T958 1334H967Q968 1334 972 1336T982 1340T991 1344T996 1346Q1003 1346 1030 1345T1084 1344Q1098 1344 1107 1344T1121 1346Q1134 1347 1147 1352T1173 1364T1200 1376T1226
1382H1237Q1241 1382 1247 1381T1260 1378T1270 1375T1275 1372Q1276 1371 1279 1364T1287 1348T1296 1330T1304 1315V1308Q1304 1294 1296 1281T1277 1256T1255 1235T1237 1218Q1190 1167 1156 1111T1083 996Q1053 953 1015 915T948 834Q945 832 942 819T939 804Q937
804 934 800T929 796Q927 795 923 793T914 787T905 781T899 777Q893 772 884 763T866 744T850 728T842 718Q840 716 836 705T827 681T818 657T813 642Q806 624 791 606T764 574Q758 566 741 545T703 499T665 452T640 420L631 401Q630 399 612 377T569 324T519 261T477
208Q469 198 462 192T449 178T440 162T436 140Q436 132 443 127T461 119T481 115T496 112Q497 112 504 111T519 108T535 105T545 102Q545 102 550 100T562 94T575 87T583 83H586H591Q628 94 663 106T737 121Q743 121 754 121T780 122T812 122T847 123Q882 123 913
122T958 121Q960 124 966 127T977 131Q979 131 986 127T996 121H1000H1006Q1007 122 1011 125T1019 131T1028 137T1034 140Q1036 142 1043 137T1053 131H1058H1064Q1066 134 1072 141T1086 156T1101 170T1112 180Q1117 182 1121 184Q1124 186 1127 187T1131 189Q1132
190 1134 196T1140 208T1146 220T1150 227Q1151 228 1153 232T1159 242T1165 251T1169 256Q1171 260 1179 277T1197 314T1215 351T1226 372Q1229 378 1244 391T1278 417T1313 440T1337 450Q1351 450 1360 441T1374 418T1380 391T1382 368Q1382 366 1382 361T1380
353Q1376 345 1367 325T1347 281T1327 237T1314 208Q1299 172 1290 139T1267 80T1227 37T1150 16H1133H1109Q1099 16 1091 15T1072 7H486Q480 5 466 4T437 1T409 -2T391 -3Q388 -3 378 -2T356 1T335 4T323 7H311H301Q299 5 288 1T275 -3H205H138Q133 -3 119 1T100
16Z" />
<glyph unicode="[" glyph-name="bracketleft" horiz-adv-x="858" d="M846 1436Q859 1433 862 1425T865 1405V1391Q865 1369 864 1352T853 1311Q852 1306 847 1303T836 1297T825 1294T817 1292Q782 1286 751 1284T687 1282H635Q622 1273 607 1273H597Q574 1273
554 1278T514 1284Q509 1284 500 1284T488 1282Q479 1282 466 1281T439 1278T414 1275T401 1273Q399 1273 394 1268T382 1257T371 1245T363 1235Q357 1222 355 1197T353 1149V1126Q353 1079 355 1024T363 927Q363 924 366 917T372 902T379 887T382 879V863Q382
852 380 845T363 830V763Q363 761 362 756T358 744T355 732T353 725Q353 722 353 715T354 698T354 677T355 656Q355 645 355 638T353 628Q353 626 351 621T345 609T338 597T334 590V585V580Q334 579 335 574T339 561T342 548T344 541V500V484Q344 482 345 476T348
464T351 452T353 445V436V426Q353 424 352 419T349 407T346 395T344 388V382V379Q344 375 345 362T348 335T351 308T353 291Q353 289 353 276T354 246T355 212T356 185Q356 179 356 164T355 133T354 101T353 80Q351 75 348 61T344 42Q344 37 344 23T343 -7Q343
-23 343 -36T344 -55Q339 -60 332 -69T325 -83Q325 -87 329 -99T334 -112Q339 -137 339 -162T353 -211Q355 -213 359 -218T369 -229T378 -240T382 -247Q383 -250 386 -258T393 -277T398 -295T401 -304Q406 -311 416 -318T431 -327Q438 -327 455 -328T493 -331T530
-334T555 -336H571H586Q588 -336 599 -335T624 -332T648 -329T661 -327Q663 -325 668 -325T680 -325Q694 -325 710 -326T728 -327Q732 -325 743 -321T759 -317H782H808Q810 -317 821 -321T834 -327Q836 -327 845 -326T863 -325Q867 -325 870 -325T875 -327Q893
-329 904 -339T921 -364T929 -396T932 -427V-433Q918 -450 901 -459T865 -473T826 -479T784 -481Q740 -481 697 -478T611 -470T525 -462T439 -458H372Q371 -458 366 -460T355 -464T342 -469T334 -471Q314 -471 290 -466T246 -449T213 -421T199 -379Q199 -327 204
-275T209 -170Q209 -124 201 -79T190 12V40V109Q190 113 189 131T186 171T183 210T180 234V237V244Q181 253 182 273T184 319T186 373T187 427T189 473T190 503Q193 506 196 517T199 533V536V541Q197 544 191 555T180 571V879Q182 881 186 891T190 907Q190 910
189 921T185 945T182 969T180 984V1157Q180 1158 179 1164T176 1177T173 1189T171 1195Q171 1196 171 1207T170 1232T170 1260T170 1282Q170 1288 170 1300T170 1326T170 1351T171 1368Q185 1386 200 1394T232 1404T267 1407T304 1408Q307 1408 317 1409T339 1412T360
1415T372 1417H401H481Q483 1417 494 1422T507 1427Q513 1428 532 1429T574 1432T620 1435T654 1436H671H721Q723 1438 734 1442T747 1446H759H766Q771 1446 782 1445T806 1442T829 1439T846 1436Z" />
<glyph unicode="\" glyph-name="backslash" horiz-adv-x="588" d="M552 -445Q549 -428 545 -421T537 -410T528 -399T517 -377V-348Q515 -334 510 -326T497 -310T483 -297T469 -279Q464 -274 461 -264T457 -243T455 -221T455 -201V-176Q448 -171 442 -160T436 -138L417
-102Q413 -98 407 -88T400 -69Q400 -64 403 -58T407 -50Q407 -31 403 -19T394 3T382 20T370 35Q367 46 365 64T361 102T355 138T344 163Q344 163 338 168T323 180T309 193T301 202L294 242Q294 244 291 248T283 255T275 262T270 266Q259 277 259 298L261 341Q261
357 259 369T251 393Q244 402 232 416T208 447T186 477T173 500Q169 518 169 536T152 574Q143 588 140 596T134 612T129 629T116 654V682L76 798Q71 803 66 810T57 829Q57 849 57 858T59 875Q21 922 9 984V1017Q9 1028 8 1034T-3 1045Q-11 1056 -23 1072T-49 1106T-74
1141T-92 1171Q-92 1201 -92 1210T-97 1228Q-107 1241 -115 1250T-130 1269T-141 1289T-145 1317V1370Q-147 1371 -150 1376T-156 1386T-161 1397T-163 1403V1467Q-149 1474 -129 1482T-93 1490Q-62 1490 -42 1476T-3 1439Q0 1439 7 1418T21 1369T34 1316T40 1284Q51
1255 67 1228T95 1171Q113 1115 131 1057T173 945Q180 927 189 915T207 892T222 868T228 836L230 815Q230 813 234 805T240 794Q252 782 259 761T272 717T283 670T294 631Q297 615 304 601T320 572T335 544T346 512Q346 508 347 501T353 479Q364 439 379 396T415
318Q418 321 427 302T449 252T477 183T506 108T533 41T555 -3Q559 -14 562 -22T566 -47Q566 -61 566 -68T569 -81Q570 -82 575 -86T586 -96T598 -107T604 -114Q604 -116 605 -123T607 -140T608 -157T609 -170Q613 -184 622 -194T637 -213V-232Q640 -252 649 -270T667
-308T684 -346T692 -386Q692 -389 684 -401T666 -428T645 -453T628 -464L552 -445Z" />
<glyph unicode="]" glyph-name="bracketright" horiz-adv-x="905" d="M71 -471Q57 -468 55 -459T52 -439V-426Q52 -403 53 -386T64 -346Q64 -342 69 -338T80 -332T92 -329T100 -327Q135 -320 166 -319T230 -317H282Q295 -308 309 -308H320Q342 -308 362 -313T403
-318Q408 -318 417 -318T429 -317Q437 -317 451 -316T478 -313T502 -310T515 -308Q517 -307 522 -303T534 -292T545 -280T553 -270Q560 -257 562 -232T564 -183V-161Q564 -114 561 -59T553 38Q553 41 551 48T545 63T538 78T534 86V102Q534 114 536 121T553 135V202Q553
204 554 210T558 222T562 233T564 240Q564 243 564 250T563 268T563 289T562 310Q562 321 562 328T564 337Q564 339 566 345T572 357T578 368T583 375V381V386Q583 387 582 392T578 404T574 416T572 424V465V481Q572 483 571 489T568 501T565 513T564 521V529V540Q564
541 565 546T567 558T570 570T572 578V583V586Q572 590 571 603T568 630T565 658T564 675Q564 677 564 690T562 719T561 753T560 780Q560 786 560 801T562 833T563 865T564 886Q565 890 568 905T572 924Q572 929 573 942T574 972Q574 988 573 1002T572 1021Q577
1025 584 1034T591 1048Q591 1053 587 1064T583 1078Q578 1103 578 1128T564 1176Q562 1177 557 1182T548 1194T539 1206T534 1213Q533 1216 530 1224T524 1242T519 1260T515 1270Q511 1276 501 1283T486 1292Q479 1292 461 1293T424 1296T386 1299T361 1301H346H330Q328
1301 317 1300T293 1297T269 1294T256 1292Q254 1291 249 1291T237 1291Q223 1291 207 1291T188 1292Q184 1290 173 1286T157 1282H135H109Q107 1282 96 1286T83 1292Q80 1292 71 1292T53 1291Q43 1291 41 1292Q23 1294 12 1304T-5 1330T-13 1362T-16 1393V1398Q-3
1415 14 1424T51 1439T91 1445T133 1446Q176 1446 219 1443T306 1435T391 1428T477 1424H545Q545 1424 550 1426T562 1430T575 1434T583 1436Q603 1436 626 1431T670 1414T704 1386T718 1344Q718 1292 713 1241T707 1135Q707 1089 715 1044T726 953V926V856Q727
851 728 834T730 795T733 756T737 732V728V721Q736 711 735 691T733 646T731 592T729 539T727 493T726 462Q724 459 721 448T718 432V429V424Q719 421 725 410T737 394V86Q734 84 730 74T726 59Q726 56 727 45T731 20T735 -4T737 -19V-192Q737 -193 738 -199T740
-211T743 -223T745 -230Q746 -232 746 -242T747 -267T747 -295T747 -317Q747 -323 747 -335T747 -361T747 -387T745 -403Q731 -421 716 -428T684 -439T649 -442T612 -443Q609 -443 599 -444T577 -447T557 -450T545 -452H515H436Q435 -452 431 -453T423 -457T414
-460T410 -462Q404 -463 385 -464T342 -467T297 -470T263 -471H245H195Q193 -472 182 -476T169 -481H157H150Q145 -480 134 -479T110 -476T87 -473T71 -471Z" />
<glyph unicode="^" glyph-name="asciicircum" horiz-adv-x="964" d="M473 988H468Q454 981 443 966T423 934T407 900T392 870Q390 869 386 864T376 852T367 840T362 832Q354 817 350 799T339 764T323 736T290 725Q280 725 267 732T257 754Q260 772 268 787T287
818T308 849T324 882Q332 906 338 933T351 989T368 1043T392 1093Q396 1100 406 1114T426 1144T446 1173T459 1190Q462 1194 473 1204T489 1218Q490 1218 492 1219Q494 1219 494 1219T497 1220Q499 1220 502 1219T508 1218Q536 1211 551 1205T584 1180Q585 1177
588 1170T594 1161Q611 1100 624 1040T651 919Q654 902 662 882T670 841V832Q670 831 669 826T666 814T663 802T662 796V789Q662 775 666 761T670 732Q670 712 664 696T643 668Q640 671 633 676T617 688T603 699T594 706Q592 708 589 715T584 727Q582 729 579 736T573
751T568 765T565 773Q563 775 560 781T554 793T549 806T546 813Q544 816 541 830T535 861T530 891T527 908Q524 917 520 928T509 950T495 971T478 988H473Z" />
<glyph unicode="_" glyph-name="underscore" horiz-adv-x="966" d="M20 -206V-161Q20 -148 21 -129T28 -91T47 -58T84 -42H151Q177 -37 201 -30T257 -22L330 -35Q350 -35 360 -32T387 -28Q409 -28 431 -32T474 -40T517 -48T560 -52L707 -33L762 -42Q773 -42 779
-39T797 -31Q808 -27 814 -25T837 -22Q868 -22 895 -32T940 -62Q946 -65 946 -71Q946 -75 945 -78T943 -83Q941 -86 940 -88Q940 -102 939 -114T935 -138L939 -183L933 -211Q921 -222 906 -229T873 -239T839 -244T805 -246Q774 -246 735 -242T664 -237Q475 -237
288 -246Q245 -247 203 -254T122 -261Q108 -261 92 -257T62 -244T36 -227T20 -206Z" />
<glyph unicode="`" glyph-name="grave" horiz-adv-x="1071" d="M233 1401Q233 1420 241 1436T262 1465T292 1484T327 1491Q349 1491 368 1482T404 1459T436 1428T464 1394Q466 1391 469 1388T474 1382Q476 1380 481 1373T493 1357T504 1339T512 1325Q513 1323
516 1318T522 1307T527 1295T531 1287Q533 1285 536 1282T543 1276Q554 1267 571 1255T598 1228Q600 1227 605 1219T617 1201T629 1183T636 1171Q638 1169 644 1164T657 1153T670 1141T678 1133Q682 1126 686 1111T693 1079T697 1047T699 1024Q689 1024 676 1024T648
1027T620 1033T598 1046Q598 1049 595 1056T591 1065Q590 1066 586 1068T576 1071T566 1074T560 1076Q558 1077 552 1084T537 1099T522 1114T512 1122Q510 1125 499 1128T486 1133Q473 1141 459 1153T430 1179T402 1206T377 1228Q373 1232 358 1246T324 1277T291
1308T271 1325Q256 1342 245 1360T233 1401Z" />
<glyph unicode="a" glyph-name="a" horiz-adv-x="885" d="M490 118Q486 116 478 107T464 97L426 78Q424 77 420 74T410 66T400 58T395 54Q393 53 388 52T376 50T364 49T355 48Q347 46 341 41T328 30T313 17T295 5H200Q195 5 187 7T169 12T150 19T136 26Q136 28
131 35T124 48Q122 50 121 53Q118 56 118 59L91 85Q83 101 78 125T72 166L79 187L72 208V220Q72 225 74 233T80 250T86 266T91 277Q92 278 98 284T113 299T127 315T136 325Q137 325 143 332T150 341L152 345Q153 347 153 349Q170 360 186 372T222 394Q223 395 236
400T266 412T299 424T323 431Q333 436 344 444T365 459T385 471T400 477H426Q427 477 432 480Q434 481 437 483Q441 484 456 486T477 488L490 505Q497 509 504 511T517 517T527 525T535 541Q542 562 544 585T547 630V652Q547 654 541 663T535 676L523 727L501 754L490
775Q486 777 482 785T477 798Q475 804 462 809T433 819T402 826T380 829Q378 829 365 829T342 830Q333 830 318 829T288 823T264 810T253 789V780Q254 778 257 772T263 758T268 744T271 735Q271 731 269 724T264 708Q257 676 245 659T207 626L195 617Q191 614 188
611H112Q103 611 97 618T87 634T81 653T79 668Q79 674 81 684T87 703T95 721T105 735Q108 742 112 747Q114 752 116 755T120 759L136 775Q158 789 173 804T208 836L278 882Q288 891 296 895T314 903T332 908T355 915Q356 915 360 917T370 921T380 926T387 929Q392
930 406 933T437 939T469 944T490 946Q495 946 499 943T506 939Q509 939 515 939T527 937T539 936T547 934Q553 932 563 929T583 921T601 914T611 910Q612 909 616 905T625 896T636 885T643 877Q654 861 665 848T682 818Q687 808 689 797T694 774T701 753T714 735V673Q714
607 710 544T703 413Q699 403 696 394T693 372Q693 363 695 352T698 336L689 317Q688 313 688 309V298Q688 283 689 266T694 232T705 200T727 175Q732 171 740 164T753 156H757Q767 156 780 159T807 167T835 176T864 180Q883 180 883 168Q883 136 871 106T836 53T785
15T722 0Q688 0 656 3T586 21L579 26Q577 28 570 38T554 61T538 83T530 97L506 118H499H490ZM264 268Q264 252 269 231T286 192T313 160T349 147Q353 147 356 148T373 156L464 164Q467 166 473 172T486 186T498 199T506 208Q507 208 509 214T516 229T523 248T530
266Q532 271 533 281T535 292Q534 303 533 314T532 336Q532 346 533 354T535 372L542 394V412Q542 429 531 443T499 457Q482 457 471 450T444 431Q439 428 424 421T393 406T362 391T342 382L323 372Q321 372 315 370T309 367L295 341L271 317Q266 306 265 292T264
268Z" />
<glyph unicode="b" glyph-name="b" horiz-adv-x="1095" d="M181 3Q168 8 155 22T141 57V201L136 232Q145 264 152 301T159 372Q159 379 156 384T148 393T140 401T136 410Q136 449 138 487T141 557V585L136 611Q136 640 142 670T148 732Q148 749 147 762T136 791L150
903L138 972L145 1119L141 1164Q136 1180 138 1199T131 1233Q123 1249 111 1262T88 1284Q74 1301 55 1307T10 1323L8 1346Q26 1368 39 1383T66 1410T95 1429T131 1446L174 1479L287 1493Q295 1493 307 1485T332 1464T352 1439T361 1415Q361 1386 353 1361T344 1313Q344
1293 343 1280T340 1255T337 1231T335 1201L325 1109V951Q325 940 324 931T321 908Q318 882 318 862Q318 857 319 849T324 833T332 819T344 813Q363 813 376 820T402 837T425 857T451 875Q473 884 500 890T555 899T612 905T665 907Q677 907 684 905T697 899T710
893T729 887L767 882L781 875Q795 863 812 852T846 830T880 805T909 777Q930 751 951 719T988 650T1015 576T1025 500Q1017 452 1014 404T994 308Q980 259 964 226T926 167T874 118T802 67Q786 58 776 54T758 46T740 37T716 21L702 9L451 -12L366 -2Q358 -1 342
0T307 3T269 7T235 12L181 3ZM318 424Q318 416 321 397T328 354T339 304T351 256T364 219T375 201Q387 192 395 185T409 172T422 157T440 135Q445 128 453 122T471 109T490 96T505 83H594Q612 83 632 84T672 90T709 105T736 133Q745 153 752 182T774 232L802 265Q802
267 803 276T807 297T813 321T818 344Q818 356 815 365T812 386L823 429Q823 437 822 454T817 494T809 541T800 587T788 625T774 649L688 734Q670 734 654 745T621 768T587 792T548 803L458 785H408Q394 785 386 777T366 765Q364 765 358 763T344 757T331 747T325
732V649Q314 641 314 621Q314 616 316 612T318 605L325 521L318 424Z" />
<glyph unicode="c" glyph-name="c" horiz-adv-x="879" d="M393 5Q329 5 276 29T189 111L140 161Q139 166 133 180T120 210T107 239T101 256V310Q99 322 95 331T85 350T75 369T71 391L80 514Q80 523 77 533T73 554Q73 568 76 578T84 598T91 619T95 649L165 739L158
754Q161 758 165 763Q168 767 171 772T178 782Q237 855 315 898T486 967L504 972Q558 972 612 962T716 934Q723 917 738 913T768 908Q777 892 785 880T799 856T808 831T812 799Q812 763 787 738T716 713Q713 717 708 723T697 736T686 748T678 754Q677 756 668 757T658
759Q634 770 622 793T596 840T563 882T504 900Q475 900 451 891T405 866T364 830T324 787Q320 779 311 771T299 754V713L291 701Q275 669 269 640T263 574Q263 568 263 560T264 543T266 528T270 521Q270 513 270 502T272 479T274 460T275 452L284 438V410Q284 387
286 370T294 338T307 307T324 272Q324 270 332 259T349 234T366 209T376 194Q384 185 397 183T417 175Q433 163 443 155T464 140T487 131T519 128Q565 128 613 147T697 194Q705 200 714 209T734 228T754 244T775 251Q793 251 799 244T806 220V208Q789 151 753 110T668
43T565 3T457 -10H426L408 5H393Z" />
<glyph unicode="d" glyph-name="d" horiz-adv-x="1092" d="M677 61Q650 53 624 43T572 24T519 9T464 2H452Q434 2 410 9T364 28Q286 39 232 78T139 171Q130 185 126 202T116 237L77 311Q77 313 76 318T74 335T71 371T70 434Q79 445 81 454T84 476L82 514L84 529L96
561Q99 571 101 587T104 620T108 652T116 678Q121 690 129 693T148 704L174 735Q203 777 231 803T292 845T363 872T450 894Q479 902 508 910T568 919Q581 919 591 912T611 905Q619 905 635 907T668 914T698 925T715 938Q731 990 738 1047T746 1159Q746 1173 744
1191T741 1228Q741 1239 743 1248T746 1270Q746 1285 740 1294T723 1311T700 1326T675 1344Q668 1349 663 1354T653 1364T640 1375T620 1389Q616 1396 611 1403T606 1419Q606 1428 612 1436T625 1448Q640 1458 661 1465T703 1479T743 1489T772 1496H888Q905 1496
919 1488T943 1468T960 1441T966 1412Q966 1368 957 1330T947 1253V1163L921 1071Q921 1048 927 1027T933 988Q933 967 925 950T916 912L909 827L921 758L909 652L921 460L900 325V251Q900 224 903 196T917 145T947 108T997 93Q1018 93 1036 96T1068 99Q1084 99
1089 88T1094 61Q1094 39 1085 26T1060 6T1024 -3T981 -5L921 0L862 -9Q848 -9 834 -16T807 -24Q762 -24 739 -1T703 61H677ZM258 491Q258 431 267 379T297 284T352 207T436 151Q466 136 496 120T563 104Q571 104 595 107T644 116T691 133T715 157Q717 162 717
165T717 173Q717 178 716 180T715 187Q715 197 720 209Q722 211 727 217T738 232T748 250T753 268Q753 289 747 311T741 358L739 393Q739 402 741 411T748 427V642L741 661L725 735Q723 744 709 759T677 791T640 819T611 834Q602 832 594 832T578 832H476Q442 832
413 814T360 767T316 700T285 625T265 552T258 491Z" />
<glyph unicode="e" glyph-name="e" horiz-adv-x="940" d="M64 438Q64 443 66 457T70 488T74 520T76 540Q80 588 97 638T142 734T204 820T282 886Q283 888 292 893T313 903T334 913T346 920Q353 923 364 930T388 945T412 959T434 965Q443 965 448 963T462 957Q479
959 494 960T526 962Q543 962 558 961T590 957Q590 957 594 956T603 952T613 948T621 945Q624 944 633 940T653 929T674 919T688 913Q688 912 695 910T704 908L744 886L834 804Q838 799 846 778T863 731T878 682T885 652Q885 638 877 630T858 616T835 608T813 604H809Q799
603 777 602T730 601T684 600T654 599Q643 594 635 593T617 592L546 599Q526 599 505 592T463 585Q450 585 438 594T410 604Q408 604 400 600T387 595L311 600Q295 600 281 594T249 573Q246 547 245 528T244 484Q244 463 246 450T254 426T266 403T282 374L292 355Q318
298 359 263T465 208Q465 203 479 199T512 192Q533 188 560 187Q593 187 628 191T696 204T758 228T809 265H825Q837 265 841 262T851 242Q848 213 843 191T828 150T803 117T764 85Q756 79 749 77T736 72T724 66T709 52L602 -2L590 0L515 -12Q431 -12 364 12T245
80T154 187T88 324Q79 351 77 379T64 438ZM261 711Q261 706 262 696T267 676T274 658T282 649H313L446 670L531 663Q553 663 570 667T609 676Q628 679 641 681T663 691T676 709T680 742Q680 777 661 803T614 846T552 872T489 881Q482 881 469 878T440 869T406 857T374
843T348 829T334 817L313 772Q307 765 298 759T281 746T267 731T261 711Z" />
<glyph unicode="f" glyph-name="f" horiz-adv-x="743" d="M56 52Q56 56 60 61T69 71T79 79T87 83Q88 84 93 85T103 87T113 89T120 90Q124 92 134 93T145 95L218 119Q235 148 238 170T241 220L235 292Q235 303 237 308T244 327L249 400L241 464Q245 482 246 501T248
538Q248 564 246 590T241 642Q233 654 228 669T217 699T201 725T177 742Q161 749 145 750T116 751Q94 751 76 756T50 789Q50 803 65 813T100 831T141 843T171 851Q173 852 180 855T194 861T209 869T220 877Q221 879 222 886Q223 892 224 903T225 934L235 958V998Q235
999 236 1004T240 1014T244 1024T246 1029Q257 1058 261 1088T270 1150Q271 1153 272 1158T276 1170T280 1180T284 1187Q285 1191 292 1205T307 1236T323 1266T336 1287Q345 1305 353 1316T371 1335T392 1350T417 1365Q434 1372 450 1385T478 1405L482 1407Q484
1408 486 1410Q488 1410 494 1410T506 1411T518 1413T524 1415L562 1441Q569 1444 578 1445T596 1448T612 1451T623 1455L640 1460Q672 1468 705 1471T768 1474L879 1460L910 1458L926 1455Q944 1444 963 1436T997 1417T1023 1389T1033 1342Q1033 1323 1024 1296T985
1246L950 1244Q946 1244 940 1244T928 1245Q921 1245 912 1246Q906 1246 896 1248T874 1253T854 1258T841 1263Q839 1264 835 1268T824 1279T813 1291T803 1303L787 1336L768 1381Q767 1381 766 1382Q765 1383 764 1383T761 1384Q757 1385 754 1387Q750 1389 743
1390T727 1392T711 1393T701 1394Q696 1394 689 1394T673 1393T659 1391T652 1387Q647 1387 635 1382T608 1371T581 1360T562 1351Q558 1349 553 1343T545 1336Q545 1335 543 1332T538 1324T533 1317T530 1313Q527 1307 522 1305T512 1302T501 1298T493 1287Q491
1285 485 1278T478 1266Q475 1265 471 1256T467 1246Q467 1244 466 1240T464 1230T463 1219T462 1213Q460 1206 459 1198T457 1187L434 1150V1124Q433 1118 432 1113Q431 1108 431 1105T429 1099L424 1078V1021L420 1015Q418 1011 418 1011Q417 1010 417 1009Q409
985 407 960T405 910Q405 887 417 872T453 856Q456 856 461 856T467 858Q470 858 477 860T486 863Q503 867 521 868T556 871T591 875T623 884L652 894Q666 892 682 883T701 868Q707 863 708 855T709 837Q709 822 707 805T699 772T680 746T647 735Q642 735 639 737Q615
744 589 751T540 758Q524 758 506 756T478 742L450 694Q450 692 448 688T442 680T437 671T434 663Q434 652 441 639T448 612Q448 597 441 586T433 561Q433 544 441 530T450 500L429 422V388Q432 378 437 367T443 332Q443 319 441 308T434 279Q432 272 431 267T429
253L446 211Q446 209 444 202T433 166Q434 164 436 161Q437 156 440 154Q450 138 463 133T495 123L509 119Q511 119 519 119T538 117T558 116T571 114Q572 114 579 111T594 102T609 92T619 83L618 52V49Q618 48 619 48Q617 41 616 36Q615 31 615 27T614 22Q594
11 579 8T545 5H478L429 0L263 9Q242 9 223 7T184 3L152 0H81Q73 0 69 5T61 19T57 37T56 52Z" />
<glyph unicode="g" glyph-name="g" horiz-adv-x="1111" d="M307 -571Q296 -560 280 -556T252 -550Q216 -537 182 -518T121 -472T79 -412T63 -337Q63 -325 65 -304T71 -259T82 -214T98 -183Q104 -171 119 -164T151 -148T179 -129T191 -100Q191 -72 176 -53T143
-17T109 19T94 66Q94 78 95 92T98 121T105 149T115 173Q121 181 129 192T147 216T166 238T184 254Q194 261 203 265T220 273T233 283T238 299Q238 313 232 326T217 351T196 375T172 398L164 407Q157 415 156 417T153 419Q154 420 148 437T134 478T120 523T113 557L115
590Q115 606 122 609T134 619Q132 627 126 635T120 663Q120 664 123 670T129 678Q172 766 211 816T299 892T416 924T582 931H586Q606 923 628 917T669 898L695 875Q712 862 735 855T783 839L817 832Q823 829 831 829H833Q842 829 849 835T862 849T875 866T888 881Q921
908 960 929T1044 950Q1085 950 1108 924T1131 862Q1131 848 1130 831T1122 800T1101 775T1061 765Q1044 787 1031 793T1001 799H961Q940 799 922 779T890 731T870 672T862 621L873 540Q873 505 861 475T831 419Q816 399 807 376T776 339L759 332Q721 318 695 307T644
287T590 275T515 270H489L343 280Q287 280 256 248T224 159V147Q232 120 243 110T268 96T298 92T335 80Q355 82 376 84T418 86Q425 86 433 86T451 83H515L572 69H601Q618 69 625 70T644 71Q649 71 655 71T672 69Q685 67 698 62T728 55H797Q808 55 819 51T842 41T862
30T878 22Q891 13 902 8T923 -1T938 -10T946 -22Q951 -30 962 -43T985 -75T1008 -115T1025 -163Q1025 -171 1025 -175T1023 -187Q1017 -243 1009 -279T986 -344T946 -396T880 -453Q848 -478 816 -505T747 -543L674 -562Q671 -562 664 -565T655 -571Q625 -573 604
-574T563 -577T523 -579T475 -580Q452 -580 433 -580T394 -578T355 -575T307 -571ZM209 -194Q207 -205 206 -214T205 -235Q205 -249 207 -263T215 -294Q215 -295 220 -305T233 -328T247 -354T257 -372Q262 -380 265 -389T271 -408T277 -423T286 -433Q300 -438 320
-446T350 -460Q366 -467 387 -473T429 -484T467 -492T494 -495Q497 -495 498 -494Q499 -494 499 -493Q515 -497 530 -497T560 -498Q580 -498 598 -497T634 -493Q653 -488 673 -484T710 -473T741 -456T762 -426L823 -396Q829 -349 834 -308T840 -218Q840 -173 818
-144T761 -98T687 -74T612 -66Q564 -64 519 -60T428 -55Q420 -55 407 -55T380 -54Q355 -54 333 -57T295 -71Q290 -76 282 -86T273 -99Q266 -104 256 -108T236 -118T219 -131T212 -149L209 -194ZM295 477Q301 466 305 461T315 451T327 440T342 424Q354 408 364 390T386
355T414 329T454 318Q489 318 516 326T564 350T604 387T639 434Q653 451 668 464T688 498Q694 519 697 547T703 599Q696 645 688 680T664 742T619 787T541 817Q524 821 509 830T480 839Q458 839 435 829T392 803T355 769T328 737Q321 715 309 702T286 668V559Q286
538 287 520T295 477Z" />
<glyph unicode="h" glyph-name="h" horiz-adv-x="1090" d="M21 55Q21 57 26 64Q29 67 32 71L61 83Q77 88 90 90T116 95T139 101T161 116Q163 117 167 123T175 136T182 149T186 159V175L179 218L193 282Q193 295 190 305T186 330Q186 332 188 338T192 350T196 362T198
368L193 467Q193 497 196 522T203 574V611Q203 612 205 617T208 631Q208 642 201 649T193 668Q190 688 187 702T184 732L198 1036L196 1062Q195 1077 191 1092T182 1122T174 1153T170 1185L179 1232Q176 1235 172 1244T164 1263T157 1282T151 1294L97 1336Q88 1338
85 1341Q74 1347 69 1351T60 1359T52 1369T40 1387Q39 1392 39 1393T39 1400Q39 1404 40 1408T44 1415Q47 1420 56 1425T74 1436T92 1444T101 1448Q102 1448 107 1449T117 1451T128 1454T134 1457Q135 1457 143 1458T155 1462Q190 1475 223 1486T298 1505Q321 1498
335 1488T362 1457V1289Q362 1287 363 1281T365 1268T368 1255T369 1246L350 1161Q350 1152 353 1146T359 1133T366 1121T369 1105Q369 1087 360 1074T350 1045V1041Q353 1027 353 1014T354 986T355 957T362 927Q371 902 380 886T407 858Q419 858 427 862T442 874T455
888T471 900L490 910H561Q595 914 630 925T701 936Q718 936 731 927T760 910Q765 908 775 906T788 900Q801 895 817 886T849 864T877 836T897 804Q898 803 901 789T904 768V699L916 663Q916 646 915 637T909 616V484L923 457Q923 454 922 449T920 439T918 430T916
426Q916 424 915 417T913 400T911 384T909 374L911 336Q912 329 918 315T928 296V190L933 145Q934 135 936 130T942 120T952 112T969 102L988 99Q999 96 1006 95T1019 93T1031 89T1049 81Q1051 70 1057 67T1063 61Q1063 58 1066 49T1070 35Q1070 27 1066 21T1054
9H1052Q1046 4 1037 0T1016 -5H988Q968 -5 952 0T919 5L859 -5H736L660 9Q646 9 633 10T609 17Q601 21 599 29T597 48V57Q597 69 605 81T630 93L656 100Q665 103 675 104T696 110T717 124T736 154Q737 155 738 160T741 170T742 179T743 185Q744 198 744 207T746
220Q745 219 746 221T748 227T751 235T753 242L743 263V311Q741 330 734 345T727 377V401Q731 440 737 483T743 567Q743 587 740 609T727 654Q725 657 724 660Q722 666 722 668V694Q721 698 719 705T713 721T706 735T701 744Q700 744 693 747T678 754T662 762T649
768L630 773Q627 777 620 782T604 794T588 805T577 815H421Q416 815 411 811T401 801T392 790T386 784Q371 763 362 746T347 701L367 495Q367 490 366 485T362 471Q360 461 360 453T359 434L360 379L372 332Q378 293 378 254Q378 209 372 163Q377 156 380 152T386
143T395 128T411 102Q417 94 423 91T437 86T452 85T469 81Q480 79 480 59Q480 53 479 45T474 29T467 16T459 9Q445 6 436 0T411 -7Q390 -7 373 -6T345 -5H305L217 0Q210 4 207 4T198 5Q184 5 172 2T148 -6T122 -13T92 -17L46 -21Q35 -9 28 12T21 55Z" />
<glyph unicode="i" glyph-name="i" horiz-adv-x="548" d="M110 0Q98 0 92 -4T78 -9Q74 -9 69 -5T52 5Q50 6 50 10T47 21Q45 27 44 36Q44 37 46 41T52 51T58 62T63 69L82 80H104Q127 80 145 83T175 106Q179 140 181 171T191 232L203 279V372L208 462V521Q208 523
206 531T202 550T198 570T196 585V680Q192 691 183 707T165 730L134 740Q117 752 104 766T82 801Q82 812 87 818T100 827T117 832T134 836L208 874Q217 878 223 880T236 886T247 893T260 905L289 907Q294 907 304 906T317 905Q320 905 327 904T342 901T357 897T367
894Q376 890 378 878T381 855V823L374 799Q369 734 369 671T367 541L362 505Q361 504 361 498T360 484T360 469T360 457Q360 450 360 441T360 424T360 411T362 405Q362 402 364 392T367 379V358Q367 355 366 342T364 313T363 281T362 258Q362 249 363 230T367 188T372
147T374 119Q374 108 385 102T404 93Q407 93 416 92T437 90T457 89T471 88Q478 80 482 71T487 48Q487 34 485 21T473 3Q461 -7 447 -8T416 -10H398L374 0H251Q250 0 238 2T222 5H194L110 0ZM139 1325L170 1356L203 1382L213 1403Q225 1412 240 1413T267 1415H277Q278
1414 283 1412T293 1408T302 1405T309 1403Q313 1401 321 1400T339 1397T356 1395T367 1394Q371 1393 376 1382T384 1358T390 1332T393 1315Q393 1290 388 1269T362 1230Q361 1229 357 1228T347 1225T338 1222T333 1220Q332 1218 328 1214T319 1205T309 1197T303
1192Q297 1185 286 1184T264 1183H225Q214 1183 206 1184T184 1197Q167 1222 152 1243T137 1296L139 1325Z" />
<glyph unicode="j" glyph-name="j" horiz-adv-x="486" d="M-151 -564Q-169 -554 -169 -529V-526L-151 -484L-150 -483Q-150 -483 -148 -481L-144 -479Q-141 -476 -135 -473T-123 -467T-112 -462T-105 -458Q-90 -452 -71 -445T-32 -430T6 -414T37 -396L108 -337Q109
-337 113 -331T121 -317T129 -300T136 -285Q141 -276 144 -262T148 -237L141 -173Q142 -162 143 -144T147 -108T151 -74T157 -52Q165 -40 170 -27T177 -2V50Q180 66 186 83T193 126Q188 165 186 208T177 292L172 310L177 341V388L184 405L177 436Q176 450 176 465T176
491V548Q176 590 173 630T155 709L141 751L108 782Q107 784 103 789T96 798Q85 816 69 827T37 856V875Q40 875 48 885T60 901Q60 903 64 905T84 907L105 912Q126 921 139 929T172 939Q173 939 182 939T201 941T221 943T231 945Q245 948 257 955T281 969T305 982T333
988Q338 988 342 987T352 976Q352 973 352 966T354 951T356 936T357 926Q362 901 366 878T370 829V798L357 772V718Q356 698 347 680T338 644Q338 641 339 632T341 612T343 594T345 583V540L352 514L338 436V367Q338 365 337 358T335 342T334 326T333 315Q331 313
331 308T331 301L345 206L337 171L345 142L316 99V76Q316 72 314 59T309 42Q311 37 318 26T325 7Q325 0 321 -9T309 -33V-54Q309 -54 310 -57T315 -69T322 -95T333 -142L309 -270Q309 -272 308 -274Q306 -278 306 -280Q306 -282 302 -290T295 -301L269 -348L241
-375Q240 -375 239 -381T236 -389Q235 -392 230 -397T219 -409T208 -420T200 -426Q198 -427 189 -432T177 -438Q176 -439 173 -444T166 -457T159 -470T155 -479Q149 -485 144 -488T133 -494T121 -500T105 -510Q82 -524 66 -536T33 -559T-1 -574T-47 -580H-68L-151
-564ZM55 1294Q55 1307 55 1323T60 1349Q62 1351 69 1359T81 1370Q84 1371 90 1373T103 1377T115 1381T122 1384Q123 1384 127 1386T136 1393T148 1400T157 1405Q161 1408 168 1413T183 1423T197 1432T207 1436L247 1422Q247 1422 251 1421T261 1418T271 1414T278
1412Q280 1412 288 1403T299 1393Q307 1385 320 1378T335 1360V1285Q334 1282 328 1276T315 1262T301 1248T292 1240Q291 1240 289 1236T285 1226T281 1215T278 1209Q275 1207 273 1205L269 1201Q266 1201 257 1200T236 1198T214 1196T200 1194H176L167 1201Q150
1208 131 1216T94 1234T66 1259T55 1294Z" />
<glyph unicode="k" glyph-name="k" horiz-adv-x="1096" d="M1 7Q0 9 0 13T0 22L1 43Q1 52 8 54T24 61Q33 72 46 73T69 80Q96 91 124 102T169 144Q172 148 177 160T188 186T197 215T202 235Q204 238 204 243T204 251L181 360Q181 373 190 384T199 407L187 453Q187
467 187 487T189 527T195 565T206 592Q208 621 209 647T211 701Q211 723 210 744T206 789Q211 797 212 807T214 827V843L207 915Q207 924 211 928T221 936T230 943T235 953L207 1010L223 1124Q223 1143 219 1161T214 1202L219 1242Q219 1258 205 1275T180 1306L112
1374Q110 1374 106 1376T102 1381Q101 1383 101 1384Q100 1385 100 1387Q100 1401 102 1413T112 1429Q117 1434 125 1435T145 1436H162Q176 1436 181 1438Q209 1444 237 1457T297 1470Q307 1470 321 1466T350 1456T374 1442T384 1424Q384 1412 379 1403T373 1382L389
1272Q389 1258 388 1251T382 1230V1135Q382 1125 382 1109T383 1078T383 1051T384 1038L389 969L382 939Q382 922 385 907T389 875Q389 855 381 841T373 813L384 777Q384 770 380 764T370 750T361 736T356 721L360 683L356 654Q356 643 364 631T389 619H394Q403
620 412 626T430 641T446 656T458 666Q484 680 502 687T536 703T566 725T600 766Q605 775 608 780T614 788T618 794T619 803Q619 814 613 822T599 838T585 855T579 877V889Q579 893 580 897T590 905Q604 907 618 908T643 910Q660 908 676 907T707 905Q715 905 721
905T735 907L815 910Q816 910 820 911T830 913T839 916T844 917H934Q945 908 954 898T963 877Q963 867 953 858T927 840T892 824T854 811T821 801T799 794Q770 781 751 773T706 751Q698 740 695 730T678 709Q673 706 661 701T635 689T611 673T600 652Q600 644 600
631T603 604T609 577T619 555Q641 526 665 505T706 453Q712 446 713 443T715 436T717 429T723 415Q726 404 734 398T752 385T771 373T787 356Q812 298 856 243T946 145Q955 138 976 130T1022 113T1070 93T1105 71Q1108 68 1108 64T1109 55V35Q1109 25 1104 17T1090
7H1007L884 24Q883 24 882 24T880 23Q878 22 877 22Q811 2 751 2L695 0Q679 0 665 2T643 9Q632 20 630 30T628 55V74Q628 84 640 89T667 101T694 116T706 142Q706 154 699 161T683 175T664 188T648 204Q641 219 639 235T632 267T618 296T586 317Q584 321 580 330T570
349T561 369T555 384Q550 392 541 397T522 407Q509 419 497 436T470 471T439 500T403 512Q395 512 389 508T382 491L389 469Q389 466 385 458T375 440T365 424T360 415V367Q360 339 367 317T375 270Q375 259 372 251T366 235Q364 226 362 218T360 201Q360 163 370
139T399 102Q410 95 424 92T452 87T478 84T496 80Q507 75 508 70T510 59Q510 45 508 30T495 5Q487 0 475 -1T451 -3H424L346 12L240 5H174L93 -3L46 -5Q40 -3 31 -3T15 -3L1 7Z" />
<glyph unicode="l" glyph-name="l" horiz-adv-x="561" d="M57 -7Q54 -7 50 -7T41 -5H20L8 5V52L31 88Q40 92 52 92T65 93Q69 93 83 94T107 100Q130 95 140 95Q152 104 163 119T182 152T195 188T200 221V332Q200 367 200 400T204 448Q201 475 200 501T197 555L190
659Q187 706 185 753T183 848Q183 853 184 855T193 863Q189 879 189 892T188 920Q188 934 188 948T193 979Q185 984 181 994T176 1021Q176 1034 184 1042T192 1066Q192 1088 191 1113T183 1164Q176 1199 176 1220T174 1265Q168 1274 154 1283T123 1301T91 1321T70
1344Q62 1360 60 1363T55 1372Q55 1379 59 1392T74 1408Q95 1413 117 1420T150 1429Q152 1429 160 1432T178 1440T196 1449T207 1457Q226 1462 242 1468T275 1479T308 1488T346 1493Q356 1493 363 1492T370 1484Q374 1458 375 1434T377 1386Q377 1363 376 1340T370
1294Q362 1273 360 1249T358 1201L359 1149L356 1080Q360 1072 361 1064T363 1043Q363 1023 363 1014T359 1000L366 936Q362 920 353 904T339 867Q339 856 344 848T351 825Q355 786 355 750T358 675Q353 652 347 635T340 599V583Q341 562 343 545T347 510T352 475T356
432Q356 406 354 387T349 341Q348 335 347 324T344 302T341 280T340 266V265Q341 260 344 245T350 214T356 184T359 166L366 151H368Q371 151 372 148T375 144Q379 140 380 136T384 127T395 118T420 109Q439 97 449 97Q452 97 454 97T461 99Q469 97 480 96T503
93T527 85T548 71Q553 67 554 61T555 43V9Q555 2 553 -4T545 -12Q537 -10 529 -10T512 -10Q505 -10 497 -10T477 -7L446 -3Q444 -3 438 -3T424 -2T410 -1T401 0L352 3Q351 3 350 4Q349 4 349 4T347 5Q325 4 308 2T275 -2T244 -7T209 -10Q186 -8 160 -5T110 -2L57
-7Z" />
<glyph unicode="m" glyph-name="m" horiz-adv-x="1582" d="M61 43Q61 57 62 62T69 71Q74 73 83 73T102 73Q107 73 114 76T123 81Q125 83 129 85T140 90Q162 94 171 94T185 109Q187 136 189 165T192 221Q192 254 190 284T185 343L189 362V432Q189 456 191 479T206
526L199 675Q198 677 197 682T195 694T193 705T192 711Q187 716 185 716Q185 718 181 721T171 727T160 733T154 737Q153 737 150 740T142 746T135 753T130 758Q119 761 110 762T94 764T79 770T66 784Q68 786 68 797T75 820Q84 827 94 829T114 834Q123 836 131 838T149
848Q150 848 155 851T165 858T174 865T180 868L230 889Q231 890 235 894T245 903T254 912T260 917H287Q307 917 318 915T335 908T342 893T344 867V848Q345 839 346 828T352 808T363 791T383 784Q384 786 389 790T400 800T411 810T417 815L455 827Q457 827 460 828T466
832Q468 833 479 842T503 861T528 879T545 889Q546 890 552 893T568 899T585 906T597 910H613Q628 914 642 925T675 936H687L715 922Q716 921 722 920T735 919T750 918T760 917Q789 908 806 894T838 853Q846 842 850 830T860 808T873 791T898 784Q901 784 905 784T915
789L979 853L1012 868L1047 910L1087 922Q1119 931 1149 936T1208 941H1230Q1246 941 1259 939T1291 927Q1292 926 1301 918T1312 910Q1312 909 1317 907T1329 902T1340 897T1348 894Q1350 894 1352 893T1355 889Q1356 888 1358 883T1364 871T1371 858T1376 848Q1382
825 1395 801T1412 753V716L1421 694V668Q1421 625 1418 581T1410 493L1417 420V407L1412 389V332Q1411 327 1410 312T1409 280T1408 249T1407 232L1405 209Q1405 198 1406 179T1412 152Q1414 148 1420 139T1453 116Q1469 108 1478 102T1494 90T1505 81T1516 74Q1526
68 1526 52Q1526 31 1517 21Q1513 13 1511 12T1505 10H1495Q1493 10 1491 10T1485 9L1377 22L1348 21H1248Q1243 21 1231 16T1215 10L1170 21H1151Q1140 21 1139 26L1137 59Q1137 77 1149 84T1171 104Q1185 122 1198 136T1232 159L1251 185L1237 275L1253 339L1249
394Q1248 399 1248 402T1248 410Q1248 415 1248 418T1253 426Q1242 487 1242 552V590Q1250 601 1251 607T1253 621V635L1235 732Q1234 732 1232 733T1230 737Q1228 737 1224 739T1215 744T1206 749T1201 753L1175 773Q1167 784 1153 786T1123 789H1099Q1081 789
1070 789T1038 784Q1019 775 1011 765Q1003 760 995 755T979 744Q978 742 968 740T955 737Q932 729 921 715T898 680Q897 678 893 672T884 659T875 645T870 635V616Q871 613 872 597T874 561T875 524T876 502V479L893 446V436Q893 420 890 404T886 372L893 325Q893
300 889 277T882 227Q882 225 882 214T881 194Q881 191 882 186T885 174T887 162T889 154Q891 147 893 145T896 141T900 139T905 131Q905 131 908 127T914 119T921 110T926 104Q930 102 943 99T972 92T1003 83T1024 71Q1032 67 1033 64T1035 55V35Q1035 30 1034
25T1024 12Q1011 5 986 2T945 -2Q931 -2 921 -1T902 0H870L841 5Q834 7 828 8T810 9Q799 9 788 9T765 7L732 5Q721 2 714 1T701 -2T687 -4T670 -5Q665 -5 653 -3T629 2T606 10T592 21Q585 28 585 36Q585 39 586 41T587 50Q588 66 593 70T606 80Q613 86 631 87T667
92T700 107T715 145L716 171L706 211L716 330L704 450Q704 472 712 490T720 528L699 562V574L706 599V649Q706 695 697 723T668 766T617 786T542 791Q534 791 524 790T509 789L433 758Q419 754 410 751T389 737Q383 732 376 722T363 700T353 675T348 654Q348 649
349 646T353 635V567L365 531V457Q365 455 367 447T372 438V420Q370 419 368 408T365 394V337L353 247Q353 246 353 237T351 217T350 196T348 182Q348 168 351 159T361 142T377 128T396 114Q401 110 408 107T424 104L447 90Q457 90 465 88T478 80Q483 73 484 69T486
59V45Q486 37 485 30T478 17Q464 4 440 2T398 0L331 3H213L109 -3Q107 -3 104 -3T97 0Q95 2 85 2T71 5Q64 10 63 21T61 43Z" />
<glyph unicode="n" glyph-name="n" horiz-adv-x="1091" d="M220 7Q193 0 167 -2T113 -5L87 -7Q75 -7 72 -3Q65 6 59 16T53 43Q53 54 59 64T72 78Q83 82 92 82T110 83Q119 83 127 84T144 88Q167 97 180 108T200 131T208 157T210 183L207 237Q205 239 202 245T196
254L191 270Q191 280 199 285T207 304L200 353Q200 369 202 385T215 415V484L207 505L220 547V574Q220 599 216 625T203 673T177 715T136 746L87 772Q79 774 72 784T63 803Q65 808 70 817T81 834T96 849T113 856H163Q164 856 169 859T179 865T189 872T196 877Q197
878 202 880Q204 881 207 882H252Q253 883 256 886T265 893Q270 897 276 903Q278 905 286 905T302 905Q306 905 314 904T331 898T346 889T352 875Q352 874 352 874T351 873L350 872Q350 870 347 859T342 846V836Q342 834 345 830T351 821T356 813T359 808L380 772Q382
764 392 763T409 761Q423 761 435 772T456 792L487 836L489 838Q492 841 492 841Q494 841 503 845T515 851Q516 852 522 859T535 874T548 888T556 896Q557 897 563 899T577 903T591 906T599 908Q612 913 619 918T632 926T648 932T674 934H694L736 913Q737 913 742
913T753 911T764 910T771 908Q775 908 786 907T798 903Q800 903 809 898T821 887Q822 887 826 890T833 893Q847 888 860 875T881 853Q886 847 893 837T908 816T920 799T926 791Q926 790 927 781T931 760T935 734T938 713L931 607L945 517Q945 501 942 493T935 480T928
471T925 457Q925 443 930 433T938 412Q938 410 939 401T941 380T943 355T944 334V253Q937 239 935 232T933 213L931 161L935 118Q935 115 936 111T940 104Q947 99 965 96T1001 81L1009 73Q1012 59 1022 49T1032 28Q1032 17 1030 6T1013 -5H1009Q989 -7 972 -8T935
-10Q926 -10 915 -10T893 -7Q875 -5 859 -4T826 -3Q804 -3 783 -4T738 -7Q733 -5 726 -4T710 -3Q696 -3 683 -2T658 0H632Q618 0 613 13T608 48Q608 62 616 75T644 90L710 99Q724 100 726 111T731 130L736 140Q743 152 746 159T750 173T752 188T755 209L760 230L755
256V313L748 367L760 413Q758 430 758 446T757 481Q757 498 757 515T760 550Q764 559 764 565T765 586Q764 588 756 597T748 609Q746 612 744 622T739 645T734 668T731 682Q730 683 726 688T716 698T707 707T701 713Q701 714 699 722T694 730Q692 733 689 738T684
746Q681 747 672 749T654 754T636 758T624 761H611Q553 761 510 746T423 692Q419 689 412 682T398 668T386 656T380 649Q379 648 378 642T376 629T375 616T374 609Q370 595 366 582T362 552Q362 523 365 502T369 455Q369 439 364 427T359 391L369 320L359 270V256Q361
254 363 243T366 230V166L369 145Q370 142 375 138T386 129T397 121T404 116Q406 114 412 112T427 107T442 102T454 99Q462 95 468 94T479 93T489 90T499 81Q502 78 506 78T513 76T519 71T521 61L523 38Q523 30 520 25T506 12Q497 7 492 0T475 -7Q464 -7 453 -11T437
-16H425Q383 -9 338 0T246 10L220 7Z" />
<glyph unicode="o" glyph-name="o" horiz-adv-x="1104" d="M75 529Q89 582 110 630T158 730L186 763L198 784Q201 789 205 793Q208 797 211 800T217 806L276 848Q281 854 287 856T298 860T310 863T321 870L340 889L356 896H371L425 917Q429 919 436 921T452 925T467
928T477 929H579Q588 933 594 933T605 934Q634 934 663 925T721 907H759Q761 907 765 904T774 895L785 884Q810 870 834 857T882 827Q902 811 913 792T940 753Q942 751 947 744T959 727T970 709T978 695L984 683L1023 555Q1026 549 1028 541T1032 526T1035 512T1036
503V471L1030 446V374L978 221Q958 194 936 166T892 112Q892 111 888 107Q882 99 874 90T856 73Q854 71 845 70T824 64L764 29Q762 29 756 28T742 25T727 22T717 21Q699 17 688 10T655 3L553 0Q549 0 536 0T508 1T479 2T458 3L430 9L366 14L356 19L257 88L233 99Q215
109 203 128T179 166Q168 186 157 202T134 232Q125 248 115 263T96 294T81 326T75 363L67 441L75 529ZM281 388Q289 379 292 372T297 359T299 346T302 329Q310 296 328 260T366 199L404 163Q424 138 442 114T487 78H527Q549 78 574 83T624 93Q638 93 649 94T676
106L688 119Q736 145 771 183L840 292L837 396Q842 404 843 411T844 432Q844 449 836 463T828 497L837 535Q834 547 831 563T825 595T817 626T805 650L754 709Q751 711 747 718T738 734T730 751T726 763L696 784Q678 804 660 818T617 837L568 843Q542 847 522 852T477
858H470L409 822L312 709Q308 698 305 689T302 671L297 640L281 599V573Q281 559 285 547T290 519Q290 511 289 507T281 497V388Z" />
<glyph unicode="p" glyph-name="p" horiz-adv-x="1110" d="M346 -552L289 -562H86Q74 -562 62 -559T39 -550T22 -533T15 -509Q15 -495 17 -486T34 -472L105 -458Q112 -456 118 -453Q123 -451 128 -449T137 -445Q141 -445 146 -442Q148 -441 150 -439Q155 -433
162 -420T169 -400Q169 -398 170 -387T172 -361T175 -332T176 -310V-256Q176 -226 175 -197T169 -140L163 -121V-83L169 -62L168 -21Q168 -10 169 -1T176 17Q172 71 171 122T169 227V259L171 287Q171 288 171 290T171 299T169 321T166 362Q166 370 166 377T168
393L169 432Q164 461 163 490T161 550Q161 579 162 608T169 670L163 680Q160 682 155 687T144 698Q138 704 130 711Q127 714 120 719T104 729T87 738T74 744Q68 746 65 746T59 749Q43 761 43 777Q43 779 43 784T45 792Q47 795 48 797T54 803L105 834Q108 835 112
836Q115 837 118 838T123 839L169 853L195 875Q209 892 230 904T271 917Q293 917 305 910T325 890T334 865T339 840T346 821T360 813L450 853L474 870Q491 882 508 888T544 897T580 900T619 903L645 912Q666 912 680 910T707 902T730 891T756 875Q783 864 812 856T868
829L963 728L969 716Q971 711 973 707T976 701L1002 623L1022 586Q1022 580 1025 574L1029 566V538Q1030 533 1031 529Q1032 525 1033 522T1034 517L1040 497Q1041 484 1042 472Q1043 461 1044 451T1045 432Q1028 369 1007 313T957 202L932 154L925 135Q915 120
901 109T869 87T835 69T803 50L771 26Q753 13 733 10T690 7H645Q629 7 616 7T588 7T559 9T524 12L498 17L481 12H403Q384 -3 374 -21T360 -61T354 -105T353 -152V-246Q353 -254 354 -269T356 -299T359 -327T360 -341L379 -389V-413L391 -464Q391 -470 398 -471T412
-472L443 -453H450L467 -460H522Q533 -460 542 -464T564 -479Q577 -487 581 -493T585 -514L586 -524Q586 -540 571 -552T536 -567L446 -576Q426 -568 405 -560T365 -552H346ZM346 268Q346 254 347 247T353 223Q355 215 360 204T371 183Q377 172 384 159Q384 157
389 153T402 145T415 138T424 135L455 107L498 95H550L562 90Q583 90 600 94T631 105T659 120T685 135Q698 146 711 149T739 166Q742 168 745 172T753 180L761 190L766 249L792 313L797 344V368L810 408V438Q800 474 798 499T792 548Q790 555 788 559T782 567T777
576T771 592Q769 599 768 609T766 631T762 652T756 670Q753 672 745 678T728 693T712 709T702 720L690 744Q690 746 686 750T677 759T666 768T657 775L645 780H595L562 791H545Q506 791 481 783T429 765L396 749Q384 745 378 738T367 722T360 703T353 680L336 638Q336
627 338 618T341 597L336 548Q336 513 342 484T360 422V401L353 355V313L346 291V268Z" />
<glyph unicode="q" glyph-name="q" horiz-adv-x="1021" d="M785 -561Q771 -561 751 -564T713 -571L697 -576L678 -571H659L590 -576Q585 -576 577 -575T555 -573Q549 -573 547 -569T541 -562Q532 -558 527 -557T522 -548L521 -529Q521 -518 526 -513T539 -504T555
-500T571 -497Q572 -496 577 -493T589 -486T601 -479T609 -476H652Q661 -475 669 -469T686 -454T699 -436T708 -419V-313L714 -279Q714 -268 711 -263T708 -253V-249Q709 -247 711 -236T713 -223Q713 -222 714 -214T717 -195T719 -172T720 -151Q720 -149 711 -143T701
-135V-119L702 -117Q702 -115 704 -111Q706 -107 708 -104Q708 -101 709 -92T711 -71T712 -51T713 -40Q713 -38 717 -30T725 -16Q725 -5 719 12T702 44T677 71T649 83H645Q643 82 636 78T620 69T604 60T595 55Q593 55 584 54T567 47Q558 38 549 32T519 26Q515 26
509 26T493 28L460 17Q458 16 452 14T443 12L405 17H341Q333 17 328 23T315 36Q313 38 304 42T289 48L259 62Q257 63 254 67T246 76T239 87T235 95L163 137Q149 154 142 168T125 204Q123 206 120 216T116 228Q104 247 102 266T95 303Q90 339 80 372T69 441V450L83
491V554Q95 563 95 571Q96 574 98 587T102 615T105 644T107 661Q109 663 111 669T116 675Q116 677 118 683T123 690V713Q123 713 125 716T132 724T139 732T144 737L163 768Q166 771 172 777T185 790T199 803T209 811L235 822L282 868Q290 872 295 874T307 876T319
878T336 881Q337 881 341 884T346 889Q350 889 356 891T365 894Q367 894 372 894T383 896T393 898T400 900L434 920H483L498 923Q506 924 516 925T540 926L555 919L633 903Q654 899 675 890T716 872T758 855T801 848Q813 848 819 851T831 859T841 868T856 872Q859
872 865 872T874 870Q878 866 881 857T887 838T891 819T893 804L887 770V723Q887 721 882 714T874 699Q875 697 877 692T881 680T885 668T887 661L882 635Q878 614 876 602T874 571L882 526Q882 510 878 499T874 474V223Q874 218 873 210T867 197V-19L874 -106L867
-187L882 -260L874 -343Q874 -357 887 -370L893 -438L907 -452Q908 -452 915 -458T932 -464Q936 -464 943 -464T957 -464T970 -465T977 -465Q987 -466 998 -467T1018 -472T1034 -483T1041 -502Q1041 -510 1041 -518T1036 -535Q1031 -545 1028 -550T1022 -558T1015
-564T1005 -573Q1003 -574 998 -577T988 -580Q985 -580 979 -578T969 -576Q955 -576 951 -576T934 -574Q909 -572 884 -570T836 -566L785 -561ZM259 379Q275 378 283 368T297 345T305 316T315 291L341 258Q351 243 361 223T383 183T412 149T450 131Q453 130 465
130Q479 130 498 128T526 125L605 116Q613 116 623 121T640 126L659 125Q664 125 669 127T678 138Q680 140 684 149T690 159Q694 163 703 177T713 199L708 235Q708 242 710 248T716 260T722 275T725 294Q725 299 724 306T713 318V445L697 481V491Q698 493 700 501T706
518T711 535T713 545V558Q713 563 713 568T714 576Q714 580 714 587T714 600T713 612T713 618L708 635V683Q708 703 704 719T683 749Q680 751 674 756T660 768T647 779T638 787Q636 789 636 790T633 791Q611 811 588 827T529 843Q519 843 506 842T478 840T449 836T424
830L405 817L365 801L336 747L304 706L272 600Q270 598 269 595Q266 590 266 588Q265 586 265 583T262 577Q260 573 259 569Q259 568 260 561T262 545T265 528T266 516L259 495Q255 484 253 467T251 448Q251 445 251 435T253 414T255 393T259 379Z" />
<glyph unicode="r" glyph-name="r" horiz-adv-x="752" d="M61 61Q61 69 71 72T87 81Q98 93 112 98T133 106Q141 111 144 118T158 130L182 138Q188 138 192 147T197 157Q196 162 196 174T196 197Q196 211 196 222T197 242L203 272V426Q203 428 204 435T206 450T208
465T210 474V481Q209 487 208 499T206 524T204 547T203 559Q202 562 201 569T199 584T198 599T197 609Q194 623 187 636T171 660T152 683T133 706Q132 706 126 713T120 723L61 778L109 827Q111 828 117 831T131 837T146 844T158 848Q160 850 166 851T180 854T194
855T203 856Q222 862 237 872T268 893T298 912T334 920H350Q351 919 361 910T376 896Q383 885 383 869T384 837T391 810T417 799Q420 799 423 799T427 801Q431 802 438 805T452 814T466 824T476 832L517 863Q519 865 530 872T545 884Q546 884 553 884T567 885T582
887T592 889Q593 889 598 891T610 895T622 899T628 901H639Q662 901 676 887T703 856Q710 847 711 831T718 806Q718 803 721 800L725 796Q725 748 712 711T666 650Q657 648 645 647T625 645Q604 645 594 647T579 655T571 668T559 687Q552 696 543 701T524 709T508
713T498 714L455 721L419 711L407 695Q402 694 393 686T376 667T361 645T355 626L350 554L355 526V474Q355 472 356 463T360 448L353 358L360 324Q360 317 357 310T353 292L360 258L353 221Q353 220 353 218T355 216Q356 210 361 199T373 176T385 154T393 138Q393
137 395 134T400 131Q409 126 417 118T438 106Q445 103 456 101T479 95T504 88T528 78Q534 70 539 59T545 35Q545 24 542 19T531 9Q525 5 511 5L479 2Q462 0 449 0T426 0Q418 0 409 2T388 5Q360 5 335 -2T284 -10L239 5L175 -10H158L144 0Q142 0 133 1T107 5Q103
5 99 9Q96 10 90 12T69 21Q61 32 61 42V45V61Z" />
<glyph unicode="s" glyph-name="s" horiz-adv-x="720" d="M88 176Q88 188 90 211T97 258T113 298T140 315Q143 315 145 304T149 279T156 251T166 235Q179 229 183 226T190 209L223 161Q228 149 241 144T261 130Q272 114 292 107T337 99L366 104Q367 105 375 105T393
107T411 108T422 109Q427 111 436 113T454 119T470 125T479 130Q480 131 488 138T506 156T526 176T543 194Q551 202 553 206T555 221V230Q555 269 541 295T498 346Q474 368 449 380T398 400T342 411T282 422Q271 423 263 429T247 442T232 458T218 472L157 509Q136
524 126 544T110 588T101 635T93 682L79 714Q79 746 88 769T110 815Q127 819 136 833T157 856Q158 859 164 864T176 876T187 889T193 898Q198 900 205 907T212 919Q215 919 222 922T237 929T252 936T264 941Q266 941 272 943T282 946Q283 946 289 950T299 955Q310
955 320 951T342 946L406 955L486 943L543 919Q554 919 568 927T593 936Q596 936 598 934Q601 934 603 933T609 929Q609 927 611 921Q612 918 614 915Q614 899 606 889T598 865L596 839Q596 831 596 824T590 810Q587 796 587 773T585 729T574 691T546 675L536 692Q533
694 532 701T526 711Q521 715 515 725T504 747T494 772T486 791L472 803Q452 818 437 825T403 846Q399 850 390 850T363 851Q347 851 320 845T266 826T220 798T200 761L205 740Q205 735 201 722T193 702Q193 691 196 686T204 678T216 672T231 661Q236 657 237 651T240
637T242 623T250 611Q261 602 282 598T320 592H375Q395 590 412 577T439 562H498L529 541Q551 527 565 514T590 485T609 452T626 408Q626 408 628 404T632 396T637 387T640 382L631 351Q631 350 633 344T638 330T643 315T645 304V270Q645 254 642 233T633 191T618
149T598 116Q597 114 589 106T572 88T553 68T538 54Q537 53 534 51T527 47Q523 44 517 42L505 26L479 21Q478 21 473 21T463 19T452 17T446 16Q437 13 423 4T398 -5Q374 -4 364 -3T340 0H306Q303 1 297 2T284 5T271 8T264 10Q263 11 258 13T246 19T234 24T228 26Q224
28 213 29T200 31L183 40Q171 44 160 48T138 58T113 75T84 102Q83 106 82 112T81 123Q81 139 84 153T88 176Z" />
<glyph unicode="t" glyph-name="t" horiz-adv-x="703" d="M165 384L159 484L165 588V618Q166 623 168 630T170 642Q170 671 161 701T147 761Q137 768 119 771T82 778T51 792T37 820Q37 841 51 851T84 869T124 883T158 901Q171 912 187 928T210 953Q218 969 231
993T261 1039T295 1078T331 1095Q343 1095 350 1089T362 1073T369 1052T372 1031V915L377 908H424Q449 908 470 911T509 919T545 927T583 931Q611 931 630 910T649 860Q649 837 642 822T620 798T587 786T545 782L479 787L429 782L381 787Q367 787 356 775T344 751L353
676Q353 662 349 649T340 623T331 595T327 566V548L336 432Q333 426 333 420T332 405Q332 398 334 392T336 381Q339 352 339 324Q339 299 337 276T331 230Q332 229 335 225T341 215T348 204T353 197Q361 185 371 179T391 169T413 159T436 144H474Q497 144 518 149T558
159T596 170T635 175Q647 175 653 163T659 140Q659 134 659 131T656 124T651 117T642 106L628 86Q625 84 619 76T604 59T588 41T576 28Q566 17 546 7T504 -10T462 -22T429 -26L301 0Q284 5 263 15T223 38T189 69T170 106V175Q165 209 159 239T152 303L165 384Z"
/>
<glyph unicode="u" glyph-name="u" horiz-adv-x="1062" d="M658 102Q648 102 639 98T620 86T602 72T582 61Q580 59 572 57T553 52Q543 49 535 47T523 43Q522 43 518 40T508 32T499 23T494 17Q492 17 490 16T485 14Q482 13 480 12Q464 5 448 4T418 2Q402 2 387
3T359 12Q323 26 296 32T248 48T212 78T184 140Q184 147 185 163T186 199Q186 219 185 233T184 258Q184 259 183 265T179 278T175 292T172 299V308L186 358Q186 375 179 390T172 420Q172 436 174 449T184 474L177 550V737Q175 744 167 757T148 783T129 807T115
820Q104 826 92 831T68 843T50 859T42 882Q42 899 47 908T60 923T78 929T101 931H141L222 926Q245 926 264 931T303 936Q330 936 348 926T378 900T395 862T400 818V815Q391 786 387 757T382 700T380 642T376 581L364 488L371 460Q371 452 370 448T366 439V263Q366
244 373 233T391 214T412 197T430 176Q430 175 431 166T435 157Q440 154 455 150T486 142T518 136T540 133Q569 133 592 136T631 150T659 178T677 225Q677 227 679 230T684 235Q701 261 708 290T720 351L705 417Q705 427 709 440T718 467T727 495T731 522Q731 542
729 560T722 599Q720 619 716 637T712 673V746Q706 769 689 785T650 813T604 834T560 853T526 876T513 907Q513 911 513 912T518 917Q535 928 547 937T571 954T595 965T623 969H646L726 938Q741 931 763 929T808 923T855 917T896 905T926 882T938 844Q938 842 938
835T937 825Q937 824 934 819T928 807T921 796T918 789Q916 781 912 765T903 732T895 700T890 682V604L880 564Q880 547 882 529T886 493Q892 464 892 429L890 410Q888 403 884 389T874 370V308L881 192Q881 178 878 171T874 152Q874 139 882 123T905 107Q916 107
925 110T944 116T961 123T980 126Q1000 126 1010 113T1021 83Q1021 58 1001 46T952 27T894 15T848 -3Q807 -6 780 -7T722 -9H698Q689 3 685 21T678 58T671 89T658 102Z" />
<glyph unicode="v" glyph-name="v" horiz-adv-x="910" d="M279 443Q279 464 268 476T245 507Q245 509 243 519T240 535Q235 557 231 565T223 578T214 589T200 614Q200 617 199 625T195 642T192 658T189 668Q181 688 172 706T154 742T139 779T131 822Q114 833 92
840T50 857T15 883T1 926Q1 935 7 941T22 951T41 956T60 958L118 948Q175 935 232 926T349 917Q367 917 380 927Q386 930 393 931T409 932Q429 932 444 926T459 896Q459 879 451 871T431 859T404 852T378 843T357 825T349 791Q349 777 352 758T360 716T372 672T385
628L395 592Q395 585 400 571T407 550Q412 539 416 518T426 472T438 422T454 375T477 341T508 327Q516 327 523 331T536 343T546 357T556 370Q560 396 566 415T581 452T599 488T617 529Q622 552 631 576T643 623Q643 625 645 629T650 635Q651 637 657 645T663 656V687Q665
697 671 704T685 719T697 735T703 754L689 778Q688 782 688 808Q688 816 688 823T689 836Q681 837 662 839T623 847T588 861T572 886Q572 902 584 911T617 929Q626 927 636 927T655 927Q668 927 680 927T708 931Q741 936 773 935T838 938Q850 940 858 949T883 958Q908
958 917 946T926 910Q926 892 916 879T889 855T854 835T818 818T787 800T769 778Q765 769 763 756T759 730T755 704T748 682Q746 677 741 665T727 637Q718 620 710 604T698 576Q687 558 678 532T669 483L670 471Q657 454 648 442T632 417T619 392T606 360Q605 357
602 348T596 329T591 311T587 301Q574 274 569 244T554 185Q553 181 547 170T532 142Q524 126 517 112T508 93Q504 85 501 64T493 21T478 -18T452 -35Q431 -35 417 -17T392 27T374 79T361 121Q361 125 356 138T349 152Q340 171 335 188T325 224T318 261T310 301Q308
314 302 330T289 362T277 394T272 424L279 443Z" />
<glyph unicode="w" glyph-name="w" horiz-adv-x="1345" d="M358 149Q336 182 328 212T315 273T302 332T269 393L249 477V516Q249 516 246 521T239 534T230 549T224 559L204 585V637Q204 640 201 646T193 660T184 674T179 682Q165 706 157 736T138 792Q132 805
127 811T114 821T92 826T55 832Q39 835 28 841T17 862Q17 882 25 897T43 926L95 936H115Q144 925 176 919T238 913Q263 913 282 920T325 927Q328 927 335 927T352 925T368 924T377 922Q382 918 388 916T401 910T411 902T415 889Q415 878 410 863T396 834Q389 826
373 819T352 803V782L354 770Q355 758 358 742T364 710T370 679T377 659L397 637Q406 618 411 597T420 554T427 510T435 469L468 410Q471 403 473 390T478 365T488 343T505 334Q517 334 525 343T540 364T551 388T560 405Q560 407 568 415T579 426Q592 442 597 463T607
506T620 548T650 580L652 621Q652 625 652 632T651 646T651 658T650 664L636 695Q632 706 632 718T629 744Q627 755 626 765T622 787Q614 806 599 810T568 819T537 831T513 867V877Q513 886 515 897T522 912Q533 918 553 919T591 920H624Q625 920 632 918T648 914T668
910T684 908L764 927L851 913Q861 913 870 916T890 920Q916 920 930 910T944 874Q944 847 927 837T887 824T839 818T802 803V789Q802 778 805 772T813 759T822 747T828 728V664Q829 660 836 636T852 577T873 505T894 433T910 378T918 355Q925 348 928 347T935 346Q942
346 947 347T960 355Q960 356 961 360T965 368Q972 389 983 408T1007 447T1030 486T1048 526Q1049 527 1049 532T1051 542T1052 552T1053 559Q1062 584 1070 600T1084 637L1089 682Q1096 694 1104 705T1120 727T1133 751T1138 775V784Q1136 807 1124 818T1097 834T1066
844T1043 858L1037 881Q1037 899 1051 908L1055 913Q1056 918 1062 920T1091 922Q1100 922 1105 922T1116 922T1128 921T1146 919Q1179 919 1201 921T1243 926H1247Q1252 926 1265 924T1281 922L1335 924Q1343 924 1350 923T1359 919Q1363 914 1368 913T1375 905V893Q1375
873 1370 863T1361 848Q1353 840 1337 834T1301 821T1265 805T1240 782Q1220 752 1207 725T1182 670T1158 615T1129 557Q1121 540 1112 525T1096 493T1084 459T1079 420L1063 401Q1063 395 1061 385T1056 364T1049 344T1039 330L1025 294L992 223Q982 203 978 189T968
162T956 135T935 102Q925 86 922 71T914 45T899 26T864 19Q845 19 836 22T821 31T810 46T795 69Q797 77 797 83T797 97Q797 120 792 141T780 182T767 222T759 266L752 341Q750 351 742 372T724 416T702 454T683 471Q671 471 662 465T650 452Q648 449 642 436T636
419Q625 373 608 339T570 266L551 239Q551 237 550 231T546 223Q546 222 545 216T543 202T540 188T537 180Q537 179 535 175T529 167T522 159T518 154Q508 131 505 104T494 54T469 16T416 0Q399 0 388 5T373 33L358 149Z" />
<glyph unicode="x" glyph-name="x" horiz-adv-x="997" d="M47 26Q47 37 62 45Q107 62 147 89T222 150T290 220T351 294Q358 303 371 315T397 341T419 370T429 398Q429 405 424 413T413 429T400 445T391 460Q390 463 385 472T375 492T366 513T360 526Q346 531 331
542T303 568T278 597T259 625Q252 638 248 653T239 684T228 715T209 742Q208 743 204 746T195 752T186 759T182 763Q180 765 173 771T158 785T143 799T133 808Q119 820 103 824T74 833T51 849T42 884Q42 891 45 899T53 915T66 927T83 932Q135 938 187 938Q238 938
292 932Q306 927 333 927T386 927T432 917T452 887Q452 873 444 863T425 843T407 823T398 799Q398 776 404 761T421 734T442 708T462 676Q467 667 470 655T477 630T490 610T516 602Q543 602 556 607T578 622T591 647T609 682Q618 702 626 719T635 759Q635 775 629
798T621 841Q598 850 587 863T576 905Q576 911 576 915T581 920Q597 923 612 925T644 927Q659 927 677 925T706 920Q708 919 717 917T734 913Q735 914 739 915T749 919T759 923T766 927Q780 930 791 931T817 932Q828 932 840 931T865 927Q874 922 888 922T916 920T940
912T950 889Q950 873 936 863T902 847T862 835T830 822Q803 801 779 774T728 721Q724 718 718 712T705 700T694 688T689 682Q686 679 678 664T661 631T645 598T635 580Q634 577 629 570T619 556T608 543T602 536V524Q602 498 613 471T642 418T679 366T713 320Q724
307 727 291T739 261L772 234Q776 230 777 224T780 212T785 199T794 189Q821 161 849 137T910 86Q915 81 923 73T938 58T951 45T957 38V26Q940 18 927 12T894 5L806 12L772 10Q767 6 760 6T742 5Q734 5 727 8T713 15T699 22T682 26L581 17Q567 17 564 20T561 38V50Q572
60 582 66T599 79T611 95T616 118Q616 135 607 151T586 182T559 213T536 244Q526 259 526 268T524 284T513 292T476 294H455Q448 294 443 293T429 287Q426 286 417 268T398 228T380 185T372 159Q372 143 372 124T377 92Q381 81 391 76T412 67T430 58T438 40Q438
26 428 18T403 6T374 1T348 0H285Q231 0 173 2T62 10Q47 13 47 26Z" />
<glyph unicode="y" glyph-name="y" horiz-adv-x="1008" d="M125 -472Q125 -463 125 -456T131 -438Q136 -415 152 -400T203 -375Q206 -374 213 -373T227 -370T239 -369T246 -368L283 -375L305 -368Q308 -368 314 -368T331 -367Q349 -367 355 -366T366 -360Q374
-348 379 -339T387 -322T393 -304T399 -280Q399 -279 400 -274T402 -261T404 -248T406 -239Q406 -235 411 -224T422 -201T433 -179T442 -163L435 -121Q446 -103 452 -88T458 -52Q458 -49 457 -45T456 -38Q456 -30 456 -19T454 3T452 22T451 31Q451 34 447 43T439
64T430 85T425 99Q424 101 421 111T415 132T409 154T406 166L374 220Q374 221 373 228T371 243T369 258T366 268Q366 277 364 290T361 304Q360 307 356 312T346 322T335 331T330 336L316 372L283 419L246 514Q245 516 241 525T236 536Q234 538 230 541T226 547Q225
548 224 556T223 573T222 589T221 599Q217 615 209 633T192 670T174 707T157 740Q157 742 155 750T151 761Q151 764 147 769T137 777Q108 800 76 813T8 843L-1 856Q-5 864 -13 868T-22 879Q-22 914 -10 924T22 934Q37 934 51 929T82 915Q85 915 94 916T115 917Q126
917 136 916T151 915L177 905H203Q204 905 211 906T227 909T243 912T252 915Q258 918 268 920T289 925T306 928T316 929H361L388 934Q397 934 409 931T432 921T450 908T458 893Q458 885 456 870T447 846Q431 829 414 822T388 813L371 808Q364 805 356 806T340 801Q341
793 344 782T351 759T358 740T361 730Q362 720 366 712T376 696T386 680T394 663L406 599Q408 585 416 573T433 549T451 525T463 498Q463 497 463 489T464 472T466 455T468 446Q468 445 474 436T482 426Q483 424 487 415T494 403L509 372Q511 365 516 355T525 344Q532
333 540 329T556 324Q561 324 570 328T584 344Q587 348 591 352Q599 360 603 363L605 369Q606 371 607 373T608 377Q620 407 631 438T653 503Q653 506 655 516T662 531Q662 532 662 537T663 548T665 560T667 567L682 609Q683 610 684 615T686 625T687 635T688 642Q691
652 697 662T710 681T721 699T726 720Q724 724 721 731T715 740V782Q715 784 708 793T696 804Q692 806 685 809T668 816T651 821T637 825Q627 825 623 828T617 832L584 856Q579 870 579 879Q579 892 584 902T596 924Q609 931 620 933T641 936T658 938T672 943L696
946Q698 946 707 946T728 944T748 943T760 941L793 934Q816 934 834 941T876 955H899Q899 957 908 958T921 960Q921 962 923 962T928 962Q937 962 952 958T983 947T1009 931T1020 912Q1020 900 1013 895T999 882L961 851Q949 840 937 835T913 826T886 821T857 815Q840
789 829 762T804 709Q804 704 802 697T798 687Q798 686 798 682T796 672T795 661T793 656Q793 654 790 649T782 638T775 626T771 619V567Q770 566 767 561T761 549T754 537T748 531Q734 505 715 475T688 413V377Q688 375 685 367T679 358Q668 337 665 319T653 284L624
225Q620 205 619 184T618 142T617 99T613 57Q611 32 597 8T572 -38Q570 -40 567 -43T563 -48Q559 -54 555 -67Q553 -73 551 -80Q550 -86 549 -99T548 -126T547 -152T546 -170Q536 -178 532 -193T525 -226T521 -261T515 -291L487 -327Q485 -329 484 -340T482 -355Q479
-358 475 -365Q471 -371 465 -382T451 -412Q451 -413 449 -418T444 -430T439 -443T435 -450Q431 -464 424 -468T406 -481Q400 -486 397 -489T392 -496T388 -502T380 -512Q366 -530 348 -533T310 -543L290 -559Q278 -563 267 -563T246 -564Q227 -564 206 -558T167
-539T137 -510T125 -472Z" />
<glyph unicode="z" glyph-name="z" horiz-adv-x="948" d="M431 0Q420 0 410 3T389 9T369 16T346 19Q320 19 293 16T235 12Q221 12 210 12T189 14T167 17T142 21L116 24Q102 31 89 45T76 78V92L145 161L180 216Q184 223 187 224T194 226T201 227T211 235Q223 252
229 269T246 301Q259 322 267 342T277 386Q300 404 319 420T355 453Q370 469 382 484T406 512Q419 554 436 590Q440 601 452 611T470 633Q477 645 477 655T486 676L519 690Q522 692 525 702T533 725T539 750T543 768Q552 775 555 792T559 818Q559 825 553 830T539
840T522 846T507 848Q493 849 480 850T455 851L401 848Q390 841 378 839T351 837H277Q250 836 223 821T172 786T126 744T88 709L76 708Q67 708 61 719T54 740L142 919Q143 921 148 923T159 931H168Q179 927 183 926T191 924T199 924T214 920Q233 917 249 916T280
913T310 912T342 912Q367 912 388 920T432 929Q560 904 692 901Q717 901 739 909T785 917Q793 917 805 916T830 910T851 897T860 877L858 870Q836 841 817 807T775 746Q749 717 731 687T702 619L631 552L614 507L569 464Q552 447 542 430T523 396T508 361T489 324L458
289Q449 266 434 249T408 218Q397 200 391 181T375 142Q374 140 374 139V135Q374 110 393 102T434 92Q447 90 463 88T495 85T526 82T555 81Q627 81 685 103T794 173Q806 185 813 193T828 209T844 222T868 235Q873 235 883 229T894 218Q894 210 891 198T886 178Q884
138 878 96T863 12Q850 -8 827 -11T775 -14Q745 -14 715 -10T656 0T598 9T540 14L431 0Z" />
<glyph unicode="{" glyph-name="braceleft" horiz-adv-x="831" d="M436 -167Q436 -160 436 -149T437 -127Q437 -115 438 -101L533 87V106Q533 166 511 222T438 317Q429 324 414 335T383 356T357 375T344 384L76 479Q62 484 61 493T59 511Q59 534 74 546T112 566T157
576T197 585Q219 593 250 605T314 632T379 666T437 707T478 756T494 812Q494 848 491 889T479 962Q471 993 459 1021T436 1078T418 1135T410 1199Q410 1254 430 1308T486 1405T571 1476T680 1503Q699 1503 720 1501T760 1492T791 1470T803 1431Q803 1426 803 1417T801
1406Q789 1378 765 1367T711 1352T650 1346T592 1334T550 1302T533 1234Q533 1175 552 1122T594 1017T636 912T655 800Q655 780 654 767T641 735Q604 688 566 656T485 602T394 563T291 532Q288 530 284 526T277 520V511Q277 498 307 485T381 455T478 413T575 355T650
273T680 161Q680 114 668 73T638 -7T599 -86T559 -169Q559 -170 558 -178T554 -196T550 -217T547 -234Q547 -236 546 -238T545 -242L547 -248Q548 -256 550 -269T554 -294T557 -317T559 -328Q559 -330 564 -335T573 -343Q577 -345 585 -349T602 -358T618 -366T627
-369Q635 -371 656 -375T700 -384T745 -391T774 -396Q797 -404 800 -418T803 -449Q803 -483 785 -507T729 -531Q686 -531 643 -514T563 -469T497 -404T453 -328Q446 -311 443 -290T438 -248T436 -205T436 -167Z" />
<glyph unicode="|" glyph-name="bar" horiz-adv-x="498" d="M208 -427V-365Q208 -287 206 -210T198 -57Q196 -25 191 8T186 80L203 125Q203 140 195 152T186 185Q190 233 191 271T192 346Q192 372 191 401T187 460V562Q178 599 174 633T170 699Q170 738 173 774T186
853Q184 857 179 870T172 893L186 943Q186 954 179 969T172 1003L179 1119L163 1462Q163 1471 166 1485T186 1502Q200 1504 210 1505T231 1507Q250 1507 261 1502T284 1493Q284 1489 286 1473T289 1448Q292 1448 294 1438T298 1417V1396L308 1349L282 1211L298
1088L289 1043Q293 1028 295 1020T299 1007T301 1000T301 996Q301 981 299 975T289 958Q296 950 301 925T311 870T317 813T319 775L298 633Q298 620 301 606T308 578T315 550T319 524Q319 508 316 491T309 457T302 424T298 393Q298 364 306 333T314 270L308 232Q308
202 308 186T308 161T307 150T307 144Q310 139 315 115T327 63T337 9T341 -26L326 -85Q326 -103 329 -112T333 -131L312 -273Q312 -299 318 -321T326 -375Q315 -378 315 -393V-396Q315 -405 314 -416T307 -437T289 -453T255 -460Q238 -460 228 -455T208 -427Z"
/>
<glyph unicode="}" glyph-name="braceright" horiz-adv-x="837" d="M12 -450Q12 -448 12 -445T13 -438Q13 -434 14 -431Q31 -401 58 -388T115 -368T175 -359T230 -347T270 -317T285 -255Q285 -202 275 -146T244 -40Q230 -7 218 17T195 65T180 114T174 173Q174
210 185 239T215 292T259 336T311 378Q322 381 350 390T411 409T471 429T512 443Q515 444 523 448T539 456T555 465T565 472Q559 481 548 487T526 499Q479 518 431 534T339 572T256 623T189 699Q185 706 179 718T166 744T155 767T150 781Q149 781 149 786T148 797T148
811T148 822Q148 882 169 936T216 1042T263 1149T285 1263Q285 1304 266 1323T218 1350T156 1361T94 1370T46 1393T27 1445Q27 1466 35 1480T57 1504T89 1517T129 1521Q182 1521 221 1497T297 1439Q330 1410 351 1378T384 1310T401 1235T406 1152Q406 1104 391
1071T358 1006T324 940T309 855Q309 801 332 760T390 687T469 628T553 579Q574 567 610 558T684 539T749 521T780 499Q784 486 774 474T747 450T708 429T666 411T629 398T606 390Q565 375 528 358T456 318T393 267T338 202Q335 199 331 189T324 175V169V161Q326
145 330 119T339 67T347 22T350 1Q351 -3 357 -15T370 -40T383 -66T391 -81Q398 -96 401 -106T406 -125T407 -146T406 -175Q406 -180 406 -189T406 -206T406 -220T404 -228Q403 -240 400 -261T392 -305T384 -344T377 -364Q375 -369 362 -383T331 -415T296 -447T270
-470Q265 -474 254 -480T230 -493T205 -505T189 -511Q188 -511 182 -511T167 -512T151 -512T137 -513Q120 -513 99 -512T58 -504T25 -485T12 -450Z" />
<glyph unicode="~" glyph-name="asciitilde" horiz-adv-x="1120" d="M172 497Q172 519 178 534T196 561T221 585T252 609Q254 609 260 617T269 626Q274 629 283 635T302 648T318 659T326 664H357Q359 664 366 665T383 668T400 672T413 676Q415 676 421 677T433
679T445 682T451 683Q454 683 466 681T494 676T525 670T549 664Q564 660 571 655T585 646T602 638T632 635Q661 635 690 643T748 664T802 695T849 732H895Q902 732 904 721T906 701V695Q906 686 906 681T905 672T902 661T895 645Q882 610 869 589T838 553T795 530T733
510Q715 505 703 500T679 491T654 484T620 481H568Q551 483 538 489T512 503T483 515T446 521Q412 521 382 518T319 500Q305 495 293 486T268 467T241 450T210 443Q202 443 195 448T183 462T175 480T172 497Z" />
<glyph unicode="&#xa0;" glyph-name="space" horiz-adv-x="447" />
<glyph unicode="&#xa1;" glyph-name="exclamdown" horiz-adv-x="544" d="M362 1190Q362 1161 355 1133T324 1086Q321 1086 315 1086T302 1086T288 1085T279 1085Q258 1085 238 1089T202 1103T177 1130T167 1173Q167 1228 191 1254T272 1280H291Q303 1280 315 1278T333
1268Q335 1265 339 1257T348 1239T357 1222T362 1211V1190ZM352 789V768Q352 757 351 730T349 672T346 614T343 576Q333 572 333 559V550Q333 536 337 523T346 496T356 468T362 441V315Q362 313 363 309T366 301T369 292T371 287Q372 282 374 273T377 255T380 238T381
228V147V66Q379 57 373 47T359 27T342 12T324 5Q322 5 316 7T304 11T291 15T283 17Q281 17 274 13T266 5H257H247Q238 12 226 20T203 39T183 60T170 85Q169 88 169 96T168 115T167 134T167 147Q167 153 167 163T167 183T168 200T170 209Q170 213 172 231T178 271T185
312T189 336Q189 340 189 362T188 405Q188 427 189 431Q189 434 190 441T192 455T194 469T196 479V836Q196 843 197 857T201 887T205 915T208 932Q211 946 223 958T252 971H257Q308 936 330 895T352 789Z" />
<glyph unicode="&#xa2;" glyph-name="cent" horiz-adv-x="1058" d="M205 -171Q219 -142 233 -112T263 -47Q270 -33 272 -20T276 -2Q276 9 281 15T291 25T300 35T305 48Q305 72 290 93T254 135T211 173T175 208Q173 237 165 266T147 324T131 381T123 439Q123 452
134 455Q135 467 135 481T135 509Q135 548 139 589T168 666Q170 666 186 684T221 725Q242 751 269 784Q284 828 318 850T393 885T480 905T561 929T622 976T646 1064V1078L663 1095L715 1211Q718 1218 727 1218Q766 1218 788 1204T810 1161V1137L734 941Q734 937
746 927T777 903T818 870T858 829T889 782T902 730Q902 722 895 711T879 688T861 669T846 659Q826 651 812 649T786 647Q768 647 758 652T744 665T738 685T737 711Q737 723 736 734T731 755T717 773T689 787Q678 765 665 735T640 674T616 612T599 561V531Q597 527
595 518T590 507Q571 476 554 444T524 378T502 308T494 234Q494 211 505 199T533 180T569 173T606 171H641L646 183L757 244Q764 247 774 266L874 344Q883 352 887 353T902 355Q923 355 935 342T947 308Q947 294 938 281T916 253T891 224T874 192Q838 162 813 138T761
94T705 59T628 33Q623 32 613 29T590 21T566 13T545 9Q523 9 506 17T469 26Q451 26 435 16T405 -9T383 -41T371 -73V-118Q368 -127 357 -145T332 -183T303 -216T276 -230H269L205 -171ZM340 337Q348 333 353 333T364 332Q391 332 399 343T410 369T416 398T438 419Q442
425 446 448T450 493Q461 515 476 550T506 622T530 695T540 751Q540 762 525 764T492 766H464Q420 766 390 747T341 698T314 629T305 552Q305 531 313 517T322 484L310 434Q310 408 320 386T340 337Z" />
<glyph unicode="&#xa3;" glyph-name="sterling" horiz-adv-x="1418" d="M497 249V282Q497 284 492 288T485 292Q482 293 474 295T457 299T441 303T430 306H296Q273 313 268 322T262 353V370Q262 379 264 387T274 403Q277 406 283 411T296 421T309 431T317 438Q325
440 344 443T384 450T424 456T450 460H476H485Q486 460 491 464T504 473T518 484T530 493Q534 496 542 504T551 514Q555 522 563 538T581 572T597 605T608 626Q609 629 612 642T618 670T625 698T629 714Q630 717 635 727T645 748T656 770T661 782Q664 788 672 812T690
865T708 917T719 948Q719 950 722 955T729 966T736 976T741 983Q761 1023 775 1066T808 1149Q809 1151 812 1156T819 1166T826 1177T829 1183Q832 1188 836 1196T841 1206Q842 1207 843 1215T846 1232T849 1250T852 1259Q854 1262 863 1272T884 1293T906 1314T919
1327Q920 1329 923 1335T929 1349T936 1363T942 1372Q942 1373 947 1378T957 1388T968 1399T975 1406Q976 1407 979 1413T985 1427T992 1441T995 1450Q999 1454 1011 1466T1037 1492T1065 1519T1085 1540Q1087 1541 1095 1544T1106 1550Q1109 1550 1113 1555T1120
1560Q1135 1572 1149 1581T1179 1599T1209 1618T1243 1642Q1273 1653 1300 1657T1352 1661Q1381 1661 1408 1658T1464 1650Q1479 1641 1491 1632Q1502 1624 1512 1617T1530 1604Q1532 1604 1535 1600T1540 1593Q1547 1586 1556 1576T1575 1554Q1586 1542 1597 1528V1505Q1597
1483 1596 1467T1587 1427Q1582 1417 1562 1408T1518 1390T1472 1377T1440 1372Q1417 1372 1399 1383T1364 1408T1331 1434T1296 1450Q1296 1450 1291 1450T1279 1450T1266 1451T1255 1451Q1248 1451 1234 1451T1219 1450Q1217 1450 1213 1447T1203 1440T1192 1432T1186
1427Q1169 1417 1154 1402T1124 1368T1097 1331T1075 1296Q1069 1285 1059 1266T1038 1227T1019 1191T1009 1171Q1001 1157 998 1144T994 1118T991 1091T985 1059Q985 1057 982 1051T975 1038T967 1025T962 1016Q962 1014 961 1006T958 989T955 971T952 960Q951
959 948 954T942 944T935 933T930 927Q905 883 893 840T862 751Q842 696 825 643T807 529V517Q807 509 809 502T819 493H885Q907 493 925 495T960 499T994 503T1033 505Q1044 505 1060 502T1092 493T1119 476T1130 450Q1130 440 1125 429T1111 407T1093 387T1075
370Q1057 372 1040 373T1004 374Q948 374 894 367T784 349Q780 346 771 337T751 317T731 296T719 282Q716 279 708 263T690 227T672 191T661 170Q661 168 656 162T646 149T635 135T629 126Q628 125 627 120T624 110T621 99T618 93Q617 88 609 72T591 38T573 3T561
-17Q560 -20 556 -32T546 -57T536 -82T530 -95Q528 -100 525 -107T518 -121T511 -134T507 -142Q502 -148 495 -154T480 -168T467 -183T461 -202V-205Q461 -208 464 -208Q480 -230 500 -244T551 -263H608H629Q637 -263 650 -263T677 -267T702 -277T719 -296Q725
-297 742 -299T780 -303T817 -306T841 -308H879Q925 -308 962 -304T1029 -288T1084 -251T1130 -185Q1138 -169 1140 -152T1142 -118V-102Q1142 -77 1137 -58T1122 -21T1101 12T1075 48Q1070 55 1062 66T1047 88T1035 107T1030 116Q1029 120 1029 124Q1028 127 1028
130T1028 135Q1028 152 1031 162T1052 173Q1052 173 1058 171Q1060 170 1063 170Q1065 169 1073 164T1091 152T1113 138T1130 126Q1130 125 1135 122T1142 116Q1146 109 1159 91T1186 54T1213 17T1231 -7Q1231 -11 1232 -20T1234 -41T1237 -62T1238 -76Q1238 -82
1238 -93T1239 -114T1240 -133T1241 -144Q1240 -154 1237 -171T1230 -206T1223 -236T1219 -253Q1217 -256 1208 -267T1187 -291T1166 -315T1153 -329Q1149 -333 1141 -346T1130 -363Q1130 -365 1127 -371T1120 -385T1112 -399T1106 -407Q1105 -408 1101 -410T1091
-413T1081 -416T1075 -419Q1072 -419 1063 -424T1042 -434T1022 -445T1009 -452Q1006 -452 998 -454T980 -457T962 -460T952 -462Q950 -464 941 -468T930 -476Q925 -476 905 -475T866 -474Q845 -474 841 -476Q839 -476 833 -477T819 -481T806 -484T798 -486Q795
-485 789 -482T775 -474T760 -467T751 -462H705H686Q648 -453 612 -440T540 -414T467 -393T388 -384Q385 -384 381 -384T373 -385Q369 -386 364 -386Q362 -386 358 -391T351 -402T344 -413T340 -419Q310 -462 272 -490T179 -519H153Q150 -518 144 -515T131 -509T116
-502T106 -497Q103 -494 97 -489T86 -479T77 -469T73 -462Q65 -432 65 -405Q65 -378 73 -351Q73 -350 77 -346T86 -337T97 -327T106 -318Q112 -314 122 -307T143 -294T162 -282T174 -275Q177 -273 190 -271T218 -267T247 -264T264 -263Q265 -261 274 -257T284 -253Q286
-252 294 -249T311 -242T329 -234T340 -228Q341 -228 345 -220T352 -208Q369 -166 386 -126T418 -42Q428 -10 434 21T450 81Q466 124 481 164T497 249Z" />
<glyph unicode="&#xa4;" glyph-name="currency" horiz-adv-x="1037" d="M115 339Q115 349 128 370T158 413T194 453T222 477V490Q222 491 224 500T227 514Q224 529 217 545T203 580T190 618T184 661V727Q190 732 198 750T213 789T226 829T231 856Q231 866 221
879T197 906T170 931T151 951Q148 952 141 960T125 979T109 999T99 1012Q106 1044 131 1058T182 1073Q192 1073 199 1069T212 1059T225 1049T243 1043Q248 1030 256 1015T275 987T301 964T333 955H345Q364 963 386 973T431 993T478 1008T525 1014H539Q549 1014
551 1012Q555 1006 575 997T621 980T671 966T705 960Q718 960 729 966T749 980T765 997T781 1012L852 1076H881Q883 1076 888 1072T898 1061T909 1047T916 1036Q916 1035 916 1023T917 1007L916 977Q913 971 907 967T892 958T875 951T862 943Q858 940 849 929T829
905T811 879T802 862V860Q802 844 811 827T832 790T852 752T862 711L852 619Q850 619 847 611T841 591T835 569T831 555Q822 549 818 545T812 540Q805 534 805 522Q805 514 806 503T810 483T816 468T822 462L852 450Q870 438 887 410T917 355Q922 350 923 347T924
341Q924 332 918 322T903 303T884 288T864 282Q859 284 852 286T838 292T827 297T822 299L725 391Q721 393 715 395T703 398H701Q680 395 661 386T621 368T579 351T530 344Q526 344 523 345T514 355H502Q459 355 425 363T364 384Q354 388 350 391T344 398T339 403T329
405Q319 405 303 386T266 344T218 301T163 282Q143 286 129 302T115 339ZM393 509L416 484Q434 479 450 475Q464 471 478 468T501 462H521Q587 462 632 487T710 573Q712 576 717 584T730 601T743 620T753 635L744 678L753 714V727Q745 748 735 763T715 792T693
818T672 849Q670 851 669 853T665 856Q649 859 636 864T611 876T584 891T551 908Q540 906 518 902T471 893T424 884T393 877Q378 864 366 845T334 817L286 711V625Q291 622 302 607T323 573T342 539T350 517L393 509Z" />
<glyph unicode="&#xa5;" glyph-name="yen" horiz-adv-x="1493" d="M446 125Q446 138 454 151T477 164H549Q551 172 556 175T568 178Q579 178 585 178T594 180T599 181T606 182Q621 182 631 194T647 222T655 254T658 280L660 324Q660 338 659 353T653 380T639 399T613
407Q574 409 553 410T520 413T504 416T497 417Q475 417 468 414T461 407Q439 404 419 403T378 401Q335 401 293 407Q282 407 280 421T278 446Q278 453 279 465T285 488T297 508T316 517Q343 517 358 517T380 516T391 515T397 514H418Q425 514 435 515T458 517Q471
517 477 512L536 524L582 510Q592 510 604 511T627 517T644 530T651 552Q651 563 649 586T641 634T624 676T593 694Q588 694 577 686T563 678Q559 678 543 680T520 683Q518 683 515 687T511 694H430Q430 683 414 683L340 694L293 683Q289 688 281 700T273 727Q273
737 278 748T290 771T306 793T323 813Q327 815 330 815T337 815Q351 815 359 811T382 806H394Q405 806 411 808T425 818H534Q542 818 542 827Q542 829 537 837T523 857T504 881T485 905T470 926T461 939Q447 971 433 1004T395 1064L369 1093L352 1123Q344 1136
329 1156T295 1197T259 1235T228 1259Q207 1271 181 1272T131 1278T91 1296T75 1344Q75 1357 85 1366T110 1382T140 1390T167 1393Q177 1393 184 1390T196 1384T206 1376T221 1370Q222 1370 231 1372T243 1377L293 1370L338 1393L454 1382L529 1393Q543 1393 560
1390T593 1378T618 1356T629 1323V1311Q618 1305 605 1297T578 1282T548 1271T520 1266V1263Q520 1225 536 1193T574 1131T618 1070T651 1005L672 990Q680 985 681 980T686 953Q689 947 694 937T704 916T715 896T722 882Q726 874 733 861T747 836T763 815T778 806Q783
806 795 818Q822 846 838 868T866 911T892 956T928 1012Q942 1034 965 1061T1011 1117T1050 1177T1067 1240Q1067 1248 1060 1254T1042 1266T1021 1274T1004 1277L973 1285Q963 1298 957 1305T948 1316T945 1321T944 1323Q944 1332 949 1341T963 1358T980 1374T997
1386Q1011 1386 1018 1385T1032 1382Q1036 1382 1041 1385T1051 1393Q1065 1394 1076 1395T1098 1396Q1111 1396 1124 1395T1151 1393Q1161 1385 1165 1384T1181 1382Q1183 1382 1192 1387T1205 1393Q1207 1393 1215 1392T1232 1388T1250 1384T1262 1382Q1266 1382
1273 1385T1283 1393Q1317 1393 1350 1386T1399 1377Q1412 1370 1423 1352T1435 1318Q1435 1308 1421 1299T1388 1282T1352 1271T1328 1266L1286 1277L1234 1240Q1204 1216 1184 1195T1147 1152T1115 1107T1079 1054Q1059 1026 1034 999T985 943T938 886T902 825Q908
820 921 817T950 811T984 808T1018 806H1055Q1069 806 1082 812T1112 818Q1155 818 1176 795T1198 730Q1198 714 1197 708T1189 699Q1162 694 1147 689T1110 683Q1078 683 1048 691T985 699Q963 699 943 691T902 683L856 694Q854 690 851 683T843 667T837 652T833
642L837 531Q844 531 848 534T856 542T862 550T871 554Q878 554 889 551T913 542T936 532T956 524Q970 527 982 527T1006 528L1056 526Q1076 526 1094 526T1131 524Q1137 524 1148 519T1170 508T1189 495T1198 488V429Q1198 426 1190 422T1172 415T1154 410T1144
407H1077L959 417Q951 417 945 415T932 409T914 404T890 401Q888 401 878 404T863 407Q858 407 850 405T840 401L833 325Q833 297 836 279T846 246T866 219T899 190L999 176Q1009 174 1021 171T1043 161T1060 145T1067 123Q1067 107 1059 94T1037 81Q1017 70 998
68T961 66Q914 66 863 81Q840 70 812 68T755 66H710L601 73Q588 73 579 70T562 63T546 56T527 52Q512 52 498 57T472 72T453 95T446 125Z" />
<glyph unicode="&#xa6;" glyph-name="brokenbar" horiz-adv-x="564" d="M180 -130Q180 -110 172 -89T163 -54Q163 -31 171 -10T180 35Q180 45 178 53T173 69Q163 89 163 112Q163 150 173 188T184 268V285Q202 308 222 321T268 334Q293 334 315 326T355 301T381
264T391 216Q391 205 388 192T384 164Q384 153 384 141T388 118Q391 89 391 62V29Q391 16 390 6T384 -12Q379 -30 378 -49T377 -85Q377 -103 378 -119T384 -156Q393 -171 394 -179T396 -204Q396 -218 394 -237T384 -273T364 -302T332 -315Q302 -315 271 -308T215
-286T174 -246T158 -185V-182Q158 -181 161 -175T167 -163T174 -151T177 -144L180 -130ZM180 981Q180 1001 172 1022T163 1062Q163 1085 171 1105T180 1149Q180 1158 178 1165T173 1183Q168 1192 166 1203T163 1225Q163 1264 173 1300T184 1379V1401Q202 1422 222
1433T268 1445Q293 1445 315 1437T355 1415T381 1379T391 1332L384 1278Q384 1265 384 1254T388 1227Q391 1203 391 1173V1140Q391 1131 390 1119T384 1099Q379 1080 378 1062T377 1029Q377 1011 378 993T384 957Q393 943 394 933T396 910Q396 896 394 877T384
839T364 809T332 796Q302 796 271 803T215 825T174 866T158 929Q158 932 161 938T167 951T174 963T177 971L180 981Z" />
<glyph unicode="&#xa7;" glyph-name="section" horiz-adv-x="742" d="M62 -202Q62 -174 76 -157T112 -131T160 -118T209 -114Q225 -114 240 -117T270 -124T300 -131T333 -135H352Q354 -132 358 -124T367 -106T376 -89T382 -76V-35V-17Q382 1 380 24T371 59Q369
62 361 70T342 87T324 105T314 116Q311 119 306 127T294 144T282 161T276 173Q275 174 274 178T271 188T268 197T266 202Q263 204 256 207T247 213Q230 224 220 237T202 265T190 296T177 329Q176 332 171 342T159 366T147 390T141 405Q137 410 133 421T129 434Q129
438 130 458T131 497Q131 517 129 521Q129 523 127 530T121 545T114 560T110 569V574V578Q111 581 112 588T115 603T118 617T119 626Q132 674 139 719T160 810Q160 812 162 817T168 829T174 841T177 848Q205 916 234 983T303 1105T402 1193T548 1227Q572 1227 596
1221T639 1202T669 1168T681 1119Q681 1033 593 1033Q586 1034 581 1036Q576 1038 572 1039T565 1043Q561 1044 547 1049T517 1060T486 1073T468 1081H463Q459 1081 442 1072T406 1052T370 1030T352 1014Q350 1010 347 1000T344 984Q341 984 341 981T340 976Q340
940 357 909T398 848T449 793T497 742Q584 637 593 502V467V375Q593 375 594 370T598 358T601 345T603 337V324Q603 303 595 282T584 240Q583 239 582 231T579 213T576 195T574 183Q566 154 554 120T525 59Q511 34 506 7T487 -48Q461 -92 435 -121T371 -183Q350
-202 329 -224T283 -264T232 -295T172 -308Q128 -308 102 -280T62 -211V-202ZM209 626Q210 624 212 618T218 603T223 588T228 578Q228 575 227 558T226 524Q226 516 226 510T228 502Q228 500 233 495T244 483T257 472T266 464Q285 440 299 412T329 356T362 304T408
261Q410 261 411 260T414 259Q439 259 453 271T475 301T485 340T487 382Q487 407 480 428T461 468T439 508T420 550Q418 552 415 560T409 579T404 597T401 607Q399 609 395 614T385 626T376 638T371 645Q370 648 366 656T357 675T348 693T344 704Q342 705 337 711T326
725T313 741T302 754Q297 762 296 763T283 765Q275 765 268 759T254 745T242 728T235 713Q233 708 229 697T221 671T213 645T209 626Z" />
<glyph unicode="&#xa8;" glyph-name="dieresis" horiz-adv-x="1076" d="M266 1276Q266 1287 268 1296T273 1317Q281 1340 292 1356T333 1373Q356 1373 377 1365T414 1344T439 1311T449 1269Q449 1255 446 1238T435 1207T416 1182T388 1172Q348 1172 320 1187T269
1234L266 1276ZM627 1271Q627 1280 629 1290T634 1310Q638 1335 652 1354T696 1373Q720 1373 741 1365T777 1342T802 1308T812 1267Q812 1252 808 1235T796 1203T776 1178T748 1168Q709 1168 681 1186T632 1231L627 1271Z" />
<glyph unicode="&#xa9;" glyph-name="copyright" horiz-adv-x="1557" d="M499 1045Q516 1062 530 1080T565 1112Q587 1132 614 1142T665 1166Q707 1166 745 1175T819 1185Q833 1185 845 1184T871 1180Q908 1167 938 1160T999 1150Q1015 1150 1019 1157T1032 1175Q1058
1175 1058 1150L1063 1105V1048Q1063 1033 1068 1013T1074 977Q1074 971 1074 964T1072 950Q1069 939 1065 933T1058 924Q1056 922 1053 922Q1042 922 1036 931T1027 945Q1027 955 1023 958T1018 972Q1012 993 1001 1012T971 1045Q953 1058 938 1077T907 1107Q880
1124 855 1131T805 1138Q798 1139 780 1134T743 1122T708 1108T690 1100Q655 1077 623 1047T565 972Q552 932 549 910T546 870Q546 848 545 831T539 796L536 759L551 645Q572 610 587 589T613 556T628 535T636 519Q661 505 677 494T702 476T716 466T721 462L792
436Q816 435 830 435T852 434T863 433T869 432Q873 430 886 434T914 446T938 462T946 476Q955 477 966 488T988 512T1008 539T1022 557Q1025 561 1029 568T1039 582T1050 594T1061 600Q1071 600 1075 590T1080 574Q1078 548 1076 538Q1074 531 1072 526Q1057 493
1047 476T1028 447T1005 424T971 393Q963 384 958 381T935 375Q899 360 879 351T847 338T830 333T818 332Q808 332 796 333T766 336Q759 336 747 337T721 340T696 343T681 346Q667 341 648 347T611 363T580 382T567 393Q529 429 509 450T487 476Q467 516 450 541T425
592Q425 592 425 595T424 609T421 643T416 706L408 777Q414 825 418 862T430 920L442 960Q456 971 463 991T477 1028L499 1045ZM195 362Q176 395 158 430T124 501T100 576T91 652V694Q91 743 92 792T102 890T126 985T171 1076L295 1272Q328 1312 372 1348T465 1412T561
1456T651 1472L719 1460Q735 1460 744 1461T773 1472H854Q888 1472 916 1470T970 1462T1022 1441T1077 1403L1188 1289L1255 1256Q1288 1234 1301 1202T1321 1135T1337 1066T1368 1007Q1389 984 1404 972T1429 949T1447 922T1459 875Q1461 854 1463 827T1466 771T1467
715T1468 664V635Q1466 619 1461 599T1449 557T1432 516T1413 479Q1413 477 1411 474T1407 467Q1402 446 1393 412T1371 342T1347 277T1323 237Q1316 235 1311 232Q1306 230 1303 228T1298 225Q1265 212 1241 195T1195 159T1154 124T1110 93Q1087 81 1059 75T1003
63T946 49T894 26H797Q716 26 656 37T547 68T458 117T377 184T294 266T195 362ZM181 787Q181 765 187 731T203 657T227 575T255 493Q271 460 292 429T335 372T378 324T416 289Q439 273 464 254T518 215T579 179T648 152Q695 139 741 135T833 130Q867 130 894 130T944
131Q960 131 979 138T1027 159Q1025 159 1031 162T1047 171T1064 180T1074 187Q1097 199 1111 205T1136 220T1158 241T1186 275Q1207 303 1227 323T1265 363T1296 408T1314 471Q1317 473 1320 484T1327 510Q1331 526 1333 545Q1341 570 1347 590T1359 629T1366
670T1369 720Q1369 753 1367 784T1358 842T1335 892T1293 931L1278 950Q1278 998 1271 1029T1250 1083T1218 1127T1181 1175Q1147 1216 1119 1240T1064 1278T1014 1299T962 1314T904 1334T835 1370L645 1391Q644 1391 629 1385T592 1368T548 1347T510 1325Q478
1304 443 1268T372 1186T304 1088T245 982T202 879T181 787Z" />
<glyph unicode="&#xaa;" glyph-name="ordfeminine" horiz-adv-x="780" d="M285 1016Q285 1001 295 994T318 982T346 976T371 972Q385 972 400 980T421 998Q423 1002 426 1008T433 1020T438 1030T441 1037V1126L436 1136H424Q406 1136 391 1127T360 1107Q356 1105
350 1101T339 1092T329 1083T323 1079Q321 1078 314 1068T304 1051Q302 1050 301 1047T300 1042Q298 1040 292 1032T285 1022V1016ZM429 915Q417 915 407 904T389 886Q388 886 385 885T379 881Q355 871 332 858T283 844H262Q260 845 255 846T247 850Q245 850 236
851T224 854Q220 855 213 856T204 858Q196 863 187 876T169 904T155 935T149 962Q149 978 154 993T163 1022Q183 1052 202 1074T253 1115Q254 1117 264 1121T276 1126Q283 1130 290 1135T305 1147T320 1157T332 1163Q333 1164 339 1164T351 1166T363 1167T371 1168Q374
1170 377 1173Q379 1175 381 1176T384 1178Q386 1179 394 1183T412 1191T430 1200T441 1206Q455 1215 457 1233T460 1265Q460 1297 451 1323T421 1376Q419 1379 414 1384T407 1389H366Q358 1381 347 1375T332 1361Q324 1346 316 1329T304 1295Q301 1293 295 1289T283
1281T270 1272T262 1267Q260 1267 250 1267T233 1266Q231 1266 220 1266T204 1267Q190 1276 176 1289T162 1321Q162 1341 170 1352T191 1380Q196 1388 199 1393T210 1403Q214 1406 217 1407T224 1408T232 1409T243 1412Q245 1413 254 1418T275 1429T296 1440T308
1446Q311 1448 322 1449T336 1450Q355 1455 372 1462T409 1470H417Q446 1465 478 1458T535 1431Q539 1428 550 1418T562 1403Q564 1401 565 1390T567 1376Q567 1374 569 1368T574 1354T579 1341T582 1332Q582 1312 583 1294Q584 1278 584 1262T585 1235V1232V1229L583
1225Q582 1224 582 1222V1220Q580 1218 579 1213T577 1206Q576 1204 575 1194T574 1171T573 1149T572 1136Q572 1134 570 1129T567 1122Q565 1110 564 1101T563 1083T562 1065T562 1044V1009Q564 1005 567 997T572 985Q579 968 598 964T637 958T673 949T689 921Q689
910 679 895T653 867T622 844T594 834H582Q580 834 574 836Q570 837 567 839Q565 839 558 839T543 841T528 842T519 844Q508 848 496 859T472 883T449 905T429 915Z" />
</font>
</defs>
</svg>
