<?xml version="1.0" standalone="no"?>
<!DOCTYPE svg PUBLIC "-//W3C//DTD SVG 1.1//EN" "http://www.w3.org/Graphics/SVG/1.1/DTD/svg11.dtd">
<svg xmlns="http://www.w3.org/2000/svg">
<defs >
<font id="Share" horiz-adv-x="426" ><font-face
    font-family="Share"
    units-per-em="1000"
    panose-1="2 0 8 6 4 0 0 2 0 4"
    ascent="885"
    descent="-242"
    alphabetic="0" />
<glyph unicode=" " glyph-name="space" horiz-adv-x="280" />
<glyph unicode="!" glyph-name="exclam" horiz-adv-x="270" d="M50 0L61 130H211L200 0H50ZM76 228L118 700H253L211 228H76Z" />
<glyph unicode="&quot;" glyph-name="quotedbl" horiz-adv-x="420" d="M182 433H97L81 590L91 700H236L226 590L182 433ZM377 433H292L276 590L286 700H431L421 590L377 433Z" />
<glyph unicode="#" glyph-name="numbersign" horiz-adv-x="496" d="M293 425H233L221 285H281L293 425ZM398 170L384 0H257L271 170H211L197 0H70L84 170H24L34 285H94L106 425H46L56 540H116L130 700H257L243 540H303L317 700H444L430 540H490L480 425H420L408
285H468L458 170H398Z" />
<glyph unicode="$" glyph-name="dollar" horiz-adv-x="470" d="M157 -110L166 -7Q135 -6 105 -3T53 7L64 126Q87 120 119 116T181 111Q238 111 262 135T287 212Q287 281 214 296Q150 310 117 348T83 455Q83 537 117 590T224 664L235 780H360L350 676Q373 674 399
671T443 662L433 544Q421 547 405 549T373 554T340 558T310 559Q291 559 275 556T248 545T230 522T224 480Q224 451 238 434T287 409Q320 402 346 390T390 358T417 310T427 240Q427 185 417 145T389 76T346 31T292 5L282 -110H157Z" />
<glyph unicode="%" glyph-name="percent" horiz-adv-x="916" d="M303 496Q305 516 306 531T307 558Q307 595 298 607T266 620Q251 620 242 616T226 598T215 560T207 496Q205 476 204 461T203 433Q203 397 212 385T244 372Q259 372 269 377T285 397T296 435T303
496ZM412 500Q408 453 399 414T371 345T320 300T236 283Q196 283 169 295T126 330T103 383T96 451Q96 508 103 555T129 636T184 690T274 709Q314 709 341 698T384 666T407 616T414 549Q414 538 414 526T412 500ZM385 0H267L573 700H691L385 0ZM749 204Q751 224
752 239T753 266Q753 303 744 315T712 328Q697 328 688 324T672 306T661 268T653 204Q650 167 650 142Q650 106 658 93T690 80Q705 80 715 85T731 105T742 143T749 204ZM858 208Q854 161 845 122T817 53T766 8T682 -9Q642 -9 615 3T572 38T549 91T542 159Q542 216
549 263T575 344T630 398T720 417Q760 417 787 406T830 374T853 324T860 257Q860 246 860 234T858 208Z" />
<glyph unicode="&amp;" glyph-name="ampersand" horiz-adv-x="515" d="M54 224Q58 266 65 295T83 344T111 378T150 401Q135 410 124 423T107 451T97 484T93 516V525Q98 581 112 616T151 672T210 700T291 708Q310 708 330 707T368 704T403 700T430 695L420 581Q416
582 403 584T372 589T338 593T310 595Q286 595 270 592T245 578T232 551T228 508Q228 474 243 462T301 449H529L519 336H446L417 13Q376 4 328 -3T219 -10Q131 -10 91 33T51 167Q51 178 51 194T54 224ZM276 336Q255 336 238 330T210 305T193 256T187 177Q187 140
200 122T246 103Q263 103 276 105T299 110L319 336H276V336Z" />
<glyph unicode="&apos;" glyph-name="quotesingle" horiz-adv-x="225" d="M182 433H97L81 590L91 700H236L226 590L182 433Z" />
<glyph unicode="(" glyph-name="parenleft" horiz-adv-x="325" d="M60 350Q72 490 109 604T223 820H341Q305 767 281 714T239 604T212 485T195 350Q191 311 190 276T188 206Q188 114 204 36T259 -120H151Q102 -35 79 55T56 253Q56 276 57 300T60 350Z" />
<glyph unicode=")" glyph-name="parenright" horiz-adv-x="325" d="M305 350Q293 210 256 96T142 -120H24Q60 -67 84 -14T126 96T153 215T170 350Q174 389 175 424T177 494Q177 586 161 664T106 820H214Q263 735 286 645T309 447Q309 424 308 400T305 350Z" />
<glyph unicode="*" glyph-name="asterisk" horiz-adv-x="525" d="M371 496Q394 468 421 435T468 378L362 304L282 441Q272 425 261 407T240 370T219 334T200 302L96 380L195 494Q161 502 126 508T60 520L102 642L232 585Q229 620 224 660T216 730H350L335 585Q367
597 402 612T467 639L505 518L371 496Z" />
<glyph unicode="+" glyph-name="plus" horiz-adv-x="560" d="M352 245L338 87H216L230 245H80L90 360H240L254 518H376L362 360H512L502 245H352Z" />
<glyph unicode="," glyph-name="comma" horiz-adv-x="250" d="M84 -150H-13L40 0L51 130H201L190 0L84 -150Z" />
<glyph unicode="-" glyph-name="hyphen" horiz-adv-x="495" d="M86 245L96 360H441L431 245H86Z" />
<glyph unicode="." glyph-name="period" horiz-adv-x="250" d="M40 0L51 130H201L190 0H40Z" />
<glyph unicode="/" glyph-name="slash" horiz-adv-x="325" d="M276 810H405L89 -110H-39L276 810Z" />
<glyph unicode="0" glyph-name="zero" horiz-adv-x="470" d="M322 353Q327 407 330 445T333 512Q333 538 330 555T321 581T303 594T277 598Q254 598 240 589T216 554T201 479T188 353Q183 298 181 258T178 190Q178 136 190 119T233 102Q256 102 270 111T294 148T309
224T322 353ZM456 358Q448 266 436 197T400 83T334 14T224 -9Q175 -9 142 6T88 51T59 126T50 233Q50 289 56 358Q64 446 75 512T110 621T176 687T287 709Q337 709 371 695T425 651T453 579T462 478Q462 424 456 358Z" />
<glyph unicode="1" glyph-name="one" horiz-adv-x="470" d="M59 0L68 113H185L226 576L95 526L105 650L227 700H370L318 113H414L405 0H59Z" />
<glyph unicode="2" glyph-name="two" horiz-adv-x="470" d="M41 0L52 126L208 316Q239 351 257 377T284 426T297 474T300 528Q300 563 283 579T224 596Q198 596 166 590T109 577L119 693Q123 694 137 696T169 702T209 707T248 709Q349 709 390 666T432 540Q432
530 432 521T430 500Q427 465 423 439T410 390T384 341T341 283L205 114H399L390 0H41Z" />
<glyph unicode="3" glyph-name="three" horiz-adv-x="470" d="M407 238Q407 171 392 124T349 48T281 5T190 -9Q172 -9 149 -7T105 -2T69 3T50 7L60 120Q69 118 83 115T113 109T148 104T183 102Q227 102 249 134T272 228Q272 271 256 290T200 309H123L132 418H199Q246
418 267 447T288 531Q288 565 274 581T225 598Q192 598 160 593T105 582L115 694Q119 695 133 697T166 702T207 707T248 709Q289 709 321 701T375 674T410 624T422 547Q422 522 418 494T404 440T376 395T332 367Q368 356 387 326T407 238Z" />
<glyph unicode="4" glyph-name="four" horiz-adv-x="470" d="M381 156L368 0H233L246 156H53L64 282L195 700H325L190 269H256L295 457H407L391 269H451L441 156H381Z" />
<glyph unicode="5" glyph-name="five" horiz-adv-x="470" d="M244 587L231 441H236Q281 441 314 432T370 403T403 350T414 268Q414 187 398 134T354 49T286 4T199 -9Q180 -9 159 -8T117 -4T79 2T50 7L60 121Q74 118 110 111T188 103Q236 103 257 141T279 248Q279
276 274 293T260 319T236 332T205 335H89L121 700H434L424 587H244Z" />
<glyph unicode="6" glyph-name="six" horiz-adv-x="470" d="M443 215Q437 151 419 108T371 39T304 2T221 -9Q184 -9 153 2T101 43T67 121T55 246Q55 251 55 266T57 299T59 333T60 355Q69 460 89 528T143 637T225 693T338 709Q350 709 365 708T394 706T421 702T441
698L432 585Q412 590 386 594T324 599Q296 599 276 591T241 564T218 513T201 433Q222 444 245 451T295 459Q376 459 411 415T446 276Q446 248 443 215ZM261 351Q241 351 224 346T191 334Q187 293 186 262T184 207Q184 172 187 151T198 119T214 105T237 101Q255
101 269 108T292 134T307 185T313 267Q313 311 301 331T261 351Z" />
<glyph unicode="7" glyph-name="seven" horiz-adv-x="470" d="M223 0H81L297 583H86L96 700H441L429 563L223 0Z" />
<glyph unicode="8" glyph-name="eight" horiz-adv-x="470" d="M319 235Q319 255 315 270T300 295T269 311T218 316Q205 308 195 298T179 272T169 231T166 170Q166 130 182 115T231 100Q259 100 276 109T302 135T315 178T319 235ZM334 541Q334 575 323 588T279
602Q243 602 224 577T205 484Q205 451 221 433T290 415Q304 423 312 437T325 468T332 504T334 541ZM452 234Q452 178 441 133T402 57T332 8T224 -9Q127 -9 81 38T34 175Q34 218 42 249T63 303T96 338T137 358Q122 366 110 380T90 414T78 453T74 494Q74 552 89 593T132
659T199 697T287 709Q325 709 357 701T414 674T451 622T465 540Q465 529 463 506T451 458T423 409T373 374Q416 361 434 322T452 234Z" />
<glyph unicode="9" glyph-name="nine" horiz-adv-x="470" d="M60 485Q66 551 84 594T132 662T200 698T283 709Q321 709 351 699T404 662T438 587T450 464Q450 460 450 445T448 412T446 379T445 358Q435 240 415 168T363 57T286 4T178 -9Q166 -9 151 -8T120 -5T92
-1T72 3L82 116Q101 111 128 106T191 101Q216 101 234 107T265 131T286 181T302 267Q282 255 259 248T209 241Q127 241 93 291T58 432Q58 445 58 458T60 485ZM242 349Q262 349 279 353T312 366Q316 408 317 440T319 498Q319 534 316 554T306 585T289 597T266 599Q250
599 236 592T212 566T196 515T190 433Q190 389 202 369T242 349Z" />
<glyph unicode=":" glyph-name="colon" horiz-adv-x="250" d="M40 0L51 130H201L190 0H40ZM72 370L83 500H233L222 370H72Z" />
<glyph unicode=";" glyph-name="semicolon" horiz-adv-x="250" d="M84 -150H-13L40 0L51 130H201L190 0L84 -150ZM72 370L83 500H233L222 370H72Z" />
<glyph unicode="&lt;" glyph-name="less" horiz-adv-x="550" d="M86 251L101 414L516 583L504 451L195 335L484 218L472 86L86 251Z" />
<glyph unicode="=" glyph-name="equal" horiz-adv-x="550" d="M77 145L87 260H487L477 145H77ZM95 345L105 460H505L495 345H95Z" />
<glyph unicode="&gt;" glyph-name="greater" horiz-adv-x="550" d="M72 86L84 220L393 337L104 453L116 583L501 414L486 251L72 86Z" />
<glyph unicode="?" glyph-name="question" horiz-adv-x="380" d="M72 0L83 130H233L222 0H72ZM386 528Q384 502 380 483T367 448T348 417T320 384L240 296L233 228H98L108 337L197 435Q213 453 223 465T240 490T249 515T252 546Q252 572 237 583T177 595Q157 595
127 591T70 580L80 695Q90 697 106 699T141 704T177 707T209 709Q250 709 282 703T338 681T374 636T387 561Q387 553 387 545T386 528Z" />
<glyph unicode="@" glyph-name="at" horiz-adv-x="843" d="M490 441Q484 443 472 444T444 446Q417 446 402 411T387 302Q387 270 395 258T425 245Q443 245 453 251T468 267T476 289T479 312L490 441ZM793 401Q788 344 779 293T751 202T697 139T605 116Q591 116
575 120T544 135T518 161T501 201Q494 192 486 182T464 163T431 150T385 144Q363 144 342 149T304 171T277 217T266 294Q266 377 283 426T329 501T399 536T485 544Q496 544 513 543T549 540T584 536T613 530L588 237Q588 224 594 218T611 211Q623 211 630 215T642
238T652 295T662 401Q664 424 665 442T666 478Q666 519 658 542T627 578T565 594T465 598Q397 598 354 588T285 551T246 474T226 345Q224 319 223 298T221 257Q221 208 230 178T261 131T319 108T407 102Q444 102 481 104T540 109L530 -1Q517 -3 500 -4T465 -6T430
-8T398 -9Q315 -9 257 4T162 47T108 129T91 258Q91 278 92 299T95 345Q104 451 127 521T194 633T304 692T465 709Q551 709 613 699T716 662T776 588T796 465Q796 436 793 401Z" />
<glyph unicode="A" glyph-name="A" horiz-adv-x="545" d="M319 612L227 281H352L319 612ZM382 0L364 163H194L148 0H5L224 700H426L520 0H382Z" />
<glyph unicode="B" glyph-name="B" horiz-adv-x="547" d="M362 231Q362 254 356 269T339 294T314 308T284 312H224L206 114Q217 114 229 113Q240 112 252 112T279 111Q302 111 318 120T343 146T357 184T362 231ZM373 522Q373 554 358 572T315 590Q303 590 291
590T269 588Q258 587 248 586L234 424H288Q336 424 353 449T373 522ZM499 206Q493 142 475 101T427 35T355 1T257 -9Q225 -9 191 -8T127 -5Q93 -3 60 0L121 700Q155 703 188 705Q217 707 248 708T304 709Q410 709 459 672T509 549Q509 503 501 472T479 421T447
391T406 377Q448 370 474 335T501 240Q501 234 501 224T499 206Z" />
<glyph unicode="C" glyph-name="C" horiz-adv-x="433" d="M383 7Q375 5 360 3T326 -2T291 -5T261 -7Q215 -7 179 3T117 42T79 121T66 249Q66 274 67 301T71 361Q81 475 101 543T152 648T229 695T336 707Q346 707 362 706T394 702T424 698T443 693L433 571Q408
578 374 582T313 587Q292 587 276 580T247 548T225 478T209 354Q208 347 207 329T205 291T204 255T203 233Q203 195 207 172T219 135T241 118T271 113Q286 113 303 114T338 118T369 123T394 128L383 7Z" />
<glyph unicode="D" glyph-name="D" horiz-adv-x="546" d="M377 354Q383 425 383 468Q383 509 378 533T364 569T342 585T310 589Q296 589 285 589T265 587Q255 586 248 585L207 115Q212 114 221 113Q229 112 240 112T267 111Q290 111 308 122T339 160T362 235T377
354ZM517 361Q507 249 487 177T435 64T356 6T248 -10Q222 -10 189 -9T127 -5Q94 -2 60 0L121 700Q156 702 189 705Q218 707 248 708T299 710Q349 710 390 700T460 662T505 584T521 452Q521 432 520 409T517 361Z" />
<glyph unicode="E" glyph-name="E" horiz-adv-x="478" d="M60 0L121 700H479L469 592H248L233 415H429L419 308H223L206 108H427L418 0H60Z" />
<glyph unicode="F" glyph-name="F" horiz-adv-x="483" d="M263 592L247 405H443L433 297H237L212 0H75L136 700H494L484 592H263Z" />
<glyph unicode="G" glyph-name="G" horiz-adv-x="510" d="M445 9Q404 1 359 -4T272 -9Q221 -9 182 2T118 43T79 123T66 250Q66 275 67 302T71 361Q81 472 102 540T159 645T243 696T359 709Q384 709 419 706T484 695L474 575Q442 582 406 585T338 589Q307 589 285
580T249 546T225 474T209 354Q203 284 203 237Q203 199 207 175T221 136T244 117T279 111Q290 111 300 111T321 112L335 270H271L281 388H478L445 9Z" />
<glyph unicode="H" glyph-name="H" horiz-adv-x="570" d="M353 0L378 297H222L197 0H60L121 700H258L232 411H388L414 700H551L490 0H353Z" />
<glyph unicode="I" glyph-name="I" horiz-adv-x="347" d="M25 0L34 106H104L146 594H76L86 700H363L353 594H283L241 106H311L302 0H25Z" />
<glyph unicode="J" glyph-name="J" horiz-adv-x="416" d="M363 261Q356 179 343 126T304 43T239 2T141 -10Q129 -10 113 -9T80 -5T48 -1T20 5L30 125Q51 121 81 117T135 113Q159 113 174 120T200 144T217 188T226 254L254 582H112L123 700H402L363 261V261Z" />
<glyph unicode="K" glyph-name="K" horiz-adv-x="547" d="M359 0L241 275L218 244L197 0H60L121 700H258L237 458L419 700H573L337 396L517 0H359Z" />
<glyph unicode="L" glyph-name="L" horiz-adv-x="420" d="M60 0L121 700H258L207 116H410L400 0H60Z" />
<glyph unicode="M" glyph-name="M" horiz-adv-x="666" d="M462 0L514 599L396 235H292L234 599L182 0H60L121 700H326L361 431L445 700H647L586 0H462Z" />
<glyph unicode="N" glyph-name="N" horiz-adv-x="592" d="M313 0L230 562L181 0H60L121 700H320L404 127L454 700H573L512 0H313Z" />
<glyph unicode="O" glyph-name="O" horiz-adv-x="568" d="M399 353Q405 424 405 469Q405 509 401 534T386 575T362 596T326 602Q299 602 280 592T248 555T225 479T209 353Q203 286 203 238Q203 157 222 128T282 98Q309 98 328 109T360 150T383 228T399 353ZM539
358Q531 266 518 197T476 82T399 13T273 -10Q214 -10 174 6T110 53T76 132T65 242Q65 295 71 358Q79 446 92 512T135 622T212 688T336 710Q395 710 434 695T498 648T533 569T544 458Q544 435 543 410T539 358Z" />
<glyph unicode="P" glyph-name="P" horiz-adv-x="520" d="M377 470Q378 478 378 485T378 501Q378 545 364 567T313 590Q281 590 264 587Q254 585 248 584L228 359H291Q326 359 349 389T377 470ZM516 477Q510 411 494 366T448 293T376 253T275 241H218L197 0H60L121
700Q150 702 182 705Q209 707 242 708T306 710Q364 710 404 698T470 661T506 600T518 518Q518 508 518 498T516 477Z" />
<glyph unicode="Q" glyph-name="Q" horiz-adv-x="568" d="M539 358Q533 291 525 235T500 136T460 62T398 13L491 0L480 -124L233 -8Q185 -3 153 15T102 65T74 140T65 242Q65 295 71 358Q79 446 92 512T135 622T212 688T336 710Q395 710 434 695T498 648T533 569T544
458Q544 435 543 410T539 358ZM399 353Q405 424 405 469Q405 509 401 534T386 575T362 596T326 602Q299 602 280 592T248 555T225 479T209 353Q203 286 203 238Q203 157 222 128T282 98Q309 98 328 109T360 150T383 228T399 353Z" />
<glyph unicode="R" glyph-name="R" horiz-adv-x="533" d="M510 488Q502 403 475 355T399 285L498 0H347L265 264H220L197 0H60L121 700Q150 702 182 705Q209 707 242 708T306 710Q417 710 464 665T512 528Q512 518 512 509T510 488ZM371 481Q372 490 372 498T372
514Q372 555 359 572T309 590Q285 590 267 587Q256 585 248 584L230 382H293Q324 382 345 407T371 481Z" />
<glyph unicode="S" glyph-name="S" horiz-adv-x="424" d="M414 252Q414 244 414 235T412 217Q405 145 386 101T334 33T259 1T162 -7Q146 -7 127 -6T88 -3T51 2T21 8L32 127Q43 124 59 121T94 116T130 113T162 111Q212 111 242 136T273 225Q273 266 253 282T196
307Q121 325 90 367T58 472Q58 594 118 650T312 707Q326 707 343 706T378 703T411 699T437 693L427 574Q401 582 367 585T294 589Q246 589 222 565T198 487Q198 458 213 446T270 424Q302 417 328 404T374 371T403 321T414 252Z" />
<glyph unicode="T" glyph-name="T" horiz-adv-x="445" d="M331 579L281 0H144L194 579H50L61 700H486L475 579H331Z" />
<glyph unicode="U" glyph-name="U" horiz-adv-x="555" d="M498 215Q492 153 476 111T432 42T363 5T267 -7Q224 -7 188 2T126 34T86 92T71 180Q71 188 71 197T73 215L116 700H253L210 211Q209 200 209 193T208 181Q208 111 277 111Q316 111 336 132T360 196L404
700H541L498 215Z" />
<glyph unicode="V" glyph-name="V" horiz-adv-x="542" d="M366 0H155L76 700H217L269 98L431 700H568L366 0Z" />
<glyph unicode="W" glyph-name="W" horiz-adv-x="628" d="M539 0H346L324 235L254 0H69L96 700H216L191 107L288 405H402L439 107L519 700H634L539 0Z" />
<glyph unicode="X" glyph-name="X" horiz-adv-x="525" d="M347 0L275 232L156 0H5L216 363L86 700H238L302 493L405 700H554L357 364L500 0H347Z" />
<glyph unicode="Y" glyph-name="Y" horiz-adv-x="531" d="M350 308L324 0H184L210 308L61 700H206L293 430L428 700H572L350 308Z" />
<glyph unicode="Z" glyph-name="Z" horiz-adv-x="466" d="M187 119H421L411 0H25L36 133L320 581H98L109 700H482L470 567L187 119Z" />
<glyph unicode="[" glyph-name="bracketleft" horiz-adv-x="330" d="M49 -120L131 820H351L341 705H251L190 0H280L269 -120H49Z" />
<glyph unicode="\" glyph-name="backslash" horiz-adv-x="325" d="M35 810H164L330 -110H201L35 810Z" />
<glyph unicode="]" glyph-name="bracketright" horiz-adv-x="330" d="M19 -120L30 0H120L181 705H91L101 820H321L239 -120H19Z" />
<glyph unicode="^" glyph-name="asciicircum" horiz-adv-x="497" d="M345 420L301 660L197 420H56L220 760H394L493 420H345Z" />
<glyph unicode="_" glyph-name="underscore" horiz-adv-x="510" d="M-21 -170L-11 -50H492L482 -170H-21Z" />
<glyph unicode="`" glyph-name="grave" horiz-adv-x="313" d="M222 580L77 715H236L328 580H222Z" />
<glyph unicode="a" glyph-name="a" horiz-adv-x="521" d="M60 237Q67 314 84 366T131 450T207 495T314 509Q354 509 399 502T478 485L448 127Q448 114 455 107T484 100L476 0H418Q407 0 394 2T367 10T345 28T331 57Q306 26 274 9T196 -9Q124 -9 91 30T57 167Q57
200 60 237ZM241 105Q261 105 275 116T300 144T316 182T323 221L337 393Q326 394 315 394T295 395Q275 395 257 387T224 354T201 288T192 177Q192 133 203 119T241 105Z" />
<glyph unicode="b" glyph-name="b" horiz-adv-x="517" d="M482 272Q475 188 456 134T404 48T328 4T225 -9Q179 -9 141 -5T55 5L116 700H249L228 462Q251 484 280 496T347 509Q418 509 451 465T485 332Q485 321 485 303T482 272ZM302 395Q283 395 267 385T240 359T222
324T213 286L197 107Q209 106 221 106T244 105Q262 105 278 110T307 132T331 180T348 263Q351 289 351 316Q351 363 339 379T302 395Z" />
<glyph unicode="c" glyph-name="c" horiz-adv-x="408" d="M358 6Q333 -1 301 -5T242 -9Q201 -9 168 -2T110 28T73 89T60 193Q60 279 74 339T116 437T187 492T288 509Q313 509 346 505T401 495L391 378Q377 381 366 383T343 388T317 391T284 392Q267 392 253 386T229
364T211 318T198 240Q197 229 197 220T196 201Q196 148 211 128T257 108Q295 108 320 113T368 122L358 6Z" />
<glyph unicode="d" glyph-name="d" horiz-adv-x="527" d="M63 242Q69 316 86 367T135 449T213 495T323 509Q334 509 343 509T363 507L380 700H513L452 0H344L338 57Q312 26 279 9T201 -9Q125 -9 92 30T59 164Q59 181 60 201T63 242ZM246 105Q268 105 285 117T313
149T331 190T339 230L353 392Q340 394 328 394T304 395Q282 395 262 387T227 355T204 289T195 180Q195 134 207 120T246 105Z" />
<glyph unicode="e" glyph-name="e" horiz-adv-x="484" d="M459 364Q459 323 449 291T415 237T354 204T262 192Q246 192 229 192T192 195V187Q192 140 208 123T268 105Q302 105 338 110T397 120L387 8Q375 5 358 2T324 -4T289 -7T258 -9Q213 -9 177 -2T114 27T74
88T59 192Q59 219 62 250Q68 319 85 368T130 449T198 494T290 509Q343 509 376 494T427 457T452 410T459 364ZM278 399Q249 399 231 377T202 299Q228 296 249 296Q285 296 306 307T328 348Q328 369 320 384T278 399Z" />
<glyph unicode="f" glyph-name="f" horiz-adv-x="341" d="M113 387H48L58 500H123L127 540Q132 591 144 624T175 676T224 702T293 709Q325 709 356 705T401 697L392 584Q376 588 356 591T308 595Q283 595 273 583T261 549L257 500H365L355 387H247L212 -13Q208
-63 197 -94T164 -144T112 -170T39 -177Q16 -177 -4 -176T-45 -172L-35 -59Q-22 -61 -3 -62T27 -63Q54 -63 65 -54T78 -18L113 387Z" />
<glyph unicode="g" glyph-name="g" horiz-adv-x="527" d="M453 20Q448 -40 434 -80T394 -146T330 -181T241 -192Q222 -192 201 -191T160 -187T121 -181T88 -175L98 -67Q131 -74 161 -79T226 -84Q276 -84 296 -63T320 10L323 49Q299 26 269 14T201 1Q128 1 94 40T60
175Q60 271 76 335T124 437T206 492T323 509Q370 509 410 503T494 485L453 20V20ZM246 115Q266 115 282 125T311 150T330 185T338 222L352 392Q340 394 328 394T304 395Q282 395 262 388T227 358T204 294T195 187Q195 143 207 129T246 115Z" />
<glyph unicode="h" glyph-name="h" horiz-adv-x="524" d="M55 0L116 700H249L228 463Q251 484 281 496T347 509Q423 509 453 473T483 358Q483 347 483 337T480 300L454 0H321L347 303Q348 310 348 320T349 336Q349 371 337 382T300 394Q281 394 266 384T240 359T222
324T213 287L188 0H55Z" />
<glyph unicode="i" glyph-name="i" horiz-adv-x="263" d="M101 585L111 700H254L244 585H101ZM55 0L98 500H231L188 0H55Z" />
<glyph unicode="j" glyph-name="j" horiz-adv-x="263" d="M186 -13Q181 -63 170 -95T138 -145T87 -170T14 -177Q-9 -177 -29 -176T-70 -172L-60 -60Q-47 -62 -28 -62T2 -63Q29 -63 40 -54T53 -18L98 500H231L186 -13ZM101 585L111 700H254L244 585H101Z" />
<glyph unicode="k" glyph-name="k" horiz-adv-x="495" d="M322 0L227 204L203 175L188 0H55L116 700H249L219 357L347 500H503L318 299L470 0H322Z" />
<glyph unicode="l" glyph-name="l" horiz-adv-x="290" d="M255 3Q244 1 218 -2T163 -5Q106 -5 86 21T65 101Q65 112 65 123T67 148L116 700H249L203 176Q200 146 200 139Q200 123 206 117T228 110Q239 110 249 111T264 114L255 3Z" />
<glyph unicode="m" glyph-name="m" horiz-adv-x="750" d="M55 0L98 500H206L211 449Q234 475 265 492T337 509Q382 509 409 496T449 451Q474 477 506 493T583 509Q652 509 680 476T709 364Q709 352 709 334T706 300L680 0H547L573 303Q574 311 574 323T575 343Q575
372 567 383T536 394Q520 394 506 385T483 361T467 328T459 291L434 0H301L327 303Q328 311 328 323T329 343Q329 372 321 383T290 394Q271 394 257 381T233 350T218 309T211 269L188 0H55Z" />
<glyph unicode="n" glyph-name="n" horiz-adv-x="524" d="M55 0L98 500H206L211 447Q236 475 269 492T347 509Q423 509 453 473T483 358Q483 338 480 300L454 0H321L347 297Q348 305 348 316T349 336Q349 371 337 382T300 394Q279 394 263 381T236 350T219 309T211
269L188 0H55Z" />
<glyph unicode="o" glyph-name="o" horiz-adv-x="530" d="M497 305Q497 294 497 283T495 260Q488 181 472 130T426 48T355 5T256 -7Q209 -7 173 2T112 36T75 100T62 202Q62 281 75 338T117 433T191 489T301 507Q399 507 448 459T497 305ZM358 245Q361 277 361
300Q361 356 345 377T291 399Q269 399 253 392T227 366T210 319T200 245Q197 212 197 188Q197 138 212 120T265 101Q288 101 304 108T331 131T348 175T358 245Z" />
<glyph unicode="p" glyph-name="p" horiz-adv-x="519" d="M40 -170L98 500H206L211 445Q237 474 269 491T347 509Q418 509 451 465T485 332Q485 321 485 303T482 272Q475 193 458 139T411 52T335 5T225 -9Q214 -9 205 -9T187 -8L173 -170H40ZM302 395Q282 395
267 385T241 358T222 322T212 284L197 107Q209 106 221 106T244 105Q266 105 285 114T319 147T342 212T351 316Q351 363 339 379T302 395Z" />
<glyph unicode="q" glyph-name="q" horiz-adv-x="527" d="M63 237Q70 314 87 366T136 450T214 495T323 509Q370 509 410 503T494 485L437 -170H304L322 40Q298 17 268 4T201 -9Q128 -9 94 31T60 169Q60 200 63 237ZM246 105Q266 105 282 116T309 143T327 180T337
218L352 392Q340 394 328 394T304 395Q282 395 262 387T227 355T204 289T195 180Q195 134 207 120T246 105Z" />
<glyph unicode="r" glyph-name="r" horiz-adv-x="353" d="M55 0L98 500H206L212 437Q233 470 260 489T323 509Q339 509 349 508T367 505L355 367Q333 373 312 373Q269 373 241 335T208 236L188 0H55Z" />
<glyph unicode="s" glyph-name="s" horiz-adv-x="425" d="M389 175Q389 120 373 85T329 28T260 -1T173 -9Q154 -9 134 -8T96 -4T63 1T37 7L47 120Q67 115 98 109T165 103Q204 103 227 113T251 156Q251 175 239 184T192 200Q121 214 93 249T64 333Q64 430 118 469T282
509Q298 509 316 508T350 504T380 499T401 494L391 380Q368 387 341 392T273 397Q234 397 218 386T201 350Q201 333 216 327T262 313Q335 297 362 262T389 175Z" />
<glyph unicode="t" glyph-name="t" horiz-adv-x="348" d="M241 385L223 170Q222 156 222 150T221 141Q221 105 259 105Q275 105 293 108T322 114L313 3Q308 2 296 0T268 -4T237 -7T207 -9Q171 -9 148 -1T111 22T92 60T86 112Q86 122 86 133T88 155L108 385H43L53
500H118L129 620H262L251 500H351L341 385H241Z" />
<glyph unicode="u" glyph-name="u" horiz-adv-x="518" d="M226 500L201 207Q200 193 199 181T198 162Q198 127 210 117T245 106Q266 106 281 119T307 150T323 191T330 231L353 500H486L443 0H335L330 50Q306 24 274 8T198 -9Q123 -9 94 29T64 144Q64 155 64 167T66
193L93 500H226Z" />
<glyph unicode="v" glyph-name="v" horiz-adv-x="492" d="M332 -1H139L53 499H190L244 95L369 499H505L332 -1Z" />
<glyph unicode="w" glyph-name="w" horiz-adv-x="642" d="M540 0H365L332 246L252 0H82L48 500H179L193 118L291 410H409L452 118L533 500H660L540 0Z" />
<glyph unicode="x" glyph-name="x" horiz-adv-x="505" d="M320 0L257 151L166 0H15L186 261L74 500H223L274 381L345 500H495L339 271L470 0H320Z" />
<glyph unicode="y" glyph-name="y" horiz-adv-x="493" d="M331 -42Q287 -177 177 -177Q169 -177 156 -177T129 -176T104 -174T87 -172L97 -59Q121 -62 146 -62Q186 -62 199 -18L204 0H170L53 500H193L256 111L375 500H506L331 -42Z" />
<glyph unicode="z" glyph-name="z" horiz-adv-x="418" d="M181 107H377L368 0H20L29 111L261 393H74L83 500H421L411 380L181 107Z" />
<glyph unicode="{" glyph-name="braceleft" horiz-adv-x="345" d="M114 207Q114 248 92 264T44 280L56 420Q84 420 110 439T140 504L154 670Q162 754 202 790T307 827Q317 827 335 826T361 822L352 714Q347 715 340 716T324 717Q286 717 283 680L266 484Q263 450
253 425T227 384T194 359T159 347Q175 345 190 337T217 314T236 279T243 230Q243 225 243 217T241 201L227 40Q226 31 226 24T225 15Q225 -17 260 -17Q268 -17 275 -16T288 -14L279 -122Q271 -124 252 -125T223 -127Q199 -127 177 -120T136 -96T108 -54T97 8Q97
13 97 22T99 40L110 161Q110 166 111 173T112 187T113 200T114 207Z" />
<glyph unicode="|" glyph-name="bar" horiz-adv-x="310" d="M70 -110L150 810H280L200 -110H70Z" />
<glyph unicode="}" glyph-name="braceright" horiz-adv-x="345" d="M226 353Q211 356 196 364T169 386T150 421T142 470Q142 475 142 483T144 499L159 660Q160 669 160 676T160 685Q160 717 125 717Q117 717 110 716T97 714L106 822Q110 823 117 824T133 825T149
826T162 827Q186 827 208 820T249 796T277 754T288 692Q288 687 288 678T286 660L274 514Q273 506 273 500T272 491Q272 452 293 436T341 420L329 280Q301 280 276 262T246 196L231 30Q224 -54 185 -90T78 -127Q68 -127 50 -126T24 -122L33 -14Q38 -15 45 -16T61
-17Q99 -17 102 20L119 216Q122 251 133 275T159 316T191 341T226 353Z" />
<glyph unicode="~" glyph-name="asciitilde" horiz-adv-x="510" d="M95 356Q132 377 156 383T203 389Q225 389 245 383T284 370T322 356T360 350Q386 350 410 360T458 384L448 264Q424 249 397 240T341 231Q318 231 299 237T261 251T225 265T185 272Q159 272 134
261T85 236L95 356Z" />
<glyph unicode="&#xa0;" glyph-name="uni00A0" horiz-adv-x="280" />
<glyph unicode="&#xa1;" glyph-name="exclamdown" horiz-adv-x="270" d="M243 500L232 370H82L93 500H243ZM216 272L175 -200H40L81 272H216Z" />
<glyph unicode="&#xa2;" glyph-name="cent" horiz-adv-x="470" d="M197 -110L206 -6Q178 -1 155 11T116 46T92 105T83 192Q83 339 124 412T250 502L259 600H384L375 503Q389 501 401 499T424 494L414 377Q400 380 389 382T366 387T340 390T307 391Q290 391 276
385T252 363T234 317T221 239Q220 228 220 219T219 200Q219 147 234 127T280 107Q318 107 343 112T391 121L381 5Q370 2 358 0T331 -5L322 -110H197Z" />
<glyph unicode="&#xa3;" glyph-name="sterling" horiz-adv-x="470" d="M279 423H383L373 310H269L252 113H425L416 0H41L50 113H115L132 310H68L78 423H142L145 449Q152 527 164 577T201 656T262 696T356 707Q365 707 378 707T408 705T439 701T467 697L457 581Q436
586 413 589T378 592Q350 592 333 588T306 569T291 528T282 456L279 423Z" />
<glyph unicode="&#xa4;" glyph-name="currency" horiz-adv-x="570" d="M105 185Q94 210 90 239T85 300Q85 365 106 414L33 487L118 572L184 506Q235 537 305 537Q373 537 426 506L492 572L577 487L509 419Q535 367 535 300Q535 234 509 180L577 113L492 28L427
92Q377 63 305 63Q232 63 182 92L118 28L33 113L105 185ZM403 300Q403 356 379 393T305 430Q255 430 231 393T207 300Q207 244 231 207T305 170Q330 170 348 180T379 207T397 248T403 300Z" />
<glyph unicode="&#xa5;" glyph-name="yen" horiz-adv-x="470" d="M315 265L312 220H418L409 115H303L293 0H153L163 115H59L68 220H172L175 265H72L81 370H172L61 700H202L267 477L371 700H511L337 370H431L422 265H315Z" />
<glyph unicode="&#xa6;" glyph-name="brokenbar" horiz-adv-x="310" d="M70 -110L101 250H231L200 -110H70ZM119 450L150 810H280L249 450H119Z" />
<glyph unicode="&#xa7;" glyph-name="section" horiz-adv-x="470" d="M77 321Q77 366 95 398T148 457Q128 472 119 498T110 548Q110 634 164 671T331 709Q361 709 393 704T441 694L431 580Q409 587 384 592T317 597Q280 597 263 588T245 553Q245 539 258 529T302
512Q371 499 400 466T430 378Q430 332 410 300T358 247Q378 232 387 205T397 154Q397 68 342 30T176 -9Q161 -9 145 -8T113 -4T86 1T65 6L75 120Q97 113 123 108T190 103Q227 103 244 113T261 149Q261 163 248 173T204 188Q135 201 106 235T77 321ZM296 357Q296
380 286 392T253 410Q232 401 222 383T211 341Q211 319 220 307T253 289Q273 297 284 316T296 357Z" />
<glyph unicode="&#xa8;" glyph-name="dieresis" horiz-adv-x="380" d="M263 560L274 675H404L393 560H263ZM63 560L74 675H204L193 560H63Z" />
<glyph unicode="&#xa9;" glyph-name="copyright" horiz-adv-x="810" d="M509 162Q505 161 495 160T474 157T451 155T433 154Q401 154 379 162T342 193T321 255T314 356Q314 417 321 454T343 511T382 539T439 546Q445 546 455 545T475 543T495 541T509 538V465Q495
468 481 469T456 471Q440 471 430 469T413 455T405 420T403 352Q403 307 405 283T414 246T430 232T457 229Q470 229 484 231T509 235V162ZM760 350Q760 267 744 201T690 88T589 16T430 -9Q335 -9 270 15T165 86T108 198T90 350Q90 433 107 499T165 612T271 684T430
709Q525 709 588 684T689 612T744 499T760 350ZM643 350Q643 416 637 465T608 546T544 595T430 611Q359 611 315 596T247 548T215 466T207 350Q207 284 215 235T247 153T315 105T430 89Q501 89 543 105T608 153T636 235T643 350Z" />
<glyph unicode="&#xaa;" glyph-name="ordfeminine" horiz-adv-x="431" d="M85 503Q90 561 104 600T141 663T197 697T276 707Q305 707 339 702T399 689L376 425Q376 415 381 410T401 405L395 325H354Q345 325 335 326T315 332T298 345T288 367Q270 344 246 331T187
318Q133 318 108 348T82 451Q82 475 85 503ZM52 0L62 115H363L353 0H52ZM221 409Q237 409 247 417T264 439T274 468T278 498L288 615Q280 615 274 615T261 616Q246 616 233 611T209 588T194 538T188 451Q188 424 195 417T221 409Z" />
<glyph unicode="&#xab;" glyph-name="guillemotleft" horiz-adv-x="465" d="M135 92L66 299L171 506H280L200 299L242 92H135ZM305 92L236 299L341 506H450L370 299L412 92H305Z" />
<glyph unicode="&#xac;" glyph-name="logicalnot" horiz-adv-x="575" d="M394 106L405 245H71L81 360H536L514 106H394Z" />
<glyph unicode="&#xad;" glyph-name="uni00AD" horiz-adv-x="495" d="M86 245L96 360H441L431 245H86Z" />
<glyph unicode="&#xae;" glyph-name="registered" horiz-adv-x="810" d="M760 350Q760 267 744 201T690 88T589 16T430 -9Q335 -9 270 15T165 86T108 198T90 350Q90 433 107 499T165 612T271 684T430 709Q525 709 588 684T689 612T744 499T760 350ZM643 350Q643
416 637 465T608 546T544 595T430 611Q359 611 315 596T247 548T215 466T207 350Q207 284 215 235T247 153T315 105T430 89Q501 89 543 105T608 153T636 235T643 350ZM546 429Q546 384 532 358T494 319L569 159H476L415 306H403V159H320V544Q338 545 356 546Q372
547 390 547T426 548Q461 548 484 540T521 516T540 478T546 429ZM461 427Q461 457 454 467T420 478Q413 478 409 477Q405 476 403 476V378H413Q440 378 450 386T461 427Z" />
<glyph unicode="&#xaf;" glyph-name="overscore" horiz-adv-x="345" d="M66 591L76 700H371L361 591H66Z" />
<glyph unicode="&#xb0;" glyph-name="degree" horiz-adv-x="383" d="M286 542Q287 547 287 557Q287 584 275 599T234 615Q199 615 184 592T169 527Q169 499 180 482T221 464Q253 464 268 486T286 542ZM400 541Q392 457 348 414T213 370Q138 370 97 408T56 518Q56
613 101 660T242 707Q317 707 359 672T401 564Q401 559 401 553T400 541Z" />
<glyph unicode="&#xb1;" glyph-name="plusminus" horiz-adv-x="550" d="M65 0L75 115H485L475 0H65ZM352 245L344 157H222L230 245H80L90 360H240L254 518H376L362 360H512L502 245H352Z" />
<glyph unicode="&#xb2;" glyph-name="twosuperior" horiz-adv-x="410" d="M64 205L74 309L186 433Q205 452 217 468T237 499T248 530T251 565Q251 582 239 596T195 610Q171 610 151 607T112 599L120 696Q123 696 134 698T160 702T191 705T223 707Q289 707 327
670T366 568Q366 521 352 481T309 410L210 303H349L340 205H64Z" />
<glyph unicode="&#xb3;" glyph-name="threesuperior" horiz-adv-x="410" d="M353 381Q353 284 310 241T185 198Q171 198 155 199T123 201T95 205T77 208L85 302Q99 299 121 295T168 291Q200 291 218 309T237 366Q237 424 178 424H135L143 515H179Q201 515 214
520T235 533T244 553T247 577Q247 614 197 614Q176 614 154 610T115 602L123 696Q126 697 137 698T162 702T193 705T225 707Q297 707 329 680T362 592Q362 576 359 557T347 521T325 491T290 472Q304 469 315 459T335 437T348 410T353 381Z" />
<glyph unicode="&#xb4;" glyph-name="acute" horiz-adv-x="313" d="M65 580L176 715H340L176 580H65Z" />
<glyph unicode="&#xb5;" glyph-name="mu" horiz-adv-x="523" d="M226 500L198 189Q197 182 197 177T197 168V159Q197 127 210 117T245 106Q266 106 281 119T307 150T323 191T330 231L353 500H486L443 0H335L330 50Q306 24 274 8T198 -9Q193 -9 189 -9T181 -8L167
-170H34L65 181Q65 189 66 193L93 500H226Z" />
<glyph unicode="&#xb6;" glyph-name="paragraph" horiz-adv-x="555" d="M323 0H197L227 354H208Q187 354 164 360T121 382T88 427T75 503Q75 567 90 607T130 669T190 700T261 709Q286 709 308 708T347 705Q367 703 384 700L374 593Q354 597 330 599T291 602Q239
602 219 585T199 517Q199 486 214 474T258 462H363L323 0ZM488 -20Q484 -70 474 -101T445 -148T397 -170T326 -176Q303 -176 283 -175T242 -171L253 -63Q266 -65 285 -66T315 -68Q342 -68 352 -56T365 -18L428 700H551L488 -20Z" />
<glyph unicode="&#xb7;" glyph-name="middot" horiz-adv-x="250" d="M61 244L72 374H222L211 244H61Z" />
<glyph unicode="&#xb8;" glyph-name="cedilla" horiz-adv-x="336" d="M43 -127Q57 -129 71 -130T97 -132Q119 -132 129 -128T139 -109Q139 -103 136 -99T123 -91T99 -87T58 -86L92 50H188L171 -19Q213 -24 231 -47T250 -103Q250 -154 218 -188T111 -222Q94 -222
72 -220T36 -214L43 -127Z" />
<glyph unicode="&#xb9;" glyph-name="onesuperior" horiz-adv-x="410" d="M84 205L93 305H176L202 596L107 557L116 662L203 700H326L291 305H358L349 205H84Z" />
<glyph unicode="&#xba;" glyph-name="ordmasculine" horiz-adv-x="434" d="M303 512Q306 539 306 559Q306 597 296 610T261 623Q246 623 235 617T215 595T202 550T197 476Q197 439 207 422T242 405Q272 405 285 430T303 512ZM414 522Q409 463 397 424T363 362T310
329T234 319Q200 319 173 326T127 352T98 401T88 478Q88 537 97 580T128 652T183 695T269 709Q344 709 380 672T416 556Q416 548 416 540T414 522ZM48 0L58 115H372L362 0H48Z" />
<glyph unicode="&#xbb;" glyph-name="guillemotright" horiz-adv-x="465" d="M217 92L297 299L255 506H362L431 299L326 92H217ZM47 92L127 299L85 506H192L261 299L156 92H47Z" />
<glyph unicode="&#xbc;" glyph-name="onequarter" horiz-adv-x="875" d="M59 205L68 305H151L177 596L82 557L91 662L178 700H301L266 305H333L324 205H59ZM788 117L777 0H663L674 117H530L539 221L634 495H744L646 211H684L709 324H806L796 211L841 205L833 117H788ZM331
-100H213L601 810H720L331 -100Z" />
<glyph unicode="&#xbd;" glyph-name="onehalf" horiz-adv-x="875" d="M59 205L68 305H151L177 596L82 557L91 662L178 700H301L266 305H333L324 205H59ZM581 0L591 104L703 228Q722 247 734 263T754 294T765 325T768 360Q768 377 756 391T712 405Q688 405 668
402T629 394L637 491Q640 491 651 493T677 497T708 500T740 502Q806 502 844 465T883 363Q883 316 869 276T826 205L727 98H866L857 0H581ZM336 -100H218L606 810H725L336 -100Z" />
<glyph unicode="&#xbe;" glyph-name="threequarters" horiz-adv-x="875" d="M345 381Q345 284 302 241T177 198Q163 198 147 199T115 201T87 205T69 208L77 302Q91 299 113 295T160 291Q192 291 210 309T229 366Q229 424 170 424H127L135 515H171Q193 515 206
520T227 533T236 553T239 577Q239 614 189 614Q168 614 146 610T107 602L115 696Q118 697 129 698T154 702T185 705T217 707Q289 707 321 680T354 592Q354 576 351 557T339 521T317 491T282 472Q296 469 307 459T327 437T340 410T345 381ZM781 117L770 0H656L667
117H523L532 221L627 495H737L639 211H677L702 324H799L789 211H834L826 117H781ZM320 -100H202L590 810H709L320 -100Z" />
<glyph unicode="&#xbf;" glyph-name="questiondown" horiz-adv-x="380" d="M331 500L320 370H170L181 500H331ZM17 -28Q19 -3 23 16T35 52T54 83T82 116L163 204L169 272H304L295 163L206 65Q190 48 180 36T163 11T154 -14T151 -46Q151 -72 166 -83T226 -95Q246
-95 276 -91T333 -80L323 -195Q313 -197 297 -199T262 -204T226 -207T194 -209Q153 -209 120 -203T64 -181T28 -136T15 -61Q15 -53 15 -45T17 -28Z" />
<glyph unicode="&#xc0;" glyph-name="Agrave" horiz-adv-x="545" d="M305 726L158 841H319L413 726H305ZM319 612L227 281H352L319 612ZM382 0L364 163H194L148 0H5L224 700H426L520 0H382Z" />
<glyph unicode="&#xc1;" glyph-name="Aacute" horiz-adv-x="545" d="M217 726L331 841H492L335 726H217ZM319 612L227 281H352L319 612ZM382 0L364 163H194L148 0H5L224 700H426L520 0H382Z" />
<glyph unicode="&#xc2;" glyph-name="Acircumflex" horiz-adv-x="545" d="M374 730L340 791L294 730H146L266 845H418L519 730H374ZM319 612L227 281H352L319 612ZM382 0L364 163H194L148 0H5L224 700H426L520 0H382Z" />
<glyph unicode="&#xc3;" glyph-name="Atilde" horiz-adv-x="545" d="M319 612L227 281H352L319 612ZM382 0L364 163H194L148 0H5L224 700H426L520 0H382ZM176 828Q200 847 227 853T274 860Q292 860 310 854T347 841T383 827T415 821Q441 821 464 830T508 857L499
752Q478 733 452 727T400 720Q381 720 363 726T328 739T293 753T260 759Q234 759 209 748T167 723L176 828Z" />
<glyph unicode="&#xc4;" glyph-name="Adieresis" horiz-adv-x="545" d="M319 612L227 281H352L319 612ZM382 0L364 163H194L148 0H5L224 700H426L520 0H382ZM359 730L370 845H500L489 730H359ZM159 730L170 845H300L289 730H159Z" />
<glyph unicode="&#xc5;" glyph-name="Aring" horiz-adv-x="545" d="M448 763Q446 741 441 723T427 690L520 0H382L364 163H194L148 0H5L223 697Q215 719 215 745Q215 811 245 848T343 885Q394 885 421 858T449 781Q449 776 449 772T448 763ZM319 612L227 281H352L319
612ZM360 764Q361 769 361 773T361 782Q361 798 356 805T336 813Q316 813 310 797T303 746Q303 730 308 723T328 715Q345 715 351 727T360 764Z" />
<glyph unicode="&#xc6;" glyph-name="AE" horiz-adv-x="781" d="M377 0L372 163H208L148 0H5L276 700H762L752 592H485L496 415H729L719 308H502L515 108H730L721 0H377ZM250 281H368L359 580L250 281Z" />
<glyph unicode="&#xc7;" glyph-name="Ccedilla" horiz-adv-x="433" d="M159 -127Q173 -129 187 -130T213 -132Q235 -132 245 -128T255 -109Q255 -103 252 -99T239 -91T215 -87T174 -86L195 -1Q164 6 140 22T100 67T75 141T66 249Q66 274 67 301T71 361Q81 475
101 543T152 648T229 695T336 707Q346 707 362 706T394 702T424 698T443 693L433 571Q408 578 374 582T313 587Q292 587 276 580T247 548T225 478T209 354Q208 347 207 329T205 291T204 255T203 233Q203 195 207 172T219 135T241 118T271 113Q286 113 303 114T338
118T369 123T394 128L383 7Q370 3 343 0T290 -6L287 -19Q329 -24 347 -47T366 -103Q366 -154 334 -188T227 -222Q210 -222 188 -220T152 -214L159 -127Z" />
<glyph unicode="&#xc8;" glyph-name="Egrave" horiz-adv-x="478" d="M307 726L160 841H321L415 726H307ZM60 0L121 700H479L469 592H248L233 415H429L419 308H223L206 108H427L418 0H60Z" />
<glyph unicode="&#xc9;" glyph-name="Eacute" horiz-adv-x="478" d="M202 726L316 841H477L320 726H202ZM60 0L121 700H479L469 592H248L233 415H429L419 308H223L206 108H427L418 0H60Z" />
<glyph unicode="&#xca;" glyph-name="Ecircumflex" horiz-adv-x="478" d="M344 730L310 791L264 730H116L236 845H388L489 730H344ZM60 0L121 700H479L469 592H248L233 415H429L419 308H223L206 108H427L418 0H60Z" />
<glyph unicode="&#xcb;" glyph-name="Edieresis" horiz-adv-x="478" d="M60 0L121 700H479L469 592H248L233 415H429L419 308H223L206 108H427L418 0H60ZM333 720L344 835H474L463 720H333ZM133 720L144 835H274L263 720H133Z" />
<glyph unicode="&#xcc;" glyph-name="Igrave" horiz-adv-x="347" d="M234 726L87 841H248L342 726H234ZM25 0L34 106H104L146 594H76L86 700H363L353 594H283L241 106H311L302 0H25Z" />
<glyph unicode="&#xcd;" glyph-name="Iacute" horiz-adv-x="347" d="M108 726L222 841H383L226 726H108ZM25 0L34 106H104L146 594H76L86 700H363L353 594H283L241 106H311L302 0H25Z" />
<glyph unicode="&#xce;" glyph-name="Icircumflex" horiz-adv-x="347" d="M268 730L234 791L188 730H40L160 845H312L413 730H268ZM25 0L34 106H104L146 594H76L86 700H363L353 594H283L241 106H311L302 0H25Z" />
<glyph unicode="&#xcf;" glyph-name="Idieresis" horiz-adv-x="347" d="M25 0L34 106H104L146 594H76L86 700H363L353 594H283L241 106H311L302 0H25ZM257 720L268 835H398L387 720H257ZM57 720L68 835H198L187 720H57Z" />
<glyph unicode="&#xd0;" glyph-name="Eth" horiz-adv-x="546" d="M517 361Q507 249 487 177T435 64T356 6T248 -10Q222 -10 189 -9T127 -5Q94 -2 60 0L88 325H48L58 440H98L121 700Q156 702 189 705Q218 707 248 708T299 710Q349 710 390 700T460 662T505 584T521
452Q521 432 520 409T517 361ZM377 354Q383 425 383 468Q383 509 378 533T364 569T342 585T310 589Q296 589 285 589T265 587Q255 586 248 585L235 440H333L323 325H225L207 115Q212 114 221 113Q229 112 240 112T267 111Q290 111 308 122T339 160T362 235T377
354Z" />
<glyph unicode="&#xd1;" glyph-name="Ntilde" horiz-adv-x="592" d="M313 0L230 562L181 0H60L121 700H320L404 127L454 700H573L512 0H313ZM194 828Q218 847 245 853T292 860Q310 860 328 854T365 841T401 827T433 821Q459 821 482 830T526 857L517 752Q496 733
470 727T418 720Q399 720 381 726T346 739T311 753T278 759Q252 759 227 748T185 723L194 828Z" />
<glyph unicode="&#xd2;" glyph-name="Ograve" horiz-adv-x="568" d="M311 726L164 841H325L419 726H311ZM399 353Q405 424 405 469Q405 509 401 534T386 575T362 596T326 602Q299 602 280 592T248 555T225 479T209 353Q203 286 203 238Q203 157 222 128T282 98Q309
98 328 109T360 150T383 228T399 353ZM539 358Q531 266 518 197T476 82T399 13T273 -10Q214 -10 174 6T110 53T76 132T65 242Q65 295 71 358Q79 446 92 512T135 622T212 688T336 710Q395 710 434 695T498 648T533 569T544 458Q544 435 543 410T539 358Z" />
<glyph unicode="&#xd3;" glyph-name="Oacute" horiz-adv-x="568" d="M249 726L363 841H524L367 726H249ZM399 353Q405 424 405 469Q405 509 401 534T386 575T362 596T326 602Q299 602 280 592T248 555T225 479T209 353Q203 286 203 238Q203 157 222 128T282 98Q309
98 328 109T360 150T383 228T399 353ZM539 358Q531 266 518 197T476 82T399 13T273 -10Q214 -10 174 6T110 53T76 132T65 242Q65 295 71 358Q79 446 92 512T135 622T212 688T336 710Q395 710 434 695T498 648T533 569T544 458Q544 435 543 410T539 358Z" />
<glyph unicode="&#xd4;" glyph-name="Ocircumflex" horiz-adv-x="568" d="M379 730L345 791L299 730H151L271 845H423L524 730H379ZM399 353Q405 424 405 469Q405 509 401 534T386 575T362 596T326 602Q299 602 280 592T248 555T225 479T209 353Q203 286 203 238Q203
157 222 128T282 98Q309 98 328 109T360 150T383 228T399 353ZM539 358Q531 266 518 197T476 82T399 13T273 -10Q214 -10 174 6T110 53T76 132T65 242Q65 295 71 358Q79 446 92 512T135 622T212 688T336 710Q395 710 434 695T498 648T533 569T544 458Q544 435 543
410T539 358Z" />
<glyph unicode="&#xd5;" glyph-name="Otilde" horiz-adv-x="568" d="M399 353Q405 424 405 469Q405 509 401 534T386 575T362 596T326 602Q299 602 280 592T248 555T225 479T209 353Q203 286 203 238Q203 157 222 128T282 98Q309 98 328 109T360 150T383 228T399
353ZM539 358Q531 266 518 197T476 82T399 13T273 -10Q214 -10 174 6T110 53T76 132T65 242Q65 295 71 358Q79 446 92 512T135 622T212 688T336 710Q395 710 434 695T498 648T533 569T544 458Q544 435 543 410T539 358ZM178 828Q202 847 229 853T276 860Q294 860
312 854T349 841T385 827T417 821Q443 821 466 830T510 857L501 752Q480 733 454 727T402 720Q383 720 365 726T330 739T295 753T262 759Q236 759 211 748T169 723L178 828Z" />
<glyph unicode="&#xd6;" glyph-name="Odieresis" horiz-adv-x="568" d="M367 730L378 845H508L497 730H367ZM167 730L178 845H308L297 730H167ZM399 353Q405 424 405 469Q405 509 401 534T386 575T362 596T326 602Q299 602 280 592T248 555T225 479T209 353Q203
286 203 238Q203 157 222 128T282 98Q309 98 328 109T360 150T383 228T399 353ZM539 358Q531 266 518 197T476 82T399 13T273 -10Q214 -10 174 6T110 53T76 132T65 242Q65 295 71 358Q79 446 92 512T135 622T212 688T336 710Q395 710 434 695T498 648T533 569T544
458Q544 435 543 410T539 358Z" />
<glyph unicode="&#xd7;" glyph-name="multiply" horiz-adv-x="570" d="M220 300L103 417L188 502L305 385L422 502L507 417L390 300L507 183L422 98L305 215L188 98L103 183L220 300Z" />
<glyph unicode="&#xd8;" glyph-name="Oslash" horiz-adv-x="548" d="M544 358Q536 266 523 197T481 82T404 13T278 -10Q258 -10 241 -8T208 -3L172 -91H73L126 39Q95 71 83 121T70 242Q70 295 76 358Q84 446 97 512T140 622T217 688T341 710Q357 710 371 709T399
705L434 791H534L483 668Q518 637 533 585T549 458Q549 435 548 410T544 358ZM404 353Q410 424 410 469V489L252 104Q267 98 287 98Q314 98 333 109T365 150T388 228T404 353ZM214 353Q208 286 208 238L355 599Q345 602 331 602Q304 602 285 592T253 555T230 479T214
353Z" />
<glyph unicode="&#xd9;" glyph-name="Ugrave" horiz-adv-x="555" d="M301 726L154 841H315L409 726H301ZM498 215Q492 153 476 111T432 42T363 5T267 -7Q224 -7 188 2T126 34T86 92T71 180Q71 188 71 197T73 215L116 700H253L210 211Q209 200 209 193T208 181Q208
111 277 111Q316 111 336 132T360 196L404 700H541L498 215Z" />
<glyph unicode="&#xda;" glyph-name="Uacute" horiz-adv-x="555" d="M254 726L368 841H529L372 726H254ZM498 215Q492 153 476 111T432 42T363 5T267 -7Q224 -7 188 2T126 34T86 92T71 180Q71 188 71 197T73 215L116 700H253L210 211Q209 200 209 193T208 181Q208
111 277 111Q316 111 336 132T360 196L404 700H541L498 215Z" />
<glyph unicode="&#xdb;" glyph-name="Ucircumflex" horiz-adv-x="555" d="M371 730L337 791L291 730H143L263 845H415L516 730H371ZM498 215Q492 153 476 111T432 42T363 5T267 -7Q224 -7 188 2T126 34T86 92T71 180Q71 188 71 197T73 215L116 700H253L210 211Q209
200 209 193T208 181Q208 111 277 111Q316 111 336 132T360 196L404 700H541L498 215Z" />
<glyph unicode="&#xdc;" glyph-name="Udieresis" horiz-adv-x="555" d="M369 730L380 845H510L499 730H369ZM169 730L180 845H310L299 730H169ZM498 215Q492 153 476 111T432 42T363 5T267 -7Q224 -7 188 2T126 34T86 92T71 180Q71 188 71 197T73 215L116 700H253L210
211Q209 200 209 193T208 181Q208 111 277 111Q316 111 336 132T360 196L404 700H541L498 215Z" />
<glyph unicode="&#xdd;" glyph-name="Yacute" horiz-adv-x="531" d="M249 726L363 841H524L362 726H249ZM350 308L324 0H184L210 308L61 700H206L293 430L428 700H572L350 308Z" />
<glyph unicode="&#xde;" glyph-name="Thorn" horiz-adv-x="530" d="M506 360Q500 294 484 249T438 176T365 136T264 124H207L197 0H60L121 700H258L248 592Q260 592 271 592T295 593Q411 593 459 544T508 401Q508 391 508 381T506 360ZM366 353Q367 362 367 371T368
388Q368 430 354 451T303 473Q271 473 254 470Q244 468 237 467L218 242H281Q316 242 338 272T366 353Z" />
<glyph unicode="&#xdf;" glyph-name="germandbls" horiz-adv-x="537" d="M497 187Q497 130 483 93T444 33T383 1T304 -9Q295 -9 284 -9T259 -7T234 -4T213 0L222 114Q236 109 256 106T287 103Q328 103 343 121T359 174Q359 200 345 214T302 239Q264 254 248 283T232
350Q232 378 240 403T263 449T301 482T352 496Q359 508 362 524T365 550Q365 572 352 584T304 597Q268 597 253 577T233 510L189 0H55L99 503Q103 545 114 582T149 647T213 692T314 709Q351 709 382 700T437 673T474 630T487 572Q487 532 478 493T458 412Q404 412
383 401T362 363Q362 340 393 329Q437 314 467 282T497 187Z" />
<glyph unicode="&#xe0;" glyph-name="agrave" horiz-adv-x="521" d="M60 237Q67 314 84 366T131 450T207 495T314 509Q354 509 399 502T478 485L448 127Q448 114 455 107T484 100L476 0H418Q407 0 394 2T367 10T345 28T331 57Q306 26 274 9T196 -9Q124 -9 91 30T57
167Q57 200 60 237ZM241 105Q261 105 275 116T300 144T316 182T323 221L337 393Q326 394 315 394T295 395Q275 395 257 387T224 354T201 288T192 177Q192 133 203 119T241 105ZM315 580L170 715H329L421 580H315Z" />
<glyph unicode="&#xe1;" glyph-name="aacute" horiz-adv-x="521" d="M60 237Q67 314 84 366T131 450T207 495T314 509Q354 509 399 502T478 485L448 127Q448 114 455 107T484 100L476 0H418Q407 0 394 2T367 10T345 28T331 57Q306 26 274 9T196 -9Q124 -9 91 30T57
167Q57 200 60 237ZM241 105Q261 105 275 116T300 144T316 182T323 221L337 393Q326 394 315 394T295 395Q275 395 257 387T224 354T201 288T192 177Q192 133 203 119T241 105ZM228 580L339 715H503L339 580H228Z" />
<glyph unicode="&#xe2;" glyph-name="acircumflex" horiz-adv-x="521" d="M60 237Q67 314 84 366T131 450T207 495T314 509Q354 509 399 502T478 485L448 127Q448 114 455 107T484 100L476 0H418Q407 0 394 2T367 10T345 28T331 57Q306 26 274 9T196 -9Q124 -9
91 30T57 167Q57 200 60 237ZM241 105Q261 105 275 116T300 144T316 182T323 221L337 393Q326 394 315 394T295 395Q275 395 257 387T224 354T201 288T192 177Q192 133 203 119T241 105ZM367 580L324 654L267 580H118L252 715H400L511 580H367Z" />
<glyph unicode="&#xe3;" glyph-name="atilde" horiz-adv-x="521" d="M60 237Q67 314 84 366T131 450T207 495T314 509Q354 509 399 502T478 485L448 127Q448 114 455 107T484 100L476 0H418Q407 0 394 2T367 10T345 28T331 57Q306 26 274 9T196 -9Q124 -9 91 30T57
167Q57 200 60 237ZM241 105Q261 105 275 116T300 144T316 182T323 221L337 393Q326 394 315 394T295 395Q275 395 257 387T224 354T201 288T192 177Q192 133 203 119T241 105ZM156 688Q180 707 207 713T254 720Q272 720 290 714T327 701T363 687T395 681Q421 681
444 690T488 717L479 612Q458 593 432 587T380 580Q361 580 343 586T308 599T273 613T240 619Q214 619 189 608T147 583L156 688Z" />
<glyph unicode="&#xe4;" glyph-name="adieresis" horiz-adv-x="521" d="M60 237Q67 314 84 366T131 450T207 495T314 509Q354 509 399 502T478 485L448 127Q448 114 455 107T484 100L476 0H418Q407 0 394 2T367 10T345 28T331 57Q306 26 274 9T196 -9Q124 -9 91
30T57 167Q57 200 60 237ZM241 105Q261 105 275 116T300 144T316 182T323 221L337 393Q326 394 315 394T295 395Q275 395 257 387T224 354T201 288T192 177Q192 133 203 119T241 105ZM343 560L354 675H484L473 560H343ZM143 560L154 675H284L273 560H143Z" />
<glyph unicode="&#xe5;" glyph-name="aring" horiz-adv-x="521" d="M348 646Q349 651 349 655T349 664Q349 680 344 687T324 695Q304 695 298 679T291 628Q291 612 296 605T316 597Q333 597 339 609T348 646ZM436 645Q431 587 403 555T309 523Q257 523 230 550T203
627Q203 693 233 730T331 767Q382 767 409 740T437 663Q437 658 437 654T436 645ZM60 237Q67 314 84 366T131 450T207 495T314 509Q354 509 399 502T478 485L448 127Q448 114 455 107T484 100L476 0H418Q407 0 394 2T367 10T345 28T331 57Q306 26 274 9T196 -9Q124
-9 91 30T57 167Q57 200 60 237ZM241 105Q261 105 275 116T300 144T316 182T323 221L337 393Q326 394 315 394T295 395Q275 395 257 387T224 354T201 288T192 177Q192 133 203 119T241 105Z" />
<glyph unicode="&#xe6;" glyph-name="ae" horiz-adv-x="740" d="M715 364Q715 281 670 236T516 190Q500 190 484 191T448 194Q448 142 463 124T524 105Q558 105 594 110T653 120L643 8Q631 5 614 2T580 -4T545 -7T514 -9Q459 -9 419 3T353 52Q330 25 289 8T192
-9Q164 -9 139 -3T94 19T63 61T51 126Q51 229 107 272T273 316Q282 316 295 315T323 312L326 339Q327 343 327 350Q327 373 313 386T264 399Q221 399 184 393T108 375L118 489Q132 493 151 496T192 503T234 507T274 509Q330 509 364 500T419 474Q469 509 546 509Q599
509 632 494T683 457T708 410T715 364ZM240 103Q261 103 274 110T296 129T307 152T312 175L315 214Q290 219 265 219Q231 219 210 201T188 147Q188 127 200 115T240 103ZM534 399Q505 399 487 377T458 297Q481 294 501 294Q538 294 561 306T584 348Q584 369 576
384T534 399Z" />
<glyph unicode="&#xe7;" glyph-name="ccedilla" horiz-adv-x="408" d="M140 -127Q154 -129 168 -130T194 -132Q216 -132 226 -128T236 -109Q236 -103 233 -99T220 -91T196 -87T155 -86L175 -3Q148 2 127 14T91 50T68 108T60 193Q60 279 74 339T116 437T187 492T288
509Q313 509 346 505T401 495L391 378Q377 381 366 383T343 388T317 391T284 392Q267 392 253 386T229 364T211 318T198 240Q197 229 197 220T196 201Q196 148 211 128T257 108Q295 108 320 113T368 122L358 6Q339 1 316 -2T270 -8L268 -19Q310 -24 328 -47T347
-103Q347 -154 315 -188T208 -222Q191 -222 169 -220T133 -214L140 -127Z" />
<glyph unicode="&#xe8;" glyph-name="egrave" horiz-adv-x="484" d="M459 364Q459 323 449 291T415 237T354 204T262 192Q246 192 229 192T192 195V187Q192 140 208 123T268 105Q302 105 338 110T397 120L387 8Q375 5 358 2T324 -4T289 -7T258 -9Q213 -9 177 -2T114
27T74 88T59 192Q59 219 62 250Q68 319 85 368T130 449T198 494T290 509Q343 509 376 494T427 457T452 410T459 364ZM278 399Q249 399 231 377T202 299Q228 296 249 296Q285 296 306 307T328 348Q328 369 320 384T278 399ZM294 580L149 715H308L400 580H294Z" />
<glyph unicode="&#xe9;" glyph-name="eacute" horiz-adv-x="484" d="M459 364Q459 323 449 291T415 237T354 204T262 192Q246 192 229 192T192 195V187Q192 140 208 123T268 105Q302 105 338 110T397 120L387 8Q375 5 358 2T324 -4T289 -7T258 -9Q213 -9 177 -2T114
27T74 88T59 192Q59 219 62 250Q68 319 85 368T130 449T198 494T290 509Q343 509 376 494T427 457T452 410T459 364ZM278 399Q249 399 231 377T202 299Q228 296 249 296Q285 296 306 307T328 348Q328 369 320 384T278 399ZM203 580L314 715H478L314 580H203Z" />
<glyph unicode="&#xea;" glyph-name="ecircumflex" horiz-adv-x="484" d="M459 364Q459 323 449 291T415 237T354 204T262 192Q246 192 229 192T192 195V187Q192 140 208 123T268 105Q302 105 338 110T397 120L387 8Q375 5 358 2T324 -4T289 -7T258 -9Q213 -9
177 -2T114 27T74 88T59 192Q59 219 62 250Q68 319 85 368T130 449T198 494T290 509Q343 509 376 494T427 457T452 410T459 364ZM278 399Q249 399 231 377T202 299Q228 296 249 296Q285 296 306 307T328 348Q328 369 320 384T278 399ZM341 580L298 654L241 580H92L226
715H374L485 580H341Z" />
<glyph unicode="&#xeb;" glyph-name="edieresis" horiz-adv-x="484" d="M459 364Q459 323 449 291T415 237T354 204T262 192Q246 192 229 192T192 195V187Q192 140 208 123T268 105Q302 105 338 110T397 120L387 8Q375 5 358 2T324 -4T289 -7T258 -9Q213 -9 177
-2T114 27T74 88T59 192Q59 219 62 250Q68 319 85 368T130 449T198 494T290 509Q343 509 376 494T427 457T452 410T459 364ZM278 399Q249 399 231 377T202 299Q228 296 249 296Q285 296 306 307T328 348Q328 369 320 384T278 399ZM328 560L339 675H469L458 560H328ZM128
560L139 675H269L258 560H128Z" />
<glyph unicode="&#xec;" glyph-name="igrave" horiz-adv-x="263" d="M55 0L98 500H231L188 0H55ZM158 580L13 715H172L264 580H158Z" />
<glyph unicode="&#xed;" glyph-name="iacute" horiz-adv-x="263" d="M55 0L98 500H231L188 0H55ZM76 580L187 715H351L187 580H76Z" />
<glyph unicode="&#xee;" glyph-name="icircumflex" horiz-adv-x="263" d="M55 0L98 500H231L188 0H55ZM224 580L181 654L124 580H-25L109 715H257L368 580H224Z" />
<glyph unicode="&#xef;" glyph-name="idieresis" horiz-adv-x="263" d="M55 0L98 500H231L188 0H55ZM205 560L216 675H346L335 560H205ZM5 560L16 675H146L135 560H5Z" />
<glyph unicode="&#xf0;" glyph-name="eth" horiz-adv-x="508" d="M58 210Q63 269 75 317T109 399T167 451T254 469Q279 469 301 464T342 448Q340 489 331 515T308 558L282 516H175L225 595Q205 597 184 597T139 597L149 709Q188 709 224 708T292 701L323 750H430L381
672Q404 659 422 640T452 592T471 527T478 440Q478 437 478 426T477 401T475 377T474 361Q465 253 448 182T402 68T330 9T225 -9Q201 -9 172 -1T118 27T75 84T57 178Q57 186 57 194T58 210ZM268 361Q231 361 211 312T190 179Q190 132 204 117T247 101Q264 101 278
109T303 142T323 216T339 346Q325 352 307 356T268 361Z" />
<glyph unicode="&#xf1;" glyph-name="ntilde" horiz-adv-x="524" d="M55 0L98 500H206L211 447Q236 475 269 492T347 509Q423 509 453 473T483 358Q483 338 480 300L454 0H321L347 297Q348 305 348 316T349 336Q349 371 337 382T300 394Q279 394 263 381T236 350T219
309T211 269L188 0H55ZM167 688Q191 707 218 713T265 720Q283 720 301 714T338 701T374 687T406 681Q432 681 455 690T499 717L490 612Q469 593 443 587T391 580Q372 580 354 586T319 599T284 613T251 619Q225 619 200 608T158 583L167 688Z" />
<glyph unicode="&#xf2;" glyph-name="ograve" horiz-adv-x="530" d="M497 305Q497 294 497 283T495 260Q488 181 472 130T426 48T355 5T256 -7Q209 -7 173 2T112 36T75 100T62 202Q62 281 75 338T117 433T191 489T301 507Q399 507 448 459T497 305ZM358 245Q360
261 360 274T361 300Q361 356 345 377T291 399Q269 399 253 392T227 366T210 319T200 245Q197 212 197 188Q197 138 212 120T265 101Q288 101 304 108T331 131T348 175T358 245ZM293 580L148 715H307L399 580H293Z" />
<glyph unicode="&#xf3;" glyph-name="oacute" horiz-adv-x="530" d="M497 305Q497 294 497 283T495 260Q488 181 472 130T426 48T355 5T256 -7Q209 -7 173 2T112 36T75 100T62 202Q62 281 75 338T117 433T191 489T301 507Q399 507 448 459T497 305ZM358 245Q361
277 361 300Q361 356 345 377T291 399Q269 399 253 392T227 366T210 319T200 245Q197 212 197 188Q197 138 212 120T265 101Q288 101 304 108T331 131T348 175T358 245ZM210 580L321 715H485L321 580H210Z" />
<glyph unicode="&#xf4;" glyph-name="ocircumflex" horiz-adv-x="530" d="M497 305Q497 294 497 283T495 260Q488 181 472 130T426 48T355 5T256 -7Q209 -7 173 2T112 36T75 100T62 202Q62 281 75 338T117 433T191 489T301 507Q399 507 448 459T497 305ZM358 245Q361
277 361 300Q361 356 345 377T291 399Q269 399 253 392T227 366T210 319T200 245Q197 212 197 188Q197 138 212 120T265 101Q288 101 304 108T331 131T348 175T358 245ZM358 580L315 654L258 580H109L243 715H391L502 580H358Z" />
<glyph unicode="&#xf5;" glyph-name="otilde" horiz-adv-x="530" d="M497 305Q497 294 497 283T495 260Q488 181 472 130T426 48T355 5T256 -7Q209 -7 173 2T112 36T75 100T62 202Q62 281 75 338T117 433T191 489T301 507Q399 507 448 459T497 305ZM358 245Q361
277 361 300Q361 356 345 377T291 399Q269 399 253 392T227 366T210 319T200 245Q197 212 197 188Q197 138 212 120T265 101Q288 101 304 108T331 131T348 175T358 245ZM150 688Q174 707 201 713T248 720Q266 720 284 714T321 701T357 687T389 681Q415 681 438
690T482 717L473 612Q452 593 426 587T374 580Q355 580 337 586T302 599T267 613T234 619Q208 619 183 608T141 583L150 688Z" />
<glyph unicode="&#xf6;" glyph-name="odieresis" horiz-adv-x="530" d="M497 305Q497 294 497 283T495 260Q488 181 472 130T426 48T355 5T256 -7Q209 -7 173 2T112 36T75 100T62 202Q62 281 75 338T117 433T191 489T301 507Q399 507 448 459T497 305ZM358 245Q361
277 361 300Q361 356 345 377T291 399Q269 399 253 392T227 366T210 319T200 245Q197 212 197 188Q197 138 212 120T265 101Q288 101 304 108T331 131T348 175T358 245ZM341 560L352 675H482L471 560H341ZM141 560L152 675H282L271 560H141Z" />
<glyph unicode="&#xf7;" glyph-name="divide" horiz-adv-x="550" d="M81 245L91 360H501L491 245H81ZM193 45L205 175H355L343 45H193ZM227 430L238 560H388L377 430H227Z" />
<glyph unicode="&#xf8;" glyph-name="oslash" horiz-adv-x="530" d="M497 305Q497 294 497 283T495 260Q488 181 472 130T426 48T355 5T256 -7Q242 -7 230 -6T205 -3L165 -89H70L124 26Q93 49 78 91T62 202Q62 281 75 338T117 433T191 489T301 507Q329 507 349
503L390 589H484L429 473Q497 425 497 305ZM358 245Q361 277 361 300Q361 307 361 313T360 325L254 101H265Q288 101 304 108T331 131T348 175T358 245ZM197 179L300 399H291Q269 399 253 392T227 366T210 319T200 245Q197 212 197 188V179Z" />
<glyph unicode="&#xf9;" glyph-name="ugrave" horiz-adv-x="518" d="M226 500L201 207Q200 193 200 181T198 162Q198 127 210 117T245 106Q266 106 281 119T307 150T323 191T330 231L353 500H486L443 0H335L330 50Q306 24 274 8T198 -9Q123 -9 94 29T64 144Q64
155 64 167T66 193L93 500H226ZM267 580L122 715H281L373 580H267Z" />
<glyph unicode="&#xfa;" glyph-name="uacute" horiz-adv-x="518" d="M226 500L201 207Q200 193 200 181T198 162Q198 127 210 117T245 106Q266 106 281 119T307 150T323 191T330 231L353 500H486L443 0H335L330 50Q306 24 274 8T198 -9Q123 -9 94 29T64 144Q64
155 64 167T66 193L93 500H226ZM190 580L301 715H465L301 580H190Z" />
<glyph unicode="&#xfb;" glyph-name="ucircumflex" horiz-adv-x="518" d="M226 500L201 207Q200 193 200 181T198 162Q198 127 210 117T245 106Q266 106 281 119T307 150T323 191T330 231L353 500H486L443 0H335L330 50Q306 24 274 8T198 -9Q123 -9 94 29T64 144Q64
155 64 167T66 193L93 500H226ZM349 580L306 654L249 580H100L234 715H382L493 580H349Z" />
<glyph unicode="&#xfc;" glyph-name="udieresis" horiz-adv-x="518" d="M226 500L201 207Q200 193 200 181T198 162Q198 127 210 117T245 106Q266 106 281 119T307 150T323 191T330 231L353 500H486L443 0H335L330 50Q306 24 274 8T198 -9Q123 -9 94 29T64 144Q64
155 64 167T66 193L93 500H226ZM330 560L341 675H471L460 560H330ZM130 560L141 675H271L260 560H130Z" />
<glyph unicode="&#xfd;" glyph-name="yacute" horiz-adv-x="493" d="M331 -42Q287 -177 177 -177Q169 -177 156 -177T129 -176T104 -174T87 -172L97 -59Q121 -62 146 -62Q186 -62 199 -18L204 0H170L53 500H193L256 111L375 500H506L331 -42ZM213 580L324 715H488L324
580H213Z" />
<glyph unicode="&#xfe;" glyph-name="thorn" horiz-adv-x="519" d="M40 -170L116 700H249L228 462Q251 484 280 496T347 509Q418 509 451 465T485 332Q485 321 485 303T482 272Q475 193 458 139T411 52T335 5T225 -9Q214 -9 205 -9T187 -8L173 -170H40ZM302 395Q283
395 267 385T240 359T222 324T213 286L197 107Q209 106 221 106T244 105Q266 105 285 114T319 147T342 212T351 316Q351 363 339 379T302 395Z" />
<glyph unicode="&#xff;" glyph-name="ydieresis" horiz-adv-x="493" d="M331 -42Q287 -177 177 -177Q169 -177 156 -177T129 -176T104 -174T87 -172L97 -59Q121 -62 146 -62Q186 -62 199 -18L204 0H170L53 500H193L256 111L375 500H506L331 -42ZM317 560L328 675H458L447
560H317ZM117 560L128 675H258L247 560H117Z" />
<glyph unicode="&#x2013;" glyph-name="endash" horiz-adv-x="550" d="M86 245L96 360H496L486 245H86Z" />
<glyph unicode="&#x2014;" glyph-name="emdash" horiz-adv-x="605" d="M66 245L76 360H571L561 245H66Z" />
<glyph unicode="&#x2018;" glyph-name="quoteleft" horiz-adv-x="235" d="M163 699H256L212 542L202 432H67L77 542L163 699Z" />
<glyph unicode="&#x2019;" glyph-name="quoteright" horiz-adv-x="235" d="M154 433H57L101 590L111 700H246L236 590L154 433Z" />
<glyph unicode="&#x201a;" glyph-name="quotesinglbase" horiz-adv-x="235" d="M103 -157H6L50 0L59 110H194L185 0L103 -157Z" />
<glyph unicode="&#x201c;" glyph-name="quotedblleft" horiz-adv-x="405" d="M159 699H256L212 542L202 432H67L77 542L159 699ZM329 699H426L382 542L372 432H237L247 542L329 699Z" />
<glyph unicode="&#x201d;" glyph-name="quotedblright" horiz-adv-x="395" d="M324 433H227L271 590L281 700H416L406 590L324 433ZM154 433H57L101 590L111 700H246L236 590L154 433Z" />
<glyph unicode="&#x201e;" glyph-name="quotedblbase" horiz-adv-x="395" d="M273 -157H176L220 0L229 110H364L355 0L273 -157ZM103 -157H6L50 0L59 110H194L185 0L103 -157Z" />
<glyph unicode="&#x2022;" glyph-name="bullet" horiz-adv-x="305" d="M58 215L75 410H280L263 215H58Z" />
<glyph unicode="&#x2039;" glyph-name="guilsinglleft" horiz-adv-x="295" d="M135 92L66 299L171 506H278L200 299L244 92H135Z" />
<glyph unicode="&#x203a;" glyph-name="guilsinglright" horiz-adv-x="295" d="M47 92L127 299L85 506H192L261 299L156 92H47Z" />
</font>
</defs>
</svg>
