<?xml version="1.0" standalone="no"?>
<!DOCTYPE svg PUBLIC "-//W3C//DTD SVG 1.1//EN" "http://www.w3.org/Graphics/SVG/1.1/DTD/svg11.dtd">
<svg xmlns="http://www.w3.org/2000/svg">
<defs >
<font id="Faustina" horiz-adv-x="549" ><font-face
    font-family="Faustina"
    units-per-em="1000"
    panose-1="0 0 8 0 0 0 0 0 0 0"
    ascent="1043"
    descent="-215"
    alphabetic="0" />
<glyph unicode=" " glyph-name="space" horiz-adv-x="172" />
<glyph unicode="!" glyph-name="exclam" horiz-adv-x="220" d="M28 668T35 672T59 681T99 685Q130 685 145 679T164 662T168 636Q168 536 155 341Q147 233 144 160H60L26 667Q28 668 35 672ZM70 -28T50 -8T30 45Q30 77 53 100T108 124Q139 124 159 105T179 53Q179
20 157 -4T101 -28Q70 -28 50 -8Z" />
<glyph unicode="&quot;" glyph-name="quotedbl" horiz-adv-x="311" d="M31 707T51 714T89 721Q118 721 131 712T144 682Q144 673 135 619L112 491H56L31 706Q31 707 51 714ZM181 707T201 714T239 721Q268 721 281 712T294 682Q294 673 285 619L262 491H206L181
706Q181 707 201 714Z" />
<glyph unicode="#" glyph-name="numbersign" horiz-adv-x="530" d="M92 115H-1V206H109L126 295H20V387H144L169 518H264L238 387H331L357 518H451L426 387H511V295H408L391 206H490V115H374L346 -30H251L279 115H186L158 -30H64L92 115ZM296 206L314 295H221L203
206H296Z" />
<glyph unicode="$" glyph-name="dollar" horiz-adv-x="454" d="M445 100T399 52T277 -9L272 -107H196L191 -13Q137 -9 93 6T29 36V214H99L120 111Q141 90 164 79T223 68Q319 68 319 153Q319 180 299 203T213 258L193 267Q141 291 109 311T53 369T29 464Q29 539
71 587T189 650L195 757H274L278 654Q315 651 354 644T416 630V448H347L326 552Q288 571 244 571Q160 571 160 500Q160 474 171 458T202 429T264 397L290 384Q346 356 378 333T427 276T445 189Q445 100 399 52Z" />
<glyph unicode="%" glyph-name="percent" horiz-adv-x="737" d="M171 -32L99 20L568 695L642 643L171 -32ZM87 343T53 386T19 502Q19 576 59 620T180 665Q261 665 295 623T330 504Q330 430 292 387T170 343Q87 343 53 386ZM210 409T221 431T233 504Q233 559 221
579T174 599Q143 599 130 577T116 504Q116 453 128 431T175 409Q210 409 221 431ZM469 -14T435 29T401 145Q401 219 441 263T562 308Q643 308 677 266T712 147Q712 73 674 30T552 -14Q469 -14 435 29ZM592 52T603 74T615 147Q615 202 603 222T556 242Q525 242 512
220T498 147Q498 96 510 74T557 52Q592 52 603 74Z" />
<glyph unicode="&amp;" glyph-name="ampersand" horiz-adv-x="611" d="M383 -17T285 -17Q171 -17 102 26T33 169Q33 231 67 275T147 346Q111 388 94 423T77 499Q77 574 128 620T279 666Q317 666 363 657T431 638V463H362L341 575Q314 585 270 585Q223 585 208
567T193 514Q193 487 203 467T249 412L468 185Q477 215 477 244Q477 276 467 308L373 327V383H547Q548 378 552 358T560 306T564 238Q564 180 531 120L569 81L656 63V0H526Q485 0 455 30L452 32Q383 -17 285 -17ZM160 247T160 183Q160 64 304 64Q358 64 397 89L201
288Q160 247 160 183Z" />
<glyph unicode="&apos;" glyph-name="quotesingle" horiz-adv-x="207" d="M46 707T66 714T104 721Q133 721 146 712T159 682Q159 673 150 619L127 491H71L46 706Q46 707 66 714Z" />
<glyph unicode="(" glyph-name="parenleft" horiz-adv-x="258" d="M131 -128T88 -9T44 279Q44 660 246 699L268 642Q226 626 204 584T172 469T163 279Q163 151 172 76T205 -39T269 -94L247 -151Q131 -128 88 -9Z" />
<glyph unicode=")" glyph-name="parenright" horiz-adv-x="258" d="M30 -79T53 -39T85 77T95 280Q95 397 86 469T55 584T-10 642L12 699Q127 677 170 563T214 284Q214 -111 11 -151L-11 -94Q30 -79 53 -39Z" />
<glyph unicode="*" glyph-name="asterisk" horiz-adv-x="384" d="M148 346T134 353T99 378L157 499L93 492Q69 489 57 489Q39 489 25 498T10 529Q10 549 25 584L157 563L130 621Q128 625 120 642T112 675Q112 716 169 716H196L216 583L270 634Q285 649 296 656T321
663Q338 663 349 648T373 595L254 532L309 503Q314 500 330 492T356 473T365 446Q365 432 353 419T314 387L218 479L207 418Q201 390 191 368T159 346Q148 346 134 353ZM208 510L222 531L206 553L183 544V517L208 510Z" />
<glyph unicode="+" glyph-name="plus" horiz-adv-x="530" d="M215 69V219H65V312H215V469H312V312H465V219H312V69H215Z" />
<glyph unicode="," glyph-name="comma" horiz-adv-x="191" d="M24 -123Q38 -83 46 -45T55 17Q55 62 24 93Q48 143 98 143Q131 143 151 122T172 68Q172 18 133 -44T61 -139L24 -123Z" />
<glyph unicode="-" glyph-name="hyphen" horiz-adv-x="313" d="M35 310L265 328V223H35V310Z" />
<glyph unicode="." glyph-name="period" horiz-adv-x="191" d="M61 -8T41 12T21 65Q21 97 44 120T99 144Q130 144 150 125T170 73Q170 40 148 16T92 -8Q61 -8 41 12Z" />
<glyph unicode="/" glyph-name="slash" horiz-adv-x="350" d="M319 695L402 658L42 -166L-39 -129L319 695Z" />
<glyph unicode="0" glyph-name="zero" horiz-adv-x="610" d="M162 -18T105 71T48 325Q48 484 113 575T316 666Q452 666 508 578T564 325Q564 165 499 74T298 -18Q162 -18 105 71ZM369 64T393 129T418 325Q418 454 394 518T306 582Q243 582 219 518T194 325Q194
195 218 130T306 64Q369 64 393 129Z" />
<glyph unicode="1" glyph-name="one" horiz-adv-x="430" d="M48 0V64L164 81V554H44V627L219 657H297V81L411 64V0H48Z" />
<glyph unicode="2" glyph-name="two" horiz-adv-x="511" d="M29 68L246 294Q290 340 309 385T328 478Q328 532 304 555T214 579Q185 579 166 575T127 563L106 459H37V631Q69 644 123 655T229 666Q355 666 411 622T468 494Q468 443 453 403T409 325T327 235L189
101V95H399L425 188H491V0H29V68Z" />
<glyph unicode="3" glyph-name="three" horiz-adv-x="481" d="M100 -17T20 33L30 194H108L119 100Q130 92 158 81T212 70Q280 70 308 97T336 185Q336 240 290 269T177 299H146L127 336V379H174Q234 379 271 409T309 491Q309 540 284 559T201 579Q157 579 125 566L117
477H46L36 631Q122 666 224 666Q326 666 380 633T435 519Q435 465 401 426T320 366V357Q387 343 428 303T470 189Q470 117 433 71T339 4T219 -17Q100 -17 20 33Z" />
<glyph unicode="4" glyph-name="four" horiz-adv-x="520" d="M201 0V58L285 76V165H33L-4 241L320 691L416 661V260H495V165H416V76L501 58V0H201ZM124 260H285V487L288 500L283 501L279 487L124 270V260Z" />
<glyph unicode="5" glyph-name="five" horiz-adv-x="470" d="M140 -17T93 -3T20 27L29 191H99L111 99Q114 97 126 90T161 77T212 70Q269 70 295 100T322 197Q322 263 282 292T148 322H44V648H417V535H131V409H190Q319 409 388 367T458 220Q458 103 390 43T207
-17Q140 -17 93 -3Z" />
<glyph unicode="6" glyph-name="six" horiz-adv-x="545" d="M160 -15T103 51T45 244Q45 376 95 471T242 616T472 666V611Q348 595 280 536T199 374Q259 416 335 416Q416 416 463 364T510 222Q510 151 480 98T395 15T268 -15Q160 -15 103 51ZM329 75T348 103T368
200Q368 260 346 286T274 313Q228 313 199 304Q197 296 197 254Q197 155 216 115T283 75Q329 75 348 103Z" />
<glyph unicode="7" glyph-name="seven" horiz-adv-x="455" d="M73 0V56L339 511V536H116L103 460H31L21 648H460V536L183 0H73Z" />
<glyph unicode="8" glyph-name="eight" horiz-adv-x="515" d="M148 -14T95 25T42 137Q42 185 73 234T152 313Q105 341 78 380T51 477Q51 533 78 577T155 646T267 671Q356 671 408 631T461 521Q461 414 373 356Q429 324 457 285T485 181Q485 129 458 85T377 13T251
-14Q148 -14 95 25ZM327 408T339 438T351 501Q351 584 261 584Q181 584 181 511Q181 477 198 455T265 408L306 389Q327 408 339 438ZM310 66T333 88T357 151Q357 191 334 216T256 264L215 282Q184 249 173 221T162 162Q162 66 263 66Q310 66 333 88Z" />
<glyph unicode="9" glyph-name="nine" horiz-adv-x="520" d="M127 -14T76 -6V49Q175 49 231 69T313 135T343 265Q323 251 291 241T220 231Q128 231 76 287T24 441Q24 509 53 560T133 638T244 666Q365 666 428 596T491 369Q491 168 408 77T167 -14Q127 -14 76 -6ZM293
334T315 337T343 343V376Q343 450 336 492T309 555T249 576Q205 576 186 549T166 455Q166 389 192 362T264 334Q293 334 315 337Z" />
<glyph unicode=":" glyph-name="colon" horiz-adv-x="191" d="M61 312T41 332T21 385Q21 417 44 440T99 464Q130 464 150 445T170 393Q170 360 148 336T92 312Q61 312 41 332ZM61 -8T41 12T21 65Q21 97 44 120T99 144Q130 144 150 125T170 73Q170 40 148 16T92
-8Q61 -8 41 12Z" />
<glyph unicode=";" glyph-name="semicolon" horiz-adv-x="191" d="M61 312T41 332T21 385Q21 417 44 440T99 464Q130 464 150 445T170 393Q170 360 148 336T92 312Q61 312 41 332ZM24 -123Q38 -83 46 -45T55 17Q55 62 24 93Q48 143 98 143Q131 143 151 122T172
68Q172 18 133 -44T61 -139L24 -123Z" />
<glyph unicode="&lt;" glyph-name="less" horiz-adv-x="530" d="M32 278L467 502L511 412L177 251L510 88L468 0L32 216V278Z" />
<glyph unicode="=" glyph-name="equal" horiz-adv-x="530" d="M67 305V399H462V305H67ZM67 137V231H462V137H67Z" />
<glyph unicode="&gt;" glyph-name="greater" horiz-adv-x="530" d="M33 88L366 251L32 412L76 502L511 278V216L75 0L33 88Z" />
<glyph unicode="?" glyph-name="question" horiz-adv-x="361" d="M159 361Q203 376 220 404T237 485Q237 510 230 524T202 545T141 552H41Q39 554 35 560T26 578T21 603Q21 637 42 652T124 667Q180 667 231 642T316 569T349 453Q349 391 315 348T228 286L175 268L153
163H63V327L159 361ZM76 -28T56 -8T36 45Q36 77 59 100T114 124Q145 124 165 105T185 53Q185 20 163 -4T107 -28Q76 -28 56 -8Z" />
<glyph unicode="@" glyph-name="at" horiz-adv-x="762" d="M264 -112T184 -67T63 61T22 252Q22 354 71 441T210 579T417 630Q522 630 598 591T714 479T755 310Q755 229 730 170T657 78T549 46Q504 46 474 63T430 108Q387 78 366 69T310 60Q264 60 236 93T207 200Q207
256 230 314T296 411T397 450Q417 450 435 447T465 441T479 436Q504 459 506 460H567L520 190Q517 174 517 166Q517 151 524 143T554 135Q590 135 616 174T642 291Q642 427 575 484T408 541Q335 541 274 512T176 418T139 257Q139 117 206 43T399 -32Q455 -32 495
-23T573 3L596 -45Q596 -48 567 -65T489 -97T381 -112Q264 -112 184 -67ZM372 148T384 154T404 166T414 174L442 349Q440 351 433 355T411 364T380 369Q355 369 348 362Q338 352 326 310T314 212Q314 178 322 163T356 148Q372 148 384 154Z" />
<glyph unicode="A" glyph-name="A" horiz-adv-x="653" d="M-8 62L58 74L259 655H380L597 74L666 61V0H359V62L438 74L404 180H201L172 94L165 73L248 62V0H-8V62ZM380 260L310 472L307 496H302L299 472L228 260H380Z" />
<glyph unicode="B" glyph-name="B" horiz-adv-x="637" d="M35 56L115 75V573L35 592V648H311Q445 648 509 608T573 481Q573 443 548 408T477 344Q597 305 597 204Q597 109 534 55T360 0H35V56ZM292 367Q354 367 388 395T423 472Q423 521 395 546T312 572Q285 572
257 568V367H292ZM373 76T409 102T445 186Q445 291 293 291H257V77Q264 76 294 76Q373 76 409 102Z" />
<glyph unicode="C" glyph-name="C" horiz-adv-x="606" d="M566 207V27Q523 8 469 -5T335 -18Q186 -18 111 68T35 316Q35 416 76 495T190 620T358 666Q416 666 470 658T562 639V459H487L466 564Q409 582 360 582Q299 582 264 557T214 476T198 319Q198 217 215 162T268
86T361 65Q418 65 469 88L492 207H566Z" />
<glyph unicode="D" glyph-name="D" horiz-adv-x="712" d="M35 56L115 75V573L35 592V648H348Q507 648 592 569T677 332Q677 233 636 158T522 41T354 0H35V56ZM382 76T429 98T495 177T514 343Q514 438 487 488T416 555T309 572H257V76H289Q382 76 429 98Z" />
<glyph unicode="E" glyph-name="E" horiz-adv-x="581" d="M35 56L115 75V573L35 592V648H532V460H464L439 572H301L257 565V366H359L381 435H434V214H381L359 290H257V76H305H449L475 197H541V0H35V56Z" />
<glyph unicode="F" glyph-name="F" horiz-adv-x="537" d="M35 56L115 75V573L35 592V648H522V460H454L429 572H301L257 565V349H376L398 418H451V197H398L376 274H257V75L337 56V0H35V56Z" />
<glyph unicode="G" glyph-name="G" horiz-adv-x="648" d="M361 278V334H633V278L583 259V0H533L510 26H501Q430 -18 335 -18Q185 -18 110 65T35 308Q35 420 78 501T201 624T384 666Q436 666 476 659T542 645T577 635V455H502L481 563Q441 582 385 582Q287 582
243 520T198 322Q198 224 216 168T269 89T361 65Q406 65 441 78V259L361 278Z" />
<glyph unicode="H" glyph-name="H" horiz-adv-x="762" d="M35 56L115 75V573L35 592V648H337V592L257 573V373H505V573L425 592V648H727V592L647 573V75L727 56V0H425V56L505 75V296H257V75L337 56V0H35V56Z" />
<glyph unicode="I" glyph-name="I" horiz-adv-x="372" d="M35 56L115 75V573L35 592V648H337V592L257 573V75L337 56V0H35V56Z" />
<glyph unicode="J" glyph-name="J" horiz-adv-x="415" d="M70 193L96 72Q98 71 107 68T131 65Q165 65 176 78T187 120V573L107 592V648H409V592L329 573V120Q329 57 291 20T146 -18Q99 -18 60 -8T0 15V193H70Z" />
<glyph unicode="K" glyph-name="K" horiz-adv-x="634" d="M115 75V573L35 592V648H337V592L257 573V356H272L440 563V580L392 592V648H625V592L556 573L380 356L573 76L654 56V0H504Q480 0 466 10T436 45L270 291H257V75L337 56V0H35V56L115 75Z" />
<glyph unicode="L" glyph-name="L" horiz-adv-x="523" d="M35 56L115 75V573L35 592V648H337V592L257 573V83L308 76H425L452 188H518V0H35V56Z" />
<glyph unicode="M" glyph-name="M" horiz-adv-x="878" d="M32 0V56L112 75V574L46 587V648H290L434 179L437 148L442 179L589 648H831V586L763 574V75L843 56V0H542V56L622 75V432L624 456H619L614 432L479 0H358L215 456H209L211 432V75L291 56V0H32Z" />
<glyph unicode="N" glyph-name="N" horiz-adv-x="729" d="M35 0V56L115 75V574L49 587V648H259L522 233L526 218H530V573L450 591V648H709V591L629 573V0H506L222 432L218 447H214V75L294 56V0H35Z" />
<glyph unicode="O" glyph-name="O" horiz-adv-x="707" d="M193 -18T114 66T35 313Q35 416 75 496T190 621T366 666Q514 666 593 582T672 335Q672 231 633 151T519 27T341 -18Q193 -18 114 66ZM413 65T445 87T492 163T508 309Q508 409 491 469T439 555T348 582Q295
582 263 560T214 485T198 340Q198 239 215 179T268 92T360 65Q413 65 445 87Z" />
<glyph unicode="P" glyph-name="P" horiz-adv-x="583" d="M35 56L115 75V573L35 592V648H317Q450 648 511 607T573 461Q573 398 542 353T458 284T340 261Q328 261 304 263L299 310Q369 318 396 352T423 461Q423 572 312 572Q295 572 279 571T257 568V75L337 56V0H35V56Z" />
<glyph unicode="Q" glyph-name="Q" horiz-adv-x="707" d="M323 -21T274 -13Q157 4 96 88T35 313Q35 414 75 494T190 620T366 666Q513 666 592 581T672 335Q672 213 616 123T457 0L603 -77H708V-128Q704 -131 688 -139T648 -154T602 -162Q548 -162 507 -134L358
-43Q323 -21 274 -13ZM413 65T445 87T492 166T508 324Q508 459 469 520T347 582Q294 582 262 560T214 484T198 337Q198 191 236 128T360 65Q413 65 445 87Z" />
<glyph unicode="R" glyph-name="R" horiz-adv-x="627" d="M35 56L115 75V573L35 592V648H317Q444 648 504 608T564 465Q564 400 530 355T432 287L556 73L630 56V0H480Q457 0 444 7T421 33L299 264H257V75L337 56V0H35V56ZM287 340Q349 340 382 371T415 465Q415
522 393 547T308 572Q275 572 257 568V340H287Z" />
<glyph unicode="S" glyph-name="S" horiz-adv-x="536" d="M178 -17T123 -1T39 33V211H109L130 108Q149 89 183 77T249 65Q313 65 341 89T369 152Q369 177 361 191T328 221T243 262L214 274Q157 298 122 319T63 378T39 475Q39 531 67 574T149 642T274 666Q325 666
379 658T466 641V459H397L376 563Q330 582 278 582Q218 582 194 563T170 501Q170 478 182 463T213 438T269 413Q276 411 290 405Q358 378 400 353T469 289T495 195Q495 82 425 33T252 -17Q178 -17 123 -1Z" />
<glyph unicode="T" glyph-name="T" horiz-adv-x="563" d="M135 56L215 75V572H101L74 460H8V648H561V460H495L468 572H357V75L437 56V0H135V56Z" />
<glyph unicode="U" glyph-name="U" horiz-adv-x="684" d="M3 592V648H299V592L225 573V278Q225 190 238 146T282 85T371 69Q421 69 448 86T488 148T501 278V573L422 591V648H681V591L601 573V278Q601 172 578 108T500 13T352 -18Q249 -18 191 10T108 102T83 278V573L3
592Z" />
<glyph unicode="V" glyph-name="V" horiz-adv-x="622" d="M270 -12L55 574L-13 587V648H297V586L218 574V566L339 173L342 146H347L351 173L482 574L399 586V648H645V586L579 574L380 -12H270Z" />
<glyph unicode="W" glyph-name="W" horiz-adv-x="1009" d="M226 -12L53 574L-13 587V648H288V586L206 574L208 564L301 174L303 150H308L312 174L452 648H603L752 174L754 150H759L763 174L859 565L861 574L775 586V648H1031V586L967 574L804 -12H676L518 473L514
497H509L507 473L354 -12H226Z" />
<glyph unicode="X" glyph-name="X" horiz-adv-x="620" d="M-3 56L81 74L252 313L79 575L7 592V648H318V592L251 576V562L346 418L458 567V577L391 592V648H636V592L563 573L393 347L573 73L645 56V0H342V56L405 71V83L300 241L186 82V70L242 56V0H-3V56Z" />
<glyph unicode="Y" glyph-name="Y" horiz-adv-x="613" d="M162 56L242 75V249L54 576L-11 592V648H266V592L203 577V562L324 332H334L456 568V576L385 592V648H632V592L560 574L384 249V75L464 56V0H162V56Z" />
<glyph unicode="Z" glyph-name="Z" horiz-adv-x="520" d="M5 76L337 559V572H104L84 470H14V648H507V572L175 87V76H422L443 178H513V0H5V76Z" />
<glyph unicode="[" glyph-name="bracketleft" horiz-adv-x="256" d="M62 704H272V639L166 618V-66L272 -87V-151H62V704Z" />
<glyph unicode="\" glyph-name="backslash" horiz-adv-x="468" d="M13 658L94 695L454 -129L371 -166L13 658Z" />
<glyph unicode="]" glyph-name="bracketright" horiz-adv-x="256" d="M-16 -87L90 -66V619L-16 640V704H194V-151H-16V-87Z" />
<glyph unicode="^" glyph-name="asciicircum" horiz-adv-x="530" d="M235 649H297L487 262H394L266 543L137 262H44L235 649Z" />
<glyph unicode="_" glyph-name="underscore" horiz-adv-x="460" d="M10 1H450V-93H10V1Z" />
<glyph unicode="`" glyph-name="grave" horiz-adv-x="212" d="M0 670T10 690T34 720T62 731Q75 731 87 721T116 693L212 578L176 535L0 644Q0 670 10 690Z" />
<glyph unicode="a" glyph-name="a" horiz-adv-x="520" d="M106 -12T70 25T33 118Q33 181 79 217T200 266L307 284V350Q307 389 292 407T233 426Q211 426 200 424T187 421L173 330Q169 328 154 324T120 320Q85 320 68 333T51 379Q51 421 85 450T170 494T266 509Q354
509 396 478T439 373V81L512 67V16Q507 14 491 9T449 -1T400 -6Q361 -6 345 5T320 41H311Q293 23 259 6T179 -12Q106 -12 70 25ZM275 74T307 91V215Q251 210 222 199T184 173T174 135Q174 74 248 74Q275 74 307 91Z" />
<glyph unicode="b" glyph-name="b" horiz-adv-x="543" d="M224 -8T182 31H171L132 0H66V602L-15 618V676L161 699L198 685V471L189 462L192 457Q215 475 251 492T338 509Q417 509 465 456T513 288Q513 191 482 124T401 25T294 -8Q224 -8 182 31ZM318 69T344 110T371
254Q371 348 348 384T273 421Q234 421 198 407V79Q224 69 260 69Q318 69 344 110Z" />
<glyph unicode="c" glyph-name="c" horiz-adv-x="454" d="M423 48T400 32T339 2T253 -12Q132 -12 76 48T20 237Q20 333 54 394T143 482T257 509Q333 509 383 473T434 378Q434 348 418 332T354 315Q344 315 333 318T319 322L301 421Q298 422 287 424T260 426Q223
426 202 413T172 365T162 265Q162 193 172 154T212 95T299 76Q327 76 350 79T388 87T405 92L423 50Q423 48 400 32Z" />
<glyph unicode="d" glyph-name="d" horiz-adv-x="568" d="M130 -12T80 46T30 221Q30 316 60 381T141 477T251 509Q309 509 350 481L354 484L345 493V602L264 625V683L440 699L477 685V89L558 73V15L382 -8L359 41H357Q336 19 302 4T219 -12Q130 -12 80 46ZM309
76T345 96V415Q303 426 269 426Q219 426 196 383T172 238Q172 146 195 111T269 76Q309 76 345 96Z" />
<glyph unicode="e" glyph-name="e" horiz-adv-x="488" d="M140 -12T80 44T20 238Q20 323 49 384T132 477T257 509Q364 509 409 450T454 308Q454 259 443 242T407 224H162Q163 148 192 112T294 76Q331 76 359 81T403 92T423 100L442 58Q442 56 416 38T350 4T261
-12Q140 -12 80 44ZM313 297Q316 315 316 329Q316 383 304 404T250 426Q202 426 184 391T162 289L313 297Z" />
<glyph unicode="f" glyph-name="f" horiz-adv-x="349" d="M19 55L98 69V422H23V487L98 505Q98 597 154 651T314 705Q355 705 379 692T403 643Q403 623 394 609T374 588T363 582Q358 584 339 590T295 601T255 607Q242 607 230 605V501H360V461L347 422H230V73L334
58V0H19V55Z" />
<glyph unicode="g" glyph-name="g" horiz-adv-x="480" d="M119 -166T64 -140T9 -55Q9 -20 33 6T97 57Q84 74 84 100Q84 124 101 145T143 180Q83 194 52 237T21 330Q21 416 80 462T235 508Q302 508 349 479Q366 493 395 506T447 520Q498 520 498 471Q498 448 485
431T457 406L437 420Q424 430 415 434T395 438Q411 416 419 391T427 344Q427 295 400 256T324 195T216 173H202V133L319 114Q375 105 407 92T457 56T474 -8Q474 -55 438 -91T343 -146T216 -166Q119 -166 64 -140ZM248 245T262 252T282 281T288 344Q288 395 277
414T226 434Q199 434 185 426T166 398T160 338Q160 300 164 281T182 254T221 245Q248 245 262 252ZM351 -96T351 -46Q351 -25 341 -13T301 4L146 28Q128 -8 128 -38Q128 -69 152 -82T238 -96Q351 -96 351 -46Z" />
<glyph unicode="h" glyph-name="h" horiz-adv-x="600" d="M18 55L97 69V602L16 618V676L192 699L229 685V469L221 461L222 457Q250 476 291 492T375 509Q517 509 517 367V69L591 55V0H315V55L385 69V344Q385 373 380 389T357 414T306 423Q269 423 229 413V69L299
55V0H18V55Z" />
<glyph unicode="i" glyph-name="i" horiz-adv-x="311" d="M114 561T92 583T70 641Q70 676 95 701T155 727Q189 727 211 706T233 649Q233 613 209 587T147 561Q114 561 92 583ZM19 55L98 69V409L19 425V483L193 506L230 492V69L300 55V0H19V55Z" />
<glyph unicode="j" glyph-name="j" horiz-adv-x="292" d="M113 561T91 583T69 641Q69 676 94 701T154 727Q188 727 210 706T232 649Q232 613 208 587T146 561Q113 561 91 583ZM79 -169T54 -165T14 -157T-5 -151V-100L97 -77V409L16 425V483L192 506L229 492V-79Q229
-120 198 -144T107 -169Q79 -169 54 -165Z" />
<glyph unicode="k" glyph-name="k" horiz-adv-x="544" d="M95 69V607L15 623V676L200 699L227 663V310H265L355 422V431L300 442V499H535V446L463 430L356 297L482 80L569 55V0H359V19Q359 37 349 53L246 237H227V69L287 55V0H16V55L95 69Z" />
<glyph unicode="l" glyph-name="l" horiz-adv-x="311" d="M13 55L92 69V602L11 618V676L187 699L224 685V69L294 55V0H13V55Z" />
<glyph unicode="m" glyph-name="m" horiz-adv-x="899" d="M19 55L98 69V409L17 425V483L193 506L230 459Q267 482 308 495T381 509Q469 509 503 454Q530 475 583 492T675 509Q818 509 818 367V69L891 55V0H615V55L685 69V340Q685 389 669 406T606 423Q586 423
561 420T519 411Q524 383 524 367V69L597 55V0H321V55L391 69V340Q391 389 375 406T312 423Q275 423 230 411V69L300 55V0H19V55Z" />
<glyph unicode="n" glyph-name="n" horiz-adv-x="603" d="M21 55L100 69V409L21 425V483L195 506L223 459H227Q264 483 304 497T378 511Q520 511 520 367V69L594 55V0H318V55L388 69V344Q388 389 372 405T309 421Q275 421 232 413V69L302 55V0H21V55Z" />
<glyph unicode="o" glyph-name="o" horiz-adv-x="530" d="M134 -14T80 51T25 240Q25 313 51 374T135 473T280 511Q395 511 450 445T505 263Q505 142 447 64T257 -14Q134 -14 80 51ZM313 62T332 83T357 142T363 245Q363 313 356 351T328 407T269 426Q225 426 204
408T175 352T167 245Q167 175 174 138T205 81T274 62Q313 62 332 83Z" />
<glyph unicode="p" glyph-name="p" horiz-adv-x="553" d="M7 -110L76 -96V409L-5 425V483L171 506L199 459H204Q233 482 272 495T347 509Q431 509 477 451T523 288Q523 201 496 135T418 32T303 -5Q244 -5 202 28L199 25L208 16V-94L308 -108V-165H7V-110ZM330
72T355 114T381 254Q381 346 359 383T283 421Q242 421 208 406V84Q234 72 269 72Q330 72 355 114Z" />
<glyph unicode="q" glyph-name="q" horiz-adv-x="536" d="M241 -110L345 -94V29L354 38L351 40Q329 18 300 7T236 -5Q134 -5 82 52T30 221Q30 307 57 372T135 473T251 509Q282 509 311 498T357 468H368L411 499H477V-96L546 -110V-165H241V-110ZM315 76T345 97V413Q302
426 269 426Q217 426 195 383T172 238Q172 76 271 76Q315 76 345 97Z" />
<glyph unicode="r" glyph-name="r" horiz-adv-x="414" d="M99 69V404L20 420V478L194 501L228 445Q233 450 253 465T298 495T344 509Q399 509 399 452Q399 433 392 416T376 388T366 376L292 399Q272 405 256 405Q249 405 241 403T231 400V72L341 56V0H20V55L99 69Z" />
<glyph unicode="s" glyph-name="s" horiz-adv-x="440" d="M115 164L139 84Q153 74 170 67T216 59Q265 59 282 74T300 126Q300 156 277 168T202 192Q152 204 120 217T64 262T40 350Q40 429 94 469T243 509Q284 509 329 502T395 489L387 345H324L303 416Q301 417
293 420T269 427T237 430Q191 430 174 416T156 378Q156 352 177 340T250 313Q301 299 334 284T392 236T416 147Q416 62 359 24T218 -14Q167 -14 116 -3T45 19L52 164H115Z" />
<glyph unicode="t" glyph-name="t" horiz-adv-x="391" d="M-4 423V488L92 509L136 630H224V499H365V453L351 423H224V144Q224 106 237 93T278 80Q295 80 312 83T340 91T354 96L371 45Q374 45 351 30T296 3T229 -9Q153 -9 123 24T92 126V423H-4Z" />
<glyph unicode="u" glyph-name="u" horiz-adv-x="600" d="M160 -12T124 22T87 129V409L7 425V483L182 506L219 492V166Q219 130 226 111T252 84T306 76Q325 76 346 80T380 89V409L299 425V483L474 506L512 492V88L591 72V14L416 -9L388 36H379Q352 15 312 2T236
-12Q160 -12 124 22Z" />
<glyph unicode="v" glyph-name="v" horiz-adv-x="490" d="M36 424L-22 440V496H240V433L181 425V407L257 145L266 96L276 145L358 405V425L294 436V496H521V436L456 424L312 -7H185L36 424Z" />
<glyph unicode="w" glyph-name="w" horiz-adv-x="786" d="M173 -7L29 427L-31 440V496H236V436L167 427L169 419L247 145L253 104L260 145L347 496H488L572 145L578 104L585 145L669 418L672 427L598 436V496H830V439L764 427L624 -7H495L395 332L304 -7H173Z" />
<glyph unicode="x" glyph-name="x" horiz-adv-x="509" d="M-15 55L52 69L185 240L71 416L-13 441V496H186L281 340L344 421V428L289 441V496H515V441L452 427L324 269L439 80L526 55V0H316V19Q316 37 306 53L231 168L163 77V67L219 55V0H-15V55Z" />
<glyph unicode="y" glyph-name="y" horiz-adv-x="503" d="M536 496V436L470 427L278 -101Q263 -141 233 -157T141 -173Q96 -173 58 -164V-108L197 -74L223 0H205L43 427L-30 440V496H251V436L184 427L188 416L273 167V144L285 178L368 415L372 427L296 436V496H536Z" />
<glyph unicode="z" glyph-name="z" horiz-adv-x="458" d="M15 0V80L263 420H120L98 347H27V496H424V416L173 91L162 76H342L361 162H436V0H15Z" />
<glyph unicode="{" glyph-name="braceleft" horiz-adv-x="240" d="M131 -131T90 -92T48 2Q48 13 49 19L75 228Q55 238 20 252V305Q65 323 75 328L50 533Q49 539 49 550Q49 604 91 643T196 703L224 648Q186 628 175 606T164 544L178 342Q178 301 148 278Q178 256
178 214L163 8Q163 -32 174 -54T223 -96L195 -151Q131 -131 90 -92Z" />
<glyph unicode="|" glyph-name="bar" horiz-adv-x="361" d="M135 699H225V-156H135V699Z" />
<glyph unicode="}" glyph-name="braceright" horiz-adv-x="240" d="M17 -96Q55 -76 66 -54T77 8L62 214Q62 256 92 278Q62 301 62 342L76 544Q76 584 65 606T16 648L44 703Q107 683 149 644T191 550Q191 539 190 533L165 328Q175 323 220 305V252Q185 238 165
228L191 19Q192 13 192 2Q192 -52 150 -91T45 -151L17 -96Z" />
<glyph unicode="~" glyph-name="asciitilde" horiz-adv-x="430" d="M279 215T254 222T222 231L130 254L55 216L20 249L59 311Q83 351 132 351Q162 351 208 338L300 313L375 351L410 318L371 255Q347 215 302 215Q279 215 254 222Z" />
<glyph unicode="&#xa0;" glyph-name="uni00A0" horiz-adv-x="172" />
<glyph unicode="&#xa1;" glyph-name="exclamdown" horiz-adv-x="220" d="M88 388T68 407T48 459Q48 492 70 516T126 540Q157 540 177 520T197 467Q197 435 174 412T119 388Q88 388 68 407ZM96 -173T81 -166T63 -147T59 -116Q59 -102 83 352H167L201 -155Q199 -156
192 -160T168 -169T128 -173Q96 -173 81 -166Z" />
<glyph unicode="&#xa2;" glyph-name="cent" horiz-adv-x="446" d="M114 73T69 136T24 320Q24 443 75 510T209 597L215 708H292L297 605Q330 604 360 599T407 588T430 580V419H357L340 506Q338 507 331 511T309 519T278 523Q222 523 195 485T167 349Q167 274 177
232T217 170T305 150Q333 150 361 155T407 165T431 172V111Q431 110 413 99T365 77T297 61L292 -46H216L210 62Q114 73 69 136Z" />
<glyph unicode="&#xa3;" glyph-name="sterling" horiz-adv-x="520" d="M61 86T75 115T89 174V291H34V378H89V486Q89 660 305 660Q347 660 392 655T470 639V480H401L378 569Q354 577 305 577Q257 577 236 558T214 486V378H343V291H214V174Q214 113 182 90V83H394L417
185H483V0H35V63Q61 86 75 115Z" />
<glyph unicode="&#xa4;" glyph-name="currency" horiz-adv-x="530" d="M46 262T46 328Q46 394 80 445L2 529L63 589L147 511Q197 542 260 542Q290 542 321 532T378 506L467 588L528 528L444 439Q476 385 476 328Q476 270 443 214L528 124L467 64L377 148Q324 114
260 114Q198 114 148 145L62 65L1 125L80 211Q46 262 46 328ZM158 288T188 258T260 228Q302 228 333 258T364 329Q364 371 333 402T260 433Q219 433 189 402T158 328Q158 288 188 258Z" />
<glyph unicode="&#xa5;" glyph-name="yen" horiz-adv-x="591" d="M385 648H632V592L560 574L454 378H541V310H417L386 253L541 249V180L384 184V75L464 56V0H162V56L242 75V186H87V255H239L204 315H87V381H166L54 576L-11 592V648H266V592L203 577V562L324 332H334L456
568V576L385 592V648Z" />
<glyph unicode="&#xa6;" glyph-name="brokenbar" horiz-adv-x="361" d="M135 699H225V334H135V699ZM135 209H225V-156H135V209Z" />
<glyph unicode="&#xa7;" glyph-name="section" horiz-adv-x="551" d="M159 413T126 438T78 490T63 554Q63 596 89 632T168 690T293 712Q342 712 386 707T457 695T491 687V505H422L401 609Q398 611 386 615T351 624T301 628Q247 628 220 613T192 569Q192 550 200
537T226 510T291 465L538 319L477 225L227 373Q159 413 126 438ZM133 65L155 -38Q155 -39 172 -50T217 -70T281 -80Q336 -80 365 -61T394 -8Q394 8 391 17T375 38T334 67L59 230L120 318L419 146Q472 116 494 86T516 21Q516 -32 487 -74T403 -140T274 -164Q215
-164 169 -153T93 -128T64 -113V65H133Z" />
<glyph unicode="&#xa8;" glyph-name="dieresis" horiz-adv-x="374" d="M40 561T20 581T0 634Q0 666 23 689T78 713Q109 713 129 694T149 641Q149 608 127 585T70 561Q40 561 20 581ZM265 561T245 581T225 634Q225 666 248 689T303 713Q334 713 354 694T374 641Q374
608 352 585T295 561Q265 561 245 581Z" />
<glyph unicode="&#xa9;" glyph-name="copyright" horiz-adv-x="668" d="M8 415T52 490T171 609T336 653Q425 653 500 609T619 490T663 325Q663 236 619 161T500 42T336 -2Q246 -2 171 42T52 161T8 325Q8 415 52 490ZM405 62T463 97T556 192T590 324Q590 396 556
456T464 551T334 586Q262 586 205 551T114 456T81 324Q81 252 114 192T204 97T334 62Q405 62 463 97ZM457 287V177Q394 155 322 155Q243 155 203 198T162 322Q162 372 183 411T244 473T333 496Q398 496 455 483V373H410L399 425Q377 434 354 434Q303 434 284 410T264
323Q264 260 285 238T355 216Q383 216 400 227L412 287H457Z" />
<glyph unicode="&#xaa;" glyph-name="ordfeminine" horiz-adv-x="376" d="M78 349T51 374T23 441Q23 527 132 543L208 554V588Q208 616 197 627T158 639Q134 639 127 636L118 584Q102 578 82 578Q57 578 46 587T35 617Q35 640 55 660T108 693T180 705Q247 705
277 684T307 613V427L356 417V373Q338 364 314 359T271 353Q248 353 236 361T217 390H211Q197 373 171 361T122 349Q78 349 51 374ZM188 422T208 432V497Q163 493 144 483T125 453Q125 422 168 422Q188 422 208 432Z" />
<glyph unicode="&#xab;" glyph-name="guillemotleft" horiz-adv-x="416" d="M12 227T12 244Q12 252 29 275T63 318L162 427L218 392L142 245L218 94L162 59L64 168Q12 227 12 244ZM192 227T192 244Q192 252 209 275T243 318L342 427L398 392L322 245L398 94L342
59L244 168Q192 227 192 244Z" />
<glyph unicode="&#xac;" glyph-name="logicalnot" horiz-adv-x="530" d="M35 364H467V112H384V274H35V364Z" />
<glyph unicode="&#xad;" glyph-name="uni00AD" horiz-adv-x="313" d="M35 310L265 328V223H35V310Z" />
<glyph unicode="&#xae;" glyph-name="registered" horiz-adv-x="691" d="M410 793T476 754T582 649T621 503Q621 424 582 358T477 252T331 213Q252 213 186 252T80 357T41 503Q41 582 80 648T185 754T331 793Q410 793 476 754ZM547 432T547 503Q547 564 518 615T440
695T331 725Q280 725 238 705T167 648H368Q415 648 442 626T469 565Q469 538 452 515T408 482L464 405L509 396V375Q547 432 547 503ZM117 433T155 374V396L202 403V594L165 600V646Q117 586 117 503Q117 433 155 374ZM315 514Q344 514 357 524T371 555Q371 575
361 584T327 594Q310 594 296 591V514H315ZM380 281T423 301T496 358H408Q391 358 384 371L325 461H296V403L343 396V356H169Q198 321 240 301T331 281Q380 281 423 301Z" />
<glyph unicode="&#xaf;" glyph-name="overscore" horiz-adv-x="365" d="M16 669H362L349 586H3L16 669Z" />
<glyph unicode="&#xb0;" glyph-name="degree" horiz-adv-x="238" d="M5 617T38 650T118 684Q166 684 199 651T233 569Q233 522 200 489T118 456Q71 456 38 489T5 569Q5 617 38 650ZM81 553T91 543T118 532Q134 532 145 542T156 569Q156 586 146 596T118 607Q102
607 92 596T81 569Q81 553 91 543Z" />
<glyph unicode="&#xb1;" glyph-name="plusminus" horiz-adv-x="530" d="M215 130V280H65V373H215V530H312V373H465V280H312V130H215ZM67 -7V87H462V-7H67Z" />
<glyph unicode="&#xb2;" glyph-name="uni00B2" horiz-adv-x="350" d="M117 496Q122 501 132 509Q167 540 184 560T201 597Q201 618 189 626T151 634Q137 634 125 631T109 627L95 559H27V675Q48 689 84 700T166 712Q242 712 279 689T317 615Q317 587 307 566T274
523T205 467L163 436V432H257L268 486H329V356H29V418L117 496Z" />
<glyph unicode="&#xb3;" glyph-name="uni00B3" horiz-adv-x="350" d="M108 482L115 437Q131 426 171 426Q199 426 211 434T223 461Q223 485 210 493T169 502H148L133 537V571H160Q190 571 202 578T215 602Q215 621 205 628T165 636Q151 636 137 633T118 629L107
564H41V675Q101 712 179 712Q254 712 290 692T327 624Q327 592 316 577T281 550Q343 531 343 463Q343 412 297 381T172 350Q142 350 100 357T41 374V482H108Z" />
<glyph unicode="&#xb4;" glyph-name="acute" horiz-adv-x="212" d="M96 693Q110 710 123 720T150 731Q163 731 177 721T202 690T212 644L36 535L0 578L96 693Z" />
<glyph unicode="&#xb5;" glyph-name="uni00B5" horiz-adv-x="568" d="M55 -149V494L150 506L187 492V166Q187 130 194 111T220 84T274 76Q293 76 314 81T348 94V494L442 506L480 492V81L553 67V16Q526 6 495 0T441 -6Q405 -6 388 4T361 41H348Q321 18 280 3T204
-12Q171 -12 147 -6Q151 -16 153 -28L164 -153L93 -163L55 -149Z" />
<glyph unicode="&#xb6;" glyph-name="paragraph" horiz-adv-x="650" d="M183 196T139 215T59 284T24 422Q24 512 59 562T139 630T220 648H617V580L554 566H328V0H219V196Q183 196 139 215ZM317 -86Q372 -78 392 -58T412 14V496H521V-5Q521 -81 485 -122T374 -164H190V-104L317
-86Z" />
<glyph unicode="&#xb7;" glyph-name="middot" horiz-adv-x="191" d="M61 185T41 205T21 258Q21 290 44 313T99 337Q130 337 150 318T170 266Q170 233 148 209T92 185Q61 185 41 205Z" />
<glyph unicode="&#xb8;" glyph-name="cedilla" horiz-adv-x="208" d="M57 -194T38 -190T0 -175L20 -128Q50 -141 81 -141Q98 -141 107 -136T116 -116Q116 -106 111 -101T93 -93L64 -87L41 -64L70 0H119V-30L140 -35Q175 -44 191 -58T208 -104Q208 -148 177 -171T84
-194Q57 -194 38 -190Z" />
<glyph unicode="&#xb9;" glyph-name="uni00B9" horiz-adv-x="350" d="M53 430H144V630H49V697L177 707H249V426H340V356H53V430Z" />
<glyph unicode="&#xba;" glyph-name="ordmasculine" horiz-adv-x="386" d="M101 350T57 396T12 525Q12 575 34 618T99 686T197 712Q279 712 325 666T372 541Q372 488 351 445T287 376T185 350Q101 350 57 396ZM233 423T244 447T256 529Q256 571 251 593T233 624T193
634Q164 634 150 623T132 590T128 529Q128 487 133 465T154 433T198 423Q233 423 244 447Z" />
<glyph unicode="&#xbb;" glyph-name="guillemotright" horiz-adv-x="416" d="M18 392L74 427L172 318Q224 260 224 242Q224 234 207 211T173 168L74 59L18 94L94 241L18 392ZM198 392L254 427L352 318Q404 260 404 242Q404 234 387 211T353 168L254 59L198 94L274
241L198 392Z" />
<glyph unicode="&#xbc;" glyph-name="onequarter" horiz-adv-x="797" d="M601 695L675 643L204 -32L132 20L601 695ZM24 380H115V580H20V647L148 657H220V376H311V306H24V380ZM524 54L602 65V96H459L427 150L631 371L703 345V163H768V95H703V65L778 56V0H524V54ZM602
163V249L532 169V163H602Z" />
<glyph unicode="&#xbd;" glyph-name="onehalf" horiz-adv-x="781" d="M188 -32L116 20L585 695L659 643L188 -32ZM8 306V380H99V580H4V647L132 657H204V376H295V306H8ZM474 62L562 140Q567 145 577 153Q612 184 629 204T646 241Q646 262 634 270T596 278Q582 278
570 275T554 271L540 203H472V319Q493 333 529 344T611 356Q687 356 724 333T762 259Q762 231 752 210T719 167T650 111L608 80V76H702L713 130H774V0H474V62Z" />
<glyph unicode="&#xbe;" glyph-name="threequarters" horiz-adv-x="807" d="M214 -32L142 20L611 695L685 643L214 -32ZM121 300T79 307T20 324V432H87L94 387Q112 376 150 376Q178 376 190 384T202 411Q202 435 189 443T148 452H127L112 487V521H139Q169 521
181 528T194 552Q194 571 184 578T144 586Q130 586 116 583T97 579L86 514H20V625Q40 638 74 650T158 662Q233 662 269 642T306 574Q306 542 295 527T260 500Q322 481 322 413Q322 362 276 331T151 300Q121 300 79 307ZM533 0V54L611 65V96H468L436 150L640 371L712
345V163H777V95H712V65L787 56V0H533ZM541 163H611V249L541 169V163Z" />
<glyph unicode="&#xbf;" glyph-name="questiondown" horiz-adv-x="361" d="M223 379T203 398T183 450Q183 483 205 507T261 531Q292 531 312 511T332 458Q332 426 309 403T254 379Q223 379 203 398ZM190 -164T139 -139T54 -66T21 50Q21 112 55 155T142 217L195
235L217 340H307V176L211 142Q167 127 150 98T133 18Q133 -7 140 -21T168 -42T229 -49H329Q331 -51 335 -57T344 -75T349 -100Q349 -134 328 -149T246 -164Q190 -164 139 -139Z" />
<glyph unicode="&#xc0;" glyph-name="Agrave" horiz-adv-x="653" d="M188 759T188 775Q188 805 202 824T243 844Q255 844 272 834T295 820L438 721L413 671L193 739Q188 759 188 775ZM-8 62L58 74L259 655H380L597 74L666 61V0H359V62L438 74L404 180H201L172
94L165 73L248 62V0H-8V62ZM380 260L310 472L307 496H302L299 472L228 260H380Z" />
<glyph unicode="&#xc1;" glyph-name="Aacute" horiz-adv-x="653" d="M331 820Q337 823 354 833T383 844Q410 844 424 824T438 774Q438 759 433 739L213 671L188 721L331 820ZM-8 62L58 74L259 655H380L597 74L666 61V0H359V62L438 74L404 180H201L172 94L165 73L248
62V0H-8V62ZM380 260L310 472L307 496H302L299 472L228 260H380Z" />
<glyph unicode="&#xc2;" glyph-name="Acircumflex" horiz-adv-x="653" d="M270 813Q295 834 305 839T324 844Q332 844 341 839T359 826T374 814L495 721L464 671L316 733L175 671L148 712L270 813ZM-8 62L58 74L259 655H380L597 74L666 61V0H359V62L438 74L404
180H201L172 94L165 73L248 62V0H-8V62ZM380 260L310 472L307 496H302L299 472L228 260H380Z" />
<glyph unicode="&#xc3;" glyph-name="Atilde" horiz-adv-x="653" d="M168 795Q188 825 208 834T255 844Q282 844 312 834L412 801L484 839L522 803L487 750Q467 720 446 710T400 700Q386 700 374 702T343 711L243 744L172 705L133 742L168 795ZM-8 62L58 74L259
655H380L597 74L666 61V0H359V62L438 74L404 180H201L172 94L165 73L248 62V0H-8V62ZM380 260L310 472L307 496H302L299 472L228 260H380Z" />
<glyph unicode="&#xc4;" glyph-name="Adieresis" horiz-adv-x="653" d="M161 695T141 715T121 768Q121 800 144 823T199 847Q230 847 250 828T270 775Q270 742 248 719T191 695Q161 695 141 715ZM406 695T386 715T366 768Q366 800 389 823T444 847Q475 847 495
828T515 775Q515 742 493 719T436 695Q406 695 386 715ZM-8 62L58 74L259 655H380L597 74L666 61V0H359V62L438 74L404 180H201L172 94L165 73L248 62V0H-8V62ZM380 260L310 472L307 496H302L299 472L228 260H380Z" />
<glyph unicode="&#xc5;" glyph-name="Aring" horiz-adv-x="653" d="M218 794T244 821T325 849Q376 849 400 824T424 762Q424 724 398 697T318 669Q266 669 242 693T218 756Q218 794 244 821ZM341 724T347 732T353 760Q353 783 347 788T320 794Q302 794 296 788T289
760Q289 735 296 730T322 724Q341 724 347 732ZM-8 62L58 74L259 655H380L597 74L666 61V0H359V62L438 74L404 180H201L172 94L165 73L248 62V0H-8V62ZM380 260L310 472L307 496H302L299 472L228 260H380Z" />
<glyph unicode="&#xc6;" glyph-name="AE" horiz-adv-x="882" d="M-4 62L70 74L338 648H785L801 460H735L698 572H577L534 565L554 334H645L661 403H714L734 182H681L652 258H561L577 76H620H758L775 197H839L857 0H362L357 56L435 75L419 254H254L183 92L174 73L251
62V0H-4V62ZM412 334L391 565L289 334H412Z" />
<glyph unicode="&#xc7;" glyph-name="Ccedilla" horiz-adv-x="605" d="M299 -141T330 -141Q347 -141 356 -136T365 -116Q365 -106 360 -101T342 -93L313 -87L290 -64L311 -17Q174 -10 105 75T35 316Q35 416 76 495T190 620T358 666Q459 666 559 639V459H487L466
564Q409 582 360 582Q299 582 264 557T214 476T198 319Q198 217 215 162T268 86T361 65Q418 65 469 88L492 207H563V27Q476 -13 368 -17V-30L389 -35Q424 -44 440 -58T457 -104Q457 -148 426 -171T333 -194Q306 -194 287 -190T249 -175L269 -128Q299 -141 330 -141Z"
/>
<glyph unicode="&#xc8;" glyph-name="Egrave" horiz-adv-x="581" d="M154 759T154 775Q154 805 168 824T209 844Q221 844 238 834T261 820L404 721L379 671L159 739Q154 759 154 775ZM35 56L115 75V573L35 592V648H532V460H464L439 572H301L257 565V366H359L381
435H434V214H381L359 290H257V76H305H449L475 197H541V0H35V56Z" />
<glyph unicode="&#xc9;" glyph-name="Eacute" horiz-adv-x="581" d="M340 820Q346 823 363 833T392 844Q419 844 433 824T447 774Q447 759 442 739L222 671L197 721L340 820ZM35 56L115 75V573L35 592V648H532V460H464L439 572H301L257 565V366H359L381 435H434V214H381L359
290H257V76H305H449L475 197H541V0H35V56Z" />
<glyph unicode="&#xca;" glyph-name="Ecircumflex" horiz-adv-x="581" d="M240 813Q265 834 275 839T294 844Q302 844 311 839T329 826T344 814L465 721L434 671L286 733L145 671L118 712L240 813ZM35 56L115 75V573L35 592V648H532V460H464L439 572H301L257 565V366H359L381
435H434V214H381L359 290H257V76H305H449L475 197H541V0H35V56Z" />
<glyph unicode="&#xcb;" glyph-name="Edieresis" horiz-adv-x="581" d="M134 695T114 715T94 768Q94 800 117 823T172 847Q203 847 223 828T243 775Q243 742 221 719T164 695Q134 695 114 715ZM379 695T359 715T339 768Q339 800 362 823T417 847Q448 847 468 828T488
775Q488 742 466 719T409 695Q379 695 359 715ZM35 56L115 75V573L35 592V648H532V460H464L439 572H301L257 565V366H359L381 435H434V214H381L359 290H257V76H305H449L475 197H541V0H35V56Z" />
<glyph unicode="&#xcc;" glyph-name="Igrave" horiz-adv-x="372" d="M53 759T53 775Q53 805 67 824T108 844Q120 844 137 834T160 820L303 721L278 671L58 739Q53 759 53 775ZM35 56L115 75V573L35 592V648H337V592L257 573V75L337 56V0H35V56Z" />
<glyph unicode="&#xcd;" glyph-name="Iacute" horiz-adv-x="372" d="M203 820Q209 823 226 833T255 844Q282 844 296 824T310 774Q310 759 305 739L85 671L60 721L203 820ZM35 56L115 75V573L35 592V648H337V592L257 573V75L337 56V0H35V56Z" />
<glyph unicode="&#xce;" glyph-name="Icircumflex" horiz-adv-x="372" d="M134 813Q172 844 184 844Q193 844 203 839T238 814L359 721L328 671L180 733L39 671L12 712L134 813ZM35 56L115 75V573L35 592V648H337V592L257 573V75L337 56V0H35V56Z" />
<glyph unicode="&#xcf;" glyph-name="Idieresis" horiz-adv-x="372" d="M29 695T9 715T-11 768Q-11 800 12 823T67 847Q98 847 118 828T138 775Q138 742 116 719T59 695Q29 695 9 715ZM274 695T254 715T234 768Q234 800 257 823T312 847Q343 847 363 828T383 775Q383
742 361 719T304 695Q274 695 254 715ZM35 0V56L115 75V573L35 592V648H337V592L257 573V75L337 56V0H35Z" />
<glyph unicode="&#xd0;" glyph-name="Eth" horiz-adv-x="721" d="M124 75V296H40V373H124V573L44 592V648H357Q516 648 601 569T686 332Q686 233 645 158T531 41T363 0H44V56L124 75ZM298 76Q391 76 438 98T504 177T523 343Q523 438 496 488T425 555T318 572H266V373H385V296H266V76H298Z"
/>
<glyph unicode="&#xd1;" glyph-name="Ntilde" horiz-adv-x="734" d="M433 700T421 702T390 711L290 744L219 705L180 742L215 795Q235 825 255 834T302 844Q329 844 359 834L459 801L531 839L569 803L534 750Q514 720 494 710T447 700Q433 700 421 702ZM35 0V56L115
75V574L49 587V648H259L522 233L526 218H530V573L450 591V648H709V591L629 573V0H506L222 432L218 447H214V75L294 56V0H35Z" />
<glyph unicode="&#xd2;" glyph-name="Ograve" horiz-adv-x="707" d="M226 739Q221 759 221 775Q221 805 235 824T276 844Q288 844 305 834T328 820L471 721L446 671L226 739ZM193 -18T114 66T35 313Q35 416 75 496T190 621T366 666Q514 666 593 582T672 335Q672
231 633 151T519 27T341 -18Q193 -18 114 66ZM413 65T445 87T492 163T508 309Q508 409 491 469T439 555T348 582Q295 582 263 560T214 485T198 340Q198 239 215 179T268 92T360 65Q413 65 445 87Z" />
<glyph unicode="&#xd3;" glyph-name="Oacute" horiz-adv-x="707" d="M238 721L381 820Q387 823 404 833T433 844Q460 844 474 824T488 774Q488 759 483 739L263 671L238 721ZM193 -18T114 66T35 313Q35 416 75 496T190 621T366 666Q514 666 593 582T672 335Q672
231 633 151T519 27T341 -18Q193 -18 114 66ZM413 65T445 87T492 163T508 309Q508 409 491 469T439 555T348 582Q295 582 263 560T214 485T198 340Q198 239 215 179T268 92T360 65Q413 65 445 87Z" />
<glyph unicode="&#xd4;" glyph-name="Ocircumflex" horiz-adv-x="707" d="M302 813Q327 834 337 839T356 844Q364 844 373 839T391 826T406 814L527 721L496 671L348 733L207 671L180 712L302 813ZM193 -18T114 66T35 313Q35 416 75 496T190 621T366 666Q514 666
593 582T672 335Q672 231 633 151T519 27T341 -18Q193 -18 114 66ZM413 65T445 87T492 163T508 309Q508 409 491 469T439 555T348 582Q295 582 263 560T214 485T198 340Q198 239 215 179T268 92T360 65Q413 65 445 87Z" />
<glyph unicode="&#xd5;" glyph-name="Otilde" horiz-adv-x="707" d="M414 700T402 702T371 711L271 744L200 705L161 742L196 795Q216 825 236 834T283 844Q310 844 340 834L440 801L512 839L550 803L515 750Q495 720 475 710T428 700Q414 700 402 702ZM193 -18T114
66T35 313Q35 416 75 496T190 621T366 666Q514 666 593 582T672 335Q672 231 633 151T519 27T341 -18Q193 -18 114 66ZM413 65T445 87T492 163T508 309Q508 409 491 469T439 555T348 582Q295 582 263 560T214 485T198 340Q198 239 215 179T268 92T360 65Q413 65
445 87Z" />
<glyph unicode="&#xd6;" glyph-name="Odieresis" horiz-adv-x="707" d="M196 695T176 715T156 768Q156 800 179 823T234 847Q265 847 285 828T305 775Q305 742 283 719T226 695Q196 695 176 715ZM441 695T421 715T401 768Q401 800 424 823T479 847Q510 847 530
828T550 775Q550 742 528 719T471 695Q441 695 421 715ZM193 -18T114 66T35 313Q35 416 75 496T190 621T366 666Q514 666 593 582T672 335Q672 231 633 151T519 27T341 -18Q193 -18 114 66ZM413 65T445 87T492 163T508 309Q508 409 491 469T439 555T348 582Q295
582 263 560T214 485T198 340Q198 239 215 179T268 92T360 65Q413 65 445 87Z" />
<glyph unicode="&#xd7;" glyph-name="multiply" horiz-adv-x="530" d="M75 151L197 272L75 394L144 463L265 341L387 463L456 394L334 272L456 151L387 82L265 204L144 82L75 151Z" />
<glyph unicode="&#xd8;" glyph-name="Oslash" horiz-adv-x="707" d="M104 59T70 132T35 313Q35 416 75 496T190 621T366 666Q411 666 446 659L473 720L543 689L520 635Q594 599 633 524T672 335Q672 231 633 151T519 27T341 -18Q291 -18 244 -7L215 -76L143 -45L171
21Q104 59 70 132ZM379 582T348 582Q295 582 263 560T214 485T198 340Q198 213 226 148L409 572Q379 582 348 582ZM313 65T360 65Q413 65 445 87T492 163T508 309Q508 456 470 519L282 82Q313 65 360 65Z" />
<glyph unicode="&#xd9;" glyph-name="Ugrave" horiz-adv-x="684" d="M235 739Q230 759 230 775Q230 805 244 824T285 844Q297 844 314 834T337 820L480 721L455 671L235 739ZM249 -18T191 10T108 102T83 278V573L3 592V648H299V592L225 573V278Q225 190 238 146T282
85T371 69Q423 69 450 86T489 147T500 278V573L422 591V648H681V591L601 573V278Q601 123 542 53T352 -18Q249 -18 191 10Z" />
<glyph unicode="&#xda;" glyph-name="Uacute" horiz-adv-x="684" d="M243 721L386 820Q392 823 409 833T438 844Q465 844 479 824T493 774Q493 759 488 739L268 671L243 721ZM249 -18T191 10T108 102T83 278V573L3 592V648H299V592L225 573V278Q225 190 238 146T282
85T371 69Q423 69 450 86T489 147T500 278V573L422 591V648H681V591L601 573V278Q601 123 542 53T352 -18Q249 -18 191 10Z" />
<glyph unicode="&#xdb;" glyph-name="Ucircumflex" horiz-adv-x="684" d="M309 813Q334 834 344 839T363 844Q371 844 380 839T398 826T413 814L534 721L503 671L355 733L214 671L187 712L309 813ZM3 592V648H299V592L225 573V278Q225 190 238 146T282 85T371
69Q423 69 450 86T489 147T500 278V573L422 591V648H681V591L601 573V278Q601 123 542 53T352 -18Q249 -18 191 10T108 102T83 278V573L3 592Z" />
<glyph unicode="&#xdc;" glyph-name="Udieresis" horiz-adv-x="684" d="M188 695T168 715T148 768Q148 800 171 823T226 847Q257 847 277 828T297 775Q297 742 275 719T218 695Q188 695 168 715ZM433 695T413 715T393 768Q393 800 416 823T471 847Q502 847 522
828T542 775Q542 742 520 719T463 695Q433 695 413 715ZM249 -18T191 10T108 102T83 278V573L3 592V648H299V592L225 573V278Q225 190 238 146T282 85T371 69Q423 69 450 86T489 147T500 278V573L422 591V648H681V591L601 573V278Q601 123 542 53T352 -18Q249 -18
191 10Z" />
<glyph unicode="&#xdd;" glyph-name="Yacute" horiz-adv-x="613" d="M200 721L343 820Q349 823 366 833T395 844Q422 844 436 824T450 774Q450 759 445 739L225 671L200 721ZM162 0V56L242 75V249L54 576L-11 592V648H266V592L203 577V562L324 332H334L456 568V576L385
592V648H632V592L560 574L384 249V75L464 56V0H162Z" />
<glyph unicode="&#xde;" glyph-name="Thorn" horiz-adv-x="582" d="M35 56L115 75V573L35 592V648H337V592L257 573V511H339Q452 511 502 471T552 344Q552 241 482 191T293 140H257V75L337 56V0H35V56ZM288 216Q353 216 381 245T409 334Q409 384 383 409T301 435Q287
435 257 432V216H288Z" />
<glyph unicode="&#xdf;" glyph-name="germandbls" horiz-adv-x="621" d="M372 -14T324 -3T257 19L264 164H327L351 84Q362 75 382 67T427 59Q457 59 474 75T492 123Q492 146 483 159T458 180T403 204Q344 228 313 258T282 344Q282 386 299 414T347 468Q375 491
387 508T400 554Q400 622 320 622Q273 622 252 595T230 507V0H19V55L98 69V423H23V487L98 505Q99 601 163 653T334 705Q423 705 476 669T530 561Q530 518 512 493T460 441Q433 420 421 405T408 365Q408 341 422 330T474 303Q518 284 545 268T590 221T608 145Q608
62 553 24T419 -14Q372 -14 324 -3Z" />
<glyph unicode="&#xe0;" glyph-name="agrave" horiz-adv-x="520" d="M143 644Q143 670 153 690T177 720T205 731Q218 731 230 721T259 693L355 578L319 535L143 644ZM106 -12T70 25T33 118Q33 181 79 217T200 266L307 284V350Q307 389 292 407T233 426Q211 426
200 424T187 421L173 330Q169 328 154 324T120 320Q85 320 68 333T51 379Q51 421 85 450T170 494T266 509Q354 509 396 478T439 373V81L512 67V16Q507 14 491 9T449 -1T400 -6Q361 -6 345 5T320 41H311Q293 23 259 6T179 -12Q106 -12 70 25ZM275 74T307 91V215Q251
210 222 199T184 173T174 135Q174 74 248 74Q275 74 307 91Z" />
<glyph unicode="&#xe1;" glyph-name="aacute" horiz-adv-x="520" d="M160 578L256 693Q271 711 283 721T310 731Q323 731 337 721T362 690T372 644L196 535L160 578ZM106 -12T70 25T33 118Q33 181 79 217T200 266L307 284V350Q307 389 292 407T233 426Q211 426
200 424T187 421L173 330Q169 328 154 324T120 320Q85 320 68 333T51 379Q51 421 85 450T170 494T266 509Q354 509 396 478T439 373V81L512 67V16Q507 14 491 9T449 -1T400 -6Q361 -6 345 5T320 41H311Q293 23 259 6T179 -12Q106 -12 70 25ZM275 74T307 91V215Q251
210 222 199T184 173T174 135Q174 74 248 74Q275 74 307 91Z" />
<glyph unicode="&#xe2;" glyph-name="acircumflex" horiz-adv-x="520" d="M247 610L130 539L98 581L199 685Q216 702 229 711T255 720Q273 720 300 693L408 585L368 538L247 610ZM106 -12T70 25T33 118Q33 181 79 217T200 266L307 284V350Q307 389 292 407T233
426Q211 426 200 424T187 421L173 330Q169 328 154 324T120 320Q85 320 68 333T51 379Q51 421 85 450T170 494T266 509Q354 509 396 478T439 373V81L512 67V16Q507 14 491 9T449 -1T400 -6Q361 -6 345 5T320 41H311Q293 23 259 6T179 -12Q106 -12 70 25ZM275 74T307
91V215Q251 210 222 199T184 173T174 135Q174 74 248 74Q275 74 307 91Z" />
<glyph unicode="&#xe3;" glyph-name="atilde" horiz-adv-x="520" d="M323 563T302 568T260 580L168 610L93 572L58 605L97 667Q121 707 170 707Q198 707 248 691L337 661L412 699L447 666L408 603Q384 563 339 563Q323 563 302 568ZM106 -12T70 25T33 118Q33 181
79 217T200 266L307 284V350Q307 389 292 407T233 426Q211 426 200 424T187 421L173 330Q169 328 154 324T120 320Q85 320 68 333T51 379Q51 421 85 450T170 494T266 509Q354 509 396 478T439 373V81L512 67V16Q507 14 491 9T449 -1T400 -6Q361 -6 345 5T320 41H311Q293
23 259 6T179 -12Q106 -12 70 25ZM275 74T307 91V215Q251 210 222 199T184 173T174 135Q174 74 248 74Q275 74 307 91Z" />
<glyph unicode="&#xe4;" glyph-name="adieresis" horiz-adv-x="520" d="M103 561T83 581T63 634Q63 666 86 689T141 713Q172 713 192 694T212 641Q212 608 190 585T133 561Q103 561 83 581ZM328 561T308 581T288 634Q288 666 311 689T366 713Q397 713 417 694T437
641Q437 608 415 585T358 561Q328 561 308 581ZM106 -12T70 25T33 118Q33 181 79 217T200 266L307 284V350Q307 389 292 407T233 426Q211 426 200 424T187 421L173 330Q169 328 154 324T120 320Q85 320 68 333T51 379Q51 421 85 450T170 494T266 509Q354 509 396
478T439 373V81L512 67V16Q507 14 491 9T449 -1T400 -6Q361 -6 345 5T320 41H311Q293 23 259 6T179 -12Q106 -12 70 25ZM275 74T307 91V215Q251 210 222 199T184 173T174 135Q174 74 248 74Q275 74 307 91Z" />
<glyph unicode="&#xe5;" glyph-name="aring" horiz-adv-x="520" d="M192 561T168 584T143 649Q143 690 170 717T253 745Q306 745 330 721T355 655Q355 614 328 588T246 561Q192 561 168 584ZM267 609T274 618T281 653Q281 679 274 687T248 695Q231 695 224 686T217
653Q217 626 224 618T250 609Q267 609 274 618ZM106 -12T70 25T33 118Q33 181 79 217T200 266L307 284V350Q307 389 292 407T233 426Q211 426 200 424T187 421L173 330Q169 328 154 324T120 320Q85 320 68 333T51 379Q51 421 85 450T170 494T266 509Q354 509 396
478T439 373V81L512 67V16Q507 14 491 9T449 -1T400 -6Q361 -6 345 5T320 41H311Q293 23 259 6T179 -12Q106 -12 70 25ZM275 74T307 91V215Q251 210 222 199T184 173T174 135Q174 74 248 74Q275 74 307 91Z" />
<glyph unicode="&#xe6;" glyph-name="ae" horiz-adv-x="754" d="M307 350Q307 389 292 407T233 426Q211 426 200 424T187 421L173 330Q169 328 154 324T120 320Q85 320 68 333T51 379Q51 421 85 450T170 494T266 509Q366 509 406 470Q461 509 538 509Q645 509
690 450T735 308Q735 259 724 242T688 224H443Q444 148 473 112T575 76Q612 76 640 81T684 92T704 100L723 58Q723 56 697 38T631 4T542 -12Q479 -12 435 2T362 47Q339 27 293 8T179 -12Q106 -12 70 25T33 118Q33 191 82 226T209 269L307 277V350ZM605 317T605
329Q605 383 593 404T539 426Q491 426 473 390T451 287L602 299Q605 317 605 329ZM249 211T221 202T183 178T174 135Q174 74 248 74Q276 74 307 88V215Q249 211 221 202Z" />
<glyph unicode="&#xe7;" glyph-name="ccedilla" horiz-adv-x="446" d="M212 -194T193 -190T155 -175L175 -128Q205 -141 236 -141Q253 -141 262 -136T271 -116Q271 -106 266 -101T248 -93L219 -87L196 -64L220 -10Q119 -2 72 58T25 237Q25 333 59 394T148 482T262
509Q338 509 388 473T439 378Q439 348 423 332T359 315Q343 315 324 322L306 421Q289 426 265 426Q228 426 207 413T177 365T167 265Q167 193 177 154T217 95T304 76Q332 76 355 79T393 87T410 92L428 50Q428 48 407 33T352 5T274 -11V-30L295 -35Q330 -44 346
-58T363 -104Q363 -148 332 -171T239 -194Q212 -194 193 -190Z" />
<glyph unicode="&#xe8;" glyph-name="egrave" horiz-adv-x="480" d="M138 644Q138 670 148 690T172 720T200 731Q213 731 225 721T254 693L350 578L314 535L138 644ZM147 -12T87 44T27 238Q27 323 56 384T139 477T264 509Q371 509 416 450T461 308Q461 259 450
242T414 224H169Q170 148 199 112T301 76Q338 76 366 81T410 92T430 100L449 58Q449 56 423 38T357 4T268 -12Q147 -12 87 44ZM320 297Q323 315 323 329Q323 383 311 404T257 426Q209 426 191 391T169 289L320 297Z" />
<glyph unicode="&#xe9;" glyph-name="eacute" horiz-adv-x="480" d="M161 578L257 693Q272 711 284 721T311 731Q324 731 338 721T363 690T373 644L197 535L161 578ZM147 -12T87 44T27 238Q27 323 56 384T139 477T264 509Q371 509 416 450T461 308Q461 259 450
242T414 224H169Q170 148 199 112T301 76Q338 76 366 81T410 92T430 100L449 58Q449 56 423 38T357 4T268 -12Q147 -12 87 44ZM320 297Q323 315 323 329Q323 383 311 404T257 426Q209 426 191 391T169 289L320 297Z" />
<glyph unicode="&#xea;" glyph-name="ecircumflex" horiz-adv-x="480" d="M246 610L129 539L97 581L198 685Q215 702 228 711T254 720Q272 720 299 693L407 585L367 538L246 610ZM147 -12T87 44T27 238Q27 323 56 384T139 477T264 509Q371 509 416 450T461 308Q461
259 450 242T414 224H169Q170 148 199 112T301 76Q338 76 366 81T410 92T430 100L449 58Q449 56 423 38T357 4T268 -12Q147 -12 87 44ZM320 297Q323 315 323 329Q323 383 311 404T257 426Q209 426 191 391T169 289L320 297Z" />
<glyph unicode="&#xeb;" glyph-name="edieresis" horiz-adv-x="480" d="M105 561T85 581T65 634Q65 666 88 689T143 713Q174 713 194 694T214 641Q214 608 192 585T135 561Q105 561 85 581ZM330 561T310 581T290 634Q290 666 313 689T368 713Q399 713 419 694T439
641Q439 608 417 585T360 561Q330 561 310 581ZM147 -12T87 44T27 238Q27 323 56 384T139 477T264 509Q371 509 416 450T461 308Q461 259 450 242T414 224H169Q170 148 199 112T301 76Q338 76 366 81T410 92T430 100L449 58Q449 56 423 38T357 4T268 -12Q147 -12
87 44ZM320 297Q323 315 323 329Q323 383 311 404T257 426Q209 426 191 391T169 289L320 297Z" />
<glyph unicode="&#xec;" glyph-name="igrave" horiz-adv-x="311" d="M26 670T36 690T60 720T88 731Q101 731 113 721T142 693L238 578L202 535L26 644Q26 670 36 690ZM19 55L98 69V409L17 425V483L193 506L230 492V69L300 55V0H19V55Z" />
<glyph unicode="&#xed;" glyph-name="iacute" horiz-adv-x="311" d="M37 578L133 693Q148 711 160 721T187 731Q200 731 214 721T239 690T249 644L73 535L37 578ZM19 0V55L98 69V409L17 425V483L193 506L230 492V69L300 55V0H19Z" />
<glyph unicode="&#xee;" glyph-name="icircumflex" horiz-adv-x="311" d="M92 685Q109 702 122 711T148 720Q166 720 193 693L301 585L261 538L140 610L23 539L-9 581L92 685ZM19 55L98 69V409L17 425V483L193 506L230 492V69L300 55V0H19V55Z" />
<glyph unicode="&#xef;" glyph-name="idieresis" horiz-adv-x="314" d="M-13 561T-33 581T-53 634Q-53 666 -30 689T25 713Q56 713 76 694T96 641Q96 608 74 585T17 561Q-13 561 -33 581ZM212 561T192 581T172 634Q172 666 195 689T250 713Q281 713 301 694T321
641Q321 608 299 585T242 561Q212 561 192 581ZM22 0V55L101 69V409L20 425V483L196 506L233 492V69L303 55V0H22Z" />
<glyph unicode="&#xf0;" glyph-name="eth" horiz-adv-x="525" d="M151 -14T93 44T34 230Q34 312 65 368T148 451T264 479Q291 479 310 477T340 471T352 467Q334 534 304 568L192 511L158 579L229 615Q183 630 112 630V693Q118 694 141 696T196 699Q274 699 336
669L422 713L456 645L407 620Q461 568 487 489T514 320Q514 137 453 62T280 -14Q151 -14 93 44ZM320 62T339 80T365 136T371 241Q371 287 368 330T363 385Q360 386 348 389T315 395T272 398Q219 398 198 351T176 225Q176 143 198 103T280 62Q320 62 339 80Z" />
<glyph unicode="&#xf1;" glyph-name="ntilde" horiz-adv-x="603" d="M376 563T355 568T313 580L221 610L146 572L111 605L150 667Q174 707 223 707Q251 707 301 691L390 661L465 699L500 666L461 603Q437 563 392 563Q376 563 355 568ZM21 55L100 69V409L21 425V483L195
506L223 459H227Q264 483 304 497T378 511Q520 511 520 367V69L594 55V0H318V55L388 69V344Q388 389 372 405T309 421Q275 421 232 413V69L302 55V0H21V55Z" />
<glyph unicode="&#xf2;" glyph-name="ograve" horiz-adv-x="540" d="M155 670T165 690T189 720T217 731Q230 731 242 721T271 693L367 578L331 535L155 644Q155 670 165 690ZM139 -14T85 51T30 240Q30 313 56 374T140 473T285 511Q400 511 455 445T510 263Q510
142 452 64T262 -14Q139 -14 85 51ZM318 62T337 83T362 142T368 245Q368 313 361 351T333 407T274 426Q230 426 209 408T180 352T172 245Q172 175 179 138T210 81T279 62Q318 62 337 83Z" />
<glyph unicode="&#xf3;" glyph-name="oacute" horiz-adv-x="540" d="M276 693Q291 711 303 721T330 731Q343 731 357 721T382 690T392 644L216 535L180 578L276 693ZM139 -14T85 51T30 240Q30 313 56 374T140 473T285 511Q400 511 455 445T510 263Q510 142 452
64T262 -14Q139 -14 85 51ZM318 62T337 83T362 142T368 245Q368 313 361 351T333 407T274 426Q230 426 209 408T180 352T172 245Q172 175 179 138T210 81T279 62Q318 62 337 83Z" />
<glyph unicode="&#xf4;" glyph-name="ocircumflex" horiz-adv-x="540" d="M229 685Q246 702 259 711T285 720Q303 720 330 693L438 585L398 538L277 610L160 539L128 581L229 685ZM139 -14T85 51T30 240Q30 313 56 374T140 473T285 511Q400 511 455 445T510 263Q510
142 452 64T262 -14Q139 -14 85 51ZM318 62T337 83T362 142T368 245Q368 313 361 351T333 407T274 426Q230 426 209 408T180 352T172 245Q172 175 179 138T210 81T279 62Q318 62 337 83Z" />
<glyph unicode="&#xf5;" glyph-name="otilde" horiz-adv-x="540" d="M143 707T192 707Q220 707 270 691L359 661L434 699L469 666L430 603Q406 563 361 563Q345 563 324 568T282 580L190 610L115 572L80 605L119 667Q143 707 192 707ZM139 -14T85 51T30 240Q30
313 56 374T140 473T285 511Q400 511 455 445T510 263Q510 142 452 64T262 -14Q139 -14 85 51ZM318 62T337 83T362 142T368 245Q368 313 361 351T333 407T274 426Q230 426 209 408T180 352T172 245Q172 175 179 138T210 81T279 62Q318 62 337 83Z" />
<glyph unicode="&#xf6;" glyph-name="odieresis" horiz-adv-x="540" d="M132 561T112 581T92 634Q92 666 115 689T170 713Q201 713 221 694T241 641Q241 608 219 585T162 561Q132 561 112 581ZM357 561T337 581T317 634Q317 666 340 689T395 713Q426 713 446 694T466
641Q466 608 444 585T387 561Q357 561 337 581ZM139 -14T85 51T30 240Q30 313 56 374T140 473T285 511Q400 511 455 445T510 263Q510 142 452 64T262 -14Q139 -14 85 51ZM318 62T337 83T362 142T368 245Q368 313 361 351T333 407T274 426Q230 426 209 408T180 352T172
245Q172 175 179 138T210 81T279 62Q318 62 337 83Z" />
<glyph unicode="&#xf7;" glyph-name="divide" horiz-adv-x="530" d="M226 349T204 371T182 429Q182 464 207 489T267 515Q301 515 323 494T345 437Q345 401 321 375T259 349Q226 349 204 371ZM67 210V304H462V210H67ZM226 -3T204 19T182 77Q182 112 207 137T267
163Q301 163 323 142T345 85Q345 49 321 23T259 -3Q226 -3 204 19Z" />
<glyph unicode="&#xf8;" glyph-name="oslash" horiz-adv-x="540" d="M94 -53L125 17Q75 47 53 103T30 240Q30 313 56 374T140 473T285 511Q311 511 339 506L368 572L432 543L406 484Q459 455 484 398T510 263Q510 142 452 64T262 -14Q229 -14 192 -7L160 -82L94
-53ZM302 423Q290 426 274 426Q230 426 209 408T180 352T172 245Q172 173 179 140L302 423ZM318 62T337 83T362 142T368 245Q368 329 356 368L226 71Q247 62 279 62Q318 62 337 83Z" />
<glyph unicode="&#xf9;" glyph-name="ugrave" horiz-adv-x="600" d="M180 644Q180 670 190 690T214 720T242 731Q255 731 267 721T296 693L392 578L356 535L180 644ZM160 -12T124 22T87 129V409L7 425V483L182 506L219 492V166Q219 130 226 111T252 84T306 76Q325
76 346 80T380 89V409L299 425V483L474 506L512 492V88L591 72V14L416 -9L388 36H379Q352 15 312 2T236 -12Q160 -12 124 22Z" />
<glyph unicode="&#xfa;" glyph-name="uacute" horiz-adv-x="600" d="M203 578L299 693Q314 711 326 721T353 731Q366 731 380 721T405 690T415 644L239 535L203 578ZM160 -12T124 22T87 129V409L7 425V483L182 506L219 492V166Q219 130 226 111T252 84T306 76Q325
76 346 80T380 89V409L299 425V483L474 506L512 492V88L591 72V14L416 -9L388 36H379Q352 15 312 2T236 -12Q160 -12 124 22Z" />
<glyph unicode="&#xfb;" glyph-name="ucircumflex" horiz-adv-x="600" d="M291 610L174 539L142 581L243 685Q260 702 273 711T299 720Q317 720 344 693L452 585L412 538L291 610ZM160 -12T124 22T87 129V409L7 425V483L182 506L219 492V166Q219 130 226 111T252
84T306 76Q325 76 346 80T380 89V409L299 425V483L474 506L512 492V88L591 72V14L416 -9L388 36H379Q352 15 312 2T236 -12Q160 -12 124 22Z" />
<glyph unicode="&#xfc;" glyph-name="udieresis" horiz-adv-x="600" d="M140 561T120 581T100 634Q100 666 123 689T178 713Q209 713 229 694T249 641Q249 608 227 585T170 561Q140 561 120 581ZM365 561T345 581T325 634Q325 666 348 689T403 713Q434 713 454
694T474 641Q474 608 452 585T395 561Q365 561 345 581ZM160 -12T124 22T87 129V409L7 425V483L182 506L219 492V166Q219 130 226 111T252 84T306 76Q325 76 346 80T380 89V409L299 425V483L474 506L512 492V88L591 72V14L416 -9L388 36H379Q352 15 312 2T236 -12Q160
-12 124 22Z" />
<glyph unicode="&#xfd;" glyph-name="yacute" horiz-adv-x="503" d="M222 535L186 578L282 693Q297 711 309 721T336 731Q349 731 363 721T388 690T398 644L222 535ZM536 496V436L470 427L278 -101Q263 -141 233 -157T141 -173Q96 -173 58 -164V-108L197 -74L223
0H205L43 427L-30 440V496H251V436L184 427L188 416L273 167V144L285 178L368 415L372 427L296 436V496H536Z" />
<glyph unicode="&#xfe;" glyph-name="thorn" horiz-adv-x="551" d="M7 -110L76 -96V602L-5 618V676L171 699L208 685V461Q236 483 273 496T347 509Q431 509 477 451T523 288Q523 201 496 135T418 32T303 -5Q244 -5 202 28L199 25L208 16V-94L308 -108V-165H7V-110ZM330
72T355 114T381 254Q381 346 359 383T283 421Q242 421 208 406V84Q234 72 269 72Q330 72 355 114Z" />
<glyph unicode="&#xff;" glyph-name="ydieresis" horiz-adv-x="503" d="M136 561T116 581T96 634Q96 666 119 689T174 713Q205 713 225 694T245 641Q245 608 223 585T166 561Q136 561 116 581ZM361 561T341 581T321 634Q321 666 344 689T399 713Q430 713 450 694T470
641Q470 608 448 585T391 561Q361 561 341 581ZM536 496V436L470 427L278 -101Q263 -141 233 -157T141 -173Q96 -173 58 -164V-108L197 -74L223 0H205L43 427L-30 440V496H251V436L184 427L188 416L273 167V144L285 178L368 415L372 427L296 436V496H536Z" />
<glyph unicode="&#x2013;" glyph-name="endash" horiz-adv-x="480" d="M10 316H470V212H10V316Z" />
<glyph unicode="&#x2014;" glyph-name="emdash" horiz-adv-x="960" d="M10 318H950V214H10V318Z" />
<glyph unicode="&#x2018;" glyph-name="quoteleft" horiz-adv-x="191" d="M171 712Q157 677 149 645T140 590Q140 568 149 549T171 516Q147 466 97 466Q64 466 44 487T23 539Q23 586 62 642T134 728L171 712Z" />
<glyph unicode="&#x2019;" glyph-name="quoteright" horiz-adv-x="191" d="M24 475Q38 510 46 542T55 597Q55 619 46 638T24 671Q48 721 98 721Q131 721 151 700T172 648Q172 601 133 545T61 459L24 475Z" />
<glyph unicode="&#x201a;" glyph-name="quotesinglbase" horiz-adv-x="191" d="M24 -124Q38 -89 46 -57T55 -2Q55 20 46 39T24 72Q48 122 98 122Q131 122 151 101T172 49Q172 2 133 -54T61 -140L24 -124Z" />
<glyph unicode="&#x201c;" glyph-name="quotedblleft" horiz-adv-x="352" d="M160 712Q145 677 137 642T128 585Q128 543 160 515Q137 466 89 466Q57 466 37 487T16 539Q16 586 54 641T123 728L160 712ZM327 712Q312 677 304 642T295 585Q295 543 327 515Q304
466 256 466Q224 466 204 487T183 539Q183 586 221 641T290 728L327 712Z" />
<glyph unicode="&#x201d;" glyph-name="quotedblright" horiz-adv-x="348" d="M20 482Q35 517 43 552T52 609Q52 651 20 679Q43 728 91 728Q123 728 143 707T164 655Q164 608 126 553T57 466L20 482ZM187 482Q202 517 210 552T219 609Q219 651 187 679Q210 728
258 728Q290 728 310 707T331 655Q331 608 293 553T224 466L187 482Z" />
<glyph unicode="&#x201e;" glyph-name="quotedblbase" horiz-adv-x="348" d="M20 -128Q35 -93 43 -58T52 -1Q52 41 20 69Q43 118 91 118Q123 118 143 97T164 45Q164 -2 126 -57T57 -144L20 -128ZM187 -128Q202 -93 210 -58T219 -1Q219 41 187 69Q210 118 258 118Q290
118 310 97T331 45Q331 -2 293 -57T224 -144L187 -128Z" />
<glyph unicode="&#x2022;" glyph-name="bullet" horiz-adv-x="413" d="M90 352T123 385T203 419Q250 419 283 386T317 305Q317 258 284 225T203 192Q156 192 123 225T90 305Q90 352 123 385Z" />
<glyph unicode="&#x2039;" glyph-name="guilsinglleft" horiz-adv-x="236" d="M48 193Q12 231 12 244Q12 255 36 281T63 312L162 421L218 386L142 245L218 100L162 65L64 174L48 193Z" />
<glyph unicode="&#x203a;" glyph-name="guilsinglright" horiz-adv-x="236" d="M18 386L74 421L173 312Q176 308 200 282T224 244Q224 231 188 193L172 174L74 65L18 100L94 245L18 386Z" />
</font>
</defs>
</svg>
