<?xml version="1.0" standalone="no"?>
<!DOCTYPE svg PUBLIC "-//W3C//DTD SVG 1.1//EN" "http://www.w3.org/Graphics/SVG/1.1/DTD/svg11.dtd">
<svg xmlns="http://www.w3.org/2000/svg">
<defs >
<font id="Dosis" horiz-adv-x="479" ><font-face
    font-family="Dosis"
    units-per-em="1000"
    panose-1="2 1 8 3 2 2 2 6 0 3"
    ascent="1027"
    descent="-237"
    alphabetic="0" />
<glyph unicode=" " glyph-name="space" horiz-adv-x="200" />
<glyph unicode="!" glyph-name="exclam" horiz-adv-x="220" d="M42 34T42 62T61 110T110 130Q138 130 158 110T178 62Q178 35 158 15T110 -6Q81 -6 62 14ZM47 680Q47 706 64 720T109 735T154 720T172 680Q172 614 165 460T158 240Q158 222 143 212T109 202Q60
202 60 240Q60 306 54 460T47 680Z" />
<glyph unicode="&quot;" glyph-name="quotedbl" horiz-adv-x="303" d="M28 735Q28 749 42 758T75 768T109 759T124 735L114 597Q114 584 104 574T75 564T47 573T38 597L28 735ZM179 735Q179 749 193 758T226 768T260 759T275 735L265 597Q265 584 256 574T226
564Q207 564 198 573T189 597L179 735Z" />
<glyph unicode="#" glyph-name="numbersign" horiz-adv-x="678" d="M23 246T23 267T33 302T59 317H156L178 440H100Q83 440 73 452T63 487Q63 508 73 522T99 536H197L224 686Q227 698 242 705T278 713Q303 713 320 701T337 664L314 536H424L451 686Q453 698 468
705T504 713Q529 713 546 701T564 664L540 536H618Q633 536 644 522T656 488T645 454T619 440H523L500 317H578Q593 317 605 303T617 269Q617 248 605 234T579 220H482L453 60Q451 47 436 39T402 30Q378 30 358 43T338 78L363 220H255L226 60Q224 47 208 39T176
30Q152 30 133 43T113 78L137 220H59Q43 220 33 233ZM274 317H382L405 440H296L274 317Z" />
<glyph unicode="$" glyph-name="dollar" horiz-adv-x="525" d="M26 125Q26 148 43 171T82 195Q97 195 117 179T169 143T238 120V319Q201 333 182 341T132 367T85 404T57 453T44 520Q44 609 99 656T238 715V743Q238 753 248 760T272 768Q285 768 295 761T306 743V717Q369
715 423 696T477 638Q477 616 463 593T424 569Q414 569 379 586T306 606V430Q347 415 374 401T432 363T479 301T495 216Q495 126 444 72T306 4V-27Q306 -37 296 -44T272 -52Q258 -52 248 -45T238 -27V1Q151 3 89 42T26 125ZM166 533Q166 503 186 486T246 452V603Q166
590 166 533ZM298 121Q373 136 373 203Q373 237 354 258T298 295V121Z" />
<glyph unicode="%" glyph-name="percent" horiz-adv-x="787" d="M25 457V602Q25 669 64 700T168 731T271 700T310 602V457Q310 390 272 359T168 328T64 359T25 457ZM112 457Q112 403 168 403Q225 403 225 457V602Q225 656 168 656Q112 656 112 602V457ZM171 4Q171
11 175 21L535 750Q546 771 571 771Q590 771 605 758T621 726Q621 716 617 708L257 -18Q248 -40 218 -40Q198 -40 185 -27T171 4ZM476 126V271Q476 338 515 369T619 400T722 369T761 271V126Q761 59 723 28T619 -3Q476 -3 476 126ZM563 126Q563 72 619 72Q676 72
676 126V271Q676 325 619 325Q563 325 563 271V126Z" />
<glyph unicode="&amp;" glyph-name="ampersand" horiz-adv-x="642" d="M22 210Q22 275 58 329T147 413Q77 492 77 567Q77 651 137 699T287 748Q371 748 427 710T483 631Q483 609 464 590T422 571Q407 571 393 582T369 607T337 632T288 644Q249 644 224 622T199
561Q199 549 202 537T213 510L226 487Q231 478 244 462L262 442Q267 437 284 420L302 401L463 231Q471 249 475 269T481 303T483 337T485 364Q487 385 499 394T543 404T586 390T598 344Q598 244 542 150L623 66Q631 57 631 44Q631 24 613 8T571 -9Q554 -9 539 6L477
70Q392 -10 273 -10Q161 -10 92 54T22 210ZM153 221Q153 170 189 137T288 103Q359 103 400 149L220 337Q153 288 153 221Z" />
<glyph unicode="&apos;" glyph-name="quotesingle" horiz-adv-x="152" d="M28 735Q28 749 42 758T75 768T109 759T124 735L114 597Q114 584 104 574T75 564T47 573T38 597L28 735Z" />
<glyph unicode="(" glyph-name="parenleft" horiz-adv-x="341" d="M48 166V568Q48 654 114 711T261 768Q325 768 325 712Q325 687 314 671T284 655Q236 655 207 629T177 568V166Q177 93 284 93Q325 93 325 36Q325 8 311 -6T258 -20Q174 -20 111 27T48 166Z" />
<glyph unicode=")" glyph-name="parenright" horiz-adv-x="341" d="M16 36Q16 93 57 93Q163 93 163 166V568Q163 602 134 628T57 655Q39 655 28 671T16 712Q16 768 80 768Q161 768 227 711T293 568V166Q293 75 230 28T83 -20Q44 -20 30 -6T16 36Z" />
<glyph unicode="*" glyph-name="asterisk" horiz-adv-x="470" d="M23 571Q23 589 36 604T70 619Q77 619 83 616L194 579L189 690Q190 710 203 720T235 731T267 721T281 690L276 578L388 616Q396 619 401 619Q420 619 433 603T446 566Q446 534 416 528L308 501L381
397Q388 388 388 373Q388 353 372 340T336 326Q314 326 303 343L235 446L166 342Q156 326 136 326Q119 326 101 339T82 371Q82 385 93 398L163 496L52 528Q23 534 23 571Z" />
<glyph unicode="+" glyph-name="plus" horiz-adv-x="444" d="M21 240Q21 263 32 278T61 294H168V400Q168 416 184 428T222 441Q245 441 260 429T275 400V294H381Q397 294 410 278T423 240Q423 217 411 202T381 187H275V80Q275 62 261 51T222 40Q199 40 184 51T168
80V187H61Q43 187 32 201T21 240Z" />
<glyph unicode="," glyph-name="comma" horiz-adv-x="193" d="M29 62Q29 90 48 110T96 130T144 111T164 63Q164 46 109 -83Q101 -100 82 -100Q67 -100 53 -91T39 -66Q39 -59 43 -52L66 1Q29 21 29 62Z" />
<glyph unicode="-" glyph-name="hyphen" horiz-adv-x="413" d="M36 240Q36 263 47 278T76 294H336Q352 294 365 278T378 240Q378 217 366 202T336 187H76Q58 187 47 201T36 240Z" />
<glyph unicode="." glyph-name="period" horiz-adv-x="191" d="M28 34T28 62T47 110T96 130Q123 130 143 110T163 62Q163 35 143 15T96 -6Q67 -6 48 14Z" />
<glyph unicode="/" glyph-name="slash" horiz-adv-x="484" d="M17 4Q17 13 22 21L381 750Q392 771 417 771Q436 771 451 758T467 726Q467 716 463 708L104 -18Q93 -40 65 -40Q44 -40 31 -27T17 4Z" />
<glyph unicode="0" glyph-name="zero" horiz-adv-x="561" d="M46 223V502Q46 621 109 676T280 731T451 676T515 502V223Q515 104 451 49T280 -6T110 49T46 223ZM176 223Q176 108 280 108Q385 108 385 223V502Q385 617 280 617Q176 617 176 502V223ZM234 341T234
362T246 395T281 408Q302 408 314 396T327 362T315 328T281 315T247 328Z" />
<glyph unicode="1" glyph-name="one" horiz-adv-x="288" d="M3 586Q3 617 28 633L146 723Q158 733 173 733Q195 733 213 721T231 691V41Q231 22 212 11T166 0Q139 0 120 11T101 41V575L69 543Q59 534 45 534Q27 534 15 550T3 586Z" />
<glyph unicode="2" glyph-name="two" horiz-adv-x="507" d="M27 41V138Q27 182 60 225T140 303L236 372Q283 407 316 446T349 524Q349 559 326 586T256 613Q217 613 192 591T167 525Q167 506 149 492T99 477Q40 477 40 547Q40 629 104 680T255 731Q346 731 412
676T479 528Q479 468 447 416T367 327T274 259T195 197T162 138V114H440Q456 114 468 98T481 58T469 18T440 0H84Q65 0 46 12T27 41Z" />
<glyph unicode="3" glyph-name="three" horiz-adv-x="521" d="M20 176Q20 205 34 216T82 227Q121 227 135 217T149 181Q149 147 177 128T253 108Q309 108 334 133T360 216V235Q360 330 250 330Q211 330 211 381T250 432Q294 432 318 451T342 530Q342 618 254 618Q165
618 165 551Q165 501 103 501Q61 501 49 512T36 557Q36 586 47 614T81 670T150 714T255 731Q466 731 466 552Q466 492 446 448T388 386Q490 346 490 235V216Q490 102 424 48T250 -6Q137 -6 79 50T20 176Z" />
<glyph unicode="4" glyph-name="four" horiz-adv-x="502" d="M-1 205Q-1 218 6 231L243 697Q259 731 298 731Q318 731 340 717T363 681Q363 674 358 664L166 280H283V385Q283 405 302 415T348 426T394 416T413 385V280H460Q479 280 490 262T501 219Q501 196 489
178T460 159H413V41Q413 22 394 11T348 0Q322 0 303 11T283 41V159H43Q24 159 12 171T-1 205Z" />
<glyph unicode="5" glyph-name="five" horiz-adv-x="509" d="M18 175Q18 208 34 221T83 234Q121 234 134 221T148 184Q148 148 177 128T251 108Q357 108 357 219V238Q357 294 330 322T252 350H104Q75 350 64 363T52 401Q52 405 52 413T53 427L79 690Q82 731 104
731H412Q430 731 440 714T451 674T441 634T412 617H187L175 452H252Q359 452 423 401T487 238V219Q487 103 423 49T254 -6Q145 -6 82 47T18 175Z" />
<glyph unicode="6" glyph-name="six" horiz-adv-x="549" d="M46 223V502Q46 621 111 676T287 731Q398 731 456 676T515 548Q515 518 501 506T454 494Q386 494 386 543Q386 577 357 597T284 617Q175 617 175 502V393Q218 444 308 444Q402 444 458 396T515 237V223Q515
104 452 49T281 -6T110 49T46 223ZM175 215Q175 100 281 100Q385 100 385 215V228Q385 342 280 342T175 237V215Z" />
<glyph unicode="7" glyph-name="seven" horiz-adv-x="498" d="M17 536V690Q17 705 34 718T74 731H429Q448 731 467 718T486 690V576Q486 550 461 500L208 14Q198 -5 171 -5Q139 -5 114 14T89 60Q89 73 95 83L356 551V617H147V536Q147 518 127 506T81 494Q54 494
36 506T17 536Z" />
<glyph unicode="8" glyph-name="eight" horiz-adv-x="533" d="M32 200V212Q32 356 151 400Q55 434 55 554Q55 645 112 688T267 731Q364 731 421 688T478 554Q478 434 382 400Q501 357 501 212V200Q501 94 437 44T267 -6T97 44T32 200ZM162 215Q162 100 267 100Q371
100 371 215V235Q371 345 267 345Q162 345 162 235V215ZM181 625T181 538T267 451T353 538T267 625Z" />
<glyph unicode="9" glyph-name="nine" horiz-adv-x="550" d="M34 177Q34 207 48 219T95 231Q163 231 163 182Q163 148 192 128T266 108Q374 108 374 223V332Q331 281 241 281Q147 281 91 329T34 488V502Q34 621 98 676T268 731Q375 731 439 676T504 502V223Q504
104 438 49T262 -6T93 50T34 177ZM164 497Q164 383 269 383T374 488V510Q374 625 268 625Q164 625 164 510V497Z" />
<glyph unicode=":" glyph-name="colon" horiz-adv-x="223" d="M44 34T44 62T63 110T112 130Q139 130 159 110T179 62Q179 35 159 15T112 -6Q83 -6 64 14ZM44 326T44 354T63 402T112 422Q139 422 159 402T179 354Q179 327 159 307T112 286Q83 286 64 306Z" />
<glyph unicode=";" glyph-name="semicolon" horiz-adv-x="224" d="M42 62Q42 90 61 110T109 130T157 111T177 63Q177 46 122 -83Q114 -100 95 -100Q80 -100 66 -91T52 -66Q52 -59 56 -52L79 1Q42 21 42 62ZM47 326T47 354T66 402T115 422Q142 422 162 402T182
354Q182 327 162 307T115 286Q86 286 67 306Z" />
<glyph unicode="&lt;" glyph-name="less" horiz-adv-x="418" d="M19 277Q19 308 46 325L304 494Q311 498 321 498Q342 498 360 480T378 437Q378 414 362 404L169 277L362 151Q378 141 378 117Q378 92 360 74T321 56Q310 56 304 61L46 229Q19 247 19 277Z" />
<glyph unicode="=" glyph-name="equal" horiz-adv-x="445" d="M53 144Q53 167 64 182T93 198H351Q367 198 380 182T393 144Q393 121 381 106T351 91H93Q75 91 64 105T53 144ZM53 347Q53 370 64 385T93 401H351Q367 401 380 385T393 347Q393 324 381 309T351 294H93Q75
294 64 308T53 347Z" />
<glyph unicode="&gt;" glyph-name="greater" horiz-adv-x="417" d="M39 117Q39 140 55 151L249 277L55 404Q39 415 39 437Q39 462 57 480T97 498Q108 498 113 494L372 325Q398 309 398 277Q398 247 372 229L113 61Q108 56 97 56Q76 56 58 74T39 117Z" />
<glyph unicode="?" glyph-name="question" horiz-adv-x="435" d="M21 617Q21 659 71 697T205 735Q299 735 355 687T411 566Q411 541 404 517T388 477T363 440T338 411L312 386L293 370Q259 343 251 316T243 238Q243 202 193 202Q168 202 158 214T147 258Q147 362
207 416L236 440Q259 460 270 471T293 505T305 552Q305 593 277 615T202 638Q169 638 147 627T117 604T98 580T71 569Q52 569 37 581T21 617ZM127 62Q127 90 146 110T194 130T242 110T262 62Q262 35 242 15T194 -6T147 14T127 62Z" />
<glyph unicode="@" glyph-name="at" horiz-adv-x="737" d="M38 209Q38 313 74 392T188 521T380 570Q537 570 624 482T712 239Q712 140 675 76T564 12Q522 12 494 32T459 85Q406 17 334 17Q283 17 246 46T209 132Q209 255 410 255H442V270Q442 340 361 340Q325
340 296 327T263 313Q251 313 242 330T232 361Q232 389 276 408T375 428Q443 428 489 393T536 294V125Q543 77 572 77Q630 77 630 219Q630 496 380 496Q308 496 256 474T176 410T135 319T122 210Q122 154 133 108T170 24T240 -36T350 -58Q398 -58 438 -45T483 -32Q497
-32 506 -45T515 -70Q515 -99 455 -115T335 -132Q211 -132 125 -44T38 209ZM312 134Q312 111 324 99T358 86Q392 86 419 111T447 168V199H422Q312 199 312 134Z" />
<glyph unicode="A" glyph-name="A" horiz-adv-x="575" d="M9 54Q9 56 11 64L204 693Q210 714 233 725T287 737T341 726T371 693L564 64Q566 56 566 54Q566 32 539 16T484 0Q447 0 440 26L402 159H173L135 26Q128 0 91 0Q62 0 36 15T9 54ZM200 261H374L287 568L200 261Z" />
<glyph unicode="B" glyph-name="B" horiz-adv-x="562" d="M60 40V690Q60 709 77 720T117 731H310Q511 731 511 555Q511 433 426 396Q477 376 503 340T529 233V212Q529 101 475 51T329 0H117Q92 0 76 12T60 40ZM189 114H302Q399 114 399 223V239Q399 295 375 320T302
345H189V114ZM189 447H301Q340 447 360 470T381 533Q381 572 360 594T300 617H189V447Z" />
<glyph unicode="C" glyph-name="C" horiz-adv-x="550" d="M53 223V502Q53 620 117 675T284 731Q389 731 455 679T522 541Q522 504 507 491T457 477Q393 477 392 518Q391 531 390 540T382 565T365 591T335 609T288 617Q183 617 183 502V223Q183 108 290 108Q322
108 343 118T374 146T387 179T392 215Q395 256 456 256Q491 256 506 243T522 192Q522 102 456 48T283 -6Q180 -6 117 49T53 223Z" />
<glyph unicode="D" glyph-name="D" horiz-adv-x="580" d="M60 40V691Q60 707 76 719T117 731H294Q401 731 465 676T529 502V229Q529 110 465 55T294 0H117Q92 0 76 12T60 40ZM190 114H294Q399 114 399 229V502Q399 617 294 617H190V114Z" />
<glyph unicode="E" glyph-name="E" horiz-adv-x="530" d="M60 41V690Q60 709 77 720T117 731H473Q493 731 503 714T514 675Q514 651 503 634T473 617H190V417H342Q361 417 372 402T383 365Q383 346 373 331T342 315H190V114H473Q492 114 503 97T514 56Q514 34
504 17T473 0H117Q94 0 77 11T60 41Z" />
<glyph unicode="F" glyph-name="F" horiz-adv-x="508" d="M60 41V690Q60 709 77 720T117 731H466Q486 731 496 715T506 675Q506 651 496 634T466 617H190V417H343Q362 417 372 402T383 365Q383 345 373 330T343 315H190V41Q190 22 171 11T125 0Q98 0 79 11T60 41Z" />
<glyph unicode="G" glyph-name="G" horiz-adv-x="564" d="M52 223V502Q52 620 115 675T282 731Q388 731 454 679T521 539Q521 503 506 490T456 477Q392 477 391 518Q388 562 366 589T287 617Q182 617 182 502V223Q182 108 286 108Q336 108 363 137T391 223V282H310Q291
282 281 297T270 333Q270 353 281 368T310 384H480Q499 384 510 372T521 342V223Q521 104 457 49T286 -6T116 49T52 223Z" />
<glyph unicode="H" glyph-name="H" horiz-adv-x="605" d="M60 41V691Q60 711 79 721T125 731T171 721T190 691V430H415V691Q415 711 434 721T480 731T526 721T545 691V41Q545 22 526 11T480 0Q453 0 434 11T415 41V328H190V41Q190 22 171 11T125 0Q98 0 79 11T60 41Z" />
<glyph unicode="I" glyph-name="I" horiz-adv-x="250" d="M60 41V691Q60 711 79 721T125 731T171 721T190 691V41Q190 22 171 11T125 0Q98 0 79 11T60 41Z" />
<glyph unicode="J" glyph-name="J" horiz-adv-x="539" d="M13 193Q13 229 28 242T78 256Q139 256 143 215Q147 108 246 108Q352 108 352 223V617H250Q231 617 220 634T209 675Q209 698 219 714T250 731H425Q448 731 465 720T482 690V223Q482 105 419 50T252 -6Q146
-6 80 47T13 193Z" />
<glyph unicode="K" glyph-name="K" horiz-adv-x="552" d="M60 41V691Q60 711 79 721T125 731T171 721T190 691V418L406 712Q420 731 442 731Q467 731 492 710T517 664Q517 649 509 639L330 415L548 83Q555 73 555 60Q555 36 531 16T477 -5Q447 -5 432 20L244 305L190
237V41Q190 22 171 11T125 0Q98 0 79 11T60 41Z" />
<glyph unicode="L" glyph-name="L" horiz-adv-x="484" d="M60 41V691Q60 711 79 721T125 731T171 721T190 691V114H434Q452 114 462 97T473 57T463 17T434 0H117Q94 0 77 11T60 41Z" />
<glyph unicode="M" glyph-name="M" horiz-adv-x="699" d="M60 41V666Q60 699 78 715T125 731Q162 731 182 718T226 662L349 438L472 662Q496 705 516 718T574 731Q602 731 620 715T639 666V41Q639 22 620 11T574 0Q547 0 528 11T509 41V471L392 263Q378 237 348
237Q319 237 305 263L190 479V41Q190 22 171 11T125 0Q98 0 79 11T60 41Z" />
<glyph unicode="N" glyph-name="N" horiz-adv-x="605" d="M60 41V690Q60 710 79 720T125 731Q161 731 180 718T222 662L415 289V691Q415 711 434 721T480 731T526 721T545 691V41Q545 22 526 11T480 0Q427 0 405 41L190 443V41Q190 22 171 11T125 0Q98 0 79 11T60 41Z" />
<glyph unicode="O" glyph-name="O" horiz-adv-x="572" d="M52 223V502Q52 621 115 676T286 731T457 676T521 502V223Q521 104 457 49T286 -6T116 49T52 223ZM182 223Q182 108 286 108Q391 108 391 223V502Q391 617 286 617Q182 617 182 502V223Z" />
<glyph unicode="P" glyph-name="P" horiz-adv-x="557" d="M60 41V691Q60 707 73 719T109 731H310Q413 731 475 677T537 506V500Q537 383 473 328T302 273H190V41Q190 22 171 11T125 0Q98 0 79 11T60 41ZM190 375H302Q352 375 379 404T407 490V502Q407 559 380
588T302 617H190V375Z" />
<glyph unicode="Q" glyph-name="Q" horiz-adv-x="572" d="M52 223V502Q52 621 115 676T286 731T457 676T521 502V223Q521 117 469 62T327 -3V-68Q327 -87 315 -98T286 -109T257 -98T244 -68V-3Q52 18 52 223ZM182 223Q182 136 244 116V169Q244 189 256 199T286
209T315 199T327 169V116Q391 137 391 223V502Q391 559 364 588T286 617Q182 617 182 502V223Z" />
<glyph unicode="R" glyph-name="R" horiz-adv-x="570" d="M60 41V691Q60 707 72 719T102 731H300Q537 731 537 522Q537 440 502 390T406 322L537 79Q542 73 542 63Q542 38 516 17T461 -5T416 26L274 302H190V41Q190 22 171 11T125 0Q99 0 80 11T60 41ZM190 404H300Q407
404 407 510Q407 617 300 617H190V404Z" />
<glyph unicode="S" glyph-name="S" horiz-adv-x="522" d="M24 115Q24 138 41 161T81 185Q94 185 110 173T142 147T187 120T251 108Q299 108 331 130T363 195Q363 225 346 248T300 287T237 317T169 350T106 390T60 450T42 536Q42 589 63 629T121 692T198 725T285
736Q311 736 340 733T401 721T454 696T475 656Q475 634 461 611T423 587Q414 587 374 606T285 625Q231 625 202 605T172 548Q172 519 196 498T255 463T332 429T409 384T469 315T493 208Q493 104 428 48T255 -9Q160 -9 92 30T24 115Z" />
<glyph unicode="T" glyph-name="T" horiz-adv-x="528" d="M12 673Q12 696 22 713T53 731H476Q496 731 506 714T517 673Q517 649 506 632T476 614H330V41Q330 22 311 11T265 0Q238 0 219 11T200 41V614H53Q34 614 23 631T12 673Z" />
<glyph unicode="U" glyph-name="U" horiz-adv-x="594" d="M57 223V691Q57 711 76 721T122 731T168 721T187 691V223Q187 108 297 108T407 223V691Q407 711 426 721T472 731T518 721T537 691V223Q537 105 472 50T297 -6T123 49T57 223Z" />
<glyph unicode="V" glyph-name="V" horiz-adv-x="575" d="M9 677Q9 700 35 715T91 731Q128 731 135 705L288 163L440 705Q447 731 484 731Q512 731 539 715T566 677Q566 675 564 667L372 38Q366 17 342 6T288 -6Q219 -6 204 38L11 667Q9 675 9 677Z" />
<glyph unicode="W" glyph-name="W" horiz-adv-x="883" d="M9 679Q9 700 36 715T92 731Q128 731 135 705L293 163L378 511Q387 547 442 547Q496 547 505 511L590 163L748 705Q755 731 791 731Q820 731 847 716T874 679Q874 673 872 667L674 38Q659 -6 589 -6Q559
-6 535 5T506 38L442 308L377 38Q372 17 348 6T294 -6Q263 -6 239 5T209 38L11 667Q9 673 9 679Z" />
<glyph unicode="X" glyph-name="X" horiz-adv-x="561" d="M13 60Q13 70 21 84L194 366L27 647Q18 662 18 675Q18 700 44 718T101 736Q129 736 144 708L280 463L416 708Q432 736 460 736Q490 736 516 718T543 675Q543 662 534 647L367 366L540 84Q547 71 547 60Q547
34 519 15T462 -5Q438 -5 427 16L280 273L134 16Q122 -5 98 -5Q70 -5 42 14T13 60Z" />
<glyph unicode="Y" glyph-name="Y" horiz-adv-x="574" d="M9 677Q9 699 37 715T95 731Q122 731 135 705L287 416L440 705Q454 731 479 731Q508 731 536 715T565 677Q565 669 562 664L356 306Q352 300 352 293V41Q352 22 333 11T287 0Q261 0 242 11T222 41V293Q222
302 219 306L12 664Q9 672 9 677Z" />
<glyph unicode="Z" glyph-name="Z" horiz-adv-x="522" d="M14 36Q14 58 28 81L325 617H72Q53 617 43 633T32 674Q32 697 42 714T72 731H452Q491 731 491 696Q491 674 476 649L180 114H468Q486 114 497 97T509 57T498 18T468 0H53Q14 0 14 36Z" />
<glyph unicode="[" glyph-name="bracketleft" horiz-adv-x="341" d="M56 20V727Q56 746 73 757T113 768H285Q305 768 315 752T325 712Q325 688 314 671T285 654H186V93H285Q303 93 314 76T325 35Q325 12 315 -4T285 -21H113Q90 -21 73 -10T56 20Z" />
<glyph unicode="\" glyph-name="backslash" horiz-adv-x="370" d="M19 711Q19 728 33 741T68 755Q97 755 106 729L349 57Q351 53 351 45Q351 27 337 13T303 -1Q274 -1 264 27L21 697Q19 707 19 711Z" />
<glyph unicode="]" glyph-name="bracketright" horiz-adv-x="342" d="M16 35Q16 59 27 76T57 93H156V654H57Q38 654 27 671T16 712Q16 734 26 751T57 768H228Q251 768 268 757T286 727V20Q286 1 269 -10T228 -21H57Q37 -21 27 -4T16 35Z" />
<glyph unicode="^" glyph-name="asciicircum" horiz-adv-x="285" d="M0 616Q0 642 22 653L126 709Q134 714 143 714Q150 714 160 709L264 654Q285 641 285 615Q285 600 277 588T257 576Q252 576 247 579L143 635L39 579Q33 576 28 576Q16 576 8 588T0 616Z" />
<glyph unicode="_" glyph-name="underscore" horiz-adv-x="316" d="M-42 -54Q-42 -31 -31 -16T-2 0H318Q334 0 347 -16T360 -54Q360 -77 348 -92T318 -107H-2Q-20 -107 -31 -93T-42 -54Z" />
<glyph unicode="`" glyph-name="grave" horiz-adv-x="202" d="M0 665Q0 683 12 698T40 714Q43 714 53 712L185 648Q202 640 202 617Q202 600 190 584T162 568Q158 568 148 572L18 635Q0 643 0 665Z" />
<glyph unicode="a" glyph-name="a" horiz-adv-x="471" d="M22 124Q22 205 82 238T255 271H296V284Q296 321 275 348T208 376T131 361T94 345Q74 345 62 365T50 409Q50 438 101 459T210 481Q319 481 372 426T425 286V41Q425 24 407 12T362 0Q337 0 321 12T304 41V70Q235
-9 152 -9Q95 -9 59 25T22 124ZM151 141Q151 114 165 101T204 87Q236 87 266 117T296 183V204H281Q220 204 186 192T151 141Z" />
<glyph unicode="b" glyph-name="b" horiz-adv-x="519" d="M51 41V712Q51 730 68 741T114 752T161 741T180 712V405Q197 437 230 459T308 481Q381 481 433 421T486 278V196Q486 115 433 53T311 -9Q266 -9 227 14T172 70V41Q172 26 155 13T114 0Q87 0 69 12T51 41ZM180
178Q180 159 207 132T270 104T331 132T357 196V278Q357 313 331 340T269 368Q235 368 208 343T180 278V178Z" />
<glyph unicode="c" glyph-name="c" horiz-adv-x="434" d="M34 196V276Q34 368 88 424T250 481Q318 481 364 457T410 403Q410 382 395 361T359 340Q353 340 324 354T260 368Q163 368 163 276V196Q163 104 261 104Q295 104 324 119T361 134Q385 134 400 114T416
73Q416 42 368 17T251 -9Q142 -9 88 47T34 196Z" />
<glyph unicode="d" glyph-name="d" horiz-adv-x="520" d="M33 196V278Q33 361 85 421T211 481Q255 481 288 459T340 405V712Q340 730 358 741T405 752T451 741T469 712V41Q469 25 451 13T405 0Q382 0 365 13T347 41V70Q331 38 293 15T208 -9Q139 -9 86 53T33 196ZM162
196Q162 161 188 133T249 104T312 131T340 178V278Q340 318 313 343T250 368Q214 368 188 341T162 278V196Z" />
<glyph unicode="e" glyph-name="e" horiz-adv-x="484" d="M32 196V281Q32 363 96 422T251 481Q336 481 396 428T457 293Q457 263 450 244T427 216T398 206T364 204H161V189Q161 146 193 120T278 93Q316 93 353 112T401 131Q422 131 436 112T450 74Q450 46 400
19T274 -9Q167 -9 100 47T32 196ZM161 280H307Q323 280 329 285T336 307Q336 342 311 364T248 386Q213 386 187 365T161 308V280Z" />
<glyph unicode="f" glyph-name="f" horiz-adv-x="340" d="M51 40V556Q51 639 102 695T227 752H286Q309 752 322 736T335 698Q335 675 322 659T286 643H254Q221 643 201 623T180 570V475H302Q317 475 326 461T335 428T326 395T302 381H180V40Q180 22 161 11T114
0T69 11T51 40Z" />
<glyph unicode="g" glyph-name="g" horiz-adv-x="470" d="M15 -80Q15 -11 88 26Q46 46 46 90T97 168Q35 216 35 295V316Q35 389 89 435T230 481Q296 481 344 452Q374 520 405 520Q428 520 442 507T456 480Q456 464 440 452Q403 426 393 414Q428 373 428 316V295Q428
223 373 176T230 128Q194 128 165 137Q153 127 153 117Q153 100 184 92T259 79T348 63T423 20T454 -64Q454 -142 391 -181T236 -221Q143 -221 79 -183T15 -80ZM137 -67Q137 -100 165 -119T234 -138T302 -119T329 -68Q329 -54 324 -44T307 -26T285 -15T254 -7T224
-2T191 2Q137 -23 137 -67ZM160 296Q160 257 179 232T232 206Q265 206 284 230T303 295V316Q303 353 284 378T231 403T179 379T160 316V296Z" />
<glyph unicode="h" glyph-name="h" horiz-adv-x="524" d="M51 41V712Q51 730 68 741T115 752Q142 752 161 741T180 712V405Q195 437 228 459T306 481Q375 481 426 421T478 278V41Q478 22 459 11T413 0Q388 0 369 11T349 41V278Q349 312 323 340T262 368Q229 368
205 343T180 278V41Q180 26 161 13T115 0Q88 0 70 12T51 41Z" />
<glyph unicode="i" glyph-name="i" horiz-adv-x="229" d="M43 644Q43 670 63 688T114 707Q143 707 163 689T184 644Q184 619 164 600T114 581Q84 581 64 600T43 644ZM50 41V435Q50 453 68 464T114 475T160 464T179 435V41Q179 26 160 13T114 0Q87 0 69 12T50 41Z" />
<glyph unicode="j" glyph-name="j" horiz-adv-x="231" d="M-38 -168Q-38 -143 -24 -128T11 -112Q36 -112 43 -92T51 -32V435Q51 453 69 464T114 475Q142 475 161 464T180 435V-32Q180 -118 141 -169T29 -221Q-38 -221 -38 -168ZM44 644Q44 670 64 688T115 707Q144
707 164 689T185 644Q185 619 165 600T115 581Q85 581 65 600T44 644Z" />
<glyph unicode="k" glyph-name="k" horiz-adv-x="492" d="M51 41V712Q51 730 68 741T114 752T161 741T180 712V293L368 470Q380 480 394 480Q415 480 436 460T457 418Q457 405 446 394L328 287L475 77Q482 67 482 56Q482 34 458 13T409 -8Q389 -8 377 9L242 208L180
151V41Q180 26 160 13T114 0Q87 0 69 12T51 41Z" />
<glyph unicode="l" glyph-name="l" horiz-adv-x="247" d="M59 41V712Q59 730 76 741T123 752Q150 752 169 741T188 712V41Q188 26 169 13T123 0Q96 0 78 12T59 41Z" />
<glyph unicode="m" glyph-name="m" horiz-adv-x="803" d="M50 41V435Q50 453 67 464T114 475Q138 475 154 464T171 435V405Q214 481 303 481Q345 481 378 454T428 381Q453 430 493 455T579 481Q651 481 704 426T757 278V41Q757 26 738 13T692 0Q667 0 648 13T628
41V278Q628 320 604 344T547 369Q515 369 492 345T468 279V40Q468 20 449 10T403 0Q378 0 359 10T339 40V278Q339 318 315 343T257 368Q225 368 202 344T179 278V41Q179 26 160 13T114 0Q87 0 69 12T50 41Z" />
<glyph unicode="n" glyph-name="n" horiz-adv-x="523" d="M50 41V435Q50 453 67 464T114 475Q138 475 154 464T171 435V405Q187 437 222 459T305 481Q374 481 425 421T477 278V41Q477 22 458 11T412 0Q387 0 368 11T348 41V278Q348 313 322 340T261 368Q228 368
204 343T179 278V41Q179 26 160 13T114 0Q87 0 69 12T50 41Z" />
<glyph unicode="o" glyph-name="o" horiz-adv-x="498" d="M32 196V278Q32 360 96 420T249 481Q336 481 401 421T466 278V196Q466 115 401 53T249 -9T97 53T32 196ZM161 196Q161 160 187 132T249 104Q284 104 310 132T337 196V278Q337 312 311 340T249 368Q213
368 187 341T161 278V196Z" />
<glyph unicode="p" glyph-name="p" horiz-adv-x="519" d="M51 -180V435Q51 453 68 464T112 475T155 464T172 435V405Q191 437 226 459T307 481Q382 481 434 422T486 278V196Q486 115 433 53T311 -9Q268 -9 232 14T180 70V-180Q180 -196 161 -208T114 -221T69 -209T51
-180ZM180 178Q180 158 207 131T268 104Q303 104 330 132T357 196V278Q357 313 330 340T266 368Q232 368 206 343T180 278V178Z" />
<glyph unicode="q" glyph-name="q" horiz-adv-x="520" d="M33 196V278Q33 362 85 421T213 481Q258 481 293 459T347 405V435Q347 453 364 464T407 475T451 464T469 435V-180Q469 -196 451 -208T405 -221T359 -209T340 -180V70Q324 37 288 14T208 -9Q139 -9 86
53T33 196ZM162 196Q162 161 189 133T251 104T313 131T340 178V278Q340 318 314 343T253 368Q216 368 189 341T162 278V196Z" />
<glyph unicode="r" glyph-name="r" horiz-adv-x="377" d="M50 41V435Q50 453 67 464T113 475Q138 475 154 464T171 435V394Q187 429 221 455T294 481H325Q343 481 357 464T372 425Q372 402 358 385T325 368H294Q248 368 214 327T179 220V41Q179 26 159 13T113
0Q86 0 68 12T50 41Z" />
<glyph unicode="s" glyph-name="s" horiz-adv-x="414" d="M23 77Q23 95 36 114T66 134Q77 134 93 123T137 101T201 89Q274 89 274 132Q274 156 250 170T191 193T121 214T62 256T37 332Q37 393 80 437T216 481Q278 481 326 462T375 416Q375 399 362 377T328 354Q320
354 285 368T218 383Q184 383 166 369T148 338T166 310T210 293T268 277T325 252T370 209T388 137Q388 69 340 30T204 -9Q129 -9 76 17T23 77Z" />
<glyph unicode="t" glyph-name="t" horiz-adv-x="347" d="M49 162V647Q49 664 69 675T113 687Q139 687 158 676T178 647V475H296Q311 475 320 461T329 428T320 395T296 381H178V162Q178 133 190 121T234 109H273Q299 109 313 93T328 55Q328 32 314 16T273 0H234Q49
0 49 162Z" />
<glyph unicode="u" glyph-name="u" horiz-adv-x="524" d="M45 194V434Q45 449 64 462T110 475Q135 475 154 462T174 434V194Q174 159 200 132T262 104T323 131T349 194V435Q349 451 368 463T414 475Q442 475 460 463T478 435V194Q478 113 414 52T262 -9T110 52T45 194Z" />
<glyph unicode="v" glyph-name="v" horiz-adv-x="481" d="M6 426Q6 447 35 464T92 481Q121 481 130 459L241 169L352 457Q361 481 389 481Q413 481 444 464T475 425Q475 416 471 408L300 12Q289 -11 241 -11T183 12L11 408Q6 415 6 426Z" />
<glyph unicode="w" glyph-name="w" horiz-adv-x="693" d="M7 427Q7 449 35 464T91 480Q120 480 128 459L228 175L303 422Q311 448 347 448T391 422L465 174L566 459Q574 480 603 480Q630 480 658 464T686 426Q686 415 682 408L528 12Q519 -11 477 -11Q433 -11
424 12L347 230L271 13Q262 -11 216 -11Q175 -11 166 13L12 408Q7 418 7 427Z" />
<glyph unicode="x" glyph-name="x" horiz-adv-x="470" d="M21 55Q21 67 29 77L147 242L37 395Q29 406 29 416Q29 438 59 459T115 481Q135 481 144 467L235 321L327 466Q337 481 357 481Q382 481 412 460T442 416Q442 408 434 395L323 241L442 77Q450 69 450 55Q450
34 421 13T366 -9Q346 -9 336 5L235 157L135 5Q125 -9 103 -9T51 12T21 55Z" />
<glyph unicode="y" glyph-name="y" horiz-adv-x="476" d="M6 -166Q6 -112 39 -112Q86 -112 131 -78T182 35L10 403Q6 413 6 420Q6 444 35 463T92 482Q122 482 129 460L249 161L346 460Q353 482 380 482Q406 482 437 463T468 418Q468 410 465 403L319 30L302 -14Q290
-48 285 -61T266 -101T242 -141T212 -172T174 -199T126 -214T65 -221Q36 -221 21 -210T6 -166Z" />
<glyph unicode="z" glyph-name="z" horiz-adv-x="437" d="M21 46Q21 72 43 98L240 370H67Q51 370 40 385T29 423T39 460T67 475H361Q379 475 391 464T403 431Q403 403 383 377L185 105H381Q397 105 408 90T419 52T409 15T381 0H65Q43 0 32 13T21 46Z" />
<glyph unicode="{" glyph-name="braceleft" horiz-adv-x="361" d="M21 365T21 386T30 418T51 431T71 439T81 459Q81 468 73 523T65 596Q65 663 130 715T275 768Q346 768 346 711Q346 690 336 674T306 658Q268 658 232 638T195 579Q195 566 203 510T211 443Q211
424 199 406T175 384Q187 381 199 364T211 326Q211 313 203 241T195 156Q195 121 231 106T306 90Q327 90 336 73T346 36Q346 -20 273 -20Q192 -20 129 26T65 141Q65 160 73 231T81 311Q81 324 72 331T51 340T31 354Z" />
<glyph unicode="|" glyph-name="bar" horiz-adv-x="241" d="M56 20V728Q56 745 74 756T120 768Q147 768 166 757T185 728V20Q185 5 166 -8T120 -21Q93 -21 75 -9T56 20Z" />
<glyph unicode="}" glyph-name="braceright" horiz-adv-x="361" d="M15 36Q15 56 24 73T56 90Q94 90 130 105T166 156Q166 168 158 240T150 326Q150 346 162 363T186 384Q175 388 163 406T150 443Q150 454 158 510T166 579Q166 617 130 637T56 658Q37 658 26 674T15
711Q15 735 32 751T87 768Q166 768 231 716T296 596Q296 578 288 523T280 459Q280 446 289 440T310 431T330 418T340 386T331 354T310 341T290 331T280 311Q280 302 288 231T296 141Q296 72 233 26T88 -20Q15 -20 15 36Z" />
<glyph unicode="~" glyph-name="asciitilde" horiz-adv-x="411" d="M35 246Q35 274 53 290T87 310T121 314Q150 314 193 300T263 285Q287 285 311 297T344 309Q361 309 369 294T377 267Q377 245 368 231T343 210T315 201T292 199Q257 199 215 213T150 228Q126
228 101 216T68 204Q51 204 43 219T35 246Z" />
<glyph unicode="&#xa0;" glyph-name="uni00A0" horiz-adv-x="200" />
<glyph unicode="&#xa1;" glyph-name="exclamdown" horiz-adv-x="221" d="M42 667Q42 694 62 714T110 735T158 715T178 667Q178 638 158 618T110 598T62 618T42 667ZM48 48Q48 115 55 269T62 489Q62 507 77 517T110 527Q132 527 146 518T160 489Q160 423 166 269T173
48Q173 23 156 9T110 -6Q84 -6 66 8T48 48Z" />
<glyph unicode="&#xa2;" glyph-name="cent" horiz-adv-x="432" d="M24 361V379Q24 464 69 519T206 583V660Q206 675 217 685T244 695T271 685T282 660V581Q334 574 368 554T402 507Q402 486 387 467T350 448Q343 448 323 459T282 474V267Q302 271 322 283T350
295Q375 295 390 277T406 237Q406 211 371 189T282 158V76Q282 62 271 51T244 39Q228 39 217 50T206 76V157Q115 166 70 221T24 361ZM137 361Q137 282 206 265V474Q137 457 137 379V361Z" />
<glyph unicode="&#xa3;" glyph-name="sterling" horiz-adv-x="541" d="M21 34T21 57T31 97T60 114H113L148 366H92Q77 366 68 380T59 413T68 446T92 460H161L175 555Q188 647 262 707T430 768H465Q485 768 497 751T509 712Q509 689 497 672T465 655H425Q373 655
342 627T304 555L290 460H410Q426 460 434 446T443 413T435 380T410 366H277L241 114H470Q488 114 498 97T509 57T499 17T470 0H60Q42 0 32 17Z" />
<glyph unicode="&#xa4;" glyph-name="currency" horiz-adv-x="452" d="M48 331Q48 338 54 344L82 370Q49 416 49 472T81 574L55 599Q50 604 50 612Q50 623 58 631T78 640Q84 640 91 635L115 612Q165 652 226 652Q285 652 335 613L360 636Q366 641 374 641Q384
641 393 633T402 613Q402 606 396 600L370 575Q404 530 404 473Q404 415 369 369L396 344Q402 338 402 331Q402 320 393 312T374 303Q366 303 360 308L335 331Q286 290 226 290Q167 290 115 332L90 308Q84 303 76 303Q65 303 57 311T48 331ZM120 515T120 472T151
396T226 362T301 395T333 471T302 547T226 580T151 548Z" />
<glyph unicode="&#xa5;" glyph-name="yen" horiz-adv-x="563" d="M21 683Q21 702 46 719T98 736Q119 736 135 706L281 435L428 706Q444 736 465 736Q490 736 516 719T542 683Q542 675 538 667L374 401H439Q455 401 468 388T481 355T468 323T439 310H346V246H439Q455
246 468 233T481 200Q481 180 469 168T439 155H346V41Q346 22 327 11T281 0T235 11T216 41V155H126Q107 155 96 167T85 199Q85 220 96 233T126 246H216V310H126Q107 310 96 322T85 354Q85 375 96 388T126 401H186L25 667Q21 672 21 683Z" />
<glyph unicode="&#xa6;" glyph-name="brokenbar" horiz-adv-x="239" d="M55 20V270Q55 288 73 299T119 311Q146 311 165 300T184 270V20Q184 5 165 -8T119 -21Q92 -21 74 -9T55 20ZM55 478V728Q55 745 73 756T119 768Q146 768 165 757T184 728V478Q184 462 165
449T119 436Q92 436 74 449T55 478Z" />
<glyph unicode="&#xa7;" glyph-name="section" horiz-adv-x="477" d="M40 99Q40 127 54 138T95 150Q151 150 151 114Q151 39 227 39Q269 39 289 58T310 111T283 165T216 203T138 240T72 306T44 417V524Q44 583 62 626T110 690T172 721T239 731Q325 731 372 682T420
564Q420 535 408 524T371 513Q316 513 316 556Q316 584 300 605T244 626Q206 626 185 606T163 551Q163 518 191 497T261 459T342 422T411 356T440 245V138Q440 80 422 38T372 -26T307 -58T235 -68Q144 -68 92 -18T40 99ZM151 391Q151 344 183 319T265 275T334 240V261Q334
308 302 333T220 377T151 412V391Z" />
<glyph unicode="&#xa8;" glyph-name="dieresis" horiz-adv-x="251" d="M0 609T0 630T15 666T51 682T86 667T101 630T87 593T51 577T15 593ZM149 609T149 630T164 666T201 682Q221 682 236 667T251 630T236 593T201 577Q180 577 165 593Z" />
<glyph unicode="&#xa9;" glyph-name="copyright" horiz-adv-x="690" d="M38 358Q38 438 66 502T141 605T240 664T348 685T455 665T552 606T624 504T652 362Q652 282 624 218T549 115T450 56T342 35T235 55T138 114T66 216T38 358ZM100 358Q100 243 166 170T342
97T521 170T590 362Q590 477 524 550T348 623Q238 623 169 550T100 358ZM227 298V436Q227 502 260 533T346 564Q400 564 434 535T469 458Q469 437 461 430T434 422Q399 422 398 445Q395 499 349 499Q298 499 298 436V298Q298 235 349 235Q365 235 375 240T389 256T395
274T398 294Q399 316 433 316Q453 316 461 309T469 280Q469 230 435 200T346 170Q293 170 260 201T227 298Z" />
<glyph unicode="&#xaa;" glyph-name="ordfeminine" horiz-adv-x="334" d="M26 521Q26 575 66 597T182 619H209V628Q209 653 195 671T151 690Q120 690 99 679T75 668Q61 668 53 681T45 712Q45 731 79 745T152 760Q225 760 260 723T295 629V466Q295 455 283 447T252
439Q236 439 225 447T214 466V486Q169 433 116 433Q77 433 52 455T26 521ZM113 533Q113 497 148 497Q170 497 189 516T209 561V574H188Q113 574 113 533Z" />
<glyph unicode="&#xab;" glyph-name="guillemotleft" horiz-adv-x="499" d="M24 269T24 276T26 289T36 308L47 327L120 463Q129 480 157 480Q187 480 212 458T237 415Q237 408 234 403L167 277L234 152Q237 146 237 139Q237 117 212 96T156 74Q129 74 120 91L47
227Q43 235 36 246T27 263ZM251 269T251 276T253 289T263 308L274 327L348 463Q356 480 384 480Q415 480 439 459T464 415Q464 408 461 403L394 277L461 152Q464 146 464 139Q464 118 439 96T384 74Q356 74 348 91L274 227Q270 235 263 246T254 263Z" />
<glyph unicode="&#xac;" glyph-name="logicalnot" horiz-adv-x="497" d="M32 240Q32 263 43 278T72 294H406Q422 294 435 278T448 240V104Q448 88 429 76T383 63T338 75T319 104V187H72Q54 187 43 201T32 240Z" />
<glyph unicode="&#xad;" glyph-name="uni00AD" horiz-adv-x="473" d="M36 240Q36 263 47 278T76 294H396Q412 294 425 278T438 240Q438 217 426 202T396 187H76Q58 187 47 201T36 240Z" />
<glyph unicode="&#xae;" glyph-name="registered" horiz-adv-x="690" d="M38 358Q38 438 66 502T141 605T240 664T348 685T455 665T552 606T624 504T652 362Q652 282 624 218T549 115T450 56T342 35T235 55T138 114T66 216T38 358ZM100 358Q100 243 166 170T342
97T521 170T590 362Q590 477 524 550T348 623Q238 623 169 550T100 358ZM238 203V528Q238 549 260 551H358Q410 551 442 526T475 443Q475 363 411 340L472 221Q473 219 473 214Q473 201 461 190T436 178Q422 178 415 196L349 329H305V203Q305 179 273 179Q259 179
249 185T238 203ZM305 386H358Q409 386 409 436Q409 491 358 491H305V386Z" />
<glyph unicode="&#xaf;" glyph-name="overscore" horiz-adv-x="286" d="M0 652Q0 670 11 682T40 695H245Q261 695 273 683T286 652T274 622T245 610H40Q22 610 11 621T0 652Z" />
<glyph unicode="&#xb0;" glyph-name="degree" horiz-adv-x="399" d="M22 516T22 588T74 714T199 768Q270 768 323 715T377 589T324 461T199 406T75 461ZM93 631T93 588T124 512T199 478T274 511T306 587T275 663T199 696T124 664Z" />
<glyph unicode="&#xb1;" glyph-name="plusminus" horiz-adv-x="471" d="M35 85Q35 108 46 123T75 139H395Q411 139 423 123T436 85Q436 62 424 47T395 32H75Q57 32 46 46T35 85ZM35 368Q35 392 46 407T75 423H182V521Q182 536 198 549T236 562Q259 562 274 550T289
521V423H395Q411 423 423 407T436 368T424 330T395 315H289V216Q289 198 275 187T236 176Q213 176 198 187T182 216V315H75Q57 315 46 330T35 368Z" />
<glyph unicode="&#xb2;" glyph-name="uni00B2" horiz-adv-x="322" d="M24 358V411Q24 440 53 469T118 519T182 566T212 615Q212 630 200 642T163 654Q116 654 116 613Q116 600 103 591T70 582Q31 582 31 626Q31 674 70 702T162 731Q217 731 257 701T298 618Q298
579 269 545T206 492T143 452T114 416V406H272Q283 406 290 395T298 369T290 343T272 331H62Q49 331 37 339T24 358Z" />
<glyph unicode="&#xb3;" glyph-name="uni00B3" horiz-adv-x="329" d="M20 432Q20 450 28 456T60 463Q86 463 95 457T104 435Q104 403 161 403Q192 403 205 414T219 452V462Q219 488 204 496T159 505Q133 505 133 538T159 572Q175 573 183 575T200 587T208 618Q208
658 161 658Q113 658 113 630Q113 599 73 599Q45 599 37 606T29 633Q29 672 60 701T161 731Q290 731 290 632Q290 562 244 542Q304 522 304 462V452Q304 388 264 358T158 328Q90 328 55 360T20 432Z" />
<glyph unicode="&#xb4;" glyph-name="acute" horiz-adv-x="202" d="M0 617Q0 640 17 648L149 712Q159 714 162 714Q178 714 190 699T202 665Q202 643 184 635L54 572Q44 568 40 568Q24 568 12 584T0 617Z" />
<glyph unicode="&#xb5;" glyph-name="uni00B5" horiz-adv-x="518" d="M56 -180V434Q56 449 75 462T121 475Q146 475 165 462T185 434V189Q185 159 212 132T274 104Q308 104 333 131T359 194V434Q359 451 378 463T424 475Q452 475 470 463T488 434V194Q488 112
425 52T273 -9Q216 -9 170 30V-180Q170 -196 155 -208T119 -221Q93 -221 75 -209T56 -180Z" />
<glyph unicode="&#xb6;" glyph-name="paragraph" horiz-adv-x="555" d="M23 513V525Q23 632 76 681T219 731H451Q468 731 480 720T492 690V40Q492 20 480 10T451 0T422 10T409 40V672H327V41Q327 22 315 11T285 0T256 11T244 41V306H219Q130 306 77 356T23 513Z" />
<glyph unicode="&#xb7;" glyph-name="middot" horiz-adv-x="206" d="M31 274T31 300T52 344T103 363T153 345T174 300T154 255T103 236T52 255Z" />
<glyph unicode="&#xb8;" glyph-name="cedilla" horiz-adv-x="190" d="M0 -187Q0 -178 6 -164T23 -150Q26 -150 44 -157T81 -164Q128 -164 128 -131T80 -94L25 -89L53 9H110L91 -51Q140 -53 165 -74T190 -128Q190 -161 165 -188T85 -216Q55 -216 28 -209T0 -187Z" />
<glyph unicode="&#xb9;" glyph-name="uni00B9" horiz-adv-x="193" d="M7 655Q7 676 22 685L98 729Q108 733 114 733Q129 733 141 725T153 705V358Q153 345 140 338T110 331Q92 331 79 338T66 358V636L49 626Q42 622 34 622Q22 622 15 632T7 655Z" />
<glyph unicode="&#xba;" glyph-name="ordmasculine" horiz-adv-x="344" d="M27 569V624Q27 679 69 719T171 760T273 720T316 624V569Q316 515 273 474T171 432Q114 432 71 473T27 569ZM113 569Q113 545 130 527T171 508T212 526T230 569V624Q230 648 213 666T171
684T130 666T113 624V569Z" />
<glyph unicode="&#xbb;" glyph-name="guillemotright" horiz-adv-x="500" d="M35 139Q35 146 38 152L105 277L38 403Q35 408 35 415Q35 436 60 458T115 480Q143 480 152 463L225 327L236 308Q243 296 245 290T248 276T246 263T236 246T225 227L152 91Q143 74 116
74Q85 74 60 95T35 139ZM262 139Q262 146 265 152L332 277L265 403Q262 408 262 415Q262 437 287 458T343 480Q371 480 379 463L453 327L464 308Q471 296 473 290T476 276T474 263T464 246T453 227L379 91Q371 74 343 74Q312 74 287 95T262 139Z" />
<glyph unicode="&#xbc;" glyph-name="onequarter" horiz-adv-x="665" d="M25 655Q25 676 40 685L116 729Q126 733 132 733Q147 733 159 725T171 705V358Q171 345 158 338T128 331Q110 331 97 338T84 358V636L67 626Q60 622 52 622Q40 622 33 632T25 655ZM78 4Q78
11 82 21L442 750Q452 771 478 771Q496 771 512 758T528 726Q528 716 524 708L164 -18Q155 -40 125 -40Q105 -40 92 -27T78 4ZM338 114Q338 122 342 130L480 378Q493 400 516 400Q529 400 544 391T559 368Q559 362 556 357L448 163H506V201Q506 214 519 220T549
227Q593 227 593 201V163H619Q645 163 645 124Q645 109 637 97T619 84H593V26Q593 14 580 7T549 0Q532 0 519 7T506 26V84H366Q338 84 338 114Z" />
<glyph unicode="&#xbd;" glyph-name="onehalf" horiz-adv-x="654" d="M22 655Q22 676 37 685L113 729Q123 733 129 733Q144 733 156 725T168 705V358Q168 345 155 338T125 331Q107 331 94 338T81 358V636L64 626Q57 622 49 622Q37 622 30 632T22 655ZM59 4Q59
11 63 21L423 750Q434 771 459 771Q478 771 493 758T509 726Q509 716 505 708L145 -18Q136 -40 106 -40Q86 -40 73 -27T59 4ZM353 26V80Q353 108 382 137T447 188T511 235T541 284Q541 299 529 310T492 322Q445 322 445 281Q445 269 432 260T399 250Q360 250 360
295Q360 343 399 371T491 400Q546 400 586 370T627 286Q627 247 599 213T535 160T472 120T443 84V75H601Q612 75 619 64T627 38T619 12T601 0H391Q378 0 366 7T353 26Z" />
<glyph unicode="&#xbe;" glyph-name="threequarters" horiz-adv-x="799" d="M28 432Q28 450 36 456T68 463Q94 463 103 457T112 435Q112 403 169 403Q200 403 213 414T227 452V462Q227 488 212 496T167 505Q141 505 141 538T167 572Q183 573 191 575T208 587T216
618Q216 658 169 658Q121 658 121 630Q121 599 81 599Q53 599 45 606T37 633Q37 672 68 701T169 731Q298 731 298 632Q298 562 252 542Q312 522 312 462V452Q312 388 272 358T166 328Q98 328 63 360T28 432ZM205 4Q205 11 209 21L569 750Q580 771 605 771Q624 771
639 758T655 726Q655 716 651 708L291 -18Q282 -40 252 -40Q232 -40 219 -27T205 4ZM472 114Q472 122 476 130L614 378Q627 400 650 400Q663 400 678 391T693 368Q693 362 690 357L582 163H640V201Q640 214 653 220T683 227Q727 227 727 201V163H753Q779 163 779
124Q779 109 771 97T753 84H727V26Q727 14 714 7T683 0Q666 0 653 7T640 26V84H500Q472 84 472 114Z" />
<glyph unicode="&#xbf;" glyph-name="questiondown" horiz-adv-x="436" d="M25 163Q25 199 37 231T74 291T110 329T143 358Q175 384 184 412T193 491Q193 527 243 527Q269 527 279 515T290 471Q290 369 229 312Q223 306 200 287T166 257T143 223T131 176Q131 135
159 113T234 91Q267 91 289 102T319 125T339 149T365 160Q384 160 399 147T415 112Q415 70 365 32T231 -6Q137 -6 81 42T25 163ZM174 667Q174 694 194 714T242 735T289 715T309 667Q309 638 290 618T242 598T194 618T174 667Z" />
<glyph unicode="&#xc0;" glyph-name="Agrave" horiz-adv-x="575" d="M9 54Q9 56 11 64L204 693Q210 714 233 725T287 737T341 726T371 693L564 64Q566 56 566 54Q566 32 539 16T484 0Q447 0 440 26L402 159H173L135 26Q128 0 91 0Q62 0 36 15T9 54ZM172 908Q172
926 184 941T212 957Q215 957 225 955L357 891Q374 882 374 860Q374 843 362 827T334 811Q330 811 320 815L190 878Q172 886 172 908ZM200 261H374L287 568L200 261Z" />
<glyph unicode="&#xc1;" glyph-name="Aacute" horiz-adv-x="575" d="M9 54Q9 56 11 64L204 693Q210 714 233 725T287 737T341 726T371 693L564 64Q566 56 566 54Q566 32 539 16T484 0Q447 0 440 26L402 159H173L135 26Q128 0 91 0Q62 0 36 15T9 54ZM200 261H374L287
568L200 261ZM215 860Q215 882 232 891L364 955Q374 957 377 957Q393 957 405 942T417 908Q417 886 399 878L269 815Q259 811 255 811Q239 811 227 827T215 860Z" />
<glyph unicode="&#xc2;" glyph-name="Acircumflex" horiz-adv-x="575" d="M9 54Q9 56 11 64L204 693Q210 714 233 725T287 737T341 726T371 693L564 64Q566 56 566 54Q566 32 539 16T484 0Q447 0 440 26L402 159H173L135 26Q128 0 91 0Q62 0 36 15T9 54ZM144 859Q144
885 166 896L270 952Q278 957 287 957Q294 957 304 952L408 897Q429 884 429 858Q429 843 421 831T401 819Q396 819 391 822L287 878L183 822Q177 819 172 819Q160 819 152 831T144 859ZM200 261H374L287 568L200 261Z" />
<glyph unicode="&#xc3;" glyph-name="Atilde" horiz-adv-x="575" d="M9 54Q9 56 11 64L204 693Q210 714 233 725T287 737T341 726T371 693L564 64Q566 56 566 54Q566 32 539 16T484 0Q447 0 440 26L402 159H173L135 26Q128 0 91 0Q62 0 36 15T9 54ZM116 878Q116
906 134 922T168 942T202 946Q232 946 275 932T344 917Q368 917 392 929T425 941Q442 941 450 926T458 899Q458 877 449 863T424 842T396 833T373 831Q338 831 296 845T231 860Q207 860 182 848T149 836Q132 836 124 851T116 878ZM200 261H374L287 568L200 261Z"
/>
<glyph unicode="&#xc4;" glyph-name="Adieresis" horiz-adv-x="575" d="M9 54Q9 56 11 64L204 693Q210 714 233 725T287 737T341 726T371 693L564 64Q566 56 566 54Q566 32 539 16T484 0Q447 0 440 26L402 159H173L135 26Q128 0 91 0Q62 0 36 15T9 54ZM163 852T163
873T178 909T214 925T249 910T264 873T250 836T214 820T178 836ZM200 261H374L287 568L200 261ZM312 852T312 873T327 909T364 925Q384 925 399 910T414 873T399 836T364 820Q343 820 328 836Z" />
<glyph unicode="&#xc5;" glyph-name="Aring" horiz-adv-x="575" d="M9 54Q9 56 11 64L204 693Q210 714 233 725T287 737T341 726T371 693L564 64Q566 56 566 54Q566 32 539 16T484 0Q447 0 440 26L402 159H173L135 26Q128 0 91 0Q62 0 36 15T9 54ZM189 913Q189
952 217 982T286 1012T355 982T385 913Q385 873 355 843T286 812T218 842T189 913ZM200 261H374L287 568L200 261ZM240 912Q240 894 254 879T287 864Q305 864 318 878T331 912Q331 930 318 943T287 957Q268 957 254 943T240 912Z" />
<glyph unicode="&#xc6;" glyph-name="AE" horiz-adv-x="787" d="M57 46V502Q57 620 119 675T285 731H730Q750 731 760 715T771 675Q771 651 760 634T730 617H502V417H621Q640 417 651 402T662 365Q662 346 652 331T621 315H502V114H730Q749 114 760 97T771 56Q771
33 761 17T730 0H429Q406 0 389 11T372 41V315H180V46Q180 23 167 12T115 0Q57 0 57 46ZM180 417H372V617H285Q180 617 180 502V417Z" />
<glyph unicode="&#xc7;" glyph-name="Ccedilla" horiz-adv-x="550" d="M53 223V502Q53 620 117 675T284 731Q389 731 455 679T522 541Q522 504 507 491T457 477Q393 477 392 518Q391 531 390 540T382 565T365 591T335 609T288 617Q183 617 183 502V223Q183 108
290 108Q322 108 343 118T374 146T387 179T392 215Q395 256 456 256Q491 256 506 243T522 192Q522 110 467 58T320 -4L305 -51Q354 -53 379 -74T404 -128Q404 -161 379 -188T299 -216Q269 -216 242 -209T214 -187Q214 -178 220 -164T237 -150Q240 -150 258 -157T295
-164Q342 -164 342 -131T294 -94L239 -89L263 -5Q168 0 111 55T53 223Z" />
<glyph unicode="&#xc8;" glyph-name="Egrave" horiz-adv-x="529" d="M60 41V690Q60 709 77 720T117 731H473Q493 731 503 714T514 675Q514 651 503 634T473 617H190V417H342Q361 417 372 402T383 365Q383 346 373 331T342 315H190V114H473Q492 114 503 97T514
56Q514 34 504 17T473 0H117Q94 0 77 11T60 41ZM181 908Q181 926 193 941T221 957Q224 957 234 955L366 891Q383 882 383 860Q383 843 371 827T343 811Q339 811 329 815L199 878Q181 886 181 908Z" />
<glyph unicode="&#xc9;" glyph-name="Eacute" horiz-adv-x="529" d="M60 41V690Q60 709 77 720T117 731H473Q493 731 503 714T514 675Q514 651 503 634T473 617H190V417H342Q361 417 372 402T383 365Q383 346 373 331T342 315H190V114H473Q492 114 503 97T514
56Q514 34 504 17T473 0H117Q94 0 77 11T60 41ZM205 860Q205 882 222 891L354 955Q364 957 367 957Q383 957 395 942T407 908Q407 886 389 878L259 815Q249 811 245 811Q229 811 217 827T205 860Z" />
<glyph unicode="&#xca;" glyph-name="Ecircumflex" horiz-adv-x="530" d="M60 41V690Q60 709 77 720T117 731H473Q493 731 503 714T514 675Q514 651 503 634T473 617H190V417H342Q361 417 372 402T383 365Q383 346 373 331T342 315H190V114H473Q492 114 503 97T514
56Q514 34 504 17T473 0H117Q94 0 77 11T60 41ZM152 859Q152 885 174 896L278 952Q286 957 295 957Q302 957 312 952L416 897Q437 884 437 858Q437 843 429 831T409 819Q404 819 399 822L295 878L191 822Q185 819 180 819Q168 819 160 831T152 859Z" />
<glyph unicode="&#xcb;" glyph-name="Edieresis" horiz-adv-x="530" d="M60 41V690Q60 709 77 720T117 731H473Q493 731 503 714T514 675Q514 651 503 634T473 617H190V417H342Q361 417 372 402T383 365Q383 346 373 331T342 315H190V114H473Q492 114 503 97T514
56Q514 34 504 17T473 0H117Q94 0 77 11T60 41ZM164 852T164 873T179 909T215 925T250 910T265 873T251 836T215 820T179 836ZM313 852T313 873T328 909T365 925Q385 925 400 910T415 873T400 836T365 820Q344 820 329 836Z" />
<glyph unicode="&#xcc;" glyph-name="Igrave" horiz-adv-x="250" d="M17 908Q17 926 29 941T57 957Q60 957 70 955L202 891Q219 882 219 860Q219 843 207 827T179 811Q175 811 165 815L35 878Q17 886 17 908ZM60 41V691Q60 711 79 721T125 731T171 721T190 691V41Q190
22 171 11T125 0Q98 0 79 11T60 41Z" />
<glyph unicode="&#xcd;" glyph-name="Iacute" horiz-adv-x="250" d="M31 860Q31 882 48 891L180 955Q190 957 193 957Q209 957 221 942T233 908Q233 886 215 878L85 815Q75 811 71 811Q55 811 43 827T31 860ZM60 41V691Q60 711 79 721T125 731T171 721T190 691V41Q190
22 171 11T125 0Q98 0 79 11T60 41Z" />
<glyph unicode="&#xce;" glyph-name="Icircumflex" horiz-adv-x="250" d="M-16 859Q-16 885 6 896L110 952Q118 957 127 957Q134 957 144 952L248 897Q269 884 269 858Q269 843 261 831T241 819Q236 819 231 822L127 878L23 822Q17 819 12 819Q0 819 -8 831T-16
859ZM60 41V691Q60 711 79 721T125 731T171 721T190 691V41Q190 22 171 11T125 0Q98 0 79 11T60 41Z" />
<glyph unicode="&#xcf;" glyph-name="Idieresis" horiz-adv-x="250" d="M1 852T1 873T16 909T52 925T87 910T102 873T88 836T52 820T16 836ZM60 41V691Q60 711 79 721T125 731T171 721T190 691V41Q190 22 171 11T125 0Q98 0 79 11T60 41ZM150 852T150 873T165
909T202 925Q222 925 237 910T252 873T237 836T202 820Q181 820 166 836Z" />
<glyph unicode="&#xd0;" glyph-name="Eth" horiz-adv-x="587" d="M-7 363T-7 382T2 415T26 429H67V691Q67 707 83 719T124 731H301Q408 731 472 676T536 502V229Q536 110 472 55T301 0H124Q99 0 83 12T67 40V336H26Q11 336 2 349ZM197 114H301Q406 114 406 229V502Q406
617 301 617H197V429H274Q290 429 299 415T308 382T299 350T274 336H197V114Z" />
<glyph unicode="&#xd1;" glyph-name="Ntilde" horiz-adv-x="605" d="M60 41V690Q60 710 79 720T125 731Q161 731 180 718T222 662L415 289V691Q415 711 434 721T480 731T526 721T545 691V41Q545 22 526 11T480 0Q427 0 405 41L190 443V41Q190 22 171 11T125 0Q98
0 79 11T60 41ZM124 878Q124 906 142 922T176 942T210 946Q240 946 283 932T352 917Q376 917 400 929T433 941Q450 941 458 926T466 899Q466 877 457 863T432 842T404 833T381 831Q346 831 304 845T239 860Q215 860 190 848T157 836Q140 836 132 851T124 878Z"
/>
<glyph unicode="&#xd2;" glyph-name="Ograve" horiz-adv-x="572" d="M52 223V502Q52 621 115 676T286 731T457 676T521 502V223Q521 104 457 49T286 -6T116 49T52 223ZM173 908Q173 926 185 941T213 957Q216 957 226 955L358 891Q375 882 375 860Q375 843 363
827T335 811Q331 811 321 815L191 878Q173 886 173 908ZM182 223Q182 108 286 108Q391 108 391 223V502Q391 617 286 617Q182 617 182 502V223Z" />
<glyph unicode="&#xd3;" glyph-name="Oacute" horiz-adv-x="572" d="M52 223V502Q52 621 115 676T286 731T457 676T521 502V223Q521 104 457 49T286 -6T116 49T52 223ZM182 223Q182 108 286 108Q391 108 391 223V502Q391 617 286 617Q182 617 182 502V223ZM220
860Q220 882 237 891L369 955Q379 957 382 957Q398 957 410 942T422 908Q422 886 404 878L274 815Q264 811 260 811Q244 811 232 827T220 860Z" />
<glyph unicode="&#xd4;" glyph-name="Ocircumflex" horiz-adv-x="572" d="M52 223V502Q52 621 115 676T286 731T457 676T521 502V223Q521 104 457 49T286 -6T116 49T52 223ZM143 859Q143 885 165 896L269 952Q277 957 286 957Q293 957 303 952L407 897Q428 884
428 858Q428 843 420 831T400 819Q394 819 390 822L286 878L182 822Q176 819 171 819Q159 819 151 831T143 859ZM182 223Q182 108 286 108Q391 108 391 223V502Q391 617 286 617Q182 617 182 502V223Z" />
<glyph unicode="&#xd5;" glyph-name="Otilde" horiz-adv-x="572" d="M52 223V502Q52 621 115 676T286 731T457 676T521 502V223Q521 104 457 49T286 -6T116 49T52 223ZM115 878Q115 906 133 922T167 942T201 946Q230 946 273 932T343 917Q367 917 391 929T424
941Q441 941 449 926T457 899Q457 877 448 863T423 842T395 833T372 831Q337 831 295 845T230 860Q206 860 181 848T148 836Q131 836 123 851T115 878ZM182 223Q182 108 286 108Q391 108 391 223V502Q391 617 286 617Q182 617 182 502V223Z" />
<glyph unicode="&#xd6;" glyph-name="Odieresis" horiz-adv-x="572" d="M52 223V502Q52 621 115 676T286 731T457 676T521 502V223Q521 104 457 49T286 -6T116 49T52 223ZM162 852T162 873T177 909T213 925T248 910T263 873T249 836T213 820T177 836ZM182 223Q182
108 286 108Q391 108 391 223V502Q391 617 286 617Q182 617 182 502V223ZM311 852T311 873T326 909T363 925Q383 925 398 910T413 873T398 836T363 820Q342 820 327 836Z" />
<glyph unicode="&#xd7;" glyph-name="multiply" horiz-adv-x="407" d="M42 174Q42 189 52 199L136 275L53 349Q43 361 43 375Q43 398 61 416T103 435Q117 435 129 425L203 350L278 425Q288 435 304 435Q326 435 345 417T364 376Q364 361 354 349L271 275L355 199Q365
189 365 173Q365 152 346 133T305 113Q289 113 279 123L203 199L128 123Q118 113 102 113Q82 113 62 132T42 174Z" />
<glyph unicode="&#xd8;" glyph-name="Oslash" horiz-adv-x="573" d="M52 223V502Q52 621 115 676T286 731Q356 731 406 708L427 750Q438 771 463 771Q482 771 497 758T513 726Q513 716 509 708L480 650Q521 593 521 502V223Q521 104 457 49T286 -6Q214 -6 167
16L150 -18Q139 -40 111 -40Q90 -40 77 -27T63 4Q63 13 68 21L94 73Q52 129 52 223ZM182 252L352 598Q327 617 286 617Q182 617 182 502V252ZM221 125Q245 108 286 108Q391 108 391 223V469L221 125Z" />
<glyph unicode="&#xd9;" glyph-name="Ugrave" horiz-adv-x="594" d="M57 223V691Q57 711 76 721T122 731T168 721T187 691V223Q187 108 297 108T407 223V691Q407 711 426 721T472 731T518 721T537 691V223Q537 105 472 50T297 -6T123 49T57 223ZM179 908Q179 926
191 941T219 957Q222 957 232 955L364 891Q381 882 381 860Q381 843 369 827T341 811Q337 811 327 815L197 878Q179 886 179 908Z" />
<glyph unicode="&#xda;" glyph-name="Uacute" horiz-adv-x="594" d="M57 223V691Q57 711 76 721T122 731T168 721T187 691V223Q187 108 297 108T407 223V691Q407 711 426 721T472 731T518 721T537 691V223Q537 105 472 50T297 -6T123 49T57 223ZM218 860Q218 882
235 891L367 955Q377 957 380 957Q396 957 408 942T420 908Q420 886 402 878L272 815Q262 811 258 811Q242 811 230 827T218 860Z" />
<glyph unicode="&#xdb;" glyph-name="Ucircumflex" horiz-adv-x="594" d="M57 223V691Q57 711 76 721T122 731T168 721T187 691V223Q187 108 297 108T407 223V691Q407 711 426 721T472 731T518 721T537 691V223Q537 105 472 50T297 -6T123 49T57 223ZM149 859Q149
885 171 896L275 952Q283 957 292 957Q299 957 309 952L413 897Q434 884 434 858Q434 843 426 831T406 819Q400 819 396 822L292 878L188 822Q182 819 177 819Q165 819 157 831T149 859Z" />
<glyph unicode="&#xdc;" glyph-name="Udieresis" horiz-adv-x="594" d="M57 223V691Q57 711 76 721T122 731T168 721T187 691V223Q187 108 297 108T407 223V691Q407 711 426 721T472 731T518 721T537 691V223Q537 105 472 50T297 -6T123 49T57 223ZM171 852T171
873T186 909T222 925T257 910T272 873T258 836T222 820T186 836ZM320 852T320 873T335 909T372 925Q392 925 407 910T422 873T407 836T372 820Q351 820 336 836Z" />
<glyph unicode="&#xdd;" glyph-name="Yacute" horiz-adv-x="574" d="M9 677Q9 699 37 715T95 731Q122 731 135 705L287 416L440 705Q454 731 479 731Q508 731 536 715T565 677Q565 669 562 664L356 306Q352 300 352 293V41Q352 22 333 11T287 0Q261 0 242 11T222
41V293Q222 302 219 306L12 664Q9 672 9 677ZM202 860Q202 882 219 891L351 955Q361 957 364 957Q380 957 392 942T404 908Q404 886 386 878L256 815Q246 811 242 811Q226 811 214 827T202 860Z" />
<glyph unicode="&#xde;" glyph-name="Thorn" horiz-adv-x="520" d="M61 41V704Q61 722 78 733T122 744Q152 744 171 733T190 704V546Q207 578 241 600T319 622Q392 622 444 566T496 426V330Q496 250 444 191T324 132Q280 132 242 155T190 211V41Q190 26 170 13T124
0Q97 0 79 12T61 41ZM190 319Q190 297 217 271T280 245Q314 245 340 270T367 330V426Q367 460 341 484T278 509Q243 509 217 486T190 426V319Z" />
<glyph unicode="&#xdf;" glyph-name="germandbls" horiz-adv-x="600" d="M3 409T3 428T11 461T36 475H92V567Q92 655 139 711T287 768Q374 768 429 721T484 584Q484 532 466 488T416 427Q475 416 523 359T572 223V210Q572 102 509 41T352 -20Q331 -20 317 -19T287
-12T262 7T253 40Q253 61 261 81T284 101Q289 101 310 95T351 89Q396 89 421 118T446 199V212Q446 331 325 359Q304 365 295 375T285 412Q285 430 290 439T303 452T326 460Q378 470 378 554Q378 655 297 655Q221 655 221 567V40Q221 22 202 11T155 0T110 11T92
40V381H36Q20 381 12 395Z" />
<glyph unicode="&#xe0;" glyph-name="agrave" horiz-adv-x="471" d="M22 124Q22 205 82 238T255 271H296V284Q296 321 275 348T208 376T131 361T94 345Q74 345 62 365T50 409Q50 438 101 459T210 481Q319 481 372 426T425 286V41Q425 24 407 12T362 0Q337 0 321
12T304 41V70Q235 -9 152 -9Q95 -9 59 25T22 124ZM126 665Q126 683 138 698T166 714Q169 714 179 712L311 648Q328 640 328 617Q328 600 316 584T288 568Q284 568 274 572L144 635Q126 643 126 665ZM151 141Q151 114 165 101T204 87Q236 87 266 117T296 183V204H281Q220
204 186 192T151 141Z" />
<glyph unicode="&#xe1;" glyph-name="aacute" horiz-adv-x="471" d="M22 124Q22 205 82 238T255 271H296V284Q296 321 275 348T208 376T131 361T94 345Q74 345 62 365T50 409Q50 438 101 459T210 481Q319 481 372 426T425 286V41Q425 24 407 12T362 0Q337 0 321
12T304 41V70Q235 -9 152 -9Q95 -9 59 25T22 124ZM142 617Q142 640 159 648L291 712Q301 714 304 714Q320 714 332 699T344 665Q344 643 326 635L196 572Q186 568 182 568Q166 568 154 584T142 617ZM151 141Q151 114 165 101T204 87Q236 87 266 117T296 183V204H281Q220
204 186 192T151 141Z" />
<glyph unicode="&#xe2;" glyph-name="acircumflex" horiz-adv-x="471" d="M22 124Q22 205 82 238T255 271H296V284Q296 321 275 348T208 376T131 361T94 345Q74 345 62 365T50 409Q50 438 101 459T210 481Q319 481 372 426T425 286V41Q425 24 407 12T362 0Q337
0 321 12T304 41V70Q235 -9 152 -9Q95 -9 59 25T22 124ZM78 616Q78 642 100 653L204 709Q212 714 221 714Q228 714 238 709L342 654Q363 641 363 615Q363 600 355 588T335 576Q330 576 325 579L221 635L117 579Q111 576 106 576Q94 576 86 588T78 616ZM151 141Q151
114 165 101T204 87Q236 87 266 117T296 183V204H281Q220 204 186 192T151 141Z" />
<glyph unicode="&#xe3;" glyph-name="atilde" horiz-adv-x="471" d="M22 124Q22 205 82 238T255 271H296V284Q296 321 275 348T208 376T131 361T94 345Q74 345 62 365T50 409Q50 438 101 459T210 481Q319 481 372 426T425 286V41Q425 24 407 12T362 0Q337 0 321
12T304 41V70Q235 -9 152 -9Q95 -9 59 25T22 124ZM56 635Q56 663 74 679T108 699T142 703Q172 703 215 689T284 674Q308 674 332 686T365 698Q382 698 390 683T398 656Q398 634 389 620T364 599T336 590T313 588Q278 588 236 602T171 617Q147 617 122 605T89 593Q72
593 64 608T56 635ZM151 141Q151 114 165 101T204 87Q236 87 266 117T296 183V204H281Q220 204 186 192T151 141Z" />
<glyph unicode="&#xe4;" glyph-name="adieresis" horiz-adv-x="471" d="M22 124Q22 205 82 238T255 271H296V284Q296 321 275 348T208 376T131 361T94 345Q74 345 62 365T50 409Q50 438 101 459T210 481Q319 481 372 426T425 286V41Q425 24 407 12T362 0Q337 0
321 12T304 41V70Q235 -9 152 -9Q95 -9 59 25T22 124ZM100 609T100 630T115 666T151 682T186 667T201 630T187 593T151 577T115 593ZM151 141Q151 114 165 101T204 87Q236 87 266 117T296 183V204H281Q220 204 186 192T151 141ZM249 609T249 630T264 666T301 682Q321
682 336 667T351 630T336 593T301 577Q280 577 265 593Z" />
<glyph unicode="&#xe5;" glyph-name="aring" horiz-adv-x="471" d="M22 124Q22 205 82 238T255 271H296V284Q296 321 275 348T208 376T131 361T94 345Q74 345 62 365T50 409Q50 438 101 459T210 481Q319 481 372 426T425 286V41Q425 24 407 12T362 0Q337 0 321
12T304 41V70Q235 -9 152 -9Q95 -9 59 25T22 124ZM130 670Q130 709 158 739T227 769T296 739T326 670Q326 630 296 600T227 569T159 599T130 670ZM151 141Q151 114 165 101T204 87Q236 87 266 117T296 183V204H281Q220 204 186 192T151 141ZM181 669Q181 651 195
636T228 621Q246 621 259 635T272 669Q272 687 259 700T228 714Q209 714 195 700T181 669Z" />
<glyph unicode="&#xe6;" glyph-name="ae" horiz-adv-x="748" d="M22 123Q22 205 82 238T255 271H295V285Q295 322 274 349T207 377T131 361T94 345Q74 345 62 365T49 410Q49 439 101 460T210 481Q315 481 366 403Q427 481 514 481Q598 481 659 429T721 290Q721
261 714 243T693 217T664 207T627 204H425V189Q425 146 457 120T541 93Q578 93 616 112T665 131Q686 131 699 112T713 74Q713 45 661 18T535 -9Q415 -9 350 87Q315 42 269 17T175 -9Q109 -9 66 25T22 123ZM151 140Q151 114 165 101T204 87Q236 87 265 117T295 183V204H280Q241
204 216 201T171 182T151 140ZM425 280H571Q588 280 594 285T600 306Q600 341 575 363T512 386Q476 386 451 365T425 308V280Z" />
<glyph unicode="&#xe7;" glyph-name="ccedilla" horiz-adv-x="434" d="M34 196V276Q34 368 88 424T250 481Q318 481 364 457T410 403Q410 382 395 361T359 340Q353 340 324 354T260 368Q163 368 163 276V196Q163 104 261 104Q295 104 324 119T361 134Q385 134
400 114T416 73Q416 45 376 21T275 -8L262 -51Q311 -53 336 -74T361 -128Q361 -161 336 -188T256 -216Q226 -216 199 -209T171 -187Q171 -178 177 -164T194 -150Q197 -150 215 -157T252 -164Q299 -164 299 -131T251 -94L196 -89L219 -7Q127 1 81 55T34 196Z" />
<glyph unicode="&#xe8;" glyph-name="egrave" horiz-adv-x="484" d="M32 196V281Q32 363 96 422T251 481Q336 481 396 428T457 293Q457 263 450 244T427 216T398 206T364 204H161V189Q161 146 193 120T278 93Q316 93 353 112T401 131Q422 131 436 112T450 74Q450
46 400 19T274 -9Q167 -9 100 47T32 196ZM135 665Q135 683 147 698T175 714Q178 714 188 712L320 648Q337 640 337 617Q337 600 325 584T297 568Q293 568 283 572L153 635Q135 643 135 665ZM161 280H307Q323 280 329 285T336 307Q336 342 311 364T248 386Q213 386
187 365T161 308V280Z" />
<glyph unicode="&#xe9;" glyph-name="eacute" horiz-adv-x="484" d="M32 196V281Q32 363 96 422T251 481Q336 481 396 428T457 293Q457 263 450 244T427 216T398 206T364 204H161V189Q161 146 193 120T278 93Q316 93 353 112T401 131Q422 131 436 112T450 74Q450
46 400 19T274 -9Q167 -9 100 47T32 196ZM151 617Q151 640 168 648L300 712Q310 714 313 714Q329 714 341 699T353 665Q353 643 335 635L205 572Q195 568 191 568Q175 568 163 584T151 617ZM161 280H307Q323 280 329 285T336 307Q336 342 311 364T248 386Q213 386
187 365T161 308V280Z" />
<glyph unicode="&#xea;" glyph-name="ecircumflex" horiz-adv-x="484" d="M32 196V281Q32 363 96 422T251 481Q336 481 396 428T457 293Q457 263 450 244T427 216T398 206T364 204H161V189Q161 146 193 120T278 93Q316 93 353 112T401 131Q422 131 436 112T450
74Q450 46 400 19T274 -9Q167 -9 100 47T32 196ZM106 616Q106 642 128 653L232 709Q240 714 249 714Q256 714 266 709L370 654Q391 641 391 615Q391 600 383 588T363 576Q358 576 353 579L249 635L145 579Q139 576 134 576Q122 576 114 588T106 616ZM161 280H307Q323
280 329 285T336 307Q336 342 311 364T248 386Q213 386 187 365T161 308V280Z" />
<glyph unicode="&#xeb;" glyph-name="edieresis" horiz-adv-x="484" d="M32 196V281Q32 363 96 422T251 481Q336 481 396 428T457 293Q457 263 450 244T427 216T398 206T364 204H161V189Q161 146 193 120T278 93Q316 93 353 112T401 131Q422 131 436 112T450 74Q450
46 400 19T274 -9Q167 -9 100 47T32 196ZM122 609T122 630T137 666T173 682T208 667T223 630T209 593T173 577T137 593ZM161 280H307Q323 280 329 285T336 307Q336 342 311 364T248 386Q213 386 187 365T161 308V280ZM271 609T271 630T286 666T323 682Q343 682
358 667T373 630T358 593T323 577Q302 577 287 593Z" />
<glyph unicode="&#xec;" glyph-name="igrave" horiz-adv-x="229" d="M-2 665Q-2 683 10 698T38 714Q41 714 51 712L183 648Q200 640 200 617Q200 600 188 584T160 568Q156 568 146 572L16 635Q-2 643 -2 665ZM50 41V435Q50 453 68 464T114 475T160 464T179 435V41Q179
26 160 13T114 0Q87 0 69 12T50 41Z" />
<glyph unicode="&#xed;" glyph-name="iacute" horiz-adv-x="229" d="M30 617Q30 640 47 648L179 712Q189 714 192 714Q208 714 220 699T232 665Q232 643 214 635L84 572Q74 568 70 568Q54 568 42 584T30 617ZM50 41V435Q50 453 68 464T114 475T160 464T179 435V41Q179
26 160 13T114 0Q87 0 69 12T50 41Z" />
<glyph unicode="&#xee;" glyph-name="icircumflex" horiz-adv-x="229" d="M-28 616Q-28 642 -6 653L98 709Q106 714 115 714Q122 714 132 709L236 654Q257 641 257 615Q257 600 249 588T229 576Q224 576 219 579L115 635L11 579Q5 576 0 576Q-12 576 -20 588T-28
616ZM50 41V435Q50 453 68 464T114 475T160 464T179 435V41Q179 26 160 13T114 0Q87 0 69 12T50 41Z" />
<glyph unicode="&#xef;" glyph-name="idieresis" horiz-adv-x="229" d="M-8 609T-8 630T7 666T43 682T78 667T93 630T79 593T43 577T7 593ZM50 41V435Q50 453 68 464T114 475T160 464T179 435V41Q179 26 160 13T114 0Q87 0 69 12T50 41ZM141 609T141 630T156 666T193
682Q213 682 228 667T243 630T228 593T193 577Q172 577 157 593Z" />
<glyph unicode="&#xf0;" glyph-name="eth" horiz-adv-x="512" d="M32 196V278Q32 361 84 421T209 481Q252 481 287 459T339 403Q336 485 294 557L241 526Q236 522 228 522Q212 522 197 539T182 574Q182 590 197 599L243 626Q228 642 206 646Q179 669 179 691Q179
712 195 732T243 753Q302 753 354 693L410 727Q416 730 423 730Q439 730 453 714T467 680T453 654L400 622Q468 492 468 348V196Q468 115 403 53T250 -9T98 53T32 196ZM161 196Q161 160 187 132T250 104Q287 104 313 132T339 196V279Q339 317 312 342T249 368Q212
368 187 341T161 278V196Z" />
<glyph unicode="&#xf1;" glyph-name="ntilde" horiz-adv-x="523" d="M50 41V435Q50 453 67 464T114 475Q138 475 154 464T171 435V405Q187 437 222 459T305 481Q374 481 425 421T477 278V41Q477 22 458 11T412 0Q387 0 368 11T348 41V278Q348 313 322 340T261
368Q228 368 204 343T179 278V41Q179 26 160 13T114 0Q87 0 69 12T50 41ZM89 635Q89 663 107 679T141 699T175 703Q204 703 247 689T317 674Q341 674 365 686T398 698Q415 698 423 683T431 656Q431 634 422 620T397 599T369 590T346 588Q311 588 269 602T204 617Q180
617 155 605T122 593Q105 593 97 608T89 635Z" />
<glyph unicode="&#xf2;" glyph-name="ograve" horiz-adv-x="498" d="M32 196V278Q32 360 96 420T249 481Q336 481 401 421T466 278V196Q466 115 401 53T249 -9T97 53T32 196ZM136 665Q136 683 148 698T176 714Q179 714 189 712L321 648Q338 640 338 617Q338 600
326 584T298 568Q294 568 284 572L154 635Q136 643 136 665ZM161 196Q161 160 187 132T249 104Q284 104 310 132T337 196V278Q337 312 311 340T249 368Q213 368 187 341T161 278V196Z" />
<glyph unicode="&#xf3;" glyph-name="oacute" horiz-adv-x="498" d="M32 196V278Q32 360 96 420T249 481Q336 481 401 421T466 278V196Q466 115 401 53T249 -9T97 53T32 196ZM151 617Q151 640 168 648L300 712Q310 714 313 714Q329 714 341 699T353 665Q353 643
335 635L205 572Q195 568 191 568Q175 568 163 584T151 617ZM161 196Q161 160 187 132T249 104Q284 104 310 132T337 196V278Q337 312 311 340T249 368Q213 368 187 341T161 278V196Z" />
<glyph unicode="&#xf4;" glyph-name="ocircumflex" horiz-adv-x="498" d="M32 196V278Q32 360 96 420T249 481Q336 481 401 421T466 278V196Q466 115 401 53T249 -9T97 53T32 196ZM106 616Q106 642 128 653L232 709Q240 714 249 714Q256 714 266 709L370 654Q391
641 391 615Q391 600 383 588T363 576Q358 576 353 579L249 635L145 579Q139 576 134 576Q122 576 114 588T106 616ZM161 196Q161 160 187 132T249 104Q284 104 310 132T337 196V278Q337 312 311 340T249 368Q213 368 187 341T161 278V196Z" />
<glyph unicode="&#xf5;" glyph-name="otilde" horiz-adv-x="498" d="M32 196V278Q32 360 96 420T249 481Q336 481 401 421T466 278V196Q466 115 401 53T249 -9T97 53T32 196ZM79 635Q79 663 97 679T131 699T165 703Q194 703 237 689T307 674Q331 674 355 686T388
698Q405 698 413 683T421 656Q421 634 412 620T387 599T359 590T336 588Q301 588 259 602T194 617Q170 617 145 605T112 593Q95 593 87 608T79 635ZM161 196Q161 160 187 132T249 104Q284 104 310 132T337 196V278Q337 312 311 340T249 368Q213 368 187 341T161
278V196Z" />
<glyph unicode="&#xf6;" glyph-name="odieresis" horiz-adv-x="498" d="M32 196V278Q32 360 96 420T249 481Q336 481 401 421T466 278V196Q466 115 401 53T249 -9T97 53T32 196ZM124 609T124 630T139 666T175 682T210 667T225 630T211 593T175 577T139 593ZM161
196Q161 160 187 132T249 104Q284 104 310 132T337 196V278Q337 312 311 340T249 368Q213 368 187 341T161 278V196ZM273 609T273 630T288 666T325 682Q345 682 360 667T375 630T360 593T325 577Q304 577 289 593Z" />
<glyph unicode="&#xf7;" glyph-name="divide" horiz-adv-x="446" d="M22 216T22 238T34 274T64 289H381Q398 289 411 274T424 238Q424 216 411 203T381 189H64Q46 189 34 202ZM158 69Q158 94 176 111T220 128Q243 128 262 111T281 69Q281 45 262 28T220 10Q195
10 177 27T158 69ZM158 385T158 409T176 450T220 468Q243 468 262 451T281 409T262 368T220 350Q195 350 177 367Z" />
<glyph unicode="&#xf8;" glyph-name="oslash" horiz-adv-x="498" d="M32 196V278Q32 360 96 420T249 481Q311 481 362 450L396 498Q404 510 416 510T437 501T446 481Q446 472 439 462L406 416Q466 356 466 278V196Q466 115 401 53T249 -9Q184 -9 129 27L94 -23Q88
-32 77 -32Q67 -32 58 -24T49 -5Q49 1 55 11L89 60Q32 120 32 196ZM161 196Q161 180 165 168L295 353Q272 368 249 368Q213 368 187 341T161 278V196ZM197 122Q222 104 249 104Q284 104 310 132T337 196V278Q337 292 330 309L197 122Z" />
<glyph unicode="&#xf9;" glyph-name="ugrave" horiz-adv-x="524" d="M45 194V434Q45 449 64 462T110 475Q135 475 154 462T174 434V194Q174 159 200 132T262 104T323 131T349 194V435Q349 451 368 463T414 475Q442 475 460 463T478 435V194Q478 113 414 52T262
-9T110 52T45 194ZM148 665Q148 683 160 698T188 714Q191 714 201 712L333 648Q350 640 350 617Q350 600 338 584T310 568Q306 568 296 572L166 635Q148 643 148 665Z" />
<glyph unicode="&#xfa;" glyph-name="uacute" horiz-adv-x="524" d="M45 194V434Q45 449 64 462T110 475Q135 475 154 462T174 434V194Q174 159 200 132T262 104T323 131T349 194V435Q349 451 368 463T414 475Q442 475 460 463T478 435V194Q478 113 414 52T262
-9T110 52T45 194ZM172 617Q172 640 189 648L321 712Q331 714 334 714Q350 714 362 699T374 665Q374 643 356 635L226 572Q216 568 212 568Q196 568 184 584T172 617Z" />
<glyph unicode="&#xfb;" glyph-name="ucircumflex" horiz-adv-x="524" d="M45 194V434Q45 449 64 462T110 475Q135 475 154 462T174 434V194Q174 159 200 132T262 104T323 131T349 194V435Q349 451 368 463T414 475Q442 475 460 463T478 435V194Q478 113 414 52T262
-9T110 52T45 194ZM120 616Q120 642 142 653L246 709Q254 714 263 714Q270 714 280 709L384 654Q405 641 405 615Q405 600 397 588T377 576Q372 576 367 579L263 635L159 579Q153 576 148 576Q136 576 128 588T120 616Z" />
<glyph unicode="&#xfc;" glyph-name="udieresis" horiz-adv-x="524" d="M45 194V434Q45 449 64 462T110 475Q135 475 154 462T174 434V194Q174 159 200 132T262 104T323 131T349 194V435Q349 451 368 463T414 475Q442 475 460 463T478 435V194Q478 113 414 52T262
-9T110 52T45 194ZM137 609T137 630T152 666T188 682T223 667T238 630T224 593T188 577T152 593ZM286 609T286 630T301 666T338 682Q358 682 373 667T388 630T373 593T338 577Q317 577 302 593Z" />
<glyph unicode="&#xfd;" glyph-name="yacute" horiz-adv-x="476" d="M6 -166Q6 -112 39 -112Q86 -112 131 -78T182 35L10 403Q6 413 6 420Q6 444 35 463T92 482Q122 482 129 460L249 161L346 460Q353 482 380 482Q406 482 437 463T468 418Q468 410 465 403L319
30L302 -14Q290 -48 285 -61T266 -101T242 -141T212 -172T174 -199T126 -214T65 -221Q36 -221 21 -210T6 -166ZM176 617Q176 640 193 648L325 712Q335 714 338 714Q354 714 366 699T378 665Q378 643 360 635L230 572Q220 568 216 568Q200 568 188 584T176 617Z"
/>
<glyph unicode="&#xfe;" glyph-name="thorn" horiz-adv-x="520" d="M52 -180V712Q52 730 69 741T113 752Q143 752 162 741T181 712V405Q198 437 232 459T308 481Q383 481 435 422T487 278V196Q487 115 434 53T312 -9Q269 -9 233 14T181 70V-180Q181 -196 162 -208T115
-221T70 -209T52 -180ZM181 178Q181 158 208 131T269 104Q304 104 331 132T358 196V278Q358 313 331 340T267 368Q233 368 207 343T181 278V178Z" />
<glyph unicode="&#xff;" glyph-name="ydieresis" horiz-adv-x="476" d="M6 -166Q6 -112 39 -112Q86 -112 131 -78T182 35L10 403Q6 413 6 420Q6 444 35 463T92 482Q122 482 129 460L249 161L346 460Q353 482 380 482Q406 482 437 463T468 418Q468 410 465 403L319
30L302 -14Q290 -48 285 -61T266 -101T242 -141T212 -172T174 -199T126 -214T65 -221Q36 -221 21 -210T6 -166ZM123 609T123 630T138 666T174 682T209 667T224 630T210 593T174 577T138 593ZM272 609T272 630T287 666T324 682Q344 682 359 667T374 630T359 593T324
577Q303 577 288 593Z" />
<glyph unicode="&#x2013;" glyph-name="endash" horiz-adv-x="473" d="M36 240Q36 263 47 278T76 294H396Q412 294 425 278T438 240Q438 217 426 202T396 187H76Q58 187 47 201T36 240Z" />
<glyph unicode="&#x2014;" glyph-name="emdash" horiz-adv-x="754" d="M36 240Q36 263 47 278T76 294H677Q693 294 705 278T718 240Q718 217 706 202T677 187H76Q58 187 47 201T36 240Z" />
<glyph unicode="&#x2018;" glyph-name="quoteleft" horiz-adv-x="184" d="M22 578Q22 596 78 725Q85 741 104 741Q119 741 133 732T147 707Q147 702 144 693L120 640Q157 620 157 579Q157 551 138 531T90 511T42 531T22 578Z" />
<glyph unicode="&#x2019;" glyph-name="quoteright" horiz-adv-x="183" d="M28 673Q28 701 47 721T95 741T143 721T163 674Q163 656 107 527Q100 511 81 511Q66 511 52 520T38 545Q38 552 42 559L65 612Q28 632 28 673Z" />
<glyph unicode="&#x201a;" glyph-name="quotesinglbase" horiz-adv-x="193" d="M29 62Q29 90 48 110T96 130T144 110T164 63Q164 45 108 -83Q101 -100 82 -100Q66 -100 53 -91T39 -66Q39 -60 42 -52L66 1Q29 21 29 62Z" />
<glyph unicode="&#x201c;" glyph-name="quotedblleft" horiz-adv-x="370" d="M22 578Q22 596 78 725Q85 741 104 741Q120 741 133 732T147 707Q147 702 144 693L120 640Q157 620 157 579Q157 551 138 531T90 511T42 531T22 578ZM208 578Q208 596 264 725Q271 741
290 741Q305 741 319 732T333 707Q333 701 329 693L306 640Q343 620 343 579Q343 551 324 531T276 511T228 531T208 578Z" />
<glyph unicode="&#x201d;" glyph-name="quotedblright" horiz-adv-x="369" d="M28 673Q28 701 47 721T95 741T143 721T163 674Q163 656 107 527Q100 511 81 511Q66 511 52 520T38 545Q38 552 42 559L65 612Q28 632 28 673ZM214 673Q214 701 233 721T281 741T329
721T349 674Q349 656 293 527Q286 511 267 511Q251 511 238 520T224 545Q224 552 227 559L251 612Q214 632 214 673Z" />
<glyph unicode="&#x201e;" glyph-name="quotedblbase" horiz-adv-x="379" d="M29 62Q29 90 48 110T96 130T144 110T164 63Q164 45 108 -83Q101 -100 82 -100Q66 -100 53 -91T39 -66Q39 -60 42 -52L66 1Q29 21 29 62ZM214 62Q214 90 234 110T282 130T330 110T350
63Q350 45 294 -83Q286 -100 267 -100Q252 -100 239 -91T225 -66Q225 -57 228 -52L252 1Q214 21 214 62Z" />
<glyph unicode="&#x2022;" glyph-name="bullet" horiz-adv-x="329" d="M33 300Q33 350 72 388T165 426Q217 426 256 388T296 300Q296 249 257 211T165 173T73 211T33 300Z" />
<glyph unicode="&#x2039;" glyph-name="guilsinglleft" horiz-adv-x="272" d="M24 269T24 276T26 289T36 308L47 327L120 463Q129 480 157 480Q187 480 212 458T237 415Q237 408 234 403L167 277L234 152Q237 146 237 139Q237 117 212 96T156 74Q129 74 120 91L47
227Q43 235 36 246T27 263Z" />
<glyph unicode="&#x203a;" glyph-name="guilsinglright" horiz-adv-x="272" d="M35 139Q35 146 38 152L105 277L38 403Q35 408 35 415Q35 437 59 458T115 480Q143 480 151 463L225 327L236 308Q243 296 245 290T248 276T246 263T236 246T225 227L151 91Q143 74
115 74Q84 74 60 95T35 139Z" />
</font>
</defs>
</svg>
