<?xml version="1.0" standalone="no"?>
<!DOCTYPE svg PUBLIC "-//W3C//DTD SVG 1.1//EN" "http://www.w3.org/Graphics/SVG/1.1/DTD/svg11.dtd">
<svg xmlns="http://www.w3.org/2000/svg">
<defs >
<font id="RugeBoogie" horiz-adv-x="294" ><font-face
    font-family="Ruge Boogie"
    units-per-em="1000"
    panose-1="2 0 5 6 2 0 0 2 0 3"
    ascent="875"
    descent="-375"
    alphabetic="0" />
<glyph unicode=" " glyph-name="space" horiz-adv-x="245" />
<glyph unicode="!" glyph-name="exclam" horiz-adv-x="262" d="M184 646L179 683Q179 700 189 706T207 713Q236 713 237 685Q242 647 242 639T240 615T232 578T226 549T221 534T216 517T207 478T197 431T186 366T175 292Q175 240 199 240Q209 240 213 232T214
216T199 208Q152 208 152 292Q157 350 158 396Q160 486 168 531Q168 535 168 542T168 558T176 597T184 646ZM174 -17Q141 -17 123 9T105 72Q105 90 124 112T166 134T202 110Q209 98 209 87T204 66T174 47Q164 44 161 52T168 65T179 86T165 103Q157 103 152 91T146
69Q146 29 178 28Q186 28 196 36T210 53T218 46L221 28Q219 12 206 -2T176 -17Q175 -17 174 -17Z" />
<glyph unicode="&quot;" glyph-name="quotedbl" horiz-adv-x="268" d="M262 595Q262 578 240 536T203 475Q199 470 194 472Q181 475 188 486Q198 499 215 540T233 595T223 630T200 651Q192 651 183 643T174 629T182 612T193 600H198Q198 601 196 611T197 623T208
619H209Q222 610 222 598T214 578T190 569T158 588T142 623T163 659T200 680Q237 680 249 658T262 595ZM75 590L74 601Q72 607 75 611T84 614T90 610T94 601T97 590T88 573T73 561T53 566T35 579T31 614Q31 619 40 637T53 660Q64 676 84 676Q124 675 124 590Q123
531 90 477Q86 473 82 461Q78 452 70 452T57 459T55 475T80 514Q105 551 105 576V591Q105 631 98 644T83 657Q64 657 55 624Q59 615 59 613T63 601T71 590H75Z" />
<glyph unicode="#" glyph-name="numbersign" horiz-adv-x="461" d="M467 622Q469 619 469 616T467 609T458 604T448 609Q426 641 369 641Q366 641 362 641Q348 597 342 573Q357 573 366 575Q385 575 409 567T439 558Q448 555 450 547T446 532T433 527T410 529Q346
529 328 526Q306 454 298 430T289 396T283 383T274 383T269 392Q274 456 277 471T291 523Q237 515 180 497Q168 450 161 429T151 394Q148 375 128 375Q120 375 111 381T104 402Q115 468 120 478Q118 477 105 474T89 469T75 465T60 459T46 453T31 444Q16 434 7 425T-9
419T-17 428T-13 441L-15 442Q41 498 116 525L136 532Q146 561 157 588Q135 577 78 548T3 510T-19 504T-23 513T-18 522Q18 538 82 574T174 623Q197 671 223 685Q231 690 238 686T246 673T240 660T227 645Q288 670 343 671Q359 707 388 758Q391 765 397 765T406
760T407 749Q384 704 371 671Q437 666 467 622ZM329 641Q276 636 211 612Q198 576 192 549Q251 565 306 571L329 641Z" />
<glyph unicode="$" glyph-name="dollar" horiz-adv-x="412" d="M380 368Q380 279 304 193Q314 162 314 138T309 99Q303 84 293 84Q286 84 282 89T281 105T285 131T279 168Q209 105 136 105Q85 105 56 151T27 247T41 330T90 364T143 346T162 303T151 243Q144 225
129 225Q117 227 114 254Q113 262 121 264T132 259Q136 276 136 289Q136 335 88 336Q66 336 62 310Q58 292 58 252T79 179T136 146Q204 146 265 209Q261 218 243 254Q212 317 176 468Q138 479 127 484Q56 517 56 574T156 682V685Q159 723 179 758T228 804Q230 805
233 805T239 802T243 794T236 786V785Q200 771 192 698Q226 712 253 712T302 689T332 631Q335 613 318 610T296 623T279 652T243 663T187 645Q187 584 203 510Q215 507 233 503T255 498Q311 485 345 453T380 368ZM336 368Q336 418 286 440Q258 451 213 461Q220
432 234 382T253 314T286 234Q334 302 336 368ZM152 626Q116 601 103 576Q103 541 165 521Q153 580 152 626Z" />
<glyph unicode="%" glyph-name="percent" horiz-adv-x="484" d="M210 557T187 523T127 489T69 507T46 560T68 612T106 629T133 626T146 612T142 594T121 590T96 585T84 559T96 532T128 521T166 538Q198 568 198 616Q198 638 188 644Q183 649 161 653T136 659Q130
660 129 665T130 673T139 676T157 672T173 669T187 666T198 661T207 653T214 641T216 624T215 601Q210 557 187 523ZM158 115Q143 84 130 30T116 -43T123 -77T117 -92Q98 -92 82 -72Q79 -69 78 -67T70 -54Q62 -41 62 -16T71 45T91 109T126 183T159 250Q215 374
292 484T485 738Q492 745 497 745Q518 745 518 728Q518 722 514 715V713Q336 493 158 115ZM360 110Q361 104 361 90T346 52T300 29T255 43T241 89T252 134T276 158T293 167T302 164T308 154T301 140V141Q283 127 277 119T270 90T276 60T300 50Q340 50 340 80Q340
96 328 125T319 154T332 151Q356 140 360 110Z" />
<glyph unicode="&amp;" glyph-name="ampersand" horiz-adv-x="529" d="M309 272Q212 248 212 203Q212 195 227 195H264Q279 195 284 183T284 160T262 149H226Q201 149 183 162T165 208T188 261T240 291T292 304T325 311T351 319T378 328T400 338Q425 349 439 365Q485
419 486 457Q486 473 474 485T445 498Q444 498 443 498Q423 498 411 484T398 461T398 447T396 441T388 440Q383 441 383 457T400 493T442 513T484 497T501 457Q501 400 456 352Q421 311 335 281Q358 258 358 213Q358 182 346 168Q339 158 335 151T319 125T303 100T288
81T268 62Q244 46 218 46Q154 46 111 81T67 185T112 325Q77 340 57 379T36 468T71 567T158 636T247 656T319 629T353 562T316 485T245 448T190 464T170 510T191 561T240 582T277 569T287 546Q287 515 255 505Q247 503 246 510T251 520Q267 524 266 542T243 561T205
546T189 510T204 478T245 467T299 498T328 560T302 611T251 631T176 614T98 553T69 466T87 393T134 355Q194 423 268 423Q285 423 296 411T308 380Q308 351 249 335T151 318L148 317Q109 256 109 181Q109 134 140 109T218 83Q280 83 329 169Q342 191 342 214Q342
251 319 253Q309 254 309 272Z" />
<glyph unicode="&apos;" glyph-name="quotesingle" horiz-adv-x="133" d="M132 512L136 485Q136 420 77 343Q75 340 73 340T68 340T64 344T64 352Q83 377 96 415T109 486L105 507Q105 539 90 542Q61 549 46 508Q45 504 45 494Q45 479 61 479T77 487T73 499T69
508T74 513T80 513T85 509T89 506Q97 498 97 485T86 465T61 457T37 468T27 488T33 520T62 554Q73 560 84 560T106 554Q127 542 132 512Z" />
<glyph unicode="(" glyph-name="parenleft" horiz-adv-x="318" d="M56 216L55 252Q55 262 56 263Q61 391 107 483T252 648Q283 671 313 671T360 654T376 617T371 584T359 566T344 550T328 542T321 549T322 559T329 567T335 574T341 580T346 587T350 594Q353 603
353 615T343 637T317 647T284 638T247 611T218 586Q145 529 128 412Q114 319 114 218Q126 121 163 33T256 -91Q271 -99 271 -116T261 -139T244 -145T227 -141Q151 -95 104 11T56 212V216Z" />
<glyph unicode=")" glyph-name="parenright" horiz-adv-x="302" d="M239 541Q271 428 271 324T262 146Q250 46 187 -67Q170 -100 141 -126T80 -152Q59 -152 45 -138T29 -123Q16 -113 28 -109T50 -112T73 -119T93 -117T105 -109T115 -100T125 -87T134 -74Q146 -51
148 -47Q213 72 213 299Q213 417 183 526Q166 592 158 611T142 640Q120 661 88 661Q74 661 56 646Q-3 596 -3 620Q-3 625 1 629V631Q11 638 26 653Q60 685 88 685Q198 685 239 541Z" />
<glyph unicode="*" glyph-name="asterisk" horiz-adv-x="536" d="M446 664T446 657T438 644Q394 621 343 562Q337 555 329 559T318 571T320 587Q358 631 424 669Q432 673 439 669ZM304 719H305Q305 654 300 595Q300 586 291 583T272 583T264 601T271 654T276 710T281
730T290 733L297 732Q304 728 304 719ZM514 490Q514 473 497 475Q473 480 326 501Q311 503 317 519T337 534Q381 528 503 503Q514 500 514 490ZM295 540T295 532T290 518T276 512T262 518T256 532T262 546T276 552T289 546ZM144 644Q135 655 142 661T155 667T166
662L239 589Q245 583 241 574T229 561T214 563L144 644ZM352 363Q352 350 338 350Q328 350 324 361L288 470Q285 478 293 483T311 487T324 477Q352 365 352 363ZM192 480T134 470T64 457T48 458T43 467Q43 480 54 483Q176 512 213 528Q216 529 219 529Q228 529
234 515T228 495Q192 480 134 470ZM213 408T198 393T176 366T164 354Q147 354 147 367Q147 385 212 444Q233 463 240 471T253 479L263 474Q268 469 268 464T261 452T233 426Z" />
<glyph unicode="+" glyph-name="plus" horiz-adv-x="451" d="M249 297L277 294Q330 294 342 301T358 300Q360 297 360 294T354 288Q314 261 276 261L249 263Q244 263 234 261Q233 244 231 218Q228 178 229 155Q233 137 233 124T226 111Q222 111 217 113Q196 120
194 142Q194 161 195 172V173L200 261L143 269Q124 269 109 258T86 258Q82 263 82 268T87 277T100 288T112 298Q126 309 139 309T169 303T193 297L200 296Q201 309 201 396Q201 412 211 414Q211 433 219 433Q230 433 235 376Q236 364 236 351T235 317T234 295Q244
297 249 297Z" />
<glyph unicode="," glyph-name="comma" horiz-adv-x="258" d="M79 -157Q71 -157 71 -149Q71 -145 76 -143Q109 -128 148 -72T188 22T174 77T151 96Q128 96 111 79T93 40Q93 22 102 9Q117 -12 136 1T155 28Q155 34 146 34Q125 25 126 38Q127 43 135 46T149 49T163
43T170 27Q170 -4 140 -20Q130 -25 123 -25Q98 -25 80 -5T62 41T91 92T152 119Q162 119 175 111T194 95Q228 46 228 19Q228 -20 175 -79T82 -156Q80 -157 79 -157Z" />
<glyph unicode="-" glyph-name="hyphen" horiz-adv-x="304" d="M197 239L225 236Q278 236 290 243T306 242Q308 239 308 236T302 230Q262 203 224 203L197 205L170 203Q133 203 119 207T89 211T60 203T43 194T34 199T30 210T35 219T48 230T60 240Q74 251 87 251T117
245T141 239L170 236L197 239Z" />
<glyph unicode="." glyph-name="period" horiz-adv-x="253" d="M190 -29L172 -36Q143 -36 121 -17T99 31T122 85T169 111T207 93T221 54T209 20T178 6Q168 6 157 13T146 31Q146 58 174 60Q182 60 182 53T174 45V44Q161 44 159 32Q159 28 165 24T180 20T197 30T206
52T196 73T172 83T143 66T128 31T141 -1T172 -16L192 -12Q203 -11 201 -17Q199 -25 190 -29Z" />
<glyph unicode="/" glyph-name="slash" horiz-adv-x="435" d="M511 709Q534 709 534 686Q534 676 526 670H531Q505 598 386 464T203 232Q198 224 177 194T142 141T110 88Q75 28 75 -7L80 -20Q82 -28 78 -33T70 -38Q60 -38 57 -30Q44 -15 45 -6Q45 24 66 73T103
146T136 202T167 255Q278 431 351 512Q364 525 380 544T411 582T433 609T450 634Q465 656 478 689Q481 696 492 702T511 709Z" />
<glyph unicode="0" glyph-name="zero" horiz-adv-x="612" d="M539 277Q539 102 424 -1Q379 -46 320 -46Q223 -46 152 39Q69 140 69 259Q69 312 87 367Q46 409 46 478Q46 524 69 563T129 625Q173 654 185 658Q211 665 226 665Q296 665 348 650T440 592T500 493Q539
384 539 277ZM416 526Q381 579 330 594Q321 596 305 601T279 610Q252 618 213 618T143 600T95 549T76 470T96 391Q122 449 165 492T264 553Q274 557 309 557T374 540T403 496T384 459T351 448T329 450T322 463T337 470T363 474T377 497T357 522T309 531Q243 531
200 481T138 356Q167 343 195 343T248 366Q252 370 257 369T263 363T261 353Q231 323 198 323T133 336Q126 304 126 277T129 228Q138 146 194 79T320 12Q350 12 384 43Q480 129 480 279T416 526Z" />
<glyph unicode="1" glyph-name="one" horiz-adv-x="338" d="M224 82Q262 82 262 62Q262 55 256 50T240 48T213 52T161 34T103 -19Q93 -34 83 -34T72 -30T74 -22T77 -13T81 -4Q112 40 164 65Q152 71 148 113T144 175Q144 311 159 355T185 459Q163 439 147 421T103
402Q91 402 84 416T76 438T80 449T90 450T95 435T102 422Q146 422 187 529Q188 532 199 554Q204 591 214 604T231 618T243 607Q246 604 246 600Q249 597 249 592Q256 573 256 545T246 459T207 315T178 175T194 95Q198 86 196 78Q211 82 224 82Z" />
<glyph unicode="2" glyph-name="two" horiz-adv-x="506" d="M345 110L340 140Q340 145 343 155Q365 205 410 205Q411 205 412 205Q438 205 457 178T476 124Q476 77 445 36T368 -6Q337 -6 312 6T252 46T206 83Q174 53 132 30Q92 3 63 3T14 44T-6 119T14 175T63
199Q98 199 126 180Q166 150 195 136Q267 215 323 319T379 492Q379 517 361 539T317 568Q310 570 288 580T239 590T197 586Q146 569 118 543T88 468Q88 452 102 435T133 418Q134 418 143 418T165 429T179 457T162 476Q153 478 154 487T165 495L166 496Q182 494
193 483T205 450T182 411Q159 392 134 392T88 417T68 468Q69 583 185 619Q225 633 264 633T339 622T406 575T437 492Q437 407 379 301T237 112Q264 97 283 81T306 62T319 53T334 44Q357 37 368 37Q400 37 421 64T442 116T438 150Q428 174 412 176Q382 176 366 144L364
110Q364 104 359 102T350 101T345 110ZM100 160T89 165T61 171T30 147Q28 143 28 121T38 75T69 50T113 65Q141 80 168 108Q139 125 120 142Z" />
<glyph unicode="3" glyph-name="three" horiz-adv-x="439" d="M249 394L274 393Q312 457 312 522Q312 549 295 564T243 580T162 558Q160 557 148 551T128 542T111 532Q90 518 86 503T82 467T95 433T123 420Q145 420 147 442V450Q147 452 141 452Q132 455 134 464T148
471T164 462T168 438T156 405T122 390T78 412T57 459T66 511Q77 547 148 584Q151 585 160 590T172 596T184 602T196 607T209 611T223 615Q241 618 251 618Q298 618 329 594T360 523Q360 458 310 383Q357 367 386 328T416 234T388 107T305 -22T188 -80Q146 -80 113
-57T63 2Q29 74 29 129T54 203T129 223Q141 223 147 219Q162 209 170 202T190 165T203 119T192 85T167 68T140 83T123 109T127 125T142 129T152 116Q156 87 167 87Q174 87 178 97T183 116Q183 158 149 183Q146 185 144 185L130 183Q126 183 93 161V160Q87 150 87
138Q87 78 115 29T188 -21Q209 -21 234 -4Q288 28 329 101T370 239T328 333Q308 346 289 356Q239 303 193 303Q181 303 166 310T151 331T165 363Q191 394 249 394ZM251 365L220 367Q208 367 198 364T181 332Q181 328 187 328Q226 328 258 364L256 365H251Z" />
<glyph unicode="4" glyph-name="four" horiz-adv-x="559" d="M526 442Q570 442 570 389Q570 307 516 251T379 187H360Q361 143 371 96T398 30T421 12Q447 12 460 28T474 62T464 86T453 101T459 117T476 118Q493 110 493 71Q493 21 464 -11Q446 -32 421 -32Q420
-32 419 -32Q392 -32 371 -8T338 54Q317 124 315 188Q304 189 260 196T187 203L141 207Q111 207 78 194Q56 179 44 176T22 182T13 207T31 232Q34 234 39 238Q47 244 86 258Q109 278 149 321T190 365Q245 418 269 449T322 517T359 563T372 573T378 568T377 558Q364
541 340 503T308 453T284 419T262 387Q238 354 226 343T156 264L187 261Q216 261 261 254T316 246Q319 333 336 398T384 539T422 634Q425 641 429 641Q445 641 440 628Q421 570 393 453T360 245Q417 249 469 265T536 313T551 389Q551 397 534 410Q529 411 520 411T499
400T488 374T496 353T497 340T484 339Q468 353 468 377T483 421T526 442Z" />
<glyph unicode="5" glyph-name="five" horiz-adv-x="441" d="M109 436Q175 485 248 485Q339 485 386 404Q414 354 414 283Q414 116 270 7Q246 -17 215 -34T171 -55T142 -59Q96 -59 53 -11Q25 17 25 67T63 177Q84 214 124 247T203 284Q206 284 215 286T232 289Q247
291 263 280T278 242Q278 211 243 163T172 115Q144 115 144 152Q145 170 160 178T174 174Q174 170 165 152Q165 142 172 142Q198 142 224 180T252 239Q252 267 221 267Q213 267 205 264Q149 259 88 162Q69 131 69 76Q69 55 95 27T141 -1Q168 -1 223 43Q233 51 235
53Q356 145 356 284Q356 358 322 393T244 428Q197 428 151 405T88 348Q79 337 56 350Q47 355 48 361T51 377T57 400T83 477T112 570Q113 576 118 577T127 575T131 566Q121 521 109 436ZM430 545Q318 545 271 565T194 592T155 602T135 605T124 604Q116 596 109 596T95
602T87 616T93 631Q114 656 138 656Q207 656 288 622Q362 585 383 579T440 572T488 578T504 581T508 572T503 563Q454 545 430 545Z" />
<glyph unicode="6" glyph-name="six" horiz-adv-x="478" d="M426 638Q459 638 459 605T427 543T355 498Q349 496 345 500T341 509T348 516Q384 530 412 555T440 608Q440 615 438 617T426 619Q385 619 348 600T290 562T235 503Q177 436 136 325Q90 217 90 165T121
59T184 6Q234 6 284 49T365 150T395 258Q395 276 390 298T373 321Q309 321 271 257T232 125Q232 124 231 110Q229 85 239 85Q251 85 266 101Q287 123 287 137T275 168T277 196T303 194T314 160T299 110Q272 57 239 57Q223 57 213 79T202 124Q202 185 228 239T301
330Q334 357 373 357Q394 357 420 319T447 258Q447 198 410 126T309 0T184 -53Q138 -53 101 -12T47 77T30 152T32 199T42 238T53 272T69 310T88 358T119 414T156 465T208 526Q304 638 426 638Z" />
<glyph unicode="7" glyph-name="seven" horiz-adv-x="508" d="M463 631Q491 631 491 610Q491 598 484 583T469 560V559Q374 415 327 326T239 104Q212 25 212 -34Q212 -36 212 -49T211 -69T214 -84Q216 -102 232 -102Q281 -102 307 -50Q310 -45 315 -45T323 -49T325
-60Q287 -136 232 -136Q201 -136 183 -103T165 -34T170 32T178 85Q182 151 270 340Q325 457 385 544Q327 522 267 522Q246 522 209 534T159 547T131 547T95 544T54 522T34 479T50 428T85 401Q86 401 87 401Q107 401 118 422T129 461T128 482T121 489T115 499T120
506T130 505V506Q145 496 148 491T152 460T134 409T89 383T38 416T13 475Q13 534 52 561T152 588Q172 588 209 582T267 576Q359 576 423 614Q426 616 432 620T442 626Q449 631 463 631Z" />
<glyph unicode="8" glyph-name="eight" horiz-adv-x="482" d="M457 582Q453 571 444 575Q437 578 439 585Q449 635 470 635Q486 635 495 620T505 586Q505 531 452 484Q338 373 308 348Q420 290 420 200T357 54T209 -3Q208 -3 206 -3Q158 -3 106 26T53 103T123
216Q133 226 153 241T190 275T243 326Q174 353 161 361T133 379T114 391T98 403T82 418T71 434T62 455T59 478T66 511Q80 551 130 584T225 622Q240 623 274 623T336 605T365 550T336 491T279 467T239 479T226 515T241 551T268 565L291 554Q298 549 296 540T284
538V539Q272 548 260 538T248 514T254 493T270 485Q297 485 319 502T342 545Q342 595 268 595Q220 595 198 584Q127 545 111 496Q106 481 106 475T110 460T124 443T140 430T160 418T186 402T282 361Q299 373 309 383T368 432T441 495Q489 539 489 586Q489 617 470
617Q466 617 462 600T457 582ZM157 180Q100 126 100 102T140 59T206 41Q275 41 324 85T374 198Q374 232 347 262Q317 296 273 311V312L209 243Q201 234 185 213T157 180Z" />
<glyph unicode="9" glyph-name="nine" horiz-adv-x="497" d="M377 652T421 588T466 442T404 209Q383 161 347 113Q219 -55 119 -55Q78 -55 40 -34T2 27Q2 52 28 71T73 90Q107 90 114 63Q116 57 112 53T103 50T96 57Q92 71 78 71T46 57T29 26Q29 17 41 11T54 3Q84
-19 118 -19Q211 -19 325 131Q338 147 347 163T363 189T376 217T387 242Q391 251 408 303T426 431T394 558T301 609H239Q191 609 159 572Q103 507 103 459T133 368T208 324Q209 324 211 324Q271 324 313 364T355 465Q355 534 310 534Q290 534 280 521T270 493T272
472T272 462T263 457T256 462T247 477T240 497Q240 530 279 546Q297 553 317 553T361 534T385 468Q385 383 336 327T208 270Q173 270 152 279Q107 298 78 350T49 458Q49 487 59 505T82 540T99 564Q122 603 159 627T239 652H301Q377 652 421 588Z" />
<glyph unicode=":" glyph-name="colon" horiz-adv-x="253" d="M237 265T224 250T197 235T172 242T161 262Q161 274 168 282T186 290T196 282T189 274Q177 274 175 262Q175 258 181 254T195 250T213 260T221 282Q221 294 211 303T187 312T162 297T151 263T165 234T189
222T214 223T226 219Q224 211 218 209T207 203T197 200Q166 200 140 217T114 262T137 316T184 342T222 323T236 285ZM206 8L190 2Q189 2 188 2Q157 2 131 19T105 64T128 117T175 142T213 124T227 85T215 51T188 36T163 43T151 62T160 82T178 91T188 83T180 75Q167
75 167 64Q167 60 173 56T187 52T204 61T213 83T203 104T179 113T154 98T142 64T155 34T188 21L207 25Q218 26 217 20Q215 12 206 8Z" />
<glyph unicode=";" glyph-name="semicolon" horiz-adv-x="253" d="M188 24L189 55Q189 73 184 78T168 90T151 96Q129 96 118 79T106 40T119 14T144 17T156 35T147 45L137 43Q129 40 127 48Q127 56 147 60Q156 60 163 54T170 38Q170 7 141 -9Q133 -13 123 -13Q76
-13 76 35Q77 66 99 92T152 119Q163 119 181 111T204 96Q228 62 228 22T176 -79T82 -156Q80 -157 79 -157Q71 -157 71 -149Q71 -145 76 -143Q109 -128 148 -71T188 24ZM237 265T224 250T197 235T172 242T161 262Q161 274 168 282T186 290T196 282T189 274Q177 274
175 262Q175 258 181 254T195 250T213 260T221 282Q221 294 211 303T187 312T162 297T151 263T165 234T189 222T214 223T226 219Q224 211 218 209T207 203T197 200Q166 200 140 217T114 262T137 316T184 342T222 323T236 285Z" />
<glyph unicode="&lt;" glyph-name="less" horiz-adv-x="374" d="M153 184T116 221T66 274T53 298T59 310Q97 339 148 427T225 543T258 583T270 595T280 594Q293 589 291 576Q300 566 291 557Q271 518 258 500T220 444T183 386Q178 374 172 352Q158 309 149 296Q140
286 140 283Q149 266 180 239T217 200T228 181T235 169Q290 114 308 85Q319 78 319 71Q319 49 302 49L288 55Q286 58 279 65T260 84T201 140Z" />
<glyph unicode="=" glyph-name="equal" horiz-adv-x="547" d="M128 376Q128 394 146 394H463Q472 394 477 389T482 377Q496 375 496 362Q496 344 478 344Q430 344 351 338T249 331Q172 331 144 342Q123 349 134 364Q128 369 128 376ZM206 244L292 245Q301 245
305 245T344 245T406 244T460 235Q495 225 495 204Q495 188 478 188L207 180Q177 180 158 192H150Q139 192 136 198T133 209T136 217Q136 226 141 231Q140 240 145 245T156 251T165 249Q167 244 206 244Z" />
<glyph unicode="&gt;" glyph-name="greater" horiz-adv-x="374" d="M60 55Q54 49 49 49Q35 49 31 60Q29 65 29 70T40 85Q59 113 78 132L113 169L128 193Q138 211 168 238T209 283Q195 304 190 317T177 353T166 386Q145 416 100 489Q74 522 64 547L57 557Q51 566
57 576Q55 589 68 594Q72 595 77 595T92 582T123 542Q149 514 201 427T290 310Q296 305 296 298T292 287Q263 249 178 169Q110 105 60 55Z" />
<glyph unicode="?" glyph-name="question" horiz-adv-x="484" d="M254 745Q296 750 300 750Q388 750 435 702T482 567Q482 542 472 521T452 483T438 457Q424 429 402 415T347 391T300 372Q249 340 249 295Q249 265 258 255T291 245Q294 245 296 245Q315 245 317
270Q318 278 325 280T338 279T343 268Q337 221 295 221Q294 221 292 221Q261 221 239 241T217 293T228 346T264 386Q297 411 351 436Q380 452 392 474Q401 491 407 506T418 533T423 567Q423 627 391 660Q358 693 291 693T172 655T120 545Q120 506 147 468Q164 444
187 444T231 465T252 508T246 552T229 573T210 562T203 544T216 523Q220 518 218 512T210 505T200 508V507Q197 510 190 514Q174 523 174 541T190 579T224 600T261 576Q276 553 275 514T247 443T178 412T111 455T86 547Q86 626 132 682T254 745ZM286 3Q181 3 181
88Q181 119 209 139T271 160Q310 160 312 110Q312 75 287 74Q282 74 273 82T264 96T271 104T282 100L288 94Q289 94 293 110Q293 129 271 129Q255 129 241 117T226 92Q226 48 287 48H293Q300 52 307 52T322 45T330 32Q330 23 315 18Q313 17 310 13Q301 3 286 3Z"
/>
<glyph unicode="@" glyph-name="at" horiz-adv-x="594" d="M312 361L311 298Q311 284 318 273T337 261Q364 261 391 278T424 316T429 380Q429 383 420 428Q407 479 359 515T255 551Q169 551 108 471T46 299Q46 234 80 175T175 108Q203 104 250 104T330 119T403
169T464 232Q508 287 518 364Q519 372 519 388T508 420T503 450T526 467T554 456Q568 438 568 410T555 344Q529 267 490 218T375 122T243 75T170 77Q114 84 72 119T9 208Q-1 238 -1 300Q-1 405 75 498T254 591Q325 591 385 547T463 438Q467 421 467 386T458 313T412
247T337 218T274 261Q233 205 200 205T154 229T140 289T148 350T165 386T180 403T197 417T219 435T234 448Q252 461 271 461T306 450T326 420Q335 411 315 384Q309 375 307 371H308Q314 365 312 361ZM280 384T280 388T279 397T277 406Q275 417 273 417Q245 417
222 396Q179 357 179 282Q179 243 199 243Q221 243 251 300Q253 306 268 330T286 361Q271 367 279 381V382Q280 384 280 388Z" />
<glyph unicode="A" glyph-name="A" horiz-adv-x="739" d="M723 130L717 165Q717 175 726 180T742 166Q745 156 745 145Q745 114 720 64Q688 1 637 0Q626 0 603 14T571 39Q534 83 521 214Q515 271 510 304Q397 284 351 230Q347 225 342 226T335 232T337 242Q410
323 506 356Q505 373 505 407T518 506T532 592T532 619T536 628T546 629T551 619Q562 500 562 441T564 368Q575 371 584 368Q607 368 634 356Q673 339 673 310Q673 294 654 286Q645 283 634 283T615 300Q594 311 583 311T567 310Q570 297 573 236Q581 100 608 72Q612
67 622 60T637 52Q667 52 695 78T723 130ZM150 -24Q138 -24 127 -18T111 -11T98 -8Q79 -3 69 6Q18 53 18 131Q18 168 31 194Q36 204 64 246Q79 271 132 271Q153 271 171 251T189 203Q189 154 148 134Q143 132 139 135T135 143T140 151V152Q169 166 169 207Q169
222 158 236T132 250Q96 250 86 234Q66 205 66 160Q66 147 67 131Q67 70 75 55T89 34T98 26Q109 15 110 15T113 13T117 11T121 9T127 6Q135 2 145 2T162 6Q175 14 188 27Q225 56 240 106Q247 132 277 212Q285 237 289 284T298 351T311 400Q326 461 353 514T408
597T502 661Q507 664 512 664T525 658T533 642T521 624Q500 614 455 567T385 469T349 379T334 332Q330 320 328 305T321 274T308 239T296 205T286 153T277 104T270 80T265 64T261 50T255 35T249 22T241 8Q228 -8 222 -13Q209 -24 150 -24Z" />
<glyph unicode="B" glyph-name="B" horiz-adv-x="620" d="M118 343L83 337Q42 337 20 362T-2 433T50 530T152 596T236 619Q261 755 338 755Q359 755 373 740T388 711T386 692T382 683T376 674T368 667Q356 657 352 654T343 652T337 660T340 669Q381 696 358 726Q350
735 338 735Q276 734 268 623L305 626Q423 626 519 578Q618 525 618 455T550 310Q599 270 599 208Q599 166 576 103T513 -9T424 -58Q398 -58 375 -27T351 31Q351 45 355 55T361 68T368 79T375 91Q377 97 382 97T392 94T395 86T393 73T392 59T391 47T393 32T403
13T424 1Q451 1 474 24T511 81Q537 145 541 179T545 218Q545 252 516 279Q488 259 458 247Q421 232 386 214T346 196Q316 196 305 212Q290 -23 158 -97Q145 -104 108 -104T43 -61Q-3 12 28 104Q29 110 34 111T43 109T45 98T43 29Q43 13 57 -19Q72 -59 112 -59Q115
-59 121 -53T130 -46Q191 -11 220 73T249 262T239 432T228 521T230 568Q200 565 161 553T76 506T29 431Q29 407 45 383T83 358L118 361Q124 361 126 357T126 348T118 343ZM487 536T446 550T373 568T311 573T265 572Q268 515 272 488T286 414Q307 316 307 264V263Q317
281 348 304Q402 339 475 339Q488 339 508 335Q564 393 564 458Q565 485 526 510ZM352 240Q354 239 360 239T384 242Q404 245 411 249Q440 263 474 296Q415 296 372 270Q352 255 351 240H352Z" />
<glyph unicode="C" glyph-name="C" horiz-adv-x="485" d="M262 -25Q198 -25 149 12T73 105T33 219T19 327T29 418Q52 507 139 591T314 675Q354 675 391 635T428 556T401 474T338 431Q319 431 299 443T278 473Q278 506 297 529Q303 536 333 550Q339 552 343 548T347
539T340 532H339Q324 525 314 508T304 477T315 457T338 450Q363 450 386 485T409 550T384 612T312 645Q236 645 172 566Q77 447 77 322Q77 216 126 125T260 34Q261 34 262 34Q327 34 358 65Q418 121 418 165Q418 193 405 216T365 240T327 216T315 178T316 156T313
146T303 144Q295 146 295 173T308 226Q327 261 367 261T435 232T463 164T444 87T399 21Q348 -25 262 -25Z" />
<glyph unicode="D" glyph-name="D" horiz-adv-x="748" d="M45 447Q45 438 54 438H66Q83 438 122 451Q128 453 131 450T135 441T129 433H128Q68 417 54 419T33 427T26 449Q26 484 63 512T141 556Q205 579 244 589V627Q244 686 273 735T350 784Q351 784 352 784Q377
784 394 766T412 723T396 676T351 652Q345 651 342 655T340 665T354 672T380 689T394 722T382 751T352 763Q313 762 290 720T267 627Q267 615 271 595Q335 608 390 608T469 605Q565 589 640 521T716 365Q716 258 676 160Q656 108 557 56T367 4Q366 4 364 4Q337
4 273 24Q254 -8 221 -34Q197 -52 150 -52Q119 -51 90 -24Q32 32 32 114T75 263T159 329Q160 329 160 329Q191 329 204 287Q212 264 212 244T209 211T200 198T191 201T188 211Q194 225 194 240T190 271Q182 306 158 306Q157 306 157 306Q129 306 100 259T64 183T57
115T67 51T102 11T144 -3T185 12Q198 23 215 41Q153 65 141 68T131 84T148 93Q152 92 160 89Q178 82 235 74Q276 147 276 247T261 417Q253 456 250 502T245 563Q146 552 78 498Q46 473 45 447ZM669 366Q669 427 627 476T524 549T396 573T274 568Q279 543 296 497T318
430Q334 359 334 253T296 64V63H364Q439 64 518 106T627 192Q669 256 669 366Z" />
<glyph unicode="E" glyph-name="E" horiz-adv-x="568" d="M370 101Q323 101 323 171Q323 215 353 262T435 309Q473 309 503 277T533 200T511 104T454 21Q410 -17 385 -26T294 -51T197 -67Q116 -67 72 25Q52 67 52 152Q52 264 167 366Q140 407 140 460Q140 560
213 645Q235 670 275 688T353 706T428 684Q485 649 485 564Q485 527 455 488T396 448T350 465T332 511T370 575Q374 579 379 577Q392 572 383 561Q351 531 351 511T362 479T393 467T427 500T442 553T433 601T400 642T349 656Q264 656 235 625Q166 546 166 468Q166
418 187 384Q253 441 303 441T354 403T320 342T248 318T184 344Q83 250 83 151Q83 103 112 45Q120 28 148 10T204 -9T315 15T422 61T466 124T485 197T471 253T435 277Q434 277 433 277Q393 277 368 241T342 162Q342 145 350 133T370 120Q371 120 371 120Q397 120
411 152Q416 164 416 172Q416 186 403 184Q397 183 394 187T392 196Q394 204 407 204Q434 204 434 172T414 121T371 101Q371 101 370 101ZM323 403Q323 414 302 414Q270 414 207 364Q225 349 251 349T300 365T323 403Z" />
<glyph unicode="F" glyph-name="F" horiz-adv-x="640" d="M478 441L484 540Q425 586 374 613T279 640T194 625T120 581T72 527T56 476Q56 439 88 389Q102 365 123 365Q168 366 203 400T239 470T231 521T196 536Q187 536 187 546T196 556Q259 556 259 476Q260 425
219 384T125 342Q91 342 74 366Q30 431 30 485Q30 522 48 566T95 635T174 679T281 698T408 661Q439 645 485 599Q490 638 525 688Q531 696 539 690T542 676Q525 653 520 631T514 572Q582 512 632 512Q662 512 690 535T718 588T698 632Q687 640 677 640T659 636T647
635T642 644T647 653Q662 661 678 661T711 650Q742 631 742 590T708 516T632 483Q569 483 515 517V431Q543 420 555 420T571 420T583 422T597 425T610 428Q624 433 643 449Q654 458 661 453T665 442Q646 417 613 403T558 388T516 393H515L522 251Q522 186 518 169T507
138Q492 103 482 89Q450 44 391 -15Q349 -55 314 -55T230 -25T167 34Q152 64 152 114V159Q152 197 186 259Q249 374 330 374Q360 374 382 339T405 260T382 172T317 127Q251 127 251 198Q251 230 273 256T319 282Q335 282 344 266Q346 262 347 260Q353 252 353 246Q355
241 352 237T344 233T336 239Q327 261 319 261Q302 261 288 242T274 203Q277 149 316 149Q339 149 355 170Q381 204 383 269Q383 297 368 325T330 354Q275 354 244 300Q239 292 236 288Q193 224 193 168T220 59Q226 45 260 24T305 3T323 5T336 14T347 24T359 36T368
46Q444 120 460 181Q460 182 471 208T482 251L477 392Q477 400 477 407Q464 412 430 412T373 392Q366 386 360 393T357 404T370 415T382 424T393 431T407 439Q422 445 435 445Q466 445 478 441Z" />
<glyph unicode="G" glyph-name="G" horiz-adv-x="551" d="M435 73Q359 3 267 3T123 36T44 126T18 238T34 339T64 409Q101 466 130 503Q171 560 225 595T340 631Q341 631 342 631Q485 631 522 551Q533 527 533 498T512 433Q474 368 406 368Q368 368 335 386T301
440Q301 461 309 485Q316 501 338 514Q362 528 380 528Q412 528 426 485Q428 479 424 476T415 472T407 479Q401 498 385 498Q376 498 364 492Q335 477 328 449Q327 445 327 440Q328 411 364 394Q380 387 399 387T442 398Q485 419 501 482Q504 495 504 510T494 544T456
576Q407 596 342 596Q240 596 160 483Q111 414 89 364T67 256Q67 139 149 86Q189 62 244 62T335 75Q388 96 421 140Q405 203 405 241T420 295Q426 301 439 304Q468 304 485 272T503 208Q503 155 461 103Q468 76 468 22Q468 -206 364 -259Q342 -270 323 -270T284
-262T252 -236T239 -177T266 -101T335 -65Q384 -65 363 -155Q362 -161 357 -162T348 -160T346 -147T348 -124T337 -111Q314 -111 301 -132T287 -180Q287 -224 321 -224Q358 -224 383 -196T420 -122Q437 -47 437 21Q437 39 435 73ZM444 269Q438 266 438 241T445
184Q446 187 455 196T463 211Q463 261 444 269Z" />
<glyph unicode="H" glyph-name="H" horiz-adv-x="640" d="M119 119Q82 119 85 169Q85 175 90 177T99 176T104 168T104 159Q104 138 118 137Q131 137 142 157T154 195T147 222T127 232Q87 231 61 190Q7 105 60 16Q70 2 91 -11T127 -25T151 -12Q180 6 201 45T231
112Q260 214 263 279Q226 271 218 234Q217 228 212 227T202 229T199 239Q212 293 263 304Q263 351 259 391T254 465T249 527T230 591T194 626Q154 626 117 586T80 507Q80 506 80 493T81 465T93 436T128 420T158 438Q159 440 162 443T167 449Q167 462 160 470T155
483T163 488T171 485Q187 464 187 448T186 426Q171 391 124 391Q50 392 50 506Q50 543 83 582T151 636T194 651Q225 651 263 608T307 531Q316 476 316 451Q316 401 305 307Q374 307 414 306Q481 317 529 330Q534 386 535 416T538 466T546 518T561 568T587 604T618
624Q639 627 639 615Q639 606 631 605Q609 600 595 580T575 531Q566 480 566 434L567 393Q567 377 561 343Q593 358 606 382Q610 387 615 387T623 383T623 373Q597 328 559 304V276Q559 174 599 19Q611 -21 621 -31T632 -50T623 -69T604 -79T585 -69T567 -45T554
-17T543 19T535 56T530 97T527 137T526 177T525 214V283Q477 260 414 253Q391 253 355 265T300 280Q293 223 282 172T268 112T260 78T248 43T233 12T213 -18Q170 -65 130 -65Q108 -65 83 -42Q15 19 15 100Q15 103 15 106Q15 156 45 203T125 251Q126 251 127 251Q147
251 160 235T174 196T160 146T121 119Q120 119 119 119Z" />
<glyph unicode="I" glyph-name="I" horiz-adv-x="353" d="M263 534L259 637Q259 643 259 647Q251 640 223 630T174 592T153 546T159 513T176 498Q203 498 203 537Q203 546 202 554T205 564T215 566T221 558T222 537T213 500T177 478Q129 478 129 541Q128 572 154
604T209 647Q253 664 263 696Q265 705 275 705Q279 703 280 700L281 689Q281 684 281 668T283 617T296 522T307 438T314 384Q321 336 321 280Q322 278 322 273T321 254T320 238T318 218T315 198T312 179T308 160T303 141T298 122Q281 41 231 -8T133 -58Q124 -58
99 -46T69 -26Q52 -7 42 32T32 107Q32 181 87 249Q113 278 146 278T193 254T208 194T205 143T181 94T141 60Q140 60 139 60Q119 60 107 79T95 115T98 139T102 155T114 164T126 153Q126 146 123 137T120 122Q120 87 140 87Q156 88 170 119T184 165T186 188Q186 255
145 255T78 202T53 104Q53 30 88 -9Q92 -13 109 -20T133 -27Q170 -27 202 12T246 96Q270 185 270 257T267 387T262 479L263 534Z" />
<glyph unicode="J" glyph-name="J" horiz-adv-x="372" d="M361 644T370 653T379 675T387 689T396 681Q396 648 384 636T365 617T343 604T316 596T299 597Q299 596 293 538Q292 508 292 450Q292 372 298 237Q298 224 293 201T287 147T269 68T223 -11L209 -25Q179
-55 148 -55Q89 -55 48 14Q-3 98 -3 176Q-3 225 22 277Q53 342 106 342Q148 342 174 299T200 214Q200 209 200 204Q200 155 181 120T115 84Q92 84 69 115Q57 134 57 166T76 215T120 231Q124 231 129 231T137 225T136 213T121 208T99 198T88 161T108 121Q114 116
115 115Q173 115 175 213Q175 249 158 284T108 320Q62 320 39 264Q20 219 20 173Q20 110 60 51T148 -9Q156 -9 166 0Q187 19 190 22Q264 92 267 166L264 236Q264 236 258 280Q257 317 250 388T243 494T243 541Q244 573 265 600Q185 617 153 617T98 602Q88 596 88
589T94 572T97 558T89 553T82 557T77 565T72 571Q68 577 68 585Q68 610 92 626T164 643H304L306 644Q314 650 318 642Q319 642 330 642T351 643Z" />
<glyph unicode="K" glyph-name="K" horiz-adv-x="645" d="M315 268L279 264Q263 264 254 283T244 323T274 376Q288 390 299 389Q332 389 352 338Q387 393 422 516Q449 614 473 660Q520 747 599 747Q650 747 656 696V688Q656 682 656 677T655 665T647 650T640 636T631
631T623 636T627 653T635 675T631 691Q626 717 598 717Q575 717 565 704T551 684T540 664T529 645Q501 598 466 501T411 366T364 298Q376 255 393 186T457 58Q458 57 463 50T471 41T478 32T486 22Q500 8 504 6T514 -1T524 -6Q538 -11 554 -11Q583 -11 610 40Q627
72 627 85Q626 114 613 135T577 156Q576 156 575 156Q557 156 548 145T538 118T545 92T563 82T584 101Q585 107 590 108T599 105T601 93T588 72T563 59Q562 59 561 59Q542 59 528 75T513 117T529 160T575 178Q576 178 577 178Q608 178 627 150T646 87T630 20T607
-20Q580 -49 545 -49Q487 -49 422 32Q407 51 396 78Q372 134 362 198T348 282Q331 268 315 268ZM200 414L202 511Q202 588 177 631Q176 633 171 644Q161 668 146 668Q113 668 83 626T53 556T74 504Q80 496 88 496T104 500Q139 516 115 558Q113 563 116 567T124
572T132 567V566Q143 546 143 529Q142 494 108 479Q95 473 81 473T56 485Q28 517 28 555T65 646T147 699Q175 699 195 683T226 639Q246 589 248 535V414Q248 373 241 314T232 227T222 156T198 59T157 -31T98 -69T41 -27T17 52T35 119T86 150T128 119Q131 107 131
93T125 67T110 59T105 72T111 94T107 117T88 128H73Q56 122 46 100T36 50T54 -10T98 -43T143 -8T173 78Q192 175 196 255T200 414ZM280 307L316 308Q328 308 339 320H338Q336 329 326 351Q314 370 301 370H300Q290 370 279 348Q276 348 276 343T277 323T280 307Z"
/>
<glyph unicode="L" glyph-name="L" horiz-adv-x="643" d="M241 380Q231 458 231 507T243 613Q262 699 318 742Q336 757 358 757T415 728T450 590Q450 469 374 395Q334 356 280 351Q282 336 286 313T291 280Q295 238 295 211Q295 153 271 95Q287 83 314 60T349
31Q401 -9 453 -9T542 34T577 128Q577 245 526 272Q509 282 474 282T421 250T402 181Q402 179 402 177Q402 156 417 136T447 115Q473 116 487 131T501 162T507 181T518 181T524 171Q523 134 505 111T452 87T395 117T373 178Q373 180 373 181Q373 226 401 267T473
309T540 296Q576 276 600 226T624 124T590 19Q540 -58 455 -58Q421 -58 390 -46T341 -21T295 18T251 55Q245 44 233 24T215 -6Q191 -44 158 -44Q105 -44 59 -6T13 83Q13 118 43 148T106 179Q135 179 174 158Q185 151 210 136T239 118Q256 166 256 206T243 352Q207
360 184 386Q176 395 165 413T149 436T147 445T155 450T165 447H164Q178 428 186 418Q210 390 241 380ZM410 590Q410 660 376 689Q359 703 350 703T326 684Q281 625 272 558Q269 532 269 490T278 377Q324 384 352 414Q410 478 410 590ZM78 150T59 132T40 79T77
19T158 -6Q175 -6 195 34Q210 55 221 77H220Q212 82 188 102Q129 151 109 151Q78 150 59 132Z" />
<glyph unicode="M" glyph-name="M" horiz-adv-x="788" d="M531 317Q523 373 523 404T527 473T547 570T572 650Q591 693 628 693Q668 692 668 627Q668 483 585 320Q598 265 602 225T609 168Q615 122 625 91Q653 6 685 -12Q692 -17 699 -17T728 -5T757 16Q774 33
775 63T772 106T751 138T729 157Q704 157 700 133Q699 123 690 125T681 142T695 170T726 184Q728 184 729 184Q753 184 773 151T795 67Q795 27 777 8T734 -28T696 -45Q662 -45 629 -2T584 76Q550 178 542 240Q510 182 476 132T431 54Q431 49 431 44Q431 -9 411
-30Q404 -38 390 -34T374 -20Q372 -8 372 14T389 75Q386 82 385 95T374 138T358 196T325 306Q311 230 283 141T232 9T174 -68T115 -102Q107 -102 101 -99V-100Q3 -99 3 30Q3 135 75 207Q90 222 113 222T154 215T183 187T196 143T175 93T125 65Q109 65 96 73T83
99T96 130T120 145T134 143T136 133T126 127T110 118T102 101Q102 84 122 84T160 105T177 147T156 181T119 195T87 180Q34 121 34 27T103 -67Q125 -67 135 -59T150 -46T162 -31T171 -17T181 1T189 16Q228 85 268 319Q271 337 286 407Q280 419 262 454T236 507Q211
559 211 610Q211 632 229 668T268 704Q297 704 318 672Q355 616 355 527Q355 469 342 389Q348 372 361 341T382 290Q400 241 405 214T415 169T421 141Q431 154 433 160Q453 186 466 210Q489 250 531 317ZM628 655L629 661Q605 661 592 604Q581 552 578 519T572
476T570 444T572 398H573Q617 493 626 600L628 628V655ZM258 664T250 644T241 610Q241 560 296 474Q298 502 298 519T298 541T298 555T297 574T295 597T292 622T287 643Q281 664 270 664Z" />
<glyph unicode="N" glyph-name="N" horiz-adv-x="710" d="M216 366L219 463Q219 554 214 580T200 632Q184 683 142 683T67 632T34 534Q34 442 66 399Q78 384 102 384T146 402T165 444T154 476T135 485T121 482T110 482T106 492Q108 505 129 505T167 491T184 445T160
387T98 362T40 388T11 443T1 498T1 534Q5 604 46 657T143 711Q175 711 199 687T238 627Q263 560 267 497Q267 490 268 476T270 460Q286 486 323 539T382 620T445 674T529 701T592 662T614 588T609 528T599 487T582 443Q527 304 525 141Q525 -54 573 -54Q597 -54
615 -38T644 3Q663 50 663 103V140Q663 168 658 177T648 190Q641 200 628 200Q609 200 594 157Q591 150 589 136Q589 122 595 105T613 88Q628 109 631 94T622 72Q618 71 613 71Q596 71 581 95T566 137T582 189Q601 232 627 232T670 206Q693 168 693 116T681 22T641
-54T578 -88T524 -61T496 9Q482 84 482 141Q482 258 536 409Q542 426 558 460Q590 530 590 577Q590 599 581 628T557 664T523 671T476 653T436 617T398 564T346 487T274 372V357L275 237Q275 14 206 -22Q189 -31 176 -31T149 -17T130 26T125 57L123 109Q123 136
132 162T152 214T177 278T217 366H216ZM180 151T176 134T171 101T170 69T180 31H181Q214 63 216 248Q213 236 197 194Z" />
<glyph unicode="O" glyph-name="O" horiz-adv-x="645" d="M246 387Q246 335 306 335Q336 335 364 360T393 414Q393 424 384 434T363 445T330 429T308 402Q308 399 310 396Q321 377 309 377T292 388T293 415T322 452T364 474Q365 474 366 474L404 454Q424 434 424
414Q424 373 385 337T306 301T240 322T214 383Q214 480 312 537Q349 559 381 559Q439 559 487 535T562 464Q609 379 609 318Q609 196 543 103Q511 56 444 22T318 -12Q181 -12 97 82T12 309Q12 375 51 464T137 596Q165 622 242 661Q280 680 323 680Q437 680 490
614Q507 592 513 587T518 575T511 568T501 570H500Q414 646 323 646Q278 646 254 634Q170 590 137 539T72 379Q62 346 62 326T62 290T76 227Q103 142 165 91T317 38Q367 38 423 64T506 129Q567 215 567 319Q567 378 528 445Q506 483 466 504T390 525T345 520Q295
492 271 463T246 387Z" />
<glyph unicode="P" glyph-name="P" horiz-adv-x="603" d="M351 248L367 252Q413 252 451 292T507 386T526 488Q526 598 436 656Q431 659 416 669T394 684Q371 697 348 697Q262 697 170 628Q165 603 165 572T169 516T181 460T192 414T208 345T224 261V152Q224 91
189 1Q165 -67 123 -67Q73 -67 41 44Q35 69 35 109T51 188T91 227Q105 227 109 221T116 212T121 202T124 193T127 182T129 169T126 162T116 161T110 169Q102 207 92 207Q72 206 64 177T55 111T73 26T123 -22Q127 -22 133 7Q135 10 136 15T140 28T148 56T155 88T161
125T167 160Q167 332 156 387T145 489Q145 565 148 612Q78 553 58 482Q57 477 63 450Q65 450 68 450Q87 450 100 473Q102 478 107 478T116 474T116 465Q107 444 91 433T61 421L53 422Q36 426 36 455Q36 513 85 580T210 692T347 737T465 701Q585 624 585 488Q585
430 557 365T478 253T367 205H353Q328 205 300 229T264 279Q263 281 259 295T254 320Q254 342 274 359T316 377Q327 377 329 372T329 362T321 357T309 357T288 345T274 318Q275 286 296 267T351 248Z" />
<glyph unicode="Q" glyph-name="Q" horiz-adv-x="612" d="M565 -36T595 -81T626 -175T599 -262Q561 -318 505 -318T406 -287T342 -206Q313 -137 306 -20Q185 -15 114 45Q2 139 2 287Q2 371 42 461T159 617T324 683Q385 683 425 650T466 557Q466 524 451 497Q511
476 550 413T590 282Q590 171 528 84T362 -18Q373 -147 406 -203Q419 -226 444 -243T508 -260T563 -236Q569 -227 573 -222T580 -213T584 -205T588 -196Q590 -189 590 -177Q590 -136 572 -100T519 -64Q502 -64 491 -83T480 -110T482 -124Q491 -147 480 -147T461
-129Q458 -121 458 -106T476 -63T519 -36Q565 -36 595 -81ZM440 48T489 120T539 285T493 424Q489 428 480 437T466 452Q455 463 437 476Q410 446 373 446T308 473T279 529T295 577T333 596Q348 596 364 587Q374 579 374 567T374 550T370 543T361 543T356 551Q356
567 334 569Q322 569 313 558T304 529T325 492T369 473T409 486Q388 486 384 491T385 500T403 505T424 504Q439 529 439 557Q439 604 406 629T317 655T206 616T114 520Q60 432 60 286Q60 167 151 90Q210 41 302 36Q302 116 299 140T293 185T285 219T270 246Q254
272 218 272Q202 272 184 251T166 211Q166 152 192 152Q203 152 208 163T213 182T211 197T213 207T223 210T230 203H231Q232 196 232 185T224 153T192 133Q147 133 147 211Q147 237 170 264T218 291Q310 291 334 185Q349 111 350 99T357 36Q440 48 489 120Z" />
<glyph unicode="R" glyph-name="R" horiz-adv-x="580" d="M474 226Q466 223 464 223T459 221Q450 221 450 230T458 241Q479 249 495 239T516 224T532 203Q572 147 572 110Q572 57 549 11T484 -35T400 0T346 82T315 244Q292 237 279 237T248 257T227 292T223 318T226
344T245 379T280 399Q281 399 282 399Q304 399 317 371Q319 364 324 354Q328 346 338 297Q378 326 414 375Q442 411 465 522Q468 540 467 547Q467 605 436 642Q391 694 307 694Q230 694 165 656Q160 653 138 642Q96 621 81 601Q78 597 65 581T47 558T33 538T20
513Q9 483 9 451T20 418Q21 418 21 418Q38 418 52 439T67 473T73 488T82 488T87 479H86Q85 454 64 426Q43 396 19 396Q-10 396 -10 451V460Q-10 533 57 619Q89 661 142 692Q149 696 169 709T198 726Q234 745 290 745Q380 745 448 700Q526 648 526 547Q526 523 514
479Q499 413 451 351Q410 291 346 256Q361 183 389 94Q399 61 427 35T488 8Q534 8 534 109Q534 180 496 217Q486 226 474 226ZM149 320L145 436Q145 489 170 535Q182 556 206 591Q208 595 211 595T217 595T222 590T222 579Q198 544 198 501T205 423Q207 393 207
338L211 125Q211 109 206 86T200 54Q198 8 170 -32T100 -72Q87 -72 68 -59T41 -35Q29 -15 29 20T45 93T93 132Q94 132 95 132Q117 132 125 85Q128 68 128 48T118 17T95 11T82 25Q84 40 103 30Q117 35 117 57Q117 65 115 75Q108 113 93 113Q71 112 60 78T48 19T58
-24Q62 -29 76 -36T100 -45Q130 -45 151 -14T174 59T177 126T168 189T157 250L149 320ZM302 334Q302 381 282 381Q274 381 263 366T246 334Q244 320 254 297T278 273T310 280Q306 316 302 334Z" />
<glyph unicode="S" glyph-name="S" horiz-adv-x="580" d="M26 -105Q19 -70 19 -66Q19 -24 52 36T90 104Q74 146 74 176T80 249Q86 311 117 363T200 428Q205 429 222 434T257 439T300 421Q323 466 335 511Q305 548 292 576T279 646Q279 649 279 660T292 698T326
724Q349 723 366 682T383 604T373 526Q378 518 392 503T412 480T430 461T448 442Q552 336 552 168Q552 165 552 162Q552 87 480 7T330 -73Q211 -73 127 37Q114 53 104 72Q86 45 79 31T63 1T51 -22Q41 -43 41 -65T43 -98Q46 -113 34 -113Q26 -113 25 -104L26 -105ZM360
367T382 320T404 237T393 164T356 97T298 68T248 93T230 148Q230 151 230 154Q230 183 250 217T295 252Q340 252 340 199Q340 185 329 180T308 179T297 199Q297 203 299 207T302 214Q302 218 298 218Q279 218 267 195T255 152T266 113T292 93Q337 93 361 139T385
243T326 374L318 382Q285 320 254 278T190 192T140 123Q155 94 174 72Q207 28 244 6T332 -16T439 46T495 161Q493 311 408 401Q395 413 386 428Q370 459 361 477Q351 447 328 399H327Q360 367 382 320ZM289 401Q269 410 255 410T226 405T206 399Q180 393 162 369T136
308Q122 245 122 208T125 159Q141 183 198 260T289 401ZM346 558Q352 595 352 616T346 664T326 693Q316 693 314 681Q311 663 311 651Q311 601 346 557V558Z" />
<glyph unicode="T" glyph-name="T" horiz-adv-x="493" d="M137 683L205 689Q298 689 367 666Q388 706 429 713Q435 714 438 710T440 701T432 694Q400 688 386 659Q416 646 426 641T455 634T530 618T603 605T628 602T641 600Q663 603 677 619T691 661T666 704T613
722Q610 722 607 722Q598 722 598 732T607 743Q651 743 688 720T725 660T702 600T645 572L617 564Q572 564 455 581Q430 585 377 613Q376 601 376 579T383 533Q439 331 439 183Q439 107 412 44Q397 11 369 -9T301 -29T232 14T202 92T221 150T265 174T304 158T319
120Q318 78 282 78Q259 78 258 85T259 96T273 98T291 101T299 119T289 141T266 149T240 133T228 96T251 48T300 20Q314 20 335 37T368 96T381 189T363 347T345 495T356 620L355 622Q333 631 315 637T281 648T256 655Q224 661 205 661L137 655Q87 654 45 616T2 528Q2
496 13 462T49 428Q83 428 125 479T167 561Q167 595 150 595Q139 595 125 583T105 561T90 555T88 572T113 599T150 614Q187 613 187 562Q188 530 164 482Q117 388 47 388Q11 388 -8 436T-28 526Q-27 589 24 636T135 683Q136 683 137 683Z" />
<glyph unicode="U" glyph-name="U" horiz-adv-x="560" d="M392 391L394 536Q394 577 406 625T446 673Q446 673 447 673Q494 673 494 517Q494 511 494 498Q494 324 470 246L464 225Q490 128 495 104T513 47T534 -6Q554 -54 612 -103Q616 -106 616 -111Q616 -119
606 -119L599 -116Q561 -87 551 -73T520 -36Q484 4 469 47Q464 61 451 93T430 146Q347 -28 250 -28Q249 -28 248 -28Q182 -28 140 24Q86 91 91 174Q92 190 92 197V202Q106 282 134 377T164 535Q164 643 122 643H109Q77 635 58 594T38 514Q38 481 45 456T62 431Q68
431 73 432Q104 432 104 457Q104 472 92 496Q87 504 95 509T108 507V506Q125 478 125 454Q125 409 72 405Q50 405 44 409T32 419T25 433T20 449T18 467T17 484V515Q17 559 41 605T104 661Q122 665 123 665Q158 665 181 619T205 535Q204 443 181 364Q171 325 147
195Q147 194 146 174Q145 110 174 67T250 22Q284 22 321 66T379 153Q408 221 410 226Q392 311 392 391ZM420 581L422 538Q422 506 431 446T440 366T444 329Q475 447 475 519Q475 653 446 653Q420 653 420 581Z" />
<glyph unicode="V" glyph-name="V" horiz-adv-x="524" d="M308 22L306 57Q306 138 376 282Q360 351 323 410T215 544Q209 550 193 573T165 605Q122 634 97 634Q42 633 30 545Q29 537 29 521T37 465T63 384Q69 370 86 353T118 335Q119 335 120 335Q135 335 146
349T158 381Q158 422 110 440Q104 442 103 447T106 456T116 458Q176 436 177 380Q177 355 160 334T121 313T74 334T41 375Q9 450 9 515Q9 530 11 544Q27 656 99 659Q157 659 188 636Q243 597 256 582Q365 467 398 324Q407 342 418 356Q519 524 584 584Q617 615
648 632T720 652Q744 652 772 617Q775 614 775 611T769 602T757 604Q743 622 728 622T688 611T654 593T619 566Q561 521 504 447T404 291Q417 212 417 114Q417 -38 360 -38Q343 -38 326 -15T308 22ZM333 57L337 24Q337 18 346 9T362 0T376 15T387 56T391 142T384
246Q361 197 348 144T333 57Z" />
<glyph unicode="W" glyph-name="W" horiz-adv-x="840" d="M534 517L531 451Q529 340 506 232Q514 212 517 200Q529 172 536 154T561 104T595 52T633 17T678 1Q791 1 794 279Q794 353 770 435Q757 477 733 505T678 534Q664 534 656 516Q653 509 647 509T636 514T634
527T650 546T679 557Q727 557 761 504Q821 412 821 279Q821 201 810 138T785 41T743 -18T677 -43T598 -7T534 69T489 159Q453 26 383 -48Q350 -82 324 -82T278 -53Q244 -1 244 60Q244 68 246 98T249 217T251 331T260 400T268 470T265 523T254 578T230 626T190 645Q126
645 83 579T40 441Q40 353 77 294Q99 260 131 260Q145 260 178 290T211 358T198 436T160 475Q143 475 143 443T174 394Q179 391 179 387T175 379T165 377Q124 400 123 442Q123 462 131 478T159 494Q194 494 212 451T231 368Q231 365 231 361Q231 297 195 264Q156
231 130 231Q75 232 44 303T12 432T32 541T93 633T190 673Q229 673 261 637T310 555T326 476T319 396T310 325T289 206T269 67T281 -18T323 -59Q337 -59 347 -48T363 -30T375 -12T385 5T395 23Q442 109 470 206Q431 318 431 440Q431 504 466 586Q480 613 496 613Q534
613 534 517ZM512 451L515 509Q515 535 511 564T496 594Q492 594 480 571Q463 525 463 441L466 398Q470 343 489 280Q511 376 512 451Z" />
<glyph unicode="X" glyph-name="X" horiz-adv-x="730" d="M758 121Q758 66 720 28T625 -11Q533 -11 477 81T381 314Q364 273 335 196T239 31Q199 -17 148 -17T51 42T6 156Q6 175 14 198T28 240T55 297Q86 353 118 353Q142 353 168 313T195 236T179 158T136 116T96
139T81 178T87 196T101 196T109 181T117 156T134 144Q146 144 157 180T167 230Q167 264 154 295T124 327Q102 327 80 287Q39 209 39 162T73 68T145 21T209 54Q266 126 299 217Q318 269 366 375Q299 652 214 684Q190 696 182 696T143 681Q54 636 54 571Q54 571 54
570Q54 528 83 497T153 466Q172 466 188 491T204 534Q204 537 204 547T198 569T176 581L153 566Q145 558 138 566T141 580Q164 600 173 600Q174 600 174 600Q222 600 222 534Q221 502 203 469T155 435Q100 435 62 473T24 565Q24 567 24 570Q24 670 125 720Q126
721 146 736T182 752T235 740Q269 727 302 673Q355 597 398 452L430 535Q453 596 474 627Q524 706 567 719Q576 722 603 725Q690 725 691 653Q691 618 662 593T601 567Q599 567 598 567Q581 567 549 584Q544 586 544 591T548 599T566 594T603 586T648 607T671 655T654
691T609 700T558 684T527 655T498 612T458 516T435 444L414 393Q445 268 458 235T478 184T490 156Q526 81 553 56T592 26Q613 18 647 18Q708 18 730 76Q738 99 738 110T738 129T733 159T719 183Q699 183 693 177T687 154T696 125Q702 114 690 111T669 127Q662 137
662 150Q662 202 718 202Q738 202 748 175T758 121Z" />
<glyph unicode="Y" glyph-name="Y" horiz-adv-x="618" d="M177 758L237 763Q290 763 340 707T390 597Q390 512 310 399Q307 394 275 349T231 284T203 227T188 164T211 113T274 83T334 76Q380 76 431 157Q459 203 505 314Q500 350 498 364T493 430T484 512T478
567T478 613T491 682Q496 704 518 704T558 669Q588 611 588 519T550 310Q579 178 584 132T589 21T571 -105T522 -223T440 -313T330 -348T216 -306T161 -207Q161 -133 213 -77T338 -20Q372 -20 395 -46T419 -106T398 -168T346 -207Q334 -212 321 -212T294 -203Q272
-187 272 -162T287 -116T323 -95T354 -123Q356 -129 352 -133T343 -136T336 -130Q333 -115 323 -113Q310 -113 301 -128T292 -158Q292 -184 317 -184Q357 -184 385 -145Q398 -126 398 -103T381 -60T338 -40Q278 -40 241 -90T203 -205Q203 -247 245 -272T332 -298Q396
-298 444 -245T514 -122T536 28T517 228Q485 157 462 119Q420 50 362 30Q347 25 336 25T308 24Q280 22 255 26Q206 35 168 74T130 161T153 259T205 348Q294 465 321 523Q322 526 327 536T335 551T340 564Q347 580 347 600Q347 639 313 685T237 731H177Q176 731
175 731Q129 731 77 680T24 575T88 446Q104 428 125 428T172 445T203 481T209 522Q209 581 196 582Q193 582 190 582Q173 582 161 566T146 526Q145 520 140 519T131 520T128 529Q132 567 149 592T192 617Q236 617 240 550Q240 540 240 522Q240 474 204 437T119
399Q100 399 86 413T68 433T54 454T44 470Q4 532 4 576T38 664Q112 758 176 758Q176 758 177 758ZM554 534V587Q554 600 553 610T550 632T545 652T538 668Q530 683 515 683Q513 683 506 669Q494 626 508 555Q528 460 535 404Q554 469 554 534Z" />
<glyph unicode="Z" glyph-name="Z" horiz-adv-x="773" d="M148 717L210 722Q261 722 353 685Q368 679 398 667Q500 625 545 623Q572 663 609 703T671 744Q685 744 696 727T708 696Q708 640 663 609T559 576Q539 537 510 461T470 362T424 259T360 139T304 67Q412
52 436 50T519 35T623 21T688 27T722 52T737 91Q737 129 690 151T603 174T563 152Q563 124 598 124Q600 124 603 124Q615 124 615 111T603 97Q601 97 598 97Q534 97 534 153Q534 177 553 191T600 205Q601 205 603 205Q652 205 710 172T768 93T734 19T657 -12T595
-15T509 -8T423 2T345 11T261 22Q178 -50 101 -50Q65 -50 38 -31T10 21Q10 40 49 61T116 82T237 75Q314 147 372 267Q378 280 394 315T423 378T469 472T519 577Q464 579 434 591T372 616T318 637Q264 659 215 664Q204 666 183 674T148 683Q114 683 92 666T69 616Q69
552 111 542Q118 541 125 541Q149 541 166 559T183 600T170 624Q168 624 167 624Q142 624 134 595Q133 589 128 588T119 589T116 599Q128 641 170 643Q203 643 203 603T176 538T116 513Q80 513 59 546T38 621T69 690T148 717ZM685 693Q685 724 671 724Q670 724
665 724T643 710Q607 677 584 624Q685 630 685 693ZM62 20Q62 7 76 7H101Q139 7 178 29Q138 31 100 31T62 20Z" />
<glyph unicode="[" glyph-name="bracketleft" horiz-adv-x="320" d="M71 352L72 430Q72 512 67 545T56 594Q47 623 71 623Q183 623 268 651Q272 652 276 652T286 647T291 633T279 619Q271 616 255 612Q253 598 238 598T206 593T177 585T145 572T115 560Q136 439
136 347Q136 314 121 254T105 155T93 78Q125 75 181 56T252 34Q267 24 278 20Q287 16 287 7T282 -8T272 -13T264 -11Q180 26 39 26Q28 26 25 31T22 41T29 58T44 90T57 134T65 174Q72 209 72 280L71 352Z" />
<glyph unicode="\" glyph-name="backslash" horiz-adv-x="506" d="M234 418T320 265T448 56T490 -12Q490 -17 484 -17Q448 -17 408 20Q393 33 387 42Q337 125 300 193T231 314T122 493Q27 651 27 657T38 663L37 664Q26 683 41 683Q50 683 70 666T114 614T163 535T211
454Z" />
<glyph unicode="]" glyph-name="bracketright" horiz-adv-x="320" d="M256 352L255 280Q255 209 260 184T270 134Q279 92 302 52Q306 45 306 40Q306 26 288 26Q147 26 63 -11Q59 -13 55 -13T45 -8T39 6T49 20L66 27L75 34Q91 38 146 56T234 78Q222 115 222 154T207
254T192 347Q192 445 212 560Q202 564 183 572T152 584Q122 596 88 598Q74 598 72 612Q56 616 48 619Q36 623 36 632T41 647T50 652T59 651Q144 623 256 623Q266 623 271 617T271 595T262 554Q255 512 255 431L256 352Z" />
<glyph unicode="^" glyph-name="asciicircum" horiz-adv-x="635" d="M101 396T93 396T85 403T97 424Q227 554 274 554Q277 554 311 529Q417 451 436 440T455 417T446 404Q439 404 427 411T370 434T301 464T265 479T244 475Q213 455 169 435T113 405Z" />
<glyph unicode="_" glyph-name="underscore" horiz-adv-x="833" d="M36 -152Q-22 -158 -22 -144Q-22 -139 -13 -128Q76 -116 114 -116T168 -118T218 -134Q255 -150 270 -150T303 -145T330 -139Q536 -127 579 -127L753 -130Q808 -130 836 -126Q845 -126 848 -131T852
-140Q852 -154 839 -158Q810 -162 755 -162L583 -159Q518 -159 333 -170Q323 -170 304 -175T278 -181T263 -181T229 -168T190 -154Q154 -146 132 -146T93 -147Q64 -149 36 -152Z" />
<glyph unicode="`" glyph-name="grave" horiz-adv-x="304" d="M252 474Q252 471 250 467T242 463T221 468T148 484T66 504T42 534T53 557T72 560T93 555T159 521T242 483Q252 479 252 474Z" />
<glyph unicode="a" glyph-name="a" horiz-adv-x="281" d="M162 354Q255 354 255 289Q255 266 240 249H241Q251 223 251 194T240 134Q253 66 282 -1Q284 -5 284 -10T279 -22T270 -29Q262 -29 251 -9T232 48T220 96Q171 25 124 25Q122 25 121 25Q71 25 42 56T13
130T18 204T38 272T82 330Q114 354 162 354ZM235 284Q235 336 171 336Q123 336 93 289T62 188T78 97T132 60Q156 60 176 78Q207 106 207 124T201 176T195 222T200 245Q192 259 189 263T191 272T203 271H202Q209 261 216 260Q220 262 223 262Q235 274 235 284Z"
/>
<glyph unicode="b" glyph-name="b" horiz-adv-x="330" d="M62 514L69 456Q71 392 86 293Q142 351 200 352Q224 352 258 330T300 288T309 213T286 100T228 -1Q208 -27 165 -27Q157 -27 140 -13T122 6Q109 25 109 59Q109 67 119 83T131 102Q135 111 143 108T151
99T149 86T147 74T145 68L147 60Q147 53 156 43T165 32T165 25Q174 25 184 37Q212 72 231 120T251 212T248 264Q224 315 202 315Q143 315 92 259Q104 179 105 113Q105 96 98 63T83 13Q72 -13 51 -13T29 -1Q29 3 32 6T43 8T58 19T68 53Q75 92 75 111T65 215Q56 196
56 182T50 164T38 163T31 174V175Q31 218 59 258Q38 387 35 455L41 553Q43 561 50 561Q63 561 62 550V514Z" />
<glyph unicode="c" glyph-name="c" horiz-adv-x="342" d="M245 230Q262 230 262 260V279Q262 334 194 334Q161 334 135 301T95 227T82 151Q82 90 111 55T195 19Q215 19 236 40T258 76Q258 110 240 110Q228 110 228 97T220 80T203 81T196 100T209 128T240 141T271
123T283 79T252 22T195 -10Q125 -10 87 33T48 152Q48 196 65 248T117 342T199 383T269 374T306 337T320 278T299 223T248 200Q246 200 245 200Q221 200 212 212T202 234T205 255T216 267T231 263T234 245T245 230Z" />
<glyph unicode="d" glyph-name="d" horiz-adv-x="336" d="M304 -34L316 -38Q318 -38 325 -36Q335 -31 335 -37Q335 -50 323 -57T306 -65Q281 -65 261 -39T233 14T215 87Q203 52 202 50T193 38Q178 18 167 16T145 14Q101 14 58 54Q5 104 5 171Q5 195 10 232T45
302Q79 339 115 339Q133 339 155 319Q181 296 181 265T161 208Q153 196 140 194T111 199T94 217T93 233T99 246T104 259Q106 263 110 263T117 261T119 252Q113 237 115 225Q116 222 123 218Q140 210 149 231T159 262T158 279T142 298T121 309Q78 309 59 252Q46
213 46 191T48 158Q54 118 84 89T145 59Q151 59 156 60T169 71T187 92T199 107T207 127Q196 198 196 245T197 311T201 354T206 389Q217 479 259 548Q271 568 285 568Q286 568 287 568Q319 563 319 488Q319 392 267 267Q258 245 243 218Q244 173 249 141T257 88T263
50T272 12Q283 -32 304 -34ZM246 279Q295 404 295 507Q295 537 284 543Q283 543 283 542Q283 537 281 533T276 522T270 507T262 480T257 451T253 417T248 365T242 271L246 279Z" />
<glyph unicode="e" glyph-name="e" horiz-adv-x="254" d="M203 326T223 300T244 247T225 193T175 165Q161 165 126 180T76 208Q45 130 93 64Q112 38 135 38T186 57T221 96T239 114Q245 113 245 107T241 91Q228 56 202 31T143 6Q94 7 62 40Q31 72 18 125Q18 191
50 248T143 323Q157 326 180 326ZM194 193T204 211T215 246T202 280T177 297T152 290Q107 277 84 227Q85 227 89 223T129 206T179 193Z" />
<glyph unicode="f" glyph-name="f" horiz-adv-x="325" d="M105 -71Q105 -23 80 -23Q58 -23 43 -58T27 -130T44 -201T87 -235Q88 -235 88 -235Q117 -235 136 -196T157 -115T160 -41T158 24T148 97T136 160Q130 190 105 298Q70 293 59 278Q56 273 51 274Q38 277
44 289Q58 311 99 323Q83 393 83 465Q83 620 158 675Q183 696 216 696Q334 696 335 582Q335 546 319 519Q312 506 287 492T241 477T204 494T188 536Q187 582 228 582Q237 582 239 578T239 569T227 564Q207 566 207 540Q208 513 244 513Q252 513 260 528T274 553T280
589Q280 662 216 662Q186 662 176 653Q135 622 126 568Q119 526 119 466T138 330Q151 332 176 332L212 333Q227 333 234 337T235 353T234 374T251 386T271 376Q283 356 283 342T274 318Q256 295 212 295L176 300H146Q151 282 164 238Q216 62 216 -43Q216 -97 214
-122Q210 -177 173 -233T87 -290Q59 -290 35 -267T-1 -208T-13 -138Q-13 -72 32 -26Q58 1 81 1Q110 1 123 -35Q128 -49 128 -59T128 -73Q128 -98 113 -137T78 -177Q60 -177 50 -153Q47 -146 51 -140T63 -134Q72 -134 75 -147L78 -151Q92 -150 98 -123T105 -71Z"
/>
<glyph unicode="g" glyph-name="g" horiz-adv-x="342" d="M291 -1Q291 -113 256 -202Q237 -252 219 -277T162 -326Q155 -331 141 -341Q119 -357 99 -357Q55 -357 23 -299T-10 -182T32 -63T139 -2Q140 -2 141 -2Q198 -2 198 -94Q198 -137 175 -188T113 -240Q64
-240 66 -179Q66 -145 80 -112T114 -79Q120 -79 127 -82L136 -101Q136 -107 131 -110T121 -111T115 -103Q119 -100 120 -100Q107 -96 98 -119Q90 -138 88 -149L86 -178Q86 -206 113 -206Q133 -206 149 -163T165 -95Q165 -31 140 -31Q139 -31 138 -31Q85 -31 52
-82T19 -182T41 -276T97 -321Q111 -321 127 -309T144 -297Q175 -278 189 -256T221 -187Q251 -107 251 -2Q251 36 246 81Q208 47 151 47T56 87T18 175Q18 178 18 182Q18 262 41 313T139 388Q147 390 165 390Q197 390 220 363T244 306T229 255T195 234Q182 234 172
260Q170 266 174 269T183 273T190 267V265Q190 264 192 260T196 256Q208 256 216 269T225 301T206 333T172 347T137 338Q90 320 79 284T67 175Q67 142 88 116T141 90Q214 90 244 116Q242 150 242 173T254 252T280 308T303 284T311 241L314 224Q314 160 282 119Q291
31 291 -1ZM281 278Q273 278 273 257T276 207T280 172Q290 195 291 226Q292 247 292 248Q292 278 281 278Z" />
<glyph unicode="h" glyph-name="h" horiz-adv-x="358" d="M288 60L290 37Q290 27 282 23T265 22T256 36Q256 71 277 86Q288 94 300 94L319 88Q340 76 340 37T311 -25Q291 -41 276 -41Q220 -41 205 12Q193 50 193 65Q193 99 226 164T260 265Q260 339 222 339Q178
339 149 282Q128 240 112 192L87 118Q86 111 86 96T81 38T68 -12T53 -16T44 -3Q53 42 53 85T60 233Q62 236 61 255T59 280L61 432Q61 534 27 605Q23 613 23 620T31 637T54 647Q72 647 80 629Q99 588 108 530T117 442T118 371T115 310T112 281L106 233Q156 364 222
364Q259 364 284 333T310 264T272 157T233 65Q233 -13 273 -13Q292 -13 306 12Q314 27 314 42T311 67T300 75Q288 73 288 60Z" />
<glyph unicode="i" glyph-name="i" horiz-adv-x="177" d="M125 446Q125 426 115 413T88 399Q62 399 62 449Q62 467 68 473T93 479Q125 479 125 446ZM181 -18Q181 -32 162 -49T122 -67T74 -37T47 29T52 93T59 147T64 184T65 211T63 232T63 249T57 276Q47 286 53
301T75 317Q76 317 76 318V319Q79 319 82 319Q120 319 120 252Q120 198 109 156Q87 79 87 22Q87 0 98 -24T127 -48Q134 -48 152 -29T176 -9T181 -17V-18Z" />
<glyph unicode="j" glyph-name="j" horiz-adv-x="242" d="M89 422T99 437T121 462T135 471T140 469L170 439Q169 418 162 409T138 391T112 381Q91 381 90 413Q89 422 99 437ZM34 -363Q-11 -363 -43 -326T-76 -214Q-76 -193 -68 -156T-21 -73T58 -28Q87 -28 102
-60T118 -127T93 -202T28 -243Q16 -243 4 -223T-9 -188Q-7 -154 20 -141Q25 -139 29 -142T33 -150T28 -157Q10 -165 9 -189Q9 -198 15 -209T30 -220Q55 -220 74 -189T93 -131T84 -78T59 -52Q23 -53 -9 -91T-48 -156T-54 -214Q-54 -281 -6 -303Q10 -310 33 -310T86
-286Q148 -235 148 -118Q148 -53 130 32Q100 212 96 229T90 276Q90 289 100 297T115 306Q120 306 119 299T119 281T127 259T136 230T161 143Q206 -3 206 -116T154 -296T34 -363Z" />
<glyph unicode="k" glyph-name="k" horiz-adv-x="381" d="M86 255L89 179Q89 166 89 150T88 125Q110 213 143 283Q207 419 281 419Q348 419 348 345Q348 297 308 250T231 202Q225 202 207 206Q213 187 218 152Q237 31 283 31Q306 31 317 54T328 96Q328 140 298
140Q280 140 286 121Q287 110 276 109T263 118Q262 136 269 151T298 167Q339 167 350 128Q355 114 355 95T341 50Q320 11 288 11T232 32T200 81T187 152Q187 213 175 235V236Q172 242 175 247T184 252T193 245V244Q196 237 208 230T232 222T254 230Q268 239 292
268T317 341T281 385Q237 385 188 293Q131 184 106 45Q105 40 105 33L110 -25Q110 -35 90 -40Q83 -41 76 -41T64 -31T54 1T45 38T40 82T38 122Q35 182 35 202L34 254L30 301Q30 436 60 556Q73 604 104 652T176 700Q177 700 178 700Q214 700 228 669T242 604T233
539T215 491T185 440T156 391Q151 383 143 387T140 403T166 447T196 496Q223 547 223 599Q223 682 177 682Q159 682 150 672T135 656T125 638T117 619T110 598T104 579Q97 549 97 547Q81 486 81 385Q81 385 81 301L86 255Z" />
<glyph unicode="l" glyph-name="l" horiz-adv-x="212" d="M39 81T34 81T26 84T23 92T59 172Q54 230 65 363T77 506Q86 607 118 693Q132 730 160 730Q189 729 204 679T220 584Q220 416 108 220Q109 157 120 76T149 -40Q156 -58 157 -60T159 -64T160 -67T161 -69Q177
-69 189 -54T208 -16Q218 28 218 60Q218 66 223 68T233 69T239 60Q239 -11 207 -65Q188 -97 162 -97T110 -47T78 36Q67 113 64 137Q50 109 41 86Q39 81 34 81ZM160 686L161 676Q159 670 157 658T152 641Q133 590 127 503Q125 478 120 428Q110 325 108 259L110 264Q199
428 199 587Q199 618 190 653T161 688Q160 687 160 686Z" />
<glyph unicode="m" glyph-name="m" horiz-adv-x="477" d="M455 -17Q421 -17 393 35T356 128Q355 133 350 179T336 249Q314 242 276 183T218 83Q214 74 200 77T186 92T187 125T189 162T193 198T197 226T198 263T197 295Q181 281 142 233Q64 136 43 53Q41 47 34
46T22 48T16 54T25 94T35 140T39 171T42 204T43 234Q43 267 30 293Q26 302 34 306T48 302Q64 268 66 222Q85 258 129 308T201 359T242 339T256 278T236 183Q297 292 343 292Q368 292 381 259Q407 187 414 138Q415 134 417 93T428 28T456 3Q461 3 467 9T479 17T488
15T492 6T488 1T479 -7Q469 -17 462 -17T455 -17Z" />
<glyph unicode="n" glyph-name="n" horiz-adv-x="413" d="M130 242L131 286Q131 338 116 353Q108 361 94 361Q67 361 41 331T15 272Q15 260 22 241T41 221T65 232T76 256T73 274T60 278T48 281T47 291T55 296V297Q58 297 70 297T91 290T99 259T81 219T38 200Q23
200 7 228T-10 273Q-9 311 24 351T91 392T147 364Q183 319 186 243V203Q236 321 245 334Q285 394 328 394Q349 394 365 368T382 320Q382 274 373 251Q344 181 344 107Q344 19 374 -41Q386 -41 399 -34T417 -29T422 -37T417 -45Q389 -62 371 -62T338 -30Q336 -25
329 -11T319 13T310 36Q300 64 300 82T300 109Q300 215 324 271Q339 306 338 320Q338 358 328 358Q294 358 266 310Q245 275 227 237Q194 164 161 4Q160 -2 151 -3T133 0T124 10Q130 75 130 143T130 242Z" />
<glyph unicode="o" glyph-name="o" horiz-adv-x="323" d="M233 272Q258 272 274 233T291 154T265 64T202 -6Q170 -19 159 -19Q118 -17 76 15Q49 36 31 75T13 143T22 220T75 319Q116 363 161 363Q188 363 206 349T225 312T216 271T191 252Q190 252 189 252Q164
252 142 289Q139 293 141 297T148 301T156 298Q160 292 171 282T190 272Q202 272 206 307Q206 329 161 329Q152 329 147 327T138 324T132 320T126 316T121 311T116 305Q111 299 101 287T85 259T78 217T74 174T71 152V120Q71 83 75 74T82 60Q88 48 97 41Q138 12
160 12T209 32T249 77Q272 123 272 166T247 234Q233 243 231 228Q231 225 236 215T236 198T222 192T211 198T204 213T199 231T211 256Q224 272 233 272Z" />
<glyph unicode="p" glyph-name="p" horiz-adv-x="375" d="M-1 -120Q-1 -85 -19 -85Q-41 -85 -59 -122T-80 -177T-82 -207T-79 -246T-58 -300T-12 -329Q26 -329 54 -240Q75 -169 75 17Q75 70 59 179T43 321T43 361Q43 382 73 416Q77 420 80 420T87 419T94 412T93
401T92 390Q101 365 101 358T101 330T105 261Q133 320 175 367T248 414Q300 414 324 372T349 268T323 134T248 26Q226 10 203 10T163 48T146 113T164 171T208 203T239 159Q239 151 233 147T221 146T215 155T215 167Q218 180 208 180Q177 180 177 113Q177 100 184
82T202 64Q203 64 223 80Q251 100 271 161T292 266Q293 377 249 377Q248 377 248 377Q212 377 171 326T111 221Q132 60 132 16Q132 -132 95 -252Q84 -290 54 -327T-12 -364Q-64 -363 -88 -299Q-107 -248 -107 -206Q-107 -161 -78 -111T-22 -60T16 -84T28 -138Q28
-220 -28 -227Q-37 -228 -41 -222T-43 -208T-31 -199Q-1 -196 -1 -139V-120Z" />
<glyph unicode="q" glyph-name="q" horiz-adv-x="317" d="M403 -244Q403 -275 378 -313T324 -352Q283 -352 252 -319T204 -234Q175 -137 175 -54Q175 -22 178 11Q137 -21 101 -21Q51 -21 22 22T-8 126T14 252Q39 333 98 378Q106 384 112 389T128 396T143 398T168
399Q168 399 200 399Q216 399 234 388Q268 366 268 331T246 266T198 236Q186 236 168 250Q164 253 153 279Q151 284 154 288T162 293T170 288L169 287Q191 265 197 265Q198 265 198 265Q218 265 232 284T246 327Q245 350 236 358T214 367T200 367Q175 367 140 351Q136
349 125 335T112 319Q80 289 63 234T44 122Q44 3 100 3Q140 3 181 38Q182 45 184 68T189 106T213 169T244 218Q259 218 268 205T278 163T243 69Q237 61 227 52Q220 -9 220 -42T223 -108T228 -158T238 -211T255 -264T283 -300T322 -316T357 -291T372 -244Q372 -186
330 -185Q326 -185 319 -193T312 -207Q312 -231 340 -231Q341 -231 342 -231Q351 -231 351 -240T343 -251Q293 -251 292 -207Q292 -195 306 -180T326 -164T335 -164Q362 -164 376 -176T397 -211T403 -244Z" />
<glyph unicode="r" glyph-name="r" horiz-adv-x="315" d="M45 109L46 141Q46 317 22 326Q14 328 14 334T18 345T28 347Q46 341 62 318Q88 278 93 208Q125 323 159 384Q203 458 253 458Q285 457 306 424T327 351T298 253T233 193Q217 193 204 221T190 276T209 339Q212
345 217 345T226 341T224 325T218 269T232 223Q259 223 271 267T283 359T273 421Q265 431 252 431Q184 431 115 196Q110 177 110 143T106 92Q109 67 109 40T99 -8Q86 -37 65 -37Q55 -37 49 -28T43 -8L47 17Q55 29 50 57Q45 89 45 109Z" />
<glyph unicode="s" glyph-name="s" horiz-adv-x="228" d="M81 120L82 138Q82 143 86 145T93 145T97 138Q97 116 107 117Q119 119 126 139Q128 145 128 150L125 164Q125 176 119 188T103 200Q98 200 90 184Q67 153 67 108T92 31Q93 30 94 26Q96 17 101 17Q117 17
142 50Q183 112 183 184Q183 215 176 229T141 251Q134 253 110 257T77 266T57 284T47 329T76 402Q114 457 156 457Q176 457 196 437T217 388T203 334T166 309Q156 309 147 321T137 341T137 352T143 360T150 367T157 369T163 365T162 357L164 358Q156 350 156 345T159
333T166 327Q182 327 192 345T203 384T188 417T164 430Q128 430 102 391T76 321Q76 297 94 289Q108 283 126 280T150 276Q185 265 199 243T213 184Q213 97 171 31Q152 1 148 -3Q123 -28 107 -28T76 -18T54 3Q20 50 20 110T52 211Q67 233 103 233Q104 233 105 233Q124
233 136 210T148 164L144 150Q144 130 125 112T97 94Q84 94 81 120Z" />
<glyph unicode="t" glyph-name="t" horiz-adv-x="283" d="M110 35L109 11V-3Q109 -11 110 -17T112 -29T116 -40T122 -48Q129 -53 144 -47Q183 -29 202 26T221 136Q221 141 221 156T222 178Q220 197 211 208T194 224Q176 224 168 206Q158 179 158 160V115Q158 77
171 77Q181 77 181 108Q181 117 190 117T202 108Q202 90 195 74T172 58T148 77T138 115Q142 248 195 249Q215 249 230 226Q254 187 254 136Q254 -26 170 -64Q149 -74 126 -74T84 -50Q53 -13 53 32Q57 133 61 160T71 219T81 277T90 334Q78 332 65 332T41 343T29
368T33 383T43 384T48 374H49Q49 351 71 351Q79 351 92 356Q95 391 95 443T81 553Q79 559 82 562T88 565Q96 565 98 558T107 539T114 521Q129 453 129 379Q157 393 174 393Q216 393 234 348Q236 342 233 338T224 335T216 342Q208 363 175 363Q157 363 129 349Q129
294 122 256Q110 182 110 62Q110 49 110 35Z" />
<glyph unicode="u" glyph-name="u" horiz-adv-x="301" d="M75 240L67 175Q67 102 96 102Q119 102 139 123T173 177Q193 224 208 287Q210 297 223 297T238 292T251 270Q259 242 272 179T291 99T296 74T288 58T271 50Q245 50 239 70T230 112T225 163T220 207Q172
68 96 68Q70 68 53 104T35 164T38 209T43 240T49 261T55 279T61 287T70 287T74 278T73 259T75 240Z" />
<glyph unicode="v" glyph-name="v" horiz-adv-x="343" d="M386 386Q393 386 393 378T388 367Q360 351 291 270Q267 242 251 206Q258 160 258 127T248 57T214 19T187 65Q185 114 224 205Q211 254 176 318Q155 355 124 355Q79 355 59 293Q48 263 48 240T55 199T77
180Q83 180 89 183T104 204T113 228T105 243T99 256T107 261T116 258H115Q116 256 122 250Q134 236 134 226T124 196T105 171Q85 160 67 160T34 175Q7 202 4 242Q4 270 12 287Q24 310 30 320T38 333Q70 386 124 386Q196 386 239 256L242 242Q260 277 279 297Q326
351 380 384Q383 386 386 386ZM237 90L235 125Q235 138 233 162V164Q206 89 206 61T216 31Q237 31 237 90Z" />
<glyph unicode="w" glyph-name="w" horiz-adv-x="460" d="M64 339Q30 339 32 262Q33 249 33 239T36 217T50 206T65 213T71 231T80 241T91 232Q91 206 80 187T50 168T20 192T9 250T20 325T62 365Q130 365 164 220Q169 193 171 120Q175 60 184 43Q188 35 195 44Q211
64 221 83Q214 115 214 159Q214 296 265 296Q279 296 282 291T288 282T290 272T291 262V243Q291 158 251 81V80Q258 37 277 15Q281 9 283 9Q316 9 344 53T384 145T396 210T395 234Q389 336 361 356Q348 365 332 361Q329 360 320 349Q317 341 309 341T296 346T293
362Q313 412 341 412Q354 412 369 401Q408 372 428 298Q436 268 436 238T426 164T397 79T349 11T284 -17Q255 -17 231 46Q218 28 217 27Q202 10 191 10Q153 10 141 57Q134 85 133 137Q131 232 104 302Q89 339 64 339ZM261 242L262 263V264Q245 256 245 157V141Q261
195 261 242Z" />
<glyph unicode="x" glyph-name="x" horiz-adv-x="419" d="M55 62L56 50Q56 21 81 20Q87 20 94 31Q124 61 140 86Q165 124 207 207Q192 253 180 283T147 343T100 372T52 354T28 313T35 271T60 252Q92 252 92 277Q92 285 89 288T77 291T68 300T77 310Q97 310 104
303T112 275T97 240T60 227Q7 227 7 311Q8 346 37 375T106 404T176 362T234 251Q249 276 265 314T299 375T343 399Q383 399 398 347Q399 342 399 340Q399 319 367 302Q362 300 358 303T353 312Q353 316 360 320Q372 329 372 340L363 363Q358 372 343 372T313 348T284
290T265 249L246 217Q265 168 271 157T289 114Q317 40 339 18Q355 4 371 4T391 -3T392 -17T381 -24T370 -24T360 -20Q347 -14 327 6Q290 39 277 63Q277 64 258 92T233 132T220 165Q217 159 207 135T191 100T176 72Q154 28 130 4Q125 -1 124 -3T117 -10T109 -16T102
-20Q93 -25 81 -25Q29 -24 29 49Q29 79 58 130T110 183Q121 183 127 176T133 165T135 148T126 136T116 148T114 162T110 162Q91 162 76 126T55 62Z" />
<glyph unicode="y" glyph-name="y" horiz-adv-x="383" d="M140 335Q140 375 104 375T47 338T27 259T62 216Q71 216 74 220T77 234T82 245T92 246Q97 243 97 225T91 198T62 189T22 199Q1 216 1 262T30 353T103 398Q178 395 178 323Q178 311 171 265T161 206Q156
184 156 141Q156 71 187 71Q226 71 259 139Q260 141 263 149Q237 221 237 278Q237 358 281 358Q300 358 309 334T318 287Q318 221 292 155L291 156Q297 141 313 105T338 49Q360 -8 360 -53Q358 -121 347 -161T303 -238T228 -290T164 -306T127 -299Q80 -279 48 -233T15
-132T59 -41T164 -3Q201 -3 231 -32T262 -95T236 -162T181 -195Q163 -195 137 -175T110 -140T120 -110T132 -88T144 -87T142 -110T130 -138T147 -158T176 -169T208 -144T228 -97T208 -52T165 -29Q124 -29 91 -61T58 -133T83 -204T147 -252Q155 -256 169 -256T216
-245T265 -214Q325 -152 325 -88Q325 -27 320 -4T306 40T289 84T276 120Q232 39 188 39Q187 39 186 39Q147 39 123 85T99 172Q99 188 109 216Q140 308 140 335ZM277 192Q288 242 288 284T277 327Q264 327 257 302Q254 293 255 284H256Q260 244 277 192Z" />
<glyph unicode="z" glyph-name="z" horiz-adv-x="347" d="M130 342L228 333Q240 333 260 338Q284 344 289 344Q298 344 301 331T294 313T266 287T243 259Q177 204 101 78H116Q137 78 171 67T223 55Q251 55 274 89T298 148T295 179Q290 190 264 190Q254 190 238
171T222 135T242 119Q248 119 250 115T250 106T237 101T212 109T197 138T219 187T264 215Q273 215 289 209Q327 202 327 149Q327 113 295 66T223 19Q204 19 169 29T119 40T95 37T75 26Q58 16 52 16T32 31T19 51T20 59Q121 231 204 302L134 312Q124 319 100 311T72
299T62 296T56 303T59 312V311Q70 320 91 331T119 342T130 342Z" />
<glyph unicode="{" glyph-name="braceleft" horiz-adv-x="320" d="M247 11T236 9T209 6T171 15Q112 18 86 65T59 176Q59 201 80 226Q84 249 79 256T63 268Q47 272 28 274T9 290Q9 300 20 306Q25 306 51 320Q97 344 110 361Q99 365 100 376T102 398T101 420Q94
428 70 451T34 494T21 542T45 603T105 657Q183 703 249 707Q259 707 264 699T265 682T253 673T230 671Q227 661 218 657Q165 639 135 615T104 553Q104 526 116 488T132 435Q151 406 151 381Q151 337 92 304Q133 288 133 258Q133 242 110 213Q100 177 100 154T124
97T179 48Q194 48 252 65Q263 66 269 59Q270 59 273 61Q285 69 293 64T301 48T291 32Q284 29 272 23T254 14Z" />
<glyph unicode="|" glyph-name="bar" horiz-adv-x="320" d="M184 578L180 473Q180 460 180 419T175 274T170 130T174 68T178 0Q178 -18 163 -18Q131 -18 112 20Q105 38 105 59T106 111V112Q115 220 115 297Q115 297 118 646Q118 663 136 663V664Q136 684 152 684Q161
684 171 666Q184 639 184 578Z" />
<glyph unicode="}" glyph-name="braceright" horiz-adv-x="320" d="M43 64L52 59Q56 66 68 65Q126 48 141 48Q173 63 197 96T221 160Q221 168 211 213Q187 241 187 258Q187 288 228 304Q169 337 169 381Q169 407 189 435Q191 444 203 486T216 553Q216 619 102
657Q93 661 91 671Q77 673 68 673T55 682T56 699T72 707Q136 703 215 657Q251 636 275 604T299 542T287 494T251 452T220 420Q218 409 218 399T220 377T211 361Q225 343 244 333Q287 310 300 306Q312 300 312 290Q312 276 295 274Q250 271 242 257Q237 249 241
226Q261 200 261 176Q261 113 235 66T149 15Q130 6 113 6T85 8T67 14T48 23T29 32Q19 38 19 44T20 56Q27 71 43 64Z" />
<glyph unicode="~" glyph-name="asciitilde" horiz-adv-x="413" d="M361 542T371 530T382 495T364 456T316 438T225 470T152 502Q116 502 116 477Q116 468 134 464T152 455L143 447V448Q95 455 95 477Q95 530 152 530Q194 530 251 501T320 472Q366 472 366 498Q366
518 351 523T335 531T338 538T344 542Q361 542 371 530Z" />
<glyph unicode="&#xa0;" glyph-name="uni00A0" horiz-adv-x="0" />
<glyph unicode="&#xa1;" glyph-name="exclamdown" horiz-adv-x="262" d="M150 261Q117 261 100 287T82 341T101 390T142 412T178 388Q185 376 185 365T180 344T151 325Q142 321 139 330T143 343H144Q156 347 156 364T141 381Q134 381 128 369T122 347Q122 307
155 306Q164 306 174 314T186 330T193 326T197 302T183 276T152 261Q151 261 150 261ZM156 92Q156 86 153 58T147 -43T139 -145T134 -181T126 -218T119 -268L122 -302Q122 -321 111 -327T93 -334T80 -331Q65 -324 64 -306H65L60 -268Q61 -248 68 -213T76 -170T82
-154T87 -137T98 -98T109 -52T122 12T133 86Q133 139 111 139Q101 139 97 146T97 162T111 170Q156 169 156 92Z" />
<glyph unicode="&#xa2;" glyph-name="cent" horiz-adv-x="342" d="M284 615T306 586T328 519T307 459T260 436Q211 436 211 473Q211 502 227 502Q236 502 240 496T242 482L243 483Q242 480 242 476T245 469T253 465Q270 465 270 500T255 552T202 569Q153 569 122
505T90 385T118 291T203 254Q224 254 244 275T265 312T261 336T248 345T237 330T221 314Q203 314 203 332T217 363T249 376T279 358T291 315T261 258T207 225T166 228Q165 203 161 163T155 107T148 89T138 86T127 90T121 108T127 166T132 240Q56 276 56 388Q56
431 72 482T123 575T202 618H209Q231 686 240 722Q243 736 257 736Q263 736 269 731T273 716Q266 690 244 618Q284 615 306 586Z" />
<glyph unicode="&#xa3;" glyph-name="sterling" horiz-adv-x="644" d="M489 650Q489 589 453 541T358 478Q348 475 342 482T337 498T349 510Q397 524 426 562T456 646T411 714T315 738Q291 738 276 731Q259 708 245 679Q205 555 186 380L245 394H346Q362 394 365
382T350 360T302 346T235 342T179 338Q146 155 56 69L45 53Q85 50 167 25T293 -1T400 29Q409 32 417 27Q438 42 438 59T433 88T433 107T449 114T463 104Q471 81 471 64Q471 16 425 -8Q364 -39 306 -39T158 -12T21 15H11Q-3 4 -19 -2T-40 4Q-41 7 -41 13T-32 30Q-37
41 -29 49Q-11 76 17 99T52 131Q74 178 96 261Q100 286 106 335L84 333Q74 333 69 341T67 357T82 366L112 368Q121 420 124 434T138 512Q171 704 236 748Q238 749 240 751T243 754Q274 772 311 772T385 762T456 723T489 650Z" />
<glyph unicode="&#xa4;" glyph-name="currency" horiz-adv-x="561" d="M255 353Q277 385 326 385Q350 385 371 372Q394 421 409 437T438 467T458 485Q468 490 472 485T477 475T472 466T454 449Q427 426 420 413T403 381T388 355Q401 336 401 307Q401 301 401 295Q401
258 384 218Q380 208 368 176Q393 163 421 140T458 109T469 97T474 93Q473 84 466 83T455 83Q380 144 352 158Q338 149 325 149T292 153T268 158T240 160T206 166Q166 126 96 75Q92 73 88 73T79 79T82 95Q133 132 187 182Q146 221 146 267T182 341L204 352Q198
357 171 379T133 410Q93 445 72 471Q70 476 70 479Q70 490 80 490Q85 490 90 487Q112 458 141 434T195 390T231 360L253 365L255 353ZM271 322L274 314Q280 304 273 297T256 298Q250 305 249 312L222 336Q208 331 198 322Q171 296 171 265Q171 215 218 187Q227
182 248 182Q268 181 297 176T330 172Q355 178 369 246Q377 283 377 304T371 334Q354 364 317 364Q303 364 293 360Q271 337 271 322Z" />
<glyph unicode="&#xa5;" glyph-name="yen" horiz-adv-x="618" d="M367 244L452 248Q478 248 503 239T539 215T541 192T526 194Q511 213 475 213T367 204L372 35Q372 18 335 18Q315 18 316 30Q322 65 322 110T319 202Q297 200 252 193T170 184Q163 184 160 198T159
226T169 240L316 244V281Q310 297 307 309Q290 307 247 301T170 292Q163 292 160 306T159 334T169 348Q233 352 293 352Q253 474 190 557Q163 593 113 617T38 642T0 638T-18 646Q-19 649 -19 652Q-19 660 -9 664Q17 673 53 673T136 650Q213 613 253 557Q325 455
342 353H346Q361 431 412 499T530 615Q563 640 616 663T681 693T695 699T704 696T709 685T701 672Q623 629 548 576Q492 535 446 476T380 353L437 356Q479 356 494 351Q528 339 539 324T541 301T527 301T513 313T493 320T470 322T444 322T418 319T392 315T370 312Q366
295 366 271V244H367Z" />
<glyph unicode="&#xa6;" glyph-name="brokenbar" horiz-adv-x="320" d="M184 598L180 541Q180 534 180 517T175 470T170 425T174 402T178 369Q175 361 160 361T126 370Q105 380 105 399Q105 408 106 422V423Q106 428 110 460T115 511L118 646Q118 662 136 664Q136
684 152 684Q161 684 171 666Q184 639 184 598ZM184 224L180 166Q180 159 180 142T175 95T170 50T174 27T178 -6Q175 -14 160 -14T126 -5Q105 5 105 24Q105 33 106 47V48Q106 53 110 85T115 136L118 271Q118 287 136 289Q136 309 152 309Q161 309 171 291Q184 264
184 224Z" />
<glyph unicode="&#xa7;" glyph-name="section" horiz-adv-x="540" d="M290 559Q290 509 334 434T423 312Q466 271 476 236Q503 198 503 147T467 55Q455 42 443 51T439 73T450 99T450 128T442 155T428 185T413 211T396 237T377 265T331 328Q254 432 232 501Q223
474 223 445Q223 358 308 233L355 181Q395 135 416 74Q463 -13 463 -64Q463 -96 432 -118Q381 -153 302 -153Q253 -153 201 -117T149 -30Q149 -19 157 -3Q177 50 220 50Q234 50 241 41T252 22T257 6Q262 -26 267 -31Q271 -48 255 -53T234 -41Q221 -3 200 -3Q197
-3 190 -14T183 -30Q183 -61 223 -90T295 -120T365 -111T420 -85Q411 -69 400 -26T371 50T344 96T296 145T213 260T167 392Q167 409 168 416Q167 424 167 444Q167 499 208 533Q214 546 222 556Q221 561 221 573Q221 641 279 687Q312 731 351 731Q366 731 375 722Q509
720 513 631Q513 620 505 615T488 614T479 628Q477 685 390 689Q377 674 364 671Q290 643 290 559Z" />
<glyph unicode="&#xa8;" glyph-name="dieresis" horiz-adv-x="315" d="M251 550Q269 550 276 532Q278 524 278 515T274 496Q266 477 244 477T211 491T213 515Q215 517 224 526Q245 550 251 550ZM151 512Q151 510 150 507Q147 478 113 478Q107 478 97 483T86 495L85
520Q85 531 91 538T106 545T121 543Q151 536 151 512Z" />
<glyph unicode="&#xa9;" glyph-name="copyright" horiz-adv-x="1120" d="M828 394Q828 202 662 64Q599 12 539 -17T399 -46Q391 -46 315 -39T181 -9T82 62T41 180T60 316Q87 490 175 549Q358 672 520 689Q521 689 527 689T539 682Q652 680 708 645Q746 625 768
560Q828 476 828 394ZM759 396Q759 470 731 545Q697 587 647 612T538 637T428 617T310 558Q261 528 183 466Q126 402 101 311Q95 281 95 239T111 144T157 55T317 -4Q328 -6 358 -6T418 1T484 28Q531 56 565 81T632 128T684 168T720 212Q759 270 759 396ZM440 503Q490
499 525 470T561 397T524 334Q515 329 507 334T498 348T508 363Q528 374 528 400V405Q517 396 505 405Q502 408 475 442Q436 456 418 457L390 430Q384 417 373 386T349 335T335 297T344 241T362 186Q402 162 464 162Q469 162 470 161Q499 169 513 189Q519 198 528
197T542 189T542 171Q509 122 422 122Q354 122 305 156T256 261Q256 310 276 365T340 461T435 503H440Z" />
<glyph unicode="&#xaa;" glyph-name="ordfeminine" horiz-adv-x="281" d="M162 744Q255 744 255 679Q255 656 240 639H241Q251 613 251 584T240 524Q253 456 282 389Q284 385 284 380T279 368T270 361Q262 361 251 381T232 438T220 486Q171 415 124 415Q122 415
121 415Q71 415 42 446T13 520T18 594T38 662T82 720Q114 744 162 744ZM235 674Q235 726 171 726Q123 726 93 679T62 578T78 487T132 450Q156 450 176 468Q207 496 207 514T201 566T195 612T200 635Q192 649 189 653T191 662T203 661H202Q209 651 216 650Q220 652
223 652Q235 664 235 674Z" />
<glyph unicode="&#xab;" glyph-name="guillemotleft" horiz-adv-x="570" d="M515 68Q515 49 498 49Q490 49 484 55Q451 90 399 137Q286 241 251 287Q247 292 248 299T254 310Q291 339 342 426T420 542T455 587Q461 595 466 595T476 594Q488 589 486 576Q495 567
487 557L480 547Q472 525 444 489Q435 475 413 440T379 386Q374 373 367 352Q352 306 338 288L335 283Q345 266 375 239T416 193L431 169L466 132Q489 108 504 85Q515 74 515 68ZM153 184T116 221T66 274T53 298T59 310Q97 339 148 427T225 543T258 583T270 595T280
594Q293 589 291 576Q300 566 291 557Q271 518 258 500T220 444T183 386Q178 374 172 352Q158 309 149 296Q140 286 140 283Q149 266 180 239T217 200T228 181T235 169Q290 114 308 85Q319 78 319 71Q319 49 302 49L288 55Q286 58 279 65T260 84T201 140Z" />
<glyph unicode="&#xac;" glyph-name="logicalnot" horiz-adv-x="636" d="M571 235Q547 251 540 251L73 244Q59 258 59 265T65 275T83 279H551L593 287Q597 287 599 286Q614 281 614 271T608 243T558 161T511 44Q508 38 502 38T494 46Q499 131 533 180Q560 218 571 235Z" />
<glyph unicode="&#xae;" glyph-name="registered" horiz-adv-x="1120" d="M828 394Q828 202 662 64Q599 12 539 -17T399 -46Q391 -46 315 -39T181 -9T82 62T41 180T60 316Q87 490 175 549Q358 672 520 689Q521 689 527 689T539 682Q652 680 708 645Q746 625 768
560Q828 476 828 394ZM759 396Q759 470 731 545Q697 587 647 612T538 637T428 617T310 558Q261 528 183 466Q126 402 101 311Q95 281 95 239T111 144T157 55T317 -4Q328 -6 358 -6T418 1T484 28Q531 56 565 81T632 128T684 168T720 212Q759 270 759 396ZM576 504T583
475T590 413T533 346T440 312Q428 312 421 314Q438 283 448 252T464 209Q481 192 502 192Q514 192 517 197T524 209T532 221T544 228T556 221T558 200H559L550 184Q529 147 488 147Q458 147 437 186Q415 208 389 267T358 332Q356 333 351 335T343 340Q334 318 328
294T314 207Q303 137 271 116Q265 113 260 113T249 117T244 127T246 138Q267 189 285 263T314 366Q306 381 321 388V389Q346 453 354 468Q360 486 361 495T370 507Q365 518 372 528T393 541T431 543Q459 554 495 554T553 529ZM504 502Q477 510 439 510Q407 493
385 457Q381 443 371 418T357 382Q359 382 363 380Q388 364 435 364T511 389T539 453T504 502Z" />
<glyph unicode="&#xaf;" glyph-name="overscore" horiz-adv-x="413" d="M355 501L143 497Q114 497 109 504T104 516T119 519L353 521Q363 521 363 510Q363 503 355 501Z" />
<glyph unicode="&#xb0;" glyph-name="degree" horiz-adv-x="595" d="M295 560T295 523T269 460T205 433T142 459T115 523T141 587T205 614T268 587ZM228 465T245 482T263 524T246 566T204 584T162 567T144 525T161 483T203 465Z" />
<glyph unicode="&#xb1;" glyph-name="plusminus" horiz-adv-x="547" d="M128 442Q128 460 146 460H269Q271 500 273 519Q269 565 262 594Q260 603 267 609T282 614Q287 620 292 620Q307 620 311 608L314 601Q319 596 319 587Q337 534 337 460H463Q472 460 477
455T482 444Q496 441 496 428Q496 410 478 410Q476 410 335 402Q333 376 325 338V297Q325 289 319 283Q318 271 309 268T292 271Q284 264 275 269T265 288L271 367L269 398Q253 397 214 397T144 408Q123 415 134 430Q128 435 128 442ZM206 244L292 245Q301 245
305 245T344 245T406 244T460 235Q495 225 495 204Q495 188 478 188L207 180Q177 180 158 192H150Q139 192 136 198T133 209T136 217Q136 226 141 231Q140 240 145 245T156 251T165 249Q167 244 206 244Z" />
<glyph unicode="&#xb2;" glyph-name="twosuperior" horiz-adv-x="506" d="M320 375T333 357T347 312T326 257T277 228T233 236T191 265T158 290Q137 270 105 252T61 234Q38 234 24 263T10 315T24 355T57 371Q72 371 78 369T88 365T97 361T104 356Q118 347 121
344Q141 332 150 327Q200 382 239 455T279 576Q279 594 267 609T242 628T215 638T181 645T152 642Q116 631 97 613T76 560Q76 549 86 537T108 525T129 532T139 552T127 565Q123 566 122 569T123 576T129 578L130 579Q157 575 157 551Q157 532 142 520T109 507T76
524T62 560Q62 640 143 665Q171 675 197 675T250 668T298 635T320 576Q320 517 279 443T180 310Q198 301 209 291T223 279T230 274T237 269T245 265T254 261Q264 258 272 258Q294 258 308 277T323 314Q323 351 302 355Q281 355 270 333L269 309Q269 305 266 303T259
303T255 307T253 324T254 340Q268 375 300 375Q301 375 302 375Q320 375 333 357ZM84 343T76 347T57 352T35 335Q34 333 34 317T41 284T62 267Q91 267 132 308Q118 314 101 328Z" />
<glyph unicode="&#xb3;" glyph-name="threesuperior" horiz-adv-x="339" d="M174 525L192 524Q218 568 218 614Q218 633 207 644T170 655T105 636T60 602Q57 584 57 573T66 553T86 543Q101 543 103 558V564Q103 565 99 565T94 570T95 577T102 579Q118 575 118
559T110 532T86 522T55 538T40 570T46 609T102 657T180 682T230 665T252 609T217 517Q250 505 270 478T291 414Q291 348 243 271T132 193Q93 193 66 222Q20 270 20 346Q20 405 90 405Q99 405 112 395T133 365T142 332T134 309T117 297T98 307T86 326T89 337T99
339T107 324T117 310Q128 310 128 335T104 377H91Q87 377 77 370T65 362V361Q61 353 61 346Q61 304 81 269T132 234Q145 234 164 246Q201 268 230 319T259 416T230 482Q224 486 202 498Q174 466 143 462Q132 459 119 465T106 481T116 503Q133 525 174 525ZM181
504H176L154 506Q146 506 138 503Q130 502 127 481Q127 479 140 479Q162 483 181 504Z" />
<glyph unicode="&#xb4;" glyph-name="acute" horiz-adv-x="568" d="M358 678T365 678T384 675T396 652T373 622T290 601T217 586T196 580Q187 580 187 591Q187 597 206 603T278 638T345 672Z" />
<glyph unicode="&#xb5;" glyph-name="mu" horiz-adv-x="319" d="M23 -82L26 20Q26 55 26 122T28 276Q28 285 42 288T70 287T84 276T71 127Q76 102 96 102T137 123T171 177Q191 224 206 287Q208 297 221 297T236 292T249 270Q257 242 270 179T289 99T294 74T284
57T258 50T236 72Q228 102 224 147T218 207Q170 68 94 68Q80 68 67 81Q66 81 66 57T62 -16T57 -89T58 -126Q60 -169 72 -180T83 -198Q80 -209 70 -209L60 -205Q42 -189 33 -156Q23 -119 23 -82Z" />
<glyph unicode="&#xb6;" glyph-name="paragraph" horiz-adv-x="385" d="M225 398Q225 594 196 669Q160 669 129 648Q71 608 64 529Q64 524 64 520Q64 489 82 464Q97 445 112 445T142 456Q176 484 176 515T160 554Q156 556 153 556Q139 556 136 529Q139 529 141
526Q149 524 152 517T151 504T136 500Q107 509 107 532Q107 539 110 548Q119 576 146 586Q153 589 164 589T186 576Q202 550 202 529Q202 460 152 425Q133 411 116 411T84 423Q35 462 35 529Q35 566 53 604T112 669T195 697Q201 697 207 697Q216 693 220 684Q256
592 256 398Q256 329 245 184T233 4L216 -5Q201 -10 204 9Q205 29 214 154Q225 328 225 398ZM283 132L284 64Q284 -2 272 -10Q263 -15 256 -15T249 -4Q249 -1 262 161Q287 370 287 473Q287 591 275 635T260 689Q263 703 274 703Q285 701 289 691Q292 680 302 654Q320
612 320 521Q320 433 303 307Q283 146 283 132Z" />
<glyph unicode="&#xb7;" glyph-name="middot" horiz-adv-x="253" d="M162 271L144 264Q115 264 93 283T71 332T94 386T141 411T179 393T193 354T181 320T150 306Q139 306 128 313T117 332T126 352T144 360T154 353T146 345V344Q133 344 131 333Q131 329 137 325T152
320T169 330T178 352T168 373T144 383T115 366T100 331T113 300T144 284L164 288Q175 289 173 283Q171 275 162 271Z" />
<glyph unicode="&#xb8;" glyph-name="cedilla" horiz-adv-x="419" d="M164 -125T183 -138T203 -184T172 -217Q162 -217 152 -213T146 -197T164 -190T181 -183Q181 -181 181 -179Q181 -165 163 -158T124 -150T86 -169T69 -213Q69 -267 211 -267Q264 -267 308 -237T353
-161T328 -97T246 -78Q219 -78 202 -84T179 -86T181 -64T197 -4Q198 6 209 6Q213 6 217 3T221 -9Q215 -41 211 -57Q229 -54 246 -54Q313 -54 356 -81T399 -165T335 -262T209 -301Q160 -301 116 -287Q32 -260 32 -207Q32 -171 62 -148T128 -125Z" />
<glyph unicode="&#xb9;" glyph-name="onesuperior" horiz-adv-x="239" d="M156 281Q184 281 184 267Q184 262 180 258T169 257T150 260T113 247T72 210Q65 199 58 199T50 202T51 207T54 214T57 220Q78 251 115 268Q101 275 101 357T112 476T129 544Q119 536 106
520T72 504Q56 504 52 532Q52 539 59 539T66 529T71 518T80 519T89 523T97 530T104 538T110 548T116 557T121 568T125 577T128 586T131 593T132 598Q138 607 140 623T150 647T162 655T169 650T172 643Q174 642 174 637Q179 624 179 602Q179 552 150 458Q125 385
125 347T136 289Q139 283 137 278Q147 281 156 281Z" />
<glyph unicode="&#xba;" glyph-name="ordmasculine" horiz-adv-x="323" d="M233 632Q258 632 274 593T291 514T265 424T202 354Q170 341 159 341Q118 343 76 375Q49 396 31 435T13 503T22 580T75 679Q116 723 161 723Q188 723 206 709T225 672T216 631T191 612Q190
612 189 612Q164 612 142 649Q139 653 141 657T148 661T156 658Q160 652 171 642T190 632Q202 632 206 667Q206 689 161 689Q152 689 147 687T138 684T132 680T126 676T121 671T116 665Q111 659 101 647T85 619T78 577T74 534T71 512V480Q71 443 75 434T82 420Q88
408 97 401Q138 372 160 372T209 392T249 437Q272 483 272 526T247 594Q233 603 231 588Q231 585 236 575T236 558T222 552T211 558T204 573T199 591T211 616Q224 632 233 632Z" />
<glyph unicode="&#xbb;" glyph-name="guillemotright" horiz-adv-x="579" d="M60 55Q54 49 49 49Q35 49 31 60Q29 65 29 70T40 85Q59 113 78 132L113 169L128 193Q138 211 168 238T209 283Q195 304 190 317T177 353T166 386Q145 416 100 489Q74 522 64 547L57
557Q51 566 57 576Q55 589 68 594Q72 595 77 595T92 582T123 542Q149 514 201 427T290 310Q295 306 296 299T292 287Q263 249 178 169Q110 105 60 55ZM487 249T402 169T303 75T283 55T272 49Q253 49 253 69Q253 76 264 85Q284 113 302 132L337 169L352 193Q362
211 392 239T433 283Q419 304 414 317T401 353T390 386Q374 408 324 489Q300 518 288 547L281 557Q273 566 281 576Q279 589 292 594Q296 595 301 595T315 582T348 541T424 426T513 310Q520 305 520 298T516 287Q487 249 402 169Z" />
<glyph unicode="&#xbc;" glyph-name="onequarter" horiz-adv-x="767" d="M701 280Q732 280 732 243Q732 186 694 147T598 102H585Q587 20 615 -12Q623 -21 628 -21Q646 -21 655 -9T665 15T657 31T650 42T654 53T666 54Q679 44 679 20T665 -27T628 -51Q627 -51
626 -51Q601 -51 584 -21Q555 27 553 103Q542 104 513 108T464 113L432 116Q412 116 388 107Q375 98 360 93Q355 92 349 98T342 115T355 133Q357 134 360 137Q367 143 393 152Q409 165 435 193T480 239T518 283T558 333T584 365T594 372Q601 370 596 361Q576 327
537 273T488 208T442 156Q458 154 473 154T554 143Q557 206 568 250T601 347T628 415Q631 421 636 419T641 411Q627 368 616 321T597 240T585 142Q689 149 708 191Q719 212 719 243Q719 250 707 258Q703 259 697 259T683 252T675 233T680 217T681 209T668 212T661
235T671 266T701 280ZM577 688Q600 688 600 665Q600 655 592 649H597Q571 577 452 443T269 211Q264 203 243 173T208 120T176 68Q141 7 141 -28L146 -41Q148 -49 144 -54T136 -59Q126 -59 123 -51Q110 -36 111 -27Q111 3 132 52T169 125T202 181T233 234Q344 410
417 491Q431 505 446 524T477 561T499 588T516 614Q531 635 544 668Q547 675 558 681T577 688ZM156 281Q184 281 184 267Q184 262 180 258T169 257T150 260T113 247T72 210Q65 199 58 199T50 202T51 207T54 214T57 220Q78 251 115 268Q101 275 101 357T112 476T129
544Q119 536 106 520T72 504Q56 504 52 532Q52 539 59 539T66 529T71 518T80 519T89 523T97 530T104 538T110 548T116 557T121 568T125 577T128 586T131 593T132 598Q138 607 140 623T150 647T162 655T169 650T172 643Q174 642 174 637Q179 624 179 602Q179 552
150 458Q125 385 125 347T136 289Q139 283 137 278Q147 281 156 281Z" />
<glyph unicode="&#xbd;" glyph-name="onehalf" horiz-adv-x="820" d="M115 268Q101 275 101 357T112 476T129 544Q119 536 106 520T72 504Q56 504 52 532Q52 539 59 539T66 529T71 518T80 519T89 523T97 530T104 538T110 548T116 557T121 568T125 577T128 586T131
593T132 598Q138 607 140 623T152 650T170 648Q172 644 172 643Q174 642 174 637Q179 624 179 602Q179 552 150 458Q125 385 125 347T136 289Q139 283 137 278Q147 281 157 281T175 278T183 268T180 258T169 257T150 260T113 247T72 210Q65 199 58 199T50 202T51
207T54 214T57 220Q78 251 115 268ZM141 -28L146 -41Q148 -49 144 -54T136 -59Q126 -59 123 -51Q110 -36 111 -27Q111 3 132 52T169 125T202 181T233 234Q344 410 417 491Q431 505 446 524T477 561T499 588T516 614Q531 635 544 668Q547 675 558 681T581 688T598
673T592 649H597Q571 577 452 443T269 211Q264 203 243 173T208 120T176 68Q141 7 141 -28ZM732 143T745 125T759 80T738 25T689 -4T645 4T603 33T570 58Q549 38 517 20T473 2Q450 2 436 31T422 83T436 123T469 139Q484 139 490 137T500 133T509 129T516 124Q530
115 533 112Q553 100 562 95Q612 150 651 223T691 344Q691 362 679 377T654 396T627 406T593 413T564 410Q528 399 509 381T488 328Q488 317 498 305T520 293T541 300T551 320T539 333Q535 334 534 337T535 344T541 346L542 347Q569 343 569 319Q569 300 554 288T521
275T488 292T474 328Q474 408 555 433Q583 443 609 443T662 436T710 403T732 344Q732 285 691 211T592 78Q607 72 620 60T635 47T642 42T649 37T657 33T666 29Q676 26 684 26Q706 26 720 45T735 82Q735 119 714 123Q693 123 682 101L681 77Q681 73 678 71T671 71T667
75T665 92T666 108Q680 143 712 143Q713 143 714 143Q732 143 745 125ZM496 111T488 115T469 120T447 103Q446 101 446 85T453 52T474 35Q503 35 544 76Q530 82 513 96Z" />
<glyph unicode="&#xbe;" glyph-name="threequarters" horiz-adv-x="769" d="M174 525L192 524Q218 568 218 614Q218 633 207 644T170 655T105 636T60 602Q57 584 57 573T66 553T86 543Q101 543 103 558V564Q103 565 99 565T94 570T95 577T102 579Q118 575 118
559T110 532T86 522T55 538T40 570T46 609T102 657T180 682T230 665T252 609T217 517Q250 505 270 478T291 414Q291 348 243 271T132 193Q93 193 66 222Q20 270 20 346Q20 405 90 405Q99 405 112 395T133 365T142 332T134 309T117 297T98 307T86 326T89 337T99
339T107 324T117 310Q128 310 128 335T104 377H91Q87 377 77 370T65 362V361Q61 353 61 346Q61 304 81 269T132 234Q145 234 164 246Q201 268 230 319T259 416T230 482Q224 486 202 498Q174 466 143 462Q132 459 119 465T106 481T116 503Q133 525 174 525ZM181
504H176Q171 504 164 505Q150 507 138 503Q130 502 127 481Q127 479 140 479Q162 483 181 504ZM701 280Q732 280 732 243Q732 186 694 147T598 102H585Q587 20 615 -12Q623 -21 628 -21Q646 -21 655 -9T665 15T657 31T650 42T654 53T666 54Q679 44 679 20T665 -27T628
-51Q627 -51 626 -51Q601 -51 584 -21Q555 27 553 103Q542 104 513 108T464 113L432 116Q412 116 388 107Q375 98 360 93Q355 92 349 98T342 115T355 133Q357 134 360 137Q367 143 393 152Q409 165 435 193T480 239T518 283T558 333T584 365T594 372Q601 370 596
361Q576 327 537 273T488 208T442 156Q458 154 473 154T554 143Q557 206 568 250T601 347T628 415Q631 421 636 419T641 411Q627 368 616 321T597 240T585 142Q689 149 708 191Q719 212 719 243Q719 250 707 258Q703 259 697 259T683 252T675 233T680 217T681 209T668
212T661 235T671 266T701 280ZM648 688Q671 688 671 665Q671 655 663 649H668Q642 577 523 443T340 211Q335 203 314 173T279 120T247 68Q212 7 212 -28L217 -41Q219 -49 215 -54T207 -59Q197 -59 194 -51Q181 -36 182 -27Q182 3 203 52T240 125T273 181T304 234Q415
410 488 491Q501 504 517 523T548 561T570 588T587 614Q602 635 615 668Q618 675 629 681T648 688Z" />
<glyph unicode="&#xbf;" glyph-name="questiondown" horiz-adv-x="448" d="M240 -263L198 -268Q107 -268 60 -220T12 -84Q12 -53 33 -16T56 25Q70 53 93 67T148 92Q245 124 245 187Q245 216 236 226T198 237Q179 237 177 212Q176 204 169 202T156 203T151 215Q155
261 199 261Q232 261 254 241T277 190T266 137T230 97Q197 72 166 58T128 39T116 27T107 16T99 2T92 -12T86 -27T77 -50T71 -85Q71 -145 103 -178T202 -211T321 -174T374 -64Q374 -23 347 13Q330 39 311 39Q310 39 309 39Q283 39 263 18T242 -26T248 -70T265 -91Q276
-91 283 -80T291 -62T289 -53T280 -43T276 -30T283 -23T292 -25T304 -33Q320 -42 320 -60T305 -98T267 -118Q266 -118 265 -118Q250 -118 234 -96T219 -33T247 38T316 69T383 26T408 -65Q408 -144 362 -200T240 -263ZM207 433L204 435Q203 435 198 432T186 429T171
436T164 450Q164 458 179 464Q181 465 184 468Q193 477 208 477Q259 476 285 458T312 393Q312 363 284 342T223 320Q184 320 181 372Q181 407 207 407Q212 407 221 399T230 384T223 376T212 382L208 385L206 388V386L200 371Q200 353 219 353Q221 353 230 353T253
365T268 389T262 412T246 426Q237 431 207 433Z" />
<glyph unicode="&#xc0;" glyph-name="Agrave" horiz-adv-x="739" d="M319 801T326 801T347 796T414 762T496 724Q509 719 504 710T479 708T402 725T321 744T297 774T309 799Q319 801 326 801ZM723 130L717 165Q717 175 726 180T742 166Q745 156 745 145Q745 114
720 64Q688 1 637 0Q626 0 603 14T571 39Q534 83 521 214Q515 271 510 304Q397 284 351 230Q347 225 342 226T335 232T337 242Q410 323 506 356Q505 373 505 407T518 506T532 592T532 619T536 628T546 629T551 619Q562 500 562 441T564 368Q575 371 584 368Q607
368 634 356Q673 339 673 310Q673 294 654 286Q645 283 634 283T615 300Q594 311 583 311T567 310Q570 297 573 236Q581 100 608 72Q612 67 622 60T637 52Q667 52 695 78T723 130ZM150 -24Q138 -24 127 -18T111 -11T98 -8Q79 -3 69 6Q18 53 18 131Q18 168 31 194Q36
204 64 246Q79 271 132 271Q153 271 171 251T189 203Q189 154 148 134Q143 132 139 135T135 143T140 151V152Q169 166 169 207Q169 222 158 236T132 250Q96 250 86 234Q66 205 66 160Q66 147 67 131Q67 70 75 55T89 34T98 26Q109 15 110 15T113 13T117 11T121 9T127
6Q135 2 145 2T162 6Q175 14 188 27Q225 56 240 106Q247 132 277 212Q285 237 289 284T298 351T311 400Q326 461 353 514T408 597T502 661Q507 664 512 664T525 658T533 642T521 624Q500 614 455 567T385 469T349 379T334 332Q330 320 328 305T321 274T308 239T296
205T286 153T277 104T270 80T265 64T261 50T255 35T249 22T241 8Q228 -8 222 -13Q209 -24 150 -24Z" />
<glyph unicode="&#xc1;" glyph-name="Aacute" horiz-adv-x="739" d="M574 802T582 802T601 799T611 776T587 746T506 726T427 709T403 710T411 725Q442 736 497 764T563 797ZM723 130L717 165Q717 175 726 180T742 166Q745 156 745 145Q745 114 720 64Q688 1 637
0Q626 0 603 14T571 39Q534 83 521 214Q515 271 510 304Q397 284 351 230Q347 225 342 226T335 232T337 242Q410 323 506 356Q505 373 505 407T518 506T532 592T532 619T536 628T546 629T551 619Q562 500 562 441T564 368Q575 371 584 368Q607 368 634 356Q673
339 673 310Q673 294 654 286Q645 283 634 283T615 300Q594 311 583 311T567 310Q570 297 573 236Q581 100 608 72Q612 67 622 60T637 52Q667 52 695 78T723 130ZM150 -24Q138 -24 127 -18T111 -11T98 -8Q79 -3 69 6Q18 53 18 131Q18 168 31 194Q36 204 64 246Q79
271 132 271Q153 271 171 251T189 203Q189 154 148 134Q143 132 139 135T135 143T140 151V152Q169 166 169 207Q169 222 158 236T132 250Q96 250 86 234Q66 205 66 160Q66 147 67 131Q67 70 75 55T89 34T98 26Q109 15 110 15T113 13T117 11T121 9T127 6Q135 2 145
2T162 6Q175 14 188 27Q225 56 240 106Q247 132 277 212Q285 237 289 284T298 351T311 400Q326 461 353 514T408 597T502 661Q507 664 512 664T525 658T533 642T521 624Q500 614 455 567T385 469T349 379T334 332Q330 320 328 305T321 274T308 239T296 205T286
153T277 104T270 80T265 64T261 50T255 35T249 22T241 8Q228 -8 222 -13Q209 -24 150 -24Z" />
<glyph unicode="&#xc2;" glyph-name="Acircumflex" horiz-adv-x="739" d="M689 691Q689 670 663 684Q648 692 603 708T535 739T498 755T467 744T406 711T349 681T330 671T321 674Q315 682 332 699Q462 829 508 829Q511 829 545 804Q658 721 673 713T689 691ZM723
130L717 165Q717 175 726 180T742 166Q745 156 745 145Q745 114 720 64Q688 1 637 0Q626 0 603 14T571 39Q534 83 521 214Q515 271 510 304Q397 284 351 230Q347 225 342 226T335 232T337 242Q410 323 506 356Q505 373 505 407T518 506T532 592T532 619T536 628T546
629T551 619Q562 500 562 441T564 368Q575 371 584 368Q607 368 634 356Q673 339 673 310Q673 294 654 286Q645 283 634 283T615 300Q594 311 583 311T567 310Q570 297 573 236Q581 100 608 72Q612 67 622 60T637 52Q667 52 695 78T723 130ZM150 -24Q138 -24 127
-18T111 -11T98 -8Q79 -3 69 6Q18 53 18 131Q18 168 31 194Q36 204 64 246Q79 271 132 271Q153 271 171 251T189 203Q189 154 148 134Q143 132 139 135T135 143T140 151V152Q169 166 169 207Q169 222 158 236T132 250Q96 250 86 234Q66 205 66 160Q66 147 67 131Q67
70 75 55T89 34T98 26Q109 15 110 15T113 13T117 11T121 9T127 6Q135 2 145 2T162 6Q175 14 188 27Q225 56 240 106Q247 132 277 212Q285 237 289 284T298 351T311 400Q326 461 353 514T408 597T502 661Q507 664 512 664T525 658T533 642T521 624Q500 614 455 567T385
469T349 379T334 332Q330 320 328 305T321 274T308 239T296 205T286 153T277 104T270 80T265 64T261 50T255 35T249 22T241 8Q228 -8 222 -13Q209 -24 150 -24Z" />
<glyph unicode="&#xc3;" glyph-name="Atilde" horiz-adv-x="739" d="M306 724Q302 700 285 700T267 717Q267 731 290 754T326 779T346 781Q389 781 441 763T514 745H540Q562 745 567 750Q581 762 580 773T583 785Q595 785 600 776T605 753T581 720T520 700Q486
700 459 709Q370 739 339 739T306 724ZM723 130L717 165Q717 175 726 180T742 166Q745 156 745 145Q745 114 720 64Q688 1 637 0Q626 0 603 14T571 39Q534 83 521 214Q515 271 510 304Q397 284 351 230Q347 225 342 226T335 232T337 242Q410 323 506 356Q505 373
505 407T518 506T532 592T532 619T536 628T546 629T551 619Q562 500 562 441T564 368Q575 371 584 368Q607 368 634 356Q673 339 673 310Q673 294 654 286Q645 283 634 283T615 300Q594 311 583 311T567 310Q570 297 573 236Q581 100 608 72Q612 67 622 60T637
52Q667 52 695 78T723 130ZM150 -24Q138 -24 127 -18T111 -11T98 -8Q79 -3 69 6Q18 53 18 131Q18 168 31 194Q36 204 64 246Q79 271 132 271Q153 271 171 251T189 203Q189 154 148 134Q143 132 139 135T135 143T140 151V152Q169 166 169 207Q169 222 158 236T132
250Q96 250 86 234Q66 205 66 160Q66 147 67 131Q67 70 75 55T89 34T98 26Q109 15 110 15T113 13T117 11T121 9T127 6Q135 2 145 2T162 6Q175 14 188 27Q225 56 240 106Q247 132 277 212Q285 237 289 284T298 351T311 400Q326 461 353 514T408 597T502 661Q507
664 512 664T525 658T533 642T521 624Q500 614 455 567T385 469T349 379T334 332Q330 320 328 305T321 274T308 239T296 205T286 153T277 104T270 80T265 64T261 50T255 35T249 22T241 8Q228 -8 222 -13Q209 -24 150 -24Z" />
<glyph unicode="&#xc4;" glyph-name="Adieresis" horiz-adv-x="739" d="M575 777T587 769T599 746T586 719T559 706T534 715T522 738T532 765T559 777ZM423 778T432 768T442 742T433 715T408 704T381 715T370 742T383 767T408 778ZM723 130L717 165Q717 175 726
180T742 166Q745 156 745 145Q745 114 720 64Q688 1 637 0Q626 0 603 14T571 39Q534 83 521 214Q515 271 510 304Q397 284 351 230Q347 225 342 226T335 232T337 242Q410 323 506 356Q505 373 505 407T518 506T532 592T532 619T536 628T546 629T551 619Q562 500
562 441T564 368Q575 371 584 368Q607 368 634 356Q673 339 673 310Q673 294 654 286Q645 283 634 283T615 300Q594 311 583 311T567 310Q570 297 573 236Q581 100 608 72Q612 67 622 60T637 52Q667 52 695 78T723 130ZM150 -24Q138 -24 127 -18T111 -11T98 -8Q79
-3 69 6Q18 53 18 131Q18 168 31 194Q36 204 64 246Q79 271 132 271Q153 271 171 251T189 203Q189 154 148 134Q143 132 139 135T135 143T140 151V152Q169 166 169 207Q169 222 158 236T132 250Q96 250 86 234Q66 205 66 160Q66 147 67 131Q67 70 75 55T89 34T98
26Q109 15 110 15T113 13T117 11T121 9T127 6Q135 2 145 2T162 6Q175 14 188 27Q225 56 240 106Q247 132 277 212Q285 237 289 284T298 351T311 400Q326 461 353 514T408 597T502 661Q507 664 512 664T525 658T533 642T521 624Q500 614 455 567T385 469T349 379T334
332Q330 320 328 305T321 274T308 239T296 205T286 153T277 104T270 80T265 64T261 50T255 35T249 22T241 8Q228 -8 222 -13Q209 -24 150 -24Z" />
<glyph unicode="&#xc5;" glyph-name="Aring" horiz-adv-x="739" d="M513 825T540 805T568 736T523 687Q469 687 438 716Q418 733 418 765T454 820Q461 825 487 825ZM723 130L717 165Q717 175 726 180T742 166Q745 156 745 145Q745 114 720 64Q688 1 637 0Q626
0 603 14T571 39Q534 83 521 214Q515 271 510 304Q397 284 351 230Q347 225 342 226T335 232T337 242Q410 323 506 356Q505 373 505 407T518 506T532 592T532 619T536 628T546 629T551 619Q562 500 562 441T564 368Q575 371 584 368Q607 368 634 356Q673 339 673
310Q673 294 654 286Q645 283 634 283T615 300Q594 311 583 311T567 310Q570 297 573 236Q581 100 608 72Q612 67 622 60T637 52Q667 52 695 78T723 130ZM150 -24Q138 -24 127 -18T111 -11T98 -8Q79 -3 69 6Q18 53 18 131Q18 168 31 194Q36 204 64 246Q79 271 132
271Q153 271 171 251T189 203Q189 154 148 134Q143 132 139 135T135 143T140 151V152Q169 166 169 207Q169 222 158 236T132 250Q96 250 86 234Q66 205 66 160Q66 147 67 131Q67 70 75 55T89 34T98 26Q109 15 110 15T113 13T117 11T121 9T127 6Q135 2 145 2T162
6Q175 14 188 27Q225 56 240 106Q247 132 277 212Q285 237 289 284T298 351T311 400Q326 461 353 514T408 597T502 661Q513 667 523 660T533 642T521 624Q500 614 455 567T385 469T349 379T334 332Q330 320 328 305T321 274T308 239T296 205T286 153T277 104T270
80T265 64T261 50T255 35T249 22T241 8Q228 -8 222 -13Q209 -24 150 -24ZM523 720Q526 720 530 721T534 744T518 778T477 791Q475 791 473 791H470Q451 779 451 761T472 732T523 720Z" />
<glyph unicode="&#xc6;" glyph-name="AE" horiz-adv-x="1029" d="M560 512V468Q560 400 564 368Q563 365 563 358T570 330T577 305Q602 337 634 366Q607 407 607 468Q607 555 668 630T815 706Q879 706 915 667T952 564Q952 529 922 489T858 448Q835 448 817 466T799
503T815 550T842 578T853 568L850 561Q818 529 818 510T830 479T857 467Q882 467 895 501T909 568T882 629T816 656Q732 656 703 625T653 551T633 465T654 384Q724 441 772 441T821 404T788 343T718 318T651 344Q550 252 550 151Q550 97 581 44T663 -9Q700 -9 782
14T889 61T933 124T952 196T939 252T902 277Q861 277 835 241T809 162Q809 148 816 134T839 120T869 136T883 167T871 184T859 194T874 204Q900 204 900 174T882 123T839 101T802 120T791 167Q791 218 822 263T897 309T971 276T1000 203Q1000 136 959 68T857 -25Q828
-37 761 -52T658 -67T593 -47T548 8Q519 71 519 152Q517 155 514 226T510 304Q406 285 351 230Q347 226 344 226Q336 226 334 235Q341 260 405 301T506 356Q505 375 505 411T518 515T532 619Q532 629 541 629Q560 629 560 512ZM520 663T526 657T532 640T521 624Q493
607 451 563T374 447T328 307Q325 285 313 252T296 203T283 136T261 45T222 -13Q208 -24 150 -24Q145 -24 126 -17T100 -9T89 -6Q75 0 69 6Q18 50 18 131Q18 151 20 160T24 175T28 187T33 198T40 210T47 221T55 233T64 246Q81 271 132 271Q153 271 171 251T189
208T176 159T141 133Q134 133 134 143L140 151V152Q169 166 169 207Q169 221 158 235T132 250Q93 250 80 226T67 167T67 119T72 79T84 39T108 14T139 2T159 5T169 11T179 20T188 27Q225 56 240 106Q247 129 277 212Q285 236 289 284T299 354Q335 480 357 523Q403
613 502 661Q508 663 514 663ZM790 403Q790 414 765 414T674 364Q694 349 718 349T766 364T790 403Z" />
<glyph unicode="&#xc7;" glyph-name="Ccedilla" horiz-adv-x="485" d="M164 -125T183 -138T203 -184T172 -217Q162 -217 152 -213T146 -197T164 -190T181 -183Q181 -181 181 -179Q181 -165 163 -158T124 -150T86 -169T69 -213Q69 -267 211 -267Q264 -267 308 -237T353
-161T328 -97T246 -78Q219 -78 202 -84T179 -86T182 -62T195 -13Q149 4 114 44T58 136Q19 238 19 327Q19 378 29 418Q52 507 139 591T314 675Q354 675 391 635T428 556T401 474T338 431Q319 431 299 443T278 473Q278 506 297 529Q303 536 333 550Q339 552 343 548T347
539T340 532H339Q324 525 314 508T304 477T315 457T338 450Q363 450 386 485T409 550T384 612T312 645Q236 645 172 566Q77 447 77 322Q77 216 126 125T260 34Q261 34 262 34Q327 34 358 65Q418 121 418 165Q418 193 405 216T365 240T327 216T315 178T316 156T313
146T303 144Q295 146 295 173T308 226Q327 261 367 261T435 232T463 164T444 87T399 21Q348 -25 262 -25Q241 -25 219 -20L211 -57Q229 -54 246 -54Q313 -54 356 -81T399 -165T335 -262T209 -301Q160 -301 116 -287Q32 -260 32 -207Q32 -171 62 -148T128 -125Z"
/>
<glyph unicode="&#xc8;" glyph-name="Egrave" horiz-adv-x="568" d="M371 775Q384 770 379 761T354 759T277 776T192 797Q174 806 172 826T184 850Q192 854 199 854L214 850Q235 841 288 813T371 775ZM370 101Q323 101 323 171Q323 215 353 262T435 309Q473 309
503 277T533 200T511 104T454 21Q410 -17 385 -26T294 -51T197 -67Q116 -67 72 25Q52 67 52 152Q52 264 167 366Q140 407 140 460Q140 560 213 645Q235 670 275 688T353 706T428 684Q485 649 485 564Q485 527 455 488T396 448T350 465T332 511T370 575Q374 579
379 577Q392 572 383 561Q351 531 351 511T362 479T393 467T427 500T442 553T433 601T400 642T349 656Q264 656 235 625Q166 546 166 468Q166 418 187 384Q253 441 303 441T354 403T320 342T248 318T184 344Q83 250 83 151Q83 103 112 45Q120 28 148 10T204 -9T315
15T422 61T466 124T485 197T471 253T435 277Q434 277 433 277Q393 277 368 241T342 162Q342 145 350 133T370 120Q371 120 371 120Q397 120 411 152Q416 164 416 172Q416 186 403 184Q397 183 394 187T392 196Q394 204 407 204Q434 204 434 172T414 121T371 101Q371
101 370 101ZM323 403Q323 414 302 414Q270 414 207 364Q225 349 251 349T300 365T323 403Z" />
<glyph unicode="&#xc9;" glyph-name="Eacute" horiz-adv-x="568" d="M428 842T436 842T455 840Q469 836 468 816T447 787Q421 776 363 766T284 749T260 750T268 765Q296 775 349 803T415 836ZM370 101Q323 101 323 171Q323 215 353 262T435 309Q473 309 503 277T533
200T511 104T454 21Q410 -17 385 -26T294 -51T197 -67Q116 -67 72 25Q52 67 52 152Q52 264 167 366Q140 407 140 460Q140 560 213 645Q235 670 275 688T353 706T428 684Q485 649 485 564Q485 527 455 488T396 448T350 465T332 511T370 575Q374 579 379 577Q392
572 383 561Q351 531 351 511T362 479T393 467T427 500T442 553T433 601T400 642T349 656Q264 656 235 625Q166 546 166 468Q166 418 187 384Q253 441 303 441T354 403T320 342T248 318T184 344Q83 250 83 151Q83 103 112 45Q120 28 148 10T204 -9T315 15T422 61T466
124T485 197T471 253T435 277Q434 277 433 277Q393 277 368 241T342 162Q342 145 350 133T370 120Q371 120 371 120Q397 120 411 152Q416 164 416 172Q416 186 403 184Q397 183 394 187T392 196Q394 204 407 204Q434 204 434 172T414 121T371 101Q371 101 370 101ZM323
403Q323 414 302 414Q270 414 207 364Q225 349 251 349T300 365T323 403Z" />
<glyph unicode="&#xca;" glyph-name="Ecircumflex" horiz-adv-x="568" d="M284 776T241 756T185 727T166 717T157 720Q150 728 167 745Q301 875 345 875Q349 875 421 821T506 760Q529 749 526 733Q521 719 503 728T439 754T373 783T341 800T315 796Q284 776 241
756ZM370 101Q323 101 323 171Q323 215 353 262T435 309Q473 309 503 277T533 200T511 104T454 21Q410 -17 385 -26T294 -51T197 -67Q116 -67 72 25Q52 67 52 152Q52 264 167 366Q140 407 140 460Q140 560 213 645Q235 670 275 688T353 706T428 684Q485 649 485
564Q485 527 455 488T396 448T350 465T332 511T370 575Q374 579 379 577Q392 572 383 561Q351 531 351 511T362 479T393 467T427 500T442 553T433 601T400 642T349 656Q264 656 235 625Q166 546 166 468Q166 418 187 384Q253 441 303 441T354 403T320 342T248 318T184
344Q83 250 83 151Q83 103 112 45Q120 28 148 10T204 -9T315 15T422 61T466 124T485 197T471 253T435 277Q434 277 433 277Q393 277 368 241T342 162Q342 145 350 133T370 120Q371 120 371 120Q397 120 411 152Q416 164 416 172Q416 186 403 184Q397 183 394 187T392
196Q394 204 407 204Q434 204 434 172T414 121T371 101Q371 101 370 101ZM323 403Q323 414 302 414Q270 414 207 364Q225 349 251 349T300 365T323 403Z" />
<glyph unicode="&#xcb;" glyph-name="Edieresis" horiz-adv-x="568" d="M467 795T467 781T454 754T427 740T402 749T390 773T399 800T427 812T455 804ZM310 791T310 776T301 750T276 739T249 750T239 776Q241 791 251 802T276 813T300 802ZM370 101Q323 101 323
171Q323 215 353 262T435 309Q473 309 503 277T533 200T511 104T454 21Q410 -17 385 -26T294 -51T197 -67Q116 -67 72 25Q52 67 52 152Q52 264 167 366Q140 407 140 460Q140 560 213 645Q235 670 275 688T353 706T428 684Q485 649 485 564Q485 527 455 488T396
448T350 465T332 511T370 575Q374 579 379 577Q392 572 383 561Q351 531 351 511T362 479T393 467T427 500T442 553T433 601T400 642T349 656Q264 656 235 625Q166 546 166 468Q166 418 187 384Q253 441 303 441T354 403T320 342T248 318T184 344Q83 250 83 151Q83
103 112 45Q120 28 148 10T204 -9T315 15T422 61T466 124T485 197T471 253T435 277Q434 277 433 277Q393 277 368 241T342 162Q342 145 350 133T370 120Q371 120 371 120Q397 120 411 152Q416 164 416 172Q416 186 403 184Q397 183 394 187T392 196Q394 204 407
204Q434 204 434 172T414 121T371 101Q371 101 370 101ZM323 403Q323 414 302 414Q270 414 207 364Q225 349 251 349T300 365T323 403Z" />
<glyph unicode="&#xcc;" glyph-name="Igrave" horiz-adv-x="353" d="M113 829T120 829T141 824T207 790T290 752Q304 747 298 738T273 736T196 753T115 772T91 802T103 827Q113 829 120 829ZM263 534L259 637Q259 643 259 647Q251 640 223 630T174 592T153 546T159
513T176 498Q203 498 203 537Q203 546 202 554T205 564T215 566T221 558T222 537T213 500T177 478Q129 478 129 541Q128 572 154 604T209 647Q253 664 263 696Q265 705 275 705Q279 703 280 700L281 689Q281 684 281 668T283 617T296 522T307 438T314 384Q321 336
321 280Q322 278 322 273T321 254T320 238T318 218T315 198T312 179T308 160T303 141T298 122Q281 41 231 -8T133 -58Q124 -58 99 -46T69 -26Q52 -7 42 32T32 107Q32 181 87 249Q113 278 146 278T193 254T208 194T205 143T181 94T141 60Q140 60 139 60Q119 60 107
79T95 115T98 139T102 155T114 164T126 153Q126 146 123 137T120 122Q120 87 140 87Q156 88 170 119T184 165T186 188Q186 255 145 255T78 202T53 104Q53 30 88 -9Q92 -13 109 -20T133 -27Q170 -27 202 12T246 96Q270 185 270 257T267 387T262 479L263 534Z" />
<glyph unicode="&#xcd;" glyph-name="Iacute" horiz-adv-x="353" d="M316 815T324 815T343 813T354 790T331 759T250 739T171 722T147 723T155 738Q184 749 237 777T303 810ZM263 534L259 637Q259 643 259 647Q251 640 223 630T174 592T153 546T159 513T176 498Q203
498 203 537Q203 546 202 554T205 564T215 566T221 558T222 537T213 500T177 478Q129 478 129 541Q128 572 154 604T209 647Q253 664 263 696Q265 705 275 705Q279 703 280 700L281 689Q281 684 281 668T283 617T296 522T307 438T314 384Q321 336 321 280Q322 278
322 273T321 254T320 238T318 218T315 198T312 179T308 160T303 141T298 122Q281 41 231 -8T133 -58Q124 -58 99 -46T69 -26Q52 -7 42 32T32 107Q32 181 87 249Q113 278 146 278T193 254T208 194T205 143T181 94T141 60Q140 60 139 60Q119 60 107 79T95 115T98
139T102 155T114 164T126 153Q126 146 123 137T120 122Q120 87 140 87Q156 88 170 119T184 165T186 188Q186 255 145 255T78 202T53 104Q53 30 88 -9Q92 -13 109 -20T133 -27Q170 -27 202 12T246 96Q270 185 270 257T267 387T262 479L263 534Z" />
<glyph unicode="&#xce;" glyph-name="Icircumflex" horiz-adv-x="353" d="M284 749Q258 767 245 767T226 763Q196 744 152 723T96 693T77 683T68 686Q62 694 78 711Q79 712 97 728T128 757T151 777T173 796T197 814T219 828Q239 841 256 841Q260 841 333 788T418
727Q441 715 437 700Q432 686 414 695T350 721T284 749ZM263 534L259 637Q259 643 259 647Q251 640 223 630T174 592T153 546T159 513T176 498Q203 498 203 537Q203 546 202 554T205 564T215 566T221 558T222 537T213 500T177 478Q129 478 129 541Q128 572 154
604T209 647Q253 664 263 696Q265 705 275 705Q279 703 280 700L281 689Q281 684 281 668T283 617T296 522T307 438T314 384Q321 336 321 280Q322 278 322 273T321 254T320 238T318 218T315 198T312 179T308 160T303 141T298 122Q281 41 231 -8T133 -58Q124 -58
99 -46T69 -26Q52 -7 42 32T32 107Q32 181 87 249Q113 278 146 278T193 254T208 194T205 143T181 94T141 60Q140 60 139 60Q119 60 107 79T95 115T98 139T102 155T114 164T126 153Q126 146 123 137T120 122Q120 87 140 87Q156 88 170 119T184 165T186 188Q186 255
145 255T78 202T53 104Q53 30 88 -9Q92 -13 109 -20T133 -27Q170 -27 202 12T246 96Q270 185 270 257T267 387T262 479L263 534Z" />
<glyph unicode="&#xcf;" glyph-name="Idieresis" horiz-adv-x="353" d="M339 801T351 792T364 769T351 742T324 729Q290 729 287 762Q284 777 296 789T323 801ZM207 780T207 765T198 739T173 728T146 739T136 765Q138 780 148 791T173 802T197 791ZM263 534L259
637Q259 643 259 647Q251 640 223 630T174 592T153 546T159 513T176 498Q203 498 203 537Q203 546 202 554T205 564T215 566T221 558T222 537T213 500T177 478Q129 478 129 541Q128 572 154 604T209 647Q253 664 263 696Q265 705 275 705Q279 703 280 700L281 689Q281
684 281 668T283 617T296 522T307 438T314 384Q321 336 321 280Q322 278 322 273T321 254T320 238T318 218T315 198T312 179T308 160T303 141T298 122Q281 41 231 -8T133 -58Q124 -58 99 -46T69 -26Q52 -7 42 32T32 107Q32 181 87 249Q113 278 146 278T193 254T208
194T205 143T181 94T141 60Q140 60 139 60Q119 60 107 79T95 115T98 139T102 155T114 164T126 153Q126 146 123 137T120 122Q120 87 140 87Q156 88 170 119T184 165T186 188Q186 255 145 255T78 202T53 104Q53 30 88 -9Q92 -13 109 -20T133 -27Q170 -27 202 12T246
96Q270 185 270 257T267 387T262 479L263 534Z" />
<glyph unicode="&#xd0;" glyph-name="Eth" horiz-adv-x="748" d="M45 447Q45 438 54 438H66Q83 438 122 451Q128 453 131 450T135 441T129 433H128Q68 417 54 419T33 427T26 449Q26 484 63 512T141 556Q205 579 244 589V627Q244 686 273 735T350 784Q351 784 352
784Q377 784 394 766T412 723T396 676T351 652Q345 651 342 655T340 665T354 672T380 689T394 722T382 751T352 763Q313 762 290 720T267 627Q267 615 271 595Q335 608 390 608T469 605Q565 589 640 521T716 365Q716 258 676 160Q656 108 557 56T367 4Q366 4 364
4Q337 4 273 24Q254 -8 221 -34Q197 -52 150 -52Q119 -51 90 -24Q44 20 44 56Q44 68 52 68Q64 68 70 51Q71 48 71 44Q78 25 102 11T144 -3T185 12Q198 23 215 41Q153 65 141 68T131 84T148 93Q152 92 160 89Q178 82 235 74Q274 143 276 231Q255 231 242 235T212
239T180 228T157 228T156 245T171 258T184 268Q197 279 210 279T240 273T264 267L276 266Q274 356 266 396T254 460T249 516T245 563Q146 552 78 498Q46 473 45 447ZM347 231L334 232Q332 143 296 64V63H364Q439 64 518 106T627 192Q669 256 669 366Q669 427 627
476T524 549T396 573T274 568Q279 543 296 497T318 430Q332 363 334 266Q346 264 348 264Q401 264 413 271T429 271T425 258Q384 231 347 231Z" />
<glyph unicode="&#xd1;" glyph-name="Ntilde" horiz-adv-x="710" d="M663 119Q663 178 629 178Q612 178 594 134Q590 126 590 114T596 84T613 66Q628 86 632 72T623 50L613 48Q596 48 581 72T566 114T582 167Q601 209 629 209Q630 209 631 209Q655 209 670 184Q694
144 694 93T683 -1T642 -77T579 -111T520 -85T483 -20Q457 54 457 97T466 181T484 249T512 322T536 386T558 438Q590 508 590 556Q590 578 581 606T559 641T529 650Q485 650 450 610Q422 580 399 543T345 462T276 349V335L277 240Q277 -5 207 -45Q190 -55 177 -55Q135
-55 127 36Q126 69 125 78T124 95T129 124T139 156T153 192T178 258T217 344H216L219 441Q219 532 214 558T200 610Q184 661 142 661T67 610T35 512Q35 421 67 376Q78 362 102 362T146 380T165 422T155 454T136 463T121 461T110 462T106 471T116 479T138 483T167
469T184 422T160 365T99 339T46 361T22 398Q1 436 1 502Q1 578 44 634T143 690Q175 690 199 667T238 606Q270 523 270 438Q327 529 356 565T411 628Q464 679 529 679Q571 679 593 640T615 566T610 506T600 465T583 420T566 376Q526 262 526 119Q526 -75 573 -75Q604
-75 626 -46Q663 1 663 82V119ZM533 855Q549 855 549 832T529 790T479 771Q453 771 432 780Q360 810 335 810T308 794Q305 770 292 770Q280 774 278 787Q278 801 297 825T325 850T341 851Q375 851 416 833T477 815T505 816T521 824T528 843Q527 855 533 855ZM169
93T169 65T180 9H181Q214 41 216 225Q184 144 177 119Z" />
<glyph unicode="&#xd2;" glyph-name="Ograve" horiz-adv-x="645" d="M258 816T265 816T285 810T352 776T435 738Q448 733 442 724T417 722T340 739T255 760Q237 769 236 789T248 813Q258 816 265 816ZM246 387Q246 335 306 335Q336 335 364 360T393 414Q393 424
384 434T363 445T330 429T308 402Q308 399 310 396Q321 377 309 377T292 388T293 415T322 452T364 474Q365 474 366 474L404 454Q424 434 424 414Q424 373 385 337T306 301T240 322T214 383Q214 480 312 537Q349 559 381 559Q439 559 487 535T562 464Q609 379 609
318Q609 196 543 103Q511 56 444 22T318 -12Q181 -12 97 82T12 309Q12 375 51 464T137 596Q165 622 242 661Q280 680 323 680Q437 680 490 614Q507 592 513 587T518 575T511 568T501 570H500Q414 646 323 646Q278 646 254 634Q170 590 137 539T72 379Q62 346 62
326T62 290T76 227Q103 142 165 91T317 38Q367 38 423 64T506 129Q567 215 567 319Q567 378 528 445Q506 483 466 504T390 525T345 520Q295 492 271 463T246 387Z" />
<glyph unicode="&#xd3;" glyph-name="Oacute" horiz-adv-x="645" d="M440 805T447 805T465 803Q479 799 478 779T457 750Q431 739 373 729T294 712T270 713T278 728Q306 738 360 766T427 799ZM246 387Q246 335 306 335Q336 335 364 360T393 414Q393 424 384 434T363
445T330 429T308 402Q308 399 310 396Q321 377 309 377T292 388T293 415T322 452T364 474Q365 474 366 474L404 454Q424 434 424 414Q424 373 385 337T306 301T240 322T214 383Q214 480 312 537Q349 559 381 559Q439 559 487 535T562 464Q609 379 609 318Q609 196
543 103Q511 56 444 22T318 -12Q181 -12 97 82T12 309Q12 375 51 464T137 596Q165 622 242 661Q280 680 323 680Q437 680 490 614Q507 592 513 587T518 575T511 568T501 570H500Q414 646 323 646Q278 646 254 634Q170 590 137 539T72 379Q62 346 62 326T62 290T76
227Q103 142 165 91T317 38Q367 38 423 64T506 129Q567 215 567 319Q567 378 528 445Q506 483 466 504T390 525T345 520Q295 492 271 463T246 387Z" />
<glyph unicode="&#xd4;" glyph-name="Ocircumflex" horiz-adv-x="645" d="M510 720T510 708T499 695Q493 695 481 701T423 724T354 755T318 770T298 766Q268 746 224 726T168 697T150 687T140 690Q134 698 151 715Q190 755 244 799T328 844Q331 844 405 791T494
729ZM246 387Q246 335 306 335Q336 335 364 360T393 414Q393 424 384 434T363 445T330 429T308 402Q308 399 310 396Q321 377 309 377T292 388T293 415T322 452T364 474Q365 474 366 474L404 454Q424 434 424 414Q424 373 385 337T306 301T240 322T214 383Q214
480 312 537Q349 559 381 559Q439 559 487 535T562 464Q609 379 609 318Q609 196 543 103Q511 56 444 22T318 -12Q181 -12 97 82T12 309Q12 375 51 464T137 596Q165 622 242 661Q280 680 323 680Q437 680 490 614Q507 592 513 587T518 575T511 568T501 570H500Q414
646 323 646Q278 646 254 634Q170 590 137 539T72 379Q62 346 62 326T62 290T76 227Q103 142 165 91T317 38Q367 38 423 64T506 129Q567 215 567 319Q567 378 528 445Q506 483 466 504T390 525T345 520Q295 492 271 463T246 387Z" />
<glyph unicode="&#xd5;" glyph-name="Otilde" horiz-adv-x="645" d="M454 790Q467 784 467 759Q467 745 443 726T381 707Q347 707 320 716T259 735T197 746T167 730Q163 707 146 707Q132 710 129 724Q129 738 152 761T187 786T208 787Q250 787 302 770T389 752T433
760T441 780T444 792T454 790ZM246 387Q246 335 306 335Q336 335 364 360T393 414Q393 424 384 434T363 445T330 429T308 402Q308 399 310 396Q321 377 309 377T292 388T293 415T322 452T364 474Q365 474 366 474L404 454Q424 434 424 414Q424 373 385 337T306
301T240 322T214 383Q214 480 312 537Q349 559 381 559Q439 559 487 535T562 464Q609 379 609 318Q609 196 543 103Q511 56 444 22T318 -12Q181 -12 97 82T12 309Q12 375 51 464T137 596Q165 622 242 661Q280 680 323 680Q437 680 490 614Q507 592 513 587T518
575T511 568T501 570H500Q414 646 323 646Q278 646 254 634Q170 590 137 539T72 379Q62 346 62 326T62 290T76 227Q103 142 165 91T317 38Q367 38 423 64T506 129Q567 215 567 319Q567 378 528 445Q506 483 466 504T390 525T345 520Q295 492 271 463T246 387Z"
/>
<glyph unicode="&#xd6;" glyph-name="Odieresis" horiz-adv-x="645" d="M406 774T418 766T430 742T418 715T390 702Q358 702 353 735Q350 750 362 762T390 774ZM273 753T273 738T264 712T240 701T212 712T201 738T215 764T240 775T264 764ZM246 387Q246 335 306
335Q336 335 364 360T393 414Q393 424 384 434T363 445T330 429T308 402Q308 399 310 396Q321 377 309 377T292 388T293 415T322 452T364 474Q365 474 366 474L404 454Q424 434 424 414Q424 373 385 337T306 301T240 322T214 383Q214 480 312 537Q349 559 381 559Q439
559 487 535T562 464Q609 379 609 318Q609 196 543 103Q511 56 444 22T318 -12Q181 -12 97 82T12 309Q12 375 51 464T137 596Q165 622 242 661Q280 680 323 680Q437 680 490 614Q507 592 513 587T518 575T511 568T501 570H500Q414 646 323 646Q278 646 254 634Q170
590 137 539T72 379Q62 346 62 326T62 290T76 227Q103 142 165 91T317 38Q367 38 423 64T506 129Q567 215 567 319Q567 378 528 445Q506 483 466 504T390 525T345 520Q295 492 271 463T246 387Z" />
<glyph unicode="&#xd7;" glyph-name="multiply" horiz-adv-x="419" d="M67 361Q43 361 43 375T77 389T150 355T216 273L254 318Q281 351 305 368T357 386Q377 380 377 372T355 354Q352 353 346 357T328 361T301 344T270 302T251 274Q241 264 229 249Q244 221 253
210T276 174Q307 120 326 108T366 96T387 86T372 75Q319 75 302 87Q280 100 251 135Q243 144 231 163T213 192Q209 195 201 211Q198 206 189 193T175 173T162 155T146 136Q94 75 47 75Q38 75 38 80Q38 88 51 101T65 115Q95 133 114 153T156 203T187 242Q170 277
158 298T123 340T76 361H67Z" />
<glyph unicode="&#xd8;" glyph-name="Oslash" horiz-adv-x="645" d="M609 318Q609 187 528 88T318 -12Q244 -12 180 19Q155 -67 149 -91T132 -152T116 -206Q111 -227 97 -227Q91 -227 85 -222T83 -198T99 -139T121 -66T151 36Q86 79 49 151T12 298T50 463T137
596Q168 625 242 661Q283 680 319 680T384 673Q418 752 436 811Q438 823 448 823T464 818T467 802Q452 747 417 664Q441 656 457 645T492 612T517 583T518 570T501 570H500Q458 609 402 631L372 559H381Q479 559 544 488T609 318ZM567 319Q567 402 514 463T380
525Q372 525 358 523L335 463Q355 474 369 474T404 455T424 414Q424 374 386 338T306 301Q289 301 277 305Q230 175 197 71Q252 38 317 38Q430 38 498 121T567 319ZM323 646Q266 646 216 613T133 530T81 421T62 303T90 186T168 90Q213 227 246 318Q214 340 214
386T248 481T332 549Q345 582 371 641Q344 646 323 646ZM393 414Q393 424 384 434T361 445T319 420L310 396Q315 386 315 384Q315 376 308 376Q305 376 304 377L289 336Q295 335 306 335Q336 335 364 360T393 414ZM284 485T265 452T246 392T259 352L316 505Q284
485 265 452Z" />
<glyph unicode="&#xd9;" glyph-name="Ugrave" horiz-adv-x="560" d="M392 391L394 536Q394 577 406 625T446 673Q446 673 447 673Q494 673 494 517Q494 511 494 498Q494 324 470 246L464 225Q490 128 495 104T513 47T534 -6Q554 -54 612 -103Q616 -106 616 -111Q616
-119 606 -119L599 -116Q561 -87 551 -73T520 -36Q484 4 469 47Q464 61 451 93T430 146Q347 -28 250 -28Q249 -28 248 -28Q182 -28 140 24Q86 91 91 174Q92 190 92 197V202Q106 282 134 377T164 535Q164 643 122 643H109Q77 635 58 594T38 514Q38 481 45 456T62
431Q68 431 73 432Q104 432 104 457Q104 472 92 496Q87 504 95 509T108 507V506Q125 478 125 454Q125 409 72 405Q50 405 44 409T32 419T25 433T20 449T18 467T17 484V515Q17 559 41 605T104 661Q122 665 123 665Q158 665 181 619T205 535Q204 443 181 364Q171
325 147 195Q147 194 146 174Q145 110 174 67T250 22Q284 22 321 66T379 153Q408 221 410 226Q392 311 392 391ZM475 519Q475 653 446 653T421 559Q422 541 422 524T431 446T440 366T444 329Q475 447 475 519ZM359 703Q359 701 356 697T348 692T328 697T256 713T174
733T150 764T161 786T180 789T201 784T268 750T340 716T359 703Z" />
<glyph unicode="&#xda;" glyph-name="Uacute" horiz-adv-x="560" d="M392 391L394 536Q394 577 406 625T446 673Q446 673 447 673Q494 673 494 517Q494 511 494 498Q494 324 470 246L464 225Q490 128 495 104T513 47T534 -6Q554 -54 612 -103Q616 -106 616 -111Q616
-119 606 -119L599 -116Q561 -87 551 -73T520 -36Q484 4 469 47Q464 61 451 93T430 146Q347 -28 250 -28Q249 -28 248 -28Q182 -28 140 24Q86 91 91 174Q92 190 92 197V202Q106 282 134 377T164 535Q164 643 122 643H109Q77 635 58 594T38 514Q38 481 45 456T62
431Q68 431 73 432Q104 432 104 457Q104 472 92 496Q87 504 95 509T108 507V506Q125 478 125 454Q125 409 72 405Q50 405 44 409T32 419T25 433T20 449T18 467T17 484V515Q17 559 41 605T104 661Q122 665 123 665Q158 665 181 619T205 535Q204 443 181 364Q171
325 147 195Q147 194 146 174Q145 110 174 67T250 22Q284 22 321 66T379 153Q408 221 410 226Q392 311 392 391ZM475 519Q475 653 446 653T421 559Q422 541 422 524T431 446T440 366T444 329Q475 447 475 519ZM436 801Q448 797 448 777T425 747T344 727T270 712T249
706Q240 706 240 716Q240 722 249 726Q278 737 331 765T398 798T418 803T436 801Z" />
<glyph unicode="&#xdb;" glyph-name="Ucircumflex" horiz-adv-x="560" d="M392 391L394 536Q394 577 406 625T446 673Q446 673 447 673Q494 673 494 517Q494 511 494 498Q494 324 470 246L464 225Q490 128 495 104T513 47T534 -6Q554 -54 612 -103Q616 -106 616
-111Q616 -119 606 -119L599 -116Q561 -87 551 -73T520 -36Q484 4 469 47Q464 61 451 93T430 146Q347 -28 250 -28Q249 -28 248 -28Q182 -28 140 24Q86 91 91 174Q92 190 92 197V202Q106 282 134 377T164 535Q164 643 122 643H109Q77 635 58 594T38 514Q38 481
45 456T62 431Q68 431 73 432Q104 432 104 457Q104 472 92 496Q87 504 95 509T108 507V506Q125 478 125 454Q125 409 72 405Q50 405 44 409T32 419T25 433T20 449T18 467T17 484V515Q17 559 41 605T104 661Q122 665 123 665Q158 665 181 619T205 535Q204 443 181
364Q171 325 147 195Q147 194 146 174Q145 110 174 67T250 22Q284 22 321 66T379 153Q408 221 410 226Q392 311 392 391ZM224 757T180 737T123 708T103 698T95 706T106 726Q240 856 284 856Q287 856 321 831Q433 748 446 741Q469 730 465 714Q460 700 442 709T379
735T311 766T274 781T254 777Q224 757 180 737ZM420 581L422 538Q422 506 431 446T440 366T444 329Q475 447 475 519Q475 653 446 653Q420 653 420 581Z" />
<glyph unicode="&#xdc;" glyph-name="Udieresis" horiz-adv-x="560" d="M392 391L394 536Q394 577 406 625T446 673Q446 673 447 673Q494 673 494 517Q494 511 494 498Q494 324 470 246L464 225Q490 128 495 104T513 47T534 -6Q554 -54 612 -103Q616 -106 616
-111Q616 -119 606 -119L599 -116Q561 -87 551 -73T520 -36Q484 4 469 47Q464 61 451 93T430 146Q347 -28 250 -28Q249 -28 248 -28Q182 -28 140 24Q86 91 91 174Q92 190 92 197V202Q106 282 134 377T164 535Q164 643 122 643H109Q77 635 58 594T38 514Q38 481
45 456T62 431Q68 431 73 432Q104 432 104 457Q104 472 92 496Q87 504 95 509T108 507V506Q125 478 125 454Q125 409 72 405Q50 405 44 409T32 419T25 433T20 449T18 467T17 484V515Q17 559 41 605T104 661Q122 665 123 665Q158 665 181 619T205 535Q204 443 181
364Q171 325 147 195Q147 194 146 174Q145 110 174 67T250 22Q284 22 321 66T379 153Q408 221 410 226Q392 311 392 391ZM475 519Q475 653 446 653T421 559Q422 541 422 524T431 446T440 366T444 329Q475 447 475 519ZM404 748T404 734T391 707T364 693T339 702T327
726T336 753T364 765T392 757ZM248 744T248 729T238 703T213 692T187 702T175 719T176 735T188 755T213 766T238 755Z" />
<glyph unicode="&#xdd;" glyph-name="Yacute" horiz-adv-x="618" d="M177 758L237 763Q290 763 340 707T390 597Q390 512 310 399Q307 394 275 349T231 284T203 227T188 164T211 113T274 83T334 76Q380 76 431 157Q459 203 505 314Q500 350 498 364T493 430T484
512T478 567T478 613T491 682Q496 704 518 704T558 669Q588 611 588 519T550 310Q579 178 584 132T589 21T571 -105T522 -223T440 -313T330 -348T216 -306T161 -207Q161 -133 213 -77T338 -20Q372 -20 395 -46T419 -106T398 -168T346 -207Q334 -212 321 -212T294
-203Q272 -187 272 -162T287 -116T323 -95T354 -123Q356 -129 352 -133T343 -136T336 -130Q333 -115 323 -113Q310 -113 301 -128T292 -158Q292 -184 317 -184Q357 -184 385 -145Q398 -126 398 -103T381 -60T338 -40Q278 -40 241 -90T203 -205Q203 -247 245 -272T332
-298Q396 -298 444 -245T514 -122T536 28T517 228Q485 157 462 119Q420 50 362 30Q347 25 336 25T308 24Q280 22 255 26Q206 35 168 74T130 161T153 259T205 348Q294 465 321 523Q322 526 327 536T335 551T340 564Q347 580 347 600Q347 639 313 685T237 731H177Q176
731 175 731Q129 731 77 680T24 575T88 446Q104 428 125 428T172 445T203 481T209 522Q209 581 196 582Q193 582 190 582Q173 582 161 566T146 526Q145 520 140 519T131 520T128 529Q132 567 149 592T192 617Q236 617 240 550Q240 540 240 522Q240 474 204 437T119
399Q100 399 86 413T68 433T54 454T44 470Q4 532 4 576T38 664Q112 758 176 758Q176 758 177 758ZM554 534V587Q554 600 553 610T550 632T545 652T538 668Q530 683 515 683Q513 683 506 669Q494 626 508 555Q528 460 535 404Q554 469 554 534ZM512 871T519 871T538
868T550 845T527 815T444 794T371 779T350 773Q341 773 341 784Q341 790 360 796T432 831T499 865Z" />
<glyph unicode="&#xde;" glyph-name="Thorn" horiz-adv-x="603" d="M585 488Q585 430 557 365T478 253T367 205H353Q334 205 293 218T224 249V152Q224 91 189 1Q165 -67 123 -67Q73 -67 41 44Q35 69 35 109T51 188T91 227Q105 227 109 221T116 212T121 202T124
193T127 182T129 169T126 162T116 161T110 169Q102 207 92 207Q72 206 64 177T55 111T73 26T123 -22Q127 -22 133 7Q135 10 136 15T138 21Q163 88 163 174Q163 355 154 398T145 488T146 565L143 607Q87 559 69 491Q68 486 71 478T75 467Q79 466 83 465T90 464Q94
463 98 470T107 478T116 474T116 465Q107 444 91 433T61 421L53 422Q36 426 36 456Q36 548 141 640Q132 774 132 810T133 854Q135 863 145 863T160 856Q160 854 160 835T173 667Q268 737 348 737Q409 737 465 701Q585 624 585 488ZM352 248L367 252Q413 252 451
292T507 386T526 488Q526 598 436 656Q431 659 416 669T394 684Q371 697 348 697Q264 697 176 632Q186 517 193 407Q196 389 206 350T221 288Q242 271 283 260T352 248Z" />
<glyph unicode="&#xdf;" glyph-name="germandbls" horiz-adv-x="811" d="M707 619Q700 640 700 648Q686 653 660 674T615 704Q541 693 485 636T393 497Q375 457 344 358Q332 289 331 284T323 244T312 189T297 127T278 58T255 -8T226 -71T193 -120Q158 -167 108
-167Q82 -167 31 -139T-21 -80Q-21 -42 30 -40Q38 -39 54 -39T70 -56T54 -73Q15 -73 12 -80Q12 -88 39 -105T90 -130Q114 -118 133 -96T161 -54T185 -2T204 41T221 75T238 110Q253 142 260 170T284 261T308 352Q325 431 330 459Q366 614 460 701Q510 747 570 747Q597
747 618 738Q638 740 648 740Q700 740 727 674Q748 662 740 622Q747 585 747 539L751 494Q751 477 745 468Q703 394 521 337Q510 329 491 326Q501 309 538 301Q551 298 573 294T604 287Q662 273 685 242T709 155Q709 30 639 -64Q636 -68 628 -80Q613 -103 600 -113Q583
-128 551 -139T497 -151T452 -136T416 -106Q359 -41 359 46T412 192Q439 225 525 225Q526 225 527 225Q559 225 579 192T600 126L593 106Q593 82 563 55T520 27Q492 27 488 63Q487 67 488 76T490 89Q490 100 502 100T515 89Q515 59 530 59Q548 59 562 86Q567 97
567 106L562 126Q562 144 552 161T529 178T499 170T476 154T457 134T438 114Q419 92 419 66Q419 -20 451 -55Q457 -61 473 -73T494 -86Q514 -86 545 -69T590 -37Q659 52 659 155Q659 200 646 220Q629 246 547 258Q497 264 477 273Q441 289 439 339Q436 348 445
354Q455 367 471 371T494 370Q534 382 545 390Q589 418 625 435Q646 443 653 451Q705 527 707 619Z" />
<glyph unicode="&#xe0;" glyph-name="agrave" horiz-adv-x="281" d="M38 496T45 496T66 491T134 457T216 419Q229 414 224 405T199 403T122 420T41 439T17 469T26 493ZM162 354Q255 354 255 289Q255 266 240 249H241Q251 223 251 194T240 134Q253 66 282 -1Q284
-5 284 -10T279 -22T270 -29Q262 -29 251 -9T232 48T220 96Q171 25 124 25Q122 25 121 25Q71 25 42 56T13 130T18 204T38 272T82 330Q114 354 162 354ZM235 284Q235 336 171 336Q123 336 93 289T62 188T78 97T132 60Q156 60 176 78Q207 106 207 124T201 176T195
222T200 245Q192 259 189 263T191 272T203 271H202Q209 261 216 260Q220 262 223 262Q235 274 235 284Z" />
<glyph unicode="&#xe1;" glyph-name="aacute" horiz-adv-x="281" d="M247 492T254 492T269 488Q283 485 281 465T258 435T178 415T93 395Q77 391 74 400T82 413Q109 423 162 450T231 485ZM162 354Q255 354 255 289Q255 266 240 249H241Q251 223 251 194T240 134Q253
66 282 -1Q284 -5 284 -10T279 -22T270 -29Q262 -29 251 -9T232 48T220 96Q171 25 124 25Q122 25 121 25Q71 25 42 56T13 130T18 204T38 272T82 330Q114 354 162 354ZM235 284Q235 336 171 336Q123 336 93 289T62 188T78 97T132 60Q156 60 176 78Q207 106 207 124T201
176T195 222T200 245Q192 259 189 263T191 272T203 271H202Q209 261 216 260Q220 262 223 262Q235 274 235 284Z" />
<glyph unicode="&#xe2;" glyph-name="acircumflex" horiz-adv-x="281" d="M319 403Q319 400 318 398Q314 387 300 395T250 416T195 440T166 452T141 443T91 417T44 392T24 388T32 409Q140 513 174 513Q176 513 204 492Q290 428 304 421T319 403ZM162 354Q255 354
255 289Q255 266 240 249H241Q251 223 251 194T240 134Q253 66 282 -1Q284 -5 284 -10T279 -22T270 -29Q262 -29 251 -9T232 48T220 96Q171 25 124 25Q122 25 121 25Q71 25 42 56T13 130T18 204T38 272T82 330Q114 354 162 354ZM235 284Q235 336 171 336Q123 336
93 289T62 188T78 97T132 60Q156 60 176 78Q207 106 207 124T201 176T195 222T200 245Q192 259 189 263T191 272T203 271H202Q209 261 216 260Q220 262 223 262Q235 274 235 284Z" />
<glyph unicode="&#xe3;" glyph-name="atilde" horiz-adv-x="281" d="M269 483Q287 483 287 460T267 418T224 399T190 401Q174 404 134 421T71 438T46 422Q42 399 29 399Q17 401 17 415T35 453T63 478T79 479Q113 479 154 462T217 444Q218 444 227 444T245 445T259
453T265 472T269 483ZM162 354Q255 354 255 289Q255 266 240 249H241Q251 223 251 194T240 134Q253 66 282 -1Q284 -5 284 -10T279 -22T270 -29Q262 -29 251 -9T232 48T220 96Q171 25 124 25Q122 25 121 25Q71 25 42 56T13 130T18 204T38 272T82 330Q114 354 162
354ZM235 284Q235 336 171 336Q123 336 93 289T62 188T78 97T132 60Q156 60 176 78Q207 106 207 124T201 176T195 222T200 245Q192 259 189 263T191 272T203 271H202Q209 261 216 260Q220 262 223 262Q235 274 235 284Z" />
<glyph unicode="&#xe4;" glyph-name="adieresis" horiz-adv-x="281" d="M240 467T252 459T264 436T252 408T225 395T200 404T187 428T197 455T224 467ZM108 446T108 431T99 405T74 394T46 405T35 431T49 457T74 468T98 457ZM162 354Q255 354 255 289Q255 266 240
249H241Q251 223 251 194T240 134Q253 66 282 -1Q284 -5 284 -10T279 -22T270 -29Q262 -29 251 -9T232 48T220 96Q171 25 124 25Q122 25 121 25Q71 25 42 56T13 130T18 204T38 272T82 330Q114 354 162 354ZM235 284Q235 336 171 336Q123 336 93 289T62 188T78 97T132
60Q156 60 176 78Q207 106 207 124T201 176T195 222T200 245Q192 259 189 263T191 272T203 271H202Q209 261 216 260Q220 262 223 262Q235 274 235 284Z" />
<glyph unicode="&#xe5;" glyph-name="aring" horiz-adv-x="281" d="M168 550T195 531T223 462T178 412Q142 412 108 430T73 486T110 545Q114 550 141 550ZM162 354Q255 354 255 289Q255 266 240 249H241Q251 223 251 194T240 134Q253 66 282 -1Q284 -5 284 -10T279
-22T270 -29Q262 -29 251 -9T232 48T220 96Q171 25 124 25Q122 25 121 25Q71 25 42 56T13 130T18 204T38 272T82 330Q114 354 162 354ZM187 448Q189 452 189 472T173 504T145 516T128 516H127Q106 506 106 488T127 458T167 446T187 448ZM235 284Q235 336 171 336Q123
336 93 289T62 188T78 97T132 60Q156 60 176 78Q207 106 207 124T201 176T195 222T200 245Q192 259 189 263T191 272T203 271H202Q209 261 216 260Q220 262 223 262Q235 274 235 284Z" />
<glyph unicode="&#xe6;" glyph-name="ae" horiz-adv-x="500" d="M162 354Q255 354 255 289Q255 266 240 249H241L245 233Q279 303 347 323Q361 326 384 326T427 300T448 247T429 193T379 165Q364 165 329 180T280 208Q270 183 268 167Q263 110 297 64Q316 38 338
38T389 57T425 95T442 114Q449 114 449 108T445 91Q432 56 406 31T340 6T265 39L282 -1Q287 -12 281 -20T270 -29Q262 -29 251 -9T232 48T220 96Q171 25 124 25Q122 25 121 25Q71 25 42 56T13 130T18 204T38 272T82 330Q114 354 162 354ZM235 284Q235 336 171 336Q123
336 93 289T62 188T78 97T132 60Q156 60 176 78Q207 106 207 124T201 176T195 222T200 245Q192 259 189 263T191 272T203 271H202Q209 261 216 260Q220 262 223 262Q235 274 235 284ZM398 193T408 211T419 246T406 280T381 297T356 290Q311 277 288 227Q289 227
293 223T333 206T383 193Z" />
<glyph unicode="&#xe7;" glyph-name="ccedilla" horiz-adv-x="342" d="M245 230Q262 230 262 260V279Q262 334 194 334Q161 334 135 301T95 227T82 151Q82 90 111 55T195 19Q215 19 236 40T258 76Q258 110 240 110Q228 110 228 97T220 80T203 81T196 100T209 128T240
141T271 123T283 79T252 22T195 -10Q183 -10 178 -9Q176 -32 173 -43Q179 -41 190 -41Q223 -41 244 -59T265 -119T234 -189T173 -218T115 -202T86 -155T100 -108T132 -92T160 -101T170 -130T162 -155T145 -153Q137 -150 141 -143T151 -138T158 -132Q160 -117 143
-111Q138 -109 129 -109T112 -123T104 -154Q104 -193 173 -193Q199 -193 220 -171T242 -117T230 -71T197 -58T167 -63T157 -62T159 -46T166 -7Q109 1 79 43T48 140T65 248T117 342T199 383T269 374T306 337T320 278T299 223T248 200Q246 200 245 200Q221 200 212
212T202 234T205 255T216 267T231 263T234 245T245 230Z" />
<glyph unicode="&#xe8;" glyph-name="egrave" horiz-adv-x="254" d="M186 317T206 290T227 237T208 184T157 157Q143 157 109 172T59 198Q43 152 45 138T47 120Q56 81 75 55T118 29T169 48T204 87T222 105T222 76T185 23T127 -3Q77 -3 45 30T1 112V116Q1 182 33
239T127 314Q140 317 163 317ZM266 460Q295 460 295 438T275 406T177 382Q188 376 199 373Q212 368 207 359T185 356T123 370Q115 369 107 366T94 364Q82 367 87 377Q44 384 22 394T0 424T12 448Q23 450 30 450T47 446T71 435T106 417T137 401Q158 410 197 430Q254
460 266 460ZM178 184T188 202T199 237T186 271T163 288T137 282Q91 270 68 218Q70 218 74 214T113 197T163 184Z" />
<glyph unicode="&#xe9;" glyph-name="eacute" horiz-adv-x="254" d="M186 317T206 290T227 237T208 184T157 157Q143 157 109 172T59 198Q43 152 45 138T47 120Q56 81 75 55T118 29T169 48T204 87T222 105T222 76T185 23T127 -3Q77 -3 45 30T1 112V116Q1 182 33
239T127 314Q140 317 163 317ZM178 184T188 202T199 237T186 271T163 288T137 282Q91 270 68 218Q70 218 74 214T113 197T163 184ZM266 460Q295 460 295 438T272 405T190 384T116 369T95 363Q86 363 86 373Q86 379 95 383Q125 394 180 422T247 455T266 460Z" />
<glyph unicode="&#xea;" glyph-name="ecircumflex" horiz-adv-x="254" d="M186 317T206 290T227 237T208 184T157 157Q143 157 109 172T59 198Q43 152 45 138T47 120Q56 81 75 55T118 29T169 48T204 87T222 105T222 76T185 23T127 -3Q77 -3 45 30T1 112V116Q1
182 33 239T127 314Q140 317 163 317ZM288 366Q288 349 267 361Q257 366 220 379T165 404T136 417T110 408T61 382T12 355T-8 353Q-9 355 -9 358T1 372Q109 476 143 476Q148 476 205 433T275 384T288 366ZM178 184T188 202T199 237T186 271T163 288T137 282Q91
270 68 218Q70 218 74 214T113 197T163 184Z" />
<glyph unicode="&#xeb;" glyph-name="edieresis" horiz-adv-x="254" d="M186 317T206 290T227 237T208 184T157 157Q143 157 109 172T59 198Q43 152 45 138T47 120Q56 81 75 55T118 29T169 48T204 87T222 105T222 76T185 23T127 -3Q77 -3 45 30T1 112V116Q1 182
33 239T127 314Q140 317 163 317ZM178 184T188 202T199 237T186 271T163 288T137 282Q91 270 68 218Q70 218 74 214T113 197T163 184ZM261 423T261 409T248 382T221 368T196 377T184 401Q181 416 193 428T221 440T249 432ZM104 419T104 404T95 378T70 367T44 377T32
402T44 429T70 441T94 430Z" />
<glyph unicode="&#xec;" glyph-name="igrave" horiz-adv-x="177" d="M109 385T51 395T-31 415T-55 446T-44 468T-26 471T-5 466T61 433T144 394Q158 390 152 381T128 378ZM181 -18Q181 -32 162 -49T122 -67T74 -37T47 29T52 93T59 147T64 184T65 211T63 232T63
249T57 276Q47 286 53 301T75 317Q76 317 76 318V319Q79 319 82 319Q120 319 120 252Q120 198 109 156Q87 79 87 22Q87 0 98 -24T127 -48Q134 -48 152 -29T176 -9T181 -17V-18Z" />
<glyph unicode="&#xed;" glyph-name="iacute" horiz-adv-x="177" d="M244 480Q257 477 257 457T234 427T152 407T73 390T49 391T57 405Q86 415 140 443Q218 484 229 484L244 480ZM181 -18Q181 -32 162 -49T122 -67T74 -37T47 29T52 93T59 147T64 184T65 211T63
232T63 249T57 276Q47 286 53 301T75 317Q76 317 76 318V319Q79 319 82 319Q120 319 120 252Q120 198 109 156Q87 79 87 22Q87 0 98 -24T127 -48Q134 -48 152 -29T176 -9T181 -17V-18Z" />
<glyph unicode="&#xee;" glyph-name="icircumflex" horiz-adv-x="177" d="M253 426Q249 414 235 422T185 443T130 467T101 479T76 471T27 445T-16 422Q-30 411 -36 413T-42 419Q-42 427 -32 436Q72 540 109 540Q112 540 170 497T241 447T254 434T253 426ZM181
-18Q181 -32 162 -49T122 -67T74 -37T47 29T52 93T59 147T64 184T65 211T63 232T63 249T57 276Q47 286 53 301T75 317Q76 317 76 318V319Q79 319 82 319Q120 319 120 252Q120 198 109 156Q87 79 87 22Q87 0 98 -24T127 -48Q134 -48 152 -29T176 -9T181 -17V-18Z"
/>
<glyph unicode="&#xef;" glyph-name="idieresis" horiz-adv-x="177" d="M189 476T201 468T213 445T200 417T173 404T148 413T136 437T145 464T173 476ZM37 477T46 467T56 441T47 414T22 403T-4 413T-16 438T-4 465T22 477ZM181 -18Q181 -32 162 -49T122 -67T74
-37T47 29T52 93T59 147T64 184T65 211T63 232T63 249T57 276Q47 286 53 301T75 317Q76 317 76 318V319Q79 319 82 319Q120 319 120 252Q120 198 109 156Q87 79 87 22Q87 0 98 -24T127 -48Q134 -48 152 -29T176 -9T181 -17V-18Z" />
<glyph unicode="&#xf0;" glyph-name="eth" horiz-adv-x="495" d="M422 312Q428 266 428 216T412 127Q384 66 333 29Q268 -15 200 -15Q120 -15 86 53Q72 82 72 108T76 168T88 212Q100 224 120 259Q134 288 189 301T274 315T316 314Q338 318 333 306Q330 298 318
287Q309 289 288 289T209 272T146 234Q143 218 136 196T124 162Q119 144 119 122T125 85Q146 18 219 18Q269 18 318 54Q342 73 360 148Q366 174 367 178Q381 222 381 262Q381 394 319 481Q307 475 289 469Q279 468 265 460T242 431Q236 418 224 424T215 439T222
458T228 473Q239 500 274 504Q290 506 296 508Q268 535 231 550T159 566Q105 566 78 532Q68 522 62 528T56 540T60 551Q98 599 185 599Q225 599 272 584T347 536Q349 538 361 542T374 548Q421 574 428 588Q435 599 440 594T446 586T442 574T421 546T389 519L367
508Q407 436 422 312Z" />
<glyph unicode="&#xf1;" glyph-name="ntilde" horiz-adv-x="413" d="M130 242L131 286Q131 338 116 353Q108 361 94 361Q67 361 41 331T15 272Q15 260 22 241T41 221T65 232T76 256T73 274T60 278T48 281T47 291T55 296V297Q58 297 70 297T91 290T99 259T81 219T38
200Q23 200 7 228T-10 273Q-9 311 24 351T91 392T147 364Q183 319 186 243V203Q236 321 245 334Q285 394 328 394Q349 394 365 368T382 320Q382 274 373 251Q344 181 344 107Q344 19 374 -41Q386 -41 399 -34T417 -29T422 -37T417 -45Q389 -62 371 -62T338 -30Q336
-25 329 -11T319 13T310 36Q300 64 300 82T300 109Q300 215 324 271Q339 306 338 320Q338 358 328 358Q294 358 266 310Q245 275 227 237Q194 164 161 4Q160 -2 151 -3T133 0T124 10Q130 75 130 143T130 242ZM382 522Q398 522 398 500T379 458T336 438T302 440Q286
443 246 460T183 477T158 461Q154 438 141 438Q129 440 129 454T147 492T175 517T191 518Q225 518 266 501T327 483T355 484T370 492T377 511T382 522Z" />
<glyph unicode="&#xf2;" glyph-name="ograve" horiz-adv-x="323" d="M38 494T46 494T68 488T136 455T218 416Q231 412 226 403T207 398Q181 408 123 417T43 436T20 467T31 491Q38 494 46 494ZM233 272Q258 272 274 233T291 154T265 64T202 -6Q170 -19 159 -19Q118
-17 76 15Q49 36 31 75T13 143T22 220T75 319Q116 363 161 363Q188 363 206 349T225 312T216 271T191 252Q190 252 189 252Q164 252 142 289Q139 293 141 297T148 301T156 298Q160 292 171 282T190 272Q202 272 206 307Q206 329 161 329Q152 329 147 327T138 324T132
320T126 316T121 311T116 305Q111 299 101 287T85 259T78 217T74 174T71 152V120Q71 83 75 74T82 60Q88 48 97 41Q138 12 160 12T209 32T249 77Q272 123 272 166T247 234Q233 243 231 228Q231 225 236 215T236 198T222 192T211 198T204 213T199 231T211 256Q224
272 233 272Z" />
<glyph unicode="&#xf3;" glyph-name="oacute" horiz-adv-x="323" d="M269 489Q283 486 282 466T258 436T178 416T98 399T73 402Q73 410 82 414Q110 424 164 452Q241 492 254 492L269 489ZM233 272Q258 272 274 233T291 154T265 64T202 -6Q170 -19 159 -19Q118
-17 76 15Q49 36 31 75T13 143T22 220T75 319Q116 363 161 363Q188 363 206 349T225 312T216 271T191 252Q190 252 189 252Q164 252 142 289Q139 293 141 297T148 301T156 298Q160 292 171 282T190 272Q202 272 206 307Q206 329 161 329Q152 329 147 327T138 324T132
320T126 316T121 311T116 305Q111 299 101 287T85 259T78 217T74 174T71 152V120Q71 83 75 74T82 60Q88 48 97 41Q138 12 160 12T209 32T249 77Q272 123 272 166T247 234Q233 243 231 228Q231 225 236 215T236 198T222 192T211 198T204 213T199 231T211 256Q224
272 233 272Z" />
<glyph unicode="&#xf4;" glyph-name="ocircumflex" horiz-adv-x="323" d="M300 425Q300 423 298 418T281 419T230 438T176 463T147 475T131 472Q106 456 71 440T23 414T5 412Q4 413 4 417T13 431Q117 535 156 535Q158 535 216 492T287 442T300 425ZM233 272Q258
272 274 233T291 154T265 64T202 -6Q170 -19 159 -19Q118 -17 76 15Q49 36 31 75T13 143T22 220T75 319Q116 363 161 363Q188 363 206 349T225 312T216 271T191 252Q190 252 189 252Q164 252 142 289Q139 293 141 297T148 301T156 298Q160 292 171 282T190 272Q202
272 206 307Q206 329 161 329Q152 329 147 327T138 324T132 320T126 316T121 311T116 305Q111 299 101 287T85 259T78 217T74 174T71 152V120Q71 83 75 74T82 60Q88 48 97 41Q138 12 160 12T209 32T249 77Q272 123 272 166T247 234Q233 243 231 228Q231 225 236
215T236 198T222 192T211 198T204 213T199 231T211 256Q224 272 233 272Z" />
<glyph unicode="&#xf5;" glyph-name="otilde" horiz-adv-x="323" d="M55 424Q52 402 38 402T24 417T43 456T70 481T84 482Q118 482 160 464T220 446T244 446T260 450Q275 455 273 479Q273 487 277 487Q295 487 295 464T275 421T232 401T199 403T171 412Q109 439
83 439T55 424ZM233 272Q258 272 274 233T291 154T265 64T202 -6Q170 -19 159 -19Q118 -17 76 15Q49 36 31 75T13 143T22 220T75 319Q116 363 161 363Q188 363 206 349T225 312T216 271T191 252Q190 252 189 252Q164 252 142 289Q139 293 141 297T148 301T156 298Q160
292 171 282T190 272Q202 272 206 307Q206 329 161 329Q152 329 147 327T138 324T132 320T126 316T121 311T116 305Q111 299 101 287T85 259T78 217T74 174T71 152V120Q71 83 75 74T82 60Q88 48 97 41Q138 12 160 12T209 32T249 77Q272 123 272 166T247 234Q233
243 231 228Q231 225 236 215T236 198T222 192T211 198T204 213T199 231T211 256Q224 272 233 272Z" />
<glyph unicode="&#xf6;" glyph-name="odieresis" horiz-adv-x="323" d="M250 479T263 470T276 447T263 421T235 408T210 416T198 440Q196 455 208 467T235 479ZM99 480T109 469T119 443T109 418T84 407T57 418T47 444T59 469T84 480ZM233 272Q258 272 274 233T291
154T265 64T202 -6Q170 -19 159 -19Q118 -17 76 15Q49 36 31 75T13 143T22 220T75 319Q116 363 161 363Q188 363 206 349T225 312T216 271T191 252Q190 252 189 252Q164 252 142 289Q139 293 141 297T148 301T156 298Q160 292 171 282T190 272Q202 272 206 307Q206
329 161 329Q152 329 147 327T138 324T132 320T126 316T121 311T116 305Q111 299 101 287T85 259T78 217T74 174T71 152V120Q71 83 75 74T82 60Q88 48 97 41Q138 12 160 12T209 32T249 77Q272 123 272 166T247 234Q233 243 231 228Q231 225 236 215T236 198T222
192T211 198T204 213T199 231T211 256Q224 272 233 272Z" />
<glyph unicode="&#xf7;" glyph-name="divide" horiz-adv-x="304" d="M217 357T217 340T204 311T173 299T141 311T128 340T141 369T172 382T204 370ZM197 239L225 236Q278 236 290 243T306 242Q308 239 308 236T302 230Q262 203 224 203L197 205L170 203Q133 203
119 207T89 211T57 200T34 200Q30 205 30 210T35 219T48 230T60 240Q74 251 87 251T117 245T141 239L170 236L197 239ZM182 140T195 128T208 99T195 69T164 57T133 69T120 98T132 128T163 140Z" />
<glyph unicode="&#xf8;" glyph-name="oslash" horiz-adv-x="323" d="M26 -32Q30 -49 21 -49Q17 -49 16 -46Q9 -37 10 -32Q10 3 43 53Q13 103 13 153Q13 171 22 220T75 319Q116 363 161 363Q187 363 205 349T225 309Q240 332 245 346Q251 356 261 356T274 348T271
335H274Q265 308 236 272Q260 269 275 231T291 153T265 64T202 -6Q170 -19 159 -19Q101 -16 55 36Q26 -11 26 -32ZM97 41Q138 12 160 12T209 32T249 77Q272 123 272 166T247 234Q233 243 231 228Q231 225 236 215T236 198T222 192T211 198T204 213T199 228Q124
142 95 97Q94 95 77 71Q83 52 97 41ZM71 147L70 116Q70 108 71 102Q138 210 176 250L178 253Q157 260 142 289Q139 293 141 297T148 301T156 298Q160 292 171 282T190 272Q202 272 206 307Q206 329 161 329Q152 329 147 327T138 324T132 320T126 316T121 311T116
305Q111 299 101 287T85 259T78 217T74 174T71 147Z" />
<glyph unicode="&#xf9;" glyph-name="ugrave" horiz-adv-x="319" d="M18 376Q-3 386 -3 405T10 429Q20 431 28 431T49 426T115 392T197 354Q210 349 205 340T181 338T103 355T18 376ZM73 240L65 175Q65 102 94 102Q117 102 137 123T171 177Q191 224 206 287Q208
297 221 297T236 292T249 270Q257 242 270 179T289 99T294 74T286 58T269 50Q243 50 237 70T228 112T223 163T218 207Q170 68 94 68Q68 68 51 104T33 164T36 209T41 240T47 261T53 279T59 287T68 287T72 278T71 259T73 240Z" />
<glyph unicode="&#xfa;" glyph-name="uacute" horiz-adv-x="319" d="M272 424Q286 421 285 401T261 371T180 351T101 334T77 335T85 349Q113 359 166 387Q245 428 257 428L272 424ZM73 240L65 175Q65 102 94 102Q117 102 137 123T171 177Q191 224 206 287Q208
297 221 297T236 292T249 270Q257 242 270 179T289 99T294 74T286 58T269 50Q243 50 237 70T228 112T223 163T218 207Q170 68 94 68Q68 68 51 104T33 164T36 209T41 240T47 261T53 279T59 287T68 287T72 278T71 259T73 240Z" />
<glyph unicode="&#xfb;" glyph-name="ucircumflex" horiz-adv-x="319" d="M315 366Q315 349 293 361Q281 367 245 380T191 405T163 417T137 407T87 381T39 356T22 350T18 358T24 368T44 388T68 410T94 433T123 456Q153 477 170 477Q174 477 231 434T302 383T315
366ZM73 240L65 175Q65 102 94 102Q117 102 137 123T171 177Q191 224 206 287Q208 297 221 297T236 292T249 270Q257 242 270 179T289 99T294 74T286 58T269 50Q243 50 237 70T228 112T223 163T218 207Q170 68 94 68Q68 68 51 104T33 164T36 209T41 240T47 261T53
279T59 287T68 287T72 278T71 259T73 240Z" />
<glyph unicode="&#xfc;" glyph-name="udieresis" horiz-adv-x="319" d="M267 398T267 384T254 357T226 344Q194 344 189 376Q187 392 198 404T225 416T254 407ZM110 395T110 380T100 354T75 343T48 354T38 380T50 406T75 417T100 406ZM73 240L65 175Q65 102 94
102Q117 102 137 123T171 177Q191 224 206 287Q208 297 221 297T236 292T249 270Q257 242 270 179T289 99T294 74T286 58T269 50Q243 50 237 70T228 112T223 163T218 207Q170 68 94 68Q68 68 51 104T33 164T36 209T41 240T47 261T53 279T59 287T68 287T72 278T71
259T73 240Z" />
<glyph unicode="&#xfd;" glyph-name="yacute" horiz-adv-x="383" d="M140 335Q140 375 104 375T47 338T27 259T62 216Q71 216 74 220T77 234T82 245T92 246Q97 243 97 225T91 198T62 189T22 199Q1 216 1 262T30 353T103 398Q178 395 178 323Q178 311 171 265T161
206Q156 184 156 141Q156 71 187 71Q226 71 259 139Q260 141 263 149Q237 221 237 278Q237 358 281 358Q300 358 309 334T318 287Q318 221 292 155L291 156Q297 141 313 105T338 49Q360 -8 360 -53Q358 -121 347 -161T303 -238T228 -290T164 -306T127 -299Q80 -279
48 -233T15 -132T59 -41T164 -3Q201 -3 231 -32T262 -95T236 -162T181 -195Q163 -195 137 -175T110 -140T120 -110T132 -88T144 -87T142 -110T130 -138T147 -158T176 -169T208 -144T228 -97T208 -52T165 -29Q124 -29 91 -61T58 -133T83 -204T147 -252Q155 -256
169 -256T216 -245T265 -214Q325 -152 325 -88Q325 -27 320 -4T306 40T289 84T276 120Q232 39 188 39Q187 39 186 39Q147 39 123 85T99 172Q99 188 109 216Q140 308 140 335ZM277 192Q288 242 288 284T277 327Q264 327 257 302Q254 293 255 284H256Q260 244 277
192ZM300 574T307 574T326 572T338 549T315 519T232 498T159 483T138 477T129 485Q129 493 138 497Q167 507 220 535T287 568Z" />
<glyph unicode="&#xfe;" glyph-name="thorn" horiz-adv-x="320" d="M63 520L62 471Q62 408 79 293Q135 351 193 352Q217 352 251 330T293 288T302 213T279 100T221 -1Q201 -27 158 -27Q150 -27 133 -13T115 6Q102 25 102 59Q102 67 112 83T124 102Q128 111 136
108T144 99T142 86T140 74T138 68L140 60Q140 53 149 43T158 32T158 25Q167 25 177 37Q205 72 224 120T244 212T241 264Q217 315 195 315Q136 315 85 259Q97 179 98 113Q98 -259 61 -314Q44 -339 25 -339Q8 -339 8 -330Q7 -324 10 -321T21 -319T36 -308T46 -274Q53
-235 53 -213Q55 -192 56 -175T58 -134T61 -82Q65 25 65 58T64 114Q63 172 57 228Q55 223 40 207T25 183T19 172T6 171T0 182V183Q0 203 32 234Q46 249 52 258Q31 387 28 455L34 553Q37 567 52 567T66 560Q63 548 63 520Z" />
<glyph unicode="&#xff;" glyph-name="ydieresis" horiz-adv-x="383" d="M140 335Q140 375 104 375T47 338T27 259T62 216Q71 216 74 220T77 234T82 245T92 246Q97 243 97 225T91 198T62 189T22 199Q1 216 1 262T30 353T103 398Q178 395 178 323Q178 311 171 265T161
206Q156 184 156 141Q156 71 187 71Q226 71 259 139Q260 141 263 149Q237 221 237 278Q237 358 281 358Q300 358 309 334T318 287Q318 221 292 155L291 156Q297 141 313 105T338 49Q360 -8 360 -53Q358 -121 347 -161T303 -238T228 -290T164 -306T127 -299Q80 -279
48 -233T15 -132T59 -41T164 -3Q201 -3 231 -32T262 -95T236 -162T181 -195Q163 -195 137 -175T110 -140T120 -110T132 -88T144 -87T142 -110T130 -138T147 -158T176 -169T208 -144T228 -97T208 -52T165 -29Q124 -29 91 -61T58 -133T83 -204T147 -252Q155 -256
169 -256T216 -245T265 -214Q325 -152 325 -88Q325 -27 320 -4T306 40T289 84T276 120Q232 39 188 39Q187 39 186 39Q147 39 123 85T99 172Q99 188 109 216Q140 308 140 335ZM277 192Q288 242 288 284T277 327Q264 327 257 302Q254 293 255 284H256Q260 244 277
192ZM259 550Q277 550 284 532Q286 524 286 515T282 496Q274 477 252 477T219 491T221 515Q223 517 232 526Q253 550 259 550ZM159 512Q159 510 158 507Q155 478 121 478Q115 478 105 483T94 495L93 520Q93 531 99 538T114 545T129 543Q159 536 159 512Z" />
<glyph unicode="&#x2013;" glyph-name="endash" horiz-adv-x="475" d="M293 205L88 214Q73 214 61 207T46 200Q38 200 38 211L41 217Q46 221 55 230T70 244Q86 256 105 256Q253 256 278 254T332 246T369 241T391 242T417 243T442 243T464 239T472 228T449 216T390
208Q341 205 293 205Z" />
<glyph unicode="&#x2014;" glyph-name="emdash" horiz-adv-x="683" d="M636 254L726 258Q749 258 749 247T735 235L597 224Q597 224 464 228L195 226Q177 226 141 220T92 214T72 226T65 251T73 264V263Q148 278 221 278Q237 278 271 269T323 260L464 264L636 254Z" />
<glyph unicode="&#x2018;" glyph-name="quoteleft" horiz-adv-x="211" d="M136 517L140 538Q140 542 129 542T112 537T103 532Q94 532 94 542T108 561T134 569T162 552T178 512T156 470T107 450T68 473T55 532T75 611T131 675Q133 676 136 676Q147 676 147 668L142
660H141Q80 622 80 525Q80 486 106 486Q124 486 136 517Z" />
<glyph unicode="&#x2019;" glyph-name="quoteright" horiz-adv-x="268" d="M122 590L120 605Q120 614 130 614L138 608Q144 596 144 590T135 572T118 560Q116 561 107 564T93 569T86 574T81 580Q77 584 77 603T92 649T131 676Q171 676 171 590Q171 565 153 509T116
452Q111 452 106 456T101 468T114 494Q152 547 152 586Q152 657 130 657Q111 657 102 624Q107 610 118 590H122Z" />
<glyph unicode="&#x201a;" glyph-name="quotesinglbase" horiz-adv-x="268" d="M122 29L120 44Q120 53 130 53L138 47Q144 35 144 29T135 11T118 -1Q116 0 107 3T93 8T86 13T81 18Q77 23 77 42T92 88T131 115Q171 115 171 29Q171 3 153 -53T116 -109Q111 -109
106 -105T101 -94T126 -49T152 25Q152 96 130 96Q111 96 102 63Q107 49 118 29H122Z" />
<glyph unicode="&#x201c;" glyph-name="quotedblleft" horiz-adv-x="283" d="M236 553L239 564Q246 579 260 579T286 568T298 533T282 484T237 458T191 487T175 550T197 626T251 669Q260 669 260 659T249 644Q232 639 218 605T204 551T212 510T237 488T266 504T278
539T261 559L256 556L248 548Q259 526 259 524Q259 513 246 513Q240 513 235 525T230 544T236 553ZM111 517L114 538Q114 542 103 542T86 537T77 532Q68 532 68 542T82 561T110 569T138 552T153 512T132 470T83 450T43 473T30 532T50 611T106 675Q108 676 110 676Q122
676 122 668L118 660H116Q55 621 55 525Q55 486 82 486Q92 486 96 491T102 499T105 505T108 511T111 517Z" />
<glyph unicode="&#x201d;" glyph-name="quotedblright" horiz-adv-x="268" d="M262 595Q262 579 235 526T197 472T186 479Q186 480 198 503Q233 570 233 589T223 630T200 651Q192 651 183 643T174 626L193 600H198Q195 615 195 619T197 623T208 619H209Q222 610
222 600Q222 569 193 569Q174 569 158 588T142 623T164 660T200 680Q237 680 249 658T262 595ZM75 590L73 605Q73 614 83 614L91 608Q97 596 97 590T88 572T71 560Q69 561 62 563T53 566Q41 572 40 574T36 580Q31 586 31 604T46 649T84 676Q124 676 124 590Q124
565 106 509T69 452Q64 452 59 456T54 468T67 494Q105 545 105 586Q105 657 83 657Q64 657 55 624Q60 610 71 590H75Z" />
<glyph unicode="&#x201e;" glyph-name="quotedblbase" horiz-adv-x="367" d="M270 29L268 44Q268 53 278 53L286 47Q292 35 292 29T282 11T265 -1Q263 0 256 2T247 5Q235 11 234 13T230 18Q225 25 225 43T240 88T279 115Q319 115 319 29Q319 3 301 -53T264 -109Q258
-109 254 -105T249 -94T274 -49T300 25Q300 96 278 96Q259 96 250 63Q252 58 265 29H270ZM122 29L120 44Q120 53 130 53L138 47Q144 35 144 29T135 11T118 -1Q116 0 107 3T93 8T86 13T81 18Q77 23 77 42T92 88T131 115Q171 115 171 29Q171 3 153 -53T116 -109Q111
-109 106 -105T101 -94T126 -49T152 25Q152 96 130 96Q111 96 102 63Q107 49 118 29H122Z" />
<glyph unicode="&#x2022;" glyph-name="bullet" horiz-adv-x="1120" d="M444 633T502 576T560 437T503 298T364 240T225 297T167 436T224 575T363 633Z" />
<glyph unicode="&#x2039;" glyph-name="guilsinglleft" horiz-adv-x="346" d="M271 116Q276 110 273 107T267 103T260 104Q248 115 179 169T80 259Q77 263 77 272T80 286Q89 293 109 302T141 319T166 343T188 367L213 385Q209 388 216 396T230 408T243 416T252
422Q258 425 272 427Q280 426 280 422Q280 409 252 396Q239 391 225 376L189 343Q171 320 146 304Q102 279 96 277Q135 235 195 183T271 116Z" />
<glyph unicode="&#x203a;" glyph-name="guilsinglright" horiz-adv-x="338" d="M277 113Q280 109 280 105T272 100Q257 102 247 108T231 118T217 129T213 141L188 159Q180 166 166 183T141 208T110 225T83 239T77 253T80 268Q110 304 180 359T260 422Q264 424
267 424T273 421T271 410Q260 400 218 364Q136 294 96 250Q154 224 189 184L225 150Q239 135 251 130T277 113Z" />
</font>
</defs>
</svg>
