<?xml version="1.0" standalone="no"?>
<!DOCTYPE svg PUBLIC "-//W3C//DTD SVG 1.1//EN" "http://www.w3.org/Graphics/SVG/1.1/DTD/svg11.dtd">
<svg xmlns="http://www.w3.org/2000/svg">
<defs >
<font id="Caveat" horiz-adv-x="433" ><font-face
    font-family="Caveat"
    units-per-em="1000"
    panose-1="0 0 0 0 0 0 0 0 0 0"
    ascent="960"
    descent="-300"
    alphabetic="0" />
<glyph unicode=" " horiz-adv-x="242" />
<glyph unicode="!" horiz-adv-x="210" d="M102 92Q121 105 131 105T160 98Q194 77 190 52T146 6Q107 -9 80 12Q40 51 102 92ZM229 464L242 499Q260 529 294 612T329 706T335 723T347 728Q352 732 371 732Q387 727 396 717T406 687T404 659T399 646T392 630T384
614Q379 604 363 577Q334 521 334 520T321 488Q313 475 305 452T296 424Q291 411 288 408Q283 408 283 400V397Q283 383 264 344Q230 247 227 210T199 161Q168 155 155 184T157 285Q171 313 171 327Q183 370 205 411Q209 411 213 418T218 440T229 464Z" />
<glyph unicode="&quot;" horiz-adv-x="237" d="M366 662T370 670T378 678T390 672T404 666T416 659T428 650Q438 641 436 622T411 530Q401 493 355 441Q355 437 346 435T331 431Q305 426 290 439Q285 456 302 480Q340 542 345 558T354 586Q361 614 361 627T363
651ZM235 662T239 670T247 678T259 672T273 666T285 659T296 650Q307 641 305 622T280 530Q270 493 224 441Q224 437 215 435T200 431Q173 426 158 439Q154 456 171 480Q209 542 214 558T223 586Q230 614 230 627T232 651Z" />
<glyph unicode="#" horiz-adv-x="559" d="M283 272Q278 272 278 264V261Q278 257 273 240L433 243L444 272Q454 272 454 294T465 325L475 363L481 377Q381 375 324 375Q288 298 288 288T283 272ZM217 325L227 363L232 374H201Q181 374 166 379Q140 379 130 397Q112
421 163 430Q222 437 259 438Q373 720 373 743Q373 751 383 759T403 768Q408 773 419 773L435 757Q461 733 461 711Q461 693 455 680T446 659T434 634T389 530T350 441Q395 443 510 445Q621 720 621 743Q621 751 631 759T651 768Q656 773 667 773L683 757Q709 733
709 711Q709 693 703 680T694 659T682 634Q669 606 599 446H636Q660 446 669 443T692 426T698 396T667 384L592 378H573Q536 295 536 286T531 272Q526 272 526 264V261Q526 256 522 245H574Q598 245 607 242T630 225T636 195T606 183L550 178H542L500 177Q427 -73
427 -104T402 -148Q373 -156 356 -120T350 -28Q361 1 361 14Q365 36 411 175L251 174Q179 -72 179 -104T154 -148Q125 -156 108 -120T102 -28Q113 1 113 14Q118 39 162 173H140Q120 173 105 178Q79 178 68 197Q51 220 97 228Q131 234 183 236Q192 266 196 272Q206
272 206 294T217 325Z" />
<glyph unicode="$" horiz-adv-x="450" d="M306 427Q307 426 309 419Q314 402 323 393L338 376Q370 438 409 520Q376 514 354 489Q306 459 306 427ZM356 179Q363 189 363 194T364 210T364 226Q363 243 338 270L336 268Q332 268 332 264Q329 245 308 214L265 110Q344
126 356 168V179ZM571 528T563 514T545 499T510 510T469 523Q423 440 395 384Q379 355 371 341Q392 320 394 318T398 314Q402 311 402 310V307Q404 307 417 289T432 264Q455 233 455 176Q455 164 436 142Q367 57 236 38Q197 -60 194 -83Q193 -110 189 -117T170
-124Q146 -124 146 -94T161 -11Q176 10 178 33H164Q127 33 120 40Q99 40 72 68T45 119T58 152T90 163T122 156Q111 132 111 125Q111 102 172 102Q196 102 207 103Q273 258 286 278Q290 278 295 285T301 299V305L299 307Q274 346 258 355Q255 358 250 368Q247 374
242 379Q227 397 227 421Q227 476 272 513Q283 526 312 546T345 567T350 567T364 573Q396 587 422 587L443 592Q501 715 503 730Q508 743 518 743H523Q525 745 533 745L546 738Q571 701 548 661Q544 654 532 634T507 591Q533 583 551 569T570 541Z" />
<glyph unicode="%" horiz-adv-x="600" d="M652 588Q659 592 668 588Q683 571 692 556Q704 539 687 514Q676 497 666 489Q653 478 616 445Q502 331 500 322Q490 314 479 300Q409 238 407 230Q400 221 395 219L388 213Q388 204 355 173Q192 -24 183 -45T162 -78T140
-91Q107 -88 102 -60T132 22Q152 44 155 52Q173 77 315 237Q319 236 324 240T334 258T352 273Q353 276 358 281T363 289T368 295T373 302Q398 323 512 446T632 580Q636 593 652 588ZM524 138Q524 156 520 159Q498 169 477 148Q449 126 412 48Q397 12 417 1T479
36Q524 86 524 138ZM429 205Q465 236 505 244Q523 250 531 249T550 235Q570 227 587 207T606 165Q612 100 569 38T484 -49Q437 -79 396 -81Q380 -81 364 -65T338 -30T331 4L332 22Q328 27 333 32Q338 32 335 45T369 123T429 205ZM269 374Q292 363 336 411T378 510Q378
528 374 531Q353 541 332 520Q303 498 266 420Q251 384 269 374ZM187 404Q192 404 189 417T223 496T283 578Q318 608 359 616Q377 622 385 621T404 607Q424 599 441 579T460 538Q466 473 418 403Q340 296 250 292Q234 292 218 308Q179 346 185 376L186 394Q183
399 185 401T187 404Z" />
<glyph unicode="&amp;" horiz-adv-x="564" d="M302 223Q284 239 278 253Q273 253 254 232T225 196Q196 175 172 134Q152 102 161 92Q163 89 172 85T186 77Q208 70 224 69T260 76Q297 90 366 141Q337 175 324 193T302 223ZM435 546Q431 553 413 560T378 568T344
554T301 502T268 437T280 377Q291 388 337 423T413 489T435 546ZM329 655L337 657Q341 660 368 658T415 649Q454 644 467 640T492 623Q513 607 531 581T550 540Q550 510 475 443L435 402Q435 397 430 391T417 381Q334 309 333 303T374 238T427 179Q450 201 497
242T568 306Q591 331 606 339T626 345T642 334Q654 332 655 317T654 287T648 271Q627 244 561 185T484 114Q532 57 561 35T616 4T654 -18T667 -54Q669 -79 616 -74T533 -50Q507 -43 417 65Q334 19 310 9T258 -9Q192 -15 137 4Q125 8 99 25T65 50Q58 54 56 83T57
125T111 205T211 321Q173 372 173 425T216 553Q241 594 298 645Q319 663 321 660Q324 655 329 655Z" />
<glyph unicode="&apos;" horiz-adv-x="117" d="M232 662T237 670T245 678T257 672T271 666T283 659T294 650Q305 641 303 625T277 530Q267 492 222 441Q222 437 213 435T198 431Q171 426 156 439Q151 456 168 480Q206 542 211 558T220 586Q227 614 227 627T229 651Z" />
<glyph unicode="(" horiz-adv-x="330" d="M232 199Q228 199 224 165T216 110Q214 44 224 10T262 -54Q285 -74 310 -75L344 -96Q338 -118 321 -129T284 -138Q238 -132 204 -98T156 -17Q137 25 137 92T154 215T172 296Q176 309 209 385T255 493Q276 539 330 617T406
713T433 732Q437 742 448 749T470 757Q493 771 519 764T553 729Q556 715 553 711T531 698Q496 685 484 671Q462 643 447 634Q429 627 429 618Q418 592 393 560Q385 547 366 514T333 458T310 423Q310 408 295 384Q289 362 274 331T246 257T232 199Z" />
<glyph unicode=")" horiz-adv-x="330" d="M235 187Q240 192 240 211Q256 219 254 246Q254 247 258 258Q271 287 273 311Q289 362 294 401T302 491T306 563T307 592V612Q307 636 297 651Q287 683 281 683T274 697T277 721Q276 725 291 730T319 735T343 719Q347
723 356 704T375 659T387 616T384 527Q383 427 356 298Q343 246 311 163T263 55Q267 55 233 6T190 -59Q166 -92 129 -116T73 -136T35 -114T16 -82Q16 -64 21 -54Q29 -62 50 -56Q69 -57 79 -53T99 -37T127 -3T150 31Q170 46 186 71Q186 93 204 122Q210 135 218 151Q235
182 235 187Z" />
<glyph unicode="*" horiz-adv-x="363" d="M420 459Q420 463 426 463T443 450T450 434V428Q453 427 445 418T427 401T414 392Q404 386 391 397T371 421T362 440Q354 463 348 479L346 516Q342 520 252 430Q212 393 200 395Q196 395 189 400T180 406T179 426T183
452Q193 465 237 510T289 562Q297 570 297 573T289 583Q282 593 283 596T279 600Q273 609 273 617L265 642Q260 647 264 662T274 682Q277 682 283 677Q290 677 318 638Q325 624 328 623T334 621T339 622Q353 643 356 667Q366 681 375 695L397 729Q400 739 405 740Q411
748 421 753T433 756Q445 747 449 736L467 721Q430 672 418 644T407 616Q422 623 436 626Q449 632 461 636Q471 636 485 645Q500 650 509 645Q516 638 522 623T529 601Q522 596 517 592T504 584Q485 572 445 560T402 541Q390 541 402 524Q404 518 405 497Q408 486
410 475T416 453Q420 453 420 459Z" />
<glyph unicode="+" horiz-adv-x="446" d="M319 373L326 246Q357 247 407 247T476 229T487 195T456 182Q347 175 327 175Q329 101 329 84T324 52Q324 27 304 16Q279 -3 270 49Q262 102 258 173Q221 172 186 172T135 177Q110 177 99 197Q80 222 132 231L150 233Q184
240 255 243Q254 274 254 325T271 394T306 404T319 373Z" />
<glyph unicode="," horiz-adv-x="198" d="M106 -72T102 -72T90 -79T58 -86T25 -69Q25 -60 44 -41T93 33Q98 48 109 92Q109 112 114 117Q161 161 174 78Q180 42 157 -6Q153 -16 130 -44Z" />
<glyph unicode="-" horiz-adv-x="326" d="M338 247T356 229T367 195T336 182Q196 172 173 172T135 177Q110 177 99 197Q80 222 132 231L150 233Q213 247 275 247Z" />
<glyph unicode="." horiz-adv-x="198" d="M118 139Q137 151 147 151T176 144Q210 123 206 98T162 52Q123 38 96 58Q56 96 118 139Z" />
<glyph unicode="/" horiz-adv-x="330" d="M236 364L251 400Q272 427 355 575T440 738T460 749Q467 754 476 752Q494 734 504 722Q516 708 506 672Q502 658 468 610T402 507T371 448Q365 442 354 417Q343 403 319 366T292 321T285 311Q282 311 278 301Q280 293
254 251Q113 -34 109 -57Q99 -107 79 -115Q46 -117 36 -85T50 14Q67 46 68 54Q75 71 136 188T205 316Q214 314 219 335Q225 359 236 364Z" />
<glyph unicode="0" horiz-adv-x="450" d="M441 436Q433 447 414 447T377 435Q370 431 362 434T353 442Q353 454 343 444T304 398Q288 382 275 363T261 341T252 315Q245 304 233 277T218 237V171Q218 150 224 141Q231 129 254 100Q264 92 267 92T277 95T291 99Q315
99 329 113Q369 140 391 191Q405 211 429 279Q443 300 443 338T448 395Q448 419 447 424T441 436ZM373 539Q387 543 424 543T499 526T537 493V486Q537 474 533 476Q531 476 527 476H517L527 446Q537 424 537 402T527 329T512 265T506 239Q503 233 493 210T480 183Q470
174 475 169Q475 164 465 146T451 127T446 123Q446 112 401 67Q385 50 347 27T294 3T247 14T199 37Q115 109 135 244Q146 308 181 371T268 480T373 539Z" />
<glyph unicode="1" horiz-adv-x="450" d="M388 517Q422 538 452 553T488 567T514 552T536 529Q542 522 532 500T498 409T464 305T442 237T423 177Q403 130 386 50Q378 26 372 5T362 -19T336 -17T305 -4T295 13T300 71L326 167Q334 171 355 245T389 356Q407 410
421 437Q371 410 322 372T265 330T238 310T214 296T205 299Q191 311 180 332T175 363Q178 364 215 391T257 421T266 426T276 434T288 443Q291 447 305 457T344 485T388 517Z" />
<glyph unicode="2" horiz-adv-x="450" d="M375 536L404 531Q417 532 444 512T480 472Q514 419 463 343Q452 330 402 275T341 211Q333 207 307 182T260 132T239 106Q240 104 254 109T285 120T349 133T404 135L409 133Q413 139 434 137T478 128T501 111Q504 104
512 95Q530 80 512 66T457 59Q431 59 422 58T372 53Q343 57 307 44T221 18T164 7T139 28T119 54T118 74T126 88Q130 84 139 104T149 127T163 139Q163 140 178 158T206 187Q310 287 314 306Q319 312 330 319T354 339Q357 354 381 378Q398 403 403 419T404 439T376
449Q352 458 331 452T275 422Q268 420 258 416Q236 409 232 410T225 414T218 423T210 432L200 475L231 492Q324 552 375 536Z" />
<glyph unicode="3" horiz-adv-x="450" d="M363 473H359Q352 476 321 469T288 459T263 448T234 441Q227 443 217 467T209 498T236 520T280 544Q301 549 349 554T416 559Q511 548 526 477Q535 432 483 385Q471 377 457 368Q409 335 390 327T358 315T345 308Q423
299 480 222Q500 177 470 121T385 32Q342 8 244 1Q207 1 175 20T145 58Q147 95 188 89Q239 78 291 89T371 127T399 173T376 207T321 234T273 243T222 258Q216 264 211 281T204 301Q202 308 224 323T333 385T434 445Q447 458 445 465T418 478Q363 483 363 473Z"
/>
<glyph unicode="4" horiz-adv-x="450" d="M160 303Q195 373 195 380Q203 398 253 467T319 551Q349 566 361 566T384 547T396 519Q390 505 358 468Q251 318 251 288Q251 278 268 278Q333 289 365 302Q371 305 378 315T388 330T396 352T416 399T452 468Q492 536
501 536Q506 536 530 516T554 491Q554 473 536 443T496 369T440 243Q377 85 377 56Q377 48 382 38Q382 19 365 4T331 -12Q318 -12 307 7T296 37T301 77T316 141T333 194T340 216Q339 216 319 212Q259 198 240 198Q209 198 188 229Q181 235 170 257T159 288T160
299V303Z" />
<glyph unicode="5" horiz-adv-x="434" d="M303 529T344 546T431 562T498 531Q513 498 494 480Q485 471 474 477Q448 493 385 474Q380 472 372 469T361 465T352 461T343 456Q337 452 333 444Q330 442 328 440Q326 436 322 436Q316 430 316 425Q316 425 308 415Q306
415 304 418Q304 413 303 407T307 399T343 392T407 368Q445 346 458 292T464 190T439 113Q393 49 305 18T171 16Q153 29 153 38Q149 44 144 44Q138 41 136 66T134 95Q139 106 161 109T185 102Q188 83 236 85Q315 86 366 153Q383 193 385 220T384 249Q382 260 378
272T355 301T320 324Q303 327 274 323Q237 318 233 322Q225 324 206 341T186 366Q189 381 220 428T277 502Z" />
<glyph unicode="6" horiz-adv-x="471" d="M438 276Q437 276 434 277T425 279T410 282Q392 287 309 267Q305 266 295 262T279 257Q273 249 259 246T239 227T222 169Q213 119 218 111Q221 98 236 94T261 90T291 99Q311 105 314 104Q334 117 355 131Q400 158 424
193T443 253Q444 258 438 276ZM276 442Q290 451 301 465T365 510T462 547Q477 549 475 542Q493 521 504 519Q505 519 516 502Q519 487 484 454Q462 438 455 446Q455 451 445 453T405 442T355 405Q333 385 330 377L297 339Q300 334 311 336T324 343Q324 347 346
353T392 362Q403 366 434 360T473 349T492 331Q528 297 526 242Q526 210 509 189Q465 114 441 99L430 92Q428 81 378 52Q244 -25 184 32Q144 62 138 101Q131 126 131 134T141 185T156 246T179 289Q198 342 213 359Q235 392 249 406L276 442Z" />
<glyph unicode="7" horiz-adv-x="446" d="M211 313L278 309Q296 309 306 308T321 309T342 333Q346 340 362 363T389 405Q443 480 422 486Q404 492 336 466T249 450Q241 451 237 472T236 507Q240 525 367 557Q401 563 447 562T499 549Q507 548 508 544Q516 529
523 517T531 499T531 476Q524 452 510 440Q497 422 484 409Q483 406 479 400T475 392L423 313Q404 296 408 291T422 282Q457 266 465 242Q466 219 457 215Q452 208 441 205T426 206Q422 214 404 221T379 229Q366 221 338 170T307 113T300 100T291 85T284 55T286
32Q298 35 303 19Q308 12 296 0T266 -20T237 -26T209 -9T187 20Q180 53 257 198Q282 239 279 242T259 246Q218 256 216 259Q193 271 197 282Q199 286 206 287T217 299T211 313ZM211 313Q210 314 209 314Q210 314 211 313Z" />
<glyph unicode="8" horiz-adv-x="450" d="M345 170Q325 211 318 221T300 238Q292 228 286 214Q272 197 267 187L245 165Q245 157 225 119Q194 67 196 42Q197 30 205 29Q219 28 247 40T300 70Q364 121 345 170ZM284 442Q273 408 286 382Q297 378 301 365Q301 356
309 356Q311 344 328 344T360 355Q399 390 411 369Q415 363 434 377Q472 402 468 412Q463 421 463 433T459 452T409 475Q309 510 284 442ZM311 575Q413 561 442 549T503 513T537 481Q537 479 540 474Q553 456 551 421T540 372Q515 344 509 342T498 334Q486 323
479 322Q466 305 461 305Q449 313 449 305Q448 301 422 290T391 280T378 277Q365 279 393 245Q451 139 424 102Q405 59 383 31T348 5Q340 0 334 -4Q330 -17 314 -15Q305 -11 285 -24T229 -45T182 -47Q163 -44 121 -6Q107 24 111 50Q111 85 123 104Q135 138 173
195T231 276T250 311T229 347Q226 355 222 362T219 369Q215 373 211 383Q196 398 196 426T211 483Q227 520 254 545T311 575Z" />
<glyph unicode="9" horiz-adv-x="438" d="M423 453T425 457T439 473T450 491T444 504T431 512T399 504Q384 501 369 490T345 473Q339 467 332 468T325 464Q330 455 313 441Q265 390 283 369Q305 345 340 362T407 429Q414 437 418 445ZM265 11L267 45Q271 100 317
233Q332 269 330 277T304 283Q259 275 225 310T193 392Q194 416 221 458T299 540Q388 610 460 582Q482 573 509 535T533 480Q522 428 495 399Q472 379 437 310T385 192T363 117T358 76T363 59L391 53Q404 32 352 -14Q320 -43 313 -42T289 -30T272 -14Q273 -10 273
-10T268 -9L265 11Z" />
<glyph unicode=":" horiz-adv-x="198" d="M190 349Q209 361 219 361T248 354Q281 333 277 308T233 262Q195 248 167 268Q128 306 190 349ZM120 139Q139 151 149 151T178 144Q211 123 207 98T163 52Q125 38 97 58Q58 96 120 139Z" />
<glyph unicode=";" horiz-adv-x="198" d="M190 349Q209 361 219 361T248 354Q281 333 277 308T233 262Q195 248 167 268Q128 306 190 349ZM108 -72T103 -72T91 -79T60 -86T27 -69Q27 -60 43 -44T95 33Q100 48 111 92Q111 112 116 117Q163 161 176 78Q182 42 159
-6Q155 -16 132 -44Z" />
<glyph unicode="&lt;" horiz-adv-x="446" d="M454 376Q451 360 441 351T408 330Q328 289 295 269T248 242T230 232T219 225T213 217T214 205Q251 162 383 121Q435 105 451 90T465 53Q457 39 419 35T348 43Q292 54 273 66T246 83T223 97T204 108T189 118T174 130Q159
143 149 158L116 198L105 251Q118 253 161 281T246 333Q349 386 365 402T396 419Q407 422 432 397Q435 395 439 393T445 389T449 386Q451 384 454 376Z" />
<glyph unicode="=" horiz-adv-x="446" d="M339 202Q384 202 409 179Q427 164 422 147T393 134Q219 124 193 124T145 129Q116 129 108 143Q100 154 100 164T117 181T166 188Q239 202 339 202ZM394 345Q439 345 463 323Q481 308 476 291T447 277Q279 267 250 267T199
272Q170 272 162 286Q141 308 166 322Q184 332 221 331Q294 345 394 345Z" />
<glyph unicode="&gt;" horiz-adv-x="446" d="M140 63Q143 79 153 88T186 108Q266 150 299 170T346 197T364 207T375 214T381 222T380 234Q343 277 211 318Q159 334 143 349T129 386Q137 400 175 404T246 396Q302 385 321 373T348 356T371 342T390 331T405 321T420
310Q435 296 445 281L478 241L489 188Q476 186 433 158T348 106Q245 53 229 37T198 20Q187 17 162 42Q159 44 155 46T149 50T145 54Q143 55 140 63Z" />
<glyph unicode="?" horiz-adv-x="374" d="M180 92Q200 105 209 105T239 98Q272 77 268 52T224 6Q185 -9 158 12Q119 50 180 92ZM310 542L315 507Q314 507 307 505T294 501T280 500Q261 498 248 511Q228 535 227 541T225 550T224 560T225 573Q257 670 319 702L377
732Q386 732 410 735Q414 734 419 734Q431 736 431 731H460Q478 726 505 709T543 679Q558 634 539 555T481 433Q480 432 445 400T397 354Q365 336 339 300T298 223Q279 183 247 183Q232 184 225 195T217 220Q212 247 216 257T225 279T234 300Q245 319 267 344T307
382L324 394Q324 398 338 409T362 425Q385 441 395 450Q426 482 436 508T459 599Q460 632 457 641T440 660Q356 675 314 581Q306 557 310 542Z" />
<glyph unicode="@" horiz-adv-x="643" d="M451 247Q418 254 404 247Q380 237 356 190T334 115Q348 87 376 99Q389 107 405 122T425 147Q443 181 460 231Q460 241 451 247ZM384 -96L385 -114Q385 -124 378 -127Q347 -140 307 -140Q234 -140 162 -83Q121 -46 95
0Q64 43 80 134Q88 175 99 196L103 212Q103 226 126 259Q169 316 188 340Q237 402 305 452Q333 474 381 494T450 517T507 518Q580 511 623 471Q693 415 711 337Q717 316 715 271T703 207Q682 161 633 103T561 39Q545 39 521 46T492 58T466 75Q455 63 438 48T388
19T342 9Q311 17 300 24T268 58Q251 102 251 115T261 161Q271 204 308 257T407 336Q419 342 442 342Q479 342 504 315T536 273Q540 251 538 238Q525 168 521 160T516 151T517 144T527 132T544 127T582 160T618 205T629 229Q631 245 631 263Q631 380 537 418Q517
426 475 426T395 410Q371 402 332 368Q188 244 167 96Q162 56 176 27T240 -33Q284 -51 364 -46Q372 -48 374 -51T377 -66T384 -96Z" />
<glyph unicode="A" horiz-adv-x="511" d="M454 323H456Q459 332 472 424T486 548L483 598Q474 598 442 551T380 443Q357 402 348 402Q341 395 318 355T300 311Q340 319 365 320Q429 337 445 330Q450 323 454 323ZM415 663Q437 693 463 693T522 669Q564 639 568
610Q569 604 569 593T569 571T567 543T564 514T561 480T558 443T546 322Q524 106 529 15Q530 8 529 -3T528 -15Q519 -25 482 -19T442 1Q437 5 437 10L446 243L433 242Q413 242 349 234T267 221Q246 221 222 178Q216 163 207 147T197 128L181 109Q181 98 162 53T123
-22L96 -60L61 -33Q45 -25 42 -16T47 14T74 70T102 124Q145 206 145 245Q141 260 160 269Q161 270 172 278Q200 299 211 318Q232 367 313 504Q361 592 415 663Z" />
<glyph unicode="B" horiz-adv-x="521" d="M479 588T451 593T396 591T370 566T354 532Q352 524 342 512Q342 510 336 500Q314 459 303 429Q273 358 273 343Q335 355 356 363Q382 378 390 386Q453 445 478 492Q500 527 502 544T492 573Q479 588 451 593ZM382 673Q383
673 392 674Q416 676 436 675Q507 669 548 635T588 533Q586 507 559 462T493 382T437 339Q438 338 474 325Q552 296 572 215Q582 171 550 98L535 76Q534 72 517 46T487 3Q421 -53 378 -69Q337 -87 282 -88T201 -72Q158 -45 150 -17T170 29Q176 33 194 30T220 18Q258
-17 328 1Q367 13 389 31T443 87Q472 126 479 165T470 220Q417 294 311 266Q291 263 272 259T245 253T237 249T228 231Q218 212 182 109T124 3Q113 2 97 25Q96 27 89 37T79 55T76 68Q74 79 81 91T96 134Q109 173 171 328T264 551T284 622Q284 625 281 631T279 640Q279
646 314 658T363 668Q382 668 382 673Z" />
<glyph unicode="C" horiz-adv-x="491" d="M268 26T273 26T287 29T302 34T320 40T337 47T356 56Q426 85 450 107Q476 126 492 126Q505 130 512 118T520 89T501 52T456 17Q445 6 407 -9Q370 -36 320 -55T235 -66Q156 -37 136 15T118 141Q118 230 149 310Q150 312
163 343T181 385Q198 424 241 486Q297 571 327 602T426 681Q449 698 482 702T550 690T599 636Q621 596 597 518T531 400Q501 381 461 417Q449 439 451 440T455 441Q464 452 481 483T503 529T509 554T513 571T515 583T516 593T516 600Q516 605 509 612T474 604Q425
583 357 491Q270 377 249 313L238 287Q241 271 226 241Q209 171 214 112Q219 39 250 27Q255 25 261 25Z" />
<glyph unicode="D" horiz-adv-x="587" d="M181 -6Q180 -10 180 -15Q198 -23 211 -21T247 -18Q300 -16 316 -3Q371 33 421 76Q423 81 442 88Q447 93 472 119T502 149Q503 154 505 162T508 175Q520 188 544 237T577 323Q613 480 512 567Q491 585 444 606T391 626T368
580T320 448T275 321Q271 305 263 282Q245 229 245 224Q216 179 202 72Q200 63 198 53T194 36T191 22T188 10T185 1Q183 -6 181 -6ZM202 688T260 701T369 711T496 679Q548 659 603 603T673 485Q679 463 681 429T677 382T679 365Q677 361 671 339T661 309Q658 273
638 221T599 137Q593 136 592 133Q592 128 581 114Q578 112 569 100T555 84Q554 77 549 73T540 68Q540 65 537 64Q519 38 466 -7T375 -68Q370 -72 333 -89Q327 -95 275 -99T212 -106Q174 -112 108 -94Q93 -91 86 -83T78 -74T72 -66T64 -56Q47 -34 51 -4T82 30Q89
31 101 26Q101 54 107 76T148 202T203 377T240 478Q242 483 247 501Q259 545 276 588L283 621L272 626Q254 620 245 626Q236 623 221 636T203 659L200 676Q202 688 260 701Z" />
<glyph unicode="E" horiz-adv-x="557" d="M268 52L308 49Q332 49 350 57Q428 70 460 93Q465 95 469 100T478 105Q477 103 477 103T496 118T537 140T573 142T588 133Q597 117 566 78Q474 -36 262 -39Q233 -36 210 -22T181 -4T161 10T143 22Q113 52 102 110Q96 136
107 189T132 272Q154 325 229 442L235 450Q235 457 264 512Q289 539 278 554Q271 563 316 601Q336 618 358 630Q381 648 404 650T431 641Q440 638 464 643T497 650Q504 659 564 666L634 668Q641 670 654 659T675 631T664 600T594 580T503 566T447 554T427 550T412
546T397 538Q381 523 370 506Q361 500 330 438Q323 428 299 396T279 357Q306 351 311 351Q319 355 359 362Q495 397 515 400Q528 410 542 399T565 365T556 330T471 304T366 278T308 263T270 257T245 260T238 274Q227 279 213 249Q188 196 188 141Q188 126 191 118Q208
69 268 52Z" />
<glyph unicode="F" horiz-adv-x="475" d="M606 653Q647 646 650 642Q656 636 654 630L661 625Q677 616 665 581Q664 572 656 571T610 570Q543 579 439 565Q388 561 378 549Q361 529 328 446T292 359Q324 350 469 363Q508 371 522 369Q540 367 543 339T528 300T459
283T353 277T272 279Q263 272 263 261Q245 228 213 144T180 42Q172 22 169 3T162 -19Q159 -33 143 -34T120 -25Q74 -4 89 43Q97 79 118 146T152 237T171 284T179 310Q177 321 178 324T187 337Q201 349 217 384L267 527Q276 559 272 559Q271 559 243 556T213 552Q187
548 187 566Q190 584 199 600T223 617L262 626Q290 632 316 625Q328 633 329 639Q337 669 365 675T402 660Q405 652 404 644T408 635Q419 635 468 646Q540 652 557 647Q566 649 578 650Q602 651 606 653Z" />
<glyph unicode="G" horiz-adv-x="507" d="M623 584Q623 568 605 552T573 535T553 541Q516 595 470 595T382 556T310 458T257 328Q214 197 207 88Q207 56 216 41T255 26T337 55T423 138Q466 219 466 247Q466 263 451 263Q401 263 379 267T350 286Q337 290 337 310Q337
351 427 351Q490 349 522 329T554 248Q554 230 551 215Q536 149 497 94T410 4Q309 -66 229 -66Q185 -66 151 -26T117 81Q117 213 158 332Q243 584 358 657Q401 684 463 684Q479 684 500 681Q542 670 582 643T623 584Z" />
<glyph unicode="H" horiz-adv-x="573" d="M580 155L554 66Q531 -40 531 -66Q503 -69 488 -58T468 -45Q431 -24 453 22Q455 26 481 124Q487 141 498 176Q523 261 526 264V274Q526 279 461 279T340 271H254Q249 260 225 184T187 39T153 -91Q115 -78 104 -78Q89 -74
82 -61T78 -31Q86 -23 86 7Q91 17 97 49T133 186T169 297V308Q169 323 180 339Q190 369 190 380Q190 380 248 521V526Q250 528 273 579T313 668T330 708Q344 724 360 718Q385 708 402 677L412 661L375 589Q336 520 336 511Q320 468 312 441T295 396T283 368T278
356Q278 359 328 360Q489 361 508 364L560 369Q613 539 629 587T664 656T696 677Q700 677 716 666T736 646Q759 625 731 584Q715 556 703 519T686 474Q686 453 679 446T662 415T652 378T642 355Q597 199 580 155Z" />
<glyph unicode="I" horiz-adv-x="409" d="M239 -27T239 -37T230 -53T207 -56T181 -41Q168 -23 105 -26Q84 -29 63 -19T45 4Q46 17 74 30T143 45L185 46Q198 71 202 91T210 123T228 180Q261 282 265 302Q280 334 298 409Q344 549 336 552Q326 553 283 549T235 541Q230
534 218 543T203 563Q199 585 209 591Q219 600 260 611T340 626T399 648Q420 655 434 654Q446 646 503 650Q595 659 611 624Q616 605 609 593T585 581Q567 576 518 575Q452 569 447 561Q444 558 440 552T434 544Q435 535 424 501T400 428Q368 330 361 316Q360 312
285 47Q310 49 366 54T427 57T435 43Q455 16 432 -2T354 -19Q275 -22 257 -24Z" />
<glyph unicode="J" horiz-adv-x="315" d="M344 301L282 115Q282 95 269 82Q213 -57 205 -70Q191 -93 191 -97T186 -102Q180 -106 180 -112Q175 -124 142 -159T92 -204Q55 -222 15 -213T-50 -176Q-57 -166 -56 -147T-50 -111T-37 -94Q-26 -94 -12 -113Q42 -161
102 -68Q107 -56 128 -9Q183 111 187 125T196 145Q196 146 201 161T209 189L251 308Q261 354 270 376T306 477Q347 608 344 612L288 602Q242 584 239 599Q238 601 239 604V615Q236 613 230 619Q218 633 218 649Q218 657 242 667T288 681T343 687T386 692Q391 696
418 685T453 665Q463 645 459 626T435 555T410 484T388 422Q354 326 344 301Z" />
<glyph unicode="K" horiz-adv-x="503" d="M79 43Q86 43 86 53T89 74T96 100Q104 125 112 145Q127 181 127 189T140 217Q150 244 150 266Q170 310 173 320T184 352T200 397T214 436T232 478Q255 532 260 532V543Q260 546 263 553T273 572T284 594Q296 613 301 635Q307
646 312 651Q337 668 355 666T378 653Q398 613 384 593Q317 453 291 386L298 391Q324 417 381 460L504 560Q524 570 559 596Q637 652 643 651Q654 656 671 631T686 592Q688 582 682 575T642 550T602 522Q574 500 536 473Q451 418 431 389Q428 389 424 386T416 384Q402
375 397 369Q387 346 372 347Q357 339 320 310Q329 240 358 187Q387 123 417 93Q462 44 485 44Q494 41 510 30T528 11T527 -17T508 -47Q492 -61 457 -45Q441 -46 402 -15T342 42Q281 128 266 183Q261 205 253 229T243 261L240 253Q240 252 234 238Q218 197 195
114Q149 -32 138 -48Q126 -64 104 -48Q66 -25 74 4Q74 11 79 43Z" />
<glyph unicode="L" horiz-adv-x="426" d="M215 254V251Q213 251 212 244T208 234Q201 228 201 205Q190 178 183 137T178 76Q182 42 207 30T245 17Q268 12 337 31Q348 34 363 36T410 48T448 54Q468 37 462 19Q458 10 421 -18T359 -54Q330 -67 273 -68T194 -61Q124
-44 90 56Q88 75 90 114T95 157T99 168T105 198T110 234Q115 245 120 250Q127 258 125 267T133 291L142 306Q143 313 157 350T177 396V398Q181 408 188 419Q194 459 251 550T332 665Q373 712 399 686Q410 674 414 652T407 628Q393 619 307 463L268 382Q244 331
223 272Q215 264 215 254Z" />
<glyph unicode="M" horiz-adv-x="729" d="M698 -36Q692 -43 689 -43T683 -42T676 -46T663 -51Q638 -51 631 -33T623 9T625 52T681 289T736 518Q731 511 712 476T672 405L602 274Q591 259 578 232T509 131Q499 111 449 66T371 20T322 46T300 104T310 199Q350 375
361 408T372 450T370 461Q367 459 364 454Q313 371 248 229Q105 -34 84 -58Q69 -58 53 -39T37 7T50 60T77 107T96 136T103 159Q117 177 140 224Q170 271 214 350Q307 520 335 559Q337 563 339 569T350 592T367 622Q388 655 402 655Q424 655 449 631T474 565Q474
553 463 478Q450 416 423 292T396 153T403 139Q407 139 415 148Q417 149 431 170T463 217T497 268Q547 346 659 544Q669 559 690 592Q732 662 743 670T773 679T816 655T840 605T826 513T792 389Q788 368 762 271T736 143V135Q721 107 721 27Q715 -18 698 -36Z"
/>
<glyph unicode="N" horiz-adv-x="575" d="M463 63Q490 63 561 350Q578 407 587 482Q619 603 619 616V638Q623 638 627 651T632 684T646 718Q662 745 691 736T724 705T697 550Q697 538 685 484T668 406Q658 341 650 343Q609 167 545 21Q520 -36 484 -50T414 -24Q384
15 370 55T347 172Q326 305 328 401T320 498Q311 498 294 447T251 333T224 265Q206 229 197 192Q157 86 139 18T114 -69T99 -93T65 -85T35 -44T40 11Q47 38 66 83T93 170Q127 249 148 315Q149 320 198 427Q236 535 294 623Q312 653 349 649T396 615Q416 569 418
417Q418 374 419 355T422 306Q424 257 435 215Q437 201 442 158Q454 63 463 63Z" />
<glyph unicode="O" horiz-adv-x="505" d="M234 38Q253 28 276 31T317 47T385 119T457 212T497 321T519 407T519 488Q517 536 502 553Q469 588 426 574Q397 562 341 497T286 413Q286 405 281 398Q255 370 228 280Q194 164 198 96Q199 56 234 38ZM401 649Q448 677
466 670Q589 643 613 514Q630 432 617 365T539 193Q461 39 357 -22T187 -35Q108 23 105 61Q99 116 119 216Q125 222 124 231T126 251T135 280T145 320Q190 456 256 543Q324 613 401 649Z" />
<glyph unicode="P" horiz-adv-x="472" d="M260 302L259 282Q259 280 261 276T287 276Q349 286 420 330Q442 345 472 383Q528 476 518 517Q508 569 460 586Q416 593 392 589Q376 584 370 576T351 537Q319 476 309 449Q287 372 274 338T260 302ZM125 185L130 218Q142
218 152 259Q154 268 157 278Q163 298 164 302Q172 328 191 367Q221 478 247 535Q251 545 255 556T262 572T266 583Q268 591 264 595Q255 599 257 620T276 656Q301 685 389 678Q401 677 453 677Q459 674 474 668Q509 655 509 651Q509 643 521 642T562 614Q627 553
616 489Q612 449 604 439Q588 427 588 418T559 362Q509 282 446 242Q404 223 352 209T272 196Q270 196 251 193T226 182Q207 137 207 124Q201 113 183 57T157 -29Q153 -42 141 -49T118 -57T99 -44Q89 -35 85 -26T82 18T103 104Q108 125 114 144Q125 179 125 185Z"
/>
<glyph unicode="Q" horiz-adv-x="490" d="M260 141Q266 155 282 164T316 169Q338 169 358 121Q358 117 367 97Q412 166 459 300Q460 304 480 349Q517 436 517 499Q523 541 514 558T479 587Q428 605 375 562T281 416Q220 285 201 204T197 55Q199 23 211 8T248 0Q277
3 308 27L258 121Q250 129 260 141ZM546 283Q540 283 540 277Q547 254 515 192Q476 85 413 9Q421 -7 425 -12Q427 -19 438 -36T452 -63Q474 -99 470 -113T444 -127T401 -119T377 -98Q371 -92 370 -86T368 -79Q355 -74 347 -51Q289 -92 233 -86Q210 -82 175 -57T130
-9Q105 41 102 99T117 239Q127 277 150 344T177 412Q180 415 180 427T211 489T266 559Q317 626 362 649Q370 654 399 662T445 672Q540 678 579 599Q596 579 599 563T604 527T607 501Q608 444 587 364T546 283Z" />
<glyph unicode="R" horiz-adv-x="498" d="M472 583Q412 598 393 594T366 561Q366 559 358 543Q331 489 316 449Q257 330 257 323T259 313Q285 315 368 349Q531 425 526 508Q526 528 509 552T472 583ZM335 668Q440 692 525 647Q570 620 594 585T619 517T611 454Q595
414 530 360T409 281Q323 239 276 231Q325 140 432 48Q486 1 525 -18Q533 -27 525 -52T511 -79Q481 -90 443 -65Q349 -9 256 98Q241 115 233 131T222 152Q212 171 203 197Q173 96 114 -60Q111 -71 87 -71T47 -57Q31 -41 31 -33T59 38Q65 74 88 121Q93 138 166 317T271
564Q275 575 268 585T244 596Q233 608 233 619T243 637L335 668Z" />
<glyph unicode="S" horiz-adv-x="495" d="M583 702Q622 700 656 674Q727 619 672 525Q641 472 602 450Q574 439 554 447T535 474T572 533Q627 614 591 622Q575 625 528 614T480 598L476 593Q472 594 420 560T365 521Q363 510 342 501Q324 490 310 471T272 411Q255
388 248 362Q236 317 270 291T337 249Q388 220 429 188T479 136Q508 95 487 21Q478 2 464 -14T439 -30Q430 -32 421 -37T405 -47T349 -58T266 -65L226 -53Q228 -48 224 -44T210 -39Q189 -26 165 5T137 48T132 64T133 70T138 74T146 77T155 81Q188 103 199 80Q219
43 268 28T374 34Q420 54 385 110Q381 120 364 134T331 162Q309 172 281 186T221 226T178 276Q155 300 156 344T178 428Q190 455 236 511T304 581L336 611Q337 612 347 616Q372 626 395 647Q509 702 583 702Z" />
<glyph unicode="T" horiz-adv-x="458" d="M500 560Q476 557 461 557Q453 531 441 508Q438 497 434 484Q424 455 424 451Q418 443 390 357T360 265L312 134Q292 96 278 44T254 -27T240 -49T221 -53T195 -37T183 -2T199 69T228 150Q231 164 235 178T240 195Q251
208 256 235T329 471Q338 486 346 509Q354 514 354 530L361 545Q363 547 365 546T372 549H371L233 535Q195 532 179 544T167 575Q173 600 224 610Q244 615 318 624Q383 633 513 642Q522 642 556 638T604 628Q649 618 659 580Q664 559 648 551Q641 549 626 545T604
538Q593 536 582 540Q575 546 570 549Q558 556 500 560Z" />
<glyph unicode="U" horiz-adv-x="482" d="M355 93T384 135T414 184T427 206Q445 224 515 371Q576 566 582 595T599 657Q612 668 625 663T645 654T659 646T669 640Q678 629 673 607Q647 484 630 438T601 361T582 316T560 265T538 216V210Q526 203 516 185T502 164L493
141Q492 135 481 129T468 115T464 106Q430 55 377 8T290 -52T229 -60Q150 -40 128 39T138 275Q153 348 189 449T265 620T338 684T382 649T368 604Q356 591 334 548T304 490Q242 312 226 222Q208 139 206 124T203 81Q205 77 208 71T213 62T218 54Q221 49 229 46Q265
29 302 50Q308 61 323 68Q326 64 327 65T331 72Q330 77 340 87Q355 93 384 135Z" />
<glyph unicode="V" horiz-adv-x="490" d="M235 616Q229 672 268 690Q284 696 301 690Q324 679 321 642Q325 629 323 576T310 468T295 344T288 217Q283 139 283 109T292 79Q298 79 304 96T314 123Q347 187 364 234Q377 263 400 306T435 376T485 476Q533 550 554
590Q611 683 641 683Q663 686 674 672Q705 643 641 548T524 354Q510 320 503 309Q490 297 443 201L370 33Q366 20 357 5T347 -14Q336 -31 305 -48T264 -60Q255 -58 254 -43T247 -23T224 -13Q206 5 199 34T187 156Q195 287 206 365Q204 380 208 414T210 458Q215
473 219 508T228 559Q235 613 235 616Z" />
<glyph unicode="W" horiz-adv-x="720" d="M774 286T770 278T766 263T714 161T632 30T560 -34T503 -62Q474 -64 465 -40Q460 -35 452 -18T441 10Q435 71 438 129T449 219T463 272T476 311Q489 343 486 343T476 332T459 298Q422 215 339 75Q334 69 307 30T263 -25Q220
-67 175 -45Q159 -43 144 -23T133 15Q130 40 138 117T155 245T183 389T209 513Q216 528 226 564T237 606Q237 626 252 633T285 636T310 621Q344 585 324 537Q279 427 252 247Q223 77 231 74Q247 70 269 118Q325 210 404 361T488 521Q511 561 516 570T529 593T542
614T552 630Q561 644 567 647Q609 647 629 599Q635 578 628 561Q628 560 620 532T606 483Q587 433 581 401T560 300Q528 158 528 111T534 47Q538 32 555 56T589 116T616 170Q691 311 761 476Q790 559 806 594T838 639Q843 643 860 642Q877 642 886 634T899 622Q908
613 908 601Q899 570 859 471T806 343T783 300Z" />
<glyph unicode="X" horiz-adv-x="524" d="M368 454L372 414Q372 407 384 359Q465 440 487 467Q580 578 605 630Q615 649 618 650T627 651T634 650Q665 648 668 607T637 514Q614 491 611 475Q534 382 513 365Q451 312 433 289Q413 267 410 265Q430 190 460 129T516
52Q518 50 526 50T537 52Q551 54 554 40Q557 21 557 -2Q560 -13 538 -24Q461 -59 402 50Q361 106 332 187Q323 178 323 177Q294 149 210 58T119 -47T92 -56Q87 -58 74 -57T58 -55Q55 -49 52 -34Q42 -18 61 30Q69 49 87 65T121 97T148 122T172 145T193 164T201 173T204
179T213 189T223 201Q240 215 306 279Q300 310 293 360T279 418Q277 423 283 425Q285 427 278 450T264 540Q257 613 253 627Q254 630 277 653Q300 669 327 651T354 602T360 565Q358 561 361 521T368 471Q364 459 368 454Z" />
<glyph unicode="Y" horiz-adv-x="504" d="M210 -29T210 -25T211 -17T214 -8T217 3T220 16T224 31Q226 91 254 142Q254 173 285 247L296 281Q239 355 230 423Q215 474 221 585Q221 612 228 630Q239 662 248 680Q277 705 293 675T308 595Q314 393 348 365Q352 361
359 364T369 367T380 376T393 389T410 408T442 442T504 513Q609 636 635 648Q646 653 664 658Q670 656 673 644T679 627T686 618Q696 606 696 600T653 551Q631 532 583 482T507 397Q416 292 386 265Q386 263 381 263Q374 240 365 197Q359 177 348 141Q333 89 316
37Q298 -31 285 -56T258 -76Q252 -75 219 -52Q210 -43 210 -36Z" />
<glyph unicode="Z" horiz-adv-x="522" d="M299 37T373 41T470 46T505 28Q518 23 514 2T497 -30Q492 -30 473 -34Q423 -43 396 -41T270 -50Q198 -61 149 -59T90 -54Q60 -50 52 -30T50 15T70 53Q180 173 314 292Q397 363 478 448Q488 459 492 463T504 476T516 489T526
501T535 512T542 522Q548 532 551 542Q560 570 549 577T467 589T276 574Q270 572 260 580T250 594Q262 610 246 623Q238 640 254 656Q260 659 306 666T403 675T494 672T560 665T621 648T663 614Q672 589 669 577T664 560T657 543T650 525Q632 491 579 429T435 283T280
143T177 52Q155 25 204 25Q234 24 266 30Z" />
<glyph unicode="[" horiz-adv-x="330" d="M596 763H600Q609 763 613 756T618 748Q623 740 624 738Q638 722 636 712T613 692Q503 656 455 650Q410 638 406 633T386 592T370 552Q365 547 341 498T315 438T304 406Q278 347 263 299T243 242Q243 225 233 207T215
162L203 138Q203 130 194 98Q192 96 190 87Q180 53 166 13T152 -33L147 -61L177 -55Q285 -40 325 -40Q335 -35 345 -39T358 -44Q360 -44 376 -65Q384 -84 381 -87T333 -101T255 -117H218Q218 -126 185 -126Q177 -130 156 -136T131 -144Q87 -162 66 -144Q49 -137
45 -117T53 -79Q66 -70 66 -53T94 65T130 177Q130 195 161 242Q192 343 242 467T317 629Q325 663 325 678Q325 712 374 712Q388 714 422 716Q516 723 580 757Q592 763 596 763Z" />
<glyph unicode="\" horiz-adv-x="330" d="M228 243L224 283Q216 290 218 313T210 337Q206 351 185 457T163 574T158 639T173 723T225 739Q232 733 235 715T236 677T241 605T261 481T276 384Q289 342 284 329Q283 318 288 318Q293 311 293 304T303 255T321 196Q321
188 323 176T326 161T332 136Q345 83 354 53T370 4T378 -22T384 -39T386 -52T384 -73T369 -101L333 -121Q322 -121 319 -114Q301 -111 305 -95Q306 -82 273 64T228 243Z" />
<glyph unicode="]" horiz-adv-x="330" d="M361 745Q429 763 464 751Q467 751 473 738T480 715Q488 701 488 698T480 683T453 630T433 581T427 573Q422 572 422 565T419 544T410 529Q405 528 405 519T397 487T382 444T370 412T362 395T357 379Q347 356 343 318Q325
292 318 262L312 234Q312 228 302 193T285 144Q285 130 267 74Q255 12 251 4L242 -11Q242 -28 237 -32L234 -48L235 -52Q231 -52 231 -78Q231 -132 155 -126H120Q96 -126 87 -124Q54 -127 30 -123Q18 -124 -3 -118T-26 -112L-41 -92L-55 -82L-43 -77Q-36 -68 19
-56T85 -46L119 -48L146 -45L156 -18Q161 9 161 23Q175 34 173 50Q189 94 193 107Q194 118 205 152T219 200T232 243T244 282Q245 291 252 312T261 344Q269 370 301 465T348 609Q362 636 370 672Q340 670 258 665T175 663Q173 665 172 670T168 675Q164 674 160
681T155 697Q154 710 193 723T269 740Q321 747 338 747L361 745Z" />
<glyph unicode="^" horiz-adv-x="446" d="M400 269Q391 276 379 313Q357 380 326 431Q320 441 317 447T311 458T306 466T301 470Q297 472 282 468Q249 458 200 349Q189 316 169 298T134 287Q102 307 129 374Q136 387 143 402T154 425Q161 440 172 453Q192 488
242 528T321 566Q340 564 381 485T455 329Q464 309 442 281T400 269Z" />
<glyph unicode="_" horiz-adv-x="446" d="M349 58Q393 58 410 42T419 9T388 -4Q232 -14 163 -14T79 -9Q54 -9 43 11Q27 32 65 40L94 44Q157 58 349 58Z" />
<glyph unicode="`" horiz-adv-x="353" d="M374 477T374 467T355 438Q333 418 323 418T308 448Q305 459 280 503T254 562T271 591T300 605Q321 605 347 541Z" />
<glyph unicode="a" horiz-adv-x="446" d="M328 310Q291 310 206 167Q191 143 179 104Q195 102 241 140Q250 148 265 161T288 180T306 196Q325 215 340 237L362 273Q345 310 328 310ZM93 49Q93 58 80 74Q65 89 142 230Q148 236 157 251T170 268Q170 272 173 275T180
279L188 295Q192 304 227 338T283 385T326 397T364 383Q366 380 377 372Q396 357 462 298L445 248Q422 182 457 126Q467 105 491 101T515 79Q515 38 488 32Q410 21 371 96Q357 115 353 140Q346 130 330 114Q194 -24 124 21Q121 27 107 37T93 49Z" />
<glyph unicode="b" horiz-adv-x="444" d="M172 350L183 384Q188 388 201 427T226 492Q263 573 277 612Q283 621 291 635Q308 664 313 667Q320 669 343 657T374 634Q380 628 377 616T359 576T342 542T333 523T312 478T281 404T252 325T234 275L229 253L255 282Q291
318 324 332Q381 357 420 357T490 304Q501 282 498 250T481 195Q466 184 465 172T414 105Q388 78 346 51T287 19T261 12Q236 8 229 6Q192 10 180 38Q168 51 170 61Q182 61 184 65Q184 71 195 69Q247 65 368 177Q405 225 412 241T411 269Q399 292 346 257Q270 210
229 155L189 106Q189 102 178 96T158 90Q142 97 139 112Q127 120 126 121T120 132Q114 146 128 194Q153 311 164 320Q172 334 172 350Z" />
<glyph unicode="c" horiz-adv-x="364" d="M388 263T377 245T356 227T346 222T336 216T314 220T300 232Q300 237 307 268T309 309T284 311Q247 290 229 257T197 172T184 108Q186 89 193 85Q223 77 246 89T307 130Q309 131 315 141T328 154Q336 167 352 167H373Q391
161 402 143Q406 134 402 131L397 126Q401 118 362 79T312 39T301 33Q301 29 271 15T221 -4Q175 -12 137 15T98 88Q93 134 114 203T170 314Q221 375 249 386T309 398Q364 385 364 364L369 359Q378 359 389 328T392 282Q388 263 377 245Z" />
<glyph unicode="d" horiz-adv-x="402" d="M172 102T181 99T211 103T261 132T303 171T325 214T310 261Q282 283 243 247Q192 201 174 113Q172 102 181 99ZM397 -15T391 -16T373 -20T349 -13T331 8Q322 32 320 106L279 69Q216 10 162 10Q146 13 122 37T90 78Q78
107 99 173T156 281Q188 329 238 343T325 335Q357 319 361 341Q362 345 388 427T461 607Q481 649 502 647Q515 647 530 639T552 614T548 577Q522 532 484 430T430 270T411 127T413 29Q415 13 415 5T406 -9Z" />
<glyph unicode="e" horiz-adv-x="334" d="M293 324Q280 324 256 303T213 253Q215 241 246 241T285 245T314 270T336 299Q336 321 304 324H293ZM300 397Q359 397 386 369T413 315V307Q413 286 385 238Q371 213 342 194T284 173T229 176T196 181T185 174Q178 163
178 133Q181 105 193 94T224 83T258 90T295 115T329 133T353 121T366 98Q363 75 320 38T221 0T131 32T96 123Q96 146 98 172T116 236T164 318T235 379T300 397Z" />
<glyph unicode="f" horiz-adv-x="300" d="M165 14L157 -84Q154 -114 147 -121Q141 -125 120 -112T87 -86T75 -65T76 -31Q81 -16 81 11Q81 44 95 102T114 189Q133 252 133 271T147 298Q148 306 162 331Q204 448 222 480Q240 530 251 543Q258 560 289 593T344 646Q394
672 425 672T495 636Q509 621 511 616T513 597Q509 578 478 530T439 481Q427 477 423 477Q402 477 402 498T414 545Q426 561 426 573Q426 590 399 590Q391 586 368 562T344 531Q339 518 325 501Q307 476 307 467T301 457Q297 443 287 425Q278 401 267 390H268Q249
345 250 341T274 338T319 347T362 348Q373 341 380 317T383 287Q379 276 319 265Q307 262 280 256Q221 245 221 240Q211 240 211 227T207 204T191 140T179 75Q171 65 171 39Q165 28 165 14Z" />
<glyph unicode="g" horiz-adv-x="364" d="M314 292Q313 321 284 316T215 262Q200 242 190 214Q169 153 193 144Q225 145 243 155T285 203Q318 249 314 292ZM244 385Q281 403 310 395Q334 392 365 365Q413 317 421 297Q435 266 410 234Q397 221 388 202T375 166T356
100Q338 48 319 -27Q297 -103 268 -144T214 -200Q187 -211 156 -197T103 -151Q92 -136 75 -95T64 -50Q70 -35 96 -36T126 -48Q135 -74 148 -88Q158 -105 171 -111T192 -113Q208 -101 216 -84T240 -21Q275 101 286 118Q280 114 266 103Q238 80 220 73Q214 65 190
64Q139 62 116 93Q107 106 98 126Q82 167 113 249Q132 288 173 332T244 385Z" />
<glyph unicode="h" horiz-adv-x="473" d="M374 117L380 194Q380 216 369 216Q349 216 300 180T199 85Q167 38 138 38Q120 41 105 58T90 98T120 220Q123 244 135 273T155 329T192 436T233 550T250 598Q259 619 265 638Q265 646 276 653T300 661T327 640Q353 604
336 568T280 418T227 279L216 257L200 196Q200 193 201 193Q247 239 282 265T320 295T347 317T408 335Q426 335 448 310T470 252V237Q470 214 450 125Q455 125 465 127Q485 127 495 119T507 110Q509 108 509 104Q509 81 484 64T436 45Q408 45 391 66T374 117Z"
/>
<glyph unicode="i" horiz-adv-x="196" d="M94 96L98 117Q97 123 106 150Q128 200 162 313Q162 325 178 326Q189 330 206 317T234 286Q247 273 232 239T210 171Q198 144 194 132T185 91T174 53Q165 14 143 5T103 17Q92 28 90 56T94 96ZM188 450T188 458T192 472T208
502Q230 545 237 546Q249 554 270 545T302 520Q320 480 286 439Q271 419 248 414T213 416T195 437Z" />
<glyph unicode="j" horiz-adv-x="213" d="M-64 -76Q-55 -76 -40 -85T-24 -104Q-24 -141 -5 -143Q18 -151 40 -116Q56 -96 105 33Q115 67 129 145T147 240T153 266T156 289T163 317Q163 329 167 351T172 374Q176 378 194 372T220 357Q238 337 242 316T240 247Q240
217 225 156T206 80T199 57T196 42T183 3T168 -46T152 -91T109 -160T65 -209Q44 -232 9 -231T-50 -205Q-72 -175 -81 -145T-86 -95T-64 -76ZM206 518Q216 581 262 585Q285 587 298 576Q322 536 304 509Q280 482 253 473T213 476Q202 489 206 518Z" />
<glyph unicode="k" horiz-adv-x="374" d="M384 69L419 76Q434 76 444 66T454 43T418 8T364 -14T323 4T255 81Q255 87 243 109T228 134Q228 131 227 135Q219 159 209 160Q204 160 193 140T173 90T163 41T154 10T129 -3Q116 0 95 27T74 71Q77 77 81 92T93 130T107
173Q115 186 128 226Q137 243 158 295T197 387Q280 578 292 607T307 652V656Q307 672 348 672Q357 672 371 655T385 623Q385 589 315 441T244 268Q244 265 245 265Q266 273 302 300T351 332Q394 362 405 362T428 349T440 323Q440 289 329 230Q289 208 286 205Q286
204 310 170Q319 154 328 134T343 105T354 86Q366 69 384 69Z" />
<glyph unicode="l" horiz-adv-x="178" d="M164 335L174 373Q190 404 230 512T270 631T276 648T290 655Q296 661 319 661L335 645Q358 624 358 607T352 573T314 490Q310 479 303 465T292 442T288 431T287 425T282 413T274 394Q234 306 234 297T229 282Q224 282
224 274V271Q224 261 208 218Q165 73 165 37T142 -11Q113 -19 95 19T89 112Q100 141 100 154Q103 173 120 222T143 282Q153 282 153 304T164 335Z" />
<glyph unicode="m" horiz-adv-x="569" d="M153 335L151 357Q151 372 165 382T202 393T237 375T250 338T242 303L206 215Q206 212 208 212Q211 209 234 231T302 285T368 324Q382 324 402 306T422 265Q407 197 401 188Q420 211 467 243T536 276Q568 276 579 246T594
169T604 104Q605 98 615 95T635 86T645 63Q645 23 579 23Q550 23 529 53T507 126Q507 143 509 160T512 180T509 183Q483 183 396 88Q393 86 391 83Q383 77 370 64Q340 36 328 36T309 42L298 51Q285 60 285 77V82L308 149Q333 204 333 210T332 216Q317 216 276 171Q232
123 217 108T186 73T158 41T145 27Q123 27 106 44T88 79T91 112T101 157T110 196T115 217T117 230T122 244T131 267T149 308Q153 321 153 335Z" />
<glyph unicode="n" horiz-adv-x="459" d="M379 95L384 163V179Q381 199 371 199Q353 199 304 164Q216 101 172 44Q163 34 158 33T142 32T113 52T89 86Q89 126 129 204Q134 220 156 273T182 356L181 357Q181 367 191 367Q193 370 211 370T248 356T267 317T241 240T215
186Q231 197 276 232Q379 315 403 315Q416 315 439 301T467 274L463 228L465 173Q465 141 461 128L464 122Q460 118 472 92T484 60T470 40T442 24Q379 26 379 95Z" />
<glyph unicode="o" horiz-adv-x="362" d="M313 199T317 210T324 228T328 258T321 288Q310 293 303 291T280 278Q204 214 189 141Q186 116 194 104T223 97T259 118T280 139T288 148T295 159T301 170T306 183T311 195ZM198 326Q248 369 288 378Q348 392 372 367Q411
350 417 296Q425 213 362 122Q325 68 260 29Q234 11 168 7Q151 7 129 26Q84 73 90 109L92 132Q87 137 89 140T93 144Q99 144 97 153T104 190T127 240Q161 296 198 326Z" />
<glyph unicode="p" horiz-adv-x="378" d="M189 117Q203 117 241 132T296 162T322 185T338 207Q353 230 336 257Q307 292 229 217Q197 183 188 150T189 117ZM61 -6L68 30Q73 57 107 158T165 321Q193 386 193 407Q193 412 204 424Q215 433 230 432T258 421Q274 395
269 365Q269 345 247 313Q245 310 246 311Q305 346 347 340T413 305T436 235Q436 218 420 185T394 142Q388 142 378 121Q366 105 333 88T287 74Q282 71 282 65Q282 58 249 50T197 41T170 49Q163 42 163 34T153 5T137 -17Q131 -22 137 -28Q137 -49 131 -59Q131 -85
121 -107Q121 -119 118 -130T110 -142Q104 -144 104 -169T89 -214T61 -233Q42 -235 37 -225Q16 -195 22 -165Q33 -123 33 -107L38 -75Q49 -57 49 -28Q49 -16 61 -6Z" />
<glyph unicode="q" horiz-adv-x="377" d="M347 316Q339 334 271 282T181 180L170 151Q199 148 226 164T285 210T334 272T347 316ZM158 72Q138 72 114 104T90 156T105 209T136 265T191 320T247 362T287 383Q305 394 313 394Q348 402 384 391Q397 382 414 359T435
317Q435 300 431 287T408 232Q394 210 383 187T371 158Q366 144 328 62Q327 56 320 28Q301 -41 291 -87Q273 -183 291 -209Q295 -221 278 -230Q258 -241 240 -227Q215 -208 213 -203T208 -193T205 -183Q189 -98 251 79Q269 111 267 119Q257 114 243 107T222 96T206
87T191 80T180 76Q166 72 158 72Z" />
<glyph unicode="r" horiz-adv-x="360" d="M201 399T223 399T253 391Q275 372 222 269Q205 235 211 235Q222 254 264 287T318 325T341 336T356 342Q378 353 406 351T440 333Q440 323 452 317L457 311Q457 303 443 291T414 277T379 267T339 247T311 231T286 216Q258
197 236 171Q209 144 205 136Q198 129 191 100T183 63Q179 47 168 33T147 15T119 27Q88 50 91 76T112 175Q115 202 143 281T191 389Q201 399 223 399Z" />
<glyph unicode="s" horiz-adv-x="350" d="M303 416Q318 423 342 423T373 419Q379 421 381 421Q393 421 412 401T436 369Q436 296 424 296Q419 296 419 290Q419 276 395 259T350 242Q339 245 328 255T317 277Q317 278 337 302T358 345Q358 353 341 353Q286 328
262 306Q256 294 250 294Q250 295 249 295T237 285T217 259T204 229L202 226V221Q201 219 201 213Q201 197 243 166T302 118T323 88Q332 70 332 56Q332 22 297 4T212 -15T127 6T91 42T101 61Q111 69 129 65Q150 61 181 57Q201 57 218 61T236 69T228 80T211 87Q211
91 172 120T132 159Q132 160 133 161V166Q126 166 120 185T114 222Q114 274 176 335T303 416Z" />
<glyph unicode="t" horiz-adv-x="331" d="M122 359T118 365T113 377T121 399T136 414T166 413T198 417T210 430Q214 441 230 467Q265 535 279 546T311 559T347 550Q362 529 348 508Q342 496 329 477T310 447Q293 423 305 421T364 426T417 392Q420 368 412 363T366
358Q334 353 306 353T271 350Q259 347 252 331Q249 329 245 320Q239 308 220 273Q194 197 180 116Q177 96 182 88T214 77Q262 72 319 106L346 122Q353 134 368 109Q372 103 374 97Q374 58 332 34Q291 8 246 1T178 -3T135 24T110 63L105 71Q99 76 101 122T108 188Q114
212 142 289L169 347L129 358Q122 359 118 365Z" />
<glyph unicode="u" horiz-adv-x="370" d="M306 89V104Q296 79 284 70Q261 47 238 36Q172 -6 135 42Q95 75 105 123Q108 193 148 281Q192 369 194 372Q210 378 231 372T255 352Q261 342 255 314T231 252Q191 154 190 132T201 105Q212 98 227 104T269 143T314 224T337
307Q335 318 343 331T364 352Q368 358 374 361T384 361L400 362Q402 362 409 353T419 341Q447 317 405 218Q348 98 393 59Q409 48 406 7Q402 -7 377 -8T336 2Q322 15 308 70Q306 76 306 89Z" />
<glyph unicode="v" horiz-adv-x="331" d="M130 355Q134 358 147 359T166 360Q188 352 206 238Q208 220 210 204Q215 177 216 174T219 160T224 148Q235 148 296 236Q331 286 354 308T388 333Q412 337 417 316T403 266Q397 258 391 245T378 219T342 167T307 122T293
109Q268 88 259 74Q236 51 213 46T179 53Q168 61 149 121T124 217T106 290Q101 307 109 327T130 355Z" />
<glyph unicode="w" horiz-adv-x="517" d="M367 154Q367 131 376 128Q379 127 388 127T407 135T438 163T488 230T518 284T527 303Q556 345 585 316Q595 306 595 269Q574 191 562 178Q543 163 530 141Q502 108 490 98T475 85Q444 54 401 42T338 46Q307 62 307 100L302
121Q287 121 276 101T227 56T170 30Q147 30 127 77T110 173Q110 206 116 237T124 272Q132 333 149 359Q166 382 190 379T218 354Q226 345 224 313T213 269Q211 264 206 219T198 162Q193 133 208 139Q224 146 251 185T289 245Q300 265 313 302T336 350T363 362T394
351Q423 322 399 274Q367 210 367 154Z" />
<glyph unicode="x" horiz-adv-x="343" d="M216 121Q120 20 106 20T73 37T54 79Q86 117 123 149L174 201L163 239Q145 278 137 302Q125 318 125 323T132 340Q142 350 160 357T189 357Q197 357 214 324T232 278T234 262Q239 255 269 275L295 301Q356 352 365 356Q377
364 396 350T416 319Q416 286 382 267Q357 249 338 231Q311 206 277 179L293 152Q304 131 319 123Q327 112 354 91T383 70T406 60Q418 48 411 18T391 -12Q375 -12 370 -6Q339 -6 288 38T237 95Q237 99 237 99T232 100Q226 105 226 111Q226 121 216 121Z" />
<glyph unicode="y" horiz-adv-x="341" d="M-47 -117T-32 -117T-10 -121Q28 -147 61 -141T132 -83Q174 -16 196 24Q175 36 156 64T140 104V115Q129 115 126 177T125 264T132 356Q131 382 150 395Q186 411 203 379T216 273Q207 137 235 105Q244 129 250 135Q264
164 265 169T270 182T290 222Q316 297 322 307T331 325T337 337T342 346T347 355T352 361Q356 366 361 368Q377 380 397 369Q412 354 418 345Q432 321 406 273Q388 220 374 204Q341 128 315 75T276 -9Q212 -111 186 -142Q120 -202 86 -208Q34 -219 -12 -205T-66
-164Q-72 -144 -60 -131Z" />
<glyph unicode="z" horiz-adv-x="315" d="M255 93Q327 96 352 96Q384 96 393 93T407 67T408 39Q406 39 393 38Q367 34 335 33T192 18T66 6T38 17T23 36T27 65T53 103Q91 150 114 169T225 247Q232 253 278 287Q227 292 203 292T168 294H153Q144 294 123 309T101
334Q112 346 117 352Q134 363 138 359Q180 361 212 363Q295 362 319 357T365 333Q381 317 385 297T380 265T366 252Q328 226 303 211Q261 186 258 181Q238 171 227 160Q214 144 191 128L146 85Q205 95 255 93Z" />
<glyph unicode="{" horiz-adv-x="330" d="M541 699L498 694Q469 687 433 655Q416 634 412 625T405 597Q395 571 392 558Q389 539 384 483T371 408T360 381Q333 307 291 270Q274 260 273 256T280 241Q280 240 285 228T290 208Q297 191 291 169T261 92Q242 54 242
37Q234 26 225 -12T215 -56T213 -63Q213 -82 258 -75Q277 -72 281 -74T294 -88Q306 -97 301 -113T274 -136Q252 -148 219 -149T176 -142Q167 -128 167 -134Q147 -115 138 -103T130 -58V-30Q136 -25 138 -4Q156 66 185 127Q209 172 209 201Q209 233 159 243Q129
243 139 272Q143 284 155 291T181 294Q204 294 234 327Q296 394 307 546Q311 602 328 638T384 711Q400 731 423 740T456 754T490 758T521 754Q528 751 537 727T541 699Z" />
<glyph unicode="|" horiz-adv-x="330" d="M212 325L222 363Q239 395 303 563T368 741T379 759T399 768Q404 773 415 773L431 757Q457 733 457 711Q457 693 451 680T442 659T430 634T416 603T391 545T355 462T338 421T337 415T332 403T324 384Q284 296 284 287T279
272Q274 272 274 264V261Q274 251 258 208Q175 -71 175 -103T150 -148Q120 -156 103 -120T97 -28Q108 1 108 14Q112 33 149 148T191 272Q201 272 201 294T212 325Z" />
<glyph unicode="}" horiz-adv-x="330" d="M204 46L206 117Q206 132 204 172T203 229T212 261Q224 272 221 294Q213 314 214 330T225 353Q267 398 286 435Q341 522 357 587V597Q365 616 348 640Q340 656 328 663T296 676T272 697T279 722Q285 734 307 740T337 739T351
731T385 707T421 668Q428 663 433 619Q438 601 437 590T415 515T383 437Q372 430 372 426T354 391T322 347L311 328L304 324Q292 316 307 279Q309 274 312 268T318 258Q318 244 313 244Q294 234 289 211T286 112T279 15Q263 -55 256 -55L253 -59Q253 -80 216 -102T148
-125T93 -113T70 -87L76 -76Q81 -80 86 -80T91 -76Q105 -65 128 -56Q170 -49 179 -40T196 5T204 46Z" />
<glyph unicode="~" horiz-adv-x="446" d="M351 268Q364 268 406 286T463 305T489 295T500 270T483 239L462 227Q438 218 415 207T384 192Q370 187 358 187T330 192Q294 203 259 230Q229 253 214 253T182 235T153 216Q147 199 138 199Q120 199 109 211T97 233T105
256T134 289T185 320L210 323Q254 320 269 309Q322 268 351 268Z" />
<glyph unicode="&#xa0;" horiz-adv-x="242" />
<glyph unicode="&#xa1;" horiz-adv-x="210" d="M295 406Q275 394 266 393T236 400Q203 421 207 446T251 492Q289 507 317 487Q356 448 295 406ZM168 35L155 0Q137 -30 103 -113T68 -207T62 -225T50 -230Q45 -234 26 -234Q10 -229 1 -219T-9 -188T-7 -160T-2 -147T5
-131T14 -114Q18 -105 34 -78Q63 -22 63 -21T76 11Q84 24 92 47T101 75Q106 88 109 91Q114 91 114 99V102Q114 116 133 155Q167 252 170 289T198 338Q229 344 242 315T240 214Q226 186 226 172Q214 129 192 88Q188 88 184 81T179 59T168 35Z" />
<glyph unicode="&#xa2;" horiz-adv-x="450" d="M329 330L344 363Q358 384 390 448L374 457Q362 457 326 405Q301 378 296 357T288 320T283 299T283 279T292 261Q301 277 302 278Q306 278 311 285T317 299Q317 323 329 330ZM408 195L392 191Q387 191 361 185T325
173T305 168Q233 12 231 -12T226 -44T214 -54Q187 -60 183 -28T197 59Q212 80 214 103Q221 121 250 180Q243 183 223 201T198 230Q167 274 220 406Q231 429 256 466T291 509Q307 514 330 526Q338 529 361 534T395 539T429 526Q497 666 499 680Q505 696 519 693Q525
699 535 695L549 681Q566 652 543 608Q539 601 526 580Q481 504 472 489Q481 474 479 466T467 439T451 412T425 409Q423 403 393 351T361 290T351 272Q348 272 346 267Q390 278 419 290Q432 299 442 299T456 299T466 297T473 295Q489 289 481 265T449 227Q408 206
408 195Z" />
<glyph unicode="&#xa3;" horiz-adv-x="450" d="M293 348L371 347Q425 347 447 325Q462 309 454 293T423 281L345 278Q334 276 269 278Q266 269 254 229Q253 222 244 168T232 88L234 63L270 51Q275 49 288 40T314 29Q340 12 368 12T416 21T439 39Q443 39 446 43T450
53L480 60Q508 60 514 33Q523 -4 476 -39Q460 -51 435 -63T368 -73T296 -48Q284 -36 267 -36Q262 -33 242 -30T216 -26Q183 -19 160 -26Q120 -39 72 -23T24 16Q24 49 73 54Q109 58 116 58T126 61T130 64T133 69Q148 108 157 167T177 279Q138 279 124 279T94 286Q70
286 59 306Q41 331 90 339Q132 345 195 347Q216 414 238 459Q333 653 403 665Q429 673 461 664T512 636Q514 647 532 621T552 581L562 555Q565 553 565 536Q560 508 539 492Q518 479 493 489T470 528Q474 577 448 584Q439 590 430 589T401 572Q392 556 378 544Q365
522 346 485T293 348Z" />
<glyph unicode="&#xa4;" horiz-adv-x="450" d="M416 328Q419 372 370 377Q349 380 330 371T301 354T288 338T271 308Q250 278 245 252T254 217Q266 199 315 202Q410 253 416 328ZM477 53T462 53T429 69Q394 95 371 141Q374 152 362 146Q358 144 353 141Q300 118
276 122Q265 126 262 126T248 115Q245 104 210 72Q204 56 198 50Q187 39 189 33Q184 28 160 20T133 18Q128 14 122 21T113 37T115 52Q118 56 121 56Q114 63 124 81T145 108Q145 110 148 114T152 125Q162 132 175 132Q175 143 178 146T182 150T186 153T194 160T197
169T193 171Q180 192 176 194Q170 252 178 277Q180 277 181 283Q184 303 190 309Q189 312 194 318L204 328Q206 331 206 335Q210 343 219 357Q222 364 224 369T228 378T230 383T230 387Q229 393 228 398Q208 414 193 435T182 468L175 479Q159 502 181 527Q193 541
198 534Q212 534 220 518Q228 505 237 496Q241 496 247 484Q258 463 270 455T286 445T290 442T291 441T293 442T295 444Q298 450 305 453Q310 460 323 457T347 455L375 453L409 499Q469 576 485 546Q492 544 498 529T503 512T500 509T498 505T495 501T492 495T488
488T477 468T466 447Q455 444 453 437T449 427Q453 419 464 410Q476 405 480 374Q488 368 492 348T493 325L489 314Q492 307 473 269T431 204L414 184L427 170Q434 157 454 138T482 119Q487 118 488 94T483 62Z" />
<glyph unicode="&#xa5;" horiz-adv-x="450" d="M457 114Q388 114 320 110Q300 45 297 37Q279 -31 266 -56T239 -76Q233 -75 200 -52Q191 -43 191 -36T191 -25T192 -17T195 -8T198 3T201 16T205 31Q205 65 220 108Q187 107 156 107T109 112Q83 112 72 132Q54 156
104 165Q166 174 241 177Q251 208 266 247H187Q167 247 152 252Q127 252 116 272Q97 297 149 306Q214 314 251 316Q218 369 211 423Q196 474 202 585Q202 612 208 630Q220 662 229 680Q258 705 274 675T289 595Q295 393 329 365Q333 361 340 364T350 367T361 376T374
389T391 408T423 442T486 513Q590 636 616 648Q627 653 645 658Q651 656 654 644T660 627T667 618Q677 606 677 600T634 551Q612 532 564 482T488 397Q447 349 419 320H447Q502 320 520 302T531 268T501 255L423 250L358 248L346 197L340 179H403Q460 179 478 162T488
127T457 114Z" />
<glyph unicode="&#xa6;" horiz-adv-x="330" d="M254 208Q171 -71 171 -103T147 -148Q118 -156 103 -120T100 -28Q111 1 111 14Q114 30 140 111T183 242Q187 251 205 248T242 233T256 213L254 208ZM375 751Q375 767 391 767Q396 772 407 772L423 756Q457 725 457
710Q457 692 451 679T442 658T430 633T416 602T391 544T355 461T338 420T337 414T332 402Q326 386 312 355Q307 336 269 350T230 379Q230 382 246 418T318 598T375 751Z" />
<glyph unicode="&#xa7;" horiz-adv-x="385" d="M323 303Q306 322 299 332Q290 325 255 287Q244 274 242 259L260 254Q282 235 309 242T341 271Q333 273 323 303ZM339 436T339 429T340 413T350 384T368 363Q378 341 400 321Q468 209 351 181Q302 169 262 188Q269
179 272 177Q285 155 304 140Q371 25 247 1Q208 -8 174 1T125 37Q118 50 118 63T125 81Q135 81 147 76T164 69Q187 55 216 63T250 90Q250 91 243 103T232 125Q201 155 184 191T167 254Q161 271 172 294T201 334Q217 358 264 392Q255 414 255 432Q250 448 261 477T288
528Q332 577 412 615Q457 615 474 610Q484 606 497 583T513 542Q513 537 507 518T498 490T493 474T487 461T484 454Q483 444 472 443T448 447T431 465Q423 497 428 510Q445 530 434 530Q431 530 424 530T395 514T358 474Q342 456 341 446Z" />
<glyph unicode="&#xa8;" horiz-adv-x="353" d="M421 548Q450 569 475 524Q485 500 482 486T455 445Q421 399 390 429Q381 437 375 453T371 476Q379 513 403 533Q405 534 408 538Q416 548 421 548ZM266 548Q295 569 320 524Q330 500 327 486T300 445Q266 399 235
429Q226 437 220 453T216 476Q224 513 248 533Q250 534 253 538Q260 548 266 548Z" />
<glyph unicode="&#xa9;" horiz-adv-x="496" d="M415 217L399 214Q381 214 354 203Q342 203 341 203T323 208T298 215T275 235Q244 282 276 358Q284 385 326 434Q332 441 343 454Q355 461 392 470Q416 469 448 436T475 388Q475 387 469 380T460 368Q456 359 437
364T416 382Q403 400 390 400Q369 400 359 366Q347 352 344 339Q330 279 341 272Q359 266 371 271T422 305Q432 312 452 284Q459 273 463 272Q462 256 446 240T415 217ZM510 409Q510 420 472 473Q406 523 346 498Q249 469 222 360Q208 314 207 300T219 262Q217
251 221 237T226 217T249 184T288 153Q304 139 338 145T413 174Q439 186 470 212T500 252Q498 257 500 263T506 270Q520 282 524 325T520 388T510 409ZM595 346V339Q601 331 596 287T586 242Q581 240 583 239T580 230Q566 209 552 207Q550 204 555 203Q559 201
541 181T493 138T442 107L434 98Q427 88 400 80T353 73Q208 70 169 182Q157 202 153 224T148 250T146 259T144 267T143 292T145 317Q151 321 147 328Q139 347 167 415T207 491Q208 491 208 494T210 498Q222 516 314 564Q447 629 547 487Q550 476 560 460T570 439Q584
418 591 388T594 353Q595 351 595 346Z" />
<glyph unicode="&#xaa;" horiz-adv-x="350" d="M369 579Q336 579 261 453Q249 433 238 397Q260 397 342 473Q362 491 380 515L400 547Q385 579 369 579ZM186 329T174 338T162 349T158 359T149 370Q137 385 205 509Q210 514 218 527T229 543Q229 552 239 552L245
566Q249 574 280 604T330 646T367 657T395 649T412 634T434 616Q448 604 488 569L473 525Q452 465 483 417Q493 398 514 395T535 375Q535 338 512 334Q443 324 407 390Q395 407 391 429Q385 420 371 406Q250 284 189 323Q186 329 174 338Z" />
<glyph unicode="&#xab;" horiz-adv-x="646" d="M624 427Q621 398 613 391T586 370Q550 341 500 296T441 238T435 205Q460 149 563 91Q603 71 620 36T616 -6Q577 -10 538 8Q517 20 508 24T491 32T479 40T470 47Q460 54 452 64Q398 95 364 157L333 199L326 237Q335
239 341 253T352 272T369 288T411 323T467 369Q501 394 541 434Q561 456 567 456Q576 459 587 452T606 441Q622 435 624 427ZM414 427Q411 398 403 391T376 370Q340 341 290 296T230 238T224 205Q249 149 353 91Q393 71 410 36T406 -6Q367 -10 328 8Q307 20 298
24T281 32T269 40T260 47Q250 54 242 64Q188 95 154 157L122 199L115 237Q125 239 134 260Q140 271 155 284T201 323T256 369Q290 394 330 434Q350 456 356 456Q365 459 376 452T396 441Q412 435 414 427Z" />
<glyph unicode="&#xac;" horiz-adv-x="465" d="M427 313Q471 313 489 296Q509 275 497 263Q500 230 500 192T482 133T442 118T425 145L417 240Q316 233 195 233Q175 233 160 238Q146 238 142 245T135 259T129 270T125 280T129 288Q139 295 175 299Q238 313 427 313Z" />
<glyph unicode="&#xad;" horiz-adv-x="326" d="M138 230Q233 247 281 247T348 229T359 195T329 182Q203 172 181 172T143 177Q117 177 106 197Q88 221 138 230Z" />
<glyph unicode="&#xae;" horiz-adv-x="496" d="M402 378V387Q406 395 399 400Q390 410 382 412Q379 409 376 407T369 400Q368 386 363 384Q342 317 350 315Q360 318 365 323T373 339T378 351Q384 354 391 364T400 374Q402 376 402 378ZM316 450Q316 457 334 463T374
467T401 461Q413 460 431 450T449 437Q463 424 467 388Q467 367 453 348Q439 321 411 302L399 289Q400 284 414 274T437 260Q446 264 450 260T451 240Q443 223 430 214T404 214Q389 217 381 225T364 243T345 263Q345 264 331 265L323 244Q323 232 317 211Q307 190
292 193T264 212T254 245T272 298Q272 320 276 320Q283 364 311 401Q311 412 312 416Q314 423 308 431T316 450ZM510 409Q510 420 472 473Q406 523 346 498Q249 469 222 360Q208 314 207 300T219 262Q217 251 221 237T226 217T249 184T288 153Q304 139 338 145T413
174Q439 186 470 212T500 252Q498 257 500 263T506 270Q520 282 524 325T520 388T510 409ZM595 346V339Q601 331 596 287T586 242Q581 240 583 239T580 230Q566 209 552 207Q550 204 555 203Q559 201 541 181T493 138T442 107L434 98Q427 88 400 80T353 73Q208
70 169 182Q157 202 153 224T148 250T146 259T144 267T143 292T145 317Q151 321 147 328Q139 347 167 415T207 491Q208 491 208 494T210 498Q222 516 314 564Q447 629 547 487Q550 476 560 460T570 439Q584 418 591 388T594 353Q595 351 595 346Z" />
<glyph unicode="&#xaf;" horiz-adv-x="353" d="M278 513Q341 527 394 527T471 507Q486 492 478 476T448 462L298 453Q278 453 263 458Q238 458 227 477Q217 492 229 500T278 513Z" />
<glyph unicode="&#xb0;" horiz-adv-x="283" d="M324 666T303 636T281 553T325 490Q350 490 379 518T408 592Q407 660 358 664Q324 666 303 636ZM343 740Q400 740 446 701T493 602Q493 569 484 544T467 509T442 479T412 447T377 421T336 406Q237 406 210 486Q202
500 197 527T192 564T204 608Q223 662 250 687Q262 699 279 710T300 726Q331 740 343 740Z" />
<glyph unicode="&#xb1;" horiz-adv-x="446" d="M402 82Q459 82 477 65T487 30T456 17Q300 7 170 7Q150 7 135 12Q110 12 99 32Q80 57 132 66L150 68Q213 82 402 82ZM328 245L329 194Q329 175 324 161Q324 137 304 126Q289 116 281 128T268 175Q262 200 259 243Q221
242 186 242T135 247Q110 247 99 267Q80 292 132 301L150 303Q184 310 255 313Q254 330 254 372T271 432T306 442T319 413L325 316Q357 317 407 317T476 299T487 265T456 252Q347 245 328 245Z" />
<glyph unicode="&#xb2;" horiz-adv-x="320" d="M201 419Q222 444 222 449L236 459H234L255 480H254Q271 506 273 510T281 521Q323 563 325 572Q331 580 337 583L356 600Q358 605 379 626Q391 655 392 657T391 661Q374 667 353 667T309 652Q298 650 287 644T267
640L243 671L231 699L268 715Q343 761 377 747L399 743Q411 741 432 725T465 689T476 646T447 582Q440 573 403 532T357 481Q342 471 321 449T301 426L304 424Q372 447 394 440Q415 446 460 431Q468 428 471 423T479 412T490 401T498 386T496 374Q482 363 437 369L379
363H373Q352 366 327 357T260 341T212 335T194 350T178 371Q178 377 187 398T201 419Z" />
<glyph unicode="&#xb3;" horiz-adv-x="320" d="M386 446V456Q386 474 337 493Q311 503 294 505Q292 504 290 504T286 504T283 505T279 507T275 510T270 513T264 518T259 526T254 538Q252 544 247 552Q245 567 327 617Q402 662 413 673H412Q416 679 419 683T419
688Q382 692 378 687Q372 689 350 685T326 677T303 671T275 668T262 690T253 721Q257 727 277 742T311 763Q349 773 412 770H413Q448 766 475 745T508 696Q513 665 471 623Q456 613 447 608Q424 597 403 578L396 573L364 559L414 541Q438 528 458 495Q464 484 466
481Q476 454 476 432T457 382Q405 305 294 298Q248 298 225 313T202 347T215 376T247 385Q333 364 369 406Q386 425 386 446Z" />
<glyph unicode="&#xb4;" horiz-adv-x="353" d="M329 478L330 488Q332 497 373 541T428 590Q436 594 443 596Q456 596 468 582T481 545Q481 531 438 496T384 445T359 430Q329 430 329 478Z" />
<glyph unicode="&#xb5;" horiz-adv-x="370" d="M225 377Q261 377 261 344Q261 319 230 241T198 142Q198 112 225 112Q270 112 329 255Q338 289 338 301T355 340T387 366Q389 366 393 364L412 362Q415 365 421 353L432 327Q433 322 433 311Q433 271 405 209T377
113T405 57Q418 46 418 24Q412 8 395 -4T363 -16T335 3T316 40T311 76V95Q305 82 267 49T203 16T161 35Q101 -161 86 -180L82 -183Q73 -192 65 -192Q49 -192 38 -169T27 -134T43 -71Q96 95 107 155T149 281Q188 358 198 368Q205 377 225 377Z" />
<glyph unicode="&#xb6;" horiz-adv-x="424" d="M398 264Q398 266 399 270T401 280T404 291T410 304Q415 316 420 330L431 346Q426 346 436 367T448 394T451 408T455 424Q484 485 493 500Q505 538 505 547Q463 556 458 538L434 497Q429 484 415 453T398 412Q381
378 370 349Q353 315 347 292Q345 288 319 224T279 138Q277 132 275 119T271 103T219 -40Q211 -52 205 -55T181 -55Q138 -18 150 -2Q150 -1 161 30Q185 115 212 158Q214 164 218 180Q228 216 248 243L263 291Q258 292 242 292T204 296Q139 320 151 409Q152 412
156 427T162 446T169 464T177 483T187 500Q198 518 215 530Q289 583 367 614Q407 614 456 621Q616 608 608 569Q604 550 601 545T584 509T558 455T527 379Q514 355 500 315Q493 303 487 292Q483 266 456 214Q426 143 422 120Q419 114 408 86T388 44L376 2H330Q328
3 323 5Q311 10 306 16Q303 27 308 55Q325 87 327 88Q331 91 332 105T349 142L357 168Q357 174 368 196T384 234Q395 264 398 264Z" />
<glyph unicode="&#xb7;" horiz-adv-x="187" d="M176 353Q188 361 207 356T236 334Q254 295 219 253Q204 233 182 227T146 233Q141 237 136 252Q125 283 131 289Q139 290 153 310T167 340T176 353Z" />
<glyph unicode="&#xb8;" horiz-adv-x="353" d="M176 60L232 30Q176 3 176 -17Q182 -26 196 -42Q225 -77 229 -94Q238 -128 215 -157T159 -193T46 -173Q31 -168 25 -150T28 -120T66 -115Q131 -137 145 -130Q152 -126 156 -118Q164 -104 141 -77Q136 -72 130 -65T105
-40Q95 -26 94 -15T112 17T176 60Z" />
<glyph unicode="&#xb9;" horiz-adv-x="320" d="M354 719T357 721T378 738T427 767T464 782T485 766T503 742T492 694T458 584T435 509T433 500Q425 478 419 449Q402 408 394 360Q378 314 374 310Q366 281 326 303Q313 312 311 316Q301 340 309 367L327 444Q332
446 350 510T378 598Q383 611 400 663Q394 659 380 645T354 621Q328 604 319 597Q292 573 289 571Q254 539 237 551Q224 562 216 580T212 607Q215 608 246 633T281 660Q284 661 303 677H302Q310 685 329 699T351 716Z" />
<glyph unicode="&#xba;" horiz-adv-x="283" d="M376 509Q381 522 381 544T376 569H377Q358 581 330 553T266 439Q259 409 259 404Q259 379 274 379Q298 379 328 415Q359 455 376 509ZM179 416Q181 418 181 419L187 421Q185 426 184 429Q185 441 194 470T224 537T280
609T364 656Q383 663 392 662T413 647Q431 637 446 613T463 566Q469 497 421 418Q390 370 332 329H333Q297 301 257 298Q235 298 196 337Q183 352 180 362T180 391V409L182 408Q177 413 181 417L179 416Z" />
<glyph unicode="&#xbb;" horiz-adv-x="708" d="M392 19Q395 33 405 42T499 126T590 215T597 242Q570 302 461 363Q417 385 399 415T400 450Q458 455 496 438Q517 426 526 422T543 414T555 406T564 399Q574 392 582 382Q636 351 670 289L694 247L701 217Q691 215
685 198T677 181Q660 160 557 72Q523 47 483 7Q463 -15 457 -15Q453 -17 436 -6T411 8Q393 12 392 19ZM171 19Q174 33 184 42T207 62Q221 75 290 138T368 215T375 242Q348 302 239 363Q195 385 177 415T179 450Q236 455 274 438Q295 426 304 422T321 414T333 406T342
399Q352 392 360 382Q414 351 448 289L472 247L479 217Q469 215 463 198T455 181Q436 158 336 72Q302 47 262 7Q242 -15 236 -15Q232 -17 215 -6T190 8Q172 12 171 19Z" />
<glyph unicode="&#xbc;" horiz-adv-x="800" d="M851 393H857Q875 393 877 374V380Q905 352 899 335Q898 331 856 232T799 81T780 15T782 -14Q783 -40 755 -55Q726 -71 714 -51Q694 -36 704 16Q707 40 712 63T719 92L732 129Q725 127 710 121Q689 116 674 116T640
124Q613 136 604 176Q598 198 604 205Q625 258 626 260T627 267Q634 283 670 338Q707 397 717 407Q726 413 742 418T766 418Q776 409 779 393T780 372Q779 368 763 342L753 333H754Q711 266 689 219Q679 191 680 190Q690 189 706 194Q729 201 736 201T749 205Q761
205 761 210H765Q765 212 766 225L773 244L785 266Q801 301 805 308Q831 377 833 380T837 386T842 390Q845 393 851 393ZM276 619T279 621T300 638T349 667T386 682T407 666T425 642T414 594T380 484T357 409T355 400Q347 378 341 349Q324 308 316 260Q300 214
296 210Q288 181 248 203Q235 212 233 216Q223 240 231 267L249 344Q254 346 272 410T300 498Q305 513 322 563Q316 559 302 545T276 521Q250 504 241 497Q214 473 211 471Q176 439 159 451Q146 462 138 480T134 507Q137 508 168 533T203 560Q206 561 225 577H224Q232
585 251 599T273 616ZM810 677Q817 681 826 677Q841 660 850 646Q862 628 845 602Q834 586 824 578Q789 550 709 472T628 392Q618 384 607 370Q537 308 535 300Q528 291 523 289L516 283Q516 274 483 243Q320 46 311 25T290 -8T268 -21Q235 -18 230 10T260 92Q280
114 283 122Q301 147 443 307Q447 306 452 310T462 328T480 343Q481 346 486 351T491 359T496 365T501 372Q527 394 656 526T790 669Q794 682 810 677Z" />
<glyph unicode="&#xbd;" horiz-adv-x="800" d="M545 69Q566 94 566 99L580 109H578L599 130H598Q615 156 617 160T625 171Q667 213 669 222Q675 230 681 233L700 250Q702 255 723 276Q735 305 736 307T735 311Q718 317 697 317T653 302Q642 300 631 294T611 290L587
321L575 349L612 365Q687 411 721 397L743 393Q755 391 776 375T809 339T820 296T791 232Q784 223 747 182T701 131Q686 121 665 99T645 76L648 74Q654 80 691 86T738 90Q759 96 804 81Q812 78 815 73T823 62T834 51T842 36T840 24Q826 13 781 19L723 13H717Q696
16 671 7T604 -9T556 -15T538 0T522 21Q522 27 531 48T545 69ZM276 619T279 621T300 638T349 667T386 682T407 666T425 642T414 594T380 484T357 409T355 400Q347 378 341 349Q324 308 316 260Q300 214 296 210Q288 181 248 203Q235 212 233 216Q223 240 231 267L249
344Q254 346 272 410T300 498Q305 513 322 563Q316 559 302 545T276 521Q250 504 241 497Q214 473 211 471Q176 439 159 451Q146 462 138 480T134 507Q137 508 168 533T203 560Q206 561 225 577H224Q232 585 251 599T273 616ZM780 677Q787 681 796 677Q811 660
820 646Q832 628 815 602Q804 586 794 578Q759 550 679 472T598 392Q588 384 577 370Q507 308 505 300Q498 291 493 289L486 283Q486 274 453 243Q290 46 281 25T260 -8T238 -21Q205 -18 200 10T230 92Q250 114 253 122Q271 147 413 307Q417 306 422 310T432 328T450
343Q451 346 456 351T461 359T466 365T471 372Q497 394 626 526T760 669Q764 682 780 677Z" />
<glyph unicode="&#xbe;" horiz-adv-x="800" d="M821 393H827Q844 393 847 375V380Q875 352 869 335Q868 331 826 232T769 81T750 15T752 -14Q753 -40 725 -55Q696 -71 684 -51Q664 -36 674 16Q677 40 682 63T689 92L702 129Q695 127 680 121Q659 116 644 116T610
124Q583 136 574 176Q568 198 574 205Q595 258 596 260T597 267Q604 283 640 338Q677 397 687 407Q696 413 712 418T736 418Q746 409 749 393T750 372Q749 368 733 342L723 333H724Q681 266 659 219Q649 191 650 190Q660 189 676 194Q699 201 706 201T719 205Q731
205 731 210H735Q735 212 736 225L743 244L755 266Q771 301 775 308Q801 377 803 380T807 386T812 390Q815 393 821 393ZM820 677Q827 681 836 677Q851 660 860 646Q872 628 855 602Q844 586 834 578Q799 550 719 472T638 392Q628 384 617 370Q547 308 545 300Q538
291 533 289L526 283Q526 274 493 243Q330 46 321 25T300 -8T278 -21Q245 -18 240 10T270 92Q290 114 293 122Q311 147 453 307Q457 306 462 310T472 328T490 343Q491 346 496 351T501 359T506 365T511 372Q537 394 666 526T800 669Q804 682 820 677ZM305 347V358Q305
375 256 394Q230 404 213 406Q211 405 209 405T205 405T202 406T198 408T194 411T189 414T183 419T178 427T173 440Q171 445 166 453Q164 468 246 518Q321 563 332 574H331Q335 580 338 584T338 588Q301 593 297 588Q291 590 269 586T245 578T222 572T194 569T181
591T172 622Q176 628 196 643T230 664Q268 674 331 671H332Q367 667 394 646T426 596Q432 566 390 524Q375 514 366 509Q343 498 322 479L315 474L283 460L333 442Q357 429 376 396Q383 385 385 382Q395 355 395 333T376 283Q324 206 213 199Q167 199 144 214T121
248T134 277T166 286Q252 265 288 307Q305 326 305 347Z" />
<glyph unicode="&#xbf;" horiz-adv-x="374" d="M374 413Q355 400 345 400T316 407Q282 428 286 453T330 499Q369 514 396 493Q436 454 374 413ZM244 -37L239 -2Q240 -2 247 0T260 4T275 6Q292 6 307 -6Q326 -31 327 -36T329 -45T330 -55T329 -68Q297 -165 235
-197L178 -227Q169 -227 145 -230Q141 -229 136 -230Q124 -231 124 -226H95Q77 -221 50 -204T12 -174Q-3 -129 16 -50T74 72Q75 73 110 105T158 151Q190 169 216 205T257 282Q276 322 307 322Q322 321 329 310T337 285Q342 258 338 248T329 226T320 205Q309 186
287 161T247 123L230 111Q230 107 216 96T192 80Q169 64 159 55Q128 23 118 -3T95 -94Q94 -126 98 -135T115 -155Q198 -170 240 -76Q248 -52 244 -37Z" />
<glyph unicode="&#xc0;" horiz-adv-x="502" d="M506 864Q525 857 548 804T572 741T567 723T552 711Q540 703 536 706T525 727Q521 735 502 764Q459 828 473 845Q497 866 506 864ZM450 323H452Q455 332 468 424T482 548L479 598Q470 598 438 551T376 443Q353 402
344 402Q337 395 314 355T296 311Q336 319 361 320Q425 337 441 330Q446 323 450 323ZM411 663Q433 693 459 693T518 669Q560 639 564 610Q565 604 565 593T565 571T563 543T560 514T557 480T554 443T542 322Q520 106 525 15Q526 8 525 -3T524 -15Q515 -25 478
-19T438 1Q433 5 433 10L442 243L429 242Q409 242 345 234T263 221Q242 221 218 178Q212 163 203 147T193 128L177 109Q177 98 158 53T119 -22L92 -60L57 -33Q41 -25 38 -16T43 14T70 70T98 124Q141 206 141 245Q137 260 156 269Q157 270 168 278Q196 299 207 318Q228
367 309 504Q357 592 411 663Z" />
<glyph unicode="&#xc1;" horiz-adv-x="502" d="M568 855Q585 865 609 827Q613 817 595 799T551 760T516 727Q506 710 501 708T483 714Q476 720 473 733T470 754T513 806T568 855ZM450 323H452Q455 332 468 424T482 548L479 598Q470 598 438 551T376 443Q353 402
344 402Q337 395 314 355T296 311Q336 319 361 320Q425 337 441 330Q446 323 450 323ZM411 663Q433 693 459 693T518 669Q560 639 564 610Q565 604 565 593T565 571T563 543T560 514T557 480T554 443T542 322Q520 106 525 15Q526 8 525 -3T524 -15Q515 -25 478
-19T438 1Q433 5 433 10L442 243L429 242Q409 242 345 234T263 221Q242 221 218 178Q212 163 203 147T193 128L177 109Q177 98 158 53T119 -22L92 -60L57 -33Q41 -25 38 -16T43 14T70 70T98 124Q141 206 141 245Q137 260 156 269Q157 270 168 278Q196 299 207 318Q228
367 309 504Q357 592 411 663Z" />
<glyph unicode="&#xc2;" horiz-adv-x="502" d="M386 731T388 740T397 758T437 796T490 835Q509 851 521 833Q537 820 565 791T603 750T599 720Q585 700 558 733Q538 757 504 786Q487 776 455 748T413 717T399 717T390 725ZM450 323H452Q455 332 468 424T482 548L479
598Q470 598 438 551T376 443Q353 402 344 402Q337 395 314 355T296 311Q336 319 361 320Q425 337 441 330Q446 323 450 323ZM411 663Q433 693 459 693T518 669Q560 639 564 610Q565 604 565 593T565 571T563 543T560 514T557 480T554 443T542 322Q520 106 525
15Q526 8 525 -3T524 -15Q515 -25 478 -19T438 1Q433 5 433 10L442 243L429 242Q409 242 345 234T263 221Q242 221 218 178Q212 163 203 147T193 128L177 109Q177 98 158 53T119 -22L92 -60L57 -33Q41 -25 38 -16T43 14T70 70T98 124Q141 206 141 245Q137 260 156
269Q157 270 168 278Q196 299 207 318Q228 367 309 504Q357 592 411 663Z" />
<glyph unicode="&#xc3;" horiz-adv-x="502" d="M650 766Q584 729 574 729T558 730T549 732T538 737T529 742T518 749T508 757T486 775T456 792T433 775T410 757Q408 744 400 741Q390 743 383 750T377 767T394 799T440 836Q453 841 474 836T505 821T524 804T536
793T545 786T556 780Q572 778 603 796T646 818T666 814T673 798T665 780T650 766ZM450 323H452Q455 332 468 424T482 548L479 598Q470 598 438 551T376 443Q353 402 344 402Q337 395 314 355T296 311Q336 319 361 320Q425 337 441 330Q446 323 450 323ZM411 663Q433
693 459 693T518 669Q560 639 564 610Q565 604 565 593T565 571T563 543T560 514T557 480T554 443T542 322Q520 106 525 15Q526 8 525 -3T524 -15Q515 -25 478 -19T438 1Q433 5 433 10L442 243L429 242Q409 242 345 234T263 221Q242 221 218 178Q212 163 203 147T193
128L177 109Q177 98 158 53T119 -22L92 -60L57 -33Q41 -25 38 -16T43 14T70 70T98 124Q141 206 141 245Q137 260 156 269Q157 270 168 278Q196 299 207 318Q228 367 309 504Q357 592 411 663Z" />
<glyph unicode="&#xc4;" horiz-adv-x="502" d="M457 828Q473 844 485 838T503 815Q511 800 509 791T493 763Q459 717 434 767Q429 777 431 782Q440 813 451 822L457 828ZM585 828Q601 844 613 838T631 815Q639 800 637 791T621 763Q587 717 562 767Q557 777 559
782Q568 813 579 822L585 828ZM450 323H452Q455 332 468 424T482 548L479 598Q470 598 438 551T376 443Q353 402 344 402Q337 395 314 355T296 311Q336 319 361 320Q425 337 441 330Q446 323 450 323ZM411 663Q433 693 459 693T518 669Q560 639 564 610Q565 604
565 593T565 571T563 543T560 514T557 480T554 443T542 322Q520 106 525 15Q526 8 525 -3T524 -15Q515 -25 478 -19T438 1Q433 5 433 10L442 243L429 242Q409 242 345 234T263 221Q242 221 218 178Q212 163 203 147T193 128L177 109Q177 98 158 53T119 -22L92 -60L57
-33Q41 -25 38 -16T43 14T70 70T98 124Q141 206 141 245Q137 260 156 269Q157 270 168 278Q196 299 207 318Q228 367 309 504Q357 592 411 663Z" />
<glyph unicode="&#xc5;" horiz-adv-x="502" d="M537 814Q499 814 499 764Q499 753 507 742T524 730Q564 730 563 772T537 814ZM461 792T480 823T532 855T585 840T606 791T585 724T528 690Q468 690 461 760Q461 792 480 823ZM450 323H452Q455 332 468 424T482 548L479
598Q470 598 438 551T376 443Q353 402 344 402Q337 395 314 355T296 311Q336 319 361 320Q425 337 441 330Q446 323 450 323ZM411 663Q433 693 459 693T518 669Q560 639 564 610Q565 604 565 593T565 571T563 543T560 514T557 480T554 443T542 322Q520 106 525
15Q526 8 525 -3T524 -15Q515 -25 478 -19T438 1Q433 5 433 10L442 243L429 242Q409 242 345 234T263 221Q242 221 218 178Q212 163 203 147T193 128L177 109Q177 98 158 53T119 -22L92 -60L57 -33Q41 -25 38 -16T43 14T70 70T98 124Q141 206 141 245Q137 260 156
269Q157 270 168 278Q196 299 207 318Q228 367 309 504Q357 592 411 663Z" />
<glyph unicode="&#xc6;" horiz-adv-x="784" d="M513 419Q562 507 571 525Q560 536 504 532Q501 537 477 512T445 476T429 454Q408 423 390 397Q314 297 332 287Q439 293 455 292Q456 296 460 300T473 328Q473 339 479 353Q494 378 494 386Q509 408 513 419ZM717
81L747 90Q755 101 762 101T779 93T797 69T806 39T689 -22Q647 -40 631 -45T575 -50T506 -45T453 -21Q382 32 416 160Q421 185 427 204H425Q406 201 271 209L255 188Q234 163 208 114T158 36Q123 -18 106 -18T78 -9Q31 13 76 67L92 88Q93 94 130 151T176 213Q197
233 178 251Q173 256 172 268T182 293T217 305Q238 315 238 319T259 355T295 402Q304 420 329 458Q336 465 349 485T369 513Q380 522 422 571Q426 578 463 622Q506 664 624 624Q679 647 746 652Q755 658 795 659T870 658Q893 658 931 640Q932 639 936 635T943 629T949
621T954 613T956 604Q956 596 943 589Q936 582 877 582T783 576T745 570Q729 564 702 564H693Q689 564 670 527T651 479T632 443Q598 396 616 385Q706 399 751 399Q776 406 795 395Q812 391 811 373T799 350Q786 336 686 313T573 292Q564 312 552 272L542 233Q524
193 520 181T508 123Q492 65 550 38Q591 30 656 47Q660 49 717 81Z" />
<glyph unicode="&#xc7;" horiz-adv-x="482" d="M264 26T269 26T283 29T298 34T316 40T333 47T352 56Q422 85 446 107Q472 126 488 126Q501 130 508 118T516 89T497 52T452 17Q441 6 403 -9Q334 -60 265 -67Q253 -77 253 -89Q259 -98 272 -114Q302 -149 306 -166Q315
-200 292 -229T236 -265T123 -245Q108 -240 102 -222T105 -192T143 -187Q208 -209 222 -202Q229 -198 233 -190Q241 -176 218 -149Q213 -144 208 -137T182 -112Q159 -79 194 -49Q145 -20 129 23T114 141Q114 230 145 310Q146 312 159 343T177 385Q194 424 237 486Q293
571 323 602T422 681Q445 698 478 702T546 690T595 636Q617 596 593 518T527 400Q497 381 457 417Q445 439 447 440T451 441Q460 452 477 483T499 529T505 554T509 571T511 583T512 593T512 600Q512 605 505 612T470 604Q421 583 353 491Q266 377 245 313L234 287Q237
271 222 241Q205 171 210 112Q215 39 246 27Q251 25 257 25Z" />
<glyph unicode="&#xc8;" horiz-adv-x="548" d="M528 864Q547 857 570 804T594 741T589 723T574 711Q562 703 558 706T547 727Q543 735 524 764Q481 828 495 845Q519 866 528 864ZM264 52L304 49Q328 49 346 57Q424 70 456 93Q461 95 465 100T474 105Q473 103 473
103T492 118T533 140T569 142T584 133Q593 117 562 78Q470 -36 258 -39Q229 -36 206 -22T177 -4T157 10T139 22Q109 52 98 110Q92 136 103 189T128 272Q150 325 225 442L231 450Q231 457 260 512Q285 539 274 554Q267 563 312 601Q332 618 354 630Q377 648 400
650T427 641Q436 638 460 643T493 650Q500 659 560 666L630 668Q637 670 650 659T671 631T660 600T590 580T499 566T443 554T423 550T408 546T393 538Q377 523 366 506Q357 500 326 438Q319 428 295 396T275 357Q302 351 307 351Q315 355 355 362Q491 397 511 400Q524
410 538 399T561 365T552 330T467 304T362 278T304 263T266 257T241 260T234 274Q223 279 209 249Q184 196 184 141Q184 126 187 118Q204 69 264 52Z" />
<glyph unicode="&#xc9;" horiz-adv-x="548" d="M590 855Q607 865 631 827Q635 817 617 799T573 760T538 727Q528 710 523 708T505 714Q498 720 495 733T492 754T535 806T590 855ZM264 52L304 49Q328 49 346 57Q424 70 456 93Q461 95 465 100T474 105Q473 103 473
103T492 118T533 140T569 142T584 133Q593 117 562 78Q470 -36 258 -39Q229 -36 206 -22T177 -4T157 10T139 22Q109 52 98 110Q92 136 103 189T128 272Q150 325 225 442L231 450Q231 457 260 512Q285 539 274 554Q267 563 312 601Q332 618 354 630Q377 648 400
650T427 641Q436 638 460 643T493 650Q500 659 560 666L630 668Q637 670 650 659T671 631T660 600T590 580T499 566T443 554T423 550T408 546T393 538Q377 523 366 506Q357 500 326 438Q319 428 295 396T275 357Q302 351 307 351Q315 355 355 362Q491 397 511 400Q524
410 538 399T561 365T552 330T467 304T362 278T304 263T266 257T241 260T234 274Q223 279 209 249Q184 196 184 141Q184 126 187 118Q204 69 264 52Z" />
<glyph unicode="&#xca;" horiz-adv-x="548" d="M448 731T450 740T459 758T499 796T552 835Q571 851 583 833Q599 820 627 791T665 750T661 720Q647 700 620 733Q600 757 566 786Q549 776 517 748T475 717T461 717T452 725ZM264 52L304 49Q328 49 346 57Q424 70
456 93Q461 95 465 100T474 105Q473 103 473 103T492 118T533 140T569 142T584 133Q593 117 562 78Q470 -36 258 -39Q229 -36 206 -22T177 -4T157 10T139 22Q109 52 98 110Q92 136 103 189T128 272Q150 325 225 442L231 450Q231 457 260 512Q285 539 274 554Q267
563 312 601Q332 618 354 630Q377 648 400 650T427 641Q436 638 460 643T493 650Q500 659 560 666L630 668Q637 670 650 659T671 631T660 600T590 580T499 566T443 554T423 550T408 546T393 538Q377 523 366 506Q357 500 326 438Q319 428 295 396T275 357Q302 351
307 351Q315 355 355 362Q491 397 511 400Q524 410 538 399T561 365T552 330T467 304T362 278T304 263T266 257T241 260T234 274Q223 279 209 249Q184 196 184 141Q184 126 187 118Q204 69 264 52Z" />
<glyph unicode="&#xcb;" horiz-adv-x="548" d="M479 828Q495 844 507 838T525 815Q533 800 531 791T515 763Q481 717 456 767Q451 777 453 782Q462 813 473 822L479 828ZM607 828Q623 844 635 838T653 815Q661 800 659 791T643 763Q609 717 584 767Q579 777 581
782Q590 813 601 822L607 828ZM264 52L304 49Q328 49 346 57Q424 70 456 93Q461 95 465 100T474 105Q473 103 473 103T492 118T533 140T569 142T584 133Q593 117 562 78Q470 -36 258 -39Q229 -36 206 -22T177 -4T157 10T139 22Q109 52 98 110Q92 136 103 189T128
272Q150 325 225 442L231 450Q231 457 260 512Q285 539 274 554Q267 563 312 601Q332 618 354 630Q377 648 400 650T427 641Q436 638 460 643T493 650Q500 659 560 666L630 668Q637 670 650 659T671 631T660 600T590 580T499 566T443 554T423 550T408 546T393 538Q377
523 366 506Q357 500 326 438Q319 428 295 396T275 357Q302 351 307 351Q315 355 355 362Q491 397 511 400Q524 410 538 399T561 365T552 330T467 304T362 278T304 263T266 257T241 260T234 274Q223 279 209 249Q184 196 184 141Q184 126 187 118Q204 69 264 52Z"
/>
<glyph unicode="&#xcc;" horiz-adv-x="400" d="M426 864Q446 857 469 804T493 741T488 723T473 711Q461 703 457 706T446 727Q442 735 422 764Q380 828 394 845Q418 866 426 864ZM235 -27T235 -37T226 -53T203 -56T177 -41Q164 -23 101 -26Q80 -29 59 -19T41 4Q42
17 70 30T139 45L181 46Q194 71 198 91T206 123T224 180Q257 282 261 302Q276 334 294 409Q340 549 332 552Q322 553 279 549T231 541Q226 534 214 543T199 563Q195 585 205 591Q215 600 256 611T336 626T395 648Q416 655 430 654Q442 646 499 650Q591 659 607
624Q612 605 605 593T581 581Q563 576 514 575Q448 569 443 561Q440 558 436 552T430 544Q431 535 420 501T396 428Q364 330 357 316Q356 312 281 47Q306 49 362 54T423 57T431 43Q451 16 428 -2T350 -19Q271 -22 253 -24Z" />
<glyph unicode="&#xcd;" horiz-adv-x="400" d="M489 855Q506 865 530 827Q534 817 516 799T472 760T437 727Q427 710 422 708T404 714Q397 720 394 733T391 754T434 806T489 855ZM235 -27T235 -37T226 -53T203 -56T177 -41Q164 -23 101 -26Q80 -29 59 -19T41 4Q42
17 70 30T139 45L181 46Q194 71 198 91T206 123T224 180Q257 282 261 302Q276 334 294 409Q340 549 332 552Q322 553 279 549T231 541Q226 534 214 543T199 563Q195 585 205 591Q215 600 256 611T336 626T395 648Q416 655 430 654Q442 646 499 650Q591 659 607
624Q612 605 605 593T581 581Q563 576 514 575Q448 569 443 561Q440 558 436 552T430 544Q431 535 420 501T396 428Q364 330 357 316Q356 312 281 47Q306 49 362 54T423 57T431 43Q451 16 428 -2T350 -19Q271 -22 253 -24Z" />
<glyph unicode="&#xce;" horiz-adv-x="400" d="M347 731T349 740T358 758T398 796T451 835Q470 851 482 833Q498 820 526 791T564 750T560 720Q546 700 519 733Q499 757 465 786Q448 776 416 748T374 717T360 717T351 725ZM235 -27T235 -37T226 -53T203 -56T177
-41Q164 -23 101 -26Q80 -29 59 -19T41 4Q42 17 70 30T139 45L181 46Q194 71 198 91T206 123T224 180Q257 282 261 302Q276 334 294 409Q340 549 332 552Q322 553 279 549T231 541Q226 534 214 543T199 563Q195 585 205 591Q215 600 256 611T336 626T395 648Q416
655 430 654Q442 646 499 650Q591 659 607 624Q612 605 605 593T581 581Q563 576 514 575Q448 569 443 561Q440 558 436 552T430 544Q431 535 420 501T396 428Q364 330 357 316Q356 312 281 47Q306 49 362 54T423 57T431 43Q451 16 428 -2T350 -19Q271 -22 253
-24Z" />
<glyph unicode="&#xcf;" horiz-adv-x="400" d="M378 828Q394 844 406 838T424 815Q432 800 430 791T414 763Q380 717 355 767Q350 777 352 782Q361 813 372 822L378 828ZM506 828Q522 844 534 838T552 815Q560 800 558 791T542 763Q508 717 483 767Q478 777 480
782Q489 813 500 822L506 828ZM235 -27T235 -37T226 -53T203 -56T177 -41Q164 -23 101 -26Q80 -29 59 -19T41 4Q42 17 70 30T139 45L181 46Q194 71 198 91T206 123T224 180Q257 282 261 302Q276 334 294 409Q340 549 332 552Q322 553 279 549T231 541Q226 534 214
543T199 563Q195 585 205 591Q215 600 256 611T336 626T395 648Q416 655 430 654Q442 646 499 650Q591 659 607 624Q612 605 605 593T581 581Q563 576 514 575Q448 569 443 561Q440 558 436 552T430 544Q431 535 420 501T396 428Q364 330 357 316Q356 312 281 47Q306
49 362 54T423 57T431 43Q451 16 428 -2T350 -19Q271 -22 253 -24Z" />
<glyph unicode="&#xd0;" horiz-adv-x="578" d="M177 -6Q176 -10 176 -15Q194 -23 207 -21T243 -18Q296 -16 312 -3Q367 33 417 76Q419 81 438 88Q443 93 468 119T498 149Q499 154 501 162T504 175Q516 188 540 237T573 323Q609 480 508 567Q487 585 440 606T387
626T376 609T358 564T337 505T311 432T285 360Q327 359 350 340Q365 325 357 309T327 295L262 291Q241 226 241 224Q212 179 198 72Q196 63 194 53T190 36T187 22T184 10T181 1Q179 -6 177 -6ZM157 346L192 353Q220 448 236 478Q238 483 243 501Q255 545 272 588L279
621L268 626Q250 620 241 626Q232 623 217 636T199 659L196 676Q198 688 256 701T365 711T492 679Q544 659 599 603T669 485Q675 463 677 429T673 382T675 365Q673 361 667 339T657 309Q654 273 634 221T595 137Q589 136 588 133Q588 128 577 114Q574 112 565 100T551
84Q550 77 545 73T536 68Q536 65 533 64Q515 38 462 -7T371 -68Q366 -72 329 -89Q323 -95 271 -99T208 -106Q170 -112 104 -94Q89 -91 82 -83T74 -74T68 -66T60 -56Q43 -34 47 -4T78 30Q85 31 97 26Q97 54 102 75T171 286Q156 286 142 291Q117 291 106 310Q96 325
108 333T157 346Z" />
<glyph unicode="&#xd1;" horiz-adv-x="566" d="M625 766Q559 729 549 729T533 730T524 732T513 737T504 742T493 749T483 757T461 775T431 792T408 775T385 757Q383 744 375 741Q365 743 358 750T352 767T369 799T415 836Q428 841 449 836T480 821T499 804T511
793T520 786T530 780Q547 778 578 796T621 818T641 814T648 798T640 780T625 766ZM459 63Q486 63 557 350Q574 407 583 482Q615 603 615 616V638Q619 638 623 651T628 684T642 718Q658 745 687 736T720 705T693 550Q693 538 681 484T664 406Q654 341 646 343Q605
167 541 21Q516 -36 480 -50T410 -24Q380 15 366 55T343 172Q322 305 324 401T316 498Q307 498 290 447T247 333T220 265Q202 229 193 192Q153 86 135 18T110 -69T95 -93T61 -85T31 -44T36 11Q43 38 62 83T89 170Q123 249 144 315Q145 320 194 427Q232 535 290
623Q308 653 345 649T392 615Q412 569 414 417Q414 374 415 355T418 306Q420 257 431 215Q433 201 438 158Q450 63 459 63Z" />
<glyph unicode="&#xd2;" horiz-adv-x="496" d="M500 864Q520 857 543 804T567 741T562 723T547 711Q535 703 531 706T520 727Q516 735 496 764Q454 828 468 845Q492 866 500 864ZM230 38Q249 28 272 31T313 47T381 119T453 212T493 321T515 407T515 488Q513 536
498 553Q465 588 422 574Q393 562 337 497T282 413Q282 405 277 398Q251 370 224 280Q190 164 194 96Q195 56 230 38ZM397 649Q444 677 462 670Q585 643 609 514Q626 432 613 365T535 193Q457 39 353 -22T183 -35Q104 23 101 61Q95 116 115 216Q121 222 120 231T122
251T131 280T141 320Q186 456 252 543Q320 613 397 649Z" />
<glyph unicode="&#xd3;" horiz-adv-x="496" d="M563 855Q580 865 604 827Q608 817 590 799T546 760T511 727Q501 710 496 708T478 714Q471 720 468 733T465 754T508 806T563 855ZM230 38Q249 28 272 31T313 47T381 119T453 212T493 321T515 407T515 488Q513 536
498 553Q465 588 422 574Q393 562 337 497T282 413Q282 405 277 398Q251 370 224 280Q190 164 194 96Q195 56 230 38ZM397 649Q444 677 462 670Q585 643 609 514Q626 432 613 365T535 193Q457 39 353 -22T183 -35Q104 23 101 61Q95 116 115 216Q121 222 120 231T122
251T131 280T141 320Q186 456 252 543Q320 613 397 649Z" />
<glyph unicode="&#xd4;" horiz-adv-x="496" d="M421 731T423 740T432 758T472 796T525 835Q544 851 556 833Q572 820 600 791T638 750T634 720Q620 700 593 733Q573 757 539 786Q522 776 490 748T448 717T434 717T425 725ZM230 38Q249 28 272 31T313 47T381 119T453
212T493 321T515 407T515 488Q513 536 498 553Q465 588 422 574Q393 562 337 497T282 413Q282 405 277 398Q251 370 224 280Q190 164 194 96Q195 56 230 38ZM397 649Q444 677 462 670Q585 643 609 514Q626 432 613 365T535 193Q457 39 353 -22T183 -35Q104 23 101
61Q95 116 115 216Q121 222 120 231T122 251T131 280T141 320Q186 456 252 543Q320 613 397 649Z" />
<glyph unicode="&#xd5;" horiz-adv-x="496" d="M645 766Q579 729 569 729T553 730T544 732T533 737T524 742T513 749T503 757T481 775T451 792T428 775T405 757Q403 744 395 741Q385 743 378 750T372 767T389 799T435 836Q448 841 469 836T500 821T519 804T531
793T540 786T550 780Q567 778 598 796T641 818T661 814T668 798T660 780T645 766ZM230 38Q249 28 272 31T313 47T381 119T453 212T493 321T515 407T515 488Q513 536 498 553Q465 588 422 574Q393 562 337 497T282 413Q282 405 277 398Q251 370 224 280Q190 164
194 96Q195 56 230 38ZM397 649Q444 677 462 670Q585 643 609 514Q626 432 613 365T535 193Q457 39 353 -22T183 -35Q104 23 101 61Q95 116 115 216Q121 222 120 231T122 251T131 280T141 320Q186 456 252 543Q320 613 397 649Z" />
<glyph unicode="&#xd6;" horiz-adv-x="496" d="M452 828Q468 844 480 838T498 815Q506 800 504 791T488 763Q454 717 429 767Q424 777 426 782Q435 813 446 822L452 828ZM580 828Q596 844 608 838T626 815Q634 800 632 791T616 763Q582 717 557 767Q552 777 554
782Q563 813 574 822L580 828ZM230 38Q249 28 272 31T313 47T381 119T453 212T493 321T515 407T515 488Q513 536 498 553Q465 588 422 574Q393 562 337 497T282 413Q282 405 277 398Q251 370 224 280Q190 164 194 96Q195 56 230 38ZM397 649Q444 677 462 670Q585
643 609 514Q626 432 613 365T535 193Q457 39 353 -22T183 -35Q104 23 101 61Q95 116 115 216Q121 222 120 231T122 251T131 280T141 320Q186 456 252 543Q320 613 397 649Z" />
<glyph unicode="&#xd7;" horiz-adv-x="446" d="M289 258Q312 283 349 320T411 357T443 340T431 310L379 250L340 209Q383 169 407 145Q419 135 428 117Q447 100 440 77Q436 42 378 88Q360 100 293 159L228 93Q218 81 200 72Q183 54 160 61Q125 65 171 122Q185
144 241 207L183 263Q144 302 144 328T160 360T191 348Q206 333 250 296Q251 294 256 289Q273 274 289 258Z" />
<glyph unicode="&#xd8;" horiz-adv-x="496" d="M271 398Q246 372 221 291T189 140Q337 370 354 387Q358 386 363 391T373 412T390 430Q391 433 396 440T401 449T406 456T411 464Q434 487 487 557Q458 589 416 574Q387 562 331 497T276 413Q276 405 271 398ZM428
369Q424 371 421 362L420 360Q420 352 389 314Q288 166 210 46Q235 27 262 31T307 47T375 119T447 212T493 338Q495 344 502 372T510 417T510 448T509 473Q496 460 468 423T439 384T436 378Q433 370 428 369ZM122 -101Q77 -99 84 -50Q88 -21 114 21Q97 41 95 61Q89
116 109 216Q115 222 114 231T116 251T125 280T135 320Q180 456 246 543Q314 613 391 649Q438 677 456 670Q505 659 541 629Q580 684 582 690Q586 705 603 699Q606 701 620 701T639 700Q641 694 651 678T648 632Q642 615 633 608Q603 580 588 565Q597 542 603 514Q620
432 607 365T529 193Q451 39 347 -22T177 -35L165 -26Q147 -56 144 -64Q134 -99 122 -101Z" />
<glyph unicode="&#xd9;" horiz-adv-x="482" d="M486 864Q505 857 528 804T552 741T547 723T532 711Q520 703 516 706T505 727Q501 735 482 764Q439 828 453 845Q477 866 486 864ZM355 93T384 135T414 184T427 206Q445 224 515 371Q576 566 582 595T599 657Q612
668 625 663T645 654T659 646T669 640Q678 629 673 607Q647 484 630 438T601 361T582 316T560 265T538 216V210Q526 203 516 185T502 164L493 141Q492 135 481 129T468 115T464 106Q430 55 377 8T290 -52T229 -60Q150 -40 128 39T138 275Q153 348 189 449T265 620T338
684T382 649T368 604Q356 591 334 548T304 490Q242 312 226 222Q208 139 206 124T203 81Q205 77 208 71T213 62T218 54Q221 49 229 46Q265 29 302 50Q308 61 323 68Q326 64 327 65T331 72Q330 77 340 87Q355 93 384 135Z" />
<glyph unicode="&#xda;" horiz-adv-x="482" d="M548 855Q565 865 589 827Q593 817 575 799T531 760T496 727Q486 710 481 708T463 714Q456 720 453 733T450 754T493 806T548 855ZM355 93T384 135T414 184T427 206Q445 224 515 371Q576 566 582 595T599 657Q612
668 625 663T645 654T659 646T669 640Q678 629 673 607Q647 484 630 438T601 361T582 316T560 265T538 216V210Q526 203 516 185T502 164L493 141Q492 135 481 129T468 115T464 106Q430 55 377 8T290 -52T229 -60Q150 -40 128 39T138 275Q153 348 189 449T265 620T338
684T382 649T368 604Q356 591 334 548T304 490Q242 312 226 222Q208 139 206 124T203 81Q205 77 208 71T213 62T218 54Q221 49 229 46Q265 29 302 50Q308 61 323 68Q326 64 327 65T331 72Q330 77 340 87Q355 93 384 135Z" />
<glyph unicode="&#xdb;" horiz-adv-x="482" d="M406 731T408 740T417 758T457 796T510 835Q529 851 541 833Q557 820 585 791T623 750T619 720Q605 700 578 733Q558 757 524 786Q507 776 475 748T433 717T419 717T410 725ZM355 93T384 135T414 184T427 206Q445
224 515 371Q576 566 582 595T599 657Q612 668 625 663T645 654T659 646T669 640Q678 629 673 607Q647 484 630 438T601 361T582 316T560 265T538 216V210Q526 203 516 185T502 164L493 141Q492 135 481 129T468 115T464 106Q430 55 377 8T290 -52T229 -60Q150
-40 128 39T138 275Q153 348 189 449T265 620T338 684T382 649T368 604Q356 591 334 548T304 490Q242 312 226 222Q208 139 206 124T203 81Q205 77 208 71T213 62T218 54Q221 49 229 46Q265 29 302 50Q308 61 323 68Q326 64 327 65T331 72Q330 77 340 87Q355 93
384 135Z" />
<glyph unicode="&#xdc;" horiz-adv-x="482" d="M565 828Q581 844 593 838T611 815Q619 800 617 791T601 763Q567 717 542 767Q537 777 539 782Q548 813 559 822L565 828ZM437 828Q453 844 465 838T483 815Q491 800 489 791T473 763Q439 717 414 767Q409 777 411
782Q420 813 431 822L437 828ZM355 93T384 135T414 184T427 206Q445 224 515 371Q576 566 582 595T599 657Q612 668 625 663T645 654T659 646T669 640Q678 629 673 607Q647 484 630 438T601 361T582 316T560 265T538 216V210Q526 203 516 185T502 164L493 141Q492
135 481 129T468 115T464 106Q430 55 377 8T290 -52T229 -60Q150 -40 128 39T138 275Q153 348 189 449T265 620T338 684T382 649T368 604Q356 591 334 548T304 490Q242 312 226 222Q208 139 206 124T203 81Q205 77 208 71T213 62T218 54Q221 49 229 46Q265 29 302
50Q308 61 323 68Q326 64 327 65T331 72Q330 77 340 87Q355 93 384 135Z" />
<glyph unicode="&#xdd;" horiz-adv-x="504" d="M545 856Q562 866 586 828Q590 818 572 800T528 761T493 728Q483 711 478 709T460 715Q453 721 450 734T447 755T490 807T545 856ZM210 -29T210 -25T211 -17T214 -8T217 3T220 16T224 31Q226 91 254 142Q254 173
285 247L296 281Q239 355 230 423Q215 474 221 585Q221 612 228 630Q239 662 248 680Q277 705 293 675T308 595Q314 393 348 365Q352 361 359 364T369 367T380 376T393 389T410 408T442 442T504 513Q609 636 635 648Q646 653 664 658Q670 656 673 644T679 627T686
618Q696 606 696 600T653 551Q631 532 583 482T507 397Q416 292 386 265Q386 263 381 263Q374 240 365 197Q359 177 348 141Q333 89 316 37Q298 -31 285 -56T258 -76Q252 -75 219 -52Q210 -43 210 -36Z" />
<glyph unicode="&#xde;" horiz-adv-x="472" d="M478 376T484 416T480 470T449 487Q409 495 367 471Q352 465 300 345T252 209Q297 208 328 223Q387 252 458 349Q478 376 484 416ZM233 414Q233 421 246 439Q246 457 257 465Q263 490 259 493Q250 519 275 520Q280
520 285 530T293 542Q345 678 345 689T358 704T383 709Q388 714 399 714L415 698Q426 688 426 672V652Q426 641 421 629T412 612Q405 595 393 571L426 577Q466 577 498 570Q532 554 555 523T581 467T562 374T521 292Q531 293 507 269T474 242Q464 219 447 210Q409
186 400 172Q400 183 382 168Q376 163 374 162Q329 135 287 127Q280 121 251 121L217 126L201 84Q196 63 186 28T172 -26T159 -60T139 -83T123 -87Q122 -87 116 -84T107 -80T97 -75T86 -68Q77 -60 77 -52Q71 -41 94 39Q146 217 151 216Q156 243 167 257Q169 272
178 295T196 327Q196 338 213 376T233 414Z" />
<glyph unicode="&#xdf;" horiz-adv-x="398" d="M405 341Q399 341 391 325T387 300L382 294Q376 294 377 287T380 275T385 264T390 252T396 241T401 232Q412 231 430 183Q431 166 433 147T437 114Q433 71 400 42Q360 7 302 7Q290 7 273 12T251 19Q223 29 208 53T204
97Q207 102 213 102L224 103Q265 103 273 99T284 95Q289 95 296 104L322 107Q323 107 323 112T323 117T329 119T338 125T341 137Q339 168 322 190Q308 226 290 250T268 280Q260 288 278 321Q278 323 320 373T365 430Q382 440 398 455T414 475Q409 489 428 513Q443
539 445 546T444 570Q406 593 360 539Q331 503 327 502Q304 472 273 413T225 303Q229 296 223 281T207 258V221L201 204Q194 204 194 203Q191 181 178 147T161 98T151 38Q112 -78 122 -108Q111 -147 111 -189T79 -229Q62 -225 44 -209T22 -176V-139Q29 -127 27
-76Q36 -54 36 -32Q62 75 73 109Q83 157 114 237Q112 250 124 283T151 338Q157 374 177 414Q174 418 176 439Q191 448 193 461Q193 464 230 513T287 586Q345 642 376 649T448 656Q456 657 484 640T519 606Q534 571 526 524Q517 464 473 415Q457 397 452 397Q437
385 430 367Q425 362 416 352T405 341Z" />
<glyph unicode="&#xe0;" horiz-adv-x="437" d="M418 477T418 467T399 438Q377 418 367 418T352 448Q349 459 324 503T298 562T315 591T344 605Q365 605 391 541ZM324 310Q287 310 202 167Q187 143 175 104Q191 102 237 140Q246 148 261 161T284 180T302 196Q321
215 336 237L358 273Q341 310 324 310ZM89 49Q89 58 76 74Q61 89 138 230Q144 236 153 251T166 268Q166 272 169 275T176 279L184 295Q188 304 223 338T279 385T322 397T360 383Q362 380 373 372Q392 357 458 298L441 248Q418 182 453 126Q463 105 487 101T511
79Q511 38 484 32Q406 21 367 96Q353 115 349 140Q342 130 326 114Q190 -24 120 21Q117 27 103 37T89 49Z" />
<glyph unicode="&#xe1;" horiz-adv-x="437" d="M371 478L372 488Q374 497 415 541T470 590Q478 594 485 596Q498 596 510 582T523 545Q523 531 480 496T426 445T401 430Q371 430 371 478ZM324 310Q287 310 202 167Q187 143 175 104Q191 102 237 140Q246 148 261
161T284 180T302 196Q321 215 336 237L358 273Q341 310 324 310ZM89 49Q89 58 76 74Q61 89 138 230Q144 236 153 251T166 268Q166 272 169 275T176 279L184 295Q188 304 223 338T279 385T322 397T360 383Q362 380 373 372Q392 357 458 298L441 248Q418 182 453
126Q463 105 487 101T511 79Q511 38 484 32Q406 21 367 96Q353 115 349 140Q342 130 326 114Q190 -24 120 21Q117 27 103 37T89 49Z" />
<glyph unicode="&#xe2;" horiz-adv-x="437" d="M258 483Q266 493 303 526Q367 581 389 578Q402 576 409 566Q425 553 453 524T488 488Q502 473 495 453T471 429T435 444Q415 468 381 497Q340 474 301 441Q277 417 259 439T258 483ZM324 310Q287 310 202 167Q187
143 175 104Q191 102 237 140Q246 148 261 161T284 180T302 196Q321 215 336 237L358 273Q341 310 324 310ZM89 49Q89 58 76 74Q61 89 138 230Q144 236 153 251T166 268Q166 272 169 275T176 279L184 295Q188 304 223 338T279 385T322 397T360 383Q362 380 373
372Q392 357 458 298L441 248Q418 182 453 126Q463 105 487 101T511 79Q511 38 484 32Q406 21 367 96Q353 115 349 140Q342 130 326 114Q190 -24 120 21Q117 27 103 37T89 49Z" />
<glyph unicode="&#xe3;" horiz-adv-x="437" d="M511 457Q437 416 431 416T418 417T409 419T398 424T389 429T378 436T368 444T346 462T316 479T293 462T270 444Q268 431 260 428Q258 428 257 429Q227 434 227 464Q227 477 244 502T292 543Q333 558 361 533T405
499T438 499Q449 502 474 514T510 531T531 521T539 496Q539 472 511 457ZM324 310Q287 310 202 167Q187 143 175 104Q191 102 237 140Q246 148 261 161T284 180T302 196Q321 215 336 237L358 273Q341 310 324 310ZM89 49Q89 58 76 74Q61 89 138 230Q144 236 153
251T166 268Q166 272 169 275T176 279L184 295Q188 304 223 338T279 385T322 397T360 383Q362 380 373 372Q392 357 458 298L441 248Q418 182 453 126Q463 105 487 101T511 79Q511 38 484 32Q406 21 367 96Q353 115 349 140Q342 130 326 114Q190 -24 120 21Q117
27 103 37T89 49Z" />
<glyph unicode="&#xe4;" horiz-adv-x="437" d="M465 548Q494 569 519 524Q529 500 526 486T499 445Q465 399 434 429Q425 437 419 453T415 476Q423 513 447 533Q449 534 452 538Q460 548 465 548ZM310 548Q339 569 364 524Q374 500 371 486T344 445Q310 399 279
429Q270 437 264 453T260 476Q268 513 292 533Q294 534 297 538Q304 548 310 548ZM324 310Q287 310 202 167Q187 143 175 104Q191 102 237 140Q246 148 261 161T284 180T302 196Q321 215 336 237L358 273Q341 310 324 310ZM89 49Q89 58 76 74Q61 89 138 230Q144
236 153 251T166 268Q166 272 169 275T176 279L184 295Q188 304 223 338T279 385T322 397T360 383Q362 380 373 372Q392 357 458 298L441 248Q418 182 453 126Q463 105 487 101T511 79Q511 38 484 32Q406 21 367 96Q353 115 349 140Q342 130 326 114Q190 -24 120
21Q117 27 103 37T89 49Z" />
<glyph unicode="&#xe5;" horiz-adv-x="437" d="M416 529Q383 529 383 487Q383 478 390 468T404 458Q438 458 438 498Q436 529 416 529ZM328 516T350 552T409 589T470 572T494 515T469 438T405 400Q337 400 328 479Q328 516 350 552ZM324 310Q287 310 202 167Q187
143 175 104Q191 102 237 140Q246 148 261 161T284 180T302 196Q321 215 336 237L358 273Q341 310 324 310ZM89 49Q89 58 76 74Q61 89 138 230Q144 236 153 251T166 268Q166 272 169 275T176 279L184 295Q188 304 223 338T279 385T322 397T360 383Q362 380 373
372Q392 357 458 298L441 248Q418 182 453 126Q463 105 487 101T511 79Q511 38 484 32Q406 21 367 96Q353 115 349 140Q342 130 326 114Q190 -24 120 21Q117 27 103 37T89 49Z" />
<glyph unicode="&#xe6;" horiz-adv-x="574" d="M538 324Q525 324 501 303T458 253Q460 241 491 241T530 245T560 270T582 299Q582 321 549 324H538ZM319 310Q296 310 252 254T169 104Q195 103 238 145Q252 159 272 176Q313 210 330 237L352 273Q335 310 319 310ZM545
397Q603 397 630 370T658 316V307Q656 293 656 286Q640 246 604 209T510 172Q491 172 472 176T447 181Q423 181 423 143Q423 83 469 83Q513 83 552 120Q565 133 575 133T598 121T611 98Q608 75 565 38T467 0T376 32T341 124V137Q225 10 153 10Q133 10 118 19Q116
23 107 30Q83 47 83 49Q83 54 76 66T69 82Q69 111 122 210L138 236Q146 244 152 255T161 273T170 279L180 298Q195 326 243 361T314 396T354 383L417 328Q450 366 484 381T545 397Z" />
<glyph unicode="&#xe7;" horiz-adv-x="355" d="M384 263T373 245T352 227T342 222T332 216T310 220T296 232Q296 237 303 268T305 309T280 311Q243 290 225 257T193 172T180 108Q182 89 189 85Q219 77 242 89T303 130Q305 131 311 141T324 154Q332 167 348 167H369Q387
161 398 143Q402 134 398 131L393 126Q397 118 358 79T308 39T297 33Q297 29 267 15T217 -4H213Q209 -9 209 -17Q215 -26 228 -42Q258 -77 262 -94Q271 -128 248 -157T192 -193T79 -173Q64 -168 58 -150T61 -120T99 -115Q164 -137 178 -130Q185 -126 189 -118Q197
-104 174 -77Q169 -72 163 -65T138 -40Q119 -13 138 11Q94 38 94 88Q89 134 110 203T166 314Q217 375 245 386T305 398Q360 385 360 364L365 359Q374 359 385 328T388 282Q384 263 373 245Z" />
<glyph unicode="&#xe8;" horiz-adv-x="325" d="M289 324Q276 324 252 303T209 253Q211 241 242 241T281 245T310 270T332 299Q332 321 300 324H289ZM360 477T360 467T341 438Q319 418 309 418T294 448Q291 459 266 503T240 562T257 591T286 605Q307 605 333 541ZM296
397Q355 397 382 369T409 315V307Q409 286 381 238Q367 213 338 194T280 173T225 176T192 181T181 174Q174 163 174 133Q177 105 189 94T220 83T254 90T291 115T325 133T349 121T362 98Q359 75 316 38T217 0T127 32T92 123Q92 146 94 172T112 236T160 318T231 379T296
397Z" />
<glyph unicode="&#xe9;" horiz-adv-x="325" d="M289 324Q276 324 252 303T209 253Q211 241 242 241T281 245T310 270T332 299Q332 321 300 324H289ZM313 478L314 488Q316 497 357 541T412 590Q420 594 427 596Q440 596 452 582T465 545Q465 531 422 496T368 445T343
430Q313 430 313 478ZM296 397Q355 397 382 369T409 315V307Q409 286 381 238Q367 213 338 194T280 173T225 176T192 181T181 174Q174 163 174 133Q177 105 189 94T220 83T254 90T291 115T325 133T349 121T362 98Q359 75 316 38T217 0T127 32T92 123Q92 146 94
172T112 236T160 318T231 379T296 397Z" />
<glyph unicode="&#xea;" horiz-adv-x="325" d="M289 324Q276 324 252 303T209 253Q211 241 242 241T281 245T310 270T332 299Q332 321 300 324H289ZM200 483Q208 493 245 526Q309 581 331 578Q344 576 351 566Q367 553 395 524T430 488Q444 473 437 453T413 429T377
444Q357 468 323 497Q282 474 243 441Q219 417 201 439T200 483ZM296 397Q355 397 382 369T409 315V307Q409 286 381 238Q367 213 338 194T280 173T225 176T192 181T181 174Q174 163 174 133Q177 105 189 94T220 83T254 90T291 115T325 133T349 121T362 98Q359
75 316 38T217 0T127 32T92 123Q92 146 94 172T112 236T160 318T231 379T296 397Z" />
<glyph unicode="&#xeb;" horiz-adv-x="325" d="M289 324Q276 324 252 303T209 253Q211 241 242 241T281 245T310 270T332 299Q332 321 300 324H289ZM252 548Q281 569 306 524Q316 500 313 486T286 445Q252 399 221 429Q212 437 206 453T202 476Q210 513 234 533Q236
534 239 538Q246 548 252 548ZM407 548Q436 569 461 524Q471 500 468 486T441 445Q407 399 376 429Q367 437 361 453T357 476Q365 513 389 533Q391 534 394 538Q401 548 407 548ZM296 397Q355 397 382 369T409 315V307Q409 286 381 238Q367 213 338 194T280 173T225
176T192 181T181 174Q174 163 174 133Q177 105 189 94T220 83T254 90T291 115T325 133T349 121T362 98Q359 75 316 38T217 0T127 32T92 123Q92 146 94 172T112 236T160 318T231 379T296 397Z" />
<glyph unicode="&#xec;" horiz-adv-x="187" d="M91 96L95 117Q94 123 103 150Q125 200 159 313Q159 325 175 326Q186 330 203 317T231 286Q244 273 229 239T207 171Q195 144 191 132T182 91T171 53Q162 14 140 5T100 17Q89 28 87 56T91 96ZM279 477T279 467T260
438Q238 418 228 418T213 448Q210 459 185 503T159 562T176 591T204 605Q226 605 252 541Z" />
<glyph unicode="&#xed;" horiz-adv-x="187" d="M91 96L95 117Q94 123 103 150Q125 200 159 313Q159 325 175 326Q186 330 203 317T231 286Q244 273 229 239T207 171Q195 144 191 132T182 91T171 53Q162 14 140 5T100 17Q89 28 87 56T91 96ZM222 478L223 488Q225
497 266 541T321 590Q328 594 336 596Q349 596 361 582T374 545Q374 531 331 496T277 445T252 430Q222 430 222 478Z" />
<glyph unicode="&#xee;" horiz-adv-x="187" d="M129 483Q137 493 174 526Q238 581 260 578Q273 576 280 566Q296 553 324 524T359 488Q373 473 366 453T342 429T306 444Q286 468 252 497Q211 474 172 441Q148 417 130 439T129 483ZM91 96L95 117Q94 123 103 150Q125
200 159 313Q159 325 175 326Q186 330 203 317T231 286Q244 273 229 239T207 171Q195 144 191 132T182 91T171 53Q162 14 140 5T100 17Q89 28 87 56T91 96Z" />
<glyph unicode="&#xef;" horiz-adv-x="187" d="M91 96L95 117Q94 123 103 150Q125 200 159 313Q159 325 175 326Q186 330 203 317T231 286Q244 273 229 239T207 171Q195 144 191 132T182 91T171 53Q162 14 140 5T100 17Q89 28 87 56T91 96ZM326 548Q355 569 380
524Q390 500 387 486T360 445Q326 399 295 429Q286 437 280 453T276 476Q284 513 308 533Q310 534 313 538Q320 548 326 548ZM171 548Q200 569 225 524Q235 500 232 486T205 445Q171 399 140 429Q131 437 125 453T121 476Q129 513 153 533Q155 534 158 538Q165
548 171 548Z" />
<glyph unicode="&#xf0;" horiz-adv-x="349" d="M323 226Q336 295 324 301Q292 319 258 283Q230 257 215 227T175 136Q160 94 186 85T256 124Q263 134 280 154Q310 190 323 226ZM317 458Q278 446 252 449Q229 443 212 460Q186 484 255 506L289 521L266 556Q259
563 248 572Q227 592 221 604Q220 608 241 626T270 645Q276 649 292 639T314 623Q318 627 336 604Q367 562 376 546Q435 560 457 546T475 515T447 496L403 483Q428 401 419 306T368 138Q336 83 274 39T180 -8Q163 -11 141 8Q118 30 101 56T86 94Q89 109 85 122Q80
127 82 130T86 134Q92 135 90 144T96 185Q111 231 139 272T185 327Q227 369 281 387Q302 393 308 392T322 383T333 375Q326 429 317 458Z" />
<glyph unicode="&#xf1;" horiz-adv-x="450" d="M517 457Q443 416 437 416T424 417T415 419T404 424T395 429T384 436T374 444T352 462T322 479T299 462T276 444Q274 431 266 428Q264 428 263 429Q233 434 233 464Q233 477 250 502T298 543Q339 558 367 533T411
499T444 499Q455 502 480 514T516 531T537 521T545 496Q545 472 517 457ZM375 95L380 163V179Q377 199 367 199Q349 199 300 164Q212 101 168 44Q159 34 154 33T138 32T109 52T85 86Q85 126 125 204Q130 220 152 273T178 356L177 357Q177 367 187 367Q189 370 207
370T244 356T263 317T237 240T211 186Q227 197 272 232Q375 315 399 315Q412 315 435 301T463 274L459 228L461 173Q461 141 457 128L460 122Q456 118 468 92T480 60T466 40T438 24Q375 26 375 95Z" />
<glyph unicode="&#xf2;" horiz-adv-x="353" d="M375 477T375 467T356 438Q334 418 324 418T309 448Q306 459 281 503T255 562T272 591T300 605Q322 605 348 541ZM309 199T313 210T320 228T324 258T317 288Q306 293 299 291T276 278Q200 214 185 141Q182 116 190
104T219 97T255 118T276 139T284 148T291 159T297 170T302 183T307 195ZM194 326Q244 369 284 378Q344 392 368 367Q407 350 413 296Q421 213 358 122Q321 68 256 29Q230 11 164 7Q147 7 125 26Q80 73 86 109L88 132Q83 137 85 140T89 144Q95 144 93 153T100 190T123
240Q157 296 194 326Z" />
<glyph unicode="&#xf3;" horiz-adv-x="353" d="M328 478L329 488Q331 497 372 541T427 590Q434 594 442 596Q455 596 467 582T480 545Q480 531 437 496T383 445T358 430Q328 430 328 478ZM309 199T313 210T320 228T324 258T317 288Q306 293 299 291T276 278Q200
214 185 141Q182 116 190 104T219 97T255 118T276 139T284 148T291 159T297 170T302 183T307 195ZM194 326Q244 369 284 378Q344 392 368 367Q407 350 413 296Q421 213 358 122Q321 68 256 29Q230 11 164 7Q147 7 125 26Q80 73 86 109L88 132Q83 137 85 140T89
144Q95 144 93 153T100 190T123 240Q157 296 194 326Z" />
<glyph unicode="&#xf4;" horiz-adv-x="353" d="M215 483Q223 493 260 526Q324 581 346 578Q359 576 366 566Q382 553 410 524T445 488Q459 473 452 453T428 429T392 444Q372 468 338 497Q297 474 258 441Q234 417 216 439T215 483ZM309 199T313 210T320 228T324
258T317 288Q306 293 299 291T276 278Q200 214 185 141Q182 116 190 104T219 97T255 118T276 139T284 148T291 159T297 170T302 183T307 195ZM194 326Q244 369 284 378Q344 392 368 367Q407 350 413 296Q421 213 358 122Q321 68 256 29Q230 11 164 7Q147 7 125
26Q80 73 86 109L88 132Q83 137 85 140T89 144Q95 144 93 153T100 190T123 240Q157 296 194 326Z" />
<glyph unicode="&#xf5;" horiz-adv-x="353" d="M468 457Q394 416 388 416T375 417T366 419T355 424T346 429T335 436T325 444T303 462T273 479T250 462T227 444Q225 431 220 429T214 429Q184 434 184 464Q184 477 201 502T249 543Q290 558 318 533T362 499T395
499Q406 502 431 514T467 531T488 521T496 496Q496 472 468 457ZM309 199T313 210T320 228T324 258T317 288Q306 293 299 291T276 278Q200 214 185 141Q182 116 190 104T219 97T255 118T276 139T284 148T291 159T297 170T302 183T307 195ZM194 326Q244 369 284
378Q344 392 368 367Q407 350 413 296Q421 213 358 122Q321 68 256 29Q230 11 164 7Q147 7 125 26Q80 73 86 109L88 132Q83 137 85 140T89 144Q95 144 93 153T100 190T123 240Q157 296 194 326Z" />
<glyph unicode="&#xf6;" horiz-adv-x="353" d="M422 548Q451 569 476 524Q486 500 483 486T456 445Q422 399 391 429Q382 437 376 453T372 476Q380 513 404 533Q406 534 409 538Q416 548 422 548ZM267 548Q296 569 321 524Q331 500 328 486T301 445Q267 399 236
429Q227 437 221 453T217 476Q225 513 249 533Q251 534 254 538Q262 548 267 548ZM309 199T313 210T320 228T324 258T317 288Q306 293 299 291T276 278Q200 214 185 141Q182 116 190 104T219 97T255 118T276 139T284 148T291 159T297 170T302 183T307 195ZM194
326Q244 369 284 378Q344 392 368 367Q407 350 413 296Q421 213 358 122Q321 68 256 29Q230 11 164 7Q147 7 125 26Q80 73 86 109L88 132Q83 137 85 140T89 144Q95 144 93 153T100 190T123 240Q157 296 194 326Z" />
<glyph unicode="&#xf7;" horiz-adv-x="446" d="M281 347T281 355T282 366Q293 378 302 400T318 432Q330 457 362 442Q384 433 394 417Q412 377 378 336Q363 316 341 311T306 314T288 335ZM189 19T189 27T193 40T209 69T225 100Q230 113 238 115Q250 123 271 114T303
89Q321 49 287 8Q272 -12 249 -17T214 -15T196 6ZM402 247Q458 247 476 229T487 195T456 182Q300 172 170 172Q150 172 135 177Q110 177 99 197Q80 222 132 231L150 233Q213 247 402 247Z" />
<glyph unicode="&#xf8;" horiz-adv-x="353" d="M313 272Q321 276 343 293Q342 296 339 299Q311 315 271 281Q244 258 230 237T197 172Q260 235 313 272ZM341 249Q262 187 177 102Q178 69 206 75T276 126Q331 187 341 249ZM108 94T108 99T106 111Q100 116 102 119T105
123Q113 125 107 134Q104 142 110 170T126 221Q154 285 186 319Q233 372 265 384Q309 402 342 377Q382 365 400 339Q439 373 443 378Q448 389 457 384T470 368T463 345Q457 333 448 327T430 314T414 302Q427 234 382 145Q348 77 305 41T198 -9Q181 -11 157 4Q137
19 121 45Q90 14 85 6Q74 -15 69 -15Q50 -10 53 10T83 56L107 80V88Q108 94 108 99Z" />
<glyph unicode="&#xf9;" horiz-adv-x="370" d="M364 479T364 469T345 440Q323 420 313 420T298 450Q295 461 270 505T244 564T261 593T290 607Q311 607 337 543ZM306 89V104Q296 79 284 70Q261 47 238 36Q172 -6 135 42Q95 75 105 123Q108 193 148 281Q192 369
194 372Q210 378 231 372T255 352Q261 342 255 314T231 252Q191 154 190 132T201 105Q212 98 227 104T269 143T314 224T337 307Q335 318 343 331T364 352Q368 358 374 361T384 361L400 362Q402 362 409 353T419 341Q447 317 405 218Q348 98 393 59Q409 48 406 7Q402
-7 377 -8T336 2Q322 15 308 70Q306 76 306 89Z" />
<glyph unicode="&#xfa;" horiz-adv-x="370" d="M293 475L294 485Q296 494 337 538T392 587Q400 592 407 593Q420 593 432 579T445 542Q445 528 402 493T348 442T323 427Q293 427 293 475ZM306 89V104Q296 79 284 70Q261 47 238 36Q172 -6 135 42Q95 75 105 123Q108
193 148 281Q192 369 194 372Q210 378 231 372T255 352Q261 342 255 314T231 252Q191 154 190 132T201 105Q212 98 227 104T269 143T314 224T337 307Q335 318 343 331T364 352Q368 358 374 361T384 361L400 362Q402 362 409 353T419 341Q447 317 405 218Q348 98
393 59Q409 48 406 7Q402 -7 377 -8T336 2Q322 15 308 70Q306 76 306 89Z" />
<glyph unicode="&#xfb;" horiz-adv-x="370" d="M225 483Q233 493 270 526Q334 581 356 578Q369 576 376 566Q392 553 420 524T455 488Q469 473 462 453T438 429T402 444Q382 468 348 497Q307 474 268 441Q244 417 226 439T225 483ZM306 89V104Q296 79 284 70Q261
47 238 36Q172 -6 135 42Q95 75 105 123Q108 193 148 281Q192 369 194 372Q210 378 231 372T255 352Q261 342 255 314T231 252Q191 154 190 132T201 105Q212 98 227 104T269 143T314 224T337 307Q335 318 343 331T364 352Q368 358 374 361T384 361L400 362Q402
362 409 353T419 341Q447 317 405 218Q348 98 393 59Q409 48 406 7Q402 -7 377 -8T336 2Q322 15 308 70Q306 76 306 89Z" />
<glyph unicode="&#xfc;" horiz-adv-x="370" d="M432 548Q461 569 486 524Q496 500 493 486T466 445Q432 399 401 429Q392 437 386 453T382 476Q390 513 414 533Q416 534 419 538Q426 548 432 548ZM277 548Q306 569 331 524Q341 500 338 486T311 445Q277 399 246
429Q237 437 231 453T227 476Q235 513 259 533Q261 534 264 538Q272 548 277 548ZM306 89V104Q296 79 284 70Q261 47 238 36Q172 -6 135 42Q95 75 105 123Q108 193 148 281Q192 369 194 372Q210 378 231 372T255 352Q261 342 255 314T231 252Q191 154 190 132T201
105Q212 98 227 104T269 143T314 224T337 307Q335 318 343 331T364 352Q368 358 374 361T384 361L400 362Q402 362 409 353T419 341Q447 317 405 218Q348 98 393 59Q409 48 406 7Q402 -7 377 -8T336 2Q322 15 308 70Q306 76 306 89Z" />
<glyph unicode="&#xfd;" horiz-adv-x="341" d="M287 478L288 488Q290 497 331 541T386 590Q394 594 401 596Q414 596 426 582T439 545Q439 531 396 496T342 445T317 430Q287 430 287 478ZM-47 -117T-32 -117T-10 -121Q28 -147 61 -141T132 -83Q174 -16 196 24Q175
36 156 64T140 104V115Q129 115 126 177T125 264T132 356Q131 382 150 395Q186 411 203 379T216 273Q207 137 235 105Q244 129 250 135Q264 164 265 169T270 182T290 222Q316 297 322 307T331 325T337 337T342 346T347 355T352 361Q356 366 361 368Q377 380 397
369Q412 354 418 345Q432 321 406 273Q388 220 374 204Q341 128 315 75T276 -9Q212 -111 186 -142Q120 -202 86 -208Q34 -219 -12 -205T-66 -164Q-72 -144 -60 -131Z" />
<glyph unicode="&#xfe;" horiz-adv-x="378" d="M199 117Q213 117 251 132T306 162T332 185T348 207Q363 230 346 257Q317 292 239 217Q207 183 198 150T199 117ZM71 -6L78 30Q83 57 117 158T170 306T237 483T285 620T296 639Q307 648 322 647T350 636Q366 610
361 580Q361 559 308 435T256 311Q315 346 357 340T423 305T446 235Q446 218 430 185T404 142Q398 142 388 121Q376 105 343 88T297 74Q292 71 292 65Q292 58 259 50T207 41T180 49Q173 42 173 34T163 5T147 -17Q141 -22 147 -28Q147 -49 141 -59Q141 -85 131 -107Q131
-119 128 -130T120 -142Q114 -144 114 -169T99 -214T71 -233Q52 -235 47 -225Q26 -195 32 -165Q43 -123 43 -107L48 -75Q59 -57 59 -28Q59 -16 71 -6Z" />
<glyph unicode="&#xff;" horiz-adv-x="341" d="M226 548Q255 569 280 524Q290 500 287 486T260 445Q226 399 195 429Q186 437 180 453T176 476Q184 513 208 533Q210 534 213 538Q220 548 226 548ZM381 548Q410 569 435 524Q445 500 442 486T415 445Q381 399 350
429Q341 437 335 453T331 476Q339 513 363 533Q365 534 368 538Q376 548 381 548ZM-47 -117T-32 -117T-10 -121Q28 -147 61 -141T132 -83Q174 -16 196 24Q175 36 156 64T140 104V115Q129 115 126 177T125 264T132 356Q131 382 150 395Q186 411 203 379T216 273Q207
137 235 105Q244 129 250 135Q264 164 265 169T270 182T290 222Q316 297 322 307T331 325T337 337T342 346T347 355T352 361Q356 366 361 368Q377 380 397 369Q412 354 418 345Q432 321 406 273Q388 220 374 204Q341 128 315 75T276 -9Q212 -111 186 -142Q120 -202
86 -208Q34 -219 -12 -205T-66 -164Q-72 -144 -60 -131Z" />
<glyph unicode="&#x2013;" horiz-adv-x="446" d="M402 247Q458 247 476 229T487 195T456 182Q300 172 170 172Q150 172 135 177Q110 177 99 197Q80 222 132 231L150 233Q213 247 402 247Z" />
<glyph unicode="&#x2014;" horiz-adv-x="566" d="M469 245T519 245T578 242T601 225T607 195T576 183L521 178Q446 173 170 173Q150 173 135 178Q110 178 99 197Q82 220 125 228Q175 237 322 241Z" />
<glyph unicode="&#x2018;" horiz-adv-x="117" d="M305 521T297 492T260 443T194 439Q177 450 167 469T160 502Q164 529 173 553T184 584Q193 619 244 676Q244 680 253 682T268 686Q276 686 284 687T301 683Q322 670 301 641Q257 570 255 562T252 551Q269 554 287
539Q305 521 297 492Z" />
<glyph unicode="&#x2019;" horiz-adv-x="117" d="M182 599T189 628T226 677T292 681Q309 670 319 650T326 617Q322 590 313 566T302 535Q293 502 242 444Q242 440 233 438T218 434Q210 434 202 433T186 437Q166 450 186 479Q230 550 232 558T235 569Q218 566 200
581Q182 599 189 628Z" />
<glyph unicode="&#x201a;" horiz-adv-x="117" d="M9 52T16 82T53 131T119 135Q136 124 146 104T153 71Q149 44 140 20T129 -11Q120 -44 69 -102Q69 -106 60 -108T45 -112Q37 -112 29 -113T12 -109Q-7 -96 13 -67Q58 6 59 12T62 22Q45 19 27 34Q9 52 16 82Z" />
<glyph unicode="&#x201c;" horiz-adv-x="267" d="M303 523T296 493T259 444T193 440Q176 451 166 471T159 504Q163 531 172 555T183 586Q192 619 243 677Q243 681 252 683T267 687Q275 687 283 688T300 684Q319 671 299 642Q254 569 253 563T250 553Q267 556 285
541Q303 523 296 493ZM482 523T474 493T437 444T371 440Q354 451 344 471T337 504Q341 531 350 555T361 586Q370 619 421 677Q421 681 430 683T447 687T470 687T488 668Q490 659 462 614T432 563T429 553Q446 556 464 541Q482 523 474 493Z" />
<glyph unicode="&#x201d;" horiz-adv-x="267" d="M347 588T354 618T391 667T457 671Q474 660 484 640T491 607Q487 580 478 556T467 525Q458 492 407 434Q407 430 398 428T383 424Q375 424 367 423T350 427Q331 440 351 469Q396 542 397 548T400 558Q383 555 365
570Q347 588 354 618ZM168 588T176 618T213 667T279 671Q296 660 306 640T313 607Q309 580 300 556T289 525Q280 492 229 434Q229 430 220 428T203 424T180 424T162 443Q160 452 188 497T218 548T221 558Q204 555 186 570Q168 588 176 618Z" />
<glyph unicode="&#x201e;" horiz-adv-x="267" d="M190 52T197 82T234 131T300 135Q317 124 327 104T334 71Q330 44 321 20T310 -11Q301 -44 250 -102Q250 -106 241 -108T226 -112Q218 -112 210 -113T194 -109Q174 -96 194 -67Q239 6 240 12T243 22Q226 19 208
34Q190 52 197 82ZM11 52T19 82T56 131T122 135Q139 124 149 104T156 71Q152 44 143 20T132 -11Q123 -44 72 -102Q72 -106 63 -108T46 -112T23 -112T5 -93Q3 -84 31 -39T61 12T64 22Q47 19 29 34Q11 52 19 82Z" />
<glyph unicode="&#x2022;" horiz-adv-x="187" d="M192 376Q209 385 236 378T276 354Q294 288 239 227Q206 186 143 220Q135 227 134 255T137 297T159 338T192 376Z" />
<glyph unicode="&#x2039;" horiz-adv-x="446" d="M414 427Q411 398 403 391T376 370Q340 341 290 296T230 238T224 205Q249 149 353 91Q393 71 410 36T406 -6Q367 -10 328 8Q307 20 298 24T281 32T269 40T260 47Q250 54 242 64Q188 95 154 157L122 199L115 237Q125
239 134 260Q140 271 155 284T201 323T256 369Q290 394 330 434Q350 456 356 456Q365 459 376 452T396 441Q412 435 414 427Z" />
<glyph unicode="&#x203a;" horiz-adv-x="446" d="M178 19Q181 33 191 42T285 126T376 215T383 242Q356 302 247 363Q203 385 185 415T186 450Q243 455 281 438Q302 426 311 422T328 414T340 406T350 399Q359 392 367 382Q421 351 455 289L479 247L486 217Q477
215 471 198T463 181Q446 160 343 72Q309 47 269 7Q249 -15 243 -15Q239 -17 222 -6T197 8Q179 12 178 19Z" />
</font>
</defs>
</svg>
