<?xml version="1.0" standalone="no"?>
<!DOCTYPE svg PUBLIC "-//W3C//DTD SVG 1.1//EN" "http://www.w3.org/Graphics/SVG/1.1/DTD/svg11.dtd">
<svg xmlns="http://www.w3.org/2000/svg">
<defs >
<font id="JosefinSlab" horiz-adv-x="523" ><font-face
    font-family="Josefin Slab"
    units-per-em="1000"
    panose-1="2 0 0 0 0 0 0 0 0 0"
    ascent="750"
    descent="-250"
    alphabetic="0" />
<glyph unicode=" " glyph-name="space" horiz-adv-x="300" />
<glyph unicode="!" glyph-name="exclam" horiz-adv-x="201" d="M100 0Q80 0 64 15T48 53Q48 76 64 90T100 105Q119 105 135 91T151 53Q151 30 135 15T100 0ZM58 750H141V166H58V750Z" />
<glyph unicode="&quot;" glyph-name="quotedbl" horiz-adv-x="335" d="M196 472V720H279Q278 657 277 596T275 472H196ZM63 472V720H146Q145 657 144 596T142 472H63Z" />
<glyph unicode="#" glyph-name="numbersign" horiz-adv-x="571" d="M223 371L211 269H311L323 371H223ZM279 0Q284 48 290 94T301 188H201Q196 140 190 94T179 0H95Q100 48 106 94T117 188H25Q27 208 30 228T35 269H127L139 371H48Q50 391 52 411T56 452H148Q154
500 160 547T172 643H256Q250 595 244 548T232 452H332Q338 500 344 547T356 643H440Q434 595 428 548T416 452H518Q516 432 514 412T510 371H407L395 269H497Q495 249 492 229T487 188H385Q380 140 374 94T363 0H279Z" />
<glyph unicode="$" glyph-name="dollar" horiz-adv-x="567" d="M345 546V605Q331 611 316 616T281 623V398Q313 387 345 373T402 336T443 277T459 187Q459 146 445 113T407 54T351 14T281 -6V-68H197V-3Q137 6 90 33T21 93V209H100V120Q120 105 144 93T197 75V343Q168
352 142 364T96 395T63 444T49 517Q48 545 55 574T81 629T127 673T197 700V764H281V702Q313 699 349 687T424 644V546H345ZM376 188Q376 216 369 236T349 272T319 297T281 316V75Q321 84 348 112T376 188ZM132 514Q132 480 150 461T197 427V616Q164 603 148 576T132
514Z" />
<glyph unicode="%" glyph-name="percent" horiz-adv-x="726" d="M478 111Q478 91 490 78T522 65Q542 65 554 78T566 111Q566 131 554 143T522 156Q502 156 490 144T478 111ZM522 -16Q496 -16 473 -6T432 21T404 61T394 111Q394 137 404 160T431 200T472 227T522
237Q548 237 571 227T611 200T639 160T650 111Q650 84 640 61T612 21T571 -6T522 -16ZM174 389Q174 369 186 356T218 343Q238 343 250 356T262 389Q262 409 250 421T218 434Q198 434 186 422T174 389ZM218 262Q192 262 169 272T128 299T100 339T90 389Q90 415 100
438T127 478T168 505T218 515Q244 515 267 505T307 478T335 438T346 389Q346 362 336 339T308 299T267 272T218 262ZM174 0Q249 126 323 250T472 500H563Q488 374 414 250T265 0H174Z" />
<glyph unicode="&amp;" glyph-name="ampersand" horiz-adv-x="700" d="M422 375H601V294H506V254V214Q506 197 505 179T501 145L576 24L511 -19L461 63Q433 30 393 11T305 -9Q263 -9 227 6T163 49T121 111T105 188Q105 224 117 256T151 313T202 356T266 380L196
496Q182 520 174 545T166 596Q166 621 176 647T207 696T256 733T323 748Q361 748 395 735T454 705L421 640Q406 648 382 658T333 669Q312 669 297 660T272 638T257 609T252 581Q252 564 257 548T273 515L422 273V276V375ZM188 188Q188 139 220 106T305 72Q343 72
371 91T413 141L314 303Q257 303 223 273T188 188Z" />
<glyph unicode="&apos;" glyph-name="quotesingle" horiz-adv-x="163" d="M42 472V720H126Q125 657 124 596T122 472H42Z" />
<glyph unicode="(" glyph-name="parenleft" horiz-adv-x="424" d="M115 291Q115 366 129 434T166 560T218 665T280 746Q298 740 316 735T353 723Q324 690 297 645T247 545T212 426T199 291Q199 220 212 156T247 37T296 -63T353 -141Q335 -147 317 -152T280 -164Q248
-131 219 -84T166 22T129 148T115 291Z" />
<glyph unicode=")" glyph-name="parenright" horiz-adv-x="400" d="M312 288Q312 213 298 145T261 19T208 -86T147 -167Q129 -162 111 -157T74 -146Q103 -113 130 -68T180 32T215 151T228 286Q228 357 215 421T180 540T131 640T74 718Q92 724 110 730T147 743Q178
710 208 663T261 557T298 431T312 288Z" />
<glyph unicode="*" glyph-name="asterisk" horiz-adv-x="335" d="M250 575L313 539Q302 521 292 503T271 466Q255 475 240 484T209 503Q209 486 209 469T208 434H128V504Q113 495 98 487T67 469Q56 487 46 505T25 542Q41 550 56 559T87 576Q72 585 57 594T26 613L65
682Q81 673 96 664T128 645V720H212Q212 701 212 683T211 645Q227 654 243 663T275 681Q285 664 295 647T315 612Q298 603 283 594T250 575Z" />
<glyph unicode="+" glyph-name="plus" horiz-adv-x="543" d="M224 51V190H86V271H224V411H308V271H446V190H308V51H224Z" />
<glyph unicode="," glyph-name="comma" horiz-adv-x="200" d="M163 86Q141 34 120 -17T77 -120H2Q22 -68 40 -17T79 86H163Z" />
<glyph unicode="-" glyph-name="hyphen" horiz-adv-x="300" d="M53 147V228H237V147H53Z" />
<glyph unicode="." glyph-name="period" horiz-adv-x="163" d="M33 52Q33 75 49 90T85 105Q104 105 120 90T136 52Q136 29 120 15T85 0Q65 0 49 14T33 52Z" />
<glyph unicode="/" glyph-name="slash" horiz-adv-x="380" d="M17 -19Q87 171 156 358T295 736H379Q309 546 240 359T101 -19H17Z" />
<glyph unicode="0" glyph-name="zero" horiz-adv-x="616" d="M37 327Q37 403 58 464T116 569T202 635T307 658Q363 658 412 634T497 567T553 461T573 323Q573 247 550 186T488 82T402 15T303 -8Q252 -8 204 16T119 84T59 189T37 327ZM121 326Q121 273 135 227T174
147T232 93T303 73Q340 73 374 92T433 145T474 225T489 324Q489 360 480 404T450 486T393 551T307 577Q256 577 221 552T163 488T131 406T121 326Z" />
<glyph unicode="1" glyph-name="one" horiz-adv-x="290" d="M23 79H102V569H34V650H186V79H265V0H23V79Z" />
<glyph unicode="2" glyph-name="two" horiz-adv-x="519" d="M253 81H417V174H496V0H53Q115 62 173 120T276 233T348 339T375 438Q375 475 363 501T333 544T293 569T253 577Q215 577 191 564T153 532T134 492T128 455Q128 422 138 397T167 351L117 300Q100 311
87 329T64 369T49 413T44 455Q44 495 57 532T97 597T163 641T253 658Q299 658 337 641T402 596T444 530T459 450Q459 400 442 354T396 261T330 171T253 81Z" />
<glyph unicode="3" glyph-name="three" horiz-adv-x="515" d="M154 326L293 568H182V521H103V650H432L289 412Q322 400 349 381T396 335T427 277T438 209Q438 164 421 125T373 56T304 9T219 -8Q171 -8 130 11T59 63L120 120Q138 98 163 86T219 73Q247 73 271 84T314
113T344 156T355 209Q355 237 344 261T315 304T272 332T219 343Q183 343 154 326Z" />
<glyph unicode="4" glyph-name="four" horiz-adv-x="529" d="M244 79H319V183H37L403 658V264H500V183H403V79H486V0H244V79ZM319 413L205 264H319V413Z" />
<glyph unicode="5" glyph-name="five" horiz-adv-x="543" d="M430 650V521H351V569H227V422Q233 423 239 423T253 424Q298 424 337 408T407 362T454 293T472 209Q472 164 455 125T407 56T338 9T253 -8Q209 -8 171 8T103 53L164 109Q181 92 204 83T253 73Q281 73
305 84T348 113T378 156T389 209Q389 237 378 261T349 304T306 332T253 343Q218 343 189 332T143 292V650H430Z" />
<glyph unicode="6" glyph-name="six" horiz-adv-x="520" d="M134 209Q134 181 144 157T172 114T214 84T265 73Q293 73 317 84T360 113T390 156T401 209Q401 237 390 261T361 304T318 332T265 343Q238 343 214 333T172 304T144 262T134 209ZM48 197Q48 269 78 331T157
448T264 549T379 637Q392 621 405 605T431 573Q366 530 321 493T244 423Q249 423 254 423T265 424Q310 424 349 408T419 362T466 293T484 209Q484 164 467 125T419 56T350 9T265 -8Q222 -8 184 8T116 51T68 116T48 197Z" />
<glyph unicode="7" glyph-name="seven" horiz-adv-x="469" d="M427 650L135 0H40L297 568H93V521H14V650H427Z" />
<glyph unicode="8" glyph-name="eight" horiz-adv-x="510" d="M180 498Q180 466 202 445T255 424Q287 424 308 445T330 498Q330 530 309 553T255 577Q224 577 202 554T180 498ZM122 209Q122 181 132 157T160 114T202 84T253 73Q281 73 305 84T348 113T378 156T389
209Q389 236 379 260T351 302T309 331T258 343Q229 343 204 333T161 304T133 262T122 209ZM36 209Q36 267 64 314T138 391Q118 411 107 438T95 498Q95 531 107 560T141 611T191 645T253 658Q286 658 315 646T366 611T400 560T413 498Q413 466 401 439T369 391Q415
362 443 315T472 209Q472 164 455 125T407 56T338 9T253 -8Q208 -8 169 9T100 55T53 124T36 209Z" />
<glyph unicode="9" glyph-name="nine" horiz-adv-x="525" d="M376 419Q376 447 366 471T338 514T296 544T245 555Q217 555 193 544T150 515T120 472T109 419Q109 391 120 367T149 324T192 296T245 285Q272 285 296 295T338 324T366 366T376 419ZM462 419Q462 351
431 290T350 176T243 76T131 -9Q118 7 105 23T79 55Q144 98 189 135T266 205Q261 204 256 204T245 204Q200 204 161 220T91 266T44 335T26 419Q26 464 43 503T91 572T160 619T245 636Q290 636 329 619T398 572T445 503T462 419Z" />
<glyph unicode=":" glyph-name="colon" horiz-adv-x="175" d="M33 302Q33 325 49 340T85 355Q104 355 120 340T136 302Q136 279 120 265T85 250Q65 250 49 264T33 302ZM33 52Q33 75 49 90T85 105Q104 105 120 90T136 52Q136 29 120 15T85 0Q65 0 49 14T33 52Z" />
<glyph unicode=";" glyph-name="semicolon" horiz-adv-x="201" d="M64 302Q64 325 80 340T116 355Q135 355 151 340T167 302Q167 279 151 265T116 250Q96 250 80 264T64 302ZM149 86Q127 34 106 -17T63 -120H-12Q8 -68 26 -17T65 86H149Z" />
<glyph unicode="&lt;" glyph-name="less" horiz-adv-x="680" d="M553 99V-14Q443 49 335 112T116 238Q226 301 334 364T553 490V377Q493 342 433 308T312 238Q372 203 432 169T553 99Z" />
<glyph unicode="=" glyph-name="equal" horiz-adv-x="708" d="M606 193V112H100V193H606ZM606 387V306H100V387H606Z" />
<glyph unicode="&gt;" glyph-name="greater" horiz-adv-x="650" d="M116 -14V99Q176 134 236 168T357 238Q297 273 237 307T116 377V490Q226 427 334 364T553 238Q443 175 335 112T116 -14Z" />
<glyph unicode="?" glyph-name="question" horiz-adv-x="452" d="M114 552Q96 559 78 565T41 579Q48 601 61 627T97 677T155 716T241 732Q282 732 318 717T380 675T422 613T437 537Q437 481 411 440T339 364Q325 354 309 344T279 320T256 288T247 242V164H163V261Q163
293 173 313T200 348T238 377T282 409Q318 436 335 468T352 537Q352 586 322 618T241 651Q185 651 157 626T114 552ZM204 0Q184 0 168 14T152 52Q152 75 168 90T204 105Q223 105 239 90T255 52Q255 29 239 15T204 0Z" />
<glyph unicode="@" glyph-name="at" horiz-adv-x="990" d="M368 188Q368 139 400 106T485 72Q537 72 569 105T602 188Q602 238 570 270T485 303Q433 303 401 271T368 188ZM910 188Q906 135 886 100T837 42T777 10T718 0H612V20V40Q611 37 602 29T577 13T537 -2T485
-9Q443 -9 406 6T342 49T300 111T284 187Q284 226 299 261T342 324T406 366T485 382Q511 382 533 375T573 359T600 340T612 328Q612 339 614 351T616 375H685V81H718Q738 81 757 86T791 104T815 137T826 188Q826 259 800 321T727 429T620 502T489 529Q418 529 357
503T249 430T176 321T149 188Q149 117 175 56T248 -52T356 -124T489 -151Q548 -151 600 -134T698 -85Q711 -100 723 -114T748 -144Q723 -166 692 -182T627 -210T557 -226T489 -232Q401 -232 324 -199T190 -109T99 25T65 189Q65 276 98 353T189 487T324 577T489
610Q576 610 653 577T787 487T877 353T910 188Z" />
<glyph unicode="A" glyph-name="A" horiz-adv-x="788" d="M35 79H117Q186 244 255 405T394 732Q463 567 532 406T671 79H753V0H531V79H587Q566 129 546 178T504 277H284L200 79H257V0H35V79ZM403 515L393 548Q392 546 391 541T388 530Q386 523 383 515Q370 486
359 458Q349 434 338 406T318 356H470L403 515Z" />
<glyph unicode="B" glyph-name="B" horiz-adv-x="542" d="M35 79H80V621H35V700H263Q312 700 352 690T421 659T466 605T482 525Q482 463 453 416T363 352Q391 346 417 332T463 296T495 245T507 180Q507 135 488 102T438 46T365 12T281 0H35V79ZM163 313V79H274Q305
79 332 86T379 107T412 143T424 193Q424 224 410 247T374 284T321 306T260 313H163ZM163 621V392H271Q330 392 364 425T399 512Q399 571 363 596T269 621H163Z" />
<glyph unicode="C" glyph-name="C" horiz-adv-x="610" d="M496 546V607Q446 629 392 629Q335 629 286 607T199 547T140 457T118 349Q118 292 139 241T198 153T285 93T392 71Q466 71 529 108L574 42Q534 19 489 6T392 -8Q318 -8 253 20T140 96T63 210T35 349Q35
423 63 488T139 602T253 679T392 708Q443 708 488 695T575 658V546H496Z" />
<glyph unicode="D" glyph-name="D" horiz-adv-x="632" d="M35 80H82V621H35V700H245Q317 700 381 676T493 605T569 495T597 349Q597 290 577 228T510 116T391 33T211 0H35V80ZM165 621V80H235Q294 80 345 99T433 153T492 238T514 350Q514 412 493 462T434 547T345
602T235 621H165Z" />
<glyph unicode="E" glyph-name="E" horiz-adv-x="571" d="M35 79H91V621H35V700H522V546H443V621H174V392H483V313H174V79H457V154H536V0H35V79Z" />
<glyph unicode="F" glyph-name="F" horiz-adv-x="557" d="M35 79H91V621H35V700H522V546H443V621H174V392H483V313H174V79H277V0H35V79Z" />
<glyph unicode="G" glyph-name="G" horiz-adv-x="609" d="M574 298V40Q534 17 489 4T392 -10Q318 -10 253 18T140 94T63 208T35 347Q35 421 63 486T139 600T253 677T392 706Q443 706 488 693T575 656L529 589Q498 607 464 617T392 627Q335 627 286 605T199 545T140
455T118 347Q118 290 139 239T198 151T285 91T392 69Q444 69 491 87V219H388V298H574Z" />
<glyph unicode="H" glyph-name="H" horiz-adv-x="772" d="M495 700H737V621H658V79H737V0H495V79H575V313H197V79H277V0H35V79H114V621H35V700H277V621H197V392H575V621H495V700Z" />
<glyph unicode="I" glyph-name="I" horiz-adv-x="312" d="M35 79H114V621H35V700H277V621H197V79H277V0H35V79Z" />
<glyph unicode="J" glyph-name="J" horiz-adv-x="311" d="M35 700H276V90Q276 34 258 -9T207 -81T131 -127T35 -144V-65Q104 -61 148 -21T193 93V621H35V700Z" />
<glyph unicode="K" glyph-name="K" horiz-adv-x="686" d="M429 79H481Q424 150 369 220T257 363L195 304V79H277V0H35V79H112V621H35V700H257V621H195V426Q194 418 194 410T192 394L211 417L425 621H388V700H610V621H527L312 416Q379 331 445 248T579 79H651V0H429V79Z" />
<glyph unicode="L" glyph-name="L" horiz-adv-x="571" d="M35 79H91V621H35V700H257V621H174V79H457V154H536V0H35V79Z" />
<glyph unicode="M" glyph-name="M" horiz-adv-x="976" d="M829 700H941V621H854V79H941V0H699V79H771V470Q772 478 772 486T774 502Q766 491 758 479T742 456Q682 371 617 290T488 125L220 475L202 502Q203 494 203 486T205 470V79H277V0H35V79H122V621H35V700H147Q233
589 317 479T488 257Q574 368 658 478T829 700Z" />
<glyph unicode="N" glyph-name="N" horiz-adv-x="855" d="M35 79H122V621H35V700H151L634 177L653 151L650 183V621H578V700H820V621H733V-32L221 512L202 538L205 506V79H277V0H35V79Z" />
<glyph unicode="O" glyph-name="O" horiz-adv-x="786" d="M35 349Q35 422 63 487T139 602T253 679T392 708Q465 708 530 680T645 602T722 488T751 349Q751 275 723 210T645 97T531 20T392 -8Q318 -8 253 20T140 96T63 210T35 349ZM118 349Q118 291 139 241T198
153T286 93T393 71Q450 71 500 93T587 152T646 240T668 349Q668 407 647 457T588 546T500 606T393 628Q336 628 286 606T199 546T140 458T118 349Z" />
<glyph unicode="P" glyph-name="P" horiz-adv-x="517" d="M35 79H80V621H35V700H245Q279 700 320 690T398 656T458 597T482 510Q482 419 428 366T272 312H163V79H277V0H35V79ZM163 392H250Q294 392 322 403T368 432T392 470T399 510Q399 532 388 552T357 587T310
612T251 621H163V392Z" />
<glyph unicode="Q" glyph-name="Q" horiz-adv-x="808" d="M118 349Q118 292 139 241T198 153T285 93T392 71Q449 71 499 93T586 152T646 241T668 349Q668 406 646 457T587 546T499 607T392 629Q335 629 286 607T199 547T140 457T118 349ZM35 349Q35 423 63 488T139
602T253 679T392 708Q466 708 531 680T645 603T722 489T751 349Q751 268 717 198T626 79H773V0H466Q428 -8 392 -8Q318 -8 253 20T140 96T63 210T35 349Z" />
<glyph unicode="R" glyph-name="R" horiz-adv-x="576" d="M35 79H80V621H35V700H245Q279 700 320 690T398 656T458 597T482 510Q482 435 445 385T335 318L447 79H541V0H395L248 312H205H163V79H277V0H35V79ZM163 392H250Q294 392 322 403T368 432T392 470T399
510Q399 532 388 552T357 587T310 612T251 621H163V392Z" />
<glyph unicode="S" glyph-name="S" horiz-adv-x="478" d="M21 93V209H100V120Q126 100 162 86T243 71Q269 71 293 78T335 100T365 137T376 188Q376 240 352 268T292 311T214 338T136 368T75 421T49 517Q48 550 58 583T91 643T152 687T245 704Q263 704 284 702T328
694T375 676T424 644V546H345V605Q326 613 301 619T246 625Q188 625 160 592T132 514Q132 484 146 466T183 435T235 413T295 394T355 369T408 331T445 273T459 187Q459 142 443 106T398 45T331 6T251 -8Q213 -8 177 0T111 23T58 55T21 93Z" />
<glyph unicode="T" glyph-name="T" horiz-adv-x="623" d="M185 79H271V621H114V546H35V700H588V546H509V621H354V79H427V0H185V79Z" />
<glyph unicode="U" glyph-name="U" horiz-adv-x="729" d="M35 700H277V621H195V229Q195 191 207 162T242 112T296 82T364 71Q401 71 432 81T485 112T521 161T534 229V621H452V700H694V621H617V226Q617 169 598 125T544 52T464 7T364 -8Q310 -8 264 7T184 51T131
125T112 226V621H35V700Z" />
<glyph unicode="V" glyph-name="V" horiz-adv-x="810" d="M35 700H277V621H205Q252 512 297 403T390 185L399 152L408 185Q455 294 500 402T592 621H533V700H775V621H676Q607 456 538 295T399 -32Q330 133 261 294T122 621H35V700Z" />
<glyph unicode="W" glyph-name="W" horiz-adv-x="1178" d="M35 700H277V621H205Q252 512 297 403T390 185L399 152Q411 197 428 241T465 330T505 419T544 506Q532 535 520 563T495 621H403V700H645V621H578Q625 512 670 403T763 185L772 152L781 185Q828 294 873
402T965 621H901V700H1143V621H1049Q980 456 911 295T772 -32L595 385L585 420Q571 364 549 307T501 192T449 79T399 -32Q330 133 261 294T122 621H35V700Z" />
<glyph unicode="X" glyph-name="X" horiz-adv-x="694" d="M35 700H277V621H222Q250 577 278 535T334 449L347 422L360 449L472 621H417V700H659V621H573Q529 553 486 486T398 351Q443 282 487 215T576 79H659V0H417V79H472L356 258Q352 265 349 272T342 286L329
258Q300 213 271 169T213 79H277V0H35V79H110L292 357L120 621H35V700Z" />
<glyph unicode="Y" glyph-name="Y" horiz-adv-x="789" d="M277 79H344V270Q291 358 240 445T136 621H35V700H277V621H237Q274 560 310 499T383 377L394 346H395L407 377L551 621H512V700H754V621H653Q601 533 550 445T446 269V79H519V0H277V79Z" />
<glyph unicode="Z" glyph-name="Z" horiz-adv-x="629" d="M594 242V0H35V80L463 621H51V735H134V700H565V621L137 80H515V242H594Z" />
<glyph unicode="[" glyph-name="bracketleft" horiz-adv-x="338" d="M83 -149V746H275V665H166V-68H275V-149H83Z" />
<glyph unicode="\" glyph-name="backslash" horiz-adv-x="385" d="M94 736Q164 546 233 359T372 -19H278Q208 171 139 358T0 736H94Z" />
<glyph unicode="]" glyph-name="bracketright" horiz-adv-x="342" d="M251 746V-149H59V-68H168V665H59V746H251Z" />
<glyph unicode="^" glyph-name="asciicircum" horiz-adv-x="470" d="M232 660Q262 615 292 570T352 479H293Q278 497 263 515T232 551Q217 533 202 515T171 479H112Q142 524 172 569T232 660Z" />
<glyph unicode="_" glyph-name="underscore" horiz-adv-x="600" d="M500 0H100V81H500V0Z" />
<glyph unicode="`" glyph-name="grave" horiz-adv-x="200" d="M33 612Q56 579 78 546T123 479H64Q35 512 7 545T-51 612H33Z" />
<glyph unicode="a" glyph-name="a" horiz-adv-x="547" d="M35 187Q35 226 50 262T93 325T157 368T236 384Q263 384 286 376T326 359T353 340T363 328Q363 339 365 351T367 375H436V79H512V0H363V20V40Q362 37 353 29T328 13T288 -2T236 -9Q194 -9 157 6T93 49T51
111T35 187ZM119 188Q119 139 151 106T236 72Q288 72 320 105T353 188Q353 238 321 270T236 303Q184 303 152 271T119 188Z" />
<glyph unicode="b" glyph-name="b" horiz-adv-x="547" d="M35 79H111V671H45V750H194V362Q192 354 189 347T184 331Q185 334 195 343T223 361T262 377T311 384Q353 384 390 369T454 326T496 264T512 188Q512 148 497 112T454 49T390 7T311 -9Q282 -9 259 -3T220
12T194 29T184 40V20V0H35V79ZM428 188Q428 238 396 270T311 303Q259 303 227 271T194 188Q194 139 226 106T311 72Q363 72 395 105T428 188Z" />
<glyph unicode="c" glyph-name="c" horiz-adv-x="397" d="M360 34Q334 14 303 3T235 -9Q193 -9 157 6T93 49T51 111T35 188Q35 228 50 264T93 326T156 368T235 384Q272 384 304 373T362 341V225H288V292Q263 303 235 303Q183 303 151 271T118 188Q118 139 150
106T235 72Q279 72 310 97L360 34Z" />
<glyph unicode="d" glyph-name="d" horiz-adv-x="547" d="M363 20V40Q362 37 353 29T328 13T288 -2T236 -9Q194 -9 157 6T93 49T51 112T35 188Q35 228 50 263T93 326T157 368T236 384Q261 384 283 377T323 361T350 343T363 331Q361 339 358 346T353 362V671H287V750H436V79H512V0H363V20ZM119
188Q119 139 151 106T236 72Q288 72 320 105T353 188Q353 238 321 270T236 303Q184 303 152 271T119 188Z" />
<glyph unicode="e" glyph-name="e" horiz-adv-x="450" d="M235 303Q184 303 152 273T118 196Q165 213 211 230T305 265Q291 282 274 292T235 303ZM411 218Q343 193 276 168T140 118Q155 97 179 85T235 72Q281 72 311 104L362 44Q337 19 305 5T235 -9Q193 -9 157
6T93 49T51 111T35 188Q35 228 50 264T93 326T156 368T235 384Q266 384 294 372T345 337T385 285T411 218Z" />
<glyph unicode="f" glyph-name="f" horiz-adv-x="336" d="M35 79H96V294H35V375H95V517Q95 573 113 616T164 688T240 733T336 751V672Q267 668 223 628T178 514V375H296V294H178V79H257V0H35V79Z" />
<glyph unicode="g" glyph-name="g" horiz-adv-x="547" d="M367 375H512V296H436V-60Q436 -100 421 -134T378 -194T315 -235T237 -250Q192 -250 150 -231T78 -190L133 -122Q153 -137 179 -150T235 -164Q261 -164 282 -155T320 -131T344 -94T353 -47V20Q355 24 357
28T361 38Q358 33 348 26T322 11T285 -2T236 -8Q194 -8 157 7T93 49T51 111T35 187Q35 226 50 262T93 325T157 368T236 384Q263 384 286 376T326 359T353 340T363 328Q363 339 365 351T367 375ZM119 188Q119 139 151 106T236 72Q288 72 320 105T353 188Q353 238
321 270T236 303Q184 303 152 271T119 188Z" />
<glyph unicode="h" glyph-name="h" horiz-adv-x="580" d="M323 79H400V234Q398 261 381 280T325 302Q299 302 276 293T234 268T205 230T194 182V79H257V0H35V79H111V671H35V750H194V324L191 279Q213 328 255 354T354 384Q413 384 447 353T483 272V79H545V0H323V79Z" />
<glyph unicode="i" glyph-name="i" horiz-adv-x="292" d="M35 79H105V296H35V375H188V79H257V0H35V79ZM96 520Q96 543 112 558T148 573Q167 573 183 558T199 520Q199 497 183 483T148 468Q128 468 112 482T96 520Z" />
<glyph unicode="j" glyph-name="j" horiz-adv-x="212" d="M35 375H177V0Q177 -61 156 -106T97 -181L40 -119Q66 -99 80 -69T94 3V296H35V375ZM87 520Q87 543 103 558T139 573Q158 573 174 558T190 520Q190 497 174 483T139 468Q119 468 103 482T87 520Z" />
<glyph unicode="k" glyph-name="k" horiz-adv-x="527" d="M291 79H302Q287 99 272 119T243 160L194 114V79H257V0H35V79H111V671H45V750H194V211L285 296H248V375H449V296H387Q365 276 344 255T301 214Q325 180 349 147T399 79H492V0H291V79Z" />
<glyph unicode="l" glyph-name="l" horiz-adv-x="292" d="M35 79H111V671H45V750H194V79H257V0H35V79Z" />
<glyph unicode="m" glyph-name="m" horiz-adv-x="870" d="M613 79H689V234Q687 261 670 280T614 302Q588 302 565 293T523 268T494 230T483 182V79H546V0H324V79H400V234Q398 261 381 280T325 302Q299 302 276 293T234 268T205 230T194 182V79H257V0H35V79H111V296H45V375H184V366Q186
342 187 323T191 279Q212 327 254 354T354 384Q409 384 442 357T482 284Q504 330 546 356T643 384Q702 384 736 353T772 272V79H835V0H613V79Z" />
<glyph unicode="n" glyph-name="n" horiz-adv-x="580" d="M323 79H400V234Q398 261 381 280T325 302Q299 302 276 293T234 268T205 230T194 182V79H257V0H35V79H111V296H45V375H184V366Q186 342 187 323T191 279Q211 327 255 355T354 384Q413 384 447 353T483
272V79H545V0H323V79Z" />
<glyph unicode="o" glyph-name="o" horiz-adv-x="471" d="M35 188Q35 228 50 264T93 326T156 368T235 384Q277 384 314 369T378 327T420 264T436 188Q436 147 421 112T378 49T314 7T235 -9Q193 -9 157 6T93 49T51 111T35 188ZM118 187Q118 163 127 142T151 106T188
81T233 72Q257 72 278 81T315 105T340 142T349 187Q349 211 340 232T315 269T278 294T233 303Q209 303 188 294T152 269T127 232T118 187Z" />
<glyph unicode="p" glyph-name="p" horiz-adv-x="548" d="M45 -171H112V296H35V375H181Q181 364 182 352T185 328Q186 331 196 340T224 359T263 376T312 384Q354 384 391 369T455 326T497 264T513 188Q513 148 498 112T455 49T391 7T312 -9Q284 -9 262 -3T224
11T199 26T186 38Q188 33 190 29T195 19V-171H267V-250H45V-171ZM429 188Q429 238 397 270T312 303Q260 303 228 271T195 188Q195 139 227 106T312 72Q364 72 396 105T429 188Z" />
<glyph unicode="q" glyph-name="q" horiz-adv-x="551" d="M277 -171H353V19Q355 24 357 28T362 38Q359 34 349 27T323 11T285 -3T236 -9Q194 -9 157 6T93 49T51 112T35 188Q35 228 50 263T93 326T157 368T236 384Q262 384 284 377T324 360T351 341T363 328Q363
339 365 351T367 375H516V296H436V-171H499V-250H277V-171ZM119 188Q119 139 151 106T236 72Q288 72 320 105T353 188Q353 238 321 270T236 303Q184 303 152 271T119 188Z" />
<glyph unicode="r" glyph-name="r" horiz-adv-x="370" d="M35 79H111V296H45V375H184V366Q186 342 187 323T191 279Q203 304 221 323T260 356T300 377T335 384L329 302Q268 302 231 268T194 182V79H257V0H35V79Z" />
<glyph unicode="s" glyph-name="s" horiz-adv-x="332" d="M121 120V81Q133 76 144 75T173 73Q174 73 180 73T195 77T209 88T217 109Q218 127 207 136T179 152T140 165T101 183T70 216T58 272Q58 303 70 324T100 358T139 378T177 384Q187 384 201 382T231 375T260
362T286 342V255H212V298Q197 303 182 303Q160 303 150 294T142 268Q144 256 157 249T187 234T225 218T262 196T290 162T301 110Q301 96 296 76T276 37T237 5T172 -8Q135 -8 101 1T47 33V120H121Z" />
<glyph unicode="t" glyph-name="t" horiz-adv-x="335" d="M119 619H202V375H300V294H202V79H277V0H119V294H35V375H119V619Z" />
<glyph unicode="u" glyph-name="u" horiz-adv-x="570" d="M35 375H184V141Q186 114 203 95T259 73Q285 73 308 82T350 107T379 145T390 193V296H324V375H473V70H535V0H390V51L393 96Q373 48 329 20T230 -9Q171 -9 137 22T101 103V296H35V375Z" />
<glyph unicode="v" glyph-name="v" horiz-adv-x="584" d="M35 375H257V296H205Q231 252 255 208T293 120Q307 164 330 208T380 296H320V375H549V296H466Q423 215 380 136T293 -23Q249 57 206 136T119 296H35V375Z" />
<glyph unicode="w" glyph-name="w" horiz-adv-x="830" d="M581 375H795V296H719Q679 215 639 136T558 -23L422 246L286 -23Q245 57 205 136T124 296H35V375H242V296H207Q229 252 250 209T286 120Q297 154 312 186T344 252Q349 263 354 274T365 296H314V375H536V296H479Q501
252 522 209T558 120Q573 165 593 208T637 296H581V375Z" />
<glyph unicode="x" glyph-name="x" horiz-adv-x="526" d="M35 375H257V296H234L277 237L319 296H292V375H491V296H418L329 173Q346 149 363 126T399 79H491V0H269V79H294Q283 93 274 106T254 133Q244 119 234 106T214 79H234V0H35V79H112Q135 110 157 140T203
202Q186 225 169 249T134 296H35V375Z" />
<glyph unicode="y" glyph-name="y" horiz-adv-x="617" d="M92 -171H182Q203 -128 224 -85T268 0Q230 75 194 148T119 296H35V375H257V296H204Q233 241 262 186T310 74Q329 130 357 185T415 296H353V375H582V296H500Q441 178 383 63T265 -171H314V-250H92V-171Z" />
<glyph unicode="z" glyph-name="z" horiz-adv-x="435" d="M400 138V0H35V81Q66 109 93 135T147 188T201 241T260 296H47V410H121V375H377V294Q345 266 318 240T265 187T211 135T152 81H326V138H400Z" />
<glyph unicode="{" glyph-name="braceleft" horiz-adv-x="320" d="M30 256V337Q54 338 69 351T94 385T106 428T109 472V628Q109 674 118 698T144 733T181 745T227 746H290V665H246Q231 665 221 661T205 646T197 614T194 562V433Q194 402 188 380T171 341T150 315T129
298Q139 292 150 282T171 255T187 216T194 164V35Q194 3 196 -17T205 -49T221 -64T246 -68H290V-149H227Q204 -149 183 -148T145 -137T119 -102T109 -31V121Q109 141 106 164T94 208T70 241T30 256Z" />
<glyph unicode="|" glyph-name="bar" horiz-adv-x="271" d="M91 -232V700H175V-232H91Z" />
<glyph unicode="}" glyph-name="braceright" horiz-adv-x="320" d="M290 337V256Q266 255 251 242T227 208T215 165T211 121V-31Q211 -78 202 -102T176 -136T139 -148T93 -149H30V-68H74Q89 -68 99 -64T115 -49T123 -18T126 35V164Q126 194 132 216T149 255T170
281T191 298Q181 304 170 314T149 341T133 379T126 433V562Q126 594 124 614T115 645T99 661T74 665H30V746H93Q116 746 137 745T175 734T201 699T211 628V472Q211 452 214 429T226 385T250 352T290 337Z" />
<glyph unicode="~" glyph-name="asciitilde" horiz-adv-x="489" d="M271 481Q256 497 245 502T219 507Q205 507 187 498T166 461L121 464Q122 484 131 500T153 528T181 546T212 552Q235 552 253 543T289 519Q304 503 315 498T341 493Q348 493 356 495T373 502T386
516T394 539L439 536Q438 516 429 500T407 472T379 455T348 449Q325 449 307 458T271 481Z" />
<glyph unicode="&#xa0;" glyph-name="space" horiz-adv-x="300" />
<glyph unicode="&#xa1;" glyph-name="exclamdown" horiz-adv-x="200" d="M100 540Q80 540 64 525T48 487Q48 464 64 450T100 435Q119 435 135 449T151 487Q151 510 135 525T100 540ZM58 -210H141V374H58V-210Z" />
<glyph unicode="&#xa2;" glyph-name="cent" horiz-adv-x="385" d="M311 97L361 34Q339 17 316 8T263 -7V-68H179V0Q148 9 122 27T76 69T47 124T36 188Q36 221 46 251T76 306T121 349T179 376V438H263V382Q292 379 317 368T363 341L362 340V311V225H288V292Q282
295 276 296T263 300V74Q276 77 288 83T311 97ZM119 188Q119 154 135 127T179 85V289Q151 275 135 249T119 188Z" />
<glyph unicode="&#xa3;" glyph-name="sterling" horiz-adv-x="574" d="M547 0H29V81H73Q89 81 99 84T115 99T123 129T125 181V273H60V354H125V500Q125 569 183 601T346 634Q413 634 453 604T513 534L450 497Q445 504 439 513T421 532T392 547T346 553Q278 553
244 539T209 478V354H326V273H209V163Q209 134 207 115T188 81H463V177Q484 177 505 177T547 178V0Z" />
<glyph unicode="&#xa4;" glyph-name="currency" horiz-adv-x="500" d="M171 360Q171 328 193 306T248 283Q264 283 278 289T303 305T320 330T326 360Q326 392 303 415T248 438Q232 438 218 432T194 416T177 391T171 360ZM87 361Q87 383 92 402T108 439Q102 445
97 451T85 463L144 522L168 498Q187 507 206 513T247 519Q269 519 289 514T327 498L351 522L410 463L388 441Q410 403 410 361Q410 317 387 280L411 256L352 197Q345 203 339 209T326 222Q291 202 247 202Q205 202 169 221L144 196L85 255L109 279Q87 317 87 361Z"
/>
<glyph unicode="&#xa5;" glyph-name="yen" horiz-adv-x="638" d="M541 100H424V79H497V0H255V79H322V100H207V181H322V263H207V344H278L114 621H13V700H255V621H215Q252 560 288 499T361 377L372 346H373L385 377L529 621H490V700H732V621H631Q590 551 550 482T468
344H540V263H424V236V181H541V100Z" />
<glyph unicode="&#xa6;" glyph-name="brokenbar" horiz-adv-x="215" d="M153 -233H69V117H153V-233ZM153 350H69V700H153V350Z" />
<glyph unicode="&#xa7;" glyph-name="section" horiz-adv-x="500" d="M194 360Q194 333 212 315T258 296Q284 296 303 314T322 360Q322 386 304 405T258 424Q232 424 213 406T194 360ZM217 148Q189 192 174 218T150 257T140 275T138 282Q117 316 117 358Q117 383
125 407T148 451T187 484T240 500Q226 521 214 542T193 584T178 622T172 652Q172 673 184 688T213 716T252 740T291 762Q302 745 312 727T333 692L294 670Q281 662 275 654T268 635Q269 625 274 612T290 580L380 431Q400 398 400 357Q400 331 392 308T367 265T328
232T275 214Q304 169 325 127T346 60Q346 39 335 23T305 -5T267 -28T228 -50Q217 -33 207 -15T186 20L225 43Q236 50 242 57T249 75Q249 96 217 148Z" />
<glyph unicode="&#xa8;" glyph-name="dieresis" horiz-adv-x="370" d="M215 520Q215 543 231 558T267 573Q286 573 302 558T318 520Q318 497 302 483T267 468Q247 468 231 482T215 520ZM49 520Q49 543 65 558T101 573Q120 573 136 558T152 520Q152 497 136 483T101
468Q81 468 65 482T49 520Z" />
<glyph unicode="&#xa9;" glyph-name="copyright" horiz-adv-x="793" d="M400 148Q447 148 488 165T559 212T606 283T623 372Q623 421 606 462T559 533T488 580T400 597Q353 597 312 580T241 533T194 462T177 372Q177 324 194 283T241 212T312 165T400 148ZM400
111Q346 111 298 131T215 186T158 268T137 372Q137 429 158 477T214 560T298 614T400 634Q454 634 502 615T585 560T642 477T663 372Q663 316 642 269T586 186T502 131T400 111ZM465 464V492Q442 502 418 502Q392 502 370 492T331 465T304 424T294 375Q294 349
304 326T330 286T369 259T418 249Q452 249 480 266L500 236Q482 225 462 219T418 213Q385 213 356 226T304 261T270 312T257 375Q257 409 269 438T304 490T355 524T418 537Q462 537 501 515V464H465Z" />
<glyph unicode="&#xaa;" glyph-name="ordfeminine" horiz-adv-x="585" d="M83 441Q83 469 94 495T125 540T171 571T228 583Q248 583 264 577T293 565T312 552T320 543Q320 551 321 559T323 576H373V363H427V306H320V320V335Q319 333 313 327T294 315T266 305T228
300Q198 300 172 311T126 341T95 386T83 441ZM144 442Q144 406 167 382T228 358Q266 358 289 382T313 442Q313 478 290 501T228 525Q191 525 168 502T144 442Z" />
<glyph unicode="&#xab;" glyph-name="guillemotleft" horiz-adv-x="601" d="M459 77L288 239Q331 280 373 319T459 400V306Q442 289 427 273T394 239Q411 222 426 206T459 172V77ZM288 77L117 239Q160 280 202 319T288 400V305Q271 288 256 272T223 239Q240 222
255 206T288 172V77Z" />
<glyph unicode="&#xac;" glyph-name="logicalnot" horiz-adv-x="559" d="M376 148V188H100V248H460V148H376Z" />
<glyph unicode="&#xad;" glyph-name="hyphen" horiz-adv-x="300" d="M53 147V228H237V147H53Z" />
<glyph unicode="&#xae;" glyph-name="registered" horiz-adv-x="801" d="M400 148Q447 148 488 165T559 212T606 283T623 372Q623 421 606 462T559 533T488 580T400 597Q353 597 312 580T241 533T194 462T177 372Q177 324 194 283T241 212T312 165T400 148ZM400
111Q346 111 298 131T215 186T158 268T137 372Q137 429 158 477T214 560T298 614T400 634Q454 634 502 615T585 560T642 477T663 372Q663 316 642 269T586 186T502 131T400 111ZM310 247H331V504H310V541H409Q425 541 444 536T481 520T510 492T522 451Q522 416
504 392T452 360L505 247H549V210H480L411 358H390H370V247H424V210H310V247ZM370 395H412Q433 395 446 400T468 414T479 432T482 451Q482 472 462 488T412 504H370V395Z" />
<glyph unicode="&#xaf;" glyph-name="overscore" horiz-adv-x="399" d="M85 478V531H315V478H85Z" />
<glyph unicode="&#xb0;" glyph-name="degree" horiz-adv-x="282" d="M138 511Q158 511 172 525T187 559Q187 579 173 593T138 608Q118 608 104 594T90 559Q90 539 104 525T138 511ZM36 560Q36 581 44 599T65 630T98 652T138 660Q159 660 177 652T208 631T230 599T238
560Q238 539 230 521T209 489T177 468T138 460Q117 460 98 467T66 488T44 520T36 560Z" />
<glyph unicode="&#xb1;" glyph-name="plusminus" horiz-adv-x="524" d="M224 211V350H86V431H224V571H308V431H446V350H308V211H224ZM446 100H86V181H446V100Z" />
<glyph unicode="&#xb2;" glyph-name="twosuperior" horiz-adv-x="398" d="M203 415H284V461H323V375H104Q135 406 163 434T214 490T249 542T263 591Q263 610 257 622T242 643T223 656T203 660Q184 660 172 654T154 638T144 618T141 600Q141 583 146 571T160 548L136
523Q127 529 121 538T110 557T103 579T100 600Q100 619 106 637T126 670T158 692T203 700Q226 700 244 692T276 669T297 637T304 597Q304 573 296 550T273 504T241 459T203 415Z" />
<glyph unicode="&#xb3;" glyph-name="threesuperior" horiz-adv-x="419" d="M124 541L193 660H138V637H99V700H261L191 583Q207 577 220 568T243 545T258 517T264 483Q264 461 256 442T232 408T198 385T156 376Q132 376 112 385T77 411L107 439Q116 428 128 422T156
416Q170 416 182 421T203 436T217 457T223 483Q223 497 218 509T203 530T182 544T156 549Q138 549 124 541Z" />
<glyph unicode="&#xb4;" glyph-name="acute" horiz-adv-x="274" d="M100 479Q123 512 145 545T190 612H274Q245 579 217 546T159 479H100Z" />
<glyph unicode="&#xb5;" glyph-name="mu" horiz-adv-x="545" d="M305 375H454V70H516V0H371V51L374 96Q354 48 310 20T211 -9Q186 -9 165 -3V-201H82V296H16V375H165V141Q167 114 184 95T240 73Q266 73 289 82T331 107T360 145T371 193V296H305V375Z" />
<glyph unicode="&#xb6;" glyph-name="paragraph" horiz-adv-x="547" d="M284 0H201V423Q167 423 137 435T85 470T51 522T38 586Q38 620 50 650T85 702T137 737T201 750H516V680H447V70H516V0H364V680H284V0Z" />
<glyph unicode="&#xb7;" glyph-name="middot" horiz-adv-x="168" d="M34 282Q34 305 50 320T86 335Q105 335 121 320T137 282Q137 259 121 245T86 230Q66 230 50 244T34 282Z" />
<glyph unicode="&#xb8;" glyph-name="cedilla" horiz-adv-x="452" d="M184 0H235V-7Q235 -21 239 -29T249 -43T263 -52T277 -61Q298 -77 306 -97T315 -142Q315 -163 309 -182T289 -217T256 -241T210 -250Q176 -250 148 -232T106 -175Q117 -169 129 -163T152 -151Q157
-167 170 -177T203 -188Q227 -188 240 -172T253 -132Q253 -112 242 -101T219 -80T195 -61T184 -34V0Z" />
<glyph unicode="&#xb9;" glyph-name="onesuperior" horiz-adv-x="273" d="M53 437H89V663H58V700H128V437H164V401H53V437Z" />
<glyph unicode="&#xba;" glyph-name="ordmasculine" horiz-adv-x="469" d="M90 442Q90 470 101 496T132 541T178 572T234 583Q265 583 291 572T337 542T368 496T379 442Q379 412 368 387T338 342T292 311T234 300Q204 300 178 311T133 341T102 386T90 442ZM150
441Q150 424 156 409T174 382T200 365T233 358Q250 358 265 364T292 382T310 408T317 441Q317 458 311 473T293 500T266 518T233 525Q216 525 201 519T174 500T157 473T150 441Z" />
<glyph unicode="&#xbb;" glyph-name="guillemotright" horiz-adv-x="601" d="M117 77L288 239Q245 280 203 319T117 400V306Q134 289 149 273T182 239Q165 222 150 206T117 172V77ZM288 77L459 239Q416 280 374 319T288 400V305Q305 288 320 272T353 239Q336 222
321 206T288 172V77Z" />
<glyph unicode="&#xbc;" glyph-name="onequarter" horiz-adv-x="968" d="M256 -19Q326 171 395 358T534 736H618Q548 546 479 359T340 -19H256ZM655 59H711V136H501L773 490V197H845V136H773V59H835V0H655V59ZM711 308L626 197H711V308ZM113 290H169V638H121V695H229V290H285V234H113V290Z"
/>
<glyph unicode="&#xbd;" glyph-name="onehalf" horiz-adv-x="1069" d="M113 290H169V638H121V695H229V290H285V234H113V290ZM689 57H805V123H861V0H548Q591 44 632 85T705 165T756 240T776 311Q776 337 768 355T746 386T717 404T689 410Q662 410 645 401T618 378T605
349T601 323Q601 300 608 282T628 249L593 213Q581 221 572 234T555 262T545 293T541 323Q541 351 550 377T579 424T625 455T689 467Q722 467 749 455T795 423T824 376T835 319Q835 284 823 251T790 186T744 121T689 57ZM256 -19Q326 171 395 358T534 736H618Q548
546 479 359T340 -19H256Z" />
<glyph unicode="&#xbe;" glyph-name="threequarters" horiz-adv-x="1276" d="M212 457L320 644H234V608H173V708H427L316 524Q342 514 363 499T399 464T423 420T432 367Q432 332 419 302T382 248T328 212T262 199Q225 199 194 214T139 254L186 298Q200 281 219
271T262 261Q284 261 303 269T336 292T358 326T367 367Q367 388 359 407T336 440T303 462T262 470Q234 470 212 457ZM446 -19Q516 171 585 358T724 736H808Q738 546 669 359T530 -19H446ZM854 59H910V136H700L972 490V197H1044V136H972V59H1034V0H854V59ZM910 308L825
197H910V308Z" />
<glyph unicode="&#xbf;" glyph-name="questiondown" horiz-adv-x="452" d="M354 -13Q372 -20 390 -26T427 -40Q420 -62 407 -88T371 -138T313 -177T227 -193Q186 -193 150 -178T88 -136T46 -74T31 2Q31 58 57 99T129 175Q143 185 159 195T189 219T212 251T221
297V375H305V278Q305 246 295 226T268 191T230 162T186 130Q150 103 133 71T116 2Q116 -47 146 -79T227 -112Q283 -112 311 -87T354 -13ZM264 539Q284 539 300 525T316 487Q316 464 300 449T264 434Q245 434 229 449T213 487Q213 510 229 524T264 539Z" />
<glyph unicode="&#xc0;" glyph-name="Agrave" horiz-adv-x="788" d="M35 79H117Q186 244 255 405T394 732Q463 567 532 406T671 79H753V0H531V79H587Q566 129 546 178T504 277H284L200 79H257V0H35V79ZM403 515L393 548Q392 546 391 541T388 530Q386 523 383 515Q370
486 359 458Q349 434 338 406T318 356H470L403 515ZM329 883Q352 850 374 817T419 750H360Q331 783 303 816T245 883H329Z" />
<glyph unicode="&#xc1;" glyph-name="Aacute" horiz-adv-x="788" d="M366 750Q389 783 411 816T456 883H540Q511 850 483 817T425 750H366ZM35 79H117Q186 244 255 405T394 732Q463 567 532 406T671 79H753V0H531V79H587Q566 129 546 178T504 277H284L200 79H257V0H35V79ZM403
515L393 548Q392 546 391 541T388 530Q386 523 383 515Q370 486 359 458Q349 434 338 406T318 356H470L403 515Z" />
<glyph unicode="&#xc2;" glyph-name="Acircumflex" horiz-adv-x="788" d="M394 931Q424 886 454 841T514 750H455Q440 768 425 786T394 822Q379 804 364 786T333 750H274Q304 795 334 840T394 931ZM35 79H117Q186 244 255 405T394 732Q463 567 532 406T671 79H753V0H531V79H587Q566
129 546 178T504 277H284L200 79H257V0H35V79ZM403 515L393 548Q392 546 391 541T388 530Q386 523 383 515Q370 486 359 458Q349 434 338 406T318 356H470L403 515Z" />
<glyph unicode="&#xc3;" glyph-name="Atilde" horiz-adv-x="788" d="M384 785Q369 801 358 806T332 811Q318 811 300 802T279 765L234 768Q235 788 244 804T266 832T294 850T325 856Q348 856 366 847T402 823Q417 807 428 802T454 797Q461 797 469 799T486 806T499
820T507 843L552 840Q551 820 542 804T520 776T492 759T461 753Q438 753 420 762T384 785ZM35 79H117Q186 244 255 405T394 732Q463 567 532 406T671 79H753V0H531V79H587Q566 129 546 178T504 277H284L200 79H257V0H35V79ZM403 515L393 548Q392 546 391 541T388
530Q386 523 383 515Q370 486 359 458Q349 434 338 406T318 356H470L403 515Z" />
<glyph unicode="&#xc4;" glyph-name="Adieresis" horiz-adv-x="788" d="M425 810Q425 833 441 848T477 863Q496 863 512 848T528 810Q528 787 512 773T477 758Q457 758 441 772T425 810ZM259 810Q259 833 275 848T311 863Q330 863 346 848T362 810Q362 787 346
773T311 758Q291 758 275 772T259 810ZM35 79H117Q186 244 255 405T394 732Q463 567 532 406T671 79H753V0H531V79H587Q566 129 546 178T504 277H284L200 79H257V0H35V79ZM403 515L393 548Q392 546 391 541T388 530Q386 523 383 515Q370 486 359 458Q349 434 338
406T318 356H470L403 515Z" />
<glyph unicode="&#xc5;" glyph-name="Aring" horiz-adv-x="788" d="M35 79H117Q186 244 255 405T394 732Q463 567 532 406T671 79H753V0H531V79H587Q566 129 546 178T504 277H284L200 79H257V0H35V79ZM403 515L393 548Q392 546 391 541T388 530Q386 523 383 515Q370
486 359 458Q349 434 338 406T318 356H470L403 515ZM361 837Q361 823 370 814T393 805Q407 805 416 814T426 837Q426 851 417 860T393 870Q379 870 370 861T361 837ZM306 838Q306 856 313 871T332 899T359 918T393 925Q411 925 426 918T454 899T473 872T480 838Q480
820 473 805T454 777T427 758T393 751Q375 751 360 758T332 777T313 804T306 838Z" />
<glyph unicode="&#xc6;" glyph-name="AE" horiz-adv-x="777" d="M649 546V621H475V392H689V313H475V79H663V154H742V0H392V264H277Q257 217 238 172T198 79H257V0H35V79H115Q181 235 246 389T378 700H728V546H649ZM392 343V548Q378 496 355 445T310 343H392Z" />
<glyph unicode="&#xc7;" glyph-name="Ccedilla" horiz-adv-x="572" d="M496 436V607Q446 629 392 629Q335 629 286 607T199 547T140 457T118 349Q118 292 139 241T198 153T285 93T392 71Q466 71 529 108L574 42Q536 20 494 7T406 -8Q406 -21 407 -22Q412 -41 424
-47T448 -61Q469 -77 477 -97T486 -142Q486 -163 480 -182T460 -217T427 -241T381 -250Q347 -250 319 -232T277 -175L323 -151Q328 -167 341 -177T374 -188Q398 -188 411 -172T424 -132Q424 -112 413 -101T390 -80T366 -61T355 -34V-6Q287 1 229 31T128 108T60
218T35 349Q35 423 63 488T139 602T253 679T392 708Q443 708 488 695T575 658V436H496Z" />
<glyph unicode="&#xc8;" glyph-name="Egrave" horiz-adv-x="571" d="M35 79H91V621H35V700H522V546H443V621H174V392H483V313H174V79H457V154H536V0H35V79ZM229 883Q252 850 274 817T319 750H260Q231 783 203 816T145 883H229Z" />
<glyph unicode="&#xc9;" glyph-name="Eacute" horiz-adv-x="571" d="M35 79H91V621H35V700H522V546H443V621H174V392H483V313H174V79H457V154H536V0H35V79ZM263 750Q286 783 308 816T353 883H437Q408 850 380 817T322 750H263Z" />
<glyph unicode="&#xca;" glyph-name="Ecircumflex" horiz-adv-x="571" d="M35 79H91V621H35V700H522V546H443V621H174V392H483V313H174V79H457V154H536V0H35V79ZM300 931Q330 886 360 841T420 750H361Q346 768 331 786T300 822Q285 804 270 786T239 750H180Q210
795 240 840T300 931Z" />
<glyph unicode="&#xcb;" glyph-name="Edieresis" horiz-adv-x="571" d="M35 79H91V621H35V700H522V546H443V621H174V392H483V313H174V79H457V154H536V0H35V79ZM322 810Q322 833 338 848T374 863Q393 863 409 848T425 810Q425 787 409 773T374 758Q354 758 338
772T322 810ZM156 810Q156 833 172 848T208 863Q227 863 243 848T259 810Q259 787 243 773T208 758Q188 758 172 772T156 810Z" />
<glyph unicode="&#xcc;" glyph-name="Igrave" horiz-adv-x="312" d="M35 79H114V621H35V700H277V621H197V79H277V0H35V79ZM84 883Q107 850 129 817T174 750H115Q86 783 58 816T0 883H84Z" />
<glyph unicode="&#xcd;" glyph-name="Iacute" horiz-adv-x="312" d="M35 79H114V621H35V700H277V621H197V79H277V0H35V79ZM135 750Q158 783 180 816T225 883H309Q280 850 252 817T194 750H135Z" />
<glyph unicode="&#xce;" glyph-name="Icircumflex" horiz-adv-x="315" d="M35 79H114V621H35V700H277V621H197V79H277V0H35V79ZM158 931Q188 886 218 841T278 750H219Q204 768 189 786T158 822Q143 804 128 786T97 750H38Q68 795 98 840T158 931Z" />
<glyph unicode="&#xcf;" glyph-name="Idieresis" horiz-adv-x="315" d="M35 79H114V621H35V700H277V621H197V79H277V0H35V79ZM189 810Q189 833 205 848T241 863Q260 863 276 848T292 810Q292 787 276 773T241 758Q221 758 205 772T189 810ZM23 810Q23 833 39 848T75
863Q94 863 110 848T126 810Q126 787 110 773T75 758Q55 758 39 772T23 810Z" />
<glyph unicode="&#xd0;" glyph-name="Eth" horiz-adv-x="632" d="M44 390H82V621H35V700H245Q317 700 381 676T493 605T569 495T597 349Q597 290 577 228T510 116T391 33T211 0H35V79H82V309H44V390ZM165 621V390H346V309H165V79H235Q294 79 345 98T433 153T492
238T514 350Q514 412 493 462T434 547T345 602T235 621H165Z" />
<glyph unicode="&#xd1;" glyph-name="Ntilde" horiz-adv-x="817" d="M35 79H122V621H35V700H151L634 177L653 151L650 183V621H578V700H820V621H733V-32L221 512L202 538L205 506V79H277V0H35V79ZM391 773Q376 789 365 794T339 799Q325 799 307 790T286 753L241
756Q242 776 251 792T273 820T301 838T332 844Q355 844 373 835T409 811Q424 795 435 790T461 785Q468 785 476 787T493 794T506 808T514 831L559 828Q558 808 549 792T527 764T499 747T468 741Q445 741 427 750T391 773Z" />
<glyph unicode="&#xd2;" glyph-name="Ograve" horiz-adv-x="786" d="M35 349Q35 422 63 487T139 602T253 679T392 708Q465 708 530 680T645 602T722 488T751 349Q751 275 723 210T645 97T531 20T392 -8Q318 -8 253 20T140 96T63 210T35 349ZM118 349Q118 291 139
241T198 153T286 93T393 71Q450 71 500 93T587 152T646 240T668 349Q668 407 647 457T588 546T500 606T393 628Q336 628 286 606T199 546T140 458T118 349ZM343 883Q366 850 388 817T433 750H374Q345 783 317 816T259 883H343Z" />
<glyph unicode="&#xd3;" glyph-name="Oacute" horiz-adv-x="786" d="M35 349Q35 422 63 487T139 602T253 679T392 708Q465 708 530 680T645 602T722 488T751 349Q751 275 723 210T645 97T531 20T392 -8Q318 -8 253 20T140 96T63 210T35 349ZM118 349Q118 291 139
241T198 153T286 93T393 71Q450 71 500 93T587 152T646 240T668 349Q668 407 647 457T588 546T500 606T393 628Q336 628 286 606T199 546T140 458T118 349ZM368 750Q391 783 413 816T458 883H542Q513 850 485 817T427 750H368Z" />
<glyph unicode="&#xd4;" glyph-name="Ocircumflex" horiz-adv-x="786" d="M35 349Q35 422 63 487T139 602T253 679T392 708Q465 708 530 680T645 602T722 488T751 349Q751 275 723 210T645 97T531 20T392 -8Q318 -8 253 20T140 96T63 210T35 349ZM118 349Q118
291 139 241T198 153T286 93T393 71Q450 71 500 93T587 152T646 240T668 349Q668 407 647 457T588 546T500 606T393 628Q336 628 286 606T199 546T140 458T118 349ZM397 931Q427 886 457 841T517 750H458Q443 768 428 786T397 822Q382 804 367 786T336 750H277Q307
795 337 840T397 931Z" />
<glyph unicode="&#xd5;" glyph-name="Otilde" horiz-adv-x="786" d="M35 349Q35 422 63 487T139 602T253 679T392 708Q465 708 530 680T645 602T722 488T751 349Q751 275 723 210T645 97T531 20T392 -8Q318 -8 253 20T140 96T63 210T35 349ZM118 349Q118 291 139
241T198 153T286 93T393 71Q450 71 500 93T587 152T646 240T668 349Q668 407 647 457T588 546T500 606T393 628Q336 628 286 606T199 546T140 458T118 349ZM385 808Q370 824 359 829T333 834Q319 834 301 825T280 788L235 791Q236 811 245 827T267 855T295 873T326
879Q349 879 367 870T403 846Q418 830 429 825T455 820Q462 820 470 822T487 829T500 843T508 866L553 863Q552 843 543 827T521 799T493 782T462 776Q439 776 421 785T385 808Z" />
<glyph unicode="&#xd6;" glyph-name="Odieresis" horiz-adv-x="786" d="M35 349Q35 422 63 487T139 602T253 679T392 708Q465 708 530 680T645 602T722 488T751 349Q751 275 723 210T645 97T531 20T392 -8Q318 -8 253 20T140 96T63 210T35 349ZM118 349Q118 291
139 241T198 153T286 93T393 71Q450 71 500 93T587 152T646 240T668 349Q668 407 647 457T588 546T500 606T393 628Q336 628 286 606T199 546T140 458T118 349ZM430 810Q430 833 446 848T482 863Q501 863 517 848T533 810Q533 787 517 773T482 758Q462 758 446
772T430 810ZM264 810Q264 833 280 848T316 863Q335 863 351 848T367 810Q367 787 351 773T316 758Q296 758 280 772T264 810Z" />
<glyph unicode="&#xd7;" glyph-name="multiply" horiz-adv-x="500" d="M364 0Q339 25 315 49T265 98L168 1Q154 15 139 29T110 58L208 156L109 255L168 314L267 215L365 313Q379 299 393 284T422 255L325 158Q350 133 374 109T423 59L364 0Z" />
<glyph unicode="&#xd8;" glyph-name="Oslash" horiz-adv-x="786" d="M118 349Q118 296 136 250T186 166Q276 271 364 374T543 582Q510 604 472 616T392 629Q335 629 286 607T199 547T140 457T118 349ZM392 71Q449 71 499 93T586 152T646 241T668 349Q668 401 650
447T600 531Q510 426 422 323T244 115Q276 94 313 83T392 71ZM35 349Q35 423 63 488T139 602T253 679T392 708Q449 708 500 691T596 644Q612 663 628 681T660 719Q674 706 689 694T718 668Q702 649 686 631T654 594Q699 546 725 483T751 349Q751 275 723 210T646
97T532 20T392 -8Q335 -8 285 8T191 53Q176 36 161 18T131 -17Q117 -4 102 8T73 34Q88 51 102 68T132 103Q87 151 61 214T35 349Z" />
<glyph unicode="&#xd9;" glyph-name="Ugrave" horiz-adv-x="729" d="M35 700H277V621H195V229Q195 191 207 162T242 112T296 82T364 71Q401 71 432 81T485 112T521 161T534 229V621H452V700H694V621H617V226Q617 169 598 125T544 52T464 7T364 -8Q310 -8 264 7T184
51T131 125T112 226V621H35V700ZM297 883Q320 850 342 817T387 750H328Q299 783 271 816T213 883H297Z" />
<glyph unicode="&#xda;" glyph-name="Uacute" horiz-adv-x="729" d="M35 700H277V621H195V229Q195 191 207 162T242 112T296 82T364 71Q401 71 432 81T485 112T521 161T534 229V621H452V700H694V621H617V226Q617 169 598 125T544 52T464 7T364 -8Q310 -8 264 7T184
51T131 125T112 226V621H35V700ZM340 750Q363 783 385 816T430 883H514Q485 850 457 817T399 750H340Z" />
<glyph unicode="&#xdb;" glyph-name="Ucircumflex" horiz-adv-x="729" d="M35 700H277V621H195V229Q195 191 207 162T242 112T296 82T364 71Q401 71 432 81T485 112T521 161T534 229V621H452V700H694V621H617V226Q617 169 598 125T544 52T464 7T364 -8Q310 -8
264 7T184 51T131 125T112 226V621H35V700ZM366 932Q396 887 426 842T486 751H427Q412 769 397 787T366 823Q351 805 336 787T305 751H246Q276 796 306 841T366 932Z" />
<glyph unicode="&#xdc;" glyph-name="Udieresis" horiz-adv-x="729" d="M35 700H277V621H195V229Q195 191 207 162T242 112T296 82T364 71Q401 71 432 81T485 112T521 161T534 229V621H452V700H694V621H617V226Q617 169 598 125T544 52T464 7T364 -8Q310 -8 264
7T184 51T131 125T112 226V621H35V700ZM397 810Q397 833 413 848T449 863Q468 863 484 848T500 810Q500 787 484 773T449 758Q429 758 413 772T397 810ZM231 810Q231 833 247 848T283 863Q302 863 318 848T334 810Q334 787 318 773T283 758Q263 758 247 772T231
810Z" />
<glyph unicode="&#xdd;" glyph-name="Yacute" horiz-adv-x="789" d="M277 79H344V270Q291 358 240 445T136 621H35V700H277V621H237Q274 560 310 499T383 377L394 346H395L407 377L551 621H512V700H754V621H653Q601 533 550 445T446 269V79H519V0H277V79ZM372
750Q395 783 417 816T462 883H546Q517 850 489 817T431 750H372Z" />
<glyph unicode="&#xde;" glyph-name="Thorn" horiz-adv-x="543" d="M35 79H106V621H35V700H257V621H189V535H271Q305 535 346 525T424 491T484 432T508 345Q508 254 454 201T298 147H189V79H277V0H35V79ZM189 227H276Q320 227 348 238T394 267T418 305T425 345Q425
367 414 387T383 423T336 448T277 457H189V227Z" />
<glyph unicode="&#xdf;" glyph-name="germandbls" horiz-adv-x="559" d="M35 79H95V334H35V415H95V423Q95 477 112 520T159 594T226 641T305 657Q338 657 367 645T418 610T452 559T465 497Q465 465 453 438T421 390Q467 361 495 314T524 208Q524 163 507 124T459
55T390 8T305 -9Q258 -9 219 9L253 83Q278 72 305 72Q333 72 357 83T400 112T430 155T441 208Q441 236 430 260T400 303T356 331T303 342Q303 352 303 361T302 382V423Q336 423 359 442T382 497Q382 528 360 552T306 576Q249 574 214 533T178 418V0H35V79Z" />
<glyph unicode="&#xe0;" glyph-name="agrave" horiz-adv-x="547" d="M35 187Q35 226 50 262T93 325T157 368T236 384Q263 384 286 376T326 359T353 340T363 328Q363 339 365 351T367 375H436V79H512V0H363V20V40Q362 37 353 29T328 13T288 -2T236 -9Q194 -9 157
6T93 49T51 111T35 187ZM119 188Q119 139 151 106T236 72Q288 72 320 105T353 188Q353 238 321 270T236 303Q184 303 152 271T119 188ZM188 612Q211 579 233 546T278 479H219Q190 512 162 545T104 612H188Z" />
<glyph unicode="&#xe1;" glyph-name="aacute" horiz-adv-x="547" d="M35 187Q35 226 50 262T93 325T157 368T236 384Q263 384 286 376T326 359T353 340T363 328Q363 339 365 351T367 375H436V79H512V0H363V20V40Q362 37 353 29T328 13T288 -2T236 -9Q194 -9 157
6T93 49T51 111T35 187ZM119 188Q119 139 151 106T236 72Q288 72 320 105T353 188Q353 238 321 270T236 303Q184 303 152 271T119 188ZM232 479Q255 512 277 545T322 612H406Q377 579 349 546T291 479H232Z" />
<glyph unicode="&#xe2;" glyph-name="acircumflex" horiz-adv-x="547" d="M35 187Q35 226 50 262T93 325T157 368T236 384Q263 384 286 376T326 359T353 340T363 328Q363 339 365 351T367 375H436V79H512V0H363V20V40Q362 37 353 29T328 13T288 -2T236 -9Q194
-9 157 6T93 49T51 111T35 187ZM119 188Q119 139 151 106T236 72Q288 72 320 105T353 188Q353 238 321 270T236 303Q184 303 152 271T119 188ZM261 660Q291 615 321 570T381 479H322Q307 497 292 515T261 551Q246 533 231 515T200 479H141Q171 524 201 569T261
660Z" />
<glyph unicode="&#xe3;" glyph-name="atilde" horiz-adv-x="547" d="M35 187Q35 226 50 262T93 325T157 368T236 384Q263 384 286 376T326 359T353 340T363 328Q363 339 365 351T367 375H436V79H512V0H363V20V40Q362 37 353 29T328 13T288 -2T236 -9Q194 -9 157
6T93 49T51 111T35 187ZM119 188Q119 139 151 106T236 72Q288 72 320 105T353 188Q353 238 321 270T236 303Q184 303 152 271T119 188ZM485 481Q470 497 459 502T433 507Q419 507 401 498T380 461L335 464Q336 484 345 500T367 528T395 546T426 552Q449 552 467
543T503 519Q518 503 529 498T555 493Q562 493 570 495T587 502T600 516T608 539L653 536Q652 516 643 500T621 472T593 455T562 449Q539 449 521 458T485 481Z" />
<glyph unicode="&#xe4;" glyph-name="adieresis" horiz-adv-x="547" d="M35 187Q35 226 50 262T93 325T157 368T236 384Q263 384 286 376T326 359T353 340T363 328Q363 339 365 351T367 375H436V79H512V0H363V20V40Q362 37 353 29T328 13T288 -2T236 -9Q194 -9
157 6T93 49T51 111T35 187ZM119 188Q119 139 151 106T236 72Q288 72 320 105T353 188Q353 238 321 270T236 303Q184 303 152 271T119 188ZM274 520Q274 543 290 558T326 573Q345 573 361 558T377 520Q377 497 361 483T326 468Q306 468 290 482T274 520ZM108 520Q108
543 124 558T160 573Q179 573 195 558T211 520Q211 497 195 483T160 468Q140 468 124 482T108 520Z" />
<glyph unicode="&#xe5;" glyph-name="aring" horiz-adv-x="547" d="M35 187Q35 226 50 262T93 325T157 368T236 384Q263 384 286 376T326 359T353 340T363 328Q363 339 365 351T367 375H436V79H512V0H363V20V40Q362 37 353 29T328 13T288 -2T236 -9Q194 -9 157
6T93 49T51 111T35 187ZM119 188Q119 139 151 106T236 72Q288 72 320 105T353 188Q353 238 321 270T236 303Q184 303 152 271T119 188ZM213 539Q213 525 222 516T245 507Q259 507 268 516T278 539Q278 553 269 562T245 572Q231 572 222 563T213 539ZM158 540Q158
558 165 573T184 601T211 620T245 627Q263 627 278 620T306 601T325 574T332 540Q332 522 325 507T306 479T279 460T245 453Q227 453 212 460T184 479T165 506T158 540Z" />
<glyph unicode="&#xe6;" glyph-name="ae" horiz-adv-x="613" d="M352 242V220Q382 231 412 242T472 264Q458 281 441 291T402 302Q373 302 349 291Q352 270 352 242ZM268 134H212Q198 134 182 133T151 129T128 121T119 106Q119 85 143 78T194 71Q205 71 218 71T242
75T260 85T268 108V134ZM94 274Q83 288 72 300T50 327Q61 338 78 348T116 366T157 378T197 383Q275 383 309 361Q353 383 402 383Q433 383 461 371T512 336T552 284T578 217Q521 196 465 175T352 133V129Q352 105 347 82Q359 76 373 74T402 71Q448 71 478 103L529
43Q504 18 472 4T402 -10Q349 -10 304 15Q267 -10 195 -10Q159 -10 130 -5T79 15T47 52T35 110Q35 141 47 162T79 196T126 214T179 220H268V244Q268 259 266 269T256 287T234 298T196 302Q183 302 169 300T140 293T114 284T94 274Z" />
<glyph unicode="&#xe7;" glyph-name="ccedilla" horiz-adv-x="398" d="M311 97L361 34Q335 14 303 3T235 -9Q235 -24 239 -32T249 -45T262 -53T277 -61Q298 -77 306 -97T315 -142Q315 -176 298 -204T247 -244Q230 -250 210 -250Q176 -250 148 -232T106 -175L152
-151Q157 -167 170 -177T203 -188Q227 -188 240 -172T253 -132Q253 -112 242 -101T219 -80T195 -61T184 -34V-2Q152 6 125 24T78 67T47 123T36 188Q36 228 51 264T94 326T157 368T236 384Q273 384 305 373T363 341V225H288V292Q263 303 236 303Q184 303 152 271T119
188Q119 139 151 106T236 72Q280 72 311 97Z" />
<glyph unicode="&#xe8;" glyph-name="egrave" horiz-adv-x="450" d="M235 303Q184 303 152 273T118 196Q165 213 211 230T305 265Q291 282 274 292T235 303ZM411 218Q343 193 276 168T140 118Q155 97 179 85T235 72Q281 72 311 104L362 44Q337 19 305 5T235 -9Q193
-9 157 6T93 49T51 111T35 188Q35 228 50 264T93 326T156 368T235 384Q266 384 294 372T345 337T385 285T411 218ZM164 612Q187 579 209 546T254 479H195Q166 512 138 545T80 612H164Z" />
<glyph unicode="&#xe9;" glyph-name="eacute" horiz-adv-x="450" d="M235 303Q184 303 152 273T118 196Q165 213 211 230T305 265Q291 282 274 292T235 303ZM411 218Q343 193 276 168T140 118Q155 97 179 85T235 72Q281 72 311 104L362 44Q337 19 305 5T235 -9Q193
-9 157 6T93 49T51 111T35 188Q35 228 50 264T93 326T156 368T235 384Q266 384 294 372T345 337T385 285T411 218ZM219 479Q242 512 264 545T309 612H393Q364 579 336 546T278 479H219Z" />
<glyph unicode="&#xea;" glyph-name="ecircumflex" horiz-adv-x="450" d="M235 303Q184 303 152 273T118 196Q165 213 211 230T305 265Q291 282 274 292T235 303ZM411 218Q343 193 276 168T140 118Q155 97 179 85T235 72Q281 72 311 104L362 44Q337 19 305 5T235
-9Q193 -9 157 6T93 49T51 111T35 188Q35 228 50 264T93 326T156 368T235 384Q266 384 294 372T345 337T385 285T411 218ZM486 660Q516 615 546 570T606 479H547Q532 497 517 515T486 551Q471 533 456 515T425 479H366Q396 524 426 569T486 660Z" />
<glyph unicode="&#xeb;" glyph-name="edieresis" horiz-adv-x="450" d="M235 303Q184 303 152 273T118 196Q165 213 211 230T305 265Q291 282 274 292T235 303ZM411 218Q343 193 276 168T140 118Q155 97 179 85T235 72Q281 72 311 104L362 44Q337 19 305 5T235
-9Q193 -9 157 6T93 49T51 111T35 188Q35 228 50 264T93 326T156 368T235 384Q266 384 294 372T345 337T385 285T411 218ZM261 520Q261 543 277 558T313 573Q332 573 348 558T364 520Q364 497 348 483T313 468Q293 468 277 482T261 520ZM95 520Q95 543 111 558T147
573Q166 573 182 558T198 520Q198 497 182 483T147 468Q127 468 111 482T95 520Z" />
<glyph unicode="&#xec;" glyph-name="igrave" horiz-adv-x="292" d="M35 79H105V296H35V375H188V79H257V0H35V79ZM84 612Q107 579 129 546T174 479H115Q86 512 58 545T0 612H84Z" />
<glyph unicode="&#xed;" glyph-name="iacute" horiz-adv-x="292" d="M35 79H105V296H35V375H188V79H257V0H35V79ZM118 479Q141 512 163 545T208 612H292Q263 579 235 546T177 479H118Z" />
<glyph unicode="&#xee;" glyph-name="icircumflex" horiz-adv-x="292" d="M35 79H105V296H35V375H188V79H257V0H35V79ZM403 660Q433 615 463 570T523 479H464Q449 497 434 515T403 551Q388 533 373 515T342 479H283Q313 524 343 569T403 660Z" />
<glyph unicode="&#xef;" glyph-name="idieresis" horiz-adv-x="292" d="M35 79H105V296H35V375H188V79H257V0H35V79ZM435 520Q435 543 451 558T487 573Q506 573 522 558T538 520Q538 497 522 483T487 468Q467 468 451 482T435 520ZM269 520Q269 543 285 558T321
573Q340 573 356 558T372 520Q372 497 356 483T321 468Q301 468 285 482T269 520Z" />
<glyph unicode="&#xf0;" glyph-name="eth" horiz-adv-x="471" d="M119 188Q119 163 128 142T153 106T191 83T239 75Q265 76 286 85T322 111T345 148T353 194Q352 219 343 240T318 276T280 299T233 306Q180 304 149 271T119 188ZM114 531Q128 546 142 561T170 591Q126
642 78 683Q93 697 108 710T139 738Q184 703 229 655Q240 668 251 680T274 705Q288 692 303 680T332 654Q318 639 305 625T278 595Q309 554 337 505T388 404T423 299T436 197Q437 156 423 120T382 57T320 12T242 -6Q200 -7 163 7T98 48T53 109T35 185Q34 225 48
261T89 325T152 368T230 386Q262 387 294 378Q281 418 262 455T218 528Q207 515 195 503T172 478Q158 492 143 504T114 531Z" />
<glyph unicode="&#xf1;" glyph-name="ntilde" horiz-adv-x="580" d="M323 79H400V234Q398 261 381 280T325 302Q299 302 276 293T234 268T205 230T194 182V79H257V0H35V79H111V296H45V375H184V366Q186 342 187 323T191 279Q211 327 255 355T354 384Q413 384 447
353T483 272V79H545V0H323V79ZM277 732Q262 748 251 753T225 758Q211 758 193 749T172 712L127 715Q128 735 137 751T159 779T187 797T218 803Q241 803 259 794T295 770Q310 754 321 749T347 744Q354 744 362 746T379 753T392 767T400 790L445 787Q444 767 435
751T413 723T385 706T354 700Q331 700 313 709T277 732Z" />
<glyph unicode="&#xf2;" glyph-name="ograve" horiz-adv-x="471" d="M35 188Q35 228 50 264T93 326T156 368T235 384Q277 384 314 369T378 327T420 264T436 188Q436 147 421 112T378 49T314 7T235 -9Q193 -9 157 6T93 49T51 111T35 188ZM118 187Q118 163 127 142T151
106T188 81T233 72Q257 72 278 81T315 105T340 142T349 187Q349 211 340 232T315 269T278 294T233 303Q209 303 188 294T152 269T127 232T118 187ZM162 612Q185 579 207 546T252 479H193Q164 512 136 545T78 612H162Z" />
<glyph unicode="&#xf3;" glyph-name="oacute" horiz-adv-x="471" d="M35 188Q35 228 50 264T93 326T156 368T235 384Q277 384 314 369T378 327T420 264T436 188Q436 147 421 112T378 49T314 7T235 -9Q193 -9 157 6T93 49T51 111T35 188ZM118 187Q118 163 127 142T151
106T188 81T233 72Q257 72 278 81T315 105T340 142T349 187Q349 211 340 232T315 269T278 294T233 303Q209 303 188 294T152 269T127 232T118 187ZM231 479Q254 512 276 545T321 612H405Q376 579 348 546T290 479H231Z" />
<glyph unicode="&#xf4;" glyph-name="ocircumflex" horiz-adv-x="471" d="M35 188Q35 228 50 264T93 326T156 368T235 384Q277 384 314 369T378 327T420 264T436 188Q436 147 421 112T378 49T314 7T235 -9Q193 -9 157 6T93 49T51 111T35 188ZM118 187Q118 163
127 142T151 106T188 81T233 72Q257 72 278 81T315 105T340 142T349 187Q349 211 340 232T315 269T278 294T233 303Q209 303 188 294T152 269T127 232T118 187ZM235 660Q265 615 295 570T355 479H296Q281 497 266 515T235 551Q220 533 205 515T174 479H115Q145
524 175 569T235 660Z" />
<glyph unicode="&#xf5;" glyph-name="otilde" horiz-adv-x="471" d="M35 188Q35 228 50 264T93 326T156 368T235 384Q277 384 314 369T378 327T420 264T436 188Q436 147 421 112T378 49T314 7T235 -9Q193 -9 157 6T93 49T51 111T35 188ZM118 187Q118 163 127 142T151
106T188 81T233 72Q257 72 278 81T315 105T340 142T349 187Q349 211 340 232T315 269T278 294T233 303Q209 303 188 294T152 269T127 232T118 187ZM488 481Q473 497 462 502T436 507Q422 507 404 498T383 461L338 464Q339 484 348 500T370 528T398 546T429 552Q452
552 470 543T506 519Q521 503 532 498T558 493Q565 493 573 495T590 502T603 516T611 539L656 536Q655 516 646 500T624 472T596 455T565 449Q542 449 524 458T488 481Z" />
<glyph unicode="&#xf6;" glyph-name="odieresis" horiz-adv-x="471" d="M35 188Q35 228 50 264T93 326T156 368T235 384Q277 384 314 369T378 327T420 264T436 188Q436 147 421 112T378 49T314 7T235 -9Q193 -9 157 6T93 49T51 111T35 188ZM118 187Q118 163 127
142T151 106T188 81T233 72Q257 72 278 81T315 105T340 142T349 187Q349 211 340 232T315 269T278 294T233 303Q209 303 188 294T152 269T127 232T118 187ZM267 520Q267 543 283 558T319 573Q338 573 354 558T370 520Q370 497 354 483T319 468Q299 468 283 482T267
520ZM101 520Q101 543 117 558T153 573Q172 573 188 558T204 520Q204 497 188 483T153 468Q133 468 117 482T101 520Z" />
<glyph unicode="&#xf7;" glyph-name="divide" horiz-adv-x="501" d="M428 206H68V287H428V206ZM199 373Q199 396 215 411T251 426Q270 426 286 411T302 373Q302 350 286 336T251 321Q231 321 215 335T199 373ZM199 123Q199 146 215 161T251 176Q270 176 286 161T302
123Q302 100 286 86T251 71Q231 71 215 85T199 123Z" />
<glyph unicode="&#xf8;" glyph-name="oslash" horiz-adv-x="471" d="M118 188Q118 153 135 125Q172 168 208 210T281 295Q259 303 235 303Q183 303 151 271T118 188ZM235 72Q287 72 319 105T352 188Q352 208 346 226T329 259L179 85Q205 72 235 72ZM35 188Q35
228 50 264T93 326T156 368T235 384Q291 384 335 358Q344 369 353 379T372 401Q383 391 394 381T417 361Q409 351 400 341T383 321Q408 295 422 261T436 188Q436 147 421 112T378 49T314 7T235 -9Q204 -9 177 -1T126 23Q115 11 105 -1T84 -26Q73 -16 61 -7T38 12Q49
25 59 37T81 62Q59 88 47 120T35 188Z" />
<glyph unicode="&#xf9;" glyph-name="ugrave" horiz-adv-x="570" d="M35 375H184V141Q186 114 203 95T259 73Q285 73 308 82T350 107T379 145T390 193V296H324V375H473V70H535V0H390V51L393 96Q373 48 329 20T230 -9Q171 -9 137 22T101 103V296H35V375ZM210 612Q233
579 255 546T300 479H241Q212 512 184 545T126 612H210Z" />
<glyph unicode="&#xfa;" glyph-name="uacute" horiz-adv-x="570" d="M35 375H184V141Q186 114 203 95T259 73Q285 73 308 82T350 107T379 145T390 193V296H324V375H473V70H535V0H390V51L393 96Q373 48 329 20T230 -9Q171 -9 137 22T101 103V296H35V375ZM231 479Q254
512 276 545T321 612H405Q376 579 348 546T290 479H231Z" />
<glyph unicode="&#xfb;" glyph-name="ucircumflex" horiz-adv-x="570" d="M35 375H184V141Q186 114 203 95T259 73Q285 73 308 82T350 107T379 145T390 193V296H324V375H473V70H535V0H390V51L393 96Q373 48 329 20T230 -9Q171 -9 137 22T101 103V296H35V375ZM266
660Q296 615 326 570T386 479H327Q312 497 297 515T266 551Q251 533 236 515T205 479H146Q176 524 206 569T266 660Z" />
<glyph unicode="&#xfc;" glyph-name="udieresis" horiz-adv-x="570" d="M35 375H184V141Q186 114 203 95T259 73Q285 73 308 82T350 107T379 145T390 193V296H324V375H473V70H535V0H390V51L393 96Q373 48 329 20T230 -9Q171 -9 137 22T101 103V296H35V375ZM294
520Q294 543 310 558T346 573Q365 573 381 558T397 520Q397 497 381 483T346 468Q326 468 310 482T294 520ZM128 520Q128 543 144 558T180 573Q199 573 215 558T231 520Q231 497 215 483T180 468Q160 468 144 482T128 520Z" />
<glyph unicode="&#xfd;" glyph-name="yacute" horiz-adv-x="617" d="M92 -171H182Q203 -128 224 -85T268 0Q230 75 194 148T119 296H35V375H257V296H204Q233 241 262 186T310 74Q329 130 357 185T415 296H353V375H582V296H500Q441 178 383 63T265 -171H314V-250H92V-171ZM298
479Q321 512 343 545T388 612H472Q443 579 415 546T357 479H298Z" />
<glyph unicode="&#xfe;" glyph-name="thorn" horiz-adv-x="510" d="M16 -171H93V671H16V750H238V671H176V360Q174 352 171 345T166 329Q167 332 177 341T205 359T244 375T293 382Q335 382 372 367T436 324T478 262T494 187Q494 147 479 112T436 49T372 7T293 -9Q265
-9 243 -3T205 10T180 26T167 38Q169 33 171 29T176 19V-171H258V-250H16V-171ZM410 188Q410 238 378 270T293 303Q241 303 209 271T176 188Q176 139 208 106T293 72Q345 72 377 105T410 188Z" />
<glyph unicode="&#xff;" glyph-name="ydieresis" horiz-adv-x="617" d="M92 -171H182Q203 -128 224 -85T268 0Q230 75 194 148T119 296H35V375H257V296H204Q233 241 262 186T310 74Q329 130 357 185T415 296H353V375H582V296H500Q441 178 383 63T265 -171H314V-250H92V-171ZM343
520Q343 543 359 558T395 573Q414 573 430 558T446 520Q446 497 430 483T395 468Q375 468 359 482T343 520ZM177 520Q177 543 193 558T229 573Q248 573 264 558T280 520Q280 497 264 483T229 468Q209 468 193 482T177 520Z" />
<glyph unicode="&#x2013;" glyph-name="endash" horiz-adv-x="509" d="M100 174V255H401V174H100Z" />
<glyph unicode="&#x2014;" glyph-name="emdash" horiz-adv-x="700" d="M99 174V255H601V174H99Z" />
<glyph unicode="&#x2018;" glyph-name="quoteleft" horiz-adv-x="164" d="M116 590Q105 584 96 578T75 566Q47 594 35 631T31 711Q44 709 57 708T83 704Q76 669 85 640T116 590Z" />
<glyph unicode="&#x2019;" glyph-name="quoteright" horiz-adv-x="164" d="M76 566Q65 572 56 578T35 590Q56 610 65 639T68 704Q81 706 94 707T120 711Q128 669 116 632T76 566Z" />
<glyph unicode="&#x201a;" glyph-name="quotesinglbase" horiz-adv-x="146" d="M60 -53Q49 -47 40 -41T19 -29Q40 -9 49 20T52 85Q65 87 78 88T104 92Q112 50 100 13T60 -53Z" />
<glyph unicode="&#x201c;" glyph-name="quotedblleft" horiz-adv-x="249" d="M220 590Q209 584 200 578T179 566Q151 594 139 631T135 711Q148 709 161 708T187 704Q180 669 189 640T220 590ZM116 590Q105 584 96 578T75 566Q47 594 35 631T31 711Q44 709 57 708T83
704Q76 669 85 640T116 590Z" />
<glyph unicode="&#x201d;" glyph-name="quotedblright" horiz-adv-x="248" d="M52 566Q41 572 32 578T11 590Q32 610 41 639T44 704Q57 706 70 707T96 711Q104 669 92 632T52 566ZM156 566Q145 572 136 578T115 590Q136 610 145 639T148 704Q161 706 174 707T200
711Q208 669 196 632T156 566Z" />
<glyph unicode="&#x201e;" glyph-name="quotedblbase" horiz-adv-x="341" d="M60 -53Q49 -47 40 -41T19 -29Q40 -9 49 20T52 85Q65 87 78 88T104 92Q112 50 100 13T60 -53ZM164 -53Q153 -47 144 -41T123 -29Q144 -9 153 20T156 85Q169 87 182 88T208 92Q216 50
204 13T164 -53Z" />
<glyph unicode="&#x2022;" glyph-name="bullet" horiz-adv-x="479" d="M113 300Q113 327 123 350T150 390T190 418T239 428Q266 428 289 418T329 391T357 350T367 300Q367 273 357 250T330 210T289 184T239 174Q213 174 190 183T150 210T123 250T113 300Z" />
<glyph unicode="&#x2039;" glyph-name="guilsinglleft" horiz-adv-x="392" d="M288 77L117 239Q160 280 202 319T288 400V305Q271 288 256 272T223 239Q240 222 255 206T288 172V77Z" />
<glyph unicode="&#x203a;" glyph-name="guilsinglright" horiz-adv-x="392" d="M117 77L288 239Q245 280 203 319T117 400V305Q134 288 149 272T182 239Q165 222 150 206T117 172V77Z" />
</font>
</defs>
</svg>
