<?xml version="1.0" standalone="no"?>
<!DOCTYPE svg PUBLIC "-//W3C//DTD SVG 1.1//EN" "http://www.w3.org/Graphics/SVG/1.1/DTD/svg11.dtd">
<svg xmlns="http://www.w3.org/2000/svg">
<defs >
<font id="EncodeSansSemiCondensed" horiz-adv-x="1076" ><font-face
    font-family="Encode Sans Semi Condensed Medium"
    units-per-em="2000"
    panose-1="0 0 6 6 0 0 0 0 0 0"
    ascent="2060"
    descent="-440"
    alphabetic="0" />
<glyph unicode=" " glyph-name="space" horiz-adv-x="459" />
<glyph unicode="!" glyph-name="exclam" horiz-adv-x="502" d="M189 400L143 931V1480H359V931L315 400H189ZM188 -14T150 21T112 116Q112 176 150 211T251 247Q314 247 352 211T391 116Q391 58 352 22T251 -14Q188 -14 150 21Z" />
<glyph unicode="&quot;" glyph-name="quotedbl" horiz-adv-x="760" d="M144 896L102 1616H309L267 896H144ZM492 896L450 1616H657L615 896H492Z" />
<glyph unicode="#" glyph-name="numbersign" horiz-adv-x="1133" d="M1038 879H845L818 601H1038V442H804L762 0H601L643 442H435L393 0H232L274 442H95V601H288L315 879H95V1038H329L371 1480H532L490 1038H698L740 1480H901L859 1038H1038V879ZM657 601L684
879H476L449 601H657Z" />
<glyph unicode="$" glyph-name="dollar" horiz-adv-x="1015" d="M956 245T865 139T603 -3V-240H413V-19Q332 -17 246 -3T85 37V211Q170 183 260 169T431 154Q593 154 671 215T749 395Q749 462 725 507T646 584T497 646L413 671Q237 722 148 821T59 1080Q59 1242
148 1345T413 1483V1720H603V1499Q678 1498 754 1488T889 1460V1286Q756 1326 603 1326Q428 1326 347 1266T266 1092Q266 1028 288 985T361 909T499 850L583 826Q772 771 864 671T956 410Q956 245 865 139Z" />
<glyph unicode="%" glyph-name="percent" horiz-adv-x="1831" d="M271 573T180 686T88 1036Q88 1273 179 1386T432 1499Q593 1499 684 1386T775 1036Q775 799 684 686T432 573Q271 573 180 686ZM528 0L1132 1480H1302L698 0H528ZM517 710T563 784T609 1035Q609
1213 563 1287T432 1362Q346 1362 300 1288T254 1037Q254 859 300 785T432 710Q517 710 563 784ZM1238 -18T1147 95T1055 445Q1055 682 1146 794T1399 907Q1560 907 1651 795T1742 445Q1742 208 1651 95T1399 -18Q1238 -18 1147 95ZM1484 119T1530 193T1576 444Q1576
622 1530 696T1399 771Q1314 771 1268 697T1221 446Q1221 269 1267 194T1399 119Q1484 119 1530 193Z" />
<glyph unicode="&amp;" glyph-name="ampersand" horiz-adv-x="1437" d="M1333 -20L1095 167Q1022 75 907 29T639 -18Q473 -18 356 34T179 181T119 404Q119 534 181 633T351 790Q301 858 280 924T258 1068Q258 1276 391 1387T787 1499Q904 1499 1014 1475V1301Q908
1326 799 1326Q625 1326 545 1261T464 1067Q464 1007 482 958T543 856T666 737L1036 447Q1043 492 1043 553Q1043 615 1034 684T1006 817H1177Q1211 690 1211 555Q1211 431 1181 333L1437 132L1333 -20ZM872 137T968 267L562 585Q490 642 447 684Q324 589 324 427Q324
292 411 215T659 137Q872 137 968 267Z" />
<glyph unicode="&apos;" glyph-name="quotesingle" horiz-adv-x="412" d="M144 896L102 1616H309L267 896H144Z" />
<glyph unicode="(" glyph-name="parenleft" horiz-adv-x="636" d="M110 -22T110 588Q110 1198 426 1616H635Q473 1390 396 1135T319 588Q319 297 396 42T635 -440H426Q110 -22 110 588Z" />
<glyph unicode=")" glyph-name="parenright" horiz-adv-x="636" d="M163 -214T240 41T317 588Q317 879 240 1134T1 1616H210Q526 1198 526 588Q526 -22 210 -440H1Q163 -214 240 41Z" />
<glyph unicode="*" glyph-name="asterisk" horiz-adv-x="923" d="M536 1172L674 1028L770 897L653 811L557 942L461 1122L366 942L270 811L153 897L249 1028L386 1172L192 1208L30 1260L75 1397L236 1344L416 1257L389 1456V1616H534V1456L507 1257L687 1344L848
1397L893 1260L731 1208L536 1172Z" />
<glyph unicode="+" glyph-name="plus" horiz-adv-x="1055" d="M443 349V679H128V841H443V1171H612V841H927V679H612V349H443Z" />
<glyph unicode="," glyph-name="comma" horiz-adv-x="462" d="M297 255T333 211T370 79Q370 -26 339 -131T255 -323H137Q173 -233 193 -159T218 -14Q161 -9 127 27T92 121Q92 184 128 219T228 255Q297 255 333 211Z" />
<glyph unicode="-" glyph-name="hyphen" horiz-adv-x="789" d="M128 480V648H660V480H128Z" />
<glyph unicode="." glyph-name="period" horiz-adv-x="462" d="M168 -14T130 22T92 120Q92 182 130 218T231 255Q295 255 333 218T371 120Q371 60 333 23T231 -14Q168 -14 130 22Z" />
<glyph unicode="/" glyph-name="slash" horiz-adv-x="610" d="M0 -240L411 1616H610L199 -240H0Z" />
<glyph unicode="0" glyph-name="zero" horiz-adv-x="1193" d="M355 -19T228 162T100 740Q100 1137 227 1318T596 1499Q838 1499 965 1318T1093 740Q1093 344 965 163T596 -19Q355 -19 228 162ZM691 155T755 209T854 391T889 738Q889 958 855 1087T756 1270T596
1325Q501 1325 437 1271T339 1089T304 742Q304 522 338 393T437 210T596 155Q691 155 755 209Z" />
<glyph unicode="1" glyph-name="one" horiz-adv-x="693" d="M409 1485H537V0H332V1233L21 1012V1208L409 1485Z" />
<glyph unicode="2" glyph-name="two" horiz-adv-x="944" d="M888 176V0H50V113L440 669Q534 804 574 899T615 1083Q615 1211 545 1268T329 1326Q168 1326 32 1270V1444Q93 1469 180 1484T350 1499Q819 1499 819 1104Q819 987 774 872T617 600L317 176H888Z" />
<glyph unicode="3" glyph-name="three" horiz-adv-x="973" d="M750 736T829 642T908 399Q908 266 848 173T670 30T385 -19Q205 -19 44 33V197Q123 171 210 158T378 144Q543 144 627 210T711 409Q711 538 627 607T367 676H205V841H309Q485 841 574 910T663 1104Q663
1336 374 1336Q211 1336 71 1282V1445Q134 1470 221 1484T393 1499Q622 1499 741 1401T861 1120Q861 991 792 899T599 768Q750 736 829 642Z" />
<glyph unicode="4" glyph-name="four" horiz-adv-x="1138" d="M1102 506V342H908V0H721V342H43V456L563 1480H764L272 506H721L745 980H908V506H1102Z" />
<glyph unicode="5" glyph-name="five" horiz-adv-x="981" d="M660 846T796 739T933 423Q933 207 800 94T412 -19Q229 -19 70 35V199Q149 173 237 159T406 145Q736 145 736 417Q736 510 694 569T554 661T288 704L119 714L167 1480H873V1313H351L321 867L367 864Q660
846 796 739Z" />
<glyph unicode="6" glyph-name="six" horiz-adv-x="1108" d="M749 862T846 815T1000 670T1057 428Q1057 285 1001 185T845 33T613 -19Q377 -19 244 149T111 693Q111 1108 269 1303T732 1499Q885 1499 989 1457V1291Q877 1333 737 1333Q597 1333 504 1275T363 1090T313
760Q371 808 453 835T624 862Q749 862 846 815ZM728 140T797 209T867 421Q867 566 792 635T588 705Q512 705 440 680T314 603Q320 428 358 326T461 182T615 140Q728 140 797 209Z" />
<glyph unicode="7" glyph-name="seven" horiz-adv-x="905" d="M10 1480H848V1367L361 0H149L627 1304H10V1480Z" />
<glyph unicode="8" glyph-name="eight" horiz-adv-x="1193" d="M979 696T1043 607T1107 384Q1107 264 1048 173T876 32T604 -19Q435 -19 319 28T143 163T84 370Q84 497 154 595T353 749Q234 813 181 900T127 1108Q127 1226 183 1314T346 1451T603 1499Q745 1499
849 1454T1008 1324T1064 1125Q1064 1007 1006 915T828 761Q979 696 1043 607ZM467 1347T396 1285T324 1115Q324 1041 353 991T454 899T661 820L678 815Q786 871 834 940T883 1110Q883 1224 810 1285T602 1347Q467 1347 396 1285ZM753 133T832 195T912 372Q912
449 882 500T779 589T574 665Q532 677 496 689Q392 647 336 568T280 388Q280 264 361 199T605 133Q753 133 832 195Z" />
<glyph unicode="9" glyph-name="nine" horiz-adv-x="1108" d="M731 1499T864 1331T997 787Q997 372 839 177T376 -19Q223 -19 119 23V189Q231 147 371 147Q511 147 604 205T745 390T795 720Q737 672 655 645T484 618Q359 618 262 665T108 810T51 1052Q51 1195
107 1295T263 1447T495 1499Q731 1499 864 1331ZM241 914T316 845T520 775Q596 775 668 800T794 877Q788 1052 750 1154T647 1298T493 1340Q380 1340 311 1271T241 1059Q241 914 316 845Z" />
<glyph unicode=":" glyph-name="colon" horiz-adv-x="462" d="M168 -14T130 22T92 120Q92 182 130 218T231 255Q295 255 333 218T371 120Q371 60 333 23T231 -14Q168 -14 130 22ZM168 832T130 868T92 966Q92 1028 130 1064T231 1101Q295 1101 333 1064T371 966Q371
906 333 869T231 832Q168 832 130 868Z" />
<glyph unicode=";" glyph-name="semicolon" horiz-adv-x="462" d="M297 255T333 211T370 79Q370 -26 339 -131T255 -323H137Q173 -233 193 -159T218 -14Q161 -9 127 27T92 121Q92 184 128 219T228 255Q297 255 333 211ZM168 832T130 868T92 966Q92 1028 130 1064T231
1101Q295 1101 333 1064T371 966Q371 906 333 869T231 832Q168 832 130 868Z" />
<glyph unicode="&lt;" glyph-name="less" horiz-adv-x="1055" d="M927 1183V1017L290 761L927 503V337L128 666V854L927 1183Z" />
<glyph unicode="=" glyph-name="equal" horiz-adv-x="1055" d="M128 883V1044H927V883H128ZM128 476V637H927V476H128Z" />
<glyph unicode="&gt;" glyph-name="greater" horiz-adv-x="1055" d="M128 1183L927 854V666L128 337V503L766 761L128 1017V1183Z" />
<glyph unicode="?" glyph-name="question" horiz-adv-x="877" d="M289 787Q416 825 489 870T594 971T626 1103Q626 1334 335 1334Q177 1334 33 1279V1445Q97 1470 184 1484T356 1499Q585 1499 704 1401T824 1119Q824 963 739 861T468 687L450 391H323L289 787ZM325
-14T287 22T248 116Q248 176 285 211T387 247Q450 247 488 211T526 116Q526 58 488 22T387 -14Q325 -14 287 22Z" />
<glyph unicode="@" glyph-name="at" horiz-adv-x="1840" d="M1330 1498T1540 1271T1751 571Q1751 267 1652 125T1384 -18Q1292 -18 1230 19T1140 127H1127Q1084 54 1010 18T842 -18Q745 -18 674 18T563 122T524 283Q524 431 618 512T915 611L1122 633V709Q1122
794 1096 843T1016 913T875 934Q813 934 741 922T602 885L603 1048Q669 1071 751 1084T906 1097Q1048 1097 1138 1059T1274 934T1319 701V265Q1319 193 1344 159T1423 125Q1500 125 1549 225T1598 558Q1598 846 1524 1021T1302 1276T927 1355Q701 1355 553 1274T330
1010T254 522Q254 213 331 29T564 -236T964 -317Q1063 -317 1157 -303T1350 -261V-405Q1161 -460 964 -460Q531 -460 311 -226T90 520Q90 1026 304 1262T927 1498Q1330 1498 1540 1271ZM962 135T1020 162T1122 249V507L931 488Q825 477 776 433T726 305Q726 220
771 178T902 135Q962 135 1020 162Z" />
<glyph unicode="A" glyph-name="A" horiz-adv-x="1293" d="M1069 0L925 455H365L221 0H18L499 1480H794L1274 0H1069ZM419 627H870L645 1339L419 627Z" />
<glyph unicode="B" glyph-name="B" horiz-adv-x="1216" d="M1004 736T1079 644T1154 404Q1154 265 1088 173T878 34T503 -14Q321 -14 146 9V1456Q338 1496 545 1496Q743 1496 868 1453T1052 1323T1112 1099Q1112 976 1050 886T861 764Q1004 736 1079 644ZM447
1336T347 1319V840H581Q705 840 778 868T884 950T917 1089Q917 1178 883 1232T772 1311T568 1336Q447 1336 347 1319ZM701 146T791 174T920 260T960 410Q960 546 877 611T614 676H347V156Q433 146 550 146Q701 146 791 174Z" />
<glyph unicode="C" glyph-name="C" horiz-adv-x="1088" d="M425 -19T258 159T90 737Q90 1130 262 1314T762 1499Q912 1499 1055 1461V1285Q925 1323 772 1323Q614 1323 512 1267T357 1082T305 741Q305 523 357 395T510 212T764 157Q836 157 906 169T1055 207V31Q987
8 908 -5T746 -19Q425 -19 258 159Z" />
<glyph unicode="D" glyph-name="D" horiz-adv-x="1330" d="M324 -13T146 6V1457Q341 1496 523 1496Q883 1496 1061 1311T1240 740Q1240 477 1156 311T903 66T480 -13Q324 -13 146 6ZM697 160T807 218T973 404T1029 741Q1029 947 975 1075T813 1263T536 1323Q453
1323 351 1308V169Q429 160 526 160Q697 160 807 218Z" />
<glyph unicode="E" glyph-name="E" horiz-adv-x="1106" d="M349 173H1049V0H146V1480H1039V1307H349V845H943V672H349V173Z" />
<glyph unicode="F" glyph-name="F" horiz-adv-x="1064" d="M1033 1305H351V827H937V652H351V0H146V1480H1033V1305Z" />
<glyph unicode="G" glyph-name="G" horiz-adv-x="1272" d="M1146 720V14Q977 -14 833 -14Q584 -14 420 64T173 308T90 738Q89 1131 273 1315T806 1499Q963 1499 1115 1459V1284Q969 1323 820 1323Q646 1323 533 1267T362 1081T304 736Q304 527 360 401T529 217T817
160Q884 160 953 168V720H1146Z" />
<glyph unicode="H" glyph-name="H" horiz-adv-x="1375" d="M146 0V1480H351V851H1024V1480H1229V0H1024V666H351V0H146Z" />
<glyph unicode="I" glyph-name="I" horiz-adv-x="497" d="M146 0V1480H351V0H146Z" />
<glyph unicode="J" glyph-name="J" horiz-adv-x="497" d="M-17 -255Q73 -125 110 -2T147 293V1480H351V281Q347 98 294 -46T118 -345L-17 -255Z" />
<glyph unicode="K" glyph-name="K" horiz-adv-x="1192" d="M1007 0L524 666H351V0H146V1480H351V850H527L972 1480H1191L684 763L1233 0H1007Z" />
<glyph unicode="L" glyph-name="L" horiz-adv-x="1022" d="M146 0V1480H351V178H1015V0H146Z" />
<glyph unicode="M" glyph-name="M" horiz-adv-x="1701" d="M1304 1480H1551V0H1358V1182L939 208H762L342 1168V0H150V1480H397L854 423L1304 1480Z" />
<glyph unicode="N" glyph-name="N" horiz-adv-x="1397" d="M1058 1480H1251V0H1042L340 1157V0H146V1480H355L1058 323V1480Z" />
<glyph unicode="O" glyph-name="O" horiz-adv-x="1368" d="M403 -19T247 166T90 740Q90 1129 246 1314T684 1499Q965 1499 1121 1314T1278 740Q1278 351 1122 166T684 -19Q403 -19 247 166ZM870 154T968 288T1066 734Q1066 1053 968 1189T684 1326Q498 1326 400
1192T301 746Q301 427 399 291T684 154Q870 154 968 288Z" />
<glyph unicode="P" glyph-name="P" horiz-adv-x="1189" d="M146 1459Q341 1496 520 1496Q816 1496 963 1371T1110 982Q1110 728 961 599T511 469Q433 469 351 475V0H146V1459ZM718 633T812 716T907 979Q907 1163 817 1247T535 1332Q441 1332 351 1318V643Q428
633 515 633Q718 633 812 716Z" />
<glyph unicode="Q" glyph-name="Q" horiz-adv-x="1368" d="M1278 410T1157 222T800 5Q999 -57 1256 -85L1221 -253Q785 -191 541 -73T193 239T90 738Q90 1128 246 1313T684 1499Q965 1499 1121 1315T1278 740Q1278 410 1157 222ZM301 529T346 398T476 211T684
154Q870 154 968 288T1066 734Q1066 1053 968 1189T684 1326Q498 1326 400 1192T301 746Q301 529 346 398Z" />
<glyph unicode="R" glyph-name="R" horiz-adv-x="1255" d="M998 0L582 594Q538 592 516 592Q426 592 348 598V0H146V1457Q348 1496 534 1496Q822 1496 964 1386T1106 1048Q1107 884 1024 777T781 624L1224 0H998ZM348 761Q449 753 515 753Q720 753 815 824T911
1047Q911 1197 825 1266T551 1335Q450 1335 348 1319V761Z" />
<glyph unicode="S" glyph-name="S" horiz-adv-x="1015" d="M350 -19T258 -4T85 39V213Q171 184 262 169T437 154Q749 154 749 395Q749 462 725 507T646 584T497 646L413 671Q237 722 148 821T59 1080Q59 1211 118 1305T296 1449T586 1499Q667 1499 747 1488T889
1458V1284Q759 1326 597 1326Q266 1326 266 1092Q266 1028 288 985T361 909T499 850L583 826Q772 771 864 671T956 410Q956 275 895 179T717 32T436 -19Q350 -19 258 -4Z" />
<glyph unicode="T" glyph-name="T" horiz-adv-x="1137" d="M466 0V1302H10V1480H1127V1302H671V0H466Z" />
<glyph unicode="U" glyph-name="U" horiz-adv-x="1348" d="M399 -19T269 120T139 556V1480H344V534Q344 337 424 247T677 156Q849 156 929 246T1009 534V1480H1210V556Q1210 358 1154 232T980 43T677 -19Q399 -19 269 120Z" />
<glyph unicode="V" glyph-name="V" horiz-adv-x="1264" d="M1059 1480H1260L783 0H480L4 1480H219L637 158L1059 1480Z" />
<glyph unicode="W" glyph-name="W" horiz-adv-x="2024" d="M1787 1480H1983L1603 0H1335L1017 1245L689 0H422L41 1480H250L569 198L900 1480H1135L1462 190L1787 1480Z" />
<glyph unicode="X" glyph-name="X" horiz-adv-x="1234" d="M736 760L1233 0H1004L615 600L225 0H-2L496 758L22 1480H252L617 919L982 1480H1207L736 760Z" />
<glyph unicode="Y" glyph-name="Y" horiz-adv-x="1137" d="M1167 1480L672 650V0H467V649L-39 1480H181L573 831L961 1480H1167Z" />
<glyph unicode="Z" glyph-name="Z" horiz-adv-x="1098" d="M320 177H1043V0H55V115L767 1303H65V1480H1032V1365L320 177Z" />
<glyph unicode="[" glyph-name="bracketleft" horiz-adv-x="636" d="M166 -440V1616H671V1452H368V-276H669V-440H166Z" />
<glyph unicode="\" glyph-name="backslash" horiz-adv-x="611" d="M412 -240L0 1616H199L611 -240H412Z" />
<glyph unicode="]" glyph-name="bracketright" horiz-adv-x="636" d="M-33 -440V-276H268V1452H-35V1616H470V-440H-33Z" />
<glyph unicode="^" glyph-name="asciicircum" horiz-adv-x="1133" d="M1045 740H846L567 1303L287 740H88L466 1480H666L1045 740Z" />
<glyph unicode="_" glyph-name="underscore" horiz-adv-x="1069" d="M89 -164V0H981V-164H89Z" />
<glyph unicode="`" glyph-name="grave" horiz-adv-x="1006" d="M413 1247L189 1616H401L593 1247H413Z" />
<glyph unicode="a" glyph-name="a" horiz-adv-x="987" d="M593 1105T684 1067T820 940T866 701V0H699L684 117H672Q625 50 552 16T389 -18Q292 -18 221 18T111 122T72 283Q72 432 166 513T464 612L669 633V711Q669 800 643 850T562 921T417 942Q355 942 283 931T143
897V1060Q209 1081 291 1093T449 1105Q593 1105 684 1067ZM510 134T567 161T669 248V504L482 486Q374 476 324 431T273 303Q273 219 318 177T449 134Q510 134 567 161Z" />
<glyph unicode="b" glyph-name="b" d="M377 -19T289 -6T129 31V1616H331V981H342Q386 1038 455 1071T610 1105Q720 1105 807 1051T946 875T998 564Q998 -19 462 -19Q377 -19 289 -6ZM634 141T713 236T792 546Q792 694 761 779T674 899T540 933Q479 933 423 906T331
829V160Q360 151 398 146T474 141Q634 141 713 236Z" />
<glyph unicode="c" glyph-name="c" horiz-adv-x="832" d="M317 -20T197 116T77 543Q77 835 208 970T592 1105Q701 1105 800 1081V913Q705 935 620 935Q503 935 431 898T323 776T287 547Q287 400 320 313T418 188T586 150Q677 150 800 189V21Q679 -20 552 -20Q317
-20 197 116Z" />
<glyph unicode="d" glyph-name="d" d="M365 -19T275 35T131 211T77 522Q77 814 212 959T612 1105Q677 1105 744 1095V1616H946V0H775L761 113H750Q706 53 637 17T480 -19Q365 -19 275 35ZM596 152T652 180T744 263V931Q675 944 606 944Q443 944 363 850T283 539Q283
391 314 306T401 186T534 152Q596 152 652 180Z" />
<glyph unicode="e" glyph-name="e" horiz-adv-x="982" d="M917 480H282Q286 354 321 280T426 174T611 142Q718 142 863 182V20Q722 -20 586 -20Q412 -20 300 37T133 219T77 545Q77 826 191 965T510 1105Q709 1105 813 966T917 540V480ZM400 964T343 884T282 610H725Q723
743 697 820T625 931T508 964Q400 964 343 884Z" />
<glyph unicode="f" glyph-name="f" horiz-adv-x="688" d="M508 1469T455 1420T402 1259V1088H698V924H402V0H202V924H15V1088H202V1250Q202 1438 302 1537T598 1636Q676 1636 738 1625V1459Q681 1469 622 1469Q508 1469 455 1420Z" />
<glyph unicode="g" glyph-name="g" d="M376 -460T295 -449T147 -416V-250Q295 -297 438 -297Q544 -297 611 -268T711 -171T744 7V111H733Q690 54 621 21T466 -13Q357 -13 270 41T130 215T77 522Q77 813 213 958T617 1105Q700 1105 789 1092T946 1055V40Q946 -137
892 -247T728 -409T452 -460Q376 -460 295 -449ZM597 157T653 184T744 262V928Q670 944 602 944Q443 944 363 849T283 541Q283 394 314 310T401 191T535 157Q597 157 653 184Z" />
<glyph unicode="h" glyph-name="h" horiz-adv-x="1080" d="M129 1616H331V970H342Q399 1037 475 1071T642 1105Q788 1105 874 1015T960 726V0H758V714Q758 828 711 876T575 924Q508 924 441 893T331 798V0H129V1616Z" />
<glyph unicode="i" glyph-name="i" horiz-adv-x="461" d="M129 0V1088H332V0H129ZM165 1301T131 1332T97 1420Q97 1477 131 1509T231 1541Q297 1541 331 1509T365 1420Q365 1363 331 1332T231 1301Q165 1301 131 1332Z" />
<glyph unicode="j" glyph-name="j" horiz-adv-x="461" d="M-34 -377Q55 -248 92 -125T129 171V1088H332V183Q332 -12 279 -161T100 -466L-34 -377ZM163 1303T129 1334T95 1422Q95 1479 129 1511T229 1543Q295 1543 329 1511T363 1422Q363 1365 329 1334T229 1303Q163
1303 129 1334Z" />
<glyph unicode="k" glyph-name="k" horiz-adv-x="1010" d="M815 0L477 475H331V0H129V1616H331V640H476L786 1088H1005L645 561L1039 0H815Z" />
<glyph unicode="l" glyph-name="l" horiz-adv-x="461" d="M129 0V1616H331V0H129Z" />
<glyph unicode="m" glyph-name="m" horiz-adv-x="1627" d="M1336 1105T1421 1015T1507 724V0H1305V715Q1305 828 1260 877T1134 926Q1076 926 1017 897T917 805Q920 771 920 732V0H722V715Q722 829 679 877T555 926Q494 926 433 894T331 794V0H129V1088H298L313
968H325Q382 1036 457 1070T619 1105Q707 1105 774 1069T878 955Q943 1033 1024 1069T1191 1105Q1336 1105 1421 1015Z" />
<glyph unicode="n" glyph-name="n" horiz-adv-x="1080" d="M129 1088H298L313 969H325Q383 1035 462 1070T633 1105Q785 1105 872 1015T960 727V0H758V715Q758 829 711 877T575 926Q508 926 441 895T331 798V0H129V1088Z" />
<glyph unicode="o" glyph-name="o" horiz-adv-x="1059" d="M314 -20T196 118T77 542Q77 830 194 967T529 1105Q745 1105 863 967T981 543Q981 256 863 118T529 -20Q314 -20 196 118ZM610 140T664 176T747 301T776 540Q776 693 747 782T663 908T529 945Q449 945
395 909T312 784T283 545Q283 392 312 303T395 177T529 140Q610 140 664 176Z" />
<glyph unicode="p" glyph-name="p" d="M129 1088H301L315 973H326Q369 1033 438 1069T595 1105Q710 1105 800 1051T944 876T998 564Q998 272 864 127T464 -19Q405 -19 331 -10V-440H129V1088ZM633 142T712 236T792 546Q792 695 761 780T675 899T542 933Q480 933
423 905T331 822V155Q393 142 470 142Q633 142 712 236Z" />
<glyph unicode="q" glyph-name="q" d="M744 105H733Q690 48 621 15T466 -19Q356 -19 269 35T129 211T77 521Q77 1105 617 1105Q700 1105 789 1092T946 1055V-440H744V105ZM597 153T653 179T744 257V928Q670 944 602 944Q443 944 363 849T283 539Q283 391 314 306T401
187T535 153Q597 153 653 179Z" />
<glyph unicode="r" glyph-name="r" horiz-adv-x="698" d="M129 1088H297L313 942H325Q372 1021 447 1060T612 1100Q652 1100 687 1093V906Q653 912 601 912Q522 912 448 875T331 770V0H129V1088Z" />
<glyph unicode="s" glyph-name="s" horiz-adv-x="852" d="M226 -20T92 24V184Q233 139 378 139Q494 139 550 180T607 300Q607 365 575 399T470 452L333 482Q194 515 131 588T68 782Q68 878 116 951T261 1064T497 1105Q625 1105 741 1076V916Q628 946 503 946Q375
946 317 902T258 786Q258 728 289 693T391 641L529 610Q670 577 733 505T797 307Q797 206 748 133T606 20T381 -20Q226 -20 92 24Z" />
<glyph unicode="t" glyph-name="t" horiz-adv-x="724" d="M636 154T704 168V0Q621 -19 540 -19Q371 -19 283 68T194 344V924H7V1088H194L228 1480H396V1088H692V924H396V374Q396 292 416 244T478 175T588 154Q636 154 704 168Z" />
<glyph unicode="u" glyph-name="u" horiz-adv-x="1071" d="M296 -19T208 70T120 359V1088H322V371Q322 258 369 210T501 161Q565 161 631 192T739 287V1088H941V0H773L758 116H747Q687 49 610 15T447 -19Q296 -19 208 70Z" />
<glyph unicode="v" glyph-name="v" horiz-adv-x="1015" d="M805 1088H1008L637 0H377L6 1088H219L512 186L805 1088Z" />
<glyph unicode="w" glyph-name="w" horiz-adv-x="1627" d="M1396 1088H1582L1291 0H1061L815 886L567 0H336L45 1088H238L462 219L703 1088H933L1170 224L1396 1088Z" />
<glyph unicode="x" glyph-name="x" horiz-adv-x="967" d="M602 551L967 0H742L482 402L221 0H2L364 548L8 1088H233L486 699L738 1088H957L602 551Z" />
<glyph unicode="y" glyph-name="y" horiz-adv-x="1015" d="M805 1088H1008L487 -440H286L438 0H377L6 1088H219L509 178L805 1088Z" />
<glyph unicode="z" glyph-name="z" horiz-adv-x="875" d="M300 164H827V0H57V126L574 924H68V1088H817V962L300 164Z" />
<glyph unicode="{" glyph-name="braceleft" horiz-adv-x="676" d="M408 769T369 710T244 626Q329 602 368 543T408 385V-119Q408 -208 453 -250T590 -293H711V-448Q642 -460 563 -460Q386 -460 296 -374T206 -118V393Q206 469 168 506T56 544H25V708H56Q129 708
167 745T206 859V1294Q206 1463 296 1549T563 1636Q642 1636 711 1624V1469H590Q498 1469 453 1427T408 1295V867Q408 769 369 710Z" />
<glyph unicode="|" glyph-name="bar" horiz-adv-x="476" d="M146 -440V1616H330V-440H146Z" />
<glyph unicode="}" glyph-name="braceright" horiz-adv-x="676" d="M651 708V544H620Q547 544 509 507T470 393V-118Q470 -287 380 -373T113 -460Q34 -460 -35 -448V-293H86Q178 -293 223 -251T268 -119V385Q268 483 307 542T433 626Q347 650 308 709T268 867V1295Q268
1384 223 1426T86 1469H-35V1624Q34 1636 113 1636Q290 1636 380 1550T470 1294V859Q470 783 508 746T620 708H651Z" />
<glyph unicode="~" glyph-name="asciitilde" horiz-adv-x="1055" d="M661 619T615 635T507 682Q449 709 414 722T343 735Q281 735 229 709T128 627V799Q208 894 344 894Q394 894 438 879T549 831Q603 804 639 791T712 777Q774 777 826 803T927 886V713Q848 619
712 619Q661 619 615 635Z" />
<glyph unicode="&#xa0;" glyph-name="uni00A0" horiz-adv-x="459" />
<glyph unicode="&#xa1;" glyph-name="exclamdown" horiz-adv-x="502" d="M314 1102T352 1065T391 968Q391 906 353 869T251 832Q188 832 150 869T112 968Q112 1029 150 1065T251 1102Q314 1102 352 1065ZM189 679H315L359 152V-380H143V152L189 679Z" />
<glyph unicode="&#xa2;" glyph-name="cent" horiz-adv-x="833" d="M502 935T430 898T323 776T287 547Q287 400 320 313T418 188T586 150Q677 150 800 189V21Q713 -8 624 -17V-240H450V-13Q266 14 172 149T77 543Q77 791 171 925T450 1093V1328H624V1104Q719 1101
800 1081V913Q705 935 617 935Q502 935 430 898Z" />
<glyph unicode="&#xa3;" glyph-name="sterling" horiz-adv-x="1200" d="M1145 171V0H73V171H274V671H73V829H274V1046Q274 1270 409 1384T810 1499Q889 1499 967 1489T1108 1460V1286Q973 1326 822 1326Q700 1326 624 1298T512 1210T475 1052V829H943V671H475V171H1145Z" />
<glyph unicode="&#xa4;" glyph-name="currency" horiz-adv-x="1133" d="M950 465L1055 363L943 252L842 357L767 449Q681 391 567 391Q452 391 367 449L292 357L190 252L79 363L183 465L278 542Q226 627 226 740Q226 853 279 937L183 1015L77 1117L189 1228L290
1123L367 1029Q453 1087 567 1087Q680 1087 766 1029L843 1123L944 1228L1056 1117L950 1015L854 937Q907 853 907 740Q907 629 855 542L950 465ZM628 516T675 542T748 619T775 740Q775 805 751 856T680 935T569 964Q474 964 416 904T358 740Q358 671 384 621T458
543T567 516Q628 516 675 542Z" />
<glyph unicode="&#xa5;" glyph-name="yen" horiz-adv-x="1169" d="M1186 1480L753 758H994V626H688V422H994V290H688V0H483V290H177V422H483V626H177V758H417L-21 1480H200L590 832L980 1480H1186Z" />
<glyph unicode="&#xa6;" glyph-name="brokenbar" horiz-adv-x="476" d="M146 836V1616H330V836H146ZM146 -440V340H330V-440H146Z" />
<glyph unicode="&#xa7;" glyph-name="section" horiz-adv-x="964" d="M866 576T769 489Q834 421 834 304Q834 204 785 131T641 19T411 -20Q267 -20 132 20V173Q269 132 410 132Q647 132 647 293Q647 358 615 392T510 446L354 481Q224 513 161 585T98 776Q98 904
198 991Q128 1061 128 1175Q128 1271 176 1343T321 1456T561 1497Q685 1497 798 1472V1319Q689 1345 573 1345Q438 1345 377 1301T315 1186Q315 1127 347 1092T449 1039L607 1004Q742 972 804 900T866 707Q866 576 769 489ZM570 588Q606 580 641 567Q669 595 682
626T696 695Q696 764 660 803T546 861L391 896Q346 907 323 916Q268 860 268 786Q268 721 302 682T414 623L570 588Z" />
<glyph unicode="&#xa8;" glyph-name="dieresis" horiz-adv-x="1006" d="M239 1304T207 1335T174 1420Q174 1475 206 1506T296 1538Q352 1538 384 1507T417 1420Q417 1366 385 1335T296 1304Q239 1304 207 1335ZM655 1304T622 1335T589 1420Q589 1475 622 1506T711
1538Q767 1538 799 1507T832 1420Q832 1366 800 1335T711 1304Q655 1304 622 1335Z" />
<glyph unicode="&#xa9;" glyph-name="copyright" horiz-adv-x="1672" d="M614 -22T445 73T183 340T90 740Q90 967 183 1139T445 1407T836 1502Q1058 1502 1227 1407T1489 1140T1582 740Q1582 513 1489 341T1227 73T836 -22Q614 -22 445 73ZM1024 102T1163 180T1378
403T1454 740Q1454 933 1379 1077T1164 1299T836 1378Q648 1378 509 1300T294 1077T218 740Q218 547 293 403T508 181T836 102Q1024 102 1163 180ZM760 324T668 371T526 510T476 733Q476 863 526 955T673 1095T904 1144Q1009 1144 1096 1118V980Q998 1004 917 1004Q637
1004 637 736Q637 601 705 533T899 464Q988 464 1096 499V361Q1007 324 884 324Q760 324 668 371Z" />
<glyph unicode="&#xaa;" glyph-name="ordfeminine" horiz-adv-x="828" d="M498 1496T577 1464T695 1359T734 1162V610H578L564 703H553Q514 649 453 622T317 594Q235 594 175 624T83 710T50 839Q50 961 129 1026T381 1105L548 1120V1181Q548 1244 527 1280T460
1332T339 1348Q231 1348 111 1311V1458Q169 1476 238 1486T372 1496Q498 1496 577 1464ZM426 731T470 751T548 813V1011L403 999Q317 992 277 958T236 863Q236 798 273 765T380 731Q426 731 470 751Z" />
<glyph unicode="&#xab;" glyph-name="guillemotleft" horiz-adv-x="983" d="M318 136L96 564L318 992H522L300 564L522 136H318ZM722 136L500 564L722 992H926L704 564L926 136H722Z" />
<glyph unicode="&#xac;" glyph-name="logicalnot" horiz-adv-x="1287" d="M997 194V679H128V841H1166V194H997Z" />
<glyph unicode="&#xad;" glyph-name="uni00AD" horiz-adv-x="789" d="M128 480V648H660V480H128Z" />
<glyph unicode="&#xae;" glyph-name="registered" horiz-adv-x="1459" d="M908 1498T1046 1420T1262 1202T1339 882Q1339 702 1262 563T1047 346T729 268Q550 268 412 345T196 562T119 882Q119 1062 196 1202T411 1420T729 1498Q908 1498 1046 1420ZM880 369T994
432T1170 612T1232 882Q1232 1037 1170 1153T994 1333T729 1397Q578 1397 465 1334T289 1154T227 882Q227 728 289 612T464 433T729 369Q880 369 994 432ZM970 866T842 826L997 600H879L734 810H718H623L621 600H516V1192H718Q843 1192 906 1143T970 1000Q970 866
842 826ZM735 900Q802 900 834 924T866 1000Q866 1103 735 1103H623V900H735Z" />
<glyph unicode="&#xaf;" glyph-name="overscore" horiz-adv-x="1006" d="M196 1355V1488H810V1355H196Z" />
<glyph unicode="&#xb0;" glyph-name="degree" horiz-adv-x="943" d="M370 799T290 844T165 969T119 1149Q119 1249 164 1328T290 1453T471 1498Q572 1498 652 1453T778 1329T823 1149Q823 1049 778 969T653 844T471 799Q370 799 290 844ZM533 929T581 956T657
1033T685 1149Q685 1215 658 1264T581 1341T471 1368Q410 1368 362 1341T286 1265T258 1149Q258 1083 285 1033T361 956T471 929Q533 929 581 956Z" />
<glyph unicode="&#xb1;" glyph-name="plusminus" horiz-adv-x="1055" d="M443 346V670H128V831H443V1154H612V831H927V670H612V346H443ZM128 1V162H927V1H128Z" />
<glyph unicode="&#xb2;" glyph-name="uni00B2" horiz-adv-x="772" d="M681 4V-136H87V-46L356 320Q421 409 449 470T478 587Q478 667 431 704T282 741Q170 741 75 703V840Q119 858 180 867T305 877Q643 877 643 603Q643 526 610 449T500 268L305 4H681Z" />
<glyph unicode="&#xb3;" glyph-name="uni00B3" horiz-adv-x="772" d="M582 362T635 298T689 135Q689 -1 592 -75T314 -149Q185 -149 71 -114V16Q127 -2 189 -11T307 -20Q531 -20 531 145Q531 311 307 311H178V442H271Q384 442 441 484T498 603Q498 676 450 712T301
748Q183 748 89 710V841Q132 858 195 867T319 877Q485 877 571 810T657 618Q657 531 611 470T480 383Q582 362 635 298Z" />
<glyph unicode="&#xb4;" glyph-name="acute" horiz-adv-x="1006" d="M413 1247L606 1616H818L593 1247H413Z" />
<glyph unicode="&#xb5;" glyph-name="uni00B5" horiz-adv-x="1071" d="M941 1088V0H773L758 116H747Q694 49 627 15T485 -19Q384 -19 322 34V-440H120V1088H322V371Q322 258 369 210T501 161Q565 161 631 192T739 287V1088H941Z" />
<glyph unicode="&#xb6;" glyph-name="paragraph" horiz-adv-x="1189" d="M611 474Q549 469 505 469Q80 469 80 982Q80 1247 186 1371T513 1496Q644 1496 764 1480V0H611V474ZM891 0V1480H1043V0H891Z" />
<glyph unicode="&#xb7;" glyph-name="middot" horiz-adv-x="462" d="M168 425T130 461T92 559Q92 621 130 657T231 694Q295 694 333 657T371 559Q371 499 333 462T231 425Q168 425 130 461Z" />
<glyph unicode="&#xb8;" glyph-name="cedilla" horiz-adv-x="1006" d="M636 -111T674 -152T713 -260Q713 -336 658 -379T499 -423Q455 -423 412 -415T335 -391V-298Q407 -332 493 -332Q546 -332 571 -313T597 -253Q597 -170 491 -170H455V20H564V-101Q636 -111 674 -152Z" />
<glyph unicode="&#xb9;" glyph-name="uni00B9" horiz-adv-x="772" d="M508 4H705V-136H136V4H343V674L135 529V682L404 868H508V4Z" />
<glyph unicode="&#xba;" glyph-name="ordmasculine" horiz-adv-x="889" d="M259 594T158 706T57 1046Q57 1272 158 1384T444 1496Q629 1496 730 1384T832 1046Q832 821 731 708T444 594Q259 594 158 706ZM541 739T591 808T642 1046Q642 1216 592 1283T444 1351Q347
1351 297 1283T247 1046Q247 877 297 808T444 739Q541 739 591 808Z" />
<glyph unicode="&#xbb;" glyph-name="guillemotright" horiz-adv-x="983" d="M56 136L278 564L56 992H260L482 564L260 136H56ZM460 136L682 564L460 992H664L886 564L664 136H460Z" />
<glyph unicode="&#xbc;" glyph-name="onequarter" horiz-adv-x="1822" d="M508 756H705V616H136V756H343V1426L135 1281V1434L404 1620H508V756ZM445 -136L1205 1616H1377L617 -136H445ZM1796 216V87H1670V-136H1523V87H1079V178L1408 864H1566L1257 216H1523L1554
526H1670V216H1796Z" />
<glyph unicode="&#xbd;" glyph-name="onehalf" horiz-adv-x="1822" d="M508 756H705V616H136V756H343V1426L135 1281V1434L404 1620H508V756ZM445 -136L1205 1616H1377L617 -136H445ZM1731 4V-136H1137V-46L1406 320Q1471 409 1499 470T1528 587Q1528 667 1481
704T1332 741Q1220 741 1125 703V840Q1169 858 1230 867T1355 877Q1693 877 1693 603Q1693 526 1660 449T1550 268L1355 4H1731Z" />
<glyph unicode="&#xbe;" glyph-name="threequarters" horiz-adv-x="1822" d="M582 1114T635 1050T689 887Q689 751 592 677T314 603Q185 603 71 638V768Q127 750 189 741T307 732Q531 732 531 897Q531 1063 307 1063H178V1194H271Q384 1194 441 1236T498 1355Q498
1428 450 1464T301 1500Q183 1500 89 1462V1593Q132 1610 195 1619T319 1629Q485 1629 571 1562T657 1370Q657 1283 611 1222T480 1135Q582 1114 635 1050ZM445 -136L1205 1616H1377L617 -136H445ZM1796 216V87H1670V-136H1523V87H1079V178L1408 864H1566L1257
216H1523L1554 526H1670V216H1796Z" />
<glyph unicode="&#xbf;" glyph-name="questiondown" horiz-adv-x="877" d="M552 1102T591 1066T630 972Q630 912 592 877T490 841Q427 841 389 877T351 972Q351 1030 389 1066T490 1102Q552 1102 591 1066ZM588 300Q461 263 388 218T283 118T252 -11Q252 -235
542 -235Q700 -235 844 -180V-346Q782 -371 694 -385T521 -400Q292 -400 173 -303T53 -26Q53 126 138 228T409 401L427 697H554L588 300Z" />
<glyph unicode="&#xc0;" glyph-name="Agrave" horiz-adv-x="1293" d="M1069 0L925 455H365L221 0H18L499 1480H794L1274 0H1069ZM419 627H870L645 1339L419 627ZM557 1604L366 1893H579L737 1604H557Z" />
<glyph unicode="&#xc1;" glyph-name="Aacute" horiz-adv-x="1293" d="M1069 0L925 455H365L221 0H18L499 1480H794L1274 0H1069ZM419 627H870L645 1339L419 627ZM557 1604L715 1893H928L737 1604H557Z" />
<glyph unicode="&#xc2;" glyph-name="Acircumflex" horiz-adv-x="1293" d="M1069 0L925 455H365L221 0H18L499 1480H794L1274 0H1069ZM419 627H870L645 1339L419 627ZM960 1604H801L647 1811L493 1604H334L557 1893H737L960 1604Z" />
<glyph unicode="&#xc3;" glyph-name="Atilde" horiz-adv-x="1293" d="M1069 0L925 455H365L221 0H18L499 1480H794L1274 0H1069ZM419 627H870L645 1339L419 627ZM757 1653T719 1664T631 1695Q583 1714 554 1722T493 1731Q441 1731 402 1714T323 1659V1790Q355
1824 397 1841T495 1858Q537 1858 575 1847T663 1816Q710 1798 740 1789T802 1780Q853 1780 892 1797T971 1852V1720Q939 1686 897 1670T799 1653Q757 1653 719 1664Z" />
<glyph unicode="&#xc4;" glyph-name="Adieresis" horiz-adv-x="1293" d="M1069 0L925 455H365L221 0H18L499 1480H794L1274 0H1069ZM419 627H870L645 1339L419 627ZM366 1643T334 1671T302 1751Q302 1802 334 1831T424 1861Q481 1861 513 1832T546 1751Q546 1700
514 1672T424 1643Q366 1643 334 1671ZM812 1643T781 1671T749 1751Q749 1802 781 1831T870 1861Q927 1861 959 1832T992 1751Q992 1700 960 1672T870 1643Q812 1643 781 1671Z" />
<glyph unicode="&#xc5;" glyph-name="Aring" horiz-adv-x="1293" d="M1069 0L925 455H365L221 0H18L499 1480H794L1274 0H1069ZM419 627H870L645 1339L419 627ZM592 1485T546 1510T474 1581T448 1683Q448 1739 474 1784T546 1855T649 1881Q706 1881 752 1856T824
1785T850 1683Q850 1626 824 1581T752 1511T649 1485Q592 1485 546 1510ZM698 1570T728 1600T759 1683Q759 1734 729 1764T649 1795Q600 1795 570 1765T539 1683Q539 1631 569 1601T649 1570Q698 1570 728 1600Z" />
<glyph unicode="&#xc6;" glyph-name="AE" horiz-adv-x="1781" d="M1089 173H1725V0H899L871 454H370L223 0H18L506 1480H1715V1307H1017L1046 845H1618V672H1057L1089 173ZM426 627H860L819 1307H647L426 627Z" />
<glyph unicode="&#xc7;" glyph-name="Ccedilla" horiz-adv-x="1088" d="M614 1323T512 1267T357 1082T305 741Q305 523 357 395T510 212T764 157Q836 157 906 169T1055 207V31Q987 8 908 -5T746 -19H724V-98Q807 -107 852 -148T897 -258Q897 -337 838 -380T668
-423Q563 -423 480 -389V-296Q568 -332 659 -332Q719 -332 749 -313T780 -252Q780 -170 657 -170H615V-11Q358 22 224 201T90 737Q90 1130 262 1314T762 1499Q912 1499 1055 1461V1285Q925 1323 772 1323Q614 1323 512 1267Z" />
<glyph unicode="&#xc8;" glyph-name="Egrave" horiz-adv-x="1106" d="M349 173H1049V0H146V1480H1039V1307H349V845H943V672H349V173ZM525 1604L334 1893H547L705 1604H525Z" />
<glyph unicode="&#xc9;" glyph-name="Eacute" horiz-adv-x="1106" d="M349 173H1049V0H146V1480H1039V1307H349V845H943V672H349V173ZM525 1604L683 1893H896L705 1604H525Z" />
<glyph unicode="&#xca;" glyph-name="Ecircumflex" horiz-adv-x="1106" d="M349 173H1049V0H146V1480H1039V1307H349V845H943V672H349V173ZM928 1604H769L615 1811L461 1604H302L525 1893H705L928 1604Z" />
<glyph unicode="&#xcb;" glyph-name="Edieresis" horiz-adv-x="1106" d="M349 173H1049V0H146V1480H1039V1307H349V845H943V672H349V173ZM334 1643T302 1671T270 1751Q270 1802 302 1831T392 1861Q449 1861 481 1832T514 1751Q514 1700 482 1672T392 1643Q334
1643 302 1671ZM780 1643T749 1671T717 1751Q717 1802 749 1831T838 1861Q895 1861 927 1832T960 1751Q960 1700 928 1672T838 1643Q780 1643 749 1671Z" />
<glyph unicode="&#xcc;" glyph-name="Igrave" horiz-adv-x="497" d="M146 0V1480H351V0H146ZM159 1604L-32 1893H181L339 1604H159Z" />
<glyph unicode="&#xcd;" glyph-name="Iacute" horiz-adv-x="497" d="M146 0V1480H351V0H146ZM159 1604L317 1893H530L339 1604H159Z" />
<glyph unicode="&#xce;" glyph-name="Icircumflex" horiz-adv-x="497" d="M146 0V1480H351V0H146ZM562 1604H403L249 1811L95 1604H-64L159 1893H339L562 1604Z" />
<glyph unicode="&#xcf;" glyph-name="Idieresis" horiz-adv-x="497" d="M146 0V1480H351V0H146ZM-32 1643T-64 1671T-96 1751Q-96 1802 -64 1831T26 1861Q83 1861 115 1832T148 1751Q148 1700 116 1672T26 1643Q-32 1643 -64 1671ZM414 1643T383 1671T351 1751Q351
1802 383 1831T472 1861Q529 1861 561 1832T594 1751Q594 1700 562 1672T472 1643Q414 1643 383 1671Z" />
<glyph unicode="&#xd0;" glyph-name="Eth" horiz-adv-x="1330" d="M883 1496T1061 1311T1240 740Q1240 477 1156 311T903 66T480 -13Q324 -13 146 6V691H0V832H146V1457Q341 1496 523 1496Q883 1496 1061 1311ZM697 160T807 218T973 404T1029 741Q1029 947 975
1075T813 1263T536 1323Q453 1323 351 1308V832H636V691H351V169Q429 160 526 160Q697 160 807 218Z" />
<glyph unicode="&#xd1;" glyph-name="Ntilde" horiz-adv-x="1397" d="M1058 1480H1251V0H1042L340 1157V0H146V1480H355L1058 323V1480ZM809 1653T771 1664T683 1695Q635 1714 606 1722T545 1731Q493 1731 454 1714T375 1659V1790Q407 1824 449 1841T547 1858Q589
1858 627 1847T715 1816Q762 1798 792 1789T854 1780Q905 1780 944 1797T1023 1852V1720Q991 1686 949 1670T851 1653Q809 1653 771 1664Z" />
<glyph unicode="&#xd2;" glyph-name="Ograve" horiz-adv-x="1368" d="M403 -19T247 166T90 740Q90 1129 246 1314T684 1499Q965 1499 1121 1314T1278 740Q1278 351 1122 166T684 -19Q403 -19 247 166ZM870 154T968 288T1066 734Q1066 1053 968 1189T684 1326Q498
1326 400 1192T301 746Q301 427 399 291T684 154Q870 154 968 288ZM594 1604L403 1893H616L774 1604H594Z" />
<glyph unicode="&#xd3;" glyph-name="Oacute" horiz-adv-x="1368" d="M403 -19T247 166T90 740Q90 1129 246 1314T684 1499Q965 1499 1121 1314T1278 740Q1278 351 1122 166T684 -19Q403 -19 247 166ZM870 154T968 288T1066 734Q1066 1053 968 1189T684 1326Q498
1326 400 1192T301 746Q301 427 399 291T684 154Q870 154 968 288ZM594 1604L752 1893H965L774 1604H594Z" />
<glyph unicode="&#xd4;" glyph-name="Ocircumflex" horiz-adv-x="1368" d="M403 -19T247 166T90 740Q90 1129 246 1314T684 1499Q965 1499 1121 1314T1278 740Q1278 351 1122 166T684 -19Q403 -19 247 166ZM870 154T968 288T1066 734Q1066 1053 968 1189T684 1326Q498
1326 400 1192T301 746Q301 427 399 291T684 154Q870 154 968 288ZM997 1604H838L684 1811L530 1604H371L594 1893H774L997 1604Z" />
<glyph unicode="&#xd5;" glyph-name="Otilde" horiz-adv-x="1368" d="M403 -19T247 166T90 740Q90 1129 246 1314T684 1499Q965 1499 1121 1314T1278 740Q1278 351 1122 166T684 -19Q403 -19 247 166ZM870 154T968 288T1066 734Q1066 1053 968 1189T684 1326Q498
1326 400 1192T301 746Q301 427 399 291T684 154Q870 154 968 288ZM794 1653T756 1664T668 1695Q620 1714 591 1722T530 1731Q478 1731 439 1714T360 1659V1790Q392 1824 434 1841T532 1858Q574 1858 612 1847T700 1816Q747 1798 777 1789T839 1780Q890 1780 929
1797T1008 1852V1720Q976 1686 934 1670T836 1653Q794 1653 756 1664Z" />
<glyph unicode="&#xd6;" glyph-name="Odieresis" horiz-adv-x="1368" d="M403 -19T247 166T90 740Q90 1129 246 1314T684 1499Q965 1499 1121 1314T1278 740Q1278 351 1122 166T684 -19Q403 -19 247 166ZM870 154T968 288T1066 734Q1066 1053 968 1189T684 1326Q498
1326 400 1192T301 746Q301 427 399 291T684 154Q870 154 968 288ZM403 1643T371 1671T339 1751Q339 1802 371 1831T461 1861Q518 1861 550 1832T583 1751Q583 1700 551 1672T461 1643Q403 1643 371 1671ZM849 1643T818 1671T786 1751Q786 1802 818 1831T907 1861Q964
1861 996 1832T1029 1751Q1029 1700 997 1672T907 1643Q849 1643 818 1671Z" />
<glyph unicode="&#xd7;" glyph-name="multiply" horiz-adv-x="993" d="M216 366L102 479L384 760L102 1041L216 1154L497 873L778 1154L891 1041L610 760L891 479L778 366L497 647L216 366Z" />
<glyph unicode="&#xd8;" glyph-name="Oslash" horiz-adv-x="1368" d="M1278 1100T1278 740Q1278 351 1122 166T684 -19Q457 -19 314 98L223 -34L125 36L230 188Q90 378 90 740Q90 1129 246 1314T684 1499Q913 1499 1054 1381L1146 1514L1244 1444L1139 1291Q1278
1100 1278 740ZM301 512T357 372L943 1221Q852 1326 684 1326Q498 1326 400 1192T301 746Q301 512 357 372ZM870 154T968 288T1066 734Q1066 969 1011 1106L425 258Q516 154 684 154Q870 154 968 288Z" />
<glyph unicode="&#xd9;" glyph-name="Ugrave" horiz-adv-x="1348" d="M399 -19T269 120T139 556V1480H344V534Q344 337 424 247T677 156Q849 156 929 246T1009 534V1480H1210V556Q1210 358 1154 232T980 43T677 -19Q399 -19 269 120ZM587 1604L396 1893H609L767
1604H587Z" />
<glyph unicode="&#xda;" glyph-name="Uacute" horiz-adv-x="1348" d="M399 -19T269 120T139 556V1480H344V534Q344 337 424 247T677 156Q849 156 929 246T1009 534V1480H1210V556Q1210 358 1154 232T980 43T677 -19Q399 -19 269 120ZM587 1604L745 1893H958L767
1604H587Z" />
<glyph unicode="&#xdb;" glyph-name="Ucircumflex" horiz-adv-x="1348" d="M399 -19T269 120T139 556V1480H344V534Q344 337 424 247T677 156Q849 156 929 246T1009 534V1480H1210V556Q1210 358 1154 232T980 43T677 -19Q399 -19 269 120ZM990 1604H831L677 1811L523
1604H364L587 1893H767L990 1604Z" />
<glyph unicode="&#xdc;" glyph-name="Udieresis" horiz-adv-x="1348" d="M399 -19T269 120T139 556V1480H344V534Q344 337 424 247T677 156Q849 156 929 246T1009 534V1480H1210V556Q1210 358 1154 232T980 43T677 -19Q399 -19 269 120ZM396 1643T364 1671T332
1751Q332 1802 364 1831T454 1861Q511 1861 543 1832T576 1751Q576 1700 544 1672T454 1643Q396 1643 364 1671ZM842 1643T811 1671T779 1751Q779 1802 811 1831T900 1861Q957 1861 989 1832T1022 1751Q1022 1700 990 1672T900 1643Q842 1643 811 1671Z" />
<glyph unicode="&#xdd;" glyph-name="Yacute" horiz-adv-x="1137" d="M1167 1480L672 650V0H467V649L-39 1480H181L573 831L961 1480H1167ZM479 1604L637 1893H850L659 1604H479Z" />
<glyph unicode="&#xde;" glyph-name="Thorn" horiz-adv-x="1199" d="M146 1480H351V1262Q439 1274 522 1274Q817 1274 963 1149T1110 760Q1110 505 961 376T512 246Q447 246 351 253V0H146V1480ZM718 411T812 494T907 756Q907 941 817 1025T535 1110Q438 1110
351 1095V420Q420 411 515 411Q718 411 812 494Z" />
<glyph unicode="&#xdf;" glyph-name="germandbls" horiz-adv-x="1350" d="M1169 577T1232 505T1296 307Q1296 206 1247 133T1102 20T873 -20Q723 -20 591 19V179Q730 139 869 139Q1106 139 1106 300Q1106 365 1074 399T969 452L832 482Q693 514 630 587T567 782Q567
878 615 949T757 1059T988 1099Q1011 1099 1025 1098Q1029 1129 1029 1168Q1029 1336 949 1410T731 1485Q568 1485 486 1394T404 1100V0H202V921H15V1088H202V1102Q202 1275 263 1395T440 1575T718 1636Q930 1636 1055 1520T1180 1160Q1180 1103 1172 1043T1151
934Q1079 946 1010 946Q877 946 817 902T757 786Q757 728 788 693T890 641L1027 610Q1169 577 1232 505Z" />
<glyph unicode="&#xe0;" glyph-name="agrave" horiz-adv-x="987" d="M593 1105T684 1067T820 940T866 701V0H699L684 117H672Q625 50 552 16T389 -18Q292 -18 221 18T111 122T72 283Q72 432 166 513T464 612L669 633V711Q669 800 643 850T562 921T417 942Q355
942 283 931T143 897V1060Q209 1081 291 1093T449 1105Q593 1105 684 1067ZM510 134T567 161T669 248V504L482 486Q374 476 324 431T273 303Q273 219 318 177T449 134Q510 134 567 161ZM399 1247L175 1616H387L579 1247H399Z" />
<glyph unicode="&#xe1;" glyph-name="aacute" horiz-adv-x="987" d="M593 1105T684 1067T820 940T866 701V0H699L684 117H672Q625 50 552 16T389 -18Q292 -18 221 18T111 122T72 283Q72 432 166 513T464 612L669 633V711Q669 800 643 850T562 921T417 942Q355
942 283 931T143 897V1060Q209 1081 291 1093T449 1105Q593 1105 684 1067ZM510 134T567 161T669 248V504L482 486Q374 476 324 431T273 303Q273 219 318 177T449 134Q510 134 567 161ZM399 1247L592 1616H804L579 1247H399Z" />
<glyph unicode="&#xe2;" glyph-name="acircumflex" horiz-adv-x="987" d="M593 1105T684 1067T820 940T866 701V0H699L684 117H672Q625 50 552 16T389 -18Q292 -18 221 18T111 122T72 283Q72 432 166 513T464 612L669 633V711Q669 800 643 850T562 921T417 942Q355
942 283 931T143 897V1060Q209 1081 291 1093T449 1105Q593 1105 684 1067ZM510 134T567 161T669 248V504L482 486Q374 476 324 431T273 303Q273 219 318 177T449 134Q510 134 567 161ZM782 1247H632L489 1517L347 1247H196L401 1616H578L782 1247Z" />
<glyph unicode="&#xe3;" glyph-name="atilde" horiz-adv-x="987" d="M593 1105T684 1067T820 940T866 701V0H699L684 117H672Q625 50 552 16T389 -18Q292 -18 221 18T111 122T72 283Q72 432 166 513T464 612L669 633V711Q669 800 643 850T562 921T417 942Q355
942 283 931T143 897V1060Q209 1081 291 1093T449 1105Q593 1105 684 1067ZM510 134T567 161T669 248V504L482 486Q374 476 324 431T273 303Q273 219 318 177T449 134Q510 134 567 161ZM591 1328T555 1340T473 1374Q431 1393 403 1403T346 1413Q298 1413 259 1394T182
1334V1474Q246 1544 349 1544Q387 1544 423 1532T505 1498Q547 1479 575 1469T632 1459Q680 1459 719 1478T796 1538V1398Q732 1328 629 1328Q591 1328 555 1340Z" />
<glyph unicode="&#xe4;" glyph-name="adieresis" horiz-adv-x="987" d="M593 1105T684 1067T820 940T866 701V0H699L684 117H672Q625 50 552 16T389 -18Q292 -18 221 18T111 122T72 283Q72 432 166 513T464 612L669 633V711Q669 800 643 850T562 921T417 942Q355
942 283 931T143 897V1060Q209 1081 291 1093T449 1105Q593 1105 684 1067ZM510 134T567 161T669 248V504L482 486Q374 476 324 431T273 303Q273 219 318 177T449 134Q510 134 567 161ZM225 1304T193 1335T160 1420Q160 1475 192 1506T282 1538Q338 1538 370 1507T403
1420Q403 1366 371 1335T282 1304Q225 1304 193 1335ZM641 1304T608 1335T575 1420Q575 1475 608 1506T697 1538Q753 1538 785 1507T818 1420Q818 1366 786 1335T697 1304Q641 1304 608 1335Z" />
<glyph unicode="&#xe5;" glyph-name="aring" horiz-adv-x="987" d="M593 1105T684 1067T820 940T866 701V0H699L684 117H672Q625 50 552 16T389 -18Q292 -18 221 18T111 122T72 283Q72 432 166 513T464 612L669 633V711Q669 800 643 850T562 921T417 942Q355 942
283 931T143 897V1060Q209 1081 291 1093T449 1105Q593 1105 684 1067ZM510 134T567 161T669 248V504L482 486Q374 476 324 431T273 303Q273 219 318 177T449 134Q510 134 567 161ZM432 1242T386 1267T314 1338T288 1440Q288 1497 314 1542T386 1612T489 1638Q546
1638 592 1613T664 1542T690 1440Q690 1383 664 1338T592 1268T489 1242Q432 1242 386 1267ZM538 1328T568 1358T599 1440Q599 1492 569 1522T489 1553Q440 1553 410 1523T379 1440Q379 1389 409 1359T489 1328Q538 1328 568 1358Z" />
<glyph unicode="&#xe6;" glyph-name="ae" horiz-adv-x="1558" d="M1493 480H866Q870 354 905 280T1009 174T1190 142Q1295 142 1440 182V20Q1299 -20 1166 -20Q1017 -20 916 23T756 160Q685 64 597 23T406 -18Q249 -18 161 61T72 283Q72 436 172 523T485 610H671V713Q671
801 644 851T561 921T416 942Q355 942 283 931T143 897V1060Q213 1082 291 1093T442 1105Q575 1105 660 1067T789 947Q890 1106 1096 1106Q1286 1106 1389 968T1493 540V480ZM982 965T926 885T866 610H1301Q1299 744 1273 822T1201 932T1087 965Q982 965 926 885ZM610
134T702 283Q678 370 672 484H501Q382 484 328 435T273 300Q273 218 319 176T452 134Q610 134 702 283Z" />
<glyph unicode="&#xe7;" glyph-name="ccedilla" horiz-adv-x="832" d="M503 935T431 898T323 776T287 547Q287 400 320 313T418 188T586 150Q677 150 800 189V21Q679 -20 552 -20H550V-101Q622 -111 660 -152T699 -260Q699 -336 644 -379T485 -423Q441 -423 398
-415T321 -391V-298Q393 -332 479 -332Q532 -332 557 -313T583 -253Q583 -170 477 -170H441V-12Q261 18 169 153T77 543Q77 835 208 970T592 1105Q701 1105 800 1081V913Q705 935 620 935Q503 935 431 898Z" />
<glyph unicode="&#xe8;" glyph-name="egrave" horiz-adv-x="982" d="M917 480H282Q286 354 321 280T426 174T611 142Q718 142 863 182V20Q722 -20 586 -20Q412 -20 300 37T133 219T77 545Q77 826 191 965T510 1105Q709 1105 813 966T917 540V480ZM400 964T343
884T282 610H725Q723 743 697 820T625 931T508 964Q400 964 343 884ZM415 1247L191 1616H403L595 1247H415Z" />
<glyph unicode="&#xe9;" glyph-name="eacute" horiz-adv-x="982" d="M917 480H282Q286 354 321 280T426 174T611 142Q718 142 863 182V20Q722 -20 586 -20Q412 -20 300 37T133 219T77 545Q77 826 191 965T510 1105Q709 1105 813 966T917 540V480ZM400 964T343
884T282 610H725Q723 743 697 820T625 931T508 964Q400 964 343 884ZM415 1247L608 1616H820L595 1247H415Z" />
<glyph unicode="&#xea;" glyph-name="ecircumflex" horiz-adv-x="982" d="M917 480H282Q286 354 321 280T426 174T611 142Q718 142 863 182V20Q722 -20 586 -20Q412 -20 300 37T133 219T77 545Q77 826 191 965T510 1105Q709 1105 813 966T917 540V480ZM400 964T343
884T282 610H725Q723 743 697 820T625 931T508 964Q400 964 343 884ZM798 1247H648L505 1517L363 1247H212L417 1616H594L798 1247Z" />
<glyph unicode="&#xeb;" glyph-name="edieresis" horiz-adv-x="982" d="M917 480H282Q286 354 321 280T426 174T611 142Q718 142 863 182V20Q722 -20 586 -20Q412 -20 300 37T133 219T77 545Q77 826 191 965T510 1105Q709 1105 813 966T917 540V480ZM400 964T343
884T282 610H725Q723 743 697 820T625 931T508 964Q400 964 343 884ZM241 1304T209 1335T176 1420Q176 1475 208 1506T298 1538Q354 1538 386 1507T419 1420Q419 1366 387 1335T298 1304Q241 1304 209 1335ZM657 1304T624 1335T591 1420Q591 1475 624 1506T713
1538Q769 1538 801 1507T834 1420Q834 1366 802 1335T713 1304Q657 1304 624 1335Z" />
<glyph unicode="&#xec;" glyph-name="igrave" horiz-adv-x="461" d="M129 0V1088H332V0H129ZM141 1247L-83 1616H129L321 1247H141Z" />
<glyph unicode="&#xed;" glyph-name="iacute" horiz-adv-x="461" d="M129 0V1088H332V0H129ZM141 1247L334 1616H546L321 1247H141Z" />
<glyph unicode="&#xee;" glyph-name="icircumflex" horiz-adv-x="461" d="M129 0V1088H332V0H129ZM524 1247H374L231 1517L89 1247H-62L143 1616H320L524 1247Z" />
<glyph unicode="&#xef;" glyph-name="idieresis" horiz-adv-x="461" d="M129 0V1088H332V0H129ZM-33 1304T-65 1335T-98 1420Q-98 1475 -66 1506T24 1538Q80 1538 112 1507T145 1420Q145 1366 113 1335T24 1304Q-33 1304 -65 1335ZM383 1304T350 1335T317 1420Q317
1475 350 1506T439 1538Q495 1538 527 1507T560 1420Q560 1366 528 1335T439 1304Q383 1304 350 1335Z" />
<glyph unicode="&#xf0;" glyph-name="eth" horiz-adv-x="1059" d="M862 1157T921 966T981 590Q980 276 864 128T531 -21Q314 -21 196 117T77 542Q77 828 193 964T515 1101Q619 1101 696 1052Q646 1177 571 1288L185 1218L161 1337L489 1397Q389 1517 264 1616H501Q594
1543 682 1432L932 1477L956 1357L759 1321Q862 1157 921 966ZM650 139T713 232T776 538Q776 691 747 780T664 907T529 944Q449 944 395 907T312 782T283 543Q283 391 312 302T395 176T531 139Q650 139 713 232Z" />
<glyph unicode="&#xf1;" glyph-name="ntilde" horiz-adv-x="1080" d="M129 1088H298L313 969H325Q383 1035 462 1070T633 1105Q785 1105 872 1015T960 727V0H758V715Q758 829 711 877T575 926Q508 926 441 895T331 798V0H129V1088ZM647 1328T611 1340T529 1374Q487
1393 459 1403T402 1413Q354 1413 315 1394T238 1334V1474Q302 1544 405 1544Q443 1544 479 1532T561 1498Q603 1479 631 1469T688 1459Q736 1459 775 1478T852 1538V1398Q788 1328 685 1328Q647 1328 611 1340Z" />
<glyph unicode="&#xf2;" glyph-name="ograve" horiz-adv-x="1059" d="M314 -20T196 118T77 542Q77 830 194 967T529 1105Q745 1105 863 967T981 543Q981 256 863 118T529 -20Q314 -20 196 118ZM610 140T664 176T747 301T776 540Q776 693 747 782T663 908T529 945Q449
945 395 909T312 784T283 545Q283 392 312 303T395 177T529 140Q610 140 664 176ZM439 1247L215 1616H427L619 1247H439Z" />
<glyph unicode="&#xf3;" glyph-name="oacute" horiz-adv-x="1059" d="M314 -20T196 118T77 542Q77 830 194 967T529 1105Q745 1105 863 967T981 543Q981 256 863 118T529 -20Q314 -20 196 118ZM610 140T664 176T747 301T776 540Q776 693 747 782T663 908T529 945Q449
945 395 909T312 784T283 545Q283 392 312 303T395 177T529 140Q610 140 664 176ZM439 1247L632 1616H844L619 1247H439Z" />
<glyph unicode="&#xf4;" glyph-name="ocircumflex" horiz-adv-x="1059" d="M314 -20T196 118T77 542Q77 830 194 967T529 1105Q745 1105 863 967T981 543Q981 256 863 118T529 -20Q314 -20 196 118ZM610 140T664 176T747 301T776 540Q776 693 747 782T663 908T529
945Q449 945 395 909T312 784T283 545Q283 392 312 303T395 177T529 140Q610 140 664 176ZM822 1247H672L529 1517L387 1247H236L441 1616H618L822 1247Z" />
<glyph unicode="&#xf5;" glyph-name="otilde" horiz-adv-x="1059" d="M314 -20T196 118T77 542Q77 830 194 967T529 1105Q745 1105 863 967T981 543Q981 256 863 118T529 -20Q314 -20 196 118ZM610 140T664 176T747 301T776 540Q776 693 747 782T663 908T529 945Q449
945 395 909T312 784T283 545Q283 392 312 303T395 177T529 140Q610 140 664 176ZM631 1328T595 1340T513 1374Q471 1393 443 1403T386 1413Q338 1413 299 1394T222 1334V1474Q286 1544 389 1544Q427 1544 463 1532T545 1498Q587 1479 615 1469T672 1459Q720 1459
759 1478T836 1538V1398Q772 1328 669 1328Q631 1328 595 1340Z" />
<glyph unicode="&#xf6;" glyph-name="odieresis" horiz-adv-x="1059" d="M314 -20T196 118T77 542Q77 830 194 967T529 1105Q745 1105 863 967T981 543Q981 256 863 118T529 -20Q314 -20 196 118ZM610 140T664 176T747 301T776 540Q776 693 747 782T663 908T529
945Q449 945 395 909T312 784T283 545Q283 392 312 303T395 177T529 140Q610 140 664 176ZM265 1304T233 1335T200 1420Q200 1475 232 1506T322 1538Q378 1538 410 1507T443 1420Q443 1366 411 1335T322 1304Q265 1304 233 1335ZM681 1304T648 1335T615 1420Q615
1475 648 1506T737 1538Q793 1538 825 1507T858 1420Q858 1366 826 1335T737 1304Q681 1304 648 1335Z" />
<glyph unicode="&#xf7;" glyph-name="divide" horiz-adv-x="1055" d="M470 1002T435 1035T399 1125Q399 1182 434 1216T528 1250Q586 1250 621 1216T656 1125Q656 1069 621 1036T528 1002Q470 1002 435 1035ZM128 679V841H927V679H128ZM470 270T435 303T399 393Q399
450 434 484T528 518Q586 518 621 484T656 393Q656 337 621 304T528 270Q470 270 435 303Z" />
<glyph unicode="&#xf8;" glyph-name="oslash" horiz-adv-x="1059" d="M981 811T981 543Q981 256 863 118T529 -20Q370 -20 266 53L204 -37L108 30L181 137Q77 278 77 542Q77 830 194 967T529 1105Q685 1105 789 1034L852 1125L948 1058L875 951Q981 811 981 543ZM447
948T392 911T307 785T277 545Q277 395 306 305L697 884Q639 948 529 948Q447 948 392 911ZM612 137T667 174T752 300T782 540Q782 690 752 785L359 204Q416 137 529 137Q612 137 667 174Z" />
<glyph unicode="&#xf9;" glyph-name="ugrave" horiz-adv-x="1071" d="M296 -19T208 70T120 359V1088H322V371Q322 258 369 210T501 161Q565 161 631 192T739 287V1088H941V0H773L758 116H747Q687 49 610 15T447 -19Q296 -19 208 70ZM442 1247L218 1616H430L622 1247H442Z" />
<glyph unicode="&#xfa;" glyph-name="uacute" horiz-adv-x="1071" d="M296 -19T208 70T120 359V1088H322V371Q322 258 369 210T501 161Q565 161 631 192T739 287V1088H941V0H773L758 116H747Q687 49 610 15T447 -19Q296 -19 208 70ZM442 1247L635 1616H847L622 1247H442Z" />
<glyph unicode="&#xfb;" glyph-name="ucircumflex" horiz-adv-x="1071" d="M296 -19T208 70T120 359V1088H322V371Q322 258 369 210T501 161Q565 161 631 192T739 287V1088H941V0H773L758 116H747Q687 49 610 15T447 -19Q296 -19 208 70ZM825 1247H675L532 1517L390
1247H239L444 1616H621L825 1247Z" />
<glyph unicode="&#xfc;" glyph-name="udieresis" horiz-adv-x="1071" d="M296 -19T208 70T120 359V1088H322V371Q322 258 369 210T501 161Q565 161 631 192T739 287V1088H941V0H773L758 116H747Q687 49 610 15T447 -19Q296 -19 208 70ZM268 1304T236 1335T203
1420Q203 1475 235 1506T325 1538Q381 1538 413 1507T446 1420Q446 1366 414 1335T325 1304Q268 1304 236 1335ZM684 1304T651 1335T618 1420Q618 1475 651 1506T740 1538Q796 1538 828 1507T861 1420Q861 1366 829 1335T740 1304Q684 1304 651 1335Z" />
<glyph unicode="&#xfd;" glyph-name="yacute" horiz-adv-x="1015" d="M805 1088H1008L487 -440H286L438 0H377L6 1088H219L509 178L805 1088ZM418 1247L611 1616H823L598 1247H418Z" />
<glyph unicode="&#xfe;" glyph-name="thorn" d="M129 1616H331V980H342Q387 1038 455 1071T612 1105Q721 1105 808 1051T946 875T998 564Q998 272 864 127T464 -19Q405 -19 331 -10V-440H129V1616ZM633 142T712 236T792 546Q792 694 761 779T675 899T542 933Q479
933 423 906T331 826V155Q393 142 470 142Q633 142 712 236Z" />
<glyph unicode="&#xff;" glyph-name="ydieresis" horiz-adv-x="1015" d="M805 1088H1008L487 -440H286L438 0H377L6 1088H219L509 178L805 1088ZM244 1304T212 1335T179 1420Q179 1475 211 1506T301 1538Q357 1538 389 1507T422 1420Q422 1366 390 1335T301 1304Q244
1304 212 1335ZM660 1304T627 1335T594 1420Q594 1475 627 1506T716 1538Q772 1538 804 1507T837 1420Q837 1366 805 1335T716 1304Q660 1304 627 1335Z" />
<glyph unicode="&#x2013;" glyph-name="endash" horiz-adv-x="850" d="M0 490V638H850V490H0Z" />
<glyph unicode="&#x2014;" glyph-name="emdash" horiz-adv-x="1700" d="M0 490V638H1700V490H0Z" />
<glyph unicode="&#x2018;" glyph-name="quoteleft" horiz-adv-x="462" d="M301 1301T336 1265T371 1171Q371 1110 335 1074T240 1037Q92 1037 92 1213Q92 1318 123 1422T208 1616H326Q290 1526 270 1452T244 1306Q301 1301 336 1265Z" />
<glyph unicode="&#x2019;" glyph-name="quoteright" horiz-adv-x="462" d="M297 1630T333 1586T370 1454Q370 1349 339 1244T255 1051H137Q173 1142 193 1216T218 1361Q161 1366 127 1402T92 1496Q92 1558 129 1594T228 1630Q297 1630 333 1586Z" />
<glyph unicode="&#x201a;" glyph-name="quotesinglbase" horiz-adv-x="462" d="M297 255T333 211T370 79Q370 -26 339 -131T255 -323H137Q173 -233 193 -159T218 -14Q161 -9 127 27T92 121Q92 184 128 219T228 255Q297 255 333 211Z" />
<glyph unicode="&#x201c;" glyph-name="quotedblleft" horiz-adv-x="841" d="M301 1301T336 1265T371 1171Q371 1110 335 1074T240 1037Q92 1037 92 1213Q92 1318 123 1422T208 1616H326Q290 1526 270 1452T244 1306Q301 1301 336 1265ZM680 1301T715 1265T750
1171Q750 1110 714 1074T619 1037Q471 1037 471 1213Q471 1318 502 1422T587 1616H705Q669 1526 649 1452T623 1306Q680 1301 715 1265Z" />
<glyph unicode="&#x201d;" glyph-name="quotedblright" horiz-adv-x="841" d="M297 1630T333 1586T370 1454Q370 1349 339 1244T255 1051H137Q173 1142 193 1216T218 1361Q161 1366 127 1402T92 1496Q92 1558 129 1594T228 1630Q297 1630 333 1586ZM676 1630T712
1586T749 1454Q749 1349 718 1244T634 1051H516Q552 1142 572 1216T597 1361Q540 1366 506 1402T471 1496Q471 1558 508 1594T607 1630Q676 1630 712 1586Z" />
<glyph unicode="&#x201e;" glyph-name="quotedblbase" horiz-adv-x="841" d="M297 255T333 211T370 79Q370 -26 339 -131T255 -323H137Q173 -233 193 -159T218 -14Q161 -9 127 27T92 121Q92 184 128 219T228 255Q297 255 333 211ZM676 255T712 211T749 79Q749
-26 718 -131T634 -323H516Q552 -233 572 -159T597 -14Q540 -9 506 27T471 121Q471 184 507 219T607 255Q676 255 712 211Z" />
<glyph unicode="&#x2022;" glyph-name="bullet" horiz-adv-x="703" d="M280 300T221 334T127 427T92 560Q92 634 126 693T220 786T352 820Q424 820 483 787T577 694T612 560Q612 486 578 427T484 334T352 300Q280 300 221 334Z" />
<glyph unicode="&#x2039;" glyph-name="guilsinglleft" horiz-adv-x="578" d="M318 136L96 564L318 992H522L300 564L522 136H318Z" />
<glyph unicode="&#x203a;" glyph-name="guilsinglright" horiz-adv-x="578" d="M56 136L278 564L56 992H260L482 564L260 136H56Z" />
</font>
</defs>
</svg>
