<?xml version="1.0" standalone="no"?>
<!DOCTYPE svg PUBLIC "-//W3C//DTD SVG 1.1//EN" "http://www.w3.org/Graphics/SVG/1.1/DTD/svg11.dtd">
<svg xmlns="http://www.w3.org/2000/svg">
<defs >
<font id="Content" horiz-adv-x="2184" ><font-face
    font-family="Content"
    units-per-em="2048"
    panose-1="2 0 5 0 0 0 0 0 0 0"
    ascent="2500"
    descent="-1200"
    alphabetic="0" />
<glyph unicode=" " glyph-name="space" horiz-adv-x="569" />
<glyph unicode="!" glyph-name="exclam" horiz-adv-x="872" d="M612 1493V801L572 344H502L462 801V1493H612ZM622 213V0H450V213H622Z" />
<glyph unicode="&quot;" glyph-name="quotedbl" horiz-adv-x="727" d="M106 1452H296V1225L241 950H161L106 1225V1452ZM434 1452H624V1225L569 950H489L434 1225V1452Z" />
<glyph unicode="#" glyph-name="numbersign" horiz-adv-x="1138" d="M993 1427L919 1026H1109V887H892L829 530H1044V391H804L724 -40H569L646 391H393L313 -40H157L235 391H28V530H261L325 887H104V1026H352L425 1427H581L507 1026H763L835 1427H993ZM737 887H483L417
530H673L737 887Z" />
<glyph unicode="$" glyph-name="dollar" horiz-adv-x="1138" d="M501 1577H622V1466Q880 1448 976 1257Q1015 1180 1019 1083V1063H858Q856 1221 739 1290Q698 1313 649 1321Q636 1323 622 1323V813Q827 750 890 715Q1064 616 1064 399Q1064 186 925 61Q903 41
876 25Q776 -34 622 -47V-258H501V-47Q186 -26 98 213Q70 293 70 390Q70 408 71 426H233Q247 274 276 225Q280 219 284 211Q356 113 501 94V651Q311 709 243 758Q98 862 98 1057Q98 1356 384 1442Q438 1458 501 1466V1577ZM501 829V1321Q305 1294 270 1139Q264
1110 264 1077Q264 893 501 829ZM622 633V94Q747 109 810 170Q896 252 896 375Q896 500 800 561Q741 598 622 633Z" />
<glyph unicode="%" glyph-name="percent" horiz-adv-x="1820" d="M407 1403Q579 1403 684 1268L721 1210Q757 1135 757 1049Q757 887 628 782Q532 702 409 702Q243 702 137 831Q59 930 59 1053Q59 1219 188 1325Q284 1403 407 1403ZM407 1260Q297 1260 235 1165L211
1118Q200 1085 200 1053Q200 944 292 881Q346 846 409 846Q520 846 581 938Q616 989 616 1051Q616 1167 518 1229Q469 1260 407 1260ZM1247 1452H1382L573 -40H438L1247 1452ZM1409 659Q1583 659 1687 524Q1759 430 1759 307Q1759 145 1630 41Q1534 -38 1411 -38Q1245
-38 1138 90Q1060 188 1060 311Q1060 477 1192 582Q1288 659 1409 659ZM1409 516Q1298 516 1237 424Q1202 373 1202 311Q1202 199 1298 137Q1349 104 1411 104Q1521 104 1583 197Q1618 248 1618 307Q1618 424 1519 485L1472 506Q1441 516 1409 516Z" />
<glyph unicode="&amp;" glyph-name="ampersand" horiz-adv-x="1366" d="M1009 684H1173Q1173 492 1054 309L1304 0H1081L954 160Q854 61 796 27Q681 -47 526 -47Q288 -47 174 121Q106 221 106 360Q106 526 212 635Q286 709 438 797Q294 977 276 1075Q272 1102
272 1130Q272 1288 405 1384Q499 1452 622 1452Q806 1452 901 1317L931 1260Q950 1217 954 1167Q956 1149 956 1130Q956 989 843 889Q784 836 673 774L946 440Q1009 552 1009 676V684ZM583 883Q749 987 780 1063Q794 1094 794 1135Q794 1241 702 1288Q663 1309
616 1309Q493 1309 452 1206Q440 1174 440 1133Q440 1065 491 993L583 883ZM856 281L528 690Q335 567 294 465Q278 424 278 375Q278 242 389 164Q460 113 546 113Q684 113 823 246Q839 262 856 281Z" />
<glyph unicode="&apos;" glyph-name="quotesingle" horiz-adv-x="391" d="M98 1452H291V1225L235 950H153L98 1225V1452Z" />
<glyph unicode="(" glyph-name="parenleft" horiz-adv-x="1146" d="M584 1493H696Q443 1083 418 614Q416 571 416 530Q416 53 666 -382Q680 -409 696 -434H584Q352 -131 277 262Q250 401 250 530Q250 897 440 1264Q504 1389 584 1493Z" />
<glyph unicode=")" glyph-name="parenright" horiz-adv-x="1146" d="M563 -434H450Q704 -24 729 444Q731 487 731 528Q731 1006 481 1442Q466 1468 450 1493H563Q794 1190 870 797Q896 657 896 528Q896 162 706 -204Q643 -329 563 -434Z" />
<glyph unicode="*" glyph-name="asterisk" horiz-adv-x="1321" d="M696 1493H825L815 1264L1032 1341L1071 1221L849 1159L993 977L888 903L761 1094L632 903L530 977L671 1159L450 1221L489 1341L706 1264L696 1493Z" />
<glyph unicode="+" glyph-name="plus" horiz-adv-x="1196" d="M1093 547V403H669V-20H526V403H102V547H526V971H669V547H1093Z" />
<glyph unicode="," glyph-name="comma" horiz-adv-x="569" d="M178 213H393V-32Q393 -301 178 -301V-223Q266 -219 287 -155Q301 -116 301 -36V0H178V213Z" />
<glyph unicode="-" glyph-name="hyphen" horiz-adv-x="681" d="M581 639V492H94V639H581Z" />
<glyph unicode="." glyph-name="period" horiz-adv-x="569" d="M391 213V0H178V213H391Z" />
<glyph unicode="/" glyph-name="slash" horiz-adv-x="569" d="M469 1493H582L97 -40H-16L469 1493Z" />
<glyph unicode="0" glyph-name="zero" horiz-adv-x="1166" d="M88 1500T583 1500Q1078 1500 1078 750Q1078 0 583 0Q88 0 88 750Q88 1500 583 1500ZM928 1350T583 1350Q238 1350 238 750Q238 150 583 150Q928 150 928 750Q928 1350 583 1350Z" />
<glyph unicode="1" glyph-name="one" horiz-adv-x="952" d="M431 1172H226V1267Q438 1267 468 1500H581V150H786V0H226V150H431V1172Z" />
<glyph unicode="2" glyph-name="two" horiz-adv-x="1129" d="M889 843T889 1053Q889 1350 574 1350Q259 1350 259 1053H109Q109 1500 574 1500Q1039 1500 1039 1053Q1039 741 657 577L466 494Q259 409 259 150H1039V0H109V150Q109 508 416 639L607 721Q889 843 889 1053Z" />
<glyph unicode="3" glyph-name="three" horiz-adv-x="1143" d="M562 861Q847 861 847 1106Q847 1350 562 1350Q277 1350 277 1106H127Q127 1500 562 1500Q997 1500 997 1108Q997 888 861 791Q1027 688 1027 431Q1027 0 562 0Q97 0 97 433H247Q247 150 562 150Q877
150 877 433Q877 715 562 715H484V861H562Z" />
<glyph unicode="4" glyph-name="four" horiz-adv-x="1091" d="M698 1231L221 519H698V1231ZM698 1500H848V519H1040V369H848V0H698V369H40V519L698 1500Z" />
<glyph unicode="5" glyph-name="five" horiz-adv-x="1146" d="M1039 500Q1039 0 602 0Q174 0 124 397H274Q324 150 602 150Q889 150 889 500Q889 850 612 850Q410 850 324 722H179L249 1500H969V1350H384L347 949Q454 1000 612 1000Q1039 1000 1039 500Z" />
<glyph unicode="6" glyph-name="six" horiz-adv-x="1082" d="M243 573Q286 150 550 150Q865 150 865 475Q865 800 550 800Q287 800 243 573ZM550 0Q85 0 85 750Q85 1500 600 1500Q1015 1500 1015 1148H865Q865 1350 600 1350Q272 1350 239 864Q352 950 550 950Q1015
950 1015 475Q1015 0 550 0Z" />
<glyph unicode="7" glyph-name="seven" horiz-adv-x="1103" d="M1029 1350L496 0H335L869 1350H99V1500H1029V1350Z" />
<glyph unicode="8" glyph-name="eight" horiz-adv-x="1078" d="M539 1350Q254 1350 254 1100Q254 850 539 850Q824 850 824 1100Q824 1350 539 1350ZM539 700Q224 700 224 425Q224 150 539 150Q854 150 854 425Q854 700 539 700ZM237 780Q104 878 104 1100Q104
1500 539 1500Q974 1500 974 1100Q974 878 841 780Q1004 677 1004 425Q1004 0 539 0Q74 0 74 425Q74 677 237 780Z" />
<glyph unicode="9" glyph-name="nine" horiz-adv-x="1082" d="M839 927Q796 1350 532 1350Q217 1350 217 1025Q217 700 532 700Q795 700 839 927ZM532 1500Q997 1500 997 750Q997 0 482 0Q67 0 67 352H217Q217 150 482 150Q810 150 843 636Q730 550 532 550Q67
550 67 1025Q67 1500 532 1500Z" />
<glyph unicode=":" glyph-name="colon" horiz-adv-x="569" d="M438 213V0H225V213H438ZM438 1073V860H225V1073H438Z" />
<glyph unicode=";" glyph-name="semicolon" horiz-adv-x="569" d="M440 1073V860H227V1073H440ZM225 213H440V-32Q440 -301 225 -301V-223Q313 -219 334 -155Q348 -116 348 -36V0H225V213Z" />
<glyph unicode="&lt;" glyph-name="less" horiz-adv-x="1196" d="M92 406V547L1093 971V809L287 479L1093 143V-18L92 406Z" />
<glyph unicode="=" glyph-name="equal" horiz-adv-x="1196" d="M1093 723V580H102V723H1093ZM1093 371V227H102V371H1093Z" />
<glyph unicode="&gt;" glyph-name="greater" horiz-adv-x="1196" d="M1103 547V406L102 -18V143L909 473L102 809V971L1103 547Z" />
<glyph unicode="?" glyph-name="question" horiz-adv-x="1585" d="M968 408H784V520Q784 623 841 698Q876 743 948 811Q962 823 997 854Q1148 989 1150 1124Q1150 1268 1025 1329L962 1350Q927 1358 888 1358Q720 1358 659 1239Q624 1169 624 1038H450Q450 1254
542 1373Q635 1492 819 1513Q858 1518 899 1518Q1157 1518 1271 1348L1304 1286Q1335 1212 1335 1124Q1335 981 1230 860Q1191 813 1130 758Q1001 639 980 584Q968 553 968 504V408ZM968 213V0H784V213H968Z" />
<glyph unicode="@" glyph-name="at" horiz-adv-x="2078" d="M1361 1026H1531L1347 453Q1322 381 1322 350Q1322 295 1382 268Q1402 260 1425 260Q1556 260 1664 408Q1769 553 1769 731Q1769 977 1570 1159Q1367 1348 1079 1360H1048Q747 1360 515 1151L446 1081Q243
850 243 559Q243 270 458 72Q679 -133 1011 -133Q1173 -133 1406 -67L1464 -204Q1234 -290 1001 -290Q632 -290 364 -71Q114 133 75 434Q69 481 69 528Q69 844 264 1110Q321 1190 393 1253Q614 1454 923 1505Q999 1518 1075 1518Q1415 1518 1666 1311Q1904 1118
1941 842Q1947 799 1947 756Q1947 508 1771 299Q1615 117 1390 117Q1193 117 1165 274Q1030 127 874 127Q706 127 610 268Q540 369 540 502Q540 725 702 897Q860 1067 1066 1069Q1238 1069 1316 891L1361 1026ZM1054 938Q919 938 817 793Q724 664 724 500Q724 362
821 293Q870 258 927 258Q1046 258 1136 391Q1204 489 1236 662Q1245 707 1247 741V755Q1247 856 1163 909Q1113 938 1054 938Z" />
<glyph unicode="&#xa0;" glyph-name="space" horiz-adv-x="569" />
<glyph unicode="&#xad;" glyph-name="hyphen" horiz-adv-x="681" d="M581 639V492H94V639H581Z" />
</font>
</defs>
</svg>
