<?xml version="1.0" standalone="no"?>
<!DOCTYPE svg PUBLIC "-//W3C//DTD SVG 1.1//EN" "http://www.w3.org/Graphics/SVG/1.1/DTD/svg11.dtd">
<svg xmlns="http://www.w3.org/2000/svg">
<defs >
<font id="Almendra" horiz-adv-x="464" ><font-face
    font-family="Almendra"
    units-per-em="1000"
    panose-1="2 0 0 0 0 0 0 0 0 0"
    ascent="951"
    descent="-345"
    alphabetic="0" />
<glyph unicode=" " glyph-name="space" horiz-adv-x="165" />
<glyph unicode="!" glyph-name="exclam" horiz-adv-x="259" d="M199 93Q184 69 154 35T100 -15Q79 0 56 33T21 93Q32 114 62 140T118 179Q161 152 199 93ZM225 711Q229 711 233 711Q258 687 280 642Q183 431 142 243L96 238L112 681Q179 711 225 711Z" />
<glyph unicode="&quot;" glyph-name="quotedbl" horiz-adv-x="334" d="M66 652Q83 660 116 667T158 674T170 674L186 657Q125 543 86 376L48 371L66 652ZM214 652Q231 660 264 667T306 674T318 674L334 657Q273 543 234 376L196 371L214 652Z" />
<glyph unicode="#" glyph-name="numbersign" horiz-adv-x="572" d="M413 372Q427 372 453 372T532 373L538 368L509 309L402 312L379 189Q392 189 417 189T494 190L500 185L471 126L368 129L326 -96H321Q286 -88 266 -71Q299 60 312 131L218 133L175 -96H170Q135
-88 115 -71Q150 75 162 134L45 137L37 144L66 206L111 202Q150 198 173 197L196 317L83 320L75 327L104 389L149 385Q186 381 208 380L247 587Q284 587 307 594L311 591Q285 494 263 377Q294 375 358 373L398 587Q435 587 458 594L462 591Q436 493 414 376L413
372ZM229 194Q259 192 323 190L347 314L252 316L229 194Z" />
<glyph unicode="$" glyph-name="dollar" horiz-adv-x="387" d="M121 168Q121 122 162 79L173 217Q115 252 88 272Q39 307 39 347T99 435T226 512L232 588Q255 591 264 594L268 591Q262 562 257 515Q295 504 329 504T376 513L386 502Q340 448 320 388L310 385L284
404L249 427L243 347Q332 294 348 266Q357 251 357 235Q357 178 305 112T187 -2L182 -91L177 -92Q154 -85 146 -77L153 -13Q112 -6 73 17T13 68L4 80Q79 147 111 205L125 197Q121 184 121 168ZM241 157Q241 172 202 199L191 57Q210 74 225 104T241 157ZM193 451Q167
434 167 413T214 363L221 442Q201 450 193 451Z" />
<glyph unicode="%" glyph-name="percent" horiz-adv-x="759" d="M208 570H212Q233 569 318 555T450 540T517 547T555 578L562 588Q612 590 643 600L646 597Q557 481 483 377L145 -104H140Q108 -93 91 -65Q104 -49 132 -14Q207 77 224 102L418 376Q423 384 461
437T520 521L516 522Q484 492 445 492T289 534L286 531Q340 477 349 408Q332 326 281 277T186 227T97 277T46 390Q63 470 113 520T208 570ZM528 328T572 328T660 278T713 166Q696 84 645 35T550 -15T461 35T410 148Q427 228 477 278ZM165 384Q165 282 192 268Q229
279 229 397T202 529Q165 518 165 384ZM529 142Q529 40 556 26Q593 37 593 155T566 287Q529 276 529 142Z" />
<glyph unicode="&amp;" glyph-name="ampersand" horiz-adv-x="682" d="M569 383Q681 383 702 414Q704 422 704 430Q704 462 690 483V491Q732 526 758 576Q775 576 783 561T792 526Q792 451 754 398T641 298Q617 306 592 308Q586 200 511 109T330 -15Q180 -15 100
62T20 286Q20 385 92 472T264 585L272 584Q278 570 286 546T300 506Q316 466 338 442Q365 476 385 528T405 622Q405 628 403 652L407 657Q494 657 536 666Q515 587 485 527T406 417T308 329T178 239Q209 66 337 66Q376 66 404 80Q443 132 443 259Q443 286 440 308Q395
305 367 277Q365 269 365 261Q365 229 379 208V200Q337 165 311 115Q294 115 286 130T277 165Q277 239 326 301T450 395Q510 383 569 383ZM184 510T177 454T170 350T173 278Q221 315 237 331Q213 424 201 519Q184 510 177 454Z" />
<glyph unicode="&apos;" glyph-name="quotesingle" horiz-adv-x="186" d="M66 652Q83 660 116 667T158 674T170 674L186 657Q125 543 86 376L48 371L66 652Z" />
<glyph unicode="(" glyph-name="parenleft" horiz-adv-x="296" d="M303 695Q132 482 132 199Q132 106 155 0T241 -200L217 -215Q128 -134 85 -16T41 214Q41 373 110 501T282 711L303 695Z" />
<glyph unicode=")" glyph-name="parenright" horiz-adv-x="296" d="M-7 -199Q164 14 164 297Q164 390 141 496T55 696L79 711Q168 630 211 512T255 282Q255 123 186 -5T14 -215L-7 -199Z" />
<glyph unicode="*" glyph-name="asterisk" horiz-adv-x="371" d="M211 677L244 683L246 681Q211 628 203 576Q248 609 277 661H280Q284 654 288 628Q304 631 313 631T326 629Q326 621 303 595Q304 593 309 588Q322 576 323 571L322 569Q318 569 314 569Q268 569
215 547Q261 525 311 525Q315 525 319 525L320 523Q318 520 297 499Q316 475 316 465Q312 462 302 462T277 465Q271 447 265 435H262Q241 482 199 518Q200 463 227 412L226 410L195 418Q181 387 173 383Q164 388 156 419L125 412L123 414Q157 469 166 518Q125 488
92 434H89L82 466Q66 463 57 463T43 465Q44 474 65 501L46 525L47 527Q52 527 57 527Q109 527 154 547Q107 568 59 568Q55 568 51 568V570Q54 576 72 594Q53 622 53 629Q57 631 66 631T93 628Q103 659 104 660H107Q131 608 170 576Q167 633 142 681L144 683Q151
683 175 677Q189 707 196 711Q203 707 211 677Z" />
<glyph unicode="+" glyph-name="plus" horiz-adv-x="576" d="M320 212Q320 85 329 -10L259 -19L249 -12V212H65L57 219L66 290Q188 284 249 283V486L320 495L325 489Q320 356 320 283V282Q357 281 416 281T514 284L520 278L511 212H320Z" />
<glyph unicode="," glyph-name="comma" horiz-adv-x="220" d="M199 93Q187 21 133 -51T10 -169L-5 -152Q68 -75 84 -1Q44 39 21 93Q32 114 62 140T118 179Q161 152 199 93Z" />
<glyph unicode="-" glyph-name="hyphen" horiz-adv-x="300" d="M76 298Q184 298 268 308L276 303L270 241L33 226L24 232L30 298H76Z" />
<glyph unicode="." glyph-name="period" horiz-adv-x="220" d="M199 93Q184 69 154 35T100 -15Q79 0 56 33T21 93Q32 114 62 140T118 179Q161 152 199 93Z" />
<glyph unicode="/" glyph-name="slash" horiz-adv-x="408" d="M64 -47H57Q30 -36 7 -7Q55 85 93 171L240 495Q286 597 322 695Q360 697 396 706L401 702Q357 615 324 543L64 -47Z" />
<glyph unicode="0" glyph-name="zero" horiz-adv-x="457" d="M178 221Q178 159 189 105T222 38Q279 58 279 260Q279 426 234 452Q178 432 178 221ZM32 354T106 429T245 505T374 429T450 258Q425 135 351 60T211 -15T83 61T7 231Q32 354 106 429Z" />
<glyph unicode="1" glyph-name="one" horiz-adv-x="343" d="M302 -13Q248 0 155 0T17 -9L14 9Q42 25 82 36Q100 134 100 372Q100 422 96 458Q64 467 32 485L35 502Q92 490 184 490T320 500L325 485Q292 469 276 437T254 341T247 181T253 42Q277 18 308 5L302 -13Z" />
<glyph unicode="2" glyph-name="two" horiz-adv-x="392" d="M144 215T172 265T201 369T164 422Q148 422 135 417Q126 399 126 375T140 338L138 330Q82 305 49 272Q24 272 24 302Q24 371 79 425T211 505Q282 505 326 465T371 356Q353 320 306 278T201 192T121 123Q162
115 227 115T315 128Q335 175 355 203L371 195Q348 138 348 76T362 -7L353 -21Q222 8 93 8Q20 8 -11 -13L-21 -3Q3 64 108 177Q144 215 172 265Z" />
<glyph unicode="3" glyph-name="three" horiz-adv-x="388" d="M238 383Q211 386 165 386T95 373Q77 337 55 308L39 316Q62 374 62 427T49 501L60 513Q115 488 271 488Q329 488 371 495L381 479Q329 365 222 282V278Q371 278 371 148Q371 97 331 42T243 -49T143
-115Q98 -111 49 -86T-23 -32L-32 -20Q43 47 75 105L89 97Q85 84 85 62T110 6T165 -43Q188 -18 202 26T216 108Q216 205 138 205Q120 205 105 200L98 220Q191 290 238 383Z" />
<glyph unicode="4" glyph-name="four" horiz-adv-x="470" d="M356 55Q356 -15 362 -58Q388 -80 418 -91L413 -112Q355 -100 269 -100T127 -113L122 -93Q146 -79 191 -64Q201 -13 204 55H-17L-21 69Q88 204 228 480Q331 486 388 505L396 501Q362 393 357 131Q402
131 444 149L449 143Q442 126 432 49Q388 55 356 55ZM222 382Q176 253 112 137Q150 132 213 132L229 382H222Z" />
<glyph unicode="5" glyph-name="five" horiz-adv-x="378" d="M109 282Q153 293 219 293T328 257T371 148Q371 97 331 42T243 -49T143 -115Q98 -111 49 -86T-23 -32L-32 -20Q43 47 75 105L89 97Q85 84 85 62T110 6T165 -43Q188 -18 202 26T216 113T197 178T138
200T57 188L44 196L58 381Q58 390 58 398Q58 444 45 479L55 495Q85 488 140 488Q256 488 311 513L322 501Q309 480 309 432T332 326L316 318Q300 335 281 373Q258 386 202 386T114 381L96 271L100 270L109 282Z" />
<glyph unicode="6" glyph-name="six" horiz-adv-x="430" d="M176 198Q176 87 196 66Q205 55 223 55T252 66Q260 103 260 142T260 197T256 235T247 268Q232 296 200 296V305Q240 349 267 387Q358 387 390 330T423 161Q382 102 322 55T196 -15Q20 -15 20 181Q20
321 124 435T380 609L394 588Q176 459 176 198Z" />
<glyph unicode="7" glyph-name="seven" horiz-adv-x="361" d="M269 380Q221 386 165 386T85 373Q67 337 45 308L29 316Q52 374 52 427T39 501L50 513Q105 488 251 488Q324 488 364 497L375 487Q220 201 217 -66Q253 -79 276 -94L271 -114Q214 -100 143 -100T13
-112L7 -92Q36 -82 63 -58Q79 53 127 153T269 380Z" />
<glyph unicode="8" glyph-name="eight" horiz-adv-x="364" d="M335 499Q335 414 251 335Q282 308 300 289T334 237T350 166Q327 98 277 56T150 -15Q14 -15 14 116Q14 165 44 212T120 289Q81 331 59 370T37 457Q71 503 125 539T230 585Q283 585 309 566T335 499ZM219
73Q227 94 227 127T207 189T147 260Q119 221 119 144Q119 109 132 84T173 59T219 73ZM160 476Q160 423 218 365Q231 413 231 462T193 512Q179 512 167 507Q160 496 160 476Z" />
<glyph unicode="9" glyph-name="nine" horiz-adv-x="430" d="M254 292Q254 403 234 424Q225 435 207 435T178 424Q170 387 170 348T170 293T174 255T183 222Q198 194 230 194V185Q190 141 163 103Q72 103 40 160T7 329Q48 388 108 435T234 505Q410 505 410 309Q410
169 306 55T50 -119L36 -98Q254 31 254 292Z" />
<glyph unicode=":" glyph-name="colon" horiz-adv-x="232" d="M211 419Q196 395 166 361T112 311Q91 326 68 359T33 419Q44 440 74 466T130 505Q173 478 211 419ZM199 93Q184 69 154 35T100 -15Q79 0 56 33T21 93Q32 114 62 140T118 179Q161 152 199 93Z" />
<glyph unicode=";" glyph-name="semicolon" horiz-adv-x="232" d="M199 93Q187 21 133 -51T10 -169L-5 -152Q68 -75 84 -1Q44 39 21 93Q32 114 62 140T118 179Q161 152 199 93ZM211 419Q196 395 166 361T112 311Q91 326 68 359T33 419Q44 440 74 466T130 505Q173
478 211 419Z" />
<glyph unicode="&lt;" glyph-name="less" horiz-adv-x="576" d="M495 45Q264 160 55 222L69 286Q125 303 253 351T497 459L521 393L516 383L167 254V250L516 122L521 112L495 45Z" />
<glyph unicode="=" glyph-name="equal" horiz-adv-x="576" d="M65 208Q234 199 354 199T513 202L519 196L510 135H64L56 142L65 208ZM65 367Q234 358 354 358T513 361L519 355L510 294H64L56 301L65 367Z" />
<glyph unicode="&gt;" glyph-name="greater" horiz-adv-x="576" d="M521 222Q312 160 81 45L55 112L60 122L409 250V254L60 383L55 393L79 459Q195 400 323 352T507 286L521 222Z" />
<glyph unicode="?" glyph-name="question" horiz-adv-x="315" d="M130 441T156 487T183 580T146 628Q130 628 117 623Q108 605 108 581T122 544L120 536Q64 511 31 478Q6 478 6 508Q6 577 61 631T193 711Q264 711 308 671T353 562Q334 538 322 527T303 509T284
492T265 477T243 462L223 448Q218 444 202 432T181 418Q171 389 161 331T148 260L86 250L91 410Q130 441 156 487ZM199 93Q184 69 154 35T100 -15Q79 0 56 33T21 93Q33 115 64 146T118 189Q151 169 199 93Z" />
<glyph unicode="@" glyph-name="at" horiz-adv-x="853" d="M210 159Q210 270 279 363T457 505Q515 505 588 470Q613 515 630 537L646 532Q612 443 612 250Q612 139 624 58Q683 110 714 200T746 375Q746 501 676 562T486 624T296 586Q209 510 160 381T110 130T174
-60T353 -129Q418 -129 476 -106L482 -120Q394 -178 341 -190Q193 -190 112 -116T30 102Q30 330 147 490T477 685Q633 685 728 617T823 407T749 146T550 -15Q474 -3 474 159L490 240L473 242Q455 153 429 87T352 -15Q286 -15 248 35T210 159ZM394 422Q365 304 365
203T382 88Q417 135 442 235T467 402Q448 429 426 429T394 422Z" />
<glyph unicode="A" glyph-name="A" horiz-adv-x="563" d="M318 213Q297 219 275 219T235 219T192 213Q171 128 171 81T178 -1Q71 -1 -9 -15L-21 -7L191 615Q161 625 126 643L130 662Q207 651 322 651T501 662L507 657Q493 598 483 460T473 190T484 0Q350 -4 297
-15L291 -10Q309 69 318 213ZM206 289Q224 282 263 282T321 290Q326 398 326 470T322 591Q317 594 304 594T285 591Q267 564 255 503L206 289Z" />
<glyph unicode="B" glyph-name="B" horiz-adv-x="552" d="M29 651L333 662Q498 662 498 544Q498 487 463 443T370 373V369Q445 369 488 337T531 237Q531 193 504 151T431 78Q343 16 242 -15L210 -7Q141 11 107 11T53 7L47 20Q68 42 75 99Q93 267 93 414T85 616Q51
622 28 633L29 651ZM311 596Q301 604 284 604T253 598Q239 421 239 192Q239 170 241 86Q263 73 294 73T346 89Q362 137 362 206T343 310T260 345L264 382Q289 384 304 391Q331 439 331 514Q331 582 311 596Z" />
<glyph unicode="C" glyph-name="C" horiz-adv-x="466" d="M30 234Q30 506 309 666Q350 651 402 651T473 657L480 643Q453 607 438 540T422 420H405Q395 446 386 496L365 512Q288 570 252 570Q227 512 212 428T197 290T202 203T218 139T253 89T310 71Q337 119 337
196Q337 214 334 227L341 232Q406 233 466 243Q451 166 396 94T270 -15Q158 -15 94 52T30 234Z" />
<glyph unicode="D" glyph-name="D" horiz-adv-x="596" d="M29 651L303 662Q442 662 504 596T566 385T477 132T243 -15L212 -7Q143 11 108 11T53 7L47 20Q68 42 75 99Q93 267 93 414T85 616Q51 622 28 633L29 651ZM245 82Q260 73 298 73T360 94Q380 136 391 205T402
320T402 383T399 433T394 486T382 531T363 570T335 594T295 604T258 598Q240 410 240 192Q240 132 245 82Z" />
<glyph unicode="E" glyph-name="E" horiz-adv-x="469" d="M266 567Q252 567 237 564Q231 549 231 524Q231 447 261 413T367 371L361 333Q280 333 235 295T189 180Q189 130 212 102T279 73T344 89Q353 113 353 140T337 187L339 195Q393 214 424 246Q454 241 454
200Q454 130 393 70T255 -15Q154 -15 88 34T21 161T78 290T219 350V354Q157 362 114 393T71 476Q121 541 186 593T318 666Q409 666 470 630Q427 566 412 489H403Q367 526 336 546T266 567Z" />
<glyph unicode="F" glyph-name="F" horiz-adv-x="481" d="M35 661Q118 651 260 651T489 666L495 655Q453 607 448 497H431Q422 525 415 573Q369 594 309 594Q290 594 265 589Q253 507 245 383Q264 379 311 379T410 396L415 390Q409 373 400 306Q330 316 292 316T242
314Q239 246 239 157T254 0Q121 -4 67 -15L61 -10Q75 49 85 190T96 443T91 615Q49 629 31 641L35 661Z" />
<glyph unicode="G" glyph-name="G" horiz-adv-x="544" d="M30 234Q30 506 309 666Q350 651 412 651T493 657L500 643Q473 607 458 540T442 420H425Q415 446 406 496L385 512Q308 570 252 570Q227 512 212 428T197 290T202 203T218 139T253 89T310 71Q323 77 340
94L342 181Q342 215 336 248Q304 256 265 274L267 295Q304 289 338 289Q417 289 483 321L493 314Q481 288 478 256Q461 113 459 -49Q411 -105 328 -152T180 -200T114 -161Q172 -132 199 -86H207Q236 -115 267 -115T309 -109Q336 -62 339 33Q306 4 270 -15Q158 -15
94 52T30 234Z" />
<glyph unicode="H" glyph-name="H" horiz-adv-x="656" d="M242 315Q236 260 236 164T251 0Q118 -4 64 -15L58 -10Q72 49 82 190T93 444T88 616Q54 622 31 633L32 651Q183 651 269 664L275 659Q256 575 245 395Q288 385 335 385T422 394Q424 444 424 465Q424 596
412 649Q545 653 599 664L605 659Q589 587 580 447T570 179T581 0Q453 -4 394 -15L388 -10Q413 102 420 315Q378 322 331 322T242 315Z" />
<glyph unicode="I" glyph-name="I" horiz-adv-x="327" d="M260 598T248 453T236 188T251 0Q118 -4 64 -15L58 -10Q72 49 82 190T93 444T88 616Q54 622 31 633L32 651Q183 651 269 664L275 659Q260 598 248 453Z" />
<glyph unicode="J" glyph-name="J" horiz-adv-x="325" d="M257 585T246 443T234 196T254 13Q202 -49 125 -106T-33 -201L-45 -185Q21 -122 47 -42Q91 95 91 457Q91 557 86 616Q51 622 29 633L30 651Q181 651 267 664L273 659Q257 585 246 443Z" />
<glyph unicode="K" glyph-name="K" horiz-adv-x="581" d="M378 616Q378 622 376 646L383 651Q498 651 573 660Q547 586 496 513T382 385Q502 116 588 0Q481 -2 394 -15L387 -13Q351 157 272 305L237 279Q236 247 236 158T251 0Q118 -4 64 -15L58 -10Q72 49 82
190T93 444T88 616Q54 622 31 633L32 651Q183 651 269 664L275 659Q251 559 239 335L302 408Q378 494 378 616Z" />
<glyph unicode="L" glyph-name="L" horiz-adv-x="427" d="M260 597T248 457T236 220T244 66Q270 62 323 62T429 81L434 75Q420 32 417 -13Q342 0 239 0T64 -15L58 -10Q72 49 82 190T93 444T88 616Q54 622 31 633L32 651Q183 651 269 664L275 659Q260 597 248 457Z" />
<glyph unicode="M" glyph-name="M" horiz-adv-x="741" d="M317 614Q317 543 351 387L372 289L379 291Q378 302 378 322T386 372L451 596Q457 615 457 628T454 647L457 654Q476 651 550 651T671 665L678 660Q656 544 656 316T677 0Q524 -9 496 -15L489 -10Q512
113 512 324Q512 409 501 503H497Q423 274 414 195Q411 163 411 122Q402 119 370 111Q292 91 274 79L262 87Q264 109 264 120Q264 232 194 496L190 495Q146 231 144 0Q56 -2 7 -14L1 -9Q34 90 78 301T132 616Q99 622 76 633L77 651Q232 651 318 664L323 659Q317
638 317 614Z" />
<glyph unicode="N" glyph-name="N" horiz-adv-x="639" d="M571 600T560 467T549 211T564 0Q558 -1 514 -3Q391 -9 378 -13L371 -10Q319 170 210 407Q185 461 167 485L163 483Q163 306 172 172T189 0Q105 -5 65 -15L59 -10Q73 49 83 188T93 437T83 616Q48 622 26
633L27 651Q203 651 289 664Q306 574 351 447T444 239L478 179L481 180Q481 357 472 484T455 651Q540 656 579 666L585 661Q571 600 560 467Z" />
<glyph unicode="O" glyph-name="O" horiz-adv-x="588" d="M391 396Q391 582 300 582Q269 582 250 571Q197 436 197 255Q197 177 219 123T288 68Q318 68 337 79Q364 133 377 225T391 396ZM30 238Q30 377 112 497T324 666Q558 666 558 413Q558 277 474 152T265 -15Q154
-15 92 54T30 238Z" />
<glyph unicode="P" glyph-name="P" horiz-adv-x="538" d="M32 651L324 662Q481 662 521 588Q537 558 537 514Q537 413 456 359T260 305L263 342Q368 342 368 484Q368 604 300 604Q277 604 256 598Q236 458 236 185Q236 68 251 0Q118 -4 64 -15L58 -10Q72 49 82
190T93 444T88 616Q54 622 31 633L32 651Z" />
<glyph unicode="Q" glyph-name="Q" horiz-adv-x="588" d="M30 238Q30 377 112 497T324 666Q558 666 558 413Q558 287 485 169T300 -1Q328 -10 421 -69T563 -128Q583 -128 593 -105T603 -53L607 -46Q660 -43 712 -16Q724 -25 724 -38Q724 -79 659 -120T517 -186T393
-210Q350 -171 322 -148T246 -100T157 -76T83 -100L65 -82Q90 -56 129 -36T203 -9Q120 9 75 74T30 238ZM391 396Q391 582 300 582Q269 582 250 571Q197 436 197 255Q197 177 219 123T288 68Q318 68 337 79Q364 133 377 225T391 396Z" />
<glyph unicode="R" glyph-name="R" horiz-adv-x="591" d="M32 651L324 662Q481 662 521 588Q537 558 537 514Q537 396 412 337Q526 106 605 0Q498 -2 411 -15L404 -13Q393 39 359 130T281 305H256L259 342Q310 342 339 378T368 484Q368 604 300 604Q277 604 256
598Q236 458 236 185Q236 68 251 0Q118 -4 64 -15L58 -10Q72 49 82 190T93 444T88 616Q54 622 31 633L32 651Z" />
<glyph unicode="S" glyph-name="S" horiz-adv-x="462" d="M185 577Q174 566 174 538T212 479T296 429T380 379T419 315Q419 239 347 140T198 -15Q144 -15 96 13T18 88L1 115Q67 173 114 264L129 258Q123 238 123 206T153 133T224 78Q247 97 266 134T285 199T261
250T201 292T131 330T71 373T46 425Q46 487 107 563T231 666Q286 651 349 651T438 659L444 646Q417 610 402 551T387 441H370Q358 471 350 517L320 535Q252 577 185 577Z" />
<glyph unicode="T" glyph-name="T" horiz-adv-x="528" d="M304 656Q416 647 450 647T497 651Q529 684 553 704L566 698Q532 634 519 550L496 557Q460 567 390 573Q365 385 365 227T380 0Q247 -4 193 -15L187 -10Q201 49 211 190T222 426T219 584Q213 584 207 584Q136
584 104 552Q102 544 102 536Q102 504 116 483V475Q74 440 48 390Q31 390 23 405T14 440Q14 517 63 577T191 666L304 656Z" />
<glyph unicode="U" glyph-name="U" horiz-adv-x="641" d="M85 205L100 457Q100 565 88 616Q54 622 31 633L32 651Q186 651 272 664L278 659Q263 594 253 482T242 298T243 203T249 147Q259 88 298 80Q361 125 396 200Q403 316 403 457T392 649Q526 653 579 664L585
659Q569 587 560 447T550 179T561 0Q430 -6 387 -15L380 -10Q399 62 406 125L402 126Q346 22 263 -15Q165 -13 125 42T85 205Z" />
<glyph unicode="V" glyph-name="V" horiz-adv-x="542" d="M370 514Q370 598 339 626V635Q424 658 475 690Q538 658 538 554Q538 294 285 -13L276 -15L242 1Q233 5 206 18T164 38Q119 57 91 57T50 53L45 67Q72 89 77 144Q91 315 91 436T86 616Q51 622 29 633L30
651Q181 651 267 664L273 659Q238 504 234 192Q234 155 235 133Q254 101 295 84Q370 296 370 514Z" />
<glyph unicode="W" glyph-name="W" horiz-adv-x="778" d="M370 514Q370 624 318 642L320 656Q397 651 493 651T676 664T810 703L819 692Q800 669 758 642Q774 611 774 554Q774 405 703 252T517 -13L508 -15L474 1Q401 34 356 82Q323 33 285 -13L276 -15L242 1Q233
5 206 18T164 38Q119 57 91 57T50 53L45 67Q72 89 77 144Q91 315 91 436T86 616Q51 622 29 633L30 651Q181 651 267 664L273 659Q238 504 234 192Q234 155 235 133Q254 101 295 84Q370 296 370 514ZM606 514Q606 570 590 596T534 622Q532 622 510 620Q518 607 518
554Q518 389 431 212Q442 177 475 134T537 84Q606 279 606 514Z" />
<glyph unicode="X" glyph-name="X" horiz-adv-x="526" d="M336 450T355 511T374 602T369 646L373 651Q468 651 527 666Q524 609 481 540Q439 473 412 442T361 382T333 349Q368 262 419 173Q475 70 527 0Q398 -2 313 -15L306 -13Q249 183 221 262Q197 209 178 142T158
47T163 6L159 1Q64 1 5 -14Q8 32 45 100T116 212T201 316Q168 397 126 478Q92 538 42 616Q9 622 -14 633L-13 651Q142 651 235 665L240 659Q291 468 313 405Q336 450 355 511Z" />
<glyph unicode="Y" glyph-name="Y" horiz-adv-x="526" d="M334 412T354 491T374 601T369 646L373 651Q468 651 527 666Q523 597 468 504T343 327Q338 258 338 163T353 0Q220 -4 166 -15L160 -10Q187 101 194 294Q103 535 42 616Q9 622 -14 633L-13 651Q142 651
235 665L240 659Q249 555 313 371Q334 412 354 491Z" />
<glyph unicode="Z" glyph-name="Z" horiz-adv-x="487" d="M260 683Q310 651 373 651T470 680L486 670Q470 649 414 556T309 375L191 153L195 150Q213 158 218 159Q289 113 341 113Q369 113 369 168Q369 178 367 194L370 201Q424 215 468 249Q484 241 484 221Q484
160 388 66T225 -44Q121 17 67 17T-13 -14L-28 -1Q2 35 115 220L284 497L281 500Q274 496 258 492Q240 501 227 508T204 519Q187 526 168 526Q140 526 140 471Q140 461 142 445L139 438Q85 424 41 390Q25 398 25 418Q25 474 110 563T260 683Z" />
<glyph unicode="[" glyph-name="bracketleft" horiz-adv-x="320" d="M243 -193Q134 -193 71 -208L64 -203Q80 -133 104 220T128 631T127 699L135 704Q195 689 305 689Q318 689 332 689L330 664Q277 662 207 644L151 -147Q220 -166 271 -168L270 -193Q256 -193 243 -193Z" />
<glyph unicode="\" glyph-name="backslash" horiz-adv-x="284" d="M219 -48H212L75 460Q35 606 7 694Q50 708 74 722H80Q104 594 134 480L219 179Q242 93 277 -11Q256 -33 219 -48Z" />
<glyph unicode="]" glyph-name="bracketright" horiz-adv-x="320" d="M77 689Q186 689 249 704L256 699Q240 629 216 276T192 -135T193 -203L185 -208Q125 -193 15 -193Q2 -193 -12 -193L-10 -168Q43 -166 113 -148L169 643Q100 662 49 664L50 689Q64 689 77 689Z" />
<glyph unicode="^" glyph-name="asciicircum" horiz-adv-x="518" d="M259 550L79 278L45 296Q103 399 139 474T231 686L284 696Q341 556 379 476T473 296L439 278L259 550Z" />
<glyph unicode="_" glyph-name="underscore" horiz-adv-x="663" d="M47 -125Q200 -137 388 -137T647 -131L656 -139L616 -194H18L7 -184L47 -125Z" />
<glyph unicode="`" glyph-name="grave" horiz-adv-x="278" d="M-6 745Q5 747 19 747T48 746Q93 663 238 567L224 543L-40 648Q-39 664 -28 699T-6 745Z" />
<glyph unicode="a" glyph-name="a" horiz-adv-x="522" d="M22 159Q22 270 91 363T269 505Q327 505 400 470Q425 515 442 537L458 532Q424 443 424 250Q424 141 432 87Q467 131 503 248L519 244Q483 42 400 -15Q332 -15 309 29T286 159L302 240L285 242Q267 153
241 87T164 -15Q98 -15 60 35T22 159ZM206 422Q177 304 177 203T194 88Q229 135 254 235T279 402Q260 429 238 429T206 422Z" />
<glyph unicode="b" glyph-name="b" horiz-adv-x="499" d="M479 357Q479 236 413 140T231 -15L199 -7Q124 11 90 11T35 7L29 20Q51 43 59 106T68 303V412Q68 544 56 621Q23 627 -4 638V656Q147 656 257 703L265 690Q221 620 217 489L213 334Q207 300 195 254L211
253Q231 345 261 409T349 505Q479 493 479 357ZM213 86Q242 61 260 61T284 65Q299 112 310 192T321 329T302 402Q267 355 244 269T213 100V86Z" />
<glyph unicode="c" glyph-name="c" horiz-adv-x="348" d="M20 167Q20 269 83 357T246 505Q293 490 317 490T352 494L358 479Q313 429 306 307H288Q283 326 277 357L263 378Q254 393 235 408T202 424Q175 326 175 215T221 88Q266 131 298 215L322 210Q285 54 187
-15Q110 -13 65 37T20 167Z" />
<glyph unicode="d" glyph-name="d" horiz-adv-x="432" d="M429 418Q429 286 364 166T187 -15Q110 -8 70 46T30 183Q30 347 197 461Q107 518 34 536L-2 545Q17 592 17 637T13 707L31 710Q43 683 86 659T206 597L419 490Q429 462 429 418ZM185 215Q185 178 186 156T198
103T228 63Q253 109 268 200T283 333T280 396Q267 414 229 439L211 416Q185 332 185 215Z" />
<glyph unicode="e" glyph-name="e" horiz-adv-x="380" d="M176 257Q176 244 176 210T184 137T225 88Q255 108 284 143T327 213L350 205Q332 145 289 83T196 -15Q112 -15 66 37T20 172T60 328T169 451T314 505L328 498Q330 483 334 440Q342 358 355 313Q376 309
394 301V285Q274 285 176 257ZM229 303V444Q205 440 192 385T177 287Q202 297 229 303Z" />
<glyph unicode="f" glyph-name="f" horiz-adv-x="300" d="M218 275Q218 62 234 0Q94 -79 77 -202L55 -200Q53 -187 53 -167T64 -2Q77 158 77 251T69 440L28 443L25 462Q45 475 70 484Q84 554 137 607T273 711L296 700Q338 680 383 680L389 665Q346 620 323 552L307
551L292 578Q281 598 262 614T226 632Q181 596 181 548T228 492Q239 493 305 509L311 502Q297 462 293 423Q247 431 229 432Q218 353 218 275Z" />
<glyph unicode="g" glyph-name="g" horiz-adv-x="501" d="M23 159Q23 270 92 363T270 505Q341 490 402 490T483 501L493 488Q478 472 452 451Q430 313 430 177T468 -65Q402 -111 337 -215L306 -200Q254 -175 184 -156T61 -136Q-20 -136 -76 -195L-92 -184Q-21
-91 136 -12Q82 -1 53 47T23 159ZM177 -32T254 -50T363 -68T408 -57Q355 -25 321 35T287 159Q291 180 303 240L286 242Q262 124 232 66T144 -32Q177 -32 254 -50ZM207 422Q178 304 178 203T195 88Q230 135 255 235T280 402Q260 429 239 429T207 422Z" />
<glyph unicode="h" glyph-name="h" horiz-adv-x="534" d="M466 387Q466 334 448 235T429 82Q477 136 513 248L529 244Q493 50 395 -15Q285 -15 285 76Q285 113 300 207T316 347T306 402Q269 361 239 253T209 94T217 0Q132 0 53 -15L47 -10Q67 59 67 274T61 571T36
700L55 707Q71 691 126 616Q160 659 212 695T317 750L326 734Q265 696 241 634T214 475L210 334Q204 300 192 254L208 253Q251 449 353 505Q466 505 466 387Z" />
<glyph unicode="i" glyph-name="i" horiz-adv-x="299" d="M7 490Q161 490 242 505L249 492Q230 450 218 347T206 178T207 87Q242 131 278 248L294 244Q258 42 175 -15Q111 -15 84 14T57 110Q57 136 64 238T71 385T68 455Q25 464 7 472V490ZM245 645Q230 622 201
590T150 543Q110 573 75 645Q86 665 115 690T168 727Q207 702 245 645Z" />
<glyph unicode="j" glyph-name="j" horiz-adv-x="285" d="M245 645Q230 622 201 590T150 543Q110 573 75 645Q86 665 115 690T168 727Q207 702 245 645ZM218 275Q218 62 234 0Q94 -79 77 -202L55 -200Q53 -187 53 -167T64 -2Q77 157 77 265T68 455Q25 464 7 472V490Q156
490 237 505L244 492Q233 468 226 399T218 275Z" />
<glyph unicode="k" glyph-name="k" horiz-adv-x="532" d="M67 303V412Q67 544 55 621Q22 627 -5 638V656Q146 656 256 703L264 690Q220 620 216 489L212 334L194 254L210 253Q253 449 355 505Q468 505 468 391Q468 302 378 254Q408 108 435 92Q482 145 515 248L531
244Q495 50 397 -15Q347 -15 321 6T286 76Q273 154 267 228V238Q292 240 304 256T319 290T322 348T308 402Q271 361 241 253T211 94T219 0Q132 0 53 -15L47 -10Q67 59 67 303Z" />
<glyph unicode="l" glyph-name="l" horiz-adv-x="292" d="M200 118Q200 102 200 87Q235 131 271 248L287 244Q251 42 168 -15Q104 -15 77 14T50 99T60 285T71 474T59 621Q26 627 -1 638V656Q60 656 134 668T263 703L271 690Q229 624 215 442T200 118Z" />
<glyph unicode="m" glyph-name="m" horiz-adv-x="774" d="M706 387Q706 334 688 235T669 82Q717 136 753 248L769 244Q733 50 635 -15Q525 -15 525 76Q525 113 540 207T556 347T546 402Q510 361 481 258T449 87V81Q449 42 457 0Q379 0 300 -15L294 -10Q302 18
315 131T329 318T319 402Q282 361 252 253T222 94T230 0Q145 0 66 -15L60 -10Q80 59 80 224T71 455Q28 464 10 472V490Q159 490 240 505L247 492Q223 430 223 334Q217 300 205 254L221 253Q264 449 366 505Q420 505 443 479T466 397Q449 352 432 254L448 253Q491
449 593 505Q706 505 706 387Z" />
<glyph unicode="n" glyph-name="n" horiz-adv-x="542" d="M474 387Q474 334 456 235T437 82Q485 136 521 248L537 244Q501 50 403 -15Q293 -15 293 76Q293 113 308 207T324 347T314 402Q277 361 247 253T217 94T225 0Q140 0 61 -15L55 -10Q75 59 75 224T66 455Q23
464 5 472V490Q154 490 235 505L242 492Q218 430 218 334Q212 300 200 254L216 253Q259 449 361 505Q474 505 474 387Z" />
<glyph unicode="o" glyph-name="o" horiz-adv-x="443" d="M249 419Q239 431 226 431T199 426Q174 326 174 194Q174 93 194 70Q203 59 216 59T242 64Q268 165 268 280T249 419ZM113 -15T67 38T20 185T84 368T244 505Q334 505 378 455T423 307T359 120T198 -15Q113
-15 67 38Z" />
<glyph unicode="p" glyph-name="p" horiz-adv-x="506" d="M79 154Q79 169 79 206T76 330T68 455Q25 464 7 472V490Q156 490 237 505L244 492Q220 430 220 334L202 254L218 253Q238 345 268 409T356 505Q486 493 486 357Q486 236 420 140T238 -15L206 -7Q207 -24
223 -133L229 -170Q124 -180 35 -215L26 -200Q55 -154 64 -129T75 -57L77 11Q53 9 36 3L26 14Q41 43 78 87L79 154ZM220 86Q249 61 267 61T291 65Q306 112 317 192T328 329T309 402Q274 355 251 269T220 100V86Z" />
<glyph unicode="q" glyph-name="q" horiz-adv-x="500" d="M22 159Q22 270 91 363T269 505Q340 490 401 490T482 501L492 488Q477 472 451 451Q429 311 429 95Q429 -13 438 -90Q476 -90 495 -92L499 -107Q357 -143 248 -216L235 -205Q241 -195 246 -186T255 -169T262
-150T267 -134T271 -114T274 -94T276 -71T278 -46Q280 -16 280 17L286 159V160L302 240L285 242Q267 153 241 87T164 -15Q98 -15 60 35T22 159ZM206 422Q177 304 177 203T194 88Q229 135 254 235T279 402Q260 429 238 429T206 422Z" />
<glyph unicode="r" glyph-name="r" horiz-adv-x="417" d="M272 346T245 246T217 94T225 0Q140 0 61 -15L55 -10Q75 59 75 224T66 455Q23 464 5 472V490Q154 490 235 505L242 492Q218 430 218 334Q212 300 200 254L216 253Q233 331 266 401T350 505Q398 486 439
486L445 471Q423 442 408 389T390 290H372Q367 309 361 340Q344 369 306 394Q272 346 245 246Z" />
<glyph unicode="s" glyph-name="s" horiz-adv-x="387" d="M125 197Q121 184 121 161T142 105T191 57Q211 75 226 101T241 150Q241 176 140 226Q102 245 71 273T39 332T78 400Q150 471 244 505Q291 490 327 490T376 499L386 488Q340 434 320 374L310 371L284 390Q267
403 239 418T193 437Q167 420 167 396Q167 370 262 325Q298 308 327 282T357 228Q357 167 298 100T169 -15Q125 -11 80 13T13 68L4 80Q79 147 111 205L125 197Z" />
<glyph unicode="t" glyph-name="t" horiz-adv-x="324" d="M230 432Q225 406 216 327T206 181T207 87Q232 111 255 154T291 238L307 234Q295 157 261 86T175 -15Q111 -15 84 14T57 110Q57 146 64 244T71 375T69 440L28 443L25 462Q72 482 117 517T184 589Q212 594
236 603L245 597Q236 546 236 493Q268 497 306 509L312 502Q298 462 294 423Q248 431 230 432Z" />
<glyph unicode="u" glyph-name="u" horiz-adv-x="547" d="M309 158Q316 198 325 240L308 242Q273 86 226 30Q202 2 171 -15Q113 -15 81 23T48 123Q48 162 59 259T70 395T68 455Q25 464 7 472V490Q161 490 242 505L249 492Q224 432 211 336T198 167T218 88Q251
131 278 238T305 396T297 490Q382 490 461 505L467 500Q447 431 447 244Q447 147 455 87Q490 131 526 248L542 244Q506 42 423 -15Q355 -15 332 28T309 158Z" />
<glyph unicode="v" glyph-name="v" horiz-adv-x="478" d="M256 492Q227 417 227 296T231 118Q254 75 265 67Q312 196 312 352Q312 461 269 473L272 490Q407 490 487 530L499 514Q485 496 449 475Q459 442 459 404Q459 282 392 164T230 -15L215 -7Q164 19 135 27T83
36T48 34L44 47Q64 66 73 107T82 261T71 455Q28 464 10 472V490Q168 490 249 505L256 492Z" />
<glyph unicode="w" glyph-name="w" horiz-adv-x="670" d="M256 492Q227 417 227 296T231 118Q254 75 265 67Q312 196 312 352Q312 464 270 477L273 494Q344 490 471 490T679 530L691 514Q677 496 641 475Q651 442 651 404Q651 282 584 164T422 -15L407 -7Q347
26 312 66Q274 19 230 -15L215 -7Q164 19 135 27T83 36T48 34L44 47Q64 66 73 107T82 261T71 455Q28 464 10 472V490Q168 490 249 505L256 492ZM429 458Q435 431 435 393T418 289T378 178Q386 151 407 117T447 67Q504 223 504 343T459 463Q444 463 429 458Z" />
<glyph unicode="x" glyph-name="x" horiz-adv-x="468" d="M245 492Q239 477 239 458Q239 398 259 329L272 285H275Q280 352 303 414T369 505Q394 490 419 490T455 494L461 479Q416 429 409 299H391Q386 317 380 349L373 357Q353 379 335 386Q318 357 308 307T297
234T299 205Q331 104 352 92Q412 147 444 229L461 224Q411 59 307 -15Q272 -15 249 -6T211 27T189 70T169 134L150 204H147Q139 42 57 -15Q32 0 7 0T-29 -4L-35 11Q10 61 17 191H35Q40 173 46 141L53 133Q73 111 91 104Q124 163 124 273Q124 284 119 301Q77 438
60 455Q17 464 -1 472V490Q157 490 238 505L245 492Z" />
<glyph unicode="y" glyph-name="y" horiz-adv-x="512" d="M468 500Q448 431 448 245T491 -65Q425 -111 360 -215L329 -200Q277 -175 207 -156T84 -136Q3 -136 -53 -195L-69 -184Q2 -90 156 -14Q105 -9 77 28T49 113T60 259T71 395T69 455Q26 464 8 472V490Q162
490 243 505L250 492Q225 432 212 336T199 167T219 88Q252 131 279 238T306 396T298 490Q383 490 462 505L468 500ZM310 158Q317 198 326 240L309 242Q287 135 253 71T167 -32Q200 -32 277 -50T386 -68T431 -57Q378 -25 344 35T310 158Z" />
<glyph unicode="z" glyph-name="z" horiz-adv-x="396" d="M177 231Q148 249 125 249T90 245L82 266Q156 301 209 364Q149 379 116 379T73 374Q59 343 40 320L24 327Q43 379 43 431T31 510L42 522Q90 490 273 490Q328 490 364 494L369 478Q324 406 209 321V315Q260
309 294 293Q313 303 354 317L362 301Q341 291 321 277Q376 236 376 160Q376 82 298 3Q232 -64 151 -115Q106 -106 63 -81T-5 -22L-14 -10Q-2 59 52 124T177 231ZM222 100Q222 174 196 211Q163 183 140 140T116 65T136 0T184 -43Q202 -22 212 21T222 100Z" />
<glyph unicode="{" glyph-name="braceleft" horiz-adv-x="300" d="M192 596Q191 585 191 557T202 454T214 357T214 329Q197 297 115 250V246Q190 200 202 167Q199 128 172 39T142 -99Q149 -127 170 -154T217 -196L208 -215Q159 -200 114 -160T69 -78Q69 -44 92
54T115 189Q115 208 96 220T50 236L47 255Q121 271 123 309Q124 325 124 354T119 442T113 528T114 569Q117 612 169 654T273 711L280 693Q253 680 228 652T192 596Z" />
<glyph unicode="|" glyph-name="bar" horiz-adv-x="261" d="M166 -195Q142 -209 111 -218L101 -214Q101 534 92 719Q133 735 162 755L169 754Q166 466 166 -195Z" />
<glyph unicode="}" glyph-name="braceright" horiz-adv-x="294" d="M108 -100Q109 -89 109 -61T98 42T86 139T86 167Q103 199 185 246V250Q110 296 98 329Q101 368 128 457T158 595Q151 623 130 650T83 692L92 711Q141 696 186 656T231 574Q231 535 208 438T185
307Q185 288 204 276T250 260L253 241Q179 225 177 187Q176 171 176 142T181 54T187 -32T186 -73Q183 -116 131 -158T27 -215L20 -197Q47 -184 72 -156T108 -100Z" />
<glyph unicode="~" glyph-name="asciitilde" horiz-adv-x="724" d="M508 277Q593 277 680 362L703 343Q669 289 603 238T477 170Q433 170 334 214T190 258Q105 258 44 179L21 198Q59 257 129 310T261 371Q400 277 508 277Z" />
<glyph unicode="&#xa0;" glyph-name="nbspace" horiz-adv-x="165" />
<glyph unicode="&#xa1;" glyph-name="exclamdown" horiz-adv-x="259" d="M238 419Q223 395 193 361T139 311Q118 326 95 359T60 419Q71 440 101 466T157 505Q200 478 238 419ZM34 -217Q30 -217 26 -217Q1 -193 -21 -148Q77 67 117 247L163 252L147 -187Q80 -217 34 -217Z" />
<glyph unicode="&#xa2;" glyph-name="cent" horiz-adv-x="355" d="M115 1T68 47T20 183T78 355T232 497L237 588Q255 590 267 594L271 591Q267 561 262 500Q299 490 323 490T359 494L365 479Q320 429 313 311H295Q290 330 284 361L270 382Q264 390 253 399L234
105Q275 146 308 229L332 224Q302 97 227 23L222 -91L217 -92Q198 -86 188 -77L198 0L197 -1Q115 1 68 47ZM202 424Q175 326 175 232T206 112L227 416Q216 422 202 424Z" />
<glyph unicode="&#xa3;" glyph-name="sterling" horiz-adv-x="402" d="M66 135L60 240L15 238L7 243L23 289H65Q82 359 144 427T280 538Q324 523 365 523T417 527L423 512Q390 483 372 437T351 340H333Q328 358 322 390L308 411Q297 427 276 441T236 457Q224 429
215 380T205 299V293Q248 295 330 303L338 298L321 257L202 249Q192 175 141 126Q182 118 232 118T305 128Q332 177 345 193L361 185Q338 128 338 71T352 -7L343 -21Q234 8 118 8Q55 8 24 -13L14 -3Q38 21 52 60T66 135Z" />
<glyph unicode="&#xa4;" glyph-name="currency" horiz-adv-x="567" d="M74 279Q74 361 131 426Q88 467 37 515Q44 538 77 571H83L179 468Q239 509 311 523Q385 523 433 492L513 570Q550 556 577 551L579 546L470 451Q494 413 494 357Q494 267 426 199L423 197Q523
106 549 84L547 80Q524 77 480 61L379 160Q331 128 271 116Q190 116 139 148L36 60H30Q9 83 5 114Q27 130 99 189Q74 225 74 279ZM279 457Q226 457 195 435Q162 391 162 324T194 219T284 182T373 204Q407 248 407 317Q407 457 279 457Z" />
<glyph unicode="&#xa5;" glyph-name="yen" horiz-adv-x="521" d="M329 197L328 164Q403 167 425 169L428 165Q416 150 411 133L328 130Q328 69 343 0Q226 -3 170 -15L164 -10Q180 57 189 126Q124 124 85 119L82 123Q111 152 114 156L194 159L196 193Q129 191 89
186L86 190Q115 219 118 223L192 226Q103 431 49 486Q16 492 -7 503L-6 521Q144 521 237 535L242 529Q251 443 310 284Q333 328 350 385T367 472T362 516L366 521Q455 521 514 536Q512 494 493 458T464 404T432 359T400 318Q353 260 333 237L332 231Q407 234 429
236L432 232Q420 217 415 200L329 197Z" />
<glyph unicode="&#xa6;" glyph-name="brokenbar" horiz-adv-x="261" d="M166 345Q142 331 111 322L101 326Q101 517 97 599T92 726Q133 742 162 762L169 761Q166 473 166 345ZM166 -194Q142 -208 111 -217L101 -213Q101 -21 97 58T92 182Q140 203 162 219L169
218Q166 -70 166 -194Z" />
<glyph unicode="&#xa7;" glyph-name="section" horiz-adv-x="426" d="M416 309Q416 233 306 144Q358 101 358 65T320 -10Q247 -81 153 -115Q106 -100 70 -100T21 -109L11 -98Q57 -44 77 16L87 19L113 0Q130 -13 158 -28T204 -47Q230 -32 230 -2T196 59T120 113T45
173T10 242Q10 321 120 406Q68 451 68 487T106 561Q179 632 273 666Q320 651 356 651T405 660L415 649Q369 595 349 535L339 532L313 551Q296 564 268 579T222 598Q196 583 196 553T230 492T306 438T381 378T416 309ZM300 271T266 299T199 349T152 381Q126 350
126 310Q126 272 192 226Q207 215 234 197T274 169Q300 200 300 235Z" />
<glyph unicode="&#xa8;" glyph-name="dieresis" horiz-adv-x="405" d="M184 652Q169 629 140 597T89 550Q49 580 14 652Q25 672 54 697T107 734Q146 709 184 652ZM405 652Q390 629 361 597T310 550Q270 580 235 652Q246 672 275 697T328 734Q367 709 405 652Z" />
<glyph unicode="&#xa9;" glyph-name="copyright" horiz-adv-x="741" d="M291 119T249 158T206 271T254 421T367 536Q416 522 450 522T501 526L506 518Q473 481 473 387H455Q445 410 440 436L429 447Q417 459 396 468T368 477T359 477Q321 389 321 296Q321 175
391 175Q418 197 418 260Q418 263 416 275L419 278Q433 279 465 285T509 295Q498 242 458 193T365 119Q291 119 249 158ZM220 -15T125 80T30 313T132 558T377 666T615 570T711 336T607 92T362 -15ZM658 452T577 533T379 615T173 527T83 318T163 117T362 36T569
124T658 332Z" />
<glyph unicode="&#xaa;" glyph-name="ordfeminine" horiz-adv-x="439" d="M248 397Q252 411 260 462L247 464Q217 306 150 259Q98 259 68 299T38 397Q38 486 93 560T234 672Q279 672 338 645Q366 690 372 698L385 694Q358 624 358 470Q358 385 364 339Q390 373
420 469L433 466Q404 305 338 259Q284 259 266 293T248 397ZM184 601Q163 506 163 431T176 346Q202 382 221 458T240 587Q224 606 208 606T184 601Z" />
<glyph unicode="&#xab;" glyph-name="guillemotleft" horiz-adv-x="485" d="M164 285L259 87L231 70Q133 202 34 267L36 292Q163 357 281 480L304 464L164 285ZM355 285L440 107L409 89Q365 149 324 189T225 267L227 292Q352 356 452 460L478 441L355 285Z" />
<glyph unicode="&#xac;" glyph-name="logicalnot" horiz-adv-x="576" d="M450 228H62L54 235L63 301Q233 292 352 292T511 295L517 289Q517 220 522 88L517 82L450 91V228Z" />
<glyph unicode="&#xae;" glyph-name="registered" horiz-adv-x="434" d="M130 304T76 358T21 495T80 636T221 696T358 641T413 505T353 364T212 304ZM158 654T111 609T63 499T104 389T211 344T322 390T369 501T329 610T223 654ZM127 605L231 608Q297 608 297 563T255
506L280 461Q295 434 314 407Q307 407 291 407T249 402L247 403Q231 467 214 502H205L207 520Q240 520 240 554T220 588Q210 588 203 584Q197 535 197 477T200 407Q160 407 139 403L137 405Q147 451 147 512T144 587Q134 590 125 594L127 605Z" />
<glyph unicode="&#xaf;" glyph-name="overscore" horiz-adv-x="361" d="M65 694Q119 689 198 689T350 694L361 685L333 610L10 606L0 613L28 698L65 694Z" />
<glyph unicode="&#xb0;" glyph-name="degree" horiz-adv-x="364" d="M125 396T85 425T45 512T86 613T192 667Q250 667 286 637T322 550T284 451T184 396Q125 396 85 425ZM174 614Q142 614 127 602Q114 574 114 536T134 473T189 449T240 461Q253 489 253 525Q253
614 174 614Z" />
<glyph unicode="&#xb1;" glyph-name="plusminus" horiz-adv-x="576" d="M324 262Q324 185 333 90L263 86L253 88V262H69L61 269L70 340Q192 334 253 333V486L324 495L329 489Q324 401 324 333V332Q361 331 420 331T518 334L524 328L515 262H324ZM62 58Q232 49
351 49T510 52L516 46L507 -10H61L53 -3L62 58Z" />
<glyph unicode="&#xb2;" glyph-name="twosuperior" horiz-adv-x="392" d="M198 599Q198 653 152 653Q132 653 114 647Q108 626 108 612T118 592V586Q70 570 46 544Q35 544 34 552Q33 555 33 560V566Q33 609 88 672T195 748Q274 748 309 718T345 612Q317 577 251
527T175 470Q202 462 237 462T295 469Q313 497 335 522L346 516Q327 468 327 418T340 349L333 339Q210 362 98 362Q53 362 30 343L14 352Q37 404 122 476Q151 502 174 535T198 599Z" />
<glyph unicode="&#xb3;" glyph-name="threesuperior" horiz-adv-x="361" d="M202 488Q202 544 153 544Q139 544 127 540L122 556Q168 585 193 638Q157 647 137 647T107 644Q92 613 81 599L66 604Q82 641 82 683T72 742L81 752Q119 727 247 727Q294 727 329 732L333
717Q293 652 215 604V601Q347 601 347 516Q347 486 326 456T272 404Q213 362 151 340Q113 340 73 357T14 403Q76 445 102 505L123 497Q115 482 115 471Q115 407 165 390Q202 415 202 488Z" />
<glyph unicode="&#xb4;" glyph-name="acute" horiz-adv-x="278" d="M230 746Q244 747 258 747T284 745Q294 735 305 700T318 648L54 543L40 567Q185 663 230 746Z" />
<glyph unicode="&#xb5;" glyph-name="mu" horiz-adv-x="562" d="M324 158Q331 198 340 240L323 242Q288 86 240 30Q217 2 186 -15Q172 -12 159 -1Q159 -106 180 -196L177 -199Q106 -204 51 -219L42 -212Q56 -116 61 143L65 331Q66 357 66 398T59 487L63 490Q202
495 240 505L246 500Q213 376 213 163Q213 94 233 88Q266 131 293 238T320 396T312 490Q397 490 476 505L482 500Q462 431 462 244Q462 147 470 87Q505 131 541 248L557 244Q521 42 438 -15Q370 -15 347 28T324 158Z" />
<glyph unicode="&#xb6;" glyph-name="paragraph" horiz-adv-x="575" d="M243 658L382 651L386 646Q362 536 347 325L337 181Q329 57 278 -25Q252 -67 209 -91T110 -115Q95 -115 85 -106T75 -82Q112 -55 130 -22L139 -21Q152 -33 181 -33T232 -23Q262 48 267 131L278
298Q260 295 244 295Q149 295 85 351T21 494T82 619T243 658ZM534 634T508 499T482 210T497 0Q416 0 360 -15L356 -11Q380 54 398 310T434 651Q518 657 568 677L575 664Q534 634 508 499Z" />
<glyph unicode="&#xb7;" glyph-name="middot" horiz-adv-x="220" d="M199 286Q184 262 154 228T100 178Q79 193 56 226T21 286Q32 307 62 333T118 372Q161 345 199 286Z" />
<glyph unicode="&#xb8;" glyph-name="cedilla" horiz-adv-x="226" d="M224 -126Q224 -133 223 -140Q176 -212 102 -235Q49 -235 1 -210Q18 -185 39 -138L44 -136Q71 -176 119 -176Q137 -176 146 -172Q152 -164 152 -146Q152 -101 65 -101L58 -96L116 17L161 19L123
-38L127 -42Q175 -42 199 -66T224 -126Z" />
<glyph unicode="&#xb9;" glyph-name="onesuperior" horiz-adv-x="310" d="M198 742L244 746L246 744Q226 591 226 511T229 395Q252 368 274 358L269 340Q229 351 153 351T28 341L24 358Q57 376 81 385Q96 490 96 589L92 646H32L30 648Q30 668 32 674Q130 693 198 742Z" />
<glyph unicode="&#xba;" glyph-name="ordmasculine" horiz-adv-x="392" d="M216 593Q208 602 197 602T178 598Q160 517 160 425Q160 348 174 332Q182 323 192 323T211 327Q230 406 230 491T216 593ZM110 259T74 300T38 415T88 559T213 666Q283 666 318 626T353
511T303 365T177 259Q110 259 74 300Z" />
<glyph unicode="&#xbb;" glyph-name="guillemotright" horiz-adv-x="485" d="M321 265L226 463L254 480Q352 348 451 283L449 258Q322 193 204 70L181 86L321 265ZM130 265L45 443L76 461Q120 401 161 361T260 283L258 258Q133 194 33 90L7 109L130 265Z" />
<glyph unicode="&#xbc;" glyph-name="onequarter" horiz-adv-x="800" d="M130 -48H123Q110 -38 92 8Q228 163 277 225L498 504Q543 559 649 707Q680 699 715 697L720 693Q687 656 565 503L130 -48ZM694 94Q694 76 697 53Q713 34 743 20L738 2Q698 13 622 13T498
3L494 20Q521 33 551 42Q560 66 561 94H395L386 130Q495 256 560 388Q644 392 717 416L723 413Q699 356 696 164Q736 164 762 186L775 177Q759 133 754 90Q729 94 694 94ZM563 313Q532 238 483 171Q517 165 562 165L568 313H563ZM202 663L248 667L250 665Q230 512
230 431T233 316Q256 289 278 279L273 261Q233 272 157 272T32 262L28 279Q61 297 85 306Q100 411 100 510L96 567H36L34 569Q34 589 36 595Q134 614 202 663Z" />
<glyph unicode="&#xbd;" glyph-name="onehalf" horiz-adv-x="800" d="M130 -48H123Q110 -38 92 8Q228 163 277 225L498 504Q543 559 649 707Q680 699 715 697L720 693Q687 656 565 503L130 -48ZM202 663L248 667L250 665Q230 512 230 431T233 316Q256 289 278
279L273 261Q233 272 157 272T32 262L28 279Q61 297 85 306Q100 411 100 510L96 567H36L34 569Q34 589 36 595Q134 614 202 663ZM620 258Q620 312 574 312Q554 312 536 306Q530 285 530 271T540 251V245Q492 229 468 203Q457 203 456 211Q455 214 455 218V225Q455
268 510 331T617 407Q696 407 731 377T767 271Q739 236 673 186T597 129Q624 121 659 121T717 128Q735 156 757 181L768 175Q749 128 749 77T762 8L755 -2Q632 21 520 21Q475 21 452 2L436 11Q459 63 544 136Q573 161 596 194T620 258Z" />
<glyph unicode="&#xbe;" glyph-name="threequarters" horiz-adv-x="800" d="M202 408Q202 464 153 464Q139 464 127 460L122 476Q168 505 193 558Q157 567 137 567T107 564Q92 533 81 519L66 524Q82 561 82 603T72 662L81 672Q119 647 247 647Q294 647 329 652L333
637Q293 572 215 524V521Q347 521 347 436Q347 406 326 376T272 324Q213 282 151 260Q113 260 73 277T14 323Q76 365 102 425L123 417Q115 402 115 391Q115 327 165 310Q202 335 202 408ZM130 -48H123Q110 -38 92 8Q228 163 277 225L498 504Q543 559 649 707Q680
699 715 697L720 693Q687 656 565 503L130 -48ZM694 94Q694 76 697 53Q713 34 743 20L738 2Q698 13 622 13T498 3L494 20Q521 33 551 42Q560 66 561 94H395L386 130Q495 256 560 388Q644 392 717 416L723 413Q699 356 696 164Q736 164 762 186L775 177Q759 133
754 90Q729 94 694 94ZM563 313Q532 238 483 171Q517 165 562 165L568 313H563Z" />
<glyph unicode="&#xbf;" glyph-name="questiondown" horiz-adv-x="315" d="M185 55T159 9T132 -84T169 -132Q186 -132 198 -127Q207 -109 207 -85T193 -48L195 -40Q251 -15 284 18Q309 18 309 -12Q309 -81 254 -135T122 -215Q51 -215 7 -175T-38 -66Q-19 -42 -7
-31T12 -13T31 4T50 19T72 34L92 48Q97 52 113 64T134 78Q144 107 154 165T167 236L229 246L224 86Q185 55 159 9ZM294 410Q279 386 249 352T195 302Q174 317 151 350T116 410Q128 432 159 463T213 506Q246 486 294 410Z" />
<glyph unicode="&#xc0;" glyph-name="Agrave" horiz-adv-x="563" d="M318 213Q297 219 275 219T235 219T192 213Q171 128 171 81T178 -1Q71 -1 -9 -15L-21 -7L191 615Q161 625 126 643L130 662Q207 651 322 651T501 662L507 657Q493 598 483 460T473 190T484 0Q350
-4 297 -15L291 -10Q309 69 318 213ZM206 289Q224 282 263 282T321 290Q326 398 326 470T322 591Q317 594 304 594T285 591Q267 564 255 503L206 289ZM137 905Q148 907 162 907T191 906Q209 874 249 842T316 794T395 751L384 726L110 802Q110 819 119 857T137 905Z"
/>
<glyph unicode="&#xc1;" glyph-name="Aacute" horiz-adv-x="563" d="M318 213Q297 219 275 219T235 219T192 213Q171 128 171 81T178 -1Q71 -1 -9 -15L-21 -7L191 615Q161 625 126 643L130 662Q207 651 322 651T501 662L507 657Q493 598 483 460T473 190T484 0Q350
-4 297 -15L291 -10Q309 69 318 213ZM206 289Q224 282 263 282T321 290Q326 398 326 470T322 591Q317 594 304 594T285 591Q267 564 255 503L206 289ZM490 906Q504 907 518 907T544 905Q553 896 562 858T571 802L297 726L286 751Q338 778 365 793T432 841T490 906Z"
/>
<glyph unicode="&#xc2;" glyph-name="Acircumflex" horiz-adv-x="563" d="M318 213Q297 219 275 219T235 219T192 213Q171 128 171 81T178 -1Q71 -1 -9 -15L-21 -7L191 615Q161 625 126 643L130 662Q207 651 322 651T501 662L507 657Q493 598 483 460T473 190T484
0Q350 -4 297 -15L291 -10Q309 69 318 213ZM206 289Q224 282 263 282T321 290Q326 398 326 470T322 591Q317 594 304 594T285 591Q267 564 255 503L206 289ZM546 726L340 786L154 726L143 751Q291 828 337 906H383Q438 813 557 751L546 726Z" />
<glyph unicode="&#xc3;" glyph-name="Atilde" horiz-adv-x="563" d="M318 213Q297 219 275 219T235 219T192 213Q171 128 171 81T178 -1Q71 -1 -9 -15L-21 -7L191 615Q161 625 126 643L130 662Q207 651 322 651T501 662L507 657Q493 598 483 460T473 190T484 0Q350
-4 297 -15L291 -10Q309 69 318 213ZM206 289Q224 282 263 282T321 290Q326 398 326 470T322 591Q317 594 304 594T285 591Q267 564 255 503L206 289ZM451 832Q500 832 534 867L558 850Q494 762 418 731Q393 731 327 755T235 779Q187 779 154 744L129 761Q155 797
203 830T301 880Q374 832 451 832Z" />
<glyph unicode="&#xc4;" glyph-name="Adieresis" horiz-adv-x="563" d="M318 213Q297 219 275 219T235 219T192 213Q171 128 171 81T178 -1Q71 -1 -9 -15L-21 -7L191 615Q161 625 126 643L130 662Q207 651 322 651T501 662L507 657Q493 598 483 460T473 190T484
0Q350 -4 297 -15L291 -10Q309 69 318 213ZM206 289Q224 282 263 282T321 290Q326 398 326 470T322 591Q317 594 304 594T285 591Q267 564 255 503L206 289ZM322 814Q307 791 278 759T227 712Q187 742 152 814Q163 834 192 859T245 896Q284 871 322 814ZM543 814Q528
791 499 759T448 712Q408 742 373 814Q384 834 413 859T466 896Q505 871 543 814Z" />
<glyph unicode="&#xc5;" glyph-name="Aring" horiz-adv-x="563" d="M318 213Q297 219 275 219T235 219T192 213Q171 128 171 81T178 -1Q71 -1 -9 -15L-21 -7L191 615Q161 625 126 643L130 662Q207 651 322 651T501 662L507 657Q493 598 483 460T473 190T484 0Q350
-4 297 -15L291 -10Q309 69 318 213ZM206 289Q224 282 263 282T321 290Q326 398 326 470T322 591Q317 594 304 594T285 591Q267 564 255 503L206 289ZM288 701T260 719T231 778T268 853T361 904Q454 904 454 836Q454 786 419 751T331 701Q288 701 260 719ZM296
775T309 762T343 748T377 757Q391 781 391 806T378 845T344 859T310 850Q296 826 296 801Z" />
<glyph unicode="&#xc6;" glyph-name="AE" horiz-adv-x="702" d="M120 662Q197 651 397 651T685 666L691 655Q649 607 644 497H627Q618 525 611 573Q565 594 515 594Q496 594 471 589Q460 515 451 373Q470 369 512 369T606 386L611 380Q605 363 596 296Q526 306
493 306T448 304Q446 270 446 243T448 190T460 132Q477 71 539 71Q566 109 566 166Q566 184 563 197L570 202Q635 203 695 213Q683 147 625 83T499 -15Q382 -15 338 37T294 214Q294 260 297 303Q277 306 252 306T203 303Q171 133 171 61Q171 34 178 -1Q71 -1 -9
-15L-21 -7L181 615Q151 625 116 643L120 662ZM217 372Q236 369 262 369T300 371Q302 431 302 479T299 592Q295 594 287 594T273 592Q261 575 245 503L217 372Z" />
<glyph unicode="&#xc7;" glyph-name="Ccedilla" horiz-adv-x="466" d="M30 234Q30 120 94 53T270 -15Q340 21 395 93T466 243Q406 233 341 232L334 227Q337 214 337 196Q337 119 310 71Q277 71 254 89T219 138T202 203T197 290T212 428T252 570Q288 570 365 512L386
496Q395 446 405 420H422Q422 473 437 540T480 643L473 657Q454 651 402 651T309 666Q30 506 30 234ZM361 -126Q361 -133 360 -140Q313 -212 239 -235Q186 -235 138 -210Q155 -185 176 -138L181 -136Q208 -176 256 -176Q274 -176 283 -172Q289 -164 289 -146Q289
-101 202 -101L195 -96L253 17L298 19L260 -38L264 -42Q312 -42 336 -66T361 -126Z" />
<glyph unicode="&#xc8;" glyph-name="Egrave" horiz-adv-x="469" d="M266 567Q252 567 237 564Q231 549 231 524Q231 447 261 413T367 371L361 333Q280 333 235 295T189 180Q189 130 212 102T279 73T344 89Q353 113 353 140T337 187L339 195Q393 214 424 246Q454
241 454 200Q454 130 393 70T255 -15Q154 -15 88 34T21 161T78 290T219 350V354Q157 362 114 393T71 476Q121 541 186 593T318 666Q409 666 470 630Q427 566 412 489H403Q367 526 336 546T266 567ZM101 905Q112 907 126 907T155 906Q173 874 213 842T280 794T359
751L348 726L74 802Q74 819 83 857T101 905Z" />
<glyph unicode="&#xc9;" glyph-name="Eacute" horiz-adv-x="469" d="M266 567Q252 567 237 564Q231 549 231 524Q231 447 261 413T367 371L361 333Q280 333 235 295T189 180Q189 130 212 102T279 73T344 89Q353 113 353 140T337 187L339 195Q393 214 424 246Q454
241 454 200Q454 130 393 70T255 -15Q154 -15 88 34T21 161T78 290T219 350V354Q157 362 114 393T71 476Q121 541 186 593T318 666Q409 666 470 630Q427 566 412 489H403Q367 526 336 546T266 567ZM454 906Q468 907 482 907T508 905Q517 896 526 858T535 802L261
726L250 751Q302 778 329 793T396 841T454 906Z" />
<glyph unicode="&#xca;" glyph-name="Ecircumflex" horiz-adv-x="469" d="M266 567Q252 567 237 564Q231 549 231 524Q231 447 261 413T367 371L361 333Q280 333 235 295T189 180Q189 130 212 102T279 73T344 89Q353 113 353 140T337 187L339 195Q393 214 424
246Q454 241 454 200Q454 130 393 70T255 -15Q154 -15 88 34T21 161T78 290T219 350V354Q157 362 114 393T71 476Q121 541 186 593T318 666Q409 666 470 630Q427 566 412 489H403Q367 526 336 546T266 567ZM510 726L304 786L118 726L107 751Q255 828 301 906H347Q402
813 521 751L510 726Z" />
<glyph unicode="&#xcb;" glyph-name="Edieresis" horiz-adv-x="469" d="M266 567Q252 567 237 564Q231 549 231 524Q231 447 261 413T367 371L361 333Q280 333 235 295T189 180Q189 130 212 102T279 73T344 89Q353 113 353 140T337 187L339 195Q393 214 424 246Q454
241 454 200Q454 130 393 70T255 -15Q154 -15 88 34T21 161T78 290T219 350V354Q157 362 114 393T71 476Q121 541 186 593T318 666Q409 666 470 630Q427 566 412 489H403Q367 526 336 546T266 567ZM286 814Q271 791 242 759T191 712Q151 742 116 814Q127 834 156
859T209 896Q248 871 286 814ZM507 814Q492 791 463 759T412 712Q372 742 337 814Q348 834 377 859T430 896Q469 871 507 814Z" />
<glyph unicode="&#xcc;" glyph-name="Igrave" horiz-adv-x="327" d="M260 598T248 453T236 188T251 0Q118 -4 64 -15L58 -10Q72 49 82 190T93 444T88 616Q54 622 31 633L32 651Q183 651 269 664L275 659Q260 598 248 453ZM-32 905Q-21 907 -7 907T22 906Q40 874
80 842T147 794T226 751L215 726L-59 802Q-59 819 -50 857T-32 905Z" />
<glyph unicode="&#xcd;" glyph-name="Iacute" horiz-adv-x="327" d="M260 598T248 453T236 188T251 0Q118 -4 64 -15L58 -10Q72 49 82 190T93 444T88 616Q54 622 31 633L32 651Q183 651 269 664L275 659Q260 598 248 453ZM321 906Q335 907 349 907T375 905Q384
896 393 858T402 802L128 726L117 751Q169 778 196 793T263 841T321 906Z" />
<glyph unicode="&#xce;" glyph-name="Icircumflex" horiz-adv-x="327" d="M260 598T248 453T236 188T251 0Q118 -4 64 -15L58 -10Q72 49 82 190T93 444T88 616Q54 622 31 633L32 651Q183 651 269 664L275 659Q260 598 248 453ZM377 726L171 786L-15 726L-26 751Q122
828 168 906H214Q269 813 388 751L377 726Z" />
<glyph unicode="&#xcf;" glyph-name="Idieresis" horiz-adv-x="327" d="M260 598T248 453T236 188T251 0Q118 -4 64 -15L58 -10Q72 49 82 190T93 444T88 616Q54 622 31 633L32 651Q183 651 269 664L275 659Q260 598 248 453ZM153 814Q138 791 109 759T58 712Q18
742 -17 814Q-6 834 23 859T76 896Q115 871 153 814ZM374 814Q359 791 330 759T279 712Q239 742 204 814Q215 834 244 859T297 896Q336 871 374 814Z" />
<glyph unicode="&#xd0;" glyph-name="Eth" horiz-adv-x="602" d="M35 651L309 662Q448 662 510 596T572 385T483 132T249 -15L218 -7Q149 11 114 11T59 7L53 20Q74 42 81 99Q91 195 96 310L15 303L7 309Q30 330 42 358H97Q99 426 99 494T91 616Q57 622 34 633L35
651ZM248 324Q246 276 246 204T251 82Q266 73 304 73T366 94Q386 136 397 205T408 320T408 383T405 433T400 486T388 531T369 570T341 594T301 604T264 598Q255 498 250 369Q313 375 355 383L361 378Q348 358 336 332L248 324Z" />
<glyph unicode="&#xd1;" glyph-name="Ntilde" horiz-adv-x="624" d="M571 600T560 467T549 211T564 0Q558 -1 514 -3Q391 -9 378 -13L371 -10Q319 170 210 407Q185 461 167 485L163 483Q163 306 172 172T189 0Q105 -5 65 -15L59 -10Q73 49 83 188T93 437T83 616Q48
622 26 633L27 651Q203 651 289 664Q306 574 351 447T444 239L478 179L481 180Q481 357 472 484T455 651Q540 656 579 666L585 661Q571 600 560 467ZM460 832Q509 832 543 867L567 850Q503 762 427 731Q402 731 336 755T244 779Q196 779 163 744L138 761Q164 797
212 830T310 880Q383 832 460 832Z" />
<glyph unicode="&#xd2;" glyph-name="Ograve" horiz-adv-x="588" d="M391 396Q391 582 300 582Q269 582 250 571Q197 436 197 255Q197 177 219 123T288 68Q318 68 337 79Q364 133 377 225T391 396ZM30 238Q30 377 112 497T324 666Q558 666 558 413Q558 277 474
152T265 -15Q154 -15 92 54T30 238ZM121 905Q132 907 146 907T175 906Q193 874 233 842T300 794T379 751L368 726L94 802Q94 819 103 857T121 905Z" />
<glyph unicode="&#xd3;" glyph-name="Oacute" horiz-adv-x="588" d="M391 396Q391 582 300 582Q269 582 250 571Q197 436 197 255Q197 177 219 123T288 68Q318 68 337 79Q364 133 377 225T391 396ZM30 238Q30 377 112 497T324 666Q558 666 558 413Q558 277 474
152T265 -15Q154 -15 92 54T30 238ZM474 906Q488 907 502 907T528 905Q537 896 546 858T555 802L281 726L270 751Q322 778 349 793T416 841T474 906Z" />
<glyph unicode="&#xd4;" glyph-name="Ocircumflex" horiz-adv-x="588" d="M391 396Q391 582 300 582Q269 582 250 571Q197 436 197 255Q197 177 219 123T288 68Q318 68 337 79Q364 133 377 225T391 396ZM30 238Q30 377 112 497T324 666Q558 666 558 413Q558 277
474 152T265 -15Q154 -15 92 54T30 238ZM530 726L324 786L138 726L127 751Q275 828 321 906H367Q422 813 541 751L530 726Z" />
<glyph unicode="&#xd5;" glyph-name="Otilde" horiz-adv-x="588" d="M391 396Q391 582 300 582Q269 582 250 571Q197 436 197 255Q197 177 219 123T288 68Q318 68 337 79Q364 133 377 225T391 396ZM30 238Q30 377 112 497T324 666Q558 666 558 413Q558 277 474
152T265 -15Q154 -15 92 54T30 238ZM435 832Q484 832 518 867L542 850Q478 762 402 731Q377 731 311 755T219 779Q171 779 138 744L113 761Q139 797 187 830T285 880Q358 832 435 832Z" />
<glyph unicode="&#xd6;" glyph-name="Odieresis" horiz-adv-x="588" d="M391 396Q391 582 300 582Q269 582 250 571Q197 436 197 255Q197 177 219 123T288 68Q318 68 337 79Q364 133 377 225T391 396ZM30 238Q30 377 112 497T324 666Q558 666 558 413Q558 277
474 152T265 -15Q154 -15 92 54T30 238ZM306 814Q291 791 262 759T211 712Q171 742 136 814Q147 834 176 859T229 896Q268 871 306 814ZM527 814Q512 791 483 759T432 712Q392 742 357 814Q368 834 397 859T450 896Q489 871 527 814Z" />
<glyph unicode="&#xd7;" glyph-name="multiply" horiz-adv-x="576" d="M77 91Q182 179 241 239L87 392L139 442L147 441Q172 413 291 288L429 440L437 441L489 393L333 241Q386 186 499 92L457 38L446 39L286 195L130 38H119L77 91Z" />
<glyph unicode="&#xd8;" glyph-name="Oslash" horiz-adv-x="588" d="M30 238Q30 377 112 497T324 666Q363 666 398 658Q403 671 410 697T420 732Q449 734 467 741L471 737Q452 696 433 648Q558 599 558 413Q558 277 474 152T265 -15Q224 -15 183 -3L153 -87H147Q120
-69 113 -55L144 12Q30 74 30 238ZM364 133T377 225T391 389T379 507L226 110Q249 68 283 68T337 79Q364 133 377 225ZM197 255Q197 207 206 165L358 553Q335 582 302 582T250 571Q197 436 197 255Z" />
<glyph unicode="&#xd9;" glyph-name="Ugrave" horiz-adv-x="641" d="M85 205L100 457Q100 565 88 616Q54 622 31 633L32 651Q186 651 272 664L278 659Q263 594 253 482T242 298T243 203T249 147Q259 88 298 80Q361 125 396 200Q403 316 403 457T392 649Q526 653
579 664L585 659Q569 587 560 447T550 179T561 0Q430 -6 387 -15L380 -10Q399 62 406 125L402 126Q346 22 263 -15Q165 -13 125 42T85 205ZM130 905Q141 907 155 907T184 906Q202 874 242 842T309 794T388 751L377 726L103 802Q103 819 112 857T130 905Z" />
<glyph unicode="&#xda;" glyph-name="Uacute" horiz-adv-x="641" d="M85 205L100 457Q100 565 88 616Q54 622 31 633L32 651Q186 651 272 664L278 659Q263 594 253 482T242 298T243 203T249 147Q259 88 298 80Q361 125 396 200Q403 316 403 457T392 649Q526 653
579 664L585 659Q569 587 560 447T550 179T561 0Q430 -6 387 -15L380 -10Q399 62 406 125L402 126Q346 22 263 -15Q165 -13 125 42T85 205ZM483 906Q497 907 511 907T537 905Q546 896 555 858T564 802L290 726L279 751Q331 778 358 793T425 841T483 906Z" />
<glyph unicode="&#xdb;" glyph-name="Ucircumflex" horiz-adv-x="641" d="M85 205L100 457Q100 565 88 616Q54 622 31 633L32 651Q186 651 272 664L278 659Q263 594 253 482T242 298T243 203T249 147Q259 88 298 80Q361 125 396 200Q403 316 403 457T392 649Q526
653 579 664L585 659Q569 587 560 447T550 179T561 0Q430 -6 387 -15L380 -10Q399 62 406 125L402 126Q346 22 263 -15Q165 -13 125 42T85 205ZM539 726L333 786L147 726L136 751Q284 828 330 906H376Q431 813 550 751L539 726Z" />
<glyph unicode="&#xdc;" glyph-name="Udieresis" horiz-adv-x="641" d="M85 205L100 457Q100 565 88 616Q54 622 31 633L32 651Q186 651 272 664L278 659Q263 594 253 482T242 298T243 203T249 147Q259 88 298 80Q361 125 396 200Q403 316 403 457T392 649Q526
653 579 664L585 659Q569 587 560 447T550 179T561 0Q430 -6 387 -15L380 -10Q399 62 406 125L402 126Q346 22 263 -15Q165 -13 125 42T85 205ZM315 814Q300 791 271 759T220 712Q180 742 145 814Q156 834 185 859T238 896Q277 871 315 814ZM536 814Q521 791 492
759T441 712Q401 742 366 814Q377 834 406 859T459 896Q498 871 536 814Z" />
<glyph unicode="&#xdd;" glyph-name="Yacute" horiz-adv-x="526" d="M334 412T354 491T374 601T369 646L373 651Q468 651 527 666Q523 597 468 504T343 327Q338 258 338 163T353 0Q220 -4 166 -15L160 -10Q187 101 194 294Q103 535 42 616Q9 622 -14 633L-13 651Q142
651 235 665L240 659Q249 555 313 371Q334 412 354 491ZM463 907Q477 908 491 908T517 906Q526 897 535 859T544 803L270 727L259 752Q311 779 338 794T405 842T463 907Z" />
<glyph unicode="&#xde;" glyph-name="Thorn" horiz-adv-x="556" d="M254 522Q296 524 328 524T397 518T464 495Q526 462 526 372T448 224T259 167L262 204Q357 204 357 346Q357 466 289 466Q269 466 249 461Q236 315 236 192T251 0Q118 -4 64 -15L58 -10Q72 49
82 190T93 444T88 616Q54 622 31 633L32 651Q183 651 269 664L275 659Q263 608 254 522Z" />
<glyph unicode="&#xdf;" glyph-name="germandbls" horiz-adv-x="538" d="M218 484V275Q218 62 234 0Q94 -79 77 -202L55 -200Q53 -187 53 -167T64 -2Q77 158 77 251T69 440L28 443L25 462Q45 475 70 484Q91 574 144 627T293 711Q428 711 463 657Q478 634 478 599T458
529T413 476T369 440T348 420Q348 388 442 330Q478 309 507 278T537 216Q537 152 480 82T357 -15Q313 5 295 5T267 0L259 13Q293 71 306 136H314Q328 115 354 94T403 66Q437 98 437 127Q437 157 336 220Q299 243 268 279T236 353V362Q279 396 306 450T334 556Q334
637 264 637Q248 637 230 632Q218 580 218 484Z" />
<glyph unicode="&#xe0;" glyph-name="agrave" horiz-adv-x="522" d="M22 159Q22 270 91 363T269 505Q327 505 400 470Q425 515 442 537L458 532Q424 443 424 250Q424 141 432 87Q467 131 503 248L519 244Q483 42 400 -15Q332 -15 309 29T286 159L302 240L285 242Q267
153 241 87T164 -15Q98 -15 60 35T22 159ZM206 422Q177 304 177 203T194 88Q229 135 254 235T279 402Q260 429 238 429T206 422ZM89 745Q100 747 114 747T143 746Q188 663 333 567L319 543L55 648Q56 664 67 699T89 745Z" />
<glyph unicode="&#xe1;" glyph-name="aacute" horiz-adv-x="522" d="M22 159Q22 270 91 363T269 505Q327 505 400 470Q425 515 442 537L458 532Q424 443 424 250Q424 141 432 87Q467 131 503 248L519 244Q483 42 400 -15Q332 -15 309 29T286 159L302 240L285 242Q267
153 241 87T164 -15Q98 -15 60 35T22 159ZM206 422Q177 304 177 203T194 88Q229 135 254 235T279 402Q260 429 238 429T206 422ZM393 746Q407 747 421 747T447 745Q457 735 468 700T481 648L217 543L203 567Q348 663 393 746Z" />
<glyph unicode="&#xe2;" glyph-name="acircumflex" horiz-adv-x="522" d="M468 557L268 623L85 543L71 567Q214 657 271 746H315Q362 661 482 581L468 557ZM22 159Q22 270 91 363T269 505Q327 505 400 470Q425 515 442 537L458 532Q424 443 424 250Q424 141 432
87Q467 131 503 248L519 244Q483 42 400 -15Q332 -15 309 29T286 159L302 240L285 242Q267 153 241 87T164 -15Q98 -15 60 35T22 159ZM206 422Q177 304 177 203T194 88Q229 135 254 235T279 402Q260 429 238 429T206 422Z" />
<glyph unicode="&#xe3;" glyph-name="atilde" horiz-adv-x="522" d="M22 159Q22 270 91 363T269 505Q327 505 400 470Q425 515 442 537L458 532Q424 443 424 250Q424 141 432 87Q467 131 503 248L519 244Q483 42 400 -15Q332 -15 309 29T286 159L302 240L285 242Q267
153 241 87T164 -15Q98 -15 60 35T22 159ZM206 422Q177 304 177 203T194 88Q229 135 254 235T279 402Q260 429 238 429T206 422ZM261 720Q334 672 387 672T474 707L498 690Q434 602 358 571Q333 571 277 595T195 619Q147 619 114 584L89 601Q115 637 163 670T261
720Z" />
<glyph unicode="&#xe4;" glyph-name="adieresis" horiz-adv-x="522" d="M22 159Q22 270 91 363T269 505Q327 505 400 470Q425 515 442 537L458 532Q424 443 424 250Q424 141 432 87Q467 131 503 248L519 244Q483 42 400 -15Q332 -15 309 29T286 159L302 240L285
242Q267 153 241 87T164 -15Q98 -15 60 35T22 159ZM206 422Q177 304 177 203T194 88Q229 135 254 235T279 402Q260 429 238 429T206 422ZM249 652Q234 629 205 597T154 550Q114 580 79 652Q90 672 119 697T172 734Q211 709 249 652ZM470 652Q455 629 426 597T375
550Q335 580 300 652Q311 672 340 697T393 734Q432 709 470 652Z" />
<glyph unicode="&#xe5;" glyph-name="aring" horiz-adv-x="522" d="M22 159Q22 270 91 363T269 505Q327 505 400 470Q425 515 442 537L458 532Q424 443 424 250Q424 141 432 87Q467 131 503 248L519 244Q483 42 400 -15Q332 -15 309 29T286 159L302 240L285 242Q267
153 241 87T164 -15Q98 -15 60 35T22 159ZM206 422Q177 304 177 203T194 88Q229 135 254 235T279 402Q260 429 238 429T206 422ZM217 543T189 561T160 620T197 695T290 746Q383 746 383 678Q383 628 348 593T260 543Q217 543 189 561ZM225 616T238 603T272 589T306
598Q320 622 320 647T307 686T273 700T239 691Q225 667 225 642Z" />
<glyph unicode="&#xe6;" glyph-name="ae" horiz-adv-x="582" d="M20 139Q20 260 111 364T327 505Q372 496 408 475Q444 494 486 505L501 500Q525 406 552 348Q568 350 593 350L596 335Q543 317 484 287T388 228Q401 96 470 90Q520 129 551 223L574 217Q561 153
528 89T450 -14Q295 -14 259 128Q237 87 203 48T134 -15Q79 -6 50 37T20 139ZM172 126Q172 100 181 93Q221 129 252 186Q252 239 270 300T319 400V401Q304 436 268 436Q258 436 250 433Q172 256 172 126ZM385 322Q385 292 386 267Q402 281 438 304L413 436Q385
436 385 322Z" />
<glyph unicode="&#xe7;" glyph-name="ccedilla" horiz-adv-x="348" d="M20 167Q20 88 65 38T187 -15Q285 54 322 210L298 215Q266 131 221 88Q175 104 175 215T202 424Q216 423 235 408T263 378Q263 378 277 357Q283 326 288 307H306Q313 429 358 479L352 494Q341
490 317 490T246 505Q147 446 84 358T20 167ZM278 -126Q278 -133 277 -140Q230 -212 156 -235Q103 -235 55 -210Q72 -185 93 -138L98 -136Q125 -176 173 -176Q191 -176 200 -172Q206 -164 206 -146Q206 -101 119 -101L112 -96L170 17L215 19L177 -38L181 -42Q229
-42 253 -66T278 -126Z" />
<glyph unicode="&#xe8;" glyph-name="egrave" horiz-adv-x="380" d="M176 257Q176 244 176 210T184 137T225 88Q255 108 284 143T327 213L350 205Q332 145 289 83T196 -15Q112 -15 66 37T20 172T60 328T169 451T314 505L328 498Q330 483 334 440Q342 358 355 313Q376
309 394 301V285Q274 285 176 257ZM229 303V444Q205 440 192 385T177 287Q202 297 229 303ZM50 745Q61 747 75 747T104 746Q149 663 294 567L280 543L16 648Q17 664 28 699T50 745Z" />
<glyph unicode="&#xe9;" glyph-name="eacute" horiz-adv-x="380" d="M176 257Q176 244 176 210T184 137T225 88Q255 108 284 143T327 213L350 205Q332 145 289 83T196 -15Q112 -15 66 37T20 172T60 328T169 451T314 505L328 498Q330 483 334 440Q342 358 355 313Q376
309 394 301V285Q274 285 176 257ZM229 303V444Q205 440 192 385T177 287Q202 297 229 303ZM354 746Q368 747 382 747T408 745Q418 735 429 700T442 648L178 543L164 567Q309 663 354 746Z" />
<glyph unicode="&#xea;" glyph-name="ecircumflex" horiz-adv-x="380" d="M176 257Q176 244 176 210T184 137T225 88Q255 108 284 143T327 213L350 205Q332 145 289 83T196 -15Q112 -15 66 37T20 172T60 328T169 451T314 505L328 498Q330 483 334 440Q342 358
355 313Q376 309 394 301V285Q274 285 176 257ZM229 303V444Q205 440 192 385T177 287Q202 297 229 303ZM432 543L229 623L46 543L32 567Q175 657 232 746H276Q333 642 446 567L432 543Z" />
<glyph unicode="&#xeb;" glyph-name="edieresis" horiz-adv-x="380" d="M176 257Q176 244 176 210T184 137T225 88Q255 108 284 143T327 213L350 205Q332 145 289 83T196 -15Q112 -15 66 37T20 172T60 328T169 451T314 505L328 498Q330 483 334 440Q342 358 355
313Q376 309 394 301V285Q274 285 176 257ZM229 303V444Q205 440 192 385T177 287Q202 297 229 303ZM210 652Q195 629 166 597T115 550Q75 580 40 652Q51 672 80 697T133 734Q172 709 210 652ZM431 652Q416 629 387 597T336 550Q296 580 261 652Q272 672 301 697T354
734Q393 709 431 652Z" />
<glyph unicode="&#xec;" glyph-name="igrave" horiz-adv-x="299" d="M7 490Q161 490 242 505L249 492Q230 450 218 347T206 178T207 87Q242 131 278 248L294 244Q258 42 175 -15Q111 -15 84 14T57 110Q57 136 64 238T71 385T68 455Q25 464 7 472V490ZM-39 745Q-28
747 -14 747T15 746Q60 663 205 567L191 543L-73 648Q-72 664 -61 699T-39 745Z" />
<glyph unicode="&#xed;" glyph-name="iacute" horiz-adv-x="299" d="M7 490Q161 490 242 505L249 492Q230 450 218 347T206 178T207 87Q242 131 278 248L294 244Q258 42 175 -15Q111 -15 84 14T57 110Q57 136 64 238T71 385T68 455Q25 464 7 472V490ZM265 746Q279
747 293 747T319 745Q329 735 340 700T353 648L89 543L75 567Q220 663 265 746Z" />
<glyph unicode="&#xee;" glyph-name="icircumflex" horiz-adv-x="299" d="M7 490Q161 490 242 505L249 492Q230 450 218 347T206 178T207 87Q242 131 278 248L294 244Q258 42 175 -15Q111 -15 84 14T57 110Q57 136 64 238T71 385T68 455Q25 464 7 472V490ZM343
543L140 623L-43 543L-57 567Q86 657 143 746H187Q244 642 357 567L343 543Z" />
<glyph unicode="&#xef;" glyph-name="idieresis" horiz-adv-x="299" d="M7 490Q161 490 242 505L249 492Q230 450 218 347T206 178T207 87Q242 131 278 248L294 244Q258 42 175 -15Q111 -15 84 14T57 110Q57 136 64 238T71 385T68 455Q25 464 7 472V490ZM121 652Q106
629 77 597T26 550Q-14 580 -49 652Q-38 672 -9 697T44 734Q83 709 121 652ZM342 652Q327 629 298 597T247 550Q207 580 172 652Q183 672 212 697T265 734Q304 709 342 652Z" />
<glyph unicode="&#xf0;" glyph-name="eth" horiz-adv-x="443" d="M119 504L205 560Q145 642 53 694L66 714Q185 677 271 608L284 618Q292 624 325 650T371 685L378 683Q382 659 390 641L303 579Q423 461 423 289Q423 181 363 102T198 -15Q109 -15 65 31T20 146Q20
246 76 316T234 419Q263 403 289 356H295Q276 450 229 526L127 453L118 455Q121 473 121 484T119 504ZM272 300T258 330T225 360T194 352Q176 272 176 163T218 54Q233 54 246 61Q276 152 276 269Q272 300 258 330Z" />
<glyph unicode="&#xf1;" glyph-name="ntilde" horiz-adv-x="542" d="M474 387Q474 334 456 235T437 82Q485 136 521 248L537 244Q501 50 403 -15Q293 -15 293 76Q293 113 308 207T324 347T314 402Q277 361 247 253T217 94T225 0Q140 0 61 -15L55 -10Q75 59 75
224T66 455Q23 464 5 472V490Q154 490 235 505L242 492Q218 430 218 334Q212 300 200 254L216 253Q259 449 361 505Q474 505 474 387ZM297 720Q370 672 423 672T510 707L534 690Q470 602 394 571Q369 571 313 595T231 619Q183 619 150 584L125 601Q151 637 199
670T297 720Z" />
<glyph unicode="&#xf2;" glyph-name="ograve" horiz-adv-x="443" d="M249 419Q239 431 226 431T199 426Q174 326 174 194Q174 93 194 70Q203 59 216 59T242 64Q268 165 268 280T249 419ZM113 -15T67 38T20 185T84 368T244 505Q334 505 378 455T423 307T359 120T198
-15Q113 -15 67 38ZM65 745Q76 747 90 747T119 746Q164 663 309 567L295 543L31 648Q32 664 43 699T65 745Z" />
<glyph unicode="&#xf3;" glyph-name="oacute" horiz-adv-x="443" d="M249 419Q239 431 226 431T199 426Q174 326 174 194Q174 93 194 70Q203 59 216 59T242 64Q268 165 268 280T249 419ZM113 -15T67 38T20 185T84 368T244 505Q334 505 378 455T423 307T359 120T198
-15Q113 -15 67 38ZM369 746Q383 747 397 747T423 745Q433 735 444 700T457 648L193 543L179 567Q324 663 369 746Z" />
<glyph unicode="&#xf4;" glyph-name="ocircumflex" horiz-adv-x="443" d="M249 419Q239 431 226 431T199 426Q174 326 174 194Q174 93 194 70Q203 59 216 59T242 64Q268 165 268 280T249 419ZM113 -15T67 38T20 185T84 368T244 505Q334 505 378 455T423 307T359
120T198 -15Q113 -15 67 38ZM447 543L244 623L61 543L47 567Q190 657 247 746H291Q348 642 461 567L447 543Z" />
<glyph unicode="&#xf5;" glyph-name="otilde" horiz-adv-x="443" d="M249 419Q239 431 226 431T199 426Q174 326 174 194Q174 93 194 70Q203 59 216 59T242 64Q268 165 268 280T249 419ZM113 -15T67 38T20 185T84 368T244 505Q334 505 378 455T423 307T359 120T198
-15Q113 -15 67 38ZM237 720Q310 672 363 672T450 707L474 690Q410 602 334 571Q309 571 253 595T171 619Q123 619 90 584L65 601Q91 637 139 670T237 720Z" />
<glyph unicode="&#xf6;" glyph-name="odieresis" horiz-adv-x="443" d="M249 419Q239 431 226 431T199 426Q174 326 174 194Q174 93 194 70Q203 59 216 59T242 64Q268 165 268 280T249 419ZM113 -15T67 38T20 185T84 368T244 505Q334 505 378 455T423 307T359
120T198 -15Q113 -15 67 38ZM225 652Q210 629 181 597T130 550Q90 580 55 652Q66 672 95 697T148 734Q187 709 225 652ZM446 652Q431 629 402 597T351 550Q311 580 276 652Q287 672 316 697T369 734Q408 709 446 652Z" />
<glyph unicode="&#xf7;" glyph-name="divide" horiz-adv-x="576" d="M343 411T343 390T326 351T289 333T250 351T232 390T250 428T288 446T326 429ZM343 128T343 107T326 68T289 50T250 68T232 107T250 145T288 163T326 146ZM66 290Q236 281 355 281T514 284L520
278L511 217H65L57 224L66 290Z" />
<glyph unicode="&#xf8;" glyph-name="oslash" horiz-adv-x="443" d="M20 180Q20 279 84 368T244 505Q274 505 298 499Q307 524 320 570Q344 572 359 578L363 574Q349 546 327 490Q423 450 423 310Q423 210 359 120T198 -15Q163 -15 136 -6L105 -95H100Q77 -81
71 -69L106 6Q20 53 20 180ZM268 296Q268 321 267 335L179 105Q189 59 218 59Q229 59 242 64Q268 165 268 296ZM174 194V180L259 398Q247 431 223 431Q212 431 199 426Q174 326 174 194Z" />
<glyph unicode="&#xf9;" glyph-name="ugrave" horiz-adv-x="547" d="M309 158Q316 198 325 240L308 242Q273 86 226 30Q202 2 171 -15Q113 -15 81 23T48 123Q48 162 59 259T70 395T68 455Q25 464 7 472V490Q161 490 242 505L249 492Q224 432 211 336T198 167T218
88Q251 131 278 238T305 396T297 490Q382 490 461 505L467 500Q447 431 447 244Q447 147 455 87Q490 131 526 248L542 244Q506 42 423 -15Q355 -15 332 28T309 158ZM93 745Q104 747 118 747T147 746Q192 663 337 567L323 543L59 648Q60 664 71 699T93 745Z" />
<glyph unicode="&#xfa;" glyph-name="uacute" horiz-adv-x="547" d="M309 158Q316 198 325 240L308 242Q273 86 226 30Q202 2 171 -15Q113 -15 81 23T48 123Q48 162 59 259T70 395T68 455Q25 464 7 472V490Q161 490 242 505L249 492Q224 432 211 336T198 167T218
88Q251 131 278 238T305 396T297 490Q382 490 461 505L467 500Q447 431 447 244Q447 147 455 87Q490 131 526 248L542 244Q506 42 423 -15Q355 -15 332 28T309 158ZM397 746Q411 747 425 747T451 745Q461 735 472 700T485 648L221 543L207 567Q352 663 397 746Z"
/>
<glyph unicode="&#xfb;" glyph-name="ucircumflex" horiz-adv-x="547" d="M309 158Q316 198 325 240L308 242Q273 86 226 30Q202 2 171 -15Q113 -15 81 23T48 123Q48 162 59 259T70 395T68 455Q25 464 7 472V490Q161 490 242 505L249 492Q224 432 211 336T198
167T218 88Q251 131 278 238T305 396T297 490Q382 490 461 505L467 500Q447 431 447 244Q447 147 455 87Q490 131 526 248L542 244Q506 42 423 -15Q355 -15 332 28T309 158ZM475 543L272 623L89 543L75 567Q218 657 275 746H319Q376 642 489 567L475 543Z" />
<glyph unicode="&#xfc;" glyph-name="udieresis" horiz-adv-x="547" d="M309 158Q316 198 325 240L308 242Q273 86 226 30Q202 2 171 -15Q113 -15 81 23T48 123Q48 162 59 259T70 395T68 455Q25 464 7 472V490Q161 490 242 505L249 492Q224 432 211 336T198 167T218
88Q251 131 278 238T305 396T297 490Q382 490 461 505L467 500Q447 431 447 244Q447 147 455 87Q490 131 526 248L542 244Q506 42 423 -15Q355 -15 332 28T309 158ZM253 652Q238 629 209 597T158 550Q118 580 83 652Q94 672 123 697T176 734Q215 709 253 652ZM474
652Q459 629 430 597T379 550Q339 580 304 652Q315 672 344 697T397 734Q436 709 474 652Z" />
<glyph unicode="&#xfd;" glyph-name="yacute" horiz-adv-x="512" d="M468 500Q448 431 448 245T491 -65Q425 -111 360 -215L329 -200Q277 -175 207 -156T84 -136Q3 -136 -53 -195L-69 -184Q2 -90 156 -14Q105 -9 77 28T49 113T60 259T71 395T69 455Q26 464 8 472V490Q162
490 243 505L250 492Q225 432 212 336T199 167T219 88Q252 131 279 238T306 396T298 490Q383 490 462 505L468 500ZM310 158Q317 198 326 240L309 242Q287 135 253 71T167 -32Q200 -32 277 -50T386 -68T431 -57Q378 -25 344 35T310 158ZM399 746Q413 747 427 747T453
745Q463 735 474 700T487 648L223 543L209 567Q354 663 399 746Z" />
<glyph unicode="&#xfe;" glyph-name="thorn" horiz-adv-x="505" d="M7 656Q158 656 268 703L276 690Q232 620 228 489L219 334L201 254L217 253Q237 345 267 409T355 505Q485 493 485 357Q485 236 419 140T237 -15L205 -7Q206 -24 222 -133L228 -170Q123 -180
34 -215L25 -200Q54 -154 63 -129T74 -57L76 11Q52 9 35 3L25 14Q40 43 77 87L79 412Q79 544 67 621Q34 627 7 638V656ZM219 86Q248 61 266 61T290 65Q305 112 316 192T327 329T308 402Q273 355 250 269T219 100V86Z" />
<glyph unicode="&#xff;" glyph-name="ydieresis" horiz-adv-x="512" d="M468 500Q448 431 448 245T491 -65Q425 -111 360 -215L329 -200Q277 -175 207 -156T84 -136Q3 -136 -53 -195L-69 -184Q2 -90 156 -14Q105 -9 77 28T49 113T60 259T71 395T69 455Q26 464
8 472V490Q162 490 243 505L250 492Q225 432 212 336T199 167T219 88Q252 131 279 238T306 396T298 490Q383 490 462 505L468 500ZM310 158Q317 198 326 240L309 242Q287 135 253 71T167 -32Q200 -32 277 -50T386 -68T431 -57Q378 -25 344 35T310 158ZM255 652Q240
629 211 597T160 550Q120 580 85 652Q96 672 125 697T178 734Q217 709 255 652ZM476 652Q461 629 432 597T381 550Q341 580 306 652Q317 672 346 697T399 734Q438 709 476 652Z" />
<glyph unicode="&#x2013;" glyph-name="endash" horiz-adv-x="479" d="M46 307Q154 295 280 295T464 300L472 292L433 238H18L7 248L46 307Z" />
<glyph unicode="&#x2014;" glyph-name="emdash" horiz-adv-x="709" d="M46 307Q231 295 428 295T694 301L702 293L663 238H18L7 248L46 307Z" />
<glyph unicode="&#x2018;" glyph-name="quoteleft" horiz-adv-x="226" d="M21 419Q33 491 87 563T210 681L225 664Q152 587 136 513Q176 473 199 419Q188 398 158 372T102 333Q59 360 21 419Z" />
<glyph unicode="&#x2019;" glyph-name="quoteright" horiz-adv-x="226" d="M205 595Q193 523 139 451T16 333L1 350Q74 427 90 501Q50 541 27 595Q38 616 68 642T124 681Q167 654 205 595Z" />
<glyph unicode="&#x201a;" glyph-name="quotesinglbase" horiz-adv-x="220" d="M199 93Q187 19 134 -47T10 -149L-5 -132Q69 -69 84 -1Q44 39 21 93Q32 114 62 140T118 179Q161 152 199 93Z" />
<glyph unicode="&#x201c;" glyph-name="quotedblleft" horiz-adv-x="431" d="M21 419Q33 491 87 563T210 681L225 664Q152 587 136 513Q176 473 199 419Q188 398 158 372T102 333Q59 360 21 419ZM226 419Q238 491 292 563T415 681L430 664Q357 587 341 513Q381
473 404 419Q393 398 363 372T307 333Q264 360 226 419Z" />
<glyph unicode="&#x201d;" glyph-name="quotedblright" horiz-adv-x="431" d="M410 595Q398 523 344 451T221 333L206 350Q279 427 295 501Q255 541 232 595Q243 616 273 642T329 681Q372 654 410 595ZM205 595Q193 523 139 451T16 333L1 350Q74 427 90 501Q50
541 27 595Q38 616 68 642T124 681Q167 654 205 595Z" />
<glyph unicode="&#x201e;" glyph-name="quotedblbase" horiz-adv-x="425" d="M199 93Q187 19 134 -47T10 -149L-5 -132Q69 -69 84 -1Q44 39 21 93Q32 114 62 140T118 179Q161 152 199 93ZM404 93Q392 19 339 -47T215 -149L200 -132Q274 -69 289 -1Q249 39 226
93Q237 114 267 140T323 179Q366 152 404 93Z" />
<glyph unicode="&#x2022;" glyph-name="bullet" horiz-adv-x="336" d="M315 290L313 275Q209 197 156 114H141Q109 196 21 274L24 289Q80 325 114 356T179 434H195Q215 388 242 358T315 290Z" />
<glyph unicode="&#x2039;" glyph-name="guilsinglleft" horiz-adv-x="311" d="M164 285L259 87L231 70Q133 202 34 267L36 292Q163 357 281 480L304 464L164 285Z" />
<glyph unicode="&#x203a;" glyph-name="guilsinglright" horiz-adv-x="311" d="M147 265L52 463L80 480Q178 348 277 283L275 258Q148 193 30 70L7 86L147 265Z" />
</font>
</defs>
</svg>
