<?xml version="1.0" standalone="no"?>
<!DOCTYPE svg PUBLIC "-//W3C//DTD SVG 1.1//EN" "http://www.w3.org/Graphics/SVG/1.1/DTD/svg11.dtd">
<svg xmlns="http://www.w3.org/2000/svg">
<defs >
<font id="Karma" horiz-adv-x="539" ><font-face
    font-family="Karma Medium"
    units-per-em="1000"
    panose-1="2 0 0 0 0 0 0 0 0 0"
    ascent="945"
    descent="-548"
    alphabetic="0" />
<glyph unicode=" " glyph-name="space" horiz-adv-x="268" />
<glyph unicode="!" glyph-name="exclam" horiz-adv-x="246" d="M183 20T166 3T123 -15T80 2T62 46T79 89T123 107T166 90T183 46ZM94 201L80 694Q121 710 174 699L151 201Q123 192 94 201Z" />
<glyph unicode="&quot;" glyph-name="quotedbl" horiz-adv-x="312" d="M69 492L52 683Q93 697 145 688L122 492Q97 487 69 492ZM188 492L171 683Q212 697 264 688L241 492Q216 487 188 492Z" />
<glyph unicode="#" glyph-name="numbersign" horiz-adv-x="702" d="M463 251H595Q615 225 616 190H449L404 17H337L382 190H224L180 17H113L158 190H74Q54 214 51 251H172L218 428H108Q88 454 85 488H232L276 657H343L299 488H457L500 657H567L523 488H629Q648
468 651 428H509L463 251ZM396 251L442 428H285L239 251H396Z" />
<glyph unicode="$" glyph-name="dollar" horiz-adv-x="477" d="M409 510Q409 481 391 466T346 452Q346 554 239 554Q192 554 162 532T132 471Q132 423 177 394Q206 375 282 343T397 277T435 174T387 51T260 -14L267 -106Q254 -112 231 -112T195 -106L202 -15Q138
-10 90 18T42 90Q42 116 58 133T105 150Q120 41 235 41Q291 41 327 67T363 145T332 222T225 279T104 347T58 446T98 549T203 605L195 699Q207 705 230 705T267 699L260 611Q317 609 363 585T409 510Z" />
<glyph unicode="%" glyph-name="percent" horiz-adv-x="769" d="M590 332Q724 332 724 161Q724 75 689 30T589 -15T489 28T453 157T488 287T590 332ZM660 285T588 285T516 159T587 32Q660 32 660 158ZM182 625Q315 625 315 454Q315 367 280 323T181 278T81 321T45
450T80 580T182 625ZM252 578T180 578T107 452T179 325T252 451ZM600 624L246 0H170L525 624H600Z" />
<glyph unicode="&amp;" glyph-name="ampersand" horiz-adv-x="731" d="M512 115Q595 55 639 55T703 83Q717 71 717 47T697 3T637 -17Q567 -17 461 59Q372 -18 250 -18Q147 -18 93 30T38 155Q38 209 69 260T169 349Q96 445 96 516T141 631T257 675T372 638T417
535T375 418T272 345Q286 329 294 320Q379 222 467 150Q505 205 524 280L463 286Q458 333 494 333H649Q648 330 649 325T649 313T644 300Q639 287 617 285L585 283Q562 186 512 115ZM341 580T317 601T257 623T197 597T173 531Q173 474 244 381Q293 404 317 446T341
534ZM122 116T159 80T273 44T414 95Q335 160 241 263Q219 286 201 309Q122 254 122 171Q122 116 159 80Z" />
<glyph unicode="&apos;" glyph-name="quotesingle" horiz-adv-x="193" d="M67 492L50 683Q91 697 143 688L120 492Q95 487 67 492Z" />
<glyph unicode="(" glyph-name="parenleft" horiz-adv-x="287" d="M141 262Q141 126 178 19T265 -154L228 -189Q154 -113 105 0T56 260T107 525T232 719L268 688Q141 495 141 262Z" />
<glyph unicode=")" glyph-name="parenright" horiz-adv-x="287" d="M231 406T231 260T182 1T59 -189L22 -154Q71 -88 108 19T146 262Q146 495 19 688L55 719Q128 645 179 526Z" />
<glyph unicode="*" glyph-name="asterisk" horiz-adv-x="544" d="M266 558L404 631Q432 591 432 539L276 520L390 411Q378 394 355 378T311 355L246 494L181 356Q161 361 138 378T103 412L215 519L60 538Q62 599 88 631L226 557L197 711Q217 718 245 718T293 711L266
558Z" />
<glyph unicode="+" glyph-name="plus" horiz-adv-x="487" d="M437 312V249H277V87H211V249H50V312H211V474H277V312H437Z" />
<glyph unicode="," glyph-name="comma" horiz-adv-x="209" d="M77 105T104 105T148 88T165 34T135 -51T71 -112Q65 -115 56 -107T47 -93Q81 -71 96 -16Q72 -13 58 4T44 47T60 88Z" />
<glyph unicode="-" glyph-name="hyphen" horiz-adv-x="393" d="M46 288H347V221H46V288Z" />
<glyph unicode="." glyph-name="period" horiz-adv-x="210" d="M165 20T148 3T105 -15T62 2T44 46T61 89T105 107T148 90T165 46Z" />
<glyph unicode="/" glyph-name="slash" horiz-adv-x="394" d="M97 -119H20L297 696H374L97 -119Z" />
<glyph unicode="0" glyph-name="zero" horiz-adv-x="514" d="M260 564Q120 564 120 296Q120 164 154 105T259 45T362 106T395 301T362 499T260 564ZM479 303Q479 -15 258 -15Q35 -15 35 303T259 624Q372 626 425 545T479 303Z" />
<glyph unicode="1" glyph-name="one" horiz-adv-x="371" d="M299 0H55V8Q55 48 90 51L153 53V527L85 503Q66 497 52 513T38 543L165 614Q182 624 206 624Q238 624 238 585V55L332 49Q337 0 299 0Z" />
<glyph unicode="2" glyph-name="two" horiz-adv-x="475" d="M51 546T104 585T239 624T371 579T421 460Q421 404 394 350Q361 285 334 253T293 203T250 159T211 122T173 87T143 61L380 62L388 122Q391 145 409 153T441 155V0H45Q35 30 37 44Q41 48 80 84T130 132T177
180T226 234T265 287T302 345Q331 412 331 458T305 535T229 565Q120 565 120 427Q92 426 72 440T51 490Q51 546 104 585Z" />
<glyph unicode="3" glyph-name="three" horiz-adv-x="446" d="M265 388T283 416T302 483T279 545T214 568T148 541T124 470Q92 471 75 486T60 527Q63 568 107 596T223 624T342 587T390 485Q390 438 360 397T265 332Q336 323 378 280T420 173Q420 93 357 39T193
-15Q122 -15 78 12T34 82Q34 130 88 137Q93 95 122 69T205 43T295 77T330 164T297 245T224 281T133 284L132 348Q179 348 236 374Q265 388 283 416Z" />
<glyph unicode="4" glyph-name="four" horiz-adv-x="474" d="M459 197V137H370V0L287 -10V137H41Q20 168 18 191L298 615Q335 624 369 618L370 197H459ZM287 197V502L89 197H287Z" />
<glyph unicode="5" glyph-name="five" horiz-adv-x="439" d="M224 380Q308 380 361 336T415 198T353 45T192 -15Q120 -15 78 10T36 76Q36 101 51 113T87 125Q99 42 195 42Q254 42 291 82T328 188T291 282T201 310T95 287L82 294L96 615L372 614L366 545H151L144
370Q186 380 224 380Z" />
<glyph unicode="6" glyph-name="six" horiz-adv-x="477" d="M137 317Q205 358 280 358T401 313T446 184T393 43T248 -15Q46 -15 46 254Q46 433 113 528T301 624Q358 624 388 605T419 560Q419 505 364 503Q364 532 346 550T291 569Q226 569 186 505T137 317ZM135
255Q135 42 253 42Q304 42 331 76T359 173Q359 298 249 298Q184 298 135 261V255Z" />
<glyph unicode="7" glyph-name="seven" horiz-adv-x="397" d="M22 615H378Q388 597 388 574L140 -10L55 19L308 547L82 545L74 488Q71 471 50 464T22 463V615Z" />
<glyph unicode="8" glyph-name="eight" horiz-adv-x="461" d="M431 172Q431 98 375 42T229 -15T90 28T40 133T73 240T164 320Q75 379 75 466Q75 533 121 578T241 624T359 588T404 488Q404 399 308 335Q366 301 398 265T431 172ZM328 523T305 547T244 571T179 548T152
487T179 422T266 359Q328 411 328 480Q328 523 305 547ZM169 266T146 228T122 145T150 70T234 40T322 69T354 141T326 213T243 274L208 293Q169 266 146 228Z" />
<glyph unicode="9" glyph-name="nine" horiz-adv-x="451" d="M216 624Q418 624 418 353Q418 175 351 80T162 -15Q107 -15 76 4T45 55Q45 74 57 90T100 106Q100 78 118 59T172 40Q238 40 278 104T327 293Q260 251 184 251T63 296T18 425T71 566T216 624ZM329 354Q329
568 212 568Q161 568 133 534T105 437Q105 311 214 311Q280 311 329 349V354Z" />
<glyph unicode=":" glyph-name="colon" horiz-adv-x="213" d="M169 338T151 320T107 302T62 320T44 365T62 410T106 428T151 410T169 365ZM169 21T151 3T107 -15T62 3T44 47T62 92T106 110T151 92T169 48Z" />
<glyph unicode=";" glyph-name="semicolon" horiz-adv-x="220" d="M88 97T115 97T159 80T176 26T146 -59T82 -120Q76 -123 67 -115T58 -101Q92 -79 107 -24Q83 -21 69 -4T55 39T71 80ZM131 316T105 316T62 333T44 377T61 420T104 438T147 421T165 377T148 334Z" />
<glyph unicode="&lt;" glyph-name="less" horiz-adv-x="470" d="M418 429L138 284L416 141L384 81L36 262V307L386 489L418 429Z" />
<glyph unicode="=" glyph-name="equal" horiz-adv-x="487" d="M50 243H437V180H50V243ZM50 385H437V322H50V385Z" />
<glyph unicode="&gt;" glyph-name="greater" horiz-adv-x="458" d="M74 316L422 295V289L72 267L40 275L320 292L42 309L74 316Z" />
<glyph unicode="?" glyph-name="question" horiz-adv-x="491" d="M182 107T208 107T251 90T269 46T252 3T209 -15T166 2T148 46T165 89ZM46 625T99 668T245 712T392 666T446 540T386 402T243 326L237 196Q214 191 179 196L174 368Q254 389 305 432T356 540Q356
588 326 621T238 655T147 612T114 520Q46 520 46 574Q46 625 99 668Z" />
<glyph unicode="@" glyph-name="at" horiz-adv-x="990" d="M514 -164Q312 -164 189 -51T65 253T190 564T521 684Q703 684 813 596T924 366T842 138T624 53Q590 53 575 63T561 102Q494 46 422 46T309 97T280 252T353 421T513 486Q567 486 611 463L612 473L692 480L641
107Q742 105 803 172T865 359T770 554T520 631Q344 631 236 527T128 256T237 -11T524 -111Q662 -111 749 -54L761 -104Q649 -164 514 -164ZM600 390Q565 429 504 429T408 380T363 264T375 154T450 110T568 159L600 390Z" />
<glyph unicode="A" glyph-name="A" horiz-adv-x="625" d="M579 0H375V8Q375 49 410 52L451 54L402 226H199L149 56L227 50Q232 0 194 0H11V8Q11 49 46 52L85 54L278 680Q316 684 354 680L545 56L612 50Q617 0 579 0ZM215 281H387L302 576L215 281Z" />
<glyph unicode="B" glyph-name="B" horiz-adv-x="558" d="M74 681H289Q395 681 447 634T499 517Q499 404 384 360Q447 349 489 309T531 202Q532 107 469 54T294 0H42Q43 16 44 25T53 42T75 51L117 55V625L44 631Q43 637 45 652Q50 681 74 681ZM205 628V376H242Q329
376 368 410T407 510T366 606T251 631L207 628H205ZM440 191Q440 266 395 297T254 328L205 327V56L269 55Q440 52 440 191Z" />
<glyph unicode="C" glyph-name="C" horiz-adv-x="571" d="M345 694Q428 694 482 657T537 566Q537 502 463 500Q463 563 430 597T336 631Q236 631 183 551T130 339Q130 54 349 54Q453 54 530 115Q543 109 543 90Q543 56 480 21T326 -15Q187 -15 114 74T38 325T116
590T345 694Z" />
<glyph unicode="D" glyph-name="D" horiz-adv-x="678" d="M80 681H297Q474 681 557 598T641 346T553 89T299 0H42Q39 49 73 51L116 55V624L44 630Q42 681 80 681ZM411 50T480 120T549 343T478 564T257 627L205 625H204V56L274 54Q411 50 480 120Z" />
<glyph unicode="E" glyph-name="E" horiz-adv-x="558" d="M519 144V0H41V8Q41 49 76 52L117 54V623L44 630Q39 679 78 679H504V535Q504 500 454 505L445 620L204 624V362L393 378Q401 340 393 298L204 308V56L460 63L469 174Q519 179 519 144Z" />
<glyph unicode="F" glyph-name="F" horiz-adv-x="518" d="M501 679V541Q501 506 451 511L440 621L206 624V372L393 387Q402 348 394 307L206 318V56L294 50Q299 0 261 0H41V8Q41 49 76 52L117 54V623L44 630Q39 679 78 679H501Z" />
<glyph unicode="G" glyph-name="G" horiz-adv-x="644" d="M399 309H628Q628 309 628 302Q628 261 593 257L566 254H564V77Q533 36 465 11T322 -15Q187 -15 114 73T38 325T118 593T356 696Q461 696 514 658T568 567Q568 538 550 519T494 500Q494 571 457 604T343
638Q236 638 183 557T130 337Q130 50 345 50Q438 50 488 95V252L367 258Q362 309 399 309Z" />
<glyph unicode="H" glyph-name="H" horiz-adv-x="728" d="M651 0H448V8Q448 49 483 52L524 54V311H204V56L278 50Q283 0 245 0H41V8Q41 49 76 52L117 54V623L44 629Q39 679 77 679H281V670Q281 631 246 628L205 625V366H524V623L452 629Q447 679 484 679H687V670Q687
631 652 628L612 625V56L684 50Q689 0 651 0Z" />
<glyph unicode="I" glyph-name="I" horiz-adv-x="322" d="M245 0H41V8Q41 49 76 52L117 54V623L44 629Q39 679 77 679H281V670Q281 631 246 628L205 625H204V56H205L278 50Q283 0 245 0Z" />
<glyph unicode="J" glyph-name="J" horiz-adv-x="352" d="M113 679H320V670Q320 631 285 628L247 625V133Q247 47 204 -7T87 -62Q49 -62 24 -43T-1 5Q-1 60 58 59Q60 1 108 1Q134 1 147 28T160 124V623H159L80 629Q75 679 113 679Z" />
<glyph unicode="K" glyph-name="K" horiz-adv-x="612" d="M587 679Q587 628 552 628L512 625L304 370L528 54L590 48Q591 41 591 31T582 10T557 0H458L247 300L204 248V56L282 50Q287 0 249 0H41V8Q41 49 76 52L117 54V623L44 629Q39 679 77 679H281V670Q281 631
246 628L205 625L204 331L439 624L375 629Q370 679 407 679H587Z" />
<glyph unicode="L" glyph-name="L" horiz-adv-x="537" d="M514 150V0H41V8Q41 49 76 52L117 54V624L45 630Q40 681 77 681H290V672Q290 643 274 634Q266 630 255 629L205 626H204V56L452 62L464 180Q514 185 514 150Z" />
<glyph unicode="M" glyph-name="M" horiz-adv-x="832" d="M785 0H587V8Q587 49 622 52L661 54L624 566L438 119Q409 111 388 115L193 549L158 56L233 50Q238 0 201 0H13V8Q13 49 48 52L91 54L134 624L64 630Q59 681 96 681H231L426 244L602 681H744Q781 681 776
630L706 624L750 58L818 50Q823 0 785 0Z" />
<glyph unicode="N" glyph-name="N" horiz-adv-x="687" d="M489 679H666V670Q666 631 631 628L589 625V12Q565 0 530 0L178 537V56L251 50Q256 0 218 0H41V8Q41 49 76 52L117 54V623L44 629Q39 679 77 679H190L529 162V623L456 629Q451 679 489 679Z" />
<glyph unicode="O" glyph-name="O" horiz-adv-x="655" d="M228 633T178 556T128 341T176 125T325 46T477 124T528 338T479 554T329 634ZM341 694Q451 694 529 620Q569 583 593 515T618 354Q619 185 539 85T311 -15Q184 -15 112 74T38 328T116 593T341 694Z" />
<glyph unicode="P" glyph-name="P" horiz-adv-x="562" d="M74 681H291Q414 681 478 629T542 490Q542 378 468 323T265 267Q242 267 204 269V56L283 50Q288 0 251 0H41V8Q41 49 76 52L117 54V625L44 631Q41 681 74 681ZM204 319L254 318Q451 318 451 479T262 631L204
629V319Z" />
<glyph unicode="Q" glyph-name="Q" horiz-adv-x="665" d="M618 -54Q626 -64 626 -86T606 -124T561 -141T516 -137T473 -124T432 -106T388 -83T347 -60Q312 -38 270 -12Q162 2 101 89T38 321Q36 492 116 593T341 694Q451 694 529 620Q569 583 593 515T618 354Q619
203 555 107T371 -10Q503 -70 567 -70Q593 -70 618 -54ZM228 633T178 556T128 341T176 125T325 46T477 124T528 338T479 554T329 634Z" />
<glyph unicode="R" glyph-name="R" horiz-adv-x="592" d="M74 681H296Q523 681 523 511Q523 431 474 381T339 316Q399 192 466 123T585 53Q583 23 565 4T519 -15Q457 -15 383 89T266 310H265Q226 310 205 312V56L283 50Q288 0 251 0H41V8Q41 49 76 52L117 54V625L44
631Q42 681 74 681ZM205 629V362Q239 360 253 360Q341 360 386 396T432 505T388 605T267 631L206 629H205Z" />
<glyph unicode="S" glyph-name="S" horiz-adv-x="507" d="M417 650Q448 623 448 585T428 529T377 514Q377 633 258 633Q203 633 168 608T132 543T155 477T207 435T264 408Q392 355 436 316T480 206Q480 113 412 49T230 -15Q149 -15 87 17T25 106Q25 135 43 154T97
173Q113 46 246 46Q316 46 358 81T401 175Q401 224 368 252Q353 264 347 269T317 286T287 301T240 321T174 352T115 390Q53 435 53 516T115 645T269 694Q364 696 417 650Z" />
<glyph unicode="T" glyph-name="T" horiz-adv-x="612" d="M20 679H592V553Q592 518 542 521L535 621H351V56L428 50Q433 0 396 0H183V8Q183 49 218 52L263 54V621H78L70 521Q20 518 20 553V679Z" />
<glyph unicode="U" glyph-name="U" horiz-adv-x="653" d="M458 679H634V670Q634 631 599 628L560 625V264Q560 -15 317 -15Q202 -15 147 52T92 256V623L19 629Q14 679 52 679H255V670Q255 631 220 628L179 625V254Q179 145 216 95T329 45Q498 45 498 248V623L426
629Q421 679 458 679Z" />
<glyph unicode="V" glyph-name="V" horiz-adv-x="623" d="M455 679H620V671Q620 631 585 628L563 625L340 0H272L62 623L4 629Q-1 679 36 679H235V670Q235 631 200 628L159 625L320 114L496 623L422 629Q417 679 455 679Z" />
<glyph unicode="W" glyph-name="W" horiz-adv-x="953" d="M788 679H949Q949 679 949 670Q949 642 934 634Q927 629 898 626L697 0H624L477 462L317 0H245L59 623L4 629Q-1 679 36 679H230V670Q230 631 195 628L157 625L294 116L460 616H526L673 114L828 623L756
629Q751 679 788 679Z" />
<glyph unicode="X" glyph-name="X" horiz-adv-x="643" d="M598 0H395V7Q395 48 430 52L461 54H462L308 281L163 56L232 50Q237 0 199 0H14V8Q14 49 49 52L84 54L274 330L75 624L14 630Q9 681 46 681H250V674Q250 633 215 629L181 626L335 399L476 624L407 630Q402
681 440 681H620V672Q620 632 585 629L558 627H555L369 348L568 56L631 50Q636 0 598 0Z" />
<glyph unicode="Y" glyph-name="Y" horiz-adv-x="604" d="M434 681H601V672Q601 632 566 629L544 626L349 280V56L422 50Q427 0 389 0H184V8Q184 49 219 52L260 54V278L62 624L4 630Q-1 681 36 681H240V674Q240 651 234 644Q221 629 205 629L164 626H163L322 342L475
624L402 630Q397 681 434 681Z" />
<glyph unicode="Z" glyph-name="Z" horiz-adv-x="550" d="M519 0H33Q23 19 19 35L402 626L133 617L122 530Q119 502 103 493T66 488V685H503Q517 671 520 652L137 56L451 69L464 161Q470 210 519 202V0Z" />
<glyph unicode="[" glyph-name="bracketleft" horiz-adv-x="241" d="M141 656V-118H222V-169H69V707H222V656H141Z" />
<glyph unicode="\" glyph-name="backslash" horiz-adv-x="394" d="M373 -119H296L19 696H96L373 -119Z" />
<glyph unicode="]" glyph-name="bracketright" horiz-adv-x="235" d="M100 -118V656H19V707H172V-169H19V-118H100Z" />
<glyph unicode="^" glyph-name="asciicircum" horiz-adv-x="496" d="M441 204H364L251 515L132 204H54L229 653H276L441 204Z" />
<glyph unicode="_" glyph-name="underscore" horiz-adv-x="389" d="M-36 -81H424V-142H-36V-81Z" />
<glyph unicode="`" glyph-name="grave" horiz-adv-x="499" d="M271 539L70 647Q79 665 99 682T139 701L304 572Q293 550 271 539Z" />
<glyph unicode="a" glyph-name="a" horiz-adv-x="508" d="M492 35Q492 -16 426 -16T345 43Q280 -15 202 -15T82 21T41 119T87 223T241 265Q295 265 341 254V323Q341 449 235 449Q187 449 164 421T138 353Q109 350 90 363T71 406Q71 450 116 479T235 509Q292 509
328 492T383 456Q426 411 426 328V43L492 35ZM341 190Q297 211 243 211T161 190T133 130T156 70T221 48Q287 48 341 94V190Z" />
<glyph unicode="b" glyph-name="b" horiz-adv-x="562" d="M174 443Q244 509 326 509T465 449T524 264T464 63T284 -15Q226 -15 171 10L90 38V630L41 635Q11 638 14 683L174 703V443ZM174 94Q226 47 298 47T402 104T435 248T401 388T303 441T174 383V94Z" />
<glyph unicode="c" glyph-name="c" horiz-adv-x="458" d="M277 509Q344 509 383 482T423 408Q423 376 404 362T358 349Q357 388 334 417T262 446Q196 446 162 391T127 250T162 108T273 52T413 105Q429 95 429 75Q429 45 372 15T246 -15Q148 -15 94 51T38 236T101
431T277 509Z" />
<glyph unicode="d" glyph-name="d" horiz-adv-x="553" d="M538 37Q536 -15 468 -15T390 52Q319 -15 237 -15T97 46T38 231T99 432T279 509Q338 509 389 485V630L340 635Q310 638 313 683L473 703V44L538 37ZM337 447T265 447T160 390T127 246T161 106T260 52T389
111V400Q337 447 265 447Z" />
<glyph unicode="e" glyph-name="e" horiz-adv-x="472" d="M441 258H129Q128 250 128 233Q128 52 276 52Q350 52 416 105Q430 96 430 75Q430 45 376 15T249 -15Q151 -15 95 47T38 235T103 435T263 509T399 451T441 309V258ZM304 450T258 450T180 414T134 310H355Q353
377 329 413Z" />
<glyph unicode="f" glyph-name="f" horiz-adv-x="342" d="M114 494V528Q114 615 156 666T274 718Q314 719 339 705T365 662Q365 609 309 609Q308 636 294 650T259 665Q198 665 198 546V494H323Q327 441 289 441H198V54L297 48Q301 0 265 0H41V8Q41 18 46 30Q53
48 76 50L114 52V441H43Q43 482 57 490Q65 494 77 494H114Z" />
<glyph unicode="g" glyph-name="g" horiz-adv-x="469" d="M214 151Q190 151 165 156Q141 126 143 112Q145 102 166 99T241 94Q357 92 407 65T457 -32Q457 -120 391 -174T223 -228T70 -190T18 -88T90 35Q69 50 69 84T119 173Q44 214 39 313Q35 395 86 452T225 509Q286
509 327 482L452 515Q461 503 462 482T452 450Q437 442 368 444Q398 401 397 328T347 203T214 151ZM173 452T147 417T120 328T145 239T216 205T288 241T315 330T290 419T219 453ZM86 -114T125 -137T235 -160T351 -129T396 -54Q396 -7 326 4Q280 11 219 13T132 19Q86
-27 86 -70Z" />
<glyph unicode="h" glyph-name="h" horiz-adv-x="628" d="M572 0H374V8Q374 18 378 30Q386 48 409 50L446 52V302Q446 436 334 436Q294 436 265 422T202 377V54L276 48Q281 0 243 0H43V8Q43 18 48 30Q55 48 78 50L117 52V629L69 634Q41 637 41 683L202 703V441Q272
509 349 509T478 460T530 304V54L605 48Q610 0 572 0Z" />
<glyph unicode="i" glyph-name="i" horiz-adv-x="299" d="M243 0H43V8Q43 18 48 30Q55 48 78 50L117 52V438L69 443Q41 446 41 491L202 509V54L276 48Q281 0 243 0ZM176 577T151 577T110 592T94 633T110 674T151 690T192 674T208 633T192 593Z" />
<glyph unicode="j" glyph-name="j" horiz-adv-x="261" d="M106 690T131 690T171 674T187 634T172 593T131 577T90 593T74 633T90 674ZM180 28Q180 -93 136 -160T9 -228Q-19 -228 -44 -214T-70 -172T-55 -131T-15 -119Q-13 -167 29 -167Q62 -167 79 -139T96 -35V439L45
444Q19 446 19 491L180 509V28Z" />
<glyph unicode="k" glyph-name="k" horiz-adv-x="551" d="M348 494H512V486Q512 476 508 464Q500 446 477 444L450 442L313 291L484 54L551 48Q555 0 517 0H427L260 231L202 167V54L276 48Q281 0 244 0H44V8Q44 18 48 30Q56 48 79 50L117 52V630L69 635Q41 638
41 683L202 703V243L374 440L315 446Q310 494 348 494Z" />
<glyph unicode="l" glyph-name="l" horiz-adv-x="295" d="M240 0H42V8Q42 18 46 30Q54 48 77 50L117 52V630L69 635Q41 638 41 683L202 703V54L273 48Q278 0 240 0Z" />
<glyph unicode="m" glyph-name="m" horiz-adv-x="940" d="M884 0H685V8Q685 18 690 30Q697 48 720 50L758 52V301Q758 435 646 435Q582 435 515 372Q523 344 523 304V54L597 48Q602 0 565 0H365V8Q365 18 370 30Q377 48 400 50L439 52V301Q439 435 326 435Q265
435 202 377V54L276 48Q281 0 243 0H43V8Q43 18 48 30Q55 48 78 50L117 52V437L74 439Q41 441 41 488L185 506L195 439H198Q232 472 266 490T346 509T433 488T497 421Q577 509 667 509Q739 509 790 460T842 304V54L917 48Q922 0 884 0Z" />
<glyph unicode="n" glyph-name="n" horiz-adv-x="624" d="M568 0H372V8Q372 18 376 30Q384 48 407 50L446 52V307Q446 437 342 437Q301 437 270 423T202 376V54L273 48Q278 0 240 0H42V8Q42 18 46 30Q54 48 77 50L117 52V436L69 441Q41 444 41 488L185 506L196
435H199Q279 509 355 509T481 461T530 311V54L601 48Q606 0 568 0Z" />
<glyph unicode="o" glyph-name="o" horiz-adv-x="518" d="M127 336T127 245T161 99T258 43T356 98T391 243T358 392T261 450T162 393ZM267 509Q357 509 418 448T480 260T420 59T254 -15T94 49T38 237T98 434T267 509Z" />
<glyph unicode="p" glyph-name="p" horiz-adv-x="560" d="M13 -208Q13 -166 48 -166L87 -163V434L37 439Q12 442 12 485L155 503L167 439Q245 509 325 509T462 449T521 264T461 62T281 -15Q221 -15 171 9V-161L246 -167Q251 -215 213 -215H13V-208ZM223 47T295
47T399 104T432 248T399 388T295 441Q261 441 234 427T171 383V94Q223 47 295 47Z" />
<glyph unicode="q" glyph-name="q" horiz-adv-x="534" d="M314 -208Q314 -166 349 -166L388 -163V44Q322 -15 239 -15T98 46T38 230T98 431T277 509Q339 509 392 484L472 494V-161L543 -167Q548 -215 511 -215H314V-208ZM388 401Q337 447 265 447T160 390T127
247T161 107T260 54T388 106V401Z" />
<glyph unicode="r" glyph-name="r" horiz-adv-x="418" d="M228 458T272 483T346 509T395 493T414 435T393 370Q378 358 347 361Q347 434 309 434Q261 434 201 367V54L285 48Q290 0 252 0H43V8Q43 18 48 30Q55 48 78 50L116 52V434L65 439Q41 442 41 485L189 504L196
426H199Q228 458 272 483Z" />
<glyph unicode="s" glyph-name="s" horiz-adv-x="406" d="M382 81T329 33T185 -15Q121 -14 72 11T24 82Q24 109 41 124T84 138Q93 95 124 70T201 44T277 63T308 118T285 171T213 207T143 236T94 264Q40 300 40 366T95 470T212 509T317 487T358 424Q358 394 339
380T294 369Q295 404 270 427T205 451T138 434T112 386T140 338T222 298T295 268T339 240Q382 209 382 145Z" />
<glyph unicode="t" glyph-name="t" horiz-adv-x="385" d="M176 441V151Q176 100 189 77T236 53T294 61T353 97Q360 95 366 86T372 66Q372 35 321 10T221 -16Q147 -16 120 26T92 147V441H16Q13 494 50 494H92V615L176 631V494H361Q364 449 336 441H176Z" />
<glyph unicode="u" glyph-name="u" horiz-adv-x="580" d="M328 456Q328 494 361 494H490V60L531 56Q558 55 558 7L431 -4L415 50Q346 -15 270 -15T141 34T89 190V440L14 443V456Q14 494 47 494H174V193Q174 54 286 54Q349 54 406 103V440L328 443V456Z" />
<glyph unicode="v" glyph-name="v" horiz-adv-x="491" d="M354 494H488Q490 447 456 444L448 443L267 0H214L44 440L3 446Q2 464 9 479T33 494H205Q205 494 205 487Q205 448 170 444L138 442L254 121L375 440L322 446Q317 494 354 494Z" />
<glyph unicode="w" glyph-name="w" horiz-adv-x="712" d="M576 494H709Q711 447 678 444L669 443L502 0H453L351 296L239 0H190L45 440H44L3 446Q2 464 9 479T33 494H205Q205 494 205 487Q205 448 170 444L137 442L231 124L346 449L393 450L493 133L595 441L543
446Q538 494 576 494Z" />
<glyph unicode="x" glyph-name="x" horiz-adv-x="497" d="M458 0H283V8Q283 44 318 50L343 52H344L237 201L143 54L199 48Q204 0 167 0H9V8Q9 47 44 50L75 52L206 242L63 440L13 446Q8 494 45 494H220V486Q220 450 185 444L162 442L268 295L360 440H359L309 446Q304
494 342 494H485V486Q485 447 450 444L427 443L298 254L443 54L491 48Q496 0 458 0Z" />
<glyph unicode="y" glyph-name="y" horiz-adv-x="507" d="M369 494H505V486Q505 448 461 443L286 12H285Q229 -128 192 -172Q176 -191 152 -207T98 -223T47 -206T27 -164T40 -126T69 -111T91 -113Q81 -156 115 -156Q141 -156 174 -97T232 29L56 440H55L4 446Q-1
494 36 494H216V486Q216 447 181 444L151 442L273 133L391 440L337 446Q332 494 369 494Z" />
<glyph unicode="z" glyph-name="z" horiz-adv-x="414" d="M50 494H380Q393 481 397 456L122 51L338 56L345 112Q347 134 365 142T399 144V0H28Q17 17 15 37L294 446L110 441L105 385Q102 363 84 355T50 353V494Z" />
<glyph unicode="{" glyph-name="braceleft" horiz-adv-x="334" d="M101 643T139 679T237 716T320 703L315 662Q297 664 285 664Q177 664 177 579Q177 557 185 494T194 391Q194 283 141 267V259Q194 241 194 135Q194 103 186 37T177 -54Q177 -139 285 -139Q297
-139 315 -137L320 -178Q288 -191 232 -191T138 -155T101 -59Q101 -25 109 41T117 150T94 220Q82 234 50 248V278Q83 291 94 306Q117 332 117 374T109 482T101 584Q101 643 139 679Z" />
<glyph unicode="|" glyph-name="bar" horiz-adv-x="272" d="M100 -195V716H172V-195H100Z" />
<glyph unicode="}" glyph-name="braceright" horiz-adv-x="334" d="M3 703Q26 716 86 716T184 680T222 584Q222 548 214 483T206 375T229 306Q240 291 273 278V248Q241 234 229 220Q206 192 206 150T214 42T222 -59Q222 -118 185 -154T92 -191T3 -178L8 -137Q26
-139 38 -139Q146 -139 146 -54Q146 -30 138 36T129 135Q129 241 182 259V267Q129 283 129 391Q129 431 137 494T146 579Q146 664 38 664Q26 664 8 662L3 703Z" />
<glyph unicode="~" glyph-name="asciitilde" horiz-adv-x="563" d="M133 238L100 251Q112 301 143 328T211 355T290 324T360 294T405 307T431 343L463 333Q441 223 344 226Q306 228 262 255T196 283T158 271T133 238Z" />
<glyph unicode="&#xa0;" glyph-name="uni00A0" horiz-adv-x="268" />
<glyph unicode="&#xa1;" glyph-name="exclamdown" horiz-adv-x="246" d="M80 -13L94 480Q123 489 151 480L174 -18Q121 -29 80 -13ZM62 661T79 678T122 696T165 679T183 635T166 592T123 574T80 591T62 635Z" />
<glyph unicode="&#xa2;" glyph-name="cent" horiz-adv-x="492" d="M365 505T400 478T436 414T417 362T371 349Q370 390 346 419T274 449Q209 449 174 394T139 252Q139 51 290 51Q365 51 426 103Q442 93 442 71T402 23T304 -12L311 -108Q297 -114 274 -114T238
-108L246 -16Q154 -12 103 54T50 230T99 415T245 506L238 600Q251 606 274 606T311 600L304 509Q365 505 400 478Z" />
<glyph unicode="&#xa3;" glyph-name="sterling" horiz-adv-x="519" d="M229 389L224 323H391V268H219Q210 168 201 122T168 57H471Q475 0 428 0H54Q46 15 48 41Q79 49 96 64T123 114Q137 151 146 268H59V323H150Q154 387 154 389Q170 622 346 622Q396 622 430
601T465 543T446 494T400 482Q400 566 332 566Q289 566 262 521T229 389Z" />
<glyph unicode="&#xa4;" glyph-name="currency" horiz-adv-x="589" d="M175 225T208 191T296 156T383 191T417 281T384 372T296 407T209 372T175 281ZM451 403Q488 354 488 282T453 162L541 87Q511 49 487 35L411 122Q366 90 297 90T180 124L101 35Q75 50 48 87L138
164Q104 212 104 282T140 401L48 479Q76 517 101 530L180 441Q230 474 296 474T409 442L487 530Q511 518 541 479L451 403Z" />
<glyph unicode="&#xa5;" glyph-name="yen" horiz-adv-x="600" d="M412 615H588V606Q588 566 553 563L526 561H525L375 322H469V268H351V217H469V162H351V56H352L424 50Q429 0 392 0H191V8Q191 49 226 52L266 54V162H137V217H266V268H137V322H237L73 559L13 565Q8
615 46 615H245V608Q245 567 209 563L176 561L319 338L451 559L379 565Q374 615 412 615Z" />
<glyph unicode="&#xa6;" glyph-name="brokenbar" horiz-adv-x="272" d="M100 346V716H172V346H100ZM172 175V-195H100V175H172Z" />
<glyph unicode="&#xa7;" glyph-name="section" horiz-adv-x="544" d="M499 -53Q499 -147 431 -210T249 -274Q168 -274 106 -242T44 -153Q44 -124 62 -105T116 -86Q132 -212 265 -212Q333 -212 376 -179T420 -85Q420 -56 411 -36T376 2T332 29T273 56T209 85T157
114T111 152Q72 197 72 255Q72 338 138 387Q72 438 72 517T137 645T278 695T411 669T468 582Q468 547 447 530T396 515Q396 632 277 632Q222 632 187 607T152 543T177 476T226 436T280 411Q412 355 455 316T499 201T446 66Q499 21 499 -53ZM152 278Q152 244 177
217T226 177T278 153T308 140T311 138Q323 136 394 100Q420 129 420 166T411 223T376 261T332 288T262 320T193 353Q152 326 152 278Z" />
<glyph unicode="&#xa8;" glyph-name="dieresis" horiz-adv-x="600" d="M399 599T382 583T341 566T301 583T284 623T300 663T341 680T382 664T399 623ZM226 600T210 583T169 566T128 583T111 623T128 663T169 680T209 663T226 623Z" />
<glyph unicode="&#xa9;" glyph-name="copyright" horiz-adv-x="672" d="M395 465T418 449T441 411T428 380T401 372Q401 391 387 405T344 420T297 391T278 317Q278 210 360 210Q403 210 435 235Q444 229 444 212T414 178T343 161Q283 161 249 200T215 307T251
420T355 465Q395 465 418 449ZM556 415T495 476T335 538T177 475T117 310T177 146T336 84T496 145T556 311ZM50 439T128 518T335 598T543 519T622 311T544 103T337 24T129 102T50 309Z" />
<glyph unicode="&#xaa;" glyph-name="ordfeminine" horiz-adv-x="341" d="M275 322Q230 322 218 353Q182 322 135 322T62 343T36 402T66 464T162 488Q193 488 214 484V509Q214 580 160 580T104 528Q83 526 70 535T56 567T84 608T165 626T250 598T283 513V363L321
358Q321 344 310 333T275 322ZM166 447Q110 447 110 407Q110 370 159 370Q185 370 214 389V438Q190 447 166 447Z" />
<glyph unicode="&#xab;" glyph-name="guillemotleft" horiz-adv-x="575" d="M337 438L154 249V242L340 52L299 17L55 221Q48 245 55 270L299 474L337 438ZM545 438L362 249V242L548 52L507 17L263 221Q256 245 263 270L507 474L545 438Z" />
<glyph unicode="&#xac;" glyph-name="logicalnot" horiz-adv-x="488" d="M438 315V252L437 139H373L374 252H50V315H438Z" />
<glyph unicode="&#xad;" glyph-name="uni00AD" horiz-adv-x="393" d="M46 288H347V221H46V288Z" />
<glyph unicode="&#xae;" glyph-name="registered" horiz-adv-x="605" d="M61 574T128 641T304 709T478 642T544 464T478 288T304 222T129 289T61 465ZM119 378T170 326T303 273T436 324T486 463T437 603T305 657T171 605T119 465ZM214 600H305Q398 600 398 537Q398
479 332 465Q379 375 426 375Q423 345 392 345T332 381T287 461H277V381L309 379Q309 350 292 350H200Q200 379 216 380L228 381V569L200 571Q200 600 214 600ZM277 571V490H286Q349 490 349 533Q349 571 298 571H277Z" />
<glyph unicode="&#xaf;" glyph-name="overscore" horiz-adv-x="600" d="M121 638H394V578H121V638Z" />
<glyph unicode="&#xb0;" glyph-name="degree" horiz-adv-x="344" d="M114 607T114 580T130 536T172 518T214 535T230 579T214 622T172 639T130 623ZM54 529T54 579T87 660T172 692T256 661T289 580T256 498T171 466T87 497Z" />
<glyph unicode="&#xb1;" glyph-name="plusminus" horiz-adv-x="487" d="M276 312H437V249H276V136H211V249H50V312H211V474H276V312ZM50 37V100H437V37H50Z" />
<glyph unicode="&#xb2;" glyph-name="twosuperior" horiz-adv-x="331" d="M296 277H44Q34 301 36 313Q56 328 92 359T136 399T159 423T181 449T197 475Q212 501 212 527T199 568T157 584T114 562T99 505Q45 503 45 546Q45 580 78 602T166 625T251 599T283 531Q283
434 118 322H255L259 356Q261 370 273 375T296 376V277Z" />
<glyph unicode="&#xb3;" glyph-name="threesuperior" horiz-adv-x="309" d="M97 476Q129 476 161 492T194 545Q194 584 149 584Q100 584 96 531Q51 533 53 565Q54 591 81 608T157 625T236 604T267 547Q267 488 187 464Q232 459 257 435T283 372T244 302T149 271T63
287T34 328Q34 342 44 352T75 363Q77 341 94 327T141 312T191 328T210 372Q209 437 97 431V476Z" />
<glyph unicode="&#xb4;" glyph-name="acute" horiz-adv-x="600" d="M408 647L207 539Q185 550 174 572L339 701Q358 699 378 682T408 647Z" />
<glyph unicode="&#xb5;" glyph-name="uni00B5" horiz-adv-x="570" d="M550 35Q550 -16 484 -16T403 41Q341 -15 263 -15Q207 -15 164 14L170 -204Q157 -211 126 -211T83 -204L89 155Q87 177 87 190V494H172V193Q172 54 284 54Q346 54 399 99V494H484V43L550 35Z" />
<glyph unicode="&#xb6;" glyph-name="paragraph" horiz-adv-x="646" d="M263 681H567Q599 681 597 631L524 625V-90H437V625H354V-90H266V289Q182 289 119 334Q87 356 68 396T48 488Q48 572 104 626T263 681Z" />
<glyph unicode="&#xb7;" glyph-name="middot" horiz-adv-x="205" d="M165 237T147 219T103 201T58 219T40 264T58 309T102 327T147 309T165 264Z" />
<glyph unicode="&#xb8;" glyph-name="cedilla" horiz-adv-x="600" d="M342 -43T362 -63T382 -117T356 -173T284 -196T213 -168Q210 -143 225 -133Q248 -151 275 -151Q318 -151 318 -116Q318 -99 303 -90T246 -81L272 18H315L300 -43Q342 -43 362 -63Z" />
<glyph unicode="&#xb9;" glyph-name="onesuperior" horiz-adv-x="279" d="M216 283H51V289Q51 308 59 314T76 320L113 322V551L73 539Q59 535 49 547T38 568L125 615Q138 621 161 621Q181 621 181 595V323L240 319Q240 315 240 307T235 291T216 283Z" />
<glyph unicode="&#xba;" glyph-name="ordmasculine" horiz-adv-x="375" d="M246 519T230 549T182 579T134 550T116 471T133 394T180 366T228 393T246 470ZM43 541T81 583T182 626T282 586T318 474T282 361T178 319T78 357T44 468Z" />
<glyph unicode="&#xbb;" glyph-name="guillemotright" horiz-adv-x="575" d="M213 249L30 438L68 474L312 270Q319 245 312 221L68 17L27 52L213 242V249ZM421 249L238 438L276 474L520 270Q527 245 520 221L276 17L235 52L421 242V249Z" />
<glyph unicode="&#xbc;" glyph-name="onequarter" horiz-adv-x="662" d="M629 107V66H579V-6L511 -12V66H366Q353 83 350 101L522 342Q550 349 579 345V107H629ZM511 107V255L406 107H511ZM480 624H555L200 0H125L480 624ZM205 277H42Q42 277 42 283Q42 304 50
309T66 315L103 317V551L63 539Q49 535 39 548T28 569L115 616Q128 623 151 623Q171 623 171 596V318L230 314Q230 277 205 277Z" />
<glyph unicode="&#xbd;" glyph-name="onehalf" horiz-adv-x="662" d="M644 0H392Q382 26 384 35Q387 38 409 56T439 80T467 105T496 134T520 161T542 192Q559 227 559 251T546 291T504 306T461 284T446 228Q393 226 393 269Q393 303 426 325T513 348T598 322T630
253Q630 156 465 44H602L606 79Q608 93 620 98T644 99V0ZM467 624H542L187 0H112L467 624ZM195 276H32V282Q32 303 40 308T56 314L93 316V551L53 538Q39 534 29 547T18 568L105 615Q118 622 141 622Q161 622 161 595V317L220 313Q220 276 195 276Z" />
<glyph unicode="&#xbe;" glyph-name="threequarters" horiz-adv-x="662" d="M637 107V66H588V-6L519 -12V66H374Q361 83 358 101L530 342Q559 348 587 345L588 107H637ZM519 107V255L414 107H519ZM499 624H575L220 0H144L499 624ZM187 545Q187 584 142 584Q93
584 89 531Q45 532 45 565Q46 591 73 608T149 625T229 604T260 547Q260 488 179 464Q224 459 250 435T276 372T237 302T141 271T56 287T27 328Q27 342 37 352T68 363Q70 341 87 327T134 312T183 328T203 372Q202 437 90 431L89 476Q122 476 154 492T187 545Z" />
<glyph unicode="&#xbf;" glyph-name="questiondown" horiz-adv-x="491" d="M309 570T283 570T240 587T222 631T239 674T282 692T325 675T343 631T326 588ZM445 52T392 9T246 -35T99 11T45 137T105 275T248 351L254 481Q277 486 312 481L317 309Q237 288 186 245T135
137Q135 89 165 56T253 22T344 65T377 157Q445 157 445 103Q445 52 392 9Z" />
<glyph unicode="&#xc0;" glyph-name="Agrave" horiz-adv-x="625" d="M579 0H375V8Q375 49 410 52L451 54L402 226H199L149 56L227 50Q232 0 194 0H11V8Q11 49 46 52L85 54L278 680Q316 684 354 680L545 56L612 50Q617 0 579 0ZM215 281H387L302 576L215 281ZM246
887L411 758Q400 736 378 725L177 833Q186 851 206 868T246 887Z" />
<glyph unicode="&#xc1;" glyph-name="Aacute" horiz-adv-x="625" d="M579 0H375V8Q375 49 410 52L451 54L402 226H199L149 56L227 50Q232 0 194 0H11V8Q11 49 46 52L85 54L278 680Q316 684 354 680L545 56L612 50Q617 0 579 0ZM215 281H387L302 576L215 281ZM469
838L268 730Q246 742 235 763L400 893Q420 890 440 873T469 838Z" />
<glyph unicode="&#xc2;" glyph-name="Acircumflex" horiz-adv-x="625" d="M579 0H375V8Q375 49 410 52L451 54L402 226H199L149 56L227 50Q232 0 194 0H11V8Q11 49 46 52L85 54L278 680Q316 684 354 680L545 56L612 50Q617 0 579 0ZM215 281H387L302 576L215 281ZM315
808L179 721Q161 731 149 752L283 874Q318 882 349 874L481 752Q468 730 450 721L315 808Z" />
<glyph unicode="&#xc3;" glyph-name="Atilde" horiz-adv-x="625" d="M579 0H375V8Q375 49 410 52L451 54L402 226H199L149 56L227 50Q232 0 194 0H11V8Q11 49 46 52L85 54L278 680Q316 684 354 680L545 56L612 50Q617 0 579 0ZM215 281H387L302 576L215 281ZM376
750Q341 750 299 775T236 801T201 787T180 754L148 765Q158 815 186 844T249 873T323 846T390 818Q440 818 453 870L484 861Q467 750 376 750Z" />
<glyph unicode="&#xc4;" glyph-name="Adieresis" horiz-adv-x="625" d="M579 0H375V8Q375 49 410 52L451 54L402 226H199L149 56L227 50Q232 0 194 0H11V8Q11 49 46 52L85 54L278 680Q316 684 354 680L545 56L612 50Q617 0 579 0ZM215 281H387L302 576L215 281ZM284
785T268 769T227 752T186 768T169 808T186 849T227 866T267 849T284 809ZM457 785T441 769T400 752T359 768T342 808T359 849T400 866T440 849T457 809Z" />
<glyph unicode="&#xc5;" glyph-name="Aring" horiz-adv-x="625" d="M579 0H375V8Q375 49 410 52L451 54L402 226H199L149 56L227 50Q232 0 194 0H11V8Q11 49 46 52L85 54L278 680Q316 684 354 680L545 56L612 50Q617 0 579 0ZM215 281H387L302 576L215 281ZM357
730T316 730T251 753T226 817T251 881T319 906T385 883T410 820T383 755ZM338 862T318 862T286 850T273 818T285 786T318 773T350 785T362 818T350 850Z" />
<glyph unicode="&#xc6;" glyph-name="AE" horiz-adv-x="876" d="M837 144V0H353V8Q353 49 388 52L429 54V306H270L150 56L227 50Q232 0 194 0H11V8Q11 49 46 52L85 54L391 680L817 681V536Q817 501 767 506L757 621L517 625V364L705 379Q713 343 706 299L517 310V56L777
63L787 174Q837 179 837 144ZM429 360V624L422 625L296 360H429Z" />
<glyph unicode="&#xc7;" glyph-name="Ccedilla" horiz-adv-x="571" d="M345 694Q428 694 482 657T537 566Q537 502 463 500Q463 563 430 597T336 631Q236 631 183 551T130 339Q130 54 349 54Q453 54 530 115Q543 109 543 90Q543 58 487 25T349 -14L342 -43Q384
-43 404 -63T424 -117T398 -173T326 -196T255 -168Q252 -143 267 -133Q290 -151 317 -151Q360 -151 360 -116Q360 -99 345 -90T288 -81L305 -14Q176 -7 108 81T38 328T116 590T345 694Z" />
<glyph unicode="&#xc8;" glyph-name="Egrave" horiz-adv-x="558" d="M373 725L172 833Q181 851 201 868T241 887L406 758Q395 736 373 725ZM519 144V0H41V8Q41 49 76 52L117 54V623L44 630Q39 679 78 679H504V535Q504 500 454 505L445 620L204 624V362L393 378Q401
340 393 298L204 308V56L460 63L469 174Q519 179 519 144Z" />
<glyph unicode="&#xc9;" glyph-name="Eacute" horiz-adv-x="558" d="M463 838L263 730Q240 742 229 763L395 893Q415 890 435 873T463 838ZM519 144V0H41V8Q41 49 76 52L117 54V623L44 630Q39 679 78 679H504V535Q504 500 454 505L445 620L204 624V362L393 378Q401
340 393 298L204 308V56L460 63L469 174Q519 179 519 144Z" />
<glyph unicode="&#xca;" glyph-name="Ecircumflex" horiz-adv-x="558" d="M519 144V0H41V8Q41 49 76 52L117 54V623L44 630Q39 679 78 679H504V535Q504 500 454 505L445 620L204 624V362L393 378Q401 340 393 298L204 308V56L460 63L469 174Q519 179 519 144ZM310
808L174 721Q156 731 144 752L278 874Q312 882 344 874L476 752Q463 730 445 721L310 808Z" />
<glyph unicode="&#xcb;" glyph-name="Edieresis" horiz-adv-x="558" d="M451 785T435 769T394 752T354 768T337 808T353 849T394 866T434 849T451 809ZM246 752T222 752T181 768T164 808T181 849T222 866T262 849T279 809T263 769ZM519 144V0H41V8Q41 49 76 52L117
54V623L44 630Q39 679 78 679H504V535Q504 500 454 505L445 620L204 624V362L393 378Q401 340 393 298L204 308V56L460 63L469 174Q519 179 519 144Z" />
<glyph unicode="&#xcc;" glyph-name="Igrave" horiz-adv-x="322" d="M245 0H41V8Q41 49 76 52L117 54V623L44 629Q39 679 77 679H281V670Q281 631 246 628L205 625H204V56H205L278 50Q283 0 245 0ZM94 887L259 758Q248 736 226 725L25 833Q34 851 54 868T94 887Z" />
<glyph unicode="&#xcd;" glyph-name="Iacute" horiz-adv-x="322" d="M204 625V56H205L278 50Q283 0 245 0H41V8Q41 49 76 52L117 54V623L44 629Q39 679 77 679H281V670Q281 631 246 628L205 625H204ZM317 838L116 730Q94 742 83 763L248 893Q268 890 288 873T317 838Z" />
<glyph unicode="&#xce;" glyph-name="Icircumflex" horiz-adv-x="322" d="M197 874L329 752Q316 730 298 721L163 808L27 721Q9 731 -3 752L131 874Q166 882 197 874ZM204 625V56H205L278 50Q283 0 245 0H41V8Q41 49 76 52L117 54V623L44 629Q39 679 77 679H281V670Q281
631 246 628L205 625H204Z" />
<glyph unicode="&#xcf;" glyph-name="Idieresis" horiz-adv-x="322" d="M190 832T207 849T248 866T288 849T305 809T289 769T248 752T207 768T190 808ZM204 625V56H205L278 50Q283 0 245 0H41V8Q41 49 76 52L117 54V623L44 629Q39 679 77 679H281V670Q281 631
246 628L205 625H204ZM99 866T115 849T132 809T116 769T75 752T34 768T17 808T34 849T75 866Z" />
<glyph unicode="&#xd0;" glyph-name="Eth" horiz-adv-x="700" d="M80 681H297Q474 681 557 598T641 346T553 89T299 0H42Q39 49 73 51L116 55V309H62V365H116V624L44 630Q42 681 80 681ZM411 50T480 120T549 343T478 564T257 627L205 625H204V365H372V309H204V56L274
54Q411 50 480 120Z" />
<glyph unicode="&#xd1;" glyph-name="Ntilde" horiz-adv-x="687" d="M489 679H666V670Q666 631 631 628L589 625V12Q565 0 530 0L178 537V56L251 50Q256 0 218 0H41V8Q41 49 76 52L117 54V623L44 629Q39 679 77 679H190L529 162V623L456 629Q451 679 489 679ZM405
750Q369 750 327 775T264 801T229 787T208 754L176 765Q186 815 214 844T277 873T351 846T418 818Q468 818 481 870L512 861Q495 750 405 750Z" />
<glyph unicode="&#xd2;" glyph-name="Ograve" horiz-adv-x="655" d="M403 725L202 833Q211 851 231 868T271 887L436 758Q425 736 403 725ZM341 694Q451 694 529 620Q569 583 593 515T618 354Q619 185 539 85T311 -15Q184 -15 112 74T38 328T116 593T341 694ZM228
633T178 556T128 341T176 125T325 46T477 124T528 338T479 554T329 634Z" />
<glyph unicode="&#xd3;" glyph-name="Oacute" horiz-adv-x="655" d="M493 838L292 730Q270 742 259 763L425 893Q445 890 465 873T493 838ZM228 633T178 556T128 341T176 125T325 46T477 124T528 338T479 554T329 634ZM341 694Q451 694 529 620Q569 583 593 515T618
354Q619 185 539 85T311 -15Q184 -15 112 74T38 328T116 593T341 694Z" />
<glyph unicode="&#xd4;" glyph-name="Ocircumflex" horiz-adv-x="655" d="M311 -15Q184 -15 112 74T38 328T116 593T341 694Q451 694 529 620Q569 583 593 515T618 354Q619 185 539 85T311 -15ZM426 47T477 124T528 338T479 554T329 634T178 556T128 341T176 125T325
46ZM340 808L204 721Q184 732 174 752L308 874Q342 882 374 874L506 752Q490 729 475 721L340 808Z" />
<glyph unicode="&#xd5;" glyph-name="Otilde" horiz-adv-x="655" d="M182 815T210 844T273 873T347 846T413 818T456 832T478 870L509 861Q491 750 401 750Q365 750 323 775T260 801T225 787T204 754L172 765Q182 815 210 844ZM228 633T178 556T128 341T176 125T325
46T477 124T528 338T479 554T329 634ZM341 694Q451 694 529 620Q569 583 593 515T618 354Q619 185 539 85T311 -15Q184 -15 112 74T38 328T116 593T341 694Z" />
<glyph unicode="&#xd6;" glyph-name="Odieresis" horiz-adv-x="655" d="M481 785T465 769T424 752T383 768T366 808T383 849T424 866T464 849T481 809ZM276 752T252 752T211 768T194 808T211 849T252 866T292 849T309 809T293 769ZM228 633T178 556T128 341T176
125T325 46T477 124T528 338T479 554T329 634ZM341 694Q451 694 529 620Q569 583 593 515T618 354Q619 185 539 85T311 -15Q184 -15 112 74T38 328T116 593T341 694Z" />
<glyph unicode="&#xd7;" glyph-name="multiply" horiz-adv-x="428" d="M378 398L260 280L377 162L332 117L215 235L96 116L50 162L169 281L50 399L95 444L214 326L332 444L378 398Z" />
<glyph unicode="&#xd8;" glyph-name="Oslash" horiz-adv-x="689" d="M311 -15Q247 -15 194 10L178 -17L120 15L138 47Q41 135 39 313T116 593T341 694Q428 694 491 652L517 697L576 668L541 607Q617 518 618 352T539 85T311 -15ZM328 633Q228 633 178 556T128
337T180 119L453 586Q404 633 328 633ZM426 47T477 124T528 327T494 526L229 71Q271 46 325 46Q426 47 477 124Z" />
<glyph unicode="&#xd9;" glyph-name="Ugrave" horiz-adv-x="653" d="M393 725L192 833Q201 851 221 868T261 887L426 758Q415 736 393 725ZM458 679H634V670Q634 631 599 628L560 625V264Q560 -15 317 -15Q202 -15 147 52T92 256V623L19 629Q14 679 52 679H255V670Q255
631 220 628L179 625V254Q179 145 216 95T329 45Q498 45 498 248V623L426 629Q421 679 458 679Z" />
<glyph unicode="&#xda;" glyph-name="Uacute" horiz-adv-x="653" d="M483 838L283 730Q261 741 250 763L415 893Q435 890 455 873T483 838ZM458 679H634V670Q634 631 599 628L560 625V264Q560 -15 317 -15Q202 -15 147 52T92 256V623L19 629Q14 679 52 679H255V670Q255
631 220 628L179 625V254Q179 145 216 95T329 45Q498 45 498 248V623L426 629Q421 679 458 679Z" />
<glyph unicode="&#xdb;" glyph-name="Ucircumflex" horiz-adv-x="653" d="M458 679H634V670Q634 631 599 628L560 625V264Q560 -15 317 -15Q202 -15 147 52T92 256V623L19 629Q14 679 52 679H255V670Q255 631 220 628L179 625V254Q179 145 216 95T329 45Q498 45
498 248V623L426 629Q421 679 458 679ZM330 808L194 721Q176 731 164 752L298 874Q332 882 364 874L496 752Q483 730 465 721L330 808Z" />
<glyph unicode="&#xdc;" glyph-name="Udieresis" horiz-adv-x="653" d="M471 785T455 769T414 752T374 768T357 808T373 849T414 866T454 849T471 809ZM266 752T242 752T201 768T184 808T201 849T242 866T282 849T299 809T283 769ZM458 679H634V670Q634 631 599
628L560 625V264Q560 -15 317 -15Q202 -15 147 52T92 256V623L19 629Q14 679 52 679H255V670Q255 631 220 628L179 625V254Q179 145 216 95T329 45Q498 45 498 248V623L426 629Q421 679 458 679Z" />
<glyph unicode="&#xdd;" glyph-name="Yacute" horiz-adv-x="604" d="M434 681H601V672Q601 632 566 629L544 626L349 280V56L422 50Q427 0 389 0H184V8Q184 49 219 52L260 54V278L62 624L4 630Q-1 681 36 681H240V674Q240 651 234 644Q221 629 205 629L164 626H163L322
342L475 624L402 630Q397 681 434 681ZM468 838L267 730Q245 742 234 763L399 893Q419 890 439 873T468 838Z" />
<glyph unicode="&#xde;" glyph-name="Thorn" horiz-adv-x="597" d="M260 145L204 146V56H205L278 50Q283 0 245 0H41V8Q41 49 76 52L117 54V624L44 630Q39 681 77 681H281V672Q281 643 264 634Q257 630 246 629L205 626H204V553H283Q409 553 474 500T540 359Q540
250 465 198T260 145ZM255 502H204V197Q219 196 247 196Q446 196 446 351Q446 502 255 502Z" />
<glyph unicode="&#xdf;" glyph-name="germandbls" horiz-adv-x="617" d="M116 451Q116 589 178 653T345 716Q420 715 468 684T516 591Q516 553 493 520T443 467Q370 416 370 378Q370 334 472 287Q534 258 564 227T594 140T546 35T416 -15Q358 -15 313 10T268 81Q268
108 284 122T326 137Q334 95 361 70T429 44T494 67T519 126T470 193Q460 199 427 216T376 245T336 274Q293 309 293 363Q293 421 344 466Q366 484 388 502Q439 543 439 587Q439 658 347 658Q273 658 237 605T201 458V0H41V8Q41 47 76 50L116 51V451Z" />
<glyph unicode="&#xe0;" glyph-name="agrave" horiz-adv-x="508" d="M492 35Q492 -16 426 -16T345 43Q280 -15 202 -15T82 21T41 119T87 223T241 265Q295 265 341 254V323Q341 449 235 449Q187 449 164 421T138 353Q109 350 90 363T71 406Q71 450 116 479T235
509Q292 509 328 492T383 456Q426 411 426 328V43L492 35ZM341 190Q297 211 243 211T161 190T133 130T156 70T221 48Q287 48 341 94V190ZM168 701L333 572Q322 550 300 539L99 647Q108 665 128 682T168 701Z" />
<glyph unicode="&#xe1;" glyph-name="aacute" horiz-adv-x="508" d="M492 35Q492 -16 426 -16T345 43Q280 -15 202 -15T82 21T41 119T87 223T241 265Q295 265 341 254V323Q341 449 235 449Q187 449 164 421T138 353Q109 350 90 363T71 406Q71 450 116 479T235
509Q292 509 328 492T383 456Q426 411 426 328V43L492 35ZM341 190Q297 211 243 211T161 190T133 130T156 70T221 48Q287 48 341 94V190ZM391 647L190 539Q168 550 157 572L322 701Q341 699 361 682T391 647Z" />
<glyph unicode="&#xe2;" glyph-name="acircumflex" horiz-adv-x="508" d="M492 35Q492 -16 426 -16T345 43Q280 -15 202 -15T82 21T41 119T87 223T241 265Q295 265 341 254V323Q341 449 235 449Q187 449 164 421T138 353Q109 350 90 363T71 406Q71 450 116 479T235
509Q292 509 328 492T383 456Q426 411 426 328V43L492 35ZM341 190Q297 211 243 211T161 190T133 130T156 70T221 48Q287 48 341 94V190ZM237 622L101 535Q83 545 71 566L205 689Q240 696 271 689L403 566Q389 543 373 535L237 622Z" />
<glyph unicode="&#xe3;" glyph-name="atilde" horiz-adv-x="508" d="M492 35Q492 -16 426 -16T345 43Q280 -15 202 -15T82 21T41 119T87 223T241 265Q295 265 341 254V323Q341 449 235 449Q187 449 164 421T138 353Q109 350 90 363T71 406Q71 450 116 479T235
509Q292 509 328 492T383 456Q426 411 426 328V43L492 35ZM341 190Q297 211 243 211T161 190T133 130T156 70T221 48Q287 48 341 94V190ZM377 675L408 665Q386 555 296 559Q261 560 220 587T156 615Q118 616 100 571L69 583Q80 632 109 660T173 687T246 656T311
626T353 639T377 675Z" />
<glyph unicode="&#xe4;" glyph-name="adieresis" horiz-adv-x="508" d="M492 35Q492 -16 426 -16T345 43Q280 -15 202 -15T82 21T41 119T87 223T241 265Q295 265 341 254V323Q341 449 235 449Q187 449 164 421T138 353Q109 350 90 363T71 406Q71 450 116 479T235
509Q292 509 328 492T383 456Q426 411 426 328V43L492 35ZM341 190Q297 211 243 211T161 190T133 130T156 70T221 48Q287 48 341 94V190ZM206 600T190 583T149 566T108 583T91 623T108 663T149 680T189 663T206 623ZM379 599T362 583T321 566T281 583T264 623T280
663T321 680T362 664T379 623Z" />
<glyph unicode="&#xe5;" glyph-name="aring" horiz-adv-x="508" d="M492 35Q492 -16 426 -16T345 43Q280 -15 202 -15T82 21T41 119T87 223T241 265Q295 265 341 254V323Q341 449 235 449Q187 449 164 421T138 353Q109 350 90 363T71 406Q71 450 116 479T235 509Q292
509 328 492T383 456Q426 411 426 328V43L492 35ZM341 190Q297 211 243 211T161 190T133 130T156 70T221 48Q287 48 341 94V190ZM279 544T238 544T173 567T148 631T173 696T241 721T307 697T332 634T305 569ZM260 677T240 677T208 665T196 633T208 600T240 588T272
600T284 632T272 665Z" />
<glyph unicode="&#xe6;" glyph-name="ae" horiz-adv-x="775" d="M658 377T633 413T561 450T482 413T439 310H658Q658 377 633 413ZM341 189Q297 211 243 211T161 190T133 130T156 69T222 48Q286 48 341 94V189ZM433 258L432 231Q432 52 579 52Q654 52 719 105Q734
95 734 75Q734 45 680 15T552 -15Q437 -15 382 69Q306 -15 194 -15Q124 -15 83 21T41 119T87 223T241 265Q297 265 341 254V323Q341 382 315 415T237 449T162 420T138 353Q110 350 91 363T71 405Q71 450 116 479T235 509Q273 509 310 498Q379 477 401 425Q467 509
572 509Q662 509 703 451T744 309V258H433Z" />
<glyph unicode="&#xe7;" glyph-name="ccedilla" horiz-adv-x="458" d="M277 509Q344 509 383 482T423 408Q423 376 404 362T358 349Q357 388 334 417T262 446Q196 446 162 391T127 250T162 108T273 52T413 105Q429 95 429 75Q429 46 377 18T259 -15L252 -43Q294
-43 314 -63T334 -117T308 -173T236 -196T165 -168Q162 -143 177 -133Q200 -151 227 -151Q270 -151 270 -116Q270 -99 255 -90T198 -81L216 -13Q131 -3 85 62T38 229Q37 354 101 431T277 509Z" />
<glyph unicode="&#xe8;" glyph-name="egrave" horiz-adv-x="472" d="M441 258H129Q128 250 128 233Q128 52 276 52Q350 52 416 105Q430 96 430 75Q430 45 376 15T249 -15Q151 -15 95 47T38 235T103 435T263 509T399 451T441 309V258ZM304 450T258 450T180 414T134
310H355Q353 377 329 413ZM197 701L362 572Q351 550 329 539L128 647Q137 665 157 682T197 701Z" />
<glyph unicode="&#xe9;" glyph-name="eacute" horiz-adv-x="472" d="M441 258H129Q128 250 128 233Q128 52 276 52Q350 52 416 105Q430 96 430 75Q430 45 376 15T249 -15Q151 -15 95 47T38 235T103 435T263 509T399 451T441 309V258ZM304 450T258 450T180 414T134
310H355Q353 377 329 413ZM420 647L219 539Q197 550 186 572L351 701Q370 699 390 682T420 647Z" />
<glyph unicode="&#xea;" glyph-name="ecircumflex" horiz-adv-x="472" d="M441 258H129Q128 250 128 233Q128 52 276 52Q350 52 416 105Q430 96 430 75Q430 45 376 15T249 -15Q151 -15 95 47T38 235T103 435T263 509T399 451T441 309V258ZM304 450T258 450T180
414T134 310H355Q353 377 329 413ZM266 622L130 535Q112 545 100 566L234 689Q268 696 300 689L432 566Q418 543 401 535L266 622Z" />
<glyph unicode="&#xeb;" glyph-name="edieresis" horiz-adv-x="472" d="M441 258H129Q128 250 128 233Q128 52 276 52Q350 52 416 105Q430 96 430 75Q430 45 376 15T249 -15Q151 -15 95 47T38 235T103 435T263 509T399 451T441 309V258ZM304 450T258 450T180 414T134
310H355Q353 377 329 413ZM235 600T219 583T178 566T137 583T120 623T137 663T178 680T218 663T235 623ZM408 599T391 583T350 566T310 583T293 623T309 663T350 680T391 664T408 623Z" />
<glyph unicode="&#xec;" glyph-name="igrave" horiz-adv-x="299" d="M243 0H43V8Q43 18 48 30Q55 48 78 50L117 52V438L69 443Q41 446 41 491L202 509V54L276 48Q281 0 243 0ZM79 701L244 572Q233 550 211 539L10 647Q19 665 39 682T79 701Z" />
<glyph unicode="&#xed;" glyph-name="iacute" horiz-adv-x="299" d="M243 0H43V8Q43 18 48 30Q55 48 78 50L117 52V438L69 443Q41 446 41 491L202 509V54L276 48Q281 0 243 0ZM302 647L101 539Q79 550 68 572L233 701Q252 699 272 682T302 647Z" />
<glyph unicode="&#xee;" glyph-name="icircumflex" horiz-adv-x="299" d="M182 689L314 566Q300 543 283 535L148 622L12 535Q-6 545 -18 566L116 689Q150 696 182 689ZM243 0H43V8Q43 18 48 30Q55 48 78 50L117 52V438L69 443Q41 446 41 491L202 509V54L276 48Q281
0 243 0Z" />
<glyph unicode="&#xef;" glyph-name="idieresis" horiz-adv-x="299" d="M243 0H43V8Q43 18 48 30Q55 48 78 50L117 52V438L69 443Q41 446 41 491L202 509V54L276 48Q281 0 243 0ZM117 646T117 623T101 583T60 566T19 583T2 623T19 663T60 680T100 663ZM290 599T273
583T232 566T192 583T175 623T191 663T232 680T273 664T290 623Z" />
<glyph unicode="&#xf0;" glyph-name="eth" horiz-adv-x="526" d="M488 290Q488 150 422 68T243 -15Q146 -15 93 45T38 217T99 404T277 480Q327 480 363 463Q332 528 276 574L182 513L154 560L228 607Q169 640 115 648L144 699Q219 687 289 647L373 700L401 656L337
615Q488 498 488 290ZM127 143T158 98T254 52T359 116T399 287Q399 327 392 371Q341 418 268 418T161 363T127 225Z" />
<glyph unicode="&#xf1;" glyph-name="ntilde" horiz-adv-x="624" d="M188 571L157 583Q168 632 197 660T261 687T334 656T400 626Q449 625 465 675L495 665Q475 555 384 559Q349 560 308 587T246 615T210 603T188 571ZM568 0H372V8Q372 18 376 30Q384 48 407 50L446
52V307Q446 437 342 437Q301 437 270 423T202 376V54L273 48Q278 0 240 0H42V8Q42 18 46 30Q54 48 77 50L117 52V436L69 441Q41 444 41 488L185 506L196 435H199Q279 509 355 509T481 461T530 311V54L601 48Q606 0 568 0Z" />
<glyph unicode="&#xf2;" glyph-name="ograve" horiz-adv-x="518" d="M325 539L124 647Q133 665 153 682T193 701L358 572Q347 550 325 539ZM267 509Q357 509 418 448T480 260T420 59T254 -15T94 49T38 237T98 434T267 509ZM127 336T127 245T161 99T258 43T356
98T391 243T358 392T261 450T162 393Z" />
<glyph unicode="&#xf3;" glyph-name="oacute" horiz-adv-x="518" d="M127 336T127 245T161 99T258 43T356 98T391 243T358 392T261 450T162 393ZM267 509Q357 509 418 448T480 260T420 59T254 -15T94 49T38 237T98 434T267 509ZM416 647L215 539Q193 550 182 572L347
701Q366 699 386 682T416 647Z" />
<glyph unicode="&#xf4;" glyph-name="ocircumflex" horiz-adv-x="518" d="M481 132T420 59T254 -15T94 49T38 237T98 434T267 509Q357 509 418 448T480 260ZM321 44T356 98T391 243T358 392T261 450T162 393T127 245T161 99T258 43ZM262 622L126 535Q108 545 96
566L230 689Q264 696 296 689L428 566Q414 543 397 535L262 622Z" />
<glyph unicode="&#xf5;" glyph-name="otilde" horiz-adv-x="518" d="M125 571L94 583Q105 632 134 660T198 687T271 656T336 626T378 639T402 675L433 665Q411 555 321 559Q286 560 245 587T181 615Q143 616 125 571ZM127 336T127 245T161 99T258 43T356 98T391
243T358 392T261 450T162 393ZM267 509Q357 509 418 448T480 260T420 59T254 -15T94 49T38 237T98 434T267 509Z" />
<glyph unicode="&#xf6;" glyph-name="odieresis" horiz-adv-x="518" d="M127 336T127 245T161 99T258 43T356 98T391 243T358 392T261 450T162 393ZM267 509Q357 509 418 448T480 260T420 59T254 -15T94 49T38 237T98 434T267 509ZM404 599T387 583T346 566T306
583T289 623T305 663T346 680T387 664T404 623ZM231 600T215 583T174 566T133 583T116 623T133 663T174 680T214 663T231 623Z" />
<glyph unicode="&#xf7;" glyph-name="divide" horiz-adv-x="487" d="M268 377T242 377T199 394T181 438T198 481T242 499T285 482T303 438T286 395ZM268 63T242 63T199 80T181 124T198 167T242 185T285 168T303 124T286 81ZM50 312H437V249H50V312Z" />
<glyph unicode="&#xf8;" glyph-name="oslash" horiz-adv-x="521" d="M249 -15Q199 -15 157 2L145 -19L89 12L104 38Q40 101 39 230T98 434T267 509Q318 509 365 488L380 514L437 485L416 450Q480 383 480 258T420 59T249 -15ZM196 449T162 393T127 253T150 118L329
426Q299 450 259 450Q196 449 162 393ZM259 44Q321 44 356 98T391 235T369 368L193 64Q221 44 259 44Z" />
<glyph unicode="&#xf9;" glyph-name="ugrave" horiz-adv-x="580" d="M350 539L149 647Q158 665 178 682T218 701L383 572Q372 550 350 539ZM328 456Q328 494 361 494H490V60L531 56Q558 55 558 7L431 -4L415 50Q346 -15 270 -15T141 34T89 190V440L14 443V456Q14
494 47 494H174V193Q174 54 286 54Q349 54 406 103V440L328 443V456Z" />
<glyph unicode="&#xfa;" glyph-name="uacute" horiz-adv-x="580" d="M328 456Q328 494 361 494H490V60L531 56Q558 55 558 7L431 -4L415 50Q346 -15 270 -15T141 34T89 190V440L14 443V456Q14 494 47 494H174V193Q174 54 286 54Q349 54 406 103V440L328 443V456ZM441
647L240 539Q218 550 207 572L372 701Q391 699 411 682T441 647Z" />
<glyph unicode="&#xfb;" glyph-name="ucircumflex" horiz-adv-x="580" d="M328 456Q328 494 361 494H490V60L531 56Q558 55 558 7L431 -4L415 50Q346 -15 270 -15T141 34T89 190V440L14 443V456Q14 494 47 494H174V193Q174 54 286 54Q349 54 406 103V440L328 443V456ZM287
622L150 535Q132 545 120 566L254 689Q289 696 320 689L453 566Q436 542 422 535L287 622Z" />
<glyph unicode="&#xfc;" glyph-name="udieresis" horiz-adv-x="580" d="M328 456Q328 494 361 494H490V60L531 56Q558 55 558 7L431 -4L415 50Q346 -15 270 -15T141 34T89 190V440L14 443V456Q14 494 47 494H174V193Q174 54 286 54Q349 54 406 103V440L328 443V456ZM428
599T411 583T370 566T330 583T313 623T329 663T370 680T411 664T428 623ZM255 600T239 583T198 566T157 583T140 623T157 663T198 680T238 663T255 623Z" />
<glyph unicode="&#xfd;" glyph-name="yacute" horiz-adv-x="507" d="M369 494H505V486Q505 448 461 443L286 12H285Q229 -128 192 -172Q176 -191 152 -207T98 -223T47 -206T27 -164T40 -126T69 -111T91 -113Q81 -156 115 -156Q141 -156 174 -97T232 29L56 440H55L4
446Q-1 494 36 494H216V486Q216 447 181 444L151 442L273 133L391 440L337 446Q332 494 369 494ZM421 647L220 539Q198 550 187 572L352 701Q371 699 391 682T421 647Z" />
<glyph unicode="&#xfe;" glyph-name="thorn" horiz-adv-x="560" d="M13 -208Q13 -166 48 -166L87 -163V633L37 638Q12 641 12 684L171 702V442Q246 509 326 509T462 449T521 264T461 62T281 -15Q221 -15 171 9V-161L246 -167Q251 -215 213 -215H13V-208ZM223 47T295
47T399 104T432 248T399 388T295 441Q261 441 234 427T171 383V94Q223 47 295 47Z" />
<glyph unicode="&#xff;" glyph-name="ydieresis" horiz-adv-x="507" d="M369 494H505V486Q505 448 461 443L286 12H285Q229 -128 192 -172Q176 -191 152 -207T98 -223T47 -206T27 -164T40 -126T69 -111T91 -113Q81 -156 115 -156Q141 -156 174 -97T232 29L56 440H55L4
446Q-1 494 36 494H216V486Q216 447 181 444L151 442L273 133L391 440L337 446Q332 494 369 494ZM236 600T220 583T179 566T138 583T121 623T138 663T179 680T219 663T236 623ZM409 599T392 583T351 566T311 583T294 623T310 663T351 680T392 664T409 623Z" />
<glyph unicode="&#x2013;" glyph-name="endash" horiz-adv-x="505" d="M46 289H459V226H46V289Z" />
<glyph unicode="&#x2014;" glyph-name="emdash" horiz-adv-x="817" d="M46 290H771V227H46V290Z" />
<glyph unicode="&#x2018;" glyph-name="quoteleft" horiz-adv-x="207" d="M135 592T148 576T162 535T147 494T104 477T61 494T44 546T74 626T137 684Q141 687 150 679T159 666Q127 643 112 595Q135 592 148 576Z" />
<glyph unicode="&#x2019;" glyph-name="quoteright" horiz-adv-x="207" d="M44 652T60 668T102 685T145 668T162 616T133 536T70 478Q65 475 56 483T47 496Q82 520 94 567Q71 570 58 586T44 627Z" />
<glyph unicode="&#x201a;" glyph-name="quotesinglbase" horiz-adv-x="209" d="M77 105T104 105T148 88T165 34T135 -51T71 -112Q65 -115 56 -107T47 -93Q81 -71 96 -16Q72 -13 58 4T44 47T60 88Z" />
<glyph unicode="&#x201c;" glyph-name="quotedblleft" horiz-adv-x="341" d="M269 592T282 576T296 535T280 494T238 477T195 494T178 546T208 626T271 684Q275 687 284 679T293 666Q261 643 246 595Q269 592 282 576ZM135 592T148 576T162 535T147 494T104 477T61
494T44 546T74 626T137 684Q141 687 150 679T159 666Q127 643 112 595Q135 592 148 576Z" />
<glyph unicode="&#x201d;" glyph-name="quotedblright" horiz-adv-x="341" d="M178 652T194 668T236 685T279 668T296 616T267 536T204 478Q199 475 190 483T181 496Q216 520 228 567Q205 570 192 586T178 627ZM44 652T60 668T102 685T145 668T162 616T133 536T70
478Q65 475 56 483T47 496Q82 520 94 567Q71 570 58 586T44 627Z" />
<glyph unicode="&#x201e;" glyph-name="quotedblbase" horiz-adv-x="341" d="M178 70T194 86T236 103T279 86T296 34T267 -46T204 -104Q199 -107 190 -99T181 -86Q216 -62 228 -15Q205 -12 192 4T178 45ZM44 70T60 86T102 103T145 86T162 34T133 -46T70 -104Q65
-107 56 -99T47 -86Q82 -62 94 -15Q71 -12 58 4T44 45Z" />
<glyph unicode="&#x2022;" glyph-name="bullet" horiz-adv-x="457" d="M269 238T228 238T159 266T131 335T159 404T228 432T297 404T326 335T298 266Z" />
<glyph unicode="&#x2039;" glyph-name="guilsinglleft" horiz-adv-x="367" d="M337 438L154 249V242L340 52L299 17L55 221Q48 245 55 270L299 474L337 438Z" />
<glyph unicode="&#x203a;" glyph-name="guilsinglright" horiz-adv-x="367" d="M213 249L30 438L68 474L312 270Q319 245 312 221L68 17L27 52L213 242V249Z" />
</font>
</defs>
</svg>
