<?xml version="1.0" standalone="no"?>
<!DOCTYPE svg PUBLIC "-//W3C//DTD SVG 1.1//EN" "http://www.w3.org/Graphics/SVG/1.1/DTD/svg11.dtd">
<svg xmlns="http://www.w3.org/2000/svg">
<defs >
<font id="Overlock" horiz-adv-x="418" ><font-face
    font-family="Overlock"
    units-per-em="1000"
    panose-1="2 0 8 6 4 0 0 2 0 4"
    ascent="966"
    descent="-254"
    alphabetic="0" />
<glyph unicode=" " glyph-name="space" horiz-adv-x="215" />
<glyph unicode="!" glyph-name="exclam" horiz-adv-x="308" d="M160 132Q190 132 211 112T232 61Q232 31 210 11T158 -10Q129 -10 108 10T87 61T109 111T160 132ZM216 639Q215 601 207 521T199 385Q199 273 214 233Q185 220 162 220Q106 220 105 270Q104 301 104
377T102 499T97 601T85 686Q129 694 154 694Q216 694 216 639Z" />
<glyph unicode="&quot;" glyph-name="quotedbl" horiz-adv-x="395" d="M240 695Q240 714 258 725T304 736Q328 736 344 725T361 688Q361 644 342 516Q332 471 288 471Q272 471 251 477Q254 495 254 519Q254 581 247 633T240 695ZM42 695Q42 714 60 725T106 736Q130
736 146 725T163 688Q163 644 144 516Q134 471 90 471Q74 471 53 477Q56 495 56 519Q56 581 49 633T42 695Z" />
<glyph unicode="#" glyph-name="numbersign" horiz-adv-x="535" d="M229 457H344Q344 461 351 529T360 619Q373 623 389 623Q430 623 430 585Q430 568 409 459Q468 460 539 465Q542 452 542 434Q542 383 492 383Q461 383 396 388L379 271Q453 274 512 279Q514
261 514 244Q514 197 463 197Q424 197 369 202Q361 106 361 100Q361 64 364 39Q343 28 326 28Q291 28 291 67Q291 99 309 205H190Q181 106 181 104Q181 70 184 39Q164 28 146 28Q111 28 111 67Q111 87 129 203Q68 200 4 181Q-3 206 -3 225Q-3 272 76 272H141L157
389Q91 385 31 367Q23 395 23 412Q23 458 101 458L165 457Q180 617 180 619Q195 623 211 623Q250 623 250 585Q250 558 229 457ZM199 270H320L336 391H218L199 270Z" />
<glyph unicode="$" glyph-name="dollar" horiz-adv-x="535" d="M235 -51V-10Q155 -8 95 21T35 91Q35 132 93 159Q110 125 150 101T235 70V278Q195 290 168 302T111 338T67 398T52 486Q52 563 102 610T234 669Q232 724 230 736Q245 739 253 739Q290 739 290 712V673Q357
671 415 645T473 574Q473 522 405 508Q392 540 360 563T290 594V389Q327 379 347 372T399 350T446 318T475 272T488 206Q488 105 433 54T291 -7Q293 -60 295 -76L275 -78Q235 -78 235 -51ZM396 176Q396 211 369 229T290 262V71Q337 77 366 103T396 176ZM144 497Q144
462 167 441T235 406V594Q194 588 169 564T144 497Z" />
<glyph unicode="%" glyph-name="percent" horiz-adv-x="819" d="M622 -10Q550 -10 508 36T466 160T508 283T622 329Q693 329 735 284T777 160T735 36T622 -10ZM680 153Q680 197 665 231T622 266T578 239T561 170Q561 125 576 90T621 54Q648 54 664 82T680 153ZM237
-33Q165 -22 165 7Q165 19 173 31L467 497Q533 601 586 696Q656 691 656 654Q656 643 649 632L356 166Q289 60 237 -33ZM198 326Q126 326 84 372T42 496T84 619T198 665Q269 665 311 620T353 496T311 372T198 326ZM256 489Q256 533 241 567T198 602T154 575T137
506Q137 461 152 426T197 390Q224 390 240 418T256 489Z" />
<glyph unicode="&amp;" glyph-name="ampersand" horiz-adv-x="631" d="M320 524Q320 558 303 582T251 607Q175 607 175 527Q175 484 228 397Q273 427 296 456T320 524ZM194 285Q148 237 148 183Q148 128 184 95T280 62Q324 62 359 85Q283 162 194 285ZM523 239Q523
167 491 111Q553 71 603 71Q605 59 605 46Q605 22 584 6T516 -10Q476 -10 417 33Q350 -10 266 -10Q175 -10 109 37T42 169Q42 229 71 270T151 347Q128 381 103 423Q79 463 79 518Q79 589 130 631T262 673Q335 673 376 636T417 546Q417 509 404 478T364 419T318
378T265 341Q332 244 417 168Q424 198 424 224Q424 267 415 286Q439 298 462 298Q523 298 523 239Z" />
<glyph unicode="&apos;" glyph-name="quotesingle" horiz-adv-x="261" d="M50 695Q50 714 68 725T114 736Q138 736 154 725T171 688Q171 644 152 516Q142 471 98 471Q82 471 61 477Q64 495 64 519Q64 581 57 633T50 695Z" />
<glyph unicode="(" glyph-name="parenleft" horiz-adv-x="352" d="M76 269Q76 352 98 439T150 588T213 691T266 731Q294 731 315 701Q254 633 217 511T180 269Q180 137 218 19T315 -167Q294 -197 266 -197Q245 -197 214 -158T151 -58T98 93T76 269Z" />
<glyph unicode=")" glyph-name="parenright" horiz-adv-x="341" d="M264 265Q264 182 242 94T190 -57T127 -162T74 -203Q46 -203 25 -173Q86 -105 123 19T160 265Q160 397 122 515T25 701Q46 731 74 731Q95 731 126 692T189 592T242 441T264 265Z" />
<glyph unicode="*" glyph-name="asterisk" horiz-adv-x="421" d="M265 697Q265 673 251 617Q316 663 339 686Q383 648 383 620Q383 577 260 546Q301 508 369 457Q358 437 339 423T298 409Q274 409 255 432T209 507Q204 498 180 455T144 392Q115 402 93 419T70
456Q70 484 159 549Q61 584 30 593Q34 620 51 642T93 664Q109 664 133 651T174 620Q161 701 154 734Q185 743 203 743Q265 743 265 697Z" />
<glyph unicode="+" glyph-name="plus" horiz-adv-x="535" d="M261 481Q286 481 302 469T319 438Q319 418 316 362T312 289Q416 289 492 299Q498 282 498 260Q498 240 484 226T446 211Q427 211 376 214T311 218Q311 116 320 28Q291 22 273 22Q250 22 233 33T215
66Q215 90 218 139T222 219Q129 218 41 210Q37 230 37 248Q37 267 49 282T89 297Q111 297 152 294T223 290Q223 396 214 474Q235 481 261 481Z" />
<glyph unicode="," glyph-name="comma" horiz-adv-x="243" d="M103 -29Q103 16 54 25Q44 44 44 63Q44 87 65 103T116 120Q148 120 171 96T194 22Q194 -44 153 -99T54 -154Q23 -154 23 -116Q23 -106 24 -101H29Q61 -101 82 -79T103 -29Z" />
<glyph unicode="-" glyph-name="hyphen" horiz-adv-x="260" d="M255 269Q255 248 241 236T203 223Q192 223 167 225T125 228Q81 228 30 217Q25 241 25 257Q25 276 37 289T77 303Q84 303 112 301T160 299Q208 299 248 309Q255 288 255 269Z" />
<glyph unicode="." glyph-name="period" horiz-adv-x="238" d="M114 -10Q84 -10 63 10T42 61Q42 91 64 111T116 132Q145 132 166 112T187 61T165 11T114 -10Z" />
<glyph unicode="/" glyph-name="slash" horiz-adv-x="263" d="M109 -115Q92 -118 76 -118Q36 -118 36 -90Q36 -88 38 -77T46 -25T62 73T90 247T131 506Q150 621 162 737Q177 742 193 742Q234 742 234 714Q234 710 218 611Q181 380 140 116Q114 -45 109 -115Z" />
<glyph unicode="0" glyph-name="zero" horiz-adv-x="535" d="M385 -10T272 -10T92 82T25 331Q25 488 92 580T272 673T452 581T520 331Q520 176 453 83ZM412 315Q412 384 398 446T350 554T273 599Q212 599 173 530T133 360Q133 286 147 221T194 110T272 64Q335
64 373 136T412 315Z" />
<glyph unicode="1" glyph-name="one" horiz-adv-x="535" d="M344 68Q415 68 444 72Q448 58 448 45Q448 -2 409 -2Q402 -2 343 -1T239 0Q153 0 122 -1Q117 17 117 29Q117 71 175 71H239Q239 89 240 177T241 338Q241 479 238 590Q132 578 117 575Q114 590 114 602Q114
649 153 656Q261 673 301 673Q318 673 331 662T345 626Q345 624 341 505T337 295Q337 129 344 68Z" />
<glyph unicode="2" glyph-name="two" horiz-adv-x="535" d="M104 512Q81 515 68 528T55 561Q55 600 121 636T263 673Q345 673 404 625T464 490Q464 435 445 386T381 284T290 188T160 77Q179 76 238 76Q340 76 387 81T482 104Q496 74 496 53Q496 22 471 12Q432
-2 305 -2Q150 -2 87 0Q39 0 39 47Q39 57 40 61Q228 229 294 312T360 471Q360 529 327 563T245 597Q206 597 168 574T104 512Z" />
<glyph unicode="3" glyph-name="three" horiz-adv-x="535" d="M327 364Q406 334 434 292T462 190Q462 109 396 50T214 -10Q143 -10 99 7T55 55Q55 75 68 88T102 104Q133 64 211 64Q279 64 316 102T354 191Q354 244 309 282T182 320Q171 320 166 321T155 326T147
339T145 363Q145 373 146 380Q239 380 286 416T333 501Q333 540 307 569T238 598Q205 598 173 578T121 520Q98 520 84 534T69 569Q69 603 127 638T257 673Q344 673 392 628T441 519Q441 471 413 429T327 364Z" />
<glyph unicode="4" glyph-name="four" horiz-adv-x="535" d="M329 546Q233 429 139 281Q183 278 230 278Q280 278 327 281Q327 388 329 546ZM324 661Q343 673 394 673Q408 673 432 671Q432 668 430 628T426 518T423 371V284Q497 290 521 301Q529 279 529 255Q529
220 509 212Q485 202 422 201Q422 59 443 -2Q421 -10 389 -10Q352 -10 339 3T325 47Q325 86 327 200Q116 200 60 207Q37 210 37 253Q37 268 39 284Q82 358 181 490T324 661Z" />
<glyph unicode="5" glyph-name="five" horiz-adv-x="535" d="M374 574Q296 574 191 580L177 430Q214 436 247 436Q355 436 411 379T467 228Q467 126 401 58T218 -10Q141 -10 99 8T57 55Q57 95 104 104Q135 64 209 64Q280 64 319 109T359 214Q359 276 313 320T187
365Q146 365 108 360Q98 370 98 408Q98 423 111 664Q142 662 322 662Q397 662 440 670Q450 652 450 628Q450 574 374 574Z" />
<glyph unicode="6" glyph-name="six" horiz-adv-x="535" d="M276 326Q217 326 162 267Q163 225 168 193T186 129T222 82T280 65Q329 65 356 103T384 194Q384 254 354 290T276 326ZM272 -10Q211 -10 167 14T99 80T65 170T54 275Q54 376 91 465T208 613T391 673Q435
673 435 629Q435 620 430 593Q410 597 387 597Q290 597 230 520T163 332Q224 401 313 401Q387 401 439 349T492 210T432 57T272 -10Z" />
<glyph unicode="7" glyph-name="seven" horiz-adv-x="535" d="M59 32Q140 117 235 286T379 578Q235 574 121 574Q45 574 45 628Q45 645 55 670Q105 662 170 662Q429 662 482 664Q490 648 490 627Q490 607 484 589Q466 536 377 362T217 59Q179 -10 136 -10Q96 -10 59 32Z" />
<glyph unicode="8" glyph-name="eight" horiz-adv-x="535" d="M364 525Q364 557 336 578T269 599T203 578T175 525Q175 482 202 453T282 398Q364 437 364 525ZM216 64T269 64T353 97T385 176Q385 229 353 261T246 327Q195 296 174 264T152 176Q152 131 184 98ZM377
-11T270 -11T105 44T47 177Q47 294 181 359Q73 427 73 525Q73 591 130 632T269 674T408 633T466 525Q466 426 356 375Q493 304 493 177Q493 100 435 45Z" />
<glyph unicode="9" glyph-name="nine" horiz-adv-x="535" d="M262 337Q321 337 376 396Q375 438 370 470T352 534T316 581T258 598Q209 598 182 560T154 469Q154 409 184 373T262 337ZM266 673Q327 673 371 649T439 583T473 493T484 388Q484 287 447 198T330 50T147
-10Q103 -10 103 34Q103 43 108 70Q128 66 151 66Q248 66 308 143T375 331Q314 262 225 262Q151 262 99 314T46 453T106 606T266 673Z" />
<glyph unicode=":" glyph-name="colon" horiz-adv-x="238" d="M115 332Q84 332 63 353T42 408Q42 440 63 462T115 485T166 463T187 408Q187 375 166 354T115 332ZM115 -10Q84 -10 63 11T42 66Q42 98 63 120T115 143T166 121T187 66Q187 33 166 12T115 -10Z" />
<glyph unicode=";" glyph-name="semicolon" horiz-adv-x="259" d="M103 -29Q103 16 54 25Q44 44 44 63Q44 87 65 103T116 120Q148 120 171 96T194 22Q194 -44 153 -99T54 -154Q23 -154 23 -116Q23 -106 24 -101H29Q61 -101 82 -79T103 -29ZM121 332Q90 332 69
353T48 408Q48 440 69 462T121 485T172 463T193 408Q193 375 172 354T121 332Z" />
<glyph unicode="&lt;" glyph-name="less" horiz-adv-x="535" d="M415 436L204 253L415 59Q407 42 389 30T351 18Q328 18 315 30L95 253L316 464Q329 477 351 477Q372 477 390 465T415 436Z" />
<glyph unicode="=" glyph-name="equal" horiz-adv-x="535" d="M476 183T476 162T462 127T424 113Q394 113 344 117T271 121Q172 121 64 111Q59 135 59 150Q59 169 71 184T111 199Q122 199 177 196T269 192Q397 192 470 201Q476 183 476 162ZM476 379T476 358T462
323T424 309Q394 309 344 313T271 317Q172 317 64 307Q59 331 59 346Q59 365 71 380T111 395Q122 395 177 392T269 388Q397 388 470 397Q476 379 476 358Z" />
<glyph unicode="&gt;" glyph-name="greater" horiz-adv-x="535" d="M110 59L321 253L110 436Q118 452 136 464T175 477T211 464L431 253L211 30Q198 18 175 18Q155 18 137 29T110 59Z" />
<glyph unicode="?" glyph-name="question" horiz-adv-x="399" d="M192 -10Q162 -10 141 10T120 61Q120 91 142 111T194 132Q223 132 244 112T265 61T243 11T192 -10ZM127 275Q127 302 140 329T165 370T204 413Q228 438 240 453T264 494T276 548Q276 581 258 597T210
614Q177 614 148 593T109 538Q34 550 34 591Q34 633 82 658T196 684Q276 684 329 649T382 547Q382 509 367 476T336 425T292 382Q272 364 262 353T242 322T231 281Q231 259 242 226Q214 209 188 209Q127 209 127 275Z" />
<glyph unicode="@" glyph-name="at" horiz-adv-x="855" d="M354 54Q304 54 272 91T239 196Q239 298 295 370T433 443Q526 443 593 397Q556 258 556 184Q556 132 588 132Q621 132 651 181T681 312Q681 411 629 465T469 520Q381 520 311 468T206 341T171 186Q171
92 228 30T398 -33Q501 -33 531 30Q589 11 589 -21Q589 -60 532 -84T390 -109Q236 -109 156 -26T76 180Q76 253 104 325T184 456T315 553T489 590Q621 590 699 519T778 337Q778 228 710 149T570 69Q503 69 483 146Q430 54 354 54ZM461 200Q465 223 471 276T479
344Q453 369 423 369Q385 369 361 329T336 221Q336 181 348 156T381 130Q419 130 461 200Z" />
<glyph unicode="A" glyph-name="A" horiz-adv-x="573" d="M374 274Q359 315 345 359T314 455T292 525Q244 374 204 275Q268 273 302 273Q354 273 374 274ZM281 199Q255 199 173 201Q108 34 93 -21Q4 -11 4 20Q4 34 46 133T150 387T246 660Q266 663 298 663Q324
663 338 653T364 610Q441 370 476 280Q551 85 589 10Q551 -10 525 -10Q483 -10 467 17Q455 48 434 108T400 201Q302 199 281 199Z" />
<glyph unicode="B" glyph-name="B" horiz-adv-x="550" d="M230 596Q211 596 175 592Q179 516 179 389Q205 387 224 387Q374 387 374 490Q374 596 230 596ZM270 67Q324 67 361 100T398 192Q398 257 358 291T257 325Q203 325 178 320Q178 277 174 202T165 103Q181
88 211 78T270 67ZM59 53Q75 167 75 387Q75 573 62 661Q139 673 229 673Q343 673 415 633T488 501Q488 401 401 362Q512 315 512 191Q512 96 448 43T290 -10Q139 -10 59 53Z" />
<glyph unicode="C" glyph-name="C" horiz-adv-x="609" d="M517 155Q539 144 555 127T571 90Q571 49 513 20T365 -10Q219 -10 131 84T42 332Q42 492 130 582T370 673Q451 673 506 642T561 564Q561 540 542 522T482 498Q467 545 429 569T348 594Q263 594 210 525T156
351Q156 230 210 150T364 69Q409 69 451 90T517 155Z" />
<glyph unicode="D" glyph-name="D" horiz-adv-x="638" d="M56 53Q70 144 72 389Q72 564 59 661Q122 673 220 673Q301 673 365 656T483 602T566 496T596 333Q596 183 513 87T276 -10Q134 -10 56 53ZM172 592Q176 527 176 439Q176 232 162 105Q210 70 281 70Q337
70 378 92T440 152T472 230T482 315Q482 455 417 525T229 596Q210 596 172 592Z" />
<glyph unicode="E" glyph-name="E" horiz-adv-x="491" d="M171 583Q175 544 175 396H250Q330 396 364 400Q368 391 368 368Q368 340 358 330T326 318Q301 317 259 317H175Q175 118 182 78Q224 76 251 76Q411 76 458 98Q466 75 466 45Q466 22 457 13Q438 -2 286
-2Q150 -2 120 0Q89 1 79 13T68 57Q68 76 69 139T70 236V430Q70 570 56 657Q165 666 279 666Q427 666 446 651Q455 642 455 619Q455 589 447 565Q392 586 273 586Q225 586 171 583Z" />
<glyph unicode="F" glyph-name="F" horiz-adv-x="455" d="M175 306V196Q175 63 194 0Q166 -10 132 -10Q95 -10 82 3T68 47Q68 63 69 126T70 224V432Q70 570 56 657Q165 666 279 666Q427 666 446 651Q455 642 455 619Q455 589 447 565Q392 586 273 586Q225 586
171 583Q175 552 175 449V385H250Q330 385 364 389Q368 380 368 357Q368 329 358 319T326 307Q301 306 259 306H175Z" />
<glyph unicode="G" glyph-name="G" horiz-adv-x="621" d="M571 85Q571 49 512 20T365 -10Q219 -10 131 84T42 332Q42 492 130 582T370 673Q451 673 506 642T561 564Q561 511 482 498Q465 546 428 570T349 594Q264 594 210 525T156 351Q156 230 209 150T356 69Q425
69 469 101Q467 229 462 311Q485 314 511 314Q578 314 578 277L574 209Q571 141 571 85Z" />
<glyph unicode="H" glyph-name="H" horiz-adv-x="628" d="M63 231V431Q63 570 56 661Q86 666 109 666Q176 666 176 628Q176 622 174 586T170 496T168 397Q222 396 310 396T448 397V431Q448 570 441 661Q471 666 494 666Q561 666 561 628Q561 622 559 588T555 502T553
404V203Q553 70 572 7Q544 -3 510 -3Q473 -3 460 10T446 54Q446 70 447 133T448 231V323Q397 322 307 322Q219 322 168 323V203Q168 70 187 7Q159 -3 125 -3Q88 -3 75 10T61 54Q61 70 62 133T63 231Z" />
<glyph unicode="I" glyph-name="I" horiz-adv-x="243" d="M63 231V431Q63 570 56 661Q86 666 109 666Q176 666 176 628Q176 622 174 588T170 502T168 404V203Q168 70 187 7Q159 -3 125 -3Q88 -3 75 10T61 54Q61 70 62 133T63 231Z" />
<glyph unicode="J" glyph-name="J" horiz-adv-x="243" d="M12 -119Q-32 -119 -32 -41Q-1 -34 18 -25T49 -5T66 26T73 65T74 118V431Q74 570 67 661Q97 666 122 666Q187 666 187 628Q187 623 185 591T181 512T179 421V111Q179 47 161 -1T115 -73T61 -108T12 -119Z" />
<glyph unicode="K" glyph-name="K" horiz-adv-x="525" d="M63 231V431Q63 570 56 661Q86 666 109 666Q176 666 176 628Q176 623 174 593T170 509T168 397Q237 450 313 529T418 665Q447 656 462 645T477 613Q477 598 462 575T408 513T342 450T254 370Q267 347 291
305T327 240T360 185T394 136T425 101T457 75T489 67Q504 67 516 70Q525 52 525 38Q525 15 505 3T449 -10Q402 -10 359 30T287 118T190 292Q188 296 187 298T184 303T180 310L168 301V203Q168 70 187 7Q159 -3 125 -3Q88 -3 75 10T61 54Q61 70 62 133T63 231Z"
/>
<glyph unicode="L" glyph-name="L" horiz-adv-x="440" d="M63 224V431Q63 572 56 663Q79 666 111 666Q176 666 176 628Q176 622 174 588T170 502T168 404V318Q168 120 175 78Q215 76 239 76Q386 76 429 99Q440 77 440 50Q440 17 415 8T330 -2H243Q154 -2 110 0Q82
1 72 14T61 57Q61 73 62 131T63 224Z" />
<glyph unicode="M" glyph-name="M" horiz-adv-x="792" d="M717 436V203Q717 68 736 5Q722 -3 682 -3Q641 -3 627 10T613 54V504Q547 340 445 2Q429 -2 408 -2Q356 -2 344 24Q314 90 255 260T166 506V203Q166 68 185 5Q158 -3 133 -3Q98 -3 86 10T73 54Q73 70 74
133T75 231V483Q75 595 56 659Q96 667 127 667Q184 667 214 619Q252 558 288 467T344 312T399 131Q483 447 585 621Q611 667 670 667Q709 667 735 659Q717 599 717 436Z" />
<glyph unicode="N" glyph-name="N" horiz-adv-x="618" d="M560 1Q540 -3 516 -3Q466 -3 449 24Q402 100 306 269T160 517L165 256Q168 54 185 5Q163 -3 137 -3Q100 -3 87 10T73 54Q73 70 74 133T75 231V431Q75 598 56 659Q81 667 117 667Q163 667 189 638Q235
587 327 436T470 178Q462 292 462 420Q462 569 455 663Q478 666 496 666Q562 666 562 628Q562 622 560 588T556 502T553 404V233Q553 92 560 1Z" />
<glyph unicode="O" glyph-name="O" horiz-adv-x="716" d="M357 -10Q213 -10 128 83T42 331Q42 488 127 580T357 673Q503 673 589 581T675 331Q675 176 589 83T357 -10ZM561 314Q561 386 543 446T477 550T359 594Q266 594 211 529T156 360Q156 285 174 222T240
114T358 69Q455 69 508 137T561 314Z" />
<glyph unicode="P" glyph-name="P" horiz-adv-x="510" d="M258 312Q315 312 347 348T379 447Q379 532 343 564T231 596Q210 596 170 592Q174 538 174 406V329Q207 312 258 312ZM69 231V431Q69 569 56 661Q133 673 212 673Q493 673 493 452Q493 345 433 289T290
233Q223 233 174 265V196Q174 66 193 5Q169 -3 132 -3Q93 -3 80 10T67 54Q67 70 68 133T69 231Z" />
<glyph unicode="Q" glyph-name="Q" horiz-adv-x="712" d="M559 314Q559 386 541 446T475 550T357 594Q264 594 209 529T154 360Q154 285 172 222T238 114T356 69Q453 69 506 137T559 314ZM311 -9Q186 5 114 95T42 331Q42 489 126 581T356 673T586 581T671 331Q671
185 597 94T395 -8Q406 -48 436 -72T505 -96Q535 -96 564 -79T613 -40Q650 -70 650 -111Q650 -147 613 -165T515 -184Q482 -184 452 -175T392 -147T342 -93T311 -9Z" />
<glyph unicode="R" glyph-name="R" horiz-adv-x="539" d="M450 95Q473 67 503 67Q514 67 526 70Q535 49 535 35Q535 12 511 1T451 -10Q393 -10 348 47Q317 86 283 154T230 274Q207 283 207 306Q207 325 215 345Q231 341 252 341Q306 341 342 373T379 470Q379 541
344 568T235 596Q208 596 170 592Q174 536 174 393V198Q174 66 193 5Q171 -3 131 -3Q94 -3 81 10T67 54Q67 70 68 133T69 231V431Q69 569 56 661Q133 673 213 673Q494 673 494 470Q494 393 453 343T343 274Q408 135 450 95Z" />
<glyph unicode="S" glyph-name="S" horiz-adv-x="529" d="M408 508Q393 546 352 571T267 596Q216 596 182 571T147 497Q147 467 166 447T215 415T282 393T355 370T422 339T472 287T491 206Q491 147 471 104T416 36T339 1T250 -10Q167 -10 103 20T38 91T96 159Q116
121 165 95T264 69Q322 69 360 95T399 176Q399 208 374 230T310 263T227 290T144 326T81 387T55 486Q55 575 122 624T288 673Q330 673 372 663T445 629T476 574Q476 522 408 508Z" />
<glyph unicode="T" glyph-name="T" horiz-adv-x="485" d="M192 231V431Q192 487 190 581Q48 581 3 577Q0 589 0 613Q0 640 10 649T44 660Q69 661 161 661H279Q447 661 482 664Q485 652 485 629Q485 602 475 593T441 582Q413 581 302 581Q297 473 297 404V203Q297
70 316 7Q288 -3 254 -3Q217 -3 204 10T190 54Q190 70 191 133T192 231Z" />
<glyph unicode="U" glyph-name="U" horiz-adv-x="643" d="M61 658Q87 666 120 666Q158 666 175 655T193 615Q193 574 186 432T178 210Q178 142 213 110T295 77Q338 77 385 99T462 152Q462 159 462 183T462 270T463 431Q463 571 456 662Q487 666 511 666Q576 666
576 628Q576 626 574 591T570 482T568 309Q568 154 571 102T587 5Q565 -3 525 -3Q489 -3 475 9T461 56V75Q422 37 368 14T267 -10Q176 -10 123 34T69 192Q69 251 73 352T78 501Q78 596 61 658Z" />
<glyph unicode="V" glyph-name="V" horiz-adv-x="578" d="M457 666Q484 673 512 673Q544 673 557 662T570 624Q570 514 500 330T357 52Q331 19 311 8T261 -3Q235 -3 222 0Q190 161 114 368T-17 628Q36 667 72 667T127 630Q167 548 217 397T300 120Q366 216 413
363T461 617Q461 652 457 666Z" />
<glyph unicode="W" glyph-name="W" horiz-adv-x="948" d="M818 666Q845 673 873 673Q905 673 918 662T931 624Q931 514 865 330T730 52Q706 19 686 8T639 -3Q615 -3 603 0Q569 177 491 391Q460 292 418 199T336 52Q312 19 292 8T245 -3Q221 -3 209 0Q179 161 107
368T-17 628Q36 667 72 667Q111 667 127 630Q164 544 209 395T283 120Q343 216 385 363T428 617Q428 652 424 666Q451 673 479 673Q511 673 524 662T537 624Q537 615 535 595Q613 396 677 120Q737 216 779 363T822 617Q822 652 818 666Z" />
<glyph unicode="X" glyph-name="X" horiz-adv-x="605" d="M21 44Q21 112 250 343Q238 360 198 417T138 503T86 568T33 624Q68 656 85 664T122 673Q156 673 185 637Q205 612 246 545T317 423Q358 478 395 547T446 672Q552 666 552 617Q552 578 492 499T359 350Q415
267 448 219T526 114T599 38Q556 -10 513 -10Q471 -10 444 29Q359 143 292 270Q156 96 126 -10Q21 -6 21 44Z" />
<glyph unicode="Y" glyph-name="Y" horiz-adv-x="507" d="M503 616Q503 581 439 483T310 307V203Q310 70 329 7Q301 -3 267 -3Q230 -3 217 10T203 54Q203 70 204 133T205 231V303Q64 565 -9 614Q7 635 32 651T80 667Q115 667 139 633Q213 524 277 386Q323 457
363 547T408 672Q503 668 503 616Z" />
<glyph unicode="Z" glyph-name="Z" horiz-adv-x="564" d="M531 648Q547 630 547 608Q547 584 530 562L135 68Q150 67 192 67Q387 67 514 106Q526 70 526 50Q526 31 516 21T492 7T452 0Q389 -6 285 -6Q136 -6 40 6Q22 30 22 56Q22 88 47 119L414 588Q375 591 318
591Q173 591 61 564Q51 592 51 614Q51 647 80 657Q123 667 210 667Q391 667 531 648Z" />
<glyph unicode="[" glyph-name="bracketleft" horiz-adv-x="380" d="M225 648V-118Q254 -117 286 -117Q319 -117 332 -127T346 -159Q346 -170 339 -190H127V720H338Q346 704 346 689Q346 665 332 656T286 647Q247 647 225 648Z" />
<glyph unicode="\" glyph-name="backslash" horiz-adv-x="263" d="M155 -115Q150 -45 124 116Q83 380 46 611Q30 710 30 714Q30 742 71 742Q87 742 102 737Q114 621 133 506Q155 365 174 248T202 73T217 -24T226 -76T228 -90Q228 -118 188 -118Q172 -118 155 -115Z" />
<glyph unicode="]" glyph-name="bracketright" horiz-adv-x="354" d="M146 -118V648Q124 647 85 647Q54 647 40 656T25 689Q25 704 33 720H244V-190H32Q25 -170 25 -159Q25 -138 38 -128T85 -117Q117 -117 146 -118Z" />
<glyph unicode="^" glyph-name="asciicircum" horiz-adv-x="488" d="M424 408Q386 408 244 558Q193 504 140 456T65 408T21 431Q44 470 119 553T244 685Q291 639 367 555T467 431Q442 408 424 408Z" />
<glyph unicode="_" glyph-name="underscore" horiz-adv-x="535" d="M535 -110Q535 -128 525 -140T499 -152Q484 -152 430 -148T348 -144H205Q91 -144 3 -152Q0 -137 0 -122Q0 -106 9 -93T36 -80Q39 -80 99 -83T203 -87H345Q472 -87 532 -80Q535 -89 535 -110Z" />
<glyph unicode="`" glyph-name="grave" horiz-adv-x="228" d="M9 722Q49 679 93 646T156 598T176 567Q176 544 144 523Q113 546 62 573T-16 620T-43 661Q-43 696 9 722Z" />
<glyph unicode="a" glyph-name="a" horiz-adv-x="478" d="M303 143Q303 189 305 214Q275 210 262 208T225 202T192 193T169 181T152 164T147 139Q147 99 167 80T218 61Q269 61 305 99Q303 112 303 143ZM307 275Q307 309 306 327T298 368T276 401T234 412Q201 412
172 391T129 331Q40 332 40 384Q40 427 100 456T238 485Q330 485 372 447T415 311Q415 308 414 264T413 178Q413 64 432 7Q403 -4 375 -4Q319 -4 308 42Q248 -10 173 -10Q115 -10 77 26T38 132Q38 188 62 215T126 255Q186 274 307 275Z" />
<glyph unicode="b" glyph-name="b" horiz-adv-x="522" d="M380 248Q380 331 351 371T277 412Q219 412 169 362Q170 302 170 229Q170 161 167 112Q215 64 273 64Q327 64 353 118T380 248ZM313 485Q391 485 440 427T489 251Q489 141 431 66T264 -10Q145 -10 60 60Q67
119 67 273Q67 362 62 531T51 739Q70 743 104 743Q174 743 174 689Q174 677 171 602T168 433Q232 485 313 485Z" />
<glyph unicode="c" glyph-name="c" horiz-adv-x="464" d="M283 62Q310 62 339 76T382 116Q431 90 431 60Q431 26 384 8T279 -10Q236 -10 195 4T117 47T60 123T38 233Q38 357 110 421T274 485Q330 485 380 459T431 385Q431 364 410 351T353 334Q345 370 317 390T260
410Q212 410 180 364T148 244Q148 149 185 106T283 62Z" />
<glyph unicode="d" glyph-name="d" horiz-adv-x="529" d="M266 64Q313 64 357 108Q355 292 355 391Q313 412 271 412Q214 412 181 368T147 253Q147 169 181 117T266 64ZM38 238Q38 349 99 417T249 485Q307 485 357 457Q357 636 345 739Q373 743 399 743Q432 743
450 729T468 689Q468 664 464 507T459 224Q459 58 478 7Q453 -3 423 -3Q367 -3 361 39Q303 -10 238 -10Q157 -10 98 60T38 238Z" />
<glyph unicode="e" glyph-name="e" horiz-adv-x="485" d="M223 197Q196 197 150 199Q160 128 195 95T283 62Q310 62 339 76T382 116Q431 90 431 60Q431 26 384 8T279 -10Q185 -10 112 52T38 231Q38 354 108 419T275 485Q352 485 399 443T447 343Q447 296 430 266T378
221T309 202T223 197ZM266 412Q219 412 186 376T147 262Q211 262 241 265Q338 277 338 341Q338 370 318 391T266 412Z" />
<glyph unicode="f" glyph-name="f" horiz-adv-x="338" d="M188 508V474Q272 474 316 479Q321 468 321 447Q321 422 309 413T271 402Q242 401 188 401V203Q188 71 207 7Q185 -3 156 -3Q114 -3 99 9T83 51Q83 105 84 217T85 400Q71 400 8 394Q4 410 4 431T15 460T46
472Q64 474 85 474Q87 599 128 657T273 716Q313 716 340 703T367 665Q367 638 330 608Q294 641 255 641Q227 641 209 619Q188 590 188 508Z" />
<glyph unicode="g" glyph-name="g" horiz-adv-x="542" d="M254 117Q228 117 201 122Q167 86 167 61Q167 41 227 41H341Q494 41 494 -73Q494 -152 417 -201T231 -250Q131 -250 81 -216T30 -131Q30 -74 102 -25Q66 -4 66 24Q66 43 85 76T136 137Q89 157 64 200T39
301Q39 380 97 433T244 486Q322 486 374 450Q416 503 467 503Q525 503 525 451Q525 436 519 417Q497 422 482 422Q451 422 418 408Q448 359 448 301Q448 217 391 167T254 117ZM339 293Q339 344 313 378T243 413Q147 413 147 309Q147 258 172 225T243 191Q295 191
317 216T339 293ZM335 -42H237Q185 -42 161 -38Q129 -82 129 -113Q129 -165 238 -165Q319 -165 361 -142T403 -86Q403 -61 386 -52T335 -42Z" />
<glyph unicode="h" glyph-name="h" horiz-adv-x="529" d="M351 304Q351 359 329 386T272 413Q217 413 162 360Q163 323 163 199T170 2Q143 -2 120 -2Q55 -2 55 38Q55 44 56 86T59 214T60 414Q60 650 51 738Q79 743 103 743Q174 743 174 688Q174 684 172 653T166
563T163 432Q232 485 318 485Q379 485 417 449T455 333Q455 327 455 303T453 240T452 157Q452 75 478 9Q447 -4 422 -4Q381 -4 364 13T347 77Q347 115 349 206T351 304Z" />
<glyph unicode="i" glyph-name="i" horiz-adv-x="249" d="M116 478Q188 478 188 425Q188 419 185 385T180 299T177 202Q177 68 203 7Q178 -4 146 -4Q102 -4 87 14T71 75Q71 91 72 152T73 247Q73 392 64 474Q88 478 116 478ZM121 520Q91 520 70 540T49 591Q49 621
71 641T123 662Q152 662 173 642T194 591T172 541T121 520Z" />
<glyph unicode="j" glyph-name="j" horiz-adv-x="255" d="M131 520Q101 520 80 540T59 591Q59 621 81 641T133 662Q162 662 183 642T204 591T182 541T131 520ZM126 479Q197 479 197 426Q197 401 192 329T186 191Q186 180 188 83T190 -70Q190 -160 141 -206T-1
-252Q-51 -252 -88 -236T-125 -195Q-125 -165 -83 -133Q-44 -178 10 -178Q86 -178 86 -64Q86 -28 85 70T83 232Q83 402 74 474Q100 479 126 479Z" />
<glyph unicode="k" glyph-name="k" horiz-adv-x="493" d="M267 412Q221 412 162 367Q163 329 163 202T170 2Q143 -2 120 -2Q55 -2 55 38Q55 45 56 87T59 215T60 414Q60 650 51 738Q79 743 103 743Q174 743 174 688Q174 679 172 646T166 557T163 439Q229 485 297
485Q367 485 403 448T440 355Q440 298 403 252T299 195Q336 131 371 96Q400 68 420 68T459 74Q470 49 470 36Q470 13 446 2T385 -10Q344 -10 307 32Q254 93 204 206Q187 213 187 233Q187 246 194 265Q215 259 239 259Q283 259 308 285T334 345Q334 373 317 392T267
412Z" />
<glyph unicode="l" glyph-name="l" horiz-adv-x="241" d="M103 743Q174 743 174 688Q174 682 171 642T166 525T163 356Q163 164 167 109T190 9Q161 -4 131 -4Q88 -4 73 14T58 77Q60 265 60 353Q60 656 51 738Q79 743 103 743Z" />
<glyph unicode="m" glyph-name="m" horiz-adv-x="828" d="M51 467L55 470Q82 478 103 478Q132 478 148 469T168 429Q239 485 328 485Q415 485 448 421Q518 485 616 485Q677 485 715 449T754 333Q754 330 753 260T751 157Q751 75 777 9Q746 -4 720 -4Q679 -4 662
13T645 77Q645 112 647 196T649 304Q649 359 628 386T571 413Q517 413 460 361Q462 227 462 157Q462 67 468 2Q441 -2 419 -2Q353 -2 353 38Q353 55 357 137T361 304Q361 359 339 386T282 413Q227 413 172 361Q174 227 174 166Q174 70 180 2Q153 -2 130 -2Q65 -2
65 38Q65 61 67 127T70 248Q70 415 51 467Z" />
<glyph unicode="n" glyph-name="n" horiz-adv-x="532" d="M168 429Q239 485 328 485Q389 485 427 449T465 333Q465 322 464 255T462 157Q462 75 488 9Q457 -4 432 -4Q391 -4 374 13T357 77Q357 129 359 202T361 304Q361 359 339 386T282 413Q229 413 172 361Q174
227 174 166Q174 70 180 2Q153 -2 130 -2Q65 -2 65 38Q65 67 67 132T70 249Q70 415 51 467Q75 478 103 478Q132 478 148 469T168 429Z" />
<glyph unicode="o" glyph-name="o" horiz-adv-x="540" d="M393 225Q393 305 360 358T269 412Q211 412 179 368T147 251Q147 170 179 117T269 64Q328 64 360 108T393 225ZM269 -10Q165 -10 102 57T38 238T101 418T269 485Q374 485 438 418T502 238T438 58T269 -10Z" />
<glyph unicode="p" glyph-name="p" horiz-adv-x="530" d="M281 412Q225 412 172 368Q174 122 174 91Q213 64 272 64Q310 64 336 93T372 162T383 251Q383 334 355 373T281 412ZM169 426Q242 485 318 485Q395 485 443 431T492 265Q492 150 436 70T275 -10Q222 -10
172 18Q172 -184 192 -242Q162 -252 135 -252Q95 -252 81 -239T67 -193Q67 -118 68 40T70 250Q70 413 51 467Q76 478 107 478Q165 478 169 426Z" />
<glyph unicode="q" glyph-name="q" horiz-adv-x="537" d="M264 412Q215 412 181 368T147 256Q147 168 181 116T266 64Q322 64 363 109Q364 206 371 367Q327 412 264 412ZM242 -10Q158 -10 98 60T38 237Q38 352 104 418T269 485Q389 485 479 416Q466 282 466 23Q466
-194 486 -243Q459 -252 430 -252Q389 -252 375 -238T361 -199Q361 -52 363 31Q311 -10 242 -10Z" />
<glyph unicode="r" glyph-name="r" horiz-adv-x="358" d="M103 478Q139 478 154 465T170 424V412Q228 485 283 485Q341 485 341 443Q341 415 305 370Q284 388 258 388Q207 388 166 333Q163 269 163 203Q163 72 190 9Q163 -4 131 -4Q88 -4 73 15T58 76Q58 88 59
144T60 232Q60 399 51 473Q80 478 103 478Z" />
<glyph unicode="s" glyph-name="s" horiz-adv-x="437" d="M319 341Q299 406 208 406Q182 406 163 392T144 352Q144 322 170 305T235 280T311 261T375 220T402 140Q402 67 345 29T209 -10Q140 -10 87 13T34 70Q34 113 96 139Q126 69 226 69Q302 69 302 120Q302
150 276 165T211 188T135 208T71 252T44 338Q44 410 101 447T237 485Q267 485 299 479T362 452T393 400Q393 380 373 365T319 341Z" />
<glyph unicode="t" glyph-name="t" horiz-adv-x="372" d="M49 474Q58 475 94 475Q92 534 88 576Q109 580 137 580Q206 580 206 543Q206 519 203 474Q311 474 353 480Q359 469 359 449Q359 422 347 413T309 402Q279 401 201 401Q199 307 199 198Q199 166 201 145T210
103T231 72T267 61Q298 61 331 96Q357 67 357 47Q357 18 328 4T261 -10Q94 -10 94 172Q94 219 94 302T95 402Q31 398 4 394Q0 405 0 427Q0 453 11 462T49 474Z" />
<glyph unicode="u" glyph-name="u" horiz-adv-x="529" d="M364 47Q298 -10 212 -10Q65 -10 65 132Q65 139 66 208T68 309Q68 412 51 470Q78 479 106 479Q143 479 159 467T175 427Q175 375 172 285T169 169Q169 118 190 91T246 64Q304 64 357 115Q356 156 356 242Q356
392 349 475Q377 479 399 479Q463 479 463 440Q463 422 461 340T459 204Q459 79 478 8Q457 -3 428 -3Q409 -3 398 -1T377 13T364 47Z" />
<glyph unicode="v" glyph-name="v" horiz-adv-x="462" d="M377 485Q433 485 433 445Q433 377 383 239T281 37Q249 -3 207 -3Q177 -3 160 1Q137 118 85 264T-3 447Q41 481 76 481Q110 481 127 446T181 305T242 114Q273 164 302 268T332 446Q332 464 329 479Q351
485 377 485Z" />
<glyph unicode="w" glyph-name="w" horiz-adv-x="734" d="M649 485Q705 485 705 445Q705 377 655 239T554 37Q521 -3 479 -3Q449 -3 433 1Q412 107 376 219Q328 96 281 37Q249 -3 207 -3Q177 -3 160 1Q137 118 85 264T-3 447Q41 481 76 481Q110 481 127 446Q145
411 181 305T242 115Q272 168 302 269T332 446Q332 464 329 479Q351 485 377 485Q433 485 433 445Q433 418 424 381Q485 219 514 115Q547 171 576 269T605 446Q605 464 602 479Q622 485 649 485Z" />
<glyph unicode="x" glyph-name="x" horiz-adv-x="456" d="M309 20Q275 62 209 172Q124 46 114 -10Q21 -10 21 30Q21 59 73 126T177 243Q65 408 21 437Q67 485 97 485Q133 485 154 457Q178 426 237 326Q300 436 307 486Q402 484 402 446Q402 422 361 363T271 254Q322
175 370 112T443 31Q403 -10 362 -10Q333 -10 309 20Z" />
<glyph unicode="y" glyph-name="y" horiz-adv-x="466" d="M103 -250Q83 -250 65 -235T34 -197Q62 -178 107 -126T193 -6Q156 117 98 262T0 446Q49 480 79 480Q117 480 133 446Q155 400 194 304T259 122Q293 206 315 299T337 449Q337 467 335 479Q358 485 386 485Q440
485 440 443Q440 397 404 284T319 65Q229 -130 154 -223Q132 -250 103 -250Z" />
<glyph unicode="z" glyph-name="z" horiz-adv-x="489" d="M438 404Q438 376 419 357Q317 250 141 70Q305 70 405 103Q415 77 415 52Q415 34 406 23T385 8T354 1Q312 -6 222 -6Q112 -6 37 7Q21 31 21 59Q21 86 45 111Q77 144 176 245T327 401Q299 403 241 403Q133
403 60 377Q50 405 50 433Q52 463 82 473Q107 481 183 481Q237 481 309 473T421 455Q438 435 438 404Z" />
<glyph unicode="{" glyph-name="braceleft" horiz-adv-x="433" d="M268 587V391Q268 363 249 332T204 286Q230 270 249 241T269 183V-14Q269 -47 278 -58T327 -69Q360 -69 375 -78T390 -111Q390 -124 382 -140Q358 -142 335 -142Q240 -142 205 -114T170 -25V181Q170
207 142 230T59 254V319Q114 319 142 343T171 393V598Q171 659 205 687T335 715Q358 715 382 713Q390 697 390 683Q390 659 375 650T327 641Q287 641 278 630T268 587Z" />
<glyph unicode="|" glyph-name="bar" horiz-adv-x="535" d="M229 -9V564Q229 681 221 734Q237 737 267 737Q313 737 313 699Q313 694 310 627T306 528V-54Q306 -174 314 -246Q298 -249 268 -249Q222 -249 222 -211Q222 -206 225 -124T229 -9Z" />
<glyph unicode="}" glyph-name="braceright" horiz-adv-x="414" d="M147 391V587Q147 619 138 630T88 641Q55 641 40 650T25 683Q25 697 33 713Q57 715 80 715Q175 715 209 687T244 598V393Q244 367 272 343T356 319V254Q301 254 273 231T245 181V-25Q245 -86
210 -114T80 -142Q57 -142 33 -140Q25 -124 25 -111Q25 -87 40 -78T88 -69Q128 -69 137 -58T146 -14V183Q146 211 165 240T211 286Q186 301 167 332T147 391Z" />
<glyph unicode="~" glyph-name="asciitilde" horiz-adv-x="557" d="M34 269Q34 337 157 337Q214 337 287 318T398 298Q444 298 491 344Q523 304 523 277Q523 241 487 225T398 208Q362 208 288 227T173 247Q113 247 67 201Q34 244 34 269Z" />
<glyph unicode="&#xa1;" glyph-name="exclamdown" horiz-adv-x="308" d="M148 343Q118 343 97 363T76 414Q76 444 98 464T150 485Q179 485 200 465T221 414T199 364T148 343ZM92 -164Q93 -126 101 -46T109 90Q109 202 94 242Q123 255 146 255Q202 255 203 205Q204
174 204 98T206 -24T211 -126T223 -211Q179 -219 154 -219Q92 -219 92 -164Z" />
<glyph unicode="&#xa2;" glyph-name="cent" horiz-adv-x="535" d="M173 326Q173 189 274 147V502Q229 490 201 443T173 326ZM499 155Q499 117 446 93T329 68Q330 15 334 -14L314 -16Q274 -16 274 11V72Q184 87 125 150T65 328Q65 437 124 500T274 580Q274 598
269 681Q284 684 292 684Q329 684 329 657V585Q386 584 442 560T499 497Q499 455 431 442Q386 512 329 514V139Q359 140 381 155T431 209Q463 202 481 187T499 155Z" />
<glyph unicode="&#xa3;" glyph-name="sterling" horiz-adv-x="535" d="M432 368Q432 341 416 333T365 325Q340 325 317 326Q320 309 320 291Q320 188 178 67Q199 66 239 66Q367 66 462 102Q485 77 485 53Q485 24 448 11Q412 -3 299 -3Q152 -3 76 11Q63 27 63 59Q132
100 170 159T209 269Q209 299 201 328Q132 328 95 324Q89 340 89 348Q89 356 91 362T100 371T112 377T128 381T144 382T162 383T179 384Q177 389 170 403T160 425T152 445T145 467T140 487T138 508Q138 569 185 621T305 674Q340 674 369 658T398 610Q398 574 339
554Q317 594 283 594Q263 594 250 580T236 537Q236 508 265 451T297 387Q364 391 426 400Q432 387 432 368Z" />
<glyph unicode="&#xa5;" glyph-name="yen" horiz-adv-x="535" d="M222 53Q223 119 223 192Q120 192 60 186Q54 197 54 211Q54 245 97 245H224V299Q121 299 60 293Q54 306 54 319Q54 353 97 353H201Q188 374 162 420T123 486T90 536T51 585T11 621Q42 669 84 669Q114
669 141 631Q212 530 289 390Q334 455 377 544T423 669Q438 673 454 673Q516 673 516 627Q516 605 465 516T360 353Q432 353 493 360L498 335Q498 299 455 299H323V245Q427 245 493 251L498 228Q498 192 455 192H323Q323 70 341 11Q311 -3 287 -3Q251 -3 237 11T222
53Z" />
<glyph unicode="&#xa6;" glyph-name="brokenbar" horiz-adv-x="535" d="M229 565Q229 681 221 734Q237 737 267 737Q313 737 313 699Q313 694 310 627T306 528V488Q306 368 314 296Q298 293 268 293Q222 293 222 331Q222 336 225 434T229 565ZM229 -18V21Q229
139 221 192Q237 195 267 195Q313 195 313 157Q313 152 310 86T306 -14V-54Q306 -174 314 -246Q298 -249 268 -249Q222 -249 222 -211Q222 -207 225 -131T229 -18Z" />
<glyph unicode="&#xa7;" glyph-name="section" horiz-adv-x="456" d="M140 351Q140 316 171 291T252 245T318 211Q322 223 322 245Q322 276 302 298T255 331T195 356T144 385Q140 373 140 351ZM48 333Q48 401 101 432Q70 469 70 528Q70 593 119 633T250 673Q301
673 350 651T400 588Q400 553 327 535Q315 565 286 583T226 602Q199 602 180 587T161 542Q161 503 187 476T250 432T325 397T388 345T414 263Q414 206 362 164Q394 125 394 72Q394 10 345 -34T208 -78Q141 -78 90 -53T38 8Q38 28 56 39T111 62Q134 -7 229 -7Q300
-7 300 62Q300 101 274 127T211 168T137 201T74 251T48 333Z" />
<glyph unicode="&#xa8;" glyph-name="dieresis" horiz-adv-x="273" d="M236 520Q206 520 185 540T164 591Q164 621 186 641T238 662Q267 662 288 642T309 591T287 541T236 520ZM46 520Q16 520 -5 540T-26 591Q-26 621 -4 641T48 662Q77 662 98 642T119 591T97
541T46 520Z" />
<glyph unicode="&#xa9;" glyph-name="copyright" horiz-adv-x="858" d="M750 320Q750 452 671 534T477 617Q361 617 282 535T202 320T281 105T477 23Q591 23 670 105T750 320ZM822 320Q822 170 722 68T477 -34Q330 -34 230 67T130 320Q130 472 230 573T477 674Q622
674 722 573T822 320ZM627 161Q627 135 586 116T489 96Q448 96 411 107T341 143T287 213T267 319Q267 433 333 492T483 551Q513 551 544 543T602 514T628 464Q628 425 555 415Q547 446 524 462T476 478Q436 478 409 437T382 330Q382 246 416 208T498 169Q552 169
586 215Q627 190 627 161Z" />
<glyph unicode="&#xaa;" glyph-name="ordfeminine" horiz-adv-x="308" d="M286 280Q286 264 272 255T234 245Q221 245 188 247T136 250H127Q81 250 26 239Q21 257 21 270Q21 305 73 305Q81 305 114 303T168 301H186Q236 301 279 311Q286 295 286 280ZM105 453Q105
434 114 424T137 414Q162 414 181 432V493Q142 485 124 477T105 453ZM146 643Q205 643 232 622T260 547Q260 524 260 502T259 475Q259 410 270 378Q246 370 229 370T204 374T192 392Q162 366 118 366Q79 366 52 385T25 451Q25 502 89 519Q121 527 184 527Q184 566
175 580T138 594Q125 594 111 584T93 557Q34 561 34 589Q34 613 68 628T146 643Z" />
<glyph unicode="&#xab;" glyph-name="guillemotleft" horiz-adv-x="521" d="M250 398Q250 384 216 332T146 238Q181 197 215 146T250 79Q250 62 212 38Q140 98 34 238Q136 376 212 439Q250 415 250 398ZM470 398Q470 384 436 332T366 238Q401 197 435 146T470
79Q470 62 432 38Q360 98 254 238Q356 376 432 439Q470 415 470 398Z" />
<glyph unicode="&#xac;" glyph-name="logicalnot" horiz-adv-x="535" d="M434 332L436 108Q436 76 424 63T377 50Q353 50 327 64Q343 118 343 239V266H138Q88 266 29 245Q17 274 17 288Q17 332 75 332H434Z" />
<glyph unicode="&#xae;" glyph-name="registered" horiz-adv-x="585" d="M483 358T483 440T434 572T314 623Q242 623 193 573T144 440T193 308T314 257Q385 257 434 307ZM542 539T542 440T476 274T314 207Q217 207 151 274T85 440Q85 540 151 606T314 673Q409
673 475 606ZM310 451Q349 451 349 488Q349 506 336 517T303 529H290V452Q294 451 310 451ZM425 356Q429 348 429 340Q429 329 419 323T395 316Q370 316 355 334Q312 379 290 419V396Q290 354 299 328Q280 318 262 318Q215 318 215 348Q215 357 216 378T217 407V474Q217
526 212 560Q287 566 309 566Q421 566 421 488Q421 437 361 418Q368 404 407 360Q411 356 425 356Z" />
<glyph unicode="&#xaf;" glyph-name="overscore" horiz-adv-x="300" d="M300 595Q300 551 254 551Q239 551 202 554T141 557H121Q60 557 4 549Q0 568 0 585Q0 629 46 629Q51 629 91 626T146 623Q228 623 297 631Q300 611 300 595Z" />
<glyph unicode="&#xb0;" glyph-name="degree" horiz-adv-x="420" d="M120 547Q120 505 140 478T199 451T258 479T280 551Q280 593 260 620T203 647Q163 647 142 619T120 547ZM48 547Q48 614 91 658T204 703Q269 703 311 660T353 552Q353 483 310 439T199 395Q133
395 91 438T48 547Z" />
<glyph unicode="&#xb1;" glyph-name="plusminus" horiz-adv-x="535" d="M469 76T469 55T455 20T417 6Q398 6 342 10T265 14Q160 14 52 4Q47 28 47 43Q47 62 59 77T99 92Q105 92 162 89T263 85Q390 85 463 94Q469 76 469 55ZM262 486Q286 486 302 474T319 443T316
386T312 328Q407 328 483 338Q488 321 488 299Q488 279 474 265T437 250Q417 250 373 253T311 257Q311 189 320 126Q291 120 273 120Q250 120 233 131T216 163Q216 173 219 198T222 258Q141 257 51 249Q47 269 47 287Q47 306 59 321T99 336Q120 336 156 333T223
329Q223 417 215 479Q235 486 262 486Z" />
<glyph unicode="&#xb2;" glyph-name="twosuperior" horiz-adv-x="455" d="M112 545Q68 548 68 577Q68 608 116 640T224 673Q289 673 329 639T369 551Q369 490 315 419T154 288H205Q331 288 379 312Q400 287 400 265Q400 240 377 232Q342 220 229 220Q148 220 94
222Q51 222 51 271Q51 289 52 293Q163 355 220 422T278 543Q278 573 256 591T197 609Q175 609 151 591T112 545Z" />
<glyph unicode="&#xb3;" glyph-name="threesuperior" horiz-adv-x="424" d="M132 457Q132 468 133 474Q200 477 233 493T266 553Q266 609 193 609Q138 609 99 561Q66 576 66 601Q66 629 114 651T210 673Q284 673 320 644T357 566Q357 486 271 458Q319 443 342
413T365 344Q365 290 318 249T183 208Q131 208 91 225T51 270Q51 294 82 310Q120 272 178 272Q220 272 247 291T274 344Q274 430 156 430Q144 430 138 435T132 457Z" />
<glyph unicode="&#xb4;" glyph-name="acute" horiz-adv-x="226" d="M241 626Q223 612 166 580T81 523Q51 550 51 572Q51 585 61 594T88 614T140 654T214 728Q268 700 268 669Q268 645 241 626Z" />
<glyph unicode="&#xb5;" glyph-name="mu" horiz-adv-x="525" d="M61 134Q61 142 62 210T64 309Q64 402 47 460Q74 469 102 469Q139 469 155 457T171 417Q171 365 168 280T165 169Q165 118 186 91T242 64Q300 64 353 115Q352 156 352 242Q352 382 345 465Q373 469
395 469Q459 469 459 430Q459 412 457 335T455 204Q455 79 474 8Q453 -3 424 -3Q405 -3 394 -1T373 13T360 47Q334 23 295 7T219 -10Q189 -10 154 6Q150 -17 150 -47Q150 -101 161 -158T184 -242Q154 -252 127 -252Q87 -252 73 -239T59 -193Q59 -72 61 134Z" />
<glyph unicode="&#xb6;" glyph-name="paragraph" horiz-adv-x="517" d="M321 501Q294 501 268 504Q259 407 259 235Q259 210 209 210Q139 210 89 259T38 388Q38 474 93 524T231 575Q258 575 317 573T394 571Q463 571 493 572Q500 554 500 541Q500 500 421 500Q409
358 409 167Q409 154 411 66T413 -68Q413 -96 400 -111T349 -126Q315 -126 292 -117Q311 -65 311 112Q311 203 321 501Z" />
<glyph unicode="&#xb7;" glyph-name="middot" horiz-adv-x="213" d="M107 185Q76 185 55 206T34 261Q34 293 55 315T107 338T158 316T179 261Q179 228 158 207T107 185Z" />
<glyph unicode="&#xb8;" glyph-name="cedilla" horiz-adv-x="184" d="M90 32L146 24Q127 -33 127 -39T150 -58Q209 -89 209 -139Q209 -180 171 -212T76 -244Q25 -244 25 -212Q25 -193 50 -170Q66 -184 89 -184Q126 -184 126 -153Q126 -132 92 -108T57 -62Q57 -29 90 32Z" />
<glyph unicode="&#xb9;" glyph-name="onesuperior" horiz-adv-x="382" d="M244 281Q280 281 318 285Q322 271 322 260Q322 218 287 218Q280 218 237 219T151 220Q96 220 65 219Q60 236 60 245Q60 284 113 284H154Q154 294 155 356T156 461Q156 542 153 605Q85
593 65 586Q59 601 59 615Q59 652 97 659Q172 673 203 673Q244 673 244 640Q244 635 243 605T240 530T238 445V399Q238 321 244 281Z" />
<glyph unicode="&#xba;" glyph-name="ordmasculine" horiz-adv-x="342" d="M303 280Q303 264 289 255T251 245Q238 245 205 247T153 250H144Q98 250 43 239Q38 257 38 270Q38 305 90 305Q98 305 131 303T185 301H203Q253 301 296 311Q303 295 303 280ZM234 496Q234
538 217 565T170 593Q141 593 125 571T109 512Q109 470 125 443T170 416Q201 416 217 438T234 496ZM170 366Q107 366 69 403T30 504T68 605T170 643Q235 643 273 606T312 504Q312 441 274 404T170 366Z" />
<glyph unicode="&#xbb;" glyph-name="guillemotright" horiz-adv-x="521" d="M254 78Q254 92 288 144T358 238Q323 279 289 330T254 397Q254 414 292 438Q364 378 470 238Q368 100 292 37Q254 61 254 78ZM34 78Q34 92 68 144T138 238Q103 279 69 330T34 397Q34
414 72 438Q144 378 250 238Q148 100 72 37Q34 61 34 78Z" />
<glyph unicode="&#xbc;" glyph-name="onequarter" horiz-adv-x="945" d="M684 187H729Q729 229 730 282T731 349Q664 282 604 188Q626 187 684 187ZM244 281Q280 281 318 285Q322 271 322 260Q322 218 287 218Q280 218 237 219T151 220Q96 220 65 219Q60 236 60
245Q60 284 113 284H154Q154 294 155 356T156 461Q156 542 153 605Q85 593 65 586Q59 601 59 615Q59 652 97 659Q172 673 203 673Q244 673 244 640Q244 635 243 605T240 530T238 445V399Q238 321 244 281ZM294 -107Q230 -107 230 -75Q230 -67 241 -43T340 154Q444
361 528 529Q594 662 627 740Q690 738 690 707Q690 699 678 673T588 493Q482 282 393 104Q324 -35 294 -107ZM731 441Q744 452 790 452Q801 452 817 450Q817 447 815 413T811 318T809 191Q858 194 877 204Q885 188 885 169Q885 138 867 132Q851 124 809 123Q809
49 825 -2Q804 -10 784 -10Q750 -10 739 2T727 42Q727 58 728 76T729 122Q597 122 548 129Q529 130 529 169Q529 187 530 194Q565 254 626 328T731 441Z" />
<glyph unicode="&#xbd;" glyph-name="onehalf" horiz-adv-x="987" d="M644 324Q600 327 600 356Q600 387 648 419T756 452Q821 452 861 418T901 330Q901 269 847 198T686 67H737Q863 67 911 91Q932 66 932 44Q932 19 909 11Q874 -1 761 -1Q680 -1 626 1Q583 1
583 50Q583 68 584 72Q695 134 752 201T810 322Q810 352 788 370T729 388Q707 388 683 370T644 324ZM244 281Q280 281 318 285Q322 271 322 260Q322 218 287 218Q280 218 237 219T151 220Q96 220 65 219Q60 236 60 245Q60 284 113 284H154Q154 294 155 356T156
461Q156 542 153 605Q85 593 65 586Q59 601 59 615Q59 652 97 659Q172 673 203 673Q244 673 244 640Q244 635 243 605T240 530T238 445V399Q238 321 244 281ZM294 -107Q230 -107 230 -75Q230 -67 241 -43T340 154Q444 361 528 529Q594 662 627 740Q690 738 690
707Q690 699 678 673T588 493Q482 282 393 104Q324 -35 294 -107Z" />
<glyph unicode="&#xbe;" glyph-name="threequarters" horiz-adv-x="963" d="M703 187H748Q748 229 749 282T750 349Q682 282 623 188Q645 187 703 187ZM750 441Q763 452 809 452Q820 452 836 450Q836 447 834 413T830 318T828 191Q877 194 896 204Q904 188 904
169Q904 138 886 132Q870 124 828 123Q828 49 844 -2Q823 -10 803 -10Q769 -10 758 2T746 42Q746 58 747 76T748 122Q616 122 567 129Q548 130 548 169Q548 187 549 194Q584 254 645 328T750 441ZM132 457Q132 468 133 474Q200 477 233 493T266 553Q266 609 193
609Q138 609 99 561Q66 576 66 601Q66 629 114 651T210 673Q284 673 320 644T357 566Q357 486 271 458Q319 443 342 413T365 344Q365 290 318 249T183 208Q131 208 91 225T51 270Q51 294 82 310Q120 272 178 272Q220 272 247 291T274 344Q274 430 156 430Q144 430
138 435T132 457ZM315 -107Q251 -107 251 -75Q251 -67 262 -43T361 154Q465 361 549 529Q616 662 648 740Q711 738 711 707Q711 699 699 673T609 493Q503 282 414 104Q345 -35 315 -107Z" />
<glyph unicode="&#xbf;" glyph-name="questiondown" horiz-adv-x="377" d="M206 343Q176 343 155 363T134 414Q134 444 156 464T208 485Q237 485 258 465T279 414T257 364T206 343ZM272 189Q272 162 259 135T234 94T195 51Q171 26 159 11T135 -30T123 -84Q123
-117 141 -133T189 -150Q222 -150 251 -129T290 -74Q365 -86 365 -127Q365 -169 317 -194T203 -220Q123 -220 70 -185T17 -83Q17 -45 32 -12T63 39T107 82Q127 100 137 111T157 142T168 183Q168 205 157 238Q185 255 211 255Q272 255 272 189Z" />
<glyph unicode="&#xc0;" glyph-name="Agrave" horiz-adv-x="573" d="M199 915Q239 872 283 839T346 791T366 760Q366 737 334 716Q303 739 252 766T174 813T147 854Q147 889 199 915ZM374 274Q359 315 345 359T314 455T292 525Q244 374 204 275Q268 273 302 273Q354
273 374 274ZM281 199Q255 199 173 201Q108 34 93 -21Q4 -11 4 20Q4 34 46 133T150 387T246 660Q266 663 298 663Q324 663 338 653T364 610Q441 370 476 280Q551 85 589 10Q551 -10 525 -10Q483 -10 467 17Q455 48 434 108T400 201Q302 199 281 199Z" />
<glyph unicode="&#xc1;" glyph-name="Aacute" horiz-adv-x="573" d="M422 819Q404 805 347 773T262 716Q232 743 232 765Q232 778 242 787T269 807T321 847T395 921Q449 893 449 862Q449 838 422 819ZM374 274Q359 315 345 359T314 455T292 525Q244 374 204 275Q268
273 302 273Q354 273 374 274ZM281 199Q255 199 173 201Q108 34 93 -21Q4 -11 4 20Q4 34 46 133T150 387T246 660Q266 663 298 663Q324 663 338 653T364 610Q441 370 476 280Q551 85 589 10Q551 -10 525 -10Q483 -10 467 17Q455 48 434 108T400 201Q302 199 281
199Z" />
<glyph unicode="&#xc2;" glyph-name="Acircumflex" horiz-adv-x="573" d="M443 757Q443 736 406 712Q389 733 364 754T322 788L305 799Q218 724 191 724Q170 724 150 750Q224 837 306 895Q443 800 443 757ZM374 274Q359 315 345 359T314 455T292 525Q244 374 204
275Q268 273 302 273Q354 273 374 274ZM281 199Q255 199 173 201Q108 34 93 -21Q4 -11 4 20Q4 34 46 133T150 387T246 660Q266 663 298 663Q324 663 338 653T364 610Q441 370 476 280Q551 85 589 10Q551 -10 525 -10Q483 -10 467 17Q455 48 434 108T400 201Q302
199 281 199Z" />
<glyph unicode="&#xc3;" glyph-name="Atilde" horiz-adv-x="573" d="M374 274Q359 315 345 359T314 455T292 525Q244 374 204 275Q268 273 302 273Q354 273 374 274ZM281 199Q255 199 173 201Q108 34 93 -21Q4 -11 4 20Q4 34 46 133T150 387T246 660Q266 663 298
663Q324 663 338 653T364 610Q441 370 476 280Q551 85 589 10Q551 -10 525 -10Q483 -10 467 17Q455 48 434 108T400 201Q302 199 281 199ZM446 804Q446 774 413 746T339 718Q310 718 272 740T227 762Q213 762 176 716Q142 731 142 754Q142 783 175 809T250 835Q274
835 311 813T360 791Q379 791 411 836Q446 826 446 804Z" />
<glyph unicode="&#xc4;" glyph-name="Adieresis" horiz-adv-x="573" d="M387 712Q357 712 336 732T315 783Q315 813 337 833T389 854Q418 854 439 834T460 783T438 733T387 712ZM197 712Q167 712 146 732T125 783Q125 813 147 833T199 854Q228 854 249 834T270
783T248 733T197 712ZM374 274Q359 315 345 359T314 455T292 525Q244 374 204 275Q268 273 302 273Q354 273 374 274ZM281 199Q255 199 173 201Q108 34 93 -21Q4 -11 4 20Q4 34 46 133T150 387T246 660Q266 663 298 663Q324 663 338 653T364 610Q441 370 476 280Q551
85 589 10Q551 -10 525 -10Q483 -10 467 17Q455 48 434 108T400 201Q302 199 281 199Z" />
<glyph unicode="&#xc5;" glyph-name="Aring" horiz-adv-x="573" d="M333 803Q333 826 324 840T297 855Q259 855 259 812Q259 790 269 776T297 761Q333 761 333 803ZM339 713T297 713T229 739T202 808T228 877T297 903T364 877T390 808T365 739ZM374 274Q359 315
345 359T314 455T292 525Q244 374 204 275Q268 273 302 273Q354 273 374 274ZM281 199Q255 199 173 201Q108 34 93 -21Q4 -11 4 20Q4 34 46 133T150 387T246 660Q266 663 298 663Q324 663 338 653T364 610Q441 370 476 280Q551 85 589 10Q551 -10 525 -10Q483 -10
467 17Q455 48 434 108T400 201Q302 199 281 199Z" />
<glyph unicode="&#xc6;" glyph-name="AE" horiz-adv-x="793" d="M230 274Q264 273 332 273H372V341Q372 497 368 563Q274 358 230 274ZM473 583Q477 544 477 396H552Q632 396 666 400Q670 391 670 368Q670 340 660 330T628 318Q603 317 561 317H477Q477 118 484
78Q526 76 553 76Q713 76 760 98Q768 75 768 45Q768 22 759 13Q740 -2 588 -2Q452 -2 422 0Q391 1 381 13T370 57Q370 93 372 199H304Q240 199 190 201Q182 186 156 138T114 57T86 -8Q38 -1 19 11T0 45Q0 51 9 70T36 121T70 182T112 254T152 322Q250 496 314 646Q387
666 587 666Q739 666 758 651Q767 642 767 619Q767 589 759 565Q703 586 579 586Q528 586 473 583Z" />
<glyph unicode="&#xc7;" glyph-name="Ccedilla" horiz-adv-x="609" d="M517 155Q539 144 555 127T571 90Q571 50 515 21T372 -10Q366 -32 366 -39Q366 -45 389 -58Q448 -89 448 -139Q448 -180 410 -212T315 -244Q264 -244 264 -212Q264 -193 289 -170Q305 -184
328 -184Q365 -184 365 -153Q365 -132 331 -108T296 -62Q296 -43 311 -6Q187 11 115 102T42 332Q42 492 130 582T370 673Q451 673 506 642T561 564Q561 540 542 522T482 498Q467 545 429 569T348 594Q263 594 210 525T156 351Q156 230 210 150T364 69Q409 69 451
90T517 155Z" />
<glyph unicode="&#xc8;" glyph-name="Egrave" horiz-adv-x="491" d="M141 915Q181 872 225 839T288 791T308 760Q308 737 276 716Q245 739 194 766T116 813T89 854Q89 889 141 915ZM171 583Q175 544 175 396H250Q330 396 364 400Q368 391 368 368Q368 340 358
330T326 318Q301 317 259 317H175Q175 118 182 78Q224 76 251 76Q411 76 458 98Q466 75 466 45Q466 22 457 13Q438 -2 286 -2Q150 -2 120 0Q89 1 79 13T68 57Q68 76 69 139T70 236V430Q70 570 56 657Q165 666 279 666Q427 666 446 651Q455 642 455 619Q455 589
447 565Q392 586 273 586Q225 586 171 583Z" />
<glyph unicode="&#xc9;" glyph-name="Eacute" horiz-adv-x="491" d="M383 819Q365 805 308 773T223 716Q193 743 193 765Q193 778 203 787T230 807T282 847T356 921Q410 893 410 862Q410 838 383 819ZM171 583Q175 544 175 396H250Q330 396 364 400Q368 391 368
368Q368 340 358 330T326 318Q301 317 259 317H175Q175 118 182 78Q224 76 251 76Q411 76 458 98Q466 75 466 45Q466 22 457 13Q438 -2 286 -2Q150 -2 120 0Q89 1 79 13T68 57Q68 76 69 139T70 236V430Q70 570 56 657Q165 666 279 666Q427 666 446 651Q455 642
455 619Q455 589 447 565Q392 586 273 586Q225 586 171 583Z" />
<glyph unicode="&#xca;" glyph-name="Ecircumflex" horiz-adv-x="491" d="M392 757Q392 736 355 712Q338 733 313 754T271 788L254 799Q167 724 140 724Q118 724 99 750Q173 837 255 895Q392 800 392 757ZM171 583Q175 544 175 396H250Q330 396 364 400Q368 391
368 368Q368 340 358 330T326 318Q301 317 259 317H175Q175 118 182 78Q224 76 251 76Q411 76 458 98Q466 75 466 45Q466 22 457 13Q438 -2 286 -2Q150 -2 120 0Q89 1 79 13T68 57Q68 76 69 139T70 236V430Q70 570 56 657Q165 666 279 666Q427 666 446 651Q455
642 455 619Q455 589 447 565Q392 586 273 586Q225 586 171 583Z" />
<glyph unicode="&#xcb;" glyph-name="Edieresis" horiz-adv-x="491" d="M171 583Q175 544 175 396H250Q330 396 364 400Q368 391 368 368Q368 340 358 330T326 318Q301 317 259 317H175Q175 118 182 78Q224 76 251 76Q411 76 458 98Q466 75 466 45Q466 22 457
13Q438 -2 286 -2Q150 -2 120 0Q89 1 79 13T68 57Q68 76 69 139T70 236V430Q70 570 56 657Q165 666 279 666Q427 666 446 651Q455 642 455 619Q455 589 447 565Q392 586 273 586Q225 586 171 583ZM353 712Q323 712 302 732T281 783Q281 813 303 833T355 854Q384
854 405 834T426 783T404 733T353 712ZM163 712Q133 712 112 732T91 783Q91 813 113 833T165 854Q194 854 215 834T236 783T214 733T163 712Z" />
<glyph unicode="&#xcc;" glyph-name="Igrave" horiz-adv-x="247" d="M67 231V431Q67 570 60 661Q90 666 113 666Q180 666 180 628Q180 622 178 588T174 502T172 404V203Q172 70 191 7Q163 -3 129 -3Q92 -3 79 10T65 54Q65 70 66 133T67 231ZM23 915Q63 872 107
839T170 791T190 760Q190 737 158 716Q127 739 76 766T-2 813T-29 854Q-29 889 23 915Z" />
<glyph unicode="&#xcd;" glyph-name="Iacute" horiz-adv-x="244" d="M76 231V431Q76 570 69 661Q99 666 122 666Q189 666 189 628Q189 622 187 588T183 502T181 404V203Q181 70 200 7Q172 -3 138 -3Q101 -3 88 10T74 54Q74 70 75 133T76 231ZM246 819Q228 805
171 773T86 716Q56 743 56 765Q56 778 66 787T93 807T145 847T219 921Q273 893 273 862Q273 838 246 819Z" />
<glyph unicode="&#xce;" glyph-name="Icircumflex" horiz-adv-x="261" d="M78 231V431Q78 570 71 661Q101 666 124 666Q191 666 191 628Q191 622 189 588T185 502T183 404V203Q183 70 202 7Q174 -3 140 -3Q103 -3 90 10T76 54Q76 70 77 133T78 231ZM273 757Q273
736 236 712Q219 733 194 754T152 788L135 799Q48 724 21 724Q0 724 -20 750Q54 837 136 895Q273 800 273 757Z" />
<glyph unicode="&#xcf;" glyph-name="Idieresis" horiz-adv-x="253" d="M69 231V431Q69 570 62 661Q92 666 115 666Q182 666 182 628Q182 622 180 588T176 502T174 404V203Q174 70 193 7Q165 -3 131 -3Q94 -3 81 10T67 54Q67 70 68 133T69 231ZM21 712Q-9 712
-30 732T-51 783Q-51 813 -29 833T23 854Q52 854 73 834T94 783T72 733T21 712ZM211 712Q181 712 160 732T139 783Q139 813 161 833T213 854Q242 854 263 834T284 783T262 733T211 712Z" />
<glyph unicode="&#xd0;" glyph-name="Eth" horiz-adv-x="651" d="M185 592Q189 527 189 439V395H234Q317 395 348 399Q352 383 352 365Q352 318 308 317Q279 316 187 316Q183 181 175 105Q223 70 294 70Q350 70 391 92T453 152T485 230T495 315Q495 455 430 525T242
596Q223 596 185 592ZM69 53Q82 145 84 316Q22 316 -9 312Q-14 325 -14 348Q-14 392 31 394Q44 395 85 395Q85 557 72 661Q135 673 233 673Q314 673 378 656T496 602T579 496T609 333Q609 183 526 87T289 -10Q147 -10 69 53Z" />
<glyph unicode="&#xd1;" glyph-name="Ntilde" horiz-adv-x="618" d="M560 1Q540 -3 516 -3Q466 -3 449 24Q402 101 305 265T160 507L165 256Q168 54 185 5Q163 -3 137 -3Q100 -3 87 10T73 54Q73 70 74 133T75 231V431Q75 598 56 659Q81 667 117 667Q163 667 189
638Q236 586 328 438T470 188Q462 302 462 420Q462 569 455 663Q478 666 496 666Q562 666 562 628Q562 622 560 588T556 502T553 404V233Q553 92 560 1ZM462 804Q462 774 429 746T355 718Q326 718 288 740T243 762Q229 762 192 716Q158 731 158 754Q158 783 191
809T266 835Q290 835 327 813T376 791Q395 791 427 836Q462 826 462 804Z" />
<glyph unicode="&#xd2;" glyph-name="Ograve" horiz-adv-x="716" d="M251 915Q291 872 335 839T398 791T418 760Q418 737 386 716Q355 739 304 766T226 813T199 854Q199 889 251 915ZM357 -10Q213 -10 128 83T42 331Q42 488 127 580T357 673Q503 673 589 581T675
331Q675 176 589 83T357 -10ZM561 314Q561 386 543 446T477 550T359 594Q266 594 211 529T156 360Q156 285 174 222T240 114T358 69Q455 69 508 137T561 314Z" />
<glyph unicode="&#xd3;" glyph-name="Oacute" horiz-adv-x="716" d="M490 819Q472 805 415 773T330 716Q300 743 300 765Q300 778 310 787T337 807T389 847T463 921Q517 893 517 862Q517 838 490 819ZM357 -10Q213 -10 128 83T42 331Q42 488 127 580T357 673Q503
673 589 581T675 331Q675 176 589 83T357 -10ZM561 314Q561 386 543 446T477 550T359 594Q266 594 211 529T156 360Q156 285 174 222T240 114T358 69Q455 69 508 137T561 314Z" />
<glyph unicode="&#xd4;" glyph-name="Ocircumflex" horiz-adv-x="716" d="M500 757Q500 736 463 712Q446 733 421 754T379 788L362 799Q275 724 248 724Q226 724 207 750Q281 837 363 895Q500 800 500 757ZM357 -10Q213 -10 128 83T42 331Q42 488 127 580T357
673Q503 673 589 581T675 331Q675 176 589 83T357 -10ZM561 314Q561 386 543 446T477 550T359 594Q266 594 211 529T156 360Q156 285 174 222T240 114T358 69Q455 69 508 137T561 314Z" />
<glyph unicode="&#xd5;" glyph-name="Otilde" horiz-adv-x="716" d="M357 -10Q213 -10 128 83T42 331Q42 488 127 580T357 673Q503 673 589 581T675 331Q675 176 589 83T357 -10ZM561 314Q561 386 543 446T477 550T359 594Q266 594 211 529T156 360Q156 285 174
222T240 114T358 69Q455 69 508 137T561 314ZM510 804Q510 774 477 746T403 718Q374 718 336 740T291 762Q277 762 240 716Q206 731 206 754Q206 783 239 809T314 835Q338 835 375 813T424 791Q443 791 475 836Q510 826 510 804Z" />
<glyph unicode="&#xd6;" glyph-name="Odieresis" horiz-adv-x="716" d="M357 -10Q213 -10 128 83T42 331Q42 488 127 580T357 673Q503 673 589 581T675 331Q675 176 589 83T357 -10ZM561 314Q561 386 543 446T477 550T359 594Q266 594 211 529T156 360Q156 285
174 222T240 114T358 69Q455 69 508 137T561 314ZM452 712Q422 712 401 732T380 783Q380 813 402 833T454 854Q483 854 504 834T525 783T503 733T452 712ZM262 712Q232 712 211 732T190 783Q190 813 212 833T264 854Q293 854 314 834T335 783T313 733T262 712Z"
/>
<glyph unicode="&#xd7;" glyph-name="multiply" horiz-adv-x="535" d="M413 470Q435 458 453 440T472 407Q472 393 457 378Q443 365 391 316T324 254Q426 152 486 104Q462 59 419 59Q396 59 385 70Q375 80 328 131T266 197Q187 119 119 37Q100 50 90 57T71 77T61
103T76 131Q88 144 210 255Q102 358 49 406Q78 452 115 452Q137 452 150 439Q166 423 267 312Q365 410 413 470Z" />
<glyph unicode="&#xd8;" glyph-name="Oslash" horiz-adv-x="716" d="M221 16L197 -27Q175 -67 169 -84Q123 -79 123 -53Q123 -43 148 2L171 44Q42 135 42 331Q42 488 127 580T357 673Q435 673 501 643L525 687Q535 705 553 744Q599 739 599 713Q599 702 577 663L550
614Q675 522 675 331Q675 176 589 83T357 -10Q282 -10 221 16ZM156 360Q156 213 220 134L458 565Q414 594 359 594Q266 594 211 529T156 360ZM561 314Q561 446 501 525L264 95Q304 69 358 69Q455 69 508 137T561 314Z" />
<glyph unicode="&#xd9;" glyph-name="Ugrave" horiz-adv-x="643" d="M217 915Q257 872 301 839T364 791T384 760Q384 737 352 716Q321 739 270 766T192 813T165 854Q165 889 217 915ZM61 658Q87 666 120 666Q158 666 175 655T193 615Q193 574 186 432T178 210Q178
142 213 110T295 77Q338 77 385 99T462 152Q462 159 462 183T462 270T463 431Q463 571 456 662Q487 666 511 666Q576 666 576 628Q576 626 574 591T570 482T568 309Q568 154 571 102T587 5Q565 -3 525 -3Q489 -3 475 9T461 56V75Q422 37 368 14T267 -10Q176 -10
123 34T69 192Q69 251 73 352T78 501Q78 596 61 658Z" />
<glyph unicode="&#xda;" glyph-name="Uacute" horiz-adv-x="643" d="M463 819Q445 805 388 773T303 716Q273 743 273 765Q273 778 283 787T310 807T362 847T436 921Q490 893 490 862Q490 838 463 819ZM61 658Q87 666 120 666Q158 666 175 655T193 615Q193 574
186 432T178 210Q178 142 213 110T295 77Q338 77 385 99T462 152Q462 159 462 183T462 270T463 431Q463 571 456 662Q487 666 511 666Q576 666 576 628Q576 626 574 591T570 482T568 309Q568 154 571 102T587 5Q565 -3 525 -3Q489 -3 475 9T461 56V75Q422 37 368
14T267 -10Q176 -10 123 34T69 192Q69 251 73 352T78 501Q78 596 61 658Z" />
<glyph unicode="&#xdb;" glyph-name="Ucircumflex" horiz-adv-x="643" d="M467 757Q467 736 430 712Q413 733 388 754T346 788L329 799Q242 724 215 724Q194 724 174 750Q248 837 330 895Q467 800 467 757ZM61 658Q87 666 120 666Q158 666 175 655T193 615Q193
574 186 432T178 210Q178 142 213 110T295 77Q338 77 385 99T462 152Q462 159 462 183T462 270T463 431Q463 571 456 662Q487 666 511 666Q576 666 576 628Q576 626 574 591T570 482T568 309Q568 154 571 102T587 5Q565 -3 525 -3Q489 -3 475 9T461 56V75Q422 37
368 14T267 -10Q176 -10 123 34T69 192Q69 251 73 352T78 501Q78 596 61 658Z" />
<glyph unicode="&#xdc;" glyph-name="Udieresis" horiz-adv-x="643" d="M61 658Q87 666 120 666Q158 666 175 655T193 615Q193 574 186 432T178 210Q178 142 213 110T295 77Q338 77 385 99T462 152Q462 159 462 183T462 270T463 431Q463 571 456 662Q487 666 511
666Q576 666 576 628Q576 626 574 591T570 482T568 309Q568 154 571 102T587 5Q565 -3 525 -3Q489 -3 475 9T461 56V75Q422 37 368 14T267 -10Q176 -10 123 34T69 192Q69 251 73 352T78 501Q78 596 61 658ZM430 712Q400 712 379 732T358 783Q358 813 380 833T432
854Q461 854 482 834T503 783T481 733T430 712ZM240 712Q210 712 189 732T168 783Q168 813 190 833T242 854Q271 854 292 834T313 783T291 733T240 712Z" />
<glyph unicode="&#xdd;" glyph-name="Yacute" horiz-adv-x="507" d="M399 819Q381 805 324 773T239 716Q209 743 209 765Q209 778 219 787T246 807T298 847T372 921Q426 893 426 862Q426 838 399 819ZM503 616Q503 581 439 483T310 307V203Q310 70 329 7Q301 -3
267 -3Q230 -3 217 10T203 54Q203 70 204 133T205 231V303Q64 565 -9 614Q7 635 32 651T80 667Q115 667 139 633Q213 524 277 386Q323 457 363 547T408 672Q503 668 503 616Z" />
<glyph unicode="&#xde;" glyph-name="Thorn" horiz-adv-x="517" d="M63 231V431Q63 570 56 661Q86 666 109 666Q176 666 176 628L172 562Q183 563 206 563Q487 563 487 342Q487 235 427 179T284 123Q217 123 168 155Q170 61 187 7Q159 -3 125 -3Q88 -3 75 10T61
54Q61 70 62 133T63 231ZM252 202Q309 202 341 238T373 337Q373 422 337 454T225 486Q207 486 169 482Q168 457 168 219Q201 202 252 202Z" />
<glyph unicode="&#xdf;" glyph-name="germandbls" horiz-adv-x="537" d="M172 488V199Q172 182 172 138T173 56Q173 24 159 11T109 -3Q85 -3 55 11Q74 73 74 205V461Q74 566 129 620T261 674Q324 674 368 643T413 558Q413 510 395 478T356 432T317 403T299 368Q299
344 330 319T399 274T467 217T499 132Q499 76 454 33T345 -10Q293 -10 254 15T214 76Q214 96 233 108T289 131Q296 97 314 79T352 61Q370 61 383 78T397 120Q397 149 378 174T330 217T274 255T227 302T207 364Q207 389 223 410T259 444T294 482T311 539Q311 570
296 586T255 603Q221 603 197 575T172 488Z" />
<glyph unicode="&#xe0;" glyph-name="agrave" horiz-adv-x="478" d="M128 722Q168 679 212 646T275 598T295 567Q295 544 263 523Q232 546 181 573T103 620T76 661Q76 696 128 722ZM303 143Q303 189 305 214Q275 210 262 208T225 202T192 193T169 181T152 164T147
139Q147 99 167 80T218 61Q269 61 305 99Q303 112 303 143ZM307 275Q307 309 306 327T298 368T276 401T234 412Q201 412 172 391T129 331Q40 332 40 384Q40 427 100 456T238 485Q330 485 372 447T415 311Q415 308 414 264T413 178Q413 64 432 7Q403 -4 375 -4Q319
-4 308 42Q248 -10 173 -10Q115 -10 77 26T38 132Q38 188 62 215T126 255Q186 274 307 275Z" />
<glyph unicode="&#xe1;" glyph-name="aacute" horiz-adv-x="478" d="M367 626Q349 612 292 580T207 523Q177 550 177 572Q177 585 187 594T214 614T266 654T340 728Q394 700 394 669Q394 645 367 626ZM303 143Q303 189 305 214Q275 210 262 208T225 202T192 193T169
181T152 164T147 139Q147 99 167 80T218 61Q269 61 305 99Q303 112 303 143ZM307 275Q307 309 306 327T298 368T276 401T234 412Q201 412 172 391T129 331Q40 332 40 384Q40 427 100 456T238 485Q330 485 372 447T415 311Q415 308 414 264T413 178Q413 64 432 7Q403
-4 375 -4Q319 -4 308 42Q248 -10 173 -10Q115 -10 77 26T38 132Q38 188 62 215T126 255Q186 274 307 275Z" />
<glyph unicode="&#xe2;" glyph-name="acircumflex" horiz-adv-x="478" d="M372 564Q372 543 335 519Q318 540 293 561T251 594L234 606Q147 531 120 531Q98 531 79 557Q153 644 235 702Q372 607 372 564ZM303 143Q303 189 305 214Q275 210 262 208T225 202T192
193T169 181T152 164T147 139Q147 99 167 80T218 61Q269 61 305 99Q303 112 303 143ZM307 275Q307 309 306 327T298 368T276 401T234 412Q201 412 172 391T129 331Q40 332 40 384Q40 427 100 456T238 485Q330 485 372 447T415 311Q415 308 414 264T413 178Q413
64 432 7Q403 -4 375 -4Q319 -4 308 42Q248 -10 173 -10Q115 -10 77 26T38 132Q38 188 62 215T126 255Q186 274 307 275Z" />
<glyph unicode="&#xe3;" glyph-name="atilde" horiz-adv-x="478" d="M303 143Q303 189 305 214Q275 210 262 208T225 202T192 193T169 181T152 164T147 139Q147 99 167 80T218 61Q269 61 305 99Q303 112 303 143ZM307 275Q307 309 306 327T298 368T276 401T234
412Q201 412 172 391T129 331Q40 332 40 384Q40 427 100 456T238 485Q330 485 372 447T415 311Q415 308 414 264T413 178Q413 64 432 7Q403 -4 375 -4Q319 -4 308 42Q248 -10 173 -10Q115 -10 77 26T38 132Q38 188 62 215T126 255Q186 274 307 275ZM388 617Q388
587 355 559T281 531Q252 531 214 553T169 575Q155 575 118 529Q84 544 84 567Q84 596 117 622T192 648Q216 648 253 626T302 604Q321 604 353 649Q388 639 388 617Z" />
<glyph unicode="&#xe4;" glyph-name="adieresis" horiz-adv-x="478" d="M303 143Q303 189 305 214Q275 210 262 208T225 202T192 193T169 181T152 164T147 139Q147 99 167 80T218 61Q269 61 305 99Q303 112 303 143ZM307 275Q307 309 306 327T298 368T276 401T234
412Q201 412 172 391T129 331Q40 332 40 384Q40 427 100 456T238 485Q330 485 372 447T415 311Q415 308 414 264T413 178Q413 64 432 7Q403 -4 375 -4Q319 -4 308 42Q248 -10 173 -10Q115 -10 77 26T38 132Q38 188 62 215T126 255Q186 274 307 275ZM335 520Q305
520 284 540T263 591Q263 621 285 641T337 662Q366 662 387 642T408 591T386 541T335 520ZM145 520Q115 520 94 540T73 591Q73 621 95 641T147 662Q176 662 197 642T218 591T196 541T145 520Z" />
<glyph unicode="&#xe5;" glyph-name="aring" horiz-adv-x="478" d="M262 610Q262 633 253 647T226 662Q188 662 188 619Q188 597 198 583T226 568Q262 568 262 610ZM268 520T226 520T158 546T131 615T157 684T226 710T293 684T319 615T294 546ZM303 143Q303 189
305 214Q275 210 262 208T225 202T192 193T169 181T152 164T147 139Q147 99 167 80T218 61Q269 61 305 99Q303 112 303 143ZM307 275Q307 309 306 327T298 368T276 401T234 412Q201 412 172 391T129 331Q40 332 40 384Q40 427 100 456T238 485Q330 485 372 447T415
311Q415 308 414 264T413 178Q413 64 432 7Q403 -4 375 -4Q319 -4 308 42Q248 -10 173 -10Q115 -10 77 26T38 132Q38 188 62 215T126 255Q186 274 307 275Z" />
<glyph unicode="&#xe6;" glyph-name="ae" horiz-adv-x="753" d="M218 61Q275 61 328 120Q311 155 305 215Q265 210 243 206T196 194T159 172T147 139Q147 99 167 80T218 61ZM533 412Q486 412 453 376T414 262Q478 262 508 265Q605 277 605 341Q605 370 585 391T533
412ZM490 197Q463 197 417 199Q427 128 462 95T550 62Q577 62 606 76T649 116Q698 90 698 60Q698 26 651 8T546 -10Q491 -10 440 12T354 78Q268 -10 173 -10Q115 -10 77 26T38 132Q38 188 62 215T126 255Q186 274 307 275Q307 309 306 327T298 368T276 401T234
412Q201 412 172 391T129 331Q40 332 40 384Q40 427 100 456T238 485Q294 485 330 471T387 420Q448 485 542 485Q619 485 666 443T714 343Q714 296 697 266T645 221T576 202T490 197Z" />
<glyph unicode="&#xe7;" glyph-name="ccedilla" horiz-adv-x="464" d="M283 62Q310 62 339 76T382 116Q431 90 431 60Q431 26 384 8T279 -10Q269 -10 251 -8Q244 -29 244 -39Q244 -45 267 -58Q326 -89 326 -139Q326 -180 288 -212T193 -244Q142 -244 142 -212Q142
-193 167 -170Q183 -184 206 -184Q243 -184 243 -153Q243 -132 209 -108T174 -62T193 4Q125 27 82 84T38 233Q38 357 110 421T274 485Q330 485 380 459T431 385Q431 364 410 351T353 334Q345 370 317 390T260 410Q212 410 180 364T148 244Q148 149 185 106T283
62Z" />
<glyph unicode="&#xe8;" glyph-name="egrave" horiz-adv-x="485" d="M165 722Q205 679 249 646T312 598T332 567Q332 544 300 523Q269 546 218 573T140 620T113 661Q113 696 165 722ZM223 197Q196 197 150 199Q160 128 195 95T283 62Q310 62 339 76T382 116Q431
90 431 60Q431 26 384 8T279 -10Q185 -10 112 52T38 231Q38 354 108 419T275 485Q352 485 399 443T447 343Q447 296 430 266T378 221T309 202T223 197ZM266 412Q219 412 186 376T147 262Q211 262 241 265Q338 277 338 341Q338 370 318 391T266 412Z" />
<glyph unicode="&#xe9;" glyph-name="eacute" horiz-adv-x="485" d="M384 626Q366 612 309 580T224 523Q194 550 194 572Q194 585 204 594T231 614T283 654T357 728Q411 700 411 669Q411 645 384 626ZM223 197Q196 197 150 199Q160 128 195 95T283 62Q310 62 339
76T382 116Q431 90 431 60Q431 26 384 8T279 -10Q185 -10 112 52T38 231Q38 354 108 419T275 485Q352 485 399 443T447 343Q447 296 430 266T378 221T309 202T223 197ZM266 412Q219 412 186 376T147 262Q211 262 241 265Q338 277 338 341Q338 370 318 391T266 412Z"
/>
<glyph unicode="&#xea;" glyph-name="ecircumflex" horiz-adv-x="485" d="M408 564Q408 543 371 519Q354 540 329 561T287 594L270 606Q183 531 156 531Q134 531 115 557Q189 644 271 702Q408 607 408 564ZM223 197Q196 197 150 199Q160 128 195 95T283 62Q310
62 339 76T382 116Q431 90 431 60Q431 26 384 8T279 -10Q185 -10 112 52T38 231Q38 354 108 419T275 485Q352 485 399 443T447 343Q447 296 430 266T378 221T309 202T223 197ZM266 412Q219 412 186 376T147 262Q211 262 241 265Q338 277 338 341Q338 370 318 391T266
412Z" />
<glyph unicode="&#xeb;" glyph-name="edieresis" horiz-adv-x="485" d="M223 197Q196 197 150 199Q160 128 195 95T283 62Q310 62 339 76T382 116Q431 90 431 60Q431 26 384 8T279 -10Q185 -10 112 52T38 231Q38 354 108 419T275 485Q352 485 399 443T447 343Q447
296 430 266T378 221T309 202T223 197ZM266 412Q219 412 186 376T147 262Q211 262 241 265Q338 277 338 341Q338 370 318 391T266 412ZM372 520Q342 520 321 540T300 591Q300 621 322 641T374 662Q403 662 424 642T445 591T423 541T372 520ZM182 520Q152 520 131
540T110 591Q110 621 132 641T184 662Q213 662 234 642T255 591T233 541T182 520Z" />
<glyph unicode="&#xec;" glyph-name="igrave" horiz-adv-x="249" d="M46 722Q86 679 130 646T193 598T213 567Q213 544 181 523Q150 546 99 573T21 620T-6 661Q-6 696 46 722ZM116 478Q188 478 188 425Q188 419 185 385T180 299T177 202Q177 68 203 7Q178 -4 146
-4Q102 -4 87 14T71 75Q71 91 72 152T73 247Q73 392 64 474Q88 478 116 478Z" />
<glyph unicode="&#xed;" glyph-name="iacute" horiz-adv-x="249" d="M235 626Q217 612 160 580T75 523Q45 550 45 572Q45 585 55 594T82 614T134 654T208 728Q262 700 262 669Q262 645 235 626ZM116 478Q188 478 188 425Q188 419 185 385T180 299T177 202Q177
68 203 7Q178 -4 146 -4Q102 -4 87 14T71 75Q71 91 72 152T73 247Q73 392 64 474Q88 478 116 478Z" />
<glyph unicode="&#xee;" glyph-name="icircumflex" horiz-adv-x="249" d="M268 564Q268 543 231 519Q214 540 189 561T147 594L130 606Q43 531 16 531Q-5 531 -25 557Q49 644 131 702Q268 607 268 564ZM116 478Q188 478 188 425Q188 419 185 385T180 299T177 202Q177
68 203 7Q178 -4 146 -4Q102 -4 87 14T71 75Q71 91 72 152T73 247Q73 392 64 474Q88 478 116 478Z" />
<glyph unicode="&#xef;" glyph-name="idieresis" horiz-adv-x="249" d="M116 478Q188 478 188 425Q188 419 185 385T180 299T177 202Q177 68 203 7Q178 -4 146 -4Q102 -4 87 14T71 75Q71 91 72 152T73 247Q73 392 64 474Q88 478 116 478ZM223 520Q193 520 172
540T151 591Q151 621 173 641T225 662Q254 662 275 642T296 591T274 541T223 520ZM33 520Q3 520 -18 540T-39 591Q-39 621 -17 641T35 662Q64 662 85 642T106 591T84 541T33 520Z" />
<glyph unicode="&#xf0;" glyph-name="eth" horiz-adv-x="535" d="M395 219Q395 302 360 358T265 415Q203 415 169 369T135 245Q135 161 169 106T265 50Q327 50 361 96T395 219ZM156 571Q181 587 215 610Q158 635 93 644Q91 656 91 663Q91 698 117 698Q142 698
190 686T277 654Q349 705 381 732Q410 713 410 686Q410 668 393 657Q381 648 361 635T337 619Q423 553 458 462T493 236Q493 124 431 57T265 -10Q163 -10 101 57T38 237T98 417T255 485Q333 485 378 436Q347 525 275 576Q249 558 216 533T174 502Q140 518 140 544Q140
558 156 571Z" />
<glyph unicode="&#xf1;" glyph-name="ntilde" horiz-adv-x="539" d="M168 429Q239 485 328 485Q389 485 427 449T465 333Q465 322 464 255T462 157Q462 75 488 9Q457 -4 432 -4Q391 -4 374 13T357 77Q357 129 359 202T361 304Q361 359 339 386T282 413Q229 413
172 361Q174 227 174 166Q174 70 180 2Q153 -2 130 -2Q65 -2 65 38Q65 67 67 132T70 249Q70 415 51 467Q75 478 103 478Q132 478 148 469T168 429ZM421 617Q421 587 388 559T314 531Q285 531 247 553T202 575Q188 575 151 529Q117 544 117 567Q117 596 150 622T225
648Q249 648 286 626T335 604Q354 604 386 649Q421 639 421 617Z" />
<glyph unicode="&#xf2;" glyph-name="ograve" horiz-adv-x="540" d="M163 722Q203 679 247 646T310 598T330 567Q330 544 298 523Q267 546 216 573T138 620T111 661Q111 696 163 722ZM393 225Q393 305 360 358T269 412Q211 412 179 368T147 251Q147 170 179 117T269
64Q328 64 360 108T393 225ZM269 -10Q165 -10 102 57T38 238T101 418T269 485Q374 485 438 418T502 238T438 58T269 -10Z" />
<glyph unicode="&#xf3;" glyph-name="oacute" horiz-adv-x="540" d="M402 626Q384 612 327 580T242 523Q212 550 212 572Q212 585 222 594T249 614T301 654T375 728Q429 700 429 669Q429 645 402 626ZM393 225Q393 305 360 358T269 412Q211 412 179 368T147 251Q147
170 179 117T269 64Q328 64 360 108T393 225ZM269 -10Q165 -10 102 57T38 238T101 418T269 485Q374 485 438 418T502 238T438 58T269 -10Z" />
<glyph unicode="&#xf4;" glyph-name="ocircumflex" horiz-adv-x="540" d="M415 564Q415 543 378 519Q361 540 336 561T294 594L277 606Q190 531 163 531Q142 531 122 557Q196 644 278 702Q415 607 415 564ZM393 225Q393 305 360 358T269 412Q211 412 179 368T147
251Q147 170 179 117T269 64Q328 64 360 108T393 225ZM269 -10Q165 -10 102 57T38 238T101 418T269 485Q374 485 438 418T502 238T438 58T269 -10Z" />
<glyph unicode="&#xf5;" glyph-name="otilde" horiz-adv-x="540" d="M393 225Q393 305 360 358T269 412Q211 412 179 368T147 251Q147 170 179 117T269 64Q328 64 360 108T393 225ZM269 -10Q165 -10 102 57T38 238T101 418T269 485Q374 485 438 418T502 238T438
58T269 -10ZM421 617Q421 587 388 559T314 531Q285 531 247 553T202 575Q188 575 151 529Q117 544 117 567Q117 596 150 622T225 648Q249 648 286 626T335 604Q354 604 386 649Q421 639 421 617Z" />
<glyph unicode="&#xf6;" glyph-name="odieresis" horiz-adv-x="540" d="M393 225Q393 305 360 358T269 412Q211 412 179 368T147 251Q147 170 179 117T269 64Q328 64 360 108T393 225ZM269 -10Q165 -10 102 57T38 238T101 418T269 485Q374 485 438 418T502 238T438
58T269 -10ZM370 520Q340 520 319 540T298 591Q298 621 320 641T372 662Q401 662 422 642T443 591T421 541T370 520ZM180 520Q150 520 129 540T108 591Q108 621 130 641T182 662Q211 662 232 642T253 591T231 541T180 520Z" />
<glyph unicode="&#xf7;" glyph-name="divide" horiz-adv-x="535" d="M456 260Q456 240 442 226T404 211Q388 211 332 215T252 219Q147 219 39 209Q34 234 34 248Q34 267 46 282T86 297Q89 297 146 294T250 290Q377 290 450 299Q456 282 456 260ZM255 359Q229 359
211 376T193 422Q193 449 211 467T255 486Q280 486 297 468T315 422Q315 394 298 377T255 359ZM255 22Q229 22 211 40T193 86Q193 112 211 131T255 150T297 131T315 86Q315 58 298 40T255 22Z" />
<glyph unicode="&#xf8;" glyph-name="oslash" horiz-adv-x="540" d="M178 6L159 -30Q137 -70 131 -87Q85 -82 85 -56Q85 -46 110 -1L129 33Q38 102 38 238Q38 351 101 418T269 485Q321 485 367 466L389 506Q399 524 417 563Q463 558 463 532Q463 521 441 482L416
437Q502 370 502 238Q502 125 438 58T269 -10Q221 -10 178 6ZM147 251Q147 170 177 121L327 393Q300 412 269 412Q211 412 179 368T147 251ZM393 152T393 225T366 347L218 78Q241 64 269 64Q328 64 360 108Z" />
<glyph unicode="&#xf9;" glyph-name="ugrave" horiz-adv-x="529" d="M157 722Q197 679 241 646T304 598T324 567Q324 544 292 523Q261 546 210 573T132 620T105 661Q105 696 157 722ZM364 47Q298 -10 212 -10Q65 -10 65 132Q65 139 66 208T68 309Q68 412 51 470Q78
479 106 479Q143 479 159 467T175 427Q175 375 172 285T169 169Q169 118 190 91T246 64Q304 64 357 115Q356 156 356 242Q356 392 349 475Q377 479 399 479Q463 479 463 440Q463 422 461 340T459 204Q459 79 478 8Q457 -3 428 -3Q409 -3 398 -1T377 13T364 47Z"
/>
<glyph unicode="&#xfa;" glyph-name="uacute" horiz-adv-x="529" d="M396 626Q378 612 321 580T236 523Q206 550 206 572Q206 585 216 594T243 614T295 654T369 728Q423 700 423 669Q423 645 396 626ZM364 47Q298 -10 212 -10Q65 -10 65 132Q65 139 66 208T68
309Q68 412 51 470Q78 479 106 479Q143 479 159 467T175 427Q175 375 172 285T169 169Q169 118 190 91T246 64Q304 64 357 115Q356 156 356 242Q356 392 349 475Q377 479 399 479Q463 479 463 440Q463 422 461 340T459 204Q459 79 478 8Q457 -3 428 -3Q409 -3 398
-1T377 13T364 47Z" />
<glyph unicode="&#xfb;" glyph-name="ucircumflex" horiz-adv-x="529" d="M402 564Q402 543 365 519Q348 540 323 561T281 594L264 606Q177 531 150 531Q128 531 109 557Q183 644 265 702Q402 607 402 564ZM364 47Q298 -10 212 -10Q65 -10 65 132Q65 139 66 208T68
309Q68 412 51 470Q78 479 106 479Q143 479 159 467T175 427Q175 375 172 285T169 169Q169 118 190 91T246 64Q304 64 357 115Q356 156 356 242Q356 392 349 475Q377 479 399 479Q463 479 463 440Q463 422 461 340T459 204Q459 79 478 8Q457 -3 428 -3Q409 -3 398
-1T377 13T364 47Z" />
<glyph unicode="&#xfc;" glyph-name="udieresis" horiz-adv-x="529" d="M364 47Q298 -10 212 -10Q65 -10 65 132Q65 139 66 208T68 309Q68 412 51 470Q78 479 106 479Q143 479 159 467T175 427Q175 375 172 285T169 169Q169 118 190 91T246 64Q304 64 357 115Q356
156 356 242Q356 392 349 475Q377 479 399 479Q463 479 463 440Q463 422 461 340T459 204Q459 79 478 8Q457 -3 428 -3Q409 -3 398 -1T377 13T364 47ZM364 520Q334 520 313 540T292 591Q292 621 314 641T366 662Q395 662 416 642T437 591T415 541T364 520ZM174
520Q144 520 123 540T102 591Q102 621 124 641T176 662Q205 662 226 642T247 591T225 541T174 520Z" />
<glyph unicode="&#xfd;" glyph-name="yacute" horiz-adv-x="466" d="M373 626Q355 612 298 580T213 523Q183 550 183 572Q183 585 193 594T220 614T272 654T346 728Q400 700 400 669Q400 645 373 626ZM103 -250Q83 -250 65 -235T34 -197Q62 -178 107 -126T193
-6Q156 117 98 262T0 446Q49 480 79 480Q117 480 133 446Q155 400 194 304T259 122Q293 206 315 299T337 449Q337 467 335 479Q358 485 386 485Q440 485 440 443Q440 397 404 284T319 65Q229 -130 154 -223Q132 -250 103 -250Z" />
<glyph unicode="&#xfe;" glyph-name="thorn" horiz-adv-x="520" d="M271 412Q217 412 163 369Q163 167 164 91Q203 64 262 64Q300 64 326 93T362 162T373 251Q373 334 345 373T271 412ZM103 743Q174 743 174 688Q174 681 172 649T167 558T163 429Q235 485 308
485Q385 485 433 431T482 265Q482 150 426 70T265 -10Q212 -10 162 18Q162 -184 182 -242Q152 -252 125 -252Q85 -252 71 -239T57 -193Q57 -27 58 56Q60 244 60 285V474Q60 658 51 738Q79 743 103 743Z" />
<glyph unicode="&#xff;" glyph-name="ydieresis" horiz-adv-x="466" d="M103 -250Q83 -250 65 -235T34 -197Q62 -178 107 -126T193 -6Q156 117 98 262T0 446Q49 480 79 480Q117 480 133 446Q155 400 194 304T259 122Q293 206 315 299T337 449Q337 467 335 479Q358
485 386 485Q440 485 440 443Q440 397 404 284T319 65Q229 -130 154 -223Q132 -250 103 -250ZM334 520Q304 520 283 540T262 591Q262 621 284 641T336 662Q365 662 386 642T407 591T385 541T334 520ZM144 520Q114 520 93 540T72 591Q72 621 94 641T146 662Q175
662 196 642T217 591T195 541T144 520Z" />
<glyph unicode="&#x2013;" glyph-name="endash" horiz-adv-x="595" d="M565 269Q565 248 551 236T513 223Q498 223 457 225T393 228H158Q102 228 35 217Q30 241 30 257Q30 276 42 289T82 303Q91 303 132 301T198 299H444Q507 299 558 309Q565 288 565 269Z" />
<glyph unicode="&#x2014;" glyph-name="emdash" horiz-adv-x="857" d="M827 269Q827 248 813 236T775 223Q760 223 719 225T655 228H158Q102 228 35 217Q30 241 30 257Q30 276 42 289T82 303Q91 303 132 301T198 299H706Q769 299 820 309Q827 288 827 269Z" />
<glyph unicode="&#x2018;" glyph-name="quoteleft" horiz-adv-x="206" d="M108 613Q108 568 157 559Q167 540 167 521Q167 497 146 481T95 464Q63 464 40 488T17 562Q17 628 58 683T157 738Q188 738 188 700Q188 690 187 685H182Q150 685 129 663T108 613Z" />
<glyph unicode="&#x2019;" glyph-name="quoteright" horiz-adv-x="273" d="M122 591Q122 636 73 645Q63 664 63 683Q63 707 84 723T135 740Q167 740 190 716T213 642Q213 576 172 521T73 466Q42 466 42 504Q42 514 43 519H48Q80 519 101 541T122 591Z" />
<glyph unicode="&#x201a;" glyph-name="quotesinglbase" horiz-adv-x="235" d="M102 -29Q102 16 53 25Q43 44 43 63Q43 87 64 103T115 120Q147 120 170 96T193 22Q193 -44 152 -99T53 -154Q22 -154 22 -116Q22 -106 23 -101H28Q60 -101 81 -79T102 -29Z" />
<glyph unicode="&#x201c;" glyph-name="quotedblleft" horiz-adv-x="452" d="M116 613Q116 568 165 559Q175 540 175 521Q175 497 154 481T103 464Q71 464 48 488T25 562Q25 628 66 683T165 738Q196 738 196 700Q196 690 195 685H190Q158 685 137 663T116 613ZM338
613Q338 568 387 559Q397 540 397 521Q397 497 376 481T325 464Q293 464 270 488T247 562Q247 628 288 683T387 738Q418 738 418 700Q418 690 417 685H412Q380 685 359 663T338 613Z" />
<glyph unicode="&#x201d;" glyph-name="quotedblright" horiz-adv-x="495" d="M344 591Q344 636 295 645Q285 664 285 683Q285 707 306 723T357 740Q389 740 412 716T435 642Q435 576 394 521T295 466Q264 466 264 504Q264 514 265 519H270Q302 519 323 541T344
591ZM122 591Q122 636 73 645Q63 664 63 683Q63 707 84 723T135 740Q167 740 190 716T213 642Q213 576 172 521T73 466Q42 466 42 504Q42 514 43 519H48Q80 519 101 541T122 591Z" />
<glyph unicode="&#x201e;" glyph-name="quotedblbase" horiz-adv-x="455" d="M322 -29Q322 16 273 25Q263 44 263 63Q263 87 284 103T335 120Q367 120 390 96T413 22Q413 -44 372 -99T273 -154Q242 -154 242 -116Q242 -106 243 -101H248Q280 -101 301 -79T322
-29ZM102 -29Q102 16 53 25Q43 44 43 63Q43 87 64 103T115 120Q147 120 170 96T193 22Q193 -44 152 -99T53 -154Q22 -154 22 -116Q22 -106 23 -101H28Q60 -101 81 -79T102 -29Z" />
<glyph unicode="&#x2022;" glyph-name="bullet" horiz-adv-x="288" d="M145 152Q93 152 57 185T21 270Q21 320 57 355T145 390Q195 390 231 355T267 270Q267 218 232 185T145 152Z" />
<glyph unicode="&#x2039;" glyph-name="guilsinglleft" horiz-adv-x="301" d="M250 398Q250 384 216 332T146 238Q181 197 215 146T250 79Q250 62 212 38Q140 98 34 238Q136 376 212 439Q250 415 250 398Z" />
<glyph unicode="&#x203a;" glyph-name="guilsinglright" horiz-adv-x="301" d="M34 78Q34 92 68 144T138 238Q103 279 69 330T34 397Q34 414 72 438Q144 378 250 238Q148 100 72 37Q34 61 34 78Z" />
</font>
</defs>
</svg>
