<?xml version="1.0" standalone="no"?>
<!DOCTYPE svg PUBLIC "-//W3C//DTD SVG 1.1//EN" "http://www.w3.org/Graphics/SVG/1.1/DTD/svg11.dtd">
<svg xmlns="http://www.w3.org/2000/svg">
<defs >
<font id="Orbitron" horiz-adv-x="552" ><font-face
    font-family="Orbitron"
    units-per-em="1000"
    panose-1="2 0 0 0 0 0 0 0 0 0"
    ascent="750"
    descent="-250"
    alphabetic="0" />
<glyph unicode=" " glyph-name="space" horiz-adv-x="272" />
<glyph unicode="!" glyph-name="exclam" horiz-adv-x="220" d="M140 0H58V82H140V0ZM58 203V720H140V203H58Z" />
<glyph unicode="&quot;" glyph-name="quotedbl" horiz-adv-x="372" d="M141 720V580H59V720H141ZM296 720V580H214V720H296Z" />
<glyph unicode="#" glyph-name="numbersign" horiz-adv-x="797" d="M773 555V473H652L581 253H740V171H555L502 0H420L474 171H214L161 0H79L133 171H32V253H159L230 473H64V555H256L312 719H393L336 555H597L653 719H734L677 555H773ZM241 253H500L571 473H311L241 253Z" />
<glyph unicode="$" glyph-name="dollar" horiz-adv-x="788" d="M762 599V571H679V599Q679 615 668 626T640 638H439V402H640Q691 402 726 367T762 281V121Q762 71 727 36T640 0H439V-114H357V0H155Q105 0 70 35T34 121V150H116V121Q116 105 127 94T155 82H357V320H155Q105
320 70 355T34 441V599Q34 650 69 685T155 721H357V835H439V721H640Q691 721 726 686T762 599ZM640 320H439V82H640Q656 82 667 93T679 121V281Q679 297 668 308T640 320ZM357 402V638H155Q139 638 128 627T116 599V441Q116 425 127 414T155 402H357Z" />
<glyph unicode="%" glyph-name="percent" horiz-adv-x="966" d="M137 0V108L865 721V614L137 0ZM170 720H264Q315 720 350 685T386 598V514Q386 464 351 429T264 393H170Q119 393 84 428T48 514V598Q48 649 83 684T170 720ZM148 454H286Q302 454 313 465T325 493V619Q325
635 314 646T286 658H148Q132 658 121 647T109 619V493Q109 477 120 466T148 454ZM716 326H811Q861 326 896 291T932 205V120Q932 70 897 35T811 -1H716Q665 -1 630 34T595 120V205Q595 255 630 290T716 326ZM695 60H832Q848 60 859 71T871 99V226Q871 242 860
253T832 265H695Q679 265 668 254T656 226V99Q656 83 667 72T695 60Z" />
<glyph unicode="&amp;" glyph-name="ampersand" horiz-adv-x="938" d="M780 167L914 88V16L777 93Q760 51 729 26T659 0H174Q124 0 89 35T53 121V336Q53 358 80 379T152 401Q95 444 95 497V597Q95 648 130 683T216 719H627Q668 719 702 689T749 617V562H666V596Q666
612 655 623T627 635H216Q200 635 189 624T177 596V457L698 194V333H780V167ZM174 82H659Q670 82 681 92T699 118L189 375H174Q158 375 147 364T135 336V121Q135 105 146 94T174 82Z" />
<glyph unicode="&apos;" glyph-name="quotesingle" horiz-adv-x="224" d="M141 720V580H59V720H141Z" />
<glyph unicode="(" glyph-name="parenleft" horiz-adv-x="277" d="M173 82H202V0H173Q123 0 88 35T52 121V598Q52 649 87 684T173 720H202V637H173Q157 637 146 626T134 598V121Q134 105 145 94T173 82Z" />
<glyph unicode=")" glyph-name="parenright" horiz-adv-x="278" d="M56 0V82H84Q100 82 111 93T123 121V598Q123 614 112 625T84 637H56V720H84Q134 720 170 685T206 598V121Q206 71 170 36T84 0H56Z" />
<glyph unicode="*" glyph-name="asterisk" horiz-adv-x="491" d="M423 614L450 535L304 488L394 363Q382 354 362 339T328 315L237 438L147 315Q132 326 111 340T80 362L170 488L25 535L49 614L196 565V719H278V566L423 614Z" />
<glyph unicode="+" glyph-name="plus" horiz-adv-x="433" d="M169 490H251V337H407V255H251V100H169V255H17V337H169V490Z" />
<glyph unicode="," glyph-name="comma" horiz-adv-x="193" d="M54 82H136V-16Q136 -56 113 -87T54 -131V82Z" />
<glyph unicode="-" glyph-name="hyphen" horiz-adv-x="517" d="M449 337V255H59V337H449Z" />
<glyph unicode="." glyph-name="period" horiz-adv-x="214" d="M136 82V0H54V82H136Z" />
<glyph unicode="/" glyph-name="slash" horiz-adv-x="521" d="M6 106L512 720V616L6 0V106Z" />
<glyph unicode="0" glyph-name="zero" horiz-adv-x="834" d="M178 720H663Q713 720 748 685T784 598V121Q784 71 749 36T663 0H178Q127 0 92 35T57 121V598Q57 649 92 684T178 720ZM691 637H178Q162 637 151 626T139 598V181L691 637ZM149 82H663Q679 82 690 93T702
121V538L149 82Z" />
<glyph unicode="1" glyph-name="one" horiz-adv-x="391" d="M1 495L190 720H302V0H219V628Q205 610 164 561T108 495H1Z" />
<glyph unicode="2" glyph-name="two" horiz-adv-x="830" d="M178 721H663Q713 721 748 686T784 599V430Q784 380 749 345T663 309H178Q162 309 151 298T139 270V121Q139 105 150 94T178 82H784V0H57V270Q57 321 92 356T178 391H663Q679 391 690 402T702 430V599Q702
615 691 626T663 638H178Q162 638 151 627T139 599V571H57V599Q57 650 92 685T178 721Z" />
<glyph unicode="3" glyph-name="three" horiz-adv-x="826" d="M737 396L741 378Q781 341 781 288V121Q781 71 746 36T660 0H175Q124 0 89 35T53 121V137H136V121Q136 105 147 94T175 82H660Q676 82 687 93T699 121V288Q699 304 688 315T660 327H191V409H628Q644
409 655 420T667 448V599Q667 615 656 626T628 638H175Q159 638 148 627T136 599V573H53V599Q53 650 88 685T175 721H628Q679 721 714 686T749 599V448Q749 422 737 396Z" />
<glyph unicode="4" glyph-name="four" horiz-adv-x="730" d="M590 268H702V186H590V0H508V186H6V278L498 721H590V268ZM508 590L111 268H508V590Z" />
<glyph unicode="5" glyph-name="five" horiz-adv-x="830" d="M139 599V452Q139 436 150 424T178 412H663Q713 412 748 377T784 291V121Q784 71 749 36T663 0H178Q127 0 92 35T57 121V150H139V121Q139 105 150 94T178 82H663Q679 82 690 93T702 121V291Q702 307
691 318T663 330H57V721H784V638H178Q162 638 151 627T139 599Z" />
<glyph unicode="6" glyph-name="six" horiz-adv-x="820" d="M178 415H663Q713 415 748 380T784 294V121Q784 71 749 36T663 0H178Q127 0 92 35T57 121V599Q57 650 92 685T178 721H658V638H178Q162 638 151 627T139 599V455Q139 439 150 427T178 415ZM702 121V294Q702
310 691 321T663 333H139V121Q139 105 150 94T178 82H663Q679 82 690 93T702 121Z" />
<glyph unicode="7" glyph-name="seven" horiz-adv-x="660" d="M483 638H3V721H483Q533 721 568 686T604 599V0H522V599Q522 615 511 626T483 638Z" />
<glyph unicode="8" glyph-name="eight" horiz-adv-x="834" d="M784 619V452Q784 412 754 371Q784 332 784 291V121Q784 71 749 36T663 0H178Q127 0 92 35T57 121V291Q57 332 87 371Q57 412 57 452V599Q57 650 92 685T178 721H663Q703 721 737 691T784 619ZM702
121V291Q702 307 691 318T663 330H178Q162 330 151 319T139 291V121Q139 105 150 94T178 82H663Q679 82 690 93T702 121ZM702 440V598Q702 614 691 625T663 637H178Q162 637 151 626T139 598V440Q139 424 150 413T178 401H663Q679 401 690 412T702 440Z" />
<glyph unicode="9" glyph-name="nine" horiz-adv-x="828" d="M658 305H173Q122 305 87 340T51 426V599Q51 650 86 685T173 721H658Q708 721 743 686T779 599V121Q779 71 744 36T658 0H173Q134 0 102 23T58 82H658Q674 82 685 93T697 121V266Q697 282 686 293T658
305ZM134 599V426Q134 410 145 399T173 387H697V599Q697 615 686 626T658 638H173Q157 638 146 627T134 599Z" />
<glyph unicode=":" glyph-name="colon" horiz-adv-x="214" d="M54 82H136V0H54V82ZM136 588V506H54V588H136Z" />
<glyph unicode=";" glyph-name="semicolon" horiz-adv-x="193" d="M133 588V506H51V588H133ZM51 82H133V-16Q133 -56 110 -87T51 -131V82Z" />
<glyph unicode="&lt;" glyph-name="less" horiz-adv-x="473" d="M87 296L407 111V16L5 248V345L407 576V481L87 296Z" />
<glyph unicode="=" glyph-name="equal" horiz-adv-x="638" d="M576 233V151H59V233H576ZM576 433V351H59V433H576Z" />
<glyph unicode="&gt;" glyph-name="greater" horiz-adv-x="475" d="M59 14V109L379 294L59 479V574L461 343V246L59 14Z" />
<glyph unicode="?" glyph-name="question" horiz-adv-x="678" d="M31 720L548 719Q598 719 633 684T669 597V403Q669 353 634 318T548 282H274Q258 282 247 271T235 243V201H153V243Q153 294 188 329T274 364H548Q564 364 575 375T587 403V597Q587 613 576 624T548
636H31V720ZM235 0H153V82H235V0Z" />
<glyph unicode="@" glyph-name="at" horiz-adv-x="831" d="M373 519H468Q518 519 553 484T589 398V254H702V598Q702 614 691 625T663 637H178Q162 637 151 626T139 598V121Q139 105 150 94T178 82H784V0H178Q127 0 92 35T57 121V598Q57 649 92 684T178 720H663Q713
720 748 685T784 598V192H373Q322 192 287 227T252 314V398Q252 448 287 483T373 519ZM352 254H528V419Q528 435 517 446T489 458H352Q336 458 325 447T313 419V293Q313 277 324 266T352 254Z" />
<glyph unicode="A" glyph-name="A" horiz-adv-x="836" d="M178 720H658Q708 720 743 685T778 600V0H697V263H139V0H58V600Q58 650 93 685T178 720ZM139 344H697V600Q697 616 686 627T658 639H178Q162 639 151 628T139 600V344Z" />
<glyph unicode="B" glyph-name="B" horiz-adv-x="832" d="M735 394L739 377Q779 340 779 288V120Q779 70 744 35T659 0H59V720H628Q678 720 713 685T748 600V447Q748 420 735 394ZM628 639H179Q163 639 152 628T140 600V447Q140 431 151 420T179 408H628Q644 408
655 419T666 447V600Q666 616 655 627T628 639ZM698 120V288Q698 304 687 315T659 327H179Q163 327 152 316T140 288V120Q140 104 151 93T179 81H659Q675 81 686 92T698 120Z" />
<glyph unicode="C" glyph-name="C" horiz-adv-x="822" d="M774 639H176Q160 639 149 628T137 600V120Q137 104 148 93T176 81H774V0H176Q126 0 91 35T56 120V600Q56 650 91 685T176 720H774V639Z" />
<glyph unicode="D" glyph-name="D" horiz-adv-x="834" d="M58 720H658Q708 720 743 685T778 600V120Q778 70 743 35T658 0H58V720ZM697 120V600Q697 616 686 627T658 639H178Q162 639 151 628T139 600V120Q139 104 150 93T178 81H658Q674 81 685 92T697 120Z" />
<glyph unicode="E" glyph-name="E" horiz-adv-x="766" d="M715 720V639H139V401H602V319H139V81H715V0H58V720H715Z" />
<glyph unicode="F" glyph-name="F" horiz-adv-x="723" d="M58 720H715V639H139V401H602V319H139V0H58V720Z" />
<glyph unicode="G" glyph-name="G" horiz-adv-x="830" d="M776 600V571H695V600Q695 616 684 627T656 639H176Q160 639 149 628T137 600V120Q137 104 148 93T176 81H656Q672 81 683 92T695 120V298H517V380H776V120Q776 70 741 35T656 0H176Q126 0 91 35T56 120V600Q56
650 91 685T176 720H656Q706 720 741 685T776 600Z" />
<glyph unicode="H" glyph-name="H" horiz-adv-x="851" d="M713 720H795V0H713V319H138V0H57V720H138V401H713V720Z" />
<glyph unicode="I" glyph-name="I" horiz-adv-x="220" d="M57 0V720H138V0H57Z" />
<glyph unicode="J" glyph-name="J" horiz-adv-x="780" d="M643 120V720H724V120Q724 70 689 35T604 0H124Q74 0 39 35T4 120V177H85V120Q85 104 96 93T124 81H604Q620 81 631 92T643 120Z" />
<glyph unicode="K" glyph-name="K" horiz-adv-x="797" d="M639 720H743L442 360L744 0H639L371 319H139V0H57V720H139V401H371L639 720Z" />
<glyph unicode="L" glyph-name="L" horiz-adv-x="779" d="M57 0V721H138V81H777V0H57Z" />
<glyph unicode="M" glyph-name="M" horiz-adv-x="928" d="M466 364L765 720H876V0H795V628L466 237L137 628V0H56V720H167L466 364Z" />
<glyph unicode="N" glyph-name="N" horiz-adv-x="832" d="M695 92V720H776V0H665L137 628V0H56V720H167L695 92Z" />
<glyph unicode="O" glyph-name="O" horiz-adv-x="828" d="M174 720H654Q704 720 739 685T774 600V120Q774 70 739 35T654 0H174Q124 0 89 35T54 120V600Q54 650 89 685T174 720ZM174 81H654Q670 81 681 92T693 120V600Q693 616 682 627T654 639H174Q158 639 147
628T135 600V120Q135 104 146 93T174 81Z" />
<glyph unicode="P" glyph-name="P" horiz-adv-x="791" d="M56 719H656Q706 719 741 684T776 599V388Q776 338 741 303T656 268H176Q167 268 137 272V0H56V719ZM695 388V599Q695 615 684 626T656 638H176Q160 638 149 627T137 599V388Q137 372 148 361T176 350H656Q672
350 683 361T695 388Z" />
<glyph unicode="Q" glyph-name="Q" horiz-adv-x="884" d="M770 81H868V0H174Q124 0 89 35T54 120V600Q54 650 89 685T174 720H654Q704 720 739 685T774 600V120Q774 111 770 81ZM174 81H654Q670 81 681 92T693 120V600Q693 616 682 627T654 639H174Q158 639 147
628T135 600V120Q135 104 146 93T174 81Z" />
<glyph unicode="R" glyph-name="R" horiz-adv-x="825" d="M775 599V388Q775 338 740 303T655 268H545L771 0H664L439 268H175Q166 268 136 272V0H55V719H655Q705 719 740 684T775 599ZM175 350H655Q671 350 682 361T693 388V599Q693 615 682 626T655 638H175Q159
638 148 627T136 599V388Q136 372 147 361T175 350Z" />
<glyph unicode="S" glyph-name="S" horiz-adv-x="822" d="M771 600V572H690V600Q690 616 679 627T651 639H171Q155 639 144 628T132 600V439Q132 423 143 412T171 401H651Q701 401 736 366T771 281V120Q771 70 736 35T651 0H171Q121 0 86 35T51 120V148H132V120Q132
104 143 93T171 81H651Q667 81 678 92T690 120V281Q690 297 679 308T651 319H171Q121 319 86 354T51 439V600Q51 650 86 685T171 720H651Q701 720 736 685T771 600Z" />
<glyph unicode="T" glyph-name="T" horiz-adv-x="759" d="M20 720H740V639H421V0H340V639H20V720Z" />
<glyph unicode="U" glyph-name="U" horiz-adv-x="828" d="M693 120V720H774V120Q774 70 739 35T654 0H174Q124 0 89 35T54 120V720H135V120Q135 104 146 93T174 81H654Q670 81 681 92T693 120Z" />
<glyph unicode="V" glyph-name="V" horiz-adv-x="1003" d="M499 79L867 720H962L546 0H452L35 720H130L499 79Z" />
<glyph unicode="W" glyph-name="W" horiz-adv-x="1179" d="M1060 720H1148L886 0H815L591 615L367 0H297L35 720H121L332 142L542 720H640L851 142L1060 720Z" />
<glyph unicode="X" glyph-name="X" horiz-adv-x="812" d="M651 720H755L453 360L756 0H651L401 297L150 0H46L348 360L46 720H150L401 423L651 720Z" />
<glyph unicode="Y" glyph-name="Y" horiz-adv-x="806" d="M665 720H760L429 271V0H348V271L17 720H110L389 368L665 720Z" />
<glyph unicode="Z" glyph-name="Z" horiz-adv-x="821" d="M51 639V720H771V609L143 81H771V0H51V111L679 639H51Z" />
<glyph unicode="[" glyph-name="bracketleft" horiz-adv-x="275" d="M54 0V721H204V638H136V82H204V0H54Z" />
<glyph unicode="\" glyph-name="backslash" horiz-adv-x="520" d="M511 107V1L5 621V725L511 107Z" />
<glyph unicode="]" glyph-name="bracketright" horiz-adv-x="276" d="M51 638V721H201V0H51V82H118V638H51Z" />
<glyph unicode="_" glyph-name="underscore" horiz-adv-x="828" d="M782 0V-82H54V0H782Z" />
<glyph unicode="`" glyph-name="grave" horiz-adv-x="213" d="M113 1011L147 872H67L32 1011H113Z" />
<glyph unicode="a" glyph-name="a" horiz-adv-x="694" d="M521 580Q572 580 607 545T643 459V0H173Q123 0 88 35T52 121V331H560V459Q560 475 549 486T521 498H52V580H521ZM560 82V249H134V121Q134 105 145 94T173 82H560Z" />
<glyph unicode="b" glyph-name="b" horiz-adv-x="667" d="M524 580Q574 580 609 545T645 459V121Q645 71 610 36T524 0H54V770H136V580H524ZM563 121V459Q563 475 552 486T524 498H176Q160 498 148 487T136 459V121Q136 105 148 94T176 82H524Q540 82 551 93T563 121Z" />
<glyph unicode="c" glyph-name="c" horiz-adv-x="695" d="M172 82H642V0H172Q122 0 87 35T51 121V459Q51 509 86 544T172 580H640V498H172Q156 498 145 487T133 459V121Q133 105 144 94T172 82Z" />
<glyph unicode="d" glyph-name="d" horiz-adv-x="667" d="M532 770H614V0H145Q94 0 59 35T23 121V459Q23 509 58 544T145 580H532V770ZM145 82H493Q509 82 520 93T532 121V459Q532 475 521 486T493 498H145Q129 498 118 487T106 459V121Q106 105 117 94T145 82Z" />
<glyph unicode="e" glyph-name="e" horiz-adv-x="692" d="M520 580Q571 580 606 545T642 459V249H133V121Q133 105 144 94T172 82H642V0H172Q122 0 87 35T51 121V459Q51 509 86 544T172 580H520ZM133 331H559V459Q559 475 548 486T520 498H172Q156 498 145 487T133
459V331Z" />
<glyph unicode="f" glyph-name="f" horiz-adv-x="407" d="M174 688Q158 688 147 677T135 649V580H386V498H135V0H53V649Q53 700 88 735T174 770H386V688H174Z" />
<glyph unicode="g" glyph-name="g" horiz-adv-x="683" d="M631 -107Q631 -158 596 -193T510 -229H148V-146H510Q526 -146 537 -135T549 -107V0H162Q112 0 77 35T41 121V459Q41 509 76 544T162 580H510Q561 580 596 545T631 459V-107ZM162 82H510Q526 82 537 93T549
121V459Q549 475 538 486T510 498H162Q146 498 135 487T123 459V121Q123 105 134 94T162 82Z" />
<glyph unicode="h" glyph-name="h" horiz-adv-x="668" d="M524 580Q574 580 609 545T645 459V0H563V459Q563 475 552 486T524 498H176Q160 498 148 487T136 459V0H54V770H136V580H524Z" />
<glyph unicode="i" glyph-name="i" horiz-adv-x="208" d="M52 0V580H134V0H52ZM52 770H134V688H52V770Z" />
<glyph unicode="j" glyph-name="j" horiz-adv-x="239" d="M97 770H180V688H97V770ZM180 580V-121Q180 -172 145 -207T58 -243H-187V-160H58Q74 -160 85 -149T97 -121V580H180Z" />
<glyph unicode="k" glyph-name="k" horiz-adv-x="646" d="M524 580H632L369 290L631 0H524L296 249H136V0H54V770H136V331H296L524 580Z" />
<glyph unicode="l" glyph-name="l" horiz-adv-x="302" d="M52 770H134V121Q134 105 145 94T173 82H271V0H173Q123 0 88 35T52 121V770Z" />
<glyph unicode="m" glyph-name="m" horiz-adv-x="978" d="M820 580Q871 580 906 545T941 459V0H860V459Q860 475 848 486T820 498H579Q563 498 552 487T540 459V0H457V459Q457 475 446 486T418 498H176Q160 498 149 487T137 459V0H54V580H820Z" />
<glyph unicode="n" glyph-name="n" horiz-adv-x="696" d="M524 580Q574 580 609 545T645 459V0H563V459Q563 475 552 486T524 498H176Q160 498 148 487T136 459V0H54V580H524Z" />
<glyph unicode="o" glyph-name="o" horiz-adv-x="692" d="M172 580H520Q571 580 606 545T642 459V121Q642 71 607 36T520 0H172Q122 0 87 35T51 121V459Q51 509 86 544T172 580ZM520 498H172Q156 498 145 487T133 459V121Q133 105 144 94T172 82H520Q536 82 547
93T559 121V459Q559 475 548 486T520 498Z" />
<glyph unicode="p" glyph-name="p" horiz-adv-x="664" d="M524 580Q574 580 609 545T645 459V121Q645 71 610 36T524 0H136V-230H54V580H524ZM563 121V459Q563 475 552 486T524 498H176Q160 498 148 487T136 459V121Q136 105 148 94T176 82H524Q540 82 551 93T563 121Z" />
<glyph unicode="q" glyph-name="q" horiz-adv-x="664" d="M20 459Q20 509 55 544T142 580H611V-230H529V0H142Q91 0 56 35T20 121V459ZM103 459V121Q103 105 114 94T142 82H490Q506 82 517 93T529 121V459Q529 475 518 486T490 498H142Q126 498 115 487T103 459Z" />
<glyph unicode="r" glyph-name="r" horiz-adv-x="512" d="M173 580H499V498H173Q157 498 146 487T134 459V0H52V459Q52 509 87 544T173 580Z" />
<glyph unicode="s" glyph-name="s" horiz-adv-x="686" d="M639 459V451H556V459Q556 475 545 486T517 498H169Q153 498 142 487T130 459V370Q130 354 141 343T169 331H517Q568 331 603 296T639 210V121Q639 71 604 36T517 0H169Q119 0 84 35T48 121V129H130V121Q130
105 141 94T169 82H517Q533 82 544 93T556 121V210Q556 226 545 237T517 249H169Q119 249 84 284T48 370V459Q48 509 83 544T169 580H517Q568 580 603 545T639 459Z" />
<glyph unicode="t" glyph-name="t" horiz-adv-x="410" d="M386 498H135V121Q135 105 146 94T174 82H386V0H174Q123 0 88 35T53 121V770H135V580H386V498Z" />
<glyph unicode="u" glyph-name="u" horiz-adv-x="695" d="M562 580H644V121Q644 71 609 36T522 0H174Q124 0 89 35T53 121V580H135V121Q135 105 146 94T174 82H522Q538 82 550 93T562 121V580Z" />
<glyph unicode="v" glyph-name="v" horiz-adv-x="790" d="M661 580H757L436 0H341L21 580H117L389 80L661 580Z" />
<glyph unicode="w" glyph-name="w" horiz-adv-x="1071" d="M957 580H1046L827 0H756L540 479L335 0H263L35 580H123L299 148L486 580H594L793 149L957 580Z" />
<glyph unicode="x" glyph-name="x" horiz-adv-x="692" d="M531 580H638L396 295L639 0H531L342 232L154 0H46L288 295L46 580H154L342 360L531 580Z" />
<glyph unicode="y" glyph-name="y" horiz-adv-x="685" d="M632 -108Q632 -159 597 -194T511 -230H149V-147H511Q527 -147 538 -136T550 -108V0H163Q113 0 78 35T42 121V578H124V121Q124 105 135 94T163 82H511Q527 82 538 93T550 121V578H632V-108Z" />
<glyph unicode="z" glyph-name="z" horiz-adv-x="698" d="M54 498V580H645V468L144 82H645V0H54V112L555 498H54Z" />
<glyph unicode="{" glyph-name="braceleft" horiz-adv-x="289" d="M152 291V121Q152 105 163 94T191 82H220V0H191Q141 0 106 35T70 121V284Q64 288 47 298T23 313V409L70 434V598Q70 649 105 684T191 720H220V637H191Q175 637 164 626T152 598V427L68 360L152 291Z" />
<glyph unicode="|" glyph-name="bar" horiz-adv-x="214" d="M54 -115V842H136V-115H54Z" />
<glyph unicode="}" glyph-name="braceright" horiz-adv-x="289" d="M119 121V290L203 359L119 425V598Q119 614 108 625T80 637H51V720H80Q130 720 165 685T201 598V434Q209 430 226 420T247 407V312L201 283V121Q201 71 166 36T80 0H51V82H80Q96 82 107 93T119 121Z" />
<glyph unicode="~" glyph-name="asciitilde" horiz-adv-x="404" d="M295 283H297Q329 283 363 299V258Q328 245 297 245Q262 245 195 280T86 316Q47 316 24 308V345Q51 354 86 354Q126 354 193 321T295 283Z" />
<glyph unicode="&#xa1;" glyph-name="exclamdown" horiz-adv-x="210" d="M135 728V645H53V728H135ZM135 0H53V517H135V0Z" />
<glyph unicode="&#xa2;" glyph-name="cent" horiz-adv-x="636" d="M621 508H369V82H621V0H369V-115H287V0H154Q103 0 68 35T33 121V469Q33 520 68 555T154 591H287V726H369V591H621V508ZM287 82V508H154Q138 508 127 497T115 469V121Q115 105 126 94T154 82H287Z" />
<glyph unicode="&#xa3;" glyph-name="sterling" horiz-adv-x="734" d="M691 583H608V598Q608 614 597 625T569 637H266Q250 637 239 626T227 598V405H579V323H227V82H691V0H39V82H144V323H39V405H144V598Q144 649 179 684T266 720H569Q620 720 655 685T691 598V583Z" />
<glyph unicode="&#xa8;" glyph-name="dieresis" horiz-adv-x="385" d="M316 954V872H234V954H316ZM137 954V872H54V954H137Z" />
<glyph unicode="&#xb0;" glyph-name="degree" horiz-adv-x="439" d="M167 728H261Q312 728 347 693T383 606V522Q383 472 348 437T261 401H167Q116 401 81 436T45 522V606Q45 657 80 692T167 728ZM145 462H283Q299 462 310 473T322 501V627Q322 643 311 654T283
666H145Q129 666 118 655T106 627V501Q106 485 117 474T145 462Z" />
<glyph unicode="&#xb4;" glyph-name="acute" horiz-adv-x="213" d="M33 872L68 1011H147L113 872H33Z" />
<glyph unicode="&#xb6;" glyph-name="paragraph" horiz-adv-x="833" d="M56 605Q56 656 91 691T177 727H783V0H701V271H563V0H481V271H177Q126 271 91 306T56 392V605ZM563 644V353H701V644H563ZM138 605V392Q138 376 149 365T177 353H481V644H177Q161 644 150
633T138 605Z" />
<glyph unicode="&#xb8;" glyph-name="cedilla" horiz-adv-x="213" d="M33 -171L68 -32H147L113 -171H33Z" />
<glyph unicode="&#xbf;" glyph-name="questiondown" horiz-adv-x="675" d="M656 -8L140 0Q89 0 54 35T19 121V315Q19 366 54 401T140 437H413Q429 437 440 448T452 476V524H534V476Q534 425 499 390T413 354H140Q124 354 113 343T101 315V121Q101 105 112 94T140
82H648Q648 53 650 31T654 0L656 -8ZM534 728V645H452V728H534Z" />
<glyph unicode="&#xc0;" glyph-name="Agrave" horiz-adv-x="836" d="M178 720H658Q708 720 743 685T778 600V0H697V263H139V0H58V600Q58 650 93 685T178 720ZM139 344H697V600Q697 616 686 627T658 639H178Q162 639 151 628T139 600V344ZM425 1004L459 865H379L344
1004H425Z" />
<glyph unicode="&#xc1;" glyph-name="Aacute" horiz-adv-x="836" d="M178 720H658Q708 720 743 685T778 600V0H697V263H139V0H58V600Q58 650 93 685T178 720ZM139 344H697V600Q697 616 686 627T658 639H178Q162 639 151 628T139 600V344ZM344 864L379 1003H458L424
864H344Z" />
<glyph unicode="&#xc2;" glyph-name="Acircumflex" horiz-adv-x="836" d="M178 720H658Q708 720 743 685T778 600V0H697V263H139V0H58V600Q58 650 93 685T178 720ZM139 344H697V600Q697 616 686 627T658 639H178Q162 639 151 628T139 600V344ZM337 864H296L367
981H426L497 864H455L397 949L337 864Z" />
<glyph unicode="&#xc3;" glyph-name="Atilde" horiz-adv-x="836" d="M178 720H658Q708 720 743 685T778 600V0H697V263H139V0H58V600Q58 650 93 685T178 720ZM139 344H697V600Q697 616 686 627T658 639H178Q162 639 151 628T139 600V344ZM513 917H515Q545 917
581 934V883Q543 869 515 869Q480 869 413 905T304 941Q265 941 242 933V980Q269 989 304 989Q344 989 411 956T513 917Z" />
<glyph unicode="&#xc4;" glyph-name="Adieresis" horiz-adv-x="836" d="M178 720H658Q708 720 743 685T778 600V0H697V263H139V0H58V600Q58 650 93 685T178 720ZM139 344H697V600Q697 616 686 627T658 639H178Q162 639 151 628T139 600V344ZM541 937V855H459V937H541ZM362
937V855H279V937H362Z" />
<glyph unicode="&#xc5;" glyph-name="Aring" horiz-adv-x="836" d="M178 720H658Q708 720 743 685T778 600V0H697V263H139V0H58V600Q58 650 93 685T178 720ZM139 344H697V600Q697 616 686 627T658 639H178Q162 639 151 628T139 600V344ZM390 981H446Q468 981 484
966T500 928V874Q500 852 484 837T446 821H390Q368 821 352 836T336 874V928Q336 950 352 965T390 981ZM385 861H451Q460 861 460 871V931Q460 941 451 941H385Q376 941 376 931V871Q376 861 385 861Z" />
<glyph unicode="&#xc6;" glyph-name="AE" horiz-adv-x="1375" d="M774 639V401H1237V319H774V81H1350V0H693V263H135V0H54V600Q54 650 89 685T174 720H1350V639H774ZM693 344V600Q693 616 682 627T654 639H174Q158 639 147 628T135 600V344H693Z" />
<glyph unicode="&#xc7;" glyph-name="Ccedilla" horiz-adv-x="822" d="M774 639H176Q160 639 149 628T137 600V120Q137 104 148 93T176 81H774V0H451L417 -139H337L372 0H176Q126 0 91 35T56 120V600Q56 650 91 685T176 720H774V639Z" />
<glyph unicode="&#xc8;" glyph-name="Egrave" horiz-adv-x="766" d="M715 720V639H139V401H602V319H139V81H715V0H58V720H715ZM390 1004L424 865H344L309 1004H390Z" />
<glyph unicode="&#xc9;" glyph-name="Eacute" horiz-adv-x="766" d="M715 720V639H139V401H602V319H139V81H715V0H58V720H715ZM309 865L344 1004H423L389 865H309Z" />
<glyph unicode="&#xca;" glyph-name="Ecircumflex" horiz-adv-x="766" d="M715 720V639H139V401H602V319H139V81H715V0H58V720H715ZM302 864H261L332 981H391L462 864H420L362 949L302 864Z" />
<glyph unicode="&#xcb;" glyph-name="Edieresis" horiz-adv-x="766" d="M715 720V639H139V401H602V319H139V81H715V0H58V720H715ZM506 947V865H424V947H506ZM327 947V865H244V947H327Z" />
<glyph unicode="&#xcc;" glyph-name="Igrave" horiz-adv-x="220" d="M57 0V720H138V0H57ZM117 1004L151 865H71L36 1004H117Z" />
<glyph unicode="&#xcd;" glyph-name="Iacute" horiz-adv-x="220" d="M57 0V720H138V0H57ZM36 865L71 1004H150L116 865H36Z" />
<glyph unicode="&#xce;" glyph-name="Icircumflex" horiz-adv-x="220" d="M57 0V720H138V0H57ZM29 864H-12L59 981H118L189 864H147L89 949L29 864Z" />
<glyph unicode="&#xcf;" glyph-name="Idieresis" horiz-adv-x="220" d="M57 0V720H138V0H57ZM233 947V865H151V947H233ZM54 947V865H-29V947H54Z" />
<glyph unicode="&#xd1;" glyph-name="Ntilde" horiz-adv-x="832" d="M695 92V720H776V0H665L137 628V0H56V720H167L695 92ZM511 917H513Q543 917 579 934V883Q541 869 513 869Q478 869 411 905T302 941Q263 941 240 933V980Q267 989 302 989Q342 989 409 956T511 917Z" />
<glyph unicode="&#xd2;" glyph-name="Ograve" horiz-adv-x="828" d="M174 720H654Q704 720 739 685T774 600V120Q774 70 739 35T654 0H174Q124 0 89 35T54 120V600Q54 650 89 685T174 720ZM174 81H654Q670 81 681 92T693 120V600Q693 616 682 627T654 639H174Q158
639 147 628T135 600V120Q135 104 146 93T174 81ZM421 1004L455 865H375L340 1004H421Z" />
<glyph unicode="&#xd3;" glyph-name="Oacute" horiz-adv-x="828" d="M174 720H654Q704 720 739 685T774 600V120Q774 70 739 35T654 0H174Q124 0 89 35T54 120V600Q54 650 89 685T174 720ZM174 81H654Q670 81 681 92T693 120V600Q693 616 682 627T654 639H174Q158
639 147 628T135 600V120Q135 104 146 93T174 81ZM340 865L375 1004H454L420 865H340Z" />
<glyph unicode="&#xd4;" glyph-name="Ocircumflex" horiz-adv-x="828" d="M174 720H654Q704 720 739 685T774 600V120Q774 70 739 35T654 0H174Q124 0 89 35T54 120V600Q54 650 89 685T174 720ZM174 81H654Q670 81 681 92T693 120V600Q693 616 682 627T654 639H174Q158
639 147 628T135 600V120Q135 104 146 93T174 81ZM333 864H292L363 981H422L493 864H451L393 949L333 864Z" />
<glyph unicode="&#xd5;" glyph-name="Otilde" horiz-adv-x="828" d="M174 720H654Q704 720 739 685T774 600V120Q774 70 739 35T654 0H174Q124 0 89 35T54 120V600Q54 650 89 685T174 720ZM174 81H654Q670 81 681 92T693 120V600Q693 616 682 627T654 639H174Q158
639 147 628T135 600V120Q135 104 146 93T174 81ZM509 917H511Q541 917 577 934V883Q539 869 511 869Q476 869 409 905T300 941Q261 941 238 933V980Q265 989 300 989Q340 989 407 956T509 917Z" />
<glyph unicode="&#xd6;" glyph-name="Odieresis" horiz-adv-x="828" d="M174 720H654Q704 720 739 685T774 600V120Q774 70 739 35T654 0H174Q124 0 89 35T54 120V600Q54 650 89 685T174 720ZM174 81H654Q670 81 681 92T693 120V600Q693 616 682 627T654 639H174Q158
639 147 628T135 600V120Q135 104 146 93T174 81ZM537 947V865H455V947H537ZM358 947V865H275V947H358Z" />
<glyph unicode="&#xd7;" glyph-name="multiply" horiz-adv-x="546" d="M266 362L372 506H478L320 301L478 95H372L266 239L161 95H54L212 301L53 506H161L266 362Z" />
<glyph unicode="&#xd9;" glyph-name="Ugrave" horiz-adv-x="828" d="M693 120V720H774V120Q774 70 739 35T654 0H174Q124 0 89 35T54 120V720H135V120Q135 104 146 93T174 81H654Q670 81 681 92T693 120ZM421 1004L455 865H375L340 1004H421Z" />
<glyph unicode="&#xda;" glyph-name="Uacute" horiz-adv-x="828" d="M693 120V720H774V120Q774 70 739 35T654 0H174Q124 0 89 35T54 120V720H135V120Q135 104 146 93T174 81H654Q670 81 681 92T693 120ZM340 865L375 1004H454L420 865H340Z" />
<glyph unicode="&#xdb;" glyph-name="Ucircumflex" horiz-adv-x="828" d="M693 120V720H774V120Q774 70 739 35T654 0H174Q124 0 89 35T54 120V720H135V120Q135 104 146 93T174 81H654Q670 81 681 92T693 120ZM333 864H292L363 981H422L493 864H451L393 949L333 864Z" />
<glyph unicode="&#xdc;" glyph-name="Udieresis" horiz-adv-x="828" d="M693 120V720H774V120Q774 70 739 35T654 0H174Q124 0 89 35T54 120V720H135V120Q135 104 146 93T174 81H654Q670 81 681 92T693 120ZM537 947V865H455V947H537ZM358 947V865H275V947H358Z" />
<glyph unicode="&#xdd;" glyph-name="Yacute" horiz-adv-x="806" d="M665 720H760L429 271V0H348V271L17 720H110L389 368L665 720ZM329 865L364 1004H443L409 865H329Z" />
<glyph unicode="&#xdf;" glyph-name="germandbls" horiz-adv-x="833" d="M784 626V455Q784 415 754 374Q784 335 784 294V121Q784 71 749 36T663 0H284V82H663Q679 82 690 93T702 121V294Q702 310 691 321T663 333H284V404H663Q679 404 690 415T702 443V605Q702
621 691 632T663 644H178Q162 644 151 633T139 605V0H57V606Q57 657 92 692T178 728H663Q703 728 737 698T784 626Z" />
<glyph unicode="&#xe0;" glyph-name="agrave" horiz-adv-x="725" d="M521 580Q572 580 607 545T643 459V0H173Q123 0 88 35T52 121V331H560V459Q560 475 549 486T521 498H52V580H521ZM560 82V249H134V121Q134 105 145 94T173 82H560ZM369 902L403 763H323L288 902H369Z" />
<glyph unicode="&#xe1;" glyph-name="aacute" horiz-adv-x="725" d="M521 580Q572 580 607 545T643 459V0H173Q123 0 88 35T52 121V331H560V459Q560 475 549 486T521 498H52V580H521ZM560 82V249H134V121Q134 105 145 94T173 82H560ZM288 763L323 902H402L368 763H288Z" />
<glyph unicode="&#xe2;" glyph-name="acircumflex" horiz-adv-x="725" d="M521 580Q572 580 607 545T643 459V0H173Q123 0 88 35T52 121V331H560V459Q560 475 549 486T521 498H52V580H521ZM560 82V249H134V121Q134 105 145 94T173 82H560ZM281 763H240L311 880H370L441
763H399L341 848L281 763Z" />
<glyph unicode="&#xe3;" glyph-name="atilde" horiz-adv-x="725" d="M521 580Q572 580 607 545T643 459V0H173Q123 0 88 35T52 121V331H560V459Q560 475 549 486T521 498H52V580H521ZM560 82V249H134V121Q134 105 145 94T173 82H560ZM457 814H459Q489 814 525
831V780Q487 766 459 766Q424 766 357 802T248 838Q209 838 186 830V877Q213 886 248 886Q288 886 355 853T457 814Z" />
<glyph unicode="&#xe4;" glyph-name="adieresis" horiz-adv-x="725" d="M521 580Q572 580 607 545T643 459V0H173Q123 0 88 35T52 121V331H560V459Q560 475 549 486T521 498H52V580H521ZM560 82V249H134V121Q134 105 145 94T173 82H560ZM485 845V763H403V845H485ZM306
845V763H223V845H306Z" />
<glyph unicode="&#xe5;" glyph-name="aring" horiz-adv-x="725" d="M521 580Q572 580 607 545T643 459V0H173Q123 0 88 35T52 121V331H560V459Q560 475 549 486T521 498H52V580H521ZM560 82V249H134V121Q134 105 145 94T173 82H560ZM334 878H390Q412 878 428 863T444
825V771Q444 749 428 734T390 718H334Q312 718 296 733T280 771V825Q280 847 296 862T334 878ZM329 758H395Q404 758 404 768V828Q404 838 395 838H329Q320 838 320 828V768Q320 758 329 758Z" />
<glyph unicode="&#xe6;" glyph-name="ae" horiz-adv-x="1178" d="M1030 580Q1081 580 1116 545T1151 459V249H643V117Q644 102 655 92T682 82H1151V0H174Q123 0 88 35T53 121V331H561V459Q561 475 550 486T522 498H53V580H1030ZM561 82V249H135V121Q135 105 146
94T174 82H561ZM643 331H1069V459Q1069 475 1058 486T1030 498H682Q666 498 655 487T643 459V331Z" />
<glyph unicode="&#xe7;" glyph-name="ccedilla" horiz-adv-x="693" d="M172 82H642V0H386L352 -139H272L307 0H172Q122 0 87 35T51 121V459Q51 509 86 544T172 580H640V498H172Q156 498 145 487T133 459V121Q133 105 144 94T172 82Z" />
<glyph unicode="&#xe8;" glyph-name="egrave" horiz-adv-x="638" d="M520 580Q571 580 606 545T642 459V249H133V121Q133 105 144 94T172 82H642V0H172Q122 0 87 35T51 121V459Q51 509 86 544T172 580H520ZM133 331H559V459Q559 475 548 486T520 498H172Q156 498
145 487T133 459V331ZM326 902L360 763H280L245 902H326Z" />
<glyph unicode="&#xe9;" glyph-name="eacute" horiz-adv-x="638" d="M520 580Q571 580 606 545T642 459V249H133V121Q133 105 144 94T172 82H642V0H172Q122 0 87 35T51 121V459Q51 509 86 544T172 580H520ZM133 331H559V459Q559 475 548 486T520 498H172Q156 498
145 487T133 459V331ZM245 764L280 903H359L325 764H245Z" />
<glyph unicode="&#xea;" glyph-name="ecircumflex" horiz-adv-x="638" d="M520 580Q571 580 606 545T642 459V249H133V121Q133 105 144 94T172 82H642V0H172Q122 0 87 35T51 121V459Q51 509 86 544T172 580H520ZM133 331H559V459Q559 475 548 486T520 498H172Q156
498 145 487T133 459V331ZM238 763H197L268 880H327L398 763H356L298 848L238 763Z" />
<glyph unicode="&#xeb;" glyph-name="edieresis" horiz-adv-x="638" d="M520 580Q571 580 606 545T642 459V249H133V121Q133 105 144 94T172 82H642V0H172Q122 0 87 35T51 121V459Q51 509 86 544T172 580H520ZM133 331H559V459Q559 475 548 486T520 498H172Q156
498 145 487T133 459V331ZM442 845V763H360V845H442ZM263 845V763H180V845H263Z" />
<glyph unicode="&#xec;" glyph-name="igrave" horiz-adv-x="214" d="M56 0V580H138V0H56ZM97 903L131 764H51L16 903H97Z" />
<glyph unicode="&#xed;" glyph-name="iacute" horiz-adv-x="214" d="M51 0V580H133V0H51ZM49 763L84 902H163L129 763H49Z" />
<glyph unicode="&#xee;" glyph-name="icircumflex" horiz-adv-x="214" d="M51 0V580H133V0H51ZM26 763H-15L56 880H115L186 763H144L86 848L26 763Z" />
<glyph unicode="&#xef;" glyph-name="idieresis" horiz-adv-x="214" d="M55 0V580H137V0H55ZM230 847V765H148V847H230ZM51 847V765H-32V847H51Z" />
<glyph unicode="&#xf1;" glyph-name="ntilde" horiz-adv-x="708" d="M524 580Q574 580 609 545T645 459V0H563V459Q563 475 552 486T524 498H176Q160 498 148 487T136 459V0H54V580H524ZM449 813H451Q481 813 517 830V779Q479 765 451 765Q416 765 349 801T240
837Q201 837 178 829V876Q205 885 240 885Q280 885 347 852T449 813Z" />
<glyph unicode="&#xf2;" glyph-name="ograve" horiz-adv-x="692" d="M172 580H520Q571 580 606 545T642 459V121Q642 71 607 36T520 0H172Q122 0 87 35T51 121V459Q51 509 86 544T172 580ZM520 498H172Q156 498 145 487T133 459V121Q133 105 144 94T172 82H520Q536
82 547 93T559 121V459Q559 475 548 486T520 498ZM353 903L387 764H307L272 903H353Z" />
<glyph unicode="&#xf3;" glyph-name="oacute" horiz-adv-x="692" d="M172 580H520Q571 580 606 545T642 459V121Q642 71 607 36T520 0H172Q122 0 87 35T51 121V459Q51 509 86 544T172 580ZM520 498H172Q156 498 145 487T133 459V121Q133 105 144 94T172 82H520Q536
82 547 93T559 121V459Q559 475 548 486T520 498ZM272 764L307 903H386L352 764H272Z" />
<glyph unicode="&#xf4;" glyph-name="ocircumflex" horiz-adv-x="692" d="M172 580H520Q571 580 606 545T642 459V121Q642 71 607 36T520 0H172Q122 0 87 35T51 121V459Q51 509 86 544T172 580ZM520 498H172Q156 498 145 487T133 459V121Q133 105 144 94T172 82H520Q536
82 547 93T559 121V459Q559 475 548 486T520 498ZM265 763H224L295 880H354L425 763H383L325 848L265 763Z" />
<glyph unicode="&#xf5;" glyph-name="otilde" horiz-adv-x="692" d="M172 580H520Q571 580 606 545T642 459V121Q642 71 607 36T520 0H172Q122 0 87 35T51 121V459Q51 509 86 544T172 580ZM520 498H172Q156 498 145 487T133 459V121Q133 105 144 94T172 82H520Q536
82 547 93T559 121V459Q559 475 548 486T520 498ZM441 813H443Q473 813 509 830V779Q471 765 443 765Q408 765 341 801T232 837Q193 837 170 829V876Q197 885 232 885Q272 885 339 852T441 813Z" />
<glyph unicode="&#xf6;" glyph-name="odieresis" horiz-adv-x="692" d="M172 580H520Q571 580 606 545T642 459V121Q642 71 607 36T520 0H172Q122 0 87 35T51 121V459Q51 509 86 544T172 580ZM520 498H172Q156 498 145 487T133 459V121Q133 105 144 94T172 82H520Q536
82 547 93T559 121V459Q559 475 548 486T520 498ZM469 847V765H387V847H469ZM290 847V765H207V847H290Z" />
<glyph unicode="&#xf7;" glyph-name="divide" horiz-adv-x="508" d="M492 337V255H18V337H492ZM215 83H297V1H215V83ZM297 579V497H215V579H297Z" />
<glyph unicode="&#xf9;" glyph-name="ugrave" horiz-adv-x="695" d="M562 580H644V121Q644 71 609 36T522 0H174Q124 0 89 35T53 121V580H135V121Q135 105 146 94T174 82H522Q538 82 550 93T562 121V580ZM354 903L388 764H308L273 903H354Z" />
<glyph unicode="&#xfa;" glyph-name="uacute" horiz-adv-x="695" d="M562 580H644V121Q644 71 609 36T522 0H174Q124 0 89 35T53 121V580H135V121Q135 105 146 94T174 82H522Q538 82 550 93T562 121V580ZM273 764L308 903H387L353 764H273Z" />
<glyph unicode="&#xfb;" glyph-name="ucircumflex" horiz-adv-x="695" d="M562 580H644V121Q644 71 609 36T522 0H174Q124 0 89 35T53 121V580H135V121Q135 105 146 94T174 82H522Q538 82 550 93T562 121V580ZM266 764H225L296 881H355L426 764H384L326 849L266 764Z" />
<glyph unicode="&#xfc;" glyph-name="udieresis" horiz-adv-x="695" d="M562 580H644V121Q644 71 609 36T522 0H174Q124 0 89 35T53 121V580H135V121Q135 105 146 94T174 82H522Q538 82 550 93T562 121V580ZM470 845V763H388V845H470ZM291 845V763H208V845H291Z" />
<glyph unicode="&#xfd;" glyph-name="yacute" horiz-adv-x="688" d="M632 -108Q632 -159 597 -194T511 -230H149V-147H511Q527 -147 538 -136T550 -108V0H163Q113 0 78 35T42 121V578H124V121Q124 105 135 94T163 82H511Q527 82 538 93T550 121V578H632V-108ZM270
764L305 903H384L350 764H270Z" />
<glyph unicode="&#xff;" glyph-name="ydieresis" horiz-adv-x="688" d="M632 -108Q632 -159 597 -194T511 -230H149V-147H511Q527 -147 538 -136T550 -108V0H163Q113 0 78 35T42 121V578H124V121Q124 105 135 94T163 82H511Q527 82 538 93T550 121V578H632V-108ZM467
847V765H385V847H467ZM288 847V765H205V847H288Z" />
<glyph unicode="&#x2013;" glyph-name="endash" horiz-adv-x="708" d="M655 336V254H54V336H655Z" />
<glyph unicode="&#x2014;" glyph-name="emdash" horiz-adv-x="822" d="M775 336V254H54V336H775Z" />
<glyph unicode="&#x2018;" glyph-name="quoteleft" horiz-adv-x="168" d="M116 503H33V601Q33 641 56 673T116 716V503Z" />
<glyph unicode="&#x2019;" glyph-name="quoteright" horiz-adv-x="166" d="M54 721H136V623Q136 583 113 551T54 508V721Z" />
<glyph unicode="&#x201c;" glyph-name="quotedblleft" horiz-adv-x="363" d="M130 502H47V600Q47 640 70 672T130 715V502ZM310 502H228V600Q228 640 250 672T310 715V502Z" />
<glyph unicode="&#x201d;" glyph-name="quotedblright" horiz-adv-x="363" d="M235 721H317V623Q317 583 294 551T235 508V721ZM54 721H137V623Q137 583 114 551T54 508V721Z" />
<glyph unicode="&#x2022;" glyph-name="bullet" horiz-adv-x="371" d="M172 403H197Q226 403 226 374V353Q226 325 197 325H172Q144 325 144 353V374Q144 403 172 403Z" />
</font>
</defs>
</svg>
