<?xml version="1.0" standalone="no"?>
<!DOCTYPE svg PUBLIC "-//W3C//DTD SVG 1.1//EN" "http://www.w3.org/Graphics/SVG/1.1/DTD/svg11.dtd">
<svg xmlns="http://www.w3.org/2000/svg">
<defs >
<font id="ZillaSlabHighlight" horiz-adv-x="527" ><font-face
    font-family="Zilla Slab Highlight"
    units-per-em="1000"
    panose-1="0 0 0 0 0 0 0 0 0 0"
    ascent="944"
    descent="-256"
    alphabetic="0" />
<glyph unicode=" " glyph-name="uni0020" horiz-adv-x="249" />
<glyph unicode="!" glyph-name="uni0021" horiz-adv-x="236" d="M-12 917H248V-213H-12V917ZM159 650H76L90 192H144L159 650ZM75 0H165V97H75V0Z" />
<glyph unicode="&quot;" glyph-name="uni0022" horiz-adv-x="367" d="M-12 917H379V-213H-12V917ZM124 377L129 650H58L63 377H124ZM304 377L309 650H238L243 377H304Z" />
<glyph unicode="#" glyph-name="uni0023" horiz-adv-x="587" d="M-12 917H599V-213H-12V917ZM518 182H426L457 346H548V403H468L491 521H428L405 403H229L252 521H189L166 403H66V346H155L124 182H36V125H113L89 0H152L176 125H352L328 0H391L415 125H518V182ZM218
346H394L363 182H187L218 346Z" />
<glyph unicode="$" glyph-name="uni0024" horiz-adv-x="467" d="M-12 917H479V-213H-12V917ZM424 148Q424 204 397 234T331 279T257 301V472Q299 469 336 446L347 362L406 366L400 481Q374 499 339 511T257 528V593H215V529Q148 526 100 491T51 384Q51 308 103
284T215 246V50Q164 55 115 78L123 151L63 156L46 42Q71 26 115 11T215 -7V-65H257V-7Q330 -2 377 38T424 148ZM126 392Q126 465 215 471V310Q178 320 152 336T126 392ZM349 141Q349 98 324 77T257 51V235Q296 224 322 204T349 141Z" />
<glyph unicode="%" glyph-name="uni0025" horiz-adv-x="683" d="M-12 917H695V-213H-12V917ZM173 244Q244 244 282 284T320 392Q320 462 282 496T181 531Q116 531 75 494T34 383Q34 312 73 278T173 244ZM504 521L330 287L100 0H175L377 267L579 521H504ZM174 294Q94
294 94 384Q94 481 179 481Q260 481 260 391Q260 294 174 294ZM504 -10Q574 -10 612 30T651 138Q651 208 613 242T512 277Q447 277 406 240T365 129Q365 58 404 24T504 -10ZM504 40Q425 40 425 130Q425 227 510 227Q591 227 591 137Q591 40 504 40Z" />
<glyph unicode="&amp;" glyph-name="uni0026" horiz-adv-x="727" d="M-12 917H739V-213H-12V917ZM425 299H523Q510 254 484 208T422 127Q319 204 257 319Q340 360 408 404T476 525Q476 586 431 623T316 660Q231 660 184 609T136 479Q136 410 174 324Q122 296 84
258T45 154Q45 73 103 32T235 -10Q282 -10 325 6T407 50Q450 22 496 6T589 -10Q647 -10 697 18L680 79Q641 58 599 58Q566 58 533 69T467 99Q514 145 547 198T600 299H705V362H425V299ZM208 485Q208 535 235 568T314 602Q360 602 381 577T403 522Q403 468 352 430T238
358Q208 427 208 485ZM253 52Q198 52 158 79T117 165Q117 206 138 234T193 285Q224 229 267 177T360 84Q309 52 253 52Z" />
<glyph unicode="&apos;" glyph-name="uni0027" horiz-adv-x="187" d="M-12 917H199V-213H-12V917ZM124 377L129 650H58L63 377H124Z" />
<glyph unicode="(" glyph-name="uni0028" horiz-adv-x="274" d="M-12 917H286V-213H-12V917ZM198 718Q116 612 77 499T37 270Q37 156 75 42T196 -183H265Q182 -80 141 37T99 270Q99 507 265 718H198Z" />
<glyph unicode=")" glyph-name="uni0029" horiz-adv-x="274" d="M286 917V-213H-12V917H286ZM76 718H9Q175 507 175 270Q175 154 134 37T9 -183H78Q161 -73 199 41T237 270Q237 386 198 499T76 718Z" />
<glyph unicode="*" glyph-name="uni002A" horiz-adv-x="411" d="M-12 917H423V-213H-12V917ZM338 601L227 528L233 650H178L183 529L74 601L45 556L162 489L45 424L74 379L183 449L178 333H233L228 450L338 379L367 424L249 489L367 556L338 601Z" />
<glyph unicode="+" glyph-name="uni002B" horiz-adv-x="417" d="M-12 917H429V-213H-12V917ZM35 254H185V108H238V254H382V308H238V455H185V308H35V254Z" />
<glyph unicode="," glyph-name="uni002C" horiz-adv-x="197" d="M-12 -213V917H209V-213H-12ZM74 114L22 -102H91L144 114H74Z" />
<glyph unicode="-" glyph-name="uni002D" horiz-adv-x="345" d="M-12 -213V917H357V-213H-12ZM56 261V200H287V261H56Z" />
<glyph unicode="." glyph-name="uni002E" horiz-adv-x="207" d="M-12 -213V917H219V-213H-12ZM55 108V0H152V108H55Z" />
<glyph unicode="/" glyph-name="uni002F" horiz-adv-x="335" d="M-12 -213V917H347V-213H-12ZM314 688H245L30 0H99L314 688Z" />
<glyph unicode="0" glyph-name="uni0030" horiz-adv-x="571" d="M-12 917H583V-213H-12V917ZM527 259Q527 374 469 452T288 531Q168 531 107 453T45 256Q45 135 105 63T284 -10Q401 -10 464 62T527 259ZM450 262Q450 55 286 55Q205 55 164 109T123 261Q123 359
163 412T287 466Q371 466 410 411T450 262Z" />
<glyph unicode="1" glyph-name="uni0031" horiz-adv-x="382" d="M-12 917H394V-213H-12V917ZM363 0V64H246V521H50V457H172V64H50V0H363Z" />
<glyph unicode="2" glyph-name="uni0032" horiz-adv-x="511" d="M-12 917H523V-213H-12V917ZM74 487L57 377L115 370L131 445Q156 456 186 462T237 468Q356 468 356 368Q356 294 272 224T46 57L54 0H460L471 139L410 144L401 64H141Q196 97 264 143T383 248T434
376Q434 431 393 481T253 531Q209 531 160 520T74 487Z" />
<glyph unicode="3" glyph-name="uni0033" horiz-adv-x="486" d="M-12 917H498V-213H-12V917ZM64 479L47 369L105 362L123 443Q170 468 219 468Q275 468 306 440T338 363Q338 321 304 281T176 236V182Q281 179 323 146T365 54Q365 4 338 -37T230 -78Q167 -78 135
-49T89 20L32 0Q44 -59 92 -100T232 -141Q330 -141 386 -89T443 50Q443 107 411 153T290 214V218Q360 240 387 281T415 372Q415 449 364 490T233 531Q183 531 138 515T64 479Z" />
<glyph unicode="4" glyph-name="uni0034" horiz-adv-x="534" d="M-12 917H546V-213H-12V917ZM406 -131V34H503L511 96H406V521H250L17 96L25 34H334V-131H406ZM334 96H88L285 458H334V96Z" />
<glyph unicode="5" glyph-name="uni0035" horiz-adv-x="508" d="M-12 917H520V-213H-12V917ZM468 64Q468 149 429 193T327 252T194 268Q182 268 169 268T144 267V458H376L386 377L447 383L438 521H76V227L101 203Q142 206 185 206Q266 206 328 181T390 61Q390
-3 356 -40T249 -78Q195 -78 161 -51T112 20L55 0Q67 -59 116 -99T255 -140Q356 -140 412 -87T468 64Z" />
<glyph unicode="6" glyph-name="uni0036" horiz-adv-x="528" d="M-12 917H540V-213H-12V917ZM481 205Q481 285 439 344T298 403Q219 403 178 369T122 293Q122 294 122 303T123 314Q124 450 157 523T283 597Q372 597 427 528L470 572Q434 616 390 638T284 660Q153
660 100 559T46 307Q46 170 93 80T271 -10Q382 -10 431 53T481 205ZM407 202Q407 134 376 95T273 56Q200 56 168 96T127 200Q131 246 164 293T280 340Q348 340 377 304T407 202Z" />
<glyph unicode="7" glyph-name="uni0037" horiz-adv-x="467" d="M-12 917H479V-213H-12V917ZM453 479L443 521H32V347H98V458H375L133 -130H206L453 479Z" />
<glyph unicode="8" glyph-name="uni0038" horiz-adv-x="535" d="M-12 917H547V-213H-12V917ZM493 163Q493 236 445 276T334 345Q388 368 430 401T472 498Q472 572 413 616T266 660Q175 660 118 614T60 494Q60 432 100 396T195 333Q136 308 90 271T43 160Q43 76
104 33T262 -10Q361 -10 427 36T493 163ZM398 493Q398 446 366 420T278 369Q222 394 180 423T137 502Q137 547 173 572T266 598Q320 598 359 573T398 493ZM416 160Q416 108 372 80T264 52Q199 52 158 82T116 170Q116 226 154 255T248 309Q312 280 364 249T416 160Z"
/>
<glyph unicode="9" glyph-name="uni0039" horiz-adv-x="528" d="M-12 917H540V-213H-12V917ZM46 316Q46 236 88 177T229 118Q308 118 349 153T405 228Q405 226 405 217T404 207Q402 71 370 -2T244 -76Q155 -76 100 -7L57 -51Q93 -95 137 -117T243 -139Q374 -139
427 -38T481 214Q481 350 434 440T256 531Q146 531 96 468T46 316ZM120 319Q120 387 151 426T254 465Q328 465 359 425T400 321Q396 275 363 228T247 181Q180 181 150 217T120 319Z" />
<glyph unicode=":" glyph-name="uni003A" horiz-adv-x="219" d="M-12 917H231V-213H-12V917ZM63 337H157V445H63V337ZM63 0H157V108H63V0Z" />
<glyph unicode=";" glyph-name="uni003B" horiz-adv-x="227" d="M-12 917H239V-213H-12V917ZM77 337H171V445H77V337ZM152 114H83L30 -102H99L152 114Z" />
<glyph unicode="&lt;" glyph-name="uni003C" horiz-adv-x="404" d="M-12 917H416V-213H-12V917ZM347 14V83L105 280L346 480V549L28 289V269L347 14Z" />
<glyph unicode="=" glyph-name="uni003D" horiz-adv-x="574" d="M-12 917H586V-213H-12V917ZM59 364H516V418H59V364ZM59 144H516V196H59V144Z" />
<glyph unicode="&gt;" glyph-name="uni003E" horiz-adv-x="404" d="M-12 917H416V-213H-12V917ZM375 269V289L57 549V480L298 280L56 83V14L375 269Z" />
<glyph unicode="?" glyph-name="uni003F" horiz-adv-x="444" d="M-12 917H456V-213H-12V917ZM104 460L117 556Q164 595 225 595Q280 595 308 572T336 515Q336 474 306 447T236 395T166 341T135 266Q135 228 165 203T263 181V231Q210 231 210 272Q210 305 241 330T312
380T383 440T414 525Q414 588 360 624T230 660Q179 660 132 638T54 585L46 465L104 460ZM165 0H254V97H165V0Z" />
<glyph unicode="@" glyph-name="uni0040" horiz-adv-x="902" d="M-12 917H914V-213H-12V917ZM296 405L278 301L331 295L350 372Q394 400 449 400Q502 400 523 370T544 288V246Q526 247 506 248T466 249Q416 249 368 239T288 200T256 115Q256 44 302 17T394 -10Q449
-10 488 20T547 87Q555 44 587 17T673 -10Q744 -10 784 34T842 143T859 272Q859 414 796 498T641 618T460 654Q336 654 241 595T92 438T38 219Q38 95 94 0T245 -148T456 -202Q527 -202 591 -183T706 -130L682 -85Q637 -116 580 -131T465 -147Q369 -147 286 -105T150
21T98 224Q98 390 200 494T463 599Q541 599 618 568T747 462T799 252Q799 204 789 155T755 73T688 40Q615 40 615 112V305Q615 454 459 454Q402 454 365 441T296 405ZM544 204V173Q543 116 503 81T415 45Q384 45 358 62T331 123Q331 176 372 192T464 209Q484 209
505 208T544 204Z" />
<glyph unicode="A" glyph-name="uni0041" horiz-adv-x="622" d="M-12 917H634V64H555L342 650H156V586H260L67 64H-12V917ZM316 544L422 246H203L311 544H316ZM634 -213H-12V0H216V64H136L182 189H442L486 64H409V0H634V-213Z" />
<glyph unicode="B" glyph-name="uni0042" horiz-adv-x="600" d="M-12 -213V917H612V-213H-12ZM562 184Q562 246 528 292T423 350V354Q473 364 504 403T535 494Q535 564 487 607T339 650H40V586H122V64H40V0H344Q452 0 507 53T562 184ZM457 477Q457 423 420 395T324
366H195V586H327Q388 586 422 562T457 477ZM484 188Q484 123 443 94T331 64H195V306H355Q419 306 451 275T484 188Z" />
<glyph unicode="C" glyph-name="uni0043" horiz-adv-x="642" d="M-12 -213V917H654V-213H-12ZM573 50L590 175L528 181L509 85Q451 56 366 56Q250 56 183 129T115 324Q115 442 180 518T353 594Q408 594 445 582T514 548L532 453L595 459L577 584Q537 618 483 639T347
660Q252 660 183 613T76 489T38 321Q38 179 126 85T356 -10Q495 -10 573 50Z" />
<glyph unicode="D" glyph-name="uni0044" horiz-adv-x="697" d="M-16 -213V917H709V-213H-16ZM659 326Q659 467 573 558T327 650H56V587H138V63H56V0H330Q484 0 571 91T659 326ZM581 325Q581 204 516 134T326 63H211V587H326Q450 587 515 515T581 325Z" />
<glyph unicode="E" glyph-name="uni0045" horiz-adv-x="584" d="M-12 -213V917H596V-213H-12ZM40 0H524L543 184L480 191L460 64H195V298H502V362H195V586H451L471 459L535 466L515 650H40V586H122V64H40V0Z" />
<glyph unicode="F" glyph-name="uni0046" horiz-adv-x="554" d="M-12 -213V917H566V-213H-12ZM467 456L533 463L512 650H40V586H122V64H40V0H310V64H195V269H494V333H195V586H447L467 456Z" />
<glyph unicode="G" glyph-name="uni0047" horiz-adv-x="688" d="M-12 -213V917H700V-213H-12ZM611 270H662V335H383V270H538V212Q538 153 489 105T351 56Q244 56 180 130T116 325Q116 444 183 519T359 594Q419 594 457 580T523 547L543 455L605 462L587 584Q550
617 492 638T355 660Q262 660 191 615T79 493T38 322Q38 182 121 86T338 -10Q410 -10 463 18T546 90L555 0H611V270Z" />
<glyph unicode="H" glyph-name="uni0048" horiz-adv-x="752" d="M-12 -213V917H764V-213H-12ZM474 0H711V64H629V586H711V650H474V586H556V362H195V586H277V650H40V586H122V64H40V0H277V64H195V300H556V64H474V0Z" />
<glyph unicode="I" glyph-name="uni0049" horiz-adv-x="318" d="M-12 -213V917H330V-213H-12ZM40 0H277V64H196V586H277V650H40V586H122V64H40V0Z" />
<glyph unicode="J" glyph-name="uni004A" horiz-adv-x="454" d="M-10 -213L-12 917H466V-213H-10ZM346 586H418V650H144V586H273V166Q273 117 250 88T173 59Q140 59 116 73T70 129L17 89Q38 45 76 18T179 -10Q258 -10 302 34T346 166V586Z" />
<glyph unicode="K" glyph-name="uni004B" horiz-adv-x="638" d="M-12 -213V917H650V-213H-12ZM399 0H633V64H560L360 338L547 587H621V651H392V587H469L302 362H196V586H272V650H40V586H122V64H40V0H271V64H196V299H304L476 64H399V0Z" />
<glyph unicode="L" glyph-name="uni004C" horiz-adv-x="540" d="M-12 -213V917H552V-213H-12ZM40 0H499L519 208L454 213L434 64H195V586H304V650H40V586H122V64H40V0Z" />
<glyph unicode="M" glyph-name="uni004D" horiz-adv-x="877" d="M-12 -213V917H889V-213H-12ZM755 586H840V650H690L444 141H440L187 650H38V586H123V64H41V0H271V64H193V481H197L420 33H459L677 478H681V64H605V0H836V64H755V586Z" />
<glyph unicode="N" glyph-name="uni004E" horiz-adv-x="733" d="M-12 -213V917H745V-213H-12ZM620 586H701V650H452V586H550V149H546L176 650H36V586H122V64H47V0H295V64H192V512H196L573 0H620V586Z" />
<glyph unicode="O" glyph-name="uni004F" horiz-adv-x="725" d="M-12 -213V917H737V-213H-12ZM688 325Q688 464 598 562T362 660Q218 660 128 563T37 325Q37 187 125 89T360 -10Q458 -10 532 35T647 157T688 325ZM609 324Q609 211 544 134T364 56Q246 56 181 136T116
326Q116 438 181 516T362 594Q475 594 542 518T609 324Z" />
<glyph unicode="P" glyph-name="uni0050" horiz-adv-x="570" d="M-12 -213V917H582V-213H-12ZM542 451Q542 532 490 591T316 650H40V586H122V64H40V0H307V64H195V242H322Q418 242 480 295T542 451ZM464 449Q464 306 313 306H195V586H310Q390 586 427 549T464 449Z" />
<glyph unicode="Q" glyph-name="uni0051" horiz-adv-x="732" d="M-12 -213V917H744V-213H-12ZM688 325Q688 464 598 562T362 660Q218 660 128 563T37 325Q37 187 125 89T360 -10Q467 -10 548 47L627 -33L673 13L598 89Q640 135 664 195T688 325ZM609 324Q609 212
548 140L426 264L379 218L500 96Q443 56 364 56Q246 56 181 136T116 326Q116 438 181 516T362 594Q475 594 542 518T609 324Z" />
<glyph unicode="R" glyph-name="uni0052" horiz-adv-x="613" d="M-12 -213V917H625V-213H-12ZM475 0H605V64H523L407 286Q476 304 511 353T546 466Q546 545 494 597T321 650H40V586H122V64H40V0H283V64H196V272H335L475 0ZM469 463Q469 402 433 368T314 333H196V586H312Q395
586 432 557T469 463Z" />
<glyph unicode="S" glyph-name="uni0053" horiz-adv-x="529" d="M-12 -213V917H541V-213H-12ZM488 182Q488 256 453 293T368 346T274 372Q219 385 174 406T129 488Q129 540 166 567T265 595Q294 595 326 590T389 568L399 471L459 477L453 606Q422 630 367 645T258
660Q174 660 113 616T51 480Q51 416 81 383T156 334T247 308Q307 294 358 272T409 175Q409 109 363 82T252 54Q216 54 183 60T117 83L121 165L61 171L47 43Q120 -10 256 -10Q355 -10 421 39T488 182Z" />
<glyph unicode="T" glyph-name="uni0054" horiz-adv-x="568" d="M-12 -213V917H580V-213H-12ZM485 447L550 452L530 650H38L19 452L83 447L103 586H247V64H135V0H435V64H320V586H465L485 447Z" />
<glyph unicode="U" glyph-name="uni0055" horiz-adv-x="714" d="M-12 -213V917H726V-213H-12ZM615 586H678V650H453V586H546V267Q546 56 359 56Q265 56 220 109T175 258V586H265V650H34V586H101V256Q101 151 155 71T355 -10Q455 -10 511 30T591 134T615 267V586Z" />
<glyph unicode="V" glyph-name="uni0056" horiz-adv-x="606" d="M230 586V650H-12V917H618V650H380V586H472L310 108H305L139 586H230ZM618 -213H-12V586H59L274 0H332L547 586H618V-213Z" />
<glyph unicode="W" glyph-name="uni0057" horiz-adv-x="887" d="M224 586V650H-12V917H899V650H665V586H760L653 116H649L498 586H563V650H338V586H404L254 119H249L133 586H224ZM899 -213H-12V586H55L220 0H280L445 520H450L620 0H679L833 586H899V-213Z" />
<glyph unicode="X" glyph-name="uni0058" horiz-adv-x="629" d="M-12 -213V917H641V-213H-12ZM396 0H623V64H561L352 337L541 586H613V650H393V586H459L315 386L164 586H237V650H15V586H80L273 336L71 64H4V0H228V64H151L310 286L476 64H396V0Z" />
<glyph unicode="Y" glyph-name="uni0059" horiz-adv-x="570" d="M232 586V650H-12V917H582V650H342V586H431L293 316H288L143 586H232ZM582 -213H-12V586H60L250 249V64H139V0H438V64H323V248L505 586H582V-213Z" />
<glyph unicode="Z" glyph-name="uni005A" horiz-adv-x="574" d="M-12 -213V917H586V-213H-12ZM32 0H512L538 193L475 202L447 64H133V67L519 610L517 650H69L44 462L106 453L134 586H414V583L30 44L32 0Z" />
<glyph unicode="[" glyph-name="uni005B" horiz-adv-x="295" d="M-12 -213V917H307V-213H-12ZM82 750V-206H259V-154H145V698H259V750H82Z" />
<glyph unicode="\" glyph-name="uni005C" horiz-adv-x="335" d="M347 -213H-12V917H347V-213ZM21 688L236 0H305L90 688H21Z" />
<glyph unicode="]" glyph-name="uni005D" horiz-adv-x="295" d="M307 -213H-12V917H307V-213ZM213 750H36V698H150V-154H36V-206H213V750Z" />
<glyph unicode="^" glyph-name="uni005E" horiz-adv-x="448" d="M-12 917H460V-213H-12V917ZM200 656L39 373H105L222 587L345 373H411L245 656H200Z" />
<glyph unicode="_" glyph-name="uni005F" horiz-adv-x="530" d="M-12 917H542V-213H-12V917ZM50 -125H482V-74H50V-125Z" />
<glyph unicode="`" glyph-name="uni0060" horiz-adv-x="170" d="M161 520L-12 624L28 683L182 551L161 520Z" />
<glyph unicode="a" glyph-name="uni0061" horiz-adv-x="479" d="M-12 -213V917H491V-213H-12ZM79 411L63 308L121 301L138 378Q175 396 224 396Q284 396 304 366T325 288V248Q307 250 287 251T246 252Q171 252 105 226T38 115Q38 44 83 17T173 -10Q227 -10 265
18T325 82V80Q327 -10 406 -10Q437 -10 464 5L463 51Q450 45 433 45Q395 45 395 93V305Q395 454 236 454Q192 454 153 444T79 411ZM325 167Q321 112 281 80T194 48Q165 48 138 64T111 123Q111 175 151 190T242 206Q264 206 285 204T325 201V167Z" />
<glyph unicode="b" glyph-name="uni0062" d="M-12 -213V917H539V-213H-12ZM493 234Q493 340 439 397T302 454Q238 454 201 424T143 353V688H-4V631H72V130Q72 97 68 63T59 0H129Q130 4 134 37T138 74Q183 -10 294 -10Q365 -10 409 26T473 119T493 234ZM419 227Q419
158 387 104T280 50Q222 50 183 89T143 184V251Q144 300 182 347T284 394Q341 394 380 352T419 227Z" />
<glyph unicode="c" glyph-name="uni0063" horiz-adv-x="457" d="M-12 -213V917H469V-213H-12ZM426 150L366 163Q346 50 246 50Q180 50 145 95T110 220Q110 292 141 343T243 394Q298 394 338 369L355 294L413 301L396 408Q362 434 325 444T244 454Q140 454 88 381T36
216Q36 109 91 50T238 -10Q330 -10 373 41T426 150Z" />
<glyph unicode="d" glyph-name="uni0064" horiz-adv-x="546" d="M-12 -213V917H558V-213H-12ZM386 0H533V57H456V688H278V631H386V373Q341 454 237 454Q128 454 82 377T36 211Q36 107 88 49T227 -10Q288 -10 326 20T386 90V0ZM386 268V197Q384 147 345 99T245
50Q187 50 149 92T110 216Q110 286 144 340T253 394Q306 394 345 359T386 268Z" />
<glyph unicode="e" glyph-name="uni0065" horiz-adv-x="466" d="M-12 -213V917H478V-213H-12ZM433 128L374 141Q364 100 334 75T251 50Q116 50 110 206H423Q429 233 429 259Q428 338 380 396T240 454Q146 454 91 387T36 216Q36 108 94 49T246 -10Q328 -10 376
30T433 128ZM355 258H111Q118 314 147 355T238 396Q303 396 331 352T355 258Z" />
<glyph unicode="f" glyph-name="uni0066" horiz-adv-x="335" d="M-12 -213V917H347V687Q331 694 305 696T258 698Q194 698 148 652T101 528V445H37V389H101V57H24V0H273V57H172V389H287V445H172V532Q172 637 253 637Q276 637 303 633T347 622V-213H-12Z" />
<glyph unicode="g" glyph-name="uni0067" horiz-adv-x="545" d="M-12 -213V917H557V-213H248Q348 -209 402 -148T457 16V388H529V445H386V375Q341 454 235 454Q132 454 84 377T36 211Q36 106 92 50T227 -6Q290 -6 328 23T386 91V19Q386 -64 346 -108T241 -152Q196
-152 154 -129T95 -54L39 -82Q56 -146 107 -178T224 -213H-12ZM386 269V192Q384 142 345 99T242 55Q187 55 149 94T111 216Q111 286 144 339T254 393Q308 393 347 359T386 269Z" />
<glyph unicode="h" glyph-name="uni0068" horiz-adv-x="556" d="M-12 -213V917H568V-213H-12ZM323 0H549V57H472V285Q472 374 428 414T319 454Q212 454 163 365V688H15V631H92V57H15V0H240V57H163V267Q165 316 201 355T296 395Q342 395 371 366T401 264V57H323V0Z" />
<glyph unicode="i" glyph-name="uni0069" horiz-adv-x="277" d="M-12 -213V917H289V-213H-12ZM103 651V560H179V651H103ZM32 0H258V57H180V445H30V388H110V57H32V0Z" />
<glyph unicode="j" glyph-name="uni006A" horiz-adv-x="247" d="M-12 917H259V-213H15Q85 -211 130 -165T175 -4V445H5V388H104V-4Q104 -76 87 -108T43 -149T-12 -158V917ZM99 560H175V651H99V560Z" />
<glyph unicode="k" glyph-name="uni006B" horiz-adv-x="517" d="M-12 -213V917H529V-213H-12ZM297 0H507V57H444L297 241L416 388H484V445H276V388H345L243 262H163V688H13V631H92V57H15V0H227V57H163V208H242L364 57H297V0Z" />
<glyph unicode="l" glyph-name="uni006C" horiz-adv-x="262" d="M-12 -213V917H274V-213H-12ZM18 0H244V57H166V688H17V631H96V57H18V0Z" />
<glyph unicode="m" glyph-name="uni006D" horiz-adv-x="860" d="M-12 -213V917H872V-213H-12ZM639 0H852V57H774V285Q774 374 732 414T625 454Q567 454 528 424T468 347Q454 402 416 428T325 454Q272 454 235 428T176 362V445H27V388H106V57H28V0H258V57H176V263Q178
306 210 350T305 395Q348 395 376 366T404 264V57H340V0H552V57H475V261Q476 303 509 349T603 395Q647 395 675 366T704 264V57H639V0Z" />
<glyph unicode="n" glyph-name="uni006E" horiz-adv-x="570" d="M-12 -213V917H582V-213H-12ZM337 0H562V57H485V285Q485 374 441 414T332 454Q224 454 176 366V445H26V388H106V57H28V0H254V57H176V265Q178 316 214 355T311 395Q356 395 385 366T414 264V57H337V0Z" />
<glyph unicode="o" glyph-name="uni006F" horiz-adv-x="509" d="M-12 -213V917H521V-213H-12ZM255 455Q147 455 91 386T35 219Q35 118 92 54T251 -10Q354 -10 414 56T474 223Q474 318 419 386T255 455ZM253 50Q182 50 145 100T108 223Q108 297 145 346T253 395Q323
395 361 348T400 224Q400 149 362 100T253 50Z" />
<glyph unicode="p" glyph-name="uni0070" horiz-adv-x="545" d="M90 -156H11V-213H-12V917H557V-213H263V-156H160V65Q206 -10 307 -10Q380 -10 424 26T489 119T510 235Q510 338 457 396T318 454Q256 454 218 423T160 352V445H10V388H90V-156ZM436 229Q436 158
402 104T293 50Q238 50 199 88T160 182V248Q162 299 201 346T300 394Q358 394 397 352T436 229Z" />
<glyph unicode="q" glyph-name="uni0071" horiz-adv-x="529" d="M525 -213V-156H457V307Q457 342 461 376T472 445H402Q398 426 396 407T392 368Q371 409 329 431T234 454Q164 454 120 418T56 325T36 210Q36 104 90 47T227 -10Q290 -10 328 20T386 91V-156H282V-213H-12V917H541V-213H525ZM386
197Q384 147 346 99T244 51Q188 51 150 92T111 217Q111 286 143 339T249 393Q305 393 345 357T386 264V197Z" />
<glyph unicode="r" glyph-name="uni0072" horiz-adv-x="416" d="M-12 -213V917H428V-213H-12ZM282 453Q244 453 215 428T172 365V445H26V388H106V57H28V0H279V57H176V276Q176 328 202 360T267 393Q284 393 301 387L318 311L375 318L358 430Q330 453 282 453Z" />
<glyph unicode="s" glyph-name="uni0073" horiz-adv-x="433" d="M-12 -213V917H445V-213H-12ZM397 129Q397 182 369 207T300 243T218 259T149 280T121 330Q121 364 148 380T217 396Q266 396 308 374L319 302L377 309L366 413Q338 430 298 442T211 454Q150 454
98 425T46 325Q46 273 74 249T144 214T227 197T297 175T325 123Q325 85 289 67T205 48Q152 48 106 70L109 129L53 135L39 34Q68 15 114 3T208 -10Q288 -10 342 27T397 129Z" />
<glyph unicode="t" glyph-name="uni0074" horiz-adv-x="367" d="M-12 -213V917H379V-213H-12ZM353 120L299 137Q289 83 271 67T227 51Q186 51 171 75T155 140V389H329V445H155V588H85V445H13V389H85V131Q85 66 118 28T219 -10Q333 -10 353 120Z" />
<glyph unicode="u" glyph-name="uni0075" horiz-adv-x="558" d="M-12 -213V917H570V-213H-12ZM394 0H544V57H464V445H301V388H394V184Q392 136 356 93T262 50Q215 50 185 79T155 180V445H7V388H85V160Q85 71 129 31T239 -10Q292 -10 332 16T394 84V0Z" />
<glyph unicode="v" glyph-name="uni0076" horiz-adv-x="505" d="M-12 -213V917H517V-213H-12ZM434 388H498V445H303V388H364L263 95H257L143 388H210V445H5V388H67L227 0H281L434 388Z" />
<glyph unicode="w" glyph-name="uni0077" horiz-adv-x="762" d="M-12 -213V917H774V-213H-12ZM693 388H754V445H554V388H625L553 107H548L409 445H362L230 107H225L142 388H217V445H7V388H66L192 0H244L377 340H382L518 0H572L693 388Z" />
<glyph unicode="x" glyph-name="uni0078" horiz-adv-x="511" d="M-12 -213V917H523V-213H-12ZM300 0H496V57H440L297 226L436 388H488V445H310V388H363L260 262L160 388H220V445H17V388H77L218 222L78 57H17V0H202V57H149L254 185L358 57H300V0Z" />
<glyph unicode="y" glyph-name="uni0079" horiz-adv-x="507" d="M-12 -213V917H519V-213H306V-156H230L290 0L447 388H500V445H304V388H376L265 89H259L134 388H212V445H6V388H59L221 1L163 -156H80V-213H-12Z" />
<glyph unicode="z" glyph-name="uni007A" horiz-adv-x="461" d="M-12 -213V917H473V-213H-12ZM37 0H411L435 138L378 147L355 57H126L408 403L405 445H47L35 306L91 299L104 388H314L34 43L37 0Z" />
<glyph unicode="{" glyph-name="uni007B" horiz-adv-x="292" d="M-12 -213V917H304V-213H-12ZM108 269Q162 277 184 301T206 352Q206 385 185 434T142 536T120 634Q120 698 183 698H247V750H183Q60 750 60 634Q60 584 81 530T123 428T145 350Q145 311 108 300T47
288H28V249H47Q70 249 107 238T145 187Q145 157 124 111T81 13T60 -89Q60 -141 91 -173T183 -205H247V-153H183Q120 -153 120 -89Q120 -45 141 6T184 104T206 185Q206 213 184 236T108 269Z" />
<glyph unicode="|" glyph-name="uni007C" horiz-adv-x="230" d="M-12 917H242V-213H-12V917ZM83 730V-80H146V730H83Z" />
<glyph unicode="}" glyph-name="uni007D" horiz-adv-x="292" d="M304 -212H-12V918H304V-212ZM184 270Q131 261 109 238T86 186Q86 153 107 106T150 7T172 -88Q172 -152 109 -152H45V-204H109Q170 -204 201 -172T232 -88Q232 -38 211 14T169 112T147 188Q147 227
184 238T245 250H264V289H245Q222 289 185 300T147 351Q147 380 168 428T211 531T232 635Q232 751 109 751H45V699H109Q172 699 172 635Q172 590 151 537T108 435T86 353Q86 326 108 302T184 270Z" />
<glyph unicode="~" glyph-name="uni007E" horiz-adv-x="607" d="M-12 -213V917H619V-213H-12ZM415 200Q504 200 565 312L519 342Q493 297 470 281T415 265Q372 265 337 282T268 318T190 336Q150 336 112 312T45 234L87 207Q113 248 137 259T186 271Q228 271 262
254T332 218T415 200Z" />
<glyph unicode="&#xa0;" glyph-name="uni00A0" horiz-adv-x="249" />
<glyph unicode="&#xa1;" glyph-name="uni00A1" horiz-adv-x="218" d="M-12 917H230V-213H-12V917ZM62 350H152V447H62V350ZM151 -209L137 249H83L68 -209H151Z" />
<glyph unicode="&#xa2;" glyph-name="uni00A2" horiz-adv-x="472" d="M-12 917H484V-213H-12V917ZM428 150L369 163Q349 63 269 53V392Q310 388 340 368L357 294L415 301L398 408Q345 448 269 453V529H223V453Q130 444 84 373T38 216Q38 114 88 55T223 -9V-84H269V-8Q345
0 382 48T428 150ZM114 220Q114 284 138 333T223 391V53Q114 70 114 220Z" />
<glyph unicode="&#xa3;" glyph-name="uni00A3" horiz-adv-x="506" d="M-12 917H518V-213H-12V917ZM458 83L422 116Q406 93 381 75T310 56H120Q160 82 172 126T184 235H363V281H184V335Q184 413 213 442T286 472Q329 472 359 455L377 366L436 373L419 490Q392 508
361 518T277 529Q214 529 164 484T114 334V281H46V235H114Q114 162 101 119T41 54V0H325Q381 0 414 31T458 83Z" />
<glyph unicode="&#xa4;" glyph-name="uni00A4" horiz-adv-x="476" d="M-12 878H488V-252H-12V878ZM88 282Q88 232 116 193L21 98L51 68L147 162Q189 130 239 130Q290 130 330 162L425 68L456 98L361 193Q390 233 390 282Q390 329 361 368L456 462L425 493L331
400Q289 432 239 432Q186 432 145 399L51 493L21 462L116 368Q88 331 88 282ZM149 282Q149 325 176 350T240 376Q277 376 302 350T328 282Q328 239 303 214T240 188Q202 188 176 213T149 282Z" />
<glyph unicode="&#xa5;" glyph-name="uni00A5" horiz-adv-x="584" d="M-12 917H596V-213H-12V917ZM550 521H355V465H428L301 259H296L164 465H235V521H32V465H85L227 249H123V206H256L259 201V152H123V110H259V56H167V0H426V56H330V110H465V152H330V198L335 206H465V249H363L499
465H550V521Z" />
<glyph unicode="&#xa6;" glyph-name="uni00A6" horiz-adv-x="223" d="M-12 917H235V-213H-12V917ZM80 730V426H144V730H80ZM80 224V-80H144V224H80Z" />
<glyph unicode="&#xa7;" glyph-name="uni00A7" horiz-adv-x="585" d="M-12 917H597V-213H-12V917ZM501 137Q501 177 478 202Q512 218 532 243T552 303Q552 354 511 379T410 416T293 437Q235 447 195 465T154 527Q154 568 190 587T281 607Q350 607 412 580L423
487L481 493L473 620Q387 660 277 660Q194 660 139 625T83 522Q83 474 117 443Q82 429 60 405T37 346Q37 302 72 277T160 240T267 222Q341 211 385 196T430 132Q430 84 391 64T300 44Q261 44 220 51T143 75L147 151L89 157L77 47Q120 20 182 5T299 -10Q391 -10
446 28T501 137ZM484 293Q484 258 436 239Q407 252 370 260T293 274Q203 289 154 302T104 354Q104 394 158 414Q183 403 211 397T267 385Q314 377 364 368T449 343T484 293Z" />
<glyph unicode="&#xa8;" glyph-name="uni00A8" horiz-adv-x="228" d="M-12 640H69V555H-12V640ZM159 640H240V555H159V640Z" />
<glyph unicode="&#xa9;" glyph-name="uni00A9" horiz-adv-x="620" d="M-12 917H632V-213H-12V917ZM578 260Q578 372 501 450T311 529Q198 529 120 451T42 260Q42 148 120 71T310 -7Q421 -7 499 70T578 260ZM535 260Q535 166 471 100T310 34Q212 34 149 100T85
260Q85 354 148 420T311 487Q410 487 472 421T535 260ZM427 122L436 187L400 191L390 140Q364 127 320 127Q261 127 229 163T196 262Q196 324 227 361T314 399Q342 399 359 394T393 377L402 327L438 331L429 396Q409 413 380 423T309 434Q239 434 195 384T151 261Q151
186 196 139T314 91Q387 91 427 122Z" />
<glyph unicode="&#xaa;" glyph-name="uni00AA" horiz-adv-x="373" d="M-12 917H385V-213H-12V917ZM175 662Q212 662 224 640T236 589V565Q224 566 210 567T180 568Q133 568 88 552T42 480Q42 434 73 416T135 398Q171 398 196 416T236 459Q238 398 293 398Q317
398 336 409L335 440Q328 437 317 437Q294 437 294 467V603Q294 701 182 701Q117 701 72 669L62 599L105 595L118 647Q148 662 175 662ZM236 516Q234 480 210 460T156 439Q136 439 120 450T104 487Q104 519 129 529T183 539Q196 539 210 538T236 535V516Z" />
<glyph unicode="&#xab;" glyph-name="uni00AB" horiz-adv-x="447" d="M-12 917H459V-213H-12V917ZM237 25L108 271L237 511H177L39 271L177 25H237ZM402 25L273 271L402 511H341L203 271L341 25H402Z" />
<glyph unicode="&#xac;" glyph-name="uni00AC" horiz-adv-x="602" d="M-12 917H614V-213H-12V917ZM489 99H541V308H60V256H489V99Z" />
<glyph unicode="&#xae;" glyph-name="uni00AE" horiz-adv-x="586" d="M-12 917H598V-213H-12V917ZM294 159Q398 159 471 232T545 409Q545 513 473 586T295 660Q190 660 117 587T44 409Q44 304 117 232T294 159ZM295 200Q204 200 145 261T86 409Q86 496 145 557T295
619Q386 619 444 558T502 409Q502 323 443 262T295 200ZM175 277H288V308H250V393H307L369 277H432V308H395L345 400Q408 417 408 479Q408 514 383 536T304 559H175V528H211V308H175V277ZM297 528Q365 528 365 478Q365 423 297 423H250V528H297Z" />
<glyph unicode="&#xaf;" glyph-name="uni00AF" horiz-adv-x="220" d="M-12 564V621H232V564H-12Z" />
<glyph unicode="&#xb0;" glyph-name="uni00B0" horiz-adv-x="392" d="M-12 917H404V-213H-12V917ZM196 342Q270 342 313 388T356 501Q356 567 314 613T198 660Q126 660 82 614T37 500Q37 432 80 387T196 342ZM196 395Q153 395 125 423T96 501Q96 552 125 579T197
607Q240 607 268 580T296 500Q296 450 268 423T196 395Z" />
<glyph unicode="&#xb1;" glyph-name="uni00B1" horiz-adv-x="448" d="M-12 917H460V-213H-12V917ZM51 259H200V113H253V259H398V313H253V460H200V313H51V259ZM51 0H398V53H51V0Z" />
<glyph unicode="&#xb2;" glyph-name="uni00B2" horiz-adv-x="344" d="M-12 917H356V-213H-12V917ZM85 667L98 723Q124 740 155 740Q193 740 209 724T226 683Q226 645 195 606T119 529T32 456L37 415H309L319 509L272 514L262 460H106Q132 481 175 516T254 596T290
688Q290 725 262 755T170 785Q138 785 106 776T51 748L40 672L85 667Z" />
<glyph unicode="&#xb3;" glyph-name="uni00B3" horiz-adv-x="338" d="M-12 917H350V-213H-12V917ZM91 673L103 723Q131 739 162 739Q226 739 226 687Q226 628 136 623V585Q194 584 217 567T240 522Q240 493 219 474T161 454Q122 454 103 473T77 517L35 505Q50
408 159 408Q218 408 260 435T303 516Q303 547 284 573T214 607V609Q254 621 270 644T287 695Q287 736 257 760T176 784Q147 784 113 775T56 747L46 678L91 673Z" />
<glyph unicode="&#xb4;" glyph-name="uni00B4" horiz-adv-x="170" d="M10 520L-12 551L142 683L182 624L10 520Z" />
<glyph unicode="&#xb5;" glyph-name="uni00B5" horiz-adv-x="568" d="M-12 917H580V-213H165V14Q198 -10 248 -10Q301 -10 341 15T403 82V0H553V57H473V445H311V388H403V176Q403 129 366 88T271 47Q224 47 195 77T165 180V445H17V388H94V-213H-12V917Z" />
<glyph unicode="&#xb6;" glyph-name="uni00B6" horiz-adv-x="613" d="M-12 917H625V-213H-12V917ZM251 650Q138 650 83 601T28 484Q28 389 90 350T245 310H302V0H370V588H433V0H500V588H576V650H251Z" />
<glyph unicode="&#xb7;" glyph-name="uni00B7" horiz-adv-x="215" d="M-12 917H227V-213H-12V917ZM57 256H154V358H57V256Z" />
<glyph unicode="&#xb8;" glyph-name="uni00B8" horiz-adv-x="180" d="M192 -125Q192 -170 160 -189T84 -209Q24 -209 -12 -179L5 -138Q35 -161 80 -161Q131 -161 131 -120Q131 -95 114 -88T73 -80H43V6H95V-47H103Q150 -47 171 -69T192 -125Z" />
<glyph unicode="&#xb9;" glyph-name="uni00B9" horiz-adv-x="256" d="M-12 917H268V-213H-12V917ZM33 734H108V460H33V415H238V460H166V779H33V734Z" />
<glyph unicode="&#xba;" glyph-name="uni00BA" horiz-adv-x="375" d="M-12 917H387V-213H-12V917ZM36 547Q36 481 76 440T185 398Q254 398 296 440T339 550Q339 612 302 656T188 701Q113 701 75 656T36 547ZM98 551Q98 597 121 625T187 654Q276 654 276 551Q276
504 253 474T186 444Q142 444 120 475T98 551Z" />
<glyph unicode="&#xbb;" glyph-name="uni00BB" horiz-adv-x="447" d="M-12 917H459V-213H-12V917ZM270 25L408 271L270 511H210L339 271L210 25H270ZM106 25L244 271L106 511H46L174 271L46 25H106Z" />
<glyph unicode="&#xbc;" glyph-name="uni00BC" horiz-adv-x="706" d="M-12 917H718V-213H-12V917ZM511 650L337 337L139 0H193L375 325L565 650H511ZM41 605H116V331H41V286H246V331H175V650H41V605ZM555 -1H612V89H670L674 133H612V364H499L369 132L375 89H555V-1ZM528
319H555V133H422L528 319Z" />
<glyph unicode="&#xbd;" glyph-name="uni00BD" horiz-adv-x="746" d="M-12 917H758V-213H-12V917ZM38 605H114V331H38V286H243V331H172V650H38V605ZM506 650L331 337L134 0H187L370 325L559 650H506ZM487 252L500 308Q526 325 558 325Q596 325 612 309T628 268Q628
230 597 191T521 114T434 41L439 0H711L721 94L674 99L664 45H508Q534 66 577 101T656 180T692 273Q692 310 664 340T572 370Q540 370 508 361T453 333L442 257L487 252Z" />
<glyph unicode="&#xbe;" glyph-name="uni00BE" horiz-adv-x="730" d="M-12 917H742V-213H-12V917ZM95 549L106 599Q134 615 166 615Q229 615 229 563Q229 503 140 499V461Q198 460 221 443T244 398Q244 369 223 350T165 330Q126 330 107 349T81 393L39 381Q45
336 78 310T163 284Q222 284 264 311T307 392Q307 423 288 449T217 483V485Q258 497 274 520T291 571Q291 612 261 636T180 660Q151 660 117 651T59 623L50 554L95 549ZM539 650L364 337L167 0H221L403 325L593 650H539ZM581 -1H639V89H696L701 133H639V364H526L395
132L401 89H581V-1ZM554 319H581V133H448L554 319Z" />
<glyph unicode="&#xbf;" glyph-name="uni00BF" horiz-adv-x="437" d="M449 -213H-12V917H449V-213ZM275 446H186V349H275V446ZM336 -11L323 -108Q277 -146 215 -146Q160 -146 132 -123T104 -66Q104 -26 134 1T204 53T274 107T305 182Q305 221 275 246T177 267V217Q230
217 230 177Q230 144 199 119T128 68T57 8T26 -76Q26 -139 80 -175T210 -211Q261 -211 308 -189T386 -137L394 -16L336 -11Z" />
<glyph unicode="&#xc0;" glyph-name="uni00C0" horiz-adv-x="622" d="M-12 917H634V64H555L342 650H156V586H260L67 64H-12V917ZM346 703L356 740L165 813L148 745L346 703ZM316 544L422 246H203L311 544H316ZM634 -213H-12V0H216V64H136L182 189H442L486 64H409V0H634V-213Z"
/>
<glyph unicode="&#xc1;" glyph-name="uni00C1" horiz-adv-x="622" d="M-12 917H634V64H555L342 650H156V586H260L67 64H-12V917ZM272 703L469 745L452 813L261 740L272 703ZM316 544L422 246H203L311 544H316ZM634 -213H-12V0H216V64H136L182 189H442L486 64H409V0H634V-213Z"
/>
<glyph unicode="&#xc2;" glyph-name="uni00C2" horiz-adv-x="622" d="M-12 917H634V64H555L342 650H156V586H260L67 64H-12V917ZM426 702L445 737L319 827H298L171 734L190 701L306 764L426 702ZM316 544L422 246H203L311 544H316ZM634 -213H-12V0H216V64H136L182
189H442L486 64H409V0H634V-213Z" />
<glyph unicode="&#xc3;" glyph-name="uni00C3" horiz-adv-x="622" d="M-12 917H634V64H555L342 650H156V586H260L67 64H-12V917ZM442 798L406 807Q398 779 385 772T359 765Q323 765 298 782T240 800Q202 800 182 772T158 718L191 705Q198 729 212 736T241 744Q270
744 298 727T364 709Q400 709 417 733T442 798ZM316 544L422 246H203L311 544H316ZM634 -213H-12V0H216V64H136L182 189H442L486 64H409V0H634V-213Z" />
<glyph unicode="&#xc4;" glyph-name="uni00C4" horiz-adv-x="622" d="M-12 917H634V64H555L342 650H156V586H260L67 64H-12V917ZM183 803V718H264V803H183ZM355 803V718H435V803H355ZM316 544L422 246H203L311 544H316ZM634 -213H-12V0H216V64H136L182 189H442L486
64H409V0H634V-213Z" />
<glyph unicode="&#xc5;" glyph-name="uni00C5" horiz-adv-x="622" d="M-12 917H634V64H555L342 650H156V586H260L67 64H-12V917ZM406 784Q406 823 383 848T308 874Q261 874 235 849T209 782Q209 690 307 690Q356 690 381 716T406 784ZM357 784Q357 730 307 730Q258
730 258 782Q258 834 307 834Q335 834 346 819T357 784ZM316 544L422 246H203L311 544H316ZM634 -213H-12V0H216V64H136L182 189H442L486 64H409V0H634V-213Z" />
<glyph unicode="&#xc6;" glyph-name="uni00C6" horiz-adv-x="912" d="M312 586L54 64H-12V917H924V-213H-12V0H217V64H127L189 189H448V64H367V0H850L869 184L805 191L785 64H522V298H828V362H522V586H776L796 459L860 467L841 650H215V586H312ZM448 586V246H216L382
586H448Z" />
<glyph unicode="&#xc7;" glyph-name="uni00C7" horiz-adv-x="642" d="M-12 -213V917H654V-213H-12ZM462 -125Q462 -92 441 -70T373 -47H365V-10Q502 -7 573 50L590 175L528 181L509 85Q451 56 366 56Q250 56 183 129T115 324Q115 442 180 518T353 594Q408 594
445 582T514 548L532 453L595 459L577 584Q537 618 483 639T347 660Q252 660 183 613T76 489T38 321Q38 190 113 99T312 -7V-80H342Q366 -80 383 -87T400 -120Q400 -161 349 -161Q305 -161 275 -138L258 -179Q292 -209 354 -209Q398 -209 430 -190T462 -125Z" />
<glyph unicode="&#xc8;" glyph-name="uni00C8" horiz-adv-x="584" d="M-12 -213V917H596V-213H-12ZM385 703L395 740L204 813L187 745L385 703ZM40 0H524L543 184L480 191L460 64H195V298H502V362H195V586H451L471 459L535 466L515 650H40V586H122V64H40V0Z" />
<glyph unicode="&#xc9;" glyph-name="uni00C9" horiz-adv-x="584" d="M-12 -213V917H596V-213H-12ZM266 703L463 745L446 813L255 740L266 703ZM40 0H524L543 184L480 191L460 64H195V298H502V362H195V586H451L471 459L535 466L515 650H40V586H122V64H40V0Z" />
<glyph unicode="&#xca;" glyph-name="uni00CA" horiz-adv-x="584" d="M-12 -213V917H596V-213H-12ZM447 702L466 737L340 827H319L192 734L211 701L327 764L447 702ZM40 0H524L543 184L480 191L460 64H195V298H502V362H195V586H451L471 459L535 466L515 650H40V586H122V64H40V0Z"
/>
<glyph unicode="&#xcb;" glyph-name="uni00CB" horiz-adv-x="584" d="M-12 -213V917H596V-213H-12ZM194 803V718H275V803H194ZM366 803V718H446V803H366ZM40 0H524L543 184L480 191L460 64H195V298H502V362H195V586H451L471 459L535 466L515 650H40V586H122V64H40V0Z" />
<glyph unicode="&#xcc;" glyph-name="uni00CC" horiz-adv-x="318" d="M-12 -213V917H330V-213H-12ZM234 703L244 740L53 813L36 745L234 703ZM40 0H277V64H196V586H277V650H40V586H122V64H40V0Z" />
<glyph unicode="&#xcd;" glyph-name="uni00CD" horiz-adv-x="318" d="M-12 -213V917H330V-213H-12ZM84 703L281 745L264 813L73 740L84 703ZM40 0H277V64H196V586H277V650H40V586H122V64H40V0Z" />
<glyph unicode="&#xce;" glyph-name="uni00CE" horiz-adv-x="318" d="M-12 -213V917H330V-213H-12ZM278 702L297 737L171 827H150L23 734L42 701L158 764L278 702ZM40 0H277V64H196V586H277V650H40V586H122V64H40V0Z" />
<glyph unicode="&#xcf;" glyph-name="uni00CF" horiz-adv-x="318" d="M-12 -213V917H330V-213H-12ZM36 803V718H117V803H36ZM208 803V718H288V803H208ZM40 0H277V64H196V586H277V650H40V586H122V64H40V0Z" />
<glyph unicode="&#xd0;" glyph-name="uni00D0" horiz-adv-x="701" d="M-12 -213V917H713V-213H-12ZM663 326Q663 467 577 558T331 650H40V587H122V370H43V308H122V63H40V0H334Q488 0 575 91T663 326ZM585 325Q585 204 520 134T330 63H195V308H330V370H195V587H330Q454
587 519 515T585 325Z" />
<glyph unicode="&#xd1;" glyph-name="uni00D1" horiz-adv-x="733" d="M-12 -213V917H745V-213H-12ZM504 798L468 807Q460 779 447 772T421 765Q385 765 360 782T302 800Q264 800 244 772T220 718L253 705Q260 729 274 736T303 744Q332 744 360 727T426 709Q462
709 479 733T504 798ZM620 586H701V650H452V586H550V149H546L176 650H36V586H122V64H47V0H295V64H192V512H196L573 0H620V586Z" />
<glyph unicode="&#xd2;" glyph-name="uni00D2" horiz-adv-x="725" d="M-12 -213V917H737V-213H-12ZM421 703L431 740L240 813L223 745L421 703ZM688 325Q688 464 598 562T362 660Q218 660 128 563T37 325Q37 187 125 89T360 -10Q458 -10 532 35T647 157T688 325ZM609
324Q609 211 544 134T364 56Q246 56 181 136T116 326Q116 438 181 516T362 594Q475 594 542 518T609 324Z" />
<glyph unicode="&#xd3;" glyph-name="uni00D3" horiz-adv-x="725" d="M-12 -213V917H737V-213H-12ZM319 703L516 745L499 813L308 740L319 703ZM688 325Q688 464 598 562T362 660Q218 660 128 563T37 325Q37 187 125 89T360 -10Q458 -10 532 35T647 157T688 325ZM609
324Q609 211 544 134T364 56Q246 56 181 136T116 326Q116 438 181 516T362 594Q475 594 542 518T609 324Z" />
<glyph unicode="&#xd4;" glyph-name="uni00D4" horiz-adv-x="725" d="M-12 -213V917H737V-213H-12ZM483 702L502 737L376 827H355L228 734L247 701L363 764L483 702ZM688 325Q688 464 598 562T362 660Q218 660 128 563T37 325Q37 187 125 89T360 -10Q458 -10 532
35T647 157T688 325ZM609 324Q609 211 544 134T364 56Q246 56 181 136T116 326Q116 438 181 516T362 594Q475 594 542 518T609 324Z" />
<glyph unicode="&#xd5;" glyph-name="uni00D5" horiz-adv-x="725" d="M-12 -213V917H737V-213H-12ZM509 798L473 807Q465 779 453 772T426 765Q390 765 365 782T307 800Q269 800 249 772T225 718L258 705Q266 729 280 736T308 744Q337 744 365 727T431 709Q467
709 484 733T509 798ZM688 325Q688 464 598 562T362 660Q218 660 128 563T37 325Q37 187 125 89T360 -10Q458 -10 532 35T647 157T688 325ZM609 324Q609 211 544 134T364 56Q246 56 181 136T116 326Q116 438 181 516T362 594Q475 594 542 518T609 324Z" />
<glyph unicode="&#xd6;" glyph-name="uni00D6" horiz-adv-x="725" d="M-12 -213V917H737V-213H-12ZM239 803V718H320V803H239ZM411 803V718H491V803H411ZM688 325Q688 464 598 562T362 660Q218 660 128 563T37 325Q37 187 125 89T360 -10Q458 -10 532 35T647 157T688
325ZM609 324Q609 211 544 134T364 56Q246 56 181 136T116 326Q116 438 181 516T362 594Q475 594 542 518T609 324Z" />
<glyph unicode="&#xd7;" glyph-name="uni00D7" horiz-adv-x="385" d="M-12 917H397V-213H-12V917ZM87 131L192 237L296 133L333 172L230 274L332 377L295 415L192 312L88 417L51 379L155 274L50 169L87 131Z" />
<glyph unicode="&#xd8;" glyph-name="uni00D8" horiz-adv-x="725" d="M-12 -213V917H737V-213H-12ZM688 325Q688 460 604 555L689 650H610L560 594Q520 625 470 642T362 660Q218 660 128 563T37 325Q37 186 120 94L37 0H110L160 56Q200 25 250 8T360 -10Q458 -10
532 35T647 157T688 325ZM362 594Q452 594 515 542L169 151Q116 224 116 326Q116 438 181 516T362 594ZM609 324Q609 211 544 134T364 56Q269 56 207 109L556 499Q609 427 609 324Z" />
<glyph unicode="&#xd9;" glyph-name="uni00D9" horiz-adv-x="714" d="M-12 -213V917H726V-213H-12ZM435 703L445 740L254 813L237 745L435 703ZM615 586H678V650H453V586H546V267Q546 56 359 56Q265 56 220 109T175 258V586H265V650H34V586H101V256Q101 151 155
71T355 -10Q455 -10 511 30T591 134T615 267V586Z" />
<glyph unicode="&#xda;" glyph-name="uni00DA" horiz-adv-x="714" d="M-12 -213V917H726V-213H-12ZM311 703L508 745L491 813L300 740L311 703ZM615 586H678V650H453V586H546V267Q546 56 359 56Q265 56 220 109T175 258V586H265V650H34V586H101V256Q101 151 155
71T355 -10Q455 -10 511 30T591 134T615 267V586Z" />
<glyph unicode="&#xdb;" glyph-name="uni00DB" horiz-adv-x="714" d="M-12 -213V917H726V-213H-12ZM476 702L495 737L369 827H348L221 734L240 701L356 764L476 702ZM615 586H678V650H453V586H546V267Q546 56 359 56Q265 56 220 109T175 258V586H265V650H34V586H101V256Q101
151 155 71T355 -10Q455 -10 511 30T591 134T615 267V586Z" />
<glyph unicode="&#xdc;" glyph-name="uni00DC" horiz-adv-x="714" d="M-12 -213V917H726V-213H-12ZM235 803V718H316V803H235ZM407 803V718H487V803H407ZM615 586H678V650H453V586H546V267Q546 56 359 56Q265 56 220 109T175 258V586H265V650H34V586H101V256Q101
151 155 71T355 -10Q455 -10 511 30T591 134T615 267V586Z" />
<glyph unicode="&#xdd;" glyph-name="uni00DD" horiz-adv-x="570" d="M232 586V650H-12V917H582V650H342V586H431L293 316H288L143 586H232ZM226 703L423 745L406 813L215 740L226 703ZM582 -213H-12V586H60L250 249V64H139V0H438V64H323V248L505 586H582V-213Z" />
<glyph unicode="&#xde;" glyph-name="uni00DE" horiz-adv-x="568" d="M-12 -213V917H580V-213H-12ZM40 0H277V64H196V139H327Q423 139 485 190T547 340Q547 418 494 471T321 525H196V586H277V650H40V586H122V64H40V0ZM317 194H196V471H315Q394 471 431 436T469
338Q469 194 317 194Z" />
<glyph unicode="&#xdf;" glyph-name="uni00DF" horiz-adv-x="648" d="M-12 917H660V-213H-12V917ZM631 128Q631 181 603 207T534 244T452 262T383 282T355 328Q355 366 387 388T461 428T535 475T567 554Q567 616 511 657T349 698Q232 698 167 643T101 491V445H37V388H101V57H24V0H172V486Q172
550 208 594T344 639Q415 639 455 616T496 550Q496 508 463 487T388 447T312 402T279 320Q279 271 307 248T377 216T460 199T530 175T559 122Q559 84 526 66T446 48Q418 48 389 53T339 73L342 129L285 135L272 34Q301 13 351 2T451 -10Q527 -10 579 26T631 128Z"
/>
<glyph unicode="&#xe0;" glyph-name="uni00E0" horiz-adv-x="479" d="M-12 -213V917H491V-213H-12ZM272 520L293 551L139 683L99 624L272 520ZM79 411L63 308L121 301L138 378Q175 396 224 396Q284 396 304 366T325 288V248Q307 250 287 251T246 252Q171 252 105
226T38 115Q38 44 83 17T173 -10Q227 -10 265 18T325 82V80Q327 -10 406 -10Q437 -10 464 5L463 51Q450 45 433 45Q395 45 395 93V305Q395 454 236 454Q192 454 153 444T79 411ZM325 167Q321 112 281 80T194 48Q165 48 138 64T111 123Q111 175 151 190T242 206Q264
206 285 204T325 201V167Z" />
<glyph unicode="&#xe1;" glyph-name="uni00E1" horiz-adv-x="479" d="M-12 -213V917H491V-213H-12ZM203 520L375 624L335 683L181 551L203 520ZM79 411L63 308L121 301L138 378Q175 396 224 396Q284 396 304 366T325 288V248Q307 250 287 251T246 252Q171 252
105 226T38 115Q38 44 83 17T173 -10Q227 -10 265 18T325 82V80Q327 -10 406 -10Q437 -10 464 5L463 51Q450 45 433 45Q395 45 395 93V305Q395 454 236 454Q192 454 153 444T79 411ZM325 167Q321 112 281 80T194 48Q165 48 138 64T111 123Q111 175 151 190T242
206Q264 206 285 204T325 201V167Z" />
<glyph unicode="&#xe2;" glyph-name="uni00E2" horiz-adv-x="479" d="M-12 -213V917H491V-213H-12ZM338 519L365 553L244 671H222L101 551L126 519L227 603L338 519ZM79 411L63 308L121 301L138 378Q175 396 224 396Q284 396 304 366T325 288V248Q307 250 287
251T246 252Q171 252 105 226T38 115Q38 44 83 17T173 -10Q227 -10 265 18T325 82V80Q327 -10 406 -10Q437 -10 464 5L463 51Q450 45 433 45Q395 45 395 93V305Q395 454 236 454Q192 454 153 444T79 411ZM325 167Q321 112 281 80T194 48Q165 48 138 64T111 123Q111
175 151 190T242 206Q264 206 285 204T325 201V167Z" />
<glyph unicode="&#xe3;" glyph-name="uni00E3" horiz-adv-x="479" d="M-12 -213V917H491V-213H-12ZM368 646L332 655Q324 628 311 620T285 612Q249 612 224 630T165 649Q127 649 108 618T84 561L117 549Q124 573 139 582T168 592Q196 592 224 573T291 553Q326
553 343 579T368 646ZM79 411L63 308L121 301L138 378Q175 396 224 396Q284 396 304 366T325 288V248Q307 250 287 251T246 252Q171 252 105 226T38 115Q38 44 83 17T173 -10Q227 -10 265 18T325 82V80Q327 -10 406 -10Q437 -10 464 5L463 51Q450 45 433 45Q395
45 395 93V305Q395 454 236 454Q192 454 153 444T79 411ZM325 167Q321 112 281 80T194 48Q165 48 138 64T111 123Q111 175 151 190T242 206Q264 206 285 204T325 201V167Z" />
<glyph unicode="&#xe4;" glyph-name="uni00E4" horiz-adv-x="479" d="M-12 -213V917H491V-213H-12ZM277 640V555H358V640H277ZM106 640V555H187V640H106ZM79 411L63 308L121 301L138 378Q175 396 224 396Q284 396 304 366T325 288V248Q307 250 287 251T246 252Q171
252 105 226T38 115Q38 44 83 17T173 -10Q227 -10 265 18T325 82V80Q327 -10 406 -10Q437 -10 464 5L463 51Q450 45 433 45Q395 45 395 93V305Q395 454 236 454Q192 454 153 444T79 411ZM325 167Q321 112 281 80T194 48Q165 48 138 64T111 123Q111 175 151 190T242
206Q264 206 285 204T325 201V167Z" />
<glyph unicode="&#xe5;" glyph-name="uni00E5" horiz-adv-x="479" d="M-12 -213V917H491V-213H-12ZM332 607Q332 647 309 672T234 698Q187 698 161 672T135 606Q135 514 233 514Q282 514 307 540T332 607ZM283 608Q283 586 271 570T233 554Q184 554 184 606Q184
628 196 643T233 658Q261 658 272 643T283 608ZM79 411L63 308L121 301L138 378Q175 396 224 396Q284 396 304 366T325 288V248Q307 250 287 251T246 252Q171 252 105 226T38 115Q38 44 83 17T173 -10Q227 -10 265 18T325 82V80Q327 -10 406 -10Q437 -10 464 5L463
51Q450 45 433 45Q395 45 395 93V305Q395 454 236 454Q192 454 153 444T79 411ZM325 167Q321 112 281 80T194 48Q165 48 138 64T111 123Q111 175 151 190T242 206Q264 206 285 204T325 201V167Z" />
<glyph unicode="&#xe6;" glyph-name="uni00E6" horiz-adv-x="755" d="M-12 -213V917H767V-213H-12ZM722 128L663 141Q652 100 623 76T541 51Q406 51 400 206H712Q718 233 718 259Q718 338 670 396T529 454Q435 454 377 382Q343 454 245 454Q144 454 80 411L63
308L121 301L139 378Q176 396 229 396Q286 396 306 365T326 288V248Q308 250 288 251T248 252Q172 252 105 226T37 115Q37 44 83 17T177 -10Q245 -10 287 24T352 95Q403 -10 535 -10Q618 -10 665 30T722 128ZM644 257H401Q407 314 436 354T527 395Q593 395 621
351T644 257ZM112 123Q112 175 153 190T245 206Q265 206 286 204T326 201V168Q323 112 283 80T195 48Q166 48 139 64T112 123Z" />
<glyph unicode="&#xe7;" glyph-name="uni00E7" horiz-adv-x="457" d="M-12 -213V917H469V-213H-12ZM359 -128Q359 -96 338 -73T270 -50H262V-9Q341 -2 379 46T426 150L366 163Q346 50 246 50Q180 50 145 95T110 220Q110 292 141 343T243 394Q298 394 338 369L355
294L413 301L396 408Q362 434 325 444T244 454Q140 454 88 381T36 216Q36 118 82 60T209 -8V-84H239Q263 -84 280 -91T297 -124Q297 -165 246 -165Q222 -165 203 -158T172 -142L154 -182Q188 -212 251 -212Q294 -212 326 -193T359 -128Z" />
<glyph unicode="&#xe8;" glyph-name="uni00E8" horiz-adv-x="466" d="M-12 -213V917H478V-213H-12ZM280 520L301 551L147 683L107 624L280 520ZM433 128L374 141Q364 100 334 75T251 50Q116 50 110 206H423Q429 233 429 259Q428 338 380 396T240 454Q146 454 91
387T36 216Q36 108 94 49T246 -10Q328 -10 376 30T433 128ZM355 258H111Q118 314 147 355T238 396Q303 396 331 352T355 258Z" />
<glyph unicode="&#xe9;" glyph-name="uni00E9" horiz-adv-x="466" d="M-12 -213V917H478V-213H-12ZM223 520L395 624L355 683L201 551L223 520ZM433 128L374 141Q364 100 334 75T251 50Q116 50 110 206H423Q429 233 429 259Q428 338 380 396T240 454Q146 454 91
387T36 216Q36 108 94 49T246 -10Q328 -10 376 30T433 128ZM355 258H111Q118 314 147 355T238 396Q303 396 331 352T355 258Z" />
<glyph unicode="&#xea;" glyph-name="uni00EA" horiz-adv-x="466" d="M-12 -213V917H478V-213H-12ZM351 519L378 553L257 671H235L114 551L139 519L240 603L351 519ZM433 128L374 141Q364 100 334 75T251 50Q116 50 110 206H423Q429 233 429 259Q428 338 380 396T240
454Q146 454 91 387T36 216Q36 108 94 49T246 -10Q328 -10 376 30T433 128ZM355 258H111Q118 314 147 355T238 396Q303 396 331 352T355 258Z" />
<glyph unicode="&#xeb;" glyph-name="uni00EB" horiz-adv-x="466" d="M-12 -213V917H478V-213H-12ZM119 640V555H200V640H119ZM290 640V555H371V640H290ZM433 128L374 141Q364 100 334 75T251 50Q116 50 110 206H423Q429 233 429 259Q428 338 380 396T240 454Q146
454 91 387T36 216Q36 108 94 49T246 -10Q328 -10 376 30T433 128ZM355 258H111Q118 314 147 355T238 396Q303 396 331 352T355 258Z" />
<glyph unicode="&#xec;" glyph-name="uni00EC" horiz-adv-x="277" d="M-12 -213V917H289V-213H-12ZM168 520L189 551L35 683L-5 624L168 520ZM32 0H258V57H180V445H30V388H110V57H32V0Z" />
<glyph unicode="&#xed;" glyph-name="uni00ED" horiz-adv-x="277" d="M-12 -213V917H289V-213H-12ZM67 520L239 624L199 683L45 551L67 520ZM32 0H258V57H180V445H30V388H110V57H32V0Z" />
<glyph unicode="&#xee;" glyph-name="uni00EE" horiz-adv-x="277" d="M-12 -213V917H289V-213H-12ZM240 518L266 552L147 669H125L5 550L30 518L130 602L240 518ZM32 0H258V57H180V445H30V388H110V57H32V0Z" />
<glyph unicode="&#xef;" glyph-name="uni00EF" horiz-adv-x="277" d="M-12 -213V917H289V-213H-12ZM4 638V554H84V638H4ZM172 638V554H252V638H172ZM32 0H258V57H180V445H30V388H110V57H32V0Z" />
<glyph unicode="&#xf0;" glyph-name="uni00F0" horiz-adv-x="520" d="M-12 -213V917H532V-213H-12ZM195 498L251 567Q293 532 324 492T372 403Q351 424 320 439T246 454Q151 454 93 387T35 219Q35 118 92 54T251 -10Q354 -10 413 55T473 223V257Q473 370 422 459T290
614L338 674L299 701L250 643Q229 658 207 671T161 698L132 646Q150 636 173 622T212 595L155 526L195 498ZM254 51Q182 51 146 101T110 223Q110 297 146 345T250 393Q318 393 357 349T398 262V220Q398 147 361 99T254 51Z" />
<glyph unicode="&#xf1;" glyph-name="uni00F1" horiz-adv-x="570" d="M-12 -213V917H582V-213H-12ZM432 646L396 655Q388 628 375 620T349 612Q313 612 288 630T229 649Q191 649 172 618T148 561L181 549Q188 573 203 582T232 592Q260 592 288 573T355 553Q390
553 407 579T432 646ZM337 0H562V57H485V285Q485 374 441 414T332 454Q224 454 176 366V445H26V388H106V57H28V0H254V57H176V265Q178 316 214 355T311 395Q356 395 385 366T414 264V57H337V0Z" />
<glyph unicode="&#xf2;" glyph-name="uni00F2" horiz-adv-x="509" d="M-12 -213V917H521V-213H-12ZM294 520L315 551L161 683L121 624L294 520ZM255 455Q147 455 91 386T35 219Q35 118 92 54T251 -10Q354 -10 414 56T474 223Q474 318 419 386T255 455ZM253 50Q182
50 145 100T108 223Q108 297 145 346T253 395Q323 395 361 348T400 224Q400 149 362 100T253 50Z" />
<glyph unicode="&#xf3;" glyph-name="uni00F3" horiz-adv-x="509" d="M-12 -213V917H521V-213H-12ZM237 520L409 624L369 683L215 551L237 520ZM255 455Q147 455 91 386T35 219Q35 118 92 54T251 -10Q354 -10 414 56T474 223Q474 318 419 386T255 455ZM253 50Q182
50 145 100T108 223Q108 297 145 346T253 395Q323 395 361 348T400 224Q400 149 362 100T253 50Z" />
<glyph unicode="&#xf4;" glyph-name="uni00F4" horiz-adv-x="509" d="M-12 -213V917H521V-213H-12ZM363 519L390 553L269 671H247L126 551L151 519L252 603L363 519ZM255 455Q147 455 91 386T35 219Q35 118 92 54T251 -10Q354 -10 414 56T474 223Q474 318 419
386T255 455ZM253 50Q182 50 145 100T108 223Q108 297 145 346T253 395Q323 395 361 348T400 224Q400 149 362 100T253 50Z" />
<glyph unicode="&#xf5;" glyph-name="uni00F5" horiz-adv-x="509" d="M-12 -213V917H521V-213H-12ZM394 646L358 655Q350 628 337 620T311 612Q275 612 250 630T191 649Q153 649 134 618T110 561L143 549Q150 573 165 582T194 592Q222 592 250 573T317 553Q352
553 369 579T394 646ZM255 455Q147 455 91 386T35 219Q35 118 92 54T251 -10Q354 -10 414 56T474 223Q474 318 419 386T255 455ZM253 50Q182 50 145 100T108 223Q108 297 145 346T253 395Q323 395 361 348T400 224Q400 149 362 100T253 50Z" />
<glyph unicode="&#xf6;" glyph-name="uni00F6" horiz-adv-x="509" d="M-12 -213V917H521V-213H-12ZM129 640V555H210V640H129ZM300 640V555H381V640H300ZM255 455Q147 455 91 386T35 219Q35 118 92 54T251 -10Q354 -10 414 56T474 223Q474 318 419 386T255 455ZM253
50Q182 50 145 100T108 223Q108 297 145 346T253 395Q323 395 361 348T400 224Q400 149 362 100T253 50Z" />
<glyph unicode="&#xf7;" glyph-name="uni00F7" horiz-adv-x="444" d="M-12 917H456V-213H-12V917ZM171 374H268V477H171V374ZM395 254V308H48V254H395ZM171 86H268V189H171V86Z" />
<glyph unicode="&#xf8;" glyph-name="uni00F8" horiz-adv-x="509" d="M-12 -213V917H521V-213H-12ZM476 223Q476 319 423 383L476 445H414L388 414Q334 454 257 454Q148 454 92 385T36 219Q36 125 88 60L36 0H97L121 29Q176 -10 252 -10Q355 -10 415 55T476 223ZM111
223Q111 297 148 345T255 393Q308 393 344 363L137 118Q111 161 111 223ZM400 224Q400 150 363 101T255 51Q202 51 166 81L375 327Q400 286 400 224Z" />
<glyph unicode="&#xf9;" glyph-name="uni00F9" horiz-adv-x="558" d="M-12 -213V917H570V-213H-12ZM287 520L308 551L154 683L114 624L287 520ZM394 0H544V57H464V445H301V388H394V184Q392 136 356 93T262 50Q215 50 185 79T155 180V445H7V388H85V160Q85 71 129
31T239 -10Q292 -10 332 16T394 84V0Z" />
<glyph unicode="&#xfa;" glyph-name="uni00FA" horiz-adv-x="558" d="M-12 -213V917H570V-213H-12ZM247 520L419 624L379 683L225 551L247 520ZM394 0H544V57H464V445H301V388H394V184Q392 136 356 93T262 50Q215 50 185 79T155 180V445H7V388H85V160Q85 71 129
31T239 -10Q292 -10 332 16T394 84V0Z" />
<glyph unicode="&#xfb;" glyph-name="uni00FB" horiz-adv-x="558" d="M-12 -213V917H570V-213H-12ZM372 519L399 553L278 671H256L135 551L160 519L261 603L372 519ZM394 0H544V57H464V445H301V388H394V184Q392 136 356 93T262 50Q215 50 185 79T155 180V445H7V388H85V160Q85
71 129 31T239 -10Q292 -10 332 16T394 84V0Z" />
<glyph unicode="&#xfc;" glyph-name="uni00FC" horiz-adv-x="558" d="M-12 -213V917H570V-213H-12ZM131 640V555H212V640H131ZM302 640V555H383V640H302ZM394 0H544V57H464V445H301V388H394V184Q392 136 356 93T262 50Q215 50 185 79T155 180V445H7V388H85V160Q85
71 129 31T239 -10Q292 -10 332 16T394 84V0Z" />
<glyph unicode="&#xfd;" glyph-name="uni00FD" horiz-adv-x="507" d="M-12 -213V917H519V-213H306V-156H230L290 0L447 388H500V445H304V388H376L265 89H259L134 388H212V445H6V388H59L221 1L163 -156H80V-213H-12ZM231 520L403 624L363 683L209 551L231 520Z" />
<glyph unicode="&#xfe;" glyph-name="uni00FE" horiz-adv-x="520" d="M135 352V688H-12V917H532V-213H239V-156H135V65Q157 28 196 9T282 -10Q354 -10 399 26T464 119T485 235Q485 338 432 396T295 454Q232 454 194 424T135 352ZM64 -156H-12V631H64V-156ZM410
229Q410 158 376 105T270 51Q212 51 174 89T135 183V246Q135 296 175 344T279 393Q334 393 372 351T410 229Z" />
<glyph unicode="&#xff;" glyph-name="uni00FF" horiz-adv-x="507" d="M-12 -213V917H519V-213H306V-156H230L290 0L447 388H500V445H304V388H376L265 89H259L134 388H212V445H6V388H59L221 1L163 -156H80V-213H-12ZM141 640V555H222V640H141ZM312 640V555H393V640H312Z" />
<glyph unicode="&#x2013;" glyph-name="uni2013" horiz-adv-x="619" d="M-12 917H631V-213H-12V917ZM59 206H561V257H59V206Z" />
<glyph unicode="&#x2014;" glyph-name="uni2014" horiz-adv-x="1075" d="M-12 917H1087V-213H-12V917ZM72 206H1012V257H72V206Z" />
<glyph unicode="&#x2018;" glyph-name="uni2018" horiz-adv-x="199" d="M-12 -213V917H211V-213H-12ZM112 440L165 656H96L43 440H112Z" />
<glyph unicode="&#x2019;" glyph-name="uni2019" horiz-adv-x="197" d="M-12 -213V917H209V-213H-12ZM94 695L42 479H111L164 695H94Z" />
<glyph unicode="&#x201a;" glyph-name="uni201A" horiz-adv-x="197" d="M-12 -213V917H209V-213H-12ZM74 114L22 -102H91L144 114H74Z" />
<glyph unicode="&#x201c;" glyph-name="uni201C" horiz-adv-x="361" d="M373 917V-213H-12V917H373ZM114 452L166 668H97L44 452H114ZM278 452L331 668H261L209 452H278Z" />
<glyph unicode="&#x201d;" glyph-name="uni201D" horiz-adv-x="360" d="M-12 -213V917H372V-213H-12ZM89 670L36 453H105L158 670H89ZM253 670L200 453H269L322 670H253Z" />
<glyph unicode="&#x201e;" glyph-name="uni201E" horiz-adv-x="363" d="M-12 -213V917H375V-213H-12ZM74 114L22 -102H91L144 114H74ZM241 114L188 -102H257L310 114H241Z" />
<glyph unicode="&#x2022;" glyph-name="uni2022" horiz-adv-x="353" d="M-12 917H365V-213H-12V917ZM67 244Q67 198 98 166T175 134Q222 134 254 166T287 244Q287 290 255 322T175 355Q129 355 98 323T67 244Z" />
<glyph unicode="&#x2039;" glyph-name="uni2039" horiz-adv-x="283" d="M-12 917H295V-213H-12V917ZM237 25L108 271L237 511H177L39 271L177 25H237Z" />
<glyph unicode="&#x203a;" glyph-name="uni203A" horiz-adv-x="283" d="M-12 917H295V-213H-12V917ZM106 25L244 271L106 511H46L174 271L46 25H106Z" />
</font>
</defs>
</svg>
