<?xml version="1.0" standalone="no"?>
<!DOCTYPE svg PUBLIC "-//W3C//DTD SVG 1.1//EN" "http://www.w3.org/Graphics/SVG/1.1/DTD/svg11.dtd">
<svg xmlns="http://www.w3.org/2000/svg">
<defs >
<font id="ContrailOne" horiz-adv-x="837" ><font-face
    font-family="Contrail One"
    units-per-em="2048"
    panose-1="2 0 0 0 0 0 0 0 0 0"
    ascent="1939"
    descent="-625"
    alphabetic="0" />
<glyph unicode=" " glyph-name="space" horiz-adv-x="420" />
<glyph unicode="!" glyph-name="exclam" horiz-adv-x="585" d="M559 1581L410 462Q407 437 385 436L210 429Q188 430 188 450L295 1575Q296 1596 321 1599L534 1606Q559 1605 559 1581ZM186 -11T146 30T105 136T158 252T276 303T382 262T422 156T369 40T251 -11Z" />
<glyph unicode="&quot;" glyph-name="quotedbl" horiz-adv-x="980" d="M527 1702L429 1099Q426 1086 422 1080T404 1073L278 1068Q246 1070 245 1088L271 1697Q273 1720 295 1721L495 1728Q527 1726 527 1702ZM968 1702L870 1099Q867 1086 863 1080T845 1073L719
1068Q687 1070 686 1088L712 1697Q714 1720 736 1721L936 1728Q968 1726 968 1702Z" />
<glyph unicode="#" glyph-name="numbersign" horiz-adv-x="1295" d="M740 1596L665 1188L869 1195L942 1590Q944 1603 949 1608T968 1615L1123 1621Q1148 1619 1148 1596L1075 1202L1262 1209Q1285 1208 1285 1183L1266 1023Q1263 999 1241 998L1036 991L970 635L1196
643Q1221 642 1221 616L1201 457Q1198 444 1194 438T1176 431L931 422L859 29Q855 11 849 7T833 2L673 -4Q652 -2 652 15L725 415L521 408L451 29Q447 11 441 7T425 2L265 -4Q244 -2 244 15L315 401L130 395Q105 396 105 419L122 580Q124 603 149 605L354 612L420
970L194 962Q169 963 169 986L187 1146Q190 1172 213 1172L458 1180L534 1590Q538 1613 560 1615L715 1621Q740 1619 740 1596ZM626 977L560 620L764 627L830 984L626 977Z" />
<glyph unicode="$" glyph-name="dollar" horiz-adv-x="964" d="M723 1770L691 1486Q690 1470 685 1465T666 1459L512 1441Q489 1441 486 1466L519 1762Q521 1786 545 1788L697 1793Q723 1793 723 1770ZM572 173L530 -185Q528 -211 505 -211L351 -216Q327 -215
326 -191L348 15Q350 36 373 40L572 173ZM207 -15Q182 -15 182 9L207 218Q211 240 233 242Q389 258 439 291T489 425T438 685T372 899Q324 1069 324 1177T359 1363T459 1486Q585 1574 798 1574Q825 1574 825 1549L798 1342Q794 1317 773 1315Q579 1302 579 1200Q579
1106 661 831T744 436Q744 -15 207 -15Z" />
<glyph unicode="%" glyph-name="percent" horiz-adv-x="1452" d="M1322 1527L381 -4Q368 -27 351 -27L230 39Q211 49 211 62T216 85L1158 1616Q1170 1639 1186 1639L1308 1573Q1328 1562 1328 1550T1322 1527ZM287 895T216 986T144 1236T232 1508T462 1622T675
1532T747 1281T660 1008T430 895ZM315 1240Q315 1062 439 1062Q505 1062 540 1122T575 1278Q575 1457 451 1457Q385 1457 350 1396T315 1240ZM924 -15T853 75T782 325T869 598T1099 712T1313 621T1385 369T1297 97T1066 -15ZM951 329Q951 149 1077 149Q1142 149
1177 210T1212 366Q1212 546 1089 546Q1023 546 987 485T951 329Z" />
<glyph unicode="&amp;" glyph-name="ampersand" horiz-adv-x="1055" d="M447 239L607 244Q627 244 627 217L604 25Q600 1 579 -1Q479 -11 384 -11Q230 -11 152 83T73 318Q73 477 168 606Q250 716 381 822Q287 1062 287 1225T382 1497T654 1606Q791 1606 879 1517T967
1288Q967 1141 874 1020Q796 920 663 812Q743 635 862 413T1060 60Q1069 45 1069 31Q1069 6 1043 5L811 -4Q793 -3 784 15Q577 393 463 635Q328 488 328 364T447 239ZM533 1236Q533 1146 586 1000Q722 1153 722 1270Q722 1318 699 1348T633 1378Q533 1378 533 1236Z"
/>
<glyph unicode="&apos;" glyph-name="quotesingle" horiz-adv-x="539" d="M527 1702L429 1099Q426 1086 422 1080T404 1073L278 1068Q246 1070 245 1088L271 1697Q273 1720 295 1721L495 1728Q527 1726 527 1702Z" />
<glyph unicode="(" glyph-name="parenleft" horiz-adv-x="694" d="M527 -427Q358 -427 271 -330T183 -47T226 542T304 1146T354 1408T404 1541T486 1652Q599 1743 803 1743Q820 1743 826 1737T833 1713L811 1538Q808 1513 789 1513Q691 1513 639 1458T555 1219T475
633T427 -30Q427 -191 554 -191Q575 -191 575 -216L552 -401Q549 -427 527 -427Z" />
<glyph unicode=")" glyph-name="parenright" horiz-adv-x="694" d="M212 1743Q381 1743 468 1646T556 1363T513 774T435 170T385 -92T335 -225T254 -336Q140 -427 -64 -427Q-81 -427 -87 -421T-94 -397L-72 -222Q-69 -197 -50 -197Q48 -197 100 -142T184 97T264
683T312 1346Q312 1507 185 1507Q164 1507 164 1532L187 1717Q190 1743 212 1743Z" />
<glyph unicode="*" glyph-name="asterisk" horiz-adv-x="992" d="M594 1680L753 1642Q774 1637 774 1612L637 1336L917 1381Q936 1379 940 1361L954 1205Q954 1177 932 1177L649 1218L772 975Q773 972 773 963T762 947L617 886Q609 884 599 884T582 896L535 1190L328
983Q322 977 314 977T301 985L195 1102Q188 1116 188 1124T195 1138L463 1278L213 1406Q202 1412 202 1420T205 1436L285 1571Q296 1586 305 1586T319 1583L530 1375L575 1662Q580 1680 594 1680Z" />
<glyph unicode="+" glyph-name="plus" horiz-adv-x="964" d="M673 1106L648 888L860 899Q885 898 885 874L862 694Q859 670 838 669L623 657L595 409Q592 384 569 383L386 377Q364 379 364 398L392 645L184 634Q159 635 159 660L180 839Q183 865 206 865L418 876L443
1100Q447 1123 470 1125L646 1131Q673 1130 673 1106Z" />
<glyph unicode="," glyph-name="comma" horiz-adv-x="585" d="M131 -352Q131 -339 158 -226T193 -4Q147 10 123 48T99 144T151 252T271 303T377 257T415 144Q415 25 361 -118Q279 -337 235 -366Q223 -373 151 -373Q131 -373 131 -352Z" />
<glyph unicode="-" glyph-name="hyphen" horiz-adv-x="964" d="M201 865L856 889Q879 888 879 864L858 684Q855 660 833 659L179 634Q155 635 155 660L175 839Q178 865 201 865Z" />
<glyph unicode="." glyph-name="period" horiz-adv-x="585" d="M178 -11T139 30T99 136T151 252T269 303T375 262T415 156T362 40T244 -11Z" />
<glyph unicode="/" glyph-name="slash" horiz-adv-x="519" d="M638 1684L106 -377Q101 -404 80 -404L-68 -371Q-88 -365 -88 -350L443 1715Q446 1729 451 1734T470 1741L612 1709Q638 1705 638 1684Z" />
<glyph unicode="0" glyph-name="zero" horiz-adv-x="964" d="M416 -15Q117 -15 117 369Q117 466 135 672T180 1030T217 1228T244 1331T281 1424T330 1498T397 1558Q480 1606 599 1606Q896 1606 896 1214Q896 1116 878 912T834 559T798 363T771 260T735 167T685
93T618 34Q535 -15 416 -15ZM420 987T397 746T373 365T446 226Q489 226 518 281T570 468T617 843T641 1225T568 1365Q526 1365 497 1310T444 1121Z" />
<glyph unicode="1" glyph-name="one" horiz-adv-x="964" d="M399 1583L713 1594Q732 1594 732 1568L583 253L750 260Q774 259 774 235L750 43Q747 17 725 16L149 -4Q124 -3 124 20L147 213Q150 238 173 238L330 244L452 1321L297 1316Q272 1317 272 1339Q272 1352
311 1443T363 1557T399 1583Z" />
<glyph unicode="2" glyph-name="two" horiz-adv-x="964" d="M600 1205Q600 1354 481 1354Q445 1354 359 1341T261 1327Q239 1327 239 1354L263 1542Q264 1555 269 1560T307 1573T416 1591T544 1600Q686 1600 771 1506T856 1267T796 989T636 710T480 465T401 268L760
283Q784 282 784 256L760 45Q758 21 733 18L152 -4Q127 -2 127 23V75Q127 260 210 445Q285 612 404 795T561 1059T600 1205Z" />
<glyph unicode="3" glyph-name="three" horiz-adv-x="964" d="M496 1354L275 1327Q254 1327 254 1354L277 1542Q280 1564 303 1569Q427 1600 569 1600T791 1506T871 1275Q871 1022 732 914Q652 852 519 832Q559 837 606 837Q737 837 792 766T848 558Q848 280 686
116Q562 -11 351 -11Q145 -11 130 11Q126 17 126 30L149 219Q152 239 158 241T171 244Q171 244 370 227Q464 227 529 295T594 489T560 654T463 694L296 684Q274 684 274 710L294 872Q297 895 325 899T368 906T415 916T462 931T502 951T541 978T571 1015T596 1064Q615
1133 615 1205Q615 1354 496 1354Z" />
<glyph unicode="4" glyph-name="four" horiz-adv-x="964" d="M844 1571L739 649L895 653Q919 652 919 626L899 450Q897 436 892 431T874 425L713 419L670 33Q667 9 643 7L437 -4Q416 -4 416 15L476 411L66 397Q38 397 38 415Q38 419 51 453L522 1558Q531 1582
569 1583L818 1596Q844 1595 844 1571ZM351 638L508 642L585 1248L351 638Z" />
<glyph unicode="5" glyph-name="five" horiz-adv-x="964" d="M834 1336L494 1331L454 952Q560 971 624 971T738 937T814 843Q864 730 864 590T837 346T752 160Q631 -11 367 -11Q161 -11 146 11Q142 17 142 30L165 219Q168 244 191 244Q208 244 273 236T392 227Q515
227 563 303T611 508T577 688T469 740T322 726T224 711T200 738L293 1559Q297 1581 320 1583L863 1602Q889 1601 889 1575L861 1362Q857 1337 834 1336Z" />
<glyph unicode="6" glyph-name="six" horiz-adv-x="964" d="M823 1344L642 1362Q554 1362 512 1319T448 1166T415 950Q511 1008 591 1008Q750 1008 818 899T886 589Q886 -15 466 -15Q285 -15 208 102T130 449Q130 606 155 823T202 1134T235 1265T265 1348T306
1428T364 1496T441 1552Q537 1600 646 1600T804 1592T860 1578T867 1557L844 1366Q841 1344 823 1344ZM493 801Q445 801 397 784Q380 590 380 494T383 363T398 286Q422 197 507 197Q596 197 625 323Q649 426 649 583Q649 801 493 801Z" />
<glyph unicode="7" glyph-name="seven" horiz-adv-x="964" d="M291 1583L911 1605Q932 1604 934 1578L907 1366L505 27Q499 5 480 4L264 -4Q242 -2 242 15L642 1335L228 1316Q203 1317 203 1341Q203 1353 225 1442T255 1559Q264 1582 291 1583Z" />
<glyph unicode="8" glyph-name="eight" horiz-adv-x="964" d="M921 1276Q921 1174 862 1049T694 836Q885 673 885 480Q885 247 777 116T442 -15Q180 -15 115 222Q97 288 97 366Q97 700 363 872Q290 946 253 1024T215 1193T236 1352T292 1466T376 1545Q469 1606
588 1606Q756 1606 838 1516T921 1276ZM329 402Q329 211 477 211Q634 211 634 448Q634 550 596 622T491 756Q412 692 371 596T329 402ZM447 1161Q447 1089 472 1039T553 942Q607 992 642 1069T678 1227T650 1351T575 1394Q447 1394 447 1161Z" />
<glyph unicode="9" glyph-name="nine" horiz-adv-x="964" d="M233 247L414 229Q502 229 544 272T608 425T641 641Q545 583 465 583Q306 583 238 692T170 1002Q170 1606 590 1606Q771 1606 848 1489T926 1142Q926 985 901 768T854 457T821 326T791 243T750 163T692
95T615 39Q519 -9 410 -9T252 -1T196 13T189 34L212 225Q215 247 233 247ZM563 790Q611 790 659 807Q676 1001 676 1097T673 1228T658 1306Q634 1394 549 1394Q460 1394 431 1268Q407 1165 407 1008Q407 790 563 790Z" />
<glyph unicode=":" glyph-name="colon" horiz-adv-x="585" d="M178 -11T139 30T99 136T151 252T269 303T375 262T415 156T362 40T244 -11ZM267 782T228 823T188 929T240 1045T358 1096T464 1055T504 949T451 833T333 782Z" />
<glyph unicode=";" glyph-name="semicolon" horiz-adv-x="585" d="M131 -352Q131 -339 158 -226T193 -4Q147 10 123 48T99 144T151 252T271 303T377 257T415 144Q415 25 361 -118Q279 -337 235 -366Q223 -373 151 -373Q131 -373 131 -352ZM267 782T228 823T188
929T240 1045T358 1096T464 1055T504 949T451 833T333 782Z" />
<glyph unicode="&lt;" glyph-name="less" horiz-adv-x="964" d="M483 668L745 351Q752 344 752 336T741 318L599 214Q589 206 584 206T563 221L219 625Q213 632 213 638Q213 713 234 734L654 1077Q667 1090 674 1090T688 1084L811 954Q816 946 816 939T810 926L483 668Z" />
<glyph unicode="=" glyph-name="equal" horiz-adv-x="964" d="M219 1058L874 1082Q897 1081 897 1057L876 877Q873 853 851 852L197 827Q173 828 173 853L193 1032Q196 1058 219 1058ZM168 604L823 628Q846 627 846 603L825 423Q822 399 800 398L146 373Q122 374
122 399L142 578Q145 604 168 604Z" />
<glyph unicode="&gt;" glyph-name="greater" horiz-adv-x="964" d="M531 628L269 945Q262 952 262 960T273 978L415 1082Q425 1090 430 1090T451 1075L795 671Q801 664 801 658Q801 583 780 562L360 219Q347 206 340 206T326 212L203 342Q198 350 198 357T204
370L531 628Z" />
<glyph unicode="?" glyph-name="question" horiz-adv-x="819" d="M261 429Q240 429 240 450Q240 620 290 736Q337 842 399 920Q492 1036 523 1099T554 1239Q554 1368 433 1368Q381 1368 305 1354T214 1340Q192 1340 192 1368L216 1558Q218 1577 241 1585Q415 1616
497 1616Q639 1616 724 1522T809 1290T771 1065T673 900T593 793T540 706Q483 603 483 463Q483 438 458 437L261 429ZM275 -11T235 30T195 136T247 252T365 303T471 262T512 156T459 40T341 -11Z" />
<glyph unicode="@" glyph-name="at" horiz-adv-x="2128" d="M1534 -123Q1558 -123 1558 -149L1544 -326Q1542 -346 1520 -352Q1297 -421 1055 -421T606 -311T286 3T172 462T253 932T474 1300T805 1542T1188 1632T1525 1572T1781 1403T1953 1137T2016 818T1991
544T1923 350T1820 207T1694 106T1554 42Q1422 -1 1277 -1Q1256 0 1256 19L1244 245Q1128 -11 928 -11Q755 -11 690 167Q656 263 656 431T682 732T725 922T768 1038T831 1134Q910 1218 1018 1218T1176 1175T1259 1044L1270 1178Q1272 1200 1295 1202L1492 1209Q1519
1208 1519 1183L1416 257Q1605 271 1696 399T1787 791Q1787 978 1707 1117T1489 1329T1159 1401T784 1280T497 953T392 505Q392 182 575 -4T1102 -191Q1231 -191 1377 -157T1534 -123ZM908 458Q908 219 1035 219Q1093 219 1126 270T1187 476T1214 703T1213 792T1209
843T1198 897T1177 940Q1151 983 1093 983T1001 932T948 793Q908 603 908 458Z" />
<glyph unicode="A" glyph-name="A" horiz-adv-x="964" d="M738 1535L855 29Q855 6 829 4L620 -4Q599 -4 599 15L584 345L357 336L282 28Q279 14 274 9T256 3L49 -4Q29 -4 29 15L468 1528Q475 1550 495 1551L715 1559Q736 1558 738 1535ZM549 1123L409 549L575
555L549 1123Z" />
<glyph unicode="B" glyph-name="B" horiz-adv-x="1011" d="M985 1244Q985 946 755 833Q833 800 877 732T921 556T890 353T792 179Q652 13 347 3L132 -4Q110 -2 110 15L282 1520Q284 1538 291 1544T416 1559T641 1568Q821 1568 903 1482T985 1244ZM498 734Q457
734 444 733L390 246Q533 246 606 337T680 576Q680 646 632 690T498 734ZM461 892Q748 894 748 1196Q748 1355 584 1355Q538 1355 512 1352L461 892Z" />
<glyph unicode="C" glyph-name="C" horiz-adv-x="874" d="M751 33T746 28T648 6T460 -11Q304 -11 221 90T138 365Q138 674 212 1083Q251 1303 308 1392Q368 1485 452 1522Q557 1568 676 1568T836 1562T882 1554Q895 1550 895 1529L872 1343Q868 1317 852 1317T778
1325T684 1334Q588 1334 538 1286T464 1100T416 731T393 376Q393 231 521 231Q558 231 650 243T755 256Q776 256 776 231L753 45Q751 33 746 28Z" />
<glyph unicode="D" glyph-name="D" horiz-adv-x="1058" d="M285 1540T290 1545T391 1559T654 1568T912 1472T1002 1207Q1002 890 931 477Q893 258 808 151Q730 53 564 22Q489 9 381 5L132 -4Q110 -3 110 15L283 1528Q285 1540 290 1545ZM512 1335L390 246Q539
259 596 304T677 475T722 819T745 1176Q745 1258 705 1298T597 1338T512 1335Z" />
<glyph unicode="E" glyph-name="E" horiz-adv-x="905" d="M748 684L437 672L390 262L773 275Q799 274 799 249L773 42Q771 21 747 16L132 -4Q110 -4 110 15L283 1528Q287 1549 309 1551L857 1570Q882 1567 882 1543L857 1336Q854 1311 831 1309L509 1300L466 928L774
939Q800 938 800 913L774 709Q770 686 748 684Z" />
<glyph unicode="F" glyph-name="F" horiz-adv-x="890" d="M756 674L436 663L364 32Q360 9 338 7L132 -4Q110 -4 110 15L284 1528Q288 1549 310 1551L858 1574Q883 1571 883 1547L858 1340Q855 1314 832 1313L510 1302L466 918L782 929Q808 928 808 903L782 699Q778
676 756 674Z" />
<glyph unicode="G" glyph-name="G" horiz-adv-x="959" d="M851 1317L683 1334Q592 1334 542 1290Q489 1241 464 1102T416 731T393 397T426 252T504 209T578 210L644 777Q648 799 670 801L858 808Q885 807 885 784L801 34Q797 12 774 9Q641 -11 450 -11Q221 -11
156 210Q138 271 138 331T142 473Q154 767 212 1083Q251 1303 308 1392Q368 1485 452 1522Q557 1568 677 1568T837 1562T882 1554Q894 1550 894 1529L872 1343Q868 1317 851 1317Z" />
<glyph unicode="H" glyph-name="H" horiz-adv-x="1062" d="M1040 1535L869 28Q865 5 844 3L638 -4Q616 -4 616 15L690 672L436 663L364 28Q361 4 338 3L132 -4Q110 -4 110 15L282 1528Q286 1549 308 1551L509 1559Q535 1558 535 1535L462 898L717 907L787 1528Q790
1550 814 1551L1014 1559Q1040 1558 1040 1535Z" />
<glyph unicode="I" glyph-name="I" horiz-adv-x="557" d="M535 1534L364 28Q361 4 338 3L132 -4Q110 -4 110 15L283 1528Q287 1549 309 1551L509 1558Q535 1557 535 1534Z" />
<glyph unicode="J" glyph-name="J" horiz-adv-x="701" d="M688 1534L565 438Q537 182 395 82Q263 -11 25 -11Q0 -11 0 13L24 208Q29 232 49 232Q231 232 280 315Q303 353 310 416L436 1528Q438 1540 442 1545T461 1551L662 1558Q688 1556 688 1534Z" />
<glyph unicode="K" glyph-name="K" horiz-adv-x="978" d="M925 21Q925 4 899 4L684 -4Q667 -3 662 15L447 764L364 28Q361 4 337 3L131 -4Q110 -4 110 15L281 1528Q283 1540 287 1545T306 1551L507 1558Q533 1557 533 1534L457 861L746 1527Q756 1550 778 1551L987
1558Q1013 1556 1013 1537Q1013 1525 1006 1511L683 832L924 32Q925 29 925 21Z" />
<glyph unicode="L" glyph-name="L" horiz-adv-x="885" d="M533 1534L390 263L773 278Q799 277 799 252L773 45Q770 19 747 18L131 -4Q110 -4 110 15L281 1528Q283 1540 287 1545T306 1551L507 1558Q533 1557 533 1534Z" />
<glyph unicode="M" glyph-name="M" horiz-adv-x="1363" d="M508 15L424 1212L349 29Q347 4 323 3L132 -4Q110 -2 110 15L282 1528Q284 1540 288 1545T308 1551L560 1560Q584 1559 586 1536L677 332L1024 1528Q1029 1550 1052 1551L1315 1560Q1340 1559 1340 1536L1170
28Q1167 4 1143 3L937 -4Q916 -4 916 15L1111 1234L753 27Q745 4 724 3L530 -4Q510 -2 508 15Z" />
<glyph unicode="N" glyph-name="N" horiz-adv-x="1085" d="M1064 1538L892 32Q888 9 866 7L668 -4Q651 -4 648 15L438 1083L364 28Q363 4 338 3L132 -4Q110 -4 110 15L283 1528Q287 1549 309 1551L512 1562Q526 1562 530 1557T538 1538L741 529L811 1528Q812 1550
838 1551L1037 1562Q1064 1562 1064 1538Z" />
<glyph unicode="O" glyph-name="O" horiz-adv-x="1047" d="M310 -15T224 85T138 335Q138 717 215 1090Q276 1383 384 1482Q486 1574 653 1574T907 1473T994 1225T975 868T928 518T881 313T827 182T748 76Q647 -15 479 -15ZM504 221Q631 221 667 455Q691 610 715
841T739 1166T709 1299T622 1338Q506 1338 465 1103Q441 965 417 729T393 395T424 260T504 221Z" />
<glyph unicode="P" glyph-name="P" horiz-adv-x="1023" d="M968 933Q882 600 430 599L367 32Q364 8 342 7L132 -4Q110 -2 110 15L283 1528Q287 1549 309 1551Q496 1568 666 1568Q1004 1568 1004 1244Q1004 1067 968 933ZM512 1335L455 830Q628 830 688 902T748
1182Q748 1262 705 1300T595 1338T512 1335Z" />
<glyph unicode="Q" glyph-name="Q" horiz-adv-x="1047" d="M355 -143Q355 -81 380 -4Q261 23 200 117T138 348T157 693T205 1041T253 1243T306 1373T384 1482Q486 1574 653 1574T907 1473T994 1225T975 868T929 521T884 324T837 200T768 96Q682 4 541 -11Q541
-114 658 -114Q709 -114 769 -105T850 -95T871 -119L854 -268Q852 -288 832 -294Q715 -321 577 -321Q355 -321 355 -143ZM504 221Q631 221 667 455Q691 610 715 841T739 1166T709 1299T622 1338Q506 1338 465 1103Q441 965 417 729T393 395T424 260T504 221Z" />
<glyph unicode="R" glyph-name="R" horiz-adv-x="1032" d="M961 24Q961 4 934 4L709 -4Q694 -3 687 15L436 651L366 28Q363 4 341 3L132 -4Q110 -2 110 15L283 1520Q285 1538 292 1544T398 1559T662 1568T916 1481T1006 1255T973 1012T864 822T674 697L958 36Q961
30 961 24ZM513 1335L457 838Q642 849 712 1006Q750 1092 750 1180T714 1304T608 1340T513 1335Z" />
<glyph unicode="S" glyph-name="S" horiz-adv-x="714" d="M88 -15Q63 -15 63 9L88 218Q92 240 114 242Q270 258 320 291T370 425T319 685T253 899Q205 1069 205 1177T240 1363T340 1486Q466 1574 679 1574Q706 1574 706 1549L679 1342Q675 1317 654 1315Q460 1302
460 1200Q460 1106 542 831T625 436Q625 -15 88 -15Z" />
<glyph unicode="T" glyph-name="T" horiz-adv-x="792" d="M204 1547L852 1570Q875 1569 875 1545L849 1340Q847 1325 843 1319T824 1312L630 1305L484 28Q481 4 458 3L250 -4Q230 -4 230 15L377 1297L178 1291Q153 1292 153 1314L178 1522Q179 1546 204 1547Z" />
<glyph unicode="U" glyph-name="U" horiz-adv-x="1063" d="M535 1534L420 509Q406 391 406 341T434 256T525 221T621 284T670 486L787 1528Q790 1550 814 1551L1016 1559Q1041 1558 1041 1535L926 509Q891 194 764 78Q661 -15 496 -15T243 71T155 327Q155 408
165 496L283 1528Q285 1541 289 1545T308 1551L510 1558Q535 1557 535 1534Z" />
<glyph unicode="V" glyph-name="V" horiz-adv-x="918" d="M283 21L167 1527Q167 1550 194 1551L402 1558Q424 1558 424 1539L471 411L736 1527Q739 1540 743 1545T760 1551L967 1559Q989 1559 989 1540L550 28Q543 4 526 4L305 -4Q285 -3 283 21Z" />
<glyph unicode="W" glyph-name="W" horiz-adv-x="1376" d="M922 1558Q944 1558 944 1539L956 383L1204 1527Q1211 1549 1228 1551L1417 1558Q1437 1556 1437 1539L1035 29Q1028 7 1013 5L782 -4Q760 -3 760 21L751 958L558 28Q552 4 534 4L294 -4Q273 -3 271 21L187
1527Q187 1550 214 1551L422 1558Q444 1558 444 1539L458 364L712 1527Q716 1548 743 1551L922 1558Z" />
<glyph unicode="X" glyph-name="X" horiz-adv-x="943" d="M1014 1535L665 766L881 32Q882 29 882 23Q882 6 857 4L644 -4Q629 -3 622 15L480 555L270 32Q258 4 242 3L36 -4Q15 -4 15 15L378 846L174 1528Q174 1550 199 1551L406 1558Q424 1557 432 1534L565 1047L762
1528Q771 1550 789 1551L989 1559Q1014 1558 1014 1535Z" />
<glyph unicode="Y" glyph-name="Y" horiz-adv-x="897" d="M408 1539L522 968L727 1528Q735 1550 752 1551L958 1558Q970 1557 977 1550T985 1535L612 701L535 28Q532 4 509 3L303 -4Q281 -4 281 15L356 679L152 1535Q152 1549 179 1551L382 1559Q404 1558 408 1539Z" />
<glyph unicode="Z" glyph-name="Z" horiz-adv-x="869" d="M267 1551L875 1574Q899 1572 899 1547L402 265L727 276Q751 274 751 251L727 43Q723 20 701 18L62 -4Q40 -4 40 15L541 1305L241 1295Q216 1296 216 1317L241 1528Q244 1549 267 1551Z" />
<glyph unicode="[" glyph-name="bracketleft" horiz-adv-x="681" d="M777 1505L567 1498L377 -205L578 -198Q603 -199 603 -223L582 -405Q578 -429 556 -431L134 -446Q112 -446 112 -426L351 1699Q354 1722 376 1723L799 1737Q825 1736 825 1711L803 1531Q799
1507 777 1505Z" />
<glyph unicode="\" glyph-name="backslash" horiz-adv-x="519" d="M412 -377L62 1684Q62 1703 89 1709L233 1741Q247 1740 251 1735T258 1715L609 -350Q609 -364 587 -371L436 -404Q424 -404 420 -398T412 -377Z" />
<glyph unicode="]" glyph-name="bracketright" horiz-adv-x="681" d="M-46 -206L164 -199L354 1504L153 1497Q128 1498 128 1522L149 1704Q153 1728 175 1730L597 1745Q619 1745 619 1725L380 -400Q377 -423 355 -424L-68 -438Q-94 -437 -94 -412L-72 -232Q-68
-208 -46 -206Z" />
<glyph unicode="^" glyph-name="asciicircum" horiz-adv-x="964" d="M524 1046L228 671Q222 665 214 665T200 670L71 792Q65 798 65 805T78 826L477 1302Q484 1311 495 1315T548 1319T597 1313L967 821Q982 808 982 802T974 785L837 666Q827 655 818 655T803 662L524
1046Z" />
<glyph unicode="_" glyph-name="underscore" horiz-adv-x="1132" d="M-110 -303Q-135 -301 -135 -277L-114 -97Q-111 -72 -88 -72L1109 -28Q1132 -29 1132 -55L1111 -233Q1109 -247 1104 -253T1085 -260L-110 -303Z" />
<glyph unicode="`" glyph-name="grave" horiz-adv-x="877" d="M509 1653L612 1252Q612 1224 588 1223L471 1219Q447 1219 438 1241L265 1649Q265 1673 288 1674L477 1681Q502 1680 509 1653Z" />
<glyph unicode="a" glyph-name="a" horiz-adv-x="1054" d="M993 1183L863 30Q860 4 837 3L635 -4Q614 -2 614 15L633 151Q587 73 533 31T410 -11T294 12T216 74T166 167Q131 263 131 429T153 712T193 888T238 1013T303 1120Q385 1218 510 1218Q603 1218 652 1174T734
1042L746 1178Q748 1200 771 1202L967 1209Q993 1207 993 1183ZM383 458Q383 219 511 219Q567 219 602 270T662 477T688 703T687 793T683 843T672 896T651 940Q625 983 567 983T475 932T422 794Q383 610 383 458Z" />
<glyph unicode="b" glyph-name="b" horiz-adv-x="1060" d="M539 1665L455 1026Q505 1119 562 1168T691 1218T811 1195T889 1133T940 1040Q974 944 974 778T952 495T912 319T867 194T802 87Q720 -11 610 -11T450 35T366 176L355 30Q353 4 330 3L128 -4Q106 -2 106
15L292 1658Q294 1672 298 1678T317 1685L513 1692Q539 1689 539 1665ZM722 749Q722 988 594 988Q538 988 503 937T443 730T417 504T418 414T422 364T433 311T454 268Q480 224 538 224T630 275T682 413Q722 597 722 749Z" />
<glyph unicode="c" glyph-name="c" horiz-adv-x="886" d="M823 1187Q845 1179 845 1149L822 968Q820 948 795 948T746 958Q649 1001 585 1001T483 948T422 796Q379 611 379 458Q379 212 506 212Q598 212 655 235T729 259Q764 259 764 229L743 53Q741 35 736 32T721
24Q600 -11 494 -11T326 16T228 85T170 188Q131 291 131 441T150 703T191 885T249 1019T333 1126Q438 1218 611 1218Q727 1218 823 1187Z" />
<glyph unicode="d" glyph-name="d" horiz-adv-x="1045" d="M623 136Q532 -11 403 -11Q230 -11 166 167Q131 263 131 429T153 712T193 888T238 1013T303 1120Q385 1218 510 1218Q602 1218 651 1174T734 1043L791 1658Q794 1684 818 1685L1014 1692Q1039 1689 1039
1665L854 30Q851 4 828 3L627 -4Q606 -2 606 15L623 136ZM383 458Q383 219 511 219Q567 219 602 270T662 477T688 703T687 793T683 843T672 896T651 940Q625 983 567 983T475 932T422 794Q383 610 383 458Z" />
<glyph unicode="e" glyph-name="e" horiz-adv-x="996" d="M148 247T140 305T131 466T153 718Q226 1218 607 1218Q754 1218 832 1117T910 855T890 542Q887 515 859 514L365 497Q364 482 364 457Q364 344 403 278T523 212T671 235T752 259T773 251T782 229L762 53Q761
38 757 34T739 24Q618 -11 506 -11T332 16T233 85T172 187ZM389 748L380 684L641 697Q658 698 663 703Q678 718 678 785T674 880T658 937Q635 1001 580 1001T492 982Q421 938 389 748Z" />
<glyph unicode="f" glyph-name="f" horiz-adv-x="693" d="M491 1239L488 1209L710 1217Q734 1216 734 1191L706 1032Q702 1008 681 1007L467 999L369 30Q367 16 362 10T343 3L141 -4Q119 -2 119 15L228 997L137 992Q112 993 112 1017L139 1178Q141 1200 165 1202L251
1205L265 1327Q291 1553 398 1639Q489 1712 652 1712Q759 1712 839 1688Q869 1678 869 1657L843 1482Q839 1458 827 1458T766 1472T646 1487T540 1429T491 1239Z" />
<glyph unicode="g" glyph-name="g" horiz-adv-x="1048" d="M622 -36L648 179Q598 87 542 38T414 -11T294 12T216 74T166 167Q131 263 131 429T153 712T193 888T238 1013T303 1120Q385 1218 510 1218Q602 1218 651 1174T734 1043L744 1177Q746 1201 770 1202L972
1209Q993 1206 993 1188L857 -25Q828 -294 690 -408Q581 -499 397 -499Q280 -499 160 -472Q143 -469 137 -464T131 -443L151 -262Q154 -235 173 -235Q186 -235 246 -255T380 -275T495 -262T562 -216Q606 -162 622 -36ZM383 458Q383 219 511 219Q567 219 602 270T662
477T688 703T687 793T683 843T672 896T651 940Q625 983 567 983T475 932T422 794Q383 610 383 458Z" />
<glyph unicode="h" glyph-name="h" horiz-adv-x="1067" d="M539 1665L476 1104Q611 1218 751 1218Q919 1218 963 1034Q975 984 975 940T972 868L876 30Q872 5 851 3L649 -4Q627 -2 627 15L718 807Q721 833 721 854Q721 936 683 965T585 995T461 970L355 30Q351
5 330 3L128 -4Q106 -2 106 15L292 1658Q294 1672 298 1678T317 1685L513 1692Q539 1689 539 1665Z" />
<glyph unicode="i" glyph-name="i" horiz-adv-x="546" d="M312 1318T275 1357T238 1457T287 1567T399 1616T499 1577T538 1477T487 1367T374 1318ZM485 1183L355 30Q353 16 348 10T329 3L128 -4Q106 -2 106 15L238 1178Q242 1200 263 1202L458 1209Q485 1207 485 1183Z" />
<glyph unicode="j" glyph-name="j" horiz-adv-x="544" d="M97 -91L236 1178Q240 1200 261 1202L456 1209Q483 1207 483 1183L345 -39Q318 -277 207 -388T-121 -499Q-145 -499 -145 -475L-122 -280Q-120 -256 -102 -256Q-10 -256 38 -216T97 -91ZM310 1318T273
1357T236 1457T285 1567T397 1616T497 1577T536 1477T485 1367T372 1318Z" />
<glyph unicode="k" glyph-name="k" horiz-adv-x="981" d="M885 21Q885 3 858 3L645 -4Q630 -3 623 15L419 590L356 30Q354 16 349 10T330 3L129 -4Q107 -2 107 15L292 1658Q294 1672 299 1678T318 1685L514 1692Q540 1689 540 1665L426 653L692 1177Q704 1201
725 1202L932 1209Q957 1206 957 1186Q957 1175 953 1166L654 647L882 33Q885 26 885 21Z" />
<glyph unicode="l" glyph-name="l" horiz-adv-x="545" d="M539 1665L355 31Q353 17 348 11T329 4L128 -4Q106 -2 106 15L291 1658Q293 1672 298 1678T317 1685L513 1692Q539 1689 539 1665Z" />
<glyph unicode="m" glyph-name="m" horiz-adv-x="1567" d="M485 1183L474 1090Q621 1218 756 1218T946 1087Q1096 1218 1237 1218Q1411 1218 1461 1034Q1475 983 1475 939T1472 868L1376 30Q1372 5 1351 3L1149 -4Q1127 -2 1127 15L1218 807Q1222 841 1222 854Q1222
936 1183 965T1087 995T972 974Q975 950 975 923T972 868L876 30Q872 5 851 3L649 -4Q627 -2 627 15L718 807Q721 833 721 854Q721 936 683 965T585 995T461 970L355 31Q351 6 330 4L128 -4Q106 -2 106 15L238 1178Q242 1200 263 1202L458 1209Q485 1208 485 1183Z"
/>
<glyph unicode="n" glyph-name="n" horiz-adv-x="1067" d="M486 1183L475 1091Q619 1218 751 1218Q919 1218 963 1034Q975 984 975 940T972 868L876 30Q872 5 851 3L649 -4Q627 -2 627 15L718 807Q721 833 721 854Q721 936 683 965T585 995T462 970L355 30Q351
5 330 3L128 -4Q106 -2 106 15L238 1178Q242 1200 263 1202L459 1209Q486 1208 486 1183Z" />
<glyph unicode="o" glyph-name="o" horiz-adv-x="1023" d="M296 -11T214 95T131 406Q131 501 152 654T191 876T242 1012T320 1122Q419 1218 588 1218Q828 1218 899 1042Q937 948 937 815T917 538T878 327T828 193T750 84Q651 -11 474 -11ZM650 427Q661 480 678
625T696 841Q696 1011 573 1011Q515 1011 478 956T417 773Q371 513 371 351T493 189Q551 189 589 244T650 427Z" />
<glyph unicode="p" glyph-name="p" horiz-adv-x="1055" d="M52 -462L238 1177Q241 1201 263 1202L464 1209Q486 1207 486 1188L466 1055Q512 1134 566 1176T689 1218T806 1195T884 1133T934 1040Q969 944 969 778T947 495T907 319T862 194T797 87Q715 -11 604
-11T444 36T360 178L301 -455Q300 -479 275 -480L79 -487Q52 -486 52 -462ZM718 749Q718 987 590 987Q532 987 498 936T438 727T412 501T413 414T417 363T428 310T449 268Q475 224 533 224T624 275T677 414Q718 602 718 749Z" />
<glyph unicode="q" glyph-name="q" horiz-adv-x="1053" d="M560 -462L642 168Q595 82 539 36T412 -11T294 12T216 74T166 167Q131 263 131 429T153 712T193 888T238 1013T303 1120Q385 1218 510 1218Q602 1218 651 1174T734 1043L744 1176Q746 1200 770 1201L971
1208Q992 1205 992 1187L809 -455Q805 -478 782 -480L586 -487Q560 -485 560 -462ZM383 458Q383 219 511 219Q567 219 602 270T662 477T688 703T687 793T683 843T672 896T651 940Q625 983 567 983T475 932T422 794Q383 610 383 458Z" />
<glyph unicode="r" glyph-name="r" horiz-adv-x="794" d="M779 954L672 965Q542 965 454 913L355 31Q351 6 330 4L128 -4Q106 -2 106 15L238 1178Q242 1200 263 1202L458 1209Q485 1208 485 1183L473 1080Q537 1145 597 1181T717 1218T810 1213Q831 1209 831 1185Q831
1116 808 980Q803 954 779 954Z" />
<glyph unicode="s" glyph-name="s" horiz-adv-x="747" d="M653 976L540 981Q492 981 465 959T437 896T452 804Q472 737 521 648T590 522Q648 407 648 303Q648 152 560 71T291 -11Q202 -11 149 -2T91 13T85 31L111 216Q113 241 128 241T188 230T265 219Q387 219
387 316Q387 385 358 445T294 569T240 671T201 778T180 906Q180 1046 263 1132T507 1218Q610 1218 668 1208Q693 1204 693 1182L671 1004Q671 976 653 976Z" />
<glyph unicode="t" glyph-name="t" horiz-adv-x="745" d="M264 1205Q287 1425 294 1432T315 1441L506 1448Q533 1446 533 1423Q514 1312 501 1210L734 1218Q758 1217 758 1192L730 1033Q726 1009 705 1008L476 999Q408 387 408 324Q408 207 508 207Q559 207 607
223T667 239Q688 239 688 213L667 38Q665 23 660 16T611 -1T462 -11Q308 -11 234 60T160 274T239 996L141 992Q116 993 116 1017L143 1178Q146 1201 169 1202L264 1205Z" />
<glyph unicode="u" glyph-name="u" horiz-adv-x="1067" d="M629 21L637 98Q516 -11 363 -11Q248 -11 194 73T139 283Q139 304 143 340L238 1177Q241 1201 263 1202L465 1210Q486 1208 486 1189L396 400Q393 374 393 352Q393 268 425 240T523 212T653 237L759 1177Q762
1201 784 1202L986 1209Q1007 1207 1007 1188L877 31Q874 7 850 5L655 -4Q629 -3 629 21Z" />
<glyph unicode="v" glyph-name="v" horiz-adv-x="927" d="M466 327L695 1178Q701 1201 722 1202L932 1209Q957 1207 957 1183L550 30Q541 5 524 3L319 -4Q300 -3 297 15L141 1178Q144 1201 166 1202L363 1209Q386 1208 388 1183L466 327Z" />
<glyph unicode="w" glyph-name="w" horiz-adv-x="1304" d="M891 307L1098 1178Q1104 1201 1124 1202L1308 1209Q1334 1207 1334 1183L975 30Q968 5 949 3L748 -4Q731 -3 726 15L686 709L501 30Q495 4 476 3L275 -4Q258 -3 253 15L151 1178Q154 1201 176 1202L362
1209Q385 1208 387 1183L420 314L623 1178Q627 1199 650 1202L814 1208Q839 1207 841 1182L891 307Z" />
<glyph unicode="x" glyph-name="x" horiz-adv-x="945" d="M48 -4Q23 -2 23 21L356 660L178 1178Q178 1201 204 1202L401 1209Q419 1208 427 1183L534 835L687 1178Q697 1201 714 1202L908 1209Q934 1207 934 1183L639 596L826 29Q823 4 801 3L604 -4Q585 -3 578
21L456 422L270 29Q259 3 244 3L48 -4Z" />
<glyph unicode="y" glyph-name="y" horiz-adv-x="940" d="M970 1183L393 -454Q385 -479 364 -480L163 -487Q141 -486 141 -467L313 18L157 1178Q157 1201 182 1202L379 1209Q402 1208 404 1183L480 342L723 1178Q729 1201 749 1202L945 1209Q970 1207 970 1183Z" />
<glyph unicode="z" glyph-name="z" horiz-adv-x="863" d="M59 -4Q37 -2 37 18Q37 21 39 27L507 976L194 964Q169 965 169 988L190 1178Q193 1201 217 1202L829 1222Q856 1221 856 1195L404 246L727 262Q752 261 752 236L729 46Q727 32 722 26T703 19L59 -4Z" />
<glyph unicode="{" glyph-name="braceleft" horiz-adv-x="762" d="M209 748Q272 748 316 785T368 891Q410 1266 461 1470Q529 1743 890 1743Q906 1743 912 1737T919 1713L898 1538Q893 1513 877 1513Q700 1513 674 1363Q626 1096 601 873Q579 674 374 662Q471
636 507 580T543 431T529 209T514 -15Q514 -191 641 -191Q663 -191 663 -216L639 -401Q635 -419 629 -423T613 -427Q445 -427 358 -330T271 -65Q271 6 290 167T309 398Q309 551 191 551Q167 551 167 576L182 723Q185 744 209 748Z" />
<glyph unicode="|" glyph-name="bar" horiz-adv-x="538" d="M498 1663L264 -436Q261 -461 237 -463L103 -468Q81 -467 81 -448L317 1658Q319 1672 324 1678T343 1685L472 1690Q498 1688 498 1663Z" />
<glyph unicode="}" glyph-name="braceright" horiz-adv-x="762" d="M608 568Q545 568 501 531T449 425Q407 50 356 -154Q288 -427 -73 -427Q-89 -427 -95 -421T-102 -397L-81 -222Q-76 -197 -60 -197Q117 -197 143 -47Q191 220 216 443Q238 642 443 654Q346 680
310 736T274 885T288 1107T303 1331Q303 1507 176 1507Q154 1507 154 1532L178 1717Q182 1735 188 1739T204 1743Q372 1743 459 1646T546 1381Q546 1310 527 1149T508 918Q508 765 626 765Q650 765 650 740L635 593Q632 572 608 568Z" />
<glyph unicode="~" glyph-name="asciitilde" horiz-adv-x="1031" d="M254 952Q317 988 385 988T583 975T761 962T875 988T949 1015Q972 1015 974 997L989 880Q988 856 967 837Q846 726 731 726Q662 726 541 740T362 754T241 728T160 701T142 717L127 835Q133 884
254 952Z" />
<glyph unicode="&#xa1;" glyph-name="exclamdown" horiz-adv-x="585" d="M81 -375L230 744Q233 769 255 770L430 777Q452 776 452 756L345 -369Q344 -390 319 -393L106 -400Q81 -399 81 -375ZM454 1217T494 1176T535 1070T482 954T364 903T258 944T218 1050T271
1166T389 1217Z" />
<glyph unicode="&#xa2;" glyph-name="cent" horiz-adv-x="964" d="M770 1370L738 1086Q737 1070 732 1065T713 1059L559 1041Q536 1041 533 1066L566 1362Q568 1386 592 1388L744 1393Q770 1393 770 1370ZM669 173L627 -185Q625 -211 602 -211L448 -216Q424 -215
423 -191L445 15Q447 36 470 40L669 173ZM833 1187Q855 1179 855 1149L832 968Q830 948 805 948T756 958Q659 1001 595 1001T493 948T432 796Q389 611 389 458Q389 212 516 212Q608 212 665 235T739 259Q774 259 774 229L753 53Q751 36 746 32T731 24Q610 -11 504
-11T336 16T238 85T180 188Q141 291 141 441T160 703T201 885T259 1019T343 1126Q448 1218 621 1218Q737 1218 833 1187Z" />
<glyph unicode="&#xa3;" glyph-name="sterling" horiz-adv-x="964" d="M168 628Q143 630 143 654L167 857Q170 882 193 882L265 884L285 1061Q312 1284 362 1382Q462 1574 717 1574Q812 1574 870 1567T933 1555T939 1533L916 1338Q913 1312 898 1312T827 1320T720
1329T632 1312Q560 1276 539 1087L518 893L731 900Q754 899 754 874L729 672Q726 647 704 646L491 639L450 259L834 273Q857 272 857 247L834 45Q831 20 809 19L107 -4Q82 -3 82 20L105 223Q107 236 111 241T131 248L194 251L237 631L168 628Z" />
<glyph unicode="&#xa4;" glyph-name="currency" horiz-adv-x="964" d="M124 673Q124 878 223 1017L114 1179Q104 1192 104 1199T112 1213L240 1301Q256 1310 264 1310T277 1304L382 1148Q453 1178 552 1178T736 1119L870 1266Q880 1281 890 1281T905 1277L1013
1177Q1026 1163 1026 1154T1023 1141L857 959L854 961Q888 874 888 760Q888 582 814 452L951 252Q960 239 960 230T954 216L826 127Q813 119 804 119T790 124L667 303Q582 256 474 256T284 308L160 171Q147 158 141 158T125 162L16 262Q3 275 3 282T7 297L160 464Q124
552 124 673ZM335 693Q335 458 498 458Q583 458 629 538T675 738Q675 975 513 975Q428 975 382 895T335 693Z" />
<glyph unicode="&#xa5;" glyph-name="yen" horiz-adv-x="964" d="M438 1539L552 968L757 1528Q765 1550 782 1551L988 1558Q1000 1557 1007 1550T1015 1535L642 701L565 28Q562 4 539 3L333 -4Q311 -4 311 15L386 679L182 1535Q182 1549 209 1551L412 1559Q434
1558 438 1539ZM202 795L857 819Q880 818 880 794L859 614Q856 590 834 589L180 564Q156 565 156 590L176 769Q179 795 202 795ZM165 466L820 490Q843 489 843 465L822 285Q819 261 797 260L143 235Q119 236 119 261L139 440Q142 466 165 466Z" />
<glyph unicode="&#xa6;" glyph-name="brokenbar" horiz-adv-x="538" d="M498 1663L400 795Q397 772 375 770L240 764Q218 767 218 784L317 1658Q319 1672 324 1678T343 1685L472 1690Q498 1688 498 1663ZM361 431L264 -436Q261 -461 237 -463L103 -468Q81 -467
81 -448L179 427Q183 450 206 452L335 458Q361 456 361 431Z" />
<glyph unicode="&#xa7;" glyph-name="section" horiz-adv-x="1058" d="M875 1346L771 1351Q733 1351 712 1337T691 1286Q691 1184 801 928Q932 621 932 530Q932 366 853 275T640 164Q686 69 686 -8Q686 -180 587 -277T309 -374Q134 -374 134 -331L158 -135Q160
-110 174 -110Q200 -110 238 -121T317 -132T384 -97T410 -15T390 86Q364 153 301 253T213 398T164 510T139 637Q139 801 239 898T501 997Q420 1182 420 1311T507 1524T764 1609Q842 1609 876 1602T911 1574L894 1375Q892 1346 875 1346ZM458 783T423 753T388 674T410
569Q440 493 524 362Q541 358 561 358Q611 358 648 399T686 519T604 778Q529 783 494 783Z" />
<glyph unicode="&#xa8;" glyph-name="dieresis" horiz-adv-x="877" d="M173 1316T140 1350T106 1438T150 1535T248 1578T336 1544T370 1455T326 1359T227 1316ZM572 1316T539 1351T505 1440T548 1536T646 1578T735 1544T770 1455T725 1359T626 1316Z" />
<glyph unicode="&#xa9;" glyph-name="copyright" horiz-adv-x="1935" d="M995 463L1154 480Q1169 480 1169 463L1153 320Q1151 306 1134 303Q1028 281 954 281Q838 281 775 349T712 528Q712 761 762 1046Q797 1251 894 1324Q976 1387 1119 1387Q1235 1387 1248
1372Q1251 1367 1251 1358L1233 1218Q1232 1201 1218 1201L1105 1212Q1041 1212 1007 1178T956 1045T923 797T907 555T995 463ZM392 186T302 359T211 772T320 1222T629 1554T1085 1676Q1248 1676 1387 1617T1620 1455T1768 1211T1822 908Q1822 646 1713 436T1404
106T966 -15T561 85ZM571 1299T491 1136T411 787T477 465T670 251T980 171T1312 265T1543 522T1623 870T1557 1191T1364 1407T1054 1488T722 1394Z" />
<glyph unicode="&#xaa;" glyph-name="ordfeminine" horiz-adv-x="903" d="M563 926Q502 805 401 805T247 886T193 1090T218 1333Q275 1616 479 1616Q534 1616 568 1582T626 1482L634 1576Q635 1599 659 1600L833 1606Q852 1606 852 1581L773 863Q770 837 747 836L575
829Q553 831 553 849L563 926ZM425 1303Q406 1212 406 1152T409 1070T422 1022Q442 968 486 968T552 999T590 1128T606 1278T605 1350T597 1396Q585 1450 537 1450Q451 1450 425 1303Z" />
<glyph unicode="&#xab;" glyph-name="guillemotleft" horiz-adv-x="1210" d="M742 989L456 591L619 183Q619 158 594 156L429 150Q407 151 396 171L188 561Q185 568 185 575T191 590L498 983Q517 1008 541 1009L717 1015Q742 1014 742 989ZM1215 989L929 591L1092
183Q1092 158 1067 156L902 150Q880 151 869 171L661 561Q658 568 658 575T664 590L971 983Q990 1008 1014 1009L1190 1015Q1215 1014 1215 989Z" />
<glyph unicode="&#xac;" glyph-name="logicalnot" horiz-adv-x="964" d="M201 865L854 889Q879 888 879 864L836 475Q833 451 810 450L626 444Q605 447 605 465L626 652L179 634Q155 635 155 660L175 839Q177 856 183 860T201 865Z" />
<glyph unicode="&#xad;" glyph-name="uni00AD" horiz-adv-x="896" d="M166 865L821 889Q844 888 844 864L823 684Q820 660 798 659L144 634Q120 635 120 660L140 839Q143 865 166 865Z" />
<glyph unicode="&#xae;" glyph-name="registered" horiz-adv-x="1935" d="M392 186T302 359T211 772T320 1222T629 1554T1085 1676Q1248 1676 1387 1617T1620 1455T1768 1211T1822 908Q1822 646 1713 436T1404 106T966 -15T561 85ZM571 1299T491 1136T411 787T477
465T670 251T980 171T1312 265T1543 522T1623 870T1557 1191T1364 1407T1054 1488T722 1394ZM1313 1112Q1313 859 1109 781L1305 328Q1305 310 1286 309L1108 302Q1096 303 1093 315L938 706L894 327Q892 310 876 309L708 302Q694 304 694 315L812 1344Q813 1356
817 1359T837 1368Q986 1390 1063 1390Q1313 1390 1313 1112ZM996 1200L960 893Q1051 902 1084 952T1117 1081T1100 1181T1049 1203T996 1200Z" />
<glyph unicode="&#xaf;" glyph-name="overscore" horiz-adv-x="877" d="M136 1576L760 1598Q783 1597 783 1573L767 1438Q764 1414 740 1412L118 1391Q94 1392 94 1415L110 1550Q113 1576 136 1576Z" />
<glyph unicode="&#xb0;" glyph-name="degree" horiz-adv-x="840" d="M326 918T255 1004T184 1247T271 1513T502 1622T716 1536T787 1291T700 1025T470 918ZM424 1457T390 1401T355 1258T382 1128T477 1084T580 1140T615 1282T588 1412T492 1457Z" />
<glyph unicode="&#xb1;" glyph-name="plusminus" horiz-adv-x="964" d="M686 1193L661 975L873 986Q898 985 898 961L875 781Q872 757 851 756L636 744L608 496Q605 471 582 470L399 464Q377 466 377 485L405 732L197 721Q172 722 172 747L193 926Q196 952 219
952L431 963L456 1187Q460 1210 483 1212L659 1218Q686 1216 686 1193ZM150 351L805 375Q828 374 828 350L807 170Q804 146 782 145L128 120Q104 121 104 146L124 325Q127 351 150 351Z" />
<glyph unicode="&#xb2;" glyph-name="twosuperior" horiz-adv-x="690" d="M618 858L157 842Q131 843 131 865Q131 909 143 973T205 1097T332 1229T445 1341T482 1411T457 1455T393 1472T294 1460T211 1447T187 1475L204 1617Q206 1630 210 1635T272 1655T440 1670T623
1613T694 1437Q694 1362 659 1314Q611 1248 537 1176T416 1046L636 1054Q660 1053 660 1025L645 883Q643 860 618 858Z" />
<glyph unicode="&#xb3;" glyph-name="threesuperior" horiz-adv-x="690" d="M373 1016Q473 1016 473 1102Q473 1149 444 1165T356 1181H306Q284 1181 284 1208L296 1281Q299 1303 321 1306Q415 1320 448 1342T482 1402Q482 1472 392 1472Q355 1472 294 1459T210
1445T187 1473L204 1615Q205 1628 210 1632T229 1642Q320 1670 439 1670Q695 1670 695 1486T488 1258Q587 1258 636 1212T685 1071T599 908T369 841Q256 841 169 865Q160 868 156 869T149 871T145 874T142 878Q139 883 139 894L153 1018Q153 1019 154 1029Q156
1042 174 1042T253 1029T373 1016Z" />
<glyph unicode="&#xb4;" glyph-name="acute" horiz-adv-x="877" d="M630 1665L438 1253Q428 1233 403 1231L269 1226Q247 1228 247 1246L382 1658Q391 1684 415 1685L604 1692Q630 1690 630 1665Z" />
<glyph unicode="&#xb5;" glyph-name="mu" horiz-adv-x="1134" d="M496 1183L404 352Q404 271 443 242T542 212T666 237L771 1177Q774 1201 797 1202L998 1209Q1021 1207 1021 1188L916 265Q916 244 939 244L1047 250Q1078 250 1078 222L1057 35Q1055 9 1034 7Q818
-4 714 -4Q649 -4 647 65Q569 -11 466 -11Q405 -11 365 16L312 -454Q308 -478 286 -480L84 -487Q62 -485 62 -467L249 1178Q253 1200 274 1202L469 1209Q496 1208 496 1183Z" />
<glyph unicode="&#xb6;" glyph-name="paragraph" horiz-adv-x="1170" d="M650 114L701 582Q670 581 594 581Q427 581 333 673T239 908Q239 1216 352 1410Q415 1521 516 1568T787 1616T1117 1575Q1143 1567 1143 1548L1124 1391Q1121 1365 1098 1363L1066 1361Q1044
1360 1041 1336L904 137Q874 -128 734 -231Q602 -328 364 -328Q339 -328 339 -304L363 -103Q369 -79 389 -79Q569 -79 620 9Q643 49 650 114ZM693 785H724L789 1376Q699 1376 660 1362T586 1306T529 1163T507 978T556 840T693 785Z" />
<glyph unicode="&#xb7;" glyph-name="middot" horiz-adv-x="585" d="M252 556T213 597T173 703T225 819T343 870T449 829T489 723T436 607T318 556Z" />
<glyph unicode="&#xb8;" glyph-name="cedilla" horiz-adv-x="877" d="M452 -195L338 -206Q309 -206 287 -182T264 -129T322 71L412 61L375 -87Q457 -67 517 -67T623 -110T669 -258T602 -422T416 -483Q366 -483 310 -472T230 -451T207 -422T217 -328Q220 -312 234
-312T300 -329T395 -346Q512 -346 512 -267Q512 -230 495 -213T452 -195Z" />
<glyph unicode="&#xb9;" glyph-name="onesuperior" horiz-adv-x="690" d="M319 1657L570 1666Q589 1666 589 1639L523 1047L627 1051Q651 1050 651 1025L634 883Q631 858 609 857L182 842Q157 845 157 869L173 1012Q175 1025 179 1030T199 1037L305 1041L350 1448L225
1442Q200 1443 200 1468Q200 1481 240 1555T283 1633Q296 1656 319 1657Z" />
<glyph unicode="&#xba;" glyph-name="ordmasculine" horiz-adv-x="883" d="M607 1306Q607 1453 532 1453Q497 1453 474 1429Q440 1394 424 1292T407 1116Q407 970 487 970Q534 970 554 1005T590 1127T607 1306ZM338 805T266 880T193 1080T211 1296T250 1434T308
1524Q385 1616 529 1616T747 1539T820 1338T801 1119T761 974T704 886Q631 805 485 805Z" />
<glyph unicode="&#xbb;" glyph-name="guillemotright" horiz-adv-x="1210" d="M20 181L306 579L143 987Q143 1012 168 1014L333 1020Q355 1019 366 999L574 609Q577 602 577 595T571 580L264 187Q245 162 221 161L45 155Q20 156 20 181ZM493 181L779 579L616 987Q616
1012 641 1014L806 1020Q828 1019 839 999L1047 609Q1050 601 1050 595T1044 580L737 187Q718 162 694 161L518 155Q493 156 493 181Z" />
<glyph unicode="&#xbc;" glyph-name="onequarter" horiz-adv-x="1452" d="M1313 1527L413 -4Q398 -27 383 -27L262 39Q242 50 242 62T247 85L1149 1616Q1162 1638 1177 1639L1299 1573Q1319 1562 1319 1550T1313 1527ZM1345 780L1293 332L1381 335Q1406 334 1406
309L1391 179Q1388 153 1365 152L1272 149L1258 20Q1255 -4 1233 -5L1061 -11Q1040 -11 1040 9L1075 142L797 132Q769 132 769 148T777 175L1126 774Q1141 799 1172 801L1325 806Q1345 805 1345 780ZM1007 322L1113 326L1141 561L1007 322ZM248 1601L499 1610Q518
1610 518 1583L452 991L556 995Q580 994 580 969L563 827Q560 802 538 801L111 786Q86 789 86 813L102 956Q104 969 108 974T128 981L234 985L279 1392L154 1386Q129 1387 129 1412Q129 1425 169 1499T212 1577Q225 1600 248 1601Z" />
<glyph unicode="&#xbd;" glyph-name="onehalf" horiz-adv-x="1452" d="M1313 1527L413 -4Q398 -27 383 -27L262 39Q242 50 242 62T247 85L1149 1616Q1162 1638 1177 1639L1299 1573Q1319 1562 1319 1550T1313 1527ZM248 1601L499 1610Q518 1610 518 1583L452 991L556
995Q580 994 580 969L563 827Q560 802 538 801L111 786Q86 789 86 813L102 956Q104 969 108 974T128 981L234 985L279 1392L154 1386Q129 1387 129 1412Q129 1425 169 1499T212 1577Q225 1600 248 1601ZM1353 4L892 -12Q866 -11 866 11Q866 55 878 119T940 243T1067
375T1180 487T1217 557T1192 601T1128 618T1029 606T946 593T922 621L939 763Q941 776 945 781T1007 801T1175 816T1358 759T1429 583Q1429 508 1394 460Q1346 394 1272 322T1151 192L1371 200Q1395 199 1395 171L1380 29Q1378 6 1353 4Z" />
<glyph unicode="&#xbe;" glyph-name="threequarters" horiz-adv-x="1452" d="M1313 1527L413 -4Q398 -27 383 -27L262 39Q242 50 242 62T247 85L1149 1616Q1162 1638 1177 1639L1299 1573Q1319 1562 1319 1550T1313 1527ZM1345 780L1293 332L1381 335Q1406 334
1406 309L1391 179Q1388 153 1365 152L1272 149L1258 20Q1255 -4 1233 -5L1061 -11Q1040 -11 1040 9L1075 142L797 132Q769 132 769 148T777 175L1126 774Q1141 799 1172 801L1325 806Q1345 805 1345 780ZM1007 322L1113 326L1141 561L1007 322ZM248 1601L499 1610Q518
1610 518 1583L452 991L556 995Q580 994 580 969L563 827Q560 802 538 801L111 786Q86 789 86 813L102 956Q104 969 108 974T128 981L234 985L279 1392L154 1386Q129 1387 129 1412Q129 1425 169 1499T212 1577Q225 1600 248 1601Z" />
<glyph unicode="&#xbf;" glyph-name="questiondown" horiz-adv-x="819" d="M588 777Q609 777 609 756Q609 586 558 470Q512 364 450 286Q357 170 326 107T295 -33Q295 -162 416 -162Q468 -162 544 -148T635 -134Q657 -134 657 -162L633 -352Q631 -371 608 -379Q434
-410 352 -410Q210 -410 125 -316T40 -84T78 141T176 306T256 413T308 500Q366 603 366 743Q366 768 391 769L588 777ZM574 1217T614 1176T654 1070T602 954T484 903T378 944T337 1050T390 1166T508 1217Z" />
<glyph unicode="&#xc0;" glyph-name="Agrave" horiz-adv-x="964" d="M738 1535L855 29Q855 6 829 4L620 -4Q599 -4 599 15L584 345L357 336L282 28Q279 14 274 9T256 3L49 -4Q29 -4 29 15L468 1528Q475 1550 495 1551L715 1559Q736 1558 738 1535ZM549 1123L409
549L575 555L549 1123ZM608 1929Q628 1927 639 1904L712 1712Q712 1686 686 1685L550 1678Q535 1679 517 1699L354 1897Q354 1920 377 1921L608 1929Z" />
<glyph unicode="&#xc1;" glyph-name="Aacute" horiz-adv-x="964" d="M738 1535L855 29Q855 6 829 4L620 -4Q599 -4 599 15L584 345L357 336L282 28Q279 14 274 9T256 3L49 -4Q29 -4 29 15L468 1528Q475 1550 495 1551L715 1559Q736 1558 738 1535ZM549 1123L409
549L575 555L549 1123ZM866 1905L702 1697Q684 1676 657 1674L526 1669Q504 1671 504 1689L585 1891Q594 1914 628 1916L840 1930Q866 1928 866 1905Z" />
<glyph unicode="&#xc2;" glyph-name="Acircumflex" horiz-adv-x="964" d="M738 1535L855 29Q855 6 829 4L620 -4Q599 -4 599 15L584 345L357 336L282 28Q279 14 274 9T256 3L49 -4Q29 -4 29 15L468 1528Q475 1550 495 1551L715 1559Q736 1558 738 1535ZM549 1123L409
549L575 555L549 1123ZM823 1913L999 1690Q999 1665 974 1663L829 1658Q818 1658 792 1678L635 1814L468 1667Q444 1645 428 1644L286 1638Q264 1640 264 1658L491 1907Q507 1926 520 1927L791 1939Q804 1939 823 1913Z" />
<glyph unicode="&#xc3;" glyph-name="Atilde" horiz-adv-x="964" d="M738 1535L855 29Q855 6 829 4L620 -4Q599 -4 599 15L584 345L357 336L282 28Q279 14 274 9T256 3L49 -4Q29 -4 29 15L468 1528Q475 1550 495 1551L715 1559Q736 1558 738 1535ZM549 1123L409
549L575 555L549 1123ZM524 1922Q579 1922 661 1892T788 1861T892 1887T969 1914T988 1897L994 1822Q994 1801 972 1781T935 1750T891 1719Q832 1680 763 1680T617 1710T494 1741T387 1715T310 1688T292 1704L286 1780Q286 1798 308 1821Q406 1922 524 1922Z" />
<glyph unicode="&#xc4;" glyph-name="Adieresis" horiz-adv-x="964" d="M738 1535L855 29Q855 6 829 4L620 -4Q599 -4 599 15L584 345L357 336L282 28Q279 14 274 9T256 3L49 -4Q29 -4 29 15L468 1528Q475 1550 495 1551L715 1559Q736 1558 738 1535ZM549 1123L409
549L575 555L549 1123ZM356 1687T324 1717T291 1799T334 1890T433 1929T521 1899T555 1816T511 1725T412 1687ZM779 1687T746 1717T713 1801T756 1891T855 1929T944 1899T978 1816T934 1725T834 1687Z" />
<glyph unicode="&#xc5;" glyph-name="Aring" horiz-adv-x="964" d="M738 1535L855 29Q855 6 829 4L620 -4Q599 -4 599 15L584 345L357 336L282 28Q279 14 274 9T256 3L49 -4Q29 -4 29 15L468 1528Q475 1550 495 1551L715 1559Q736 1558 738 1535ZM549 1123L409
549L575 555L549 1123ZM494 1452T434 1507T373 1654T453 1814T634 1883T795 1827T856 1680T775 1521T594 1452ZM573 1776T533 1742T492 1660T521 1585T603 1557T697 1591T738 1672T707 1747T625 1776Z" />
<glyph unicode="&#xc6;" glyph-name="AE" horiz-adv-x="1345" d="M853 1536L712 1415L434 559L722 574V365L363 342L262 29Q257 14 253 10T237 4L29 -4Q9 -4 9 15L557 1527Q566 1551 583 1551L1297 1570L853 1536ZM1188 684L877 672L830 262L1213 275Q1239 274
1239 249L1213 42Q1211 21 1187 16L572 -4Q550 -4 550 15L723 1528Q727 1549 749 1551L1297 1570Q1322 1567 1322 1543L1297 1336Q1294 1311 1271 1309L949 1300L906 928L1214 939Q1240 938 1240 913L1214 709Q1210 686 1188 684Z" />
<glyph unicode="&#xc7;" glyph-name="Ccedilla" horiz-adv-x="874" d="M751 33T746 28T648 6T460 -11Q304 -11 221 90T138 365Q138 674 212 1083Q251 1303 308 1392Q368 1485 452 1522Q557 1568 676 1568T836 1562T882 1554Q895 1550 895 1529L872 1343Q868 1317
852 1317T778 1325T684 1334Q588 1334 538 1286T464 1100T416 731T393 376Q393 231 521 231Q558 231 650 243T755 256Q776 256 776 231L753 45Q751 33 746 28ZM518 46L404 35Q375 35 353 59T330 112T388 312L478 302L441 154Q523 174 583 174T689 131T735 -17T668
-181T482 -242Q432 -242 376 -231T296 -210T273 -181T283 -87Q286 -71 300 -71T366 -88T461 -105Q578 -105 578 -26Q578 11 561 28T518 46Z" />
<glyph unicode="&#xc8;" glyph-name="Egrave" horiz-adv-x="905" d="M748 684L437 672L390 262L773 275Q799 274 799 249L773 42Q771 21 747 16L132 -4Q110 -4 110 15L283 1528Q287 1549 309 1551L857 1570Q882 1567 882 1543L857 1336Q854 1311 831 1309L509
1300L466 928L774 939Q800 938 800 913L774 709Q770 686 748 684ZM584 1929Q604 1927 615 1904L688 1712Q688 1686 662 1685L526 1678Q511 1679 493 1699L330 1897Q330 1920 353 1921L584 1929Z" />
<glyph unicode="&#xc9;" glyph-name="Eacute" horiz-adv-x="905" d="M748 684L437 672L390 262L773 275Q799 274 799 249L773 42Q771 21 747 16L132 -4Q110 -4 110 15L283 1528Q287 1549 309 1551L857 1570Q882 1567 882 1543L857 1336Q854 1311 831 1309L509
1300L466 928L774 939Q800 938 800 913L774 709Q770 686 748 684ZM842 1905L678 1697Q660 1676 633 1674L502 1669Q480 1671 480 1689L561 1891Q570 1914 604 1916L816 1930Q842 1928 842 1905Z" />
<glyph unicode="&#xca;" glyph-name="Ecircumflex" horiz-adv-x="905" d="M748 684L437 672L390 262L773 275Q799 274 799 249L773 42Q771 21 747 16L132 -4Q110 -4 110 15L283 1528Q287 1549 309 1551L857 1570Q882 1567 882 1543L857 1336Q854 1311 831 1309L509
1300L466 928L774 939Q800 938 800 913L774 709Q770 686 748 684ZM799 1913L975 1690Q975 1665 950 1663L805 1658Q794 1658 768 1678L611 1814L444 1667Q420 1645 404 1644L262 1638Q240 1640 240 1658L467 1907Q483 1926 496 1927L767 1939Q780 1939 799 1913Z"
/>
<glyph unicode="&#xcb;" glyph-name="Edieresis" horiz-adv-x="905" d="M748 684L437 672L390 262L773 275Q799 274 799 249L773 42Q771 21 747 16L132 -4Q110 -4 110 15L283 1528Q287 1549 309 1551L857 1570Q882 1567 882 1543L857 1336Q854 1311 831 1309L509
1300L466 928L774 939Q800 938 800 913L774 709Q770 686 748 684ZM332 1687T300 1717T267 1799T310 1890T409 1929T497 1899T531 1816T487 1725T388 1687ZM755 1687T722 1717T689 1801T732 1891T831 1929T920 1899T954 1816T910 1725T810 1687Z" />
<glyph unicode="&#xcc;" glyph-name="Igrave" horiz-adv-x="557" d="M535 1534L364 28Q361 4 338 3L132 -4Q110 -4 110 15L283 1528Q287 1549 309 1551L509 1558Q535 1557 535 1534ZM416 1929Q436 1927 447 1904L520 1712Q520 1686 494 1685L358 1678Q343 1679
325 1699L162 1897Q162 1920 185 1921L416 1929Z" />
<glyph unicode="&#xcd;" glyph-name="Iacute" horiz-adv-x="557" d="M535 1534L364 28Q361 4 338 3L132 -4Q110 -4 110 15L283 1528Q287 1549 309 1551L509 1558Q535 1557 535 1534ZM674 1905L510 1697Q492 1676 465 1674L334 1669Q312 1671 312 1689L393 1891Q402
1914 436 1916L648 1930Q674 1928 674 1905Z" />
<glyph unicode="&#xce;" glyph-name="Icircumflex" horiz-adv-x="557" d="M535 1534L364 28Q361 4 338 3L132 -4Q110 -4 110 15L283 1528Q287 1549 309 1551L509 1558Q535 1557 535 1534ZM631 1913L807 1690Q807 1665 782 1663L637 1658Q626 1658 600 1678L443
1814L276 1667Q252 1645 236 1644L94 1638Q72 1640 72 1658L299 1907Q315 1926 328 1927L599 1939Q612 1939 631 1913Z" />
<glyph unicode="&#xcf;" glyph-name="Idieresis" horiz-adv-x="557" d="M535 1534L364 28Q361 4 338 3L132 -4Q110 -4 110 15L283 1528Q287 1549 309 1551L509 1558Q535 1557 535 1534ZM164 1687T132 1717T99 1799T142 1890T241 1929T329 1899T363 1816T319 1725T220
1687ZM587 1687T554 1717T521 1801T564 1891T663 1929T752 1899T786 1816T742 1725T642 1687Z" />
<glyph unicode="&#xd0;" glyph-name="Eth" horiz-adv-x="1058" d="M72 769L561 786Q585 785 585 761L563 581Q561 568 557 563T539 556L50 537Q26 540 26 564L45 743Q48 769 72 769ZM285 1540T290 1545T391 1559T654 1568T912 1472T1002 1207Q1002 890 931 477Q893
258 808 151Q730 53 564 22Q489 9 381 5L132 -4Q110 -3 110 15L283 1528Q285 1540 290 1545ZM512 1335L390 246Q539 259 596 304T677 475T722 819T745 1176Q745 1258 705 1298T597 1338T512 1335Z" />
<glyph unicode="&#xd1;" glyph-name="Ntilde" horiz-adv-x="1085" d="M1064 1538L892 32Q888 9 866 7L668 -4Q651 -4 648 15L438 1083L364 28Q363 4 338 3L132 -4Q110 -4 110 15L283 1528Q287 1549 309 1551L512 1562Q526 1562 530 1557T538 1538L741 529L811
1528Q812 1550 838 1551L1037 1562Q1064 1562 1064 1538ZM596 1922Q651 1922 733 1892T860 1861T964 1887T1041 1914T1060 1897L1066 1822Q1066 1801 1044 1781T1007 1750T963 1719Q904 1680 835 1680T689 1710T566 1741T459 1715T382 1688T364 1704L358 1780Q358
1798 380 1821Q478 1922 596 1922Z" />
<glyph unicode="&#xd2;" glyph-name="Ograve" horiz-adv-x="1047" d="M310 -15T224 85T138 335Q138 717 215 1090Q276 1383 384 1482Q486 1574 653 1574T907 1473T994 1225T975 868T928 518T881 313T827 182T748 76Q647 -15 479 -15ZM504 221Q631 221 667 455Q691
610 715 841T739 1166T709 1299T622 1338Q506 1338 465 1103Q441 965 417 729T393 395T424 260T504 221ZM658 1929Q678 1927 689 1904L762 1712Q762 1686 736 1685L600 1678Q585 1679 567 1699L404 1897Q404 1920 427 1921L658 1929Z" />
<glyph unicode="&#xd3;" glyph-name="Oacute" horiz-adv-x="1047" d="M310 -15T224 85T138 335Q138 717 215 1090Q276 1383 384 1482Q486 1574 653 1574T907 1473T994 1225T975 868T928 518T881 313T827 182T748 76Q647 -15 479 -15ZM504 221Q631 221 667 455Q691
610 715 841T739 1166T709 1299T622 1338Q506 1338 465 1103Q441 965 417 729T393 395T424 260T504 221ZM916 1905L752 1697Q734 1676 707 1674L576 1669Q554 1671 554 1689L635 1891Q644 1914 678 1916L890 1930Q916 1928 916 1905Z" />
<glyph unicode="&#xd4;" glyph-name="Ocircumflex" horiz-adv-x="1047" d="M310 -15T224 85T138 335Q138 717 215 1090Q276 1383 384 1482Q486 1574 653 1574T907 1473T994 1225T975 868T928 518T881 313T827 182T748 76Q647 -15 479 -15ZM504 221Q631 221 667
455Q691 610 715 841T739 1166T709 1299T622 1338Q506 1338 465 1103Q441 965 417 729T393 395T424 260T504 221ZM873 1913L1049 1690Q1049 1665 1024 1663L879 1658Q868 1658 842 1678L685 1814L518 1667Q494 1645 478 1644L336 1638Q314 1640 314 1658L541 1907Q557
1926 570 1927L841 1939Q854 1939 873 1913Z" />
<glyph unicode="&#xd5;" glyph-name="Otilde" horiz-adv-x="1047" d="M310 -15T224 85T138 335Q138 717 215 1090Q276 1383 384 1482Q486 1574 653 1574T907 1473T994 1225T975 868T928 518T881 313T827 182T748 76Q647 -15 479 -15ZM504 221Q631 221 667 455Q691
610 715 841T739 1166T709 1299T622 1338Q506 1338 465 1103Q441 965 417 729T393 395T424 260T504 221ZM574 1922Q629 1922 711 1892T838 1861T942 1887T1019 1914T1038 1897L1044 1822Q1044 1801 1022 1781T985 1750T941 1719Q882 1680 813 1680T667 1710T544
1741T437 1715T360 1688T342 1704L336 1780Q336 1798 358 1821Q456 1922 574 1922Z" />
<glyph unicode="&#xd6;" glyph-name="Odieresis" horiz-adv-x="1047" d="M310 -15T224 85T138 335Q138 717 215 1090Q276 1383 384 1482Q486 1574 653 1574T907 1473T994 1225T975 868T928 518T881 313T827 182T748 76Q647 -15 479 -15ZM504 221Q631 221 667 455Q691
610 715 841T739 1166T709 1299T622 1338Q506 1338 465 1103Q441 965 417 729T393 395T424 260T504 221ZM406 1687T374 1717T341 1799T384 1890T483 1929T571 1899T605 1816T561 1725T462 1687ZM829 1687T796 1717T763 1801T806 1891T905 1929T994 1899T1028 1816T984
1725T884 1687Z" />
<glyph unicode="&#xd7;" glyph-name="multiply" horiz-adv-x="964" d="M914 923L680 709L857 478Q863 472 863 464T852 445L727 334Q716 325 711 325T690 340L521 562L299 359Q286 346 279 346T265 353L159 482Q154 488 154 496T160 510L397 725L234 940Q228 948
228 956T240 974L372 1079Q380 1085 387 1085T405 1070L557 870L779 1072Q794 1085 800 1085T813 1079L915 951Q922 941 922 935T914 923Z" />
<glyph unicode="&#xd8;" glyph-name="Oslash" horiz-adv-x="1047" d="M877 1670L312 -117Q305 -137 287 -137L256 -130Q236 -125 236 -112L803 1682Q809 1699 831 1699L855 1694Q877 1688 877 1670ZM310 -15T224 85T138 335Q138 717 215 1090Q276 1383 384 1482Q486
1574 653 1574T907 1473T994 1225T975 868T928 518T881 313T827 182T748 76Q647 -15 479 -15ZM504 221Q631 221 667 455Q691 610 715 841T739 1166T709 1299T622 1338Q506 1338 465 1103Q441 965 417 729T393 395T424 260T504 221Z" />
<glyph unicode="&#xd9;" glyph-name="Ugrave" horiz-adv-x="1063" d="M535 1534L420 509Q406 391 406 341T434 256T525 221T621 284T670 486L787 1528Q790 1550 814 1551L1016 1559Q1041 1558 1041 1535L926 509Q891 194 764 78Q661 -15 496 -15T243 71T155 327Q155
408 165 496L283 1528Q285 1541 289 1545T308 1551L510 1558Q535 1557 535 1534ZM668 1929Q688 1927 699 1904L772 1712Q772 1686 746 1685L610 1678Q595 1679 577 1699L414 1897Q414 1920 437 1921L668 1929Z" />
<glyph unicode="&#xda;" glyph-name="Uacute" horiz-adv-x="1063" d="M535 1534L420 509Q406 391 406 341T434 256T525 221T621 284T670 486L787 1528Q790 1550 814 1551L1016 1559Q1041 1558 1041 1535L926 509Q891 194 764 78Q661 -15 496 -15T243 71T155 327Q155
408 165 496L283 1528Q285 1541 289 1545T308 1551L510 1558Q535 1557 535 1534ZM926 1905L762 1697Q744 1676 717 1674L586 1669Q564 1671 564 1689L645 1891Q654 1914 688 1916L900 1930Q926 1928 926 1905Z" />
<glyph unicode="&#xdb;" glyph-name="Ucircumflex" horiz-adv-x="1063" d="M535 1534L420 509Q406 391 406 341T434 256T525 221T621 284T670 486L787 1528Q790 1550 814 1551L1016 1559Q1041 1558 1041 1535L926 509Q891 194 764 78Q661 -15 496 -15T243 71T155
327Q155 408 165 496L283 1528Q285 1541 289 1545T308 1551L510 1558Q535 1557 535 1534ZM883 1913L1059 1690Q1059 1665 1034 1663L889 1658Q878 1658 852 1678L695 1814L528 1667Q504 1645 488 1644L346 1638Q324 1640 324 1658L551 1907Q567 1926 580 1927L851
1939Q864 1939 883 1913Z" />
<glyph unicode="&#xdc;" glyph-name="Udieresis" horiz-adv-x="1063" d="M535 1534L420 509Q406 391 406 341T434 256T525 221T621 284T670 486L787 1528Q790 1550 814 1551L1016 1559Q1041 1558 1041 1535L926 509Q891 194 764 78Q661 -15 496 -15T243 71T155
327Q155 408 165 496L283 1528Q285 1541 289 1545T308 1551L510 1558Q535 1557 535 1534ZM416 1687T384 1717T351 1799T394 1890T493 1929T581 1899T615 1816T571 1725T472 1687ZM839 1687T806 1717T773 1801T816 1891T915 1929T1004 1899T1038 1816T994 1725T894
1687Z" />
<glyph unicode="&#xdd;" glyph-name="Yacute" horiz-adv-x="897" d="M408 1539L522 968L727 1528Q735 1550 752 1551L958 1558Q970 1557 977 1550T985 1535L612 701L535 28Q532 4 509 3L303 -4Q281 -4 281 15L356 679L152 1535Q152 1549 179 1551L382 1559Q404
1558 408 1539ZM846 1905L682 1697Q664 1676 637 1674L506 1669Q484 1671 484 1689L565 1891Q574 1914 608 1916L820 1930Q846 1928 846 1905Z" />
<glyph unicode="&#xde;" glyph-name="Thorn" horiz-adv-x="1006" d="M392 302L420 535Q604 535 659 612T714 891Q714 972 672 1010T562 1048T479 1046L265 1242Q268 1264 291 1265Q469 1280 636 1280T887 1197T970 943T935 638Q847 302 392 302ZM535 1534L364
28Q361 4 338 3L132 -4Q110 -4 110 15L283 1528Q287 1549 309 1551L509 1558Q535 1557 535 1534Z" />
<glyph unicode="&#xdf;" glyph-name="germandbls" horiz-adv-x="1171" d="M138 1202L263 1208L281 1365Q299 1533 402 1638Q512 1752 709 1752T1017 1666T1129 1431Q1129 1353 1102 1296T1032 1185T975 1111T938 1052Q898 980 898 902T951 713T1021 566Q1074 447
1074 355Q1074 182 976 86T699 -11Q522 -11 522 31L546 227Q548 252 563 252Q591 252 632 241T716 230T784 265T811 345T798 438Q783 494 716 644T649 906Q649 1021 712 1123Q735 1159 770 1204T820 1272Q865 1335 865 1394T823 1491T695 1529T566 1473T508 1279L377
30Q374 3 351 3L150 -4Q129 -2 129 15L239 997L119 992Q93 993 93 1017L112 1178Q115 1202 138 1202Z" />
<glyph unicode="&#xe0;" glyph-name="agrave" horiz-adv-x="1054" d="M993 1183L863 30Q860 4 837 3L635 -4Q614 -2 614 15L633 151Q587 73 533 31T410 -11T294 12T216 74T166 167Q131 263 131 429T153 712T193 888T238 1013T303 1120Q385 1218 510 1218Q603 1218
652 1174T734 1042L746 1178Q748 1200 771 1202L967 1209Q993 1207 993 1183ZM383 458Q383 219 511 219Q567 219 602 270T662 477T688 703T687 793T683 843T672 896T651 940Q625 983 567 983T475 932T422 794Q383 610 383 458ZM633 1767L736 1366Q736 1338 712
1337L595 1333Q571 1333 562 1355L389 1763Q389 1787 412 1788L601 1795Q626 1794 633 1767Z" />
<glyph unicode="&#xe1;" glyph-name="aacute" horiz-adv-x="1054" d="M993 1183L863 30Q860 4 837 3L635 -4Q614 -2 614 15L633 151Q587 73 533 31T410 -11T294 12T216 74T166 167Q131 263 131 429T153 712T193 888T238 1013T303 1120Q385 1218 510 1218Q603 1218
652 1174T734 1042L746 1178Q748 1200 771 1202L967 1209Q993 1207 993 1183ZM383 458Q383 219 511 219Q567 219 602 270T662 477T688 703T687 793T683 843T672 896T651 940Q625 983 567 983T475 932T422 794Q383 610 383 458ZM929 1779L737 1367Q727 1347 702
1345L568 1340Q546 1342 546 1360L681 1772Q690 1798 714 1799L903 1806Q929 1804 929 1779Z" />
<glyph unicode="&#xe2;" glyph-name="acircumflex" horiz-adv-x="1054" d="M993 1183L863 30Q860 4 837 3L635 -4Q614 -2 614 15L633 151Q587 73 533 31T410 -11T294 12T216 74T166 167Q131 263 131 429T153 712T193 888T238 1013T303 1120Q385 1218 510 1218Q603
1218 652 1174T734 1042L746 1178Q748 1200 771 1202L967 1209Q993 1207 993 1183ZM383 458Q383 219 511 219Q567 219 602 270T662 477T688 703T687 793T683 843T672 896T651 940Q625 983 567 983T475 932T422 794Q383 610 383 458ZM811 1784L932 1385Q932 1370
928 1364T908 1356L779 1351Q753 1353 747 1371L671 1597L529 1381Q514 1358 493 1357L361 1351Q340 1353 340 1371L567 1777Q580 1802 601 1803L778 1810Q803 1809 811 1784Z" />
<glyph unicode="&#xe3;" glyph-name="atilde" horiz-adv-x="1054" d="M993 1183L863 30Q860 4 837 3L635 -4Q614 -2 614 15L633 151Q587 73 533 31T410 -11T294 12T216 74T166 167Q131 263 131 429T153 712T193 888T238 1013T303 1120Q385 1218 510 1218Q603 1218
652 1174T734 1042L746 1178Q748 1200 771 1202L967 1209Q993 1207 993 1183ZM383 458Q383 219 511 219Q567 219 602 270T662 477T688 703T687 793T683 843T672 896T651 940Q625 983 567 983T475 932T422 794Q383 610 383 458ZM576 1666Q621 1666 692 1634T802
1602T898 1626T974 1651T995 1632L1001 1557Q1001 1538 977 1516Q869 1408 760 1408Q714 1408 644 1439T535 1470T438 1446T362 1421T343 1440L337 1515Q337 1534 359 1556Q469 1666 576 1666Z" />
<glyph unicode="&#xe4;" glyph-name="adieresis" horiz-adv-x="1054" d="M993 1183L863 30Q860 4 837 3L635 -4Q614 -2 614 15L633 151Q587 73 533 31T410 -11T294 12T216 74T166 167Q131 263 131 429T153 712T193 888T238 1013T303 1120Q385 1218 510 1218Q603
1218 652 1174T734 1042L746 1178Q748 1200 771 1202L967 1209Q993 1207 993 1183ZM383 458Q383 219 511 219Q567 219 602 270T662 477T688 703T687 793T683 843T672 896T651 940Q625 983 567 983T475 932T422 794Q383 610 383 458ZM402 1430T369 1464T335 1552T379
1649T477 1692T565 1658T599 1569T555 1473T456 1430ZM801 1430T768 1465T734 1554T777 1650T875 1692T964 1658T999 1569T954 1473T855 1430Z" />
<glyph unicode="&#xe5;" glyph-name="aring" horiz-adv-x="1054" d="M993 1183L863 30Q860 4 837 3L635 -4Q614 -2 614 15L633 151Q587 73 533 31T410 -11T294 12T216 74T166 167Q131 263 131 429T153 712T193 888T238 1013T303 1120Q385 1218 510 1218Q603 1218
652 1174T734 1042L746 1178Q748 1200 771 1202L967 1209Q993 1207 993 1183ZM383 458Q383 219 511 219Q567 219 602 270T662 477T688 703T687 793T683 843T672 896T651 940Q625 983 567 983T475 932T422 794Q383 610 383 458ZM548 1354T488 1409T427 1556T507
1716T688 1785T849 1729T910 1582T829 1423T648 1354ZM627 1678T587 1644T546 1562T575 1487T657 1459T751 1493T792 1574T761 1649T679 1678Z" />
<glyph unicode="&#xe6;" glyph-name="ae" horiz-adv-x="1494" d="M674 191Q571 -11 383 -11Q246 -11 172 74T98 314Q98 642 444 685Q526 695 657 703Q664 749 664 788T657 862T632 928Q595 995 502 995T348 972T271 948Q238 948 238 978L258 1154Q259 1169 264
1174T296 1187T406 1207T546 1218Q721 1218 805 1093Q914 1218 1102 1218Q1250 1218 1327 1120T1405 852T1385 581Q1380 554 1354 553L865 537Q862 492 862 457Q862 344 901 278T1011 212Q1109 212 1172 235T1249 259Q1280 259 1280 229L1260 53Q1259 38 1255 34T1237
24Q1116 -11 972 -11Q748 -11 674 191ZM450 219Q530 219 568 273Q624 352 640 533Q436 533 372 462Q332 418 332 348Q332 219 450 219ZM887 748L882 715L1136 728Q1166 729 1169 760T1173 825T1169 885T1154 940Q1130 1001 1063 1001T954 949T887 748Z" />
<glyph unicode="&#xe7;" glyph-name="ccedilla" horiz-adv-x="886" d="M823 1187Q845 1179 845 1149L822 968Q820 948 795 948T746 958Q649 1001 585 1001T483 948T422 796Q379 611 379 458Q379 212 506 212Q598 212 655 235T729 259Q764 259 764 229L743 53Q741
35 736 32T721 24Q600 -11 494 -11T326 16T228 85T170 188Q131 291 131 441T150 703T191 885T249 1019T333 1126Q438 1218 611 1218Q727 1218 823 1187ZM478 36L364 25Q335 25 313 49T290 102T348 302L438 292L401 144Q483 164 543 164T649 121T695 -27T628 -191T442
-252Q392 -252 336 -241T256 -220T233 -191T243 -97Q246 -81 260 -81T326 -98T421 -115Q538 -115 538 -36Q538 1 521 18T478 36Z" />
<glyph unicode="&#xe8;" glyph-name="egrave" horiz-adv-x="996" d="M148 247T140 305T131 466T153 718Q226 1218 607 1218Q754 1218 832 1117T910 855T890 542Q887 515 859 514L365 497Q364 482 364 457Q364 344 403 278T523 212T671 235T752 259T773 251T782
229L762 53Q761 38 757 34T739 24Q618 -11 506 -11T332 16T233 85T172 187ZM389 748L380 684L641 697Q658 698 663 703Q678 718 678 785T674 880T658 937Q635 1001 580 1001T492 982Q421 938 389 748ZM603 1767L706 1366Q706 1338 682 1337L565 1333Q541 1333 532
1355L359 1763Q359 1787 382 1788L571 1795Q596 1794 603 1767Z" />
<glyph unicode="&#xe9;" glyph-name="eacute" horiz-adv-x="996" d="M148 247T140 305T131 466T153 718Q226 1218 607 1218Q754 1218 832 1117T910 855T890 542Q887 515 859 514L365 497Q364 482 364 457Q364 344 403 278T523 212T671 235T752 259T773 251T782
229L762 53Q761 38 757 34T739 24Q618 -11 506 -11T332 16T233 85T172 187ZM389 748L380 684L641 697Q658 698 663 703Q678 718 678 785T674 880T658 937Q635 1001 580 1001T492 982Q421 938 389 748ZM899 1779L707 1367Q697 1347 672 1345L538 1340Q516 1342 516
1360L651 1772Q660 1798 684 1799L873 1806Q899 1804 899 1779Z" />
<glyph unicode="&#xea;" glyph-name="ecircumflex" horiz-adv-x="996" d="M148 247T140 305T131 466T153 718Q226 1218 607 1218Q754 1218 832 1117T910 855T890 542Q887 515 859 514L365 497Q364 482 364 457Q364 344 403 278T523 212T671 235T752 259T773 251T782
229L762 53Q761 38 757 34T739 24Q618 -11 506 -11T332 16T233 85T172 187ZM389 748L380 684L641 697Q658 698 663 703Q678 718 678 785T674 880T658 937Q635 1001 580 1001T492 982Q421 938 389 748ZM781 1784L902 1385Q902 1370 898 1364T878 1356L749 1351Q723
1353 717 1371L641 1597L499 1381Q484 1358 463 1357L331 1351Q310 1353 310 1371L537 1777Q550 1802 571 1803L748 1810Q773 1809 781 1784Z" />
<glyph unicode="&#xeb;" glyph-name="edieresis" horiz-adv-x="996" d="M148 247T140 305T131 466T153 718Q226 1218 607 1218Q754 1218 832 1117T910 855T890 542Q887 515 859 514L365 497Q364 482 364 457Q364 344 403 278T523 212T671 235T752 259T773 251T782
229L762 53Q761 38 757 34T739 24Q618 -11 506 -11T332 16T233 85T172 187ZM389 748L380 684L641 697Q658 698 663 703Q678 718 678 785T674 880T658 937Q635 1001 580 1001T492 982Q421 938 389 748ZM372 1430T339 1464T305 1552T349 1649T447 1692T535 1658T569
1569T525 1473T426 1430ZM771 1430T738 1465T704 1554T747 1650T845 1692T934 1658T969 1569T924 1473T825 1430Z" />
<glyph unicode="&#xec;" glyph-name="igrave" horiz-adv-x="546" d="M485 1183L355 30Q353 16 348 10T329 3L128 -4Q106 -2 106 15L238 1178Q242 1200 263 1202L458 1209Q485 1207 485 1183ZM358 1767L461 1366Q461 1338 437 1337L320 1333Q296 1333 287 1355L114
1763Q114 1787 137 1788L326 1795Q351 1794 358 1767Z" />
<glyph unicode="&#xed;" glyph-name="iacute" horiz-adv-x="546" d="M485 1183L355 30Q353 16 348 10T329 3L128 -4Q106 -2 106 15L238 1178Q242 1200 263 1202L458 1209Q485 1207 485 1183ZM654 1779L462 1367Q452 1347 427 1345L293 1340Q271 1342 271 1360L406
1772Q415 1798 439 1799L628 1806Q654 1804 654 1779Z" />
<glyph unicode="&#xee;" glyph-name="icircumflex" horiz-adv-x="546" d="M485 1183L355 30Q353 16 348 10T329 3L128 -4Q106 -2 106 15L238 1178Q242 1200 263 1202L458 1209Q485 1207 485 1183ZM536 1784L657 1385Q657 1370 653 1364T633 1356L504 1351Q478
1353 472 1371L396 1597L254 1381Q239 1358 218 1357L86 1351Q65 1353 65 1371L292 1777Q305 1802 326 1803L503 1810Q528 1809 536 1784Z" />
<glyph unicode="&#xef;" glyph-name="idieresis" horiz-adv-x="546" d="M485 1183L355 30Q353 16 348 10T329 3L128 -4Q106 -2 106 15L238 1178Q242 1200 263 1202L458 1209Q485 1207 485 1183ZM383 1430T350 1464T316 1552T360 1649T458 1692T546 1658T580 1569T536
1473T437 1430ZM782 1430T749 1465T715 1554T758 1650T856 1692T945 1658T980 1569T935 1473T836 1430Z" />
<glyph unicode="&#xf0;" glyph-name="eth" horiz-adv-x="1018" d="M735 1387Q917 1083 917 727Q917 346 786 139Q692 -11 502 -11T217 96T122 397Q122 490 153 672T272 964T508 1074Q590 1074 652 1025Q626 1173 564 1292L455 1231Q444 1225 435 1225T421 1234L367
1336Q363 1343 363 1349T374 1362L479 1429Q434 1491 392 1541T349 1597T361 1615L435 1681Q448 1690 457 1690T479 1681Q562 1618 637 1529L751 1601Q765 1609 772 1609T786 1599L852 1476Q854 1471 854 1464T844 1448L735 1387ZM556 224T590 273T647 461T674
723Q672 803 643 836T552 869T455 821T394 640T368 436T373 337T390 282Q417 224 486 224Z" />
<glyph unicode="&#xf1;" glyph-name="ntilde" horiz-adv-x="1067" d="M486 1183L475 1091Q619 1218 751 1218Q919 1218 963 1034Q975 984 975 940T972 868L876 30Q872 5 851 3L649 -4Q627 -2 627 15L718 807Q721 833 721 854Q721 936 683 965T585 995T462 970L355
30Q351 5 330 3L128 -4Q106 -2 106 15L238 1178Q242 1200 263 1202L459 1209Q486 1208 486 1183ZM577 1665Q622 1665 693 1633T803 1601T899 1625T975 1650T996 1631L1002 1556Q1002 1537 978 1515Q870 1407 761 1407Q715 1407 646 1438T537 1469T439 1445T363
1420T344 1439L338 1514Q338 1533 360 1555Q470 1665 577 1665Z" />
<glyph unicode="&#xf2;" glyph-name="ograve" horiz-adv-x="1023" d="M296 -11T214 95T131 406Q131 501 152 654T191 876T242 1012T320 1122Q419 1218 588 1218Q828 1218 899 1042Q937 948 937 815T917 538T878 327T828 193T750 84Q651 -11 474 -11ZM650 427Q661
480 678 625T696 841Q696 1011 573 1011Q515 1011 478 956T417 773Q371 513 371 351T493 189Q551 189 589 244T650 427ZM608 1767L711 1366Q711 1338 687 1337L570 1333Q546 1333 537 1355L364 1763Q364 1787 387 1788L576 1795Q601 1794 608 1767Z" />
<glyph unicode="&#xf3;" glyph-name="oacute" horiz-adv-x="1023" d="M296 -11T214 95T131 406Q131 501 152 654T191 876T242 1012T320 1122Q419 1218 588 1218Q828 1218 899 1042Q937 948 937 815T917 538T878 327T828 193T750 84Q651 -11 474 -11ZM650 427Q661
480 678 625T696 841Q696 1011 573 1011Q515 1011 478 956T417 773Q371 513 371 351T493 189Q551 189 589 244T650 427ZM904 1779L712 1367Q702 1347 677 1345L543 1340Q521 1342 521 1360L656 1772Q665 1798 689 1799L878 1806Q904 1804 904 1779Z" />
<glyph unicode="&#xf4;" glyph-name="ocircumflex" horiz-adv-x="1023" d="M296 -11T214 95T131 406Q131 501 152 654T191 876T242 1012T320 1122Q419 1218 588 1218Q828 1218 899 1042Q937 948 937 815T917 538T878 327T828 193T750 84Q651 -11 474 -11ZM650
427Q661 480 678 625T696 841Q696 1011 573 1011Q515 1011 478 956T417 773Q371 513 371 351T493 189Q551 189 589 244T650 427ZM786 1784L907 1385Q907 1370 903 1364T883 1356L754 1351Q728 1353 722 1371L646 1597L504 1381Q489 1358 468 1357L336 1351Q315
1353 315 1371L542 1777Q555 1802 576 1803L753 1810Q778 1809 786 1784Z" />
<glyph unicode="&#xf5;" glyph-name="otilde" horiz-adv-x="1023" d="M296 -11T214 95T131 406Q131 501 152 654T191 876T242 1012T320 1122Q419 1218 588 1218Q828 1218 899 1042Q937 948 937 815T917 538T878 327T828 193T750 84Q651 -11 474 -11ZM650 427Q661
480 678 625T696 841Q696 1011 573 1011Q515 1011 478 956T417 773Q371 513 371 351T493 189Q551 189 589 244T650 427ZM551 1666Q596 1666 667 1634T777 1602T873 1626T949 1651T970 1632L976 1557Q976 1538 952 1516Q844 1408 735 1408Q689 1408 619 1439T510
1470T413 1446T337 1421T318 1440L312 1515Q312 1534 334 1556Q444 1666 551 1666Z" />
<glyph unicode="&#xf6;" glyph-name="odieresis" horiz-adv-x="1023" d="M296 -11T214 95T131 406Q131 501 152 654T191 876T242 1012T320 1122Q419 1218 588 1218Q828 1218 899 1042Q937 948 937 815T917 538T878 327T828 193T750 84Q651 -11 474 -11ZM650 427Q661
480 678 625T696 841Q696 1011 573 1011Q515 1011 478 956T417 773Q371 513 371 351T493 189Q551 189 589 244T650 427ZM377 1430T344 1464T310 1552T354 1649T452 1692T540 1658T574 1569T530 1473T431 1430ZM776 1430T743 1465T709 1554T752 1650T850 1692T939
1658T974 1569T929 1473T830 1430Z" />
<glyph unicode="&#xf7;" glyph-name="divide" horiz-adv-x="964" d="M474 869T439 905T404 999T450 1101T554 1146T647 1110T683 1016T636 914T532 869ZM193 757L848 781Q871 780 871 756L850 576Q847 552 825 551L171 526Q147 527 147 552L167 731Q170 757 193
757ZM394 168T359 204T324 298T370 400T474 445T567 409T603 315T556 213T452 168Z" />
<glyph unicode="&#xf8;" glyph-name="oslash" horiz-adv-x="1023" d="M789 1304L348 -92Q341 -112 321 -112L292 -105Q271 -100 271 -87L715 1317Q721 1335 742 1335L767 1329Q789 1325 789 1304ZM296 -11T214 95T131 406Q131 501 152 654T191 876T242 1012T320
1122Q419 1218 588 1218Q828 1218 899 1042Q937 948 937 815T917 538T878 327T828 193T750 84Q651 -11 474 -11ZM650 427Q661 480 678 625T696 841Q696 1011 573 1011Q515 1011 478 956T417 773Q371 513 371 351T493 189Q551 189 589 244T650 427Z" />
<glyph unicode="&#xf9;" glyph-name="ugrave" horiz-adv-x="1067" d="M629 21L637 98Q516 -11 363 -11Q248 -11 194 73T139 283Q139 304 143 340L238 1177Q241 1201 263 1202L465 1210Q486 1208 486 1189L396 400Q393 374 393 352Q393 268 425 240T523 212T653
237L759 1177Q762 1201 784 1202L986 1209Q1007 1207 1007 1188L877 31Q874 7 850 5L655 -4Q629 -3 629 21ZM631 1766L734 1365Q734 1337 710 1336L593 1332Q569 1332 560 1354L387 1762Q387 1786 410 1787L599 1794Q624 1793 631 1766Z" />
<glyph unicode="&#xfa;" glyph-name="uacute" horiz-adv-x="1067" d="M629 21L637 98Q516 -11 363 -11Q248 -11 194 73T139 283Q139 304 143 340L238 1177Q241 1201 263 1202L465 1210Q486 1208 486 1189L396 400Q393 374 393 352Q393 268 425 240T523 212T653
237L759 1177Q762 1201 784 1202L986 1209Q1007 1207 1007 1188L877 31Q874 7 850 5L655 -4Q629 -3 629 21ZM925 1778L733 1366Q723 1346 698 1344L564 1339Q542 1341 542 1359L677 1771Q686 1797 710 1798L899 1805Q925 1803 925 1778Z" />
<glyph unicode="&#xfb;" glyph-name="ucircumflex" horiz-adv-x="1067" d="M629 21L637 98Q516 -11 363 -11Q248 -11 194 73T139 283Q139 304 143 340L238 1177Q241 1201 263 1202L465 1210Q486 1208 486 1189L396 400Q393 374 393 352Q393 268 425 240T523 212T653
237L759 1177Q762 1201 784 1202L986 1209Q1007 1207 1007 1188L877 31Q874 7 850 5L655 -4Q629 -3 629 21ZM808 1784L929 1385Q929 1370 925 1364T905 1356L776 1351Q750 1353 744 1371L668 1597L526 1381Q511 1358 490 1357L358 1351Q337 1353 337 1371L564 1777Q577
1802 598 1803L775 1810Q800 1809 808 1784Z" />
<glyph unicode="&#xfc;" glyph-name="udieresis" horiz-adv-x="1067" d="M629 21L637 98Q516 -11 363 -11Q248 -11 194 73T139 283Q139 304 143 340L238 1177Q241 1201 263 1202L465 1210Q486 1208 486 1189L396 400Q393 374 393 352Q393 268 425 240T523 212T653
237L759 1177Q762 1201 784 1202L986 1209Q1007 1207 1007 1188L877 31Q874 7 850 5L655 -4Q629 -3 629 21ZM399 1429T366 1463T332 1551T376 1648T474 1691T562 1657T596 1568T552 1472T453 1429ZM798 1429T765 1464T731 1553T774 1649T872 1691T961 1657T996
1568T951 1472T852 1429Z" />
<glyph unicode="&#xfd;" glyph-name="yacute" horiz-adv-x="940" d="M970 1183L393 -454Q385 -479 364 -480L163 -487Q141 -486 141 -467L313 18L157 1178Q157 1201 182 1202L379 1209Q402 1208 404 1183L480 342L723 1178Q729 1201 749 1202L945 1209Q970 1207
970 1183ZM870 1778L678 1366Q668 1346 643 1344L509 1339Q487 1341 487 1359L622 1771Q631 1797 655 1798L844 1805Q870 1803 870 1778Z" />
<glyph unicode="&#xfe;" glyph-name="thorn" horiz-adv-x="1056" d="M52 -462L293 1657Q296 1682 318 1685L513 1692Q539 1689 539 1665L449 1022Q500 1117 557 1167T687 1218T807 1195T885 1133T936 1040Q970 944 970 778T948 495T908 319T863 194T798 87Q716
-11 591 -11Q486 -11 434 48Q389 98 355 193L301 -455Q300 -479 275 -480L79 -487Q52 -486 52 -462ZM718 749Q718 988 590 988Q534 988 499 937T439 730T413 504T414 414T418 364T429 311T450 268Q476 224 534 224T626 275T678 413Q718 597 718 749Z" />
<glyph unicode="&#xff;" glyph-name="ydieresis" horiz-adv-x="940" d="M970 1183L393 -454Q385 -479 364 -480L163 -487Q141 -486 141 -467L313 18L157 1178Q157 1201 182 1202L379 1209Q402 1208 404 1183L480 342L723 1178Q729 1201 749 1202L945 1209Q970
1207 970 1183ZM344 1429T311 1463T277 1551T321 1648T419 1691T507 1657T541 1568T497 1472T398 1429ZM743 1429T710 1464T676 1553T719 1649T817 1691T906 1657T941 1568T896 1472T797 1429Z" />
<glyph unicode="&#x2013;" glyph-name="endash" horiz-adv-x="1407" d="M217 884L1287 921Q1312 920 1312 896L1289 716Q1287 703 1283 698T1265 691L196 654Q170 655 170 679L191 860Q194 884 217 884Z" />
<glyph unicode="&#x2014;" glyph-name="emdash" horiz-adv-x="2534" d="M217 884L2419 963Q2443 962 2443 937L2421 758Q2417 733 2396 731L196 654Q170 655 170 679L191 860Q194 884 217 884Z" />
<glyph unicode="&#x2018;" glyph-name="quoteleft" horiz-adv-x="585" d="M532 1722Q532 1709 505 1596T470 1374Q516 1360 540 1322T564 1226T512 1118T392 1067T286 1113T248 1226Q248 1345 302 1488Q384 1707 428 1736Q440 1743 512 1743Q532 1743 532 1722Z" />
<glyph unicode="&#x2019;" glyph-name="quoteright" horiz-adv-x="585" d="M274 1087Q274 1100 301 1213T336 1435Q290 1449 266 1487T242 1583T294 1691T414 1742T520 1696T558 1583Q558 1464 504 1320Q422 1102 378 1074Q366 1066 294 1066Q274 1066 274 1087Z" />
<glyph unicode="&#x201a;" glyph-name="quotesinglbase" horiz-adv-x="585" d="M131 -352Q131 -339 158 -226T193 -4Q147 10 123 48T99 144T151 252T271 303T377 257T415 144Q415 25 361 -118Q279 -337 235 -366Q223 -373 151 -373Q131 -373 131 -352Z" />
<glyph unicode="&#x201c;" glyph-name="quotedblleft" horiz-adv-x="1055" d="M532 1722Q532 1709 505 1596T470 1374Q516 1360 540 1322T564 1226T512 1118T392 1067T286 1113T248 1226Q248 1345 302 1488Q384 1707 428 1736Q440 1743 512 1743Q532 1743 532
1722ZM1002 1722Q1002 1709 975 1596T940 1374Q986 1360 1010 1322T1034 1226T982 1118T862 1067T756 1113T718 1226Q718 1345 772 1488Q854 1707 898 1736Q910 1743 982 1743Q1002 1743 1002 1722Z" />
<glyph unicode="&#x201d;" glyph-name="quotedblright" horiz-adv-x="1056" d="M274 1087Q274 1100 301 1213T336 1435Q290 1449 266 1487T242 1583T294 1691T414 1742T520 1696T558 1583Q558 1464 504 1320Q422 1102 378 1074Q366 1066 294 1066Q274 1066 274
1087ZM745 1087Q745 1100 772 1213T807 1435Q761 1449 737 1487T713 1583T765 1691T885 1742T991 1696T1029 1583Q1029 1464 975 1320Q893 1102 849 1074Q837 1066 765 1066Q745 1066 745 1087Z" />
<glyph unicode="&#x201e;" glyph-name="quotedblbase" horiz-adv-x="1055" d="M131 -352Q131 -339 158 -226T193 -4Q147 10 123 48T99 144T151 252T271 303T377 257T415 144Q415 25 361 -118Q279 -337 235 -366Q223 -373 151 -373Q131 -373 131 -352ZM601 -352Q601
-339 628 -226T663 -4Q617 10 593 48T569 144T621 252T741 303T847 257T885 144Q885 25 831 -118Q749 -337 705 -366Q693 -373 621 -373Q601 -373 601 -352Z" />
<glyph unicode="&#x2022;" glyph-name="bullet" horiz-adv-x="585" d="M236 512T185 564T134 700T200 849T351 914T487 861T539 725T471 577T320 512Z" />
<glyph unicode="&#x2039;" glyph-name="guilsinglleft" horiz-adv-x="737" d="M742 989L456 591L619 183Q619 158 594 156L429 150Q407 151 396 171L188 561Q185 568 185 575T191 590L498 983Q517 1008 541 1009L717 1015Q742 1014 742 989Z" />
<glyph unicode="&#x203a;" glyph-name="guilsinglright" horiz-adv-x="737" d="M20 181L306 579L143 987Q143 1012 168 1014L333 1020Q355 1019 366 999L574 609Q577 602 577 595T571 580L264 187Q245 162 221 161L45 155Q20 156 20 181Z" />
</font>
</defs>
</svg>
