<?xml version="1.0" standalone="no"?>
<!DOCTYPE svg PUBLIC "-//W3C//DTD SVG 1.1//EN" "http://www.w3.org/Graphics/SVG/1.1/DTD/svg11.dtd">
<svg xmlns="http://www.w3.org/2000/svg">
<defs >
<font id="ArchivoNarrow" horiz-adv-x="469" ><font-face
    font-family="Archivo Narrow"
    units-per-em="1000"
    panose-1="2 11 5 6 2 2 2 9 11 4"
    ascent="878"
    descent="-210"
    alphabetic="0" />
<glyph unicode=" " glyph-name="space" horiz-adv-x="228" />
<glyph unicode="!" glyph-name="exclam" horiz-adv-x="228" d="M128 686H241L142 171H80L128 686ZM53 108H153L138 0H38L53 108Z" />
<glyph unicode="&quot;" glyph-name="quotedbl" horiz-adv-x="291" d="M75 539L96 686H178L157 539L118 407H79L75 539ZM208 539L229 686H311L290 539L250 407H211L208 539Z" />
<glyph unicode="#" glyph-name="numbersign" horiz-adv-x="456" d="M81 179H17V255H98L132 410H56V486H149L196 696H272L225 486H315L362 696H438L391 486H451V410H374L340 255H411V179H323L283 0H207L247 179H157L117 0H41L81 179ZM264 255L298 410H208L174 255H264Z" />
<glyph unicode="$" glyph-name="dollar" horiz-adv-x="456" d="M183 72Q126 84 91 126T55 230Q55 251 57 262H138Q135 246 135 230Q135 198 150 177T193 146L218 322Q181 343 159 360T120 404T104 470Q104 532 144 573T260 618L275 723H323L307 615Q367 604 396
559T426 453H345Q345 519 297 539L275 383Q316 363 340 347T381 301T399 228Q399 154 354 112T230 68L214 -50H166L183 72ZM250 545Q224 541 205 524T185 482Q185 438 230 409L250 545ZM275 143T296 164T318 215Q318 241 304 260T262 296L240 140Q275 143 296 164Z"
/>
<glyph unicode="%" glyph-name="percent" horiz-adv-x="729" d="M132 337T103 365T73 458Q73 587 114 642T223 698Q280 698 309 671T338 577Q338 483 305 410T189 337Q132 337 103 365ZM600 686H671L155 0H85L600 686ZM223 396T239 425T264 510Q270 550 270 573Q270
639 223 639Q189 639 173 610T148 525Q142 485 142 462Q142 430 153 413T189 396Q223 396 239 425ZM475 -12T446 16T416 109Q416 238 457 293T566 349Q623 349 652 322T681 228Q681 134 648 61T532 -12Q475 -12 446 16ZM566 47T582 76T607 161Q613 201 613 224Q613
290 566 290Q532 290 516 261T491 176Q485 136 485 113Q485 81 496 64T532 47Q566 47 582 76Z" />
<glyph unicode="&amp;" glyph-name="ampersand" horiz-adv-x="547" d="M125 -12T72 32T18 153Q18 229 54 280T145 352V356Q112 376 94 405T76 479Q76 547 106 597T187 672T303 698Q391 698 444 655T497 539Q497 527 492 492H410Q414 516 414 525Q414 574 384 598T302
623Q244 623 204 588T163 481Q163 434 188 410T253 385H304L294 312H245Q188 312 148 278T107 162Q107 111 137 87T222 63Q350 63 368 191L395 385H547L537 311H467L451 194Q439 99 378 44T216 -12Q125 -12 72 32Z" />
<glyph unicode="&apos;" glyph-name="quotesingle" horiz-adv-x="157" d="M75 539L96 686H178L157 539L118 407H79L75 539Z" />
<glyph unicode="(" glyph-name="parenleft" horiz-adv-x="273" d="M88 -83T60 6T32 193Q32 243 39 288Q56 411 115 526T266 735H320Q230 616 174 471T118 191Q118 99 138 8T195 -157H141Q88 -83 60 6Z" />
<glyph unicode=")" glyph-name="parenright" horiz-adv-x="273" d="M42 -38T98 107T155 387Q155 478 134 568T77 735H131Q184 661 211 571T239 384Q239 344 232 288Q215 165 157 51T6 -157H-47Q42 -38 98 107Z" />
<glyph unicode="*" glyph-name="asterisk" horiz-adv-x="319" d="M172 508L91 456L65 515L153 553L76 591L118 649L185 597L188 686H256L235 598L316 649L342 591L255 553L331 515L289 456L222 508L219 419H151L172 508Z" />
<glyph unicode="+" glyph-name="plus" horiz-adv-x="479" d="M191 213H37L48 297H202L232 511H315L285 297H440L429 213H274L244 0H161L191 213Z" />
<glyph unicode="," glyph-name="comma" horiz-adv-x="228" d="M69 0H36L51 108H151L137 9L73 -124H18L69 0Z" />
<glyph unicode="-" glyph-name="hyphen" horiz-adv-x="273" d="M16 319H268L255 221H3L16 319Z" />
<glyph unicode="." glyph-name="period" horiz-adv-x="228" d="M53 108H153L138 0H38L53 108Z" />
<glyph unicode="/" glyph-name="slash" horiz-adv-x="228" d="M220 735H290L23 -49H-47L220 735Z" />
<glyph unicode="0" glyph-name="zero" horiz-adv-x="456" d="M119 -12T79 34T38 193Q38 256 50 343Q68 479 99 557T173 666T277 698Q356 698 397 651T438 489Q438 429 426 343Q408 207 377 129T302 20T198 -12Q119 -12 79 34ZM256 61T288 125T337 308Q346 379
351 424T356 492Q356 625 277 625Q220 625 187 560T138 378Q119 248 119 201Q119 133 137 97T198 61Q256 61 288 125Z" />
<glyph unicode="1" glyph-name="one" horiz-adv-x="456" d="M19 73H182L250 561H86L93 613Q138 618 203 638T318 686H350L264 73H414L403 0H8L19 73Z" />
<glyph unicode="2" glyph-name="two" horiz-adv-x="456" d="M12 13Q24 94 80 162Q114 203 188 271Q247 326 282 364T342 448T367 541Q367 576 349 599T287 622Q237 622 208 586T172 491L167 450H82Q82 519 106 575T178 664T294 698Q367 698 411 663T455 555Q455
492 427 436T359 335T253 227Q179 158 148 119Q137 105 125 84H394L382 0H10L12 13Z" />
<glyph unicode="3" glyph-name="three" horiz-adv-x="456" d="M115 -12T70 31T24 152Q24 171 28 202H111Q107 179 107 157Q107 110 131 86T200 61Q253 61 289 101T325 220Q325 270 298 291T227 312H170L180 385H239Q269 385 296 402T340 452T357 534Q357 580 335
602T278 625Q235 625 205 593T164 492H80Q84 554 113 601T186 673T282 698Q357 698 400 659T443 548Q443 475 413 430T329 356V352Q366 337 387 304T409 220Q409 151 381 98T305 17T201 -12Q115 -12 70 31Z" />
<glyph unicode="4" glyph-name="four" horiz-adv-x="456" d="M275 169H11L21 243Q89 342 153 462T263 698H346Q317 613 268 519T171 350T97 242H285L316 458Q335 492 347 520T377 596H417L367 242H437L427 169H357L333 0H251L275 169Z" />
<glyph unicode="5" glyph-name="five" horiz-adv-x="456" d="M120 -12T74 34T27 164Q27 190 31 213H116Q113 195 113 178Q113 124 137 92T202 60Q235 60 265 83T314 151T334 262Q334 315 312 343T252 372Q220 372 190 351T139 293L63 306L140 686H452L440 602H199L156
393Q214 446 280 446Q343 446 381 404T420 280Q420 190 391 124T312 23T201 -12Q120 -12 74 34Z" />
<glyph unicode="6" glyph-name="six" horiz-adv-x="456" d="M128 -12T86 36T44 197Q44 254 54 323Q73 463 106 545T185 663T293 698Q366 698 401 654T437 533Q437 502 433 475H350Q354 511 354 524Q354 625 289 625Q228 625 196 561T144 366Q170 397 203 414T274
431Q345 431 381 385T418 261Q418 181 390 119T313 22T209 -12Q128 -12 86 36ZM248 61T277 91T319 164T333 249Q333 299 313 329T251 359Q194 359 160 304T126 170Q126 120 145 91T204 61Q248 61 277 91Z" />
<glyph unicode="7" glyph-name="seven" horiz-adv-x="456" d="M110 160T189 314T370 602H87L99 686H489L481 633Q375 501 294 351T191 51Q191 51 188 24L185 0H88Q110 160 189 314Z" />
<glyph unicode="8" glyph-name="eight" horiz-adv-x="456" d="M108 -12T67 31T26 146Q26 213 54 269T140 352Q113 372 99 403T85 472Q85 533 109 584T178 667T283 698Q359 698 398 655T438 542Q438 483 412 432T339 352Q407 315 407 225Q407 160 384 106T312 20T194
-12Q108 -12 67 31ZM292 387T324 427T356 534Q356 577 335 601T278 625Q227 625 197 582T167 479Q167 436 187 412T245 387Q292 387 324 427ZM255 61T289 104T323 218Q323 264 301 289T234 314Q176 314 144 269T111 157Q111 111 133 86T199 61Q255 61 289 104Z"
/>
<glyph unicode="9" glyph-name="nine" horiz-adv-x="456" d="M118 -12T83 32T47 153Q47 184 51 211H134Q130 175 130 162Q130 61 195 61Q256 61 288 125T340 320Q314 289 281 272T210 255Q139 255 103 301T66 425Q66 505 94 567T171 664T275 698Q356 698 398 650T440
489Q440 432 430 363Q411 223 378 141T299 23T191 -12Q118 -12 83 32ZM290 327T324 382T358 516Q358 566 339 595T280 625Q236 625 207 595T165 522T151 437Q151 387 171 357T233 327Q290 327 324 382Z" />
<glyph unicode=":" glyph-name="colon" horiz-adv-x="228" d="M110 526H210L195 418H95L110 526ZM51 108H151L136 0H36L51 108Z" />
<glyph unicode=";" glyph-name="semicolon" horiz-adv-x="228" d="M110 526H210L195 418H95L110 526ZM69 0H36L51 108H151L137 9L73 -124H18L69 0Z" />
<glyph unicode="&lt;" glyph-name="less" horiz-adv-x="479" d="M36 200L51 307L471 504L458 414L125 254L413 94L400 4L36 200Z" />
<glyph unicode="=" glyph-name="equal" horiz-adv-x="479" d="M63 402H455L443 318H51L63 402ZM33 189H425L414 106H22L33 189Z" />
<glyph unicode="&gt;" glyph-name="greater" horiz-adv-x="479" d="M21 94L355 254L66 414L79 504L443 307L428 200L8 4L21 94Z" />
<glyph unicode="?" glyph-name="question" horiz-adv-x="456" d="M183 236Q189 280 209 309T267 373Q294 400 310 419T337 467T349 532Q349 567 333 594T274 621Q224 621 198 587T165 515T157 459H68Q69 524 94 578T168 665T282 698Q354 698 398 657T442 548Q442
494 428 454T393 389T340 332Q307 300 290 277T268 221L262 180H175L183 236ZM158 108H258L242 0H142L158 108Z" />
<glyph unicode="@" glyph-name="at" horiz-adv-x="832" d="M55 -154T55 194Q55 357 106 470T251 640T476 698Q606 698 676 658T772 547T798 369Q798 282 776 203T705 73T583 22Q537 22 514 44T482 92Q463 58 434 40T374 22Q319 22 286 66T253 199Q253 303 279
376T348 485T437 521Q473 521 498 504T536 444L553 510H611Q603 458 581 312T559 137Q559 87 605 87Q624 87 644 101T683 142Q709 181 724 239T739 368Q739 469 715 525Q690 584 636 613T493 643Q318 643 216 537T113 196Q113 -99 397 -99Q437 -99 466 -95T511
-86T529 -79L521 -136Q507 -141 473 -147T406 -154Q55 -154 55 194ZM437 88T463 135T500 244T512 352Q512 455 448 455Q404 455 377 409T340 303T329 192Q329 141 346 115T397 88Q437 88 463 135Z" />
<glyph unicode="A" glyph-name="A" horiz-adv-x="547" d="M278 686H391L512 0H421L395 153H120L51 0H-36L278 686ZM382 233L331 538Q329 552 328 578T326 614H322Q319 605 310 579T294 538L156 233H382Z" />
<glyph unicode="B" glyph-name="B" horiz-adv-x="547" d="M131 686H372Q446 686 491 647T537 541Q537 476 500 427T408 360L407 356Q452 341 479 302T506 206Q506 144 476 97T397 25T293 0H34L131 686ZM314 391Q352 391 381 409T426 456T442 518Q442 562 415 584T340
606H207L177 391H314ZM293 80Q343 80 379 114T415 206Q415 251 387 281T311 311H166L134 80H293Z" />
<glyph unicode="C" glyph-name="C" horiz-adv-x="592" d="M174 -12T113 51T51 241Q51 345 79 449T175 626T353 698Q570 698 570 453V437H479V459Q479 617 352 617Q267 617 220 547T157 392T141 246Q141 161 177 116T282 70Q354 70 398 119T454 242H541Q532 172
500 114T413 22T285 -12Q174 -12 113 51Z" />
<glyph unicode="D" glyph-name="D" horiz-adv-x="592" d="M131 686H334Q444 686 503 621T563 429Q563 330 532 232T434 67T265 0H34L131 686ZM255 80Q335 80 383 134T452 268T472 428Q472 517 434 561T324 606H207L134 80H255Z" />
<glyph unicode="E" glyph-name="E" horiz-adv-x="547" d="M131 686H554L542 606H207L177 391H468L457 311H166L134 80H475L463 0H34L131 686Z" />
<glyph unicode="F" glyph-name="F" horiz-adv-x="501" d="M131 686H527L515 606H207L176 384H448L437 304H165L122 0H34L131 686Z" />
<glyph unicode="G" glyph-name="G" horiz-adv-x="638" d="M315 357H584L533 0H475L467 76Q399 -12 285 -12Q174 -12 112 51T50 241Q50 345 80 449T180 626T364 698Q596 698 596 452H505V459Q505 617 363 617Q274 617 224 549T157 397T140 246Q140 160 178 115T293
70Q372 70 419 118T478 242L484 280H304L315 357Z" />
<glyph unicode="H" glyph-name="H" horiz-adv-x="592" d="M131 686H219L177 391H453L495 686H583L486 0H398L442 311H166L122 0H34L131 686Z" />
<glyph unicode="I" glyph-name="I" horiz-adv-x="228" d="M131 686H219L122 0H34L131 686Z" />
<glyph unicode="J" glyph-name="J" horiz-adv-x="410" d="M78 -12T39 23T-1 124Q-1 142 8 208H95Q86 144 86 137Q86 103 103 86T154 69Q192 69 215 92T244 158L319 686H407L333 163Q321 78 274 33T152 -12Q78 -12 39 23Z" />
<glyph unicode="K" glyph-name="K" horiz-adv-x="547" d="M131 686H219L168 329L484 686H589L344 409L499 0H401L279 335L152 213L122 0H34L131 686Z" />
<glyph unicode="L" glyph-name="L" horiz-adv-x="456" d="M131 686H219L134 80H414L402 0H34L131 686Z" />
<glyph unicode="M" glyph-name="M" horiz-adv-x="683" d="M121 686H253L310 236Q314 209 315 163T317 102H321Q324 117 336 163T359 236L545 686H680L583 0H495L565 498L580 584H576Q572 573 562 542T545 498L338 0H259L194 498Q192 518 190 545T187 584H183L173
498L103 0H24L121 686Z" />
<glyph unicode="N" glyph-name="N" horiz-adv-x="592" d="M130 686H202L397 255Q404 239 415 207T429 163L432 164Q433 175 436 203T442 255L503 686H582L485 0H416L219 437Q211 455 200 487T186 529L183 528Q182 518 180 491T174 437L112 0H33L130 686Z" />
<glyph unicode="O" glyph-name="O" horiz-adv-x="638" d="M174 -12T113 53T51 247Q51 354 82 457T183 629T367 698Q481 698 543 632T605 437Q605 330 574 228T472 57T288 -12Q174 -12 113 53ZM373 69T423 126T494 267T514 437Q514 526 476 571T366 617Q282 617
232 560T162 419T141 249Q141 159 179 114T289 69Q373 69 423 126Z" />
<glyph unicode="P" glyph-name="P" horiz-adv-x="547" d="M131 686H366Q459 686 507 639T555 512Q555 441 526 389T445 310T323 283H162L122 0H34L131 686ZM332 363Q389 363 425 399T462 496Q462 547 436 576T361 606H207L174 363H332Z" />
<glyph unicode="Q" glyph-name="Q" horiz-adv-x="638" d="M296 -12Q51 -12 51 247Q51 354 82 457T183 629T367 698Q481 698 543 632T605 437Q605 348 584 261T513 104T388 5L510 -124H400L296 -12ZM373 69T423 126T494 267T514 437Q514 526 476 571T366 617Q282
617 232 560T162 419T141 249Q141 159 179 114T289 69Q373 69 423 126Z" />
<glyph unicode="R" glyph-name="R" horiz-adv-x="592" d="M131 686H397Q491 686 537 644T583 527Q583 452 545 397T439 318L531 0H438L350 303H165L122 0H34L131 686ZM353 383Q412 383 451 419T491 513Q491 558 464 582T384 606H207L176 383H353Z" />
<glyph unicode="S" glyph-name="S" horiz-adv-x="547" d="M149 -12T91 40T33 188Q33 218 36 234H127Q122 206 122 187Q122 127 157 98T256 69Q309 69 353 97T398 190Q398 223 381 246T337 284T266 320Q213 343 180 363T124 418T101 502Q101 596 157 647T314 698Q426
698 476 641T526 485H435Q435 617 309 617Q267 617 230 596T192 512Q192 482 208 461T250 426T319 393Q373 370 407 350T466 293T490 203Q490 150 469 102T393 21T249 -12Q149 -12 91 40Z" />
<glyph unicode="T" glyph-name="T" horiz-adv-x="501" d="M251 606H64L76 686H538L526 606H339L254 0H166L251 606Z" />
<glyph unicode="U" glyph-name="U" horiz-adv-x="592" d="M165 -12T111 35T57 173Q57 202 86 407T127 686H215Q204 611 175 405T146 185Q146 128 177 99T266 69Q331 69 373 107T425 218L491 686H579L513 223Q497 108 433 48T264 -12Q165 -12 111 35Z" />
<glyph unicode="V" glyph-name="V" horiz-adv-x="547" d="M74 686H165L257 96H261L517 686H605L299 0H186L74 686Z" />
<glyph unicode="W" glyph-name="W" horiz-adv-x="774" d="M77 686H166L205 212Q207 187 208 145T209 90H213Q216 101 225 134T247 212L391 686H518L535 212Q536 180 536 143T536 90H540Q544 103 556 143T578 212L749 686H831L575 0H461L446 463L441 603H436Q433
588 422 541T401 465L253 0H139L77 686Z" />
<glyph unicode="X" glyph-name="X" horiz-adv-x="547" d="M239 360L85 686H185L301 441H302L483 686H582L338 361L507 0H408L277 280H276L66 0H-31L239 360Z" />
<glyph unicode="Y" glyph-name="Y" horiz-adv-x="547" d="M235 284L70 686H166L291 368H295L509 686H601L323 284L283 0H195L235 284Z" />
<glyph unicode="Z" glyph-name="Z" horiz-adv-x="501" d="M-13 38L388 606H86L98 686H526L523 648L121 80H451L439 0H-16L-13 38Z" />
<glyph unicode="[" glyph-name="bracketleft" horiz-adv-x="228" d="M111 735H270L261 670H178L71 -96H154L145 -161H-13L111 735Z" />
<glyph unicode="\" glyph-name="backslash" horiz-adv-x="228" d="M49 735H119L228 -49H157L49 735Z" />
<glyph unicode="]" glyph-name="bracketright" horiz-adv-x="228" d="M-33 -96H49L156 670H73L82 735H241L116 -161H-42L-33 -96Z" />
<glyph unicode="^" glyph-name="asciicircum" horiz-adv-x="385" d="M199 686H306L388 294H298L241 609L98 294H9L199 686Z" />
<glyph unicode="_" glyph-name="underscore" horiz-adv-x="456" d="M-39 -71H416L409 -124H-45L-39 -71Z" />
<glyph unicode="`" glyph-name="grave" horiz-adv-x="273" d="M64 720L66 723H156L223 591H154L64 720Z" />
<glyph unicode="a" glyph-name="a" horiz-adv-x="456" d="M105 -12T69 37T33 183Q33 298 62 378T138 498T236 538Q319 538 345 453L363 526H428Q418 459 393 278T367 89Q367 75 373 68T391 61H423L415 4Q392 -12 359 -12Q326 -12 307 8T287 71Q258 28 230 8T166
-12Q105 -12 69 37ZM234 61T262 113T304 233T317 352Q317 465 248 465Q199 465 170 415T129 297T117 175Q117 61 191 61Q234 61 262 113Z" />
<glyph unicode="b" glyph-name="b" horiz-adv-x="456" d="M178 -12T150 7T106 73L88 0H23L124 723H206L171 466Q199 504 227 521T289 538Q350 538 386 489T422 343Q422 228 393 148T317 28T219 -12Q178 -12 150 7ZM256 61T285 111T326 229T338 351Q338 465 264
465Q217 465 188 413T146 294T134 174Q134 61 207 61Q256 61 285 111Z" />
<glyph unicode="c" glyph-name="c" horiz-adv-x="410" d="M116 -12T74 35T31 179Q31 325 78 431T240 538Q390 538 390 349V331H305V348Q305 465 240 465Q190 465 163 412T126 295T116 186Q116 126 135 94T190 61Q230 61 258 99T292 192H374Q364 106 316 47T192
-12Q116 -12 74 35Z" />
<glyph unicode="d" glyph-name="d" horiz-adv-x="456" d="M106 -12T70 37T34 183Q34 298 63 378T139 498T237 538Q310 538 342 468L378 723H460L359 0H294V71Q243 -12 167 -12Q106 -12 70 37ZM239 61T268 113T310 232T322 352Q322 465 249 465Q200 465 171 415T130
297T118 175Q118 61 192 61Q239 61 268 113Z" />
<glyph unicode="e" glyph-name="e" horiz-adv-x="456" d="M122 -12T79 35T35 179Q35 322 85 430T258 538Q420 538 420 349Q420 290 412 239H123Q120 208 120 186Q120 61 205 61Q248 61 278 95T316 178H399Q386 96 336 42T205 -12Q122 -12 79 35ZM334 312Q335 325
335 348Q335 465 258 465Q208 465 178 422T133 312H334Z" />
<glyph unicode="f" glyph-name="f" horiz-adv-x="228" d="M-57 -182T-89 -170L-81 -113H-37Q10 -113 16 -65L84 453H38L48 526H94L106 610Q113 662 142 696T227 731Q262 731 294 719L286 662H242Q219 662 205 650T188 614L176 526H267L257 453H166L98 -61Q91 -112
62 -147T-22 -182Q-57 -182 -89 -170Z" />
<glyph unicode="g" glyph-name="g" horiz-adv-x="456" d="M88 -182T48 -137T7 -24H89Q89 -110 168 -110Q216 -110 243 -78T282 25L293 91Q266 48 237 28T171 8Q102 8 70 61T37 190Q37 304 66 382T141 499T239 538Q280 538 308 519T352 453L369 526H434L367 49Q350
-72 301 -127T165 -182Q88 -182 48 -137ZM242 81T270 129T311 241T324 352Q322 465 250 465Q200 465 172 416T132 302T121 182Q121 81 197 81Q242 81 270 129Z" />
<glyph unicode="h" glyph-name="h" horiz-adv-x="456" d="M123 723H205L169 465Q188 495 220 516T299 538Q359 538 386 505T413 420Q413 400 390 231T357 0H275Q284 58 306 219T329 401Q329 465 269 465Q220 465 188 419T144 294L103 0H22L123 723Z" />
<glyph unicode="i" glyph-name="i" horiz-adv-x="182" d="M116 723H198L185 625H103L116 723ZM89 526H171L97 0H16L89 526Z" />
<glyph unicode="j" glyph-name="j" horiz-adv-x="182" d="M116 723H198L184 625H102L116 723ZM-67 -182T-99 -170L-91 -113H-47Q-24 -113 -11 -101T5 -65L88 526H170L88 -61Q80 -113 52 -147T-32 -182Q-67 -182 -99 -170Z" />
<glyph unicode="k" glyph-name="k" horiz-adv-x="410" d="M120 723H202L141 292L338 526H436L250 310L370 0H280L192 242L127 187L101 0H19L120 723Z" />
<glyph unicode="l" glyph-name="l" horiz-adv-x="182" d="M116 723H198L97 0H16L116 723Z" />
<glyph unicode="m" glyph-name="m" horiz-adv-x="683" d="M96 526H160V448Q176 481 209 509T295 538Q343 538 368 513T399 446Q416 480 448 509T535 538Q591 538 616 505T641 420Q641 400 618 231T585 0H503Q512 58 534 219T557 401Q557 465 505 465Q460 465 429
422T388 307L345 0H263Q272 58 294 219T317 401Q317 465 265 465Q218 465 187 419T145 294L104 0H22L96 526Z" />
<glyph unicode="n" glyph-name="n" horiz-adv-x="456" d="M96 526H160V448Q177 482 211 510T300 538Q360 538 387 505T414 420Q414 400 391 231T358 0H276Q285 58 307 219T330 401Q330 465 270 465Q221 465 189 419T145 294L104 0H22L96 526Z" />
<glyph unicode="o" glyph-name="o" horiz-adv-x="456" d="M33 -12T33 175Q33 260 52 342T122 481T256 538Q422 538 422 349Q422 264 403 183T333 45T199 -12Q33 -12 33 175ZM254 61T285 113T326 230T337 348Q337 465 256 465Q201 465 171 415T129 301T118 186Q118
122 137 92T199 61Q254 61 285 113Z" />
<glyph unicode="p" glyph-name="p" horiz-adv-x="456" d="M98 526H163V455Q214 538 290 538Q351 538 387 489T423 343Q423 228 394 148T318 28T220 -12Q147 -12 115 58L81 -182H-1L98 526ZM257 61T286 111T327 229T339 351Q339 465 265 465Q218 465 189 413T147
294T135 174Q135 61 208 61Q257 61 286 111Z" />
<glyph unicode="q" glyph-name="q" horiz-adv-x="456" d="M284 60Q256 22 228 5T166 -12Q105 -12 69 37T33 183Q33 298 62 378T138 498T236 538Q277 538 305 519T349 453L367 526H432L334 -173H252L284 60ZM238 61T267 113T309 232T321 352Q321 465 248 465Q199
465 170 415T129 297T117 175Q117 61 191 61Q238 61 267 113Z" />
<glyph unicode="r" glyph-name="r" horiz-adv-x="273" d="M90 526H154V442Q175 486 197 512T259 538Q273 538 283 535T297 530L285 445H258Q217 445 184 408T141 304L98 0H16L90 526Z" />
<glyph unicode="s" glyph-name="s" horiz-adv-x="410" d="M140 -12T103 8T43 65T21 150Q21 171 23 182H108Q105 166 105 150Q105 106 130 83T194 60Q228 60 249 81T270 135Q270 172 248 193T181 242Q145 263 123 280T86 324T70 390Q70 455 112 496T232 538Q307
538 344 491T382 373H297Q297 423 276 444T223 466Q198 466 177 449T155 402Q155 365 176 345T242 301Q278 281 300 265T339 220T355 148Q355 73 310 31T186 -12Q140 -12 103 8Z" />
<glyph unicode="t" glyph-name="t" horiz-adv-x="228" d="M72 -10T53 13T34 75Q34 91 56 244T86 453H41L51 526H96L117 672H203L178 526H249L239 453H168Q160 399 139 253T118 98Q118 61 155 61H184L176 4Q164 -2 147 -6T115 -10Q72 -10 53 13Z" />
<glyph unicode="u" glyph-name="u" horiz-adv-x="456" d="M96 -12T69 21T42 106Q42 126 65 295T98 526H180Q171 468 149 307T126 125Q126 61 186 61Q235 61 267 107T311 232L352 526H434L360 0H296V77Q279 44 245 16T156 -12Q96 -12 69 21Z" />
<glyph unicode="v" glyph-name="v" horiz-adv-x="410" d="M46 526H133L171 243L187 119H191L242 242L359 526H447L213 0H124L46 526Z" />
<glyph unicode="w" glyph-name="w" horiz-adv-x="592" d="M43 526H122L152 230Q160 155 161 93H165Q167 107 176 151T196 230L290 526H388L402 230Q403 218 403 93H407Q409 106 419 149T444 230L555 526H632L428 0H337L323 342Q323 368 324 398T327 438H323Q321
424 311 379T290 300L193 0H101L43 526Z" />
<glyph unicode="x" glyph-name="x" horiz-adv-x="410" d="M164 270L52 526H147L219 349H220L338 526H436L253 269L370 0H275L198 190H197L69 0H-27L164 270Z" />
<glyph unicode="y" glyph-name="y" horiz-adv-x="410" d="M-2 -182T-22 -174L-14 -117H14Q94 -117 134 0L47 526H134L179 209L194 106H198L238 209L360 526H448L234 27Q191 -72 145 -127T35 -182Q-2 -182 -22 -174Z" />
<glyph unicode="z" glyph-name="z" horiz-adv-x="410" d="M5 39L289 453H78L88 526H414L411 488L126 73H366L356 0H2L5 39Z" />
<glyph unicode="{" glyph-name="braceleft" horiz-adv-x="274" d="M126 -159T89 -135T51 -46Q51 -31 54 -11Q59 20 71 104T83 195Q83 221 63 233T14 246L25 330Q56 330 81 344T111 390L139 587Q151 674 196 704T316 735L308 678Q275 678 250 663T219 607Q213 563
197 475Q188 430 183 401Q173 347 150 320T80 293L79 283Q119 283 136 263T153 202Q153 153 137 30Q129 -38 129 -46Q129 -102 199 -102L191 -159Q126 -159 89 -135Z" />
<glyph unicode="|" glyph-name="bar" horiz-adv-x="213" d="M67 723H146V-173H67V723Z" />
<glyph unicode="}" glyph-name="braceright" horiz-adv-x="274" d="M-34 -102Q-1 -102 24 -87T55 -31Q61 13 77 101Q86 146 91 175Q101 229 124 256T194 283L195 293Q155 293 138 313T121 374Q121 423 137 546Q145 614 145 622Q145 678 75 678L83 735Q148 735
185 711T223 622Q223 607 220 587Q215 556 203 472T191 381Q191 355 211 343T260 330L249 246Q218 246 193 232T163 186L135 -11Q123 -98 78 -128T-42 -159L-34 -102Z" />
<glyph unicode="~" glyph-name="asciitilde" horiz-adv-x="479" d="M35 303Q35 305 53 324T99 360T163 376Q184 376 201 369T244 346Q269 331 287 323T328 315Q370 315 406 343T456 388L443 296Q443 294 425 275T379 239T315 223Q294 223 277 230T234 253Q209
268 191 276T150 284Q120 284 92 269T58 247T22 211L35 303Z" />
<glyph unicode="&#xa0;" glyph-name="uni00A0" horiz-adv-x="228" />
<glyph unicode="&#xa1;" glyph-name="exclamdown" horiz-adv-x="273" d="M151 526H251L236 418H136L151 526ZM145 355H207L160 -160H47L145 355Z" />
<glyph unicode="&#xa2;" glyph-name="cent" horiz-adv-x="456" d="M179 71Q118 83 86 129T53 259Q53 401 98 506T256 617L271 723H320L304 614Q422 593 422 429V411H341V428Q341 520 294 540L238 144Q274 153 298 189T328 272H406Q396 188 349 130T227 68L211
-48H162L179 71ZM245 542Q201 531 176 478T143 366T134 266Q134 217 148 186T189 145L245 542Z" />
<glyph unicode="&#xa3;" glyph-name="sterling" horiz-adv-x="456" d="M11 79H71L102 304H30L40 376H112L130 499Q159 698 309 698Q380 698 418 665T456 558Q456 531 450 491H368Q374 526 374 543Q374 625 308 625Q269 625 246 598T215 515L195 376H328L318 304H184L144
79H393L381 0H-1L11 79Z" />
<glyph unicode="&#xa4;" glyph-name="currency" horiz-adv-x="456" d="M149 96T88 154L45 111L-3 159L46 208Q11 268 11 342Q11 414 46 476L-3 525L45 573L87 530Q116 558 152 573T228 589Q267 589 303 574T368 530L411 573L459 525L410 476Q445 414 445 342Q445
268 410 208L459 159L411 111L368 154Q339 126 303 111T228 96Q149 96 88 154ZM268 165T302 189T356 253T376 342Q376 391 356 431T302 496T228 520Q187 520 153 496T99 432T79 342Q79 294 99 253T153 189T228 165Q268 165 302 189Z" />
<glyph unicode="&#xa5;" glyph-name="yen" horiz-adv-x="456" d="M171 169H12L21 234H180L190 304H31L40 369H168L62 686H157L252 393H256L430 686H513L318 369H446L437 304H278L268 234H427L418 169H259L235 0H147L171 169Z" />
<glyph unicode="&#xa6;" glyph-name="brokenbar" horiz-adv-x="213" d="M67 723H146V343H67V723ZM67 207H146V-173H67V207Z" />
<glyph unicode="&#xa7;" glyph-name="section" horiz-adv-x="456" d="M103 -182T66 -148T29 -61Q29 -50 31 -37T35 -19H120Q117 -34 117 -45Q117 -74 131 -92T180 -110Q226 -110 244 -81T262 -21Q262 17 240 40T173 92Q138 114 116 132T79 178T63 246Q63 303 89
345T154 412Q111 455 111 518Q111 600 159 649T288 698Q357 698 394 664T431 577Q431 566 429 553T425 535H340Q343 550 343 561Q343 590 329 608T280 626Q234 626 216 597T198 537Q198 499 220 476T287 424Q322 402 344 384T381 338T397 270Q397 213 371 171T306
105Q349 62 349 -2Q349 -84 301 -133T172 -182Q103 -182 66 -148ZM287 151T300 178T314 239Q314 269 302 291T271 327T220 363L195 380Q173 365 160 338T146 277Q146 247 158 225T189 189T240 153L265 136Q287 151 300 178Z" />
<glyph unicode="&#xa8;" glyph-name="dieresis" horiz-adv-x="273" d="M96 723H183L170 628H83L96 723ZM246 723H333L320 628H233L246 723Z" />
<glyph unicode="&#xa9;" glyph-name="copyright" horiz-adv-x="604" d="M215 -12T152 31T55 155T21 343Q21 451 55 531T152 654T302 698Q389 698 452 655T549 531T583 343Q583 235 549 155T452 32T302 -12Q215 -12 152 31ZM374 35T427 73T508 180T537 343Q537
436 509 505T427 613T302 651Q230 651 177 613T96 506T67 343Q67 250 95 181T177 73T302 35Q374 35 427 73ZM145 139T145 348Q145 558 304 558Q368 558 406 519T445 405H387Q387 455 365 480T304 506Q253 506 229 471T204 364V334Q204 191 304 191Q343 191 366
216T389 291H445Q445 216 407 178T304 139Q145 139 145 348Z" />
<glyph unicode="&#xaa;" glyph-name="ordfeminine" horiz-adv-x="303" d="M110 362T86 395T61 495Q61 572 81 626T132 708T199 736Q252 736 268 678L301 728H330Q323 683 309 582T288 431Q288 412 305 412H326L321 373Q306 362 283 362Q230 362 229 418Q211 389
193 376T152 362Q110 362 86 395ZM196 416T214 450T240 531T249 610Q249 682 207 682Q162 682 143 618T123 489Q123 416 169 416Q196 416 214 450Z" />
<glyph unicode="&#xab;" glyph-name="guillemotleft" horiz-adv-x="456" d="M54 326L221 526H294L153 326L237 126H166L54 326ZM205 326L373 526H445L305 326L388 126H318L205 326Z" />
<glyph unicode="&#xac;" glyph-name="logicalnot" horiz-adv-x="479" d="M355 360H43L56 453H452L417 197H333L355 360Z" />
<glyph unicode="&#xad;" glyph-name="uni00AD" horiz-adv-x="273" d="M16 319H268L255 221H3L16 319Z" />
<glyph unicode="&#xae;" glyph-name="registered" horiz-adv-x="604" d="M215 -12T152 31T55 155T21 343Q21 451 55 531T152 654T302 698Q389 698 452 655T549 531T583 343Q583 235 549 155T452 32T302 -12Q215 -12 152 31ZM374 35T427 73T508 180T537 343Q537
436 509 505T427 613T302 651Q230 651 177 613T96 506T67 343Q67 250 95 181T177 73T302 35Q374 35 427 73ZM377 145T377 221Q377 276 358 299T312 323H231V148H174V550H335Q380 550 409 522T438 449Q438 414 421 389T375 355V351Q394 343 414 318T435 244Q435
204 441 189T463 167V150Q451 145 434 145Q377 145 377 221ZM314 376Q344 376 361 393T379 438Q379 466 362 481T317 497H231V376H314Z" />
<glyph unicode="&#xaf;" glyph-name="overscore" horiz-adv-x="273" d="M91 671H341L330 599H80L91 671Z" />
<glyph unicode="&#xb0;" glyph-name="degree" horiz-adv-x="400" d="M173 428T142 446T93 495T75 563Q75 600 93 631T142 680T210 698Q247 698 278 680T327 631T345 563Q345 526 327 495T278 446T210 428Q173 428 142 446ZM244 481T267 505T291 563Q291 597 268
620T210 644Q176 644 152 621T128 563Q128 529 152 505T210 481Q244 481 267 505Z" />
<glyph unicode="&#xb1;" glyph-name="plusminus" horiz-adv-x="549" d="M234 310H80L92 394H246L272 578H355L329 394H484L472 310H317L292 127H209L234 310ZM49 83H441L429 0H37L49 83Z" />
<glyph unicode="&#xb2;" glyph-name="uni00B2" horiz-adv-x="273" d="M41 338Q46 381 72 414T148 493Q195 536 218 567T242 636Q242 653 233 664T203 676Q179 676 165 658T147 610L143 579H80Q81 656 118 695T208 735Q254 735 281 713T309 644Q309 594 277 550T191
455Q187 451 173 438T147 411T128 385H274L265 322H38L41 338Z" />
<glyph unicode="&#xb3;" glyph-name="uni00B3" horiz-adv-x="273" d="M108 316T81 342T53 414Q53 436 56 452H120Q117 432 117 420Q117 373 159 373Q187 373 205 393T224 453Q224 500 176 500H147L155 557H185Q209 557 226 576T243 632Q243 655 233 666T205 678Q184
678 169 662T149 615L147 602H84L87 620Q95 672 127 703T207 735Q254 735 280 711T307 642Q307 601 291 575T245 531Q264 520 275 500T287 452Q287 411 270 380T223 333T160 316Q108 316 81 342Z" />
<glyph unicode="&#xb4;" glyph-name="acute" horiz-adv-x="273" d="M218 723H308L309 720L201 591H132L218 723Z" />
<glyph unicode="&#xb5;" glyph-name="uni00B5" horiz-adv-x="576" d="M169 526H251Q242 468 220 307T197 125Q197 61 257 61Q306 61 338 107T382 232L423 526H505L431 0H367V77Q350 44 316 16T227 -12Q196 -12 175 -3L152 -173H70L169 526Z" />
<glyph unicode="&#xb6;" glyph-name="paragraph" horiz-adv-x="440" d="M186 250Q122 258 83 308T44 431Q44 507 75 565T159 654T270 686H479L470 625H422L310 -173H244L356 625H303L191 -173H126L186 250Z" />
<glyph unicode="&#xb7;" glyph-name="middot" horiz-adv-x="228" d="M87 399H188L173 288H72L87 399Z" />
<glyph unicode="&#xb8;" glyph-name="cedilla" horiz-adv-x="273" d="M60 -182T23 -174L30 -125H106Q126 -125 136 -119T146 -95Q146 -77 115 -77H82L108 11H163L149 -36Q222 -42 222 -90Q222 -141 186 -161T106 -182Q60 -182 23 -174Z" />
<glyph unicode="&#xb9;" glyph-name="uni00B9" horiz-adv-x="273" d="M61 380H140L177 638H97L103 681Q127 684 162 696T222 724H251L202 380H275L267 322H53L61 380Z" />
<glyph unicode="&#xba;" glyph-name="ordmasculine" horiz-adv-x="299" d="M58 361T58 488Q58 583 92 659T210 735Q323 735 323 606Q323 512 289 437T171 361Q58 361 58 488ZM222 415T241 479T260 606Q260 681 210 681Q159 681 140 619T121 496Q121 455 133 435T171
415Q222 415 241 479Z" />
<glyph unicode="&#xbb;" glyph-name="guillemotright" horiz-adv-x="456" d="M163 326L79 526H149L263 326L94 126H22L163 326ZM315 326L230 526H301L414 326L246 126H173L315 326Z" />
<glyph unicode="&#xbc;" glyph-name="onequarter" horiz-adv-x="684" d="M594 698H656L143 -12H80L594 698ZM37 342H116L153 600H73L79 643Q103 646 138 658T198 686H227L178 342H251L243 284H29L37 342ZM528 96H378L384 148Q464 262 526 413H588Q563 344 522
269T451 153H536L549 244Q551 248 569 284T599 355H626L598 153H638L630 96H590L576 0H514L528 96Z" />
<glyph unicode="&#xbd;" glyph-name="onehalf" horiz-adv-x="684" d="M579 698H641L128 -12H65L579 698ZM36 342H115L152 600H72L78 643Q102 646 137 658T197 686H226L177 342H250L242 284H28L36 342ZM389 16Q393 47 409 74T445 121T503 178Q546 217 568 247T590
314Q590 331 581 342T551 354Q527 354 513 336T495 288L491 257H428Q429 334 466 373T556 413Q602 413 629 391T657 322Q657 272 625 228T539 133Q535 129 521 116T495 89T476 63H622L613 0H386L389 16Z" />
<glyph unicode="&#xbe;" glyph-name="threequarters" horiz-adv-x="684" d="M98 279T71 305T43 377Q43 399 46 415H110Q107 395 107 383Q107 336 149 336Q177 336 195 356T214 416Q214 463 166 463H137L145 520H175Q199 520 216 539T233 595Q233 618 223 629T195
641Q174 641 159 625T139 578L137 565H74L77 583Q85 635 117 666T197 698Q244 698 270 674T297 605Q297 564 281 538T235 494Q254 483 265 463T277 415Q277 374 260 343T213 296T150 279Q98 279 71 305ZM589 698H651L138 -12H75L589 698ZM525 96H375L381 148Q461
262 523 413H585Q560 344 519 269T448 153H533L546 244Q548 248 566 284T596 355H623L595 153H635L627 96H587L573 0H511L525 96Z" />
<glyph unicode="&#xbf;" glyph-name="questiondown" horiz-adv-x="501" d="M275 526H375L359 418H259L275 526ZM163 -172T119 -131T75 -22Q75 32 89 72T124 137T177 194Q210 226 227 249T249 305L255 346H342L334 290Q328 246 308 217T250 153Q223 126 207 107T180
59T168 -6Q168 -41 184 -68T243 -95Q293 -95 319 -61T352 11T360 67H449Q448 2 423 -52T349 -139T235 -172Q163 -172 119 -131Z" />
<glyph unicode="&#xc0;" glyph-name="Agrave" horiz-adv-x="547" d="M246 880L248 883H337L405 751H335L246 880ZM278 686H391L512 0H421L395 153H120L51 0H-36L278 686ZM382 233L331 538Q329 552 328 578T326 614H322Q319 605 310 579T294 538L156 233H382Z" />
<glyph unicode="&#xc1;" glyph-name="Aacute" horiz-adv-x="547" d="M378 883H469L470 880L362 751H292L378 883ZM278 686H391L512 0H421L395 153H120L51 0H-36L278 686ZM382 233L331 538Q329 552 328 578T326 614H322Q319 605 310 579T294 538L156 233H382Z" />
<glyph unicode="&#xc2;" glyph-name="Acircumflex" horiz-adv-x="547" d="M321 883H399L465 748H388L355 827L299 748H216L321 883ZM278 686H391L512 0H421L395 153H120L51 0H-36L278 686ZM382 233L331 538Q329 552 328 578T326 614H322Q319 605 310 579T294 538L156
233H382Z" />
<glyph unicode="&#xc3;" glyph-name="Atilde" horiz-adv-x="547" d="M207 819T231 851T296 883Q311 883 325 879T356 867Q390 852 410 852Q441 852 449 883H507Q501 843 476 811T411 779Q396 779 382 783T351 795Q317 810 297 810Q266 810 258 779H201Q207 819
231 851ZM278 686H391L512 0H421L395 153H120L51 0H-36L278 686ZM382 233L331 538Q329 552 328 578T326 614H322Q319 605 310 579T294 538L156 233H382Z" />
<glyph unicode="&#xc4;" glyph-name="Adieresis" horiz-adv-x="547" d="M247 883H333L320 788H233L247 883ZM396 883H483L470 788H383L396 883ZM278 686H391L512 0H421L395 153H120L51 0H-36L278 686ZM382 233L331 538Q329 552 328 578T326 614H322Q319 605 310
579T294 538L156 233H382Z" />
<glyph unicode="&#xc5;" glyph-name="Aring" horiz-adv-x="547" d="M308 715T284 738T259 799Q259 841 289 869T358 897Q395 897 419 873T444 813Q444 772 415 744T346 715Q308 715 284 738ZM370 755T385 770T400 810Q400 829 387 843T355 857Q334 857 319 842T304
802Q304 783 316 769T349 755Q370 755 385 770ZM278 686H391L512 0H421L395 153H120L51 0H-36L278 686ZM382 233L331 538Q329 552 328 578T326 614H322Q319 605 310 579T294 538L156 233H382Z" />
<glyph unicode="&#xc6;" glyph-name="AE" horiz-adv-x="820" d="M331 686H830L818 606H451L469 391H744L733 311H475L495 80H751L739 0H410L397 153H128L49 0H-43L331 686ZM391 233L367 526Q365 548 364 570T363 602H359Q355 593 345 570T323 526L170 233H391Z" />
<glyph unicode="&#xc7;" glyph-name="Ccedilla" horiz-adv-x="592" d="M183 -182T146 -174L153 -125H229Q249 -125 259 -119T270 -95Q270 -77 239 -77H206L226 -7Q143 8 97 70T51 241Q51 345 79 449T175 626T353 698Q570 698 570 453V437H479V459Q479 617 352
617Q267 617 220 547T157 392T141 246Q141 161 177 116T282 70Q354 70 398 119T454 242H541Q525 124 456 56T280 -12L272 -36Q346 -42 346 -90Q346 -141 310 -161T229 -182Q183 -182 146 -174Z" />
<glyph unicode="&#xc8;" glyph-name="Egrave" horiz-adv-x="547" d="M236 880L238 883H328L396 751H326L236 880ZM131 686H554L542 606H207L177 391H468L457 311H166L134 80H475L463 0H34L131 686Z" />
<glyph unicode="&#xc9;" glyph-name="Eacute" horiz-adv-x="547" d="M369 883H459L460 880L353 751H283L369 883ZM131 686H554L542 606H207L177 391H468L457 311H166L134 80H475L463 0H34L131 686Z" />
<glyph unicode="&#xca;" glyph-name="Ecircumflex" horiz-adv-x="547" d="M312 883H390L456 748H379L346 827L290 748H207L312 883ZM131 686H554L542 606H207L177 391H468L457 311H166L134 80H475L463 0H34L131 686Z" />
<glyph unicode="&#xcb;" glyph-name="Edieresis" horiz-adv-x="547" d="M237 883H324L311 788H224L237 883ZM387 883H474L461 788H374L387 883ZM131 686H554L542 606H207L177 391H468L457 311H166L134 80H475L463 0H34L131 686Z" />
<glyph unicode="&#xcc;" glyph-name="Igrave" horiz-adv-x="228" d="M85 880L87 883H177L245 751H175L85 880ZM131 686H219L122 0H34L131 686Z" />
<glyph unicode="&#xcd;" glyph-name="Iacute" horiz-adv-x="228" d="M218 883H309L310 880L202 751H132L218 883ZM131 686H219L122 0H34L131 686Z" />
<glyph unicode="&#xce;" glyph-name="Icircumflex" horiz-adv-x="228" d="M161 883H239L305 748H228L195 827L139 748H56L161 883ZM131 686H219L122 0H34L131 686Z" />
<glyph unicode="&#xcf;" glyph-name="Idieresis" horiz-adv-x="228" d="M86 883H173L160 788H73L86 883ZM236 883H323L310 788H223L236 883ZM131 686H219L122 0H34L131 686Z" />
<glyph unicode="&#xd0;" glyph-name="Eth" horiz-adv-x="592" d="M79 323H14L23 387H88L131 686H334Q444 686 503 621T563 429Q563 330 532 232T434 67T265 0H34L79 323ZM255 80Q335 80 383 134T452 268T472 428Q472 517 434 561T324 606H207L176 387H333L324
323H167L134 80H255Z" />
<glyph unicode="&#xd1;" glyph-name="Ntilde" horiz-adv-x="592" d="M227 819T251 851T316 883Q331 883 345 879T376 867Q410 852 430 852Q461 852 469 883H527Q521 843 496 811T431 779Q416 779 402 783T371 795Q337 810 317 810Q286 810 278 779H221Q227 819
251 851ZM130 686H202L397 255Q404 239 415 207T429 163L432 164Q433 175 436 203T442 255L503 686H582L485 0H416L219 437Q211 455 200 487T186 529L183 528Q182 518 180 491T174 437L112 0H33L130 686Z" />
<glyph unicode="&#xd2;" glyph-name="Ograve" horiz-adv-x="638" d="M289 880L291 883H381L448 751H379L289 880ZM174 -12T113 53T51 247Q51 354 82 457T183 629T367 698Q481 698 543 632T605 437Q605 330 574 228T472 57T288 -12Q174 -12 113 53ZM373 69T423
126T494 267T514 437Q514 526 476 571T366 617Q282 617 232 560T162 419T141 249Q141 159 179 114T289 69Q373 69 423 126Z" />
<glyph unicode="&#xd3;" glyph-name="Oacute" horiz-adv-x="638" d="M422 883H512L513 880L405 751H336L422 883ZM174 -12T113 53T51 247Q51 354 82 457T183 629T367 698Q481 698 543 632T605 437Q605 330 574 228T472 57T288 -12Q174 -12 113 53ZM373 69T423
126T494 267T514 437Q514 526 476 571T366 617Q282 617 232 560T162 419T141 249Q141 159 179 114T289 69Q373 69 423 126Z" />
<glyph unicode="&#xd4;" glyph-name="Ocircumflex" horiz-adv-x="638" d="M365 883H443L509 748H432L399 827L343 748H260L365 883ZM174 -12T113 53T51 247Q51 354 82 457T183 629T367 698Q481 698 543 632T605 437Q605 330 574 228T472 57T288 -12Q174 -12 113
53ZM373 69T423 126T494 267T514 437Q514 526 476 571T366 617Q282 617 232 560T162 419T141 249Q141 159 179 114T289 69Q373 69 423 126Z" />
<glyph unicode="&#xd5;" glyph-name="Otilde" horiz-adv-x="638" d="M250 819T274 851T339 883Q354 883 367 879T400 867Q434 852 454 852Q484 852 492 883H550Q544 843 519 811T455 779Q439 779 426 783T393 795Q361 810 340 810Q310 810 301 779H244Q250 819
274 851ZM174 -12T113 53T51 247Q51 354 82 457T183 629T367 698Q481 698 543 632T605 437Q605 330 574 228T472 57T288 -12Q174 -12 113 53ZM373 69T423 126T494 267T514 437Q514 526 476 571T366 617Q282 617 232 560T162 419T141 249Q141 159 179 114T289 69Q373
69 423 126Z" />
<glyph unicode="&#xd6;" glyph-name="Odieresis" horiz-adv-x="638" d="M290 883H377L364 788H277L290 883ZM440 883H527L514 788H427L440 883ZM174 -12T113 53T51 247Q51 354 82 457T183 629T367 698Q481 698 543 632T605 437Q605 330 574 228T472 57T288 -12Q174
-12 113 53ZM373 69T423 126T494 267T514 437Q514 526 476 571T366 617Q282 617 232 560T162 419T141 249Q141 159 179 114T289 69Q373 69 423 126Z" />
<glyph unicode="&#xd7;" glyph-name="multiply" horiz-adv-x="479" d="M16 104L190 255L59 407L122 466L255 314L429 466L476 407L301 255L433 104L370 45L238 195L63 45L16 104Z" />
<glyph unicode="&#xd8;" glyph-name="Oslash" horiz-adv-x="638" d="M110 56Q51 121 51 247Q51 354 82 457T183 629T367 698Q450 698 503 664L541 723H605L545 630Q605 562 605 437Q605 330 574 228T472 57T288 -12Q207 -12 151 21L114 -37H50L110 56ZM455 590Q421
617 366 617Q282 617 232 560T162 419T141 249Q141 182 163 138L455 590ZM373 69T423 126T494 267T514 437Q514 504 491 547L199 95Q234 69 289 69Q373 69 423 126Z" />
<glyph unicode="&#xd9;" glyph-name="Ugrave" horiz-adv-x="592" d="M263 880L265 883H354L422 751H353L263 880ZM165 -12T111 35T57 173Q57 202 86 407T127 686H215Q204 611 175 405T146 185Q146 128 177 99T266 69Q331 69 373 107T425 218L491 686H579L513 223Q497
108 433 48T264 -12Q165 -12 111 35Z" />
<glyph unicode="&#xda;" glyph-name="Uacute" horiz-adv-x="592" d="M396 883H486L487 880L379 751H310L396 883ZM165 -12T111 35T57 173Q57 202 86 407T127 686H215Q204 611 175 405T146 185Q146 128 177 99T266 69Q331 69 373 107T425 218L491 686H579L513 223Q497
108 433 48T264 -12Q165 -12 111 35Z" />
<glyph unicode="&#xdb;" glyph-name="Ucircumflex" horiz-adv-x="592" d="M338 883H417L482 748H405L373 827L316 748H233L338 883ZM165 -12T111 35T57 173Q57 202 86 407T127 686H215Q204 611 175 405T146 185Q146 128 177 99T266 69Q331 69 373 107T425 218L491
686H579L513 223Q497 108 433 48T264 -12Q165 -12 111 35Z" />
<glyph unicode="&#xdc;" glyph-name="Udieresis" horiz-adv-x="592" d="M264 883H351L337 788H250L264 883ZM414 883H500L487 788H400L414 883ZM165 -12T111 35T57 173Q57 202 86 407T127 686H215Q204 611 175 405T146 185Q146 128 177 99T266 69Q331 69 373 107T425
218L491 686H579L513 223Q497 108 433 48T264 -12Q165 -12 111 35Z" />
<glyph unicode="&#xdd;" glyph-name="Yacute" horiz-adv-x="547" d="M381 883H472L473 880L365 751H295L381 883ZM235 284L70 686H166L291 368H295L509 686H601L323 284L283 0H195L235 284Z" />
<glyph unicode="&#xde;" glyph-name="Thorn" horiz-adv-x="547" d="M131 686H219L200 551H347Q440 551 488 505T536 380Q536 309 506 256T423 175T300 146H143L122 0H34L131 686ZM309 226Q367 226 405 264T443 364Q443 414 417 442T342 471H189L154 226H309Z" />
<glyph unicode="&#xdf;" glyph-name="germandbls" horiz-adv-x="501" d="M89 516Q104 627 165 681T314 735Q393 735 440 694T488 580Q488 521 455 468T369 395V391Q411 375 436 333T462 240Q462 181 433 125T352 35T240 0H155L165 74H232Q269 74 302 96T356 155T377
235Q377 284 348 317T271 350H204L214 423H273Q308 423 338 443T385 497T403 569Q403 613 379 637T309 662Q255 662 219 625T172 518L99 0H18L89 516Z" />
<glyph unicode="&#xe0;" glyph-name="agrave" horiz-adv-x="456" d="M174 720L176 723H266L333 591H264L174 720ZM105 -12T69 37T33 183Q33 298 62 378T138 498T236 538Q319 538 345 453L363 526H428Q418 459 393 278T367 89Q367 75 373 68T391 61H423L415 4Q392
-12 359 -12Q326 -12 307 8T287 71Q258 28 230 8T166 -12Q105 -12 69 37ZM234 61T262 113T304 233T317 352Q317 465 248 465Q199 465 170 415T129 297T117 175Q117 61 191 61Q234 61 262 113Z" />
<glyph unicode="&#xe1;" glyph-name="aacute" horiz-adv-x="456" d="M307 723H397L398 720L291 591H221L307 723ZM105 -12T69 37T33 183Q33 298 62 378T138 498T236 538Q319 538 345 453L363 526H428Q418 459 393 278T367 89Q367 75 373 68T391 61H423L415 4Q392
-12 359 -12Q326 -12 307 8T287 71Q258 28 230 8T166 -12Q105 -12 69 37ZM234 61T262 113T304 233T317 352Q317 465 248 465Q199 465 170 415T129 297T117 175Q117 61 191 61Q234 61 262 113Z" />
<glyph unicode="&#xe2;" glyph-name="acircumflex" horiz-adv-x="456" d="M250 723H328L394 588H317L284 667L228 588H145L250 723ZM105 -12T69 37T33 183Q33 298 62 378T138 498T236 538Q319 538 345 453L363 526H428Q418 459 393 278T367 89Q367 75 373 68T391
61H423L415 4Q392 -12 359 -12Q326 -12 307 8T287 71Q258 28 230 8T166 -12Q105 -12 69 37ZM234 61T262 113T304 233T317 352Q317 465 248 465Q199 465 170 415T129 297T117 175Q117 61 191 61Q234 61 262 113Z" />
<glyph unicode="&#xe3;" glyph-name="atilde" horiz-adv-x="456" d="M136 660T160 691T225 723Q240 723 254 719T285 707Q319 692 339 692Q370 692 377 723H436Q430 683 405 651T340 619Q324 619 310 623T279 635Q247 650 226 650Q195 650 187 619H129Q136 660
160 691ZM105 -12T69 37T33 183Q33 298 62 378T138 498T236 538Q319 538 345 453L363 526H428Q418 459 393 278T367 89Q367 75 373 68T391 61H423L415 4Q392 -12 359 -12Q326 -12 307 8T287 71Q258 28 230 8T166 -12Q105 -12 69 37ZM234 61T262 113T304 233T317
352Q317 465 248 465Q199 465 170 415T129 297T117 175Q117 61 191 61Q234 61 262 113Z" />
<glyph unicode="&#xe4;" glyph-name="adieresis" horiz-adv-x="456" d="M175 723H262L249 628H162L175 723ZM325 723H412L399 628H312L325 723ZM105 -12T69 37T33 183Q33 298 62 378T138 498T236 538Q319 538 345 453L363 526H428Q418 459 393 278T367 89Q367
75 373 68T391 61H423L415 4Q392 -12 359 -12Q326 -12 307 8T287 71Q258 28 230 8T166 -12Q105 -12 69 37ZM234 61T262 113T304 233T317 352Q317 465 248 465Q199 465 170 415T129 297T117 175Q117 61 191 61Q234 61 262 113Z" />
<glyph unicode="&#xe5;" glyph-name="aring" horiz-adv-x="456" d="M237 555T213 578T188 639Q188 681 217 709T287 737Q324 737 348 713T373 653Q373 612 344 584T274 555Q237 555 213 578ZM298 595T313 610T329 650Q329 669 316 683T284 697Q262 697 247 682T232
642Q232 623 245 609T277 595Q298 595 313 610ZM105 -12T69 37T33 183Q33 298 62 378T138 498T236 538Q319 538 345 453L363 526H428Q418 459 393 278T367 89Q367 75 373 68T391 61H423L415 4Q392 -12 359 -12Q326 -12 307 8T287 71Q258 28 230 8T166 -12Q105 -12
69 37ZM234 61T262 113T304 233T317 352Q317 465 248 465Q199 465 170 415T129 297T117 175Q117 61 191 61Q234 61 262 113Z" />
<glyph unicode="&#xe6;" glyph-name="ae" horiz-adv-x="729" d="M26 -12T26 113Q26 227 104 269T319 312L329 380Q331 396 331 403Q331 433 315 449T258 465Q214 465 191 439T164 370H83Q83 447 135 492T269 538Q362 538 396 482Q450 538 531 538Q693 538 693
349Q693 290 685 239H396Q393 208 393 186Q393 61 478 61Q521 61 551 95T589 178H672Q659 96 609 42T478 -12Q368 -12 328 70Q299 32 255 10T166 -12Q26 -12 26 113ZM607 312Q608 325 608 348Q608 465 531 465Q481 465 451 422T406 312H607ZM218 61T255 93T301
183L309 239Q212 239 163 217T113 129Q113 93 128 77T175 61Q218 61 255 93Z" />
<glyph unicode="&#xe7;" glyph-name="ccedilla" horiz-adv-x="410" d="M103 -182T66 -174L73 -125H149Q169 -125 179 -119T189 -95Q189 -77 158 -77H125L146 -7Q91 6 61 52T31 179Q31 325 78 431T240 538Q390 538 390 349V331H305V348Q305 465 240 465Q190 465
163 412T126 295T116 186Q116 126 135 94T190 61Q230 61 258 99T292 192H374Q364 107 318 49T199 -12L192 -36Q265 -42 265 -90Q265 -141 229 -161T149 -182Q103 -182 66 -174Z" />
<glyph unicode="&#xe8;" glyph-name="egrave" horiz-adv-x="456" d="M175 720L177 723H267L334 591H265L175 720ZM122 -12T79 35T35 179Q35 322 85 430T258 538Q420 538 420 349Q420 290 412 239H123Q120 208 120 186Q120 61 205 61Q248 61 278 95T316 178H399Q386
96 336 42T205 -12Q122 -12 79 35ZM334 312Q335 325 335 348Q335 465 258 465Q208 465 178 422T133 312H334Z" />
<glyph unicode="&#xe9;" glyph-name="eacute" horiz-adv-x="456" d="M308 723H398L399 720L292 591H222L308 723ZM122 -12T79 35T35 179Q35 322 85 430T258 538Q420 538 420 349Q420 290 412 239H123Q120 208 120 186Q120 61 205 61Q248 61 278 95T316 178H399Q386
96 336 42T205 -12Q122 -12 79 35ZM334 312Q335 325 335 348Q335 465 258 465Q208 465 178 422T133 312H334Z" />
<glyph unicode="&#xea;" glyph-name="ecircumflex" horiz-adv-x="456" d="M251 723H329L395 588H318L285 667L229 588H146L251 723ZM122 -12T79 35T35 179Q35 322 85 430T258 538Q420 538 420 349Q420 290 412 239H123Q120 208 120 186Q120 61 205 61Q248 61 278
95T316 178H399Q386 96 336 42T205 -12Q122 -12 79 35ZM334 312Q335 325 335 348Q335 465 258 465Q208 465 178 422T133 312H334Z" />
<glyph unicode="&#xeb;" glyph-name="edieresis" horiz-adv-x="456" d="M176 723H263L250 628H163L176 723ZM326 723H413L400 628H313L326 723ZM122 -12T79 35T35 179Q35 322 85 430T258 538Q420 538 420 349Q420 290 412 239H123Q120 208 120 186Q120 61 205
61Q248 61 278 95T316 178H399Q386 96 336 42T205 -12Q122 -12 79 35ZM334 312Q335 325 335 348Q335 465 258 465Q208 465 178 422T133 312H334Z" />
<glyph unicode="&#xec;" glyph-name="igrave" horiz-adv-x="228" d="M62 720L63 723H153L221 591H151L62 720ZM111 526H193L119 0H38L111 526Z" />
<glyph unicode="&#xed;" glyph-name="iacute" horiz-adv-x="228" d="M194 723H285L286 720L178 591H108L194 723ZM111 526H193L119 0H38L111 526Z" />
<glyph unicode="&#xee;" glyph-name="icircumflex" horiz-adv-x="228" d="M137 723H215L281 588H204L171 667L115 588H32L137 723ZM111 526H193L119 0H38L111 526Z" />
<glyph unicode="&#xef;" glyph-name="idieresis" horiz-adv-x="228" d="M62 723H149L136 628H49L62 723ZM212 723H299L286 628H199L212 723ZM111 526H193L119 0H38L111 526Z" />
<glyph unicode="&#xf0;" glyph-name="eth" horiz-adv-x="456" d="M35 -12T35 177Q35 299 65 380T144 499T248 538Q277 538 306 526V527Q295 555 262 610L143 600L151 660L223 666Q201 697 184 719L186 723H274Q305 685 312 674L431 685L422 625L350 618Q424 496
424 351Q424 230 396 149T317 28T202 -12Q35 -12 35 177ZM256 61T287 113T328 230T339 348Q339 465 258 465Q203 465 173 415T131 301T120 186Q120 122 139 92T201 61Q256 61 287 113Z" />
<glyph unicode="&#xf1;" glyph-name="ntilde" horiz-adv-x="456" d="M132 660T156 691T221 723Q236 723 250 719T281 707Q315 692 335 692Q366 692 374 723H432Q426 683 401 651T336 619Q321 619 307 623T276 635Q242 650 222 650Q191 650 183 619H125Q132 660
156 691ZM96 526H160V448Q177 482 211 510T300 538Q360 538 387 505T414 420Q414 400 391 231T358 0H276Q285 58 307 219T330 401Q330 465 270 465Q221 465 189 419T145 294L104 0H22L96 526Z" />
<glyph unicode="&#xf2;" glyph-name="ograve" horiz-adv-x="456" d="M174 720L176 723H266L333 591H264L174 720ZM33 -12T33 175Q33 260 52 342T122 481T256 538Q422 538 422 349Q422 264 403 183T333 45T199 -12Q33 -12 33 175ZM254 61T285 113T326 230T337 348Q337
465 256 465Q201 465 171 415T129 301T118 186Q118 122 137 92T199 61Q254 61 285 113Z" />
<glyph unicode="&#xf3;" glyph-name="oacute" horiz-adv-x="456" d="M307 723H397L398 720L291 591H221L307 723ZM33 -12T33 175Q33 260 52 342T122 481T256 538Q422 538 422 349Q422 264 403 183T333 45T199 -12Q33 -12 33 175ZM254 61T285 113T326 230T337 348Q337
465 256 465Q201 465 171 415T129 301T118 186Q118 122 137 92T199 61Q254 61 285 113Z" />
<glyph unicode="&#xf4;" glyph-name="ocircumflex" horiz-adv-x="456" d="M250 723H328L394 588H317L284 667L228 588H145L250 723ZM33 -12T33 175Q33 260 52 342T122 481T256 538Q422 538 422 349Q422 264 403 183T333 45T199 -12Q33 -12 33 175ZM254 61T285
113T326 230T337 348Q337 465 256 465Q201 465 171 415T129 301T118 186Q118 122 137 92T199 61Q254 61 285 113Z" />
<glyph unicode="&#xf5;" glyph-name="otilde" horiz-adv-x="456" d="M136 660T160 691T225 723Q240 723 254 719T285 707Q319 692 339 692Q370 692 377 723H436Q430 683 405 651T340 619Q324 619 310 623T279 635Q247 650 226 650Q195 650 187 619H129Q136 660
160 691ZM33 -12T33 175Q33 260 52 342T122 481T256 538Q422 538 422 349Q422 264 403 183T333 45T199 -12Q33 -12 33 175ZM254 61T285 113T326 230T337 348Q337 465 256 465Q201 465 171 415T129 301T118 186Q118 122 137 92T199 61Q254 61 285 113Z" />
<glyph unicode="&#xf6;" glyph-name="odieresis" horiz-adv-x="456" d="M175 723H262L249 628H162L175 723ZM325 723H412L399 628H312L325 723ZM33 -12T33 175Q33 260 52 342T122 481T256 538Q422 538 422 349Q422 264 403 183T333 45T199 -12Q33 -12 33 175ZM254
61T285 113T326 230T337 348Q337 465 256 465Q201 465 171 415T129 301T118 186Q118 122 137 92T199 61Q254 61 285 113Z" />
<glyph unicode="&#xf7;" glyph-name="divide" horiz-adv-x="549" d="M260 460H344L331 369H247L260 460ZM48 297H510L499 213H37L48 297ZM215 141H299L287 51H203L215 141Z" />
<glyph unicode="&#xf8;" glyph-name="oslash" horiz-adv-x="501" d="M95 37Q56 82 56 175Q56 260 75 342T145 481T279 538Q330 538 367 518L390 558H445L405 488Q445 440 445 349Q445 264 426 183T356 45T222 -12Q168 -12 133 7L111 -32H56L95 37ZM328 448Q308
465 279 465Q224 465 194 415T152 301T141 186Q141 155 146 127L328 448ZM277 61T308 113T349 230T360 348Q360 374 355 399L173 77Q190 61 222 61Q277 61 308 113Z" />
<glyph unicode="&#xf9;" glyph-name="ugrave" horiz-adv-x="456" d="M174 720L176 723H266L333 591H264L174 720ZM96 -12T69 21T42 106Q42 126 65 295T98 526H180Q171 468 149 307T126 125Q126 61 186 61Q235 61 267 107T311 232L352 526H434L360 0H296V77Q279
44 245 16T156 -12Q96 -12 69 21Z" />
<glyph unicode="&#xfa;" glyph-name="uacute" horiz-adv-x="456" d="M307 723H397L398 720L291 591H221L307 723ZM96 -12T69 21T42 106Q42 126 65 295T98 526H180Q171 468 149 307T126 125Q126 61 186 61Q235 61 267 107T311 232L352 526H434L360 0H296V77Q279
44 245 16T156 -12Q96 -12 69 21Z" />
<glyph unicode="&#xfb;" glyph-name="ucircumflex" horiz-adv-x="456" d="M250 723H328L394 588H317L284 667L228 588H145L250 723ZM96 -12T69 21T42 106Q42 126 65 295T98 526H180Q171 468 149 307T126 125Q126 61 186 61Q235 61 267 107T311 232L352 526H434L360
0H296V77Q279 44 245 16T156 -12Q96 -12 69 21Z" />
<glyph unicode="&#xfc;" glyph-name="udieresis" horiz-adv-x="456" d="M175 723H262L249 628H162L175 723ZM325 723H412L399 628H312L325 723ZM96 -12T69 21T42 106Q42 126 65 295T98 526H180Q171 468 149 307T126 125Q126 61 186 61Q235 61 267 107T311 232L352
526H434L360 0H296V77Q279 44 245 16T156 -12Q96 -12 69 21Z" />
<glyph unicode="&#xfd;" glyph-name="yacute" horiz-adv-x="410" d="M297 723H388L389 720L281 591H211L297 723ZM-2 -182T-22 -174L-14 -117H14Q94 -117 134 0L47 526H134L179 209L194 106H198L238 209L360 526H448L234 27Q191 -72 145 -127T35 -182Q-2 -182 -22 -174Z" />
<glyph unicode="&#xfe;" glyph-name="thorn" horiz-adv-x="456" d="M125 723H207L170 466Q218 538 290 538Q351 538 387 489T423 343Q423 228 394 148T318 28T220 -12Q147 -12 115 58L81 -182H-1L125 723ZM257 61T286 111T327 229T339 351Q339 465 265 465Q218
465 189 413T147 294T135 174Q135 61 208 61Q257 61 286 111Z" />
<glyph unicode="&#xff;" glyph-name="ydieresis" horiz-adv-x="410" d="M166 723H252L239 628H152L166 723ZM315 723H402L389 628H302L315 723ZM-2 -182T-22 -174L-14 -117H14Q94 -117 134 0L47 526H134L179 209L194 106H198L238 209L360 526H448L234 27Q191 -72
145 -127T35 -182Q-2 -182 -22 -174Z" />
<glyph unicode="&#x2013;" glyph-name="endash" horiz-adv-x="456" d="M5 308H460L449 233H-5L5 308Z" />
<glyph unicode="&#x2014;" glyph-name="emdash" horiz-adv-x="820" d="M5 308H825L814 233H-5L5 308Z" />
<glyph unicode="&#x2018;" glyph-name="quoteleft" horiz-adv-x="182" d="M99 553L163 686H218L167 562H200L185 454H85L99 553Z" />
<glyph unicode="&#x2019;" glyph-name="quoteright" horiz-adv-x="182" d="M95 578H62L77 686H177L163 587L99 454H44L95 578Z" />
<glyph unicode="&#x201a;" glyph-name="quotesinglbase" horiz-adv-x="182" d="M69 0H36L51 108H151L137 9L73 -124H18L69 0Z" />
<glyph unicode="&#x201c;" glyph-name="quotedblleft" horiz-adv-x="273" d="M68 553L132 686H187L136 562H169L154 454H54L68 553ZM203 553L267 686H322L271 562H304L289 454H189L203 553Z" />
<glyph unicode="&#x201d;" glyph-name="quotedblright" horiz-adv-x="273" d="M95 578H62L77 686H177L163 587L99 454H44L95 578ZM230 578H197L212 686H312L298 587L234 454H179L230 578Z" />
<glyph unicode="&#x201e;" glyph-name="quotedblbase" horiz-adv-x="273" d="M69 0H36L51 108H151L137 9L73 -124H18L69 0ZM204 0H171L186 108H286L272 9L208 -124H153L204 0Z" />
<glyph unicode="&#x2022;" glyph-name="bullet" horiz-adv-x="287" d="M98 232T66 265T34 344Q34 390 66 422T143 455Q189 455 221 423T253 344Q253 298 221 265T143 232Q98 232 66 265Z" />
<glyph unicode="&#x2039;" glyph-name="guilsinglleft" horiz-adv-x="273" d="M29 326L196 526H269L128 326L212 126H141L29 326Z" />
<glyph unicode="&#x203a;" glyph-name="guilsinglright" horiz-adv-x="273" d="M163 326L78 526H149L262 326L94 126H21L163 326Z" />
</font>
</defs>
</svg>
