<?xml version="1.0" standalone="no"?>
<!DOCTYPE svg PUBLIC "-//W3C//DTD SVG 1.1//EN" "http://www.w3.org/Graphics/SVG/1.1/DTD/svg11.dtd">
<svg xmlns="http://www.w3.org/2000/svg">
<defs >
<font id="Sarpanch" horiz-adv-x="656" ><font-face
    font-family="Sarpanch Medium"
    units-per-em="1000"
    panose-1="0 0 6 0 0 0 0 0 0 0"
    ascent="1050"
    descent="-350"
    alphabetic="0" />
<glyph unicode=" " glyph-name="space" horiz-adv-x="274" />
<glyph unicode="!" glyph-name="exclam" horiz-adv-x="295" d="M84 622H211L192 200H104L84 622ZM87 0V120H207V0H87Z" />
<glyph unicode="&quot;" glyph-name="quotedbl" horiz-adv-x="372" d="M59 622H156V397H59V622ZM216 622H313V397H216V622Z" />
<glyph unicode="#" glyph-name="numbersign" horiz-adv-x="949" d="M581 228L636 393H383L328 228H581ZM891 393H731L676 228H844V160H654L601 0H506L559 160H306L253 0H159L212 160H57V228H234L289 393H104V462H311L364 622H458L405 462H658L711 622H806L753
462H891V393Z" />
<glyph unicode="$" glyph-name="dollar" horiz-adv-x="653" d="M214 343H498Q577 343 577 264V79Q577 0 498 0H376V-91H270V0H154Q75 0 75 79V180H185V90Q185 70 190 65T216 59H438Q458 59 463 64T469 90V253Q469 272 464 278T438 284H152Q73 284 73 363V543Q73
622 152 622H270V714H376V622H495Q574 622 574 543V442H465V532Q465 552 460 557T434 563H214Q194 563 189 558T183 532V374Q183 354 188 349T214 343Z" />
<glyph unicode="%" glyph-name="percent" horiz-adv-x="1101" d="M1045 271V66Q1045 0 982 0H742Q679 0 679 66V271Q679 337 742 337H982Q1045 337 1045 271ZM959 79V258Q959 275 955 280T933 285H791Q774 285 770 280T765 258V79Q765 61 769 56T791 51H933Q950
51 954 56T959 79ZM735 622H830L362 0H268L735 622ZM421 555V351Q421 285 359 285H119Q56 285 56 351V555Q56 621 119 621H359Q421 621 421 555ZM336 363V542Q336 560 332 565T310 570H168Q151 570 147 565T142 542V363Q142 346 146 341T168 336H310Q327 336 331
341T336 363Z" />
<glyph unicode="&amp;" glyph-name="ampersand" horiz-adv-x="844" d="M212 59H556L327 248L224 210Q199 201 190 188T181 151V90Q181 70 186 65T212 59ZM520 446V532Q520 552 514 557T489 563H293Q274 563 268 558T262 532V453Q262 418 290 390Q302 378 312 370Q352
338 356 334L460 372Q493 384 506 400T520 446ZM154 0Q75 0 75 79V163Q75 202 91 223T151 259L264 300L254 309Q219 337 215 341T198 356T183 372T172 386T163 404Q156 430 156 442V543Q156 622 235 622H547Q626 622 626 543V452Q626 400 606 372T538 326L419 282L684
60Q699 64 699 90V228H786V83Q786 26 746 8L810 -45H682L628 0H154Z" />
<glyph unicode="&apos;" glyph-name="quotesingle" horiz-adv-x="219" d="M59 622H160V397H59V622Z" />
<glyph unicode="(" glyph-name="parenleft" horiz-adv-x="344" d="M93 147V351Q93 717 360 717H395V658H368Q202 649 202 363V135Q202 -151 368 -160H395V-219H360Q93 -219 93 147Z" />
<glyph unicode=")" glyph-name="parenright" horiz-adv-x="344" d="M251 351V147Q251 -219 -16 -219H-51V-160H-24Q142 -151 142 135V363Q142 649 -24 658H-51V717H-16Q251 717 251 351Z" />
<glyph unicode="*" glyph-name="asterisk" horiz-adv-x="477" d="M196 652H283V588Q283 553 274 519Q296 536 334 548L395 569L421 486L360 466Q327 455 294 455Q323 430 339 406L377 354L307 303L269 355Q251 382 237 415Q227 387 205 356L168 305L98 356L135
407Q154 434 182 456Q157 457 117 468L56 488L83 571L143 551Q171 542 205 522Q196 553 196 588V652Z" />
<glyph unicode="+" glyph-name="plus" d="M598 350V272H381V115H276V272H59V350H276V506H381V350H598Z" />
<glyph unicode="," glyph-name="comma" horiz-adv-x="229" d="M59 -138V125H179V58L99 -138H59Z" />
<glyph unicode="-" glyph-name="hyphen" horiz-adv-x="407" d="M59 242V301H347V242H59Z" />
<glyph unicode="." glyph-name="period" horiz-adv-x="239" d="M59 0V120H179V0H59Z" />
<glyph unicode="/" glyph-name="slash" horiz-adv-x="407" d="M391 699H494L80 -136H-22L391 699Z" />
<glyph unicode="0" glyph-name="zero" horiz-adv-x="684" d="M598 543V79Q598 0 519 0H164Q85 0 85 79V543Q85 622 164 622H519Q598 622 598 543ZM489 90V532Q489 552 484 557T458 563H227Q208 563 202 558T196 532V90Q196 70 202 65T227 59H458Q478 59 483 64T489 90Z" />
<glyph unicode="1" glyph-name="one" horiz-adv-x="350" d="M265 622V0H153V563H27V622H265Z" />
<glyph unicode="2" glyph-name="two" horiz-adv-x="627" d="M168 532V410H58V543Q58 622 137 622H488Q567 622 567 543V489Q567 431 556 400T506 333L206 59H571V0H58V58L396 366Q429 397 443 424T457 492V532Q457 552 452 557T426 563H199Q180 563 174 558T168 532Z" />
<glyph unicode="3" glyph-name="three" horiz-adv-x="663" d="M184 532V428H75V543Q75 622 154 622H508Q587 622 587 543V371Q587 319 542 316Q587 311 587 262V79Q587 0 508 0H154Q75 0 75 79V193H184V90Q184 70 190 65T215 59H446Q466 59 471 64T477 90V254Q477
274 472 279T446 285H273V345H446Q466 345 471 350T477 376V532Q477 552 472 557T446 563H215Q196 563 190 558T184 532Z" />
<glyph unicode="4" glyph-name="four" horiz-adv-x="662" d="M643 160V101H530V0H426V101H37V165L328 622H443L154 160H426V328H530V160H643Z" />
<glyph unicode="5" glyph-name="five" horiz-adv-x="642" d="M200 379H506Q585 379 585 300V79Q585 0 506 0H164Q85 0 85 79V198H195V90Q195 70 200 65T226 59H444Q464 59 469 64T475 90V289Q475 308 470 314T444 320H87V622H575V563H200V379Z" />
<glyph unicode="6" glyph-name="six" horiz-adv-x="659" d="M474 90V265Q474 284 468 290T443 296H196V90Q196 70 202 65T227 59H443Q462 59 468 64T474 90ZM196 355H504Q583 355 583 276V79Q583 0 504 0H164Q85 0 85 79V543Q85 622 164 622H500Q579 622 579 543V428H470V532Q470
552 464 557T439 563H227Q208 563 202 558T196 532V355Z" />
<glyph unicode="7" glyph-name="seven" horiz-adv-x="525" d="M507 622V565L235 0H119L390 563H37V622H507Z" />
<glyph unicode="8" glyph-name="eight" horiz-adv-x="668" d="M164 622H505Q584 622 584 543V367Q584 315 539 312Q584 307 584 258V79Q584 0 505 0H164Q85 0 85 79V258Q85 307 130 312Q85 315 85 367V543Q85 622 164 622ZM194 252V90Q194 70 200 65T225 59H444Q464
59 469 64T475 90V252Q475 272 470 277T444 283H225Q206 283 200 278T194 252ZM475 374V532Q475 552 470 557T444 563H225Q206 563 200 558T194 532V374Q194 354 200 349T225 343H444Q464 343 469 348T475 374Z" />
<glyph unicode="9" glyph-name="nine" horiz-adv-x="664" d="M222 318H468V532Q468 552 462 557T437 563H222Q202 563 197 558T191 532V349Q191 330 196 324T222 318ZM159 622H499Q578 622 578 543V79Q578 0 499 0H165Q86 0 86 79V186H196V90Q196 70 202 65T227
59H437Q456 59 462 64T468 90V259H159Q80 259 80 338V543Q80 622 159 622Z" />
<glyph unicode=":" glyph-name="colon" horiz-adv-x="239" d="M59 75V194H179V75H59ZM59 291V410H179V291H59Z" />
<glyph unicode=";" glyph-name="semicolon" horiz-adv-x="229" d="M59 365V485H179V365H59ZM59 -138V125H179V58L99 -138H59Z" />
<glyph unicode="&lt;" glyph-name="less" horiz-adv-x="672" d="M616 403L131 311L616 218V133L39 266V358L616 488V403Z" />
<glyph unicode="=" glyph-name="equal" horiz-adv-x="691" d="M76 362V442H615V362H76ZM76 179V259H615V179H76Z" />
<glyph unicode="&gt;" glyph-name="greater" horiz-adv-x="672" d="M541 311L56 403V488L633 358V266L56 133V218L541 311Z" />
<glyph unicode="?" glyph-name="question" horiz-adv-x="584" d="M212 0V120H332V0H212ZM108 622H451Q530 622 530 545V346Q530 268 451 268H323L318 200H228L220 329H393Q411 329 416 335T422 361V531Q422 550 417 557T393 564H166Q147 564 142 557T137 531V433H29V545Q29
622 108 622Z" />
<glyph unicode="@" glyph-name="at" horiz-adv-x="1113" d="M408 426H598Q640 426 650 395V426H746V118H913Q931 118 936 123T942 147V472Q942 491 937 496T913 502H212Q193 502 188 497T182 472V18Q182 0 187 -5T212 -11H878V-72H161Q86 -72 86 3V488Q86 563
161 563H962Q1037 563 1037 488V134Q1037 59 962 59H657V121Q650 78 598 78H408Q334 78 334 153V351Q334 426 408 426ZM430 338V166Q430 148 435 143T459 137H618Q635 137 642 144T650 169V335Q650 353 643 360T618 367H459Q440 367 435 362T430 338Z" />
<glyph unicode="A" glyph-name="A" horiz-adv-x="694" d="M207 182H485L346 551L207 182ZM554 0L508 123H185L139 0H31L271 622H422L663 0H554Z" />
<glyph unicode="B" glyph-name="B" horiz-adv-x="699" d="M95 622H535Q614 622 614 543V366Q614 313 568 310Q614 305 614 257V79Q614 0 535 0H95V622ZM507 88V251Q507 270 502 276T476 282H205V59H474Q494 59 500 64T507 88ZM507 372V532Q507 552 502 557T476
563H205V341H476Q496 341 501 346T507 372Z" />
<glyph unicode="C" glyph-name="C" horiz-adv-x="653" d="M595 410H485V532Q485 552 480 557T454 563H227Q208 563 202 558T196 532V90Q196 70 202 65T227 59H454Q474 59 479 64T485 90V212H595V79Q595 0 516 0H164Q85 0 85 79V543Q85 622 164 622H516Q595 622
595 543V410Z" />
<glyph unicode="D" glyph-name="D" horiz-adv-x="701" d="M505 90V532Q505 552 500 557T474 563H205V59H474Q494 59 499 64T505 90ZM95 622H537Q616 622 616 543V79Q616 0 537 0H95V622Z" />
<glyph unicode="E" glyph-name="E" horiz-adv-x="594" d="M207 59H548V0H95V622H534V563H207V348H493V289H207V59Z" />
<glyph unicode="F" glyph-name="F" horiz-adv-x="564" d="M535 563H207V324H496V265H207V0H95V622H535V563Z" />
<glyph unicode="G" glyph-name="G" horiz-adv-x="672" d="M596 431H486V532Q486 552 480 557T455 563H227Q208 563 202 558T196 532V90Q196 70 202 65T227 59H456Q476 59 481 64T487 90V261H332V320H596V79Q596 0 517 0H164Q85 0 85 79V543Q85 622 164 622H517Q596
622 596 543V431Z" />
<glyph unicode="H" glyph-name="H" horiz-adv-x="749" d="M544 622H655V0H544V282H205V0H95V622H205V341H544V622Z" />
<glyph unicode="I" glyph-name="I" horiz-adv-x="320" d="M104 622H216V0H104V622Z" />
<glyph unicode="J" glyph-name="J" horiz-adv-x="600" d="M37 222H148V90Q148 70 154 65T179 59H373Q392 59 398 64T404 90V622H515V79Q515 0 436 0H116Q37 0 37 79V222Z" />
<glyph unicode="K" glyph-name="K" horiz-adv-x="679" d="M517 622H646L353 318L658 0H526L226 318L517 622ZM95 622H202V0H95V622Z" />
<glyph unicode="L" glyph-name="L" horiz-adv-x="547" d="M204 59H520V0H95V622H204V59Z" />
<glyph unicode="M" glyph-name="M" horiz-adv-x="874" d="M191 0H95V622H213L433 218L661 622H780V0H683V497L478 135H389L191 497V0Z" />
<glyph unicode="N" glyph-name="N" horiz-adv-x="724" d="M529 622H630V0H525L196 503V0H95V622H204L529 123V622Z" />
<glyph unicode="O" glyph-name="O" horiz-adv-x="674" d="M589 543V79Q589 0 510 0H164Q85 0 85 79V543Q85 622 164 622H510Q589 622 589 543ZM480 90V532Q480 552 474 557T449 563H226Q206 563 201 558T195 532V90Q195 70 200 65T226 59H449Q468 59 474 64T480 90Z" />
<glyph unicode="P" glyph-name="P" horiz-adv-x="673" d="M508 293V532Q508 552 502 557T477 563H204V262H477Q496 262 502 268T508 293ZM95 622H538Q617 622 617 543V282Q617 203 538 203H204V0H95V622Z" />
<glyph unicode="Q" glyph-name="Q" horiz-adv-x="640" d="M177 532V90Q177 70 182 65T208 59H433Q452 59 458 64T464 90V532Q464 552 458 557T433 563H208Q188 563 183 558T177 532ZM147 0Q68 0 68 79V543Q68 622 147 622H493Q572 622 572 543V79Q572 0 493 0H456L573
-97H441L329 0H147Z" />
<glyph unicode="R" glyph-name="R" horiz-adv-x="693" d="M204 563V282H478Q498 282 503 288T509 313V532Q509 552 504 557T478 563H204ZM204 223V0H95V622H539Q618 622 618 543V302Q618 223 539 223H482L623 0H509L372 223H204Z" />
<glyph unicode="S" glyph-name="S" horiz-adv-x="654" d="M470 90V253Q470 272 464 278T439 284H154Q75 284 75 363V543Q75 622 154 622H497Q576 622 576 543V440H466V532Q466 552 460 557T435 563H216Q196 563 191 558T185 532V374Q185 354 190 349T216 343H500Q579
343 579 264V79Q579 0 500 0H156Q77 0 77 79V182H187V90Q187 70 192 65T218 59H439Q458 59 464 64T470 90Z" />
<glyph unicode="T" glyph-name="T" horiz-adv-x="570" d="M561 622V563H340V0H230V563H9V622H561Z" />
<glyph unicode="U" glyph-name="U" horiz-adv-x="690" d="M195 622V90Q195 70 200 65T226 59H465Q484 59 490 64T496 90V622H604V79Q604 0 525 0H164Q85 0 85 79V622H195Z" />
<glyph unicode="V" glyph-name="V" horiz-adv-x="695" d="M552 622H662L421 0H273L33 622H144L347 74L552 622Z" />
<glyph unicode="W" glyph-name="W" horiz-adv-x="1064" d="M922 622H1030L820 0H676L531 501L386 0H243L34 622H145L315 77L473 622H590L746 77L922 622Z" />
<glyph unicode="X" glyph-name="X" horiz-adv-x="676" d="M401 320L646 0H525L338 249L148 0H30L275 316L40 622H161L338 387L513 622H631L401 320Z" />
<glyph unicode="Y" glyph-name="Y" horiz-adv-x="645" d="M383 0H273V203L8 622H119L327 281L526 622H636L383 203V0Z" />
<glyph unicode="Z" glyph-name="Z" horiz-adv-x="632" d="M576 622V563L181 59H566V0H56V59L451 563H67V622H576Z" />
<glyph unicode="[" glyph-name="bracketleft" horiz-adv-x="328" d="M367 661H204V-161H367V-220H94V720H367V661Z" />
<glyph unicode="\" glyph-name="backslash" horiz-adv-x="399" d="M-87 699H16L430 -136H327L-87 699Z" />
<glyph unicode="]" glyph-name="bracketright" horiz-adv-x="328" d="M234 720V-220H-39V-161H124V661H-39V720H234Z" />
<glyph unicode="^" glyph-name="asciicircum" horiz-adv-x="648" d="M260 668H388L598 328H490L325 602L158 328H51L260 668Z" />
<glyph unicode="_" glyph-name="underscore" horiz-adv-x="589" d="M1 -59V0H587V-59H1Z" />
<glyph unicode="`" glyph-name="grave" horiz-adv-x="468" d="M294 651L434 506H332L168 651H294Z" />
<glyph unicode="a" glyph-name="a" horiz-adv-x="634" d="M214 59H408Q426 59 434 66T442 93V392Q442 411 434 418T408 426H214Q194 426 189 420T183 395V90Q183 70 188 65T214 59ZM442 485H549V0H442V31Q429 0 387 0H155Q76 0 76 79V406Q76 485 155 485H387Q429
485 442 454V485Z" />
<glyph unicode="b" glyph-name="b" horiz-adv-x="634" d="M452 90V395Q452 414 446 420T421 426H227Q209 426 201 419T193 392V359H192V117H193V93Q193 74 201 67T227 59H421Q440 59 446 64T452 90ZM248 485H479Q558 485 558 406V79Q558 0 479 0H248Q203 0 192
33V0H85V669H192V452Q203 485 248 485Z" />
<glyph unicode="c" glyph-name="c" horiz-adv-x="595" d="M538 324H432V395Q432 414 426 420T401 426H214Q194 426 189 420T183 395V90Q183 70 188 65T214 59H401Q420 59 426 64T432 90V161H538V79Q538 0 459 0H155Q76 0 76 79V406Q76 485 155 485H459Q538 485
538 406V324Z" />
<glyph unicode="d" glyph-name="d" horiz-adv-x="634" d="M214 59H408Q426 59 434 66T442 93V392Q442 411 434 418T408 426H214Q194 426 189 420T183 395V90Q183 70 188 65T214 59ZM442 669H549V0H442V31Q429 0 387 0H155Q76 0 76 79V406Q76 485 155 485H387Q429
485 442 454V669Z" />
<glyph unicode="e" glyph-name="e" horiz-adv-x="626" d="M183 278H454V395Q454 414 448 420T423 426H214Q194 426 189 420T183 395V278ZM155 485H480Q559 485 559 406V219H183V90Q183 70 188 65T214 59H421Q440 59 446 64T452 90V141H557V79Q557 0 478 0H155Q76
0 76 79V406Q76 485 155 485Z" />
<glyph unicode="f" glyph-name="f" horiz-adv-x="381" d="M371 607H263Q244 607 238 602T232 576V485H371V426H232V0H125V426H53V485H125V590Q125 669 204 669H371V607Z" />
<glyph unicode="g" glyph-name="g" horiz-adv-x="626" d="M214 59H408Q426 59 434 66T442 93V392Q442 411 434 418T408 426H214Q194 426 189 420T183 395V90Q183 70 188 65T214 59ZM549 17H550V-62Q550 -141 471 -141H95V-82H412Q432 -82 437 -76T443 -51V6H442V31Q429
0 387 0H155Q76 0 76 79V406Q76 485 155 485H387Q429 485 442 454V485H549V17Z" />
<glyph unicode="h" glyph-name="h" horiz-adv-x="635" d="M248 485H480Q559 485 559 406V0H453V395Q453 414 448 420T422 426H227Q209 426 201 419T193 392V361H192V0H85V669H192V452Q203 485 248 485Z" />
<glyph unicode="i" glyph-name="i" horiz-adv-x="295" d="M201 0H94V485H201V0ZM92 578V670H204V578H92Z" />
<glyph unicode="j" glyph-name="j" horiz-adv-x="287" d="M94 -51V485H202V-62Q202 -141 123 -141H-38V-82H63Q82 -82 88 -76T94 -51ZM92 578V670H204V578H92Z" />
<glyph unicode="k" glyph-name="k" horiz-adv-x="614" d="M85 0V669H192V0H85ZM593 485L344 245L593 0H462L218 245L463 485H593Z" />
<glyph unicode="l" glyph-name="l" horiz-adv-x="296" d="M201 0H95V669H201V0Z" />
<glyph unicode="m" glyph-name="m" horiz-adv-x="971" d="M607 485H816Q895 485 895 406V0H789V395Q789 414 784 420T758 426H585Q550 426 550 390V0H443V395Q443 414 438 420T412 426H227Q208 426 200 419T192 392V0H85V485H192V452Q203 485 247 485H471Q529
485 544 444Q556 485 607 485Z" />
<glyph unicode="n" glyph-name="n" horiz-adv-x="634" d="M248 485H479Q558 485 558 406V0H452V395Q452 414 446 420T421 426H227Q209 426 201 419T193 392V360H192V0H85V485H192V452Q203 485 248 485Z" />
<glyph unicode="o" glyph-name="o" horiz-adv-x="628" d="M446 90V395Q446 414 440 420T415 426H213Q194 426 188 420T182 395V90Q182 70 188 65T213 59H415Q434 59 440 64T446 90ZM155 485H473Q552 485 552 406V79Q552 0 473 0H155Q76 0 76 79V406Q76 485 155 485Z" />
<glyph unicode="p" glyph-name="p" horiz-adv-x="643" d="M460 90V395Q460 414 454 420T429 426H227Q208 426 200 419T192 392V93Q192 74 200 67T227 59H429Q448 59 454 64T460 90ZM247 485H488Q567 485 567 406V79Q567 0 488 0H247Q203 0 192 33V-141H85V485H191V449Q203
485 247 485Z" />
<glyph unicode="q" glyph-name="q" horiz-adv-x="637" d="M244 59H447Q465 59 473 66T481 93V392Q481 411 473 418T447 426H244Q224 426 219 420T213 395V90Q213 70 218 65T244 59ZM482 485H588V-141H481V31Q468 0 426 0H185Q106 0 106 79V406Q106 485 185 485H426Q471
485 482 452V485Z" />
<glyph unicode="r" glyph-name="r" horiz-adv-x="382" d="M277 485H372V423H259Q192 423 192 348V0H85V485H192V423Q209 485 277 485Z" />
<glyph unicode="s" glyph-name="s" horiz-adv-x="584" d="M412 89V181Q412 200 406 206T381 212H153Q74 212 74 291V406Q74 485 153 485H436Q515 485 515 406V350H411V396Q411 416 406 421T380 427H211Q192 427 186 422T180 396V302Q180 282 186 277T211 271H439Q518
271 518 192V79Q518 0 439 0H155Q76 0 76 79V135H181V89Q181 70 186 64T212 58H381Q400 58 406 64T412 89Z" />
<glyph unicode="t" glyph-name="t" horiz-adv-x="375" d="M337 426H220V94Q220 74 226 69T251 63H336V0H192Q113 0 113 79V426H35V485H113V575H220V485H337V426Z" />
<glyph unicode="u" glyph-name="u" horiz-adv-x="634" d="M442 485H549V0H442V31Q429 0 387 0H155Q76 0 76 79V485H183V90Q183 70 188 65T214 59H408Q426 59 434 66T442 93V485Z" />
<glyph unicode="v" glyph-name="v" horiz-adv-x="601" d="M26 485H132L299 70L469 485H574L374 0H226L26 485Z" />
<glyph unicode="w" glyph-name="w" horiz-adv-x="893" d="M765 485H867L701 0H561L446 402L334 0H194L26 485H128L266 70L388 485H507L626 70L765 485Z" />
<glyph unicode="x" glyph-name="x" horiz-adv-x="607" d="M366 249L579 0H456L299 183L134 0H30L247 239L38 485H163L315 303L472 485H577L366 249Z" />
<glyph unicode="y" glyph-name="y" horiz-adv-x="588" d="M219 -141H117V-82H183Q239 -82 258 -43L278 0H240L31 485H141L309 72L474 485H582L351 -47Q330 -96 303 -118T219 -141Z" />
<glyph unicode="z" glyph-name="z" horiz-adv-x="516" d="M462 59V0H55V59L346 426H68V485H460V426L168 59H462Z" />
<glyph unicode="{" glyph-name="braceleft" horiz-adv-x="409" d="M287 608V369Q287 256 207 247Q246 243 266 211T287 126V-109Q287 -137 296 -149T329 -162H445V-221H296Q233 -221 206 -195T178 -108V111Q178 168 157 193T89 219H72V278H89Q136 278 157 303T178
386V606Q178 666 205 693T296 720H445V661H329Q305 661 296 649T287 608Z" />
<glyph unicode="|" glyph-name="bar" horiz-adv-x="293" d="M95 739H198V-118H95V739Z" />
<glyph unicode="}" glyph-name="braceright" horiz-adv-x="411" d="M124 369V608Q124 636 115 648T82 661H-34V720H115Q178 720 205 693T233 606V386Q233 329 254 304T323 278H339V219H323Q276 219 255 193T233 111V-108Q233 -168 206 -194T115 -221H-34V-162H82Q106
-162 115 -150T124 -109V126Q124 179 144 211T205 247Q124 256 124 369Z" />
<glyph unicode="~" glyph-name="asciitilde" horiz-adv-x="783" d="M353 238T312 254T237 270T190 261T178 229V169H75V255Q75 332 152 332H263Q334 332 406 281Q432 262 471 246T545 230T593 240T605 273V332H708V246Q708 168 630 168H522Q458 168 382 219Q353
238 312 254Z" />
<glyph unicode="&#xa1;" glyph-name="exclamdown" horiz-adv-x="281" d="M97 284H185L204 -137H77L97 284ZM80 485H200V364H80V485Z" />
<glyph unicode="&#xa2;" glyph-name="cent" horiz-adv-x="593" d="M537 324H431V395Q431 414 426 420T400 426H213Q194 426 188 420T182 395V90Q182 70 188 65T213 59H400Q420 59 425 64T431 90V161H537V79Q537 0 458 0H356V-77H251V0H154Q75 0 75 79V406Q75 485
154 485H251V561H356V485H458Q537 485 537 406V324Z" />
<glyph unicode="&#xa3;" glyph-name="sterling" horiz-adv-x="696" d="M641 73V0H73V66Q151 69 151 174V272H64V331H151V543Q151 622 230 622H549Q628 622 628 543V434H519V532Q519 552 514 557T488 563H292Q272 563 267 558T261 532V331H543V272H261V181Q261
132 255 108T230 73H641Z" />
<glyph unicode="&#xa4;" glyph-name="currency" horiz-adv-x="728" d="M255 169H480Q511 169 522 178T533 217V375Q533 406 522 416T480 427H255Q223 427 213 417T202 375V217Q202 186 212 178T255 169ZM624 387V210Q624 182 617 164L663 118L600 55L542 112Q524
110 512 110H221Q202 110 187 113L128 55L65 118L116 168Q110 186 110 210V387Q110 411 116 429L65 479L128 543L188 484Q208 486 221 486H512Q523 486 541 484L600 543L663 479L617 433Q624 415 624 387Z" />
<glyph unicode="&#xa5;" glyph-name="yen" horiz-adv-x="715" d="M622 328V269H458L418 203V200H622V141H418V0H308V141H102V200H308V203L266 269H102V328H229L43 622H155L362 281L561 622H672L494 328H622Z" />
<glyph unicode="&#xa6;" glyph-name="brokenbar" horiz-adv-x="275" d="M87 249H189V-118H87V249ZM189 372H87V739H189V372Z" />
<glyph unicode="&#xa7;" glyph-name="section" horiz-adv-x="665" d="M539 150V39Q539 -40 460 -40H183Q104 -40 104 39V93H213V50Q213 30 218 25T244 19H401Q420 19 425 25T431 50V141Q431 160 426 166T401 172H185Q106 172 106 251V338Q106 411 157 423Q137
443 137 471V585Q137 664 216 664H494Q573 664 573 585V531H465V574Q465 594 460 599T434 605H277Q258 605 252 600T246 574V482Q246 462 252 457T277 451H493Q572 451 572 372V283Q572 211 520 200Q539 179 539 150ZM432 392H245Q226 392 220 386T214 361V262Q214
242 220 237T245 231H432Q452 231 457 236T463 262V361Q463 380 458 386T432 392Z" />
<glyph unicode="&#xa8;" glyph-name="dieresis" horiz-adv-x="614" d="M371 629H510V539H371V629ZM103 629H242V539H103V629Z" />
<glyph unicode="&#xa9;" glyph-name="copyright" horiz-adv-x="1050" d="M966 341V274Q966 133 910 67T725 0H325Q196 0 140 66T84 274V341Q84 483 140 552T325 622H725Q853 622 909 553T966 341ZM336 60H714Q799 60 834 114T870 270V345Q870 564 714 564H336Q180
564 180 345V270Q180 168 215 114T336 60ZM630 240V269H720V229Q720 150 641 150H410Q331 150 331 229V404Q331 483 410 483H641Q720 483 720 404V364H630V393Q630 412 624 418T599 424H453Q434 424 428 418T422 393V240Q422 220 428 215T453 209H599Q618 209 624
214T630 240Z" />
<glyph unicode="&#xaa;" glyph-name="ordfeminine" horiz-adv-x="433" d="M154 323H267Q293 323 293 346V556Q293 580 267 580H154Q140 580 136 576T131 558V345Q131 331 135 327T154 323ZM293 622H368V280H293V305Q284 280 253 280H113Q57 280 57 336V566Q57
622 113 622H253Q284 622 293 597V622Z" />
<glyph unicode="&#xab;" glyph-name="guillemotleft" horiz-adv-x="560" d="M228 103L101 257L228 411H342L214 257L342 103H228ZM360 103L233 257L360 411H475L347 257L475 103H360Z" />
<glyph unicode="&#xac;" glyph-name="logicalnot" horiz-adv-x="752" d="M689 397V159H614V307H61V397H689Z" />
<glyph unicode="&#xad;" glyph-name="uni00AD" horiz-adv-x="338" d="M55 258V317H283V258H55Z" />
<glyph unicode="&#xae;" glyph-name="registered" horiz-adv-x="620" d="M562 529V492Q562 413 530 376T425 338H195Q122 338 90 375T58 492V529Q58 608 90 647T195 686H425Q498 686 530 647T562 529ZM202 380H419Q500 380 500 489V532Q500 647 419 647H202Q120
647 120 532V489Q120 380 202 380ZM215 611H364Q398 611 398 579V521Q398 489 368 489H359L407 417H350L304 487H268V417H215V611ZM345 534V566Q345 577 334 577H268V524H334Q345 524 345 534Z" />
<glyph unicode="&#xaf;" glyph-name="overscore" horiz-adv-x="614" d="M120 550V608H494V550H120Z" />
<glyph unicode="&#xb0;" glyph-name="degree" horiz-adv-x="565" d="M506 545V408Q506 331 428 331H137Q60 331 60 408V545Q60 622 137 622H428Q506 622 506 545ZM406 419V535Q406 554 400 560T375 566H192Q172 566 167 560T161 535V419Q161 400 166 394T192 388H375Q394
388 400 394T406 419Z" />
<glyph unicode="&#xb1;" glyph-name="plusminus" horiz-adv-x="690" d="M74 120V189H613V120H74ZM394 394H613V321H394V229H293V321H74V394H293V506H394V394Z" />
<glyph unicode="&#xb2;" glyph-name="twosuperior" horiz-adv-x="382" d="M132 563V510H63V579Q63 622 106 622H293Q336 622 336 579V539Q336 474 294 439L153 325H333V280H65V324L233 467Q265 494 265 541V563Q265 574 262 577T248 580H149Q138 580 135 577T132 563Z" />
<glyph unicode="&#xb3;" glyph-name="threesuperior" horiz-adv-x="408" d="M135 563V515H65V579Q65 622 108 622H302Q346 622 346 579V484Q346 456 321 454Q346 451 346 424V323Q346 280 302 280H108Q65 280 65 323V387H135V340Q135 329 138 326T152 322H257Q268
322 271 325T274 340V415Q274 426 271 429T257 432H160V475H257Q268 475 271 478T274 492V563Q274 574 271 577T257 580H152Q142 580 139 577T135 563Z" />
<glyph unicode="&#xb4;" glyph-name="acute" horiz-adv-x="614" d="M169 506L309 651H435L271 506H169Z" />
<glyph unicode="&#xb5;" glyph-name="uni00B5" horiz-adv-x="644" d="M452 485H559V0H452V33Q441 0 396 0H192V-141H85V485H192V90Q192 70 198 65T223 59H417Q436 59 444 66T452 93V485Z" />
<glyph unicode="&#xb6;" glyph-name="paragraph" horiz-adv-x="743" d="M427 622V-141H328V224H153Q74 224 74 303V543Q74 622 153 622H427ZM551 622H650V-141H551V622Z" />
<glyph unicode="&#xb7;" glyph-name="middot" horiz-adv-x="273" d="M78 254V375H197V254H78Z" />
<glyph unicode="&#xb8;" glyph-name="cedilla" horiz-adv-x="614" d="M329 -128V-49H430V-135Q430 -222 343 -222H180V-164H295Q314 -164 321 -156T329 -128Z" />
<glyph unicode="&#xb9;" glyph-name="onesuperior" horiz-adv-x="250" d="M183 622V280H108V580H27V622H183Z" />
<glyph unicode="&#xba;" glyph-name="ordmasculine" horiz-adv-x="435" d="M367 569V333Q367 280 314 280H119Q65 280 65 333V569Q65 622 119 622H314Q367 622 367 569ZM294 343V560Q294 573 290 576T273 580H159Q146 580 142 577T138 560V343Q138 330 142 326T159
322H273Q286 322 290 326T294 343Z" />
<glyph unicode="&#xbb;" glyph-name="guillemotright" horiz-adv-x="553" d="M457 257L330 103H216L344 257L216 411H330L457 257ZM325 257L198 103H83L211 257L83 411H198L325 257Z" />
<glyph unicode="&#xbf;" glyph-name="questiondown" horiz-adv-x="621" d="M401 484V364H281V484H401ZM477 51H585V-61Q585 -138 506 -138H163Q84 -138 84 -61V138Q84 216 163 216H291L296 284H385L394 155H220Q202 155 197 149T192 123V-47Q192 -66 197 -73T220
-80H448Q467 -80 472 -73T477 -47V51Z" />
<glyph unicode="&#xc0;" glyph-name="Agrave" horiz-adv-x="693" d="M383 670H282L118 814H244L383 670ZM207 182H485L346 551L207 182ZM554 0L508 123H185L139 0H30L271 622H421L663 0H554Z" />
<glyph unicode="&#xc1;" glyph-name="Aacute" horiz-adv-x="693" d="M571 815L407 670H305L445 815H571ZM207 182H485L346 551L207 182ZM554 0L508 123H185L139 0H31L271 622H422L663 0H554Z" />
<glyph unicode="&#xc2;" glyph-name="Acircumflex" horiz-adv-x="693" d="M346 768L237 669H119L288 815H404L573 669H456L346 768ZM207 182H485L346 551L207 182ZM554 0L508 123H185L139 0H31L271 622H422L663 0H554Z" />
<glyph unicode="&#xc3;" glyph-name="Atilde" horiz-adv-x="693" d="M230 725V669H140V729Q140 807 213 807H237Q270 807 357 768T459 728T479 733T483 752V807H572V747Q572 709 556 689T500 669H473Q439 669 354 708T248 748Q230 748 230 725ZM207 182H485L346
551L207 182ZM554 0L508 123H185L139 0H31L271 622H422L663 0H554Z" />
<glyph unicode="&#xc4;" glyph-name="Adieresis" horiz-adv-x="693" d="M551 760V669H413V760H551ZM283 760V669H145V760H283ZM207 182H485L346 551L207 182ZM554 0L508 123H185L139 0H30L271 622H421L663 0H554Z" />
<glyph unicode="&#xc5;" glyph-name="Aring" horiz-adv-x="693" d="M258 766V746Q258 728 263 723T287 718H406Q425 718 430 723T435 746V766Q435 784 430 789T406 794H287Q268 794 263 789T258 766ZM440 669H253Q185 669 185 737V775Q185 843 253 843H440Q508
843 508 775V737Q508 669 440 669ZM207 182H485L346 551L207 182ZM554 0L508 123H185L139 0H31L271 622H422L663 0H554Z" />
<glyph unicode="&#xc6;" glyph-name="AE" horiz-adv-x="1026" d="M528 201V545L286 201H528ZM639 59H970V0H528V142H245L145 0H27L470 622H957V563H639V348H925V289H639V59Z" />
<glyph unicode="&#xc7;" glyph-name="Ccedilla" horiz-adv-x="651" d="M281 -128V-49H382V-135Q382 -222 295 -222H132V-164H247Q266 -164 273 -156T281 -128ZM594 410H484V532Q484 552 478 557T453 563H226Q206 563 201 558T195 532V90Q195 70 200 65T226 59H453Q472
59 478 64T484 90V212H594V79Q594 0 515 0H163Q84 0 84 79V543Q84 622 163 622H515Q594 622 594 543V410Z" />
<glyph unicode="&#xc8;" glyph-name="Egrave" horiz-adv-x="593" d="M370 669H268L104 814H230L370 669ZM206 59H547V0H94V622H533V563H206V348H492V289H206V59Z" />
<glyph unicode="&#xc9;" glyph-name="Eacute" horiz-adv-x="593" d="M542 814L378 669H276L416 814H542ZM206 59H547V0H94V622H533V563H206V348H492V289H206V59Z" />
<glyph unicode="&#xca;" glyph-name="Ecircumflex" horiz-adv-x="593" d="M320 768L211 669H93L262 815H378L547 669H430L320 768ZM206 289V59H547V0H94V622H533V563H206V348H492V289H206Z" />
<glyph unicode="&#xcb;" glyph-name="Edieresis" horiz-adv-x="603" d="M517 760V669H379V760H517ZM249 760V669H111V760H249ZM207 59H547V0H94V622H533V563H207V348H492V289H207V59Z" />
<glyph unicode="&#xcc;" glyph-name="Igrave" horiz-adv-x="315" d="M103 622H215V0H103V622ZM59 814L199 669H97L-67 814H59Z" />
<glyph unicode="&#xcd;" glyph-name="Iacute" horiz-adv-x="315" d="M103 622H215V0H103V622ZM114 669L254 814H380L216 669H114Z" />
<glyph unicode="&#xce;" glyph-name="Icircumflex" horiz-adv-x="315" d="M103 622H215V0H103V622ZM-63 670L106 816H222L391 670H274L164 769L55 670H-63Z" />
<glyph unicode="&#xcf;" glyph-name="Idieresis" horiz-adv-x="315" d="M103 622H214V0H103V622ZM-45 760H94V669H-45V760ZM223 760H362V669H223V760Z" />
<glyph unicode="&#xd0;" glyph-name="Eth" horiz-adv-x="717" d="M522 90V532Q522 552 516 557T491 563H224V344H411V283H224V59H491Q510 59 516 64T522 90ZM113 622H554Q633 622 633 543V79Q633 0 554 0H113V283H58V344H113V622Z" />
<glyph unicode="&#xd1;" glyph-name="Ntilde" horiz-adv-x="723" d="M528 622H629V0H524L195 503V0H94V622H203L528 123V622ZM255 748Q237 748 237 725V669H147V729Q147 807 220 807H244Q277 807 364 768T466 728T486 733T490 752V807H579V747Q579 709 563 689T507
669H480Q446 669 361 708T255 748Z" />
<glyph unicode="&#xd2;" glyph-name="Ograve" horiz-adv-x="674" d="M589 543V79Q589 0 510 0H164Q85 0 85 79V543Q85 622 164 622H510Q589 622 589 543ZM480 90V532Q480 552 474 557T449 563H226Q206 563 201 558T195 532V90Q195 70 200 65T226 59H449Q468 59
474 64T480 90ZM252 814L392 669H290L126 814H252Z" />
<glyph unicode="&#xd3;" glyph-name="Oacute" horiz-adv-x="674" d="M296 669L436 814H562L398 669H296ZM589 543V79Q589 0 510 0H164Q85 0 85 79V543Q85 622 164 622H510Q589 622 589 543ZM480 90V532Q480 552 474 557T449 563H226Q206 563 201 558T195 532V90Q195
70 200 65T226 59H449Q468 59 474 64T480 90Z" />
<glyph unicode="&#xd4;" glyph-name="Ocircumflex" horiz-adv-x="674" d="M110 669L279 815H395L564 669H447L337 768L228 669H110ZM589 543V79Q589 0 510 0H164Q85 0 85 79V543Q85 622 164 622H510Q589 622 589 543ZM480 90V532Q480 552 474 557T449 563H226Q206
563 201 558T195 532V90Q195 70 200 65T226 59H449Q468 59 474 64T480 90Z" />
<glyph unicode="&#xd5;" glyph-name="Otilde" horiz-adv-x="674" d="M589 543V79Q589 0 510 0H164Q85 0 85 79V543Q85 622 164 622H510Q589 622 589 543ZM480 90V532Q480 552 474 557T449 563H226Q206 563 201 558T195 532V90Q195 70 200 65T226 59H449Q468 59
474 64T480 90ZM226 748Q208 748 208 725V669H118V729Q118 807 191 807H215Q248 807 335 768T437 728T457 733T461 752V807H550V747Q550 709 534 689T478 669H451Q417 669 332 708T226 748Z" />
<glyph unicode="&#xd6;" glyph-name="Odieresis" horiz-adv-x="670" d="M589 543V79Q589 0 510 0H164Q85 0 85 79V543Q85 622 164 622H510Q589 622 589 543ZM480 90V532Q480 552 474 557T449 563H225Q206 563 200 558T194 532V90Q194 70 200 65T225 59H449Q468
59 474 64T480 90ZM403 760H542V669H403V760ZM135 760H274V669H135V760Z" />
<glyph unicode="&#xd7;" glyph-name="multiply" horiz-adv-x="660" d="M583 439L406 316L578 195L525 131L333 265L140 131L88 196L260 316L83 439L136 504L332 367L529 504L583 439Z" />
<glyph unicode="&#xd8;" glyph-name="Oslash" horiz-adv-x="706" d="M505 87V472L213 58Q217 56 230 56H474Q494 56 499 62T505 87ZM199 535V146L495 563Q488 566 474 566H230Q210 566 205 560T199 535ZM612 543V79Q612 0 533 0H172L155 -24H79L111 22Q94 42 94
79V543Q94 622 173 622H536L553 646H628L595 599Q612 579 612 543Z" />
<glyph unicode="&#xd9;" glyph-name="Ugrave" horiz-adv-x="690" d="M195 622V90Q195 70 200 65T226 59H465Q484 59 490 64T496 90V622H604V79Q604 0 525 0H164Q85 0 85 79V622H195ZM268 814L408 669H306L142 814H268Z" />
<glyph unicode="&#xda;" glyph-name="Uacute" horiz-adv-x="690" d="M299 669L439 814H565L401 669H299ZM195 622V90Q195 70 200 65T226 59H465Q484 59 490 64T496 90V622H604V79Q604 0 525 0H164Q85 0 85 79V622H195Z" />
<glyph unicode="&#xdb;" glyph-name="Ucircumflex" horiz-adv-x="690" d="M116 669L285 815H401L570 669H453L343 768L234 669H116ZM195 622V90Q195 70 200 65T226 59H465Q484 59 490 64T496 90V622H604V79Q604 0 525 0H164Q85 0 85 79V622H195Z" />
<glyph unicode="&#xdc;" glyph-name="Udieresis" horiz-adv-x="690" d="M496 622H605V79Q605 0 526 0H164Q85 0 85 79V622H195V90Q195 70 200 65T226 59H465Q484 59 490 64T496 90V622ZM137 760H276V669H137V760ZM405 760H544V669H405V760Z" />
<glyph unicode="&#xdd;" glyph-name="Yacute" horiz-adv-x="644" d="M558 814L394 669H292L432 814H558ZM383 0H273V203L8 622H119L327 281L526 622H636L383 203V0Z" />
<glyph unicode="&#xde;" glyph-name="Thorn" horiz-adv-x="673" d="M499 192V430Q499 450 494 455T468 461H205V161H468Q488 161 493 166T499 192ZM205 520H528Q607 520 607 441V181Q607 102 528 102H205V0H95V622H205V520Z" />
<glyph unicode="&#xdf;" glyph-name="germandbls" horiz-adv-x="830" d="M323 152H428V89Q428 70 434 64T459 58H639Q658 58 664 64T670 89V201Q670 220 664 226T639 232H401Q322 232 322 311V386Q322 465 397 465H594Q617 465 623 470T630 492V529Q630 549 624
555T599 561H235Q216 561 210 555T203 529V0H95V543Q95 622 174 622H659Q738 622 738 543V475Q738 407 668 407H456Q436 407 431 402T425 376V321Q425 302 430 296T456 290H696Q775 290 775 211V79Q775 0 696 0H402Q323 0 323 79V152Z" />
<glyph unicode="&#xe0;" glyph-name="agrave" horiz-adv-x="633" d="M376 532H274L110 677H236L376 532ZM213 59H407Q425 59 433 66T441 93V392Q441 411 433 418T407 426H213Q194 426 188 420T182 395V90Q182 70 188 65T213 59ZM441 485H548V0H441V31Q428 0 386
0H154Q75 0 75 79V406Q75 485 154 485H386Q428 485 441 454V485Z" />
<glyph unicode="&#xe1;" glyph-name="aacute" horiz-adv-x="633" d="M533 677L369 532H267L407 677H533ZM213 59H407Q425 59 433 66T441 93V392Q441 411 433 418T407 426H213Q194 426 188 420T182 395V90Q182 70 188 65T213 59ZM441 485H548V0H441V31Q428 0 386
0H154Q75 0 75 79V406Q75 485 154 485H386Q428 485 441 454V485Z" />
<glyph unicode="&#xe2;" glyph-name="acircumflex" horiz-adv-x="633" d="M314 631L205 532H87L256 678H372L541 532H424L314 631ZM213 59H407Q425 59 433 66T441 93V392Q441 411 433 418T407 426H213Q194 426 188 420T182 395V90Q182 70 188 65T213 59ZM441 485H548V0H441V31Q428
0 386 0H154Q75 0 75 79V406Q75 485 154 485H386Q428 485 441 454V485Z" />
<glyph unicode="&#xe3;" glyph-name="atilde" horiz-adv-x="633" d="M188 588V532H98V592Q98 670 171 670H195Q228 670 315 631T417 591T437 596T441 615V670H530V610Q530 572 514 552T458 532H431Q397 532 312 571T206 611Q188 611 188 588ZM213 59H407Q425 59
433 66T441 93V392Q441 411 433 418T407 426H213Q194 426 188 420T182 395V90Q182 70 188 65T213 59ZM441 485H548V0H441V31Q428 0 386 0H154Q75 0 75 79V406Q75 485 154 485H386Q428 485 441 454V485Z" />
<glyph unicode="&#xe4;" glyph-name="adieresis" horiz-adv-x="633" d="M521 622V532H382V622H521ZM253 622V532H114V622H253ZM213 59H407Q425 59 433 66T441 93V392Q441 411 433 418T407 426H213Q194 426 188 420T182 395V90Q182 70 188 65T213 59ZM441 485H548V0H441V31Q428
0 386 0H154Q75 0 75 79V406Q75 485 154 485H386Q428 485 441 454V485Z" />
<glyph unicode="&#xe5;" glyph-name="aring" horiz-adv-x="633" d="M224 629V609Q224 592 229 587T253 581H372Q391 581 396 586T401 609V629Q401 647 396 652T372 657H253Q234 657 229 652T224 629ZM406 532H219Q151 532 151 600V638Q151 706 219 706H406Q474
706 474 638V600Q474 532 406 532ZM213 59H407Q425 59 433 66T441 93V392Q441 411 433 418T407 426H213Q194 426 188 420T182 395V90Q182 70 188 65T213 59ZM441 485H548V0H441V31Q428 0 386 0H154Q75 0 75 79V406Q75 485 154 485H386Q428 485 441 454V485Z" />
<glyph unicode="&#xe6;" glyph-name="ae" horiz-adv-x="974" d="M214 59H391Q409 59 416 65T424 89V216L183 162V90Q183 70 188 65T214 59ZM760 426H561Q542 426 536 420T530 395V278H791V395Q791 414 786 420T760 426ZM887 219H530V90Q530 70 536 65T561 59H757Q776
59 782 64T788 90V140H893V79Q893 0 814 0H544Q487 0 476 38Q465 0 402 0H155Q76 0 76 79V200L424 279V396Q424 413 417 419T391 426H214Q194 426 189 420T183 395V309H76V406Q76 485 155 485H402Q465 485 476 447Q487 485 544 485H817Q896 485 896 406V220H887V219Z"
/>
<glyph unicode="&#xe7;" glyph-name="ccedilla" horiz-adv-x="593" d="M253 -128V-49H354V-135Q354 -222 267 -222H104V-164H219Q238 -164 245 -156T253 -128ZM537 324H431V395Q431 414 426 420T400 426H213Q194 426 188 420T182 395V90Q182 70 188 65T213 59H400Q420
59 425 64T431 90V161H537V79Q537 0 458 0H154Q75 0 75 79V406Q75 485 154 485H458Q537 485 537 406V324Z" />
<glyph unicode="&#xe8;" glyph-name="egrave" horiz-adv-x="623" d="M380 532H278L114 677H240L380 532ZM182 278H453V395Q453 414 448 420T422 426H213Q194 426 188 420T182 395V278ZM154 485H479Q558 485 558 406V219H182V90Q182 70 188 65T213 59H420Q440 59
445 64T451 90V141H556V79Q556 0 477 0H154Q75 0 75 79V406Q75 485 154 485Z" />
<glyph unicode="&#xe9;" glyph-name="eacute" horiz-adv-x="623" d="M542 677L378 532H276L416 677H542ZM182 278H453V395Q453 414 448 420T422 426H213Q194 426 188 420T182 395V278ZM154 485H479Q558 485 558 406V219H182V90Q182 70 188 65T213 59H420Q440 59
445 64T451 90V141H556V79Q556 0 477 0H154Q75 0 75 79V406Q75 485 154 485Z" />
<glyph unicode="&#xea;" glyph-name="ecircumflex" horiz-adv-x="623" d="M319 631L210 532H92L261 678H377L546 532H429L319 631ZM182 278H453V395Q453 414 448 420T422 426H213Q194 426 188 420T182 395V278ZM154 485H479Q558 485 558 406V219H182V90Q182 70
188 65T213 59H420Q440 59 445 64T451 90V141H556V79Q556 0 477 0H154Q75 0 75 79V406Q75 485 154 485Z" />
<glyph unicode="&#xeb;" glyph-name="edieresis" horiz-adv-x="623" d="M251 623V532H112V623H251ZM519 623V532H380V623H519ZM154 485H479Q558 485 558 406V219H182V90Q182 70 188 65T213 59H420Q440 59 445 64T451 90V141H555V79Q555 0 476 0H154Q75 0 75 79V406Q75
485 154 485ZM182 278H453V395Q453 414 448 420T422 426H213Q194 426 188 420T182 395V278Z" />
<glyph unicode="&#xec;" glyph-name="igrave" horiz-adv-x="295" d="M201 0H94V485H201V0ZM52 677L192 532H90L-74 677H52Z" />
<glyph unicode="&#xed;" glyph-name="iacute" horiz-adv-x="295" d="M201 0H94V485H201V0ZM102 532L242 677H368L204 532H102Z" />
<glyph unicode="&#xee;" glyph-name="icircumflex" horiz-adv-x="295" d="M201 0H94V485H201V0ZM-78 532L91 678H207L376 532H259L149 631L40 532H-78Z" />
<glyph unicode="&#xef;" glyph-name="idieresis" horiz-adv-x="295" d="M201 0H94V485H201V0ZM216 623H355V533H216V623ZM-52 623H87V533H-52V623Z" />
<glyph unicode="&#xf0;" glyph-name="eth" horiz-adv-x="425" d="M485 90V319H232Q212 319 207 314T201 288V90Q201 70 206 65T232 59H454Q474 59 479 64T485 90ZM592 315V79Q592 0 513 0H173Q94 0 94 79V299Q94 378 173 378H476Q461 430 418 479L249 434V490L375
524Q321 572 238 622H382Q430 589 472 550L589 581V525L514 505Q592 413 592 315Z" />
<glyph unicode="&#xf1;" glyph-name="ntilde" horiz-adv-x="634" d="M197 587V531H107V591Q107 669 180 669H204Q237 669 324 630T426 590T446 595T450 614V669H539V609Q539 571 523 551T467 531H440Q406 531 321 570T215 610Q197 610 197 587ZM248 485H479Q558
485 558 406V0H452V395Q452 414 446 420T421 426H227Q209 426 201 419T193 392V360H192V0H85V485H192V452Q203 485 248 485Z" />
<glyph unicode="&#xf2;" glyph-name="ograve" horiz-adv-x="628" d="M371 532H269L105 677H231L371 532ZM446 90V395Q446 414 440 420T415 426H213Q194 426 188 420T182 395V90Q182 70 188 65T213 59H415Q434 59 440 64T446 90ZM155 485H473Q552 485 552 406V79Q552
0 473 0H155Q76 0 76 79V406Q76 485 155 485Z" />
<glyph unicode="&#xf3;" glyph-name="oacute" horiz-adv-x="628" d="M542 677L378 532H276L416 677H542ZM446 90V395Q446 414 440 420T415 426H213Q194 426 188 420T182 395V90Q182 70 188 65T213 59H415Q434 59 440 64T446 90ZM155 485H473Q552 485 552 406V79Q552
0 473 0H155Q76 0 76 79V406Q76 485 155 485Z" />
<glyph unicode="&#xf4;" glyph-name="ocircumflex" horiz-adv-x="628" d="M315 631L206 532H88L257 678H373L542 532H425L315 631ZM446 90V395Q446 414 440 420T415 426H213Q194 426 188 420T182 395V90Q182 70 188 65T213 59H415Q434 59 440 64T446 90ZM155 485H473Q552
485 552 406V79Q552 0 473 0H155Q76 0 76 79V406Q76 485 155 485Z" />
<glyph unicode="&#xf5;" glyph-name="otilde" horiz-adv-x="628" d="M192 588V532H102V592Q102 670 175 670H199Q232 670 319 631T421 591T441 596T445 615V670H534V610Q534 572 518 552T462 532H435Q401 532 316 571T210 611Q192 611 192 588ZM446 90V395Q446
414 440 420T415 426H213Q194 426 188 420T182 395V90Q182 70 188 65T213 59H415Q434 59 440 64T446 90ZM155 485H473Q552 485 552 406V79Q552 0 473 0H155Q76 0 76 79V406Q76 485 155 485Z" />
<glyph unicode="&#xf6;" glyph-name="odieresis" horiz-adv-x="628" d="M155 485H473Q552 485 552 406V79Q552 0 473 0H155Q76 0 76 79V406Q76 485 155 485ZM446 395Q446 414 440 420T415 426H213Q194 426 188 420T182 395V90Q182 70 188 65T213 59H415Q434 59
440 64T446 90V395ZM114 623H253V532H114V623ZM382 623H521V532H382V623Z" />
<glyph unicode="&#xf7;" glyph-name="divide" horiz-adv-x="655" d="M56 272V350H595V272H56ZM271 506H381V422H271V506ZM271 200H381V115H271V200Z" />
<glyph unicode="&#xf8;" glyph-name="oslash" horiz-adv-x="645" d="M459 87V360L208 55H427Q447 55 453 61T459 87ZM187 399V114L446 428Q441 430 427 430H219Q199 430 193 425T187 399ZM561 406V79Q561 0 482 0H162L142 -24H73L107 17Q84 36 84 79V406Q84 485
163 485H492L512 509H582L544 463Q561 443 561 406Z" />
<glyph unicode="&#xf9;" glyph-name="ugrave" horiz-adv-x="634" d="M383 532H281L117 677H243L383 532ZM442 485H549V0H442V31Q429 0 387 0H155Q76 0 76 79V485H183V90Q183 70 188 65T214 59H408Q426 59 434 66T442 93V485Z" />
<glyph unicode="&#xfa;" glyph-name="uacute" horiz-adv-x="634" d="M531 677L367 532H265L405 677H531ZM442 485H549V0H442V31Q429 0 387 0H155Q76 0 76 79V485H183V90Q183 70 188 65T214 59H408Q426 59 434 66T442 93V485Z" />
<glyph unicode="&#xfb;" glyph-name="ucircumflex" horiz-adv-x="634" d="M311 631L202 532H84L253 678H369L538 532H421L311 631ZM442 485H549V0H442V31Q429 0 387 0H155Q76 0 76 79V485H183V90Q183 70 188 65T214 59H408Q426 59 434 66T442 93V485Z" />
<glyph unicode="&#xfc;" glyph-name="udieresis" horiz-adv-x="638" d="M516 623V532H377V623H516ZM248 623V532H109V623H248ZM442 485H549V0H442V31Q429 0 387 0H155Q76 0 76 79V485H183V90Q183 70 188 65T214 59H408Q426 59 434 66T442 93V485Z" />
<glyph unicode="&#xfd;" glyph-name="yacute" horiz-adv-x="587" d="M219 -141H117V-82H183Q239 -82 258 -43L278 0H240L31 485H141L309 72L474 485H582L351 -47Q330 -96 303 -118T219 -141ZM270 532L410 677H536L372 532H270Z" />
<glyph unicode="&#xfe;" glyph-name="thorn" horiz-adv-x="634" d="M451 100V404Q451 424 446 429T420 435H227Q208 435 200 428T192 401V103Q192 84 200 77T227 69H420Q440 69 445 74T451 100ZM247 494H479Q558 494 558 415V89Q558 10 479 10H247Q203 10 192
43V-141H85V669H191V458Q203 494 247 494Z" />
<glyph unicode="&#xff;" glyph-name="ydieresis" horiz-adv-x="594" d="M219 -141H117V-82H183Q239 -82 258 -43L278 0H240L31 485H140L308 72L474 485H581L351 -47Q330 -96 303 -118T219 -141ZM375 623H514V532H375V623ZM107 623H246V532H107V623Z" />
<glyph unicode="&#x2013;" glyph-name="endash" horiz-adv-x="615" d="M61 262V321H534V262H61Z" />
<glyph unicode="&#x2014;" glyph-name="emdash" horiz-adv-x="916" d="M61 262V321H854V262H61Z" />
<glyph unicode="&#x2018;" glyph-name="quoteleft" horiz-adv-x="229" d="M171 622V364H51V426L132 622H171Z" />
<glyph unicode="&#x2019;" glyph-name="quoteright" horiz-adv-x="229" d="M59 364V622H179V560L99 364H59Z" />
<glyph unicode="&#x201a;" glyph-name="quotesinglbase" horiz-adv-x="229" d="M59 -133V125H179V63L99 -133H59Z" />
<glyph unicode="&#x201c;" glyph-name="quotedblleft" horiz-adv-x="398" d="M171 622V364H51V426L132 622H171ZM341 622V364H221V426L302 622H341Z" />
<glyph unicode="&#x201d;" glyph-name="quotedblright" horiz-adv-x="398" d="M230 364V622H350V560L270 364H230ZM59 364V622H179V560L99 364H59Z" />
<glyph unicode="&#x201e;" glyph-name="quotedblbase" horiz-adv-x="398" d="M230 -133V125H350V63L270 -133H230ZM59 -133V125H179V63L99 -133H59Z" />
<glyph unicode="&#x2022;" glyph-name="bullet" horiz-adv-x="447" d="M164 450T224 450T326 412T369 319T327 227T224 188T122 226T79 319T121 411Z" />
<glyph unicode="&#x2039;" glyph-name="guilsinglleft" horiz-adv-x="331" d="M180 103L54 257L180 411H296L168 257L296 103H180Z" />
<glyph unicode="&#x203a;" glyph-name="guilsinglright" horiz-adv-x="328" d="M280 257L153 103H38L166 257L38 411H153L280 257Z" />
</font>
</defs>
</svg>
