<?xml version="1.0" standalone="no"?>
<!DOCTYPE svg PUBLIC "-//W3C//DTD SVG 1.1//EN" "http://www.w3.org/Graphics/SVG/1.1/DTD/svg11.dtd">
<svg xmlns="http://www.w3.org/2000/svg">
<defs >
<font id="CedarvilleCursive" horiz-adv-x="583" ><font-face
    font-family="Cedarville Cursive"
    units-per-em="1024"
    panose-1="2 0 0 0 0 0 0 0 0 0"
    ascent="1279"
    descent="-663"
    alphabetic="0" />
<glyph unicode=" " glyph-name="space" horiz-adv-x="461" />
<glyph unicode="!" glyph-name="exclam" horiz-adv-x="116" d="M33 25Q31 31 33 37T40 48T51 55T63 58Q68 58 74 55T86 48T96 37T100 25Q100 10 87 5T62 0H58Q56 2 52 5T44 13T37 20T33 25ZM16 780Q16 801 16 817T18 851T20 886T25 930Q30 942 37 945T54 949Q68
949 75 941T83 913V407L67 257Q67 256 65 256T60 256Q49 256 42 290T30 376T22 492T18 614T17 717T16 780Z" />
<glyph unicode="&quot;" glyph-name="quotedbl" horiz-adv-x="356" d="M24 738Q24 759 24 776T25 810T28 843T33 880Q35 887 41 888T54 889Q60 889 66 888T75 880Q75 877 75 871T75 858T76 844T76 835Q76 803 72 771T67 706Q67 649 79 619T107 574T135 550T148
530Q102 530 77 549T41 599T27 666T24 738ZM199 761Q199 768 202 787T213 827T230 865T254 881Q254 881 256 880H257Q260 879 266 873T274 863Q266 842 262 827T254 799T249 771T247 740Q247 716 252 699T267 665T288 633T315 598Q317 595 320 592T326 583Q329
579 332 573L323 565Q317 559 306 564T282 582T256 611T232 643T214 668T207 681Q207 684 206 692T203 712T201 732T199 747V761Z" />
<glyph unicode="#" glyph-name="numbersign" horiz-adv-x="772" d="M332 41Q331 48 328 63T320 95T313 127T307 149Q306 153 304 162T299 175Q295 175 287 175T268 175T249 175T237 175Q191 175 147 170T56 165Q46 165 36 165T16 175L25 183L265 224Q272 222 279
226T291 232V254Q291 263 291 288T288 342T283 391T274 415Q271 415 259 415T245 416Q225 416 206 412T167 403T128 394T88 390Q88 401 94 408T109 420T128 426T149 431Q156 434 174 439T211 449T248 458T274 465V667Q293 667 305 656T323 627T331 588T334 545T336
504T340 473H348H356Q363 474 380 476T415 481T450 487T472 490Q481 493 485 503T490 524T491 546T490 565Q490 574 491 597T493 647T496 697T499 731Q499 731 503 731T510 732Q528 732 534 720T540 689V499H697Q705 499 705 492T706 481Q706 474 701 469T687 459T670
452T656 448Q650 448 633 447T598 444T563 441T540 439L532 407V240H731Q733 240 739 235T747 224Q750 215 743 209T727 199T709 193T697 191Q688 190 665 189T615 187T565 184T532 183Q532 181 532 175T532 163T531 150T531 141Q531 114 539 92T548 46V41Q547
40 544 37T540 33H535H532Q531 33 527 35T519 39T511 44T507 49L481 183H369Q369 163 372 144T379 105T387 67T391 30Q391 20 390 14T382 0Q374 2 367 7T353 19T341 31T332 41ZM339 365Q339 361 339 353T339 337T340 322T340 315Q340 307 341 295T344 270T347 249T348
240H472L482 423L472 431H463Q458 431 454 431T447 432Q439 432 422 433T388 433T357 428T340 415Q340 412 340 406T340 391T339 375T339 365Z" />
<glyph unicode="$" glyph-name="dollar" horiz-adv-x="631" d="M390 191Q388 191 382 191T370 191T357 192T348 192Q319 192 291 183T237 174Q226 174 225 174T224 177T220 182T199 191Q171 200 140 208T83 229T40 263T22 323H33Q54 282 87 257T170 231Q176 231
182 232T191 240Q188 292 191 343T200 446T211 549T216 652V664Q200 686 190 702T174 735T167 769T165 814Q165 816 165 823T165 838T166 853T166 863Q174 880 182 894T201 921T222 946T248 971Q253 1008 256 1053T257 1138Q257 1139 260 1142T265 1146Q280 1146
284 1134T291 1112Q292 1107 294 1093T299 1063T304 1033T307 1012L315 1004L398 1030V1036Q398 1039 398 1041T399 1046Q399 1072 398 1100T391 1157T375 1213T348 1262Q354 1272 359 1275T373 1279Q390 1279 402 1263T425 1224T441 1170T451 1113T456 1063T456
1030Q483 1021 510 1009T558 979T593 936T607 879Q607 867 602 862T581 847Q580 846 580 846H577Q576 846 575 846T573 847Q577 867 569 889T546 929T511 959T469 971H464Q455 949 450 915T444 841T442 756T444 671T446 596T448 540V499Q471 488 494 469T537 425T569
373T582 319Q582 295 572 281T548 257T516 240T483 224T458 200T448 163Q448 123 456 84T465 4Q436 4 421 26T400 78T392 139T390 191ZM265 565Q261 528 256 487T247 401T241 314T238 230Q273 230 314 231T390 248Q390 254 390 266T390 292T391 318T391 337Q391
345 391 359T391 386T390 411T390 423Q390 432 389 446T387 473T384 496T382 507L282 598Q274 593 271 582T265 565ZM448 274Q448 272 451 269T456 265Q470 265 482 271T503 286T519 307T525 331Q525 341 519 359T504 395T482 426T456 439H448V274ZM281 664Q281
661 282 656L373 565Q374 564 375 564H378Q384 564 387 567T390 576T391 588T390 598Q392 698 395 787T399 974Q376 974 356 971T315 955Q314 945 312 926T305 882T298 830T291 778T286 734T282 706Q282 704 282 693T281 677V664ZM198 801Q198 796 199 786T202
765T209 746T220 738Q221 738 222 738T224 739Q228 761 231 779T236 813T239 845T241 880Q241 883 241 892T240 905Q229 897 221 885T207 858T200 829T198 801Z" />
<glyph unicode="%" glyph-name="percent" horiz-adv-x="565" d="M165 43Q165 48 165 57T166 67L373 839Q374 841 378 850T386 867T397 882T411 889Q418 889 422 884T428 873T431 858T432 846Q432 843 432 838T431 831L299 373Q297 333 287 286T262 190T234 99T207
25Q210 12 202 10T188 7Q169 7 167 16T165 43ZM373 218Q373 252 385 277T415 325T448 371T472 423Q475 424 483 425T494 427Q498 427 506 426T515 423Q518 420 522 415T528 402T532 389T532 382L515 365Q508 359 506 341T504 297T504 242T502 183T493 128T472 83Q471
83 463 83T453 82Q429 82 414 96T390 130T377 175T373 218ZM407 191Q407 185 408 176T414 156T423 139T436 131H437Q438 131 439 132Q441 133 444 136T448 141Q454 157 457 180T460 228T461 272T460 301Q442 301 432 288T416 258T409 221T407 191ZM15 639Q15 674
28 707T63 765T117 807T184 823Q191 823 199 822T208 809Q208 801 202 797T187 790T170 783T157 772Q168 757 175 747T185 728T190 710T192 687Q192 666 185 646T164 609T132 583T91 572Q76 572 63 577T39 591T22 612T15 639ZM49 633Q49 620 58 617T79 614Q110
614 129 635T149 685Q149 693 146 705T138 728T125 748T108 757Q106 757 104 757T100 756Q89 741 80 727T64 699T53 668T49 633Z" />
<glyph unicode="&amp;" glyph-name="ampersand" horiz-adv-x="689" d="M15 291Q15 323 26 340T72 357Q99 357 120 346T160 316T194 278T223 239T250 210T277 198Q289 198 296 200T315 207V232Q315 301 311 370T306 509Q327 509 336 503T348 473L373 216Q375 216
381 216T390 215Q428 215 467 230T541 268T605 322T656 382H667Q667 357 651 333T610 285T554 242T491 206T430 180T382 166Q373 162 370 155T366 140T365 123T365 108Q364 103 363 90T361 62T358 35T356 16Q355 13 349 8T340 0Q339 -1 338 -1H337Q321 -1 314 9T302
36T291 71T274 108T244 139T191 157Q161 162 130 169T73 192T32 231T15 291ZM299 149Q299 148 302 141T307 132Q309 133 311 136T315 141V143Q315 144 315 144T316 146Q316 146 315 148V149Q314 151 312 154T307 157Q305 157 302 154T299 149ZM66 283Q66 261 81
245T118 219T166 203T209 198Q209 214 195 234T160 273T117 304T79 316Q73 316 70 313T67 304T66 293T66 283Z" />
<glyph unicode="&apos;" glyph-name="quotesingle" horiz-adv-x="91" d="M41 499Q32 555 24 605T15 711Q15 714 15 725T16 739Q19 748 25 748T38 748Q52 748 59 736T70 709T74 677T75 650Q75 637 75 609T72 553T65 503T54 481H51Q50 481 49 482Q48 484 45 490T41 499Z" />
<glyph unicode="(" glyph-name="parenleft" horiz-adv-x="257" d="M15 228Q15 275 20 322T41 415L191 814Q193 816 199 826T207 839H209Q210 839 210 839T212 840Q212 840 214 839H216Q220 836 226 830T232 822V756Q227 742 216 714T191 649T162 573T133 497T108
432T91 390Q89 385 87 376T81 358T77 341T75 332V149Q75 134 80 118T94 87T112 57T132 33Q132 31 132 27T133 22Q133 6 127 3T106 -1Q85 -1 71 12T47 47T30 94T21 146T16 193T15 228Z" />
<glyph unicode=")" glyph-name="parenright" horiz-adv-x="382" d="M74 41Q74 52 76 59T91 67Q100 67 106 63T121 58Q137 58 155 71T193 106T229 153T262 204T286 249T299 282Q299 287 299 301T300 330T300 359T301 378Q301 407 301 436T296 495T283 553T257 607Q252
615 240 631T215 664T190 695T175 715Q166 723 140 735T87 763T38 795T16 831Q16 832 23 838T33 847H38Q75 847 111 830T181 785T243 719T296 642T334 563T356 490Q356 484 356 470T356 440T357 410T357 390Q357 338 351 294T328 211T284 137T216 67Q209 60 196
49T166 27T132 7T99 -1Q91 -1 86 3T79 14T75 28T74 41Z" />
<glyph unicode="*" glyph-name="asterisk" horiz-adv-x="482" d="M244 299Q206 275 168 266T86 256Q84 256 77 256T62 256T47 257T37 257Q28 259 28 268T28 282Q28 303 41 317T75 340T119 356T163 369T197 382T211 401Q211 423 203 448T184 499T162 546T145 580V608Q159
608 165 601T175 583T182 562T194 547L261 398Q265 391 270 390T283 389Q292 389 299 391T310 407Q304 412 292 423T267 447T245 475T235 502Q235 511 240 521T257 532Q257 532 259 531H261L319 472Q319 472 320 472H323Q331 472 336 479T347 497T357 516T369 531H371Q372
531 372 531T373 532Q373 532 375 531H377Q379 530 385 528T393 523Q393 521 393 511T394 498Q394 479 389 462T384 427Q384 411 396 401T422 383T448 365T461 340Q461 328 453 321T433 314Q414 314 396 323T360 333Q359 333 356 333T352 332Q346 318 340 300T327
261T316 220T310 183Q309 182 303 182T294 181Q278 181 270 195T258 228T254 265T252 291L244 299ZM145 306Q161 306 181 311T211 332V334Q211 335 211 335T211 337Q211 337 211 338T211 340L145 315V306Z" />
<glyph unicode="+" glyph-name="plus" horiz-adv-x="499" d="M207 291Q205 291 196 291T181 292Q139 292 100 283T21 274H16Q14 274 12 277T8 282L16 291Q26 293 51 300T103 315T156 330T191 340Q198 342 203 346Q208 348 212 351T216 356V515Q216 530 229 535T254
541Q261 541 268 539T274 524Q274 518 274 505T273 478T273 450T274 431Q274 422 275 408T277 381T280 358T282 348L464 323Q465 323 468 317T473 307V303Q473 293 461 288T440 282Q406 282 372 291T303 300Q301 300 293 300T282 299L265 8Q265 6 262 4T257 0Q256
-1 256 -1H254Q242 -1 236 10T227 35T224 61T224 75Q223 86 222 115T220 178T218 240T216 282L207 291Z" />
<glyph unicode="," glyph-name="comma" horiz-adv-x="340" d="M199 -183Q225 -131 245 -76T266 39Q266 49 264 63T255 90T240 114T216 124Q197 124 185 106T163 66T144 26T124 8H49Q48 8 44 12T36 22T28 33T25 41Q30 67 50 89T97 129T154 156T207 166Q232 166
252 157T287 132T308 95T316 48Q316 10 304 -28T274 -100Q268 -111 259 -127T240 -160T224 -187T216 -199H199V-183Z" />
<glyph unicode="-" glyph-name="hyphen" horiz-adv-x="607" d="M16 356Q19 364 30 372T49 382Q96 384 145 388T245 396T344 403T439 407Q473 407 507 404T573 390L556 373Q556 373 539 371T495 366T433 359T364 352T296 345T240 340Q195 336 148 334T57 332Q52
332 45 333T31 336T19 344T16 356Z" />
<glyph unicode="." glyph-name="period" horiz-adv-x="240" d="M24 38Q24 57 37 69T70 88T110 98T146 102Q155 102 165 102T185 98T202 88T209 68Q209 50 201 37T181 16T154 3T123 -1Q112 -1 95 -1T63 1T36 12T24 38ZM132 53Q130 53 126 53T116 52T106 49T100 41H132V53Z" />
<glyph unicode="/" glyph-name="slash" horiz-adv-x="532" d="M7 25Q7 43 11 59T25 91L307 565Q319 579 328 594T346 625T365 655T390 681L464 814Q470 822 480 827T499 832Q511 832 513 823T515 804V789L100 132L33 0Q31 -1 31 -1H27Q13 -1 10 6T7 25Z" />
<glyph unicode="0" glyph-name="zero" horiz-adv-x="565" d="M24 298Q24 340 32 392T57 497T99 599T159 687T236 749T332 773Q346 773 370 771T416 761T455 739T472 701V697Q472 695 469 689T464 681Q463 680 463 680H461H458Q457 680 456 681Q454 682 449 687T436
697T423 708T415 715H413Q412 715 411 715Q410 715 409 715T407 715Q470 620 501 521T532 307Q532 252 521 197T483 98T413 27T305 -1Q246 -1 195 24T105 91T46 186T24 298ZM57 278Q57 225 76 181T131 104T213 56T315 41Q362 44 394 67T445 126T473 203T481 285Q481
317 479 361T468 452T445 547T406 631T349 692T268 715Q235 715 207 689T155 622T113 531T82 432T63 342T57 278Z" />
<glyph unicode="1" glyph-name="one" horiz-adv-x="177" d="M161 744Q168 742 173 740T184 731Q179 679 175 641T167 569T157 500T145 418Q143 409 140 392T134 358T129 328T127 311Q124 298 118 264T104 190T89 116T79 67Q78 64 75 56T68 40T60 23T54 12Q52 11
49 8T44 4L40 5H38Q37 5 36 6Q33 8 28 11T22 16L132 723Q134 732 143 739T161 744Z" />
<glyph unicode="2" glyph-name="two" horiz-adv-x="439" d="M23 30Q23 31 24 35T25 41L274 524Q290 553 295 576T300 629Q300 644 299 656T291 681Q288 681 280 681T270 682Q236 682 207 670T152 639T103 595T58 548Q49 551 41 556T32 573Q32 592 45 610T77 644T122
674T170 699T215 718T248 731Q251 731 255 731T265 732T275 732T282 733Q298 733 313 732T340 715Q342 710 344 699T350 677T354 654T356 640Q356 634 355 622T350 596T345 572T340 556L232 323Q230 321 224 312T216 299Q207 283 196 260T171 212T145 163T122 120T106
88T100 75V67Q136 67 177 70T259 79T341 99T415 132Q416 130 416 126T417 121Q417 102 400 89T358 66T310 50T274 41Q262 39 233 33T171 20T108 8T67 0Q65 0 60 0T54 -1Q40 -1 32 7T23 30Z" />
<glyph unicode="3" glyph-name="three" horiz-adv-x="515" d="M25 67Q31 63 39 59T56 51T75 44T91 41Q146 41 193 63T275 122T329 207T349 308Q349 320 350 336T349 365T338 388T311 398H307Q299 396 286 392T259 385T236 378T224 373Q215 369 194 358T148 333T104
308T75 291Q74 291 74 291T73 290H71Q60 290 55 298T49 315Q49 328 56 333T75 348Q81 354 101 370T147 407T203 452T259 498T306 535T332 556Q346 568 361 582T390 614T412 649T421 687Q395 687 375 679T335 659T295 640T248 631V648Q248 663 261 676T294 700T339
720T387 735T430 745T458 748Q469 748 479 743T490 723Q490 682 470 645T421 575T358 515T299 465V456Q333 454 354 443T387 414T404 370T408 313Q408 259 388 204T332 103T247 28T139 -1Q136 -1 124 1T95 7T61 16T31 28T13 42T16 58L25 67Z" />
<glyph unicode="4" glyph-name="four" horiz-adv-x="373" d="M240 412Q213 412 188 407T137 397T85 387T32 382Q22 382 15 389T7 407V411Q7 413 8 415Q12 423 18 441T33 483T50 531T67 579T82 620T91 648Q93 652 95 664T100 689T105 714T108 731Q112 738 120 742T138
747H141Q143 746 149 744T157 739Q157 736 157 729T158 718Q158 681 147 648T122 583T97 518T85 450Q126 450 167 459T248 473L291 831Q292 842 302 849T323 856Q333 856 340 851T348 835V831Q339 751 327 676T314 524Q314 506 318 492T323 461V456Q322 453 316
440T307 423Q302 322 302 220T291 16Q290 13 284 7T274 0Q269 -2 264 2T253 11T244 23T240 33V412Z" />
<glyph unicode="5" glyph-name="five" horiz-adv-x="473" d="M141 58Q142 60 145 63T149 67Q157 54 170 52T196 49Q239 49 274 73T332 133T369 212T382 291Q382 293 382 300T382 315T382 330T382 340Q373 360 364 375T342 402T313 418T274 424Q246 424 222 413T178
385T141 348T112 312T90 284T75 273Q67 273 58 276T49 291V507Q49 519 45 531T37 554T28 576T24 599Q24 616 36 622T64 630T94 631T116 631Q143 634 165 636T207 642T247 651T291 664Q303 669 313 679T337 689Q357 689 357 669Q357 654 350 644T332 626T307 614T282
607Q272 604 246 599T191 589T136 579T100 573V398Q101 396 103 394Q106 391 108 390H112H116Q133 405 151 420T190 447T232 466T278 473Q319 473 349 459T399 421T429 364T440 292Q440 265 432 233T408 168T371 103T324 47T268 10T207 0Q195 1 184 4T163 14T147
30T141 54V58Z" />
<glyph unicode="6" glyph-name="six" horiz-adv-x="532" d="M25 146Q25 206 44 271T92 400T154 523T216 631Q219 651 222 665T233 690T253 705T285 711Q285 687 281 658T265 607L116 307Q108 292 102 274T91 235T84 194T82 156Q82 126 94 107T125 78T168 65T214
61Q214 77 210 92T202 123T193 155T189 189Q189 224 198 263T227 337T278 393T354 416Q387 416 415 402T464 365T495 313T507 250Q507 188 485 143T425 67T337 22T229 7Q224 7 213 7T189 7T165 8T149 8Q128 16 106 28T66 58T37 97T25 146ZM239 213Q239 202 240
176T247 124T262 77T289 57Q331 57 362 71T415 111T446 169T457 240Q457 262 453 284T438 325T409 354T365 365Q334 365 311 351T272 315T248 266T239 213Z" />
<glyph unicode="7" glyph-name="seven" horiz-adv-x="431" d="M240 16Q240 20 240 28T240 45T239 63T239 75Q239 219 259 358T332 631V648Q332 648 320 650T290 655T249 661T205 667T166 671T141 673Q125 673 114 654T93 611T70 567T40 547Q28 547 22 556T15 577Q15
583 30 608T65 661T105 710T137 732Q163 732 198 727T269 716T337 704T390 697Q397 699 401 697T407 690T409 681T409 673Q409 670 409 664T407 656Q382 601 364 546T333 436T312 324T299 207Q298 198 298 179T299 137T298 90T294 46T286 13T270 0Q262 0 254 4T240
16Z" />
<glyph unicode="8" glyph-name="eight" horiz-adv-x="598" d="M99 60Q99 87 111 116T142 175T182 231T222 282T253 322T265 348V356L199 407H191Q185 410 170 419T138 440T105 460T83 473Q61 486 42 498T16 540Q13 562 31 578T81 605T150 623T223 634T284 639T318
641Q347 641 370 641T417 638T465 630T524 615Q530 613 537 609T550 600T561 587T565 574Q565 555 555 536T530 499T495 471T456 460V473L507 524V565Q507 566 498 568T482 573Q445 580 426 584T390 589T353 590T295 590Q285 590 270 590T240 590T213 589T199 589Q193
589 181 587T154 583T126 577T108 573Q103 571 96 568T83 560T72 553T67 548V524Q67 522 78 515T106 497T145 474T185 450T219 429T240 415Q252 408 268 399T299 390H307Q310 394 320 406T340 431T360 456T373 473Q380 482 383 492T391 512T401 526T420 532Q433
532 436 525T440 507Q440 489 428 467T400 424T366 384T340 356V348Q359 332 377 312T409 268T431 219T440 166Q440 131 422 106T378 62T321 29T265 0Q263 0 256 0T241 0T226 -1T216 -1Q201 -1 181 0T142 7T112 26T99 60ZM149 67Q154 60 160 56T175 49Q177 49 183
49T197 49T211 49T220 49Q247 49 277 56T332 78T374 116T391 170Q391 186 387 211T372 260T347 299T311 316Q310 316 310 316T309 315H307Q305 314 299 308T291 299Q287 294 279 282T259 254T235 220T211 185T190 153T175 132Q170 127 166 117T159 97T153 78T149
67Z" />
<glyph unicode="9" glyph-name="nine" horiz-adv-x="373" d="M274 25Q274 31 274 48T274 83T274 118T274 141Q273 153 272 177T270 233T267 299T263 364T260 420T257 456H248Q241 444 229 420T200 373T163 332T120 314Q98 314 79 326T45 358T23 399T15 440Q15
487 37 521T94 578T173 612T258 624Q266 624 277 623T299 619T319 611T332 598V569Q332 528 328 488T323 408Q323 340 328 275T333 141Q333 136 333 123T333 95T332 68T332 49Q332 45 330 37T325 21T317 7T303 0Q293 0 284 7T274 25ZM66 443Q66 430 70 417T83 392T102
373T129 365Q131 365 141 377T165 406T194 444T221 484T242 517T250 535Q250 540 247 542T238 547T229 554T224 565Q196 562 168 555T117 533T80 496T66 443Z" />
<glyph unicode=":" glyph-name="colon" horiz-adv-x="299" d="M86 133Q86 165 103 189T155 213Q168 213 180 208T201 193T216 171T221 146Q221 112 207 94T154 71Q114 67 100 83T86 133ZM65 472Q65 500 81 523T115 569Q120 572 127 573T145 577Q171 560 197 540T236
499T239 457T182 419Q147 409 125 414T89 432T70 456T65 472Z" />
<glyph unicode=";" glyph-name="semicolon" horiz-adv-x="232" d="M139 27Q132 27 126 30T124 41Q119 41 103 42T69 47T39 59T25 82Q25 103 29 119T42 149T62 173T91 200H112Q139 200 155 176T182 118T195 51T199 -4Q199 -41 191 -71T168 -127T132 -176T83 -224Q77
-229 68 -235T50 -249T34 -261T25 -266H16Q20 -249 34 -241T58 -224Q88 -194 104 -167T128 -111T137 -48T139 27ZM22 395Q22 437 43 462T107 488Q132 488 153 473T175 432Q175 410 166 395T143 371T109 357T71 352Q65 352 53 352T40 354L24 371Q23 373 23 382T22
395Z" />
<glyph unicode="&lt;" glyph-name="less" horiz-adv-x="664" d="M16 91Q40 113 64 138T108 191L423 499Q423 508 429 514T445 525T464 530T482 532Q490 532 499 531T507 515Q507 512 505 508T500 498T494 488T490 482L108 116Q97 106 90 97T82 75Q82 73 82 70T83
67Q99 62 121 60T165 55T207 51T240 49Q254 49 282 49T347 49T423 49T499 49T563 49T607 49Q610 49 622 46T640 41Q642 40 645 38T648 33Q648 29 642 21T631 8Q602 4 570 2T505 -1T441 -2T382 -1Q317 -1 249 -1T116 8Q105 10 88 12T55 18T28 23T16 25V91Z" />
<glyph unicode="=" glyph-name="equal" horiz-adv-x="556" d="M75 141Q75 142 91 147T129 159T176 172T216 183Q249 191 289 198T372 212T456 222T532 226V183L116 124L75 132V141ZM464 415Q414 411 359 406T246 394T133 384T23 380Q23 387 28 393T40 404T54 411T67
415Q165 444 264 452T464 461V415Z" />
<glyph unicode="&gt;" glyph-name="greater" horiz-adv-x="607" d="M116 16Q124 23 139 39T174 74T212 115T248 156T277 192T291 216L431 356Q433 357 438 360T450 368T460 377T465 386Q465 387 465 387T464 389V390Q463 391 457 394T448 398Q443 399 422 404T378
414T333 425T307 431Q298 434 272 440T213 454T143 474T76 496T27 520T7 544Q7 556 17 561T38 566Q40 566 44 566T49 565L157 524L565 423Q572 421 573 417T574 408Q574 398 572 391T565 373Q534 358 507 339T455 300T406 256T356 207Q332 183 307 148T252 81T190
27T116 5V16Z" />
<glyph unicode="?" glyph-name="question" horiz-adv-x="515" d="M114 46Q114 77 135 90T183 103Q187 103 199 102T216 100Q221 99 223 94T226 82T226 71T225 64Q225 52 221 41T208 20T189 6T166 0Q114 0 114 46ZM33 473Q33 477 34 484T37 499T45 511T58 515Q94
488 131 481T212 473Q265 473 305 494T374 549T417 628T432 723Q432 726 432 734T432 751T431 769T431 780Q427 791 421 801T407 822Q404 822 399 822T388 822T377 823T370 823Q327 823 282 811T195 777T115 726T49 664Q46 665 40 668T28 676T18 686T16 697Q20
717 43 738T100 778T175 815T257 845T334 865T394 873Q399 873 413 873T431 872Q445 864 455 850T473 819T485 785T490 751Q490 706 478 651T439 547T371 465T274 431H116Q120 424 127 406T143 366T157 326T166 299Q166 299 166 295T166 284T166 272T166 262Q166
256 166 248T167 230T165 213T157 199Q157 198 156 198H154Q153 198 152 198T149 199Q143 209 132 232T108 286T81 349T58 409T40 454T33 473Z" />
<glyph unicode="@" glyph-name="at" horiz-adv-x="656" d="M191 8Q186 18 176 19T157 25Q124 43 100 63T58 108T33 163T24 232Q24 313 59 392T153 534T288 635T449 674Q491 674 526 655T587 604T626 533T640 453Q640 412 629 371T595 298T538 244T459 223Q434
223 426 240T414 277T409 315T394 332Q386 332 376 326T357 310T342 293T332 282Q331 282 326 282T319 281Q307 281 301 287T291 307Q291 310 291 319T290 338T290 357T289 370Q289 398 291 424T304 470T334 502T386 515Q401 515 432 505T494 479T549 445T573 411Q573
404 568 393T552 382Q544 382 532 389T509 406T490 423T481 431H464Q462 431 460 418T457 388T456 355T456 335Q456 326 456 315T459 295T467 279T486 273Q512 273 532 291T565 335T584 389T590 437Q590 472 581 505T554 564T507 606T439 623Q435 623 420 620T398
615Q334 589 274 555T168 474T94 368T66 232Q66 182 87 147T141 89T210 52T280 32T334 22T356 16Q351 13 342 11T323 6T305 2T291 0Q285 0 271 1T240 3T210 5T191 8ZM391 465Q367 465 356 455T341 428T337 392T337 355Q354 355 367 366T388 393T402 426T407 456Q407
463 401 464T391 465Z" />
<glyph unicode="A" glyph-name="A" horiz-adv-x="719" d="M20 212Q20 254 23 290T33 360T49 430T73 507Q82 535 101 575T148 650T210 711T283 736H366Q367 736 372 735T381 732Q420 713 442 686T472 615Q481 574 491 537T502 458Q502 409 500 361T497 264Q497
261 497 254T497 237T498 220T498 210Q499 202 500 187T504 154T510 117T517 83T528 57T542 47Q569 47 598 54T652 76Q654 78 661 83T677 95T693 107T705 116Q712 121 716 123T728 126Q734 126 739 123T744 112Q744 89 719 69T659 33T591 8T539 -2Q517 -2 502 20T475
73T455 136T438 190Q424 150 397 116T334 55T258 14T175 -1Q129 -1 99 17T51 65T27 133T20 212ZM82 220Q82 190 83 160T94 104T124 64T183 48Q233 48 272 70T340 129T389 213T421 310T438 407T444 491Q418 491 418 515Q418 530 424 541T430 571Q430 593 423 614T401
652T367 678T324 688Q277 688 242 663T179 596T134 504T104 400T87 300T82 220Z" />
<glyph unicode="B" glyph-name="B" horiz-adv-x="571" d="M53 156Q47 157 41 159T29 166Q31 242 28 312T24 459Q24 499 29 535T42 606T63 675T87 746Q90 755 90 769T92 796T99 819T121 829Q130 829 136 824T151 818Q160 818 170 822T193 831T217 840T243 844Q300
844 330 808T361 717Q361 707 358 692T355 668Q347 623 330 582T287 502Q343 498 390 476T472 419T526 335T546 229Q546 180 532 138T490 65T422 17T331 -1Q283 -1 244 9T172 40T109 89T53 156ZM99 182Q100 180 101 178T103 175Q104 172 108 166T117 154T126 143T130
137Q167 95 212 72T314 49Q400 49 441 98T483 231Q483 280 469 320T426 389T359 433T274 449Q262 449 254 444T238 434T222 423T204 418Q192 418 186 427T180 448Q180 463 187 472T204 490T225 506T243 526Q247 533 252 543T263 563T273 581T277 589Q279 596 283
612T293 645T302 679T307 702V709Q307 742 291 766T240 790Q230 790 216 786T188 774T163 757T151 736L112 454V444Q112 438 110 423T106 386T102 341T97 297T94 260T92 238V236Q92 229 99 223T107 206V200Q106 198 102 193T97 185L99 182ZM63 444Q59 444 59 439T63
434Q67 434 67 439T63 444Z" />
<glyph unicode="C" glyph-name="C" horiz-adv-x="616" d="M28 392Q18 446 31 505T75 624T149 737T243 836T349 910T458 951Q474 951 486 941T508 916T521 884T526 853V756Q526 746 518 744T504 741Q497 741 487 743T477 756Q477 760 476 769T474 789T473 810T472
823Q472 825 472 836T469 860T463 882T453 892H418Q418 892 409 888T388 877T364 865T346 853Q343 851 337 846T323 836T310 826T301 819Q247 767 207 723T140 630T100 527T86 395Q86 365 89 329T100 254T122 180T157 115T208 70T279 53H301Q346 68 380 80T442
106T492 134T536 172T581 225T633 298Q634 298 636 298T640 299Q658 299 658 281Q658 258 647 230T605 167T520 96T380 20Q364 13 352 9T329 2T307 0T281 -1Q229 -1 191 17T124 65T78 135T48 219T33 308T28 392Z" />
<glyph unicode="D" glyph-name="D" horiz-adv-x="532" d="M199 36Q199 41 199 45T204 53Q206 53 210 53T217 54Q235 54 251 51T286 48Q319 48 349 57T402 83T440 127T454 190Q454 211 448 232T430 273T405 310T375 341L151 526Q149 529 142 536T130 546L129 544Q128
544 127 544H126V151L121 78Q121 69 112 65T97 58Q85 57 80 62T71 76T68 95T68 112V619Q48 650 36 682T23 751Q23 760 24 775T28 804T40 829T64 840Q74 840 78 832T83 815Q83 800 80 787T77 759Q77 750 77 736T82 712Q83 724 83 744T88 783T101 816T131 830Q139
830 145 827T151 814V712Q139 699 138 683T136 650V637Q136 634 137 629Q138 626 141 621T149 610T158 598T165 589L390 405Q441 362 474 309T507 188Q507 144 489 110T441 51T373 13T293 0Q285 0 269 1T238 5T211 15T199 36Z" />
<glyph unicode="E" glyph-name="E" horiz-adv-x="551" d="M48 39Q46 42 43 50T35 69T28 89T24 103Q24 103 24 112T23 128Q23 149 25 171T34 215Q37 220 45 235T62 268T80 300T92 321Q117 365 155 399T234 463Q238 466 251 477T282 500T313 523T331 536Q332 537
334 539T337 541V544V546Q307 552 279 559T228 581T193 618T180 676Q180 719 204 749T263 800T340 830T416 840Q434 840 453 838T489 828T516 807T527 770Q527 756 519 749T497 741Q485 741 481 747T472 762T455 778T417 785Q395 785 374 782T331 780Q314 775 297
765T265 740T242 709T233 671Q233 643 247 629T282 608T328 600T374 597T410 587T424 560V551L394 522Q389 517 377 509T350 490T319 467T288 443T261 423T243 409Q215 386 186 357T133 293T93 221T77 144Q77 98 95 78T155 58Q196 58 237 70T319 101T395 145T463
195H467Q475 195 481 191T488 178Q488 173 483 166T471 152T459 142T454 137Q421 112 384 89T307 46T226 16T141 4Q137 4 122 4T103 4Q70 13 48 39Z" />
<glyph unicode="F" glyph-name="F" horiz-adv-x="649" d="M165 22Q165 37 168 46T177 63T188 79T200 98Q215 130 230 163T256 230T275 300T283 373Q283 382 278 383T265 385Q218 385 172 383T78 381Q69 381 63 381T50 381T37 382T20 385Q11 388 10 393T8 405Q8
409 9 415T20 419Q50 418 85 419T155 423T224 429T287 434Q293 445 296 463T299 500T299 539T298 571Q298 585 299 602T299 637T295 672T283 702Q276 711 270 717T257 728T247 739T243 756Q243 761 243 765T248 775Q250 775 255 775T263 776Q276 776 289 773T316
766T342 759T372 756Q418 756 466 758T561 770Q566 771 566 777T567 789T568 800T580 805Q588 805 595 800T609 788T620 775T628 766Q628 765 628 763T629 759Q629 746 615 737T589 726L346 706V699Q346 675 348 651T351 602Q351 562 349 524T346 445Q346 441 346
437T355 434H517Q523 434 536 434T562 432T586 424T596 406Q596 391 583 383T556 375Q516 375 475 380T391 386Q385 386 377 386T360 385H341L331 307L273 117L215 10Q211 4 201 4T187 4H170Q166 9 166 12T165 22Z" />
<glyph unicode="G" glyph-name="G" horiz-adv-x="926" d="M258 190Q257 190 257 190T256 191L254 190Q252 189 246 186T238 181Q231 175 213 160T175 127T137 95T112 73Q110 71 104 63T91 45T75 28T61 20Q50 20 37 26T24 46Q24 54 36 69T67 102T109 139T155 176T195
209T224 234Q195 275 169 308T112 381V392Q112 409 119 414T142 420Q153 420 160 418T180 409Q228 401 267 396T350 390H375Q378 392 383 398T395 411T406 424T414 434Q419 440 419 449Q419 456 416 464T409 480T402 497T399 515V522L458 766Q463 788 479 812T516
857T562 889T612 902Q624 902 631 896T642 882T647 863T649 844Q649 820 646 797T633 751L555 561Q553 553 548 544T536 526T523 507T511 492H519Q536 492 550 499T580 512Q680 553 747 618T858 785Q862 789 867 790T878 791Q888 791 895 785T902 768Q902 767 902
764T901 760Q897 752 890 734T873 694T853 647T834 600T819 559T809 532Q805 519 800 499T788 456T776 407T766 362T759 326T756 307V298Q756 295 753 280T746 247T738 210T731 181Q724 155 713 123T683 64T640 18T581 -1Q534 -1 488 15T400 59T322 120T258 190ZM292
229Q292 229 294 226T301 217T309 207T316 200Q340 174 370 148T433 99T503 63T578 49Q604 49 619 66T643 106T659 155T678 195L716 375V381Q720 406 724 427T735 469T749 513T765 566Q754 557 739 546T709 525T679 507T653 492Q643 487 624 480T585 464T550 451T531
444L472 434Q472 434 468 430T463 424Q461 422 457 416T448 405T439 393T433 385Q436 385 445 386T465 386T484 380T492 366Q492 356 483 352T467 346Q463 346 453 346T431 344T409 342T394 341L292 229ZM260 265L331 337V341Q320 342 306 344T276 347T245 349T217
351H214Q212 350 207 349T199 346L260 265ZM600 840Q583 840 568 832T541 811T519 783T507 751L463 580Q461 574 460 563T458 540T457 516T457 498H463Q485 538 509 578T554 660T587 746T600 840Z" />
<glyph unicode="H" glyph-name="H" horiz-adv-x="752" d="M147 278Q147 279 148 284T152 295T157 307T160 317V319V321Q147 322 125 325T83 335T48 355T33 388Q33 408 47 420T81 440T122 451T157 454Q176 454 189 454T222 449V463L371 752L234 722H204Q193 722
175 723T140 728T111 742T98 769Q98 792 104 810T137 829Q148 829 152 821T158 803T163 784T175 770Q178 770 183 770T195 770T208 769T217 769Q238 769 255 771T289 776T322 786T360 800Q373 805 386 816T411 839T437 859T464 868Q483 868 483 847Q483 839 482
833T477 819L277 449V434Q332 415 375 381H381L545 405L555 409Q558 418 565 437T582 477T599 518T609 546Q611 548 614 556T619 566L706 790Q710 797 719 803T736 809Q749 809 752 798T756 777V770L653 507Q649 499 644 487T633 462T625 439T619 424Q622 424 628
425T641 428T654 431T662 434Q669 436 685 442T719 455T753 469T775 478Q780 486 789 492T809 498Q815 498 819 494T824 483Q824 472 816 463T797 446T774 432T756 424L601 370L507 112Q505 102 502 85T492 50T475 21T451 9Q436 9 428 29T417 79T411 147T403 220T386
284T355 326Q354 326 346 327T337 328Q333 328 326 327T317 326Q307 325 291 324T261 321T235 318T224 317L220 312L117 93Q113 66 99 47T73 4Q70 4 61 2T49 0Q48 0 43 2T34 4Q32 5 28 7T24 10V34L147 278ZM415 334Q415 324 422 303T438 255T456 205T468 166Q469
170 472 181T480 205T487 228T492 244Q493 245 495 249T498 254Q501 264 507 279T518 309T528 335T532 346V356Q530 356 527 356T522 355Q516 355 501 352T468 346T436 340T415 337V334ZM103 390Q117 379 137 375T176 371Q184 371 189 380T194 397V400Q192 400
180 402T166 405Q165 405 156 405T136 402T114 397T103 390ZM260 386Q247 386 247 371H287L292 375Q285 380 277 383T260 386Z" />
<glyph unicode="I" glyph-name="I" horiz-adv-x="722" d="M454 127Q427 109 397 92T335 61T269 39T202 30Q162 30 137 51T97 103T73 169T54 234Q50 246 43 253T29 267T16 283T10 305Q10 315 21 323T41 332Q50 332 58 324T79 307T106 290T141 282Q154 282 171 282T200
287Q209 291 210 293T211 298T212 301T225 302Q233 302 243 301T263 295T277 283T283 265Q283 247 271 243T244 238Q237 238 218 238T178 237T139 235T112 234Q116 215 122 189T138 139T165 99T209 82Q240 82 270 89T328 109T382 138T434 170Q438 174 438 176T439
183Q439 220 432 258T424 336Q424 362 428 403T441 489T465 582T502 667T555 728T625 751Q643 751 654 741T673 714T685 677T691 637T693 601T693 575Q693 533 687 489T668 403T636 322T590 248Q570 222 548 204T502 161Q513 118 532 87T585 30Q589 26 589 24T590
16Q590 6 585 3T570 -1Q553 -1 543 4T524 18T507 35T489 53L454 127ZM477 342Q477 326 477 313T478 288T480 263T483 234Q484 229 486 222T489 215H493Q494 215 500 220T513 233T529 249T542 264Q598 328 621 406T645 571Q645 574 645 583T645 602T644 622T644
634Q643 637 642 645T637 663T632 680T629 692Q628 694 627 697T625 702Q595 699 573 678T534 623T507 550T489 471T480 398T477 342Z" />
<glyph unicode="J" glyph-name="J" horiz-adv-x="474" d="M136 -363Q136 -305 155 -255T204 -159T267 -68T328 23H324Q301 23 279 20T234 17Q187 17 150 51T88 136T48 247T34 355Q38 385 43 418T58 484T80 545T114 598T162 634T229 649Q248 649 264 639T291 614T310
579T321 541L355 179Q365 185 379 185T402 184H434Q441 177 445 176T456 175H463Q471 180 481 187T501 198T517 203T522 193T509 165T472 111Q466 97 453 86T427 63T404 39T394 11Q394 9 394 5T395 -1L434 -196Q434 -196 434 -207T435 -233T437 -263T438 -289V-294Q438
-329 428 -370T398 -448T347 -508T274 -533Q240 -533 215 -517T172 -477T145 -422T136 -363ZM185 -369Q185 -386 191 -406T208 -443T235 -472T271 -484Q306 -484 327 -462T360 -408T377 -342T381 -284Q381 -250 379 -221T372 -162T362 -104T346 -41L342 -45Q339
-48 329 -62T306 -94T281 -130T264 -158Q249 -182 235 -207T210 -258T192 -312T185 -369ZM87 367Q87 322 94 270T119 172T165 97T239 67Q244 67 256 66T282 66T307 70T318 83Q318 84 318 84T317 87V91L268 531Q266 542 261 553T249 573T233 589T212 596Q175 596
151 570T113 508T93 433T87 367ZM360 150Q360 149 360 148T361 145Q361 142 362 136T365 121T369 107T371 97Q372 97 373 96T376 95Q380 95 386 99T400 108T411 120T416 132Q416 136 416 140T410 145Q408 146 402 147T389 148T376 149T366 150H360Z" />
<glyph unicode="K" glyph-name="K" horiz-adv-x="653" d="M234 44Q232 37 222 31T204 24Q194 24 187 31T180 48Q180 49 180 53T181 58L242 302H234Q197 287 164 275T93 263Q77 263 64 269T41 287T26 313T20 344Q20 375 31 404T62 457T110 494T171 508Q197 508
222 502T268 478L277 498L321 780Q323 788 332 796T348 805Q366 805 373 791T381 760V756L326 438V416Q328 416 329 415T332 415Q333 415 336 417T344 423T353 429T360 434Q361 434 363 435T366 438Q429 484 491 533T609 639Q616 646 630 667T660 712T692 753T717
771Q727 771 734 764T742 746Q742 744 742 743T741 741Q741 739 739 734T736 726Q733 720 727 710T714 689T702 672T697 663L571 536L341 366Q337 362 337 361T336 354V349Q336 347 337 346L526 61Q528 52 533 46T543 35T551 23T555 7Q555 -4 552 -5T537 -7Q526
-7 516 -1T497 14T482 35T472 56L298 273L234 44ZM68 358Q68 340 76 326T104 311Q124 311 144 316T183 329T220 347T254 366Q254 368 254 374T255 382Q255 399 247 412T226 435T198 449T167 454Q147 454 129 447T98 427T76 397T68 358Z" />
<glyph unicode="L" glyph-name="L" horiz-adv-x="691" d="M405 49Q402 55 396 71T383 105T370 139T360 161Q358 165 357 169T351 175Q329 154 303 131T247 90T185 60T121 48Q86 48 66 72T35 131T21 202T18 261Q18 307 33 344T75 408T141 449T226 463Q259 463 284
448T326 408T355 354T375 298Q384 303 396 321T422 362T448 407T468 444Q471 449 481 469T504 514T527 559T541 585Q542 587 546 592T551 600Q550 600 550 601V603V606Q504 606 462 613T387 639T336 691T316 778Q316 781 316 793T317 809Q320 819 328 825T346 834Q355
836 359 824T367 792T376 749T395 706T431 670T492 653Q494 653 505 653T525 652Q530 652 539 652T558 652T576 655T589 663Q595 670 609 687T639 724T668 760T688 785Q705 802 726 819T770 849T818 870T869 878Q887 878 899 871T919 853T928 827T931 797Q931 768
917 746T879 707T830 678T779 658Q771 655 750 649T705 636T659 622T628 615Q621 608 613 598T600 580L477 355Q476 355 475 354T472 351Q472 349 469 344T463 332T457 319T454 312Q451 308 444 297T427 273T411 249T400 234V231V229Q407 203 412 185T423 149T437
113T458 68Q462 61 469 55T483 43T496 31T502 17Q502 -1 484 -1Q458 -1 438 14T405 49ZM68 271Q68 259 70 232T78 176T98 125T135 103Q162 103 183 115T229 137L332 234V238Q332 256 324 285T300 342T265 389T222 409Q189 409 161 401T112 376T80 333T68 271ZM860
824Q836 824 812 814T766 788T725 753T692 717Q688 713 683 705T672 691T662 679T658 673V668H662Q663 668 676 672T706 681T742 692T770 702Q785 707 804 715T841 736T871 763T883 797Q883 813 879 818T860 824Z" />
<glyph unicode="M" glyph-name="M" horiz-adv-x="1380" d="M594 68Q597 79 603 107T617 168T630 228T639 268Q642 283 642 305T643 349T644 390T643 421V507Q643 510 641 523T637 552T632 583T628 605Q626 616 623 630T613 657T597 679T572 688Q554 688 526 675T471
641T423 597T399 555L371 395V390Q369 380 366 363T359 330T353 302T350 287Q348 281 345 267T336 237T327 208T321 190Q319 185 312 169T297 134T282 99T273 78Q267 64 263 52T252 30T235 15T208 9Q205 9 200 9T194 10L190 20Q190 21 190 25T189 34T189 44T189
52Q189 185 234 312V317Q234 319 238 333T249 364T261 400T273 429Q276 437 285 456T306 497T327 538T341 566Q346 580 346 597T346 629Q346 632 346 637T346 649T346 660T346 668Q343 692 319 692H316Q312 691 305 690T297 688L112 600Q96 592 89 591T68 589Q49
589 37 598T24 629Q24 639 33 646T52 654Q63 654 69 649T85 643Q120 643 151 659T212 695T275 730T344 746Q357 746 366 739T383 721T395 699T405 678Q403 670 404 663T409 649Q427 665 446 681T488 711T534 733T582 742Q613 742 633 726T666 683T685 625T695 559T701
496T706 444Q719 473 738 507T782 574T835 637T896 690T962 727T1033 741Q1076 741 1099 722T1133 674T1144 609T1146 540V478L1111 107Q1111 106 1111 100T1111 90Q1111 80 1111 72T1116 53Q1119 53 1129 53T1143 52Q1185 52 1222 65T1297 98Q1304 102 1308 105T1316
111T1325 116T1338 118Q1347 118 1351 116T1355 104Q1355 91 1342 79T1307 55T1259 35T1209 19T1164 8T1135 4Q1089 4 1071 22T1052 89V117L1086 507Q1086 508 1086 513T1086 526T1087 541T1087 553Q1087 570 1088 593T1085 637T1069 673T1033 688Q1023 688 1009
684T981 674T954 662T935 653Q886 629 848 588T781 496T733 391T701 287Q700 276 697 250T689 193T680 136T673 98Q670 82 668 65T660 33T645 9T616 0Q609 0 602 3T594 14V68ZM258 200Q256 201 256 198T258 195Q260 196 260 197T258 200ZM311 395Q304 384 296 361T280
311T268 258T263 215V210Q283 250 297 298T311 392V395Z" />
<glyph unicode="N" glyph-name="N" horiz-adv-x="1141" d="M726 53Q726 56 726 63T726 77T725 92T725 103Q725 172 735 241T751 381Q755 453 757 525T760 671Q760 686 760 709T757 753T742 790T706 805Q663 805 630 789T569 745T521 683T481 612T447 541T414 478L385
321V317Q383 309 380 295T374 266T368 241T365 229Q364 225 357 204T340 156T321 104T307 64Q300 46 291 43T265 39Q257 39 250 40T243 52Q243 108 256 159T288 260T324 360T350 463L394 722V822L199 722Q173 708 139 700T76 692Q50 692 37 700T24 736Q24 749 32
755T51 761Q59 761 63 758T72 751T80 744T93 741Q126 741 160 752T226 779T290 814T350 849Q364 856 377 864T407 873Q422 873 432 863T448 839T456 809T458 782V780Q457 776 455 761T451 729T446 697T444 678Q444 677 444 671T443 663Q443 661 443 656T444 649Q464
687 492 724T554 792T630 840T719 859Q754 859 775 838T806 786T820 723T823 664Q823 594 817 524T804 385T790 245T784 106Q784 98 784 83T790 58H792H795Q797 59 803 60T816 63T829 66T839 68Q845 72 862 82T899 104T936 126T960 141Q968 147 981 161T1008 193T1038
230T1065 266T1088 293T1102 303Q1111 303 1114 297T1117 283Q1117 254 1098 222T1047 159T976 99T898 48T824 13T765 0Q756 0 749 6T738 20T730 37T726 53Z" />
<glyph unicode="O" glyph-name="O" horiz-adv-x="658" d="M23 174Q23 176 23 181T23 194T24 206T24 215Q36 307 51 384T92 529T160 661T268 790Q281 802 300 801T337 800Q369 800 402 789T463 760H472Q490 760 508 767T543 783T578 798T614 805Q624 805 631 801T639
784Q639 777 623 769T584 752T542 737T516 726Q535 703 547 681T567 635T577 586T580 530Q580 454 561 385T506 254T417 142T297 53Q259 33 217 16T131 -1Q97 -1 76 16T43 59T27 115T23 174ZM82 185Q82 167 82 144T88 101T107 67T146 53Q178 53 210 65T271 95T328
135T380 175Q417 208 445 251T497 337Q515 378 521 421T527 509Q527 535 527 564T519 621T497 670T454 706Q448 706 436 704T409 700T383 695T365 692Q364 692 357 690T341 686T325 681T316 678H314Q304 678 299 682T290 692T281 701T265 706H263Q231 682 207 645T165
567T134 484T112 405Q109 395 105 369T96 313T87 257T82 220V185ZM380 746Q376 746 376 741T380 736Q384 736 384 741T380 746Z" />
<glyph unicode="P" glyph-name="P" horiz-adv-x="551" d="M160 605L166 615L190 726Q193 738 200 740T216 742Q236 742 240 733T244 705Q244 701 244 695T243 688L160 371V362Q160 356 162 352T175 351Q202 352 233 353T299 359T365 373T422 399T462 441T478 504Q478
551 453 598T388 684T301 747T207 771Q184 771 167 762T135 742T108 722T83 712Q63 712 63 732Q63 733 63 734T64 736Q72 757 87 773T120 801T160 818T203 824Q219 824 233 824T264 819Q313 797 361 768T449 700T512 612T536 503Q536 456 517 424T466 369T394 335T310
318T226 312T151 312L147 307L73 24Q70 13 60 7T39 0Q32 0 28 5T22 16T20 29T20 39L160 605Z" />
<glyph unicode="Q" glyph-name="Q" horiz-adv-x="634" d="M39 147Q38 160 36 195T31 270T27 345T24 395Q24 396 24 403T24 419T23 438T23 454Q23 508 36 568T80 677T157 759T271 791Q286 791 301 789T331 780Q343 784 352 786T369 789T386 790T406 791Q463 791
500 765T561 697T595 604T605 505Q605 418 577 342T492 200Q492 199 492 199T491 197L492 195Q494 193 499 185T507 175Q509 172 517 164T535 146T553 128T565 117V114Q565 105 558 101T543 97Q535 97 527 101T510 112T495 124T482 137Q479 139 474 143T464 151Q459
156 454 161L444 156Q412 130 379 103T309 52T233 14T148 -1Q117 -1 98 13T68 48T50 96T39 147ZM77 463Q77 445 77 408T76 325T81 230T95 141T122 75T165 49Q194 49 224 60T277 87Q284 93 302 107T340 136T379 166T405 185Q407 187 410 190T414 195Q414 195 415
197Q415 197 414 199V200Q414 202 412 205T409 210L337 307Q331 314 329 323T326 342Q326 349 329 355T340 361Q351 361 362 352T383 330T404 300T423 270T440 247T455 238H458Q480 256 495 280T522 330T542 385T555 438Q553 459 557 479T561 520Q561 553 553 591T528
663T484 719T417 742Q415 742 408 742T399 741Q400 738 402 733T407 721T412 708T414 697Q414 690 410 680T400 661T386 646T371 639Q361 639 358 642T355 652Q355 665 363 674T371 695Q371 703 364 709T349 719T331 725T316 727Q298 727 286 718T258 702L204 649Q199
643 189 643Q175 643 175 658Q175 667 180 677T193 696T209 714T224 726V732Q179 725 150 696T105 628T83 544T77 463Z" />
<glyph unicode="R" glyph-name="R" horiz-adv-x="624" d="M107 24Q115 44 122 68T136 118T147 168T151 215V224Q135 226 120 230T93 241T75 261T67 292Q67 312 73 324T103 337Q120 337 135 330T165 312L170 321L224 526Q222 552 226 578T247 624Q246 624 241 624T234
625Q218 625 202 621T172 610T142 598T112 589Q110 589 105 591T97 596Q94 595 87 593T72 590T57 588T48 585H43Q23 585 23 605Q23 615 36 621T67 632T103 642T130 653Q153 661 170 665T203 671T234 673T271 674Q311 674 351 665T424 634T477 579T498 498Q498 454
478 419T427 355T361 306T295 270T244 247T223 237V235Q223 234 224 234Q245 195 267 165T317 113T380 80T461 68Q476 68 491 72T520 80T549 89T578 93Q584 93 591 90T599 78Q599 62 577 51T526 33T471 23T436 20Q364 20 303 53T204 151H199Q197 139 194 115T183
66T164 23T136 4Q124 4 116 7T107 24ZM229 292H234Q236 293 241 295T247 298Q280 313 315 331T379 375T426 431T445 505Q445 532 431 554T394 591T345 615T295 624H282Q292 616 292 607T293 587Q293 584 293 578T292 571L229 317V292Z" />
<glyph unicode="S" glyph-name="S" horiz-adv-x="751" d="M248 166L53 39H47Q37 39 28 44T18 61Q18 69 22 75T34 87Q42 93 63 105T107 131T151 158T181 175Q185 179 193 184T207 195T219 205T224 210L147 366Q142 373 142 377T141 390Q141 420 170 420Q174 420
188 415T224 400T268 379T310 359T342 344T355 337L444 429Q447 441 461 458T492 494T520 532T532 568V571L463 732Q453 755 451 781T448 834Q448 856 455 878T475 919T508 948T553 960Q580 960 597 945T625 906T640 858T644 811Q644 751 631 697T594 585V571Q617
528 641 482T684 387T715 288T727 188Q727 149 715 116T679 57T624 18T551 4Q506 4 466 17T388 53T317 105T254 166H248ZM298 200Q298 199 303 193T316 180T332 164T346 151Q349 148 356 143T371 131T385 119T394 112Q400 109 412 102T436 88T459 75T472 68Q495
58 514 56T554 53Q584 53 605 64T641 95T661 140T668 192Q668 220 664 250T649 307L562 516L483 405L298 204V200ZM220 332Q220 330 221 325T224 317Q228 310 234 298T247 276T258 257T264 248H268Q271 248 280 256T299 274T317 292T326 302L321 307L234 332H220ZM501
835Q501 779 518 734T561 639Q566 642 570 651T577 672T582 694T585 706Q585 708 586 716T589 734T591 755T594 770V773Q594 777 594 798T590 843T579 887T555 907Q539 907 528 901T512 885T504 862T501 835Z" />
<glyph unicode="T" glyph-name="T" horiz-adv-x="526" d="M238 112L287 697L293 706L39 726Q30 727 22 732T13 748Q13 755 15 758T25 766H68Q202 766 336 761T605 751Q611 746 615 740T620 726Q620 719 612 711T596 702H339Q339 649 332 601T321 498Q320 490 319
465T316 406T312 334T308 263T304 204T302 170Q301 162 302 146T305 112T305 75T299 39T284 13T258 3Q256 3 251 3T244 4L238 14V112Z" />
<glyph unicode="U" glyph-name="U" horiz-adv-x="1081" d="M341 68Q341 91 344 114T350 161T356 207T355 254L382 445L298 332L83 121Q73 106 66 94T39 82Q26 82 23 88T20 106Q20 122 25 132T44 156L268 371L351 483Q355 491 360 502T373 523T386 542T395 555Q412
614 436 673T493 785Q499 796 514 796Q523 796 532 791T542 776Q542 775 542 773T541 770Q541 769 539 761T536 751Q523 725 509 692T481 622T458 550T445 483L400 121V58Q409 62 430 73T474 98T518 124T546 141Q553 147 572 161T612 191T651 223T679 244Q681 247
692 257T716 282T741 310T761 332Q772 344 784 359T806 391T825 426T839 458L931 800Q932 805 935 814T943 832T954 847T970 853Q983 853 989 842T996 820Q996 817 995 812T994 805L960 629V624L892 434L863 185Q862 183 862 180V171Q862 150 863 131T870 99T888
76T924 67Q999 119 1043 137T1106 153T1119 131T1085 89T1013 44T908 13Q877 13 857 26T826 60T810 107T805 161Q805 198 809 234T814 307V321Q814 321 812 320T809 317Q791 295 776 276T743 238T705 201T658 166L424 14Q414 7 400 3T373 -1Q362 -1 354 6T341 24V68ZM819
337Q815 337 815 332T819 326Q823 326 823 331T819 337Z" />
<glyph unicode="V" glyph-name="V" horiz-adv-x="452" d="M98 326L20 697Q20 698 19 702T18 709Q18 721 25 728T43 736Q49 736 58 732T68 722L103 615L170 234L175 224Q187 244 196 268T214 316T230 365T248 409Q251 414 263 437T291 488T322 545T346 589Q355
607 373 632T412 680T454 719T493 736Q500 736 508 731T517 717Q517 715 517 707T514 690T509 675T498 668Q496 668 491 669T483 673Q451 646 425 614T376 546T335 474T298 400Q296 397 291 384T280 356T270 328T264 312Q263 310 261 307T258 302L200 112L190 14Q190
9 185 6T173 2T160 0T150 -1Q145 -1 139 0T131 10L98 317V326Z" />
<glyph unicode="W" glyph-name="W" horiz-adv-x="846" d="M390 273Q341 211 281 156T160 53Q157 51 149 48T137 44Q127 44 117 49T107 66V68L170 361V371Q175 396 180 416T188 453T193 489T195 527Q195 539 195 549T190 571Q188 571 183 571T175 571Q154 571 136
558T102 530T72 501T43 488Q32 488 25 496T18 515Q18 531 38 551T86 588T143 617T189 629Q209 629 221 621T241 599T251 570T254 536V517L175 137H181Q182 137 190 143T210 159T233 179T254 195Q274 214 289 229T317 261T342 296T371 341Q372 344 377 353T388 374T400
397T409 415Q416 426 421 435T441 445Q454 445 461 436T468 415Q468 372 461 329T453 242Q453 237 453 228T453 209T454 193T454 185Q454 184 455 175T457 157T460 137T463 121Q463 120 465 112T470 94T477 76T488 67H490Q491 67 492 68Q507 72 532 93T585 145T639
212T683 283Q684 285 690 308T706 361T723 422T736 472Q737 475 739 487T743 512T747 539T751 561V571Q751 577 751 581T745 589V619Q745 630 745 643T749 669T761 689T785 697Q800 697 806 686T814 659T814 628T813 605Q850 605 888 605T963 610T1036 624T1107
653H1136Q1136 634 1117 619T1067 592T998 570T923 555T855 547T805 546L800 536L745 307Q729 268 712 233T668 162T605 91T511 14Q497 -1 473 -1Q458 -1 446 12T425 43T411 80T405 112L390 273Z" />
<glyph unicode="X" glyph-name="X" horiz-adv-x="766" d="M20 24Q21 27 22 32T24 39L215 283Q216 283 217 284T220 287Q220 289 225 295T236 310T247 324T254 332Q258 337 270 349T297 376T323 402T341 419L351 434V536Q351 539 347 545T339 551H337Q290 539 241
519T151 483Q129 477 116 475T83 472Q68 472 61 476T53 498Q53 508 59 514T74 524T93 527T112 526Q124 531 154 541T217 563T280 585T321 600Q323 601 331 603T341 605H346Q369 605 382 593T402 562T409 522T409 483L643 688Q646 689 653 693T662 697Q675 697 681
690T688 673Q688 668 688 663T683 653L405 405V400Q405 371 406 334T412 258T426 184T450 121T487 77T543 59Q590 59 625 70T685 98T726 134T755 170T775 197T792 209Q794 209 798 209T804 208Q805 206 807 201T809 193Q809 193 808 189T805 180T802 171T799 165Q777
117 754 87T701 39T632 14T538 6Q504 6 478 23T432 67T398 130T374 204T357 281T346 351L283 287L92 53Q86 49 81 40T69 22T55 7T39 0Q20 0 20 20V24Z" />
<glyph unicode="Y" glyph-name="Y" horiz-adv-x="1015" d="M375 -386Q375 -372 376 -361T378 -339T382 -315T390 -283Q400 -266 407 -249T420 -214T434 -180T454 -146Q493 -88 540 -38T639 59L680 371L541 54Q536 43 527 27T505 -6T478 -33T448 -44Q436 -44 428
-32T416 -4T411 29T409 54Q409 56 409 61T410 68Q411 85 414 114T421 171T426 220T429 244L532 697V719Q532 735 531 751T524 778T507 797T475 805Q458 805 434 796T395 776Q387 770 371 759T340 736T313 715T298 702L73 483Q66 476 58 474T41 472Q29 472 25 477T20
496Q20 505 21 518T26 544T38 566T56 576Q61 576 64 573T70 566T75 559T80 555H82Q83 555 83 556L298 761Q316 778 339 796T387 827T440 850T495 859Q517 859 536 848T568 819T588 780T589 736L472 157Q470 141 469 130T468 107T469 84T470 55Q474 55 474 54T478
59Q481 65 487 73T498 90T508 105T512 112L746 649Q751 658 755 658T767 659Q777 659 788 655T800 637V629L717 244Q710 216 708 192T706 142V117Q722 129 746 143T799 170T860 197T921 219T977 235T1021 241Q1027 241 1036 240T1054 235T1069 225T1075 210Q1075
204 1072 195T1060 188Q1058 188 1050 192T1040 197Q1038 197 1033 196T1021 194T1009 191T1001 188Q961 184 917 173T832 143T756 101T702 44L697 30Q697 30 696 8T694 -43T690 -104T688 -156V-180L658 -390Q653 -420 641 -452T608 -510T560 -554T498 -572Q494
-572 483 -572T468 -571Q441 -563 424 -542T395 -494T380 -438T375 -386ZM428 -383Q428 -396 431 -419T441 -463T461 -501T495 -517Q517 -517 535 -504T566 -470T589 -427T600 -385L634 -77V-20Q597 -53 560 -94T493 -181T446 -278T428 -383Z" />
<glyph unicode="Z" glyph-name="Z" horiz-adv-x="729" d="M39 -527Q40 -521 43 -507T50 -478T58 -449T64 -429Q88 -373 123 -322T200 -225T288 -136T381 -54Q392 -48 413 -34T453 -2T487 33T502 61Q502 85 498 107T483 146T455 174T411 185Q376 185 342 177T275
154T212 119T156 77Q154 77 150 77T144 76Q135 76 126 81T117 97Q117 99 119 104T121 112L311 428Q335 466 340 501T346 579Q316 579 279 566T205 533T136 488T83 438Q77 432 75 422T70 403T63 387T48 380Q40 380 35 385T26 398T20 414T18 427Q18 447 28 461T53
488Q81 508 117 533T192 581T271 619T351 634Q383 634 396 621T410 573Q410 555 409 540T400 507L287 273Q285 269 280 260T268 241T257 222T248 209Q247 208 246 205T243 200Q244 200 245 200T248 199Q257 199 264 204Q307 217 345 227T428 238Q471 238 491 225T523
192T541 147T566 97L756 247L760 254Q762 244 771 243T787 241T793 235T772 212T709 157T589 58L566 34Q571 -86 552 -190T486 -381T364 -538T181 -659Q178 -659 172 -660T159 -661T146 -662T137 -663Q113 -663 95 -653T64 -625T45 -587T39 -545V-527ZM98 -571Q101
-581 106 -590T121 -606H144Q165 -606 186 -600T227 -583T265 -559T298 -532Q356 -475 396 -422T461 -310T497 -186T508 -37Q508 -34 508 -24T507 -10Q335 -140 194 -308Q175 -332 158 -358T127 -413T105 -472T97 -535Q97 -539 97 -553T98 -571Z" />
<glyph unicode="[" glyph-name="bracketleft" horiz-adv-x="465" d="M16 785Q16 793 26 798T41 805L390 880Q391 880 397 880T407 881Q420 881 426 878T432 859Q432 854 431 848T423 839L91 764Q83 762 83 757T83 744V731Q84 720 86 688T92 612T100 519T107 427T113
351T116 308Q117 293 117 263T118 196T118 117T118 38T118 -30T116 -75L124 -116H183L581 -55V-67Q577 -68 569 -70T550 -75T531 -83T515 -91L116 -183Q115 -183 113 -183T108 -184Q98 -184 91 -180T79 -167T71 -150T67 -132Q56 -48 55 37T55 207T57 377T49 548Q49
553 47 571T41 613T34 664T26 715T20 757T16 780V785Z" />
<glyph unicode="\" glyph-name="backslash" horiz-adv-x="515" d="M7 676Q7 688 12 693T30 698Q45 698 60 688T83 664L490 58Q498 47 498 42T499 23Q499 9 493 4T473 -1Q466 -1 464 0T456 8L67 598Q62 604 52 614T32 634T15 656T7 676Z" />
<glyph unicode="]" glyph-name="bracketright" horiz-adv-x="697" d="M151 -95Q151 -85 163 -79T183 -75Q188 -75 200 -74T228 -73T255 -72T274 -71Q283 -71 297 -71T326 -72T352 -74T365 -75Q377 -77 408 -84T473 -100T538 -119T581 -132H603Q603 -77 600 -19T593
97T588 213T589 324L540 747Q539 751 536 760T532 772H528Q461 772 395 768T260 764Q253 764 231 764T178 765T117 768T60 774T19 787T8 805Q9 807 12 810T19 818T27 826T33 831H40Q107 831 173 823T308 814Q364 814 418 818T526 823Q528 823 538 823T559 823T579
818T589 805L648 341Q643 284 647 225T657 107T668 -11T674 -128Q674 -134 674 -144T674 -164T673 -182T673 -191L664 -207H623Q568 -185 510 -165T391 -129T271 -104T151 -95Z" />
<glyph unicode="^" glyph-name="asciicircum" horiz-adv-x="507" d="M224 822Q210 822 193 797T157 735T121 655T89 575T63 514T46 489Q33 489 25 496T16 519Q16 520 20 535T31 572T48 621T66 670T84 710T100 730L207 905Q208 906 211 909T219 917T226 924T232
930H237H240Q243 928 247 924T255 917T262 910T265 905L482 415V411V407Q481 405 478 402T472 398Q459 409 444 424T416 456T391 490T373 523L240 813Q238 820 234 821T224 822Z" />
<glyph unicode="_" glyph-name="underscore" horiz-adv-x="1228" d="M16 33Q18 36 24 42T33 49Q175 60 317 69T602 87T886 107T1170 132Q1190 129 1197 123T1204 99Q1204 95 1204 90T1203 81T1198 75T1187 75Q922 50 656 29T124 7Q119 7 106 7T79 7T51 8T33 8Q31
10 25 16T16 25Q15 26 15 27V30L16 33Z" />
<glyph unicode="`" glyph-name="grave" horiz-adv-x="447" d="M169 715Q169 742 176 747T195 745T223 717T258 678T299 641T343 616Q363 609 361 604T343 596T304 595T255 608T207 638T175 692Q175 692 174 695T172 702T170 710T169 715Z" />
<glyph unicode="a" glyph-name="a" horiz-adv-x="545" d="M22 30Q22 33 22 45T22 61Q5 121 17 179T62 283T145 361T256 400H274Q296 400 310 391T333 366T345 332T349 294Q349 268 344 244T332 194T320 145T314 93V87Q315 85 316 76T319 64Q321 64 329 64T339
63Q349 63 358 63T378 68L568 156Q569 156 571 156T575 157Q585 157 591 151T598 135Q598 130 598 126T592 117Q585 112 567 103T527 83T488 62T461 49Q447 41 430 35T395 22T360 13T328 9Q306 9 292 16T271 36T262 66T261 103Q241 87 218 69T170 36T119 10T66
-1Q51 -1 39 6T22 30ZM76 51Q99 51 127 64T182 98T231 140T265 181Q266 211 273 238T281 295Q281 297 281 301T280 307Q267 318 258 320T234 322Q232 322 226 322T217 321Q211 316 197 303T168 273T139 243T120 224Q119 224 116 221T110 212T104 203T100 195L76
78V51Z" />
<glyph unicode="b" glyph-name="b" horiz-adv-x="522" d="M101 137Q100 137 99 135T95 131Q83 110 76 90T62 44Q55 34 48 32T30 29Q7 29 7 49Q18 93 26 120T40 167T50 202T60 232T70 269T83 321T101 399T125 512L159 596Q163 605 168 607T181 610Q190 610 198
605T208 589Q208 587 208 581T208 569T209 557T209 548Q209 495 201 457T178 386T146 320T111 244Q138 275 173 297T250 319Q254 319 265 318T281 317Q302 311 317 294T342 256T355 211T359 168Q359 148 355 126T345 83H355L500 121Q520 127 540 142T574 170H576Q577
170 577 170T579 171Q588 171 593 166T599 151Q599 133 585 118T550 93T509 75T476 64Q466 61 442 55T389 41T336 28T301 20Q286 12 273 6T244 -1Q221 -1 194 10T144 40T108 84T101 137ZM125 152Q140 152 149 140T171 112T201 85T255 73H276Q285 82 290 96T298
124T301 154T301 182Q301 196 298 211T288 240T269 261T239 269Q219 269 198 257T158 225T126 185T106 147Q111 151 115 151T125 152Z" />
<glyph unicode="c" glyph-name="c" horiz-adv-x="522" d="M20 137Q25 188 43 234T86 313T136 364T181 375Q186 378 189 380T195 385T201 389T212 391Q226 391 237 382T256 360T269 333T274 306Q274 293 264 288T241 283Q233 283 227 286T217 295T207 305T194 312H193H190Q189
311 186 308T181 302Q160 277 142 258T111 218T90 175T82 120Q82 117 82 111T82 99T83 87T83 78Q85 68 94 63T112 53Q115 53 127 53T141 52Q177 52 226 63T324 94T418 139T488 195Q494 203 498 217T508 244T521 268T542 278Q555 278 558 268T562 247Q562 215 547
189T508 142T458 105T405 78Q398 76 375 67T324 48T272 29T234 14Q218 9 207 7T187 2T169 0T146 -1Q110 -1 87 8T49 34T29 77T20 137Z" />
<glyph unicode="d" glyph-name="d" horiz-adv-x="569" d="M258 151Q253 146 239 134T210 109T180 84T160 68Q158 67 149 62T127 49T103 35T83 24Q71 18 66 16T51 13Q35 13 18 23T0 53V161L14 234Q25 276 39 302T74 346T124 373T194 390Q196 391 207 395T220 400H234Q250
400 262 393T287 375L337 589Q335 600 337 619T344 659T359 693T380 707Q395 707 403 696T409 668L355 341Q337 298 329 255T320 166Q320 145 323 124T334 86T358 59T397 48Q450 48 502 67T594 121Q596 121 597 121T600 122Q608 122 614 117Q614 115 614 111T615
105Q615 89 602 75T569 49T524 28T475 12T429 2T396 -1Q361 -1 338 10T299 43T275 91T263 151H258ZM63 190Q63 184 62 170T59 140T56 109T53 87Q53 85 53 77T52 67Q66 67 88 78T134 108T183 150T227 197T260 242T273 281Q273 286 266 295T249 312T230 326T213 332Q192
339 165 329T113 297T74 247T63 190Z" />
<glyph unicode="e" glyph-name="e" horiz-adv-x="370" d="M16 156Q18 162 22 177T31 211T39 245T45 268Q51 292 59 320T83 372T121 411T180 427Q193 427 198 418T208 397Q208 393 208 383T209 368Q209 325 201 292T175 231T132 179T75 127Q74 124 72 117T70 107V105Q70
87 76 76T92 59T116 51T146 49Q193 49 236 62T315 104Q320 109 327 118T343 138T360 155T379 163Q389 163 391 155T393 139Q393 117 380 98T345 63T296 35T241 15T190 3T148 -1Q95 -1 60 16T11 87L16 156ZM159 353Q139 335 128 321T110 291T99 257T89 215Q108 230
120 245T141 276T153 310T159 353Z" />
<glyph unicode="f" glyph-name="f" horiz-adv-x="499" d="M-14 -322Q-14 -319 -14 -313T-14 -300T-14 -289T-14 -283L21 30Q28 67 33 88T41 121Q45 133 49 137L122 371Q126 383 137 405T162 450T194 487T228 503Q235 503 240 498T248 486T253 471T255 458Q255
412 243 364T210 270T162 181T103 107L88 53Q201 55 307 90T512 176H517Q526 176 529 170T533 156Q533 148 530 142T517 131Q438 82 348 51T166 4Q184 -16 196 -29T215 -55T226 -87T230 -136Q230 -214 194 -272T98 -381Q84 -392 64 -404T24 -416Q7 -416 -1 -405T-12
-380T-15 -349T-14 -322ZM68 -39Q64 -70 59 -109T50 -189T43 -271T40 -348Q67 -348 92 -325T138 -268T171 -199T185 -141Q187 -113 182 -94T164 -61T133 -38T88 -20H83Q76 -20 73 -26T68 -39ZM191 390Q190 390 187 383T180 366T172 347T166 332Q163 324 159 312T152
287T145 265T142 254V248Q161 282 177 319T195 395L191 390Z" />
<glyph unicode="g" glyph-name="g" horiz-adv-x="531" d="M88 -488Q83 -473 80 -460T75 -436T74 -413T73 -385Q73 -383 73 -378T73 -366T73 -354T74 -346Q85 -297 98 -250T131 -158T177 -74T244 0Q245 5 247 20T252 51T256 81T259 103Q259 105 259 112T258 122H255Q220
104 188 91T118 77Q97 77 83 84T59 103T46 131T40 166L64 239Q73 264 86 292T117 347T158 394T210 425Q249 431 282 423T341 400T381 368T400 337Q398 322 391 306T376 273T359 243T346 220Q338 202 332 182T322 141T315 99T312 59V44Q363 74 422 91T539 108Q546
108 557 108T579 106T598 97T606 78Q606 59 585 59Q582 59 571 60T556 64Q549 63 532 60T495 53T458 45T434 40Q431 39 423 36T404 28T385 21T372 14Q364 12 354 7T333 -4T316 -14T308 -20L298 -34L274 -287Q271 -313 260 -350T229 -421T183 -478T120 -502Q110
-502 103 -500T88 -488ZM122 -390Q123 -399 124 -416T131 -444Q150 -439 166 -417T193 -366T211 -311T220 -268Q224 -245 226 -225T231 -186T234 -149T235 -110Q235 -107 235 -97T234 -83Q207 -118 189 -154T159 -227T138 -305T122 -390ZM98 147Q101 139 106 133T122
127Q163 127 195 144T253 190T296 251T328 317V321Q312 354 292 363T249 367T203 341T160 297T123 245T98 196T88 159T98 147Z" />
<glyph unicode="h" glyph-name="h" horiz-adv-x="504" d="M229 225Q227 229 223 236T212 244Q193 244 174 228T137 189T107 143T91 107Q87 94 87 76T85 42T74 15T44 4Q31 4 27 9T22 28Q29 76 34 107T44 161T53 207T64 262T77 340T94 459Q94 474 96 501T103 560T118
624T140 683T172 725T214 742Q231 742 241 731T257 703T264 670T265 641Q265 616 261 594T251 549T238 504T226 459L162 337L126 259L131 248Q152 273 174 286T229 302Q244 303 254 293T272 268T282 236T287 210Q287 204 286 191T284 161T283 126T284 91T292 64T310
50Q349 55 379 63T433 87T471 127T495 186Q502 196 515 196Q530 196 534 185T539 161Q539 121 514 91T449 40T365 10T282 -1Q258 -1 249 15T239 55T238 103T238 142Q238 147 237 158T235 183T231 208T229 225ZM147 465Q147 462 147 455T147 442T148 431T148 425L153
420Q163 426 171 441T187 477T199 521T209 568T215 610T218 641Q218 645 218 656T216 669L211 679Q187 660 174 634T155 580T148 522T147 465Z" />
<glyph unicode="i" glyph-name="i" horiz-adv-x="357" d="M22 210Q23 215 28 228T38 256T49 284T56 302Q62 318 67 323T88 328Q104 328 109 317T114 291Q114 265 107 244T90 201T74 155T66 98Q66 94 66 87T67 72T71 59T79 53Q105 53 131 63T183 88T232 120T275
151Q282 156 285 161T292 170T299 178T314 182Q327 182 335 177T344 157Q344 151 344 146T338 137Q337 134 331 129T317 119T304 109T295 103Q294 103 290 101T284 98Q283 97 282 96T280 93Q259 77 235 61T183 31T128 8T71 -1Q47 -1 35 11T16 43T9 83T8 121L22
210ZM70 473Q70 491 77 497T102 503Q111 503 120 500T129 483Q129 470 117 459T92 448Q80 448 75 455T70 473Z" />
<glyph unicode="j" glyph-name="j" horiz-adv-x="277" d="M-236 -372Q-236 -312 -213 -254T-154 -142T-72 -44T18 34Q22 49 25 63T33 94V98Q27 118 27 147T29 205T39 254T52 274Q65 274 72 266T80 244Q80 210 87 172T95 100V87Q144 113 193 130T299 147Q304 147
311 147T325 144T335 137T340 124Q340 112 330 108T310 103Q299 101 277 96T229 84T175 67T125 44T86 17T67 -14Q62 -44 62 -77T61 -143T50 -207T18 -264L-109 -400Q-115 -407 -125 -416T-148 -432T-173 -444T-199 -449Q-212 -449 -220 -440T-231 -418T-235 -392T-236
-372ZM-187 -371Q-186 -374 -185 -379T-182 -385Q-182 -385 -180 -386Q-175 -386 -167 -381T-152 -369T-138 -357T-132 -351Q-101 -321 -76 -295T-33 -240T-6 -178T4 -98V-49Q-28 -68 -61 -106T-123 -191T-169 -284T-187 -369V-371ZM51 358Q51 371 61 381T84 391Q94
391 103 385T112 369Q112 356 101 344T76 332Q64 332 58 340T51 358Z" />
<glyph unicode="k" glyph-name="k" horiz-adv-x="465" d="M18 4Q17 7 17 17T17 30Q17 62 28 92T57 151L111 292L164 488L208 575Q210 580 215 580T226 580Q247 580 252 565T257 533Q257 473 239 421T193 317Q211 328 229 335T269 342Q295 342 311 333T345 302Q346
300 346 289T346 275Q346 245 332 218T296 169T247 130T193 103V98Q193 88 199 81T213 68T230 60T247 57Q269 57 293 59T340 66T385 80T423 103Q431 109 440 122T457 148T473 171T485 181Q497 181 502 171T508 150Q508 149 508 146T507 141Q488 101 464 75T408
33T339 11T253 4Q213 4 186 18T140 68Q139 72 137 78T132 91T125 104T115 112L67 10Q64 3 56 1T40 -1Q34 -1 29 -1T18 4ZM150 193Q150 190 153 183T160 169T168 157T177 151Q181 151 187 153T199 158T211 164T219 170Q222 174 230 183T247 202T265 221T276 234Q277
236 279 241T284 251T289 261T292 268Q292 269 292 270T292 273Q292 276 292 278T286 283H267Q255 283 245 282T223 273Q220 270 211 263T193 247T175 230T164 220Q162 217 156 207T150 193Z" />
<glyph unicode="l" glyph-name="l" horiz-adv-x="294" d="M22 181Q22 181 23 182T26 185Q28 194 34 216T47 263T60 311T70 341Q71 345 76 358T89 388T103 420T113 444Q120 458 134 481T167 524T206 560T243 576Q252 576 257 571T265 560T269 545T270 531Q270 479
256 428T216 329T157 241T84 166Q83 163 82 154T79 141V139Q79 119 89 107T115 90T148 82T184 80Q193 80 210 89T246 109T283 130T310 139Q319 139 324 133T329 118Q329 103 306 86T253 55T196 30T159 20Q129 14 103 19T58 38T27 71T11 112L22 181ZM211 479Q202
479 191 465T168 431T149 395T139 371Q136 364 130 348T118 315T107 281T99 258H104Q104 258 110 265T123 283T139 303T152 321Q156 327 163 339T172 355Q176 366 183 384T196 421T206 452T211 468V479Z" />
<glyph unicode="m" glyph-name="m" horiz-adv-x="687" d="M18 24Q21 49 26 71T37 116T50 161T67 215V220Q27 197 11 197T-6 209T4 241T32 278T66 305T94 308Q106 308 113 304T130 292Q153 310 173 321T221 332Q265 332 287 312T320 248Q337 265 351 279T381 304T417
320T460 326Q480 326 499 311T526 278Q526 274 526 260T526 241Q526 207 518 176T510 111Q510 97 513 83T535 68Q559 68 578 78T614 102T644 134T669 165T691 190T711 200Q718 200 726 195T735 181Q735 180 735 178T734 175Q724 144 705 116T661 67T606 33T541
20Q509 20 487 28T453 68Q453 71 453 81T452 94Q452 132 459 167T467 238Q467 241 467 251T466 264Q462 269 454 269T438 269Q417 269 398 254T363 216T335 165T313 108T299 55T292 14L281 4H247Q238 4 238 13T237 28Q237 52 240 76T248 125T257 175T262 224Q261
232 260 241T256 259T247 272T230 278Q214 278 199 272T172 257T150 234T136 204L76 10L67 0Q67 0 61 0T52 -1Q41 -1 30 1T18 20V24Z" />
<glyph unicode="n" glyph-name="n" horiz-adv-x="461" d="M9 20L43 220V248L63 381Q66 385 74 385T85 386Q93 386 103 381T114 366V298Q118 301 128 310T149 329T171 348T184 361Q195 371 210 378T240 385Q269 385 285 367T302 321Q302 319 302 319T301 316V312L263
141V60Q294 60 327 72T392 104T450 147T497 195H501Q508 195 512 191T517 179Q517 157 503 136T466 95T414 59T356 30T300 11T254 4Q235 4 224 11T208 29T201 55T199 85V98L238 292V325Q214 325 191 304T149 253T117 192T97 141Q95 134 91 116T84 78T77 40T73 14Q74
8 70 5T59 1T47 -1T36 -1Q27 -1 18 2T9 17V20Z" />
<glyph unicode="o" glyph-name="o" horiz-adv-x="484" d="M16 78Q16 79 17 85T19 97T21 109T22 117V121V127L36 190Q53 226 71 259T114 317T169 357T246 372Q255 372 268 367T295 353T320 337T338 321Q369 326 383 326T407 327T428 331T464 344Q481 349 497 349Q504
349 510 343T517 329Q517 319 510 311T493 301L368 273L357 268Q356 214 333 165T272 79T184 21T80 -1Q76 -1 67 -1T55 0Q33 9 25 33T16 78ZM80 58Q81 53 88 53T98 53Q134 53 172 71T240 119T290 186T310 262Q278 262 246 267T184 273H183L100 185Q93 178 89 166T83
140T80 112T79 87Q79 84 79 73T80 58Z" />
<glyph unicode="p" glyph-name="p" horiz-adv-x="418" d="M-31 -213Q-31 -184 -24 -149T-9 -78T6 -8T13 56V64L37 131Q50 160 67 191T105 248T155 293T218 317Q230 319 244 313T270 296T291 273T301 248Q301 246 301 240T301 227T301 214T301 205Q301 177 293
151T285 101V98Q288 100 299 105T324 116T356 129T390 142T418 151T436 155Q448 155 450 152T453 140Q453 129 440 118T407 97T362 79T315 63T275 50T252 40Q241 32 232 23T212 7T191 -5T166 -10Q145 -10 126 1T90 25L85 21Q85 20 79 -6T64 -66T47 -135T33 -188Q31
-199 30 -210T26 -232T14 -250T-8 -257H-21Q-27 -245 -29 -236T-31 -213ZM103 82Q114 75 126 74T149 74T172 79T195 82Q197 82 204 82T212 83Q224 89 231 105T241 139T246 174T247 202Q247 211 246 221T242 239T232 254T215 260Q213 260 209 260T202 259Q198 247
186 227T160 184T135 142T124 110L103 82Z" />
<glyph unicode="q" glyph-name="q" horiz-adv-x="511" d="M154 -268Q150 -212 149 -154T149 -39Q133 -26 126 -18T119 9Q119 31 129 36T159 41Q159 58 161 73T163 106Q151 106 139 101T114 90T88 79T59 73Q44 73 35 80T20 100T14 125T13 150Q13 166 15 184T17
224Q70 305 110 347T181 403T230 412T262 389T279 354T285 324Q285 286 274 251T249 181T224 109T212 30V24Q252 33 294 42T379 66T459 101T526 151Q526 151 527 151T530 152Q539 152 544 146T550 130Q550 112 530 96T479 64T409 34T334 7T266 -17T218 -39Q220
-46 223 -57T229 -81T232 -104T232 -122L207 -268Q206 -275 195 -279T176 -284Q168 -284 162 -281T154 -268ZM71 126Q72 125 75 123T81 121Q109 121 132 141T174 189T204 247T222 298Q223 300 223 304T224 310Q232 341 228 354T198 351H191Q184 351 185 350T181
343Q176 339 163 329T136 306T108 283T90 268Q82 257 78 244T72 216T70 186T70 158Q70 155 70 143T71 126Z" />
<glyph unicode="r" glyph-name="r" horiz-adv-x="454" d="M-22 119Q6 140 19 160T41 200T54 242T70 292Q66 299 66 304T65 318Q65 326 67 337T75 357T87 374T104 381Q103 377 115 372T146 361T186 348T223 333Q241 323 248 312T256 279Q256 260 252 236T243 188T234
139T229 94V68Q228 59 233 59T244 58Q256 58 266 62T286 71T307 80T328 87L416 141Q420 148 426 152T439 161Q449 167 463 178Q470 184 478 190H508Q511 190 512 184T513 175Q513 163 496 145T452 108T392 71T328 37T270 13T229 4Q211 4 200 13T182 35T173 63T170
94Q170 105 177 125T193 166T209 207T216 239Q216 240 202 247T170 262T139 277T124 285Q102 262 94 236T77 182T52 126T-4 71Q-5 71 -8 72T-15 77T-21 91T-22 119Z" />
<glyph unicode="s" glyph-name="s" horiz-adv-x="465" d="M57 141Q49 137 40 137T22 136T4 136T-14 131Q-31 129 -36 133T-39 146T-28 164T-8 181T17 191T42 190Q37 208 43 221T67 234Q76 234 83 233T95 224Q110 233 135 254T186 298T235 338T265 356Q268 356
273 356T283 353T292 349T296 341V298Q289 270 283 246T272 198T265 150T263 99Q279 99 301 106T347 123T390 143T422 161Q424 162 431 168T446 180T461 192T471 200Q473 202 481 205T490 210Q494 211 497 208T504 200T508 191T510 185Q510 175 502 165T483 147T461
131T443 117Q435 113 416 104T374 85T333 66T305 53Q303 52 296 51T281 46T266 42T256 39Q247 36 243 29T234 15T223 3T202 0Q201 1 194 4T184 10Q160 27 143 42T112 71T86 103T57 141ZM120 181Q127 166 133 152T149 126T169 104T198 93Q200 108 203 129T210 173T219
218T232 258H222Q206 247 192 236Q179 226 166 217T145 200Q144 199 142 197T139 195Q138 193 130 188T120 181ZM232 273Q229 273 229 269T232 264Q236 264 236 268T232 273Z" />
<glyph unicode="t" glyph-name="t" horiz-adv-x="282" d="M31 268Q33 272 39 280T45 295V298Q45 299 43 300T40 302H22Q-4 294 -36 291T-99 289T-152 294T-178 305T-163 319T-91 337Q-88 337 -78 339T-55 344T-31 348T-17 351Q-13 352 0 352T26 354T52 355T70
355L75 361L153 492Q157 499 167 503T184 507Q197 507 202 497T207 476Q207 475 207 474T206 472V468L162 361V355Q164 361 169 361T178 361Q193 361 207 351T221 324Q221 316 216 311T204 303T189 299T175 297Q163 297 153 300T130 303Q119 303 110 292T94 262T81
220T72 175T67 134T65 105Q65 101 65 89T66 73Q67 67 71 63T79 53H102Q142 53 181 71T256 112Q258 113 265 121T282 138T298 154T309 161Q316 161 322 154T328 139Q328 120 315 102T280 69T232 40T179 18T129 4T90 -1Q76 -1 61 2T34 14T14 34T6 64V175L31 268Z"
/>
<glyph unicode="u" glyph-name="u" horiz-adv-x="640" d="M5 108Q9 122 10 137T14 169T23 207T44 256T81 318T143 400Q147 406 153 410T166 415Q178 415 187 406T196 385Q196 384 195 379T192 371Q181 348 171 330T150 296T126 261T94 220Q82 190 73 164T64 106Q64
90 65 80T75 53H86Q115 53 152 76T226 132T293 199T337 254Q339 256 342 263T347 273Q349 279 354 293T364 324T375 354T382 375Q384 384 390 385T402 386Q420 386 425 379T430 354V337Q420 310 413 287T399 242T389 198T386 150Q386 147 386 136T386 114T392 93T406
83Q430 83 455 89T507 106T556 130T601 156Q606 158 613 165T628 178T644 190T659 195Q679 195 679 175Q679 160 661 144T616 111T554 81T489 57T432 40T396 33Q392 33 382 33T367 34Q351 38 342 52T329 83T323 118T322 147Q319 145 315 143T309 137Q301 130 283
116T243 85T203 54T177 34Q157 19 133 9T84 -1Q58 -1 43 7T20 30T8 65T5 108Z" />
<glyph unicode="v" glyph-name="v" horiz-adv-x="541" d="M21 107L51 245Q55 278 62 310T80 368T103 409T128 425Q143 425 150 413T157 387V375L89 156Q83 135 81 119T78 83Q78 80 78 75T78 65T81 57T88 53Q98 53 110 58T136 69T160 82T177 93Q200 107 219 122T255
153T287 187T318 229Q323 238 330 255T345 295T361 341T377 384T393 416T409 429Q419 429 423 426T430 416T434 403T439 390Q440 389 444 388T450 385Q460 382 460 380T460 376T460 373T471 372H474Q486 373 504 375T540 380T569 384T582 386L602 343Q573 335 553
331T515 324T476 323T426 326L420 321Q401 274 382 235T336 162T278 99T201 44Q173 28 144 14T84 -1Q65 -1 53 6T33 24T24 51T21 83V107Z" />
<glyph unicode="w" glyph-name="w" horiz-adv-x="757" d="M14 57Q14 92 22 125T44 190Q53 224 64 253T86 304T110 338T135 351Q148 351 154 344T161 323V317L112 200Q111 198 107 193T103 185V181Q101 176 98 165T90 142T83 118T78 103Q76 98 75 87T74 73Q74 71
75 66T78 58Q116 73 159 103T243 172T314 251T361 332Q363 333 371 335T381 337Q382 337 383 337T386 337Q396 337 403 328T411 310Q411 309 411 306T410 302Q392 259 379 220T366 136Q366 117 367 106T376 73Q377 68 380 68T387 68Q417 68 447 91T501 147T541
218T556 283Q556 298 554 311T551 339Q551 352 558 362T578 372Q587 372 595 367T610 354T626 341T644 332Q668 332 681 332T702 332T715 333T727 338T746 348T780 364Q781 365 784 365T788 365Q797 365 804 359T811 343Q811 332 806 326T792 315T775 307T757 301Q734
292 722 289T703 284T692 282T681 281T661 281T625 278Q623 278 620 276T615 273Q609 228 588 182T532 97T454 34T361 10Q351 10 343 18T328 38T317 60T312 78Q311 82 310 93T307 117T304 140T302 156Q284 137 255 111T192 60T124 18T61 0Q35 0 25 18T14 57Z" />
<glyph unicode="x" glyph-name="x" horiz-adv-x="588" d="M7 20Q7 25 7 29T12 39Q37 67 59 89T103 130T150 166T202 204Q204 205 207 209T212 215Q214 224 217 239T222 273T226 309T228 343Q228 349 228 356T218 366Q217 366 213 364T207 361L61 244L56 238L61
312Q77 324 98 343T142 381T190 412T238 425Q255 425 264 417T278 397T284 370T285 342Q285 319 283 297T280 254V248Q288 252 306 262T344 282T382 302T408 317Q410 318 415 322T427 331T438 340T446 346H452Q457 346 463 343T474 334T482 324T486 312Q486 309
485 305T481 298L280 185Q274 182 274 179T275 168Q275 143 283 128T305 103T338 91T380 87Q395 87 413 90T446 93Q451 94 462 97T487 104T513 111T529 117Q537 121 548 129T570 147T593 164T615 171Q632 171 632 154Q632 135 617 119T578 90T526 66T469 49T419
38T384 34Q352 34 324 39T273 57T235 91T212 147Q161 120 114 80T27 0Q26 -1 25 -1H22Q13 -1 10 5T7 20Z" />
<glyph unicode="y" glyph-name="y" horiz-adv-x="513" d="M-33 -252Q-33 -187 -5 -133T68 -34T167 46T274 107L303 200Q298 194 284 180T253 151T222 122T201 103Q189 93 172 80T136 56T96 37T60 29Q38 29 32 39T25 70Q25 86 27 103T26 137L65 243Q74 252 82 271T99
309T117 342T138 356Q150 356 158 349T167 329Q167 319 165 312T157 292Q144 265 132 241T109 193T92 144T85 87H89Q89 87 95 90T108 98T124 108T138 117Q193 153 235 201T318 302Q322 308 325 311T330 315T335 317T344 317Q358 317 366 312T377 287Q378 274 375
256T367 219T357 184T347 156V141Q349 142 356 144T367 147Q373 148 400 158T458 179T517 201T551 214H553Q560 214 565 209T571 197Q571 190 567 185T556 177T543 170T531 165Q524 161 511 156T482 144T447 129T412 114Q371 97 323 78L235 -254Q229 -278 213 -304T174
-352T126 -387T72 -401Q44 -401 24 -387T-9 -350T-27 -301T-33 -252ZM21 -252Q21 -265 23 -281T33 -312T50 -337T78 -347Q100 -347 118 -334T151 -301T176 -259T192 -220Q195 -208 201 -187T212 -144T222 -107T226 -87V-83L255 43Q215 30 174 -1T98 -73T43 -161T21
-252Z" />
<glyph unicode="z" glyph-name="z" horiz-adv-x="667" d="M151 -468Q150 -464 150 -454T149 -438Q149 -414 154 -389T169 -338T190 -289T215 -243Q238 -203 261 -166T309 -94T363 -26T424 40Q424 41 424 46T425 53Q425 66 423 83T415 115T398 141T371 152Q347
152 329 146T294 127T264 100T234 68Q227 65 222 65T209 64Q197 64 194 71T190 89V98L283 287Q289 300 290 314T292 341Q278 341 260 336T234 317L83 195Q76 193 70 189T58 179T46 170T33 166Q26 166 22 171T18 183Q18 197 26 218T49 248Q57 255 78 270T124 303T169
335T200 356Q220 370 249 385T307 400Q328 400 339 382T351 345Q351 306 337 270T307 200H310H311Q314 200 322 201T341 204T360 208T371 210H375Q401 210 418 200T448 173T468 136T483 93Q510 116 527 130T555 152T576 167T597 181T628 201T675 236Q682 240 693
245T715 251Q722 251 727 242T733 226Q733 215 724 206L607 123L492 30L488 20Q487 9 485 -20T481 -81T476 -141T472 -181Q470 -212 460 -248T433 -320T395 -390T345 -450T284 -492T214 -508Q192 -508 175 -500T151 -468ZM394 -73Q389 -80 378 -95T355 -125T334
-153T321 -170Q301 -204 280 -238T241 -308T213 -381T202 -460Q250 -460 283 -428Q362 -355 393 -264T425 -64Q425 -61 425 -54T424 -43L394 -73Z" />
<glyph unicode="{" glyph-name="braceleft" horiz-adv-x="323" d="M40 99Q40 139 53 173T88 235T133 285T177 324T211 351T225 366Q225 367 225 370T224 374Q220 377 207 385T178 403T151 425T139 449Q139 451 139 457T141 465Q166 472 187 487T224 524Q224 526
224 531T224 544T225 556T225 565Q225 606 209 637T171 693T121 742T70 791T31 847T15 917Q15 950 32 977T75 1023T133 1053T195 1064Q199 1064 204 1064T213 1063T221 1060T225 1050Q225 1043 214 1037T184 1025T146 1010T107 988T78 956T66 908Q66 877 81 851T119
801T170 754T220 703T259 643T274 569Q274 566 274 560T274 546T274 533T274 524Q273 522 270 515T265 507Q263 503 256 495T241 478T226 460T216 449Q219 445 231 436T256 416T281 394T292 378Q292 359 278 344T243 314T196 281T149 237T111 176T91 91Q88 44 112
12T174 -42T254 -77T332 -100V-102Q332 -103 333 -104Q333 -110 327 -113T314 -117T300 -118T291 -117Q242 -117 197 -102T117 -60T61 8T40 99Z" />
<glyph unicode="|" glyph-name="bar" horiz-adv-x="175" d="M41 1046Q40 1063 34 1070T11 1077Q11 1094 20 1111T41 1138Q42 1138 43 1138T46 1138Q50 1138 55 1134T64 1125T71 1114T75 1104Q76 1100 78 1088T83 1063T88 1038T91 1021Q92 1007 94 977T99 910T104
830T109 751T113 684T116 640Q116 636 116 628T117 611T117 593T116 581L157 -16V-100Q157 -107 151 -108T140 -109Q130 -109 124 -99T114 -75T110 -50T108 -33Q108 -27 108 -12T107 21T107 54T108 75L41 1046Z" />
<glyph unicode="}" glyph-name="braceright" horiz-adv-x="548" d="M152 -90Q195 -90 237 -99T323 -109Q326 -109 333 -109T348 -109T363 -108T373 -108Q419 -75 441 -33T464 67Q464 116 449 151T411 214T361 262T311 303T272 344T256 394Q256 417 262 431T278
454T303 472T332 490V491Q332 492 332 492T333 493Q333 501 324 509T303 529T283 556T273 592Q273 621 282 646T303 697T323 748T333 803Q333 819 332 831T329 855T321 881T307 913Q279 937 259 955T221 986T186 1006T147 1018T96 1022T25 1021Q23 1022 17 1025T8
1030Q7 1030 7 1031V1034V1036Q7 1037 8 1038Q10 1040 16 1046T25 1054Q29 1054 37 1054T56 1054T75 1055T87 1055Q146 1055 200 1039T297 992T365 912T391 798Q391 770 382 746T361 699T341 653T331 603Q331 578 347 562T381 532T415 504T431 469V465Q431 463
428 460T423 457L340 440Q335 438 329 433T317 420T309 405T306 391V386Q306 384 307 382Q340 343 378 313T449 249T502 174T524 73Q524 43 517 9T495 -58T456 -115T398 -149Q395 -149 387 -149T370 -149T352 -150T340 -150Q324 -150 293 -150T231 -145T176 -128T152
-90Z" />
<glyph unicode="~" glyph-name="asciitilde" horiz-adv-x="648" d="M95 553Q95 558 96 568T100 589T107 607T117 615L121 614Q122 613 125 610T130 606Q132 582 138 558T158 515T191 483T240 470Q265 469 279 480T304 508T322 545T343 582T373 611T422 624Q438
624 460 618T502 600T536 572T550 536Q550 535 550 535T549 534V532L524 507Q513 518 503 530T483 552T460 568T431 574Q410 571 397 562T373 538T352 507T329 476T296 449T248 429Q220 429 193 438T143 463T108 503T95 553Z" />
<glyph unicode="&#xa0;" glyph-name="nbspace" horiz-adv-x="461" />
<glyph unicode="&#xa1;" glyph-name="exclamdown" horiz-adv-x="184" d="M92 555Q89 550 91 545T100 537T112 531T126 529Q132 529 139 531T153 537T163 545T168 555Q168 566 153 570T125 574H120Q118 572 114 570T105 564T96 558T92 555ZM72 -29Q72 -46 72 -58T74
-84T77 -111T83 -145Q88 -155 96 -157T116 -160Q132 -160 140 -154T149 -132V259L131 375Q131 376 128 376T123 376Q110 376 102 350T88 283T80 193T75 99T73 19T72 -29Z" />
<glyph unicode="&#xa2;" glyph-name="cent" horiz-adv-x="565" d="M32 220Q32 251 36 289T49 368T74 444T114 510T170 556T244 573Q255 573 268 571V572Q274 650 288 687T313 728T326 708T314 640Q314 636 314 628T315 611T315 593T314 581L315 561Q334 555 351
547Q379 535 398 518T418 479Q418 467 410 465T390 463Q378 463 358 475Q339 486 319 499L350 65Q382 73 413 86T470 118T512 161T532 216H534L535 217L536 216H540L544 211Q547 209 548 207V204Q548 169 533 140T492 89T433 49T364 21L353 17L355 -16V-100Q355
-107 349 -108T338 -109Q328 -109 322 -99T312 -75T308 -50T306 -33Q306 -27 305 -11V6L294 4Q260 -1 231 -1Q178 -1 141 14T79 58T44 128T32 220ZM306 75Q275 250 268 373Q264 464 265 531Q252 537 243 537Q210 537 185 521T142 477T113 415T94 346T85 279T82
224Q82 184 89 152T114 97T161 62T234 49Q257 49 288 52Q296 54 305 55Q306 69 306 75Z" />
<glyph unicode="&#xa3;" glyph-name="sterling" horiz-adv-x="423" d="M303 311Q260 308 213 304T116 293Q117 265 117 240T118 190T125 135T142 70L391 102L384 8Q381 7 382 10T381 16T367 22T327 25T248 20T116 4Q115 4 113 4T108 4Q98 4 91 8T79 20T71 37T67
55Q62 89 60 110T56 145T54 170T54 195T55 231T57 287Q31 284 20 280T1 271T-17 263T-50 260Q-50 267 -55 275T-65 290T-72 301T-70 307Q-51 312 -37 317T-8 328T22 336T57 343Q57 368 57 386T58 420T58 453T55 497Q47 517 44 540T47 585T71 623T121 645T203 641T322
602Q346 598 354 592T360 579T348 565T329 554T311 548T302 552Q302 556 290 563T259 578T217 588T172 587T131 568T103 527T94 456T113 349Q161 354 208 355T303 357V311Z" />
<glyph unicode="&#xa4;" glyph-name="currency" horiz-adv-x="683" d="M223 200Q224 194 231 194T241 194Q277 194 315 212T383 261T433 328T453 403Q429 415 406 427T356 437T302 410T243 327Q236 319 232 307T226 281T223 253T222 229Q222 225 222 214T223 200ZM69
148Q69 154 69 158T74 167Q103 202 129 226T183 273Q184 283 187 296T195 325Q204 344 213 362T233 397Q193 453 177 492T159 556T166 594T184 612T201 612T203 598Q203 598 211 586T233 555T262 513T293 467Q315 483 342 492T404 501Q429 497 448 485T482 454Q496
462 518 476T563 505T603 530T622 544H627Q633 544 638 540T649 531T657 521T661 509Q661 506 661 502T656 495L506 409Q513 386 514 361T508 311T487 261T450 215Q462 214 478 203T511 179T542 154T563 141Q557 104 553 86T544 62T536 62T524 78T505 105T476 134T436
157T381 169Q352 156 318 147T239 134Q236 134 227 134T214 135Q193 143 185 165T175 208Q152 189 131 169T89 129Q88 128 87 128H85Q76 128 73 134T69 148Z" />
<glyph unicode="&#xa5;" glyph-name="yen" horiz-adv-x="427" d="M346 277Q324 276 311 276T285 277T257 278T218 275L216 210Q244 213 263 215T300 217T335 218T376 217V184L214 172L211 17Q211 13 206 11T194 7T181 6T172 5Q166 5 160 6T153 13L159 166L88 161L48
166V174Q48 175 71 182T125 195Q133 197 142 198T161 202L164 271Q139 269 124 269T96 269T69 271T32 272Q32 277 37 282T49 290T63 295T75 299Q94 303 103 305T119 309T137 311T166 314L167 347Q167 347 158 364T136 407T108 461T79 516T57 559T48 577Q48 586
54 592T72 598Q78 598 86 595T96 587L189 428L194 420Q204 424 212 439T234 477T272 532T338 600Q353 573 360 563T366 549T356 538T328 512T283 456T220 352V319Q242 320 256 320T283 318T309 314T346 312V277Z" />
<glyph unicode="&#xa6;" glyph-name="brokenbar" horiz-adv-x="175" d="M73 497L41 1046Q40 1063 34 1070T11 1077Q11 1094 20 1111T41 1138Q42 1138 43 1138T46 1138Q50 1138 55 1134T64 1125T71 1114T75 1104Q76 1100 78 1088T83 1063T88 1038T91 1021Q92 1007
94 977T99 910T104 830T109 751T113 684T116 640Q116 636 116 628T117 611T117 593T116 581V501L73 497ZM132 411L157 -16V-100Q157 -107 151 -108T140 -109Q130 -109 124 -99T114 -75T110 -50T108 -33Q108 -27 108 -12T107 21T107 54T108 75L82 404L132 411Z"
/>
<glyph unicode="&#xa7;" glyph-name="section" horiz-adv-x="602" d="M427 416Q490 350 510 311T522 249T481 219T406 209T315 206T228 199L222 198Q220 197 211 195T200 191Q200 189 200 181T201 171Q204 158 206 145T216 118T239 93T290 73T378 60T517 58Q517
58 517 55T518 51Q519 41 514 34T499 26Q468 22 431 18T354 14T278 22T212 47T165 97T146 178Q142 212 158 229T203 251Q172 269 147 294T103 352Q102 355 100 358Q98 361 97 363T95 367Q86 390 93 408T116 442T156 468T203 485T248 493T283 493Q307 497 323 506T362
526Q364 526 365 526Q366 526 367 527Q369 529 377 534T387 542Q385 544 383 551T380 561Q373 580 367 592T349 612T321 625T273 633T197 638T85 644Q85 645 84 648T83 652Q78 660 81 669T93 681Q98 683 102 684T112 683Q164 683 212 685T301 679T376 647T434 571Q442
552 438 536T421 508T392 486T357 470Q365 466 374 460T393 445T411 429T427 416ZM229 437Q214 433 199 430T171 418Q169 418 165 416T160 412Q156 405 156 399Q170 364 186 345T221 313T265 293T320 271Q321 270 326 269T338 266T351 263T361 262Q424 255 448
264T471 290T449 331T402 374T351 410T313 427L229 437Z" />
<glyph unicode="&#xa8;" glyph-name="dieresis" horiz-adv-x="768" d="M188 645Q188 664 198 675T223 693T255 702T286 705Q324 705 324 657Q324 621 310 612T265 603Q254 603 241 603T215 606T196 619T188 645ZM274 657Q272 657 267 657T257 656T246 653T240
645H274V657ZM436 644Q436 663 445 675T467 693T497 702T527 705Q536 705 547 705T567 701T583 691T590 671Q590 653 583 640T563 619T536 607T505 603Q494 603 482 603T460 606T443 618T436 644ZM514 657Q512 657 508 657T498 656T487 653T481 645H514V657Z" />
<glyph unicode="&#xa9;" glyph-name="copyright" horiz-adv-x="700" d="M151 300Q157 351 175 397T217 476T267 526T312 538Q318 541 321 543T326 548T333 552T344 553Q357 553 368 545T388 523T400 496T405 469Q405 456 395 451T373 445Q364 445 359 449T349
458T339 467T326 475H324H321Q320 474 317 471T312 465Q292 440 274 421T243 381T221 338T213 283Q213 280 213 274T213 262T214 250T214 241Q216 231 226 226T244 216Q247 216 258 216T273 215Q306 209 345 220T422 248T492 281T542 303T561 296T536 241Q529 238
506 229T455 211T403 192T365 177Q349 172 339 169T319 165T301 163T277 162Q241 162 218 171T180 197T160 240T151 300ZM43 281Q34 325 34 378T46 485T84 588T153 674T259 730T406 742Q420 742 444 740T490 730T529 708T546 670V666Q546 663 543 658T538 650Q537
649 536 649H535H532Q531 649 530 650Q528 651 523 656T510 666T497 676T489 683H487Q486 683 485 684Q484 684 483 684T481 683Q512 636 544 593T601 506T643 414T660 309Q660 254 649 199T611 100T541 29T433 1Q393 1 349 11T262 39T179 83T109 140T61 206T43
281ZM76 261Q94 215 136 176T232 107T341 61T443 43Q490 46 521 69T573 128T601 205T609 287Q609 319 599 361T568 449T519 539T454 619T376 676T287 698Q246 694 212 665T151 595T108 503T80 405T69 319T76 261Z" />
<glyph unicode="&#xaa;" glyph-name="ordfeminine" horiz-adv-x="334" d="M21 200Q21 202 21 209T21 219Q12 255 18 289T41 352T81 399T136 422H145Q156 422 163 417T174 402T180 382T182 358Q182 343 179 328T173 298T167 269T164 238V234Q165 233 165 228T167
220Q168 220 172 220T177 220Q182 220 186 220T196 223L289 276Q290 276 291 276T293 276Q298 276 301 273T304 263Q304 260 304 258T301 252Q298 249 289 244T270 232T250 219T237 211Q230 207 222 203T204 196T187 190T171 187Q161 187 154 191T144 203T139 221T138
244Q129 234 118 224T94 204T69 188T42 181Q35 181 29 185T21 200ZM47 213Q59 213 72 221T99 241T123 266T140 291Q141 309 144 325T148 359Q148 360 148 362T148 366Q141 373 137 374T125 375Q124 375 121 375T117 375Q114 372 107 364T93 346T79 328T69 316Q69
316 68 314T64 309T61 304T59 299L47 229V213Z" />
<glyph unicode="&#xab;" glyph-name="guillemotleft" horiz-adv-x="990" d="M31 252Q14 267 27 288T76 334T169 387T300 444T460 505T643 567Q647 565 651 564T658 560T663 553T661 543Q659 541 656 537T648 529T639 522T634 517Q506 461 418 423T272 360T182
321T135 297T115 282T108 268Q154 238 215 212T342 163T473 117T593 71Q597 69 607 62T622 52Q624 51 625 48T626 42Q625 38 617 32T602 24Q528 47 455 70T310 120T168 179T31 252ZM319 247Q302 264 315 284T364 330T457 382T588 440T748 501T931 562Q935 561 939
560T946 556T951 549T949 538Q947 536 944 532T936 524T927 517T922 513Q794 456 706 418T560 355T470 316T423 292T403 278T396 264Q442 234 503 208T630 158T761 112T881 67Q885 65 895 58T910 48Q912 47 913 44T914 38Q913 33 905 28T890 20Q816 42 743 65T598
115T456 174T319 247Z" />
<glyph unicode="&#xac;" glyph-name="logicalnot" horiz-adv-x="547" d="M74 350Q69 354 65 365T61 381Q113 391 169 390T276 385T372 377T445 380Q446 381 451 380T459 379Q463 378 471 376T476 366Q475 358 475 338T475 291T476 234T476 176T476 127T473 95Q451
88 443 97T433 127T434 176T440 234T444 292T433 340L420 342Q375 340 344 340T291 339T251 340T215 342T173 343T118 342Q115 343 109 344T96 346T83 348T74 350Z" />
<glyph unicode="&#xad;" glyph-name="hyphen_" horiz-adv-x="607" d="M16 356Q19 364 30 372T49 382Q96 384 145 388T245 396T344 403T439 407Q473 407 507 404T573 390L556 373Q556 373 539 371T495 366T433 359T364 352T296 345T240 340Q195 336 148 334T57
332Q52 332 45 333T31 336T19 344T16 356Z" />
<glyph unicode="&#xae;" glyph-name="registered" horiz-adv-x="768" d="M73 299Q64 343 64 396T76 503T113 606T183 692T289 748T436 760Q450 760 474 758T520 748T559 726T576 688V684Q576 681 573 676T568 668Q567 667 566 667H564H562Q561 667 560 668Q558
669 552 674T540 684T527 694T518 701H517Q516 701 515 702Q514 702 513 702T510 701Q542 654 574 611T631 524T673 432T689 327Q689 272 678 217T641 118T571 47T463 19Q423 19 379 29T291 57T208 101T139 158T91 224T73 299ZM105 279Q123 233 166 194T262 125T371
79T472 61Q519 64 551 87T603 146T631 223T639 305Q639 337 628 379T597 467T548 557T483 637T406 694T317 716Q274 712 241 683T181 613T138 521T110 423T99 337T105 279ZM231 201Q238 213 247 225T266 250T283 277T291 309Q279 310 264 313T236 322T213 336T203
355Q203 367 207 374T229 382Q240 382 254 377T289 367L325 481Q323 495 326 510T341 536Q340 536 337 536T332 537Q320 537 312 535T297 530T282 524T263 520Q261 520 258 521T253 524Q250 523 245 522T235 520T225 518T218 517H214Q201 517 201 528Q201 534 210
543T233 561T260 577T281 589Q297 592 308 595T331 598T353 599T379 600Q408 600 438 590T493 561T534 517T550 464Q550 440 538 419T505 380T461 349T414 327T372 315T342 314Q356 292 372 274T407 244T451 226T508 219Q529 219 549 226T590 233Q615 233 606 223T573
199T521 176T480 166Q454 166 432 175T392 197T357 229T328 266H324Q323 259 319 245T308 216T292 192T270 181Q265 181 259 182T247 186T236 192T231 201ZM345 348H349Q351 348 354 349T358 351Q381 360 405 371T450 395T484 427T497 471Q497 486 487 498T461
520T427 534T391 539H382Q390 535 390 530T391 518Q391 517 391 513T390 508L345 362V348Z" />
<glyph unicode="&#xaf;" glyph-name="overscore" horiz-adv-x="471" d="M21 620Q23 627 35 635T54 645Q101 648 126 649T171 650T216 649T287 648Q321 648 355 646T421 631L404 615Q402 613 359 612T245 604Q200 599 153 598T61 596Q57 596 50 597T35 600T24 608T21 620Z" />
<glyph unicode="&#xb0;" glyph-name="degree" horiz-adv-x="342" d="M38 418Q38 474 61 514T133 593Q134 594 138 597T149 603T160 609T170 612Q177 612 183 607T189 595V593Q189 591 187 588T184 583V580Q184 577 193 574T215 566T239 558T256 550Q279 530 290
505T301 453Q301 423 285 400T244 360T188 336T125 327Q121 327 107 327T88 328Q70 331 60 341T45 365T39 392T38 418ZM88 447Q97 429 99 419T104 403T112 391T135 378Q185 378 207 395T229 458Q229 481 228 492T219 509T198 520T159 533Q136 528 122 520T101 501T91
476T88 447Z" />
<glyph unicode="&#xb1;" glyph-name="plusminus" horiz-adv-x="499" d="M91 22Q94 30 105 38T124 48Q157 49 173 50T197 51T210 51T225 50Q224 60 224 66T224 75Q223 86 222 115T220 178T218 240T216 282L207 291Q205 291 196 291T181 292Q139 292 100 283T21
274H16Q14 274 12 277T8 282L16 291Q26 293 51 300T103 315T156 330T191 340Q198 342 203 346Q208 348 212 351T216 356V515Q216 530 229 535T254 541Q261 541 268 539T274 524Q274 518 274 505T273 478T273 450T274 431Q274 422 275 408T277 381T280 358T282 348L464
323Q465 323 468 317T473 307V303Q473 293 461 288T440 282Q406 282 372 291T303 300Q301 300 293 300T282 299L267 50H292Q326 50 360 48T426 33L409 17Q408 16 407 16T397 14T369 11T315 6Q301 4 288 4T261 2Q257 0 257 0Q256 -1 256 -1H254Q250 -1 245 1Q186
-2 131 -2Q127 -2 120 -1T105 2T94 10T91 22Z" />
<glyph unicode="&#xb2;" glyph-name="twosuperior" horiz-adv-x="367" d="M23 195Q23 196 24 198T25 200L239 417Q253 430 257 440T262 464Q262 471 261 476T254 488Q251 488 244 488T236 488Q206 488 181 483T134 469T92 449T53 428Q45 429 38 431T31 439Q31
448 42 456T70 471T108 485T150 496T188 504T217 510Q219 510 223 510T232 510T240 510T246 511Q260 511 273 510T296 503Q298 501 300 496T304 486T308 475T310 469Q310 466 309 461T305 450T300 439T296 431L203 327Q201 326 196 322T189 316Q181 309 172 299T150
277T128 255T109 236T95 222T89 216V212Q120 212 155 213T226 218T296 226T361 241Q362 240 362 238T362 236Q362 228 347 222T312 212T270 205T239 200Q229 199 204 197T150 191T96 186T61 182Q59 182 55 182T50 182Q37 182 30 185T23 195Z" />
<glyph unicode="&#xb3;" glyph-name="threesuperior" horiz-adv-x="376" d="M16 222Q21 219 26 217T39 212T52 209T64 207Q104 207 138 219T198 253T238 303T252 361Q252 368 253 377T252 394T245 407T225 413H222Q216 412 206 410T187 405T170 401T161 399Q155
396 139 390T106 376T74 361T53 351Q52 351 52 351T51 351H50Q42 351 38 355T34 365Q34 373 39 375T53 384Q57 388 71 397T105 418T146 444T187 471T221 492T240 504Q250 511 261 519T283 538T299 558T305 580Q286 580 271 575T242 564T213 553T179 548V558Q179
566 188 573T213 587T245 599T280 608T311 613T332 615Q340 615 347 612T355 601Q355 577 341 556T305 516T259 481T216 452V447Q241 445 256 439T280 422T292 397T295 364Q295 333 281 301T240 243T178 199T99 182Q97 182 89 183T68 187T43 192T21 199T8 207T10
217L16 222Z" />
<glyph unicode="&#xb4;" glyph-name="acute" horiz-adv-x="423" d="M310 716Q310 715 310 711T309 703T308 696T307 691Q297 654 278 632T236 599T192 584T157 584T141 594T157 607Q176 615 195 634T231 676T262 719T288 750T304 754T310 716Z" />
<glyph unicode="&#xb5;" glyph-name="mu" horiz-adv-x="490" d="M42 -233Q51 -225 52 -190T53 -103T52 15T58 149T79 287T124 416Q128 422 133 426T147 431Q157 431 166 422T175 406T173 395T170 386Q125 320 110 261T102 159T134 92T195 76T274 124T359 249Q361
251 364 258T368 269Q370 275 375 290T385 321T394 353T400 374Q403 383 408 384T419 385Q437 385 441 378T445 352V335Q436 306 429 283T416 238T407 193T404 143Q404 139 405 121T409 82T431 27L359 20Q360 49 358 67T353 97T348 119T345 139Q337 136 332 129Q325
122 312 109T285 82T257 54T237 35Q221 19 199 17T156 19T117 35T94 54Q100 4 101 -32T101 -108T93 -180T74 -228T42 -233Z" />
<glyph unicode="&#xb6;" glyph-name="paragraph" horiz-adv-x="493" d="M364 6Q373 60 374 106T375 194T370 274T366 350T365 429T376 515V532Q338 546 328 528T326 472Q323 439 323 408Q323 340 328 275T333 141Q333 136 333 123T333 95T332 68T332 49Q332 45
330 37T325 21T317 7T303 0Q293 0 284 7T274 25Q274 31 274 48T274 83T274 118T274 141Q273 153 272 177T270 233T267 299T263 364T260 420T257 456Q247 444 233 420T201 373T163 332T120 314Q98 314 79 326T45 358T23 399T15 440Q15 487 37 521T94 578T173 612T258
624Q283 624 302 621T340 612T380 599T434 581Q441 583 445 581T451 574T453 565T453 557Q453 554 453 548T451 540Q446 531 443 503T438 435T434 349T429 253T426 159T422 80T417 24T411 3Q407 3 400 2T386 1T373 2T364 6Z" />
<glyph unicode="&#xb7;" glyph-name="middot" horiz-adv-x="240" d="M34 239Q34 258 47 270T80 290T120 300T156 303Q165 303 175 303T195 299T212 290T219 270Q219 252 211 239T191 218T164 205T133 201Q122 201 105 201T73 203T46 214T34 239ZM142 255Q140 255
136 255T126 254T116 250T110 243H142V255Z" />
<glyph unicode="&#xb8;" glyph-name="cedilla" horiz-adv-x="644" d="M229 -391Q220 -386 209 -380T187 -366T170 -347T163 -324Q163 -322 166 -320T171 -316H174Q175 -316 175 -316T176 -315L180 -316Q183 -318 188 -324T196 -333Q219 -340 233 -345T261 -353T286
-357T314 -358Q324 -358 344 -361T390 -368T442 -372T489 -371T524 -359T538 -331Q538 -329 538 -326T536 -323L296 -175Q286 -168 272 -155T244 -125T222 -92T212 -59Q203 -2 208 24T224 56T248 51T271 22T281 -16T270 -50Q270 -85 294 -110T355 -156T433 -193T511
-229T571 -269T596 -320Q596 -364 575 -382T521 -406T450 -410T379 -408Q371 -408 350 -406T305 -401T260 -395T229 -391Z" />
<glyph unicode="&#xb9;" glyph-name="onesuperior" horiz-adv-x="116" d="M113 589Q122 588 128 587T141 582Q135 554 130 534T120 495T109 457T94 413Q92 408 89 399T82 380T76 364T73 355Q69 347 62 329T45 289T28 249T16 222Q15 221 12 217T3 208T-6 199T-14
193Q-16 192 -19 191T-26 188L-30 189H-33Q-34 189 -35 189Q-39 190 -45 192T-52 195L79 578Q81 583 92 586T113 589Z" />
<glyph unicode="&#xba;" glyph-name="ordmasculine" horiz-adv-x="233" d="M18 238Q18 238 18 241T19 248T20 255T21 259V261V265L28 299Q36 319 44 337T64 369T89 391T125 399Q129 399 135 396T148 389T159 380T168 371Q182 374 188 374T199 374T209 376T226
384Q234 386 241 386Q244 386 247 383T250 375Q250 370 247 366T239 360L181 345L176 342Q176 312 166 286T137 239T96 206T48 194Q46 194 42 194T36 195Q26 200 22 213T18 238ZM48 227Q49 224 52 224T56 224Q73 224 90 234T122 260T146 297T155 339Q140 339 125
342T96 345V345L57 296Q54 293 52 286T50 272T49 257T48 243Q48 241 48 235T48 227Z" />
<glyph unicode="&#xbb;" glyph-name="guillemotright" horiz-adv-x="881" d="M108 68Q115 73 136 90T186 133T251 193T328 262T409 334T490 405Q490 406 490 406T489 408V409Q488 410 482 414T473 418Q468 420 448 427T405 441T362 456T336 464Q327 468 302 476T244
496T176 522T112 550T65 579T48 604Q49 616 59 620T80 623Q82 623 86 622T92 621L195 570L592 433Q599 431 599 426T600 417Q536 385 486 341T386 245T277 141T138 41L108 68ZM355 106Q363 111 383 128T433 171T499 231T575 300T657 372T737 443Q737 444 737 444T736
445V446Q735 448 730 452T721 456Q715 458 696 465T653 480T609 494T583 502Q574 506 549 514T492 534T424 560T360 588T312 617T295 642Q296 654 307 658T328 661Q329 661 333 661T339 659L443 608L840 471Q847 469 847 464T848 454Q784 423 734 379T633 283T524
179T385 79L355 106Z" />
<glyph unicode="&#xbc;" glyph-name="onequarter" horiz-adv-x="649" d="M113 574Q122 573 128 572T141 568Q135 541 130 521T120 483T109 447T94 404Q92 400 89 391T82 373T76 357T73 348Q69 342 62 324T45 285T28 246T16 221Q15 219 12 215T3 207T-6 198T-14
192Q-16 192 -19 191T-26 188L-30 189H-33Q-34 189 -35 189Q-39 190 -45 192T-52 194L79 564Q81 568 92 572T113 574ZM259 259Q259 277 263 293T277 325L559 799Q571 813 580 828T598 859T617 889T642 915L716 1048Q722 1056 732 1061T751 1066Q763 1066 765 1057T767
1038V1023L352 366L285 234Q283 233 283 233H279Q265 233 262 240T259 259ZM469 226Q443 226 418 223T369 217T319 210T268 207Q258 207 251 211T244 223V225Q244 226 245 228Q249 232 255 243T269 269T286 298T302 328T316 353T325 370Q327 372 329 379T334 395T338
410T341 421Q345 425 353 427T370 430H373Q375 430 381 429T388 426Q388 424 388 420T389 413Q389 390 379 370T355 330T330 290T319 249Q359 249 398 255T476 263L518 482Q519 488 529 492T549 497Q558 497 565 494T573 484V482Q564 433 552 387T540 294Q540 283
544 274T549 256V253Q548 251 542 243T533 232Q528 171 528 108T518 -16Q517 -18 511 -21T501 -26Q497 -27 492 -25T481 -19T472 -12T469 -6V226Z" />
<glyph unicode="&#xbd;" glyph-name="onehalf" horiz-adv-x="635" d="M99 646Q108 645 115 644T128 638Q122 605 117 581T107 535T95 491T79 439Q77 433 73 422T66 401T60 382T57 371Q53 362 45 341T28 294T10 246T-3 216Q-4 214 -8 209T-17 199T-27 188T-34 181Q-37
180 -40 178T-47 176H-52H-54Q-56 176 -57 177Q-61 178 -67 180T-74 183L63 632Q66 638 77 642T99 646ZM11 269Q11 287 15 303T29 335L311 809Q323 823 332 838T350 869T369 899T394 925L468 1058Q474 1066 484 1071T503 1076Q515 1076 517 1067T519 1048V1033L104
376L37 244Q35 243 35 243H31Q17 243 14 250T11 269ZM218 23Q218 23 219 25T220 28L409 279Q421 294 425 306T429 333Q429 341 428 347T422 360Q420 360 414 360T406 361Q380 361 358 355T316 338T280 316T245 291Q238 293 232 296T225 304Q225 314 235 323T260
341T294 357T330 370T364 380T389 386Q391 386 394 386T402 387T410 387T415 387Q427 387 439 387T459 378Q461 375 462 370T466 358T470 347T471 339Q471 336 470 330T467 316T463 304T459 295L377 175Q376 174 371 169T365 162Q358 154 350 142T331 117T311 92T294
69T282 53T277 46V42Q304 42 335 43T397 48T459 58T516 75Q517 74 517 72T517 70Q517 60 504 53T473 41T436 33T409 28Q400 27 378 24T331 17T283 11T252 7Q250 7 247 7T242 6Q231 6 225 10T218 23Z" />
<glyph unicode="&#xbe;" glyph-name="threequarters" horiz-adv-x="917" d="M18 222Q23 220 29 218T43 213T58 210T71 208Q115 208 152 220T218 252T262 298T278 353Q278 359 278 368T277 384T269 396T247 401H244Q238 400 227 398T206 394T187 390T178 388Q170
386 153 380T117 366T81 353T58 343Q57 343 57 343T57 343H55Q46 343 42 347T37 356Q37 364 43 366T58 374Q63 378 79 386T116 406T161 431T206 455T243 475T264 487Q275 493 287 501T311 518T329 537T336 558Q315 558 299 554T267 543T235 532T197 527V537Q197
545 207 552T234 565T270 576T309 584T343 589T365 591Q374 591 382 588T391 577Q391 555 375 535T336 497T286 465T238 438V433Q265 432 282 426T309 410T322 387T325 355Q325 326 309 296T264 242T196 201T109 185Q107 185 98 186T75 190T47 195T23 201T8 209T11
217L18 222ZM174 22Q174 40 178 56T192 88L474 562Q486 576 495 591T513 622T532 652T557 678L631 811Q637 819 647 824T666 829Q678 829 680 820T682 801V786L267 129L200 -3Q198 -4 198 -4H194Q180 -4 177 3T174 22ZM748 269Q718 269 691 266T636 259T580 252T522
249Q511 249 503 253T495 266V268Q495 270 496 271Q500 276 507 288T523 316T542 347T560 379T576 406T586 425Q588 427 590 435T596 451T601 468T604 480Q609 484 618 487T637 490H640Q642 490 649 488T658 485Q658 483 658 478T659 471Q659 447 647 425T620 382T592
339T579 294Q624 294 668 300T756 309L803 546Q804 553 815 557T838 562Q849 562 857 559T865 548V546Q855 493 842 444T828 343Q828 331 833 322T838 301V298Q837 296 831 288T821 276Q815 210 815 142T803 8Q802 6 795 2T785 -3Q779 -4 773 -2T761 4T752 12T748
19V269Z" />
<glyph unicode="&#xbf;" glyph-name="questiondown" horiz-adv-x="515" d="M107 961Q107 927 129 913T179 899Q184 899 196 900T214 902Q219 903 221 909T224 921T224 934T223 941Q223 954 219 966T206 989T186 1005T162 1011Q107 1011 107 961ZM23 497Q23 492
24 484T27 469T35 456T49 451Q86 480 125 488T210 497Q265 497 307 474T379 414T424 328T440 225Q440 221 440 213T440 194T439 174T439 163Q435 151 428 140T414 117Q411 117 406 117T394 117T383 116T375 116Q330 116 283 129T192 166T108 221T39 289Q36 288
30 285T18 276T7 264T5 253Q9 231 33 209T93 165T171 125T257 92T337 70T400 62Q405 62 420 62T439 63Q454 71 465 86T483 120T496 158T501 194Q501 243 488 303T447 416T376 505T275 542H109Q114 550 121 570T137 613T153 656T162 686Q162 686 162 691T162 702T162
716T162 726Q162 733 162 742T163 761T161 780T152 795Q152 796 151 796H149Q148 796 147 796T144 795Q138 784 127 759T101 700T73 631T48 567T30 518T23 497Z" />
<glyph unicode="&#xc0;" glyph-name="Agrave" horiz-adv-x="719" d="M20 212Q20 254 23 290T33 360T49 430T73 507Q82 535 101 575T148 650T210 711T283 736H366Q367 736 372 735T381 732Q420 713 442 686T472 615Q481 574 491 537T502 458Q502 409 500 361T497
264Q497 261 497 254T497 237T498 220T498 210Q499 202 500 187T504 154T510 117T517 83T528 57T542 47Q569 47 598 54T652 76Q654 78 661 83T677 95T693 107T705 116Q712 121 716 123T728 126Q734 126 739 123T744 112Q744 89 719 69T659 33T591 8T539 -2Q517
-2 502 20T475 73T455 136T438 190Q424 150 397 116T334 55T258 14T175 -1Q129 -1 99 17T51 65T27 133T20 212ZM82 220Q82 190 83 160T94 104T124 64T183 48Q233 48 272 70T340 129T389 213T421 310T438 407T444 491Q418 491 418 515Q418 530 424 541T430 571Q430
593 423 614T401 652T367 678T324 688Q277 688 242 663T179 596T134 504T104 400T87 300T82 220ZM233 1016Q233 1043 240 1048T259 1046T287 1018T322 979T363 942T407 917Q427 910 425 905T407 897T368 896T319 909T271 939T239 993Q239 993 238 996T236 1003T234
1011T233 1016Z" />
<glyph unicode="&#xc1;" glyph-name="Aacute" horiz-adv-x="719" d="M20 212Q20 254 23 290T33 360T49 430T73 507Q82 535 101 575T148 650T210 711T283 736H366Q367 736 372 735T381 732Q420 713 442 686T472 615Q481 574 491 537T502 458Q502 409 500 361T497
264Q497 261 497 254T497 237T498 220T498 210Q499 202 500 187T504 154T510 117T517 83T528 57T542 47Q569 47 598 54T652 76Q654 78 661 83T677 95T693 107T705 116Q712 121 716 123T728 126Q734 126 739 123T744 112Q744 89 719 69T659 33T591 8T539 -2Q517
-2 502 20T475 73T455 136T438 190Q424 150 397 116T334 55T258 14T175 -1Q129 -1 99 17T51 65T27 133T20 212ZM82 220Q82 190 83 160T94 104T124 64T183 48Q233 48 272 70T340 129T389 213T421 310T438 407T444 491Q418 491 418 515Q418 530 424 541T430 571Q430
593 423 614T401 652T367 678T324 688Q277 688 242 663T179 596T134 504T104 400T87 300T82 220ZM470 1017Q470 1016 470 1012T469 1004T468 997T467 992Q457 955 438 933T396 900T352 885T317 885T301 895T317 908Q336 916 355 935T391 977T422 1020T448 1051T464
1055T470 1017Z" />
<glyph unicode="&#xc2;" glyph-name="Acircumflex" horiz-adv-x="719" d="M20 212Q20 254 23 290T33 360T49 430T73 507Q82 535 101 575T148 650T210 711T283 736H366Q367 736 372 735T381 732Q420 713 442 686T472 615Q481 574 491 537T502 458Q502 409 500 361T497
264Q497 261 497 254T497 237T498 220T498 210Q499 202 500 187T504 154T510 117T517 83T528 57T542 47Q569 47 598 54T652 76Q654 78 661 83T677 95T693 107T705 116Q712 121 716 123T728 126Q734 126 739 123T744 112Q744 89 719 69T659 33T591 8T539 -2Q517
-2 502 20T475 73T455 136T438 190Q424 150 397 116T334 55T258 14T175 -1Q129 -1 99 17T51 65T27 133T20 212ZM82 220Q82 190 83 160T94 104T124 64T183 48Q233 48 272 70T340 129T389 213T421 310T438 407T444 491Q418 491 418 515Q418 530 424 541T430 571Q430
593 423 614T401 652T367 678T324 688Q277 688 242 663T179 596T134 504T104 400T87 300T82 220ZM299 971Q285 971 273 959T251 929T233 891T217 853T204 823T193 811Q180 811 172 819T163 842Q163 843 161 847T159 856T161 868T175 879L282 1054Q283 1055 286
1058T294 1066T301 1073T307 1079H312H315Q318 1077 322 1073T330 1066T337 1059T340 1054L442 819V816V811Q441 810 438 807T432 803Q419 814 411 819T395 829T383 841T371 864L315 962Q313 969 309 970T299 971Z" />
<glyph unicode="&#xc3;" glyph-name="Atilde" horiz-adv-x="719" d="M20 212Q20 254 23 290T33 360T49 430T73 507Q82 535 101 575T148 650T210 711T283 736H366Q367 736 372 735T381 732Q420 713 442 686T472 615Q481 574 491 537T502 458Q502 409 500 361T497
264Q497 261 497 254T497 237T498 220T498 210Q499 202 500 187T504 154T510 117T517 83T528 57T542 47Q569 47 598 54T652 76Q654 78 661 83T677 95T693 107T705 116Q712 121 716 123T728 126Q734 126 739 123T744 112Q744 89 719 69T659 33T591 8T539 -2Q517
-2 502 20T475 73T455 136T438 190Q424 150 397 116T334 55T258 14T175 -1Q129 -1 99 17T51 65T27 133T20 212ZM82 220Q82 190 83 160T94 104T124 64T183 48Q233 48 272 70T340 129T389 213T421 310T438 407T444 491Q418 491 418 515Q418 530 424 541T430 571Q430
593 423 614T401 652T367 678T324 688Q277 688 242 663T179 596T134 504T104 400T87 300T82 220ZM138 1007Q138 1011 139 1020T141 1039T146 1056T154 1063L157 1062Q158 1061 160 1059T164 1055Q166 1034 172 1006T191 953T220 910T260 893Q284 893 304 906T344
939T380 982T414 1024T448 1057T484 1070Q495 1070 512 1065T543 1048T568 1022T579 990Q579 989 579 989T578 988V986Q576 984 569 975T560 962Q552 974 545 985T529 1005T512 1019T491 1025Q484 1025 480 1025T473 1021T466 1014T454 1001Q449 995 436 980T408
948T380 916T361 894Q340 879 316 868T266 856Q244 856 222 870T180 906T150 954T138 1007Z" />
<glyph unicode="&#xc4;" glyph-name="Adieresis" horiz-adv-x="719" d="M20 212Q20 254 23 290T33 360T49 430T73 507Q82 535 101 575T148 650T210 711T283 736H366Q367 736 372 735T381 732Q420 713 442 686T472 615Q481 574 491 537T502 458Q502 409 500 361T497
264Q497 261 497 254T497 237T498 220T498 210Q499 202 500 187T504 154T510 117T517 83T528 57T542 47Q569 47 598 54T652 76Q654 78 661 83T677 95T693 107T705 116Q712 121 716 123T728 126Q734 126 739 123T744 112Q744 89 719 69T659 33T591 8T539 -2Q517
-2 502 20T475 73T455 136T438 190Q424 150 397 116T334 55T258 14T175 -1Q129 -1 99 17T51 65T27 133T20 212ZM82 220Q82 190 83 160T94 104T124 64T183 48Q233 48 272 70T340 129T389 213T421 310T438 407T444 491Q418 491 418 515Q418 530 424 541T430 571Q430
593 423 614T401 652T367 678T324 688Q277 688 242 663T179 596T134 504T104 400T87 300T82 220ZM160 946Q160 965 170 976T195 994T227 1003T258 1006Q296 1006 296 958Q296 922 282 913T237 904Q226 904 213 904T187 907T168 920T160 946ZM246 958Q244 958 239
958T229 957T218 954T212 946H246V958ZM408 945Q408 964 417 976T439 994T469 1003T499 1006Q508 1006 519 1006T539 1002T555 992T562 972Q562 954 555 941T535 920T508 908T477 904Q466 904 454 904T432 907T415 919T408 945ZM486 958Q484 958 480 958T470 957T459
954T453 946H486V958Z" />
<glyph unicode="&#xc5;" glyph-name="Aring" horiz-adv-x="719" d="M190 806Q190 862 213 902T285 981Q286 982 290 985T301 991T312 997T322 1000Q329 1000 335 995T341 983V981Q341 979 339 976T336 971V968Q336 965 345 962T367 954T391 945T408 938Q431 918
442 893T454 841Q454 811 438 788T396 748Q384 741 372 734H373L381 732Q420 713 442 686T472 615Q481 574 491 537T502 458Q502 409 500 361T497 264V253Q497 246 497 237T498 220V210Q499 202 500 187T504 154T510 117T517 83T528 57T542 47Q569 47 598 54T652
76Q654 78 661 83T677 95T693 107T705 116Q712 121 716 123T728 126Q734 126 739 123T744 112Q744 89 719 69T659 33T591 8T539 -2Q517 -2 502 20T475 73T455 136T438 190Q424 150 397 116T334 55T258 14T175 -1Q129 -1 99 17T51 65T27 133T20 212Q20 254 23 290T33
360T49 430T73 507Q82 535 101 575T148 650T211 711Q218 716 224 720Q217 724 212 729Q202 740 198 753T192 780T190 806ZM82 220Q82 190 83 160T94 104T124 64T183 48Q233 48 272 70T340 129T389 213T421 310T438 407T444 491Q418 491 418 515Q418 530 424 541T430
571Q430 593 423 614T401 652T367 678T324 688Q277 688 242 663T179 596T134 504T104 400T87 300T82 220ZM240 835Q249 817 251 807T256 791T264 779T287 766Q337 766 359 783T382 846Q382 868 380 879T371 897T350 908T311 921Q288 916 274 908T253 889T243 864T240
835Z" />
<glyph unicode="&#xc6;" glyph-name="AE" horiz-adv-x="928" d="M20 212Q20 254 23 290T33 360T49 430T73 507Q82 535 101 575T148 650T210 711T283 736Q314 736 333 736T362 734T375 733T381 732Q417 714 438 690T469 629Q478 663 503 688T562 729T633 752T701
760Q719 760 739 758T775 749T802 728T813 691Q813 677 805 669T782 661Q770 661 766 668T757 683T740 699T702 706Q676 706 644 702T584 685T537 651T518 592Q518 563 536 550T582 531T639 527T694 527T732 521T738 499L718 454Q626 361 584 291T533 173T545 102T598
78Q613 78 638 85T693 104T756 131T818 161T871 190T906 215H911Q919 215 925 211T931 198Q931 193 926 186T915 172T903 162T897 157Q834 105 781 77T685 37T608 28T550 40T509 64T485 92Q484 93 481 79T474 50T465 26T454 27T445 75T438 190Q424 150 397 116T334
55T258 14T175 -1Q129 -1 99 17T51 65T27 133T20 212ZM82 220Q82 190 83 160T94 104T124 64T183 48Q233 48 272 70T340 129T389 213T421 310T438 407T444 491Q418 491 418 515Q418 530 424 541T430 571Q430 593 423 614T401 652T367 678T324 688Q277 688 242 663T179
596T134 504T104 400T87 300T82 220ZM635 471Q618 471 599 473T562 481T526 496T495 518Q502 487 502 458Q502 409 500 364T497 270Q508 291 519 312T535 341Q544 358 555 377T578 413T605 446T635 471Z" />
<glyph unicode="&#xc7;" glyph-name="Ccedilla" horiz-adv-x="616" d="M159 -391Q150 -386 139 -380T117 -366T100 -347T93 -324Q93 -322 96 -320T101 -316H103L106 -315L110 -316Q112 -318 118 -324T126 -333Q148 -340 163 -345T190 -353T215 -357T244 -358Q254
-358 274 -361T320 -368T372 -372T419 -371T454 -359T468 -331Q468 -329 468 -326T466 -323L226 -175Q216 -168 202 -155T174 -125T152 -92T142 -59Q133 -2 138 24Q140 38 144 46Q133 55 124 66Q96 96 78 135T48 219T33 308T28 392Q18 446 31 505T75 624T149 737T243
836T349 910T458 951Q474 951 486 941T508 916T521 884T526 853V756Q526 746 518 744T504 741Q497 741 487 743T477 756Q477 760 476 769T474 789T473 810T472 823Q472 825 472 836T469 860T463 882T453 892H418Q418 892 409 887L388 877Q376 871 364 865T346 853Q343
851 337 846T323 836T310 826T301 819Q247 767 207 723T140 630T100 527T86 395Q86 365 89 329T100 254T122 180T157 115T208 70T279 53H301Q346 68 380 80T442 106T492 134T536 172T581 225T633 298Q634 298 636 298T640 299Q658 299 658 281Q658 258 647 230T605
167T520 96T380 20Q364 13 352 9T329 2T307 0T281 -1Q239 -1 205 11Q210 -2 211 -16Q213 -37 200 -50Q200 -85 224 -110T284 -156T362 -193T441 -229T501 -269T526 -320Q526 -364 504 -382T450 -406T380 -410T309 -408Q301 -408 279 -406T234 -401T189 -395T159
-391Z" />
<glyph unicode="&#xc8;" glyph-name="Egrave" horiz-adv-x="551" d="M48 39Q46 42 43 50T35 69T28 89T24 103Q24 103 24 112T23 128Q23 149 25 171T34 215Q37 220 45 235T62 268T80 300T92 321Q117 365 155 399T234 463Q238 466 251 477T282 500T313 523T331 536Q332
537 334 539T337 541V544V546Q307 552 279 559T228 581T193 618T180 676Q180 719 204 749T263 800T340 830T416 840Q434 840 453 838T489 828T516 807T527 770Q527 756 519 749T497 741Q485 741 481 747T472 762T455 778T417 785Q395 785 374 782T331 780Q314 775
297 765T265 740T242 709T233 671Q233 643 247 629T282 608T328 600T374 597T410 587T424 560V551L394 522Q389 517 377 509T350 490T319 467T288 443T261 423T243 409Q215 386 186 357T133 293T93 221T77 144Q77 98 95 78T155 58Q196 58 237 70T319 101T395 145T463
195H467Q475 195 481 191T488 178Q488 173 483 166T471 152T459 142T454 137Q421 112 384 89T307 46T226 16T141 4Q137 4 122 4T103 4Q70 13 48 39ZM151 1016Q151 1043 158 1048T177 1046T205 1018T240 979T281 942T325 917Q345 910 343 905T325 897T286 896T237
909T189 939T157 993Q157 993 156 996T154 1003T152 1011T151 1016Z" />
<glyph unicode="&#xc9;" glyph-name="Eacute" horiz-adv-x="551" d="M48 39Q46 42 43 50T35 69T28 89T24 103Q24 103 24 112T23 128Q23 149 25 171T34 215Q37 220 45 235T62 268T80 300T92 321Q117 365 155 399T234 463Q238 466 251 477T282 500T313 523T331 536Q332
537 334 539T337 541V544V546Q307 552 279 559T228 581T193 618T180 676Q180 719 204 749T263 800T340 830T416 840Q434 840 453 838T489 828T516 807T527 770Q527 756 519 749T497 741Q485 741 481 747T472 762T455 778T417 785Q395 785 374 782T331 780Q314 775
297 765T265 740T242 709T233 671Q233 643 247 629T282 608T328 600T374 597T410 587T424 560V551L394 522Q389 517 377 509T350 490T319 467T288 443T261 423T243 409Q215 386 186 357T133 293T93 221T77 144Q77 98 95 78T155 58Q196 58 237 70T319 101T395 145T463
195H467Q475 195 481 191T488 178Q488 173 483 166T471 152T459 142T454 137Q421 112 384 89T307 46T226 16T141 4Q137 4 122 4T103 4Q70 13 48 39ZM386 1017Q386 1016 386 1012T385 1004T384 997T383 992Q373 955 354 933T312 900T268 885T233 885T217 895T233
908Q252 916 271 935T307 977T338 1020T364 1051T380 1055T386 1017Z" />
<glyph unicode="&#xca;" glyph-name="Ecircumflex" horiz-adv-x="551" d="M48 39Q46 42 43 50T35 69T28 89T24 103Q24 103 24 112T23 128Q23 149 25 171T34 215Q37 220 45 235T62 268T80 300T92 321Q117 365 155 399T234 463Q238 466 251 477T282 500T313 523T331
536Q332 537 334 539T337 541V544V546Q307 552 279 559T228 581T193 618T180 676Q180 719 204 749T263 800T340 830T416 840Q434 840 453 838T489 828T516 807T527 770Q527 756 519 749T497 741Q485 741 481 747T472 762T455 778T417 785Q395 785 374 782T331 780Q314
775 297 765T265 740T242 709T233 671Q233 643 247 629T282 608T328 600T374 597T410 587T424 560V551L394 522Q389 517 377 509T350 490T319 467T288 443T261 423T243 409Q215 386 186 357T133 293T93 221T77 144Q77 98 95 78T155 58Q196 58 237 70T319 101T395
145T463 195H467Q475 195 481 191T488 178Q488 173 483 166T471 152T459 142T454 137Q421 112 384 89T307 46T226 16T141 4Q137 4 122 4T103 4Q70 13 48 39ZM280 1123Q266 1123 254 1111T232 1081T214 1043T198 1005T185 975T174 963Q161 963 153 971T144 994Q144
995 142 999T140 1008T142 1020T156 1031L263 1206Q264 1207 267 1210T275 1218T282 1225T288 1231H293H296Q299 1229 303 1225T311 1218T318 1211T321 1206L423 971V968V963Q422 962 419 959T413 955Q400 966 392 971T376 981T364 993T352 1016L296 1114Q294 1121
290 1122T280 1123Z" />
<glyph unicode="&#xcb;" glyph-name="Edieresis" horiz-adv-x="551" d="M48 39Q46 42 43 50T35 69T28 89T24 103Q24 103 24 112T23 128Q23 149 25 171T34 215Q37 220 45 235T62 268T80 300T92 321Q117 365 155 399T234 463Q238 466 251 477T282 500T313 523T331
536Q332 537 334 539T337 541V544V546Q307 552 279 559T228 581T193 618T180 676Q180 719 204 749T263 800T340 830T416 840Q434 840 453 838T489 828T516 807T527 770Q527 756 519 749T497 741Q485 741 481 747T472 762T455 778T417 785Q395 785 374 782T331 780Q314
775 297 765T265 740T242 709T233 671Q233 643 247 629T282 608T328 600T374 597T410 587T424 560V551L394 522Q389 517 377 509T350 490T319 467T288 443T261 423T243 409Q215 386 186 357T133 293T93 221T77 144Q77 98 95 78T155 58Q196 58 237 70T319 101T395
145T463 195H467Q475 195 481 191T488 178Q488 173 483 166T471 152T459 142T454 137Q421 112 384 89T307 46T226 16T141 4Q137 4 122 4T103 4Q70 13 48 39ZM175 946Q175 965 185 976T210 994T242 1003T273 1006Q311 1006 311 958Q311 922 297 913T252 904Q241
904 228 904T202 907T183 920T175 946ZM261 958Q259 958 254 958T244 957T233 954T227 946H261V958ZM423 945Q423 964 432 976T454 994T484 1003T514 1006Q523 1006 534 1006T554 1002T570 992T577 972Q577 954 570 941T550 920T523 908T492 904Q481 904 469 904T447
907T430 919T423 945ZM501 958Q499 958 495 958T485 957T474 954T468 946H501V958Z" />
<glyph unicode="&#xcc;" glyph-name="Igrave" horiz-adv-x="722" d="M454 127Q427 109 397 92T335 61T269 39T202 30Q162 30 137 51T97 103T73 169T54 234Q50 246 43 253T29 267T16 283T10 305Q10 315 21 323T41 332Q50 332 58 324T79 307T106 290T141 282Q154
282 171 282T200 287Q209 291 210 293T211 298T212 301T225 302Q233 302 243 301T263 295T277 283T283 265Q283 247 271 243T244 238Q237 238 218 238T178 237T139 235T112 234Q116 215 122 189T138 139T165 99T209 82Q240 82 270 89T328 109T382 138T434 170Q438
174 438 176T439 183Q439 220 432 258T424 336Q424 362 428 403T441 489T465 582T502 667T555 728T625 751Q643 751 654 741T673 714T685 677T691 637T693 601T693 575Q693 533 687 489T668 403T636 322T590 248Q570 222 548 204T502 161Q513 118 532 87T585 30Q589
26 589 24T590 16Q590 6 585 3T570 -1Q553 -1 543 4T524 18T507 35T489 53L454 127ZM477 342Q477 326 477 313T478 288T480 263T483 234Q484 229 486 222T489 215H493Q494 215 500 220T513 233T529 249T542 264Q598 328 621 406T645 571Q645 574 645 583T645 602T644
622T644 634Q643 637 642 645T637 663T632 680T629 692Q628 694 627 697T625 702Q595 699 573 678T534 623T507 550T489 471T480 398T477 342ZM503 926Q503 953 510 958T529 956T557 928T592 889T633 852T677 827Q697 820 695 815T677 807T638 806T589 819T541
849T509 903Q509 903 508 906T506 913T504 921T503 926Z" />
<glyph unicode="&#xcd;" glyph-name="Iacute" horiz-adv-x="722" d="M454 127Q427 109 397 92T335 61T269 39T202 30Q162 30 137 51T97 103T73 169T54 234Q50 246 43 253T29 267T16 283T10 305Q10 315 21 323T41 332Q50 332 58 324T79 307T106 290T141 282Q154
282 171 282T200 287Q209 291 210 293T211 298T212 301T225 302Q233 302 243 301T263 295T277 283T283 265Q283 247 271 243T244 238Q237 238 218 238T178 237T139 235T112 234Q116 215 122 189T138 139T165 99T209 82Q240 82 270 89T328 109T382 138T434 170Q438
174 438 176T439 183Q439 220 432 258T424 336Q424 362 428 403T441 489T465 582T502 667T555 728T625 751Q643 751 654 741T673 714T685 677T691 637T693 601T693 575Q693 533 687 489T668 403T636 322T590 248Q570 222 548 204T502 161Q513 118 532 87T585 30Q589
26 589 24T590 16Q590 6 585 3T570 -1Q553 -1 543 4T524 18T507 35T489 53L454 127ZM477 342Q477 326 477 313T478 288T480 263T483 234Q484 229 486 222T489 215H493Q494 215 500 220T513 233T529 249T542 264Q598 328 621 406T645 571Q645 574 645 583T645 602T644
622T644 634Q643 637 642 645T637 663T632 680T629 692Q628 694 627 697T625 702Q595 699 573 678T534 623T507 550T489 471T480 398T477 342ZM641 941Q641 940 641 936T640 928T639 921T638 916Q628 879 609 857T567 824T523 809T488 809T472 819T488 832Q507
840 526 859T562 901T593 944T619 975T635 979T641 941Z" />
<glyph unicode="&#xce;" glyph-name="Icircumflex" horiz-adv-x="722" d="M454 127Q427 109 397 92T335 61T269 39T202 30Q162 30 137 51T97 103T73 169T54 234Q50 246 43 253T29 267T16 283T10 305Q10 315 21 323T41 332Q50 332 58 324T79 307T106 290T141 282Q154
282 171 282T200 287Q209 291 210 293T211 298T212 301T225 302Q233 302 243 301T263 295T277 283T283 265Q283 247 271 243T244 238Q237 238 218 238T178 237T139 235T112 234Q116 215 122 189T138 139T165 99T209 82Q240 82 270 89T328 109T382 138T434 170Q438
174 438 176T439 183Q439 220 432 258T424 336Q424 362 428 403T441 489T465 582T502 667T555 728T625 751Q643 751 654 741T673 714T685 677T691 637T693 601T693 575Q693 533 687 489T668 403T636 322T590 248Q570 222 548 204T502 161Q513 118 532 87T585 30Q589
26 589 24T590 16Q590 6 585 3T570 -1Q553 -1 543 4T524 18T507 35T489 53L454 127ZM477 342Q477 326 477 313T478 288T480 263T483 234Q484 229 486 222T489 215H493Q494 215 500 220T513 233T529 249T542 264Q598 328 621 406T645 571Q645 574 645 583T645 602T644
622T644 634Q643 637 642 645T637 663T632 680T629 692Q628 694 627 697T625 702Q595 699 573 678T534 623T507 550T489 471T480 398T477 342ZM609 934Q595 934 583 922T561 892T543 854T527 816T514 786T503 774Q490 774 482 782T473 805Q473 806 471 810T469
819T471 831T485 842L592 1017Q593 1018 596 1021T604 1029T611 1036T617 1042H622H625Q628 1040 632 1036T640 1029T647 1022T650 1017L752 782V779V774Q751 773 748 770T742 766Q729 777 721 782T705 792T693 804T681 827L625 925Q623 932 619 933T609 934Z"
/>
<glyph unicode="&#xcf;" glyph-name="Idieresis" horiz-adv-x="722" d="M454 127Q427 109 397 92T335 61T269 39T202 30Q162 30 137 51T97 103T73 169T54 234Q50 246 43 253T29 267T16 283T10 305Q10 315 21 323T41 332Q50 332 58 324T79 307T106 290T141 282Q154
282 171 282T200 287Q209 291 210 293T211 298T212 301T225 302Q233 302 243 301T263 295T277 283T283 265Q283 247 271 243T244 238Q237 238 218 238T178 237T139 235T112 234Q116 215 122 189T138 139T165 99T209 82Q240 82 270 89T328 109T382 138T434 170Q438
174 438 176T439 183Q439 220 432 258T424 336Q424 362 428 403T441 489T465 582T502 667T555 728T625 751Q643 751 654 741T673 714T685 677T691 637T693 601T693 575Q693 533 687 489T668 403T636 322T590 248Q570 222 548 204T502 161Q513 118 532 87T585 30Q589
26 589 24T590 16Q590 6 585 3T570 -1Q553 -1 543 4T524 18T507 35T489 53L454 127ZM477 342Q477 326 477 313T478 288T480 263T483 234Q484 229 486 222T489 215H493Q494 215 500 220T513 233T529 249T542 264Q598 328 621 406T645 571Q645 574 645 583T645 602T644
622T644 634Q643 637 642 645T637 663T632 680T629 692Q628 694 627 697T625 702Q595 699 573 678T534 623T507 550T489 471T480 398T477 342ZM385 880Q385 899 395 910T420 928T452 937T483 940Q521 940 521 892Q521 856 507 847T462 838Q451 838 438 838T412
841T393 854T385 880ZM471 892Q469 892 464 892T454 891T443 888T437 880H471V892ZM633 879Q633 898 642 910T664 928T694 937T724 940Q733 940 744 940T764 936T780 926T787 906Q787 888 780 875T760 854T733 842T702 838Q691 838 679 838T657 841T640 853T633
879ZM711 892Q709 892 705 892T695 891T684 888T678 880H711V892Z" />
<glyph unicode="&#xd0;" glyph-name="Eth" horiz-adv-x="532" d="M-65 265Q-63 272 -51 279T-32 290Q18 291 41 290Q59 290 68 289V619Q48 650 36 682T23 751Q23 760 24 775T28 804T40 829T64 840Q74 840 78 832T83 815Q83 800 80 787T77 759Q77 750 77 736T82
712Q83 724 83 744T88 783T101 816T131 830Q139 830 145 827T151 814V712L165 589L390 405Q441 362 474 309T507 188Q507 144 489 110T441 51T373 13T293 0Q285 0 269 1T238 5T211 15T199 36Q199 41 199 45T204 53Q206 53 210 53T217 54Q235 54 251 51T286 48Q319
48 349 57T402 83T440 127T454 190Q454 211 448 232T430 273T405 310T375 341L151 526Q149 529 142 536T130 546L129 544Q128 544 127 544H126V280Q149 279 174 277Q208 274 239 264L223 247Q223 247 208 247Q188 245 156 241Q141 240 126 238V151L121 78Q121 69
112 65T97 58Q85 57 80 62T71 76T68 95V233Q42 230 20 229Q-9 229 -23 230T-24 239Q-29 239 -36 240T-50 244T-62 251T-65 265Z" />
<glyph unicode="&#xd1;" glyph-name="Ntilde" horiz-adv-x="1141" d="M726 53Q726 56 726 63T726 77T725 92T725 103Q725 172 735 241T751 381Q755 453 757 525T760 671Q760 686 760 709T757 753T742 790T706 805Q663 805 630 789T569 745T521 683T481 612T447
541T414 478L385 321V317Q383 309 380 295T374 266T368 241T365 229Q364 225 357 204T340 156T321 104T307 64Q300 46 291 43T265 39Q257 39 250 40T243 52Q243 108 256 159T288 260T324 360T350 463L394 722V822L199 722Q173 708 139 700T76 692Q50 692 37 700T24
736Q24 749 32 755T51 761Q59 761 63 758T72 751T80 744T93 741Q126 741 160 752T226 779T290 814T350 849Q364 856 377 864T407 873Q422 873 432 863T448 839T456 809T458 782V780Q457 776 455 761T451 729T446 697T444 678Q444 677 444 671T443 663Q443 661 443
656T444 649Q464 687 492 724T554 792T630 840T719 859Q754 859 775 838T806 786T820 723T823 664Q823 594 817 524T804 385T790 245T784 106Q784 98 784 83T790 58H792H795Q797 59 803 60T816 63T829 66T839 68Q845 72 862 82T899 104T936 126T960 141Q968 147
981 161T1008 193T1038 230T1065 266T1088 293T1102 303Q1111 303 1114 297T1117 283Q1117 254 1098 222T1047 159T976 99T898 48T824 13T765 0Q756 0 749 6T738 20T730 37T726 53ZM462 1077Q462 1081 463 1090T465 1109T470 1126T478 1133L481 1132Q482 1131 484
1129T488 1125Q490 1104 496 1076T515 1023T544 980T584 963Q608 963 628 976T668 1009T704 1052T738 1094T772 1127T808 1140Q819 1140 836 1135T867 1118T892 1092T903 1060Q903 1059 903 1059T902 1058V1056Q900 1054 893 1045T884 1032Q876 1044 869 1055T853
1075T836 1089T815 1095Q808 1095 804 1095T797 1091T790 1084T778 1071Q773 1065 760 1050T732 1018T704 986T685 964Q664 949 640 938T590 926Q568 926 546 940T504 976T474 1024T462 1077Z" />
<glyph unicode="&#xd2;" glyph-name="Ograve" horiz-adv-x="658" d="M23 174Q23 176 23 181T23 194T24 206T24 215Q36 307 51 384T92 529T160 661T268 790Q281 802 300 801T337 800Q369 800 402 789T463 760H472Q490 760 508 767T543 783T578 798T614 805Q624
805 631 801T639 784Q639 777 623 769T584 752T542 737T516 726Q535 703 547 681T567 635T577 586T580 530Q580 454 561 385T506 254T417 142T297 53Q259 33 217 16T131 -1Q97 -1 76 16T43 59T27 115T23 174ZM82 185Q82 167 82 144T88 101T107 67T146 53Q178 53
210 65T271 95T328 135T380 175Q417 208 445 251T497 337Q515 378 521 421T527 509Q527 535 527 564T519 621T497 670T454 706Q448 706 436 704T409 700T383 695T365 692Q364 692 357 690T341 686T325 681T316 678H314Q304 678 299 682T290 692T281 701T265 706H263Q231
682 207 645T165 567T134 484T112 405Q109 395 105 369T96 313T87 257T82 220V185ZM380 746Q376 746 376 741T380 736Q384 736 384 741T380 746ZM202 1016Q202 1043 209 1048T228 1046T256 1018T291 979T332 942T376 917Q396 910 394 905T376 897T337 896T288 909T240
939T208 993Q208 993 207 996T205 1003T203 1011T202 1016Z" />
<glyph unicode="&#xd3;" glyph-name="Oacute" horiz-adv-x="658" d="M23 174Q23 176 23 181T23 194T24 206T24 215Q36 307 51 384T92 529T160 661T268 790Q281 802 300 801T337 800Q369 800 402 789T463 760H472Q490 760 508 767T543 783T578 798T614 805Q624
805 631 801T639 784Q639 777 623 769T584 752T542 737T516 726Q535 703 547 681T567 635T577 586T580 530Q580 454 561 385T506 254T417 142T297 53Q259 33 217 16T131 -1Q97 -1 76 16T43 59T27 115T23 174ZM82 185Q82 167 82 144T88 101T107 67T146 53Q178 53
210 65T271 95T328 135T380 175Q417 208 445 251T497 337Q515 378 521 421T527 509Q527 535 527 564T519 621T497 670T454 706Q448 706 436 704T409 700T383 695T365 692Q364 692 357 690T341 686T325 681T316 678H314Q304 678 299 682T290 692T281 701T265 706H263Q231
682 207 645T165 567T134 484T112 405Q109 395 105 369T96 313T87 257T82 220V185ZM380 746Q376 746 376 741T380 736Q384 736 384 741T380 746ZM440 1017Q440 1016 440 1012T439 1004T438 997T437 992Q427 955 408 933T366 900T322 885T287 885T271 895T287 908Q306
916 325 935T361 977T392 1020T418 1051T434 1055T440 1017Z" />
<glyph unicode="&#xd4;" glyph-name="Ocircumflex" horiz-adv-x="658" d="M23 174Q23 176 23 181T23 194T24 206T24 215Q36 307 51 384T92 529T160 661T268 790Q281 802 300 801T337 800Q369 800 402 789T463 760H472Q490 760 508 767T543 783T578 798T614 805Q624
805 631 801T639 784Q639 777 623 769T584 752T542 737T516 726Q535 703 547 681T567 635T577 586T580 530Q580 454 561 385T506 254T417 142T297 53Q259 33 217 16T131 -1Q97 -1 76 16T43 59T27 115T23 174ZM82 185Q82 167 82 144T88 101T107 67T146 53Q178 53
210 65T271 95T328 135T380 175Q417 208 445 251T497 337Q515 378 521 421T527 509Q527 535 527 564T519 621T497 670T454 706Q448 706 436 704T409 700T383 695T365 692Q364 692 357 690T341 686T325 681T316 678H314Q304 678 299 682T290 692T281 701T265 706H263Q231
682 207 645T165 567T134 484T112 405Q109 395 105 369T96 313T87 257T82 220V185ZM380 746Q376 746 376 741T380 736Q384 736 384 741T380 746ZM334 1123Q320 1123 308 1111T286 1081T268 1043T252 1005T239 975T228 963Q215 963 207 971T198 994Q198 995 196
999T194 1008T196 1020T210 1031L317 1206Q318 1207 321 1210T329 1218T336 1225T342 1231H347H350Q353 1229 357 1225T365 1218T372 1211T375 1206L477 971V968V963Q476 962 473 959T467 955Q454 966 446 971T430 981T418 993T406 1016L350 1114Q348 1121 344
1122T334 1123Z" />
<glyph unicode="&#xd5;" glyph-name="Otilde" horiz-adv-x="658" d="M23 174Q23 176 23 181T23 194T24 206T24 215Q36 307 51 384T92 529T160 661T268 790Q281 802 300 801T337 800Q369 800 402 789T463 760H472Q490 760 508 767T543 783T578 798T614 805Q624
805 631 801T639 784Q639 777 623 769T584 752T542 737T516 726Q535 703 547 681T567 635T577 586T580 530Q580 454 561 385T506 254T417 142T297 53Q259 33 217 16T131 -1Q97 -1 76 16T43 59T27 115T23 174ZM82 185Q82 167 82 144T88 101T107 67T146 53Q178 53
210 65T271 95T328 135T380 175Q417 208 445 251T497 337Q515 378 521 421T527 509Q527 535 527 564T519 621T497 670T454 706Q448 706 436 704T409 700T383 695T365 692Q364 692 357 690T341 686T325 681T316 678H314Q304 678 299 682T290 692T281 701T265 706H263Q231
682 207 645T165 567T134 484T112 405Q109 395 105 369T96 313T87 257T82 220V185ZM380 746Q376 746 376 741T380 736Q384 736 384 741T380 746ZM108 1007Q108 1011 109 1020T111 1039T116 1056T124 1063L127 1062Q128 1061 130 1059T134 1055Q136 1034 142 1006T161
953T190 910T230 893Q254 893 274 906T314 939T350 982T384 1024T418 1057T454 1070Q465 1070 482 1065T513 1048T538 1022T549 990Q549 989 549 989T548 988V986Q546 984 539 975T530 962Q522 974 515 985T499 1005T482 1019T461 1025Q454 1025 450 1025T443 1021T436
1014T424 1001Q419 995 406 980T378 948T350 916T331 894Q310 879 286 868T236 856Q214 856 192 870T150 906T120 954T108 1007Z" />
<glyph unicode="&#xd6;" glyph-name="Odieresis" horiz-adv-x="658" d="M23 174Q23 176 23 181T23 194T24 206T24 215Q36 307 51 384T92 529T160 661T268 790Q281 802 300 801T337 800Q369 800 402 789T463 760H472Q490 760 508 767T543 783T578 798T614 805Q624
805 631 801T639 784Q639 777 623 769T584 752T542 737T516 726Q535 703 547 681T567 635T577 586T580 530Q580 454 561 385T506 254T417 142T297 53Q259 33 217 16T131 -1Q97 -1 76 16T43 59T27 115T23 174ZM82 185Q82 167 82 144T88 101T107 67T146 53Q178 53
210 65T271 95T328 135T380 175Q417 208 445 251T497 337Q515 378 521 421T527 509Q527 535 527 564T519 621T497 670T454 706Q448 706 436 704T409 700T383 695T365 692Q364 692 357 690T341 686T325 681T316 678H314Q304 678 299 682T290 692T281 701T265 706H263Q231
682 207 645T165 567T134 484T112 405Q109 395 105 369T96 313T87 257T82 220V185ZM380 746Q376 746 376 741T380 736Q384 736 384 741T380 746ZM182 899Q182 918 192 929T217 947T249 956T280 959Q318 959 318 911Q318 875 304 866T259 857Q248 857 235 857T209
860T190 873T182 899ZM268 911Q266 911 261 911T251 910T240 907T234 899H268V911ZM430 898Q430 917 439 929T461 947T491 956T521 959Q530 959 541 959T561 955T577 945T584 925Q584 907 577 894T557 873T530 861T499 857Q488 857 476 857T454 860T437 872T430
898ZM508 911Q506 911 502 911T492 910T481 907T475 899H508V911Z" />
<glyph unicode="&#xd7;" glyph-name="multiply" horiz-adv-x="588" d="M222 286Q223 288 224 293T225 301Q222 310 217 324T204 355T189 388T173 418Q170 424 166 430T152 434Q152 433 150 429T146 423L140 494Q154 502 166 501T188 491T207 470T223 447Q235 428
243 408T264 369Q264 367 265 366L266 364Q271 372 281 389T304 426T326 463T341 489Q342 491 344 497T350 510T355 524T359 534Q360 535 364 536Q373 542 389 538T410 525Q412 522 413 517T413 509L299 310Q295 304 297 302T303 293Q310 265 323 256T354 247T391
259T427 281T459 300T480 306T484 287T465 234Q438 218 411 208T358 197T308 206T260 242Q229 201 208 175T182 120Q177 117 171 121T157 133T143 148T135 159L222 286Z" />
<glyph unicode="&#xd8;" glyph-name="Oslash" horiz-adv-x="658" d="M23 174V182Q23 187 23 194T24 206V215Q36 307 51 384T92 529T160 661T268 790Q281 802 300 801T337 800Q369 800 402 789T463 760H472Q489 760 505 766L532 814Q537 822 547 827T566 832Q579
832 580 823T582 804V800Q598 805 614 805Q624 805 631 801T639 784Q639 777 623 769T584 751Q567 745 551 739L530 706Q540 694 547 680Q560 659 567 635T577 586T580 530Q580 454 561 385T506 254T417 142T297 53Q259 33 217 16T131 -1Q115 -1 102 3L101 0Q99
-1 98 -1H94Q80 -1 77 6Q76 11 75 17Q54 34 43 58Q31 85 27 115T23 174ZM82 185Q82 167 82 144T88 101Q89 95 92 90L93 91L374 565Q386 579 395 594T413 625T433 655T457 681L467 698Q461 703 454 706Q448 706 436 704T409 700T383 695T365 692Q364 692 357 690T341
686T325 681T316 678H314Q304 678 299 682T290 692T281 701T265 706H263Q231 682 207 645T165 567T134 484T112 405Q109 395 105 369T96 313T87 257T82 220V185ZM146 53Q178 53 210 65T271 95T328 135T380 175Q417 208 445 251T497 337Q515 378 521 421T527 509Q527
535 527 564T518 621Q513 643 502 662L167 132L128 55Q136 53 146 53ZM380 746Q376 746 376 741T380 736Q384 736 384 741T380 746Z" />
<glyph unicode="&#xd9;" glyph-name="Ugrave" horiz-adv-x="1081" d="M341 68Q341 91 344 114T350 161T356 207T355 254L382 445L298 332L83 121Q73 106 66 94T39 82Q26 82 23 88T20 106Q20 122 25 132T44 156L268 371L351 483Q355 491 360 502T373 523T386 542T395
555Q412 614 436 673T493 785Q499 796 514 796Q523 796 532 791T542 776Q542 775 542 773T541 770Q541 769 539 761T536 751Q523 725 509 692T481 622T458 550T445 483L400 121V58Q409 62 430 73T474 98T518 124T546 141Q553 147 572 161T612 191T651 223T679 244Q681
247 692 257T716 282T741 310T761 332Q772 344 784 359T806 391T825 426T839 458L931 800Q932 805 935 814T943 832T954 847T970 853Q983 853 989 842T996 820Q996 817 995 812T994 805L960 629V624L892 434L863 185Q862 183 862 180V171Q862 150 863 131T870 99T888
76T924 67Q999 119 1043 137T1106 153T1119 131T1085 89T1013 44T908 13Q877 13 857 26T826 60T810 107T805 161Q805 198 809 234T814 307V321Q814 321 812 320T809 317Q791 295 776 276T743 238T705 201T658 166L424 14Q414 7 400 3T373 -1Q362 -1 354 6T341 24V68ZM819
337Q815 337 815 332T819 326Q823 326 823 331T819 337ZM613 973Q613 1000 620 1005T639 1003T667 975T702 936T743 899T787 874Q807 867 805 862T787 854T748 853T699 866T651 896T619 950Q619 950 618 953T616 960T614 968T613 973Z" />
<glyph unicode="&#xda;" glyph-name="Uacute" horiz-adv-x="1081" d="M341 68Q341 91 344 114T350 161T356 207T355 254L382 445L298 332L83 121Q73 106 66 94T39 82Q26 82 23 88T20 106Q20 122 25 132T44 156L268 371L351 483Q355 491 360 502T373 523T386 542T395
555Q412 614 436 673T493 785Q499 796 514 796Q523 796 532 791T542 776Q542 775 542 773T541 770Q541 769 539 761T536 751Q523 725 509 692T481 622T458 550T445 483L400 121V58Q409 62 430 73T474 98T518 124T546 141Q553 147 572 161T612 191T651 223T679 244Q681
247 692 257T716 282T741 310T761 332Q772 344 784 359T806 391T825 426T839 458L931 800Q932 805 935 814T943 832T954 847T970 853Q983 853 989 842T996 820Q996 817 995 812T994 805L960 629V624L892 434L863 185Q862 183 862 180V171Q862 150 863 131T870 99T888
76T924 67Q999 119 1043 137T1106 153T1119 131T1085 89T1013 44T908 13Q877 13 857 26T826 60T810 107T805 161Q805 198 809 234T814 307V321Q814 321 812 320T809 317Q791 295 776 276T743 238T705 201T658 166L424 14Q414 7 400 3T373 -1Q362 -1 354 6T341 24V68ZM819
337Q815 337 815 332T819 326Q823 326 823 331T819 337ZM844 1008Q844 1007 844 1003T843 995T842 988T841 983Q831 946 812 924T770 891T726 876T691 876T675 886T691 899Q710 907 729 926T765 968T796 1011T822 1042T838 1046T844 1008Z" />
<glyph unicode="&#xdb;" glyph-name="Ucircumflex" horiz-adv-x="1081" d="M341 68Q341 91 344 114T350 161T356 207T355 254L382 445L298 332L83 121Q73 106 66 94T39 82Q26 82 23 88T20 106Q20 122 25 132T44 156L268 371L351 483Q355 491 360 502T373 523T386
542T395 555Q412 614 436 673T493 785Q499 796 514 796Q523 796 532 791T542 776Q542 775 542 773T541 770Q541 769 539 761T536 751Q523 725 509 692T481 622T458 550T445 483L400 121V58Q409 62 430 73T474 98T518 124T546 141Q553 147 572 161T612 191T651 223T679
244Q681 247 692 257T716 282T741 310T761 332Q772 344 784 359T806 391T825 426T839 458L931 800Q932 805 935 814T943 832T954 847T970 853Q983 853 989 842T996 820Q996 817 995 812T994 805L960 629V624L892 434L863 185Q862 183 862 180V171Q862 150 863 131T870
99T888 76T924 67Q999 119 1043 137T1106 153T1119 131T1085 89T1013 44T908 13Q877 13 857 26T826 60T810 107T805 161Q805 198 809 234T814 307V321Q814 321 812 320T809 317Q791 295 776 276T743 238T705 201T658 166L424 14Q414 7 400 3T373 -1Q362 -1 354
6T341 24V68ZM819 337Q815 337 815 332T819 326Q823 326 823 331T819 337ZM741 1047Q727 1047 715 1035T693 1005T675 967T659 929T646 899T635 887Q622 887 614 895T605 918Q605 919 603 923T601 932T603 944T617 955L724 1130Q725 1131 728 1134T736 1142T743
1149T749 1155H754H757Q760 1153 764 1149T772 1142T779 1135T782 1130L884 895V892V887Q883 886 880 883T874 879Q861 890 853 895T837 905T825 917T813 940L757 1038Q755 1045 751 1046T741 1047Z" />
<glyph unicode="&#xdc;" glyph-name="Udieresis" horiz-adv-x="1081" d="M341 68Q341 91 344 114T350 161T356 207T355 254L382 445L298 332L83 121Q73 106 66 94T39 82Q26 82 23 88T20 106Q20 122 25 132T44 156L268 371L351 483Q355 491 360 502T373 523T386
542T395 555Q412 614 436 673T493 785Q499 796 514 796Q523 796 532 791T542 776Q542 775 542 773T541 770Q541 769 539 761T536 751Q523 725 509 692T481 622T458 550T445 483L400 121V58Q409 62 430 73T474 98T518 124T546 141Q553 147 572 161T612 191T651 223T679
244Q681 247 692 257T716 282T741 310T761 332Q772 344 784 359T806 391T825 426T839 458L931 800Q932 805 935 814T943 832T954 847T970 853Q983 853 989 842T996 820Q996 817 995 812T994 805L960 629V624L892 434L863 185Q862 183 862 180V171Q862 150 863 131T870
99T888 76T924 67Q999 119 1043 137T1106 153T1119 131T1085 89T1013 44T908 13Q877 13 857 26T826 60T810 107T805 161Q805 198 809 234T814 307V321Q814 321 812 320T809 317Q791 295 776 276T743 238T705 201T658 166L424 14Q414 7 400 3T373 -1Q362 -1 354
6T341 24V68ZM819 337Q815 337 815 332T819 326Q823 326 823 331T819 337ZM561 927Q561 946 571 957T596 975T628 984T659 987Q697 987 697 939Q697 903 683 894T638 885Q627 885 614 885T588 888T569 901T561 927ZM647 939Q645 939 640 939T630 938T619 935T613
927H647V939ZM809 926Q809 945 818 957T840 975T870 984T900 987Q909 987 920 987T940 983T956 973T963 953Q963 935 956 922T936 901T909 889T878 885Q867 885 855 885T833 888T816 900T809 926ZM887 939Q885 939 881 939T871 938T860 935T854 927H887V939Z" />
<glyph unicode="&#xdd;" glyph-name="Yacute" horiz-adv-x="1015" d="M375 -386Q375 -372 376 -361T378 -339T382 -315T390 -283Q400 -266 407 -249T420 -214T434 -180T454 -146Q493 -88 540 -38T639 59L680 371L541 54Q536 43 527 27T505 -6T478 -33T448 -44Q436
-44 428 -32T416 -4T411 29T409 54Q409 56 409 61T410 68Q411 85 414 114T421 171T426 220T429 244L532 697V719Q532 735 531 751T524 778T507 797T475 805Q458 805 434 796T395 776Q387 770 371 759T340 736T313 715T298 702L73 483Q66 476 58 474T41 472Q29 472
25 477T20 496Q20 505 21 518T26 544T38 566T56 576Q61 576 64 573T70 566T75 559T80 555H82Q83 555 83 556L298 761Q316 778 339 796T387 827T440 850T495 859Q517 859 536 848T568 819T588 780T589 736L472 157Q470 141 469 130T468 107T469 84T470 55Q474 55
474 54T478 59Q481 65 487 73T498 90T508 105T512 112L746 649Q751 658 755 658T767 659Q777 659 788 655T800 637V629L717 244Q710 216 708 192T706 142V117Q722 129 746 143T799 170T860 197T921 219T977 235T1021 241Q1027 241 1036 240T1054 235T1069 225T1075
210Q1075 204 1072 195T1060 188Q1058 188 1050 192T1040 197Q1038 197 1033 196T1021 194T1009 191T1001 188Q961 184 917 173T832 143T756 101T702 44L697 30Q697 30 696 8T694 -43T690 -104T688 -156V-180L658 -390Q653 -420 641 -452T608 -510T560 -554T498
-572Q494 -572 483 -572T468 -571Q441 -563 424 -542T395 -494T380 -438T375 -386ZM428 -383Q428 -396 431 -419T441 -463T461 -501T495 -517Q517 -517 535 -504T566 -470T589 -427T600 -385L634 -77V-20Q597 -53 560 -94T493 -181T446 -278T428 -383ZM816 954Q816
953 816 949T815 941T814 934T813 929Q803 892 784 870T742 837T698 822T663 822T647 832T663 845Q682 853 701 872T737 914T768 957T794 988T810 992T816 954Z" />
<glyph unicode="&#xde;" glyph-name="Thorn" horiz-adv-x="427" d="M143 241Q142 241 141 239T138 236Q133 229 127 211T115 171T101 122T88 73T77 31T69 4Q62 -6 55 -9T37 -12Q14 -12 14 9Q25 52 32 83T45 141T56 191T67 243T82 305T102 388T132 499T175 648Q179
648 186 645T199 637T210 627T216 616Q211 574 207 548T196 496T179 436T153 348Q180 380 215 401T292 423Q296 423 307 422T323 421Q345 416 360 399T384 360T397 315T401 273Q401 262 400 250T392 222T374 181T343 124Q328 116 315 110T286 103Q264 103 237 114T186
145T150 188T143 241ZM167 256Q183 256 192 244T213 217T243 190T297 177H319Q328 186 333 200T340 229T343 259T344 286Q344 301 341 316T330 344T311 365T282 373Q261 373 240 361T201 329T169 289T148 251Q153 256 157 256T167 256Z" />
<glyph unicode="&#xdf;" glyph-name="germandbls" horiz-adv-x="571" d="M101 -132Q98 -131 90 -131T73 -130T56 -128T45 -125Q51 -86 53 -23T55 119T55 283T56 454T66 613T87 746Q90 755 90 769T92 796T99 819T121 829Q130 829 136 824T151 818Q160 818 170 822T193
831T217 840T243 844Q300 844 330 808T361 717Q361 707 358 692T355 668Q347 623 330 582T287 502Q343 498 390 476T472 419T526 335T546 229Q546 180 532 138T490 65T422 17T331 -1Q310 -1 285 2T240 11T208 24T201 36T233 45T314 49Q400 49 441 98T483 231Q483
280 469 320T426 389T359 433T274 449Q262 449 254 444T238 434T222 423T204 418Q192 418 186 427T180 448Q180 463 187 472T204 490T225 506T243 526Q247 533 252 543T263 563T273 581T277 589Q279 596 283 612T293 645T302 679T307 702V709Q307 742 291 766T240
790Q230 790 216 786T188 774T163 757T151 736L112 454V444L101 -132Z" />
<glyph unicode="&#xe0;" glyph-name="agrave" horiz-adv-x="545" d="M22 30Q22 33 22 45T22 61Q5 121 17 179T62 283T145 361T256 400H274Q296 400 310 391T333 366T345 332T349 294Q349 268 344 244T332 194T320 145T314 93V87Q315 85 316 76T319 64Q321 64 329
64T339 63Q349 63 358 63T378 68L568 156Q569 156 571 156T575 157Q585 157 591 151T598 135Q598 130 598 126T592 117Q585 112 567 103T527 83T488 62T461 49Q447 41 430 35T395 22T360 13T328 9Q306 9 292 16T271 36T262 66T261 103Q241 87 218 69T170 36T119
10T66 -1Q51 -1 39 6T22 30ZM76 51Q99 51 127 64T182 98T231 140T265 181Q266 211 273 238T281 295Q281 297 281 301T280 307Q267 318 258 320T234 322Q232 322 226 322T217 321Q211 316 197 303T168 273T139 243T120 224Q119 224 116 221T110 212T104 203T100
195L76 78V51ZM139 576Q139 603 146 608T165 606T193 578T228 539T269 502T313 477Q333 470 331 465T313 457T274 456T225 469T177 499T145 553Q145 553 144 556T142 563T140 571T139 576Z" />
<glyph unicode="&#xe1;" glyph-name="aacute" horiz-adv-x="545" d="M22 30Q22 33 22 45T22 61Q5 121 17 179T62 283T145 361T256 400H274Q296 400 310 391T333 366T345 332T349 294Q349 268 344 244T332 194T320 145T314 93V87Q315 85 316 76T319 64Q321 64 329
64T339 63Q349 63 358 63T378 68L568 156Q569 156 571 156T575 157Q585 157 591 151T598 135Q598 130 598 126T592 117Q585 112 567 103T527 83T488 62T461 49Q447 41 430 35T395 22T360 13T328 9Q306 9 292 16T271 36T262 66T261 103Q241 87 218 69T170 36T119
10T66 -1Q51 -1 39 6T22 30ZM76 51Q99 51 127 64T182 98T231 140T265 181Q266 211 273 238T281 295Q281 297 281 301T280 307Q267 318 258 320T234 322Q232 322 226 322T217 321Q211 316 197 303T168 273T139 243T120 224Q119 224 116 221T110 212T104 203T100
195L76 78V51ZM301 567Q301 566 301 562T300 554T299 547T298 542Q288 505 269 483T227 450T183 435T148 435T132 445T148 458Q167 466 186 485T222 527T253 570T279 601T295 605T301 567Z" />
<glyph unicode="&#xe2;" glyph-name="acircumflex" horiz-adv-x="545" d="M22 30Q22 33 22 45T22 61Q5 121 17 179T62 283T145 361T256 400H274Q296 400 310 391T333 366T345 332T349 294Q349 268 344 244T332 194T320 145T314 93V87Q315 85 316 76T319 64Q321
64 329 64T339 63Q349 63 358 63T378 68L568 156Q569 156 571 156T575 157Q585 157 591 151T598 135Q598 130 598 126T592 117Q585 112 567 103T527 83T488 62T461 49Q447 41 430 35T395 22T360 13T328 9Q306 9 292 16T271 36T262 66T261 103Q241 87 218 69T170
36T119 10T66 -1Q51 -1 39 6T22 30ZM76 51Q99 51 127 64T182 98T231 140T265 181Q266 211 273 238T281 295Q281 297 281 301T280 307Q267 318 258 320T234 322Q232 322 226 322T217 321Q211 316 197 303T168 273T139 243T120 224Q119 224 116 221T110 212T104 203T100
195L76 78V51ZM249 580Q235 580 223 568T201 538T183 500T167 462T154 432T143 420Q130 420 122 428T113 451Q113 452 111 456T109 465T111 477T125 488L232 663Q233 664 236 667T244 675T251 682T257 688H262H265Q268 686 272 682T280 675T287 668T290 663L392
428V425V420Q391 419 388 416T382 412Q369 423 361 428T345 438T333 450T321 473L265 571Q263 578 259 579T249 580Z" />
<glyph unicode="&#xe3;" glyph-name="atilde" horiz-adv-x="545" d="M22 30Q22 33 22 45T22 61Q5 121 17 179T62 283T145 361T256 400H274Q296 400 310 391T333 366T345 332T349 294Q349 268 344 244T332 194T320 145T314 93V87Q315 85 316 76T319 64Q321 64 329
64T339 63Q349 63 358 63T378 68L568 156Q569 156 571 156T575 157Q585 157 591 151T598 135Q598 130 598 126T592 117Q585 112 567 103T527 83T488 62T461 49Q447 41 430 35T395 22T360 13T328 9Q306 9 292 16T271 36T262 66T261 103Q241 87 218 69T170 36T119
10T66 -1Q51 -1 39 6T22 30ZM76 51Q99 51 127 64T182 98T231 140T265 181Q266 211 273 238T281 295Q281 297 281 301T280 307Q267 318 258 320T234 322Q232 322 226 322T217 321Q211 316 197 303T168 273T139 243T120 224Q119 224 116 221T110 212T104 203T100
195L76 78V51ZM45 577Q45 581 46 590T48 609T53 626T61 633L64 632Q65 631 67 629T71 625Q73 604 79 576T98 523T127 480T167 463Q191 463 211 476T251 509T287 552T321 594T355 627T391 640Q402 640 419 635T450 618T475 592T486 560Q486 559 486 559T485 558V556Q483
554 476 545T467 532Q459 544 452 555T436 575T419 589T398 595Q391 595 387 595T380 591T373 584T361 571Q356 565 343 550T315 518T287 486T268 464Q247 449 223 438T173 426Q151 426 129 440T87 476T57 524T45 577Z" />
<glyph unicode="&#xe4;" glyph-name="adieresis" horiz-adv-x="545" d="M22 30Q22 33 22 45T22 61Q5 121 17 179T62 283T145 361T256 400H274Q296 400 310 391T333 366T345 332T349 294Q349 268 344 244T332 194T320 145T314 93V87Q315 85 316 76T319 64Q321 64
329 64T339 63Q349 63 358 63T378 68L568 156Q569 156 571 156T575 157Q585 157 591 151T598 135Q598 130 598 126T592 117Q585 112 567 103T527 83T488 62T461 49Q447 41 430 35T395 22T360 13T328 9Q306 9 292 16T271 36T262 66T261 103Q241 87 218 69T170 36T119
10T66 -1Q51 -1 39 6T22 30ZM76 51Q99 51 127 64T182 98T231 140T265 181Q266 211 273 238T281 295Q281 297 281 301T280 307Q267 318 258 320T234 322Q232 322 226 322T217 321Q211 316 197 303T168 273T139 243T120 224Q119 224 116 221T110 212T104 203T100
195L76 78V51ZM55 472Q55 491 65 502T90 520T122 529T153 532Q191 532 191 484Q191 448 177 439T132 430Q121 430 108 430T82 433T63 446T55 472ZM141 484Q139 484 134 484T124 483T113 480T107 472H141V484ZM303 471Q303 490 312 502T334 520T364 529T394 532Q403
532 414 532T434 528T450 518T457 498Q457 480 450 467T430 446T403 434T372 430Q361 430 349 430T327 433T310 445T303 471ZM381 484Q379 484 375 484T365 483T354 480T348 472H381V484Z" />
<glyph unicode="&#xe5;" glyph-name="aring" horiz-adv-x="545" d="M112 480Q112 535 135 575T208 654Q209 655 213 658T223 664T234 670T245 673Q252 673 258 668T264 656V654Q264 652 262 649T258 644V642Q258 638 267 635T289 627T314 619T330 611Q354 591
365 566T376 514Q376 484 360 461T319 421Q298 408 273 400H274Q296 400 310 391T333 366T345 332T349 294Q349 268 344 244T332 194T320 145T314 93V87Q315 85 316 76T319 64Q321 64 329 64T339 63Q349 63 358 63T378 68L568 156Q569 156 571 156T575 157Q585
157 591 151T598 135Q598 130 598 126T592 117Q585 112 567 103T527 83T488 62T461 49Q447 41 430 35T395 22T360 13T328 9Q306 9 292 16T271 36T262 66T261 103Q241 87 218 69T170 36T119 10T66 -1Q51 -1 39 6T22 30Q22 33 22 45T22 61Q5 121 17 179T62 283T146
362Q172 378 201 388H200Q195 388 181 388T163 389Q145 392 135 402T120 426T114 453T112 480ZM76 51Q99 51 127 64T182 98T231 140T265 181Q266 211 273 238T281 295Q281 297 281 301T280 307Q267 318 258 320T234 322H225Q219 322 217 321Q211 316 197 303T168
273T139 243T120 224Q119 224 116 221T110 212T104 203T100 195L76 78V51ZM163 508Q172 490 174 481T178 464T187 452T210 439Q260 439 282 456T304 519Q304 542 303 553T294 570T272 581T234 594Q211 589 197 581T175 562T165 537T163 508Z" />
<glyph unicode="&#xe6;" glyph-name="ae" horiz-adv-x="671" d="M22 30Q22 33 22 45T22 61Q5 121 17 179T62 283T145 361T256 400H274Q296 400 310 391T333 366T345 332T349 294Q349 268 344 244T332 194T320 145T314 93V87Q315 85 316 76T319 64Q320 64 322 64T328
63L333 128Q335 134 339 150T348 184T356 218T362 240Q368 265 376 292T400 344T438 383T497 399Q509 399 515 390T525 369Q525 365 525 355T526 340Q526 297 517 264T491 203T449 151T391 99Q391 96 389 89T387 79V77Q387 59 393 48T409 31T432 23T463 21Q509
21 552 34T632 76Q637 81 644 90T660 110T677 127T696 135Q706 135 708 127T710 112Q710 89 697 70T662 35T613 7T558 -13T506 -25T465 -29Q427 -29 399 -21T351 10Q329 -1 311 -1T279 12T261 47T261 103Q241 87 218 69T170 36T119 10T66 -1Q51 -1 39 6T22 30ZM76
51Q99 51 127 64T182 98T231 140T265 181Q266 211 273 238T281 295Q281 297 281 301T280 307Q267 318 258 320T234 322Q232 322 226 322T217 321Q211 316 197 303T168 273T139 243T120 224Q119 224 116 221T110 212T104 203T100 195L76 78V51ZM476 325Q455 307
444 293T426 263T415 229T406 187Q425 202 437 217T458 248T470 283T476 325Z" />
<glyph unicode="&#xe7;" glyph-name="ccedilla" horiz-adv-x="522" d="M196 -290Q192 -286 185 -282T172 -272T162 -260T157 -244Q157 -243 159 -241T163 -239H167Q169 -240 172 -244T177 -250Q190 -256 199 -259T215 -264T229 -266T246 -267Q252 -267 263 -269T290
-274T320 -277T348 -277T368 -269T376 -249V-246Q376 -244 375 -244L236 -143Q229 -139 221 -130T205 -110T192 -87T186 -64Q182 -25 184 -7Q185 -2 186 2Q177 0 168 0Q159 -1 146 -1Q110 -1 87 8T49 34T29 77T20 137Q25 188 43 234T86 313T136 364T181 375Q186
378 189 380T195 385T201 389T212 391Q226 391 237 382T256 360T269 333T274 306Q274 293 264 288T241 283Q233 283 227 286T217 295T207 305T194 312H190L185 308Q182 304 181 302Q160 277 142 258T111 218T90 175T82 120V111Q82 105 82 99T83 86V78Q85 68 94
63T112 53Q115 53 127 53T141 52Q177 52 226 63T324 94T418 139T488 195Q494 203 498 217T508 244T521 268T542 278Q555 278 558 268T562 247Q562 215 547 189T508 142T458 105T405 78Q398 76 375 67T324 48T272 29T234 14Q220 10 211 7Q216 0 220 -9Q226 -22 227
-36T220 -58Q220 -82 234 -99T269 -130T315 -155T360 -180T395 -207T409 -242Q409 -271 397 -284T365 -300T325 -303T283 -302Q279 -302 267 -300T241 -296T215 -293T196 -290Z" />
<glyph unicode="&#xe8;" glyph-name="egrave" horiz-adv-x="370" d="M16 156Q18 162 22 177T31 211T39 245T45 268Q51 292 59 320T83 372T121 411T180 427Q193 427 198 418T208 397Q208 393 208 383T209 368Q209 325 201 292T175 231T132 179T75 127Q74 124 72
117T70 107V105Q70 87 76 76T92 59T116 51T146 49Q193 49 236 62T315 104Q320 109 327 118T343 138T360 155T379 163Q389 163 391 155T393 139Q393 117 380 98T345 63T296 35T241 15T190 3T148 -1Q95 -1 60 16T11 87L16 156ZM159 353Q139 335 128 321T110 291T99
257T89 215Q108 230 120 245T141 276T153 310T159 353ZM316 715Q316 742 323 747T342 745T370 717T405 678T446 641T490 616Q510 609 508 604T490 596T451 595T402 608T354 638T322 692Q322 692 321 695T319 702T317 710T316 715Z" />
<glyph unicode="&#xe9;" glyph-name="eacute" horiz-adv-x="370" d="M16 156Q18 162 22 177T31 211T39 245T45 268Q51 292 59 320T83 372T121 411T180 427Q193 427 198 418T208 397Q208 393 208 383T209 368Q209 325 201 292T175 231T132 179T75 127Q74 124 72
117T70 107V105Q70 87 76 76T92 59T116 51T146 49Q193 49 236 62T315 104Q320 109 327 118T343 138T360 155T379 163Q389 163 391 155T393 139Q393 117 380 98T345 63T296 35T241 15T190 3T148 -1Q95 -1 60 16T11 87L16 156ZM159 353Q139 335 128 321T110 291T99
257T89 215Q108 230 120 245T141 276T153 310T159 353ZM554 716Q554 715 554 711T553 703T552 696T551 691Q541 654 522 632T480 599T436 584T401 584T385 594T401 607Q420 615 439 634T475 676T506 719T532 750T548 754T554 716Z" />
<glyph unicode="&#xea;" glyph-name="ecircumflex" horiz-adv-x="370" d="M16 156Q18 162 22 177T31 211T39 245T45 268Q51 292 59 320T83 372T121 411T180 427Q193 427 198 418T208 397Q208 393 208 383T209 368Q209 325 201 292T175 231T132 179T75 127Q74 124
72 117T70 107V105Q70 87 76 76T92 59T116 51T146 49Q193 49 236 62T315 104Q320 109 327 118T343 138T360 155T379 163Q389 163 391 155T393 139Q393 117 380 98T345 63T296 35T241 15T190 3T148 -1Q95 -1 60 16T11 87L16 156ZM159 353Q139 335 128 321T110 291T99
257T89 215Q108 230 120 245T141 276T153 310T159 353ZM177 650Q163 650 151 638T129 608T111 570T95 532T82 502T71 490Q58 490 50 498T41 521Q41 522 39 526T37 535T39 547T53 558L160 733Q161 734 164 737T172 745T179 752T185 758H190H193Q196 756 200 752T208
745T215 738T218 733L320 498V495V490Q319 489 316 486T310 482Q297 493 289 498T273 508T261 520T249 543L193 641Q191 648 187 649T177 650Z" />
<glyph unicode="&#xeb;" glyph-name="edieresis" horiz-adv-x="370" d="M16 156Q18 162 22 177T31 211T39 245T45 268Q51 292 59 320T83 372T121 411T180 427Q193 427 198 418T208 397Q208 393 208 383T209 368Q209 325 201 292T175 231T132 179T75 127Q74 124
72 117T70 107V105Q70 87 76 76T92 59T116 51T146 49Q193 49 236 62T315 104Q320 109 327 118T343 138T360 155T379 163Q389 163 391 155T393 139Q393 117 380 98T345 63T296 35T241 15T190 3T148 -1Q95 -1 60 16T11 87L16 156ZM159 353Q139 335 128 321T110 291T99
257T89 215Q108 230 120 245T141 276T153 310T159 353ZM-10 524Q-10 543 0 554T25 572T57 581T88 584Q126 584 126 536Q126 500 112 491T67 482Q56 482 43 482T17 485T-2 498T-10 524ZM76 536Q74 536 69 536T59 535T48 532T42 524H76V536ZM238 523Q238 542 247
554T269 572T299 581T329 584Q338 584 349 584T369 580T385 570T392 550Q392 532 385 519T365 498T338 486T307 482Q296 482 284 482T262 485T245 497T238 523ZM316 536Q314 536 310 536T300 535T289 532T283 524H316V536Z" />
<glyph unicode="&#xec;" glyph-name="igrave" horiz-adv-x="357" d="M22 210Q23 215 28 228T38 256T49 284T56 302Q62 318 67 323T88 328Q104 328 109 317T114 291Q114 265 107 244T90 201T74 155T66 98Q66 94 66 87T67 72T71 59T79 53Q105 53 131 63T183 88T232
120T275 151Q282 156 285 161T292 170T299 178T314 182Q327 182 335 177T344 157Q344 151 344 146T338 137Q337 134 331 129T317 119T304 109T295 103Q294 103 290 101T284 98Q283 97 282 96T280 93Q259 77 235 61T183 31T128 8T71 -1Q47 -1 35 11T16 43T9 83T8
121L22 210ZM39 486Q39 513 46 518T65 516T93 488T128 449T169 412T213 387Q233 380 231 375T213 367T174 366T125 379T77 409T45 463Q45 463 44 466T42 473T40 481T39 486Z" />
<glyph unicode="&#xed;" glyph-name="iacute" horiz-adv-x="357" d="M22 210Q23 215 28 228T38 256T49 284T56 302Q62 318 67 323T88 328Q104 328 109 317T114 291Q114 265 107 244T90 201T74 155T66 98Q66 94 66 87T67 72T71 59T79 53Q105 53 131 63T183 88T232
120T275 151Q282 156 285 161T292 170T299 178T314 182Q327 182 335 177T344 157Q344 151 344 146T338 137Q337 134 331 129T317 119T304 109T295 103Q294 103 290 101T284 98Q283 97 282 96T280 93Q259 77 235 61T183 31T128 8T71 -1Q47 -1 35 11T16 43T9 83T8
121L22 210ZM210 543Q210 542 210 538T209 530T208 523T207 518Q197 481 178 459T136 426T92 411T57 411T41 421T57 434Q76 442 95 461T131 503T162 546T188 577T204 581T210 543Z" />
<glyph unicode="&#xee;" glyph-name="icircumflex" horiz-adv-x="357" d="M22 210Q23 215 28 228T38 256T49 284T56 302Q62 318 67 323T88 328Q104 328 109 317T114 291Q114 265 107 244T90 201T74 155T66 98Q66 94 66 87T67 72T71 59T79 53Q105 53 131 63T183
88T232 120T275 151Q282 156 285 161T292 170T299 178T314 182Q327 182 335 177T344 157Q344 151 344 146T338 137Q337 134 331 129T317 119T304 109T295 103Q294 103 290 101T284 98Q283 97 282 96T280 93Q259 77 235 61T183 31T128 8T71 -1Q47 -1 35 11T16 43T9
83T8 121L22 210ZM113 503Q99 503 87 491T65 461T47 423T31 385T18 355T7 343Q-6 343 -14 351T-23 374Q-23 375 -25 379T-27 388T-25 400T-11 411L96 586Q97 587 100 590T108 598T115 605T121 611H126H129Q132 609 136 605T144 598T151 591T154 586L256 351V348V343Q255
342 252 339T246 335Q233 346 225 351T209 361T197 373T185 396L129 494Q127 501 123 502T113 503Z" />
<glyph unicode="&#xef;" glyph-name="idieresis" horiz-adv-x="357" d="M22 210Q23 215 28 228T38 256T49 284T56 302Q62 318 67 323T88 328Q104 328 109 317T114 291Q114 265 107 244T90 201T74 155T66 98Q66 94 66 87T67 72T71 59T79 53Q105 53 131 63T183 88T232
120T275 151Q282 156 285 161T292 170T299 178T314 182Q327 182 335 177T344 157Q344 151 344 146T338 137Q337 134 331 129T317 119T304 109T295 103Q294 103 290 101T284 98Q283 97 282 96T280 93Q259 77 235 61T183 31T128 8T71 -1Q47 -1 35 11T16 43T9 83T8
121L22 210ZM4 423Q4 444 9 456T23 476T40 486T58 489Q79 489 79 436Q79 397 71 387T47 376Q40 376 33 376T20 380T9 394T4 423ZM51 436Q49 436 42 435T33 423H51V436ZM140 422Q140 443 145 456T157 476T173 486T190 489Q195 489 201 489T212 485T221 473T225 452Q225
412 210 394T178 376Q172 376 165 376T153 380T144 393T140 422ZM183 436Q181 436 174 435T166 423H183V436Z" />
<glyph unicode="&#xf0;" glyph-name="eth" horiz-adv-x="485" d="M218 563Q225 554 229 548Q244 568 256 584T276 606T290 606T295 570Q295 569 295 565T293 557T292 549T292 544Q283 515 271 498Q356 390 402 309T464 170T469 76T429 22T360 3T274 12T185 46T108
100T55 167T39 244Q41 274 54 301T88 351T139 385T205 398Q256 398 291 375T348 317Q346 322 347 323T348 326T343 333T326 353T292 392T234 459Q211 443 187 439T146 436T126 446T141 461Q155 466 169 477T195 504Q187 513 180 522T164 541Q140 564 133 582T127
613T140 629T163 628T192 606T218 563ZM353 233Q338 252 325 272T295 310T255 340T198 352Q169 352 150 342T120 314T103 277T98 236Q98 201 109 170T143 116T201 79T282 65Q332 65 359 74T398 97T407 130T396 168T375 204T353 233Z" />
<glyph unicode="&#xf1;" glyph-name="ntilde" horiz-adv-x="461" d="M9 20L43 220V248L63 381Q66 385 74 385T85 386Q93 386 103 381T114 366V298Q118 301 128 310T149 329T171 348T184 361Q195 371 210 378T240 385Q269 385 285 367T302 321Q302 319 302 319T301
316V312L263 141V60Q294 60 327 72T392 104T450 147T497 195H501Q508 195 512 191T517 179Q517 157 503 136T466 95T414 59T356 30T300 11T254 4Q235 4 224 11T208 29T201 55T199 85V98L238 292V325Q214 325 191 304T149 253T117 192T97 141Q95 134 91 116T84 78T77
40T73 14Q74 8 70 5T59 1T47 -1T36 -1Q27 -1 18 2T9 17V20ZM278 860Q278 864 279 873T281 892T286 909T294 916L297 915Q298 914 300 912T304 908Q306 887 312 859T331 806T360 763T400 746Q424 746 444 759T484 792T520 835T554 877T588 910T624 923Q635 923 652
918T683 901T708 875T719 843Q719 842 719 842T718 841V839Q716 837 709 828T700 815Q692 827 685 838T669 858T652 872T631 878Q624 878 620 878T613 874T606 867T594 854Q589 848 576 833T548 801T520 769T501 747Q480 732 456 721T406 709Q384 709 362 723T320
759T290 807T278 860Z" />
<glyph unicode="&#xf2;" glyph-name="ograve" horiz-adv-x="484" d="M16 78Q16 79 17 85T19 97T21 109T22 117V121V127L36 190Q53 226 71 259T114 317T169 357T246 372Q255 372 268 367T295 353T320 337T338 321Q369 326 383 326T407 327T428 331T464 344Q481
349 497 349Q504 349 510 343T517 329Q517 319 510 311T493 301L368 273L357 268Q356 214 333 165T272 79T184 21T80 -1Q76 -1 67 -1T55 0Q33 9 25 33T16 78ZM80 58Q81 53 88 53T98 53Q134 53 172 71T240 119T290 186T310 262Q278 262 246 267T184 273H183L100
185Q93 178 89 166T83 140T80 112T79 87Q79 84 79 73T80 58ZM172 548Q172 575 179 580T198 578T226 550T261 511T302 474T346 449Q366 442 364 437T346 429T307 428T258 441T210 471T178 525Q178 525 177 528T175 535T173 543T172 548Z" />
<glyph unicode="&#xf3;" glyph-name="oacute" horiz-adv-x="484" d="M16 78Q16 79 17 85T19 97T21 109T22 117V121V127L36 190Q53 226 71 259T114 317T169 357T246 372Q255 372 268 367T295 353T320 337T338 321Q369 326 383 326T407 327T428 331T464 344Q481
349 497 349Q504 349 510 343T517 329Q517 319 510 311T493 301L368 273L357 268Q356 214 333 165T272 79T184 21T80 -1Q76 -1 67 -1T55 0Q33 9 25 33T16 78ZM80 58Q81 53 88 53T98 53Q134 53 172 71T240 119T290 186T310 262Q278 262 246 267T184 273H183L100
185Q93 178 89 166T83 140T80 112T79 87Q79 84 79 73T80 58ZM311 540Q311 539 311 535T310 527T309 520T308 515Q298 478 279 456T237 423T193 408T158 408T142 418T158 431Q177 439 196 458T232 500T263 543T289 574T305 578T311 540Z" />
<glyph unicode="&#xf4;" glyph-name="ocircumflex" horiz-adv-x="484" d="M16 78Q16 79 17 85T19 97T21 109T22 117V121V127L36 190Q53 226 71 259T114 317T169 357T246 372Q255 372 268 367T295 353T320 337T338 321Q369 326 383 326T407 327T428 331T464 344Q481
349 497 349Q504 349 510 343T517 329Q517 319 510 311T493 301L368 273L357 268Q356 214 333 165T272 79T184 21T80 -1Q76 -1 67 -1T55 0Q33 9 25 33T16 78ZM80 58Q81 53 88 53T98 53Q134 53 172 71T240 119T290 186T310 262Q278 262 246 267T184 273H183L100
185Q93 178 89 166T83 140T80 112T79 87Q79 84 79 73T80 58ZM237 560Q223 560 211 548T189 518T171 480T155 442T142 412T131 400Q118 400 110 408T101 431Q101 432 99 436T97 445T99 457T113 468L220 643Q221 644 224 647T232 655T239 662T245 668H250H253Q256
666 260 662T268 655T275 648T278 643L380 408V405V400Q379 399 376 396T370 392Q357 403 349 408T333 418T321 430T309 453L253 551Q251 558 247 559T237 560Z" />
<glyph unicode="&#xf5;" glyph-name="otilde" horiz-adv-x="484" d="M16 78Q16 79 17 85T19 97T21 109T22 117V121V127L36 190Q53 226 71 259T114 317T169 357T246 372Q255 372 268 367T295 353T320 337T338 321Q369 326 383 326T407 327T428 331T464 344Q481
349 497 349Q504 349 510 343T517 329Q517 319 510 311T493 301L368 273L357 268Q356 214 333 165T272 79T184 21T80 -1Q76 -1 67 -1T55 0Q33 9 25 33T16 78ZM80 58Q81 53 88 53T98 53Q134 53 172 71T240 119T290 186T310 262Q278 262 246 267T184 273H183L100
185Q93 178 89 166T83 140T80 112T79 87Q79 84 79 73T80 58ZM23 533Q23 537 24 546T26 565T31 582T39 589L42 588Q43 587 45 585T49 581Q51 560 57 532T76 479T105 436T145 419Q169 419 189 432T229 465T265 508T299 550T333 583T369 596Q380 596 397 591T428 574T453
548T464 516Q464 515 464 515T463 514V512Q461 510 454 501T445 488Q437 500 430 511T414 531T397 545T376 551Q369 551 365 551T358 547T351 540T339 527Q334 521 321 506T293 474T265 442T246 420Q225 405 201 394T151 382Q129 382 107 396T65 432T35 480T23
533Z" />
<glyph unicode="&#xf6;" glyph-name="odieresis" horiz-adv-x="484" d="M16 78Q16 79 17 85T19 97T21 109T22 117V121V127L36 190Q53 226 71 259T114 317T169 357T246 372Q255 372 268 367T295 353T320 337T338 321Q369 326 383 326T407 327T428 331T464 344Q481
349 497 349Q504 349 510 343T517 329Q517 319 510 311T493 301L368 273L357 268Q356 214 333 165T272 79T184 21T80 -1Q76 -1 67 -1T55 0Q33 9 25 33T16 78ZM80 58Q81 53 88 53T98 53Q134 53 172 71T240 119T290 186T310 262Q278 262 246 267T184 273H183L100
185Q93 178 89 166T83 140T80 112T79 87Q79 84 79 73T80 58ZM42 441Q42 460 52 471T77 489T109 498T140 501Q178 501 178 453Q178 417 164 408T119 399Q108 399 95 399T69 402T50 415T42 441ZM128 453Q126 453 121 453T111 452T100 449T94 441H128V453ZM290 440Q290
459 299 471T321 489T351 498T381 501Q390 501 401 501T421 497T437 487T444 467Q444 449 437 436T417 415T390 403T359 399Q348 399 336 399T314 402T297 414T290 440ZM368 453Q366 453 362 453T352 452T341 449T335 441H368V453Z" />
<glyph unicode="&#xf7;" glyph-name="divide" horiz-adv-x="439" d="M160 133Q160 165 177 189T229 213Q242 213 254 208T275 193T290 171T295 146Q295 112 281 94T228 71Q188 67 174 83T160 133ZM139 472Q139 500 155 523T189 569Q194 572 201 573T219 577Q245
560 271 540T310 499T313 457T256 419Q221 409 199 414T163 432T144 456T139 472ZM62 575Q65 582 77 590T96 600Q127 602 143 603T167 604T180 605T193 604T217 604T263 603Q297 603 331 600T397 586L380 569Q379 569 378 569T368 567T341 563T287 559Q242 554
195 553T103 551Q98 551 91 551T77 555T66 563T62 575Z" />
<glyph unicode="&#xf8;" glyph-name="oslash" horiz-adv-x="484" d="M49 -66Q49 -53 51 -43T61 -20L72 0H55Q33 9 25 33T16 78Q16 79 17 85T19 97T21 109T22 117V127L36 190Q53 226 71 259T114 317T169 357T246 372Q255 372 268 366Q274 364 280 361Q284 369 290
376Q297 387 306 394L355 488Q360 493 366 496T379 500Q387 500 388 494T390 481V471L312 341Q317 338 320 336Q332 328 338 321Q369 326 383 326T407 327T428 331T464 344Q481 349 497 349Q504 349 510 343T517 329Q517 319 510 311T493 301L368 273L357 268Q356
214 333 165T272 79T184 21Q147 4 107 0L67 -84Q66 -85 65 -85H62Q52 -85 51 -80T49 -66ZM80 58Q81 53 88 53H103L226 270Q204 273 184 273H183L100 185Q93 178 89 166T83 140T80 112T79 87V73Q79 62 80 58ZM172 71Q210 90 240 119T290 186T310 262Q287 262 265
264L142 59Q157 64 172 71Z" />
<glyph unicode="&#xf9;" glyph-name="ugrave" horiz-adv-x="640" d="M5 108Q9 122 10 137T14 169T23 207T44 256T81 318T143 400Q147 406 153 410T166 415Q178 415 187 406T196 385Q196 384 195 379T192 371Q181 348 171 330T150 296T126 261T94 220Q82 190 73
164T64 106Q64 90 65 80T75 53H86Q115 53 152 76T226 132T293 199T337 254Q339 256 342 263T347 273Q349 279 354 293T364 324T375 354T382 375Q384 384 390 385T402 386Q420 386 425 379T430 354V337Q420 310 413 287T399 242T389 198T386 150Q386 147 386 136T386
114T392 93T406 83Q430 83 455 89T507 106T556 130T601 156Q606 158 613 165T628 178T644 190T659 195Q679 195 679 175Q679 160 661 144T616 111T554 81T489 57T432 40T396 33Q392 33 382 33T367 34Q351 38 342 52T329 83T323 118T322 147Q319 145 315 143T309
137Q301 130 283 116T243 85T203 54T177 34Q157 19 133 9T84 -1Q58 -1 43 7T20 30T8 65T5 108ZM198 580Q198 607 205 612T224 610T252 582T287 543T328 506T372 481Q392 474 390 469T372 461T333 460T284 473T236 503T204 557Q204 557 203 560T201 567T199 575T198
580Z" />
<glyph unicode="&#xfa;" glyph-name="uacute" horiz-adv-x="640" d="M5 108Q9 122 10 137T14 169T23 207T44 256T81 318T143 400Q147 406 153 410T166 415Q178 415 187 406T196 385Q196 384 195 379T192 371Q181 348 171 330T150 296T126 261T94 220Q82 190 73
164T64 106Q64 90 65 80T75 53H86Q115 53 152 76T226 132T293 199T337 254Q339 256 342 263T347 273Q349 279 354 293T364 324T375 354T382 375Q384 384 390 385T402 386Q420 386 425 379T430 354V337Q420 310 413 287T399 242T389 198T386 150Q386 147 386 136T386
114T392 93T406 83Q430 83 455 89T507 106T556 130T601 156Q606 158 613 165T628 178T644 190T659 195Q679 195 679 175Q679 160 661 144T616 111T554 81T489 57T432 40T396 33Q392 33 382 33T367 34Q351 38 342 52T329 83T323 118T322 147Q319 145 315 143T309
137Q301 130 283 116T243 85T203 54T177 34Q157 19 133 9T84 -1Q58 -1 43 7T20 30T8 65T5 108ZM403 885Q403 884 403 880T402 872T401 865T400 860Q390 823 371 801T329 768T285 753T250 753T234 763T250 776Q269 784 288 803T324 845T355 888T381 919T397 923T403
885Z" />
<glyph unicode="&#xfb;" glyph-name="ucircumflex" horiz-adv-x="640" d="M5 108Q9 122 10 137T14 169T23 207T44 256T81 318T143 400Q147 406 153 410T166 415Q178 415 187 406T196 385Q196 384 195 379T192 371Q181 348 171 330T150 296T126 261T94 220Q82 190
73 164T64 106Q64 90 65 80T75 53H86Q115 53 152 76T226 132T293 199T337 254Q339 256 342 263T347 273Q349 279 354 293T364 324T375 354T382 375Q384 384 390 385T402 386Q420 386 425 379T430 354V337Q420 310 413 287T399 242T389 198T386 150Q386 147 386
136T386 114T392 93T406 83Q430 83 455 89T507 106T556 130T601 156Q606 158 613 165T628 178T644 190T659 195Q679 195 679 175Q679 160 661 144T616 111T554 81T489 57T432 40T396 33Q392 33 382 33T367 34Q351 38 342 52T329 83T323 118T322 147Q319 145 315
143T309 137Q301 130 283 116T243 85T203 54T177 34Q157 19 133 9T84 -1Q58 -1 43 7T20 30T8 65T5 108ZM306 618Q292 618 280 606T258 576T240 538T224 500T211 470T200 458Q187 458 179 466T170 489Q170 490 168 494T166 503T168 515T182 526L289 701Q290 702
293 705T301 713T308 720T314 726H319H322Q325 724 329 720T337 713T344 706T347 701L449 466V463V458Q448 457 445 454T439 450Q426 461 418 466T402 476T390 488T378 511L322 609Q320 616 316 617T306 618Z" />
<glyph unicode="&#xfc;" glyph-name="udieresis" horiz-adv-x="640" d="M5 108Q9 122 10 137T14 169T23 207T44 256T81 318T143 400Q147 406 153 410T166 415Q178 415 187 406T196 385Q196 384 195 379T192 371Q181 348 171 330T150 296T126 261T94 220Q82 190
73 164T64 106Q64 90 65 80T75 53H86Q115 53 152 76T226 132T293 199T337 254Q339 256 342 263T347 273Q349 279 354 293T364 324T375 354T382 375Q384 384 390 385T402 386Q420 386 425 379T430 354V337Q420 310 413 287T399 242T389 198T386 150Q386 147 386
136T386 114T392 93T406 83Q430 83 455 89T507 106T556 130T601 156Q606 158 613 165T628 178T644 190T659 195Q679 195 679 175Q679 160 661 144T616 111T554 81T489 57T432 40T396 33Q392 33 382 33T367 34Q351 38 342 52T329 83T323 118T322 147Q319 145 315
143T309 137Q301 130 283 116T243 85T203 54T177 34Q157 19 133 9T84 -1Q58 -1 43 7T20 30T8 65T5 108ZM125 510Q125 529 135 540T160 558T192 567T223 570Q261 570 261 522Q261 486 247 477T202 468Q191 468 178 468T152 471T133 484T125 510ZM211 522Q209 522
204 522T194 521T183 518T177 510H211V522ZM373 509Q373 528 382 540T404 558T434 567T464 570Q473 570 484 570T504 566T520 556T527 536Q527 518 520 505T500 484T473 472T442 468Q431 468 419 468T397 471T380 483T373 509ZM451 522Q449 522 445 522T435 521T424
518T418 510H451V522Z" />
<glyph unicode="&#xfd;" glyph-name="yacute" horiz-adv-x="513" d="M-33 -252Q-33 -187 -5 -133T68 -34T167 46T274 107L303 200Q298 194 284 180T253 151T222 122T201 103Q189 93 172 80T136 56T96 37T60 29Q38 29 32 39T25 70Q25 86 27 103T26 137L65 243Q74
252 82 271T99 309T117 342T138 356Q150 356 158 349T167 329Q167 319 165 312T157 292Q144 265 132 241T109 193T92 144T85 87H89Q89 87 95 90T108 98T124 108T138 117Q193 153 235 201T318 302Q322 308 325 311T330 315T335 317T344 317Q358 317 366 312T377
287Q378 274 375 256T367 219T357 184T347 156V141Q349 142 356 144T367 147Q373 148 400 158T458 179T517 201T551 214H553Q560 214 565 209T571 197Q571 190 567 185T556 177T543 170T531 165Q524 161 511 156T482 144T447 129T412 114Q371 97 323 78L235 -254Q229
-278 213 -304T174 -352T126 -387T72 -401Q44 -401 24 -387T-9 -350T-27 -301T-33 -252ZM21 -252Q21 -265 23 -281T33 -312T50 -337T78 -347Q100 -347 118 -334T151 -301T176 -259T192 -220Q195 -208 201 -187T212 -144T222 -107T226 -87V-83L255 43Q215 30 174
-1T98 -73T43 -161T21 -252ZM377 554Q377 553 377 549T376 541T375 534T374 529Q364 492 345 470T303 437T259 422T224 422T208 432T224 445Q243 453 262 472T298 514T329 557T355 588T371 592T377 554Z" />
<glyph unicode="&#xfe;" glyph-name="thorn" horiz-adv-x="373" d="M34 49Q40 68 44 82T54 117T68 170T89 261T122 410T170 634Q184 663 194 664T209 642T208 574T186 468Q199 470 223 465T273 451T317 430T337 406Q361 377 356 331T328 212Q303 166 273 147T214
125T163 127T132 139L128 135Q127 134 122 125T110 101T96 69T85 32Q63 11 50 3T31 -6T23 -1T23 14T28 32T34 49ZM146 196Q181 177 210 185T260 216T290 272T293 333T262 380T193 394Q182 379 176 354T165 300T157 243T146 196Z" />
<glyph unicode="&#xff;" glyph-name="ydieresis" horiz-adv-x="513" d="M-33 -252Q-33 -187 -5 -133T68 -34T167 46T274 107L303 200Q298 194 284 180T253 151T222 122T201 103Q189 93 172 80T136 56T96 37T60 29Q38 29 32 39T25 70Q25 86 27 103T26 137L65 243Q74
252 82 271T99 309T117 342T138 356Q150 356 158 349T167 329Q167 319 165 312T157 292Q144 265 132 241T109 193T92 144T85 87H89Q89 87 95 90T108 98T124 108T138 117Q193 153 235 201T318 302Q322 308 325 311T330 315T335 317T344 317Q358 317 366 312T377
287Q378 274 375 256T367 219T357 184T347 156V141Q349 142 356 144T367 147Q373 148 400 158T458 179T517 201T551 214H553Q560 214 565 209T571 197Q571 190 567 185T556 177T543 170T531 165Q524 161 511 156T482 144T447 129T412 114Q371 97 323 78L235 -254Q229
-278 213 -304T174 -352T126 -387T72 -401Q44 -401 24 -387T-9 -350T-27 -301T-33 -252ZM21 -252Q21 -265 23 -281T33 -312T50 -337T78 -347Q100 -347 118 -334T151 -301T176 -259T192 -220Q195 -208 201 -187T212 -144T222 -107T226 -87V-83L255 43Q215 30 174
-1T98 -73T43 -161T21 -252ZM71 454Q71 473 81 484T106 502T138 511T169 514Q207 514 207 466Q207 430 193 421T148 412Q137 412 124 412T98 415T79 428T71 454ZM157 466Q155 466 150 466T140 465T129 462T123 454H157V466ZM319 453Q319 472 328 484T350 502T380
511T410 514Q419 514 430 514T450 510T466 500T473 480Q473 462 466 449T446 428T419 416T388 412Q377 412 365 412T343 415T326 427T319 453ZM397 466Q395 466 391 466T381 465T370 462T364 454H397V466Z" />
<glyph unicode="&#x2013;" glyph-name="endash" horiz-adv-x="409" d="M40 379Q43 386 55 394T74 404Q105 406 121 407T145 408T158 409T171 408T195 408T241 407Q275 407 309 404T375 390L358 373Q357 373 356 373T346 371T319 367T265 363Q220 358 173 357T81
355Q76 355 69 355T55 359T44 367T40 379Z" />
<glyph unicode="&#x2014;" glyph-name="emdash" horiz-adv-x="607" d="M16 356Q19 364 30 372T49 382Q96 384 145 388T245 396T344 403T439 407Q473 407 507 404T573 390L556 373Q556 373 539 371T495 366T433 359T364 352T296 345T240 340Q195 336 148 334T57
332Q52 332 45 333T31 336T19 344T16 356Z" />
<glyph unicode="&#x2018;" glyph-name="quoteleft" horiz-adv-x="91" d="M41 499Q32 555 24 605T15 711Q15 714 15 725T16 739Q19 748 25 748T38 748Q52 748 59 736T70 709T74 677T75 650Q75 637 75 609T72 553T65 503T54 481H51Q50 481 49 482Q48 484 45 490T41 499Z" />
<glyph unicode="&#x2019;" glyph-name="quoteright" horiz-adv-x="91" d="M41 499Q32 555 24 605T15 711Q15 714 15 725T16 739Q19 748 25 748T38 748Q52 748 59 736T70 709T74 677T75 650Q75 637 75 609T72 553T65 503T54 481H51Q50 481 49 482Q48 484 45 490T41 499Z" />
<glyph unicode="&#x201a;" glyph-name="quotesinglbase" horiz-adv-x="91" d="M32 23Q23 80 15 130T6 236Q6 238 6 249T7 264Q10 273 16 273T29 273Q43 273 50 261T61 234T65 201T66 175Q66 162 66 134T63 78T56 28T45 6H42Q41 6 40 7Q39 9 36 15T32 23Z" />
<glyph unicode="&#x201c;" glyph-name="quotedblleft" horiz-adv-x="356" d="M24 738Q24 759 24 776T25 810T28 843T33 880Q35 887 41 888T54 889Q60 889 66 888T75 880Q75 877 75 871T75 858T76 844T76 835Q76 803 72 771T67 706Q67 649 79 619T107 574T135 550T148
530Q102 530 77 549T41 599T27 666T24 738ZM199 761Q199 768 202 787T213 827T230 865T254 881Q254 881 256 880H257Q260 879 266 873T274 863Q266 842 262 827T254 799T249 771T247 740Q247 716 252 699T267 665T288 633T315 598Q317 595 320 592T326 583Q329
579 332 573L323 565Q317 559 306 564T282 582T256 611T232 643T214 668T207 681Q207 684 206 692T203 712T201 732T199 747V761Z" />
<glyph unicode="&#x201d;" glyph-name="quotedblright" horiz-adv-x="356" d="M24 738Q24 759 24 776T25 810T28 843T33 880Q35 887 41 888T54 889Q60 889 66 888T75 880Q75 877 75 871T75 858T76 844T76 835Q76 803 72 771T67 706Q67 649 79 619T107 574T135
550T148 530Q102 530 77 549T41 599T27 666T24 738ZM199 761Q199 768 202 787T213 827T230 865T254 881Q254 881 256 880H257Q260 879 266 873T274 863Q266 842 262 827T254 799T249 771T247 740Q247 716 252 699T267 665T288 633T315 598Q317 595 320 592T326
583Q329 579 332 573L323 565Q317 559 306 564T282 582T256 611T232 643T214 668T207 681Q207 684 206 692T203 712T201 732T199 747V761Z" />
<glyph unicode="&#x201e;" glyph-name="quotedblbase" horiz-adv-x="356" d="M27 196Q27 217 27 234T28 268T30 302T36 338Q38 346 44 346T57 347Q63 347 69 347T77 338Q77 336 77 330T77 316T78 303T78 293Q78 261 74 229T69 164Q69 107 81 77T109 32T137 8T150
-12Q104 -12 80 7T43 57T29 124T27 196ZM202 220Q202 226 205 245T216 286T233 323T256 339Q256 339 258 338H260Q263 337 268 331T276 321Q269 301 265 286T257 257T252 229T250 198Q250 175 255 157T270 123T291 92T318 57Q319 53 322 50T328 41Q332 37 335 31L326
23Q319 17 309 22T285 40T259 69T235 101T217 127T210 139Q210 142 209 150T206 170T203 191T202 205V220Z" />
<glyph unicode="&#x2022;" glyph-name="bullet" horiz-adv-x="275" d="M46 274Q46 292 56 309T83 340T118 361T151 369Q160 369 173 364T199 349T221 329T230 304Q230 286 222 267T200 233T171 208T139 198Q129 198 113 203T82 219T57 242T46 274Z" />
<glyph unicode="&#x2039;" glyph-name="guilsinglleft" horiz-adv-x="664" d="M31 252Q14 267 27 288T76 334T169 387T300 444T460 505T643 567Q647 565 651 564T658 560T663 553T661 543Q659 541 656 537T648 529T639 522T634 517Q506 461 418 423T272 360T182
321T135 297T115 282T108 268Q154 238 215 212T342 163T473 117T593 71Q597 69 607 62T622 52Q624 51 625 48T626 42Q625 38 617 32T602 24Q528 47 455 70T310 120T168 179T31 252Z" />
<glyph unicode="&#x203a;" glyph-name="guilsinglright" horiz-adv-x="607" d="M116 16Q123 22 142 40T187 88T247 153T317 228T391 308T465 386Q465 387 465 387T464 389V390Q463 391 457 394T448 398Q443 399 422 404T378 414T333 425T307 431Q298 434 272 440T213
454T143 474T76 496T27 520T7 544Q7 556 17 561T38 566Q40 566 44 566T49 565L157 524L565 423Q572 421 573 417T574 408Q514 371 468 322T376 218T277 104T148 -8L116 16Z" />
</font>
</defs>
</svg>
