<?xml version="1.0" standalone="no"?>
<!DOCTYPE svg PUBLIC "-//W3C//DTD SVG 1.1//EN" "http://www.w3.org/Graphics/SVG/1.1/DTD/svg11.dtd">
<svg xmlns="http://www.w3.org/2000/svg">
<defs >
<font id="Athiti" horiz-adv-x="560" ><font-face
    font-family="Athiti"
    units-per-em="1000"
    panose-1="0 0 8 0 0 0 0 0 0 0"
    ascent="1150"
    descent="-450"
    alphabetic="0" />
<glyph unicode=" " glyph-name="space" horiz-adv-x="300" />
<glyph unicode="!" glyph-name="exclam" horiz-adv-x="286" d="M66 426V620H220V426L212 167H74L66 426ZM66 121H220V0H66V121Z" />
<glyph unicode="&quot;" glyph-name="quotedbl" horiz-adv-x="391" d="M51 544Q49 585 54 616H175Q180 585 178 544L168 413H61L51 544ZM213 544Q211 585 216 616H337Q342 585 340 544L330 413H223L213 544Z" />
<glyph unicode="#" glyph-name="numbersign" horiz-adv-x="728" d="M134 0L153 141H50V270H171L181 345H74V474H199L220 626L362 623L342 474H420L441 626L583 623L563 474H668V345H546L536 270H645V141H518L499 -4L355 0L374 141H297L278 -4L134 0ZM392 270L402
345H325L315 270H392Z" />
<glyph unicode="$" glyph-name="dollar" horiz-adv-x="580" d="M230 -5Q123 3 40 50L89 171Q182 122 292 122Q347 122 382 129Q390 146 390 170Q390 196 371 208T298 234Q220 253 173 275T98 337T71 444Q71 515 111 560T230 622V716H371V627Q445 619 519 583V548Q519
524 514 482T502 422H378L369 495Q339 500 306 500Q264 500 243 489T221 449Q221 420 247 406T337 377Q407 362 450 341T517 281T540 177Q540 105 499 59T371 -1V-110H230V-5Z" />
<glyph unicode="%" glyph-name="percent" horiz-adv-x="774" d="M147 27L513 624L630 581L260 -26L147 27ZM137 308T99 344T60 450Q60 526 98 568T209 610Q271 610 309 573T348 464Q348 389 310 349T199 308Q137 308 99 344ZM224 403T239 408Q245 429 245 456Q245
490 234 502T201 515Q185 515 168 509Q163 489 163 462Q163 431 171 417T207 403Q224 403 239 408ZM503 -12T465 24T426 130Q426 206 464 248T575 290Q637 290 675 253T714 144Q714 69 676 29T565 -12Q503 -12 465 24ZM590 83T605 88Q611 109 611 136Q611 170 600
182T567 195Q551 195 534 189Q529 169 529 142Q529 111 537 97T573 83Q590 83 605 88Z" />
<glyph unicode="&amp;" glyph-name="ampersand" horiz-adv-x="736" d="M58 -16T58 164Q58 230 91 271T190 336V344Q162 371 150 394T137 451Q137 530 192 568T346 606Q413 606 464 586T543 538V501Q543 481 539 450T530 404H405L395 463Q373 469 340 469Q311 469
299 461T287 438Q287 422 294 412T321 382L449 267Q455 287 457 302T462 340L606 311Q596 261 590 238T573 181L696 64L593 -9L529 63H521Q511 31 498 11Q424 -16 310 -16Q58 -16 58 164ZM355 118T388 122Q391 130 391 135L268 248Q235 235 221 219T206 175Q206
145 231 132T312 118Q355 118 388 122Z" />
<glyph unicode="&apos;" glyph-name="quotesingle" horiz-adv-x="269" d="M71 544Q69 585 74 616H195Q200 585 198 544L188 413H81L71 544Z" />
<glyph unicode="(" glyph-name="parenleft" horiz-adv-x="353" d="M141 -86T107 -61T65 -4V620Q73 652 107 677T185 713Q217 714 246 710T291 697V585H213V31H291V-81Q275 -89 246 -93T185 -97Q141 -86 107 -61Z" />
<glyph unicode=")" glyph-name="parenright" horiz-adv-x="353" d="M136 -98T107 -94T62 -81V31H140V585H62V697Q78 705 107 709T168 713Q212 702 246 677T288 620V-4Q280 -36 246 -61T168 -97Q136 -98 107 -94Z" />
<glyph unicode="*" glyph-name="asterisk" horiz-adv-x="458" d="M79 360L156 448L154 452L50 475L85 579L181 538L185 541L173 649H285L273 541L276 538L373 579L408 475L304 452L302 448L379 360L291 297L231 396H227L167 297L79 360Z" />
<glyph unicode="+" glyph-name="plus" horiz-adv-x="584" d="M218 238H40V372H218V516H366V372H544V238H366V82H218V238Z" />
<glyph unicode="," glyph-name="comma" horiz-adv-x="280" d="M75 -99Q89 -77 96 -59T105 -21H52V80Q90 94 137 94Q184 94 207 73T230 8Q230 -25 214 -59T171 -120L75 -99Z" />
<glyph unicode="-" glyph-name="hyphen" horiz-adv-x="474" d="M65 318H409V180H65V318Z" />
<glyph unicode="." glyph-name="period" horiz-adv-x="284" d="M65 141H219V0H65V141Z" />
<glyph unicode="/" glyph-name="slash" horiz-adv-x="491" d="M48 -68L309 672L443 638L182 -103L48 -68Z" />
<glyph unicode="0" glyph-name="zero" horiz-adv-x="653" d="M183 -9T114 64T45 286Q45 440 120 523T341 606Q472 606 540 533T608 311Q608 155 533 73T313 -9Q183 -9 114 64ZM398 129T438 145Q449 181 453 214T458 292Q458 390 427 429T327 468Q264 468 219 452Q206
416 201 382T195 305Q195 243 205 206T244 149T327 129Q398 129 438 145Z" />
<glyph unicode="1" glyph-name="one" horiz-adv-x="409" d="M181 443L172 449L72 416L30 506L206 610Q228 610 257 596T309 564T331 534V0H181V443Z" />
<glyph unicode="2" glyph-name="two" horiz-adv-x="591" d="M43 191Q165 241 230 273T333 343T371 428Q371 453 354 463T294 474Q245 474 208 463V389H80Q63 446 63 517V558Q170 610 297 610Q521 610 521 443Q521 368 486 315T378 219T184 131V127H399V180H527Q535
154 539 120T543 54V0H43V191Z" />
<glyph unicode="3" glyph-name="three" horiz-adv-x="557" d="M124 -10T36 20L60 153Q146 128 229 128Q298 128 345 136Q355 154 355 177Q355 204 336 215T271 226H162V356H277Q317 356 332 371T348 417Q348 449 330 461T267 473Q222 473 181 463V403H55Q38 469
38 526V562Q143 610 273 610Q380 610 438 566T496 440Q496 386 474 353T402 298V292Q459 270 481 241T503 158Q503 -10 235 -10Q124 -10 36 20Z" />
<glyph unicode="4" glyph-name="four" horiz-adv-x="604" d="M343 92H56L26 197L311 610H488V215H572V92H488V0H343V92ZM343 215V286L362 466H354L193 223L195 215H343Z" />
<glyph unicode="5" glyph-name="five" horiz-adv-x="566" d="M140 -10T44 18L62 154Q112 140 155 134T249 127Q317 127 366 139Q378 164 378 202Q378 236 358 249T287 263Q252 263 227 258T167 239L65 321L91 610H486V475H225L217 379Q245 389 270 394T328 399Q428
399 478 353T528 209Q528 104 458 47T249 -10Q140 -10 44 18Z" />
<glyph unicode="6" glyph-name="six" horiz-adv-x="554" d="M167 0T106 61T44 232Q44 347 107 433T302 610L415 549Q341 497 296 455T226 370Q280 387 335 387Q430 387 480 341T530 202Q530 149 505 103T425 29T283 0Q167 0 106 61ZM317 132T333 134T371 142Q381
166 381 197Q381 233 361 249T297 265Q238 265 192 247V232Q192 177 212 155T288 132Q317 132 333 134Z" />
<glyph unicode="7" glyph-name="seven" horiz-adv-x="573" d="M161 10Q176 116 204 194T274 335T379 465V471H179V417H55Q38 475 38 554V610H538V465Q434 355 384 248T314 0L161 10Z" />
<glyph unicode="8" glyph-name="eight" horiz-adv-x="599" d="M171 -9T111 36T50 166Q50 218 70 249T131 311V319Q96 342 81 365T65 432Q65 484 97 523T187 584T316 606Q422 606 480 561T538 432Q538 386 521 356T469 302V294Q512 269 530 241T549 166Q549 86
481 39T294 -9Q171 -9 111 36ZM353 362T380 370Q386 382 389 392T392 419Q392 457 369 469T294 482Q257 482 221 475Q211 449 211 418Q211 388 234 375T316 362Q353 362 380 370ZM343 115T359 117T394 126Q399 140 400 149T402 176Q402 217 379 232T294 247Q244
247 208 238Q201 219 199 208T197 179Q197 145 222 130T317 115Q343 115 359 117Z" />
<glyph unicode="9" glyph-name="nine" horiz-adv-x="554" d="M139 61Q241 132 291 189Q258 183 223 183Q129 183 77 237T24 388Q24 448 51 498T134 579T276 610Q391 610 450 550T510 378Q510 263 447 177T252 0L139 61ZM315 305T357 321Q362 351 362 378Q362 433
342 455T266 478Q242 478 225 476T185 468Q173 437 173 393Q173 350 192 328T257 305Q315 305 357 321Z" />
<glyph unicode=":" glyph-name="colon" horiz-adv-x="284" d="M65 439H219V298H65V439ZM65 141H219V0H65V141Z" />
<glyph unicode=";" glyph-name="semicolon" horiz-adv-x="308" d="M69 439H223V298H69V439ZM88 -45Q102 -23 109 -5T118 33H65V134Q104 148 150 148Q197 148 220 127T243 62Q243 29 227 -5T184 -66L88 -45Z" />
<glyph unicode="&lt;" glyph-name="less" horiz-adv-x="621" d="M45 194V332L506 500L556 353L221 266V260L556 173L506 26L45 194Z" />
<glyph unicode="=" glyph-name="equal" horiz-adv-x="604" d="M60 424H544V286H60V424ZM60 214H544V76H60V214Z" />
<glyph unicode="&gt;" glyph-name="greater" horiz-adv-x="621" d="M65 173L400 260V266L65 353L115 500L576 332V194L115 26L65 173Z" />
<glyph unicode="?" glyph-name="question" horiz-adv-x="567" d="M180 253Q180 275 187 288T212 315L365 421V446Q365 474 346 482T281 491Q252 491 233 489T191 479V432H64Q50 485 50 553V574Q156 631 283 631Q395 631 454 588T513 463Q513 415 499 384T445 323L344
257Q334 251 332 243T329 216V161H180V253ZM179 121H333V0H179V121Z" />
<glyph unicode="@" glyph-name="at" horiz-adv-x="806" d="M231 -59T143 23T55 263Q55 366 98 445T225 567T424 611Q529 611 603 576T716 477T754 331Q754 234 709 172T572 110Q537 110 515 121T473 159H467Q442 134 417 123T349 112Q295 112 262 149T228 250Q228
333 269 384T393 435Q449 435 478 391H482L496 423L576 411L541 216Q562 210 581 210Q605 210 621 215Q631 240 635 265T640 325Q640 410 586 458T419 506Q302 506 236 441T170 263Q170 149 232 98T414 46Q565 46 658 101L697 8Q650 -23 575 -41T411 -59Q231 -59
143 23ZM397 212T406 215T425 226L442 321Q436 327 430 329T414 331Q357 331 357 243Q357 212 385 212Q397 212 406 215Z" />
<glyph unicode="A" glyph-name="A" horiz-adv-x="651" d="M25 9Q66 165 117 328T219 620H432Q482 492 533 329T626 9L470 0Q454 56 428 168H223Q192 50 181 0L25 9ZM391 301Q365 391 333 485H318Q288 402 259 301H391Z" />
<glyph unicode="B" glyph-name="B" horiz-adv-x="590" d="M65 594Q155 626 267 626Q392 626 458 582T525 448Q525 401 504 370T436 316V310Q498 294 526 261T555 174Q555 85 495 43T291 0H65V594ZM356 369Q367 385 371 398T376 430Q376 470 352 485T269 500Q239
500 214 493V369H356ZM307 126Q362 126 384 140T406 186Q406 218 386 231T317 245H214V126H307Z" />
<glyph unicode="C" glyph-name="C" horiz-adv-x="628" d="M201 -10T123 65T44 291Q44 446 119 538T342 630Q467 630 557 583V541Q557 507 554 469T544 409H420L410 483Q377 491 328 491Q273 491 218 479Q194 396 194 297Q194 209 232 169T360 129Q415 129 457
141T538 177L596 60Q548 25 490 8T350 -10Q201 -10 123 65Z" />
<glyph unicode="D" glyph-name="D" horiz-adv-x="631" d="M65 605Q157 630 281 630Q448 630 521 553T595 323Q595 166 514 83T241 0H65V605ZM264 138Q365 138 424 158Q445 218 445 308Q445 379 429 419T380 475T293 492Q256 492 213 486V138H264Z" />
<glyph unicode="E" glyph-name="E" horiz-adv-x="581" d="M202 -10T134 18T65 121V620H530V483H215V372H479V241H215V137Q266 127 333 127Q434 127 516 146L535 12Q449 -10 328 -10Q202 -10 134 18Z" />
<glyph unicode="F" glyph-name="F" horiz-adv-x="551" d="M65 620H531V481H215V364H480V229H215V0H65V620Z" />
<glyph unicode="G" glyph-name="G" horiz-adv-x="642" d="M192 -10T118 64T44 291Q44 391 79 467T184 587T357 630Q485 630 583 583V541Q583 507 580 472T570 413H447L437 483Q396 491 328 491Q273 491 218 479Q194 396 194 297Q194 234 209 198T261 144T358 127Q388
127 405 128T446 135V230H313V355H520L594 295V133Q594 67 526 29T344 -10Q192 -10 118 64Z" />
<glyph unicode="H" glyph-name="H" horiz-adv-x="646" d="M65 620H215V370H431V620H581V0H431V230H215V0H65V620Z" />
<glyph unicode="I" glyph-name="I" horiz-adv-x="286" d="M68 620H218V0H68V620Z" />
<glyph unicode="J" glyph-name="J" horiz-adv-x="483" d="M144 -10T99 -1T20 25L54 153Q117 130 178 130Q234 130 264 141Q270 168 270 209V620H420V186Q420 120 400 78T330 13T191 -10Q144 -10 99 -1Z" />
<glyph unicode="K" glyph-name="K" horiz-adv-x="634" d="M477 -5T451 11T407 62L346 192Q333 221 317 231T263 242H214V0H65V620H214V379H257Q298 379 317 392T350 437L429 626L573 582L505 425Q483 376 460 355T387 317V311Q422 301 438 286T481 230L568 97L611
88V4Q577 -5 525 -5Q477 -5 451 11Z" />
<glyph unicode="L" glyph-name="L" horiz-adv-x="502" d="M65 620H215V140H488V0H65V620Z" />
<glyph unicode="M" glyph-name="M" horiz-adv-x="740" d="M82 620H291L367 300H373L449 620H658L682 0H531L520 300L524 467L515 469L426 149H314L225 469L216 467L220 300L209 0H58L82 620Z" />
<glyph unicode="N" glyph-name="N" horiz-adv-x="669" d="M65 620H262L459 157L467 159L455 322V620H604V0H407L210 463L202 461L214 298V0H65V620Z" />
<glyph unicode="O" glyph-name="O" horiz-adv-x="665" d="M179 -9T111 69T42 300Q42 463 121 546T348 630Q486 630 554 552T623 321Q623 158 544 75T317 -9Q179 -9 111 69ZM402 129T447 147Q462 184 468 221T475 306Q475 371 464 411T420 471T327 492Q263 492
218 474Q203 437 197 401T190 315Q190 250 201 210T245 150T338 129Q402 129 447 147Z" />
<glyph unicode="P" glyph-name="P" horiz-adv-x="573" d="M65 594Q110 609 168 617T286 626Q420 626 485 575T551 408Q551 293 484 232T280 171H214V0H65V594ZM257 307Q303 307 332 309T388 320Q402 355 402 400Q402 448 378 468T294 489Q250 489 214 481V307H257Z" />
<glyph unicode="Q" glyph-name="Q" horiz-adv-x="667" d="M380 -146T314 -139T227 -122V-62L253 9Q146 25 94 96T42 299Q42 458 121 544T348 630Q486 630 554 555T623 328Q623 190 563 111T396 12Q373 8 359 8V-25Q386 -29 423 -29Q522 -29 580 -16L595 -130Q540
-146 424 -146Q380 -146 314 -139ZM402 143T447 161Q475 228 475 313Q475 378 464 416T420 473T327 492Q263 492 218 474Q190 404 190 314Q190 253 202 216T247 161T338 143Q402 143 447 161Z" />
<glyph unicode="R" glyph-name="R" horiz-adv-x="619" d="M468 -5T443 10T401 58L350 151Q335 178 326 190T299 211T250 222H214V0H65V600Q155 630 276 630Q400 630 467 584T535 443Q535 380 502 333T405 255V246Q435 238 456 223T500 179L560 97L600 88V4Q572
-5 514 -5Q468 -5 443 10ZM350 343Q387 370 387 425Q387 466 361 482T276 499Q242 499 214 493V343H350Z" />
<glyph unicode="S" glyph-name="S" horiz-adv-x="582" d="M143 -8T40 50L89 171Q182 122 292 122Q347 122 382 129Q390 146 390 170Q390 196 371 208T298 234Q220 253 173 275T98 337T71 444Q71 532 132 581T311 630Q377 630 426 617T519 583V548Q519 524 514
482T502 422H378L369 495Q339 500 306 500Q264 500 243 489T221 449Q221 420 247 406T337 377Q407 362 450 341T517 281T540 177Q540 89 479 41T287 -8Q143 -8 40 50Z" />
<glyph unicode="T" glyph-name="T" horiz-adv-x="598" d="M224 480H26V620H572V480H374V0H224V480Z" />
<glyph unicode="U" glyph-name="U" horiz-adv-x="653" d="M183 -10T123 50T63 220V620H213V253Q213 205 223 178T256 140T324 128Q363 128 388 131T440 144V620H590V135Q590 61 515 26T317 -10Q183 -10 123 50Z" />
<glyph unicode="V" glyph-name="V" horiz-adv-x="644" d="M175 125T119 296T24 621L174 628Q201 511 240 378T316 144H326Q362 242 402 376T469 628L620 621Q582 467 526 296T413 0H231Q175 125 119 296Z" />
<glyph unicode="W" glyph-name="W" horiz-adv-x="876" d="M99 259T26 608L180 622Q204 470 222 369T266 156H274Q317 268 385 482Q364 571 357 606L508 620Q536 474 560 373T616 156H627Q649 261 666 362T705 622L850 607Q787 289 694 0H535Q483 144 441 284H431Q381
126 334 0H182Q99 259 26 608Z" />
<glyph unicode="X" glyph-name="X" horiz-adv-x="659" d="M32 19Q96 157 220 306Q98 451 32 593L185 620Q213 553 243 501T319 377H338Q378 433 410 489T474 620L627 593Q561 451 439 306Q563 157 627 19L474 -8Q445 59 417 109T338 238H321Q279 176 248 120T185
-8L32 19Z" />
<glyph unicode="Y" glyph-name="Y" horiz-adv-x="655" d="M253 185H229Q166 278 115 377T18 595L166 625Q238 427 316 303H339Q419 432 489 625L637 595Q591 477 540 378T426 185H402V0H253V185Z" />
<glyph unicode="Z" glyph-name="Z" horiz-adv-x="601" d="M40 146L392 476V486H188V410H66Q49 478 49 571V620H550V458L212 142V133H424V210H546Q563 142 563 49V0H40V146Z" />
<glyph unicode="[" glyph-name="bracketleft" horiz-adv-x="339" d="M65 707H277V567H213V55H277V-85H65V707Z" />
<glyph unicode="\" glyph-name="backslash" horiz-adv-x="466" d="M48 612L176 643L418 6L291 -28L48 612Z" />
<glyph unicode="]" glyph-name="bracketright" horiz-adv-x="339" d="M62 55H126V567H62V707H274V-85H62V55Z" />
<glyph unicode="^" glyph-name="asciicircum" horiz-adv-x="635" d="M58 299L241 616H395L577 299L437 247L321 492H315L199 247L58 299Z" />
<glyph unicode="_" glyph-name="underscore" horiz-adv-x="605" d="M50 0H555V-120H50V0Z" />
<glyph unicode="`" glyph-name="grave" horiz-adv-x="323" d="M-7 888L163 907L250 752L127 732L-7 888Z" />
<glyph unicode="a" glyph-name="a" horiz-adv-x="522" d="M99 -8T65 26T30 126Q30 281 262 281Q281 281 314 278V322Q314 348 303 356T261 365Q234 365 213 361L203 313H79Q66 356 66 403V428Q111 452 159 465T274 478Q366 478 415 441T464 331V0H338L329 66H321Q293
28 259 10T171 -8Q99 -8 65 26ZM252 113T274 122T316 149V184Q288 189 248 189Q217 189 189 182Q183 168 183 148Q183 113 223 113Q252 113 274 122Z" />
<glyph unicode="b" glyph-name="b" horiz-adv-x="578" d="M155 -8T64 20V671H214V499L205 407H211Q240 443 275 462T358 482Q451 482 494 417T538 247Q538 122 469 57T268 -8Q155 -8 64 20ZM340 130T362 156T384 244Q384 293 364 317T310 342Q278 342 257 336T214
313V138Q246 130 290 130Q340 130 362 156Z" />
<glyph unicode="c" glyph-name="c" horiz-adv-x="495" d="M154 -10T96 52T37 229Q37 343 101 410T277 478Q388 478 458 437V401Q458 346 445 292H322L314 337Q294 341 266 341Q226 341 199 333Q185 287 185 235Q185 180 207 155T288 129Q359 129 413 172L479 65Q440
30 394 10T284 -10Q154 -10 96 52Z" />
<glyph unicode="d" glyph-name="d" horiz-adv-x="578" d="M132 -8T86 54T40 235Q40 299 60 354T122 443T227 478Q279 478 307 463T366 413H372L364 507V671H514V0H373L369 64H361Q335 28 306 10T224 -8Q132 -8 86 54ZM300 130T323 141T364 176V305Q343 324 323
332T269 340Q233 340 214 316T194 232Q194 177 209 154T265 130Q300 130 323 141Z" />
<glyph unicode="e" glyph-name="e" horiz-adv-x="528" d="M167 -6T104 54T40 231Q40 354 101 418T277 482Q379 482 434 429T490 282Q490 267 489 259L416 187L184 189Q184 154 208 137T291 119Q343 119 381 129T454 160L490 46Q452 21 404 8T286 -6Q167 -6 104
54ZM349 286Q352 297 352 304Q352 329 330 343T274 358Q227 358 206 339T183 282L349 286Z" />
<glyph unicode="f" glyph-name="f" horiz-adv-x="406" d="M95 346H20L40 472H95V542Q95 580 127 612T203 666Q248 675 305 675Q362 675 413 653L374 523Q342 535 307 535Q273 535 249 526Q242 508 242 479V472H358L338 346H242V0H95V346Z" />
<glyph unicode="g" glyph-name="g" horiz-adv-x="562" d="M202 -197T153 -186T70 -156L93 -33Q128 -48 168 -57T249 -66Q290 -66 312 -63T361 -49V2L364 58H356Q327 29 297 17T221 4Q127 4 84 62T40 222Q40 347 85 414T230 482Q281 482 310 464T363 411H370L376
472H502V-47Q502 -125 436 -161T257 -197Q202 -197 153 -186ZM293 143T313 152T354 183V299Q337 319 316 329T263 340Q226 340 209 317T191 237Q191 143 260 143Q293 143 313 152Z" />
<glyph unicode="h" glyph-name="h" horiz-adv-x="583" d="M64 671H212V488L207 402H213Q245 441 285 461T377 482Q447 482 485 447T523 344V0H375V331Q353 340 317 340Q253 340 212 308V0H64V671Z" />
<glyph unicode="i" glyph-name="i" horiz-adv-x="276" d="M63 671H213V537H63V671ZM64 472H212V0H64V472Z" />
<glyph unicode="j" glyph-name="j" horiz-adv-x="340" d="M130 671H280V537H130V671ZM61 -198T24 -190T-44 -169L-5 -42Q19 -51 36 -54T72 -58Q101 -58 123 -51Q131 -31 131 6V472H279V-7Q279 -97 237 -147T93 -198Q61 -198 24 -190Z" />
<glyph unicode="k" glyph-name="k" horiz-adv-x="549" d="M403 -5T381 9T344 57L312 129Q297 162 281 173T234 184H208V0H60V671H208V307H229Q260 307 274 316T300 353L353 482L492 434L447 330Q432 296 407 278T331 248V242Q376 232 397 216T443 158L482 82L524
71V5Q494 -5 445 -5Q403 -5 381 9Z" />
<glyph unicode="l" glyph-name="l" horiz-adv-x="335" d="M158 0T129 17T79 55T58 97V671H206V177Q206 150 212 133H226L280 162L327 96Q304 59 261 27T182 -6Q158 0 129 17Z" />
<glyph unicode="m" glyph-name="m" horiz-adv-x="858" d="M64 472H192L200 402H208Q236 439 272 458T361 478Q407 478 439 457T489 395H496Q561 478 662 478Q729 478 763 444T798 344V0H650V332Q628 338 594 338Q543 338 503 312V0H357V336Q340 343 310 343Q256
343 212 323V0H64V472Z" />
<glyph unicode="n" glyph-name="n" horiz-adv-x="585" d="M75 472H211L217 398H225Q286 482 386 482Q454 482 489 446T525 344V0H378V333Q358 342 325 342Q259 342 222 310V0H75V472Z" />
<glyph unicode="o" glyph-name="o" horiz-adv-x="557" d="M146 -9T93 52T40 226Q40 300 70 358T158 449T295 482Q517 482 517 244Q517 129 454 60T262 -9Q146 -9 93 52ZM320 116T354 126Q371 169 371 237Q371 303 351 328T277 354Q239 354 203 345Q186 303 186
233Q186 167 206 142T280 116Q320 116 354 126Z" />
<glyph unicode="p" glyph-name="p" horiz-adv-x="573" d="M64 472H203L207 408H215Q242 443 277 462T362 482Q454 482 493 419T533 235Q533 128 488 60T347 -8Q303 -8 273 4T214 45H208L212 -29V-187H64V472ZM352 122T368 150T385 238Q385 292 367 320T300 348Q268
348 248 339T212 311V153Q236 135 256 129T306 122Q352 122 368 150Z" />
<glyph unicode="q" glyph-name="q" horiz-adv-x="583" d="M364 -25L373 67H367Q338 31 303 12T220 -8Q126 -8 83 55T40 223Q40 349 109 416T310 483Q420 483 514 454V-205H364V-25ZM300 132T321 138T364 161V337Q332 345 288 345Q239 345 217 317T194 226Q194
178 213 155T268 132Q300 132 321 138Z" />
<glyph unicode="r" glyph-name="r" horiz-adv-x="424" d="M64 472H199L205 376H215Q242 425 276 450T362 476Q370 476 383 468T404 452L389 323H347Q261 323 212 278V0H64V472Z" />
<glyph unicode="s" glyph-name="s" horiz-adv-x="481" d="M113 -8T34 31L76 146Q112 131 150 123T221 115Q263 115 293 120Q298 126 298 138Q298 150 285 156T225 173Q156 189 118 205T59 252T38 335Q38 482 248 482Q296 482 343 473T424 448V415Q424 395 420
363T411 316H291L283 361Q263 365 238 365Q186 365 186 332Q186 313 205 305T277 286Q336 274 371 260T425 216T445 134Q445 63 394 28T226 -8Q113 -8 34 31Z" />
<glyph unicode="t" glyph-name="t" horiz-adv-x="437" d="M229 -10T182 3Q147 28 125 57T102 115V348H10L28 472H102V596H251V472H406L388 348H251V181Q251 154 256 136Q276 130 300 130Q355 130 395 153L417 22Q392 6 362 -2T289 -10Q229 -10 182 3Z" />
<glyph unicode="u" glyph-name="u" horiz-adv-x="567" d="M132 -8T95 29T58 141V472H208V136Q231 128 259 128Q320 128 353 162V472H503V0H371L365 72H357Q325 32 290 12T201 -8Q132 -8 95 29Z" />
<glyph unicode="v" glyph-name="v" horiz-adv-x="501" d="M71 231T16 467L154 474Q192 301 248 135H252Q308 296 347 474L485 467Q432 238 331 0H170Q71 231 16 467Z" />
<glyph unicode="w" glyph-name="w" horiz-adv-x="760" d="M82 212T27 471L172 478Q193 353 207 281T241 131H249Q289 231 328 347Q313 401 300 465L437 472Q460 348 474 284T511 135H517Q541 209 558 281T601 476L746 467Q677 202 597 0H439Q415 62 382 164H374Q352
104 308 0H161Q82 212 27 471Z" />
<glyph unicode="x" glyph-name="x" horiz-adv-x="540" d="M18 7Q67 131 149 231Q89 309 21 464L190 478Q207 420 221 387T262 308H276Q307 356 321 386T358 478L522 465Q491 396 460 342T389 238Q426 190 459 129T513 7L346 -8Q327 51 314 84T275 161H262Q232
114 218 84T182 -8L18 7Z" />
<glyph unicode="y" glyph-name="y" horiz-adv-x="580" d="M104 -197T50 -172V-141Q50 -77 60 -29H169V-68Q182 -71 194 -71Q216 -71 233 -67Q251 -22 265 21H204Q144 153 105 257T37 472L194 479Q240 295 289 161H309Q347 296 388 479L543 472Q502 303 454 151T356
-112Q345 -137 315 -156T249 -186T182 -197Q104 -197 50 -172Z" />
<glyph unicode="z" glyph-name="z" horiz-adv-x="497" d="M36 137L306 342V348H176L168 295H58Q45 343 45 423V472H451V310L204 124V117H332L340 163H450Q463 115 463 46V0H36V137Z" />
<glyph unicode="{" glyph-name="braceleft" horiz-adv-x="461" d="M292 -122T225 -73T164 86L168 169Q170 201 161 220T126 250T50 260V372Q100 372 126 382T161 411T168 463L164 536Q158 646 225 695T421 744V611Q344 611 308 600Q305 582 305 571L307 534L311
450Q314 394 293 364T221 318V314Q271 299 292 269T311 182L307 88L305 51Q305 42 308 22Q344 11 421 11V-122Q292 -122 225 -73Z" />
<glyph unicode="|" glyph-name="bar" horiz-adv-x="283" d="M72 630H211V-140H72V630Z" />
<glyph unicode="}" glyph-name="braceright" horiz-adv-x="461" d="M40 11Q117 11 153 22Q156 42 156 51L154 88L150 182Q147 238 168 268T240 314V318Q190 333 169 363T150 450L154 534L156 571Q156 582 153 600Q117 611 40 611V744Q169 744 236 695T297 536L293
463Q291 431 300 412T335 382T411 372V260Q361 260 335 250T300 221T293 169L297 86Q303 -24 236 -73T40 -122V11Z" />
<glyph unicode="~" glyph-name="asciitilde" horiz-adv-x="481" d="M42 206Q41 215 41 233Q41 304 71 340T155 376Q179 376 197 369T240 349Q257 339 267 335T290 330Q311 330 319 342T330 383L441 373Q441 285 416 242T328 198Q301 198 280 205T235 227Q224 234
213 239T193 244Q172 244 164 232T155 190L42 206Z" />
<glyph unicode="&#xa0;" glyph-name="uni00A0" horiz-adv-x="300" />
<glyph unicode="&#xa1;" glyph-name="exclamdown" horiz-adv-x="286" d="M66 616H220V495H66V616ZM66 190L74 449H212L220 190V-4H66V190Z" />
<glyph unicode="&#xa2;" glyph-name="cent" horiz-adv-x="498" d="M210 -3Q121 14 81 73T40 229Q40 323 85 386T212 470V620H343V474Q410 466 461 437V401Q461 346 448 292H325L317 337Q297 341 269 341Q229 341 202 333Q188 287 188 235Q188 180 210 155T291
129Q362 129 416 172L482 65Q421 9 345 -5V-144H210V-3Z" />
<glyph unicode="&#xa3;" glyph-name="sterling" horiz-adv-x="597" d="M159 -7T40 4V118L107 131V218H43V349H107V429Q107 523 172 571T354 620Q407 620 448 611T533 585L500 464Q462 474 430 478T357 483Q329 483 309 481T262 474Q253 439 253 372V349H456V218H253V132Q316
127 367 127Q454 127 562 137V4Q452 -7 312 -7Q159 -7 40 4Z" />
<glyph unicode="&#xa4;" glyph-name="currency" horiz-adv-x="618" d="M53 118L128 192Q113 218 107 240T101 291Q101 320 107 343T128 392L53 466L138 549L212 476Q238 489 260 494T311 500Q339 500 361 495T410 476L484 549L569 466L494 392Q509 366 515 343T521
291Q521 263 515 241T494 192L569 118L484 35L410 108Q384 95 362 90T311 84Q283 84 261 89T212 108L138 35L53 118ZM353 201T377 224T401 292Q401 336 377 359T311 383Q269 383 245 360T221 292Q221 248 245 225T311 201Q353 201 377 224Z" />
<glyph unicode="&#xa5;" glyph-name="yen" horiz-adv-x="671" d="M261 66H150V155H261V172H150V267H184Q98 409 26 595L174 625Q246 427 324 303H347Q427 432 497 625L645 595Q575 414 486 267H523V172H410V155H523V66H410V0H261V66Z" />
<glyph unicode="&#xa6;" glyph-name="brokenbar" horiz-adv-x="283" d="M72 630H211V304H72V630ZM72 212H211V-110H72V212Z" />
<glyph unicode="&#xa7;" glyph-name="section" horiz-adv-x="599" d="M220 -127T177 -119T88 -91L125 19Q196 -5 276 -5Q297 -5 311 -4T342 1Q346 17 346 31Q346 48 330 55T265 75Q162 100 107 138T52 246Q52 291 70 318T130 369V375Q107 395 96 418T84 471Q84
546 141 586T306 627Q414 627 493 579V561Q493 538 489 499T479 446H352L340 510Q320 514 293 514Q232 514 232 471Q232 451 250 438T327 412Q435 389 491 353T547 245Q547 159 463 118V112Q494 81 494 27Q494 -45 439 -86T271 -127Q220 -127 177 -119ZM389 183T393
196T398 227Q398 245 393 256T368 277T309 296L274 303Q250 307 222 314Q210 301 206 290T201 260Q201 237 219 221T283 191Q346 174 378 168Q389 183 393 196Z" />
<glyph unicode="&#xa8;" glyph-name="dieresis" horiz-adv-x="370" d="M62 443T43 461T23 511Q23 545 42 563T96 582Q131 582 150 564T169 511Q169 479 150 461T96 443Q62 443 43 461ZM240 443T221 461T201 511Q201 545 220 563T274 582Q309 582 328 564T347 511Q347
479 328 461T274 443Q240 443 221 461Z" />
<glyph unicode="&#xa9;" glyph-name="copyright" horiz-adv-x="736" d="M275 -4T203 36T91 147T50 308Q50 398 90 469T203 580T368 620Q461 620 533 580T645 469T686 308Q686 218 646 147T533 36T368 -4Q275 -4 203 36ZM489 56T555 122T621 308Q621 427 555 493T368
560Q247 560 181 494T115 308Q115 189 181 123T368 56Q489 56 555 122ZM285 122T236 168T186 299Q186 393 235 442T372 492Q413 492 446 482T504 454V434Q504 416 500 394T488 352H403L397 387Q381 392 356 392Q334 392 313 387Q303 368 300 349T296 298Q296 253
314 235T374 216Q434 216 482 246L516 170Q492 148 456 135T374 122Q285 122 236 168Z" />
<glyph unicode="&#xaa;" glyph-name="ordfeminine" horiz-adv-x="387" d="M94 265T64 293T33 367Q33 424 70 449T181 474Q210 474 233 471V499Q233 515 227 521T202 528Q185 528 166 524L160 490H70Q57 526 57 560V582Q122 620 211 620Q280 620 316 591T352 508V270H255L252
310H246Q226 286 203 276T150 265Q94 265 64 293ZM195 355T208 359T236 374V394Q221 397 200 397Q176 397 155 393Q151 386 151 375Q151 355 176 355Q195 355 208 359Z" />
<glyph unicode="&#xab;" glyph-name="guillemotleft" horiz-adv-x="520" d="M45 251L184 440L291 389L192 254V248L291 113L184 62L45 251ZM237 251L370 429L477 378L384 254V248L477 124L370 73L237 251Z" />
<glyph unicode="&#xac;" glyph-name="logicalnot" horiz-adv-x="504" d="M316 214H40V352H464V143H316V214Z" />
<glyph unicode="&#xad;" glyph-name="uni00AD" horiz-adv-x="358" d="M40 301H318V163H40V301Z" />
<glyph unicode="&#xae;" glyph-name="registered" horiz-adv-x="736" d="M275 -4T203 36T91 147T50 308Q50 398 90 469T203 580T368 620Q461 620 533 580T645 469T686 308Q686 218 646 147T533 36T368 -4Q275 -4 203 36ZM489 56T555 122T621 308Q621 427 555 493T368
560Q247 560 181 494T115 308Q115 189 181 123T368 56Q489 56 555 122ZM418 133T399 175L373 234Q371 238 369 244T362 256H326V136H216V483Q241 491 278 496T347 502Q433 502 474 472T516 378Q516 302 453 273V268Q459 264 463 260T473 247L498 207L532 202V142Q528
141 514 137T474 133Q418 133 399 175ZM349 341Q380 341 392 348T405 375Q405 410 360 410Q342 410 326 406V341H349Z" />
<glyph unicode="&#xaf;" glyph-name="overscore" horiz-adv-x="406" d="M17 586H389V448H17V586Z" />
<glyph unicode="&#xb0;" glyph-name="degree" horiz-adv-x="431" d="M131 281T83 321T35 442Q35 523 92 569T242 616Q329 616 376 577T424 455Q424 374 368 328T217 281Q131 281 83 321ZM252 388T263 389T290 396Q296 409 298 419T300 443Q300 478 286 493T227
509Q208 509 197 508T166 501Q162 487 161 478T159 454Q159 420 174 404T232 388Q252 388 263 389Z" />
<glyph unicode="&#xb1;" glyph-name="plusminus" horiz-adv-x="634" d="M243 293H65V427H243V571H391V427H569V293H391V151H243V293ZM74 111H568V0H74V111Z" />
<glyph unicode="&#xb2;" glyph-name="uni00B2" horiz-adv-x="360" d="M25 464Q110 487 156 516T202 573Q202 591 178 591Q162 591 148 585V567H51Q37 602 37 642V665Q104 700 183 700Q249 700 286 673T323 598Q323 538 279 501T144 427V425H230V450H322Q328 434
331 409T335 364V334H25V464Z" />
<glyph unicode="&#xb3;" glyph-name="uni00B3" horiz-adv-x="336" d="M73 330T16 350L29 440Q83 424 128 424Q162 424 186 427Q190 438 190 448Q190 461 182 464T149 467H75V550H148Q185 550 185 581Q185 593 179 599T158 605Q144 605 129 601V574H34Q18 615 18
651V669Q87 701 163 701Q233 701 269 675T306 602Q306 568 291 548T245 513V510Q279 497 295 477T311 427Q311 381 270 356T146 330Q73 330 16 350Z" />
<glyph unicode="&#xb4;" glyph-name="acute" horiz-adv-x="323" d="M23 742L105 907L261 891L127 722L23 742Z" />
<glyph unicode="&#xb5;" glyph-name="uni00B5" horiz-adv-x="567" d="M64 472H211V129Q225 124 252 124Q286 124 311 134T361 170V472H507V0H374L367 53H359Q338 20 316 6T259 -8Q226 -8 201 10H196V-213H64V472Z" />
<glyph unicode="&#xb6;" glyph-name="paragraph" horiz-adv-x="699" d="M266 247H240Q158 247 107 293T55 430Q55 525 105 572T252 620H553V-120H425V480H393V-120H266V247Z" />
<glyph unicode="&#xb7;" glyph-name="middot" horiz-adv-x="361" d="M148 198T128 218T107 270Q107 302 127 322T181 342Q214 342 234 322T255 270Q255 238 235 218T181 198Q148 198 128 218Z" />
<glyph unicode="&#xb8;" glyph-name="cedilla" horiz-adv-x="321" d="M104 -251T53 -227L82 -140Q116 -154 151 -154Q172 -154 183 -152Q186 -146 186 -137Q186 -125 176 -121T145 -116Q119 -116 103 -124L54 -70L140 23L229 4L195 -42Q213 -35 236 -35Q275 -35
296 -61T318 -132Q318 -188 283 -219T176 -251Q104 -251 53 -227Z" />
<glyph unicode="&#xb9;" glyph-name="uni00B9" horiz-adv-x="254" d="M95 578L89 582L39 570L13 643L123 700Q150 698 183 682T216 651V332H95V578Z" />
<glyph unicode="&#xba;" glyph-name="ordmasculine" horiz-adv-x="410" d="M117 244T75 289T32 420Q32 509 79 562T212 615Q378 615 378 435Q378 347 331 296T198 244Q117 244 75 289ZM229 353T246 358Q255 388 255 427Q255 469 245 485T202 502Q181 502 164 497Q155
467 155 428Q155 388 164 371T208 353Q229 353 246 358Z" />
<glyph unicode="&#xbb;" glyph-name="guillemotright" horiz-adv-x="520" d="M229 113L328 248V254L229 389L336 440L475 251L336 62L229 113ZM43 124L136 248V254L43 378L150 429L283 251L150 73L43 124Z" />
<glyph unicode="&#xbc;" glyph-name="onequarter" horiz-adv-x="821" d="M127 503L122 507L71 494L45 567L155 624Q182 622 215 606T248 575V256H127V503ZM144 18L514 624L633 585L266 -18L144 18ZM616 50H459L424 134L604 357H727V141H774V50H727V0H616V50ZM618
141V168Q618 197 626 239H622L548 146L550 141H618Z" />
<glyph unicode="&#xbd;" glyph-name="onehalf" horiz-adv-x="824" d="M127 503L122 507L71 494L45 567L155 624Q182 622 215 606T248 575V256H127V503ZM144 18L514 624L633 585L266 -18L144 18ZM506 126Q591 149 637 178T683 235Q683 253 659 253Q643 253 629
247V229H532Q518 264 518 304V327Q585 362 664 362Q730 362 767 335T804 260Q804 200 760 163T625 89V87H711V112H803Q809 96 812 71T816 26V-4H506V126Z" />
<glyph unicode="&#xbe;" glyph-name="threequarters" horiz-adv-x="850" d="M193 18L563 624L682 585L315 -18L193 18ZM105 245T48 265L61 355Q115 339 160 339Q194 339 218 342Q222 353 222 363Q222 376 214 379T181 382H107V465H180Q217 465 217 496Q217 508
211 514T190 520Q176 520 161 516V489H66Q50 530 50 566V584Q119 616 195 616Q265 616 301 590T338 517Q338 483 323 463T277 428V425Q311 412 327 392T343 342Q343 296 302 271T178 245Q105 245 48 265ZM645 50H488L453 134L633 357H756V141H803V50H756V0H645V50ZM647
141V168Q647 197 655 239H651L577 146L579 141H647Z" />
<glyph unicode="&#xbf;" glyph-name="questiondown" horiz-adv-x="567" d="M230 521H384V400H230V521ZM168 -110T109 -67T50 58Q50 106 64 137T118 198L219 264Q229 270 231 278T234 305V360H383V268Q383 246 376 233T351 206L198 100V75Q198 47 217 39T282 30Q312
30 330 32T372 42V89H499Q513 36 513 -32V-53Q407 -110 280 -110Q168 -110 109 -67Z" />
<glyph unicode="&#xc0;" glyph-name="Agrave" horiz-adv-x="651" d="M143 821L313 840L400 685L277 665L143 821ZM25 9Q66 165 117 328T219 620H432Q482 492 533 329T626 9L470 0Q454 56 428 168H223Q192 50 181 0L25 9ZM391 301Q365 391 333 485H318Q288 402
259 301H391Z" />
<glyph unicode="&#xc1;" glyph-name="Aacute" horiz-adv-x="651" d="M263 685L345 850L501 834L367 665L263 685ZM25 9Q66 165 117 328T219 620H432Q482 492 533 329T626 9L470 0Q454 56 428 168H223Q192 50 181 0L25 9ZM391 301Q365 391 333 485H318Q288 402
259 301H391Z" />
<glyph unicode="&#xc2;" glyph-name="Acircumflex" horiz-adv-x="651" d="M168 680L264 823H387L482 680L399 665L329 725H322L249 665L168 680ZM25 9Q66 165 117 328T219 620H432Q482 492 533 329T626 9L470 0Q454 56 428 168H223Q192 50 181 0L25 9ZM391 301Q365
391 333 485H318Q288 402 259 301H391Z" />
<glyph unicode="&#xc3;" glyph-name="Atilde" horiz-adv-x="651" d="M147 682Q148 749 171 784T249 820Q268 820 285 814T321 795Q324 794 337 787T362 779Q380 779 385 791T392 828L484 803Q483 736 461 701T387 665Q370 665 356 670T319 688Q302 697 291 701T269
706Q251 706 246 694T239 657L147 682ZM25 9Q66 165 117 328T219 620H432Q482 492 533 329T626 9L470 0Q454 56 428 168H223Q192 50 181 0L25 9ZM391 301Q365 391 333 485H318Q288 402 259 301H391Z" />
<glyph unicode="&#xc4;" glyph-name="Adieresis" horiz-adv-x="651" d="M202 665T183 683T163 733Q163 767 182 785T236 804Q271 804 290 786T309 733Q309 701 290 683T236 665Q202 665 183 683ZM380 665T361 683T341 733Q341 767 360 785T414 804Q449 804 468
786T487 733Q487 701 468 683T414 665Q380 665 361 683ZM25 9Q66 165 117 328T219 620H432Q482 492 533 329T626 9L470 0Q454 56 428 168H223Q192 50 181 0L25 9ZM391 301Q365 391 333 485H318Q288 402 259 301H391Z" />
<glyph unicode="&#xc5;" glyph-name="Aring" horiz-adv-x="651" d="M247 665T216 694T184 772Q184 823 223 858T341 893Q401 893 433 862T466 781Q466 727 425 696T309 665Q247 665 216 694ZM343 749T358 754Q361 762 361 772Q361 790 354 799T327 809Q308 809
293 805Q289 792 289 778Q289 765 298 757T324 749Q343 749 358 754ZM25 9Q66 165 117 328T219 620H432Q482 492 533 329T626 9L470 0Q454 56 428 168H223Q192 50 181 0L25 9ZM391 301Q365 391 333 485H318Q288 402 259 301H391Z" />
<glyph unicode="&#xc6;" glyph-name="AE" horiz-adv-x="972" d="M594 -10T526 18T457 121V170H234L147 -6L5 26Q150 327 318 620H922V483H607V372H871V241H607V137Q658 127 725 127Q826 127 908 146L927 12Q841 -10 720 -10Q594 -10 526 18ZM457 305V479H399Q351
397 303 305H457Z" />
<glyph unicode="&#xc7;" glyph-name="Ccedilla" horiz-adv-x="628" d="M257 -251T206 -227L235 -140Q269 -154 304 -154Q325 -154 336 -152Q339 -146 339 -137Q339 -125 329 -121T298 -116Q272 -116 256 -124L207 -70L268 -3Q158 15 101 89T44 291Q44 446 119
538T342 630Q467 630 557 583V541Q557 507 554 469T544 409H420L410 483Q377 491 328 491Q273 491 218 479Q194 396 194 297Q194 209 232 169T360 129Q415 129 457 141T538 177L596 60Q538 17 461 0Q423 -8 372 -10L348 -42Q366 -35 389 -35Q428 -35 449 -61T471
-132Q471 -188 436 -219T329 -251Q257 -251 206 -227Z" />
<glyph unicode="&#xc8;" glyph-name="Egrave" horiz-adv-x="581" d="M132 821L302 840L389 685L266 665L132 821ZM202 -10T134 18T65 121V620H530V483H215V372H479V241H215V137Q266 127 333 127Q434 127 516 146L535 12Q449 -10 328 -10Q202 -10 134 18Z" />
<glyph unicode="&#xc9;" glyph-name="Eacute" horiz-adv-x="581" d="M228 686L310 851L466 835L332 666L228 686ZM202 -10T134 18T65 121V620H530V483H215V372H479V241H215V137Q266 127 333 127Q434 127 516 146L535 12Q449 -10 328 -10Q202 -10 134 18Z" />
<glyph unicode="&#xca;" glyph-name="Ecircumflex" horiz-adv-x="581" d="M133 680L229 823H352L447 680L364 665L294 725H287L214 665L133 680ZM202 -10T134 18T65 121V620H530V483H215V372H479V241H215V137Q266 127 333 127Q434 127 516 146L535 12Q449 -10
328 -10Q202 -10 134 18Z" />
<glyph unicode="&#xcb;" glyph-name="Edieresis" horiz-adv-x="581" d="M167 665T148 683T128 733Q128 767 147 785T201 804Q236 804 255 786T274 733Q274 701 255 683T201 665Q167 665 148 683ZM345 665T326 683T306 733Q306 767 325 785T379 804Q414 804 433
786T452 733Q452 701 433 683T379 665Q345 665 326 683ZM202 -10T134 18T65 121V620H530V483H215V372H479V241H215V137Q266 127 333 127Q434 127 516 146L535 12Q449 -10 328 -10Q202 -10 134 18Z" />
<glyph unicode="&#xcc;" glyph-name="Igrave" horiz-adv-x="286" d="M-42 821L128 840L215 685L92 665L-42 821ZM68 620H218V0H68V620Z" />
<glyph unicode="&#xcd;" glyph-name="Iacute" horiz-adv-x="286" d="M84 685L166 850L322 834L188 665L84 685ZM68 620H218V0H68V620Z" />
<glyph unicode="&#xce;" glyph-name="Icircumflex" horiz-adv-x="286" d="M-14 680L82 823H205L300 680L217 665L147 725H140L67 665L-14 680ZM68 620H218V0H68V620Z" />
<glyph unicode="&#xcf;" glyph-name="Idieresis" horiz-adv-x="286" d="M20 665T1 683T-19 733Q-19 767 0 785T54 804Q89 804 108 786T127 733Q127 701 108 683T54 665Q20 665 1 683ZM198 665T179 683T159 733Q159 767 178 785T232 804Q267 804 286 786T305 733Q305
701 286 683T232 665Q198 665 179 683ZM68 620H218V0H68V620Z" />
<glyph unicode="&#xd0;" glyph-name="Eth" horiz-adv-x="689" d="M123 260H65V384H123V605Q215 630 339 630Q506 630 579 553T653 323Q653 166 572 83T299 0H123V260ZM322 138Q423 138 482 158Q503 218 503 308Q503 379 487 419T438 475T351 492Q314 492 271 486V384H345V260H271V138H322Z"
/>
<glyph unicode="&#xd1;" glyph-name="Ntilde" horiz-adv-x="669" d="M166 688Q167 755 190 790T268 826Q287 826 304 820T340 801Q343 800 356 793T381 785Q399 785 404 797T411 834L503 809Q502 742 480 707T406 671Q389 671 375 676T338 694Q321 703 310 707T288
712Q270 712 265 700T258 663L166 688ZM65 620H262L459 157L467 159L455 322V620H604V0H407L210 463L202 461L214 298V0H65V620Z" />
<glyph unicode="&#xd2;" glyph-name="Ograve" horiz-adv-x="665" d="M151 821L321 840L408 685L285 665L151 821ZM179 -9T111 69T42 300Q42 463 121 546T348 630Q486 630 554 552T623 321Q623 158 544 75T317 -9Q179 -9 111 69ZM402 129T447 147Q462 184 468 221T475
306Q475 371 464 411T420 471T327 492Q263 492 218 474Q203 437 197 401T190 315Q190 250 201 210T245 150T338 129Q402 129 447 147Z" />
<glyph unicode="&#xd3;" glyph-name="Oacute" horiz-adv-x="665" d="M263 685L345 850L501 834L367 665L263 685ZM179 -9T111 69T42 300Q42 463 121 546T348 630Q486 630 554 552T623 321Q623 158 544 75T317 -9Q179 -9 111 69ZM402 129T447 147Q462 184 468 221T475
306Q475 371 464 411T420 471T327 492Q263 492 218 474Q203 437 197 401T190 315Q190 250 201 210T245 150T338 129Q402 129 447 147Z" />
<glyph unicode="&#xd4;" glyph-name="Ocircumflex" horiz-adv-x="665" d="M175 680L271 823H394L489 680L406 665L336 725H329L256 665L175 680ZM179 -9T111 69T42 300Q42 463 121 546T348 630Q486 630 554 552T623 321Q623 158 544 75T317 -9Q179 -9 111 69ZM402
129T447 147Q462 184 468 221T475 306Q475 371 464 411T420 471T327 492Q263 492 218 474Q203 437 197 401T190 315Q190 250 201 210T245 150T338 129Q402 129 447 147Z" />
<glyph unicode="&#xd5;" glyph-name="Otilde" horiz-adv-x="665" d="M164 682Q165 749 188 784T266 820Q285 820 302 814T338 795Q341 794 354 787T379 779Q397 779 402 791T409 828L501 803Q500 736 478 701T404 665Q387 665 373 670T336 688Q319 697 308 701T286
706Q268 706 263 694T256 657L164 682ZM179 -9T111 69T42 300Q42 463 121 546T348 630Q486 630 554 552T623 321Q623 158 544 75T317 -9Q179 -9 111 69ZM402 129T447 147Q462 184 468 221T475 306Q475 371 464 411T420 471T327 492Q263 492 218 474Q203 437 197
401T190 315Q190 250 201 210T245 150T338 129Q402 129 447 147Z" />
<glyph unicode="&#xd6;" glyph-name="Odieresis" horiz-adv-x="665" d="M209 665T190 683T170 733Q170 767 189 785T243 804Q278 804 297 786T316 733Q316 701 297 683T243 665Q209 665 190 683ZM387 665T368 683T348 733Q348 767 367 785T421 804Q456 804 475
786T494 733Q494 701 475 683T421 665Q387 665 368 683ZM179 -9T111 69T42 300Q42 463 121 546T348 630Q486 630 554 552T623 321Q623 158 544 75T317 -9Q179 -9 111 69ZM402 129T447 147Q462 184 468 221T475 306Q475 371 464 411T420 471T327 492Q263 492 218
474Q203 437 197 401T190 315Q190 250 201 210T245 150T338 129Q402 129 447 147Z" />
<glyph unicode="&#xd7;" glyph-name="multiply" horiz-adv-x="496" d="M40 193L170 308L40 423L125 503L248 380L371 503L456 423L326 308L456 193L371 113L248 236L125 113L40 193Z" />
<glyph unicode="&#xd8;" glyph-name="Oslash" horiz-adv-x="665" d="M89 -57L135 46Q42 123 42 300Q42 463 121 546T348 630Q374 630 398 627L430 698L564 666L524 579Q623 503 623 321Q623 158 544 75T317 -9Q284 -9 261 -5L223 -90L89 -57ZM337 492H327Q263
492 218 474Q203 437 197 401T190 315Q190 238 205 200L337 492ZM338 129Q402 129 447 147Q462 184 468 221T475 306Q475 386 456 428L322 129H338Z" />
<glyph unicode="&#xd9;" glyph-name="Ugrave" horiz-adv-x="653" d="M151 821L321 840L408 685L285 665L151 821ZM183 -10T123 50T63 220V620H213V253Q213 205 223 178T256 140T324 128Q363 128 388 131T440 144V620H590V135Q590 61 515 26T317 -10Q183 -10 123 50Z" />
<glyph unicode="&#xda;" glyph-name="Uacute" horiz-adv-x="653" d="M258 685L340 850L496 834L362 665L258 685ZM183 -10T123 50T63 220V620H213V253Q213 205 223 178T256 140T324 128Q363 128 388 131T440 144V620H590V135Q590 61 515 26T317 -10Q183 -10 123 50Z" />
<glyph unicode="&#xdb;" glyph-name="Ucircumflex" horiz-adv-x="653" d="M169 680L265 823H388L483 680L400 665L330 725H323L250 665L169 680ZM183 -10T123 50T63 220V620H213V253Q213 205 223 178T256 140T324 128Q363 128 388 131T440 144V620H590V135Q590
61 515 26T317 -10Q183 -10 123 50Z" />
<glyph unicode="&#xdc;" glyph-name="Udieresis" horiz-adv-x="653" d="M203 665T184 683T164 733Q164 767 183 785T237 804Q272 804 291 786T310 733Q310 701 291 683T237 665Q203 665 184 683ZM381 665T362 683T342 733Q342 767 361 785T415 804Q450 804 469
786T488 733Q488 701 469 683T415 665Q381 665 362 683ZM183 -10T123 50T63 220V620H213V253Q213 205 223 178T256 140T324 128Q363 128 388 131T440 144V620H590V135Q590 61 515 26T317 -10Q183 -10 123 50Z" />
<glyph unicode="&#xdd;" glyph-name="Yacute" horiz-adv-x="655" d="M260 685L342 850L498 834L364 665L260 685ZM253 185H229Q166 278 115 377T18 595L166 625Q238 427 316 303H339Q419 432 489 625L637 595Q591 477 540 378T426 185H402V0H253V185Z" />
<glyph unicode="&#xde;" glyph-name="Thorn" horiz-adv-x="533" d="M65 620H214V506H277Q503 506 503 315Q503 124 277 124H214V0H65V620ZM278 257Q316 257 335 270T354 315Q354 347 335 360T278 373H214V257H278Z" />
<glyph unicode="&#xdf;" glyph-name="germandbls" horiz-adv-x="593" d="M275 -9T227 6L248 134Q281 125 319 125Q355 125 379 130Q389 156 389 192Q389 239 358 260T244 281V415Q305 415 328 426T351 471Q351 501 334 513T279 525Q241 525 209 516V0H62V469Q62
562 121 613T284 664Q386 664 442 620T499 499Q499 443 473 410T398 358V352Q472 327 504 288T537 175Q537 88 485 40T337 -9Q275 -9 227 6Z" />
<glyph unicode="&#xe0;" glyph-name="agrave" horiz-adv-x="522" d="M93 676L263 695L350 540L227 520L93 676ZM99 -8T65 26T30 126Q30 281 262 281Q281 281 314 278V322Q314 348 303 356T261 365Q234 365 213 361L203 313H79Q66 356 66 403V428Q111 452 159 465T274
478Q366 478 415 441T464 331V0H338L329 66H321Q293 28 259 10T171 -8Q99 -8 65 26ZM252 113T274 122T316 149V184Q288 189 248 189Q217 189 189 182Q183 168 183 148Q183 113 223 113Q252 113 274 122Z" />
<glyph unicode="&#xe1;" glyph-name="aacute" horiz-adv-x="522" d="M200 540L282 705L438 689L304 520L200 540ZM99 -8T65 26T30 126Q30 281 262 281Q281 281 314 278V322Q314 348 303 356T261 365Q234 365 213 361L203 313H79Q66 356 66 403V428Q111 452 159
465T274 478Q366 478 415 441T464 331V0H338L329 66H321Q293 28 259 10T171 -8Q99 -8 65 26ZM252 113T274 122T316 149V184Q288 189 248 189Q217 189 189 182Q183 168 183 148Q183 113 223 113Q252 113 274 122Z" />
<glyph unicode="&#xe2;" glyph-name="acircumflex" horiz-adv-x="522" d="M114 535L210 678H333L428 535L345 520L275 580H268L195 520L114 535ZM99 -8T65 26T30 126Q30 281 262 281Q281 281 314 278V322Q314 348 303 356T261 365Q234 365 213 361L203 313H79Q66
356 66 403V428Q111 452 159 465T274 478Q366 478 415 441T464 331V0H338L329 66H321Q293 28 259 10T171 -8Q99 -8 65 26ZM252 113T274 122T316 149V184Q288 189 248 189Q217 189 189 182Q183 168 183 148Q183 113 223 113Q252 113 274 122Z" />
<glyph unicode="&#xe3;" glyph-name="atilde" horiz-adv-x="522" d="M102 537Q103 604 126 639T204 675Q223 675 240 669T276 650Q279 649 292 642T317 634Q335 634 340 646T347 683L439 658Q438 591 416 556T342 520Q325 520 311 525T274 543Q257 552 246 556T224
561Q206 561 201 549T194 512L102 537ZM99 -8T65 26T30 126Q30 281 262 281Q281 281 314 278V322Q314 348 303 356T261 365Q234 365 213 361L203 313H79Q66 356 66 403V428Q111 452 159 465T274 478Q366 478 415 441T464 331V0H338L329 66H321Q293 28 259 10T171
-8Q99 -8 65 26ZM252 113T274 122T316 149V184Q288 189 248 189Q217 189 189 182Q183 168 183 148Q183 113 223 113Q252 113 274 122Z" />
<glyph unicode="&#xe4;" glyph-name="adieresis" horiz-adv-x="522" d="M153 520T134 538T114 588Q114 622 133 640T187 659Q222 659 241 641T260 588Q260 556 241 538T187 520Q153 520 134 538ZM331 520T312 538T292 588Q292 622 311 640T365 659Q400 659 419
641T438 588Q438 556 419 538T365 520Q331 520 312 538ZM99 -8T65 26T30 126Q30 281 262 281Q281 281 314 278V322Q314 348 303 356T261 365Q234 365 213 361L203 313H79Q66 356 66 403V428Q111 452 159 465T274 478Q366 478 415 441T464 331V0H338L329 66H321Q293
28 259 10T171 -8Q99 -8 65 26ZM252 113T274 122T316 149V184Q288 189 248 189Q217 189 189 182Q183 168 183 148Q183 113 223 113Q252 113 274 122Z" />
<glyph unicode="&#xe5;" glyph-name="aring" horiz-adv-x="522" d="M198 515T167 544T135 622Q135 673 174 708T292 743Q352 743 384 712T417 631Q417 577 376 546T260 515Q198 515 167 544ZM294 599T309 604Q312 612 312 622Q312 640 305 649T278 659Q259 659
244 655Q240 642 240 628Q240 615 249 607T275 599Q294 599 309 604ZM99 -8T65 26T30 126Q30 281 262 281Q281 281 314 278V322Q314 348 303 356T261 365Q234 365 213 361L203 313H79Q66 356 66 403V428Q111 452 159 465T274 478Q366 478 415 441T464 331V0H338L329
66H321Q293 28 259 10T171 -8Q99 -8 65 26ZM252 113T274 122T316 149V184Q288 189 248 189Q217 189 189 182Q183 168 183 148Q183 113 223 113Q252 113 274 122Z" />
<glyph unicode="&#xe6;" glyph-name="ae" horiz-adv-x="812" d="M116 -8T73 27T30 126Q30 281 262 281Q281 281 314 278V322Q314 348 303 356T261 365Q234 365 213 361L203 313H79Q66 356 66 403V428Q111 452 158 465T270 478Q367 478 417 428Q474 482 567 482Q668
482 721 430T774 284Q774 268 773 259L700 187L468 189Q468 154 492 137T575 119Q627 119 665 129T738 160L774 46Q736 21 688 8T570 -6Q452 -6 394 64Q356 29 308 11T191 -8Q116 -8 73 27ZM633 286Q636 297 636 304Q636 329 615 343T558 358Q511 358 490 339T467
282L633 286ZM252 113T274 122T316 149V184Q288 189 248 189Q217 189 189 182Q183 168 183 148Q183 113 223 113Q252 113 274 122Z" />
<glyph unicode="&#xe7;" glyph-name="ccedilla" horiz-adv-x="495" d="M196 -251T145 -227L174 -140Q208 -154 243 -154Q264 -154 275 -152Q278 -146 278 -137Q278 -125 268 -121T237 -116Q211 -116 195 -124L146 -70L207 -3Q37 29 37 229Q37 343 101 410T277
478Q388 478 458 437V401Q458 346 445 292H322L314 337Q294 341 266 341Q226 341 199 333Q185 287 185 235Q185 180 207 155T288 129Q359 129 413 172L479 65Q407 -1 311 -9L287 -42Q305 -35 328 -35Q367 -35 388 -61T410 -132Q410 -188 375 -219T268 -251Q196
-251 145 -227Z" />
<glyph unicode="&#xe8;" glyph-name="egrave" horiz-adv-x="528" d="M86 676L256 695L343 540L220 520L86 676ZM167 -6T104 54T40 231Q40 354 101 418T277 482Q379 482 434 429T490 282Q490 267 489 259L416 187L184 189Q184 154 208 137T291 119Q343 119 381
129T454 160L490 46Q452 21 404 8T286 -6Q167 -6 104 54ZM349 286Q352 297 352 304Q352 329 330 343T274 358Q227 358 206 339T183 282L349 286Z" />
<glyph unicode="&#xe9;" glyph-name="eacute" horiz-adv-x="528" d="M198 540L280 705L436 689L302 520L198 540ZM167 -6T104 54T40 231Q40 354 101 418T277 482Q379 482 434 429T490 282Q490 267 489 259L416 187L184 189Q184 154 208 137T291 119Q343 119 381
129T454 160L490 46Q452 21 404 8T286 -6Q167 -6 104 54ZM349 286Q352 297 352 304Q352 329 330 343T274 358Q227 358 206 339T183 282L349 286Z" />
<glyph unicode="&#xea;" glyph-name="ecircumflex" horiz-adv-x="528" d="M111 535L207 678H330L425 535L342 520L272 580H265L192 520L111 535ZM167 -6T104 54T40 231Q40 354 101 418T277 482Q379 482 434 429T490 282Q490 267 489 259L416 187L184 189Q184 154
208 137T291 119Q343 119 381 129T454 160L490 46Q452 21 404 8T286 -6Q167 -6 104 54ZM349 286Q352 297 352 304Q352 329 330 343T274 358Q227 358 206 339T183 282L349 286Z" />
<glyph unicode="&#xeb;" glyph-name="edieresis" horiz-adv-x="528" d="M151 520T132 538T112 588Q112 622 131 640T185 659Q220 659 239 641T258 588Q258 556 239 538T185 520Q151 520 132 538ZM329 520T310 538T290 588Q290 622 309 640T363 659Q398 659 417
641T436 588Q436 556 417 538T363 520Q329 520 310 538ZM167 -6T104 54T40 231Q40 354 101 418T277 482Q379 482 434 429T490 282Q490 267 489 259L416 187L184 189Q184 154 208 137T291 119Q343 119 381 129T454 160L490 46Q452 21 404 8T286 -6Q167 -6 104 54ZM349
286Q352 297 352 304Q352 329 330 343T274 358Q227 358 206 339T183 282L349 286Z" />
<glyph unicode="&#xec;" glyph-name="igrave" horiz-adv-x="274" d="M-47 675L123 694L210 539L87 519L-47 675ZM63 472H211V0H63V472Z" />
<glyph unicode="&#xed;" glyph-name="iacute" horiz-adv-x="274" d="M60 540L142 705L298 689L164 520L60 540ZM63 472H211V0H63V472Z" />
<glyph unicode="&#xee;" glyph-name="icircumflex" horiz-adv-x="274" d="M-19 535L77 678H200L295 535L212 520L142 580H135L62 520L-19 535ZM63 472H211V0H63V472Z" />
<glyph unicode="&#xef;" glyph-name="idieresis" horiz-adv-x="274" d="M17 515T-2 533T-22 583Q-22 617 -3 635T51 654Q86 654 105 636T124 583Q124 551 105 533T51 515Q17 515 -2 533ZM195 515T176 533T156 583Q156 617 175 635T229 654Q264 654 283 636T302
583Q302 551 283 533T229 515Q195 515 176 533ZM63 472H211V0H63V472Z" />
<glyph unicode="&#xf0;" glyph-name="eth" horiz-adv-x="603" d="M182 -16T124 35T65 185Q65 280 120 329T266 379Q300 379 326 369T377 336H383Q383 388 351 438L236 396L201 480L277 509Q252 527 206 548L292 621Q358 590 400 556L505 597L548 510L471 482Q533
391 533 248Q533 128 473 56T284 -16Q182 -16 124 35ZM322 111T339 112T377 118Q387 148 387 190Q387 215 384 236Q361 245 344 248T296 251Q210 251 210 184Q210 148 229 130T298 111Q322 111 339 112Z" />
<glyph unicode="&#xf1;" glyph-name="ntilde" horiz-adv-x="585" d="M119 532Q120 599 143 634T221 670Q240 670 257 664T293 645Q296 644 309 637T334 629Q352 629 357 641T364 678L456 653Q455 586 433 551T359 515Q342 515 328 520T291 538Q274 547 263 551T241
556Q223 556 218 544T211 507L119 532ZM75 472H211L217 398H225Q286 482 386 482Q454 482 489 446T525 344V0H378V333Q358 342 325 342Q259 342 222 310V0H75V472Z" />
<glyph unicode="&#xf2;" glyph-name="ograve" horiz-adv-x="557" d="M100 676L270 695L357 540L234 520L100 676ZM146 -9T93 52T40 226Q40 300 70 358T158 449T295 482Q517 482 517 244Q517 129 454 60T262 -9Q146 -9 93 52ZM320 116T354 126Q371 169 371 237Q371
303 351 328T277 354Q239 354 203 345Q186 303 186 233Q186 167 206 142T280 116Q320 116 354 126Z" />
<glyph unicode="&#xf3;" glyph-name="oacute" horiz-adv-x="557" d="M213 540L295 705L451 689L317 520L213 540ZM146 -9T93 52T40 226Q40 300 70 358T158 449T295 482Q517 482 517 244Q517 129 454 60T262 -9Q146 -9 93 52ZM320 116T354 126Q371 169 371 237Q371
303 351 328T277 354Q239 354 203 345Q186 303 186 233Q186 167 206 142T280 116Q320 116 354 126Z" />
<glyph unicode="&#xf4;" glyph-name="ocircumflex" horiz-adv-x="557" d="M121 535L217 678H340L435 535L352 520L282 580H275L202 520L121 535ZM146 -9T93 52T40 226Q40 300 70 358T158 449T295 482Q517 482 517 244Q517 129 454 60T262 -9Q146 -9 93 52ZM320
116T354 126Q371 169 371 237Q371 303 351 328T277 354Q239 354 203 345Q186 303 186 233Q186 167 206 142T280 116Q320 116 354 126Z" />
<glyph unicode="&#xf5;" glyph-name="otilde" horiz-adv-x="557" d="M110 537Q111 604 134 639T212 675Q231 675 248 669T284 650Q287 649 300 642T325 634Q343 634 348 646T355 683L447 658Q446 591 424 556T350 520Q333 520 319 525T282 543Q265 552 254 556T232
561Q214 561 209 549T202 512L110 537ZM146 -9T93 52T40 226Q40 300 70 358T158 449T295 482Q517 482 517 244Q517 129 454 60T262 -9Q146 -9 93 52ZM320 116T354 126Q371 169 371 237Q371 303 351 328T277 354Q239 354 203 345Q186 303 186 233Q186 167 206 142T280
116Q320 116 354 126Z" />
<glyph unicode="&#xf6;" glyph-name="odieresis" horiz-adv-x="557" d="M164 520T145 538T125 588Q125 622 144 640T198 659Q233 659 252 641T271 588Q271 556 252 538T198 520Q164 520 145 538ZM342 520T323 538T303 588Q303 622 322 640T376 659Q411 659 430
641T449 588Q449 556 430 538T376 520Q342 520 323 538ZM146 -9T93 52T40 226Q40 300 70 358T158 449T295 482Q517 482 517 244Q517 129 454 60T262 -9Q146 -9 93 52ZM320 116T354 126Q371 169 371 237Q371 303 351 328T277 354Q239 354 203 345Q186 303 186 233Q186
167 206 142T280 116Q320 116 354 126Z" />
<glyph unicode="&#xf7;" glyph-name="divide" horiz-adv-x="520" d="M232 396T212 416T192 465Q192 494 211 513T260 533Q289 533 308 514T328 465Q328 436 309 416T260 396Q232 396 212 416ZM40 369H480V243H40V369ZM232 79T212 99T192 148Q192 177 211 196T260
216Q289 216 308 197T328 148Q328 119 309 99T260 79Q232 79 212 99Z" />
<glyph unicode="&#xf8;" glyph-name="oslash" horiz-adv-x="557" d="M517 396T517 244Q517 129 454 60T262 -9Q246 -9 220 -7L167 -124L73 -91L125 25Q40 79 40 226Q40 300 70 358T158 449T295 482Q309 482 331 480L371 569L465 537L426 451Q517 396 517 244ZM186
196T192 172L274 354Q238 354 203 345Q186 303 186 233Q186 196 192 172ZM371 169T371 237Q371 281 362 308L275 116H280Q320 116 354 126Q371 169 371 237Z" />
<glyph unicode="&#xf9;" glyph-name="ugrave" horiz-adv-x="567" d="M95 676L265 695L352 540L229 520L95 676ZM132 -8T95 29T58 141V472H208V136Q231 128 259 128Q320 128 353 162V472H503V0H371L365 72H357Q325 32 290 12T201 -8Q132 -8 95 29Z" />
<glyph unicode="&#xfa;" glyph-name="uacute" horiz-adv-x="567" d="M204 540L286 705L442 689L308 520L204 540ZM132 -8T95 29T58 141V472H208V136Q231 128 259 128Q320 128 353 162V472H503V0H371L365 72H357Q325 32 290 12T201 -8Q132 -8 95 29Z" />
<glyph unicode="&#xfb;" glyph-name="ucircumflex" horiz-adv-x="567" d="M126 535L222 678H345L440 535L357 520L287 580H280L207 520L126 535ZM132 -8T95 29T58 141V472H208V136Q231 128 259 128Q320 128 353 162V472H503V0H371L365 72H357Q325 32 290 12T201
-8Q132 -8 95 29Z" />
<glyph unicode="&#xfc;" glyph-name="udieresis" horiz-adv-x="567" d="M160 520T141 538T121 588Q121 622 140 640T194 659Q229 659 248 641T267 588Q267 556 248 538T194 520Q160 520 141 538ZM338 520T319 538T299 588Q299 622 318 640T372 659Q407 659 426
641T445 588Q445 556 426 538T372 520Q338 520 319 538ZM132 -8T95 29T58 141V472H208V136Q231 128 259 128Q320 128 353 162V472H503V0H371L365 72H357Q325 32 290 12T201 -8Q132 -8 95 29Z" />
<glyph unicode="&#xfd;" glyph-name="yacute" horiz-adv-x="580" d="M221 540L303 705L459 689L325 520L221 540ZM104 -197T50 -172V-141Q50 -77 60 -29H169V-68Q182 -71 194 -71Q216 -71 233 -67Q251 -22 265 21H204Q144 153 105 257T37 472L194 479Q240 295
289 161H309Q347 296 388 479L543 472Q502 303 454 151T356 -112Q345 -137 315 -156T249 -186T182 -197Q104 -197 50 -172Z" />
<glyph unicode="&#xfe;" glyph-name="thorn" horiz-adv-x="539" d="M65 676H214V439H221Q248 458 275 466T339 475Q424 475 466 417T509 265Q509 171 467 113T339 55Q304 55 278 63T221 91H214V-180H65V676ZM326 191T343 207T361 265Q361 306 343 322T290 339Q266
339 250 336T214 324V209Q232 199 248 195T287 191Q326 191 343 207Z" />
<glyph unicode="&#xff;" glyph-name="ydieresis" horiz-adv-x="580" d="M177 520T158 538T138 588Q138 622 157 640T211 659Q246 659 265 641T284 588Q284 556 265 538T211 520Q177 520 158 538ZM355 520T336 538T316 588Q316 622 335 640T389 659Q424 659 443
641T462 588Q462 556 443 538T389 520Q355 520 336 538ZM104 -197T50 -172V-141Q50 -77 60 -29H169V-68Q182 -71 194 -71Q216 -71 233 -67Q251 -22 265 21H204Q144 153 105 257T37 472L194 479Q240 295 289 161H309Q347 296 388 479L543 472Q502 303 454 151T356
-112Q345 -137 315 -156T249 -186T182 -197Q104 -197 50 -172Z" />
<glyph unicode="&#x2013;" glyph-name="endash" horiz-adv-x="530" d="M40 307H490V169H40V307Z" />
<glyph unicode="&#x2014;" glyph-name="emdash" horiz-adv-x="705" d="M40 307H665V169H40V307Z" />
<glyph unicode="&#x2018;" glyph-name="quoteleft" horiz-adv-x="308" d="M111 413T88 434T65 499Q65 532 81 566T124 627L220 606Q206 584 199 566T190 528H243V427Q205 413 158 413Q111 413 88 434Z" />
<glyph unicode="&#x2019;" glyph-name="quoteright" horiz-adv-x="308" d="M88 429Q102 451 109 469T118 507H65V608Q103 622 150 622Q197 622 220 601T243 536Q243 503 227 469T184 408L88 429Z" />
<glyph unicode="&#x201a;" glyph-name="quotesinglbase" horiz-adv-x="308" d="M88 -99Q102 -77 109 -59T118 -21H65V80Q104 94 150 94Q197 94 220 73T243 8Q243 -25 227 -59T184 -120L88 -99Z" />
<glyph unicode="&#x201c;" glyph-name="quotedblleft" horiz-adv-x="513" d="M111 412T88 433T65 498Q65 531 81 565T124 626L220 605Q206 583 199 565T190 527H243V426Q205 412 158 412Q111 412 88 433ZM316 412T293 433T270 498Q270 531 286 565T329 626L425
605Q411 583 404 565T395 527H448V426Q409 412 363 412Q316 412 293 433Z" />
<glyph unicode="&#x201d;" glyph-name="quotedblright" horiz-adv-x="513" d="M88 433Q102 455 109 473T118 511H65V612Q103 626 150 626Q197 626 220 605T243 540Q243 507 227 473T184 412L88 433ZM293 433Q307 455 314 473T323 511H270V612Q309 626 355 626Q402
626 425 605T448 540Q448 507 432 473T389 412L293 433Z" />
<glyph unicode="&#x201e;" glyph-name="quotedblbase" horiz-adv-x="513" d="M88 433Q102 455 109 473T118 511H65V612Q103 626 150 626Q197 626 220 605T243 540Q243 507 227 473T184 412L88 433ZM293 433Q307 455 314 473T323 511H270V612Q309 626 355 626Q402
626 425 605T448 540Q448 507 432 473T389 412L293 433Z" />
<glyph unicode="&#x2022;" glyph-name="bullet" horiz-adv-x="396" d="M138 133T99 171T60 271Q60 332 99 370T198 409Q258 409 297 371T336 271Q336 210 297 172T198 133Q138 133 99 171Z" />
<glyph unicode="&#x2039;" glyph-name="guilsinglleft" horiz-adv-x="380" d="M45 261L195 459L310 416L201 261L310 106L195 63L45 261Z" />
<glyph unicode="&#x203a;" glyph-name="guilsinglright" horiz-adv-x="354" d="M44 106L153 261L44 416L159 459L309 261L159 63L44 106Z" />
</font>
</defs>
</svg>
