<?xml version="1.0" standalone="no"?>
<!DOCTYPE svg PUBLIC "-//W3C//DTD SVG 1.1//EN" "http://www.w3.org/Graphics/SVG/1.1/DTD/svg11.dtd">
<svg xmlns="http://www.w3.org/2000/svg">
<defs >
<font id="Philosopher" horiz-adv-x="548" ><font-face
    font-family="Philosopher"
    units-per-em="1000"
    panose-1="0 0 5 0 0 0 0 0 0 0"
    ascent="900"
    descent="-220"
    alphabetic="0" />
<glyph unicode=" " glyph-name="space" horiz-adv-x="250" />
<glyph unicode="!" glyph-name="exclam" horiz-adv-x="234" d="M88 155L70 660H164L146 155H88ZM95 -14T79 2T63 41Q63 63 79 78T117 94Q139 94 155 79T171 41Q171 18 155 2T117 -14Q95 -14 79 2Z" />
<glyph unicode="&quot;" glyph-name="quotedbl" horiz-adv-x="366" d="M83 390L53 660H153L123 390H83ZM243 390L213 660H313L283 390H243Z" />
<glyph unicode="#" glyph-name="numbersign" horiz-adv-x="668" d="M126 0L161 175H31V235H175L211 415H91V475H224L266 675H331L289 475H434L476 675H541L499 475H636V415H486L449 235H576V175H436L401 0H336L371 175H226L191 0H126ZM239 235H385L421 415H276L239 235Z" />
<glyph unicode="$" glyph-name="dollar" horiz-adv-x="526" d="M236 -15Q158 -6 104 26T49 105V212H67Q82 123 123 78T236 24V294L166 336Q102 374 76 413T49 508Q49 583 100 629T236 678V735H276V676Q349 669 404 637T459 558V451H441Q426 540 386 584T276 636V383L361
333Q429 292 457 257T485 168Q485 83 430 33T276 -17V-80H236V-15ZM236 638Q191 636 159 608T127 537Q127 496 151 470T236 407V638ZM328 25T363 52T399 125Q399 167 373 198T289 263L276 270V23Q328 25 363 52Z" />
<glyph unicode="%" glyph-name="percent" horiz-adv-x="674" d="M109 395T71 430T32 530Q32 594 70 629T177 665Q245 665 283 630T322 530Q322 466 284 431T177 395Q109 395 71 430ZM72 0L527 660H602L147 0H72ZM262 430T262 530Q262 630 177 630Q92 630 92 530Q92
430 177 430Q262 430 262 530ZM429 -5T391 30T352 130Q352 194 390 229T497 265Q565 265 603 230T642 130Q642 66 604 31T497 -5Q429 -5 391 30ZM582 30T582 130Q582 230 497 230Q412 230 412 130Q412 30 497 30Q582 30 582 130Z" />
<glyph unicode="&amp;" glyph-name="ampersand" horiz-adv-x="616" d="M151 -20T97 24T42 140Q42 179 61 210T106 265T185 326Q152 356 133 382Q110 411 96 447T82 524Q82 596 130 638T262 680Q339 680 383 641T427 540Q427 496 408 462T359 400T281 340L482 120Q518
159 548 205Q563 229 572 245L592 230Q581 207 570 188Q540 137 503 97L592 0H482L442 43Q358 -20 252 -20Q151 -20 97 24ZM295 413T318 448T342 530Q342 588 318 616T262 645Q227 645 202 616T177 524Q177 489 192 457T225 402T250 375Q295 413 318 448ZM355 15T421
66L215 291Q177 258 157 225T137 150Q137 15 271 15Q355 15 421 66Z" />
<glyph unicode="&apos;" glyph-name="quotesingle" horiz-adv-x="206" d="M83 390L53 660H153L123 390H83Z" />
<glyph unicode="(" glyph-name="parenleft" horiz-adv-x="309" d="M158 -115T96 -10T34 240Q34 384 96 489T284 690L294 675Q124 526 124 240Q124 -46 294 -195L284 -210Q158 -115 96 -10Z" />
<glyph unicode=")" glyph-name="parenright" horiz-adv-x="309" d="M15 -195Q185 -46 185 240Q185 526 15 675L25 690Q151 595 213 490T275 240Q275 96 213 -9T25 -210L15 -195Z" />
<glyph unicode="*" glyph-name="asterisk" horiz-adv-x="424" d="M172 330L202 480L87 375L47 445L192 495L47 545L87 615L202 510L172 660H252L222 510L337 615L377 545L232 495L377 445L337 375L222 480L252 330H172Z" />
<glyph unicode="+" glyph-name="plus" horiz-adv-x="530" d="M235 100V300H35V360H235V560H295V360H495V300H295V100H235Z" />
<glyph unicode="," glyph-name="comma" horiz-adv-x="237" d="M61 -140Q101 -113 121 -81T141 -5L111 -15Q88 -15 72 1T56 40Q56 66 73 83T116 100Q146 100 163 82T181 30Q181 -93 71 -155L61 -140Z" />
<glyph unicode="-" glyph-name="hyphen" horiz-adv-x="387" d="M66 230V300H321V230H66Z" />
<glyph unicode="." glyph-name="period" horiz-adv-x="220" d="M88 -14T72 2T56 41Q56 63 72 79T110 95Q133 95 148 79T164 41Q164 18 148 2T110 -14Q88 -14 72 2Z" />
<glyph unicode="/" glyph-name="slash" horiz-adv-x="440" d="M23 0L344 660H417L96 0H23Z" />
<glyph unicode="0" glyph-name="zero" horiz-adv-x="584" d="M52 -20T52 330Q52 680 292 680Q532 680 532 330Q532 -20 292 -20Q52 -20 52 330ZM346 20T376 53T419 153T432 330Q432 439 420 506T377 607T292 640Q238 640 208 607T165 507T152 330Q152 221 164
154T207 53T292 20Q346 20 376 53Z" />
<glyph unicode="1" glyph-name="one" horiz-adv-x="305" d="M129 0V560L32 497L14 520L169 660H219V0H129Z" />
<glyph unicode="2" glyph-name="two" horiz-adv-x="530" d="M41 50Q94 101 122 127Q221 222 267 272T339 375T366 490Q366 562 329 601T236 640Q175 640 131 596T71 470H51Q51 520 55 549T75 600Q103 634 155 657T266 680Q345 680 405 639T466 490Q466 427 437
372T361 270T229 147Q141 68 111 40H336Q397 40 429 66T461 145H481V80Q481 0 396 0H41V50Z" />
<glyph unicode="3" glyph-name="three" horiz-adv-x="530" d="M194 -20T140 7T40 87L56 105Q95 62 140 41T241 20Q306 20 348 61T391 185Q391 235 372 270T323 322T261 340Q219 340 199 337T141 325L115 367L386 620H201Q140 620 108 594T76 515H56V580Q56 660
141 660H459V620L191 370Q230 380 281 380Q321 380 369 364T454 304T491 185Q491 105 454 59T365 -3T266 -20Q194 -20 140 7Z" />
<glyph unicode="4" glyph-name="four" horiz-adv-x="546" d="M338 0V170H18V210L348 660H428V210H518V170H428V0H338ZM78 210H338V564L78 210Z" />
<glyph unicode="5" glyph-name="five" horiz-adv-x="530" d="M186 -20T136 6T42 85L61 102Q99 60 143 40T242 20Q307 20 349 61T392 185Q392 262 351 301T232 340Q187 340 147 335L107 330L67 370L77 660H452V620H159L150 375L182 377Q239 380 252 380Q348 380
420 337T492 185Q492 106 454 61T362 -2T257 -20Q186 -20 136 6Z" />
<glyph unicode="6" glyph-name="six" horiz-adv-x="537" d="M164 -20T108 67T52 330Q52 505 113 592T302 680Q377 680 457 650L452 630Q390 640 322 640Q234 640 191 573T147 385Q177 406 212 418T297 430Q399 430 448 371T497 205Q497 145 473 94T400 12T282
-20Q164 -20 108 67ZM337 20T369 75T402 205Q402 390 267 390Q231 390 203 378T147 340Q147 175 183 98T282 20Q337 20 369 75Z" />
<glyph unicode="7" glyph-name="seven" horiz-adv-x="474" d="M371 620H171Q110 620 78 594T46 515H26V580Q26 660 111 660H461V620L211 0H121L371 620Z" />
<glyph unicode="8" glyph-name="eight" horiz-adv-x="554" d="M177 -20T112 22T47 150Q47 218 90 260T207 335Q142 373 107 411T72 510Q72 601 128 640T277 680Q368 680 425 642T482 520Q482 465 447 424T357 355Q405 326 435 302T486 243T507 160Q507 68 443
24T277 -20Q177 -20 112 22ZM348 406T367 437T387 520Q387 585 355 612T277 640Q232 640 200 614T167 530Q167 448 312 380Q348 406 367 437ZM333 20T372 51T412 140Q412 180 391 211T338 264T252 315Q200 289 171 253T142 150Q142 86 181 53T277 20Q333 20 372
51Z" />
<glyph unicode="9" glyph-name="nine" horiz-adv-x="536" d="M159 -20T79 10L84 30Q146 20 214 20Q302 20 345 87T389 275Q359 254 324 242T239 230Q137 230 88 289T39 455Q39 515 63 566T136 648T254 680Q372 680 428 593T484 330Q484 155 423 68T234 -20Q159
-20 79 10ZM305 270T333 282T389 320Q389 485 353 562T254 640Q199 640 167 585T134 455Q134 270 269 270Q305 270 333 282Z" />
<glyph unicode=":" glyph-name="colon" horiz-adv-x="241" d="M99 353T83 368T67 407Q67 429 83 445T121 461Q144 461 159 445T175 407Q175 384 160 369T121 353Q99 353 83 368ZM98 -14T82 2T66 41Q66 63 82 79T120 95Q143 95 159 79T175 41Q175 18 159 2T120
-14Q98 -14 82 2Z" />
<glyph unicode=";" glyph-name="semicolon" horiz-adv-x="258" d="M108 354T92 369T76 408Q76 430 92 445T131 461Q153 461 169 446T185 408Q185 385 169 370T131 354Q108 354 92 369ZM70 -140Q112 -107 131 -77T151 0Q136 -15 116 -15Q93 -15 80 0T66 40Q66 63
84 81T131 100Q158 100 174 79T191 20Q191 -33 166 -73T81 -154L70 -140Z" />
<glyph unicode="&lt;" glyph-name="less" horiz-adv-x="618" d="M550 95L30 320V350L550 575V515L133 335L550 155V95Z" />
<glyph unicode="=" glyph-name="equal" horiz-adv-x="657" d="M66 390V450H591V390H66ZM66 210V270H591V210H66Z" />
<glyph unicode="&gt;" glyph-name="greater" horiz-adv-x="618" d="M68 95V155L485 335L68 515V575L588 350V320L68 95Z" />
<glyph unicode="?" glyph-name="question" horiz-adv-x="478" d="M207 212T225 249T279 331Q313 374 329 407T346 490Q346 562 309 601T216 640Q154 640 110 596T50 470H30Q30 520 34 549T55 600Q83 634 135 657T246 680Q325 680 385 639T446 490Q446 448 431
415T395 358T338 300Q293 260 270 229T246 156H206Q207 212 225 249ZM203 -13T188 3T172 41Q172 64 187 80T226 96Q249 96 265 80T281 41Q281 19 265 3T226 -13Q203 -13 188 3Z" />
<glyph unicode="@" glyph-name="at" horiz-adv-x="856" d="M314 -180T226 -131T89 16T40 250Q40 387 89 484T226 630T430 680Q545 680 633 632T771 491T820 270Q820 146 772 76T625 5Q544 5 520 60H515Q497 37 462 21T375 5Q343 5 310 18T254 63T230 145Q230 221
300 253T485 285H515Q515 382 488 418T410 455Q365 455 338 436T300 370H255Q255 404 259 423T280 460Q298 478 339 486T430 495Q511 495 558 452T605 285V105Q605 80 617 63T655 45Q688 45 716 72T762 151T780 270Q780 388 737 471T615 597T430 640Q323 640 245
596T123 465T80 250Q80 123 123 36T244 -96T430 -140Q527 -140 603 -119T740 -55L760 -85Q624 -180 430 -180Q314 -180 226 -131ZM453 50T475 66T515 110V245H485Q411 245 368 218T325 145Q325 99 352 75T420 50Q453 50 475 66Z" />
<glyph unicode="A" glyph-name="A" horiz-adv-x="635" d="M574 -5T527 21T452 125L427 190H147L67 0H22L302 660H332L552 125Q577 67 599 46T662 20V0Q644 -5 622 -5Q574 -5 527 21ZM162 230H407L287 520L162 230Z" />
<glyph unicode="B" glyph-name="B" horiz-adv-x="622" d="M106 540Q106 591 92 615T36 640H16V660H276Q385 660 465 624T546 485Q546 438 514 400T416 340Q508 325 544 286T581 180Q581 79 502 40T306 0H106V540ZM291 355Q332 355 368 370T428 416T451 490Q451
535 424 565T356 610T271 625Q236 625 196 615V355H291ZM382 35T431 71T481 175Q481 243 433 279T291 315H196V49Q244 35 291 35Q382 35 431 71Z" />
<glyph unicode="C" glyph-name="C" horiz-adv-x="665" d="M261 -20T191 25T82 147T44 320Q44 418 85 501T198 632T354 680Q434 680 494 658T584 600Q601 579 605 545T609 450H589Q570 547 519 593T384 640Q276 640 210 564T144 320Q144 241 169 173T249 63T384
20Q457 20 511 55T609 160L629 145Q583 55 516 18T354 -20Q261 -20 191 25Z" />
<glyph unicode="D" glyph-name="D" horiz-adv-x="715" d="M106 540Q106 591 92 615T36 640H16V660H278Q472 660 571 574T671 334Q671 235 629 160T505 42T304 0H106V540ZM375 35T434 71T528 174T562 330Q562 417 529 484T435 588T299 625Q251 625 199 609V48Q255
35 301 35Q375 35 434 71Z" />
<glyph unicode="E" glyph-name="E" horiz-adv-x="590" d="M106 540Q106 591 92 615T36 640H16V660H442Q527 660 527 580V505H507Q507 620 382 620H196V360H466V320H196V40H371Q440 40 479 65T541 150L561 145L526 50Q508 0 451 0H106V540Z" />
<glyph unicode="F" glyph-name="F" horiz-adv-x="527" d="M106 540Q106 591 92 615T36 640H16V660H415Q500 660 500 580V505H480Q480 620 355 620H196V355H422V315H196V0H106V540Z" />
<glyph unicode="G" glyph-name="G" horiz-adv-x="720" d="M286 -20T209 28T88 158T44 340Q44 435 82 512T190 635T354 680Q440 680 502 658T594 600Q610 580 614 547T619 465H599Q580 553 527 596T384 640Q303 640 249 598T170 487T144 340Q144 171 210 96T384
20Q435 20 471 29T539 55V229Q539 263 550 288T597 329T704 346V326Q659 326 644 303T629 231V43Q575 10 516 -5T384 -20Q286 -20 209 28Z" />
<glyph unicode="H" glyph-name="H" horiz-adv-x="693" d="M106 540Q106 591 92 615T36 640H16V660H106Q143 660 161 651T188 616T196 540V360H496V660H586V120Q586 69 600 45T656 20H676V0H586Q549 0 531 9T504 44T496 120V320H196V0H106V540Z" />
<glyph unicode="I" glyph-name="I" horiz-adv-x="285" d="M142 0T124 9T97 44T89 120V660H179V120Q179 69 193 45T249 20H269V0H179Q142 0 124 9Z" />
<glyph unicode="J" glyph-name="J" horiz-adv-x="261" d="M-9 -117Q39 -117 62 -66T86 78V660H176V78Q176 0 160 -46T103 -115T-9 -137V-117Z" />
<glyph unicode="K" glyph-name="K" horiz-adv-x="677" d="M574 -10T523 15T406 110L196 330V0H106V540Q106 591 92 615T36 640H16V660H106Q143 660 161 651T188 616T196 540V345L406 555L426 576Q454 605 473 621T518 649T576 660H626V635Q584 635 553 621T481
565L286 370L516 130Q560 85 605 55T686 19V0Q656 -10 621 -10Q574 -10 523 15Z" />
<glyph unicode="L" glyph-name="L" horiz-adv-x="558" d="M106 540Q106 591 92 615T36 640H16V660H106Q143 660 161 651T188 616T196 540V40H551V0H106V540Z" />
<glyph unicode="M" glyph-name="M" horiz-adv-x="855" d="M769 -45T729 -23T673 45T656 170V555L406 0H386L126 565V0H86V660H181L421 140L656 660H746V170Q746 77 769 26T841 -25V-45Q769 -45 729 -23Z" />
<glyph unicode="N" glyph-name="N" horiz-adv-x="685" d="M150 525V0H110V540Q110 588 90 614T20 640H10V660H75Q121 660 153 645T210 600L560 165V660H600V-10H580L150 525Z" />
<glyph unicode="O" glyph-name="O" horiz-adv-x="712" d="M263 -20T193 26T84 152T46 330Q46 428 84 508T192 634T356 680Q449 680 519 634T628 508T666 330Q666 232 628 152T520 26T356 -20Q263 -20 193 26ZM421 20T468 58T541 165T566 330Q566 425 541 494T469
602T356 640Q291 640 244 602T171 495T146 330Q146 235 171 166T243 58T356 20Q421 20 468 58Z" />
<glyph unicode="P" glyph-name="P" horiz-adv-x="552" d="M106 540Q106 591 92 615T36 640H16V660H276Q372 660 449 619T526 460Q526 382 486 340T397 284T306 270H196V0H106V540ZM303 305T339 321T400 374T426 465Q426 520 401 556T339 608T271 625Q236 625 196
615V315Q236 305 271 305Q303 305 339 321Z" />
<glyph unicode="Q" glyph-name="Q" horiz-adv-x="714" d="M558 -205T456 -160T267 -7Q165 23 106 115T47 330Q47 428 85 508T193 634T357 680Q450 680 520 634T629 508T667 330Q667 204 606 112T439 -9Q454 -57 494 -97T584 -161T677 -185V-205Q558 -205 456 -160ZM422
20T469 58T542 165T567 330Q567 425 542 494T470 602T357 640Q292 640 245 602T172 495T147 330Q147 235 172 166T244 58T357 20Q422 20 469 58Z" />
<glyph unicode="R" glyph-name="R" horiz-adv-x="595" d="M493 -10T454 21T366 135L266 305H196V0H106V540Q106 591 92 615T36 640H16V660H276Q371 660 448 623T526 480Q526 347 366 310L471 135Q508 73 537 49T606 20V0Q597 -4 581 -7T546 -10Q493 -10 454 21ZM302
340T338 355T400 402T426 480Q426 529 401 561T339 609T271 625Q236 625 196 615V350Q236 340 271 340Q302 340 338 355Z" />
<glyph unicode="S" glyph-name="S" horiz-adv-x="533" d="M227 -17T174 -2T88 41T54 105V212H72Q89 112 138 68T273 23Q327 23 365 50T404 125Q404 167 378 198T294 263L171 336Q107 374 81 413T54 508Q54 585 107 631T248 678Q299 678 349 664T431 622T464 558V451H446Q429
551 382 594T248 638Q202 638 167 610T132 537Q132 496 157 469T243 406L366 333Q434 292 462 257T490 168Q490 84 434 34T282 -17Q227 -17 174 -2Z" />
<glyph unicode="T" glyph-name="T" horiz-adv-x="583" d="M256 620H166Q41 620 41 505H21V580Q21 660 106 660H571V620H346V0H256V620Z" />
<glyph unicode="U" glyph-name="U" horiz-adv-x="687" d="M258 -10T202 22T123 119T99 285V540Q99 591 85 615T29 640H9V660H99Q136 660 154 651T181 616T189 540V255Q189 144 230 87T366 30Q442 30 486 57T550 139T569 285V660H609V285Q609 181 587 118T510 22T354
-10Q258 -10 202 22Z" />
<glyph unicode="V" glyph-name="V" horiz-adv-x="640" d="M81 543Q56 601 34 622T-29 648V668Q-24 668 -15 669T5 670Q55 670 101 645T179 543L350 140L409 277Q451 374 570 660H618L331 -10H313L81 543Z" />
<glyph unicode="W" glyph-name="W" horiz-adv-x="866" d="M78 543Q58 601 36 622T-32 648V668Q-27 668 -18 669T2 670Q57 670 101 645T173 543L307 157L414 474L390 543Q370 601 348 622T280 648V668Q285 668 294 669T314 670Q369 670 413 645T485 543L619 157L790
660H833L604 -10H584L436 411L292 -10H272L78 543Z" />
<glyph unicode="X" glyph-name="X" horiz-adv-x="667" d="M291 325L151 530Q127 565 109 585T62 622T-9 640V660H111Q155 660 185 632T251 550L351 400L551 660H601L376 365L536 130Q567 84 602 54T681 20V0H576Q533 0 500 30T436 110L316 290L91 0H41L291 325Z" />
<glyph unicode="Y" glyph-name="Y" horiz-adv-x="628" d="M290 273L120 530Q94 567 76 588T34 623T-25 640V660H65Q115 660 149 631T215 550L360 325L569 660H614L380 280V0H290V273Z" />
<glyph unicode="Z" glyph-name="Z" horiz-adv-x="591" d="M24 20L439 620H199Q74 620 74 505H54V580Q54 660 139 660H574L149 40H559V0H24V20Z" />
<glyph unicode="[" glyph-name="bracketleft" horiz-adv-x="316" d="M75 -200V680H290V640H155V-160H290V-200H75Z" />
<glyph unicode="\" glyph-name="backslash" horiz-adv-x="440" d="M344 0L23 660H96L417 0H344Z" />
<glyph unicode="]" glyph-name="bracketright" horiz-adv-x="316" d="M26 -200V-160H161V640H26V680H241V-200H26Z" />
<glyph unicode="^" glyph-name="asciicircum" horiz-adv-x="490" d="M20 330L235 680H255L470 330H403L245 587L87 330H20Z" />
<glyph unicode="_" glyph-name="underscore" horiz-adv-x="432" d="M16 -60V0H416V-60H16Z" />
<glyph unicode="`" glyph-name="grave" horiz-adv-x="200" d="M130 480L20 680H120L180 480H130Z" />
<glyph unicode="a" glyph-name="a" horiz-adv-x="481" d="M152 -10T119 3T63 48T39 130Q39 206 109 238T294 270H324Q324 368 297 404T219 440Q174 440 147 421T109 355H64Q64 389 68 408T89 445Q107 463 148 471T239 480Q320 480 367 437T414 270V0H364L329 45H324Q306
22 271 6T184 -10Q152 -10 119 3ZM262 35T284 51T324 95V230H294Q220 230 177 203T134 130Q134 84 161 60T229 35Q262 35 284 51Z" />
<glyph unicode="b" glyph-name="b" horiz-adv-x="523" d="M246 -10T213 6T162 45H157L122 0H72V540Q72 591 58 615T2 640H-18V660H72Q109 660 127 651T154 616T162 540V450Q191 464 220 472T287 480Q380 480 428 411T477 235Q477 129 430 60T297 -10Q246 -10 213
6ZM324 30T353 86T382 235Q382 328 352 384T257 440Q236 440 214 432T162 410V90Q180 63 204 47T267 30Q324 30 353 86Z" />
<glyph unicode="c" glyph-name="c" horiz-adv-x="483" d="M193 -10T144 22T70 110T45 235Q45 304 69 359T143 447T265 480Q375 480 410 445Q427 428 431 404T435 315H415Q411 377 376 408T285 440Q213 440 177 383T140 235Q140 144 176 87T285 30Q336 30 369 49T430
110L450 95Q417 39 372 15T265 -10Q193 -10 144 22Z" />
<glyph unicode="d" glyph-name="d" horiz-adv-x="524" d="M140 -10T94 59T47 235Q47 342 95 411T237 480Q275 480 304 472T362 450V540Q362 591 348 615T292 640H272V660H362Q399 660 417 651T444 616T452 540V0H402L367 45H362Q340 20 311 5T227 -10Q140 -10
94 59ZM298 30T319 45T362 90V410Q332 424 310 432T267 440Q203 440 173 384T142 235Q142 143 171 87T257 30Q298 30 319 45Z" />
<glyph unicode="e" glyph-name="e" horiz-adv-x="488" d="M187 -10T140 22T69 110T45 235Q45 303 69 359T138 447T245 480Q346 480 395 424T445 260L443 220H140Q140 136 176 83T275 30Q322 30 354 50T415 110L435 95Q402 40 358 15T255 -10Q187 -10 140 22ZM350
260Q350 348 324 394T245 440Q215 440 191 417T154 352T140 260H350Z" />
<glyph unicode="f" glyph-name="f" horiz-adv-x="337" d="M91 430H21V470H91V500Q91 670 266 670Q329 670 351 655Q368 642 386 610L356 585Q326 630 261 630Q181 630 181 500V470H321V430H181V0H91V430Z" />
<glyph unicode="g" glyph-name="g" horiz-adv-x="492" d="M145 -200T86 -163T26 -45Q26 1 57 35T136 85Q96 107 96 145Q96 165 105 176T131 200Q99 216 78 250T56 330Q56 480 246 480H431V455L366 445V440Q397 424 416 396T436 330Q436 180 246 180Q141 180 141
145Q141 110 246 110Q343 110 404 72T466 -45Q466 -126 407 -163T246 -200Q145 -200 86 -163ZM291 215T318 242T346 330Q346 387 319 416T246 445Q201 445 174 418T146 330Q146 270 173 243T246 215Q291 215 318 242ZM306 -160T341 -132T376 -45Q376 55 256 70L201
75Q160 59 138 30T116 -45Q116 -103 151 -131T246 -160Q306 -160 341 -132Z" />
<glyph unicode="h" glyph-name="h" horiz-adv-x="529" d="M72 540Q72 591 58 615T2 640H-18V660H72Q109 660 127 651T154 616T162 540V430Q183 451 216 465T292 480Q367 480 414 440T462 300V0H372V300Q372 370 341 402T262 435Q209 435 162 382V0H72V540Z" />
<glyph unicode="i" glyph-name="i" horiz-adv-x="246" d="M102 530T86 549T69 594Q69 615 81 627T115 639Q138 639 154 620T171 575Q171 554 159 542T125 530Q102 530 86 549ZM87 350Q87 401 73 425T17 450H-3V470H87Q124 470 142 461T169 426T177 350V0H87V350Z" />
<glyph unicode="j" glyph-name="j" horiz-adv-x="246" d="M102 530T86 549T69 594Q69 615 81 627T115 639Q138 639 154 620T171 575Q171 554 159 542T125 530Q102 530 86 549ZM-8 -170Q40 -170 63 -119T87 25V350Q87 401 73 425T17 450H-3V470H87Q124 470 142
461T169 426T177 350V25Q177 -53 161 -99T104 -168T-8 -190V-170Z" />
<glyph unicode="k" glyph-name="k" horiz-adv-x="485" d="M342 -10T282 70L162 230V0H72V540Q72 591 58 615T2 640H-18V660H72Q109 660 127 651T154 616T162 540V245L287 405Q313 437 342 453T417 470H447V445Q420 445 395 434T352 400L242 260L367 100Q396 62
421 43T477 19V0Q455 -10 427 -10Q342 -10 282 70Z" />
<glyph unicode="l" glyph-name="l" horiz-adv-x="242" d="M76 540Q76 591 62 615T6 640H-14V660H76Q113 660 131 651T158 616T166 540V0H76V540Z" />
<glyph unicode="m" glyph-name="m" horiz-adv-x="785" d="M87 350Q87 401 73 425T17 450H-3V470H87Q124 470 143 460T172 430H177Q198 451 231 465T307 480Q349 480 379 465T427 410Q453 443 493 461T577 480Q641 480 679 440T717 300V0H627V300Q627 372 607 403T547
435Q519 435 488 415T442 370Q447 355 447 300V0H357V300Q357 372 337 403T277 435Q224 435 177 382V0H87V350Z" />
<glyph unicode="n" glyph-name="n" horiz-adv-x="544" d="M87 350Q87 401 73 425T17 450H-3V470H87Q124 470 143 460T172 430H177Q198 451 231 465T307 480Q382 480 429 440T477 300V0H387V300Q387 370 356 402T277 435Q224 435 177 382V0H87V350Z" />
<glyph unicode="o" glyph-name="o" horiz-adv-x="530" d="M197 -10T147 22T71 111T45 235Q45 303 71 359T147 447T265 480Q333 480 383 448T459 359T485 235Q485 167 459 111T383 23T265 -10Q197 -10 147 22ZM302 30T330 57T374 131T390 235Q390 292 375 339T331
413T265 440Q228 440 200 413T156 339T140 235Q140 178 155 131T199 57T265 30Q302 30 330 57Z" />
<glyph unicode="p" glyph-name="p" horiz-adv-x="538" d="M87 350Q87 401 73 425T17 450H-3V470H87Q125 470 144 460T172 425H177Q195 448 228 464T312 480Q398 480 445 411T492 235Q492 128 444 59T302 -10Q264 -10 235 -2T177 20V-190H87V350ZM336 30T366 86T397
235Q397 327 368 383T282 440Q215 440 177 380V60Q207 46 229 38T272 30Q336 30 366 86Z" />
<glyph unicode="q" glyph-name="q" horiz-adv-x="524" d="M362 20Q333 6 304 -2T237 -10Q144 -10 96 59T47 235Q47 342 93 411T227 480Q278 480 311 464T362 425H367L402 470H452V-190H362V20ZM288 30T310 38T362 60V380Q341 408 318 424T257 440Q200 440 171
384T142 235Q142 142 172 86T267 30Q288 30 310 38Z" />
<glyph unicode="r" glyph-name="r" horiz-adv-x="397" d="M80 350Q80 401 66 425T10 450H0V470H80Q118 470 137 460T165 425H170Q188 448 218 464T290 480Q330 480 350 465Q367 452 385 420L345 390Q334 405 313 412T265 420Q235 420 210 407T170 370V0H80V350Z" />
<glyph unicode="s" glyph-name="s" horiz-adv-x="446" d="M114 -10T74 30Q57 47 53 68T49 135H69Q78 85 112 58T209 30Q264 30 291 49T319 100Q319 129 298 150T229 190L169 215Q109 239 79 271T49 350Q49 411 95 445T214 480Q324 480 364 440Q381 423 385 402T389
335H369Q361 385 327 412T234 440Q187 440 161 421T134 370Q134 318 214 285L274 260Q342 232 373 201T404 120Q404 59 355 25T229 -10Q114 -10 74 30Z" />
<glyph unicode="t" glyph-name="t" horiz-adv-x="338" d="M155 -10T123 22T91 120V430H21V470H91V560L141 620H181V470H301V430H181V120Q181 30 251 30Q275 30 291 35T326 50L336 30Q313 13 285 2T211 -10Q155 -10 123 22Z" />
<glyph unicode="u" glyph-name="u" horiz-adv-x="535" d="M168 -10T121 30T73 170V350Q73 401 59 425T3 450H-7V470H73Q110 470 128 461T155 426T163 350V170Q163 100 194 68T273 35Q326 35 373 88V470H463V0H413L378 40H373Q352 19 319 5T243 -10Q168 -10 121 30Z" />
<glyph unicode="v" glyph-name="v" horiz-adv-x="497" d="M99 355Q75 411 53 433T-5 458V478Q0 478 9 479T29 480Q82 480 125 454T199 355L289 140L429 470H479L274 -10H254L99 355Z" />
<glyph unicode="w" glyph-name="w" horiz-adv-x="749" d="M100 355Q77 411 55 433T-5 458V478Q0 478 10 479T30 480Q84 480 125 453T195 355L280 145L365 360Q341 413 320 434T265 458V478Q270 478 280 479T300 480Q354 480 395 453T465 355L550 145L680 470H730L535
-10H515L390 300L265 -10H245L100 355Z" />
<glyph unicode="x" glyph-name="x" horiz-adv-x="488" d="M198 225L111 370Q69 443 8 450V470H93Q126 470 155 449T206 390L268 285L398 470H448L288 245L375 100Q416 28 483 20V0H393Q360 0 331 21T280 80L218 185L88 0H38L198 225Z" />
<glyph unicode="y" glyph-name="y" horiz-adv-x="514" d="M105 -170Q154 -170 185 -148T240 -65L260 -10L100 380Q72 452 -10 460V480H75Q162 480 195 400L309 123L435 470H485L290 -65Q261 -144 226 -172T135 -200H105V-170Z" />
<glyph unicode="z" glyph-name="z" horiz-adv-x="466" d="M44 19L304 430H189Q127 430 96 407T64 340H44V390Q44 470 129 470H434L164 40H434V0H44V19Z" />
<glyph unicode="{" glyph-name="braceleft" horiz-adv-x="304" d="M188 -189T150 -145T111 -30V110Q111 156 88 186T11 225V255Q64 263 87 293T111 370V510Q111 579 149 623T276 690V660Q226 645 209 621T191 550V380Q191 321 166 288T86 240Q140 225 165 192T191
100V-70Q191 -117 208 -141T276 -180V-210Q188 -189 150 -145Z" />
<glyph unicode="|" glyph-name="bar" horiz-adv-x="240" d="M75 -190V680H165V-190H75Z" />
<glyph unicode="}" glyph-name="braceright" horiz-adv-x="304" d="M28 -180Q78 -166 95 -142T113 -70V100Q113 159 138 192T218 240Q164 255 139 288T113 380V550Q113 597 96 621T28 660V690Q116 667 154 623T193 510V370Q193 324 216 294T293 255V225Q240 217
217 187T193 110V-30Q193 -100 155 -144T28 -210V-180Z" />
<glyph unicode="~" glyph-name="asciitilde" horiz-adv-x="629" d="M415 180T381 191T300 223Q259 242 232 251T180 260Q143 260 122 241T100 190H60Q60 260 95 295T180 330Q215 330 249 319T330 287Q371 268 398 259T450 250Q487 250 508 269T530 320H570Q570
250 535 215T450 180Q415 180 381 191Z" />
<glyph unicode="&#xa0;" glyph-name="uni00A0" horiz-adv-x="250" />
<glyph unicode="&#xa1;" glyph-name="exclamdown" horiz-adv-x="220" d="M88 372T72 387T56 425Q56 448 72 464T110 480Q132 480 148 464T164 425Q164 403 148 388T110 372Q88 372 72 387ZM63 -194L81 311H139L157 -194H63Z" />
<glyph unicode="&#xa2;" glyph-name="cent" horiz-adv-x="483" d="M240 -10Q143 -2 92 65T40 235Q40 337 91 404T240 480V520H280V480Q323 480 355 471T405 445Q422 428 426 404T430 315H410Q406 377 371 408T280 440V30Q331 30 364 49T425 110L445 95Q415 44
375 19T280 -10V-50H240V-10ZM240 435Q189 419 162 366T135 235Q135 158 162 104T240 35V435Z" />
<glyph unicode="&#xa3;" glyph-name="sterling" horiz-adv-x="528" d="M32 25Q75 38 96 82T117 220V320H47V360H117V460Q117 583 164 626T292 670Q341 670 382 662T442 635Q459 618 463 599T467 545H422Q411 592 384 611T312 630Q261 630 234 594T207 460V360H347V320H207V220Q207
150 193 107T152 40H337Q462 40 462 155H482V80Q482 0 397 0H32V25Z" />
<glyph unicode="&#xa4;" glyph-name="currency" horiz-adv-x="576" d="M124 200H64V240H124V290H64V330H124V540Q124 591 110 615T54 640H34V660H294Q403 660 473 618T544 480Q544 380 474 335T294 290H214V240H474V200H214V0H124V200ZM294 330Q361 332 402 369T444
480Q444 551 400 588T289 625Q254 625 214 615V330H294Z" />
<glyph unicode="&#xa5;" glyph-name="yen" horiz-adv-x="687" d="M339 145H244V185H339V225H244V265H339V273L169 530Q143 567 125 588T83 623T24 640V660H114Q164 660 198 631T264 550L409 325L618 660H663L429 280V265H524V225H429V185H524V145H429V0H339V145Z" />
<glyph unicode="&#xa6;" glyph-name="brokenbar" horiz-adv-x="246" d="M78 330V680H168V330H78ZM78 -190V160H168V-190H78Z" />
<glyph unicode="&#xa7;" glyph-name="section" horiz-adv-x="432" d="M169 -200T135 -190T81 -160Q64 -143 60 -122T56 -55H76Q84 -104 111 -132T181 -160Q227 -160 254 -137T281 -70Q281 -38 266 -14T229 27T170 69Q131 94 108 113T68 160T51 225Q51 330 156
370Q66 428 66 520Q66 595 109 632T221 670Q263 670 297 660T351 630Q368 613 372 592T376 525H356Q348 574 321 602T251 630Q205 630 178 607T151 540Q151 508 166 484T203 443T262 401Q301 376 324 357T364 310T381 245Q381 189 354 155T275 100Q318 71 342 35T366
-50Q366 -125 323 -162T211 -200Q169 -200 135 -190ZM269 133T287 154T306 215Q306 255 278 286T195 347Q163 337 145 316T126 255Q126 215 154 184T237 123Q269 133 287 154Z" />
<glyph unicode="&#xa8;" glyph-name="dieresis" horiz-adv-x="310" d="M47 690T34 703T20 740Q20 763 33 776T70 790Q93 790 106 777T120 740Q120 717 107 704T70 690Q47 690 34 703ZM217 690T204 703T190 740Q190 763 203 776T240 790Q263 790 276 777T290 740Q290
717 277 704T240 690Q217 690 204 703Z" />
<glyph unicode="&#xa9;" glyph-name="copyright" horiz-adv-x="790" d="M294 -25T213 21T86 148T40 330Q40 431 86 512T213 639T395 685Q496 685 577 639T704 512T750 330Q750 229 704 148T577 21T395 -25Q294 -25 213 21ZM486 15T558 55T670 167T710 330Q710
421 670 493T558 605T395 645Q304 645 232 605T120 493T80 330Q80 239 120 167T232 55T395 15Q486 15 558 55ZM335 105T290 134T220 213T195 327Q195 391 222 445T295 530T395 562Q446 562 486 547T544 510Q555 497 558 474T561 412H548Q525 536 415 536Q345 536
302 487T259 327Q259 246 298 189T415 132Q463 132 498 154T561 223L574 213Q543 154 500 130T395 105Q335 105 290 134Z" />
<glyph unicode="&#xaa;" glyph-name="ordfeminine" horiz-adv-x="321" d="M99 396T75 411T51 466Q51 508 90 527T189 547H205Q205 600 191 619T149 638Q124 638 110 628T90 593H65Q65 612 67 621T79 641Q95 660 159 660Q203 660 230 637T257 547V401H227L208 426H205Q196
413 177 405T130 396Q99 396 75 411ZM181 418T205 453V525H189Q149 525 126 509T103 466Q103 418 149 418Q181 418 205 453Z" />
<glyph unicode="&#xab;" glyph-name="guillemotleft" horiz-adv-x="372" d="M190 30L35 225L190 420H230L135 225L230 30H190ZM275 80L175 225L275 370H315L255 225L315 80H275Z" />
<glyph unicode="&#xac;" glyph-name="logicalnot" horiz-adv-x="654" d="M528 130V230H68V290H588V130H528Z" />
<glyph unicode="&#xad;" glyph-name="uni00AD" horiz-adv-x="387" d="M66 230V300H321V230H66Z" />
<glyph unicode="&#xae;" glyph-name="registered" horiz-adv-x="790" d="M294 -25T213 21T86 148T40 330Q40 431 86 512T213 639T395 685Q496 685 577 639T704 512T750 330Q750 229 704 148T577 21T395 -25Q294 -25 213 21ZM486 15T558 55T670 167T710 330Q710
421 670 493T558 605T395 645Q304 645 232 605T120 493T80 330Q80 239 120 167T232 55T395 15Q486 15 558 55ZM522 118T499 138T442 211L375 323H327V125H269V474Q269 507 260 523T224 539H211V552H379Q440 552 490 528T541 434Q541 385 511 360T438 327L510 211Q535
171 553 156T595 137V125Q585 118 553 118Q522 118 499 138ZM396 345T419 355T459 386T476 438Q476 469 460 490T420 520T376 530Q357 530 327 523V352Q357 345 376 345Q396 345 419 355Z" />
<glyph unicode="&#xaf;" glyph-name="overscore" horiz-adv-x="455" d="M100 560V620H355V560H100Z" />
<glyph unicode="&#xb0;" glyph-name="degree" horiz-adv-x="412" d="M162 360T125 381T67 439T46 520Q46 564 67 601T125 659T206 680Q250 680 287 659T345 601T366 520Q366 476 345 439T287 381T206 360Q162 360 125 381ZM248 415T277 445T306 520Q306 565 277
595T206 625Q164 625 135 595T106 520Q106 475 135 445T206 415Q248 415 277 445Z" />
<glyph unicode="&#xb1;" glyph-name="plusminus" horiz-adv-x="574" d="M57 60V120H257V300H57V360H257V560H317V360H517V300H317V120H517V60H57Z" />
<glyph unicode="&#xb2;" glyph-name="uni00B2" horiz-adv-x="321" d="M61 400L88 426Q136 472 158 497T192 547T205 602Q205 635 190 651T150 667Q121 667 103 649T77 593H65Q65 616 67 629T76 653Q89 669 113 679T163 689Q200 689 228 671T257 602Q257 561 233
529T154 448Q120 418 101 399H192Q221 399 235 409T249 443H261V413Q261 377 222 377H61V400Z" />
<glyph unicode="&#xb3;" glyph-name="uni00B3" horiz-adv-x="311" d="M118 367T96 379T53 416L63 425Q96 389 147 389Q175 389 193 408T211 462Q211 495 194 512T153 529Q123 529 100 523L86 547L209 658H125Q97 658 83 648T68 613H59V643Q59 680 98 680H249V662L121
547Q137 551 162 551Q200 551 231 530T263 462Q263 409 228 388T151 367Q118 367 96 379Z" />
<glyph unicode="&#xb4;" glyph-name="acute" horiz-adv-x="175" d="M20 700L60 830H155L60 700H20Z" />
<glyph unicode="&#xb5;" glyph-name="uni00B5" horiz-adv-x="529" d="M74 470H164V235Q164 143 193 87T279 30Q317 30 341 46T384 90V470H474V0H424L389 45H384Q360 19 336 5T269 -10Q209 -10 164 35V-190H74V470Z" />
<glyph unicode="&#xb6;" glyph-name="paragraph" horiz-adv-x="601" d="M258 290Q192 290 140 312T58 376T28 475Q28 532 58 573T140 637T258 660H558V620H503V-190H413V620H348V-190H258V290Z" />
<glyph unicode="&#xb7;" glyph-name="middot" horiz-adv-x="230" d="M93 276T77 292T61 331Q61 353 77 369T115 385Q138 385 153 369T169 331Q169 308 153 292T115 276Q93 276 77 292Z" />
<glyph unicode="&#xb8;" glyph-name="cedilla" horiz-adv-x="180" d="M40 -155H90Q130 -155 130 -123Q130 -90 90 -90H45V0H90V-50H100Q135 -50 157 -69T180 -123Q180 -157 158 -176T100 -196H40V-155Z" />
<glyph unicode="&#xb9;" glyph-name="uni00B9" horiz-adv-x="212" d="M90 377V624L49 600L38 616L103 680H142V377H90Z" />
<glyph unicode="&#xba;" glyph-name="ordmasculine" horiz-adv-x="335" d="M109 367T81 410T52 528Q52 604 80 646T167 689Q225 689 254 646T283 528Q283 453 254 410T167 367Q109 367 81 410ZM199 389T215 422T231 528Q231 667 167 667Q104 667 104 528Q104 389
167 389Q199 389 215 422Z" />
<glyph unicode="&#xbb;" glyph-name="guillemotright" horiz-adv-x="372" d="M142 30L237 225L142 420H182L337 225L182 30H142ZM57 80L117 225L57 370H97L197 225L97 80H57Z" />
<glyph unicode="&#xbc;" glyph-name="onequarter" horiz-adv-x="596" d="M106 377V624L65 600L54 616L119 680H158V377H106ZM29 0L484 660H549L94 0H29ZM460 0V78H308V97L465 304H512V100H553V78H512V0H460ZM342 100H460V255L342 100Z" />
<glyph unicode="&#xbd;" glyph-name="onehalf" horiz-adv-x="613" d="M106 377V624L65 600L54 616L119 680H158V377H106ZM29 0L484 660H549L94 0H29ZM363 23L390 49Q438 95 460 120T494 170T507 225Q507 258 492 274T452 290Q423 290 405 272T379 216H367Q367
239 369 252T378 276Q391 292 415 302T465 312Q502 312 530 294T559 225Q559 184 535 152T456 71Q422 41 403 22H494Q523 22 537 32T551 66H563V36Q563 0 524 0H363V23Z" />
<glyph unicode="&#xbe;" glyph-name="threequarters" horiz-adv-x="614" d="M107 367T85 379T42 416L52 425Q85 389 136 389Q164 389 182 408T200 462Q200 495 183 512T142 529Q112 529 89 523L75 547L198 658H114Q86 658 72 648T57 613H48V643Q48 680 87 680H238V662L110
547Q126 551 151 551Q189 551 220 530T252 462Q252 409 217 388T140 367Q107 367 85 379ZM58 0L513 660H578L123 0H58ZM478 0V78H326V97L483 304H530V100H571V78H530V0H478ZM360 100H478V255L360 100Z" />
<glyph unicode="&#xbf;" glyph-name="questiondown" horiz-adv-x="473" d="M236 372T220 388T204 427Q204 449 220 465T259 481Q282 481 297 465T313 427Q313 404 298 388T259 372Q236 372 220 388ZM150 -212T90 -171T29 -22Q29 20 45 53T83 110T143 168Q191 210
214 240T239 312H279Q278 257 259 220T201 137Q165 96 147 62T129 -22Q129 -94 166 -133T259 -172Q321 -172 365 -128T425 -2H445Q445 -52 441 -81T420 -132Q392 -166 340 -189T229 -212Q150 -212 90 -171Z" />
<glyph unicode="&#xc0;" glyph-name="Agrave" horiz-adv-x="635" d="M574 -5T527 21T452 125L427 190H147L67 0H22L302 660H332L552 125Q577 67 599 46T662 20V0Q644 -5 622 -5Q574 -5 527 21ZM162 230H407L287 520L162 230ZM308 705L213 835H308L348 705H308Z" />
<glyph unicode="&#xc1;" glyph-name="Aacute" horiz-adv-x="635" d="M574 -5T527 21T452 125L427 190H147L67 0H22L302 660H332L552 125Q577 67 599 46T662 20V0Q644 -5 622 -5Q574 -5 527 21ZM162 230H407L287 520L162 230ZM302 700L342 830H437L342 700H302Z" />
<glyph unicode="&#xc2;" glyph-name="Acircumflex" horiz-adv-x="635" d="M574 -5T527 21T452 125L427 190H147L67 0H22L302 660H332L552 125Q577 67 599 46T662 20V0Q644 -5 622 -5Q574 -5 527 21ZM162 230H407L287 520L162 230ZM182 685L262 800H372L452 685H402L317
765L232 685H182Z" />
<glyph unicode="&#xc3;" glyph-name="Atilde" horiz-adv-x="635" d="M574 -5T527 21T452 125L427 190H147L67 0H22L302 660H332L552 125Q577 67 599 46T662 20V0Q644 -5 622 -5Q574 -5 527 21ZM162 230H407L287 520L162 230ZM209 752T223 773T269 795Q284 795
296 790T324 774Q327 772 337 767T356 758T374 755Q385 755 394 769T404 795H434Q434 743 420 722T374 700Q360 700 348 705T320 720Q303 730 293 735T269 740Q258 740 249 726T239 700H209Q209 752 223 773Z" />
<glyph unicode="&#xc4;" glyph-name="Adieresis" horiz-adv-x="635" d="M574 -5T527 21T452 125L427 190H147L67 0H22L302 660H332L552 125Q577 67 599 46T662 20V0Q644 -5 622 -5Q574 -5 527 21ZM162 230H407L287 520L162 230ZM209 690T196 703T182 740Q182 763
195 776T232 790Q255 790 268 777T282 740Q282 717 269 704T232 690Q209 690 196 703ZM379 690T366 703T352 740Q352 763 365 776T402 790Q425 790 438 777T452 740Q452 717 439 704T402 690Q379 690 366 703Z" />
<glyph unicode="&#xc5;" glyph-name="Aring" horiz-adv-x="636" d="M574 -5T527 21T452 125L427 190H147L67 0H22L287 625Q264 635 248 654T232 705Q232 739 257 764T317 790Q351 790 376 765T402 705Q402 674 386 655T347 625L552 125Q577 67 599 46T662 20V0Q644
-5 622 -5Q574 -5 527 21ZM337 660Q362 678 362 705Q362 728 349 741T317 755Q298 755 285 742T272 705Q272 678 297 660H337ZM162 230H407L287 520L162 230Z" />
<glyph unicode="&#xc6;" glyph-name="AE" horiz-adv-x="865" d="M356 660H717Q802 660 802 580V505H782Q782 620 657 620H471V360H741V320H471V40H646Q715 40 754 65T816 150L836 145L801 50Q783 0 726 0H381V190H141L36 0H-14L356 660ZM166 230H381V615L166 230Z" />
<glyph unicode="&#xc7;" glyph-name="Ccedilla" horiz-adv-x="665" d="M324 -155H374Q414 -155 414 -123Q414 -90 374 -90H329V-20Q243 -15 179 31T79 152T44 320Q44 418 85 501T198 632T354 680Q434 680 494 658T584 600Q601 579 605 545T609 450H589Q570 547
519 593T384 640Q276 640 210 564T144 320Q144 241 169 173T249 63T384 20Q457 20 511 55T609 160L629 145Q585 60 523 22T374 -20V-50H384Q419 -50 441 -69T464 -123Q464 -157 442 -176T384 -196H324V-155Z" />
<glyph unicode="&#xc8;" glyph-name="Egrave" horiz-adv-x="590" d="M106 540Q106 591 92 615T36 640H16V660H442Q527 660 527 580V505H507Q507 620 382 620H196V360H466V320H196V40H371Q440 40 479 65T541 150L561 145L526 50Q508 0 451 0H106V540ZM285 705L190
835H285L325 705H285Z" />
<glyph unicode="&#xc9;" glyph-name="Eacute" horiz-adv-x="590" d="M106 540Q106 591 92 615T36 640H16V660H442Q527 660 527 580V505H507Q507 620 382 620H196V360H466V320H196V40H371Q440 40 479 65T541 150L561 145L526 50Q508 0 451 0H106V540ZM276 700L316
830H411L316 700H276Z" />
<glyph unicode="&#xca;" glyph-name="Ecircumflex" horiz-adv-x="590" d="M106 540Q106 591 92 615T36 640H16V660H442Q527 660 527 580V505H507Q507 620 382 620H196V360H466V320H196V40H371Q440 40 479 65T541 150L561 145L526 50Q508 0 451 0H106V540ZM166
721L246 836H356L436 721H386L301 801L216 721H166Z" />
<glyph unicode="&#xcb;" glyph-name="Edieresis" horiz-adv-x="590" d="M106 540Q106 591 92 615T36 640H16V660H442Q527 660 527 580V505H507Q507 620 382 620H196V360H466V320H196V40H371Q440 40 479 65T541 150L561 145L526 50Q508 0 451 0H106V540ZM183 730T170
743T156 780Q156 803 169 816T206 830Q229 830 242 817T256 780Q256 757 243 744T206 730Q183 730 170 743ZM353 730T340 743T326 780Q326 803 339 816T376 830Q399 830 412 817T426 780Q426 757 413 744T376 730Q353 730 340 743Z" />
<glyph unicode="&#xcc;" glyph-name="Igrave" horiz-adv-x="285" d="M142 0T124 9T97 44T89 120V660H179V120Q179 69 193 45T249 20H269V0H179Q142 0 124 9ZM133 705L38 835H133L173 705H133Z" />
<glyph unicode="&#xcd;" glyph-name="Iacute" horiz-adv-x="285" d="M142 0T124 9T97 44T89 120V660H179V120Q179 69 193 45T249 20H269V0H179Q142 0 124 9ZM109 700L149 830H244L149 700H109Z" />
<glyph unicode="&#xce;" glyph-name="Icircumflex" horiz-adv-x="285" d="M142 0T124 9T97 44T89 120V660H179V120Q179 69 193 45T249 20H269V0H179Q142 0 124 9ZM256 695L336 810H446L526 695H476L391 775L306 695H256Z" />
<glyph unicode="&#xcf;" glyph-name="Idieresis" horiz-adv-x="285" d="M34 715T21 728T7 765Q7 788 20 801T57 815Q80 815 93 802T107 765Q107 742 94 729T57 715Q34 715 21 728ZM188 715T175 728T161 765Q161 788 174 801T211 815Q234 815 247 802T261 765Q261
742 248 729T211 715Q188 715 175 728ZM142 0T124 9T97 44T89 120V660H179V120Q179 69 193 45T249 20H269V0H179Q142 0 124 9Z" />
<glyph unicode="&#xd0;" glyph-name="Eth" horiz-adv-x="715" d="M106 310H31V350H106V540Q106 591 92 615T36 640H16V660H278Q472 660 571 574T671 334Q671 235 629 160T505 42T304 0H106V310ZM375 35T434 71T528 174T562 330Q562 417 529 484T435 588T299 625Q251
625 199 609V350H286V310H199V48Q255 35 301 35Q375 35 434 71Z" />
<glyph unicode="&#xd1;" glyph-name="Ntilde" horiz-adv-x="685" d="M150 525V0H110V540Q110 588 90 614T20 640H10V660H75Q121 660 153 645T210 600L560 165V660H600V-10H580L150 525ZM237 746T251 767T297 789Q312 789 324 784T352 768Q355 766 365 761T384
752T402 749Q413 749 422 763T432 789H462Q462 737 448 716T402 694Q388 694 376 699T348 714Q331 724 321 729T297 734Q286 734 277 720T267 694H237Q237 746 251 767Z" />
<glyph unicode="&#xd2;" glyph-name="Ograve" horiz-adv-x="712" d="M263 -20T193 26T84 152T46 330Q46 428 84 508T192 634T356 680Q449 680 519 634T628 508T666 330Q666 232 628 152T520 26T356 -20Q263 -20 193 26ZM421 20T468 58T541 165T566 330Q566 425
541 494T469 602T356 640Q291 640 244 602T171 495T146 330Q146 235 171 166T243 58T356 20Q421 20 468 58ZM346 705L251 835H346L386 705H346Z" />
<glyph unicode="&#xd3;" glyph-name="Oacute" horiz-adv-x="712" d="M263 -20T193 26T84 152T46 330Q46 428 84 508T192 634T356 680Q449 680 519 634T628 508T666 330Q666 232 628 152T520 26T356 -20Q263 -20 193 26ZM421 20T468 58T541 165T566 330Q566 425
541 494T469 602T356 640Q291 640 244 602T171 495T146 330Q146 235 171 166T243 58T356 20Q421 20 468 58ZM335 720L375 850H470L375 720H335Z" />
<glyph unicode="&#xd4;" glyph-name="Ocircumflex" horiz-adv-x="712" d="M263 -20T193 26T84 152T46 330Q46 428 84 508T192 634T356 680Q449 680 519 634T628 508T666 330Q666 232 628 152T520 26T356 -20Q263 -20 193 26ZM421 20T468 58T541 165T566 330Q566
425 541 494T469 602T356 640Q291 640 244 602T171 495T146 330Q146 235 171 166T243 58T356 20Q421 20 468 58ZM216 720L296 835H406L486 720H436L351 800L266 720H216Z" />
<glyph unicode="&#xd5;" glyph-name="Otilde" horiz-adv-x="712" d="M263 -20T193 26T84 152T46 330Q46 428 84 508T192 634T356 680Q449 680 519 634T628 508T666 330Q666 232 628 152T520 26T356 -20Q263 -20 193 26ZM421 20T468 58T541 165T566 330Q566 425
541 494T469 602T356 640Q291 640 244 602T171 495T146 330Q146 235 171 166T243 58T356 20Q421 20 468 58ZM242 790T256 811T302 833Q317 833 329 828T357 812Q360 810 370 805T389 796T407 793Q418 793 427 807T437 833H467Q467 781 453 760T407 738Q393 738
381 743T353 758Q336 768 326 773T302 778Q291 778 282 764T272 738H242Q242 790 256 811Z" />
<glyph unicode="&#xd6;" glyph-name="Odieresis" horiz-adv-x="712" d="M263 -20T193 26T84 152T46 330Q46 428 84 508T192 634T356 680Q449 680 519 634T628 508T666 330Q666 232 628 152T520 26T356 -20Q263 -20 193 26ZM421 20T468 58T541 165T566 330Q566
425 541 494T469 602T356 640Q291 640 244 602T171 495T146 330Q146 235 171 166T243 58T356 20Q421 20 468 58ZM248 735T235 748T221 785Q221 808 234 821T271 835Q294 835 307 822T321 785Q321 762 308 749T271 735Q248 735 235 748ZM418 735T405 748T391 785Q391
808 404 821T441 835Q464 835 477 822T491 785Q491 762 478 749T441 735Q418 735 405 748Z" />
<glyph unicode="&#xd7;" glyph-name="multiply" horiz-adv-x="469" d="M93 149L51 192L192 333L51 475L93 517L235 375L376 517L418 474L277 333L418 191L376 149L234 291L93 149Z" />
<glyph unicode="&#xd8;" glyph-name="Oslash" horiz-adv-x="712" d="M163 48Q107 96 77 169T46 330Q46 428 84 508T192 634T356 680Q428 680 490 650L507 680H580L544 615Q602 567 634 493T666 330Q666 232 628 152T520 26T356 -20Q278 -20 216 12L199 -20H126L163
48ZM465 604Q419 640 356 640Q291 640 244 602T171 495T146 330Q146 193 197 111L465 604ZM421 20T468 58T541 165T566 330Q566 468 511 554L242 59Q292 20 356 20Q421 20 468 58Z" />
<glyph unicode="&#xd9;" glyph-name="Ugrave" horiz-adv-x="687" d="M258 -10T202 22T123 119T99 285V540Q99 591 85 615T29 640H9V660H99Q136 660 154 651T181 616T189 540V255Q189 144 230 87T366 30Q442 30 486 57T550 139T569 285V660H609V285Q609 181 587
118T510 22T354 -10Q258 -10 202 22ZM334 705L239 835H334L374 705H334Z" />
<glyph unicode="&#xda;" glyph-name="Uacute" horiz-adv-x="687" d="M258 -10T202 22T123 119T99 285V540Q99 591 85 615T29 640H9V660H99Q136 660 154 651T181 616T189 540V255Q189 144 230 87T366 30Q442 30 486 57T550 139T569 285V660H609V285Q609 181 587
118T510 22T354 -10Q258 -10 202 22ZM329 681L369 811H464L369 681H329Z" />
<glyph unicode="&#xdb;" glyph-name="Ucircumflex" horiz-adv-x="687" d="M258 -10T202 22T123 119T99 285V540Q99 591 85 615T29 640H9V660H99Q136 660 154 651T181 616T189 540V255Q189 144 230 87T366 30Q442 30 486 57T550 139T569 285V660H609V285Q609 181
587 118T510 22T354 -10Q258 -10 202 22ZM239 671L319 786H429L509 671H459L374 751L289 671H239Z" />
<glyph unicode="&#xdc;" glyph-name="Udieresis" horiz-adv-x="687" d="M258 -10T202 22T123 119T99 285V540Q99 591 85 615T29 640H9V660H99Q136 660 154 651T181 616T189 540V255Q189 144 230 87T366 30Q442 30 486 57T550 139T569 285V660H609V285Q609 181
587 118T510 22T354 -10Q258 -10 202 22ZM261 681T248 694T234 731Q234 754 247 767T284 781Q307 781 320 768T334 731Q334 708 321 695T284 681Q261 681 248 694ZM431 681T418 694T404 731Q404 754 417 767T454 781Q477 781 490 768T504 731Q504 708 491 695T454
681Q431 681 418 694Z" />
<glyph unicode="&#xdd;" glyph-name="Yacute" horiz-adv-x="628" d="M290 273L120 530Q94 567 76 588T34 623T-25 640V660H65Q115 660 149 631T215 550L360 325L569 660H614L380 280V0H290V273ZM315 671L355 801H450L355 671H315Z" />
<glyph unicode="&#xde;" glyph-name="Thorn" horiz-adv-x="535" d="M109 600Q109 638 93 654T39 670H19V690H109Q161 690 180 671T199 600V550Q351 550 430 491T509 315Q509 199 430 140T199 80V-30H109V600ZM307 120T358 172T409 315Q409 406 358 458T199 510V120Q307
120 358 172Z" />
<glyph unicode="&#xdf;" glyph-name="germandbls" horiz-adv-x="554" d="M343 -10T310 0T257 30Q240 47 236 65T232 110H252Q256 79 287 55T362 30Q399 30 420 49T442 100Q442 135 419 158T347 211Q311 233 290 250T253 292T237 350Q237 389 252 411T299 461Q325
483 338 502T352 550Q352 589 330 609T262 630Q211 630 187 601T162 500V0H72V500Q72 597 124 633T267 670Q349 670 393 643T437 570Q437 531 422 509T375 459Q349 437 336 418T322 370Q322 335 345 312T417 259Q453 237 474 220T511 178T527 120Q527 54 488 22T382
-10Q343 -10 310 0Z" />
<glyph unicode="&#xe0;" glyph-name="agrave" horiz-adv-x="481" d="M152 -10T119 3T63 48T39 130Q39 206 109 238T294 270H324Q324 368 297 404T219 440Q174 440 147 421T109 355H64Q64 389 68 408T89 445Q107 463 148 471T239 480Q320 480 367 437T414 270V0H364L329
45H324Q306 22 271 6T184 -10Q152 -10 119 3ZM262 35T284 51T324 95V230H294Q220 230 177 203T134 130Q134 84 161 60T229 35Q262 35 284 51ZM231 515L136 645H231L271 515H231Z" />
<glyph unicode="&#xe1;" glyph-name="aacute" horiz-adv-x="481" d="M152 -10T119 3T63 48T39 130Q39 206 109 238T294 270H324Q324 368 297 404T219 440Q174 440 147 421T109 355H64Q64 389 68 408T89 445Q107 463 148 471T239 480Q320 480 367 437T414 270V0H364L329
45H324Q306 22 271 6T184 -10Q152 -10 119 3ZM262 35T284 51T324 95V230H294Q220 230 177 203T134 130Q134 84 161 60T229 35Q262 35 284 51ZM213 515L253 645H348L253 515H213Z" />
<glyph unicode="&#xe2;" glyph-name="acircumflex" horiz-adv-x="481" d="M152 -10T119 3T63 48T39 130Q39 206 109 238T294 270H324Q324 368 297 404T219 440Q174 440 147 421T109 355H64Q64 389 68 408T89 445Q107 463 148 471T239 480Q320 480 367 437T414
270V0H364L329 45H324Q306 22 271 6T184 -10Q152 -10 119 3ZM262 35T284 51T324 95V230H294Q220 230 177 203T134 130Q134 84 161 60T229 35Q262 35 284 51ZM106 520L186 635H296L376 520H326L241 600L156 520H106Z" />
<glyph unicode="&#xe3;" glyph-name="atilde" horiz-adv-x="481" d="M152 -10T119 3T63 48T39 130Q39 206 109 238T294 270H324Q324 368 297 404T219 440Q174 440 147 421T109 355H64Q64 389 68 408T89 445Q107 463 148 471T239 480Q320 480 367 437T414 270V0H364L329
45H324Q306 22 271 6T184 -10Q152 -10 119 3ZM262 35T284 51T324 95V230H294Q220 230 177 203T134 130Q134 84 161 60T229 35Q262 35 284 51ZM123 588T137 609T183 631Q198 631 210 626T238 610Q241 608 251 603T270 594T288 591Q299 591 308 605T318 631H348Q348
579 334 558T288 536Q274 536 262 541T234 556Q217 566 207 571T183 576Q172 576 163 562T153 536H123Q123 588 137 609Z" />
<glyph unicode="&#xe4;" glyph-name="adieresis" horiz-adv-x="481" d="M152 -10T119 3T63 48T39 130Q39 206 109 238T294 270H324Q324 368 297 404T219 440Q174 440 147 421T109 355H64Q64 389 68 408T89 445Q107 463 148 471T239 480Q320 480 367 437T414 270V0H364L329
45H324Q306 22 271 6T184 -10Q152 -10 119 3ZM262 35T284 51T324 95V230H294Q220 230 177 203T134 130Q134 84 161 60T229 35Q262 35 284 51ZM235 535T222 548T209 580Q209 599 222 612T254 625Q273 625 286 612T299 580Q299 561 286 548T254 535Q235 535 222 548ZM405
535T392 548T379 580Q379 599 392 612T424 625Q443 625 456 612T469 580Q469 561 456 548T424 535Q405 535 392 548Z" />
<glyph unicode="&#xe5;" glyph-name="aring" horiz-adv-x="481" d="M152 -10T119 3T63 48T39 130Q39 206 109 238T294 270H324Q324 368 297 404T219 440Q174 440 147 421T109 355H64Q64 389 68 408T89 445Q107 463 148 471T239 480Q320 480 367 437T414 270V0H364L329
45H324Q306 22 271 6T184 -10Q152 -10 119 3ZM262 35T284 51T324 95V230H294Q220 230 177 203T134 130Q134 84 161 60T229 35Q262 35 284 51ZM200 530T175 555T149 615Q149 649 174 674T234 700Q268 700 293 675T319 615Q319 581 294 556T234 530Q200 530 175 555ZM253
565T266 578T279 615Q279 638 266 651T234 665Q215 665 202 652T189 615Q189 592 202 579T234 565Q253 565 266 578Z" />
<glyph unicode="&#xe6;" glyph-name="ae" horiz-adv-x="759" d="M136 -10T88 22T39 125Q39 197 109 228T294 260H324Q324 364 297 402T219 440Q174 440 147 421T109 355H64Q64 389 68 408T89 445Q107 463 148 471T239 480Q290 480 326 455T379 390Q395 430 431
455T514 480Q615 480 664 424T714 260L712 220H414Q414 136 450 83T549 30Q596 30 628 50T689 110L709 95Q676 40 632 15T529 -10Q412 -10 359 75Q336 32 299 11T199 -10Q136 -10 88 22ZM624 260Q624 345 598 390T519 435Q489 435 465 412T428 349T414 260H624ZM262
35T284 51T324 95V220H294Q220 220 177 194T134 125Q134 82 161 59T229 35Q262 35 284 51Z" />
<glyph unicode="&#xe7;" glyph-name="ccedilla" horiz-adv-x="483" d="M231 -155H281Q321 -155 321 -123Q321 -90 281 -90H236V-10Q142 2 94 69T45 235Q45 304 69 359T143 447T265 480Q375 480 410 445Q427 428 431 404T435 315H415Q411 377 376 408T285 440Q213
440 177 383T140 235Q140 144 176 87T285 30Q336 30 369 49T430 110L450 95Q418 41 375 17Q337 -4 281 -9V-50H291Q326 -50 348 -69T371 -123Q371 -157 349 -176T291 -196H231V-155Z" />
<glyph unicode="&#xe8;" glyph-name="egrave" horiz-adv-x="488" d="M187 -10T140 22T69 110T45 235Q45 303 69 359T138 447T245 480Q346 480 395 424T445 260L443 220H140Q140 136 176 83T275 30Q322 30 354 50T415 110L435 95Q402 40 358 15T255 -10Q187 -10
140 22ZM350 260Q350 348 324 394T245 440Q215 440 191 417T154 352T140 260H350ZM234 515L139 645H234L274 515H234Z" />
<glyph unicode="&#xe9;" glyph-name="eacute" horiz-adv-x="488" d="M187 -10T140 22T69 110T45 235Q45 303 69 359T138 447T245 480Q346 480 395 424T445 260L443 220H140Q140 136 176 83T275 30Q322 30 354 50T415 110L435 95Q402 40 358 15T255 -10Q187 -10
140 22ZM350 260Q350 348 324 394T245 440Q215 440 191 417T154 352T140 260H350ZM216 515L256 645H351L256 515H216Z" />
<glyph unicode="&#xea;" glyph-name="ecircumflex" horiz-adv-x="488" d="M187 -10T140 22T69 110T45 235Q45 303 69 359T138 447T245 480Q346 480 395 424T445 260L443 220H140Q140 136 176 83T275 30Q322 30 354 50T415 110L435 95Q402 40 358 15T255 -10Q187
-10 140 22ZM350 260Q350 348 324 394T245 440Q215 440 191 417T154 352T140 260H350ZM109 520L189 635H299L379 520H329L244 600L159 520H109Z" />
<glyph unicode="&#xeb;" glyph-name="edieresis" horiz-adv-x="488" d="M187 -10T140 22T69 110T45 235Q45 303 69 359T138 447T245 480Q346 480 395 424T445 260L443 220H140Q140 136 176 83T275 30Q322 30 354 50T415 110L435 95Q402 40 358 15T255 -10Q187
-10 140 22ZM350 260Q350 348 324 394T245 440Q215 440 191 417T154 352T140 260H350ZM236 545T223 558T210 590Q210 609 223 622T255 635Q274 635 287 622T300 590Q300 571 287 558T255 545Q236 545 223 558ZM406 545T393 558T380 590Q380 609 393 622T425 635Q444
635 457 622T470 590Q470 571 457 558T425 545Q406 545 393 558Z" />
<glyph unicode="&#xec;" glyph-name="igrave" horiz-adv-x="246" d="M87 350Q87 401 73 425T17 450H-3V470H87Q124 470 142 461T169 426T177 350V0H87V350ZM113 515L18 645H113L153 515H113Z" />
<glyph unicode="&#xed;" glyph-name="iacute" horiz-adv-x="246" d="M87 350Q87 401 73 425T17 450H-3V470H87Q124 470 142 461T169 426T177 350V0H87V350ZM95 515L135 645H230L135 515H95Z" />
<glyph unicode="&#xee;" glyph-name="icircumflex" horiz-adv-x="246" d="M87 350Q87 401 73 425T17 450H-3V470H87Q124 470 142 461T169 426T177 350V0H87V350ZM97 530L177 645H287L367 530H317L232 610L147 530H97Z" />
<glyph unicode="&#xef;" glyph-name="idieresis" horiz-adv-x="246" d="M29 540T13 559T-4 604Q-4 625 8 637T42 649Q65 649 81 630T98 585Q98 564 86 552T52 540Q29 540 13 559ZM183 540T167 559T150 604Q150 625 162 637T196 649Q219 649 235 630T252 585Q252
564 240 552T206 540Q183 540 167 559ZM87 350Q87 401 73 425T17 450H-3V470H87Q124 470 142 461T169 426T177 350V0H87V350Z" />
<glyph unicode="&#xf0;" glyph-name="eth" horiz-adv-x="537" d="M196 -10T146 22T70 111T44 235Q44 303 70 359T146 447T264 480Q306 480 340 459T394 400Q382 455 366 493T324 560L284 520L254 550L294 590Q270 614 246 624T184 635Q171 635 159 633T140 629L132
648Q151 661 172 665T224 670Q283 670 339 630L374 670L404 640L369 605Q424 550 454 466T484 270Q484 141 426 66T264 -10Q196 -10 146 22ZM301 30T329 57T373 131T389 235Q389 292 374 339T330 413T264 440Q227 440 199 413T155 339T139 235Q139 178 154 131T198
57T264 30Q301 30 329 57Z" />
<glyph unicode="&#xf1;" glyph-name="ntilde" horiz-adv-x="544" d="M87 350Q87 401 73 425T17 450H-3V470H87Q124 470 143 460T172 430H177Q198 451 231 465T307 480Q382 480 429 440T477 300V0H387V300Q387 370 356 402T277 435Q224 435 177 382V0H87V350ZM169
597T183 618T229 640Q244 640 256 635T284 619Q287 617 297 612T316 603T334 600Q345 600 354 614T364 640H394Q394 588 380 567T334 545Q320 545 308 550T280 565Q263 575 253 580T229 585Q218 585 209 571T199 545H169Q169 597 183 618Z" />
<glyph unicode="&#xf2;" glyph-name="ograve" horiz-adv-x="530" d="M197 -10T147 22T71 111T45 235Q45 303 71 359T147 447T265 480Q333 480 383 448T459 359T485 235Q485 167 459 111T383 23T265 -10Q197 -10 147 22ZM302 30T330 57T374 131T390 235Q390 292
375 339T331 413T265 440Q228 440 200 413T156 339T140 235Q140 178 155 131T199 57T265 30Q302 30 330 57ZM255 515L160 645H255L295 515H255Z" />
<glyph unicode="&#xf3;" glyph-name="oacute" horiz-adv-x="530" d="M197 -10T147 22T71 111T45 235Q45 303 71 359T147 447T265 480Q333 480 383 448T459 359T485 235Q485 167 459 111T383 23T265 -10Q197 -10 147 22ZM302 30T330 57T374 131T390 235Q390 292
375 339T331 413T265 440Q228 440 200 413T156 339T140 235Q140 178 155 131T199 57T265 30Q302 30 330 57ZM237 515L277 645H372L277 515H237Z" />
<glyph unicode="&#xf4;" glyph-name="ocircumflex" horiz-adv-x="530" d="M197 -10T147 22T71 111T45 235Q45 303 71 359T147 447T265 480Q333 480 383 448T459 359T485 235Q485 167 459 111T383 23T265 -10Q197 -10 147 22ZM302 30T330 57T374 131T390 235Q390
292 375 339T331 413T265 440Q228 440 200 413T156 339T140 235Q140 178 155 131T199 57T265 30Q302 30 330 57ZM130 520L210 635H320L400 520H350L265 600L180 520H130Z" />
<glyph unicode="&#xf5;" glyph-name="otilde" horiz-adv-x="530" d="M197 -10T147 22T71 111T45 235Q45 303 71 359T147 447T265 480Q333 480 383 448T459 359T485 235Q485 167 459 111T383 23T265 -10Q197 -10 147 22ZM302 30T330 57T374 131T390 235Q390 292
375 339T331 413T265 440Q228 440 200 413T156 339T140 235Q140 178 155 131T199 57T265 30Q302 30 330 57ZM153 588T167 609T213 631Q228 631 240 626T268 610Q271 608 281 603T300 594T318 591Q329 591 338 605T348 631H378Q378 579 364 558T318 536Q304 536
292 541T264 556Q247 566 237 571T213 576Q202 576 193 562T183 536H153Q153 588 167 609Z" />
<glyph unicode="&#xf6;" glyph-name="odieresis" horiz-adv-x="530" d="M197 -10T147 22T71 111T45 235Q45 303 71 359T147 447T265 480Q333 480 383 448T459 359T485 235Q485 167 459 111T383 23T265 -10Q197 -10 147 22ZM302 30T330 57T374 131T390 235Q390
292 375 339T331 413T265 440Q228 440 200 413T156 339T140 235Q140 178 155 131T199 57T265 30Q302 30 330 57ZM261 535T248 548T235 580Q235 599 248 612T280 625Q299 625 312 612T325 580Q325 561 312 548T280 535Q261 535 248 548ZM431 535T418 548T405 580Q405
599 418 612T450 625Q469 625 482 612T495 580Q495 561 482 548T450 535Q431 535 418 548Z" />
<glyph unicode="&#xf7;" glyph-name="divide" horiz-adv-x="564" d="M263 425T250 438T237 470Q237 489 250 502T282 515Q301 515 314 502T327 470Q327 451 314 438T282 425Q263 425 250 438ZM62 300V360H502V300H62ZM263 145T250 158T237 190Q237 209 250 222T282
235Q301 235 314 222T327 190Q327 171 314 158T282 145Q263 145 250 158Z" />
<glyph unicode="&#xf8;" glyph-name="oslash" horiz-adv-x="530" d="M202 -10T151 20L138 0H65L105 58Q45 127 45 235Q45 303 71 359T147 447T265 480Q329 480 378 450L392 470H465L424 411Q453 378 469 333T485 235Q485 167 459 111T383 23T265 -10Q202 -10 151
20ZM343 399Q310 440 265 440Q228 440 200 413T156 339T140 235Q140 176 156 131L343 399ZM302 30T330 57T374 131T390 235Q390 294 374 339L187 71Q219 30 265 30Q302 30 330 57Z" />
<glyph unicode="&#xf9;" glyph-name="ugrave" horiz-adv-x="535" d="M168 -10T121 30T73 170V350Q73 401 59 425T3 450H-7V470H73Q110 470 128 461T155 426T163 350V170Q163 100 194 68T273 35Q326 35 373 88V470H463V0H413L378 40H373Q352 19 319 5T243 -10Q168
-10 121 30ZM258 515L163 645H258L298 515H258Z" />
<glyph unicode="&#xfa;" glyph-name="uacute" horiz-adv-x="535" d="M168 -10T121 30T73 170V350Q73 401 59 425T3 450H-7V470H73Q110 470 128 461T155 426T163 350V170Q163 100 194 68T273 35Q326 35 373 88V470H463V0H413L378 40H373Q352 19 319 5T243 -10Q168
-10 121 30ZM240 515L280 645H375L280 515H240Z" />
<glyph unicode="&#xfb;" glyph-name="ucircumflex" horiz-adv-x="535" d="M168 -10T121 30T73 170V350Q73 401 59 425T3 450H-7V470H73Q110 470 128 461T155 426T163 350V170Q163 100 194 68T273 35Q326 35 373 88V470H463V0H413L378 40H373Q352 19 319 5T243
-10Q168 -10 121 30ZM223 530L303 645H413L493 530H443L358 610L273 530H223Z" />
<glyph unicode="&#xfc;" glyph-name="udieresis" horiz-adv-x="535" d="M168 -10T121 30T73 170V350Q73 401 59 425T3 450H-7V470H73Q110 470 128 461T155 426T163 350V170Q163 100 194 68T273 35Q326 35 373 88V470H463V0H413L378 40H373Q352 19 319 5T243 -10Q168
-10 121 30ZM254 521T241 534T228 566Q228 585 241 598T273 611Q292 611 305 598T318 566Q318 547 305 534T273 521Q254 521 241 534ZM424 521T411 534T398 566Q398 585 411 598T443 611Q462 611 475 598T488 566Q488 547 475 534T443 521Q424 521 411 534Z" />
<glyph unicode="&#xfd;" glyph-name="yacute" horiz-adv-x="514" d="M105 -170Q154 -170 185 -148T240 -65L260 -10L100 380Q72 452 -10 460V480H75Q162 480 195 400L309 123L435 470H485L290 -65Q261 -144 226 -172T135 -200H105V-170ZM229 515L269 645H364L269
515H229Z" />
<glyph unicode="&#xfe;" glyph-name="thorn" horiz-adv-x="523" d="M72 540Q72 591 58 615T2 640H-13V660H72Q109 660 127 651T154 616T162 540V425Q180 448 213 464T297 480Q383 480 430 411T477 235Q477 128 429 59T287 -10Q249 -10 220 -2T162 20V-190H72V540ZM321
30T351 86T382 235Q382 327 353 383T267 440Q200 440 162 380V60Q192 46 214 38T257 30Q321 30 351 86Z" />
<glyph unicode="&#xff;" glyph-name="ydieresis" horiz-adv-x="514" d="M105 -170Q154 -170 185 -148T240 -65L260 -10L100 380Q72 452 -10 460V480H75Q162 480 195 400L309 123L435 470H485L290 -65Q261 -144 226 -172T135 -200H105V-170ZM286 521T273 534T260
566Q260 585 273 598T305 611Q324 611 337 598T350 566Q350 547 337 534T305 521Q286 521 273 534ZM456 521T443 534T430 566Q430 585 443 598T475 611Q494 611 507 598T520 566Q520 547 507 534T475 521Q456 521 443 534Z" />
<glyph unicode="&#x2013;" glyph-name="endash" horiz-adv-x="610" d="M70 230V290H540V230H70Z" />
<glyph unicode="&#x2014;" glyph-name="emdash" horiz-adv-x="872" d="M66 230V290H806V230H66Z" />
<glyph unicode="&#x2018;" glyph-name="quoteleft" horiz-adv-x="226" d="M86 425T69 443T51 495Q51 618 161 680L171 665Q131 638 111 606T91 530L121 540Q144 540 160 524T176 485Q176 459 159 442T116 425Q86 425 69 443Z" />
<glyph unicode="&#x2019;" glyph-name="quoteright" horiz-adv-x="228" d="M62 440Q102 467 122 499T142 575L112 565Q89 565 73 581T57 620Q57 646 74 663T117 680Q147 680 164 662T182 610Q182 487 72 425L62 440Z" />
<glyph unicode="&#x201a;" glyph-name="quotesinglbase" horiz-adv-x="237" d="M61 -140Q101 -113 121 -81T141 -5L111 -15Q88 -15 72 1T56 40Q56 66 73 83T116 100Q146 100 163 82T181 30Q181 -93 71 -155L61 -140Z" />
<glyph unicode="&#x201c;" glyph-name="quotedblleft" horiz-adv-x="406" d="M86 425T69 443T51 495Q51 618 161 680L171 665Q131 638 111 606T91 530L121 540Q144 540 160 524T176 485Q176 459 159 442T116 425Q86 425 69 443ZM266 425T249 443T231 495Q231 618
341 680L351 665Q311 638 291 606T271 530L301 540Q324 540 340 524T356 485Q356 459 339 442T296 425Q266 425 249 443Z" />
<glyph unicode="&#x201d;" glyph-name="quotedblright" horiz-adv-x="408" d="M62 440Q102 467 122 499T142 575L112 565Q89 565 73 581T57 620Q57 646 74 663T117 680Q147 680 164 662T182 610Q182 487 72 425L62 440ZM242 440Q282 467 302 499T322 575L292 565Q269
565 253 581T237 620Q237 646 254 663T297 680Q327 680 344 662T362 610Q362 487 252 425L242 440Z" />
<glyph unicode="&#x201e;" glyph-name="quotedblbase" horiz-adv-x="417" d="M61 -140Q101 -113 121 -81T141 -5L111 -15Q88 -15 72 1T56 40Q56 66 73 83T116 100Q146 100 163 82T181 30Q181 -93 71 -155L61 -140ZM241 -140Q281 -113 301 -81T321 -5L291 -15Q268
-15 252 1T236 40Q236 66 253 83T296 100Q326 100 343 82T361 30Q361 -93 251 -155L241 -140Z" />
<glyph unicode="&#x2022;" glyph-name="bullet" horiz-adv-x="340" d="M117 210T84 243T50 330Q50 383 83 416T170 450Q223 450 256 417T290 330Q290 277 257 244T170 210Q117 210 84 243Z" />
<glyph unicode="&#x2039;" glyph-name="guilsinglleft" horiz-adv-x="302" d="M209 30L34 225L209 420H249L139 225L249 30H209Z" />
<glyph unicode="&#x203a;" glyph-name="guilsinglright" horiz-adv-x="302" d="M53 30L163 225L53 420H93L268 225L93 30H53Z" />
</font>
</defs>
</svg>
