<?xml version="1.0" standalone="no"?>
<!DOCTYPE svg PUBLIC "-//W3C//DTD SVG 1.1//EN" "http://www.w3.org/Graphics/SVG/1.1/DTD/svg11.dtd">
<svg xmlns="http://www.w3.org/2000/svg">
<defs >
<font id="ElsieSwashCaps" horiz-adv-x="562" ><font-face
    font-family="Elsie Swash Caps Black"
    units-per-em="1000"
    panose-1="2 0 0 0 0 0 0 0 0 0"
    ascent="878"
    descent="-274"
    alphabetic="0" />
<glyph unicode=" " glyph-name="space" horiz-adv-x="250" />
<glyph unicode="!" glyph-name="exclam" horiz-adv-x="282" d="M150 224H132Q132 304 116 365T81 458Q30 541 30 596T58 685T141 719T223 686T252 609T236 527T201 458T166 366T150 224ZM46 45T46 85T73 152T141 180T208 153T236 85T209 18T141 -10T74 17Z" />
<glyph unicode="&quot;" glyph-name="quotedbl" horiz-adv-x="198" d="M40 700H59V488H40V700ZM133 700H152V488H133V700Z" />
<glyph unicode="#" glyph-name="numbersign" horiz-adv-x="729" d="M71 140V161H227L279 316H135V337H286L338 488H360L308 337H481L533 488H555L503 337H649V316H496L444 161H585V140H437L386 -10H364L415 140H242L191 -10H169L220 140H71ZM301 316L249 161H422L474
316H301Z" />
<glyph unicode="$" glyph-name="dollar" horiz-adv-x="469" d="M96 20Q72 20 55 -5H40V185H55Q74 89 115 49T227 8V150Q115 201 82 241Q42 289 42 349Q42 426 95 467T232 508H236V570H256V506Q274 504 316 493T374 482T398 488T409 507H425V334H409Q400 401 358
442T256 489V341Q294 326 335 304T385 274T409 252T432 225Q449 190 449 156Q449 72 394 32T247 -10V-62H227V-10Q189 -8 146 6T96 20ZM158 434Q158 388 236 350V490Q202 489 180 475T158 434ZM326 71Q326 91 306 106T247 141V8Q326 14 326 71Z" />
<glyph unicode="%" glyph-name="percent" horiz-adv-x="982" d="M702 406T694 357T685 222T693 87T713 23T743 8T772 23T792 87T801 222T793 357T773 422T743 437T714 422ZM534 119T534 222T593 390T743 455T893 390T952 222T893 55T743 -10T593 54ZM148 235T89
299T30 466T87 634T234 700Q296 700 364 654Q390 637 427 623T503 609Q578 609 626 643T690 711L699 727L716 720L293 -17L279 -8L647 635Q581 591 503 591Q457 591 408 611Q448 549 448 467Q448 364 389 300T239 235ZM198 651T190 602T181 467T189 332T209 268T239
253T268 268T288 332T297 467T289 602T269 667T239 682T210 667Z" />
<glyph unicode="&amp;" glyph-name="ampersand" horiz-adv-x="661" d="M426 631Q388 665 335 665Q228 665 228 525Q228 477 249 441T312 405Q334 405 362 416L372 419L377 401Q296 367 267 324T237 200T277 74T383 28T499 68T549 171T518 264T443 294T366 270T333
200T365 131Q374 125 380 125Q389 125 389 134Q389 139 383 144T374 150Q354 167 354 195T374 241T426 260T479 238T500 179T474 120T406 97T333 131T302 216Q302 294 362 334T503 380Q615 388 651 402Q715 428 716 493Q716 537 684 561Q675 567 669 567Q660 567
660 558Q660 553 666 548T675 542Q695 525 695 497T675 451T623 432T570 454T549 513T575 572T642 595T714 560T744 476T721 392T664 338Q592 300 540 293L517 290Q540 277 554 246T569 181T556 115T514 54T435 8T308 -10T172 8T81 56Q23 114 23 187T77 311T229
380L227 390Q138 390 93 429T47 528T112 639T290 689T451 633Q475 606 475 570T452 507T393 481T334 502T311 554T330 606T377 627T422 607Q430 592 438 592T447 601T426 631Z" />
<glyph unicode="&apos;" glyph-name="quotesingle" horiz-adv-x="422" d="M177 700H196V488H177V700Z" />
<glyph unicode="(" glyph-name="parenleft" horiz-adv-x="443" d="M443 684Q224 684 224 248T443 -189V-205Q328 -205 242 -140T113 26T70 247T112 468T241 635T443 700V684Z" />
<glyph unicode=")" glyph-name="parenright" horiz-adv-x="443" d="M0 -189Q219 -189 219 247T0 684V700Q115 700 201 635T330 469T373 248T331 27T202 -140T0 -205V-189Z" />
<glyph unicode="*" glyph-name="asterisk" horiz-adv-x="328" d="M184 719T198 705T212 670T189 618T164 576Q163 585 140 617T116 670T130 705T164 719ZM132 567L79 564Q52 564 36 578T20 613T34 648T70 662T107 641T131 595T151 564Q143 567 132 567ZM248 564L196
567Q184 567 177 564Q187 570 196 595T221 641T257 662T293 649T308 614T292 578T248 564ZM79 552L132 548Q141 548 151 552Q141 546 132 521T107 475T71 454T35 467T20 502T36 537T79 552ZM144 398T130 411T116 446T139 498T164 540Q165 529 188 498T212 446T198
412T164 398ZM196 548L248 552Q275 552 291 538T308 502T294 468T258 454T221 475T197 521T177 552Q187 548 196 548Z" />
<glyph unicode="+" glyph-name="plus" horiz-adv-x="593" d="M83 226V247H310V474H330V247H557V226H330V0H310V226H83Z" />
<glyph unicode="," glyph-name="comma" horiz-adv-x="330" d="M265 46Q265 115 211 148Q195 157 187 157T178 149T189 137Q231 119 231 70Q231 34 206 12T143 -10T80 16T54 83T82 151T158 180T244 146T283 45Q283 -79 146 -144L138 -128Q265 -68 265 46Z" />
<glyph unicode="-" glyph-name="hyphen" horiz-adv-x="309" d="M52 226V247H250V226H52Z" />
<glyph unicode="." glyph-name="period" horiz-adv-x="295" d="M108 -10T81 17T53 84T80 151T148 179T215 152T242 85T215 18T148 -10Z" />
<glyph unicode="/" glyph-name="slash" horiz-adv-x="348" d="M33 -114L319 700L338 694L53 -121L33 -114Z" />
<glyph unicode="0" glyph-name="zero" horiz-adv-x="568" d="M170 488T284 488T468 420T538 239T468 59T284 -10T100 58T30 239T100 419ZM226 8T284 8T342 239T284 470T226 239Z" />
<glyph unicode="1" glyph-name="one" horiz-adv-x="421" d="M133 25V322Q94 294 50 281L36 277L31 294Q174 338 198 469Q251 471 303 484L322 488V25H408V9H47V25H133Z" />
<glyph unicode="2" glyph-name="two" horiz-adv-x="548" d="M234 164H445Q473 164 485 175T499 211H514V9H26Q26 148 137 206Q158 217 190 231T235 252T264 273T285 305T291 361T266 428T192 458T104 426T65 351Q65 339 74 339Q81 339 83 349Q85 376 102 392T148
409T197 387T216 333T193 279T133 256T71 283T47 348Q47 415 107 451T262 488T421 455T486 361Q486 300 451 271Q433 256 416 247T368 231Q316 221 245 214Q116 203 75 126L81 121Q132 164 234 164Z" />
<glyph unicode="3" glyph-name="three" horiz-adv-x="511" d="M42 -64Q42 -107 75 -136T144 -165Q214 -165 248 -120T282 -9Q282 147 185 147Q170 147 121 125L113 142Q287 219 287 329Q287 379 255 416T176 454T98 423T66 350Q66 332 71 319T85 306T94 314Q94
317 89 327T83 357T102 394T152 412T204 390T225 334T203 277T142 254T76 281T48 343T63 404Q111 488 239 488Q323 488 383 449T444 334Q444 276 391 236T237 182L240 173Q270 180 298 180Q359 180 408 147Q481 99 481 10T416 -140T217 -202Q132 -202 78 -162T24
-63Q24 -19 48 9T113 38T174 14T196 -42T175 -95T129 -117T84 -105Q61 -90 61 -57Q61 -47 53 -47Q42 -47 42 -64Z" />
<glyph unicode="4" glyph-name="four" horiz-adv-x="581" d="M-17 -33V-16Q-6 -7 13 9T83 78T173 185T250 317T297 470Q368 474 427 488V19H575V-33H427V-194H238V-33H-17ZM54 19H238V241H233Q192 179 148 125T78 46L54 23V19Z" />
<glyph unicode="5" glyph-name="five" horiz-adv-x="533" d="M70 -73Q70 -115 100 -143T171 -172Q293 -172 293 10Q293 82 266 124T197 167Q136 167 89 90H71V469H373Q401 469 413 480T427 516H445V304H91V132H98Q130 171 181 192T290 214Q374 214 434 164T494
15T424 -144T234 -205Q142 -205 97 -165T52 -71Q52 -33 75 -6T139 21T201 0T224 -56T202 -111T153 -131Q102 -131 91 -84Q88 -72 87 -67T78 -62T70 -73Z" />
<glyph unicode="6" glyph-name="six" horiz-adv-x="591" d="M233 298V197Q233 93 248 51T298 8T348 50T363 197T349 341T298 381Q277 381 255 357T233 298ZM499 547Q499 585 463 620T361 655Q296 655 270 618Q257 598 249 581T238 531Q233 490 233 430V363H236Q281
418 361 418T502 367T563 217T490 55T299 -10Q225 -10 171 18T87 97Q31 194 31 343T103 587T325 681Q415 681 466 641T517 544Q517 506 493 479T432 452T372 475T349 531T367 584T415 605T462 589T481 545Q483 535 490 535Q499 535 499 547Z" />
<glyph unicode="7" glyph-name="seven" horiz-adv-x="479" d="M50 469H375Q403 469 415 480T429 516H447V419Q447 287 387 206Q362 173 338 139T296 46T278 -92Q278 -140 256 -171T188 -202T115 -172T89 -92Q89 -35 112 2Q124 22 134 36T166 67T199 93T239 119T288
151T326 180T368 220Q413 268 425 352Q421 347 413 339T370 318T290 305H121Q93 305 81 294T67 258H50V469Z" />
<glyph unicode="8" glyph-name="eight" horiz-adv-x="531" d="M152 -10T91 44T29 189T111 340Q43 413 43 500T102 633T258 679T409 634T463 518T395 392Q502 308 502 201Q502 112 437 51T262 -10ZM271 11T301 37T332 108T302 185T212 259T125 327Q88 300 68 261T48
185Q48 112 97 62T224 11Q271 11 301 37ZM300 460T334 436T379 404Q445 452 445 514T409 612T320 648Q284 648 260 627T235 565T267 492Z" />
<glyph unicode="9" glyph-name="nine" horiz-adv-x="591" d="M358 180V281Q358 385 343 427T293 470T243 428T228 281T242 137T293 97Q314 97 336 121T358 180ZM92 -69Q92 -107 128 -142T230 -177Q295 -177 320 -140Q334 -120 342 -103T354 -53Q358 -12 358 48V115H355Q310
60 230 60T89 111T28 261T101 423T292 488Q366 488 420 460T504 381Q560 284 560 135T488 -109T266 -203Q176 -203 125 -163T74 -66Q74 -28 98 -1T159 26T219 3T242 -53T224 -106T176 -127T129 -111T110 -67Q108 -57 101 -57Q92 -57 92 -69Z" />
<glyph unicode=":" glyph-name="colon" horiz-adv-x="294" d="M47 45T47 85T74 152T142 180T209 153T237 85T210 18T142 -10T75 17ZM47 353T47 393T74 460T142 488T209 461T237 393T210 326T142 298T75 325Z" />
<glyph unicode=";" glyph-name="semicolon" horiz-adv-x="330" d="M207 148Q191 157 183 157T174 149T185 137Q227 119 227 70Q227 34 202 12T139 -10T76 16T50 82T78 151T154 180T239 147T277 47Q277 -81 143 -145L135 -129Q172 -112 202 -83Q259 -28 259 44T207
148ZM52 353T52 393T79 460T147 488T214 461T242 393T215 326T147 298T80 325Z" />
<glyph unicode="&lt;" glyph-name="less" horiz-adv-x="471" d="M14 220V240L470 409L478 389L48 230L478 71L470 51L14 220Z" />
<glyph unicode="=" glyph-name="equal" horiz-adv-x="642" d="M83 144V165H557V144H83ZM557 330V309H83V330H557Z" />
<glyph unicode="&gt;" glyph-name="greater" horiz-adv-x="510" d="M466 240V220L10 51L2 71L432 230L2 389L10 409L466 240Z" />
<glyph unicode="?" glyph-name="question" horiz-adv-x="504" d="M216 -10T193 13T170 68T193 124T248 147T304 124T327 69T304 13T249 -10ZM215 181T187 204T158 264T172 329T204 375T236 435T251 534Q251 683 146 683Q97 683 59 650T20 571Q20 548 28 536T42
523Q51 523 51 532Q51 535 45 545T39 577T59 617T109 635T162 613T184 556T160 497T96 473T29 500T2 570Q2 635 62 677T215 720Q338 720 396 672T454 549Q454 497 426 458T358 397T277 357T208 316T180 263T201 216T251 199Q304 199 344 250L357 238Q314 181 252
181Q215 181 187 204Z" />
<glyph unicode="@" glyph-name="at" horiz-adv-x="834" d="M756 253Q756 398 658 490T419 583T178 483T78 243T177 3T417 -97Q503 -97 578 -57L592 -80Q510 -124 417 -124Q265 -124 158 -17T50 243T157 502T418 610T678 510T784 253Q784 159 730 99T588 39Q545
39 516 67T484 134H479Q468 90 440 65T353 39T254 65T214 148Q214 271 466 271V298Q466 377 448 401Q426 429 373 429T283 404Q258 387 258 362Q258 353 266 353T277 364Q286 397 324 397Q345 397 362 380T380 337T361 293T311 275T259 296T238 348Q238 450 403
450Q532 450 577 406T622 260V121Q622 85 647 85Q682 85 719 131T756 253ZM466 179V253Q462 253 458 253Q370 253 370 165Q370 123 382 102T417 81T453 112T466 179Z" />
<glyph unicode="A" glyph-name="A" horiz-adv-x="614" d="M72 327Q-11 327 -47 275Q-53 266 -53 260Q-53 251 -44 251Q-36 251 -29 266Q-12 290 18 290T66 270T84 218T62 165T3 144T-56 170T-79 237T-40 312T71 346Q108 346 144 335L246 629Q260 671 277 687Q304
711 350 711L593 25H631V9H383L361 70Q278 263 156 311L95 138Q85 111 85 87Q85 25 175 25H208V9H-48V25Q-18 25 2 31T36 57T57 92T77 145L137 317Q104 327 72 327ZM162 329Q252 296 317 195L216 482L162 329Z" />
<glyph unicode="B" glyph-name="B" horiz-adv-x="726" d="M337 719Q500 719 578 683T656 570Q656 505 605 457T437 393V387Q536 385 610 346Q649 326 671 291T694 211Q694 9 370 9H29V25H103V463Q151 411 241 411T392 451T452 571Q452 629 417 662T306 695T180
671T117 607Q115 599 115 596Q115 587 123 587T136 601T159 631T214 646T274 621T298 556T270 488T197 461T122 493T91 571Q91 647 158 683T337 719ZM421 25T452 72T484 211T442 340T331 377H307V25H337Q421 25 452 72Z" />
<glyph unicode="C" glyph-name="C" horiz-adv-x="629" d="M608 552Q608 513 583 478T504 442T423 471T395 541T418 608T482 635Q555 635 568 554Q569 545 577 545Q588 545 588 555Q588 603 540 648T409 694T293 620T260 366T294 100T404 13Q466 13 514 53T585
146T608 246H629Q622 127 552 59T386 -10Q213 -10 126 89T38 357Q38 491 119 600Q159 653 227 686T392 719T548 667T608 552Z" />
<glyph unicode="D" glyph-name="D" horiz-adv-x="762" d="M418 666T383 680T286 695T174 671T111 607Q109 599 109 596Q109 587 117 587T130 601T153 631T208 646T268 621T292 556T264 488T191 461T116 493T85 571Q85 646 153 682T321 719T502 691T633 614Q734
514 734 363Q734 210 648 114Q604 64 529 37T354 9H33V25H97V464Q136 422 196 422Q231 422 261 437T301 469V25H334Q424 25 468 101T512 363Q512 558 448 631Q418 666 383 680Z" />
<glyph unicode="E" glyph-name="E" horiz-adv-x="535" d="M309 719Q387 719 448 686T510 581Q510 537 483 512T418 486T355 508T330 565T351 622T403 644T453 627T472 591Q472 572 466 562T460 547Q460 538 469 538T484 551T491 582Q491 624 459 655T373 686T280
645T240 545T272 445T358 404Q373 404 422 426L430 409Q330 360 294 314T257 197T284 78T377 29T483 68T523 162Q523 190 510 190Q500 190 500 181Q500 179 502 174T504 158Q504 131 484 117T436 102T387 124T365 181T388 239T451 263T516 236T542 164Q542 88 477
39T287 -10T100 49T36 185T92 313T253 379L250 388Q156 391 107 436T58 542Q58 620 129 669T309 719Z" />
<glyph unicode="F" glyph-name="F" horiz-adv-x="574" d="M362 25V9H30V25H94V671L29 683L33 699Q115 682 198 682T371 700T508 719T590 689T625 609T594 526T522 493T452 519T423 584T446 649T507 676Q563 676 581 633Q581 631 584 626Q587 619 592 619Q601 619
601 629Q601 651 575 675T512 700T449 696T381 683T298 668V356H338Q397 356 423 385T450 479H466V217H450Q450 282 424 311T338 340H298V25H362Z" />
<glyph unicode="G" glyph-name="G" horiz-adv-x="715" d="M441 -274Q392 -274 351 -242T310 -160T341 -77T413 -45T482 -71T510 -135T487 -200T422 -227T359 -190Q353 -178 347 -178Q337 -178 337 -189Q337 -193 344 -206T377 -237T437 -254Q494 -254 523 -219T553
-143T543 -76T519 -36Q491 -6 467 1L457 4Q417 -10 376 -10Q203 -10 116 89T28 357Q28 467 82 556Q143 657 259 697Q323 719 401 719Q509 719 568 667T628 552Q628 513 603 478T524 442T443 471T415 541T438 608T502 635Q575 635 588 554Q589 545 597 545Q608 545
608 555Q608 603 560 648T423 694Q381 694 352 681T298 633Q250 564 250 360Q250 13 394 13Q428 13 457 25V271H409V287H698V271H646V-29Q646 -147 591 -210T441 -274Z" />
<glyph unicode="H" glyph-name="H" horiz-adv-x="789" d="M321 361Q391 364 470 370V495Q470 597 498 654Q530 719 630 719Q695 719 729 682T764 585Q764 461 674 404V25H738V9H406V25H470V350Q419 346 396 345L321 342V204Q321 101 279 46T131 -10Q52 -10 9 37T-34
159T5 276T117 338V684H43V700H385V684H321V361ZM80 23Q117 23 117 80V318Q-14 282 -14 161Q-14 103 12 63T80 23ZM674 622V430Q744 482 744 587Q744 625 730 650T699 675T679 665T674 622Z" />
<glyph unicode="I" glyph-name="I" horiz-adv-x="416" d="M122 612Q215 612 268 645T322 750Q322 798 290 828T216 859T156 842Q153 839 153 834Q153 825 161 825Q164 825 177 832T208 839Q244 839 269 815T295 749T265 680T189 653T114 685T85 761T118 841T209
878T304 843T341 750T308 655V25H394V9H30V25H104V592Q73 592 40 598V617Q75 612 122 612Z" />
<glyph unicode="J" glyph-name="J" horiz-adv-x="460" d="M147 -110Q37 -110 -15 -60T-67 55Q-67 103 -35 143T47 184T130 153T162 81T136 12T72 -16T7 7T-20 72Q-20 118 17 136Q26 140 26 146Q26 156 15 156Q8 156 -5 146Q-48 112 -48 55T-6 -39T93 -77T172 -38T195
76V684H122V700H484V684H400V138Q400 25 339 -42T147 -110Z" />
<glyph unicode="K" glyph-name="K" horiz-adv-x="727" d="M440 189Q440 363 323 363Q319 363 315 363V22H378V9H47V22H111V687H47V700H362V687H315V382Q438 383 523 439T609 584Q609 633 581 663T504 693Q488 693 470 687T452 671T461 661Q463 661 476 666T502
672Q537 672 560 648T583 588T557 524T487 496T417 528T389 603T423 679T508 712T593 677T628 586T593 477T476 391L478 386Q652 348 652 143Q652 82 655 63T671 44Q695 44 695 126H712Q712 52 685 21T581 -10T472 40T440 189Z" />
<glyph unicode="L" glyph-name="L" horiz-adv-x="623" d="M298 684V19Q308 18 374 7T493 -4T582 26T619 110Q619 140 603 165Q577 205 538 205Q529 205 529 196T543 186T577 167T598 112T571 51T505 27T441 55T414 125T446 196T527 226T607 192T638 107T600 16T484
-23Q435 -23 344 -7T151 9H30V25H94V684H30V700H382V684H298Z" />
<glyph unicode="M" glyph-name="M" horiz-adv-x="889" d="M105 636V203Q105 117 112 86T132 46Q158 25 218 25H242V9H-39V25H-28Q30 27 58 50Q79 68 84 134Q85 158 85 204V612Q85 654 63 669T-7 684V700H292L426 381L613 700H869V684H805V25H869V9H543V25H607V636H600L435
361L492 226Q515 174 515 130T481 52T390 18Q272 18 272 104Q272 130 307 187L112 636H105ZM316 165Q291 125 291 103T303 66T326 51T343 58T350 80T335 125L317 166L316 165Z" />
<glyph unicode="N" glyph-name="N" horiz-adv-x="689" d="M116 505V119Q116 71 87 36T7 0T-76 31T-109 103T-83 172T-19 200T46 177T73 114Q73 92 66 76T50 55Q38 48 36 46Q28 42 28 37Q28 27 37 27Q41 27 49 31Q96 54 96 117V509Q96 565 75 612Q65 631 49 650Q22
684 -11 684V700H194Q235 700 261 687T317 627L570 220H574V466Q574 618 548 650Q519 684 461 684H428V700H719V684H707Q650 682 629 654Q617 639 610 624T599 579Q594 531 594 465V9H535Q494 9 468 22T412 82L112 554Q116 535 116 505Z" />
<glyph unicode="O" glyph-name="O" horiz-adv-x="746" d="M536 427Q582 427 620 457T672 554Q719 466 719 357Q719 243 667 152Q610 51 503 12Q445 -10 376 -10T249 11T152 68T85 152Q33 243 33 357Q33 519 133 619T424 719Q513 719 575 678T638 570Q638 528 608
496T535 464T463 491T434 557T457 623T520 650T583 615Q588 606 595 606Q605 606 605 614T597 632Q579 658 538 677T435 697T334 670Q255 616 255 357Q255 99 309 38Q334 9 376 9T443 38Q497 99 497 357Q497 412 496 433Q520 427 536 427Z" />
<glyph unicode="P" glyph-name="P" horiz-adv-x="637" d="M94 25V464Q133 422 193 422Q228 422 258 437T298 469V324H309Q398 324 425 365T452 515Q452 600 406 647T292 694T175 671T114 607Q112 599 112 596Q112 587 120 587T133 601T156 631T211 646T271 621T295
556T267 488T194 461T119 493T88 571Q88 646 156 682T327 719Q501 719 584 673T667 515Q667 420 610 363T421 305H298V25H361V9H30V25H94Z" />
<glyph unicode="Q" glyph-name="Q" horiz-adv-x="746" d="M478 4Q428 -10 366 -10T246 11T149 68T82 152Q30 243 30 357Q30 491 111 600Q151 653 219 686T373 719T527 688T635 604Q716 497 716 357Q716 250 668 158T525 21Q538 -74 552 -103Q577 -157 639 -157Q658
-157 671 -151T684 -137T675 -129Q674 -129 663 -133T640 -138Q606 -138 585 -112T564 -52T590 7T658 33T727 4T754 -68T719 -143T639 -175Q592 -175 566 -153Q551 -141 541 -131T521 -100T506 -68T491 -31T478 4ZM285 127T317 158T400 189T482 153Q494 228 494
360T480 569T440 673T373 700T306 673Q252 615 252 357Q252 144 287 68Q285 80 285 86Q285 127 317 158ZM373 9Q426 9 453 56Q421 107 366 107Q346 107 329 94T312 56T332 17Q348 9 373 9Z" />
<glyph unicode="R" glyph-name="R" horiz-adv-x="741" d="M452 521Q452 605 410 648T287 692Q229 692 179 669T115 607Q113 600 113 596Q113 587 121 587T134 601T156 631T210 646T270 618T294 552T265 488T194 461T121 493T90 570T116 647T186 692Q265 719 356
719Q510 719 587 675T664 526Q664 376 467 351V347Q566 347 620 301Q646 278 655 237T664 109V93Q664 39 686 39Q698 39 708 66T723 136L741 134Q737 98 731 76T711 32Q684 -10 602 -10T479 45Q463 67 457 94T451 194T432 297Q411 333 346 333H298V25H361V9H30V25H94V464Q133
422 193 422Q228 422 258 437T298 469V350H344Q401 350 429 384Q452 413 452 521Z" />
<glyph unicode="S" glyph-name="S" horiz-adv-x="643" d="M90 64Q47 106 47 158T76 240T148 271T219 243T248 177T225 110T163 81T105 108Q104 110 102 113T99 118Q96 123 91 123Q81 123 81 114T91 92Q119 56 172 35T289 13T396 39T440 119Q440 179 363 220Q329
238 288 255T206 294T131 342T76 411T54 506Q54 598 137 658T326 719T504 680T576 573Q576 526 548 492T474 458T401 485T373 552T396 618T460 645T527 603Q532 595 537 595Q547 595 547 606Q547 612 542 620Q525 649 474 674T355 699T254 673T220 603T249 526T321
474T415 430T509 382T582 315T611 215Q611 109 524 50T303 -10T90 64Z" />
<glyph unicode="T" glyph-name="T" horiz-adv-x="586" d="M713 670T673 635T576 599T438 621V25H512V9H160V25H234V682Q164 700 109 700T18 671T-19 614Q-19 604 -10 604Q-5 604 -3 606T0 610T2 615T4 620Q23 663 76 663Q114 663 138 637T162 570T135 505T63 479T-13
512T-43 597T1 683T115 719T348 669T569 618T661 649T694 734Q694 770 671 795T634 821T620 813T630 801Q670 781 670 739T644 672T580 648T515 676T488 748T520 819T600 848T681 814T713 725Z" />
<glyph unicode="U" glyph-name="U" horiz-adv-x="685" d="M516 666L538 668Q568 668 588 645T608 586T582 524T514 498T443 528T414 601T446 675T530 707Q608 707 643 642T678 449Q678 294 647 193Q619 101 560 50Q491 -10 383 -10Q242 -10 174 52Q116 105 100
226Q94 277 94 349V684H30V700H362V684H298V356Q298 197 319 138Q345 66 386 45Q411 32 444 32Q505 32 549 69T616 170Q658 291 658 449Q658 688 537 688Q507 688 507 677T516 666Z" />
<glyph unicode="V" glyph-name="V" horiz-adv-x="641" d="M368 0Q304 0 277 73L50 684H-8V700H347V684H266L448 189H463L585 481Q622 568 622 600T605 655T563 685Q555 687 552 687Q543 687 543 679T551 668Q602 650 602 597Q602 562 580 538T516 513T445 541T416
613T448 683T532 709T612 675T641 606T619 516L409 0H368Z" />
<glyph unicode="W" glyph-name="W" horiz-adv-x="1050" d="M0 684V700H371V684H290L457 228H472L564 446L474 684H416V700H787V684H706L873 228H888L994 481Q1031 568 1031 600T1014 655T972 685Q964 687 961 687Q952 687 952 679T960 668Q1011 650 1011 597Q1011
562 989 538T925 513T854 541T825 613T857 683T941 709T1021 675T1050 606T1028 516L822 9H738L573 421L403 9H322L58 684H0Z" />
<glyph unicode="X" glyph-name="X" horiz-adv-x="641" d="M678 25V9H317V25H383L276 238L217 107Q192 51 163 21T88 -10T8 16T-27 100Q-27 135 -1 166T68 197T136 172T163 112T140 53T84 29Q67 29 54 34L40 39Q31 39 31 31T41 18Q59 9 83 9T127 18T163 50Q183
77 214 144L265 259L51 684H-12V700H349V684H281L393 461L452 592Q477 648 506 678T581 709T661 683T696 599Q696 564 670 533T601 502T533 527T506 587T528 646T584 671Q599 671 612 667T627 662Q637 662 637 670T624 684T585 691T541 682T506 650T480 609T455
555L404 439L613 25H678Z" />
<glyph unicode="Y" glyph-name="Y" horiz-adv-x="567" d="M578 605Q578 652 549 679Q532 694 520 694T508 685Q508 678 515 675T525 670Q556 649 556 611T532 550T469 527T405 555T379 624T408 692T491 719T571 683T597 603T567 518L410 298V25H474V9H142V25H206V282L18
684H-40V700H321V684H234L401 318L547 521Q548 522 552 528T558 538T564 548T569 560T574 572Q578 586 578 605Z" />
<glyph unicode="Z" glyph-name="Z" horiz-adv-x="653" d="M359 687T281 698T152 710T66 682T29 625Q29 614 38 614Q43 614 45 616T48 620T50 625T52 630Q71 673 124 673Q162 673 186 646T210 579T182 512T109 485T35 520T5 607T49 693T160 729Q202 729 285 718T457
706T650 719L657 705L237 28Q300 25 388 8T510 -9Q578 -9 614 21T650 100T626 174T578 200Q569 200 569 190Q569 184 572 183L584 178Q610 170 621 138Q626 124 626 107Q626 70 599 47T534 23T470 51T443 121T475 194T557 225T637 190T669 109Q669 44 626 8T511
-28Q481 -28 381 -10T181 9T-9 -10L-18 6L400 687Q359 687 281 698Z" />
<glyph unicode="[" glyph-name="bracketleft" horiz-adv-x="306" d="M306 700V684H190V-198H306V-214H60V700H306Z" />
<glyph unicode="\" glyph-name="backslash" horiz-adv-x="348" d="M29 700L315 -114L295 -121L10 694L29 700Z" />
<glyph unicode="]" glyph-name="bracketright" horiz-adv-x="306" d="M116 -198V684H0V700H246V-214H0V-198H116Z" />
<glyph unicode="^" glyph-name="asciicircum" horiz-adv-x="477" d="M431 148L415 139L258 436L101 139L86 149L252 469H263L431 148Z" />
<glyph unicode="_" glyph-name="underscore" horiz-adv-x="438" d="M468 -193V-214H-26V-193H468Z" />
<glyph unicode="`" glyph-name="grave" horiz-adv-x="352" d="M30 611L35 629L333 547L328 530L30 611Z" />
<glyph unicode="a" glyph-name="a" horiz-adv-x="604" d="M337 160V253Q333 253 330 253Q283 253 251 228T219 147T235 66T278 40T321 78T337 160ZM544 47Q582 47 593 147L611 145Q592 -10 472 -10Q422 -10 391 23T356 104H350Q336 50 303 20T199 -10T79 21T30
122Q30 271 337 271V304Q337 401 313 432Q302 446 281 457T229 468Q172 468 129 442T85 385Q85 376 94 376Q100 376 102 379T105 386T107 392T111 401T129 417T167 427T208 406T226 353T203 301T145 279T86 303T61 363Q61 421 114 454T266 488T425 462T505 389T526
258V88Q526 47 544 47Z" />
<glyph unicode="b" glyph-name="b" horiz-adv-x="620" d="M264 61V9H13V25H75V684H4V700H64Q173 700 264 719V400H269Q288 448 321 468T409 488Q503 488 546 419T590 240T541 61T398 -10T269 61H264ZM260 239V212Q260 124 283 76T336 27Q388 27 388 239Q388 345
378 394T336 443Q300 443 280 380T260 239Z" />
<glyph unicode="c" glyph-name="c" horiz-adv-x="492" d="M375 18T411 57T458 154L460 164H478Q469 87 418 39T292 -10Q170 -10 100 55T30 238T101 422T294 488Q379 488 424 446T470 358T447 287T387 262T329 284T306 337T324 389T373 410Q415 410 428 370Q432
357 439 357Q448 357 448 367Q448 370 446 378Q418 460 327 460Q300 460 281 446T253 412T238 360Q232 319 232 258T233 166T240 104T255 56Q277 18 326 18Z" />
<glyph unicode="d" glyph-name="d" horiz-adv-x="621" d="M555 25H617V9H366V78H361Q342 30 309 10T221 -10Q133 -10 87 61T40 239Q40 488 235 488Q326 488 361 417H366V684H295V700H355Q464 700 555 719V25ZM370 239V266Q370 354 347 402T294 451Q266 451 254
400T242 245T252 88T294 35Q330 35 350 98T370 239Z" />
<glyph unicode="e" glyph-name="e" horiz-adv-x="536" d="M233 108T255 61T338 14T443 53T501 158L503 167L521 164Q507 82 452 36T309 -10Q176 -10 103 53T30 236T100 421T290 488Q388 488 453 452T519 339T458 231T299 199H233Q233 108 255 61ZM232 289V217H257Q302
217 319 247T337 337Q337 470 290 470Q259 470 246 434T232 289Z" />
<glyph unicode="f" glyph-name="f" horiz-adv-x="353" d="M293 608Q293 598 302 598Q313 598 313 618Q313 655 287 678T223 701T155 671T123 593Q123 469 287 469H336V453H261V25H336V9H10V25H72V453H10V469H72V523Q72 577 87 614T120 672Q159 719 226 719Q272
719 302 688T332 617T307 547T242 517T178 542T153 598T173 653T225 676T272 660T292 621L293 608Z" />
<glyph unicode="g" glyph-name="g" horiz-adv-x="543" d="M44 292Q44 386 111 437T274 488Q305 488 335 482Q310 510 310 550T337 619T404 648T470 625T496 566T475 508T423 485T371 503T350 551T370 597Q385 604 385 613T376 622Q370 622 361 616Q328 591 328
549Q328 496 389 465Q504 415 504 292Q504 198 437 147T274 96Q208 96 156 119Q92 92 92 63Q92 43 108 37T163 30T287 50T400 70Q458 70 492 40T526 -39Q526 -116 461 -170T305 -224Q197 -224 129 -139Q80 -135 50 -102T20 -23T50 65T136 130Q44 182 44 292ZM261
114T274 114T296 120T311 141T320 169T325 208T326 248T327 292T327 336T325 376T321 414T312 442T297 463T274 470T252 464T237 443T228 415T223 376T222 336T221 292T221 248T223 208T227 170T236 142T251 121ZM394 -101Q366 -101 276 -119T154 -139Q210 -206
305 -206Q357 -206 402 -186T448 -138Q448 -101 394 -101Z" />
<glyph unicode="h" glyph-name="h" horiz-adv-x="637" d="M81 684H10V700H70Q179 700 270 719V400H275Q294 448 327 468T415 488Q501 488 536 435T571 282V25H633V9H324V25H386V240Q386 343 377 390T337 438Q302 438 284 375T266 225V9H19V25H81V684Z" />
<glyph unicode="i" glyph-name="i" horiz-adv-x="332" d="M71 453H0V469H60Q169 469 260 488V25H322V9H9V25H71V453ZM126 530T99 557T71 624T98 691T166 719T233 692T260 625T233 558T166 530Z" />
<glyph unicode="j" glyph-name="j" horiz-adv-x="346" d="M274 -10Q274 -91 245 -152Q229 -185 197 -204T120 -224T45 -195T15 -126T38 -58T99 -31T159 -53T182 -107T163 -161T115 -182T68 -162Q60 -147 52 -147T43 -156Q43 -162 49 -171Q75 -206 120 -206T192
-175T219 -97T187 -20T101 12Q93 12 85 11V453H14V469H74Q183 469 274 488V-10ZM136 530T109 557T81 624T108 691T176 719T243 692T270 625T243 558T176 530Z" />
<glyph unicode="k" glyph-name="k" horiz-adv-x="614" d="M613 15L633 16L635 1Q527 -11 499 -11T442 0T398 29T374 76Q361 117 361 195T316 276Q296 274 270 272V25H338V9H15V25H81V684H10V700H70Q179 700 270 719V291Q376 299 440 332T505 427Q505 471 473 495Q464
501 458 501Q449 501 449 492Q449 487 455 482T464 476Q484 459 484 431T464 385T413 367T360 389T338 448T364 506T429 529T495 500T523 426Q523 345 419 303L420 299Q478 299 516 269Q533 256 546 228T559 151T567 68T585 25T613 15Z" />
<glyph unicode="l" glyph-name="l" horiz-adv-x="348" d="M85 25V684H14V700H74Q183 700 274 719V25H338V9H23V25H85Z" />
<glyph unicode="m" glyph-name="m" horiz-adv-x="921" d="M699 488Q785 488 820 435T855 282V25H917V9H608V25H670V240Q670 342 661 388T621 434Q586 434 568 360T550 195V9H324V25H386V240Q386 342 377 388T337 434Q302 434 284 360T266 195V9H19V25H81V453H10V469H70Q179
469 270 488V390H275Q314 488 415 488T553 389L554 390H559Q598 488 699 488Z" />
<glyph unicode="n" glyph-name="n" horiz-adv-x="637" d="M81 453H10V469H70Q179 469 270 488V390H275Q314 488 415 488Q501 488 536 435T571 282V25H633V9H324V25H386V240Q386 342 377 388T337 434Q302 434 284 360T266 195V9H19V25H81V453Z" />
<glyph unicode="o" glyph-name="o" horiz-adv-x="588" d="M412 -10T294 -10T103 58T30 239T103 419T294 488T485 420T558 239T485 59ZM356 109T356 239T343 419T294 470T246 420T232 239T245 59T294 8T342 58Z" />
<glyph unicode="p" glyph-name="p" horiz-adv-x="632" d="M266 62V-189H341V-205H15V-189H77V453H6V469H66Q175 469 266 488V400H271Q290 448 323 468T411 488Q505 488 548 419T592 241T543 62T400 -9T271 62H266ZM262 240V213Q262 125 285 77T338 28Q390 28 390
240Q390 346 380 394T338 443Q302 443 282 380T262 240Z" />
<glyph unicode="q" glyph-name="q" horiz-adv-x="630" d="M366 417V488Q457 469 566 469H626V453H555V-189H617V-205H291V-189H366V79H361Q342 31 309 11T221 -9Q132 -9 86 61T40 239Q40 488 235 488Q326 488 361 417H366ZM370 239V266Q370 354 347 402T294 451Q266
451 254 400T242 245T252 88T294 36Q330 36 350 99T370 239Z" />
<glyph unicode="r" glyph-name="r" horiz-adv-x="477" d="M270 407H275Q291 443 320 465T390 488T461 461T491 394T468 329T409 303T351 324T328 376T346 428T393 449T438 429Q446 414 454 414T463 423Q463 429 457 438Q433 470 389 470Q266 470 266 224V25H341V9H19V25H81V453H10V469H70Q179
469 270 488V407Z" />
<glyph unicode="s" glyph-name="s" horiz-adv-x="520" d="M416 446T386 456T311 467T238 448T209 397T238 342T308 300T390 260T461 205T490 130Q490 66 425 28T228 -10Q169 -10 108 11Q77 22 58 45T38 104T61 164T120 190T178 170T200 117T182 66T137 46T91 65Q89
67 88 68T86 71T84 73Q80 75 77 75Q69 75 69 66T84 44T136 20T217 9T295 24T328 69T299 124T229 171T145 216T74 271T45 342Q45 405 103 446T286 487Q378 487 424 457T470 376Q470 339 447 314T389 288T331 309T309 361T327 413T372 433T412 419T431 404Q440 404
440 413T428 434Z" />
<glyph unicode="t" glyph-name="t" horiz-adv-x="368" d="M279 47Q317 47 328 147L346 145Q337 71 304 31T206 -10Q72 -10 72 136V453H20V469H27Q74 469 144 505Q179 523 208 559T248 641H261V469H354V453H261V88Q261 47 279 47Z" />
<glyph unicode="u" glyph-name="u" horiz-adv-x="637" d="M565 25H627V9H376V87H371Q332 -11 231 -11Q145 -11 110 42T75 195V453H4V469H64Q169 469 260 488V237Q260 136 269 92T309 47Q344 47 362 115T380 272V452H309V469H369Q474 469 565 488V25Z" />
<glyph unicode="v" glyph-name="v" horiz-adv-x="509" d="M272 -10Q210 -10 164 23T91 114Q40 228 40 398V453H-31V469H29Q143 469 234 488V444Q234 264 266 168T353 72Q402 72 437 151T472 302T451 415T396 466Q388 468 385 468Q375 468 375 459Q375 452 388
448Q428 435 428 391Q428 361 408 343T356 324T302 346T280 405T305 464T376 488T456 443T491 310Q491 190 430 90T272 -10Z" />
<glyph unicode="w" glyph-name="w" horiz-adv-x="842" d="M606 -10Q494 -10 434 97Q369 -10 272 -10Q210 -10 164 23T91 114Q40 228 40 398V453H-31V469H29Q143 469 234 488V444Q234 264 266 168T353 72Q390 72 421 122Q374 227 374 398V453H303V469H363Q477 469
568 488V444Q568 264 600 168T687 72Q736 72 771 151T806 302T785 415T730 466Q722 468 719 468Q709 468 709 459Q709 452 722 448Q762 435 762 391Q762 361 742 343T690 324T636 346T614 405T639 464T710 488T790 443T825 310Q825 190 764 90T606 -10Z" />
<glyph unicode="x" glyph-name="x" horiz-adv-x="589" d="M350 370L429 202Q484 82 500 70Q508 63 518 63T538 73T553 94L558 104L575 100Q559 58 516 24T415 -10T327 17T263 115L254 132Q198 -10 107 -10Q63 -10 37 15T10 78T31 140T89 166T146 144T167 95T150
49T101 27Q89 27 89 18T107 8Q167 8 211 84Q225 107 244 155L181 290Q141 375 128 396T99 418T72 407T54 385L49 374L31 377Q49 421 89 454T185 488T277 465T340 390Q361 433 394 460T468 488T535 463T562 400T541 338T483 312T426 334T405 383T422 429T471 451Q483
451 483 460T458 470T401 442T350 370Z" />
<glyph unicode="y" glyph-name="y" horiz-adv-x="518" d="M386 488Q444 488 473 446T503 339Q503 188 401 101Q382 85 341 57T272 8T221 -45T198 -113Q198 -172 246 -199Q252 -203 257 -203Q266 -203 266 -194Q266 -189 258 -184Q227 -164 227 -133T246 -82T296
-61T351 -83T374 -142T349 -202T283 -226T211 -196T180 -118T202 -38T265 26Q142 66 100 162T57 437V453H-15V469H45Q162 469 253 488Q251 442 251 386T262 271T292 180Q327 117 362 117Q418 117 462 215Q485 267 485 341T445 449Q428 466 416 466T403 457Q403
451 412 447Q446 431 446 398T426 346T374 326T322 348T300 406T324 464T386 488Z" />
<glyph unicode="z" glyph-name="z" horiz-adv-x="538" d="M380 8Q468 8 498 62Q501 66 501 74T492 82Q487 82 485 78T479 69T475 62T470 56T463 50T454 46Q445 41 422 41T381 62T363 115T386 167T444 189T503 165T528 105Q528 53 488 22T380 -10Q359 -10 279 0T145
11T29 0V14L306 456Q189 470 180 470Q92 470 62 416Q59 412 59 404T68 396Q73 396 75 400T81 409T85 416T90 422T97 428T106 432Q115 437 138 437T179 416T197 363T175 310T117 289T57 313T32 373Q32 425 72 456T180 488Q201 488 281 478T417 467T510 473V459L237
24Q370 8 380 8Z" />
<glyph unicode="{" glyph-name="braceleft" horiz-adv-x="252" d="M146 236T158 214T171 159T148 62T125 -45Q125 -166 202 -184Q222 -189 252 -189V-205Q138 -205 68 -156T-3 -12Q-3 32 19 65T68 114Q140 157 140 191Q140 239 65 239V254Q140 254 140 304Q140
338 68 381Q42 397 20 430T-3 507Q-3 602 67 651T252 700V684Q222 684 202 679Q125 661 125 540Q125 496 148 433T171 337T158 280T110 247Q146 236 158 214Z" />
<glyph unicode="|" glyph-name="bar" horiz-adv-x="362" d="M192 719V-205H170V719H192Z" />
<glyph unicode="}" glyph-name="braceright" horiz-adv-x="255" d="M106 259T94 281T81 336T104 433T127 540Q127 661 50 679Q30 684 0 684V700Q114 700 184 651T255 507Q255 463 233 430T184 381Q112 338 112 304Q112 255 187 255V242Q112 242 112 191Q112 157
184 114Q210 98 232 65T255 -12Q255 -107 185 -156T0 -205V-189Q30 -189 50 -184Q127 -166 127 -45Q127 -1 104 62T81 158T94 215T142 248Q106 259 94 281Z" />
<glyph unicode="~" glyph-name="asciitilde" horiz-adv-x="586" d="M494 249T468 240T405 230T294 252T189 274Q127 274 60 227L52 243Q127 292 191 292Q229 292 298 270T406 248Q468 248 520 290L532 276Q494 249 468 240Z" />
<glyph unicode="&#xa0;" glyph-name="nbspace" horiz-adv-x="250" />
<glyph unicode="&#xa1;" glyph-name="exclamdown" horiz-adv-x="282" d="M133 254H151Q151 174 167 113T202 20Q253 -63 253 -118T225 -207T142 -241T60 -208T31 -131T47 -49T82 20T117 112T133 254ZM46 353T46 393T73 460T141 488T208 461T236 393T209 326T141
298T74 325Z" />
<glyph unicode="&#xa2;" glyph-name="cent" horiz-adv-x="530" d="M301 -62H281V19Q164 24 101 88T37 248T100 408T281 478V570H301V479Q386 479 431 437T477 349T454 278T394 253T336 275T313 328T331 380T380 401Q422 401 435 361Q439 348 446 348Q455 348 455
358Q455 361 453 369Q425 451 334 451Q282 451 259 405T235 252Q235 47 329 47Q382 47 418 86T465 183L467 193H485Q476 116 426 68T301 19V-62Z" />
<glyph unicode="&#xa3;" glyph-name="sterling" horiz-adv-x="509" d="M397 253V232H292Q302 197 302 171T295 118Q343 102 378 102T435 114T460 162H478Q478 153 478 134T472 82T440 20T372 -10Q314 -10 245 42Q197 1 125 1Q88 1 54 22T20 80T52 140T124 164T202
151Q188 176 134 232H42V253H114Q60 309 60 356Q60 431 128 469T290 508T429 475T474 398T451 328T391 303T333 325T310 378T328 430T377 451Q419 451 432 411Q436 398 443 398Q452 398 452 408Q452 411 450 419Q439 450 408 465T338 481Q255 481 255 386Q255 343
279 274Q284 259 286 253H397ZM124 19Q200 19 215 64Q153 113 104 113Q76 113 61 101T46 70T69 35T124 19Z" />
<glyph unicode="&#xa4;" glyph-name="currency" horiz-adv-x="614" d="M233 454T307 454T433 411L514 489L564 443L475 368Q512 310 512 236T472 113L561 34L510 -11L431 70Q381 23 307 23T183 70L104 -11L53 34L142 113Q102 162 102 236T139 368L50 443L100 489L181
411Q233 454 307 454ZM254 86T307 86T360 238T307 391T254 239Z" />
<glyph unicode="&#xa5;" glyph-name="yen" horiz-adv-x="548" d="M81 194V210H174L51 472H10V488H303V472H249L355 243L418 388Q430 415 430 434Q430 472 363 472H345V488H538V472Q473 472 455 431L363 221V210H464V194H363V150H464V134H363V25H415V9H122V25H174V134H81V150H174V194H81Z"
/>
<glyph unicode="&#xa6;" glyph-name="brokenbar" horiz-adv-x="221" d="M122 -120H100V232H122V-120ZM122 367H100V719H122V367Z" />
<glyph unicode="&#xa7;" glyph-name="section" horiz-adv-x="631" d="M348 719Q447 719 495 678T543 582Q543 545 519 520T456 494T394 516T370 571T390 626T441 648T488 631Q504 614 507 585Q509 577 517 577T525 585T523 604T510 632T484 664T435 689T354 700T266
677T226 604Q226 571 252 541T319 489T406 440T493 388T559 326T586 241T558 149T478 76Q534 20 534 -46Q534 -129 470 -176T271 -224Q174 -224 122 -185T70 -92Q70 -54 94 -27T157 1T219 -21T243 -76T223 -131T172 -153T125 -136Q109 -119 106 -90Q104 -82 96
-82T88 -91T90 -110T104 -138T132 -170T185 -195T270 -206T364 -181T407 -109Q407 -76 381 -46T314 6T227 55T140 107T74 169T47 253T74 344T154 417Q99 468 99 545T160 670T348 719ZM168 405Q135 382 135 347T171 279T256 221Q407 141 464 89Q498 113 498 146T464
212T384 268Q240 345 179 396L168 405Z" />
<glyph unicode="&#xa8;" glyph-name="dieresis" horiz-adv-x="747" d="M404 556T404 581T422 623T465 641T507 624T525 581T508 538T465 520T422 538ZM224 556T224 581T241 623T284 641T327 624T345 581T327 538T284 520T242 538Z" />
<glyph unicode="&#xa9;" glyph-name="copyright" horiz-adv-x="811" d="M546 453Q564 453 572 480H585V290H572Q570 297 564 319T555 353T544 384T530 415T512 438Q493 461 460 461Q374 461 374 237Q374 122 403 77T505 31Q603 31 668 96T733 269Q733 409 644
496T416 583T178 483T78 243T177 3T417 -97Q509 -97 586 -56L592 -80Q510 -124 417 -124Q265 -124 158 -17T50 243T157 502T415 610T663 516T761 271Q761 155 686 78T473 0Q358 0 285 61T212 253Q212 344 275 412T447 480Q477 480 508 467T546 453Z" />
<glyph unicode="&#xaa;" glyph-name="ordfeminine" horiz-adv-x="384" d="M207 425V451Q186 451 174 449T149 435T136 398T144 359T167 345T194 370T207 425ZM209 353T184 331T121 308T53 327T24 381T43 434T97 460Q148 469 207 469V490Q207 561 179 577Q165 585
139 585T90 574Q60 558 60 537Q60 528 68 528T79 538Q87 561 108 561T140 548T151 516T135 484T94 471T55 488T40 528Q40 562 71 583T161 605Q254 605 286 574T319 468V366Q319 347 330 347Q338 347 346 361T359 401L377 399Q365 308 287 308Q257 308 240 328T220
378H216Q209 353 184 331ZM74 227V248H307V227H74Z" />
<glyph unicode="&#xab;" glyph-name="guillemotleft" horiz-adv-x="313" d="M5 237L134 409L151 396L32 237L151 78L134 65L5 237ZM144 237H117L246 409L263 396L144 237ZM117 237H144L263 78L246 65L117 237Z" />
<glyph unicode="&#xac;" glyph-name="logicalnot" horiz-adv-x="513" d="M34 242V263H478V96H456V242H34Z" />
<glyph unicode="&#xae;" glyph-name="registered" horiz-adv-x="834" d="M599 3Q488 3 488 127Q488 176 482 192T463 213T429 218H397V26H439V9H211V26H254V452H211V469H446Q540 469 589 444T639 362T607 276T503 240V231Q518 232 531 232Q587 232 618 209T649
111V102Q649 63 671 63Q703 63 729 114T756 253Q756 398 658 490T419 583T178 483T78 243T177 3T417 -97Q504 -97 577 -58L592 -80Q510 -124 417 -124Q265 -124 158 -17T50 243T157 502T418 610T678 510T784 253Q784 139 734 71T599 3ZM397 452V237H428Q489 237
489 339Q489 408 474 430T418 452H397Z" />
<glyph unicode="&#xaf;" glyph-name="overscore" horiz-adv-x="283" d="M2 570V589H281V570H2Z" />
<glyph unicode="&#xb0;" glyph-name="degree" horiz-adv-x="280" d="M24 504T24 552T58 634T140 668T222 634T256 552T222 470T140 436T58 470ZM55 587T55 552T80 492T140 467T200 492T225 552T200 612T140 637T80 612Z" />
<glyph unicode="&#xb1;" glyph-name="plusminus" horiz-adv-x="615" d="M83 276V297H310V474H330V297H557V276H330V100H310V276H83ZM557 51V30H83V51H557Z" />
<glyph unicode="&#xb2;" glyph-name="twosuperior" horiz-adv-x="428" d="M50 293Q50 334 69 367T116 422T172 464Q238 512 238 562Q238 590 221 611T168 632T106 611T79 558Q79 548 87 548Q97 548 97 557Q99 577 111 589T146 602T182 587T196 547T177 505T129
487T80 507T61 556Q61 600 99 628T196 656Q284 656 326 624T368 543T340 467T245 434Q153 423 122 402Q105 389 95 371L100 367Q124 391 139 394Q170 400 198 400H326Q365 400 366 435H378V293H50ZM108 227V248H341V227H108Z" />
<glyph unicode="&#xb3;" glyph-name="threesuperior" horiz-adv-x="412" d="M181 283Q117 283 84 306T50 365T70 419T118 437T163 421T180 383T166 345T129 328T89 350Q86 355 82 355Q73 355 73 346Q73 344 75 340Q94 307 135 307T199 328T222 382T207 439T164
463Q154 463 121 452L116 469Q124 469 147 479T178 494T195 507T211 523Q225 542 225 572T207 619T161 636T110 621T88 583Q88 574 97 574Q103 574 107 586Q118 616 151 616Q173 616 187 600T201 560T184 519T137 501T88 521T69 576T104 633T199 656T297 634T334
577T306 520T221 494L225 485Q232 486 245 486Q293 486 327 463T362 393T321 315T181 283ZM98 227V248H331V227H98Z" />
<glyph unicode="&#xb4;" glyph-name="acute" horiz-adv-x="328" d="M315 629L320 611L22 530L17 547L315 629Z" />
<glyph unicode="&#xb5;" glyph-name="mu" horiz-adv-x="665" d="M388 455H317V469H377Q486 469 577 488V14H645V0H388V91H384Q353 15 281 -4Q266 -8 256 -21T245 -56T270 -92H269Q308 -112 308 -157Q308 -188 287 -209T234 -231T182 -210T160 -157Q160 -112 198
-92Q223 -79 223 -51Q223 -35 212 -22T185 -4Q81 23 81 197V455H10V469H70Q179 469 270 488V174Q270 107 282 78T320 48Q350 48 369 103T388 240V455Z" />
<glyph unicode="&#xb6;" glyph-name="paragraph" horiz-adv-x="497" d="M262 -186L245 -185Q235 -185 235 -194Q235 -206 262 -206Q323 -206 360 -161T397 -40V684Q360 686 331 689V-43Q299 -2 235 -2Q231 -2 226 -2V322Q215 320 194 320Q109 320 54 376T-1 517T59
660T216 719Q237 719 313 710T486 700V684H415V-35Q415 -127 371 -175T257 -224Q210 -224 178 -196T146 -124T174 -54T240 -28T304 -50T332 -108T311 -164T262 -186Z" />
<glyph unicode="&#xb7;" glyph-name="middot" horiz-adv-x="294" d="M106 143T78 171T50 240T78 309T147 338T216 310T245 240T217 171T147 143Z" />
<glyph unicode="&#xb8;" glyph-name="cedilla" horiz-adv-x="375" d="M134 -70Q160 -53 199 -53T269 -82T299 -153T270 -222T205 -249T147 -224T125 -166T147 -114T195 -94T240 -112T261 -151T271 -172T280 -160Q280 -130 259 -101T198 -72Q175 -72 153 -83T119
-112L102 -94L139 4L159 -4L134 -70Z" />
<glyph unicode="&#xb9;" glyph-name="onesuperior" horiz-adv-x="359" d="M136 550H131Q122 532 104 518T72 498L58 492L50 510Q108 537 124 587Q132 612 132 645H164Q227 645 262 656V310H319V290H79V310H136V550ZM84 227V248H317V227H84Z" />
<glyph unicode="&#xba;" glyph-name="ordmasculine" horiz-adv-x="365" d="M63 227V248H296V227H63ZM340 390T296 349T182 308T68 348T25 456T68 564T181 605T296 564T340 457ZM203 326T211 353T219 456T211 559T182 587T154 560T146 457T153 354T182 326Z" />
<glyph unicode="&#xbb;" glyph-name="guillemotright" horiz-adv-x="313" d="M169 237L50 396L67 409L196 237L67 65L50 78L169 237ZM281 237L162 396L179 409L308 237L179 65L162 78L281 237Z" />
<glyph unicode="&#xbc;" glyph-name="onequarter" horiz-adv-x="829" d="M116 550H111Q102 532 84 518T52 498L38 492L30 510Q88 537 104 587Q112 612 112 645H144Q207 645 242 656V310H299V290H59V310H116V550ZM207 10L567 656L588 650L227 2L207 10ZM376 133V142Q436
171 505 262T583 443Q628 443 678 454V164H769V133H678V20H552V133H376ZM443 164H552V293H550Q525 252 499 221T458 178L443 167V164Z" />
<glyph unicode="&#xbd;" glyph-name="onehalf" horiz-adv-x="857" d="M488 65Q488 106 507 139T554 194T610 236Q676 284 676 334Q676 362 659 383T606 404T544 383T517 330Q517 320 525 320Q535 320 535 329Q537 349 549 361T584 374T620 359T634 319T615 277T567
259T518 279T499 328Q499 372 537 400T634 428Q722 428 764 396T806 315T778 239T683 206Q591 195 560 174Q543 161 533 143L538 139Q562 163 577 166Q608 172 636 172H764Q803 172 804 207H816V65H488ZM207 10L567 656L588 650L227 2L207 10ZM117 550H112Q103
532 85 518T52 498L39 492L31 510Q89 537 105 587Q113 612 113 645H145Q207 645 242 656V310H299V290H60V310H117V550Z" />
<glyph unicode="&#xbe;" glyph-name="threequarters" horiz-adv-x="819" d="M133 283Q69 283 36 306T2 365T22 419T70 437T115 421T132 383T118 345T81 328T41 350Q38 355 34 355Q25 355 25 346Q25 344 27 340Q46 307 87 307T151 328T174 382T159 439T116 463Q106
463 73 452L68 469Q76 469 99 479T130 494T147 507T163 523Q177 542 177 572T159 619T113 636T62 621T40 583Q40 574 49 574Q55 574 59 586Q70 616 103 616Q125 616 139 600T153 560T136 519T89 501T40 521T21 576T56 633T151 656T249 634T286 577T258 520T173
494L177 485Q189 486 197 486Q245 486 279 463T314 393T273 315T133 283ZM207 10L567 656L588 650L227 2L207 10ZM376 133V142Q436 171 505 262T583 443Q628 443 678 454V164H769V133H678V20H552V133H376ZM443 164H552V293H550Q525 252 499 221T458 178L443 167V164Z"
/>
<glyph unicode="&#xbf;" glyph-name="questiondown" horiz-adv-x="522" d="M294 488T317 465T340 410T317 354T262 331T206 354T183 409T206 465T261 488ZM295 297T323 274T352 214T338 149T306 103T274 43T259 -56Q259 -205 364 -205Q413 -205 451 -172T490 -93Q490
-70 482 -58T468 -45Q459 -45 459 -54Q459 -57 465 -67T471 -99T451 -139T401 -157T348 -135T326 -78T350 -19T414 5T481 -22T508 -92Q508 -157 448 -199T295 -242Q172 -242 114 -194T56 -71Q56 -19 84 20T152 81T233 121T302 162T330 215T309 262T259 279Q206
279 166 228L153 240Q196 297 258 297Q295 297 323 274Z" />
<glyph unicode="&#xc0;" glyph-name="Agrave" horiz-adv-x="612" d="M632 25V9H310V25H378L298 251H135L96 138Q86 111 86 87Q86 25 176 25H209V9H-47V25Q-17 25 3 31T37 57T58 92T78 145L247 629Q261 671 278 687Q305 711 351 711L594 25H632ZM217 482L140 265H293L217
482ZM158 838L163 856L461 774L456 757L158 838Z" />
<glyph unicode="&#xc1;" glyph-name="Aacute" horiz-adv-x="612" d="M632 25V9H310V25H378L298 251H135L96 138Q86 111 86 87Q86 25 176 25H209V9H-47V25Q-17 25 3 31T37 57T58 92T78 145L247 629Q261 671 278 687Q305 711 351 711L594 25H632ZM217 482L140 265H293L217
482ZM502 856L507 838L209 757L204 774L502 856Z" />
<glyph unicode="&#xc2;" glyph-name="Acircumflex" horiz-adv-x="612" d="M632 25V9H310V25H375L298 247H133L98 144Q85 105 85 86Q85 51 108 38T175 25H210V9H-47V25Q-17 25 2 31T36 57T56 92T76 145L249 635Q257 658 264 671T293 697T351 711L590 25H632ZM216
485L139 263H293L216 485ZM304 836V856L489 779L483 762L304 836ZM304 856V836L125 762L119 779L304 856Z" />
<glyph unicode="&#xc3;" glyph-name="Atilde" horiz-adv-x="612" d="M632 25V9H310V25H378L298 251H135L96 138Q86 111 86 87Q86 25 176 25H209V9H-47V25Q-17 25 3 31T37 57T58 92T78 145L247 629Q261 671 278 687Q305 711 351 711L594 25H632ZM217 482L140 265H293L217
482ZM373 775Q346 775 299 791T226 807T180 799T150 782L140 774L126 789Q166 827 223 827Q258 827 303 811T373 795T418 803T448 820L458 828L472 813Q434 775 373 775Z" />
<glyph unicode="&#xc4;" glyph-name="Adieresis" horiz-adv-x="612" d="M632 25V9H310V25H378L298 251H135L96 138Q86 111 86 87Q86 25 176 25H209V9H-47V25Q-17 25 3 31T37 57T58 92T78 145L247 629Q261 671 278 687Q305 711 351 711L594 25H632ZM217 482L140
265H293L217 482ZM333 791T333 816T351 858T394 876T436 859T454 816T437 773T394 755T351 773ZM153 791T153 816T170 858T213 876T256 859T274 816T256 773T213 755T171 773Z" />
<glyph unicode="&#xc5;" glyph-name="Aring" horiz-adv-x="612" d="M632 25V9H310V25H378L298 251H135L96 138Q86 111 86 87Q86 25 176 25H209V9H-47V25Q-17 25 3 31T37 57T58 92T78 145L247 629Q261 671 278 687Q305 711 351 711L594 25H632ZM217 482L140 265H293L217
482ZM264 833T264 816T276 786T305 773T334 786T347 816T335 845T306 858T277 846ZM280 755T263 772T246 815T263 858T305 876T347 859T365 816T348 773T305 755Z" />
<glyph unicode="&#xc6;" glyph-name="AE" horiz-adv-x="912" d="M226 347V349L101 138Q82 105 82 82Q82 51 104 38T157 25H195V9H-91V25Q-25 25 8 44T74 120L379 636Q399 671 426 685T498 700H875V469H861Q861 580 814 632T651 684H576V361H613Q748 361 748 507H762V198H748Q748
271 711 309T609 347H576V25H637Q789 25 838 104Q862 144 871 189T880 300H894V9H298V25H372V347H226ZM372 361V585H365L233 361H372Z" />
<glyph unicode="&#xc7;" glyph-name="Ccedilla" horiz-adv-x="651" d="M319 700T286 618T252 360T285 99T396 13Q458 13 506 53T577 146T600 246H621Q614 127 544 59T378 -10Q205 -10 118 89T30 357Q30 491 111 600Q151 653 219 686T373 719Q426 719 472 702T538
684T568 692T587 719H600V435H587Q577 469 573 483T557 532T536 583T511 627T480 667Q440 700 396 700Q319 700 286 618ZM294 -70Q320 -53 359 -53T429 -82T459 -153T430 -222T365 -249T307 -224T285 -166T307 -114T355 -94T400 -112T421 -151T431 -172T440 -160Q440
-130 419 -101T358 -72Q335 -72 313 -83T279 -112L262 -94L299 4L319 -4L294 -70Z" />
<glyph unicode="&#xc8;" glyph-name="Egrave" horiz-adv-x="686" d="M30 9V25H94V684H30V700H597V472H581Q581 582 535 633T373 684H298V376H335Q467 376 467 519H484V214H467Q467 286 432 323T331 360H298V25H359Q510 25 558 102Q583 141 591 185T600 294H616V9H30ZM191
846L196 864L494 782L489 765L191 846Z" />
<glyph unicode="&#xc9;" glyph-name="Eacute" horiz-adv-x="686" d="M30 9V23H94V686H30V700H597V472H583Q583 582 536 634T373 686H298V375H335Q470 375 470 519H484V214H470Q470 286 433 323T331 361H298V23H359Q532 23 577 132Q602 192 602 294H616V9H30ZM502
856L507 838L209 757L204 774L502 856Z" />
<glyph unicode="&#xca;" glyph-name="Ecircumflex" horiz-adv-x="686" d="M30 9V25H94V684H30V700H597V472H581Q581 582 535 633T373 684H298V376H335Q467 376 467 519H484V214H467Q467 286 432 323T331 360H298V25H359Q510 25 558 102Q583 141 591 185T600 294H616V9H30ZM361
836V856L546 779L540 762L361 836ZM361 856V836L182 762L176 779L361 856Z" />
<glyph unicode="&#xcb;" glyph-name="Edieresis" horiz-adv-x="686" d="M30 9V23H94V686H30V700H597V472H583Q583 582 536 634T373 686H298V375H335Q470 375 470 519H484V214H470Q470 286 433 323T331 361H298V23H359Q532 23 577 132Q602 192 602 294H616V9H30ZM373
791T373 816T391 858T434 876T476 859T494 816T477 773T434 755T391 773ZM193 791T193 816T210 858T253 876T296 859T314 816T296 773T253 755T211 773Z" />
<glyph unicode="&#xcc;" glyph-name="Igrave" horiz-adv-x="424" d="M394 25V9H30V25H104V684H30V700H392V684H308V25H394ZM60 850L65 868L363 786L358 769L60 850Z" />
<glyph unicode="&#xcd;" glyph-name="Iacute" horiz-adv-x="424" d="M394 25V9H30V25H104V684H30V700H392V684H308V25H394ZM372 856L377 838L79 757L74 774L372 856Z" />
<glyph unicode="&#xce;" glyph-name="Icircumflex" horiz-adv-x="424" d="M394 25V9H30V25H104V684H30V700H392V684H308V25H394ZM210 836V856L395 779L389 762L210 836ZM210 856V836L31 762L25 779L210 856Z" />
<glyph unicode="&#xcf;" glyph-name="Idieresis" horiz-adv-x="424" d="M394 23V9H30V23H104V686H30V700H392V686H308V23H394ZM235 791T235 816T253 858T296 876T338 859T356 816T339 773T296 755T253 773ZM55 791T55 816T72 858T115 876T158 859T176 816T158
773T115 755T73 773Z" />
<glyph unicode="&#xd0;" glyph-name="Eth" horiz-adv-x="762" d="M351 0H30V14H94V356H30V377H94V686H30V700H341Q551 700 644 602Q732 509 732 354T640 99T351 0ZM298 14H331Q421 14 465 92T510 354T465 612T338 686H298V377H406V356H298V14Z" />
<glyph unicode="&#xd1;" glyph-name="Ntilde" horiz-adv-x="689" d="M116 505V119Q116 71 87 36T7 0T-76 31T-109 103T-83 172T-19 200T46 177T73 114Q73 92 66 76T50 55Q38 48 36 46Q28 42 28 37Q28 27 37 27Q41 27 49 31Q96 54 96 117V509Q96 565 75 612Q65
631 49 650Q22 684 -11 684V700H194Q235 700 261 687T317 627L570 220H574V466Q574 618 548 650Q519 684 461 684H428V700H719V684H707Q650 682 629 654Q617 639 610 624T599 579Q594 531 594 465V9H535Q494 9 468 22T412 82L112 554Q116 535 116 505ZM426 781Q399
781 352 797T279 813T233 805T202 788L193 780L179 795Q219 833 276 833Q311 833 356 817T426 801T471 809T502 826L511 834L525 819Q487 781 426 781Z" />
<glyph unicode="&#xd2;" glyph-name="Ograve" horiz-adv-x="746" d="M442 -10T373 -10T246 11T149 68T82 152Q30 243 30 357Q30 491 111 600Q151 653 219 686T373 719T527 688T635 604Q716 497 716 357Q716 243 664 152Q607 51 500 12Q442 -10 373 -10ZM331 9T373
9T440 37T479 143T494 357T480 569T440 673T373 700T306 673T267 570T252 357T266 144T306 38ZM235 838L240 856L538 774L533 757L235 838Z" />
<glyph unicode="&#xd3;" glyph-name="Oacute" horiz-adv-x="746" d="M442 -10T373 -10T246 11T149 68T82 152Q30 243 30 357Q30 491 111 600Q151 653 219 686T373 719T527 688T635 604Q716 497 716 357Q716 243 664 152Q607 51 500 12Q442 -10 373 -10ZM331 9T373
9T440 37T479 143T494 357T480 569T440 673T373 700T306 673T267 570T252 357T266 144T306 38ZM492 856L497 838L199 757L194 774L492 856Z" />
<glyph unicode="&#xd4;" glyph-name="Ocircumflex" horiz-adv-x="746" d="M442 -10T373 -10T246 11T149 68T82 152Q30 243 30 357Q30 491 111 600Q151 653 219 686T373 719T527 688T635 604Q716 497 716 357Q716 243 664 152Q607 51 500 12Q442 -10 373 -10ZM331
9T373 9T440 37T479 143T494 357T480 569T440 673T373 700T306 673T267 570T252 357T266 144T306 38ZM374 836V856L559 779L553 762L374 836ZM374 856V836L195 762L189 779L374 856Z" />
<glyph unicode="&#xd5;" glyph-name="Otilde" horiz-adv-x="746" d="M442 -10T373 -10T246 11T149 68T82 152Q30 243 30 357Q30 491 111 600Q151 653 219 686T373 719T527 688T635 604Q716 497 716 357Q716 243 664 152Q607 51 500 12Q442 -10 373 -10ZM331 9T373
9T440 37T479 143T494 357T480 569T440 673T373 700T306 673T267 570T252 357T266 144T306 38ZM450 775Q423 775 376 791T303 807T257 799T226 782L217 774L203 789Q243 827 300 827Q335 827 380 811T450 795T495 803T526 820L535 828L549 813Q511 775 450 775Z"
/>
<glyph unicode="&#xd6;" glyph-name="Odieresis" horiz-adv-x="746" d="M442 -10T373 -10T246 11T149 68T82 152Q30 243 30 357Q30 491 111 600Q151 653 219 686T373 719T527 688T635 604Q716 497 716 357Q716 243 664 152Q607 51 500 12Q442 -10 373 -10ZM331
9T373 9T440 37T479 143T494 357T480 569T440 673T373 700T306 673T267 570T252 357T266 144T306 38ZM403 791T403 816T421 858T464 876T506 859T524 816T507 773T464 755T421 773ZM223 791T223 816T240 858T283 876T326 859T344 816T326 773T283 755T241 773Z"
/>
<glyph unicode="&#xd7;" glyph-name="multiply" horiz-adv-x="456" d="M70 394L86 408L236 252L387 408L402 393L251 237L412 72L397 57L237 222L77 57L62 72L222 237L70 394Z" />
<glyph unicode="&#xd8;" glyph-name="Oslash" horiz-adv-x="746" d="M111 600Q151 653 219 686T362 719T493 700L528 799L550 792L515 692Q613 651 664 559T716 357Q716 243 664 152Q607 51 500 12Q442 -10 381 -10T270 3L232 -106L211 -99L249 10Q142 48 86 145T30
366T111 600ZM281 646T267 570T252 334T278 91L466 624Q440 700 373 700Q331 700 306 673ZM373 9Q415 9 440 38Q494 99 494 357Q494 505 477 585L291 60Q318 9 373 9Z" />
<glyph unicode="&#xd9;" glyph-name="Ugrave" horiz-adv-x="734" d="M764 700V684Q633 684 633 500V302Q633 136 579 63T384 -10T174 52Q94 124 94 349V684H30V700H362V684H298V356Q298 279 305 204Q309 162 319 133T344 77T385 36T446 22T509 32Q558 51 586 108Q615
168 615 303V500Q615 594 575 639T444 684V700H764ZM218 838L223 856L521 774L516 757L218 838Z" />
<glyph unicode="&#xda;" glyph-name="Uacute" horiz-adv-x="734" d="M764 700V684Q633 684 633 500V302Q633 136 579 63T384 -10T174 52Q94 124 94 349V684H30V700H362V684H298V356Q298 279 305 204Q309 162 319 133T344 77T385 36T446 22T509 32Q558 51 586 108Q615
168 615 303V500Q615 594 575 639T444 684V700H764ZM562 856L567 838L269 757L264 774L562 856Z" />
<glyph unicode="&#xdb;" glyph-name="Ucircumflex" horiz-adv-x="734" d="M764 700V684Q633 684 633 500V302Q633 136 579 63T384 -10T174 52Q94 124 94 349V684H30V700H362V684H298V356Q298 279 305 204Q309 162 319 133T344 77T385 36T446 22T509 32Q558 51
586 108Q615 168 615 303V500Q615 594 575 639T444 684V700H764ZM413 836V856L598 779L592 762L413 836ZM413 856V836L234 762L228 779L413 856Z" />
<glyph unicode="&#xdc;" glyph-name="Udieresis" horiz-adv-x="734" d="M764 700V686Q633 686 633 502V302Q633 136 579 64T384 -9T174 52Q94 124 94 349V686H30V700H362V686H298V356Q298 278 306 191Q312 134 344 77Q376 23 444 23Q529 23 570 80Q615 142 615
303V502Q615 596 575 641T444 686V700H764ZM427 791T427 816T445 858T488 876T530 859T548 816T531 773T488 755T445 773ZM247 791T247 816T264 858T307 876T350 859T368 816T350 773T307 755T265 773Z" />
<glyph unicode="&#xdd;" glyph-name="Yacute" horiz-adv-x="643" d="M516 617Q516 686 411 686H383V700H673V686Q582 686 552 625L410 300V14H474V0H142V14H206V284L18 686H-40V700H321V686H234L402 326L497 544Q516 585 516 617ZM482 856L487 838L189 757L184
774L482 856Z" />
<glyph unicode="&#xde;" glyph-name="Thorn" horiz-adv-x="666" d="M95 684H27V700H351V684H284V570H355Q505 570 573 524T641 378T572 228T380 177Q328 177 284 188V25H352V9H28V25H95V684ZM299 554H284V210Q310 202 330 202Q439 202 439 381Q439 478 410 516T299 554Z" />
<glyph unicode="&#xdf;" glyph-name="germandbls" horiz-adv-x="688" d="M7 9V25H67V517Q67 573 90 613T154 676Q231 719 340 719Q486 719 547 686T608 587Q608 528 560 498Q511 469 440 454Q429 451 423 449T408 445T395 440T384 435Q375 430 375 422Q375 403
452 378Q531 353 596 312Q629 291 651 256T673 176Q673 85 603 38T459 -10T347 19T308 91T331 160T390 186T448 165T471 113T453 61T406 40T361 60Q354 75 345 75T336 66Q336 60 342 51Q374 9 438 9Q481 9 511 32T541 93T517 156T459 198T390 233T331 280T307 344T321
401T357 440T398 473Q448 514 448 584Q448 700 345 700Q293 700 275 663T256 526V25H316V9H7Z" />
<glyph unicode="&#xe0;" glyph-name="agrave" horiz-adv-x="604" d="M337 160V253Q333 253 330 253Q283 253 251 228T219 147T235 66T278 40T321 78T337 160ZM544 47Q582 47 593 147L611 145Q592 -10 472 -10Q422 -10 391 23T356 104H350Q336 50 303 20T199 -10T79
21T30 122Q30 271 337 271V304Q337 401 313 432Q302 446 281 457T229 468Q172 468 129 442T85 385Q85 376 94 376Q100 376 102 379T105 386T107 392T111 401T129 417T167 427T208 406T226 353T203 301T145 279T86 303T61 363Q61 421 114 454T266 488T425 462T505
389T526 258V88Q526 47 544 47ZM150 611L155 629L453 547L448 530L150 611Z" />
<glyph unicode="&#xe1;" glyph-name="aacute" horiz-adv-x="604" d="M337 160V253Q333 253 330 253Q283 253 251 228T219 147T235 66T278 40T321 78T337 160ZM544 47Q582 47 593 147L611 145Q592 -10 472 -10Q422 -10 391 23T356 104H350Q336 50 303 20T199 -10T79
21T30 122Q30 271 337 271V304Q337 401 313 432Q302 446 281 457T229 468Q172 468 129 442T85 385Q85 376 94 376Q100 376 102 379T105 386T107 392T111 401T129 417T167 427T208 406T226 353T203 301T145 279T86 303T61 363Q61 421 114 454T266 488T425 462T505
389T526 258V88Q526 47 544 47ZM448 629L453 611L155 530L150 547L448 629Z" />
<glyph unicode="&#xe2;" glyph-name="acircumflex" horiz-adv-x="604" d="M337 160V253Q333 253 330 253Q283 253 251 228T219 147T235 66T278 40T321 78T337 160ZM544 47Q582 47 593 147L611 145Q592 -10 472 -10Q422 -10 391 23T356 104H350Q336 50 303 20T199
-10T79 21T30 122Q30 271 337 271V304Q337 401 313 432Q302 446 281 457T229 468Q172 468 129 442T85 385Q85 376 94 376Q100 376 102 379T105 386T107 392T111 401T129 417T167 427T208 406T226 353T203 301T145 279T86 303T61 363Q61 421 114 454T266 488T425
462T505 389T526 258V88Q526 47 544 47ZM302 609V629L487 552L481 535L302 609ZM302 629V609L123 535L117 552L302 629Z" />
<glyph unicode="&#xe3;" glyph-name="atilde" horiz-adv-x="604" d="M337 160V253Q333 253 330 253Q283 253 251 228T219 147T235 66T278 40T321 78T337 160ZM544 47Q582 47 593 147L611 145Q592 -10 472 -10Q422 -10 391 23T356 104H350Q336 50 303 20T199 -10T79
21T30 122Q30 271 337 271V304Q337 401 313 432Q302 446 281 457T229 468Q172 468 129 442T85 385Q85 376 94 376Q100 376 102 379T105 386T107 392T111 401T129 417T167 427T208 406T226 353T203 301T145 279T86 303T61 363Q61 421 114 454T266 488T425 462T505
389T526 258V88Q526 47 544 47ZM376 554Q349 554 302 570T229 586T183 578T152 562L143 553L129 568Q169 606 226 606Q261 606 306 590T376 574T421 582T452 598L461 607L475 592Q437 554 376 554Z" />
<glyph unicode="&#xe4;" glyph-name="adieresis" horiz-adv-x="604" d="M337 160V253Q333 253 330 253Q283 253 251 228T219 147T235 66T278 40T321 78T337 160ZM544 47Q582 47 593 147L611 145Q592 -10 472 -10Q422 -10 391 23T356 104H350Q336 50 303 20T199
-10T79 21T30 122Q30 271 337 271V304Q337 401 313 432Q302 446 281 457T229 468Q172 468 129 442T85 385Q85 376 94 376Q100 376 102 379T105 386T107 392T111 401T129 417T167 427T208 406T226 353T203 301T145 279T86 303T61 363Q61 421 114 454T266 488T425
462T505 389T526 258V88Q526 47 544 47ZM332 556T332 581T350 623T393 641T435 624T453 581T436 538T393 520T350 538ZM152 556T152 581T169 623T212 641T255 624T273 581T255 538T212 520T170 538Z" />
<glyph unicode="&#xe5;" glyph-name="aring" horiz-adv-x="604" d="M337 160V253Q333 253 330 253Q283 253 251 228T219 147T235 66T278 40T321 78T337 160ZM544 47Q582 47 593 147L611 145Q592 -10 472 -10Q422 -10 391 23T356 104H350Q336 50 303 20T199 -10T79
21T30 122Q30 271 337 271V304Q337 401 313 432Q302 446 281 457T229 468Q172 468 129 442T85 385Q85 376 94 376Q100 376 102 379T105 386T107 392T111 401T129 417T167 427T208 406T226 353T203 301T145 279T86 303T61 363Q61 421 114 454T266 488T425 462T505
389T526 258V88Q526 47 544 47ZM249 598T249 581T261 551T290 538T319 551T332 581T320 610T291 623T262 611ZM265 520T248 537T231 580T248 623T290 641T332 624T350 581T333 538T290 520Z" />
<glyph unicode="&#xe6;" glyph-name="ae" horiz-adv-x="916" d="M109 421T162 454T316 488T480 455Q541 488 618 488T748 474T839 424T877 340T860 265T810 224Q751 199 657 199H574V183Q574 88 600 50T679 11T784 46T854 167L872 164Q836 -10 651 -10Q536 -10
480 55Q471 48 454 37T384 8T279 -10Q194 -10 136 22T78 122Q78 271 385 271V304Q385 401 361 432Q350 446 329 457T277 468Q220 468 177 442T133 385Q133 376 142 376Q148 376 150 379T153 386T155 392T159 401T177 417T215 427T256 406T274 353T251 301T193 279T134
303T109 363Q109 421 162 454ZM574 337V217H591Q643 217 669 248T695 347Q695 470 635 470Q601 470 588 437T574 337ZM267 133Q267 13 323 13Q385 13 385 133V253Q380 253 375 253Q329 253 298 227T267 133Z" />
<glyph unicode="&#xe7;" glyph-name="ccedilla" horiz-adv-x="515" d="M365 18T401 57T448 154L450 164H468Q459 87 408 39T282 -10Q160 -10 90 55T20 238T91 422T284 488Q369 488 414 446T460 358T437 287T377 262T319 284T296 337T314 389T363 410Q405 410 418
370Q422 357 429 357Q438 357 438 367Q438 370 436 378Q408 460 317 460Q290 460 271 446T243 412T228 360Q222 319 222 258T223 166T230 104T245 56Q267 18 316 18ZM204 -70Q230 -53 269 -53T339 -82T369 -153T340 -222T275 -249T217 -224T195 -166T217 -114T265
-94T310 -112T331 -151T341 -172T350 -160Q350 -130 329 -101T268 -72Q245 -72 223 -83T189 -112L172 -94L209 4L229 -4L204 -70Z" />
<glyph unicode="&#xe8;" glyph-name="egrave" horiz-adv-x="543" d="M233 108T255 61T338 14T443 53T501 158L503 167L521 164Q507 82 452 36T309 -10Q176 -10 103 53T30 236T100 421T290 488Q388 488 453 452T519 339T458 231T299 199H233Q233 108 255 61ZM232
289V217H257Q302 217 319 247T337 337Q337 470 290 470Q259 470 246 434T232 289ZM140 611L145 629L443 547L438 530L140 611Z" />
<glyph unicode="&#xe9;" glyph-name="eacute" horiz-adv-x="551" d="M274 14T334 14T438 53T496 158L498 167L516 164Q502 82 447 36T304 -10Q171 -10 98 53T25 236T95 421T285 488Q383 488 448 452T514 339T453 231T294 199H228Q228 108 251 61ZM227 289V217H252Q297
217 314 247T332 337Q332 470 285 470Q254 470 241 434T227 289ZM421 629L426 611L128 530L123 547L421 629Z" />
<glyph unicode="&#xea;" glyph-name="ecircumflex" d="M102 557L287 634L473 557L467 540L287 612L108 540L102 557ZM274 14T334 14T438 53T496 158L498 167L516 164Q502 82 447 36T304 -10Q171 -10 98 53T25 236T95 421T285 488Q383 488 448 452T514 339T453
231T294 199H228Q228 108 251 61ZM227 289V217H252Q297 217 314 247T332 337Q332 470 285 470Q254 470 241 434T227 289Z" />
<glyph unicode="&#xeb;" glyph-name="edieresis" horiz-adv-x="546" d="M223 108T245 61T328 14T433 53T491 158L493 167L511 164Q497 82 442 36T299 -10Q166 -10 93 53T20 236T90 421T280 488Q378 488 443 452T509 339T448 231T289 199H223Q223 108 245 61ZM222
289V217H247Q292 217 309 247T327 337Q327 470 280 470Q249 470 236 434T222 289ZM303 556T303 581T321 623T364 641T406 624T424 581T407 538T364 520T321 538ZM123 556T123 581T140 623T183 641T226 624T244 581T226 538T183 520T141 538Z" />
<glyph unicode="&#xec;" glyph-name="igrave" horiz-adv-x="364" d="M90 453H19V469H79Q188 469 279 488V25H341V9H28V25H90V453ZM31 611L36 629L334 547L329 530L31 611Z" />
<glyph unicode="&#xed;" glyph-name="iacute" horiz-adv-x="364" d="M90 453H19V469H79Q188 469 279 488V25H341V9H28V25H90V453ZM335 629L340 611L42 530L37 547L335 629Z" />
<glyph unicode="&#xee;" glyph-name="icircumflex" horiz-adv-x="364" d="M-19 557L166 634L352 557L346 540L166 612L-13 540L-19 557ZM90 453H19V469H79Q188 469 279 488V25H341V9H28V25H90V453Z" />
<glyph unicode="&#xef;" glyph-name="idieresis" horiz-adv-x="364" d="M90 453H19V469H79Q188 469 279 488V25H341V9H28V25H90V453ZM209 556T209 581T227 623T270 641T312 624T330 581T313 538T270 520T227 538ZM29 556T29 581T46 623T89 641T132 624T150 581T132
538T89 520T47 538Z" />
<glyph unicode="&#xf0;" glyph-name="eth" horiz-adv-x="611" d="M539 291Q539 205 500 130Q456 43 375 9Q330 -10 276 -10Q163 -10 92 50T20 209T96 366T273 424Q325 424 352 412L361 407L368 411Q356 512 303 580L190 535L182 554L289 597Q215 679 83 703L87
719Q252 705 366 628L495 680L503 661L386 614Q539 498 539 291ZM319 8T332 51T346 205T333 360T284 406T236 363T222 207T235 52T284 8Z" />
<glyph unicode="&#xf1;" glyph-name="ntilde" horiz-adv-x="635" d="M71 453H0V469H60Q169 469 260 488V390H265Q304 488 405 488Q491 488 526 435T561 282V25H623V9H314V25H376V240Q376 342 367 388T327 434Q292 434 274 360T256 195V9H9V25H71V453ZM379 554Q352
554 305 570T232 586T186 578T156 562L146 553L132 568Q172 606 229 606Q264 606 309 590T379 574T424 582T454 598L464 607L478 592Q440 554 379 554Z" />
<glyph unicode="&#xf2;" glyph-name="ograve" horiz-adv-x="578" d="M407 -10T289 -10T98 58T25 239T98 419T289 488T480 420T553 239T480 59ZM351 109T351 239T338 419T289 470T241 420T227 239T240 59T289 8T337 58ZM151 611L156 629L454 547L449 530L151 611Z" />
<glyph unicode="&#xf3;" glyph-name="oacute" horiz-adv-x="588" d="M412 -10T294 -10T103 58T30 239T103 419T294 488T485 420T558 239T485 59ZM356 109T356 239T343 419T294 470T246 420T232 239T245 59T294 8T342 58ZM460 629L465 611L167 530L162 547L460 629Z" />
<glyph unicode="&#xf4;" glyph-name="ocircumflex" horiz-adv-x="578" d="M102 557L287 634L473 557L467 540L287 612L108 540L102 557ZM407 -10T289 -10T98 58T25 239T98 419T289 488T480 420T553 239T480 59ZM351 109T351 239T338 419T289 470T241 420T227 239T240
59T289 8T337 58Z" />
<glyph unicode="&#xf5;" glyph-name="otilde" horiz-adv-x="578" d="M407 -10T289 -10T98 58T25 239T98 419T289 488T480 420T553 239T480 59ZM351 109T351 239T338 419T289 470T241 420T227 239T240 59T289 8T337 58ZM363 554Q336 554 289 570T216 586T170 578T140
562L130 553L116 568Q156 606 213 606Q248 606 293 590T363 574T408 582T438 598L448 607L462 592Q424 554 363 554Z" />
<glyph unicode="&#xf6;" glyph-name="odieresis" horiz-adv-x="578" d="M407 -10T289 -10T98 58T25 239T98 419T289 488T480 420T553 239T480 59ZM351 109T351 239T338 419T289 470T241 420T227 239T240 59T289 8T337 58ZM319 556T319 581T337 623T380 641T422
624T440 581T423 538T380 520T337 538ZM139 556T139 581T156 623T199 641T242 624T260 581T242 538T199 520T157 538Z" />
<glyph unicode="&#xf7;" glyph-name="divide" horiz-adv-x="508" d="M172 372T172 406T195 464T253 488T311 464T335 406T311 349T253 325T196 348ZM193 431T193 406T210 364T253 346T295 363T313 406T296 449T253 466T211 449ZM172 37T172 71T195 129T253 153T311
130T335 72T311 14T253 -10T196 13ZM193 96T193 71T210 29T253 11T295 28T313 71T296 113T253 131T211 114ZM491 247V226H17V247H491Z" />
<glyph unicode="&#xf8;" glyph-name="oslash" horiz-adv-x="568" d="M151 -107L399 596L421 589L172 -114L151 -107ZM402 -10T284 -10T93 58T20 239T93 419T284 488T475 420T548 239T475 59ZM346 109T346 239T333 419T284 470T236 420T222 239T235 59T284 8T332 58Z" />
<glyph unicode="&#xf9;" glyph-name="ugrave" horiz-adv-x="637" d="M565 25H627V9H376V87H371Q332 -11 231 -11Q145 -11 110 42T75 195V453H4V469H64Q169 469 260 488V237Q260 136 269 92T309 47Q344 47 362 115T380 272V452H309V469H369Q474 469 565 488V25ZM164
611L169 629L467 547L462 530L164 611Z" />
<glyph unicode="&#xfa;" glyph-name="uacute" horiz-adv-x="637" d="M565 25H627V9H376V87H371Q332 -11 231 -11Q145 -11 110 42T75 195V453H4V469H64Q169 469 260 488V237Q260 136 269 92T309 47Q344 47 362 115T380 272V452H309V469H369Q474 469 565 488V25ZM509
629L514 611L216 530L211 547L509 629Z" />
<glyph unicode="&#xfb;" glyph-name="ucircumflex" horiz-adv-x="637" d="M124 557L309 634L495 557L489 540L309 612L130 540L124 557ZM565 25H627V9H376V87H371Q332 -11 231 -11Q145 -11 110 42T75 195V453H4V469H64Q169 469 260 488V237Q260 136 269 92T309
47Q344 47 362 115T380 272V452H309V469H369Q474 469 565 488V25Z" />
<glyph unicode="&#xfc;" glyph-name="udieresis" horiz-adv-x="647" d="M575 25H637V9H386V87H381Q342 -11 241 -11Q155 -11 120 42T85 195V453H14V469H74Q179 469 270 488V237Q270 136 279 92T319 47Q354 47 372 115T390 272V452H319V469H379Q484 469 575 488V25ZM363
556T363 581T381 623T424 641T466 624T484 581T467 538T424 520T381 538ZM183 556T183 581T200 623T243 641T286 624T304 581T286 538T243 520T201 538Z" />
<glyph unicode="&#xfd;" glyph-name="yacute" horiz-adv-x="510" d="M357 488Q415 488 444 446T474 339Q474 188 372 101Q353 85 312 57T243 8T192 -45T169 -113Q169 -172 217 -199Q223 -203 228 -203Q237 -203 237 -194Q237 -189 229 -184Q198 -164 198 -133T217
-82T267 -61T322 -83T345 -142T320 -202T254 -226T182 -196T151 -118T173 -38T236 26Q113 66 71 162T28 437V453H-44V469H16Q133 469 224 488Q222 442 222 386T233 271T262 180Q298 117 333 117Q389 117 433 215Q456 267 456 341T416 449Q399 466 387 466T374 457Q374
451 383 447Q417 431 417 398T397 346T345 326T293 348T271 406T295 464T357 488ZM382 629L387 611L89 530L84 547L382 629Z" />
<glyph unicode="&#xfe;" glyph-name="thorn" horiz-adv-x="661" d="M299 62V-189H367V-205H44V-189H110V684H39V700H99Q208 700 299 719V400H304Q323 448 356 468T444 488Q538 488 581 419T625 241T576 62T433 -9T304 62H299ZM295 240V213Q295 125 318 77T371
28Q423 28 423 240Q423 346 413 394T371 443Q335 443 315 380T295 240Z" />
<glyph unicode="&#xff;" glyph-name="ydieresis" horiz-adv-x="510" d="M357 488Q415 488 444 446T474 339Q474 188 372 101Q353 85 312 57T243 8T192 -45T169 -113Q169 -172 217 -199Q223 -203 228 -203Q237 -203 237 -194Q237 -189 229 -184Q198 -164 198 -133T217
-82T267 -61T322 -83T345 -142T320 -202T254 -226T182 -196T151 -118T173 -38T236 26Q113 66 71 162T28 437V453H-44V469H16Q133 469 224 488Q222 442 222 386T233 271T262 180Q298 117 333 117Q389 117 433 215Q456 267 456 341T416 449Q399 466 387 466T374 457Q374
451 383 447Q417 431 417 398T397 346T345 326T293 348T271 406T295 464T357 488ZM269 556T269 581T287 623T330 641T372 624T390 581T373 538T330 520T287 538ZM89 556T89 581T106 623T149 641T192 624T210 581T192 538T149 520T107 538Z" />
<glyph unicode="&#x2013;" glyph-name="endash" horiz-adv-x="484" d="M479 247V226H5V247H479Z" />
<glyph unicode="&#x2014;" glyph-name="emdash" horiz-adv-x="954" d="M948 247V226H1V247H948Z" />
<glyph unicode="&#x2018;" glyph-name="quoteleft" horiz-adv-x="286" d="M175 690T131 663T66 596T45 516T61 445T109 401Q117 398 120 398Q129 398 129 407Q129 413 119 418Q78 434 78 489Q78 526 104 549T167 572T231 544T257 475T227 405T145 376T60 415T27
517T72 635T214 719L216 702Q175 690 131 663Z" />
<glyph unicode="&#x2019;" glyph-name="quoteright" horiz-adv-x="294" d="M110 405T154 432T219 499T240 579T224 650T176 694Q168 697 165 697Q156 697 156 688Q156 682 166 677Q207 661 207 606Q207 569 181 546T118 523T54 551T28 620T58 690T140 719T225
680T258 578T213 460T71 376L69 393Q110 405 154 432Z" />
<glyph unicode="&#x201a;" glyph-name="quotesinglbase" horiz-adv-x="289" d="M238 60Q238 120 193 147Q183 153 179 153Q170 153 170 146T177 134Q208 113 208 75T183 14T120 -10T56 18T31 87T62 155T137 183T218 151T256 61Q256 22 241 -11T206 -64T158 -101Q120
-124 75 -136L71 -117Q149 -94 192 -50Q211 -32 224 -3T238 60Z" />
<glyph unicode="&#x201c;" glyph-name="quotedblleft" horiz-adv-x="560" d="M183 690T139 663T74 596T53 516T69 445T117 401Q125 398 128 398Q137 398 137 407Q137 413 127 418Q86 434 86 489Q86 526 112 549T175 572T239 544T265 475T235 405T153 376T68 415T35
517T80 635T222 719L224 702Q183 690 139 663ZM443 690T399 663T334 596T313 516T329 445T377 401Q384 398 388 398Q397 398 397 407Q397 413 387 418Q346 434 346 489Q346 526 372 549T435 572T499 544T525 475T495 405T413 376T328 415T295 517T340 635T482 719L484
702Q443 690 399 663Z" />
<glyph unicode="&#x201d;" glyph-name="quotedblright" horiz-adv-x="560" d="M377 405T421 432T486 499T507 579T491 650T443 694Q436 697 432 697Q423 697 423 688Q423 682 433 677Q474 661 474 606Q474 569 448 546T385 523T321 551T295 620T325 690T407 719T492
680T525 578T480 460T338 376L336 393Q377 405 421 432ZM117 405T161 432T226 499T247 579T231 650T183 694Q176 697 172 697Q163 697 163 688Q163 682 173 677Q214 661 214 606Q214 569 188 546T125 523T61 551T35 620T65 690T147 719T232 680T265 578T220 460T78
376L76 393Q117 405 161 432Z" />
<glyph unicode="&#x201e;" glyph-name="quotedblbase" horiz-adv-x="572" d="M238 60Q238 120 193 147Q183 153 179 153Q170 153 170 146T177 134Q208 113 208 75T183 14T120 -10T56 18T31 87T62 155T137 183T218 151T256 61Q256 22 241 -11T206 -64T158 -101Q120
-124 75 -136L71 -117Q149 -94 192 -50Q211 -32 224 -3T238 60ZM510 60Q510 120 465 147Q455 153 451 153Q442 153 442 146T449 134Q480 113 480 75T455 14T392 -10T328 18T303 87T334 155T409 183T490 151T528 61Q528 22 513 -11T478 -64T430 -101Q392 -124 347
-136L343 -117Q421 -94 464 -50Q483 -32 496 -3T510 60Z" />
<glyph unicode="&#x2022;" glyph-name="bullet" horiz-adv-x="545" d="M122 444T166 489T270 535T376 490T421 379T377 269T271 224T166 268T122 378Z" />
<glyph unicode="&#x2039;" glyph-name="guilsinglleft" horiz-adv-x="201" d="M196 237L67 65L50 78L169 237L50 396L67 409L196 237Z" />
<glyph unicode="&#x203a;" glyph-name="guilsinglright" horiz-adv-x="201" d="M32 237H5L134 409L151 396L32 237ZM5 237H32L151 78L134 65L5 237Z" />
</font>
</defs>
</svg>
