<?xml version="1.0" standalone="no"?>
<!DOCTYPE svg PUBLIC "-//W3C//DTD SVG 1.1//EN" "http://www.w3.org/Graphics/SVG/1.1/DTD/svg11.dtd">
<svg xmlns="http://www.w3.org/2000/svg">
<defs >
<font id="MysteryQuest" horiz-adv-x="434" ><font-face
    font-family="Mystery Quest"
    units-per-em="1024"
    panose-1="2 0 0 0 0 0 0 0 0 0"
    ascent="989"
    descent="-409"
    alphabetic="0" />
<glyph unicode=" " glyph-name="space" horiz-adv-x="307" />
<glyph unicode="!" glyph-name="exclam" horiz-adv-x="195" d="M31 697Q52 695 71 697T107 704T137 712T159 716Q149 704 140 664T123 568T113 447T113 317Q115 254 116 215T119 153T124 122T136 111Q116 114 90 112T53 108Q62 123 65 141T69 183T67 241T61 321Q59
351 58 389T55 468T51 548T47 619T40 672T31 697ZM88 66Q108 74 127 71T155 48Q161 33 153 15T121 -14Q98 -24 78 -19T52 4Q47 21 57 39T88 66Z" />
<glyph unicode="&quot;" glyph-name="quotedbl" horiz-adv-x="248" d="M81 706Q86 686 87 659T88 599T89 525T96 439L32 435Q35 467 37 505T39 580T35 650T26 702L81 706ZM145 708Q154 710 162 709T177 707T191 705T207 706Q201 679 197 644T192 572T192 499T200
433L147 438Q144 456 144 491T146 567T148 646T145 708Z" />
<glyph unicode="#" glyph-name="numbersign" horiz-adv-x="637" d="M570 721Q553 685 535 639T500 541Q537 545 567 550T611 563L585 480Q573 481 545 481T479 479Q464 432 450 385T424 292Q465 296 500 300T563 311L552 243Q539 242 500 240T409 234Q392 164
382 108T371 23Q351 23 322 22T272 13Q279 26 287 48T305 99T323 161T343 231Q306 229 268 227T194 223Q177 160 164 107T144 17Q104 17 82 14Q69 12 58 11Q71 44 90 100T130 219Q89 216 58 213T10 207Q16 224 23 248T29 289Q44 284 75 282T148 280Q168 343 180
394Q184 410 188 427T198 465Q147 460 107 456T47 446Q59 464 68 488T78 530Q99 527 135 526T215 526Q225 564 235 601T251 667T260 714T258 735Q263 732 277 731T309 730T342 730T368 732Q354 709 334 655T288 528Q302 528 315 528T340 530Q359 531 379 532T421
535Q428 562 437 593Q444 619 453 651T471 716Q481 714 495 714Q507 714 525 715T570 721ZM357 286Q371 340 383 390T406 476Q372 474 338 473T268 469Q254 423 239 375T210 280Q283 282 357 286Z" />
<glyph unicode="$" glyph-name="dollar" horiz-adv-x="422" d="M319 437Q323 468 325 504T323 572T304 628T258 660Q228 669 204 661T162 636T136 593T128 542Q129 516 141 493T173 449T218 408T269 367Q322 325 351 283T376 188Q374 164 364 140T335 96T287 62T220
44Q221 33 222 21Q223 10 224 -5T227 -37L183 -43Q187 -29 188 -5T187 42Q164 42 147 46T117 53T93 59T72 58Q42 51 28 14L0 34Q10 58 20 94T37 168T50 243T56 303L88 292Q73 255 75 220T94 153Q102 137 117 122T153 99T199 94T254 120Q282 141 291 170T292 232T257
298T187 359Q146 387 117 407T70 446T44 486T35 537Q35 561 46 587T78 637T125 676T184 697Q184 710 183 728T179 762Q187 761 194 762T208 765Q215 767 222 770Q220 753 220 740T218 717Q217 706 217 697Q248 695 272 689T313 674Q336 667 349 672T377 694L401
686Q392 672 383 644T367 582T353 509T344 435L319 437Z" />
<glyph unicode="%" glyph-name="percent" horiz-adv-x="609" d="M125 -28Q121 -23 114 -15T96 0T70 13T34 18Q156 207 242 334T383 540Q446 632 486 685Q466 671 446 658T403 640T356 638T306 663Q288 677 274 686T249 701Q262 679 271 651T282 582Q282 555 271
523T238 466T183 426T106 421Q65 429 44 449T16 494T10 547T19 596Q25 618 42 647T86 702T149 743T229 751Q254 746 271 734T306 708T342 684T391 673Q413 674 435 682Q454 689 475 703T514 746Q519 738 531 726T559 708Q556 705 540 683T498 623T439 536T370 426Q333
364 298 301T230 178T171 65T125 -28ZM232 575Q236 597 234 619T226 660T209 691T186 707Q173 710 155 705T120 688T87 654T62 601Q54 571 56 544T67 496T92 463T127 450Q147 450 164 460T195 488T218 528T232 575ZM482 318Q499 317 517 307T549 278T572 228T578
156Q575 114 561 82T524 28T474 -4T415 -13Q384 -11 363 2T330 36T313 83T311 139Q313 167 326 199T362 259T414 303T482 318ZM521 156Q529 222 515 251T474 283Q459 284 443 280T411 264T382 231T362 179Q355 147 357 120T367 71T390 37T423 23Q459 19 486 54T521
156Z" />
<glyph unicode="&amp;" glyph-name="ampersand" horiz-adv-x="595" d="M438 452Q456 453 474 447T508 426T534 389T544 334Q544 315 536 291T514 238T480 181T435 124Q458 99 482 84T543 51Q528 48 513 42T485 28T461 11T445 -7Q440 10 428 34T398 87Q372 63 343
43T283 8T217 -15T146 -23Q98 -22 67 -8T20 31T1 86T6 153T34 223T80 292Q102 318 126 348T177 411Q142 471 123 532T119 653Q127 684 149 707T199 743T257 759T313 751T355 715T371 647Q371 618 360 590T329 532T286 471T236 404Q273 333 316 275T404 160Q432
188 455 223T490 292T500 358T473 411Q457 425 432 424T390 407Q373 391 368 370T376 331Q386 318 395 315T413 313Q408 321 410 332T428 346Q439 348 445 343T453 330T452 314T441 299Q427 288 409 288T374 296T346 322T337 366Q339 404 367 427T438 452ZM186
640Q159 582 191 500Q196 488 201 477T211 455Q232 484 249 510T281 563Q293 586 300 606T308 644T304 673T282 693Q270 699 257 698T230 689T206 669T186 640ZM132 70Q152 47 181 45T242 52T309 83T372 129Q347 165 319 204T262 284Q248 303 234 323T206 365Q178
325 155 283T119 202T107 128T132 70Z" />
<glyph unicode="&apos;" glyph-name="quotesingle" horiz-adv-x="137" d="M81 706Q86 686 87 659T88 599T89 525T96 439L32 435Q35 467 37 505T39 580T35 650T26 702L81 706Z" />
<glyph unicode="(" glyph-name="parenleft" horiz-adv-x="279" d="M258 769Q235 722 214 670T178 563T153 457T144 361Q144 317 149 274T168 182T203 79T258 -44L221 -63Q186 -9 158 39T110 136T79 238T67 354Q66 396 75 440T99 529T133 613T172 687T210 746T243
784L258 769Z" />
<glyph unicode=")" glyph-name="parenright" horiz-adv-x="284" d="M25 784Q45 765 75 719T134 613T182 485T201 354Q200 291 189 238T158 137T110 40T46 -63L10 -44Q43 24 65 79T100 182T118 273T124 361Q124 405 115 457T91 563T54 669T10 769L25 784Z" />
<glyph unicode="*" glyph-name="asterisk" horiz-adv-x="431" d="M220 559Q235 568 255 582T295 615T335 653T371 695Q372 681 376 664T387 629T402 594T421 561Q400 565 375 564T324 558T273 545T225 527Q247 499 286 464T371 406Q362 400 349 393T321 376T295
357T275 336Q270 359 263 383T246 431T224 473T198 504Q180 480 163 441T129 354Q123 362 113 374T90 398T63 423T34 442Q84 462 117 483T177 527Q162 540 141 551T99 570T59 583T26 590Q46 613 62 644T81 699Q90 687 102 670T130 635T162 599T198 570Q200 595
201 623T202 679T198 731T187 771Q225 757 253 750T310 748Q295 729 281 704T254 652T232 601T220 559Z" />
<glyph unicode="+" glyph-name="plus" horiz-adv-x="519" d="M296 588Q293 578 291 557T287 508T284 446T282 379Q305 380 331 381T383 384T429 387T463 391Q461 382 459 362T456 327Q424 329 378 330T282 331Q282 254 286 210T292 143Q284 143 273 142T250 139T228
135T214 132Q218 145 220 166T224 213T226 270T227 330Q174 328 126 323T45 306Q42 313 41 324T40 347T41 369T41 384Q52 382 73 381T121 379T175 378T227 378Q227 411 227 446T224 512T219 562T210 584Q228 582 247 579T296 588Z" />
<glyph unicode="," glyph-name="comma" horiz-adv-x="166" d="M75 87Q97 89 112 76T133 40Q137 21 134 1T121 -37T92 -67T45 -83L38 -58Q52 -55 69 -45T92 -10Q84 -13 76 -13Q53 -15 37 -1T20 34Q20 54 36 70T75 87Z" />
<glyph unicode="-" glyph-name="hyphen" horiz-adv-x="475" d="M41 385Q88 385 146 385T259 385T358 389T419 397Q419 391 417 383T412 366T410 347T413 325Q403 327 378 328T320 330T248 330T172 327T102 321T48 311Q44 329 46 348T41 385Z" />
<glyph unicode="." glyph-name="period" horiz-adv-x="172" d="M75 86Q98 88 114 74T131 39Q131 17 115 2T76 -14Q53 -16 37 -2T20 33Q20 53 36 69T75 86Z" />
<glyph unicode="/" glyph-name="slash" horiz-adv-x="373" d="M44 -25Q29 -25 6 -25T-41 -32Q13 77 54 163T124 310Q157 381 181 435Q212 501 237 557T279 654T307 718T319 741Q342 734 370 734T414 739Q380 687 327 597T219 395Q189 334 163 275T114 161T74 59T44 -25Z" />
<glyph unicode="0" glyph-name="zero" horiz-adv-x="606" d="M297 762Q342 762 384 739T460 671T513 561T535 413Q535 376 532 330T518 236T490 143T445 63T380 7T291 -14Q247 -14 203 9T124 79T68 199T46 369Q46 467 68 540T127 663T207 737T297 762ZM275 28Q308
25 334 43T381 92T416 166T439 253T451 344T452 429Q449 481 438 534T408 630T367 701T318 729Q277 729 247 698T196 619T164 512T151 400Q150 364 150 324T155 243T168 164T191 97T226 49T275 28Z" />
<glyph unicode="1" glyph-name="one" horiz-adv-x="324" d="M224 170Q227 131 233 108T251 70T277 50T313 40L311 18Q293 22 259 24T185 25T105 17T36 -1V28Q59 31 77 37T109 57T129 95T138 159Q139 182 141 221T145 308T149 409T154 512T156 605T156 679Q148
651 133 615T98 549T52 504T-1 503L4 523Q34 506 66 561T147 738Q154 732 164 727Q172 722 183 718T208 713Q206 528 212 388T224 170ZM-15 627V628V627Z" />
<glyph unicode="2" glyph-name="two" horiz-adv-x="500" d="M454 -38Q429 -30 388 -20T297 -6T196 -10T99 -48Q95 -41 91 -37T84 -31Q80 -28 77 -27Q89 10 114 48T170 128T233 215T291 313T335 425T352 556Q352 586 342 614T313 662T267 694T203 701Q167 697 143
679T103 638T80 590T73 545Q73 526 80 504T104 464T145 435T206 424Q228 424 243 434T266 458T278 487T282 515Q282 526 278 540T265 567T240 586T200 592Q177 590 167 573T156 541Q156 524 166 511T194 497Q203 497 209 501T219 511Q211 509 207 514T200 525Q198
533 203 542T219 552Q233 552 239 543T246 522Q246 517 244 509T235 492T220 479T198 473Q184 473 173 479T154 496T141 519T136 544Q136 553 140 564T154 586T177 604T211 611Q238 611 258 600T293 571T313 532T317 490Q315 469 306 451T281 418T243 395T194 386Q153
386 121 399T66 435T32 487T20 547Q20 577 33 614T72 683T132 736T212 758Q270 758 312 742T381 698T422 631T435 547Q435 486 421 435T382 339T328 254T265 176T203 98T148 16Q180 33 230 41T337 44Q371 41 392 43T428 52T454 71T479 100Q476 61 472 35T464 -8Q460
-27 454 -38Z" />
<glyph unicode="3" glyph-name="three" horiz-adv-x="507" d="M461 221Q461 185 449 142T411 62T341 1T234 -24Q172 -24 131 -6T64 40T29 104T19 172Q19 205 32 232T68 279T121 309T187 319Q222 318 245 304T281 270T300 230T305 197Q304 183 299 164T283 128T252
100T203 90Q183 91 170 99T147 119T134 145T130 175Q130 204 149 219T191 237Q212 238 221 231T232 213T228 193T210 182Q200 180 194 184T186 194T185 206T194 216Q180 216 168 204T155 171Q156 148 170 130T212 114Q228 115 240 123T261 143T273 169T276 197Q275
209 270 225T255 255T226 279T182 288Q130 286 102 253T75 166Q76 140 85 115T114 72T163 43T234 37Q276 41 307 63T358 116T387 182T396 249Q395 285 381 320T340 378T275 403T187 376L167 401Q188 426 214 461T267 537T321 622T369 711Q307 720 252 723T153 710T81
650T42 525L17 535Q21 557 25 588T29 652T27 715T15 768Q49 774 100 772T210 767T331 767T453 786L471 701Q452 685 421 651T356 577T290 495T237 423Q265 431 304 430T377 408T436 344T461 221Z" />
<glyph unicode="4" glyph-name="four" horiz-adv-x="550" d="M480 -38Q453 -30 415 -30T338 -34T263 -49T206 -72L199 -51Q224 -30 240 -10T266 33T280 84T286 151Q287 171 287 213T285 307Q248 303 220 300T164 292T107 280T37 262L20 345Q37 361 51 377T82 419T120
484T170 585Q199 647 216 688T242 755T253 794T253 814Q273 809 291 806T323 801Q339 798 353 797Q350 743 350 690T349 595Q349 545 351 500Q350 463 353 426T358 352Q363 352 366 352T373 353Q408 354 429 366T462 394T477 429T481 462L501 461Q499 443 497 416T495
356T498 289T509 219L488 215Q481 243 474 263T455 295T420 311T361 314Q366 263 370 220T377 146Q381 98 386 70T402 26T430 0T477 -17L480 -38ZM130 333Q171 338 208 342T285 348Q284 393 283 439T280 530T278 614T275 683Q258 646 237 599T195 504T158 411T130
333Z" />
<glyph unicode="5" glyph-name="five" horiz-adv-x="512" d="M471 243Q471 193 460 142T421 49T347 -17T231 -38Q178 -35 143 -17T86 28T57 85T49 143Q50 168 64 195T100 244T152 279T215 290Q248 287 267 275T297 247T310 214T313 186Q313 175 307 157T288 123T259
94T217 83Q199 83 187 90T169 109T160 132T160 156Q165 178 182 193T215 207Q225 207 231 202T238 189T238 175T232 164Q222 156 210 160T199 177Q179 166 179 140Q179 126 192 116T221 104Q230 104 241 109T262 126T278 153T285 191Q284 212 275 225T254 246T226
255T198 256Q183 255 165 248T130 227T102 192T90 140Q90 111 103 86T138 43T192 16T258 10Q293 13 320 31T365 78T392 146T404 229Q408 314 384 366T312 424Q288 427 258 417T197 389T139 351T96 311L33 349Q35 367 37 385T40 427T42 483T41 560Q41 595 38 628Q36
657 32 687T20 741Q65 740 114 740T216 741T322 751T428 773Q425 699 421 633T422 525L401 520Q397 560 390 597T365 661T317 700T234 703Q191 695 162 685T115 664Q113 635 111 599T108 526T107 455T110 396Q175 434 225 446T329 453Q394 445 432 389T471 243ZM73
627V628V627Z" />
<glyph unicode="6" glyph-name="six" horiz-adv-x="500" d="M368 616Q353 613 345 624T346 648Q333 648 325 636T316 611Q316 597 329 587T362 579Q382 581 399 599T416 654Q416 677 402 696T362 715Q312 715 269 683T191 598T132 479T95 344Q107 367 127 393T174
441T236 474T314 480Q350 475 376 452T421 395T448 324T459 252Q460 230 457 201T444 140T420 77T384 22T335 -17T271 -32Q218 -33 173 -11T96 53T47 158T31 299Q32 352 45 407T80 514T132 611T198 689T274 739T356 754Q390 751 410 736T438 700T444 653T428 605Q417
585 402 573T369 555T335 554T303 572Q299 576 296 584T291 603T291 624T299 645Q310 664 331 672T370 671Q380 665 384 657T387 640T381 625T368 616ZM227 431Q209 428 186 411T144 364T112 296T104 208Q109 160 125 123T163 61T210 22T260 10Q284 11 307 30T346
82T371 160T373 259Q367 312 352 347T316 402T272 428T227 431Z" />
<glyph unicode="7" glyph-name="seven" horiz-adv-x="413" d="M423 764Q404 715 385 657T348 540T314 421T285 310T263 216T250 148Q245 110 245 87T252 51T268 33T293 26L290 0Q259 2 224 2T156 -2T94 -11T50 -27L42 -4Q65 10 80 19T107 43T131 87T161 167Q171
199 186 241T218 330T253 427T288 524T321 614T349 690Q283 703 230 700T135 686Q114 680 100 672T76 646T57 594T40 504L14 505Q17 527 19 559T22 627T21 701T10 772Q57 757 111 748T220 738T327 742T423 764Z" />
<glyph unicode="8" glyph-name="eight" horiz-adv-x="532" d="M489 175Q481 109 455 67T394 2T318 -28T244 -31Q209 -27 167 -12T90 36T35 121T23 252Q27 293 41 323T75 374T119 408T169 428Q141 437 118 452T79 490T57 544T56 616Q64 675 87 711T141 767T202
795T258 802Q310 803 352 784T424 734T467 663T478 583Q473 521 438 477T347 416Q376 405 404 387T454 339T485 270T489 175ZM143 685Q116 647 112 610T118 540T149 485T190 453Q213 442 239 442T292 451T343 477T385 521Q403 548 410 577T417 635T405 687T379
726Q366 738 338 747T275 755T206 738T143 685ZM113 254Q105 221 106 183T120 111T158 50T224 16Q265 8 297 18T352 54T391 116T415 199Q422 243 413 277T384 336T342 374T298 393Q263 400 233 392T178 364T137 316T113 254Z" />
<glyph unicode="9" glyph-name="nine" horiz-adv-x="473" d="M432 488Q430 423 411 347T354 201T261 73T134 -11Q128 5 125 19T117 46T107 69T88 88Q134 82 187 118T284 220T356 377T382 569Q376 536 366 500T340 433T300 380T240 353Q196 347 157 356T88 391T39
455T16 548Q12 602 29 649T75 731T142 788T219 813Q275 817 316 792T383 720T422 614T432 488ZM342 560Q348 596 347 630T338 692T317 738T284 763Q265 769 242 764T195 743T151 701T117 637Q102 594 100 554T107 482T135 429T180 403Q206 398 232 408T281 440T320
493T342 560Z" />
<glyph unicode=":" glyph-name="colon" horiz-adv-x="176" d="M80 333Q103 335 118 325T134 293Q136 272 120 256T77 239Q58 238 41 247T20 278Q19 288 24 297T37 314T57 326T80 333ZM77 86Q99 88 115 74T132 39Q132 17 116 2T77 -14Q54 -16 38 -2T22 33Q22 53
38 69T77 86Z" />
<glyph unicode=";" glyph-name="semicolon" horiz-adv-x="178" d="M83 333Q106 335 121 325T137 293Q139 272 123 256T80 239Q61 238 44 247T24 278Q23 288 28 297T41 314T60 326T83 333ZM75 87Q97 89 112 76T133 40Q137 21 134 1T121 -37T92 -67T45 -83L38 -58Q52
-55 69 -45T92 -10Q84 -13 76 -13Q53 -15 37 -1T20 34Q20 54 36 70T75 87Z" />
<glyph unicode="&lt;" glyph-name="less" horiz-adv-x="404" d="M348 244Q341 213 341 197Q341 188 342 183Q337 184 316 194T264 218T197 250T127 285T65 316T20 340Q39 349 66 361T125 389T190 419T253 449T307 475T346 495Q340 480 338 461T337 432Q326 427
296 415T228 389T156 361T103 339Q119 331 150 317T216 287T287 260T348 244Z" />
<glyph unicode="=" glyph-name="equal" horiz-adv-x="462" d="M46 309Q72 315 107 316T186 317T283 318T397 326L403 256Q361 260 311 262T211 264T119 260T49 250L46 309ZM45 458Q81 452 127 448T222 443T319 443T406 451L399 395Q375 392 328 392T228 394T124
396T43 393Q38 412 43 426T45 458Z" />
<glyph unicode="&gt;" glyph-name="greater" horiz-adv-x="394" d="M36 434Q40 450 41 461T43 481Q43 490 42 495Q48 493 69 483T121 459T188 427T257 393T319 362T364 338Q335 324 289 303T194 258T103 215T39 183Q44 198 46 216T47 245Q58 250 89 262T156 288T228
317T281 339Q265 347 235 361T168 390T97 417T36 434Z" />
<glyph unicode="?" glyph-name="question" horiz-adv-x="485" d="M243 715Q294 715 335 701T406 664T450 610T465 547Q463 493 441 454T387 387T317 343T246 319Q245 301 245 278T248 229T254 178T266 132Q258 134 243 134T211 131T179 125T154 115Q159 143 163
181T170 255T174 319T173 354Q193 352 227 359T294 389T350 450T370 549Q368 591 351 616T309 655T255 672T199 673Q169 670 143 658T98 628T72 583T68 525Q71 505 84 488T118 459T162 443T211 446Q229 452 242 463T262 488T270 518T266 547Q257 574 239 584T201
594Q174 592 160 581T143 554Q141 533 154 525T182 516Q196 516 206 526Q198 528 192 535T191 554Q194 561 202 564T218 565T232 554T236 531Q232 512 214 503T178 493Q170 493 160 496T139 505T123 522T116 546Q115 572 137 593T198 614Q216 614 233 609T265 593T288
569T298 536Q300 510 292 488T265 449T218 423T154 414Q116 415 88 426T42 453T14 490T5 531Q5 570 23 603T73 661T148 700T243 715ZM214 86Q239 89 255 79T272 45Q273 22 257 5T212 -13Q192 -14 174 -5T153 28Q151 50 170 66T214 86Z" />
<glyph unicode="@" glyph-name="at" horiz-adv-x="841" d="M457 39Q491 40 524 47Q553 53 586 66T647 104L687 37Q629 0 571 -17T457 -34Q369 -34 292 -1T156 87T63 214T26 367Q24 455 57 529T146 656T271 738T409 768Q493 768 564 742T688 669T770 555T800 409Q800
339 775 286T713 200T639 153T575 147Q556 154 541 169T514 206Q505 194 492 182T463 159T429 142T389 135Q362 135 331 149T273 191T229 260T211 358Q211 414 228 456T270 528T324 571T377 586Q415 586 443 573T489 545V557Q489 562 489 568T490 580L608 585L605
553Q595 550 584 544T562 528T544 500T536 459Q536 443 536 419T538 368T543 314T553 264T568 226T589 207Q608 202 632 216T679 259T716 330T730 423Q729 474 708 524T646 615T545 678T406 699Q327 696 268 666T168 589T107 486T87 377Q87 324 111 265T183 155T298
72T457 39ZM399 203Q439 207 459 230T489 279Q487 294 486 310T484 343Q485 376 485 413T487 485Q478 499 459 511T403 523Q381 522 360 512T323 482T297 431T288 358Q288 337 291 309T306 257T339 216T399 203Z" />
<glyph unicode="A" glyph-name="A" horiz-adv-x="574" d="M113 231Q69 227 28 232T-46 254T-99 299T-123 370Q-126 409 -111 436T-71 477T-18 493T37 487T81 456T101 402Q104 356 82 336T29 315Q-2 314 -24 328T-49 374Q-50 390 -46 401T-35 420T-19 431T-2 435Q15
436 25 428T38 402Q39 386 29 380T6 378Q-3 381 -4 392T-1 412Q-10 410 -16 403T-22 382Q-22 364 -12 352T26 341Q40 341 48 348T62 364T68 382T70 398Q70 404 68 416T57 439T33 460T-9 471Q-36 472 -53 463T-80 438T-94 406T-97 376Q-96 350 -82 329T-39 295T32
276T131 278Q146 316 160 357T186 438T207 516T220 586Q229 662 205 705T134 751L138 777Q156 774 189 770T263 764T343 761T415 769L416 753Q403 749 392 745T374 735T364 718T365 691Q369 674 378 626T400 513T430 373T467 229Q487 160 507 107T549 21T592 -25T638
-27Q650 -20 659 -8Q667 3 673 20T680 63L695 66Q699 50 697 26T686 -23T659 -65T613 -87Q590 -90 562 -85T505 -56T450 18T404 155Q399 180 394 204T384 252Q355 250 305 247T201 240Q186 177 178 128Q173 98 173 79T179 49T195 30T225 17L224 -4Q207 0 172 1T98
0T20 -9T-41 -28L-49 6Q-28 15 -14 18T12 28T33 48T54 89Q63 109 78 146T114 231H113ZM309 651Q301 619 289 577T264 488T238 389T212 289Q259 296 300 300T373 306Q350 414 333 500T309 651Z" />
<glyph unicode="B" glyph-name="B" horiz-adv-x="584" d="M-42 419Q-72 419 -91 430T-122 458T-138 492T-143 523Q-144 559 -124 601T-56 681T66 744T251 769Q279 769 323 761T409 732T481 674T510 578Q510 539 497 508T463 452T411 413T347 390Q380 387 415 375T479
339T528 283T548 205Q549 142 519 89T426 3T270 -36T50 -13Q60 5 67 21T80 54T88 92T95 137Q97 154 100 185T108 256T116 343T122 438T125 535T124 626Q122 659 121 680T118 716Q63 708 21 688T-51 639T-94 576T-106 505Q-103 470 -76 454T-12 442Q6 445 19 455T40
480T50 511T50 544Q47 560 38 568T18 578T-4 579T-24 572Q-30 568 -35 561T-42 544T-41 526T-27 510Q-26 522 -18 530T2 535Q9 532 12 525T13 509T4 493T-16 485Q-25 484 -35 487T-53 497T-67 515T-72 544Q-71 559 -63 571T-43 591T-16 603T14 606Q80 603 81 526Q81
507 74 488T50 454T11 429T-42 419ZM205 722Q203 690 198 651T187 567T179 477T177 384Q221 378 264 395T343 444T399 518T421 606Q421 641 399 667T344 708T274 727T205 722ZM178 337Q179 306 178 268T175 190T169 110T163 33Q203 19 252 22T343 45T414 105T440
203Q438 242 424 268T388 310T338 335T281 345T225 345T178 337Z" />
<glyph unicode="C" glyph-name="C" horiz-adv-x="602" d="M296 -72Q240 -70 188 -42T96 40T34 172T16 352Q20 454 52 533T133 664T238 742T352 761Q386 757 412 742T457 706T489 660T510 612Q516 606 523 606Q542 605 557 634T584 732L612 729Q603 695 593 651T574
559T560 466T556 383Q541 389 528 391T504 395Q492 396 482 395Q484 457 479 514T458 614T419 685T358 715Q326 718 289 702T219 643T162 529T132 352Q129 296 136 234T164 120T221 33T312 -1Q354 2 390 21Q421 38 451 72T494 170L527 150Q519 124 503 86T460 11T392
-49T296 -72Z" />
<glyph unicode="D" glyph-name="D" horiz-adv-x="626" d="M11 422Q-12 421 -33 429T-69 454T-93 493T-102 546Q-102 583 -79 617T-15 678T84 720T214 736Q276 736 340 721T457 666T544 553T580 367Q581 252 545 163T440 17T273 -61T53 -62V-36Q70 -39 85 -39T113
-30T132 -1T141 57Q142 79 143 124T146 227T149 350T149 476T144 591T134 678Q106 679 71 672T4 646T-49 600T-71 534Q-71 514 -64 499T-43 473T-15 457T17 452Q46 454 63 474T79 520Q78 533 72 546T57 568T37 582T12 584Q-8 579 -11 565T-13 539Q-11 527 -1 520T22
518Q9 523 8 536T17 554Q31 559 40 551T49 531T40 508T6 495Q-11 493 -22 508T-35 544Q-36 564 -23 583T18 605Q32 606 46 601T73 584T93 556T103 522Q105 504 100 487T83 455T53 432T11 422ZM233 689Q228 647 225 581T220 443T219 299T222 177Q223 136 225 106T230
53T237 17T248 -7Q309 6 359 43T443 138T492 272T501 437Q494 521 465 571T397 648T313 682T233 689Z" />
<glyph unicode="E" glyph-name="E" horiz-adv-x="618" d="M-31 453Q-100 454 -132 495T-158 597Q-155 627 -137 657T-82 709T9 741T142 742Q159 740 198 738T289 735T404 737T530 752Q530 731 530 698T529 630T531 563T539 511L509 507Q509 559 498 598T456 660T370
691T225 687Q216 633 211 564T205 403Q281 386 321 414T370 519L394 515Q390 494 386 461T381 390T381 313T391 239L371 231Q364 262 356 288T332 331T286 352T205 344Q207 294 210 239T218 120Q223 110 231 101T257 84T301 72T369 67Q426 66 461 83T516 125T542
175T549 219L578 216L565 10Q543 10 506 10T424 8T327 4T225 -3T128 -13T45 -27L39 -7Q59 1 76 12T104 47T122 110T127 218Q126 278 125 348T121 484T117 608T114 701Q84 711 42 711T-37 696T-101 652T-128 575Q-128 548 -118 528T-92 496T-56 478T-13 474Q9 475
26 484T54 506T70 537T72 571Q67 604 41 621T-19 624Q-33 618 -45 604T-55 569Q-54 558 -47 550T-31 538T-11 537T9 550Q0 550 -6 555T-13 570Q-13 576 -9 581T1 589T15 591T29 581Q35 573 34 561T26 539T5 522T-28 517Q-51 520 -63 536T-76 575Q-78 600 -59 624T-2
652Q27 655 45 645T74 620T88 586T92 552Q92 538 86 521T65 488T27 463T-31 453Z" />
<glyph unicode="F" glyph-name="F" horiz-adv-x="459" d="M70 594Q67 660 30 695T-61 738L-56 764Q-30 752 10 745T98 735T200 731T306 733T407 741T495 753Q491 727 487 694T479 628T476 565T481 512L461 509Q447 563 428 601T375 661T292 686T167 673Q162 593
159 531T156 410Q204 417 234 428T284 454T313 491T333 543L358 538Q349 500 346 468T343 405T344 343T348 276L327 280Q325 322 308 343T266 372T212 377T156 368Q157 319 160 268T169 152Q172 114 180 89T201 49T227 26T257 14V-8Q243 -6 211 -4T140 -3T64 -9T-2
-26L-9 -5Q16 6 34 18T64 48T81 90T87 150Q87 173 86 209T84 287T80 374T76 460T73 537T70 594Z" />
<glyph unicode="G" glyph-name="G" horiz-adv-x="613" d="M289 -62Q242 -61 191 -36T99 41T31 174T5 369Q6 471 37 546T114 672T214 747T314 772Q366 772 401 757T459 716T497 660T522 597T540 536T559 486Q536 486 500 480T416 451Q425 481 432 514T442 581T441
643T424 696Q417 708 405 717T378 732T346 740T312 739Q280 733 248 710T187 645T137 542T105 399Q93 303 108 230T154 108T224 33T302 8Q339 9 364 21T405 51T426 91T431 133Q430 161 428 184T413 225T369 256T281 280V304Q314 300 348 297T422 295T505 304T603
326L608 303Q577 293 558 276T526 220T509 118T501 -51L472 -53L464 37Q453 20 438 2T401 -30T353 -54T289 -62Z" />
<glyph unicode="H" glyph-name="H" horiz-adv-x="607" d="M-41 -26Q-19 -13 -3 -4T24 23T43 72T55 157Q66 266 71 362T71 559Q68 601 58 628T36 670T11 693T-8 706L-6 727Q10 723 34 718T90 709T158 706T236 715L237 697Q231 694 218 681T192 644T167 583T151
493Q147 460 146 427T143 360Q168 359 201 359T271 359T346 365T421 378Q420 441 419 495T417 579Q416 605 409 631T391 681T364 722T329 750L331 769Q346 764 379 759T453 750T535 747T610 757L608 734Q592 727 575 718T544 692T520 650T506 587Q503 548 500 488T497
362T500 230T515 116Q522 84 531 64T552 30T579 8T612 -8L603 -23Q575 -14 542 -8T474 0T409 2T355 -4L352 20Q370 26 383 33T406 54T419 95T423 166Q422 194 422 228T422 300Q393 303 357 304T284 306T210 304T143 296Q144 240 147 190T157 98Q161 69 167 52T182
24T202 7T229 -7L223 -27Q202 -22 168 -21T97 -20T26 -27T-29 -41L-41 -26V-26Z" />
<glyph unicode="I" glyph-name="I" horiz-adv-x="281" d="M69 614Q66 644 58 663T40 693T21 709T5 717L10 739Q50 722 110 723T266 749L270 735Q259 730 248 724T224 704T201 668T182 610T168 524T161 403Q160 319 162 248T174 125T202 40T250 1L236 -17Q221 -15
191 -14T127 -14T62 -20T14 -33L10 -20Q23 -8 36 4T58 38T74 93T80 183Q79 244 79 308T77 430T74 536T69 614Z" />
<glyph unicode="J" glyph-name="J" horiz-adv-x="519" d="M249 -68Q174 -73 115 -49T16 17T-41 115T-48 229Q-41 274 -19 305T30 355T88 381T142 388Q166 386 185 375T218 346T236 305T238 256Q234 230 225 205T200 162T164 136T117 133Q93 138 80 155T60 192T54
234T59 268Q64 281 72 293T92 312T116 320T143 315Q159 307 165 291T171 257T159 226T132 213Q118 213 111 221T104 241Q104 250 109 256T121 263Q127 265 133 261T142 246Q148 252 150 259T151 273Q151 285 143 292T120 298Q114 298 106 294T92 280T81 258T79
226Q80 208 87 195T103 172T121 159T139 155Q155 155 169 167T193 199T208 241T212 287Q211 305 203 319T183 343T157 357T130 359Q109 357 86 347T45 317T15 270T4 205Q5 166 21 131T65 68T131 24T213 9Q260 10 290 41T335 123T355 241T356 382Q353 460 345 519T318
619T263 684T168 716L166 739Q188 736 227 735T313 734T411 739T507 753L509 732Q490 723 474 710T447 673T430 612T424 516Q425 471 432 415T443 299T445 179T424 63Q406 9 364 -26T249 -68Z" />
<glyph unicode="K" glyph-name="K" horiz-adv-x="559" d="M-20 -3Q-5 8 9 23T35 60T55 116T67 196Q70 243 72 301T74 421T73 539T66 641Q62 672 52 690T30 718T5 734T-17 746L-10 769Q11 761 40 757T102 752T169 754T234 764L240 743Q220 737 204 718T181 650Q179
635 176 610T170 552T164 481T158 402Q199 405 241 425T318 480T379 563T414 669Q417 693 415 706T407 727T395 735T383 737L385 759Q397 757 425 755T491 753T570 754T652 765L653 745Q632 739 613 733T577 717T545 691T515 649Q497 617 474 578T420 500T352 431T270
383Q300 370 334 349T398 295T447 220T467 120Q467 78 466 34T466 -53T476 -132T501 -197T547 -241T622 -258Q643 -258 661 -249T692 -224T714 -190T722 -153Q722 -135 716 -119T700 -92T678 -74T652 -67Q626 -67 606 -86T585 -128Q585 -152 595 -166T626 -181Q643
-181 654 -169T668 -139Q659 -153 644 -153Q631 -152 622 -144T615 -125Q617 -114 627 -107T654 -102Q672 -105 681 -119T686 -153Q684 -162 680 -172T667 -189T645 -201T614 -204Q592 -202 579 -190T562 -159T561 -121T577 -83T610 -54T657 -44Q673 -44 688 -53T716
-78T736 -113T743 -157Q743 -178 736 -203T710 -249T660 -285T583 -299Q547 -299 510 -279T444 -220T396 -125T380 6Q381 51 381 99T370 188Q356 230 333 269T269 332Q246 346 218 348T156 349Q153 280 153 221T153 129Q153 95 161 76T181 44T209 26T238 11L230
-6Q212 -3 180 -3T111 -5T39 -12T-17 -24L-20 -3V-3Z" />
<glyph unicode="L" glyph-name="L" horiz-adv-x="524" d="M-10 -9Q11 3 26 13T52 38T68 78T76 144Q77 185 82 244T91 366T97 489T95 592Q91 635 82 662T62 706T38 732T13 748L20 764Q41 758 70 754T133 747T200 746T267 752L270 734Q241 720 219 675T186 545Q181
510 177 452T171 327Q170 290 170 253T172 182T176 117T182 62Q192 51 212 45T280 37Q358 35 400 67T453 154Q456 170 460 188Q463 203 466 221T472 258L501 255Q487 170 489 103T504 -15Q460 -8 395 -3T260 2T120 -5T0 -29L-10 -9V-9Z" />
<glyph unicode="M" glyph-name="M" horiz-adv-x="793" d="M895 -187Q897 -209 889 -235T861 -285T810 -324T736 -340Q694 -339 655 -314T589 -243T553 -136T561 0Q572 49 588 115T620 253T646 393T656 517T640 608T587 647Q557 649 533 630T490 580T461 516T445
454Q436 399 431 325T427 177Q427 153 435 139T454 116T477 105T498 100L496 84Q436 76 396 68T329 51Q299 42 280 34L271 55Q293 66 308 82T333 121T346 177T351 252Q352 281 353 320T354 402T350 485T339 558T317 609T281 629Q258 628 241 611T209 567T185 508T169
444T159 388T154 349Q153 336 152 310T151 250T156 179T170 107T197 44T240 0L239 -26Q219 -20 186 -18T116 -17T45 -25T-12 -44L-24 -18Q0 -5 16 4T44 32T62 82T70 172Q72 230 74 271T76 345T77 407T77 471Q76 505 71 542T51 612T11 672T-57 712L-61 732Q-37 730
-5 728T59 726T115 728T148 739Q152 732 154 713T158 668T159 613T159 557Q173 598 191 627T230 675T269 703T306 712Q346 712 378 678T423 581Q455 663 508 708T632 744Q714 732 743 647T745 401Q731 321 707 240T660 85T624 -55T618 -169Q625 -213 643 -241T682
-284T724 -305T762 -310Q784 -309 802 -297T835 -267T856 -228T864 -188Q864 -175 859 -162T843 -139T819 -123T787 -118Q770 -119 758 -126T737 -143T726 -166T723 -187Q725 -207 737 -220T766 -231Q774 -230 779 -226T790 -217Q780 -213 774 -207T769 -185Q770
-176 776 -171T791 -164T807 -167T816 -182Q817 -193 815 -206T806 -231T786 -250T752 -258Q731 -258 719 -247T700 -220T694 -187T697 -157Q705 -131 730 -109T800 -88Q821 -90 838 -99T867 -122T886 -154T895 -187Z" />
<glyph unicode="N" glyph-name="N" horiz-adv-x="604" d="M67 610Q53 680 33 715T-31 743L-36 771Q-17 769 9 769T66 770T128 773T187 781Q199 735 218 677T262 554T312 424T365 294T416 175T461 77Q461 131 460 192T456 315T451 434T444 534Q440 583 434 616T418
670T398 705T371 728V748Q395 743 425 740T488 736T554 735T620 741V718Q604 717 587 710T554 685T530 641T521 573Q521 546 522 500T524 398T525 279T525 158T522 49T516 -35L451 -28Q420 34 383 116T307 284T230 447T159 579Q153 516 152 442T155 292T166 144T182
11Q156 10 124 8T64 3T14 -4T-11 -13L-16 8Q2 18 17 25T45 47T64 92T75 178Q81 292 82 404T67 610Z" />
<glyph unicode="O" glyph-name="O" horiz-adv-x="634" d="M290 -63Q248 -63 199 -38T109 38T40 170T15 360Q17 461 48 532T126 649T223 715T317 736Q370 736 418 713T505 646T566 536T593 385Q596 291 570 209T501 66T401 -29T290 -63ZM99 348Q98 318 100 282T109
207T128 133T160 67T205 19T266 -2Q300 -4 332 14T391 64T441 139T478 228T500 321T505 409Q502 447 498 474T487 522Q487 504 484 486T471 449T447 415T407 388Q371 371 339 370T282 379T241 413T220 471Q215 505 225 531T254 576T295 605T340 617Q347 617 359
616T383 608T404 587T414 549Q415 524 404 507T376 479T342 468T312 472Q301 479 299 489T301 509T313 525T332 529Q347 525 350 513T351 489Q371 494 380 510T390 543T379 573T347 587Q309 587 281 563T252 492Q252 477 255 460T267 429T294 407T340 400Q368 402
389 414T425 445T448 487T456 534Q457 577 446 605T418 651T379 676T337 684Q293 685 252 655T178 576T124 468T99 348Z" />
<glyph unicode="P" glyph-name="P" horiz-adv-x="559" d="M75 566Q68 609 58 639T33 689T-2 722T-51 741L-47 766Q-32 760 -10 752T40 737T103 729T179 736Q175 710 172 673T166 601Q182 634 204 666T256 723T322 760T403 765Q437 759 465 735T512 672T539 583T542
478Q536 422 521 372T481 286T419 229T334 213Q302 216 275 228T224 260T183 305T152 357Q152 331 153 299T156 233T161 166T168 104Q173 70 183 51T205 21T229 6T250 -1L246 -20Q213 -13 179 -11T113 -10T55 -17T12 -29L11 -1Q24 10 35 19T54 47T68 95T76 178Q80
282 84 381T75 566ZM160 483Q158 455 167 421T196 355T244 300T309 274Q340 271 363 284T402 319T430 369T447 425T455 479T459 522Q459 550 453 581T434 640T400 685T352 705Q316 706 283 685T223 630T180 558T160 483Z" />
<glyph unicode="Q" glyph-name="Q" horiz-adv-x="660" d="M300 10Q340 12 378 38Q364 60 350 77T318 105Q302 116 282 121T245 125Q227 123 216 112T208 80Q209 69 216 57T236 34T264 16T300 10ZM288 -40Q233 -39 181 -8T88 77T27 208T11 376Q17 457 42 528T109
651T211 733T347 761Q407 759 457 732T543 655T600 538T620 385Q619 328 608 273T575 169T524 80T454 11Q467 -31 481 -77T515 -163T560 -231T622 -264Q658 -269 681 -257T719 -226T738 -183T743 -143Q743 -126 735 -112T715 -87T687 -73T655 -72Q639 -76 626 -84T604
-104T594 -128T597 -155Q603 -168 613 -175T634 -184T655 -184T671 -178Q680 -170 684 -153T671 -124Q672 -132 668 -140T653 -152Q642 -155 633 -150T622 -135T624 -116T647 -100Q654 -98 664 -99T685 -105T702 -120T709 -145Q709 -160 704 -173T689 -195T667
-209T642 -214Q629 -214 616 -211T592 -200T573 -179T565 -145Q564 -124 572 -107T593 -76T623 -55T658 -46Q684 -44 705 -52T741 -75T764 -111T773 -156Q774 -182 765 -208T737 -256T693 -289T634 -300Q586 -298 546 -275T472 -195Q460 -173 451 -147T432 -90Q426
-70 420 -52T406 -16Q352 -41 288 -40ZM332 726Q290 724 246 694T167 611T109 489T89 340Q91 264 112 210T156 125Q159 142 171 155T209 178Q232 187 261 186T321 172T378 138T426 81Q468 129 497 213T525 417Q525 474 511 530T471 630T410 700T332 726Z" />
<glyph unicode="R" glyph-name="R" horiz-adv-x="558" d="M-20 -19Q-2 -13 13 -4T39 19T58 56T67 110Q68 131 69 170T72 259T75 362T76 469T77 566T74 641Q72 663 63 679T41 706T12 722T-17 730V756Q0 749 20 744T68 734T129 728T209 728Q239 729 276 729T350
725T421 707T481 669T518 605T525 506Q517 437 495 393T441 323T373 288T301 279Q349 252 380 207T431 99Q443 63 453 33T480 -18T519 -50T579 -58L573 -78Q556 -75 526 -75T463 -78T400 -85T351 -95L345 -76Q374 -62 384 -34T379 47Q371 73 360 108T333 178T294
240T240 279Q207 290 184 291T145 288Q145 243 146 198T155 113T180 43T230 0L225 -16Q208 -14 177 -13T111 -13T42 -22T-16 -44L-20 -19ZM173 683Q162 639 155 591T143 495T137 404T138 330Q201 319 252 320T340 343T399 407T428 524Q432 568 421 598T388 647T340
675T282 688T224 689T173 683Z" />
<glyph unicode="S" glyph-name="S" horiz-adv-x="502" d="M163 112Q153 112 149 118T144 131T148 143T160 148Q154 154 140 153Q129 151 120 139T112 109Q113 91 127 75T166 60Q179 60 191 67T212 85T226 112T231 143Q230 160 223 176T204 206T173 228T132 237Q86
237 60 209T36 127Q37 100 50 73T86 23T142 -12T214 -26Q250 -26 277 -12T323 24T351 76T361 136Q361 156 355 180T332 231T288 288T220 349Q180 380 145 407T83 460T41 516T25 583Q25 620 38 654T78 715T144 756T233 770Q262 769 288 760T338 742T383 728T422
729Q430 732 436 738Q441 743 446 751T453 773L481 771Q478 752 474 723T469 663T469 601T479 548L453 542Q444 570 433 598T406 651T370 694T323 724Q299 733 275 736T228 733T185 708T147 656Q130 622 133 580T156 507Q167 487 182 470T215 437T250 406T287 376Q322
345 352 314T403 251T437 184T449 113Q449 76 431 41T382 -21T309 -64T221 -81Q176 -81 137 -66T68 -22T22 45T5 131Q5 168 16 193T45 235T86 258T133 265Q158 265 181 258T223 234T251 193T262 134Q262 110 252 92T225 61T191 42T156 37Q140 38 127 45T105 62T90
83T85 106Q86 116 89 128T101 150T121 167T150 174Q166 174 176 165T187 141Q189 129 182 121T163 112Z" />
<glyph unicode="T" glyph-name="T" horiz-adv-x="499" d="M-13 468Q-8 538 -7 609T-20 761Q39 754 101 747T230 735T364 731T504 741L470 450H451Q455 502 457 545T448 621T403 674T301 702Q291 641 288 565T285 410T292 260T307 137Q315 92 328 64T357 19T391
-6T426 -20L418 -43Q387 -31 345 -27T262 -26T186 -36T131 -54L123 -26Q141 -16 157 -3T186 33T207 90T217 177Q218 210 218 255T215 351T211 454T205 555T199 642T194 705Q134 702 100 687T47 643T23 573T15 474L-13 468V468Z" />
<glyph unicode="U" glyph-name="U" horiz-adv-x="637" d="M50 330Q62 418 66 488T64 606T37 682T-20 711L-16 732Q8 729 35 725T92 718T156 715T224 722L222 699Q213 696 202 681T179 634T159 553T143 434Q140 388 138 336T137 235T150 141T180 63T233 13T316
1Q357 5 382 37T420 120T436 238T438 378Q436 458 434 513T418 607Q406 638 387 650T340 671L343 695Q400 689 462 689T579 700L582 683Q568 675 556 664T534 634T518 591T511 532Q511 498 511 454T514 358T521 249T531 133Q538 74 552 37T584 -13T620 -16T653
35L668 25Q664 5 651 -14T618 -44T576 -58T531 -46T490 3T459 96Q450 70 437 43T402 -6T346 -40T261 -50Q138 -43 82 54T50 330Z" />
<glyph unicode="V" glyph-name="V" horiz-adv-x="480" d="M24 573Q12 607 3 630T-17 666T-45 686T-92 694V716Q-67 713 -34 712T35 713T108 726T181 753L189 726Q171 718 157 711T136 689T126 650T130 584Q133 564 139 532T155 460T175 378T197 291T218 209T236
140Q255 185 273 240T307 349T335 451T352 531Q358 569 358 593T353 632T339 657T318 674L325 701Q345 693 374 688T436 680T506 674T578 671L572 654Q518 648 481 608T415 490Q401 451 386 406T355 312T325 214T299 119Q290 85 286 56Q282 31 281 8T287 -23L229
-45Q212 -21 201 -1T181 48T160 117T130 223Q112 288 98 338T72 429T48 504T24 573Z" />
<glyph unicode="W" glyph-name="W" horiz-adv-x="884" d="M899 648Q878 634 858 617T823 573T800 506T796 403Q798 362 800 315T801 219T790 127T760 47T704 -10T616 -34Q577 -36 548 -23T497 12T461 64T438 126Q423 85 403 50T350 -6T272 -31T162 -13Q115 3 88
33T48 102T33 183T34 265T43 338T52 391Q62 455 68 512T70 615T45 691T-20 732L-15 752Q4 749 30 745T84 739T139 736T189 742Q184 703 176 646T159 523T145 391T137 264Q134 145 164 90T272 36Q311 37 335 70T372 152T391 256T398 358Q399 404 398 447T392 528T379
594T358 642Q386 643 406 641T443 637T480 633T525 637Q514 606 505 573T490 501T480 415T476 307Q477 247 482 198T502 116T542 67T609 59Q650 68 673 100T706 179T718 284T718 404Q716 466 711 509T696 581T669 623T630 642L633 664Q694 654 759 657T895 680L899
648V648Z" />
<glyph unicode="X" glyph-name="X" horiz-adv-x="565" d="M-72 45Q-51 54 -31 63T12 85T57 120T108 177Q131 208 165 256T234 359Q217 388 201 415T171 465T144 507T122 538Q102 563 86 581T53 612T14 630T-39 639L-38 667Q34 656 100 654T243 669L249 646Q218
631 208 598T220 518Q228 504 242 479T275 420Q313 479 344 529T389 608Q398 627 401 645Q403 660 398 674T374 697L379 712Q405 710 436 708T499 704T559 705T607 714L605 690Q584 685 566 681T528 663T482 621T419 542Q390 502 361 459T304 370Q325 334 348 296T395
218T443 142T489 73Q518 29 538 6T575 -29T605 -45T636 -53L637 -73Q607 -69 564 -65T477 -61T392 -63T327 -76L323 -52Q348 -39 366 -28T392 0T396 40T373 105Q356 141 327 194T266 305Q234 250 210 204T171 126Q153 87 160 72T189 49L183 27Q151 33 116 35T47
38T-17 35T-69 27L-72 45V45Z" />
<glyph unicode="Y" glyph-name="Y" horiz-adv-x="599" d="M49 471Q52 533 48 568T34 623T12 651T-15 669L-12 693Q6 690 31 687T87 684T156 690T236 708L234 685Q217 680 201 669T171 635T146 578T127 488Q120 435 117 383T124 290T162 225T242 205Q295 208 332
244T392 331T424 442T429 550Q426 596 421 630T406 688T382 727T346 750L356 771Q377 764 406 758T466 751T525 753T571 772L573 750Q557 739 541 720T513 669T494 592T488 484Q489 440 495 400T507 315T518 220T523 103Q523 38 514 -26T481 -142T414 -226T301
-258Q252 -258 219 -244T164 -206T131 -154T113 -98Q108 -75 105 -52T95 -7T80 37T55 76Q101 66 141 63T210 71Q186 33 180 -13T183 -103Q188 -125 199 -149T229 -191T272 -218T330 -217Q360 -208 385 -180T427 -110T452 -12T455 106Q448 176 442 225T433 309Q422
284 405 255T362 202T304 161T229 144Q220 144 206 145T174 150T138 162T100 186Q84 199 75 215T60 248T52 284T48 319Q46 351 46 389T49 471Z" />
<glyph unicode="Z" glyph-name="Z" horiz-adv-x="515" d="M-10 50Q30 96 57 135T111 216T168 303T246 411Q316 502 358 565T421 667Q344 677 283 676T175 652T97 579T51 439L18 440Q22 459 27 496T34 576T37 663T30 736Q89 728 153 722T280 716T404 722T519 748Q518
730 520 719T524 702Q527 695 530 692Q420 549 302 385T69 28Q112 29 155 29T238 32T312 44T371 71Q403 93 422 130T456 224L478 223Q464 162 456 111T443 22Q438 -22 436 -59Q383 -47 329 -37T221 -23T114 -24T7 -45Q4 -17 1 1T-4 31Q-7 43 -10 50Z" />
<glyph unicode="[" glyph-name="bracketleft" horiz-adv-x="205" d="M45 796Q59 795 80 794Q98 793 126 793T195 794L193 766Q166 760 146 757Q135 755 127 754Q125 728 122 691T115 607T109 508T105 401Q104 333 105 266T107 142T111 41T115 -25Q126 -26 137
-27Q147 -29 159 -30T186 -35L180 -67Q173 -66 156 -65T118 -64T77 -65T43 -69Q40 -8 40 62T43 202T47 335T50 443Q50 489 51 541T53 643T53 734T45 796Z" />
<glyph unicode="\" glyph-name="backslash" horiz-adv-x="429" d="M343 -25Q331 11 314 58T275 160T226 274T169 395Q113 507 61 597T-26 739Q-11 734 17 734T69 741Q70 741 80 718T107 654T150 557T206 435Q230 381 263 310Q291 249 332 163T429 -32Q404 -25
382 -25T343 -25Z" />
<glyph unicode="]" glyph-name="bracketright" horiz-adv-x="210" d="M134 -69Q120 -68 99 -67Q81 -66 53 -66T-15 -67L-13 -39Q1 -37 13 -35T34 -30Q44 -28 52 -27Q54 -2 57 36T64 120T70 219T74 326Q75 394 75 461T73 585T69 686T65 751Q53 751 42 753Q31 755
19 756T-7 761L-1 794Q6 793 23 793T61 792T102 793T135 796Q138 735 138 665T136 525T132 392T129 284Q129 238 128 186T126 84T126 -7T134 -69Z" />
<glyph unicode="^" glyph-name="asciicircum" horiz-adv-x="478" d="M20 316Q61 384 93 438T149 536T190 610T219 665Q246 719 253 741Q261 719 284 667Q303 623 340 541T442 326Q422 327 409 327T386 325Q375 324 369 322Q365 334 357 356T337 408T314 468T289
530T267 585T248 627Q234 602 214 560T172 474T134 391T109 335Q103 334 91 332T64 328T38 322T20 316Z" />
<glyph unicode="_" glyph-name="underscore" horiz-adv-x="659" d="M0 57Q54 57 118 57T249 56T381 57T501 59T597 63T659 70Q659 64 655 56T648 39T643 20T648 -3Q631 -1 588 0T486 2T361 3T228 0T106 -6T12 -16Q9 -7 9 2T9 20T8 39T0 57Z" />
<glyph unicode="`" glyph-name="grave" horiz-adv-x="634" d="M256 769Q266 764 286 750Q303 738 334 715T414 653L387 615Q375 626 355 640T312 668T265 695T220 720Q223 727 227 735Q231 742 238 751T256 769Z" />
<glyph unicode="a" glyph-name="a" horiz-adv-x="492" d="M507 37Q504 24 497 9T477 -19T446 -38T402 -39Q377 -33 363 -11T342 45Q333 31 320 16T288 -12T246 -32T194 -38Q156 -35 127 -18T77 27T48 90T42 163Q46 201 62 228T104 271T161 294T227 297Q272 292
302 271T348 223Q353 269 351 321T335 417T292 489T213 517Q178 517 156 505T120 475T101 441T96 413Q96 403 102 391T119 368T145 351T179 348Q192 350 202 357T218 373T226 392T229 411Q229 421 223 428T209 440T191 443T173 433Q182 434 191 430T200 411Q200
400 191 395T171 390T151 399T142 426Q142 443 156 455T190 467Q213 467 232 449T252 399Q252 388 247 376T230 352T201 334T159 326Q135 326 116 335T84 359T65 391T58 425Q58 441 68 465T99 512T153 550T231 566Q352 566 398 482T413 230Q401 163 400 121T405
54T422 19T447 7Q458 5 468 9Q476 11 483 18T494 42L507 37ZM338 88Q337 124 341 164Q333 195 309 221T253 253Q230 257 206 253T162 235T132 197T124 138Q129 84 154 56T230 31Q268 33 294 50T338 88Z" />
<glyph unicode="b" glyph-name="b" horiz-adv-x="554" d="M331 17Q284 17 241 47T168 132Q177 67 194 13Q167 15 140 14T87 9T36 1T-11 -8L-17 6Q4 19 23 34T56 71T79 123T90 196Q91 238 93 296T97 416T96 538T86 642Q78 687 67 712T40 751T8 769T-26 777V796Q-13
794 11 793T63 792T121 797T175 814Q172 790 168 751T160 661T154 553T151 434Q164 458 182 480T221 521T265 552T314 568Q344 572 380 558T448 508T501 416T523 280Q523 225 507 177T465 94T404 38T331 17ZM158 305Q158 278 169 244T200 178T252 125T324 103Q364
103 388 130T424 196T439 276T442 343Q441 370 433 401T409 458T371 502T321 519Q288 518 258 498T206 446T170 377T158 305Z" />
<glyph unicode="c" glyph-name="c" horiz-adv-x="517" d="M294 508Q251 508 222 489T174 436T148 360T142 270Q146 165 184 104T286 42Q322 42 350 56T397 89T428 130T440 166H464Q459 135 443 104T398 47T332 6T247 -6Q187 -2 145 28T76 105T41 208T39 319Q45
373 64 416T111 489T174 535T250 552Q281 554 315 542T382 512Q414 495 431 504T459 565L481 566L476 327L452 319Q449 342 439 374T410 436T362 487T294 508Z" />
<glyph unicode="d" glyph-name="d" horiz-adv-x="566" d="M42 316Q44 364 61 411T108 496T175 556T256 575Q289 573 313 559T354 522T384 471T404 412Q402 473 398 536T386 654Q381 690 374 725Q368 755 360 787T340 846Q384 839 436 835T554 850V830Q539 826
523 822T495 806T474 775T464 719Q463 695 463 659T463 578T463 485T465 390T467 302T471 229Q474 183 483 154T506 108T538 80T577 63L572 45Q555 48 531 51T480 54T424 51T370 40Q378 77 386 112T399 193Q388 169 370 141T326 89T267 50T195 38Q148 41 118 67T70
132T46 220T42 316ZM273 535Q244 536 219 519T173 472T141 400T125 310Q122 260 128 226T147 170T181 137T226 124Q266 120 297 135T349 175T381 229T394 285Q395 310 387 351T364 433T325 504T273 535Z" />
<glyph unicode="e" glyph-name="e" horiz-adv-x="474" d="M32 271Q35 330 57 381T116 468T197 524T292 537Q341 531 367 507T405 454T417 395T417 350Q416 335 414 317T409 282T406 249T409 223Q384 231 351 240T280 255T200 259T117 244Q116 206 122 169T144
97Q157 68 174 46T210 13T250 0T292 12Q309 24 318 41Q326 55 325 75T303 121L428 127Q421 107 408 77T371 19T314 -28T232 -45Q184 -42 146 -15T81 57T42 156T32 271ZM280 511Q252 514 226 497T178 449T141 374T120 284Q177 291 226 291T317 285Q328 308 337 344T345
416T330 479T280 511Z" />
<glyph unicode="f" glyph-name="f" horiz-adv-x="395" d="M257 -43Q227 -29 193 -21T125 -9T57 -6T-4 -12L-5 17Q10 18 23 19T49 29T72 61T91 128Q102 185 106 241T108 355Q81 353 54 346Q59 357 59 370T57 392Q66 391 78 391T106 389Q105 413 104 437T101 485Q99
516 99 554T103 629T120 701T153 760T209 796T292 801Q337 794 368 778T419 741T448 695T457 646Q457 595 441 564T401 517T354 495T314 490Q279 492 257 507T223 543T212 589T222 634T252 668T301 680Q330 679 341 661T351 623Q350 603 337 585T297 570Q281 573
274 584T266 607T274 628T296 636Q304 635 307 630T309 618T305 605T295 594Q305 590 317 595T331 622Q333 638 322 648T294 659Q277 658 259 644T239 597Q237 567 255 545T299 522Q312 522 328 528T360 548T386 584T400 639Q401 658 395 676T376 709T347 733T311
745Q292 747 270 737T227 702T192 641T172 552Q168 512 165 471T161 386Q184 385 208 385T253 384T290 385T316 388Q311 371 309 355T308 331Q268 339 232 346T161 355Q161 304 166 247T184 124Q192 82 200 57T217 17T239 -7T268 -26L257 -43V-43Z" />
<glyph unicode="g" glyph-name="g" horiz-adv-x="557" d="M434 -286Q418 -313 396 -336T347 -376T290 -401T228 -407Q192 -404 165 -388T120 -349T95 -299T90 -249Q93 -225 105 -202T138 -161T186 -132T249 -122Q265 -123 281 -130T309 -149T328 -177T334 -212Q332
-230 324 -248T302 -280T270 -302T232 -307Q210 -304 199 -285T189 -243T205 -203T249 -182Q269 -181 278 -196T280 -225Q271 -239 255 -238T232 -216Q224 -222 220 -233T216 -256T224 -276T246 -285Q264 -285 276 -278T297 -259T308 -235T312 -212Q312 -202 308
-191T295 -170T271 -155T234 -150Q214 -151 195 -159T159 -181T133 -215T123 -259Q123 -284 133 -304T162 -337T203 -358T251 -365Q275 -364 305 -348T359 -298T395 -212T397 -85Q392 -50 390 -18T387 44Q374 25 357 5T318 -32T270 -59T214 -68Q178 -66 144 -51T83
-2T42 89T32 229Q36 313 62 366T123 448T196 486T264 493Q307 488 348 458T413 366Q421 404 428 429T435 468Q467 459 505 458T583 460L582 441Q537 437 512 404T472 297Q463 251 461 208T460 125T464 46T471 -31Q473 -54 474 -85T472 -150T461 -219T434 -286ZM393
223Q394 255 399 286Q392 339 368 373T290 414Q259 418 229 407T175 369T133 301T112 202Q107 145 116 101T145 27T191 -16T245 -27Q270 -23 294 -7T337 31T370 80T389 133Q390 155 391 176T393 223Z" />
<glyph unicode="h" glyph-name="h" horiz-adv-x="517" d="M148 360Q162 393 182 424T229 480T287 516T353 522Q393 515 416 484T451 410T465 322T466 238Q464 200 462 168T456 107T448 49T440 -11Q435 -54 447 -75T478 -100T513 -89T537 -48L553 -55Q551 -73 544
-90T523 -118T490 -134T447 -131Q424 -124 409 -111T385 -74T376 -12T379 83Q383 121 386 163T391 247T389 327T374 393T342 439T288 456Q261 456 237 434T194 376T166 293T155 196V197Q155 192 155 189T156 182Q161 131 168 101T188 53T217 24T259 0L254 -18Q235
-12 201 -4T127 9T51 16T-10 8L-18 32Q-5 37 10 42T40 63T64 111T77 205Q80 265 81 334T82 470T78 597T67 702Q61 736 50 754T26 782T-1 795T-25 801L-26 817Q35 812 98 816T221 847L223 830Q212 819 202 810T182 786T167 747T157 683Q155 657 154 620T151 541T149
452T148 360Z" />
<glyph unicode="i" glyph-name="i" horiz-adv-x="253" d="M15 5Q38 13 53 26T76 52Q86 67 89 83Q111 185 111 277T97 436Q93 457 82 475Q73 490 57 503T16 521L15 537Q35 535 52 535T83 534H111Q123 533 135 533Q146 532 157 532T180 530Q177 494 175 457T172
389Q170 354 170 321Q168 284 167 241T168 158T175 90T191 51Q197 47 207 43Q215 39 228 35T262 27L263 10Q243 11 225 11T192 10Q175 9 160 9Q139 8 115 5Q95 3 70 0T22 -7L15 5ZM118 604Q87 602 70 618T51 656T62 695T106 718Q137 722 155 705T177 667T166 626T118
604Z" />
<glyph unicode="j" glyph-name="j" horiz-adv-x="294" d="M128 559Q98 557 81 571T63 608Q63 631 80 648T127 667Q157 669 174 655T191 617Q191 595 175 578T128 559ZM-13 496Q5 495 37 495T110 497T193 506T276 526L284 509Q263 496 244 482T212 446T192 391T193
304Q199 251 207 203T224 111T241 24T258 -60Q264 -88 265 -122T262 -190T247 -256T219 -312T175 -352T113 -366Q60 -365 24 -351T-34 -315T-66 -267T-77 -216Q-78 -192 -70 -161T-46 -102T-4 -55T53 -33Q85 -32 103 -41T131 -65T143 -98T145 -132Q145 -149 140
-170T124 -209T95 -237T48 -242Q21 -237 11 -216T5 -172Q9 -148 24 -130T66 -112Q82 -112 89 -121T95 -142Q94 -153 87 -159T72 -166Q57 -165 55 -155T60 -135Q51 -135 41 -148T32 -182Q33 -198 44 -209T70 -220Q77 -220 86 -215T103 -200T117 -175T124 -140Q127
-98 108 -78T62 -57Q46 -57 27 -67T-7 -96T-32 -143T-36 -205Q-34 -223 -24 -245T3 -285T44 -313T99 -319Q134 -313 153 -287T178 -220T182 -127T169 -18Q150 96 135 195T102 361Q94 394 79 414T46 446T12 464T-15 477L-13 496Z" />
<glyph unicode="k" glyph-name="k" horiz-adv-x="509" d="M509 -253Q474 -253 440 -242T381 -206T344 -138T341 -32Q348 16 352 62T355 148T341 218T302 266Q277 283 237 286T140 272Q142 229 145 191T154 123Q157 93 165 71Q171 52 182 37T210 26L203 1Q183 8
158 11T103 12T44 3T-15 -18L-20 -1Q-5 10 7 19T28 42T45 78T57 137Q62 174 69 233T83 362T91 504T87 640Q81 687 69 725Q64 741 57 756T39 784T17 805T-11 814V829Q8 826 32 823T88 818T159 821T248 840V820Q230 810 215 800T188 770T166 720T153 638Q148 590
143 527T137 397Q137 373 137 349T139 300Q187 317 225 344T289 401T329 459T343 507Q341 522 336 534Q331 544 321 552T294 562L297 587Q359 579 416 580T530 607L534 587Q519 580 507 574T485 558T464 535T442 497Q433 478 418 453T383 404T336 358T278 323Q358
325 403 282T454 138Q456 87 445 36T426 -61T420 -143T450 -201Q477 -222 503 -226T553 -223T593 -194T621 -147Q630 -120 629 -101T620 -69T600 -50T573 -44Q545 -44 523 -65T499 -120Q498 -132 502 -140T512 -152T526 -159T541 -159Q554 -157 567 -144T580 -113Q574
-117 565 -120T549 -124T536 -120T530 -103Q530 -89 540 -82T564 -74T588 -82T599 -108Q600 -141 578 -163T525 -186Q503 -186 491 -174T474 -143T473 -102T491 -62T525 -31T577 -18Q598 -18 612 -26T634 -46T647 -74T651 -104Q652 -133 643 -159T616 -207T571
-240T509 -253Z" />
<glyph unicode="l" glyph-name="l" horiz-adv-x="252" d="M262 26Q234 30 210 31T167 33H126Q104 32 83 31Q65 30 46 29T11 25L5 38Q28 46 43 58T66 84Q76 99 79 115Q86 149 90 197T96 302T97 418T93 534T85 637T72 717Q66 737 55 755Q46 770 31 783T-9 801L-10
816Q9 814 26 814T56 813H83Q101 814 118 816Q132 818 148 820T175 826Q170 690 168 600T163 454Q161 390 160 353Q159 316 160 273T164 191T174 120T189 76Q194 67 205 60Q213 54 227 49T261 42L262 26V26Z" />
<glyph unicode="m" glyph-name="m" horiz-adv-x="763" d="M237 -4Q215 -1 188 2T134 6T82 7T41 -1L33 16Q47 22 56 27T71 39T80 60T85 98Q86 114 87 143T89 208T90 283T89 358T86 426T81 476Q78 496 71 506T54 522T30 528T0 529V547Q63 542 114 542T197 551L198
538Q192 536 187 529T178 505T170 463T165 397Q177 421 193 445T228 487T271 515T322 524Q365 520 386 492T416 426Q446 484 492 517T598 543Q633 538 660 512T704 446T727 360T726 269Q718 225 697 172T652 66T610 -34T592 -111Q592 -157 614 -178T669 -200Q685
-200 701 -195T731 -180T753 -154T762 -117Q762 -88 741 -75T699 -62Q678 -62 663 -74T648 -106Q648 -111 649 -117T654 -130T665 -140T683 -145Q692 -145 698 -142T709 -134Q695 -129 688 -119T688 -96Q692 -90 700 -89T716 -90T730 -102T736 -122Q736 -142 720
-154T684 -168Q663 -169 646 -156T629 -113Q629 -83 648 -63T700 -43Q738 -43 760 -65T783 -121Q783 -138 777 -158T757 -197T718 -227T655 -240Q631 -240 610 -231T572 -204T546 -161T535 -102Q535 -66 549 -22T584 75Q615 159 627 233T633 362T605 449T544 481Q519
481 501 460T470 406T451 332T440 251T435 176T434 120Q434 95 440 81T456 58T476 47T496 40L490 24Q479 26 453 28T398 31T343 29T303 17L299 38Q308 41 317 43T333 54T345 79T352 130Q355 197 361 257T371 362Q372 385 370 405T361 441T341 465T308 474Q287 473
262 456T216 408T181 334T166 238L165 239Q167 204 168 171T171 113Q173 88 175 72T183 44T203 27T239 16L237 -4V-4Z" />
<glyph unicode="n" glyph-name="n" horiz-adv-x="517" d="M153 377Q165 414 187 451T237 517T299 564T369 579Q402 576 423 550T458 489T475 416T479 353Q477 322 467 294T444 237T420 178T407 115Q405 82 414 53T442 7T484 -7T535 28L548 17Q538 0 515 -16T461
-33Q440 -33 420 -25T383 2T356 50T344 121Q344 156 353 186T372 246T391 308T399 381Q397 418 388 441T365 477T336 493T307 495Q280 490 252 465T202 401T165 313T150 213V215Q150 190 149 171T150 139Q150 110 155 94T168 68T183 56T198 51L197 33Q183 36 162
36T115 34T64 23T15 1L8 15Q23 27 34 36T54 61T69 100T78 163Q84 242 86 318T82 461Q80 482 72 493T51 508T26 513T1 512L0 529Q22 531 45 534T91 540T130 546T158 555Q156 523 156 492T154 434Q153 404 153 377Z" />
<glyph unicode="o" glyph-name="o" horiz-adv-x="487" d="M231 557Q273 558 314 540T388 486T441 399T462 281Q462 215 446 165T402 79T339 26T264 4Q220 1 178 18T103 71T48 159T26 280Q24 350 43 401T93 487T160 538T231 557ZM273 70Q294 72 318 88T360 135T386
213T385 323Q375 386 355 425T312 485T264 513T222 519Q193 517 173 500T140 455T120 392T112 319Q110 271 119 223T150 137Q171 100 203 83T273 70Z" />
<glyph unicode="p" glyph-name="p" horiz-adv-x="531" d="M315 569Q346 570 378 553T436 498T479 405T496 272Q496 196 474 139T419 45T344 -11T265 -28Q226 -26 199 -10T153 30Q152 3 152 -32T151 -103T150 -168T151 -218Q153 -264 178 -287T246 -318L238 -337Q212
-333 174 -333T99 -335T29 -345T-17 -361L-26 -344Q-6 -331 10 -319T38 -284T59 -219T73 -109Q77 -40 79 26T81 152T82 262T83 353Q84 394 76 429T52 491T13 533T-41 551L-35 575Q-1 571 25 570T74 568T114 571T150 579Q146 541 144 506T141 442Q170 499 215 532T315
569ZM424 289Q425 320 417 360T392 437T348 496T284 515Q246 510 221 482T180 414T157 331T150 253Q149 235 152 200T166 130T198 69T256 43Q286 43 315 61T367 112T406 190T424 289Z" />
<glyph unicode="q" glyph-name="q" horiz-adv-x="563" d="M584 520Q569 519 553 510T523 478T498 414T484 307Q481 242 480 178T479 56T482 -48T489 -128Q493 -160 502 -189T520 -244T539 -286T553 -311Q535 -309 509 -311T454 -320T395 -335T342 -358L335 -331Q351
-321 368 -309T399 -272T422 -204T431 -89Q431 -23 429 28T424 116Q416 94 403 70T369 26T321 -7T254 -20Q207 -20 166 1T93 60T44 153T26 272Q26 337 49 388T109 476T188 531T270 550Q300 550 323 541T363 515T392 477T414 431Q413 470 412 498T407 541Q429 539
454 538T504 536T549 538T582 545L584 520ZM398 271Q401 325 392 366T366 437T327 481T284 499Q265 500 239 493T186 462T140 399T112 295Q105 232 114 185T142 107T184 59T229 42Q250 41 278 56T332 102T376 175T398 271Z" />
<glyph unicode="r" glyph-name="r" horiz-adv-x="457" d="M447 431Q446 414 444 402T440 381T441 363T452 345Q425 353 403 356T364 362Q345 363 330 362Q340 376 343 393T349 435Q350 453 347 472T327 496Q320 497 312 497T294 493T271 478T242 449Q219 422 201
392T170 331T150 275T141 229Q141 226 140 225Q142 186 145 152T151 94Q154 71 159 56T172 32T187 16T202 5L204 -16Q190 -10 164 -8T109 -7T49 -16T-2 -35L-5 -12Q23 -1 46 29T76 125Q79 157 82 191T87 260T86 332T75 408Q67 436 57 460Q49 480 37 497T9 519L7
542Q19 540 37 538T77 535T120 533T162 535Q158 517 152 468T141 358Q154 388 175 425T224 493T287 543T364 559Q389 556 405 542T431 509T444 469T447 431Z" />
<glyph unicode="s" glyph-name="s" horiz-adv-x="455" d="M384 45Q378 24 367 0T336 -45T291 -80T230 -97Q206 -99 185 -94T146 -78T115 -55T95 -29Q83 -3 82 23T92 70Q108 96 126 103T162 112Q178 114 195 110T225 97T246 75T253 44Q252 30 246 19T229 -1T208
-14T188 -18Q174 -16 159 -9T142 14Q140 29 145 41T163 59Q181 66 191 65T206 57T212 44T212 33Q209 23 202 19Q196 15 186 16T161 30Q158 19 162 12T172 2Q179 -2 190 -3Q211 -5 223 10T234 45T215 79T162 92Q140 90 128 78T112 50T112 15T128 -16Q140 -30 155
-38T186 -49T218 -51T248 -43Q264 -36 280 -18T304 25T308 82T278 147Q265 165 231 189T158 242T84 302T32 366Q17 398 16 440T35 521T100 591T223 632Q278 639 323 624T399 580T439 511T435 426Q431 412 422 397T398 369T363 349T319 343Q301 344 281 352T244
374T214 405T198 441Q190 483 211 509T278 539Q298 540 315 533T344 513T362 486T366 457Q360 412 316 406Q300 404 282 411T255 438Q250 452 253 470T273 498Q281 502 290 501T307 496T317 483T317 464Q314 457 308 453Q303 450 294 450T270 456Q271 443 277 437T292
429Q301 426 311 426Q329 428 338 436T350 456T346 481T326 506Q306 521 279 521T232 498Q206 466 218 435T269 384Q275 381 283 377T303 373T329 376T361 392Q388 410 393 440T389 500T357 554T305 584Q273 590 248 588T202 578T166 560T138 539Q133 534 123 521T106
489T99 444T117 389Q133 361 158 341T212 303T269 269T319 233Q343 213 357 188T379 136T387 85T384 45Z" />
<glyph unicode="t" glyph-name="t" horiz-adv-x="304" d="M253 33Q276 33 296 49T324 103L345 95Q342 71 326 47T285 5T229 -17T164 -7Q128 10 112 37T92 99T91 176T94 263Q94 289 94 324T92 400T87 482T81 566Q47 562 17 557T-35 543Q-36 552 -36 557T-35 566T-34
576T-36 592Q-12 594 17 596T78 600Q77 614 76 627T73 654Q68 701 55 729T25 772T-5 792T-26 800L-23 819Q-4 811 24 809T82 808T142 818T194 836Q184 808 177 747T164 605Q216 608 239 613Q234 607 234 594T237 569Q220 571 201 571T162 572Q159 514 158 451T159
327T167 207T182 99Q190 64 210 49T253 33Z" />
<glyph unicode="u" glyph-name="u" horiz-adv-x="484" d="M445 37Q452 37 459 41Q465 44 470 50T480 68H495Q494 58 489 46T474 23T449 5T414 0Q350 6 337 124Q328 100 317 75T289 29T252 -5T200 -19Q162 -19 134 -4T86 38T59 97T53 167Q56 217 67 268T80 365T70
445T10 496L14 511Q29 508 47 503T85 495T127 492T173 498Q161 472 152 449T136 398T127 334T124 245Q124 192 132 156T156 99T193 70T240 63Q265 66 282 86T311 140T329 217T338 308Q340 356 339 390T331 447T313 484T281 507L283 523Q301 523 326 523T376 524T422
529T455 537Q438 504 425 454T402 348T390 237T392 137T409 65T445 37Z" />
<glyph unicode="v" glyph-name="v" horiz-adv-x="453" d="M288 530Q324 526 379 521T504 523L503 511Q492 508 479 503T454 489T430 466T412 428Q402 401 383 343Q366 293 337 206T259 -20Q241 -18 227 -18T201 -17Q189 -17 178 -18Q143 118 121 202T85 333Q69
388 61 413Q43 465 19 483T-31 505L-27 522Q-10 519 16 517T71 515T131 516T190 525L196 507Q180 506 165 496T141 464T132 409T143 329Q164 253 189 181T241 57Q253 87 269 134T302 229T332 322T349 393Q354 423 350 444T337 480T315 504T288 520V530V530Z" />
<glyph unicode="w" glyph-name="w" horiz-adv-x="783" d="M824 570Q782 561 757 521T726 406Q724 381 721 340T709 253T689 161T657 77T609 16T544 -6Q503 -5 475 23T428 93T399 187T384 285Q376 238 361 191T323 107T270 47T202 26Q156 28 129 51T89 107T74 179T75
249Q76 268 80 292T88 344T91 401T86 458Q78 499 54 533T-15 590L-10 608Q19 606 46 605T104 604T171 610T253 626L259 607Q241 599 223 587T190 552T165 490T154 391Q152 330 154 275T165 177T193 109T240 86Q261 87 280 116T315 191T341 289T356 390T356 474T336
522Q348 522 366 522T402 524T436 527T461 532Q449 518 442 488T433 419T432 336T440 250Q446 214 455 182T477 124T510 84T554 69Q572 69 588 89T618 148T638 239T646 359Q646 425 639 464T617 527T584 560T540 580L548 600Q574 593 611 588T686 580T761 579T821
588L824 570V570Z" />
<glyph unicode="x" glyph-name="x" horiz-adv-x="452" d="M489 6Q464 10 435 12T376 14T320 14T273 8L270 28Q279 31 287 32T300 38T306 53T298 86Q294 96 286 115T266 158T242 210T215 268Q189 231 167 193T124 120Q113 99 114 86T124 64T143 53T160 46L156 28Q133
33 106 36T51 41T-4 42T-54 35L-56 54Q-18 68 21 98T102 189Q118 213 141 248T189 322Q181 336 173 352T157 386Q131 440 104 475T50 531T2 559T-38 567L-29 599Q4 585 63 584T210 597L214 581Q205 578 196 575T181 565T175 544T186 506Q192 492 205 461T236 391Q261
430 280 461T308 504Q316 517 316 527T311 542T296 550T278 551L281 568Q308 566 340 565T406 563T469 565T523 575L522 549Q503 548 485 544T448 531T407 503T358 456Q337 431 312 400T261 334Q273 310 285 284T309 233T332 185T354 142Q376 101 394 80T429 48T461
36T493 30L489 6V6Z" />
<glyph unicode="y" glyph-name="y" horiz-adv-x="474" d="M428 -189Q426 -233 412 -267T373 -323T318 -358T250 -371Q214 -372 186 -359T137 -325T107 -276T97 -219Q98 -190 109 -168T140 -132T182 -110T228 -103Q268 -104 283 -128T298 -183Q298 -200 293 -217T277
-247T252 -269T219 -278Q211 -278 202 -276T186 -268T173 -250T168 -219Q168 -191 181 -175T214 -158Q228 -158 236 -166T246 -184T243 -202T223 -210Q209 -209 209 -199T214 -180Q206 -184 200 -193T193 -216Q193 -234 202 -244T225 -254Q235 -254 243 -248T258
-232T267 -211T271 -188Q271 -156 251 -140T202 -126Q191 -127 177 -134T151 -153T131 -183T124 -220Q125 -240 132 -259T154 -292T191 -314T245 -318Q307 -312 339 -245T370 -67Q369 -30 368 -3T366 46T365 84T364 118Q356 91 344 62T311 9T261 -30T190 -44Q159
-43 136 -32T97 0T70 47T55 106Q50 146 54 186T65 266Q71 317 73 353T72 413T54 454T15 485L26 505Q37 502 48 499T77 494T122 493T191 499Q183 484 175 460T160 406T148 343T139 279Q136 248 136 210T144 139T166 82T209 56Q236 54 257 67T294 98T318 134T329
160Q331 168 334 191T339 247T342 315T341 383Q339 412 334 431T320 462T303 481T283 492L289 512Q305 505 326 501T371 496T416 494T454 498Q428 444 415 358T407 148Q409 92 413 49T421 -32T427 -107T428 -189Z" />
<glyph unicode="z" glyph-name="z" horiz-adv-x="419" d="M403 210Q391 163 385 122T377 50Q374 14 376 -17L360 -22Q354 -8 347 3T327 23T290 34T229 35Q201 33 168 31Q140 29 104 27T27 22Q63 87 104 147T182 264T252 375T302 482Q267 490 222 490T137 480T67
444T34 379L15 383Q21 407 26 432T33 483T36 533T32 577L54 580Q60 569 72 560T106 545T161 538T245 543Q282 548 313 552Q339 555 363 558T395 560Q369 498 335 432T266 303T202 182T157 80Q200 79 233 79T292 92T341 132T385 215L403 210Z" />
<glyph unicode="{" glyph-name="braceleft" horiz-adv-x="233" d="M98 529Q85 578 87 622T106 701T149 758T213 786L212 758Q202 761 188 751T164 720T150 669T159 601Q169 565 173 528T172 457T151 395T108 349Q119 334 129 317T144 275T150 220T140 148Q128
97 126 60T130 -2T150 -44T184 -68L173 -95Q148 -80 127 -65T93 -27T74 32T77 124Q91 238 80 291T31 347L32 379Q47 376 64 382T92 405T107 452T98 529Z" />
<glyph unicode="|" glyph-name="bar" horiz-adv-x="193" d="M111 739Q108 671 107 593T107 436T110 280T116 141T121 30T126 -38L61 -43Q64 149 63 291T57 528Q53 639 46 717L111 739V739Z" />
<glyph unicode="}" glyph-name="braceright" horiz-adv-x="239" d="M125 162Q138 113 136 69T118 -10T75 -67T10 -95L11 -67Q21 -70 35 -60T59 -30T73 21T65 90Q54 125 51 162T52 234T72 296T116 342Q105 357 95 374T79 415T73 470T84 542Q96 593 98 630T94 693T73
735T39 759L50 786Q75 772 96 757T130 717T148 657T146 566Q132 453 143 400T193 344L191 312Q176 315 159 309T131 286T116 239T125 162Z" />
<glyph unicode="~" glyph-name="asciitilde" horiz-adv-x="456" d="M415 341Q377 309 329 305T236 327Q215 339 192 340T146 336T107 318T79 288L31 335Q41 346 59 360T101 383T154 392T217 375Q249 359 273 356T317 356T350 369T375 390L415 341Z" />
<glyph unicode="&#xa0;" glyph-name="uni00A0" horiz-adv-x="307" />
<glyph unicode="&#xa1;" glyph-name="exclamdown" horiz-adv-x="195" d="M164 -2Q143 0 124 -2T88 -9T58 -17T36 -21Q46 -9 55 31T72 127T82 248T82 378Q80 441 79 480T76 542T71 573T59 584Q79 581 105 583T142 587Q133 572 130 554T126 512T128 454T134 374Q136
344 137 306T140 227T144 147T148 76T155 23T164 -2ZM107 629Q87 621 68 624T40 647Q34 662 42 680T74 709Q97 719 117 714T143 691Q148 674 138 656T107 629Z" />
<glyph unicode="&#xa2;" glyph-name="cent" horiz-adv-x="389" d="M279 429Q280 463 280 493T275 547T263 584T240 600Q226 601 205 590T163 555T124 495T96 410Q88 369 89 326T101 245T130 183T178 154Q198 151 218 157T255 175T286 205T307 242L341 221Q336
211 325 190T294 149T245 115T175 104Q170 90 165 69T154 27Q148 3 141 -22L102 -10Q112 22 117 46T126 85Q130 103 130 114Q91 129 66 160T28 230T11 309T13 385Q19 424 36 467T78 548T138 611T211 644Q214 654 218 671Q221 685 225 706T234 756L282 749L259 642Q271
639 280 631T296 612L297 613L300 607Q301 605 302 603T304 599Q308 593 313 590T323 589T335 607T347 649Q354 646 362 646Q366 646 369 647L316 428L279 429Z" />
<glyph unicode="&#xa3;" glyph-name="sterling" horiz-adv-x="463" d="M391 91Q411 93 430 103T463 138L478 126Q474 111 461 91T425 57T367 40T285 57Q243 74 205 74T137 65T85 41T57 17Q56 29 52 41T42 63T29 81T13 90Q31 101 51 122T87 172T111 238T114 319Q85
315 57 311T4 299Q-1 303 0 319T0 345Q17 347 45 347T109 349Q105 361 102 373T93 397Q68 457 65 514T79 615T133 687T228 719Q285 722 318 708T367 672T388 624T392 581Q392 557 382 532T353 488T308 459T250 456Q210 464 191 484T167 528T167 574T182 609Q188
618 197 626T218 639T242 644T269 638Q290 627 294 606T293 564Q287 544 270 531T233 527Q226 530 223 537T221 553T227 567T243 574Q251 575 255 570T259 557Q267 563 269 574T267 597T254 614T231 618Q222 616 213 610T197 593T187 570T186 541Q189 526 198 514T220
494T248 481T281 478Q297 479 313 486T341 509T358 547T361 603Q359 623 351 641T327 672T290 692T237 697Q207 695 180 681T135 642T115 579T129 496Q140 465 153 428T174 352Q200 355 223 359T264 372L274 323Q259 325 235 325T180 325Q190 268 183 215T138 120Q192
140 235 135T308 118Q329 109 348 99T391 91Z" />
<glyph unicode="&#xa4;" glyph-name="currency" horiz-adv-x="484" d="M409 355Q410 323 401 291T375 231L423 167L384 135L337 191Q317 177 293 170T237 163Q181 163 138 193L91 113L44 154L101 227Q84 249 74 278T62 343Q62 375 73 404T101 456L36 525L79 561L132
487Q159 510 190 522T251 534Q292 531 325 510L378 573L414 541L361 478Q383 453 396 422T409 355ZM229 215Q256 214 277 226T312 259T333 306T341 360Q341 387 333 409T310 446T279 470T243 478Q218 478 198 464T163 428T140 383T132 339Q132 319 137 298T153
258T183 228T229 215Z" />
<glyph unicode="&#xa5;" glyph-name="yen" horiz-adv-x="474" d="M302 658Q310 656 329 653T372 646T420 642T464 644V628Q457 626 446 621T421 607T395 584T370 551Q356 526 339 500T305 448T277 400T260 359Q260 357 260 356T259 353Q321 355 367 356T425 357Q421
342 425 332T426 305Q388 310 344 312T255 315Q253 294 253 268T254 216Q306 218 352 220T433 227L434 198Q401 199 355 198T256 191Q258 174 261 160T269 137Q274 130 282 124Q289 119 300 113T331 103L328 86Q317 89 290 88T233 82T173 72T128 61L125 77Q144
86 165 112T194 185Q150 180 109 174T31 160L9 206Q44 208 93 210T196 214Q196 236 196 262T193 315Q146 314 107 312T42 306Q34 312 35 326T34 350Q71 348 111 348T191 351Q190 356 190 361T189 371Q174 399 150 444T95 533T29 614T-41 660L-38 678Q-1 664 47
665T150 674V664Q133 664 122 652T117 624Q120 617 130 594T156 540T189 476T225 415Q245 440 267 476T304 547T320 609T298 644L302 658V658Z" />
<glyph unicode="&#xa6;" glyph-name="brokenbar" horiz-adv-x="185" d="M55 399Q55 435 57 465T59 530T57 609T46 719L100 720Q100 628 105 546T116 398L55 399ZM47 280Q67 278 81 277T105 282Q105 266 106 226T108 137T112 41T119 -34L58 -40Q55 8 54 53T53 139T51
215T47 280Z" />
<glyph unicode="&#xa7;" glyph-name="section" horiz-adv-x="371" d="M139 83Q153 86 158 76T161 55Q173 57 180 67T189 95Q190 111 181 124T146 138Q137 138 126 133T105 119T88 94T81 57Q80 35 88 16T109 -17T140 -40T175 -50Q193 -51 210 -45T240 -27T263 5T273
49Q275 99 249 133T174 201Q154 214 131 230T87 266T53 312T39 371Q39 423 67 464T140 520Q122 532 104 544T69 574T43 613T32 667Q31 700 44 730T80 783T132 818T194 828Q225 826 244 814T274 786T287 754T290 729Q289 714 283 700T266 674T240 655T203 650Q182
651 171 659T157 678T156 699T165 716Q174 725 187 725T207 714Q211 706 208 697T196 685Q201 681 207 679T220 676Q232 676 240 681T254 696T261 715T264 736Q264 759 248 778T199 797Q174 797 153 786T116 758T91 721T81 682Q80 641 109 614T185 561Q209 548
231 534T271 503T299 463T310 411Q310 354 279 310T190 247Q195 243 200 240T210 231Q238 210 261 191T301 150T327 102T335 41Q334 4 320 -23T283 -68T233 -93T177 -99Q146 -97 120 -85T74 -53T43 -4T31 61Q31 89 42 109T72 142T111 160T153 165Q184 163 200 143T214
94Q213 79 208 66T193 44T173 29T150 24Q138 24 130 32T119 51T120 71T139 83ZM166 266Q176 270 188 278T210 298T229 327T239 368Q243 412 223 442T173 496Q146 488 123 461T98 389Q97 370 100 355T112 325T133 297T166 266Z" />
<glyph unicode="&#xa8;" glyph-name="dieresis" horiz-adv-x="634" d="M238 659Q218 657 207 667T193 691Q190 705 201 718T232 734Q253 737 264 727T276 703Q278 689 269 676T238 659ZM402 664Q382 658 369 666T354 687Q351 699 362 714T394 734Q416 739 427
731T441 710Q443 696 435 683T402 664Z" />
<glyph unicode="&#xa9;" glyph-name="copyright" horiz-adv-x="628" d="M339 740Q395 738 441 709T518 636T565 539T575 436Q571 386 548 341T487 262T400 209T294 191Q250 192 203 209T116 261T53 349T31 476Q34 548 62 599T134 683T232 729T339 740ZM303 225Q345
223 385 240T456 292T503 376T513 492Q507 550 482 590T422 656T351 691T287 701Q245 699 209 680T145 630T102 557T84 468Q82 421 98 378T145 302T215 248T303 225ZM355 486Q357 500 357 519T355 554T343 583T319 595Q289 597 270 566T243 477Q239 448 239 421T243
373T261 337T294 322Q315 320 334 328T369 349T396 377T413 403L431 396Q428 391 417 373T387 335T341 302T280 296Q245 302 224 322T191 372T179 435T183 503Q190 537 203 562T232 605T267 632T303 641Q336 641 353 624T381 589T404 559T441 557Q430 549 420 539T400
519T385 498T376 481L355 486Z" />
<glyph unicode="&#xaa;" glyph-name="ordfeminine" horiz-adv-x="327" d="M263 375Q264 348 274 334T298 315T323 315T340 334L357 321Q349 295 329 283T287 272T246 294T225 351Q211 329 188 309T129 287Q107 286 88 295T54 322T32 366T26 427Q27 456 39 489T72
550T117 596T169 613Q200 611 216 595T240 555Q242 566 244 579T245 604L290 589Q281 567 276 537T267 476T263 418T263 375ZM220 441Q221 457 217 476T206 513T188 543T165 557Q153 558 140 551T117 530T98 497T88 457Q85 435 87 414T96 377T113 350T137 338Q150
338 164 347T190 372T210 405T220 441Z" />
<glyph unicode="&#xab;" glyph-name="guillemotleft" horiz-adv-x="370" d="M135 213Q151 231 177 261T230 324T280 384T316 429Q313 408 312 391T311 357Q305 350 288 331T249 290T206 247T174 212Q184 199 202 178T242 136T283 97T318 73Q316 52 315 37T314
12V-7Q311 -4 299 9T270 43T234 88T195 136T160 180T135 213ZM189 -7Q186 -4 174 9T145 43T108 88T69 136T35 180T10 213Q26 231 52 261T105 324T155 384T191 429Q188 408 187 391T186 357Q180 350 163 331T123 290T81 247T48 212Q58 199 77 178T117 136T158 97T193
73Q191 52 190 37T189 12V-7Z" />
<glyph unicode="&#xac;" glyph-name="logicalnot" horiz-adv-x="589" d="M531 394Q530 364 530 340T529 297T531 261T538 228Q526 230 514 230T492 227Q481 225 470 223Q473 249 474 276T471 329Q410 330 345 330T223 331T119 329T49 324Q48 337 47 348T44 368Q42
378 41 385Q75 383 119 383T205 382Q253 382 301 383Q349 384 393 386Q431 388 469 389T531 394Z" />
<glyph unicode="&#xad;" glyph-name="sfthyphen" horiz-adv-x="475" d="M41 385Q88 385 146 385T259 385T358 389T419 397Q419 391 417 383T412 366T410 347T413 325Q403 327 378 328T320 330T248 330T172 327T102 321T48 311Q44 329 46 348T41 385Z" />
<glyph unicode="&#xae;" glyph-name="registered" horiz-adv-x="628" d="M339 740Q395 738 441 709T518 636T565 539T575 436Q571 386 548 341T487 262T400 209T294 191Q250 192 203 209T116 261T53 349T31 476Q34 548 62 599T134 683T232 729T339 740ZM303 225Q345
223 385 240T456 292T503 376T513 492Q507 550 482 590T422 656T351 691T287 701Q245 699 209 680T145 630T102 557T84 468Q82 421 98 378T145 302T215 248T303 225ZM376 602Q424 601 444 576T464 509Q464 490 455 474T432 446T399 428T359 424Q339 427 326 444T312
481Q312 500 326 516T364 530Q373 529 378 524T383 511Q384 503 379 496T361 489Q350 489 346 500Q340 494 338 483Q337 474 343 465T365 456Q379 456 388 462T402 477T410 497T412 517Q412 525 409 534T399 552T383 565T361 569Q343 568 324 554T290 520T264 475T252
428Q250 405 254 388Q256 371 261 362T273 348T287 341T300 336L297 319Q283 321 266 322T231 324T200 322T178 315L174 330Q183 336 189 340T199 353T205 377T208 418Q209 445 209 471T207 520T194 559T165 584L163 602Q169 599 181 597T207 593T238 592T268 597Q265
583 262 560T256 511Q264 527 276 543T305 573T339 594T376 602Z" />
<glyph unicode="&#xaf;" glyph-name="overscore" horiz-adv-x="634" d="M420 739Q417 729 418 716T428 692Q410 692 380 690T319 682T260 669T218 654Q216 674 215 687T206 714Q224 717 254 720T315 726T375 732T420 739Z" />
<glyph unicode="&#xb0;" glyph-name="degree" horiz-adv-x="179" d="M117 783Q132 778 143 766T160 740T168 709T168 680Q165 665 158 651T140 627T113 611T78 609Q60 612 45 620T20 642T6 674T9 717Q14 733 25 748T50 773T82 786T117 783ZM128 691Q132 707 127
725T102 748Q90 750 81 747T66 736T55 721T49 706Q47 698 48 689T52 672T61 658T73 649Q90 644 106 657T128 691Z" />
<glyph unicode="&#xb1;" glyph-name="plusminus" horiz-adv-x="519" d="M296 537Q284 496 282 358Q305 359 331 360T383 364T429 367T463 371Q461 361 459 342T456 306Q424 308 378 309T282 310Q282 272 283 246T285 200T289 167T292 143Q284 143 273 142T250
139T228 135T214 132Q222 158 224 203T227 309Q174 307 126 302T45 286Q42 293 41 304T40 327T41 349T41 364Q52 362 73 361T121 358T175 357T227 357Q227 390 227 421T224 476T219 515T210 532Q228 530 247 528T296 537ZM51 68Q98 68 156 68T269 68T368 72T429
80Q429 74 427 66T423 49T421 30T423 7Q413 9 388 10T330 12T258 13T182 10T112 4T58 -6Q54 11 56 30T51 68Z" />
<glyph unicode="&#xb2;" glyph-name="twosuperior" horiz-adv-x="279" d="M222 649Q222 619 212 588T184 527T144 472T95 428Q133 438 170 441T232 437Q227 424 226 411T225 381Q207 388 186 393T141 400T92 397T41 381Q40 397 40 407T34 424Q49 439 72 460T118
509T156 571T173 644Q173 683 159 709T116 737Q90 738 71 714T49 658Q49 648 52 639T61 622T77 611T99 609Q109 610 115 616T125 631T128 649T127 665Q122 657 111 656T95 667Q91 676 96 684T109 697T127 700T143 686Q148 675 148 662T144 636T132 611T114 594Q98
585 75 588T38 614Q29 628 27 647T29 685T47 721T84 750Q101 759 124 758T170 744T207 709T222 649Z" />
<glyph unicode="&#xb3;" glyph-name="threesuperior" horiz-adv-x="306" d="M85 488Q91 493 97 493T108 489T114 479T111 467Q122 469 129 477T137 497Q137 511 126 520T100 529Q82 528 65 513T48 469Q48 458 53 446T68 425T92 410T123 408Q135 410 149 418T177
441T200 478T212 529Q214 559 207 573T187 591T160 591T132 577L105 618L199 702Q182 704 161 704T118 701T75 691T37 673Q39 685 41 695T43 714T44 734T40 760Q52 752 81 748T144 743T212 746T265 758Q262 740 261 727T260 706V690L161 614Q204 624 230 612T258
548Q259 519 246 491T212 439T165 401T111 386Q84 386 67 397T41 423T28 455T27 484Q29 502 38 515T61 537T90 549T122 548Q139 543 149 531T160 503Q161 480 146 463T105 445Q97 445 91 449T81 461T78 475T85 488Z" />
<glyph unicode="&#xb4;" glyph-name="acute" horiz-adv-x="634" d="M378 769Q389 760 396 751T407 735Q411 727 414 720Q393 709 369 696T322 668T279 640T247 615L220 653Q269 692 300 715T348 750Q368 764 378 769Z" />
<glyph unicode="&#xb5;" glyph-name="mu" horiz-adv-x="494" d="M31 -95Q35 -72 39 -35T48 48T56 141T62 235T66 320T68 384Q68 422 56 452T4 496L8 511Q22 508 40 503T78 495T120 492T167 498Q154 472 145 449T129 398T120 334T117 245Q117 192 125 156T149 99T186
70T232 63Q257 66 275 86T305 140T323 217T331 308Q333 356 332 390T324 447T306 484T274 507L275 523Q293 523 318 523T369 524T415 529T449 537Q432 503 419 453T396 348T384 237T386 137T403 65T439 37Q446 37 453 41Q458 44 464 50T473 68H488Q487 58 482 46T467
23T443 5T407 0Q343 6 330 124Q321 100 310 75T282 29T244 -5T193 -19Q170 -19 151 -7T118 22Q116 3 114 -15Q112 -31 111 -48T111 -76Q114 -116 117 -139T128 -176T147 -200T177 -222L175 -240Q116 -214 58 -210T-61 -210L-60 -194Q-50 -191 -37 -188T-10 -175T14
-147T31 -95Z" />
<glyph unicode="&#xb6;" glyph-name="paragraph" horiz-adv-x="499" d="M241 266Q212 276 175 296T105 348T49 425T26 529Q26 597 53 640T120 706T208 736T297 737Q328 733 361 734Q389 734 422 738T488 756Q483 749 480 736T476 708T474 675T477 643Q453 659
404 667Q400 625 400 569T400 452T405 327T414 208T425 107T438 35Q424 38 399 35T352 26Q355 52 355 98T354 195T352 293T350 367Q349 391 348 431T347 515T347 600T350 671Q326 671 302 668Q298 620 299 541T304 369T311 179T315 -2Q306 -1 293 -4Q282 -6 266
-11T229 -26Q232 -11 235 22T240 96T242 182T241 266Z" />
<glyph unicode="&#xb7;" glyph-name="middot" horiz-adv-x="203" d="M95 414Q118 416 134 402T152 367Q152 345 136 330T96 313Q73 311 57 325T41 360Q41 381 57 397T95 414Z" />
<glyph unicode="&#xb8;" glyph-name="cedilla" horiz-adv-x="634" d="M323 -18Q338 -17 351 -17T375 -23T392 -39T401 -71Q404 -91 398 -111T378 -146T348 -171T312 -179Q274 -176 256 -153T231 -101Q250 -119 271 -128T313 -133Q326 -130 337 -115T351 -85T345
-57T309 -48Q282 -50 267 -45T246 -27T241 3T248 43L307 45Q302 34 298 23T294 2T301 -14T323 -18Z" />
<glyph unicode="&#xb9;" glyph-name="onesuperior" horiz-adv-x="219" d="M131 748Q129 724 130 682T133 590T137 490T142 400Q130 405 111 406T73 402Q77 426 81 459T89 530T93 610T92 692Q80 676 64 661T32 641L26 655Q51 673 68 698T93 742L131 748Z" />
<glyph unicode="&#xba;" glyph-name="ordmasculine" horiz-adv-x="317" d="M274 418Q270 393 260 370T232 329T191 304T137 300Q110 304 87 318T49 355T28 409T32 479Q39 506 55 530T94 571T143 593T197 589Q220 580 236 560T262 516T275 465T274 418ZM119 353Q134
348 150 352T180 368T204 396T218 433Q221 449 221 467T215 501T199 529T171 544Q150 547 134 540T107 521T88 493T77 463Q74 448 75 431T83 398T98 370T119 353Z" />
<glyph unicode="&#xbb;" glyph-name="guillemotright" horiz-adv-x="359" d="M213 209Q197 191 171 161T118 98T68 38T32 -7Q36 13 37 31T37 65Q43 72 61 91T100 132T143 175T175 210Q165 223 147 244T107 286T66 325T31 349Q33 369 34 384T35 410V429Q38 426
49 413T78 379T115 334T154 286T188 242T213 209ZM160 429Q163 426 175 413T204 379T240 334T279 286T314 242T339 209Q323 191 297 161T244 98T193 38T158 -7Q164 31 162 65Q168 72 186 91T225 132T268 175T300 210Q290 223 272 244T232 286T191 325T156 349Q158
369 159 384T160 410V429Z" />
<glyph unicode="&#xbc;" glyph-name="onequarter" horiz-adv-x="591" d="M84 -15Q68 -15 44 -15T-5 -23Q62 86 113 172T199 319Q239 390 270 444Q309 510 340 566T393 664T428 728T442 751Q465 743 494 743T540 749Q499 696 437 606T306 404Q269 344 236 285T174
171T123 69T84 -15ZM537 223Q530 201 526 179T521 134Q502 148 466 153Q467 125 470 99Q472 76 476 52T487 10L407 -2Q411 33 414 73T421 155Q386 155 347 151T272 142Q273 160 273 179T267 204Q280 215 297 233T332 273T363 321T385 372L463 377Q463 342 463 310T464
252Q464 222 465 196Q486 200 504 206T537 223ZM423 190Q425 232 425 268T422 331Q413 314 399 294T368 254T334 216T300 187Q325 188 357 188T423 190ZM147 748Q145 724 146 682T149 590T155 490T160 400Q146 405 128 406T89 402Q93 426 97 459T105 530T109 610T109
692Q96 676 81 661T48 641L42 655Q68 673 84 698T110 742L147 748Z" />
<glyph unicode="&#xbd;" glyph-name="onehalf" horiz-adv-x="601" d="M395 45Q433 55 470 58T531 54Q526 41 525 28T524 -2Q506 5 485 10T440 16T391 13T340 -2Q339 13 339 23T333 41Q348 56 371 77T417 126T455 188T472 261Q473 299 459 325T415 353Q389 354
370 331T348 275Q347 255 360 239T399 226Q408 227 414 233T424 248T427 265T426 282Q421 274 411 273T395 284Q391 293 395 301T408 314T426 316T442 302Q447 292 447 279T443 252T431 228T413 210Q397 202 374 205T337 230Q328 245 326 263T328 301T346 337T383
367Q400 375 423 374T469 361T506 326T521 266Q521 236 511 205T484 144T443 89T395 45ZM442 751Q465 743 494 743T540 749Q499 696 437 606T306 404Q269 344 236 285T174 171T123 69T84 -15Q68 -15 44 -15T-5 -23Q62 86 113 172T199 319Q239 390 270 444Q309 510
340 566T393 664T428 728T442 751ZM160 400Q146 405 128 406T89 402Q93 426 97 459T105 530T109 610T109 692Q96 676 81 661T48 641L42 655Q68 673 84 698T110 742L147 748Q145 724 146 682T149 590T155 490T160 400Z" />
<glyph unicode="&#xbe;" glyph-name="threequarters" horiz-adv-x="622" d="M100 488Q106 493 112 493T123 489T129 479T126 467Q137 469 145 477T153 497Q153 511 142 520T116 529Q97 528 80 513T63 469Q64 458 69 446T84 425T107 410T138 408Q150 410 164 418T192
441T215 478T227 529Q229 559 222 573T202 591T175 591T147 577L121 618L214 702Q197 704 176 704T133 701T90 691T52 673Q54 685 56 695T58 714T59 734T55 760Q67 752 96 748T160 743T228 746T281 758Q275 722 275 706Q274 696 275 690L176 614Q219 624 245 612T273
548Q274 519 262 491T228 439T180 401T126 386Q99 386 82 397T56 423T43 455T42 484Q45 502 54 515T76 537T105 549T137 548Q154 543 164 531T175 503Q176 480 162 463T121 445Q112 445 106 449T96 461T93 475T100 488ZM115 -15Q99 -15 75 -15T26 -23Q93 86 144
172T230 319Q270 390 301 444Q339 510 370 566T424 664T459 728T473 751Q496 743 525 743T570 749Q530 696 468 606T337 404Q300 344 267 285T205 171T154 69T115 -15ZM552 134Q533 148 497 153Q498 125 501 99Q503 76 507 52T518 10L437 -2Q441 33 444 73T452
155Q416 155 377 151T303 142Q304 160 304 179T298 204Q311 215 328 233T363 273T394 321T416 372L494 377Q494 342 494 310T495 252Q495 222 496 196Q516 200 534 206T567 223Q561 201 557 179T552 134ZM454 190Q456 232 456 268T453 331Q444 314 430 294T399
254T365 216T331 187Q356 188 388 188T454 190Z" />
<glyph unicode="&#xbf;" glyph-name="questiondown" horiz-adv-x="485" d="M242 -14Q191 -14 150 0T79 37T35 91T20 154Q22 208 44 247T98 314T168 358T239 382Q240 400 240 423T237 472T231 523T219 569Q227 567 242 567T274 570T306 576T331 586Q326 558 322
520T315 446T311 382T312 347Q292 349 258 342T191 312T135 251T115 152Q117 110 134 85T176 46T230 29T286 28Q316 31 342 43T387 73T413 118T417 176Q414 196 401 213T367 242T323 258T274 255Q256 249 243 238T223 213T215 183T219 154Q228 127 246 117T284
107Q311 109 325 120T342 147Q344 168 331 176T303 185Q289 185 279 175Q287 173 293 166T294 147Q291 140 283 137T267 136T253 147T249 170Q253 189 271 198T307 208Q315 208 325 205T346 196T362 179T369 155Q370 129 348 108T287 87Q269 87 252 92T220 108T197
132T187 165Q185 191 193 213T220 252T267 278T331 287Q369 286 397 275T443 248T471 211T480 170Q480 131 462 98T412 40T337 1T242 -14ZM271 615Q246 612 230 622T213 656Q212 679 228 696T273 714Q293 715 311 706T332 673Q334 651 315 635T271 615Z" />
<glyph unicode="&#xc0;" glyph-name="Agrave" horiz-adv-x="574" d="M113 231Q69 227 28 232T-46 254T-99 299T-123 370Q-126 409 -111 436T-71 477T-18 493T37 487T81 456T101 402Q104 356 82 336T29 315Q-2 314 -24 328T-49 374Q-50 390 -46 401T-35 420T-19
431T-2 435Q15 436 25 428T38 402Q39 386 29 380T6 378Q-3 381 -4 392T-1 412Q-10 410 -16 403T-22 382Q-22 364 -12 352T26 341Q40 341 48 348T62 364T68 382T70 398Q70 404 68 416T57 439T33 460T-9 471Q-36 472 -53 463T-80 438T-94 406T-97 376Q-96 350 -82
329T-39 295T32 276T131 278Q146 316 160 357T186 438T207 516T220 586Q229 662 205 705T134 751L138 777Q156 774 189 770T263 764T343 761T415 769L416 753Q403 749 392 745T374 735T364 718T365 691Q369 674 378 626T400 513T430 373T467 229Q487 160 507 107T549
21T592 -25T638 -27Q650 -20 659 -8Q667 3 673 20T680 63L695 66Q699 50 697 26T686 -23T659 -65T613 -87Q590 -90 562 -85T505 -56T450 18T404 155Q399 180 394 204T384 252Q355 250 305 247T201 240Q186 177 178 128Q173 98 173 79T179 49T195 30T225 17L224
-4Q207 0 172 1T98 0T20 -9T-41 -28L-49 6Q-28 15 -14 18T12 28T33 48T54 89Q63 109 78 146T114 231H113ZM309 651Q301 619 289 577T264 488T238 389T212 289Q259 296 300 300T373 306Q350 414 333 500T309 651ZM175 984Q185 979 205 965Q222 953 253 930T333 868L306
830Q294 841 274 855T231 883T184 910T139 935Q142 942 146 950Q150 957 157 966T175 984Z" />
<glyph unicode="&#xc1;" glyph-name="Aacute" horiz-adv-x="574" d="M113 231Q69 227 28 232T-46 254T-99 299T-123 370Q-126 409 -111 436T-71 477T-18 493T37 487T81 456T101 402Q104 356 82 336T29 315Q-2 314 -24 328T-49 374Q-50 390 -46 401T-35 420T-19
431T-2 435Q15 436 25 428T38 402Q39 386 29 380T6 378Q-3 381 -4 392T-1 412Q-10 410 -16 403T-22 382Q-22 364 -12 352T26 341Q40 341 48 348T62 364T68 382T70 398Q70 404 68 416T57 439T33 460T-9 471Q-36 472 -53 463T-80 438T-94 406T-97 376Q-96 350 -82
329T-39 295T32 276T131 278Q146 316 160 357T186 438T207 516T220 586Q229 662 205 705T134 751L138 777Q156 774 189 770T263 764T343 761T415 769L416 753Q403 749 392 745T374 735T364 718T365 691Q369 674 378 626T400 513T430 373T467 229Q487 160 507 107T549
21T592 -25T638 -27Q650 -20 659 -8Q667 3 673 20T680 63L695 66Q699 50 697 26T686 -23T659 -65T613 -87Q590 -90 562 -85T505 -56T450 18T404 155Q399 180 394 204T384 252Q355 250 305 247T201 240Q186 177 178 128Q173 98 173 79T179 49T195 30T225 17L224
-4Q207 0 172 1T98 0T20 -9T-41 -28L-49 6Q-28 15 -14 18T12 28T33 48T54 89Q63 109 78 146T114 231H113ZM309 651Q301 619 289 577T264 488T238 389T212 289Q259 296 300 300T373 306Q350 414 333 500T309 651ZM419 974Q430 965 437 956T448 940Q452 932 455 925Q434
914 410 901T363 873T320 845T288 820L261 858Q310 897 341 920T389 955Q409 969 419 974Z" />
<glyph unicode="&#xc2;" glyph-name="Acircumflex" horiz-adv-x="574" d="M113 231Q69 227 28 232T-46 254T-99 299T-123 370Q-126 409 -111 436T-71 477T-18 493T37 487T81 456T101 402Q104 356 82 336T29 315Q-2 314 -24 328T-49 374Q-50 390 -46 401T-35 420T-19
431T-2 435Q15 436 25 428T38 402Q39 386 29 380T6 378Q-3 381 -4 392T-1 412Q-10 410 -16 403T-22 382Q-22 364 -12 352T26 341Q40 341 48 348T62 364T68 382T70 398Q70 404 68 416T57 439T33 460T-9 471Q-36 472 -53 463T-80 438T-94 406T-97 376Q-96 350 -82
329T-39 295T32 276T131 278Q146 316 160 357T186 438T207 516T220 586Q229 662 205 705T134 751L138 777Q156 774 189 770T263 764T343 761T415 769L416 753Q403 749 392 745T374 735T364 718T365 691Q369 674 378 626T400 513T430 373T467 229Q487 160 507 107T549
21T592 -25T638 -27Q650 -20 659 -8Q667 3 673 20T680 63L695 66Q699 50 697 26T686 -23T659 -65T613 -87Q590 -90 562 -85T505 -56T450 18T404 155Q399 180 394 204T384 252Q355 250 305 247T201 240Q186 177 178 128Q173 98 173 79T179 49T195 30T225 17L224
-4Q207 0 172 1T98 0T20 -9T-41 -28L-49 6Q-28 15 -14 18T12 28T33 48T54 89Q63 109 78 146T114 231H113ZM309 651Q301 619 289 577T264 488T238 389T212 289Q259 296 300 300T373 306Q350 414 333 500T309 651ZM285 989Q315 957 349 930T416 885L398 845Q366 856
336 881T283 931L187 839L157 880Q196 910 221 931T260 965Q277 980 285 989Z" />
<glyph unicode="&#xc3;" glyph-name="Atilde" horiz-adv-x="574" d="M113 231Q69 227 28 232T-46 254T-99 299T-123 370Q-126 409 -111 436T-71 477T-18 493T37 487T81 456T101 402Q104 356 82 336T29 315Q-2 314 -24 328T-49 374Q-50 390 -46 401T-35 420T-19
431T-2 435Q15 436 25 428T38 402Q39 386 29 380T6 378Q-3 381 -4 392T-1 412Q-10 410 -16 403T-22 382Q-22 364 -12 352T26 341Q40 341 48 348T62 364T68 382T70 398Q70 404 68 416T57 439T33 460T-9 471Q-36 472 -53 463T-80 438T-94 406T-97 376Q-96 350 -82
329T-39 295T32 276T131 278Q146 316 160 357T186 438T207 516T220 586Q229 662 205 705T134 751L138 777Q156 774 189 770T263 764T343 761T415 769L416 753Q403 749 392 745T374 735T364 718T365 691Q369 674 378 626T400 513T430 373T467 229Q487 160 507 107T549
21T592 -25T638 -27Q650 -20 659 -8Q667 3 673 20T680 63L695 66Q699 50 697 26T686 -23T659 -65T613 -87Q590 -90 562 -85T505 -56T450 18T404 155Q399 180 394 204T384 252Q355 250 305 247T201 240Q186 177 178 128Q173 98 173 79T179 49T195 30T225 17L224
-4Q207 0 172 1T98 0T20 -9T-41 -28L-49 6Q-28 15 -14 18T12 28T33 48T54 89Q63 109 78 146T114 231H113ZM309 651Q301 619 289 577T264 488T238 389T212 289Q259 296 300 300T373 306Q350 414 333 500T309 651ZM293 892Q318 880 337 877T370 877T395 888T414 904L445
866Q416 842 380 839T308 856Q292 865 274 866T239 863T209 849T188 826L151 861Q158 869 172 879T204 897T245 904T293 892Z" />
<glyph unicode="&#xc4;" glyph-name="Adieresis" horiz-adv-x="574" d="M113 231Q69 227 28 232T-46 254T-99 299T-123 370Q-126 409 -111 436T-71 477T-18 493T37 487T81 456T101 402Q104 356 82 336T29 315Q-2 314 -24 328T-49 374Q-50 390 -46 401T-35 420T-19
431T-2 435Q15 436 25 428T38 402Q39 386 29 380T6 378Q-3 381 -4 392T-1 412Q-10 410 -16 403T-22 382Q-22 364 -12 352T26 341Q40 341 48 348T62 364T68 382T70 398Q70 404 68 416T57 439T33 460T-9 471Q-36 472 -53 463T-80 438T-94 406T-97 376Q-96 350 -82
329T-39 295T32 276T131 278Q146 316 160 357T186 438T207 516T220 586Q229 662 205 705T134 751L138 777Q156 774 189 770T263 764T343 761T415 769L416 753Q403 749 392 745T374 735T364 718T365 691Q369 674 378 626T400 513T430 373T467 229Q487 160 507 107T549
21T592 -25T638 -27Q650 -20 659 -8Q667 3 673 20T680 63L695 66Q699 50 697 26T686 -23T659 -65T613 -87Q590 -90 562 -85T505 -56T450 18T404 155Q399 180 394 204T384 252Q355 250 305 247T201 240Q186 177 178 128Q173 98 173 79T179 49T195 30T225 17L224
-4Q207 0 172 1T98 0T20 -9T-41 -28L-49 6Q-28 15 -14 18T12 28T33 48T54 89Q63 109 78 146T114 231H113ZM309 651Q301 619 289 577T264 488T238 389T212 289Q259 296 300 300T373 306Q350 414 333 500T309 651ZM229 833Q209 831 198 841T184 865Q181 879 192 892T223
908Q244 911 255 901T267 877Q269 863 260 850T229 833ZM393 838Q373 832 360 840T345 861Q342 873 353 888T385 908Q407 913 418 905T432 884Q434 870 426 857T393 838Z" />
<glyph unicode="&#xc5;" glyph-name="Aring" horiz-adv-x="574" d="M309 651Q301 619 289 577T264 488T238 389T212 289Q259 296 300 300T373 306Q350 414 333 500T309 651ZM328 927Q343 921 354 909T371 883T379 852T379 823Q375 805 365 788T339 761Q360 762
379 763T415 769L416 753Q403 749 392 745T374 735T364 718T365 691Q369 674 378 626T400 513T430 373T467 229Q487 160 507 107T549 21T592 -25T638 -27Q650 -20 659 -8Q667 3 673 20T680 63L695 66Q699 50 697 26T686 -23T659 -65T613 -87Q590 -90 562 -85T505
-56T450 18T406 155L384 252Q355 250 305 247T201 240Q186 177 178 128Q173 98 173 79T179 49T195 30T225 17L224 -4Q207 0 172 1T98 0T20 -9T-41 -28L-49 6Q-28 15 -14 18T12 28T33 48T54 89Q63 109 78 146T114 231H113Q69 227 28 233T-46 255T-99 300T-123 370Q-126
409 -111 436T-71 477T-18 493T38 487T82 456T102 403Q104 356 82 336T29 315Q-2 314 -24 328T-49 374Q-50 390 -46 401T-35 420T-19 431T-2 435Q15 436 25 428T38 402Q39 386 29 380T6 378Q-3 381 -4 392T-1 412Q-10 410 -16 403T-22 382Q-22 364 -12 352T26 341Q40
341 48 348T62 364T68 382T70 398Q70 404 68 416T57 439T33 460T-9 471Q-36 472 -53 462T-80 437T-94 405T-97 376Q-96 350 -82 329T-39 295T32 276T131 278Q146 316 160 357T186 438T207 516T220 586Q229 662 205 705T134 751L138 777Q156 775 187 771T255 764Q232
776 221 800T220 860Q224 876 235 891T261 916T293 929T328 927ZM339 835Q342 850 337 869T312 891Q300 893 291 890T276 879T265 864T260 849Q256 834 263 816T284 793Q300 787 317 800T339 835Z" />
<glyph unicode="&#xc6;" glyph-name="AE" horiz-adv-x="743" d="M705 -23Q675 -21 637 -20T556 -19T472 -21T391 -28T322 -39T270 -56L265 -25Q278 -14 288 1T305 39T318 97T328 183Q331 234 331 291Q310 288 286 284T238 276T191 267T150 258Q136 211 126 169T111
95Q107 72 110 54Q112 38 121 24T151 7L150 -16Q132 -15 102 -15T39 -19T-25 -28T-78 -43L-87 -15Q-51 8 -10 76T71 246Q90 296 110 358T146 481T174 590T186 662Q188 707 175 724T127 745L131 768Q156 763 202 757T305 747T421 740T537 740T635 752T701 781Q688
730 682 669T684 530H656Q656 560 655 592T641 649T597 687T506 693Q467 688 446 681T414 664T400 642T396 614Q395 604 394 581T392 524T391 449T392 361Q440 368 468 379T512 408T536 448T552 500H578Q576 486 574 463T569 412T564 354T562 297T561 248T565 214L540
208Q534 236 520 254T487 283T444 298T395 301Q397 272 400 243T408 185Q417 122 430 89T462 42T504 28T555 28Q580 29 601 33T638 55T667 113T689 222L713 214Q707 181 703 158T698 110T697 55T705 -23ZM171 332Q198 337 236 342T328 354Q326 401 322 447T311
536T299 615T287 677Q276 649 263 611T234 527T202 431T171 332Z" />
<glyph unicode="&#xc7;" glyph-name="Ccedilla" horiz-adv-x="602" d="M326 -122Q341 -121 354 -121T378 -127T396 -143T406 -174Q408 -194 401 -214T382 -250T352 -275T315 -283Q277 -280 259 -257T234 -205Q253 -222 274 -232T316 -237Q329 -233 340 -219T355
-188T349 -161T312 -152Q286 -154 272 -149T251 -133T245 -104T250 -66Q201 -54 157 -22T81 63T30 188T16 352Q20 454 52 533T133 664T238 742T352 761Q386 757 412 742T457 706T489 659T510 612Q516 606 523 606Q542 605 557 634T584 732L612 729Q603 695 593
651T574 559T560 466T557 383Q542 389 529 391T504 395Q492 396 482 395Q484 457 479 514T458 614T419 685T358 715Q326 718 289 702T219 643T162 529T132 352Q129 296 136 234T164 120T221 33T312 -1Q354 2 390 21Q421 38 451 72T494 170L527 150Q519 124 504
87T462 14T397 -47T304 -72Q297 -91 298 -107T326 -122Z" />
<glyph unicode="&#xc8;" glyph-name="Egrave" horiz-adv-x="618" d="M-31 453Q-100 454 -132 495T-158 597Q-155 627 -137 657T-82 709T9 741T142 742Q159 740 198 738T289 735T404 737T530 752Q530 731 530 698T529 630T531 563T539 511L509 507Q509 559 498
598T456 660T370 691T225 687Q216 633 211 564T205 403Q281 386 321 414T370 519L394 515Q390 494 386 461T381 390T381 313T391 239L371 231Q364 262 356 288T332 331T286 352T205 344Q207 294 210 239T218 120Q223 110 231 101T257 84T301 72T369 67Q426 66 461
83T516 125T542 175T549 219L578 216L565 10Q543 10 506 10T424 8T327 4T225 -3T128 -13T45 -27L39 -7Q59 1 76 12T104 47T122 110T127 218Q126 278 125 348T121 484T117 608T114 701Q84 711 42 711T-37 696T-101 652T-128 575Q-128 548 -118 528T-92 496T-56 478T-13
474Q9 475 26 484T54 506T70 537T72 571Q67 604 41 621T-19 624Q-33 618 -45 604T-55 569Q-54 558 -47 550T-31 538T-11 537T9 550Q0 550 -6 555T-13 570Q-13 576 -9 581T1 589T15 591T29 581Q35 573 34 561T26 539T5 522T-28 517Q-51 520 -63 536T-76 575Q-78
600 -59 624T-2 652Q27 655 45 645T74 620T88 586T92 552Q92 538 86 521T65 488T27 463T-31 453ZM226 943Q236 938 256 924Q273 912 304 889T384 827L357 789Q345 800 325 814T282 842T235 869T190 894Q193 901 197 909Q201 916 208 925T226 943Z" />
<glyph unicode="&#xc9;" glyph-name="Eacute" horiz-adv-x="618" d="M-31 453Q-100 454 -132 495T-158 597Q-155 627 -137 657T-82 709T9 741T142 742Q159 740 198 738T289 735T404 737T530 752Q530 731 530 698T529 630T531 563T539 511L509 507Q509 559 498
598T456 660T370 691T225 687Q216 633 211 564T205 403Q281 386 321 414T370 519L394 515Q390 494 386 461T381 390T381 313T391 239L371 231Q364 262 356 288T332 331T286 352T205 344Q207 294 210 239T218 120Q223 110 231 101T257 84T301 72T369 67Q426 66 461
83T516 125T542 175T549 219L578 216L565 10Q543 10 506 10T424 8T327 4T225 -3T128 -13T45 -27L39 -7Q59 1 76 12T104 47T122 110T127 218Q126 278 125 348T121 484T117 608T114 701Q84 711 42 711T-37 696T-101 652T-128 575Q-128 548 -118 528T-92 496T-56 478T-13
474Q9 475 26 484T54 506T70 537T72 571Q67 604 41 621T-19 624Q-33 618 -45 604T-55 569Q-54 558 -47 550T-31 538T-11 537T9 550Q0 550 -6 555T-13 570Q-13 576 -9 581T1 589T15 591T29 581Q35 573 34 561T26 539T5 522T-28 517Q-51 520 -63 536T-76 575Q-78
600 -59 624T-2 652Q27 655 45 645T74 620T88 586T92 552Q92 538 86 521T65 488T27 463T-31 453ZM419 933Q430 924 437 915T448 899Q452 891 455 884Q434 873 410 860T363 832T320 804T288 779L261 817Q310 856 341 879T389 914Q409 928 419 933Z" />
<glyph unicode="&#xca;" glyph-name="Ecircumflex" horiz-adv-x="618" d="M-31 453Q-100 454 -132 495T-158 597Q-155 627 -137 657T-82 709T9 741T142 742Q159 740 198 738T289 735T404 737T530 752Q530 731 530 698T529 630T531 563T539 511L509 507Q509 559
498 598T456 660T370 691T225 687Q216 633 211 564T205 403Q281 386 321 414T370 519L394 515Q390 494 386 461T381 390T381 313T391 239L371 231Q364 262 356 288T332 331T286 352T205 344Q207 294 210 239T218 120Q223 110 231 101T257 84T301 72T369 67Q426
66 461 83T516 125T542 175T549 219L578 216L565 10Q543 10 506 10T424 8T327 4T225 -3T128 -13T45 -27L39 -7Q59 1 76 12T104 47T122 110T127 218Q126 278 125 348T121 484T117 608T114 701Q84 711 42 711T-37 696T-101 652T-128 575Q-128 548 -118 528T-92 496T-56
478T-13 474Q9 475 26 484T54 506T70 537T72 571Q67 604 41 621T-19 624Q-33 618 -45 604T-55 569Q-54 558 -47 550T-31 538T-11 537T9 550Q0 550 -6 555T-13 570Q-13 576 -9 581T1 589T15 591T29 581Q35 573 34 561T26 539T5 522T-28 517Q-51 520 -63 536T-76
575Q-78 600 -59 624T-2 652Q27 655 45 645T74 620T88 586T92 552Q92 538 86 521T65 488T27 463T-31 453ZM306 948Q336 916 370 889T437 844L419 804Q387 815 357 840T304 890L208 798L178 839Q217 869 242 890T281 924Q298 939 306 948Z" />
<glyph unicode="&#xcb;" glyph-name="Edieresis" horiz-adv-x="618" d="M-31 453Q-100 454 -132 495T-158 597Q-155 627 -137 657T-82 709T9 741T142 742Q159 740 198 738T289 735T404 737T530 752Q530 731 530 698T529 630T531 563T539 511L509 507Q509 559 498
598T456 660T370 691T225 687Q216 633 211 564T205 403Q281 386 321 414T370 519L394 515Q390 494 386 461T381 390T381 313T391 239L371 231Q364 262 356 288T332 331T286 352T205 344Q207 294 210 239T218 120Q223 110 231 101T257 84T301 72T369 67Q426 66 461
83T516 125T542 175T549 219L578 216L565 10Q543 10 506 10T424 8T327 4T225 -3T128 -13T45 -27L39 -7Q59 1 76 12T104 47T122 110T127 218Q126 278 125 348T121 484T117 608T114 701Q84 711 42 711T-37 696T-101 652T-128 575Q-128 548 -118 528T-92 496T-56 478T-13
474Q9 475 26 484T54 506T70 537T72 571Q67 604 41 621T-19 624Q-33 618 -45 604T-55 569Q-54 558 -47 550T-31 538T-11 537T9 550Q0 550 -6 555T-13 570Q-13 576 -9 581T1 589T15 591T29 581Q35 573 34 561T26 539T5 522T-28 517Q-51 520 -63 536T-76 575Q-78
600 -59 624T-2 652Q27 655 45 645T74 620T88 586T92 552Q92 538 86 521T65 488T27 463T-31 453ZM238 802Q218 800 207 810T193 834Q190 848 201 861T232 877Q253 880 264 870T276 846Q278 832 269 819T238 802ZM402 807Q382 801 369 809T354 830Q351 842 362 857T394
877Q416 882 427 874T441 853Q443 839 435 826T402 807Z" />
<glyph unicode="&#xcc;" glyph-name="Igrave" horiz-adv-x="281" d="M69 614Q66 644 58 663T40 693T21 709T5 717L10 739Q50 722 110 723T266 749L270 735Q259 730 248 724T224 704T201 668T182 610T168 524T161 403Q160 319 162 248T174 125T202 40T250 1L236
-17Q221 -15 191 -14T127 -14T62 -20T14 -33L10 -20Q23 -8 36 4T58 38T74 93T80 183Q79 244 79 308T77 430T74 536T69 614ZM11 953Q21 948 41 934Q58 922 89 899T169 837L142 799Q130 810 110 824T67 852T20 879T-25 904Q-22 911 -18 919Q-14 926 -7 935T11 953Z"
/>
<glyph unicode="&#xcd;" glyph-name="Iacute" horiz-adv-x="281" d="M69 614Q66 644 58 663T40 693T21 709T5 717L10 739Q50 722 110 723T266 749L270 735Q259 730 248 724T224 704T201 668T182 610T168 524T161 403Q160 319 162 248T174 125T202 40T250 1L236
-17Q221 -15 191 -14T127 -14T62 -20T14 -33L10 -20Q23 -8 36 4T58 38T74 93T80 183Q79 244 79 308T77 430T74 536T69 614ZM236 943Q247 934 254 925T265 909Q269 901 272 894Q251 883 227 870T180 842T137 814T105 789L78 827Q127 866 158 889T206 924Q226 938
236 943Z" />
<glyph unicode="&#xce;" glyph-name="Icircumflex" horiz-adv-x="281" d="M69 614Q66 644 58 663T40 693T21 709T5 717L10 739Q50 722 110 723T266 749L270 735Q259 730 248 724T224 704T201 668T182 610T168 524T161 403Q160 319 162 248T174 125T202 40T250
1L236 -17Q221 -15 191 -14T127 -14T62 -20T14 -33L10 -20Q23 -8 36 4T58 38T74 93T80 183Q79 244 79 308T77 430T74 536T69 614ZM132 969Q162 937 196 910T263 865L245 825Q213 836 183 861T130 911L34 819L4 860Q43 890 68 911T107 945Q124 960 132 969Z" />
<glyph unicode="&#xcf;" glyph-name="Idieresis" horiz-adv-x="281" d="M69 614Q66 644 58 663T40 693T21 709T5 717L10 739Q50 722 110 723T266 749L270 735Q259 730 248 724T224 704T201 668T182 610T168 524T161 403Q160 319 162 248T174 125T202 40T250 1L236
-17Q221 -15 191 -14T127 -14T62 -20T14 -33L10 -20Q23 -8 36 4T58 38T74 93T80 183Q79 244 79 308T77 430T74 536T69 614ZM55 802Q35 800 24 810T10 834Q7 848 18 861T49 877Q70 880 81 870T93 846Q95 832 86 819T55 802ZM219 807Q199 801 186 809T171 830Q168
842 179 857T211 877Q233 882 244 874T258 853Q260 839 252 826T219 807Z" />
<glyph unicode="&#xd0;" glyph-name="Eth" horiz-adv-x="626" d="M11 422Q-12 421 -33 429T-69 454T-93 493T-102 546Q-102 583 -79 617T-15 678T84 720T214 736Q276 736 340 721T457 666T544 553T580 367Q581 252 545 163T440 17T273 -61T53 -62V-36Q70 -39 85
-39T113 -30T132 -1T141 57Q142 85 144 146T148 285Q131 281 115 277T85 267Q87 281 88 300T83 339Q94 337 111 337T148 340Q149 389 149 438T147 531T142 614T134 678Q106 679 71 672T4 646T-49 600T-71 534Q-71 514 -64 499T-43 473T-15 457T17 452Q46 454 63
474T79 520Q78 533 72 546T57 568T37 582T12 584Q-8 579 -11 565T-13 539Q-11 527 -1 520T22 518Q9 523 8 536T17 554Q31 559 40 551T49 531T40 508T6 495Q-11 493 -22 508T-35 544Q-36 564 -23 583T18 605Q32 606 46 601T73 584T93 556T103 522Q105 504 100 487T83
455T53 432T11 422ZM233 689Q229 661 227 622T223 537T220 443T219 347Q255 351 288 353T346 354Q348 340 348 325T352 298Q320 300 287 300T219 295Q220 262 220 233T222 177Q224 111 231 78T249 28Q306 42 354 77T438 166T490 287T501 437Q494 521 465 571T397
648T313 682T233 689Z" />
<glyph unicode="&#xd1;" glyph-name="Ntilde" horiz-adv-x="604" d="M67 610Q53 680 33 715T-31 743L-36 771Q-17 769 9 769T66 770T128 773T187 781Q199 735 218 677T262 554T312 424T365 294T416 175T461 77Q461 131 460 192T456 315T451 434T444 534Q440 583
434 616T418 670T398 705T371 728V748Q395 743 425 740T488 736T554 735T620 741V718Q604 717 587 710T554 685T530 641T521 573Q521 546 522 500T524 398T525 279T525 158T522 49T516 -35L451 -28Q420 34 383 116T307 284T230 447T159 579Q153 516 152 442T155
292T166 144T182 11Q156 10 124 8T64 3T14 -4T-11 -13L-16 8Q2 18 17 25T45 47T64 92T75 178Q81 292 82 404T67 610ZM312 882Q337 870 356 867T389 867T414 878T433 894L464 856Q435 832 399 829T327 846Q311 855 293 856T258 853T228 839T207 816L170 851Q177
859 191 869T223 887T264 894T312 882Z" />
<glyph unicode="&#xd2;" glyph-name="Ograve" horiz-adv-x="634" d="M290 -63Q248 -63 199 -38T109 38T40 170T15 360Q17 461 48 532T126 649T223 715T317 736Q370 736 418 713T505 646T566 536T593 385Q596 291 570 209T501 66T401 -29T290 -63ZM99 348Q98 318
100 282T109 207T128 133T160 67T205 19T266 -2Q300 -4 332 14T391 64T441 139T478 228T500 321T505 409Q502 447 498 474T487 522Q487 504 484 486T471 449T447 415T407 388Q371 371 339 370T282 379T241 413T220 471Q215 505 225 531T254 576T295 605T340 617Q347
617 359 616T383 608T404 587T414 549Q415 524 404 507T376 479T342 468T312 472Q301 479 299 489T301 509T313 525T332 529Q347 525 350 513T351 489Q371 494 380 510T390 543T379 573T347 587Q309 587 281 563T252 492Q252 477 255 460T267 429T294 407T340 400Q368
402 389 414T425 445T448 487T456 534Q457 577 446 605T418 651T379 676T337 684Q293 685 252 655T178 576T124 468T99 348ZM256 933Q266 928 286 914Q303 902 334 879T414 817L387 779Q375 790 355 804T312 832T265 859T220 884Q223 891 227 899Q231 906 238 915T256
933Z" />
<glyph unicode="&#xd3;" glyph-name="Oacute" horiz-adv-x="634" d="M290 -63Q248 -63 199 -38T109 38T40 170T15 360Q17 461 48 532T126 649T223 715T317 736Q370 736 418 713T505 646T566 536T593 385Q596 291 570 209T501 66T401 -29T290 -63ZM99 348Q98 318
100 282T109 207T128 133T160 67T205 19T266 -2Q300 -4 332 14T391 64T441 139T478 228T500 321T505 409Q502 447 498 474T487 522Q487 504 484 486T471 449T447 415T407 388Q371 371 339 370T282 379T241 413T220 471Q215 505 225 531T254 576T295 605T340 617Q347
617 359 616T383 608T404 587T414 549Q415 524 404 507T376 479T342 468T312 472Q301 479 299 489T301 509T313 525T332 529Q347 525 350 513T351 489Q371 494 380 510T390 543T379 573T347 587Q309 587 281 563T252 492Q252 477 255 460T267 429T294 407T340 400Q368
402 389 414T425 445T448 487T456 534Q457 577 446 605T418 651T379 676T337 684Q293 685 252 655T178 576T124 468T99 348ZM409 933Q420 924 427 915T438 899Q442 891 445 884Q424 873 400 860T353 832T310 804T278 779L251 817Q300 856 331 879T379 914Q399 928
409 933Z" />
<glyph unicode="&#xd4;" glyph-name="Ocircumflex" horiz-adv-x="634" d="M290 -63Q248 -63 199 -38T109 38T40 170T15 360Q17 461 48 532T126 649T223 715T317 736Q370 736 418 713T505 646T566 536T593 385Q596 291 570 209T501 66T401 -29T290 -63ZM99 348Q98
318 100 282T109 207T128 133T160 67T205 19T266 -2Q300 -4 332 14T391 64T441 139T478 228T500 321T505 409Q502 447 498 474T487 522Q487 504 484 486T471 449T447 415T407 388Q371 371 339 370T282 379T241 413T220 471Q215 505 225 531T254 576T295 605T340
617Q347 617 359 616T383 608T404 587T414 549Q415 524 404 507T376 479T342 468T312 472Q301 479 299 489T301 509T313 525T332 529Q347 525 350 513T351 489Q371 494 380 510T390 543T379 573T347 587Q309 587 281 563T252 492Q252 477 255 460T267 429T294 407T340
400Q368 402 389 414T425 445T448 487T456 534Q457 577 446 605T418 651T379 676T337 684Q293 685 252 655T178 576T124 468T99 348ZM325 938Q355 906 389 879T456 834L438 794Q406 805 376 830T323 880L227 788L197 829Q236 859 261 880T300 914Q317 929 325 938Z"
/>
<glyph unicode="&#xd5;" glyph-name="Otilde" horiz-adv-x="634" d="M290 -63Q248 -63 199 -38T109 38T40 170T15 360Q17 461 48 532T126 649T223 715T317 736Q370 736 418 713T505 646T566 536T593 385Q596 291 570 209T501 66T401 -29T290 -63ZM99 348Q98 318
100 282T109 207T128 133T160 67T205 19T266 -2Q300 -4 332 14T391 64T441 139T478 228T500 321T505 409Q502 447 498 474T487 522Q487 504 484 486T471 449T447 415T407 388Q371 371 339 370T282 379T241 413T220 471Q215 505 225 531T254 576T295 605T340 617Q347
617 359 616T383 608T404 587T414 549Q415 524 404 507T376 479T342 468T312 472Q301 479 299 489T301 509T313 525T332 529Q347 525 350 513T351 489Q371 494 380 510T390 543T379 573T347 587Q309 587 281 563T252 492Q252 477 255 460T267 429T294 407T340 400Q368
402 389 414T425 445T448 487T456 534Q457 577 446 605T418 651T379 676T337 684Q293 685 252 655T178 576T124 468T99 348ZM332 862Q357 850 376 847T409 847T434 858T453 874L484 836Q455 812 419 809T347 826Q331 835 313 836T278 833T248 819T227 796L190 831Q197
839 211 849T243 867T284 874T332 862Z" />
<glyph unicode="&#xd6;" glyph-name="Odieresis" horiz-adv-x="634" d="M290 -63Q248 -63 199 -38T109 38T40 170T15 360Q17 461 48 532T126 649T223 715T317 736Q370 736 418 713T505 646T566 536T593 385Q596 291 570 209T501 66T401 -29T290 -63ZM99 348Q98
318 100 282T109 207T128 133T160 67T205 19T266 -2Q300 -4 332 14T391 64T441 139T478 228T500 321T505 409Q502 447 498 474T487 522Q487 504 484 486T471 449T447 415T407 388Q371 371 339 370T282 379T241 413T220 471Q215 505 225 531T254 576T295 605T340
617Q347 617 359 616T383 608T404 587T414 549Q415 524 404 507T376 479T342 468T312 472Q301 479 299 489T301 509T313 525T332 529Q347 525 350 513T351 489Q371 494 380 510T390 543T379 573T347 587Q309 587 281 563T252 492Q252 477 255 460T267 429T294 407T340
400Q368 402 389 414T425 445T448 487T456 534Q457 577 446 605T418 651T379 676T337 684Q293 685 252 655T178 576T124 468T99 348ZM248 792Q228 790 217 800T203 824Q200 838 211 851T242 867Q263 870 274 860T286 836Q288 822 279 809T248 792ZM412 797Q392
791 379 799T364 820Q361 832 372 847T404 867Q426 872 437 864T451 843Q453 829 445 816T412 797Z" />
<glyph unicode="&#xd7;" glyph-name="multiply" horiz-adv-x="402" d="M219 336Q233 316 253 293T293 247T333 206T365 177Q358 174 347 168T326 153T306 136T294 120Q289 135 279 155T255 198T225 247T194 297Q177 273 160 247T127 196T98 152T79 120Q74 121
66 125T48 136T31 150T20 166Q32 176 49 192T87 231T128 279T170 334Q155 357 134 389Q116 416 90 455T28 545Q42 553 60 563T92 588Q95 575 107 549T134 491T166 427T197 372Q217 403 236 433T272 492T299 543T315 581Q325 571 342 558T382 534Q365 516 344 492T301
442T258 388T219 336Z" />
<glyph unicode="&#xd8;" glyph-name="Oslash" horiz-adv-x="634" d="M593 385Q596 291 570 209T501 66T402 -29T291 -63Q268 -63 244 -56T194 -35Q184 -62 176 -86T162 -131Q146 -131 124 -131T77 -140Q94 -102 110 -67T142 3Q115 28 92 62T51 140T24 239T15 360Q16
427 31 481T71 577T126 649T191 698T257 727T318 736Q383 736 441 701Q460 749 470 775T483 801Q505 793 533 793T577 798Q561 770 541 735T498 654Q539 609 564 542T593 385ZM505 409Q502 447 498 474T487 522Q487 504 484 486T471 449T447 415T407 388Q371 371
339 370T282 379T241 413T220 471Q215 505 225 531T254 576T295 605T340 617Q347 617 359 616T383 608T404 587T414 549Q415 524 404 507T376 479T342 468T312 472Q301 479 299 489T301 509T313 525T332 529Q347 525 350 513T351 489Q371 494 380 510T390 543T379
573T347 587Q309 587 281 563T252 492Q252 477 255 460T267 429T294 407T340 400Q368 402 389 414T425 445T448 487T456 534Q457 577 446 605T418 651T379 676T337 684Q293 685 252 655T178 576T124 468T99 348Q98 318 100 282T109 207T128 133T160 67T205 19T266
-2Q300 -5 332 13T391 64T441 139T478 228T500 322T505 409Z" />
<glyph unicode="&#xd9;" glyph-name="Ugrave" horiz-adv-x="637" d="M50 330Q62 418 66 488T64 606T37 682T-20 711L-16 732Q8 729 35 725T92 718T156 715T224 722L222 699Q213 696 202 681T179 634T159 553T143 434Q140 388 138 336T137 235T150 141T180 63T233
13T316 1Q357 5 382 37T420 120T436 238T438 378Q436 458 434 513T418 607Q406 638 387 650T340 671L343 695Q400 689 462 689T579 700L582 683Q568 675 556 664T534 634T518 591T511 532Q511 498 511 454T514 358T521 249T531 133Q538 74 552 37T584 -13T620 -16T653
35L668 25Q664 5 651 -14T618 -44T576 -58T531 -46T490 3T459 96Q450 70 437 43T402 -6T346 -40T261 -50Q138 -43 82 54T50 330ZM237 912Q247 907 267 893Q284 881 315 858T395 796L368 758Q356 769 336 783T293 811T246 838T201 863Q204 870 208 878Q212 885 219
894T237 912Z" />
<glyph unicode="&#xda;" glyph-name="Uacute" horiz-adv-x="637" d="M50 330Q62 418 66 488T64 606T37 682T-20 711L-16 732Q8 729 35 725T92 718T156 715T224 722L222 699Q213 696 202 681T179 634T159 553T143 434Q140 388 138 336T137 235T150 141T180 63T233
13T316 1Q357 5 382 37T420 120T436 238T438 378Q436 458 434 513T418 607Q406 638 387 650T340 671L343 695Q400 689 462 689T579 700L582 683Q568 675 556 664T534 634T518 591T511 532Q511 498 511 454T514 358T521 249T531 133Q538 74 552 37T584 -13T620 -16T653
35L668 25Q664 5 651 -14T618 -44T576 -58T531 -46T490 3T459 96Q450 70 437 43T402 -6T346 -40T261 -50Q138 -43 82 54T50 330ZM419 912Q430 903 437 894T448 878Q452 870 455 863Q434 852 410 839T363 811T320 783T288 758L261 796Q310 835 341 858T389 893Q409
907 419 912Z" />
<glyph unicode="&#xdb;" glyph-name="Ucircumflex" horiz-adv-x="637" d="M50 330Q62 418 66 488T64 606T37 682T-20 711L-16 732Q8 729 35 725T92 718T156 715T224 722L222 699Q213 696 202 681T179 634T159 553T143 434Q140 388 138 336T137 235T150 141T180
63T233 13T316 1Q357 5 382 37T420 120T436 238T438 378Q436 458 434 513T418 607Q406 638 387 650T340 671L343 695Q400 689 462 689T579 700L582 683Q568 675 556 664T534 634T518 591T511 532Q511 498 511 454T514 358T521 249T531 133Q538 74 552 37T584 -13T620
-16T653 35L668 25Q664 5 651 -14T618 -44T576 -58T531 -46T490 3T459 96Q450 70 437 43T402 -6T346 -40T261 -50Q138 -43 82 54T50 330ZM296 928Q326 896 360 869T427 824L409 784Q377 795 347 820T294 870L198 778L168 819Q207 849 232 870T271 904Q288 919 296
928Z" />
<glyph unicode="&#xdc;" glyph-name="Udieresis" horiz-adv-x="637" d="M50 330Q62 418 66 488T64 606T37 682T-20 711L-16 732Q8 729 35 725T92 718T156 715T224 722L222 699Q213 696 202 681T179 634T159 553T143 434Q140 388 138 336T137 235T150 141T180 63T233
13T316 1Q357 5 382 37T420 120T436 238T438 378Q436 458 434 513T418 607Q406 638 387 650T340 671L343 695Q400 689 462 689T579 700L582 683Q568 675 556 664T534 634T518 591T511 532Q511 498 511 454T514 358T521 249T531 133Q538 74 552 37T584 -13T620 -16T653
35L668 25Q664 5 651 -14T618 -44T576 -58T531 -46T490 3T459 96Q450 70 437 43T402 -6T346 -40T261 -50Q138 -43 82 54T50 330ZM485 772Q465 770 454 780T440 804Q437 818 448 831T479 847Q500 850 511 840T523 816Q525 802 516 789T485 772ZM649 777Q629 771
616 779T601 800Q598 812 609 827T641 847Q663 852 674 844T688 823Q690 809 682 796T649 777Z" />
<glyph unicode="&#xdd;" glyph-name="Yacute" horiz-adv-x="599" d="M49 471Q52 533 48 568T34 623T12 651T-15 669L-12 693Q6 690 31 687T87 684T156 690T236 708L234 685Q217 680 201 669T171 635T146 578T127 488Q120 435 117 383T124 290T162 225T242 205Q295
208 332 244T392 331T424 442T429 550Q426 596 421 630T406 688T382 727T346 750L356 771Q377 764 406 758T466 751T525 753T571 772L573 750Q557 739 541 720T513 669T494 592T488 484Q489 440 495 400T507 315T518 220T523 103Q523 38 514 -26T481 -142T414 -226T301
-258Q252 -258 219 -244T164 -206T131 -154T113 -98Q108 -75 105 -52T95 -7T80 37T55 76Q101 66 141 63T210 71Q186 33 180 -13T183 -103Q188 -125 199 -149T229 -191T272 -218T330 -217Q360 -208 385 -180T427 -110T452 -12T455 106Q448 176 442 225T433 309Q422
284 405 255T362 202T304 161T229 144Q220 144 206 145T174 150T138 162T100 186Q84 199 75 215T60 248T52 284T48 319Q46 351 46 389T49 471ZM359 943Q370 934 377 925T388 909Q392 901 395 894Q374 883 350 870T303 842T260 814T228 789L201 827Q250 866 281
889T329 924Q349 938 359 943Z" />
<glyph unicode="&#xde;" glyph-name="Thorn" horiz-adv-x="557" d="M101 671Q87 706 62 721T5 740L9 768Q21 766 47 762T107 755T176 750T245 752Q241 738 234 695T219 593Q244 598 278 599T349 596T422 578T487 539T534 475T552 382Q552 334 535 297T490 233T426
189T350 161T271 148T199 147Q201 111 204 83T214 40Q221 28 233 17Q244 8 262 1T310 -9L304 -37Q274 -34 238 -34T165 -37T96 -45T41 -58Q40 -50 40 -45T39 -35Q38 -31 37 -27Q48 -21 57 -15T74 2T89 30T104 76Q112 104 117 146T126 238T129 343T127 455Q125 517
122 572T101 671ZM206 451Q203 406 201 353T198 246Q198 225 202 217T219 208Q226 208 245 209T291 215T345 232T396 263T434 313T447 388Q446 428 433 456T399 502T354 530T308 544T267 550T241 551Q220 552 216 533T208 486Q207 477 207 468T206 451Z" />
<glyph unicode="&#xdf;" glyph-name="germandbls" horiz-adv-x="627" d="M387 398Q399 368 421 345T470 300T521 260T567 218Q588 195 599 168T614 113T616 62T606 22Q598 2 583 -20T547 -61T497 -89T435 -98Q411 -97 391 -89T354 -68T326 -41T310 -12Q301 16
303 41T319 85Q339 110 358 114T394 118Q411 118 427 112T455 96T473 70T476 39Q473 25 465 15T447 -3T425 -13T404 -14Q390 -11 376 -2T362 24Q362 39 369 51T389 66Q408 70 418 67T432 58T436 44T433 33Q429 25 422 21Q416 18 407 20T383 37Q378 26 381 20T391
8Q398 3 409 0Q429 -4 442 9T456 42T443 78T392 98Q371 99 357 89T337 64T333 29T345 -5Q364 -35 398 -45T460 -47Q477 -42 495 -26T524 14T535 70T515 138Q504 157 473 185T408 247T342 316T299 387Q294 401 294 417T296 451Q300 485 315 511T348 558T379 598T395
639Q396 658 390 676T371 709T342 733T306 745Q287 747 265 737T222 702T187 641T167 552Q163 508 160 464T156 372Q155 316 160 256T179 124Q187 82 195 57T212 17T234 -7T263 -26L252 -43Q222 -29 188 -21T120 -9T52 -6T-9 -12L-10 17Q5 18 18 19T44 29T67 61T86
128Q97 185 100 241T102 356Q68 354 40 346Q45 357 45 370T43 392Q53 391 68 390T101 388Q100 412 99 436T96 485Q94 516 94 554T98 629T115 701T148 760T204 796T287 801Q332 794 363 778T414 741T443 695T452 646Q452 616 442 591T418 543T392 500T378 461Q376
446 378 431T387 398Z" />
<glyph unicode="&#xe0;" glyph-name="agrave" horiz-adv-x="492" d="M507 37Q504 24 497 9T477 -19T446 -38T402 -39Q377 -33 363 -11T342 45Q333 31 320 16T288 -12T246 -32T194 -38Q156 -35 127 -18T77 27T48 90T42 163Q46 201 62 228T104 271T161 294T227 297Q272
292 302 271T348 223Q353 269 351 321T335 417T292 489T213 517Q178 517 156 505T120 475T101 441T96 413Q96 403 102 391T119 368T145 351T179 348Q192 350 202 357T218 373T226 392T229 411Q229 421 223 428T209 440T191 443T173 433Q182 434 191 430T200 411Q200
400 191 395T171 390T151 399T142 426Q142 443 156 455T190 467Q213 467 232 449T252 399Q252 388 247 376T230 352T201 334T159 326Q135 326 116 335T84 359T65 391T58 425Q58 441 68 465T99 512T153 550T231 566Q352 566 398 482T413 230Q401 163 400 121T405
54T422 19T447 7Q458 5 468 9Q476 11 483 18T494 42L507 37ZM338 88Q337 124 341 164Q333 195 309 221T253 253Q230 257 206 253T162 235T132 197T124 138Q129 84 154 56T230 31Q268 33 294 50T338 88ZM452 1016Q462 1011 482 997Q499 985 530 962T610 900L583
862Q571 873 551 887T508 915T461 942T416 967Q419 974 423 982Q427 989 434 998T452 1016Z" />
<glyph unicode="&#xe1;" glyph-name="aacute" horiz-adv-x="492" d="M507 37Q504 24 497 9T477 -19T446 -38T402 -39Q377 -33 363 -11T342 45Q333 31 320 16T288 -12T246 -32T194 -38Q156 -35 127 -18T77 27T48 90T42 163Q46 201 62 228T104 271T161 294T227 297Q272
292 302 271T348 223Q353 269 351 321T335 417T292 489T213 517Q178 517 156 505T120 475T101 441T96 413Q96 403 102 391T119 368T145 351T179 348Q192 350 202 357T218 373T226 392T229 411Q229 421 223 428T209 440T191 443T173 433Q182 434 191 430T200 411Q200
400 191 395T171 390T151 399T142 426Q142 443 156 455T190 467Q213 467 232 449T252 399Q252 388 247 376T230 352T201 334T159 326Q135 326 116 335T84 359T65 391T58 425Q58 441 68 465T99 512T153 550T231 566Q352 566 398 482T413 230Q401 163 400 121T405
54T422 19T447 7Q458 5 468 9Q476 11 483 18T494 42L507 37ZM338 88Q337 124 341 164Q333 195 309 221T253 253Q230 257 206 253T162 235T132 197T124 138Q129 84 154 56T230 31Q268 33 294 50T338 88ZM615 769Q626 760 633 751T644 735Q648 727 651 720Q630 709
606 696T559 668T516 640T484 615L457 653Q506 692 537 715T585 750Q605 764 615 769Z" />
<glyph unicode="&#xe2;" glyph-name="acircumflex" horiz-adv-x="492" d="M507 37Q504 24 497 9T477 -19T446 -38T402 -39Q377 -33 363 -11T342 45Q333 31 320 16T288 -12T246 -32T194 -38Q156 -35 127 -18T77 27T48 90T42 163Q46 201 62 228T104 271T161 294T227
297Q272 292 302 271T348 223Q353 269 351 321T335 417T292 489T213 517Q178 517 156 505T120 475T101 441T96 413Q96 403 102 391T119 368T145 351T179 348Q192 350 202 357T218 373T226 392T229 411Q229 421 223 428T209 440T191 443T173 433Q182 434 191 430T200
411Q200 400 191 395T171 390T151 399T142 426Q142 443 156 455T190 467Q213 467 232 449T252 399Q252 388 247 376T230 352T201 334T159 326Q135 326 116 335T84 359T65 391T58 425Q58 441 68 465T99 512T153 550T231 566Q352 566 398 482T413 230Q401 163 400
121T405 54T422 19T447 7Q458 5 468 9Q476 11 483 18T494 42L507 37ZM338 88Q337 124 341 164Q333 195 309 221T253 253Q230 257 206 253T162 235T132 197T124 138Q129 84 154 56T230 31Q268 33 294 50T338 88ZM500 774Q530 742 564 715T631 670L613 630Q581 641
551 666T498 716L402 624L372 665Q411 695 436 716T475 750Q492 765 500 774Z" />
<glyph unicode="&#xe3;" glyph-name="atilde" horiz-adv-x="492" d="M507 37Q504 24 497 9T477 -19T446 -38T402 -39Q377 -33 363 -11T342 45Q333 31 320 16T288 -12T246 -32T194 -38Q156 -35 127 -18T77 27T48 90T42 163Q46 201 62 228T104 271T161 294T227 297Q272
292 302 271T348 223Q353 269 351 321T335 417T292 489T213 517Q178 517 156 505T120 475T101 441T96 413Q96 403 102 391T119 368T145 351T179 348Q192 350 202 357T218 373T226 392T229 411Q229 421 223 428T209 440T191 443T173 433Q182 434 191 430T200 411Q200
400 191 395T171 390T151 399T142 426Q142 443 156 455T190 467Q213 467 232 449T252 399Q252 388 247 376T230 352T201 334T159 326Q135 326 116 335T84 359T65 391T58 425Q58 441 68 465T99 512T153 550T231 566Q352 566 398 482T413 230Q401 163 400 121T405
54T422 19T447 7Q458 5 468 9Q476 11 483 18T494 42L507 37ZM338 88Q337 124 341 164Q333 195 309 221T253 253Q230 257 206 253T162 235T132 197T124 138Q129 84 154 56T230 31Q268 33 294 50T338 88ZM518 945Q543 933 562 930T595 930T620 941T639 957L670 919Q641
895 605 892T533 909Q517 918 499 919T464 916T434 902T413 879L376 914Q383 922 397 932T429 950T470 957T518 945Z" />
<glyph unicode="&#xe4;" glyph-name="adieresis" horiz-adv-x="492" d="M507 37Q504 24 497 9T477 -19T446 -38T402 -39Q377 -33 363 -11T342 45Q333 31 320 16T288 -12T246 -32T194 -38Q156 -35 127 -18T77 27T48 90T42 163Q46 201 62 228T104 271T161 294T227
297Q272 292 302 271T348 223Q353 269 351 321T335 417T292 489T213 517Q178 517 156 505T120 475T101 441T96 413Q96 403 102 391T119 368T145 351T179 348Q192 350 202 357T218 373T226 392T229 411Q229 421 223 428T209 440T191 443T173 433Q182 434 191 430T200
411Q200 400 191 395T171 390T151 399T142 426Q142 443 156 455T190 467Q213 467 232 449T252 399Q252 388 247 376T230 352T201 334T159 326Q135 326 116 335T84 359T65 391T58 425Q58 441 68 465T99 512T153 550T231 566Q352 566 398 482T413 230Q401 163 400
121T405 54T422 19T447 7Q458 5 468 9Q476 11 483 18T494 42L507 37ZM338 88Q337 124 341 164Q333 195 309 221T253 253Q230 257 206 253T162 235T132 197T124 138Q129 84 154 56T230 31Q268 33 294 50T338 88ZM434 875Q414 873 403 883T389 907Q386 921 397 934T428
950Q449 953 460 943T472 919Q474 905 465 892T434 875ZM598 880Q578 874 565 882T550 903Q547 915 558 930T590 950Q612 955 623 947T637 926Q639 912 631 899T598 880Z" />
<glyph unicode="&#xe5;" glyph-name="aring" horiz-adv-x="492" d="M338 88Q337 124 341 164Q337 179 329 194T309 221T283 242T253 254Q230 258 206 254T162 235T132 197T124 138Q129 84 154 56T230 31Q268 33 294 50T338 88ZM296 731Q311 726 322 714T339 688T347
657T347 628Q343 605 330 586T294 559Q380 538 409 456T413 230Q401 163 400 121T405 54T422 19T447 7Q458 5 468 9Q476 11 483 18T494 42L507 37Q504 24 497 9T477 -19T446 -38T402 -39Q377 -33 363 -11T342 45Q333 31 320 16T288 -12T246 -32T194 -38Q156 -35
127 -18T77 27T48 90T42 164Q46 201 62 228T104 271T161 294T227 297Q272 292 302 271T348 223Q353 269 351 321T335 417T292 489T213 517Q178 517 156 505T120 475T101 441T96 413Q96 403 102 391T119 368T145 351T179 348Q192 350 202 357T218 373T226 392T229
411Q229 421 223 429T209 440T191 443T173 433Q182 434 191 430T200 411Q200 400 191 395T171 390T151 399T142 426Q142 443 156 455T190 467Q213 467 232 449T252 399Q252 388 247 376T230 352T201 334T159 326Q135 326 116 335T84 359T65 391T58 425Q58 441 68
464T98 510T150 549T226 566Q203 579 191 603T188 665Q192 681 203 696T229 721T261 734T296 731ZM307 639Q310 654 305 673T281 695Q257 699 244 684T228 653Q226 646 227 637T231 620T240 605T252 597Q268 592 285 605T307 639Z" />
<glyph unicode="&#xe6;" glyph-name="ae" horiz-adv-x="761" d="M792 128Q780 123 759 98T707 45T639 -4T553 -24Q484 -20 436 10T365 91Q355 71 339 52T298 17T243 -8T172 -18Q131 -18 101 -6T51 26T21 73T10 132Q9 160 25 195T74 259T153 303T263 307Q287 303
304 299T333 289Q334 317 334 354T326 424T291 480T217 505Q163 507 132 496T86 469T67 434T67 406Q70 394 76 384T95 369T124 363T164 371Q182 377 191 385T205 400T210 415T207 428Q201 439 188 441T158 441Q164 432 160 421T139 404Q131 402 122 404T109 415Q103
425 111 437T141 460Q153 465 168 467T196 466T221 452T237 423Q239 413 237 399T224 372T191 350T132 339Q114 339 97 343T65 357T42 381T32 414Q31 435 39 457T68 497T123 526T208 535Q235 533 263 528T318 512T364 481T397 433Q408 458 426 482T469 525T524
552T591 555Q633 548 656 520T692 456T709 379T715 307Q714 283 715 262Q715 244 716 226T721 199Q694 199 655 202T572 211T489 223T418 234Q422 197 434 161T464 95T507 46T562 26Q585 24 603 36T634 65T650 100T649 129Q675 124 701 124T747 124Q771 125 792
128ZM217 32Q245 33 264 46T296 78T316 121T327 168T331 213T332 247Q312 259 288 264T241 271Q200 272 175 261T136 230T118 189T114 147Q115 127 120 106T136 68T167 41T217 32ZM421 339Q415 307 416 273Q446 266 491 259T606 250Q618 277 625 320T631 404T615
476T571 512Q547 515 524 502T480 465T444 408T421 339Z" />
<glyph unicode="&#xe7;" glyph-name="ccedilla" horiz-adv-x="517" d="M299 -54Q314 -53 328 -53T352 -59T370 -75T379 -106Q381 -127 374 -147T355 -182T325 -207T289 -215Q251 -212 232 -189T208 -137Q226 -155 247 -164T290 -169Q303 -166 314 -151T329 -121T323
-93T286 -84Q260 -86 246 -81T225 -66T218 -39T222 -3Q169 7 132 39T72 116T41 214T39 319Q45 373 64 416T111 489T174 535T250 553Q281 554 315 542T382 512Q414 495 431 504T459 565L481 566L476 327L452 319Q449 342 439 374T410 436T362 487T294 508Q252 508
222 489T174 436T148 360T142 270Q146 165 184 104T286 42Q322 42 350 56T397 89T428 130T440 166H464Q459 138 445 109T407 55T351 14T278 -6Q274 -15 272 -24T271 -40T279 -51T299 -54Z" />
<glyph unicode="&#xe8;" glyph-name="egrave" horiz-adv-x="474" d="M32 271Q35 330 57 381T116 468T197 524T292 537Q341 531 367 507T405 454T417 395T417 350Q416 335 414 317T409 282T406 249T409 223Q384 231 351 240T280 255T200 259T117 244Q116 206 122
169T144 97Q157 68 174 46T210 13T250 0T292 12Q309 24 318 41Q326 55 325 75T303 121L428 127Q421 107 408 77T371 19T314 -28T232 -45Q184 -42 146 -15T81 57T42 156T32 271ZM280 511Q252 514 226 497T178 449T141 374T120 284Q177 291 226 291T317 285Q328 308
337 344T345 416T330 479T280 511ZM452 995Q462 990 482 976Q499 964 530 941T610 879L583 841Q571 852 551 866T508 894T461 921T416 946Q419 953 423 961Q427 968 434 977T452 995Z" />
<glyph unicode="&#xe9;" glyph-name="eacute" horiz-adv-x="474" d="M32 271Q35 330 57 381T116 468T197 524T292 537Q341 531 367 507T405 454T417 395T417 350Q416 335 414 317T409 282T406 249T409 223Q384 231 351 240T280 255T200 259T117 244Q116 206 122
169T144 97Q157 68 174 46T210 13T250 0T292 12Q309 24 318 41Q326 55 325 75T303 121L428 127Q421 107 408 77T371 19T314 -28T232 -45Q184 -42 146 -15T81 57T42 156T32 271ZM280 511Q252 514 226 497T178 449T141 374T120 284Q177 291 226 291T317 285Q328 308
337 344T345 416T330 479T280 511ZM615 995Q626 986 633 977T644 961Q648 953 651 946Q630 935 606 922T559 894T516 866T484 841L457 879Q506 918 537 941T585 976Q605 990 615 995Z" />
<glyph unicode="&#xea;" glyph-name="ecircumflex" horiz-adv-x="474" d="M32 271Q35 330 57 381T116 468T197 524T292 537Q341 531 367 507T405 454T417 395T417 350Q416 335 414 317T409 282T406 249T409 223Q384 231 351 240T280 255T200 259T117 244Q116 206
122 169T144 97Q157 68 174 46T210 13T250 0T292 12Q309 24 318 41Q326 55 325 75T303 121L428 127Q421 107 408 77T371 19T314 -28T232 -45Q184 -42 146 -15T81 57T42 156T32 271ZM280 511Q252 514 226 497T178 449T141 374T120 284Q177 291 226 291T317 285Q328
308 337 344T345 416T330 479T280 511ZM521 1011Q551 979 585 952T652 907L634 867Q602 878 572 903T519 953L423 861L393 902Q432 932 457 953T496 987Q513 1002 521 1011Z" />
<glyph unicode="&#xeb;" glyph-name="edieresis" horiz-adv-x="474" d="M32 271Q35 330 57 381T116 468T197 524T292 537Q341 531 367 507T405 454T417 395T417 350Q416 335 414 317T409 282T406 249T409 223Q384 231 351 240T280 255T200 259T117 244Q116 206
122 169T144 97Q157 68 174 46T210 13T250 0T292 12Q309 24 318 41Q326 55 325 75T303 121L428 127Q421 107 408 77T371 19T314 -28T232 -45Q184 -42 146 -15T81 57T42 156T32 271ZM280 511Q252 514 226 497T178 449T141 374T120 284Q177 291 226 291T317 285Q328
308 337 344T345 416T330 479T280 511ZM454 844Q434 842 423 852T409 876Q406 890 417 903T448 919Q469 922 480 912T492 888Q494 874 485 861T454 844ZM618 849Q598 843 585 851T570 872Q567 884 578 899T610 919Q632 924 643 916T657 895Q659 881 651 868T618
849Z" />
<glyph unicode="&#xec;" glyph-name="igrave" horiz-adv-x="253" d="M15 5Q38 13 53 26T76 52Q86 67 89 83Q111 185 111 277T97 436Q93 457 82 475Q73 490 57 503T16 521L15 537Q35 535 52 535T83 534H111Q123 533 135 533Q146 532 157 532T180 530Q177 494 175
457T172 389Q170 354 170 321Q168 284 167 241T168 158T175 90T191 51Q197 47 207 43Q215 39 228 35T262 27L263 10Q243 11 225 11T192 10Q175 9 160 9Q139 8 115 5Q95 3 70 0T22 -7L15 5V5ZM11 760Q21 755 41 741Q58 729 89 706T169 644L142 606Q130 617 110 631T67
659T20 686T-25 711Q-22 718 -18 726Q-14 733 -7 742T11 760Z" />
<glyph unicode="&#xed;" glyph-name="iacute" horiz-adv-x="253" d="M15 5Q38 13 53 26T76 52Q86 67 89 83Q111 185 111 277T97 436Q93 457 82 475Q73 490 57 503T16 521L15 537Q35 535 52 535T83 534H111Q123 533 135 533Q146 532 157 532T180 530Q177 494 175
457T172 389Q170 354 170 321Q168 284 167 241T168 158T175 90T191 51Q197 47 207 43Q215 39 228 35T262 27L263 10Q243 11 225 11T192 10Q175 9 160 9Q139 8 115 5Q95 3 70 0T22 -7L15 5V5ZM246 769Q257 760 264 751T275 735Q279 727 282 720Q261 709 237 696T190
668T147 640T115 615L88 653Q137 692 168 715T216 750Q236 764 246 769Z" />
<glyph unicode="&#xee;" glyph-name="icircumflex" horiz-adv-x="253" d="M15 5Q38 13 53 26T76 52Q86 67 89 83Q111 185 111 277T97 436Q93 457 82 475Q73 490 57 503T16 521L15 537Q35 535 52 535T83 534H111Q123 533 135 533Q146 532 157 532T180 530Q177 494
175 457T172 389Q170 354 170 321Q168 284 167 241T168 158T175 90T191 51Q197 47 207 43Q215 39 228 35T262 27L263 10Q243 11 225 11T192 10Q175 9 160 9Q139 8 115 5Q95 3 70 0T22 -7L15 5V5ZM121 774Q151 742 185 715T252 670L234 630Q202 641 172 666T119
716L23 624L-7 665Q32 695 57 716T96 750Q113 765 121 774Z" />
<glyph unicode="&#xef;" glyph-name="idieresis" horiz-adv-x="253" d="M15 5Q38 13 53 26T76 52Q86 67 89 83Q111 185 111 277T97 436Q93 457 82 475Q73 490 57 503T16 521L15 537Q35 535 52 535T83 534H111Q123 533 135 533Q146 532 157 532T180 530Q177 494
175 457T172 389Q170 354 170 321Q168 284 167 241T168 158T175 90T191 51Q197 47 207 43Q215 39 228 35T262 27L263 10Q243 11 225 11T192 10Q175 9 160 9Q139 8 115 5Q95 3 70 0T22 -7L15 5V5ZM55 619Q35 617 24 627T10 651Q7 665 18 678T49 694Q70 697 81 687T93
663Q95 649 86 636T55 619ZM219 624Q199 618 186 626T171 647Q168 659 179 674T211 694Q233 699 244 691T258 670Q260 656 252 643T219 624Z" />
<glyph unicode="&#xf0;" glyph-name="eth" horiz-adv-x="502" d="M385 323Q375 385 355 424T312 484T264 513T222 519Q193 517 173 500T140 455T120 392T112 319Q110 271 119 223T150 137Q171 100 203 83T273 70Q294 72 318 88T360 135T386 213T385 323ZM167 663Q193
670 222 678T281 695Q251 752 220 800L232 817Q249 805 274 777T327 710Q372 724 406 736T455 758Q457 747 456 732T466 700Q455 698 423 691T351 671Q390 609 422 537T460 397Q464 355 464 311T458 224T438 143T401 74T344 26T264 4Q220 1 178 18T103 71T48 159T26
280Q24 350 43 401T93 487T160 538T231 557Q264 558 297 547T360 512Q350 546 335 582T302 655Q267 644 237 632T189 607Q182 621 179 635T167 663Z" />
<glyph unicode="&#xf1;" glyph-name="ntilde" horiz-adv-x="517" d="M153 377Q165 414 187 451T237 517T299 564T369 579Q402 576 423 550T458 489T475 416T479 353Q477 322 467 294T444 237T420 178T407 115Q405 82 414 53T442 7T484 -7T535 28L548 17Q538 0
515 -16T461 -33Q440 -33 420 -25T383 2T356 50T344 121Q344 156 353 186T372 246T391 308T399 381Q397 418 388 441T365 477T336 493T307 495Q280 490 252 465T202 401T165 313T150 213V215Q150 190 149 171T150 139Q150 110 155 94T168 68T183 56T198 51L197
33Q183 36 162 36T115 34T64 23T15 1L8 15Q23 27 34 36T54 61T69 100T78 163Q84 242 86 318T82 461Q80 482 72 493T51 508T26 513T1 512L0 529Q22 531 45 534T91 540T130 546T158 555Q156 523 156 492T154 434Q153 404 153 377ZM518 945Q543 933 562 930T595 930T620
941T639 957L670 919Q641 895 605 892T533 909Q517 918 499 919T464 916T434 902T413 879L376 914Q383 922 397 932T429 950T470 957T518 945Z" />
<glyph unicode="&#xf2;" glyph-name="ograve" horiz-adv-x="487" d="M231 557Q273 558 314 540T388 486T441 399T462 281Q462 215 446 165T402 79T339 26T264 4Q220 1 178 18T103 71T48 159T26 280Q24 350 43 401T93 487T160 538T231 557ZM273 70Q294 72 318 88T360
135T386 213T385 323Q375 386 355 425T312 485T264 513T222 519Q193 517 173 500T140 455T120 392T112 319Q110 271 119 223T150 137Q171 100 203 83T273 70ZM441 1016Q451 1011 471 997Q488 985 519 962T599 900L572 862Q560 873 540 887T497 915T450 942T405
967Q408 974 412 982Q416 989 423 998T441 1016Z" />
<glyph unicode="&#xf3;" glyph-name="oacute" horiz-adv-x="487" d="M231 557Q273 558 314 540T388 486T441 399T462 281Q462 215 446 165T402 79T339 26T264 4Q220 1 178 18T103 71T48 159T26 280Q24 350 43 401T93 487T160 538T231 557ZM273 70Q294 72 318 88T360
135T386 213T385 323Q375 386 355 425T312 485T264 513T222 519Q193 517 173 500T140 455T120 392T112 319Q110 271 119 223T150 137Q171 100 203 83T273 70ZM594 1016Q605 1007 612 998T623 982Q627 974 630 967Q609 956 585 943T538 915T495 887T463 862L436
900Q485 939 516 962T564 997Q584 1011 594 1016Z" />
<glyph unicode="&#xf4;" glyph-name="ocircumflex" horiz-adv-x="487" d="M231 557Q273 558 314 540T388 486T441 399T462 281Q462 215 446 165T402 79T339 26T264 4Q220 1 178 18T103 71T48 159T26 280Q24 350 43 401T93 487T160 538T231 557ZM273 70Q294 72
318 88T360 135T386 213T385 323Q375 386 355 425T312 485T264 513T222 519Q193 517 173 500T140 455T120 392T112 319Q110 271 119 223T150 137Q171 100 203 83T273 70ZM500 774Q530 742 564 715T631 670L613 630Q581 641 551 666T498 716L402 624L372 665Q411
695 436 716T475 750Q492 765 500 774Z" />
<glyph unicode="&#xf5;" glyph-name="otilde" horiz-adv-x="487" d="M231 557Q273 558 314 540T388 486T441 399T462 281Q462 215 446 165T402 79T339 26T264 4Q220 1 178 18T103 71T48 159T26 280Q24 350 43 401T93 487T160 538T231 557ZM273 70Q294 72 318 88T360
135T386 213T385 323Q375 386 355 425T312 485T264 513T222 519Q193 517 173 500T140 455T120 392T112 319Q110 271 119 223T150 137Q171 100 203 83T273 70ZM497 945Q522 933 541 930T574 930T599 941T618 957L649 919Q620 895 584 892T512 909Q496 918 478 919T443
916T413 902T392 879L355 914Q362 922 376 932T408 950T449 957T497 945Z" />
<glyph unicode="&#xf6;" glyph-name="odieresis" horiz-adv-x="487" d="M231 557Q273 558 314 540T388 486T441 399T462 281Q462 215 446 165T402 79T339 26T264 4Q220 1 178 18T103 71T48 159T26 280Q24 350 43 401T93 487T160 538T231 557ZM273 70Q294 72 318
88T360 135T386 213T385 323Q375 386 355 425T312 485T264 513T222 519Q193 517 173 500T140 455T120 392T112 319Q110 271 119 223T150 137Q171 100 203 83T273 70ZM423 875Q403 873 392 883T378 907Q375 921 386 934T417 950Q438 953 449 943T461 919Q463 905
454 892T423 875ZM587 880Q567 874 554 882T539 903Q536 915 547 930T579 950Q601 955 612 947T626 926Q628 912 620 899T587 880Z" />
<glyph unicode="&#xf7;" glyph-name="divide" horiz-adv-x="475" d="M229 435Q191 432 185 460Q180 480 191 492T224 509Q248 513 260 503T274 477Q276 461 264 449T229 435ZM218 292Q232 296 250 292T275 270Q282 253 273 239T240 217Q217 210 202 215T181 238Q175
255 187 270T218 292ZM41 385Q88 385 146 385T259 385T358 389T419 397Q419 391 417 383T412 366T410 347T413 325Q403 327 378 328T320 330T248 330T172 327T102 321T48 311Q44 329 46 348T41 385Z" />
<glyph unicode="&#xf8;" glyph-name="oslash" horiz-adv-x="487" d="M311 485Q288 507 265 514T222 519Q193 517 173 500T140 455T120 392T112 319Q110 273 118 226T148 140Q172 189 190 228T221 293Q235 324 246 347Q264 385 280 420T311 485ZM182 98Q201 81
224 75T273 70Q294 72 318 88T360 135T386 213T385 323Q380 360 371 388T348 437Q332 408 315 377T281 311Q252 256 228 202T182 98ZM120 -65Q105 -65 85 -65T42 -72Q61 -35 78 -1T111 63Q73 99 51 153T26 280Q24 350 43 401T93 487T160 538T231 557Q283 559 332
531Q350 574 360 598T373 622Q393 615 419 615T460 620Q428 572 381 494Q417 458 439 404T462 281Q462 215 446 165T402 79T339 26T264 4Q205 1 155 31Q144 3 136 -21T120 -65Z" />
<glyph unicode="&#xf9;" glyph-name="ugrave" horiz-adv-x="484" d="M445 37Q452 37 459 41Q465 44 470 50T480 68H495Q494 58 489 46T474 23T449 5T414 0Q350 6 337 124Q328 100 317 75T289 29T252 -5T200 -19Q162 -19 134 -4T86 38T59 97T53 167Q56 217 67 268T80
365T70 445T10 496L14 511Q29 508 47 503T85 495T127 492T173 498Q161 472 152 449T136 398T127 334T124 245Q124 192 132 156T156 99T193 70T240 63Q265 66 282 86T311 140T329 217T338 308Q340 356 339 390T331 447T313 484T281 507L283 523Q301 523 326 523T376
524T422 529T455 537Q438 504 425 454T402 348T390 237T392 137T409 65T445 37ZM124 739Q134 734 154 720Q171 708 202 685T282 623L255 585Q243 596 223 610T180 638T133 665T88 690Q91 697 95 705Q99 712 106 721T124 739Z" />
<glyph unicode="&#xfa;" glyph-name="uacute" horiz-adv-x="484" d="M445 37Q452 37 459 41Q465 44 470 50T480 68H495Q494 58 489 46T474 23T449 5T414 0Q350 6 337 124Q328 100 317 75T289 29T252 -5T200 -19Q162 -19 134 -4T86 38T59 97T53 167Q56 217 67 268T80
365T70 445T10 496L14 511Q29 508 47 503T85 495T127 492T173 498Q161 472 152 449T136 398T127 334T124 245Q124 192 132 156T156 99T193 70T240 63Q265 66 282 86T311 140T329 217T338 308Q340 356 339 390T331 447T313 484T281 507L283 523Q301 523 326 523T376
524T422 529T455 537Q438 504 425 454T402 348T390 237T392 137T409 65T445 37ZM594 985Q605 976 612 967T623 951Q627 943 630 936Q609 925 585 912T538 884T495 856T463 831L436 869Q485 908 516 931T564 966Q584 980 594 985Z" />
<glyph unicode="&#xfb;" glyph-name="ucircumflex" horiz-adv-x="484" d="M445 37Q452 37 459 41Q465 44 470 50T480 68H495Q494 58 489 46T474 23T449 5T414 0Q350 6 337 124Q328 100 317 75T289 29T252 -5T200 -19Q162 -19 134 -4T86 38T59 97T53 167Q56 217
67 268T80 365T70 445T10 496L14 511Q29 508 47 503T85 495T127 492T173 498Q161 472 152 449T136 398T127 334T124 245Q124 192 132 156T156 99T193 70T240 63Q265 66 282 86T311 140T329 217T338 308Q340 356 339 390T331 447T313 484T281 507L283 523Q301 523
326 523T376 524T422 529T455 537Q438 504 425 454T402 348T390 237T392 137T409 65T445 37ZM490 1011Q520 979 554 952T621 907L603 867Q571 878 541 903T488 953L392 861L362 902Q401 932 426 953T465 987Q482 1002 490 1011Z" />
<glyph unicode="&#xfc;" glyph-name="udieresis" horiz-adv-x="484" d="M445 37Q452 37 459 41Q465 44 470 50T480 68H495Q494 58 489 46T474 23T449 5T414 0Q350 6 337 124Q328 100 317 75T289 29T252 -5T200 -19Q162 -19 134 -4T86 38T59 97T53 167Q56 217 67
268T80 365T70 445T10 496L14 511Q29 508 47 503T85 495T127 492T173 498Q161 472 152 449T136 398T127 334T124 245Q124 192 132 156T156 99T193 70T240 63Q265 66 282 86T311 140T329 217T338 308Q340 356 339 390T331 447T313 484T281 507L283 523Q301 523 326
523T376 524T422 529T455 537Q438 504 425 454T402 348T390 237T392 137T409 65T445 37ZM413 844Q393 842 382 852T368 876Q365 890 376 903T407 919Q428 922 439 912T451 888Q453 874 444 861T413 844ZM577 849Q557 843 544 851T529 872Q526 884 537 899T569 919Q591
924 602 916T616 895Q618 881 610 868T577 849Z" />
<glyph unicode="&#xfd;" glyph-name="yacute" horiz-adv-x="474" d="M428 -189Q426 -233 412 -267T373 -323T318 -358T250 -371Q214 -372 186 -359T137 -325T107 -276T97 -219Q98 -190 109 -168T140 -132T182 -110T228 -103Q268 -104 283 -128T298 -183Q298 -200
293 -217T277 -247T252 -269T219 -278Q211 -278 202 -276T186 -268T173 -250T168 -219Q168 -191 181 -175T214 -158Q228 -158 236 -166T246 -184T243 -202T223 -210Q209 -209 209 -199T214 -180Q206 -184 200 -193T193 -216Q193 -234 202 -244T225 -254Q235 -254
243 -248T258 -232T267 -211T271 -188Q271 -156 251 -140T202 -126Q191 -127 177 -134T151 -153T131 -183T124 -220Q125 -240 132 -259T154 -292T191 -314T245 -318Q307 -312 339 -245T370 -67Q369 -30 368 -3T366 46T365 84T364 118Q356 91 344 62T311 9T261 -30T190
-44Q159 -43 136 -32T97 0T70 47T55 106Q50 146 54 186T65 266Q71 317 73 353T72 413T54 454T15 485L26 505Q37 502 48 499T77 494T122 493T191 499Q183 484 175 460T160 406T148 343T139 279Q136 248 136 210T144 139T166 82T209 56Q236 54 257 67T294 98T318
134T329 160Q331 168 334 191T339 247T342 315T341 383Q339 412 334 431T320 462T303 481T283 492L289 512Q305 505 326 501T371 496T416 494T454 498Q428 444 415 358T407 148Q409 92 413 49T421 -32T427 -107T428 -189ZM615 975Q626 966 633 957T644 941Q648
933 651 926Q630 915 606 902T559 874T516 846T484 821L457 859Q506 898 537 921T585 956Q605 970 615 975Z" />
<glyph unicode="&#xfe;" glyph-name="thorn" horiz-adv-x="531" d="M315 569Q346 570 378 553T436 498T479 405T496 272Q496 196 474 139T419 45T344 -11T265 -28Q226 -26 199 -10T153 30Q152 3 152 -32T151 -103T150 -168T151 -218Q153 -264 178 -287T246 -318L238
-337Q212 -333 174 -333T99 -335T29 -345T-17 -361L-26 -344Q-6 -331 10 -319T38 -284T59 -219T73 -109Q76 -63 77 -5T79 115T80 239T80 357T79 457T79 529Q80 570 73 605T51 666T12 709T-41 727L-35 752Q33 743 79 743T161 755Q159 729 158 693T155 617T153 536T152
460Q181 508 223 537T315 569ZM425 289Q426 310 423 336T412 388T394 439T366 482T330 511T284 518Q246 513 220 484T178 416T154 332T147 253Q147 234 150 199T164 128T197 66T256 40Q286 40 315 58T368 110T407 189T425 289Z" />
<glyph unicode="&#xff;" glyph-name="ydieresis" horiz-adv-x="474" d="M428 -189Q426 -233 412 -267T373 -323T318 -358T250 -371Q214 -372 186 -359T137 -325T107 -276T97 -219Q98 -190 109 -168T140 -132T182 -110T228 -103Q268 -104 283 -128T298 -183Q298
-200 293 -217T277 -247T252 -269T219 -278Q211 -278 202 -276T186 -268T173 -250T168 -219Q168 -191 181 -175T214 -158Q228 -158 236 -166T246 -184T243 -202T223 -210Q209 -209 209 -199T214 -180Q206 -184 200 -193T193 -216Q193 -234 202 -244T225 -254Q235
-254 243 -248T258 -232T267 -211T271 -188Q271 -156 251 -140T202 -126Q191 -127 177 -134T151 -153T131 -183T124 -220Q125 -240 132 -259T154 -292T191 -314T245 -318Q307 -312 339 -245T370 -67Q369 -30 368 -3T366 46T365 84T364 118Q356 91 344 62T311 9T261
-30T190 -44Q159 -43 136 -32T97 0T70 47T55 106Q50 146 54 186T65 266Q71 317 73 353T72 413T54 454T15 485L26 505Q37 502 48 499T77 494T122 493T191 499Q183 484 175 460T160 406T148 343T139 279Q136 248 136 210T144 139T166 82T209 56Q236 54 257 67T294
98T318 134T329 160Q331 168 334 191T339 247T342 315T341 383Q339 412 334 431T320 462T303 481T283 492L289 512Q305 505 326 501T371 496T416 494T454 498Q428 444 415 358T407 148Q409 92 413 49T421 -32T427 -107T428 -189ZM423 824Q403 822 392 832T378 856Q375
870 386 883T417 899Q438 902 449 892T461 868Q463 854 454 841T423 824ZM587 829Q567 823 554 831T539 852Q536 864 547 879T579 899Q601 904 612 896T626 875Q628 861 620 848T587 829Z" />
<glyph unicode="&#x2013;" glyph-name="endash" horiz-adv-x="475" d="M41 385Q88 385 146 385T259 385T358 389T419 397Q419 391 417 383T412 366T410 347T413 325Q403 327 378 328T320 330T248 330T172 327T102 321T48 311Q44 329 46 348T41 385Z" />
<glyph unicode="&#x2014;" glyph-name="emdash" horiz-adv-x="757" d="M41 394Q95 394 159 394T290 393T421 394T541 396T637 400T700 407Q700 401 696 393T689 376T684 357T689 335Q672 337 629 338T527 340T402 340T269 337T147 331T53 321Q50 330 50 339T50
358T49 377T41 394Z" />
<glyph unicode="&#x2018;" glyph-name="quoteleft" horiz-adv-x="162" d="M81 547Q59 545 44 558T23 594Q19 613 21 633T34 671T64 702T112 718L119 693Q104 689 87 679T65 645L80 648Q103 649 119 635T136 600Q136 579 120 564T81 547Z" />
<glyph unicode="&#x2019;" glyph-name="quoteright" horiz-adv-x="162" d="M81 718Q103 719 118 706T138 671Q142 652 140 632T127 594T97 563T50 547L43 571Q56 574 74 584T97 620Q90 616 81 616Q58 614 42 628T26 664Q26 685 42 700T81 718Z" />
<glyph unicode="&#x201a;" glyph-name="quotesinglbase" horiz-adv-x="162" d="M81 93Q103 94 118 81T138 46Q142 27 140 7T127 -31T97 -62T50 -78L43 -53Q56 -50 74 -40T97 -5Q89 -8 81 -8Q58 -10 42 4T26 39Q26 61 42 76T81 93Z" />
<glyph unicode="&#x201c;" glyph-name="quotedblleft" horiz-adv-x="293" d="M81 547Q59 545 44 558T23 594Q19 613 21 633T34 671T64 702T112 718L119 693Q104 689 87 679T65 645L80 648Q103 649 119 635T136 600Q136 579 120 564T81 547ZM213 547Q190 545 175
558T155 594Q150 613 153 633T166 671T196 702T243 718L251 693Q236 689 219 679T196 645Q200 646 203 646T212 648Q235 649 251 635T267 600Q267 579 252 564T213 547Z" />
<glyph unicode="&#x201d;" glyph-name="quotedblright" horiz-adv-x="293" d="M212 718Q235 719 250 706T270 671Q274 652 272 632T259 594T229 563T181 547L174 571Q189 574 206 584T228 620Q221 616 213 616Q190 614 174 628T157 664Q157 685 173 700T212 718ZM81
718Q103 719 118 706T138 671Q142 652 140 632T127 594T97 563T50 547L43 571Q56 574 74 584T97 620Q90 616 81 616Q58 614 42 628T26 664Q26 685 42 700T81 718Z" />
<glyph unicode="&#x201e;" glyph-name="quotedblbase" horiz-adv-x="293" d="M212 93Q235 94 250 81T270 46Q274 27 272 7T259 -31T229 -62T181 -78L174 -53Q189 -50 206 -40T228 -5Q220 -8 213 -8Q190 -10 174 4T157 39Q157 61 173 76T212 93ZM81 93Q103 94 118
81T138 46Q142 27 140 7T127 -31T97 -62T50 -78L43 -53Q56 -50 74 -40T97 -5Q89 -8 81 -8Q58 -10 42 4T26 39Q26 61 42 76T81 93Z" />
<glyph unicode="&#x2022;" glyph-name="bullet" horiz-adv-x="246" d="M142 444Q157 439 168 427T185 401T194 370T194 341Q191 326 184 312T166 288T139 272T103 270Q85 273 70 281T45 303T32 335T35 378Q39 394 50 409T75 434T107 447T142 444Z" />
<glyph unicode="&#x2039;" glyph-name="guilsinglleft" horiz-adv-x="244" d="M10 213Q26 231 52 261T105 324T155 384T191 429Q188 408 187 391T186 357Q180 350 163 331T123 290T81 247T48 212Q58 199 77 178T117 136T158 97T193 73Q191 52 190 37T189 12V-7Q186
-4 174 9T145 43T108 88T69 136T35 180T10 213Z" />
<glyph unicode="&#x203a;" glyph-name="guilsinglright" horiz-adv-x="233" d="M213 209Q197 191 171 161T118 98T68 38T32 -7Q36 13 37 31T37 65Q43 72 61 91T100 132T143 175T175 210Q165 223 147 244T107 286T66 325T31 349Q33 369 34 384T35 410V429Q38 426
49 413T78 379T115 334T154 286T188 242T213 209Z" />
</font>
</defs>
</svg>
