<?xml version="1.0" standalone="no"?>
<!DOCTYPE svg PUBLIC "-//W3C//DTD SVG 1.1//EN" "http://www.w3.org/Graphics/SVG/1.1/DTD/svg11.dtd">
<svg xmlns="http://www.w3.org/2000/svg">
<defs >
<font id="Unna" horiz-adv-x="473" ><font-face
    font-family="Unna"
    units-per-em="1000"
    panose-1="2 4 5 3 7 7 5 2 2 3"
    ascent="883"
    descent="-269"
    alphabetic="0" />
<glyph unicode=" " glyph-name="space" horiz-adv-x="220" />
<glyph unicode="!" glyph-name="exclam" horiz-adv-x="269" d="M181 637T195 622T209 583Q209 561 203 520L190 428L183 380Q174 324 170 289T166 217Q166 211 163 206T155 201Q149 201 146 206T143 217Q143 253 139 288T126 380L119 428L106 520Q100 561 100
583Q100 607 114 622T154 637Q181 637 195 622ZM182 105T200 88T219 47Q219 24 200 7T154 -10Q129 -10 110 7T90 48Q90 72 109 88T155 105Q182 105 200 88Z" />
<glyph unicode="&quot;" glyph-name="quotedbl" horiz-adv-x="252" d="M34 619T43 629T67 640Q82 640 91 630T100 600Q100 587 95 544T87 480Q80 431 80 426Q80 419 77 414T67 409Q61 409 58 414T54 426Q54 431 47 480Q45 500 40 543T34 600Q34 619 43 629ZM152
619T161 629T185 640Q200 640 209 630T218 600Q218 587 213 544T205 480Q198 431 198 426Q198 419 195 414T185 409Q179 409 176 414T172 426Q172 431 165 480Q163 500 158 543T152 600Q152 619 161 629Z" />
<glyph unicode="#" glyph-name="numbersign" horiz-adv-x="505" d="M18 194L29 234H128L180 405H80L91 445H191L250 639H290L231 445H345L404 639H444L386 445H487L476 405H374L323 234H424L412 194H311L250 -9H210L271 194H157L96 -9H56L117 194H18ZM168 234H283L334
405H220L168 234Z" />
<glyph unicode="$" glyph-name="dollar" horiz-adv-x="447" d="M364 183T331 154T243 120V-95H206V120Q184 122 130 137Q115 140 107 140Q91 140 83 135L87 241L111 242Q111 199 146 171T230 143Q260 143 277 158T295 198Q295 218 283 231T239 251L169 270Q130
280 110 305T89 366Q89 410 120 439T206 471V647H243V469Q264 466 282 460Q306 453 320 453Q332 453 344 460L339 369H318Q318 400 293 423T222 447Q193 447 177 433T160 397Q160 361 209 349L278 331Q326 318 345 294T364 232Q364 183 331 154Z" />
<glyph unicode="%" glyph-name="percent" horiz-adv-x="572" d="M26 529T60 568T153 607Q213 607 246 568T279 467Q279 406 247 367T153 328Q91 328 59 367T26 467Q26 529 60 568ZM51 5L479 605L513 585L84 -18L51 5ZM100 402T112 374T153 346Q182 346 194 374T206
468Q206 533 194 561T153 589Q124 589 112 560T100 468Q100 402 112 374ZM293 191T327 230T420 269Q480 269 513 230T546 129Q546 68 514 29T420 -10Q358 -10 326 29T293 129Q293 191 327 230ZM367 64T379 36T420 8Q449 8 461 36T473 130Q473 195 461 223T420 251Q391
251 379 222T367 130Q367 64 379 36Z" />
<glyph unicode="&amp;" glyph-name="ampersand" horiz-adv-x="610" d="M625 28V0H458L401 77Q331 -10 216 -10Q133 -10 78 32T22 157Q22 218 60 262T192 360L185 369Q132 440 132 492Q132 542 172 574T271 606Q326 606 356 579T386 511Q386 438 287 383L430 187Q461
265 461 340Q461 359 458 365T447 372L401 370V399H552V370L506 372Q499 372 497 367T493 350Q483 241 450 160L539 39Q549 26 569 26L625 28ZM250 575T230 560T209 520Q209 499 223 474T265 412L271 404Q356 452 356 510Q356 540 336 557T282 575Q250 575 230
560ZM280 21T316 42T382 102L209 337Q111 268 111 166Q111 101 146 61T239 21Q280 21 316 42Z" />
<glyph unicode="&apos;" glyph-name="quotesingle" horiz-adv-x="133" d="M34 619T43 629T67 640Q82 640 91 630T100 600Q100 587 95 544T87 480Q80 431 80 426Q80 419 77 414T67 409Q61 409 58 414T54 426Q54 431 47 480Q45 500 40 543T34 600Q34 619 43 629Z" />
<glyph unicode="(" glyph-name="parenleft" horiz-adv-x="254" d="M18 483T211 711H254Q211 656 179 572T129 399T112 240Q112 170 129 81T178 -92T254 -231H211Q18 -3 18 240Q18 483 211 711Z" />
<glyph unicode=")" glyph-name="parenright" horiz-adv-x="254" d="M236 -3T43 -231H0Q43 -176 75 -92T125 81T142 240Q142 310 125 399T76 572T0 711H43Q236 483 236 240Q236 -3 43 -231Z" />
<glyph unicode="*" glyph-name="asterisk" horiz-adv-x="338" d="M304 530T311 522T318 492Q318 470 311 462T285 454Q274 454 269 461T257 473T230 478Q216 478 202 472Q203 460 212 446Q221 431 228 427T245 421T260 411Q267 397 267 390Q267 376 244 363Q227
354 218 354Q206 354 194 373Q191 379 191 383Q191 386 194 393T197 405Q197 415 187 432Q182 442 169 453Q156 442 151 432Q142 415 142 405Q142 400 144 393T147 383Q147 379 144 373Q132 354 120 354Q110 354 95 363Q71 376 71 390Q71 397 78 411Q83 420 92
421T109 425T126 446Q133 458 135 473Q123 478 108 478Q90 478 83 474T70 462T53 454Q34 454 27 462T20 492Q20 514 27 522T53 530Q64 530 69 523T81 511T108 506Q122 506 136 512Q135 524 126 538Q117 553 110 557T93 563T78 573Q71 587 71 594Q71 608 95 621Q110
630 120 630Q132 630 144 611Q147 605 147 601Q147 598 144 591T141 579Q141 569 151 552Q156 542 169 531Q182 542 187 552Q196 569 196 579Q196 584 194 591T191 601Q191 605 194 611Q206 630 218 630Q228 630 243 621Q267 608 267 594Q267 587 260 573Q255 564
246 563T229 559T212 538Q205 526 203 511Q215 506 230 506Q248 506 255 510T268 522T285 530Q304 530 311 522Z" />
<glyph unicode="+" glyph-name="plus" horiz-adv-x="460" d="M20 259V303H206V488H255V303H440V259H255V73H206V259H20Z" />
<glyph unicode="," glyph-name="comma" horiz-adv-x="250" d="M86 -125T107 -91T129 -34Q129 -5 93 -5Q75 -5 68 8T61 38Q61 59 78 75T119 91Q154 91 171 70T189 8Q189 -42 155 -86T79 -160L60 -149Q86 -125 107 -91Z" />
<glyph unicode="-" glyph-name="hyphen" horiz-adv-x="250" d="M22 189V244H228V189H22Z" />
<glyph unicode="." glyph-name="period" horiz-adv-x="250" d="M60 73T78 89T125 105Q153 105 171 89T190 47Q190 21 172 6T125 -10Q97 -10 79 5T60 47Q60 73 78 89Z" />
<glyph unicode="/" glyph-name="slash" horiz-adv-x="247" d="M-5 6L214 635L252 626L34 -5L-5 6Z" />
<glyph unicode="0" glyph-name="zero" horiz-adv-x="538" d="M30 450T95 528T268 607Q377 607 442 528T508 297Q508 147 443 69T268 -10Q158 -10 94 69T30 297Q30 450 95 528ZM119 191T136 130T185 45T268 20Q319 20 352 45T403 132T421 298Q421 406 404 467T353
554T268 580Q193 580 156 516T119 298Q119 191 136 130Z" />
<glyph unicode="1" glyph-name="one" horiz-adv-x="387" d="M120 530T179 576Q200 592 225 617H242V43Q242 23 261 23L326 24V0H78V24L144 23Q165 23 165 43V497Q165 506 159 511T144 512L70 479L62 513Q120 530 179 576Z" />
<glyph unicode="2" glyph-name="two" horiz-adv-x="506" d="M455 165Q432 33 430 -3Q421 0 376 0H49L47 45L164 156Q222 212 258 255T316 346T338 449Q338 512 311 546T238 580Q193 580 165 560T137 503Q137 491 143 473Q148 461 148 449Q148 429 134 421T102
412Q79 412 66 427T52 469Q52 504 73 535T138 587T246 607Q326 607 377 570T428 445Q428 404 413 367T357 282T242 168L126 66H303Q359 66 386 87T419 165H455Z" />
<glyph unicode="3" glyph-name="three" horiz-adv-x="498" d="M218 318Q462 312 462 162Q462 107 431 68T348 10T233 -10Q175 -10 130 7T60 52T35 115Q35 138 47 151T84 165Q106 165 118 154T131 126Q131 114 126 102Q125 99 123 92T121 77Q121 49 151 33T225
17Q297 17 335 58T373 159Q373 224 322 259T160 299V327Q233 337 284 380T335 486Q335 529 310 554T232 580Q191 580 163 563T134 519Q134 512 136 505T139 496Q145 480 145 471Q145 452 131 442T97 432Q72 432 60 446T48 484Q48 519 75 547T148 591T245 607Q320
607 372 576T424 485Q424 421 364 377T218 320V318Z" />
<glyph unicode="4" glyph-name="four" horiz-adv-x="470" d="M364 224H444V155H364V43Q364 23 383 23L429 24V0H201V24L268 23Q286 23 286 43V155H17V215Q36 232 47 245L76 276L302 554L318 576L339 604H364V224ZM286 488L72 224H286V488Z" />
<glyph unicode="5" glyph-name="five" horiz-adv-x="492" d="M342 382T397 332T452 187Q452 127 423 83T343 14T234 -10Q186 -10 141 4T67 49T38 123Q38 150 51 162T89 175Q107 175 120 165T134 136Q134 124 128 110Q127 107 125 101T123 88Q123 53 156 35T235
17Q294 17 328 64T362 191Q362 259 324 300T223 341Q184 341 150 326T97 288H70L91 597H349Q390 597 432 600Q423 581 418 531H122L105 332Q133 354 173 368T251 382Q342 382 397 332Z" />
<glyph unicode="6" glyph-name="six" horiz-adv-x="485" d="M354 399T404 345T455 200Q455 103 398 46T248 -11Q142 -11 94 63T45 270Q45 408 99 507T282 607Q330 607 362 593T410 556T426 511Q426 489 413 473T374 457Q355 457 342 466T329 493Q329 500 333 511T337
530Q337 551 319 565T271 579Q204 579 168 505T131 316Q149 355 184 377T270 399Q354 399 404 345ZM369 14T369 187Q369 262 345 317T256 372Q196 372 163 322T130 193Q130 119 162 67T258 14Q369 14 369 187Z" />
<glyph unicode="7" glyph-name="seven" horiz-adv-x="427" d="M230 44T234 0H140Q142 86 158 165T223 336T361 530H155Q111 530 91 517T66 472H30L33 492Q45 586 45 600Q58 597 164 597H417L421 555Q334 458 282 336T230 75Q230 44 234 0Z" />
<glyph unicode="8" glyph-name="eight" horiz-adv-x="493" d="M360 300T391 278T442 225T463 155Q463 107 431 69T347 11T234 -10Q153 -10 95 25T37 130Q37 188 78 234T183 305Q123 339 93 373T63 456Q63 501 90 535T163 588T266 607Q345 607 396 573T448 476Q448
418 406 379T312 327Q360 300 391 278ZM219 580T187 554T155 484Q155 438 188 408T288 340Q385 384 385 475Q385 526 355 553T272 580Q219 580 187 554ZM297 17T333 44T369 121Q369 160 346 191T291 243T208 291Q164 269 134 226T103 134Q103 83 139 50T240 17Q297
17 333 44Z" />
<glyph unicode="9" glyph-name="nine" horiz-adv-x="485" d="M360 607T408 533T457 326Q457 188 403 89T220 -11Q172 -11 140 3T92 40T76 85Q76 107 89 123T128 139Q147 139 160 130T173 103Q173 96 169 85T165 66Q165 45 183 31T231 17Q298 17 334 91T371 280Q353
241 318 219T232 197Q148 197 98 251T47 396Q47 493 104 550T254 607Q360 607 408 533ZM306 224T339 274T372 403Q372 477 340 529T244 582Q133 582 133 409Q133 334 157 279T246 224Q306 224 339 274Z" />
<glyph unicode=":" glyph-name="colon" horiz-adv-x="250" d="M60 73T78 89T125 105Q153 105 171 89T190 47Q190 21 172 6T125 -10Q97 -10 79 5T60 47Q60 73 78 89ZM60 371T78 387T125 403Q153 403 171 387T190 345Q190 319 172 304T125 288Q97 288 79 303T60
345Q60 371 78 387Z" />
<glyph unicode=";" glyph-name="semicolon" horiz-adv-x="250" d="M88 -125T109 -91T131 -34Q131 -5 95 -5Q77 -5 70 8T63 38Q63 59 80 75T121 91Q156 91 173 70T191 8Q191 -42 157 -86T81 -160L62 -149Q88 -125 109 -91ZM54 371T72 387T119 403Q147 403 165 387T184
345Q184 319 166 304T119 288Q91 288 73 303T54 345Q54 371 72 387Z" />
<glyph unicode="&lt;" glyph-name="less" horiz-adv-x="460" d="M406 441V393L150 238L107 218L150 197L406 43V-6L54 205V229L406 441Z" />
<glyph unicode="=" glyph-name="equal" horiz-adv-x="460" d="M35 302V345H425V302H35ZM35 103V146H425V103H35Z" />
<glyph unicode="&gt;" glyph-name="greater" horiz-adv-x="460" d="M54 -5V43L310 198L353 218L310 239L54 393V442L406 231V207L54 -5Z" />
<glyph unicode="?" glyph-name="question" horiz-adv-x="400" d="M196 224T171 241T127 281T109 327Q109 352 128 377T188 444Q230 486 251 515T273 573Q273 602 249 622T177 643Q143 643 119 632T94 601Q94 595 98 584T103 566Q103 551 93 545T67 538Q43 538
32 552T20 585Q20 625 71 647T193 670Q271 670 317 641T364 561Q364 523 340 494T268 427Q224 391 203 366T182 310Q182 289 193 270T229 238L217 219Q196 224 171 241ZM155 -10T135 4T115 45Q115 70 133 87T180 105Q206 105 225 90T245 48Q245 21 226 6T181 -10Q155
-10 135 4Z" />
<glyph unicode="@" glyph-name="at" horiz-adv-x="741" d="M26 285T78 381T220 537T421 596Q504 596 571 558T676 453T714 306Q714 231 674 160T561 36Q524 9 503 0T459 -10Q445 -10 440 1T435 36Q435 85 459 187Q402 79 357 35T264 -10Q220 -10 196 22T172 112Q172
182 209 256T309 380T439 430Q460 430 473 421T496 391L501 411L593 428L570 330Q528 139 528 92Q528 75 541 75Q568 75 602 109T659 197T683 305Q683 376 649 436T554 531T421 567Q315 567 238 509T122 360T82 173Q82 87 119 22T224 -80T385 -116Q474 -116 542
-87T676 9L694 -13Q625 -84 550 -114T376 -145Q271 -145 192 -106T69 7T26 178Q26 285 78 381ZM261 45T311 45Q331 45 374 98T450 222T484 348Q484 369 472 384T441 400Q393 400 352 357T284 241Q261 177 261 123Q261 45 311 45Z" />
<glyph unicode="A" glyph-name="A" horiz-adv-x="601" d="M621 29V0H356V29L405 27Q435 24 435 51Q435 68 425 90L376 208H143L97 96Q83 65 83 46Q83 25 105 26L153 29V0H-20V29L6 27H10Q30 27 43 46Q58 68 73 104L282 607H308L519 102Q533 66 548 45Q562 27 583
27H588L621 29ZM155 236H364L259 488L155 236Z" />
<glyph unicode="B" glyph-name="B" horiz-adv-x="573" d="M412 597T456 561T500 454Q500 401 463 365T362 317Q409 317 448 297T510 242T533 162Q533 0 312 0H50V29L100 27Q118 27 118 49V549Q118 556 114 562T101 569L50 567V597H327Q412 597 456 561ZM223 569Q213
569 211 557V327H287Q405 327 405 453Q405 507 373 538T281 569H223ZM211 299V41Q211 28 225 28H295Q359 28 397 64T436 162Q436 299 314 299H211Z" />
<glyph unicode="C" glyph-name="C" horiz-adv-x="607" d="M45 442T124 524T345 607Q382 607 406 601T467 583Q492 574 510 569T553 564Q549 533 549 489Q549 468 550 452T553 433H529Q520 474 492 508T424 562T340 582Q281 582 238 547T171 446T147 295Q147 214
171 151T241 52T345 17Q414 17 467 59T534 167H562Q556 120 556 82Q556 53 559 35H553Q539 35 520 31T490 22T473 17Q435 4 404 -3T340 -10Q250 -10 184 27T81 132T45 295Q45 442 124 524Z" />
<glyph unicode="D" glyph-name="D" horiz-adv-x="623" d="M50 29L93 27Q108 27 108 49V548Q108 557 103 563T89 569L50 567V597H275Q435 597 511 528T588 299Q588 0 287 0H50V29ZM201 28T213 28H258Q342 28 391 54T463 140T486 298Q486 397 464 456T391 542T258
569H213Q201 569 201 556V41Q201 28 213 28Z" />
<glyph unicode="E" glyph-name="E" horiz-adv-x="563" d="M50 30L90 27Q108 27 108 49V548Q108 557 103 563T88 569L50 567V597H472Q486 597 489 598V443H462Q462 510 429 539T320 569H213Q201 569 201 555V325H295Q329 325 350 352T371 426H398V195H371Q371 239
349 268T295 297H201V41Q201 28 213 28H353Q421 28 456 67T492 179H519V-3Q497 0 431 0H50V30Z" />
<glyph unicode="F" glyph-name="F" horiz-adv-x="529" d="M50 30L90 27Q108 27 108 49V548Q108 569 91 569H89L50 567V597H484Q496 597 499 598V443H472Q472 509 438 539T330 569H213Q201 569 201 556V315H276Q312 315 333 342T355 417H382V187H355Q355 232 333
259T276 287H201V48Q201 39 206 33T220 27L272 30V0H50V30Z" />
<glyph unicode="G" glyph-name="G" horiz-adv-x="646" d="M45 449T122 528T345 607Q391 607 425 599T496 578Q535 564 553 564Q549 544 549 495Q549 481 551 457Q553 441 553 433H513Q514 438 514 448Q514 511 470 546T340 582Q253 582 200 509T147 295Q147 17
345 17Q390 17 418 26T473 63V223Q473 245 454 245L395 243V272H626V243L585 245Q576 245 571 239T566 224V35Q562 36 553 36Q534 36 491 20Q447 5 415 -2T340 -10Q200 -10 123 67T45 295Q45 449 122 528Z" />
<glyph unicode="H" glyph-name="H" horiz-adv-x="696" d="M50 29L89 27Q108 27 108 49V548Q108 570 89 569L50 567V597H270V567L221 569H219Q210 569 206 563T201 548V322H495V548Q495 570 476 569L427 567V597H646V567L607 569H605Q597 569 593 563T588 548V49Q588
27 607 27L646 29V0H427V29L476 27Q495 27 495 49V294H201V49Q201 27 221 27L270 29V0H50V29Z" />
<glyph unicode="I" glyph-name="I" horiz-adv-x="310" d="M50 29L89 27Q108 27 108 49V548Q108 557 103 563T89 569L50 567V597H260V567L221 569H219Q211 569 206 563T201 548V49Q201 27 221 27L260 29V0H50V29Z" />
<glyph unicode="J" glyph-name="J" horiz-adv-x="451" d="M24 172H60Q60 114 84 65T165 16Q213 16 234 53T255 179V548Q255 557 250 563T236 569L167 567V597H406V567L368 569H366Q358 569 353 563T348 549V179Q348 -10 181 -10Q150 -10 100 -1Q68 5 59 5H51Q30
5 24 -1V172Z" />
<glyph unicode="K" glyph-name="K" horiz-adv-x="617" d="M593 27T611 30V0H374V30L425 27H428Q445 27 445 38Q445 45 440 52L257 299L201 234V49Q201 27 221 27L270 29V0H50V29L89 27Q108 27 108 49V548Q108 558 103 564T89 569L50 567V597H270V567L221 569Q201
569 201 547V278L416 533Q433 553 433 560Q433 569 423 569L381 567V597H559V567L525 569Q509 570 496 564T467 540L314 365L553 41Q564 27 577 27Q593 27 611 30Z" />
<glyph unicode="L" glyph-name="L" horiz-adv-x="514" d="M50 30L93 27Q108 27 108 49V548Q108 557 103 563T89 569L50 567V597H270V567L221 569H219Q211 569 206 563T201 548V41Q201 28 213 28H326Q395 28 430 64T466 171H492V-3Q474 0 368 0H50V30Z" />
<glyph unicode="M" glyph-name="M" horiz-adv-x="858" d="M808 29V0H588V29L637 27Q657 27 657 49V519L419 -10H395L138 527V49Q138 27 157 27L206 29V0H45V29L84 27Q104 27 104 49V563Q104 570 94 569L52 567V597H206L439 113L658 597H803V567L769 569H767Q759
569 754 563T749 549V49Q749 27 769 27L808 29Z" />
<glyph unicode="N" glyph-name="N" horiz-adv-x="662" d="M617 597V567L578 569H576Q559 569 559 548V-6H529L138 525V49Q138 27 157 27L206 29V0H45V29L84 27Q104 27 104 49V548Q104 557 99 563T84 569L45 567V597H200L525 155V549Q525 569 508 569H505L456 567V597H617Z"
/>
<glyph unicode="O" glyph-name="O" horiz-adv-x="670" d="M45 448T121 527T335 607Q474 607 549 526T625 299Q625 152 549 71T335 -10Q198 -10 122 71T45 299Q45 448 121 527ZM147 149T192 83T335 17Q432 17 477 83T523 299Q523 448 478 514T335 580Q238 580 193
514T147 299Q147 149 192 83Z" />
<glyph unicode="P" glyph-name="P" horiz-adv-x="523" d="M50 29L89 27Q108 27 108 49V547Q108 559 103 564T85 569L50 567V597H285Q389 597 438 558T488 436Q488 357 439 310T306 263H201V49Q201 27 221 27L270 29V0H50V29ZM285 291Q331 291 361 332T392 436Q392
496 359 532T269 569H213Q209 569 205 566T201 557V291H285Z" />
<glyph unicode="Q" glyph-name="Q" horiz-adv-x="670" d="M385 -52T406 -88T465 -145T554 -166L541 -196Q467 -196 409 -172T317 -105T284 -7Q170 8 108 87T45 299Q45 448 121 527T335 607Q474 607 549 526T625 299Q625 166 563 87T385 -7Q385 -52 406 -88ZM147
149T192 83T335 17Q432 17 477 83T523 299Q523 448 478 514T335 580Q238 580 193 514T147 299Q147 149 192 83Z" />
<glyph unicode="R" glyph-name="R" horiz-adv-x="581" d="M50 29L89 27Q108 27 108 49V548Q108 557 103 563T86 569L50 567V597H275Q386 597 436 560T486 438Q486 387 453 350T364 297Q395 297 426 276T479 215T500 122Q500 92 507 61T529 28Q535 26 543 26Q555
26 562 30V0H426Q414 25 412 66Q410 92 410 104V137Q410 212 362 249T243 286H201V49Q201 27 221 27L270 29V0H50V29ZM294 313Q340 313 366 346T392 438Q392 507 364 538T275 569H213Q201 569 201 559V313H294Z" />
<glyph unicode="S" glyph-name="S" horiz-adv-x="494" d="M73 203Q96 18 257 18Q307 18 336 51T367 138Q367 177 341 206T268 254L166 295Q112 317 84 354T56 441Q56 486 77 524T140 584T241 607Q273 607 295 602T340 589T370 578Q386 572 397 572Q415 572 426
576Q423 552 423 501Q423 471 424 458T429 434H403Q403 499 361 539T254 580Q202 580 170 552T138 472Q138 439 161 413T224 370L316 333Q392 302 424 265T457 168Q457 116 432 76T363 13T268 -10Q237 -10 214 -8T165 3Q112 18 86 18Q77 18 67 16T52 13Q56 34 56
96Q56 177 48 203H73Z" />
<glyph unicode="T" glyph-name="T" horiz-adv-x="529" d="M15 600Q29 598 55 598H474Q506 598 514 600V444H488Q488 509 460 539T365 570H323Q313 570 311 559V49Q311 27 331 27L384 29V0H145V29L199 27Q208 27 213 34T218 52V558Q218 570 206 570H165Q99 570
70 540T41 444H15V600Z" />
<glyph unicode="U" glyph-name="U" horiz-adv-x="651" d="M35 597H254V567L205 569H203Q195 569 190 563T185 549V199Q185 115 231 68T362 21Q410 21 449 44T510 107T532 198V548Q532 558 527 564T514 569L465 567V597H626V567L587 569H585Q577 569 572 563T567
549V189Q567 132 538 87T459 16T344 -10Q222 -10 157 43T92 199V548Q92 557 87 563T73 569L35 567V597Z" />
<glyph unicode="V" glyph-name="V" horiz-adv-x="584" d="M604 597V567L568 569Q560 570 557 565T547 546L309 -4H283L46 546Q35 569 23 569L-5 567V597H210V567L157 569Q152 569 149 565T146 554Q146 551 148 545L329 129L503 534Q510 552 510 558Q510 569 498
569L447 567V597H604Z" />
<glyph unicode="W" glyph-name="W" horiz-adv-x="884" d="M904 597V567L874 569Q865 570 859 563T849 548L668 -10H652L446 509L276 -10H257L46 547Q39 569 25 569L-5 567V597H211V567L158 569Q151 569 148 567T145 558L148 547L297 155L427 556Q423 564 419 567T406
569L365 567V597H573V567L531 569Q523 569 521 562T521 547L684 143L814 549L816 557Q816 563 813 566T803 569L751 567V597H904Z" />
<glyph unicode="X" glyph-name="X" horiz-adv-x="566" d="M578 30V0H343V30L392 27H394Q404 27 404 36Q404 44 399 50L273 262L138 47Q135 41 135 36Q135 32 137 29T144 27L189 30V0H30V30L66 28Q87 28 100 50L254 296L103 550Q93 569 71 569L39 567V597H267V567L225
569H223Q216 569 212 566T208 557Q208 553 211 548L320 361L439 549Q444 556 444 561Q444 570 431 569L388 567V597H540V567L509 569Q492 569 478 549L340 328L509 44Q519 26 539 27L578 30Z" />
<glyph unicode="Y" glyph-name="Y" horiz-adv-x="507" d="M517 597V567L487 569Q471 569 459 548L313 287V48Q313 27 333 27L381 29V0H152V29L201 27Q220 27 220 49V263L47 550Q37 569 23 569L-5 567V597H216V567L163 569H162Q151 569 151 559Q151 553 156 545L293
317L424 549Q427 554 427 559Q427 569 417 569L365 567V597H517Z" />
<glyph unicode="Z" glyph-name="Z" horiz-adv-x="512" d="M492 167L484 -4Q472 0 371 0H34V27L355 569H203Q131 569 97 539T62 443H35V600L86 599Q122 597 144 597H464V573L141 27H315Q384 27 424 64T465 167H492Z" />
<glyph unicode="[" glyph-name="bracketleft" horiz-adv-x="256" d="M46 -147V675H223V648H119V-120H223V-147H46Z" />
<glyph unicode="\" glyph-name="backslash" horiz-adv-x="248" d="M-8 626L31 635L250 6L210 -5L-8 626Z" />
<glyph unicode="]" glyph-name="bracketright" horiz-adv-x="256" d="M211 -147H34V-120H138V648H34V675H211V-147Z" />
<glyph unicode="^" glyph-name="asciicircum" horiz-adv-x="460" d="M18 321L219 657H242L442 321H395L250 566L230 608L211 566L64 321H18Z" />
<glyph unicode="_" glyph-name="underscore" horiz-adv-x="493" d="M0 -143H493V-183H0V-143Z" />
<glyph unicode="`" glyph-name="grave" horiz-adv-x="276" d="M35 633T55 643T92 653Q102 653 107 649T128 628L223 524Q226 521 233 513T241 501Q241 493 228 493Q220 493 208 502L45 614Q44 615 40 618T35 627Q35 633 55 643Z" />
<glyph unicode="a" glyph-name="a" horiz-adv-x="450" d="M430 26V0H288Q289 7 290 18T292 37L294 76Q272 33 238 14T155 -5Q92 -5 60 23T27 108Q27 185 91 221T294 258V316Q294 363 272 383T201 403Q125 403 125 361Q125 353 129 343T134 323Q134 306 123 298T95
289Q74 289 63 302T51 336Q51 378 95 404T213 430Q380 430 380 289V43Q380 24 393 24L430 26ZM229 31T260 67T294 162V231Q200 231 159 204T118 116Q118 74 135 53T185 31Q229 31 260 67Z" />
<glyph unicode="b" glyph-name="b" horiz-adv-x="481" d="M21 730H157V342Q194 430 288 430Q461 430 461 209Q461 100 414 45T271 -10Q222 -10 197 6T149 52Q145 61 131 61Q117 61 110 43T103 -5H70V687Q70 707 57 707L21 705V730ZM159 105T185 61T271 17Q310
17 331 34T361 93T370 209Q370 287 363 327T335 385T277 403Q221 403 190 356T159 226V184Q159 105 185 61Z" />
<glyph unicode="c" glyph-name="c" horiz-adv-x="425" d="M273 430T308 417T365 380T387 328Q387 307 376 293T339 278Q304 278 304 308Q304 316 308 328Q313 340 313 351Q313 376 290 389T235 403Q183 403 156 361T129 217Q129 116 157 67T242 17Q292 17 331
45T383 124L407 106Q389 52 346 21T237 -10Q143 -10 90 47T36 206Q36 274 60 324T129 402T232 430Q273 430 308 417Z" />
<glyph unicode="d" glyph-name="d" horiz-adv-x="496" d="M35 318T82 374T224 430Q270 430 299 407T339 348V687Q339 707 326 707L280 705V730H426V43Q426 24 439 24L476 26V0H332Q334 8 334 16V38Q334 51 335 58T336 67Q324 30 298 10T225 -10Q123 -10 79 43T35
209Q35 318 82 374ZM127 136T135 95T165 36T225 17Q286 17 311 57T337 184V226Q337 310 309 356T224 403Q170 403 149 353T127 209Q127 136 135 95Z" />
<glyph unicode="e" glyph-name="e" horiz-adv-x="449" d="M315 430T363 380T414 241V212H126Q126 121 157 73T252 23Q302 23 336 48T387 110L410 93Q390 45 343 18T238 -10Q35 -10 35 209Q35 318 86 374T236 430Q315 430 363 380ZM180 403T154 357T127 237H309Q319
237 324 244T329 270Q329 338 308 370T236 403Q180 403 154 357Z" />
<glyph unicode="f" glyph-name="f" horiz-adv-x="296" d="M35 26L72 24Q85 24 85 43V395H46V420H85V486Q85 736 259 736Q306 736 341 706T377 633Q377 612 365 598T329 584Q294 584 294 613Q294 621 298 633Q303 645 303 657Q303 679 290 694T252 709Q216 709
190 683T164 589Q164 561 167 523Q168 509 169 490T170 449V420H277V395H171V43Q171 24 184 24L250 26V0H35V26Z" />
<glyph unicode="g" glyph-name="g" horiz-adv-x="460" d="M380 447T359 436T324 409Q398 372 398 280Q398 214 351 173T227 131Q185 131 149 146Q115 125 115 102Q115 65 171 65H304Q378 65 415 33T453 -74Q453 -125 424 -164T340 -224T215 -245Q127 -245 80 -211T32
-112Q32 -72 54 -44T122 5Q48 19 48 71Q48 90 58 103T95 138L122 160Q92 179 75 209T57 280Q57 347 104 388T227 430Q269 430 303 418Q328 452 364 478T421 505Q446 505 456 492T467 461Q467 448 458 436T435 424Q423 424 417 427T405 439T390 447Q380 447 359
436ZM274 154T291 182T309 280Q309 347 291 375T227 403Q181 403 164 377T146 280Q146 231 153 204T177 166T227 154Q274 154 291 182ZM189 0Q160 0 135 -16T96 -57T81 -110Q81 -159 114 -189T214 -219Q297 -219 342 -181T387 -81Q387 -40 364 -20T289 0H189Z"
/>
<glyph unicode="h" glyph-name="h" horiz-adv-x="525" d="M505 26V0H310V26L356 24Q369 27 369 43V270Q369 318 365 344T346 384T302 398Q245 398 210 350T171 219V43Q171 24 184 24L230 26V0H35V26L72 24Q85 27 85 43V686Q85 707 72 707L35 705V730H171V330Q192
377 231 403T321 430Q392 430 423 397T455 288V43Q455 24 468 24L505 26Z" />
<glyph unicode="i" glyph-name="i" horiz-adv-x="255" d="M145 643T160 630T176 596Q176 573 161 561T121 548Q97 548 82 560T67 596Q67 617 82 630T121 643Q145 643 160 630ZM171 43Q171 24 184 24L220 26V0H35V26L72 24Q85 24 85 43V376Q85 393 73 396L36 394V420H171V43Z"
/>
<glyph unicode="j" glyph-name="j" horiz-adv-x="251" d="M147 643T162 630T178 596Q178 573 163 561T123 548Q98 548 84 560T69 596Q69 618 84 630T123 643Q147 643 162 630ZM171 -4Q171 -243 28 -243Q-18 -243 -45 -224T-73 -176Q-73 -156 -60 -144T-26 -132Q-14
-132 -3 -138T9 -160Q9 -165 6 -176T3 -191Q3 -203 11 -209T34 -216Q87 -216 87 -133Q87 -128 86 -109T85 -59V376Q85 396 72 396L31 394V420H171V-4Z" />
<glyph unicode="k" glyph-name="k" horiz-adv-x="511" d="M504 26V0H289V26L334 24H336Q343 24 345 28T343 38L204 230L171 202V43Q171 24 184 24L230 26V0H35V26L72 24Q85 27 85 43V686Q85 707 73 707L36 705V730H171V237L334 377Q340 383 340 390Q340 393 338
395T331 397L288 395V420H450V395L414 397Q399 397 383 383L266 283L441 42Q447 34 454 29T468 24L504 26Z" />
<glyph unicode="l" glyph-name="l" horiz-adv-x="255" d="M35 26L72 24Q85 27 85 43V687Q85 704 73 708L36 706V731H171V43Q171 24 184 24L220 26V0H35V26Z" />
<glyph unicode="m" glyph-name="m" horiz-adv-x="801" d="M781 26V0H586V26L632 24Q645 27 645 43V270Q645 318 641 344T622 384T578 398Q525 398 490 350T451 223V43Q451 24 464 24L511 26V0H306V26L352 24Q365 27 365 43V272Q365 324 360 350T340 386T294 397Q243
397 210 351T172 231L171 43Q171 24 184 24L230 26V0H35V26L72 24Q85 27 85 43V376Q85 384 82 390T72 396L35 394V420H177Q172 405 172 386V331Q187 375 225 402T317 430Q374 430 406 406T448 317Q465 372 504 401T597 430Q668 430 699 397T731 288V43Q731 24 744
24L781 26ZM171 203V195V203Z" />
<glyph unicode="n" glyph-name="n" horiz-adv-x="525" d="M505 26V0H310V26L356 24Q369 27 369 43V270Q369 318 365 344T346 384T302 398Q245 398 210 350T171 219V43Q171 24 184 24L230 26V0H35V26L72 24Q85 27 85 43V376Q85 393 72 396L35 394V420H176Q171 405
171 385V330Q192 377 231 403T321 430Q392 430 423 397T455 288V43Q455 24 468 24L505 26Z" />
<glyph unicode="o" glyph-name="o" horiz-adv-x="472" d="M35 313T86 371T236 430Q335 430 386 372T437 211Q437 107 386 49T236 -10Q137 -10 86 48T35 211Q35 313 86 371ZM126 108T151 63T236 17Q295 17 320 62T346 209Q346 311 321 357T236 403Q177 403 152
357T126 209Q126 108 151 63Z" />
<glyph unicode="p" glyph-name="p" horiz-adv-x="494" d="M373 430T416 374T459 209Q459 99 413 45T269 -10Q228 -10 199 3T155 43V-195Q155 -215 168 -215L230 -213V-239H24V-213L56 -215Q69 -214 69 -195V376Q69 396 56 396L20 394V420H159Q155 395 155 369V340Q169
383 203 406T287 430Q373 430 416 374ZM220 403T189 355T157 226V184Q157 97 185 57T269 17Q308 17 329 34T359 93T368 209Q368 284 361 325T333 384T276 403Q220 403 189 355Z" />
<glyph unicode="q" glyph-name="q" horiz-adv-x="490" d="M266 430T292 418T341 375Q346 368 350 365T361 361Q392 361 392 420H425V-195Q425 -215 438 -214L470 -213V-239H270V-213L326 -214Q339 -213 339 -195V62Q328 32 298 11T222 -10Q159 -10 119 9T57 77T35
209Q35 430 224 430Q266 430 292 418ZM176 403T152 359T127 209Q127 128 138 87T171 31T227 17Q265 17 290 44T326 111T337 185V226Q337 296 313 349T231 403Q176 403 152 359Z" />
<glyph unicode="r" glyph-name="r" horiz-adv-x="383" d="M326 430T347 408T369 352Q369 329 358 317T327 305Q313 305 302 312T290 336Q290 345 294 359Q298 373 298 381Q298 389 293 395T275 402Q244 402 221 373T185 300T170 216V43Q170 24 183 24L244 26V0H39V26L71
24Q84 24 84 43V376Q84 396 71 396L35 394V420H176Q174 414 172 401T170 374V325Q193 381 221 405T287 430Q326 430 347 408Z" />
<glyph unicode="s" glyph-name="s" horiz-adv-x="411" d="M49 142L75 144Q75 107 95 78T148 33T220 17Q260 17 282 37T304 93Q304 121 288 139T234 168L138 195Q98 207 75 235T52 306Q52 361 93 395T205 430Q225 430 240 427T279 417Q310 408 325 408Q340 408
353 416L347 302H325Q325 342 294 372T208 403Q170 403 149 383T127 332Q127 283 189 266L285 239Q336 225 357 198T378 126Q378 61 332 26T212 -10Q191 -10 169 -6T100 12Q85 16 73 16Q53 16 44 10L49 142Z" />
<glyph unicode="t" glyph-name="t" horiz-adv-x="313" d="M171 420H281V395H171V88Q171 50 180 37T212 23Q227 23 243 34T264 63L285 50Q265 -6 179 -6Q128 -6 107 18T85 96V395H25V420Q65 420 86 427T119 456T143 522H171V420Z" />
<glyph unicode="u" glyph-name="u" horiz-adv-x="524" d="M489 26V0H347Q352 12 352 72V85Q332 39 292 15T195 -10Q128 -10 99 27T69 148V376Q69 396 56 396L20 394V420H155V148Q155 80 167 52T216 23Q273 23 310 66T352 186L353 375Q353 396 341 396L294 394V420H440V43Q440
24 453 24L489 26ZM353 220V226V220Z" />
<glyph unicode="v" glyph-name="v" horiz-adv-x="444" d="M435 420V394L402 396Q384 396 379 381L221 -5H194L40 383Q38 388 33 392T20 396L-13 394V420H190V394L146 396Q139 396 134 390T131 376L240 112L346 380Q348 384 348 388Q348 397 338 396L294 394V420H435Z" />
<glyph unicode="w" glyph-name="w" horiz-adv-x="725" d="M716 420V394L675 396Q660 396 654 379L505 -10H483L349 302L211 -10H191L50 383Q44 396 33 396L-13 394V420H200V394L156 396H154Q145 396 142 390T141 376L235 111L372 425H393L526 117L621 379L623
387Q623 397 610 396L557 394V420H716Z" />
<glyph unicode="x" glyph-name="x" horiz-adv-x="486" d="M478 26V0H257V26L306 23H307Q313 23 314 28T313 37L211 182L103 38L101 34Q101 24 114 24L157 26V0H5V26L48 24Q59 24 69 37L194 206L69 383Q62 396 50 396L11 394V420H226V394L180 396Q173 396 170 393T171
383L257 261L346 379Q349 384 349 388Q349 396 340 396L297 394V420H446V394L404 396Q399 396 392 392T379 381L274 237L415 37Q424 24 434 24L478 26Z" />
<glyph unicode="y" glyph-name="y" horiz-adv-x="485" d="M482 420V394L441 396H439Q423 396 414 377L203 -132Q179 -191 152 -215T85 -239Q58 -239 40 -226T19 -190Q19 -165 30 -152T58 -139Q73 -139 81 -145T96 -163Q97 -165 101 -170T110 -178T121 -181Q133
-181 145 -170T167 -135L225 4L52 383Q46 396 36 396L-13 394V420H206V394L161 396Q154 396 150 391T149 379L271 111L384 381Q385 383 385 387Q385 396 374 396L327 394V420H482Z" />
<glyph unicode="z" glyph-name="z" horiz-adv-x="441" d="M398 139V0H138L54 -1Q45 -2 34 -2V18L283 395H185Q135 395 105 365T66 280H45L54 422Q57 422 83 421T150 420H388V401L142 25H248Q311 25 344 53T377 139H398Z" />
<glyph unicode="{" glyph-name="braceleft" horiz-adv-x="280" d="M30 277Q70 283 86 301T102 358V582Q102 619 111 638T141 666T201 675H235V645H208Q169 645 169 589V358Q169 327 161 310T132 283T73 267Q113 258 132 249T160 224T169 176V-60Q169 -116 208
-116H235V-146H201Q160 -146 139 -138T110 -110T102 -53V176Q102 207 97 221T77 243T30 257V277Z" />
<glyph unicode="|" glyph-name="bar" horiz-adv-x="232" d="M98 -239V730H134V-239H98Z" />
<glyph unicode="}" glyph-name="braceright" horiz-adv-x="290" d="M227 250T213 243T194 222T188 176V-53Q188 -90 180 -109T151 -137T89 -146H55V-116H82Q121 -116 121 -60V176Q121 207 129 223T157 249T217 267Q178 274 158 283T130 309T121 358V589Q121 645
82 645H55V675H89Q128 675 149 667T179 639T188 582V358Q188 319 204 301T260 277V257Q227 250 213 243Z" />
<glyph unicode="~" glyph-name="asciitilde" horiz-adv-x="460" d="M65 328T131 328Q153 328 175 320T231 295Q263 279 284 271T325 263Q350 263 369 276T411 322L439 293Q417 256 387 236T325 215Q304 215 284 222T226 248Q195 264 173 272T131 280Q105 280 89
270T49 226L22 255Q65 328 131 328Z" />
<glyph unicode="&#xa0;" glyph-name="uni00A0" horiz-adv-x="220" />
<glyph unicode="&#xa1;" glyph-name="exclamdown" horiz-adv-x="269" d="M140 445T159 428T179 388Q179 364 161 347T115 330Q88 330 69 346T50 387Q50 411 69 428T114 445Q140 445 159 428ZM126 234T126 218Q126 152 133 83T152 -79Q164 -166 164 -193Q164 -216
151 -229T114 -242Q91 -242 78 -229T65 -193Q65 -168 77 -82Q89 12 96 82T103 218Q103 234 115 234Q126 234 126 218Z" />
<glyph unicode="&#xa2;" glyph-name="cent" horiz-adv-x="394" d="M331 128T243 117V-95H206V115Q131 117 87 161T42 288Q42 371 87 418T206 467V647H243V465Q288 459 317 437T346 384Q346 366 335 353T302 340Q286 340 276 347T266 369Q266 375 270 385T274 404Q274
423 257 433T216 443Q176 443 155 410T134 298Q134 215 157 178T226 140Q264 140 294 160T336 222L358 209Q331 128 243 117Z" />
<glyph unicode="&#xa3;" glyph-name="sterling" horiz-adv-x="507" d="M464 168L454 -3L421 -2Q395 0 376 0H120Q90 0 30 -3L28 1Q68 26 92 68T116 156V306H36V329H116V410Q116 513 157 560T292 607Q345 607 381 582T417 520Q417 504 405 492T376 480Q360 480
348 490T335 514Q335 521 339 531T343 547Q343 584 286 584Q246 584 221 558T195 487Q195 481 201 433Q202 423 206 389T212 329H331V306H212V226Q212 182 194 142T150 73H308Q361 73 389 81T428 110T439 168H464Z" />
<glyph unicode="&#xa4;" glyph-name="currency" horiz-adv-x="443" d="M393 200T353 155L401 106L378 83L330 132Q283 94 222 94Q161 94 114 133L65 84L42 107L91 156Q52 205 52 265Q52 325 90 373L43 420L66 443L113 396Q136 415 164 425T222 435Q286 435 332
395L379 442L402 419L354 372Q393 327 393 265Q393 200 353 155ZM260 126T292 144T342 195T361 265Q361 302 343 333T292 384T222 403Q184 403 152 384T102 334T83 265Q83 227 101 195T152 145T222 126Q260 126 292 144Z" />
<glyph unicode="&#xa5;" glyph-name="yen" horiz-adv-x="507" d="M517 597V567L487 569Q471 569 459 548L343 341H445V312H327L313 287V231H445V202H313V48Q313 27 333 27L381 29V0H152V29L201 27Q220 27 220 49V202H88V231H220V263L190 312H88V341H173L47 550Q37
569 23 569L-5 567V597H216V567L163 569H162Q151 569 151 559Q151 553 156 545L293 317L424 549Q427 554 427 559Q427 569 417 569L365 567V597H517Z" />
<glyph unicode="&#xa6;" glyph-name="brokenbar" horiz-adv-x="232" d="M97 265V607H135V265H97ZM97 113H135V-231H97V113Z" />
<glyph unicode="&#xa7;" glyph-name="section" horiz-adv-x="437" d="M350 77T365 52T380 -4Q380 -63 332 -99T205 -135Q139 -135 98 -110T56 -43Q56 -17 71 -2T108 14Q125 14 137 4T150 -23Q150 -36 139 -49Q130 -60 130 -68Q130 -87 157 -99T215 -112Q252 -112
278 -92T305 -37Q305 -11 291 6T247 44L123 129Q76 161 56 188T35 254Q35 335 126 367Q92 395 77 420T62 476Q62 535 110 571T237 607Q303 607 344 582T386 515Q386 489 371 474T334 458Q317 458 305 468T292 495Q292 508 303 521Q312 532 312 540Q312 559 285
571T227 584Q190 584 164 564T137 509Q137 483 151 466T195 428L319 343Q366 311 386 284T407 218Q407 137 316 105Q350 77 365 52ZM295 122Q321 133 331 147T342 182Q342 200 333 214T299 245L171 333L147 350Q121 339 111 325T100 290Q100 272 109 258T143 227L271
139L295 122Z" />
<glyph unicode="&#xa8;" glyph-name="dieresis" horiz-adv-x="373" d="M35 616T50 630T89 644Q111 644 127 630T143 595Q143 574 128 561T89 547Q65 547 50 560T35 595Q35 616 50 630ZM230 616T245 630T284 644Q306 644 322 630T338 595Q338 574 323 561T284 547Q260
547 245 560T230 595Q230 616 245 630Z" />
<glyph unicode="&#xa9;" glyph-name="copyright" horiz-adv-x="723" d="M53 382T94 453T206 565T361 607Q445 607 516 566T628 453T670 298Q670 214 629 143T516 31T361 -10Q276 -10 206 31T94 142T53 298Q53 382 94 453ZM85 221T121 158T220 57T360 20Q437 20
500 57T599 157T636 298Q636 375 600 439T500 540T360 577Q283 577 220 540T121 439T85 298Q85 221 121 158ZM193 381T239 426T368 471Q391 471 407 468T441 457Q452 453 464 450T488 447Q486 423 486 406Q486 377 488 375H469Q462 406 435 428T376 451Q330 451
306 413T281 299Q281 227 306 190T378 153Q414 153 439 174T471 229H493L490 182Q490 170 492 156H488Q470 156 437 145Q395 131 365 131Q285 131 239 176T193 299Q193 381 239 426Z" />
<glyph unicode="&#xaa;" glyph-name="ordfeminine" horiz-adv-x="350" d="M44 459T84 482T210 505V542Q210 592 158 592Q138 592 130 589T120 580T117 558Q117 529 87 529Q55 529 55 561Q55 586 81 600T158 615Q216 615 243 594T270 527V380Q270 373 276 373L306
374V350H211L214 397Q192 342 128 342Q44 342 44 411Q44 459 84 482ZM107 395T117 384T145 373Q171 373 190 397T210 457V482Q156 482 132 466T107 416Q107 395 117 384Z" />
<glyph unicode="&#xab;" glyph-name="guillemotleft" horiz-adv-x="428" d="M193 187L342 358H378L280 187L378 16H342L193 187ZM281 187L430 358H466L368 187L466 16H430L281 187Z" />
<glyph unicode="&#xac;" glyph-name="logicalnot" horiz-adv-x="460" d="M20 319V360H440V146H397V319H20Z" />
<glyph unicode="&#xad;" glyph-name="uni00AD" horiz-adv-x="250" d="M22 189V244H228V189H22Z" />
<glyph unicode="&#xae;" glyph-name="registered" horiz-adv-x="492" d="M300 607T346 582T419 513T446 413Q446 359 419 315T346 246T246 220Q191 220 145 245T73 315T46 413Q46 468 72 512T145 582T246 607Q300 607 346 582ZM197 581T158 560T97 500T75 413Q75
365 97 327T158 268T245 246Q293 246 332 267T393 327T416 413Q416 462 394 500T332 559T245 581Q197 581 158 560ZM253 514Q292 514 311 503T330 466Q330 444 315 430T274 411Q297 411 316 396T335 356Q335 328 355 334V317H318Q277 317 277 348V362Q277 381 266
390T238 400H228V342Q228 335 235 335H252V317H151V335H163Q169 335 169 342V489Q169 496 161 496H151V514H253ZM233 496Q228 496 228 493V419H247Q259 419 265 430T272 459Q272 496 242 496H233Z" />
<glyph unicode="&#xaf;" glyph-name="overscore" horiz-adv-x="447" d="M104 567V607H343V567H104Z" />
<glyph unicode="&#xb0;" glyph-name="degree" horiz-adv-x="374" d="M89 550T118 578T187 607Q228 607 256 579T285 509Q285 469 257 440T187 411Q147 411 118 440T89 509Q89 550 118 578ZM131 486T147 470T187 453Q210 453 226 469T243 509Q243 532 227 548T187
565Q164 565 148 549T131 509Q131 486 147 470Z" />
<glyph unicode="&#xb1;" glyph-name="plusminus" horiz-adv-x="460" d="M20 274V315H207V506H252V315H440V274H252V80H207V274H20ZM20 0V41H440V0H20Z" />
<glyph unicode="&#xb2;" glyph-name="uni00B2" horiz-adv-x="262" d="M241 480Q236 461 234 438T231 401Q223 403 200 403H29L27 447L85 493Q131 531 147 555T163 613Q163 660 125 660Q111 660 102 654T93 638Q93 634 95 624T98 609Q98 597 88 590T63 583Q45 583
35 593T25 619Q25 644 53 661T128 678Q176 678 207 660T238 607Q238 586 229 570T197 536T126 488L70 454H165Q193 454 205 459T221 480H241Z" />
<glyph unicode="&#xb3;" glyph-name="uni00B3" horiz-adv-x="250" d="M67 553Q101 553 126 571T152 621Q152 638 143 649T115 660Q102 660 93 654T84 638Q84 634 86 628T88 616Q88 603 78 597T53 590Q35 590 26 600T16 623Q16 649 47 663T122 678Q167 678 197
663T227 619Q227 591 200 573T129 550V547Q184 546 214 529T244 479Q244 443 208 420T115 397Q70 397 40 412T9 453Q9 467 19 476T47 486Q62 486 71 479T81 459Q81 454 79 449T77 438Q77 426 88 421T114 416Q140 416 155 432T170 475Q170 505 148 518T67 537V553Z"
/>
<glyph unicode="&#xb4;" glyph-name="acute" horiz-adv-x="276" d="M241 621T237 618T231 614L68 502Q56 493 48 493Q35 493 35 501Q35 505 42 513T53 524L148 628Q163 645 168 649T184 653Q201 653 221 643T241 627Q241 621 237 618Z" />
<glyph unicode="&#xb5;" glyph-name="uni00B5" horiz-adv-x="536" d="M501 26V0H359Q365 17 365 73V87Q347 43 311 17T224 -10Q209 -10 192 -5T165 9V-195Q165 -211 179 -214L225 -213V-239H20V-213L66 -214Q78 -213 81 -195V377Q81 396 68 396L32 394V420H167V148Q167
80 179 52T228 23Q290 23 327 73T365 211V375Q365 396 353 396L306 394V420H452V43Q452 24 465 24L501 26Z" />
<glyph unicode="&#xb6;" glyph-name="paragraph" horiz-adv-x="499" d="M30 514T82 555T228 597H478V566H377V-269H342V566H301Q263 566 263 528V-269H228V288Q134 288 82 328T30 442Q30 514 82 555Z" />
<glyph unicode="&#xb7;" glyph-name="middot" horiz-adv-x="250" d="M60 210T78 226T125 242Q153 242 171 226T190 184Q190 158 172 143T125 127Q97 127 79 142T60 184Q60 210 78 226Z" />
<glyph unicode="&#xb8;" glyph-name="cedilla" horiz-adv-x="233" d="M42 -174Q54 -187 77 -187Q100 -187 116 -172T133 -133Q133 -112 99 -94L76 -80Q65 -72 65 -65Q65 -58 71 -52L112 0H145L118 -43Q112 -54 112 -62Q112 -68 119 -71T142 -78Q169 -84 183 -93T198
-122Q198 -165 174 -189T104 -214Q60 -214 35 -198L42 -174Z" />
<glyph unicode="&#xb9;" glyph-name="uni00B9" horiz-adv-x="187" d="M137 433Q137 424 145 424H171V403H33V424H59Q68 424 68 433V613Q68 617 66 619T59 620L29 612L23 635Q53 641 77 653T126 682H137V433Z" />
<glyph unicode="&#xba;" glyph-name="ordmasculine" horiz-adv-x="351" d="M44 545T79 581T175 618Q236 618 271 582T307 480Q307 416 273 380T175 344Q111 344 78 382T44 480Q44 545 79 581ZM115 417T126 393T175 368Q198 368 211 377T230 410T236 480Q236 545
223 569T175 594Q140 594 128 569T115 480Q115 417 126 393Z" />
<glyph unicode="&#xbb;" glyph-name="guillemotright" horiz-adv-x="433" d="M235 187L86 16H50L148 187L50 358H86L235 187ZM407 187L258 16H222L320 187L222 358H258L407 187Z" />
<glyph unicode="&#xbc;" glyph-name="onequarter" horiz-adv-x="559" d="M58 541L52 564Q82 570 106 582T155 611H166V362Q166 353 174 353H200V332H62V353H88Q97 353 97 362V542Q97 546 95 548T88 549L58 541ZM479 605L513 585L84 -18L51 5L479 605ZM483 65V30Q483
21 492 21H512V0H372V21H405Q414 21 414 30V65H287V98L450 274H483V102H519V65H483ZM324 102H414V198L324 102Z" />
<glyph unicode="&#xbd;" glyph-name="onehalf" horiz-adv-x="580" d="M51 5L479 605L513 585L84 -18L51 5ZM166 618Q166 609 174 609H200V588H62V609H88Q97 609 97 618V798Q97 802 95 804T88 805L58 797L52 820Q82 826 106 838T155 867H166V618ZM553 77Q548 58
546 35T543 -2Q535 0 512 0H341L339 44L397 90Q443 128 459 152T475 210Q475 257 437 257Q423 257 414 251T405 235Q405 231 407 221T410 206Q410 194 400 187T375 180Q357 180 347 190T337 216Q337 241 365 258T440 275Q488 275 519 257T550 204Q550 183 541 167T509
133T438 85L382 51H477Q505 51 517 56T533 77H553Z" />
<glyph unicode="&#xbe;" glyph-name="threequarters" horiz-adv-x="559" d="M268 372T232 349T139 326Q94 326 64 341T33 382Q33 396 43 405T71 415Q86 415 95 408T105 388Q105 383 103 378T101 367Q101 355 112 350T138 345Q164 345 179 361T194 404Q194 434
172 447T91 466V482Q125 482 150 500T176 550Q176 567 167 578T139 589Q126 589 117 583T108 567Q108 563 110 557T112 545Q112 532 102 526T77 519Q59 519 50 529T40 552Q40 578 71 592T146 607Q191 607 221 592T251 548Q251 520 224 502T153 479V476Q208 475
238 458T268 408Q268 372 232 349ZM489 605L523 585L94 -18L61 5L489 605ZM493 65V30Q493 21 502 21H522V0H382V21H415Q424 21 424 30V65H297V98L460 274H493V102H529V65H493ZM334 102H424V198L334 102Z" />
<glyph unicode="&#xbf;" glyph-name="questiondown" horiz-adv-x="400" d="M245 445T265 431T285 390Q285 365 267 348T220 330Q194 330 175 345T155 387Q155 414 174 429T219 445Q245 445 265 431ZM204 211T229 194T273 154T291 108Q291 83 272 58T212 -9Q170
-51 149 -80T127 -138Q127 -167 151 -187T223 -208Q257 -208 281 -197T306 -166Q306 -160 302 -149T297 -131Q297 -116 307 -110T333 -103Q357 -103 368 -117T380 -150Q380 -190 329 -212T207 -235Q129 -235 83 -206T36 -126Q36 -88 60 -59T132 8Q176 44 197 69T218
125Q218 146 207 165T171 197L183 216Q204 211 229 194Z" />
<glyph unicode="&#xc0;" glyph-name="Agrave" horiz-adv-x="601" d="M621 29V0H356V29L405 27Q435 24 435 51Q435 68 425 90L376 208H143L97 96Q83 65 83 46Q83 25 105 26L153 29V0H-20V29L6 27H10Q30 27 43 46Q58 68 73 104L282 607H308L519 102Q533 66 548 45Q562
27 583 27H588L621 29ZM155 236H364L259 488L155 236ZM164 806T184 816T221 826Q231 826 236 822T257 801L352 697Q355 694 362 686T370 674Q370 666 357 666Q349 666 337 675L174 787Q173 788 169 791T164 800Q164 806 184 816Z" />
<glyph unicode="&#xc1;" glyph-name="Aacute" horiz-adv-x="601" d="M621 29V0H356V29L405 27Q435 24 435 51Q435 68 425 90L376 208H143L97 96Q83 65 83 46Q83 25 105 26L153 29V0H-20V29L6 27H10Q30 27 43 46Q58 68 73 104L282 607H308L519 102Q533 66 548 45Q562
27 583 27H588L621 29ZM155 236H364L259 488L155 236ZM439 794T435 791T429 787L266 675Q254 666 246 666Q233 666 233 674Q233 678 240 686T251 697L346 801Q361 818 366 822T382 826Q399 826 419 816T439 800Q439 794 435 791Z" />
<glyph unicode="&#xc2;" glyph-name="Acircumflex" horiz-adv-x="601" d="M621 29V0H356V29L405 27Q435 24 435 51Q435 68 425 90L376 208H143L97 96Q83 65 83 46Q83 25 105 26L153 29V0H-20V29L6 27H10Q30 27 43 46Q58 68 73 104L282 607H308L519 102Q533 66
548 45Q562 27 583 27H588L621 29ZM155 236H364L259 488L155 236ZM457 666T448 666Q439 666 420 678L301 752L182 678Q163 666 154 666Q145 666 145 674Q145 677 152 684T170 699Q205 729 224 749L247 773L271 797Q298 822 301 822Q304 822 331 797L355 773L378
749Q397 729 432 699Q442 691 449 684T457 674Q457 666 448 666Z" />
<glyph unicode="&#xc3;" glyph-name="Atilde" horiz-adv-x="601" d="M621 29V0H356V29L405 27Q435 24 435 51Q435 68 425 90L376 208H143L97 96Q83 65 83 46Q83 25 105 26L153 29V0H-20V29L6 27H10Q30 27 43 46Q58 68 73 104L282 607H308L519 102Q533 66 548 45Q562
27 583 27H588L621 29ZM155 236H364L259 488L155 236ZM158 713T176 740T222 767Q246 767 310 745Q371 724 391 724Q405 724 414 736T424 766H444Q444 729 426 702T380 675Q356 675 292 697Q233 718 211 718Q197 718 188 706T178 676H158Q158 713 176 740Z" />
<glyph unicode="&#xc4;" glyph-name="Adieresis" horiz-adv-x="601" d="M621 29V0H356V29L405 27Q435 24 435 51Q435 68 425 90L376 208H143L97 96Q83 65 83 46Q83 25 105 26L153 29V0H-20V29L6 27H10Q30 27 43 46Q58 68 73 104L282 607H308L519 102Q533 66 548
45Q562 27 583 27H588L621 29ZM155 236H364L259 488L155 236ZM149 765T164 779T203 793Q225 793 241 779T257 744Q257 723 242 710T203 696Q179 696 164 709T149 744Q149 765 164 779ZM344 765T359 779T398 793Q420 793 436 779T452 744Q452 723 437 710T398 696Q374
696 359 709T344 744Q344 765 359 779Z" />
<glyph unicode="&#xc5;" glyph-name="Aring" horiz-adv-x="601" d="M621 29V0H356V29L405 27Q435 24 435 51Q435 68 425 90L376 208H143L97 96Q83 65 83 46Q83 25 105 26L153 29V0H-20V29L6 27H10Q30 27 43 46Q58 68 73 104L282 607H308L519 102Q533 66 548 45Q562
27 583 27H588L621 29ZM155 236H364L259 488L155 236ZM217 782T241 805T300 829Q335 829 359 806T384 748Q384 714 360 690T300 666Q266 666 242 690T217 748Q217 782 241 805ZM259 727T270 715T300 702Q319 702 330 714T342 748Q342 768 331 780T300 793Q281 793
270 781T259 748Q259 727 270 715Z" />
<glyph unicode="&#xc6;" glyph-name="AE" horiz-adv-x="847" d="M783 443H757Q757 508 723 538T615 569H451L496 324H579Q612 324 633 352T655 426H681V195H655Q655 240 634 268T579 297H500L548 46Q553 27 569 27H635Q776 27 776 171H803V-3Q767 0 715 0H370V30L427
27Q439 26 445 34T449 52L420 208H174L98 80Q84 54 84 42Q84 26 104 27L155 30V0H-20V30L11 27Q24 25 36 38T71 86L350 543Q352 546 352 551Q352 558 347 562T335 567L284 565V597H749Q769 597 783 599V443ZM362 515L190 236H414L362 515Z" />
<glyph unicode="&#xc7;" glyph-name="Ccedilla" horiz-adv-x="607" d="M556 120T556 82Q556 53 559 35H553Q539 35 520 31T490 22T473 17Q435 4 404 -3T340 -10H323L302 -43Q296 -54 296 -62Q296 -68 303 -71T326 -78Q353 -84 367 -93T382 -122Q382 -165 358 -189T288
-214Q244 -214 219 -198L226 -174Q238 -187 261 -187Q284 -187 300 -172T317 -133Q317 -112 283 -94L260 -80Q249 -72 249 -65Q249 -58 255 -52L291 -7Q176 7 111 87T45 295Q45 442 124 524T345 607Q382 607 406 601T467 583Q492 574 510 569T553 564Q549 533 549
489Q549 468 550 452T553 433H529Q520 474 492 508T424 562T340 582Q281 582 238 547T171 446T147 295Q147 214 171 151T241 52T345 17Q414 17 467 59T534 167H562Q556 120 556 82Z" />
<glyph unicode="&#xc8;" glyph-name="Egrave" horiz-adv-x="563" d="M50 30L90 27Q108 27 108 49V548Q108 557 103 563T88 569L50 567V597H472Q486 597 489 598V443H462Q462 510 429 539T320 569H213Q201 569 201 555V325H295Q329 325 350 352T371 426H398V195H371Q371
239 349 268T295 297H201V41Q201 28 213 28H353Q421 28 456 67T492 179H519V-3Q497 0 431 0H50V30ZM145 806T165 816T202 826Q212 826 217 822T238 801L333 697Q336 694 343 686T351 674Q351 666 338 666Q330 666 318 675L155 787Q154 788 150 791T145 800Q145
806 165 816Z" />
<glyph unicode="&#xc9;" glyph-name="Eacute" horiz-adv-x="563" d="M50 30L90 27Q108 27 108 49V548Q108 557 103 563T88 569L50 567V597H472Q486 597 489 598V443H462Q462 510 429 539T320 569H213Q201 569 201 555V325H295Q329 325 350 352T371 426H398V195H371Q371
239 349 268T295 297H201V41Q201 28 213 28H353Q421 28 456 67T492 179H519V-3Q497 0 431 0H50V30ZM420 794T416 791T410 787L247 675Q235 666 227 666Q214 666 214 674Q214 678 221 686T232 697L327 801Q342 818 347 822T363 826Q380 826 400 816T420 800Q420
794 416 791Z" />
<glyph unicode="&#xca;" glyph-name="Ecircumflex" horiz-adv-x="563" d="M50 30L90 27Q108 27 108 49V548Q108 557 103 563T88 569L50 567V597H472Q486 597 489 598V443H462Q462 510 429 539T320 569H213Q201 569 201 555V325H295Q329 325 350 352T371 426H398V195H371Q371
239 349 268T295 297H201V41Q201 28 213 28H353Q421 28 456 67T492 179H519V-3Q497 0 431 0H50V30ZM438 666T429 666Q420 666 401 678L282 752L163 678Q144 666 135 666Q126 666 126 674Q126 677 133 684T151 699Q186 729 205 749L228 773L252 797Q279 822 282
822Q285 822 312 797L336 773L359 749Q378 729 413 699Q423 691 430 684T438 674Q438 666 429 666Z" />
<glyph unicode="&#xcb;" glyph-name="Edieresis" horiz-adv-x="563" d="M50 30L90 27Q108 27 108 49V548Q108 557 103 563T88 569L50 567V597H472Q486 597 489 598V443H462Q462 510 429 539T320 569H213Q201 569 201 555V325H295Q329 325 350 352T371 426H398V195H371Q371
239 349 268T295 297H201V41Q201 28 213 28H353Q421 28 456 67T492 179H519V-3Q497 0 431 0H50V30ZM130 765T145 779T184 793Q206 793 222 779T238 744Q238 723 223 710T184 696Q160 696 145 709T130 744Q130 765 145 779ZM325 765T340 779T379 793Q401 793 417
779T433 744Q433 723 418 710T379 696Q355 696 340 709T325 744Q325 765 340 779Z" />
<glyph unicode="&#xcc;" glyph-name="Igrave" horiz-adv-x="310" d="M50 29L89 27Q108 27 108 49V548Q108 557 103 563T89 569L50 567V597H260V567L221 569H219Q211 569 206 563T201 548V49Q201 27 221 27L260 29V0H50V29ZM274 806T294 816T331 826Q341 826 346
822T367 801L462 697Q465 694 472 686T480 674Q480 666 467 666Q459 666 447 675L284 787Q283 788 279 791T274 800Q274 806 294 816Z" />
<glyph unicode="&#xcd;" glyph-name="Iacute" horiz-adv-x="310" d="M50 29L89 27Q108 27 108 49V548Q108 557 103 563T89 569L50 567V597H260V567L221 569H219Q211 569 206 563T201 548V49Q201 27 221 27L260 29V0H50V29ZM293 794T289 791T283 787L120 675Q108
666 100 666Q87 666 87 674Q87 678 94 686T105 697L200 801Q215 818 220 822T236 826Q253 826 273 816T293 800Q293 794 289 791Z" />
<glyph unicode="&#xce;" glyph-name="Icircumflex" horiz-adv-x="310" d="M50 29L89 27Q108 27 108 49V548Q108 557 103 563T89 569L50 567V597H260V567L221 569H219Q211 569 206 563T201 548V49Q201 27 221 27L260 29V0H50V29ZM567 666T558 666Q549 666 530 678L411
752L292 678Q273 666 264 666Q255 666 255 674Q255 677 262 684T280 699Q315 729 334 749L357 773L381 797Q408 822 411 822Q414 822 441 797L465 773L488 749Q507 729 542 699Q552 691 559 684T567 674Q567 666 558 666Z" />
<glyph unicode="&#xcf;" glyph-name="Idieresis" horiz-adv-x="310" d="M50 29L89 27Q108 27 108 49V548Q108 557 103 563T89 569L50 567V597H260V567L221 569H219Q211 569 206 563T201 548V49Q201 27 221 27L260 29V0H50V29ZM3 765T18 779T57 793Q79 793 95 779T111
744Q111 723 96 710T57 696Q33 696 18 709T3 744Q3 765 18 779ZM198 765T213 779T252 793Q274 793 290 779T306 744Q306 723 291 710T252 696Q228 696 213 709T198 744Q198 765 213 779Z" />
<glyph unicode="&#xd0;" glyph-name="Eth" horiz-adv-x="631" d="M435 597T511 528T588 299Q588 0 287 0H50V29L93 27Q108 27 108 49V293H42V329H108V548Q108 557 103 563T89 569L50 567V597H275Q435 597 511 528ZM342 28T391 54T463 140T486 298Q486 397 464
456T391 542T258 569H213Q201 569 201 556V329H391V293H201V41Q201 28 213 28H258Q342 28 391 54Z" />
<glyph unicode="&#xd1;" glyph-name="Ntilde" horiz-adv-x="662" d="M617 597V567L578 569H576Q559 569 559 548V-6H529L138 525V49Q138 27 157 27L206 29V0H45V29L84 27Q104 27 104 49V548Q104 557 99 563T84 569L45 567V597H200L525 155V549Q525 569 508 569H505L456
567V597H617ZM188 713T206 740T252 767Q276 767 340 745Q401 724 421 724Q435 724 444 736T454 766H474Q474 729 456 702T410 675Q386 675 322 697Q263 718 241 718Q227 718 218 706T208 676H188Q188 713 206 740Z" />
<glyph unicode="&#xd2;" glyph-name="Ograve" horiz-adv-x="670" d="M45 448T121 527T335 607Q474 607 549 526T625 299Q625 152 549 71T335 -10Q198 -10 122 71T45 299Q45 448 121 527ZM147 149T192 83T335 17Q432 17 477 83T523 299Q523 448 478 514T335 580Q238
580 193 514T147 299Q147 149 192 83ZM198 806T218 816T255 826Q265 826 270 822T291 801L386 697Q389 694 396 686T404 674Q404 666 391 666Q383 666 371 675L208 787Q207 788 203 791T198 800Q198 806 218 816Z" />
<glyph unicode="&#xd3;" glyph-name="Oacute" horiz-adv-x="670" d="M45 448T121 527T335 607Q474 607 549 526T625 299Q625 152 549 71T335 -10Q198 -10 122 71T45 299Q45 448 121 527ZM147 149T192 83T335 17Q432 17 477 83T523 299Q523 448 478 514T335 580Q238
580 193 514T147 299Q147 149 192 83ZM473 794T469 791T463 787L300 675Q288 666 280 666Q267 666 267 674Q267 678 274 686T285 697L380 801Q395 818 400 822T416 826Q433 826 453 816T473 800Q473 794 469 791Z" />
<glyph unicode="&#xd4;" glyph-name="Ocircumflex" horiz-adv-x="670" d="M45 448T121 527T335 607Q474 607 549 526T625 299Q625 152 549 71T335 -10Q198 -10 122 71T45 299Q45 448 121 527ZM147 149T192 83T335 17Q432 17 477 83T523 299Q523 448 478 514T335
580Q238 580 193 514T147 299Q147 149 192 83ZM491 666T482 666Q473 666 454 678L335 752L216 678Q197 666 188 666Q179 666 179 674Q179 677 186 684T204 699Q239 729 258 749L281 773L305 797Q332 822 335 822Q338 822 365 797L389 773L412 749Q431 729 466 699Q476
691 483 684T491 674Q491 666 482 666Z" />
<glyph unicode="&#xd5;" glyph-name="Otilde" horiz-adv-x="670" d="M45 448T121 527T335 607Q474 607 549 526T625 299Q625 152 549 71T335 -10Q198 -10 122 71T45 299Q45 448 121 527ZM147 149T192 83T335 17Q432 17 477 83T523 299Q523 448 478 514T335 580Q238
580 193 514T147 299Q147 149 192 83ZM192 713T210 740T256 767Q280 767 344 745Q405 724 425 724Q439 724 448 736T458 766H478Q478 729 460 702T414 675Q390 675 326 697Q267 718 245 718Q231 718 222 706T212 676H192Q192 713 210 740Z" />
<glyph unicode="&#xd6;" glyph-name="Odieresis" horiz-adv-x="670" d="M45 448T121 527T335 607Q474 607 549 526T625 299Q625 152 549 71T335 -10Q198 -10 122 71T45 299Q45 448 121 527ZM147 149T192 83T335 17Q432 17 477 83T523 299Q523 448 478 514T335
580Q238 580 193 514T147 299Q147 149 192 83ZM183 765T198 779T237 793Q259 793 275 779T291 744Q291 723 276 710T237 696Q213 696 198 709T183 744Q183 765 198 779ZM378 765T393 779T432 793Q454 793 470 779T486 744Q486 723 471 710T432 696Q408 696 393
709T378 744Q378 765 393 779Z" />
<glyph unicode="&#xd7;" glyph-name="multiply" horiz-adv-x="460" d="M64 131L202 268L66 403L95 432L229 296L366 433L396 404L259 268L396 130L368 102L230 239L94 103L64 131Z" />
<glyph unicode="&#xd8;" glyph-name="Oslash" horiz-adv-x="664" d="M566 522T595 456T625 299Q625 152 549 71T335 -10Q252 -10 192 20L126 -92L89 -75L157 40Q103 79 74 144T45 299Q45 448 121 527T335 607Q414 607 474 580L535 685L572 665L510 560Q566 522
595 456ZM147 159T187 92L452 543Q409 580 335 580Q238 580 193 514T147 299Q147 159 187 92ZM432 17T477 83T523 299Q523 442 481 510L214 57Q258 17 335 17Q432 17 477 83Z" />
<glyph unicode="&#xd9;" glyph-name="Ugrave" horiz-adv-x="651" d="M35 597H254V567L205 569H203Q195 569 190 563T185 549V199Q185 115 231 68T362 21Q410 21 449 44T510 107T532 198V548Q532 558 527 564T514 569L465 567V597H626V567L587 569H585Q577 569
572 563T567 549V189Q567 132 538 87T459 16T344 -10Q222 -10 157 43T92 199V548Q92 557 87 563T73 569L35 567V597ZM199 806T219 816T256 826Q266 826 271 822T292 801L387 697Q390 694 397 686T405 674Q405 666 392 666Q384 666 372 675L209 787Q208 788 204
791T199 800Q199 806 219 816Z" />
<glyph unicode="&#xda;" glyph-name="Uacute" horiz-adv-x="651" d="M35 597H254V567L205 569H203Q195 569 190 563T185 549V199Q185 115 231 68T362 21Q410 21 449 44T510 107T532 198V548Q532 558 527 564T514 569L465 567V597H626V567L587 569H585Q577 569
572 563T567 549V189Q567 132 538 87T459 16T344 -10Q222 -10 157 43T92 199V548Q92 557 87 563T73 569L35 567V597ZM474 794T470 791T464 787L301 675Q289 666 281 666Q268 666 268 674Q268 678 275 686T286 697L381 801Q396 818 401 822T417 826Q434 826 454
816T474 800Q474 794 470 791Z" />
<glyph unicode="&#xdb;" glyph-name="Ucircumflex" horiz-adv-x="651" d="M35 597H254V567L205 569H203Q195 569 190 563T185 549V199Q185 115 231 68T362 21Q410 21 449 44T510 107T532 198V548Q532 558 527 564T514 569L465 567V597H626V567L587 569H585Q577
569 572 563T567 549V189Q567 132 538 87T459 16T344 -10Q222 -10 157 43T92 199V548Q92 557 87 563T73 569L35 567V597ZM492 666T483 666Q474 666 455 678L336 752L217 678Q198 666 189 666Q180 666 180 674Q180 677 187 684T205 699Q240 729 259 749L282 773L306
797Q333 822 336 822Q339 822 366 797L390 773L413 749Q432 729 467 699Q477 691 484 684T492 674Q492 666 483 666Z" />
<glyph unicode="&#xdc;" glyph-name="Udieresis" horiz-adv-x="651" d="M35 597H254V567L205 569H203Q195 569 190 563T185 549V199Q185 115 231 68T362 21Q410 21 449 44T510 107T532 198V548Q532 558 527 564T514 569L465 567V597H626V567L587 569H585Q577 569
572 563T567 549V189Q567 132 538 87T459 16T344 -10Q222 -10 157 43T92 199V548Q92 557 87 563T73 569L35 567V597ZM184 765T199 779T238 793Q260 793 276 779T292 744Q292 723 277 710T238 696Q214 696 199 709T184 744Q184 765 199 779ZM379 765T394 779T433
793Q455 793 471 779T487 744Q487 723 472 710T433 696Q409 696 394 709T379 744Q379 765 394 779Z" />
<glyph unicode="&#xdd;" glyph-name="Yacute" horiz-adv-x="507" d="M517 597V567L487 569Q471 569 459 548L313 287V48Q313 27 333 27L381 29V0H152V29L201 27Q220 27 220 49V263L47 550Q37 569 23 569L-5 567V597H216V567L163 569H162Q151 569 151 559Q151 553
156 545L293 317L424 549Q427 554 427 559Q427 569 417 569L365 567V597H517ZM402 794T398 791T392 787L229 675Q217 666 209 666Q196 666 196 674Q196 678 203 686T214 697L309 801Q324 818 329 822T345 826Q362 826 382 816T402 800Q402 794 398 791Z" />
<glyph unicode="&#xde;" glyph-name="Thorn" horiz-adv-x="524" d="M50 29L89 27H91Q100 27 104 33T108 49V548Q108 557 103 563T89 569L50 567V597H270V567L221 569Q212 569 207 563T201 548V496H283Q389 496 439 457T489 334Q489 255 440 209T304 162H201V49Q201
26 221 27L270 29V0H50V29ZM201 196T205 192T214 188H283Q312 188 337 207T378 260T393 334Q393 396 359 433T267 471H201V201Q201 196 205 192Z" />
<glyph unicode="&#xdf;" glyph-name="germandbls" horiz-adv-x="528" d="M339 737T388 706T438 622Q438 586 415 562T344 509Q314 490 302 474T289 427Q289 384 353 340L440 277Q484 246 506 213T529 139Q529 94 507 61T450 10T374 -8Q322 -8 287 10T252 57Q252
80 265 93T300 107Q323 107 334 96T345 67Q345 60 344 53T343 40Q343 31 348 26T370 21Q407 21 428 40T450 99Q450 131 431 162T375 219L289 281Q251 309 231 334T210 386Q210 419 227 444T291 506Q330 536 344 556T359 612Q359 657 332 684T258 712Q212 712 184
682T155 601Q155 580 162 531Q170 463 170 434V48Q170 39 174 33T184 27L230 29V0H35V29L71 27Q84 27 84 48V512Q84 628 127 682T257 737Q339 737 388 706Z" />
<glyph unicode="&#xe0;" glyph-name="agrave" horiz-adv-x="450" d="M430 26V0H288Q289 7 290 18T292 37L294 76Q272 33 238 14T155 -5Q92 -5 60 23T27 108Q27 185 91 221T294 258V316Q294 363 272 383T201 403Q125 403 125 361Q125 353 129 343T134 323Q134 306
123 298T95 289Q74 289 63 302T51 336Q51 378 95 404T213 430Q380 430 380 289V43Q380 24 393 24L430 26ZM229 31T260 67T294 162V231Q200 231 159 204T118 116Q118 74 135 53T185 31Q229 31 260 67ZM88 633T108 643T145 653Q155 653 160 649T181 628L276 524Q279
521 286 513T294 501Q294 493 281 493Q273 493 261 502L98 614Q97 615 93 618T88 627Q88 633 108 643Z" />
<glyph unicode="&#xe1;" glyph-name="aacute" horiz-adv-x="450" d="M430 26V0H288Q289 7 290 18T292 37L294 76Q272 33 238 14T155 -5Q92 -5 60 23T27 108Q27 185 91 221T294 258V316Q294 363 272 383T201 403Q125 403 125 361Q125 353 129 343T134 323Q134 306
123 298T95 289Q74 289 63 302T51 336Q51 378 95 404T213 430Q380 430 380 289V43Q380 24 393 24L430 26ZM229 31T260 67T294 162V231Q200 231 159 204T118 116Q118 74 135 53T185 31Q229 31 260 67ZM362 621T358 618T352 614L189 502Q177 493 169 493Q156 493
156 501Q156 505 163 513T174 524L269 628Q284 645 289 649T305 653Q322 653 342 643T362 627Q362 621 358 618Z" />
<glyph unicode="&#xe2;" glyph-name="acircumflex" horiz-adv-x="450" d="M430 26V0H288Q289 7 290 18T292 37L294 76Q272 33 238 14T155 -5Q92 -5 60 23T27 108Q27 185 91 221T294 258V316Q294 363 272 383T201 403Q125 403 125 361Q125 353 129 343T134 323Q134
306 123 298T95 289Q74 289 63 302T51 336Q51 378 95 404T213 430Q380 430 380 289V43Q380 24 393 24L430 26ZM229 31T260 67T294 162V231Q200 231 159 204T118 116Q118 74 135 53T185 31Q229 31 260 67ZM381 493T372 493Q363 493 344 505L225 579L106 505Q87 493
78 493Q69 493 69 501Q69 504 76 511T94 526Q129 556 148 576L171 600L195 624Q222 649 225 649Q228 649 255 624L279 600L302 576Q321 556 356 526Q366 518 373 511T381 501Q381 493 372 493Z" />
<glyph unicode="&#xe3;" glyph-name="atilde" horiz-adv-x="450" d="M430 26V0H288Q289 7 290 18T292 37L294 76Q272 33 238 14T155 -5Q92 -5 60 23T27 108Q27 185 91 221T294 258V316Q294 363 272 383T201 403Q125 403 125 361Q125 353 129 343T134 323Q134 306
123 298T95 289Q74 289 63 302T51 336Q51 378 95 404T213 430Q380 430 380 289V43Q380 24 393 24L430 26ZM229 31T260 67T294 162V231Q200 231 159 204T118 116Q118 74 135 53T185 31Q229 31 260 67ZM82 567T100 594T146 621Q170 621 234 599Q295 578 315 578Q329
578 338 590T348 620H368Q368 583 350 556T304 529Q280 529 216 551Q157 572 135 572Q121 572 112 560T102 530H82Q82 567 100 594Z" />
<glyph unicode="&#xe4;" glyph-name="adieresis" horiz-adv-x="450" d="M430 26V0H288Q289 7 290 18T292 37L294 76Q272 33 238 14T155 -5Q92 -5 60 23T27 108Q27 185 91 221T294 258V316Q294 363 272 383T201 403Q125 403 125 361Q125 353 129 343T134 323Q134
306 123 298T95 289Q74 289 63 302T51 336Q51 378 95 404T213 430Q380 430 380 289V43Q380 24 393 24L430 26ZM229 31T260 67T294 162V231Q200 231 159 204T118 116Q118 74 135 53T185 31Q229 31 260 67ZM73 616T88 630T127 644Q149 644 165 630T181 595Q181 574
166 561T127 547Q103 547 88 560T73 595Q73 616 88 630ZM268 616T283 630T322 644Q344 644 360 630T376 595Q376 574 361 561T322 547Q298 547 283 560T268 595Q268 616 283 630Z" />
<glyph unicode="&#xe5;" glyph-name="aring" horiz-adv-x="450" d="M430 26V0H288Q289 7 290 18T292 37L294 76Q272 33 238 14T155 -5Q92 -5 60 23T27 108Q27 185 91 221T294 258V316Q294 363 272 383T201 403Q125 403 125 361Q125 353 129 343T134 323Q134 306
123 298T95 289Q74 289 63 302T51 336Q51 378 95 404T213 430Q380 430 380 289V43Q380 24 393 24L430 26ZM229 31T260 67T294 162V231Q200 231 159 204T118 116Q118 74 135 53T185 31Q229 31 260 67ZM141 609T165 632T224 656Q259 656 283 633T308 575Q308 541
284 517T224 493Q190 493 166 517T141 575Q141 609 165 632ZM183 554T194 542T224 529Q243 529 254 541T266 575Q266 595 255 607T224 620Q205 620 194 608T183 575Q183 554 194 542Z" />
<glyph unicode="&#xe6;" glyph-name="ae" horiz-adv-x="710" d="M587 430T631 376T675 217H381Q381 127 415 75T514 23Q553 23 592 48T650 110L674 92Q653 45 608 18T508 -10Q431 -10 386 15T318 87Q293 40 259 18T172 -5Q106 -5 67 20T27 98Q27 178 91 210T294
242V316Q294 363 272 383T201 403Q125 403 125 361Q125 353 129 343T134 323Q134 306 123 298T95 289Q74 289 63 302T51 336Q51 378 95 404T213 430Q312 430 352 381Q381 407 416 418T500 430Q587 430 631 376ZM439 403T410 364T381 242H580Q590 242 590 270Q590
403 501 403Q439 403 410 364ZM202 217T160 186T118 93Q118 60 138 44T191 28Q218 28 241 47T279 100T294 177V217Q202 217 160 186Z" />
<glyph unicode="&#xe7;" glyph-name="ccedilla" horiz-adv-x="425" d="M211 -43Q205 -54 205 -62Q205 -68 212 -71T235 -78Q262 -84 276 -93T291 -122Q291 -165 267 -189T197 -214Q153 -214 128 -198L135 -174Q147 -187 170 -187Q193 -187 209 -172T226 -133Q226
-112 192 -94L169 -80Q158 -72 158 -65Q158 -58 164 -52L199 -7Q122 4 79 60T36 206Q36 274 60 324T129 402T232 430Q273 430 308 417T365 380T387 328Q387 307 376 293T339 278Q304 278 304 308Q304 316 308 328Q313 340 313 351Q313 376 290 389T235 403Q183
403 156 361T129 217Q129 116 157 67T242 17Q292 17 331 45T383 124L407 106Q389 52 346 21T237 -10H232L211 -43Z" />
<glyph unicode="&#xe8;" glyph-name="egrave" horiz-adv-x="449" d="M315 430T363 380T414 241V212H126Q126 121 157 73T252 23Q302 23 336 48T387 110L410 93Q390 45 343 18T238 -10Q35 -10 35 209Q35 318 86 374T236 430Q315 430 363 380ZM180 403T154 357T127
237H309Q319 237 324 244T329 270Q329 338 308 370T236 403Q180 403 154 357ZM88 633T108 643T145 653Q155 653 160 649T181 628L276 524Q279 521 286 513T294 501Q294 493 281 493Q273 493 261 502L98 614Q97 615 93 618T88 627Q88 633 108 643Z" />
<glyph unicode="&#xe9;" glyph-name="eacute" horiz-adv-x="449" d="M315 430T363 380T414 241V212H126Q126 121 157 73T252 23Q302 23 336 48T387 110L410 93Q390 45 343 18T238 -10Q35 -10 35 209Q35 318 86 374T236 430Q315 430 363 380ZM180 403T154 357T127
237H309Q319 237 324 244T329 270Q329 338 308 370T236 403Q180 403 154 357ZM362 621T358 618T352 614L189 502Q177 493 169 493Q156 493 156 501Q156 505 163 513T174 524L269 628Q284 645 289 649T305 653Q322 653 342 643T362 627Q362 621 358 618Z" />
<glyph unicode="&#xea;" glyph-name="ecircumflex" horiz-adv-x="449" d="M315 430T363 380T414 241V212H126Q126 121 157 73T252 23Q302 23 336 48T387 110L410 93Q390 45 343 18T238 -10Q35 -10 35 209Q35 318 86 374T236 430Q315 430 363 380ZM180 403T154
357T127 237H309Q319 237 324 244T329 270Q329 338 308 370T236 403Q180 403 154 357ZM381 493T372 493Q363 493 344 505L225 579L106 505Q87 493 78 493Q69 493 69 501Q69 504 76 511T94 526Q129 556 148 576L171 600L195 624Q222 649 225 649Q228 649 255 624L279
600L302 576Q321 556 356 526Q366 518 373 511T381 501Q381 493 372 493Z" />
<glyph unicode="&#xeb;" glyph-name="edieresis" horiz-adv-x="449" d="M315 430T363 380T414 241V212H126Q126 121 157 73T252 23Q302 23 336 48T387 110L410 93Q390 45 343 18T238 -10Q35 -10 35 209Q35 318 86 374T236 430Q315 430 363 380ZM180 403T154 357T127
237H309Q319 237 324 244T329 270Q329 338 308 370T236 403Q180 403 154 357ZM73 616T88 630T127 644Q149 644 165 630T181 595Q181 574 166 561T127 547Q103 547 88 560T73 595Q73 616 88 630ZM268 616T283 630T322 644Q344 644 360 630T376 595Q376 574 361 561T322
547Q298 547 283 560T268 595Q268 616 283 630Z" />
<glyph unicode="&#xec;" glyph-name="igrave" horiz-adv-x="255" d="M171 43Q171 24 184 24L220 26V0H35V26L72 24Q85 24 85 43V376Q85 393 73 396L36 394V420H171V43ZM247 633T267 643T304 653Q314 653 319 649T340 628L435 524Q438 521 445 513T453 501Q453
493 440 493Q432 493 420 502L257 614Q256 615 252 618T247 627Q247 633 267 643Z" />
<glyph unicode="&#xed;" glyph-name="iacute" horiz-adv-x="255" d="M171 43Q171 24 184 24L220 26V0H35V26L72 24Q85 24 85 43V376Q85 393 73 396L36 394V420H171V43ZM265 621T261 618T255 614L92 502Q80 493 72 493Q59 493 59 501Q59 505 66 513T77 524L172
628Q187 645 192 649T208 653Q225 653 245 643T265 627Q265 621 261 618Z" />
<glyph unicode="&#xee;" glyph-name="icircumflex" horiz-adv-x="255" d="M171 43Q171 24 184 24L220 26V0H35V26L72 24Q85 24 85 43V376Q85 393 73 396L36 394V420H171V43ZM269 493T257 493Q254 493 252 495T249 500Q249 502 259 514T275 533L369 644Q381 659
384 659Q387 659 399 644L493 533Q498 527 508 515T519 500Q519 497 517 495T511 493Q499 493 482 506L384 584L286 506Q269 493 257 493Z" />
<glyph unicode="&#xef;" glyph-name="idieresis" horiz-adv-x="255" d="M171 43Q171 24 184 24L220 26V0H35V26L72 24Q85 24 85 43V376Q85 393 73 396L36 394V420H171V43ZM232 616T247 630T286 644Q308 644 324 630T340 595Q340 574 325 561T286 547Q262 547 247
560T232 595Q232 616 247 630ZM171 616T186 630T225 644Q247 644 263 630T279 595Q279 574 264 561T225 547Q201 547 186 560T171 595Q171 616 186 630Z" />
<glyph unicode="&#xf0;" glyph-name="eth" horiz-adv-x="492" d="M369 495T413 410T457 213Q457 109 402 49T246 -11Q143 -11 89 45T35 209Q35 317 89 373T246 429Q268 429 292 422T328 404Q318 434 296 463T246 518L140 457L125 483L221 538Q192 560 163 572T112
585L132 607Q203 604 269 565L364 620L378 594L297 547Q369 495 413 410ZM311 14T338 59T366 209Q366 314 338 359T246 404Q200 404 174 386T137 326T126 209Q126 135 138 93T176 33T246 14Q311 14 338 59Z" />
<glyph unicode="&#xf1;" glyph-name="ntilde" horiz-adv-x="525" d="M505 26V0H310V26L356 24Q369 27 369 43V270Q369 318 365 344T346 384T302 398Q245 398 210 350T171 219V43Q171 24 184 24L230 26V0H35V26L72 24Q85 27 85 43V376Q85 393 72 396L35 394V420H176Q171
405 171 385V330Q192 377 231 403T321 430Q392 430 423 397T455 288V43Q455 24 468 24L505 26ZM120 567T138 594T184 621Q208 621 272 599Q333 578 353 578Q367 578 376 590T386 620H406Q406 583 388 556T342 529Q318 529 254 551Q195 572 173 572Q159 572 150
560T140 530H120Q120 567 138 594Z" />
<glyph unicode="&#xf2;" glyph-name="ograve" horiz-adv-x="472" d="M35 313T86 371T236 430Q335 430 386 372T437 211Q437 107 386 49T236 -10Q137 -10 86 48T35 211Q35 313 86 371ZM126 108T151 63T236 17Q295 17 320 62T346 209Q346 311 321 357T236 403Q177
403 152 357T126 209Q126 108 151 63ZM99 633T119 643T156 653Q166 653 171 649T192 628L287 524Q290 521 297 513T305 501Q305 493 292 493Q284 493 272 502L109 614Q108 615 104 618T99 627Q99 633 119 643Z" />
<glyph unicode="&#xf3;" glyph-name="oacute" horiz-adv-x="472" d="M35 313T86 371T236 430Q335 430 386 372T437 211Q437 107 386 49T236 -10Q137 -10 86 48T35 211Q35 313 86 371ZM126 108T151 63T236 17Q295 17 320 62T346 209Q346 311 321 357T236 403Q177
403 152 357T126 209Q126 108 151 63ZM373 621T369 618T363 614L200 502Q188 493 180 493Q167 493 167 501Q167 505 174 513T185 524L280 628Q295 645 300 649T316 653Q333 653 353 643T373 627Q373 621 369 618Z" />
<glyph unicode="&#xf4;" glyph-name="ocircumflex" horiz-adv-x="472" d="M35 313T86 371T236 430Q335 430 386 372T437 211Q437 107 386 49T236 -10Q137 -10 86 48T35 211Q35 313 86 371ZM126 108T151 63T236 17Q295 17 320 62T346 209Q346 311 321 357T236 403Q177
403 152 357T126 209Q126 108 151 63ZM392 493T383 493Q374 493 355 505L236 579L117 505Q98 493 89 493Q80 493 80 501Q80 504 87 511T105 526Q140 556 159 576L182 600L206 624Q233 649 236 649Q239 649 266 624L290 600L313 576Q332 556 367 526Q377 518 384
511T392 501Q392 493 383 493Z" />
<glyph unicode="&#xf5;" glyph-name="otilde" horiz-adv-x="472" d="M35 313T86 371T236 430Q335 430 386 372T437 211Q437 107 386 49T236 -10Q137 -10 86 48T35 211Q35 313 86 371ZM126 108T151 63T236 17Q295 17 320 62T346 209Q346 311 321 357T236 403Q177
403 152 357T126 209Q126 108 151 63ZM93 567T111 594T157 621Q181 621 245 599Q306 578 326 578Q340 578 349 590T359 620H379Q379 583 361 556T315 529Q291 529 227 551Q168 572 146 572Q132 572 123 560T113 530H93Q93 567 111 594Z" />
<glyph unicode="&#xf6;" glyph-name="odieresis" horiz-adv-x="472" d="M35 313T86 371T236 430Q335 430 386 372T437 211Q437 107 386 49T236 -10Q137 -10 86 48T35 211Q35 313 86 371ZM126 108T151 63T236 17Q295 17 320 62T346 209Q346 311 321 357T236 403Q177
403 152 357T126 209Q126 108 151 63ZM84 616T99 630T138 644Q160 644 176 630T192 595Q192 574 177 561T138 547Q114 547 99 560T84 595Q84 616 99 630ZM279 616T294 630T333 644Q355 644 371 630T387 595Q387 574 372 561T333 547Q309 547 294 560T279 595Q279
616 294 630Z" />
<glyph unicode="&#xf7;" glyph-name="divide" horiz-adv-x="460" d="M175 459T190 471T229 484Q253 484 268 472T284 436Q284 415 269 402T229 389Q205 389 190 401T175 436Q175 459 190 471ZM19 244V295H441V244H19ZM175 118T190 131T229 145Q253 145 268 133T284
97Q284 76 269 63T229 50Q205 50 190 62T175 97Q175 118 190 131Z" />
<glyph unicode="&#xf8;" glyph-name="oslash" horiz-adv-x="472" d="M437 332T437 211Q437 107 386 49T236 -10Q188 -10 155 3L106 -85L68 -68L118 21Q35 76 35 211Q35 313 86 371T236 430Q293 430 335 410L388 504L422 483L369 388Q437 332 437 211ZM126 116T146
72L313 369Q286 403 236 403Q177 403 152 357T126 209Q126 116 146 72ZM295 17T320 62T346 209Q346 280 334 325L173 36Q196 17 236 17Q295 17 320 62Z" />
<glyph unicode="&#xf9;" glyph-name="ugrave" horiz-adv-x="524" d="M489 26V0H347Q352 12 352 72V85Q332 39 292 15T195 -10Q128 -10 99 27T69 148V376Q69 396 56 396L20 394V420H155V148Q155 80 167 52T216 23Q273 23 310 66T352 186L353 375Q353 396 341 396L294
394V420H440V43Q440 24 453 24L489 26ZM353 220V226V220ZM125 633T145 643T182 653Q192 653 197 649T218 628L313 524Q316 521 323 513T331 501Q331 493 318 493Q310 493 298 502L135 614Q134 615 130 618T125 627Q125 633 145 643Z" />
<glyph unicode="&#xfa;" glyph-name="uacute" horiz-adv-x="524" d="M489 26V0H347Q352 12 352 72V85Q332 39 292 15T195 -10Q128 -10 99 27T69 148V376Q69 396 56 396L20 394V420H155V148Q155 80 167 52T216 23Q273 23 310 66T352 186L353 375Q353 396 341 396L294
394V420H440V43Q440 24 453 24L489 26ZM353 220V226V220ZM399 621T395 618T389 614L226 502Q214 493 206 493Q193 493 193 501Q193 505 200 513T211 524L306 628Q321 645 326 649T342 653Q359 653 379 643T399 627Q399 621 395 618Z" />
<glyph unicode="&#xfb;" glyph-name="ucircumflex" horiz-adv-x="524" d="M489 26V0H347Q352 12 352 72V85Q332 39 292 15T195 -10Q128 -10 99 27T69 148V376Q69 396 56 396L20 394V420H155V148Q155 80 167 52T216 23Q273 23 310 66T352 186L353 375Q353 396 341
396L294 394V420H440V43Q440 24 453 24L489 26ZM353 220V226V220ZM418 493T409 493Q400 493 381 505L262 579L143 505Q124 493 115 493Q106 493 106 501Q106 504 113 511T131 526Q166 556 185 576L208 600L232 624Q259 649 262 649Q265 649 292 624L316 600L339
576Q358 556 393 526Q403 518 410 511T418 501Q418 493 409 493Z" />
<glyph unicode="&#xfc;" glyph-name="udieresis" horiz-adv-x="524" d="M489 26V0H347Q352 12 352 72V85Q332 39 292 15T195 -10Q128 -10 99 27T69 148V376Q69 396 56 396L20 394V420H155V148Q155 80 167 52T216 23Q273 23 310 66T352 186L353 375Q353 396 341
396L294 394V420H440V43Q440 24 453 24L489 26ZM353 220V226V220ZM110 616T125 630T164 644Q186 644 202 630T218 595Q218 574 203 561T164 547Q140 547 125 560T110 595Q110 616 125 630ZM305 616T320 630T359 644Q381 644 397 630T413 595Q413 574 398 561T359
547Q335 547 320 560T305 595Q305 616 320 630Z" />
<glyph unicode="&#xfd;" glyph-name="yacute" horiz-adv-x="485" d="M482 420V394L441 396H439Q423 396 414 377L203 -132Q179 -191 152 -215T85 -239Q58 -239 40 -226T19 -190Q19 -165 30 -152T58 -139Q73 -139 81 -145T96 -163Q97 -165 101 -170T110 -178T121
-181Q133 -181 145 -170T167 -135L225 4L52 383Q46 396 36 396L-13 394V420H206V394L161 396Q154 396 150 391T149 379L271 111L384 381Q385 383 385 387Q385 396 374 396L327 394V420H482ZM385 621T381 618T375 614L212 502Q200 493 192 493Q179 493 179 501Q179
505 186 513T197 524L292 628Q307 645 312 649T328 653Q345 653 365 643T385 627Q385 621 381 618Z" />
<glyph unicode="&#xfe;" glyph-name="thorn" horiz-adv-x="494" d="M155 340Q169 383 203 406T287 430Q373 430 416 374T459 209Q459 99 413 45T269 -10Q228 -10 199 3T155 43V-195Q155 -215 168 -215L230 -213V-239H24V-213L56 -215Q69 -214 69 -195V686Q69 706
56 706L20 704V730H155V340ZM220 403T189 355T157 226V184Q157 97 185 57T269 17Q308 17 329 34T359 93T368 209Q368 284 361 325T333 384T276 403Q220 403 189 355Z" />
<glyph unicode="&#xff;" glyph-name="ydieresis" horiz-adv-x="485" d="M482 420V394L441 396H439Q423 396 414 377L203 -132Q179 -191 152 -215T85 -239Q58 -239 40 -226T19 -190Q19 -165 30 -152T58 -139Q73 -139 81 -145T96 -163Q97 -165 101 -170T110 -178T121
-181Q133 -181 145 -170T167 -135L225 4L52 383Q46 396 36 396L-13 394V420H206V394L161 396Q154 396 150 391T149 379L271 111L384 381Q385 383 385 387Q385 396 374 396L327 394V420H482ZM96 616T111 630T150 644Q172 644 188 630T204 595Q204 574 189 561T150
547Q126 547 111 560T96 595Q96 616 111 630ZM291 616T306 630T345 644Q367 644 383 630T399 595Q399 574 384 561T345 547Q321 547 306 560T291 595Q291 616 306 630Z" />
<glyph unicode="&#x2013;" glyph-name="endash" horiz-adv-x="477" d="M18 191V230H459V191H18Z" />
<glyph unicode="&#x2014;" glyph-name="emdash" horiz-adv-x="794" d="M0 191V230H794V191H0Z" />
<glyph unicode="&#x2018;" glyph-name="quoteleft" horiz-adv-x="220" d="M130 610T109 576T87 519Q87 490 123 490Q141 490 148 477T155 447Q155 426 138 410T97 394Q62 394 45 415T27 477Q27 527 61 571T137 645L156 634Q130 610 109 576Z" />
<glyph unicode="&#x2019;" glyph-name="quoteright" horiz-adv-x="220" d="M90 414T111 448T133 505Q133 534 97 534Q79 534 72 547T65 577Q65 598 82 614T123 630Q158 630 175 609T193 547Q193 497 159 453T83 379L64 390Q90 414 111 448Z" />
<glyph unicode="&#x201a;" glyph-name="quotesinglbase" horiz-adv-x="264" d="M128 -125T149 -91T171 -34Q171 -5 135 -5Q117 -5 110 8T103 38Q103 59 120 75T161 91Q196 91 213 70T231 8Q231 -42 197 -86T121 -160L102 -149Q128 -125 149 -91Z" />
<glyph unicode="&#x201c;" glyph-name="quotedblleft" horiz-adv-x="386" d="M130 611T109 577T87 520Q87 491 123 491Q141 491 148 478T155 448Q155 427 138 411T97 395Q62 395 45 416T27 478Q27 528 61 572T137 646L156 635Q130 611 109 577ZM296 611T275 577T253
520Q253 491 289 491Q307 491 314 478T321 448Q321 427 304 411T263 395Q228 395 211 416T193 478Q193 528 227 572T303 646L322 635Q296 611 275 577Z" />
<glyph unicode="&#x201d;" glyph-name="quotedblright" horiz-adv-x="386" d="M90 414T111 448T133 505Q133 534 97 534Q79 534 72 547T65 577Q65 598 82 614T123 630Q158 630 175 609T193 547Q193 497 159 453T83 379L64 390Q90 414 111 448ZM256 414T277 448T299
505Q299 534 263 534Q245 534 238 547T231 577Q231 598 248 614T289 630Q324 630 341 609T359 547Q359 497 325 453T249 379L230 390Q256 414 277 448Z" />
<glyph unicode="&#x201e;" glyph-name="quotedblbase" horiz-adv-x="444" d="M128 -125T149 -91T171 -34Q171 -5 135 -5Q117 -5 110 8T103 38Q103 59 120 75T161 91Q196 91 213 70T231 8Q231 -42 197 -86T121 -160L102 -149Q128 -125 149 -91ZM308 -125T329 -91T351
-34Q351 -5 315 -5Q297 -5 290 8T283 38Q283 59 300 75T341 91Q376 91 393 70T411 8Q411 -42 377 -86T301 -160L282 -149Q308 -125 329 -91Z" />
<glyph unicode="&#x2022;" glyph-name="bullet" horiz-adv-x="469" d="M105 298T142 330T234 363Q289 363 325 331T362 247Q362 196 325 164T234 131Q177 131 141 163T105 247Q105 298 142 330Z" />
<glyph unicode="&#x2039;" glyph-name="guilsinglleft" horiz-adv-x="261" d="M26 187L175 358H211L113 187L211 16H175L26 187Z" />
<glyph unicode="&#x203a;" glyph-name="guilsinglright" horiz-adv-x="260" d="M235 187L86 16H50L148 187L50 358H86L235 187Z" />
</font>
</defs>
</svg>
