<?xml version="1.0" standalone="no"?>
<!DOCTYPE svg PUBLIC "-//W3C//DTD SVG 1.1//EN" "http://www.w3.org/Graphics/SVG/1.1/DTD/svg11.dtd">
<svg xmlns="http://www.w3.org/2000/svg">
<defs >
<font id="OvertheRainbow" horiz-adv-x="551" ><font-face
    font-family="Over the Rainbow"
    units-per-em="1024"
    panose-1="2 0 0 0 0 0 0 0 0 0"
    ascent="1412"
    descent="-677"
    alphabetic="0" />
<glyph unicode=" " glyph-name="space" horiz-adv-x="512" />
<glyph unicode="!" glyph-name="exclam" horiz-adv-x="382" d="M60 17Q54 41 61 56T81 77T106 82T125 70T126 43T95 0Q91 -4 85 -3T74 2T65 10T60 17ZM78 278Q43 331 34 400T33 547T66 703T123 855T190 988T259 1087T317 1138T355 1128Q357 1126 357 1120T355
1111Q297 1045 245 965T155 798T100 619T95 434Q96 426 106 402T125 350T134 297T113 260Q100 255 92 262T78 278Z" />
<glyph unicode="&quot;" glyph-name="quotedbl" horiz-adv-x="312" d="M52 555Q48 568 44 596T38 659T37 731T44 798T60 847T87 867Q106 867 115 857T127 830T126 794T119 754T110 719T104 693Q103 685 101 663T95 616T90 569T87 538Q77 532 66 539T52 555ZM225
572Q218 601 214 634T208 702T206 770T208 833Q212 843 222 848T243 853T264 848T278 833Q278 826 279 804T282 752T282 689T277 627T265 578T243 555Q240 556 233 562T225 572Z" />
<glyph unicode="#" glyph-name="numbersign" horiz-adv-x="816" d="M330 35Q332 44 337 68T347 121T358 173T365 208Q366 210 366 216T365 225Q360 226 339 224T295 216T253 204T234 190V52H190L157 173Q155 179 139 175T103 165T64 154T35 157Q18 168 20 178T37
198T72 220T115 245T152 275T174 312Q175 318 177 331T182 360T187 388T190 408H35L17 434Q29 452 46 458T84 466T125 467T165 468T200 477T225 504Q228 508 234 522T250 556T269 598T287 640T302 674T312 694Q325 716 338 740T368 786T405 825T452 851Q463 855
472 850T486 834Q419 763 373 679T295 504Q305 503 332 503T388 505T442 510T469 520L625 816Q626 818 633 825T648 840T664 856T677 867Q679 869 685 869T694 867V816L555 555L538 538Q558 535 577 538T616 546T654 554T694 555Q702 532 693 522T664 506T617 492T563
468T510 418T469 330Q468 328 468 321T469 312Q508 307 547 313T625 329T703 345T781 347V295L452 243Q444 242 437 221T422 168T406 102T389 41T370 1T347 0Q345 1 343 6T337 16L332 27Q330 33 330 35ZM225 260Q265 264 306 274T380 306T428 363T434 452Q380 448
346 442T289 421T252 376T225 295V260Z" />
<glyph unicode="$" glyph-name="dollar" horiz-adv-x="677" d="M338 17Q336 19 330 26T321 35Q320 59 320 86T318 140T308 194T286 243Q272 264 252 280T209 310T164 338T123 371T92 412T78 469Q76 492 76 529T75 603T75 665T78 694L95 712Q42 763 30 813T37 901T103
959T216 972V1111Q238 1118 250 1111T268 1088T275 1050T277 1006T279 966T286 937Q292 926 306 911T337 877T369 838T395 796T405 753T390 712Q375 753 348 796T286 867Q282 810 288 745T303 625Q305 623 311 616T321 607Q384 567 449 525T564 443T640 365T651
299T570 250T373 225Q372 216 376 193T384 141T390 83T390 34T374 8T338 17ZM355 312Q357 310 364 304T373 295Q480 286 531 294T594 322T582 370T518 431T423 495T321 555Q318 525 317 493T318 430T329 368T355 312ZM233 347Q242 342 257 334T286 330Q287 334
287 347T286 365Q284 376 280 405T270 468T259 531T251 572Q225 603 194 629T130 677Q104 634 103 586T118 492T164 409T233 347ZM130 746Q134 742 145 733T171 712T197 691T216 677Q218 675 224 675T233 677Q238 734 233 790T216 902Q189 921 167 923T127 915T101
886T91 842T99 793T130 746ZM113 702Q105 702 105 694T113 685Q119 685 119 693T113 702Z" />
<glyph unicode="%" glyph-name="percent" horiz-adv-x="1050" d="M417 17Q360 57 336 115T311 236T325 365T365 486Q362 487 343 475T299 447T253 417T225 399Q207 392 182 388T131 384T82 391T43 411T24 447T35 504Q36 506 43 513T60 529T77 545T87 555L90 562Q93
567 96 572T101 583T104 590Q144 594 185 584T265 560T338 539T399 538Q407 548 424 567T463 611T509 662T556 712T597 754T625 781Q677 828 733 853T839 884T924 879T973 844T969 783T895 703T734 608T469 504Q444 495 425 462T393 381T377 281T379 180T403 97T452
52Q476 44 507 45T569 55T628 76T677 104Q717 134 730 160T744 210T737 256T729 299T737 340T781 382Q817 403 862 407T945 397T1003 349T1007 260Q1003 245 989 234T955 215T913 200T872 188T837 180T816 173Q814 172 809 164L798 148Q792 139 787 131T781 122Q754
95 709 65T611 15T508 -8T417 17ZM521 590Q519 588 516 584T511 574T506 563T504 555Q508 554 520 554T538 555Q549 558 572 565T621 581T667 597T694 607Q796 652 847 696T910 771T895 816T816 812T687 743T521 590ZM816 278Q849 245 876 243T921 255T944 293T939
333T899 353T816 330Q795 319 797 307T816 278ZM104 486Q103 483 103 476T102 460T102 444T104 434Q155 426 192 435T260 486Q256 487 233 493T183 504T132 506T104 486ZM243 538Q244 542 241 544T235 546T228 544T225 538Q227 530 234 530T243 538Z" />
<glyph unicode="&amp;" glyph-name="ampersand" horiz-adv-x="807" d="M78 17Q46 35 34 58T24 107T41 158T75 207T119 248T165 278Q175 283 202 295T259 322T317 348T355 365Q354 383 354 427T353 521T353 615T355 677Q355 686 357 701T363 730T368 754T373 764H425Q423
733 422 687T420 589T426 488T442 399Q444 398 466 401T521 411T589 428T655 450T703 476T718 505T683 538T581 572Q573 574 569 580T562 595T560 611T563 625Q583 629 615 623T681 605T744 575T788 539T797 502T755 469L442 347Q438 345 432 324T416 270T392 197T357
119T311 50T250 1T173 -15T78 17ZM78 87Q80 83 85 77L106 56Q111 52 113 52Q175 36 223 54T303 112T348 204T355 312Q341 317 312 307T249 278T179 234T117 182T79 130T78 87Z" />
<glyph unicode="&apos;" glyph-name="quotesingle" horiz-adv-x="157" d="M43 746Q38 760 34 794T27 870T26 956T37 1034T64 1086T113 1094Q113 1088 113 1073T114 1042T114 1010T113 989Q111 972 108 948T101 897T94 844T87 796T81 761T78 746L60 729L43 746Z" />
<glyph unicode="(" glyph-name="parenleft" horiz-adv-x="408" d="M260 35Q160 75 106 133T31 262T20 409T56 563T124 714T208 851Q222 870 233 883T255 900T280 902T312 885Q279 839 239 780T164 654T104 518T77 381T99 251T190 139Q194 136 213 126T256 104T307
76T351 47T374 20T365 0Q359 1 344 6L312 16Q296 22 281 27T260 35Z" />
<glyph unicode=")" glyph-name="parenright" horiz-adv-x="469" d="M17 17Q17 23 24 36T35 52Q146 133 224 214T341 389T375 595T312 851L302 870Q295 885 286 902T269 935L260 954Q259 956 259 963T260 972Q272 978 282 976T301 968T317 954T330 937Q400 820
422 706T423 483T338 275T174 87Q172 85 159 77T130 57T96 35T70 17Q54 6 43 2Q33 -2 25 0T17 17Z" />
<glyph unicode="*" glyph-name="asterisk" horiz-adv-x="512" d="M70 17Q69 21 69 29T68 46T68 61T70 70L157 190V208Q155 208 136 208T94 209T48 219T17 243Q13 250 16 259T27 276T41 289T52 295H190Q191 295 193 301T199 315T204 332T208 347Q209 354 212 371T217
408T222 445T225 469Q240 480 251 484Q261 488 269 486T278 469V330Q278 313 290 311T320 313T362 329T409 348T453 363T486 365Q491 357 487 348T475 331T459 317L452 312Q443 306 421 291T374 260T327 229T295 208Q290 187 294 168T306 130T320 96T327 66T317
39T278 17L225 122Q215 142 202 134T174 104T144 55T114 10T89 -10T70 17Z" />
<glyph unicode="+" glyph-name="plus" horiz-adv-x="834" d="M321 122Q324 167 333 216T338 312Q307 320 279 315T222 297T168 269T115 241T62 223T8 225Q1 236 8 248T29 269T56 286T78 295Q88 298 108 303T154 316T208 330T262 345T308 357T338 365Q340 378 341
403T345 456T354 510T373 555Q375 559 381 565T390 572Q394 572 400 570T411 566T421 560T425 555V382Q435 381 469 385T549 395T642 405T730 408T791 397T807 365Q806 362 800 356T790 347Q781 347 759 347T711 348T664 348T633 347Q610 346 575 344T507 339T450
334T425 330L408 312L405 297Q403 283 400 261T393 209L385 152Q381 124 378 98T373 52Q372 40 371 28T365 7T350 -3T321 0Q320 7 320 24T319 60T319 97T321 122Z" />
<glyph unicode="," glyph-name="comma" horiz-adv-x="295" d="M-9 -245Q-17 -234 -17 -227T-13 -214T-3 -204T8 -193Q38 -153 61 -121T103 -57T136 12T164 102Q170 128 166 151T155 195T144 235T146 275Q150 287 160 291T180 294T201 287T216 275Q234 257 236
222T231 141T204 44T164 -56T116 -147T67 -217T23 -254T-9 -245Z" />
<glyph unicode="-" glyph-name="hyphen" horiz-adv-x="477" d="M8 278Q4 286 7 292T16 302T29 309T43 312Q56 315 84 320T149 333T224 347T300 362T365 374T408 382Q431 386 437 378T440 357T427 331T408 312Q379 316 340 311T259 298T175 279T99 264T40 261T8 278Z" />
<glyph unicode="." glyph-name="period" horiz-adv-x="250" d="M76 17Q67 34 71 53T87 90T116 119T151 134T187 126T215 87Q222 70 217 54T198 25T167 4T132 -7T99 -4T76 17Z" />
<glyph unicode="/" glyph-name="slash" horiz-adv-x="512" d="M8 35Q6 37 6 43T8 52L17 90Q24 116 32 148T50 217T68 285T84 344T95 382Q113 438 137 495T191 608T254 716T321 816Q331 829 349 850T387 890T422 923T442 937H477V902Q468 893 446 869T398 817T351
764T321 729Q318 726 313 719T303 704T292 688T286 677Q279 660 264 625T229 546T190 452T150 358T117 278T95 225Q84 199 85 168T86 105T78 46T43 0Q41 1 36 6T25 16T14 27T8 35Z" />
<glyph unicode="0" glyph-name="zero" horiz-adv-x="564" d="M104 17Q92 24 81 37T61 64T46 94T35 122Q28 154 29 203T40 311T67 432T110 553T167 662T237 745T321 789T417 781Q460 765 482 733T521 659Q521 648 521 619T522 556T522 493T521 452Q519 426 500
376T448 269T375 156T287 61T194 6T104 17ZM122 87Q160 61 193 68T260 104Q330 164 375 230T444 361T473 488T471 599T444 684T398 732T340 733T278 677Q263 655 243 630T203 579T166 525T139 469Q134 454 124 424T103 357T85 280T77 202T86 135T122 87Z" />
<glyph unicode="1" glyph-name="one" horiz-adv-x="316" d="M117 26Q123 140 126 237T134 427T149 615T179 822Q170 811 157 799T127 778T92 766T57 770Q56 774 67 792T97 835T140 889T188 943T234 988T270 1013T289 1008T283 962Q280 953 273 931T258 883T242
836T230 805Q228 787 224 749T215 663T204 562T193 461T184 375T179 319Q176 279 176 270T176 263T178 276T179 285Q178 265 177 230T174 155T171 81T169 26Q169 16 165 7T153 -8T136 -15T117 -9V26Z" />
<glyph unicode="2" glyph-name="two" horiz-adv-x="712" d="M26 70Q33 119 50 163T96 244T163 307T251 347Q275 391 297 439T334 539T356 642T355 746L216 625H182V659L338 816Q357 835 373 834T402 822T420 794T425 764Q423 752 421 732T416 693T411 658T408
642Q404 627 392 590T366 512T340 433T321 382Q306 367 312 357T332 341Q348 334 373 330Q396 328 425 332T486 343T549 358T608 372T655 382T685 382Q690 380 697 374T702 365L668 312Q666 309 645 301T597 285T541 270T495 260Q482 258 450 258T382 257T313 257T268
260Q262 250 245 225T209 173T172 121T147 87Q139 77 127 61T99 32T64 12T26 17Q26 20 26 27T25 43T25 59T26 70ZM78 78Q71 78 71 69T78 60Q84 60 84 69T78 78ZM95 139Q94 135 94 122T95 104H113L216 260H199Q193 260 178 247T145 215T114 175T95 139Z" />
<glyph unicode="3" glyph-name="three" horiz-adv-x="504" d="M87 17Q61 37 46 63T23 120T15 181T17 243Q26 249 36 235T57 198T83 145T116 92T159 54T213 44T280 79T365 173Q428 259 433 323T402 421T296 451T139 399Q117 399 125 415T159 457T219 514T287 577T342
634T365 677V694Q350 699 330 692T288 673T244 646T202 625T166 619T139 642Q135 650 139 658T149 674T163 687L174 694Q187 698 219 708T287 730T355 750T399 764Q403 765 416 765T434 764Q442 736 432 704T403 642T364 584T330 538Q342 542 358 534T382 520Q428
483 448 436T467 339T446 238T396 143T326 63T245 10T162 -9T87 17Z" />
<glyph unicode="4" glyph-name="four" horiz-adv-x="616" d="M365 52Q366 58 368 77T374 120T382 173T389 226T395 270T399 295Q399 298 399 305T400 321T400 336T399 347Q388 351 359 361T296 383T232 404T190 417Q171 422 154 409T122 375T92 330T66 291T41
274T17 295Q22 308 31 335T52 396T77 468T103 540T124 602T139 642Q142 651 149 665T167 688T188 697T208 677Q205 669 198 650T182 608T166 566T157 538Q155 533 155 521T157 504Q165 503 187 495T238 474T297 449T354 427T397 414T417 417L538 885Q541 898 550
901T570 901T586 888T590 867L504 486V434Q508 436 517 441T538 451T558 462T572 469H590Q564 449 544 433T509 399T484 361T469 312Q467 301 463 278T453 226T443 165T432 103T423 51T417 17Q413 14 407 11T394 4T379 0T365 0Q365 3 365 10T364 26T364 41T365
52Z" />
<glyph unicode="5" glyph-name="five" horiz-adv-x="555" d="M95 17Q66 39 52 75T34 151T34 232T48 301T70 345T95 347Q97 338 93 310T86 244T83 167T92 98T122 54T182 52Q240 72 258 103T269 172T235 251T177 333T118 408T78 469Q55 519 60 555T84 614T131 650T184
664T224 661T233 642L512 729Q531 735 538 726T543 704T533 677T512 659L199 555Q182 550 169 563T147 590Q130 586 127 569T126 533T136 495T147 469Q153 461 165 445T193 409T226 366T258 322T285 285T303 260Q325 229 327 192T318 120T282 55T228 9T163 -8T95
17Z" />
<glyph unicode="6" glyph-name="six" horiz-adv-x="460" d="M95 17Q67 24 51 46T28 99T20 165T22 235T32 299T43 347Q45 356 53 382T73 445T97 522T123 603T147 676T165 729Q167 736 170 745T180 762T194 770T216 764V712L95 312V122Q95 112 106 99T130 78T154
69T165 87Q168 100 177 132T198 200T219 268T233 312Q235 319 248 339T280 382T321 428T364 461T401 469T425 434Q432 385 427 332T403 227T357 131T289 57T201 15T95 17ZM233 157Q232 152 232 142T231 121T231 101T233 87Q268 99 300 134T354 212T387 301T390
382H338Q337 382 331 372T316 349T299 320T286 295Q281 286 273 266T257 223T242 182T233 157Z" />
<glyph unicode="7" glyph-name="seven" horiz-adv-x="538" d="M449 716L122 625Q121 624 110 610T85 578T55 544T28 524T13 534T17 590Q19 600 28 614T48 642T70 665T87 677L504 771V712Q497 691 485 646T457 545T424 426T392 307T364 205T347 139Q345 132 343
115T338 79T333 42T330 17Q322 12 307 4T278 0V70L449 716Z" />
<glyph unicode="8" glyph-name="eight" horiz-adv-x="590" d="M52 17Q32 32 30 62T34 124T52 184T70 225Q75 236 89 263T120 321T152 379T174 417Q184 454 174 493T150 574T125 659T122 746Q129 750 140 756T164 767T189 776T208 781Q223 782 246 782T292 783T330
783T347 781L399 712Q401 710 394 703T382 694Q380 693 374 693T365 694Q363 695 355 700T339 712T322 723T312 729Q305 730 288 730T252 731T215 731T191 729Q176 721 174 704T174 668T183 631T191 607Q194 596 200 579T211 545T220 516L225 504H243L521 764Q542
783 553 782T568 769T567 740T555 712Q546 700 530 688T496 665T461 644T434 625Q421 613 403 596T366 560T328 522T294 488T270 463T260 452V157Q260 127 238 94T184 36T116 4T52 17ZM87 87Q92 65 111 65T152 75T191 104T208 139V330L191 365Q171 339 150 305T112
234T87 158T87 87Z" />
<glyph unicode="9" glyph-name="nine" horiz-adv-x="408" d="M268 555V677Q248 662 221 646T164 619T103 603T43 607Q24 647 27 692T50 777T103 847T178 889T264 890T355 834Q366 823 375 821T389 817T394 808T390 781L199 52Q210 35 204 24T185 7T155 0T130 0V35L268
555ZM95 729Q94 725 94 716T93 695T93 673T95 659Q115 653 140 657T191 672T239 700T276 739T294 785T286 834Q260 852 229 849T170 828T121 784T95 729Z" />
<glyph unicode=":" glyph-name="colon" horiz-adv-x="269" d="M95 147Q91 172 97 197T117 242T147 278T181 298T212 297T233 269Q239 252 232 232T211 193T177 159T141 136T110 129T95 147ZM43 529Q19 545 16 560T22 589T54 613T98 631T144 640T181 640T197 626T182
599L95 512Q94 511 88 511T78 512Q74 514 61 520T43 529Z" />
<glyph unicode=";" glyph-name="semicolon" horiz-adv-x="217" d="M-104 -295Q-49 -235 -5 -175T67 -50T106 88T103 243Q109 260 125 262T156 260Q175 210 175 160T164 60T128 -36T77 -129T20 -215T-35 -295Q-48 -312 -69 -312T-104 -295ZM35 452Q41 471 58 482T95
499T137 505T173 504Q183 478 172 453T137 410T86 383T35 382Q33 386 33 395T32 416T32 438T35 452ZM103 460Q97 460 97 451T103 442Q111 442 111 451T103 460Z" />
<glyph unicode="&lt;" glyph-name="less" horiz-adv-x="807" d="M382 157Q349 167 305 175T213 187T119 193T35 190Q9 203 14 215T38 236T77 252T104 260Q117 267 144 283T206 320T278 363T350 406T412 443T452 469Q463 476 478 491T511 521T549 541T590 538Q597
527 583 510T542 472T477 428T401 382T324 337T258 296T216 264T208 243Q272 238 345 219T491 173T630 120T746 70Q758 64 761 53T762 32T750 17T729 17Q717 23 690 35T629 61T557 90T485 118T423 142T382 157Z" />
<glyph unicode="=" glyph-name="equal" horiz-adv-x="937" d="M51 168Q45 180 58 190T90 208T128 218T155 221L798 308H918Q925 297 924 288T917 271T903 259T885 255H658L103 151Q86 148 73 149T51 168ZM34 376Q36 379 42 386T51 394Q129 421 220 443T405 479T591
499T763 498Q767 485 764 468T745 446Q668 456 581 451T406 431T236 397T86 359H34Q33 361 33 367T34 376Z" />
<glyph unicode="&gt;" glyph-name="greater" horiz-adv-x="781" d="M122 17Q118 18 119 33T124 63T137 88T157 87Q169 97 194 116T252 160T320 210T388 260T447 302T486 330Q493 335 513 345L555 366Q577 377 597 386Q616 395 624 399Q559 410 482 418Q404 427
323 441T163 477T17 538Q11 550 16 557T31 569T52 574T70 572Q74 571 84 567T105 557T125 546T139 538L746 417Q750 416 750 409T746 399Q716 369 666 342T559 288T441 232T328 169T239 93T190 0L122 17Z" />
<glyph unicode="?" glyph-name="question" horiz-adv-x="642" d="M347 17Q331 42 336 62T357 93T395 99T434 70Q443 57 435 41T411 14T377 2T347 17ZM70 382Q59 387 47 399T26 428T18 459T35 486L469 781Q502 803 511 819T512 846T483 863T433 873T372 877T310
876T258 873T225 867Q195 859 190 868T195 892T229 921T278 937Q291 938 319 939T382 938T452 930T514 909T553 873T555 816Q554 812 550 804T540 788T529 772T521 764L139 504Q131 498 120 483T104 453T105 427T139 417Q152 415 184 415T252 414T320 414T365 417Q370
417 386 421T423 430T468 442T514 453T551 463T572 469H607Q611 456 609 439T590 417Q545 405 478 389T336 362T192 354T70 382Z" />
<glyph unicode="@" glyph-name="at" horiz-adv-x="1016" d="M113 70Q73 92 53 136T26 231T25 332T43 417Q70 498 108 568T196 698T312 804T460 885Q491 898 529 904T607 911T685 905T755 885Q840 850 890 800T960 691T973 570T935 449T854 336T737 243Q701 221
671 215T613 214T556 231T495 260Q479 268 463 266T429 256T393 240T357 227T321 224T286 243Q277 282 293 329T342 424T418 511T507 575T595 600T668 572Q674 566 659 557T618 536T558 510T491 481T431 450T390 417Q356 374 348 342T352 296T397 288T477 330Q488
338 497 359T517 400T543 427T581 417Q584 403 579 387T567 354T558 322T563 295Q574 278 594 273T637 270T686 282T735 302T777 326T807 347Q877 407 906 468T932 587T899 693T821 780T710 839T581 862T447 840T321 764Q287 733 245 685T166 578T102 457T68 332T83
217T165 122Q167 120 176 115T196 105T217 94T233 87Q286 64 299 45T293 19T226 22T113 70Z" />
<glyph unicode="A" glyph-name="A" horiz-adv-x="764" d="M592 191Q591 196 585 209T574 226Q563 230 534 239T471 260T409 282T367 296Q364 297 354 302T332 314T310 326T297 331Q278 331 261 308T227 251T191 179T149 109T99 61T37 52V87Q44 96 59 115T93 158T133
208T172 259T205 302T227 331Q240 348 232 378T207 444T171 514T144 574T145 610T194 608Q208 566 233 522T297 452Q329 473 357 509T410 590T455 685T492 785T521 879T541 955Q549 969 563 977T592 990Q599 981 601 946T603 861T602 749T600 625T600 503T605 398T619
324T644 296H749V234H662Q644 234 648 212T666 154T700 77T733 -5T749 -76T731 -121Q727 -123 714 -123T696 -121Q691 -103 676 -59T645 35T613 129T592 191ZM419 348Q425 345 441 338T477 322T515 306T541 296Q543 295 549 295T557 296Q561 337 557 399T547 526T533
650T523 746L332 399Q336 396 348 389T374 373T400 357T419 348Z" />
<glyph unicode="B" glyph-name="B" horiz-adv-x="859" d="M251 17Q249 23 249 36T251 52Q252 53 256 55T266 61T277 66T286 70Q330 82 373 96T459 128T540 169T615 225Q701 303 738 359T778 455T754 517T687 552T598 565T508 560T438 543T408 520L373 173Q372
164 364 160T346 155T329 159T321 173V452H251Q250 454 250 460T251 469Q255 474 264 486T285 513T306 539T321 555Q322 568 324 600T329 668T334 736T338 781Q340 808 333 819T312 831T283 825T251 806T221 783T199 764Q191 756 171 737T129 695T87 653T60 625H8Q-1
653 19 684T81 749T178 815T298 877T424 932T543 974T641 1001T702 1007Q720 1003 725 987T727 952T717 913T702 885Q671 841 645 806T592 739T533 676T460 607Q494 601 525 605T587 613T650 618T720 607Q742 600 759 592T788 573T809 546T824 504Q837 444 814
387T745 279T636 184T510 103T387 41T286 0Q275 -5 265 1T251 17ZM408 625Q415 631 428 644T459 675T496 710T531 746T561 778T581 799Q591 809 605 828T634 867T658 902T668 920V972Q638 977 598 967T517 942T443 910T390 885L408 851V625Z" />
<glyph unicode="C" glyph-name="C" horiz-adv-x="634" d="M139 17Q98 33 73 74T36 171T28 292T45 422T85 546T144 648T220 714T312 729Q314 719 319 695T330 642T340 590T347 555Q349 544 340 531T319 510T294 502T278 520Q275 530 273 549T268 589T260 628T246
655T224 658T191 625Q185 617 177 604T160 576T145 551T139 538L87 260Q78 214 88 178T120 116T174 76T241 60T313 68T382 104Q394 113 413 138T455 194T501 260T546 322T583 367T607 382Q622 338 606 289T552 194T462 107T352 41T239 7T139 17Z" />
<glyph unicode="D" glyph-name="D" horiz-adv-x="702" d="M275 80Q277 81 279 105T285 163T290 231T293 289Q293 302 293 326T294 379T294 441T295 501T294 552T293 584Q293 588 291 598T286 619T280 639T275 653Q240 656 204 649T133 633T64 618T-2 618Q-10 635
13 652T82 683T187 705T311 713T437 700T548 660T627 588T657 479Q657 456 649 430T629 378T601 329T570 289Q563 281 547 265T511 227T467 184T424 141T387 104T362 80Q359 56 354 36T339 5T314 -6T275 11Q253 -4 229 -31T178 -84T124 -125T68 -128V-93L275 80ZM362
150Q425 176 473 226T550 337T585 458T570 567T499 639T362 653V150Z" />
<glyph unicode="E" glyph-name="E" horiz-adv-x="477" d="M87 17Q48 46 36 86T17 173Q19 187 22 217T29 284T36 364T43 443T49 511T52 555Q53 563 53 583V666Q53 686 52 694L70 712L382 816H417Q422 802 419 786T399 764L139 659L122 642Q121 641 119 621T114
574T108 517T104 469Q104 464 104 452T103 426T103 400T104 382L399 538Q406 542 409 536T413 520T410 500T399 486Q382 475 358 461T307 432T254 401T206 374T172 355T157 347H87V122Q87 76 107 63T159 57T228 87T297 134T353 180T382 208Q386 233 393 249Q399
263 409 269T434 260Q440 229 425 193T380 123T312 61T232 16T153 -2T87 17Z" />
<glyph unicode="F" glyph-name="F" horiz-adv-x="677" d="M338 17Q337 18 337 34T336 72T336 118T338 157Q338 159 341 179T348 228T354 284T355 330Q353 331 347 331T338 330Q330 327 310 317T268 296T226 274T199 260Q175 272 178 286T201 314T251 345T311 378T363
413T390 452L460 781Q463 794 458 802T445 815T426 819T408 816Q394 811 372 801T327 779T287 759T268 746L43 504Q34 493 28 497T20 511T18 535T26 555Q32 564 45 582T76 622T112 669T148 716T178 755T199 781Q239 785 274 804T345 841T416 870T495 867Q518 844
523 811T524 740T506 660T482 581T463 509T460 452Q484 444 507 453T553 476T601 500T650 504Q655 490 647 475T633 452Q623 449 598 440T546 419T494 397T460 382Q457 380 452 376T441 366T431 355T425 347Q422 334 417 302T406 235T396 167T390 122Q388 109 390
91T393 54T385 21T355 0L338 17Z" />
<glyph unicode="G" glyph-name="G" horiz-adv-x="599" d="M104 52Q73 75 58 116T36 203T31 292T35 365Q36 376 40 405T50 468T61 531T70 572Q96 680 127 746T191 846T256 888T313 885T356 851T378 802T372 750T330 712Q325 710 318 709T303 707T292 708T287 712V816Q287
819 277 819T260 816Q227 797 200 754T153 660T120 562T104 486Q103 475 102 452T101 400T100 338T100 277T102 225T104 190Q104 173 113 155T135 120T163 90T191 70Q225 53 264 62T342 98T416 164T476 245T514 328T521 399Q484 404 447 398T374 382T300 367T225
365Q223 371 223 379T224 394T230 408T243 417Q279 417 323 431T412 460T499 485T572 486Q578 430 562 363T514 233T437 117T337 35T224 6T104 52Z" />
<glyph unicode="H" glyph-name="H" horiz-adv-x="772" d="M442 486Q442 487 436 487T425 486Q390 473 369 464T332 447T305 435T278 424T241 413T182 399V52Q182 34 174 33T157 40T139 62T130 87Q129 110 127 142T124 209T120 278T117 339T114 382L113 399L26
434Q24 435 24 441T26 452Q31 462 42 468T67 478T92 483T113 486Q113 501 115 538T120 616T125 695T130 746Q130 749 135 761T148 789T165 817T181 835T194 833T199 799Q199 793 197 773T191 729T185 686T182 659Q181 648 181 622T180 565T180 507T182 469Q207
463 248 467T330 483T408 514T460 555Q479 583 489 619T507 692T527 767T563 834Q592 869 620 882T673 892T714 871T737 828T736 773T702 712Q695 704 681 689T648 655T609 615T569 576T535 542T512 520Q506 460 508 395T518 265T538 137T563 17H495L442 486ZM563
729Q561 722 556 705T546 669T536 632T529 607Q559 622 584 649T629 706T660 765T676 814T674 841T650 834Q624 812 600 787T563 729Z" />
<glyph unicode="I" glyph-name="I" horiz-adv-x="807" d="M8 -93Q4 -86 8 -78T18 -62T32 -49T43 -41L303 62L321 80Q320 97 320 132T319 212V399Q319 444 319 479T321 531Q321 537 323 552T328 584T333 615T338 636H113Q100 636 97 643T95 659T102 676T113 688Q235
679 355 706Q376 754 413 780T495 815T588 819T679 799T754 765T800 725T803 687T751 660T629 651T425 671Q400 635 387 589T369 492T366 388T375 283T391 184T408 97Q438 91 468 95T529 110T590 132T650 155T711 169T772 167Q777 154 774 137T755 115Q674 100
580 80T388 31T197 -32T26 -111L8 -93ZM425 723Q537 702 603 697T701 696T733 712T714 736T659 757T583 768T500 760T425 723Z" />
<glyph unicode="J" glyph-name="J" horiz-adv-x="633" d="M191 -155Q155 -131 151 -82T163 27T210 152T274 275T338 375T383 435Q384 439 384 452T383 470Q381 482 377 511T367 574T356 637T348 679Q343 688 334 694T313 695L36 592Q24 587 15 593T2 609T1 629T18
644L591 835H643Q650 814 647 805T636 791T615 786T591 782Q581 779 557 772T504 757T452 741T418 730Q412 673 421 616T453 505L626 592Q640 599 653 594T673 579T678 558T660 540Q637 531 606 522T543 499T487 467T453 418Q449 408 446 372T439 283T427 170T407
51T377 -59T333 -141T272 -179T191 -155ZM226 -102Q240 -130 257 -122T291 -84T325 -11T353 75T374 150T383 193Q384 202 384 226V331Q384 356 383 366Q341 322 309 266T255 148T226 22T226 -102Z" />
<glyph unicode="K" glyph-name="K" horiz-adv-x="669" d="M572 17Q567 46 563 85T551 168T532 254T501 333T452 396T382 434Q374 436 363 437T340 438T320 437T312 434L278 122Q277 113 273 104T262 89T246 81T225 87V445L70 347Q58 340 40 345T17 365Q31 383
64 405T133 450T195 495T225 538L260 902Q261 911 268 915T283 921T300 922T312 920V590L365 625L572 885H607Q613 862 601 832T569 774T530 724T504 694Q497 687 482 673T449 642T409 606T369 570T335 540T312 520Q358 508 401 492T486 452Q511 437 530 405T565
330T590 241T605 151T611 71T608 13T595 -9T572 17Z" />
<glyph unicode="L" glyph-name="L" horiz-adv-x="651" d="M17 729Q17 732 21 735T30 741T42 745T52 746Q56 745 62 741T73 731T83 721T87 712V157Q99 172 127 177T195 185T280 187T375 192T469 208T555 243Q592 265 605 265T615 253T591 219T542 177T475 140T399
122Q389 121 369 121T323 121T269 120T215 121H169Q149 121 139 122Q127 113 115 92T88 50T56 18T17 17V729Z" />
<glyph unicode="M" glyph-name="M" horiz-adv-x="998" d="M807 17Q773 30 750 58T710 121T684 193T668 260Q665 276 661 310T651 387T640 477T629 567L620 644Q616 678 615 694L495 208L489 197Q485 188 478 178T461 157T443 143T424 140T408 157L147 677L78 157Q76
143 67 140T49 139T32 152T26 173L113 816Q113 820 120 826T136 836T153 840T165 834L438 227L598 834Q599 837 609 849T631 873T654 889T668 885L685 816Q688 748 690 658T701 473T730 286T790 122Q793 117 800 109T815 92T831 78T842 70Q852 66 869 69T904 73T938
72T963 52Q971 36 965 27T943 12T908 6T868 6T831 11T807 17Z" />
<glyph unicode="N" glyph-name="N" horiz-adv-x="599" d="M35 17Q21 169 17 321T17 625Q19 630 25 643T41 668T63 684T87 677L174 590L417 190L422 183Q428 176 436 169T452 157T469 157Q468 173 465 207T459 283T451 373T444 463T438 540T434 590Q433 603 433
633T436 702T447 780T469 850T504 896T555 902Q559 902 565 896T572 885Q565 876 555 864T536 837T517 809T504 781Q503 768 503 741T503 680T502 608T503 535V474Q503 447 504 434Q504 426 506 396T512 330T518 264T521 225Q521 215 521 194T522 151T522 111T521
87Q520 82 516 72T505 54T489 44T469 52L347 173L122 538L95 555V17Q95 3 87 0T68 -2T47 6T35 17Z" />
<glyph unicode="O" glyph-name="O" horiz-adv-x="477" d="M95 35Q45 85 33 146T26 271T50 400T78 520Q82 542 84 573T89 638T97 705T113 764Q114 766 120 772T130 781Q199 822 254 813T349 759T413 643T446 490T446 325T411 172T341 55T233 0Q209 -3 191 -4T157
-2T127 9T95 35ZM147 70Q197 36 235 40T302 76T348 159T375 272T386 400T382 524T366 627T338 694Q301 743 274 759T226 769T192 737T171 676T161 600T160 523T168 457T182 417Q185 413 197 404T224 384T253 358T276 330T285 302T268 278Q255 269 240 273T208 288T177
316T149 349T127 379T113 399L95 365V157Q95 151 100 139T112 114T129 88T147 70Z" />
<glyph unicode="P" glyph-name="P" horiz-adv-x="634" d="M243 295Q236 289 221 276T186 249T145 227T104 225Q96 228 92 234T86 247T84 263T87 278L269 382V677Q269 686 280 690T304 695T328 691T339 677V434Q381 456 421 488T491 556T534 626T534 685T477 723T347
729Q329 727 301 718T240 696T173 669T107 644T52 627T17 625Q20 642 31 655T57 680T90 699T122 712Q183 732 227 746T313 767T404 774T521 764Q577 750 598 726T617 672T592 609T539 542T471 476T403 418T352 373T330 347L295 35L289 27Q284 20 277 13T260 0T243
0V295Z" />
<glyph unicode="Q" glyph-name="Q" horiz-adv-x="685" d="M460 17Q454 21 442 30T416 51T390 73T373 87Q331 46 289 32T208 25T136 57T79 118T40 200T26 295Q26 362 32 432T53 572T91 707T147 834Q145 835 139 835T130 834Q127 832 119 827T103 817T88 806T78
799Q62 830 74 849T117 875T189 872T277 837T365 766T438 658T480 507T477 312Q475 302 469 278T454 225T438 173T425 139Q459 98 485 78T537 58T589 78T650 139Q662 112 658 89T638 47T601 17T553 1T503 0T460 17ZM199 87Q214 74 240 74T291 84T331 113T338 157L251
417Q241 446 227 451T197 448T169 425T147 399Q143 399 137 406T130 417Q130 431 136 447T153 477T175 502T199 520Q225 533 248 519T292 473T329 402T358 322T379 252T390 208Q413 219 424 255T437 340T433 445T415 553T388 648T355 712Q344 726 323 743T278 778T233
814T199 851L195 844Q193 839 190 834T185 823T182 816Q167 761 147 698T111 569T87 436T85 307T118 188T199 87Z" />
<glyph unicode="R" glyph-name="R" horiz-adv-x="720" d="M190 17Q189 35 188 71T185 154T181 252T178 349T175 431T174 486Q174 492 174 506T173 537T173 569T174 590Q162 584 146 569T110 537T72 505T35 486Q12 500 14 520T36 564T91 613T167 661T253 703T336
734T406 750T452 746Q480 717 479 674T460 582T413 480T357 378T311 285T293 210T322 164T417 157Q451 165 488 182T560 221T625 267T677 312Q712 303 716 286T703 248T650 204T571 160T480 121T389 95T311 87T260 104Q260 98 259 83T255 52T245 21T225 0Q214 -5
205 2T190 17ZM243 237L427 648Q420 671 404 680T366 690T323 680T283 659T252 632T240 605L243 237Z" />
<glyph unicode="S" glyph-name="S" horiz-adv-x="555" d="M157 17Q100 40 70 77T29 155T22 234T37 295T62 321T87 295Q76 232 87 186T123 109T184 64T258 49T332 62T394 102T432 169T434 260Q429 283 408 316T359 388T302 465T254 541T229 608T243 659Q259 672
290 698T359 751T434 796T504 816Q527 816 528 809T518 791T484 763T435 729T383 690T338 649T311 609T312 572Q348 521 384 469T448 367T488 268T492 175T444 90T330 17Q285 -2 244 -1T157 17Z" />
<glyph unicode="T" glyph-name="T" horiz-adv-x="712" d="M365 35Q367 104 364 173T356 312T348 451T347 590Q336 587 313 582T261 569T200 555T138 540T86 528T52 520Q38 517 25 523T0 538L35 572Q193 587 346 633T642 746H694Q699 738 695 729T682 713T666 699L659
694L417 607Q416 607 416 583T415 526T415 458T417 399Q417 391 418 364T421 302T425 226T429 150T432 88T434 52Q434 35 425 21T403 2T380 3T365 35Z" />
<glyph unicode="U" glyph-name="U" horiz-adv-x="622" d="M60 35Q46 53 39 79T28 135T24 192T26 243Q27 258 29 291T35 365T42 451T49 537T55 610T60 659Q65 668 74 675T95 677Q109 669 113 656T118 628T116 597T113 572Q110 520 100 457T85 327T83 199T113 87Q127
59 147 60T189 81T235 131T276 194T307 254T321 295V314Q321 329 321 347T320 380T321 399Q322 414 327 451T337 529T347 608T355 659Q360 675 377 678T408 677Q411 620 406 564T394 451T385 338T390 225Q398 174 415 148T456 115T506 114T562 137T616 172T664
208T700 235T720 243Q729 215 711 184T658 126T577 83T486 67T401 93T338 173Q322 160 303 136T261 86T215 37T165 2T113 -3T60 35Z" />
<glyph unicode="V" glyph-name="V" horiz-adv-x="659" d="M60 538Q57 542 47 554T31 579T24 606T43 625Q50 628 63 628T78 625L251 208Q259 274 272 342T308 475T362 601T442 712Q456 728 479 751T524 797T563 835T581 851H633Q641 839 630 825T601 799T566 777T546
764Q466 684 420 599T349 422T316 229T303 17L296 13Q291 11 286 8T275 3T268 0Q265 -2 259 -2T251 0L60 538Z" />
<glyph unicode="W" glyph-name="W" horiz-adv-x="755" d="M87 17Q65 32 52 58T31 115T21 174T17 225Q16 237 16 263T16 321T15 390T16 458V517Q16 543 17 555Q23 572 39 574T70 572Q70 557 71 526T74 456T77 373T81 290T84 220T87 173Q88 160 91 143T101 109T116
76T139 52Q162 70 180 109T212 197T239 300T262 402T284 487T307 540T334 545T365 486Q367 481 372 465T384 428T399 382T414 337T426 299T434 278Q445 250 460 217T495 155T535 106T578 84T620 101T659 173Q660 186 661 211T662 270T663 338T663 407T661 465T659
504Q659 510 654 535T643 589T632 644T625 677Q624 686 627 704T638 736T655 751T677 729Q692 662 706 585T727 429T727 271T694 122Q672 64 647 40T593 17T537 39T481 93T429 168T384 249T350 325T330 382H312Q310 372 306 347T296 295T285 243T278 208Q273 191
265 166T245 113T216 60T180 20T137 2T87 17Z" />
<glyph unicode="X" glyph-name="X" horiz-adv-x="729" d="M122 17Q114 59 127 101T155 186T180 269T174 347Q155 391 126 432T73 517T35 608T35 712Q78 721 100 708T132 668T144 606T152 535T168 468T208 417Q211 418 217 424T225 434Q251 475 269 506T302 562T331
610T363 655T407 704T469 764Q521 812 565 817T639 798T685 726T695 623T663 507T581 401T443 323T243 295Q227 266 216 230T196 157T182 83T174 17Q171 10 163 5T147 -1T132 1T122 17ZM278 382Q276 380 276 374T278 365Q366 351 431 367T540 416T610 495T643 585T644
669T615 730T561 749T485 710T389 593T278 382Z" />
<glyph unicode="Y" glyph-name="Y" horiz-adv-x="612" d="M190 -252Q166 -221 161 -180T163 -92T188 1T227 92T271 172T312 233Q355 290 382 331T418 412T420 499T382 615Q350 479 303 378T208 218T115 146T43 172T10 308T35 564Q40 580 57 582T87 581V251Q87
208 99 199T130 200T170 238T211 292T244 343T260 373Q265 387 273 416T292 483T314 562T336 642T353 710T365 755Q368 762 375 767T391 773T407 770T417 755L486 425Q488 418 501 422T535 436T578 461T621 489T657 514T677 529Q709 524 710 511T694 478T647 438T588
397T534 361T504 338Q504 328 503 308T501 262T497 208T493 154T489 108L486 78Q484 65 477 36T456 -29T426 -106T388 -183T344 -247T295 -288T243 -294T190 -252ZM243 -217Q258 -239 276 -233T313 -204T350 -148T382 -82T406 -24T417 8Q431 75 434 147T434 286Q406
262 374 226T313 146T259 54T223 -41T214 -134T243 -217Z" />
<glyph unicode="Z" glyph-name="Z" horiz-adv-x="669" d="M650 417Q646 370 621 314T559 204T475 103T382 27T293 -10T222 9T180 100T182 278L293 665L43 452Q42 452 37 456T28 465T23 476T26 486L321 746Q334 757 345 759T365 757T375 740T373 712Q350 643 329
581T289 458T256 336T233 208Q224 132 237 100T278 64T342 80T415 129T482 189T529 243Q537 254 542 274T553 317T564 364T579 405T600 431T633 434Q636 433 642 427T650 417Z" />
<glyph unicode="[" glyph-name="bracketleft" horiz-adv-x="651" d="M26 17Q25 19 25 26T26 35Q45 138 67 244T107 458T132 673T130 885Q131 888 150 895T198 911T262 930T329 950T388 971T425 989Q431 993 446 1005T477 1031T508 1057T529 1076H581V1059L495
972L216 851L113 122Q172 116 236 118T365 126T493 136T615 139Q620 126 618 109T598 87Q587 87 564 87T512 88H389Q360 88 337 88T303 87Q282 86 256 77T201 55T144 31T91 11T50 3T26 17Z" />
<glyph unicode="\" glyph-name="backslash" horiz-adv-x="538" d="M286 122Q228 169 176 229T87 359T33 505T26 659Q39 664 56 662T78 642Q91 546 119 463T193 309T305 178T460 70Q494 64 509 50T524 22T507 1T460 0Q449 6 424 23T372 59T320 96T286 122Z" />
<glyph unicode="]" glyph-name="bracketright" horiz-adv-x="599" d="M347 17Q308 33 273 40T202 49T126 51T35 52Q30 55 25 63T17 81T18 97T35 104H365Q366 196 370 298T386 503T417 708T469 902H104L35 920Q25 923 30 928T47 940T71 950T87 954Q92 954 112 951T156
945T199 940T225 937Q238 937 269 937T333 936T395 936T434 937Q451 938 465 945T494 959T523 971T555 972V937Q511 844 490 758T458 584T445 405T434 208Q432 183 436 155T443 101T447 52T438 16T408 2T347 17Z" />
<glyph unicode="^" glyph-name="asciicircum" horiz-adv-x="853" d="M702 559Q666 584 629 596T563 623T515 665T497 750L282 547Q269 544 262 550T253 566T251 587T256 604Q257 607 256 607T258 612T273 630T312 672T384 749T501 872Q503 876 509 874T518 869Q542
834 554 808T573 761T588 725T611 693T654 661T731 624L702 559Z" />
<glyph unicode="_" glyph-name="underscore" horiz-adv-x="929" d="M17 17Q13 26 16 32T25 42T38 49T52 52Q71 57 111 66T203 86T311 108T419 129T511 146T572 157Q590 159 617 160T676 162T740 163T799 163T844 161T868 157L902 139Q903 120 887 112T846 103T789
104T729 111T676 119T642 122Q625 119 588 113T505 98T408 80T311 62T228 46T174 35Q169 34 148 24T101 5T51 -3T17 17Z" />
<glyph unicode="`" glyph-name="grave" horiz-adv-x="232" d="M36 712Q27 751 29 764T42 775T70 757T106 725T147 694T187 677Q189 653 181 644T158 636T125 645T90 666T58 690T36 712Z" />
<glyph unicode="a" glyph-name="a" horiz-adv-x="507" d="M43 17Q23 59 22 102T26 190Q27 204 31 232T40 294T51 366T62 438T71 498T78 538Q86 580 95 609T121 655T164 672T233 659Q238 658 244 652T251 642Q253 629 258 602T271 541T285 469T300 397T312 335T321
295Q336 224 358 197T405 168T456 184T509 221T558 255T598 260Q598 241 589 223T568 190T540 161T512 139Q456 102 419 100T355 117T313 169T285 236T261 296T233 330Q230 317 221 285T200 217T179 149T165 104Q163 99 157 85T140 55T118 23T92 -1T66 -7T43 17ZM95
312Q93 300 93 268T92 200T92 132T95 87Q130 140 158 210T200 356T212 506T182 642Q165 611 150 564T124 469T106 378T95 312Z" />
<glyph unicode="b" glyph-name="b" horiz-adv-x="477" d="M132 9Q127 24 139 41T173 75T222 111T275 146T320 178T347 208Q362 238 372 278T386 355T386 423T367 465T326 462T260 399Q249 385 234 350T202 271T167 185T132 111T98 72T70 87Q70 94 70 111T71 147T71
184T70 208Q67 276 63 341T55 470T45 598T35 729Q33 758 37 768T48 775T64 756T82 720T97 674T104 625Q104 613 105 587T109 529T113 460T116 392T119 333T122 295Q144 311 159 334T189 382T220 430T260 469Q324 509 366 512T430 494T457 429T449 336T411 229T346
125T257 40T148 -8L139 0Q133 7 132 9Z" />
<glyph unicode="c" glyph-name="c" horiz-adv-x="520" d="M87 35Q50 63 34 102T16 188T25 284T56 379T98 464T146 531T191 570T225 572Q227 561 232 532T243 469T253 406T260 365Q262 352 261 338T255 312T239 295T208 295Q207 302 203 319T193 355T182 392T174
417L157 434Q126 413 106 374T76 290T71 199T94 119T146 67T230 61T349 119T504 260V225Q504 222 492 207T463 173T429 134T399 104Q366 73 329 47T251 8T170 -1T87 35Z" />
<glyph unicode="d" glyph-name="d" horiz-adv-x="530" d="M35 52Q23 75 20 115T21 206T37 310T66 413T106 502T156 565T214 588T278 555L312 834Q313 838 320 844T330 851Q334 851 340 849T351 845T361 839T365 834V347Q365 292 384 252T434 193T505 180T590 225Q604
225 603 213T592 183T562 148T519 119T469 106T417 122Q397 135 381 153T353 192T330 235T312 278Q308 269 299 252T277 212T252 165T227 118T205 78T190 52Q176 26 155 13T112 0T69 13T35 52ZM87 87Q88 84 92 80T101 72T111 67T122 70Q171 107 201 158T251 266T281
382T302 496Q248 503 210 488T145 441T104 367T83 277T78 180T87 87Z" />
<glyph unicode="e" glyph-name="e" horiz-adv-x="524" d="M208 17Q166 50 142 94T104 190Q98 185 86 179T62 169T37 164T20 166T16 179T35 208Q37 211 47 221T70 242T92 264T104 278Q115 303 117 333T120 395T124 460T139 520Q146 536 165 559T209 605T259 644T303
666T330 657T330 607Q319 563 297 522T250 440T205 359T174 278Q169 256 169 225T176 162T199 106T243 70Q275 58 307 64T369 87T428 129T480 182T523 234T555 278L572 260Q579 254 564 226T519 163T449 90T367 28T283 -3T208 17ZM174 452Q173 447 173 435T172
408T172 382T174 365Q206 420 234 482T278 607Q255 599 237 583T205 545T185 499T174 452Z" />
<glyph unicode="f" glyph-name="f" horiz-adv-x="538" d="M233 17Q231 21 229 28T224 44T219 60T216 70Q215 81 214 104T210 156T207 217T203 279T200 331T199 365Q197 366 190 366T181 365Q173 363 154 358T112 347L70 337Q50 332 43 330L-1 374L199 434L233
816Q237 853 256 879T301 920T354 938T402 933T430 904T425 851Q410 840 402 842T389 851T381 869T373 885Q354 904 340 898T314 867T295 805T282 726T274 640T270 560T268 499V469Q288 463 312 470T362 490T413 517T460 540T499 545T528 520L495 486L286 399L268
382Q267 380 267 354T266 292T266 219T268 157Q269 146 275 124T286 77T289 31T268 0Q257 -5 248 2T233 17Z" />
<glyph unicode="g" glyph-name="g" horiz-adv-x="540" d="M190 -295Q159 -264 158 -219T173 -121T220 -13T282 93T341 188T382 260Q389 276 386 305T375 365T359 421T347 452L330 434L139 104Q137 102 131 97T116 87T100 77T87 70Q55 57 40 73T24 124T34 210T67
317T118 430T181 535T253 619T329 666Q348 660 348 651T339 630T311 605T275 580T241 556T220 537Q196 484 170 437T124 343T92 247T87 139L104 157Q141 201 171 258T226 372T272 482T311 570T346 617T379 605T414 515T452 330Q457 334 471 344T502 366T534 386T555
399Q560 401 573 401T590 399Q586 381 568 358T528 313T488 277T469 260Q469 250 469 230T467 184T463 130T459 76T455 30L452 0Q450 -13 438 -47T406 -125T362 -211T309 -282T251 -318T190 -295ZM243 -122Q242 -130 242 -149T241 -191T241 -233T243 -260Q296 -238
331 -186T384 -71T405 59T399 174Q370 150 344 115T297 39T262 -44T243 -122Z" />
<glyph unicode="h" glyph-name="h" horiz-adv-x="469" d="M104 35Q113 141 109 238T92 431T64 626T35 834Q35 837 35 844T34 859T34 875T35 885H70Q73 867 79 829T94 743T112 642T130 541T146 455T157 399Q157 396 159 389T164 373T169 358T174 347Q177 355 186
374T207 416T228 458T243 486Q259 515 284 539T333 569T375 558T399 486Q400 473 401 446T405 385T409 312T412 240T415 179T417 139Q428 125 433 107T434 70Q414 63 400 71T376 93T359 126T347 157Q349 195 350 239T350 328T344 419T330 504Q312 513 297 497T268
449T242 372T219 280T198 183T178 96T159 31T139 0L104 35Z" />
<glyph unicode="i" glyph-name="i" horiz-adv-x="200" d="M35 52Q33 56 30 67T24 93T19 120T17 139V625Q17 635 26 639T46 643T67 643T78 642V104Q78 87 89 76T115 59T146 51T173 52Q187 31 173 19T132 5T77 14T35 52ZM0 799Q0 828 23 836T70 834V781Q67 780 60
780T44 779T28 779T17 781Q13 782 7 789T0 799Z" />
<glyph unicode="j" glyph-name="j" horiz-adv-x="264" d="M-52 -590Q-67 -570 -72 -543T-75 -487T-67 -431T-52 -382Q-48 -370 -39 -346T-18 -290T7 -225T32 -161T55 -106L70 -70Q74 -30 70 7T58 81T39 153T17 226Q13 239 18 247T33 258T52 258T70 243Q86 216
94 189T108 133T120 75T138 17Q149 26 173 46T228 86T290 118T347 122Q350 121 357 115T365 104Q357 91 338 79T295 55T244 30T197 5T161 -22T147 -52V-417Q147 -433 139 -460T116 -516T82 -572T40 -613T-6 -624T-52 -590ZM0 -417Q-1 -425 -1 -444T-2 -486T-2 -528T0
-555Q2 -556 8 -556T17 -555Q33 -547 45 -520T67 -464T81 -410T87 -382Q88 -370 88 -341T89 -278T89 -215T87 -173Q55 -230 30 -290T0 -417ZM70 521Q63 534 70 543T91 556T118 555T138 539Q144 526 137 518T116 506T90 506T70 521Z" />
<glyph unicode="k" glyph-name="k" horiz-adv-x="481" d="M90 70Q91 86 97 116T109 181T116 250T110 307T82 339T22 330Q0 336 -3 347T3 372T28 402T62 436T92 471T108 504Q107 512 105 539T98 601T91 677T83 753T77 815T73 851Q72 864 73 875T81 895T97 905T125
902Q130 864 135 816T146 717T159 615T177 520Q187 528 201 547T231 590T264 637T298 675T328 692T351 677Q352 675 352 669T351 659Q338 619 310 585T252 519T200 454T177 382Q186 374 203 356L290 269Q315 245 337 223T376 182L402 157Q408 151 421 138T444 108T455
77T437 52Q435 51 429 51T420 52Q369 116 308 181T177 295Q176 286 174 267T169 224T162 174T154 123T147 80T142 52Q141 47 137 37T125 16T109 1T90 0Q90 4 90 13T89 34T89 56T90 70Z" />
<glyph unicode="l" glyph-name="l" horiz-adv-x="249" d="M78 17Q56 31 46 60T31 122T26 183V225Q26 236 27 269T30 347T34 442T38 537T41 615T43 659Q43 674 43 711T44 789T44 868T43 920Q58 931 69 935Q79 939 87 937T95 920V104Q95 97 99 88T111 71T127 63T147
70L268 173Q273 150 267 125T248 78T214 38T171 11T124 1T78 17Z" />
<glyph unicode="m" glyph-name="m" horiz-adv-x="746" d="M321 17Q323 57 323 101T322 191T316 280T303 365Q289 438 268 476T223 517T179 487T147 382Q145 371 142 348T136 296T129 235T122 173T116 121T113 87Q107 71 91 68T60 70L26 590Q25 603 32 612T48 625T66
625T78 607L113 452Q144 527 170 558T220 591T264 569T303 514T339 445T373 382Q414 523 466 585T567 637T653 544T702 312Q704 289 705 252T706 178T705 116T702 87L685 70L650 104Q656 156 654 212T643 326T622 437T598 538Q584 578 564 584T524 578T486 538T460
486Q454 471 446 446T429 396T415 352T408 330Q404 312 399 268T388 174T378 80T373 17Q373 2 365 0T347 2Q336 6 321 17Z" />
<glyph unicode="n" glyph-name="n" horiz-adv-x="507" d="M70 17Q71 30 71 62V198Q71 230 70 243Q69 249 67 269T61 316T53 373T45 430T39 477T35 504Q33 518 33 533T39 559T55 574T87 572Q88 551 90 523T97 463T107 402T122 347Q135 384 147 412T176 465T212
510T260 555Q295 584 318 579T357 545T383 471T401 376T417 277T439 193T471 141T521 139Q530 112 524 100T502 86T465 93T424 119T387 159T365 208Q361 226 358 267T349 355T331 447T295 520L225 452Q222 448 211 416T185 343T158 259T139 190Q137 181 134 157T128
104T124 52T122 17Q113 -1 96 -1T70 17Z" />
<glyph unicode="o" glyph-name="o" horiz-adv-x="344" d="M101 52Q76 89 71 134T71 230T87 331T106 429T115 518T101 590Q93 606 80 606T51 602T20 599T-8 618Q-7 622 -1 628T9 636Q99 649 159 618T256 529T305 397T315 250T292 115T244 18T178 -12T101 52ZM153
87Q154 84 159 79T169 68T180 58T187 52Q224 73 242 109T263 189T260 281T238 375T206 458T170 520Q169 507 166 480T160 419T153 347T146 275T139 213T135 173Q134 163 135 151T140 126T146 104T153 87Z" />
<glyph unicode="p" glyph-name="p" horiz-adv-x="564" d="M78 -503Q58 -490 45 -463T24 -404T13 -343T8 -295Q4 -209 5 -114T23 76T72 258T165 417Q196 454 225 484T287 539T357 580T442 608Q485 617 507 599T537 546T537 462T513 362T472 261T419 175T361 118T303
104Q299 111 312 137T346 201T393 285T439 380T471 474T477 556Q474 572 459 575T427 574T393 564T373 556Q297 523 242 461T148 318T89 146T58 -33T51 -202T64 -341T92 -430T130 -451Q132 -450 138 -443T147 -433Q161 -391 170 -341T183 -237T189 -128T189 -22T186
76T181 157Q178 164 177 183T175 224T175 267T182 300T195 308T216 279Q218 266 220 234T226 166T231 97T233 52Q234 38 234 14T235 -39V-154Q235 -180 235 -199T233 -225Q233 -234 229 -260T219 -317T208 -376T199 -416Q193 -437 182 -459T156 -496T121 -514T78
-503Z" />
<glyph unicode="q" glyph-name="q" horiz-adv-x="339" d="M417 -625Q390 -586 371 -543T340 -457T324 -377T322 -312Q313 -252 276 -218T189 -168T84 -146T-17 -139Q-22 -131 -16 -118T0 -104Q31 -100 65 -101T132 -108T198 -121T260 -139Q264 -106 261 -65T252
16T239 94T225 157Q208 144 197 128T175 96T152 63T122 35Q82 8 59 17T28 60T22 144T39 251T72 362T118 460T170 524T225 538Q227 536 227 529T225 520Q220 511 201 476T157 393T109 290T71 188T58 108T87 70Q121 79 145 103T187 162T214 236T231 315T239 390T243
452Q248 468 265 471T295 469Q295 457 295 431T294 373T294 304T293 236T294 177T295 139Q295 126 297 100T304 41T312 -27T322 -95T334 -152T347 -190Q366 -226 399 -263T467 -340T529 -421T564 -504T551 -589T469 -677Q465 -675 458 -668T442 -652T426 -636T417
-625ZM399 -434Q402 -444 412 -469L433 -521Q444 -549 454 -573T469 -607Q485 -623 491 -612T497 -573T487 -505T461 -424T420 -343T365 -278Q364 -280 364 -286T365 -295Q368 -307 373 -329L383 -373Q388 -395 392 -412T399 -434Z" />
<glyph unicode="r" glyph-name="r" horiz-adv-x="422" d="M99 11Q83 -22 72 -22T54 -1T42 63T36 154T35 259T38 365T45 458T53 525T63 552T73 525Q105 549 142 570T218 606T298 625T377 618Q381 605 378 588T359 566Q343 569 317 569T262 565T204 552T152 529T114
494T99 445V11Z" />
<glyph unicode="s" glyph-name="s" horiz-adv-x="373" d="M78 17Q54 35 43 67T31 128T38 172T60 173Q58 119 80 91T133 56T200 60T261 94T296 152T286 225Q260 254 228 281T162 336T98 391T43 452Q41 454 41 460T43 469Q50 478 63 497T93 540T129 590T165 641T195
684T216 712Q230 730 244 733T286 729Q285 725 278 712T268 694Q260 682 238 653T191 590T144 527T113 486Q105 474 119 458T159 422T218 378T280 325T330 265T352 197T332 120T251 35Q233 21 212 11T167 -2T121 -2T78 17Z" />
<glyph unicode="t" glyph-name="t" horiz-adv-x="445" d="M286 70Q264 107 252 153T235 249T230 346T233 434Q219 438 201 432T163 417T122 396T83 380T50 378T26 399Q17 416 27 426T58 441T106 449T157 456T198 466T216 486L251 867Q252 876 260 881T278 886T295
882T303 867V538Q317 535 330 538T356 547T381 555T408 555Q414 544 406 535T390 520L372 509Q360 502 347 494T321 478T303 469Q302 455 302 421T301 347T301 274T303 225Q307 178 321 139T359 78T416 56T495 87Q502 64 494 46T468 18T425 4T375 7T325 28T286
70Z" />
<glyph unicode="u" glyph-name="u" horiz-adv-x="449" d="M52 52Q50 56 47 65T42 86T37 108T35 122V504Q35 513 42 517T58 522T75 522T87 520Q86 507 86 480T86 419T85 347T86 274V213Q86 186 87 173Q89 117 102 95T135 74T176 96T216 145T247 205T260 260V520H330Q328
497 325 460T322 380T323 293T332 209T354 140T390 98T445 93T521 139Q530 113 514 89T472 47T416 21T365 17Q362 18 356 25T347 35Q343 42 333 61T312 103T292 145T278 173Q272 162 258 140T225 92T183 44T137 12T92 9T52 52Z" />
<glyph unicode="v" glyph-name="v" horiz-adv-x="425" d="M78 347Q75 355 65 375L44 417Q33 439 23 458T8 486Q11 497 21 502T42 507T63 501T78 486L216 173L338 607L343 614Q349 622 356 629T373 642T390 642Q392 638 392 625T390 607Q388 599 378 569T355 504T333
438T321 399Q319 391 315 366T305 306T294 234T283 162T273 103T268 70Q266 58 262 44T249 19T229 1T199 0Q195 13 186 40T164 102T139 174T114 246T93 307T78 347Z" />
<glyph unicode="w" glyph-name="w" horiz-adv-x="616" d="M355 52Q341 76 330 118T309 206T294 290Q288 328 286 346Q283 328 274 293Q265 258 250 218T215 137T171 67T118 27T60 35Q58 36 55 42T50 57T45 74T43 87V504Q28 532 26 550T30 579T46 591T68 591T87
578T95 555V139L113 87Q162 121 192 170T238 275T260 390T268 504Q273 505 281 506T298 506T312 500T321 486L390 122L425 52Q448 68 460 108T477 203T482 322T483 450T483 572T493 672T517 735T563 746Q583 740 582 724T572 690T551 658T538 642V173Q538 153 530
127T507 77T475 32T437 6T395 8T355 52Z" />
<glyph unicode="x" glyph-name="x" horiz-adv-x="590" d="M35 17Q23 55 27 91T43 161T74 230T108 297T133 365T139 434Q138 441 135 461T129 507T121 564T114 621T107 668T104 694Q100 734 110 763T135 806T161 819T174 799Q173 786 173 754T172 686T172 617T174
572Q174 568 176 558T180 537T186 517T191 504Q249 598 310 646T425 706T519 696T574 630T575 521T504 382Q468 334 430 314T356 291T286 295T226 308T181 314T157 295Q152 281 144 255T127 200T112 150T104 122Q101 110 102 89T101 49T88 15T52 0Q50 0 44 6T35
17ZM278 347Q306 324 338 327T399 347Q446 375 475 413T516 492T527 569T510 631T467 666T404 659T322 598T225 469Q216 446 217 429T226 398T249 371T278 347Z" />
<glyph unicode="y" glyph-name="y" horiz-adv-x="763" d="M426 -295Q401 -278 392 -250T383 -188T393 -117T414 -44T439 21T461 70Q465 79 474 98T495 141L545 241Q557 265 567 284T582 312Q587 359 576 386T543 423T495 428T439 407T384 367T339 312Q333 307
318 289T282 244T236 186T184 126T132 71T86 32T49 17T27 35Q26 36 26 41T25 51T25 62T27 70Q29 80 35 112T50 187T69 279T87 371T103 445T113 487Q115 496 126 511T151 536T178 545T200 522Q190 507 177 475T152 403T127 319T107 233T95 158T96 104Q138 161 190
225T296 346T403 445T502 499T582 486T634 382L756 486H808Q817 458 808 448T780 433T741 421T705 394T687 335T703 225Q717 175 722 122T721 17Q718 -6 706 -45T673 -128T626 -212T568 -280T500 -313T426 -295ZM443 -208Q451 -246 469 -256T512 -254T562 -211T611
-137T650 -42T669 66T661 175T616 278Q593 261 570 226T527 146T488 51T459 -48T443 -139T443 -208Z" />
<glyph unicode="z" glyph-name="z" horiz-adv-x="639" d="M87 62Q50 108 47 153T61 241T108 320T168 387T220 436T244 463Q233 451 213 442T170 430T122 430T79 449T50 491T45 561Q59 577 69 575T89 562T107 534T126 501T150 475T182 469Q209 474 237 496T295
540T358 576T429 580Q455 573 453 557T434 521T388 479T332 439T283 408T258 393Q235 376 211 357T167 316T132 269T113 217Q104 161 114 126T150 73T210 49T287 49T371 67T454 95T527 128T582 159Q595 159 607 153T624 138T626 118T602 99Q571 87 530 69T441 34T345
6T248 -6T160 9T87 62Z" />
<glyph unicode="{" glyph-name="braceleft" horiz-adv-x="572" d="M129 -150Q109 -142 89 -128T57 -96T43 -56T59 -10Q67 0 84 21T121 70T165 127T208 185T244 234T267 267Q305 321 307 354T291 406T242 437T182 459T137 485T129 527Q152 532 181 537T240 551T295
575T337 614Q339 616 339 623T337 632L164 753Q153 761 149 779T143 817T143 853T146 874Q164 894 189 920T245 973T308 1024T376 1064T445 1086T511 1082Q517 1070 494 1055T433 1022T351 981T272 931T219 873T215 805Q223 785 242 767T286 731T335 697T378 663T405
629T406 593T370 554T285 510Q333 472 347 430T354 343T320 256T264 171T200 93T146 24Q118 -15 119 -41T141 -82T199 -104T280 -112T371 -111T460 -105T534 -99T580 -97Q593 -117 582 -130T544 -152T476 -163T392 -167T303 -166T221 -161T159 -155T129 -150Z"
/>
<glyph unicode="|" glyph-name="bar" horiz-adv-x="182" d="M87 764Q88 779 98 782T118 777T136 748T139 694Q137 681 132 641T120 548T104 434T89 320T77 226T70 173Q69 165 69 146T68 104T68 62T70 35Q68 32 63 25T50 11T34 0T17 0Q13 2 7 8T0 17L87 764Z" />
<glyph unicode="}" glyph-name="braceright" horiz-adv-x="529" d="M82 -218Q72 -198 86 -185T129 -162T196 -142T274 -122T349 -94T407 -54T434 3T415 84T337 193T185 337Q171 370 172 399T187 453T222 502T272 546L99 581Q81 584 73 600T64 635T68 673T82 701Q224
797 295 861T361 969T270 1038T12 1083Q7 1094 30 1102T92 1114T180 1116T276 1102T360 1071T415 1020T421 944T359 841Q351 835 335 823T299 795T256 763T213 730T176 703T152 684Q129 666 134 653T169 632Q246 612 323 611T481 615Q491 595 481 580T448 551T395
525T334 499T278 472T238 441T226 402T255 354L481 129Q511 99 512 64T494 -6T438 -76T360 -140T272 -192T187 -226T120 -237T82 -218Z" />
<glyph unicode="~" glyph-name="asciitilde" horiz-adv-x="711" d="M91 721Q118 774 147 795T208 819T272 810T338 785T403 765T467 766Q479 775 499 795T542 836T584 873T616 892T628 876T608 810Q579 780 548 756T485 717T420 696T354 698Q332 704 303 720T243
745T183 747T132 698L91 721Z" />
<glyph unicode="&#xa0;" glyph-name="nbspace" horiz-adv-x="512" />
<glyph unicode="&#xa1;" glyph-name="exclamdown" horiz-adv-x="382" d="M86 512Q81 496 87 487T104 473T126 469T142 477T143 495T116 523Q113 526 108 525T99 522T91 516T86 512ZM102 341Q72 306 64 261T63 166T92 63T140 -36T198 -123T256 -188T306 -222T339
-215Q340 -214 340 -210T339 -204Q289 -161 244 -109T167 1T121 118T116 239Q117 244 126 260T142 294T150 329T132 353Q121 356 114 351T102 341Z" />
<glyph unicode="&#xa2;" glyph-name="cent" horiz-adv-x="520" d="M260 651Q261 666 271 676T293 687T312 674T316 627Q314 614 310 579T298 497Q295 477 292 456Q302 441 310 428Q323 408 331 392T341 369Q343 356 343 343T340 319T325 305T296 306Q295 313 277
336L276 338Q274 319 271 302Q265 256 261 221T255 173Q254 168 252 148T247 101Q246 85 244 67Q287 81 342 117Q412 164 504 260V225Q504 222 492 207T463 173T429 134T399 104Q366 73 329 47T251 8Q244 6 238 4Q237 -5 237 -15Q235 -42 234 -62T233 -87L226 -97Q221
-105 214 -111T198 -122T181 -122Q177 -120 171 -114T164 -104L177 -1Q173 -1 169 0Q128 4 87 35Q50 63 34 102T16 188T25 284T56 379T98 464T146 531T191 570T225 572Q227 565 235 549Q240 541 245 531L260 651ZM201 437Q183 460 181 467Q145 447 120 406T82 317T70
219T87 131T137 71Q157 59 184 57L228 401Q214 420 201 437Z" />
<glyph unicode="&#xa3;" glyph-name="sterling" horiz-adv-x="770" d="M14 414Q10 422 13 428T22 438T35 445T49 449Q62 452 90 457Q107 460 126 464Q128 534 132 588Q140 680 157 730T201 800T265 816T350 794Q409 773 424 759T427 737T383 725T317 721T253 722T216
728V480Q221 481 230 483Q270 491 306 498T371 510T414 518Q437 522 443 514T446 494T433 468T414 449Q385 453 346 448T264 434L210 422V157Q218 172 247 169T318 156T407 131T505 108T602 102T689 128Q726 150 739 150T749 138T726 104T677 62T610 25T534 7Q524
6 503 14T454 35T396 63T339 91T290 112T258 122Q246 113 234 92T207 50T175 18T136 17Q127 216 126 356V403Q115 401 104 400Q70 395 46 397T14 414Z" />
<glyph unicode="&#xa4;" glyph-name="currency" horiz-adv-x="665" d="M169 310Q168 322 170 340T177 379T193 413L78 579Q84 613 99 626T130 639T156 626T164 598Q159 576 166 559T186 524T212 489T231 446Q267 487 296 509T349 542T396 552T441 547Q444 547
455 559T479 590T507 629T530 664Q540 680 556 687T584 690T603 670T600 625Q597 615 579 605T541 583T506 557T492 524Q493 508 504 483T521 427T520 365T479 304Q477 302 490 292T522 266T560 234T591 201Q622 156 627 138T621 120T587 138T539 179Q534 183 518
199T484 232T449 259T427 263Q396 223 373 206T331 185T300 190T273 212L248 238Q236 251 221 258Q210 263 196 252T167 220T136 175T107 129T83 93T67 79Q65 79 58 83T43 94T29 105T22 113L175 300Q171 299 169 310ZM253 411Q235 395 240 369T262 317T298 276T332
263Q385 280 415 314T456 385T457 453T421 495T352 489T253 411Z" />
<glyph unicode="&#xa5;" glyph-name="yen" horiz-adv-x="427" d="M47 271Q28 266 26 275T29 296T41 319T50 331Q109 345 144 354T204 367V402Q204 415 204 422T203 434T200 443Q198 448 186 467T156 513T119 568T82 623T52 668T36 692Q39 703 49 708T70 713T91
707T106 692L230 533L338 754L343 761Q349 769 356 776T373 789T390 789Q392 785 392 772T390 754Q388 749 379 725T356 667T326 594T297 521T274 463T263 433Q262 425 261 421T259 412T258 398T258 372Q270 372 283 371T314 368T355 365T411 361Q415 348 412 331T393
309Q344 315 313 317T260 318V288Q260 283 260 277T261 257Q269 258 278 259T297 261L425 271Q432 260 431 251T424 236T410 226T392 222L265 197Q267 150 269 113T272 49T274 11T274 4Q259 1 253 -3T243 -9T233 -12T209 -7Q204 10 203 58T201 184L100 165Q83 162
70 163T48 182Q45 187 47 195T65 212T112 231T201 250L204 309Q192 306 178 302T146 292T104 282T47 271Z" />
<glyph unicode="&#xa6;" glyph-name="brokenbar" horiz-adv-x="108" d="M17 422V714Q16 724 25 727T46 730T67 727T78 724V426L17 422ZM78 383V19L27 12Q25 16 24 37T21 103T19 216T19 381L78 383Z" />
<glyph unicode="&#xa7;" glyph-name="section" horiz-adv-x="313" d="M81 230Q35 268 24 300T24 356T64 394T127 411T195 404T254 368Q244 390 223 405T177 433T127 455T81 478T48 508T39 550Q40 580 53 599T86 627T129 636T174 628T213 603T238 563Q238 560 233
549T225 535Q211 548 192 561T153 580T116 579T89 545Q87 536 101 525T139 502T191 474T243 441T284 401T302 354T286 298T221 232Q216 229 206 228T191 224Q228 205 246 176T265 117T254 59T214 17T151 3T69 30Q56 37 49 51T40 83T38 116T44 144T54 160T68 157Q63
120 75 98T108 65T151 56T191 69T216 100T211 147Q195 166 180 181T145 214Q131 214 112 217T81 230ZM93 349Q79 333 78 318T86 291T117 271T170 262Q185 257 202 271T241 319Q232 328 215 340T177 361T134 368T93 349Z" />
<glyph unicode="&#xa8;" glyph-name="dieresis" horiz-adv-x="432" d="M138 551Q130 562 139 579T163 608T197 620T224 594Q234 567 226 548T201 521T166 520T138 551ZM305 567Q296 585 305 603T330 631T363 634T389 594Q395 570 387 556T363 537T332 540T305 567Z" />
<glyph unicode="&#xa9;" glyph-name="copyright" horiz-adv-x="682" d="M117 61Q105 68 94 81T74 108T59 138T48 166Q39 209 43 276T66 420T116 572T194 707T299 799T430 825Q483 819 518 790T575 712T607 597T623 451Q612 392 585 332T519 217T432 121T332 54T224
30T117 61ZM135 131Q154 118 172 108T208 92T244 87T282 98Q345 129 390 167T468 250Q440 231 411 219T351 203T290 207T228 239Q179 276 164 323T157 418T191 510T246 586T306 630T354 631Q356 620 365 599T384 555T403 511T414 479Q416 466 415 452T409 426T393
409T362 409Q361 416 357 433T347 469T336 506T328 531L311 548Q282 550 260 530T226 478T210 409T217 339T250 286T312 266T406 296T537 394Q552 452 550 508T534 611T494 694T436 747T366 759T291 721Q271 703 250 679T211 628T177 571T152 513Q147 498 137 468T116
401T98 324T90 246T99 179T135 131Z" />
<glyph unicode="&#xaa;" glyph-name="ordfeminine" horiz-adv-x="338" d="M27 182Q16 202 16 222T18 264Q18 271 20 284T25 313T31 348T36 382T41 410T45 429Q50 449 55 463T68 484T91 492T127 487Q130 486 133 483T137 479Q138 472 141 460T147 431T155 396T162
362T169 333T174 314Q182 280 193 267T218 254T246 261T273 279T299 295T320 297Q320 288 316 280T305 264T290 251T275 240Q245 222 226 221T192 229T170 254T155 286T142 314T127 331Q126 324 121 309T110 277T99 245T91 223Q90 221 87 215T78 200T67 185T53
173T39 170T27 182ZM54 322Q53 316 53 301T53 269T53 237T54 215Q73 240 87 273T110 343T117 414T100 479Q91 464 83 442T70 396T60 353T54 322Z" />
<glyph unicode="&#xab;" glyph-name="guillemotleft" horiz-adv-x="1091" d="M382 157Q349 167 305 175T213 187T119 193T35 190Q9 203 14 215T38 236T77 252T104 260Q117 267 144 283T206 320T278 363T350 406T412 443T452 469Q463 476 478 491T511 521T549 541T590
538Q597 527 583 510T542 472T477 428T401 382T324 337T258 296T216 264T208 243Q272 238 345 219T491 173T630 120T746 70Q758 64 761 53T762 32T750 17T729 17Q717 23 690 35T629 61T557 90T485 118T423 142T382 157ZM676 219Q643 229 599 237T507 249T413 255T329
252Q303 265 308 277T332 298T371 314T398 322Q411 330 438 346T500 382T572 425T644 468T706 505T746 531Q757 538 772 553T805 583T843 603T884 600Q891 589 877 572T836 534T771 490T695 444T618 399T552 358T510 326T502 305Q566 300 639 281T785 235T924 182T1040
132Q1052 126 1055 115T1056 94T1044 79T1023 79Q1010 85 984 97T923 123T851 152T779 180T717 204T676 219Z" />
<glyph unicode="&#xac;" glyph-name="logicalnot" horiz-adv-x="464" d="M8 278Q4 286 7 292T16 302T29 309T43 312Q56 315 83 320T144 333T215 347T286 361T347 373T389 381Q412 385 425 377T444 343T449 273T443 163Q440 163 431 160T411 154T392 148T383 149Q382
185 382 215T382 268T378 301T365 311Q335 306 298 299T224 284T150 270T84 262T34 263T8 278Z" />
<glyph unicode="&#xad;" glyph-name="uni00AD" horiz-adv-x="477" d="M8 278Q4 286 7 292T16 302T29 309T43 312Q56 315 84 320T149 333T224 347T300 362T365 374T408 382Q431 386 437 378T440 357T427 331T408 312Q379 316 340 311T259 298T175 279T99 264T40
261T8 278Z" />
<glyph unicode="&#xae;" glyph-name="registered" horiz-adv-x="648" d="M104 17Q91 23 80 35T61 63T46 94T35 122Q27 150 26 197T32 300T54 417T92 537T147 647T219 732T309 781T417 781Q496 761 543 713T609 599T624 459T594 310Q577 261 550 213T488 123T409
51T317 3T214 -11T104 17ZM267 702Q243 690 212 643T151 530Q184 548 222 564T295 591T359 606T401 604Q422 585 421 557T407 497T371 429T329 362T294 301T280 252T302 222T374 217Q412 225 452 244T527 286Q548 345 555 408T557 528T531 631T474 704T387 732T267
702ZM203 124Q202 136 201 160T199 214T196 278T194 342T192 397T191 433Q191 437 191 447T190 467T190 487T191 501Q178 496 159 480T120 449Q100 392 87 335T71 227T80 140T122 87Q188 52 245 50T350 68T435 129T500 222Q467 207 430 195T358 177T296 170T256
182Q256 177 255 168T252 147T244 127T229 113Q221 110 214 114T203 124ZM243 269L382 540Q374 563 351 566T303 561T259 538T240 511L243 269Z" />
<glyph unicode="&#xaf;" glyph-name="overscore" horiz-adv-x="477" d="M16 614Q12 622 15 628T24 638T37 645T51 648Q64 651 92 656T157 669T232 683T308 698T373 710T416 718Q439 722 445 714T448 693T435 667T416 648Q387 652 348 647T267 634T183 615T107
600T48 597T16 614Z" />
<glyph unicode="&#xb0;" glyph-name="degree" horiz-adv-x="235" d="M33 406Q20 411 11 421T-2 440Q-15 459 -12 487T6 543T46 594T98 628T157 632T216 590Q226 559 216 524T181 461T117 417T33 406ZM97 589Q67 570 48 540T27 485T44 446T108 446Q144 469 160
492T177 536T170 571T148 595T120 603T97 589Z" />
<glyph unicode="&#xb1;" glyph-name="plusminus" horiz-adv-x="834" d="M57 53Q53 61 56 67T65 77T78 84T92 87Q99 89 121 92T175 99L247 108Q287 113 331 118Q331 130 331 145T330 176T330 204T332 223Q335 268 344 317T349 413Q301 409 256 392T169 358T89 330T19
326Q12 337 19 349T40 370T67 387T89 396Q99 399 119 404T165 417T219 431T273 446T319 458T349 466Q351 479 352 504T356 557T365 611T384 656Q386 660 392 666T401 673Q405 673 411 671T422 667T432 661T436 656V483Q446 482 480 486T560 496T653 506T741 509T802
498T818 466Q817 463 811 457T801 448Q792 448 770 448T722 449T675 449T644 448Q621 447 586 445T518 440T461 435T436 431Q431 425 425 405T414 357T403 295T394 230T387 169T381 124Q448 132 516 140T643 154T741 166T794 174Q817 178 823 170T826 149T813 123T794
104Q772 107 730 104T633 95T517 80T393 63T272 48T168 39T93 39T57 53Z" />
<glyph unicode="&#xb2;" glyph-name="twosuperior" horiz-adv-x="712" d="M23 248Q28 271 41 291T74 329T123 358T188 377Q205 397 221 419T248 465T264 513T264 561L162 505H137V521L251 594Q265 602 277 602T298 596T311 584T315 570Q314 564 312 555T308 536T305
521T303 513Q300 506 291 489T272 453T253 416T239 393Q228 386 232 382T247 374Q259 371 277 369Q294 368 315 369T360 374T406 381T449 388T483 392T505 393Q509 392 514 389T518 385L493 360Q491 359 476 356T441 348T400 341T366 336Q357 335 334 335T284 335T234
335T200 336Q196 332 184 321T157 296T130 272T112 256Q106 252 97 245T76 231T51 222T23 224Q23 225 23 228T22 236T22 243T23 248ZM61 252Q56 252 56 248T61 244Q65 244 65 248T61 252ZM74 280Q73 278 73 272T74 264H87L162 336H150Q145 336 134 330T111 316T87
297T74 280Z" />
<glyph unicode="&#xb3;" glyph-name="threesuperior" horiz-adv-x="316" d="M55 199Q39 208 30 220T16 247T11 276T12 305Q18 308 24 302T37 284T53 259T73 234T99 216T132 211T174 228T226 272Q265 312 268 342T249 388T184 403T87 378Q74 378 79 385T99 405T137
432T178 461T212 488T226 508V516Q217 519 205 516T179 506T152 494T126 484T104 481T87 492Q85 496 87 500T94 507T102 513L109 516Q117 518 136 523T178 533T220 542T247 549Q249 550 257 550T268 549Q273 536 267 521T249 492T226 465T205 443Q212 445 222 442T237
435Q265 417 277 395T288 350T276 303T245 258T202 221T153 196T102 187T55 199Z" />
<glyph unicode="&#xb4;" glyph-name="acute" horiz-adv-x="192" d="M32 640Q25 652 19 661T19 683T48 714T124 761Q143 766 149 759T151 739T134 709T105 677T69 652T32 640Z" />
<glyph unicode="&#xb5;" glyph-name="mu" horiz-adv-x="449" d="M52 52Q51 53 51 35T52 -10T52 -69T49 -127L0 -130L22 119L35 504Q35 513 42 517T58 522T75 522T87 520Q86 507 86 480T86 419T85 347T86 274V213Q86 186 87 173Q89 117 102 95T135 74T176 96T216
145T247 205T260 260V520H330Q328 497 325 460T322 380T323 293T332 209T354 140T390 98T445 93T521 139Q530 113 514 89T472 47T416 21T365 17Q362 18 356 25T347 35Q343 42 333 61T312 103T292 145T278 173Q272 162 258 140T225 92T183 44T137 12T92 9T52 52Z"
/>
<glyph unicode="&#xb6;" glyph-name="paragraph" horiz-adv-x="456" d="M265 12L391 583Q380 585 368 586T341 591L199 52Q210 35 204 24T185 7T155 0T130 0V35L219 487Q199 472 172 456T115 429T54 413T-6 417Q-27 457 -15 503T33 592T122 668T234 715T355 719T467
664L317 11L265 12Z" />
<glyph unicode="&#xb7;" glyph-name="middot" horiz-adv-x="184" d="M56 282Q40 307 45 327T66 358T104 364T143 335Q152 322 144 306T120 279T86 267T56 282Z" />
<glyph unicode="&#xb8;" glyph-name="cedilla" horiz-adv-x="450" d="M112 -422Q96 -410 86 -391T70 -352T64 -311T66 -278T77 -261T94 -266Q92 -320 114 -348T167 -383T234 -380T294 -345T329 -287T319 -214Q293 -185 262 -177T200 -164T138 -150T84 -108Q73
-54 81 -23T105 13T135 -2T154 -73Q152 -80 169 -88T212 -106T271 -131T330 -163T375 -204T392 -257T367 -323T285 -404Q267 -418 246 -428T201 -441T155 -441T112 -422Z" />
<glyph unicode="&#xb9;" glyph-name="onesuperior" horiz-adv-x="316" d="M51 189Q55 234 57 272T63 346T74 419T96 500Q90 496 80 492T58 484T33 479T7 480Q6 482 14 489T36 505T67 526T103 548T137 565T163 575T177 573T173 555Q170 552 165 543T154 524T143
506T134 494Q132 487 129 472T122 438T114 399T107 359T100 326T96 304Q94 288 94 285T94 282T95 287T96 290Q96 283 95 269T92 240T91 211T89 189Q89 185 86 182T77 176T64 174T51 175V189Z" />
<glyph unicode="&#xba;" glyph-name="ordmasculine" horiz-adv-x="213" d="M46 262Q26 280 22 302T22 349T34 399T49 448T56 492T46 528Q39 536 29 536T6 534T-18 532T-40 541Q-40 543 -35 546T-27 550Q44 557 92 542T168 498T207 433T215 360T196 293T159 245T107
230T46 262ZM87 279Q87 278 91 276T99 270T108 265T113 262Q143 272 157 290T174 329T171 375T154 421T128 462T100 493Q99 487 97 474T93 443T87 408T81 372T76 342T72 322Q72 317 73 311T76 298T81 287T87 279Z" />
<glyph unicode="&#xbb;" glyph-name="guillemotright" horiz-adv-x="1137" d="M122 17Q118 18 119 33T124 63T137 88T157 87Q169 97 194 116T252 160T320 210T388 260T447 302T486 330Q493 335 513 345L555 366Q577 377 597 386Q616 395 624 399Q559 410 482 418Q404
427 323 441T163 477T17 538Q11 550 16 557T31 569T52 574T70 572Q74 571 84 567T105 557T125 546T139 538L746 417Q750 416 750 409T746 399Q716 369 666 342T559 288T441 232T328 169T239 93T190 0L122 17ZM446 54Q442 55 443 70T448 100T461 125T481 124Q493
134 518 153T576 197T644 247T712 297T771 339T810 367Q817 372 837 382L879 403Q901 414 921 423Q940 432 948 436Q883 447 806 455Q728 464 647 478T487 514T341 575Q335 587 340 594T355 606T376 611T394 609Q398 608 408 604T429 594T449 583T463 575L1070
454Q1074 453 1074 446T1070 436Q1040 406 990 379T883 325T765 269T652 206T563 130T514 37L446 54Z" />
<glyph unicode="&#xbc;" glyph-name="onequarter" horiz-adv-x="621" d="M66 207Q70 249 72 284T78 354T89 424T110 501Q104 497 94 493T73 485T48 480T23 482Q22 483 30 489T51 505T82 525T117 545T150 562T175 571T189 570T185 553Q183 549 178 541T167 524T155
506T147 495Q145 488 143 474T136 442T128 405T121 368T114 336T110 315Q108 300 108 297T108 294T109 299T110 302Q109 295 108 282T106 255T105 227T103 207Q103 203 100 200T92 194T79 192T66 194V207ZM29 49Q27 51 27 57T29 65L36 101Q42 125 48 155T62 220T77
284T90 339T99 375Q114 427 134 481T178 587T228 689T283 782Q291 795 306 814T337 852T365 883T381 896H410V863Q403 855 385 832T346 783T308 734T283 701Q281 698 277 692T268 677T259 662T255 652Q249 636 237 603T209 529T176 441T144 352T117 277T99 227Q90
203 91 174T92 115T85 59T57 16Q55 17 51 21T42 31T33 42T29 49ZM359 47Q360 50 361 60T365 83T370 111T375 138T378 161T381 174Q381 176 381 180T381 188T381 196T381 201Q374 203 355 208T315 220T275 231T248 238Q236 241 225 234T204 216T186 192T169 172T153
163T138 174Q141 181 146 195T160 227T176 264T192 302T206 335T215 356Q217 360 222 367T233 379T247 384T259 374Q257 370 253 360T243 338T233 316T227 301Q226 299 226 293T227 283Q232 283 246 279T278 268T316 255T352 243T380 236T392 238L469 483Q471 489
477 490T489 491T500 484T502 473L448 274V247Q450 248 456 250T469 256T482 261T491 265H502Q486 255 473 246T451 228T435 209T425 183Q424 177 421 165T415 138T409 106T402 74T397 47T392 29Q390 27 386 26T378 23T368 20T359 20Q359 22 359 25T359 33T359
42T359 47Z" />
<glyph unicode="&#xbd;" glyph-name="onehalf" horiz-adv-x="635" d="M71 246Q75 302 77 349T82 442T91 534T111 636Q106 630 97 624T78 614T55 609T32 610Q31 612 38 621T58 642T86 668T118 695T148 717T171 729T183 727T179 704Q177 700 173 689T163 666T152
643T145 627Q143 618 141 600T135 558T128 508T121 459T115 417T111 389Q109 370 109 365T109 362T110 368T111 373Q111 363 110 346T108 309T107 273T105 246Q105 241 102 237T94 229T83 226T71 229V246ZM15 34Q13 36 13 42T15 50L22 87Q28 111 35 142T50 207T65
272T79 328T88 364Q104 418 124 472T170 579T223 682T280 777Q288 789 304 809T336 847T366 878T382 892H412V859Q404 850 385 827T345 778T306 728T280 694Q277 691 273 685T265 670T256 655T250 645Q244 629 231 596T202 520T169 431T135 342T107 265T88 215Q79
190 80 160T81 101T74 45T44 1Q43 2 38 6T29 16T20 27T15 34ZM121 98Q126 129 137 158T166 211T208 252T264 278Q279 306 293 337T317 402T330 470T330 537L242 458H220V481L319 583Q331 595 341 595T359 587T371 568T374 549Q373 541 372 528T369 503T366 480T364
470Q361 460 354 436T337 385T320 334T308 300Q299 291 303 285T315 274Q326 269 341 267Q356 265 374 268T413 275T453 285T490 294T520 300T539 300Q542 299 546 295T550 289L528 255Q527 253 514 248T483 238T448 227T419 221Q410 220 390 220T347 219T304 219T275
221Q271 215 261 199T238 164T214 130T198 109Q193 102 185 92T168 73T146 60T121 63Q121 65 121 70T121 80T121 91T121 98ZM154 103Q150 103 150 97T154 91Q158 91 158 97T154 103ZM165 142Q165 140 165 132T165 120H177L242 221H231Q227 221 218 213T197 192T177
166T165 142Z" />
<glyph unicode="&#xbe;" glyph-name="threequarters" horiz-adv-x="699" d="M58 218Q42 230 33 245T20 278T16 314T17 351Q22 355 28 347T40 324T55 293T74 262T99 240T130 234T170 254T219 310Q256 360 259 398T241 455T179 473T88 443Q75 443 80 452T99 477T134
510T173 547T205 581T219 606V616Q210 619 199 615T175 604T149 588T125 576T104 572T88 586Q85 590 87 595T94 604T102 612L108 616Q116 619 134 625T174 637T213 649T239 658Q241 658 249 658T259 658Q264 641 258 622T242 586T219 552T199 525Q206 527 215 523T229
514Q256 492 267 465T278 407T266 348T237 292T197 245T150 214T101 203T58 218ZM161 -11Q160 -9 160 -3T161 6L168 44Q174 69 180 101T194 170T208 238T220 296T229 334Q243 390 262 447T305 559T353 666T406 766Q414 779 428 799T458 839T485 872T500 886H528V851Q521
842 503 818T466 767T429 714T406 679Q403 676 400 669T392 654T383 638T378 627Q373 610 361 576T334 497T303 404T272 310T246 230T229 178Q221 152 221 121T222 59T216 0T189 -46Q187 -45 183 -40T174 -30T166 -19T161 -11ZM384 26Q384 30 385 42T389 70T393
104T398 138T401 166T403 183Q403 185 403 189T403 199T403 210T403 216Q397 219 381 226T345 240T310 253T286 262Q276 265 267 257T248 234T232 205T217 180T203 169T189 183Q192 191 197 208T209 248T223 295T237 341T249 381T258 407Q259 413 263 422T273 437T285
443T296 430Q295 425 291 413T282 386T273 358T268 340Q267 337 267 329T268 318Q272 317 284 312T313 299T346 283T377 268T402 260T413 262L481 564Q482 573 487 575T498 575T507 567T510 553L462 306V273Q464 274 469 277T480 284T492 291T500 295H510Q495 282
484 272T465 250T451 225T442 194Q441 187 439 172T433 138T427 98T422 59T417 25T413 3Q411 1 408 -1T400 -5T392 -8T384 -8Q384 -6 384 -1T383 9T383 19T384 26Z" />
<glyph unicode="&#xbf;" glyph-name="questiondown" horiz-adv-x="513" d="M132 640Q144 619 141 602T125 577T96 571T66 595Q59 606 65 620T84 642T109 652T132 640ZM343 334Q351 330 360 320T376 296T382 269T369 247L39 0Q14 -18 8 -31T7 -54T29 -68T67 -77T113
-80T160 -79T199 -76T225 -72Q248 -65 252 -73T248 -93T222 -116T185 -130Q175 -131 153 -132T105 -131T52 -124T5 -107T-24 -76T-26 -29Q-25 -26 -22 -19T-14 -5T-6 8T0 15L290 232Q296 237 305 249T317 274T316 297T290 305Q280 307 256 307T205 308T153 308T118
305Q115 305 103 302T74 294T40 284T5 275T-23 266T-39 262H-66Q-69 272 -67 286T-53 305Q-18 315 33 329T140 351T250 358T343 334Z" />
<glyph unicode="&#xc0;" glyph-name="Agrave" horiz-adv-x="764" d="M590 61Q589 66 583 79T572 96Q561 100 532 109T469 130T407 152T365 166Q362 167 352 172T330 184T308 196T295 201Q276 201 259 178T225 121T189 49T147 -21T97 -69T35 -78V-43Q42 -34 57
-15T91 28T131 78T170 129T203 172T225 201Q238 218 230 248T205 314T169 384T142 444T143 480T192 478Q206 436 231 392T295 322Q327 343 355 379T408 460T453 555T490 655T519 749T539 825Q547 839 561 847T590 860Q597 851 599 816T601 731T600 619T598 495T598
373T603 268T617 194T642 166H747V104H660Q642 104 646 82T664 24T698 -53T731 -135T747 -206T729 -251Q725 -253 712 -253T694 -251Q689 -233 674 -189T643 -95T611 -1T590 61ZM417 218Q423 215 439 208T475 192T513 176T539 166Q541 165 547 165T555 166Q559
207 555 269T545 396T531 520T521 616L330 269Q334 266 346 259T372 243T398 227T417 218ZM494 1087Q485 1126 487 1139T500 1150T528 1132T564 1100T605 1069T645 1052Q647 1028 639 1019T616 1011T583 1020T548 1041T516 1065T494 1087Z" />
<glyph unicode="&#xc1;" glyph-name="Aacute" horiz-adv-x="764" d="M614 36Q613 41 607 54T596 71Q585 75 556 84T493 105T431 127T389 141Q386 142 376 147T354 159T332 171T319 176Q300 176 283 153T249 96T213 24T171 -46T121 -94T59 -103V-68Q66 -59 81 -40T115
3T155 53T194 104T227 147T249 176Q262 193 254 223T229 289T193 359T166 419T167 455T216 453Q230 411 255 367T319 297Q351 318 379 354T432 435T477 530T514 630T543 724T563 800Q571 814 585 822T614 835Q621 826 623 791T625 706T624 594T622 470T622 348T627
243T641 169T666 141H771V79H684Q666 79 670 57T688 -1T722 -78T755 -160T771 -231T753 -276Q749 -278 736 -278T718 -276Q713 -258 698 -214T667 -120T635 -26T614 36ZM441 193Q447 190 463 183T499 167T537 151T563 141Q565 140 571 140T579 141Q583 182 579
244T569 371T555 495T545 591L354 244Q358 241 370 234T396 218T422 202T441 193ZM422 1109Q415 1121 409 1130T409 1152T438 1183T514 1230Q533 1235 539 1228T541 1208T524 1178T495 1146T459 1121T422 1109Z" />
<glyph unicode="&#xc2;" glyph-name="Acircumflex" horiz-adv-x="764" d="M599 368Q598 373 592 386T581 403Q570 407 541 416T478 437T416 459T374 473Q371 474 361 479T339 491T317 503T304 508Q285 508 268 485T234 428T198 356T156 286T106 238T44 229V264Q51
273 66 292T100 335T140 385T179 436T212 479T234 508Q247 525 239 555T214 621T178 691T151 751T152 787T201 785Q215 743 240 699T304 629Q336 650 364 686T417 767T462 862T499 962T528 1056T548 1132Q556 1146 570 1154T599 1167Q606 1158 608 1123T610 1038T609
926T607 802T607 680T612 575T626 501T651 473H756V411H669Q651 411 655 389T673 331T707 254T740 172T756 101T738 56Q734 54 721 54T703 56Q698 74 683 118T652 212T620 306T599 368ZM426 525Q432 522 448 515T484 499T522 483T548 473Q550 472 556 472T564 473Q568
514 564 576T554 703T540 827T530 923L339 576Q343 573 355 566T381 550T407 534T426 525ZM795 1095Q780 1109 765 1117T734 1132T701 1150T665 1180T625 1231T579 1314L375 1083Q362 1080 355 1086T346 1102T344 1123T349 1140Q350 1143 349 1143T351 1148T366
1166T405 1208T477 1285T594 1408Q596 1412 602 1410T611 1405Q635 1370 647 1344T666 1297T681 1261T704 1229T747 1197T824 1160L795 1095Z" />
<glyph unicode="&#xc3;" glyph-name="Atilde" horiz-adv-x="764" d="M599 58Q598 63 592 76T581 93Q570 97 541 106T478 127T416 149T374 163Q371 164 361 169T339 181T317 193T304 198Q285 198 268 175T234 118T198 46T156 -24T106 -72T44 -81V-46Q51 -37 66
-18T100 25T140 75T179 126T212 169T234 198Q247 215 239 245T214 311T178 381T151 441T152 477T201 475Q215 433 240 389T304 319Q336 340 364 376T417 457T462 552T499 652T528 746T548 822Q556 836 570 844T599 857Q606 848 608 813T610 728T609 616T607 492T607
370T612 265T626 191T651 163H756V101H669Q651 101 655 79T673 21T707 -56T740 -138T756 -209T738 -254Q734 -256 721 -256T703 -254Q698 -236 683 -192T652 -98T620 -4T599 58ZM426 215Q432 212 448 205T484 189T522 173T548 163Q550 162 556 162T564 163Q568
204 564 266T554 393T540 517T530 613L339 266Q343 263 355 256T381 240T407 224T426 215ZM225 1201Q252 1254 281 1275T342 1299T406 1290T472 1265T537 1245T601 1246Q613 1255 633 1275T676 1316T718 1353T750 1372T762 1356T742 1290Q713 1260 682 1236T619
1197T554 1176T488 1178Q466 1184 437 1200T377 1225T317 1227T266 1178L225 1201Z" />
<glyph unicode="&#xc4;" glyph-name="Adieresis" horiz-adv-x="764" d="M592 334Q591 339 585 352T574 369Q563 373 534 382T471 403T409 425T367 439Q364 440 354 445T332 457T310 469T297 474Q278 474 261 451T227 394T191 322T149 252T99 204T37 195V230Q44
239 59 258T93 301T133 351T172 402T205 445T227 474Q240 491 232 521T207 587T171 657T144 717T145 753T194 751Q208 709 233 665T297 595Q329 616 357 652T410 733T455 828T492 928T521 1022T541 1098Q549 1112 563 1120T592 1133Q599 1124 601 1089T603 1004T602
892T600 768T600 646T605 541T619 467T644 439H749V377H662Q644 377 648 355T666 297T700 220T733 138T749 67T731 22Q727 20 714 20T696 22Q691 40 676 84T645 178T613 272T592 334ZM419 491Q425 488 441 481T477 465T515 449T541 439Q543 438 549 438T557 439Q561
480 557 542T547 669T533 793T523 889L332 542Q336 539 348 532T374 516T400 500T419 491ZM403 1178Q395 1189 404 1206T428 1235T462 1247T489 1221Q499 1194 491 1175T466 1148T431 1147T403 1178ZM570 1194Q561 1212 570 1230T595 1258T628 1261T654 1221Q660
1197 652 1183T628 1164T597 1167T570 1194Z" />
<glyph unicode="&#xc5;" glyph-name="Aring" horiz-adv-x="764" d="M592 191Q591 196 585 209T574 226Q563 230 534 239T471 260T409 282T367 296Q364 297 354 302T332 314T310 326T297 331Q278 331 261 308T227 251T191 179T149 109T99 61T37 52V87Q44 96 59
115T93 158T133 208T172 259T205 302T227 331Q240 348 232 378T207 444T171 514T144 574T145 610T194 608Q208 566 233 522T297 452Q329 473 357 509T410 590T455 685T492 785T521 879T541 955Q549 969 563 977T592 990Q599 981 601 946T603 861T602 749T600 625T600
503T605 398T619 324T644 296H749V234H662Q644 234 648 212T666 154T700 77T733 -5T749 -76T731 -121Q727 -123 714 -123T696 -121Q691 -103 676 -59T645 35T613 129T592 191ZM419 348Q425 345 441 338T477 322T515 306T541 296Q543 295 549 295T557 296Q561 337
557 399T547 526T533 650T523 746L332 399Q336 396 348 389T374 373T400 357T419 348ZM484 1099Q468 1108 457 1128T439 1164Q430 1204 434 1251T460 1334T523 1385T630 1376Q658 1366 672 1345T697 1299Q713 1248 708 1202T676 1126T602 1087T484 1099ZM495 1143Q508
1134 525 1129T560 1124T594 1127T621 1140Q657 1200 664 1241T660 1306T623 1339T570 1343T515 1322T474 1279T462 1218T495 1143Z" />
<glyph unicode="&#xc6;" glyph-name="AE" horiz-adv-x="1070" d="M581 199Q580 203 573 216T563 233Q551 237 522 246T459 267T397 289T355 303Q352 304 342 309T321 321T299 333T286 338Q267 338 250 315T216 259T180 187T138 117T88 69T26 59V94Q33 103 48 122T82
165T121 215T160 266T194 309T216 338Q229 355 221 386T195 452T159 522T132 582T133 617T182 615Q189 594 198 572T221 530T250 491T286 459Q318 479 351 511T416 583T477 667T529 754T569 837T594 910Q602 924 617 932T645 945Q653 934 653 891T648 780T640 627T637
444L645 555Q646 563 646 583V666Q646 686 645 694L663 712L975 816H1010Q1015 802 1012 786T992 764L732 659L715 642Q714 641 712 621T706 574T701 517T697 469Q697 464 697 452T696 426T696 400T697 382L992 538Q999 542 1002 536T1006 520T1003 500T992 486Q975
475 951 461T900 432T847 401T799 374T765 355T750 347H680V122Q680 76 700 63T752 57T820 87T890 134T946 180T975 208Q979 233 986 249Q992 263 1002 269T1027 260Q1033 229 1018 193T973 124T906 62T827 17T748 -2T681 16Q689 -17 699 -49T720 -114Q718 -115
706 -115T679 -116T652 -114T637 -112Q633 -100 629 -76T620 -21T610 43T600 108T590 163T581 199ZM408 355Q414 352 430 345T466 329T503 313T529 303Q531 302 537 302T546 303Q550 344 556 398T568 507T577 613T577 701L321 407Q325 404 337 396T363 380T389
365T408 355Z" />
<glyph unicode="&#xc7;" glyph-name="Ccedilla" horiz-adv-x="634" d="M211 -383Q195 -371 185 -352T169 -313T163 -272T165 -239T176 -222T193 -227Q191 -281 213 -309T266 -344T333 -341T393 -306T428 -248T418 -175Q392 -146 361 -138T299 -125T237 -111T183
-69Q173 -23 178 6Q157 9 139 17Q98 33 73 74T36 171T28 292T45 422T85 546T144 648T220 714T312 729Q314 719 319 695T330 642T340 590T347 555Q349 544 340 531T319 510T294 502T278 520Q275 530 273 549T268 589T260 628T246 655T224 658T191 625Q185 617 177
604T160 576T145 551T139 538L87 260Q78 214 88 178T120 116T174 76T241 60T313 68T382 104Q394 113 413 138T455 194T501 260T546 322T583 367T607 382Q622 338 606 289T552 194T462 107T352 41Q299 17 247 8Q251 -9 253 -34Q251 -41 268 -49T311 -67T370 -92T429
-124T474 -165T491 -218T466 -284T384 -365Q366 -379 345 -389T300 -402T254 -402T211 -383Z" />
<glyph unicode="&#xc8;" glyph-name="Egrave" horiz-adv-x="477" d="M87 17Q48 46 36 86T17 173Q19 187 22 217T29 284T36 364T43 443T49 511T52 555Q53 563 53 583V666Q53 686 52 694L70 712L382 816H417Q422 802 419 786T399 764L139 659L122 642Q121 641 119
621T114 574T108 517T104 469Q104 464 104 452T103 426T103 400T104 382L399 538Q406 542 409 536T413 520T410 500T399 486Q382 475 358 461T307 432T254 401T206 374T172 355T157 347H87V122Q87 76 107 63T159 57T228 87T297 134T353 180T382 208Q386 233 393
249Q399 263 409 269T434 260Q440 229 425 193T380 123T312 61T232 16T153 -2T87 17ZM214 924Q205 963 207 976T220 987T248 969T284 937T325 906T365 889Q367 865 359 856T336 848T303 857T268 878T236 902T214 924Z" />
<glyph unicode="&#xc9;" glyph-name="Eacute" horiz-adv-x="477" d="M87 17Q48 46 36 86T17 173Q19 187 22 217T29 284T36 364T43 443T49 511T52 555Q53 563 53 583V666Q53 686 52 694L70 712L382 816H417Q422 802 419 786T399 764L139 659L122 642Q121 641 119
621T114 574T108 517T104 469Q104 464 104 452T103 426T103 400T104 382L399 538Q406 542 409 536T413 520T410 500T399 486Q382 475 358 461T307 432T254 401T206 374T172 355T157 347H87V122Q87 76 107 63T159 57T228 87T297 134T353 180T382 208Q386 233 393
249Q399 263 409 269T434 260Q440 229 425 193T380 123T312 61T232 16T153 -2T87 17ZM181 852Q174 864 168 873T168 895T197 926T273 973Q292 978 298 971T300 951T283 921T254 889T218 864T181 852Z" />
<glyph unicode="&#xca;" glyph-name="Ecircumflex" horiz-adv-x="477" d="M87 17Q48 46 36 86T17 173Q19 187 22 217T29 284T36 364T43 443T49 511T52 555Q53 563 53 583V666Q53 686 52 694L70 712L382 816H417Q422 802 419 786T399 764L139 659L122 642Q121 641
119 621T114 574T108 517T104 469Q104 464 104 452T103 426T103 400T104 382L399 538Q406 542 409 536T413 520T410 500T399 486Q382 475 358 461T307 432T254 401T206 374T172 355T157 347H87V122Q87 76 107 63T159 57T228 87T297 134T353 180T382 208Q386 233
393 249Q399 263 409 269T434 260Q440 229 425 193T380 123T312 61T232 16T153 -2T87 17ZM477 823Q462 837 447 845T416 860T383 878T347 908T307 959T261 1042L57 811Q44 808 37 814T28 830T26 851T31 868Q32 871 31 871T33 876T48 894T87 936T159 1013T276 1136Q278
1140 284 1138T293 1133Q317 1098 329 1072T348 1025T363 989T386 957T429 925T506 888L477 823Z" />
<glyph unicode="&#xcb;" glyph-name="Edieresis" horiz-adv-x="477" d="M87 17Q48 46 36 86T17 173Q19 187 22 217T29 284T36 364T43 443T49 511T52 555Q53 563 53 583V666Q53 686 52 694L70 712L382 816H417Q422 802 419 786T399 764L139 659L122 642Q121 641
119 621T114 574T108 517T104 469Q104 464 104 452T103 426T103 400T104 382L399 538Q406 542 409 536T413 520T410 500T399 486Q382 475 358 461T307 432T254 401T206 374T172 355T157 347H87V122Q87 76 107 63T159 57T228 87T297 134T353 180T382 208Q386 233
393 249Q399 263 409 269T434 260Q440 229 425 193T380 123T312 61T232 16T153 -2T87 17ZM82 878Q74 889 83 906T107 935T141 947T168 921Q178 894 170 875T145 848T110 847T82 878ZM249 894Q240 912 249 930T274 958T307 961T333 921Q339 897 331 883T307 864T276
867T249 894Z" />
<glyph unicode="&#xcc;" glyph-name="Igrave" horiz-adv-x="807" d="M8 -93Q4 -86 8 -78T18 -62T32 -49T43 -41L303 62L321 80Q320 97 320 132T319 212V399Q319 444 319 479T321 531Q321 537 323 552T328 584T333 615T338 636H113Q100 636 97 643T95 659T102 676T113
688Q235 679 355 706Q376 754 413 780T495 815T588 819T679 799T754 765T800 725T803 687T751 660T629 651T425 671Q400 635 387 589T369 492T366 388T375 283T391 184T408 97Q438 91 468 95T529 110T590 132T650 155T711 169T772 167Q777 154 774 137T755 115Q674
100 580 80T388 31T197 -32T26 -111L8 -93ZM425 723Q537 702 603 697T701 696T733 712T714 736T659 757T583 768T500 760T425 723ZM394 1049Q385 1088 387 1101T400 1112T428 1094T464 1062T505 1031T545 1014Q547 990 539 981T516 973T483 982T448 1003T416 1027T394
1049Z" />
<glyph unicode="&#xcd;" glyph-name="Iacute" horiz-adv-x="807" d="M8 -93Q4 -86 8 -78T18 -62T32 -49T43 -41L303 62L321 80Q320 97 320 132T319 212V399Q319 444 319 479T321 531Q321 537 323 552T328 584T333 615T338 636H113Q100 636 97 643T95 659T102 676T113
688Q235 679 355 706Q376 754 413 780T495 815T588 819T679 799T754 765T800 725T803 687T751 660T629 651T425 671Q400 635 387 589T369 492T366 388T375 283T391 184T408 97Q438 91 468 95T529 110T590 132T650 155T711 169T772 167Q777 154 774 137T755 115Q674
100 580 80T388 31T197 -32T26 -111L8 -93ZM425 723Q537 702 603 697T701 696T733 712T714 736T659 757T583 768T500 760T425 723ZM346 887Q339 899 333 908T333 930T362 961T438 1008Q457 1013 463 1006T465 986T448 956T419 924T383 899T346 887Z" />
<glyph unicode="&#xce;" glyph-name="Icircumflex" horiz-adv-x="807" d="M8 -93Q4 -86 8 -78T18 -62T32 -49T43 -41L303 62L321 80Q320 97 320 132T319 212V399Q319 444 319 479T321 531Q321 537 323 552T328 584T333 615T338 636H113Q100 636 97 643T95 659T102
676T113 688Q235 679 355 706Q376 754 413 780T495 815T588 819T679 799T754 765T800 725T803 687T751 660T629 651T425 671Q400 635 387 589T369 492T366 388T375 283T391 184T408 97Q438 91 468 95T529 110T590 132T650 155T711 169T772 167Q777 154 774 137T755
115Q674 100 580 80T388 31T197 -32T26 -111L8 -93ZM425 723Q537 702 603 697T701 696T733 712T714 736T659 757T583 768T500 760T425 723ZM676 841Q661 855 646 863T615 878T582 896T546 926T506 977T460 1060L256 829Q243 826 236 832T227 848T225 869T230 886Q231
889 230 889T232 894T247 912T286 954T358 1031T475 1154Q477 1158 483 1156T492 1151Q516 1116 528 1090T547 1043T562 1007T585 975T628 943T705 906L676 841Z" />
<glyph unicode="&#xcf;" glyph-name="Idieresis" horiz-adv-x="807" d="M8 -93Q4 -86 8 -78T18 -62T32 -49T43 -41L303 62L321 80Q320 97 320 132T319 212V399Q319 444 319 479T321 531Q321 537 323 552T328 584T333 615T338 636H113Q100 636 97 643T95 659T102
676T113 688Q235 679 355 706Q376 754 413 780T495 815T588 819T679 799T754 765T800 725T803 687T751 660T629 651T425 671Q400 635 387 589T369 492T366 388T375 283T391 184T408 97Q438 91 468 95T529 110T590 132T650 155T711 169T772 167Q777 154 774 137T755
115Q674 100 580 80T388 31T197 -32T26 -111L8 -93ZM425 723Q537 702 603 697T701 696T733 712T714 736T659 757T583 768T500 760T425 723ZM272 941Q264 952 273 969T297 998T331 1010T358 984Q368 957 360 938T335 911T300 910T272 941ZM439 957Q430 975 439 993T464
1021T497 1024T523 984Q529 960 521 946T497 927T466 930T439 957Z" />
<glyph unicode="&#xd0;" glyph-name="Eth" horiz-adv-x="702" d="M65 248Q60 256 63 262T72 273T85 279T99 283Q120 287 168 296T272 315H275V459Q275 488 275 510T274 542Q274 546 272 556T267 577T261 597T257 611Q222 614 186 607T115 591T45 577T-20 577Q-29
594 -5 611T63 642T168 664T292 671T418 658T530 618T609 546T639 437Q639 414 631 388T611 336T583 287T552 247Q545 239 529 223T492 185T448 141L405 98Q385 78 369 62T344 38Q341 14 336 -6T321 -37T296 -48T257 -31Q235 -46 211 -73T160 -126T106 -167T49
-170V-135L257 38Q258 39 261 63T266 121T271 189T274 247V258L222 246Q183 237 151 233T95 230T65 248ZM344 108Q407 134 455 184T531 295T566 416T552 525T480 597T344 611V327Q360 331 375 333Q424 342 445 346Q468 350 474 342T478 321T464 295T445 276Q416
280 378 275Q361 273 344 270V108Z" />
<glyph unicode="&#xd1;" glyph-name="Ntilde" horiz-adv-x="599" d="M35 17Q21 169 17 321T17 625Q19 630 25 643T41 668T63 684T87 677L174 590L417 190L422 183Q428 176 436 169T452 157T469 157Q468 173 465 207T459 283T451 373T444 463T438 540T434 590Q433
603 433 633T436 702T447 780T469 850T504 896T555 902Q559 902 565 896T572 885Q565 876 555 864T536 837T517 809T504 781Q503 768 503 741T503 680T502 608T503 535V474Q503 447 504 434Q504 426 506 396T512 330T518 264T521 225Q521 215 521 194T522 151T522
111T521 87Q520 82 516 72T505 54T489 44T469 52L347 173L122 538L95 555V17Q95 3 87 0T68 -2T47 6T35 17ZM5 933Q32 986 61 1007T122 1031T186 1022T252 997T317 977T381 978Q393 987 413 1007T456 1048T498 1085T530 1104T542 1088T522 1022Q493 992 462 968T399
929T334 908T268 910Q246 916 217 932T157 957T97 959T46 910L5 933Z" />
<glyph unicode="&#xd2;" glyph-name="Ograve" horiz-adv-x="477" d="M95 35Q45 85 33 146T26 271T50 400T78 520Q82 542 84 573T89 638T97 705T113 764Q114 766 120 772T130 781Q199 822 254 813T349 759T413 643T446 490T446 325T411 172T341 55T233 0Q209 -3
191 -4T157 -2T127 9T95 35ZM147 70Q197 36 235 40T302 76T348 159T375 272T386 400T382 524T366 627T338 694Q301 743 274 759T226 769T192 737T171 676T161 600T160 523T168 457T182 417Q185 413 197 404T224 384T253 358T276 330T285 302T268 278Q255 269 240
273T208 288T177 316T149 349T127 379T113 399L95 365V157Q95 151 100 139T112 114T129 88T147 70ZM214 924Q205 963 207 976T220 987T248 969T284 937T325 906T365 889Q367 865 359 856T336 848T303 857T268 878T236 902T214 924Z" />
<glyph unicode="&#xd3;" glyph-name="Oacute" horiz-adv-x="477" d="M95 35Q45 85 33 146T26 271T50 400T78 520Q82 542 84 573T89 638T97 705T113 764Q114 766 120 772T130 781Q199 822 254 813T349 759T413 643T446 490T446 325T411 172T341 55T233 0Q209 -3
191 -4T157 -2T127 9T95 35ZM147 70Q197 36 235 40T302 76T348 159T375 272T386 400T382 524T366 627T338 694Q301 743 274 759T226 769T192 737T171 676T161 600T160 523T168 457T182 417Q185 413 197 404T224 384T253 358T276 330T285 302T268 278Q255 269 240
273T208 288T177 316T149 349T127 379T113 399L95 365V157Q95 151 100 139T112 114T129 88T147 70ZM181 852Q174 864 168 873T168 895T197 926T273 973Q292 978 298 971T300 951T283 921T254 889T218 864T181 852Z" />
<glyph unicode="&#xd4;" glyph-name="Ocircumflex" horiz-adv-x="477" d="M95 35Q45 85 33 146T26 271T50 400T78 520Q82 542 84 573T89 638T97 705T113 764Q114 766 120 772T130 781Q199 822 254 813T349 759T413 643T446 490T446 325T411 172T341 55T233 0Q209
-3 191 -4T157 -2T127 9T95 35ZM147 70Q197 36 235 40T302 76T348 159T375 272T386 400T382 524T366 627T338 694Q301 743 274 759T226 769T192 737T171 676T161 600T160 523T168 457T182 417Q185 413 197 404T224 384T253 358T276 330T285 302T268 278Q255 269
240 273T208 288T177 316T149 349T127 379T113 399L95 365V157Q95 151 100 139T112 114T129 88T147 70ZM470 771Q455 785 440 793T409 808T376 826T340 856T300 907T254 990L50 759Q37 756 30 762T21 778T19 799T24 816Q25 819 24 819T26 824T41 842T80 884T152
961T269 1084Q271 1088 277 1086T286 1081Q310 1046 322 1020T341 973T356 937T379 905T422 873T499 836L470 771Z" />
<glyph unicode="&#xd5;" glyph-name="Otilde" horiz-adv-x="477" d="M95 35Q45 85 33 146T26 271T50 400T78 520Q82 542 84 573T89 638T97 705T113 764Q114 766 120 772T130 781Q199 822 254 813T349 759T413 643T446 490T446 325T411 172T341 55T233 0Q209 -3
191 -4T157 -2T127 9T95 35ZM147 70Q197 36 235 40T302 76T348 159T375 272T386 400T382 524T366 627T338 694Q301 743 274 759T226 769T192 737T171 676T161 600T160 523T168 457T182 417Q185 413 197 404T224 384T253 358T276 330T285 302T268 278Q255 269 240
273T208 288T177 316T149 349T127 379T113 399L95 365V157Q95 151 100 139T112 114T129 88T147 70ZM-55 933Q-28 986 1 1007T62 1031T126 1022T192 997T257 977T321 978Q333 987 353 1007T396 1048T438 1085T470 1104T482 1088T462 1022Q433 992 402 968T339 929T274
908T208 910Q186 916 157 932T97 957T37 959T-14 910L-55 933Z" />
<glyph unicode="&#xd6;" glyph-name="Odieresis" horiz-adv-x="477" d="M95 35Q45 85 33 146T26 271T50 400T78 520Q82 542 84 573T89 638T97 705T113 764Q114 766 120 772T130 781Q199 822 254 813T349 759T413 643T446 490T446 325T411 172T341 55T233 0Q209
-3 191 -4T157 -2T127 9T95 35ZM147 70Q197 36 235 40T302 76T348 159T375 272T386 400T382 524T366 627T338 694Q301 743 274 759T226 769T192 737T171 676T161 600T160 523T168 457T182 417Q185 413 197 404T224 384T253 358T276 330T285 302T268 278Q255 269
240 273T208 288T177 316T149 349T127 379T113 399L95 365V157Q95 151 100 139T112 114T129 88T147 70ZM82 860Q74 871 83 888T107 917T141 929T168 903Q178 876 170 857T145 830T110 829T82 860ZM249 876Q240 894 249 912T274 940T307 943T333 903Q339 879 331
865T307 846T276 849T249 876Z" />
<glyph unicode="&#xd7;" glyph-name="multiply" horiz-adv-x="590" d="M516 234Q482 198 446 185T376 171T312 177T257 190T216 195T194 176Q155 136 137 112T112 76Q108 67 107 64Q103 67 84 67Q82 67 74 73T67 84Q74 124 88 147T119 186T152 210T177 232T188
263T176 315Q174 325 163 344T139 384T115 424T102 453L140 518Q147 497 156 483T177 457T202 432T231 399Q265 454 300 490T369 549T435 581T497 591L478 550Q438 548 383 503T262 350Q243 304 260 272T315 228Q345 218 377 219T436 228Q456 233 469 247T496 276L516
234Z" />
<glyph unicode="&#xd8;" glyph-name="Oslash" horiz-adv-x="477" d="M40 -61Q38 -59 38 -53T40 -44L49 -6Q56 20 64 52L68 66Q41 103 32 146Q20 207 26 271T50 400T78 520Q82 542 84 573T89 638T97 705T113 764Q114 766 120 772T130 781Q199 822 254 813T349 758Q358
748 366 737Q373 744 381 754Q400 775 419 794T454 827T474 841H509V806Q500 797 478 773T430 720Q413 701 397 684Q406 664 413 642Q438 571 446 490T446 325T411 172T341 55T233 0Q209 -3 191 -4T157 -2T126 9Q122 12 117 15V9Q117 -22 110 -50T75 -96Q73 -95
68 -90T57 -80T46 -69T40 -61ZM147 70Q197 36 235 40T302 76T348 159T375 272T386 400T382 524T365 627Q363 636 361 643Q356 637 353 633Q350 630 345 623T335 608T324 592T318 581Q311 564 296 529T261 449Q246 415 230 378Q242 369 253 358Q268 344 276 330T285
302T268 278Q255 269 240 273T208 288L196 296L182 262Q163 217 149 182T127 129Q121 116 119 102L129 88Q138 76 147 70ZM273 759Q246 775 226 769T192 737T171 676T161 600T160 523T168 457Q173 433 179 421Q199 467 223 512Q253 568 286 620Q311 660 336 696Q300
743 273 759ZM126 379Q117 393 113 399L95 365V171L100 189Q109 222 116 248T127 286Q137 317 149 349Q136 365 126 379Z" />
<glyph unicode="&#xd9;" glyph-name="Ugrave" horiz-adv-x="622" d="M60 35Q46 53 39 79T28 135T24 192T26 243Q27 258 29 291T35 365T42 451T49 537T55 610T60 659Q65 668 74 675T95 677Q109 669 113 656T118 628T116 597T113 572Q110 520 100 457T85 327T83
199T113 87Q127 59 147 60T189 81T235 131T276 194T307 254T321 295V314Q321 329 321 347T320 380T321 399Q322 414 327 451T337 529T347 608T355 659Q360 675 377 678T408 677Q411 620 406 564T394 451T385 338T390 225Q398 174 415 148T456 115T506 114T562 137T616
172T664 208T700 235T720 243Q729 215 711 184T658 126T577 83T486 67T401 93T338 173Q322 160 303 136T261 86T215 37T165 2T113 -3T60 35ZM286 924Q277 963 279 976T292 987T320 969T356 937T397 906T437 889Q439 865 431 856T408 848T375 857T340 878T308 902T286
924Z" />
<glyph unicode="&#xda;" glyph-name="Uacute" horiz-adv-x="622" d="M60 35Q46 53 39 79T28 135T24 192T26 243Q27 258 29 291T35 365T42 451T49 537T55 610T60 659Q65 668 74 675T95 677Q109 669 113 656T118 628T116 597T113 572Q110 520 100 457T85 327T83
199T113 87Q127 59 147 60T189 81T235 131T276 194T307 254T321 295V314Q321 329 321 347T320 380T321 399Q322 414 327 451T337 529T347 608T355 659Q360 675 377 678T408 677Q411 620 406 564T394 451T385 338T390 225Q398 174 415 148T456 115T506 114T562 137T616
172T664 208T700 235T720 243Q729 215 711 184T658 126T577 83T486 67T401 93T338 173Q322 160 303 136T261 86T215 37T165 2T113 -3T60 35ZM253 852Q246 864 240 873T240 895T269 926T345 973Q364 978 370 971T372 951T355 921T326 889T290 864T253 852Z" />
<glyph unicode="&#xdb;" glyph-name="Ucircumflex" horiz-adv-x="622" d="M60 35Q46 53 39 79T28 135T24 192T26 243Q27 258 29 291T35 365T42 451T49 537T55 610T60 659Q65 668 74 675T95 677Q109 669 113 656T118 628T116 597T113 572Q110 520 100 457T85 327T83
199T113 87Q127 59 147 60T189 81T235 131T276 194T307 254T321 295V314Q321 329 321 347T320 380T321 399Q322 414 327 451T337 529T347 608T355 659Q360 675 377 678T408 677Q411 620 406 564T394 451T385 338T390 225Q398 174 415 148T456 115T506 114T562 137T616
172T664 208T700 235T720 243Q729 215 711 184T658 126T577 83T486 67T401 93T338 173Q322 160 303 136T261 86T215 37T165 2T113 -3T60 35ZM541 771Q526 785 511 793T480 808T447 826T411 856T371 907T325 990L121 759Q108 756 101 762T92 778T90 799T95 816Q96
819 95 819T97 824T112 842T151 884T223 961T340 1084Q342 1088 348 1086T357 1081Q381 1046 393 1020T412 973T427 937T450 905T493 873T570 836L541 771Z" />
<glyph unicode="&#xdc;" glyph-name="Udieresis" horiz-adv-x="622" d="M60 35Q46 53 39 79T28 135T24 192T26 243Q27 258 29 291T35 365T42 451T49 537T55 610T60 659Q65 668 74 675T95 677Q109 669 113 656T118 628T116 597T113 572Q110 520 100 457T85 327T83
199T113 87Q127 59 147 60T189 81T235 131T276 194T307 254T321 295V314Q321 329 321 347T320 380T321 399Q322 414 327 451T337 529T347 608T355 659Q360 675 377 678T408 677Q411 620 406 564T394 451T385 338T390 225Q398 174 415 148T456 115T506 114T562 137T616
172T664 208T700 235T720 243Q729 215 711 184T658 126T577 83T486 67T401 93T338 173Q322 160 303 136T261 86T215 37T165 2T113 -3T60 35ZM151 763Q143 774 152 791T176 820T210 832T237 806Q247 779 239 760T214 733T179 732T151 763ZM318 779Q309 797 318 815T343
843T376 846T402 806Q408 782 400 768T376 749T345 752T318 779Z" />
<glyph unicode="&#xdd;" glyph-name="Yacute" horiz-adv-x="612" d="M190 -252Q166 -221 161 -180T163 -92T188 1T227 92T271 172T312 233Q355 290 382 331T418 412T420 499T382 615Q350 479 303 378T208 218T115 146T43 172T10 308T35 564Q40 580 57 582T87 581V251Q87
208 99 199T130 200T170 238T211 292T244 343T260 373Q265 387 273 416T292 483T314 562T336 642T353 710T365 755Q368 762 375 767T391 773T407 770T417 755L486 425Q488 418 501 422T535 436T578 461T621 489T657 514T677 529Q709 524 710 511T694 478T647 438T588
397T534 361T504 338Q504 328 503 308T501 262T497 208T493 154T489 108L486 78Q484 65 477 36T456 -29T426 -106T388 -183T344 -247T295 -288T243 -294T190 -252ZM243 -217Q258 -239 276 -233T313 -204T350 -148T382 -82T406 -24T417 8Q431 75 434 147T434 286Q406
262 374 226T313 146T259 54T223 -41T214 -134T243 -217ZM169 748Q162 760 156 769T156 791T185 822T261 869Q280 874 286 867T288 847T271 817T242 785T206 760T169 748Z" />
<glyph unicode="&#xde;" glyph-name="Thorn" horiz-adv-x="557" d="M164 139Q159 154 171 171T204 205T253 241T306 276T352 308T379 338Q427 430 430 489T403 562T312 535T174 386Q169 362 163 327T157 246Q157 189 153 132T141 26T124 -61T107 -115T93 -127T84
-84T86 27T101 217Q101 224 101 241T102 278T102 315T101 338Q98 406 95 471T87 600T77 728T67 859Q64 888 68 898T79 905T96 886T114 850T129 804T136 755Q136 743 137 717T141 659T145 590T148 522T151 463T154 425Q176 441 191 464T221 512T252 560T292 599Q356
639 398 642T462 624T489 559T481 466T443 359T378 255T289 170T180 122L171 130Q165 137 164 139Z" />
<glyph unicode="&#xdf;" glyph-name="germandbls" horiz-adv-x="620" d="M135 395L83 -180Q82 -189 74 -193T56 -198T39 -194T31 -180L48 327V430L66 656Q26 706 23 744T40 809T103 851T192 870T290 869T380 845T443 801T463 737T421 654T299 551Q348 560 389
560T462 542T517 487T552 379Q565 319 557 275T527 198T470 142T395 102T310 71T225 42Q215 37 205 43T190 59Q188 65 188 78T190 94Q191 95 195 97T205 103T216 108T225 112Q325 121 387 145T481 203T520 275T513 348T469 413T401 457T318 470T231 439L247 599Q319
635 355 672T397 740T385 794T328 822T235 815T118 760L129 709L135 395Z" />
<glyph unicode="&#xe0;" glyph-name="agrave" horiz-adv-x="507" d="M43 17Q23 59 22 102T26 190Q27 204 31 232T40 294T51 366T62 438T71 498T78 538Q86 580 95 609T121 655T164 672T233 659Q238 658 244 652T251 642Q253 629 258 602T271 541T285 469T300 397T312
335T321 295Q336 224 358 197T405 168T456 184T509 221T558 255T598 260Q598 241 589 223T568 190T540 161T512 139Q456 102 419 100T355 117T313 169T285 236T261 296T233 330Q230 317 221 285T200 217T179 149T165 104Q163 99 157 85T140 55T118 23T92 -1T66
-7T43 17ZM95 312Q93 300 93 268T92 200T92 132T95 87Q130 140 158 210T200 356T212 506T182 642Q165 611 150 564T124 469T106 378T95 312ZM121 813Q112 852 114 865T127 876T155 858T191 826T232 795T272 778Q274 754 266 745T243 737T210 746T175 767T143 791T121
813Z" />
<glyph unicode="&#xe1;" glyph-name="aacute" horiz-adv-x="507" d="M43 17Q23 59 22 102T26 190Q27 204 31 232T40 294T51 366T62 438T71 498T78 538Q86 580 95 609T121 655T164 672T233 659Q238 658 244 652T251 642Q253 629 258 602T271 541T285 469T300 397T312
335T321 295Q336 224 358 197T405 168T456 184T509 221T558 255T598 260Q598 241 589 223T568 190T540 161T512 139Q456 102 419 100T355 117T313 169T285 236T261 296T233 330Q230 317 221 285T200 217T179 149T165 104Q163 99 157 85T140 55T118 23T92 -1T66
-7T43 17ZM95 312Q93 300 93 268T92 200T92 132T95 87Q130 140 158 210T200 356T212 506T182 642Q165 611 150 564T124 469T106 378T95 312ZM136 717Q129 729 123 738T123 760T152 791T228 838Q247 843 253 836T255 816T238 786T209 754T173 729T136 717Z" />
<glyph unicode="&#xe2;" glyph-name="acircumflex" horiz-adv-x="507" d="M43 17Q23 59 22 102T26 190Q27 204 31 232T40 294T51 366T62 438T71 498T78 538Q86 580 95 609T121 655T164 672T233 659Q238 658 244 652T251 642Q253 629 258 602T271 541T285 469T300
397T312 335T321 295Q336 224 358 197T405 168T456 184T509 221T558 255T598 260Q598 241 589 223T568 190T540 161T512 139Q456 102 419 100T355 117T313 169T285 236T261 296T233 330Q230 317 221 285T200 217T179 149T165 104Q163 99 157 85T140 55T118 23T92
-1T66 -7T43 17ZM95 312Q93 300 93 268T92 200T92 132T95 87Q130 140 158 210T200 356T212 506T182 642Q165 611 150 564T124 469T106 378T95 312ZM449 636Q434 650 419 658T388 673T355 691T319 721T279 772T233 855L29 624Q16 621 9 627T0 643T-2 664T3 681Q4
684 3 684T5 689T20 707T59 749T131 826T248 949Q250 953 256 951T265 946Q289 911 301 885T320 838T335 802T358 770T401 738T478 701L449 636Z" />
<glyph unicode="&#xe3;" glyph-name="atilde" horiz-adv-x="507" d="M43 17Q23 59 22 102T26 190Q27 204 31 232T40 294T51 366T62 438T71 498T78 538Q86 580 95 609T121 655T164 672T233 659Q238 658 244 652T251 642Q253 629 258 602T271 541T285 469T300 397T312
335T321 295Q336 224 358 197T405 168T456 184T509 221T558 255T598 260Q598 241 589 223T568 190T540 161T512 139Q456 102 419 100T355 117T313 169T285 236T261 296T233 330Q230 317 221 285T200 217T179 149T165 104Q163 99 157 85T140 55T118 23T92 -1T66
-7T43 17ZM95 312Q93 300 93 268T92 200T92 132T95 87Q130 140 158 210T200 356T212 506T182 642Q165 611 150 564T124 469T106 378T95 312ZM-41 721Q-14 774 15 795T76 819T140 810T206 785T271 765T335 766Q347 775 367 795T410 836T452 873T484 892T496 876T476
810Q447 780 416 756T353 717T288 696T222 698Q200 704 171 720T111 745T51 747T0 698L-41 721Z" />
<glyph unicode="&#xe4;" glyph-name="adieresis" horiz-adv-x="507" d="M43 17Q23 59 22 102T26 190Q27 204 31 232T40 294T51 366T62 438T71 498T78 538Q86 580 95 609T121 655T164 672T233 659Q238 658 244 652T251 642Q253 629 258 602T271 541T285 469T300
397T312 335T321 295Q336 224 358 197T405 168T456 184T509 221T558 255T598 260Q598 241 589 223T568 190T540 161T512 139Q456 102 419 100T355 117T313 169T285 236T261 296T233 330Q230 317 221 285T200 217T179 149T165 104Q163 99 157 85T140 55T118 23T92
-1T66 -7T43 17ZM95 312Q93 300 93 268T92 200T92 132T95 87Q130 140 158 210T200 356T212 506T182 642Q165 611 150 564T124 469T106 378T95 312ZM42 756Q34 767 43 784T67 813T101 825T128 799Q138 772 130 753T105 726T70 725T42 756ZM209 772Q200 790 209 808T234
836T267 839T293 799Q299 775 291 761T267 742T236 745T209 772Z" />
<glyph unicode="&#xe5;" glyph-name="aring" horiz-adv-x="507" d="M141 669Q125 678 114 698T96 734Q87 774 91 821T117 904T180 955T287 946Q315 936 329 915T354 869Q370 818 365 772T333 696T259 657Q250 655 240 654Q242 653 244 651Q250 645 251 642Q253
629 258 602T271 541T285 469T300 397T312 335T321 295Q336 224 358 197T405 168T456 184T509 221T558 255T598 260Q598 241 589 223T568 190T540 161T512 139Q456 102 419 100T355 117T313 169T285 236T261 296T233 330Q230 317 221 285T200 217T179 149T165 104Q163
99 157 85T140 55T118 23T92 -1T66 -7T43 17Q23 59 22 102T26 190Q27 204 31 232T40 294T51 366T62 438T71 498T78 538Q86 580 95 609T121 655Q131 664 143 668Q142 668 141 669ZM95 312Q93 300 93 268T92 200T92 132T95 87Q130 140 158 210T200 356T212 506T182
642Q165 611 150 564T124 469T106 378T95 312ZM152 713Q165 704 182 699T217 694T251 697T278 710Q314 770 321 811T317 876T280 909T227 913T172 892T131 849T119 788T152 713Z" />
<glyph unicode="&#xe6;" glyph-name="ae" horiz-adv-x="699" d="M43 17Q23 59 22 102T26 190Q27 204 31 232T40 294T51 366T62 438T71 498T78 538Q86 580 95 609T121 655T164 672T233 659Q238 658 244 652T251 642Q253 631 254 604T257 540T260 460T262 375Q272
424 289 469T327 552T371 615T416 652T457 655T489 615Q478 571 456 530T409 448T364 367T334 286Q329 264 329 233T336 170T359 114T402 78Q434 66 466 72T529 95T588 137T640 190T683 242T715 286L732 268Q739 262 724 234T679 171T609 98T527 37T443 6T368 26Q342
40 324 59T291 100Q300 51 294 27T275 0T246 15T219 67T203 149Q200 195 211 251Q206 232 199 212Q192 189 185 168T173 129T165 104Q163 99 157 85T140 55T118 23T92 -1T66 -7T43 17ZM95 312Q93 300 93 268T92 200T92 132T95 87Q130 140 158 210T200 356T212 506T182
642Q165 611 150 564T124 469T106 378T95 312ZM437 615Q404 599 380 572T340 511T321 441T325 371Q341 398 357 428T389 489T416 551T437 615Z" />
<glyph unicode="&#xe7;" glyph-name="ccedilla" horiz-adv-x="520" d="M157 -405Q141 -393 131 -374T115 -335T109 -294T111 -261T122 -244T139 -249Q137 -303 159 -331T212 -366T279 -363T339 -328T374 -270T364 -197Q338 -168 307 -160T245 -147T183 -133T129
-91Q118 -37 126 -6Q129 2 131 9Q109 18 87 35Q50 63 34 102T16 188T25 284T56 379T98 464T146 531T191 570T225 572Q227 561 232 532T243 469T253 406T260 365Q262 352 261 338T255 312T239 295T208 295Q207 302 203 319T193 355T182 392T174 417L157 434Q126
413 106 374T76 290T71 199T94 119T146 67T230 61T349 119T504 260V225Q504 222 492 207T463 173T429 134T399 104Q366 73 329 47T251 8Q220 -2 189 -1Q197 -22 199 -56Q197 -63 214 -71T257 -89T316 -114T375 -146T420 -187T437 -240T412 -306T330 -387Q312 -401
291 -411T246 -424T200 -424T157 -405Z" />
<glyph unicode="&#xe8;" glyph-name="egrave" horiz-adv-x="524" d="M208 17Q166 50 142 94T104 190Q98 185 86 179T62 169T37 164T20 166T16 179T35 208Q37 211 47 221T70 242T92 264T104 278Q115 303 117 333T120 395T124 460T139 520Q146 536 165 559T209 605T259
644T303 666T330 657T330 607Q319 563 297 522T250 440T205 359T174 278Q169 256 169 225T176 162T199 106T243 70Q275 58 307 64T369 87T428 129T480 182T523 234T555 278L572 260Q579 254 564 226T519 163T449 90T367 28T283 -3T208 17ZM174 452Q173 447 173
435T172 408T172 382T174 365Q206 420 234 482T278 607Q255 599 237 583T205 545T185 499T174 452ZM200 778Q191 817 193 830T206 841T234 823T270 791T311 760T351 743Q353 719 345 710T322 702T289 711T254 732T222 756T200 778Z" />
<glyph unicode="&#xe9;" glyph-name="eacute" horiz-adv-x="524" d="M208 17Q166 50 142 94T104 190Q98 185 86 179T62 169T37 164T20 166T16 179T35 208Q37 211 47 221T70 242T92 264T104 278Q115 303 117 333T120 395T124 460T139 520Q146 536 165 559T209 605T259
644T303 666T330 657T330 607Q319 563 297 522T250 440T205 359T174 278Q169 256 169 225T176 162T199 106T243 70Q275 58 307 64T369 87T428 129T480 182T523 234T555 278L572 260Q579 254 564 226T519 163T449 90T367 28T283 -3T208 17ZM174 452Q173 447 173
435T172 408T172 382T174 365Q206 420 234 482T278 607Q255 599 237 583T205 545T185 499T174 452ZM226 732Q219 744 213 753T213 775T242 806T318 853Q337 858 343 851T345 831T328 801T299 769T263 744T226 732Z" />
<glyph unicode="&#xea;" glyph-name="ecircumflex" horiz-adv-x="524" d="M208 17Q166 50 142 94T104 190Q98 185 86 179T62 169T37 164T20 166T16 179T35 208Q37 211 47 221T70 242T92 264T104 278Q115 303 117 333T120 395T124 460T139 520Q146 536 165 559T209
605T259 644T303 666T330 657T330 607Q319 563 297 522T250 440T205 359T174 278Q169 256 169 225T176 162T199 106T243 70Q275 58 307 64T369 87T428 129T480 182T523 234T555 278L572 260Q579 254 564 226T519 163T449 90T367 28T283 -3T208 17ZM174 452Q173
447 173 435T172 408T172 382T174 365Q206 420 234 482T278 607Q255 599 237 583T205 545T185 499T174 452ZM499 611Q484 625 469 633T438 648T405 666T369 696T329 747T283 830L79 599Q66 596 59 602T50 618T48 639T53 656Q54 659 53 659T55 664T70 682T109 724T181
801T298 924Q300 928 306 926T315 921Q339 886 351 860T370 813T385 777T408 745T451 713T528 676L499 611Z" />
<glyph unicode="&#xeb;" glyph-name="edieresis" horiz-adv-x="524" d="M208 17Q166 50 142 94T104 190Q98 185 86 179T62 169T37 164T20 166T16 179T35 208Q37 211 47 221T70 242T92 264T104 278Q115 303 117 333T120 395T124 460T139 520Q146 536 165 559T209
605T259 644T303 666T330 657T330 607Q319 563 297 522T250 440T205 359T174 278Q169 256 169 225T176 162T199 106T243 70Q275 58 307 64T369 87T428 129T480 182T523 234T555 278L572 260Q579 254 564 226T519 163T449 90T367 28T283 -3T208 17ZM174 452Q173
447 173 435T172 408T172 382T174 365Q206 420 234 482T278 607Q255 599 237 583T205 545T185 499T174 452ZM123 715Q115 726 124 743T148 772T182 784T209 758Q219 731 211 712T186 685T151 684T123 715ZM290 731Q281 749 290 767T315 795T348 798T374 758Q380
734 372 720T348 701T317 704T290 731Z" />
<glyph unicode="&#xec;" glyph-name="igrave" horiz-adv-x="200" d="M35 52Q33 56 30 67T24 93T19 120T17 139V625Q17 635 26 639T46 643T67 643T78 642V104Q78 87 89 76T115 59T146 51T173 52Q187 31 173 19T132 5T77 14T35 52ZM76 712Q67 751 69 764T82 775T110
757T146 725T187 694T227 677Q229 653 221 644T198 636T165 645T130 666T98 690T76 712Z" />
<glyph unicode="&#xed;" glyph-name="iacute" horiz-adv-x="200" d="M41 643Q35 653 30 661Q24 671 30 683T59 714T135 761Q154 766 160 759T162 739T145 709T116 677T80 651Q71 646 62 643H67Q77 642 78 642V104Q78 87 89 76T115 59T146 51T173 52Q187 31 173
19T132 5T77 14T35 52Q33 56 30 67T24 93T19 120T17 139V625Q17 635 26 639Q33 642 41 643Z" />
<glyph unicode="&#xee;" glyph-name="icircumflex" horiz-adv-x="200" d="M35 52Q33 56 30 67T24 93T19 120T17 139V625Q17 635 26 639T46 643T67 643T78 642V104Q78 87 89 76T115 59T146 51T173 52Q187 31 173 19T132 5T77 14T35 52ZM321 608Q306 622 291 630T260
645T227 663T191 693T151 744T105 827L-99 596Q-112 593 -119 599T-128 615T-130 636T-125 653Q-124 656 -125 656T-123 661T-108 679T-69 721T3 798T120 921Q122 925 128 923T137 918Q161 883 173 857T192 810T207 774T230 742T273 710T350 673L321 608Z" />
<glyph unicode="&#xef;" glyph-name="idieresis" horiz-adv-x="200" d="M35 52Q33 56 30 67T24 93T19 120T17 139V625Q17 635 26 639T46 643T67 643T78 642V104Q78 87 89 76T115 59T146 51T173 52Q187 31 173 19T132 5T77 14T35 52ZM-28 746Q-33 757 -28 774T-12
803T9 814T27 788Q33 761 28 743T12 717T-10 716T-28 746ZM79 762Q73 780 79 798T95 824T116 827T132 788Q136 765 131 751T116 733T96 736T79 762Z" />
<glyph unicode="&#xf0;" glyph-name="eth" horiz-adv-x="383" d="M78 516Q81 530 91 537T116 546T146 545T176 535L135 640L167 678Q178 686 186 685T199 676T207 660T212 643Q222 615 233 593T257 541Q262 540 272 541T295 544L319 548Q331 550 340 551Q345 541
349 526T354 497T350 476T332 475Q330 476 322 475T303 471T283 468T270 467Q294 406 318 339T354 208T363 86T327 -13Q273 -28 225 -21T138 8T71 65T26 144T6 237T16 335Q50 393 76 412T133 409T208 324T320 153L199 470Q183 478 168 477T139 472T116 465T100
464Q97 465 92 468T84 478T78 493T78 516ZM151 289Q138 316 124 326T97 333T73 314T57 273Q50 239 60 206T92 143T142 90T203 55Q250 47 269 54T288 79T272 122T236 177T191 235T151 289Z" />
<glyph unicode="&#xf1;" glyph-name="ntilde" horiz-adv-x="507" d="M70 17Q71 30 71 62V198Q71 230 70 243Q69 249 67 269T61 316T53 373T45 430T39 477T35 504Q33 518 33 533T39 559T55 574T87 572Q88 551 90 523T97 463T107 402T122 347Q135 384 147 412T176
465T212 510T260 555Q295 584 318 579T357 545T383 471T401 376T417 277T439 193T471 141T521 139Q530 112 524 100T502 86T465 93T424 119T387 159T365 208Q361 226 358 267T349 355T331 447T295 520L225 452Q222 448 211 416T185 343T158 259T139 190Q137 181
134 157T128 104T124 52T122 17Q113 -1 96 -1T70 17ZM-41 721Q-14 774 15 795T76 819T140 810T206 785T271 765T335 766Q347 775 367 795T410 836T452 873T484 892T496 876T476 810Q447 780 416 756T353 717T288 696T222 698Q200 704 171 720T111 745T51 747T0
698L-41 721Z" />
<glyph unicode="&#xf2;" glyph-name="ograve" horiz-adv-x="344" d="M101 52Q76 89 71 134T71 230T87 331T106 429T115 518T101 590Q93 606 80 606T51 602T20 599T-8 618Q-7 622 -1 628T9 636Q99 649 159 618T256 529T305 397T315 250T292 115T244 18T178 -12T101
52ZM153 87Q154 84 159 79T169 68T180 58T187 52Q224 73 242 109T263 189T260 281T238 375T206 458T170 520Q169 507 166 480T160 419T153 347T146 275T139 213T135 173Q134 163 135 151T140 126T146 104T153 87ZM148 712Q139 751 141 764T154 775T182 757T218
725T259 694T299 677Q301 653 293 644T270 636T237 645T202 666T170 690T148 712Z" />
<glyph unicode="&#xf3;" glyph-name="oacute" horiz-adv-x="344" d="M101 52Q76 89 71 134T71 230T87 331T106 429T115 518T101 590Q93 606 80 606T51 602T20 599T-8 618Q-7 622 -1 628T9 636Q99 649 159 618T256 529T305 397T315 250T292 115T244 18T178 -12T101
52ZM153 87Q154 84 159 79T169 68T180 58T187 52Q224 73 242 109T263 189T260 281T238 375T206 458T170 520Q169 507 166 480T160 419T153 347T146 275T139 213T135 173Q134 163 135 151T140 126T146 104T153 87ZM115 640Q108 652 102 661T102 683T131 714T207
761Q226 766 232 759T234 739T217 709T188 677T152 652T115 640Z" />
<glyph unicode="&#xf4;" glyph-name="ocircumflex" horiz-adv-x="344" d="M101 52Q76 89 71 134T71 230T87 331T106 429T115 518T101 590Q93 606 80 606T51 602T20 599T-8 618Q-7 622 -1 628T9 636Q99 649 159 618T256 529T305 397T315 250T292 115T244 18T178
-12T101 52ZM153 87Q154 84 159 79T169 68T180 58T187 52Q224 73 242 109T263 189T260 281T238 375T206 458T170 520Q169 507 166 480T160 419T153 347T146 275T139 213T135 173Q134 163 135 151T140 126T146 104T153 87ZM378 653Q363 667 348 675T317 690T284
708T248 738T208 789T162 872L-42 641Q-55 638 -62 644T-71 660T-73 681T-68 698Q-67 701 -68 701T-66 706T-51 724T-12 766T60 843T177 966Q179 970 185 968T194 963Q218 928 230 902T249 855T264 819T287 787T330 755T407 718L378 653Z" />
<glyph unicode="&#xf5;" glyph-name="otilde" horiz-adv-x="344" d="M101 52Q76 89 71 134T71 230T87 331T106 429T115 518T101 590Q93 606 80 606T51 602T20 599T-8 618Q-7 622 -1 628T9 636Q99 649 159 618T256 529T305 397T315 250T292 115T244 18T178 -12T101
52ZM153 87Q154 84 159 79T169 68T180 58T187 52Q224 73 242 109T263 189T260 281T238 375T206 458T170 520Q169 507 166 480T160 419T153 347T146 275T139 213T135 173Q134 163 135 151T140 126T146 104T153 87ZM-122 721Q-95 774 -66 795T-5 819T59 810T125 785T190
765T254 766Q266 775 286 795T329 836T371 873T403 892T415 876T395 810Q366 780 335 756T272 717T207 696T141 698Q119 704 90 720T30 745T-30 747T-81 698L-122 721Z" />
<glyph unicode="&#xf6;" glyph-name="odieresis" horiz-adv-x="344" d="M101 52Q76 89 71 134T71 230T87 331T106 429T115 518T101 590Q93 606 80 606T51 602T20 599T-8 618Q-7 622 -1 628T9 636Q99 649 159 618T256 529T305 397T315 250T292 115T244 18T178 -12T101
52ZM153 87Q154 84 159 79T169 68T180 58T187 52Q224 73 242 109T263 189T260 281T238 375T206 458T170 520Q169 507 166 480T160 419T153 347T146 275T139 213T135 173Q134 163 135 151T140 126T146 104T153 87ZM18 715Q10 726 19 743T43 772T77 784T104 758Q114
731 106 712T81 685T46 684T18 715ZM185 731Q176 749 185 767T210 795T243 798T269 758Q275 734 267 720T243 701T212 704T185 731Z" />
<glyph unicode="&#xf7;" glyph-name="divide" horiz-adv-x="486" d="M200 147Q196 172 202 197T222 242T252 278T286 298T317 297T338 269Q344 252 337 232T316 193T282 159T246 136T215 129T200 147ZM148 529Q124 545 121 560T127 589T159 613T203 631T249 640T286
640T302 626T287 599L200 512Q199 511 193 511T183 512Q179 514 166 520T148 529ZM28 378Q24 386 27 392T36 402T49 409T63 412Q76 415 104 420T169 433T244 447T320 462T385 474T428 482Q451 486 457 478T460 457T447 431T428 412Q399 416 360 411T279 398T195
379T119 364T60 361T28 378Z" />
<glyph unicode="&#xf8;" glyph-name="oslash" horiz-adv-x="344" d="M18 -144Q16 -142 16 -137T18 -130L25 -98Q30 -76 36 -49T49 8T63 65Q69 90 74 111Q72 123 71 134Q66 180 71 230T87 331T106 429T115 518T101 590Q93 606 80 606T51 602T20 599T-8 618Q-7 622
-1 628T9 636Q99 649 159 618T256 528Q259 523 262 519Q267 526 273 534Q287 552 301 568T328 595T343 607H369V578Q362 571 345 551T309 507Q296 490 283 474Q298 438 305 397Q319 323 315 250T292 115T244 18T178 -12T101 52L98 56L83 14Q75 -7 75 -33T76 -85T70
-134T44 -173Q43 -172 39 -168T30 -160T23 -151T18 -144ZM153 87Q154 84 159 79T169 68T180 58T187 52Q224 73 242 109T263 189T260 281T238 375L230 399L226 391Q221 377 209 348T183 281T153 203L135 155V150Q137 138 140 126T146 104T153 87ZM205 458Q187 496
170 520Q169 507 166 480T160 419T153 347Q152 336 150 326Q152 330 155 334Q177 380 202 423Q207 433 212 442Q209 450 205 458Z" />
<glyph unicode="&#xf9;" glyph-name="ugrave" horiz-adv-x="449" d="M52 52Q50 56 47 65T42 86T37 108T35 122V504Q35 513 42 517T58 522T75 522T87 520Q86 507 86 480T86 419T85 347T86 274V213Q86 186 87 173Q89 117 102 95T135 74T176 96T216 145T247 205T260
260V520H330Q328 497 325 460T322 380T323 293T332 209T354 140T390 98T445 93T521 139Q530 113 514 89T472 47T416 21T365 17Q362 18 356 25T347 35Q343 42 333 61T312 103T292 145T278 173Q272 162 258 140T225 92T183 44T137 12T92 9T52 52ZM200 712Q191 751
193 764T206 775T234 757T270 725T311 694T351 677Q353 653 345 644T322 636T289 645T254 666T222 690T200 712Z" />
<glyph unicode="&#xfa;" glyph-name="uacute" horiz-adv-x="449" d="M52 52Q50 56 47 65T42 86T37 108T35 122V504Q35 513 42 517T58 522T75 522T87 520Q86 507 86 480T86 419T85 347T86 274V213Q86 186 87 173Q89 117 102 95T135 74T176 96T216 145T247 205T260
260V520H330Q328 497 325 460T322 380T323 293T332 209T354 140T390 98T445 93T521 139Q530 113 514 89T472 47T416 21T365 17Q362 18 356 25T347 35Q343 42 333 61T312 103T292 145T278 173Q272 162 258 140T225 92T183 44T137 12T92 9T52 52ZM167 640Q160 652
154 661T154 683T183 714T259 761Q278 766 284 759T286 739T269 709T240 677T204 652T167 640Z" />
<glyph unicode="&#xfb;" glyph-name="ucircumflex" horiz-adv-x="449" d="M52 52Q50 56 47 65T42 86T37 108T35 122V504Q35 513 42 517T58 522T75 522T87 520Q86 507 86 480T86 419T85 347T86 274V213Q86 186 87 173Q89 117 102 95T135 74T176 96T216 145T247
205T260 260V520H330Q328 497 325 460T322 380T323 293T332 209T354 140T390 98T445 93T521 139Q530 113 514 89T472 47T416 21T365 17Q362 18 356 25T347 35Q343 42 333 61T312 103T292 145T278 173Q272 162 258 140T225 92T183 44T137 12T92 9T52 52ZM455 559Q440
573 425 581T394 596T361 614T325 644T285 695T239 778L35 547Q22 544 15 550T6 566T4 587T9 604Q10 607 9 607T11 612T26 630T65 672T137 749T254 872Q256 876 262 874T271 869Q295 834 307 808T326 761T341 725T364 693T407 661T484 624L455 559Z" />
<glyph unicode="&#xfc;" glyph-name="udieresis" horiz-adv-x="449" d="M52 52Q50 56 47 65T42 86T37 108T35 122V504Q35 513 42 517T58 522T75 522T87 520Q86 507 86 480T86 419T85 347T86 274V213Q86 186 87 173Q89 117 102 95T135 74T176 96T216 145T247 205T260
260V520H330Q328 497 325 460T322 380T323 293T332 209T354 140T390 98T445 93T521 139Q530 113 514 89T472 47T416 21T365 17Q362 18 356 25T347 35Q343 42 333 61T312 103T292 145T278 173Q272 162 258 140T225 92T183 44T137 12T92 9T52 52ZM303 603Q295 614
304 631T328 660T362 672T389 646Q399 619 391 600T366 573T331 572T303 603ZM470 619Q461 637 470 655T495 683T528 686T554 646Q560 622 552 608T528 589T497 592T470 619Z" />
<glyph unicode="&#xfd;" glyph-name="yacute" horiz-adv-x="763" d="M426 -295Q401 -278 392 -250T383 -188T393 -117T414 -44T439 21T461 70Q465 79 474 98T495 141L545 241Q557 265 567 284T582 312Q587 359 576 386T543 423T495 428T439 407T384 367T339 312Q333
307 318 289T282 244T236 186T184 126T132 71T86 32T49 17T27 35Q26 36 26 41T25 51T25 62T27 70Q29 80 35 112T50 187T69 279T87 371T103 445T113 487Q115 496 126 511T151 536T178 545T200 522Q190 507 177 475T152 403T127 319T107 233T95 158T96 104Q138 161
190 225T296 346T403 445T502 499T582 486T634 382L756 486H808Q817 458 808 448T780 433T741 421T705 394T687 335T703 225Q717 175 722 122T721 17Q718 -6 706 -45T673 -128T626 -212T568 -280T500 -313T426 -295ZM443 -208Q451 -246 469 -256T512 -254T562 -211T611
-137T650 -42T669 66T661 175T616 278Q593 261 570 226T527 146T488 51T459 -48T443 -139T443 -208ZM323 640Q316 652 310 661T310 683T339 714T415 761Q434 766 440 759T442 739T425 709T396 677T360 652T323 640Z" />
<glyph unicode="&#xfe;" glyph-name="thorn" horiz-adv-x="519" d="M164 139Q159 154 169 167T200 191T245 214T294 236T336 260T362 286Q394 347 407 398T417 484T395 535T345 543T270 496T174 386Q169 362 163 327T157 246Q158 164 154 87T144 -54T128 -164T111
-231T97 -240T88 -177T88 -29T101 217Q101 224 101 241T102 278T102 315T101 338Q98 406 95 471T87 600T77 728T67 859Q64 888 68 898T79 905T96 886T114 850T129 804T136 755Q136 743 137 717T141 659T145 590T148 522T151 463T154 425Q176 441 191 464T221 512T252
560T292 599Q356 633 398 630T463 598T490 523T483 422T444 313T378 215T289 145T180 122L171 130Q165 137 164 139Z" />
<glyph unicode="&#xff;" glyph-name="ydieresis" horiz-adv-x="763" d="M426 -295Q401 -278 392 -250T383 -188T393 -117T414 -44T439 21T461 70Q465 79 474 98T495 141L545 241Q557 265 567 284T582 312Q587 359 576 386T543 423T495 428T439 407T384 367T339
312Q333 307 318 289T282 244T236 186T184 126T132 71T86 32T49 17T27 35Q26 36 26 41T25 51T25 62T27 70Q29 80 35 112T50 187T69 279T87 371T103 445T113 487Q115 496 126 511T151 536T178 545T200 522Q190 507 177 475T152 403T127 319T107 233T95 158T96 104Q138
161 190 225T296 346T403 445T502 499T582 486T634 382L756 486H808Q817 458 808 448T780 433T741 421T705 394T687 335T703 225Q717 175 722 122T721 17Q718 -6 706 -45T673 -128T626 -212T568 -280T500 -313T426 -295ZM443 -208Q451 -246 469 -256T512 -254T562
-211T611 -137T650 -42T669 66T661 175T616 278Q593 261 570 226T527 146T488 51T459 -48T443 -139T443 -208ZM228 621Q220 632 229 649T253 678T287 690T314 664Q324 637 316 618T291 591T256 590T228 621ZM395 637Q386 655 395 673T420 701T453 704T479 664Q485
640 477 626T453 607T422 610T395 637Z" />
<glyph unicode="&#x2013;" glyph-name="endash" horiz-adv-x="413" d="M8 278Q4 286 7 292T16 302T29 309T43 312Q63 316 106 317T198 318T289 317T354 321Q377 325 383 317T386 296T373 270T354 251Q324 255 289 255T219 252T148 249T85 248T36 256T8 278Z" />
<glyph unicode="&#x2014;" glyph-name="emdash" horiz-adv-x="591" d="M8 278Q4 286 7 292T16 302T29 309T43 312Q56 315 93 317T178 322T280 327T382 331T467 335T518 340Q541 344 547 336T550 315T537 289T518 270Q489 274 442 272T340 266T230 258T127 254T48
258T8 278Z" />
<glyph unicode="&#x2018;" glyph-name="quoteleft" horiz-adv-x="157" d="M43 746Q38 760 34 794T27 870T26 956T37 1034T64 1086T113 1094Q113 1088 113 1073T114 1042T114 1010T113 989Q111 972 108 948T101 897T94 844T87 796T81 761T78 746L60 729L43 746Z" />
<glyph unicode="&#x2019;" glyph-name="quoteright" horiz-adv-x="157" d="M43 746Q38 760 34 794T27 870T26 956T37 1034T64 1086T113 1094Q113 1088 113 1073T114 1042T114 1010T113 989Q111 972 108 948T101 897T94 844T87 796T81 761T78 746L60 729L43 746Z" />
<glyph unicode="&#x201a;" glyph-name="quotesinglbase" horiz-adv-x="157" d="M43 746Q38 760 34 794T27 870T26 956T37 1034T64 1086T113 1094Q113 1088 113 1073T114 1042T114 1010T113 989Q111 972 108 948T101 897T94 844T87 796T81 761T78 746L60 729L43 746Z" />
<glyph unicode="&#x201c;" glyph-name="quotedblleft" horiz-adv-x="312" d="M52 555Q48 568 44 596T38 659T37 731T44 798T60 847T87 867Q106 867 115 857T127 830T126 794T119 754T110 719T104 693Q103 685 101 663T95 616T90 569T87 538Q77 532 66 539T52 555ZM225
572Q218 601 214 634T208 702T206 770T208 833Q212 843 222 848T243 853T264 848T278 833Q278 826 279 804T282 752T282 689T277 627T265 578T243 555Q240 556 233 562T225 572Z" />
<glyph unicode="&#x201d;" glyph-name="quotedblright" horiz-adv-x="312" d="M52 555Q48 568 44 596T38 659T37 731T44 798T60 847T87 867Q106 867 115 857T127 830T126 794T119 754T110 719T104 693Q103 685 101 663T95 616T90 569T87 538Q77 532 66 539T52
555ZM225 572Q218 601 214 634T208 702T206 770T208 833Q212 843 222 848T243 853T264 848T278 833Q278 826 279 804T282 752T282 689T277 627T265 578T243 555Q240 556 233 562T225 572Z" />
<glyph unicode="&#x201e;" glyph-name="quotedblbase" horiz-adv-x="312" d="M52 555Q48 568 44 596T38 659T37 731T44 798T60 847T87 867Q106 867 115 857T127 830T126 794T119 754T110 719T104 693Q103 685 101 663T95 616T90 569T87 538Q77 532 66 539T52 555ZM225
572Q218 601 214 634T208 702T206 770T208 833Q212 843 222 848T243 853T264 848T278 833Q278 826 279 804T282 752T282 689T277 627T265 578T243 555Q240 556 233 562T225 572Z" />
<glyph unicode="&#x2022;" glyph-name="bullet" horiz-adv-x="311" d="M95 452Q84 468 86 486T100 519T128 545T163 561T198 561T227 540Q242 518 243 497T235 458T210 428T173 414T133 419T95 452Z" />
<glyph unicode="&#x2039;" glyph-name="guilsinglleft" horiz-adv-x="807" d="M382 157Q349 167 305 175T213 187T119 193T35 190Q9 203 14 215T38 236T77 252T104 260Q117 267 144 283T206 320T278 363T350 406T412 443T452 469Q463 476 478 491T511 521T549
541T590 538Q597 527 583 510T542 472T477 428T401 382T324 337T258 296T216 264T208 243Q272 238 345 219T491 173T630 120T746 70Q758 64 761 53T762 32T750 17T729 17Q717 23 690 35T629 61T557 90T485 118T423 142T382 157Z" />
<glyph unicode="&#x203a;" glyph-name="guilsinglright" horiz-adv-x="781" d="M122 17Q118 18 119 33T124 63T137 88T157 87Q169 97 194 116T252 160T320 210T388 260T447 302T486 330Q493 335 513 345L555 366Q577 377 597 386Q616 395 624 399Q559 410 482
418Q404 427 323 441T163 477T17 538Q11 550 16 557T31 569T52 574T70 572Q74 571 84 567T105 557T125 546T139 538L746 417Q750 416 750 409T746 399Q716 369 666 342T559 288T441 232T328 169T239 93T190 0L122 17Z" />
</font>
</defs>
</svg>
