<?xml version="1.0" standalone="no"?>
<!DOCTYPE svg PUBLIC "-//W3C//DTD SVG 1.1//EN" "http://www.w3.org/Graphics/SVG/1.1/DTD/svg11.dtd">
<svg xmlns="http://www.w3.org/2000/svg">
<defs >
<font id="Nobile" horiz-adv-x="982" ><font-face
    font-family="Nobile"
    units-per-em="2048"
    panose-1="2 0 5 3 5 0 0 2 0 4"
    ascent="1731"
    descent="-578"
    alphabetic="0" />
<glyph unicode=" " glyph-name="space" horiz-adv-x="512" />
<glyph unicode="!" glyph-name="exclam" horiz-adv-x="790" d="M319 121V202H444H483Q498 202 507 200T520 189T526 165T528 121Q528 100 530 83T532 51Q532 39 529 30T517 14T490 4T444 0H319V121ZM502 399H319V1579H502V399Z" />
<glyph unicode="&quot;" glyph-name="quotedbl" horiz-adv-x="634" d="M602 1579V1508L542 1058H434L374 1508V1579H602ZM264 1579V1508L204 1058H96L36 1508V1579H264Z" />
<glyph unicode="#" glyph-name="numbersign" horiz-adv-x="1234" d="M732 684L758 905H576L549 684H732ZM537 561L504 295H363L396 561H230V684H406L433 905H258V1030H447L478 1309H617L586 1030H775L803 1307H945L914 1030H1074V905H902L875 684H1051V561H863L832
295H691L723 561H537Z" />
<glyph unicode="$" glyph-name="dollar" horiz-adv-x="1139" d="M643 134Q693 135 734 150T804 190T848 251T864 329Q864 367 854 395T819 447T752 492T643 539V134ZM540 1099Q465 1099 418 1085T343 1048T305 994T294 932Q294 902 303 878T340 831T415 786T540
739V1099ZM540 1390H643V1236Q701 1236 759 1226T866 1203Q921 1189 974 1171L935 1044Q889 1059 840 1071Q798 1082 746 1090T643 1099V709Q758 667 833 627T951 543T1012 450T1029 340Q1029 248 998 183T915 76T792 12T643 -18V-178H540V-20Q514 -20 485 -17T424
-8T362 5T302 21Q234 39 166 63L215 207Q275 185 334 168Q385 153 440 141T540 129V568Q423 598 344 634T217 714T148 811T127 929Q127 1022 157 1079T241 1170T371 1217T540 1240V1390Z" />
<glyph unicode="%" glyph-name="percent" horiz-adv-x="1724" d="M1380 136Q1492 136 1544 215T1597 453Q1597 612 1547 697T1380 782Q1321 782 1281 761T1215 697T1178 594T1166 453Q1166 294 1217 215T1380 136ZM1382 11Q1286 11 1218 49T1106 149T1043 290T1023
451Q1023 558 1045 642T1113 783T1225 871T1382 902Q1476 902 1544 872T1655 784T1720 642T1741 451Q1741 374 1722 296T1659 154T1548 51T1382 11ZM405 729Q517 729 569 808T622 1046Q622 1205 572 1290T405 1375Q346 1375 306 1354T240 1290T203 1187T191 1046Q191
887 242 808T405 729ZM407 604Q311 604 243 642T131 742T68 883T48 1044Q48 1151 70 1235T138 1376T250 1464T407 1495Q501 1495 569 1465T680 1377T745 1235T766 1044Q766 967 747 889T684 747T573 644T407 604ZM1136 1497L1265 1430L584 -22L454 37L1136 1497Z"
/>
<glyph unicode="&amp;" glyph-name="ampersand" horiz-adv-x="1597" d="M314 418Q314 342 336 283T406 184T526 122T699 100Q802 100 875 109T1001 138T1088 187T1148 256L560 726Q434 699 374 625T314 418ZM699 -39Q132 -39 132 396Q132 565 215 669T466 822Q434
843 399 873T333 940T284 1021T264 1113Q264 1187 290 1248T368 1353T493 1421T663 1445Q762 1445 837 1420T962 1350T1038 1246T1064 1115Q1064 1043 1040 992T970 903T857 837T705 781L1200 391Q1205 419 1208 453T1213 525T1215 601T1216 673Q1216 699 1216
721T1215 761Q1214 780 1214 796H1378Q1378 796 1376 770Q1375 745 1374 704T1369 612T1362 511T1353 415T1343 341L1331 277L1557 95L1471 -7L1260 170Q1203 60 1066 11T699 -39ZM904 1119Q904 1165 887 1200T839 1260T763 1297T663 1310Q430 1310 430 1117Q430
1052 478 990T609 873Q625 877 653 886T714 909T780 942T841 988T886 1046T904 1119Z" />
<glyph unicode="&apos;" glyph-name="quotesingle" horiz-adv-x="634" d="M433 1579V1508L373 1058H265L205 1508V1579H433Z" />
<glyph unicode="(" glyph-name="parenleft" horiz-adv-x="864" d="M271 696Q271 824 290 934T340 1137T412 1303T494 1435T576 1532T648 1595L759 1493Q718 1457 666 1389T568 1221T489 989T457 694Q457 531 486 399T559 167T652 1T743 -97L660 -205Q635 -189
596 -155T514 -67T428 59T350 228T293 439T271 696Z" />
<glyph unicode=")" glyph-name="parenright" horiz-adv-x="864" d="M612 710Q612 572 593 457T541 248T468 81T383 -49T298 -143T223 -205L123 -99Q165 -63 217 6T315 175T393 406T425 694Q425 854 397 985T325 1217T232 1387T140 1491L223 1599Q236 1590 270
1562T348 1484T437 1362T523 1195T587 978T612 710Z" />
<glyph unicode="*" glyph-name="asterisk" horiz-adv-x="933" d="M559 1567L662 1509L504 1237H815V1145H506L676 872L574 815L420 1090L266 815L164 872L334 1145H25V1237H336L178 1509L281 1567L420 1292L559 1567Z" />
<glyph unicode="+" glyph-name="plus" horiz-adv-x="1040" d="M620 518V174H479V518H166V651H479V995H620V651H934V518H620Z" />
<glyph unicode="," glyph-name="comma" horiz-adv-x="537" d="M134 293H395V44Q395 -71 337 -146T166 -253L135 -159Q173 -146 198 -132T238 -99T259 -56T265 0H134V293Z" />
<glyph unicode="-" glyph-name="hyphen" horiz-adv-x="944" d="M134 508V665H810V508H134Z" />
<glyph unicode="." glyph-name="period" horiz-adv-x="595" d="M190 293H451V0H190V293Z" />
<glyph unicode="/" glyph-name="slash" horiz-adv-x="1043" d="M818 1731L987 1669L363 -179L193 -117L818 1731Z" />
<glyph unicode="0" glyph-name="zero" horiz-adv-x="1356" d="M678 113Q775 113 847 146T968 242T1040 393T1064 592Q1064 645 1057 701T1032 810T986 911T914 993T813 1049T678 1070Q576 1070 503 1034T384 934T317 783T295 592Q295 536 302 479T326 368T372
269T443 188T544 133T678 113ZM674 1209Q779 1209 862 1183T1008 1113T1117 1009T1191 884T1233 747T1247 610Q1247 532 1235 455T1194 306T1122 173T1014 67T866 -4T674 -30Q542 -30 437 15T259 143T148 340T109 593Q109 670 122 745T165 889T239 1016T347 1118T491
1185T674 1209Z" />
<glyph unicode="1" glyph-name="one" horiz-adv-x="744" d="M324 1057L117 957L64 1083Q107 1103 149 1122T235 1162L321 1202H511V0H324V1057Z" />
<glyph unicode="2" glyph-name="two" horiz-adv-x="1104" d="M776 846Q776 949 707 1004T500 1059Q473 1059 440 1054T372 1040T302 1019T235 992L182 1108Q203 1123 234 1139T307 1168T402 1189T522 1198Q605 1198 668 1184T778 1144T855 1084T904 1010T930 929T938
845Q938 790 924 738T873 631T775 513T621 376L342 152H938V0H123V146L531 480Q607 542 655 590T730 681T766 762T776 846Z" />
<glyph unicode="3" glyph-name="three" horiz-adv-x="1136" d="M775 843Q775 958 705 1010T486 1063Q445 1063 395 1053T301 1029T225 1005T189 992L143 1127Q147 1128 179 1141T260 1168T369 1194T492 1206Q536 1206 586 1201T686 1181T782 1142T863 1079T919
989T940 866Q940 806 925 759T886 676T830 616T767 575T705 552T651 545Q680 539 715 528T787 498T858 450T920 382T963 288T979 166Q979 71 938 3T830 -110T679 -176T511 -198Q436 -198 365 -184T237 -153T146 -120T106 -102L160 31Q210 5 268 -14Q318 -31 381
-45T515 -59Q659 -59 729 3T799 186Q799 311 717 381T463 471V614Q521 614 577 625T677 662T748 732T775 843Z" />
<glyph unicode="4" glyph-name="four" horiz-adv-x="1199" d="M755 205V930L263 205H755ZM924 1169V207H1110V68H924V-260H755V68H106L78 205L762 1208L924 1169Z" />
<glyph unicode="5" glyph-name="five" horiz-adv-x="1102" d="M186 31Q260 -9 344 -32T518 -56Q835 -56 835 244Q835 400 761 474T538 549Q466 549 398 525T269 458L171 537V1169H919V1018H316V622Q316 621 329 633T372 659T446 686T556 698Q656 698 739 668T881
579T974 437T1007 244Q1007 139 973 56T876 -86T721 -176T516 -207Q418 -207 321 -184T135 -115L186 31Z" />
<glyph unicode="6" glyph-name="six" horiz-adv-x="1241" d="M1129 335Q1129 234 1097 145T1001 -11T845 -117T629 -156Q505 -156 411 -115T253 1T157 184T124 425Q124 555 151 665T227 868T343 1033T489 1163T658 1258T839 1319L882 1174Q803 1157 716 1121T550
1024T410 879T323 680Q356 704 392 724T471 760T560 784T663 793Q771 793 857 759T1003 665T1096 520T1129 335ZM302 401Q302 356 307 308T325 213T362 125T422 53T509 4T629 -14Q718 -14 780 18T880 100T936 213T953 335Q953 417 930 477T868 578T776 637T663
657Q605 657 548 642T442 606T358 562T308 523Q302 485 302 401Z" />
<glyph unicode="7" glyph-name="seven" horiz-adv-x="1132" d="M1038 1107L466 -176L298 -100L823 1074H145V1229H981L1038 1107Z" />
<glyph unicode="8" glyph-name="eight" horiz-adv-x="1262" d="M926 964Q926 1032 902 1077T838 1150T745 1188T637 1199Q584 1199 531 1189T434 1153T363 1082T336 966Q336 907 360 857T426 770T522 712T637 691Q695 691 747 711T840 769T903 855T926 964ZM926
253Q926 322 905 380T845 482T753 550T637 575Q572 575 517 551T422 485T359 383T336 255Q336 191 351 142T401 60T494 9T637 -9Q724 -9 780 9T868 61T913 143T926 253ZM1104 966Q1104 894 1082 840T1022 745T938 678T842 634Q971 595 1037 495T1104 231Q1104 137
1070 66T973 -52T826 -124T637 -148Q538 -148 451 -125T299 -55T196 63T158 233Q158 396 224 496T420 636Q372 652 326 678T242 745T181 840T158 968Q158 1056 194 1124T295 1238T447 1309T637 1334Q737 1334 823 1310T971 1238T1068 1123T1104 966Z" />
<glyph unicode="9" glyph-name="nine" horiz-adv-x="1246" d="M583 365Q475 365 389 398T242 493T149 638T117 823Q117 923 149 1012T245 1169T401 1275T617 1314Q741 1314 835 1273T993 1157T1089 974T1122 733Q1122 605 1095 495T1020 293T906 127T760 -4T591
-100T407 -161L364 -16Q414 -6 470 14T582 64T692 134T791 226T869 341T918 481Q866 430 780 398T583 365ZM293 823Q293 741 316 681T378 580T470 521T583 501Q641 501 698 515T804 551T888 595T938 635Q944 672 944 757Q944 802 939 850T921 945T884 1032T824
1105T736 1154T617 1172Q528 1172 467 1140T367 1058T311 946T293 823Z" />
<glyph unicode=":" glyph-name="colon" horiz-adv-x="596" d="M180 281H450V0H180V281ZM180 864H450V583H180V864Z" />
<glyph unicode=";" glyph-name="semicolon" horiz-adv-x="574" d="M169 864H432V583H169V864ZM171 293H432V44Q432 -71 374 -146T203 -253L172 -159Q210 -146 235 -132T275 -99T296 -56T302 0H171V293Z" />
<glyph unicode="&lt;" glyph-name="less" horiz-adv-x="1250" d="M336 749L898 1266L1000 1156L449 663L1000 170L898 60L243 663L336 749Z" />
<glyph unicode="=" glyph-name="equal" horiz-adv-x="944" d="M178 280V411H766V280H178ZM178 508V639H766V508H178Z" />
<glyph unicode="&gt;" glyph-name="greater" horiz-adv-x="1290" d="M425 60L323 170L874 663L323 1156L425 1266L1080 663L425 60Z" />
<glyph unicode="?" glyph-name="question" horiz-adv-x="1201" d="M508 218V0H308V218H508ZM841 1195Q841 1312 767 1365T547 1418Q475 1418 413 1405T303 1375Q248 1356 202 1332L141 1477Q196 1505 261 1528Q317 1547 390 1563T549 1579Q652 1579 740 1557T893
1487T995 1368T1032 1197Q1032 1112 1008 1046T942 929T847 838T734 769T614 717T498 675V296H318V777Q451 822 549 864T712 955T809 1062T841 1195Z" />
<glyph unicode="@" glyph-name="at" horiz-adv-x="1927" d="M973 -155Q753 -155 595 -96T336 63T186 297T138 578Q138 720 171 840T264 1057T404 1229T579 1354T778 1430T990 1456Q1098 1456 1200 1438T1393 1381T1557 1285T1685 1150T1769 974T1799 756Q1799
649 1778 566T1722 421T1641 317T1546 248T1448 211T1358 199Q1323 199 1304 208T1274 234T1261 271T1258 316V548Q1246 489 1216 428T1134 315T1011 232T842 199Q756 199 688 226T574 305T503 428T478 590Q478 655 497 720T552 845T639 956T753 1046T889 1106T1045
1128Q1061 1128 1090 1126T1152 1120T1218 1112T1276 1104Q1305 1099 1322 1088T1349 1062T1367 1027T1385 987V317Q1446 317 1493 341T1573 419T1622 556T1639 758Q1639 869 1613 953T1541 1100T1433 1203T1300 1270T1151 1306T996 1317Q845 1317 717 1267T496
1122T350 890T297 578Q297 440 341 330T471 143T686 25T983 -16Q1072 -16 1143 -5T1268 24T1362 61T1425 97T1460 124T1470 134L1561 42Q1520 -3 1460 -39T1325 -101T1160 -141T973 -155ZM1061 1008Q977 1008 900 977T763 888T668 751T633 573Q633 330 858 330Q944
330 1014 367T1133 485T1210 689T1237 987Q1238 987 1221 990T1178 997T1121 1004T1061 1008Z" />
<glyph unicode="A" glyph-name="A" horiz-adv-x="1458" d="M879 1579L1395 0H1196L1073 383H385L262 0H63L579 1579H879ZM412 485H1046L729 1456L412 485Z" />
<glyph unicode="B" glyph-name="B" horiz-adv-x="1365" d="M514 1579Q576 1579 650 1577T800 1563T945 1529T1070 1467T1158 1367T1191 1221Q1191 1115 1168 1050T1102 947T999 891T866 862Q908 857 954 849T1046 822T1132 773T1205 695T1254 580T1273 421Q1273
326 1251 258T1186 144T1082 69T942 25T771 5T573 0H153V1579H514ZM573 143Q721 143 820 161T980 217T1065 314T1091 457Q1091 550 1063 613T975 715T825 769T610 786H347V143H573ZM347 915H606Q730 915 811 931T940 982T1007 1074T1026 1212Q1026 1272 999 1314T911
1384T753 1423T518 1436H347V915Z" />
<glyph unicode="C" glyph-name="C" horiz-adv-x="1273" d="M304 768Q304 613 331 491T416 284T562 154T774 109Q852 109 921 126T1044 163Q1106 187 1157 218L1213 79Q1153 45 1083 19Q1023 -4 944 -22T773 -41Q601 -41 475 15T267 175T144 429T103 767Q103 858
117 955T163 1147T246 1325T373 1472T549 1573T781 1610Q868 1610 942 1598T1070 1570Q1133 1552 1185 1530L1140 1385Q1095 1405 1040 1421Q992 1435 929 1446T788 1458Q660 1458 568 1406T418 1262T332 1044T304 768Z" />
<glyph unicode="D" glyph-name="D" horiz-adv-x="1489" d="M1184 789Q1184 1108 1076 1272T742 1436H347V144H719Q949 144 1066 307T1184 789ZM1385 796Q1385 688 1373 587T1330 398T1250 236T1125 111T949 29T713 0H156V1579H695Q867 1579 996 1534T1211 1393T1341
1150T1385 796Z" />
<glyph unicode="E" glyph-name="E" horiz-adv-x="1192" d="M153 0V1579H1123V1436H347V891H1025V776H347V143H1136V0H153Z" />
<glyph unicode="F" glyph-name="F" horiz-adv-x="1124" d="M347 0H153V1579H1074V1436H347V879H1013V764H347V0Z" />
<glyph unicode="G" glyph-name="G" horiz-adv-x="1469" d="M1166 684H755V811H1342V0H1254L1201 213Q1189 162 1156 116T1067 35T931 -20T744 -41Q585 -41 465 21T265 193T144 455T103 786Q103 996 149 1151T282 1408T494 1560T777 1610Q835 1610 895 1603T1013
1579T1127 1538T1233 1476L1167 1341Q1139 1365 1098 1386T1005 1423T893 1448T765 1458Q652 1458 566 1419T422 1297T334 1090T304 792Q304 628 328 502T406 288T548 156T764 111Q850 111 923 126T1051 175T1135 264T1166 399V684Z" />
<glyph unicode="H" glyph-name="H" horiz-adv-x="1527" d="M1179 764H347V0H153V1579H347V879H1179V1579H1373V0H1179V764Z" />
<glyph unicode="I" glyph-name="I" horiz-adv-x="781" d="M302 112V1461H98V1579H691V1461H485V112H691V0H98V112H302Z" />
<glyph unicode="J" glyph-name="J" horiz-adv-x="721" d="M49 35Q160 55 224 89T322 175T365 302T375 479V1579H567V514Q567 391 552 286T487 103T346 -26T100 -90L49 35Z" />
<glyph unicode="K" glyph-name="K" horiz-adv-x="1389" d="M347 0H153V1579H347V854H570L1060 1579H1267L724 798L1334 0H1117L562 747H347V0Z" />
<glyph unicode="L" glyph-name="L" horiz-adv-x="1180" d="M153 0V1579H347V143H1093V0H153Z" />
<glyph unicode="M" glyph-name="M" horiz-adv-x="1917" d="M347 1459V0H153V1579H483L958 208L1433 1579H1763V0H1569V1459L1056 0H860L347 1459Z" />
<glyph unicode="N" glyph-name="N" horiz-adv-x="1597" d="M1194 0L347 1404V0H153V1579H415L1249 185V1579H1443V0H1194Z" />
<glyph unicode="O" glyph-name="O" horiz-adv-x="1516" d="M1415 806Q1415 696 1403 591T1363 391T1286 217T1164 80T991 -10T758 -43Q625 -43 524 -10T351 84T230 226T154 405T114 609T102 829Q102 1010 144 1154T270 1400T475 1554T758 1608Q919 1608 1042 1554T1248
1397T1373 1145T1415 806ZM303 775Q303 439 419 276T758 112Q862 112 946 147T1089 262T1181 467T1213 775Q1213 956 1183 1085T1096 1298T955 1420T765 1459Q655 1459 569 1422T424 1302T334 1090T303 775Z" />
<glyph unicode="P" glyph-name="P" horiz-adv-x="1330" d="M1250 1112Q1250 993 1211 904T1085 756T858 668T517 639H347V0H153V1579H550Q631 1579 714 1572T876 1547T1022 1496T1140 1411T1220 1286T1250 1112ZM499 784Q650 784 755 801T926 856T1020 950T1050
1088Q1050 1208 1012 1277T906 1381T745 1426T544 1436H347V784H499Z" />
<glyph unicode="Q" glyph-name="Q" horiz-adv-x="1533" d="M1430 772Q1430 610 1399 473T1304 231T1140 60T902 -29L1281 -293L1162 -424L669 -35Q553 -22 466 20T316 125T212 267T147 434T113 614T103 794Q103 898 118 998T165 1190T248 1358T371 1491T537 1578T751
1610Q915 1610 1041 1559T1254 1403T1385 1141T1430 772ZM767 1458Q637 1458 549 1408T406 1269T328 1056T304 784Q304 634 327 510T405 298T548 160T767 111Q865 111 938 141T1062 223T1146 343T1197 485T1223 636T1230 783Q1230 922 1209 1044T1134 1259T992
1404T767 1458Z" />
<glyph unicode="R" glyph-name="R" horiz-adv-x="1377" d="M647 862Q760 862 836 887T959 954T1024 1053T1044 1174Q1044 1240 1023 1285T964 1360T879 1404T776 1427T666 1435T557 1436H347V862H647ZM833 797Q943 785 1021 754T1148 673T1221 554T1244 397V0H1050V412Q1050
492 1032 546T981 636T901 691T796 720T670 731T527 733H347V0H153V1579H619Q764 1579 880 1558T1078 1490T1202 1369T1246 1190Q1246 1090 1215 1016T1129 894T998 821T833 797Z" />
<glyph unicode="S" glyph-name="S" horiz-adv-x="1264" d="M1172 418Q1172 332 1144 250T1049 103T873 -1T604 -41Q516 -41 434 -24T288 15Q213 40 147 72L167 222Q226 191 293 166Q350 145 424 128T577 111Q656 111 728 123T854 169T940 260T972 409Q972 466
955 512T904 594T825 658T720 707L436 807Q368 831 304 864T189 945T109 1055T78 1198Q78 1309 116 1387T222 1514T385 1587T594 1610Q667 1610 734 1600T861 1571T974 1531T1070 1484L1040 1337Q1003 1359 956 1380T854 1419T742 1447T624 1458Q531 1458 466 1444T359
1400T298 1323T278 1210Q278 1053 471 986L784 877Q862 850 932 810T1056 713T1141 584T1172 418Z" />
<glyph unicode="T" glyph-name="T" horiz-adv-x="1247" d="M718 1436V0H524V1436H66V1579H1174V1436H718Z" />
<glyph unicode="U" glyph-name="U" horiz-adv-x="1533" d="M762 111Q888 111 972 144T1105 250T1175 436T1196 711V1579H1390V715Q1390 537 1356 397T1247 159T1055 11T771 -41Q593 -41 472 10T275 159T167 397T134 715V1579H328V711Q328 550 353 436T430 250T565
145T762 111Z" />
<glyph unicode="V" glyph-name="V" horiz-adv-x="1360" d="M681 180L1115 1579H1297L803 0H559L63 1579H247L681 180Z" />
<glyph unicode="W" glyph-name="W" horiz-adv-x="1961" d="M1113 1579L1407 135L1711 1579H1898L1552 -6H1235L980 1462L683 0H401L55 1579H241L545 135L839 1579H1113Z" />
<glyph unicode="X" glyph-name="X" horiz-adv-x="1322" d="M1069 1579H1265L770 780L1267 0H1049L661 626L273 0H55L552 780L57 1579H253L661 923L1069 1579Z" />
<glyph unicode="Y" glyph-name="Y" horiz-adv-x="1318" d="M1075 1579H1266L752 485V0H562V485L48 1579H245L662 677L1075 1579Z" />
<glyph unicode="Z" glyph-name="Z" horiz-adv-x="1244" d="M1142 1419L309 143H1144V0H112V180L941 1436H112V1579H1142V1419Z" />
<glyph unicode="[" glyph-name="bracketleft" horiz-adv-x="1054" d="M933 1579V1436H462V143H933V0H269V1579H933Z" />
<glyph unicode="\" glyph-name="backslash" horiz-adv-x="1031" d="M898 -114L738 -172L117 1679L275 1731L898 -114Z" />
<glyph unicode="]" glyph-name="bracketright" horiz-adv-x="1114" d="M825 1579V0H161V143H632V1436H161V1579H825Z" />
<glyph unicode="^" glyph-name="asciicircum" horiz-adv-x="1428" d="M762 1011L1054 510L926 432L714 809L502 432L374 510L666 1011H762Z" />
<glyph unicode="_" glyph-name="underscore" horiz-adv-x="1265" d="M127 -111V33H1067V-111H127Z" />
<glyph unicode="`" glyph-name="grave" horiz-adv-x="778" d="M88 645L330 734L483 116L416 90L88 645Z" />
<glyph unicode="a" glyph-name="a" horiz-adv-x="1200" d="M610 1053Q565 1053 516 1045T418 1022T324 984T241 932L173 1064Q230 1095 279 1118T378 1158T484 1182T610 1190Q761 1190 851 1157T989 1055T1051 879T1066 624V0H926L898 178Q824 74 722 27T493 -20Q403
-20 331 3T207 71T129 185T101 343Q101 430 134 499T223 616T353 689T509 715Q591 715 658 707T774 690T850 672L876 665Q876 768 872 842T843 962T764 1031T610 1053ZM540 117Q631 117 712 156T876 271V569Q834 575 794 579Q759 583 719 586T644 590Q572 590 508
583T396 550T320 478T292 353Q292 283 310 238T360 165T438 128T540 117Z" />
<glyph unicode="b" glyph-name="b" horiz-adv-x="1254" d="M689 117Q830 117 903 238T977 613Q977 728 958 811T901 948T810 1027T689 1053Q601 1053 513 1015T334 902V273Q502 117 689 117ZM678 -20Q628 -20 579 -6T482 34T392 96T312 178L284 0H144V1579L334
1614V1030Q373 1070 418 1100T507 1150T592 1180T663 1190Q901 1190 1027 1048T1153 613Q1153 426 1114 304T1010 110T858 9T678 -20Z" />
<glyph unicode="c" glyph-name="c" horiz-adv-x="1071" d="M609 -20Q495 -20 402 19T242 135T138 323T101 580Q101 704 134 814T233 1008T393 1141T612 1190Q723 1190 821 1158T1000 1068L943 935Q918 960 882 981T805 1019T721 1044T638 1053Q526 1043 458 1005T352
903T303 756T291 572Q291 459 313 374T377 231T477 146T609 117Q669 117 715 125T801 150T874 191T943 245L1000 111Q965 87 925 64T836 22T731 -8T609 -20Z" />
<glyph unicode="d" glyph-name="d" horiz-adv-x="1259" d="M283 584Q283 450 305 361T368 217T462 140T581 117Q624 117 670 127T761 156T849 205T928 275V903Q886 934 844 961T759 1009T670 1041T575 1053Q490 1053 434 1017T345 916T297 767T283 584ZM549 1190Q663
1190 759 1152T928 1028V1579L1118 1614V0H977L949 179Q916 137 875 101T785 37T685 -5T577 -20Q461 -20 373 23T224 147T132 344T101 608Q101 725 132 830T222 1016T364 1143T549 1190Z" />
<glyph unicode="e" glyph-name="e" horiz-adv-x="1144" d="M1005 101Q965 72 914 50T811 12T709 -12T625 -20Q493 -20 395 24T231 147T134 336T101 578Q101 697 132 807T226 1003T380 1139T594 1190Q708 1190 794 1156T940 1056T1029 897T1059 684Q1059 652 1057
623T1051 567H291Q291 442 315 356T384 217T494 141T641 117Q689 117 729 124T804 146T873 183T943 234L1005 101ZM891 717Q891 797 871 859T815 965T730 1030T621 1053Q542 1053 483 1024T384 945T321 828T291 682H891V717Z" />
<glyph unicode="f" glyph-name="f" horiz-adv-x="837" d="M571 1516Q512 1516 482 1491T438 1420T424 1310T423 1169H771V1064H423V0H233V1064H38V1169H233Q233 1303 251 1396T309 1547T407 1632T548 1659Q619 1659 686 1638T814 1579L751 1454Q710 1477 665 1496T571
1516Z" />
<glyph unicode="g" glyph-name="g" horiz-adv-x="1257" d="M573 -277Q676 -277 757 -272T893 -246T978 -183T1007 -66Q1007 0 980 38T901 97T776 122T611 128Q565 128 515 128T410 127Q389 111 368 91T331 47T304 -4T293 -64Q293 -123 307 -163T353 -229T439 -266T573
-277ZM629 589Q684 601 728 616T802 659T849 735T865 860Q865 916 850 954T802 1015T722 1048T608 1058Q554 1058 506 1049T421 1016T364 951T342 845Q342 798 357 755T397 676T453 613T515 571L629 589ZM949 1025Q987 987 1008 949T1030 860Q1030 780 1010 716T947
603T837 522T673 472L323 408L342 260H632Q773 260 875 244T1042 188T1138 86T1169 -70Q1169 -179 1125 -248T1000 -357T808 -412T562 -427Q469 -427 391 -409T255 -350T167 -247T135 -95Q135 -46 152 -7T196 61T257 111T328 142Q290 150 265 165T222 209T195 283T179
396Q178 399 178 411Q178 450 201 473T257 510T323 530T378 542Q341 553 306 581T243 650T198 743T181 854Q181 932 210 994T294 1099T429 1166T612 1190Q693 1190 762 1173T882 1114Q920 1133 945 1144T997 1162T1060 1171T1157 1173H1187V1025H949Z" />
<glyph unicode="h" glyph-name="h" horiz-adv-x="1270" d="M334 989Q390 1050 438 1089T531 1150T624 1181T726 1190Q817 1190 882 1170T992 1112T1064 1023T1106 908T1126 773T1131 623V0H941V623Q941 734 932 815T898 949T828 1027T710 1053Q647 1053 588 1036T479
993T392 939T334 888V0H144V1579L334 1616V989Z" />
<glyph unicode="i" glyph-name="i" horiz-adv-x="528" d="M174 0V1169H356V0H174ZM157 1462Q157 1486 165 1506T189 1543T224 1568T267 1577Q291 1577 311 1568T346 1542T369 1505T377 1462Q377 1438 369 1418T345 1381T310 1356T267 1347Q243 1347 223 1356T188
1382T165 1418T157 1462Z" />
<glyph unicode="j" glyph-name="j" horiz-adv-x="546" d="M192 1462Q192 1486 200 1506T224 1543T259 1568T302 1577Q326 1577 346 1568T381 1542T404 1505T412 1462Q412 1438 404 1418T380 1381T345 1356T302 1347Q278 1347 258 1356T223 1382T200 1418T192 1462ZM19
-258Q85 -216 123 -167T179 -56T202 77T207 238V341V1169H397V154Q397 51 375 -37T309 -194T205 -308T66 -373L19 -258Z" />
<glyph unicode="k" glyph-name="k" horiz-adv-x="1225" d="M334 0H144V1579L334 1614V627L893 1169H1118L565 648L1151 0H930L450 555L334 459V0Z" />
<glyph unicode="l" glyph-name="l" horiz-adv-x="508" d="M348 0H158V1579L348 1614V0Z" />
<glyph unicode="m" glyph-name="m" horiz-adv-x="1941" d="M334 0H144V1169H285L312 963Q344 1015 385 1057T477 1128T585 1174T707 1190Q771 1190 823 1173T915 1125T982 1055T1026 967Q1060 1017 1107 1058T1208 1128T1323 1174T1446 1190Q1534 1190 1600 1158T1712
1070T1779 936T1802 766V0H1612V768Q1612 858 1597 914T1555 1000T1493 1042T1418 1053Q1326 1053 1238 1003T1056 858V0H866V768Q866 837 857 890T827 979T768 1034T674 1053Q595 1053 512 1004T334 860V0Z" />
<glyph unicode="n" glyph-name="n" horiz-adv-x="1267" d="M308 982Q338 1019 388 1056T497 1123T621 1171T745 1190Q850 1190 922 1159T1041 1068T1107 922T1128 727V0H938V727Q938 803 926 863T887 966T817 1030T711 1053Q663 1053 606 1034T496 988T399 931T334
880V0H144V1169H284L308 982Z" />
<glyph unicode="o" glyph-name="o" horiz-adv-x="1264" d="M633 95Q705 95 758 115T850 171T914 254T954 353T975 461T981 567Q981 618 975 672T954 779T914 879T851 961T758 1017T633 1038Q562 1038 509 1017T417 961T353 878T312 779T291 672T285 567Q285 516
291 462T312 355T352 255T416 173T508 116T633 95ZM1162 570Q1162 500 1152 428T1118 287T1055 160T957 57T818 -12T632 -38Q527 -38 447 -13T308 57T210 160T146 287T112 427T102 570Q102 641 112 713T146 853T209 980T307 1083T446 1152T632 1177Q737 1177 817
1152T956 1083T1054 980T1118 854T1152 714T1162 570Z" />
<glyph unicode="p" glyph-name="p" horiz-adv-x="1263" d="M699 1053Q652 1053 602 1041T503 1007T411 955T334 890V285Q362 251 402 221T489 167T585 131T679 117Q766 117 824 153T916 251T965 393T980 561Q980 691 959 784T900 937T811 1025T699 1053ZM686 -20Q635
-20 585 -6T490 34T404 92T334 164V-465L144 -487V1169H285L318 971Q352 1016 394 1056T483 1125T580 1172T681 1190Q786 1190 874 1158T1026 1053T1126 866T1162 587Q1162 516 1151 444T1115 304T1053 177T962 75T841 6T686 -20Z" />
<glyph unicode="q" glyph-name="q" horiz-adv-x="1259" d="M597 117Q638 117 687 132T782 171T867 220T928 268V891Q892 927 845 957T747 1008T649 1041T562 1053Q476 1053 422 1014T337 910T295 760T283 584Q283 462 301 374T358 229T456 145T597 117ZM571 1190Q627
1190 681 1172T785 1123T875 1053T945 971L979 1169H1118V-479L928 -502V164Q899 128 861 95T777 36T679 -5T568 -20Q449 -20 362 28T216 160T130 355T101 593Q101 717 124 825T202 1015T347 1143T571 1190Z" />
<glyph unicode="r" glyph-name="r" horiz-adv-x="803" d="M317 977Q351 1019 386 1058T459 1126T542 1172T639 1190Q695 1190 739 1178V1026Q737 1027 728 1028T705 1029T673 1030T637 1030Q595 1030 554 1016T475 980T401 929T334 870V0H144V1169H287L317 977Z" />
<glyph unicode="s" glyph-name="s" horiz-adv-x="992" d="M338 584Q287 602 242 628T164 691T112 775T93 881Q93 959 125 1017T212 1114T335 1171T478 1190Q544 1190 606 1177T721 1145T813 1105T872 1067L810 941Q749 988 668 1020T491 1053Q432 1053 388 1040T313
1004T268 952T253 891Q253 835 296 800T417 737L585 678Q662 651 724 619T831 545T900 449T925 325Q925 262 904 200T834 89T707 10T515 -21Q437 -21 371 -7T252 26T162 67T103 104L166 231Q188 213 225 193T308 156T403 128T497 117Q530 117 574 125T658 154T725
212T753 306Q753 346 739 376T700 430T639 472T562 505L338 584Z" />
<glyph unicode="t" glyph-name="t" horiz-adv-x="855" d="M485 -20Q397 -20 344 9T263 96T226 239T217 437V1065H34V1169H220L245 1530L407 1576V1169H740V1065H407V295Q407 241 412 207T431 152T465 125T519 117Q555 117 602 137T731 203L798 80Q710 26 634 3T485 -20Z" />
<glyph unicode="u" glyph-name="u" horiz-adv-x="1241" d="M324 442Q324 355 339 294T384 193T457 136T556 117Q603 117 647 125T734 152T820 200T910 274V1169H1100V0H959L932 176Q904 145 867 111T782 47T678 -1T554 -20Q454 -20 376 6T244 88T162 231T134 442V1169H324V442Z"
/>
<glyph unicode="v" glyph-name="v" horiz-adv-x="1134" d="M473 0L45 1169H233L569 199L899 1169H1089L659 0H473Z" />
<glyph unicode="w" glyph-name="w" horiz-adv-x="1644" d="M823 995L571 0H365L45 1169H229L463 124L721 1169H923L1173 122L1413 1169H1599L1279 0H1073L823 995Z" />
<glyph unicode="x" glyph-name="x" horiz-adv-x="1126" d="M280 0H68L476 584L64 1169H280L562 702L852 1169H1062L656 584L1054 0H850L568 477L280 0Z" />
<glyph unicode="y" glyph-name="y" horiz-adv-x="1123" d="M45 1169H227L582 249L883 1169H1078L641 -37Q613 -114 580 -173T510 -277T438 -352T368 -403Q289 -451 207 -459L156 -334Q215 -320 266 -297T359 -232T435 -129T496 23L45 1169Z" />
<glyph unicode="z" glyph-name="z" horiz-adv-x="1024" d="M133 1035V1169H905V1004L279 136H905V0H103V166L741 1035H133Z" />
<glyph unicode="{" glyph-name="braceleft" horiz-adv-x="823" d="M504 1096Q502 997 490 924T449 800T375 716T262 665Q328 647 373 615T447 532T489 407T504 234Q505 138 524 83T576 1T651 -33T742 -40V-209Q529 -209 431 -92T333 263Q333 346 316 404T267 500T191
554T95 571V759Q149 759 193 776T268 830T316 925T333 1067Q333 1304 431 1421T742 1539V1370Q694 1370 651 1363T576 1329T525 1247T504 1096Z" />
<glyph unicode="|" glyph-name="bar" horiz-adv-x="625" d="M224 1696H402V-111H224V1696Z" />
<glyph unicode="}" glyph-name="braceright" horiz-adv-x="827" d="M363 1096Q361 1192 342 1247T291 1329T216 1363T125 1370V1539Q338 1539 436 1422T534 1067Q534 984 551 926T599 830T674 776T772 759V571Q719 571 676 554T601 500T552 405T534 263Q534 26
436 -91T125 -209V-40Q173 -40 216 -33T291 1T342 83T363 234Q364 334 377 407T419 531T493 615T605 665Q538 683 493 715T419 799T377 924T363 1096Z" />
<glyph unicode="~" glyph-name="asciitilde" horiz-adv-x="899" d="M656 390Q652 390 649 390Q614 390 580 399Q542 409 504 425Q463 442 434 457T382 483T344 502T315 509Q279 509 264 485T249 394H93Q93 468 108 518T151 598T217 641T300 654Q341 654 385 635T473
592T559 549T640 529Q661 529 672 540T689 569T696 605T697 640H853Q853 585 841 539T803 460T741 409T656 390Z" />
<glyph unicode="&#xa0;" glyph-name="uni00A0" horiz-adv-x="512" />
<glyph unicode="&#xa1;" glyph-name="exclamdown" horiz-adv-x="790" d="M502 0H343V1180H502V0ZM319 1458Q319 1499 321 1523T330 1560T350 1576T385 1580Q432 1580 461 1578T505 1571T526 1555T532 1528Q532 1514 530 1497T528 1458Q528 1430 527 1414T521 1390T507
1379T483 1376Q475 1376 465 1376T444 1377H319V1458Z" />
<glyph unicode="&#xa2;" glyph-name="cent" horiz-adv-x="1138" d="M332 580Q332 480 349 400T402 262T490 170T616 129V1037Q542 1027 489 991T401 895T349 756T332 580ZM616 -22Q502 -14 414 31T266 154T174 340T142 580Q142 713 173 821T266 1007T415 1132T616
1189V1329H719V1186Q757 1186 800 1177T886 1153T969 1118T1041 1077L984 944Q923 987 857 1011T719 1038V130Q791 132 856 151T984 205L1030 68Q1003 53 966 38T887 10T802 -11T719 -19V-159H616V-22Z" />
<glyph unicode="&#xa3;" glyph-name="sterling" horiz-adv-x="1128" d="M207 137Q232 167 257 214T303 321T336 452T349 603H152V706H322Q268 762 239 832T209 992Q209 1086 244 1149T342 1250T490 1305T676 1322Q773 1322 863 1295T1039 1219L989 1088Q904 1128
821 1154T659 1180Q521 1180 456 1129T391 978Q391 931 398 896T420 830T456 770T507 706H935V603H507Q507 534 498 467T473 340T435 230T388 143H1004V0H207V137Z" />
<glyph unicode="&#xa4;" glyph-name="currency" horiz-adv-x="1366" d="M321 742Q253 846 253 970Q253 1097 328 1208L134 1402L258 1526L452 1333Q564 1409 691 1409Q816 1409 920 1341L1106 1526L1230 1402L1043 1215Q1104 1118 1104 993Q1104 869 1028 757L1230
555L1106 430L903 633Q793 558 669 558Q544 558 447 619L258 430L134 555L321 742ZM685 1266Q628 1266 576 1242T484 1178T420 1085T396 975Q396 918 418 868T478 780T566 721T672 699Q729 699 781 723T873 787T938 879T962 989Q962 1046 940 1096T881 1184T793
1244T685 1266Z" />
<glyph unicode="&#xa5;" glyph-name="yen" horiz-adv-x="1277" d="M1075 1579H1269L788 688H1051V584H755V488H1051V389H755V0H565V389H263V488H565V584H263V688H524L41 1579H235L655 788L1075 1579Z" />
<glyph unicode="&#xa6;" glyph-name="brokenbar" horiz-adv-x="640" d="M249 1579H437V889H249V1579ZM249 690H437V0H249V690Z" />
<glyph unicode="&#xa7;" glyph-name="section" horiz-adv-x="1192" d="M616 600Q658 600 700 605T777 627T832 673T853 751Q853 799 833 829T780 877T704 900T614 906Q561 906 518 898T444 872T396 824T379 753Q379 675 438 638T616 600ZM906 1316Q840 1367 769
1395T612 1424Q491 1424 436 1387T381 1271Q381 1236 401 1212T462 1169T559 1130T692 1083Q763 1057 822 1027T923 959T989 871T1013 756Q1013 690 990 648T931 579T850 541T764 522Q836 496 884 465T961 394T1002 304T1015 191Q1015 132 986 80T905 -13T781 -76T624
-99Q556 -99 493 -86T377 -54T288 -15T235 20L296 158Q326 127 366 106T447 73T524 55T582 50Q711 50 778 90T846 223Q846 266 833 295T795 344T738 377T665 405L505 459Q449 478 398 500T309 556T248 635T225 750Q225 798 238 839T280 913T359 966T480 995Q403
1023 354 1052T276 1116T236 1195T225 1296Q225 1368 260 1419T351 1504T475 1553T609 1569Q653 1569 706 1558T810 1529T902 1491T964 1452L906 1316Z" />
<glyph unicode="&#xa8;" glyph-name="dieresis" horiz-adv-x="952" d="M121 215Q121 238 129 259T152 295T187 321T233 330Q258 330 278 321T314 296T337 259T345 215Q345 192 337 171T314 134T279 109T233 100Q208 100 188 109T152 134T129 171T121 215ZM610
215Q610 238 618 259T641 295T676 321T722 330Q747 330 767 321T803 296T826 259T834 215Q834 192 826 171T803 134T768 109T722 100Q697 100 677 109T641 134T618 171T610 215Z" />
<glyph unicode="&#xa9;" glyph-name="copyright" horiz-adv-x="2101" d="M1039 101Q1202 101 1336 158T1565 313T1713 544T1766 829Q1766 942 1736 1040T1655 1220T1533 1365T1382 1472T1214 1539T1039 1562Q951 1562 863 1539T694 1472T544 1365T423 1220T342
1040T312 829Q312 677 364 545T512 314T742 158T1039 101ZM716 831Q716 724 737 653T802 540T910 481T1062 464Q1205 464 1356 540V414Q1203 336 1076 336Q920 336 819 378T659 489T577 647T554 831Q554 894 563 955T596 1071T658 1173T755 1254T892 1307T1076
1326Q1203 1326 1356 1248V1122Q1205 1198 1062 1198Q975 1198 910 1181T802 1122T738 1009T716 831ZM1039 -23Q928 -23 820 4T615 82T435 207T292 377T198 585T164 830Q164 961 199 1075T296 1284T442 1454T623 1581T826 1660T1039 1687Q1146 1687 1252 1660T1456
1580T1637 1453T1782 1283T1879 1074T1914 830Q1914 702 1881 589T1789 382T1647 212T1468 84T1262 5T1039 -23Z" />
<glyph unicode="&#xaa;" glyph-name="ordfeminine" horiz-adv-x="1186" d="M817 828Q816 828 801 803T752 748T662 693T523 668Q449 668 391 687T291 744T228 835T206 960Q206 1032 232 1087T305 1181T419 1238T565 1258Q608 1258 649 1253T723 1241T776 1228T799
1218V1276Q799 1334 793 1378T766 1453T708 1498T607 1513Q548 1513 496 1502T404 1478T341 1454T316 1443L263 1552Q264 1552 290 1565T361 1595T467 1624T599 1638Q701 1638 770 1616T881 1546T942 1421T960 1235V686H844L817 828ZM799 1141Q748 1149 704 1153T623
1158Q367 1158 367 971Q367 918 377 882T409 824T469 791T561 781Q616 781 660 799T735 840T782 882T799 903V1141ZM270 575H954V446H270V575Z" />
<glyph unicode="&#xab;" glyph-name="guillemotleft" horiz-adv-x="1533" d="M929 577L1366 306V99L758 481V666L1366 1049V842L929 577ZM322 577L758 306V99L150 481V666L758 1049V842L322 577Z" />
<glyph unicode="&#xac;" glyph-name="logicalnot" horiz-adv-x="1724" d="M94 1018V1169H1448V338H1272V1018H94Z" />
<glyph unicode="&#xad;" glyph-name="uni00AD" horiz-adv-x="864" d="M154 508V639H622V508H154Z" />
<glyph unicode="&#xae;" glyph-name="registered" horiz-adv-x="1334" d="M102 1108Q102 1224 147 1327T271 1507T457 1629T691 1674Q815 1674 922 1630T1109 1510T1235 1330T1281 1108Q1281 989 1236 886T1111 707T923 586T691 542Q565 542 457 586T270 708T147
888T102 1108ZM690 641Q793 641 879 677T1028 777T1124 924T1159 1106Q1159 1205 1124 1290T1027 1438T879 1536T690 1572Q587 1572 502 1536T355 1438T259 1290T224 1105Q224 1007 258 922T353 775T500 677T690 641ZM816 1244Q816 1266 808 1281T778 1307T717
1321T617 1326V1150Q638 1150 659 1150T701 1149Q759 1149 787 1168T816 1244ZM816 797L652 1068H617V807H511V1408H649Q700 1408 748 1402T835 1377T897 1327T920 1244Q920 1208 912 1180T885 1131T834 1100T754 1086L909 847L816 797Z" />
<glyph unicode="&#xaf;" glyph-name="overscore" horiz-adv-x="1003" d="M98 215H780V98H98V215Z" />
<glyph unicode="&#xb0;" glyph-name="degree" horiz-adv-x="780" d="M143 899Q143 951 161 995T211 1071T289 1121T387 1139Q439 1139 482 1121T557 1071T605 994T623 899Q623 848 606 804T558 728T484 678T387 660Q333 660 288 678T211 729T161 804T143 899ZM385
1048Q353 1048 327 1036T281 1004T251 957T240 899Q240 868 251 841T282 794T328 762T385 750Q416 750 442 761T487 793T516 841T526 899Q526 930 516 957T487 1005T442 1036T385 1048Z" />
<glyph unicode="&#xb1;" glyph-name="plusminus" horiz-adv-x="1143" d="M240 -56V83H941V-56H240ZM660 577V233H519V577H206V710H519V1054H660V710H974V577H660Z" />
<glyph unicode="&#xb2;" glyph-name="uni00B2" horiz-adv-x="1126" d="M253 805L524 1045Q592 1105 635 1148T703 1225T737 1289T747 1354Q747 1424 699 1462T566 1500Q518 1500 467 1492T371 1474Q320 1463 270 1448V1586Q306 1601 354 1612Q395 1622 451 1630T576
1638Q676 1638 742 1610T847 1540T903 1449T919 1357Q919 1309 907 1267T867 1181T793 1089T676 982L485 820H891V668H253V805Z" />
<glyph unicode="&#xb3;" glyph-name="uni00B3" horiz-adv-x="1208" d="M351 745Q376 733 406 720T472 697T548 679T631 672Q679 672 719 685T789 721T835 778T851 853Q851 947 788 1002T589 1072V1207Q635 1207 679 1217T757 1249T811 1304T832 1383Q832 1458
778 1499T608 1541Q579 1541 548 1537T486 1524T427 1506T374 1484L327 1611Q329 1612 352 1622T415 1645T505 1667T613 1677Q650 1677 692 1672T775 1654T855 1620T922 1568T968 1493T986 1394Q986 1324 959 1276T892 1198T811 1155T741 1142Q766 1137 796 1128T857
1103T917 1064T968 1008T1003 933T1017 835Q1017 758 982 702T891 610T766 557T628 540Q537 540 456 559T300 618L351 745Z" />
<glyph unicode="&#xb4;" glyph-name="acute" horiz-adv-x="1097" d="M489 127L648 738L880 647L546 101L489 127Z" />
<glyph unicode="&#xb5;" glyph-name="uni00B5" horiz-adv-x="1320" d="M185 1169H359V442Q359 123 611 123Q681 123 740 142T844 186T919 237T958 274V1169H1166V16H1020L996 170Q825 -20 599 -20Q553 -20 515 -7T447 27T395 71T359 113V-291H185V1169Z" />
<glyph unicode="&#xb6;" glyph-name="paragraph" horiz-adv-x="1314" d="M1128 0H942V1436H807V0H617V905Q523 905 435 921T279 976T169 1082T128 1250Q128 1321 148 1373T205 1461T292 1521T401 1556T527 1573T662 1578H1128V0Z" />
<glyph unicode="&#xb7;" glyph-name="middot" horiz-adv-x="518" d="M133 650Q133 673 141 694T164 730T199 755T245 765Q270 765 290 756T326 731T349 694T357 650Q357 627 349 606T326 569T291 544T245 535Q220 535 200 544T164 569T141 606T133 650Z" />
<glyph unicode="&#xb8;" glyph-name="cedilla" horiz-adv-x="575" d="M196 -423Q196 -423 218 -430Q239 -436 266 -443T321 -457T360 -464Q394 -464 420 -460T463 -441T490 -399T499 -328Q499 -289 485 -262T440 -218T361 -194T246 -186V20H367V-98Q427 -98 476
-111T559 -152T613 -223T632 -327Q632 -447 572 -512T380 -578Q332 -578 284 -566T196 -540V-423Z" />
<glyph unicode="&#xb9;" glyph-name="uni00B9" horiz-adv-x="740" d="M327 1304L156 1232L119 1345L356 1440L496 1414V478H327V1304Z" />
<glyph unicode="&#xba;" glyph-name="ordmasculine" horiz-adv-x="1276" d="M638 670Q530 670 451 707T319 810T240 963T214 1152Q214 1251 239 1339T317 1493T449 1599T638 1638Q747 1638 827 1599T959 1494T1037 1339T1063 1152Q1063 1052 1038 965T960 812T827
708T638 670ZM638 797Q710 797 760 823T843 897T890 1010T905 1154Q905 1230 890 1295T843 1409T761 1484T638 1512Q566 1512 516 1485T433 1410T386 1297T371 1154Q371 1077 386 1012T433 899T515 824T638 797ZM300 575H984V446H300V575Z" />
<glyph unicode="&#xbb;" glyph-name="guillemotright" horiz-adv-x="1533" d="M167 1049L776 666V481L167 99V306L614 577L167 842V1049ZM774 1049L1383 666V481L774 99V306L1221 577L774 842V1049Z" />
<glyph unicode="&#xbc;" glyph-name="onequarter" horiz-adv-x="1816" d="M1394 144V697L997 144H1394ZM1530 915V145H1681V34H1530V-227L1385 -250V34H860L838 144L1402 946L1530 915ZM1272 1365L1394 1272L353 -123L233 -30L1272 1365ZM345 1413L175 1341L137
1434L375 1529L505 1503V568H345V1413Z" />
<glyph unicode="&#xbd;" glyph-name="onehalf" horiz-adv-x="2068" d="M1697 514Q1697 584 1645 619T1508 655Q1472 655 1427 648T1339 632T1265 615T1220 603V748Q1268 765 1341 781T1526 798Q1626 798 1692 770T1797 700T1853 609T1869 517Q1869 469 1857 427T1817
341T1743 249T1626 142L1435 -20H1841V-172H1203V-35Q1271 25 1338 85T1474 205Q1542 266 1585 308T1653 385T1687 449T1697 514ZM401 1413L231 1341L193 1434L431 1529L561 1503V568H401V1413ZM1302 1365L1424 1272L401 -123L263 -30L1302 1365Z" />
<glyph unicode="&#xbe;" glyph-name="threequarters" horiz-adv-x="2159" d="M1700 144V697L1303 144H1700ZM1836 915V145H1987V34H1836V-227L1691 -250V34H1166L1144 144L1708 946L1836 915ZM1569 1365L1700 1272L659 -123L539 -30L1569 1365ZM723 1383Q723 1458
669 1499T499 1541Q470 1541 439 1537T377 1524T318 1506T265 1484L218 1611Q220 1612 243 1622T306 1645T396 1667T504 1677Q541 1677 583 1672T666 1654T746 1620T813 1568T859 1493T877 1394Q877 1324 850 1276T783 1198T702 1155T632 1142Q657 1137 687 1128T748
1103T808 1064T859 1008T894 933T908 835Q908 755 872 699T777 607T648 556T507 540Q429 540 355 560T191 618L242 745Q267 733 297 720T363 697T439 679T522 672Q570 672 610 685T680 721T726 778T742 853Q742 948 679 1002T480 1072V1207Q526 1207 570 1217T648
1249T702 1304T723 1383Z" />
<glyph unicode="&#xbf;" glyph-name="questiondown" horiz-adv-x="1232" d="M665 1361V1579H865V1361H665ZM332 384Q332 267 406 214T626 161Q698 161 760 174T870 204Q925 222 971 247L1032 102Q977 73 912 51Q856 31 783 16T624 0Q521 0 433 22T280 92T178 211T141
382Q141 466 165 532T231 650T326 741T439 810T559 862T675 904V1283H855V802Q722 757 624 715T461 624T364 518T332 384Z" />
<glyph unicode="&#xc0;" glyph-name="Agrave" horiz-adv-x="1458" d="M879 1579L1395 0H1196L1073 383H385L262 0H63L579 1579H879ZM412 485H1046L729 1456L412 485ZM432 2260L674 2349L827 1731L760 1705L432 2260Z" />
<glyph unicode="&#xc1;" glyph-name="Aacute" horiz-adv-x="1458" d="M879 1579L1395 0H1196L1073 383H385L262 0H63L579 1579H879ZM412 485H1046L729 1456L412 485ZM669 1742L828 2353L1060 2262L726 1716L669 1742Z" />
<glyph unicode="&#xc2;" glyph-name="Acircumflex" horiz-adv-x="1458" d="M879 1579L1395 0H1196L1073 383H385L262 0H63L579 1579H879ZM412 485H1046L729 1456L412 485ZM777 2278L1069 1777L941 1699L729 2076L517 1699L389 1777L681 2278H777Z" />
<glyph unicode="&#xc3;" glyph-name="Atilde" horiz-adv-x="1458" d="M879 1579L1395 0H1196L1073 383H385L262 0H63L579 1579H879ZM412 485H1046L729 1456L412 485ZM918 1722Q862 1722 810 1740T713 1781T630 1822T565 1841Q535 1841 521 1817T506 1726H350Q350
1986 551 1986Q608 1986 655 1966T753 1917Q791 1895 825 1878T895 1861Q954 1861 954 1972H1110Q1110 1915 1097 1869T1058 1791T998 1740T918 1722Z" />
<glyph unicode="&#xc4;" glyph-name="Adieresis" horiz-adv-x="1458" d="M879 1579L1395 0H1196L1073 383H385L262 0H63L579 1579H879ZM412 485H1046L729 1456L412 485ZM373 1830Q373 1853 381 1874T404 1910T439 1936T485 1945Q510 1945 530 1936T566 1911T589
1874T597 1830Q597 1807 589 1786T566 1749T531 1724T485 1715Q460 1715 440 1724T404 1749T381 1786T373 1830ZM862 1830Q862 1853 870 1874T893 1910T928 1936T974 1945Q999 1945 1019 1936T1055 1911T1078 1874T1086 1830Q1086 1807 1078 1786T1055 1749T1020
1724T974 1715Q949 1715 929 1724T893 1749T870 1786T862 1830Z" />
<glyph unicode="&#xc5;" glyph-name="Aring" horiz-adv-x="1458" d="M879 1579L1395 0H1196L1073 383H385L262 0H63L579 1579H879ZM412 485H1046L729 1456L412 485ZM586 1926Q586 1895 596 1868T626 1821T672 1789T730 1777Q762 1777 788 1788T834 1820T865 1868T876
1926Q876 1957 865 1984T835 2031T789 2063T730 2075Q698 2075 672 2064T627 2032T597 1984T586 1926ZM731 2166Q783 2166 827 2148T904 2097T955 2020T973 1925Q973 1875 955 1832T905 1756T828 1705T731 1686Q678 1686 634 1704T557 1755T506 1831T488 1925Q488
1976 506 2020T556 2096T633 2147T731 2166Z" />
<glyph unicode="&#xc6;" glyph-name="AE" horiz-adv-x="1945" d="M1014 1459L524 493H1014V1459ZM1827 1436H1179V891H1784V764H1181V143H1855V0H1016V371H464L272 0H63L889 1579H1827V1436Z" />
<glyph unicode="&#xc7;" glyph-name="Ccedilla" horiz-adv-x="1273" d="M304 768Q304 613 331 491T416 284T562 154T774 109Q852 109 921 126T1044 163Q1106 187 1157 218L1213 79Q1153 45 1083 19Q1023 -4 944 -22T773 -41Q601 -41 475 15T267 175T144 429T103
767Q103 858 117 955T163 1147T246 1325T373 1472T549 1573T781 1610Q868 1610 942 1598T1070 1570Q1133 1552 1185 1530L1140 1385Q1095 1405 1040 1421Q992 1435 929 1446T788 1458Q660 1458 568 1406T418 1262T332 1044T304 768ZM666 -462Q666 -462 688 -469Q709
-475 736 -482T791 -496T830 -503Q864 -503 890 -499T933 -480T960 -438T969 -367Q969 -328 955 -301T910 -257T831 -233T716 -225V-19H837V-137Q897 -137 946 -150T1029 -191T1083 -262T1102 -366Q1102 -486 1042 -551T850 -617Q802 -617 754 -605T666 -579V-462Z"
/>
<glyph unicode="&#xc8;" glyph-name="Egrave" horiz-adv-x="1192" d="M153 0V1579H1123V1436H347V891H1025V776H347V143H1136V0H153ZM347 2260L589 2349L742 1731L675 1705L347 2260Z" />
<glyph unicode="&#xc9;" glyph-name="Eacute" horiz-adv-x="1192" d="M153 0V1579H1123V1436H347V891H1025V776H347V143H1136V0H153ZM584 1742L743 2353L975 2262L641 1716L584 1742Z" />
<glyph unicode="&#xca;" glyph-name="Ecircumflex" horiz-adv-x="1192" d="M153 0V1579H1123V1436H347V891H1025V776H347V143H1136V0H153ZM693 2278L985 1777L857 1699L645 2076L433 1699L305 1777L597 2278H693Z" />
<glyph unicode="&#xcb;" glyph-name="Edieresis" horiz-adv-x="1192" d="M153 0V1579H1123V1436H347V891H1025V776H347V143H1136V0H153ZM288 1830Q288 1853 296 1874T319 1910T354 1936T400 1945Q425 1945 445 1936T481 1911T504 1874T512 1830Q512 1807 504 1786T481
1749T446 1724T400 1715Q375 1715 355 1724T319 1749T296 1786T288 1830ZM777 1830Q777 1853 785 1874T808 1910T843 1936T889 1945Q914 1945 934 1936T970 1911T993 1874T1001 1830Q1001 1807 993 1786T970 1749T935 1724T889 1715Q864 1715 844 1724T808 1749T785
1786T777 1830Z" />
<glyph unicode="&#xcc;" glyph-name="Igrave" horiz-adv-x="781" d="M302 112V1461H98V1579H691V1461H485V112H691V0H98V112H302ZM97 2260L339 2349L492 1731L425 1705L97 2260Z" />
<glyph unicode="&#xcd;" glyph-name="Iacute" horiz-adv-x="781" d="M302 112V1461H98V1579H691V1461H485V112H691V0H98V112H302ZM335 1742L494 2353L726 2262L392 1716L335 1742Z" />
<glyph unicode="&#xce;" glyph-name="Icircumflex" horiz-adv-x="781" d="M302 112V1461H98V1579H691V1461H485V112H691V0H98V112H302ZM443 2278L735 1777L607 1699L395 2076L183 1699L55 1777L347 2278H443Z" />
<glyph unicode="&#xcf;" glyph-name="Idieresis" horiz-adv-x="781" d="M302 112V1461H98V1579H691V1461H485V112H691V0H98V112H302ZM39 1830Q39 1853 47 1874T70 1910T105 1936T151 1945Q176 1945 196 1936T232 1911T255 1874T263 1830Q263 1807 255 1786T232
1749T197 1724T151 1715Q126 1715 106 1724T70 1749T47 1786T39 1830ZM528 1830Q528 1853 536 1874T559 1910T594 1936T640 1945Q665 1945 685 1936T721 1911T744 1874T752 1830Q752 1807 744 1786T721 1749T686 1724T640 1715Q615 1715 595 1724T559 1749T536
1786T528 1830Z" />
<glyph unicode="&#xd0;" glyph-name="Eth" horiz-adv-x="1471" d="M1167 789Q1167 932 1146 1051T1072 1255T931 1388T709 1436H350V895H584V764H350V143H709Q847 143 936 192T1076 327T1147 532T1167 789ZM1368 788Q1368 680 1352 580T1303 392T1217 232T1091
109T922 29T709 0H156V764H-6V895H156V1579H709Q886 1579 1011 1523T1215 1362T1331 1112T1368 788Z" />
<glyph unicode="&#xd1;" glyph-name="Ntilde" horiz-adv-x="1597" d="M1194 0L347 1404V0H153V1579H415L1249 185V1579H1443V0H1194ZM987 1722Q931 1722 879 1740T782 1781T699 1822T634 1841Q604 1841 590 1817T575 1726H419Q419 1986 620 1986Q677 1986 724
1966T822 1917Q860 1895 894 1878T964 1861Q1023 1861 1023 1972H1179Q1179 1915 1166 1869T1127 1791T1067 1740T987 1722Z" />
<glyph unicode="&#xd2;" glyph-name="Ograve" horiz-adv-x="1516" d="M1415 806Q1415 696 1403 591T1363 391T1286 217T1164 80T991 -10T758 -43Q625 -43 524 -10T351 84T230 226T154 405T114 609T102 829Q102 1010 144 1154T270 1400T475 1554T758 1608Q919 1608
1042 1554T1248 1397T1373 1145T1415 806ZM303 775Q303 439 419 276T758 112Q862 112 946 147T1089 262T1181 467T1213 775Q1213 956 1183 1085T1096 1298T955 1420T765 1459Q655 1459 569 1422T424 1302T334 1090T303 775ZM461 2260L703 2349L856 1731L789 1705L461
2260Z" />
<glyph unicode="&#xd3;" glyph-name="Oacute" horiz-adv-x="1516" d="M1415 806Q1415 696 1403 591T1363 391T1286 217T1164 80T991 -10T758 -43Q625 -43 524 -10T351 84T230 226T154 405T114 609T102 829Q102 1010 144 1154T270 1400T475 1554T758 1608Q919 1608
1042 1554T1248 1397T1373 1145T1415 806ZM303 775Q303 439 419 276T758 112Q862 112 946 147T1089 262T1181 467T1213 775Q1213 956 1183 1085T1096 1298T955 1420T765 1459Q655 1459 569 1422T424 1302T334 1090T303 775ZM698 1742L857 2353L1089 2262L755 1716L698
1742Z" />
<glyph unicode="&#xd4;" glyph-name="Ocircumflex" horiz-adv-x="1516" d="M1415 806Q1415 696 1403 591T1363 391T1286 217T1164 80T991 -10T758 -43Q625 -43 524 -10T351 84T230 226T154 405T114 609T102 829Q102 1010 144 1154T270 1400T475 1554T758 1608Q919
1608 1042 1554T1248 1397T1373 1145T1415 806ZM303 775Q303 439 419 276T758 112Q862 112 946 147T1089 262T1181 467T1213 775Q1213 956 1183 1085T1096 1298T955 1420T765 1459Q655 1459 569 1422T424 1302T334 1090T303 775ZM806 2278L1098 1777L970 1699L758
2076L546 1699L418 1777L710 2278H806Z" />
<glyph unicode="&#xd5;" glyph-name="Otilde" horiz-adv-x="1516" d="M1415 806Q1415 696 1403 591T1363 391T1286 217T1164 80T991 -10T758 -43Q625 -43 524 -10T351 84T230 226T154 405T114 609T102 829Q102 1010 144 1154T270 1400T475 1554T758 1608Q919 1608
1042 1554T1248 1397T1373 1145T1415 806ZM303 775Q303 439 419 276T758 112Q862 112 946 147T1089 262T1181 467T1213 775Q1213 956 1183 1085T1096 1298T955 1420T765 1459Q655 1459 569 1422T424 1302T334 1090T303 775ZM947 1722Q891 1722 839 1740T742 1781T659
1822T594 1841Q564 1841 550 1817T535 1726H379Q379 1986 580 1986Q637 1986 684 1966T782 1917Q820 1895 854 1878T924 1861Q983 1861 983 1972H1139Q1139 1915 1126 1869T1087 1791T1027 1740T947 1722Z" />
<glyph unicode="&#xd6;" glyph-name="Odieresis" horiz-adv-x="1516" d="M1415 806Q1415 696 1403 591T1363 391T1286 217T1164 80T991 -10T758 -43Q625 -43 524 -10T351 84T230 226T154 405T114 609T102 829Q102 1010 144 1154T270 1400T475 1554T758 1608Q919
1608 1042 1554T1248 1397T1373 1145T1415 806ZM303 775Q303 439 419 276T758 112Q862 112 946 147T1089 262T1181 467T1213 775Q1213 956 1183 1085T1096 1298T955 1420T765 1459Q655 1459 569 1422T424 1302T334 1090T303 775ZM402 1830Q402 1853 410 1874T433
1910T468 1936T514 1945Q539 1945 559 1936T595 1911T618 1874T626 1830Q626 1807 618 1786T595 1749T560 1724T514 1715Q489 1715 469 1724T433 1749T410 1786T402 1830ZM891 1830Q891 1853 899 1874T922 1910T957 1936T1003 1945Q1028 1945 1048 1936T1084 1911T1107
1874T1115 1830Q1115 1807 1107 1786T1084 1749T1049 1724T1003 1715Q978 1715 958 1724T922 1749T899 1786T891 1830Z" />
<glyph unicode="&#xd7;" glyph-name="multiply" horiz-adv-x="1365" d="M380 965L697 648L1014 965L1116 863L799 546L1116 229L1014 127L697 444L380 127L278 229L595 546L278 863L380 965Z" />
<glyph unicode="&#xd8;" glyph-name="Oslash" horiz-adv-x="1517" d="M402 49Q341 90 287 149T192 296T127 503T103 784Q103 965 134 1096T217 1320T336 1468T474 1556T615 1599T744 1610Q841 1610 924 1593T1076 1538L1154 1710L1255 1668L1169 1477Q1235 1424
1281 1351T1357 1189T1400 998T1414 784Q1414 609 1380 459T1268 197T1065 23T758 -41Q701 -41 636 -33T502 0L430 -159L329 -113L402 49ZM568 147Q589 137 618 129Q643 122 678 117T759 111Q852 111 922 136T1042 208T1125 317T1178 454T1205 613T1213 784Q1213
971 1182 1099T1092 1307L568 147ZM304 784Q304 726 308 651T328 496T379 342T475 209L1009 1390Q960 1429 896 1443T766 1458Q672 1458 601 1434T479 1366T394 1261T340 1124T312 963T304 784Z" />
<glyph unicode="&#xd9;" glyph-name="Ugrave" horiz-adv-x="1533" d="M762 111Q888 111 972 144T1105 250T1175 436T1196 711V1579H1390V715Q1390 537 1356 397T1247 159T1055 11T771 -41Q593 -41 472 10T275 159T167 397T134 715V1579H328V711Q328 550 353 436T430
250T565 145T762 111ZM465 2260L707 2349L860 1731L793 1705L465 2260Z" />
<glyph unicode="&#xda;" glyph-name="Uacute" horiz-adv-x="1533" d="M762 111Q888 111 972 144T1105 250T1175 436T1196 711V1579H1390V715Q1390 537 1356 397T1247 159T1055 11T771 -41Q593 -41 472 10T275 159T167 397T134 715V1579H328V711Q328 550 353 436T430
250T565 145T762 111ZM702 1742L861 2353L1093 2262L759 1716L702 1742Z" />
<glyph unicode="&#xdb;" glyph-name="Ucircumflex" horiz-adv-x="1533" d="M762 111Q888 111 972 144T1105 250T1175 436T1196 711V1579H1390V715Q1390 537 1356 397T1247 159T1055 11T771 -41Q593 -41 472 10T275 159T167 397T134 715V1579H328V711Q328 550 353
436T430 250T565 145T762 111ZM810 2278L1102 1777L974 1699L762 2076L550 1699L422 1777L714 2278H810Z" />
<glyph unicode="&#xdc;" glyph-name="Udieresis" horiz-adv-x="1533" d="M762 111Q888 111 972 144T1105 250T1175 436T1196 711V1579H1390V715Q1390 537 1356 397T1247 159T1055 11T771 -41Q593 -41 472 10T275 159T167 397T134 715V1579H328V711Q328 550 353
436T430 250T565 145T762 111ZM406 1830Q406 1853 414 1874T437 1910T472 1936T518 1945Q543 1945 563 1936T599 1911T622 1874T630 1830Q630 1807 622 1786T599 1749T564 1724T518 1715Q493 1715 473 1724T437 1749T414 1786T406 1830ZM895 1830Q895 1853 903
1874T926 1910T961 1936T1007 1945Q1032 1945 1052 1936T1088 1911T1111 1874T1119 1830Q1119 1807 1111 1786T1088 1749T1053 1724T1007 1715Q982 1715 962 1724T926 1749T903 1786T895 1830Z" />
<glyph unicode="&#xdd;" glyph-name="Yacute" horiz-adv-x="1318" d="M1075 1579H1266L752 485V0H562V485L48 1579H245L662 677L1075 1579ZM597 1742L756 2353L988 2262L654 1716L597 1742Z" />
<glyph unicode="&#xde;" glyph-name="Thorn" horiz-adv-x="1453" d="M1060 959Q1060 1061 1038 1127T952 1232T777 1285T484 1300H347V649Q441 649 518 650T659 656T774 669T867 691Q928 711 966 739T1025 801T1053 875T1060 959ZM347 504V0H153V1579H347V1444Q406
1444 466 1444T585 1443T696 1438T794 1429Q929 1411 1016 1372T1153 1274T1222 1140T1242 973Q1242 868 1208 782T1090 634T865 538T509 504H347Z" />
<glyph unicode="&#xdf;" glyph-name="germandbls" horiz-adv-x="1399" d="M491 905Q574 905 640 906T756 915T842 940T900 990T932 1074T943 1200Q943 1268 921 1313T858 1386T757 1424T622 1436Q535 1436 481 1408T397 1322T357 1181T347 984V0H153V991Q153 1126
175 1234T251 1419T395 1537T622 1579Q864 1579 989 1476T1115 1176Q1115 1107 1098 1049T1049 948T969 877T862 842Q954 832 1033 802T1171 718T1263 585T1297 399Q1297 292 1265 211T1176 72T1043 -26T881 -87T704 -119T523 -129V27Q533 26 543 26H576Q678 26
775 43T947 106T1069 230T1115 432Q1115 509 1085 572T982 680T789 749T491 774V905Z" />
<glyph unicode="&#xe0;" glyph-name="agrave" horiz-adv-x="1200" d="M610 1053Q565 1053 516 1045T418 1022T324 984T241 932L173 1064Q230 1095 279 1118T378 1158T484 1182T610 1190Q761 1190 851 1157T989 1055T1051 879T1066 624V0H926L898 178Q824 74 722
27T493 -20Q403 -20 331 3T207 71T129 185T101 343Q101 430 134 499T223 616T353 689T509 715Q591 715 658 707T774 690T850 672L876 665Q876 768 872 842T843 962T764 1031T610 1053ZM540 117Q631 117 712 156T876 271V569Q834 575 794 579Q759 583 719 586T644
590Q572 590 508 583T396 550T320 478T292 353Q292 283 310 238T360 165T438 128T540 117ZM286 1825L528 1914L681 1296L614 1270L286 1825Z" />
<glyph unicode="&#xe1;" glyph-name="aacute" horiz-adv-x="1200" d="M610 1053Q565 1053 516 1045T418 1022T324 984T241 932L173 1064Q230 1095 279 1118T378 1158T484 1182T610 1190Q761 1190 851 1157T989 1055T1051 879T1066 624V0H926L898 178Q824 74 722
27T493 -20Q403 -20 331 3T207 71T129 185T101 343Q101 430 134 499T223 616T353 689T509 715Q591 715 658 707T774 690T850 672L876 665Q876 768 872 842T843 962T764 1031T610 1053ZM540 117Q631 117 712 156T876 271V569Q834 575 794 579Q759 583 719 586T644
590Q572 590 508 583T396 550T320 478T292 353Q292 283 310 238T360 165T438 128T540 117ZM523 1307L682 1918L914 1827L580 1281L523 1307Z" />
<glyph unicode="&#xe2;" glyph-name="acircumflex" horiz-adv-x="1200" d="M610 1053Q565 1053 516 1045T418 1022T324 984T241 932L173 1064Q230 1095 279 1118T378 1158T484 1182T610 1190Q761 1190 851 1157T989 1055T1051 879T1066 624V0H926L898 178Q824
74 722 27T493 -20Q403 -20 331 3T207 71T129 185T101 343Q101 430 134 499T223 616T353 689T509 715Q591 715 658 707T774 690T850 672L876 665Q876 768 872 842T843 962T764 1031T610 1053ZM540 117Q631 117 712 156T876 271V569Q834 575 794 579Q759 583 719
586T644 590Q572 590 508 583T396 550T320 478T292 353Q292 283 310 238T360 165T438 128T540 117ZM632 1843L924 1342L796 1264L584 1641L372 1264L244 1342L536 1843H632Z" />
<glyph unicode="&#xe3;" glyph-name="atilde" horiz-adv-x="1200" d="M610 1053Q565 1053 516 1045T418 1022T324 984T241 932L173 1064Q230 1095 279 1118T378 1158T484 1182T610 1190Q761 1190 851 1157T989 1055T1051 879T1066 624V0H926L898 178Q824 74 722
27T493 -20Q403 -20 331 3T207 71T129 185T101 343Q101 430 134 499T223 616T353 689T509 715Q591 715 658 707T774 690T850 672L876 665Q876 768 872 842T843 962T764 1031T610 1053ZM540 117Q631 117 712 156T876 271V569Q834 575 794 579Q759 583 719 586T644
590Q572 590 508 583T396 550T320 478T292 353Q292 283 310 238T360 165T438 128T540 117ZM772 1287Q716 1287 664 1305T567 1346T484 1387T419 1406Q389 1406 375 1382T360 1291H204Q204 1551 405 1551Q462 1551 509 1531T607 1482Q645 1460 679 1443T749 1426Q808
1426 808 1537H964Q964 1480 951 1434T912 1356T852 1305T772 1287Z" />
<glyph unicode="&#xe4;" glyph-name="adieresis" horiz-adv-x="1200" d="M610 1053Q565 1053 516 1045T418 1022T324 984T241 932L173 1064Q230 1095 279 1118T378 1158T484 1182T610 1190Q761 1190 851 1157T989 1055T1051 879T1066 624V0H926L898 178Q824 74
722 27T493 -20Q403 -20 331 3T207 71T129 185T101 343Q101 430 134 499T223 616T353 689T509 715Q591 715 658 707T774 690T850 672L876 665Q876 768 872 842T843 962T764 1031T610 1053ZM540 117Q631 117 712 156T876 271V569Q834 575 794 579Q759 583 719 586T644
590Q572 590 508 583T396 550T320 478T292 353Q292 283 310 238T360 165T438 128T540 117ZM227 1395Q227 1418 235 1439T258 1475T293 1501T339 1510Q364 1510 384 1501T420 1476T443 1439T451 1395Q451 1372 443 1351T420 1314T385 1289T339 1280Q314 1280 294
1289T258 1314T235 1351T227 1395ZM716 1395Q716 1418 724 1439T747 1475T782 1501T828 1510Q853 1510 873 1501T909 1476T932 1439T940 1395Q940 1372 932 1351T909 1314T874 1289T828 1280Q803 1280 783 1289T747 1314T724 1351T716 1395Z" />
<glyph unicode="&#xe5;" glyph-name="aring" horiz-adv-x="1200" d="M610 1053Q565 1053 516 1045T418 1022T324 984T241 932L173 1064Q230 1095 279 1118T378 1158T484 1182T610 1190Q761 1190 851 1157T989 1055T1051 879T1066 624V0H926L898 178Q824 74 722
27T493 -20Q403 -20 331 3T207 71T129 185T101 343Q101 430 134 499T223 616T353 689T509 715Q591 715 658 707T774 690T850 672L876 665Q876 768 872 842T843 962T764 1031T610 1053ZM540 117Q631 117 712 156T876 271V569Q834 575 794 579Q759 583 719 586T644
590Q572 590 508 583T396 550T320 478T292 353Q292 283 310 238T360 165T438 128T540 117ZM440 1491Q440 1460 450 1433T480 1386T526 1354T584 1342Q616 1342 642 1353T688 1385T719 1433T730 1491Q730 1522 719 1549T689 1596T643 1628T584 1640Q552 1640 526
1629T481 1597T451 1549T440 1491ZM585 1731Q637 1731 681 1713T758 1662T809 1585T827 1490Q827 1440 809 1397T759 1321T682 1270T585 1251Q532 1251 488 1269T411 1320T360 1396T342 1490Q342 1541 360 1585T410 1661T487 1712T585 1731Z" />
<glyph unicode="&#xe6;" glyph-name="ae" horiz-adv-x="1907" d="M1654 682Q1654 803 1629 877T1563 991T1475 1044T1380 1057Q1348 1057 1312 1052T1240 1031T1170 990T1111 921T1070 821T1054 682H1654ZM1768 99Q1730 71 1680 49T1577 10T1475 -14T1388 -23Q1233
-23 1126 36T955 207Q922 163 876 122T772 48T649 -3T508 -23Q415 -23 342 0T219 70T143 183T116 339Q116 429 147 499T237 617T377 690T560 715Q594 715 636 711T721 700T802 684T864 665Q864 775 857 848T824 966T748 1028T612 1047Q557 1047 501 1035T396 1006T308
969T249 934L182 1059Q213 1086 264 1109T375 1151T494 1179T602 1190Q683 1190 746 1178T856 1140T934 1072T984 970Q1011 1025 1052 1066T1145 1135T1256 1176T1379 1190Q1487 1190 1569 1153T1708 1049T1793 886T1822 676Q1822 652 1820 625T1814 567H1054Q1054
468 1070 387T1126 248T1232 159T1400 127Q1569 127 1706 244L1768 99ZM307 356Q307 292 321 247T366 174T443 132T555 119Q700 119 864 271V569Q798 579 740 584T629 590Q532 590 470 573T371 526T321 452T307 356Z" />
<glyph unicode="&#xe7;" glyph-name="ccedilla" horiz-adv-x="1078" d="M609 -20Q495 -20 402 19T242 135T138 323T101 580Q101 704 134 814T233 1008T393 1141T612 1190Q723 1190 821 1158T1000 1068L943 935Q918 960 882 981T805 1019T721 1044T638 1053Q526
1043 458 1005T352 903T303 756T291 572Q291 459 313 374T377 231T477 146T609 117Q669 117 715 125T801 150T874 191T943 245L1000 111Q965 87 925 64T836 22T731 -8T609 -20ZM561 -423Q561 -423 583 -430Q604 -436 631 -443T686 -457T725 -464Q759 -464 785 -460T828
-441T855 -399T864 -328Q864 -289 850 -262T805 -218T726 -194T611 -186V20H732V-98Q792 -98 841 -111T924 -152T978 -223T997 -327Q997 -447 937 -512T745 -578Q697 -578 649 -566T561 -540V-423Z" />
<glyph unicode="&#xe8;" glyph-name="egrave" horiz-adv-x="1144" d="M1005 101Q965 72 914 50T811 12T709 -12T625 -20Q493 -20 395 24T231 147T134 336T101 578Q101 697 132 807T226 1003T380 1139T594 1190Q708 1190 794 1156T940 1056T1029 897T1059 684Q1059
652 1057 623T1051 567H291Q291 442 315 356T384 217T494 141T641 117Q689 117 729 124T804 146T873 183T943 234L1005 101ZM891 717Q891 797 871 859T815 965T730 1030T621 1053Q542 1053 483 1024T384 945T321 828T291 682H891V717ZM283 1825L525 1914L678 1296L611
1270L283 1825Z" />
<glyph unicode="&#xe9;" glyph-name="eacute" horiz-adv-x="1144" d="M1005 101Q965 72 914 50T811 12T709 -12T625 -20Q493 -20 395 24T231 147T134 336T101 578Q101 697 132 807T226 1003T380 1139T594 1190Q708 1190 794 1156T940 1056T1029 897T1059 684Q1059
652 1057 623T1051 567H291Q291 442 315 356T384 217T494 141T641 117Q689 117 729 124T804 146T873 183T943 234L1005 101ZM891 717Q891 797 871 859T815 965T730 1030T621 1053Q542 1053 483 1024T384 945T321 828T291 682H891V717ZM520 1307L679 1918L911 1827L577
1281L520 1307Z" />
<glyph unicode="&#xea;" glyph-name="ecircumflex" horiz-adv-x="1144" d="M1005 101Q965 72 914 50T811 12T709 -12T625 -20Q493 -20 395 24T231 147T134 336T101 578Q101 697 132 807T226 1003T380 1139T594 1190Q708 1190 794 1156T940 1056T1029 897T1059
684Q1059 652 1057 623T1051 567H291Q291 442 315 356T384 217T494 141T641 117Q689 117 729 124T804 146T873 183T943 234L1005 101ZM891 717Q891 797 871 859T815 965T730 1030T621 1053Q542 1053 483 1024T384 945T321 828T291 682H891V717ZM629 1843L921 1342L793
1264L581 1641L369 1264L241 1342L533 1843H629Z" />
<glyph unicode="&#xeb;" glyph-name="edieresis" horiz-adv-x="1144" d="M1005 101Q965 72 914 50T811 12T709 -12T625 -20Q493 -20 395 24T231 147T134 336T101 578Q101 697 132 807T226 1003T380 1139T594 1190Q708 1190 794 1156T940 1056T1029 897T1059 684Q1059
652 1057 623T1051 567H291Q291 442 315 356T384 217T494 141T641 117Q689 117 729 124T804 146T873 183T943 234L1005 101ZM891 717Q891 797 871 859T815 965T730 1030T621 1053Q542 1053 483 1024T384 945T321 828T291 682H891V717ZM224 1395Q224 1418 232 1439T255
1475T290 1501T336 1510Q361 1510 381 1501T417 1476T440 1439T448 1395Q448 1372 440 1351T417 1314T382 1289T336 1280Q311 1280 291 1289T255 1314T232 1351T224 1395ZM713 1395Q713 1418 721 1439T744 1475T779 1501T825 1510Q850 1510 870 1501T906 1476T929
1439T937 1395Q937 1372 929 1351T906 1314T871 1289T825 1280Q800 1280 780 1289T744 1314T721 1351T713 1395Z" />
<glyph unicode="&#xec;" glyph-name="igrave" horiz-adv-x="540" d="M-116 1936L126 2025L279 1407L212 1381L-116 1936ZM177 0V1169H359V0H177Z" />
<glyph unicode="&#xed;" glyph-name="iacute" horiz-adv-x="540" d="M67 1406L226 2017L458 1926L124 1380L67 1406ZM177 0V1169H359V0H177Z" />
<glyph unicode="&#xee;" glyph-name="icircumflex" horiz-adv-x="540" d="M321 1982L613 1481L485 1403L273 1780L61 1403L-67 1481L225 1982H321ZM177 0V1169H359V0H177Z" />
<glyph unicode="&#xef;" glyph-name="idieresis" horiz-adv-x="540" d="M-120 1500Q-120 1523 -112 1544T-89 1580T-54 1606T-8 1615Q17 1615 37 1606T73 1581T96 1544T104 1500Q104 1477 96 1456T73 1419T38 1394T-8 1385Q-33 1385 -53 1394T-89 1419T-112 1456T-120
1500ZM369 1500Q369 1523 377 1544T400 1580T435 1606T481 1615Q506 1615 526 1606T562 1581T585 1544T593 1500Q593 1477 585 1456T562 1419T527 1394T481 1385Q456 1385 436 1394T400 1419T377 1456T369 1500ZM177 0V1169H359V0H177Z" />
<glyph unicode="&#xf0;" glyph-name="eth" horiz-adv-x="1246" d="M1118 690Q1118 -20 585 -20Q456 -20 365 29T215 161T129 353T101 584Q101 708 130 818T218 1010T362 1141T563 1190Q621 1190 676 1176T780 1138T866 1086T928 1028Q899 1116 845 1204T719 1380L484
1311L442 1401L645 1461Q591 1515 537 1559T424 1641L508 1743Q574 1706 647 1650T803 1508L1090 1593L1132 1503L872 1426Q928 1353 973 1273T1051 1102T1100 909T1118 690ZM283 587Q283 123 581 123Q666 123 731 150T842 241T910 409T934 666Q934 742 919 800T877
900T817 970T747 1016T674 1040T607 1047Q569 1047 530 1041T455 1018T388 969T333 886T297 762T283 587Z" />
<glyph unicode="&#xf1;" glyph-name="ntilde" horiz-adv-x="1267" d="M308 982Q338 1019 388 1056T497 1123T621 1171T745 1190Q850 1190 922 1159T1041 1068T1107 922T1128 727V0H938V727Q938 803 926 863T887 966T817 1030T711 1053Q663 1053 606 1034T496 988T399
931T334 880V0H144V1169H284L308 982ZM825 1287Q769 1287 717 1305T620 1346T537 1387T472 1406Q442 1406 428 1382T413 1291H257Q257 1551 458 1551Q515 1551 562 1531T660 1482Q698 1460 732 1443T802 1426Q861 1426 861 1537H1017Q1017 1480 1004 1434T965 1356T905
1305T825 1287Z" />
<glyph unicode="&#xf2;" glyph-name="ograve" horiz-adv-x="1264" d="M633 95Q705 95 758 115T850 171T914 254T954 353T975 461T981 567Q981 618 975 672T954 779T914 879T851 961T758 1017T633 1038Q562 1038 509 1017T417 961T353 878T312 779T291 672T285
567Q285 516 291 462T312 355T352 255T416 173T508 116T633 95ZM1162 570Q1162 500 1152 428T1118 287T1055 160T957 57T818 -12T632 -38Q527 -38 447 -13T308 57T210 160T146 287T112 427T102 570Q102 641 112 713T146 853T209 980T307 1083T446 1152T632 1177Q737
1177 817 1152T956 1083T1054 980T1118 854T1152 714T1162 570ZM335 1825L577 1914L730 1296L663 1270L335 1825Z" />
<glyph unicode="&#xf3;" glyph-name="oacute" horiz-adv-x="1264" d="M633 95Q705 95 758 115T850 171T914 254T954 353T975 461T981 567Q981 618 975 672T954 779T914 879T851 961T758 1017T633 1038Q562 1038 509 1017T417 961T353 878T312 779T291 672T285
567Q285 516 291 462T312 355T352 255T416 173T508 116T633 95ZM1162 570Q1162 500 1152 428T1118 287T1055 160T957 57T818 -12T632 -38Q527 -38 447 -13T308 57T210 160T146 287T112 427T102 570Q102 641 112 713T146 853T209 980T307 1083T446 1152T632 1177Q737
1177 817 1152T956 1083T1054 980T1118 854T1152 714T1162 570ZM572 1307L731 1918L963 1827L629 1281L572 1307Z" />
<glyph unicode="&#xf4;" glyph-name="ocircumflex" horiz-adv-x="1264" d="M633 95Q705 95 758 115T850 171T914 254T954 353T975 461T981 567Q981 618 975 672T954 779T914 879T851 961T758 1017T633 1038Q562 1038 509 1017T417 961T353 878T312 779T291 672T285
567Q285 516 291 462T312 355T352 255T416 173T508 116T633 95ZM1162 570Q1162 500 1152 428T1118 287T1055 160T957 57T818 -12T632 -38Q527 -38 447 -13T308 57T210 160T146 287T112 427T102 570Q102 641 112 713T146 853T209 980T307 1083T446 1152T632 1177Q737
1177 817 1152T956 1083T1054 980T1118 854T1152 714T1162 570ZM681 1843L973 1342L845 1264L633 1641L421 1264L293 1342L585 1843H681Z" />
<glyph unicode="&#xf5;" glyph-name="otilde" horiz-adv-x="1264" d="M633 95Q705 95 758 115T850 171T914 254T954 353T975 461T981 567Q981 618 975 672T954 779T914 879T851 961T758 1017T633 1038Q562 1038 509 1017T417 961T353 878T312 779T291 672T285
567Q285 516 291 462T312 355T352 255T416 173T508 116T633 95ZM1162 570Q1162 500 1152 428T1118 287T1055 160T957 57T818 -12T632 -38Q527 -38 447 -13T308 57T210 160T146 287T112 427T102 570Q102 641 112 713T146 853T209 980T307 1083T446 1152T632 1177Q737
1177 817 1152T956 1083T1054 980T1118 854T1152 714T1162 570ZM821 1287Q765 1287 713 1305T616 1346T533 1387T468 1406Q438 1406 424 1382T409 1291H253Q253 1551 454 1551Q511 1551 558 1531T656 1482Q694 1460 728 1443T798 1426Q857 1426 857 1537H1013Q1013
1480 1000 1434T961 1356T901 1305T821 1287Z" />
<glyph unicode="&#xf6;" glyph-name="odieresis" horiz-adv-x="1264" d="M633 95Q705 95 758 115T850 171T914 254T954 353T975 461T981 567Q981 618 975 672T954 779T914 879T851 961T758 1017T633 1038Q562 1038 509 1017T417 961T353 878T312 779T291 672T285
567Q285 516 291 462T312 355T352 255T416 173T508 116T633 95ZM1162 570Q1162 500 1152 428T1118 287T1055 160T957 57T818 -12T632 -38Q527 -38 447 -13T308 57T210 160T146 287T112 427T102 570Q102 641 112 713T146 853T209 980T307 1083T446 1152T632 1177Q737
1177 817 1152T956 1083T1054 980T1118 854T1152 714T1162 570ZM276 1395Q276 1418 284 1439T307 1475T342 1501T388 1510Q413 1510 433 1501T469 1476T492 1439T500 1395Q500 1372 492 1351T469 1314T434 1289T388 1280Q363 1280 343 1289T307 1314T284 1351T276
1395ZM765 1395Q765 1418 773 1439T796 1475T831 1501T877 1510Q902 1510 922 1501T958 1476T981 1439T989 1395Q989 1372 981 1351T958 1314T923 1289T877 1280Q852 1280 832 1289T796 1314T773 1351T765 1395Z" />
<glyph unicode="&#xf7;" glyph-name="divide" horiz-adv-x="1068" d="M451 835Q451 858 459 879T482 915T517 940T563 950Q611 950 641 917T671 835Q671 787 641 754T563 720Q538 720 518 729T482 754T459 791T451 835ZM449 300Q449 323 457 344T480 380T515 405T561
415Q609 415 639 382T669 300Q669 252 639 219T561 185Q536 185 516 194T480 219T457 256T449 300ZM224 508V639H906V508H224Z" />
<glyph unicode="&#xf8;" glyph-name="oslash" horiz-adv-x="1263" d="M742 1035Q697 1051 631 1051Q529 1051 462 1011T356 905T300 755T283 582Q283 444 320 337T443 169L742 1035ZM415 -198L327 -168L394 28Q320 63 266 117T174 243T119 399T101 582Q101 703
132 813T229 1007T394 1140T631 1190Q712 1190 789 1170L856 1365L937 1335L870 1140Q946 1101 1001 1044T1092 915T1145 759T1162 582Q1162 458 1131 349T1034 157T868 28T631 -20Q550 -20 481 -2L415 -198ZM631 117Q727 117 793 153T901 253T961 400T979 582Q979
718 942 826T821 996L526 130Q568 117 631 117Z" />
<glyph unicode="&#xf9;" glyph-name="ugrave" horiz-adv-x="1241" d="M324 442Q324 355 339 294T384 193T457 136T556 117Q603 117 647 125T734 152T820 200T910 274V1169H1100V0H959L932 176Q904 145 867 111T782 47T678 -1T554 -20Q454 -20 376 6T244 88T162
231T134 442V1169H324V442ZM320 1825L562 1914L715 1296L648 1270L320 1825Z" />
<glyph unicode="&#xfa;" glyph-name="uacute" horiz-adv-x="1241" d="M324 442Q324 355 339 294T384 193T457 136T556 117Q603 117 647 125T734 152T820 200T910 274V1169H1100V0H959L932 176Q904 145 867 111T782 47T678 -1T554 -20Q454 -20 376 6T244 88T162
231T134 442V1169H324V442ZM557 1307L716 1918L948 1827L614 1281L557 1307Z" />
<glyph unicode="&#xfb;" glyph-name="ucircumflex" horiz-adv-x="1241" d="M324 442Q324 355 339 294T384 193T457 136T556 117Q603 117 647 125T734 152T820 200T910 274V1169H1100V0H959L932 176Q904 145 867 111T782 47T678 -1T554 -20Q454 -20 376 6T244 88T162
231T134 442V1169H324V442ZM666 1843L958 1342L830 1264L618 1641L406 1264L278 1342L570 1843H666Z" />
<glyph unicode="&#xfc;" glyph-name="udieresis" horiz-adv-x="1241" d="M324 442Q324 355 339 294T384 193T457 136T556 117Q603 117 647 125T734 152T820 200T910 274V1169H1100V0H959L932 176Q904 145 867 111T782 47T678 -1T554 -20Q454 -20 376 6T244 88T162
231T134 442V1169H324V442ZM261 1395Q261 1418 269 1439T292 1475T327 1501T373 1510Q398 1510 418 1501T454 1476T477 1439T485 1395Q485 1372 477 1351T454 1314T419 1289T373 1280Q348 1280 328 1289T292 1314T269 1351T261 1395ZM750 1395Q750 1418 758 1439T781
1475T816 1501T862 1510Q887 1510 907 1501T943 1476T966 1439T974 1395Q974 1372 966 1351T943 1314T908 1289T862 1280Q837 1280 817 1289T781 1314T758 1351T750 1395Z" />
<glyph unicode="&#xfd;" glyph-name="yacute" horiz-adv-x="1123" d="M45 1169H227L582 249L883 1169H1078L641 -37Q613 -114 580 -173T510 -277T438 -352T368 -403Q289 -451 207 -459L156 -334Q215 -320 266 -297T359 -232T435 -129T496 23L45 1169ZM501 1307L660
1918L892 1827L558 1281L501 1307Z" />
<glyph unicode="&#xfe;" glyph-name="thorn" horiz-adv-x="1259" d="M976 543Q976 597 972 655T957 769T925 875T873 964T796 1024T689 1047Q629 1047 574 1028T473 983T391 931T334 890V244Q365 218 407 196T498 158T597 132T697 123Q751 123 793 141T866 191T918
264T952 352T970 448T976 543ZM689 -20Q440 -20 330 117V-465L144 -487V1565H328V1004Q360 1044 400 1078T486 1137T584 1176T689 1190Q774 1190 841 1166T961 1100T1050 1000T1112 875T1147 734T1158 584Q1158 468 1131 360T1047 167T901 31T689 -20Z" />
<glyph unicode="&#xff;" glyph-name="ydieresis" horiz-adv-x="1123" d="M45 1169H227L582 249L883 1169H1078L641 -37Q613 -114 580 -173T510 -277T438 -352T368 -403Q289 -451 207 -459L156 -334Q215 -320 266 -297T359 -232T435 -129T496 23L45 1169ZM205 1395Q205
1418 213 1439T236 1475T271 1501T317 1510Q342 1510 362 1501T398 1476T421 1439T429 1395Q429 1372 421 1351T398 1314T363 1289T317 1280Q292 1280 272 1289T236 1314T213 1351T205 1395ZM694 1395Q694 1418 702 1439T725 1475T760 1501T806 1510Q831 1510 851
1501T887 1476T910 1439T918 1395Q918 1372 910 1351T887 1314T852 1289T806 1280Q781 1280 761 1289T725 1314T702 1351T694 1395Z" />
<glyph unicode="&#x2013;" glyph-name="endash" horiz-adv-x="1265" d="M362 699H832V555H362V699Z" />
<glyph unicode="&#x2014;" glyph-name="emdash" horiz-adv-x="1265" d="M127 699H1067V555H127V699Z" />
<glyph unicode="&#x2018;" glyph-name="quoteleft" horiz-adv-x="512" d="M373 1093H112V1342Q112 1457 170 1532T341 1639L372 1545Q334 1532 309 1518T269 1485T248 1442T242 1386H373V1093Z" />
<glyph unicode="&#x2019;" glyph-name="quoteright" horiz-adv-x="512" d="M112 1579H373V1330Q373 1215 315 1140T144 1033L113 1127Q151 1140 176 1154T216 1187T237 1230T243 1286H112V1579Z" />
<glyph unicode="&#x201a;" glyph-name="quotesinglbase" horiz-adv-x="647" d="M244 293H505V44Q505 -71 447 -146T276 -253L245 -159Q283 -146 308 -132T348 -99T369 -56T375 0H244V293Z" />
<glyph unicode="&#x201c;" glyph-name="quotedblleft" horiz-adv-x="939" d="M791 1063H530V1312Q530 1427 588 1502T759 1609L790 1515Q752 1502 727 1488T687 1455T666 1412T660 1356H791V1063ZM402 1063H141V1312Q141 1427 199 1502T370 1609L401 1515Q363
1502 338 1488T298 1455T277 1412T271 1356H402V1063Z" />
<glyph unicode="&#x201d;" glyph-name="quotedblright" horiz-adv-x="831" d="M112 1579H373V1330Q373 1215 315 1140T144 1033L113 1127Q151 1140 176 1154T216 1187T237 1230T243 1286H112V1579ZM501 1579H762V1330Q762 1215 704 1140T533 1033L502 1127Q540
1140 565 1154T605 1187T626 1230T632 1286H501V1579Z" />
<glyph unicode="&#x201e;" glyph-name="quotedblbase" horiz-adv-x="1112" d="M290 293H551V44Q551 -71 493 -146T322 -253L291 -159Q329 -146 354 -132T394 -99T415 -56T421 0H290V293ZM679 293H940V44Q940 -71 882 -146T711 -253L680 -159Q718 -146 743 -132T783
-99T804 -56T810 0H679V293Z" />
<glyph unicode="&#x2022;" glyph-name="bullet" horiz-adv-x="1361" d="M649 358Q575 358 512 384T402 455T328 561T301 692Q301 762 328 823T401 930T511 1002T649 1028Q722 1028 786 1002T896 931T970 824T997 692Q997 622 970 561T897 455T786 384T649 358Z" />
<glyph unicode="&#x2039;" glyph-name="guilsinglleft" horiz-adv-x="768" d="M80 666L688 1049V842L241 577L688 306V99L80 481V666Z" />
<glyph unicode="&#x203a;" glyph-name="guilsinglright" horiz-adv-x="768" d="M80 99V306L526 577L80 842V1049L688 666V481L80 99Z" />
</font>
</defs>
</svg>
