<?xml version="1.0" standalone="no"?>
<!DOCTYPE svg PUBLIC "-//W3C//DTD SVG 1.1//EN" "http://www.w3.org/Graphics/SVG/1.1/DTD/svg11.dtd">
<svg xmlns="http://www.w3.org/2000/svg">
<defs >
<font id="Quantico" horiz-adv-x="472" ><font-face
    font-family="Quantico"
    units-per-em="1000"
    panose-1="2 0 0 0 0 0 0 0 0 0"
    ascent="1063"
    descent="-367"
    alphabetic="0" />
<glyph unicode=" " glyph-name="space" horiz-adv-x="260" />
<glyph unicode="!" glyph-name="exclam" horiz-adv-x="350" d="M100 0L115 150H265L250 0H100ZM163 268L185 730H317L243 268H163Z" />
<glyph unicode="&quot;" glyph-name="quotedbl" horiz-adv-x="430" d="M136 438L146 730H256L206 438H136ZM316 438L326 730H436L386 438H316Z" />
<glyph unicode="#" glyph-name="numbersign" horiz-adv-x="756" d="M423 -20L461 172H285L247 -20H164L202 172H78L86 248H217L258 460H108L116 536H273L309 720H392L356 536H532L568 720H651L615 536H752L744 460H600L559 248H722L714 172H544L506 -20H423ZM341
460L300 248H476L517 460H341Z" />
<glyph unicode="$" glyph-name="dollar" horiz-adv-x="645" d="M263 -123L275 -5H195L86 62L97 165H197L188 85H463L486 303H237L128 370L157 638L280 705H350L362 823H462L450 705H513L622 638L611 535H511L519 615H254L232 403H481L590 336L561 62L438 -5H375L363
-123H263Z" />
<glyph unicode="%" glyph-name="percent" horiz-adv-x="991" d="M469 424L346 357H233L124 424L147 643L270 710H383L492 643L469 424ZM237 629L217 438H380L400 629H237ZM781 710H871L282 -10H192L781 710ZM595 276L718 343H831L940 276L916 57L793 -10H680L571
57L595 276ZM827 71L847 262H684L664 71H827Z" />
<glyph unicode="&amp;" glyph-name="ampersand" horiz-adv-x="655" d="M667 407L658 317H584L557 62L434 -5H205L96 62L122 311L214 361L215 363L133 413L157 638L280 705H469L578 638L566 525H466L475 615H254L232 407H407L398 317H223L198 85H459L486 340L609 407H667Z" />
<glyph unicode="&apos;" glyph-name="quotesingle" horiz-adv-x="250" d="M136 438L146 730H256L206 438H136Z" />
<glyph unicode="(" glyph-name="parenleft" horiz-adv-x="363" d="M239 660L156 -130H289L281 -200H184L76 -133L159 663L282 730H379L372 660H239Z" />
<glyph unicode=")" glyph-name="parenright" horiz-adv-x="363" d="M179 -130L262 660H129L136 730H233L342 663L259 -133L135 -200H38L46 -130H179Z" />
<glyph unicode="*" glyph-name="asterisk" horiz-adv-x="630" d="M336 524L345 710H433L404 524L584 591L603 508L419 460L520 317L443 264L358 418L241 264L176 317L307 460L133 508L170 591L336 524Z" />
<glyph unicode="+" glyph-name="plus" horiz-adv-x="600" d="M81 297H284L305 500H399L378 297H581L571 203H368L347 0H253L274 203H71L81 297Z" />
<glyph unicode="," glyph-name="comma" horiz-adv-x="350" d="M78 -200L115 150H265L261 108L120 -200H78Z" />
<glyph unicode="-" glyph-name="hyphen" horiz-adv-x="438" d="M92 218L102 305H400L390 218H92Z" />
<glyph unicode="." glyph-name="period" horiz-adv-x="350" d="M100 0L115 150H265L250 0H100Z" />
<glyph unicode="/" glyph-name="slash" horiz-adv-x="386" d="M27 -20L341 720H431L117 -20H27Z" />
<glyph unicode="0" glyph-name="zero" horiz-adv-x="665" d="M581 62L458 -5H205L96 62L157 638L280 705H533L642 638L581 62ZM254 615L198 85H483L539 615H254Z" />
<glyph unicode="1" glyph-name="one" horiz-adv-x="570" d="M141 490L152 591L353 700H433L369 90H539L530 0H90L99 90H269L321 588L141 490Z" />
<glyph unicode="2" glyph-name="two" horiz-adv-x="630" d="M199 90H549L540 0H90L123 314L246 381H480L504 610H254L244 520H144L156 633L279 700H497L606 633L577 358L454 291H220L199 90Z" />
<glyph unicode="3" glyph-name="three" horiz-adv-x="651" d="M444 -5H205L96 62L108 175H208L198 85H469L494 317H289L298 407H503L525 615H254L245 525H145L157 638L280 705H519L628 638L604 413L512 363L511 361L593 311L567 62L444 -5Z" />
<glyph unicode="4" glyph-name="four" horiz-adv-x="624" d="M501 162L484 0H386L403 162H57L66 248L465 700H557L510 249H600L591 162H501ZM170 249H412L444 557H442L170 251V249Z" />
<glyph unicode="5" glyph-name="five" horiz-adv-x="645" d="M274 610L255 431H484L593 364L561 62L438 -5H205L96 62L108 175H208L198 85H463L490 341H145L183 700H618L609 610H274Z" />
<glyph unicode="6" glyph-name="six" horiz-adv-x="635" d="M254 615L228 369L304 410H472L581 343L551 62L428 -5H205L96 62L157 638L280 705H503L612 638L600 525H500L509 615H254ZM223 320L198 85H453L478 320H223Z" />
<glyph unicode="7" glyph-name="seven" horiz-adv-x="615" d="M273 0H167L509 608L510 610H224L214 520H114L133 700H638L632 640L273 0Z" />
<glyph unicode="8" glyph-name="eight" horiz-adv-x="645" d="M198 85H463L488 317H223L198 85ZM232 407H497L519 615H254L232 407ZM438 -5H189L96 62L122 311L214 361L215 363L133 413L157 638L280 705H513L622 638L598 413L506 363L505 361L587 311L561 62L438 -5Z" />
<glyph unicode="9" glyph-name="nine" horiz-adv-x="635" d="M453 85L479 331L404 290H236L127 357L157 638L280 705H503L612 638L551 62L428 -5H205L96 62L108 175H208L198 85H453ZM484 380L509 615H254L229 380H484Z" />
<glyph unicode=":" glyph-name="colon" horiz-adv-x="350" d="M100 0L115 150H265L250 0H100ZM136 350L152 500H302L286 350H136Z" />
<glyph unicode=";" glyph-name="semicolon" horiz-adv-x="350" d="M136 350L152 500H302L286 350H136ZM78 -200L115 150H265L261 108L120 -200H78Z" />
<glyph unicode="&lt;" glyph-name="less" horiz-adv-x="650" d="M612 501L602 407L183 251V249L569 93L559 -1L80 199L91 301L612 501Z" />
<glyph unicode="=" glyph-name="equal" horiz-adv-x="680" d="M609 183L599 89H99L109 183H609ZM633 411L623 317H123L133 411H633Z" />
<glyph unicode="&gt;" glyph-name="greater" horiz-adv-x="650" d="M132 407L142 501L621 301L610 199L89 -1L99 93L519 249V251L132 407Z" />
<glyph unicode="?" glyph-name="question" horiz-adv-x="580" d="M338 391L316 268H236L241 414L364 481H440L457 640H257L247 550H147L159 663L282 730H450L559 663L538 458L415 391H338ZM173 0L188 150H338L323 0H173Z" />
<glyph unicode="@" glyph-name="at" horiz-adv-x="1010" d="M789 -141H191L82 -74L157 638L280 705H878L987 638L930 104L807 37H638L577 78L496 37H395L293 104L371 470L501 537H602L664 496L744 537H770L682 117H842L895 625H245L173 -61H797L789 -141ZM464
450L395 124H586L655 450H464Z" />
<glyph unicode="A" glyph-name="A" horiz-adv-x="664" d="M467 700L644 0H546L504 166H194L118 0H20L343 700H467ZM394 601L235 256H481L396 601H394Z" />
<glyph unicode="B" glyph-name="B" horiz-adv-x="655" d="M608 413L516 363L515 361L597 311L572 67L449 0H90L163 700H522L631 633L608 413ZM223 317L199 90H474L498 317H223ZM254 610L232 407H507L529 610H254Z" />
<glyph unicode="C" glyph-name="C" horiz-adv-x="665" d="M503 175H603L591 62L468 -5H205L96 62L157 638L280 705H543L652 638L640 525H540L549 615H254L198 85H493L503 175Z" />
<glyph unicode="D" glyph-name="D" horiz-adv-x="705" d="M622 67L499 0H90L163 700H572L681 633L622 67ZM254 610L199 90H524L579 610H254Z" />
<glyph unicode="E" glyph-name="E" horiz-adv-x="539" d="M223 315L199 90H498L489 0H90L163 700H562L553 610H254L232 405H471L462 315H223Z" />
<glyph unicode="F" glyph-name="F" horiz-adv-x="529" d="M223 315L190 0H90L163 700H572L563 610H254L232 405H481L472 315H223Z" />
<glyph unicode="G" glyph-name="G" horiz-adv-x="675" d="M397 260L406 350H621L591 62L468 -5H205L96 62L157 638L280 705H543L652 638L640 525H540L549 615H254L198 85H493L512 260H397Z" />
<glyph unicode="H" glyph-name="H" horiz-adv-x="715" d="M223 315L190 0H90L163 700H263L232 405H567L598 700H698L625 0H525L558 315H223Z" />
<glyph unicode="I" glyph-name="I" horiz-adv-x="280" d="M90 0L163 700H263L190 0H90Z" />
<glyph unicode="J" glyph-name="J" horiz-adv-x="535" d="M353 85L418 700H518L451 62L328 -5H135L26 62L43 225H143L128 85H353Z" />
<glyph unicode="K" glyph-name="K" horiz-adv-x="663" d="M90 0L163 700H263L224 330H226L574 700H694L385 373L653 0H531L316 301L209 188L190 0H90Z" />
<glyph unicode="L" glyph-name="L" horiz-adv-x="479" d="M90 0L163 700H263L199 90H458L449 0H90Z" />
<glyph unicode="M" glyph-name="M" horiz-adv-x="885" d="M700 0L759 570H757L492 0H392L246 570H244L185 0H90L163 700H304L453 116H455L727 700H868L795 0H700Z" />
<glyph unicode="N" glyph-name="N" horiz-adv-x="735" d="M245 529L190 0H90L163 700H254L560 171H562L618 700H718L645 0H554L247 529H245Z" />
<glyph unicode="O" glyph-name="O" horiz-adv-x="705" d="M621 62L498 -5H205L96 62L157 638L280 705H573L682 638L621 62ZM254 615L198 85H523L579 615H254Z" />
<glyph unicode="P" glyph-name="P" horiz-adv-x="625" d="M90 0L163 700H512L621 633L590 336L467 269H218L190 0H90ZM254 610L227 359H492L519 610H254Z" />
<glyph unicode="Q" glyph-name="Q" horiz-adv-x="705" d="M254 615L198 85H523L579 615H254ZM390 -5H205L96 62L157 638L280 705H573L682 638L621 62L498 -5L590 -200H479L390 -5Z" />
<glyph unicode="R" glyph-name="R" horiz-adv-x="655" d="M370 279H219L190 0H90L163 700H522L631 633L601 346L478 279L610 0H499L370 279ZM254 610L228 369H503L529 610H254Z" />
<glyph unicode="S" glyph-name="S" horiz-adv-x="645" d="M128 370L157 638L280 705H513L622 638L611 535H511L519 615H254L232 403H481L590 336L561 62L438 -5H195L86 62L97 165H197L188 85H463L486 303H237L128 370Z" />
<glyph unicode="T" glyph-name="T" horiz-adv-x="558" d="M393 610L329 0H229L293 610H94L103 700H601L592 610H393Z" />
<glyph unicode="U" glyph-name="U" horiz-adv-x="705" d="M588 700H688L621 62L498 -5H205L96 62L163 700H263L199 95H524L588 700Z" />
<glyph unicode="V" glyph-name="V" horiz-adv-x="664" d="M717 700L394 0H270L93 700H194L341 103H343L616 700H717Z" />
<glyph unicode="W" glyph-name="W" horiz-adv-x="956" d="M999 700L746 0H627L537 561H535L329 0H210L103 700H200L282 128H284L495 700H607L697 128H699L902 700H999Z" />
<glyph unicode="X" glyph-name="X" horiz-adv-x="651" d="M30 0L307 357L113 700H225L371 440L572 700H684L417 357L621 0H509L353 275L142 0H30Z" />
<glyph unicode="Y" glyph-name="Y" horiz-adv-x="611" d="M255 0L287 309L93 700H205L346 402H348L552 700H664L387 308L355 0H255Z" />
<glyph unicode="Z" glyph-name="Z" horiz-adv-x="585" d="M134 610L143 700H598L592 640L189 92V90H534L525 0H50L56 60L458 608L459 610H134Z" />
<glyph unicode="[" glyph-name="bracketleft" horiz-adv-x="363" d="M239 660L156 -130H289L281 -200H68L166 730H379L372 660H239Z" />
<glyph unicode="\" glyph-name="backslash" horiz-adv-x="386" d="M195 720L353 -20H263L105 720H195Z" />
<glyph unicode="]" glyph-name="bracketright" horiz-adv-x="363" d="M179 -130L262 660H129L136 730H349L251 -200H38L46 -130H179Z" />
<glyph unicode="^" glyph-name="asciicircum" horiz-adv-x="602" d="M196 380H89L323 700H425L591 380H484L366 613H365L196 380Z" />
<glyph unicode="_" glyph-name="underscore" horiz-adv-x="612" d="M619 -116L610 -200H-41L-32 -116H619Z" />
<glyph unicode="`" glyph-name="grave" horiz-adv-x="500" d="M390 718L471 590H391L260 718H390Z" />
<glyph unicode="a" glyph-name="a" horiz-adv-x="575" d="M220 418L185 82H406L441 418H220ZM548 505L494 -5H468L401 36L326 -5H195L86 62L126 438L249 505H380L446 464L522 505H548Z" />
<glyph unicode="b" glyph-name="b" horiz-adv-x="595" d="M301 505H452L561 438L521 62L398 -5H247L180 36L105 -5H79L156 730H253L225 464L301 505ZM220 418L185 82H426L461 418H220Z" />
<glyph unicode="c" glyph-name="c" horiz-adv-x="515" d="M220 413L186 87H464L455 0H196L87 67L125 433L248 500H507L498 413H220Z" />
<glyph unicode="d" glyph-name="d" horiz-adv-x="595" d="M249 505H400L466 464L494 730H591L514 -5H441L421 36L346 -5H195L86 62L126 438L249 505ZM426 82L461 418H220L185 82H426Z" />
<glyph unicode="e" glyph-name="e" horiz-adv-x="555" d="M484 87L475 0H196L87 67L126 438L249 505H412L521 438L497 216H199L186 87H484ZM220 418L208 303H409L421 418H220Z" />
<glyph unicode="f" glyph-name="f" horiz-adv-x="389" d="M83 413L92 500H184L201 663L324 730H425L416 643H296L281 500H401L392 413H272L229 0H132L175 413H83Z" />
<glyph unicode="g" glyph-name="g" horiz-adv-x="585" d="M532 505H558L491 -133L367 -200H108L118 -113H396L413 52L338 11H197L88 78L126 438L249 505H390L456 464L532 505ZM187 98H418L451 418H220L187 98Z" />
<glyph unicode="h" glyph-name="h" horiz-adv-x="595" d="M177 0H80L156 730H253L225 464L301 505H452L561 438L515 0H418L461 418H220L177 0Z" />
<glyph unicode="i" glyph-name="i" horiz-adv-x="257" d="M229 500L177 0H80L132 500H229ZM140 623L151 730H258L247 623H140Z" />
<glyph unicode="j" glyph-name="j" horiz-adv-x="257" d="M140 623L151 730H258L247 623H140ZM229 500L163 -133L39 -200H-61L-51 -113H68L132 500H229Z" />
<glyph unicode="k" glyph-name="k" horiz-adv-x="531" d="M253 730L203 251H205L437 500H553L336 274L531 0H412L271 205L189 119L177 0H80L156 730H253Z" />
<glyph unicode="l" glyph-name="l" horiz-adv-x="317" d="M196 0L87 67L156 730H253L186 87H306L297 0H196Z" />
<glyph unicode="m" glyph-name="m" horiz-adv-x="833" d="M799 438L753 0H656L699 418H508L465 0H368L411 418H220L177 0H80L133 505H206L225 464L301 505H402L489 451L589 505H690L799 438Z" />
<glyph unicode="n" glyph-name="n" horiz-adv-x="585" d="M551 438L505 0H408L451 418H220L177 0H80L133 505H206L225 464L301 505H442L551 438Z" />
<glyph unicode="o" glyph-name="o" horiz-adv-x="585" d="M511 62L388 -5H195L86 62L126 438L249 505H442L551 438L511 62ZM220 418L185 82H416L451 418H220Z" />
<glyph unicode="p" glyph-name="p" horiz-adv-x="595" d="M398 -5H247L180 36L155 -200H58L133 505H206L225 464L301 505H452L561 438L521 62L398 -5ZM220 418L185 82H426L461 418H220Z" />
<glyph unicode="q" glyph-name="q" horiz-adv-x="595" d="M346 -5H195L86 62L126 438L249 505H400L466 464L542 505H568L493 -200H396L421 36L346 -5ZM426 82L461 418H220L185 82H426Z" />
<glyph unicode="r" glyph-name="r" horiz-adv-x="389" d="M402 413H220L177 0H80L132 500H205L225 459L300 500H411L402 413Z" />
<glyph unicode="s" glyph-name="s" horiz-adv-x="536" d="M480 230L463 67L340 0H80L89 87H368L381 210H218L109 277L125 433L248 500H498L489 413H220L208 297H371L480 230Z" />
<glyph unicode="t" glyph-name="t" horiz-adv-x="409" d="M83 413L92 500H184L193 584L296 640L281 500H401L392 413H272L238 87H358L349 0H248L139 67L175 413H83Z" />
<glyph unicode="u" glyph-name="u" horiz-adv-x="585" d="M86 62L132 500H229L185 82H416L460 500H557L504 -5H431L411 36L336 -5H195L86 62Z" />
<glyph unicode="v" glyph-name="v" horiz-adv-x="527" d="M167 500L271 92H273L464 500H559L322 0H205L72 500H167Z" />
<glyph unicode="w" glyph-name="w" horiz-adv-x="757" d="M487 0L419 382H417L270 0H155L82 500H172L226 109H228L379 500H482L551 109H553L689 500H779L602 0H487Z" />
<glyph unicode="x" glyph-name="x" horiz-adv-x="500" d="M20 0L225 255L78 500H186L284 328L418 500H526L326 255L480 0H375L269 183L125 0H20Z" />
<glyph unicode="y" glyph-name="y" horiz-adv-x="519" d="M104 -200L215 23L72 500H169L274 144H276L454 500H551L199 -200H104Z" />
<glyph unicode="z" glyph-name="z" horiz-adv-x="466" d="M46 66L335 411V413H93L102 500H468L461 434L173 89V87H425L416 0H40L46 66Z" />
<glyph unicode="{" glyph-name="braceleft" horiz-adv-x="398" d="M228 225L191 -130H324L316 -200H219L111 -133L149 230H64L71 300H156L194 663L317 730H414L407 660H274L237 305L165 266V264L228 225Z" />
<glyph unicode="|" glyph-name="bar" horiz-adv-x="330" d="M98 -200L196 730H286L188 -200H98Z" />
<glyph unicode="}" glyph-name="braceright" horiz-adv-x="398" d="M179 -130L216 225L287 264V266L225 305L262 660H129L136 730H233L342 663L304 300H389L382 230H297L259 -133L135 -200H38L46 -130H179Z" />
<glyph unicode="~" glyph-name="asciitilde" horiz-adv-x="682" d="M280 270H185L176 188H89L100 290L223 357H326L458 275H553L562 357H649L638 255L515 188H412L280 270Z" />
<glyph unicode="&#xa0;" glyph-name="uni00A0" horiz-adv-x="260" />
<glyph unicode="&#xa1;" glyph-name="exclamdown" horiz-adv-x="350" d="M136 350L152 500H302L286 350H136ZM84 -230L159 232H239L216 -230H84Z" />
<glyph unicode="&#xa2;" glyph-name="cent" horiz-adv-x="515" d="M415 500H507L498 413H220L186 87H464L455 0H363L350 -118H254L267 0H196L87 67L125 433L248 500H319L331 618H427L415 500Z" />
<glyph unicode="&#xa3;" glyph-name="sterling" horiz-adv-x="642" d="M394 365L386 291H247L226 90H501L510 180H610L599 67L476 0H117L147 291H70L78 365H155L184 638L307 705H500L609 638L597 525H497L506 615H281L255 365H394Z" />
<glyph unicode="&#xa5;" glyph-name="yen" horiz-adv-x="651" d="M108 303L116 377H273L113 700H225L366 402H368L572 700H684L455 377H612L604 303H406L398 222H596L588 148H390L375 0H275L290 148H92L100 222H298L306 303H108Z" />
<glyph unicode="&#xa6;" glyph-name="brokenbar" horiz-adv-x="330" d="M98 -200L141 202H231L188 -200H98ZM154 328L196 730H286L244 328H154Z" />
<glyph unicode="&#xa7;" glyph-name="section" horiz-adv-x="653" d="M462 163L480 342H253L235 163H462ZM153 336L245 386V388L164 438L185 638L308 705H521L630 638L619 535H519L527 615H282L263 432H474L583 365L562 169L470 119V117L552 67L531 -133L407 -200H184L76
-133L86 -30H186L178 -110H433L452 73H241L132 140L153 336Z" />
<glyph unicode="&#xa8;" glyph-name="dieresis" horiz-adv-x="544" d="M172 595L183 700H288L277 595H172ZM391 595L402 700H507L496 595H391Z" />
<glyph unicode="&#xa9;" glyph-name="copyright" horiz-adv-x="840" d="M756 62L633 -5H205L96 62L157 638L280 705H708L817 638L756 62ZM236 635L176 65H676L736 635H236ZM543 251H612L604 177L527 135H341L271 177L307 523L386 565H572L640 523L633 449H564L569
502H374L342 198H537L543 251Z" />
<glyph unicode="&#xaa;" glyph-name="ordfeminine" horiz-adv-x="595" d="M90 0L99 87H514L505 0H90ZM251 613L216 277H437L472 613H251ZM578 700L524 190H498L432 231L356 190H225L117 257L156 633L279 700H410L477 659L552 700H578Z" />
<glyph unicode="&#xab;" glyph-name="guillemotleft" horiz-adv-x="680" d="M351 107L340 0L111 200L121 302L392 502L381 395L183 252V251L351 107ZM601 107L590 0L361 200L371 302L642 502L631 395L433 252V251L601 107Z" />
<glyph unicode="&#xae;" glyph-name="registered" horiz-adv-x="840" d="M756 62L633 -5H205L96 62L157 638L280 705H708L817 638L756 62ZM236 635L176 65H676L736 635H236ZM468 303H362L345 138H276L321 562H562L631 520L613 346L541 306L622 138H545L468 303ZM383
499L369 366H546L560 499H383Z" />
<glyph unicode="&#xaf;" glyph-name="overscore" horiz-adv-x="599" d="M207 600L214 667H525L518 600H207Z" />
<glyph unicode="&#xb0;" glyph-name="degree" horiz-adv-x="505" d="M469 424L346 357H233L124 424L147 643L270 710H383L492 643L469 424ZM237 629L217 438H380L400 629H237Z" />
<glyph unicode="&#xb1;" glyph-name="plusminus" horiz-adv-x="680" d="M128 367H331L345 500H439L425 367H628L618 273H415L401 140H307L321 273H118L128 367ZM599 94L590 0H90L99 94H599Z" />
<glyph unicode="&#xb4;" glyph-name="acute" horiz-adv-x="500" d="M247 590L354 718H484L327 590H247Z" />
<glyph unicode="&#xb5;" glyph-name="mu" horiz-adv-x="612" d="M448 0L428 41L353 0H193L177 -158H80L149 500H246L202 87H433L477 500H574L530 87H617L608 0H448Z" />
<glyph unicode="&#xb6;" glyph-name="paragraph" horiz-adv-x="685" d="M476 -200L562 613H465L379 -200H282L330 249H202L93 316L126 633L249 700H668L573 -200H476Z" />
<glyph unicode="&#xb7;" glyph-name="middot" horiz-adv-x="350" d="M129 284L145 434H295L279 284H129Z" />
<glyph unicode="&#xb8;" glyph-name="cedilla" horiz-adv-x="578" d="M269 0H323L297 -37L359 -75L351 -149L260 -199H190L195 -149H294L301 -84H212L269 0Z" />
<glyph unicode="&#xba;" glyph-name="ordmasculine" horiz-adv-x="605" d="M542 262L419 195H226L117 262L157 638L280 705H473L582 638L542 262ZM251 618L216 282H447L482 618H251ZM90 0L99 87H524L515 0H90Z" />
<glyph unicode="&#xbb;" glyph-name="guillemotright" horiz-adv-x="680" d="M340 0L351 107L549 251V252L381 395L392 502L621 302L611 200L340 0ZM90 0L101 107L299 251V252L131 395L142 502L371 302L361 200L90 0Z" />
<glyph unicode="&#xbf;" glyph-name="questiondown" horiz-adv-x="580" d="M294 109L316 232H396L391 86L267 19H191L175 -140H375L384 -50H484L472 -163L349 -230H181L72 -163L94 42L217 109H294ZM459 500L443 350H293L309 500H459Z" />
<glyph unicode="&#xc0;" glyph-name="Agrave" horiz-adv-x="664" d="M467 700L644 0H546L504 166H194L118 0H20L343 700H467ZM394 601L235 256H481L396 601H394ZM393 908L474 780H394L263 908H393Z" />
<glyph unicode="&#xc1;" glyph-name="Aacute" horiz-adv-x="664" d="M467 700L644 0H546L504 166H194L118 0H20L343 700H467ZM394 601L235 256H481L396 601H394ZM307 780L414 908H544L387 780H307Z" />
<glyph unicode="&#xc2;" glyph-name="Acircumflex" horiz-adv-x="664" d="M467 700L644 0H546L504 166H194L118 0H20L343 700H467ZM394 601L235 256H481L396 601H394ZM353 918H463L550 780H475L402 860L314 780H239L353 918Z" />
<glyph unicode="&#xc3;" glyph-name="Atilde" horiz-adv-x="664" d="M467 700L644 0H546L504 166H194L118 0H20L343 700H467ZM394 601L235 256H481L396 601H394ZM319 857H317L308 775H240L250 869L350 924L483 842H485L494 924H562L552 830L452 775L319 857Z" />
<glyph unicode="&#xc4;" glyph-name="Adieresis" horiz-adv-x="664" d="M467 700L644 0H546L504 166H194L118 0H20L343 700H467ZM394 601L235 256H481L396 601H394ZM232 785L243 890H348L337 785H232ZM451 785L462 890H567L556 785H451Z" />
<glyph unicode="&#xc5;" glyph-name="Aring" horiz-adv-x="664" d="M546 682L480 646L644 0H546L504 166H194L118 0H20L319 647L261 682L279 851L366 898H487L564 851L546 682ZM394 601L235 256H481L396 601H394ZM352 833L338 700H473L487 833H352Z" />
<glyph unicode="&#xc6;" glyph-name="AE" horiz-adv-x="968" d="M652 315L628 90H927L918 0H519L536 166H230L98 0H-20L543 700H991L982 610H683L661 405H900L891 315H652ZM580 601L302 256H545L582 601H580Z" />
<glyph unicode="&#xc7;" glyph-name="Ccedilla" horiz-adv-x="665" d="M503 175H603L591 62L468 -5H362L340 -37L402 -75L394 -149L303 -199H233L238 -149H337L344 -84H255L308 -5H205L96 62L157 638L280 705H543L652 638L640 525H540L549 615H254L198 85H493L503 175Z" />
<glyph unicode="&#xc8;" glyph-name="Egrave" horiz-adv-x="539" d="M223 315L199 90H498L489 0H90L163 700H562L553 610H254L232 405H471L462 315H223ZM330 908L411 780H331L200 908H330Z" />
<glyph unicode="&#xc9;" glyph-name="Eacute" horiz-adv-x="539" d="M223 315L199 90H498L489 0H90L163 700H562L553 610H254L232 405H471L462 315H223ZM287 780L394 908H524L367 780H287Z" />
<glyph unicode="&#xca;" glyph-name="Ecircumflex" horiz-adv-x="539" d="M223 315L199 90H498L489 0H90L163 700H562L553 610H254L232 405H471L462 315H223ZM312 918H422L509 780H434L361 860L273 780H198L312 918Z" />
<glyph unicode="&#xcb;" glyph-name="Edieresis" horiz-adv-x="539" d="M223 315L199 90H498L489 0H90L163 700H562L553 610H254L232 405H471L462 315H223ZM192 785L203 890H308L297 785H192ZM411 785L422 890H527L516 785H411Z" />
<glyph unicode="&#xcc;" glyph-name="Igrave" horiz-adv-x="280" d="M90 0L163 700H263L190 0H90ZM196 908L277 780H197L66 908H196Z" />
<glyph unicode="&#xcd;" glyph-name="Iacute" horiz-adv-x="280" d="M90 0L163 700H263L190 0H90ZM127 780L234 908H364L207 780H127Z" />
<glyph unicode="&#xce;" glyph-name="Icircumflex" horiz-adv-x="280" d="M90 0L163 700H263L190 0H90ZM161 918H271L358 780H283L210 860L122 780H47L161 918Z" />
<glyph unicode="&#xcf;" glyph-name="Idieresis" horiz-adv-x="280" d="M90 0L163 700H263L190 0H90ZM40 785L51 890H156L145 785H40ZM259 785L270 890H375L364 785H259Z" />
<glyph unicode="&#xd0;" glyph-name="Eth" horiz-adv-x="705" d="M50 291L58 365H128L163 700H572L681 633L622 67L499 0H90L120 291H50ZM254 610L228 365H334L326 291H220L199 90H524L579 610H254Z" />
<glyph unicode="&#xd1;" glyph-name="Ntilde" horiz-adv-x="735" d="M245 529L190 0H90L163 700H254L560 171H562L618 700H718L645 0H554L247 529H245ZM346 857H344L335 775H267L277 869L377 924L510 842H512L521 924H589L579 830L479 775L346 857Z" />
<glyph unicode="&#xd2;" glyph-name="Ograve" horiz-adv-x="705" d="M621 62L498 -5H205L96 62L157 638L280 705H573L682 638L621 62ZM254 615L198 85H523L579 615H254ZM400 908L481 780H401L270 908H400Z" />
<glyph unicode="&#xd3;" glyph-name="Oacute" horiz-adv-x="705" d="M621 62L498 -5H205L96 62L157 638L280 705H573L682 638L621 62ZM254 615L198 85H523L579 615H254ZM340 780L447 908H577L420 780H340Z" />
<glyph unicode="&#xd4;" glyph-name="Ocircumflex" horiz-adv-x="705" d="M621 62L498 -5H205L96 62L157 638L280 705H573L682 638L621 62ZM254 615L198 85H523L579 615H254ZM373 918H483L570 780H495L422 860L334 780H259L373 918Z" />
<glyph unicode="&#xd5;" glyph-name="Otilde" horiz-adv-x="705" d="M621 62L498 -5H205L96 62L157 638L280 705H573L682 638L621 62ZM254 615L198 85H523L579 615H254ZM340 857H338L329 775H261L271 869L371 924L504 842H506L515 924H583L573 830L473 775L340 857Z" />
<glyph unicode="&#xd6;" glyph-name="Odieresis" horiz-adv-x="705" d="M621 62L498 -5H205L96 62L157 638L280 705H573L682 638L621 62ZM254 615L198 85H523L579 615H254ZM258 785L269 890H374L363 785H258ZM477 785L488 890H593L582 785H477Z" />
<glyph unicode="&#xd7;" glyph-name="multiply" horiz-adv-x="610" d="M178 495L338 316L536 495L595 429L397 250L557 71L484 5L324 184L126 5L67 71L265 250L105 429L178 495Z" />
<glyph unicode="&#xd8;" glyph-name="Oslash" horiz-adv-x="705" d="M621 62L498 -5H205L96 62L157 638L280 705H573L682 638L621 62ZM254 615L205 150L539 615H254ZM238 85H523L572 550L238 85Z" />
<glyph unicode="&#xd9;" glyph-name="Ugrave" horiz-adv-x="705" d="M588 700H688L621 62L498 -5H205L96 62L163 700H263L199 95H524L588 700ZM380 908L461 780H381L250 908H380Z" />
<glyph unicode="&#xda;" glyph-name="Uacute" horiz-adv-x="705" d="M588 700H688L621 62L498 -5H205L96 62L163 700H263L199 95H524L588 700ZM357 780L464 908H594L437 780H357Z" />
<glyph unicode="&#xdb;" glyph-name="Ucircumflex" horiz-adv-x="705" d="M588 700H688L621 62L498 -5H205L96 62L163 700H263L199 95H524L588 700ZM373 918H483L570 780H495L422 860L334 780H259L373 918Z" />
<glyph unicode="&#xdc;" glyph-name="Udieresis" horiz-adv-x="705" d="M588 700H688L621 62L498 -5H205L96 62L163 700H263L199 95H524L588 700ZM252 785L263 890H368L357 785H252ZM471 785L482 890H587L576 785H471Z" />
<glyph unicode="&#xdd;" glyph-name="Yacute" horiz-adv-x="611" d="M255 0L287 309L93 700H205L346 402H348L552 700H664L387 308L355 0H255ZM317 780L424 908H554L397 780H317Z" />
<glyph unicode="&#xde;" glyph-name="Thorn" horiz-adv-x="635" d="M90 0L166 730H266L251 587H500L609 520L578 223L455 156H206L190 0H90ZM242 497L215 246H480L507 497H242Z" />
<glyph unicode="&#xdf;" glyph-name="germandbls" horiz-adv-x="665" d="M63 317L72 407H162L186 633L309 700H512L621 633L598 413L519 370L617 311L592 67L469 0H293L302 90H494L518 317H326L335 407H497L519 610H284L198 -200H98L153 317H63Z" />
<glyph unicode="&#xe0;" glyph-name="agrave" horiz-adv-x="575" d="M220 418L185 82H406L441 418H220ZM548 505L494 -5H468L401 36L326 -5H195L86 62L126 438L249 505H380L446 464L522 505H548ZM360 718L441 590H361L230 718H360Z" />
<glyph unicode="&#xe1;" glyph-name="aacute" horiz-adv-x="575" d="M220 418L185 82H406L441 418H220ZM548 505L494 -5H468L401 36L326 -5H195L86 62L126 438L249 505H380L446 464L522 505H548ZM267 590L374 718H504L347 590H267Z" />
<glyph unicode="&#xe2;" glyph-name="acircumflex" horiz-adv-x="575" d="M220 418L185 82H406L441 418H220ZM548 505L494 -5H468L401 36L326 -5H195L86 62L126 438L249 505H380L446 464L522 505H548ZM306 728H416L503 590H428L355 670L267 590H192L306 728Z" />
<glyph unicode="&#xe3;" glyph-name="atilde" horiz-adv-x="575" d="M220 418L185 82H406L441 418H220ZM548 505L494 -5H468L401 36L326 -5H195L86 62L126 438L249 505H380L446 464L522 505H548ZM270 667H268L259 585H191L201 679L301 734L434 652H436L445 734H513L503
640L403 585L270 667Z" />
<glyph unicode="&#xe4;" glyph-name="adieresis" horiz-adv-x="575" d="M220 418L185 82H406L441 418H220ZM548 505L494 -5H468L401 36L326 -5H195L86 62L126 438L249 505H380L446 464L522 505H548ZM192 595L203 700H308L297 595H192ZM411 595L422 700H527L516 595H411Z" />
<glyph unicode="&#xe5;" glyph-name="aring" horiz-adv-x="575" d="M220 418L185 82H406L441 418H220ZM548 505L494 -5H468L401 36L326 -5H195L86 62L126 438L249 505H380L446 464L522 505H548ZM488 617L401 570H280L203 617L221 786L308 833H429L506 786L488
617ZM294 768L280 635H415L429 768H294Z" />
<glyph unicode="&#xe6;" glyph-name="ae" horiz-adv-x="833" d="M762 87L753 0H474L389 52L286 -5H175L66 62L83 225L206 292H388L401 413H153L162 500H391L450 463L527 505H690L799 438L775 216H477L464 87H762ZM178 205L165 82H366L379 205H178ZM498 418L486
303H687L699 418H498Z" />
<glyph unicode="&#xe7;" glyph-name="ccedilla" horiz-adv-x="515" d="M269 0H196L87 67L125 433L248 500H507L498 413H220L186 87H464L455 0H323L297 -37L359 -75L351 -149L260 -199H190L195 -149H294L301 -84H212L269 0Z" />
<glyph unicode="&#xe8;" glyph-name="egrave" horiz-adv-x="555" d="M484 87L475 0H196L87 67L126 438L249 505H412L521 438L497 216H199L186 87H484ZM220 418L208 303H409L421 418H220ZM360 718L441 590H361L230 718H360Z" />
<glyph unicode="&#xe9;" glyph-name="eacute" horiz-adv-x="555" d="M484 87L475 0H196L87 67L126 438L249 505H412L521 438L497 216H199L186 87H484ZM220 418L208 303H409L421 418H220ZM247 590L354 718H484L327 590H247Z" />
<glyph unicode="&#xea;" glyph-name="ecircumflex" horiz-adv-x="555" d="M484 87L475 0H196L87 67L126 438L249 505H412L521 438L497 216H199L186 87H484ZM220 418L208 303H409L421 418H220ZM303 728H413L500 590H425L352 670L264 590H189L303 728Z" />
<glyph unicode="&#xeb;" glyph-name="edieresis" horiz-adv-x="555" d="M484 87L475 0H196L87 67L126 438L249 505H412L521 438L497 216H199L186 87H484ZM220 418L208 303H409L421 418H220ZM175 595L186 700H291L280 595H175ZM394 595L405 700H510L499 595H394Z" />
<glyph unicode="&#xec;" glyph-name="igrave" horiz-adv-x="257" d="M229 500L177 0H80L132 500H229ZM178 718L259 590H179L48 718H178Z" />
<glyph unicode="&#xed;" glyph-name="iacute" horiz-adv-x="257" d="M229 500L177 0H80L132 500H229ZM122 590L229 718H359L202 590H122Z" />
<glyph unicode="&#xee;" glyph-name="icircumflex" horiz-adv-x="257" d="M229 500L177 0H80L132 500H229ZM149 728H259L346 590H271L198 670L110 590H35L149 728Z" />
<glyph unicode="&#xef;" glyph-name="idieresis" horiz-adv-x="257" d="M229 500L177 0H80L132 500H229ZM29 595L40 700H145L134 595H29ZM248 595L259 700H364L353 595H248Z" />
<glyph unicode="&#xf0;" glyph-name="eth" horiz-adv-x="635" d="M391 487L398 561H504L510 615H271L281 705H504L613 638L604 561H674L667 487H597L552 62L429 -5H206L97 62L129 363L252 430H420L486 389L497 487H391ZM454 85L481 340H226L199 85H454Z" />
<glyph unicode="&#xf1;" glyph-name="ntilde" horiz-adv-x="585" d="M551 438L505 0H408L451 418H220L177 0H80L133 505H206L225 464L301 505H442L551 438ZM279 667H277L268 585H200L210 679L310 734L443 652H445L454 734H522L512 640L412 585L279 667Z" />
<glyph unicode="&#xf2;" glyph-name="ograve" horiz-adv-x="585" d="M511 62L388 -5H195L86 62L126 438L249 505H442L551 438L511 62ZM220 418L185 82H416L451 418H220ZM367 718L448 590H368L237 718H367Z" />
<glyph unicode="&#xf3;" glyph-name="oacute" horiz-adv-x="585" d="M511 62L388 -5H195L86 62L126 438L249 505H442L551 438L511 62ZM220 418L185 82H416L451 418H220ZM280 590L387 718H517L360 590H280Z" />
<glyph unicode="&#xf4;" glyph-name="ocircumflex" horiz-adv-x="585" d="M511 62L388 -5H195L86 62L126 438L249 505H442L551 438L511 62ZM220 418L185 82H416L451 418H220ZM316 728H426L513 590H438L365 670L277 590H202L316 728Z" />
<glyph unicode="&#xf5;" glyph-name="otilde" horiz-adv-x="585" d="M511 62L388 -5H195L86 62L126 438L249 505H442L551 438L511 62ZM220 418L185 82H416L451 418H220ZM283 667H281L272 585H204L214 679L314 734L447 652H449L458 734H526L516 640L416 585L283 667Z" />
<glyph unicode="&#xf6;" glyph-name="odieresis" horiz-adv-x="585" d="M511 62L388 -5H195L86 62L126 438L249 505H442L551 438L511 62ZM220 418L185 82H416L451 418H220ZM193 595L204 700H309L298 595H193ZM412 595L423 700H528L517 595H412Z" />
<glyph unicode="&#xf7;" glyph-name="divide" horiz-adv-x="600" d="M581 297L571 203H71L81 297H581ZM233 -10L247 120H377L363 -10H233ZM274 380L288 510H418L404 380H274Z" />
<glyph unicode="&#xf8;" glyph-name="oslash" horiz-adv-x="585" d="M511 62L388 -5H195L86 62L126 438L249 505H442L551 438L511 62ZM220 418L191 140L411 418H220ZM225 82H416L445 360L225 82Z" />
<glyph unicode="&#xf9;" glyph-name="ugrave" horiz-adv-x="585" d="M86 62L132 500H229L185 82H416L460 500H557L504 -5H431L411 36L336 -5H195L86 62ZM350 718L431 590H351L220 718H350Z" />
<glyph unicode="&#xfa;" glyph-name="uacute" horiz-adv-x="585" d="M86 62L132 500H229L185 82H416L460 500H557L504 -5H431L411 36L336 -5H195L86 62ZM297 590L404 718H534L377 590H297Z" />
<glyph unicode="&#xfb;" glyph-name="ucircumflex" horiz-adv-x="585" d="M86 62L132 500H229L185 82H416L460 500H557L504 -5H431L411 36L336 -5H195L86 62ZM314 728H424L511 590H436L363 670L275 590H200L314 728Z" />
<glyph unicode="&#xfc;" glyph-name="udieresis" horiz-adv-x="585" d="M86 62L132 500H229L185 82H416L460 500H557L504 -5H431L411 36L336 -5H195L86 62ZM192 595L203 700H308L297 595H192ZM411 595L422 700H527L516 595H411Z" />
<glyph unicode="&#xfd;" glyph-name="yacute" horiz-adv-x="519" d="M104 -200L215 23L72 500H169L274 144H276L454 500H551L199 -200H104ZM257 590L364 718H494L337 590H257Z" />
<glyph unicode="&#xfe;" glyph-name="thorn" horiz-adv-x="595" d="M156 730H253L225 464L301 505H452L561 438L521 62L398 -5H247L180 36L155 -200H58L156 730ZM220 418L185 82H426L461 418H220Z" />
<glyph unicode="&#xff;" glyph-name="ydieresis" horiz-adv-x="519" d="M104 -200L215 23L72 500H169L274 144H276L454 500H551L199 -200H104ZM160 595L171 700H276L265 595H160ZM379 595L390 700H495L484 595H379Z" />
<glyph unicode="&#x2013;" glyph-name="endash" horiz-adv-x="696" d="M92 218L102 305H658L648 218H92Z" />
<glyph unicode="&#x2014;" glyph-name="emdash" horiz-adv-x="974" d="M92 218L102 305H936L926 218H92Z" />
<glyph unicode="&#x2018;" glyph-name="quoteleft" horiz-adv-x="330" d="M316 730L279 380H129L134 422L274 730H316Z" />
<glyph unicode="&#x2019;" glyph-name="quoteright" horiz-adv-x="330" d="M129 380L166 730H316L312 688L171 380H129Z" />
<glyph unicode="&#x201a;" glyph-name="quotesinglbase" horiz-adv-x="350" d="M78 -200L115 150H265L261 108L120 -200H78Z" />
<glyph unicode="&#x201c;" glyph-name="quotedblleft" horiz-adv-x="570" d="M556 730L519 380H369L374 422L514 730H556ZM316 730L279 380H129L134 422L274 730H316Z" />
<glyph unicode="&#x201d;" glyph-name="quotedblright" horiz-adv-x="570" d="M129 380L166 730H316L312 688L171 380H129ZM369 380L406 730H556L552 688L411 380H369Z" />
<glyph unicode="&#x201e;" glyph-name="quotedblbase" horiz-adv-x="590" d="M78 -200L115 150H265L261 108L120 -200H78ZM318 -200L355 150H505L501 108L360 -200H318Z" />
<glyph unicode="&#x2022;" glyph-name="bullet" horiz-adv-x="580" d="M503 224L380 157H232L123 224L149 470L272 537H420L529 470L503 224Z" />
<glyph unicode="&#x2039;" glyph-name="guilsinglleft" horiz-adv-x="430" d="M351 107L340 0L111 200L121 302L392 502L381 395L183 252V251L351 107Z" />
<glyph unicode="&#x203a;" glyph-name="guilsinglright" horiz-adv-x="430" d="M90 0L101 107L299 251V252L131 395L142 502L371 302L361 200L90 0Z" />
</font>
</defs>
</svg>
