<?xml version="1.0" standalone="no"?>
<!DOCTYPE svg PUBLIC "-//W3C//DTD SVG 1.1//EN" "http://www.w3.org/Graphics/SVG/1.1/DTD/svg11.dtd">
<svg xmlns="http://www.w3.org/2000/svg">
<defs >
<font id="Khand" horiz-adv-x="440" ><font-face
    font-family="Khand SemiBold"
    units-per-em="1000"
    panose-1="2 0 0 0 0 0 0 0 0 0"
    ascent="1050"
    descent="-479"
    alphabetic="0" />
<glyph unicode=" " glyph-name="space" horiz-adv-x="187" />
<glyph unicode="!" glyph-name="exclam" horiz-adv-x="299" d="M82 -9T82 57T150 124T219 58T151 -9ZM85 685H214L198 203H101L85 685Z" />
<glyph unicode="&quot;" glyph-name="quotedbl" horiz-adv-x="436" d="M83 765H187V515H83V765ZM245 765H349V515H245V765Z" />
<glyph unicode="#" glyph-name="numbersign" horiz-adv-x="592" d="M553 407H467L447 271H519V177H434L408 0H303L329 177H217L191 0H86L111 177H37V271H125L144 407H70V501H158L183 678H289L263 501H375L401 678H506L480 501H553V407ZM342 271L362 407H250L230 271H342Z" />
<glyph unicode="$" glyph-name="dollar" horiz-adv-x="420" d="M396 213V154Q396 29 257 2V-61H144V-4Q72 0 31 17V133Q95 106 176 106Q275 106 275 168V194Q275 220 265 234T226 264L116 324Q23 375 23 471V533Q23 657 152 683V743H265V689Q326 684 362 671V556Q304
579 225 579T146 519V492Q146 462 157 446T200 412L315 347Q396 303 396 213Z" />
<glyph unicode="%" glyph-name="percent" horiz-adv-x="663" d="M365 -7T365 154T496 315T628 154T497 -7ZM542 71T542 153T496 236T449 154T495 71ZM35 370T35 531T166 692T298 531T167 370ZM212 449T212 531T166 614T119 532T165 449ZM441 685H524L221 0H139L441 685Z" />
<glyph unicode="&amp;" glyph-name="ampersand" horiz-adv-x="486" d="M476 406V303H429V164Q429 85 384 39T243 -7T101 39T53 164V244Q53 333 126 358Q55 382 55 472V530Q55 606 107 648T267 691Q345 691 393 675V562Q347 580 282 580T196 565T175 518V474Q175
439 189 423T239 406H314V469H429V406H476ZM314 167V303H239Q173 303 173 237V167Q173 99 243 99T314 167Z" />
<glyph unicode="&apos;" glyph-name="quotesingle" horiz-adv-x="278" d="M83 765H194V515H83V765Z" />
<glyph unicode="(" glyph-name="parenleft" horiz-adv-x="329" d="M170 467T170 332T199 68T274 -161H169Q124 -67 95 64T65 332T94 600T169 825H274Q229 726 200 597Z" />
<glyph unicode=")" glyph-name="parenright" horiz-adv-x="329" d="M204 731T233 600T263 333T234 65T159 -161H54Q99 -64 128 66T158 332T129 597T54 825H159Q204 731 233 600Z" />
<glyph unicode="*" glyph-name="asterisk" horiz-adv-x="533" d="M211 724V818H322V724Q322 689 314 662Q340 678 371 688L460 718L494 613L405 584Q374 574 343 572Q364 556 386 526L441 451L352 386L296 461Q275 491 266 515Q255 487 236 461L181 386L92 451L147
526Q169 556 190 572Q158 574 128 584L39 613L73 718L162 689Q194 678 218 663Q211 691 211 724Z" />
<glyph unicode="+" glyph-name="plus" horiz-adv-x="482" d="M436 381V278H296V132H185V278H44V381H185V526H296V381H436Z" />
<glyph unicode="," glyph-name="comma" horiz-adv-x="192" d="M116 122Q168 122 168 75Q168 38 138 -24T77 -130H12L56 122H116Z" />
<glyph unicode="-" glyph-name="hyphen" horiz-adv-x="280" d="M41 381H245V278H41V381Z" />
<glyph unicode="." glyph-name="period" horiz-adv-x="210" d="M172 -9T104 -9T36 57T104 124T172 58Z" />
<glyph unicode="/" glyph-name="slash" horiz-adv-x="428" d="M296 826H402L142 -161H35L296 826Z" />
<glyph unicode="0" glyph-name="zero" horiz-adv-x="460" d="M296 520Q296 553 282 570T230 587T179 570T164 520V165Q164 132 178 115T230 98T281 115T296 165V520ZM44 524Q44 603 89 649T230 695T370 649T416 524V161Q416 82 371 36T230 -10T90 36T44 161V524Z" />
<glyph unicode="1" glyph-name="one" horiz-adv-x="305" d="M251 685V0H129V544L14 460V593L139 685H251Z" />
<glyph unicode="2" glyph-name="two" horiz-adv-x="426" d="M185 690Q387 690 387 532V473Q387 375 311 321L226 253Q184 220 172 201T160 144V107H382V0H38V156Q38 215 61 253T130 323L223 398Q248 417 257 436T266 492V519Q266 548 249 563T171 579T51 554V670Q111
690 185 690Z" />
<glyph unicode="3" glyph-name="three" horiz-adv-x="410" d="M159 691Q263 691 313 650T364 532V463Q364 370 294 348Q366 335 366 242V154Q366 78 316 36T173 -6T25 14V129Q86 104 146 104T226 120T246 166V227Q246 259 231 273T178 288H104V399H177Q213 399
228 416T243 466V520Q243 581 158 581Q87 581 40 564V677Q87 691 159 691Z" />
<glyph unicode="4" glyph-name="four" horiz-adv-x="441" d="M436 226V120H370V0H256V120H10V231L210 685H370V226H436ZM260 226V563L114 226H260Z" />
<glyph unicode="5" glyph-name="five" horiz-adv-x="433" d="M51 685H373V573H171V420Q202 423 235 423Q312 423 352 384T393 271V153Q393 78 343 36T190 -6Q118 -6 47 16V130Q122 104 186 104Q272 104 272 165V255Q272 287 257 301T200 315Q188 315 51 305V685Z" />
<glyph unicode="6" glyph-name="six" horiz-adv-x="452" d="M296 279Q296 338 233 338Q187 338 164 325V163Q164 130 178 113T230 96T281 113T296 163V279ZM44 513Q44 593 93 641T250 690Q331 690 386 670V556Q330 579 252 579Q164 579 164 501V428Q195 442 264
442T374 402T416 289V161Q416 82 371 36T230 -10T90 36T44 161V513Z" />
<glyph unicode="7" glyph-name="seven" horiz-adv-x="364" d="M5 685H346V589L267 347Q227 224 227 102V0H105V111Q105 244 147 365L213 574H5V685Z" />
<glyph unicode="8" glyph-name="eight" horiz-adv-x="468" d="M423 528V459Q423 376 368 341Q424 306 424 223V157Q424 79 377 35T234 -10T91 34T44 157V223Q44 305 99 341Q45 376 45 459V528Q45 606 91 650T233 695T376 651T423 528ZM304 526Q304 591 234 591T164
526V456Q164 388 234 388T304 456V526ZM305 159V227Q305 294 234 294T163 227V159Q163 94 234 94T305 159Z" />
<glyph unicode="9" glyph-name="nine" horiz-adv-x="452" d="M288 522Q288 555 274 572T223 589T171 572T156 522V401Q156 338 219 338Q269 338 288 352V522ZM36 524Q36 603 82 649T222 695T362 649T408 524V157Q408 81 357 38T210 -5T59 15V130Q120 105 204 105T288
169V249Q255 234 185 234T76 274T36 389V524Z" />
<glyph unicode=":" glyph-name="colon" horiz-adv-x="236" d="M172 -9T104 -9T36 57T104 124T172 58ZM36 342T36 408T104 474T172 408T104 342Z" />
<glyph unicode=";" glyph-name="semicolon" horiz-adv-x="239" d="M36 342T36 408T104 474T172 408T104 342ZM116 122Q168 122 168 75Q168 38 138 -24T77 -130H12L56 122H116Z" />
<glyph unicode="&lt;" glyph-name="less" horiz-adv-x="492" d="M437 530V422L151 329L437 236V128L37 274V384L437 530Z" />
<glyph unicode="=" glyph-name="equal" horiz-adv-x="476" d="M35 283H436V180H35V283ZM35 478H436V375H35V478Z" />
<glyph unicode="&gt;" glyph-name="greater" horiz-adv-x="489" d="M46 530L447 384V274L46 128V236L333 329L46 422V530Z" />
<glyph unicode="?" glyph-name="question" horiz-adv-x="407" d="M85 -9T85 57T153 124T222 58T154 -9ZM160 695Q361 695 361 537V448Q361 370 326 330T208 289L202 203H103L97 380H154Q204 380 224 396T245 450V526Q245 557 228 571T147 585T29 563V678Q89 695 160 695Z" />
<glyph unicode="@" glyph-name="at" horiz-adv-x="894" d="M542 -129H452Q229 -129 142 -14Q100 42 82 113T64 280T82 448T144 576Q231 691 453 691Q678 691 762 580Q804 524 821 454T839 286Q839 140 791 78T649 15T519 72Q484 50 419 50Q305 50 305 164V187Q305
235 327 263T398 308L496 342V400Q496 423 486 434T435 445T324 426V508Q391 524 445 524Q589 524 589 404V175Q589 137 604 121T660 104T719 143T738 265T733 392T711 477T664 544Q596 598 453 598Q310 598 242 542Q212 516 195 473T172 387T166 273T176 151T215
54Q271 -35 453 -35H542V-129ZM398 144T407 136T442 128T496 144V260L440 242Q416 234 407 224T398 189V164Q398 144 407 136Z" />
<glyph unicode="A" glyph-name="A" horiz-adv-x="470" d="M344 0L311 171H157L125 0H10L152 685H319L460 0H344ZM176 273H291L233 577L176 273Z" />
<glyph unicode="B" glyph-name="B" horiz-adv-x="483" d="M433 529V467Q433 372 363 346Q439 323 439 223V156Q439 0 273 0H54V685H267Q433 685 433 529ZM249 583H174V398H249Q315 398 315 460V522Q315 583 249 583ZM321 163V230Q321 292 255 292H174V102H255Q321
102 321 163Z" />
<glyph unicode="C" glyph-name="C" horiz-adv-x="405" d="M44 531Q44 606 95 648T251 690Q319 690 373 675V565Q313 582 259 582T185 567T165 521V164Q165 103 252 103Q325 103 376 119V10Q322 -5 249 -5Q44 -5 44 153V531Z" />
<glyph unicode="D" glyph-name="D" horiz-adv-x="483" d="M319 528Q319 585 257 585H174V104H257Q319 104 319 168V528ZM54 685H272Q352 685 395 646T439 532V159Q439 0 278 0H54V685Z" />
<glyph unicode="E" glyph-name="E" horiz-adv-x="412" d="M54 685H383V580H174V399H355V294H174V105H383V0H54V685Z" />
<glyph unicode="F" glyph-name="F" horiz-adv-x="391" d="M54 685H374V580H175V378H361V271H175V0H54V685Z" />
<glyph unicode="G" glyph-name="G" horiz-adv-x="461" d="M44 527Q44 603 98 646T246 690T393 672V558Q332 580 261 580Q165 580 165 515V164Q165 103 245 103Q280 103 301 116V356H419V36Q341 -5 244 -5T96 35T44 153V527Z" />
<glyph unicode="H" glyph-name="H" horiz-adv-x="518" d="M342 685H464V0H342V283H175V0H54V685H175V390H342V685Z" />
<glyph unicode="I" glyph-name="I" horiz-adv-x="229" d="M54 685H175V0H54V685Z" />
<glyph unicode="J" glyph-name="J" horiz-adv-x="233" d="M58 685H179V204Q179 73 145 -45L114 -149H-13L17 -45Q58 95 58 203V685Z" />
<glyph unicode="K" glyph-name="K" horiz-adv-x="466" d="M54 685H174V0H54V685ZM317 685H446L314 350L456 0H323L188 348L317 685Z" />
<glyph unicode="L" glyph-name="L" horiz-adv-x="373" d="M54 685H175V102H368V0H54V685Z" />
<glyph unicode="M" glyph-name="M" horiz-adv-x="635" d="M581 685V0H465V284Q465 385 479 487L367 177H267L154 487Q169 394 169 284V0H54V685H182L317 305L452 685H581Z" />
<glyph unicode="N" glyph-name="N" horiz-adv-x="520" d="M347 685H466V0H345Q198 375 177 436T154 504Q154 502 159 467Q172 376 172 242V0H54V685H177Q304 364 324 307T353 220T365 184Q365 188 360 222Q347 322 347 449V685Z" />
<glyph unicode="O" glyph-name="O" horiz-adv-x="477" d="M313 518Q313 586 239 586T164 518V167Q164 99 238 99T313 167V518ZM44 524Q44 602 93 648T238 695T383 649T433 524V161Q433 83 384 37T238 -10T93 36T44 161V524Z" />
<glyph unicode="P" glyph-name="P" horiz-adv-x="458" d="M306 520Q306 580 243 580H175V316H243Q306 316 306 377V520ZM54 685H256Q337 685 381 645T426 532V365Q426 292 382 252T256 212H175V0H54V685Z" />
<glyph unicode="Q" glyph-name="Q" horiz-adv-x="477" d="M238 -10Q142 -10 93 36T44 161V524Q44 602 93 648T238 695T383 649T433 524V161Q433 72 371 26L484 -92H340L262 -9Q254 -10 238 -10ZM164 518V167Q164 99 238 99T313 167V518Q313 586 239 586T164 518Z" />
<glyph unicode="R" glyph-name="R" horiz-adv-x="472" d="M174 258V0H54V685H256Q337 685 381 646T426 533V416Q426 300 342 270L450 0H318L223 258H174ZM174 582V355H244Q277 355 291 369T306 417V524Q306 582 244 582H174Z" />
<glyph unicode="S" glyph-name="S" horiz-adv-x="420" d="M23 533Q23 608 73 649T216 690T362 671V556Q304 579 225 579T146 519V492Q146 462 157 446T200 412L315 347Q396 303 396 213V154Q396 78 341 37T184 -5T31 17V133Q95 106 176 106Q275 106 275 168V194Q275
220 265 234T226 264L116 324Q23 375 23 471V533Z" />
<glyph unicode="T" glyph-name="T" horiz-adv-x="389" d="M382 685V580H255V0H134V580H7V685H382Z" />
<glyph unicode="U" glyph-name="U" horiz-adv-x="484" d="M315 685H435V161Q435 83 386 37T242 -10T98 36T49 161V685H169V167Q169 99 242 99T315 167V685Z" />
<glyph unicode="V" glyph-name="V" horiz-adv-x="460" d="M327 685H452L315 0H147L8 685H131L189 377Q198 326 213 222T232 107Q236 126 251 232T272 376L327 685Z" />
<glyph unicode="W" glyph-name="W" horiz-adv-x="599" d="M482 685H588L489 0H373Q318 347 313 394T301 502Q293 391 278 297L230 0H108L11 685H118L163 392L183 205Q199 343 248 685H354L395 392L417 210Q425 312 437 392L482 685Z" />
<glyph unicode="X" glyph-name="X" horiz-adv-x="439" d="M301 685H431L283 341L431 0H301L221 214L139 0H8L155 341L8 685H138L221 469L301 685Z" />
<glyph unicode="Y" glyph-name="Y" horiz-adv-x="454" d="M288 0H167V220L2 685H125L171 551Q208 438 229 347Q254 448 287 552L332 685H453L288 220V0Z" />
<glyph unicode="Z" glyph-name="Z" horiz-adv-x="409" d="M28 685H383V587L149 102H384V0H23V102L253 583H28V685Z" />
<glyph unicode="[" glyph-name="bracketleft" horiz-adv-x="344" d="M184 -70H305V-164H86V838H305V744H184V-70Z" />
<glyph unicode="\" glyph-name="backslash" horiz-adv-x="451" d="M37 838H147L418 -164H306L37 838Z" />
<glyph unicode="]" glyph-name="bracketright" horiz-adv-x="344" d="M39 838H258V-164H39V-70H160V744H39V838Z" />
<glyph unicode="^" glyph-name="asciicircum" horiz-adv-x="394" d="M390 392H272L196 632L120 392H1L126 709H266L390 392Z" />
<glyph unicode="_" glyph-name="underscore" horiz-adv-x="531" d="M7 -5H524V-101H7V-5Z" />
<glyph unicode="`" glyph-name="grave" horiz-adv-x="350" d="M107 737H201L243 625H176L107 737Z" />
<glyph unicode="a" glyph-name="a" horiz-adv-x="433" d="M142 168V139Q142 88 195 88Q236 88 267 110V256L196 236Q163 227 153 213T142 168ZM53 568Q110 587 204 587T341 546T384 421V0H270V42Q231 -3 161 -3T57 32T24 139V173Q24 234 53 269T147 322L268 355V422Q267
453 250 467T172 481T53 460V568Z" />
<glyph unicode="b" glyph-name="b" horiz-adv-x="457" d="M291 431Q291 474 245 474Q209 474 175 457V111H231Q291 111 291 164V431ZM54 737H174V566Q226 585 284 585T378 553T413 457V147Q413 74 372 37T262 0H54V737Z" />
<glyph unicode="c" glyph-name="c" horiz-adv-x="374" d="M44 425Q44 587 230 587Q294 587 347 573V461Q297 477 250 477T184 463T165 416V166Q165 133 183 119T250 105T348 121V10Q296 -5 230 -5Q44 -5 44 157V425Z" />
<glyph unicode="d" glyph-name="d" horiz-adv-x="456" d="M282 474H230Q165 474 165 411V154Q165 106 213 106Q256 106 282 126V474ZM281 737H402V0H285V39Q242 -4 177 -4T78 32T44 135V414Q44 493 88 537T218 582H281V737Z" />
<glyph unicode="e" glyph-name="e" horiz-adv-x="434" d="M44 159V433Q44 507 88 549T223 592T355 550T398 433V241H161V168Q161 132 182 116T262 100T383 119V12Q321 -6 245 -6Q44 -6 44 159ZM161 335H286V432Q286 491 224 491T161 432V335Z" />
<glyph unicode="f" glyph-name="f" horiz-adv-x="287" d="M73 599Q73 756 236 756Q259 756 287 751V656Q272 659 253 659Q194 659 194 601V582H284V486H194V0H73V486H16V582H73V599Z" />
<glyph unicode="g" glyph-name="g" horiz-adv-x="452" d="M441 532H407Q394 532 376 528Q400 492 400 439V356Q400 284 356 244T222 202Q185 202 185 168Q185 151 196 144T234 137H290Q437 137 437 15V-6Q437 -74 388 -112T237 -150H199Q85 -150 24 -111V0Q94
-48 196 -48H223Q280 -48 302 -37T324 -3V4Q324 22 314 30T275 38H215Q78 38 78 126V142Q78 201 132 213Q31 244 31 356V439Q31 512 77 552T203 592T325 571Q346 641 426 641H441V532ZM280 356V438Q280 495 216 495T151 438V356Q151 300 215 300T280 356Z" />
<glyph unicode="h" glyph-name="h" horiz-adv-x="459" d="M54 737H174V567Q220 585 277 585T372 554T410 457V0H287V431Q287 474 243 474Q207 474 175 458V0H54V737Z" />
<glyph unicode="i" glyph-name="i" horiz-adv-x="229" d="M46 617T46 683T114 749T183 683T115 617ZM54 571H175V0H54V571Z" />
<glyph unicode="j" glyph-name="j" horiz-adv-x="229" d="M46 617T46 683T114 749T183 683T115 617ZM54 571H175V16Q175 -61 134 -106T12 -152Q-9 -152 -21 -149V-39Q-5 -41 3 -41Q54 -41 54 16V571Z" />
<glyph unicode="k" glyph-name="k" horiz-adv-x="422" d="M54 737H171V0H54V737ZM279 582H400L299 305L413 0H285L180 310L279 582Z" />
<glyph unicode="l" glyph-name="l" horiz-adv-x="229" d="M54 737H175V0H54V737Z" />
<glyph unicode="m" glyph-name="m" horiz-adv-x="693" d="M378 548Q446 585 510 585T609 553T644 457V0H522V431Q522 474 478 474Q442 474 407 453Q410 444 410 431V0H287V431Q287 474 243 474Q209 474 175 455V0H54V582H168V556Q226 585 284 585T378 548Z" />
<glyph unicode="n" glyph-name="n" horiz-adv-x="459" d="M168 556Q226 585 283 585T375 553T410 457V0H287V431Q287 474 243 474Q209 474 175 455V0H54V582H168V556Z" />
<glyph unicode="o" glyph-name="o" horiz-adv-x="447" d="M284 430Q284 489 224 489T163 430V152Q163 93 223 93T284 152V430ZM44 433Q44 507 88 549T223 592T358 550T403 433V149Q403 75 359 33T224 -10T89 32T44 149V433Z" />
<glyph unicode="p" glyph-name="p" horiz-adv-x="457" d="M291 431Q291 474 245 474Q209 474 175 455V111H232Q291 111 291 165V431ZM168 556Q229 585 286 585T378 553T413 457V148Q413 75 372 38T262 0H175V-149H54V582H168V556Z" />
<glyph unicode="q" glyph-name="q" horiz-adv-x="456" d="M282 474H231Q165 474 165 408V159Q165 107 216 107Q255 107 282 126V474ZM219 582H402V-149H282V18Q244 -1 185 -1Q44 -1 44 147V412Q44 491 88 536T219 582Z" />
<glyph unicode="r" glyph-name="r" horiz-adv-x="307" d="M282 585H302V473H275Q223 473 175 443V0H54V582H168V541Q197 560 208 566Q241 585 282 585Z" />
<glyph unicode="s" glyph-name="s" horiz-adv-x="378" d="M24 434Q24 511 69 549T216 587Q282 587 334 571V464Q288 480 232 480T159 468T142 427V413Q142 393 151 382T189 353L272 304Q355 255 355 177V151Q355 -5 151 -5Q79 -5 25 9V118Q74 103 133 103T213
116T235 155V169Q235 189 224 201T175 234L100 278Q24 322 24 405V434Z" />
<glyph unicode="t" glyph-name="t" horiz-adv-x="308" d="M182 685V582H286V480H182V149Q182 102 232 102Q257 102 293 114V7Q251 -7 210 -7Q62 -7 62 138V480H5V582H67L103 685H182Z" />
<glyph unicode="u" glyph-name="u" horiz-adv-x="461" d="M287 582H407V0H293V27Q244 -1 181 -1T83 34T49 135V582H171V156Q171 108 219 108Q254 108 287 127V582Z" />
<glyph unicode="v" glyph-name="v" horiz-adv-x="418" d="M290 582H409L284 0H137L10 582H131L173 370Q199 235 211 93Q222 218 249 368L290 582Z" />
<glyph unicode="w" glyph-name="w" horiz-adv-x="614" d="M482 582H605L509 0H367Q320 332 309 420Q295 306 250 0H109L10 582H135L185 149L251 582H366L433 147L482 582Z" />
<glyph unicode="x" glyph-name="x" horiz-adv-x="391" d="M254 582H384L257 293L385 0H254L196 179L137 0H7L132 293L7 582H137L196 409L254 582Z" />
<glyph unicode="y" glyph-name="y" horiz-adv-x="425" d="M295 582H412L266 -149H150L179 0H133L13 582H132L176 362Q202 229 214 93Q225 213 252 360L295 582Z" />
<glyph unicode="z" glyph-name="z" horiz-adv-x="348" d="M24 582H325V505L150 102H327V0H20V78L196 480H24V582Z" />
<glyph unicode="{" glyph-name="braceleft" horiz-adv-x="389" d="M236 673V479Q236 414 217 378T146 333Q197 324 216 291T236 192V-10Q236 -59 291 -59H325V-162H283Q211 -162 172 -120T132 -5V217Q132 248 114 264T60 281H56V384H60Q132 384 132 447V668Q132
740 172 783T283 826H325V723H291Q236 723 236 673Z" />
<glyph unicode="|" glyph-name="bar" horiz-adv-x="218" d="M67 851H150V-175H67V851Z" />
<glyph unicode="}" glyph-name="braceright" horiz-adv-x="387" d="M325 384H329V281H325Q290 281 272 265T253 217V-5Q253 -77 213 -119T101 -162H60V-59H93Q149 -59 149 -10V192Q149 257 168 290T239 333Q187 342 168 377T149 479V673Q149 723 93 723H60V826H101Q173
826 213 783T253 668V447Q253 384 325 384Z" />
<glyph unicode="~" glyph-name="asciitilde" horiz-adv-x="550" d="M524 376Q524 321 496 290Q446 234 334 271L212 315Q176 332 152 321T134 269H29Q24 292 24 317Q24 372 52 403Q103 458 214 422L336 378Q373 361 397 372T414 424H519Q524 403 524 376Z" />
<glyph unicode="&#xa0;" glyph-name="uni00A0" horiz-adv-x="187" />
<glyph unicode="&#xa1;" glyph-name="exclamdown" horiz-adv-x="299" d="M214 -103H85L101 379H198L214 -103ZM82 458T82 524T150 591T219 525T151 458Z" />
<glyph unicode="&#xa2;" glyph-name="cent" horiz-adv-x="387" d="M282 -71H171V1Q48 25 48 157V425Q48 558 175 582V654H286V585Q321 581 351 573V461Q301 477 254 477T188 463T169 416V166Q169 133 187 119T254 105T352 121V10Q314 -1 282 -3V-71Z" />
<glyph unicode="&#xa3;" glyph-name="sterling" horiz-adv-x="497" d="M446 105V0H51V103Q102 120 113 153Q119 171 119 197V298H56V400H119V504Q119 594 170 641T320 689Q391 689 437 673V561Q384 578 332 578T259 558T239 495V400H389V298H239V214Q239 168 227
145T192 105H446Z" />
<glyph unicode="&#xa4;" glyph-name="currency" horiz-adv-x="460" d="M417 393V292Q417 241 400 207L447 161L377 91L327 140Q287 124 233 124T136 140L87 91L17 161L64 208Q47 242 47 292V393Q47 444 64 478L17 524L87 594L137 545Q177 561 231 561T328 545L378
594L448 524L400 477Q417 443 417 393ZM163 390V295Q163 228 232 228Q269 228 285 245T301 295V390Q301 457 232 457Q195 457 179 440T163 390Z" />
<glyph unicode="&#xa5;" glyph-name="yen" horiz-adv-x="528" d="M486 433V339H372L345 267H486V173H327V0H207V173H43V267H189L162 339H43V433H128L40 678H162L237 461L269 359L300 461L374 678H494L405 433H486Z" />
<glyph unicode="&#xa6;" glyph-name="brokenbar" horiz-adv-x="218" d="M67 211H150V-175H67V211ZM67 851H150V466H67V851Z" />
<glyph unicode="&#xa7;" glyph-name="section" horiz-adv-x="389" d="M154 274V252Q154 232 164 221T203 193L286 143Q369 94 369 16V6Q369 -150 165 -150Q93 -150 39 -136V-27Q82 -42 145 -42T228 -31T249 4T238 39T189 74L115 117Q39 162 39 245V274H154ZM31
537Q31 613 76 651T223 689Q293 689 341 674V567Q291 582 237 582T166 571T149 535T158 499T195 473L279 425Q362 379 362 298V269H245V290Q245 309 233 321T182 356L107 399Q31 445 31 527V537Z" />
<glyph unicode="&#xa8;" glyph-name="dieresis" horiz-adv-x="350" d="M203 632T203 680T253 728T304 680T254 632ZM46 632T46 680T96 728T147 680T97 632Z" />
<glyph unicode="&#xa9;" glyph-name="copyright" horiz-adv-x="700" d="M564 218T567 250T571 332T568 413T553 480T517 534Q464 578 350 578Q237 578 184 534Q160 514 148 480T132 413T129 331T132 249T148 183T184 129Q239 85 350 85Q462 85 514 130Q538 150
551 184ZM226 391Q226 511 360 511Q374 511 437 502V425Q395 434 363 434T321 423T312 389V275Q312 260 314 252Q321 231 360 231T437 238V162Q374 153 360 153Q226 153 226 273V391ZM40 254T40 331T53 464T100 568Q168 663 350 663Q563 663 624 532Q660 456 660
331Q660 255 646 199T599 96T503 25T350 0T197 24T101 94T54 197Z" />
<glyph unicode="&#xaa;" glyph-name="ordfeminine" horiz-adv-x="334" d="M113 425V400Q113 375 124 364T168 353T224 372V494L164 479Q136 471 125 459T113 425ZM167 744Q303 744 303 635V286H224V322Q196 289 140 289Q35 289 35 399V432Q35 477 62 502T149 545L224
564V634Q222 673 166 673T54 657V729Q100 744 167 744Z" />
<glyph unicode="&#xab;" glyph-name="guillemotleft" horiz-adv-x="573" d="M181 505H302L180 322L302 139H181L60 322L181 505ZM394 505H515L393 322L515 139H394L273 322L394 505Z" />
<glyph unicode="&#xac;" glyph-name="logicalnot" horiz-adv-x="503" d="M53 390H449V174H327V283H53V390Z" />
<glyph unicode="&#xad;" glyph-name="uni00AD" horiz-adv-x="280" d="M41 381H245V278H41V381Z" />
<glyph unicode="&#xae;" glyph-name="registered" horiz-adv-x="570" d="M86 640T134 700T307 760T480 701T528 526T480 350T307 290T134 349T86 524ZM185 367T218 356T306 345T395 356T444 394T464 448T469 525T465 602T445 657T396 695T316 706T243 701T198
684T169 659T153 622Q145 585 145 530T149 447T169 393ZM224 663H304Q401 663 401 577Q401 524 367 502L413 390H351L316 488H281V390H224V663ZM281 535H298Q325 535 335 543T345 576T336 608T304 615H281V535Z" />
<glyph unicode="&#xaf;" glyph-name="overscore" horiz-adv-x="350" d="M50 714H300V648H50V714Z" />
<glyph unicode="&#xb0;" glyph-name="degree" horiz-adv-x="414" d="M270 627T270 665T256 722T207 742T159 723T145 665T158 608T207 588T256 607ZM46 588T46 665T85 787T207 833T329 788T369 665T330 543T207 497T85 542Z" />
<glyph unicode="&#xb1;" glyph-name="plusminus" horiz-adv-x="475" d="M436 119L437 16H45L44 119H436ZM185 167V278H44V381H185V491H296V381H436V278H296V167H185Z" />
<glyph unicode="&#xb2;" glyph-name="twosuperior" horiz-adv-x="297" d="M150 744Q271 744 271 637V598Q271 538 222 503L154 453Q125 433 119 423T112 387V361H271V289H33V392Q33 432 46 454T92 499L165 551Q183 564 188 575T193 610V635Q193 655 183 664T133
673T43 661V733Q82 744 150 744Z" />
<glyph unicode="&#xb3;" glyph-name="threesuperior" horiz-adv-x="296" d="M135 744Q257 744 257 638V591Q257 537 221 517Q257 498 257 442V392Q257 284 135 284Q66 284 28 296V369Q79 356 118 356T168 365T179 394V442Q179 461 171 470T138 480H90V552H138Q163
552 171 562T179 591V635Q179 655 169 664T122 673T31 661V734Q71 744 135 744Z" />
<glyph unicode="&#xb4;" glyph-name="acute" horiz-adv-x="350" d="M149 737H243L174 625H107L149 737Z" />
<glyph unicode="&#xb5;" glyph-name="uni00B5" horiz-adv-x="461" d="M287 582H407V0H293V27Q261 5 212 2Q192 1 171 5V-149H49V582H171V117Q187 109 220 109T287 128V582Z" />
<glyph unicode="&#xb6;" glyph-name="paragraph" horiz-adv-x="441" d="M229 685H379V0H258V381H229Q148 381 104 421T60 533T104 645T229 685Z" />
<glyph unicode="&#xb7;" glyph-name="middot" horiz-adv-x="260" d="M67 283T67 345T129 408T192 346T130 283Z" />
<glyph unicode="&#xb8;" glyph-name="cedilla" horiz-adv-x="350" d="M210 -41T229 -58T248 -109T222 -165T161 -187T101 -181V-125Q113 -131 138 -131Q177 -131 177 -103T137 -74H126L143 6H197L187 -39Q210 -41 229 -58Z" />
<glyph unicode="&#xb9;" glyph-name="onesuperior" horiz-adv-x="217" d="M175 738V288H97V653L13 591V679L94 738H175Z" />
<glyph unicode="&#xba;" glyph-name="ordmasculine" horiz-adv-x="326" d="M223 636Q223 673 173 673T122 636V395Q122 357 172 357T223 395V636ZM44 633Q44 746 173 746T302 633V397Q302 284 173 284T44 397V633Z" />
<glyph unicode="&#xbb;" glyph-name="guillemotright" horiz-adv-x="571" d="M48 505H169L290 322L169 139H48L170 322L48 505ZM261 505H382L503 322L382 139H261L383 322L261 505Z" />
<glyph unicode="&#xbc;" glyph-name="onequarter" horiz-adv-x="813" d="M521 685H600L223 0H144L521 685ZM638 154V384L543 154H638ZM715 450V154H760V84H715V0H638V84H470V158L594 450H715ZM202 685V235H124V600L40 538V626L121 685H202Z" />
<glyph unicode="&#xbd;" glyph-name="onehalf" horiz-adv-x="818" d="M521 685H600L223 0H144L521 685ZM202 685V235H124V600L40 538V626L121 685H202ZM631 455Q752 455 752 348V309Q752 249 703 214L635 164Q606 144 600 134T593 98V72H752V0H514V103Q514 143
527 165T573 210L646 262Q664 275 669 286T674 321V346Q674 366 664 375T614 384T524 372V444Q562 455 631 455Z" />
<glyph unicode="&#xbe;" glyph-name="threequarters" horiz-adv-x="842" d="M148 691Q268 691 270 585V538Q270 483 233 464Q270 444 270 388V338Q270 231 147 231Q82 231 40 242V315Q97 302 133 302T180 311T191 340V388Q191 407 183 416T150 426H102V499H150Q175
499 183 509T191 538V581Q191 601 181 610T132 619T44 608V680Q77 691 148 691ZM555 685H634L258 0H179L555 685ZM667 154V384L571 154H667ZM744 450V154H789V84H744V0H667V84H498V158L623 450H744Z" />
<glyph unicode="&#xbf;" glyph-name="questiondown" horiz-adv-x="407" d="M305 592T305 526T237 459T168 525T236 592ZM230 -112Q29 -112 29 46V135Q29 213 64 253T182 294L188 380H287L293 203H236Q186 203 166 187T145 133V57Q145 26 162 12T243 -2T361 20V-95Q302
-112 230 -112Z" />
<glyph unicode="&#xc0;" glyph-name="Agrave" horiz-adv-x="470" d="M344 0L311 171H157L125 0H10L152 685H319L460 0H344ZM176 273H291L233 577L176 273ZM265 725H198L129 837H223L265 725Z" />
<glyph unicode="&#xc1;" glyph-name="Aacute" horiz-adv-x="470" d="M344 0L311 171H157L125 0H10L152 685H319L460 0H344ZM176 273H291L233 577L176 273ZM333 837L264 725H197L239 837H333Z" />
<glyph unicode="&#xc2;" glyph-name="Acircumflex" horiz-adv-x="470" d="M344 0L311 171H157L125 0H10L152 685H319L460 0H344ZM176 273H291L233 577L176 273ZM239 781L200 725H138L194 837H283L339 725H278L239 781Z" />
<glyph unicode="&#xc3;" glyph-name="Atilde" horiz-adv-x="470" d="M344 0L311 171H157L125 0H10L152 685H319L460 0H344ZM176 273H291L233 577L176 273ZM163 735V729H95V735Q95 779 115 804T169 830T237 811T281 791Q302 791 302 825V832H370V823Q370 780 350
755T297 730T230 750T185 770Q163 770 163 735Z" />
<glyph unicode="&#xc4;" glyph-name="Adieresis" horiz-adv-x="470" d="M344 0L311 171H157L125 0H10L152 685H319L460 0H344ZM176 273H291L233 577L176 273ZM205 828T205 780T155 732T104 780T154 828ZM362 828T362 780T312 732T261 780T311 828Z" />
<glyph unicode="&#xc5;" glyph-name="Aring" horiz-adv-x="470" d="M344 0L311 171H157L125 0H10L152 685H319L460 0H344ZM176 273H291L233 577L176 273ZM311 747T291 725T234 703T176 725T155 780T176 835T233 857T290 836T311 781ZM247 811T233 811T211 803T202
781Q202 749 233 749T264 781Q264 794 256 802Z" />
<glyph unicode="&#xc6;" glyph-name="AE" horiz-adv-x="700" d="M676 580H468V399H649V294H468V105H676V0H355V171H187L121 0H3L283 685H676V580ZM355 273V605L227 273H355Z" />
<glyph unicode="&#xc7;" glyph-name="Ccedilla" horiz-adv-x="405" d="M270 -41T289 -58T308 -109T282 -165T221 -187T161 -181V-125Q173 -131 198 -131Q237 -131 237 -103T197 -74H186L201 -2Q44 15 44 153V531Q44 606 95 648T251 690Q319 690 373 675V565Q313
582 259 582T185 567T165 521V164Q165 103 252 103Q325 103 376 119V10Q329 -3 255 -5L247 -39Q270 -41 289 -58Z" />
<glyph unicode="&#xc8;" glyph-name="Egrave" horiz-adv-x="412" d="M117 837H211L253 725H186L117 837ZM54 685H383V580H174V399H355V294H174V105H383V0H54V685Z" />
<glyph unicode="&#xc9;" glyph-name="Eacute" horiz-adv-x="412" d="M54 685H383V580H174V399H355V294H174V105H383V0H54V685ZM225 837H319L250 725H183L225 837Z" />
<glyph unicode="&#xca;" glyph-name="Ecircumflex" horiz-adv-x="412" d="M383 580H174V399H355V294H174V105H383V0H54V685H383V580ZM212 781L173 725H111L167 837H256L312 725H251L212 781Z" />
<glyph unicode="&#xcb;" glyph-name="Edieresis" horiz-adv-x="412" d="M54 685H383V580H174V399H355V294H174V105H383V0H54V685ZM248 732T248 780T298 828T349 780T299 732ZM91 732T91 780T141 828T192 780T142 732Z" />
<glyph unicode="&#xcc;" glyph-name="Igrave" horiz-adv-x="412" d="M116 837H210L252 725H185L116 837ZM54 685H383V580H174V399H355V294H174V105H383V0H54V685Z" />
<glyph unicode="&#xcd;" glyph-name="Iacute" horiz-adv-x="412" d="M54 685H383V580H174V399H355V294H174V105H383V0H54V685ZM225 837H319L250 725H183L225 837Z" />
<glyph unicode="&#xce;" glyph-name="Icircumflex" horiz-adv-x="229" d="M54 0V685H175V0H54ZM116 781L77 725H15L71 837H160L216 725H155L116 781Z" />
<glyph unicode="&#xcf;" glyph-name="Idieresis" horiz-adv-x="229" d="M142 732T142 780T192 828T243 780T193 732ZM-15 732T-15 780T35 828T86 780T36 732ZM54 685H175V0H54V685Z" />
<glyph unicode="&#xd0;" glyph-name="Eth" horiz-adv-x="487" d="M61 685H279Q359 685 402 646T446 532V159Q446 0 285 0H61V287H-7V387H61V685ZM326 168V528Q326 585 264 585H181V387H257V287H181V104H264Q326 104 326 168Z" />
<glyph unicode="&#xd1;" glyph-name="Ntilde" horiz-adv-x="520" d="M336 832H404V823Q404 780 384 755T331 730T264 750T219 770Q197 770 197 735V729H129V735Q129 779 149 804T203 830T271 811T315 791Q336 791 336 825V832ZM347 685H466V0H345Q198 375 177
436T154 504Q154 502 159 467Q172 376 172 242V0H54V685H177Q304 364 324 307T353 220T365 184Q365 188 360 222Q347 322 347 449V685Z" />
<glyph unicode="&#xd2;" glyph-name="Ograve" horiz-adv-x="477" d="M132 837H226L268 725H201L132 837ZM313 518Q313 586 239 586T164 518V167Q164 99 238 99T313 167V518ZM44 524Q44 602 93 648T238 695T383 649T433 524V161Q433 83 384 37T238 -10T93 36T44 161V524Z" />
<glyph unicode="&#xd3;" glyph-name="Oacute" horiz-adv-x="477" d="M313 518Q313 586 239 586T164 518V167Q164 99 238 99T313 167V518ZM44 524Q44 602 93 648T238 695T383 649T433 524V161Q433 83 384 37T238 -10T93 36T44 161V524ZM252 837H346L277 725H210L252 837Z" />
<glyph unicode="&#xd4;" glyph-name="Ocircumflex" horiz-adv-x="477" d="M44 161V524Q44 602 93 648T238 695T383 649T433 524V161Q433 83 384 37T238 -10T93 36T44 161ZM313 167V518Q313 586 239 586T164 518V167Q164 99 238 99T313 167ZM240 781L201 725H139L195
837H284L340 725H279L240 781Z" />
<glyph unicode="&#xd5;" glyph-name="Otilde" horiz-adv-x="477" d="M306 832H374V823Q374 780 354 755T301 730T234 750T189 770Q167 770 167 735V729H99V735Q99 779 119 804T173 830T241 811T285 791Q306 791 306 825V832ZM313 518Q313 586 239 586T164 518V167Q164
99 238 99T313 167V518ZM44 524Q44 602 93 648T238 695T383 649T433 524V161Q433 83 384 37T238 -10T93 36T44 161V524Z" />
<glyph unicode="&#xd6;" glyph-name="Odieresis" horiz-adv-x="477" d="M313 518Q313 586 239 586T164 518V167Q164 99 238 99T313 167V518ZM44 524Q44 602 93 648T238 695T383 649T433 524V161Q433 83 384 37T238 -10T93 36T44 161V524ZM266 732T266 780T316
828T367 780T317 732ZM109 732T109 780T159 828T210 780T160 732Z" />
<glyph unicode="&#xd7;" glyph-name="multiply" horiz-adv-x="448" d="M409 218L336 145L223 258L110 145L38 218L151 331L39 443L112 515L224 404L335 515L408 443L296 331L409 218Z" />
<glyph unicode="&#xd8;" glyph-name="Oslash" horiz-adv-x="477" d="M433 524V161Q433 83 384 37T238 -10Q169 -10 124 15L117 0H41L70 63Q44 104 44 161V524Q44 602 93 648T238 695Q306 695 353 670L360 685H436L406 622Q433 580 433 524ZM164 518V264L302 560Q282
586 238 586Q164 586 164 518ZM313 167V421L175 125Q193 99 238 99Q313 99 313 167Z" />
<glyph unicode="&#xd9;" glyph-name="Ugrave" horiz-adv-x="484" d="M140 837H234L276 725H209L140 837ZM315 685H435V161Q435 83 386 37T242 -10T98 36T49 161V685H169V167Q169 99 242 99T315 167V685Z" />
<glyph unicode="&#xda;" glyph-name="Uacute" horiz-adv-x="484" d="M315 685H435V161Q435 83 386 37T242 -10T98 36T49 161V685H169V167Q169 99 242 99T315 167V685ZM250 837H344L275 725H208L250 837Z" />
<glyph unicode="&#xdb;" glyph-name="Ucircumflex" horiz-adv-x="484" d="M315 685H435V161Q435 83 386 37T242 -10T98 36T49 161V685H169V167Q169 99 242 99T315 167V685ZM242 781L203 725H141L197 837H286L342 725H281L242 781Z" />
<glyph unicode="&#xdc;" glyph-name="Udieresis" horiz-adv-x="484" d="M315 685H435V161Q435 83 386 37T242 -10T98 36T49 161V685H169V167Q169 99 242 99T315 167V685ZM269 732T269 780T319 828T370 780T320 732ZM112 732T112 780T162 828T213 780T163 732Z" />
<glyph unicode="&#xdd;" glyph-name="Yacute" horiz-adv-x="454" d="M234 838H328L259 726H192L234 838ZM288 0H167V220L2 685H125L171 551Q208 438 229 347Q254 448 287 552L332 685H453L288 220V0Z" />
<glyph unicode="&#xde;" glyph-name="Thorn" horiz-adv-x="444" d="M180 575H258Q338 575 382 535T427 422V263Q427 190 383 151T258 111H180V0H64V685H180V575ZM312 275V411Q312 472 249 472H180V214H249Q312 214 312 275Z" />
<glyph unicode="&#xdf;" glyph-name="germandbls" horiz-adv-x="557" d="M54 533Q54 625 105 674T251 723T398 678T452 554Q452 516 436 483T405 426T389 386V375Q389 344 462 297Q538 244 538 177V147Q538 -4 346 -4Q293 -4 233 10V118Q286 102 335 102T403 115T422
156V168Q422 188 406 204T353 247Q310 275 289 301T267 362V380Q267 414 299 465T332 548Q332 617 255 617Q210 617 189 595T168 523V0H54V533Z" />
<glyph unicode="&#xe0;" glyph-name="agrave" horiz-adv-x="433" d="M108 737H202L244 625H177L108 737ZM142 168V139Q142 88 195 88Q236 88 267 110V256L196 236Q163 227 153 213T142 168ZM53 568Q110 587 204 587T341 546T384 421V0H270V42Q231 -3 161 -3T57
32T24 139V173Q24 234 53 269T147 322L268 355V422Q267 453 250 467T172 481T53 460V568Z" />
<glyph unicode="&#xe1;" glyph-name="aacute" horiz-adv-x="433" d="M214 737H308L239 625H172L214 737ZM142 168V139Q142 88 195 88Q236 88 267 110V256L196 236Q163 227 153 213T142 168ZM53 568Q110 587 204 587T341 546T384 421V0H270V42Q231 -3 161 -3T57
32T24 139V173Q24 234 53 269T147 322L268 355V422Q267 453 250 467T172 481T53 460V568Z" />
<glyph unicode="&#xe2;" glyph-name="acircumflex" horiz-adv-x="433" d="M53 568Q110 587 204 587T341 546T384 421V0H270V42Q231 -3 161 -3T57 32T24 139V173Q24 234 53 269T147 322L268 355V422Q267 453 250 467T172 481T53 460V568ZM142 168V139Q142 88 195
88Q236 88 267 110V256L196 236Q163 227 153 213T142 168ZM215 681L176 625H114L170 737H259L315 625H254L215 681Z" />
<glyph unicode="&#xe3;" glyph-name="atilde" horiz-adv-x="433" d="M281 732H349V723Q349 680 329 655T276 630T209 650T164 670Q142 670 142 635V629H74V635Q74 679 94 704T148 730T216 711T260 691Q281 691 281 725V732ZM142 168V139Q142 88 195 88Q236 88
267 110V256L196 236Q163 227 153 213T142 168ZM53 568Q110 587 204 587T341 546T384 421V0H270V42Q231 -3 161 -3T57 32T24 139V173Q24 234 53 269T147 322L268 355V422Q267 453 250 467T172 481T53 460V568Z" />
<glyph unicode="&#xe4;" glyph-name="adieresis" horiz-adv-x="433" d="M238 632T238 680T288 728T339 680T289 632ZM81 632T81 680T131 728T182 680T132 632ZM142 168V139Q142 88 195 88Q236 88 267 110V256L196 236Q163 227 153 213T142 168ZM53 568Q110 587
204 587T341 546T384 421V0H270V42Q231 -3 161 -3T57 32T24 139V173Q24 234 53 269T147 322L268 355V422Q267 453 250 467T172 481T53 460V568Z" />
<glyph unicode="&#xe5;" glyph-name="aring" horiz-adv-x="433" d="M240 681Q240 694 232 702T209 711T187 703T178 681Q178 649 209 649T240 681ZM173 603T152 625T131 680T152 735T209 757T266 736T287 681T267 625T210 603ZM142 168V139Q142 88 195 88Q236
88 267 110V256L196 236Q163 227 153 213T142 168ZM53 568Q110 587 204 587T341 546T384 421V0H270V42Q231 -3 161 -3T57 32T24 139V173Q24 234 53 269T147 322L268 355V422Q267 453 250 467T172 481T53 460V568Z" />
<glyph unicode="&#xe6;" glyph-name="ae" horiz-adv-x="653" d="M509 432Q509 491 447 491Q415 491 399 476T382 432V335H509V432ZM142 168V139Q142 88 195 88Q237 88 269 109V257L196 237Q163 228 153 214T142 168ZM322 554Q370 592 453 592T579 550T622 433V241H382V168Q382
131 405 116T486 100T606 119V12Q544 -6 459 -6T324 32Q272 -4 175 -4Q27 -4 27 138V173Q27 234 55 269T147 323L267 359V428Q267 454 250 467T170 481T53 459V567Q119 587 198 587T322 554Z" />
<glyph unicode="&#xe7;" glyph-name="ccedilla" horiz-adv-x="374" d="M251 -41T270 -58T289 -109T263 -165T202 -187T142 -181V-125Q154 -131 179 -131Q218 -131 218 -103T178 -74H167L182 -2Q44 17 44 157V425Q44 587 230 587Q294 587 347 573V461Q297 477 250
477T184 463T165 416V166Q165 133 183 119T250 105T348 121V10Q298 -5 236 -5L228 -39Q251 -41 270 -58Z" />
<glyph unicode="&#xe8;" glyph-name="egrave" horiz-adv-x="434" d="M44 159V433Q44 507 88 549T223 592T355 550T398 433V241H161V168Q161 132 182 116T262 100T383 119V12Q321 -6 245 -6Q44 -6 44 159ZM161 335H286V432Q286 491 224 491T161 432V335ZM258 625H191L122
737H216L258 625Z" />
<glyph unicode="&#xe9;" glyph-name="eacute" horiz-adv-x="434" d="M44 159V433Q44 507 88 549T223 592T355 550T398 433V241H161V168Q161 132 182 116T262 100T383 119V12Q321 -6 245 -6Q44 -6 44 159ZM161 335H286V432Q286 491 224 491T161 432V335ZM325 737L256
625H189L231 737H325Z" />
<glyph unicode="&#xea;" glyph-name="ecircumflex" horiz-adv-x="434" d="M44 159V433Q44 507 88 549T223 592T355 550T398 433V241H161V168Q161 132 182 116T262 100T383 119V12Q321 -6 245 -6Q44 -6 44 159ZM161 335H286V432Q286 491 224 491T161 432V335ZM228
681L189 625H127L183 737H272L328 625H267L228 681Z" />
<glyph unicode="&#xeb;" glyph-name="edieresis" horiz-adv-x="434" d="M44 159V433Q44 507 88 549T223 592T355 550T398 433V241H161V168Q161 132 182 116T262 100T383 119V12Q321 -6 245 -6Q44 -6 44 159ZM161 335H286V432Q286 491 224 491T161 432V335ZM196
728T196 680T146 632T95 680T145 728ZM353 728T353 680T303 632T252 680T302 728Z" />
<glyph unicode="&#xec;" glyph-name="igrave" horiz-adv-x="229" d="M6 737H100L142 625H75L6 737ZM54 571H175V0H54V571Z" />
<glyph unicode="&#xed;" glyph-name="iacute" horiz-adv-x="229" d="M121 737H215L146 625H79L121 737ZM54 571H175V0H54V571Z" />
<glyph unicode="&#xee;" glyph-name="icircumflex" horiz-adv-x="229" d="M54 0V571H175V0H54ZM116 681L77 625H15L71 737H160L216 625H155L116 681Z" />
<glyph unicode="&#xef;" glyph-name="idieresis" horiz-adv-x="229" d="M142 632T142 680T192 728T243 680T193 632ZM-15 632T-15 680T35 728T86 680T36 632ZM54 571H175V0H54V571Z" />
<glyph unicode="&#xf0;" glyph-name="eth" horiz-adv-x="453" d="M407 309V155Q407 79 362 36T228 -7T94 35T49 154V309Q49 457 194 457Q246 457 275 422Q259 484 220 549L112 501V566L187 600Q163 634 117 685H256Q278 658 288 645L388 690V624L322 594Q407 452
407 309ZM291 157V348Q276 365 235 365T180 351T165 305V158Q165 98 228 98T291 157Z" />
<glyph unicode="&#xf1;" glyph-name="ntilde" horiz-adv-x="459" d="M300 732H368V723Q368 680 348 655T295 630T228 650T183 670Q161 670 161 635V629H93V635Q93 679 113 704T167 730T235 711T279 691Q300 691 300 725V732ZM168 556Q226 585 283 585T375 553T410
457V0H287V431Q287 474 243 474Q209 474 175 455V0H54V582H168V556Z" />
<glyph unicode="&#xf2;" glyph-name="ograve" horiz-adv-x="447" d="M127 737H221L263 625H196L127 737ZM284 430Q284 489 224 489T163 430V152Q163 93 223 93T284 152V430ZM44 433Q44 507 88 549T223 592T358 550T403 433V149Q403 75 359 33T224 -10T89 32T44 149V433Z" />
<glyph unicode="&#xf3;" glyph-name="oacute" horiz-adv-x="447" d="M284 430Q284 489 224 489T163 430V152Q163 93 223 93T284 152V430ZM44 433Q44 507 88 549T223 592T358 550T403 433V149Q403 75 359 33T224 -10T89 32T44 149V433ZM236 737H330L261 625H194L236 737Z" />
<glyph unicode="&#xf4;" glyph-name="ocircumflex" horiz-adv-x="447" d="M44 149V433Q44 507 88 549T223 592T358 550T403 433V149Q403 75 359 33T224 -10T89 32T44 149ZM284 152V430Q284 489 224 489T163 430V152Q163 93 223 93T284 152ZM227 681L188 625H126L182
737H271L327 625H266L227 681Z" />
<glyph unicode="&#xf5;" glyph-name="otilde" horiz-adv-x="447" d="M295 732H363V723Q363 680 343 655T290 630T223 650T178 670Q156 670 156 635V629H88V635Q88 679 108 704T162 730T230 711T274 691Q295 691 295 725V732ZM284 430Q284 489 224 489T163 430V152Q163
93 223 93T284 152V430ZM44 433Q44 507 88 549T223 592T358 550T403 433V149Q403 75 359 33T224 -10T89 32T44 149V433Z" />
<glyph unicode="&#xf6;" glyph-name="odieresis" horiz-adv-x="447" d="M284 430Q284 489 224 489T163 430V152Q163 93 223 93T284 152V430ZM44 433Q44 507 88 549T223 592T358 550T403 433V149Q403 75 359 33T224 -10T89 32T44 149V433ZM256 632T256 680T306
728T357 680T307 632ZM99 632T99 680T149 728T200 680T150 632Z" />
<glyph unicode="&#xf7;" glyph-name="divide" horiz-adv-x="475" d="M175 437T175 499T237 562T300 500T238 437ZM175 94T175 156T237 219T300 157T238 94ZM41 380H433V277H41V380Z" />
<glyph unicode="&#xf8;" glyph-name="oslash" horiz-adv-x="447" d="M403 433V149Q403 75 359 33T231 -10T103 21L91 0H33L66 60Q44 95 44 149V433Q44 507 88 549T216 592T346 559L359 582H417L382 520Q403 484 403 433ZM163 430V232L283 446Q275 489 224 489Q163
489 163 430ZM284 152V345L165 132Q175 93 224 93Q284 93 284 152Z" />
<glyph unicode="&#xf9;" glyph-name="ugrave" horiz-adv-x="461" d="M119 737H213L255 625H188L119 737ZM287 582H407V0H293V27Q244 -1 181 -1T83 34T49 135V582H171V156Q171 108 219 108Q254 108 287 127V582Z" />
<glyph unicode="&#xfa;" glyph-name="uacute" horiz-adv-x="461" d="M287 582H407V0H293V27Q244 -1 181 -1T83 34T49 135V582H171V156Q171 108 219 108Q254 108 287 127V582ZM239 737H333L264 625H197L239 737Z" />
<glyph unicode="&#xfb;" glyph-name="ucircumflex" horiz-adv-x="461" d="M287 582H407V0H293V27Q244 -1 181 -1T83 34T49 135V582H171V156Q171 108 219 108Q254 108 287 127V582ZM231 681L192 625H130L186 737H275L331 625H270L231 681Z" />
<glyph unicode="&#xfc;" glyph-name="udieresis" horiz-adv-x="461" d="M287 582H407V0H293V27Q244 -1 181 -1T83 34T49 135V582H171V156Q171 108 219 108Q254 108 287 127V582ZM257 632T257 680T307 728T358 680T308 632ZM100 632T100 680T150 728T201 680T151 632Z" />
<glyph unicode="&#xfd;" glyph-name="yacute" horiz-adv-x="425" d="M216 737H310L241 625H174L216 737ZM295 582H412L266 -149H150L179 0H133L13 582H132L176 362Q202 229 214 93Q225 213 252 360L295 582Z" />
<glyph unicode="&#xfe;" glyph-name="thorn" horiz-adv-x="460" d="M291 432Q291 475 245 475Q211 475 175 457V108H232Q291 108 291 162V432ZM54 737H174V559Q231 585 287 585T378 553T413 457V148Q413 75 372 38T262 0H175V-164H54V737Z" />
<glyph unicode="&#xff;" glyph-name="ydieresis" horiz-adv-x="425" d="M295 582H412L266 -149H150L179 0H133L13 582H132L176 362Q202 229 214 93Q225 213 252 360L295 582ZM240 632T240 680T290 728T341 680T291 632ZM83 632T83 680T133 728T184 680T134 632Z" />
<glyph unicode="&#x2013;" glyph-name="endash" horiz-adv-x="541" d="M41 381H487V278H41V381Z" />
<glyph unicode="&#x2014;" glyph-name="emdash" horiz-adv-x="778" d="M41 381H728V278H41V381Z" />
<glyph unicode="&#x2018;" glyph-name="quoteleft" horiz-adv-x="188" d="M77 496Q27 496 27 544Q27 577 53 632T107 726H161L120 496H77Z" />
<glyph unicode="&#x2019;" glyph-name="quoteright" horiz-adv-x="188" d="M110 726Q161 726 161 678Q161 644 135 590T81 496H27L68 726H110Z" />
<glyph unicode="&#x201a;" glyph-name="quotesinglbase" horiz-adv-x="188" d="M110 122Q161 122 161 74Q161 14 81 -108H27L68 122H110Z" />
<glyph unicode="&#x201c;" glyph-name="quotedblleft" horiz-adv-x="332" d="M77 496Q27 496 27 544Q27 577 53 632T107 726H156L115 496H77ZM226 496Q176 496 176 544Q176 577 202 632T256 726H305L264 496H226Z" />
<glyph unicode="&#x201d;" glyph-name="quotedblright" horiz-adv-x="332" d="M106 726Q156 726 156 678Q156 644 129 589T76 496H27L68 726H106ZM255 726Q305 726 305 678Q305 644 278 589T225 496H176L217 726H255Z" />
<glyph unicode="&#x201e;" glyph-name="quotedblbase" horiz-adv-x="332" d="M106 122Q156 122 156 74Q156 41 130 -14T76 -108H27L68 122H106ZM255 122Q305 122 305 74Q305 41 279 -14T225 -108H176L217 122H255Z" />
<glyph unicode="&#x2022;" glyph-name="bullet" horiz-adv-x="259" d="M38 244T38 333T127 423T217 334T128 244Z" />
<glyph unicode="&#x2039;" glyph-name="guilsinglleft" horiz-adv-x="449" d="M219 505H340L218 322L340 139H219L98 322L219 505Z" />
<glyph unicode="&#x203a;" glyph-name="guilsinglright" horiz-adv-x="423" d="M98 505H219L340 322L219 139H98L220 322L98 505Z" />
</font>
</defs>
</svg>
