<?xml version="1.0" standalone="no"?>
<!DOCTYPE svg PUBLIC "-//W3C//DTD SVG 1.1//EN" "http://www.w3.org/Graphics/SVG/1.1/DTD/svg11.dtd">
<svg xmlns="http://www.w3.org/2000/svg">
<defs >
<font id="Mogra" horiz-adv-x="780" ><font-face
    font-family="Mogra"
    units-per-em="1000"
    panose-1="2 0 0 0 0 0 0 0 0 0"
    ascent="750"
    descent="-250"
    alphabetic="0" />
<glyph unicode=" " glyph-name="space" horiz-adv-x="272" />
<glyph unicode="!" glyph-name="exclam" horiz-adv-x="335" d="M215 257T205 257Q185 257 162 270T121 301T104 334Q103 367 121 494T166 725T216 829Q240 829 268 814T317 776T337 735Q337 720 314 658Q302 624 289 584T269 509Q258 458 250 376Q244 319 238
292T219 259Q215 257 205 257ZM101 0T83 18T52 63T39 109Q39 126 62 145T119 177T178 190Q195 190 212 173T239 131T250 89Q250 71 227 50T172 15T118 0Q101 0 83 18Z" />
<glyph unicode="&quot;" glyph-name="quotedbl" horiz-adv-x="484" d="M118 709T154 709Q184 709 208 697T245 663Q234 616 210 549T164 437Q145 430 128 430Q108 430 91 437T64 460Q75 540 86 692Q118 709 154 709ZM358 709T394 709Q424 709 448 697T485 663Q474
616 450 549T404 437Q385 430 368 430Q348 430 331 437T304 460Q315 540 326 692Q358 709 394 709Z" />
<glyph unicode="#" glyph-name="numbersign" horiz-adv-x="767" d="M763 574T772 556T782 515Q782 495 774 477T753 445L634 440L590 284L693 295Q712 284 721 266T731 225Q731 205 723 187T702 155L558 149Q538 70 525 34T497 -2Q475 -2 446 10T395 40T373 74Q373
88 388 136L281 127Q264 61 252 30T225 -2Q203 -2 175 10T127 40T105 74Q105 85 114 119L46 114Q26 124 15 143T3 186Q3 226 33 253L161 256L207 410L96 401Q76 411 65 430T53 473Q53 513 83 540L234 545Q254 633 266 668T299 703Q319 703 346 687T394 650T415
614Q415 596 404 557L510 567Q526 640 538 671T570 703Q590 703 617 687T665 650T686 614Q686 603 681 580L744 585Q763 574 772 556ZM359 428L310 255L437 266L487 438L359 428Z" />
<glyph unicode="$" glyph-name="dollar" horiz-adv-x="494" d="M498 484T470 461T399 437Q368 437 335 452Q341 484 341 509Q341 539 335 557T318 576Q302 576 281 558T246 512T231 458Q231 419 263 387T359 311Q413 273 440 248T467 195Q467 137 414 90T274 17Q257
-97 234 -97Q207 -97 177 -87T127 -59T106 -24Q106 -12 114 15Q62 32 21 67T-21 129Q-23 173 8 200T91 228Q117 228 144 221Q156 155 165 126Q209 137 243 151T305 187Q215 249 143 325T70 462Q70 498 92 542T155 626T246 691Q251 755 260 788T291 822Q312 822
340 807T390 771T411 735Q411 715 402 675Q444 648 471 605T498 521Q498 484 470 461Z" />
<glyph unicode="%" glyph-name="percent" horiz-adv-x="844" d="M662 633T640 590T569 458Q500 333 483 301Q450 237 424 185Q362 62 329 5T280 -52Q264 -52 241 -37T200 -1T182 32Q182 47 198 78T257 180Q322 286 355 351Q396 430 449 542Q502 653 529 703T573
754Q591 754 612 735T647 691T662 651Q662 633 640 590ZM385 503T362 457T297 380T203 349Q178 349 149 365T100 406T80 450Q80 525 118 590Q140 603 166 601Q164 609 164 613Q164 632 179 647T222 669Q267 665 304 645T363 598T385 543Q385 503 362 457ZM206 528T198
501T189 446Q189 433 190 427Q267 458 285 555Q259 569 219 569Q222 560 222 549Q206 528 198 501ZM775 154T752 108T687 31T593 0Q568 0 539 16T490 57T470 101Q470 176 508 241Q530 254 556 252Q554 260 554 264Q554 283 569 298T612 320Q657 316 694 296T753
249T775 194Q775 154 752 108ZM596 179T588 152T579 97Q579 84 580 78Q657 109 675 206Q649 220 609 220Q612 211 612 200Q596 179 588 152Z" />
<glyph unicode="&amp;" glyph-name="ampersand" d="M691 196T710 172T729 112Q729 89 694 63T610 18T525 0Q496 0 466 22T420 77Q305 0 190 0Q155 0 114 27T45 91T16 153Q16 195 91 256T255 365Q196 383 154 418T112 488Q112 520 157 567T266 653T382 700Q420
695 440 675T460 626Q460 599 442 570Q384 555 344 530T268 464Q303 433 385 433Q434 433 480 444Q491 521 500 558T524 595Q550 595 575 582T617 550T632 518Q629 485 613 453L704 448Q720 446 728 434T737 403Q737 385 729 367T704 334L579 333Q559 253 542 147Q607
178 650 211Q691 196 710 172ZM281 131T362 180T452 331Q362 318 286 259T170 131Q281 131 362 180Z" />
<glyph unicode="&apos;" glyph-name="quotesingle" horiz-adv-x="254" d="M118 709T154 709Q184 709 208 697T245 663Q234 616 210 549T164 437Q145 430 128 430Q108 430 91 437T64 460Q75 540 86 692Q118 709 154 709Z" />
<glyph unicode="(" glyph-name="parenleft" horiz-adv-x="411" d="M387 810T421 777T452 692Q337 597 266 475T166 220Q186 131 225 80T343 -18Q344 -24 344 -35Q344 -73 320 -100T256 -127Q202 -127 153 -71T74 70T44 231Q44 309 83 418T187 633T328 807Q387
810 421 777Z" />
<glyph unicode=")" glyph-name="parenright" horiz-adv-x="376" d="M88 -131T76 -131Q25 -131 -6 -101T-37 -23Q72 79 136 205T222 465Q196 553 155 603T35 695Q32 707 32 719Q32 755 54 781T113 807Q169 807 223 750T311 607T345 444Q345 364 311 256T220 44T94
-130Q88 -131 76 -131Z" />
<glyph unicode="*" glyph-name="asterisk" horiz-adv-x="438" d="M439 664T446 652T453 626Q453 612 446 599T426 580L302 617L413 553Q415 543 415 539Q415 518 400 503T364 488Q356 488 348 491L284 601L315 474Q308 462 297 456T274 450Q258 450 245 458T225
482L259 601L190 487Q180 485 175 485Q153 485 138 499T123 533Q123 537 125 545L241 617L124 581Q110 587 103 599T96 625Q96 639 103 652T123 671L244 642L138 708Q135 716 135 723Q135 743 150 758T187 773Q195 773 204 770L264 659L243 780Q250 792 261 798T284
804Q300 804 313 796T333 772L290 657L363 762Q372 765 381 765Q400 765 413 751T426 718Q426 709 421 697L304 639L425 670Q439 664 446 652Z" />
<glyph unicode="+" glyph-name="plus" horiz-adv-x="449" d="M427 399T436 382T445 344Q445 323 437 304T414 270Q370 274 281 276Q277 221 277 155Q264 143 246 137T210 130Q186 130 167 140T137 171Q148 215 158 273L114 268Q76 264 56 261Q38 271 28 289T17
330Q17 371 50 400Q101 396 173 394L179 528Q207 555 243 555Q268 555 288 543T317 508Q307 442 295 398Q361 401 410 410Q427 399 436 382Z" />
<glyph unicode="," glyph-name="comma" horiz-adv-x="335" d="M120 2T94 2Q75 2 58 21T30 65T19 108Q19 125 39 142T89 171T147 183Q188 183 214 144T241 49Q241 -4 211 -54T119 -136Q65 -135 67 -79Q113 -47 156 8L147 19Q120 2 94 2Z" />
<glyph unicode="-" glyph-name="hyphen" horiz-adv-x="464" d="M60 269T49 288T37 331Q37 371 67 398Q127 398 187 401T306 409Q323 410 383 414Q402 403 411 385T421 344Q421 324 413 306T392 274Q270 272 80 259Q60 269 49 288Z" />
<glyph unicode="." glyph-name="period" horiz-adv-x="315" d="M81 0T63 18T32 63T19 109Q19 126 42 145T99 177T158 190Q175 190 192 173T219 131T230 89Q230 71 207 50T152 15T98 0Q81 0 63 18Z" />
<glyph unicode="/" glyph-name="slash" horiz-adv-x="380" d="M119 -91T90 -78T40 -46T19 -10Q19 4 33 50T65 153Q116 313 131 368Q143 411 174 538Q201 654 218 706T256 758Q276 758 303 741T350 702T370 663Q370 645 359 605T323 485Q291 384 269 306L228 153Q195
24 177 -33T141 -91Q119 -91 90 -78Z" />
<glyph unicode="0" glyph-name="zero" horiz-adv-x="548" d="M137 0T99 83T60 290Q60 378 79 462T132 604T212 668Q233 671 255 671Q326 671 397 638T513 557T558 469Q558 355 511 246T383 69T213 0Q137 0 99 83ZM303 159T357 256T422 465Q398 492 362 506T264
531Q203 413 203 265Q203 192 218 123Q303 159 357 256Z" />
<glyph unicode="1" glyph-name="one" horiz-adv-x="393" d="M208 470Q178 440 158 424T126 407Q111 407 90 425T52 469T36 513Q36 532 83 569T188 637T268 668Q291 668 322 651T375 610T397 565Q397 542 372 453Q344 351 335 298Q327 255 316 149Q308 70 301 35T281
0Q256 0 224 15T169 51T146 88Q146 109 160 184T197 342T246 480L230 491L208 470Z" />
<glyph unicode="2" glyph-name="two" horiz-adv-x="543" d="M118 0T88 26T37 88T16 152Q16 174 46 201T142 275Q211 325 253 360T333 440T384 534Q329 529 280 506T180 444Q141 452 119 477T96 532Q96 568 133 599T231 649T357 668Q393 668 430 644T492 586T517
525Q517 429 415 326T162 134L170 121Q215 130 296 150Q424 181 450 181Q479 181 494 160T509 107Q509 74 495 49L466 44Q355 24 277 12T146 0Q118 0 88 26Z" />
<glyph unicode="3" glyph-name="three" horiz-adv-x="560" d="M163 0T117 17T40 61T10 113Q10 146 43 167T134 189Q158 189 171 187Q181 139 202 97Q270 115 311 145T378 231Q348 240 313 240Q287 240 251 234Q244 233 236 232T220 231Q210 231 206 233Q184 244
167 273T149 331Q149 346 167 357T225 385Q294 413 340 445T409 534Q353 529 303 506T203 444Q164 452 142 477T119 532Q119 568 156 599T254 649T380 668Q416 668 453 644T515 586T540 525Q540 467 483 416T325 333L329 322Q385 324 432 309T508 270T536 225Q536
170 486 118T358 33T208 0Q163 0 117 17Z" />
<glyph unicode="4" glyph-name="four" horiz-adv-x="548" d="M410 0T382 15T333 49T311 82Q311 96 322 136L332 176Q301 170 260 165T186 159Q154 159 136 165Q116 172 94 196T57 250T42 303Q42 333 100 424T229 592T338 668Q387 668 411 637T431 557Q350 501
291 438T169 284Q266 284 355 296Q358 306 360 322T364 346Q369 381 374 400T388 420Q407 420 436 407T487 376T509 342Q509 311 496 225T465 69T429 0Q410 0 382 15Z" />
<glyph unicode="5" glyph-name="five" horiz-adv-x="540" d="M242 417T266 403T346 364Q428 328 473 299T518 231Q518 183 469 129T347 37T213 0Q169 0 122 21T45 73T14 131Q14 169 43 197T120 225Q142 225 171 217Q182 153 204 115Q257 136 298 169T351 241Q331
253 286 273Q232 297 194 317T127 362Q112 374 105 396T97 442Q97 463 110 514T143 607T184 648Q362 648 499 668Q518 657 527 638T537 595Q537 575 529 555T508 522Q365 520 264 511Q242 464 242 431Q242 417 266 403Z" />
<glyph unicode="6" glyph-name="six" horiz-adv-x="544" d="M243 362T280 375T357 388Q395 388 432 360T493 288T517 205Q517 160 480 112T383 32T260 0Q194 0 143 32T65 115T37 220Q37 295 72 382T172 545T317 668Q368 668 394 645T421 579Q421 564 418 546Q351
507 298 460T189 343L200 333Q243 362 280 375ZM361 260T325 260Q273 260 229 231T171 158Q200 136 244 136Q278 136 310 149T365 188T390 246Q361 260 325 260Z" />
<glyph unicode="7" glyph-name="seven" horiz-adv-x="491" d="M322 531T221 519Q147 510 116 510Q98 510 91 513Q76 518 65 548T54 610Q54 629 59 643T75 662Q84 666 113 666Q143 666 179 663Q193 662 213 661T259 660Q310 660 364 666Q390 669 404 669Q412 669
415 668Q435 664 455 641T488 590T502 542Q502 523 484 487T427 381Q388 314 369 275Q349 233 307 134Q279 64 262 32T226 0Q207 0 180 20T133 66T113 108Q113 118 146 173T257 358Q341 493 362 530Q322 531 221 519Z" />
<glyph unicode="8" glyph-name="eight" horiz-adv-x="591" d="M590 493T530 435T397 333Q462 299 503 267T545 208Q545 161 493 113T358 32T190 0Q160 0 123 24T59 82T32 138Q32 182 81 236T219 341Q208 348 145 395L87 438Q77 445 72 463T66 502Q66 539 79 563Q91
588 145 612T279 652T441 668Q473 668 508 646T566 591T590 533Q590 493 530 435ZM348 417T386 462T446 557Q364 542 306 525T193 479Q263 428 308 391Q348 417 386 462ZM382 225T364 245T326 280Q221 197 173 107Q328 128 393 208Q382 225 364 245Z" />
<glyph unicode="9" glyph-name="nine" horiz-adv-x="545" d="M264 273T193 273Q158 273 126 295T72 350T51 408Q51 468 91 529T196 629T333 668Q392 668 439 638T512 560T539 460Q539 386 494 296T374 126T214 0Q168 -1 139 22T110 82Q110 101 119 122Q204 170
249 206T364 314L349 329Q264 273 193 273ZM194 386T213 386Q260 386 304 403T380 456T416 545Q399 548 384 548Q313 548 257 507T174 389Q194 386 213 386Z" />
<glyph unicode=":" glyph-name="colon" horiz-adv-x="326" d="M139 347T121 365T90 410T77 456Q77 473 100 492T157 524T216 537Q233 537 250 520T277 478T288 436Q288 418 265 397T210 362T156 347Q139 347 121 365ZM92 0T74 18T43 63T30 109Q30 126 53 145T110
177T169 190Q186 190 203 173T230 131T241 89Q241 71 218 50T163 15T109 0Q92 0 74 18Z" />
<glyph unicode=";" glyph-name="semicolon" horiz-adv-x="326" d="M139 347T121 365T90 410T77 456Q77 473 100 492T157 524T216 537Q233 537 250 520T277 478T288 436Q288 418 265 397T210 362T156 347Q139 347 121 365ZM131 2T105 2Q86 2 69 21T41 65T30 108Q30
125 50 142T100 171T158 183Q199 183 225 144T252 49Q252 -4 222 -54T130 -136Q76 -135 78 -79Q124 -47 167 8L158 19Q131 2 105 2Z" />
<glyph unicode="&lt;" glyph-name="less" horiz-adv-x="462" d="M29 313Q27 325 27 332Q27 369 47 395L377 607Q417 600 439 576T462 519Q462 496 448 471L143 330L404 212Q419 188 419 165Q419 131 392 108T322 84L29 313Z" />
<glyph unicode="=" glyph-name="equal" horiz-adv-x="460" d="M51 335T40 354T28 397Q28 437 58 464Q209 465 409 480Q428 469 437 451T447 410Q447 390 439 372T418 340Q248 337 71 325Q51 335 40 354ZM38 136T27 155T15 198Q15 238 45 265Q196 266 396 281Q415
270 424 252T434 211Q434 191 426 173T405 141Q235 138 58 126Q38 136 27 155Z" />
<glyph unicode="&gt;" glyph-name="greater" horiz-adv-x="472" d="M81 82T56 108T31 173Q31 195 40 217L336 343L75 476Q59 499 59 524Q59 557 86 582T155 611L456 385Q461 375 461 358Q461 329 447 303L124 78Q81 82 56 108Z" />
<glyph unicode="?" glyph-name="question" horiz-adv-x="549" d="M533 648T511 612T456 550T372 489Q320 454 293 431T254 380Q288 379 311 386T375 413Q393 399 403 378T414 339Q414 304 378 281T275 258Q243 258 211 283T157 344T135 409Q135 446 168 478T269
554Q332 596 364 625T406 688Q390 690 382 690Q333 690 281 669T187 619Q153 626 132 652T110 710Q110 741 150 768T251 812T367 829Q407 829 445 806T508 751T533 693Q533 648 511 612ZM296 190T313 173T340 131T351 89Q351 71 328 50T273 15T219 0Q202 0 184
18T153 63T140 109Q140 126 163 145T220 177T279 190Q296 190 313 173Z" />
<glyph unicode="@" glyph-name="at" horiz-adv-x="1039" d="M389 -87T423 -76T502 -44Q532 -56 553 -84T575 -142Q575 -188 526 -211T384 -235Q293 -235 211 -174T78 -18T26 171Q26 310 98 438T310 646T642 726Q740 726 824 677T959 551T1010 395Q1010 298 968
206T856 57T711 0Q690 0 661 15T611 51T589 83Q589 91 598 109T614 140T626 160L603 172Q555 95 510 48T421 0Q392 0 359 25T304 85T281 149Q281 229 315 312T410 449T550 504Q577 504 606 480T643 431Q648 450 656 465T675 480Q699 480 728 464T777 425T798 391Q797
373 782 327T738 206Q718 154 710 131Q786 160 829 224T872 367Q872 425 847 481T772 584Q697 603 625 603Q493 603 390 544T229 388T171 179Q173 94 212 22T332 -101Q389 -87 423 -76ZM501 170T556 235T632 380Q605 391 585 391Q520 391 478 313T426 124Q501 170
556 235Z" />
<glyph unicode="A" glyph-name="A" horiz-adv-x="556" d="M489 249Q490 233 496 169T503 61Q503 5 490 1Q486 0 477 0Q455 0 423 10T365 37T335 68Q331 83 331 194Q223 181 189 178Q162 99 127 5Q100 -1 77 -1Q37 -1 10 18T-27 78L-7 123Q103 368 183 534T288
700Q307 700 343 686T409 652T443 616Q450 588 462 499T481 327L489 249ZM284 440T241 321Q287 324 332 330Q332 468 328 544Q284 440 241 321Z" />
<glyph unicode="B" glyph-name="B" horiz-adv-x="604" d="M484 308T520 275T556 197Q556 148 511 101T386 25T211 -5Q182 -5 145 18T81 71T54 123Q54 142 97 343Q129 493 139 550L104 545Q71 580 71 624Q71 656 89 685Q176 705 236 705Q327 705 405 676T529 599T575
496Q575 441 534 393T416 319Q484 308 520 275ZM339 379T384 410T430 484Q430 513 399 533T316 554Q295 554 283 552Q276 507 273 490Q263 419 253 367Q339 379 384 410ZM293 122T338 150T384 219Q384 242 367 258T313 278Q282 280 246 274L240 252Q214 164 202
116Q293 122 338 150Z" />
<glyph unicode="C" glyph-name="C" horiz-adv-x="547" d="M463 76T418 52T319 12T219 -5Q184 -5 136 27T54 105T19 185Q20 292 55 415T162 624T335 710Q388 710 433 680T505 606T531 523Q532 482 503 461T430 439Q398 439 366 451Q367 469 367 502Q367 539 361
557T338 575Q304 575 269 505T209 333T182 146Q248 158 303 185T401 249Q446 238 470 209T495 143Q495 121 484 97Q463 76 418 52Z" />
<glyph unicode="D" glyph-name="D" horiz-adv-x="597" d="M250 700T353 650T516 525T576 366Q576 293 512 205T357 56T190 -5Q165 -5 127 20T59 77T30 129Q30 146 50 224Q70 305 83 370Q88 395 105 458Q107 467 115 494T127 545L86 547Q70 579 70 611Q70 641 85
666T129 710Q250 700 353 650ZM290 178T356 253T423 394Q423 433 377 469T270 517Q258 456 234 342Q204 200 190 126Q290 178 356 253Z" />
<glyph unicode="E" glyph-name="E" horiz-adv-x="553" d="M532 689T541 670T551 627Q551 607 543 587T522 554Q393 552 307 544Q290 483 275 408Q375 416 444 432Q464 420 474 401T485 358Q485 337 477 319T453 289Q434 287 416 286T381 284L252 275L234 185L224
137Q285 143 334 153T439 183Q467 170 482 147T498 95Q498 55 467 24Q405 12 328 6T185 0Q167 0 138 18T87 60T64 101Q64 116 87 217Q104 291 120 371Q131 426 131 426Q147 504 152 539L110 536Q91 546 80 565T68 608Q68 648 99 679Q236 681 337 685T513 700Q532
689 541 670Z" />
<glyph unicode="F" glyph-name="F" horiz-adv-x="517" d="M532 689T541 670T551 627Q551 607 543 587T522 554Q408 552 307 544Q302 523 286 451Q284 442 273 388Q380 397 442 412Q462 400 472 381T483 338Q483 317 475 299T451 269Q432 267 414 266T378 264L253
255Q245 204 237 134Q228 59 221 30T198 0Q173 0 142 17T88 58T65 97Q65 112 75 163T99 273Q144 467 152 539L110 536Q91 546 80 565T68 608Q68 648 99 679Q236 681 337 685T513 700Q532 689 541 670Z" />
<glyph unicode="G" glyph-name="G" horiz-adv-x="561" d="M299 36T253 17T181 -3Q150 -3 110 32T42 117T16 205Q23 312 65 430T181 629T351 710Q402 710 442 684T505 615T528 526Q528 492 504 472T443 452Q412 452 376 467Q378 491 378 499Q378 537 368 556T338
575Q306 575 265 506T194 333T159 136Q257 137 380 184L384 230Q364 228 351 228Q320 228 297 234T270 252Q266 261 266 279Q266 303 272 329T287 364Q301 380 321 385T382 390Q458 390 488 357T519 258Q519 209 501 126T457 -21T407 -84Q387 -84 363 -75T321 -53T304
-28Q305 -12 315 10T338 49L328 59Q299 36 253 17Z" />
<glyph unicode="H" glyph-name="H" horiz-adv-x="619" d="M506 700T538 683T595 643T620 603Q620 594 601 523Q566 397 549 303Q539 244 528 148Q518 66 511 33T487 0Q464 0 433 16T378 56T354 94Q353 108 360 147T378 235L387 278Q295 264 206 258Q196 191 192
146Q182 65 175 33T151 0Q128 0 97 16T42 56T18 94Q17 110 27 161T41 228Q45 248 56 301T74 401L82 448Q101 560 117 630T151 700Q170 700 202 683T259 643T284 603Q284 594 265 523Q261 507 251 469T233 398Q326 405 413 417Q415 431 417 439Q435 550 452 625T487
700Q506 700 538 683Z" />
<glyph unicode="I" glyph-name="I" horiz-adv-x="283" d="M128 0T97 16T42 56T18 94Q17 110 27 161T41 228Q45 248 56 301T74 401L82 448Q101 560 117 630T151 700Q170 700 202 683T259 643T284 603Q284 594 265 523Q230 397 213 303Q203 244 192 148Q182 66 175
33T151 0Q128 0 97 16Z" />
<glyph unicode="J" glyph-name="J" horiz-adv-x="500" d="M400 700T428 682T478 640T500 602Q499 576 466 443L445 353L435 302Q417 211 406 160T384 92Q372 71 340 50T269 14T194 0Q158 0 110 30T27 109T-8 207Q-8 254 23 281T96 309Q133 309 157 289Q156 279
156 260Q156 224 163 192T182 140T206 121Q231 121 254 187T296 353Q303 391 313 438Q330 518 334 554Q290 548 263 546Q252 545 217 542T154 532Q132 542 120 563T107 611Q107 645 127 672Q186 687 256 693T384 700Q400 700 428 682Z" />
<glyph unicode="K" glyph-name="K" horiz-adv-x="577" d="M502 691T534 667T567 599Q567 582 563 567Q431 415 267 325Q323 271 394 225T532 153Q535 137 535 121Q535 74 508 41T429 0Q356 43 304 99T198 241Q189 113 180 57T151 0Q128 0 97 16T42 56T18 94Q17
110 27 161T41 228Q45 248 56 301T74 401L82 448Q101 560 117 630T151 700Q170 700 202 683T259 643T284 603Q284 592 266 534T232 434Q292 485 338 543T446 689Q502 691 534 667Z" />
<glyph unicode="L" glyph-name="L" horiz-adv-x="498" d="M433 174T448 150T464 98Q464 57 433 26Q371 13 300 6T172 -1Q148 -1 137 0Q119 1 91 19T40 60T18 101Q18 119 40 214Q61 303 79 401L87 445Q107 558 124 629T160 700Q179 700 211 683T267 643T292 603Q292
593 282 555T269 507Q236 390 217 303Q204 241 178 137Q295 149 405 187Q433 174 448 150Z" />
<glyph unicode="M" glyph-name="M" horiz-adv-x="709" d="M128 0T97 16T42 56T18 94Q17 110 27 161T41 228Q45 248 56 301T74 401L82 448Q101 560 117 630T151 700Q168 700 197 686T253 651T288 610Q304 574 330 456Q348 374 357 343Q400 408 467 542Q510 627
532 663T573 700Q592 700 624 683T681 643T706 603Q706 589 694 525T679 444L653 303Q643 244 632 148Q622 66 615 33T591 0Q568 0 537 16T482 56T458 94Q457 107 465 149T485 246Q494 289 495 295L531 406L517 411L507 391Q468 311 445 267T406 203Q396 191 370
184T319 176Q293 176 284 185Q275 193 269 218T251 298Q249 309 240 351T220 429L213 303Q203 244 192 148Q182 66 175 33T151 0Q128 0 97 16Z" />
<glyph unicode="N" glyph-name="N" horiz-adv-x="619" d="M506 700T538 683T595 643T620 603Q620 594 601 523Q566 397 549 303Q539 244 528 148Q518 66 511 33T487 0Q458 0 420 24T353 85Q338 105 311 163T259 293T220 429L213 303Q203 244 192 148Q182 66 175
33T151 0Q128 0 97 16T42 56T18 94Q17 110 27 161T41 228Q45 248 56 301T74 401L82 448Q101 560 117 630T151 700Q168 700 197 686T251 650T283 610Q330 484 398 270L410 401L418 448Q437 560 453 630T487 700Q506 700 538 683Z" />
<glyph unicode="O" glyph-name="O" horiz-adv-x="571" d="M354 710T419 675T524 583T564 463Q564 366 512 256T381 70T224 -5Q184 -5 135 28T50 108T15 191Q15 248 49 387T112 593Q145 603 174 603Q194 603 206 599Q204 636 224 667T281 710Q354 710 419 675ZM274
167T339 266T431 485Q403 505 359 518T263 532Q265 522 267 502Q175 330 178 132Q274 167 339 266Z" />
<glyph unicode="P" glyph-name="P" horiz-adv-x="582" d="M162 0T131 17T76 57T52 95Q52 121 101 360Q107 388 120 455T139 553L102 547Q71 576 71 620Q71 651 88 684Q169 705 252 705Q340 705 415 682T538 612T585 493Q585 430 544 374T423 280T237 235Q230 187
226 148Q217 72 209 36T185 0Q162 0 131 17ZM339 376T386 411T434 491Q434 521 405 541T325 562Q307 562 286 559L270 465Q256 386 252 359Q339 376 386 411Z" />
<glyph unicode="Q" glyph-name="Q" horiz-adv-x="589" d="M607 14T600 -58Q597 -86 565 -112T484 -154T381 -171L359 -170Q313 -167 280 -117T228 0Q183 11 135 43T55 114T19 186Q15 241 43 381T97 593Q121 600 138 602T181 603Q181 641 199 669T253 710Q337 711
409 673T524 576T568 456Q570 341 514 226T340 28L357 -15Q424 -1 521 58Q607 14 600 -58ZM399 505T355 518T258 532Q263 519 264 502Q195 352 178 222Q209 223 235 203T271 151Q339 217 380 308T429 485Q399 505 355 518Z" />
<glyph unicode="R" glyph-name="R" horiz-adv-x="605" d="M379 35T324 96T235 235L231 193Q221 96 212 48T185 0Q162 0 131 17T76 57T52 95Q52 121 101 360Q107 388 120 455T139 553L102 547Q71 576 71 620Q71 651 88 684Q169 705 252 705Q340 705 415 682T538
612T585 493Q585 410 520 351T329 271Q379 224 429 196T557 141Q561 125 561 106Q561 60 533 30T450 -6Q379 35 324 96ZM333 376T383 410T434 491Q434 521 405 541T325 562Q307 562 286 559Q270 467 271 471Q262 422 254 368Q333 376 383 410Z" />
<glyph unicode="S" glyph-name="S" horiz-adv-x="494" d="M330 501T330 531Q330 552 327 564T318 576Q303 576 284 551T251 492T237 430Q237 396 270 362T369 277Q418 241 442 218T467 175Q468 133 423 93T311 26T185 0Q140 0 92 22T12 75T-21 129Q-23 173 8 200T91
228Q117 228 144 221Q156 155 165 126Q224 141 293 178Q70 347 70 442Q70 488 104 552T194 663T312 710Q358 710 401 679T471 603T498 519Q498 481 468 459T392 436Q357 436 322 451Q330 501 330 531Z" />
<glyph unicode="T" glyph-name="T" horiz-adv-x="567" d="M592 689T601 670T611 627Q611 607 603 587T582 554Q567 555 537 555Q518 555 468 553L415 552Q420 581 391 417L371 303Q361 244 350 148Q340 66 333 33T309 0Q286 0 255 16T200 56T176 94Q175 117 200
230Q219 325 227 371Q227 369 243 454Q257 530 260 547L104 528Q85 538 74 557T62 600Q62 640 93 671Q150 679 235 681T337 685Q442 688 490 690T573 700Q592 689 601 670Z" />
<glyph unicode="U" glyph-name="U" horiz-adv-x="587" d="M577 600T577 532Q577 383 529 260T404 66T247 -5Q207 -5 155 24T64 95T26 169Q26 239 50 394T107 663Q140 679 176 679Q214 679 242 659T280 601Q251 534 224 412T196 213Q196 138 225 138Q268 138 309
193T376 337T402 517Q402 585 386 645Q436 700 492 700Q531 700 565 673Q577 600 577 532Z" />
<glyph unicode="V" glyph-name="V" horiz-adv-x="566" d="M256 0T220 16T154 55T119 94Q114 116 101 278Q97 343 94 373Q92 399 90 412Q77 546 77 606Q77 673 92 677Q96 678 105 678Q127 678 159 668T217 641T246 610Q248 604 248 565Q248 510 245 430Q241 300
241 229V193Q326 379 431 692Q461 702 492 702Q533 702 561 680T599 613Q318 0 275 0Q256 0 220 16Z" />
<glyph unicode="W" glyph-name="W" horiz-adv-x="716" d="M482 0T445 13T379 45T346 78Q343 88 340 133T335 195L331 253Q276 145 228 73T151 0Q128 0 97 16T42 56T18 94Q18 112 41 225Q66 353 74 401L82 448Q101 560 117 630T151 700Q170 700 202 683T259 643T284
603Q284 581 271 536T232 409Q191 287 173 216L189 210L229 271Q276 343 302 376T351 409Q443 409 472 151Q525 209 548 303T571 503Q535 521 503 528T433 535Q409 576 409 613Q409 644 428 667T486 700Q592 683 651 625T710 480Q710 412 683 295T611 89T512 0Q482
0 445 13Z" />
<glyph unicode="X" glyph-name="X" horiz-adv-x="593" d="M68 -1T29 32T-10 116Q-10 129 -7 142Q98 220 203 328Q141 408 100 481T59 588Q59 605 79 625T126 660T174 674Q191 674 205 641T243 533Q271 447 281 421Q386 566 439 694Q466 701 492 701Q543 701 572
671T606 585Q499 457 361 299Q405 248 454 206T552 135Q555 78 521 39T426 0Q382 40 347 84T276 192Q256 164 203 93L134 0Q68 -1 29 32Z" />
<glyph unicode="Y" glyph-name="Y" horiz-adv-x="573" d="M548 502Q538 489 471 403T330 231L319 140Q311 63 304 32T280 0Q257 0 226 16T171 56T147 94Q146 112 153 145T180 257L187 284Q180 300 134 394Q96 469 77 513T58 582Q58 599 80 622T134 661T191 678Q210
678 221 645T249 528Q265 441 281 382Q376 544 441 689Q474 698 500 698Q552 698 580 667T611 583L548 502Z" />
<glyph unicode="Z" glyph-name="Z" horiz-adv-x="539" d="M476 675T493 650T521 596T532 548Q532 541 531 538Q516 497 403 368T180 135Q301 158 444 179Q467 169 480 144T493 88Q493 40 464 10Q284 1 189 1Q78 1 65 11Q43 30 22 74T1 147Q1 153 3 159Q8 175 59
228T209 381Q335 507 373 549L258 539L119 526Q98 537 86 561T74 612Q74 634 83 655T111 691Q145 692 234 692Q438 692 459 682Q476 675 493 650Z" />
<glyph unicode="[" glyph-name="bracketleft" horiz-adv-x="527" d="M258 14T307 24T412 54Q440 41 455 18T471 -34Q471 -74 440 -105Q378 -117 301 -123T158 -129Q140 -129 111 -111T60 -69T37 -28Q37 -18 51 54T82 205Q93 262 101 303T115 371Q129 444 147 541T177
705Q182 735 211 758T271 782Q345 784 394 787T526 799Q545 788 554 769T564 726Q564 706 556 686T535 653Q406 651 320 643L309 592Q259 348 264 371Q236 226 197 8Q258 14 307 24Z" />
<glyph unicode="\" glyph-name="backslash" horiz-adv-x="505" d="M294 -91T276 -34T224 153L183 306Q161 384 129 485Q104 565 93 605T82 663Q82 679 102 701T149 741T196 758Q216 758 233 706T278 538Q309 411 321 368Q336 313 387 153Q405 96 419 50T433 -10Q433
-27 412 -46T362 -78T311 -91Q294 -91 276 -34Z" />
<glyph unicode="]" glyph-name="bracketright" horiz-adv-x="521" d="M299 440T307 498T321 598L327 643Q261 649 105 653Q90 665 82 683T73 721Q73 745 85 766T122 800Q175 796 191 795Q307 785 392 782Q412 782 433 763T469 717T484 667L483 658Q472 585 437
371Q426 303 418 242Q379 -31 371 -55Q366 -68 347 -85T303 -116T262 -129Q112 -129 2 -117Q-17 -106 -26 -88T-36 -47Q-36 -20 -23 4T13 40Q71 28 117 22T229 8L233 34Q273 270 288 371Q299 440 307 498Z" />
<glyph unicode="^" glyph-name="asciicircum" horiz-adv-x="514" d="M515 482Q509 463 491 452T444 440Q430 440 413 443L344 677Q319 627 295 573Q244 467 232 443Q206 437 180 437Q140 437 109 451T63 494L230 763Q276 774 306 774Q355 774 397 750L515 482Z" />
<glyph unicode="_" glyph-name="underscore" horiz-adv-x="587" d="M-10 -138T-20 -119T-31 -77Q-31 -37 1 -9Q33 -10 100 -10Q281 -10 460 1Q477 -10 486 -28T495 -67Q495 -87 487 -106T463 -139L249 -143Q87 -147 9 -148Q-10 -138 -20 -119Z" />
<glyph unicode="`" glyph-name="grave" horiz-adv-x="277" d="M309 615T291 603T247 591Q234 591 219 594Q189 628 154 677T98 762Q110 801 139 822T205 844Q241 844 275 825L278 778Q279 754 283 706L314 637Q309 615 291 603Z" />
<glyph unicode="a" glyph-name="a" horiz-adv-x="700" d="M539 177T581 211Q625 196 646 170T668 109Q668 85 634 60T553 17T473 0Q450 0 421 17T370 57T348 93Q348 103 356 120T375 155T388 179L363 193Q310 106 262 53T166 0Q134 0 99 28T39 96T14 167Q14 256
51 349T154 503T305 564Q335 564 366 537T406 482Q411 504 420 520T441 537Q467 537 498 519T552 476T574 437Q573 418 559 374T512 240Q493 191 478 147Q539 177 581 211ZM252 189T312 262T394 425Q367 437 343 437Q296 437 259 395T200 285T171 139Q252 189 312
262Z" />
<glyph unicode="b" glyph-name="b" horiz-adv-x="550" d="M386 529T430 509T499 454T525 375Q525 299 480 211T360 61T199 0Q155 0 112 30T41 101T13 170Q13 236 57 389Q76 452 92 563T109 725Q110 746 123 760T156 775Q183 775 216 755T273 707T297 660Q296 612
252 498L331 530Q386 529 430 509ZM235 126T272 168T334 268T359 368Q359 379 341 391T299 411T255 420Q244 420 237 416Q221 407 206 370T182 283T172 194Q172 163 178 145T199 126Q235 126 272 168Z" />
<glyph unicode="c" glyph-name="c" horiz-adv-x="516" d="M271 136T351 229Q400 220 429 192T459 121Q459 90 424 62T335 17T233 0Q185 0 133 31T47 109T13 196Q13 275 49 361T151 506T297 564Q347 564 392 546T464 498T491 436Q491 405 464 381T393 356Q379 356
364 359Q339 420 309 445Q243 402 209 325T175 168Q175 156 177 132Q271 136 351 229Z" />
<glyph unicode="d" glyph-name="d" horiz-adv-x="700" d="M625 196T646 170T668 109Q668 85 634 60T553 17T473 0Q450 0 421 17T370 57T348 93Q348 103 356 120T375 155T388 179L363 193Q310 107 263 54T172 0Q140 0 103 28T40 96T14 167Q14 260 53 352T156 504T293
564Q322 564 352 549T410 508Q419 605 419 725Q419 746 432 760T465 775Q493 775 527 755T586 708T610 663Q610 640 600 605T564 490Q528 383 519 343Q492 234 478 147Q539 177 581 211Q625 196 646 170ZM239 190T295 248T389 384L398 423Q367 437 343 437Q296
437 259 395T200 285T171 139Q239 190 295 248Z" />
<glyph unicode="e" glyph-name="e" horiz-adv-x="520" d="M185 0T133 31T47 109T13 196Q13 269 47 356T143 503T281 564Q336 564 380 540T450 480T475 410Q475 368 437 328T331 257T176 213Q175 201 175 177Q175 147 177 132Q227 137 276 159T383 221Q422 209
442 183T462 121Q462 91 426 63T335 17T233 0Q185 0 133 31ZM252 310T293 344T334 402Q334 430 295 440Q257 412 231 373T191 288Q252 310 293 344Z" />
<glyph unicode="f" glyph-name="f" horiz-adv-x="449" d="M160 0T127 15T72 51T49 88Q49 106 61 142T98 240L124 309L49 297Q32 306 22 324T12 363Q12 382 19 399T42 429Q66 428 117 430L150 431Q134 553 134 617Q134 662 141 686Q147 704 172 725T231 760T295
775Q347 775 391 754T462 698T488 628Q488 590 461 567T391 543Q375 543 352 548Q341 620 300 655Q284 593 276 548T266 441Q318 448 399 467Q417 454 426 436T436 396Q436 364 413 333Q393 331 353 329L251 321Q245 275 243 246Q230 122 219 61T187 0Q160 0 127
15Z" />
<glyph unicode="g" glyph-name="g" horiz-adv-x="547" d="M290 110T229 75T127 40Q104 40 77 57T30 100T11 148Q11 231 44 329T135 496T262 564Q289 564 315 540T356 485Q360 509 369 523T389 537Q404 537 435 518T491 474T516 438Q516 400 487 235T423 -86T373
-267Q350 -303 302 -330T207 -357Q164 -357 120 -331T48 -267T20 -198Q20 -162 62 -114T166 -19T322 96Q339 109 373 133L351 158Q290 110 229 75ZM262 437T232 393T180 282T152 151Q246 190 302 260T363 404Q351 417 333 427T297 437Q262 437 232 393ZM169 -136T169
-193Q169 -213 186 -227T231 -251Q261 -216 286 -156T339 -3Q169 -136 169 -193Z" />
<glyph unicode="h" glyph-name="h" horiz-adv-x="647" d="M191 132T179 66T146 0Q121 0 88 17T32 57T8 98Q8 110 16 139T35 205Q74 333 96 434Q108 490 117 550Q131 630 141 673T166 745T205 775Q222 775 255 755T315 708T341 664Q341 649 331 631T296 578Q291
571 278 550T258 515Q246 486 232 441T207 353L225 343Q290 431 338 484T414 537Q433 537 460 518T507 475T527 437Q526 419 516 386T483 292Q455 220 433 151Q464 163 485 175T534 208Q576 190 595 163T613 97Q613 73 577 51T493 15T417 0Q394 0 364 18T312 59T291
96Q291 104 301 134T314 176Q333 236 342 271T352 324Q352 336 347 336Q325 336 281 298T194 210Q191 132 179 66Z" />
<glyph unicode="i" glyph-name="i" horiz-adv-x="385" d="M202 593T176 608T130 645T111 684Q111 711 125 738T160 777Q170 782 192 782Q228 782 264 766T309 726Q311 721 311 711Q311 688 297 660T262 613T221 593Q202 593 176 608ZM127 0T95 17T39 58T15 98Q15
116 28 151T67 247Q87 294 97 320T107 358Q107 366 98 375T69 399Q47 416 37 426T26 447Q26 468 45 496T91 544T137 564Q160 564 187 544T234 497T254 452Q254 408 232 327T174 151Q198 162 216 174T266 211Q311 196 332 169T353 109Q353 83 320 58T238 17T153
0Q127 0 95 17Z" />
<glyph unicode="j" glyph-name="j" horiz-adv-x="311" d="M188 593T162 608T116 645T97 684Q97 711 111 738T146 777Q156 782 178 782Q214 782 250 766T295 726Q297 721 297 711Q297 688 283 660T248 613T207 593Q188 593 162 608ZM-55 -269T-105 -246T-189 -188T-223
-117Q-223 -80 -194 -56T-124 -31Q-107 -31 -92 -35Q-65 -105 -51 -132T-15 -159Q8 -159 28 -85T67 110Q71 138 88 234Q108 340 107 361Q107 369 99 377T72 401Q52 416 42 426T31 448Q31 469 49 497T93 544T142 564Q163 564 192 545T244 500T267 460Q268 443 245
338Q241 320 228 258T206 138Q196 79 184 -17Q174 -92 168 -128T153 -181Q136 -212 84 -240T-8 -269Q-55 -269 -105 -246Z" />
<glyph unicode="k" glyph-name="k" horiz-adv-x="602" d="M298 440T341 488T417 537Q440 537 464 515T505 463T521 411Q521 354 477 298T364 196Q384 177 398 167T428 151Q459 161 506 187Q536 169 552 145T568 97Q568 55 530 28T435 0Q388 0 349 27T284 101T249
202L268 233Q323 255 351 284T380 336Q380 346 375 351T360 357Q338 357 306 328T217 236Q216 235 194 210Q191 132 179 66T146 0Q121 0 88 17T32 57T8 98Q8 110 16 139T35 205Q74 333 96 434Q108 490 117 550Q131 630 141 673T166 745T205 775Q222 775 255 755T315
708T341 664Q341 649 331 631T296 578Q291 571 278 550T258 515Q246 486 232 441T207 353L225 343Q298 440 341 488Z" />
<glyph unicode="l" glyph-name="l" horiz-adv-x="385" d="M129 0T94 17T33 58T8 99Q8 116 22 183T40 269Q70 407 80 460L90 516Q111 632 128 703T164 774Q185 774 219 756T280 714T306 672Q306 648 298 626T272 567Q256 536 250 519Q231 460 210 355T174 152Q206
168 224 179T266 211Q310 196 331 170T353 109Q353 85 319 60T238 17T158 0Q129 0 94 17Z" />
<glyph unicode="m" glyph-name="m" horiz-adv-x="944" d="M313 440T356 488T426 537Q445 537 470 521T514 485T532 452Q531 427 525 398T508 327Q591 433 638 485T713 537Q732 537 759 518T805 475T825 437Q824 420 811 379T774 270Q742 182 733 151Q765 168 782
179T824 211Q868 196 890 170T912 109Q912 85 878 60T796 17T716 0Q694 0 664 18T612 59T590 96Q590 104 600 134T613 176Q632 236 641 271T651 324Q651 336 646 336Q604 336 497 196Q489 167 482 123Q470 59 461 30T437 0Q416 0 385 18T331 59T308 98Q308 108
330 176Q348 233 358 269T368 324Q368 336 362 336Q322 336 213 196Q209 180 205 156T198 122Q187 63 178 32T153 0Q127 0 95 17T39 58T15 98Q15 116 28 151T67 247Q87 294 97 320T107 358Q107 366 98 375T69 399Q47 416 37 426T26 447Q26 468 45 496T91 544T137
564Q158 564 185 545T233 502T254 464Q254 440 249 405T234 336Q313 440 356 488Z" />
<glyph unicode="n" glyph-name="n" horiz-adv-x="660" d="M585 196T606 170T628 109Q628 85 594 60T513 17T433 0Q410 0 380 18T329 59T307 96Q307 106 329 174Q368 293 368 324Q368 336 362 336Q322 336 213 196Q209 180 205 156T198 122Q187 63 178 32T153 0Q127
0 95 17T39 58T15 98Q15 116 28 151T67 247Q87 294 97 320T107 358Q107 366 98 375T69 399Q47 416 37 426T26 447Q26 468 45 496T91 544T137 564Q158 564 185 545T233 502T254 464Q254 440 249 405T234 336Q307 432 355 484T430 537Q449 537 476 518T522 475T542
437Q541 420 528 379T491 270Q459 182 450 151Q481 167 498 178T541 211Q585 196 606 170Z" />
<glyph unicode="o" glyph-name="o" horiz-adv-x="511" d="M307 557T365 523T457 440T490 344Q490 272 453 191T350 55T203 0Q163 0 118 29T43 101T12 177Q12 238 27 302T73 428Q102 444 131 444Q144 444 155 441Q151 453 151 469Q151 501 173 527T236 565Q307
557 365 523ZM250 142T296 210T357 372Q312 404 235 404Q216 404 206 403Q217 383 217 358Q191 317 177 268T163 168Q163 138 167 114Q250 142 296 210Z" />
<glyph unicode="p" glyph-name="p" horiz-adv-x="582" d="M426 547T467 522T530 454T553 356Q553 276 508 193T389 55T236 0Q202 0 168 27Q156 -23 150 -75T142 -137Q134 -205 127 -235T103 -265Q77 -265 46 -248T-8 -208T-31 -167Q-31 -148 -14 -83T38 105Q69
215 86 278T103 358Q103 366 95 374T67 399Q46 416 36 426T26 447Q26 468 45 496T91 544T137 564Q166 564 203 532T256 468L295 534Q334 547 373 547Q426 547 467 522ZM268 128T306 161T370 244T396 339Q396 372 380 390T334 408Q299 408 271 369T226 272T209 167Q209
148 216 138T236 128Q268 128 306 161Z" />
<glyph unicode="q" glyph-name="q" horiz-adv-x="610" d="M403 -244T370 -227T313 -187T289 -146Q289 -132 323 -4Q346 82 348 93Q351 114 388 179L363 193Q310 106 262 53T166 0Q134 0 99 28T39 96T14 167Q14 256 51 349T154 503T305 564Q335 564 366 537T406
482Q411 504 420 520T441 537Q467 537 498 519T552 476T574 437Q574 409 560 355T521 217L507 169L500 143Q496 130 476 62T421 -100L428 -104L442 -87Q492 -27 521 0T578 27Q611 27 634 0T660 -63L641 -81Q567 -154 514 -199T431 -244Q403 -244 370 -227ZM252
189T312 262T394 425Q367 437 343 437Q296 437 259 395T200 285T171 139Q252 189 312 262Z" />
<glyph unicode="r" glyph-name="r" horiz-adv-x="517" d="M151 0T119 17T64 58T41 98Q41 117 49 147T73 227Q89 278 97 308T105 358Q105 366 96 375T68 399Q46 417 36 427T26 447Q26 468 46 496T93 544T139 564Q160 564 187 545T234 502T254 464Q254 426 239 364L251
358Q274 395 301 446T335 510L354 546Q423 548 457 521T491 449Q491 405 462 361Q390 337 340 314T238 258Q235 147 221 74T178 0Q151 0 119 17Z" />
<glyph unicode="s" glyph-name="s" horiz-adv-x="508" d="M269 411T242 378T214 322Q214 311 233 300T296 268Q366 236 406 209T446 145Q446 109 406 76T305 21T193 0Q154 0 111 16T39 58T10 107Q10 148 36 172T106 197Q126 197 147 191Q164 137 176 114Q237 130
285 168Q201 204 132 249T62 333Q62 373 99 428T193 524T311 565Q352 565 389 541T450 481T473 411Q473 378 448 358T383 337Q358 337 332 347Q330 387 314 445Q269 411 242 378Z" />
<glyph unicode="t" glyph-name="t" horiz-adv-x="434" d="M235 393Q202 242 192 147Q256 178 295 211Q339 196 360 170T382 109Q382 85 348 60T267 17T187 0Q158 0 123 17T62 58T37 99Q37 113 47 159T66 239T79 289L103 385L42 381Q25 389 16 406T7 445Q7 485
36 513Q72 511 124 509Q124 573 138 650T169 728Q190 728 222 710T278 668T302 626Q302 603 294 580T266 515Q283 517 352 529L375 533Q393 523 402 504T412 463Q412 445 405 428T384 399L235 393Z" />
<glyph unicode="u" glyph-name="u" horiz-adv-x="680" d="M133 0T103 19T51 64T30 106Q30 122 39 152T59 212T73 250Q86 285 96 316T107 358Q107 366 98 375T69 399Q47 416 37 426T26 447Q26 468 45 496T91 544T137 564Q158 564 185 545T233 502T254 464Q254 402
233 315T179 142Q245 197 297 264T370 384Q372 449 385 493T417 537Q443 537 474 519T528 476T550 437Q549 416 531 359T481 211Q462 155 459 147Q488 160 511 174T561 211Q605 196 626 170T648 109Q648 85 614 60T533 17T453 0Q432 0 403 17T352 57T329 91Q329
102 336 118T353 152T368 179L343 193Q288 92 249 46T159 0Q133 0 103 19Z" />
<glyph unicode="v" glyph-name="v" horiz-adv-x="550" d="M229 296T173 129L190 122Q256 217 296 322T360 551Q399 565 430 565Q469 565 493 543T525 478Q506 398 445 283T310 84T181 0Q165 0 131 19T68 62T40 99Q40 123 52 176Q62 225 67 259T72 329Q72 339 63
348T32 375Q12 389 2 399T-9 420Q-9 442 9 469T55 517T106 537Q129 537 158 519T208 477T229 437Q229 296 173 129Z" />
<glyph unicode="w" glyph-name="w" horiz-adv-x="736" d="M41 123T53 176Q54 184 60 215T69 275T72 329Q72 339 63 348T32 375Q12 389 2 399T-9 420Q-9 442 9 469T55 517T106 537Q129 537 158 519T208 477T229 437Q229 296 173 129L192 119Q213 151 230 186T261
249T278 286Q304 344 318 369T346 394Q360 394 383 379T425 344T444 314Q444 213 438 146Q530 225 578 372Q533 397 457 416Q445 445 445 470Q445 512 474 539T554 566Q625 540 667 493T709 391Q709 323 668 229T562 68T435 0Q413 0 391 25T355 92T341 181Q341
213 346 235Q310 142 264 71T176 0Q161 0 128 19T68 62T41 99Q41 123 53 176Z" />
<glyph unicode="x" glyph-name="x" horiz-adv-x="614" d="M523 209T550 182T578 115Q578 89 546 62T470 18T391 0Q360 0 331 33T267 128Q196 52 143 0Q138 -1 127 -1Q78 -1 47 29T15 106Q15 121 18 134Q131 193 199 261Q143 344 116 392T89 470Q89 484 108 500T154
528T203 539Q222 539 233 511T261 417Q270 378 282 336Q329 397 359 444T420 559Q450 566 467 566Q512 566 540 541T573 473Q542 408 335 201Q354 160 368 139Q398 153 422 169T474 211Q523 209 550 182Z" />
<glyph unicode="y" glyph-name="y" horiz-adv-x="569" d="M314 110T247 71T144 32Q129 32 105 48T62 88T43 130Q43 148 51 177T79 261Q107 339 107 358Q107 366 98 375T69 399Q47 416 37 426T26 447Q26 468 45 496T91 544T137 564Q158 564 185 545T233 502T254
464Q254 408 239 331T194 172Q275 214 356 280Q369 408 381 472T415 537Q430 537 460 517T515 471T540 431Q540 410 509 241T444 -85T395 -266Q373 -302 323 -329T226 -356Q186 -356 141 -329T65 -263T34 -190Q34 -146 134 -62T394 133L376 160Q314 110 247 71ZM184
-141T184 -195Q184 -214 204 -230T254 -251Q287 -204 309 -150T360 -3Q184 -141 184 -195Z" />
<glyph unicode="z" glyph-name="z" horiz-adv-x="631" d="M554 206T575 184T596 126Q596 97 563 68T482 19T393 0Q366 0 343 11T291 42Q277 51 265 58T244 65Q227 65 200 49T128 0Q79 1 48 31T17 105Q17 120 22 138Q138 195 214 262T346 423Q340 422 330 422Q315
422 287 429Q274 434 263 434Q234 434 197 333Q181 329 160 329Q108 329 70 354T31 417Q31 444 55 479T116 539T189 564Q218 564 243 552T299 518Q317 504 329 498T351 491Q386 491 421 540Q441 543 458 543Q508 543 536 520T565 453Q565 419 475 323T286 143Q306
124 330 124Q363 124 418 156T509 225Q554 206 575 184Z" />
<glyph unicode="{" glyph-name="braceleft" horiz-adv-x="514" d="M536 638T511 619T449 600Q424 600 398 609Q390 654 375 689Q310 657 310 587Q310 559 326 535T375 477Q408 442 424 419T440 366Q440 325 407 298T309 263Q310 255 310 239Q310 179 290 116T240
8Q277 21 298 33T352 71Q397 56 418 29T439 -31Q439 -56 404 -81T319 -123T232 -140Q203 -140 166 -116T103 -60T76 -7Q76 0 84 16T103 50Q138 109 159 161T177 268Q150 281 126 300T102 333Q102 348 113 368T140 402T169 416Q184 416 204 404T245 371Q272 392
272 414Q272 432 260 449T222 493Q186 530 167 560T147 627Q147 671 178 713T259 782T367 809Q410 809 449 789T512 736T536 669Q536 638 511 619Z" />
<glyph unicode="|" glyph-name="bar" horiz-adv-x="289" d="M101 -162T70 -145T15 -105T-9 -67Q-9 -44 28 132Q59 279 72 356Q73 363 82 421Q105 576 125 672T168 769Q187 769 219 752T276 712T301 672Q301 664 276 560Q236 400 219 303Q216 284 196 152Q171 -10
156 -86T124 -162Q101 -162 70 -145Z" />
<glyph unicode="}" glyph-name="braceright" horiz-adv-x="511" d="M376 411T400 385T424 334Q424 319 408 305T358 271Q327 253 313 240Q372 169 372 85Q372 26 342 -25T255 -108T125 -139Q75 -139 35 -123T-29 -80T-53 -26Q-53 10 -26 34T50 58Q70 58 87 54Q97
18 109 -4T137 -26Q177 -26 201 14T225 110Q225 151 211 190T167 260L228 311Q191 330 167 354T142 401Q142 416 158 434T209 483Q271 538 307 584T343 687Q294 671 257 652T173 597Q140 603 119 624T97 673Q97 709 133 740T223 789T329 807Q353 807 390 787T455
738T483 685Q483 552 288 388L353 411Q376 411 400 385Z" />
<glyph unicode="~" glyph-name="asciitilde" horiz-adv-x="612" d="M371 210T315 236T205 301L197 303L108 213Q104 212 96 212Q63 212 41 232T18 285Q55 334 111 377T205 420Q241 420 305 391T424 323H430L509 409Q514 410 524 410Q556 410 578 392T600 345Q567
296 510 253T414 210Q371 210 315 236Z" />
<glyph unicode="&#xa1;" glyph-name="exclamdown" horiz-adv-x="335" d="M207 552T225 534T256 489T269 443Q269 426 246 407T189 375T130 362Q113 362 96 379T69 421T58 463Q58 481 81 502T136 537T190 552Q207 552 225 534ZM93 295T103 295Q123 295 146 282T187
251T204 218Q205 185 187 58T142 -173T92 -277Q68 -277 40 -262T-9 -224T-29 -183Q-29 -168 -6 -106Q6 -72 19 -32T39 43Q50 94 58 176Q64 233 70 260T89 293Q93 295 103 295Z" />
<glyph unicode="&#xa2;" glyph-name="cent" horiz-adv-x="516" d="M243 402T209 325T175 168Q175 156 177 132Q271 136 351 229Q401 220 430 192T459 121Q459 85 413 54T301 8Q295 -37 286 -67T265 -97Q238 -97 208 -87T157 -59T136 -25Q136 -15 139 1T145 25Q90
55 52 104T13 196Q13 264 40 339T119 473T236 555Q239 613 248 643T278 674Q299 674 327 659T377 623T398 589Q398 572 392 546Q436 528 463 498T491 436Q491 405 464 381T393 356Q379 356 364 359Q339 420 309 445Q243 402 209 325Z" />
<glyph unicode="&#xa3;" glyph-name="sterling" horiz-adv-x="606" d="M523 44T477 22T402 0Q374 0 335 19T223 83Q158 -1 109 -1Q89 -1 61 17T11 63T-10 113Q-10 138 9 169T58 223T114 245Q126 245 140 239Q156 280 159 303L102 298Q87 307 79 324T71 362Q71
382 78 400T99 430L182 431Q199 525 221 584T284 677T393 711Q444 711 485 688T549 630T573 559Q573 522 551 502T490 482Q471 482 454 486Q447 519 430 552T391 600Q334 568 312 436L413 444Q428 435 437 416T446 374Q446 354 439 336T420 306L286 302Q277 247
250 173L330 132Q373 151 404 170T467 214Q511 209 537 181T564 113Q564 96 558 76Q523 44 477 22Z" />
<glyph unicode="&#xa4;" glyph-name="currency" horiz-adv-x="640" d="M604 454T553 410Q554 404 554 390Q552 327 518 255Q554 225 576 200T597 162Q595 143 580 116T545 69T512 50Q500 51 476 72T423 126Q357 70 280 70Q237 70 186 109Q120 50 98 50Q85 50 69
70T41 118T29 166Q29 177 52 199T111 248Q116 316 137 381Q67 453 57 475Q54 481 54 491Q54 520 74 560T118 612Q131 619 157 598T223 531Q250 553 284 565T355 577Q417 577 464 545Q538 614 565 614Q569 614 573 612Q592 599 606 564T620 498Q620 480 614 471Q604
454 553 410ZM328 202T372 265T433 416Q397 443 358 443Q324 443 296 424Q248 306 248 217Q248 196 251 176Q328 202 372 265Z" />
<glyph unicode="&#xa5;" glyph-name="yen" horiz-adv-x="573" d="M348 297L336 255Q442 261 499 267Q518 256 527 239T537 203Q537 185 530 168T508 137L318 127Q310 57 303 29T280 0Q257 0 226 16T171 56T147 94Q147 108 149 117L54 111Q34 121 23 138T11 177Q11
213 41 240Q97 240 179 242L188 288L74 281Q54 291 43 308T31 347Q31 383 61 410L125 411Q92 478 75 518T58 582Q58 599 80 622T135 661T194 678Q211 678 223 638T252 511Q271 412 281 377Q318 451 339 509T396 679Q434 692 466 692Q512 692 539 665T573 592Q515
517 460 431L519 437Q538 426 547 409T557 373Q557 355 550 338T528 307L348 297Z" />
<glyph unicode="&#xa6;" glyph-name="brokenbar" horiz-adv-x="287" d="M188 320T157 336T103 375T80 414Q80 431 94 501L108 570L119 633Q130 703 139 736T166 769Q185 769 217 752T274 712T299 672Q299 662 293 638T284 605Q267 546 257 494L245 428Q236 371
229 346T211 320Q188 320 157 336ZM98 -162T67 -146T13 -107T-10 -68Q-10 -58 2 -1L20 88L31 152Q42 219 51 253T75 287Q94 287 124 269T178 228T201 187Q201 167 184 89L169 12L159 -45Q148 -108 140 -135T121 -162Q98 -162 67 -146Z" />
<glyph unicode="&#xa7;" glyph-name="section" horiz-adv-x="611" d="M542 474T514 451T443 427Q412 427 379 442Q385 472 385 497Q385 528 377 547T357 566Q339 566 323 549T296 509T285 468Q285 431 316 401T412 325Q473 283 503 254T534 190Q534 153 497 112T397
30Q465 -21 465 -65Q465 -115 424 -160T321 -232T203 -260Q158 -260 110 -238T30 -185T-3 -131Q-5 -87 26 -60T109 -32Q135 -32 162 -39Q174 -105 183 -134Q262 -119 321 -63Q183 13 115 74T47 200Q47 242 79 288T167 377Q146 401 136 422T126 467Q126 504 160
560T247 658T356 700Q401 700 444 670T515 595T542 511Q542 474 514 451ZM295 249T254 286Q195 242 195 202Q195 154 282 113Q316 131 337 149T376 190Q295 249 254 286Z" />
<glyph unicode="&#xa8;" glyph-name="dieresis" horiz-adv-x="469" d="M172 593T147 607T103 642T85 679Q85 705 98 731T132 768Q145 773 162 773Q196 773 231 758T274 719Q276 711 276 705Q276 684 263 657T229 612T190 593Q172 593 147 607ZM412 593T387 607T343
642T325 679Q325 705 338 731T372 768Q385 773 402 773Q436 773 471 758T514 719Q516 711 516 705Q516 684 503 657T469 612T430 593Q412 593 387 607Z" />
<glyph unicode="&#xa9;" glyph-name="copyright" horiz-adv-x="702" d="M241 0T172 39T64 144T24 290Q24 381 66 462T187 592T370 642Q471 642 542 600T649 490T685 342Q685 249 641 171T514 47T325 0Q241 0 172 39ZM403 92T465 126T560 218T593 349Q593 406 568
451T493 523T375 550Q298 550 241 515T154 421T124 295Q124 237 149 191T220 118T322 92Q403 92 465 126ZM293 147T262 167T210 216T189 271Q189 328 212 381T277 468T369 502Q406 502 435 489T481 456T497 415Q497 395 480 382T430 368L415 369Q409 387 398 403T376
427Q335 404 313 357T290 252Q290 238 291 231Q373 234 435 288Q463 278 477 263T492 231Q492 210 472 191T413 159T325 147Q293 147 262 167Z" />
<glyph unicode="&#xaa;" glyph-name="ordfeminine" horiz-adv-x="510" d="M418 482T450 505Q479 496 495 478T513 434Q513 417 489 400T433 371T377 359Q361 359 340 370T303 397T287 424Q287 439 311 478L298 484Q220 359 164 359Q142 359 117 377T73 422T54
472Q53 530 78 591T149 692T254 733Q272 733 293 718T324 682Q328 696 334 706T348 716Q364 716 387 704T427 675T444 646Q444 623 401 514L383 466Q418 482 450 505ZM224 493T262 538T314 634Q296 641 281 641Q234 641 205 589T168 460Q224 493 262 538Z" />
<glyph unicode="&#xab;" glyph-name="guillemotleft" horiz-adv-x="736" d="M48 308Q46 320 46 327Q46 364 66 390L320 582Q357 576 376 553T395 497Q395 466 379 440L165 323L346 214Q348 205 348 189Q348 145 318 117T239 84L48 308ZM358 298Q356 310 356 317Q356
354 376 380L622 537Q663 533 684 511T705 456Q705 429 689 400L475 317L675 225Q678 212 678 198Q678 154 649 127T573 95L358 298Z" />
<glyph unicode="&#xac;" glyph-name="logicalnot" horiz-adv-x="627" d="M582 236T562 129Q536 113 504 113Q476 113 453 125T420 161Q438 222 464 326Q295 318 85 315Q67 325 57 344T46 386Q46 426 79 455Q143 453 185 453Q296 453 453 458L503 459Q528 459 552
442T590 400T605 352Q605 345 604 341Q582 236 562 129Z" />
<glyph unicode="&#xad;" glyph-name="uni00AD" horiz-adv-x="464" d="M60 269T49 288T37 331Q37 371 67 398Q127 398 187 401T306 409Q323 410 383 414Q402 403 411 385T421 344Q421 324 413 306T392 274Q270 272 80 259Q60 269 49 288Z" />
<glyph unicode="&#xae;" glyph-name="registered" horiz-adv-x="421" d="M184 415T149 436T94 492T73 562Q73 621 95 676T159 765T253 800Q307 800 353 780T427 727T454 654Q454 594 424 539T342 450T225 415Q184 415 149 436ZM272 466T313 492T379 560T404 652Q404
700 362 725T264 751Q202 751 165 699T128 561Q128 521 155 494T224 466Q272 466 313 492ZM259 532T238 572Q235 542 232 525T221 508Q212 508 196 519T179 540L211 670H204Q194 680 194 694Q194 708 204 718Q224 723 247 723Q290 723 317 706T344 657Q344 604
270 589Q294 572 333 558Q334 555 334 548Q334 532 324 521T296 508Q259 532 238 572ZM293 626T297 654Q298 665 290 671T266 677L255 676L243 620Q293 626 297 654Z" />
<glyph unicode="&#xaf;" glyph-name="overscore" horiz-adv-x="478" d="M108 609T97 626T86 662Q86 696 114 724Q233 724 313 726T480 739Q518 714 518 676Q518 658 510 642T486 614Q262 607 128 600Q108 609 97 626Z" />
<glyph unicode="&#xb0;" glyph-name="degree" horiz-adv-x="335" d="M247 730T284 710T343 663T365 608Q365 568 342 522T277 445T183 414Q158 414 129 430T80 471T60 515Q60 590 98 655Q120 668 146 666Q144 674 144 678Q144 697 159 712T202 734Q247 730 284
710ZM251 515T271 623Q240 641 191 639Q197 629 197 616Q181 595 173 568T164 512Q164 503 166 485Q251 515 271 623Z" />
<glyph unicode="&#xb1;" glyph-name="plusminus" horiz-adv-x="455" d="M439 473T448 456T457 418Q457 397 449 378T426 344Q382 348 293 350Q292 335 292 304V255Q267 230 225 230Q202 230 183 240T152 269Q162 310 164 322L170 347L126 342Q88 338 68 335Q50
345 40 363T29 404Q29 445 62 474Q113 470 185 468Q188 525 188 568Q216 595 252 595Q277 595 297 583T326 548Q320 521 307 472Q373 475 422 484Q439 473 448 456ZM44 64T33 83T21 126Q21 166 51 193Q136 194 204 197T379 209Q398 198 407 180T417 139Q417 119
409 101T388 69Q249 66 64 54Q44 64 33 83Z" />
<glyph unicode="&#xb2;" glyph-name="twosuperior" horiz-adv-x="396" d="M109 283T89 301T55 345T41 392Q41 409 62 427T131 478Q194 521 233 554T292 631Q243 621 215 611T152 576Q125 581 107 599T89 642Q89 682 146 707T285 733Q311 733 337 718T379 677T396
626Q396 574 336 516T152 387L157 379Q198 396 256 411T336 426Q357 426 372 408T387 365Q387 339 369 318L314 308Q264 299 211 291T128 283Q109 283 89 301Z" />
<glyph unicode="&#xb3;" glyph-name="threesuperior" horiz-adv-x="434" d="M316 505T354 493T413 464T435 429Q435 396 396 362T298 305T184 283Q148 283 114 296T59 328T37 364Q37 390 64 406T136 423Q155 423 174 420Q177 398 188 363Q223 373 251 392T291
436Q277 443 263 444T228 446Q225 446 210 447T184 453Q167 462 157 483T147 527Q147 537 159 544T200 560Q248 576 279 594T327 646Q240 637 164 598Q139 608 126 624T113 660Q113 692 170 712T304 733Q338 733 368 716T418 676T438 637Q438 602 394 569T273 514L271
506Q316 505 354 493Z" />
<glyph unicode="&#xb4;" glyph-name="acute" horiz-adv-x="243" d="M166 842T203 842Q245 842 274 820T304 761Q240 672 156 591Q150 590 139 590Q113 590 95 602T71 640Q88 662 101 685T120 716Q128 768 132 825Q166 842 203 842Z" />
<glyph unicode="&#xb5;" glyph-name="uni00B5" horiz-adv-x="772" d="M697 196T718 170T740 109Q740 85 706 60T625 17T545 0Q524 0 495 17T444 57T421 91Q421 102 428 118T445 152T460 179L435 193Q380 92 341 46T251 0Q236 0 223 9T192 34Q145 -84 114 -146T59
-209Q41 -209 18 -192T-22 -152T-39 -118Q-39 -108 -30 -87T2 -22Q72 116 115 226Q144 300 180 425Q201 497 213 526T241 555Q262 555 286 538T327 499T345 464Q345 426 329 372T283 242Q262 185 255 162T256 139Q269 139 309 176T392 269T462 384Q464 449 477
493T509 537Q535 537 566 519T620 476T642 437Q641 416 623 359T573 211Q554 155 551 147Q580 160 603 174T653 211Q697 196 718 170Z" />
<glyph unicode="&#xb6;" glyph-name="paragraph" horiz-adv-x="773" d="M158 2T192 29T244 115T275 284Q168 296 107 353T46 492Q46 555 83 605T200 686T406 716Q434 716 449 715L488 713Q601 709 658 703Q676 701 695 683T727 640T740 591L739 581L685 224Q680
193 677 167T671 123Q652 -18 638 -88T602 -159Q578 -159 549 -141T500 -97T479 -50Q479 -37 488 15T502 89Q556 363 580 566L467 572Q458 501 457 494Q452 457 434 320T396 74Q377 -35 326 -97T190 -159Q143 -159 111 -133T79 -65Q79 -34 98 0Q158 2 192 29Z"
/>
<glyph unicode="&#xb7;" glyph-name="middot" horiz-adv-x="315" d="M124 260T106 278T75 323T62 369Q62 386 85 405T142 437T201 450Q218 450 235 433T262 391T273 349Q273 331 250 310T195 275T141 260Q124 260 106 278Z" />
<glyph unicode="&#xb8;" glyph-name="cedilla" horiz-adv-x="426" d="M153 -53Q179 -43 207 -43Q258 -43 293 -75T328 -158Q328 -197 304 -229T233 -280T125 -300Q70 -300 21 -281T-63 -221Q-64 -217 -64 -210Q-64 -189 -50 -176T-13 -165Q12 -187 42 -198T102
-210Q140 -210 163 -195T187 -157Q187 -136 165 -120Q142 -124 118 -141L107 -142Q81 -142 62 -128T40 -91L117 64L206 35L153 -53Z" />
<glyph unicode="&#xb9;" glyph-name="onesuperior" horiz-adv-x="322" d="M174 539T144 539Q132 539 116 552T90 584T79 619Q79 634 114 661T192 711T254 733Q273 733 296 721T336 690T352 657Q352 640 332 573Q310 492 305 468Q299 438 292 371Q286 321 281 302T261
283Q242 283 218 294T176 322T158 349Q159 370 187 456T244 601L233 607Q174 539 144 539Z" />
<glyph unicode="&#xba;" glyph-name="ordmasculine" horiz-adv-x="368" d="M393 532T368 480T298 394T194 359Q165 359 133 377T79 422T57 476Q55 571 93 645Q113 655 135 655Q144 655 148 654Q146 664 146 669Q146 691 161 708T204 734Q256 728 299 705T368 647T393
579Q393 532 368 480ZM227 460T256 498T295 600Q260 623 194 620Q199 611 199 595Q166 546 166 483Q166 459 170 440Q227 460 256 498Z" />
<glyph unicode="&#xbb;" glyph-name="guillemotright" horiz-adv-x="764" d="M412 90T385 115T358 179Q358 194 363 212L608 343L420 453Q416 468 416 484Q416 524 442 551T516 582L728 385Q733 375 733 358Q733 329 719 303L460 89Q412 90 385 115ZM86 97T61
123T35 186Q35 206 44 227L280 337L78 403Q67 428 67 450Q67 482 89 506T152 538L398 379Q403 369 403 352Q403 323 389 297L129 95Q86 97 61 123Z" />
<glyph unicode="&#xbc;" glyph-name="onequarter" horiz-adv-x="977" d="M704 650T679 598T594 438L525 310Q492 246 466 194Q404 71 371 14T322 -43Q306 -43 287 -30T254 2T240 32Q240 47 256 78T315 180Q380 286 413 351Q454 430 507 542Q560 653 587 703T631
754Q647 754 664 739T692 704T704 670Q704 650 679 598ZM174 539T144 539Q132 539 116 552T90 584T79 619Q79 634 114 661T192 711T254 733Q273 733 296 721T336 690T352 657Q352 640 332 573Q310 492 305 468Q299 438 292 371Q286 321 281 302T261 283Q242 283
218 294T176 322T158 349Q159 370 187 456T244 601L233 607Q174 539 144 539ZM863 0T844 10T811 35T797 60Q797 66 804 92L809 113Q767 104 718 104Q684 104 667 109Q643 120 621 148T598 201Q598 222 638 284T728 398T811 450Q846 450 865 430T880 375Q760 288
695 196Q725 194 741 194Q790 194 826 201Q830 218 831 231Q834 258 839 273T858 288Q874 288 892 279T924 257T937 233Q937 204 927 147T903 45T877 0Q863 0 844 10Z" />
<glyph unicode="&#xbd;" glyph-name="onehalf" horiz-adv-x="1025" d="M704 650T679 598T594 438L525 310Q492 246 466 194Q404 71 371 14T322 -43Q306 -43 287 -30T254 2T240 32Q240 47 256 78T315 180Q380 286 413 351Q454 430 507 542Q560 653 587 703T631
754Q647 754 664 739T692 704T704 670Q704 650 679 598ZM174 539T144 539Q132 539 116 552T90 584T79 619Q79 634 114 661T192 711T254 733Q273 733 296 721T336 690T352 657Q352 640 332 573Q310 492 305 468Q299 438 292 371Q286 321 281 302T261 283Q242 283
218 294T176 322T158 349Q159 370 187 456T244 601L233 607Q174 539 144 539ZM680 0T660 18T626 62T612 109Q612 126 633 144T702 195Q765 238 804 271T863 348Q814 338 786 328T723 293Q696 298 678 316T660 359Q660 399 717 424T856 450Q882 450 908 435T950
394T967 343Q967 291 907 233T723 104L728 96Q769 113 827 128T907 143Q928 143 943 125T958 82Q958 56 940 35L885 25Q835 16 782 8T699 0Q680 0 660 18Z" />
<glyph unicode="&#xbe;" glyph-name="threequarters" horiz-adv-x="1033" d="M707 754T724 739T752 704T764 670Q764 650 739 598T654 438L585 310Q552 246 526 194Q464 71 431 14T382 -43Q366 -43 347 -30T314 2T300 32Q300 47 316 78T375 180Q440 286 473 351Q514
430 567 542Q620 653 647 703T691 754Q707 754 724 739ZM435 396T396 362T298 305T184 283Q148 283 114 296T59 328T37 364Q37 390 64 406T136 423Q155 423 174 420Q177 398 188 363Q223 373 251 392T291 436Q277 443 263 444T228 446Q225 446 210 447T184 453Q167
462 157 483T147 527Q147 537 159 544T200 560Q248 576 279 594T327 646Q240 637 164 598Q139 608 126 624T113 660Q113 692 170 712T304 733Q338 733 368 716T418 676T438 637Q438 602 394 569T273 514L271 506Q316 505 354 493T413 464T435 429Q435 396 396 362ZM930
288T948 279T980 257T993 233Q993 204 983 147T959 45T933 0Q919 0 900 10T867 35T853 60Q853 66 860 92L865 113Q823 104 774 104Q740 104 723 109Q699 120 677 148T654 201Q654 222 694 284T784 398T867 450Q902 450 921 430T936 375Q816 288 751 196Q781 194
797 194Q846 194 882 201Q886 218 887 231Q890 258 895 273T914 288Q930 288 948 279Z" />
<glyph unicode="&#xbf;" glyph-name="questiondown" horiz-adv-x="478" d="M206 363T189 380T162 422T151 464Q151 482 174 503T229 538T283 553Q300 553 318 535T349 490T362 444Q362 427 339 408T282 376T223 363Q206 363 189 380ZM349 -73T370 -99T392 -157Q392
-188 352 -215T251 -259T135 -276Q95 -276 57 -253T-6 -198T-31 -140Q-31 -95 -9 -59T46 3T130 64Q182 99 209 122T248 173Q214 174 191 167T127 140Q109 154 99 175T88 214Q88 249 124 272T227 295Q259 295 291 270T345 209T367 144Q367 107 334 75T233 -1Q170
-43 138 -72T96 -135Q112 -137 120 -137Q169 -137 221 -116T315 -66Q349 -73 370 -99Z" />
<glyph unicode="&#xc0;" glyph-name="Agrave" horiz-adv-x="556" d="M423 755T405 743T361 731Q348 731 333 734Q303 768 268 817T212 902Q224 941 253 962T319 984Q355 984 389 965L392 918Q393 894 397 846L428 777Q423 755 405 743ZM489 249Q490 233 496 169T503
61Q503 5 490 1Q486 0 477 0Q455 0 423 10T365 37T335 68Q331 83 331 194Q223 181 189 178Q162 99 127 5Q100 -1 77 -1Q37 -1 10 18T-27 78L-7 123Q103 368 183 534T288 700Q307 700 343 686T409 652T443 616Q450 588 462 499T481 327L489 249ZM284 440T241 321Q287
324 332 330Q332 468 328 544Q284 440 241 321Z" />
<glyph unicode="&#xc1;" glyph-name="Aacute" horiz-adv-x="556" d="M376 730T365 730Q339 730 321 742T297 780Q314 802 327 825T346 856Q354 908 358 965Q392 982 429 982Q471 982 500 960T530 901Q466 812 382 731Q376 730 365 730ZM450 588T462 499T481 327L489
249Q490 233 496 169T503 61Q503 5 490 1Q486 0 477 0Q455 0 423 10T365 37T335 68Q331 83 331 194Q223 181 189 178Q162 99 127 5Q100 -1 77 -1Q37 -1 10 18T-27 78L-7 123Q103 368 183 534T288 700Q307 700 343 686T409 652T443 616Q450 588 462 499ZM284 440T241
321Q287 324 332 330Q332 468 328 544Q284 440 241 321Z" />
<glyph unicode="&#xc2;" glyph-name="Acircumflex" horiz-adv-x="556" d="M595 785Q577 732 518 732Q500 732 483 736L398 892Q361 854 331 820T258 733Q234 729 224 729Q180 729 151 752T121 812L330 979Q339 980 357 980Q389 980 418 973T468 950L595 785ZM450
588T462 499T481 327L489 249Q490 233 496 169T503 61Q503 5 490 1Q486 0 477 0Q455 0 423 10T365 37T335 68Q331 83 331 194Q223 181 189 178Q162 99 127 5Q100 -1 77 -1Q37 -1 10 18T-27 78L-7 123Q103 368 183 534T288 700Q307 700 343 686T409 652T443 616Q450
588 462 499ZM284 440T241 321Q287 324 332 330Q332 468 328 544Q284 440 241 321Z" />
<glyph unicode="&#xc3;" glyph-name="Atilde" horiz-adv-x="556" d="M542 930T552 930Q584 930 606 912T628 865Q598 818 545 776T452 733Q367 733 288 814L280 816L206 733Q202 732 194 732Q161 732 139 752T116 805Q151 847 205 891T293 936Q334 936 379 911T466
849H472L537 929Q542 930 552 930ZM450 588T462 499T481 327L489 249Q490 233 496 169T503 61Q503 5 490 1Q486 0 477 0Q455 0 423 10T365 37T335 68Q331 83 331 194Q223 181 189 178Q162 99 127 5Q100 -1 77 -1Q37 -1 10 18T-27 78L-7 123Q103 368 183 534T288
700Q307 700 343 686T409 652T443 616Q450 588 462 499ZM284 440T241 321Q287 324 332 330Q332 468 328 544Q284 440 241 321Z" />
<glyph unicode="&#xc4;" glyph-name="Adieresis" horiz-adv-x="556" d="M233 733T208 747T164 782T146 819Q146 845 159 871T193 908Q206 913 223 913Q257 913 292 898T335 859Q337 851 337 845Q337 824 324 797T290 752T251 733Q233 733 208 747ZM577 851T577
845Q577 824 564 797T530 752T491 733Q473 733 448 747T404 782T386 819Q386 845 399 871T433 908Q446 913 463 913Q497 913 532 898T575 859Q577 851 577 845ZM450 588T462 499T481 327L489 249Q490 233 496 169T503 61Q503 5 490 1Q486 0 477 0Q455 0 423 10T365
37T335 68Q331 83 331 194Q223 181 189 178Q162 99 127 5Q100 -1 77 -1Q37 -1 10 18T-27 78L-7 123Q103 368 183 534T288 700Q307 700 343 686T409 652T443 616Q450 588 462 499ZM284 440T241 321Q287 324 332 330Q332 468 328 544Q284 440 241 321Z" />
<glyph unicode="&#xc5;" glyph-name="Aring" horiz-adv-x="556" d="M315 733T286 749T237 790T217 834Q217 909 255 974Q277 987 303 985Q301 993 301 997Q301 1016 316 1031T359 1053Q404 1049 441 1029T500 982T522 927Q522 887 499 841T434 764T340 733Q315
733 286 749ZM397 960T348 958Q354 948 354 935Q338 914 330 887T321 831Q321 822 323 804Q408 834 428 942Q397 960 348 958ZM450 588T462 499T481 327L489 249Q490 233 496 169T503 61Q503 5 490 1Q486 0 477 0Q455 0 423 10T365 37T335 68Q331 83 331 194Q223
181 189 178Q162 99 127 5Q100 -1 77 -1Q37 -1 10 18T-27 78L-7 123Q103 368 183 534T288 700Q307 700 343 686T409 652T443 616Q450 588 462 499ZM284 440T241 321Q287 324 332 330Q332 468 328 544Q284 440 241 321Z" />
<glyph unicode="&#xc6;" glyph-name="AE" horiz-adv-x="788" d="M767 699T776 680T786 637Q786 617 778 597T757 564L709 561Q571 554 523 549L497 412Q618 420 679 442Q699 428 709 407T720 362Q720 341 712 323T688 293L617 288L488 279L459 137Q519 143 565
153T674 183Q702 170 717 147T733 95Q733 55 702 24Q646 12 579 6T449 0Q431 0 404 13T354 44T329 74Q328 77 328 86Q328 126 345 196Q258 184 189 178Q162 99 127 5Q100 -1 77 -1Q37 -1 10 18T-27 78L-13 109Q98 357 184 528T308 700Q325 700 355 697Q451 689
505 689Q622 689 748 710Q767 699 776 680ZM288 448T241 321L359 332Q360 345 360 372Q360 446 346 556Q288 448 241 321Z" />
<glyph unicode="&#xc7;" glyph-name="Ccedilla" horiz-adv-x="547" d="M532 482T503 461T430 439Q398 439 366 451Q367 469 367 502Q367 539 361 557T338 575Q304 575 269 505T209 333T182 146Q248 158 303 185T401 249Q446 238 470 209T495 143Q495 121 484 97Q460
73 407 46T296 5L261 -53Q287 -43 315 -43Q366 -43 401 -75T436 -158Q436 -197 412 -229T341 -280T233 -300Q178 -300 129 -281T45 -221Q44 -217 44 -210Q44 -189 58 -176T95 -165Q120 -187 150 -198T210 -210Q248 -210 271 -195T295 -157Q295 -136 273 -120Q250
-124 226 -141L215 -142Q189 -142 170 -128T148 -91L193 -1Q157 10 116 42T47 114T19 185Q20 292 55 415T162 624T335 710Q388 710 433 680T505 606T531 523Q532 482 503 461Z" />
<glyph unicode="&#xc8;" glyph-name="Egrave" horiz-adv-x="553" d="M403 755T385 743T341 731Q328 731 313 734Q283 768 248 817T192 902Q204 941 233 962T299 984Q335 984 369 965L372 918Q373 894 377 846L408 777Q403 755 385 743ZM532 689T541 670T551 627Q551
607 543 587T522 554Q393 552 307 544Q290 483 275 408Q375 416 444 432Q464 420 474 401T485 358Q485 337 477 319T453 289Q434 287 416 286T381 284L252 275L234 185L224 137Q285 143 334 153T439 183Q467 170 482 147T498 95Q498 55 467 24Q405 12 328 6T185
0Q167 0 138 18T87 60T64 101Q64 116 87 217Q104 291 120 371Q131 426 131 426Q147 504 152 539L110 536Q91 546 80 565T68 608Q68 648 99 679Q236 681 337 685T513 700Q532 689 541 670Z" />
<glyph unicode="&#xc9;" glyph-name="Eacute" horiz-adv-x="553" d="M372 982T409 982Q451 982 480 960T510 901Q446 812 362 731Q356 730 345 730Q319 730 301 742T277 780Q294 802 307 825T326 856Q334 908 338 965Q372 982 409 982ZM532 689T541 670T551 627Q551
607 543 587T522 554Q393 552 307 544Q290 483 275 408Q375 416 444 432Q464 420 474 401T485 358Q485 337 477 319T453 289Q434 287 416 286T381 284L252 275L234 185L224 137Q285 143 334 153T439 183Q467 170 482 147T498 95Q498 55 467 24Q405 12 328 6T185
0Q167 0 138 18T87 60T64 101Q64 116 87 217Q104 291 120 371Q131 426 131 426Q147 504 152 539L110 536Q91 546 80 565T68 608Q68 648 99 679Q236 681 337 685T513 700Q532 689 541 670Z" />
<glyph unicode="&#xca;" glyph-name="Ecircumflex" horiz-adv-x="553" d="M575 785Q557 732 498 732Q480 732 463 736L378 892Q341 854 311 820T238 733Q214 729 204 729Q160 729 131 752T101 812L310 979Q319 980 337 980Q369 980 398 973T448 950L575 785ZM532
689T541 670T551 627Q551 607 543 587T522 554Q393 552 307 544Q290 483 275 408Q375 416 444 432Q464 420 474 401T485 358Q485 337 477 319T453 289Q434 287 416 286T381 284L252 275L234 185L224 137Q285 143 334 153T439 183Q467 170 482 147T498 95Q498 55
467 24Q405 12 328 6T185 0Q167 0 138 18T87 60T64 101Q64 116 87 217Q104 291 120 371Q131 426 131 426Q147 504 152 539L110 536Q91 546 80 565T68 608Q68 648 99 679Q236 681 337 685T513 700Q532 689 541 670Z" />
<glyph unicode="&#xcb;" glyph-name="Edieresis" horiz-adv-x="553" d="M213 733T188 747T144 782T126 819Q126 845 139 871T173 908Q186 913 203 913Q237 913 272 898T315 859Q317 851 317 845Q317 824 304 797T270 752T231 733Q213 733 188 747ZM453 733T428
747T384 782T366 819Q366 845 379 871T413 908Q426 913 443 913Q477 913 512 898T555 859Q557 851 557 845Q557 824 544 797T510 752T471 733Q453 733 428 747ZM532 689T541 670T551 627Q551 607 543 587T522 554Q393 552 307 544Q290 483 275 408Q375 416 444
432Q464 420 474 401T485 358Q485 337 477 319T453 289Q434 287 416 286T381 284L252 275L234 185L224 137Q285 143 334 153T439 183Q467 170 482 147T498 95Q498 55 467 24Q405 12 328 6T185 0Q167 0 138 18T87 60T64 101Q64 116 87 217Q104 291 120 371Q131 426
131 426Q147 504 152 539L110 536Q91 546 80 565T68 608Q68 648 99 679Q236 681 337 685T513 700Q532 689 541 670Z" />
<glyph unicode="&#xcc;" glyph-name="Igrave" horiz-adv-x="283" d="M263 755T245 743T201 731Q188 731 173 734Q143 768 108 817T52 902Q64 941 93 962T159 984Q195 984 229 965L232 918Q233 894 237 846L268 777Q263 755 245 743ZM128 0T97 16T42 56T18 94Q17
110 27 161T41 228Q45 248 56 301T74 401L82 448Q101 560 117 630T151 700Q170 700 202 683T259 643T284 603Q284 594 265 523Q230 397 213 303Q203 244 192 148Q182 66 175 33T151 0Q128 0 97 16Z" />
<glyph unicode="&#xcd;" glyph-name="Iacute" horiz-adv-x="283" d="M232 982T269 982Q311 982 340 960T370 901Q306 812 222 731Q216 730 205 730Q179 730 161 742T137 780Q154 802 167 825T186 856Q194 908 198 965Q232 982 269 982ZM128 0T97 16T42 56T18 94Q17
110 27 161T41 228Q45 248 56 301T74 401L82 448Q101 560 117 630T151 700Q170 700 202 683T259 643T284 603Q284 594 265 523Q230 397 213 303Q203 244 192 148Q182 66 175 33T151 0Q128 0 97 16Z" />
<glyph unicode="&#xce;" glyph-name="Icircumflex" horiz-adv-x="283" d="M435 785Q417 732 358 732Q340 732 323 736L238 892Q201 854 171 820T98 733Q74 729 64 729Q20 729 -9 752T-39 812L170 979Q179 980 197 980Q229 980 258 973T308 950L435 785ZM128 0T97
16T42 56T18 94Q17 110 27 161T41 228Q45 248 56 301T74 401L82 448Q101 560 117 630T151 700Q170 700 202 683T259 643T284 603Q284 594 265 523Q230 397 213 303Q203 244 192 148Q182 66 175 33T151 0Q128 0 97 16Z" />
<glyph unicode="&#xcf;" glyph-name="Idieresis" horiz-adv-x="283" d="M73 733T48 747T4 782T-14 819Q-14 845 -1 871T33 908Q46 913 63 913Q97 913 132 898T175 859Q177 851 177 845Q177 824 164 797T130 752T91 733Q73 733 48 747ZM313 733T288 747T244 782T226
819Q226 845 239 871T273 908Q286 913 303 913Q337 913 372 898T415 859Q417 851 417 845Q417 824 404 797T370 752T331 733Q313 733 288 747ZM128 0T97 16T42 56T18 94Q17 110 27 161T41 228Q45 248 56 301T74 401L82 448Q101 560 117 630T151 700Q170 700 202
683T259 643T284 603Q284 594 265 523Q230 397 213 303Q203 244 192 148Q182 66 175 33T151 0Q128 0 97 16Z" />
<glyph unicode="&#xd0;" glyph-name="Eth" horiz-adv-x="597" d="M576 293T512 205T357 56T190 -5Q165 -5 127 20T59 77T30 129Q30 145 43 191T79 295L22 290Q5 299 -5 316T-15 354Q-15 391 14 420L104 418L127 545L86 547Q70 579 70 611Q70 641 85 666T129 710Q250
700 353 650T516 525T576 366Q576 293 512 205ZM290 178T356 253T423 394Q423 421 401 448T343 496T267 524L245 423L319 436Q338 425 347 408T356 371Q356 351 348 333T326 301L218 304L190 126Q290 178 356 253Z" />
<glyph unicode="&#xd1;" glyph-name="Ntilde" horiz-adv-x="619" d="M376 733T297 814L289 816L215 733Q211 732 203 732Q170 732 148 752T125 805Q160 847 214 891T302 936Q343 936 388 911T475 849H481L546 929Q551 930 561 930Q593 930 615 912T637 865Q607
818 554 776T461 733Q376 733 297 814ZM506 700T538 683T595 643T620 603Q620 594 601 523Q566 397 549 303Q539 244 528 148Q518 66 511 33T487 0Q458 0 420 24T353 85Q338 105 311 163T259 293T220 429L213 303Q203 244 192 148Q182 66 175 33T151 0Q128 0 97
16T42 56T18 94Q17 110 27 161T41 228Q45 248 56 301T74 401L82 448Q101 560 117 630T151 700Q168 700 197 686T251 650T283 610Q330 484 398 270L410 401L418 448Q437 560 453 630T487 700Q506 700 538 683Z" />
<glyph unicode="&#xd2;" glyph-name="Ograve" horiz-adv-x="571" d="M418 755T400 743T356 731Q343 731 328 734Q298 768 263 817T207 902Q219 941 248 962T314 984Q350 984 384 965L387 918Q388 894 392 846L423 777Q418 755 400 743ZM354 710T419 675T524 583T564
463Q564 366 512 256T381 70T224 -5Q184 -5 135 28T50 108T15 191Q15 248 49 387T112 593Q145 603 174 603Q194 603 206 599Q204 636 224 667T281 710Q354 710 419 675ZM274 167T339 266T431 485Q403 505 359 518T263 532Q265 522 267 502Q175 330 178 132Q274
167 339 266Z" />
<glyph unicode="&#xd3;" glyph-name="Oacute" horiz-adv-x="571" d="M371 730T360 730Q334 730 316 742T292 780Q309 802 322 825T341 856Q349 908 353 965Q387 982 424 982Q466 982 495 960T525 901Q461 812 377 731Q371 730 360 730ZM354 710T419 675T524 583T564
463Q564 366 512 256T381 70T224 -5Q184 -5 135 28T50 108T15 191Q15 248 49 387T112 593Q145 603 174 603Q194 603 206 599Q204 636 224 667T281 710Q354 710 419 675ZM274 167T339 266T431 485Q403 505 359 518T263 532Q265 522 267 502Q175 330 178 132Q274
167 339 266Z" />
<glyph unicode="&#xd4;" glyph-name="Ocircumflex" horiz-adv-x="571" d="M590 785Q572 732 513 732Q495 732 478 736L393 892Q356 854 326 820T253 733Q229 729 219 729Q175 729 146 752T116 812L325 979Q334 980 352 980Q384 980 413 973T463 950L590 785ZM354
710T419 675T524 583T564 463Q564 366 512 256T381 70T224 -5Q184 -5 135 28T50 108T15 191Q15 248 49 387T112 593Q145 603 174 603Q194 603 206 599Q204 636 224 667T281 710Q354 710 419 675ZM274 167T339 266T431 485Q403 505 359 518T263 532Q265 522 267
502Q175 330 178 132Q274 167 339 266Z" />
<glyph unicode="&#xd5;" glyph-name="Otilde" horiz-adv-x="571" d="M537 930T547 930Q579 930 601 912T623 865Q593 818 540 776T447 733Q362 733 283 814L275 816L201 733Q197 732 189 732Q156 732 134 752T111 805Q146 847 200 891T288 936Q329 936 374 911T461
849H467L532 929Q537 930 547 930ZM354 710T419 675T524 583T564 463Q564 366 512 256T381 70T224 -5Q184 -5 135 28T50 108T15 191Q15 248 49 387T112 593Q145 603 174 603Q194 603 206 599Q204 636 224 667T281 710Q354 710 419 675ZM274 167T339 266T431 485Q403
505 359 518T263 532Q265 522 267 502Q175 330 178 132Q274 167 339 266Z" />
<glyph unicode="&#xd6;" glyph-name="Odieresis" horiz-adv-x="571" d="M228 733T203 747T159 782T141 819Q141 845 154 871T188 908Q201 913 218 913Q252 913 287 898T330 859Q332 851 332 845Q332 824 319 797T285 752T246 733Q228 733 203 747ZM468 733T443
747T399 782T381 819Q381 845 394 871T428 908Q441 913 458 913Q492 913 527 898T570 859Q572 851 572 845Q572 824 559 797T525 752T486 733Q468 733 443 747ZM354 710T419 675T524 583T564 463Q564 366 512 256T381 70T224 -5Q184 -5 135 28T50 108T15 191Q15
248 49 387T112 593Q145 603 174 603Q194 603 206 599Q204 636 224 667T281 710Q354 710 419 675ZM274 167T339 266T431 485Q403 505 359 518T263 532Q265 522 267 502Q175 330 178 132Q274 167 339 266Z" />
<glyph unicode="&#xd7;" glyph-name="multiply" horiz-adv-x="461" d="M403 526T433 504T463 441Q463 430 462 424Q361 344 305 295Q320 282 360 249Q388 227 399 216T410 196Q410 186 398 170T368 142T336 130Q312 130 224 225Q174 180 120 128Q74 124 46 145T18
205Q18 221 24 239Q84 273 145 318Q106 367 81 406T56 455Q56 469 71 484T108 511T149 522Q166 522 178 504T208 442Q224 402 231 389Q302 455 352 524Q403 526 433 504Z" />
<glyph unicode="&#xd8;" glyph-name="Oslash" horiz-adv-x="625" d="M640 685T655 648T671 581Q671 565 666 557Q656 539 601 491Q603 471 603 463Q603 366 551 256T420 70T263 -5Q234 -5 199 14T130 63Q46 -9 31 0Q7 15 -14 51T-35 114Q-35 125 -30 133Q-21 148
55 214Q62 285 93 409T151 593Q184 603 213 603Q233 603 245 599Q243 636 263 667T320 710Q374 710 425 690T517 635Q585 700 612 700Q616 700 620 698Q640 685 655 648ZM376 529T302 532Q304 522 306 502Q262 421 238 324Q343 410 435 504Q376 529 302 532ZM272
152T325 201T419 313T475 435L219 195Q217 174 217 132Q272 152 325 201Z" />
<glyph unicode="&#xd9;" glyph-name="Ugrave" horiz-adv-x="587" d="M403 755T385 743T341 731Q328 731 313 734Q283 768 248 817T192 902Q204 941 233 962T299 984Q335 984 369 965L372 918Q373 894 377 846L408 777Q403 755 385 743ZM577 600T577 532Q577 383
529 260T404 66T247 -5Q207 -5 155 24T64 95T26 169Q26 239 50 394T107 663Q140 679 176 679Q214 679 242 659T280 601Q251 534 224 412T196 213Q196 138 225 138Q268 138 309 193T376 337T402 517Q402 585 386 645Q436 700 492 700Q531 700 565 673Q577 600 577
532Z" />
<glyph unicode="&#xda;" glyph-name="Uacute" horiz-adv-x="587" d="M372 982T409 982Q451 982 480 960T510 901Q446 812 362 731Q356 730 345 730Q319 730 301 742T277 780Q294 802 307 825T326 856Q334 908 338 965Q372 982 409 982ZM577 600T577 532Q577 383
529 260T404 66T247 -5Q207 -5 155 24T64 95T26 169Q26 239 50 394T107 663Q140 679 176 679Q214 679 242 659T280 601Q251 534 224 412T196 213Q196 138 225 138Q268 138 309 193T376 337T402 517Q402 585 386 645Q436 700 492 700Q531 700 565 673Q577 600 577
532Z" />
<glyph unicode="&#xdb;" glyph-name="Ucircumflex" horiz-adv-x="587" d="M575 785Q557 732 498 732Q480 732 463 736L378 892Q341 854 311 820T238 733Q214 729 204 729Q160 729 131 752T101 812L310 979Q319 980 337 980Q369 980 398 973T448 950L575 785ZM577
600T577 532Q577 383 529 260T404 66T247 -5Q207 -5 155 24T64 95T26 169Q26 239 50 394T107 663Q140 679 176 679Q214 679 242 659T280 601Q251 534 224 412T196 213Q196 138 225 138Q268 138 309 193T376 337T402 517Q402 585 386 645Q436 700 492 700Q531 700
565 673Q577 600 577 532Z" />
<glyph unicode="&#xdc;" glyph-name="Udieresis" horiz-adv-x="587" d="M213 733T188 747T144 782T126 819Q126 845 139 871T173 908Q186 913 203 913Q237 913 272 898T315 859Q317 851 317 845Q317 824 304 797T270 752T231 733Q213 733 188 747ZM453 733T428
747T384 782T366 819Q366 845 379 871T413 908Q426 913 443 913Q477 913 512 898T555 859Q557 851 557 845Q557 824 544 797T510 752T471 733Q453 733 428 747ZM577 600T577 532Q577 383 529 260T404 66T247 -5Q207 -5 155 24T64 95T26 169Q26 239 50 394T107 663Q140
679 176 679Q214 679 242 659T280 601Q251 534 224 412T196 213Q196 138 225 138Q268 138 309 193T376 337T402 517Q402 585 386 645Q436 700 492 700Q531 700 565 673Q577 600 577 532Z" />
<glyph unicode="&#xdd;" glyph-name="Yacute" horiz-adv-x="573" d="M363 982T400 982Q442 982 471 960T501 901Q437 812 353 731Q347 730 336 730Q310 730 292 742T268 780Q285 802 298 825T317 856Q325 908 329 965Q363 982 400 982ZM548 502Q538 489 471 403T330
231L319 140Q311 63 304 32T280 0Q257 0 226 16T171 56T147 94Q146 112 153 145T180 257L187 284Q180 300 134 394Q96 469 77 513T58 582Q58 599 80 622T134 661T191 678Q210 678 221 645T249 528Q265 441 281 382Q376 544 441 689Q474 698 500 698Q552 698 580
667T611 583L548 502Z" />
<glyph unicode="&#xde;" glyph-name="Thorn" horiz-adv-x="551" d="M357 548T416 523T504 456T533 365Q533 305 493 251T374 163T190 131Q181 60 174 30T151 0Q128 0 97 16T42 56T18 94Q17 110 27 161T41 228Q45 248 56 301T74 401L82 448Q101 560 117 630T151
700Q170 700 202 683T259 643T284 603Q284 595 272 549Q357 548 416 523ZM262 255T302 270T362 308T382 355Q382 383 355 402T278 421Q259 421 238 418Q217 334 205 254Q262 255 302 270Z" />
<glyph unicode="&#xdf;" glyph-name="germandbls" horiz-adv-x="619" d="M312 151T364 196T417 281Q417 300 399 317T345 358Q314 378 298 392T281 422Q281 435 293 447T332 481Q381 519 410 554T443 642Q423 646 414 646Q362 646 322 603T257 493T219 358Q213
327 203 245Q190 147 182 102T163 56Q140 56 108 73T52 112T30 150Q45 294 78 439T136 635Q168 700 235 737T385 775Q440 775 492 753T578 694T612 619Q612 559 571 508T450 411Q517 380 551 343T585 257Q585 197 553 137T465 39T346 0Q296 0 266 28T236 95Q236
110 240 122Q312 151 364 196Z" />
<glyph unicode="&#xe0;" glyph-name="agrave" horiz-adv-x="700" d="M436 615T418 603T374 591Q361 591 346 594Q316 628 281 677T225 762Q237 801 266 822T332 844Q368 844 402 825L405 778Q406 754 410 706L441 637Q436 615 418 603ZM539 177T581 211Q625 196
646 170T668 109Q668 85 634 60T553 17T473 0Q450 0 421 17T370 57T348 93Q348 103 356 120T375 155T388 179L363 193Q310 106 262 53T166 0Q134 0 99 28T39 96T14 167Q14 256 51 349T154 503T305 564Q335 564 366 537T406 482Q411 504 420 520T441 537Q467 537
498 519T552 476T574 437Q573 418 559 374T512 240Q493 191 478 147Q539 177 581 211ZM252 189T312 262T394 425Q367 437 343 437Q296 437 259 395T200 285T171 139Q252 189 312 262Z" />
<glyph unicode="&#xe1;" glyph-name="aacute" horiz-adv-x="700" d="M405 842T442 842Q484 842 513 820T543 761Q479 672 395 591Q389 590 378 590Q352 590 334 602T310 640Q327 662 340 685T359 716Q367 768 371 825Q405 842 442 842ZM539 177T581 211Q625 196
646 170T668 109Q668 85 634 60T553 17T473 0Q450 0 421 17T370 57T348 93Q348 103 356 120T375 155T388 179L363 193Q310 106 262 53T166 0Q134 0 99 28T39 96T14 167Q14 256 51 349T154 503T305 564Q335 564 366 537T406 482Q411 504 420 520T441 537Q467 537
498 519T552 476T574 437Q573 418 559 374T512 240Q493 191 478 147Q539 177 581 211ZM252 189T312 262T394 425Q367 437 343 437Q296 437 259 395T200 285T171 139Q252 189 312 262Z" />
<glyph unicode="&#xe2;" glyph-name="acircumflex" horiz-adv-x="700" d="M608 645Q590 592 531 592Q513 592 496 596L411 752Q374 714 344 680T271 593Q247 589 237 589Q193 589 164 612T134 672L343 839Q352 840 370 840Q402 840 431 833T481 810L608 645ZM539
177T581 211Q625 196 646 170T668 109Q668 85 634 60T553 17T473 0Q450 0 421 17T370 57T348 93Q348 103 356 120T375 155T388 179L363 193Q310 106 262 53T166 0Q134 0 99 28T39 96T14 167Q14 256 51 349T154 503T305 564Q335 564 366 537T406 482Q411 504 420
520T441 537Q467 537 498 519T552 476T574 437Q573 418 559 374T512 240Q493 191 478 147Q539 177 581 211ZM252 189T312 262T394 425Q367 437 343 437Q296 437 259 395T200 285T171 139Q252 189 312 262Z" />
<glyph unicode="&#xe3;" glyph-name="atilde" horiz-adv-x="700" d="M380 593T301 674L293 676L219 593Q215 592 207 592Q174 592 152 612T129 665Q164 707 218 751T306 796Q347 796 392 771T479 709H485L550 789Q555 790 565 790Q597 790 619 772T641 725Q611
678 558 636T465 593Q380 593 301 674ZM539 177T581 211Q625 196 646 170T668 109Q668 85 634 60T553 17T473 0Q450 0 421 17T370 57T348 93Q348 103 356 120T375 155T388 179L363 193Q310 106 262 53T166 0Q134 0 99 28T39 96T14 167Q14 256 51 349T154 503T305
564Q335 564 366 537T406 482Q411 504 420 520T441 537Q467 537 498 519T552 476T574 437Q573 418 559 374T512 240Q493 191 478 147Q539 177 581 211ZM252 189T312 262T394 425Q367 437 343 437Q296 437 259 395T200 285T171 139Q252 189 312 262Z" />
<glyph unicode="&#xe4;" glyph-name="adieresis" horiz-adv-x="700" d="M246 593T221 607T177 642T159 679Q159 705 172 731T206 768Q219 773 236 773Q270 773 305 758T348 719Q350 711 350 705Q350 684 337 657T303 612T264 593Q246 593 221 607ZM486 593T461
607T417 642T399 679Q399 705 412 731T446 768Q459 773 476 773Q510 773 545 758T588 719Q590 711 590 705Q590 684 577 657T543 612T504 593Q486 593 461 607ZM539 177T581 211Q625 196 646 170T668 109Q668 85 634 60T553 17T473 0Q450 0 421 17T370 57T348 93Q348
103 356 120T375 155T388 179L363 193Q310 106 262 53T166 0Q134 0 99 28T39 96T14 167Q14 256 51 349T154 503T305 564Q335 564 366 537T406 482Q411 504 420 520T441 537Q467 537 498 519T552 476T574 437Q573 418 559 374T512 240Q493 191 478 147Q539 177 581
211ZM252 189T312 262T394 425Q367 437 343 437Q296 437 259 395T200 285T171 139Q252 189 312 262Z" />
<glyph unicode="&#xe5;" glyph-name="aring" horiz-adv-x="700" d="M328 593T299 609T250 650T230 694Q230 769 268 834Q290 847 316 845Q314 853 314 857Q314 876 329 891T372 913Q417 909 454 889T513 842T535 787Q535 747 512 701T447 624T353 593Q328 593
299 609ZM410 820T361 818Q367 808 367 795Q351 774 343 747T334 691Q334 682 336 664Q421 694 441 802Q410 820 361 818ZM625 196T646 170T668 109Q668 85 634 60T553 17T473 0Q450 0 421 17T370 57T348 93Q348 103 356 120T375 155T388 179L363 193Q310 106 262
53T166 0Q134 0 99 28T39 96T14 167Q14 256 51 349T154 503T305 564Q335 564 366 537T406 482Q411 504 420 520T441 537Q467 537 498 519T552 476T574 437Q573 418 559 374T512 240Q493 191 478 147Q539 177 581 211Q625 196 646 170ZM252 189T312 262T394 425Q367
437 343 437Q296 437 259 395T200 285T171 139Q252 189 312 262Z" />
<glyph unicode="&#xe6;" glyph-name="ae" horiz-adv-x="844" d="M746 209T766 183T786 121Q786 91 750 63T659 17T557 0Q496 0 443 44T359 154Q318 89 264 45T166 0Q134 0 99 28T39 96T14 167Q14 256 51 349T154 503T305 564Q379 564 446 482Q519 564 605 564Q660
564 704 540T774 480T799 410Q799 368 762 328T656 257T500 213Q499 201 499 177Q499 148 501 132Q553 137 603 161T707 221Q746 209 766 183ZM581 412T555 373T515 288Q579 311 618 344T658 402Q658 430 619 440Q581 412 555 373ZM252 189T312 262T394 425Q367
437 343 437Q296 437 259 395T200 285T171 139Q252 189 312 262Z" />
<glyph unicode="&#xe7;" glyph-name="ccedilla" horiz-adv-x="516" d="M243 402T209 325T175 168Q175 156 177 132Q271 136 351 229Q400 220 429 192T459 121Q459 92 428 66T349 22T253 1L221 -53Q247 -43 275 -43Q326 -43 361 -75T396 -158Q396 -197 372 -229T301
-280T193 -300Q138 -300 89 -281T5 -221Q4 -217 4 -210Q4 -189 18 -176T55 -165Q80 -187 110 -198T170 -210Q208 -210 231 -195T255 -157Q255 -136 233 -120Q210 -124 186 -141L175 -142Q149 -142 130 -128T108 -91L161 17Q102 43 58 96T13 196Q13 275 49 361T151
506T297 564Q347 564 392 546T464 498T491 436Q491 405 464 381T393 356Q379 356 364 359Q339 420 309 445Q243 402 209 325Z" />
<glyph unicode="&#xe8;" glyph-name="egrave" horiz-adv-x="520" d="M362 615T344 603T300 591Q287 591 272 594Q242 628 207 677T151 762Q163 801 192 822T258 844Q294 844 328 825L331 778Q332 754 336 706L367 637Q362 615 344 603ZM185 0T133 31T47 109T13
196Q13 269 47 356T143 503T281 564Q336 564 380 540T450 480T475 410Q475 368 437 328T331 257T176 213Q175 201 175 177Q175 147 177 132Q227 137 276 159T383 221Q422 209 442 183T462 121Q462 91 426 63T335 17T233 0Q185 0 133 31ZM252 310T293 344T334 402Q334
430 295 440Q257 412 231 373T191 288Q252 310 293 344Z" />
<glyph unicode="&#xe9;" glyph-name="eacute" horiz-adv-x="520" d="M331 842T368 842Q410 842 439 820T469 761Q405 672 321 591Q315 590 304 590Q278 590 260 602T236 640Q253 662 266 685T285 716Q293 768 297 825Q331 842 368 842ZM185 0T133 31T47 109T13
196Q13 269 47 356T143 503T281 564Q336 564 380 540T450 480T475 410Q475 368 437 328T331 257T176 213Q175 201 175 177Q175 147 177 132Q227 137 276 159T383 221Q422 209 442 183T462 121Q462 91 426 63T335 17T233 0Q185 0 133 31ZM252 310T293 344T334 402Q334
430 295 440Q257 412 231 373T191 288Q252 310 293 344Z" />
<glyph unicode="&#xea;" glyph-name="ecircumflex" horiz-adv-x="520" d="M534 645Q516 592 457 592Q439 592 422 596L337 752Q300 714 270 680T197 593Q173 589 163 589Q119 589 90 612T60 672L269 839Q278 840 296 840Q328 840 357 833T407 810L534 645ZM185
0T133 31T47 109T13 196Q13 269 47 356T143 503T281 564Q336 564 380 540T450 480T475 410Q475 368 437 328T331 257T176 213Q175 201 175 177Q175 147 177 132Q227 137 276 159T383 221Q422 209 442 183T462 121Q462 91 426 63T335 17T233 0Q185 0 133 31ZM252
310T293 344T334 402Q334 430 295 440Q257 412 231 373T191 288Q252 310 293 344Z" />
<glyph unicode="&#xeb;" glyph-name="edieresis" horiz-adv-x="520" d="M172 593T147 607T103 642T85 679Q85 705 98 731T132 768Q145 773 162 773Q196 773 231 758T274 719Q276 711 276 705Q276 684 263 657T229 612T190 593Q172 593 147 607ZM412 593T387 607T343
642T325 679Q325 705 338 731T372 768Q385 773 402 773Q436 773 471 758T514 719Q516 711 516 705Q516 684 503 657T469 612T430 593Q412 593 387 607ZM185 0T133 31T47 109T13 196Q13 269 47 356T143 503T281 564Q336 564 380 540T450 480T475 410Q475 368 437
328T331 257T176 213Q175 201 175 177Q175 147 177 132Q227 137 276 159T383 221Q422 209 442 183T462 121Q462 91 426 63T335 17T233 0Q185 0 133 31ZM252 310T293 344T334 402Q334 430 295 440Q257 412 231 373T191 288Q252 310 293 344Z" />
<glyph unicode="&#xec;" glyph-name="igrave" horiz-adv-x="385" d="M221 615T203 603T159 591Q146 591 131 594Q101 628 66 677T10 762Q22 801 51 822T117 844Q153 844 187 825L190 778Q191 754 195 706L226 637Q221 615 203 603ZM127 0T95 17T39 58T15 98Q15
116 28 151T67 247Q87 294 97 320T107 358Q107 366 98 375T69 399Q47 416 37 426T26 447Q26 468 45 496T91 544T137 564Q160 564 187 544T234 497T254 452Q254 408 232 327T174 151Q198 162 216 174T266 211Q311 196 332 169T353 109Q353 83 320 58T238 17T153
0Q127 0 95 17Z" />
<glyph unicode="&#xed;" glyph-name="iacute" horiz-adv-x="385" d="M190 842T227 842Q269 842 298 820T328 761Q264 672 180 591Q174 590 163 590Q137 590 119 602T95 640Q112 662 125 685T144 716Q152 768 156 825Q190 842 227 842ZM127 0T95 17T39 58T15 98Q15
116 28 151T67 247Q87 294 97 320T107 358Q107 366 98 375T69 399Q47 416 37 426T26 447Q26 468 45 496T91 544T137 564Q160 564 187 544T234 497T254 452Q254 408 232 327T174 151Q198 162 216 174T266 211Q311 196 332 169T353 109Q353 83 320 58T238 17T153
0Q127 0 95 17Z" />
<glyph unicode="&#xee;" glyph-name="icircumflex" horiz-adv-x="385" d="M393 645Q375 592 316 592Q298 592 281 596L196 752Q159 714 129 680T56 593Q32 589 22 589Q-22 589 -51 612T-81 672L128 839Q137 840 155 840Q187 840 216 833T266 810L393 645ZM127
0T95 17T39 58T15 98Q15 116 28 151T67 247Q87 294 97 320T107 358Q107 366 98 375T69 399Q47 416 37 426T26 447Q26 468 45 496T91 544T137 564Q160 564 187 544T234 497T254 452Q254 408 232 327T174 151Q198 162 216 174T266 211Q311 196 332 169T353 109Q353
83 320 58T238 17T153 0Q127 0 95 17Z" />
<glyph unicode="&#xef;" glyph-name="idieresis" horiz-adv-x="385" d="M31 593T6 607T-38 642T-56 679Q-56 705 -43 731T-9 768Q4 773 21 773Q55 773 90 758T133 719Q135 711 135 705Q135 684 122 657T88 612T49 593Q31 593 6 607ZM271 593T246 607T202 642T184
679Q184 705 197 731T231 768Q244 773 261 773Q295 773 330 758T373 719Q375 711 375 705Q375 684 362 657T328 612T289 593Q271 593 246 607ZM127 0T95 17T39 58T15 98Q15 116 28 151T67 247Q87 294 97 320T107 358Q107 366 98 375T69 399Q47 416 37 426T26 447Q26
468 45 496T91 544T137 564Q160 564 187 544T234 497T254 452Q254 408 232 327T174 151Q198 162 216 174T266 211Q311 196 332 169T353 109Q353 83 320 58T238 17T153 0Q127 0 95 17Z" />
<glyph unicode="&#xf0;" glyph-name="eth" horiz-adv-x="542" d="M514 734T530 714T546 668Q546 646 535 627L463 609Q487 565 498 513T510 410Q510 313 465 218T342 61T169 0Q136 0 99 30T36 104T11 182Q11 260 43 337T130 464T247 514Q284 514 318 498T380 456Q377
492 366 526T337 586L198 538Q173 543 159 561T144 603Q144 627 158 645L256 664Q248 670 235 674T218 680Q193 689 182 695T171 713Q171 739 205 758T280 778Q311 778 343 758T400 708L484 740Q514 734 530 714ZM231 153T273 190T338 276T365 371Q333 387 305
387Q265 387 234 360T185 290T167 197Q167 166 174 139Q231 153 273 190Z" />
<glyph unicode="&#xf1;" glyph-name="ntilde" horiz-adv-x="660" d="M350 593T271 674L263 676L189 593Q185 592 177 592Q144 592 122 612T99 665Q134 707 188 751T276 796Q317 796 362 771T449 709H455L520 789Q525 790 535 790Q567 790 589 772T611 725Q581
678 528 636T435 593Q350 593 271 674ZM585 196T606 170T628 109Q628 85 594 60T513 17T433 0Q410 0 380 18T329 59T307 96Q307 106 329 174Q368 293 368 324Q368 336 362 336Q322 336 213 196Q209 180 205 156T198 122Q187 63 178 32T153 0Q127 0 95 17T39 58T15
98Q15 116 28 151T67 247Q87 294 97 320T107 358Q107 366 98 375T69 399Q47 416 37 426T26 447Q26 468 45 496T91 544T137 564Q158 564 185 545T233 502T254 464Q254 440 249 405T234 336Q307 432 355 484T430 537Q449 537 476 518T522 475T542 437Q541 420 528
379T491 270Q459 182 450 151Q481 167 498 178T541 211Q585 196 606 170Z" />
<glyph unicode="&#xf2;" glyph-name="ograve" horiz-adv-x="511" d="M363 615T345 603T301 591Q288 591 273 594Q243 628 208 677T152 762Q164 801 193 822T259 844Q295 844 329 825L332 778Q333 754 337 706L368 637Q363 615 345 603ZM307 557T365 523T457 440T490
344Q490 272 453 191T350 55T203 0Q163 0 118 29T43 101T12 177Q12 238 27 302T73 428Q102 444 131 444Q144 444 155 441Q151 453 151 469Q151 501 173 527T236 565Q307 557 365 523ZM250 142T296 210T357 372Q312 404 235 404Q216 404 206 403Q217 383 217 358Q191
317 177 268T163 168Q163 138 167 114Q250 142 296 210Z" />
<glyph unicode="&#xf3;" glyph-name="oacute" horiz-adv-x="511" d="M316 590T305 590Q279 590 261 602T237 640Q254 662 267 685T286 716Q294 768 298 825Q332 842 369 842Q411 842 440 820T470 761Q406 672 322 591Q316 590 305 590ZM307 557T365 523T457 440T490
344Q490 272 453 191T350 55T203 0Q163 0 118 29T43 101T12 177Q12 238 27 302T73 428Q102 444 131 444Q144 444 155 441Q151 453 151 469Q151 501 173 527T236 565Q307 557 365 523ZM250 142T296 210T357 372Q312 404 235 404Q216 404 206 403Q217 383 217 358Q191
317 177 268T163 168Q163 138 167 114Q250 142 296 210Z" />
<glyph unicode="&#xf4;" glyph-name="ocircumflex" horiz-adv-x="511" d="M535 645Q517 592 458 592Q440 592 423 596L338 752Q301 714 271 680T198 593Q174 589 164 589Q120 589 91 612T61 672L270 839Q279 840 297 840Q329 840 358 833T408 810L535 645ZM307
557T365 523T457 440T490 344Q490 272 453 191T350 55T203 0Q163 0 118 29T43 101T12 177Q12 238 27 302T73 428Q102 444 131 444Q144 444 155 441Q151 453 151 469Q151 501 173 527T236 565Q307 557 365 523ZM250 142T296 210T357 372Q312 404 235 404Q216 404
206 403Q217 383 217 358Q191 317 177 268T163 168Q163 138 167 114Q250 142 296 210Z" />
<glyph unicode="&#xf5;" glyph-name="otilde" horiz-adv-x="511" d="M482 790T492 790Q524 790 546 772T568 725Q538 678 485 636T392 593Q307 593 228 674L220 676L146 593Q142 592 134 592Q101 592 79 612T56 665Q91 707 145 751T233 796Q274 796 319 771T406
709H412L477 789Q482 790 492 790ZM307 557T365 523T457 440T490 344Q490 272 453 191T350 55T203 0Q163 0 118 29T43 101T12 177Q12 238 27 302T73 428Q102 444 131 444Q144 444 155 441Q151 453 151 469Q151 501 173 527T236 565Q307 557 365 523ZM250 142T296
210T357 372Q312 404 235 404Q216 404 206 403Q217 383 217 358Q191 317 177 268T163 168Q163 138 167 114Q250 142 296 210Z" />
<glyph unicode="&#xf6;" glyph-name="odieresis" horiz-adv-x="511" d="M173 593T148 607T104 642T86 679Q86 705 99 731T133 768Q146 773 163 773Q197 773 232 758T275 719Q277 711 277 705Q277 684 264 657T230 612T191 593Q173 593 148 607ZM413 593T388 607T344
642T326 679Q326 705 339 731T373 768Q386 773 403 773Q437 773 472 758T515 719Q517 711 517 705Q517 684 504 657T470 612T431 593Q413 593 388 607ZM307 557T365 523T457 440T490 344Q490 272 453 191T350 55T203 0Q163 0 118 29T43 101T12 177Q12 238 27 302T73
428Q102 444 131 444Q144 444 155 441Q151 453 151 469Q151 501 173 527T236 565Q307 557 365 523ZM250 142T296 210T357 372Q312 404 235 404Q216 404 206 403Q217 383 217 358Q191 317 177 268T163 168Q163 138 167 114Q250 142 296 210Z" />
<glyph unicode="&#xf7;" glyph-name="divide" horiz-adv-x="565" d="M272 438T255 454T225 494T213 536Q213 551 235 568T289 596T345 608Q362 608 378 592T404 555T414 518Q414 501 392 483T339 451T288 438Q272 438 255 454ZM39 261T28 280T16 323Q16 363 46
390Q271 393 504 417Q523 406 532 388T542 347Q542 327 534 309T513 277L242 262L59 251Q39 261 28 280ZM202 57T185 73T155 113T143 155Q143 170 165 187T219 215T275 227Q292 227 308 211T334 174T344 137Q344 120 322 102T269 70T218 57Q202 57 185 73Z" />
<glyph unicode="&#xf8;" glyph-name="oslash" horiz-adv-x="575" d="M543 548T558 512T574 448Q574 434 570 427Q558 409 527 381Q532 363 532 344Q532 272 495 191T392 55T245 0Q200 0 140 47Q113 24 97 12T71 0Q58 0 40 20T9 69T-5 116Q-5 133 54 181Q56 309
115 428Q144 444 173 444Q186 444 197 441Q193 453 193 469Q193 501 215 527T278 565Q367 554 430 503Q455 531 478 547T515 564Q519 564 523 562Q543 548 558 512ZM325 404T279 404Q258 404 248 403Q259 383 259 358Q236 323 215 260Q209 255 271 310Q306 340
365 393Q325 404 279 404ZM279 138T336 202T420 345Q278 212 205 155Q205 135 209 114Q279 138 336 202Z" />
<glyph unicode="&#xf9;" glyph-name="ugrave" horiz-adv-x="680" d="M396 615T378 603T334 591Q321 591 306 594Q276 628 241 677T185 762Q197 801 226 822T292 844Q328 844 362 825L365 778Q366 754 370 706L401 637Q396 615 378 603ZM133 0T103 19T51 64T30
106Q30 122 39 152T59 212T73 250Q86 285 96 316T107 358Q107 366 98 375T69 399Q47 416 37 426T26 447Q26 468 45 496T91 544T137 564Q158 564 185 545T233 502T254 464Q254 402 233 315T179 142Q245 197 297 264T370 384Q372 449 385 493T417 537Q443 537 474
519T528 476T550 437Q549 416 531 359T481 211Q462 155 459 147Q488 160 511 174T561 211Q605 196 626 170T648 109Q648 85 614 60T533 17T453 0Q432 0 403 17T352 57T329 91Q329 102 336 118T353 152T368 179L343 193Q288 92 249 46T159 0Q133 0 103 19Z" />
<glyph unicode="&#xfa;" glyph-name="uacute" horiz-adv-x="680" d="M365 842T402 842Q444 842 473 820T503 761Q439 672 355 591Q349 590 338 590Q312 590 294 602T270 640Q287 662 300 685T319 716Q327 768 331 825Q365 842 402 842ZM133 0T103 19T51 64T30
106Q30 122 39 152T59 212T73 250Q86 285 96 316T107 358Q107 366 98 375T69 399Q47 416 37 426T26 447Q26 468 45 496T91 544T137 564Q158 564 185 545T233 502T254 464Q254 402 233 315T179 142Q245 197 297 264T370 384Q372 449 385 493T417 537Q443 537 474
519T528 476T550 437Q549 416 531 359T481 211Q462 155 459 147Q488 160 511 174T561 211Q605 196 626 170T648 109Q648 85 614 60T533 17T453 0Q432 0 403 17T352 57T329 91Q329 102 336 118T353 152T368 179L343 193Q288 92 249 46T159 0Q133 0 103 19Z" />
<glyph unicode="&#xfb;" glyph-name="ucircumflex" horiz-adv-x="680" d="M568 645Q550 592 491 592Q473 592 456 596L371 752Q334 714 304 680T231 593Q207 589 197 589Q153 589 124 612T94 672L303 839Q312 840 330 840Q362 840 391 833T441 810L568 645ZM133
0T103 19T51 64T30 106Q30 122 39 152T59 212T73 250Q86 285 96 316T107 358Q107 366 98 375T69 399Q47 416 37 426T26 447Q26 468 45 496T91 544T137 564Q158 564 185 545T233 502T254 464Q254 402 233 315T179 142Q245 197 297 264T370 384Q372 449 385 493T417
537Q443 537 474 519T528 476T550 437Q549 416 531 359T481 211Q462 155 459 147Q488 160 511 174T561 211Q605 196 626 170T648 109Q648 85 614 60T533 17T453 0Q432 0 403 17T352 57T329 91Q329 102 336 118T353 152T368 179L343 193Q288 92 249 46T159 0Q133
0 103 19Z" />
<glyph unicode="&#xfc;" glyph-name="udieresis" horiz-adv-x="680" d="M206 593T181 607T137 642T119 679Q119 705 132 731T166 768Q179 773 196 773Q230 773 265 758T308 719Q310 711 310 705Q310 684 297 657T263 612T224 593Q206 593 181 607ZM446 593T421
607T377 642T359 679Q359 705 372 731T406 768Q419 773 436 773Q470 773 505 758T548 719Q550 711 550 705Q550 684 537 657T503 612T464 593Q446 593 421 607ZM133 0T103 19T51 64T30 106Q30 122 39 152T59 212T73 250Q86 285 96 316T107 358Q107 366 98 375T69
399Q47 416 37 426T26 447Q26 468 45 496T91 544T137 564Q158 564 185 545T233 502T254 464Q254 402 233 315T179 142Q245 197 297 264T370 384Q372 449 385 493T417 537Q443 537 474 519T528 476T550 437Q549 416 531 359T481 211Q462 155 459 147Q488 160 511
174T561 211Q605 196 626 170T648 109Q648 85 614 60T533 17T453 0Q432 0 403 17T352 57T329 91Q329 102 336 118T353 152T368 179L343 193Q288 92 249 46T159 0Q133 0 103 19Z" />
<glyph unicode="&#xfd;" glyph-name="yacute" horiz-adv-x="569" d="M358 842T395 842Q437 842 466 820T496 761Q432 672 348 591Q342 590 331 590Q305 590 287 602T263 640Q280 662 293 685T312 716Q320 768 324 825Q358 842 395 842ZM314 110T247 71T144 32Q129
32 105 48T62 88T43 130Q43 148 51 177T79 261Q107 339 107 358Q107 366 98 375T69 399Q47 416 37 426T26 447Q26 468 45 496T91 544T137 564Q158 564 185 545T233 502T254 464Q254 408 239 331T194 172Q275 214 356 280Q369 408 381 472T415 537Q430 537 460 517T515
471T540 431Q540 410 509 241T444 -85T395 -266Q373 -302 323 -329T226 -356Q186 -356 141 -329T65 -263T34 -190Q34 -146 134 -62T394 133L376 160Q314 110 247 71ZM184 -141T184 -195Q184 -214 204 -230T254 -251Q287 -204 309 -150T360 -3Q184 -141 184 -195Z"
/>
<glyph unicode="&#xfe;" glyph-name="thorn" horiz-adv-x="559" d="M395 529T439 509T508 454T534 375Q534 299 489 211T369 61T208 0Q165 0 123 29Q109 -27 96 -137Q87 -207 80 -236T57 -265Q31 -265 0 -248T-54 -208T-77 -167Q-77 -150 -64 -97T-20 64Q30 243
49 321Q77 436 97 556T118 725Q119 746 132 760T165 775Q192 775 225 755T282 707T306 660Q305 612 261 498L340 530Q395 529 439 509ZM244 126T281 168T343 268T368 368Q368 379 350 391T308 411T264 420Q253 420 246 416Q230 407 215 370T191 283T181 194Q181
163 187 145T208 126Q244 126 281 168Z" />
<glyph unicode="&#xff;" glyph-name="ydieresis" horiz-adv-x="569" d="M199 593T174 607T130 642T112 679Q112 705 125 731T159 768Q172 773 189 773Q223 773 258 758T301 719Q303 711 303 705Q303 684 290 657T256 612T217 593Q199 593 174 607ZM439 593T414
607T370 642T352 679Q352 705 365 731T399 768Q412 773 429 773Q463 773 498 758T541 719Q543 711 543 705Q543 684 530 657T496 612T457 593Q439 593 414 607ZM314 110T247 71T144 32Q129 32 105 48T62 88T43 130Q43 148 51 177T79 261Q107 339 107 358Q107 366
98 375T69 399Q47 416 37 426T26 447Q26 468 45 496T91 544T137 564Q158 564 185 545T233 502T254 464Q254 408 239 331T194 172Q275 214 356 280Q369 408 381 472T415 537Q430 537 460 517T515 471T540 431Q540 410 509 241T444 -85T395 -266Q373 -302 323 -329T226
-356Q186 -356 141 -329T65 -263T34 -190Q34 -146 134 -62T394 133L376 160Q314 110 247 71ZM184 -141T184 -195Q184 -214 204 -230T254 -251Q287 -204 309 -150T360 -3Q184 -141 184 -195Z" />
<glyph unicode="&#x2013;" glyph-name="endash" horiz-adv-x="604" d="M60 271T49 290T37 333Q37 373 67 400Q292 403 525 427Q544 416 553 398T563 357Q563 337 555 319T534 287L263 272L80 261Q60 271 49 290Z" />
<glyph unicode="&#x2014;" glyph-name="emdash" horiz-adv-x="707" d="M60 271T49 290T37 333Q37 373 67 400Q146 400 333 411T629 433Q648 422 657 404T667 363Q667 343 659 325T638 293Q522 287 362 278T80 261Q60 271 49 290Z" />
<glyph unicode="&#x2018;" glyph-name="quoteleft" horiz-adv-x="268" d="M180 543T191 547T216 551Q233 551 251 533T281 491T293 448Q293 431 273 412T223 380T164 367Q122 367 95 410T68 508Q68 561 99 622T185 719Q237 722 239 665Q190 628 149 545L165 534Q180
543 191 547Z" />
<glyph unicode="&#x2019;" glyph-name="quoteright" horiz-adv-x="275" d="M140 539T114 539Q95 539 78 558T50 602T39 645Q39 662 59 679T109 708T167 720Q208 720 234 681T261 585Q261 551 246 510T200 432T130 370Q76 371 78 427Q106 446 131 476T174 540L163
554Q140 539 114 539Z" />
<glyph unicode="&#x201a;" glyph-name="quotesinglbase" horiz-adv-x="335" d="M120 2T94 2Q75 2 58 21T30 65T19 108Q19 125 39 142T89 171T147 183Q188 183 214 144T241 49Q241 -4 211 -54T119 -136Q65 -135 67 -79Q113 -47 156 8L147 19Q120 2 94 2Z" />
<glyph unicode="&#x201c;" glyph-name="quotedblleft" horiz-adv-x="529" d="M180 543T191 547T216 551Q233 551 251 533T281 491T293 448Q293 431 273 412T223 380T164 367Q122 367 95 410T68 508Q68 561 99 622T185 719Q237 722 239 665Q190 628 149 545L165
534Q180 543 191 547ZM453 543T464 547T489 551Q506 551 524 533T554 491T566 448Q566 431 546 412T496 380T437 367Q395 367 368 410T341 508Q341 561 372 622T458 719Q510 722 512 665Q463 628 422 545L438 534Q453 543 464 547Z" />
<glyph unicode="&#x201d;" glyph-name="quotedblright" horiz-adv-x="535" d="M140 539T114 539Q95 539 78 558T50 602T39 645Q39 662 59 679T109 708T167 720Q208 720 234 681T261 585Q261 551 246 510T200 432T130 370Q76 371 78 427Q106 446 131 476T174 540L163
554Q140 539 114 539ZM410 539T384 539Q365 539 348 558T320 602T309 645Q309 662 329 679T379 708T437 720Q478 720 504 681T531 585Q531 551 516 510T470 432T400 370Q346 371 348 427Q376 446 401 476T444 540L433 554Q410 539 384 539Z" />
<glyph unicode="&#x201e;" glyph-name="quotedblbase" horiz-adv-x="645" d="M120 2T94 2Q75 2 58 21T30 65T19 108Q19 125 39 142T89 171T147 183Q188 183 214 144T241 49Q241 -4 211 -54T119 -136Q65 -135 67 -79Q113 -47 156 8L147 19Q120 2 94 2ZM430 2T404
2Q385 2 368 21T340 65T329 108Q329 125 349 142T399 171T457 183Q498 183 524 144T551 49Q551 -4 521 -54T429 -136Q375 -135 377 -79Q423 -47 466 8L457 19Q430 2 404 2Z" />
<glyph unicode="&#x2022;" glyph-name="bullet" horiz-adv-x="356" d="M137 240T115 262T78 316T63 372Q63 392 91 415T158 454T228 470Q249 470 268 449T301 398T314 348Q314 326 286 301T220 258T157 240Q137 240 115 262Z" />
<glyph unicode="&#x2039;" glyph-name="guilsinglleft" horiz-adv-x="408" d="M48 308Q46 320 46 327Q46 364 66 390L320 582Q357 576 376 553T395 497Q395 466 379 440L165 323L346 214Q348 205 348 189Q348 145 318 117T239 84L48 308Z" />
<glyph unicode="&#x203a;" glyph-name="guilsinglright" horiz-adv-x="428" d="M76 90T49 115T22 179Q22 194 27 212L272 343L84 453Q80 468 80 484Q80 524 106 551T180 582L392 385Q397 375 397 358Q397 329 383 303L124 89Q76 90 49 115Z" />
</font>
</defs>
</svg>
