<?xml version="1.0" standalone="no"?>
<!DOCTYPE svg PUBLIC "-//W3C//DTD SVG 1.1//EN" "http://www.w3.org/Graphics/SVG/1.1/DTD/svg11.dtd">
<svg xmlns="http://www.w3.org/2000/svg">
<defs >
<font id="Eczar" horiz-adv-x="583" ><font-face
    font-family="Eczar"
    units-per-em="1000"
    panose-1="2 0 6 3 4 3 0 0 0 4"
    ascent="1143"
    descent="-634"
    alphabetic="0" />
<glyph unicode=" " glyph-name="space" horiz-adv-x="265" />
<glyph unicode="!" glyph-name="exclam" horiz-adv-x="297" d="M88 636Q108 656 152 656Q199 656 211 634L177 210H120L88 636ZM144 124Q209 100 217 52Q202 2 156 -20Q101 -9 80 41Q89 96 144 124Z" />
<glyph unicode="&quot;" glyph-name="quotedbl" horiz-adv-x="343" d="M28 475Q61 564 70 674L97 694L169 678L168 669Q149 547 94 454L28 475ZM196 475Q229 564 238 674L265 694L337 678L336 669Q317 547 262 454L196 475Z" />
<glyph unicode="#" glyph-name="numbersign" horiz-adv-x="622" d="M462 355L436 190H533V138H428L406 -9L343 0L364 138H220L198 -9L135 0L156 138H60V190H164L189 355H89V407H197L216 530L279 522L261 407H405L424 530L487 522L469 407H562V355H462ZM397 355H254L228
190H372L397 355Z" />
<glyph unicode="$" glyph-name="dollar" horiz-adv-x="530" d="M488 172Q488 99 442 50T323 -14V-145H260V-20Q205 -18 146 0T56 49L55 84Q55 158 66 218H120L134 98Q203 46 301 46L335 48Q393 79 393 150Q393 211 323 251L161 335Q60 395 60 489Q60 565 117 612T260
668V785H322V669Q378 665 458 639L459 604Q459 531 448 470H394L384 561Q327 605 247 605L201 601Q153 572 153 510Q153 453 222 415L382 334Q488 273 488 172Z" />
<glyph unicode="%" glyph-name="percent" horiz-adv-x="823" d="M60 434Q60 495 101 541T201 587T301 541T343 431Q343 369 304 327T206 284Q146 284 103 327T60 434ZM600 582L649 541L201 -28L151 13L600 582ZM233 341Q274 370 274 431Q274 471 252 499T191 528L164
525Q128 493 128 437Q128 396 150 368T214 340L233 341ZM480 130Q480 191 521 237T621 283T721 237T763 127Q763 65 724 23T626 -20Q566 -20 523 23T480 130ZM653 37Q694 66 694 127Q694 167 672 195T611 224L584 221Q548 189 548 133Q548 92 570 64T634 36L653
37Z" />
<glyph unicode="&amp;" glyph-name="ampersand" horiz-adv-x="666" d="M663 332L634 347Q586 373 541 373L518 372Q558 296 558 220Q558 113 485 44T292 -25Q176 -25 100 36T23 193Q23 251 52 296T133 364Q44 412 44 504Q44 576 101 622T251 668Q334 668 434 630L405
543L211 606Q138 572 138 490Q138 426 185 389L291 363L282 313Q208 313 163 273T118 170Q118 106 167 71T288 35Q342 35 391 55Q468 106 468 208Q468 278 430 346Q396 331 357 306L330 355Q509 457 590 457Q639 457 686 425L663 332Z" />
<glyph unicode="&apos;" glyph-name="quotesingle" horiz-adv-x="169" d="M-21 525Q15 623 20 724L47 744L119 728Q106 614 44 504L-21 525Z" />
<glyph unicode="(" glyph-name="parenleft" horiz-adv-x="275" d="M190 -155Q24 73 24 294Q24 518 201 732L253 706Q118 503 118 299Q118 86 244 -128L190 -155Z" />
<glyph unicode=")" glyph-name="parenright" horiz-adv-x="274" d="M31 -128Q157 86 157 299Q157 503 22 706L74 732Q251 518 251 294Q251 73 85 -155L31 -128Z" />
<glyph unicode="*" glyph-name="asterisk" horiz-adv-x="369" d="M187 607L147 604L122 736L200 755L187 607ZM213 579L198 616L315 681L357 612L213 579ZM156 589L147 550L13 566L20 647L156 589ZM199 546L230 572L329 480L275 419L199 546ZM161 551L195 530L139
407L64 439L161 551Z" />
<glyph unicode="+" glyph-name="plus" horiz-adv-x="571" d="M511 199H324V0H247V199H60V265H247V465H324V265H511V199Z" />
<glyph unicode="," glyph-name="comma" horiz-adv-x="244" d="M42 -108Q105 -55 110 0L58 40Q66 94 119 120Q152 110 171 84T190 25Q190 -21 159 -68T71 -146L42 -108Z" />
<glyph unicode="-" glyph-name="hyphen" horiz-adv-x="353" d="M30 299L39 319H293L323 269L314 249H60L30 299Z" />
<glyph unicode="." glyph-name="period" horiz-adv-x="200" d="M148 -33Q105 -17 81 19Q102 64 135 85Q171 72 200 33Q183 -11 148 -33Z" />
<glyph unicode="/" glyph-name="slash" horiz-adv-x="403" d="M340 707L403 680L97 -125L33 -100L340 707Z" />
<glyph unicode="0" glyph-name="zero" horiz-adv-x="564" d="M46 316Q46 467 114 564T293 661Q402 661 458 571T515 341Q515 182 450 86T277 -10Q174 -10 110 80T46 316ZM220 588Q179 551 159 475T138 330Q138 215 182 135T298 55Q319 55 340 62Q383 101 402 176T422
327Q422 440 382 517T266 595Q244 595 220 588Z" />
<glyph unicode="1" glyph-name="one" horiz-adv-x="407" d="M387 48L381 0H44L38 34Q107 60 175 76V557L53 499L25 544L217 670L264 645V65L387 48Z" />
<glyph unicode="2" glyph-name="two" horiz-adv-x="545" d="M488 165Q479 65 461 0H62L44 64L276 325Q361 426 361 495Q361 536 335 567T256 599Q207 599 144 580L126 455L69 456Q60 510 60 564L61 607Q165 670 267 670Q347 670 402 620T458 493Q458 449 436 406T328
264L155 79L158 70L402 84L434 173L488 165Z" />
<glyph unicode="3" glyph-name="three" horiz-adv-x="531" d="M326 354Q389 340 432 287T476 170Q476 88 414 35T253 -19Q150 -19 60 28L78 118Q188 63 293 63Q324 63 349 69Q386 109 386 161Q386 215 343 252T220 290L149 287L147 355H164Q259 358 303 398T347
494Q347 543 314 575T220 607Q187 607 151 596L133 486L75 487Q66 541 66 578L67 616Q145 670 250 670Q334 670 388 624T442 508Q442 460 413 418T326 354Z" />
<glyph unicode="4" glyph-name="four" horiz-adv-x="566" d="M415 175V59L498 48L492 0H221L215 34L326 70V175H48L25 232L338 670L415 660V247L530 250L531 200L503 175H415ZM326 245V483L338 574L123 239L326 245Z" />
<glyph unicode="5" glyph-name="five" horiz-adv-x="547" d="M260 391Q361 391 426 336T492 189T430 39T272 -20Q218 -20 158 -1T49 51L88 133Q194 61 303 61L357 66Q406 110 406 169Q406 237 360 272T248 307Q192 307 132 284L83 327L118 650H458L459 605Q459
542 450 488L393 487L382 571L182 580L162 373Q198 391 260 391Z" />
<glyph unicode="6" glyph-name="six" horiz-adv-x="529" d="M171 325Q250 393 332 393Q401 393 447 336T494 196Q494 105 434 43T282 -20Q176 -20 108 59T40 261Q40 353 81 443T211 595T435 664L436 563H288Q216 530 176 447T135 268Q135 171 179 109T306 46L323
47Q399 86 399 181Q399 239 371 281T295 323Q248 323 194 284L171 325Z" />
<glyph unicode="7" glyph-name="seven" horiz-adv-x="459" d="M450 575Q294 328 183 -11L91 15Q202 324 367 568L360 577L102 566L91 482L34 483Q25 537 25 604L26 650H414L450 575Z" />
<glyph unicode="8" glyph-name="eight" horiz-adv-x="505" d="M319 349Q388 311 426 269T465 164Q465 84 405 32T247 -20Q155 -20 98 27T40 150Q40 260 180 330Q55 397 55 502Q55 574 110 621T256 668Q340 668 392 626T445 518Q445 421 319 349ZM144 512Q144 467
177 437T275 373Q362 432 362 504Q362 550 331 581T249 613Q217 613 179 598Q144 555 144 512ZM343 56Q374 109 374 148Q374 234 228 306Q185 283 162 244T139 162Q139 111 171 76T262 41Q298 41 343 56Z" />
<glyph unicode="9" glyph-name="nine" horiz-adv-x="502" d="M336 261Q285 244 237 244Q145 244 88 305T30 459Q30 551 91 610T245 670Q347 670 409 591T472 381Q472 216 367 105T105 -8L89 101L247 92Q378 174 378 374Q378 474 343 541T238 608Q218 608 194 602Q161
583 143 544T125 461Q125 394 166 350T272 306Q295 306 325 314L336 261Z" />
<glyph unicode=":" glyph-name="colon" horiz-adv-x="327" d="M227 359Q212 309 166 287Q111 298 90 348Q99 403 154 431Q219 408 227 359ZM227 52Q212 2 166 -20Q111 -9 90 41Q99 96 154 124Q219 101 227 52Z" />
<glyph unicode=";" glyph-name="semicolon" horiz-adv-x="245" d="M191 359Q176 309 130 287Q75 298 54 348Q63 403 118 431Q183 407 191 359ZM42 -108Q105 -55 110 0L58 40Q66 94 119 120Q152 110 171 84T190 25Q190 -21 159 -68T71 -146L42 -108Z" />
<glyph unicode="&lt;" glyph-name="less" horiz-adv-x="573" d="M493 446L164 241L165 235L490 52L457 -6L88 202L80 272L458 500L493 446Z" />
<glyph unicode="=" glyph-name="equal" horiz-adv-x="592" d="M532 304H60V369H532V304ZM532 124H60V189H532V124Z" />
<glyph unicode="&gt;" glyph-name="greater" horiz-adv-x="573" d="M115 500L493 272L485 202L116 -6L83 52L408 235L409 241L80 446L115 500Z" />
<glyph unicode="?" glyph-name="question" horiz-adv-x="582" d="M279 670Q360 670 414 619T469 493Q469 426 414 375L335 307Q297 271 297 232H216Q216 275 233 309T303 385T372 451T389 512Q389 571 339 609Q265 614 183 566L173 465H116L101 606Q185 670 279
670ZM270 124Q335 101 343 52Q328 2 282 -20Q227 -9 206 41Q215 96 270 124Z" />
<glyph unicode="@" glyph-name="at" horiz-adv-x="1036" d="M533 668Q664 668 756 615T893 478T939 299Q939 173 865 86T666 -15Q651 -13 629 8T595 54L483 -14L459 -15Q399 -15 363 19T326 104Q326 172 396 211L591 217V319Q591 365 580 388T541 426Q480 424
428 409L420 306L367 302Q340 366 338 421Q382 446 456 469T561 493Q589 493 619 473T664 430T680 348V89Q680 54 704 54Q719 54 745 70Q792 101 818 163T844 298Q844 437 761 522T538 608Q390 608 295 515T200 279Q200 139 293 18L232 -22Q101 119 101 285Q101
388 154 475T305 615T533 668ZM446 58Q505 56 591 95V164L541 167Q420 167 420 104Q420 74 446 58Z" />
<glyph unicode="A" glyph-name="A" horiz-adv-x="696" d="M696 47L695 0H427L421 32Q453 47 519 67L466 201H196L140 59L245 47L244 0H-14L-20 32Q5 44 63 62L297 629L290 647L369 674L623 55L696 47ZM442 262L330 544L220 262H442Z" />
<glyph unicode="B" glyph-name="B" horiz-adv-x="619" d="M406 347Q490 337 537 290T584 179Q584 102 516 53T334 0H36L30 32L115 63V598L44 602L45 650Q211 658 306 658Q418 658 483 614T549 492Q549 437 513 396T406 347ZM208 584V368H258Q354 368 400 402T446
485Q446 525 418 558T345 599L208 584ZM308 61L330 60Q400 60 438 94T476 177Q476 232 430 272T314 314H208V69L308 61Z" />
<glyph unicode="C" glyph-name="C" horiz-adv-x="553" d="M533 73L337 -15Q191 -16 103 74T15 317Q15 470 101 570T324 670Q436 670 517 609L518 578Q518 508 500 454H440L433 556Q362 599 277 599L236 597Q174 562 146 491T117 340Q117 219 178 143T340 67L361
68L515 122L533 73Z" />
<glyph unicode="D" glyph-name="D" horiz-adv-x="655" d="M342 658Q467 658 551 562T635 329Q635 185 548 95T318 0H36L30 32L115 63V598L44 602L45 650Q203 658 342 658ZM301 66Q405 66 468 139T531 329Q531 418 492 493T392 599L208 584V79Q257 66 301 66Z" />
<glyph unicode="E" glyph-name="E" horiz-adv-x="563" d="M514 179Q517 80 502 0H36L30 32L115 63V598L44 602L45 650H502L503 616Q503 546 492 485H438L426 577L208 592V354L437 371V284L208 294V65L435 75L461 183L514 179Z" />
<glyph unicode="F" glyph-name="F" horiz-adv-x="552" d="M502 650L503 616Q503 546 492 485H438L426 577L208 592V334L437 351V264L208 274V61L325 47L324 0H36L30 32L115 63V598L44 602L45 650H502Z" />
<glyph unicode="G" glyph-name="G" horiz-adv-x="670" d="M564 243V71L369 -20L344 -21Q196 -21 106 72T15 311Q15 405 53 487T170 619T359 670Q479 670 559 609L560 585Q560 528 542 464H483L475 553Q389 600 292 600L245 597Q180 561 149 486T117 319Q117 204
179 129T342 54Q400 54 471 76V227Q402 247 361 266L367 301H639L640 252L564 243Z" />
<glyph unicode="H" glyph-name="H" horiz-adv-x="751" d="M721 47L720 0H452L446 32L531 63V287H208V58L305 47L304 0H36L30 32L115 63V594L38 603L39 650H287L293 618L208 587V357H531V594L454 603L455 650H703L709 618L624 587V58L721 47Z" />
<glyph unicode="I" glyph-name="I" horiz-adv-x="335" d="M305 47L304 0H36L30 32L115 63V594L38 603L39 650H287L293 618L208 587V58L305 47Z" />
<glyph unicode="J" glyph-name="J" horiz-adv-x="347" d="M317 618L232 587V81Q232 -6 178 -67T32 -182L-4 -131Q67 -86 103 -29T139 128V592L42 603L43 650H311L317 618Z" />
<glyph unicode="K" glyph-name="K" horiz-adv-x="651" d="M638 48L637 0H499L274 309L208 238V58L305 47L304 0H36L30 32L115 63V594L37 603L38 650H287L293 618L208 587V330L455 595L385 603L386 650H603L609 618L539 592L337 376L580 52L638 48Z" />
<glyph unicode="L" glyph-name="L" horiz-adv-x="548" d="M534 199Q536 81 522 0H36L30 32L115 63V594L38 603L39 650H287L293 618L208 587V67L452 77L478 203L534 199Z" />
<glyph unicode="M" glyph-name="M" horiz-adv-x="901" d="M871 47L870 0H602L596 32L682 63L676 420L690 585L485 16L398 -7L187 577L206 420L197 57L281 47L280 0H36L30 32Q59 46 119 64L138 594L59 603L60 650H261L456 108L648 650H831L837 618Q812 606 763
591L772 58L871 47Z" />
<glyph unicode="N" glyph-name="N" horiz-adv-x="745" d="M715 618L630 587V0L527 -11L172 557L190 418V57L279 47L278 0H36L30 32L115 63V595L50 603L51 650H229L573 96L554 232V592L457 603L458 650H709L715 618Z" />
<glyph unicode="O" glyph-name="O" horiz-adv-x="652" d="M321 670Q457 670 544 571T632 317Q632 166 547 73T329 -20Q194 -20 107 75T20 321Q20 475 105 572T321 670ZM213 584Q172 553 147 484T122 335Q122 207 183 129T347 51Q384 51 424 61Q471 91 500 159T529
312Q529 440 469 520T309 601Q263 601 213 584Z" />
<glyph unicode="P" glyph-name="P" horiz-adv-x="581" d="M324 658Q429 658 495 600T561 451Q561 365 501 307T344 245H208V61L325 47L324 0H36L30 32L115 63V598L44 602L45 650L324 658ZM310 303Q385 303 422 347T459 454Q459 502 439 541T381 599L208 584V312Q268
303 310 303Z" />
<glyph unicode="Q" glyph-name="Q" horiz-adv-x="691" d="M712 -162L391 -14Q361 -20 329 -20Q194 -20 107 75T20 321Q20 475 105 572T321 670Q457 670 544 571T632 317Q632 206 589 130T472 15L751 -64L712 -162ZM122 335Q122 207 183 129T347 51Q384 51 424
61Q471 91 500 159T529 312Q529 440 469 520T309 601Q263 601 213 584Q172 553 147 484T122 335Z" />
<glyph unicode="R" glyph-name="R" horiz-adv-x="638" d="M623 47L622 0H470L327 260L208 259V59L315 47L314 0H36L30 32L115 63V598L44 602L45 650L324 658Q430 658 495 604T561 465Q561 405 524 352T419 274L555 53L623 47ZM208 325Q253 318 293 318Q385 318
422 361T459 465Q459 561 381 599L208 584V325Z" />
<glyph unicode="S" glyph-name="S" horiz-adv-x="533" d="M488 172Q488 88 425 34T267 -20Q213 -20 150 -2T56 49L55 84Q55 158 66 218H120L134 98Q203 46 301 46L335 48Q393 79 393 150Q393 211 323 251L161 335Q60 395 60 489Q60 569 126 619T293 670Q363 670
458 639L459 604Q459 531 448 470H394L384 561Q327 605 247 605L201 601Q153 572 153 510Q153 453 222 415L382 334Q488 273 488 172Z" />
<glyph unicode="T" glyph-name="T" horiz-adv-x="597" d="M586 656L587 621Q587 548 576 487H522L509 587L345 593V60L459 47L458 0H149L143 32L252 66V593L88 587L75 487H21Q10 548 10 621L11 656Q135 652 299 652Q465 652 586 656Z" />
<glyph unicode="U" glyph-name="U" horiz-adv-x="700" d="M690 618L605 587V273Q598 -18 364 -18Q234 -18 161 62T87 283V594L10 603L11 650H259L265 618L180 587V273Q180 170 229 114T368 57Q416 57 463 77Q531 125 531 273V593L442 603L443 650H684L690 618Z" />
<glyph unicode="V" glyph-name="V" horiz-adv-x="680" d="M680 618L602 589L388 -2Q339 -12 287 -10L79 594L0 603L1 650H268L274 618L183 585L322 177L335 59H340L525 592L434 603L435 650H674L680 618Z" />
<glyph unicode="W" glyph-name="W" horiz-adv-x="919" d="M919 618Q884 602 840 589L673 -3Q631 -11 593 -11L564 -10L456 372H454L435 259L353 -3Q311 -11 275 -11L246 -10L75 594L0 603L1 650H258L264 618L176 586L289 175L300 59H304L426 478L388 614L483 639L601
173L615 59H618L764 591L663 603L664 650H913L919 618Z" />
<glyph unicode="X" glyph-name="X" horiz-adv-x="670" d="M660 47L659 0H408L402 32Q432 46 472 58L322 285L174 57L263 47L262 0H16L10 32Q43 47 90 61L284 343L116 595L48 603L49 650H276L282 618L224 596L356 400L472 594L398 603L399 650H619L625 618Q596
604 550 590L391 347L588 54L660 47Z" />
<glyph unicode="Y" glyph-name="Y" horiz-adv-x="597" d="M341 57L423 47L422 0H176L170 32L248 61V252L62 596L0 603L1 650H228L234 618Q210 606 167 593L276 388L302 307H307L449 594L370 603L371 650H591L597 618Q562 602 526 592L341 249V57Z" />
<glyph unicode="Z" glyph-name="Z" horiz-adv-x="574" d="M539 185Q532 103 513 0H56L35 45L413 588L139 578L126 468H72Q61 529 61 613L62 650H509L530 604L157 74L449 76L481 193L539 185Z" />
<glyph unicode="[" glyph-name="bracketleft" horiz-adv-x="346" d="M312 656L182 634V-44L312 -66L306 -122H99V712H306L312 656Z" />
<glyph unicode="\" glyph-name="backslash" horiz-adv-x="388" d="M4 681L70 707L378 -102L310 -126L4 681Z" />
<glyph unicode="]" glyph-name="bracketright" horiz-adv-x="350" d="M248 712V-122H41L35 -66L165 -44V634L35 656L41 712H248Z" />
<glyph unicode="^" glyph-name="asciicircum" horiz-adv-x="539" d="M301 648L509 365L462 331L274 595H267L88 325L40 358L236 648H301Z" />
<glyph unicode="_" glyph-name="underscore" horiz-adv-x="532" d="M522 -204H10V-139H522V-204Z" />
<glyph unicode="`" glyph-name="grave" horiz-adv-x="285" d="M203 531Q127 603 40 674L113 734L255 574L203 531Z" />
<glyph unicode="a" glyph-name="a" horiz-adv-x="507" d="M492 31L391 -15Q376 -13 353 8T320 54L207 -14L183 -15Q123 -15 87 19T50 104Q50 172 120 211L315 216V319Q315 365 304 388T266 426Q205 424 153 409L145 305L92 301Q66 348 63 421Q107 446 181 469T286
493Q314 493 344 473T389 430T405 348V86Q405 66 431 66Q446 66 477 75L492 31ZM170 58Q229 56 315 95V164L265 167Q144 167 144 104Q144 74 170 58Z" />
<glyph unicode="b" glyph-name="b" horiz-adv-x="520" d="M273 481L311 485Q390 485 442 418T495 250Q495 134 422 58T237 -19Q160 -19 66 24V663L-8 657L-20 704Q47 733 116 735L155 699V406L273 481ZM316 50Q355 74 378 124T401 230Q401 301 366 352T278 403Q230
403 155 353V84Q206 47 277 47L316 50Z" />
<glyph unicode="c" glyph-name="c" horiz-adv-x="415" d="M258 -15Q150 -16 85 52T20 234Q20 345 84 416T248 488Q332 488 400 422L347 351Q259 419 175 425Q113 353 113 254Q113 168 155 114T273 59Q325 59 377 82L394 40L258 -15Z" />
<glyph unicode="d" glyph-name="d" horiz-adv-x="541" d="M531 31L430 -15Q414 -13 391 9T358 58L249 -15Q150 -16 85 56T20 233Q20 342 93 416T272 490Q315 490 355 475V663L280 657L268 704Q335 733 404 735L444 699V86Q444 66 470 66Q485 66 516 75L531 31ZM114
244Q114 168 151 118T250 67Q297 67 355 102V380Q298 424 227 424L185 420Q114 357 114 244Z" />
<glyph unicode="e" glyph-name="e" horiz-adv-x="451" d="M114 262Q114 163 159 112T278 61Q332 61 406 94L421 51L265 -15Q155 -15 88 52T20 226Q20 334 86 411T249 488Q301 488 342 465T406 402T428 313L371 257L114 262ZM199 427Q142 397 122 315L341 325Q331
373 292 402T199 427Z" />
<glyph unicode="f" glyph-name="f" horiz-adv-x="326" d="M305 622Q254 671 197 671Q176 671 154 663L177 468H282L285 440L238 391H172V66Q235 60 263 48L257 0H20L15 33L83 58V393L21 391L15 440Q41 452 83 462V563Q83 645 131 698T248 751Q314 751 361 702L305 622Z" />
<glyph unicode="g" glyph-name="g" horiz-adv-x="546" d="M150 96Q223 95 327 75T498 28L503 -15Q503 -106 419 -168T220 -231Q142 -231 88 -197T33 -104L34 -89L153 21L74 25L56 72Q105 130 162 171Q47 215 47 325Q47 399 107 447T255 496Q333 496 388 457Q424
525 507 542L526 438Q474 438 431 418Q462 376 462 323Q462 248 402 201T255 154L218 157Q174 123 150 96ZM172 423Q139 384 139 331Q139 275 170 240T255 205Q286 205 322 218Q370 257 370 316Q370 368 334 405T246 442Q210 442 172 423ZM226 -150Q292 -150 354
-123T444 -45Q380 -7 213 15Q115 -52 115 -95Q115 -120 146 -135T226 -150Z" />
<glyph unicode="h" glyph-name="h" horiz-adv-x="588" d="M496 64Q546 58 568 48L562 0H355L350 33L407 55V296Q407 404 343 404Q287 404 191 332V63Q233 58 256 48L250 0H33L28 33L102 60V663L27 657L15 704Q82 733 151 735L191 700V386Q338 484 391 484Q420
479 449 455T487 404T496 307V64Z" />
<glyph unicode="i" glyph-name="i" horiz-adv-x="283" d="M151 573Q102 594 74 633Q100 687 135 709Q180 691 210 649Q194 603 151 573ZM191 64Q241 58 263 48L257 0H31L26 33Q50 45 102 61V412L27 406L15 453Q82 482 151 484L191 449V64Z" />
<glyph unicode="j" glyph-name="j" horiz-adv-x="272" d="M155 572Q106 593 78 632Q104 686 139 708Q184 690 214 648Q198 602 155 572ZM19 453Q86 482 155 484L195 449V-61Q195 -107 146 -148T13 -210L0 -165Q62 -144 84 -110T106 -11V412L31 406L19 453Z" />
<glyph unicode="k" glyph-name="k" horiz-adv-x="564" d="M534 28L439 -15Q406 -8 378 31L269 197L191 185V62L246 48L240 0H33L28 33L102 60V663L27 657L15 704Q82 733 151 735L191 700V234L267 276L388 417L304 406L292 453Q368 481 460 484L491 434L333 251L455
75Q462 65 479 65Q497 65 519 72L534 28Z" />
<glyph unicode="l" glyph-name="l" horiz-adv-x="298" d="M191 64Q241 58 263 48L257 0H31L26 33Q50 45 102 61V663L27 657L15 704Q82 733 151 735L191 700V64Z" />
<glyph unicode="m" glyph-name="m" horiz-adv-x="878" d="M788 64Q839 57 858 48L852 0H647L642 33L699 55V296Q699 404 635 404Q584 404 489 336V64Q540 57 559 48L553 0H348L343 33L400 55V296Q400 404 336 404Q284 404 191 337V63Q233 58 256 48L250 0H36L31
33L102 59V412L27 406L15 453Q82 482 151 484L191 449V390Q332 484 384 484Q411 479 437 459T475 417L484 387Q635 484 683 484Q712 479 741 455T779 404T788 307V64Z" />
<glyph unicode="n" glyph-name="n" horiz-adv-x="590" d="M500 64Q551 57 570 48L564 0H359L354 33L411 55V296Q411 404 347 404Q289 404 191 329V63Q233 58 256 48L250 0H36L31 33L102 59V412L27 406L15 453Q82 482 151 484L191 449V383Q341 484 395 484Q424
479 453 455T491 404T500 307V64Z" />
<glyph unicode="o" glyph-name="o" horiz-adv-x="491" d="M20 348T83 418T246 488Q344 488 405 416T466 230Q466 117 406 49T248 -20Q149 -20 85 52T20 236ZM307 52Q372 95 372 219Q372 308 339 367T238 426Q193 426 162 404Q115 348 115 247Q115 161 151 103T259
45Q282 45 307 52Z" />
<glyph unicode="p" glyph-name="p" horiz-adv-x="550" d="M267 -19Q229 -19 190 -10V-139Q245 -144 272 -156L266 -204H40L35 -171L101 -147V412L27 406L15 453Q82 482 151 484L190 449V407L303 481L341 485Q420 485 472 418T525 250Q525 134 452 58T267 -19ZM308
403Q263 403 190 356V80Q238 47 306 47L346 50Q385 74 408 124T431 230Q431 301 396 352T308 403Z" />
<glyph unicode="q" glyph-name="q" horiz-adv-x="528" d="M441 -142Q477 -147 498 -156L492 -204H263L258 -171L352 -138V53L250 -15Q151 -16 86 55T20 233Q20 343 94 416T273 490Q345 490 395 455L474 468L491 420L441 388V-142ZM251 67Q297 67 352 99V383Q295
425 228 425L186 420Q115 357 115 244Q115 168 152 118T251 67Z" />
<glyph unicode="r" glyph-name="r" horiz-adv-x="427" d="M411 463Q415 389 393 301H339L328 411Q247 366 191 292V66Q264 61 294 48L288 0H34L29 33L102 60V412L27 406L15 453Q82 482 151 484L191 449V358L296 470Q325 482 349 482Q381 482 411 463Z" />
<glyph unicode="s" glyph-name="s" horiz-adv-x="419" d="M123 370Q123 338 149 319T229 276L288 249Q374 204 374 125Q374 61 326 21T202 -20Q119 -20 25 32L62 120Q156 56 260 42Q287 66 287 100T262 155T164 208T65 271T39 345Q39 408 92 448T229 488Q299 488
357 458Q360 385 340 329H286L279 406Q229 428 174 428L155 427Q123 407 123 370Z" />
<glyph unicode="t" glyph-name="t" horiz-adv-x="343" d="M211 68Q240 68 303 91L320 45L190 -15Q156 -17 123 10T89 70V393L27 392L20 440Q52 454 91 463L131 589H178V468H318L322 439L275 391H178V122Q178 91 185 80T211 68Z" />
<glyph unicode="u" glyph-name="u" horiz-adv-x="568" d="M558 31L457 -15Q441 -13 418 10T385 59Q335 27 279 6T192 -15Q137 -3 104 50Q88 73 87 141V412L12 406L0 453Q67 482 136 484L176 449V148Q179 62 242 62Q297 62 382 114V412L307 406L295 453Q362 482
431 484L471 449V86Q471 66 497 66Q512 66 543 75L558 31Z" />
<glyph unicode="v" glyph-name="v" horiz-adv-x="505" d="M515 432L452 408Q361 140 305 3Q278 -6 241 -6L189 -2L46 416L-10 419L-9 468H191L197 432L147 413L222 173L236 66H260Q310 213 362 416L308 419L309 468H509L515 432Z" />
<glyph unicode="w" glyph-name="w" horiz-adv-x="738" d="M748 432L685 408L565 6Q532 -6 486 -6Q461 -6 444 -2L368 220L360 176L290 6Q261 -5 217 -5L174 -2L46 416L-10 419L-9 468H191L197 432L143 411L213 171L236 59H244L337 309L293 438L381 461L476 171L495
59H502L600 415L538 419L539 468H742L748 432Z" />
<glyph unicode="x" glyph-name="x" horiz-adv-x="540" d="M459 63Q503 58 525 48L519 0H315L310 33L367 55L258 196L160 62Q196 57 219 48L213 0H10L5 33L66 56L219 246L88 415L31 419L32 468H227L233 432L192 416L283 296L371 416L318 419L319 468H501L507 432L447
409L319 248L459 63Z" />
<glyph unicode="y" glyph-name="y" horiz-adv-x="503" d="M513 432L449 408Q392 223 332 56Q294 -33 240 -100T103 -217L53 -126Q175 -75 239 -4Q207 7 186 27L45 416L-10 419L-9 468H201L207 432L149 410L225 182L242 67H261Q318 225 362 416L302 419L303 468H507L513
432Z" />
<glyph unicode="z" glyph-name="z" horiz-adv-x="482" d="M457 140Q454 58 434 -10L112 19L74 -15L30 21L316 408L120 402L108 302H59Q48 349 48 417L50 468H390L421 490L455 460L175 81L385 71L406 147L457 140Z" />
<glyph unicode="{" glyph-name="braceleft" horiz-adv-x="419" d="M319 -145Q245 -138 195 -93T144 12V161Q143 223 127 243T69 268L75 327Q118 331 131 358T144 443V561Q144 625 189 672T326 729L332 656H239V448Q239 368 189 304V295Q237 232 239 158V-60L329
-72L319 -145Z" />
<glyph unicode="|" glyph-name="bar" horiz-adv-x="293" d="M107 735H184V-225H107V735Z" />
<glyph unicode="}" glyph-name="braceright" horiz-adv-x="425" d="M92 -72L182 -60V158Q184 232 232 295V304Q182 368 182 448V656H89L95 729Q186 719 231 672T277 561V443Q277 385 290 358T346 327L352 268Q311 264 295 244T277 161V12Q277 -48 227 -93T102
-145L92 -72Z" />
<glyph unicode="~" glyph-name="asciitilde" horiz-adv-x="599" d="M91 226Q130 285 156 312T209 339Q234 339 287 313L404 253L488 323L516 298Q472 231 449 206T407 180Q387 180 299 223Q227 261 208 261Q184 261 127 198L91 226Z" />
<glyph unicode="&#xa0;" glyph-name="uni00A0" horiz-adv-x="265" />
<glyph unicode="&#xa1;" glyph-name="exclamdown" horiz-adv-x="297" d="M88 -169Q108 -189 152 -189Q199 -189 211 -167L177 257H120L88 -169ZM144 343Q209 367 217 415Q202 465 156 487Q101 476 80 426Q89 371 144 343Z" />
<glyph unicode="&#xa2;" glyph-name="cent" horiz-adv-x="415" d="M394 66L272 20V-115H210V18Q119 31 70 93T20 243Q20 334 72 397T210 473V605H272V475Q342 468 400 416L347 351Q258 414 175 418Q113 352 113 262Q113 182 155 133T273 83Q327 83 377 104L394 66Z" />
<glyph unicode="&#xa3;" glyph-name="sterling" horiz-adv-x="511" d="M471 133Q471 51 462 0H16L10 32L78 57Q132 153 132 244L131 267H42L36 296L79 331H122L86 463L83 495Q83 567 140 618T287 670Q344 670 439 639L440 604Q440 531 429 470L375 472L361 576Q317
609 243 609L213 608Q172 576 172 498Q172 461 194 387L207 341H371L377 312L334 277H220L221 248Q221 155 155 66L392 77L414 175L470 171L471 133Z" />
<glyph unicode="&#xa4;" glyph-name="currency" horiz-adv-x="510" d="M426 358Q426 287 388 239L448 174L404 131L342 198Q302 174 253 174Q206 174 168 197L112 129L66 170L121 238Q82 290 82 356Q82 420 120 470L60 538L107 579L168 511Q210 536 260 536Q308
536 347 512L402 578L450 539L393 470Q426 422 426 358ZM311 237Q327 242 341 275T355 347Q355 399 327 437T233 475L196 471Q177 456 165 425T152 359Q152 307 181 270T271 233L311 237Z" />
<glyph unicode="&#xa5;" glyph-name="yen" horiz-adv-x="597" d="M321 238V171H453L459 142L416 117H321V57L403 47L402 0H156L150 32L228 61V117H112L106 146L149 171H228V238H112L106 267L149 292H206L42 596L-20 603L-19 650H208L214 618Q190 606 147 593L256
388L282 307H287L429 594L350 603L351 650H571L577 618Q542 602 506 592L344 292H453L459 263L416 238H321Z" />
<glyph unicode="&#xa6;" glyph-name="brokenbar" horiz-adv-x="293" d="M107 616H184V358H107V616ZM107 182H184V-76H107V182Z" />
<glyph unicode="&#xa7;" glyph-name="section" horiz-adv-x="518" d="M410 121Q468 81 468 16Q468 -54 411 -100T270 -147Q224 -147 167 -132T70 -88L107 -3Q212 -68 313 -68Q342 -68 363 -61Q390 -31 390 2Q390 50 326 77L257 103Q159 136 108 174T57 274Q57
342 122 396Q66 439 66 504Q66 576 131 623T290 670Q360 670 455 639L456 604Q456 531 445 470L391 472L378 573Q327 603 263 603Q228 603 190 594Q151 559 151 510Q151 463 212 437L361 378Q478 326 478 236Q478 173 410 121ZM133 290Q133 260 158 239T276 185L360
151Q397 184 397 218Q397 275 327 305L211 348L172 365Q133 331 133 290Z" />
<glyph unicode="&#xa8;" glyph-name="dieresis" horiz-adv-x="381" d="M145 614Q133 569 92 551Q45 563 27 604Q31 653 82 677Q137 656 145 614ZM348 614Q336 569 295 551Q248 563 230 604Q234 653 285 677Q340 656 348 614Z" />
<glyph unicode="&#xa9;" glyph-name="copyright" horiz-adv-x="830" d="M415 -19Q268 -19 165 82T62 331T164 582T414 686Q560 686 663 583T767 332T665 83T415 -19ZM413 42Q535 42 620 127T706 334T620 540T415 625Q295 625 209 539T123 331T207 126T413 42ZM429
133Q341 134 286 189T231 329Q231 414 286 471T426 529Q520 529 575 457L516 403Q455 469 367 472Q306 419 306 341Q306 284 341 245T439 205Q488 205 548 232L565 190L429 133Z" />
<glyph unicode="&#xaa;" glyph-name="ordfeminine" horiz-adv-x="404" d="M230 446V508Q230 562 197 579Q147 577 123 570L119 498L77 493Q62 532 62 574Q81 594 133 610T212 626Q241 626 269 599T299 544L300 362Q300 348 317 348L348 353L357 324L286 290Q274
291 258 305T235 337L160 290Q109 288 81 311T52 370Q52 411 92 442L230 446ZM131 340Q171 340 230 364V409L196 410Q118 410 118 368Q118 351 131 340ZM374 255V204H30V255H374Z" />
<glyph unicode="&#xab;" glyph-name="guillemotleft" horiz-adv-x="506" d="M194 463L250 433L159 253L255 81L200 46L60 233V273L194 463ZM385 463L441 433L350 253L446 81L391 46L251 233V273L385 463Z" />
<glyph unicode="&#xac;" glyph-name="logicalnot" horiz-adv-x="592" d="M532 0H455V199H60V264H532V0Z" />
<glyph unicode="&#xad;" glyph-name="uni00AD" horiz-adv-x="353" d="M30 299L39 319H293L323 269L314 249H60L30 299Z" />
<glyph unicode="&#xae;" glyph-name="registered" horiz-adv-x="570" d="M402 768T478 694T554 503T478 314T283 240Q165 240 91 314T16 504Q16 619 92 693T285 768ZM281 281Q384 281 448 342T512 503T449 665T285 729T121 666T58 501Q58 402 119 342T281 281ZM400
404L434 401L433 373H352L290 476H237V405L286 401L285 373H144L140 395L181 411V617L143 620V650H285Q343 650 375 626T408 564Q408 508 346 486L400 404ZM237 513L260 512Q348 512 348 564Q348 599 305 616L237 610V513Z" />
<glyph unicode="&#xaf;" glyph-name="overscore" horiz-adv-x="411" d="M396 631L401 596L354 562H56L50 606Q99 631 163 631H396Z" />
<glyph unicode="&#xb0;" glyph-name="degree" horiz-adv-x="353" d="M30 505Q30 561 67 599T160 637Q216 637 254 599T293 505Q293 446 257 410T164 374Q108 374 69 410T30 505ZM205 427Q234 453 234 495Q234 531 212 559T153 587Q134 587 112 578Q88 550 88 511Q88
475 110 449T171 422Q190 422 205 427Z" />
<glyph unicode="&#xb1;" glyph-name="plusminus" horiz-adv-x="531" d="M471 321H304V138H227V321H60V383H227V563H304V383H471V321ZM461 0H67L66 62H461V0Z" />
<glyph unicode="&#xb2;" glyph-name="twosuperior" horiz-adv-x="279" d="M256 493L245 426H34L20 463L123 565Q176 620 176 654Q176 681 160 696T119 711L87 707L71 632H31Q24 667 24 700L25 717Q77 751 131 751Q183 751 212 722T241 655Q241 616 206 574T99
478L101 472L256 493Z" />
<glyph unicode="&#xb3;" glyph-name="threesuperior" horiz-adv-x="287" d="M181 592Q214 589 236 565T258 506Q258 463 225 440T142 416Q87 416 30 442L49 502Q126 460 181 464Q199 479 199 502Q199 526 178 543T118 560H85V601H104Q144 603 162 622T180 664Q180
687 163 700T120 713L106 712L83 648L48 649Q42 676 42 703L43 722Q83 751 139 751Q182 751 212 728T242 670Q242 609 181 593V592Z" />
<glyph unicode="&#xb4;" glyph-name="acute" horiz-adv-x="285" d="M30 574L172 734L245 674Q157 601 82 531L30 574Z" />
<glyph unicode="&#xb5;" glyph-name="uni00B5" horiz-adv-x="541" d="M531 31L430 -15Q414 -13 392 9T359 56Q302 23 247 4T165 -15Q146 -15 118 23H114L159 -206Q130 -226 80 -226L60 -225V468Q97 488 149 488V160Q149 63 223 63Q273 63 355 109V468Q392 488
444 488V86Q444 66 470 66Q485 66 516 75L531 31Z" />
<glyph unicode="&#xb6;" glyph-name="paragraph" horiz-adv-x="610" d="M575 -118L574 -165H413V601L333 606V-165H156L150 -130Q202 -107 268 -94V600Q139 577 139 457Q139 421 152 393T196 326L158 289Q83 315 42 367T0 483Q0 572 71 628T259 685L291 684L560
646L553 589L478 595V-107L575 -118Z" />
<glyph unicode="&#xb7;" glyph-name="middot" horiz-adv-x="199" d="M97 191Q54 207 30 243Q51 288 84 309Q120 296 149 257Q132 213 97 191Z" />
<glyph unicode="&#xb8;" glyph-name="cedilla" horiz-adv-x="250" d="M104 -59Q160 -59 190 -84T220 -143Q220 -228 43 -265L30 -231Q82 -215 110 -190T139 -142Q139 -99 61 -105L34 -66L97 6H146L104 -59Z" />
<glyph unicode="&#xb9;" glyph-name="onesuperior" horiz-adv-x="231" d="M201 451L199 426H20L17 442Q41 455 79 465V681L15 654L0 682L111 751L142 731V461L201 451Z" />
<glyph unicode="&#xba;" glyph-name="ordmasculine" horiz-adv-x="414" d="M37 457Q37 531 82 580T193 629Q257 629 300 580T344 453Q344 378 301 332T191 286T81 334T37 457ZM235 336Q247 341 259 368T271 439Q271 495 249 539T176 584Q160 584 145 578Q130 567
120 534T109 461Q109 406 132 369T204 332L235 336ZM364 204H20V255H364V204Z" />
<glyph unicode="&#xbb;" glyph-name="guillemotright" horiz-adv-x="506" d="M115 46L60 81L156 253L65 433L121 463L255 273V233L115 46ZM306 46L251 81L347 253L256 433L312 463L446 273V233L306 46Z" />
<glyph unicode="&#xbc;" glyph-name="onequarter" horiz-adv-x="640" d="M201 370L199 345H20L17 361Q41 374 79 384V600L15 573L0 601L111 670L142 650V380L201 370ZM577 664L621 619L49 20L3 64L577 664ZM619 119V93L606 73H564V31L605 25L603 0H451L448 16Q474
29 501 36V73H369L358 103L513 325L564 314V119H619ZM501 118V205L511 248L426 117L501 118Z" />
<glyph unicode="&#xbd;" glyph-name="onehalf" horiz-adv-x="631" d="M201 370L199 345H20L17 361Q41 374 79 384V600L15 573L0 601L111 670L142 650V380L201 370ZM577 664L621 619L49 20L3 64L577 664ZM609 67L598 0H387L373 37L476 139Q529 194 529 228Q529
255 513 270T472 285L440 281L424 206H384Q377 241 377 274L378 291Q430 325 484 325Q536 325 565 296T594 229Q594 190 559 148T452 52L454 46L609 67Z" />
<glyph unicode="&#xbe;" glyph-name="threequarters" horiz-adv-x="687" d="M187 511Q220 508 242 484T264 425Q264 382 231 359T148 335Q93 335 36 361L55 421Q132 379 187 383Q205 398 205 421Q205 445 184 462T124 479H91V520H110Q150 522 168 541T186 583Q186
606 169 619T126 632L112 631L89 567L54 568Q48 595 48 622L49 641Q89 670 145 670Q188 670 218 647T248 589Q248 528 187 512V511ZM624 664L668 619L96 20L50 64L624 664ZM666 119V93L653 73H611V31L652 25L650 0H498L495 16Q521 29 548 36V73H416L405 103L560
325L611 314V119H666ZM548 118V205L558 248L473 117L548 118Z" />
<glyph unicode="&#xbf;" glyph-name="questiondown" horiz-adv-x="582" d="M291 -200Q210 -200 156 -149T101 -23Q101 44 156 95L235 163Q273 199 273 238H354Q354 195 337 161T267 85T198 19T181 -42Q181 -101 231 -139Q305 -144 387 -96L397 5H454L469 -136Q385
-200 291 -200ZM300 346Q235 369 227 418Q242 468 288 490Q343 479 364 429Q355 374 300 346Z" />
<glyph unicode="&#xc0;" glyph-name="Agrave" horiz-adv-x="696" d="M696 47L695 0H427L421 32Q453 47 519 67L466 201H196L140 59L245 47L244 0H-14L-20 32Q5 44 63 62L297 629L290 647L369 674L623 55L696 47ZM442 262L330 544L220 262H442ZM442 692L202 790L252
874L477 749L442 692Z" />
<glyph unicode="&#xc1;" glyph-name="Aacute" horiz-adv-x="696" d="M696 47L695 0H427L421 32Q453 47 519 67L466 201H196L140 59L245 47L244 0H-14L-20 32Q5 44 63 62L297 629L290 647L369 674L623 55L696 47ZM442 262L330 544L220 262H442ZM449 874L499 790L259
692L224 749L449 874Z" />
<glyph unicode="&#xc2;" glyph-name="Acircumflex" horiz-adv-x="696" d="M696 47L695 0H427L421 32Q453 47 519 67L466 201H196L140 59L245 47L244 0H-14L-20 32Q5 44 63 62L297 629L290 647L369 674L623 55L696 47ZM442 262L330 544L220 262H442ZM288 873H377L523
738L481 696L335 801L193 696L149 738L288 873Z" />
<glyph unicode="&#xc3;" glyph-name="Atilde" horiz-adv-x="696" d="M696 47L695 0H427L421 32Q453 47 519 67L466 201H196L140 59L245 47L244 0H-14L-20 32Q5 44 63 62L297 629L290 647L369 674L623 55L696 47ZM442 262L330 544L220 262H442ZM131 749Q170 808
196 835T249 862Q274 862 327 836L444 776L528 846L556 821Q512 754 489 729T447 703Q427 703 339 746Q267 784 248 784Q224 784 167 721L131 749Z" />
<glyph unicode="&#xc4;" glyph-name="Adieresis" horiz-adv-x="696" d="M696 47L695 0H427L421 32Q453 47 519 67L466 201H196L140 59L245 47L244 0H-14L-20 32Q5 44 63 62L297 629L290 647L369 674L623 55L696 47ZM442 262L330 544L220 262H442ZM292 796Q280
751 239 733Q192 745 174 786Q178 835 229 859Q284 838 292 796ZM495 796Q483 751 442 733Q395 745 377 786Q381 835 432 859Q487 838 495 796Z" />
<glyph unicode="&#xc5;" glyph-name="Aring" horiz-adv-x="696" d="M696 47L695 0H427L421 32Q453 47 519 67L466 201H196L140 59L245 47L244 0H-14L-20 32Q5 44 63 62L297 629L290 647L369 674L623 55L696 47ZM442 262L330 544L220 262H442ZM226 819Q226 865
257 896T334 928T411 897T443 817Q443 771 414 741T338 711Q291 711 259 741T226 819ZM277 784T294 768T336 752T376 767T392 808T376 850T335 867Q310 867 294 851T277 809Z" />
<glyph unicode="&#xc6;" glyph-name="AE" horiz-adv-x="909" d="M860 179Q863 80 848 0H382L376 35Q398 46 461 66V201H253V202L178 58L275 47L274 0H16L10 35Q38 50 104 69L391 599L336 602L337 650H848L849 616Q849 546 838 485H784L772 576L554 585V354L783
371V284L554 294V65L781 75L807 183L860 179ZM461 262V597L285 262H461Z" />
<glyph unicode="&#xc7;" glyph-name="Ccedilla" horiz-adv-x="553" d="M309 -59Q365 -59 395 -84T425 -143Q425 -228 248 -265L235 -231Q287 -215 315 -190T344 -142Q344 -99 266 -105L239 -66L286 -12Q161 2 88 91T15 317Q15 470 101 570T324 670Q436 670 517
609L518 578Q518 508 500 454H440L433 556Q362 599 277 599L236 597Q174 562 146 491T117 340Q117 219 178 143T340 67L361 68L515 122L533 73L338 -15L309 -59Z" />
<glyph unicode="&#xc8;" glyph-name="Egrave" horiz-adv-x="563" d="M514 179Q517 80 502 0H36L30 32L115 63V598L44 602L45 650H502L503 616Q503 546 492 485H438L426 577L208 592V354L437 371V284L208 294V65L435 75L461 183L514 179ZM398 692L158 790L208 874L433
749L398 692Z" />
<glyph unicode="&#xc9;" glyph-name="Eacute" horiz-adv-x="563" d="M514 179Q517 80 502 0H36L30 32L115 63V598L44 602L45 650H502L503 616Q503 546 492 485H438L426 577L208 592V354L437 371V284L208 294V65L435 75L461 183L514 179ZM405 874L455 790L215 692L180
749L405 874Z" />
<glyph unicode="&#xca;" glyph-name="Ecircumflex" horiz-adv-x="563" d="M514 179Q517 80 502 0H36L30 32L115 63V598L44 602L45 650H502L503 616Q503 546 492 485H438L426 577L208 592V354L437 371V284L208 294V65L435 75L461 183L514 179ZM244 873H333L479
738L437 696L291 801L149 696L105 738L244 873Z" />
<glyph unicode="&#xcb;" glyph-name="Edieresis" horiz-adv-x="563" d="M514 179Q517 80 502 0H36L30 32L115 63V598L44 602L45 650H502L503 616Q503 546 492 485H438L426 577L208 592V354L437 371V284L208 294V65L435 75L461 183L514 179ZM248 796Q236 751 195
733Q148 745 130 786Q134 835 185 859Q240 838 248 796ZM451 796Q439 751 398 733Q351 745 333 786Q337 835 388 859Q443 838 451 796Z" />
<glyph unicode="&#xcc;" glyph-name="Igrave" horiz-adv-x="335" d="M305 47L304 0H36L30 32L115 63V594L38 603L39 650H287L293 618L208 587V58L305 47ZM270 692L30 790L80 874L305 749L270 692Z" />
<glyph unicode="&#xcd;" glyph-name="Iacute" horiz-adv-x="335" d="M305 47L304 0H36L30 32L115 63V594L38 603L39 650H287L293 618L208 587V58L305 47ZM277 874L327 790L87 692L52 749L277 874Z" />
<glyph unicode="&#xce;" glyph-name="Icircumflex" horiz-adv-x="335" d="M305 47L304 0H36L30 32L115 63V594L38 603L39 650H287L293 618L208 587V58L305 47ZM116 873H205L351 738L309 696L163 801L21 696L-23 738L116 873Z" />
<glyph unicode="&#xcf;" glyph-name="Idieresis" horiz-adv-x="335" d="M305 47L304 0H36L30 32L115 63V594L38 603L39 650H287L293 618L208 587V58L305 47ZM120 796Q108 751 67 733Q20 745 2 786Q6 835 57 859Q112 838 120 796ZM323 796Q311 751 270 733Q223
745 205 786Q209 835 260 859Q315 838 323 796Z" />
<glyph unicode="&#xd0;" glyph-name="Eth" horiz-adv-x="673" d="M342 658Q467 658 551 562T635 329Q635 185 548 95T318 0H36L30 32L115 63V286H23L17 315L60 358H115V598L44 602L45 650Q203 658 342 658ZM301 66Q405 66 468 139T531 329Q531 418 492 493T392
599L208 584V358H362L368 329L325 286H208V79Q257 66 301 66Z" />
<glyph unicode="&#xd1;" glyph-name="Ntilde" horiz-adv-x="745" d="M715 618L630 587V0L527 -11L172 557L190 418V57L279 47L278 0H36L30 32L115 63V595L50 603L51 650H229L573 96L554 232V592L457 603L458 650H709L715 618ZM150 749Q189 808 215 835T268 862Q293
862 346 836L463 776L547 846L575 821Q531 754 508 729T466 703Q446 703 358 746Q286 784 267 784Q243 784 186 721L150 749Z" />
<glyph unicode="&#xd2;" glyph-name="Ograve" horiz-adv-x="652" d="M321 670Q457 670 544 571T632 317Q632 166 547 73T329 -20Q194 -20 107 75T20 321Q20 475 105 572T321 670ZM213 584Q172 553 147 484T122 335Q122 207 183 129T347 51Q384 51 424 61Q471 91
500 159T529 312Q529 440 469 520T309 601Q263 601 213 584ZM432 692L192 790L242 874L467 749L432 692Z" />
<glyph unicode="&#xd3;" glyph-name="Oacute" horiz-adv-x="652" d="M321 670Q457 670 544 571T632 317Q632 166 547 73T329 -20Q194 -20 107 75T20 321Q20 475 105 572T321 670ZM213 584Q172 553 147 484T122 335Q122 207 183 129T347 51Q384 51 424 61Q471 91
500 159T529 312Q529 440 469 520T309 601Q263 601 213 584ZM439 874L489 790L249 692L214 749L439 874Z" />
<glyph unicode="&#xd4;" glyph-name="Ocircumflex" horiz-adv-x="652" d="M321 670Q457 670 544 571T632 317Q632 166 547 73T329 -20Q194 -20 107 75T20 321Q20 475 105 572T321 670ZM213 584Q172 553 147 484T122 335Q122 207 183 129T347 51Q384 51 424 61Q471
91 500 159T529 312Q529 440 469 520T309 601Q263 601 213 584ZM278 873H367L513 738L471 696L325 801L183 696L139 738L278 873Z" />
<glyph unicode="&#xd5;" glyph-name="Otilde" horiz-adv-x="652" d="M321 670Q457 670 544 571T632 317Q632 166 547 73T329 -20Q194 -20 107 75T20 321Q20 475 105 572T321 670ZM213 584Q172 553 147 484T122 335Q122 207 183 129T347 51Q384 51 424 61Q471 91
500 159T529 312Q529 440 469 520T309 601Q263 601 213 584ZM121 749Q160 808 186 835T239 862Q264 862 317 836L434 776L518 846L546 821Q502 754 479 729T437 703Q417 703 329 746Q257 784 238 784Q214 784 157 721L121 749Z" />
<glyph unicode="&#xd6;" glyph-name="Odieresis" horiz-adv-x="652" d="M321 670Q457 670 544 571T632 317Q632 166 547 73T329 -20Q194 -20 107 75T20 321Q20 475 105 572T321 670ZM213 584Q172 553 147 484T122 335Q122 207 183 129T347 51Q384 51 424 61Q471
91 500 159T529 312Q529 440 469 520T309 601Q263 601 213 584ZM282 796Q270 751 229 733Q182 745 164 786Q168 835 219 859Q274 838 282 796ZM485 796Q473 751 432 733Q385 745 367 786Q371 835 422 859Q477 838 485 796Z" />
<glyph unicode="&#xd7;" glyph-name="multiply" horiz-adv-x="570" d="M495 409L331 238L492 69L443 22L285 191L127 22L77 70L238 238L75 409L127 453L285 285L443 455L495 409Z" />
<glyph unicode="&#xd8;" glyph-name="Oslash" horiz-adv-x="692" d="M526 590Q632 492 632 317Q632 166 547 73T329 -20Q271 -20 220 -1L179 -81L118 -47L158 31Q94 74 57 147T20 321Q20 475 105 572T321 670Q401 670 469 632L519 729L579 693L526 590ZM122 335Q122
191 199 110L432 560Q380 601 309 601Q263 601 213 584Q172 553 147 484T122 335ZM424 61Q471 91 500 159T529 312Q529 425 481 503L257 69Q300 51 347 51Q384 51 424 61Z" />
<glyph unicode="&#xd9;" glyph-name="Ugrave" horiz-adv-x="700" d="M690 618L605 587V273Q598 -18 364 -18Q234 -18 161 62T87 283V594L10 603L11 650H259L265 618L180 587V273Q180 170 229 114T368 57Q416 57 463 77Q531 125 531 273V593L442 603L443 650H684L690
618ZM463 692L223 790L273 874L498 749L463 692Z" />
<glyph unicode="&#xda;" glyph-name="Uacute" horiz-adv-x="700" d="M690 618L605 587V273Q598 -18 364 -18Q234 -18 161 62T87 283V594L10 603L11 650H259L265 618L180 587V273Q180 170 229 114T368 57Q416 57 463 77Q531 125 531 273V593L442 603L443 650H684L690
618ZM470 874L520 790L280 692L245 749L470 874Z" />
<glyph unicode="&#xdb;" glyph-name="Ucircumflex" horiz-adv-x="700" d="M690 618L605 587V273Q598 -18 364 -18Q234 -18 161 62T87 283V594L10 603L11 650H259L265 618L180 587V273Q180 170 229 114T368 57Q416 57 463 77Q531 125 531 273V593L442 603L443 650H684L690
618ZM309 873H398L544 738L502 696L356 801L214 696L170 738L309 873Z" />
<glyph unicode="&#xdc;" glyph-name="Udieresis" horiz-adv-x="700" d="M690 618L605 587V273Q598 -18 364 -18Q234 -18 161 62T87 283V594L10 603L11 650H259L265 618L180 587V273Q180 170 229 114T368 57Q416 57 463 77Q531 125 531 273V593L442 603L443 650H684L690
618ZM313 796Q301 751 260 733Q213 745 195 786Q199 835 250 859Q305 838 313 796ZM516 796Q504 751 463 733Q416 745 398 786Q402 835 453 859Q508 838 516 796Z" />
<glyph unicode="&#xdd;" glyph-name="Yacute" horiz-adv-x="597" d="M341 57L423 47L422 0H176L170 32L248 61V252L62 596L0 603L1 650H228L234 618Q210 606 167 593L276 388L302 307H307L449 594L370 603L371 650H591L597 618Q562 602 526 592L341 249V57ZM419
874L469 790L229 692L194 749L419 874Z" />
<glyph unicode="&#xde;" glyph-name="Thorn" horiz-adv-x="591" d="M213 155V58L310 47L309 0H36L30 35Q52 47 120 67V593L38 603L39 650H300L306 615Q279 600 213 582V517H322Q422 517 485 466T549 335T482 206T305 155H213ZM213 436V223L273 219Q366 219 407
252T448 339Q448 423 368 463L213 436Z" />
<glyph unicode="&#xdf;" glyph-name="germandbls" horiz-adv-x="543" d="M317 353Q324 333 343 317T399 277Q456 242 487 208T519 120Q519 57 474 21T360 -16Q293 -16 225 21L263 105Q338 55 412 44Q434 75 434 104Q434 137 411 161T340 217T270 272T247 325Q258
346 290 391T340 470T358 539T335 607Q310 616 272 616Q203 616 157 585L169 434V0H20L15 33L83 58V393L21 391L15 440Q41 452 83 462V481Q83 574 132 630T264 686Q339 686 391 637T443 520Q443 425 317 353Z" />
<glyph unicode="&#xe0;" glyph-name="agrave" horiz-adv-x="507" d="M492 31L391 -15Q376 -13 353 8T320 54L207 -14L183 -15Q123 -15 87 19T50 104Q50 172 120 211L315 216V319Q315 365 304 388T266 426Q205 424 153 409L145 305L92 301Q66 348 63 421Q107 446
181 469T286 493Q314 493 344 473T389 430T405 348V86Q405 66 431 66Q446 66 477 75L492 31ZM170 58Q229 56 315 95V164L265 167Q144 167 144 104Q144 74 170 58ZM280 531Q204 603 117 674L190 734L332 574L280 531Z" />
<glyph unicode="&#xe1;" glyph-name="aacute" horiz-adv-x="507" d="M492 31L391 -15Q376 -13 353 8T320 54L207 -14L183 -15Q123 -15 87 19T50 104Q50 172 120 211L315 216V319Q315 365 304 388T266 426Q205 424 153 409L145 305L92 301Q66 348 63 421Q107 446
181 469T286 493Q314 493 344 473T389 430T405 348V86Q405 66 431 66Q446 66 477 75L492 31ZM170 58Q229 56 315 95V164L265 167Q144 167 144 104Q144 74 170 58ZM163 574L305 734L378 674Q290 601 215 531L163 574Z" />
<glyph unicode="&#xe2;" glyph-name="acircumflex" horiz-adv-x="507" d="M492 31L391 -15Q376 -13 353 8T320 54L207 -14L183 -15Q123 -15 87 19T50 104Q50 172 120 211L315 216V319Q315 365 304 388T266 426Q205 424 153 409L145 305L92 301Q66 348 63 421Q107
446 181 469T286 493Q314 493 344 473T389 430T405 348V86Q405 66 431 66Q446 66 477 75L492 31ZM170 58Q229 56 315 95V164L265 167Q144 167 144 104Q144 74 170 58ZM210 717H291L416 579L373 538L247 644L131 535L85 573L210 717Z" />
<glyph unicode="&#xe3;" glyph-name="atilde" horiz-adv-x="507" d="M492 31L391 -15Q376 -13 353 8T320 54L207 -14L183 -15Q123 -15 87 19T50 104Q50 172 120 211L315 216V319Q315 365 304 388T266 426Q205 424 153 409L145 305L92 301Q66 348 63 421Q107 446
181 469T286 493Q314 493 344 473T389 430T405 348V86Q405 66 431 66Q446 66 477 75L492 31ZM170 58Q229 56 315 95V164L265 167Q144 167 144 104Q144 74 170 58ZM66 583Q107 646 135 675T189 704Q212 704 334 617L408 694L443 668Q407 606 383 575T336 544Q316
544 258 585T186 626Q166 626 102 554L66 583Z" />
<glyph unicode="&#xe4;" glyph-name="adieresis" horiz-adv-x="507" d="M492 31L391 -15Q376 -13 353 8T320 54L207 -14L183 -15Q123 -15 87 19T50 104Q50 172 120 211L315 216V319Q315 365 304 388T266 426Q205 424 153 409L145 305L92 301Q66 348 63 421Q107
446 181 469T286 493Q314 493 344 473T389 430T405 348V86Q405 66 431 66Q446 66 477 75L492 31ZM170 58Q229 56 315 95V164L265 167Q144 167 144 104Q144 74 170 58ZM204 614Q192 569 151 551Q104 563 86 604Q90 653 141 677Q196 656 204 614ZM407 614Q395 569
354 551Q307 563 289 604Q293 653 344 677Q399 656 407 614Z" />
<glyph unicode="&#xe5;" glyph-name="aring" horiz-adv-x="507" d="M492 31L391 -15Q376 -13 353 8T320 54L207 -14L183 -15Q123 -15 87 19T50 104Q50 172 120 211L315 216V319Q315 365 304 388T266 426Q205 424 153 409L145 305L92 301Q66 348 63 421Q107 446
181 469T286 493Q314 493 344 473T389 430T405 348V86Q405 66 431 66Q446 66 477 75L492 31ZM170 58Q229 56 315 95V164L265 167Q144 167 144 104Q144 74 170 58ZM138 637Q138 683 169 714T246 746T323 715T355 635Q355 589 326 559T250 529Q203 529 171 559T138
637ZM189 602T206 586T248 570T288 585T304 626T288 668T247 685Q222 685 206 669T189 627Z" />
<glyph unicode="&#xe6;" glyph-name="ae" horiz-adv-x="746" d="M404 262Q404 151 450 106T569 61Q625 61 701 94L716 51L560 -15Q436 -15 368 68L207 -14L183 -15Q123 -15 87 19T50 104Q50 172 120 211L315 216V319Q315 365 304 388T266 426Q205 424 153 409L145
305L92 301Q66 348 63 421Q107 446 180 469T285 493Q315 493 344 470T389 420Q453 488 544 488Q596 488 637 465T701 402T723 313L666 257L404 262ZM494 427Q428 392 411 314L636 325Q626 373 587 402T494 427ZM170 58Q230 56 343 106Q330 132 322 164H320L268
167Q144 167 144 104Q144 74 170 58Z" />
<glyph unicode="&#xe7;" glyph-name="ccedilla" horiz-adv-x="415" d="M260 -14L231 -59Q287 -59 317 -84T347 -143Q347 -228 170 -265L157 -231Q209 -215 237 -190T266 -142Q266 -99 188 -105L161 -66L209 -12Q118 3 69 71T20 234Q20 345 84 416T248 488Q332
488 400 422L347 351Q259 419 175 425Q113 353 113 254Q113 168 155 114T273 59Q325 59 377 82L394 40L260 -14Z" />
<glyph unicode="&#xe8;" glyph-name="egrave" horiz-adv-x="451" d="M114 262Q114 163 159 112T278 61Q332 61 406 94L421 51L265 -15Q155 -15 88 52T20 226Q20 334 86 411T249 488Q301 488 342 465T406 402T428 313L371 257L114 262ZM199 427Q142 397 122 315L341
325Q331 373 292 402T199 427ZM276 531Q200 603 113 674L186 734L328 574L276 531Z" />
<glyph unicode="&#xe9;" glyph-name="eacute" horiz-adv-x="451" d="M114 262Q114 163 159 112T278 61Q332 61 406 94L421 51L265 -15Q155 -15 88 52T20 226Q20 334 86 411T249 488Q301 488 342 465T406 402T428 313L371 257L114 262ZM199 427Q142 397 122 315L341
325Q331 373 292 402T199 427ZM159 574L301 734L374 674Q286 601 211 531L159 574Z" />
<glyph unicode="&#xea;" glyph-name="ecircumflex" horiz-adv-x="451" d="M114 262Q114 163 159 112T278 61Q332 61 406 94L421 51L265 -15Q155 -15 88 52T20 226Q20 334 86 411T249 488Q301 488 342 465T406 402T428 313L371 257L114 262ZM199 427Q142 397 122
315L341 325Q331 373 292 402T199 427ZM206 717H287L412 579L369 538L243 644L127 535L81 573L206 717Z" />
<glyph unicode="&#xeb;" glyph-name="edieresis" horiz-adv-x="451" d="M114 262Q114 163 159 112T278 61Q332 61 406 94L421 51L265 -15Q155 -15 88 52T20 226Q20 334 86 411T249 488Q301 488 342 465T406 402T428 313L371 257L114 262ZM199 427Q142 397 122
315L341 325Q331 373 292 402T199 427ZM200 614Q188 569 147 551Q100 563 82 604Q86 653 137 677Q192 656 200 614ZM403 614Q391 569 350 551Q303 563 285 604Q289 653 340 677Q395 656 403 614Z" />
<glyph unicode="&#xec;" glyph-name="igrave" horiz-adv-x="276" d="M191 63Q233 58 256 48L250 0H36L31 33L102 59V412L27 406L15 453Q82 482 151 484L191 449V63ZM163 531Q87 603 0 674L73 734L215 574L163 531Z" />
<glyph unicode="&#xed;" glyph-name="iacute" horiz-adv-x="276" d="M191 63Q233 58 256 48L250 0H36L31 33L102 59V412L27 406L15 453Q82 482 151 484L191 449V63ZM46 574L188 734L261 674Q173 601 98 531L46 574Z" />
<glyph unicode="&#xee;" glyph-name="icircumflex" horiz-adv-x="276" d="M191 63Q233 58 256 48L250 0H36L31 33L102 59V412L27 406L15 453Q82 482 151 484L191 449V63ZM93 717H174L299 579L256 538L130 644L14 535L-32 573L93 717Z" />
<glyph unicode="&#xef;" glyph-name="idieresis" horiz-adv-x="276" d="M191 63Q233 58 256 48L250 0H36L31 33L102 59V412L27 406L15 453Q82 482 151 484L191 449V63ZM87 614Q75 569 34 551Q-13 563 -31 604Q-27 653 24 677Q79 656 87 614ZM290 614Q278 569 237
551Q190 563 172 604Q176 653 227 677Q282 656 290 614Z" />
<glyph unicode="&#xf0;" glyph-name="eth" horiz-adv-x="491" d="M355 631Q412 536 438 439T465 261Q465 134 404 55T245 -24Q151 -24 86 49T20 230T85 410T246 483Q308 483 353 442Q322 533 285 593L196 545L155 563L143 589L250 647L190 722L258 761Q286 731
320 684L418 737L449 681L355 631ZM299 48Q374 115 374 256Q374 305 366 346Q283 421 194 419Q155 395 131 343T107 233Q107 152 152 100T274 47L299 48Z" />
<glyph unicode="&#xf1;" glyph-name="ntilde" horiz-adv-x="590" d="M500 64Q551 57 570 48L564 0H359L354 33L411 55V296Q411 404 347 404Q289 404 191 329V63Q233 58 256 48L250 0H36L31 33L102 59V412L27 406L15 453Q82 482 151 484L191 449V383Q341 484 395
484Q424 479 453 455T491 404T500 307V64ZM111 583Q152 646 180 675T234 704Q257 704 379 617L453 694L488 668Q452 606 428 575T381 544Q361 544 303 585T231 626Q211 626 147 554L111 583Z" />
<glyph unicode="&#xf2;" glyph-name="ograve" horiz-adv-x="491" d="M20 348T83 418T246 488Q344 488 405 416T466 230Q466 117 406 49T248 -20Q149 -20 85 52T20 236ZM307 52Q372 95 372 219Q372 308 339 367T238 426Q193 426 162 404Q115 348 115 247Q115 161
151 103T259 45Q282 45 307 52ZM276 531Q200 603 113 674L186 734L328 574L276 531Z" />
<glyph unicode="&#xf3;" glyph-name="oacute" horiz-adv-x="491" d="M20 348T83 418T246 488Q344 488 405 416T466 230Q466 117 406 49T248 -20Q149 -20 85 52T20 236ZM307 52Q372 95 372 219Q372 308 339 367T238 426Q193 426 162 404Q115 348 115 247Q115 161
151 103T259 45Q282 45 307 52ZM159 574L301 734L374 674Q286 601 211 531L159 574Z" />
<glyph unicode="&#xf4;" glyph-name="ocircumflex" horiz-adv-x="491" d="M20 348T83 418T246 488Q344 488 405 416T466 230Q466 117 406 49T248 -20Q149 -20 85 52T20 236ZM307 52Q372 95 372 219Q372 308 339 367T238 426Q193 426 162 404Q115 348 115 247Q115
161 151 103T259 45Q282 45 307 52ZM206 717H287L412 579L369 538L243 644L127 535L81 573L206 717Z" />
<glyph unicode="&#xf5;" glyph-name="otilde" horiz-adv-x="491" d="M20 348T83 418T246 488Q344 488 405 416T466 230Q466 117 406 49T248 -20Q149 -20 85 52T20 236ZM307 52Q372 95 372 219Q372 308 339 367T238 426Q193 426 162 404Q115 348 115 247Q115 161
151 103T259 45Q282 45 307 52ZM62 583Q103 646 131 675T185 704Q208 704 330 617L404 694L439 668Q403 606 379 575T332 544Q312 544 254 585T182 626Q162 626 98 554L62 583Z" />
<glyph unicode="&#xf6;" glyph-name="odieresis" horiz-adv-x="491" d="M20 348T83 418T246 488Q344 488 405 416T466 230Q466 117 406 49T248 -20Q149 -20 85 52T20 236ZM307 52Q372 95 372 219Q372 308 339 367T238 426Q193 426 162 404Q115 348 115 247Q115
161 151 103T259 45Q282 45 307 52ZM200 614Q188 569 147 551Q100 563 82 604Q86 653 137 677Q192 656 200 614ZM403 614Q391 569 350 551Q303 563 285 604Q289 653 340 677Q395 656 403 614Z" />
<glyph unicode="&#xf7;" glyph-name="divide" horiz-adv-x="602" d="M371 412L370 407Q357 363 313 343Q262 353 241 399L240 402Q246 452 299 480L301 481Q343 465 357 444T371 412ZM542 198H60V264H542V198ZM370 48L369 43Q355 -3 312 -21Q261 -11 240 35L239
38Q245 88 298 116L300 117Q342 101 356 80T370 48Z" />
<glyph unicode="&#xf8;" glyph-name="oslash" horiz-adv-x="491" d="M402 420Q466 350 466 230Q466 117 406 49T248 -20Q194 -20 148 3L102 -71L51 -38L98 38Q20 112 20 236Q20 348 83 418T246 488Q307 488 356 459L394 521L446 491L402 420ZM115 247Q115 167
145 114L317 395Q286 426 238 426Q193 426 162 404Q115 348 115 247ZM307 52Q372 95 372 219Q372 288 353 339L186 67Q217 45 259 45Q282 45 307 52Z" />
<glyph unicode="&#xf9;" glyph-name="ugrave" horiz-adv-x="568" d="M558 31L457 -15Q441 -13 418 10T385 59Q335 27 279 6T192 -15Q137 -3 104 50Q88 73 87 141V412L12 406L0 453Q67 482 136 484L176 449V148Q179 62 242 62Q297 62 382 114V412L307 406L295 453Q362
482 431 484L471 449V86Q471 66 497 66Q512 66 543 75L558 31ZM290 531Q214 603 127 674L200 734L342 574L290 531Z" />
<glyph unicode="&#xfa;" glyph-name="uacute" horiz-adv-x="568" d="M558 31L457 -15Q441 -13 418 10T385 59Q335 27 279 6T192 -15Q137 -3 104 50Q88 73 87 141V412L12 406L0 453Q67 482 136 484L176 449V148Q179 62 242 62Q297 62 382 114V412L307 406L295 453Q362
482 431 484L471 449V86Q471 66 497 66Q512 66 543 75L558 31ZM173 574L315 734L388 674Q300 601 225 531L173 574Z" />
<glyph unicode="&#xfb;" glyph-name="ucircumflex" horiz-adv-x="568" d="M558 31L457 -15Q441 -13 418 10T385 59Q335 27 279 6T192 -15Q137 -3 104 50Q88 73 87 141V412L12 406L0 453Q67 482 136 484L176 449V148Q179 62 242 62Q297 62 382 114V412L307 406L295
453Q362 482 431 484L471 449V86Q471 66 497 66Q512 66 543 75L558 31ZM220 717H301L426 579L383 538L257 644L141 535L95 573L220 717Z" />
<glyph unicode="&#xfc;" glyph-name="udieresis" horiz-adv-x="568" d="M558 31L457 -15Q441 -13 418 10T385 59Q335 27 279 6T192 -15Q137 -3 104 50Q88 73 87 141V412L12 406L0 453Q67 482 136 484L176 449V148Q179 62 242 62Q297 62 382 114V412L307 406L295
453Q362 482 431 484L471 449V86Q471 66 497 66Q512 66 543 75L558 31ZM214 614Q202 569 161 551Q114 563 96 604Q100 653 151 677Q206 656 214 614ZM417 614Q405 569 364 551Q317 563 299 604Q303 653 354 677Q409 656 417 614Z" />
<glyph unicode="&#xfd;" glyph-name="yacute" horiz-adv-x="503" d="M513 432L449 408Q392 223 332 56Q294 -33 240 -100T103 -217L53 -126Q175 -75 239 -4Q207 7 186 27L45 416L-10 419L-9 468H201L207 432L149 410L225 182L242 67H261Q318 225 362 416L302 419L303
468H507L513 432ZM172 574L314 734L387 674Q299 601 224 531L172 574Z" />
<glyph unicode="&#xfe;" glyph-name="thorn" horiz-adv-x="523" d="M276 481L314 485Q393 485 445 418T498 250Q498 134 425 58T240 -19Q202 -19 156 -8V-139Q211 -144 238 -156L232 -204H6L1 -171L67 -147V24H66V663L-8 657L-20 704Q47 733 116 735L156 699V405L276
481ZM319 50Q358 74 381 124T404 230Q404 301 369 352T281 403Q237 403 156 352V86Q206 47 279 47L319 50Z" />
<glyph unicode="&#xff;" glyph-name="ydieresis" horiz-adv-x="503" d="M513 432L449 408Q392 223 332 56Q294 -33 240 -100T103 -217L53 -126Q175 -75 239 -4Q207 7 186 27L45 416L-10 419L-9 468H201L207 432L149 410L225 182L242 67H261Q318 225 362 416L302
419L303 468H507L513 432ZM213 614Q201 569 160 551Q113 563 95 604Q99 653 150 677Q205 656 213 614ZM416 614Q404 569 363 551Q316 563 298 604Q302 653 353 677Q408 656 416 614Z" />
<glyph unicode="&#x2013;" glyph-name="endash" horiz-adv-x="551" d="M507 296L511 267L463 219H47L40 267Q98 296 158 296H507Z" />
<glyph unicode="&#x2014;" glyph-name="emdash" horiz-adv-x="973" d="M930 296L933 267L886 219H47L40 267Q98 296 158 296H930Z" />
<glyph unicode="&#x2018;" glyph-name="quoteleft" horiz-adv-x="218" d="M178 720Q150 700 131 670T110 612L162 572Q160 547 143 525T101 492Q30 521 30 586Q30 634 61 680T149 758L178 720Z" />
<glyph unicode="&#x2019;" glyph-name="quoteright" horiz-adv-x="219" d="M40 530Q68 550 87 580T108 638L56 678Q58 703 75 725T117 758Q189 730 189 661Q189 614 157 569T69 492L40 530Z" />
<glyph unicode="&#x201a;" glyph-name="quotesinglbase" horiz-adv-x="219" d="M40 -70Q68 -50 87 -20T108 38L56 78Q58 103 75 125T117 158Q189 130 189 61Q189 14 157 -31T69 -108L40 -70Z" />
<glyph unicode="&#x201c;" glyph-name="quotedblleft" horiz-adv-x="382" d="M178 720Q150 700 131 670T110 612L162 572Q160 547 143 525T101 492Q30 521 30 586Q30 634 61 680T149 758L178 720ZM342 720Q314 700 295 670T274 612L326 572Q324 547 307 525T265
492Q194 521 194 586Q194 634 225 680T313 758L342 720Z" />
<glyph unicode="&#x201d;" glyph-name="quotedblright" horiz-adv-x="382" d="M40 530Q68 550 87 580T108 638L56 678Q58 703 75 725T117 758Q189 730 189 661Q189 614 157 569T69 492L40 530ZM203 530Q231 550 250 580T271 638L219 678Q221 703 238 725T280 758Q352
730 352 661Q352 614 320 569T232 492L203 530Z" />
<glyph unicode="&#x201e;" glyph-name="quotedblbase" horiz-adv-x="382" d="M40 -70Q68 -50 87 -20T108 38L56 78Q58 103 75 125T117 158Q189 130 189 61Q189 14 157 -31T69 -108L40 -70ZM203 -70Q231 -50 250 -20T271 38L219 78Q221 103 238 125T280 158Q352
130 352 61Q352 14 320 -31T232 -108L203 -70Z" />
<glyph unicode="&#x2022;" glyph-name="bullet" horiz-adv-x="411" d="M326 264Q308 179 218 136Q120 158 85 245Q105 347 197 392Q293 358 326 264Z" />
<glyph unicode="&#x2039;" glyph-name="guilsinglleft" horiz-adv-x="315" d="M194 463L250 433L149 253L255 81L200 46L60 233V273L194 463Z" />
<glyph unicode="&#x203a;" glyph-name="guilsinglright" horiz-adv-x="315" d="M255 233L115 46L60 81L166 253L65 433L121 463L255 273V233Z" />
</font>
</defs>
</svg>
