<?xml version="1.0" standalone="no"?>
<!DOCTYPE svg PUBLIC "-//W3C//DTD SVG 1.1//EN" "http://www.w3.org/Graphics/SVG/1.1/DTD/svg11.dtd">
<svg xmlns="http://www.w3.org/2000/svg">
<defs >
<font id="FanwoodText" horiz-adv-x="2037" ><font-face
    font-family="Fanwood Text"
    units-per-em="4096"
    panose-1="2 0 5 3 0 0 0 0 0 0"
    ascent="3761"
    descent="-1609"
    alphabetic="0" />
<glyph unicode=" " glyph-name="space" horiz-adv-x="819" />
<glyph unicode="!" glyph-name="exclam" horiz-adv-x="901" d="M406 614Q406 705 503 1485T627 2601Q633 2703 758 2703H778Q893 2703 893 2621Q893 2608 885 2568Q746 1950 532 614Q528 586 487 586H455Q406 586 406 614ZM320 26Q253 96 253 167T320 310T451
381T581 312T647 183T627 78T577 8Q444 -107 320 26Z" />
<glyph unicode="&quot;" glyph-name="quotedbl" horiz-adv-x="1069" d="M643 2093Q643 2140 661 2399T685 2710Q699 2830 827 2830Q890 2830 924 2799T958 2731T944 2635T859 2345T785 2107T778 2082T770 2059T763 2044T750 2032Q726 2023 704 2023Q643 2023 643
2093ZM111 2093Q111 2140 129 2399T153 2710Q167 2830 295 2830Q358 2830 392 2799T426 2731T412 2635T327 2345T253 2107T246 2082T238 2059T231 2044T218 2032Q194 2023 172 2023Q111 2023 111 2093Z" />
<glyph unicode="#" glyph-name="numbersign" horiz-adv-x="1810" d="M111 1401Q111 1458 152 1458H541Q576 1458 581 1463T613 1656T658 1985Q681 2163 699 2177T761 2191T815 2190T842 2184Q872 2174 872 2149T853 1998T807 1706T775 1506T773 1465T799 1458Q972
1458 1068 1458T1167 1460T1172 1476T1223 1811T1278 2148T1286 2168Q1298 2191 1338 2191T1392 2190T1424 2184Q1458 2176 1458 2149T1439 1989T1395 1695T1365 1502T1363 1464T1384 1458H1626Q1670 1458 1685 1443T1700 1389T1690 1333Q1675 1311 1634 1311H1368Q1338
1311 1332 1306T1323 1274L1253 811Q1248 786 1252 780T1282 774H1642Q1678 774 1689 757T1700 695T1686 637T1630 623H1257Q1236 623 1232 619T1225 594L1143 8Q1134 -36 1108 -44T1036 -53T972 -45T954 -5T999 319T1042 617T1016 623H672Q648 623 643 618Q637
612 596 304T547 -17T533 -36Q518 -53 458 -53T379 -39T360 0T377 141T417 400T444 578T444 618T410 623H172Q133 623 122 640T111 692V709Q111 774 168 774H451Q473 774 476 777T481 782T483 787T484 794T485 804T513 1021T544 1264T545 1304T520 1311H152Q111
1311 111 1376V1401ZM698 1027T683 931T664 813T663 786T696 782H1032Q1058 782 1064 786T1104 1019T1144 1275T1146 1311T1114 1319H782Q755 1319 748 1314T734 1265T713 1124Z" />
<glyph unicode="$" glyph-name="dollar" horiz-adv-x="2048" d="M946 -8Q909 -8 909 -57L852 -561Q847 -594 815 -594H737Q710 -594 717 -549L791 -53Q795 -37 795 -23V-6Q795 10 782 11T757 15T691 29T546 86T393 187T284 304Q193 424 193 524Q193 566 247 604T328
643T376 605T427 494Q540 229 688 147Q796 103 806 112T819 147L950 1106Q958 1151 955 1166T837 1252T633 1392Q348 1621 348 1925Q348 2290 676 2474Q866 2580 1098 2580Q1134 2580 1139 2609L1159 2757Q1164 2806 1196 2806H1253Q1283 2806 1278 2757L1257 2605Q1253
2572 1270 2568Q1564 2521 1725 2262Q1806 2131 1806 2055Q1806 1917 1720 1917Q1677 1917 1636 1956T1587 2033T1569 2134Q1548 2267 1524 2302Q1420 2442 1274 2466Q1237 2472 1237 2458L1106 1454Q1097 1397 1114 1384Q1305 1261 1346 1231Q1545 1088 1630 937T1716
598T1614 272Q1409 -8 946 -8ZM1118 2462Q1118 2478 1113 2478H1102Q912 2472 756 2340Q590 2202 590 1987Q590 1844 697 1701T946 1479Q971 1467 979 1473T991 1507L1118 2462ZM1073 1108T1071 1107T1005 625T942 118T965 90H1004Q1204 96 1333 231T1462 556T1353
885T1085 1102Q1073 1108 1071 1107Z" />
<glyph unicode="%" glyph-name="percent" horiz-adv-x="2691" d="M1458 1999L1357 2004Q1352 2004 1345 2004T1336 2003T1331 2001T1327 1995T1327 1987T1326 1974T1327 1958V1901Q1327 1831 1319 1742T1247 1510T1088 1258T867 1080T611 1012T384 1076Q193 1204
193 1483Q193 1637 262 1781T398 2012T544 2168Q718 2318 930 2318Q1098 2318 1210 2206T1437 2093Q1638 2093 1831 2208Q1955 2286 2068 2398Q2200 2529 2216 2547Q2262 2601 2275 2601T2322 2580T2355 2542T2241 2357Q646 -8 553 -152Q538 -180 458 -180T377
-135Q377 -119 712 359Q1918 2081 1892 2107Q1887 2108 1864 2097Q1656 1999 1458 1999ZM1184 1888Q1184 2163 983 2163Q897 2163 797 2091T613 1909T474 1654T418 1405T439 1240Q488 1098 627 1098Q789 1098 935 1250Q1184 1507 1184 1888ZM1459 80T1412 185T1364
413T1403 656T1515 884T1680 1078Q1881 1266 2088 1266T2397 1142T2499 807T2397 396T2128 74T1808 -49T1556 15ZM2150 1106Q1973 1106 1784 850Q1589 588 1589 319Q1589 198 1640 120T1792 41T1993 103T2173 268Q2355 504 2355 805T2150 1106Z" />
<glyph unicode="&amp;" glyph-name="ampersand" horiz-adv-x="2838" d="M2183 1262L2187 1135Q2187 814 2004 495Q1786 115 1376 -2Q1223 -45 1029 -45T659 22T370 206Q131 451 131 823Q131 1099 312 1320Q366 1385 437 1443T509 1505T478 1547T414 1629Q328 1752
328 1919T373 2210T503 2432Q687 2646 1008 2646Q1176 2646 1289 2598T1447 2508T1491 2400Q1491 2269 1401 2179Q1359 2137 1309 2202Q1166 2388 909 2388Q797 2388 697 2326T538 2160T479 1928T549 1692T709 1585L934 1606Q1024 1606 1024 1544Q1024 1495 973
1450Q868 1356 790 1356T598 1413Q524 1399 448 1280Q377 1170 377 966T488 587T787 320T1204 229Q1580 229 1818 472Q2040 699 2040 1085Q2040 1156 2027 1242T1999 1335Q1688 1450 1554 1450T1351 1392T1282 1229Q1282 1062 1492 1019Q1529 1011 1544 1009Q1647
994 1647 955T1601 882T1507 848T1399 866T1290 923T1216 1006Q1167 1092 1167 1187T1214 1382T1340 1545Q1505 1675 1729 1675Q1848 1675 2016 1609Q2336 1483 2527 1483Q2625 1483 2684 1543T2744 1700Q2744 1946 2413 1946Q2355 1946 2355 1987Q2355 2055 2407
2098T2525 2142T2648 2117T2742 2052T2804 1961Q2851 1868 2851 1740T2785 1500T2596 1328T2375 1266T2239 1274T2192 1281T2183 1262Z" />
<glyph unicode="&apos;" glyph-name="quotesingle" horiz-adv-x="536" d="M111 2093Q111 2140 129 2399T153 2710Q167 2830 295 2830Q358 2830 392 2799T426 2731T412 2635T327 2345T253 2107T246 2082T238 2059T231 2044T218 2032Q194 2023 172 2023Q111 2023 111 2093Z" />
<glyph unicode="(" glyph-name="parenleft" horiz-adv-x="1142" d="M975 -516Q975 -586 897 -586Q831 -586 578 -193Q288 259 190 774Q152 974 152 1157T177 1507T245 1812T344 2077T461 2305T585 2493T704 2641T807 2747Q898 2834 919 2834T965 2815T991 2780T971
2740T918 2675T841 2577T749 2442T652 2273T561 2064T484 1820Q410 1543 410 1276T434 814T498 468T589 181T692 -55T796 -238T886 -376Q975 -495 975 -516Z" />
<glyph unicode=")" glyph-name="parenright" horiz-adv-x="1142" d="M168 2765Q168 2834 246 2834Q312 2834 564 2441Q855 1989 953 1474Q991 1274 991 1091T966 741T898 436T799 171T682 -57T557 -245T438 -393T335 -499Q244 -586 223 -586T177 -566T152 -531T172
-491T225 -426T302 -328T394 -193T491 -24T582 185T660 428Q733 706 733 987T702 1487T621 1870T511 2175T390 2416T280 2589T199 2706T168 2765Z" />
<glyph unicode="*" glyph-name="asterisk" horiz-adv-x="1601" d="M188 1708T150 1741T111 1826Q111 1928 213 1970Q259 1991 420 2047T628 2123T687 2152T694 2172T666 2196T629 2223T465 2328T269 2474T221 2583T254 2675T336 2712Q424 2712 469 2663T559 2543T659
2382T725 2272T744 2243T753 2228T759 2220T764 2216T768 2218T772 2225T778 2239T792 2272T836 2396Q919 2639 949 2684Q1012 2777 1081 2777T1185 2737T1221 2645T1182 2538T1017 2372T873 2243T848 2215T837 2203T828 2193T823 2185T821 2178T822 2173T830 2169T842
2164Q883 2157 1097 2152T1364 2130Q1491 2089 1491 1991Q1491 1930 1449 1895T1357 1860T1229 1894T1039 1987T899 2059T857 2079T838 2088T826 2092T818 2091T816 2081Q813 2057 856 1924Q942 1659 942 1601T930 1506Q899 1413 818 1413T698 1466T659 1568T671
1688T703 1851T729 1986T737 2060T725 2089T680 2057T524 1896T350 1737T244 1708Z" />
<glyph unicode="+" glyph-name="plus" horiz-adv-x="2158" d="M143 758T129 782T115 849T117 906T127 935Q142 963 201 963H897Q948 963 961 977T975 1028V1749Q975 1797 998 1810T1060 1823T1115 1821T1149 1810Q1184 1794 1184 1729V1061Q1184 984 1203 974T1241
963H1966Q2016 963 2030 940T2044 860T2028 781T1946 758H1241Q1186 758 1184 732Q1184 724 1184 712V-20Q1184 -76 1161 -87Q1130 -102 1076 -102T999 -88T975 -16V696Q975 740 962 749T921 758H197Q143 758 129 782Z" />
<glyph unicode="," glyph-name="comma" horiz-adv-x="798" d="M74 -618T45 -580T16 -527T42 -490Q158 -397 195 -361T258 -296T318 -223Q389 -130 389 -57T349 68T264 164Q168 261 168 279Q168 312 257 359T383 406T448 391T512 346T577 276Q647 184 647 88T594
-106T463 -290T306 -453Q132 -618 103 -618Z" />
<glyph unicode="-" glyph-name="hyphen" horiz-adv-x="1097" d="M880 828T530 814T146 799T111 837T137 935T194 999T575 1015T946 1028T967 984Q967 837 926 831Q880 828 530 814Z" />
<glyph unicode="." glyph-name="period" horiz-adv-x="860" d="M300 26Q233 96 233 167T300 310T431 381T561 312T627 183T607 78T557 8Q424 -107 300 26Z" />
<glyph unicode="/" glyph-name="slash" horiz-adv-x="1662" d="M20 -918Q20 -882 106 -664L1405 2818Q1426 2890 1472 2894Q1493 2896 1565 2896T1638 2851Q1638 2802 1577 2654L291 -831Q259 -921 244 -942Q227 -967 124 -967T20 -918Z" />
<glyph unicode="0" glyph-name="zero" horiz-adv-x="2048" d="M358 246T300 379T242 681T305 1004T480 1272Q718 1511 1081 1511Q1415 1511 1616 1305Q1810 1105 1810 842T1700 385T1399 79T1020 -33T695 16T459 156ZM451 606Q451 473 516 355Q642 123 946 123Q1247
123 1453 406Q1589 593 1589 839T1446 1224T1081 1364Q780 1364 573 1040Q451 848 451 606Z" />
<glyph unicode="1" glyph-name="one" horiz-adv-x="2048" d="M958 -12L569 -20Q538 -20 529 -5T520 47T531 99T582 115Q672 115 724 115T779 117T783 132T803 244T874 654Q991 1369 993 1401T994 1444T971 1454H745Q702 1454 698 1485Q696 1496 696 1525Q696 1589
745 1589L1135 1581L1511 1589Q1545 1589 1553 1574T1561 1522T1550 1470T1499 1454H1331L1304 1453Q1299 1453 1298 1449T1296 1442Q1294 1440 1287 1395T1236 1068Q1092 136 1103 126T1143 115H1360Q1403 115 1408 84Q1409 73 1409 44Q1409 -20 1360 -20L958
-12Z" />
<glyph unicode="2" glyph-name="two" horiz-adv-x="2048" d="M283 -12Q209 -12 209 45Q209 81 262 123Q318 176 549 332T901 598Q1196 861 1196 1090Q1196 1249 1108 1353T864 1458Q653 1458 404 1160Q375 1126 362 1126T316 1152T283 1197T318 1260T421 1367T572
1487Q771 1626 1002 1626T1368 1500T1503 1147Q1503 795 786 366Q747 343 680 304T594 250H1614Q1628 250 1685 350T1749 451Q1765 451 1804 435T1843 409T1813 336Q1700 104 1681 53T1651 -5T1618 -12H283Z" />
<glyph unicode="3" glyph-name="three" horiz-adv-x="2048" d="M852 299L623 287Q580 287 563 298T545 351T561 410T667 452T859 521T1050 624T1199 755Q1327 906 1327 1087T1238 1363T1029 1458T821 1435T683 1385T592 1334T540 1311T506 1344T483 1395T540 1446T681
1514Q890 1597 1058 1597T1341 1548T1522 1397T1589 1196T1576 1043T1543 945T1491 857T1429 780T1358 712T1288 655T1219 608T1161 572Q1105 541 1098 537Q1223 510 1274 493Q1712 348 1712 -86Q1712 -248 1633 -398T1425 -656Q1144 -889 799 -889Q484 -889 306
-734Q217 -656 217 -597T346 -537T520 -586Q669 -762 825 -762T1116 -673T1334 -440T1417 -143Q1417 82 1268 190T852 299Z" />
<glyph unicode="4" glyph-name="four" horiz-adv-x="2048" d="M1382 -17L1282 -786Q1274 -834 1240 -842Q1086 -881 1046 -881Q963 -881 963 -807Q963 -794 1026 -460T1099 -74T1105 -17T1073 -12H262Q176 -12 176 33Q176 124 356 360Q378 389 430 442T529 551T668
708T822 872T1001 1057T1160 1223T1280 1348Q1541 1618 1598 1618T1655 1548Q1655 1523 1651 1507L1446 295Q1428 233 1479 233H1835Q1876 233 1876 180V41Q1876 8 1864 -2T1815 -12Q1604 -12 1493 -12T1382 -17ZM496 340Q442 286 442 260T520 233H1122Q1157 233
1168 244T1188 303L1331 1192Q1337 1217 1329 1217T1303 1200L496 340Z" />
<glyph unicode="5" glyph-name="five" horiz-adv-x="2048" d="M270 -881Q225 -881 225 -822T266 -762Q848 -719 1080 -390Q1188 -237 1188 -20Q1188 229 898 436Q790 512 705 562T580 640Q492 699 492 732T537 888T653 1202T747 1467T777 1547T794 1557Q807 1561
831 1561L1528 1499L1580 1498Q1610 1498 1618 1516T1634 1550T1647 1579T1660 1604Q1673 1630 1690 1630T1742 1619T1778 1592T1726 1437T1668 1285T1662 1267T1655 1253T1647 1240T1637 1231T1622 1222Q1595 1217 1576 1217T1466 1230T1212 1266T940 1303T815
1286Q770 1195 723 1064T676 913Q676 906 719 882T832 820T986 730T1155 606T1310 451Q1466 266 1466 37Q1466 -362 1052 -640Q827 -791 530 -853Q394 -881 270 -881Z" />
<glyph unicode="6" glyph-name="six" horiz-adv-x="2048" d="M1786 2744Q1839 2744 1839 2654Q1839 2633 1798 2617Q1461 2482 1278 2304T945 1930T731 1608T664 1458Q684 1461 743 1472T834 1488Q930 1503 1028 1503Q1357 1503 1551 1315T1745 782Q1745 407 1494
184Q1251 -33 909 -33Q343 -33 235 520Q213 632 213 791T259 1138T380 1485T562 1799Q852 2224 1262 2496Q1482 2642 1619 2693T1786 2744ZM1438 807Q1438 1393 958 1393Q886 1393 766 1365T627 1311Q558 1215 523 1041T487 759T496 592T525 462T581 331T666 220Q774
111 954 111Q1170 111 1306 324Q1438 531 1438 807Z" />
<glyph unicode="7" glyph-name="seven" horiz-adv-x="2048" d="M336 1122Q254 1122 254 1171Q254 1189 278 1256Q361 1491 378 1596T409 1725T451 1749Q532 1749 532 1700L524 1626Q553 1622 721 1622H1819Q1884 1622 1884 1573Q1884 1522 1472 846T982 37T840
-212Q655 -541 600 -691T532 -856T484 -872T402 -845T356 -778Q356 -686 515 -399T863 178T1286 822Q1614 1318 1614 1339T1569 1360H778Q489 1360 442 1331L389 1167Q388 1165 385 1157T379 1144T370 1134Q360 1122 336 1122Z" />
<glyph unicode="8" glyph-name="eight" horiz-adv-x="2048" d="M320 284Q274 392 274 505T296 701T355 852T441 985T539 1098T641 1191T734 1265T807 1317T848 1348Q844 1353 802 1392T721 1472T628 1580T536 1716Q442 1880 442 2037T495 2318T642 2532Q842 2720
1129 2720T1575 2572T1733 2159Q1733 1906 1482 1650Q1399 1565 1302 1492T1196 1409Q1200 1405 1246 1362T1336 1274T1441 1152T1545 998Q1651 811 1651 644T1591 356T1429 153Q1210 -25 893 -25Q452 -25 320 284ZM594 921T557 813T520 594T554 389T646 232Q769
102 913 102T1162 168T1326 342T1384 554T1341 761T1236 947T1106 1107Q975 1252 922 1278Q865 1260 782 1169T647 999ZM684 2180Q684 2099 724 1997T821 1810T940 1651Q1066 1502 1110 1483Q1162 1500 1246 1593T1382 1765Q1507 1950 1507 2147T1397 2473T1102
2601Q903 2601 790 2466Q684 2341 684 2180Z" />
<glyph unicode="9" glyph-name="nine" horiz-adv-x="2048" d="M160 -758Q160 -735 221 -716T356 -672T562 -565T818 -380Q1049 -185 1257 66Q1311 131 1331 180Q1316 176 1282 162Q1114 90 926 90Q665 90 507 281T348 786Q348 971 420 1130T613 1398Q868 1626
1212 1626Q1406 1626 1548 1524Q1835 1317 1835 831Q1835 510 1674 208T1257 -307Q925 -587 465 -770Q257 -852 209 -852T160 -758ZM665 1042T640 931T614 711T639 515T714 362Q819 225 1014 225T1335 279Q1400 307 1456 417Q1573 650 1573 938T1472 1361T1235
1495T1004 1449T837 1324T716 1144Z" />
<glyph unicode=":" glyph-name="colon" horiz-adv-x="856" d="M419 1152Q352 1222 352 1293T419 1436T550 1507T680 1438T746 1309T726 1204T676 1134Q543 1019 419 1152ZM300 26Q233 96 233 167T300 310T431 381T561 312T627 183T607 78T557 8Q424 -107 300 26Z" />
<glyph unicode=";" glyph-name="semicolon" horiz-adv-x="798" d="M382 1152Q315 1222 315 1293T382 1436T513 1507T643 1438T709 1309T689 1204T639 1134Q506 1019 382 1152ZM74 -618T45 -580T16 -527T42 -490Q158 -397 195 -361T258 -296T318 -223Q389 -130
389 -57T349 68T264 164Q168 261 168 279Q168 312 257 359T383 406T448 391T512 346T577 276Q647 184 647 88T594 -106T463 -290T306 -453Q132 -618 103 -618Z" />
<glyph unicode="&lt;" glyph-name="less" horiz-adv-x="2158" d="M1917 1573Q2007 1573 2007 1458Q2007 1407 1933 1380L643 926Q503 876 479 852Q490 841 555 820T643 791L1954 332Q2007 317 2007 273T1979 193T1916 156T1818 177T1271 376T221 758Q179 772 168
794T156 852T159 902Q167 935 225 958Q1049 1258 1445 1404Q1900 1573 1917 1573Z" />
<glyph unicode="=" glyph-name="equal" horiz-adv-x="2158" d="M118 486T117 501T115 544T117 587T127 618Q142 647 201 647H1966Q2016 647 2030 624T2044 544T2028 463T1946 438H197Q137 438 128 462ZM116 1148Q115 1160 115 1185T117 1225T127 1254Q142 1282
201 1282H1966Q2016 1282 2030 1259T2044 1179T2028 1100T1946 1077H197Q118 1077 116 1148Z" />
<glyph unicode="&gt;" glyph-name="greater" horiz-adv-x="2158" d="M205 332L1520 791Q1674 843 1683 852Q1663 872 1520 926L225 1380Q156 1405 156 1458Q156 1573 242 1573Q259 1573 677 1418T1933 958Q1980 940 1993 921T2007 860T1994 795T1937 758Q1373
553 888 376Q284 156 254 156T198 176Q156 211 156 265T205 332Z" />
<glyph unicode="?" glyph-name="question" horiz-adv-x="1531" d="M438 2433Q377 2433 377 2564V2605Q377 2666 424 2676Q546 2703 764 2703T1110 2619T1319 2376T1401 2089T1390 1894T1350 1773Q1271 1623 894 1256Q799 1163 776 1140T708 1075T634 1002T569
931Q496 848 496 800T514 712T553 647T592 598T610 566T583 531T542 504T495 534T424 610Q332 727 332 841T400 1060T561 1257T746 1438T901 1585T1039 1725T1160 1866Q1270 2008 1270 2100T1225 2272Q1145 2413 981 2434Q899 2445 766 2445L438 2433ZM382 26Q315
96 315 167T382 310T513 381T643 312T709 183T689 78T639 8Q506 -107 382 26Z" />
<glyph unicode="@" glyph-name="at" horiz-adv-x="3256" d="M1536 467Q1286 217 1073 217Q991 217 932 270Q823 368 823 569Q823 821 1118 1202Q1350 1500 1645 1596Q1752 1630 1818 1630T1915 1624T1965 1612T1989 1608T2032 1657T2093 1718T2159 1733Q2273 1733
2273 1667Q2273 1636 2261 1606Q2126 1315 1968 936T1810 471Q1810 392 1821 380Q1843 356 1880 356Q2050 356 2256 456T2616 711Q2916 1011 2916 1380Q2916 1918 2522 2144Q2283 2281 1929 2281Q1516 2281 1152 2080Q796 1885 579 1538Q356 1181 356 741Q356 499
447 295T690 -46Q1013 -332 1458 -332Q2021 -332 2454 -29Q2584 62 2672 145T2786 229T2833 197T2855 146T2830 102Q2574 -176 2213 -325T1446 -475Q1121 -475 834 -333Q551 -193 374 85Q193 372 193 766Q193 1448 734 1946Q1061 2247 1492 2364Q1705 2421 1902
2421T2262 2388T2573 2279T2830 2088Q3064 1838 3064 1409Q3064 937 2708 603Q2513 419 2215 308Q1947 209 1675 209Q1520 209 1520 311Q1520 377 1536 467ZM1189 938T1156 823T1122 620T1166 479T1284 426T1444 519T1605 749T1740 1031T1837 1287T1872 1434T1835
1494T1752 1520T1639 1483T1504 1381T1366 1227T1243 1037Z" />
<glyph unicode="A" glyph-name="A" horiz-adv-x="2818" d="M438 -12L135 -25Q93 -25 82 -9T70 54T86 112T156 123H287Q319 161 604 652Q1515 2217 1712 2507Q1733 2538 1772 2576Q1871 2676 1910 2751T1991 2826Q2047 2826 2057 2752T2127 2314T2238 1643T2352
976Q2488 196 2523 123H2691Q2726 123 2737 109T2748 52T2737 -8T2691 -25L2322 -12L1864 -25Q1822 -25 1810 -9T1798 55T1814 112T1884 123H2114V156Q2114 252 2058 647T1998 1081T1987 1129T1954 1139H1163Q1126 1139 1114 1132T1089 1100T998 930T870 689T748
458Q602 179 586 123H856Q891 123 902 109T913 52T902 -8T856 -25L438 -12ZM1525 1897T1375 1633T1201 1324T1176 1271T1237 1262H1921Q1962 1262 1962 1270Q1962 1312 1877 1829T1786 2347T1653 2122Z" />
<glyph unicode="B" glyph-name="B" horiz-adv-x="2338" d="M561 -12L139 -25Q96 -25 83 -9T70 55T86 112T156 123H319Q319 124 338 252T387 575T453 1014T524 1506T588 1974Q655 2468 655 2572V2593H377Q337 2593 324 2605T311 2676T360 2736L573 2730Q786 2724
872 2724L1323 2736Q1947 2736 2101 2364Q2146 2255 2146 2133T2113 1919T2030 1759T1907 1632T1769 1534T1625 1462Q1515 1416 1401 1384Q1617 1355 1731 1301T1921 1191T2048 1066Q2167 907 2167 676Q2167 -25 971 -25L561 -12ZM692 226T692 194T712 154Q756
135 970 135T1330 171T1582 280Q1806 430 1806 741Q1806 1083 1508 1226Q1329 1311 1073 1311H946Q913 1311 896 1310T868 1308T851 1300Q838 1282 765 754ZM967 1421L1176 1417Q1247 1417 1295 1438T1404 1490T1519 1558T1628 1646T1718 1756Q1798 1884 1798 2052Q1798
2299 1634 2448T1192 2597H1126Q1065 2597 1044 2578Q1006 2544 864 1491Q860 1471 860 1446T901 1421H967Z" />
<glyph unicode="C" glyph-name="C" horiz-adv-x="2809" d="M2363 1806L2458 2204Q2424 2259 2306 2346T2090 2488Q1858 2621 1666 2621T1326 2559T1060 2391T839 2143T670 1842Q524 1503 524 1216T601 721T812 378Q1091 94 1503 94Q1819 94 2096 268Q2232 352
2245 397Q2272 475 2308 604T2347 741Q2368 816 2458 786Q2535 769 2535 735T2400 250Q2376 173 2074 55Q1755 -70 1475 -70Q812 -70 450 302Q131 629 131 1192Q131 1851 582 2312Q861 2597 1243 2706Q1433 2761 1656 2761T2112 2664T2490 2417Q2493 2426 2498
2448T2509 2490T2520 2529Q2533 2572 2548 2572Q2585 2572 2632 2557T2679 2515Q2679 2497 2646 2334L2595 2077Q2576 1982 2558 1891T2536 1784T2528 1761T2513 1752Q2500 1748 2482 1748L2470 1749Q2430 1749 2397 1766T2363 1806Z" />
<glyph unicode="D" glyph-name="D" horiz-adv-x="3039" d="M520 -12L123 -29Q86 -29 76 -15T66 44T84 102T147 115H315Q344 211 484 1195T672 2560Q672 2573 664 2593L381 2585Q347 2585 331 2596T315 2647T327 2706T381 2724Q381 2724 868 2720L1409 2728Q2232
2728 2613 2270Q2888 1938 2888 1372Q2888 580 2269 200Q1897 -29 1397 -29L520 -12ZM746 504T730 365T713 182T731 126T970 115T1385 150T1721 243T1982 386T2179 560T2319 758T2414 962T2469 1163Q2503 1331 2503 1509T2459 1852T2319 2154T2083 2387Q1786 2589
1294 2589Q1051 2589 1049 2572Q1045 2556 995 2215T906 1620T836 1144T775 713Z" />
<glyph unicode="E" glyph-name="E" horiz-adv-x="2371" d="M561 -12L139 -25Q96 -25 83 -9T70 55T86 112T156 123H319Q320 131 352 336T419 762T498 1285T577 1832Q659 2422 659 2564L655 2593H418Q357 2593 351 2616T344 2666Q344 2736 397 2736L592 2730Q786
2724 872 2724Q872 2724 1729 2736Q2100 2736 2105 2777Q2105 2839 2171 2839Q2216 2839 2234 2828T2253 2789T2237 2607T2216 2261Q2216 2232 2200 2224T2140 2216T2080 2226T2064 2253T2089 2576Q1911 2601 1032 2601Q993 2490 929 1991T864 1477T865 1460Q868
1454 913 1454H1585Q1757 1454 1765 1499L1810 1724Q1814 1753 1884 1753T1954 1716Q1954 1689 1924 1553Q1834 1131 1828 1052T1810 964Q1795 954 1757 954H1741Q1675 954 1675 987L1724 1274Q1724 1305 1671 1312T1532 1319H913Q867 1319 859 1315T842 1269T766
754T684 160Q684 135 700 135L2007 164Q2024 179 2077 343T2144 541T2171 586T2217 598T2275 583T2302 543T2280 452T2210 256T2142 63T2102 -13T2048 -25L561 -12Z" />
<glyph unicode="F" glyph-name="F" horiz-adv-x="2215" d="M561 -12L131 -25Q90 -25 80 -10T70 54T83 113T147 123H319Q320 131 352 336T419 762T498 1285T577 1832Q659 2422 659 2564L655 2593H434Q376 2593 360 2613T344 2666Q344 2736 406 2736L596 2730Q786
2724 872 2724L1729 2736Q1953 2736 1975 2743T1997 2760T1998 2772T2002 2796Q2008 2839 2062 2839T2131 2831T2146 2797T2138 2703Q2116 2500 2113 2369T2095 2227T2043 2216T1990 2219T1969 2236Q1962 2250 1962 2290T1982 2576Q1826 2601 1032 2601Q1011 2531
938 2011T864 1475T869 1456T913 1454H1552Q1723 1454 1733 1499L1765 1675Q1768 1712 1838 1712T1909 1675Q1909 1649 1885 1530T1851 1354T1830 1232T1812 1104T1802 1032Q1797 995 1758 995T1709 996T1683 1000Q1653 1006 1655 1030T1667 1115T1684 1222T1692
1279T1681 1299Q1657 1319 1499 1319H913Q867 1319 859 1315T842 1270T766 749T684 147Q678 123 705 123H979Q1013 123 1020 111T1028 66T1028 25T1025 3T1018 -14Q1005 -25 979 -25L561 -12Z" />
<glyph unicode="G" glyph-name="G" horiz-adv-x="2953" d="M2482 1909Q2538 2192 2552 2331Q2516 2377 2310 2470Q1913 2650 1727 2650T1386 2586T1107 2413T876 2154T698 1838Q545 1485 545 1184T620 675T824 332Q1093 45 1483 45Q1865 45 2083 223Q2132 263
2138 291Q2199 528 2212 844V870Q2212 889 2187 889H1831Q1794 889 1794 962T1835 1036L2376 1024L2806 1036Q2843 1036 2843 989V946Q2843 889 2806 889H2572Q2556 838 2530 587T2500 306T2425 225T2227 116T1948 4Q1595 -119 1262 -119Q827 -119 496 166Q131
480 131 1090Q131 1537 348 1932Q556 2311 909 2542Q1269 2777 1715 2777T2568 2531Q2574 2549 2578 2581T2585 2633Q2593 2683 2642 2683Q2749 2683 2740 2634Q2690 2305 2667 2101T2638 1883Q2626 1847 2554 1847T2482 1909Z" />
<glyph unicode="H" glyph-name="H" horiz-adv-x="3256" d="M557 -12L131 -25Q91 -25 81 -8T70 52T83 109T147 123H365Q405 223 565 1326T725 2517T700 2605H434Q408 2605 399 2620T389 2681T404 2740T463 2753L913 2740L1327 2753Q1370 2753 1383 2736T1397 2672T1381
2615T1311 2605H1110Q1076 2533 998 2007T924 1463T963 1446H2347Q2387 1446 2392 1483Q2515 2373 2515 2481T2511 2597T2490 2605H2232Q2179 2605 2179 2666T2197 2740T2261 2753L2707 2740L3117 2753Q3160 2753 3173 2736T3187 2672T3171 2615T3101 2605H2900Q2838
2486 2632 768Q2564 196 2564 160T2585 123H2818Q2853 123 2864 109T2875 52T2864 -8T2818 -25L2351 -12L1962 -25Q1919 -25 1906 -9T1892 55T1908 112T1978 123H2187Q2197 154 2207 219T2226 333T2245 457T2265 596T2288 756T2312 923T2337 1104T2359 1258T2365
1308Q2363 1323 2331 1323H946Q911 1323 903 1316T889 1270Q758 312 758 218T778 123H1020Q1055 123 1066 109T1077 52T1066 -8T1020 -25L557 -12Z" />
<glyph unicode="I" glyph-name="I" horiz-adv-x="1544" d="M602 -12L139 -25Q96 -25 83 -9T70 55T86 112T156 123H393Q430 235 592 1320T754 2505T729 2605H455Q397 2605 397 2666T415 2740T479 2753Q479 2753 958 2740L1405 2753Q1448 2753 1461 2736T1475 2672T1459
2615T1389 2605H1159Q1115 2510 961 1429T807 164Q807 123 827 123H1098Q1133 123 1144 109T1155 52T1144 -8T1098 -25L602 -12Z" />
<glyph unicode="J" glyph-name="J" horiz-adv-x="1495" d="M950 2740L1356 2753Q1398 2753 1411 2736T1425 2672T1409 2615T1339 2605H1139Q1100 2523 1010 1827Q860 670 850 587T831 433T814 317T793 186T765 46T728 -89T679 -229T616 -360Q511 -569 280 -762Q137
-881 -20 -881Q-137 -881 -193 -843T-250 -761T-210 -662T-118 -574Q-3 -496 35 -496T142 -539T250 -582Q348 -582 392 -359Q409 -272 420 -156T455 188T559 1046T697 2099T754 2546T753 2581Q751 2605 725 2605H438Q394 2605 373 2618T352 2679T372 2740T438 2753L950
2740Z" />
<glyph unicode="K" glyph-name="K" horiz-adv-x="2686" d="M475 -12L131 -25Q91 -25 81 -8T70 51T87 108T156 123H283Q323 224 493 1328T664 2518T639 2605H406Q344 2605 344 2679Q344 2727 365 2740T434 2753L852 2740Q852 2740 1233 2753Q1274 2753 1284 2737T1294
2673T1281 2615T1217 2605H1065Q1011 2557 885 1770Q843 1508 839 1453T881 1397H1081Q1111 1397 1459 1842T1915 2438T2023 2597T1978 2605H1884Q1840 2605 1821 2618T1802 2679T1819 2740T1876 2753L2175 2740L2503 2753Q2545 2753 2558 2736T2572 2672T2556
2615T2486 2605H2257Q1948 2191 1364 1540Q1303 1471 1303 1465T1366 1400T1562 1184T1792 894T2060 529T2280 227Q2357 123 2445 123H2568Q2602 123 2609 111T2617 66T2617 25T2614 3T2606 -14Q2594 -25 2568 -25L2093 -12L1765 -25Q1724 -25 1714 -10T1704 54T1720
112T1790 123H1823Q1892 123 1892 138T1847 213Q1075 1298 1049 1298H848Q816 1298 811 1270Q792 1132 750 854Q659 243 659 156L664 123H938Q973 123 984 109T995 52T984 -8T938 -25L475 -12Z" />
<glyph unicode="L" glyph-name="L" horiz-adv-x="2400" d="M545 -12L135 -25Q93 -25 82 -9T70 53T86 111T152 123H356Q382 274 525 1377T668 2564V2605H426Q383 2605 370 2619T356 2680T370 2740T434 2753L852 2740Q852 2740 1303 2753Q1355 2753 1369 2739T1384
2682T1367 2622T1298 2605H1057Q1032 2430 887 1340T741 213T756 157T894 139T1300 144Q2029 159 2040 171T2073 250L2179 573Q2193 615 2232 610Q2331 599 2331 553Q2331 547 2310 480Q2229 225 2198 111T2150 -14T2101 -25L545 -12Z" />
<glyph unicode="M" glyph-name="M" horiz-adv-x="3616" d="M434 -12L139 -25Q96 -25 83 -9T70 55T86 112T156 123H344Q390 336 533 976Q885 2551 885 2585Q885 2605 795 2605H606Q571 2605 560 2619T549 2676T560 2736T606 2753L1036 2740L1229 2753Q1292 2753
1306 2731T1323 2691L1737 606Q1754 532 1770 532T1811 588T1957 894T2108 1208T2240 1481T2393 1793T2532 2068Q2848 2694 2891 2726Q2911 2740 2949 2740H3129L3478 2753Q3520 2753 3533 2736T3547 2672T3531 2615T3461 2605H3285Q3242 2241 3135 1264T3023 123H3326Q3363
123 3377 110T3391 53T3380 -8T3334 -25L2834 -12L2441 -25Q2398 -25 2385 -9T2372 55T2388 112T2458 123H2613Q2668 194 2753 938Q2875 1991 2925 2482Q2881 2398 2689 2034T2427 1532Q2166 1024 2029 732T1856 388T1790 306Q1680 194 1632 132Q1568 49 1539 49Q1473
49 1458 147Q1380 645 1202 1540T1016 2474Q889 1993 798 1550Q556 362 541 123H795Q830 123 841 109T852 52T841 -8T795 -25L434 -12Z" />
<glyph unicode="N" glyph-name="N" horiz-adv-x="3375" d="M496 -12L139 -25Q96 -25 83 -9T70 55T86 112T156 123H348Q438 677 598 1562T758 2483T757 2523T754 2531T747 2543T732 2572Q715 2605 651 2605H406Q372 2605 364 2617T356 2668T358 2721Q363 2753 406
2753L872 2740L1057 2753Q1115 2753 1151 2695L2494 651Q2526 606 2548 606Q2572 667 2642 1104Q2834 2303 2834 2568V2605H2527Q2492 2605 2481 2619T2470 2676T2481 2736T2527 2753L2892 2740L3236 2753Q3278 2753 3291 2736T3305 2672T3289 2615T3219 2605H3056Q3011
2460 2732 705Q2692 452 2676 200T2645 -75T2602 -98T2560 -91T2532 -66T2508 -37T2484 2Q2310 292 1982 774L934 2306Q899 2353 889 2357T874 2347T869 2323T845 2164T790 1814T722 1357T654 872Q582 331 582 172L586 123H930Q965 123 976 109T987 52T976 -8T930
-25L496 -12Z" />
<glyph unicode="O" glyph-name="O" horiz-adv-x="3006" d="M262 468T197 678T131 1138T192 1609T362 2007T618 2327T936 2568Q1290 2769 1663 2769T2311 2600T2730 2127T2875 1425Q2875 800 2436 352Q2153 63 1770 -46Q1574 -102 1370 -102T986 -58T648 83T376
324ZM576 1529Q532 1348 532 1198T548 930T600 696T687 481T813 295T978 149Q1170 20 1438 20Q1879 20 2196 528Q2372 812 2444 1189Q2478 1364 2478 1496T2465 1732T2421 1945T2346 2153T2236 2339T2090 2491Q1918 2630 1679 2630Q1245 2630 886 2170Q664 1885
576 1529Z" />
<glyph unicode="P" glyph-name="P" horiz-adv-x="2334" d="M561 -12L139 -25Q96 -25 83 -9T70 55T86 112T156 123H319Q659 2462 659 2564L655 2593H426Q361 2593 353 2617T344 2666Q344 2736 397 2736L582 2730Q766 2724 852 2724Q852 2724 1331 2744Q1748 2744
1979 2542Q2204 2344 2204 2032Q2204 1658 1955 1450Q1687 1225 1192 1225L881 1233Q844 1233 833 1228T815 1192Q784 1052 684 147Q678 123 705 123H979Q1013 123 1020 111T1028 66T1028 25T1025 3T1018 -14Q1005 -25 979 -25L561 -12ZM840 1348T862 1342T988
1335T1220 1357T1466 1431T1672 1560Q1864 1727 1864 2016T1693 2463T1192 2621Q1050 2621 1020 2609Q934 2069 887 1723T840 1362Z" />
<glyph unicode="Q" glyph-name="Q" horiz-adv-x="2936" d="M2970 -586Q2994 -586 2994 -643Q2994 -657 2874 -700Q2533 -823 2304 -823T1825 -787T1370 -698T991 -593T698 -504T560 -467Q498 -467 382 -512T202 -557T95 -526T53 -438Q53 -258 479 -258L770 -279Q818
-279 908 -240T1154 -121T1311 -39Q1311 -33 1255 -26T1127 -4T932 52T710 150T498 306T309 530Q131 818 131 1249Q131 1726 451 2161Q649 2430 958 2603T1630 2777Q2157 2777 2488 2417Q2806 2071 2806 1536Q2806 883 2382 436Q2100 138 1690 17Q1565 -20 1425
-88T1155 -225T1024 -304Q1023 -316 1343 -401Q2210 -631 2560 -631Q2777 -631 2871 -609T2970 -586ZM508 1174Q508 962 565 775T718 462T943 248Q1189 82 1507 82Q1583 82 1693 162T1882 323T2038 502T2185 727T2308 992Q2425 1293 2425 1580T2364 2055T2192 2370Q1961
2634 1577 2634Q1355 2634 1104 2443Q860 2258 687 1929Q508 1588 508 1174Z" />
<glyph unicode="R" glyph-name="R" horiz-adv-x="2560" d="M561 -12L139 -25Q95 -25 83 -12T70 48T87 108T156 123H311Q387 569 500 1367Q651 2425 651 2593H385Q324 2593 318 2616T311 2666Q311 2736 377 2736Q377 2736 831 2724L1413 2753Q1647 2753 1838 2669T2141
2429T2253 2077Q2253 1522 1498 1332Q1485 1328 1479 1327Q1490 1323 1532 1309Q1641 1273 1720 1241Q2191 1053 2191 557L2179 156Q2179 145 2183 123H2367Q2417 123 2433 109T2449 35T2417 -25L1806 -12Q1761 -12 1782 53Q1847 433 1847 696Q1847 887 1695 1041T1303
1245Q1201 1266 1016 1266H897Q816 1266 803 1180Q697 440 684 147Q684 123 705 123H922Q959 123 973 110T987 53T976 -8T930 -25L561 -12ZM938 1389L1225 1376Q1391 1376 1568 1504Q1880 1731 1880 2040Q1880 2621 1192 2621Q1036 2621 999 2609L852 1483Q848
1458 848 1432T861 1397T909 1389H938Z" />
<glyph unicode="S" glyph-name="S" horiz-adv-x="2068" d="M570 2546T764 2649T1215 2753T1765 2527Q1770 2544 1779 2591T1791 2649T1795 2665T1802 2676T1812 2687Q1826 2697 1840 2696T1872 2693T1902 2688Q1937 2681 1937 2654T1806 1958Q1797 1909 1753 1909Q1659
1909 1659 1966L1690 2092Q1720 2219 1719 2242T1692 2302T1616 2389T1502 2488Q1349 2601 1140 2601T798 2457T664 2073Q664 1829 898 1679Q1015 1605 1149 1544T1321 1465T1428 1411T1535 1349T1630 1281T1719 1200T1790 1107T1848 996Q1896 858 1896 735T1868
514T1791 340T1674 196T1529 82T1366 0Q1093 -106 746 -40Q512 5 374 84Q152 210 152 274Q152 295 198 555T249 828T283 840T355 829T397 799L328 414Q328 357 575 222Q837 78 1074 78T1459 217T1606 569Q1606 758 1448 888Q1328 986 1154 1071T875 1209T677 1332T510
1484Q352 1663 352 1918T461 2359Z" />
<glyph unicode="T" glyph-name="T" horiz-adv-x="2789" d="M160 2179Q70 2179 70 2236Q70 2242 92 2306Q195 2597 223 2687T259 2789T272 2808T292 2818Q310 2822 344 2822Q401 2822 401 2761V2744Q456 2720 823 2720H2159Q2565 2720 2572 2753Q2575 2790 2588
2806T2644 2822T2703 2811T2720 2765L2683 2224Q2683 2196 2662 2188T2607 2179T2560 2182T2542 2196Q2535 2208 2535 2241L2560 2564Q2523 2580 2134 2580H1700Q1670 2580 1659 2511Q1617 2233 1472 1205T1327 150T1348 123H1610Q1645 123 1656 109T1667 52T1656
-8T1610 -25L1118 -12L655 -25Q614 -25 604 -10T594 54T607 113T672 123H897Q950 226 1118 1373T1286 2540V2562Q1286 2580 1274 2580H713Q348 2580 336 2544L238 2257Q221 2211 208 2195T160 2179Z" />
<glyph unicode="U" glyph-name="U" horiz-adv-x="3108" d="M2634 2720L2970 2732Q3013 2732 3026 2716T3039 2652T3023 2595T2953 2585H2830Q2811 2496 2783 2330T2716 1936T2649 1533T2561 1034Q2455 444 2396 241T2316 15T2260 -8Q2192 -8 2187 49Q2182 93 2174
172Q2161 311 2152 311T2133 307T2104 292T2067 271T2019 244Q1531 -41 1098 -41Q687 -41 456 205Q299 371 299 618Q299 814 434 1646T569 2576V2585H311Q247 2585 240 2608T233 2669T249 2719T311 2732L696 2720L1114 2732Q1155 2732 1165 2717T1176 2653T1163
2595T1098 2585H963Q937 2533 864 2133T728 1294T664 735T696 525T775 382T890 285T1017 224T1146 192Q1237 176 1362 176T1676 241T1987 385Q2098 465 2144 641T2263 1237T2360 1796Q2442 2282 2470 2585H2200Q2133 2585 2124 2609T2114 2669T2134 2719T2200 2732L2634
2720Z" />
<glyph unicode="V" glyph-name="V" horiz-adv-x="2727" d="M2347 2720L2585 2732Q2629 2732 2643 2716T2658 2653T2640 2596T2567 2585T2501 2583Q2489 2581 2482 2560L1196 356Q1181 329 1107 240T975 61Q878 -82 825 -82T756 -35T692 371T497 1618T315 2585H156Q89
2585 80 2609T70 2669T90 2719T156 2732L532 2720L963 2732Q1006 2732 1019 2716T1032 2652T1016 2595T946 2585H721Q717 2585 717 2538T843 1596T1000 535T1040 369T1112 469Q1335 828 1749 1614L2232 2535Q2235 2543 2240 2552Q2249 2571 2249 2578T2220 2585H1946Q1879
2585 1870 2609T1860 2669T1878 2719T1942 2732L2347 2720Z" />
<glyph unicode="W" glyph-name="W" horiz-adv-x="4136" d="M3932 2585L3900 2584Q3893 2584 3889 2582T3880 2580T3872 2574T3866 2567T3859 2557T3852 2544T3844 2527T3808 2456T3645 2137T3437 1733Q3225 1324 3039 995L2679 356Q2664 326 2590 235T2440 31T2309
-82T2239 -35T2134 611T1998 1475T1949 1741T1921 1700L1171 356Q1155 328 1082 238T950 60Q857 -82 806 -82T740 -35T676 362T485 1605T311 2585H156Q89 2585 80 2609T70 2669T90 2719T156 2732L532 2720L938 2732Q981 2732 994 2716T1008 2652T992 2595T922 2585H705Q700
2585 700 2541T810 1678Q983 385 1008 385Q1014 385 1159 624T1606 1425T1910 2005T1883 2282T1839 2585H1667Q1600 2585 1591 2609T1581 2669T1601 2719T1667 2732L2015 2720L2535 2732Q2579 2732 2594 2716T2609 2653T2591 2596T2519 2585H2224Q2220 2573 2220
2536T2269 2072Q2411 835 2474 414Q2487 340 2496 340T2601 509T3090 1453T3559 2385T3640 2552Q3650 2571 3650 2578T3621 2585H3359Q3292 2585 3283 2609T3273 2669T3291 2719T3355 2732L3748 2720L3994 2732Q4038 2732 4052 2716T4067 2653T4049 2596T3977 2585H3932Z"
/>
<glyph unicode="X" glyph-name="X" horiz-adv-x="2707" d="M406 -12L147 -25Q104 -25 87 -12T70 49T87 110T147 123H254Q285 137 668 632T1148 1245T1247 1374T1237 1413L725 2454Q667 2575 647 2585H471Q404 2585 395 2609T385 2669T405 2719T471 2732L860 2720L1278
2732Q1321 2732 1334 2716T1348 2652T1332 2595T1262 2585H1057Q1057 2580 1063 2565T1078 2520T1220 2188Q1473 1610 1495 1610Q1509 1610 1800 2025Q2175 2558 2175 2580V2585H1987Q1934 2585 1918 2595T1901 2652T1914 2715T1970 2732L2249 2720L2560 2732Q2603
2732 2620 2719T2638 2658T2621 2598T2560 2585H2445Q2381 2537 1774 1755L1573 1495Q1561 1480 1561 1472T1593 1406T1808 1002Q2255 158 2298 123H2490Q2534 123 2555 110T2576 49T2556 -12T2490 -25L2081 -12L1606 -25Q1563 -25 1550 -9T1536 55T1552 112T1622
123H1815L1855 127Q1855 130 1849 143T1820 213T1707 459T1497 893T1350 1193T1318 1249T1224 1138T834 601T528 127Q536 123 569 123H737Q790 123 806 113T823 55T810 -8T754 -25L406 -12Z" />
<glyph unicode="Y" glyph-name="Y" horiz-adv-x="2510" d="M938 -12L545 -25Q505 -25 494 -8T483 52T497 109T561 123H741Q762 150 822 518T893 950T919 1099T934 1233Q934 1244 659 1876T340 2605H156Q112 2605 91 2618T70 2679T90 2740T156 2753L569 2740L934
2753Q976 2753 987 2737T999 2673T985 2615T918 2605H754Q754 2601 759 2586T793 2473T1009 1915T1203 1447T1220 1444Q1233 1453 1246 1474T1280 1526T1406 1713T1595 1993T1768 2258Q1962 2557 1962 2605H1757Q1704 2605 1688 2615T1671 2672T1684 2736T1741
2753L2060 2740L2376 2753Q2417 2753 2429 2740T2441 2678T2429 2617T2376 2605H2220Q2170 2555 1822 2077T1315 1356Q1293 1316 1282 1266L1143 426Q1102 177 1102 150T1106 123H1368Q1403 123 1414 109T1425 52T1414 -8T1368 -25L938 -12Z" />
<glyph unicode="Z" glyph-name="Z" horiz-adv-x="2453" d="M2032 -25L176 -12Q149 -12 140 3T131 52T509 619T1333 1775T1822 2461T1870 2531T1875 2540T1878 2546T1880 2553T1877 2557T1871 2561T1860 2563T1843 2564H758Q595 2564 588 2527T568 2417T544 2287T530
2217T524 2196Q517 2175 487 2171H467Q369 2171 369 2212Q369 2223 388 2314Q448 2603 457 2700T471 2806T488 2818Q502 2822 558 2822T614 2789V2753Q614 2720 836 2720H2261Q2304 2720 2323 2705T2343 2646Q2343 2618 2008 2137T1658 1633T1618 1575T1531 1450T1318
1142T1066 780T866 490Q664 197 662 170T692 143L1950 156Q1998 156 2016 210T2109 582Q2117 614 2193 614T2269 561Q2269 544 2207 310T2133 26T2032 -25Z" />
<glyph unicode="[" glyph-name="bracketleft" horiz-adv-x="1212" d="M315 -528V2777Q315 2812 327 2825T377 2839H1004Q1039 2839 1050 2829T1061 2789V2732Q1061 2689 1051 2678T1004 2666H565Q534 2666 529 2662T524 2630V-381Q524 -409 529 -413T565 -418H1004Q1041
-418 1051 -429T1061 -483V-532Q1061 -564 1051 -577T1004 -590H381Q338 -590 327 -581T315 -528Z" />
<glyph unicode="\" glyph-name="backslash" horiz-adv-x="1662" d="M1642 -918Q1642 -967 1545 -967T1428 -951T1394 -892T1377 -846Q1373 -836 1372 -831L86 2654Q25 2802 25 2849T97 2896T191 2894T227 2880Q244 2867 258 2818L1556 -664Q1642 -882 1642 -918Z" />
<glyph unicode="]" glyph-name="bracketright" horiz-adv-x="1212" d="M152 -483Q152 -440 162 -429T209 -418H647Q678 -418 683 -414T688 -381V2630Q688 2658 683 2662T647 2666H209Q172 2666 162 2677T152 2732V2781Q152 2813 162 2826T209 2839H831Q872 2839
884 2829T897 2781V-524Q897 -580 881 -585T844 -590H209Q173 -590 163 -580T152 -541V-483Z" />
<glyph unicode="^" glyph-name="asciicircum" horiz-adv-x="1646" d="M422 1262Q344 1249 294 1249T193 1266L799 2593L803 2597Q815 2601 831 2601T860 2597L864 2593L1470 1266Q1418 1249 1364 1249T1237 1262H1233L823 2191L430 1262H422Z" />
<glyph unicode="_" glyph-name="underscore" horiz-adv-x="1679" d="M90 -168Q90 -125 105 -108T160 -90H1532Q1568 -90 1578 -105T1589 -147V-205Q1589 -299 1532 -299H147Q110 -299 100 -282T90 -217V-168Z" />
<glyph unicode="`" glyph-name="grave" horiz-adv-x="1638" d="M782 2388L893 1847Q893 1827 864 1827H802Q778 1827 761 1860L528 2298Q512 2325 512 2372T550 2456T649 2494Q763 2494 782 2388Z" />
<glyph unicode="a" glyph-name="a" horiz-adv-x="1773" d="M1151 -57Q1028 -57 1028 53Q1028 183 1225 819Q999 443 825 263T608 46Q496 -48 383 -53Q376 -53 369 -53Q237 -53 164 31T90 231T109 467T167 718T263 974T398 1213T570 1412Q771 1597 1032 1597Q1072
1597 1148 1561T1249 1490T1292 1424Q1330 1364 1336 1364Q1352 1364 1393 1532Q1405 1585 1585 1585Q1651 1585 1651 1557T1568 1240Q1319 376 1319 282T1364 188Q1394 188 1504 303T1630 418T1664 397T1683 356T1625 273T1487 135T1311 2T1151 -57ZM480 865T435
692T389 434T391 320T404 257Q423 188 487 188T645 262T840 454Q1048 700 1212 971Q1241 1019 1257 1089T1274 1197T1238 1279T1148 1350Q1033 1409 932 1409T728 1297T553 1025Z" />
<glyph unicode="b" glyph-name="b" horiz-adv-x="1855" d="M143 4Q90 4 90 49Q90 95 147 152Q168 182 169 189Q172 212 234 540T414 1653T532 2506T516 2576L164 2482Q131 2482 131 2605Q131 2641 160 2650Q799 2806 848 2806T897 2753Q897 2726 826 2270T741
1732T545 733Q808 1150 898 1263T1034 1426T1118 1503T1206 1556Q1298 1602 1451 1602T1704 1503Q1765 1442 1765 1306T1734 1021T1648 751T1520 518T1363 321T1189 165T1012 50Q830 -45 721 -45T528 -16T393 41T334 70T251 37T143 4ZM714 796T593 604T471 321T538
162T713 94T912 152T1080 305T1229 517T1350 752Q1458 1010 1458 1155Q1458 1309 1374 1363Q1342 1384 1294 1384T1197 1365T1107 1308Q1035 1243 875 1020Z" />
<glyph unicode="c" glyph-name="c" horiz-adv-x="1646" d="M1171 1196L1176 1294Q1176 1370 1131 1424T985 1479T769 1405T569 1203T432 908T381 648T382 533T391 463T415 382T461 307T536 238Q639 176 770 176T1003 209T1182 289T1322 383T1422 463T1470 496T1503
470T1528 430T1492 377T1396 285T1249 173T1070 66Q733 -115 434 -15Q90 100 90 524Q90 992 400 1322Q571 1504 802 1580Q908 1614 1008 1614Q1249 1614 1355 1498T1462 1269T1410 1094T1274 1032Q1171 1032 1171 1196Z" />
<glyph unicode="d" glyph-name="d" horiz-adv-x="1937" d="M105 186Q90 238 90 304T104 457T146 647T217 855T315 1064T441 1257T594 1416Q769 1565 983 1565Q1157 1565 1294 1494Q1319 1481 1338 1471Q1385 1446 1397 1503Q1446 1771 1496 2139T1551 2525T1547
2556T1528 2568T1352 2521T1170 2478T1151 2517T1154 2584Q1160 2629 1196 2638Q1409 2685 1612 2739T1827 2793Q1884 2793 1884 2720Q1884 2696 1782 2120Q1475 388 1475 246Q1475 197 1514 197T1619 244T1740 348T1842 452T1897 500T1928 482T1950 454T1924 406T1854
313T1745 196T1610 81Q1447 -41 1286 -41Q1233 -41 1198 2T1163 147T1311 885Q1131 582 995 403T797 158Q619 -29 418 -29Q166 -29 105 186ZM441 772T413 642T385 408T425 253T538 201T679 249T822 382Q962 539 1148 812T1335 1245Q1335 1275 1286 1322T1152 1410T975
1450T788 1372T622 1174T496 913Z" />
<glyph unicode="e" glyph-name="e" horiz-adv-x="1597" d="M406 684Q385 684 385 508Q385 156 766 156Q990 156 1238 334Q1302 380 1345 420Q1446 512 1467 512T1508 488T1528 449T1504 405T1434 333T1326 241T1183 144T1014 56Q819 -33 618 -33Q339 -33 194 126Q90
242 90 412T127 733T231 1014T392 1255T598 1446Q834 1614 1106 1614Q1393 1614 1474 1448Q1499 1397 1499 1318T1457 1151T1340 996Q1194 859 958 772T406 684ZM504 999Q446 859 446 814Q446 803 532 803T750 840T984 944Q1208 1091 1208 1335Q1208 1405 1155
1448T1016 1491Q690 1491 504 999Z" />
<glyph unicode="f" glyph-name="f" horiz-adv-x="1163" d="M152 1409Q131 1409 131 1436Q131 1536 164 1536H471Q503 1536 508 1588T529 1734Q593 2133 815 2434Q936 2597 1098 2687Q1297 2802 1479 2802Q1626 2802 1740 2716Q1790 2678 1790 2630T1708 2522T1574
2462T1489 2477T1425 2515T1364 2560Q1291 2613 1225 2613Q927 2613 789 1569Q786 1554 786 1545T807 1536H1163Q1176 1536 1176 1517T1164 1454T1143 1409H807Q775 1409 769 1367T718 1003Q559 -146 532 -255T472 -458T398 -638Q295 -854 147 -967Q127 -987 51
-1037T-46 -1095T-102 -1118Q-159 -1143 -246 -1143T-428 -1090T-524 -980T-451 -863T-321 -803T-209 -828Q-44 -901 2 -901T72 -886T117 -839T153 -773T184 -687T208 -593T229 -491T245 -394T258 -300T289 -100T366 437Q487 1315 487 1362T442 1409H152Z" />
<glyph unicode="g" glyph-name="g" horiz-adv-x="1744" d="M1700 1733T1700 1679T1655 1540T1562 1386T1512 1305T1531 1241T1552 1070T1492 817T1327 586T1116 444T811 344Q438 240 438 164Q438 114 522 86T680 42Q800 16 941 -5T1144 -36T1267 -58T1396 -93T1509
-144T1594 -214Q1671 -293 1671 -418T1635 -633T1530 -789T1372 -904T1168 -982Q948 -1040 776 -1040T536 -1035T396 -1018T262 -986T144 -935T48 -864Q-37 -775 -37 -673T-8 -503T64 -386T162 -294Q246 -228 344 -184Q386 -169 339 -146T250 -81T209 3T283 164T401
299L623 381Q643 389 643 391T632 396T620 399T592 409T524 442T424 510T328 612Q233 746 233 940T331 1297T599 1553T982 1647T1360 1483Q1378 1465 1391 1490T1438 1594T1482 1693Q1502 1733 1601 1733ZM303 -310T232 -404T160 -591T209 -736T332 -817T502 -866Q665
-897 832 -897T1123 -861T1322 -743T1397 -545Q1397 -455 1354 -416T1276 -358T1190 -322Q1103 -297 845 -251T559 -205T514 -210T485 -219T450 -235T418 -250Q303 -310 232 -404ZM554 1166T535 1087T516 921T538 750T592 618T666 538Q737 483 800 483T928 513T1053
604T1164 742Q1274 916 1274 1143Q1274 1350 1127 1470Q1055 1528 970 1528T810 1489T684 1386T593 1245Z" />
<glyph unicode="h" glyph-name="h" horiz-adv-x="1916" d="M1384 274Q1384 197 1458 197Q1525 197 1682 375T1847 553Q1863 553 1886 534T1909 502T1874 434T1773 305T1628 159Q1439 -12 1262 -12Q1186 -12 1134 34T1081 147T1156 446Q1380 1145 1380 1234Q1380
1405 1253 1405Q1044 1405 688 807Q678 790 644 734T597 654T558 584T518 507Q480 422 467 369L381 25Q368 -20 135 -20Q90 -20 90 25Q90 35 118 163T192 522T290 1044Q414 1732 492 2535Q500 2597 475 2597Q432 2597 285 2544T131 2490Q106 2490 106 2556T143
2638Q267 2681 486 2729T782 2777Q819 2777 819 2703Q796 2261 459 606Q870 1449 1239 1558Q1317 1581 1416 1581T1587 1529T1659 1378T1616 1103T1522 763Q1384 330 1384 274Z" />
<glyph unicode="i" glyph-name="i" horiz-adv-x="1105" d="M433 823T478 1005T524 1259T484 1331T369 1271T230 1150T148 1090T110 1111T90 1152T167 1239T346 1383Q611 1581 713 1581T815 1479Q815 1361 682 856T549 315T550 268Q554 238 587 238T694 303T835
434T916 500T953 477T975 429T847 288T563 67T344 -37Q233 -37 233 49Q233 177 333 500ZM617 2040T565 2106T512 2254T560 2392T694 2449T832 2383T885 2236T834 2098T700 2040Z" />
<glyph unicode="j" glyph-name="j" horiz-adv-x="1216" d="M437 -33T536 577T635 1259T601 1331T501 1274T374 1149Q211 967 195 967T155 985T131 1020T180 1096T311 1236T483 1395Q700 1581 831 1581Q869 1581 899 1553T930 1470T909 1257T856 895T794 511T736
166T700 -44T682 -149T650 -300T599 -467T530 -624Q447 -791 307 -897Q89 -1057 -35 -1057T-227 -1011T-295 -901T-251 -791T-147 -745T-44 -761T24 -796Q90 -848 141 -848T212 -834T250 -787T282 -721T310 -631Q330 -554 383 -294ZM736 2163T684 2229T631 2377T679
2515T813 2572T951 2506T1004 2359T953 2221T819 2163Z" />
<glyph unicode="k" glyph-name="k" horiz-adv-x="1843" d="M328 -12L123 -37Q90 -37 90 -8T145 285T271 892Q461 1809 532 2552Q532 2576 508 2576L188 2494Q164 2494 164 2536Q164 2630 201 2638L496 2712Q809 2793 831 2793Q889 2793 889 2736Q889 2666 706
1774T508 811Q726 1201 892 1368Q1030 1507 1153 1540T1384 1573T1565 1534T1638 1412T1611 1254T1538 1119T1432 1006T1308 913T1177 842Q1056 784 1000 773Q905 754 897 754Q931 738 983 692Q1175 508 1252 413T1356 288T1422 225Q1494 164 1607 164T1720 262L1712
344Q1712 406 1754 406T1825 358T1855 238T1805 119T1682 43Q1522 -20 1409 -20T1204 66Q1135 129 1030 270T887 458T792 572Q680 702 680 713T685 735T697 755T714 775T731 793T745 807T759 820T815 827T935 859T1102 969T1266 1151T1335 1343Q1335 1417 1221
1417Q1033 1417 782 1050Q750 1003 670 881T542 683T449 418T388 128T363 8T328 -12Z" />
<glyph unicode="l" glyph-name="l" horiz-adv-x="1114" d="M901 2793Q942 2793 942 2748T737 1502T532 279Q532 205 573 205T684 258T818 377T932 495T990 549T1031 522T1065 484T1031 432T942 329T812 203T658 79Q479 -53 344 -53Q287 -53 250 -11T213 86T288
553Q529 1886 602 2507Q609 2540 599 2554T554 2560T436 2528Q264 2482 251 2482T233 2484Q221 2487 221 2521T224 2583Q231 2629 274 2642Q456 2683 671 2738T901 2793Z" />
<glyph unicode="m" glyph-name="m" horiz-adv-x="3026" d="M1396 639T1433 846T1470 1202T1397 1352Q1329 1352 1251 1255T1119 1086Q967 884 858 664Q745 432 642 73Q625 14 594 0Q446 -57 408 -57Q348 -57 356 0Q407 211 474 620T541 1212Q541 1270 496 1270Q431
1270 281 1117T115 963T88 968Q49 983 49 1044Q49 1064 131 1144T324 1312T560 1470T758 1540Q844 1540 844 1455T831 1254T802 1049T758 803T717 573Q1167 1565 1610 1565Q1709 1565 1746 1455Q1761 1410 1761 1303T1701 939T1569 459Q1765 837 1869 988T2058
1244T2218 1412Q2397 1565 2552 1565Q2773 1565 2773 1413Q2773 1272 2670 970Q2474 394 2474 304T2535 213Q2583 213 2829 468Q2911 553 2921 553T2957 529T2982 491T2907 395T2729 218T2502 47T2306 -29T2188 9T2142 103T2192 325T2302 666Q2462 1130 2462 1286Q2462
1316 2442 1340T2388 1364Q2313 1364 2175 1208T1891 828T1663 439T1520 57Q1504 6 1428 -3T1292 -12T1233 23T1270 192T1351 482Z" />
<glyph unicode="n" glyph-name="n" horiz-adv-x="2109" d="M1565 287Q1565 217 1630 217Q1693 217 1774 294T1898 418T1969 496T2003 528T2034 503T2060 464T2021 400T1913 281T1761 147Q1565 -8 1393 -8Q1327 -8 1288 43T1249 173T1300 414T1413 730Q1577 1142
1577 1290Q1577 1335 1556 1366T1491 1397T1356 1312T1158 1092Q947 822 818 617Q668 376 592 74Q570 -17 524 -20Q350 -37 329 -37Q287 -37 295 20Q541 1047 541 1294Q541 1356 501 1356T370 1291T204 1160T116 1094T77 1118T49 1163T98 1228T230 1334T404 1454Q625
1593 766 1593Q803 1593 833 1569T864 1493T854 1365T834 1230T797 1063T758 907T711 730T668 569Q1012 1172 1273 1408Q1477 1593 1659 1593Q1880 1593 1880 1401Q1880 1267 1723 798T1565 287Z" />
<glyph unicode="o" glyph-name="o" horiz-adv-x="1716" d="M136 292T113 380T90 628T162 986T361 1327T666 1554T1010 1638T1278 1594T1443 1480T1550 1320Q1626 1157 1626 972T1551 602T1349 275T1045 44T714 -45T465 -12T300 79T184 214ZM420 894T395 790T369
618T370 513T377 419T396 319T431 229T488 150Q564 78 671 78T867 131T1028 271T1159 470T1259 700Q1343 948 1343 1139Q1343 1410 1149 1493Q1086 1520 1007 1520T848 1477T699 1361T569 1193T464 996Z" />
<glyph unicode="p" glyph-name="p" horiz-adv-x="1990" d="M590 1245Q590 1307 554 1307T462 1260T350 1145T242 1010Q117 848 105 848T61 874T29 910T52 958T118 1061T217 1200T346 1351T494 1490Q663 1630 823 1630Q905 1630 905 1512Q905 1300 791 643Q940
1001 1159 1339Q1228 1449 1338 1513T1552 1577T1714 1557T1808 1502T1864 1417Q1901 1330 1901 1185T1861 885T1751 595T1589 343T1394 140Q1173 -41 967 -41L737 -12Q726 -12 718 -12T709 -13T705 -15T700 -19Q698 -22 696 -33L565 -893Q549 -969 602 -974T725
-986T835 -997Q926 -1006 926 -1053Q926 -1163 872 -1163Q834 -1163 727 -1148Q413 -1102 253 -1102T76 -1100Q33 -1093 38 -1033T55 -960T127 -946L197 -950Q257 -950 270 -868Q465 247 527 652T590 1245ZM754 209Q754 90 1004 90Q1102 90 1214 194T1415 452T1563
794T1622 1139Q1622 1389 1454 1389Q1367 1389 1308 1326T1215 1219T1145 1111T1085 1000T1028 889T979 795Q754 366 754 209Z" />
<glyph unicode="q" glyph-name="q" horiz-adv-x="1863" d="M803 -1192Q732 -1192 737 -1130Q740 -1075 758 -1058Q786 -1034 852 -1028T928 -1013T943 -977T950 -948Q955 -924 1016 -665Q1111 -257 1319 877Q1139 549 1051 434T918 265T812 150T696 49Q566 -41
446 -41Q302 -41 196 46Q90 131 90 303Q90 582 290 962Q422 1212 632 1388Q854 1573 1122 1573Q1324 1573 1508 1478Q1530 1466 1539 1466T1621 1507T1733 1548T1774 1495Q1774 1473 1726 1372T1663 1239T1612 1000T1480 256T1325 -613T1266 -967T1275 -993T1329
-999T1536 -1008Q1585 -1013 1585 -1073Q1585 -1155 1560 -1165T1507 -1176L1159 -1163L803 -1192ZM439 696T408 588T377 391T431 239T545 176T675 228T825 370Q975 539 1096 718Q1389 1151 1389 1303Q1389 1342 1341 1384Q1249 1466 1144 1466T945 1408T772 1258T618
1048T492 814Z" />
<glyph unicode="r" glyph-name="r" horiz-adv-x="1396" d="M123 1130T105 1151T86 1189T123 1249T223 1351T356 1464Q523 1593 622 1593T721 1506T618 815Q769 1231 839 1360Q980 1622 1163 1622Q1241 1622 1304 1579T1368 1480T1360 1388T1327 1326T1264 1298T1185
1316T1108 1353T1042 1372Q991 1372 950 1307Q855 1160 781 965T698 744T682 685T655 573T593 288T537 25Q532 -1 447 -15T310 -29T258 0Q258 10 307 264Q455 1029 455 1186T418 1343T333 1310T245 1237T173 1164T131 1130Z" />
<glyph unicode="s" glyph-name="s" horiz-adv-x="1376" d="M233 50T152 116T70 241T108 332T171 365T213 363T241 357T266 346T287 334T308 318T326 301T346 282T371 256T416 209T464 161T502 128Q542 98 628 98T796 177T877 385Q877 477 760 582Q708 628 645
678T519 782T404 892Q287 1020 287 1154T362 1402T564 1581T815 1647T1019 1623T1140 1565T1206 1490Q1245 1425 1245 1380T1220 1312T1159 1290Q1034 1290 950 1442Q901 1526 877 1535T818 1544T738 1532T652 1494Q561 1437 561 1298Q561 1155 679 1044Q731 995
794 948T921 851T1037 745Q1155 618 1155 438Q1155 250 993 108Q831 -33 606 -33Q483 -33 358 8Z" />
<glyph unicode="t" glyph-name="t" horiz-adv-x="1163" d="M176 1389Q131 1389 131 1417L135 1495Q135 1508 146 1522T180 1536Q313 1536 380 1536T450 1537T454 1539T457 1543T483 1681T521 1914T550 2029Q577 2056 700 2056H729Q827 2056 827 2023Q827 2016
805 1918Q723 1554 729 1545T758 1536H1069Q1113 1536 1106 1486Q1094 1389 1053 1389H733Q705 1389 700 1356Q653 1105 593 740T532 348Q532 274 598 274Q659 274 852 462Q924 533 983 592T1048 651T1084 624T1114 588T1076 533T977 418T835 274T672 132Q486 -20
365 -20Q209 -20 209 131Q209 174 317 760T426 1356V1374Q426 1389 401 1389H176Z" />
<glyph unicode="u" glyph-name="u" horiz-adv-x="2134" d="M457 661T519 917T582 1285T512 1397Q443 1397 285 1194T123 991Q108 991 79 1011T49 1044T78 1100Q158 1222 231 1308T329 1422T399 1491T484 1556Q582 1614 665 1614T799 1599T888 1546T926 1456T860
1157Q664 419 664 315Q664 233 751 233T924 313T1128 564Q1501 1100 1577 1581Q1585 1606 1613 1612Q1716 1634 1819 1634Q1855 1634 1855 1598T1743 986T1630 365Q1630 274 1696 274Q1757 274 1896 460Q1947 530 1989 588T2038 647T2067 633T2089 608T2053 532T1954
375T1816 197Q1640 -12 1495 -12Q1435 -12 1392 22T1348 118T1383 349T1468 736T1536 1065Q1403 786 1290 618Q861 -33 569 -33Q332 -33 332 152Q332 203 394 432Z" />
<glyph unicode="v" glyph-name="v" horiz-adv-x="1814" d="M1171 1470Q1135 1470 1135 1548Q1135 1579 1295 1617T1543 1655T1677 1619T1724 1499T1711 1345T1680 1213T1625 1075T1559 941T1475 802T1387 669T1286 531Q1187 400 1113 307Q986 145 944 76T879 -13T806
-33T675 31T568 121T519 186T488 274T479 397T520 818T561 1253T554 1357T527 1388Q473 1421 431 1421T333 1380T234 1290Q122 1159 111 1159Q86 1159 58 1181T29 1225T82 1310T210 1442Q398 1618 508 1618Q611 1618 698 1569T819 1484T852 1336T801 846T750 420T804
322T894 274T954 303T1060 442T1169 591T1247 703T1327 828T1395 953T1453 1088Q1503 1238 1503 1341T1481 1476T1414 1507T1314 1498T1216 1479T1171 1470Z" />
<glyph unicode="w" glyph-name="w" horiz-adv-x="2789" d="M2068 1421Q2032 1421 2032 1507Q2032 1535 2258 1580T2548 1626Q2699 1626 2699 1460T2600 1074Q2406 646 2019 254Q1949 186 1895 127T1830 56T1812 38Q1790 16 1788 15T1782 11T1775 8T1768 6T1759
4H1749Q1601 4 1501 102T1401 332Q1401 388 1450 625T1507 897Q1190 406 1102 294T975 125T914 38Q873 -16 821 -16T679 55T560 159Q504 222 504 319T526 552Q594 960 594 1221Q594 1267 533 1332T426 1397T323 1361T220 1280T140 1200T87 1163T50 1190T29 1242T126
1352T351 1515T531 1593T647 1566T749 1513T815 1461T854 1408Q872 1370 872 1283T847 971T796 569T770 368T818 288T884 233T914 239Q945 256 977 300T1170 580T1378 875T1468 1060T1511 1236T1461 1337T1379 1410Q1319 1454 1319 1470Q1319 1513 1380 1571T1487
1630T1607 1583T1735 1473T1790 1356T1729 885T1667 398T1718 277T1799 225T1855 248T2024 439T2273 759T2420 1045T2464 1323T2392 1470Q2285 1470 2178 1446T2068 1421Z" />
<glyph unicode="x" glyph-name="x" horiz-adv-x="1875" d="M1692 1225L1696 1360Q1696 1450 1638 1450Q1516 1450 1151 909Q1134 888 1154 822T1211 664T1296 466Q1409 225 1495 225Q1569 225 1650 360T1744 496T1792 482T1827 455Q1827 393 1750 287T1614 120Q1477
-25 1356 -25Q1204 -25 1107 173Q1052 285 1002 437T943 612T927 636T898 613T821 516T715 375T599 233T470 102Q329 -25 201 -25Q137 -25 93 5T49 94Q49 233 156 471Q170 500 189 500T223 497Q270 487 270 455Q270 450 250 384T229 266Q229 188 303 188Q395 188
658 486Q831 683 851 718T873 756T876 762T877 768T878 774V780Q878 781 877 786T875 794T872 803T852 861T803 989T731 1150T650 1288Q561 1413 471 1413Q388 1413 280 1294Q240 1250 207 1213T161 1176T127 1200T106 1245Q106 1279 179 1358T311 1486Q453 1602
606 1602Q736 1602 809 1542Q915 1455 1011 1206Q1025 1169 1047 1109T1077 1031T1087 1011T1094 1011Q1101 1017 1115 1039T1164 1118T1226 1216T1291 1315T1364 1414T1440 1499T1524 1570Q1616 1634 1688 1634Q1819 1634 1819 1458Q1819 1430 1786 1221Q1786
1204 1739 1204T1692 1225Z" />
<glyph unicode="y" glyph-name="y" horiz-adv-x="1728" d="M-23 -1196T-44 -1156T-66 -1070T-47 -989T10 -931T82 -896T170 -868T266 -838T365 -768T481 -607T589 -391T663 -196Q700 -61 700 70T696 331T681 614T651 897T602 1135Q542 1368 430 1368Q344 1368
278 1305T180 1204T127 1140T99 1114T58 1130T25 1159T52 1215T130 1320T244 1438Q396 1577 566 1577T818 1388T927 791Q934 693 954 221Q983 277 1064 426T1192 666Q1418 1098 1450 1404Q1454 1447 1460 1514Q1469 1626 1520 1626Q1594 1626 1636 1587T1679 1520Q1679
1185 946 -37L905 -115Q621 -665 544 -803T426 -979T348 -1038T273 -1084T217 -1118T166 -1147T110 -1174Q54 -1196 16 -1196Z" />
<glyph unicode="z" glyph-name="z" horiz-adv-x="1695" d="M1532 410L1565 49Q1565 2 1530 -7Q1484 -20 1425 -20H1376Q1281 -20 861 12T266 45Q259 45 242 20Q193 -53 159 -53Q90 -53 90 8Q90 61 122 99Q159 143 221 205L1184 1278Q1185 1280 1190 1286T1194
1294T1176 1293T1115 1290T952 1323T724 1388T563 1421T463 1390T382 1321T324 1253T287 1221T249 1239T221 1267T243 1315T306 1407T399 1511T517 1598T647 1634T809 1606T994 1544Q1223 1454 1327 1454Q1357 1454 1394 1506Q1465 1606 1532 1606Q1562 1606 1584
1583T1606 1523T1575 1451T1504 1394Q1380 1328 1360 1307L459 307Q433 281 482 279H492L1380 221Q1413 221 1421 232T1430 283L1425 406Q1425 426 1436 430T1483 434H1503Q1532 434 1532 410Z" />
<glyph unicode="{" glyph-name="braceleft" horiz-adv-x="1257" d="M187 1066T170 1079T152 1120T165 1162T201 1179T251 1192T309 1214T367 1262T418 1348Q467 1463 467 1704V2032Q467 2390 484 2459T520 2589T569 2680T641 2746T742 2797Q883 2834 981 2834T1092
2821T1106 2768T1089 2715T1020 2703T921 2695T830 2665T761 2602Q705 2516 705 2339V1729Q705 1487 694 1429T670 1331T639 1266T596 1214Q552 1171 489 1149T426 1121T465 1103T536 1074T595 1031T639 980T669 915T689 840T700 747Q705 657 705 516V-94Q705 -271
746 -334T830 -420Q903 -459 988 -459T1089 -470T1106 -522T1093 -576T1001 -590T833 -572T681 -529T578 -443T515 -334T482 -182Q467 -40 467 213V541Q467 994 276 1045Q242 1054 215 1060Z" />
<glyph unicode="|" glyph-name="bar" horiz-adv-x="1011" d="M397 -766V3056Q397 3104 418 3118T483 3133H512Q575 3133 594 3120T614 3052V-766Q614 -847 595 -857T553 -868H467Q419 -868 408 -851T397 -766Z" />
<glyph unicode="}" glyph-name="braceright" horiz-adv-x="1257" d="M178 -590T165 -577T152 -523T168 -471T245 -459T362 -446T464 -394Q553 -320 553 -94V516Q553 758 564 816T588 914T619 979T662 1030Q706 1074 771 1097T837 1122Q837 1126 796 1140T722 1171T663
1214T619 1265T589 1330T569 1405T558 1498Q553 1588 553 1729V2339Q553 2496 523 2553T466 2637T400 2678Q329 2703 257 2703T169 2715T152 2767T165 2821T238 2834T367 2828T492 2802T589 2765T662 2708T715 2639T751 2549T774 2447T786 2324Q791 2198 791 2032V1704Q791
1463 826 1380T890 1262T948 1215T1006 1193T1057 1180Q1106 1172 1106 1122Q1106 1074 1044 1060Q953 1040 917 1009T854 927Q791 813 791 541V213Q791 -137 774 -210T738 -345T688 -436T616 -501T516 -552Q376 -590 277 -590Z" />
<glyph unicode="~" glyph-name="asciitilde" horiz-adv-x="3248" d="M174 463T173 468T172 488T186 552T219 651T271 770T345 899T445 1020T575 1126Q730 1225 892 1225T1179 1193T1412 1108T1630 993T1842 867T2044 752Q2264 635 2445 635Q2627 635 2781 860Q2869
989 2901 1101T2951 1220T2987 1221T3015 1214T3029 1210T3039 1206T3048 1200Q3056 1189 3056 1174T3043 1109T2995 972T2896 786T2752 612Q2567 438 2302 438Q2059 438 1810 550Q1648 623 1457 732T1166 892Q942 1004 754 1004Q437 1004 307 496Q306 493 304
484T301 472Q289 430 271 430T235 434T211 440T201 443T193 446T186 449T180 453T176 459Z" />
<glyph unicode="&#xa0;" glyph-name="uni00A0" horiz-adv-x="819" />
<glyph unicode="&#xa1;" glyph-name="exclamdown" horiz-adv-x="901" d="M8 37Q8 50 16 90Q155 708 369 2044Q373 2073 414 2073H446Q496 2073 496 2044Q496 1961 399 1177T274 57Q268 -45 143 -45H123Q8 -45 8 37ZM384 2277T319 2346T254 2475T274 2580T324 2650Q385
2703 450 2703T581 2633T647 2492T580 2349T449 2277Z" />
<glyph unicode="&#xa2;" glyph-name="cent" horiz-adv-x="1667" d="M1143 -2T1039 -27T876 -53H810Q807 -53 806 -53T803 -54T800 -56T798 -60T795 -64Q791 -73 772 -192T745 -358T728 -454Q710 -545 696 -545H672Q618 -545 618 -534T628 -466Q701 -56 695 -50T659
-37Q422 8 291 184T160 583T206 962T329 1235T508 1437Q707 1607 946 1638Q969 1641 974 1650T988 1715Q1022 1935 1027 1983T1053 2032H1077Q1143 2032 1143 2011Q1143 2010 1132 1948Q1080 1653 1082 1648T1089 1642T1095 1639T1118 1634Q1286 1602 1405 1500T1524
1262Q1524 1192 1463 1143T1345 1094T1274 1147Q1268 1172 1260 1215T1246 1283T1231 1343T1210 1400T1181 1444Q1150 1486 1110 1496T1063 1500T1053 1470L844 197Q845 185 844 179T846 169T850 164Q852 160 878 156T976 152T1136 171T1277 213T1375 255T1430
274Q1472 274 1466 229Q1463 196 1377 135T1217 36ZM934 1507Q776 1467 666 1352Q438 1112 438 745Q438 570 508 425Q582 275 729 201Q737 201 737 213L946 1475Q952 1507 934 1507Z" />
<glyph unicode="&#xa3;" glyph-name="sterling" horiz-adv-x="2002" d="M1561 119Q1782 119 1782 258Q1782 304 1726 369Q1655 451 1655 475T1694 514T1778 528T1854 494Q1913 430 1913 325T1867 142T1744 20Q1590 -70 1430 -70T870 -13T450 45T395 14T322 -54Q227
-152 147 -152Q117 -152 94 -132T70 -77T78 -22T99 12T132 38T170 56T214 70T256 79Q323 89 328 90Q423 106 473 445T526 887T525 996T500 1004H201Q172 1004 172 1065T201 1126H508Q536 1126 540 1129T545 1142T550 1232Q562 1458 592 1666T664 2006T769 2255Q900
2499 1122 2613Q1277 2687 1410 2687T1624 2660T1768 2580Q1909 2465 1909 2236Q1909 1970 1794 1970Q1754 1970 1728 1998Q1683 2046 1683 2138L1708 2372Q1708 2434 1621 2499T1417 2564Q1072 2564 954 2122Q924 2006 910 1926T887 1803T870 1686T856 1580T843
1464T832 1362T821 1252T811 1155Q811 1126 831 1126H1290Q1316 1126 1323 1114T1331 1066T1322 1017T1286 1004H836Q805 1004 800 999T782 946Q705 569 532 221Q497 156 513 156T577 176Q667 213 795 213T1217 166T1561 119Z" />
<glyph unicode="&#xa4;" glyph-name="currency" horiz-adv-x="2023" d="M1434 238Q1237 94 997 94T569 233L318 -14Q265 -78 209 -78T122 -45T90 18T93 61T108 89T123 110T145 133T164 152L406 397Q266 595 266 837T401 1266L164 1511Q90 1570 90 1624T123 1709T191
1741T250 1729Q281 1714 324 1671L569 1425Q760 1565 1002 1565T1434 1425L1686 1678Q1733 1741 1789 1741T1879 1708T1913 1645T1910 1602T1895 1574T1880 1553T1858 1530T1839 1511L1593 1262Q1741 1053 1741 826T1593 401L1839 152Q1913 93 1913 39T1878 -48T1814
-82T1773 -78T1752 -71T1731 -57T1714 -42Q1679 -8 1434 238ZM632 1205T566 1085T500 827T568 572T751 390T999 324T1248 392T1433 577T1503 813T1463 1027T1354 1192Q1204 1348 999 1348Q863 1348 748 1277Z" />
<glyph unicode="&#xa5;" glyph-name="yen" horiz-adv-x="2510" d="M377 1401Q356 1401 356 1462T377 1524H811L340 2605H156Q112 2605 91 2618T70 2679T90 2740T156 2753L569 2740L934 2753Q976 2753 987 2737T999 2673T985 2615T918 2605H754Q754 2601 759 2586T793
2473T1009 1915T1203 1447T1220 1444Q1233 1453 1246 1474T1280 1526T1406 1713T1595 1993T1768 2258Q1962 2557 1962 2605H1757Q1704 2605 1688 2615T1671 2672T1684 2736T1741 2753L2060 2740L2376 2753Q2417 2753 2429 2740T2441 2678T2429 2617T2376 2605H2220Q2179
2564 1903 2187T1430 1524H1954Q1974 1524 1974 1463T1954 1401H1343L1315 1356Q1293 1316 1282 1266L1241 1024H1872Q1892 1024 1892 963T1872 901H1221L1143 426Q1102 177 1102 150T1106 123H1368Q1403 123 1414 109T1425 52T1414 -8T1368 -25L938 -12L545 -25Q505
-25 494 -8T483 52T497 109T561 123H741Q760 142 885 901H299Q274 901 274 962T299 1024H905L913 1069Q934 1186 934 1233Q934 1234 864 1401H377Z" />
<glyph unicode="&#xa6;" glyph-name="brokenbar" horiz-adv-x="1011" d="M397 -766V774Q397 844 455 844H557Q614 844 614 774V-766Q614 -847 595 -857T553 -868H467Q419 -868 408 -851T397 -766ZM397 1552V3056Q397 3104 418 3118T483 3133H512Q575 3133 594
3120T614 3052V1552Q614 1498 599 1480T545 1462H471Q427 1462 412 1478T397 1552Z" />
<glyph unicode="&#xa7;" glyph-name="section" horiz-adv-x="1560" d="M688 -938Q254 -938 254 -745Q254 -700 292 -670T371 -639T441 -646T509 -670T624 -714T840 -741Q1135 -741 1135 -541Q1135 -426 940 -160Q853 -42 749 94T539 381T347 679Q152 1008 152
1270Q152 1411 206 1500T304 1638Q365 1707 438 1761Q464 1777 429 1824T357 1932Q246 2118 246 2307T389 2641T770 2785Q1104 2785 1216 2669Q1249 2634 1249 2589Q1249 2462 1085 2462Q986 2462 919 2496T812 2550Q715 2597 610 2597Q414 2597 414 2433Q414 2304
612 2036Q699 1918 805 1781T1017 1492T1212 1186Q1409 841 1409 541Q1409 359 1248 230Q1225 212 1186 184Q1102 125 1102 111T1126 53Q1298 -260 1298 -418Q1298 -651 1134 -794T688 -938ZM471 1683Q336 1578 336 1451Q336 1155 1012 221Q1037 188 1046 188T1094
221Q1221 341 1221 411T1196 565T1133 733T1037 920T926 1105T806 1287T695 1447T596 1582T527 1675T513 1695T503 1701T490 1700T471 1683Z" />
<glyph unicode="&#xa8;" glyph-name="dieresis" horiz-adv-x="1638" d="M1030 1983T978 2049T925 2197T973 2335T1107 2392T1245 2326T1298 2179T1247 2041T1113 1983ZM457 1983T405 2049T352 2197T400 2335T534 2392T672 2326T725 2179T674 2041T540 1983Z" />
<glyph unicode="&#xa9;" glyph-name="copyright" horiz-adv-x="3452" d="M209 563T209 774T262 1184T410 1553T644 1863T947 2102T1311 2255T1720 2310T2129 2256T2493 2104T2797 1866T3030 1556Q3232 1201 3232 774Q3232 129 2797 -315Q2518 -601 2129 -708Q1931
-762 1720 -762T1311 -708T948 -555T644 -315T411 -5T262 363ZM373 962T373 774T420 408T552 78T761 -201T1031 -418T1355 -556T1720 -606T2084 -557T2408 -418T2679 -202T2888 77T3021 407T3068 774T3021 1140T2889 1470T2680 1749T2409 1966T2085 2104T1720 2154T1356
2105T1032 1966T761 1750T553 1471T420 1141ZM2302 1090L2314 1327Q2314 1359 2230 1425T2075 1533Q1909 1630 1723 1630T1390 1525T1163 1234T1081 824T1177 418T1438 131T1756 25T2006 46T2164 97T2271 157T2342 208T2379 229T2413 190T2437 138T2409 96T2319
29T2176 -42Q1981 -123 1779 -123T1440 -87T1186 26T980 213Q791 450 791 823Q791 1237 1066 1490Q1336 1737 1741 1737Q1903 1737 1993 1703T2113 1655T2176 1621T2225 1590T2264 1563T2301 1536T2314 1548V1626Q2314 1663 2363 1663T2423 1662Q2449 1658 2449
1626L2441 1106Q2441 1057 2372 1057T2302 1090Z" />
<glyph unicode="&#xaa;" glyph-name="ordfeminine" horiz-adv-x="1552" d="M1276 2219T1208 1964T1139 1652T1171 1594Q1189 1594 1283 1690T1392 1786T1425 1766T1442 1727T1394 1656T1278 1540Q1104 1381 995 1381Q951 1381 920 1408T889 1479Q889 1601 1036
2065Q866 1788 680 1602Q646 1568 625 1547T580 1503T547 1474T517 1450T483 1427T451 1410T415 1396Q367 1385 340 1385Q229 1385 170 1456T111 1624T126 1821T175 2030T256 2243T369 2442T514 2606Q687 2761 905 2761Q948 2761 1005 2732T1086 2670Q1147 2578
1151 2573Q1192 2673 1192 2700Q1205 2753 1309 2753T1413 2716Q1413 2695 1345 2457ZM442 1594Q587 1594 894 2021Q971 2129 1018 2204Q1090 2320 1090 2393T1044 2510Q954 2593 843 2593T643 2502T494 2280Q360 1987 360 1791T442 1594Z" />
<glyph unicode="&#xab;" glyph-name="guillemotleft" horiz-adv-x="1671" d="M829 750T818 766T807 794T834 835T931 928T1050 1036T1184 1166Q1363 1343 1370 1343T1409 1316T1441 1277T1312 1039T1183 791T1312 545T1441 304T1410 263T1371 238T1316 284T1183
415T1056 539T970 617T905 677T856 723ZM215 750T204 766T193 794T220 835T317 928T436 1036T570 1166Q749 1343 756 1343T795 1316T827 1277T698 1039T569 791T698 545T827 304T796 263T757 238T702 284T569 415T442 539T356 617T291 677T242 723Z" />
<glyph unicode="&#xac;" glyph-name="logicalnot" horiz-adv-x="2158" d="M1839 700Q1839 758 1745 758H205Q146 758 131 785T115 881Q115 963 205 963H1954Q2010 963 2029 945T2048 872V225Q2048 152 1970 152Q1866 152 1848 194Q1839 213 1839 246V700Z" />
<glyph unicode="&#xad;" glyph-name="uni00AD" horiz-adv-x="1097" d="M880 828T530 814T146 799T111 837T137 935T194 999T575 1015T946 1028T967 984Q967 837 926 831Q880 828 530 814Z" />
<glyph unicode="&#xae;" glyph-name="registered" horiz-adv-x="2195" d="M90 1713T90 1925T167 2326T378 2652T699 2869T1098 2949T1496 2870T1817 2654T2027 2328T2105 1926T2028 1524T1817 1198T1497 981T1098 901T700 981T379 1197T168 1523ZM217 2172T217
1925T332 1471T650 1142T1067 1020T1446 1091T1726 1284T1910 1573T1978 1925T1910 2277T1726 2565T1446 2758T1068 2830T650 2709T332 2380ZM643 1331Q602 1331 602 1373T613 1422T651 1430H725Q733 1512 733 1655V1901Q733 2435 717 2523L618 2519Q592 2519 581
2528T569 2566T577 2606Q587 2621 618 2621L836 2617L1110 2630Q1424 2630 1509 2434Q1536 2371 1536 2290Q1536 2101 1294 1974Q1588 1870 1602 1532Q1605 1479 1607 1455T1610 1430H1700Q1723 1430 1728 1417T1733 1368T1688 1331L1434 1335Q1393 1335 1393 1376V1487Q1393
1655 1376 1710T1340 1798T1294 1852Q1234 1902 1158 1911T930 1921H922Q922 1561 938 1430H1044Q1077 1430 1077 1381T1044 1331L831 1335L643 1331ZM1012 2540L926 2535Q922 2515 922 2454V2007H930L1184 2003Q1335 2078 1335 2265Q1335 2389 1240 2464T1012
2540Z" />
<glyph unicode="&#xaf;" glyph-name="overscore" horiz-adv-x="1638" d="M1196 2253Q1241 2253 1241 2216Q1241 2104 1227 2089T1187 2073H446Q418 2073 408 2079T397 2114T402 2189T417 2244T454 2253H1196Z" />
<glyph unicode="&#xb0;" glyph-name="degree" horiz-adv-x="1048" d="M152 2037T152 2191T261 2454T524 2564T787 2455T897 2191T788 1928T524 1819T261 1928ZM303 2283T303 2191T367 2035T524 1970T680 2034T745 2191T681 2348T524 2413T368 2348Z" />
<glyph unicode="&#xb1;" glyph-name="plusminus" horiz-adv-x="2158" d="M197 287Q115 287 115 361Q115 467 153 484Q171 492 201 492H1958Q2009 492 2026 471T2044 396T2026 315T1946 287H197ZM1180 623Q1180 553 1106 553T1004 565T975 623V1172Q975 1205 968
1213T922 1221H197Q140 1221 130 1244Q115 1277 115 1327Q115 1430 201 1430H942Q965 1430 970 1435T975 1458V2028Q975 2101 1051 2101T1153 2085T1180 2019V1462Q1180 1430 1217 1430H1966Q2044 1430 2044 1356Q2044 1266 2028 1251Q1996 1221 1946 1221H1217Q1194
1221 1187 1209T1180 1163V623Z" />
<glyph unicode="&#xb2;" glyph-name="uni00B2" horiz-adv-x="1474" d="M213 1422Q156 1422 156 1458T265 1643T397 1811Q524 1927 535 1937Q1024 2403 1024 2646Q1024 2767 949 2846T765 2925T585 2898T467 2831T384 2753T323 2687T283 2659T241 2679T213 2720T243
2787T332 2890T462 3001Q631 3126 826 3126T1147 2997T1274 2662T1061 2220Q908 2054 739 1931T555 1796T514 1754T456 1687T414 1639H1126Q1129 1647 1154 1720Q1209 1885 1225 1885Q1242 1885 1280 1878T1319 1863T1296 1781T1242 1605T1202 1470T1185 1430Q1175
1422 1147 1422H213Z" />
<glyph unicode="&#xb3;" glyph-name="uni00B3" horiz-adv-x="1474" d="M618 2175L475 2167Q434 2167 434 2233Q434 2234 433 2248T433 2271T437 2287Q444 2304 463 2306Q732 2322 876 2482Q954 2570 954 2706T890 2910T747 2978T609 2957T515 2908Q423 2839 405
2839T364 2857T343 2896T382 2954T474 3030Q613 3126 744 3126T960 3094T1097 3007Q1204 2896 1204 2753Q1204 2456 766 2294Q1208 2201 1208 1893Q1208 1609 928 1466Q768 1385 578 1385Q419 1385 304 1448T188 1545T236 1605T326 1631T408 1611T473 1568Q541
1504 610 1504Q763 1504 860 1608T958 1876Q958 2175 618 2175Z" />
<glyph unicode="&#xb4;" glyph-name="acute" horiz-adv-x="1638" d="M720 1827Q692 1827 692 1839T704 1876L954 2380Q1007 2486 1082 2486T1197 2459T1237 2377T1196 2277L823 1855Q802 1827 782 1827H720Z" />
<glyph unicode="&#xb5;" glyph-name="uni00B5" horiz-adv-x="2084" d="M1450 -82Q1298 -82 1298 193Q1298 293 1331 521T1364 756T1363 763T1309 675T1188 488L1088 340Q970 167 924 119T834 34T750 -24Q519 -144 428 4Q393 61 377 117T355 174T334 110T299 -105T279
-316T303 -448T352 -570T377 -636T371 -667T350 -708Q316 -762 249 -762T136 -709T90 -540T115 -271T174 3Q304 490 345 674T420 1003T481 1253T526 1415T560 1504Q584 1552 614 1552Q786 1552 786 1470Q786 1439 747 1300Q618 842 578 524Q565 365 565 348Q565
168 672 168Q847 168 1118 596Q1312 904 1491 1352Q1548 1501 1563 1528T1616 1556T1714 1537T1774 1483Q1774 1472 1672 933T1569 320T1597 220T1666 193T1745 236T1807 330Q1866 467 1910 467T1954 404T1914 258T1809 100T1647 -29T1450 -82Z" />
<glyph unicode="&#xb6;" glyph-name="paragraph" horiz-adv-x="2015" d="M152 1696Q152 1851 186 1976T280 2196T419 2367T587 2496T770 2584Q947 2650 1118 2650Q1156 2650 1168 2638T1180 2593V664Q1180 618 1147 618Q910 618 633 791Q433 916 298 1137Q152
1376 152 1696ZM1180 -958Q1135 -958 1135 -913V-840Q1135 -795 1180 -795H1425Q1449 -795 1453 -792T1458 -774V2638Q1458 2673 1467 2682T1507 2691H1819Q1848 2691 1856 2679T1864 2634V2576Q1864 2535 1850 2531T1819 2527H1614Q1599 2527 1596 2524T1593 2499V-918Q1593
-948 1587 -953T1540 -958H1180Z" />
<glyph unicode="&#xb7;" glyph-name="middot" horiz-adv-x="512" d="M195 1184T143 1250T90 1398T138 1536T272 1593T410 1527T463 1380T412 1242T278 1184Z" />
<glyph unicode="&#xb8;" glyph-name="cedilla" horiz-adv-x="1638" d="M610 -422L835 0H942Q806 -245 794 -270Q834 -262 897 -262Q1043 -262 1133 -343T1224 -560T1088 -798T753 -901Q560 -901 457 -811Q434 -791 434 -778Q434 -725 479 -725Q487 -725 518 -740Q611
-782 708 -782Q979 -782 979 -594Q979 -525 936 -474T824 -422T704 -434T649 -446T627 -437T610 -422Z" />
<glyph unicode="&#xb9;" glyph-name="uni00B9" horiz-adv-x="1474" d="M733 1422L360 1414Q327 1414 317 1427T307 1475Q307 1549 365 1549H590Q618 1733 692 2293T774 2962Q774 2962 541 2917Q500 2917 500 2966V2999Q500 3042 545 3048Q623 3056 825 3091T1036
3126Q1077 3126 1077 3081Q1077 3059 1039 2827T987 2507L844 1549H1069Q1114 1549 1114 1494T1105 1427T1069 1414L733 1422Z" />
<glyph unicode="&#xba;" glyph-name="ordmasculine" horiz-adv-x="1544" d="M174 1619T143 1710T111 1944T171 2253T336 2537Q563 2794 909 2794Q1201 2794 1328 2528Q1393 2391 1393 2238T1330 1931T1163 1657T910 1463T622 1389T388 1432T233 1547ZM444 2305T398
2172T352 1969T352 1877T355 1818T362 1754T376 1692T397 1633T429 1582T474 1540Q529 1504 612 1504T782 1565T933 1723T1046 1936Q1147 2172 1147 2376Q1147 2594 988 2662Q938 2683 860 2683T685 2607T516 2418Z" />
<glyph unicode="&#xbb;" glyph-name="guillemotright" horiz-adv-x="1671" d="M907 238T875 265T843 303T972 542T1101 791T972 1037T843 1277T874 1318T914 1343T969 1297T1102 1166T1230 1042T1315 964T1380 905T1429 858Q1478 809 1478 793T1451 747T1353 653T1234
544T1101 415Q922 238 915 238ZM293 238T261 265T229 303T358 542T487 791T358 1037T229 1277T260 1318T300 1343T355 1297T488 1166T616 1042T701 964T766 905T815 858Q864 809 864 793T837 747T739 653T620 544T487 415Q308 238 301 238Z" />
<glyph unicode="&#xbc;" glyph-name="onequarter" horiz-adv-x="3252" d="M2634 -41Q2562 -57 2501 -57T2435 -39T2433 0L2528 516Q2533 541 2499 541H1930Q1864 541 1864 578Q1864 642 1938 742T2260 1104T2564 1436T2659 1530T2706 1563T2739 1597T2779 1638T2815
1672Q2855 1708 2876 1708Q2917 1708 2917 1651T2865 1223T2794 737Q2794 721 2818 721H2970Q3007 721 3007 676V582Q3007 541 2958 541H2777Q2754 541 2749 516Q2675 19 2673 -9T2638 -37V-41H2634ZM2057 721H2536Q2564 721 2577 790Q2647 1158 2659 1380Q2415
1136 2245 942T2057 721ZM1016 -51T1002 -58T914 -66T840 -41Q840 -37 851 -18T865 8L2540 2703Q2543 2707 2549 2718T2559 2732T2573 2740Q2589 2748 2663 2748T2737 2724Q2737 2720 2729 2707T2720 2691L1041 -12Q1016 -51 1002 -58ZM733 1012L360 1004Q327 1004
317 1017T307 1065Q307 1139 365 1139H590Q618 1323 692 1883T774 2552Q774 2552 541 2507Q500 2507 500 2556V2589Q500 2632 545 2638Q623 2646 825 2681T1036 2716Q1077 2716 1077 2671Q1077 2649 1039 2417T987 2097L844 1139H1069Q1114 1139 1114 1084T1105
1017T1069 1004L733 1012Z" />
<glyph unicode="&#xbd;" glyph-name="onehalf" horiz-adv-x="3457" d="M2195 -12Q2138 -12 2138 24T2247 209T2379 377Q2506 493 2517 503Q3006 969 3006 1212Q3006 1333 2931 1412T2747 1491T2567 1464T2449 1397T2366 1319T2305 1253T2265 1225T2223 1245T2195
1286T2225 1353T2314 1456T2444 1567Q2613 1692 2808 1692T3129 1563T3256 1228T3043 786Q2890 620 2721 497T2537 362T2496 320T2438 253T2396 205H3108Q3111 213 3136 286Q3191 451 3207 451Q3224 451 3262 444T3301 429T3278 347T3224 171T3184 36T3167 -4Q3157
-12 3129 -12H2195ZM1016 -51T1002 -58T914 -66T840 -41Q840 -37 851 -18T865 8L2540 2703Q2543 2707 2549 2718T2559 2732T2573 2740Q2589 2748 2663 2748T2737 2724Q2737 2720 2729 2707T2720 2691L1041 -12Q1016 -51 1002 -58ZM733 1012L360 1004Q327 1004 317
1017T307 1065Q307 1139 365 1139H590Q618 1323 692 1883T774 2552Q774 2552 541 2507Q500 2507 500 2556V2589Q500 2632 545 2638Q623 2646 825 2681T1036 2716Q1077 2716 1077 2671Q1077 2649 1039 2417T987 2097L844 1139H1069Q1114 1139 1114 1084T1105 1017T1069
1004L733 1012Z" />
<glyph unicode="&#xbe;" glyph-name="threequarters" horiz-adv-x="3252" d="M2634 -41Q2562 -57 2501 -57T2435 -39T2433 0L2528 516Q2533 541 2499 541H1930Q1864 541 1864 578Q1864 642 1938 742T2260 1104T2564 1436T2659 1530T2706 1563T2739 1597T2779 1638T2815
1672Q2855 1708 2876 1708Q2917 1708 2917 1651T2865 1223T2794 737Q2794 721 2818 721H2970Q3007 721 3007 676V582Q3007 541 2958 541H2777Q2754 541 2749 516Q2675 19 2673 -9T2638 -37V-41H2634ZM2057 721H2536Q2564 721 2577 790Q2647 1158 2659 1380Q2415
1136 2245 942T2057 721ZM1016 -51T1002 -58T914 -66T840 -41Q840 -37 851 -18T865 8L2540 2703Q2543 2707 2549 2718T2559 2732T2573 2740Q2589 2748 2663 2748T2737 2724Q2737 2720 2729 2707T2720 2691L1041 -12Q1016 -51 1002 -58ZM618 1765L475 1757Q434 1757
434 1823Q434 1824 433 1838T433 1861T437 1877Q444 1894 463 1896Q732 1912 876 2072Q954 2160 954 2296T890 2500T747 2568T609 2547T515 2498Q423 2429 405 2429T364 2447T343 2486T382 2544T474 2620Q613 2716 744 2716T960 2684T1097 2597Q1204 2486 1204
2343Q1204 2046 766 1884Q1208 1791 1208 1483Q1208 1199 928 1056Q768 975 578 975Q419 975 304 1038T188 1135T236 1195T326 1221T408 1201T473 1158Q541 1094 610 1094Q763 1094 860 1198T958 1466Q958 1765 618 1765Z" />
<glyph unicode="&#xbf;" glyph-name="questiondown" horiz-adv-x="1531" d="M1094 225Q1155 225 1155 94V53Q1155 -8 1108 -18Q986 -45 768 -45T422 39T213 282T131 561T140 741T162 840T202 924Q291 1065 637 1402Q729 1491 754 1516T824 1583T898 1656T963 1727Q1036
1810 1036 1858T1018 1946T979 2011T940 2060T922 2092T949 2127T990 2154T1037 2124T1108 2048Q1200 1933 1200 1818T1132 1598T971 1401T786 1220T631 1073T493 933T372 792Q262 650 262 558T307 386T410 270Q503 213 766 213L1094 225ZM954 2277T889 2346T823
2475T843 2580T893 2650Q954 2703 1019 2703T1150 2633T1217 2492T1150 2349T1019 2277Z" />
<glyph unicode="&#xc0;" glyph-name="Agrave" horiz-adv-x="2818" d="M1634 3351Q1634 3482 1765 3482Q1842 3482 1900 3371L2064 3023Q2068 3015 2068 2995T2040 2974H1966Q1951 2974 1941 2987T1929 3002L1679 3248Q1634 3293 1634 3351ZM438 -12L135 -25Q93
-25 82 -9T70 54T86 112T156 123H287Q319 161 604 652Q1515 2217 1712 2507Q1733 2538 1772 2576Q1871 2676 1910 2751T1991 2826Q2047 2826 2057 2752T2127 2314T2238 1643T2352 976Q2488 196 2523 123H2691Q2726 123 2737 109T2748 52T2737 -8T2691 -25L2322
-12L1864 -25Q1822 -25 1810 -9T1798 55T1814 112T1884 123H2114V156Q2114 252 2058 647T1998 1081T1987 1129T1954 1139H1163Q1126 1139 1114 1132T1089 1100T998 930T870 689T748 458Q602 179 586 123H856Q891 123 902 109T913 52T902 -8T856 -25L438 -12ZM1525
1897T1375 1633T1201 1324T1176 1271T1237 1262H1921Q1962 1262 1962 1270Q1962 1312 1877 1829T1786 2347T1653 2122Z" />
<glyph unicode="&#xc1;" glyph-name="Aacute" horiz-adv-x="2818" d="M1990 2974Q1962 2974 1962 2992T1974 3023L2248 3375Q2332 3482 2401 3482Q2531 3482 2531 3383Q2531 3303 2453 3248L2113 3002Q2110 3000 2101 2992Q2082 2974 2068 2974H1990ZM438 -12L135
-25Q93 -25 82 -9T70 54T86 112T156 123H287Q319 161 604 652Q1515 2217 1712 2507Q1733 2538 1772 2576Q1871 2676 1910 2751T1991 2826Q2047 2826 2057 2752T2127 2314T2238 1643T2352 976Q2488 196 2523 123H2691Q2726 123 2737 109T2748 52T2737 -8T2691 -25L2322
-12L1864 -25Q1822 -25 1810 -9T1798 55T1814 112T1884 123H2114V156Q2114 252 2058 647T1998 1081T1987 1129T1954 1139H1163Q1126 1139 1114 1132T1089 1100T998 930T870 689T748 458Q602 179 586 123H856Q891 123 902 109T913 52T902 -8T856 -25L438 -12ZM1525
1897T1375 1633T1201 1324T1176 1271T1237 1262H1921Q1962 1262 1962 1270Q1962 1312 1877 1829T1786 2347T1653 2122Z" />
<glyph unicode="&#xc2;" glyph-name="Acircumflex" horiz-adv-x="2818" d="M1597 2974Q1573 2974 1573 2986T1597 3023Q1970 3400 1987 3418Q2018 3449 2060 3449H2142Q2175 3449 2188 3441T2220 3400L2437 3023Q2449 3005 2449 2990T2412 2974H2371Q2354 2974
2326 3002L2068 3215Q2063 3220 2052 3215L1704 2998Q1664 2974 1650 2974H1597ZM438 -12L135 -25Q93 -25 82 -9T70 54T86 112T156 123H287Q319 161 604 652Q1515 2217 1712 2507Q1733 2538 1772 2576Q1871 2676 1910 2751T1991 2826Q2047 2826 2057 2752T2127
2314T2238 1643T2352 976Q2488 196 2523 123H2691Q2726 123 2737 109T2748 52T2737 -8T2691 -25L2322 -12L1864 -25Q1822 -25 1810 -9T1798 55T1814 112T1884 123H2114V156Q2114 252 2058 647T1998 1081T1987 1129T1954 1139H1163Q1126 1139 1114 1132T1089 1100T998
930T870 689T748 458Q602 179 586 123H856Q891 123 902 109T913 52T902 -8T856 -25L438 -12ZM1525 1897T1375 1633T1201 1324T1176 1271T1237 1262H1921Q1962 1262 1962 1270Q1962 1312 1877 1829T1786 2347T1653 2122Z" />
<glyph unicode="&#xc3;" glyph-name="Atilde" horiz-adv-x="2818" d="M1677 3289L1654 3287H1609Q1597 3287 1597 3304Q1597 3341 1650 3429T1779 3576T1906 3635T2006 3612T2091 3562Q2185 3488 2240 3488Q2327 3488 2392 3615Q2395 3622 2399 3631T2404 3642T2409
3648Q2416 3652 2437 3652H2490Q2494 3652 2494 3641T2490 3611T2481 3582Q2421 3437 2335 3362T2183 3287T2070 3309T1992 3358Q1908 3430 1848 3430T1755 3401T1708 3344T1690 3308T1686 3299T1683 3293T1677 3289ZM438 -12L135 -25Q93 -25 82 -9T70 54T86 112T156
123H287Q319 161 604 652Q1515 2217 1712 2507Q1733 2538 1772 2576Q1871 2676 1910 2751T1991 2826Q2047 2826 2057 2752T2127 2314T2238 1643T2352 976Q2488 196 2523 123H2691Q2726 123 2737 109T2748 52T2737 -8T2691 -25L2322 -12L1864 -25Q1822 -25 1810
-9T1798 55T1814 112T1884 123H2114V156Q2114 252 2058 647T1998 1081T1987 1129T1954 1139H1163Q1126 1139 1114 1132T1089 1100T998 930T870 689T748 458Q602 179 586 123H856Q891 123 902 109T913 52T902 -8T856 -25L438 -12ZM1525 1897T1375 1633T1201 1324T1176
1271T1237 1262H1921Q1962 1262 1962 1270Q1962 1312 1877 1829T1786 2347T1653 2122Z" />
<glyph unicode="&#xc4;" glyph-name="Adieresis" horiz-adv-x="2818" d="M2263 3263T2211 3329T2158 3477T2206 3615T2340 3672T2478 3606T2531 3459T2480 3321T2346 3263ZM1690 3263T1638 3329T1585 3477T1633 3615T1767 3672T1905 3606T1958 3459T1907 3321T1773
3263ZM438 -12L135 -25Q93 -25 82 -9T70 54T86 112T156 123H287Q319 161 604 652Q1515 2217 1712 2507Q1733 2538 1772 2576Q1871 2676 1910 2751T1991 2826Q2047 2826 2057 2752T2127 2314T2238 1643T2352 976Q2488 196 2523 123H2691Q2726 123 2737 109T2748
52T2737 -8T2691 -25L2322 -12L1864 -25Q1822 -25 1810 -9T1798 55T1814 112T1884 123H2114V156Q2114 252 2058 647T1998 1081T1987 1129T1954 1139H1163Q1126 1139 1114 1132T1089 1100T998 930T870 689T748 458Q602 179 586 123H856Q891 123 902 109T913 52T902
-8T856 -25L438 -12ZM1525 1897T1375 1633T1201 1324T1176 1271T1237 1262H1921Q1962 1262 1962 1270Q1962 1312 1877 1829T1786 2347T1653 2122Z" />
<glyph unicode="&#xc5;" glyph-name="Aring" horiz-adv-x="2818" d="M1761 3335T1761 3455T1846 3660T2052 3746T2257 3661T2343 3455T2258 3250T2052 3164T1847 3249ZM1900 3520T1900 3455T1943 3347T2051 3303T2159 3346T2203 3455T2160 3563T2052 3607T1944
3564ZM438 -12L135 -25Q93 -25 82 -9T70 54T86 112T156 123H287Q319 161 604 652Q1515 2217 1712 2507Q1733 2538 1772 2576Q1871 2676 1910 2751T1991 2826Q2047 2826 2057 2752T2127 2314T2238 1643T2352 976Q2488 196 2523 123H2691Q2726 123 2737 109T2748
52T2737 -8T2691 -25L2322 -12L1864 -25Q1822 -25 1810 -9T1798 55T1814 112T1884 123H2114V156Q2114 252 2058 647T1998 1081T1987 1129T1954 1139H1163Q1126 1139 1114 1132T1089 1100T998 930T870 689T748 458Q602 179 586 123H856Q891 123 902 109T913 52T902
-8T856 -25L438 -12ZM1525 1897T1375 1633T1201 1324T1176 1271T1237 1262H1921Q1962 1262 1962 1270Q1962 1312 1877 1829T1786 2347T1653 2122Z" />
<glyph unicode="&#xc6;" glyph-name="AE" horiz-adv-x="3964" d="M315 -12L16 -25Q-27 -25 -40 -9T-53 55T-37 112T33 123H164Q199 123 1081 1264T2118 2593H1864Q1806 2593 1790 2613T1774 2666Q1774 2736 1835 2736L2108 2730Q2380 2724 2466 2724L3322 2736Q3694
2736 3699 2777Q3699 2839 3764 2839Q3809 2839 3827 2828T3846 2789T3830 2607T3809 2261Q3809 2232 3793 2224T3733 2216T3674 2226T3658 2259T3682 2576Q3504 2601 2626 2601Q2587 2490 2523 1991T2458 1477T2459 1460Q2462 1454 2507 1454H3178Q3350 1454 3359
1499L3404 1724Q3408 1753 3477 1753T3547 1716Q3547 1692 3518 1554Q3427 1117 3421 1046T3409 968T3392 958Q3377 954 3351 954H3334Q3269 954 3269 987L3318 1274Q3318 1305 3264 1312T3125 1319H2507Q2461 1319 2452 1315T2435 1269T2359 754T2277 160Q2277
135 2294 135L3600 164Q3619 180 3672 343T3738 541T3765 586T3810 598T3868 583T3895 543T3873 452T3803 256T3735 63T3695 -13T3641 -25L2154 -12L1733 -25Q1690 -25 1677 -9T1663 55T1679 112T1749 123H1913L2085 1221H1274Q1231 1221 1203 1182T1078 1004T901
750T724 492Q517 190 487 123H754Q789 123 800 109T811 52T800 -8T754 -25L315 -12ZM1360 1393Q1325 1343 1380 1343H2101L2183 1925Q2185 1942 2210 2120Q2265 2502 2265 2556Q2265 2586 2228 2540L1360 1393Z" />
<glyph unicode="&#xc7;" glyph-name="Ccedilla" horiz-adv-x="2809" d="M1221 -422L1409 -70Q774 -52 430 320Q131 646 131 1192Q131 1851 582 2312Q861 2597 1243 2706Q1433 2761 1656 2761T2112 2664T2490 2417Q2493 2426 2498 2448T2509 2490T2520 2529Q2533
2572 2548 2572Q2585 2572 2632 2557T2679 2515Q2679 2493 2610 2153T2537 1790T2528 1761T2512 1752Q2499 1748 2482 1748L2470 1749Q2430 1749 2397 1766T2363 1806L2458 2204Q2424 2259 2306 2346T2090 2488Q1858 2621 1666 2621T1326 2559T1060 2391T839 2143T670
1842Q524 1503 524 1216T601 721T812 378Q1091 94 1503 94Q1819 94 2096 268Q2232 352 2245 397Q2279 495 2347 741Q2372 815 2458 786Q2535 769 2535 735T2400 250Q2376 177 2093 62Q1799 -58 1516 -70Q1501 -97 1473 -148T1427 -231T1405 -270Q1445 -262 1507
-262Q1653 -262 1744 -343T1835 -560T1699 -798T1364 -901Q1170 -901 1067 -811Q1044 -791 1044 -778Q1044 -725 1090 -725Q1098 -725 1130 -740Q1222 -782 1319 -782Q1589 -782 1589 -594Q1589 -477 1496 -438Q1459 -422 1412 -422T1315 -434T1260 -446T1238 -437T1221
-422Z" />
<glyph unicode="&#xc8;" glyph-name="Egrave" horiz-adv-x="2371" d="M1024 3351Q1024 3482 1155 3482Q1232 3482 1290 3371L1454 3023Q1458 3015 1458 2995T1430 2974H1356Q1341 2974 1331 2987T1319 3002L1069 3248Q1024 3293 1024 3351ZM561 -12L139 -25Q96
-25 83 -9T70 55T86 112T156 123H319Q320 131 352 336T419 762T498 1285T577 1832Q659 2422 659 2564L655 2593H418Q357 2593 351 2616T344 2666Q344 2736 397 2736L592 2730Q786 2724 872 2724Q872 2724 1729 2736Q2100 2736 2105 2777Q2105 2839 2171 2839Q2216
2839 2234 2828T2253 2789T2237 2607T2216 2261Q2216 2232 2200 2224T2140 2216T2080 2226T2064 2253T2089 2576Q1911 2601 1032 2601Q993 2490 929 1991T864 1477T865 1460Q868 1454 913 1454H1585Q1757 1454 1765 1499L1810 1724Q1814 1753 1884 1753T1954 1716Q1954
1689 1924 1553Q1834 1131 1828 1052T1810 964Q1795 954 1757 954H1741Q1675 954 1675 987L1724 1274Q1724 1305 1671 1312T1532 1319H913Q867 1319 859 1315T842 1269T766 754T684 160Q684 135 700 135L2007 164Q2024 179 2077 343T2144 541T2171 586T2217 598T2275
583T2302 543T2280 452T2210 256T2142 63T2102 -13T2048 -25L561 -12Z" />
<glyph unicode="&#xc9;" glyph-name="Eacute" horiz-adv-x="2371" d="M1380 2974Q1352 2974 1352 2992T1364 3023L1638 3375Q1722 3482 1791 3482Q1921 3482 1921 3383Q1921 3303 1843 3248L1503 3002Q1500 3000 1491 2992Q1472 2974 1458 2974H1380ZM561 -12L139
-25Q96 -25 83 -9T70 55T86 112T156 123H319Q320 131 352 336T419 762T498 1285T577 1832Q659 2422 659 2564L655 2593H418Q357 2593 351 2616T344 2666Q344 2736 397 2736L592 2730Q786 2724 872 2724Q872 2724 1729 2736Q2100 2736 2105 2777Q2105 2839 2171
2839Q2216 2839 2234 2828T2253 2789T2237 2607T2216 2261Q2216 2232 2200 2224T2140 2216T2080 2226T2064 2253T2089 2576Q1911 2601 1032 2601Q993 2490 929 1991T864 1477T865 1460Q868 1454 913 1454H1585Q1757 1454 1765 1499L1810 1724Q1814 1753 1884 1753T1954
1716Q1954 1689 1924 1553Q1834 1131 1828 1052T1810 964Q1795 954 1757 954H1741Q1675 954 1675 987L1724 1274Q1724 1305 1671 1312T1532 1319H913Q867 1319 859 1315T842 1269T766 754T684 160Q684 135 700 135L2007 164Q2024 179 2077 343T2144 541T2171 586T2217
598T2275 583T2302 543T2280 452T2210 256T2142 63T2102 -13T2048 -25L561 -12Z" />
<glyph unicode="&#xca;" glyph-name="Ecircumflex" horiz-adv-x="2371" d="M987 2974Q963 2974 963 2986T987 3023Q1360 3400 1377 3418Q1408 3449 1450 3449H1532Q1565 3449 1578 3441T1610 3400L1827 3023Q1839 3005 1839 2990T1802 2974H1761Q1744 2974 1716
3002L1458 3215Q1453 3220 1442 3215L1094 2998Q1054 2974 1040 2974H987ZM561 -12L139 -25Q96 -25 83 -9T70 55T86 112T156 123H319Q320 131 352 336T419 762T498 1285T577 1832Q659 2422 659 2564L655 2593H418Q357 2593 351 2616T344 2666Q344 2736 397 2736L592
2730Q786 2724 872 2724Q872 2724 1729 2736Q2100 2736 2105 2777Q2105 2839 2171 2839Q2216 2839 2234 2828T2253 2789T2237 2607T2216 2261Q2216 2232 2200 2224T2140 2216T2080 2226T2064 2253T2089 2576Q1911 2601 1032 2601Q993 2490 929 1991T864 1477T865
1460Q868 1454 913 1454H1585Q1757 1454 1765 1499L1810 1724Q1814 1753 1884 1753T1954 1716Q1954 1689 1924 1553Q1834 1131 1828 1052T1810 964Q1795 954 1757 954H1741Q1675 954 1675 987L1724 1274Q1724 1305 1671 1312T1532 1319H913Q867 1319 859 1315T842
1269T766 754T684 160Q684 135 700 135L2007 164Q2024 179 2077 343T2144 541T2171 586T2217 598T2275 583T2302 543T2280 452T2210 256T2142 63T2102 -13T2048 -25L561 -12Z" />
<glyph unicode="&#xcb;" glyph-name="Edieresis" horiz-adv-x="2371" d="M1653 3263T1601 3329T1548 3477T1596 3615T1730 3672T1868 3606T1921 3459T1870 3321T1736 3263ZM1080 3263T1028 3329T975 3477T1023 3615T1157 3672T1295 3606T1348 3459T1297 3321T1163
3263ZM561 -12L139 -25Q96 -25 83 -9T70 55T86 112T156 123H319Q320 131 352 336T419 762T498 1285T577 1832Q659 2422 659 2564L655 2593H418Q357 2593 351 2616T344 2666Q344 2736 397 2736L592 2730Q786 2724 872 2724Q872 2724 1729 2736Q2100 2736 2105 2777Q2105
2839 2171 2839Q2216 2839 2234 2828T2253 2789T2237 2607T2216 2261Q2216 2232 2200 2224T2140 2216T2080 2226T2064 2253T2089 2576Q1911 2601 1032 2601Q993 2490 929 1991T864 1477T865 1460Q868 1454 913 1454H1585Q1757 1454 1765 1499L1810 1724Q1814 1753
1884 1753T1954 1716Q1954 1689 1924 1553Q1834 1131 1828 1052T1810 964Q1795 954 1757 954H1741Q1675 954 1675 987L1724 1274Q1724 1305 1671 1312T1532 1319H913Q867 1319 859 1315T842 1269T766 754T684 160Q684 135 700 135L2007 164Q2024 179 2077 343T2144
541T2171 586T2217 598T2275 583T2302 543T2280 452T2210 256T2142 63T2102 -13T2048 -25L561 -12Z" />
<glyph unicode="&#xcc;" glyph-name="Igrave" horiz-adv-x="1544" d="M606 3351Q606 3482 737 3482Q814 3482 872 3371L1036 3023Q1040 3015 1040 2995T1012 2974H938Q923 2974 913 2987T901 3002L651 3248Q606 3293 606 3351ZM602 -12L139 -25Q96 -25 83 -9T70
55T86 112T156 123H393Q430 235 592 1320T754 2505T729 2605H455Q397 2605 397 2666T415 2740T479 2753Q479 2753 958 2740L1405 2753Q1448 2753 1461 2736T1475 2672T1459 2615T1389 2605H1159Q1115 2510 961 1429T807 164Q807 123 827 123H1098Q1133 123 1144
109T1155 52T1144 -8T1098 -25L602 -12Z" />
<glyph unicode="&#xcd;" glyph-name="Iacute" horiz-adv-x="1544" d="M962 2974Q934 2974 934 2992T946 3023L1220 3375Q1304 3482 1373 3482Q1503 3482 1503 3383Q1503 3303 1425 3248L1085 3002Q1082 3000 1073 2992Q1054 2974 1040 2974H962ZM602 -12L139 -25Q96
-25 83 -9T70 55T86 112T156 123H393Q430 235 592 1320T754 2505T729 2605H455Q397 2605 397 2666T415 2740T479 2753Q479 2753 958 2740L1405 2753Q1448 2753 1461 2736T1475 2672T1459 2615T1389 2605H1159Q1115 2510 961 1429T807 164Q807 123 827 123H1098Q1133
123 1144 109T1155 52T1144 -8T1098 -25L602 -12Z" />
<glyph unicode="&#xce;" glyph-name="Icircumflex" horiz-adv-x="1544" d="M569 2974Q545 2974 545 2986T569 3023Q942 3400 959 3418Q990 3449 1032 3449H1114Q1147 3449 1160 3441T1192 3400L1409 3023Q1421 3005 1421 2990T1384 2974H1343Q1326 2974 1298 3002L1040
3215Q1035 3220 1024 3215L676 2998Q636 2974 622 2974H569ZM602 -12L139 -25Q96 -25 83 -9T70 55T86 112T156 123H393Q430 235 592 1320T754 2505T729 2605H455Q397 2605 397 2666T415 2740T479 2753Q479 2753 958 2740L1405 2753Q1448 2753 1461 2736T1475 2672T1459
2615T1389 2605H1159Q1115 2510 961 1429T807 164Q807 123 827 123H1098Q1133 123 1144 109T1155 52T1144 -8T1098 -25L602 -12Z" />
<glyph unicode="&#xcf;" glyph-name="Idieresis" horiz-adv-x="1544" d="M1235 3263T1183 3329T1130 3477T1178 3615T1312 3672T1450 3606T1503 3459T1452 3321T1318 3263ZM662 3263T610 3329T557 3477T605 3615T739 3672T877 3606T930 3459T879 3321T745 3263ZM602
-12L139 -25Q96 -25 83 -9T70 55T86 112T156 123H393Q430 235 592 1320T754 2505T729 2605H455Q397 2605 397 2666T415 2740T479 2753Q479 2753 958 2740L1405 2753Q1448 2753 1461 2736T1475 2672T1459 2615T1389 2605H1159Q1115 2510 961 1429T807 164Q807 123
827 123H1098Q1133 123 1144 109T1155 52T1144 -8T1098 -25L602 -12Z" />
<glyph unicode="&#xd0;" glyph-name="Eth" horiz-adv-x="3039" d="M520 -12L123 -29Q86 -29 76 -15T66 44T84 102T147 115H315Q350 219 500 1266Q503 1293 498 1298T467 1303H201Q180 1303 180 1356V1380Q180 1425 201 1425H479Q510 1425 515 1429T524 1460T566
1766Q672 2536 672 2589V2593L381 2585Q347 2585 331 2596T315 2647T327 2706T381 2724L868 2720L1409 2728Q2232 2728 2613 2270Q2888 1938 2888 1372Q2888 580 2269 200Q1897 -29 1397 -29L520 -12ZM871 1303T863 1295T784 798T713 223T731 126T970 115T1385
150T1721 243T1982 386T2179 560T2319 758T2414 962T2469 1163Q2503 1331 2503 1509T2459 1852T2319 2154T2083 2387Q1786 2589 1294 2589Q1055 2589 1050 2577T1005 2293T923 1744T880 1454T883 1432T909 1425H1712Q1729 1425 1729 1364T1712 1303H893Q871 1303
863 1295Z" />
<glyph unicode="&#xd1;" glyph-name="Ntilde" horiz-adv-x="3375" d="M1567 3289L1544 3287H1499Q1487 3287 1487 3304Q1487 3341 1540 3429T1669 3576T1796 3635T1896 3612T1981 3562Q2075 3488 2130 3488Q2217 3488 2282 3615Q2285 3622 2289 3631T2294 3642T2299
3648Q2306 3652 2327 3652H2380Q2384 3652 2384 3641T2380 3611T2371 3582Q2311 3437 2225 3362T2073 3287T1960 3309T1882 3358Q1798 3430 1738 3430T1645 3401T1598 3344T1580 3308T1576 3299T1573 3293T1567 3289ZM496 -12L139 -25Q96 -25 83 -9T70 55T86 112T156
123H348Q438 677 598 1562T758 2483T757 2523T754 2531T747 2543T732 2572Q715 2605 651 2605H406Q372 2605 364 2617T356 2668T358 2721Q363 2753 406 2753L872 2740L1057 2753Q1115 2753 1151 2695L2494 651Q2526 606 2548 606Q2572 667 2642 1104Q2834 2303
2834 2568V2605H2527Q2492 2605 2481 2619T2470 2676T2481 2736T2527 2753L2892 2740L3236 2753Q3278 2753 3291 2736T3305 2672T3289 2615T3219 2605H3056Q3011 2460 2732 705Q2692 452 2676 200T2645 -75T2602 -98T2560 -91T2532 -66T2508 -37T2484 2Q2310 292
1982 774L934 2306Q899 2353 889 2357T874 2347T869 2323T845 2164T790 1814T722 1357T654 872Q582 331 582 172L586 123H930Q965 123 976 109T987 52T976 -8T930 -25L496 -12Z" />
<glyph unicode="&#xd2;" glyph-name="Ograve" horiz-adv-x="3006" d="M1380 3351Q1380 3482 1511 3482Q1588 3482 1646 3371L1810 3023Q1814 3015 1814 2995T1786 2974H1712Q1697 2974 1687 2987T1675 3002L1425 3248Q1380 3293 1380 3351ZM262 468T197 678T131
1138T192 1609T362 2007T618 2327T936 2568Q1290 2769 1663 2769T2311 2600T2730 2127T2875 1425Q2875 800 2436 352Q2153 63 1770 -46Q1574 -102 1370 -102T986 -58T648 83T376 324ZM576 1529Q532 1348 532 1198T548 930T600 696T687 481T813 295T978 149Q1170
20 1438 20Q1879 20 2196 528Q2372 812 2444 1189Q2478 1364 2478 1496T2465 1732T2421 1945T2346 2153T2236 2339T2090 2491Q1918 2630 1679 2630Q1245 2630 886 2170Q664 1885 576 1529Z" />
<glyph unicode="&#xd3;" glyph-name="Oacute" horiz-adv-x="3006" d="M1736 2974Q1708 2974 1708 2992T1720 3023L1994 3375Q2078 3482 2147 3482Q2277 3482 2277 3383Q2277 3303 2199 3248L1859 3002Q1856 3000 1847 2992Q1828 2974 1814 2974H1736ZM262 468T197
678T131 1138T192 1609T362 2007T618 2327T936 2568Q1290 2769 1663 2769T2311 2600T2730 2127T2875 1425Q2875 800 2436 352Q2153 63 1770 -46Q1574 -102 1370 -102T986 -58T648 83T376 324ZM576 1529Q532 1348 532 1198T548 930T600 696T687 481T813 295T978
149Q1170 20 1438 20Q1879 20 2196 528Q2372 812 2444 1189Q2478 1364 2478 1496T2465 1732T2421 1945T2346 2153T2236 2339T2090 2491Q1918 2630 1679 2630Q1245 2630 886 2170Q664 1885 576 1529Z" />
<glyph unicode="&#xd4;" glyph-name="Ocircumflex" horiz-adv-x="3006" d="M1343 2974Q1319 2974 1319 2986T1343 3023Q1716 3400 1733 3418Q1764 3449 1806 3449H1888Q1921 3449 1934 3441T1966 3400L2183 3023Q2195 3005 2195 2990T2158 2974H2117Q2100 2974
2072 3002L1814 3215Q1809 3220 1798 3215L1450 2998Q1410 2974 1396 2974H1343ZM262 468T197 678T131 1138T192 1609T362 2007T618 2327T936 2568Q1290 2769 1663 2769T2311 2600T2730 2127T2875 1425Q2875 800 2436 352Q2153 63 1770 -46Q1574 -102 1370 -102T986
-58T648 83T376 324ZM576 1529Q532 1348 532 1198T548 930T600 696T687 481T813 295T978 149Q1170 20 1438 20Q1879 20 2196 528Q2372 812 2444 1189Q2478 1364 2478 1496T2465 1732T2421 1945T2346 2153T2236 2339T2090 2491Q1918 2630 1679 2630Q1245 2630 886
2170Q664 1885 576 1529Z" />
<glyph unicode="&#xd5;" glyph-name="Otilde" horiz-adv-x="3006" d="M1423 3289L1400 3287H1355Q1343 3287 1343 3304Q1343 3341 1396 3429T1525 3576T1652 3635T1752 3612T1837 3562Q1931 3488 1986 3488Q2073 3488 2138 3615Q2141 3622 2145 3631T2150 3642T2155
3648Q2162 3652 2183 3652H2236Q2240 3652 2240 3641T2236 3611T2227 3582Q2167 3437 2081 3362T1929 3287T1816 3309T1738 3358Q1654 3430 1594 3430T1501 3401T1454 3344T1436 3308T1432 3299T1429 3293T1423 3289ZM262 468T197 678T131 1138T192 1609T362 2007T618
2327T936 2568Q1290 2769 1663 2769T2311 2600T2730 2127T2875 1425Q2875 800 2436 352Q2153 63 1770 -46Q1574 -102 1370 -102T986 -58T648 83T376 324ZM576 1529Q532 1348 532 1198T548 930T600 696T687 481T813 295T978 149Q1170 20 1438 20Q1879 20 2196 528Q2372
812 2444 1189Q2478 1364 2478 1496T2465 1732T2421 1945T2346 2153T2236 2339T2090 2491Q1918 2630 1679 2630Q1245 2630 886 2170Q664 1885 576 1529Z" />
<glyph unicode="&#xd6;" glyph-name="Odieresis" horiz-adv-x="3006" d="M2009 3263T1957 3329T1904 3477T1952 3615T2086 3672T2224 3606T2277 3459T2226 3321T2092 3263ZM1436 3263T1384 3329T1331 3477T1379 3615T1513 3672T1651 3606T1704 3459T1653 3321T1519
3263ZM262 468T197 678T131 1138T192 1609T362 2007T618 2327T936 2568Q1290 2769 1663 2769T2311 2600T2730 2127T2875 1425Q2875 800 2436 352Q2153 63 1770 -46Q1574 -102 1370 -102T986 -58T648 83T376 324ZM576 1529Q532 1348 532 1198T548 930T600 696T687
481T813 295T978 149Q1170 20 1438 20Q1879 20 2196 528Q2372 812 2444 1189Q2478 1364 2478 1496T2465 1732T2421 1945T2346 2153T2236 2339T2090 2491Q1918 2630 1679 2630Q1245 2630 886 2170Q664 1885 576 1529Z" />
<glyph unicode="&#xd7;" glyph-name="multiply" horiz-adv-x="2158" d="M381 1413Q348 1446 348 1470T395 1540T473 1585T541 1548L1016 1077Q1066 1027 1087 1031T1122 1049L1634 1561Q1662 1589 1690 1589T1762 1545T1806 1472T1765 1401L1270 905Q1240 873
1240 861T1270 819L1778 311Q1806 283 1806 254T1761 178T1688 131T1626 164L1122 672Q1084 710 1067 698T1020 655L528 164Q495 131 469 131T398 175T352 247T389 311L881 807Q912 838 914 857T889 905L381 1413Z" />
<glyph unicode="&#xd8;" glyph-name="Oslash" horiz-adv-x="3006" d="M618 2328Q904 2609 1293 2717Q1480 2769 1705 2769T2175 2671Q2201 2662 2212 2683L2376 2966Q2384 2974 2400 2974T2440 2960Q2496 2923 2482 2900L2322 2634Q2309 2607 2327 2589Q2590 2419
2732 2119T2875 1425Q2875 800 2436 352Q2153 63 1770 -46Q1574 -102 1332 -102T848 -16Q824 -5 813 -5T791 -25L672 -225Q659 -238 642 -238T589 -213T561 -172L668 12Q686 47 680 57T655 78Q131 406 131 1127T618 2328ZM621 1710T577 1529T532 1136T599 700T799
315Q828 280 841 306T1460 1381T2077 2449T2089 2483T2060 2515Q1901 2630 1719 2630T1391 2572T1121 2412T887 2171T699 1870ZM942 176Q1151 20 1438 20Q1879 20 2196 528Q2372 812 2444 1189Q2478 1364 2478 1558T2409 1985T2204 2380Q2186 2398 2171 2367L942
242Q939 236 935 228T929 216T926 206T926 196Q930 186 942 176Z" />
<glyph unicode="&#xd9;" glyph-name="Ugrave" horiz-adv-x="3108" d="M1331 3351Q1331 3482 1462 3482Q1539 3482 1597 3371L1761 3023Q1765 3015 1765 2995T1737 2974H1663Q1648 2974 1638 2987T1626 3002L1376 3248Q1331 3293 1331 3351ZM2634 2720L2970 2732Q3013
2732 3026 2716T3039 2652T3023 2595T2953 2585H2830Q2811 2496 2783 2330T2716 1936T2649 1533T2561 1034Q2455 444 2396 241T2316 15T2260 -8Q2192 -8 2187 49Q2182 93 2174 172Q2161 311 2152 311T2133 307T2104 292T2067 271T2019 244Q1531 -41 1098 -41Q687
-41 456 205Q299 371 299 618Q299 814 434 1646T569 2576V2585H311Q247 2585 240 2608T233 2669T249 2719T311 2732L696 2720L1114 2732Q1155 2732 1165 2717T1176 2653T1163 2595T1098 2585H963Q937 2533 864 2133T728 1294T664 735T696 525T775 382T890 285T1017
224T1146 192Q1237 176 1362 176T1676 241T1987 385Q2098 465 2144 641T2263 1237T2360 1796Q2442 2282 2470 2585H2200Q2133 2585 2124 2609T2114 2669T2134 2719T2200 2732L2634 2720Z" />
<glyph unicode="&#xda;" glyph-name="Uacute" horiz-adv-x="3108" d="M1687 2974Q1659 2974 1659 2992T1671 3023L1945 3375Q2029 3482 2098 3482Q2228 3482 2228 3383Q2228 3303 2150 3248L1810 3002Q1807 3000 1798 2992Q1779 2974 1765 2974H1687ZM2634 2720L2970
2732Q3013 2732 3026 2716T3039 2652T3023 2595T2953 2585H2830Q2811 2496 2783 2330T2716 1936T2649 1533T2561 1034Q2455 444 2396 241T2316 15T2260 -8Q2192 -8 2187 49Q2182 93 2174 172Q2161 311 2152 311T2133 307T2104 292T2067 271T2019 244Q1531 -41 1098
-41Q687 -41 456 205Q299 371 299 618Q299 814 434 1646T569 2576V2585H311Q247 2585 240 2608T233 2669T249 2719T311 2732L696 2720L1114 2732Q1155 2732 1165 2717T1176 2653T1163 2595T1098 2585H963Q937 2533 864 2133T728 1294T664 735T696 525T775 382T890
285T1017 224T1146 192Q1237 176 1362 176T1676 241T1987 385Q2098 465 2144 641T2263 1237T2360 1796Q2442 2282 2470 2585H2200Q2133 2585 2124 2609T2114 2669T2134 2719T2200 2732L2634 2720Z" />
<glyph unicode="&#xdb;" glyph-name="Ucircumflex" horiz-adv-x="3108" d="M1294 2974Q1270 2974 1270 2986T1294 3023Q1667 3400 1684 3418Q1715 3449 1757 3449H1839Q1872 3449 1885 3441T1917 3400L2134 3023Q2146 3005 2146 2990T2109 2974H2068Q2051 2974
2023 3002L1765 3215Q1760 3220 1749 3215L1401 2998Q1361 2974 1347 2974H1294ZM2634 2720L2970 2732Q3013 2732 3026 2716T3039 2652T3023 2595T2953 2585H2830Q2811 2496 2783 2330T2716 1936T2649 1533T2561 1034Q2455 444 2396 241T2316 15T2260 -8Q2192 -8
2187 49Q2182 93 2174 172Q2161 311 2152 311T2133 307T2104 292T2067 271T2019 244Q1531 -41 1098 -41Q687 -41 456 205Q299 371 299 618Q299 814 434 1646T569 2576V2585H311Q247 2585 240 2608T233 2669T249 2719T311 2732L696 2720L1114 2732Q1155 2732 1165
2717T1176 2653T1163 2595T1098 2585H963Q937 2533 864 2133T728 1294T664 735T696 525T775 382T890 285T1017 224T1146 192Q1237 176 1362 176T1676 241T1987 385Q2098 465 2144 641T2263 1237T2360 1796Q2442 2282 2470 2585H2200Q2133 2585 2124 2609T2114 2669T2134
2719T2200 2732L2634 2720Z" />
<glyph unicode="&#xdc;" glyph-name="Udieresis" horiz-adv-x="3108" d="M1960 3263T1908 3329T1855 3477T1903 3615T2037 3672T2175 3606T2228 3459T2177 3321T2043 3263ZM1387 3263T1335 3329T1282 3477T1330 3615T1464 3672T1602 3606T1655 3459T1604 3321T1470
3263ZM2634 2720L2970 2732Q3013 2732 3026 2716T3039 2652T3023 2595T2953 2585H2830Q2811 2496 2783 2330T2716 1936T2649 1533T2561 1034Q2455 444 2396 241T2316 15T2260 -8Q2192 -8 2187 49Q2182 93 2174 172Q2161 311 2152 311T2133 307T2104 292T2067 271T2019
244Q1531 -41 1098 -41Q687 -41 456 205Q299 371 299 618Q299 814 434 1646T569 2576V2585H311Q247 2585 240 2608T233 2669T249 2719T311 2732L696 2720L1114 2732Q1155 2732 1165 2717T1176 2653T1163 2595T1098 2585H963Q937 2533 864 2133T728 1294T664 735T696
525T775 382T890 285T1017 224T1146 192Q1237 176 1362 176T1676 241T1987 385Q2098 465 2144 641T2263 1237T2360 1796Q2442 2282 2470 2585H2200Q2133 2585 2124 2609T2114 2669T2134 2719T2200 2732L2634 2720Z" />
<glyph unicode="&#xdd;" glyph-name="Yacute" horiz-adv-x="2510" d="M1335 2974Q1307 2974 1307 2992T1319 3023L1593 3375Q1677 3482 1746 3482Q1876 3482 1876 3383Q1876 3303 1798 3248L1458 3002Q1455 3000 1446 2992Q1427 2974 1413 2974H1335ZM938 -12L545
-25Q505 -25 494 -8T483 52T497 109T561 123H741Q762 150 822 518T893 950T919 1099T934 1233Q934 1244 659 1876T340 2605H156Q112 2605 91 2618T70 2679T90 2740T156 2753L569 2740L934 2753Q976 2753 987 2737T999 2673T985 2615T918 2605H754Q754 2601 759
2586T793 2473T1009 1915T1203 1447T1220 1444Q1233 1453 1246 1474T1280 1526T1406 1713T1595 1993T1768 2258Q1962 2557 1962 2605H1757Q1704 2605 1688 2615T1671 2672T1684 2736T1741 2753L2060 2740L2376 2753Q2417 2753 2429 2740T2441 2678T2429 2617T2376
2605H2220Q2170 2555 1822 2077T1315 1356Q1293 1316 1282 1266L1143 426Q1102 177 1102 150T1106 123H1368Q1403 123 1414 109T1425 52T1414 -8T1368 -25L938 -12Z" />
<glyph unicode="&#xde;" glyph-name="Thorn" horiz-adv-x="2318" d="M578 -12L111 -25Q69 -25 57 -9T45 55T60 112T127 123H369Q406 235 567 1320T729 2505T705 2605H426Q373 2605 373 2666T387 2740T446 2753Q446 2753 934 2740L1389 2753Q1430 2753 1440 2737T1450
2673T1437 2615T1372 2605H1135Q1125 2587 1107 2481T1076 2305L1053 2179Q1049 2163 1049 2149T1051 2132T1062 2130T1103 2134Q1199 2146 1370 2146T1707 2093T1983 1944Q2208 1746 2208 1434Q2208 1060 1959 852Q1691 627 1196 627L885 635Q848 635 837 627T792
417T758 131V123H1073Q1108 123 1119 109T1130 52T1119 -8T1073 -25L578 -12ZM848 771Q848 737 972 737T1224 759T1470 833T1676 962Q1868 1129 1868 1418T1697 1865T1196 2023Q1122 2023 1079 2020T1029 2011T1016 1962L967 1630Q848 872 848 771Z" />
<glyph unicode="&#xdf;" glyph-name="germandbls" horiz-adv-x="1998" d="M1016 414L995 242Q995 147 1027 96T1143 45T1295 127T1402 336Q1483 600 1483 872Q1483 1368 1106 1435Q1073 1441 1043 1445T1008 1450Q975 1450 975 1491T982 1541Q995 1559 1037 1563T1147
1600T1283 1699T1404 1852Q1524 2048 1524 2331Q1524 2542 1396 2634Q1330 2683 1249 2683T1112 2656T1018 2573T953 2465T906 2326Q877 2194 866 2110T840 1931T721 1052T575 8T518 -309T472 -458T398 -638Q295 -854 147 -967Q127 -987 51 -1037T-46 -1095T-102
-1118Q-159 -1143 -246 -1143T-428 -1090T-524 -980T-451 -863T-321 -803T-209 -828Q-44 -901 2 -901T72 -886T117 -839T153 -773T184 -687T208 -593T229 -491T245 -394T258 -300T306 15T396 644T490 1408T554 1953T608 2220T704 2443T846 2625Q1021 2789 1269
2789T1652 2646T1786 2277Q1786 1925 1516 1689Q1396 1583 1311 1547T1225 1507T1253 1493T1316 1470T1410 1425T1516 1359T1614 1270T1702 1151Q1782 1004 1782 818T1735 473T1605 198Q1425 -53 1135 -53Q909 -53 806 89Q754 161 754 251T797 386T901 451Q1016
489 1016 414Z" />
<glyph unicode="&#xe0;" glyph-name="agrave" horiz-adv-x="1773" d="M1126 2388L1237 1847Q1237 1827 1208 1827H1146Q1122 1827 1105 1860L872 2298Q856 2325 856 2372T894 2456T993 2494Q1107 2494 1126 2388ZM1151 -57Q1028 -57 1028 53Q1028 183 1225 819Q999
443 825 263T608 46Q496 -48 383 -53Q376 -53 369 -53Q237 -53 164 31T90 231T109 467T167 718T263 974T398 1213T570 1412Q771 1597 1032 1597Q1072 1597 1148 1561T1249 1490T1292 1424Q1330 1364 1336 1364Q1352 1364 1393 1532Q1405 1585 1585 1585Q1651 1585
1651 1557T1568 1240Q1319 376 1319 282T1364 188Q1394 188 1504 303T1630 418T1664 397T1683 356T1625 273T1487 135T1311 2T1151 -57ZM480 865T435 692T389 434T391 320T404 257Q423 188 487 188T645 262T840 454Q1048 700 1212 971Q1241 1019 1257 1089T1274
1197T1238 1279T1148 1350Q1033 1409 932 1409T728 1297T553 1025Z" />
<glyph unicode="&#xe1;" glyph-name="aacute" horiz-adv-x="1773" d="M1064 1827Q1036 1827 1036 1839T1048 1876L1298 2380Q1351 2486 1426 2486T1541 2459T1581 2377T1540 2277L1167 1855Q1146 1827 1126 1827H1064ZM1151 -57Q1028 -57 1028 53Q1028 183 1225
819Q999 443 825 263T608 46Q496 -48 383 -53Q376 -53 369 -53Q237 -53 164 31T90 231T109 467T167 718T263 974T398 1213T570 1412Q771 1597 1032 1597Q1072 1597 1148 1561T1249 1490T1292 1424Q1330 1364 1336 1364Q1352 1364 1393 1532Q1405 1585 1585 1585Q1651
1585 1651 1557T1568 1240Q1319 376 1319 282T1364 188Q1394 188 1504 303T1630 418T1664 397T1683 356T1625 273T1487 135T1311 2T1151 -57ZM480 865T435 692T389 434T391 320T404 257Q423 188 487 188T645 262T840 454Q1048 700 1212 971Q1241 1019 1257 1089T1274
1197T1238 1279T1148 1350Q1033 1409 932 1409T728 1297T553 1025Z" />
<glyph unicode="&#xe2;" glyph-name="acircumflex" horiz-adv-x="1773" d="M720 1872Q696 1872 696 1882T700 1899T710 1913T720 1925L1093 2351Q1127 2391 1138 2397T1183 2404H1265Q1298 2404 1310 2396T1343 2347L1560 1925Q1576 1893 1576 1883T1536 1872H1486Q1474
1872 1465 1884T1450 1901L1204 2142Q1192 2154 1185 2154T1159 2142L827 1901Q791 1872 782 1872H720ZM1151 -57Q1028 -57 1028 53Q1028 183 1225 819Q999 443 825 263T608 46Q496 -48 383 -53Q376 -53 369 -53Q237 -53 164 31T90 231T109 467T167 718T263 974T398
1213T570 1412Q771 1597 1032 1597Q1072 1597 1148 1561T1249 1490T1292 1424Q1330 1364 1336 1364Q1352 1364 1393 1532Q1405 1585 1585 1585Q1651 1585 1651 1557T1568 1240Q1319 376 1319 282T1364 188Q1394 188 1504 303T1630 418T1664 397T1683 356T1625 273T1487
135T1311 2T1151 -57ZM480 865T435 692T389 434T391 320T404 257Q423 188 487 188T645 262T840 454Q1048 700 1212 971Q1241 1019 1257 1089T1274 1197T1238 1279T1148 1350Q1033 1409 932 1409T728 1297T553 1025Z" />
<glyph unicode="&#xe3;" glyph-name="atilde" horiz-adv-x="1773" d="M788 2009L765 2007H720Q708 2007 708 2024Q708 2061 761 2149T890 2296T1017 2355T1117 2332T1202 2282Q1296 2208 1351 2208Q1438 2208 1503 2335Q1506 2342 1510 2351T1515 2362T1520 2368Q1527
2372 1548 2372H1601Q1605 2372 1605 2361T1601 2331T1592 2302Q1532 2157 1446 2082T1294 2007T1181 2029T1103 2078Q1019 2150 959 2150T866 2121T819 2064T801 2028T797 2019T794 2013T788 2009ZM1151 -57Q1028 -57 1028 53Q1028 183 1225 819Q999 443 825 263T608
46Q496 -48 383 -53Q376 -53 369 -53Q237 -53 164 31T90 231T109 467T167 718T263 974T398 1213T570 1412Q771 1597 1032 1597Q1072 1597 1148 1561T1249 1490T1292 1424Q1330 1364 1336 1364Q1352 1364 1393 1532Q1405 1585 1585 1585Q1651 1585 1651 1557T1568
1240Q1319 376 1319 282T1364 188Q1394 188 1504 303T1630 418T1664 397T1683 356T1625 273T1487 135T1311 2T1151 -57ZM480 865T435 692T389 434T391 320T404 257Q423 188 487 188T645 262T840 454Q1048 700 1212 971Q1241 1019 1257 1089T1274 1197T1238 1279T1148
1350Q1033 1409 932 1409T728 1297T553 1025Z" />
<glyph unicode="&#xe4;" glyph-name="adieresis" horiz-adv-x="1773" d="M1374 1983T1322 2049T1269 2197T1317 2335T1451 2392T1589 2326T1642 2179T1591 2041T1457 1983ZM801 1983T749 2049T696 2197T744 2335T878 2392T1016 2326T1069 2179T1018 2041T884 1983ZM1151
-57Q1028 -57 1028 53Q1028 183 1225 819Q999 443 825 263T608 46Q496 -48 383 -53Q376 -53 369 -53Q237 -53 164 31T90 231T109 467T167 718T263 974T398 1213T570 1412Q771 1597 1032 1597Q1072 1597 1148 1561T1249 1490T1292 1424Q1330 1364 1336 1364Q1352
1364 1393 1532Q1405 1585 1585 1585Q1651 1585 1651 1557T1568 1240Q1319 376 1319 282T1364 188Q1394 188 1504 303T1630 418T1664 397T1683 356T1625 273T1487 135T1311 2T1151 -57ZM480 865T435 692T389 434T391 320T404 257Q423 188 487 188T645 262T840 454Q1048
700 1212 971Q1241 1019 1257 1089T1274 1197T1238 1279T1148 1350Q1033 1409 932 1409T728 1297T553 1025Z" />
<glyph unicode="&#xe5;" glyph-name="aring" horiz-adv-x="1773" d="M872 2055T872 2175T957 2380T1163 2466T1368 2381T1454 2175T1369 1970T1163 1884T958 1969ZM1011 2240T1011 2175T1054 2067T1162 2023T1270 2066T1314 2175T1271 2283T1163 2327T1055 2284ZM1151
-57Q1028 -57 1028 53Q1028 183 1225 819Q999 443 825 263T608 46Q496 -48 383 -53Q376 -53 369 -53Q237 -53 164 31T90 231T109 467T167 718T263 974T398 1213T570 1412Q771 1597 1032 1597Q1072 1597 1148 1561T1249 1490T1292 1424Q1330 1364 1336 1364Q1352
1364 1393 1532Q1405 1585 1585 1585Q1651 1585 1651 1557T1568 1240Q1319 376 1319 282T1364 188Q1394 188 1504 303T1630 418T1664 397T1683 356T1625 273T1487 135T1311 2T1151 -57ZM480 865T435 692T389 434T391 320T404 257Q423 188 487 188T645 262T840 454Q1048
700 1212 971Q1241 1019 1257 1089T1274 1197T1238 1279T1148 1350Q1033 1409 932 1409T728 1297T553 1025Z" />
<glyph unicode="&#xe6;" glyph-name="ae" horiz-adv-x="2605" d="M1413 684Q1393 684 1393 508Q1393 156 1774 156Q1998 156 2246 334Q2310 380 2353 420Q2454 512 2475 512T2515 488T2535 447T2489 380T2356 261T2160 125Q1901 -33 1626 -33Q1347 -33 1202 126Q1098
242 1098 404T1114 647Q929 373 790 228T608 46Q496 -48 383 -53Q376 -53 369 -53Q237 -53 164 31T90 231T109 467T167 718T263 974T398 1213T570 1412Q771 1597 1032 1597Q1202 1597 1298 1425Q1331 1366 1339 1364Q1350 1384 1374 1464T1409 1554T1440 1568T1475
1576Q1492 1578 1571 1587T1651 1552Q1651 1546 1642 1511T1630 1462Q1858 1614 2114 1614Q2401 1614 2482 1448Q2507 1397 2507 1318T2465 1151T2348 996Q2202 859 1966 772T1413 684ZM492 188Q556 188 690 314Q973 580 1212 971Q1241 1019 1257 1089T1274 1205T1218
1304Q1107 1409 950 1409Q875 1409 793 1336T642 1147T517 895Q397 606 397 397T492 188ZM1511 999Q1454 862 1454 815Q1454 803 1540 803T1758 840T1992 944Q2216 1091 2216 1335Q2216 1405 2163 1448T2023 1491Q1697 1491 1511 999Z" />
<glyph unicode="&#xe7;" glyph-name="ccedilla" horiz-adv-x="1646" d="M455 -782Q725 -782 725 -594Q725 -477 632 -438Q595 -422 548 -422T451 -434T395 -446T373 -437T356 -419T557 -45Q263 -8 151 229Q90 358 90 523T130 839T240 1107T400 1322T594 1482Q808
1614 1028 1614T1355 1498T1462 1269T1410 1094T1274 1032Q1171 1032 1171 1196L1176 1294Q1176 1370 1131 1424T985 1479T769 1405T569 1203T432 908T381 648T382 533T391 463T415 382T461 307T536 238Q639 176 770 176T1003 209T1182 289T1322 383T1422 463T1470
496T1503 470T1528 430T1492 377T1396 285T1249 173T1070 66Q857 -49 664 -49H659Q582 -188 541 -270Q581 -262 643 -262Q789 -262 880 -343T971 -560T835 -798T500 -901Q306 -901 203 -811Q180 -791 180 -778Q180 -725 225 -725Q233 -725 264 -740Q357 -782 455
-782Z" />
<glyph unicode="&#xe8;" glyph-name="egrave" horiz-adv-x="1597" d="M1122 2388L1233 1847Q1233 1827 1204 1827H1142Q1118 1827 1101 1860L868 2298Q852 2325 852 2372T890 2456T989 2494Q1103 2494 1122 2388ZM406 684Q385 684 385 508Q385 156 766 156Q990
156 1238 334Q1302 380 1345 420Q1446 512 1467 512T1508 488T1528 449T1504 405T1434 333T1326 241T1183 144T1014 56Q819 -33 618 -33Q339 -33 194 126Q90 242 90 412T127 733T231 1014T392 1255T598 1446Q834 1614 1106 1614Q1393 1614 1474 1448Q1499 1397
1499 1318T1457 1151T1340 996Q1194 859 958 772T406 684ZM504 999Q446 859 446 814Q446 803 532 803T750 840T984 944Q1208 1091 1208 1335Q1208 1405 1155 1448T1016 1491Q690 1491 504 999Z" />
<glyph unicode="&#xe9;" glyph-name="eacute" horiz-adv-x="1597" d="M1060 1827Q1032 1827 1032 1839T1044 1876L1294 2380Q1347 2486 1422 2486T1537 2459T1577 2377T1536 2277L1163 1855Q1142 1827 1122 1827H1060ZM406 684Q385 684 385 508Q385 156 766 156Q990
156 1238 334Q1302 380 1345 420Q1446 512 1467 512T1508 488T1528 449T1504 405T1434 333T1326 241T1183 144T1014 56Q819 -33 618 -33Q339 -33 194 126Q90 242 90 412T127 733T231 1014T392 1255T598 1446Q834 1614 1106 1614Q1393 1614 1474 1448Q1499 1397
1499 1318T1457 1151T1340 996Q1194 859 958 772T406 684ZM504 999Q446 859 446 814Q446 803 532 803T750 840T984 944Q1208 1091 1208 1335Q1208 1405 1155 1448T1016 1491Q690 1491 504 999Z" />
<glyph unicode="&#xea;" glyph-name="ecircumflex" horiz-adv-x="1597" d="M716 1872Q692 1872 692 1882T696 1899T706 1913T716 1925L1089 2351Q1123 2391 1134 2397T1179 2404H1261Q1294 2404 1306 2396T1339 2347L1556 1925Q1572 1893 1572 1883T1532 1872H1482Q1470
1872 1461 1884T1446 1901L1200 2142Q1188 2154 1181 2154T1155 2142L823 1901Q787 1872 778 1872H716ZM406 684Q385 684 385 508Q385 156 766 156Q990 156 1238 334Q1302 380 1345 420Q1446 512 1467 512T1508 488T1528 449T1504 405T1434 333T1326 241T1183 144T1014
56Q819 -33 618 -33Q339 -33 194 126Q90 242 90 412T127 733T231 1014T392 1255T598 1446Q834 1614 1106 1614Q1393 1614 1474 1448Q1499 1397 1499 1318T1457 1151T1340 996Q1194 859 958 772T406 684ZM504 999Q446 859 446 814Q446 803 532 803T750 840T984 944Q1208
1091 1208 1335Q1208 1405 1155 1448T1016 1491Q690 1491 504 999Z" />
<glyph unicode="&#xeb;" glyph-name="edieresis" horiz-adv-x="1597" d="M1370 1983T1318 2049T1265 2197T1313 2335T1447 2392T1585 2326T1638 2179T1587 2041T1453 1983ZM797 1983T745 2049T692 2197T740 2335T874 2392T1012 2326T1065 2179T1014 2041T880 1983ZM406
684Q385 684 385 508Q385 156 766 156Q990 156 1238 334Q1302 380 1345 420Q1446 512 1467 512T1508 488T1528 449T1504 405T1434 333T1326 241T1183 144T1014 56Q819 -33 618 -33Q339 -33 194 126Q90 242 90 412T127 733T231 1014T392 1255T598 1446Q834 1614
1106 1614Q1393 1614 1474 1448Q1499 1397 1499 1318T1457 1151T1340 996Q1194 859 958 772T406 684ZM504 999Q446 859 446 814Q446 803 532 803T750 840T984 944Q1208 1091 1208 1335Q1208 1405 1155 1448T1016 1491Q690 1491 504 999Z" />
<glyph unicode="&#xec;" glyph-name="igrave" horiz-adv-x="1105" d="M725 2388L836 1847Q836 1827 807 1827H745Q721 1827 704 1860L471 2298Q455 2325 455 2372T493 2456T592 2494Q706 2494 725 2388ZM433 823T478 1005T524 1259T484 1331T369 1271T230 1150T148
1090T110 1111T90 1152T167 1239T346 1383Q611 1581 713 1581T815 1479Q815 1361 682 856T549 315T550 268Q554 238 587 238T694 303T835 434T916 500T953 477T975 429T847 288T563 67T344 -37Q233 -37 233 49Q233 177 333 500Z" />
<glyph unicode="&#xed;" glyph-name="iacute" horiz-adv-x="1105" d="M663 1827Q635 1827 635 1839T647 1876L897 2380Q950 2486 1025 2486T1140 2459T1180 2377T1139 2277L766 1855Q745 1827 725 1827H663ZM433 823T478 1005T524 1259T484 1331T369 1271T230
1150T148 1090T110 1111T90 1152T167 1239T346 1383Q611 1581 713 1581T815 1479Q815 1361 682 856T549 315T550 268Q554 238 587 238T694 303T835 434T916 500T953 477T975 429T847 288T563 67T344 -37Q233 -37 233 49Q233 177 333 500Z" />
<glyph unicode="&#xee;" glyph-name="icircumflex" horiz-adv-x="1105" d="M319 1872Q295 1872 295 1882T299 1899T309 1913T319 1925L692 2351Q726 2391 737 2397T782 2404H864Q897 2404 909 2396T942 2347L1159 1925Q1175 1893 1175 1883T1135 1872H1085Q1073
1872 1064 1884T1049 1901L803 2142Q791 2154 784 2154T758 2142L426 1901Q390 1872 381 1872H319ZM433 823T478 1005T524 1259T484 1331T369 1271T230 1150T148 1090T110 1111T90 1152T167 1239T346 1383Q611 1581 713 1581T815 1479Q815 1361 682 856T549 315T550
268Q554 238 587 238T694 303T835 434T916 500T953 477T975 429T847 288T563 67T344 -37Q233 -37 233 49Q233 177 333 500Z" />
<glyph unicode="&#xef;" glyph-name="idieresis" horiz-adv-x="1105" d="M945 1983T893 2049T840 2197T888 2335T1022 2392T1160 2326T1213 2179T1162 2041T1028 1983ZM428 1983T376 2049T323 2197T371 2335T505 2392T643 2326T696 2179T645 2041T511 1983ZM433
823T478 1005T524 1259T484 1331T369 1271T230 1150T148 1090T110 1111T90 1152T167 1239T346 1383Q611 1581 713 1581T815 1479Q815 1361 682 856T549 315T550 268Q554 238 587 238T694 303T835 434T916 500T953 477T975 429T847 288T563 67T344 -37Q233 -37 233
49Q233 177 333 500Z" />
<glyph unicode="&#xf0;" glyph-name="eth" horiz-adv-x="1683" d="M165 228T128 336T90 579T122 853T213 1109T358 1323T548 1488Q768 1630 1040 1630Q1146 1630 1274 1573Q1248 1694 1185 1849T1090 2060T1048 2118T814 2058T579 1995T540 2042T512 2105Q512
2111 722 2165T952 2225T976 2231T983 2234T985 2238T984 2243T979 2250T971 2261Q809 2512 610 2699Q556 2753 618 2753L799 2757Q860 2757 1200 2310Q1212 2294 1237 2302Q1643 2408 1654 2408T1688 2364T1712 2302Q1712 2296 1511 2246T1298 2193T1285 2188T1318
2127T1401 1955T1496 1706Q1593 1409 1593 1130T1524 643T1334 283T1040 44T699 -45T418 5T236 142ZM1315 1139Q1315 1520 995 1520Q772 1520 564 1192Q446 1005 408 846T369 622T369 533T372 462T380 385T396 310T421 236T460 175T514 123Q583 78 676 78T858 131T1015
271T1141 470T1236 700Q1315 949 1315 1139Z" />
<glyph unicode="&#xf1;" glyph-name="ntilde" horiz-adv-x="2109" d="M1067 2009L1044 2007H999Q987 2007 987 2024Q987 2061 1040 2149T1169 2296T1296 2355T1396 2332T1481 2282Q1575 2208 1630 2208Q1717 2208 1782 2335Q1785 2342 1789 2351T1794 2362T1799
2368Q1806 2372 1827 2372H1880Q1884 2372 1884 2361T1880 2331T1871 2302Q1811 2157 1725 2082T1573 2007T1460 2029T1382 2078Q1298 2150 1238 2150T1145 2121T1098 2064T1080 2028T1076 2019T1073 2013T1067 2009ZM1565 287Q1565 217 1630 217Q1693 217 1774
294T1898 418T1969 496T2003 528T2034 503T2060 464T2021 400T1913 281T1761 147Q1565 -8 1393 -8Q1327 -8 1288 43T1249 173T1300 414T1413 730Q1577 1142 1577 1290Q1577 1335 1556 1366T1491 1397T1356 1312T1158 1092Q947 822 818 617Q668 376 592 74Q570 -17
524 -20Q350 -37 329 -37Q287 -37 295 20Q541 1047 541 1294Q541 1356 501 1356T370 1291T204 1160T116 1094T77 1118T49 1163T98 1228T230 1334T404 1454Q625 1593 766 1593Q803 1593 833 1569T864 1493T854 1365T834 1230T797 1063T758 907T711 730T668 569Q1012
1172 1273 1408Q1477 1593 1659 1593Q1880 1593 1880 1401Q1880 1267 1723 798T1565 287Z" />
<glyph unicode="&#xf2;" glyph-name="ograve" horiz-adv-x="1716" d="M1151 2388L1262 1847Q1262 1827 1233 1827H1171Q1147 1827 1130 1860L897 2298Q881 2325 881 2372T919 2456T1018 2494Q1132 2494 1151 2388ZM136 292T113 380T90 628T162 986T361 1327T666
1554T1010 1638T1278 1594T1443 1480T1550 1320Q1626 1157 1626 972T1551 602T1349 275T1045 44T714 -45T465 -12T300 79T184 214ZM420 894T395 790T369 618T370 513T377 419T396 319T431 229T488 150Q564 78 671 78T867 131T1028 271T1159 470T1259 700Q1343 948
1343 1139Q1343 1410 1149 1493Q1086 1520 1007 1520T848 1477T699 1361T569 1193T464 996Z" />
<glyph unicode="&#xf3;" glyph-name="oacute" horiz-adv-x="1716" d="M1089 1827Q1061 1827 1061 1839T1073 1876L1323 2380Q1376 2486 1451 2486T1566 2459T1606 2377T1565 2277L1192 1855Q1171 1827 1151 1827H1089ZM136 292T113 380T90 628T162 986T361 1327T666
1554T1010 1638T1278 1594T1443 1480T1550 1320Q1626 1157 1626 972T1551 602T1349 275T1045 44T714 -45T465 -12T300 79T184 214ZM420 894T395 790T369 618T370 513T377 419T396 319T431 229T488 150Q564 78 671 78T867 131T1028 271T1159 470T1259 700Q1343 948
1343 1139Q1343 1410 1149 1493Q1086 1520 1007 1520T848 1477T699 1361T569 1193T464 996Z" />
<glyph unicode="&#xf4;" glyph-name="ocircumflex" horiz-adv-x="1716" d="M745 1872Q721 1872 721 1882T725 1899T735 1913T745 1925L1118 2351Q1152 2391 1163 2397T1208 2404H1290Q1323 2404 1335 2396T1368 2347L1585 1925Q1601 1893 1601 1883T1561 1872H1511Q1499
1872 1490 1884T1475 1901L1229 2142Q1217 2154 1210 2154T1184 2142L852 1901Q816 1872 807 1872H745ZM136 292T113 380T90 628T162 986T361 1327T666 1554T1010 1638T1278 1594T1443 1480T1550 1320Q1626 1157 1626 972T1551 602T1349 275T1045 44T714 -45T465
-12T300 79T184 214ZM420 894T395 790T369 618T370 513T377 419T396 319T431 229T488 150Q564 78 671 78T867 131T1028 271T1159 470T1259 700Q1343 948 1343 1139Q1343 1410 1149 1493Q1086 1520 1007 1520T848 1477T699 1361T569 1193T464 996Z" />
<glyph unicode="&#xf5;" glyph-name="otilde" horiz-adv-x="1716" d="M813 2009L790 2007H745Q733 2007 733 2024Q733 2061 786 2149T915 2296T1042 2355T1142 2332T1227 2282Q1321 2208 1376 2208Q1463 2208 1528 2335Q1531 2342 1535 2351T1540 2362T1545 2368Q1552
2372 1573 2372H1626Q1630 2372 1630 2361T1626 2331T1617 2302Q1557 2157 1471 2082T1319 2007T1206 2029T1128 2078Q1044 2150 984 2150T891 2121T844 2064T826 2028T822 2019T819 2013T813 2009ZM136 292T113 380T90 628T162 986T361 1327T666 1554T1010 1638T1278
1594T1443 1480T1550 1320Q1626 1157 1626 972T1551 602T1349 275T1045 44T714 -45T465 -12T300 79T184 214ZM420 894T395 790T369 618T370 513T377 419T396 319T431 229T488 150Q564 78 671 78T867 131T1028 271T1159 470T1259 700Q1343 948 1343 1139Q1343 1410
1149 1493Q1086 1520 1007 1520T848 1477T699 1361T569 1193T464 996Z" />
<glyph unicode="&#xf6;" glyph-name="odieresis" horiz-adv-x="1716" d="M1399 1983T1347 2049T1294 2197T1342 2335T1476 2392T1614 2326T1667 2179T1616 2041T1482 1983ZM826 1983T774 2049T721 2197T769 2335T903 2392T1041 2326T1094 2179T1043 2041T909 1983ZM136
292T113 380T90 628T162 986T361 1327T666 1554T1010 1638T1278 1594T1443 1480T1550 1320Q1626 1157 1626 972T1551 602T1349 275T1045 44T714 -45T465 -12T300 79T184 214ZM420 894T395 790T369 618T370 513T377 419T396 319T431 229T488 150Q564 78 671 78T867
131T1028 271T1159 470T1259 700Q1343 948 1343 1139Q1343 1410 1149 1493Q1086 1520 1007 1520T848 1477T699 1361T569 1193T464 996Z" />
<glyph unicode="&#xf7;" glyph-name="divide" horiz-adv-x="2158" d="M856 1238T856 1311T911 1437T1040 1491T1165 1440T1217 1315T1164 1189T1036 1135T909 1186ZM987 233T932 285T877 412T930 538T1056 590T1183 537T1237 410T1186 285T1061 233ZM116 829Q115
841 115 866T117 906T127 935Q142 963 201 963H1966Q2016 963 2030 940T2044 860T2028 781T1946 758H197Q118 758 116 829Z" />
<glyph unicode="&#xf8;" glyph-name="oslash" horiz-adv-x="1716" d="M318 64Q90 242 90 602Q90 788 162 986T361 1327T666 1554T1049 1638Q1110 1638 1166 1626T1230 1617T1257 1655L1372 1860Q1389 1891 1439 1858Q1498 1820 1487 1802L1376 1614Q1362 1589
1359 1585T1354 1575T1353 1566T1357 1558Q1362 1550 1380 1536Q1547 1406 1603 1168Q1626 1070 1626 929T1551 602T1349 275T1045 44T715 -45T505 -26T441 -9T422 -37L295 -258Q283 -270 267 -270T220 -249T188 -212T197 -188L311 12Q314 18 318 25T324 36T328
44T329 51Q325 60 318 64ZM420 894T395 790T369 538T397 313T433 235T459 266L1139 1454Q1154 1484 1153 1486T1150 1491T1144 1495T1135 1499Q1082 1520 1005 1520T848 1477T699 1361T569 1193T464 996ZM541 172Q518 134 526 123Q559 78 668 78T867 131T1028 271T1159
470T1259 700Q1343 948 1343 1114T1286 1380Q1270 1406 1262 1405T1241 1380L541 172Z" />
<glyph unicode="&#xf9;" glyph-name="ugrave" horiz-adv-x="2134" d="M1266 2388L1377 1847Q1377 1827 1348 1827H1286Q1262 1827 1245 1860L1012 2298Q996 2325 996 2372T1034 2456T1133 2494Q1247 2494 1266 2388ZM457 661T519 917T582 1285T512 1397Q443 1397
285 1194T123 991Q108 991 79 1011T49 1044T78 1100Q158 1222 231 1308T329 1422T399 1491T484 1556Q582 1614 665 1614T799 1599T888 1546T926 1456T860 1157Q664 419 664 315Q664 233 751 233T924 313T1128 564Q1501 1100 1577 1581Q1585 1606 1613 1612Q1716
1634 1819 1634Q1855 1634 1855 1598T1743 986T1630 365Q1630 274 1696 274Q1757 274 1896 460Q1947 530 1989 588T2038 647T2067 633T2089 608T2053 532T1954 375T1816 197Q1640 -12 1495 -12Q1435 -12 1392 22T1348 118T1383 349T1468 736T1536 1065Q1403 786
1290 618Q861 -33 569 -33Q332 -33 332 152Q332 203 394 432Z" />
<glyph unicode="&#xfa;" glyph-name="uacute" horiz-adv-x="2134" d="M1204 1827Q1176 1827 1176 1839T1188 1876L1438 2380Q1491 2486 1566 2486T1681 2459T1721 2377T1680 2277L1307 1855Q1286 1827 1266 1827H1204ZM457 661T519 917T582 1285T512 1397Q443
1397 285 1194T123 991Q108 991 79 1011T49 1044T78 1100Q158 1222 231 1308T329 1422T399 1491T484 1556Q582 1614 665 1614T799 1599T888 1546T926 1456T860 1157Q664 419 664 315Q664 233 751 233T924 313T1128 564Q1501 1100 1577 1581Q1585 1606 1613 1612Q1716
1634 1819 1634Q1855 1634 1855 1598T1743 986T1630 365Q1630 274 1696 274Q1757 274 1896 460Q1947 530 1989 588T2038 647T2067 633T2089 608T2053 532T1954 375T1816 197Q1640 -12 1495 -12Q1435 -12 1392 22T1348 118T1383 349T1468 736T1536 1065Q1403 786
1290 618Q861 -33 569 -33Q332 -33 332 152Q332 203 394 432Z" />
<glyph unicode="&#xfb;" glyph-name="ucircumflex" horiz-adv-x="2134" d="M860 1872Q836 1872 836 1882T840 1899T850 1913T860 1925L1233 2351Q1267 2391 1278 2397T1323 2404H1405Q1438 2404 1450 2396T1483 2347L1700 1925Q1716 1893 1716 1883T1676 1872H1626Q1614
1872 1605 1884T1590 1901L1344 2142Q1332 2154 1325 2154T1299 2142L967 1901Q931 1872 922 1872H860ZM457 661T519 917T582 1285T512 1397Q443 1397 285 1194T123 991Q108 991 79 1011T49 1044T78 1100Q158 1222 231 1308T329 1422T399 1491T484 1556Q582 1614
665 1614T799 1599T888 1546T926 1456T860 1157Q664 419 664 315Q664 233 751 233T924 313T1128 564Q1501 1100 1577 1581Q1585 1606 1613 1612Q1716 1634 1819 1634Q1855 1634 1855 1598T1743 986T1630 365Q1630 274 1696 274Q1757 274 1896 460Q1947 530 1989
588T2038 647T2067 633T2089 608T2053 532T1954 375T1816 197Q1640 -12 1495 -12Q1435 -12 1392 22T1348 118T1383 349T1468 736T1536 1065Q1403 786 1290 618Q861 -33 569 -33Q332 -33 332 152Q332 203 394 432Z" />
<glyph unicode="&#xfc;" glyph-name="udieresis" horiz-adv-x="2134" d="M1514 1983T1462 2049T1409 2197T1457 2335T1591 2392T1729 2326T1782 2179T1731 2041T1597 1983ZM941 1983T889 2049T836 2197T884 2335T1018 2392T1156 2326T1209 2179T1158 2041T1024
1983ZM457 661T519 917T582 1285T512 1397Q443 1397 285 1194T123 991Q108 991 79 1011T49 1044T78 1100Q158 1222 231 1308T329 1422T399 1491T484 1556Q582 1614 665 1614T799 1599T888 1546T926 1456T860 1157Q664 419 664 315Q664 233 751 233T924 313T1128
564Q1501 1100 1577 1581Q1585 1606 1613 1612Q1716 1634 1819 1634Q1855 1634 1855 1598T1743 986T1630 365Q1630 274 1696 274Q1757 274 1896 460Q1947 530 1989 588T2038 647T2067 633T2089 608T2053 532T1954 375T1816 197Q1640 -12 1495 -12Q1435 -12 1392
22T1348 118T1383 349T1468 736T1536 1065Q1403 786 1290 618Q861 -33 569 -33Q332 -33 332 152Q332 203 394 432Z" />
<glyph unicode="&#xfd;" glyph-name="yacute" horiz-adv-x="1728" d="M1044 1827Q1016 1827 1016 1839T1028 1876L1278 2380Q1331 2486 1406 2486T1521 2459T1561 2377T1520 2277L1147 1855Q1126 1827 1106 1827H1044ZM-23 -1196T-44 -1156T-66 -1070T-47 -989T10
-931T82 -896T170 -868T266 -838T365 -768T481 -607T589 -391T663 -196Q700 -61 700 70T696 331T681 614T651 897T602 1135Q542 1368 430 1368Q344 1368 278 1305T180 1204T127 1140T99 1114T58 1130T25 1159T52 1215T130 1320T244 1438Q396 1577 566 1577T818
1388T927 791Q934 693 954 221Q983 277 1064 426T1192 666Q1418 1098 1450 1404Q1454 1447 1460 1514Q1469 1626 1520 1626Q1594 1626 1636 1587T1679 1520Q1679 1185 946 -37L905 -115Q621 -665 544 -803T426 -979T348 -1038T273 -1084T217 -1118T166 -1147T110
-1174Q54 -1196 16 -1196Z" />
<glyph unicode="&#xfe;" glyph-name="thorn" horiz-adv-x="1761" d="M-111 -1102Q-193 -1102 -193 -1057Q-193 -981 -177 -964T-102 -946L-33 -950Q28 -950 41 -868Q148 -307 217 128T414 1289T576 2278T599 2554T554 2560T436 2528Q264 2482 251 2482T233 2484Q221
2487 221 2521T224 2583Q231 2629 274 2642Q456 2683 671 2738T901 2793Q942 2793 942 2744Q942 2648 801 1878T569 664Q722 1024 930 1339Q999 1449 1109 1513T1323 1577T1485 1557T1578 1503T1635 1418Q1671 1329 1671 1185T1631 885T1521 595T1359 343T1164
140Q943 -41 737 -41L508 -12Q496 -12 489 -12T480 -13T476 -15T472 -19Q469 -22 467 -33L336 -889Q325 -970 376 -974T496 -986T606 -997Q696 -1006 696 -1053Q696 -1163 643 -1163Q605 -1163 498 -1148Q184 -1102 -111 -1102ZM524 209Q524 90 774 90Q872 90 984
194T1185 452T1333 794T1393 1139Q1393 1389 1225 1389Q1138 1389 1079 1326T986 1219T916 1111T856 1000T799 889T750 795Q524 364 524 209Z" />
<glyph unicode="&#xff;" glyph-name="ydieresis" horiz-adv-x="1728" d="M1354 1983T1302 2049T1249 2197T1297 2335T1431 2392T1569 2326T1622 2179T1571 2041T1437 1983ZM781 1983T729 2049T676 2197T724 2335T858 2392T996 2326T1049 2179T998 2041T864 1983ZM-23
-1196T-44 -1156T-66 -1070T-47 -989T10 -931T82 -896T170 -868T266 -838T365 -768T481 -607T589 -391T663 -196Q700 -61 700 70T696 331T681 614T651 897T602 1135Q542 1368 430 1368Q344 1368 278 1305T180 1204T127 1140T99 1114T58 1130T25 1159T52 1215T130
1320T244 1438Q396 1577 566 1577T818 1388T927 791Q934 693 954 221Q983 277 1064 426T1192 666Q1418 1098 1450 1404Q1454 1447 1460 1514Q1469 1626 1520 1626Q1594 1626 1636 1587T1679 1520Q1679 1185 946 -37L905 -115Q621 -665 544 -803T426 -979T348 -1038T273
-1084T217 -1118T166 -1147T110 -1174Q54 -1196 16 -1196Z" />
<glyph unicode="&#x2013;" glyph-name="endash" horiz-adv-x="2048" d="M45 705T37 718T29 793T36 867T78 881H1958Q2001 881 2010 870T2019 819V770Q2019 728 2009 717T1958 705H90Q45 705 37 718Z" />
<glyph unicode="&#x2014;" glyph-name="emdash" horiz-adv-x="3072" d="M45 705T37 718T29 793T36 867T78 881H2982Q3025 881 3034 870T3043 819V770Q3043 728 3033 717T2982 705H90Q45 705 37 718Z" />
<glyph unicode="&#x2018;" glyph-name="quoteleft" horiz-adv-x="937" d="M306 1911T290 1993T274 2150T317 2326T422 2508T548 2652Q683 2789 700 2789T754 2752T791 2706T750 2656Q750 2656 658 2564Q524 2430 524 2362T567 2177T610 2003T570 1889T482 1801T402
1769T338 1840Z" />
<glyph unicode="&#x2019;" glyph-name="quoteright" horiz-adv-x="1019" d="M302 1769T266 1806T229 1852T270 1902T362 1995Q496 2130 496 2198T453 2382T410 2556T450 2669T538 2757T617 2789T682 2718Q745 2578 745 2457T702 2233T597 2051T471 1906Q338 1769
320 1769Z" />
<glyph unicode="&#x201a;" glyph-name="quotesinglbase" horiz-adv-x="1019" d="M302 -545T266 -508T229 -462T270 -412T362 -319Q496 -184 496 -116T453 68T410 242T450 355T538 443T617 475T682 404Q745 264 745 143T702 -81T597 -263T471 -408Q338 -545 320 -545Z" />
<glyph unicode="&#x201c;" glyph-name="quotedblleft" horiz-adv-x="1695" d="M1064 1911T1048 1993T1032 2150T1075 2326T1180 2508T1306 2652Q1441 2789 1458 2789T1512 2752T1549 2706T1508 2656Q1508 2656 1416 2564Q1282 2430 1282 2362T1325 2177T1368 2003T1328
1889T1240 1801T1160 1769T1096 1840ZM306 1911T290 1993T274 2150T317 2326T422 2508T548 2652Q683 2789 700 2789T754 2752T791 2706T750 2656Q750 2656 658 2564Q524 2430 524 2362T567 2177T610 2003T570 1889T482 1801T402 1769T338 1840Z" />
<glyph unicode="&#x201d;" glyph-name="quotedblright" horiz-adv-x="1777" d="M1060 1769T1024 1806T987 1852T1028 1902T1120 1995Q1254 2130 1254 2198T1211 2382T1168 2556T1208 2669T1296 2757T1375 2789T1440 2718Q1503 2578 1503 2457T1460 2233T1355 2051T1229
1906Q1096 1769 1078 1769ZM302 1769T266 1806T229 1852T270 1902T362 1995Q496 2130 496 2198T453 2382T410 2556T450 2669T538 2757T617 2789T682 2718Q745 2578 745 2457T702 2233T597 2051T471 1906Q338 1769 320 1769Z" />
<glyph unicode="&#x201e;" glyph-name="quotedblbase" horiz-adv-x="1777" d="M1060 -545T1024 -508T987 -462T1028 -412T1120 -319Q1254 -184 1254 -116T1211 68T1168 242T1208 355T1296 443T1375 475T1440 404Q1503 264 1503 143T1460 -81T1355 -263T1229 -408Q1096
-545 1078 -545ZM302 -545T266 -508T229 -462T270 -412T362 -319Q496 -184 496 -116T453 68T410 242T450 355T538 443T617 475T682 404Q745 264 745 143T702 -81T597 -263T471 -408Q338 -545 320 -545Z" />
<glyph unicode="&#x2022;" glyph-name="bullet" horiz-adv-x="1458" d="M233 1339Q233 1544 378 1689T729 1835T1079 1690T1225 1339Q1225 1204 1159 1090T978 910T729 844T480 910T300 1090T233 1339Z" />
<glyph unicode="&#x2039;" glyph-name="guilsinglleft" horiz-adv-x="1056" d="M215 750T204 766T193 794T220 835T317 928T436 1036T570 1166Q749 1343 756 1343T795 1316T827 1277T698 1039T569 791T698 545T827 304T796 263T757 238T702 284T569 415T442 539T356
617T291 677T242 723Z" />
<glyph unicode="&#x203a;" glyph-name="guilsinglright" horiz-adv-x="1056" d="M293 238T261 265T229 303T358 542T487 791T358 1037T229 1277T260 1318T300 1343T355 1297T488 1166T616 1042T701 964T766 905T815 858Q864 809 864 793T837 747T739 653T620 544T487
415Q308 238 301 238Z" />
</font>
</defs>
</svg>
