<?xml version="1.0" standalone="no"?>
<!DOCTYPE svg PUBLIC "-//W3C//DTD SVG 1.1//EN" "http://www.w3.org/Graphics/SVG/1.1/DTD/svg11.dtd">
<svg xmlns="http://www.w3.org/2000/svg">
<defs >
<font id="LibreFranklin" horiz-adv-x="561" ><font-face
    font-family="Libre Franklin ExtraLight"
    units-per-em="1000"
    panose-1="0 0 3 0 0 0 0 0 0 0"
    ascent="966"
    descent="-246"
    alphabetic="0" />
<glyph unicode=" " glyph-name="space" horiz-adv-x="219" />
<glyph unicode="!" glyph-name="exclam" horiz-adv-x="235" d="M136 165Q136 155 125 155H108Q100 155 98 164L86 734Q86 742 92 742H143Q150 742 150 735L136 165ZM153 12Q153 5 150 3T139 0H93Q86 0 84 2T82 11V77Q82 86 89 86H145Q153 86 153 78V12Z" />
<glyph unicode="&quot;" glyph-name="quotedbl" horiz-adv-x="380" d="M282 552Q281 546 279 544T270 541H251Q246 541 245 543T242 549L221 735Q221 742 228 742H296Q303 742 303 735L282 552ZM138 552Q137 546 135 544T126 541H107Q102 541 101 543T98 549L77
735Q77 742 84 742H152Q159 742 159 735L138 552Z" />
<glyph unicode="#" glyph-name="numbersign" horiz-adv-x="603" d="M561 500T561 493V468Q561 458 549 458H445L419 290H520Q528 290 528 283V258Q528 248 516 248H412L375 9Q374 -2 365 0L340 4Q333 5 333 11L369 248H207L170 9Q169 -2 161 0L136 4Q128 5 129
11L165 248H52Q43 248 43 256V282Q43 290 48 290H172L198 458H85Q76 458 76 466V492Q76 500 81 500H204L240 735Q242 744 248 742L274 738Q283 736 282 726L247 500H408L444 735Q446 744 452 742L478 738Q483 737 485 735T486 726L451 500H553Q561 500 561 493ZM402
458H240L214 290H376L402 458Z" />
<glyph unicode="$" glyph-name="dollar" horiz-adv-x="581" d="M542 119T516 79T443 15T337 -9Q328 -10 328 -16V-82Q328 -92 320 -92H293Q285 -92 285 -85V-16Q285 -9 279 -9Q194 -9 138 20T42 111Q38 117 38 120Q38 124 43 127L63 142Q66 145 71 145Q77 145
80 141Q120 89 164 65T277 40H280Q285 40 285 47V327Q285 343 262 354Q186 387 144 414T84 475T65 556Q65 637 123 690T276 751Q279 751 281 753T284 759V813Q284 821 290 821H318Q323 821 325 819T327 810V757Q327 750 335 750Q393 744 438 721T524 657Q528 653
528 649Q528 645 524 642L499 620Q495 618 493 618Q490 618 484 625Q460 654 421 674T336 700H334Q327 700 327 692V402Q327 395 329 393T338 387L368 375Q455 339 498 289T542 169Q542 119 516 79ZM284 694Q284 698 281 700T274 701Q205 695 163 656T121 557Q121
514 152 482T264 412L272 410Q284 410 284 424V694ZM328 39T335 40Q403 40 444 77T485 171Q485 223 453 257T345 323Q339 325 336 325Q328 325 328 315V46Q328 39 335 40Z" />
<glyph unicode="%" glyph-name="percent" horiz-adv-x="902" d="M303 753T348 697T393 541Q393 439 348 383T229 327Q154 327 109 383T63 541Q63 641 108 697T229 753Q303 753 348 697ZM232 4Q229 -1 226 -2T216 -4H198Q189 -4 189 2Q189 6 192 10L680 745Q684
750 693 750H716Q726 750 721 741L232 4ZM284 362T317 411T351 540Q351 619 318 669T228 719Q172 719 139 669T105 540Q105 461 138 412T228 362Q284 362 317 411ZM749 416T794 360T839 204Q839 102 794 46T675 -10Q600 -10 555 46T509 204Q509 304 554 360T675
416Q749 416 794 360ZM710 24T738 47T781 112T797 203Q797 280 763 330T674 381Q638 381 610 358T567 294T551 203Q551 153 566 112T610 48T674 24Q710 24 738 47Z" />
<glyph unicode="&amp;" glyph-name="ampersand" horiz-adv-x="749" d="M393 753T442 714T491 607Q491 482 302 401Q294 398 294 394Q294 392 299 385L480 170Q485 165 486 165Q488 165 495 171Q535 208 583 277T644 384Q647 393 658 389L680 381Q684 379 686 376T687
369Q673 324 626 256T526 135Q522 131 522 128Q522 124 528 119Q558 90 612 69T715 47Q722 47 724 45T727 36V15Q727 7 724 4T711 0Q660 0 592 26T485 86Q481 89 478 89Q474 89 470 85Q372 -5 251 -5Q155 -5 98 48T40 188Q40 249 74 298T187 396Q197 402 197 407Q197
411 188 421Q120 490 120 568Q120 620 146 662T217 728T319 753Q393 753 442 714ZM254 709T216 668T177 568Q177 539 187 514T224 460L248 434Q252 430 257 430L265 432Q358 476 397 517T437 608Q437 657 404 683T320 709Q254 709 216 668ZM243 366T236 366Q233
366 223 362Q164 333 130 287T96 185Q96 120 142 80T258 40Q306 40 353 60T435 113Q443 121 443 126Q443 131 438 136L250 357Q243 366 236 366Z" />
<glyph unicode="&apos;" glyph-name="quotesingle" horiz-adv-x="236" d="M138 552Q137 546 135 544T126 541H107Q102 541 101 543T98 549L77 735Q77 742 84 742H152Q159 742 159 735L138 552Z" />
<glyph unicode="(" glyph-name="parenleft" horiz-adv-x="272" d="M250 742T251 740T251 735Q198 629 166 513T134 284Q134 173 160 66T241 -157Q243 -160 242 -162T236 -165H219Q214 -165 210 -160Q144 -46 111 59T77 285Q77 404 115 520T220 736Q225 742 233
742H246Q250 742 251 740Z" />
<glyph unicode=")" glyph-name="parenright" horiz-adv-x="272" d="M39 742Q48 742 52 736Q118 637 156 521T195 285Q195 164 162 59T62 -160Q58 -165 53 -165H36Q32 -165 31 -163T31 -157Q85 -42 111 65T138 284Q138 397 106 513T21 735Q19 737 20 739T26 742H39Z" />
<glyph unicode="*" glyph-name="asterisk" horiz-adv-x="339" d="M177 563Q176 564 173 563L99 445Q95 441 89 445L64 462Q60 465 64 471L146 577Q148 582 143 583L32 615Q28 616 30 623L39 648Q40 654 47 651L152 612Q158 609 158 616L150 736Q150 738 152 740T158
742H192Q197 742 197 736L192 616Q192 609 196 611L305 657Q310 660 312 655L320 630Q322 622 317 621L208 584Q202 581 206 577L284 478Q289 472 282 466L259 450Q255 447 252 447T248 450L177 563Z" />
<glyph unicode="+" glyph-name="plus" horiz-adv-x="545" d="M477 395T477 388V360Q477 351 465 351H295V176Q295 168 288 168H260Q251 168 251 180V350H77Q72 350 70 351T68 358V386Q68 394 74 394H250V568Q250 573 251 575T258 577H286Q294 577 294 571V395H469Q477
395 477 388Z" />
<glyph unicode="," glyph-name="comma" horiz-adv-x="193" d="M47 -136T46 -133T47 -125L90 -11Q91 -9 91 -6Q91 0 82 0H72Q63 0 63 8V79Q63 86 70 86H127Q134 86 134 80V17Q134 11 132 5L72 -129Q68 -136 58 -136H50Q47 -136 46 -133Z" />
<glyph unicode="-" glyph-name="hyphen" horiz-adv-x="381" d="M313 252Q313 243 301 243L77 242Q72 242 70 243T68 250V280Q68 288 74 288L305 289Q313 289 313 282V252Z" />
<glyph unicode="." glyph-name="period" horiz-adv-x="188" d="M130 12Q130 5 127 3T115 0H69Q58 0 58 11V77Q58 87 66 87H122Q130 87 130 78V12Z" />
<glyph unicode="/" glyph-name="slash" horiz-adv-x="331" d="M15 -56T16 -50L267 735Q268 742 276 742H308Q318 742 314 731L67 -47Q63 -56 54 -56H22Q15 -56 16 -50Z" />
<glyph unicode="0" glyph-name="zero" horiz-adv-x="678" d="M415 752T474 709T568 580T602 369Q602 245 568 160T475 33T339 -10Q263 -10 204 32T110 159T76 367Q76 492 110 578T204 708T340 752Q415 752 474 709ZM434 39T488 120T543 369Q543 538 488 620T339
703Q246 703 191 620T135 369Q135 203 190 121T340 39Q434 39 488 120Z" />
<glyph unicode="1" glyph-name="one" horiz-adv-x="444" d="M398 50T398 43V7Q398 0 390 0H62Q55 0 55 7V43Q55 50 62 50H199Q206 50 206 54V667Q206 672 205 673T199 674L63 620L60 619Q54 619 54 628V656Q54 661 55 662T60 666L200 736Q212 742 224 742H255Q263
742 263 732V56Q263 50 269 50H390Q398 50 398 43Z" />
<glyph unicode="2" glyph-name="two" horiz-adv-x="577" d="M299 306Q380 386 414 442T449 557Q449 604 425 637T363 686T283 703Q233 703 183 679T100 607Q97 602 91 602Q88 602 83 605L62 621Q55 627 55 630Q55 632 60 639Q100 695 162 723T290 752Q347 752
396 731T476 664T506 552Q506 507 489 467T437 383T336 273L126 63Q122 59 122 56Q122 51 132 51H504Q509 51 511 49T513 42V9Q513 0 504 0H68Q61 0 58 3T55 13V38Q55 49 58 56T72 73L299 306Z" />
<glyph unicode="3" glyph-name="three" horiz-adv-x="628" d="M76 650T82 656Q131 706 183 729T300 752Q370 752 424 728T507 661T536 567Q536 510 501 466T405 401Q394 398 394 395Q394 392 405 389Q471 371 515 322T559 200Q559 141 528 94T435 18T286 -10Q214
-10 158 13T51 88Q47 92 47 93Q47 94 52 99L78 122Q85 129 90 122Q134 77 182 58T292 39Q390 39 446 83T502 197Q502 250 472 288T393 346T289 366H199Q189 366 189 373V405Q189 409 192 411T199 413H272Q329 413 376 433T451 488T479 566Q479 604 457 635T394
685T302 703Q197 703 116 625Q111 620 108 620Q105 620 100 625L82 643Q76 650 82 656Z" />
<glyph unicode="4" glyph-name="four" horiz-adv-x="629" d="M403 742T414 742H453Q463 742 463 732V268Q463 259 470 259H570Q581 259 581 252V221Q581 211 570 211H471Q463 211 463 201V10Q463 0 452 0H415Q405 0 405 10V204Q405 211 397 211H62Q51 211 51 221V257Q51
267 61 281L398 736Q403 742 414 742ZM393 259Q397 259 399 261T402 266V641Q402 653 398 653Q394 653 388 645L112 272Q109 268 109 265Q109 259 119 259H393Z" />
<glyph unicode="5" glyph-name="five" horiz-adv-x="644" d="M536 742Q543 742 545 740T546 732L543 699Q543 697 543 695T540 692T533 691H181Q171 691 171 683L151 421V419Q151 414 154 411T161 411Q210 438 247 451T338 465Q404 465 458 442T546 369T580 243Q580
165 544 108T445 20T303 -10Q234 -10 172 14T62 86Q58 92 58 93Q58 95 63 100L88 124Q89 125 92 125Q96 125 99 121Q150 77 191 57T294 37Q400 37 461 93T522 242Q522 329 469 373T336 418Q281 418 238 400T143 350L135 346Q134 346 132 347T128 351L100 368Q97
370 95 371T92 374Q92 375 93 377T94 385L121 733Q121 740 123 741T136 742H536Z" />
<glyph unicode="6" glyph-name="six" horiz-adv-x="649" d="M427 752T468 731T542 673Q545 669 545 667T542 661L510 642Q509 641 506 641Q501 641 497 647Q472 675 442 689T369 703Q250 703 192 620T133 401Q133 388 134 383T139 377Q141 377 149 381Q206 409
250 423T351 438Q426 438 479 410T560 333T588 221Q588 153 556 101T467 19T344 -10Q261 -10 201 33T109 160T76 362Q76 483 110 571T210 705T368 752Q427 752 468 731ZM306 389T250 375T158 338Q144 328 140 319T135 290Q135 236 158 178T230 79T347 39Q399 39
441 63T507 128T531 220Q531 267 510 305T447 366T351 389Q306 389 250 375Z" />
<glyph unicode="7" glyph-name="seven" horiz-adv-x="590" d="M532 742Q540 742 540 735V708Q540 695 531 681Q465 584 403 455T296 206T239 15Q238 0 227 0H187Q174 0 177 14Q208 144 284 326T470 679Q473 684 473 686Q473 691 464 691H52Q46 691 46 700L49 734Q50
739 52 740T61 742H532Z" />
<glyph unicode="8" glyph-name="eight" horiz-adv-x="661" d="M400 752T452 727T533 655T562 549Q562 500 538 462T458 381Q450 376 450 373Q450 369 457 367Q523 345 559 299T595 190Q595 130 562 85T469 15T329 -10Q208 -10 139 42T70 185Q70 239 97 282T184
366Q198 375 198 380Q198 385 184 391Q138 414 114 452T90 544Q90 603 121 650T208 725T332 752Q400 752 452 727ZM280 704T238 684T172 627T147 546Q147 493 177 460T266 415L379 390Q399 386 430 409T484 472T507 553Q507 621 459 662T332 704Q280 704 238 684ZM426
38T482 80T538 192Q538 245 510 277T420 323L273 357Q252 362 216 340T153 277T125 188Q125 117 179 78T331 38Q426 38 482 80Z" />
<glyph unicode="9" glyph-name="nine" horiz-adv-x="645" d="M220 -10T177 11T99 70Q92 77 99 82L131 100Q132 101 135 101Q139 101 144 96Q168 68 201 54T282 39Q397 39 454 122T512 342Q512 355 511 360T505 365Q502 365 496 362Q443 334 399 319T298 304Q224
304 171 332T91 409T63 521Q63 589 95 641T183 723T306 752Q387 752 446 709T537 582T569 380Q569 259 535 171T437 37T282 -10Q220 -10 177 11ZM344 353T398 369T488 411Q502 420 506 429T511 458Q511 511 488 568T418 665T304 704Q252 704 210 680T144 615T120
523Q120 477 141 438T203 376T296 353Q344 353 398 369Z" />
<glyph unicode=":" glyph-name="colon" horiz-adv-x="188" d="M130 427Q130 415 115 415H69Q58 415 58 426V492Q58 502 66 502H122Q130 502 130 493V427ZM130 15Q130 8 127 6T115 3H69Q58 3 58 14V80Q58 89 66 89H122Q130 89 130 81V15Z" />
<glyph unicode=";" glyph-name="semicolon" horiz-adv-x="214" d="M58 415T58 426V492Q58 501 66 501H122Q130 501 130 493V427Q130 420 127 418T115 415H69Q58 415 58 426ZM47 -136T46 -134T47 -125L90 -11Q91 -9 91 -6Q91 0 82 0H72Q63 0 63 8V79Q63 86 70 86H127Q134
86 134 80V17Q134 11 132 5L72 -129Q68 -136 58 -136H50Q47 -136 46 -134Z" />
<glyph unicode="&lt;" glyph-name="less" horiz-adv-x="528" d="M458 190Q458 181 453 178T440 178L68 326Q58 329 58 337V377Q58 385 68 388L440 538Q446 540 449 540Q459 540 459 528V498Q459 490 444 482L129 357L443 232Q451 228 454 225T458 216V190Z" />
<glyph unicode="=" glyph-name="equal" horiz-adv-x="545" d="M477 460Q477 451 465 451L77 450Q72 450 70 451T68 458V486Q68 494 74 494L469 495Q477 495 477 488V460ZM477 239Q477 229 465 229L77 228Q68 228 68 236V265Q68 273 74 273L469 274Q472 274 474
272T477 267V239Z" />
<glyph unicode="&gt;" glyph-name="greater" horiz-adv-x="528" d="M70 222T73 225T85 232L399 357L84 482Q69 490 69 498V528Q69 540 79 540L87 538L460 388Q465 386 467 384T469 377V337Q469 329 460 326L87 178Q85 177 81 177Q70 177 70 190V216Q70 222 73 225Z" />
<glyph unicode="?" glyph-name="question" horiz-adv-x="516" d="M38 618T37 621T38 626Q70 684 131 718T265 752Q363 752 421 703T479 571Q479 530 465 496T431 435T375 370Q340 332 319 305T284 243T269 166Q269 163 267 160T261 157H229Q220 157 220 168Q220
215 235 254T272 323T330 392Q363 429 381 452T411 505T424 570Q424 632 381 668T265 705Q209 705 157 676T87 606Q84 600 78 602L42 617Q38 618 37 621ZM280 12Q280 5 277 3T266 0H220Q209 0 209 11V77Q209 86 217 86H272Q280 86 280 78V12Z" />
<glyph unicode="@" glyph-name="at" horiz-adv-x="834" d="M555 -113T436 -113Q319 -113 232 -63T99 72T52 261Q52 369 102 460T244 606T449 661Q538 661 618 626T748 519T798 340Q798 265 773 206T705 114T607 81Q569 81 549 93T521 137Q518 145 516 145Q515
145 510 139Q457 67 367 67Q331 67 300 89T251 151T232 243Q232 307 256 360T324 444T421 475Q461 475 491 456T540 405Q541 403 543 404T546 408L556 444Q557 449 563 449H596Q604 449 602 443L564 215Q561 196 561 180Q561 152 572 140T609 128Q646 128 677 153T726
226T745 334Q745 428 702 491T590 584T448 614Q345 614 267 566T147 437T105 258Q105 169 144 96T260 -22T449 -66Q507 -66 542 -52T625 -7Q631 -4 636 -4Q642 -4 645 -8L658 -26Q661 -31 661 -33Q661 -39 651 -46Q555 -113 436 -113ZM287 184T310 150T374 115Q427
115 468 159T520 267Q523 287 523 304Q523 363 494 395T424 427Q363 427 325 375T287 245Q287 184 310 150Z" />
<glyph unicode="A" glyph-name="A" horiz-adv-x="706" d="M48 0T51 11L315 730Q317 737 321 739T332 742H375Q391 742 394 731L655 12L656 8Q656 0 647 0H612Q601 0 598 9L520 225Q517 232 510 232H194Q187 232 184 225L104 8Q103 0 92 0H59Q48 0 51 11ZM490 280Q501
280 498 291L360 667Q357 677 353 677Q350 677 345 666L205 289Q204 287 204 284Q204 280 211 280H490Z" />
<glyph unicode="B" glyph-name="B" horiz-adv-x="687" d="M110 0T110 9V731Q110 742 120 742H331Q458 742 527 693T597 551Q597 423 466 382Q462 381 462 378T466 373Q537 359 576 315T615 197Q615 99 543 50T335 0H119Q110 0 110 9ZM343 399Q424 399 481 432T538
544Q538 620 483 657T328 695H177Q167 695 167 686V409Q167 399 175 399H343ZM330 47Q446 47 501 81T556 193Q556 275 498 313T343 351H179Q167 351 167 342V58Q167 47 175 47H330Z" />
<glyph unicode="C" glyph-name="C" horiz-adv-x="698" d="M437 752T494 725T590 652T634 554V550Q634 547 633 546T628 545L583 541H581Q577 541 576 548Q559 618 506 660T378 703Q259 703 197 618T135 369Q135 209 198 125T385 40Q462 40 512 76T592 191Q593
195 599 194L639 183Q643 181 642 174Q616 93 546 42T381 -10Q236 -10 156 89T75 369Q75 489 111 575T214 706T376 752Q437 752 494 725Z" />
<glyph unicode="D" glyph-name="D" horiz-adv-x="707" d="M246 741Q449 740 541 652T633 376Q633 183 535 92T232 0H120Q110 0 110 11V733Q110 742 120 742L246 741ZM167 694T167 680V57Q167 47 179 47H226Q353 47 428 79T538 182T573 372Q573 495 538 564T431
662T237 694H175Q167 694 167 680Z" />
<glyph unicode="E" glyph-name="E" horiz-adv-x="616" d="M110 738T112 740T120 742H543Q550 742 550 734V703Q550 698 548 696T541 694H177Q171 694 169 693T167 685V407Q167 402 169 401T177 399H459Q467 399 467 391V359Q467 354 465 353T458 351H177Q171 351
169 350T167 342V57Q167 51 169 50T177 48H556Q561 48 563 47T565 40V8Q565 0 557 0H120Q114 0 112 2T110 11V731Q110 738 112 740Z" />
<glyph unicode="F" glyph-name="F" horiz-adv-x="587" d="M110 738T112 740T120 742H533Q540 742 540 734V703Q540 698 538 696T531 694H177Q171 694 169 693T167 685V394Q167 389 169 388T177 386H469Q477 386 477 378V346Q477 342 475 341T468 339H177Q172 339
170 337T167 329V8Q167 0 159 0H120Q114 0 112 2T110 11V731Q110 738 112 740Z" />
<glyph unicode="G" glyph-name="G" horiz-adv-x="732" d="M280 -10T213 35T111 165T75 368Q75 489 111 575T215 707T375 752Q437 752 494 725T589 654T633 557Q635 549 628 548L584 540Q577 540 576 547Q569 590 541 626T469 682T375 703Q259 703 197 617T135
374Q135 210 196 125T375 39Q446 39 496 72T572 154T598 253V327Q598 336 587 336H404Q396 336 396 343V370Q396 377 402 377H641Q649 377 649 369V11Q649 5 647 3T639 0H620Q613 0 610 1T606 10L604 113Q603 118 601 118T595 113Q564 58 508 24T373 -10Q280 -10
213 35Z" />
<glyph unicode="H" glyph-name="H" horiz-adv-x="727" d="M174 362Q171 362 169 360T167 355V10Q167 0 156 0H120Q114 0 112 2T110 11V731Q110 738 112 740T120 742H158Q163 742 165 740T167 731V420Q167 414 169 412T177 410H551Q556 410 558 412T560 419V732Q560
742 569 742H608Q613 742 615 740T617 731V11Q617 0 607 0H571Q565 0 563 2T560 10V354Q560 362 552 362H174Z" />
<glyph unicode="I" glyph-name="I" horiz-adv-x="278" d="M158 742Q163 742 165 740T167 731V13Q167 5 165 3T154 0H122Q115 0 113 2T110 11V731Q110 738 112 740T120 742H158Z" />
<glyph unicode="J" glyph-name="J" horiz-adv-x="403" d="M297 71T265 31T160 -10Q125 -10 96 -2T51 14Q44 17 46 25L55 62Q57 70 64 67Q89 54 105 49T153 43Q202 43 221 68T240 161V732Q240 742 249 742H289Q297 742 297 731V148Q297 71 265 31Z" />
<glyph unicode="K" glyph-name="K" horiz-adv-x="680" d="M633 5T632 3T627 0H578Q569 0 566 6L316 402Q313 406 311 406T304 402L175 259Q171 255 169 252T167 242V10Q167 0 156 0H121Q115 0 113 2T110 10V733Q110 742 119 742H159Q167 742 167 733V332Q167 323
175 331L546 737Q548 740 551 741T559 742H604Q609 742 610 739T608 733L355 455Q353 453 353 452T355 447L631 9Q633 5 632 3Z" />
<glyph unicode="L" glyph-name="L" horiz-adv-x="591" d="M110 738T112 740T120 742H158Q163 742 165 740T167 731V57Q167 51 169 50T177 48H536Q541 48 543 47T545 40V8Q545 0 537 0H120Q114 0 112 2T110 11V731Q110 738 112 740Z" />
<glyph unicode="M" glyph-name="M" horiz-adv-x="885" d="M110 0T110 11V731Q110 738 112 740T120 742H162Q173 742 176 733L433 85Q436 76 440 76Q444 76 448 86L708 734Q711 742 720 742H765Q771 742 773 740T775 731V11Q775 0 765 0H729Q723 0 721 2T718 10V617Q718
621 717 621T714 617L472 11Q468 0 455 0H423Q408 0 404 11L166 612Q165 615 164 615T163 612V10Q163 0 152 0H120Q110 0 110 11Z" />
<glyph unicode="N" glyph-name="N" horiz-adv-x="755" d="M636 742Q641 742 643 740T645 732V11Q645 0 635 0H613H608Q599 0 593 7L175 621Q170 628 167 628T163 621V10Q163 0 152 0H120Q110 0 110 11V731Q110 738 112 740T120 742H147Q154 742 157 741T163 734L579
123Q584 117 587 117Q593 117 593 125V732Q593 742 602 742H636Z" />
<glyph unicode="O" glyph-name="O" horiz-adv-x="759" d="M235 -10T155 87T75 367Q75 552 156 652T381 752Q524 752 604 653T684 369Q684 186 604 88T380 -10Q235 -10 155 87ZM624 39T624 369Q624 537 563 620T381 703Q260 703 198 620T135 369Q135 39 382 39Q624
39 624 369Z" />
<glyph unicode="P" glyph-name="P" horiz-adv-x="678" d="M617 427T547 375T356 323H176Q167 323 167 314V10Q167 0 158 0H119Q110 0 110 9V731Q110 738 112 740T120 742H349Q473 742 545 691T617 533Q617 427 547 375ZM557 621T503 658T347 695H177Q167 695 167
686V381Q167 371 175 371H354Q451 371 504 411T557 536Q557 621 503 658Z" />
<glyph unicode="Q" glyph-name="Q" horiz-adv-x="760" d="M75 554T155 653T380 752Q524 752 604 654T684 369Q684 240 646 157T534 29Q529 25 529 20Q529 6 549 -14T601 -51T667 -73Q675 -74 675 -81V-108Q675 -117 671 -119T654 -122Q613 -122 567 -95T475 -5Q470
2 460 -1Q423 -10 380 -10Q237 -10 156 87T75 369Q75 554 155 653ZM135 39T380 39Q501 39 563 121T625 369Q625 534 563 618T380 703Q259 703 197 618T135 367Q135 39 380 39Z" />
<glyph unicode="R" glyph-name="R" horiz-adv-x="683" d="M606 13T606 10Q606 6 604 3T597 0H558Q553 0 550 2T545 10L406 341Q404 346 400 348T385 351H179Q167 351 167 340V12Q167 5 165 3T156 0H121Q115 0 113 2T110 10V731Q110 738 112 740T120 742H383Q494
742 554 695T615 556Q615 474 571 428T465 364Q459 363 461 356L605 15Q606 13 606 10ZM454 398T505 434T556 549Q556 695 381 695H179Q167 695 167 687V408Q167 398 175 398H349Q454 398 505 434Z" />
<glyph unicode="S" glyph-name="S" horiz-adv-x="623" d="M430 703T318 703Q236 703 188 665T140 556Q140 466 258 424L398 374Q485 343 523 297T561 185Q561 93 495 42T312 -10Q227 -10 165 20T59 114Q56 119 56 122Q56 128 65 134L82 146Q88 151 94 151Q98 151
103 146Q147 89 191 64T311 39Q402 39 453 73T504 181Q504 227 478 258T376 318L225 375Q149 403 117 450T84 553Q84 646 148 699T320 752Q452 752 541 655Q545 651 545 647Q545 644 541 640L514 617Q511 614 509 614Q506 614 500 622Q430 703 318 703Z" />
<glyph unicode="T" glyph-name="T" horiz-adv-x="628" d="M46 734Q46 742 54 742H574Q582 742 582 734V702Q582 697 580 696T573 694H363Q357 694 355 693T353 685V11Q353 5 351 3T343 0H306Q300 0 298 2T295 11V685Q295 691 293 692T285 694H55Q50 694 48 695T46
702V734Z" />
<glyph unicode="U" glyph-name="U" horiz-adv-x="704" d="M603 111T541 51T352 -10Q223 -10 162 53T100 249V730Q100 742 109 742H147Q153 742 155 740T158 731V230Q158 39 355 39Q455 39 504 87T554 233V732Q554 742 563 742H595Q603 742 603 732V234Q603 111 541 51Z" />
<glyph unicode="V" glyph-name="V" horiz-adv-x="694" d="M640 742T642 739T643 732L382 12Q380 5 376 3T365 0H325Q308 0 305 11L51 731L50 734Q50 742 60 742H94Q100 742 103 740T107 733L338 78Q341 68 346 68Q349 68 354 79L590 734Q593 742 602 742H635Q640
742 642 739Z" />
<glyph unicode="W" glyph-name="W" horiz-adv-x="1027" d="M971 742T973 739T974 731L767 12Q765 5 762 3T750 0H712Q696 0 692 11L516 640Q515 644 514 644T512 640L332 12Q330 5 326 3T314 0H275Q260 0 256 11L54 730L53 734Q53 742 64 742H97Q104 742 106 740T111
733L291 88Q294 78 297 78Q300 78 303 89L486 734Q490 742 501 742H533Q540 742 542 740T546 733L726 88Q729 78 732 78Q735 78 738 89L922 734Q923 742 935 742H966Q971 742 973 739Z" />
<glyph unicode="X" glyph-name="X" horiz-adv-x="668" d="M618 8T618 5Q618 0 609 0H564Q561 0 559 1T555 5L342 320Q337 328 333 328Q328 328 321 317L110 5Q108 0 100 0H58Q51 0 51 4Q51 7 54 13L293 369Q297 374 297 379Q297 384 292 391L62 732Q60 735 61
738T66 742H114Q123 742 125 737L325 438Q329 432 333 432Q338 432 342 439L542 737Q545 742 552 742H600Q607 742 603 734L372 392Q368 387 368 382Q368 380 371 375L614 13Q618 8 618 5Z" />
<glyph unicode="Y" glyph-name="Y" horiz-adv-x="647" d="M597 742T599 739T598 730L359 327Q356 322 356 317T355 304V14Q355 6 352 3T339 0H310Q298 0 298 12V295Q298 306 292 316L49 729Q47 732 47 736Q47 742 57 742H91Q98 742 101 740T109 732L313 384Q320
372 326 372Q330 372 337 382L540 732Q544 739 547 740T557 742H591Q597 742 599 739Z" />
<glyph unicode="Z" glyph-name="Z" horiz-adv-x="607" d="M57 0T55 1T53 8V25Q53 33 61 44L474 687Q478 694 470 694H73Q65 694 65 702V735Q65 742 71 742H546Q553 742 553 735V716Q553 711 551 707T547 702L129 56Q127 52 128 50T132 48H545Q552 48 552 42V8Q552
0 544 0H62Q57 0 55 1Z" />
<glyph unicode="[" glyph-name="bracketleft" horiz-adv-x="272" d="M102 742T111 742H250Q257 742 257 737V707Q257 701 250 701H162Q153 701 153 691V-117Q153 -121 154 -122T159 -124H248Q256 -124 256 -132V-156Q256 -161 255 -163T248 -165H113Q103 -165
103 -156L102 735Q102 742 111 742Z" />
<glyph unicode="\" glyph-name="backslash" horiz-adv-x="331" d="M267 -56T264 -47L16 731Q15 733 15 737Q15 742 22 742H54Q62 742 63 735L314 -50Q316 -56 309 -56H276Q267 -56 264 -47Z" />
<glyph unicode="]" glyph-name="bracketright" horiz-adv-x="272" d="M169 -156Q169 -165 159 -165H24Q19 -165 18 -163T16 -156V-132Q16 -124 24 -124H113Q117 -124 118 -123T119 -117V691Q119 701 110 701H22Q15 701 15 707V737Q15 742 22 742H161Q170 742 170
735L169 -156Z" />
<glyph unicode="^" glyph-name="asciicircum" horiz-adv-x="476" d="M242 453Q240 458 237 458T232 453L109 145Q106 138 98 138H64Q60 138 59 141T59 149L202 504Q209 521 218 530T237 540Q257 540 272 504L417 146L418 142Q418 136 410 136H377Q367 136 364
144L242 453Z" />
<glyph unicode="_" glyph-name="underscore" horiz-adv-x="505" d="M437 -95Q437 -105 425 -105L77 -106Q68 -106 68 -98V-67Q68 -59 74 -59L429 -58Q432 -58 434 -60T437 -65V-95Z" />
<glyph unicode="`" glyph-name="grave" horiz-adv-x="275" d="M23 750T25 751T31 751L261 657Q267 653 264 646L258 629Q257 624 254 623T246 623L19 699Q8 703 11 712L22 747Q23 750 25 751Z" />
<glyph unicode="a" glyph-name="a" horiz-adv-x="540" d="M321 -10T216 -10Q137 -10 92 29T46 135Q46 211 109 255T297 310L396 318Q413 320 413 333V363Q413 424 374 460T269 497Q173 497 107 408Q104 403 102 402T96 403L65 419Q59 423 65 430Q98 481 150 510T272
540Q360 540 411 494T462 368V11Q462 0 451 0H426Q416 0 416 11L414 68Q413 74 410 74T403 70Q321 -10 216 -10ZM413 280T399 278L315 271Q98 255 98 140Q98 90 133 62T227 34Q262 34 296 46T358 81Q384 102 398 125T413 171V263Q413 280 399 278Z" />
<glyph unicode="b" glyph-name="b" horiz-adv-x="594" d="M100 0Q93 0 91 3T88 14V731Q88 742 98 742H129Q134 742 136 740T138 730V479Q138 469 142 469Q146 469 151 474Q223 540 320 540Q428 540 482 464T537 267Q537 138 477 64T309 -10Q244 -10 204 15T144
67Q141 72 138 72Q134 72 134 64L131 14Q131 6 128 3T116 0H100ZM138 178Q138 139 161 106T223 53T302 33Q382 33 433 92T484 267Q484 374 439 435T309 497Q259 497 215 474T138 413V178Z" />
<glyph unicode="c" glyph-name="c" horiz-adv-x="538" d="M422 540T495 429Q498 424 498 422T494 418L463 403Q462 402 459 402Q456 402 451 407Q412 456 378 476T301 497Q243 497 199 468T130 387T106 265Q106 196 130 144T198 62T301 33Q351 33 390 57T463 132Q466
137 468 137T473 136L501 121Q506 118 503 110Q469 52 416 21T296 -10Q225 -10 170 24T85 120T54 263Q54 343 85 406T171 504T296 540Q422 540 495 429Z" />
<glyph unicode="d" glyph-name="d" horiz-adv-x="594" d="M458 0T458 12V61Q458 70 454 70Q451 70 446 65Q426 45 409 31T359 4T284 -10Q219 -10 167 20T85 110T55 256Q55 340 85 404T169 504T296 540Q344 540 377 525T441 486Q448 480 451 480Q456 480 456 493V731Q456
737 458 739T465 742H497Q506 742 506 732V13Q506 6 503 3T493 0H469Q458 0 458 12ZM418 460T381 478T301 497Q245 497 201 469T132 386T107 259Q107 184 132 133T200 58T294 33Q338 33 375 54T434 108T456 170V423Q418 460 381 478Z" />
<glyph unicode="e" glyph-name="e" horiz-adv-x="578" d="M106 184T132 137T203 62T301 34Q415 34 472 125Q478 133 483 128L511 112Q516 108 512 101Q441 -10 299 -10Q227 -10 172 24T85 119T54 261Q54 346 85 409T172 506T299 540Q406 540 468 470T531 273V267Q531
260 529 257T517 252H113Q106 252 106 238Q106 184 132 137ZM462 293Q472 293 475 296T479 307Q479 359 457 402T394 471T299 497Q239 497 195 467T129 390T107 293H462Z" />
<glyph unicode="f" glyph-name="f" horiz-adv-x="367" d="M342 530T342 523V496Q342 489 335 489H206Q199 489 199 481V12Q199 0 189 0H158Q153 0 151 2T149 11V482Q149 489 143 489H33Q26 489 26 496V523Q26 530 33 530H142Q149 530 149 538V617Q149 680 177
711T265 742H339Q347 742 347 734V709Q347 701 338 701H261Q226 701 213 682T199 623V537Q199 530 206 530H336Q342 530 342 523Z" />
<glyph unicode="g" glyph-name="g" horiz-adv-x="586" d="M549 532T553 529T557 518V500Q557 484 540 484Q520 483 509 481T485 471Q472 464 468 459T465 448Q466 445 472 433T481 404T485 369Q485 298 434 254T280 209Q203 209 169 196T135 161Q135 144 159 136T240
125L362 118Q520 109 520 -18Q520 -93 457 -134T277 -175Q160 -175 97 -137T33 -29Q33 44 125 94Q136 100 125 105Q85 122 85 157Q85 176 102 194T155 223Q160 224 160 228Q160 232 154 235Q112 258 93 290T73 369Q73 449 129 493T287 538Q336 538 371 527T432
493Q439 488 442 488Q445 488 451 492Q498 532 538 532Q549 532 553 529ZM359 250T398 280T437 371Q437 432 398 464T281 497Q205 497 164 464T122 371Q122 313 163 282T281 250Q359 250 398 280ZM186 81Q168 82 143 69T100 31T82 -23Q82 -76 135 -105T286 -134Q470
-134 470 -20Q470 22 445 44T360 70L186 81Z" />
<glyph unicode="h" glyph-name="h" horiz-adv-x="578" d="M88 0T88 10V732Q88 742 97 742H126Q131 742 133 740T135 733V461Q135 456 137 455T143 458Q206 504 245 522T335 540Q413 540 455 500T497 392V11Q497 0 486 0H457Q447 0 447 10V375Q447 496 328 496Q280
496 241 476T138 406V10Q138 0 127 0H98Q88 0 88 10Z" />
<glyph unicode="i" glyph-name="i" horiz-adv-x="226" d="M143 656Q143 640 129 640H95Q83 640 83 654V728Q83 742 96 742H130Q135 742 139 739T143 729V656ZM138 13Q138 5 136 3T125 0H100Q93 0 91 2T88 11V519Q88 526 90 528T98 530H128Q134 530 136 528T138 519V13Z" />
<glyph unicode="j" glyph-name="j" horiz-adv-x="226" d="M143 656Q143 640 129 640H95Q83 640 83 654V728Q83 742 96 742H130Q143 742 143 729V656ZM138 -112T113 -141T19 -170Q-6 -170 -22 -170T-42 -167T-46 -160V-134Q-46 -127 -40 -127L17 -125Q56 -124 72
-106T88 -41V519Q88 530 99 530H129Q134 530 136 528T138 519V-46Q138 -112 113 -141Z" />
<glyph unicode="k" glyph-name="k" horiz-adv-x="544" d="M514 9T514 5Q514 0 505 0H465Q457 0 452 8L277 293Q273 298 268 293L145 168Q138 161 138 151V13Q138 5 136 3T125 0H100Q93 0 91 2T88 11V731Q88 738 90 740T98 742H128Q134 742 136 740T138 731V241Q138
231 141 231Q143 231 148 236L424 520Q429 526 432 528T442 530H480Q489 530 489 524Q489 520 483 514L316 344Q312 338 315 331L511 13Q514 9 514 5Z" />
<glyph unicode="l" glyph-name="l" horiz-adv-x="226" d="M138 13Q138 5 136 3T125 0H100Q93 0 91 2T88 11V731Q88 738 90 740T98 742H128Q134 742 136 740T138 731V13Z" />
<glyph unicode="m" glyph-name="m" horiz-adv-x="899" d="M88 0T88 10V520Q88 530 97 530H126Q131 530 133 528T135 521V460Q135 455 137 454T143 457Q202 503 240 521T326 540Q384 540 420 515T468 453Q470 450 472 450Q475 450 483 456Q541 502 579 521T666
540Q739 540 778 500T818 392V11Q818 0 808 0H778Q768 0 768 10V375Q768 496 659 496Q613 496 575 475T494 419Q485 411 482 405T478 389V11Q478 0 468 0H438Q428 0 428 10V375Q428 496 319 496Q273 496 235 476T138 406V10Q138 0 127 0H98Q88 0 88 10Z" />
<glyph unicode="n" glyph-name="n" horiz-adv-x="578" d="M88 0T88 10V520Q88 530 97 530H126Q131 530 133 528T135 521V460Q135 455 137 454T143 457Q206 503 245 521T335 540Q413 540 455 500T497 392V11Q497 0 486 0H457Q447 0 447 10V375Q447 496 328 496Q280
496 241 476T138 406V10Q138 0 127 0H98Q88 0 88 10Z" />
<glyph unicode="o" glyph-name="o" horiz-adv-x="598" d="M226 -10T171 24T85 120T54 262Q54 343 85 406T172 504T300 540Q372 540 427 505T513 407T544 264Q544 184 514 122T428 25T299 -10Q226 -10 171 24ZM390 34T441 96T492 264Q492 370 440 433T300 497Q241
497 197 468T130 386T106 264Q106 159 158 97T301 34Q390 34 441 96Z" />
<glyph unicode="p" glyph-name="p" horiz-adv-x="592" d="M136 530T136 518V469Q136 460 140 460Q143 460 163 482T220 522T310 540Q375 540 426 510T506 421T536 275Q536 190 507 126T424 26T298 -10Q252 -10 215 4T152 40Q147 45 142 45Q138 45 138 33V-154Q138
-160 136 -162T128 -165H97Q88 -165 88 -155V517Q88 525 91 527T101 530H125Q136 530 136 518ZM175 71T212 52T292 33Q348 33 391 61T459 144T484 271Q484 346 459 397T392 472T300 497Q254 497 217 477T159 425T138 364V107Q175 71 212 52Z" />
<glyph unicode="q" glyph-name="q" horiz-adv-x="594" d="M495 530Q501 530 504 527T507 516V-154Q507 -165 497 -165H465Q461 -165 459 -163T457 -153V34Q457 47 453 47Q450 47 442 41Q413 19 373 5T287 -10Q216 -10 164 24T84 122T56 268Q56 392 117 466T286
540Q335 540 368 528T413 507T451 472Q455 468 457 468Q461 468 462 475L466 516Q468 525 470 527T482 530H495ZM457 352Q457 389 436 422T377 476T294 497Q242 497 200 472T133 395T108 269Q108 196 132 143T198 61T296 33Q341 33 384 53T457 107V352Z" />
<glyph unicode="r" glyph-name="r" horiz-adv-x="362" d="M88 0T88 10V520Q88 530 97 530H126Q135 530 135 521V454Q135 449 137 448T143 451Q186 498 223 519T301 540Q320 540 328 538T336 529V496Q336 490 331 490L297 491Q265 491 228 472T164 422T138 361V10Q138
0 127 0H98Q88 0 88 10Z" />
<glyph unicode="s" glyph-name="s" horiz-adv-x="504" d="M379 458T339 477T247 497Q184 497 144 470T104 397Q104 371 124 349T197 311L331 268Q391 250 420 217T450 139Q450 96 423 62T350 9T245 -10Q171 -10 113 20T29 101Q26 108 31 112L58 128Q60 130 63
130T68 127Q94 82 139 58T245 33Q311 33 355 61T399 133Q399 166 373 189T286 230L183 261Q112 282 83 313T54 388Q54 456 108 498T248 540Q311 540 361 516T441 448Q444 442 440 438L412 422Q410 420 407 420T402 423Q379 458 339 477Z" />
<glyph unicode="t" glyph-name="t" horiz-adv-x="365" d="M188 489Q180 489 180 481V128Q180 77 195 59T243 41H320Q328 41 328 34V13Q328 5 321 4Q301 0 239 0Q179 0 155 27T130 120V481Q130 489 123 489H33Q26 489 26 496V523Q26 530 33 530H124Q131 530 131
537L140 699Q140 705 142 707T149 710H171Q181 710 181 698V537Q181 530 188 530H324Q331 530 331 523V496Q331 492 330 491T324 489H188Z" />
<glyph unicode="u" glyph-name="u" horiz-adv-x="573" d="M295 34T340 59T435 135V520Q435 530 446 530H475Q485 530 485 520V10Q485 0 476 0H447Q442 0 440 2T438 9V72Q438 77 436 78T430 75Q371 27 328 9T243 -10Q173 -10 127 31T80 138V519Q80 530 90 530H120Q130
530 130 520V160Q130 103 161 69T248 34Q295 34 340 59Z" />
<glyph unicode="v" glyph-name="v" horiz-adv-x="534" d="M499 530T501 527T502 520L297 12Q292 0 277 0H258Q243 0 237 11L32 519L31 522Q31 530 41 530H72Q82 530 85 521L262 81Q265 71 269 71Q273 71 278 82L455 522Q458 530 467 530H494Q499 530 501 527Z" />
<glyph unicode="w" glyph-name="w" horiz-adv-x="786" d="M747 530T749 527T750 520L602 11Q599 0 585 0H553Q537 0 534 11L399 433Q396 441 393 441Q391 441 388 433L262 11Q259 0 246 0H211Q195 0 192 11L36 519L35 523Q35 530 44 530H76Q86 530 89 521L223
81Q226 71 230 71Q234 71 237 82L371 523Q373 530 382 530H410Q420 530 423 521L564 81Q567 71 570 71Q574 71 577 82L706 522Q709 530 720 530H742Q747 530 749 527Z" />
<glyph unicode="x" glyph-name="x" horiz-adv-x="522" d="M490 9T490 4Q490 0 483 0H441Q430 0 427 6L267 223Q264 229 260 229Q257 229 252 223L85 6Q82 0 71 0H41Q31 0 31 6Q31 11 36 16L227 258Q230 263 230 267Q230 271 227 277L47 519Q45 523 45 524Q45 526
47 528T53 530H92Q96 530 99 529T105 524L260 316Q265 311 268 311Q272 311 275 316L427 524Q429 528 431 529T440 530H473Q478 530 479 527T478 521L298 283Q295 279 295 275Q295 269 299 265L485 14Q490 9 490 4Z" />
<glyph unicode="y" glyph-name="y" horiz-adv-x="513" d="M70 -165T57 -164T44 -154V-134Q44 -127 49 -125T73 -122H134Q159 -122 180 -102T213 -52T226 7Q226 26 221 37L32 517Q31 519 31 522Q31 530 41 530H71Q81 530 84 521L252 90Q255 81 260 81Q266 81 270
94L435 522Q438 530 446 530H474Q478 530 480 527T481 520L254 -70Q234 -123 199 -144T108 -165Q70 -165 57 -164Z" />
<glyph unicode="z" glyph-name="z" horiz-adv-x="463" d="M38 0T37 1T35 8V33Q35 42 44 54L358 481Q361 485 360 487T355 490H65Q60 490 59 491T57 498V522Q57 530 64 530H414Q420 530 420 523V497Q420 485 412 474L97 48Q91 41 100 41H419Q426 41 426 34V9Q426
0 417 0H42Q38 0 37 1Z" />
<glyph unicode="{" glyph-name="braceleft" horiz-adv-x="276" d="M116 692T145 717T229 742H253Q261 742 261 737V707Q261 701 253 701H231Q196 701 182 689T167 648V417Q167 360 141 328T72 292Q66 291 66 289T72 285Q114 282 140 252T167 164V-69Q167 -98 181
-111T232 -124H252Q261 -124 261 -132V-156Q261 -161 259 -163T252 -165H230Q173 -165 145 -139T116 -70V162Q116 187 103 211T65 252T5 268Q0 268 0 275V303Q0 310 5 310Q59 311 87 341T116 419V649Q116 692 145 717Z" />
<glyph unicode="|" glyph-name="bar" horiz-adv-x="266" d="M119 -165Q111 -165 111 -158L110 839Q110 847 117 847H147Q156 847 156 836V-156Q156 -165 148 -165H119Z" />
<glyph unicode="}" glyph-name="braceright" horiz-adv-x="276" d="M160 419Q160 372 188 342T271 310Q276 310 276 303V275Q276 268 271 268Q236 268 211 252T173 212T160 162V-70Q160 -113 132 -139T46 -165H24Q19 -165 17 -163T15 -156V-132Q15 -124 24 -124H44Q81
-124 95 -111T109 -69V164Q109 222 135 252T204 285Q211 286 211 288T204 292Q162 296 136 328T109 417V648Q109 676 95 688T45 701H23Q15 701 15 707V737Q15 742 23 742H47Q102 742 131 717T160 649V419Z" />
<glyph unicode="~" glyph-name="asciitilde" horiz-adv-x="548" d="M466 356T438 344T371 331Q343 331 321 337T271 355Q243 367 225 372T185 377Q126 377 84 337Q80 333 78 333T74 339L65 361Q62 369 67 371Q94 394 119 406T181 419Q205 419 225 414T278 396Q305
385 326 379T371 373Q405 373 425 383T461 410Q464 413 467 413Q470 413 473 407L483 384Q484 383 484 380Q484 376 480 372Q466 356 438 344Z" />
<glyph unicode="&#xa0;" glyph-name="uni00A0" horiz-adv-x="215" />
<glyph unicode="&#xa1;" glyph-name="exclamdown" horiz-adv-x="235" d="M153 444T145 444H90Q82 444 82 453V519Q82 525 84 527T93 530H139Q147 530 150 528T153 518V452Q153 444 145 444ZM150 -165T143 -165H92Q86 -165 86 -157L99 367Q99 375 108 375H125Q136
375 137 365L150 -158Q150 -165 143 -165Z" />
<glyph unicode="&#xa2;" glyph-name="cent" horiz-adv-x="558" d="M506 229T503 221Q470 166 421 135T309 101V14Q309 0 295 0H276Q269 0 266 3T263 13V103Q200 111 153 147T80 241T54 374Q54 448 80 507T154 603T263 649V732Q263 742 273 742H300Q309 742 309
733V651Q426 646 495 540Q498 535 498 533T494 529L463 514Q462 513 459 513Q456 513 451 518Q412 567 378 587T301 608Q243 608 199 579T130 498T106 376Q106 307 130 255T198 173T301 144Q351 144 390 168T463 243Q466 248 468 248T473 247L501 232Q506 229 503
221Z" />
<glyph unicode="&#xa3;" glyph-name="sterling" horiz-adv-x="601" d="M12 0T12 9V39Q12 47 20 47H53Q95 46 122 89T150 215Q150 268 138 352Q137 357 132 357H40Q35 357 35 364V393Q35 399 40 399H122Q130 399 129 406L112 478Q103 516 103 549Q103 610 130 656T203
727T304 752Q365 752 418 723T487 655L488 653Q488 650 485 649T480 646L450 634Q448 633 445 633Q441 633 438 637Q402 702 308 702Q243 702 200 665T156 565Q156 527 164 482T183 406Q185 400 189 400H357Q363 400 363 395V364Q363 358 357 358H200Q192 358 192
351Q204 294 204 233Q203 163 187 120T151 55Q144 48 153 48H356Q410 48 445 65T498 124Q500 127 503 128T509 129L537 119Q545 116 543 110Q521 55 473 28T357 0H21Q12 0 12 9Z" />
<glyph unicode="&#xa4;" glyph-name="currency" horiz-adv-x="518" d="M203 199T158 230Q151 235 146 229L105 187Q101 183 96 183Q91 183 86 187L72 202Q68 206 68 211Q68 215 72 219L113 260Q116 265 116 268Q116 273 113 277Q85 319 85 373Q85 428 116 472Q120
480 115 485L74 526Q70 531 70 536Q70 541 74 545L88 559Q93 564 97 564Q100 564 105 559L147 517Q152 512 159 516Q203 546 258 546Q313 546 356 515Q364 511 369 516L415 562Q422 569 428 562L448 542Q453 536 448 530L401 483Q396 478 400 472Q431 426 431 373Q431
318 400 276Q397 267 401 263L448 217Q454 210 448 204L428 184Q422 178 417 184L371 229Q368 232 365 233T359 232Q313 199 258 199Q203 199 158 230ZM295 248T323 265T368 311T385 373Q385 406 369 434T324 480T260 498Q225 498 197 481T152 435T135 373Q135
340 151 312T196 266T260 248Q295 248 323 265Z" />
<glyph unicode="&#xa5;" glyph-name="yen" horiz-adv-x="585" d="M565 742T567 739T566 730L332 339H476Q484 339 484 332V306Q484 297 472 297H324V197H476Q484 197 484 190V164Q484 155 472 155H324V14Q324 6 321 3T308 0H280Q267 0 267 12V154H117Q112 154
110 155T108 162V188Q108 196 114 196H267V296H117Q112 296 110 297T108 304V330Q108 338 114 338H251L20 729Q18 733 18 736Q18 742 29 742H67Q74 742 77 740T84 732L287 383Q288 382 290 378T296 373Q300 373 304 382L512 732Q516 739 518 740T529 742H559Q565
742 567 739Z" />
<glyph unicode="&#xa6;" glyph-name="brokenbar" horiz-adv-x="266" d="M119 442Q111 442 111 449L110 839Q110 847 117 847H147Q156 847 156 836V450Q156 442 148 442H119ZM119 -165Q111 -165 111 -158L110 232Q110 240 117 240H147Q156 240 156 230V-156Q156
-165 148 -165H119Z" />
<glyph unicode="&#xa7;" glyph-name="section" horiz-adv-x="480" d="M386 169T411 138T436 66Q436 28 413 -3T347 -51T251 -69Q187 -69 130 -39T46 42Q44 45 44 47T46 51L74 68Q81 72 84 66Q110 25 154 1T253 -24Q311 -24 347 -1T384 64Q384 96 359 123T270 175L173
212Q112 236 84 270T56 351Q56 397 86 431T165 483Q102 515 79 547T56 620Q56 657 79 687T143 735T237 752Q295 752 342 726T416 660Q421 653 416 650L391 635Q387 633 384 633T378 636Q352 669 318 688T242 707Q179 707 144 685T108 624Q108 595 129 570T206 523L295
486Q370 455 403 416T436 326Q436 278 409 248T337 197Q386 169 411 138ZM301 224T327 236T368 270T384 318Q384 358 364 384T288 434L225 459Q178 454 143 424T107 356Q107 323 127 301T204 255L273 226Q301 224 327 236Z" />
<glyph unicode="&#xa8;" glyph-name="dieresis" horiz-adv-x="197" d="M68 654Q68 647 65 644T55 641H22Q15 641 13 643T10 652V731Q10 738 12 740T19 742H58Q63 742 65 740T68 732V654ZM187 654Q187 647 184 644T174 641H141Q134 641 132 643T129 652V731Q129
738 131 740T139 742H177Q182 742 184 740T187 732V654Z" />
<glyph unicode="&#xa9;" glyph-name="copyright" horiz-adv-x="830" d="M311 -10T224 41T85 179T34 371Q34 474 85 561T223 700T415 752Q518 752 605 701T744 562T796 371Q796 267 745 180T606 41T415 -10Q311 -10 224 41ZM504 38T580 79T701 197T747 371Q747
468 702 544T580 662T415 705Q325 705 249 663T128 545T83 371Q83 272 128 197T249 80T415 38Q504 38 580 79ZM468 590T506 565T575 496Q578 492 574 488L541 472H540Q536 472 533 477Q487 547 421 547Q358 547 319 500T279 375Q279 297 318 250T421 202Q460 202
492 223T544 280Q546 285 554 281L577 269Q582 266 579 260Q551 213 510 186T417 159Q361 159 318 186T252 261T228 373Q228 436 252 485T319 562T417 590Q468 590 506 565Z" />
<glyph unicode="&#xaa;" glyph-name="ordfeminine" horiz-adv-x="405" d="M251 749T284 719T317 635V472Q317 455 318 446T326 420L327 417Q327 411 319 411H291Q282 411 281 418L276 454Q275 458 274 458T267 455Q240 429 215 417T157 405Q105 405 76 429T46
497Q46 591 207 606L265 612Q276 614 276 621V638Q276 713 187 713Q156 713 134 702T94 664Q91 660 85 662L58 672Q57 673 57 675T58 680Q75 713 109 731T191 749Q251 749 284 719ZM90 472T111 456T169 440Q213 440 247 471Q276 497 276 521V569Q276 575 274 577T265
578L218 574Q90 564 90 498Q90 472 111 456Z" />
<glyph unicode="&#xab;" glyph-name="guillemotleft" horiz-adv-x="427" d="M206 82L207 80Q207 77 199 77H183Q176 77 174 81L39 249Q34 257 38 264L175 442Q178 446 183 446H201Q204 446 206 444T206 438L96 263Q92 256 96 251L206 82ZM376 82L377 80Q377 77
368 77H352Q346 77 344 81L209 249Q203 256 208 264L345 442Q348 446 352 446H370Q374 446 376 444T376 438L265 263Q261 256 265 251L376 82Z" />
<glyph unicode="&#xac;" glyph-name="logicalnot" horiz-adv-x="545" d="M477 395T477 388V219Q477 209 468 209H440Q432 209 432 216L431 351L77 350Q72 350 70 351T68 358V386Q68 394 74 394L469 395Q477 395 477 388Z" />
<glyph unicode="&#xad;" glyph-name="uni00AD" horiz-adv-x="381" d="M313 252Q313 243 301 243L77 242Q72 242 70 243T68 250V280Q68 288 74 288L305 289Q313 289 313 282V252Z" />
<glyph unicode="&#xae;" glyph-name="registered" horiz-adv-x="545" d="M208 275T153 307T66 393T34 513Q34 578 66 633T153 720T273 752Q337 752 392 720T479 633T511 513Q511 448 479 394T393 307T273 275Q208 275 153 307ZM331 312T376 336T447 406T472 513Q472
573 447 619T377 690T273 715Q214 715 169 690T98 619T73 513Q73 421 128 367T273 312Q331 312 376 336ZM358 393T353 393H326Q324 393 322 396L282 503Q282 504 282 505T274 506H221Q217 506 217 502V397Q217 395 216 394T213 393H188Q185 393 185 396V626Q185
630 187 630H288Q324 630 343 615T363 572Q363 525 315 510Q314 510 314 509T314 507L356 398Q358 393 353 393ZM330 535T330 568Q330 601 278 601H221Q220 601 219 602T217 598V539Q217 535 220 535H281Q330 535 330 568Z" />
<glyph unicode="&#xaf;" glyph-name="overscore" horiz-adv-x="282" d="M272 689Q272 684 270 682T261 680H18Q13 680 12 682T10 689V715Q10 723 16 723H266Q272 723 272 717V689Z" />
<glyph unicode="&#xb0;" glyph-name="degree" horiz-adv-x="464" d="M384 640T341 597T232 554Q166 554 123 596T80 706Q80 773 123 815T232 858Q298 858 341 815T384 706Q384 640 341 597ZM337 754T308 784T230 815Q182 815 153 785T124 707Q124 656 152 625T231
594Q279 594 308 624T337 705Q337 754 308 784Z" />
<glyph unicode="&#xb1;" glyph-name="plusminus" horiz-adv-x="545" d="M472 467T474 465T477 460V432Q477 422 465 422H294V248Q294 240 287 240H260Q255 240 253 242T251 251V421H77Q68 421 68 430V458Q68 466 74 466H250V639Q250 644 251 646T258 648H286Q294
648 294 643V467H469Q472 467 474 465ZM477 124T477 117V89Q477 80 465 80L77 79Q72 79 70 80T68 87V115Q68 123 74 123L469 124Q477 124 477 117Z" />
<glyph unicode="&#xb2;" glyph-name="uni00B2" horiz-adv-x="452" d="M206 576Q257 627 278 662T300 734Q300 778 269 802T196 826Q164 826 133 811T81 766Q77 760 70 765L57 775Q53 778 53 780T56 786Q81 822 120 839T200 857Q257 857 296 826T336 731Q336 690
313 653T229 556L97 424Q94 420 95 418T101 416H335Q341 416 341 410V390Q341 384 335 384H61Q53 384 53 392V408Q53 415 55 419T63 430L206 576Z" />
<glyph unicode="&#xb3;" glyph-name="uni00B3" horiz-adv-x="467" d="M76 793T80 797Q110 828 143 842T217 857Q283 857 324 824T365 741Q365 705 343 678T283 636Q276 635 276 632Q276 630 283 629Q324 618 352 587T380 510Q380 453 335 416T208 378Q163 378
128 392T60 439Q58 441 58 442T61 446L77 461Q81 465 85 461Q112 433 142 421T212 409Q273 409 308 436T344 508Q344 558 304 586T210 614H153Q147 614 147 619V639Q147 644 153 644H199Q253 644 291 671T329 740Q329 776 298 801T218 826Q152 826 101 777Q98 774
96 774T91 777L80 788Q76 793 80 797Z" />
<glyph unicode="&#xb4;" glyph-name="acute" horiz-adv-x="275" d="M264 712L265 708Q265 702 256 699L29 623Q27 622 24 622Q18 622 17 629L11 646Q10 647 10 650Q10 655 14 657L244 751Q247 752 249 751T253 747L264 712Z" />
<glyph unicode="&#xb6;" glyph-name="paragraph" horiz-adv-x="540" d="M403 705Q399 705 399 700V-79Q399 -85 394 -85H365Q359 -85 359 -79V701Q359 705 354 705H319Q314 705 314 700V-79Q314 -85 308 -85H280Q274 -85 274 -79V301Q274 304 270 304Q203 304
154 333T80 411T54 515Q54 573 80 625T159 709T286 742H454Q459 742 459 737V709Q459 707 458 706T454 705H403Z" />
<glyph unicode="&#xb7;" glyph-name="middot" horiz-adv-x="179" d="M133 343Q133 336 130 334T119 331H56Q49 331 47 333T45 342V406Q45 416 53 416H126Q133 416 133 408V343Z" />
<glyph unicode="&#xb8;" glyph-name="cedilla" horiz-adv-x="202" d="M192 -166T163 -185T90 -205Q46 -205 13 -184Q9 -182 10 -177L20 -156Q22 -152 27 -155Q39 -164 51 -168T84 -173Q144 -173 144 -131Q144 -108 125 -97T66 -84Q59 -84 61 -79L97 5H134L111
-54Q110 -58 114 -58Q156 -61 174 -81T192 -130Q192 -166 163 -185Z" />
<glyph unicode="&#xb9;" glyph-name="uni00B9" horiz-adv-x="367" d="M256 411T256 407V384Q256 380 251 380H45Q41 380 41 384V407Q41 411 45 411H131Q136 411 136 414V800Q136 805 131 804L46 770Q40 769 40 775V793Q40 796 41 797T44 799L132 843Q140 847 147
847H166Q171 847 171 840V415Q171 411 175 411H251Q256 411 256 407Z" />
<glyph unicode="&#xba;" glyph-name="ordmasculine" horiz-adv-x="417" d="M280 751T321 704T363 577Q363 501 322 454T208 407Q135 407 95 454T54 577Q54 655 96 703T208 751Q280 751 321 704ZM156 713T128 677T100 580Q100 516 128 480T208 443Q261 443 289
479T317 580Q317 641 289 677T208 713Q156 713 128 677Z" />
<glyph unicode="&#xbb;" glyph-name="guillemotright" horiz-adv-x="426" d="M165 257T161 263L50 438Q49 439 49 441Q49 446 56 446H73Q78 446 81 442L218 264Q220 260 220 257Q220 254 217 249L82 81Q80 77 73 77H58Q48 77 50 82L161 251Q165 257 161 263ZM335
257T330 263L220 438Q218 441 220 443T225 446H243Q247 446 251 442L388 264Q391 261 391 257Q391 253 387 249L252 81Q248 77 243 77H227Q218 77 220 82L330 251Q335 257 330 263Z" />
<glyph unicode="&#xbc;" glyph-name="onequarter" horiz-adv-x="867" d="M222 307T222 303V280Q222 276 217 276H11Q7 276 7 280V303Q7 307 11 307H97Q102 307 102 310V696Q102 701 97 700L12 666Q6 665 6 671V689Q6 692 7 693T10 695L98 739Q106 743 113 743H132Q137
743 137 736V311Q137 307 141 307H217Q222 307 222 303ZM198 4Q195 -1 192 -2T182 -4H164Q155 -4 155 2Q155 6 158 10L646 745Q650 750 659 750H682Q692 750 687 741L198 4ZM734 467T740 467H765Q771 467 771 460V169Q771 163 776 163H839Q845 163 845 159V139Q845
133 839 133H776Q771 133 771 126V6Q771 0 764 0H741Q735 0 735 6V128Q735 133 730 133H519Q512 133 512 139V162Q512 169 518 177L730 463Q734 467 740 467ZM727 163Q729 163 731 164T733 167V403Q733 411 730 411Q729 411 724 406L550 171Q545 163 555 163H727Z"
/>
<glyph unicode="&#xbd;" glyph-name="onehalf" horiz-adv-x="929" d="M222 307T222 303V280Q222 276 217 276H11Q7 276 7 280V303Q7 307 11 307H97Q102 307 102 310V696Q102 701 97 700L12 666Q6 665 6 671V689Q6 692 7 693T10 695L98 739Q106 743 113 743H132Q137
743 137 736V311Q137 307 141 307H217Q222 307 222 303ZM249 4Q246 -1 243 -2T233 -4H215Q206 -4 206 2Q206 6 209 10L697 745Q701 750 710 750H733Q743 750 738 741L249 4ZM742 192Q793 243 814 278T836 350Q836 394 805 418T732 442Q700 442 669 427T617 382Q613
376 606 381L593 391Q589 394 589 396T592 402Q617 438 656 455T736 473Q793 473 832 442T872 347Q872 306 849 269T765 172L633 40Q630 36 631 34T637 32H871Q877 32 877 26V6Q877 0 871 0H597Q589 0 589 8V24Q589 31 591 35T599 46L742 192Z" />
<glyph unicode="&#xbe;" glyph-name="threequarters" horiz-adv-x="893" d="M42 688T46 692Q76 723 109 737T183 752Q249 752 290 719T331 636Q331 600 309 573T249 531Q242 530 242 527Q242 525 249 524Q290 513 318 482T346 405Q346 348 301 311T174 273Q129
273 94 287T26 334Q24 336 24 337T27 341L43 356Q47 360 51 356Q78 328 108 316T178 304Q239 304 274 331T310 403Q310 453 270 481T176 509H119Q113 509 113 514V534Q113 539 119 539H165Q219 539 257 566T295 635Q295 671 264 696T184 721Q118 721 67 672Q64
669 62 669T57 672L46 683Q42 688 46 692ZM298 4Q295 -1 292 -2T282 -4H264Q255 -4 255 2Q255 6 258 10L746 745Q750 750 759 750H782Q792 750 787 741L298 4ZM760 467T766 467H791Q797 467 797 460V169Q797 163 802 163H865Q871 163 871 159V139Q871 133 865 133H802Q797
133 797 126V6Q797 0 790 0H767Q761 0 761 6V128Q761 133 756 133H545Q538 133 538 139V162Q538 169 544 177L756 463Q760 467 766 467ZM753 163Q755 163 757 164T759 167V403Q759 411 756 411Q755 411 750 406L576 171Q571 163 581 163H753Z" />
<glyph unicode="&#xbf;" glyph-name="questiondown" horiz-adv-x="508" d="M228 518Q228 525 231 527T243 530H289Q300 530 300 519V453Q300 444 292 444H236Q228 444 228 452V518ZM470 -41T471 -44T470 -49Q438 -107 377 -141T243 -175Q145 -175 88 -126T30 6Q30
44 43 73T77 124T130 174Q166 204 187 228T224 285T239 364Q239 368 241 370T247 373H279Q288 373 288 363Q288 312 272 275T234 212T174 154Q129 114 107 83T85 7Q85 -54 128 -90T244 -127Q299 -127 352 -98T422 -29Q423 -26 425 -25T431 -25L467 -40Q470 -41
471 -44Z" />
<glyph unicode="&#xc0;" glyph-name="Agrave" horiz-adv-x="706" d="M48 0T51 11L315 730Q317 737 321 739T332 742H375Q391 742 394 731L655 12L656 8Q656 0 647 0H612Q601 0 598 9L520 225Q517 232 510 232H194Q187 232 184 225L104 8Q103 0 92 0H59Q48 0 51
11ZM490 280Q501 280 498 291L360 667Q357 677 353 677Q350 677 345 666L205 289Q204 287 204 284Q204 280 211 280H490ZM222 962T224 963T230 963L460 869Q466 865 463 858L457 841Q456 836 453 835T445 835L218 911Q207 915 210 924L221 959Q222 962 224 963Z"
/>
<glyph unicode="&#xc1;" glyph-name="Aacute" horiz-adv-x="706" d="M48 0T51 11L315 730Q317 737 321 739T332 742H375Q391 742 394 731L655 12L656 8Q656 0 647 0H612Q601 0 598 9L520 225Q517 232 510 232H194Q187 232 184 225L104 8Q103 0 92 0H59Q48 0 51
11ZM490 280Q501 280 498 291L360 667Q357 677 353 677Q350 677 345 666L205 289Q204 287 204 284Q204 280 211 280H490ZM479 924L480 920Q480 914 471 911L244 835Q242 834 239 834Q233 834 232 841L226 858Q225 859 225 862Q225 867 229 869L459 963Q462 964
464 963T468 959L479 924Z" />
<glyph unicode="&#xc2;" glyph-name="Acircumflex" horiz-adv-x="706" d="M48 0T51 11L315 730Q317 737 321 739T332 742H375Q391 742 394 731L655 12L656 8Q656 0 647 0H612Q601 0 598 9L520 225Q517 232 510 232H194Q187 232 184 225L104 8Q103 0 92 0H59Q48
0 51 11ZM490 280Q501 280 498 291L360 667Q357 677 353 677Q350 677 345 666L205 289Q204 287 204 284Q204 280 211 280H490ZM363 908Q355 914 353 914Q350 914 343 908L282 859Q278 856 275 855T266 853H225Q220 853 219 856T223 863L323 945Q333 955 344 955H367Q374
955 378 951T384 946L482 863Q488 858 488 856T481 853H436Q428 853 421 859L363 908Z" />
<glyph unicode="&#xc3;" glyph-name="Atilde" horiz-adv-x="706" d="M48 0T51 11L315 730Q317 737 321 739T332 742H375Q391 742 394 731L655 12L656 8Q656 0 647 0H612Q601 0 598 9L520 225Q517 232 510 232H194Q187 232 184 225L104 8Q103 0 92 0H59Q48 0 51
11ZM490 280Q501 280 498 291L360 667Q357 677 353 677Q350 677 345 666L205 289Q204 287 204 284Q204 280 211 280H490ZM452 881T412 881Q394 881 380 884T347 894Q318 905 295 905Q278 905 268 901T250 892T238 885Q234 883 232 883Q229 883 226 889L219 908Q218
911 218 913T221 917Q239 930 254 937T291 944Q316 944 353 931Q391 919 413 919Q429 919 439 922T465 935Q470 938 472 938Q475 938 478 932L487 911Q488 910 488 908Q488 904 481 901Q452 881 412 881Z" />
<glyph unicode="&#xc4;" glyph-name="Adieresis" horiz-adv-x="706" d="M48 0T51 11L315 730Q317 737 321 739T332 742H375Q391 742 394 731L655 12L656 8Q656 0 647 0H612Q601 0 598 9L520 225Q517 232 510 232H194Q187 232 184 225L104 8Q103 0 92 0H59Q48 0
51 11ZM490 280Q501 280 498 291L360 667Q357 677 353 677Q350 677 345 666L205 289Q204 287 204 284Q204 280 211 280H490ZM322 866Q322 859 319 856T309 853H276Q269 853 267 855T264 864V943Q264 950 266 952T273 954H312Q317 954 319 952T322 944V866ZM441
866Q441 859 438 856T428 853H395Q388 853 386 855T383 864V943Q383 950 385 952T393 954H431Q436 954 438 952T441 944V866Z" />
<glyph unicode="&#xc5;" glyph-name="Aring" horiz-adv-x="706" d="M48 0T51 11L315 730Q317 737 321 739T332 742H375Q391 742 394 731L655 12L656 8Q656 0 647 0H612Q601 0 598 9L520 225Q517 232 510 232H194Q187 232 184 225L104 8Q103 0 92 0H59Q48 0 51
11ZM490 280Q501 280 498 291L360 667Q357 677 353 677Q350 677 345 666L205 289Q204 287 204 284Q204 280 211 280H490ZM454 822T425 793T353 764Q311 764 282 793T252 867Q252 907 282 935T353 964Q396 964 425 935T454 865Q454 822 425 793ZM409 889T393 905T352
922Q328 922 311 906T294 864Q294 841 311 823T352 805Q376 805 392 822T409 864Q409 889 393 905Z" />
<glyph unicode="&#xc6;" glyph-name="AE" horiz-adv-x="974" d="M920 48T921 47T923 40V8Q923 0 915 0H507Q501 0 499 2T497 11V227Q497 232 491 232H241Q232 232 228 225L104 8Q100 0 91 0H58Q53 0 52 3T53 11L462 730Q465 737 469 739T481 742H901Q909 742 909
734V703Q909 694 900 694H564Q558 694 556 693T554 685V407Q554 402 556 401T564 399H827Q835 399 835 391V359Q835 354 833 353T826 351H564Q558 351 556 350T554 342V57Q554 51 556 50T563 48H915Q920 48 921 47ZM497 280T497 290V669Q497 679 492 679Q487 679
480 668L260 289Q257 284 257 282T263 280H488Q497 280 497 290Z" />
<glyph unicode="&#xc7;" glyph-name="Ccedilla" horiz-adv-x="698" d="M643 181T642 174Q617 96 550 45T394 -10L377 -54Q376 -58 380 -58Q422 -61 440 -81T458 -130Q458 -166 429 -185T356 -205Q312 -205 279 -184Q275 -182 276 -177L286 -156Q288 -152 293 -155Q305
-164 317 -168T350 -173Q410 -173 410 -131Q410 -108 391 -97T332 -84Q325 -84 327 -79L357 -9Q223 -1 149 98T75 369Q75 489 111 575T214 706T376 752Q437 752 494 725T590 652T634 554V550Q634 547 633 546T628 545L583 541H581Q577 541 576 548Q559 618 506
660T378 703Q259 703 197 618T135 369Q135 209 198 125T385 40Q462 40 512 76T592 191Q593 195 599 194L639 183Q643 181 642 174Z" />
<glyph unicode="&#xc8;" glyph-name="Egrave" horiz-adv-x="616" d="M110 738T112 740T120 742H543Q550 742 550 734V703Q550 698 548 696T541 694H177Q171 694 169 693T167 685V407Q167 402 169 401T177 399H459Q467 399 467 391V359Q467 354 465 353T458 351H177Q171
351 169 350T167 342V57Q167 51 169 50T177 48H556Q561 48 563 47T565 40V8Q565 0 557 0H120Q114 0 112 2T110 11V731Q110 738 112 740ZM213 962T215 963T221 963L451 869Q457 865 454 858L448 841Q447 836 444 835T436 835L209 911Q198 915 201 924L212 959Q213
962 215 963Z" />
<glyph unicode="&#xc9;" glyph-name="Eacute" horiz-adv-x="616" d="M110 738T112 740T120 742H543Q550 742 550 734V703Q550 698 548 696T541 694H177Q171 694 169 693T167 685V407Q167 402 169 401T177 399H459Q467 399 467 391V359Q467 354 465 353T458 351H177Q171
351 169 350T167 342V57Q167 51 169 50T177 48H556Q561 48 563 47T565 40V8Q565 0 557 0H120Q114 0 112 2T110 11V731Q110 738 112 740ZM470 924L471 920Q471 914 462 911L235 835Q233 834 230 834Q224 834 223 841L217 858Q216 859 216 862Q216 867 220 869L450
963Q453 964 455 963T459 959L470 924Z" />
<glyph unicode="&#xca;" glyph-name="Ecircumflex" horiz-adv-x="616" d="M110 738T112 740T120 742H543Q550 742 550 734V703Q550 698 548 696T541 694H177Q171 694 169 693T167 685V407Q167 402 169 401T177 399H459Q467 399 467 391V359Q467 354 465 353T458
351H177Q171 351 169 350T167 342V57Q167 51 169 50T177 48H556Q561 48 563 47T565 40V8Q565 0 557 0H120Q114 0 112 2T110 11V731Q110 738 112 740ZM354 908Q346 914 344 914Q341 914 334 908L273 859Q269 856 266 855T257 853H216Q211 853 210 856T214 863L314
945Q324 955 335 955H358Q365 955 369 951T375 946L473 863Q479 858 479 856T472 853H427Q419 853 412 859L354 908Z" />
<glyph unicode="&#xcb;" glyph-name="Edieresis" horiz-adv-x="616" d="M110 738T112 740T120 742H543Q550 742 550 734V703Q550 698 548 696T541 694H177Q171 694 169 693T167 685V407Q167 402 169 401T177 399H459Q467 399 467 391V359Q467 354 465 353T458
351H177Q171 351 169 350T167 342V57Q167 51 169 50T177 48H556Q561 48 563 47T565 40V8Q565 0 557 0H120Q114 0 112 2T110 11V731Q110 738 112 740ZM313 866Q313 859 310 856T300 853H267Q260 853 258 855T255 864V943Q255 950 257 952T264 954H303Q308 954 310
952T313 944V866ZM432 866Q432 859 429 856T419 853H386Q379 853 377 855T374 864V943Q374 950 376 952T384 954H422Q427 954 429 952T432 944V866Z" />
<glyph unicode="&#xcc;" glyph-name="Igrave" horiz-adv-x="278" d="M158 742Q163 742 165 740T167 731V13Q167 5 165 3T154 0H122Q115 0 113 2T110 11V731Q110 738 112 740T120 742H158ZM11 962T13 963T19 963L249 869Q255 865 252 858L246 841Q245 836 242 835T234
835L7 911Q-4 915 -1 924L10 959Q11 962 13 963Z" />
<glyph unicode="&#xcd;" glyph-name="Iacute" horiz-adv-x="278" d="M158 742Q163 742 165 740T167 731V13Q167 5 165 3T154 0H122Q115 0 113 2T110 11V731Q110 738 112 740T120 742H158ZM268 924L269 920Q269 914 260 911L33 835Q31 834 28 834Q22 834 21 841L15
858Q14 859 14 862Q14 867 18 869L248 963Q251 964 253 963T257 959L268 924Z" />
<glyph unicode="&#xce;" glyph-name="Icircumflex" horiz-adv-x="278" d="M158 742Q163 742 165 740T167 731V13Q167 5 165 3T154 0H122Q115 0 113 2T110 11V731Q110 738 112 740T120 742H158ZM152 908Q144 914 142 914Q139 914 132 908L71 859Q67 856 64 855T55
853H14Q9 853 8 856T12 863L112 945Q122 955 133 955H156Q163 955 167 951T173 946L271 863Q277 858 277 856T270 853H225Q217 853 210 859L152 908Z" />
<glyph unicode="&#xcf;" glyph-name="Idieresis" horiz-adv-x="278" d="M158 742Q163 742 165 740T167 731V13Q167 5 165 3T154 0H122Q115 0 113 2T110 11V731Q110 738 112 740T120 742H158ZM111 866Q111 859 108 856T98 853H65Q58 853 56 855T53 864V943Q53 950
55 952T62 954H101Q106 954 108 952T111 944V866ZM230 866Q230 859 227 856T217 853H184Q177 853 175 855T172 864V943Q172 950 174 952T182 954H220Q225 954 227 952T230 944V866Z" />
<glyph unicode="&#xd0;" glyph-name="Eth" horiz-adv-x="709" d="M450 740T542 652T634 376Q634 183 536 92T233 0H121Q111 0 111 11V349H45Q34 349 34 360V388Q34 397 42 397H111V733Q111 742 121 742L247 741Q450 740 542 652ZM354 47T429 79T539 182T574 372Q574
495 539 564T432 662T238 694H176Q168 694 168 680V397H340Q348 397 348 389V361Q348 349 333 349H168V57Q168 47 180 47H227Q354 47 429 79Z" />
<glyph unicode="&#xd1;" glyph-name="Ntilde" horiz-adv-x="755" d="M636 742Q641 742 643 740T645 732V11Q645 0 635 0H613H608Q599 0 593 7L175 621Q170 628 167 628T163 621V10Q163 0 152 0H120Q110 0 110 11V731Q110 738 112 740T120 742H147Q154 742 157
741T163 734L579 123Q584 117 587 117Q593 117 593 125V732Q593 742 602 742H636ZM492 881T452 881Q434 881 420 884T387 894Q358 905 335 905Q318 905 308 901T290 892T278 885Q274 883 272 883Q269 883 266 889L259 908Q258 911 258 913T261 917Q279 930 294
937T331 944Q356 944 393 931Q431 919 453 919Q469 919 479 922T505 935Q510 938 512 938Q515 938 518 932L527 911Q528 910 528 908Q528 904 521 901Q492 881 452 881Z" />
<glyph unicode="&#xd2;" glyph-name="Ograve" horiz-adv-x="759" d="M235 -10T155 87T75 367Q75 552 156 652T381 752Q524 752 604 653T684 369Q684 186 604 88T380 -10Q235 -10 155 87ZM624 39T624 369Q624 537 563 620T381 703Q260 703 198 620T135 369Q135
39 382 39Q624 39 624 369ZM251 962T253 963T259 963L489 869Q495 865 492 858L486 841Q485 836 482 835T474 835L247 911Q236 915 239 924L250 959Q251 962 253 963Z" />
<glyph unicode="&#xd3;" glyph-name="Oacute" horiz-adv-x="759" d="M235 -10T155 87T75 367Q75 552 156 652T381 752Q524 752 604 653T684 369Q684 186 604 88T380 -10Q235 -10 155 87ZM624 39T624 369Q624 537 563 620T381 703Q260 703 198 620T135 369Q135
39 382 39Q624 39 624 369ZM508 924L509 920Q509 914 500 911L273 835Q271 834 268 834Q262 834 261 841L255 858Q254 859 254 862Q254 867 258 869L488 963Q491 964 493 963T497 959L508 924Z" />
<glyph unicode="&#xd4;" glyph-name="Ocircumflex" horiz-adv-x="759" d="M235 -10T155 87T75 367Q75 552 156 652T381 752Q524 752 604 653T684 369Q684 186 604 88T380 -10Q235 -10 155 87ZM624 39T624 369Q624 537 563 620T381 703Q260 703 198 620T135 369Q135
39 382 39Q624 39 624 369ZM392 908Q384 914 382 914Q379 914 372 908L311 859Q307 856 304 855T295 853H254Q249 853 248 856T252 863L352 945Q362 955 373 955H396Q403 955 407 951T413 946L511 863Q517 858 517 856T510 853H465Q457 853 450 859L392 908Z" />
<glyph unicode="&#xd5;" glyph-name="Otilde" horiz-adv-x="759" d="M235 -10T155 87T75 367Q75 552 156 652T381 752Q524 752 604 653T684 369Q684 186 604 88T380 -10Q235 -10 155 87ZM624 39T624 369Q624 537 563 620T381 703Q260 703 198 620T135 369Q135
39 382 39Q624 39 624 369ZM481 881T441 881Q423 881 409 884T376 894Q347 905 324 905Q307 905 297 901T279 892T267 885Q263 883 261 883Q258 883 255 889L248 908Q247 911 247 913T250 917Q268 930 283 937T320 944Q345 944 382 931Q420 919 442 919Q458 919
468 922T494 935Q499 938 501 938Q504 938 507 932L516 911Q517 910 517 908Q517 904 510 901Q481 881 441 881Z" />
<glyph unicode="&#xd6;" glyph-name="Odieresis" horiz-adv-x="759" d="M235 -10T155 87T75 367Q75 552 156 652T381 752Q524 752 604 653T684 369Q684 186 604 88T380 -10Q235 -10 155 87ZM624 39T624 369Q624 537 563 620T381 703Q260 703 198 620T135 369Q135
39 382 39Q624 39 624 369ZM351 866Q351 859 348 856T338 853H305Q298 853 296 855T293 864V943Q293 950 295 952T302 954H341Q346 954 348 952T351 944V866ZM470 866Q470 859 467 856T457 853H424Q417 853 415 855T412 864V943Q412 950 414 952T422 954H460Q465
954 467 952T470 944V866Z" />
<glyph unicode="&#xd7;" glyph-name="multiply" horiz-adv-x="522" d="M456 210T451 205L431 185Q427 181 424 181Q421 181 416 186L261 341L104 184Q98 178 94 183L74 203Q70 207 70 209Q70 213 75 218L229 372L72 529Q66 535 72 541L92 561Q97 566 102 563L261
404L417 561Q424 568 430 561L450 541Q453 539 453 537T451 532L292 373L450 215Q456 210 451 205Z" />
<glyph unicode="&#xd8;" glyph-name="Oslash" horiz-adv-x="713" d="M695 719T691 712L606 615Q661 520 661 369Q661 186 581 88T357 -10Q217 -10 139 80L67 -2Q61 -9 57 -9Q53 -9 46 -4L28 13Q22 19 21 22T24 30L107 125Q52 218 52 367Q52 490 88 576T193 707T357
752Q494 752 574 660L649 745Q656 755 663 749L690 724Q695 719 691 712ZM115 246T149 172L538 620Q477 702 357 702Q115 702 115 369Q115 246 149 172ZM598 494T564 569L175 122Q238 40 358 40Q479 40 538 121T598 369Q598 494 564 569Z" />
<glyph unicode="&#xd9;" glyph-name="Ugrave" horiz-adv-x="704" d="M603 111T541 51T352 -10Q223 -10 162 53T100 249V730Q100 742 109 742H147Q153 742 155 740T158 731V230Q158 39 355 39Q455 39 504 87T554 233V732Q554 742 563 742H595Q603 742 603 732V234Q603
111 541 51ZM226 962T228 963T234 963L464 869Q470 865 467 858L461 841Q460 836 457 835T449 835L222 911Q211 915 214 924L225 959Q226 962 228 963Z" />
<glyph unicode="&#xda;" glyph-name="Uacute" horiz-adv-x="704" d="M603 111T541 51T352 -10Q223 -10 162 53T100 249V730Q100 742 109 742H147Q153 742 155 740T158 731V230Q158 39 355 39Q455 39 504 87T554 233V732Q554 742 563 742H595Q603 742 603 732V234Q603
111 541 51ZM483 924L484 920Q484 914 475 911L248 835Q246 834 243 834Q237 834 236 841L230 858Q229 859 229 862Q229 867 233 869L463 963Q466 964 468 963T472 959L483 924Z" />
<glyph unicode="&#xdb;" glyph-name="Ucircumflex" horiz-adv-x="704" d="M603 111T541 51T352 -10Q223 -10 162 53T100 249V730Q100 742 109 742H147Q153 742 155 740T158 731V230Q158 39 355 39Q455 39 504 87T554 233V732Q554 742 563 742H595Q603 742 603
732V234Q603 111 541 51ZM367 908Q359 914 357 914Q354 914 347 908L286 859Q282 856 279 855T270 853H229Q224 853 223 856T227 863L327 945Q337 955 348 955H371Q378 955 382 951T388 946L486 863Q492 858 492 856T485 853H440Q432 853 425 859L367 908Z" />
<glyph unicode="&#xdc;" glyph-name="Udieresis" horiz-adv-x="704" d="M603 111T541 51T352 -10Q223 -10 162 53T100 249V730Q100 742 109 742H147Q153 742 155 740T158 731V230Q158 39 355 39Q455 39 504 87T554 233V732Q554 742 563 742H595Q603 742 603 732V234Q603
111 541 51ZM326 866Q326 859 323 856T313 853H280Q273 853 271 855T268 864V943Q268 950 270 952T277 954H316Q321 954 323 952T326 944V866ZM445 866Q445 859 442 856T432 853H399Q392 853 390 855T387 864V943Q387 950 389 952T397 954H435Q440 954 442 952T445
944V866Z" />
<glyph unicode="&#xdd;" glyph-name="Yacute" horiz-adv-x="647" d="M597 742T599 739T598 730L359 327Q356 322 356 317T355 304V14Q355 6 352 3T339 0H310Q298 0 298 12V295Q298 306 292 316L49 729Q47 732 47 736Q47 742 57 742H91Q98 742 101 740T109 732L313
384Q320 372 326 372Q330 372 337 382L540 732Q544 739 547 740T557 742H591Q597 742 599 739ZM446 924L447 920Q447 914 438 911L211 835Q209 834 206 834Q200 834 199 841L193 858Q192 859 192 862Q192 867 196 869L426 963Q429 964 431 963T435 959L446 924Z"
/>
<glyph unicode="&#xde;" glyph-name="Thorn" horiz-adv-x="678" d="M618 281T548 231T357 180H176Q167 180 167 170V10Q167 0 158 0H119Q110 0 110 9V731Q110 738 112 740T120 742H158Q163 742 165 740T167 731V586Q167 581 174 581H349Q473 581 545 534T618 389Q618
281 548 231ZM558 466T504 499T348 533H177Q167 533 167 525V238Q167 227 175 227H355Q558 227 558 389Q558 466 504 499Z" />
<glyph unicode="&#xdf;" glyph-name="germandbls" horiz-adv-x="588" d="M395 742T432 703T470 607Q470 570 455 546T420 510T355 474Q307 448 292 435T277 399Q277 376 291 367T352 342Q407 324 441 308T505 255T534 159Q534 79 480 35T345 -10Q309 -10 272 -2T210
22Q206 24 205 26T206 32L224 60Q226 65 234 61Q259 47 282 40T337 33Q406 33 445 65T484 155Q484 196 464 222T414 262T337 292Q300 304 280 313T245 342T229 395Q229 431 251 456T328 508Q335 512 362 526T404 561T419 609Q419 650 389 674T304 699Q235 699 194
658T153 535V11V8Q153 0 145 0H112Q103 0 103 9V477Q103 487 95 487H36Q29 487 29 493V521Q29 528 36 528H96Q103 528 103 537Q103 631 160 686T312 742Q395 742 432 703Z" />
<glyph unicode="&#xe0;" glyph-name="agrave" horiz-adv-x="540" d="M321 -10T216 -10Q137 -10 92 29T46 135Q46 211 109 255T297 310L396 318Q413 320 413 333V363Q413 424 374 460T269 497Q173 497 107 408Q104 403 102 402T96 403L65 419Q59 423 65 430Q98
481 150 510T272 540Q360 540 411 494T462 368V11Q462 0 451 0H426Q416 0 416 11L414 68Q413 74 410 74T403 70Q321 -10 216 -10ZM413 280T399 278L315 271Q98 255 98 140Q98 90 133 62T227 34Q262 34 296 46T358 81Q384 102 398 125T413 171V263Q413 280 399 278ZM137
750T139 751T145 751L375 657Q381 653 378 646L372 629Q371 624 368 623T360 623L133 699Q122 703 125 712L136 747Q137 750 139 751Z" />
<glyph unicode="&#xe1;" glyph-name="aacute" horiz-adv-x="540" d="M321 -10T216 -10Q137 -10 92 29T46 135Q46 211 109 255T297 310L396 318Q413 320 413 333V363Q413 424 374 460T269 497Q173 497 107 408Q104 403 102 402T96 403L65 419Q59 423 65 430Q98
481 150 510T272 540Q360 540 411 494T462 368V11Q462 0 451 0H426Q416 0 416 11L414 68Q413 74 410 74T403 70Q321 -10 216 -10ZM413 280T399 278L315 271Q98 255 98 140Q98 90 133 62T227 34Q262 34 296 46T358 81Q384 102 398 125T413 171V263Q413 280 399 278ZM394
712L395 708Q395 702 386 699L159 623Q157 622 154 622Q148 622 147 629L141 646Q140 647 140 650Q140 655 144 657L374 751Q377 752 379 751T383 747L394 712Z" />
<glyph unicode="&#xe2;" glyph-name="acircumflex" horiz-adv-x="540" d="M321 -10T216 -10Q137 -10 92 29T46 135Q46 211 109 255T297 310L396 318Q413 320 413 333V363Q413 424 374 460T269 497Q173 497 107 408Q104 403 102 402T96 403L65 419Q59 423 65 430Q98
481 150 510T272 540Q360 540 411 494T462 368V11Q462 0 451 0H426Q416 0 416 11L414 68Q413 74 410 74T403 70Q321 -10 216 -10ZM413 280T399 278L315 271Q98 255 98 140Q98 90 133 62T227 34Q262 34 296 46T358 81Q384 102 398 125T413 171V263Q413 280 399 278ZM278
696Q270 702 268 702Q265 702 258 696L197 647Q193 644 190 643T181 641H140Q135 641 134 644T138 651L238 733Q248 743 259 743H282Q289 743 293 739T299 734L397 651Q403 646 403 644T396 641H351Q343 641 336 647L278 696Z" />
<glyph unicode="&#xe3;" glyph-name="atilde" horiz-adv-x="540" d="M321 -10T216 -10Q137 -10 92 29T46 135Q46 211 109 255T297 310L396 318Q413 320 413 333V363Q413 424 374 460T269 497Q173 497 107 408Q104 403 102 402T96 403L65 419Q59 423 65 430Q98
481 150 510T272 540Q360 540 411 494T462 368V11Q462 0 451 0H426Q416 0 416 11L414 68Q413 74 410 74T403 70Q321 -10 216 -10ZM413 280T399 278L315 271Q98 255 98 140Q98 90 133 62T227 34Q262 34 296 46T358 81Q384 102 398 125T413 171V263Q413 280 399 278ZM367
669T327 669Q309 669 295 672T262 682Q233 693 210 693Q193 693 183 689T165 680T153 673Q149 671 147 671Q144 671 141 677L134 696Q133 699 133 701T136 705Q154 718 169 725T206 732Q231 732 268 719Q306 707 328 707Q344 707 354 710T380 723Q385 726 387 726Q390
726 393 720L402 699Q403 698 403 696Q403 692 396 689Q367 669 327 669Z" />
<glyph unicode="&#xe4;" glyph-name="adieresis" horiz-adv-x="540" d="M321 -10T216 -10Q137 -10 92 29T46 135Q46 211 109 255T297 310L396 318Q413 320 413 333V363Q413 424 374 460T269 497Q173 497 107 408Q104 403 102 402T96 403L65 419Q59 423 65 430Q98
481 150 510T272 540Q360 540 411 494T462 368V11Q462 0 451 0H426Q416 0 416 11L414 68Q413 74 410 74T403 70Q321 -10 216 -10ZM413 280T399 278L315 271Q98 255 98 140Q98 90 133 62T227 34Q262 34 296 46T358 81Q384 102 398 125T413 171V263Q413 280 399 278ZM237
654Q237 647 234 644T224 641H191Q184 641 182 643T179 652V731Q179 738 181 740T188 742H227Q232 742 234 740T237 732V654ZM356 654Q356 647 353 644T343 641H310Q303 641 301 643T298 652V731Q298 738 300 740T308 742H346Q351 742 353 740T356 732V654Z" />
<glyph unicode="&#xe5;" glyph-name="aring" horiz-adv-x="540" d="M321 -10T216 -10Q137 -10 92 29T46 135Q46 211 109 255T297 310L396 318Q413 320 413 333V363Q413 424 374 460T269 497Q173 497 107 408Q104 403 102 402T96 403L65 419Q59 423 65 430Q98 481
150 510T272 540Q360 540 411 494T462 368V11Q462 0 451 0H426Q416 0 416 11L414 68Q413 74 410 74T403 70Q321 -10 216 -10ZM413 280T399 278L315 271Q98 255 98 140Q98 90 133 62T227 34Q262 34 296 46T358 81Q384 102 398 125T413 171V263Q413 280 399 278ZM369
658T340 629T268 600Q226 600 197 629T167 703Q167 743 197 771T268 800Q311 800 340 771T369 701Q369 658 340 629ZM324 725T308 741T267 758Q243 758 226 742T209 700Q209 677 226 659T267 641Q291 641 307 658T324 700Q324 725 308 741Z" />
<glyph unicode="&#xe6;" glyph-name="ae" horiz-adv-x="929" d="M464 252T461 247T457 227Q457 181 483 136T554 63T651 34Q718 34 755 58T823 125Q827 130 829 130T835 128L861 112Q867 108 862 101Q834 51 777 21T648 -10Q569 -10 523 23T443 106Q441 108 440
108T437 106Q397 55 347 23T213 -10Q134 -10 90 29T46 136Q46 211 106 255T288 309L395 318Q413 320 413 333V363Q413 425 375 461T265 497Q174 497 106 408Q102 403 100 402T94 403L65 419Q60 422 65 430Q96 482 150 511T272 540Q346 540 389 512T448 426Q478
482 529 511T650 540Q720 540 772 509T853 417T882 273Q882 263 878 258T864 252H477Q464 252 461 247ZM595 497T552 472T484 401T459 294L813 293Q824 293 827 296T830 309Q830 360 807 403T742 471T648 497Q595 497 552 472ZM413 270T410 273T397 276L308 270Q202
261 151 229T99 139Q99 92 130 63T217 34Q270 34 315 53T386 105T413 176V262Q413 270 410 273Z" />
<glyph unicode="&#xe7;" glyph-name="ccedilla" horiz-adv-x="538" d="M506 118T503 110Q470 55 421 25T310 -10L293 -54Q292 -58 296 -58Q338 -61 356 -81T374 -130Q374 -166 345 -185T272 -205Q228 -205 195 -184Q191 -182 192 -177L202 -156Q204 -152 209 -155Q221
-164 233 -168T266 -173Q326 -173 326 -131Q326 -108 307 -97T248 -84Q241 -84 243 -79L273 -9Q208 -4 159 31T82 127T54 263Q54 343 85 406T171 504T296 540Q422 540 495 429Q498 424 498 422T494 418L463 403Q462 402 459 402Q456 402 451 407Q412 456 378 476T301
497Q243 497 199 468T130 387T106 265Q106 196 130 144T198 62T301 33Q351 33 390 57T463 132Q466 137 468 137T473 136L501 121Q506 118 503 110Z" />
<glyph unicode="&#xe8;" glyph-name="egrave" horiz-adv-x="578" d="M106 184T132 137T203 62T301 34Q415 34 472 125Q478 133 483 128L511 112Q516 108 512 101Q441 -10 299 -10Q227 -10 172 24T85 119T54 261Q54 346 85 409T172 506T299 540Q406 540 468 470T531
273V267Q531 260 529 257T517 252H113Q106 252 106 238Q106 184 132 137ZM462 293Q472 293 475 296T479 307Q479 359 457 402T394 471T299 497Q239 497 195 467T129 390T107 293H462ZM166 750T168 751T174 751L404 657Q410 653 407 646L401 629Q400 624 397 623T389
623L162 699Q151 703 154 712L165 747Q166 750 168 751Z" />
<glyph unicode="&#xe9;" glyph-name="eacute" horiz-adv-x="578" d="M106 184T132 137T203 62T301 34Q415 34 472 125Q478 133 483 128L511 112Q516 108 512 101Q441 -10 299 -10Q227 -10 172 24T85 119T54 261Q54 346 85 409T172 506T299 540Q406 540 468 470T531
273V267Q531 260 529 257T517 252H113Q106 252 106 238Q106 184 132 137ZM462 293Q472 293 475 296T479 307Q479 359 457 402T394 471T299 497Q239 497 195 467T129 390T107 293H462ZM423 712L424 708Q424 702 415 699L188 623Q186 622 183 622Q177 622 176 629L170
646Q169 647 169 650Q169 655 173 657L403 751Q406 752 408 751T412 747L423 712Z" />
<glyph unicode="&#xea;" glyph-name="ecircumflex" horiz-adv-x="578" d="M106 184T132 137T203 62T301 34Q415 34 472 125Q478 133 483 128L511 112Q516 108 512 101Q441 -10 299 -10Q227 -10 172 24T85 119T54 261Q54 346 85 409T172 506T299 540Q406 540 468
470T531 273V267Q531 260 529 257T517 252H113Q106 252 106 238Q106 184 132 137ZM462 293Q472 293 475 296T479 307Q479 359 457 402T394 471T299 497Q239 497 195 467T129 390T107 293H462ZM307 696Q299 702 297 702Q294 702 287 696L226 647Q222 644 219 643T210
641H169Q164 641 163 644T167 651L267 733Q277 743 288 743H311Q318 743 322 739T328 734L426 651Q432 646 432 644T425 641H380Q372 641 365 647L307 696Z" />
<glyph unicode="&#xeb;" glyph-name="edieresis" horiz-adv-x="578" d="M106 184T132 137T203 62T301 34Q415 34 472 125Q478 133 483 128L511 112Q516 108 512 101Q441 -10 299 -10Q227 -10 172 24T85 119T54 261Q54 346 85 409T172 506T299 540Q406 540 468
470T531 273V267Q531 260 529 257T517 252H113Q106 252 106 238Q106 184 132 137ZM462 293Q472 293 475 296T479 307Q479 359 457 402T394 471T299 497Q239 497 195 467T129 390T107 293H462ZM266 654Q266 647 263 644T253 641H220Q213 641 211 643T208 652V731Q208
738 210 740T217 742H256Q261 742 263 740T266 732V654ZM385 654Q385 647 382 644T372 641H339Q332 641 330 643T327 652V731Q327 738 329 740T337 742H375Q380 742 382 740T385 732V654Z" />
<glyph unicode="&#xec;" glyph-name="igrave" horiz-adv-x="226" d="M138 13Q138 5 136 3T125 0H100Q93 0 91 2T88 11V519Q88 526 90 528T98 530H128Q134 530 136 528T138 519V13ZM-18 750T-16 751T-10 751L220 657Q226 653 223 646L217 629Q216 624 213 623T205
623L-22 699Q-33 703 -30 712L-19 747Q-18 750 -16 751Z" />
<glyph unicode="&#xed;" glyph-name="iacute" horiz-adv-x="226" d="M138 13Q138 5 136 3T125 0H100Q93 0 91 2T88 11V519Q88 526 90 528T98 530H128Q134 530 136 528T138 519V13ZM239 712L240 708Q240 702 231 699L4 623Q2 622 -1 622Q-7 622 -8 629L-14 646Q-15
647 -15 650Q-15 655 -11 657L219 751Q222 752 224 751T228 747L239 712Z" />
<glyph unicode="&#xee;" glyph-name="icircumflex" horiz-adv-x="226" d="M138 13Q138 5 136 3T125 0H100Q93 0 91 2T88 11V519Q88 526 90 528T98 530H128Q134 530 136 528T138 519V13ZM123 696Q115 702 113 702Q110 702 103 696L42 647Q38 644 35 643T26 641H-15Q-20
641 -21 644T-17 651L83 733Q93 743 104 743H127Q134 743 138 739T144 734L242 651Q248 646 248 644T241 641H196Q188 641 181 647L123 696Z" />
<glyph unicode="&#xef;" glyph-name="idieresis" horiz-adv-x="226" d="M138 13Q138 5 136 3T125 0H100Q93 0 91 2T88 11V519Q88 526 90 528T98 530H128Q134 530 136 528T138 519V13ZM82 654Q82 647 79 644T69 641H36Q29 641 27 643T24 652V731Q24 738 26 740T33
742H72Q77 742 79 740T82 732V654ZM201 654Q201 647 198 644T188 641H155Q148 641 146 643T143 652V731Q143 738 145 740T153 742H191Q196 742 198 740T201 732V654Z" />
<glyph unicode="&#xf0;" glyph-name="eth" horiz-adv-x="598" d="M544 179T515 119T429 24T297 -10Q225 -10 170 23T85 116T54 252Q54 329 84 390T169 485T291 520Q340 520 381 504T453 456Q405 567 289 644L126 552Q124 551 121 551Q116 551 112 557L103 572Q98
579 104 583L254 667Q197 699 143 720Q139 722 139 725T142 731L164 747Q166 748 168 749T174 751Q179 751 182 749Q246 724 298 693L400 750Q403 751 406 751T410 749L423 726Q427 721 421 718L334 669Q445 593 494 491T544 257Q544 179 515 119ZM356 34T399 63T467
142T492 254Q492 316 467 367T398 447T300 477Q246 477 202 448T132 367T106 254Q106 193 131 143T201 63T301 34Q356 34 399 63Z" />
<glyph unicode="&#xf1;" glyph-name="ntilde" horiz-adv-x="578" d="M88 0T88 10V520Q88 530 97 530H126Q131 530 133 528T135 521V460Q135 455 137 454T143 457Q206 503 245 521T335 540Q413 540 455 500T497 392V11Q497 0 486 0H457Q447 0 447 10V375Q447 496
328 496Q280 496 241 476T138 406V10Q138 0 127 0H98Q88 0 88 10ZM402 669T362 669Q344 669 330 672T297 682Q268 693 245 693Q228 693 218 689T200 680T188 673Q184 671 182 671Q179 671 176 677L169 696Q168 699 168 701T171 705Q189 718 204 725T241 732Q266
732 303 719Q341 707 363 707Q379 707 389 710T415 723Q420 726 422 726Q425 726 428 720L437 699Q438 698 438 696Q438 692 431 689Q402 669 362 669Z" />
<glyph unicode="&#xf2;" glyph-name="ograve" horiz-adv-x="598" d="M226 -10T171 24T85 120T54 262Q54 343 85 406T172 504T300 540Q372 540 427 505T513 407T544 264Q544 184 514 122T428 25T299 -10Q226 -10 171 24ZM390 34T441 96T492 264Q492 370 440 433T300
497Q241 497 197 468T130 386T106 264Q106 159 158 97T301 34Q390 34 441 96ZM170 750T172 751T178 751L408 657Q414 653 411 646L405 629Q404 624 401 623T393 623L166 699Q155 703 158 712L169 747Q170 750 172 751Z" />
<glyph unicode="&#xf3;" glyph-name="oacute" horiz-adv-x="598" d="M226 -10T171 24T85 120T54 262Q54 343 85 406T172 504T300 540Q372 540 427 505T513 407T544 264Q544 184 514 122T428 25T299 -10Q226 -10 171 24ZM390 34T441 96T492 264Q492 370 440 433T300
497Q241 497 197 468T130 386T106 264Q106 159 158 97T301 34Q390 34 441 96ZM427 712L428 708Q428 702 419 699L192 623Q190 622 187 622Q181 622 180 629L174 646Q173 647 173 650Q173 655 177 657L407 751Q410 752 412 751T416 747L427 712Z" />
<glyph unicode="&#xf4;" glyph-name="ocircumflex" horiz-adv-x="598" d="M226 -10T171 24T85 120T54 262Q54 343 85 406T172 504T300 540Q372 540 427 505T513 407T544 264Q544 184 514 122T428 25T299 -10Q226 -10 171 24ZM390 34T441 96T492 264Q492 370 440
433T300 497Q241 497 197 468T130 386T106 264Q106 159 158 97T301 34Q390 34 441 96ZM311 696Q303 702 301 702Q298 702 291 696L230 647Q226 644 223 643T214 641H173Q168 641 167 644T171 651L271 733Q281 743 292 743H315Q322 743 326 739T332 734L430 651Q436
646 436 644T429 641H384Q376 641 369 647L311 696Z" />
<glyph unicode="&#xf5;" glyph-name="otilde" horiz-adv-x="598" d="M226 -10T171 24T85 120T54 262Q54 343 85 406T172 504T300 540Q372 540 427 505T513 407T544 264Q544 184 514 122T428 25T299 -10Q226 -10 171 24ZM390 34T441 96T492 264Q492 370 440 433T300
497Q241 497 197 468T130 386T106 264Q106 159 158 97T301 34Q390 34 441 96ZM400 669T360 669Q342 669 328 672T295 682Q266 693 243 693Q226 693 216 689T198 680T186 673Q182 671 180 671Q177 671 174 677L167 696Q166 699 166 701T169 705Q187 718 202 725T239
732Q264 732 301 719Q339 707 361 707Q377 707 387 710T413 723Q418 726 420 726Q423 726 426 720L435 699Q436 698 436 696Q436 692 429 689Q400 669 360 669Z" />
<glyph unicode="&#xf6;" glyph-name="odieresis" horiz-adv-x="598" d="M226 -10T171 24T85 120T54 262Q54 343 85 406T172 504T300 540Q372 540 427 505T513 407T544 264Q544 184 514 122T428 25T299 -10Q226 -10 171 24ZM390 34T441 96T492 264Q492 370 440
433T300 497Q241 497 197 468T130 386T106 264Q106 159 158 97T301 34Q390 34 441 96ZM270 654Q270 647 267 644T257 641H224Q217 641 215 643T212 652V731Q212 738 214 740T221 742H260Q265 742 267 740T270 732V654ZM389 654Q389 647 386 644T376 641H343Q336
641 334 643T331 652V731Q331 738 333 740T341 742H379Q384 742 386 740T389 732V654Z" />
<glyph unicode="&#xf7;" glyph-name="divide" horiz-adv-x="545" d="M317 505Q317 498 314 496T303 493H239Q233 493 231 495T229 504V569Q229 578 236 578H310Q317 578 317 570V505ZM477 360Q477 351 465 351L77 350Q72 350 70 351T68 358V386Q68 394 74 394L469
395Q477 395 477 388V360ZM317 179Q317 172 314 170T303 167H239Q233 167 231 169T229 178V243Q229 252 236 252H310Q317 252 317 244V179Z" />
<glyph unicode="&#xf8;" glyph-name="oslash" horiz-adv-x="577" d="M560 501T554 495L495 437Q542 365 542 264Q542 184 512 122T426 25T297 -10Q241 -10 196 10T118 67L54 5Q50 1 45 1Q40 1 36 5L25 17Q20 24 20 27Q20 32 25 37L92 103Q52 169 52 262Q52 343
83 406T170 504T298 540Q349 540 392 522T467 471L521 524Q528 529 531 529Q534 529 539 524L554 510Q560 501 554 495ZM104 194T129 139L434 438Q383 497 298 497Q239 497 195 468T128 386T104 264Q104 194 129 139ZM490 345T459 402L153 102Q178 69 215 52T299
34Q388 34 439 96T490 264Q490 345 459 402Z" />
<glyph unicode="&#xf9;" glyph-name="ugrave" horiz-adv-x="573" d="M295 34T340 59T435 135V520Q435 530 446 530H475Q485 530 485 520V10Q485 0 476 0H447Q442 0 440 2T438 9V72Q438 77 436 78T430 75Q371 27 328 9T243 -10Q173 -10 127 31T80 138V519Q80 530
90 530H120Q130 530 130 520V160Q130 103 161 69T248 34Q295 34 340 59ZM139 750T141 751T147 751L377 657Q383 653 380 646L374 629Q373 624 370 623T362 623L135 699Q124 703 127 712L138 747Q139 750 141 751Z" />
<glyph unicode="&#xfa;" glyph-name="uacute" horiz-adv-x="573" d="M295 34T340 59T435 135V520Q435 530 446 530H475Q485 530 485 520V10Q485 0 476 0H447Q442 0 440 2T438 9V72Q438 77 436 78T430 75Q371 27 328 9T243 -10Q173 -10 127 31T80 138V519Q80 530
90 530H120Q130 530 130 520V160Q130 103 161 69T248 34Q295 34 340 59ZM396 712L397 708Q397 702 388 699L161 623Q159 622 156 622Q150 622 149 629L143 646Q142 647 142 650Q142 655 146 657L376 751Q379 752 381 751T385 747L396 712Z" />
<glyph unicode="&#xfb;" glyph-name="ucircumflex" horiz-adv-x="573" d="M295 34T340 59T435 135V520Q435 530 446 530H475Q485 530 485 520V10Q485 0 476 0H447Q442 0 440 2T438 9V72Q438 77 436 78T430 75Q371 27 328 9T243 -10Q173 -10 127 31T80 138V519Q80
530 90 530H120Q130 530 130 520V160Q130 103 161 69T248 34Q295 34 340 59ZM280 696Q272 702 270 702Q267 702 260 696L199 647Q195 644 192 643T183 641H142Q137 641 136 644T140 651L240 733Q250 743 261 743H284Q291 743 295 739T301 734L399 651Q405 646 405
644T398 641H353Q345 641 338 647L280 696Z" />
<glyph unicode="&#xfc;" glyph-name="udieresis" horiz-adv-x="573" d="M295 34T340 59T435 135V520Q435 530 446 530H475Q485 530 485 520V10Q485 0 476 0H447Q442 0 440 2T438 9V72Q438 77 436 78T430 75Q371 27 328 9T243 -10Q173 -10 127 31T80 138V519Q80
530 90 530H120Q130 530 130 520V160Q130 103 161 69T248 34Q295 34 340 59ZM239 654Q239 647 236 644T226 641H193Q186 641 184 643T181 652V731Q181 738 183 740T190 742H229Q234 742 236 740T239 732V654ZM358 654Q358 647 355 644T345 641H312Q305 641 303
643T300 652V731Q300 738 302 740T310 742H348Q353 742 355 740T358 732V654Z" />
<glyph unicode="&#xfd;" glyph-name="yacute" horiz-adv-x="513" d="M70 -165T57 -164T44 -154V-134Q44 -127 49 -125T73 -122H134Q159 -122 180 -102T213 -52T226 7Q226 26 221 37L32 517Q31 519 31 522Q31 530 41 530H71Q81 530 84 521L252 90Q255 81 260 81Q266
81 270 94L435 522Q438 530 446 530H474Q478 530 480 527T481 520L254 -70Q234 -123 199 -144T108 -165Q70 -165 57 -164ZM385 712L386 708Q386 702 377 699L150 623Q148 622 145 622Q139 622 138 629L132 646Q131 647 131 650Q131 655 135 657L365 751Q368 752
370 751T374 747L385 712Z" />
<glyph unicode="&#xfe;" glyph-name="thorn" horiz-adv-x="590" d="M136 742T136 730V469Q136 460 140 460Q143 460 163 482T220 522T310 540Q375 540 426 510T506 421T536 275Q536 190 507 126T424 26T298 -10Q252 -10 215 4T152 40Q147 45 142 45Q138 45 138
33V-154Q138 -160 136 -162T128 -165H97Q88 -165 88 -155V729Q88 737 91 739T101 742H125Q136 742 136 730ZM175 71T212 52T292 33Q348 33 391 61T459 144T484 271Q484 346 459 397T392 472T300 497Q254 497 217 477T159 425T138 364V107Q175 71 212 52Z" />
<glyph unicode="&#xff;" glyph-name="ydieresis" horiz-adv-x="513" d="M70 -165T57 -164T44 -154V-134Q44 -127 49 -125T73 -122H134Q159 -122 180 -102T213 -52T226 7Q226 26 221 37L32 517Q31 519 31 522Q31 530 41 530H71Q81 530 84 521L252 90Q255 81 260
81Q266 81 270 94L435 522Q438 530 446 530H474Q478 530 480 527T481 520L254 -70Q234 -123 199 -144T108 -165Q70 -165 57 -164ZM228 654Q228 647 225 644T215 641H182Q175 641 173 643T170 652V731Q170 738 172 740T179 742H218Q223 742 225 740T228 732V654ZM347
654Q347 647 344 644T334 641H301Q294 641 292 643T289 652V731Q289 738 291 740T299 742H337Q342 742 344 740T347 732V654Z" />
<glyph unicode="&#x2013;" glyph-name="endash" horiz-adv-x="545" d="M477 246Q477 236 465 236H77Q72 236 70 237T68 244V274Q68 282 74 282L469 283Q472 283 474 281T477 276V246Z" />
<glyph unicode="&#x2014;" glyph-name="emdash" horiz-adv-x="866" d="M798 246Q798 236 787 236H77Q72 236 70 237T68 244V274Q68 282 74 282L790 283Q798 283 798 276V246Z" />
<glyph unicode="&#x2018;" glyph-name="quoteleft" horiz-adv-x="213" d="M162 742T163 740T164 734L119 641L117 632Q117 626 124 626H141Q150 626 150 618V545Q150 538 143 538H65Q59 538 59 545V611Q59 613 61 617L129 736Q131 742 142 742H159Q162 742 163 740Z" />
<glyph unicode="&#x2019;" glyph-name="quoteright" horiz-adv-x="213" d="M51 538T50 540T49 546L94 639L96 648Q96 654 89 654H72Q63 654 63 662V735Q63 742 70 742H148Q154 742 154 735V669Q154 667 152 663L84 544Q82 538 71 538H54Q51 538 50 540Z" />
<glyph unicode="&#x201a;" glyph-name="quotesinglbase" horiz-adv-x="213" d="M51 -117T50 -114T49 -109L94 -15Q96 -9 96 -6Q96 0 89 0H72Q63 0 63 8V81Q63 88 70 88H148Q154 88 154 81V15Q154 13 152 9L84 -111Q81 -117 71 -117H54Q51 -117 50 -114Z" />
<glyph unicode="&#x201c;" glyph-name="quotedblleft" horiz-adv-x="366" d="M58 538T58 544V610Q58 613 60 617L129 736Q131 742 141 742H158Q162 742 163 740T164 734L119 641Q117 637 117 632Q117 626 123 626L140 625Q149 625 149 617V545Q149 538 143 538H65Q58
538 58 544ZM211 538T211 544V610Q211 613 213 617L281 736Q285 742 294 742H311Q315 742 316 740T317 734L272 641Q270 637 270 632Q270 626 276 626L293 625Q302 625 302 617V545Q302 538 295 538H218Q211 538 211 544Z" />
<glyph unicode="&#x201d;" glyph-name="quotedblright" horiz-adv-x="366" d="M51 538T50 540T49 546L94 639L96 648Q96 654 89 654H72Q63 654 63 662V735Q63 742 70 742H148Q154 742 154 735V669Q154 667 152 663L84 544Q82 538 71 538H54Q51 538 50 540ZM204
538T203 540T202 546L247 639L249 648Q249 654 242 654H225Q216 654 216 662V735Q216 742 223 742H301Q307 742 307 735V669Q307 667 305 663L237 544Q235 538 224 538H207Q204 538 203 540Z" />
<glyph unicode="&#x201e;" glyph-name="quotedblbase" horiz-adv-x="366" d="M204 -117T203 -114T202 -109L247 -15Q249 -9 249 -6Q249 0 242 0H225Q216 0 216 8V81Q216 88 223 88H301Q307 88 307 81V15Q307 13 305 9L237 -111Q234 -117 224 -117H207Q204 -117
203 -114ZM51 -117T50 -114T49 -109L94 -15Q96 -9 96 -6Q96 0 89 0H72Q63 0 63 8V81Q63 88 70 88H148Q154 88 154 81V15Q154 13 152 9L84 -111Q81 -117 71 -117H54Q51 -117 50 -114Z" />
<glyph unicode="&#x2022;" glyph-name="bullet" horiz-adv-x="298" d="M117 300T95 322T72 377Q72 409 94 431T149 454Q181 454 203 432T226 377Q226 345 204 323T149 300Q117 300 95 322Z" />
<glyph unicode="&#x2039;" glyph-name="guilsinglleft" horiz-adv-x="256" d="M206 82L207 80Q207 77 199 77H183Q176 77 174 81L39 249Q34 257 38 264L175 442Q178 446 183 446H201Q204 446 206 444T206 438L96 263Q92 256 96 251L206 82Z" />
<glyph unicode="&#x203a;" glyph-name="guilsinglright" horiz-adv-x="257" d="M167 257T162 263L51 438Q50 439 50 441Q50 446 57 446H74Q79 446 82 442L219 264Q222 261 222 258Q222 255 218 249L83 81Q81 77 74 77H59Q49 77 51 82L162 251Q167 257 162 263Z" />
</font>
</defs>
</svg>
