<?xml version="1.0" standalone="no"?>
<!DOCTYPE svg PUBLIC "-//W3C//DTD SVG 1.1//EN" "http://www.w3.org/Graphics/SVG/1.1/DTD/svg11.dtd">
<svg xmlns="http://www.w3.org/2000/svg">
<defs >
<font id="Atma" horiz-adv-x="555" ><font-face
    font-family="Atma Medium"
    units-per-em="1000"
    panose-1="0 0 0 0 0 0 0 0 0 0"
    ascent="1101"
    descent="-518"
    alphabetic="0" />
<glyph unicode=" " glyph-name="space" horiz-adv-x="194" />
<glyph unicode="!" glyph-name="exclam" horiz-adv-x="242" d="M78 218Q69 337 65 439T61 661Q61 673 61 688T63 719Q82 728 99 732T134 737Q145 737 156 736T180 730Q166 615 160 479T158 216Q152 214 145 214T127 213Q114 213 102 214T78 218ZM127 -11Q113 -11
100 -9T75 -2Q74 24 74 48T75 95Q99 96 120 96T172 93Q174 54 175 29T178 -6Q160 -9 149 -10T127 -11Z" />
<glyph unicode="&quot;" glyph-name="quotedbl" horiz-adv-x="296" d="M79 742Q89 742 99 741T122 736Q120 686 115 631T99 498Q90 495 73 494T40 495Q38 573 37 626T32 735Q39 738 51 740T79 742ZM210 742Q220 742 230 741T253 736Q251 686 246 631T230 498Q221
495 204 494T171 495Q169 573 168 626T163 735Q170 738 182 740T210 742Z" />
<glyph unicode="#" glyph-name="numbersign" horiz-adv-x="608" d="M212 235Q254 232 291 230T364 227Q375 263 383 295T399 358Q353 359 317 361T249 366Q239 327 230 295T212 235ZM588 237Q590 216 588 198T579 163Q537 160 496 159T414 157Q398 111 379 63T335
-39Q314 -36 300 -31T272 -16Q293 29 310 73T341 158Q304 160 266 163T190 170Q172 120 152 69T108 -35Q89 -32 75 -27T44 -11Q63 31 82 78T120 179Q75 186 53 190T11 199Q9 216 10 230T18 264Q46 257 76 252T140 243Q150 275 159 307T176 374Q128 381 92 387T24
400Q22 418 23 432T31 465Q65 457 104 451T190 440Q200 485 206 531T217 622Q236 620 255 613T289 595Q283 547 277 508T263 433Q310 430 346 429T415 429Q425 477 431 524T442 617Q462 615 481 609T514 591Q508 547 502 507T489 430Q535 432 558 434T601 438Q603
419 601 400T592 365Q562 363 533 362T474 359Q462 311 454 282T438 228Q478 229 515 231T588 237Z" />
<glyph unicode="$" glyph-name="dollar" horiz-adv-x="390" d="M227 41Q230 13 230 -13T228 -61Q213 -66 194 -67T153 -65Q158 -30 160 -7T161 42Q94 54 56 105T18 232Q40 240 64 244T107 248Q104 182 128 143T197 104Q231 104 249 123T268 179Q268 202 259 223T229
265Q222 273 213 281T155 330Q80 391 56 433T32 526Q32 588 68 630T167 682Q163 711 162 732T161 771Q177 777 196 778T237 777Q235 752 235 729T235 683Q291 675 323 638T369 529Q351 519 329 514T281 508Q272 567 254 593T204 619Q174 619 157 600T140 546Q140
508 162 475T244 394Q321 335 348 292T375 197Q375 135 334 93T227 41Z" />
<glyph unicode="%" glyph-name="percent" horiz-adv-x="839" d="M528 786Q550 781 570 770T607 743Q530 553 445 377T229 -33Q215 -30 202 -24T164 2Q282 223 367 407T528 786ZM33 529Q33 635 84 698T222 762Q289 762 326 716T364 588Q364 470 315 399T180 327Q112
327 73 382T33 529ZM271 557Q271 632 255 668T205 704Q169 704 147 660T124 541Q124 474 144 430T198 385Q232 385 251 432T271 557ZM475 188Q475 294 527 357T665 421Q731 421 768 375T806 247Q806 129 758 58T623 -13Q554 -13 515 42T475 188ZM714 216Q714 291
698 327T648 363Q611 363 589 319T566 200Q566 132 586 88T640 44Q674 44 694 92T714 216Z" />
<glyph unicode="&amp;" glyph-name="ampersand" horiz-adv-x="779" d="M387 660Q356 660 338 625T319 528Q319 506 321 484T327 438Q383 455 413 490T443 577Q443 617 429 638T387 660ZM145 206Q145 120 201 67T348 14Q381 14 412 25T472 56Q386 118 328 194T242
359Q196 338 171 298T145 206ZM741 22Q732 -2 716 -21T678 -53Q642 -39 609 -23T545 10Q502 -25 448 -43T331 -61Q200 -61 120 6T40 183Q40 265 90 324T230 407Q225 432 223 457T220 511Q220 608 268 664T399 721Q462 721 500 684T539 586Q539 514 488 465T338
393Q361 317 410 251T537 130Q556 163 565 201T575 279Q575 306 572 330T563 383Q588 390 615 388T669 376Q671 354 671 331T669 278Q665 220 651 172T611 84Q639 68 671 53T741 22Z" />
<glyph unicode="&apos;" glyph-name="quotesingle" horiz-adv-x="164" d="M79 742Q89 742 99 741T122 736Q120 686 115 631T99 498Q90 495 73 494T40 495Q38 573 37 626T32 735Q39 738 51 740T79 742Z" />
<glyph unicode="(" glyph-name="parenleft" horiz-adv-x="347" d="M349 750Q232 674 171 562T110 311Q110 180 166 76T340 -115Q325 -134 310 -146T273 -168Q150 -75 87 45T23 305Q23 459 88 584T282 804Q300 796 316 783T349 750Z" />
<glyph unicode=")" glyph-name="parenright" horiz-adv-x="373" d="M-9 -114Q107 -38 169 76T232 324Q232 455 177 562T13 752Q28 770 43 782T80 804Q195 717 257 594T320 330Q320 180 253 53T57 -168Q39 -159 23 -146T-9 -114Z" />
<glyph unicode="*" glyph-name="asterisk" horiz-adv-x="457" d="M254 462Q256 421 259 386T268 312Q259 309 246 307T221 304Q213 304 207 304T191 307Q190 336 191 372T199 461Q172 443 144 424T76 376Q67 384 59 394T46 414Q42 421 39 427T34 441Q60 457 91
472T172 512Q142 528 112 542T36 575Q40 592 44 602T53 620Q57 628 64 636T71 645Q98 631 128 611T200 562Q198 599 194 653T189 709Q198 712 211 714T235 717Q242 717 248 717T266 714Q266 677 264 640T258 557Q289 577 317 597T380 645Q389 637 397 627T411 607Q413
604 416 598T423 580Q401 566 372 551T286 510Q320 493 351 478T420 446Q418 435 414 423T403 401Q401 397 397 391T386 376Q362 389 334 407T254 462Z" />
<glyph unicode="+" glyph-name="plus" horiz-adv-x="397" d="M237 300Q236 263 234 230T227 168Q210 166 193 166T158 168Q162 201 164 233T167 299Q124 301 92 303T31 310Q31 328 32 343T37 379Q78 374 108 372T167 369Q166 395 165 425T159 497Q177 500 193
500T227 500Q231 472 233 440T237 369Q268 370 301 372T371 378Q371 360 369 343T362 310Q334 306 303 304T237 300Z" />
<glyph unicode="," glyph-name="comma" horiz-adv-x="173" d="M51 96Q78 98 104 96T152 89Q149 10 132 -65T81 -225Q61 -223 44 -220T9 -212Q29 -132 39 -58T51 96Z" />
<glyph unicode="-" glyph-name="hyphen" horiz-adv-x="306" d="M269 240Q203 230 133 231T28 246Q27 275 29 294T37 333Q59 328 95 325T167 322Q209 322 233 323T278 327Q278 299 276 278T269 240Z" />
<glyph unicode="." glyph-name="period" horiz-adv-x="191" d="M42 90Q74 97 102 98T160 94Q158 56 156 35T151 -7Q124 -10 100 -10T46 -7Q46 -6 44 29T42 90Z" />
<glyph unicode="/" glyph-name="slash" horiz-adv-x="464" d="M394 749Q412 745 432 734T470 707Q385 504 269 262T34 -203Q12 -195 -7 -186T-37 -167Q46 -20 167 237T394 749Z" />
<glyph unicode="0" glyph-name="zero" horiz-adv-x="542" d="M36 306Q36 476 108 574T303 673Q398 673 451 598T505 392Q505 200 439 90T252 -20Q153 -20 95 70T36 306ZM396 347Q396 476 368 537T282 598Q220 598 182 523T144 321Q144 203 179 129T271 54Q328
54 362 134T396 347Z" />
<glyph unicode="1" glyph-name="one" horiz-adv-x="375" d="M250 -34Q241 -39 229 -41T201 -44Q191 -45 183 -45T163 -42Q165 14 168 56T177 150Q183 235 197 334T232 526Q200 501 162 475T77 418Q57 434 44 452T19 495Q101 537 175 587T312 695Q332 686 347 677T374
654Q337 559 302 364T250 -34Z" />
<glyph unicode="2" glyph-name="two" horiz-adv-x="432" d="M403 55Q402 30 397 8T383 -36Q268 -29 170 -15T0 19Q0 40 2 55T10 85Q161 195 230 288T300 474Q300 520 280 547T225 574Q188 574 162 536T122 423Q96 423 71 428T24 444Q46 540 99 590T229 641Q309
641 358 593T408 466Q408 370 338 274T118 70Q209 61 271 58T403 55Z" />
<glyph unicode="3" glyph-name="three" horiz-adv-x="446" d="M434 162Q434 67 376 5T231 -57Q143 -57 90 2T31 167Q52 176 76 180T129 186Q129 104 158 57T234 10Q278 10 302 43T326 137Q326 225 275 271T130 314Q125 337 124 350T122 378Q181 415 227 456T309
546Q228 540 159 530T24 503Q18 522 16 544T16 591Q112 612 214 624T407 637Q412 621 415 600T418 552Q382 496 342 454T244 368Q338 348 386 296T434 162Z" />
<glyph unicode="4" glyph-name="four" horiz-adv-x="539" d="M378 129Q375 93 373 52T368 -37Q356 -40 343 -41T315 -42Q305 -42 297 -41T281 -37Q280 5 280 25T279 62Q279 94 279 109T280 139Q208 147 146 155T32 172Q28 180 25 189T14 227Q104 360 158 474T263
755Q285 754 309 748T367 727Q318 592 262 475T135 250Q167 243 203 237T285 224Q289 281 295 324T308 401Q319 408 334 411T372 415Q382 416 395 415T423 410Q412 375 403 326T386 212Q412 209 443 207T536 201Q534 179 529 157T516 120Q483 122 448 124T378 129Z"
/>
<glyph unicode="5" glyph-name="five" horiz-adv-x="453" d="M411 196Q411 93 356 28T211 -37Q119 -37 65 25T5 200Q20 200 37 199T108 188Q108 111 134 71T209 30Q255 30 279 66T303 172Q303 245 268 288T172 331Q153 331 136 327T102 316Q90 325 79 336T61 356Q60
369 60 383T59 428Q59 488 65 551T81 671Q181 649 260 640T442 629Q441 605 436 581T421 535Q349 540 291 547T164 568Q156 510 154 469T153 395Q168 401 187 404T225 407Q310 407 360 350T411 196Z" />
<glyph unicode="6" glyph-name="six" horiz-adv-x="506" d="M301 385Q380 385 430 332T480 197Q480 91 420 21T258 -50Q153 -50 95 41T37 293Q37 476 108 583T300 691Q375 691 419 646T478 512Q457 500 435 493T384 482Q376 551 354 583T293 615Q226 615 185 530T144
302Q144 300 144 298T144 294Q174 339 213 362T301 385ZM152 194Q164 113 195 69T269 24Q314 24 342 64T371 164Q371 232 343 271T267 311Q231 311 200 280T152 194Z" />
<glyph unicode="7" glyph-name="seven" horiz-adv-x="416" d="M411 566Q305 421 239 291T111 -17Q83 -19 58 -15T7 -1Q69 166 141 303T309 569Q208 566 138 569T-9 583Q-10 608 -6 631T7 677Q130 655 219 647T408 639Q411 623 412 607T411 566Z" />
<glyph unicode="8" glyph-name="eight" horiz-adv-x="498" d="M461 227Q461 126 396 60T223 -6Q139 -6 88 43T36 170Q36 228 64 277T142 355Q96 375 69 418T42 515Q42 609 103 666T267 723Q349 723 400 679T451 563Q451 501 426 452T355 375Q404 355 432 316T461
227ZM246 398Q290 398 316 435T343 533Q343 592 319 625T251 658Q207 658 179 619T150 521Q150 466 175 432T246 398ZM241 58Q290 58 321 102T353 214Q353 267 327 299T255 331Q208 331 176 290T143 186Q143 128 170 93T241 58Z" />
<glyph unicode="9" glyph-name="nine" horiz-adv-x="518" d="M151 478Q151 409 179 371T258 332Q300 332 330 365T374 460Q365 545 336 590T260 636Q212 636 182 592T151 478ZM486 392Q486 210 404 90T197 -30Q146 -30 105 -11T32 47Q44 72 58 90T89 125Q108 88
139 69T209 49Q276 49 322 128T377 336Q348 297 311 277T230 257Q148 257 95 314T42 460Q42 569 103 640T262 711Q366 711 426 626T486 392Z" />
<glyph unicode=":" glyph-name="colon" horiz-adv-x="195" d="M102 548Q117 548 131 546T157 540Q158 508 158 483T156 438Q125 437 99 438T44 441Q43 452 43 463T41 497Q40 515 39 524T38 542Q53 545 69 546T102 548ZM44 96Q75 101 104 102T163 101Q163 57 163
36T160 -5Q129 -6 98 -5T47 0Q47 8 47 16T46 39Q45 61 45 72T44 96Z" />
<glyph unicode=";" glyph-name="semicolon" horiz-adv-x="194" d="M164 540Q165 508 165 483T163 438Q132 437 106 438T51 441Q50 452 50 463T48 497Q47 515 46 524T45 542Q60 545 76 546T109 548Q124 548 138 546T164 540ZM54 97Q81 97 107 96T155 91Q155 14
138 -62T82 -224Q62 -222 45 -219T12 -210Q35 -118 45 -47T54 97Z" />
<glyph unicode="&lt;" glyph-name="less" horiz-adv-x="396" d="M365 211Q362 193 357 179T344 148Q256 181 172 226T30 318L32 363Q94 409 176 453T345 532Q355 511 359 498T367 470Q295 439 235 407T120 339Q167 307 227 276T365 211Z" />
<glyph unicode="=" glyph-name="equal" horiz-adv-x="397" d="M34 358Q34 376 35 392T40 428Q118 418 197 418T374 426Q374 409 372 392T365 358Q289 348 201 348T34 358ZM22 221Q22 239 23 255T28 291Q107 281 186 281T362 289Q362 269 360 253T354 221Q278 211
190 211T22 221Z" />
<glyph unicode="&gt;" glyph-name="greater" horiz-adv-x="396" d="M51 149Q40 172 36 184T29 212Q101 243 161 274T277 342Q230 374 171 405T31 471Q34 489 39 503T53 533Q140 500 224 455T366 364L364 319Q301 272 219 228T51 149Z" />
<glyph unicode="?" glyph-name="question" horiz-adv-x="423" d="M230 218Q218 216 199 215T155 213Q147 277 143 319T138 395Q210 410 247 455T285 571Q285 630 264 664T204 698Q160 698 136 653T111 528Q84 528 60 532T15 545Q21 653 70 708T210 763Q291 763
342 710T394 573Q394 500 352 446T232 368Q232 348 232 324T230 218ZM249 48Q251 29 251 19T253 -2Q241 -5 230 -6T202 -8Q190 -9 177 -7T151 -1Q149 21 149 45T149 96Q168 97 185 97T246 96Q247 87 247 77T249 48Z" />
<glyph unicode="@" glyph-name="at" horiz-adv-x="889" d="M649 -42Q598 -73 540 -88T416 -103Q244 -103 141 3T38 286Q38 484 155 603T468 723Q639 723 737 623T835 358Q835 238 777 162T633 85Q582 85 549 111T501 187Q483 141 455 119T388 96Q328 96 292 149T256
290Q256 400 306 465T441 531Q449 531 458 530T484 525Q484 531 484 537T484 549Q510 555 533 556T579 552Q574 475 572 419T570 309Q570 221 586 181T640 141Q691 141 724 202T758 360Q758 497 678 578T456 659Q303 659 211 562T119 305Q119 146 200 55T424 -37Q481
-37 524 -24T604 18Q618 6 628 -7T649 -42ZM343 303Q343 236 360 199T409 161Q439 161 460 190T492 275Q491 306 490 350T486 468Q478 471 469 472T449 473Q402 473 373 427T343 303Z" />
<glyph unicode="A" glyph-name="A" horiz-adv-x="628" d="M613 -74Q592 -86 567 -94T507 -107Q495 -22 481 54T450 201Q379 201 315 197T197 184Q176 131 153 79T103 -24Q75 -19 53 -7T13 24Q99 178 155 327T267 706Q300 705 323 703T369 694Q465 519 521 341T613
-74ZM318 581Q296 488 274 410T226 262Q279 269 330 273T430 278Q408 359 381 433T318 581Z" />
<glyph unicode="B" glyph-name="B" horiz-adv-x="590" d="M555 261Q555 144 464 62T242 -20Q202 -20 162 -9T91 21Q82 178 78 293T74 538Q74 548 74 602T74 697Q119 718 168 729T269 740Q382 740 443 697T505 577Q505 525 479 485T399 418Q474 404 514 364T555
261ZM398 563Q398 616 363 644T262 672Q247 672 228 670T188 662Q184 608 182 549T178 410Q291 422 344 459T398 563ZM181 67Q200 59 218 55T254 51Q332 51 388 107T445 237Q445 298 411 327T306 357Q279 357 244 350T177 332Q177 311 177 291T177 249Q177 211
178 173T181 67Z" />
<glyph unicode="C" glyph-name="C" horiz-adv-x="564" d="M427 225Q452 227 474 223T512 208Q506 90 447 28T280 -35Q168 -35 106 46T43 276Q43 459 125 576T338 693Q426 693 471 636T516 467Q494 455 471 450T412 445Q417 536 395 578T319 620Q252 620 206 530T159
300Q159 174 195 107T301 39Q364 39 398 89T427 225Z" />
<glyph unicode="D" glyph-name="D" horiz-adv-x="589" d="M553 443Q553 294 448 169T171 -10Q156 -10 125 -7T79 -1Q68 160 64 278T59 508Q59 548 60 591T62 671Q112 695 160 706T263 717Q405 717 479 647T553 443ZM177 633Q170 534 168 448T165 220Q165 189 165
157T167 69Q302 122 372 217T442 444Q442 541 392 593T248 645Q232 645 215 642T177 633Z" />
<glyph unicode="E" glyph-name="E" horiz-adv-x="541" d="M503 -12Q429 -24 326 -31T128 -41Q100 140 81 342T60 688Q192 713 285 723T479 735Q480 714 478 692T471 646Q395 646 324 641T181 626Q179 569 179 511T183 392Q263 408 317 415T426 427Q431 406 433
386T434 342Q358 337 303 332T188 316Q192 257 199 187T216 42Q286 44 360 52T495 74Q500 60 502 35T503 -12Z" />
<glyph unicode="F" glyph-name="F" horiz-adv-x="520" d="M205 -70Q184 -75 160 -77T106 -80Q109 139 97 346T56 720Q162 728 250 739T473 774Q476 764 478 752T481 728Q482 718 481 708T478 681Q358 663 299 656T186 645Q192 594 197 537T205 414Q258 425 310
431T415 440Q420 421 422 402T424 354Q373 352 318 347T207 335Q207 333 207 331T207 327Q209 205 209 116T205 -70Z" />
<glyph unicode="G" glyph-name="G" horiz-adv-x="586" d="M513 349Q511 252 523 162T562 -19Q545 -24 524 -26T481 -30Q468 0 457 32T437 99Q401 38 354 9T246 -21Q153 -21 98 62T43 290Q43 480 120 602T321 724Q406 724 455 662T507 494Q483 487 457 483T398
478Q394 565 369 608T299 651Q236 651 196 559T155 323Q155 198 186 131T275 64Q322 64 357 100T414 205Q409 232 406 264T400 337Q425 343 453 346T513 349Z" />
<glyph unicode="H" glyph-name="H" horiz-adv-x="623" d="M534 727Q543 547 549 323T555 -56Q528 -56 497 -53T449 -45Q449 20 448 119T444 329Q363 328 297 324T174 312Q175 215 176 142T181 16Q163 11 136 8T86 6Q74 191 68 369T61 698Q73 705 91 709T131 714Q145
714 158 713T185 707Q180 658 178 579T174 392Q239 403 304 408T442 415Q438 530 435 607T426 733Q443 738 455 740T480 742Q494 742 508 738T534 727Z" />
<glyph unicode="I" glyph-name="I" horiz-adv-x="258" d="M183 496Q183 330 181 214T173 -18Q158 -22 133 -25T83 -29Q86 167 81 341T62 664Q77 673 95 677T132 682Q142 682 151 681T179 677Q181 636 182 593T183 496Z" />
<glyph unicode="J" glyph-name="J" horiz-adv-x="476" d="M375 81Q355 -1 312 -44T208 -88Q136 -88 88 -24T28 151Q45 163 66 171T115 185Q129 76 149 32T207 -12Q251 -12 272 46T293 227Q293 333 285 453T262 704Q274 712 293 717T332 723Q348 724 361 724T387
721Q397 612 401 540T405 406Q405 294 398 219T375 81Z" />
<glyph unicode="K" glyph-name="K" horiz-adv-x="584" d="M581 -21Q563 -45 542 -62T493 -93Q426 25 368 101T226 260Q213 250 200 240T172 218Q174 145 179 80T194 -61Q176 -65 149 -68T100 -71Q80 66 72 183T63 440Q63 488 65 548T73 689Q89 696 108 700T145
704Q158 704 171 703T199 697Q185 609 178 518T171 316Q171 313 171 311T171 305Q260 388 316 467T439 691Q461 683 481 668T524 627Q468 525 416 454T297 322Q381 247 441 175T581 -21Z" />
<glyph unicode="L" glyph-name="L" horiz-adv-x="492" d="M475 14Q479 -2 482 -28T486 -72Q389 -73 307 -79T119 -100Q92 87 79 290T69 661Q93 668 114 671T159 674Q166 674 174 674T191 672Q185 617 183 549T180 381Q182 248 188 160T207 -11Q273 1 343 7T475 14Z" />
<glyph unicode="M" glyph-name="M" horiz-adv-x="763" d="M692 -36Q666 -46 640 -50T583 -55Q593 86 597 243T601 593Q545 500 501 401T418 186Q403 181 385 180T349 181Q309 297 264 394T163 580Q162 566 162 549T162 495Q162 383 174 258T211 8Q195 3 168 0T112
-4Q88 149 76 348T69 716Q94 732 121 743T173 758Q242 662 298 552T391 330Q427 436 478 541T598 758Q623 754 646 747T690 730Q697 588 697 385T692 -36Z" />
<glyph unicode="N" glyph-name="N" horiz-adv-x="648" d="M176 293Q177 226 181 147T191 -30Q174 -35 150 -38T103 -41Q83 190 74 356T65 672Q67 673 68 673T71 675Q97 688 123 695T184 706Q276 584 345 462T475 192Q476 219 476 251T477 352Q477 485 473 582T459
739Q492 749 518 753T572 758Q576 674 577 631T578 549Q578 399 573 277T557 26Q532 22 510 19T465 15Q391 188 322 314T175 541Q175 503 175 457T176 293Z" />
<glyph unicode="O" glyph-name="O" horiz-adv-x="611" d="M336 733Q449 733 508 648T568 403Q568 330 551 257T503 127Q464 55 406 18T275 -20Q168 -20 104 78T39 335Q39 509 122 621T336 733ZM291 56Q369 56 412 144T456 377Q456 522 423 589T316 656Q243 656
197 572T151 351Q151 222 188 139T291 56Z" />
<glyph unicode="P" glyph-name="P" horiz-adv-x="570" d="M171 227Q172 160 175 92T186 -68Q165 -69 138 -67T94 -62Q78 111 72 241T66 538Q66 574 68 622T73 708Q122 725 174 733T276 742Q398 742 464 691T531 547Q531 441 441 361T171 227ZM187 662Q179 578
175 495T171 309Q171 308 171 307T171 303Q294 335 357 392T420 531Q420 599 380 636T265 673Q245 673 225 670T187 662Z" />
<glyph unicode="Q" glyph-name="Q" horiz-adv-x="610" d="M595 -42Q587 -61 571 -78T530 -111Q502 -70 479 -39T432 20Q397 -10 356 -25T267 -40Q162 -40 101 46T39 276Q39 450 122 561T335 673Q446 673 505 593T564 365Q564 285 544 211T485 80Q511 56 537 26T595
-42ZM149 291Q149 175 185 106T283 36Q310 36 334 47T377 80Q357 100 337 119T295 155Q305 172 314 182T334 199Q353 187 372 173T416 141Q434 181 443 231T452 339Q452 470 420 533T320 596Q243 596 196 512T149 291Z" />
<glyph unicode="R" glyph-name="R" horiz-adv-x="580" d="M566 15Q552 1 525 -12T470 -34Q412 95 373 168T287 308Q268 301 246 294T191 276Q188 197 184 128T174 -5Q154 -7 128 -6T84 0Q89 116 89 145T90 202Q90 355 85 460T64 698Q108 732 166 751T284 770Q390
770 451 717T512 574Q512 504 476 447T369 347Q418 288 467 206T566 15ZM181 680Q187 603 189 535T192 394Q192 383 192 372T192 348Q299 375 350 426T402 559Q402 627 368 663T272 700Q250 700 227 695T181 680Z" />
<glyph unicode="S" glyph-name="S" horiz-adv-x="495" d="M416 300Q436 270 446 236T456 160Q456 72 398 16T251 -40Q146 -40 84 34T22 221Q42 231 67 238T114 246Q113 146 147 89T244 31Q291 31 318 61T346 141Q346 188 323 226T222 323Q173 360 151 381T113
426Q92 456 82 491T72 568Q72 658 126 712T272 767Q355 767 402 722T469 575Q453 565 432 560T376 551Q367 626 342 659T269 693Q228 693 206 666T184 588Q184 538 207 499T309 401Q357 365 379 344T416 300Z" />
<glyph unicode="T" glyph-name="T" horiz-adv-x="588" d="M370 36Q350 30 325 27T271 24Q275 177 266 357T237 682Q190 677 140 671T31 657Q25 676 22 697T19 741Q172 768 290 779T554 792Q557 782 559 771T562 744Q562 736 562 727T558 699Q497 698 449 697T356
692Q367 583 372 479T378 259Q378 207 376 151T370 36Z" />
<glyph unicode="U" glyph-name="U" horiz-adv-x="561" d="M464 707Q487 615 498 535T509 380Q509 150 444 35T247 -80Q147 -80 98 7T49 270Q49 364 64 466T101 627Q111 630 128 632T160 634Q174 634 185 632T205 627Q185 535 175 452T164 297Q164 143 188 71T265
-2Q327 -2 361 85T396 327Q396 419 385 507T350 687Q373 696 404 701T464 707Z" />
<glyph unicode="V" glyph-name="V" horiz-adv-x="574" d="M546 743Q519 514 465 326T305 -85Q288 -91 266 -93T216 -96Q146 70 96 245T16 608Q43 620 70 627T129 635Q149 469 185 315T273 26Q344 201 384 373T446 763Q470 762 494 758T546 743Z" />
<glyph unicode="W" glyph-name="W" horiz-adv-x="788" d="M389 343Q366 235 336 139T265 -54Q243 -60 222 -63T182 -68Q108 154 71 312T11 651Q38 660 66 665T127 672Q137 533 163 394T238 81Q284 217 308 321T348 542Q375 548 405 552T459 556Q468 429 485 323T533
99Q594 256 629 401T681 710Q709 709 734 701T782 677Q751 482 698 315T558 -27Q538 -31 519 -33T477 -37Q433 119 416 197T389 343Z" />
<glyph unicode="X" glyph-name="X" horiz-adv-x="643" d="M587 19Q574 5 554 -9T509 -35Q461 75 419 160T337 317Q269 232 205 159T68 14Q52 24 36 39T11 69Q112 180 173 253T289 398Q238 483 181 558T54 708Q77 728 103 745T157 773Q222 691 271 621T362 483Q412
554 452 618T527 748Q548 738 569 720T604 681Q564 617 517 550T408 402Q451 325 493 234T587 19Z" />
<glyph unicode="Y" glyph-name="Y" horiz-adv-x="525" d="M497 679Q426 397 354 226T179 -88Q156 -81 133 -71T94 -49Q135 11 169 70T231 189Q154 292 102 411T9 697Q36 712 63 720T121 730Q142 607 179 503T275 292Q310 383 337 486T386 718Q417 713 444 704T497 679Z" />
<glyph unicode="Z" glyph-name="Z" horiz-adv-x="586" d="M529 72Q528 43 523 17T508 -34Q394 -33 264 -23T20 5Q19 30 21 52T28 91Q168 237 267 361T434 599Q342 606 256 616T80 642Q81 671 87 694T106 739Q210 718 318 700T563 662Q559 628 556 611T549 585Q477
475 375 351T126 72Q235 65 335 65T529 72Z" />
<glyph unicode="[" glyph-name="bracketleft" horiz-adv-x="373" d="M353 -54Q357 -67 359 -89T362 -128Q308 -136 249 -139T127 -142Q96 61 79 294T61 754Q127 769 186 777T306 788Q306 766 305 748T302 715Q264 714 229 712T161 705Q152 519 161 338T198 -68Q230
-68 272 -64T353 -54Z" />
<glyph unicode="\" glyph-name="backslash" horiz-adv-x="464" d="M71 750Q53 746 33 735T-5 708Q80 505 196 263T431 -202Q453 -194 472 -185T502 -166Q419 -19 298 238T71 750Z" />
<glyph unicode="]" glyph-name="bracketright" horiz-adv-x="355" d="M258 804Q281 669 284 425T271 -86Q213 -98 155 -105T32 -117Q31 -100 32 -81T36 -43Q86 -41 122 -39T189 -32Q204 165 200 355T171 729Q136 729 96 726T21 715Q17 728 15 750T12 790Q69 798
131 801T258 804Z" />
<glyph unicode="^" glyph-name="asciicircum" horiz-adv-x="420" d="M401 203Q374 192 363 189T339 182Q308 254 276 314T208 429Q176 382 145 322T80 184Q62 187 48 192T18 205Q50 292 95 376T187 519L232 517Q278 456 322 374T401 203Z" />
<glyph unicode="_" glyph-name="underscore" horiz-adv-x="419" d="M413 -108Q320 -121 216 -119T33 -100Q34 -82 35 -65T41 -27Q85 -34 149 -38T267 -43Q303 -43 341 -42T422 -36Q422 -51 420 -69T413 -108Z" />
<glyph unicode="`" glyph-name="grave" horiz-adv-x="260" d="M155 749Q159 711 168 670T193 582Q177 578 161 576T127 572Q98 620 82 662T61 743Q79 750 105 751T155 749Z" />
<glyph unicode="a" glyph-name="a" horiz-adv-x="476" d="M423 345Q423 278 405 168T362 -35Q342 -35 320 -32T277 -22Q280 -5 283 9T289 34Q267 20 241 13T186 6Q114 6 70 43T26 144Q26 211 82 245T247 279Q265 279 280 279T319 277Q319 288 319 298T319 319Q319
403 301 440T243 477Q202 477 175 439T145 341Q109 344 86 357T52 392Q65 455 122 499T254 543Q338 543 380 493T423 345ZM133 139Q133 106 154 86T211 66Q236 66 258 73T300 95Q307 132 311 163T316 226Q224 229 179 208T133 139Z" />
<glyph unicode="b" glyph-name="b" horiz-adv-x="476" d="M439 293Q439 144 373 52T200 -40Q161 -40 128 -29T63 7Q59 69 57 157T55 342Q55 451 59 547T71 703Q83 709 103 712T149 715Q159 715 168 714T194 710Q185 656 178 588T164 443Q188 476 219 492T290 509Q363
509 401 454T439 293ZM155 53Q166 43 179 39T207 34Q267 34 299 105T331 303Q331 369 312 403T255 437Q226 437 201 409T157 330Q156 292 155 254T154 180Q154 120 154 96T155 53Z" />
<glyph unicode="c" glyph-name="c" horiz-adv-x="447" d="M416 369Q396 359 372 355T317 350Q317 415 301 446T252 478Q203 478 168 395T132 205Q132 129 156 86T225 42Q260 42 292 72T350 158Q368 154 384 143T411 117Q395 59 338 17T207 -25Q120 -25 73 34T26
199Q26 344 91 442T256 541Q332 541 374 495T416 369Z" />
<glyph unicode="d" glyph-name="d" horiz-adv-x="493" d="M424 -31Q407 -36 384 -39T344 -42Q341 -12 338 19T333 82Q313 25 282 -2T203 -30Q123 -30 78 40T32 229Q32 364 94 444T263 525Q276 525 289 524T315 519Q314 606 314 644T313 712Q326 718 346 722T387
727Q398 727 409 726T434 721Q427 654 424 523T421 117Q421 76 421 44T424 -31ZM136 243Q136 150 160 99T226 47Q264 47 289 92T325 224Q322 276 320 334T316 453Q307 456 296 457T273 458Q211 458 174 401T136 243Z" />
<glyph unicode="e" glyph-name="e" horiz-adv-x="461" d="M148 321Q173 312 202 308T260 303Q269 303 282 304T301 307Q308 334 311 357T315 401Q315 440 303 456T263 473Q227 473 196 431T148 321ZM347 175Q368 171 390 160T427 132Q409 76 348 32T215 -13Q128
-13 79 49T30 217Q30 341 101 439T271 538Q336 538 374 499T412 395Q412 361 406 325T388 261Q365 252 333 248T254 243Q226 243 196 247T137 261Q136 241 136 233T135 218Q135 144 160 99T227 54Q261 54 297 90T347 175Z" />
<glyph unicode="f" glyph-name="f" horiz-adv-x="403" d="M189 376Q193 277 207 174T239 -2Q215 -10 185 -15T129 -21Q116 38 104 162T90 388Q70 391 53 395T25 404Q25 417 28 435T36 458Q46 457 59 456T91 452Q97 590 139 658T258 727Q315 727 348 691T382 597Q382
582 379 566T371 539Q350 539 330 542T290 552Q294 567 296 579T298 602Q298 628 287 643T257 658Q223 658 205 604T187 448V446Q219 445 235 445T264 444Q286 444 308 445T349 450Q349 436 347 417T342 379Q331 376 313 375T266 373Q246 373 227 374T189 376Z"
/>
<glyph unicode="g" glyph-name="g" horiz-adv-x="481" d="M147 264Q147 177 172 127T239 76Q265 76 285 102T320 179Q319 254 311 322T287 447Q280 449 271 450T251 451Q199 451 173 405T147 264ZM426 169Q426 -33 369 -140T207 -247Q136 -247 93 -204T39 -87Q57
-74 81 -64T131 -48Q142 -117 161 -147T215 -178Q258 -178 284 -115T318 70Q298 37 273 21T215 4Q134 4 87 71T39 252Q39 380 97 451T261 522Q292 522 327 515T391 496Q406 434 416 341T426 169Z" />
<glyph unicode="h" glyph-name="h" horiz-adv-x="497" d="M447 330Q447 249 423 139T371 -32Q348 -31 326 -25T280 -8Q309 74 325 163T342 329Q342 399 329 426T281 453Q248 453 214 416T156 316Q155 306 155 296T155 263Q155 217 159 148T167 37Q153 33 125 30T72
27Q64 129 60 229T56 419Q56 501 61 595T73 738Q87 746 108 750T151 755Q158 755 170 753T200 747Q186 680 176 598T160 427Q189 476 227 503T308 530Q381 530 414 482T447 330Z" />
<glyph unicode="i" glyph-name="i" horiz-adv-x="229" d="M162 744Q179 744 193 741T219 731Q209 707 199 675T183 615Q168 612 146 611T94 611Q91 623 90 634T89 656Q89 676 92 697T102 733Q115 740 129 742T162 744ZM70 500Q85 508 104 512T143 517Q153 517
163 516T182 513Q161 417 151 276T146 1Q135 -4 119 -7T87 -10Q79 -10 73 -10T61 -7Q45 121 47 256T70 500Z" />
<glyph unicode="j" glyph-name="j" horiz-adv-x="251" d="M156 740Q148 716 140 682T128 619Q114 615 94 613T36 609Q32 625 30 640T26 670Q25 692 27 708T33 739Q47 746 61 749T95 752Q116 751 130 749T156 740ZM190 206Q190 12 143 -91T7 -194Q-38 -194 -73
-172T-134 -106Q-123 -83 -109 -67T-80 -43Q-62 -77 -43 -93T-1 -110Q42 -110 64 -49T86 131Q86 212 72 308T27 526Q52 534 85 537T152 538Q172 438 181 358T190 206Z" />
<glyph unicode="k" glyph-name="k" horiz-adv-x="478" d="M149 225Q149 154 153 90T166 -39Q145 -45 122 -48T73 -51Q60 60 56 138T51 302Q51 418 58 536T79 737Q104 739 138 735T194 723Q177 634 166 529T151 320Q209 372 257 429T366 578Q385 568 404 552T437
517Q392 452 344 401T227 293Q271 234 323 187T458 84Q433 51 416 36T380 13Q318 63 270 115T166 245Q163 243 158 239T149 233Q149 231 149 229T149 225Z" />
<glyph unicode="l" glyph-name="l" horiz-adv-x="228" d="M166 -50Q152 -54 123 -57T73 -61Q57 157 53 349T57 724Q71 732 89 737T124 742Q138 742 151 741T177 735Q162 588 159 368T166 -50Z" />
<glyph unicode="m" glyph-name="m" horiz-adv-x="745" d="M688 378Q688 287 671 171T630 -27Q600 -26 574 -22T527 -12Q555 100 569 198T583 379Q583 434 570 458T528 483Q500 483 472 452T422 365Q423 359 423 351T423 326Q423 254 411 162T384 11Q365 11 341
14T286 25Q305 128 313 198T321 323Q321 378 308 402T266 427Q235 427 205 398T155 316Q154 241 154 209T153 151Q153 105 154 60T158 -9Q142 -14 117 -18T69 -22Q59 104 52 263T44 527Q58 534 78 538T120 542Q134 542 145 541T168 537Q165 514 163 484T159 416Q189
464 227 488T308 513Q344 513 368 497T405 447Q439 508 480 538T571 569Q631 569 659 523T688 378Z" />
<glyph unicode="n" glyph-name="n" horiz-adv-x="493" d="M153 151Q153 98 154 50T159 -25Q142 -30 117 -33T70 -37Q62 72 55 239T48 521Q61 527 82 531T124 535Q137 535 149 534T172 530Q169 506 167 480T164 426Q196 478 232 504T311 530Q375 530 405 484T436
339Q436 259 423 161T396 11Q377 11 352 14T296 25Q314 124 322 200T331 340Q331 395 317 419T272 444Q241 444 211 412T158 323Q156 273 155 230T153 151Z" />
<glyph unicode="o" glyph-name="o" horiz-adv-x="474" d="M28 240Q28 372 93 456T260 540Q342 540 389 483T436 325Q436 179 375 85T210 -10Q126 -10 77 59T28 240ZM328 280Q328 377 306 423T237 470Q194 470 163 408T132 254Q132 172 158 116T230 59Q270 59 299
124T328 280Z" />
<glyph unicode="p" glyph-name="p" horiz-adv-x="480" d="M159 95Q171 85 183 80T210 75Q262 75 300 155T338 354Q338 410 320 441T270 473Q233 473 205 440T159 342Q158 297 158 272T157 223Q157 197 157 168T159 95ZM164 14Q167 -32 171 -79T188 -211Q171 -216
146 -219T98 -223Q81 -103 70 56T59 349Q59 408 61 455T68 548Q83 556 104 560T149 565Q157 565 164 564T187 560Q182 538 178 514T169 463Q197 511 234 535T314 560Q375 560 410 507T446 363Q446 211 378 111T210 10Q200 10 189 11T164 14Z" />
<glyph unicode="q" glyph-name="q" horiz-adv-x="515" d="M407 -231Q397 -236 382 -238T350 -241Q338 -241 332 -240T318 -236Q316 -218 313 -131T309 31Q287 -9 260 -29T199 -50Q124 -50 81 17T37 196Q37 343 103 429T282 516Q294 516 310 514T345 506Q348 520
350 532T354 553Q369 561 385 564T424 568Q435 568 448 566T475 561Q439 440 420 215T407 -231ZM141 208Q141 124 163 76T222 27Q253 27 274 52T310 132Q311 200 318 282T335 440Q321 444 308 446T280 448Q217 448 179 385T141 208Z" />
<glyph unicode="r" glyph-name="r" horiz-adv-x="396" d="M149 246Q152 191 159 130T177 -2Q163 -7 148 -9T116 -10Q106 -10 98 -9T81 -5Q56 121 47 263T45 538Q57 542 72 544T105 546Q118 546 132 544T162 537Q158 510 155 482T149 420Q172 491 210 533T288 575Q332
575 354 542T377 442Q377 431 376 418T374 392Q359 386 337 384T283 383Q285 397 286 409T287 433Q287 463 280 478T257 494Q225 494 196 427T149 246Z" />
<glyph unicode="s" glyph-name="s" horiz-adv-x="403" d="M243 298Q319 245 343 208T367 124Q367 53 317 6T191 -41Q116 -41 69 10T21 142Q37 149 59 152T100 155Q98 93 122 58T191 22Q225 22 244 43T264 102Q264 133 246 160T164 231Q88 285 64 324T40 411Q40
478 83 519T200 560Q270 560 311 523T366 407Q349 397 329 392T280 384Q271 441 252 466T200 492Q174 492 158 475T142 427Q142 396 161 369T243 298Z" />
<glyph unicode="t" glyph-name="t" horiz-adv-x="392" d="M281 213Q301 211 320 204T356 186Q354 104 320 57T225 9Q154 9 116 81T78 291Q78 337 80 380T88 465Q64 469 47 472T15 478Q15 495 19 512T29 542Q44 538 61 535T97 530Q102 563 109 596T124 661Q159
659 187 655T235 644Q227 620 220 589T205 522Q244 521 282 522T357 528Q357 514 354 498T345 465Q309 461 271 459T195 458Q188 412 185 366T181 277Q181 178 194 128T233 77Q256 77 268 110T281 213Z" />
<glyph unicode="u" glyph-name="u" horiz-adv-x="443" d="M201 -10Q120 -10 79 61T37 268Q37 337 49 410T78 515Q89 519 102 521T127 523Q140 523 151 521T171 514Q157 462 150 403T143 276Q143 180 162 121T217 61Q257 61 278 129T299 321Q299 362 295 406T287
469Q307 478 337 483T395 488Q400 467 402 435T405 364Q405 181 354 86T201 -10Z" />
<glyph unicode="v" glyph-name="v" horiz-adv-x="458" d="M436 513Q401 374 359 263T246 17Q234 12 214 10T159 8Q131 155 91 288T-1 544Q22 556 51 563T111 572Q143 485 169 380T223 127Q267 232 297 339T340 540Q364 537 388 530T436 513Z" />
<glyph unicode="w" glyph-name="w" horiz-adv-x="697" d="M494 -21Q479 -26 455 -30T412 -35Q397 67 379 153T337 325Q312 238 287 168T225 19Q207 14 181 10T135 5Q86 138 56 262T9 527Q34 536 61 541T120 548Q132 413 149 312T195 114Q231 201 254 286T295 471Q322
477 346 480T390 484Q418 406 440 310T479 103Q520 207 546 307T585 502Q612 499 635 492T678 472Q638 313 597 205T494 -21Z" />
<glyph unicode="x" glyph-name="x" horiz-adv-x="500" d="M464 14Q451 1 430 -12T387 -34Q359 24 326 84T254 207Q204 149 152 96T41 -11Q28 -2 16 12T-7 44Q47 96 101 154T210 277Q172 335 132 389T48 493Q73 513 100 529T153 555Q192 498 224 450T283 356Q312
394 342 438T415 549Q433 537 449 520T485 475Q452 430 415 384T328 279Q367 210 400 145T464 14Z" />
<glyph unicode="y" glyph-name="y" horiz-adv-x="477" d="M422 188Q422 -14 367 -120T210 -227Q142 -227 100 -185T48 -67Q68 -53 92 -43T140 -29Q151 -100 169 -129T218 -159Q259 -159 284 -94T314 95Q290 56 260 37T192 17Q124 17 81 81T37 250Q37 318 46 377T85
533Q109 532 134 529T185 518Q162 435 153 378T144 255Q144 186 166 143T225 100Q252 100 275 124T316 198Q314 283 304 360T275 495Q295 507 326 512T387 515Q402 454 412 361T422 188Z" />
<glyph unicode="z" glyph-name="z" horiz-adv-x="467" d="M407 66Q406 43 401 20T387 -25Q279 -24 185 -13T13 22Q13 41 15 57T20 87Q97 190 171 274T329 438Q273 446 214 450T61 458Q63 488 67 506T81 547Q192 539 272 525T437 483Q435 461 431 444T422 414Q322
314 250 232T115 66Q208 58 272 58T407 66Z" />
<glyph unicode="{" glyph-name="braceleft" horiz-adv-x="310" d="M279 -154Q260 -162 242 -165T198 -168Q140 -168 103 -131T65 -34Q65 2 76 33T114 106Q141 147 151 171T161 216Q161 245 143 262T96 280Q80 280 69 279T46 275Q40 298 40 325T44 374Q58 371 69
370T92 369Q122 369 139 387T156 435Q156 453 149 471T108 539Q79 582 68 613T57 679Q57 739 94 777T189 816Q213 816 232 813T269 802Q271 789 268 772T257 738Q245 744 235 746T212 748Q183 748 166 728T148 672Q148 649 156 627T191 563Q220 517 229 490T238
436Q238 399 218 370T162 327Q199 315 221 286T243 217Q243 190 235 164T199 93Q173 50 165 26T157 -23Q157 -59 174 -79T220 -100Q232 -100 242 -98T266 -89Q274 -106 277 -123T279 -154Z" />
<glyph unicode="|" glyph-name="bar" horiz-adv-x="268" d="M176 -162Q161 -166 141 -168T106 -169Q96 4 91 237T86 713Q106 722 132 725T181 725Q171 566 170 286T176 -162Z" />
<glyph unicode="}" glyph-name="braceright" horiz-adv-x="318" d="M247 -30Q246 -89 206 -127T105 -164Q86 -163 72 -161T44 -154Q41 -138 43 -121T52 -88Q63 -93 73 -95T95 -97Q124 -98 140 -79T157 -27Q157 -2 150 22T116 90Q91 134 83 159T75 210Q76 249 97
279T155 322Q117 336 97 366T77 437Q78 463 87 488T124 558Q153 601 162 626T171 678Q172 711 155 731T110 753Q97 753 88 752T68 745Q63 760 62 776T62 810Q78 816 93 818T128 820Q190 819 227 782T262 686Q262 651 252 622T210 547Q181 502 170 478T159 433Q159
403 176 386T222 367Q240 367 248 368T266 371Q272 347 272 319T265 271Q253 275 244 276T221 278Q193 279 176 261T158 213Q157 195 164 176T202 108Q227 70 237 39T247 -30Z" />
<glyph unicode="~" glyph-name="asciitilde" horiz-adv-x="388" d="M196 359Q223 348 236 345T260 341Q284 341 295 352T305 388Q319 389 332 387T358 379Q362 331 339 303T270 275Q253 275 234 279T181 298Q156 308 145 311T124 314Q100 314 90 303T80 268Q70
267 57 269T29 276Q25 324 48 352T116 380Q130 380 147 376T196 359Z" />
<glyph unicode="&#xa0;" glyph-name="uni00A0" horiz-adv-x="220" />
<glyph unicode="&#xa1;" glyph-name="exclamdown" horiz-adv-x="242" d="M108 559Q121 559 134 557T161 551Q162 532 162 511T161 453Q137 452 116 452T63 455Q63 457 61 492T57 554Q75 557 86 558T108 559ZM158 329Q166 209 170 107T174 -113Q174 -137 174 -149T173
-171Q154 -180 137 -184T101 -188Q88 -188 77 -187T56 -182Q70 -69 75 66T77 331Q83 333 90 333T108 334Q120 334 133 333T158 329Z" />
<glyph unicode="&#xa2;" glyph-name="cent" horiz-adv-x="451" d="M422 190Q407 134 348 90T215 46Q201 46 189 47T165 52Q157 25 146 -2T123 -52Q104 -51 84 -45T49 -28Q66 1 78 28T102 84Q69 112 52 160T34 271Q34 415 100 514T267 613Q284 613 299 611T328
604Q339 637 347 658T365 696Q381 695 399 689T436 670Q416 633 405 610T386 565Q405 542 414 511T424 441Q404 431 380 427T325 422Q325 486 309 518T260 550Q211 550 176 467T140 277Q140 200 164 157T233 114Q267 114 299 143T358 230Q376 228 395 216T422 190Z"
/>
<glyph unicode="&#xa3;" glyph-name="sterling" horiz-adv-x="463" d="M209 -6Q174 -2 158 -1T128 1Q108 1 89 -4T39 -21Q29 -6 25 8T19 37Q45 50 70 57T118 67Q141 86 152 109T163 160Q163 180 159 196T146 229Q106 228 76 228T22 230Q20 258 20 272T22 295Q34
294 49 294T100 293Q66 340 51 382T35 469Q35 557 93 615T243 673Q332 673 381 611T432 433Q410 427 384 427T330 433Q334 518 312 561T242 604Q196 604 170 567T143 464Q143 426 152 393T199 296Q245 299 294 304T388 317Q390 309 390 302T390 288Q390 278 389
267T385 247Q351 242 312 238T230 232Q234 220 236 207T238 181Q238 147 225 118T183 62Q215 57 230 57T262 56Q306 57 351 64T440 85Q449 62 452 38T452 -11Q396 -18 343 -18T209 -6Z" />
<glyph unicode="&#xa4;" glyph-name="currency" horiz-adv-x="564" d="M376 371Q376 450 354 490T288 531Q241 531 212 481T183 349Q183 278 210 230T278 181Q320 181 348 237T376 371ZM402 184Q375 152 339 136T261 119Q229 119 202 129T153 160Q132 131 110
105T66 59Q49 66 33 78T4 106Q36 134 61 161T111 222Q101 246 96 275T90 335Q90 386 102 429T137 506Q107 534 84 559T44 608Q51 623 65 638T97 665Q119 631 139 607T186 556Q211 574 241 583T305 593Q336 593 363 584T413 556Q434 586 455 611T497 656Q512 650
528 638T556 609Q526 583 502 557T454 499Q463 478 467 455T471 405Q471 360 463 318T438 241Q469 214 495 187T541 132Q532 118 518 104T487 80Q459 119 442 140T402 184Z" />
<glyph unicode="&#xa5;" glyph-name="yen" horiz-adv-x="506" d="M280 -39Q262 -43 238 -45T192 -48Q194 6 195 54T198 146Q158 146 121 147T50 153Q50 178 51 196T56 224Q92 221 127 219T197 216Q197 221 197 227T197 246Q196 258 196 264T196 276Q195 278 194
282T191 289Q152 289 117 290T50 293Q49 314 50 333T56 364Q93 362 117 361T162 359Q136 421 103 484T20 628Q29 639 40 647T66 662Q76 666 86 669T109 675Q153 598 185 522T249 347Q298 430 332 506T398 684Q419 681 439 671T480 641Q452 563 421 499T341 359Q390
363 415 365T461 371Q462 363 462 355T462 337Q462 329 460 321T452 301Q423 297 392 295T296 288H295Q295 259 295 245T294 217Q335 219 374 222T452 229Q453 215 453 209T453 198Q452 188 450 178T445 159Q399 155 363 152T293 148Q290 97 287 51T280 -39Z" />
<glyph unicode="&#xa6;" glyph-name="brokenbar" horiz-adv-x="270" d="M181 725Q177 655 174 565T170 377Q153 373 133 372T88 371Q85 452 85 537T86 713Q106 722 132 725T181 725ZM176 -162Q161 -166 141 -168T106 -169Q101 -95 98 -3T91 221Q110 223 130 223T169
219Q169 114 171 13T176 -162Z" />
<glyph unicode="&#xa7;" glyph-name="section" horiz-adv-x="397" d="M188 344Q155 335 138 315T121 263Q121 234 140 209T206 151Q239 160 256 180T273 232Q273 262 254 287T188 344ZM352 -41Q352 -103 308 -145T195 -187Q127 -187 87 -150T29 -36Q43 -26 63
-20T102 -13Q112 -70 135 -98T194 -127Q223 -127 240 -108T258 -56Q258 -19 236 10T155 78Q85 123 59 161T33 245Q33 290 59 325T133 381Q91 413 72 449T53 530Q53 594 97 636T210 679Q278 679 317 643T370 533Q355 524 338 520T295 514Q287 570 267 595T213 620Q182
620 165 601T147 545Q147 508 169 479T244 415Q311 372 335 335T360 250Q360 205 335 170T262 114Q309 80 330 43T352 -41Z" />
<glyph unicode="&#xa8;" glyph-name="dieresis" horiz-adv-x="260" d="M319 748Q338 747 352 744T376 735Q365 709 355 677T340 618Q322 615 299 614T251 614Q248 626 247 637T246 659Q246 680 249 701T260 736Q273 742 286 745T319 748ZM220 748Q239 747 253
744T277 735Q266 709 256 677T241 618Q223 615 200 614T152 614Q149 626 148 637T147 659Q147 680 150 701T161 736Q174 742 187 745T220 748Z" />
<glyph unicode="&#xa9;" glyph-name="copyright" horiz-adv-x="777" d="M414 701Q566 701 652 602T739 336Q739 161 644 61T381 -39Q226 -39 132 57T38 313Q38 485 143 593T414 701ZM389 26Q517 26 587 108T658 338Q658 477 591 556T402 635Q282 635 201 546T119
323Q119 185 191 106T389 26ZM459 278Q478 280 496 277T525 267Q521 203 484 169T380 134Q314 134 278 177T241 301Q241 401 291 467T421 533Q471 533 499 502T530 411Q509 401 492 398T450 395Q451 438 441 459T406 480Q375 480 354 434T333 320Q333 256 350 222T401
188Q432 188 448 212T459 278Z" />
<glyph unicode="&#xaa;" glyph-name="ordfeminine" horiz-adv-x="279" d="M255 622Q255 586 245 525T221 410Q207 410 190 412T155 419Q156 423 157 432T160 445Q149 439 135 436T104 433Q60 433 34 454T8 512Q8 550 39 569T134 588Q140 588 146 588T162 587Q167
587 169 587T174 587Q174 589 174 591T174 595Q174 644 166 665T139 687Q121 687 109 668T95 618Q69 621 52 629T26 650Q39 689 71 711T147 733Q201 733 228 705T255 622ZM92 508Q92 492 101 483T128 474Q139 474 148 476T166 485Q171 524 172 533T173 551Q133
552 113 541T92 508Z" />
<glyph unicode="&#xab;" glyph-name="guillemotleft" horiz-adv-x="502" d="M479 114Q464 91 450 78T414 53Q352 102 308 154T232 265Q285 301 329 348T411 456Q435 442 451 428T478 399Q438 350 402 316T325 254Q355 216 393 182T479 114ZM255 114Q240 91 226
78T191 53Q129 102 85 153T8 265Q61 301 105 348T187 456Q211 442 227 428T254 399Q214 350 178 316T101 254Q131 216 169 182T255 114Z" />
<glyph unicode="&#xac;" glyph-name="logicalnot" horiz-adv-x="396" d="M366 400Q370 354 369 302T360 195Q342 195 326 196T291 201Q295 235 297 264T298 325Q232 320 161 322T26 332Q26 350 27 366T32 402Q110 392 189 392T366 400Z" />
<glyph unicode="&#xad;" glyph-name="uni00AD" horiz-adv-x="0" />
<glyph unicode="&#xae;" glyph-name="registered" horiz-adv-x="777" d="M414 701Q566 701 652 602T739 336Q739 161 644 61T381 -39Q226 -39 132 57T38 313Q38 485 143 593T414 701ZM119 323Q119 185 191 106T389 26Q517 26 587 108T658 338Q658 477 591 556T402
635Q282 635 201 546T119 323ZM556 148Q543 136 523 126T480 109Q448 182 428 220T383 292Q380 291 376 290T363 286Q357 284 355 283T349 281Q348 243 346 205T340 129Q316 129 298 130T267 135Q269 159 269 179T270 223Q270 299 266 366T253 512Q281 532 316
543T388 554Q452 554 490 524T528 443Q528 407 508 377T448 322Q475 291 501 249T556 148ZM345 500Q348 454 349 418T350 349Q350 344 350 340T350 330Q397 342 420 367T443 434Q443 468 427 487T380 506Q371 506 362 505T345 500Z" />
<glyph unicode="&#xaf;" glyph-name="overscore" horiz-adv-x="260" d="M232 632Q165 624 111 625T25 639Q24 657 25 675T28 705Q81 696 131 695T233 699Q235 681 235 665T232 632Z" />
<glyph unicode="&#xb0;" glyph-name="degree" horiz-adv-x="255" d="M10 630Q10 682 44 712T136 743Q186 743 215 717T245 648Q245 587 213 553T121 519Q71 519 41 549T10 630ZM179 639Q179 667 166 683T130 699Q105 699 89 680T73 628Q73 599 87 583T125 566Q148
566 163 586T179 639Z" />
<glyph unicode="&#xb1;" glyph-name="plusminus" horiz-adv-x="396" d="M235 318Q234 281 232 248T225 186Q208 184 191 184T156 186Q160 219 162 251T165 317Q122 319 90 321T29 328Q29 346 30 361T35 397Q76 392 106 390T165 387Q164 413 163 443T157 515Q175
518 191 518T225 518Q229 490 231 458T235 387Q266 388 299 390T369 396Q369 378 367 361T360 328Q332 324 301 322T235 318ZM21 88Q21 106 22 122T27 158Q105 148 184 148T361 156Q361 140 359 123T353 88Q277 77 189 77T21 88Z" />
<glyph unicode="&#xb2;" glyph-name="twosuperior" horiz-adv-x="304" d="M286 356Q285 336 282 318T271 284Q192 287 120 297T0 321Q1 340 3 350T8 369Q112 439 157 493T202 604Q202 630 191 645T160 661Q137 661 122 639T97 569Q73 569 53 573T15 585Q31 647
68 679T163 711Q222 711 258 679T294 594Q294 538 248 479T111 361Q167 358 206 357T286 356Z" />
<glyph unicode="&#xb3;" glyph-name="threesuperior" horiz-adv-x="321" d="M309 411Q309 350 267 310T162 270Q100 270 63 306T22 408Q37 415 56 418T105 423Q105 375 122 348T166 321Q191 321 204 339T218 392Q218 445 186 472T97 494Q94 507 92 519T90 542Q129
563 160 587T213 639Q160 635 114 629T24 613Q20 627 18 645T16 680Q78 695 152 703T289 712Q295 698 298 680T300 643Q275 609 250 585T189 535Q247 523 278 492T309 411Z" />
<glyph unicode="&#xb4;" glyph-name="acute" horiz-adv-x="260" d="M191 741Q186 698 170 657T125 571Q108 571 92 573T59 580Q74 623 83 664T97 748Q121 751 147 749T191 741Z" />
<glyph unicode="&#xb5;" glyph-name="uni00B5" horiz-adv-x="474" d="M108 36Q114 -31 123 -91T145 -198Q134 -201 125 -202T102 -203Q86 -203 71 -200T40 -190Q37 -63 37 18T39 179Q41 255 51 340T80 514Q102 514 129 511T181 500Q163 401 155 325T146 185Q146
130 159 106T204 82Q236 82 267 115T321 207Q324 302 323 391T315 551Q330 556 357 559T407 563Q415 455 422 287T429 5Q415 -1 394 -5T353 -9Q345 -9 337 -8T308 -4Q310 15 312 42T317 105Q286 51 252 25T180 -2Q156 -2 139 7T108 36Z" />
<glyph unicode="&#xb6;" glyph-name="paragraph" horiz-adv-x="669" d="M598 708Q604 466 597 214T568 -280Q551 -284 534 -286T498 -287Q524 121 526 283T520 656Q510 660 499 663T473 669Q478 402 471 196T440 -280Q426 -283 408 -284T369 -285Q385 -19 389
74T394 234Q225 285 143 364T61 556Q61 651 132 706T329 762Q393 762 448 752T598 708Z" />
<glyph unicode="&#xb7;" glyph-name="middot" horiz-adv-x="191" d="M42 292Q74 299 102 300T160 296Q158 258 156 237T151 195Q124 192 100 192T46 195Q46 196 44 231T42 292Z" />
<glyph unicode="&#xb8;" glyph-name="cedilla" horiz-adv-x="261" d="M236 -129Q236 -173 205 -199T121 -226Q82 -226 55 -208T15 -153Q32 -142 42 -137T62 -128Q69 -150 84 -163T119 -176Q140 -176 151 -165T163 -135Q163 -118 152 -107T122 -96Q112 -96 104
-98T86 -106Q79 -100 72 -93T61 -80Q74 -60 82 -36T91 11L142 0Q140 -14 137 -27T127 -53Q133 -52 139 -51T151 -50Q190 -50 213 -71T236 -129Z" />
<glyph unicode="&#xb9;" glyph-name="onesuperior" horiz-adv-x="268" d="M181 279Q170 275 159 273T136 271Q128 270 121 270T106 273Q107 298 108 319T114 367Q117 422 125 486T145 611Q125 596 102 582T54 553Q37 566 27 579T8 612Q63 638 113 669T209 737Q227
730 239 722T262 704Q238 646 215 524T181 279Z" />
<glyph unicode="&#xba;" glyph-name="ordmasculine" horiz-adv-x="271" d="M9 557Q9 631 50 678T156 726Q206 726 234 696T262 610Q262 530 223 476T117 421Q67 421 38 458T9 557ZM177 582Q177 630 168 653T137 676Q118 676 105 645T92 567Q92 527 103 499T134
471Q152 471 164 504T177 582Z" />
<glyph unicode="&#xbb;" glyph-name="guillemotright" horiz-adv-x="502" d="M493 265Q462 206 418 154T311 53Q290 64 276 77T246 114Q294 147 332 181T400 254Q359 281 323 316T248 399Q258 414 275 429T317 457Q355 396 398 349T493 265ZM269 265Q238 206 194
154T87 53Q66 64 51 78T22 114Q70 147 108 181T176 254Q135 281 99 316T24 399Q34 414 51 429T93 457Q131 396 174 349T269 265Z" />
<glyph unicode="&#xbc;" glyph-name="onequarter" horiz-adv-x="761" d="M182 307Q171 303 160 301T137 299Q129 298 122 298T107 301Q108 326 109 347T115 395Q118 450 126 514T146 639Q126 624 103 610T55 581Q38 594 28 607T9 640Q64 666 114 697T210 765Q228
758 240 750T263 732Q239 674 216 552T182 307ZM462 786Q484 781 504 770T541 743Q464 553 379 377T163 -33Q149 -30 136 -24T98 2Q216 223 301 407T462 786ZM650 82Q647 46 645 25T642 -16Q631 -19 620 -20T596 -22Q586 -21 580 -20T569 -18Q568 -8 568 4T567
43Q567 62 567 72T568 90Q511 95 468 100T394 110Q390 118 388 127T382 150Q441 237 476 308T543 480Q561 480 581 476T631 460Q601 380 566 310T485 171Q498 168 512 166T572 157Q574 187 578 212T587 257Q596 263 609 265T641 268Q650 268 660 267T683 264Q676
242 670 212T658 147Q673 146 690 145T748 140Q747 122 743 105T732 77Q724 77 704 78T650 82Z" />
<glyph unicode="&#xbd;" glyph-name="onehalf" horiz-adv-x="736" d="M182 307Q171 303 160 301T137 299Q129 298 122 298T107 301Q108 326 109 347T115 395Q118 450 126 514T146 639Q126 624 103 610T55 581Q38 594 28 607T9 640Q64 666 114 697T210 765Q228
758 240 750T263 732Q239 674 216 552T182 307ZM457 787Q479 782 499 771T536 744Q459 554 374 378T158 -32Q144 -29 131 -23T93 3Q211 224 296 408T457 787ZM688 66Q687 46 684 28T673 -6Q594 -3 522 7T402 31Q403 50 405 60T410 79Q514 149 559 203T604 314Q604
340 593 355T562 371Q539 371 524 349T499 279Q475 279 455 283T417 295Q433 357 470 389T565 421Q624 421 660 389T696 304Q696 248 650 189T513 71Q569 68 608 67T688 66Z" />
<glyph unicode="&#xbe;" glyph-name="threequarters" horiz-adv-x="815" d="M542 786Q564 781 584 770T621 743Q544 553 459 377T243 -33Q229 -30 216 -24T178 2Q296 223 381 407T542 786ZM319 463Q319 402 277 362T172 322Q110 322 73 358T32 460Q47 467 66 470T115
475Q115 427 132 400T176 373Q201 373 214 391T228 444Q228 497 196 524T107 546Q104 559 102 571T100 594Q139 615 170 639T223 691Q170 687 124 681T34 665Q30 679 28 697T26 732Q88 747 162 755T299 764Q305 750 308 732T310 695Q285 661 260 637T199 587Q257
575 288 544T319 463ZM711 84Q708 48 706 27T703 -14Q692 -17 681 -18T657 -20Q647 -19 641 -18T630 -16Q629 -6 629 6T628 45Q628 64 628 74T629 92Q572 97 529 102T455 112Q451 120 449 129T443 152Q502 239 537 310T604 482Q622 482 642 478T692 462Q662 382
627 312T546 173Q559 170 573 168T633 159Q635 189 639 214T648 259Q657 265 670 267T702 270Q711 270 721 269T744 266Q737 244 731 214T719 149Q734 148 751 147T809 142Q808 124 804 107T793 79Q785 79 765 80T711 84Z" />
<glyph unicode="&#xbf;" glyph-name="questiondown" horiz-adv-x="402" d="M173 503Q171 523 171 533T169 554Q181 557 192 558T220 560Q232 561 245 559T271 553Q273 530 273 506T273 455Q254 454 237 454T176 455Q175 464 175 474T173 503ZM408 6Q402 -101 353
-156T212 -211Q131 -211 80 -158T28 -21Q28 53 71 106T191 183Q191 240 191 271T192 333Q207 336 227 337T267 338Q275 274 279 232T284 157Q212 141 175 96T137 -19Q137 -77 159 -111T218 -146Q262 -146 286 -101T311 23Q338 23 362 19T408 6Z" />
<glyph unicode="&#xc0;" glyph-name="Agrave" horiz-adv-x="628" d="M613 -74Q592 -86 567 -94T507 -107Q495 -22 481 54T450 201Q379 201 315 197T197 184Q176 131 153 79T103 -24Q75 -19 53 -7T13 24Q99 178 155 327T267 706Q300 705 323 703T369 694Q465 519
521 341T613 -74ZM318 581Q296 488 274 410T226 262Q279 269 330 273T430 278Q408 359 381 433T318 581ZM314 925Q318 887 327 846T352 758Q336 754 320 752T286 748Q257 796 241 838T220 919Q238 926 264 927T314 925Z" />
<glyph unicode="&#xc1;" glyph-name="Aacute" horiz-adv-x="628" d="M613 -74Q592 -86 567 -94T507 -107Q495 -22 481 54T450 201Q379 201 315 197T197 184Q176 131 153 79T103 -24Q75 -19 53 -7T13 24Q99 178 155 327T267 706Q300 705 323 703T369 694Q465 519
521 341T613 -74ZM318 581Q296 488 274 410T226 262Q279 269 330 273T430 278Q408 359 381 433T318 581ZM418 918Q413 875 397 834T352 748Q335 748 319 750T286 757Q301 800 310 841T324 925Q348 928 374 926T418 918Z" />
<glyph unicode="&#xc2;" glyph-name="Acircumflex" horiz-adv-x="628" d="M613 -74Q592 -86 567 -94T507 -107Q495 -22 481 54T450 201Q379 201 315 197T197 184Q176 131 153 79T103 -24Q75 -19 53 -7T13 24Q99 178 155 327T267 706Q300 705 323 703T369 694Q465
519 521 341T613 -74ZM318 581Q296 488 274 410T226 262Q279 269 330 273T430 278Q408 359 381 433T318 581ZM456 778Q443 763 432 755T406 741Q378 762 359 780T322 824Q307 802 287 782T239 739Q223 745 211 754T190 775Q228 809 249 837T287 901Q294 902 303
903T320 904Q329 904 339 903T357 901Q371 870 392 843T456 778Z" />
<glyph unicode="&#xc3;" glyph-name="Atilde" horiz-adv-x="628" d="M613 -74Q592 -86 567 -94T507 -107Q495 -22 481 54T450 201Q379 201 315 197T197 184Q176 131 153 79T103 -24Q75 -19 53 -7T13 24Q99 178 155 327T267 706Q300 705 323 703T369 694Q465 519
521 341T613 -74ZM318 581Q296 488 274 410T226 262Q279 269 330 273T430 278Q408 359 381 433T318 581ZM318 825Q335 816 343 813T360 810Q375 810 381 819T386 849Q400 850 412 848T436 840Q440 795 423 771T371 746Q358 746 345 750T311 766Q295 775 288 777T274
780Q260 780 254 771T249 743Q237 742 224 744T198 750Q194 793 211 818T263 844Q275 844 286 841T318 825Z" />
<glyph unicode="&#xc4;" glyph-name="Adieresis" horiz-adv-x="628" d="M613 -74Q592 -86 567 -94T507 -107Q495 -22 481 54T450 201Q379 201 315 197T197 184Q176 131 153 79T103 -24Q75 -19 53 -7T13 24Q99 178 155 327T267 706Q300 705 323 703T369 694Q465
519 521 341T613 -74ZM318 581Q296 488 274 410T226 262Q279 269 330 273T430 278Q408 359 381 433T318 581ZM514 883Q533 882 547 879T571 870Q560 844 550 812T535 753Q517 750 494 749T446 749Q443 761 442 772T441 794Q441 815 444 836T455 871Q468 877 481
880T514 883ZM415 883Q434 882 448 879T472 870Q461 844 451 812T436 753Q418 750 395 749T347 749Q344 761 343 772T342 794Q342 815 345 836T356 871Q369 877 382 880T415 883Z" />
<glyph unicode="&#xc5;" glyph-name="Aring" horiz-adv-x="628" d="M613 -74Q592 -86 567 -94T507 -107Q495 -22 481 54T450 201Q379 201 315 197T197 184Q176 131 153 79T103 -24Q75 -19 53 -7T13 24Q99 178 155 327T267 706Q300 705 323 703T369 694Q465 519
521 341T613 -74ZM318 581Q296 488 274 410T226 262Q279 269 330 273T430 278Q408 359 381 433T318 581ZM228 831Q228 877 258 905T339 933Q380 933 404 912T428 853Q428 803 398 773T318 743Q278 743 253 767T228 831ZM363 845Q363 870 355 883T330 896Q313 896
302 879T291 832Q291 810 300 797T326 783Q343 783 353 800T363 845Z" />
<glyph unicode="&#xc6;" glyph-name="AE" horiz-adv-x="842" d="M804 -15Q729 -27 626 -34T428 -44Q418 30 412 83T400 184Q345 182 296 178T204 168Q183 123 159 75T104 -27Q76 -22 53 -9T14 22Q108 180 169 330T290 702Q309 701 330 698T380 689Q516 713 601
721T780 732Q780 710 778 688T771 644Q696 643 625 638T482 624Q480 575 480 518T484 390Q558 405 613 412T727 424Q732 403 734 383T735 339Q662 335 606 330T489 314Q493 246 500 176T517 39Q587 41 661 49T796 71Q800 56 802 31T804 -15ZM367 612Q340 514 308
423T240 247Q272 252 308 255T392 261Q383 359 377 448T367 612Z" />
<glyph unicode="&#xc7;" glyph-name="Ccedilla" horiz-adv-x="564" d="M427 225Q452 227 474 223T512 208Q506 90 447 28T280 -35Q168 -35 106 46T43 276Q43 459 125 576T338 693Q426 693 471 636T516 467Q494 455 471 450T412 445Q417 536 395 578T319 620Q252
620 206 530T159 300Q159 174 195 107T301 39Q364 39 398 89T427 225ZM398 -152Q398 -196 367 -222T283 -249Q244 -249 217 -231T177 -176Q194 -165 204 -160T224 -151Q231 -173 246 -186T281 -199Q302 -199 313 -188T325 -158Q325 -141 314 -130T284 -119Q274
-119 266 -121T248 -129Q241 -123 234 -116T223 -103Q236 -83 244 -59T253 -12L304 -23Q302 -37 299 -50T289 -76Q295 -75 301 -74T313 -73Q352 -73 375 -94T398 -152Z" />
<glyph unicode="&#xc8;" glyph-name="Egrave" horiz-adv-x="541" d="M503 -12Q429 -24 326 -31T128 -41Q100 140 81 342T60 688Q192 713 285 723T479 735Q480 714 478 692T471 646Q395 646 324 641T181 626Q179 569 179 511T183 392Q263 408 317 415T426 427Q431
406 433 386T434 342Q358 337 303 332T188 316Q192 257 199 187T216 42Q286 44 360 52T495 74Q500 60 502 35T503 -12ZM275 931Q279 893 288 852T313 764Q297 760 281 758T247 754Q218 802 202 844T181 925Q199 932 225 933T275 931Z" />
<glyph unicode="&#xc9;" glyph-name="Eacute" horiz-adv-x="541" d="M503 -12Q429 -24 326 -31T128 -41Q100 140 81 342T60 688Q192 713 285 723T479 735Q480 714 478 692T471 646Q395 646 324 641T181 626Q179 569 179 511T183 392Q263 408 317 415T426 427Q431
406 433 386T434 342Q358 337 303 332T188 316Q192 257 199 187T216 42Q286 44 360 52T495 74Q500 60 502 35T503 -12ZM333 927Q328 884 312 843T267 757Q250 757 234 759T201 766Q216 809 225 850T239 934Q263 937 289 935T333 927Z" />
<glyph unicode="&#xca;" glyph-name="Ecircumflex" horiz-adv-x="541" d="M503 -12Q429 -24 326 -31T128 -41Q100 140 81 342T60 688Q192 713 285 723T479 735Q480 714 478 692T471 646Q395 646 324 641T181 626Q179 569 179 511T183 392Q263 408 317 415T426
427Q431 406 433 386T434 342Q358 337 303 332T188 316Q192 257 199 187T216 42Q286 44 360 52T495 74Q500 60 502 35T503 -12ZM399 798Q386 783 375 775T349 761Q321 782 302 800T265 844Q250 822 230 802T182 759Q166 765 154 774T133 795Q171 829 192 857T230
921Q237 922 246 923T263 924Q272 924 282 923T300 921Q314 890 335 863T399 798Z" />
<glyph unicode="&#xcb;" glyph-name="Edieresis" horiz-adv-x="541" d="M503 -12Q429 -24 326 -31T128 -41Q100 140 81 342T60 688Q192 713 285 723T479 735Q480 714 478 692T471 646Q395 646 324 641T181 626Q179 569 179 511T183 392Q263 408 317 415T426 427Q431
406 433 386T434 342Q358 337 303 332T188 316Q192 257 199 187T216 42Q286 44 360 52T495 74Q500 60 502 35T503 -12ZM461 905Q480 904 494 901T518 892Q507 866 497 834T482 775Q464 772 441 771T393 771Q390 783 389 794T388 816Q388 837 391 858T402 893Q415
899 428 902T461 905ZM362 905Q381 904 395 901T419 892Q408 866 398 834T383 775Q365 772 342 771T294 771Q291 783 290 794T289 816Q289 837 292 858T303 893Q316 899 329 902T362 905Z" />
<glyph unicode="&#xcc;" glyph-name="Igrave" horiz-adv-x="258" d="M183 496Q183 330 181 214T173 -18Q158 -22 133 -25T83 -29Q86 167 81 341T62 664Q77 673 95 677T132 682Q142 682 151 681T179 677Q181 636 182 593T183 496ZM113 915Q117 877 126 836T151
748Q135 744 119 742T85 738Q56 786 40 828T19 909Q37 916 63 917T113 915Z" />
<glyph unicode="&#xcd;" glyph-name="Iacute" horiz-adv-x="258" d="M183 496Q183 330 181 214T173 -18Q158 -22 133 -25T83 -29Q86 167 81 341T62 664Q77 673 95 677T132 682Q142 682 151 681T179 677Q181 636 182 593T183 496ZM206 911Q201 868 185 827T140
741Q123 741 107 743T74 750Q89 793 98 834T112 918Q136 921 162 919T206 911Z" />
<glyph unicode="&#xce;" glyph-name="Icircumflex" horiz-adv-x="258" d="M183 496Q183 330 181 214T173 -18Q158 -22 133 -25T83 -29Q86 167 81 341T62 664Q77 673 95 677T132 682Q142 682 151 681T179 677Q181 636 182 593T183 496ZM247 771Q234 756 223 748T197
734Q169 755 150 773T113 817Q98 795 78 775T30 732Q14 738 2 747T-19 768Q19 802 40 830T78 894Q85 895 94 896T111 897Q120 897 130 896T148 894Q162 863 183 836T247 771Z" />
<glyph unicode="&#xcf;" glyph-name="Idieresis" horiz-adv-x="258" d="M183 496Q183 330 181 214T173 -18Q158 -22 133 -25T83 -29Q86 167 81 341T62 664Q77 673 95 677T132 682Q142 682 151 681T179 677Q181 636 182 593T183 496ZM313 893Q332 892 346 889T370
880Q359 854 349 822T334 763Q316 760 293 759T245 759Q242 771 241 782T240 804Q240 825 243 846T254 881Q267 887 280 890T313 893ZM214 893Q233 892 247 889T271 880Q260 854 250 822T235 763Q217 760 194 759T146 759Q143 771 142 782T141 804Q141 825 144
846T155 881Q168 887 181 890T214 893Z" />
<glyph unicode="&#xd0;" glyph-name="Eth" horiz-adv-x="589" d="M165 339Q165 309 165 280T165 220Q165 189 165 157T167 69Q302 122 372 217T442 444Q442 541 392 593T248 645Q232 645 215 642T177 633Q173 575 171 520T166 403Q200 405 233 408T300 416Q301
404 301 389T299 354Q265 348 232 345T165 339ZM553 443Q553 294 448 169T171 -10Q156 -10 125 -7T79 -1Q72 107 68 188T62 338Q40 339 19 340T-24 344Q-25 364 -25 380T-22 407Q13 405 29 404T60 402Q59 421 59 443T59 508Q59 548 60 591T62 671Q112 694 159 705T253
717Q401 717 477 648T553 443Z" />
<glyph unicode="&#xd1;" glyph-name="Ntilde" horiz-adv-x="648" d="M176 293Q177 226 181 147T191 -30Q174 -35 150 -38T103 -41Q83 190 74 356T65 672Q67 673 68 673T71 675Q97 688 123 695T184 706Q276 584 345 462T475 192Q476 219 476 251T477 352Q477 485
473 582T459 739Q492 749 518 753T572 758Q576 674 577 631T578 549Q578 399 573 277T557 26Q532 22 510 19T465 15Q391 188 322 314T175 541Q175 503 175 457T176 293ZM309 863Q326 854 334 851T351 848Q366 848 372 857T377 887Q391 888 403 886T427 878Q431
833 414 809T362 784Q349 784 336 788T302 804Q286 813 279 815T265 818Q251 818 245 809T240 781Q228 780 215 782T189 788Q185 831 202 856T254 882Q266 882 277 879T309 863Z" />
<glyph unicode="&#xd2;" glyph-name="Ograve" horiz-adv-x="611" d="M336 733Q449 733 508 648T568 403Q568 330 551 257T503 127Q464 55 406 18T275 -20Q168 -20 104 78T39 335Q39 509 122 621T336 733ZM291 56Q369 56 412 144T456 377Q456 522 423 589T316 656Q243
656 197 572T151 351Q151 222 188 139T291 56ZM325 942Q329 904 338 863T363 775Q347 771 331 769T297 765Q268 813 252 855T231 936Q249 943 275 944T325 942Z" />
<glyph unicode="&#xd3;" glyph-name="Oacute" horiz-adv-x="611" d="M336 733Q449 733 508 648T568 403Q568 330 551 257T503 127Q464 55 406 18T275 -20Q168 -20 104 78T39 335Q39 509 122 621T336 733ZM291 56Q369 56 412 144T456 377Q456 522 423 589T316 656Q243
656 197 572T151 351Q151 222 188 139T291 56ZM387 932Q382 889 366 848T321 762Q304 762 288 764T255 771Q270 814 279 855T293 939Q317 942 343 940T387 932Z" />
<glyph unicode="&#xd4;" glyph-name="Ocircumflex" horiz-adv-x="611" d="M336 733Q449 733 508 648T568 403Q568 330 551 257T503 127Q464 55 406 18T275 -20Q168 -20 104 78T39 335Q39 509 122 621T336 733ZM291 56Q369 56 412 144T456 377Q456 522 423 589T316
656Q243 656 197 572T151 351Q151 222 188 139T291 56ZM450 797Q437 782 426 774T400 760Q372 781 353 799T316 843Q301 821 281 801T233 758Q217 764 205 773T184 794Q222 828 243 856T281 920Q288 921 297 922T314 923Q323 923 333 922T351 920Q365 889 386 862T450
797Z" />
<glyph unicode="&#xd5;" glyph-name="Otilde" horiz-adv-x="611" d="M336 733Q449 733 508 648T568 403Q568 330 551 257T503 127Q464 55 406 18T275 -20Q168 -20 104 78T39 335Q39 509 122 621T336 733ZM291 56Q369 56 412 144T456 377Q456 522 423 589T316 656Q243
656 197 572T151 351Q151 222 188 139T291 56ZM320 865Q337 856 345 853T362 850Q377 850 383 859T388 889Q402 890 414 888T438 880Q442 835 425 811T373 786Q360 786 347 790T313 806Q297 815 290 817T276 820Q262 820 256 811T251 783Q239 782 226 784T200 790Q196
833 213 858T265 884Q277 884 288 881T320 865Z" />
<glyph unicode="&#xd6;" glyph-name="Odieresis" horiz-adv-x="611" d="M336 733Q449 733 508 648T568 403Q568 330 551 257T503 127Q464 55 406 18T275 -20Q168 -20 104 78T39 335Q39 509 122 621T336 733ZM291 56Q369 56 412 144T456 377Q456 522 423 589T316
656Q243 656 197 572T151 351Q151 222 188 139T291 56ZM508 916Q527 915 541 912T565 903Q554 877 544 845T529 786Q511 783 488 782T440 782Q437 794 436 805T435 827Q435 848 438 869T449 904Q462 910 475 913T508 916ZM409 916Q428 915 442 912T466 903Q455
877 445 845T430 786Q412 783 389 782T341 782Q338 794 337 805T336 827Q336 848 339 869T350 904Q363 910 376 913T409 916Z" />
<glyph unicode="&#xd7;" glyph-name="multiply" horiz-adv-x="397" d="M348 215Q335 201 323 190T297 168Q277 193 255 219T206 273Q198 265 162 228T102 169Q89 181 78 193T56 219Q62 225 69 232T90 254Q117 282 131 296T157 323Q131 347 105 370T51 416Q60 427
70 438T99 465Q129 442 155 419T205 373Q222 390 241 410T301 470Q314 459 324 446T345 416Q330 401 313 383T255 324Q278 299 301 272T348 215Z" />
<glyph unicode="&#xd8;" glyph-name="Oslash" horiz-adv-x="600" d="M311 656Q238 656 193 571T147 351Q147 302 153 256T171 174Q221 264 274 370T396 620Q380 638 359 647T311 656ZM213 92Q229 74 247 65T286 56Q363 56 406 144T450 377Q450 420 447 456T438
522Q388 420 333 315T213 92ZM498 127Q459 55 401 18T270 -20Q241 -20 216 -13T168 9Q157 -10 139 -42T118 -79Q93 -71 78 -62T47 -39Q64 -11 79 15T109 65Q74 113 55 182T36 335Q36 509 118 621T330 733Q360 733 387 727T438 707Q454 742 462 759T477 792Q495
787 512 776T546 750Q535 725 524 701T501 651Q532 609 547 546T563 403Q563 330 546 257T498 127Z" />
<glyph unicode="&#xd9;" glyph-name="Ugrave" horiz-adv-x="561" d="M464 707Q487 615 498 535T509 380Q509 150 444 35T247 -80Q147 -80 98 7T49 270Q49 364 64 466T101 627Q111 630 128 632T160 634Q174 634 185 632T205 627Q185 535 175 452T164 297Q164 143
188 71T265 -2Q327 -2 361 85T396 327Q396 419 385 507T350 687Q373 696 404 701T464 707ZM255 872Q259 834 268 793T293 705Q277 701 261 699T227 695Q198 743 182 785T161 866Q179 873 205 874T255 872Z" />
<glyph unicode="&#xda;" glyph-name="Uacute" horiz-adv-x="561" d="M464 707Q487 615 498 535T509 380Q509 150 444 35T247 -80Q147 -80 98 7T49 270Q49 364 64 466T101 627Q111 630 128 632T160 634Q174 634 185 632T205 627Q185 535 175 452T164 297Q164 143
188 71T265 -2Q327 -2 361 85T396 327Q396 419 385 507T350 687Q373 696 404 701T464 707ZM344 863Q339 820 323 779T278 693Q261 693 245 695T212 702Q227 745 236 786T250 870Q274 873 300 871T344 863Z" />
<glyph unicode="&#xdb;" glyph-name="Ucircumflex" horiz-adv-x="561" d="M464 707Q487 615 498 535T509 380Q509 150 444 35T247 -80Q147 -80 98 7T49 270Q49 364 64 466T101 627Q111 630 128 632T160 634Q174 634 185 632T205 627Q185 535 175 452T164 297Q164
143 188 71T265 -2Q327 -2 361 85T396 327Q396 419 385 507T350 687Q373 696 404 701T464 707ZM397 766Q384 751 373 743T347 729Q319 750 300 768T263 812Q248 790 228 770T180 727Q164 733 152 742T131 763Q169 797 190 825T228 889Q235 890 244 891T261 892Q270
892 280 891T298 889Q312 858 333 831T397 766Z" />
<glyph unicode="&#xdc;" glyph-name="Udieresis" horiz-adv-x="561" d="M464 707Q487 615 498 535T509 380Q509 150 444 35T247 -80Q147 -80 98 7T49 270Q49 364 64 466T101 627Q111 630 128 632T160 634Q174 634 185 632T205 627Q185 535 175 452T164 297Q164
143 188 71T265 -2Q327 -2 361 85T396 327Q396 419 385 507T350 687Q373 696 404 701T464 707ZM466 873Q485 872 499 869T523 860Q512 834 502 802T487 743Q469 740 446 739T398 739Q395 751 394 762T393 784Q393 805 396 826T407 861Q420 867 433 870T466 873ZM367
873Q386 872 400 869T424 860Q413 834 403 802T388 743Q370 740 347 739T299 739Q296 751 295 762T294 784Q294 805 297 826T308 861Q321 867 334 870T367 873Z" />
<glyph unicode="&#xdd;" glyph-name="Yacute" horiz-adv-x="525" d="M497 679Q426 397 354 226T179 -88Q156 -81 133 -71T94 -49Q135 11 169 70T231 189Q154 292 102 411T9 697Q36 712 63 720T121 730Q142 607 179 503T275 292Q310 383 337 486T386 718Q417 713
444 704T497 679ZM338 899Q333 856 317 815T272 729Q255 729 239 731T206 738Q221 781 230 822T244 906Q268 909 294 907T338 899Z" />
<glyph unicode="&#xde;" glyph-name="Thorn" horiz-adv-x="559" d="M172 85Q173 51 175 14T181 -68Q154 -69 130 -68T88 -62Q73 104 67 233T61 538Q61 575 63 625T68 711Q97 715 127 712T185 700Q182 672 180 645T176 592Q202 596 226 598T274 600Q396 600 462
549T529 405Q529 299 440 219T172 85ZM171 517Q168 471 167 421T166 309Q166 282 166 252T168 161Q292 193 355 250T418 389Q418 457 378 494T263 531Q240 531 217 528T171 517Z" />
<glyph unicode="&#xdf;" glyph-name="germandbls" horiz-adv-x="615" d="M591 124Q591 49 548 4T431 -41Q358 -41 312 9T263 142Q280 149 302 152T342 155Q340 92 363 57T429 22Q460 22 477 43T495 102Q495 133 476 157T394 219Q322 261 300 293T277 367Q277 402
288 430T328 488Q351 514 359 534T368 585Q368 617 349 637T298 658Q242 658 212 605T182 448Q182 337 197 213T234 -2Q208 -11 179 -16T124 -21Q111 38 99 162T85 388Q60 392 45 396T20 404Q20 419 23 436T31 458Q42 457 56 456T87 452Q95 587 148 657T295 727Q358
727 399 689T440 593Q440 568 431 547T399 501Q377 476 369 456T360 410Q360 379 379 354T464 288Q542 241 566 206T591 124Z" />
<glyph unicode="&#xe0;" glyph-name="agrave" horiz-adv-x="476" d="M423 345Q423 278 405 168T362 -35Q342 -35 320 -32T277 -22Q280 -5 283 9T289 34Q267 20 241 13T186 6Q114 6 70 43T26 144Q26 211 82 245T247 279Q265 279 280 279T319 277Q319 288 319 298T319
319Q319 403 301 440T243 477Q202 477 175 439T145 341Q109 344 86 357T52 392Q65 455 122 499T254 543Q338 543 380 493T423 345ZM133 139Q133 106 154 86T211 66Q236 66 258 73T300 95Q307 132 311 163T316 226Q224 229 179 208T133 139ZM272 754Q276 716 285
675T310 587Q294 583 278 581T244 577Q215 625 199 667T178 748Q196 755 222 756T272 754Z" />
<glyph unicode="&#xe1;" glyph-name="aacute" horiz-adv-x="476" d="M423 345Q423 278 405 168T362 -35Q342 -35 320 -32T277 -22Q280 -5 283 9T289 34Q267 20 241 13T186 6Q114 6 70 43T26 144Q26 211 82 245T247 279Q265 279 280 279T319 277Q319 288 319 298T319
319Q319 403 301 440T243 477Q202 477 175 439T145 341Q109 344 86 357T52 392Q65 455 122 499T254 543Q338 543 380 493T423 345ZM133 139Q133 106 154 86T211 66Q236 66 258 73T300 95Q307 132 311 163T316 226Q224 229 179 208T133 139ZM350 747Q345 704 329
663T284 577Q267 577 251 579T218 586Q233 629 242 670T256 754Q280 757 306 755T350 747Z" />
<glyph unicode="&#xe2;" glyph-name="acircumflex" horiz-adv-x="476" d="M423 345Q423 278 405 168T362 -35Q342 -35 320 -32T277 -22Q280 -5 283 9T289 34Q267 20 241 13T186 6Q114 6 70 43T26 144Q26 211 82 245T247 279Q265 279 280 279T319 277Q319 288 319
298T319 319Q319 403 301 440T243 477Q202 477 175 439T145 341Q109 344 86 357T52 392Q65 455 122 499T254 543Q338 543 380 493T423 345ZM133 139Q133 106 154 86T211 66Q236 66 258 73T300 95Q307 132 311 163T316 226Q224 229 179 208T133 139ZM398 611Q385
596 374 588T348 574Q320 595 301 613T264 657Q249 635 229 615T181 572Q165 578 153 587T132 608Q170 642 191 670T229 734Q236 735 245 736T262 737Q271 737 281 736T299 734Q313 703 334 676T398 611Z" />
<glyph unicode="&#xe3;" glyph-name="atilde" horiz-adv-x="476" d="M423 345Q423 278 405 168T362 -35Q342 -35 320 -32T277 -22Q280 -5 283 9T289 34Q267 20 241 13T186 6Q114 6 70 43T26 144Q26 211 82 245T247 279Q265 279 280 279T319 277Q319 288 319 298T319
319Q319 403 301 440T243 477Q202 477 175 439T145 341Q109 344 86 357T52 392Q65 455 122 499T254 543Q338 543 380 493T423 345ZM133 139Q133 106 154 86T211 66Q236 66 258 73T300 95Q307 132 311 163T316 226Q224 229 179 208T133 139ZM259 676Q276 667 284
664T301 661Q316 661 322 670T327 700Q341 701 353 699T377 691Q381 646 364 622T312 597Q299 597 286 601T252 617Q236 626 229 628T215 631Q201 631 195 622T190 594Q178 593 165 595T139 601Q135 644 152 669T204 695Q216 695 227 692T259 676Z" />
<glyph unicode="&#xe4;" glyph-name="adieresis" horiz-adv-x="476" d="M423 345Q423 278 405 168T362 -35Q342 -35 320 -32T277 -22Q280 -5 283 9T289 34Q267 20 241 13T186 6Q114 6 70 43T26 144Q26 211 82 245T247 279Q265 279 280 279T319 277Q319 288 319
298T319 319Q319 403 301 440T243 477Q202 477 175 439T145 341Q109 344 86 357T52 392Q65 455 122 499T254 543Q338 543 380 493T423 345ZM133 139Q133 106 154 86T211 66Q236 66 258 73T300 95Q307 132 311 163T316 226Q224 229 179 208T133 139ZM466 721Q485
720 499 717T523 708Q512 682 502 650T487 591Q469 588 446 587T398 587Q395 599 394 610T393 632Q393 653 396 674T407 709Q420 715 433 718T466 721ZM367 721Q386 720 400 717T424 708Q413 682 403 650T388 591Q370 588 347 587T299 587Q296 599 295 610T294
632Q294 653 297 674T308 709Q321 715 334 718T367 721Z" />
<glyph unicode="&#xe5;" glyph-name="aring" horiz-adv-x="476" d="M423 345Q423 278 405 168T362 -35Q342 -35 320 -32T277 -22Q280 -5 283 9T289 34Q267 20 241 13T186 6Q114 6 70 43T26 144Q26 211 82 245T247 279Q265 279 280 279T319 277Q319 288 319 298T319
319Q319 403 301 440T243 477Q202 477 175 439T145 341Q109 344 86 357T52 392Q65 455 122 499T254 543Q338 543 380 493T423 345ZM133 139Q133 106 154 86T211 66Q236 66 258 73T300 95Q307 132 311 163T316 226Q224 229 179 208T133 139ZM165 665Q165 711 195
739T276 767Q317 767 341 746T365 687Q365 637 335 607T255 577Q215 577 190 601T165 665ZM300 679Q300 704 292 717T267 730Q250 730 239 713T228 666Q228 644 237 631T263 617Q280 617 290 634T300 679Z" />
<glyph unicode="&#xe6;" glyph-name="ae" horiz-adv-x="743" d="M431 308Q456 300 484 296T542 291Q552 291 564 292T583 295Q590 320 593 344T597 389Q597 427 585 444T545 461Q509 461 479 420T431 308ZM629 163Q650 159 672 148T709 120Q691 64 630 19T497
-26Q448 -26 410 -3T348 66Q312 29 271 12T179 -6Q109 -6 68 30T26 128Q26 195 82 230T247 266Q265 266 281 266T318 264Q319 284 319 299T318 327Q318 399 300 432T243 465Q203 465 175 427T145 329Q109 332 86 345T52 380Q65 443 123 487T254 531Q303 531 338
506T393 432Q428 477 470 501T557 526Q619 526 657 487T695 383Q695 349 689 314T670 249Q647 239 614 235T536 230Q508 230 479 234T420 248Q419 231 419 222T418 206Q418 131 442 87T509 42Q544 42 580 78T629 163ZM133 123Q133 90 152 72T205 54Q237 54 270
67T331 105Q323 128 319 153T315 207Q315 209 315 210T315 213Q225 217 179 195T133 123Z" />
<glyph unicode="&#xe7;" glyph-name="ccedilla" horiz-adv-x="447" d="M329 -133Q329 -178 297 -204T210 -231Q172 -231 145 -213T105 -158Q128 -144 134 -141T153 -132Q161 -154 175 -167T208 -180Q229 -180 240 -169T252 -139Q252 -122 241 -112T210 -101Q202
-101 194 -103T176 -110Q168 -103 161 -97T151 -85Q160 -69 166 -54T177 -22Q104 -12 65 46T26 201Q26 345 91 444T256 543Q332 543 374 497T416 370Q396 360 372 356T317 351Q317 416 301 447T252 479Q203 479 168 396T132 206Q132 130 156 87T225 43Q261 43 293
73T350 160Q369 155 384 144T411 119Q396 65 345 24T229 -23Q225 -37 223 -43T217 -56Q227 -55 232 -55T241 -54Q280 -54 304 -76T329 -133Z" />
<glyph unicode="&#xe8;" glyph-name="egrave" horiz-adv-x="461" d="M148 321Q173 312 202 308T260 303Q269 303 282 304T301 307Q308 334 311 357T315 401Q315 440 303 456T263 473Q227 473 196 431T148 321ZM347 175Q368 171 390 160T427 132Q409 76 348 32T215
-13Q128 -13 79 49T30 217Q30 341 101 439T271 538Q336 538 374 499T412 395Q412 361 406 325T388 261Q365 252 333 248T254 243Q226 243 196 247T137 261Q136 241 136 233T135 218Q135 144 160 99T227 54Q261 54 297 90T347 175ZM285 749Q289 711 298 670T323
582Q307 578 291 576T257 572Q228 620 212 662T191 743Q209 750 235 751T285 749Z" />
<glyph unicode="&#xe9;" glyph-name="eacute" horiz-adv-x="461" d="M148 321Q173 312 202 308T260 303Q269 303 282 304T301 307Q308 334 311 357T315 401Q315 440 303 456T263 473Q227 473 196 431T148 321ZM347 175Q368 171 390 160T427 132Q409 76 348 32T215
-13Q128 -13 79 49T30 217Q30 341 101 439T271 538Q336 538 374 499T412 395Q412 361 406 325T388 261Q365 252 333 248T254 243Q226 243 196 247T137 261Q136 241 136 233T135 218Q135 144 160 99T227 54Q261 54 297 90T347 175ZM381 741Q376 698 360 657T315
571Q298 571 282 573T249 580Q264 623 273 664T287 748Q311 751 337 749T381 741Z" />
<glyph unicode="&#xea;" glyph-name="ecircumflex" horiz-adv-x="461" d="M148 321Q173 312 202 308T260 303Q269 303 282 304T301 307Q308 334 311 357T315 401Q315 440 303 456T263 473Q227 473 196 431T148 321ZM347 175Q368 171 390 160T427 132Q409 76 348
32T215 -13Q128 -13 79 49T30 217Q30 341 101 439T271 538Q336 538 374 499T412 395Q412 361 406 325T388 261Q365 252 333 248T254 243Q226 243 196 247T137 261Q136 241 136 233T135 218Q135 144 160 99T227 54Q261 54 297 90T347 175ZM419 606Q406 591 395 583T369
569Q341 590 322 608T285 652Q270 630 250 610T202 567Q186 573 174 582T153 603Q191 637 212 665T250 729Q257 730 266 731T283 732Q292 732 302 731T320 729Q334 698 355 671T419 606Z" />
<glyph unicode="&#xeb;" glyph-name="edieresis" horiz-adv-x="461" d="M148 321Q173 312 202 308T260 303Q269 303 282 304T301 307Q308 334 311 357T315 401Q315 440 303 456T263 473Q227 473 196 431T148 321ZM347 175Q368 171 390 160T427 132Q409 76 348
32T215 -13Q128 -13 79 49T30 217Q30 341 101 439T271 538Q336 538 374 499T412 395Q412 361 406 325T388 261Q365 252 333 248T254 243Q226 243 196 247T137 261Q136 241 136 233T135 218Q135 144 160 99T227 54Q261 54 297 90T347 175ZM496 714Q515 713 529 710T553
701Q542 675 532 643T517 584Q499 581 476 580T428 580Q425 592 424 603T423 625Q423 646 426 667T437 702Q450 708 463 711T496 714ZM397 714Q416 713 430 710T454 701Q443 675 433 643T418 584Q400 581 377 580T329 580Q326 592 325 603T324 625Q324 646 327
667T338 702Q351 708 364 711T397 714Z" />
<glyph unicode="&#xec;" glyph-name="igrave" horiz-adv-x="229" d="M70 500Q85 508 104 512T143 517Q153 517 163 516T182 513Q161 417 151 276T146 1Q135 -4 119 -7T87 -10Q79 -10 73 -10T61 -7Q46 108 48 252T70 500ZM395 985Q399 947 408 906T433 818Q417
814 401 812T367 808Q338 856 322 898T301 979Q319 986 345 987T395 985Z" />
<glyph unicode="&#xed;" glyph-name="iacute" horiz-adv-x="229" d="M70 500Q85 508 104 512T143 517Q153 517 163 516T182 513Q161 417 151 276T146 1Q135 -4 119 -7T87 -10Q79 -10 73 -10T61 -7Q46 108 48 252T70 500ZM234 978Q229 935 213 894T168 808Q151
808 135 810T102 817Q117 860 126 901T140 985Q164 988 190 986T234 978Z" />
<glyph unicode="&#xee;" glyph-name="icircumflex" horiz-adv-x="229" d="M70 500Q85 508 104 512T143 517Q153 517 163 516T182 513Q161 417 151 276T146 1Q135 -4 119 -7T87 -10Q79 -10 73 -10T61 -7Q46 108 48 252T70 500ZM281 848Q268 833 257 825T231 811Q203
832 184 850T147 894Q132 872 112 852T64 809Q48 815 36 824T15 845Q53 879 74 907T112 971Q119 972 128 973T145 974Q154 974 164 973T182 971Q196 940 217 913T281 848Z" />
<glyph unicode="&#xef;" glyph-name="idieresis" horiz-adv-x="229" d="M70 500Q85 508 104 512T143 517Q153 517 163 516T182 513Q161 417 151 276T146 1Q135 -4 119 -7T87 -10Q79 -10 73 -10T61 -7Q46 108 48 252T70 500ZM352 965Q371 964 385 961T409 952Q398
926 388 894T373 835Q355 832 332 831T284 831Q281 843 280 854T279 876Q279 897 282 918T293 953Q306 959 319 962T352 965ZM253 965Q272 964 286 961T310 952Q299 926 289 894T274 835Q256 832 233 831T185 831Q182 843 181 854T180 876Q180 897 183 918T194
953Q207 959 220 962T253 965Z" />
<glyph unicode="&#xf0;" glyph-name="eth" horiz-adv-x="493" d="M424 -31Q407 -36 384 -39T344 -42Q341 -12 338 19T333 82Q313 25 282 -2T203 -30Q123 -30 78 40T32 229Q32 364 94 444T263 525Q276 525 289 524T315 519Q315 524 315 529T314 546Q314 557 314
562T314 572Q281 572 249 573T186 578Q185 598 185 614T188 641Q221 639 252 638T313 635Q313 654 313 673T313 712Q326 718 346 722T387 727Q398 727 409 726T434 721Q433 705 432 685T428 639Q450 640 474 643T527 650Q528 638 528 623T526 588Q502 584 477 581T426
576Q423 503 422 404T421 117Q421 76 421 44T424 -31ZM136 243Q136 150 160 99T226 47Q263 47 289 92T325 224Q322 276 320 334T316 453Q307 456 296 457T273 458Q211 458 174 401T136 243Z" />
<glyph unicode="&#xf1;" glyph-name="ntilde" horiz-adv-x="493" d="M153 151Q153 98 154 50T159 -25Q142 -30 117 -33T70 -37Q62 72 55 239T48 521Q61 527 82 531T124 535Q137 535 149 534T172 530Q169 506 167 480T164 426Q196 478 232 504T311 530Q375 530
405 484T436 339Q436 259 423 161T396 11Q377 11 352 14T296 25Q314 124 322 200T331 340Q331 395 317 419T272 444Q241 444 211 412T158 323Q156 273 155 230T153 151ZM260 675Q277 666 285 663T302 660Q317 660 323 669T328 699Q342 700 354 698T378 690Q382
645 365 621T313 596Q300 596 287 600T253 616Q237 625 230 627T216 630Q202 630 196 621T191 593Q179 592 166 594T140 600Q136 643 153 668T205 694Q217 694 228 691T260 675Z" />
<glyph unicode="&#xf2;" glyph-name="ograve" horiz-adv-x="474" d="M28 240Q28 372 93 456T260 540Q342 540 389 483T436 325Q436 179 375 85T210 -10Q126 -10 77 59T28 240ZM328 280Q328 377 306 423T237 470Q194 470 163 408T132 254Q132 172 158 116T230 59Q270
59 299 124T328 280ZM258 1002Q262 964 271 923T296 835Q280 831 264 829T230 825Q201 873 185 915T164 996Q182 1003 208 1004T258 1002Z" />
<glyph unicode="&#xf3;" glyph-name="oacute" horiz-adv-x="474" d="M28 240Q28 372 93 456T260 540Q342 540 389 483T436 325Q436 179 375 85T210 -10Q126 -10 77 59T28 240ZM328 280Q328 377 306 423T237 470Q194 470 163 408T132 254Q132 172 158 116T230 59Q270
59 299 124T328 280ZM332 738Q327 695 311 654T266 568Q249 568 233 570T200 577Q215 620 224 661T238 745Q262 748 288 746T332 738Z" />
<glyph unicode="&#xf4;" glyph-name="ocircumflex" horiz-adv-x="474" d="M28 240Q28 372 93 456T260 540Q342 540 389 483T436 325Q436 179 375 85T210 -10Q126 -10 77 59T28 240ZM328 280Q328 377 306 423T237 470Q194 470 163 408T132 254Q132 172 158 116T230
59Q270 59 299 124T328 280ZM389 615Q376 600 365 592T339 578Q311 599 292 617T255 661Q240 639 220 619T172 576Q156 582 144 591T123 612Q161 646 182 674T220 738Q227 739 236 740T253 741Q262 741 272 740T290 738Q304 707 325 680T389 615Z" />
<glyph unicode="&#xf5;" glyph-name="otilde" horiz-adv-x="474" d="M28 240Q28 372 93 456T260 540Q342 540 389 483T436 325Q436 179 375 85T210 -10Q126 -10 77 59T28 240ZM328 280Q328 377 306 423T237 470Q194 470 163 408T132 254Q132 172 158 116T230 59Q270
59 299 124T328 280ZM259 674Q276 665 284 662T301 659Q316 659 322 668T327 698Q341 699 353 697T377 689Q381 644 364 620T312 595Q299 595 286 599T252 615Q236 624 229 626T215 629Q201 629 195 620T190 592Q178 591 165 593T139 599Q135 642 152 667T204 693Q216
693 227 690T259 674Z" />
<glyph unicode="&#xf6;" glyph-name="odieresis" horiz-adv-x="474" d="M28 240Q28 372 93 456T260 540Q342 540 389 483T436 325Q436 179 375 85T210 -10Q126 -10 77 59T28 240ZM328 280Q328 377 306 423T237 470Q194 470 163 408T132 254Q132 172 158 116T230
59Q270 59 299 124T328 280ZM460 732Q479 731 493 728T517 719Q506 693 496 661T481 602Q463 599 440 598T392 598Q389 610 388 621T387 643Q387 664 390 685T401 720Q414 726 427 729T460 732ZM361 732Q380 731 394 728T418 719Q407 693 397 661T382 602Q364 599
341 598T293 598Q290 610 289 621T288 643Q288 664 291 685T302 720Q315 726 328 729T361 732Z" />
<glyph unicode="&#xf7;" glyph-name="divide" horiz-adv-x="397" d="M275 508Q274 476 272 453T266 406Q235 402 211 402T161 406Q161 409 159 443T157 503Q185 510 215 511T275 508ZM28 290Q28 308 29 324T34 360Q112 350 191 350T368 358Q368 342 366 325T360
290Q284 280 196 280T28 290ZM271 228Q269 191 267 169T262 125Q230 122 206 122T157 126Q157 130 155 163T153 223Q180 230 210 231T271 228Z" />
<glyph unicode="&#xf8;" glyph-name="oslash" horiz-adv-x="474" d="M237 470Q194 470 163 408T132 254Q132 233 134 211T141 169Q200 282 230 340T286 451Q277 460 265 465T237 470ZM180 83Q190 71 203 65T230 59Q270 59 299 124T328 280Q328 304 327 322T324
356Q279 267 245 203T180 83ZM436 325Q436 179 375 85T210 -10Q190 -10 172 -6T136 7Q126 -11 116 -29T93 -67Q76 -61 61 -53T31 -31Q43 -9 55 12T79 56Q54 89 41 136T28 240Q28 372 93 456T260 540Q277 540 293 538T324 529Q326 534 329 539T338 557Q346 574 350
582T358 599Q378 590 391 582T420 559Q411 537 403 520T386 486Q411 458 423 417T436 325Z" />
<glyph unicode="&#xf9;" glyph-name="ugrave" horiz-adv-x="443" d="M201 -10Q120 -10 79 61T37 268Q37 337 49 410T78 515Q89 519 102 521T127 523Q140 523 151 521T171 514Q157 462 150 403T143 276Q143 180 162 121T217 61Q257 61 278 129T299 321Q299 362
295 406T287 469Q307 478 337 483T395 488Q400 467 402 435T405 364Q405 181 354 86T201 -10ZM241 968Q245 930 254 889T279 801Q263 797 247 795T213 791Q184 839 168 881T147 962Q165 969 191 970T241 968Z" />
<glyph unicode="&#xfa;" glyph-name="uacute" horiz-adv-x="443" d="M201 -10Q120 -10 79 61T37 268Q37 337 49 410T78 515Q89 519 102 521T127 523Q140 523 151 521T171 514Q157 462 150 403T143 276Q143 180 162 121T217 61Q257 61 278 129T299 321Q299 362
295 406T287 469Q307 478 337 483T395 488Q400 467 402 435T405 364Q405 181 354 86T201 -10ZM328 694Q323 651 307 610T262 524Q245 524 229 526T196 533Q211 576 220 617T234 701Q258 704 284 702T328 694Z" />
<glyph unicode="&#xfb;" glyph-name="ucircumflex" horiz-adv-x="443" d="M201 -10Q120 -10 79 61T37 268Q37 337 49 410T78 515Q89 519 102 521T127 523Q140 523 151 521T171 514Q157 462 150 403T143 276Q143 180 162 121T217 61Q257 61 278 129T299 321Q299
362 295 406T287 469Q307 478 337 483T395 488Q400 467 402 435T405 364Q405 181 354 86T201 -10ZM372 848Q359 833 348 825T322 811Q294 832 275 850T238 894Q223 872 203 852T155 809Q139 815 127 824T106 845Q144 879 165 907T203 971Q210 972 219 973T236 974Q245
974 255 973T273 971Q287 940 308 913T372 848Z" />
<glyph unicode="&#xfc;" glyph-name="udieresis" horiz-adv-x="443" d="M201 -10Q120 -10 79 61T37 268Q37 337 49 410T78 515Q89 519 102 521T127 523Q140 523 151 521T171 514Q157 462 150 403T143 276Q143 180 162 121T217 61Q257 61 278 129T299 321Q299 362
295 406T287 469Q307 478 337 483T395 488Q400 467 402 435T405 364Q405 181 354 86T201 -10ZM444 954Q463 953 477 950T501 941Q490 915 480 883T465 824Q447 821 424 820T376 820Q373 832 372 843T371 865Q371 886 374 907T385 942Q398 948 411 951T444 954ZM345
954Q364 953 378 950T402 941Q391 915 381 883T366 824Q348 821 325 820T277 820Q274 832 273 843T272 865Q272 886 275 907T286 942Q299 948 312 951T345 954Z" />
<glyph unicode="&#xfd;" glyph-name="yacute" horiz-adv-x="471" d="M422 188Q422 -14 367 -120T210 -227Q142 -227 100 -185T48 -67Q68 -53 92 -43T140 -29Q151 -100 169 -129T218 -159Q259 -159 284 -94T314 95Q290 56 260 37T192 17Q124 17 81 81T37 250Q37
318 46 377T85 533Q109 532 134 529T185 518Q162 435 153 378T144 255Q144 186 166 143T225 100Q252 100 275 124T316 198Q314 283 304 360T275 495Q295 507 326 512T387 515Q402 454 412 361T422 188ZM330 706Q325 663 309 622T264 536Q247 536 231 538T198 545Q213
588 222 629T236 713Q260 716 286 714T330 706Z" />
<glyph unicode="&#xfe;" glyph-name="thorn" horiz-adv-x="474" d="M158 91Q169 83 180 79T205 75Q257 75 295 155T333 354Q333 410 315 441T265 473Q229 473 201 440T155 344Q154 281 155 217T158 91ZM162 14Q166 -57 171 -112T181 -210Q162 -216 137 -220T91
-224Q60 39 54 294T68 726Q83 737 101 742T140 748Q155 748 166 746T189 740Q178 686 170 613T158 451Q186 504 224 532T309 560Q370 560 405 507T441 363Q441 211 373 111T205 10Q192 10 182 11T162 14Z" />
<glyph unicode="&#xff;" glyph-name="ydieresis" horiz-adv-x="471" d="M422 188Q422 -14 367 -120T210 -227Q142 -227 100 -185T48 -67Q68 -53 92 -43T140 -29Q151 -100 169 -129T218 -159Q259 -159 284 -94T314 95Q290 56 260 37T192 17Q124 17 81 81T37 250Q37
318 46 377T85 533Q109 532 134 529T185 518Q162 435 153 378T144 255Q144 186 166 143T225 100Q252 100 275 124T316 198Q314 283 304 360T275 495Q295 507 326 512T387 515Q402 454 412 361T422 188ZM440 952Q459 951 473 948T497 939Q486 913 476 881T461 822Q443
819 420 818T372 818Q369 830 368 841T367 863Q367 884 370 905T381 940Q394 946 407 949T440 952ZM341 952Q360 951 374 948T398 939Q387 913 377 881T362 822Q344 819 321 818T273 818Q270 830 269 841T268 863Q268 884 271 905T282 940Q295 946 308 949T341
952Z" />
<glyph unicode="&#x2013;" glyph-name="endash" horiz-adv-x="445" d="M408 242Q315 229 211 231T28 250Q29 268 30 285T36 323Q80 316 144 312T262 307Q298 307 336 308T417 314Q417 299 415 281T408 242Z" />
<glyph unicode="&#x2014;" glyph-name="emdash" horiz-adv-x="725" d="M687 236Q529 213 349 215T28 244Q29 262 30 279T36 317Q126 303 209 298T408 292Q473 292 543 296T696 308Q696 290 694 272T687 236Z" />
<glyph unicode="&#x2018;" glyph-name="quoteleft" horiz-adv-x="171" d="M64 485Q37 558 26 614T13 729Q34 735 59 738T111 739Q107 678 113 619T136 492Q118 488 100 486T64 485Z" />
<glyph unicode="&#x2019;" glyph-name="quoteright" horiz-adv-x="171" d="M56 736Q80 738 105 737T152 731Q152 672 142 620T105 485Q89 486 71 488T35 496Q49 574 54 633T56 736Z" />
<glyph unicode="&#x201a;" glyph-name="quotesinglbase" horiz-adv-x="166" d="M39 92Q63 94 88 93T136 88Q136 29 126 -22T89 -157Q69 -156 51 -153T18 -146Q32 -73 37 -14T39 92Z" />
<glyph unicode="&#x201c;" glyph-name="quotedblleft" horiz-adv-x="323" d="M64 485Q37 558 26 614T13 729Q34 735 59 738T111 739Q107 678 113 619T136 492Q118 488 100 486T64 485ZM216 485Q189 558 178 614T165 729Q186 735 211 738T263 739Q259 678 265 619T288
492Q270 488 252 486T216 485Z" />
<glyph unicode="&#x201d;" glyph-name="quotedblright" horiz-adv-x="325" d="M56 736Q80 738 105 737T152 731Q152 672 142 620T105 485Q89 486 71 488T35 496Q49 574 54 633T56 736ZM210 736Q234 738 259 737T306 731Q306 672 296 620T259 485Q243 486 225 488T189
496Q203 574 208 633T210 736Z" />
<glyph unicode="&#x201e;" glyph-name="quotedblbase" horiz-adv-x="316" d="M39 92Q63 94 88 93T136 88Q136 29 126 -22T89 -157Q69 -156 51 -153T18 -146Q32 -73 37 -14T39 92ZM189 92Q213 94 238 93T286 88Q286 29 276 -22T239 -157Q219 -156 201 -153T168
-146Q182 -73 187 -14T189 92Z" />
<glyph unicode="&#x2022;" glyph-name="bullet" horiz-adv-x="253" d="M35 348Q77 358 124 360T222 355Q220 300 217 263T207 192Q161 188 123 188T42 193Q38 245 37 277T35 348Z" />
<glyph unicode="&#x2039;" glyph-name="guilsinglleft" horiz-adv-x="278" d="M255 114Q240 91 226 78T191 53Q129 102 85 153T8 265Q61 301 105 348T187 456Q211 442 227 428T254 399Q214 350 178 316T101 254Q131 216 169 182T255 114Z" />
<glyph unicode="&#x203a;" glyph-name="guilsinglright" horiz-adv-x="278" d="M269 265Q238 206 194 154T87 53Q66 64 51 78T22 114Q70 147 108 181T176 254Q135 281 99 316T24 399Q34 414 51 429T93 457Q131 396 174 349T269 265Z" />
</font>
</defs>
</svg>
