<?xml version="1.0" standalone="no"?>
<!DOCTYPE svg PUBLIC "-//W3C//DTD SVG 1.1//EN" "http://www.w3.org/Graphics/SVG/1.1/DTD/svg11.dtd">
<svg xmlns="http://www.w3.org/2000/svg">
<defs >
<font id="KronaOne" horiz-adv-x="1344" ><font-face
    font-family="Krona One"
    units-per-em="2048"
    panose-1="2 1 6 5 3 5 0 6 0 4"
    ascent="2030"
    descent="-530"
    alphabetic="0" />
<glyph unicode=" " glyph-name="space" horiz-adv-x="680" />
<glyph unicode="!" glyph-name="exclam" horiz-adv-x="858" d="M270 1563H587V569H270V1563ZM191 173Q191 213 207 248T255 310T330 352T429 367Q484 367 528 352T602 311T649 249T666 173Q666 133 650 98T603 36T528 -5T429 -21Q374 -21 330 -6T255 36T208 97T191 173Z" />
<glyph unicode="&quot;" glyph-name="quotedbl" horiz-adv-x="1359" d="M300 1659H557V957H300V1659ZM802 1659H1059V957H802V1659Z" />
<glyph unicode="#" glyph-name="numbersign" horiz-adv-x="2048" d="M430 387H157V609H478L558 986H157V1208H605L683 1573H940L862 1208H1335L1413 1573H1670L1592 1208H1890V986H1545L1465 609H1890V387H1417L1335 0H1078L1160 387H687L605 0H348L430 387ZM1208
609L1288 986H815L735 609H1208Z" />
<glyph unicode="$" glyph-name="dollar" horiz-adv-x="2048" d="M295 465Q367 424 440 391T590 332T750 289T925 264V658Q874 652 827 648T736 644Q631 644 535 671T364 752T245 887T201 1076Q201 1168 239 1257T364 1418T589 1537T925 1591V1894H1162V1585Q1329
1570 1482 1530T1764 1433L1625 1177Q1525 1220 1409 1253T1162 1301V983Q1210 988 1258 991T1352 995Q1490 995 1596 964T1775 876T1884 737T1921 554Q1921 429 1868 329T1716 155T1477 38T1162 -18V-322H925V-19Q693 -5 490 55T126 208L295 465ZM533 1106Q533
1036 596 992T788 947Q817 947 852 949T925 956V1310Q812 1306 737 1286T616 1237T552 1174T533 1106ZM1162 262Q1276 269 1357 291T1489 346T1564 423T1588 514Q1588 599 1517 648T1298 698Q1266 698 1232 696T1162 689V262Z" />
<glyph unicode="%" glyph-name="percent" horiz-adv-x="2044" d="M469 785Q381 785 307 814T178 895T94 1022T64 1189Q64 1280 94 1355T178 1482T306 1564T469 1593Q557 1593 631 1564T760 1483T844 1355T874 1189Q874 1097 844 1023T760 896T632 814T469 785ZM1501
1574H1808L553 0H246L1501 1574ZM469 989Q507 989 540 1003T599 1044T638 1108T653 1189Q653 1233 639 1270T599 1333T541 1374T469 1389Q431 1389 398 1375T339 1334T300 1270T285 1189Q285 1145 299 1108T339 1045T397 1004T469 989ZM1170 383Q1170 474 1200
549T1284 676T1412 758T1575 787Q1663 787 1737 758T1866 677T1950 549T1980 383Q1980 291 1950 217T1866 90T1738 8T1575 -21Q1487 -21 1413 8T1284 89T1200 216T1170 383ZM1391 383Q1391 339 1405 302T1445 239T1503 198T1575 183Q1613 183 1646 197T1705 238T1744
302T1759 383Q1759 427 1745 464T1705 527T1647 568T1575 583Q1537 583 1504 569T1445 528T1406 464T1391 383Z" />
<glyph unicode="&amp;" glyph-name="ampersand" horiz-adv-x="2222" d="M167 498Q167 547 177 595T211 695T276 804T379 931Q344 988 329 1042T313 1154Q313 1248 351 1327T458 1463T623 1553T835 1585Q959 1585 1058 1549T1228 1452T1335 1310T1373 1138Q1373
1083 1359 1028T1315 913T1243 788T1143 649L1380 472Q1457 563 1509 679T1591 932H1490V1180H2150V932H1854Q1819 760 1758 604T1598 319Q1644 293 1685 279T1766 258T1842 253T1920 260L2010 1Q1924 -16 1849 -21T1699 -15T1546 28T1376 116Q1272 51 1144 15T854
-21Q683 -21 554 20T339 131T210 296T167 498ZM929 810Q1001 905 1031 978T1062 1118Q1062 1173 1044 1212T994 1277T922 1314T834 1326Q784 1326 745 1314T679 1279T638 1227T624 1162Q624 1136 633 1107T668 1041T739 962T856 865L929 810ZM478 520Q478 464 501
413T573 323T695 261T869 238Q943 238 1009 251T1135 289L647 660Q624 677 603 694T562 728Q522 678 500 628T478 520Z" />
<glyph unicode="&apos;" glyph-name="quotesingle" horiz-adv-x="858" d="M300 1659H557V957H300V1659Z" />
<glyph unicode="(" glyph-name="parenleft" horiz-adv-x="1190" d="M255 786Q255 959 305 1120T444 1425T656 1693T926 1920L1063 1709Q940 1612 840 1508T670 1288T561 1048T522 786Q522 649 551 526T641 291T792 77T1006 -123L869 -334Q723 -232 609 -110T416
154T296 454T255 786Z" />
<glyph unicode=")" glyph-name="parenright" horiz-adv-x="1190" d="M935 786Q935 959 885 1120T746 1425T534 1693T264 1920L127 1709Q250 1612 350 1508T520 1288T629 1048T668 786Q668 649 639 526T549 291T398 77T184 -123L321 -334Q467 -232 581 -110T774
154T894 454T935 786Z" />
<glyph unicode="*" glyph-name="asterisk" horiz-adv-x="1365" d="M284 1047L497 1340L153 1453L223 1670L568 1557L566 1920H797L795 1557L1141 1669L1212 1452L868 1340L1078 1047L894 913L682 1207L468 914L284 1047Z" />
<glyph unicode="+" glyph-name="plus" horiz-adv-x="1191" d="M479 684H137V906H479V1245H711V906H1054V684H711V327H479V684Z" />
<glyph unicode="," glyph-name="comma" horiz-adv-x="858" d="M191 174Q191 214 208 249T255 310T329 352T427 367Q485 367 533 349T617 295T671 210T691 96Q691 -46 594 -176T310 -408L190 -238Q239 -212 276 -187T341 -135T389 -81T426 -21Q373 -21 330 -6T255
36T208 97T191 174Z" />
<glyph unicode="-" glyph-name="hyphen" horiz-adv-x="1191" d="M137 906H1054V684H137V906Z" />
<glyph unicode="." glyph-name="period" horiz-adv-x="858" d="M191 173Q191 213 207 248T255 310T330 352T429 367Q484 367 528 352T602 311T649 249T666 173Q666 133 650 98T603 36T528 -5T429 -21Q374 -21 330 -6T255 36T208 97T191 173Z" />
<glyph unicode="/" glyph-name="slash" horiz-adv-x="1533" d="M1087 1770H1374L445 -354H158L1087 1770Z" />
<glyph unicode="0" glyph-name="zero" horiz-adv-x="1879" d="M129 785Q129 974 186 1124T348 1378T603 1538T939 1593Q1125 1593 1275 1538T1530 1379T1692 1124T1749 785Q1749 596 1692 446T1530 192T1275 33T939 -22Q753 -22 603 33T348 192T186 446T129 785ZM446
786Q446 658 480 560T579 396T734 295T939 260Q1053 260 1144 294T1299 395T1397 560T1432 786Q1432 913 1398 1010T1299 1175T1144 1276T939 1311Q825 1311 734 1277T579 1175T481 1011T446 786Z" />
<glyph unicode="1" glyph-name="one" horiz-adv-x="1195" d="M163 278H518V1251Q448 1235 384 1209T266 1146L110 1369Q196 1423 285 1460T466 1520T650 1553T835 1563L834 1561H835V278H1174V0H163V278Z" />
<glyph unicode="2" glyph-name="two" horiz-adv-x="1710" d="M220 272L771 650Q895 735 974 798T1098 910T1160 1000T1177 1080Q1177 1126 1158 1166T1099 1236T995 1283T843 1300Q715 1300 588 1264T329 1149L183 1389Q330 1480 501 1531T862 1582Q1027 1582
1148 1543T1349 1435T1468 1277T1507 1086Q1507 1008 1481 937T1390 790T1215 627T936 428L708 278H1564V0H220V272Z" />
<glyph unicode="3" glyph-name="three" horiz-adv-x="1710" d="M277 372Q395 314 529 288T792 261Q906 261 989 279T1126 330T1206 406T1232 501Q1232 570 1185 624T1043 706T802 728T459 671L460 905L1044 1285H217V1563H1468V1291L954 965Q1095 965 1206 929T1393
830T1509 681T1549 496Q1549 379 1498 284T1348 121T1109 16T788 -21Q598 -21 437 19T131 132L277 372Z" />
<glyph unicode="4" glyph-name="four" horiz-adv-x="1874" d="M191 612L1105 1563H1422V612H1759V334H1422V0H1105V334H189L191 612ZM1105 612V1162L571 612H1105Z" />
<glyph unicode="5" glyph-name="five" horiz-adv-x="1710" d="M265 372Q322 343 388 323T525 288T667 268T807 261Q927 261 1014 278T1158 328T1242 404T1270 503Q1270 558 1242 604T1157 683T1015 734T815 753Q764 753 700 749T564 734T414 707T256 664V1563H1455V1282H549V979Q624
996 706 1007T889 1019Q1054 1019 1184 983T1403 880T1540 719T1587 507Q1587 386 1537 289T1388 122T1146 16T816 -21Q720 -21 626 -11T442 19T272 67T119 132L265 372Z" />
<glyph unicode="6" glyph-name="six" horiz-adv-x="1874" d="M194 738Q194 951 257 1109T431 1373T692 1530T1016 1582Q1089 1582 1164 1575T1313 1551T1454 1510T1582 1449L1441 1209Q1397 1234 1348 1251T1245 1279T1138 1295T1032 1300Q916 1300 823 1270T661
1185T553 1054T502 884Q554 925 617 955T750 1004T895 1033T1045 1043Q1191 1043 1310 1008T1515 907T1646 747T1693 532Q1693 414 1647 313T1509 138T1283 21T970 -22Q797 -22 654 22T409 159T251 395T194 738ZM509 591Q533 427 653 344T968 260Q1066 260 1142
280T1270 335T1349 420T1376 527Q1376 576 1355 619T1290 693T1175 743T1006 762Q923 762 849 749T712 713T598 659T509 591Z" />
<glyph unicode="7" glyph-name="seven" horiz-adv-x="1537" d="M1017 1283H108V1563H1497L682 0H322L1017 1283Z" />
<glyph unicode="8" glyph-name="eight" horiz-adv-x="1874" d="M157 476Q157 546 176 606T228 715T304 803T398 871Q329 939 298 1006T267 1136Q267 1235 313 1317T447 1458T658 1550T937 1583Q1092 1583 1216 1551T1427 1459T1560 1317T1607 1136Q1607 1074 1576
1007T1476 871Q1525 842 1569 804T1646 716T1698 606T1717 476Q1717 359 1663 267T1507 111T1261 13T937 -21Q758 -21 614 13T368 110T212 266T157 476ZM584 1122Q584 1085 602 1053T662 996T771 957T937 943Q1035 943 1102 957T1211 995T1271 1052T1290 1122Q1290
1159 1272 1191T1212 1248T1103 1287T937 1301Q839 1301 772 1287T663 1249T603 1192T584 1122ZM474 491Q474 440 503 398T591 325T736 278T937 261Q1051 261 1138 278T1283 325T1370 397T1400 491Q1400 542 1372 584T1286 657T1141 704T937 721Q820 721 733 704T589
657T503 585T474 491Z" />
<glyph unicode="9" glyph-name="nine" horiz-adv-x="1874" d="M415 361Q458 336 511 317T620 286T734 267T844 260Q960 260 1053 290T1215 375T1323 506T1374 676Q1322 635 1259 605T1126 556T981 527T831 517Q685 517 566 552T361 653T230 813T183 1028Q183 1146
229 1247T367 1422T593 1539T906 1582Q1079 1582 1222 1538T1467 1401T1625 1165T1682 822Q1682 609 1619 451T1445 187T1184 30T860 -22Q787 -22 709 -13T553 14T405 59T274 121L415 361ZM500 1033Q500 984 521 941T586 867T701 817T870 798Q953 798 1027 811T1164
847T1278 901T1367 969Q1343 1133 1223 1216T908 1300Q810 1300 734 1280T606 1225T527 1140T500 1033Z" />
<glyph unicode=":" glyph-name="colon" horiz-adv-x="858" d="M191 173Q191 213 207 248T255 310T330 352T429 367Q484 367 528 352T602 311T649 249T666 173Q666 133 650 98T603 36T528 -5T429 -21Q374 -21 330 -6T255 36T208 97T191 173ZM191 1008Q191 1048
207 1083T255 1145T330 1187T429 1202Q484 1202 528 1187T602 1146T649 1084T666 1008Q666 968 650 933T603 871T528 830T429 814Q374 814 330 829T255 871T208 932T191 1008Z" />
<glyph unicode=";" glyph-name="semicolon" horiz-adv-x="858" d="M195 1007Q195 1047 211 1082T259 1144T334 1186T433 1201Q488 1201 532 1186T606 1145T653 1083T670 1007Q670 967 654 932T607 870T532 829T433 813Q378 813 334 828T259 870T212 931T195 1007ZM191
174Q191 214 208 249T255 310T329 352T427 367Q485 367 533 349T617 295T671 210T691 96Q691 -46 594 -176T310 -408L190 -238Q239 -212 276 -187T341 -135T389 -81T426 -21Q373 -21 330 -6T255 36T208 97T191 174Z" />
<glyph unicode="&lt;" glyph-name="less" horiz-adv-x="1529" d="M1253 369L625 784L1253 1201L1116 1416L187 785L1116 154L1253 369Z" />
<glyph unicode="=" glyph-name="equal" horiz-adv-x="1191" d="M137 1100H1054V878H137V1100ZM137 687H1054V465H137V687Z" />
<glyph unicode="&gt;" glyph-name="greater" horiz-adv-x="1529" d="M276 369L904 784L276 1201L413 1416L1342 785L413 154L276 369Z" />
<glyph unicode="?" glyph-name="question" horiz-adv-x="1710" d="M669 961Q838 969 952 986T1134 1029T1232 1087T1261 1159Q1261 1196 1237 1225T1168 1273T1059 1303T913 1313Q826 1313 737 1302T566 1272T412 1227T286 1172L140 1412Q191 1442 268 1474T442
1534T655 1578T898 1595Q1057 1595 1183 1566T1397 1481T1531 1344T1578 1160Q1578 1082 1548 1016T1445 897T1253 805T954 742V569H669V961ZM601 173Q601 213 617 248T665 310T740 352T839 367Q894 367 938 352T1012 311T1059 249T1076 173Q1076 133 1060 98T1013
36T938 -5T839 -21Q784 -21 740 -6T665 36T618 97T601 173Z" />
<glyph unicode="@" glyph-name="at" horiz-adv-x="3058" d="M196 508Q194 657 233 797T352 1061T550 1288T822 1464T1167 1579T1582 1620Q1794 1620 1972 1584T2292 1482T2541 1326T2719 1128T2827 899T2863 652Q2863 501 2815 377T2686 164T2496 27T2268 -22Q2149
-22 2052 27T1894 177Q1851 150 1799 122T1684 71T1547 34T1385 19Q1242 19 1128 59T935 170T813 336T771 541Q771 627 796 705T868 849T978 968T1119 1059T1283 1117T1462 1138Q1538 1138 1607 1126T1736 1094T1843 1052T1920 1009L1948 1117H2244L2140 569Q2123
481 2127 419T2152 316T2209 256T2294 237Q2361 237 2416 270T2512 360T2574 495T2597 661Q2597 750 2573 840T2496 1012T2364 1165T2174 1288T1921 1371T1603 1401Q1425 1401 1272 1370T991 1282T766 1145T600 967T497 756T462 521Q462 352 528 209T717 -39T1016
-203T1412 -262Q1583 -262 1717 -229T1956 -147L2078 -335Q1935 -401 1758 -441T1380 -481Q1200 -481 1043 -447T755 -351T521 -199T347 0T237 238T196 508ZM1087 566Q1087 505 1111 453T1180 361T1293 300T1447 278Q1569 278 1663 321T1823 440L1883 746Q1842
778 1792 802T1687 844T1577 870T1470 879Q1386 879 1316 856T1194 790T1115 691T1087 566Z" />
<glyph unicode="A" glyph-name="A" horiz-adv-x="1868" d="M755 1563H1091L1847 0H1514L1389 263H476L355 0H21L755 1563ZM1264 524L926 1234L597 524H1264Z" />
<glyph unicode="B" glyph-name="B" horiz-adv-x="1879" d="M222 1563H1057Q1210 1563 1323 1531T1512 1441T1623 1306T1660 1136Q1660 987 1566 875Q1674 811 1727 709T1780 477Q1780 368 1744 280T1633 130T1445 34T1177 0H222V1563ZM1179 963Q1220 963 1259
960Q1326 1024 1326 1106Q1326 1191 1260 1237T1065 1284H539V963H1179ZM1185 276Q1313 276 1379 331T1446 486Q1446 586 1380 642T1185 698H539V276H1185Z" />
<glyph unicode="C" glyph-name="C" horiz-adv-x="1879" d="M127 791Q127 958 190 1102T372 1353T664 1521T1055 1582Q1246 1582 1405 1544T1702 1426L1556 1186Q1515 1213 1462 1234T1348 1269T1223 1292T1095 1300Q943 1300 824 1263T624 1158T500 997T457 791Q457
675 501 578T628 411T832 301T1105 261Q1174 261 1242 271T1373 298T1496 340T1606 394L1752 154Q1624 72 1456 26T1099 -21Q858 -21 676 41T372 213T189 471T127 791Z" />
<glyph unicode="D" glyph-name="D" horiz-adv-x="1874" d="M222 1563H795Q1046 1563 1231 1509T1537 1355T1718 1111T1778 788Q1778 618 1719 474T1539 224T1233 59T797 -1L222 0V1563ZM873 274Q1015 274 1122 310T1300 414T1408 576T1444 788Q1444 903 1408 995T1301
1152T1122 1252T873 1287H539V274H873Z" />
<glyph unicode="E" glyph-name="E" horiz-adv-x="1704" d="M222 1563H1553V1285H539V973H1437V712H539V277H1574V0H222V1563Z" />
<glyph unicode="F" glyph-name="F" horiz-adv-x="1704" d="M222 1563H1620V1285H539V876H1457V615H539V0H222V1563Z" />
<glyph unicode="G" glyph-name="G" horiz-adv-x="2048" d="M115 796Q115 961 177 1104T358 1354T650 1521T1048 1582Q1129 1582 1210 1574T1371 1547T1526 1502T1670 1436L1524 1196Q1483 1220 1431 1239T1320 1272T1197 1293T1069 1300Q921 1300 805 1263T609
1158T487 996T445 790Q445 674 489 577T614 410T810 301T1067 261Q1180 261 1274 286T1438 359T1552 472T1610 622H1064V883H1895V882L1896 883Q1921 763 1912 650T1860 436T1743 251T1566 107T1332 13T1045 -21Q827 -21 655 43T362 218T179 478T115 796Z" />
<glyph unicode="H" glyph-name="H" horiz-adv-x="2050" d="M221 1563H538V1155H1510V1563H1828V0H1510V884H538V0H221V1563Z" />
<glyph unicode="I" glyph-name="I" horiz-adv-x="683" d="M182 1563H501V0H182V1563Z" />
<glyph unicode="J" glyph-name="J" horiz-adv-x="683" d="M-79 -259Q-10 -217 39 -171T121 -70T168 54T183 210V1563H500V267Q500 163 491 78T462 -79T407 -211T322 -325T203 -429T44 -530L-79 -259Z" />
<glyph unicode="K" glyph-name="K" horiz-adv-x="1704" d="M222 1563H539V754L1364 1563H1770L1000 817L1770 0H1348L772 596L539 371V0H222V1563Z" />
<glyph unicode="L" glyph-name="L" horiz-adv-x="1533" d="M222 1563H539V278H1448V0H222V1563Z" />
<glyph unicode="M" glyph-name="M" horiz-adv-x="2216" d="M223 1563H540L1108 993L1676 1563H1993V0H1676V1124L1108 577L540 1124V0H223V1563Z" />
<glyph unicode="N" glyph-name="N" horiz-adv-x="2048" d="M220 1563H537L1511 1053V1563H1828V0H1511V717L537 1224V0H220V1563Z" />
<glyph unicode="O" glyph-name="O" horiz-adv-x="2048" d="M130 786Q130 963 195 1110T377 1362T659 1526T1024 1584Q1223 1584 1388 1526T1670 1363T1853 1110T1918 786Q1918 608 1853 460T1671 204T1388 38T1024 -22Q824 -22 660 37T378 204T195 459T130 786ZM447
786Q447 665 490 568T611 403T794 297T1024 260Q1148 260 1253 297T1436 402T1557 568T1601 786Q1601 907 1557 1003T1436 1165T1254 1267T1024 1302Q900 1302 795 1267T612 1166T491 1003T447 786Z" />
<glyph unicode="P" glyph-name="P" horiz-adv-x="1873" d="M222 1563H1046Q1226 1563 1358 1524T1577 1412T1706 1232T1749 993Q1749 868 1707 762T1579 579T1360 458T1048 414L539 415V0H222V1563ZM1054 689Q1144 689 1211 710T1324 771T1392 867T1415 993Q1415
1132 1325 1209T1054 1287H539V689H1054Z" />
<glyph unicode="Q" glyph-name="Q" horiz-adv-x="2048" d="M130 786Q130 963 195 1110T377 1362T659 1526T1024 1584Q1223 1584 1388 1526T1670 1363T1853 1110T1918 786Q1918 628 1867 494T1721 255L2002 0H1600L1503 88Q1401 34 1281 6T1024 -22Q824 -22 660
37T378 204T195 459T130 786ZM447 786Q447 665 490 568T611 403T794 297T1024 260Q1157 260 1267 302L819 708H1221L1493 461Q1544 526 1572 607T1601 786Q1601 907 1557 1003T1436 1165T1254 1267T1024 1302Q900 1302 795 1267T612 1166T491 1003T447 786Z" />
<glyph unicode="R" glyph-name="R" horiz-adv-x="1873" d="M222 1563H1017Q1197 1563 1329 1526T1548 1417T1677 1244T1720 1013Q1720 926 1699 848T1635 703T1525 586T1370 500L1710 0H1322L1028 444H1019L539 445V0H222V1563ZM1025 719Q1115 719 1182 740T1295
799T1363 891T1386 1013Q1386 1144 1296 1215T1025 1287H539V719H1025Z" />
<glyph unicode="S" glyph-name="S" horiz-adv-x="2048" d="M295 465Q380 417 467 379T649 314T846 273T1067 259Q1208 259 1307 277T1468 328T1559 406T1588 504Q1588 589 1517 638T1298 688Q1233 688 1161 680T1016 661T871 643T736 634Q631 634 535 661T364
742T245 877T201 1066Q201 1130 218 1193T274 1313T374 1420T521 1506T721 1562T980 1583Q1085 1583 1191 1572T1397 1539T1591 1489T1764 1423L1625 1167Q1559 1196 1483 1220T1324 1263T1153 1291T972 1302Q841 1302 757 1283T622 1235T553 1169T533 1096Q533
1026 596 982T788 937Q840 937 907 944T1049 961T1201 977T1352 985Q1490 985 1596 954T1775 866T1884 727T1921 544Q1921 409 1859 304T1681 126T1402 16T1039 -22Q907 -22 781 -6T540 41T320 114T126 208L295 465Z" />
<glyph unicode="T" glyph-name="T" horiz-adv-x="1703" d="M693 1285H116V1563H1587V1285H1010V0H693V1285Z" />
<glyph unicode="U" glyph-name="U" horiz-adv-x="1873" d="M163 1563H480V702Q480 596 509 514T595 374T738 288T936 258Q1048 258 1133 287T1276 374T1363 513T1392 702V1563H1709V664Q1709 510 1657 384T1506 168T1264 29T936 -20Q752 -20 609 29T366 168T215
384T163 664V1563Z" />
<glyph unicode="V" glyph-name="V" horiz-adv-x="1710" d="M13 1563H364L855 371L1346 1563H1697L1012 0H698L13 1563Z" />
<glyph unicode="W" glyph-name="W" horiz-adv-x="2554" d="M20 1563H366L790 554L888 310L965 554L1121 922L840 1563H1166L1281 1258L1388 1563H1714L1433 922L1592 546L1688 310L1762 550L2188 1563H2534L1844 0H1530L1391 310L1278 611L1165 310L1024 0H710L20 1563Z" />
<glyph unicode="X" glyph-name="X" horiz-adv-x="1704" d="M666 794L65 1563H453L868 1025L1285 1563H1667L1055 797L1688 0H1299L854 562L399 0H16L666 794Z" />
<glyph unicode="Y" glyph-name="Y" horiz-adv-x="1710" d="M701 387L18 1563H377L858 674L1333 1563H1692L1018 389V0H701V387Z" />
<glyph unicode="Z" glyph-name="Z" horiz-adv-x="1710" d="M941 1110L1091 1293H152V1563H1681L806 464L650 270H1632V0H75L941 1110Z" />
<glyph unicode="[" glyph-name="bracketleft" horiz-adv-x="849" d="M250 1918H783V1705H507V-133H783V-346H250V1918Z" />
<glyph unicode="\" glyph-name="backslash" horiz-adv-x="1533" d="M446 1770H159L1088 -354H1375L446 1770Z" />
<glyph unicode="]" glyph-name="bracketright" horiz-adv-x="849" d="M599 1918H66V1705H342V-133H66V-346H599V1918Z" />
<glyph unicode="^" glyph-name="asciicircum" horiz-adv-x="1698" d="M849 1416L1471 467L1250 321L849 938L448 321L227 467L849 1416Z" />
<glyph unicode="_" glyph-name="underscore" horiz-adv-x="1669" d="M1689 -177V-399H-20V-177H1689Z" />
<glyph unicode="`" glyph-name="grave" horiz-adv-x="1038" d="M126 1620L237 1849L923 1528L824 1321L126 1620Z" />
<glyph unicode="a" glyph-name="a" horiz-adv-x="1701" d="M129 372Q129 457 166 527T277 647T461 725T719 753Q828 753 948 737T1197 688Q1192 744 1163 791T1083 873T959 927T794 946Q744 946 684 940T560 922T434 892T317 849L227 1092Q294 1116 370 1136T527
1170T687 1193T842 1201Q1173 1201 1334 1032T1495 514V0H1199V111Q1153 84 1099 60T980 18T843 -10T687 -21Q549 -21 445 9T270 92T165 216T129 372ZM441 382Q441 353 456 327T504 280T588 247T713 234Q791 234 864 248T1000 285T1114 338T1199 400V452Q1131 471
1065 484T938 504T824 515T730 518Q647 518 592 507T503 478T455 434T441 382Z" />
<glyph unicode="b" glyph-name="b" horiz-adv-x="1706" d="M177 1659H473V1069Q512 1096 565 1120T679 1162T805 1190T935 1201Q1085 1201 1210 1157T1426 1033T1566 842T1617 595Q1617 454 1564 341T1418 147T1196 23T917 -21Q853 -21 791 -13T671 9T563 42T473
85V0H177V1659ZM473 371Q518 335 568 310T670 269T775 246T878 238Q980 238 1059 265T1193 341T1277 454T1306 595Q1306 666 1278 729T1196 839T1067 914T897 942Q837 942 777 931T662 898T558 847T473 780V371Z" />
<glyph unicode="c" glyph-name="c" horiz-adv-x="1526" d="M114 587Q114 717 161 829T300 1024T524 1154T827 1201Q901 1201 976 1192T1120 1167T1251 1128T1357 1078L1220 855Q1123 900 1037 921T861 942Q759 942 678 916T541 842T455 730T425 589Q425 513 456
449T545 338T684 265T866 238Q976 238 1073 269T1255 352L1392 129Q1339 97 1277 70T1145 22T997 -9T836 -21Q667 -21 533 25T306 152T164 345T114 587Z" />
<glyph unicode="d" glyph-name="d" horiz-adv-x="1711" d="M94 585Q94 726 147 839T293 1033T515 1157T794 1201Q858 1201 920 1193T1040 1171T1148 1138T1238 1095V1659H1534V0H1238V111Q1199 84 1146 60T1032 18T906 -10T776 -21Q626 -21 501 23T285 147T145
338T94 585ZM405 585Q405 514 433 451T515 341T644 266T814 238Q874 238 934 249T1049 282T1153 333T1238 400V809Q1193 845 1143 870T1041 911T936 934T833 942Q731 942 652 915T518 839T434 726T405 585Z" />
<glyph unicode="e" glyph-name="e" horiz-adv-x="1711" d="M129 594Q129 714 178 823T319 1017T544 1151T848 1201Q1017 1201 1152 1151T1382 1012T1527 805T1578 550Q1578 533 1578 514T1575 478H459Q478 425 520 381T627 305T775 256T961 238Q1063 238 1164
259T1357 314L1457 88Q1399 61 1340 41T1216 7T1081 -14T932 -21Q733 -21 583 27T332 158T180 353T129 594ZM1264 709Q1248 758 1215 800T1131 874T1015 924T870 942Q786 942 717 923T596 872T510 798T459 709H1264Z" />
<glyph unicode="f" glyph-name="f" horiz-adv-x="1026" d="M314 958H112V1180H314Q314 1300 348 1393T446 1551T603 1650T812 1684Q893 1684 971 1669T1109 1624L1004 1375Q980 1389 937 1401T841 1413Q739 1413 677 1356T610 1180H983V958H610V0H314V958Z" />
<glyph unicode="g" glyph-name="g" horiz-adv-x="1706" d="M370 -200Q426 -220 484 -233T596 -255T701 -267T790 -271Q908 -271 995 -243T1141 -166T1229 -55T1258 80V131Q1220 105 1169 81T1057 39T928 10T786 -1Q641 -1 518 42T305 164T165 353T114 597Q114
734 167 845T313 1036T535 1158T813 1201Q877 1201 940 1193T1060 1171T1168 1138T1258 1095V1180H1554V135Q1554 -26 1505 -150T1362 -358T1127 -486T806 -530Q741 -530 671 -525T531 -509T392 -484T260 -450L370 -200ZM425 600Q425 529 453 467T535 358T663 285T832
258Q893 258 953 269T1069 302T1173 353T1258 420V809Q1213 845 1163 870T1061 911T956 934T853 942Q751 942 672 915T538 842T454 733T425 600Z" />
<glyph unicode="h" glyph-name="h" horiz-adv-x="1703" d="M185 1658H481V1090Q574 1141 688 1171T929 1201Q1075 1201 1191 1158T1389 1035T1513 839T1557 580V0H1262V568Q1262 652 1235 721T1156 841T1030 918T861 946Q748 946 651 910T481 819V0H185V1658Z" />
<glyph unicode="i" glyph-name="i" horiz-adv-x="683" d="M341 1341Q297 1341 262 1353T201 1387T163 1437T149 1498Q149 1531 162 1559T201 1609T261 1642T341 1655Q386 1655 421 1643T482 1609T520 1560T534 1498Q534 1466 521 1438T482 1388T422 1354T341 1341ZM193
1180H489V0H193V1180Z" />
<glyph unicode="j" glyph-name="j" horiz-adv-x="683" d="M341 1341Q297 1341 262 1353T201 1387T163 1437T149 1498Q149 1531 162 1559T201 1609T261 1642T341 1655Q386 1655 421 1643T482 1609T520 1560T534 1498Q534 1466 521 1438T482 1388T422 1354T341 1341ZM193
1180H489V177Q489 89 482 18T457 -115T410 -229T336 -331T231 -428T90 -530L-19 -279Q43 -233 84 -188T149 -94T183 11T193 134V1180Z" />
<glyph unicode="k" glyph-name="k" horiz-adv-x="1536" d="M186 1659H482V679L1034 1180H1487L870 628L1526 0H1082L643 425L482 281V0H186V1659Z" />
<glyph unicode="l" glyph-name="l" horiz-adv-x="683" d="M193 1659H489V0H193V1659Z" />
<glyph unicode="m" glyph-name="m" horiz-adv-x="2715" d="M193 1180H489V1080Q600 1148 705 1174T912 1201Q1053 1201 1171 1156T1373 1020Q1438 1070 1501 1104T1627 1160T1755 1191T1889 1201Q2034 1201 2152 1162T2353 1044T2482 850T2528 580V0H2233V532Q2233
629 2206 705T2129 834T2011 914T1860 942Q1815 942 1768 934T1677 907T1593 862T1525 797V0H1230V532Q1230 629 1203 705T1126 834T1007 914T854 942Q803 942 752 932T653 902T564 856T489 795V0H193V1180Z" />
<glyph unicode="n" glyph-name="n" horiz-adv-x="1723" d="M185 1180H481V1080Q599 1147 706 1174T917 1201Q1052 1201 1167 1162T1366 1044T1497 850T1545 580V0H1250V532Q1250 629 1223 705T1144 834T1019 914T854 942Q806 942 756 932T657 904T563 858T481
795V0H185V1180Z" />
<glyph unicode="o" glyph-name="o" horiz-adv-x="1696" d="M114 590Q114 717 165 828T312 1022T543 1153T848 1201Q1017 1201 1152 1153T1383 1022T1530 828T1582 590Q1582 463 1531 352T1384 158T1153 27T848 -21Q679 -21 544 27T313 158T166 352T114 590ZM425
590Q425 519 453 456T536 344T669 267T848 238Q948 238 1026 266T1159 343T1242 455T1271 590Q1271 661 1243 725T1160 837T1027 914T848 943Q748 943 670 915T537 838T454 725T425 590Z" />
<glyph unicode="p" glyph-name="p" horiz-adv-x="1711" d="M473 -482H177V1180H473V1069Q512 1096 565 1120T679 1162T805 1190T935 1201Q1085 1201 1210 1157T1426 1033T1566 842T1617 595Q1617 454 1564 341T1418 147T1196 23T917 -21Q853 -21 791 -13T671 9T563
42T473 85V-482ZM473 371Q518 335 568 310T670 269T775 246T878 238Q980 238 1059 265T1193 341T1277 454T1306 595Q1306 666 1278 729T1196 839T1067 914T897 942Q837 942 777 931T662 898T558 847T473 780V371Z" />
<glyph unicode="q" glyph-name="q" horiz-adv-x="1711" d="M114 585Q114 726 167 839T313 1033T535 1157T814 1201Q943 1201 1051 1172T1238 1095V1180H1534V-482H1238V111Q1199 84 1149 60T1042 18T923 -10T796 -21Q646 -21 521 23T305 147T165 338T114 585ZM425
585Q425 514 453 451T535 341T664 266T834 238Q894 238 951 249T1059 282T1156 333T1238 400V809Q1147 881 1051 911T853 942Q751 942 672 915T538 839T454 726T425 585Z" />
<glyph unicode="r" glyph-name="r" horiz-adv-x="1027" d="M185 1180H481V1010Q579 1083 688 1136T905 1217L992 946Q821 929 692 870T481 702V0H185V1180Z" />
<glyph unicode="s" glyph-name="s" horiz-adv-x="1537" d="M232 362Q352 290 496 256T791 222Q893 222 961 236T1070 272T1128 322T1145 379Q1145 421 1109 451T988 481Q949 481 904 476T810 466T707 455T598 450Q478 450 394 476T256 547T179 653T155 786Q155
876 197 952T317 1083T505 1170T752 1201Q823 1201 900 1193T1053 1170T1197 1138T1319 1098L1226 868Q1113 910 1001 934T769 959Q686 959 629 947T535 914T483 867T466 811Q466 790 474 773T502 744T553 725T631 718Q673 718 720 723T818 733T923 744T1035 749Q1141
749 1220 724T1352 654T1430 548T1456 415Q1456 322 1413 242T1285 104T1074 12T781 -21Q679 -21 584 -9T403 25T242 76T104 138L232 362Z" />
<glyph unicode="t" glyph-name="t" horiz-adv-x="1022" d="M363 958H78V1180H363V1547H659V1180H944V958H659V0H363V958Z" />
<glyph unicode="u" glyph-name="u" horiz-adv-x="1708" d="M185 1181H480V605Q480 523 498 456T559 340T675 266T856 239Q907 239 959 250T1060 280T1149 327T1221 386V1181H1517V0H1221V101Q1112 36 1002 8T793 -20Q631 -20 516 19T327 132T219 315T185 563V1181Z" />
<glyph unicode="v" glyph-name="v" horiz-adv-x="1504" d="M22 1181H365L672 471L752 272L832 471L1139 1181H1482L923 0H581L22 1181Z" />
<glyph unicode="w" glyph-name="w" horiz-adv-x="2022" d="M22 1181H365L672 471L762 272L872 530L580 1181H868L1011 831L1154 1181H1442L1149 530L1260 272L1350 471L1657 1181H2000L1441 0H1119L1011 228L903 0H581L22 1181Z" />
<glyph unicode="x" glyph-name="x" horiz-adv-x="1360" d="M491 590L3 1181H381L677 821L958 1181H1327L868 591L1356 0H978L673 369L390 0H21L491 590Z" />
<glyph unicode="y" glyph-name="y" horiz-adv-x="1698" d="M326 -148Q372 -178 426 -201T538 -239T658 -261T779 -269Q983 -269 1093 -182T1204 81V121Q1165 94 1117 72T1013 33T896 9T771 0Q636 0 530 39T350 155T237 344T198 600V1180H493V682Q493 468 574 367T832
265Q956 265 1051 308T1204 420V1180H1500V135Q1500 -34 1452 -158T1313 -365T1088 -487T786 -528Q621 -528 478 -493T216 -398L326 -148Z" />
<glyph unicode="z" glyph-name="z" horiz-adv-x="1364" d="M754 934H149V1180H1303L575 246H1263V0H31L754 934Z" />
<glyph unicode="{" glyph-name="braceleft" horiz-adv-x="1368" d="M590 213Q590 313 564 401T483 563T346 693T150 786Q263 822 346 878T483 1007T563 1170T590 1359V1422Q590 1544 620 1637T716 1793T882 1888T1124 1920H1257V1707H1124Q1060 1707 1009 1690T921
1638T866 1549T847 1422V1363Q847 1140 774 998T557 786Q700 717 773 575T847 209V150Q847 77 866 24T921 -65T1008 -118T1124 -135H1257V-348H1124Q983 -348 882 -316T716 -221T621 -65T590 150V213Z" />
<glyph unicode="|" glyph-name="bar" horiz-adv-x="680" d="M211 1770H468V-482H211V1770Z" />
<glyph unicode="}" glyph-name="braceright" horiz-adv-x="1368" d="M778 213Q778 313 804 401T885 563T1022 693T1218 786Q1105 822 1022 878T885 1007T805 1170T778 1359V1422Q778 1544 748 1637T652 1793T486 1888T244 1920H111V1707H244Q308 1707 359 1690T447
1638T502 1549T521 1422V1363Q521 1140 594 998T811 786Q668 717 595 575T521 209V150Q521 77 502 24T447 -65T360 -118T244 -135H111V-348H244Q385 -348 486 -316T652 -221T747 -65T778 150V213Z" />
<glyph unicode="~" glyph-name="asciitilde" horiz-adv-x="1698" d="M171 859Q250 961 349 1017T564 1082Q627 1086 680 1076T779 1049T867 1009T949 968T1031 936T1119 923Q1201 923 1267 965T1384 1073L1526 892Q1447 790 1348 734T1133 669Q1070 665 1017 675T918
702T830 742T748 783T666 815T578 828Q496 828 430 786T313 678L171 859Z" />
<glyph unicode="&#xa1;" glyph-name="exclamdown" horiz-adv-x="858" d="M271 -381H588V613H271V-381ZM192 1009Q192 969 208 934T256 872T331 830T430 815Q485 815 529 830T603 871T650 933T667 1009Q667 1049 651 1084T604 1146T529 1187T430 1203Q375 1203
331 1188T256 1146T209 1085T192 1009Z" />
<glyph unicode="&#xa2;" glyph-name="cent" horiz-adv-x="1526" d="M698 1503H935V-322H698V1503ZM114 587Q114 717 161 829T300 1024T524 1154T827 1201Q901 1201 976 1192T1120 1167T1251 1128T1357 1078L1220 855Q1123 900 1037 921T861 942Q759 942 678 916T541
842T455 730T425 589Q425 513 456 449T545 338T684 265T866 238Q976 238 1073 269T1255 352L1392 129Q1339 97 1277 70T1145 22T997 -9T836 -21Q667 -21 533 25T306 152T164 345T114 587Z" />
<glyph unicode="&#xa3;" glyph-name="sterling" horiz-adv-x="1541" d="M274 655H60V877H326L375 1081Q401 1193 448 1285T566 1444T730 1546T943 1583Q1021 1583 1099 1568T1238 1523L1133 1274Q1109 1288 1066 1300T972 1312Q919 1312 871 1295T784 1247T717
1170T673 1066L623 877H977V655H564L460 258H946Q1022 258 1069 273T1144 319T1180 392T1190 490Q1190 500 1190 509T1189 530H1466Q1470 506 1471 483T1473 437Q1473 339 1444 259T1355 121T1206 32T996 0H119L274 655Z" />
<glyph unicode="&#xa4;" glyph-name="currency" horiz-adv-x="1373" d="M130 399L312 580Q280 632 263 692T245 819Q245 873 256 923T290 1019L130 1179L294 1343L445 1192Q497 1224 559 1242T692 1261Q760 1261 819 1244T930 1197L1078 1343L1242 1179L1089 1027Q1113
980 1126 928T1139 819Q1139 750 1121 688T1067 572L1242 399L1078 235L891 420Q800 377 692 377Q634 377 582 389T484 424L294 235L130 399ZM692 593Q743 593 785 610T858 657T906 728T923 819Q923 868 906 909T858 981T785 1028T692 1045Q641 1045 599 1028T526
981T478 910T461 819Q461 770 478 729T526 657T599 610T692 593Z" />
<glyph unicode="&#xa5;" glyph-name="yen" horiz-adv-x="1710" d="M186 494H673L579 648H186V870H443L18 1563H364L855 720L1346 1563H1692L1267 870H1523V648H1131L1036 494H1523V272H1014V0H697V272H186V494Z" />
<glyph unicode="&#xa6;" glyph-name="brokenbar" horiz-adv-x="682" d="M212 1770H469V836H212V1770ZM469 454V-480H212V454H469Z" />
<glyph unicode="&#xa7;" glyph-name="section" horiz-adv-x="2048" d="M351 148Q521 70 716 31T1113 -8Q1254 -8 1346 10T1492 56T1567 121T1588 192Q1588 256 1527 297T1337 339Q1283 339 1215 332T1073 317T922 301T770 294Q623 294 516 325T340 409T237 531T203
676Q203 756 238 834T345 979Q279 1030 241 1103T203 1275Q203 1337 220 1399T276 1519T376 1625T524 1711T725 1768T985 1789Q1088 1789 1192 1779T1397 1749T1590 1702T1763 1640L1623 1402Q1558 1428 1483 1451T1324 1491T1154 1517T978 1527Q845 1527 759 1506T623
1452T554 1379T534 1302Q534 1230 596 1189T785 1147Q840 1147 907 1154T1049 1169T1201 1185T1351 1192Q1489 1192 1595 1163T1773 1081T1882 951T1919 782Q1919 708 1892 638T1795 495Q1855 442 1887 373T1919 219Q1919 158 1901 98T1842 -16T1737 -117T1582
-198T1372 -251T1101 -270Q963 -270 825 -255T566 -214T348 -158T197 -94L351 148ZM536 726Q536 696 550 669T597 620T685 586T822 573Q889 573 961 580T1106 597T1251 614T1390 622Q1425 622 1457 620T1522 612Q1557 640 1571 672T1586 740Q1586 822 1516 868T1298
915Q1233 915 1161 907T1016 890T871 872T734 864Q681 864 630 870Q586 847 561 809T536 726Z" />
<glyph unicode="&#xa8;" glyph-name="dieresis" horiz-adv-x="1223" d="M910 1402Q861 1402 822 1417T756 1457T714 1516T699 1585Q699 1621 713 1653T755 1710T822 1749T910 1763Q959 1763 998 1749T1065 1711T1107 1654T1122 1585Q1122 1549 1108 1516T1066
1458T999 1417T910 1402ZM311 1402Q262 1402 223 1417T157 1457T115 1516T100 1585Q100 1621 114 1653T156 1710T223 1749T311 1763Q360 1763 399 1749T466 1711T508 1654T523 1585Q523 1549 509 1516T467 1458T400 1417T311 1402Z" />
<glyph unicode="&#xa9;" glyph-name="copyright" horiz-adv-x="2228" d="M212 869Q212 992 242 1106T328 1320T465 1500T646 1639T864 1728T1114 1760Q1245 1760 1363 1729T1581 1639T1762 1500T1899 1320T1985 1107T2016 869Q2016 746 1986 632T1900 419T1763
239T1582 99T1364 9T1114 -23Q982 -23 864 9T646 99T465 238T329 419T242 632T212 869ZM421 869Q421 770 444 682T510 518T615 381T754 277T922 211T1114 188Q1265 188 1392 239T1612 380T1755 596T1807 869Q1807 1016 1756 1141T1612 1357T1393 1499T1114 1550Q962
1550 835 1499T615 1357T472 1141T421 869ZM656 873Q656 961 688 1040T783 1178T935 1271T1141 1306Q1186 1306 1232 1301T1322 1286T1406 1262T1480 1230L1406 1066Q1343 1095 1283 1107T1169 1120Q1097 1120 1043 1101T952 1047T896 968T877 872Q877 820 896
774T953 694T1045 641T1171 621Q1247 621 1314 643T1432 700L1507 535Q1438 492 1348 464T1150 435Q1038 435 947 468T791 561T691 700T656 873Z" />
<glyph unicode="&#xaa;" glyph-name="ordfeminine" horiz-adv-x="1368" d="M583 693Q482 693 408 715T285 776T212 868T188 983Q188 1046 213 1097T289 1186T420 1243T606 1264Q767 1264 950 1216Q926 1308 850 1352T652 1396Q576 1396 493 1379T329 1325L260
1514Q362 1550 472 1572T691 1594Q935 1594 1057 1470T1180 1088V709H952V791Q921 772 883 755T799 724T699 702T583 693ZM609 891Q666 891 717 901T812 928T891 967T952 1014V1032Q905 1046 859 1055T770 1070T690 1078T622 1081Q565 1081 528 1074T469 1055T437
1027T428 991Q428 971 437 953T467 922T523 900T609 891Z" />
<glyph unicode="&#xab;" glyph-name="guillemotleft" horiz-adv-x="2042" d="M240 394L649 708L240 1022L380 1205L1025 708L380 211L240 394ZM1070 394L1479 708L1070 1022L1210 1205L1855 708L1210 211L1070 394Z" />
<glyph unicode="&#xac;" glyph-name="logicalnot" horiz-adv-x="1480" d="M137 1060H1343L1342 481H1110V838H137V1060Z" />
<glyph unicode="&#xad;" glyph-name="uni00AD" horiz-adv-x="1229" />
<glyph unicode="&#xae;" glyph-name="registered" horiz-adv-x="2228" d="M212 869Q212 992 242 1106T328 1320T465 1500T646 1639T864 1728T1114 1760Q1245 1760 1363 1729T1581 1639T1762 1500T1899 1320T1985 1107T2016 869Q2016 746 1986 632T1900 419T1763
239T1582 99T1364 9T1114 -23Q982 -23 864 9T646 99T465 238T329 419T242 632T212 869ZM421 869Q421 770 444 682T510 518T615 381T754 277T922 211T1114 188Q1265 188 1392 239T1612 380T1755 596T1807 869Q1807 1016 1756 1141T1612 1357T1393 1499T1114 1550Q962
1550 835 1499T615 1357T472 1141T421 869ZM734 1297H1044Q1189 1297 1284 1274T1435 1210T1513 1117T1536 1003Q1536 958 1525 917T1488 842T1422 780T1324 734L1552 460H1305L1105 700H1049L938 701V460H734V1297ZM1047 868Q1125 868 1178 876T1264 901T1310
941T1324 995Q1324 1024 1311 1048T1265 1089T1179 1115T1044 1125H938V868H1047Z" />
<glyph unicode="&#xaf;" glyph-name="overscore" horiz-adv-x="1193" d="M100 1690H1093V1447H100V1690Z" />
<glyph unicode="&#xb0;" glyph-name="degree" horiz-adv-x="858" d="M429 943Q358 943 299 966T196 1032T128 1134T103 1268Q103 1341 127 1401T195 1504T298 1570T429 1593Q500 1593 559 1570T662 1504T730 1401T755 1268Q755 1194 731 1135T663 1032T560 966T429
943ZM429 1107Q460 1107 487 1119T534 1152T565 1202T577 1268Q577 1304 566 1333T534 1384T487 1417T429 1429Q398 1429 371 1417T324 1384T293 1334T281 1268Q281 1232 292 1203T324 1152T371 1119T429 1107Z" />
<glyph unicode="&#xb1;" glyph-name="plusminus" horiz-adv-x="1191" d="M137 221H1054V-1H137V221ZM479 684H137V906H479V1245H711V906H1054V684H711V327H479V684Z" />
<glyph unicode="&#xb2;" glyph-name="twosuperior" horiz-adv-x="1188" d="M155 917L526 1184Q604 1239 652 1278T727 1348T763 1403T772 1453Q772 1514 723 1549T571 1584Q490 1584 402 1558T228 1481L128 1668Q228 1731 345 1765T590 1800Q701 1800 783 1773T919
1700T999 1594T1026 1466Q1026 1425 1014 1379T963 1278T854 1161T670 1023L515 912H1059V698H155V917Z" />
<glyph unicode="&#xb3;" glyph-name="threesuperior" horiz-adv-x="1188" d="M216 969Q296 930 387 912T565 894Q637 894 687 905T770 935T817 979T832 1031Q832 1071 802 1106T712 1160T558 1178T339 1141L340 1319L696 1555H173V1769H1039V1579L693 1360Q784
1357 855 1330T976 1259T1050 1155T1076 1028Q1076 948 1041 884T939 773T777 703T561 678Q433 678 324 705T118 781L216 969Z" />
<glyph unicode="&#xb4;" glyph-name="acute" horiz-adv-x="1038" d="M98 1528L784 1849L895 1620L197 1321L98 1528Z" />
<glyph unicode="&#xb5;" glyph-name="mu" horiz-adv-x="1710" d="M481 -481H185L186 1180V1181H482V605Q482 523 500 456T561 340T677 266T858 239Q909 239 961 250T1062 280T1151 327T1223 386V1181H1519V1H1223V101Q1114 36 1004 8T795 -20Q703 -20 625 -1T481
62V-481Z" />
<glyph unicode="&#xb6;" glyph-name="paragraph" horiz-adv-x="2046" d="M878 460Q695 465 553 504T313 614T166 785T115 1011Q115 1088 134 1159T196 1293T306 1407T466 1495T682 1552T959 1573H1884V1360H1625V-482H1368V1360H1135V-482H878V460Z" />
<glyph unicode="&#xb7;" glyph-name="middot" horiz-adv-x="858" d="M191 818Q191 858 207 893T255 955T330 997T429 1012Q484 1012 528 997T602 956T649 894T666 818Q666 778 650 743T603 681T528 640T429 624Q374 624 330 639T255 681T208 742T191 818Z" />
<glyph unicode="&#xb8;" glyph-name="cedilla" horiz-adv-x="837" d="M473 30V-73Q643 -93 718 -153T794 -310Q794 -365 767 -406T692 -474T580 -516T440 -530Q361 -530 278 -515T127 -470L194 -309Q260 -332 316 -341T423 -350Q463 -350 489 -346T532 -334T554
-317T561 -297Q561 -282 548 -270T504 -248T420 -234T288 -229V30H473Z" />
<glyph unicode="&#xb9;" glyph-name="onesuperior" horiz-adv-x="858" d="M144 912H361V1551Q277 1528 199 1481L80 1655Q190 1721 321 1754T598 1788L597 1787H598V912H787V698H144V912Z" />
<glyph unicode="&#xba;" glyph-name="ordmasculine" horiz-adv-x="1368" d="M684 689Q559 689 458 724T286 821T177 966T139 1143Q139 1237 177 1319T286 1463T458 1560T684 1596Q809 1596 910 1561T1082 1464T1191 1320T1229 1143Q1229 1049 1191 966T1082 822T910
725T684 689ZM684 892Q756 892 812 912T908 966T967 1046T988 1143Q988 1194 968 1239T908 1319T813 1374T684 1395Q612 1395 556 1375T460 1320T401 1240T380 1143Q380 1092 400 1047T460 967T555 912T684 892Z" />
<glyph unicode="&#xbb;" glyph-name="guillemotright" horiz-adv-x="2042" d="M972 394L563 708L972 1022L832 1205L187 708L832 211L972 394ZM1802 394L1393 708L1802 1022L1662 1205L1017 708L1662 211L1802 394Z" />
<glyph unicode="&#xbc;" glyph-name="onequarter" horiz-adv-x="2897" d="M1904 1920H2171L889 -177H622L1904 1920ZM1638 414L2262 1063H2499V414H2684V200H2499V0H2262V200H1638V414ZM2262 414V771L1915 414H2262ZM274 912H491V1551Q407 1528 329 1481L210 1655Q320
1721 451 1754T728 1788L727 1787H728V912H917V698H274V912Z" />
<glyph unicode="&#xbd;" glyph-name="onehalf" horiz-adv-x="2905" d="M1874 1920H2141L859 -177H592L1874 1920ZM274 912H491V1551Q407 1528 329 1481L210 1655Q320 1721 451 1754T728 1788L727 1787H728V912H917V698H274V912ZM1801 206L2172 473Q2250 528 2298
567T2373 637T2409 692T2418 742Q2418 803 2369 838T2217 873Q2136 873 2048 847T1874 770L1774 957Q1874 1020 1991 1054T2236 1089Q2347 1089 2429 1062T2565 989T2645 883T2672 755Q2672 714 2660 668T2609 567T2500 450T2316 312L2161 201H2705V-13H1801V206Z"
/>
<glyph unicode="&#xbe;" glyph-name="threequarters" horiz-adv-x="2897" d="M1904 1920H2171L889 -177H622L1904 1920ZM1638 414L2262 1063H2499V414H2684V200H2499V0H2262V200H1638V414ZM2262 414V771L1915 414H2262ZM198 969Q278 930 369 912T547 894Q619 894
669 905T752 935T799 979T814 1031Q814 1071 784 1106T694 1160T540 1178T321 1141L322 1319L678 1555H155V1769H1021V1579L675 1360Q766 1357 837 1330T958 1259T1032 1155T1058 1028Q1058 948 1023 884T921 773T759 703T543 678Q415 678 306 705T100 781L198
969Z" />
<glyph unicode="&#xbf;" glyph-name="questiondown" horiz-adv-x="1710" d="M1041 219Q872 211 758 194T576 151T478 93T449 21Q449 -16 473 -45T542 -93T651 -123T797 -133Q884 -133 973 -122T1144 -92T1298 -47T1424 8L1570 -232Q1519 -262 1442 -294T1268 -354T1055
-398T812 -415Q653 -415 527 -386T313 -301T179 -164T132 20Q132 98 162 164T265 283T457 375T756 438V611H1041V219ZM1109 1007Q1109 967 1093 932T1045 870T970 828T871 813Q816 813 772 828T698 869T651 931T634 1007Q634 1047 650 1082T697 1144T772 1185T871
1201Q926 1201 970 1186T1045 1144T1092 1083T1109 1007Z" />
<glyph unicode="&#xc0;" glyph-name="Agrave" horiz-adv-x="1868" d="M755 1563H1091L1847 0H1514L1389 263H476L355 0H21L755 1563ZM1264 524L926 1234L597 524H1264ZM624 2030L1298 1841L1236 1623L554 1782L624 2030Z" />
<glyph unicode="&#xc1;" glyph-name="Aacute" horiz-adv-x="1868" d="M755 1563H1091L1847 0H1514L1389 263H476L355 0H21L755 1563ZM1264 524L926 1234L597 524H1264ZM554 1841L1228 2030L1298 1782L616 1623L554 1841Z" />
<glyph unicode="&#xc2;" glyph-name="Acircumflex" horiz-adv-x="1868" d="M755 1563H1091L1847 0H1514L1389 263H476L355 0H21L755 1563ZM1264 524L926 1234L597 524H1264ZM469 1823L926 2030L1383 1823L1274 1609L926 1772L578 1609L469 1823Z" />
<glyph unicode="&#xc3;" glyph-name="Atilde" horiz-adv-x="1868" d="M755 1563H1091L1847 0H1514L1389 263H476L355 0H21L755 1563ZM1264 524L926 1234L597 524H1264ZM478 1913Q532 1970 599 2000T738 2030Q801 2030 849 2011T940 1968T1024 1925T1114 1905Q1144
1905 1179 1913T1250 1937T1317 1973T1374 2018V1778Q1320 1721 1253 1691T1114 1661Q1051 1661 1003 1680T912 1723T828 1766T738 1786Q708 1786 673 1778T602 1754T535 1718T478 1673V1913Z" />
<glyph unicode="&#xc4;" glyph-name="Adieresis" horiz-adv-x="1868" d="M755 1563H1091L1847 0H1514L1389 263H476L355 0H21L755 1563ZM1264 524L926 1234L597 524H1264ZM1271 1669Q1222 1669 1183 1684T1117 1724T1075 1783T1060 1852Q1060 1888 1074 1920T1116
1977T1183 2016T1271 2030Q1320 2030 1359 2016T1426 1978T1468 1921T1483 1852Q1483 1816 1469 1783T1427 1725T1360 1684T1271 1669ZM580 1669Q531 1669 492 1684T426 1724T384 1783T369 1852Q369 1888 383 1920T425 1977T492 2016T580 2030Q629 2030 668 2016T735
1978T777 1921T792 1852Q792 1816 778 1783T736 1725T669 1684T580 1669Z" />
<glyph unicode="&#xc5;" glyph-name="Aring" horiz-adv-x="1868" d="M755 1563H1091L1847 0H1514L1389 263H476L355 0H21L755 1563ZM1264 524L926 1234L597 524H1264ZM926 1415Q846 1415 783 1439T676 1504T609 1602T585 1722Q585 1786 608 1842T676 1939T783
2005T926 2029Q1005 2029 1068 2005T1176 1940T1243 1842T1267 1722Q1267 1658 1244 1602T1176 1505T1069 1439T926 1415ZM926 1582Q960 1582 987 1593T1033 1623T1062 1667T1072 1722Q1072 1752 1062 1777T1034 1821T988 1850T926 1861Q891 1861 864 1851T819
1821T790 1777T780 1722Q780 1693 790 1668T818 1623T864 1593T926 1582Z" />
<glyph unicode="&#xc6;" glyph-name="AE" horiz-adv-x="2729" d="M1193 1563H2503V1285H1618V973H2387V712H1618V277H2524V0H1301V263H546L348 0H4L1193 1563ZM1301 524V1264L743 524H1301ZM1301 1563H2632V1285H1618V973H2516V712H1618V277H2653V0H1301V1563Z" />
<glyph unicode="&#xc7;" glyph-name="Ccedilla" horiz-adv-x="1879" d="M127 791Q127 958 190 1102T372 1353T664 1521T1055 1582Q1246 1582 1405 1544T1702 1426L1556 1186Q1515 1213 1462 1234T1348 1269T1223 1292T1095 1300Q943 1300 824 1263T624 1158T500
997T457 791Q457 675 501 578T628 411T832 301T1105 261Q1174 261 1242 271T1373 298T1496 340T1606 394L1752 154Q1624 72 1456 26T1099 -21Q858 -21 676 41T372 213T189 471T127 791ZM1038 30V-73Q1208 -93 1283 -153T1359 -310Q1359 -365 1332 -406T1257 -474T1145
-516T1005 -530Q926 -530 843 -515T692 -470L759 -309Q825 -332 881 -341T988 -350Q1028 -350 1054 -346T1097 -334T1119 -317T1126 -297Q1126 -282 1113 -270T1069 -248T985 -234T853 -229V30H1038Z" />
<glyph unicode="&#xc8;" glyph-name="Egrave" horiz-adv-x="1704" d="M222 1563H1553V1285H539V973H1437V712H539V277H1574V0H222V1563ZM596 2030L1270 1841L1208 1623L526 1782L596 2030Z" />
<glyph unicode="&#xc9;" glyph-name="Eacute" horiz-adv-x="1704" d="M222 1563H1553V1285H539V973H1437V712H539V277H1574V0H222V1563ZM526 1841L1200 2030L1270 1782L588 1623L526 1841Z" />
<glyph unicode="&#xca;" glyph-name="Ecircumflex" horiz-adv-x="1704" d="M222 1563H1553V1285H539V973H1437V712H539V277H1574V0H222V1563ZM441 1823L898 2030L1355 1823L1246 1609L898 1772L550 1609L441 1823Z" />
<glyph unicode="&#xcb;" glyph-name="Edieresis" horiz-adv-x="1704" d="M222 1563H1553V1285H539V973H1437V712H539V277H1574V0H222V1563ZM1243 1669Q1194 1669 1155 1684T1089 1724T1047 1783T1032 1852Q1032 1888 1046 1920T1088 1977T1155 2016T1243 2030Q1292
2030 1331 2016T1398 1978T1440 1921T1455 1852Q1455 1816 1441 1783T1399 1725T1332 1684T1243 1669ZM552 1669Q503 1669 464 1684T398 1724T356 1783T341 1852Q341 1888 355 1920T397 1977T464 2016T552 2030Q601 2030 640 2016T707 1978T749 1921T764 1852Q764
1816 750 1783T708 1725T641 1684T552 1669Z" />
<glyph unicode="&#xcc;" glyph-name="Igrave" horiz-adv-x="683" d="M182 1563H501V0H182V1563ZM40 2030L714 1841L652 1623L-30 1782L40 2030Z" />
<glyph unicode="&#xcd;" glyph-name="Iacute" horiz-adv-x="683" d="M182 1563H501V0H182V1563ZM-30 1841L644 2030L714 1782L32 1623L-30 1841Z" />
<glyph unicode="&#xce;" glyph-name="Icircumflex" horiz-adv-x="683" d="M182 1563H501V0H182V1563ZM-115 1823L342 2030L799 1823L690 1609L342 1772L-6 1609L-115 1823Z" />
<glyph unicode="&#xcf;" glyph-name="Idieresis" horiz-adv-x="683" d="M182 1563H501V0H182V1563ZM687 1669Q638 1669 599 1684T533 1724T491 1783T476 1852Q476 1888 490 1920T532 1977T599 2016T687 2030Q736 2030 775 2016T842 1978T884 1921T899 1852Q899
1816 885 1783T843 1725T776 1684T687 1669ZM-4 1669Q-53 1669 -92 1684T-158 1724T-200 1783T-215 1852Q-215 1888 -201 1920T-159 1977T-92 2016T-4 2030Q45 2030 84 2016T151 1978T193 1921T208 1852Q208 1816 194 1783T152 1725T85 1684T-4 1669Z" />
<glyph unicode="&#xd0;" glyph-name="Eth" horiz-adv-x="1879" d="M8 915H925V693H8V915ZM222 1563H795Q1046 1563 1231 1509T1537 1355T1718 1111T1778 788Q1778 618 1719 474T1539 224T1233 59T797 -1L222 0V1563ZM873 274Q1015 274 1122 310T1300 414T1408
576T1444 788Q1444 903 1408 995T1301 1152T1122 1252T873 1287H539V274H873Z" />
<glyph unicode="&#xd1;" glyph-name="Ntilde" horiz-adv-x="2048" d="M220 1563H537L1511 1053V1563H1828V0H1511V717L537 1224V0H220V1563ZM576 1913Q630 1970 697 2000T836 2030Q899 2030 947 2011T1038 1968T1122 1925T1212 1905Q1242 1905 1277 1913T1348
1937T1415 1973T1472 2018V1778Q1418 1721 1351 1691T1212 1661Q1149 1661 1101 1680T1010 1723T926 1766T836 1786Q806 1786 771 1778T700 1754T633 1718T576 1673V1913Z" />
<glyph unicode="&#xd2;" glyph-name="Ograve" horiz-adv-x="2048" d="M130 786Q130 963 195 1110T377 1362T659 1526T1024 1584Q1223 1584 1388 1526T1670 1363T1853 1110T1918 786Q1918 608 1853 460T1671 204T1388 38T1024 -22Q824 -22 660 37T378 204T195 459T130
786ZM447 786Q447 665 490 568T611 403T794 297T1024 260Q1148 260 1253 297T1436 402T1557 568T1601 786Q1601 907 1557 1003T1436 1165T1254 1267T1024 1302Q900 1302 795 1267T612 1166T491 1003T447 786ZM722 2030L1396 1841L1334 1623L652 1782L722 2030Z"
/>
<glyph unicode="&#xd3;" glyph-name="Oacute" horiz-adv-x="2048" d="M130 786Q130 963 195 1110T377 1362T659 1526T1024 1584Q1223 1584 1388 1526T1670 1363T1853 1110T1918 786Q1918 608 1853 460T1671 204T1388 38T1024 -22Q824 -22 660 37T378 204T195 459T130
786ZM447 786Q447 665 490 568T611 403T794 297T1024 260Q1148 260 1253 297T1436 402T1557 568T1601 786Q1601 907 1557 1003T1436 1165T1254 1267T1024 1302Q900 1302 795 1267T612 1166T491 1003T447 786ZM652 1841L1326 2030L1396 1782L714 1623L652 1841Z"
/>
<glyph unicode="&#xd4;" glyph-name="Ocircumflex" horiz-adv-x="2048" d="M130 786Q130 963 195 1110T377 1362T659 1526T1024 1584Q1223 1584 1388 1526T1670 1363T1853 1110T1918 786Q1918 608 1853 460T1671 204T1388 38T1024 -22Q824 -22 660 37T378 204T195
459T130 786ZM447 786Q447 665 490 568T611 403T794 297T1024 260Q1148 260 1253 297T1436 402T1557 568T1601 786Q1601 907 1557 1003T1436 1165T1254 1267T1024 1302Q900 1302 795 1267T612 1166T491 1003T447 786ZM567 1823L1024 2030L1481 1823L1372 1609L1024
1772L676 1609L567 1823Z" />
<glyph unicode="&#xd5;" glyph-name="Otilde" horiz-adv-x="2048" d="M130 786Q130 963 195 1110T377 1362T659 1526T1024 1584Q1223 1584 1388 1526T1670 1363T1853 1110T1918 786Q1918 608 1853 460T1671 204T1388 38T1024 -22Q824 -22 660 37T378 204T195 459T130
786ZM447 786Q447 665 490 568T611 403T794 297T1024 260Q1148 260 1253 297T1436 402T1557 568T1601 786Q1601 907 1557 1003T1436 1165T1254 1267T1024 1302Q900 1302 795 1267T612 1166T491 1003T447 786ZM576 1913Q630 1970 697 2000T836 2030Q899 2030 947
2011T1038 1968T1122 1925T1212 1905Q1242 1905 1277 1913T1348 1937T1415 1973T1472 2018V1778Q1418 1721 1351 1691T1212 1661Q1149 1661 1101 1680T1010 1723T926 1766T836 1786Q806 1786 771 1778T700 1754T633 1718T576 1673V1913Z" />
<glyph unicode="&#xd6;" glyph-name="Odieresis" horiz-adv-x="2048" d="M130 786Q130 963 195 1110T377 1362T659 1526T1024 1584Q1223 1584 1388 1526T1670 1363T1853 1110T1918 786Q1918 608 1853 460T1671 204T1388 38T1024 -22Q824 -22 660 37T378 204T195
459T130 786ZM447 786Q447 665 490 568T611 403T794 297T1024 260Q1148 260 1253 297T1436 402T1557 568T1601 786Q1601 907 1557 1003T1436 1165T1254 1267T1024 1302Q900 1302 795 1267T612 1166T491 1003T447 786ZM1369 1669Q1320 1669 1281 1684T1215 1724T1173
1783T1158 1852Q1158 1888 1172 1920T1214 1977T1281 2016T1369 2030Q1418 2030 1457 2016T1524 1978T1566 1921T1581 1852Q1581 1816 1567 1783T1525 1725T1458 1684T1369 1669ZM678 1669Q629 1669 590 1684T524 1724T482 1783T467 1852Q467 1888 481 1920T523
1977T590 2016T678 2030Q727 2030 766 2016T833 1978T875 1921T890 1852Q890 1816 876 1783T834 1725T767 1684T678 1669Z" />
<glyph unicode="&#xd7;" glyph-name="multiply" horiz-adv-x="1360" d="M207 470L519 782L207 1095L371 1259L683 946L996 1259L1153 1102L840 789L1153 477L989 313L676 625L364 313L207 470Z" />
<glyph unicode="&#xd8;" glyph-name="Oslash" horiz-adv-x="2048" d="M1623 1770H1910L416 -246H129L1623 1770ZM130 786Q130 963 195 1110T377 1362T659 1526T1024 1584Q1223 1584 1388 1526T1670 1363T1853 1110T1918 786Q1918 608 1853 460T1671 204T1388 38T1024
-22Q824 -22 660 37T378 204T195 459T130 786ZM447 786Q447 665 490 568T611 403T794 297T1024 260Q1148 260 1253 297T1436 402T1557 568T1601 786Q1601 907 1557 1003T1436 1165T1254 1267T1024 1302Q900 1302 795 1267T612 1166T491 1003T447 786Z" />
<glyph unicode="&#xd9;" glyph-name="Ugrave" horiz-adv-x="1873" d="M163 1563H480V702Q480 596 509 514T595 374T738 288T936 258Q1048 258 1133 287T1276 374T1363 513T1392 702V1563H1709V664Q1709 510 1657 384T1506 168T1264 29T936 -20Q752 -20 609 29T366
168T215 384T163 664V1563ZM634 2030L1308 1841L1246 1623L564 1782L634 2030Z" />
<glyph unicode="&#xda;" glyph-name="Uacute" horiz-adv-x="1873" d="M163 1563H480V702Q480 596 509 514T595 374T738 288T936 258Q1048 258 1133 287T1276 374T1363 513T1392 702V1563H1709V664Q1709 510 1657 384T1506 168T1264 29T936 -20Q752 -20 609 29T366
168T215 384T163 664V1563ZM564 1841L1238 2030L1308 1782L626 1623L564 1841Z" />
<glyph unicode="&#xdb;" glyph-name="Ucircumflex" horiz-adv-x="1873" d="M163 1563H480V702Q480 596 509 514T595 374T738 288T936 258Q1048 258 1133 287T1276 374T1363 513T1392 702V1563H1709V664Q1709 510 1657 384T1506 168T1264 29T936 -20Q752 -20 609
29T366 168T215 384T163 664V1563ZM479 1823L936 2030L1393 1823L1284 1609L936 1772L588 1609L479 1823Z" />
<glyph unicode="&#xdc;" glyph-name="Udieresis" horiz-adv-x="1873" d="M163 1563H480V702Q480 596 509 514T595 374T738 288T936 258Q1048 258 1133 287T1276 374T1363 513T1392 702V1563H1709V664Q1709 510 1657 384T1506 168T1264 29T936 -20Q752 -20 609
29T366 168T215 384T163 664V1563ZM1281 1669Q1232 1669 1193 1684T1127 1724T1085 1783T1070 1852Q1070 1888 1084 1920T1126 1977T1193 2016T1281 2030Q1330 2030 1369 2016T1436 1978T1478 1921T1493 1852Q1493 1816 1479 1783T1437 1725T1370 1684T1281 1669ZM590
1669Q541 1669 502 1684T436 1724T394 1783T379 1852Q379 1888 393 1920T435 1977T502 2016T590 2030Q639 2030 678 2016T745 1978T787 1921T802 1852Q802 1816 788 1783T746 1725T679 1684T590 1669Z" />
<glyph unicode="&#xdd;" glyph-name="Yacute" horiz-adv-x="1710" d="M701 387L18 1563H377L858 674L1333 1563H1692L1018 389V0H701V387ZM483 1841L1157 2030L1227 1782L545 1623L483 1841Z" />
<glyph unicode="&#xde;" glyph-name="Thorn" horiz-adv-x="1879" d="M222 1563H539V1363H1017Q1197 1363 1329 1325T1548 1215T1677 1042T1720 813Q1720 693 1678 591T1550 413T1331 296T1019 254L539 255V0H222V1563ZM1025 529Q1115 529 1182 549T1295 606T1363
695T1386 813Q1386 876 1364 926T1296 1012T1183 1067T1025 1087H539V529H1025Z" />
<glyph unicode="&#xdf;" glyph-name="germandbls" horiz-adv-x="1875" d="M251 958H59V1180H252Q256 1292 295 1380T405 1529T578 1621T810 1653Q954 1653 1059 1617T1232 1520T1333 1382T1366 1222Q1366 1124 1321 1045T1191 888Q1309 888 1416 860T1606 776T1736
634T1785 434Q1785 331 1743 247T1619 103T1416 11T1135 -22Q1081 -22 1025 -18T913 -5T806 20T709 57L804 292Q892 251 981 237T1146 222Q1221 222 1281 234T1384 273T1450 339T1474 434Q1474 464 1465 496T1431 557T1361 610T1245 649T1071 667T828 658V870Q946
962 1000 1041T1055 1192Q1055 1230 1040 1264T995 1325T920 1366T813 1382Q751 1382 702 1366T619 1318T566 1240T547 1134V0H251V958Z" />
<glyph unicode="&#xe0;" glyph-name="agrave" horiz-adv-x="1701" d="M129 372Q129 457 166 527T277 647T461 725T719 753Q828 753 948 737T1197 688Q1192 744 1163 791T1083 873T959 927T794 946Q744 946 684 940T560 922T434 892T317 849L227 1092Q294 1116
370 1136T527 1170T687 1193T842 1201Q1173 1201 1334 1032T1495 514V0H1199V111Q1153 84 1099 60T980 18T843 -10T687 -21Q549 -21 445 9T270 92T165 216T129 372ZM441 382Q441 353 456 327T504 280T588 247T713 234Q791 234 864 248T1000 285T1114 338T1199 400V452Q1131
471 1065 484T938 504T824 515T730 518Q647 518 592 507T503 478T455 434T441 382ZM414 1620L525 1849L1211 1528L1112 1321L414 1620Z" />
<glyph unicode="&#xe1;" glyph-name="aacute" horiz-adv-x="1701" d="M129 372Q129 457 166 527T277 647T461 725T719 753Q828 753 948 737T1197 688Q1192 744 1163 791T1083 873T959 927T794 946Q744 946 684 940T560 922T434 892T317 849L227 1092Q294 1116
370 1136T527 1170T687 1193T842 1201Q1173 1201 1334 1032T1495 514V0H1199V111Q1153 84 1099 60T980 18T843 -10T687 -21Q549 -21 445 9T270 92T165 216T129 372ZM441 382Q441 353 456 327T504 280T588 247T713 234Q791 234 864 248T1000 285T1114 338T1199 400V452Q1131
471 1065 484T938 504T824 515T730 518Q647 518 592 507T503 478T455 434T441 382ZM414 1528L1100 1849L1211 1620L513 1321L414 1528Z" />
<glyph unicode="&#xe2;" glyph-name="acircumflex" horiz-adv-x="1701" d="M129 372Q129 457 166 527T277 647T461 725T719 753Q828 753 948 737T1197 688Q1192 744 1163 791T1083 873T959 927T794 946Q744 946 684 940T560 922T434 892T317 849L227 1092Q294
1116 370 1136T527 1170T687 1193T842 1201Q1173 1201 1334 1032T1495 514V0H1199V111Q1153 84 1099 60T980 18T843 -10T687 -21Q549 -21 445 9T270 92T165 216T129 372ZM441 382Q441 353 456 327T504 280T588 247T713 234Q791 234 864 248T1000 285T1114 338T1199
400V452Q1131 471 1065 484T938 504T824 515T730 518Q647 518 592 507T503 478T455 434T441 382ZM341 1535L812 1890L1283 1535L1143 1351L812 1601L481 1351L341 1535Z" />
<glyph unicode="&#xe3;" glyph-name="atilde" horiz-adv-x="1701" d="M129 372Q129 457 166 527T277 647T461 725T719 753Q828 753 948 737T1197 688Q1192 744 1163 791T1083 873T959 927T794 946Q744 946 684 940T560 922T434 892T317 849L227 1092Q294 1116
370 1136T527 1170T687 1193T842 1201Q1173 1201 1334 1032T1495 514V0H1199V111Q1153 84 1099 60T980 18T843 -10T687 -21Q549 -21 445 9T270 92T165 216T129 372ZM441 382Q441 353 456 327T504 280T588 247T713 234Q791 234 864 248T1000 285T1114 338T1199 400V452Q1131
471 1065 484T938 504T824 515T730 518Q647 518 592 507T503 478T455 434T441 382ZM364 1666Q418 1723 485 1753T624 1783Q687 1783 735 1764T826 1721T910 1678T1000 1658Q1030 1658 1065 1666T1136 1690T1203 1726T1260 1771V1521Q1206 1464 1139 1434T1000 1404Q937
1404 889 1423T798 1466T714 1509T624 1529Q594 1529 559 1521T488 1497T421 1461T364 1416V1666Z" />
<glyph unicode="&#xe4;" glyph-name="adieresis" horiz-adv-x="1701" d="M129 372Q129 457 166 527T277 647T461 725T719 753Q828 753 948 737T1197 688Q1192 744 1163 791T1083 873T959 927T794 946Q744 946 684 940T560 922T434 892T317 849L227 1092Q294 1116
370 1136T527 1170T687 1193T842 1201Q1173 1201 1334 1032T1495 514V0H1199V111Q1153 84 1099 60T980 18T843 -10T687 -21Q549 -21 445 9T270 92T165 216T129 372ZM441 382Q441 353 456 327T504 280T588 247T713 234Q791 234 864 248T1000 285T1114 338T1199 400V452Q1131
471 1065 484T938 504T824 515T730 518Q647 518 592 507T503 478T455 434T441 382ZM1111 1402Q1062 1402 1023 1417T957 1457T915 1516T900 1585Q900 1621 914 1653T956 1710T1023 1749T1111 1763Q1160 1763 1199 1749T1266 1711T1308 1654T1323 1585Q1323 1549
1309 1516T1267 1458T1200 1417T1111 1402ZM512 1402Q463 1402 424 1417T358 1457T316 1516T301 1585Q301 1621 315 1653T357 1710T424 1749T512 1763Q561 1763 600 1749T667 1711T709 1654T724 1585Q724 1549 710 1516T668 1458T601 1417T512 1402Z" />
<glyph unicode="&#xe5;" glyph-name="aring" horiz-adv-x="1701" d="M129 372Q129 457 166 527T277 647T461 725T719 753Q828 753 948 737T1197 688Q1192 744 1163 791T1083 873T959 927T794 946Q744 946 684 940T560 922T434 892T317 849L227 1092Q294 1116 370
1136T527 1170T687 1193T842 1201Q1173 1201 1334 1032T1495 514V0H1199V111Q1153 84 1099 60T980 18T843 -10T687 -21Q549 -21 445 9T270 92T165 216T129 372ZM441 382Q441 353 456 327T504 280T588 247T713 234Q791 234 864 248T1000 285T1114 338T1199 400V452Q1131
471 1065 484T938 504T824 515T730 518Q647 518 592 507T503 478T455 434T441 382ZM812 1301Q732 1301 670 1321T563 1376T496 1459T473 1563Q473 1618 496 1666T563 1749T669 1805T812 1825Q891 1825 954 1805T1061 1750T1128 1666T1151 1563Q1151 1507 1128 1460T1061
1377T954 1321T812 1301ZM812 1446Q881 1446 918 1479T956 1563Q956 1615 919 1647T812 1679Q743 1679 706 1647T668 1563Q668 1512 705 1479T812 1446Z" />
<glyph unicode="&#xe6;" glyph-name="ae" horiz-adv-x="2726" d="M129 371Q129 456 163 526T267 647T444 725T699 753Q808 753 928 737T1177 688Q1172 744 1142 791T1058 873T930 927T764 946Q714 946 659 940T545 922T429 892T317 849L227 1092Q358 1139 508
1170T812 1201Q989 1201 1117 1155T1328 1011Q1422 1098 1556 1149T1864 1201Q2033 1201 2168 1151T2397 1012T2542 805T2593 550Q2593 533 2593 514T2590 478H1475V475Q1494 421 1538 377T1647 302T1793 255T1969 238Q2078 238 2177 259T2372 314L2472 88Q2356
32 2222 5T1947 -22Q1733 -22 1568 36T1301 199Q1260 160 1201 121T1063 51T887 -1T673 -21Q532 -21 429 9T260 91T161 216T129 371ZM2279 709Q2263 758 2230 800T2146 874T2030 924T1883 942Q1800 942 1732 923T1612 872T1525 798T1474 709H2279ZM443 382Q443
353 455 327T496 280T573 247T695 234Q773 234 846 248T982 285T1096 338T1181 400V452Q1113 471 1047 484T920 504T806 515T712 518Q633 518 581 508T499 480T456 437T443 382Z" />
<glyph unicode="&#xe7;" glyph-name="ccedilla" horiz-adv-x="1526" d="M114 587Q114 717 161 829T300 1024T524 1154T827 1201Q901 1201 976 1192T1120 1167T1251 1128T1357 1078L1220 855Q1123 900 1037 921T861 942Q759 942 678 916T541 842T455 730T425 589Q425
513 456 449T545 338T684 265T866 238Q976 238 1073 269T1255 352L1392 129Q1339 97 1277 70T1145 22T997 -9T836 -21Q667 -21 533 25T306 152T164 345T114 587ZM850 30V-73Q1020 -93 1095 -153T1171 -310Q1171 -365 1144 -406T1069 -474T957 -516T817 -530Q738
-530 655 -515T504 -470L571 -309Q637 -332 693 -341T800 -350Q840 -350 866 -346T909 -334T931 -317T938 -297Q938 -282 925 -270T881 -248T797 -234T665 -229V30H850Z" />
<glyph unicode="&#xe8;" glyph-name="egrave" horiz-adv-x="1711" d="M129 594Q129 714 178 823T319 1017T544 1151T848 1201Q1017 1201 1152 1151T1382 1012T1527 805T1578 550Q1578 533 1578 514T1575 478H459Q478 425 520 381T627 305T775 256T961 238Q1063
238 1164 259T1357 314L1457 88Q1399 61 1340 41T1216 7T1081 -14T932 -21Q733 -21 583 27T332 158T180 353T129 594ZM1264 709Q1248 758 1215 800T1131 874T1015 924T870 942Q786 942 717 923T596 872T510 798T459 709H1264ZM455 1620L566 1849L1252 1528L1153
1321L455 1620Z" />
<glyph unicode="&#xe9;" glyph-name="eacute" horiz-adv-x="1711" d="M129 594Q129 714 178 823T319 1017T544 1151T848 1201Q1017 1201 1152 1151T1382 1012T1527 805T1578 550Q1578 533 1578 514T1575 478H459Q478 425 520 381T627 305T775 256T961 238Q1063
238 1164 259T1357 314L1457 88Q1399 61 1340 41T1216 7T1081 -14T932 -21Q733 -21 583 27T332 158T180 353T129 594ZM1264 709Q1248 758 1215 800T1131 874T1015 924T870 942Q786 942 717 923T596 872T510 798T459 709H1264ZM455 1528L1141 1849L1252 1620L554
1321L455 1528Z" />
<glyph unicode="&#xea;" glyph-name="ecircumflex" horiz-adv-x="1711" d="M129 594Q129 714 178 823T319 1017T544 1151T848 1201Q1017 1201 1152 1151T1382 1012T1527 805T1578 550Q1578 533 1578 514T1575 478H459Q478 425 520 381T627 305T775 256T961 238Q1063
238 1164 259T1357 314L1457 88Q1399 61 1340 41T1216 7T1081 -14T932 -21Q733 -21 583 27T332 158T180 353T129 594ZM1264 709Q1248 758 1215 800T1131 874T1015 924T870 942Q786 942 717 923T596 872T510 798T459 709H1264ZM382 1535L853 1890L1324 1535L1184
1351L853 1601L522 1351L382 1535Z" />
<glyph unicode="&#xeb;" glyph-name="edieresis" horiz-adv-x="1711" d="M129 594Q129 714 178 823T319 1017T544 1151T848 1201Q1017 1201 1152 1151T1382 1012T1527 805T1578 550Q1578 533 1578 514T1575 478H459Q478 425 520 381T627 305T775 256T961 238Q1063
238 1164 259T1357 314L1457 88Q1399 61 1340 41T1216 7T1081 -14T932 -21Q733 -21 583 27T332 158T180 353T129 594ZM1264 709Q1248 758 1215 800T1131 874T1015 924T870 942Q786 942 717 923T596 872T510 798T459 709H1264ZM1152 1402Q1103 1402 1064 1417T998
1457T956 1516T941 1585Q941 1621 955 1653T997 1710T1064 1749T1152 1763Q1201 1763 1240 1749T1307 1711T1349 1654T1364 1585Q1364 1549 1350 1516T1308 1458T1241 1417T1152 1402ZM553 1402Q504 1402 465 1417T399 1457T357 1516T342 1585Q342 1621 356 1653T398
1710T465 1749T553 1763Q602 1763 641 1749T708 1711T750 1654T765 1585Q765 1549 751 1516T709 1458T642 1417T553 1402Z" />
<glyph unicode="&#xec;" glyph-name="igrave" horiz-adv-x="683" d="M61 1551L172 1780L644 1547L545 1340L61 1551ZM193 1180H489V0H193V1180Z" />
<glyph unicode="&#xed;" glyph-name="iacute" horiz-adv-x="683" d="M52 1547L524 1780L635 1551L151 1340L52 1547ZM193 1180H489V0H193V1180Z" />
<glyph unicode="&#xee;" glyph-name="icircumflex" horiz-adv-x="683" d="M193 1180H489V0H193V1180ZM-128 1535L343 1890L814 1535L674 1351L343 1601L12 1351L-128 1535Z" />
<glyph unicode="&#xef;" glyph-name="idieresis" horiz-adv-x="683" d="M193 1180H489V0H193V1180ZM642 1402Q593 1402 554 1417T488 1457T446 1516T431 1585Q431 1621 445 1653T487 1710T554 1749T642 1763Q691 1763 730 1749T797 1711T839 1654T854 1585Q854
1549 840 1516T798 1458T731 1417T642 1402ZM43 1402Q-6 1402 -45 1417T-111 1457T-153 1516T-168 1585Q-168 1621 -154 1653T-112 1710T-45 1749T43 1763Q92 1763 131 1749T198 1711T240 1654T255 1585Q255 1549 241 1516T199 1458T132 1417T43 1402Z" />
<glyph unicode="&#xf0;" glyph-name="eth" horiz-adv-x="1706" d="M101 542Q101 653 145 744T270 901T466 1001T725 1037Q785 1037 855 1030T999 1004T1150 955T1302 878Q1235 1115 1001 1265L866 1099L693 1239L797 1367Q742 1389 682 1407T556 1443L681 1674Q759
1653 829 1628T965 1573L1105 1745L1276 1604L1162 1464Q1382 1318 1493 1120T1605 689Q1605 542 1559 414T1419 189T1179 38T835 -18Q658 -18 522 26T292 146T150 324T101 542ZM410 535Q410 473 439 419T523 324T656 260T834 236Q935 236 1015 261T1154 332T1248
444T1295 591Q1261 628 1211 662T1095 723T952 766T784 782Q689 782 619 764T503 712T433 634T410 535Z" />
<glyph unicode="&#xf1;" glyph-name="ntilde" horiz-adv-x="1723" d="M185 1180H481V1080Q599 1147 706 1174T917 1201Q1052 1201 1167 1162T1366 1044T1497 850T1545 580V0H1250V532Q1250 629 1223 705T1144 834T1019 914T854 942Q806 942 756 932T657 904T563
858T481 795V0H185V1180ZM417 1666Q471 1723 538 1753T677 1783Q740 1783 788 1764T879 1721T963 1678T1053 1658Q1083 1658 1118 1666T1189 1690T1256 1726T1313 1771V1521Q1259 1464 1192 1434T1053 1404Q990 1404 942 1423T851 1466T767 1509T677 1529Q647 1529
612 1521T541 1497T474 1461T417 1416V1666Z" />
<glyph unicode="&#xf2;" glyph-name="ograve" horiz-adv-x="1696" d="M114 590Q114 717 165 828T312 1022T543 1153T848 1201Q1017 1201 1152 1153T1383 1022T1530 828T1582 590Q1582 463 1531 352T1384 158T1153 27T848 -21Q679 -21 544 27T313 158T166 352T114
590ZM425 590Q425 519 453 456T536 344T669 267T848 238Q948 238 1026 266T1159 343T1242 455T1271 590Q1271 661 1243 725T1160 837T1027 914T848 943Q748 943 670 915T537 838T454 725T425 590ZM450 1620L561 1849L1247 1528L1148 1321L450 1620Z" />
<glyph unicode="&#xf3;" glyph-name="oacute" horiz-adv-x="1696" d="M114 590Q114 717 165 828T312 1022T543 1153T848 1201Q1017 1201 1152 1153T1383 1022T1530 828T1582 590Q1582 463 1531 352T1384 158T1153 27T848 -21Q679 -21 544 27T313 158T166 352T114
590ZM425 590Q425 519 453 456T536 344T669 267T848 238Q948 238 1026 266T1159 343T1242 455T1271 590Q1271 661 1243 725T1160 837T1027 914T848 943Q748 943 670 915T537 838T454 725T425 590ZM450 1528L1136 1849L1247 1620L549 1321L450 1528Z" />
<glyph unicode="&#xf4;" glyph-name="ocircumflex" horiz-adv-x="1696" d="M114 590Q114 717 165 828T312 1022T543 1153T848 1201Q1017 1201 1152 1153T1383 1022T1530 828T1582 590Q1582 463 1531 352T1384 158T1153 27T848 -21Q679 -21 544 27T313 158T166
352T114 590ZM425 590Q425 519 453 456T536 344T669 267T848 238Q948 238 1026 266T1159 343T1242 455T1271 590Q1271 661 1243 725T1160 837T1027 914T848 943Q748 943 670 915T537 838T454 725T425 590ZM377 1535L848 1890L1319 1535L1179 1351L848 1601L517
1351L377 1535Z" />
<glyph unicode="&#xf5;" glyph-name="otilde" horiz-adv-x="1696" d="M114 590Q114 717 165 828T312 1022T543 1153T848 1201Q1017 1201 1152 1153T1383 1022T1530 828T1582 590Q1582 463 1531 352T1384 158T1153 27T848 -21Q679 -21 544 27T313 158T166 352T114
590ZM425 590Q425 519 453 456T536 344T669 267T848 238Q948 238 1026 266T1159 343T1242 455T1271 590Q1271 661 1243 725T1160 837T1027 914T848 943Q748 943 670 915T537 838T454 725T425 590ZM400 1666Q454 1723 521 1753T660 1783Q723 1783 771 1764T862 1721T946
1678T1036 1658Q1066 1658 1101 1666T1172 1690T1239 1726T1296 1771V1521Q1242 1464 1175 1434T1036 1404Q973 1404 925 1423T834 1466T750 1509T660 1529Q630 1529 595 1521T524 1497T457 1461T400 1416V1666Z" />
<glyph unicode="&#xf6;" glyph-name="odieresis" horiz-adv-x="1696" d="M114 590Q114 717 165 828T312 1022T543 1153T848 1201Q1017 1201 1152 1153T1383 1022T1530 828T1582 590Q1582 463 1531 352T1384 158T1153 27T848 -21Q679 -21 544 27T313 158T166 352T114
590ZM425 590Q425 519 453 456T536 344T669 267T848 238Q948 238 1026 266T1159 343T1242 455T1271 590Q1271 661 1243 725T1160 837T1027 914T848 943Q748 943 670 915T537 838T454 725T425 590ZM1147 1402Q1098 1402 1059 1417T993 1457T951 1516T936 1585Q936
1621 950 1653T992 1710T1059 1749T1147 1763Q1196 1763 1235 1749T1302 1711T1344 1654T1359 1585Q1359 1549 1345 1516T1303 1458T1236 1417T1147 1402ZM548 1402Q499 1402 460 1417T394 1457T352 1516T337 1585Q337 1621 351 1653T393 1710T460 1749T548 1763Q597
1763 636 1749T703 1711T745 1654T760 1585Q760 1549 746 1516T704 1458T637 1417T548 1402Z" />
<glyph unicode="&#xf7;" glyph-name="divide" horiz-adv-x="1191" d="M372 350Q372 390 388 425T436 487T511 529T610 544Q665 544 709 529T783 488T830 426T847 350Q847 310 831 275T784 213T709 172T610 156Q555 156 511 171T436 213T389 274T372 350ZM372 1237Q372
1277 388 1312T436 1374T511 1416T610 1431Q665 1431 709 1416T783 1375T830 1313T847 1237Q847 1197 831 1162T784 1100T709 1059T610 1043Q555 1043 511 1058T436 1100T389 1161T372 1237ZM137 906H1054V684H137V906Z" />
<glyph unicode="&#xf8;" glyph-name="oslash" horiz-adv-x="1696" d="M1323 1426H1610L372 -246H85L1323 1426ZM114 590Q114 717 165 828T312 1022T543 1153T848 1201Q1017 1201 1152 1153T1383 1022T1530 828T1582 590Q1582 463 1531 352T1384 158T1153 27T848
-21Q679 -21 544 27T313 158T166 352T114 590ZM425 590Q425 519 453 456T536 344T669 267T848 238Q948 238 1026 266T1159 343T1242 455T1271 590Q1271 661 1243 725T1160 837T1027 914T848 943Q748 943 670 915T537 838T454 725T425 590Z" />
<glyph unicode="&#xf9;" glyph-name="ugrave" horiz-adv-x="1708" d="M185 1181H480V605Q480 523 498 456T559 340T675 266T856 239Q907 239 959 250T1060 280T1149 327T1221 386V1181H1517V0H1221V101Q1112 36 1002 8T793 -20Q631 -20 516 19T327 132T219 315T185
563V1181ZM453 1620L564 1849L1250 1528L1151 1321L453 1620Z" />
<glyph unicode="&#xfa;" glyph-name="uacute" horiz-adv-x="1708" d="M185 1181H480V605Q480 523 498 456T559 340T675 266T856 239Q907 239 959 250T1060 280T1149 327T1221 386V1181H1517V0H1221V101Q1112 36 1002 8T793 -20Q631 -20 516 19T327 132T219 315T185
563V1181ZM453 1528L1139 1849L1250 1620L552 1321L453 1528Z" />
<glyph unicode="&#xfb;" glyph-name="ucircumflex" horiz-adv-x="1708" d="M185 1181H480V605Q480 523 498 456T559 340T675 266T856 239Q907 239 959 250T1060 280T1149 327T1221 386V1181H1517V0H1221V101Q1112 36 1002 8T793 -20Q631 -20 516 19T327 132T219
315T185 563V1181ZM380 1535L851 1890L1322 1535L1182 1351L851 1601L520 1351L380 1535Z" />
<glyph unicode="&#xfc;" glyph-name="udieresis" horiz-adv-x="1708" d="M185 1181H480V605Q480 523 498 456T559 340T675 266T856 239Q907 239 959 250T1060 280T1149 327T1221 386V1181H1517V0H1221V101Q1112 36 1002 8T793 -20Q631 -20 516 19T327 132T219
315T185 563V1181ZM1150 1402Q1101 1402 1062 1417T996 1457T954 1516T939 1585Q939 1621 953 1653T995 1710T1062 1749T1150 1763Q1199 1763 1238 1749T1305 1711T1347 1654T1362 1585Q1362 1549 1348 1516T1306 1458T1239 1417T1150 1402ZM551 1402Q502 1402
463 1417T397 1457T355 1516T340 1585Q340 1621 354 1653T396 1710T463 1749T551 1763Q600 1763 639 1749T706 1711T748 1654T763 1585Q763 1549 749 1516T707 1458T640 1417T551 1402Z" />
<glyph unicode="&#xfd;" glyph-name="yacute" horiz-adv-x="1698" d="M326 -148Q372 -178 426 -201T538 -239T658 -261T779 -269Q983 -269 1093 -182T1204 81V121Q1165 94 1117 72T1013 33T896 9T771 0Q636 0 530 39T350 155T237 344T198 600V1180H493V682Q493
468 574 367T832 265Q956 265 1051 308T1204 420V1180H1500V135Q1500 -34 1452 -158T1313 -365T1088 -487T786 -528Q621 -528 478 -493T216 -398L326 -148ZM431 1528L1117 1849L1228 1620L530 1321L431 1528Z" />
<glyph unicode="&#xfe;" glyph-name="thorn" horiz-adv-x="1711" d="M473 -481H177V1659H473V1069Q512 1096 565 1120T679 1162T805 1190T935 1201Q1085 1201 1210 1157T1426 1033T1566 842T1617 595Q1617 454 1564 341T1418 147T1196 23T917 -21Q853 -21 791
-13T671 9T563 42T473 85V-481ZM473 371Q518 335 568 310T670 269T775 246T878 238Q980 238 1059 265T1193 341T1277 454T1306 595Q1306 666 1278 729T1196 839T1067 914T897 942Q837 942 777 931T662 898T558 847T473 780V371Z" />
<glyph unicode="&#xff;" glyph-name="ydieresis" horiz-adv-x="1698" d="M326 -148Q372 -178 426 -201T538 -239T658 -261T779 -269Q983 -269 1093 -182T1204 81V121Q1165 94 1117 72T1013 33T896 9T771 0Q636 0 530 39T350 155T237 344T198 600V1180H493V682Q493
468 574 367T832 265Q956 265 1051 308T1204 420V1180H1500V135Q1500 -34 1452 -158T1313 -365T1088 -487T786 -528Q621 -528 478 -493T216 -398L326 -148ZM1128 1402Q1079 1402 1040 1417T974 1457T932 1516T917 1585Q917 1621 931 1653T973 1710T1040 1749T1128
1763Q1177 1763 1216 1749T1283 1711T1325 1654T1340 1585Q1340 1549 1326 1516T1284 1458T1217 1417T1128 1402ZM529 1402Q480 1402 441 1417T375 1457T333 1516T318 1585Q318 1621 332 1653T374 1710T441 1749T529 1763Q578 1763 617 1749T684 1711T726 1654T741
1585Q741 1549 727 1516T685 1458T618 1417T529 1402Z" />
<glyph unicode="&#x2013;" glyph-name="endash" horiz-adv-x="1364" d="M152 886H1212V664H152V886Z" />
<glyph unicode="&#x2014;" glyph-name="emdash" horiz-adv-x="2737" d="M152 886H2585V664H152V886Z" />
<glyph unicode="&#x2018;" glyph-name="quoteleft" horiz-adv-x="858" d="M433 947Q380 947 336 964T259 1013T209 1092T191 1196Q191 1327 280 1446T541 1659L651 1502Q606 1478 572 1455T512 1408T468 1359T434 1304Q483 1304 522 1290T590 1252T634 1195T650
1125Q650 1088 635 1056T591 999T522 961T433 947Z" />
<glyph unicode="&#x2019;" glyph-name="quoteright" horiz-adv-x="858" d="M425 1659Q478 1659 522 1642T599 1593T649 1514T667 1410Q667 1279 578 1160T317 947L207 1104Q252 1128 286 1151T346 1198T390 1247T424 1302Q375 1302 336 1316T268 1354T224 1411T208
1481Q208 1518 223 1550T267 1607T336 1645T425 1659Z" />
<glyph unicode="&#x201a;" glyph-name="quotesinglbase" horiz-adv-x="858" d="M417 332Q470 332 514 315T591 266T641 187T659 83Q659 -48 570 -167T309 -380L199 -223Q244 -199 278 -176T338 -129T382 -80T416 -25Q367 -25 328 -11T260 27T216 84T200 154Q200
191 215 223T259 280T328 318T417 332Z" />
<glyph unicode="&#x201c;" glyph-name="quotedblleft" horiz-adv-x="1529" d="M1087 947Q1034 947 990 964T913 1013T863 1092T845 1196Q845 1327 934 1446T1195 1659L1305 1502Q1260 1478 1226 1455T1166 1408T1122 1359T1088 1304Q1137 1304 1176 1290T1244
1252T1288 1195T1304 1125Q1304 1088 1289 1056T1245 999T1176 961T1087 947ZM465 947Q412 947 368 964T291 1013T241 1092T223 1196Q223 1327 312 1446T573 1659L683 1502Q638 1478 604 1455T544 1408T500 1359T466 1304Q515 1304 554 1290T622 1252T666 1195T682
1125Q682 1088 667 1056T623 999T554 961T465 947Z" />
<glyph unicode="&#x201d;" glyph-name="quotedblright" horiz-adv-x="1529" d="M1063 1659Q1116 1659 1160 1642T1237 1593T1287 1514T1305 1410Q1305 1279 1216 1160T955 947L845 1104Q890 1128 924 1151T984 1198T1028 1247T1062 1302Q1013 1302 974 1316T906
1354T862 1411T846 1481Q846 1518 861 1550T905 1607T974 1645T1063 1659ZM441 1659Q494 1659 538 1642T615 1593T665 1514T683 1410Q683 1279 594 1160T333 947L223 1104Q268 1128 302 1151T362 1198T406 1247T440 1302Q391 1302 352 1316T284 1354T240 1411T224
1481Q224 1518 239 1550T283 1607T352 1645T441 1659Z" />
<glyph unicode="&#x201e;" glyph-name="quotedblbase" horiz-adv-x="1529" d="M462 332Q515 332 559 315T636 266T686 187T704 83Q704 -48 615 -167T354 -380L244 -223Q289 -199 323 -176T383 -129T427 -80T461 -25Q412 -25 373 -11T305 27T261 84T245 154Q245
191 260 223T304 280T373 318T462 332ZM1042 332Q1095 332 1139 315T1216 266T1266 187T1284 83Q1284 -48 1195 -167T934 -380L824 -223Q869 -199 903 -176T963 -129T1007 -80T1041 -25Q992 -25 953 -11T885 27T841 84T825 154Q825 191 840 223T884 280T953 318T1042
332Z" />
<glyph unicode="&#x2022;" glyph-name="bullet" horiz-adv-x="1196" d="M599 682Q525 682 466 702T366 758T303 840T280 941Q280 995 302 1042T366 1125T466 1181T599 1201Q673 1201 731 1181T831 1126T894 1043T916 941Q916 887 894 840T831 758T732 703T599 682Z" />
<glyph unicode="&#x2039;" glyph-name="guilsinglleft" horiz-adv-x="1195" d="M240 394L649 708L240 1022L380 1205L1025 708L380 211L240 394Z" />
<glyph unicode="&#x203a;" glyph-name="guilsinglright" horiz-adv-x="1195" d="M955 394L546 708L955 1022L815 1205L170 708L815 211L955 394Z" />
</font>
</defs>
</svg>
