<?xml version="1.0" standalone="no"?>
<!DOCTYPE svg PUBLIC "-//W3C//DTD SVG 1.1//EN" "http://www.w3.org/Graphics/SVG/1.1/DTD/svg11.dtd">
<svg xmlns="http://www.w3.org/2000/svg">
<defs >
<font id="Athiti" horiz-adv-x="519" ><font-face
    font-family="Athiti Medium"
    units-per-em="1000"
    panose-1="0 0 6 0 0 0 0 0 0 0"
    ascent="1150"
    descent="-450"
    alphabetic="0" />
<glyph unicode=" " glyph-name="space" horiz-adv-x="300" />
<glyph unicode="!" glyph-name="exclam" horiz-adv-x="242" d="M76 426V616H166V426L158 167H84L76 426ZM76 93H166V0H76V93Z" />
<glyph unicode="&quot;" glyph-name="quotedbl" horiz-adv-x="317" d="M61 544Q59 585 64 616H128Q133 585 131 544L123 423H69L61 544ZM186 544Q184 585 189 616H253Q258 585 256 544L248 423H194L186 544Z" />
<glyph unicode="#" glyph-name="numbersign" horiz-adv-x="684" d="M144 0L168 174H60V248H178L196 378H84V452H206L230 626L308 623L285 452H427L451 626L529 623L506 452H614V378H496L479 248H591V174H469L445 -4L365 0L389 174H248L224 -4L144 0ZM399 248L417
378H275L258 248H399Z" />
<glyph unicode="$" glyph-name="dollar" horiz-adv-x="516" d="M222 -7Q128 -1 50 41L79 115Q160 73 261 73Q322 73 369 84Q381 116 381 159Q381 204 354 227T257 268Q164 290 114 328T63 444Q63 512 100 561T222 623V716H299V625Q347 623 380 613T445 584V558Q445
515 428 468H367L354 543Q305 550 265 550Q201 550 175 527T148 451Q148 422 159 404T199 373T279 348Q377 326 421 288T466 177Q466 105 427 55T299 -5V-110H222V-7Z" />
<glyph unicode="%" glyph-name="percent" horiz-adv-x="754" d="M167 13L533 612L592 591L222 -13L167 13ZM70 308T70 451Q70 606 198 606Q318 606 318 463Q318 308 190 308Q70 308 70 451ZM228 363T247 371Q255 406 255 454Q255 494 251 514T233 542T191 551Q160
551 141 543Q133 508 133 460Q133 420 137 400T155 372T197 363Q228 363 247 371ZM436 -8T436 135Q436 290 564 290Q684 290 684 147Q684 -8 556 -8Q436 -8 436 135ZM594 47T613 55Q621 90 621 138Q621 178 617 198T599 226T557 235Q526 235 507 227Q499 192 499
144Q499 104 503 84T521 56T563 47Q594 47 613 55Z" />
<glyph unicode="&amp;" glyph-name="ampersand" horiz-adv-x="673" d="M188 -16T128 29T68 158Q68 228 101 269T200 336V344Q173 371 160 397T147 456Q147 526 193 566T324 606Q387 606 427 587T489 538V501Q489 467 476 434H415L406 520Q374 534 324 534Q274
534 253 516T231 457Q231 422 241 403T277 357L442 201Q454 240 466 317L542 300Q531 244 524 213T506 151L623 33L562 -9L492 69H484Q473 34 459 12Q400 -16 288 -16Q188 -16 128 29ZM359 58T400 71Q413 91 418 124L249 285Q199 270 176 242T152 158Q152 58 290
58Q359 58 400 71Z" />
<glyph unicode="&apos;" glyph-name="quotesingle" horiz-adv-x="232" d="M81 544Q79 585 84 616H148Q153 585 151 544L143 423H89L81 544Z" />
<glyph unicode="(" glyph-name="parenleft" horiz-adv-x="309" d="M130 -88T104 -60T75 -4V620Q78 648 104 676T163 713Q207 713 237 707V635H159V-19H237V-91Q207 -97 163 -97Q130 -88 104 -60Z" />
<glyph unicode=")" glyph-name="parenright" horiz-adv-x="309" d="M102 -97T72 -91V-19H150V635H72V707Q102 713 146 713Q179 704 205 676T234 620V-4Q231 -32 205 -60T146 -97Q102 -97 72 -91Z" />
<glyph unicode="*" glyph-name="asterisk" horiz-adv-x="454" d="M96 352L180 458L178 464L60 494L82 561L195 512L200 516L193 645H261L254 516L259 512L372 561L394 494L276 464L274 458L358 352L301 311L231 424H223L153 311L96 352Z" />
<glyph unicode="+" glyph-name="plus" horiz-adv-x="540" d="M234 272H50V338H234V512H306V338H490V272H306V82H234V272Z" />
<glyph unicode="," glyph-name="comma" horiz-adv-x="238" d="M81 -88Q115 -25 115 29H62V85Q86 94 112 94Q146 94 162 76T178 22Q178 -8 165 -40T130 -99L81 -88Z" />
<glyph unicode="-" glyph-name="hyphen" horiz-adv-x="430" d="M75 314H355V244H75V314Z" />
<glyph unicode="." glyph-name="period" horiz-adv-x="246" d="M75 100H171V0H75V100Z" />
<glyph unicode="/" glyph-name="slash" horiz-adv-x="447" d="M58 -77L319 663L389 646L128 -95L58 -77Z" />
<glyph unicode="0" glyph-name="zero" horiz-adv-x="609" d="M174 -9T115 63T55 286Q55 395 79 464T159 570T312 606Q440 606 497 535T554 311Q554 200 530 131T450 26T297 -9Q174 -9 115 63ZM346 69T380 74T433 87Q468 180 468 292Q468 380 453 430T402 504T298
528Q263 528 229 523T175 510Q141 423 141 305Q141 217 156 167T208 93T311 69Q346 69 380 74Z" />
<glyph unicode="1" glyph-name="one" horiz-adv-x="363" d="M189 508L180 514L63 472L40 530L192 606Q214 606 244 588T275 555V0H189V508Z" />
<glyph unicode="2" glyph-name="two" horiz-adv-x="549" d="M53 101L72 114Q179 187 240 234T341 331T381 433Q381 488 355 509T270 530Q210 530 158 513V419H90Q73 465 73 510V562Q166 606 275 606Q376 606 421 565T467 438Q467 367 426 308T325 202T157 84V75H405V139H475Q491
99 491 54V0H53V101Z" />
<glyph unicode="3" glyph-name="three" horiz-adv-x="513" d="M135 -10T46 15L60 90Q136 66 234 66Q296 66 346 76Q367 109 367 158Q367 211 338 235T234 259H140V333H234Q296 333 328 358T360 430Q360 531 245 531Q190 531 133 519V435H65Q48 482 48 526V567Q147
606 251 606Q348 606 395 563T442 440Q442 386 420 354T350 301V295Q405 275 427 244T449 158Q449 76 399 33T233 -10Q135 -10 46 15Z" />
<glyph unicode="4" glyph-name="four" horiz-adv-x="557" d="M348 110H58L36 187L319 606H429V185H515V110H429V0H348V110ZM348 185V376L355 518H347L129 193L131 185H348Z" />
<glyph unicode="5" glyph-name="five" horiz-adv-x="515" d="M191 -10T147 -4T54 17L65 94Q161 67 246 67Q312 67 362 81Q372 106 376 129T381 185Q381 247 354 272T266 297Q228 297 201 291T134 270L69 321L90 606H425V530H169L156 354Q220 374 273 374Q368 374
417 331T467 192Q467 92 413 41T240 -10Q191 -10 147 -4Z" />
<glyph unicode="6" glyph-name="six" horiz-adv-x="510" d="M161 0T108 61T54 232Q54 351 109 440T280 606L354 567Q261 508 212 451T147 324Q217 367 294 367Q386 367 431 321T476 185Q476 106 426 53T271 0Q161 0 108 61ZM330 76T372 88Q391 132 391 185Q391
225 383 247T350 281T281 292Q208 292 138 255V232Q138 149 170 113T276 76Q330 76 372 88Z" />
<glyph unicode="7" glyph-name="seven" horiz-adv-x="529" d="M171 10Q205 166 260 288T394 523V530H133V447H65Q48 490 48 538V606H484V517Q397 381 343 260T260 0L171 10Z" />
<glyph unicode="8" glyph-name="eight" horiz-adv-x="555" d="M170 -9T115 37T60 166Q60 206 70 231T95 271T139 309V317Q106 341 91 366T75 432Q75 512 131 559T294 606Q390 606 437 561T484 432Q484 386 467 356T415 304V296Q459 269 477 240T495 161Q495 -9
272 -9Q170 -9 115 37ZM357 337T390 348Q402 381 402 419Q402 468 392 491T354 523T272 532Q210 532 171 518Q163 496 160 479T157 438Q157 378 188 358T294 337Q357 337 390 348ZM361 65T401 82Q412 112 412 146Q412 198 400 224T359 260T272 271Q201 271 159
258Q150 234 147 215T143 168Q143 125 158 103T206 73T295 65Q361 65 401 82Z" />
<glyph unicode="9" glyph-name="nine" horiz-adv-x="514" d="M160 39Q243 93 290 141T357 244Q291 204 222 204Q136 204 85 254T34 392Q34 450 57 498T128 576T249 606Q355 606 407 540T460 359Q460 275 437 213T365 101T234 0L160 39ZM316 279T374 315Q376 343
376 359Q376 530 238 530Q178 530 141 518Q130 484 125 455T119 392Q119 335 146 307T235 279Q316 279 374 315Z" />
<glyph unicode=":" glyph-name="colon" horiz-adv-x="246" d="M75 435H171V335H75V435ZM75 100H171V0H75V100Z" />
<glyph unicode=";" glyph-name="semicolon" horiz-adv-x="266" d="M78 435H174V335H78V435ZM94 -39Q128 24 128 78H75V134Q99 143 125 143Q159 143 175 125T191 71Q191 41 178 9T143 -50L94 -39Z" />
<glyph unicode="&lt;" glyph-name="less" horiz-adv-x="560" d="M55 210V288L464 471L485 400L132 252V246L485 98L464 27L55 210Z" />
<glyph unicode="=" glyph-name="equal" horiz-adv-x="560" d="M70 380H490V310H70V380ZM70 181H490V110H70V181Z" />
<glyph unicode="&gt;" glyph-name="greater" horiz-adv-x="560" d="M75 98L428 246V252L75 400L96 471L505 288V210L96 27L75 98Z" />
<glyph unicode="?" glyph-name="question" horiz-adv-x="523" d="M190 220Q190 242 195 255T213 279L375 401V466Q375 512 347 531T259 551Q185 551 140 537V462H74Q60 502 60 543V580Q86 598 144 612T261 627Q459 627 459 463Q459 415 446 384T397 327L289 249Q280
242 277 234T274 208V154H190V220ZM189 90H275V0H189V90Z" />
<glyph unicode="@" glyph-name="at" horiz-adv-x="780" d="M241 -59T153 27T65 271Q65 362 103 438T217 561T404 607Q502 607 573 570T681 467T718 321Q718 233 679 172T557 110Q525 110 502 121T459 158H453Q432 135 408 124T352 112Q300 112 271 146T241 237Q241
284 256 328T304 402T385 431Q414 431 432 421T465 391H469L483 419L544 410L502 186Q528 170 569 170Q605 170 624 175Q649 230 649 318Q649 422 587 484T404 546Q317 546 256 510T165 411T134 271Q134 2 416 2Q485 2 534 16T630 56L655 3Q616 -25 549 -42T413
-59Q241 -59 153 27ZM388 172T402 176T428 192L453 340Q442 356 430 363T402 371Q363 371 340 333T317 239Q317 206 329 189T368 172Q388 172 402 176Z" />
<glyph unicode="A" glyph-name="A" horiz-adv-x="607" d="M35 7Q76 161 128 325T230 616H377Q426 489 478 325T572 7L481 0Q453 111 428 200H178Q148 96 126 0L35 7ZM406 275Q354 451 324 535H283Q247 433 200 275H406Z" />
<glyph unicode="B" glyph-name="B" horiz-adv-x="545" d="M75 602Q158 626 241 626Q357 626 413 584T470 451Q470 406 451 373T390 317V311Q500 277 500 174Q500 115 477 77T398 20T245 0H75V602ZM340 345Q386 386 386 450Q386 506 352 528T240 550Q199 550 159
542V345H340ZM233 76Q305 76 344 85T399 114T416 171Q416 270 293 270H159V76H233Z" />
<glyph unicode="C" glyph-name="C" horiz-adv-x="567" d="M184 -8T119 67T54 289Q54 443 119 534T312 626Q366 626 422 614T503 585V529Q503 491 490 460H431L421 539Q376 548 311 548Q253 548 192 535Q167 489 153 426T139 295Q139 175 181 123T322 70Q369 70
414 81T486 113L525 49Q493 22 439 7T320 -8Q184 -8 119 67Z" />
<glyph unicode="D" glyph-name="D" horiz-adv-x="585" d="M75 606Q157 626 252 626Q407 626 473 546T539 315Q539 208 514 141T418 37T218 0H75V606ZM219 78Q342 78 419 100Q435 135 444 190T454 306Q454 391 436 443T374 522T248 549Q206 549 160 543V78H219Z" />
<glyph unicode="E" glyph-name="E" horiz-adv-x="539" d="M187 -8T131 14T75 93V616H468V539H159V345H439V270H159V79Q219 69 290 69Q385 69 460 87L479 13Q408 -8 287 -8Q187 -8 131 14Z" />
<glyph unicode="F" glyph-name="F" horiz-adv-x="516" d="M75 616H476V539H160V345H425V270H160V0H75V616Z" />
<glyph unicode="G" glyph-name="G" horiz-adv-x="598" d="M194 -8T124 68T54 289Q54 449 123 537T331 626Q392 626 447 614T529 585V529Q529 491 516 460H457L447 539Q430 543 397 545T330 548Q255 548 199 536Q172 488 156 424T139 295Q139 178 187 124T337 70Q408
70 456 82V257H312V332H499L540 298V134Q540 93 512 61T435 10T324 -8Q194 -8 124 68Z" />
<glyph unicode="H" glyph-name="H" horiz-adv-x="600" d="M75 616H160V338H440V616H525V0H440V260H160V0H75V616Z" />
<glyph unicode="I" glyph-name="I" horiz-adv-x="241" d="M78 616H163V0H78V616Z" />
<glyph unicode="J" glyph-name="J" horiz-adv-x="423" d="M134 -8T96 -1T30 18L49 91Q110 68 172 68Q227 68 259 86Q266 107 266 141V616H350V137Q350 68 301 30T171 -8Q134 -8 96 -1Z" />
<glyph unicode="K" glyph-name="K" horiz-adv-x="600" d="M474 -8T457 2T430 35L356 204Q338 245 314 263T240 282H160V0H75V616H160V359H235Q284 359 310 377T350 428L433 622L515 590L432 405Q418 373 400 354T347 323V317Q382 307 400 290T433 239L517 58L567
49V1Q539 -8 501 -8Q474 -8 457 2Z" />
<glyph unicode="L" glyph-name="L" horiz-adv-x="457" d="M75 616H160V78H433V0H75V616Z" />
<glyph unicode="M" glyph-name="M" horiz-adv-x="694" d="M92 616H187L343 268H351L507 616H602L626 0H540L528 318V467L520 469L381 181H313L174 469L166 467V318L154 0H68L92 616Z" />
<glyph unicode="N" glyph-name="N" horiz-adv-x="625" d="M75 616H171L466 129L474 131L464 288V616H550V0H454L159 487L151 485L161 328V0H75V616Z" />
<glyph unicode="O" glyph-name="O" horiz-adv-x="621" d="M180 -8T116 69T52 296Q52 465 113 545T318 626Q446 626 507 550T569 321Q569 152 508 72T303 -8Q180 -8 116 69ZM351 70T384 75T436 88Q484 194 484 302Q484 432 444 490T304 548Q269 548 234 543T180
530Q137 437 137 315Q137 186 178 128T317 70Q351 70 384 75Z" />
<glyph unicode="P" glyph-name="P" horiz-adv-x="527" d="M75 600Q165 626 248 626Q367 626 431 574T495 418Q495 305 432 251T232 197H160V0H75V600ZM222 273Q327 273 376 286Q409 331 409 415Q409 487 367 518T247 549Q192 549 160 541V273H222Z" />
<glyph unicode="Q" glyph-name="Q" horiz-adv-x="623" d="M341 -137T291 -130T221 -113V-62L241 6Q148 23 100 97T52 301Q52 470 113 548T318 626Q446 626 507 552T569 326Q569 160 510 82T313 1H304V-65Q333 -71 380 -71Q467 -71 525 -58L540 -121Q485 -137 381
-137Q341 -137 291 -130ZM351 79T384 84T436 97Q484 203 484 307Q484 393 467 445T410 523T304 548Q269 548 234 543T180 530Q160 487 149 433T137 320Q137 234 154 182T211 104T317 79Q351 79 384 84Z" />
<glyph unicode="R" glyph-name="R" horiz-adv-x="586" d="M464 -8T447 2T420 35L362 170Q349 200 339 215T309 238T256 247H160V0H75V600Q165 626 248 626Q364 626 421 582T479 443Q479 325 380 277V268Q401 258 414 243T439 205L507 58L557 49V1Q529 -8 491 -8Q464
-8 447 2ZM329 323Q362 342 377 368T393 440Q393 501 359 525T247 549Q192 549 160 541V323H329Z" />
<glyph unicode="S" glyph-name="S" horiz-adv-x="518" d="M141 -8T50 41L79 115Q160 73 261 73Q322 73 369 84Q381 116 381 159Q381 204 354 227T257 268Q164 290 114 328T63 444Q63 522 111 574T270 626Q331 626 370 616T445 584V548Q445 505 428 458H367L354
543Q305 550 265 550Q201 550 175 527T148 451Q148 422 159 404T199 373T279 348Q377 326 421 288T466 177Q466 96 417 44T253 -8Q141 -8 50 41Z" />
<glyph unicode="T" glyph-name="T" horiz-adv-x="553" d="M234 538H36V616H517V538H319V0H234V538Z" />
<glyph unicode="U" glyph-name="U" horiz-adv-x="609" d="M186 -8T130 37T73 174V616H158V189Q158 121 191 96T302 70Q350 70 389 76T451 92V616H536V128Q536 54 472 23T295 -8Q186 -8 130 37Z" />
<glyph unicode="V" glyph-name="V" horiz-adv-x="591" d="M182 123T128 291T34 617L125 624Q158 482 205 327T290 81H301Q339 171 386 326T466 624L557 617Q518 459 464 291T354 0H237Q182 123 128 291Z" />
<glyph unicode="W" glyph-name="W" horiz-adv-x="833" d="M95 340T36 609L128 618Q153 476 179 360T240 106H248L316 310L381 508Q370 552 360 602L445 611Q470 494 496 401T560 180L582 106H593Q627 243 653 359T705 618L797 609Q763 456 726 313T639 0H535Q535
0 515 60Q455 239 421 358H407Q397 328 389 303T374 257Q311 68 286 0H193Q95 340 36 609Z" />
<glyph unicode="X" glyph-name="X" horiz-adv-x="618" d="M42 12Q108 132 230 303Q115 474 46 603L139 621Q201 499 299 345H316Q372 424 412 486T490 621L576 604Q516 492 386 312Q502 135 564 12L474 -8Q441 60 405 122T316 270H299L284 248Q229 166 195 111T128
-8L42 12Z" />
<glyph unicode="Y" glyph-name="Y" horiz-adv-x="615" d="M265 211H244Q175 304 127 393T28 600L113 621Q152 524 199 435T292 278H323Q369 345 416 434T502 621L587 600Q537 482 489 393T371 211H350V0H265V211Z" />
<glyph unicode="Z" glyph-name="Z" horiz-adv-x="563" d="M50 82L396 527V540H151V476H77Q60 523 60 567V616H501V534L154 91V75H424V140H498Q515 93 515 49V0H50V82Z" />
<glyph unicode="[" glyph-name="bracketleft" horiz-adv-x="291" d="M75 707H219V635H157V-13H219V-85H75V707Z" />
<glyph unicode="\" glyph-name="backslash" horiz-adv-x="429" d="M58 619L128 636L371 -2L301 -20L58 619Z" />
<glyph unicode="]" glyph-name="bracketright" horiz-adv-x="291" d="M72 -13H134V635H72V707H216V-85H72V-13Z" />
<glyph unicode="^" glyph-name="asciicircum" horiz-adv-x="575" d="M68 299L251 616H325L507 299L441 270L291 539H285L135 270L68 299Z" />
<glyph unicode="_" glyph-name="underscore" horiz-adv-x="570" d="M60 0H510V-55H60V0Z" />
<glyph unicode="`" glyph-name="grave" horiz-adv-x="323" d="M25 892L131 903L214 758L150 748L25 892Z" />
<glyph unicode="a" glyph-name="a" horiz-adv-x="474" d="M111 -8T76 24T40 113Q40 189 98 226T258 263Q291 263 324 260V322Q324 376 302 395T224 415Q190 415 158 411L148 336H87Q74 371 74 403V428Q104 447 155 462T250 478Q325 478 365 440T406 331V0H333L329
66H321Q296 31 259 12T179 -8Q111 -8 76 24ZM231 56T267 75T326 129V203Q291 211 234 211Q171 211 142 203Q133 181 130 164T126 122Q126 86 142 71T190 56Q231 56 267 75Z" />
<glyph unicode="b" glyph-name="b" horiz-adv-x="530" d="M164 -8T74 18V671H156V468L153 403H159Q190 435 228 456T307 478Q399 478 439 414T480 247Q480 123 420 58T244 -8Q164 -8 74 18ZM299 62T331 79T378 135T394 244Q394 330 369 369T282 408Q247 408 214
391T156 340V72Q172 68 198 65T246 62Q299 62 331 79Z" />
<glyph unicode="c" glyph-name="c" horiz-adv-x="451" d="M143 -8T95 52T47 222Q47 341 99 409T253 478Q296 478 335 467T400 437V401Q400 357 387 322H328L320 396Q288 405 248 405Q221 405 194 402T151 392Q141 366 134 317T127 222Q127 142 157 104T264 65Q338
65 388 108L425 51Q391 22 353 7T262 -8Q143 -8 95 52Z" />
<glyph unicode="d" glyph-name="d" horiz-adv-x="530" d="M134 -8T92 54T50 235Q50 339 91 408T223 478Q265 478 304 461T371 414H377L374 479V671H456V0H383L379 64H371Q345 31 312 12T230 -8Q134 -8 92 54ZM297 62T327 84T374 139V351Q323 408 248 408Q188 408
162 364T136 232Q136 170 146 134T181 80T254 62Q297 62 327 84Z" />
<glyph unicode="e" glyph-name="e" horiz-adv-x="488" d="M50 -8T50 231Q50 347 105 412T264 478Q352 478 395 428T439 289Q439 269 438 259L378 200L129 204Q131 134 165 98T265 61Q310 61 342 72T409 107L435 44Q395 19 356 6T260 -8Q50 -8 50 231ZM358 266Q364
293 364 315Q364 359 338 384T259 409Q187 409 159 375T128 262L358 266Z" />
<glyph unicode="f" glyph-name="f" horiz-adv-x="343" d="M94 404H30L40 470H94V552Q94 588 120 619T177 667Q208 674 243 674Q294 674 340 650L318 582Q295 592 278 596T240 601Q205 601 181 592Q174 572 174 537V470H290L280 404H174V0H94V404Z" />
<glyph unicode="g" glyph-name="g" horiz-adv-x="514" d="M201 -197T155 -186T80 -156L103 -93Q132 -108 169 -117T242 -126Q282 -126 310 -121T365 -103V12L368 78H360Q331 45 295 25T217 4Q127 4 89 66T50 222Q50 345 89 411T229 478Q321 478 361 397H368L374
470H444V-48Q444 -121 392 -159T250 -197Q201 -197 155 -186ZM273 73T305 90T362 141V342Q310 410 239 410Q177 410 156 367T134 232Q134 149 159 111T238 73Q273 73 305 90Z" />
<glyph unicode="h" glyph-name="h" horiz-adv-x="526" d="M74 671H156V468L153 398H159Q191 436 230 457T321 478Q391 478 423 448T456 344V0H374V397Q343 406 307 406Q255 406 219 390T156 342V0H74V671Z" />
<glyph unicode="i" glyph-name="i" horiz-adv-x="232" d="M73 654H159V554H73V654ZM76 470H156V0H76V470Z" />
<glyph unicode="j" glyph-name="j" horiz-adv-x="274" d="M118 654H204V554H118V654ZM11 -198T-34 -182L-15 -112Q9 -120 26 -122T65 -125Q92 -125 114 -118Q121 -98 121 -61V470H201V-65Q201 -128 164 -163T64 -198Q11 -198 -34 -182Z" />
<glyph unicode="k" glyph-name="k" horiz-adv-x="507" d="M393 -8T379 0T355 29L312 129Q293 172 269 193T196 214H150V0H70V671H150V277H191Q238 277 262 297T302 353L355 478L434 449L383 330Q370 299 351 279T296 248V242Q331 232 349 215T383 164L433 50L472
41V0Q443 -8 417 -8Q393 -8 379 0Z" />
<glyph unicode="l" glyph-name="l" horiz-adv-x="283" d="M152 -4T130 12T92 49T76 85V671H156V95Q156 71 160 61H173L230 90L265 45Q250 24 223 9T166 -8Q152 -4 130 12Z" />
<glyph unicode="m" glyph-name="m" horiz-adv-x="812" d="M74 470H143L151 402H159Q190 437 229 457T313 478Q369 478 400 462T442 402H450Q480 437 521 457T606 478Q653 478 682 468T726 428T742 344V0H660V397Q629 406 592 406Q502 406 449 348V0H367V397Q336
406 299 406Q210 406 156 346V0H74V470Z" />
<glyph unicode="n" glyph-name="n" horiz-adv-x="526" d="M74 470H145L151 398H159Q191 436 230 457T321 478Q391 478 423 448T456 344V0H374V397Q343 406 307 406Q255 406 219 390T156 342V0H74V470Z" />
<glyph unicode="o" glyph-name="o" horiz-adv-x="517" d="M141 -8T96 54T50 231Q50 480 270 480Q467 480 467 231Q467 112 415 52T247 -8Q141 -8 96 54ZM325 62T364 79Q386 125 386 215Q386 286 376 326T336 387T247 407Q190 407 153 391Q131 344 131 245Q131
175 141 137T181 81T270 62Q325 62 364 79Z" />
<glyph unicode="p" glyph-name="p" horiz-adv-x="530" d="M74 470H147L151 406H159Q221 478 305 478Q398 478 439 416T480 235Q480 131 439 62T307 -8Q265 -8 226 9T159 56H153L156 -9V-187H74V470ZM342 62T368 106T394 238Q394 300 384 336T349 390T276 408Q233
408 203 386T156 331V119Q207 62 282 62Q342 62 368 106Z" />
<glyph unicode="q" glyph-name="q" horiz-adv-x="530" d="M369 3L372 64H366Q335 29 302 11T223 -8Q131 -8 91 57T50 224Q50 348 110 413T286 479Q361 479 451 453V-187H369V3ZM316 62T369 131V399Q329 409 284 409Q231 409 199 392T152 336T136 227Q136 141 162
102T248 62Q316 62 369 131Z" />
<glyph unicode="r" glyph-name="r" horiz-adv-x="374" d="M74 468H143L149 376H159Q180 421 223 447T308 474Q316 474 328 466T344 450L335 383H289Q239 383 203 361T156 295V0H74V468Z" />
<glyph unicode="s" glyph-name="s" horiz-adv-x="430" d="M112 -8T44 31L68 96Q133 59 214 59Q260 59 297 67Q306 91 306 120Q306 146 300 159T274 181T211 200Q129 217 88 247T46 338Q46 375 65 407T123 458T221 478Q306 478 363 446V415Q363 379 350 346H291L283
411Q251 415 217 415Q166 415 145 401T124 351Q124 319 145 301T228 269Q285 257 317 243T367 203T384 134Q384 74 341 33T208 -8Q112 -8 44 31Z" />
<glyph unicode="t" glyph-name="t" horiz-adv-x="381" d="M216 -8T183 1Q150 18 127 43T104 101V404H20L30 470H104V596H182V470H340L330 404H182V116Q182 95 191 74Q215 65 240 65Q256 65 281 71T329 86L351 19Q331 9 303 1T253 -8Q216 -8 183 1Z" />
<glyph unicode="u" glyph-name="u" horiz-adv-x="520" d="M132 -8T100 22T68 126V470H150V73Q181 64 216 64Q309 64 364 128V470H446V0H375L369 72H361Q327 34 289 13T202 -8Q132 -8 100 22Z" />
<glyph unicode="v" glyph-name="v" horiz-adv-x="468" d="M136 112T99 224T26 467L107 474Q173 221 231 77H238Q299 234 364 474L442 467Q374 226 278 0H186Q136 112 99 224Z" />
<glyph unicode="w" glyph-name="w" horiz-adv-x="713" d="M93 222T37 467L117 474Q152 322 173 237T218 81H224Q289 242 326 374Q319 403 307 461L381 468Q430 235 488 75H494Q544 210 612 476L689 467Q649 322 615 213T540 0H444Q399 111 358 257H354Q335 200
310 132T276 39L261 0H174Q93 222 37 467Z" />
<glyph unicode="x" glyph-name="x" horiz-adv-x="486" d="M28 7Q76 96 172 231Q81 368 31 461L116 475Q167 374 235 268H249Q292 329 321 375T378 475L458 462Q410 374 312 238Q404 95 449 7L366 -8Q341 43 315 89T248 201H235Q189 133 162 89T108 -8L28 7Z" />
<glyph unicode="y" glyph-name="y" horiz-adv-x="496" d="M91 -197T53 -178V-147Q53 -115 63 -84H122V-128Q136 -131 157 -131Q167 -131 193 -127Q218 -68 249 21H185Q130 153 94 255T30 468L111 475Q163 265 233 91H272Q327 261 377 475L460 468Q419 299 372
149T277 -112Q261 -150 221 -173T141 -197Q91 -197 53 -178Z" />
<glyph unicode="z" glyph-name="z" horiz-adv-x="449" d="M46 72L301 396V406H135L127 345H68Q55 380 55 414V470H393V398L137 76V64H325L333 125H392Q405 90 405 56V0H46V72Z" />
<glyph unicode="{" glyph-name="braceleft" horiz-adv-x="417" d="M263 -122T218 -81T173 58Q173 76 174 86L178 165Q184 285 60 285V347Q184 347 178 467L174 536Q173 546 173 564Q173 662 218 703T367 744V671Q288 671 259 659Q252 634 252 581Q252 551 253
534L257 454Q263 346 165 318V314Q263 286 257 178L253 88Q252 71 252 41Q252 -12 259 -37Q288 -49 367 -49V-122Q263 -122 218 -81Z" />
<glyph unicode="|" glyph-name="bar" horiz-adv-x="239" d="M82 626H157V-140H82V626Z" />
<glyph unicode="}" glyph-name="braceright" horiz-adv-x="417" d="M50 -49Q129 -49 158 -37Q165 -12 165 41Q165 71 164 88L160 178Q154 286 252 314V318Q154 346 160 454L164 534Q165 551 165 581Q165 634 158 659Q129 671 50 671V744Q154 744 199 703T244 564Q244
546 243 536L239 467Q233 347 357 347V285Q233 285 239 165L243 86Q244 76 244 58Q244 -40 199 -81T50 -122V-49Z" />
<glyph unicode="~" glyph-name="asciitilde" horiz-adv-x="452" d="M50 231Q58 346 152 346Q177 346 196 339T238 319Q257 309 268 305T292 300Q311 300 323 313T337 353L402 343Q394 228 300 228Q273 228 252 235T204 257Q192 264 181 269T160 274Q141 274 129
261T115 221L50 231Z" />
<glyph unicode="&#xa0;" glyph-name="uni00A0" horiz-adv-x="260" />
<glyph unicode="&#xa1;" glyph-name="exclamdown" horiz-adv-x="242" d="M76 616H166V523H76V616ZM76 190L84 449H158L166 190V0H76V190Z" />
<glyph unicode="&#xa2;" glyph-name="cent" horiz-adv-x="451" d="M220 -7Q126 4 88 63T50 222Q50 330 92 393T222 466V616H289V466Q357 457 400 427V396Q400 362 387 327H328L318 386Q286 395 248 395Q221 395 194 392T151 382Q141 357 136 313T130 222Q130 141
159 102T264 63Q338 63 388 106L425 49Q396 24 364 10T291 -8V-144H220V-7Z" />
<glyph unicode="&#xa3;" glyph-name="sterling" horiz-adv-x="553" d="M169 -7T50 4V58L115 71V248H51V309H115V432Q115 520 164 568T317 616Q369 616 404 610T479 590L460 521Q423 531 393 535T320 539Q285 539 261 538T208 530Q199 495 199 428V309H404V248H199V72Q262
67 313 67Q400 67 508 77V4Q398 -7 288 -7Q169 -7 50 4Z" />
<glyph unicode="&#xa4;" glyph-name="currency" horiz-adv-x="572" d="M64 116L128 181Q111 208 103 234T94 291Q94 321 102 347T128 400L63 467L112 514L177 451Q228 485 288 485Q348 485 399 451L464 514L513 467L448 400Q465 373 473 347T482 291Q482 261 474
235T448 181L512 116L464 69L399 132Q350 98 288 98Q226 98 177 132L112 69L64 116ZM343 167T377 200T412 291Q412 347 379 382T288 417Q231 417 198 382T164 291Q164 234 198 201T288 167Q343 167 377 200Z" />
<glyph unicode="&#xa5;" glyph-name="yen" horiz-adv-x="627" d="M271 83H157V142H271V200H157V259H224Q163 351 122 425T36 600L119 621Q189 463 298 284H329Q438 463 508 621L591 600Q546 501 506 428T403 259H470V200H356V142H470V83H356V0H271V83Z" />
<glyph unicode="&#xa6;" glyph-name="brokenbar" horiz-adv-x="239" d="M82 626H157V304H82V626ZM82 212H157V-110H82V212Z" />
<glyph unicode="&#xa7;" glyph-name="section" horiz-adv-x="555" d="M207 -127T174 -121T95 -99L119 -34Q155 -46 184 -50T254 -55Q303 -55 346 -45Q356 -11 356 12Q356 38 347 51T316 74T243 95Q152 116 107 148T62 246Q62 324 140 369V375Q117 395 106 418T94
471Q94 511 114 545T178 601T284 623Q337 623 373 614T439 588V561Q439 523 425 486H362L350 550Q314 554 281 554Q225 554 202 539T178 485Q178 457 190 441T228 414T305 392Q370 377 409 362T470 319T493 245Q493 159 409 118V112Q440 81 440 27Q440 -38 393
-82T249 -127Q207 -127 174 -121ZM389 168T398 187T408 230Q408 256 397 271T361 296T287 316Q222 329 185 340Q147 315 147 260Q147 225 170 206T261 171Q335 154 373 150Q389 168 398 187Z" />
<glyph unicode="&#xa8;" glyph-name="dieresis" horiz-adv-x="370" d="M85 469T73 480T60 512Q60 533 72 544T106 556Q128 556 140 545T152 512Q152 492 140 481T106 469Q85 469 73 480ZM242 469T230 480T217 512Q217 533 229 544T264 556Q286 556 298 545T310
512Q310 492 298 481T264 469Q242 469 230 480Z" />
<glyph unicode="&#xa9;" glyph-name="copyright" horiz-adv-x="736" d="M277 0T207 40T99 150T60 308Q60 396 98 466T207 576T368 616Q459 616 529 576T637 466T676 308Q676 220 638 150T529 40T368 0Q277 0 207 40ZM448 43T507 76T599 169T631 308Q631 387 599
447T508 540T368 573Q288 573 229 540T137 447T105 308Q105 229 137 169T228 76T368 43Q448 43 507 76ZM290 122T251 167T211 299Q211 386 252 437T366 489Q398 489 431 482T479 465V444Q479 432 477 416T471 392H428L422 427Q384 432 363 432Q329 432 301 427Q271
377 271 298Q271 233 292 206T369 179Q398 179 426 186T469 205L492 155Q472 139 439 131T369 122Q290 122 251 167Z" />
<glyph unicode="&#xaa;" glyph-name="ordfeminine" horiz-adv-x="357" d="M97 265T70 288T43 352Q43 408 86 436T203 464Q229 464 243 462V503Q243 534 230 546T185 559Q153 559 128 554L120 510H77Q67 538 67 560V584Q92 598 128 607T196 616Q251 616 281 588T312
510V270H251L248 314H242Q206 265 145 265Q97 265 70 288ZM184 323T205 333T246 364V405Q222 409 185 409Q148 409 121 403Q113 382 113 363Q113 323 157 323Q184 323 205 333Z" />
<glyph unicode="&#xab;" glyph-name="guillemotleft" horiz-adv-x="454" d="M48 251L178 429L239 400L131 254V248L239 102L178 73L48 251ZM208 251L338 429L399 400L291 254V248L399 102L338 73L208 251Z" />
<glyph unicode="&#xac;" glyph-name="logicalnot" horiz-adv-x="460" d="M335 277H50V348H410V143H335V277Z" />
<glyph unicode="&#xad;" glyph-name="uni00AD" horiz-adv-x="382" d="M75 297H307V223H75V297Z" />
<glyph unicode="&#xae;" glyph-name="registered" horiz-adv-x="736" d="M277 0T207 40T99 150T60 308Q60 396 98 466T207 576T368 616Q459 616 529 576T637 466T676 308Q676 220 638 150T529 40T368 0Q277 0 207 40ZM448 43T507 76T599 169T631 308Q631 387 599
447T508 540T368 573Q288 573 229 540T137 447T105 308Q105 229 137 169T228 76T368 43Q448 43 507 76ZM472 133T460 140T441 163L410 234Q399 258 386 268T344 278H302V136H248V486Q303 502 350 502Q485 502 485 394Q485 325 426 295V291Q447 281 462 253L500
172L521 167V138Q503 133 490 133Q472 133 460 140ZM332 330Q389 330 409 342T430 393Q430 425 412 438T349 451Q322 451 302 447V330H332Z" />
<glyph unicode="&#xaf;" glyph-name="overscore" horiz-adv-x="406" d="M50 586H356V516H50V586Z" />
<glyph unicode="&#xb0;" glyph-name="degree" horiz-adv-x="401" d="M45 281T45 446Q45 528 92 572T227 616Q384 616 384 451Q384 369 337 325T202 281Q45 281 45 446ZM261 348T298 358Q310 397 310 443Q310 488 300 511T270 541T212 549Q168 549 131 539Q119
500 119 454Q119 409 129 386T159 356T217 348Q261 348 298 358Z" />
<glyph unicode="&#xb1;" glyph-name="plusminus" horiz-adv-x="590" d="M257 306H75V372H257V547H333V372H515V306H333V117H257V306ZM85 61H515V0H85V61Z" />
<glyph unicode="&#xb2;" glyph-name="uni00B2" horiz-adv-x="327" d="M35 423Q103 465 137 488T191 536T212 587Q212 612 201 621T162 631Q137 631 113 625V587H57Q53 599 50 616T47 648V670Q104 696 168 696Q283 696 283 590Q283 551 259 519T200 461T105 398V393H225V425H284Q292
398 292 364V334H35V423Z" />
<glyph unicode="&#xb3;" glyph-name="uni00B3" horiz-adv-x="306" d="M77 330T26 345L34 405Q83 392 138 392Q169 392 194 396Q200 413 200 433Q200 458 183 468T131 479H82V539H131Q164 539 179 552T195 591Q195 614 183 624T144 635Q119 635 94 631V596H38Q28
621 28 651V674Q83 697 148 697Q206 697 236 671T266 598Q266 567 252 547T209 513V510Q242 497 256 478T271 427Q271 380 240 355T137 330Q77 330 26 345Z" />
<glyph unicode="&#xb4;" glyph-name="acute" horiz-adv-x="323" d="M55 758L138 903L244 892L119 748L55 758Z" />
<glyph unicode="&#xb5;" glyph-name="uni00B5" horiz-adv-x="522" d="M74 470H156V75Q189 64 229 64Q277 64 309 80T370 128V470H452V0H381L375 72H367Q342 43 325 27T283 2T226 -8Q188 -8 164 13H156V-213H74V470Z" />
<glyph unicode="&#xb6;" glyph-name="paragraph" horiz-adv-x="655" d="M276 247H262Q166 247 116 293T65 428Q65 520 116 568T262 616H499V-120H425V559H349V-120H276V247Z" />
<glyph unicode="&#xb7;" glyph-name="middot" horiz-adv-x="351" d="M151 211T134 227T117 269Q117 293 134 310T176 327Q200 327 217 310T235 269Q235 244 218 228T176 211Q151 211 134 227Z" />
<glyph unicode="&#xb8;" glyph-name="cedilla" horiz-adv-x="321" d="M121 -216T85 -199L102 -150Q115 -155 134 -158T167 -161Q194 -161 214 -157Q218 -145 218 -131Q218 -101 173 -101Q149 -101 133 -109L90 -66L154 11L210 0L168 -59Q183 -52 207 -52Q286 -52
286 -128Q286 -172 259 -194T174 -216Q121 -216 85 -199Z" />
<glyph unicode="&#xb9;" glyph-name="uni00B9" horiz-adv-x="228" d="M109 618L103 622L41 600L23 646L112 696Q131 695 155 684T180 661V332H109V618Z" />
<glyph unicode="&#xba;" glyph-name="ordmasculine" horiz-adv-x="375" d="M108 265T75 311T42 438Q42 524 79 567T199 611Q267 611 300 565T333 438Q333 352 296 309T176 265Q108 265 75 311ZM223 325T250 334Q263 366 263 428Q263 475 257 501T234 539T185 551Q152
551 125 542Q112 510 112 448Q112 401 118 375T141 337T190 325Q223 325 250 334Z" />
<glyph unicode="&#xbb;" glyph-name="guillemotright" horiz-adv-x="454" d="M55 102L163 248V254L55 400L116 429L246 251L116 73L55 102ZM215 102L323 248V254L215 400L276 429L406 251L276 73L215 102Z" />
<glyph unicode="&#xbc;" glyph-name="onequarter" horiz-adv-x="790" d="M155 13L536 623L600 606L219 -5L155 13ZM136 537L131 541L73 519L55 570L144 620Q163 619 187 608T212 585V256H136V537ZM614 60H467L443 118L610 357H686V119H733V60H686V0H614V60ZM616
119V154Q616 210 625 279H620L524 124L526 119H616Z" />
<glyph unicode="&#xbd;" glyph-name="onehalf" horiz-adv-x="790" d="M155 13L536 623L600 606L219 -5L155 13ZM136 537L131 541L73 519L55 570L144 620Q163 619 187 608T212 585V256H136V537ZM515 89Q583 131 617 154T671 202T692 253Q692 278 681 287T642 297Q617
297 593 291V253H537Q533 265 530 282T527 314V336Q584 362 648 362Q763 362 763 256Q763 217 739 185T680 127T585 64V59H705V91H764Q772 64 772 30V0H515V89Z" />
<glyph unicode="&#xbe;" glyph-name="threequarters" horiz-adv-x="815" d="M208 13L589 623L653 606L272 -5L208 13ZM109 249T58 264L66 324Q115 311 170 311Q201 311 226 315Q232 332 232 352Q232 377 215 387T163 398H114V458H163Q196 458 211 471T227 510Q227
533 215 543T176 554Q151 554 126 550V515H70Q60 540 60 570V593Q115 616 180 616Q238 616 268 590T298 517Q298 486 284 466T241 432V429Q274 416 288 397T303 346Q303 299 272 274T169 249Q109 249 58 264ZM639 60H492L468 118L635 357H711V119H758V60H711V0H639V60ZM641
119V154Q641 210 650 279H645L549 124L551 119H641Z" />
<glyph unicode="&#xbf;" glyph-name="questiondown" horiz-adv-x="523" d="M244 517H330V427H244V517ZM60 -110T60 54Q60 102 73 133T122 190L230 268Q239 275 242 283T245 309V363H329V297Q329 275 324 262T306 238L144 116V51Q144 5 172 -14T260 -34Q334 -34
379 -20V55H445Q456 19 459 -26V-63Q433 -81 375 -95T258 -110Q60 -110 60 54Z" />
<glyph unicode="&#xc0;" glyph-name="Agrave" horiz-adv-x="607" d="M153 829L259 840L342 695L278 685L153 829ZM35 7Q76 161 128 325T230 616H377Q426 489 478 325T572 7L481 0Q453 111 428 200H178Q148 96 126 0L35 7ZM406 275Q354 451 324 535H283Q247 433
200 275H406Z" />
<glyph unicode="&#xc1;" glyph-name="Aacute" horiz-adv-x="607" d="M269 696L352 841L458 830L333 686L269 696ZM35 7Q76 161 128 325T230 616H377Q426 489 478 325T572 7L481 0Q453 111 428 200H178Q148 96 126 0L35 7ZM406 275Q354 451 324 535H283Q247 433
200 275H406Z" />
<glyph unicode="&#xc2;" glyph-name="Acircumflex" horiz-adv-x="607" d="M166 696L266 829H341L440 696L387 685L306 760H301L217 685L166 696ZM35 7Q76 161 128 325T230 616H377Q426 489 478 325T572 7L481 0Q453 111 428 200H178Q148 96 126 0L35 7ZM406 275Q354
451 324 535H283Q247 433 200 275H406Z" />
<glyph unicode="&#xc3;" glyph-name="Atilde" horiz-adv-x="607" d="M152 705Q155 754 175 777T236 801Q251 801 266 795T300 778Q331 760 345 760Q380 760 385 805L440 787Q437 738 417 715T356 691Q339 691 325 697T293 714Q278 723 268 727T247 732Q212 732
207 687L152 705ZM35 7Q76 161 128 325T230 616H377Q426 489 478 325T572 7L481 0Q453 111 428 200H178Q148 96 126 0L35 7ZM406 275Q354 451 324 535H283Q247 433 200 275H406Z" />
<glyph unicode="&#xc4;" glyph-name="Adieresis" horiz-adv-x="607" d="M203 691T191 702T178 734Q178 755 190 766T224 778Q246 778 258 767T270 734Q270 714 258 703T224 691Q203 691 191 702ZM360 691T348 702T335 734Q335 755 347 766T382 778Q404 778 416
767T428 734Q428 714 416 703T382 691Q360 691 348 702ZM35 7Q76 161 128 325T230 616H377Q426 489 478 325T572 7L481 0Q453 111 428 200H178Q148 96 126 0L35 7ZM406 275Q354 451 324 535H283Q247 433 200 275H406Z" />
<glyph unicode="&#xc5;" glyph-name="Aring" horiz-adv-x="607" d="M246 689T217 713T188 781Q188 822 220 849T309 877Q359 877 388 851T418 780Q418 741 385 715T297 689Q246 689 217 713ZM340 738T356 743Q361 761 361 779Q361 799 347 813T308 828Q269 828
250 823Q245 806 245 782Q245 762 259 750T298 738Q340 738 356 743ZM35 7Q76 161 128 325T230 616H377Q426 489 478 325T572 7L481 0Q453 111 428 200H178Q148 96 126 0L35 7ZM406 275Q354 451 324 535H283Q247 433 200 275H406Z" />
<glyph unicode="&#xc6;" glyph-name="AE" horiz-adv-x="922" d="M570 -10T514 12T458 91V200H201Q157 116 100 0L20 26Q153 301 333 616H851V539H542V345H822V270H542V77Q602 67 673 67Q768 67 843 85L862 11Q791 -10 670 -10Q570 -10 514 12ZM458 275V535H382Q328
443 240 275H458Z" />
<glyph unicode="&#xc7;" glyph-name="Ccedilla" horiz-adv-x="567" d="M252 -216T216 -199L233 -150Q246 -155 265 -158T298 -161Q325 -161 345 -157Q349 -145 349 -131Q349 -101 304 -101Q280 -101 264 -109L221 -66L271 -5Q161 8 108 81T54 289Q54 443 119 534T312
626Q366 626 422 614T503 585V529Q503 491 490 460H431L421 539Q376 548 311 548Q253 548 192 535Q167 489 153 426T139 295Q139 175 181 123T322 70Q369 70 414 81T486 113L525 49Q498 27 457 13T365 -6Q345 -8 335 -8L299 -59Q314 -52 338 -52Q417 -52 417 -128Q417
-172 390 -194T305 -216Q252 -216 216 -199Z" />
<glyph unicode="&#xc8;" glyph-name="Egrave" horiz-adv-x="539" d="M152 830L258 841L341 696L277 686L152 830ZM187 -8T131 14T75 93V616H468V539H159V345H439V270H159V79Q219 69 290 69Q385 69 460 87L479 13Q408 -8 287 -8Q187 -8 131 14Z" />
<glyph unicode="&#xc9;" glyph-name="Eacute" horiz-adv-x="539" d="M224 695L307 840L413 829L288 685L224 695ZM187 -8T131 14T75 93V616H468V539H159V345H439V270H159V79Q219 69 290 69Q385 69 460 87L479 13Q408 -8 287 -8Q187 -8 131 14Z" />
<glyph unicode="&#xca;" glyph-name="Ecircumflex" horiz-adv-x="539" d="M137 695L237 828H312L411 695L358 684L277 759H272L188 684L137 695ZM187 -8T131 14T75 93V616H468V539H159V345H439V270H159V79Q219 69 290 69Q385 69 460 87L479 13Q408 -8 287 -8Q187
-8 131 14Z" />
<glyph unicode="&#xcb;" glyph-name="Edieresis" horiz-adv-x="539" d="M184 691T172 702T159 734Q159 755 171 766T205 778Q227 778 239 767T251 734Q251 714 239 703T205 691Q184 691 172 702ZM341 691T329 702T316 734Q316 755 328 766T363 778Q385 778 397
767T409 734Q409 714 397 703T363 691Q341 691 329 702ZM187 -8T131 14T75 93V616H468V539H159V345H439V270H159V79Q219 69 290 69Q385 69 460 87L479 13Q408 -8 287 -8Q187 -8 131 14Z" />
<glyph unicode="&#xcc;" glyph-name="Igrave" horiz-adv-x="242" d="M-25 830L81 841L164 696L100 686L-25 830ZM78 616H163V0H78V616Z" />
<glyph unicode="&#xcd;" glyph-name="Iacute" horiz-adv-x="242" d="M81 696L164 841L270 830L145 686L81 696ZM78 616H163V0H78V616Z" />
<glyph unicode="&#xce;" glyph-name="Icircumflex" horiz-adv-x="242" d="M-16 696L84 829H159L258 696L205 685L124 760H119L35 685L-16 696ZM78 616H163V0H78V616Z" />
<glyph unicode="&#xcf;" glyph-name="Idieresis" horiz-adv-x="242" d="M21 691T9 702T-4 734Q-4 755 8 766T42 778Q64 778 76 767T88 734Q88 714 76 703T42 691Q21 691 9 702ZM178 691T166 702T153 734Q153 755 165 766T200 778Q222 778 234 767T246 734Q246
714 234 703T200 691Q178 691 166 702ZM78 616H163V0H78V616Z" />
<glyph unicode="&#xd0;" glyph-name="Eth" horiz-adv-x="646" d="M136 290H45V354H136V606Q218 626 313 626Q468 626 534 546T600 315Q600 208 575 141T479 37T279 0H136V290ZM280 78Q403 78 480 100Q496 135 505 190T515 306Q515 391 497 443T435 522T309 549Q267
549 221 543V354H325V290H221V78H280Z" />
<glyph unicode="&#xd1;" glyph-name="Ntilde" horiz-adv-x="625" d="M168 696Q171 745 191 768T252 792Q267 792 282 786T316 769Q347 751 361 751Q396 751 401 796L456 778Q453 729 433 706T372 682Q355 682 341 688T309 705Q294 714 284 718T263 723Q228 723
223 678L168 696ZM75 616H171L466 129L474 131L464 288V616H550V0H454L159 487L151 485L161 328V0H75V616Z" />
<glyph unicode="&#xd2;" glyph-name="Ograve" horiz-adv-x="621" d="M178 830L284 841L367 696L303 686L178 830ZM180 -8T116 69T52 296Q52 465 113 545T318 626Q446 626 507 550T569 321Q569 152 508 72T303 -8Q180 -8 116 69ZM351 70T384 75T436 88Q484 194
484 302Q484 432 444 490T304 548Q269 548 234 543T180 530Q137 437 137 315Q137 186 178 128T317 70Q351 70 384 75Z" />
<glyph unicode="&#xd3;" glyph-name="Oacute" horiz-adv-x="621" d="M272 695L355 840L461 829L336 685L272 695ZM180 -8T116 69T52 296Q52 465 113 545T318 626Q446 626 507 550T569 321Q569 152 508 72T303 -8Q180 -8 116 69ZM351 70T384 75T436 88Q484 194
484 302Q484 432 444 490T304 548Q269 548 234 543T180 530Q137 437 137 315Q137 186 178 128T317 70Q351 70 384 75Z" />
<glyph unicode="&#xd4;" glyph-name="Ocircumflex" horiz-adv-x="621" d="M178 695L278 828H353L452 695L399 684L318 759H313L229 684L178 695ZM180 -8T116 69T52 296Q52 465 113 545T318 626Q446 626 507 550T569 321Q569 152 508 72T303 -8Q180 -8 116 69ZM351
70T384 75T436 88Q484 194 484 302Q484 432 444 490T304 548Q269 548 234 543T180 530Q137 437 137 315Q137 186 178 128T317 70Q351 70 384 75Z" />
<glyph unicode="&#xd5;" glyph-name="Otilde" horiz-adv-x="621" d="M171 696Q174 745 194 768T255 792Q270 792 285 786T319 769Q350 751 364 751Q399 751 404 796L459 778Q456 729 436 706T375 682Q358 682 344 688T312 705Q297 714 287 718T266 723Q231 723
226 678L171 696ZM180 -8T116 69T52 296Q52 465 113 545T318 626Q446 626 507 550T569 321Q569 152 508 72T303 -8Q180 -8 116 69ZM351 70T384 75T436 88Q484 194 484 302Q484 432 444 490T304 548Q269 548 234 543T180 530Q137 437 137 315Q137 186 178 128T317
70Q351 70 384 75Z" />
<glyph unicode="&#xd6;" glyph-name="Odieresis" horiz-adv-x="621" d="M216 691T204 702T191 734Q191 755 203 766T237 778Q259 778 271 767T283 734Q283 714 271 703T237 691Q216 691 204 702ZM373 691T361 702T348 734Q348 755 360 766T395 778Q417 778 429
767T441 734Q441 714 429 703T395 691Q373 691 361 702ZM180 -8T116 69T52 296Q52 465 113 545T318 626Q446 626 507 550T569 321Q569 152 508 72T303 -8Q180 -8 116 69ZM351 70T384 75T436 88Q484 194 484 302Q484 432 444 490T304 548Q269 548 234 543T180 530Q137
437 137 315Q137 186 178 128T317 70Q351 70 384 75Z" />
<glyph unicode="&#xd7;" glyph-name="multiply" horiz-adv-x="476" d="M50 174L190 308L50 442L98 487L238 350L378 487L426 442L286 308L426 174L378 129L238 266L98 129L50 174Z" />
<glyph unicode="&#xd8;" glyph-name="Oslash" horiz-adv-x="621" d="M99 -57L144 40Q52 114 52 296Q52 465 113 545T318 626Q369 626 408 614L440 683L510 666L472 583Q569 512 569 321Q569 152 508 72T303 -9Q248 -9 206 6L169 -75L99 -57ZM373 538Q340 548 304
548Q269 548 234 543T180 530Q137 437 137 315Q137 179 181 122L373 538ZM351 69T384 74T436 87Q484 193 484 302Q484 375 472 423T434 501L240 81Q273 69 317 69Q351 69 384 74Z" />
<glyph unicode="&#xd9;" glyph-name="Ugrave" horiz-adv-x="609" d="M166 830L272 841L355 696L291 686L166 830ZM186 -8T130 37T73 174V616H158V189Q158 121 191 96T302 70Q350 70 389 76T451 92V616H536V128Q536 54 472 23T295 -8Q186 -8 130 37Z" />
<glyph unicode="&#xda;" glyph-name="Uacute" horiz-adv-x="609" d="M246 695L329 840L435 829L310 685L246 695ZM186 -8T130 37T73 174V616H158V189Q158 121 191 96T302 70Q350 70 389 76T451 92V616H536V128Q536 54 472 23T295 -8Q186 -8 130 37Z" />
<glyph unicode="&#xdb;" glyph-name="Ucircumflex" horiz-adv-x="609" d="M167 695L267 828H342L441 695L388 684L307 759H302L218 684L167 695ZM186 -8T130 37T73 174V616H158V189Q158 121 191 96T302 70Q350 70 389 76T451 92V616H536V128Q536 54 472 23T295
-8Q186 -8 130 37Z" />
<glyph unicode="&#xdc;" glyph-name="Udieresis" horiz-adv-x="609" d="M207 691T195 702T182 734Q182 755 194 766T228 778Q250 778 262 767T274 734Q274 714 262 703T228 691Q207 691 195 702ZM364 691T352 702T339 734Q339 755 351 766T386 778Q408 778 420
767T432 734Q432 714 420 703T386 691Q364 691 352 702ZM186 -8T130 37T73 174V616H158V189Q158 121 191 96T302 70Q350 70 389 76T451 92V616H536V128Q536 54 472 23T295 -8Q186 -8 130 37Z" />
<glyph unicode="&#xdd;" glyph-name="Yacute" horiz-adv-x="615" d="M261 695L344 840L450 829L325 685L261 695ZM265 211H244Q175 304 127 393T28 600L113 621Q152 524 199 435T292 278H323Q369 345 416 434T502 621L587 600Q537 482 489 393T371 211H350V0H265V211Z" />
<glyph unicode="&#xde;" glyph-name="Thorn" horiz-adv-x="489" d="M75 616H160V502H250Q342 502 395 457T449 325Q449 234 396 189T250 143H160V0H75V616ZM246 217Q310 217 337 243T364 325Q364 382 337 405T246 428H160V217H246Z" />
<glyph unicode="&#xdf;" glyph-name="germandbls" horiz-adv-x="550" d="M250 -9T206 5L217 77Q233 72 255 69T297 65Q331 65 349 66T384 75Q402 111 402 177Q402 311 236 311V385Q364 385 364 498Q364 546 336 567T253 589Q198 589 155 579V0H72V489Q72 577 122
620T262 664Q347 664 397 621T447 502Q447 447 420 412T334 358V352Q484 319 484 178Q484 85 435 38T294 -9Q250 -9 206 5Z" />
<glyph unicode="&#xe0;" glyph-name="agrave" horiz-adv-x="474" d="M125 686L231 697L314 552L250 542L125 686ZM111 -8T76 24T40 113Q40 189 98 226T258 263Q291 263 324 260V322Q324 376 302 395T224 415Q190 415 158 411L148 336H87Q74 371 74 403V428Q104
447 155 462T250 478Q325 478 365 440T406 331V0H333L329 66H321Q296 31 259 12T179 -8Q111 -8 76 24ZM231 56T267 75T326 129V203Q291 211 234 211Q171 211 142 203Q133 181 130 164T126 122Q126 86 142 71T190 56Q231 56 267 75Z" />
<glyph unicode="&#xe1;" glyph-name="aacute" horiz-adv-x="474" d="M204 552L287 697L393 686L268 542L204 552ZM111 -8T76 24T40 113Q40 189 98 226T258 263Q291 263 324 260V322Q324 376 302 395T224 415Q190 415 158 411L148 336H87Q74 371 74 403V428Q104
447 155 462T250 478Q325 478 365 440T406 331V0H333L329 66H321Q296 31 259 12T179 -8Q111 -8 76 24ZM231 56T267 75T326 129V203Q291 211 234 211Q171 211 142 203Q133 181 130 164T126 122Q126 86 142 71T190 56Q231 56 267 75Z" />
<glyph unicode="&#xe2;" glyph-name="acircumflex" horiz-adv-x="474" d="M100 551L200 684H275L374 551L321 540L240 615H235L151 540L100 551ZM111 -8T76 24T40 113Q40 189 98 226T258 263Q291 263 324 260V322Q324 376 302 395T224 415Q190 415 158 411L148
336H87Q74 371 74 403V428Q104 447 155 462T250 478Q325 478 365 440T406 331V0H333L329 66H321Q296 31 259 12T179 -8Q111 -8 76 24ZM231 56T267 75T326 129V203Q291 211 234 211Q171 211 142 203Q133 181 130 164T126 122Q126 86 142 71T190 56Q231 56 267 75Z"
/>
<glyph unicode="&#xe3;" glyph-name="atilde" horiz-adv-x="474" d="M97 561Q100 610 120 633T181 657Q196 657 211 651T245 634Q276 616 290 616Q325 616 330 661L385 643Q382 594 362 571T301 547Q284 547 270 553T238 570Q223 579 213 583T192 588Q157 588
152 543L97 561ZM111 -8T76 24T40 113Q40 189 98 226T258 263Q291 263 324 260V322Q324 376 302 395T224 415Q190 415 158 411L148 336H87Q74 371 74 403V428Q104 447 155 462T250 478Q325 478 365 440T406 331V0H333L329 66H321Q296 31 259 12T179 -8Q111 -8 76
24ZM231 56T267 75T326 129V203Q291 211 234 211Q171 211 142 203Q133 181 130 164T126 122Q126 86 142 71T190 56Q231 56 267 75Z" />
<glyph unicode="&#xe4;" glyph-name="adieresis" horiz-adv-x="474" d="M144 547T132 558T119 590Q119 611 131 622T165 634Q187 634 199 623T211 590Q211 570 199 559T165 547Q144 547 132 558ZM301 547T289 558T276 590Q276 611 288 622T323 634Q345 634 357
623T369 590Q369 570 357 559T323 547Q301 547 289 558ZM111 -8T76 24T40 113Q40 189 98 226T258 263Q291 263 324 260V322Q324 376 302 395T224 415Q190 415 158 411L148 336H87Q74 371 74 403V428Q104 447 155 462T250 478Q325 478 365 440T406 331V0H333L329
66H321Q296 31 259 12T179 -8Q111 -8 76 24ZM231 56T267 75T326 129V203Q291 211 234 211Q171 211 142 203Q133 181 130 164T126 122Q126 86 142 71T190 56Q231 56 267 75Z" />
<glyph unicode="&#xe5;" glyph-name="aring" horiz-adv-x="474" d="M195 547T166 571T137 639Q137 680 169 707T258 735Q308 735 337 709T367 638Q367 599 334 573T246 547Q195 547 166 571ZM289 596T305 601Q310 619 310 637Q310 657 296 671T257 686Q218 686
199 681Q194 664 194 640Q194 620 208 608T247 596Q289 596 305 601ZM111 -8T76 24T40 113Q40 189 98 226T258 263Q291 263 324 260V322Q324 376 302 395T224 415Q190 415 158 411L148 336H87Q74 371 74 403V428Q104 447 155 462T250 478Q325 478 365 440T406 331V0H333L329
66H321Q296 31 259 12T179 -8Q111 -8 76 24ZM231 56T267 75T326 129V203Q291 211 234 211Q171 211 142 203Q133 181 130 164T126 122Q126 86 142 71T190 56Q231 56 267 75Z" />
<glyph unicode="&#xe6;" glyph-name="ae" horiz-adv-x="768" d="M119 -8T80 25T40 113Q40 189 98 226T258 263Q304 263 337 260V322Q337 375 310 395T224 415Q190 415 158 411L148 336H87Q74 371 74 403V428Q104 447 155 462T250 478Q299 478 336 461T392 412Q443
478 544 478Q632 478 675 428T719 289Q719 269 718 259L658 200L417 204Q419 133 449 98T545 63Q590 63 622 74T689 109L715 46Q675 21 636 8T540 -6Q420 -6 375 72Q336 32 295 12T187 -8Q119 -8 80 25ZM638 266Q644 293 644 315Q644 359 618 384T539 409Q491 409
465 394T428 347T416 262L638 266ZM281 56T339 112V203Q323 207 293 209T234 211Q171 211 142 203Q133 181 130 164T126 122Q126 85 144 71T198 56Q281 56 339 112Z" />
<glyph unicode="&#xe7;" glyph-name="ccedilla" horiz-adv-x="451" d="M192 -216T156 -199L173 -150Q186 -155 205 -158T238 -161Q265 -161 285 -157Q289 -145 289 -131Q289 -101 244 -101Q220 -101 204 -109L161 -66L212 -4Q121 8 84 66T47 222Q47 341 99 409T253
478Q296 478 335 467T400 437V401Q400 357 387 322H328L320 396Q288 405 248 405Q221 405 194 402T151 392Q141 366 134 317T127 222Q127 142 157 104T264 65Q338 65 388 108L425 51Q394 24 358 9T275 -8L239 -59Q254 -52 278 -52Q357 -52 357 -128Q357 -172 330
-194T245 -216Q192 -216 156 -199Z" />
<glyph unicode="&#xe8;" glyph-name="egrave" horiz-adv-x="488" d="M124 685L230 696L313 551L249 541L124 685ZM50 -8T50 231Q50 347 105 412T264 478Q352 478 395 428T439 289Q439 269 438 259L378 200L129 204Q131 134 165 98T265 61Q310 61 342 72T409 107L435
44Q395 19 356 6T260 -8Q50 -8 50 231ZM358 266Q364 293 364 315Q364 359 338 384T259 409Q187 409 159 375T128 262L358 266Z" />
<glyph unicode="&#xe9;" glyph-name="eacute" horiz-adv-x="488" d="M210 551L293 696L399 685L274 541L210 551ZM50 -8T50 231Q50 347 105 412T264 478Q352 478 395 428T439 289Q439 269 438 259L378 200L129 204Q131 134 165 98T265 61Q310 61 342 72T409 107L435
44Q395 19 356 6T260 -8Q50 -8 50 231ZM358 266Q364 293 364 315Q364 359 338 384T259 409Q187 409 159 375T128 262L358 266Z" />
<glyph unicode="&#xea;" glyph-name="ecircumflex" horiz-adv-x="488" d="M124 551L224 684H299L398 551L345 540L264 615H259L175 540L124 551ZM50 -8T50 231Q50 347 105 412T264 478Q352 478 395 428T439 289Q439 269 438 259L378 200L129 204Q131 134 165 98T265
61Q310 61 342 72T409 107L435 44Q395 19 356 6T260 -8Q50 -8 50 231ZM358 266Q364 293 364 315Q364 359 338 384T259 409Q187 409 159 375T128 262L358 266Z" />
<glyph unicode="&#xeb;" glyph-name="edieresis" horiz-adv-x="488" d="M157 547T145 558T132 590Q132 611 144 622T178 634Q200 634 212 623T224 590Q224 570 212 559T178 547Q157 547 145 558ZM314 547T302 558T289 590Q289 611 301 622T336 634Q358 634 370
623T382 590Q382 570 370 559T336 547Q314 547 302 558ZM50 -8T50 231Q50 347 105 412T264 478Q352 478 395 428T439 289Q439 269 438 259L378 200L129 204Q131 134 165 98T265 61Q310 61 342 72T409 107L435 44Q395 19 356 6T260 -8Q50 -8 50 231ZM358 266Q364
293 364 315Q364 359 338 384T259 409Q187 409 159 375T128 262L358 266Z" />
<glyph unicode="&#xec;" glyph-name="igrave" horiz-adv-x="232" d="M-36 686L70 697L153 552L89 542L-36 686ZM76 469H156V0H76V469Z" />
<glyph unicode="&#xed;" glyph-name="iacute" horiz-adv-x="232" d="M78 552L161 697L267 686L142 542L78 552ZM76 469H156V0H76V469Z" />
<glyph unicode="&#xee;" glyph-name="icircumflex" horiz-adv-x="232" d="M-21 551L79 684H154L253 551L200 540L119 615H114L30 540L-21 551ZM76 469H156V0H76V469Z" />
<glyph unicode="&#xef;" glyph-name="idieresis" horiz-adv-x="232" d="M16 547T4 558T-9 590Q-9 611 3 622T37 634Q59 634 71 623T83 590Q83 570 71 559T37 547Q16 547 4 558ZM173 547T161 558T148 590Q148 611 160 622T195 634Q217 634 229 623T241 590Q241
570 229 559T195 547Q173 547 161 558ZM76 469H156V0H76V469Z" />
<glyph unicode="&#xf0;" glyph-name="eth" horiz-adv-x="567" d="M177 -16T126 36T75 181Q75 237 100 278T168 340T264 362Q300 362 331 351T385 318H391Q387 409 342 465L220 422L199 470L301 507Q265 536 204 561L246 617Q323 583 375 534L477 572L502 522L414
491Q449 443 464 383T479 248Q479 130 429 57T262 -16Q177 -16 126 36ZM332 56T376 72Q385 97 390 133T396 205Q396 236 394 250Q338 291 274 291Q156 291 156 183Q156 116 185 86T276 56Q332 56 376 72Z" />
<glyph unicode="&#xf1;" glyph-name="ntilde" horiz-adv-x="526" d="M124 561Q127 610 147 633T208 657Q223 657 238 651T272 634Q303 616 317 616Q352 616 357 661L412 643Q409 594 389 571T328 547Q311 547 297 553T265 570Q250 579 240 583T219 588Q184 588
179 543L124 561ZM74 470H145L151 398H159Q191 436 230 457T321 478Q391 478 423 448T456 344V0H374V397Q343 406 307 406Q255 406 219 390T156 342V0H74V470Z" />
<glyph unicode="&#xf2;" glyph-name="ograve" horiz-adv-x="517" d="M128 686L234 697L317 552L253 542L128 686ZM141 -8T96 54T50 231Q50 480 270 480Q467 480 467 231Q467 112 415 52T247 -8Q141 -8 96 54ZM325 62T364 79Q386 125 386 215Q386 286 376 326T336
387T247 407Q190 407 153 391Q131 344 131 245Q131 175 141 137T181 81T270 62Q325 62 364 79Z" />
<glyph unicode="&#xf3;" glyph-name="oacute" horiz-adv-x="517" d="M219 551L302 696L408 685L283 541L219 551ZM141 -8T96 54T50 231Q50 480 270 480Q467 480 467 231Q467 112 415 52T247 -8Q141 -8 96 54ZM325 62T364 79Q386 125 386 215Q386 286 376 326T336
387T247 407Q190 407 153 391Q131 344 131 245Q131 175 141 137T181 81T270 62Q325 62 364 79Z" />
<glyph unicode="&#xf4;" glyph-name="ocircumflex" horiz-adv-x="517" d="M121 551L221 684H296L395 551L342 540L261 615H256L172 540L121 551ZM141 -8T96 54T50 231Q50 480 270 480Q467 480 467 231Q467 112 415 52T247 -8Q141 -8 96 54ZM325 62T364 79Q386
125 386 215Q386 286 376 326T336 387T247 407Q190 407 153 391Q131 344 131 245Q131 175 141 137T181 81T270 62Q325 62 364 79Z" />
<glyph unicode="&#xf5;" glyph-name="otilde" horiz-adv-x="517" d="M114 561Q117 610 137 633T198 657Q213 657 228 651T262 634Q293 616 307 616Q342 616 347 661L402 643Q399 594 379 571T318 547Q301 547 287 553T255 570Q240 579 230 583T209 588Q174 588
169 543L114 561ZM141 -8T96 54T50 231Q50 480 270 480Q467 480 467 231Q467 112 415 52T247 -8Q141 -8 96 54ZM325 62T364 79Q386 125 386 215Q386 286 376 326T336 387T247 407Q190 407 153 391Q131 344 131 245Q131 175 141 137T181 81T270 62Q325 62 364 79Z"
/>
<glyph unicode="&#xf6;" glyph-name="odieresis" horiz-adv-x="517" d="M158 547T146 558T133 590Q133 611 145 622T179 634Q201 634 213 623T225 590Q225 570 213 559T179 547Q158 547 146 558ZM315 547T303 558T290 590Q290 611 302 622T337 634Q359 634 371
623T383 590Q383 570 371 559T337 547Q315 547 303 558ZM141 -8T96 54T50 231Q50 480 270 480Q467 480 467 231Q467 112 415 52T247 -8Q141 -8 96 54ZM325 62T364 79Q386 125 386 215Q386 286 376 326T336 387T247 407Q190 407 153 391Q131 344 131 245Q131 175
141 137T181 81T270 62Q325 62 364 79Z" />
<glyph unicode="&#xf7;" glyph-name="divide" horiz-adv-x="540" d="M247 409T231 425T215 465Q215 488 231 504T270 520Q293 520 309 504T325 465Q325 442 309 426T270 409Q247 409 231 425ZM50 339H490V273H50V339ZM247 92T231 108T215 148Q215 171 231 187T270
203Q293 203 309 187T325 148Q325 125 309 109T270 92Q247 92 231 108Z" />
<glyph unicode="&#xf8;" glyph-name="oslash" horiz-adv-x="517" d="M467 384T467 231Q467 112 415 52T247 -8Q216 -8 189 -2L141 -108L71 -90L124 26Q50 81 50 231Q50 480 270 480Q305 480 330 473L366 552L436 535L394 442Q467 384 467 231ZM131 189T137 155T159
101L297 402Q274 407 247 407Q190 407 153 391Q131 344 131 245Q131 189 137 155ZM386 125T386 215Q386 272 380 307T358 365L221 66Q240 62 270 62Q325 62 364 79Q386 125 386 215Z" />
<glyph unicode="&#xf9;" glyph-name="ugrave" horiz-adv-x="520" d="M122 685L228 696L311 551L247 541L122 685ZM132 -8T100 22T68 126V470H150V73Q181 64 216 64Q309 64 364 128V470H446V0H375L369 72H361Q327 34 289 13T202 -8Q132 -8 100 22Z" />
<glyph unicode="&#xfa;" glyph-name="uacute" horiz-adv-x="520" d="M205 551L288 696L394 685L269 541L205 551ZM132 -8T100 22T68 126V470H150V73Q181 64 216 64Q309 64 364 128V470H446V0H375L369 72H361Q327 34 289 13T202 -8Q132 -8 100 22Z" />
<glyph unicode="&#xfb;" glyph-name="ucircumflex" horiz-adv-x="520" d="M116 552L216 685H291L390 552L337 541L256 616H251L167 541L116 552ZM132 -8T100 22T68 126V470H150V73Q181 64 216 64Q309 64 364 128V470H446V0H375L369 72H361Q327 34 289 13T202 -8Q132
-8 100 22Z" />
<glyph unicode="&#xfc;" glyph-name="udieresis" horiz-adv-x="520" d="M160 547T148 558T135 590Q135 611 147 622T181 634Q203 634 215 623T227 590Q227 570 215 559T181 547Q160 547 148 558ZM317 547T305 558T292 590Q292 611 304 622T339 634Q361 634 373
623T385 590Q385 570 373 559T339 547Q317 547 305 558ZM132 -8T100 22T68 126V470H150V73Q181 64 216 64Q309 64 364 128V470H446V0H375L369 72H361Q327 34 289 13T202 -8Q132 -8 100 22Z" />
<glyph unicode="&#xfd;" glyph-name="yacute" horiz-adv-x="496" d="M206 551L289 696L395 685L270 541L206 551ZM91 -197T53 -178V-147Q53 -115 63 -84H122V-128Q136 -131 157 -131Q167 -131 193 -127Q218 -68 249 21H185Q130 153 94 255T30 468L111 475Q163
265 233 91H272Q327 261 377 475L460 468Q419 299 372 149T277 -112Q261 -150 221 -173T141 -197Q91 -197 53 -178Z" />
<glyph unicode="&#xfe;" glyph-name="thorn" horiz-adv-x="495" d="M75 676H160V439H167Q225 475 290 475Q374 475 414 418T455 265Q455 170 415 113T290 55Q225 55 167 91H160V-180H75V676ZM321 132T345 166T370 265Q370 329 346 363T263 398Q211 398 160 378V152Q211
132 263 132Q321 132 345 166Z" />
<glyph unicode="&#xff;" glyph-name="ydieresis" horiz-adv-x="496" d="M151 547T139 558T126 590Q126 611 138 622T172 634Q194 634 206 623T218 590Q218 570 206 559T172 547Q151 547 139 558ZM308 547T296 558T283 590Q283 611 295 622T330 634Q352 634 364
623T376 590Q376 570 364 559T330 547Q308 547 296 558ZM91 -197T53 -178V-147Q53 -115 63 -84H122V-128Q136 -131 157 -131Q167 -131 193 -127Q218 -68 249 21H185Q130 153 94 255T30 468L111 475Q163 265 233 91H272Q327 261 377 475L460 468Q419 299 372 149T277
-112Q261 -150 221 -173T141 -197Q91 -197 53 -178Z" />
<glyph unicode="&#x2013;" glyph-name="endash" horiz-adv-x="532" d="M75 307H457V235H75V307Z" />
<glyph unicode="&#x2014;" glyph-name="emdash" horiz-adv-x="709" d="M75 307H634V235H75V307Z" />
<glyph unicode="&#x2018;" glyph-name="quoteleft" horiz-adv-x="264" d="M107 429T91 447T75 501Q75 531 88 563T123 622L170 611Q136 548 136 494H189V438Q165 429 141 429Q107 429 91 447Z" />
<glyph unicode="&#x2019;" glyph-name="quoteright" horiz-adv-x="264" d="M94 440Q128 503 128 557H75V613Q99 622 125 622Q159 622 174 605T189 550Q189 520 176 488T141 429L94 440Z" />
<glyph unicode="&#x201a;" glyph-name="quotesinglbase" horiz-adv-x="266" d="M94 -88Q128 -25 128 29H75V85Q99 94 125 94Q159 94 175 76T191 22Q191 -8 178 -40T143 -99L94 -88Z" />
<glyph unicode="&#x201c;" glyph-name="quotedblleft" horiz-adv-x="429" d="M105 429T90 446T75 501Q75 531 88 563T123 622L170 611Q136 548 136 494H189V438Q165 429 139 429Q105 429 90 446ZM272 429T256 447T240 501Q240 531 253 563T288 622L335 611Q301
548 301 494H354V438Q330 429 306 429Q272 429 256 447Z" />
<glyph unicode="&#x201d;" glyph-name="quotedblright" horiz-adv-x="429" d="M94 440Q128 503 128 557H75V613Q99 622 123 622Q157 622 173 604T189 550Q189 520 176 488T141 429L94 440ZM259 440Q293 503 293 557H240V613Q264 622 290 622Q324 622 339 605T354
550Q354 520 341 488T306 429L259 440Z" />
<glyph unicode="&#x201e;" glyph-name="quotedblbase" horiz-adv-x="429" d="M94 440Q128 503 128 557H75V613Q99 622 123 622Q157 622 173 604T189 550Q189 520 176 488T141 429L94 440ZM259 440Q293 503 293 557H240V613Q264 622 290 622Q324 622 339 605T354
550Q354 520 341 488T306 429L259 440Z" />
<glyph unicode="&#x2022;" glyph-name="bullet" horiz-adv-x="351" d="M132 167T102 197T71 273Q71 316 102 346T176 376Q220 376 250 346T281 272Q281 228 251 198T176 167Q132 167 102 197Z" />
<glyph unicode="&#x2039;" glyph-name="guilsinglleft" horiz-adv-x="295" d="M48 261L178 439L240 416L131 261L240 106L178 83L48 261Z" />
<glyph unicode="&#x203a;" glyph-name="guilsinglright" horiz-adv-x="295" d="M55 106L164 261L55 416L117 439L247 261L117 83L55 106Z" />
</font>
</defs>
</svg>
