<?xml version="1.0" standalone="no"?>
<!DOCTYPE svg PUBLIC "-//W3C//DTD SVG 1.1//EN" "http://www.w3.org/Graphics/SVG/1.1/DTD/svg11.dtd">
<svg xmlns="http://www.w3.org/2000/svg">
<defs >
<font id="CantataOne" horiz-adv-x="1349" ><font-face
    font-family="Cantata One"
    units-per-em="2048"
    panose-1="2 6 5 3 7 7 0 6 7 4"
    ascent="2040"
    descent="-560"
    alphabetic="0" />
<glyph unicode=" " glyph-name="space" horiz-adv-x="682" />
<glyph unicode="!" glyph-name="exclam" horiz-adv-x="852" d="M268 1489Q265 1504 265 1531Q265 1592 313 1638T426 1685Q491 1685 539 1639T587 1523Q587 1504 584 1489L473 447H379L268 1489ZM267 141Q267 248 363 290Q392 302 426 302Q494 302 540 256Q586
210 586 142T541 28T427 -18T313 27T267 141Z" />
<glyph unicode="&quot;" glyph-name="quotedbl" horiz-adv-x="1196" d="M283 1559Q275 1607 315 1645T410 1684T494 1659Q545 1612 534 1556L445 1020H367L283 1559ZM661 1559Q653 1607 693 1645T788 1684T872 1659Q923 1612 912 1556L823 1020H745L661 1559Z" />
<glyph unicode="#" glyph-name="numbersign" horiz-adv-x="1707" d="M458 392H201V510H490L595 902H271V1020H626L770 1554L904 1521L769 1020H1074L1218 1554L1352 1521L1217 1020H1506V902H1186L1081 510H1436V392H1049L917 -102L783 -69L906 392H601L469 -102L335
-69L458 392ZM938 510L1043 902H738L633 510H938Z" />
<glyph unicode="$" glyph-name="dollar" horiz-adv-x="1366" d="M307 116Q266 70 266 0H177V408H280Q307 299 378 218T556 95L590 580Q260 707 206 898Q188 959 188 1035Q188 1188 316 1289T647 1407L660 1596H739L726 1410L772 1408Q795 1407 816 1404L830 1596H909L895
1391Q1004 1364 1064 1313Q1088 1348 1090 1390H1183V1018H1087Q1064 1214 888 1291L853 788Q1079 703 1165 616T1252 416Q1252 217 1123 107T797 -18L787 -170H708L718 -19Q661 -17 628 -12L617 -170H538L550 2Q392 40 307 116ZM688 857L776 819L810 1316Q764
1326 720 1327L688 857ZM641 1324Q466 1305 409 1212Q390 1182 390 1146Q390 1068 434 1014T611 893L641 1324ZM634 73Q675 65 724 63L755 522L679 548Q671 550 667 552L634 73ZM803 66Q982 82 1039 176Q1058 208 1058 246Q1058 327 1011 382T833 491L803 66Z"
/>
<glyph unicode="%" glyph-name="percent" horiz-adv-x="1877" d="M384 823T291 925T198 1189T292 1455T524 1559T754 1457T845 1190T755 924T524 823ZM522 897Q667 897 667 1189Q667 1327 645 1382T594 1460T522 1483Q440 1483 406 1398Q378 1329 378 1230Q378
1054 409 976T522 897ZM1032 183T1032 345T1126 611T1358 715T1588 613T1679 346T1589 80T1358 -21T1125 81ZM1356 53Q1501 53 1501 345Q1501 559 1428 618Q1399 640 1356 640Q1274 640 1243 563T1212 386Q1212 210 1243 132T1356 53ZM1436 1530H1535L400 0H298L1436
1530Z" />
<glyph unicode="&amp;" glyph-name="ampersand" horiz-adv-x="1708" d="M1262 307Q1456 117 1572 117Q1630 117 1667 142L1704 91Q1615 -20 1448 -20T1118 118Q959 -20 722 -20T314 93T144 396Q144 554 252 669Q340 764 476 808Q308 1012 308 1175T446 1434T749
1529T1021 1466T1138 1297Q1142 1283 1142 1262Q1142 1211 1100 1171T1002 1130Q946 1130 905 1171T864 1261Q864 1357 945 1395Q883 1452 772 1452T602 1397T543 1248Q543 1108 748 866Q1138 435 1192 379Q1266 546 1266 769H1093V847H1527V769H1367Q1361 497
1262 307ZM400 518Q386 469 386 406Q386 268 488 172T759 75T1050 181Q971 258 888 354L706 556Q581 687 538 736Q438 657 400 518Z" />
<glyph unicode="&apos;" glyph-name="quotesingle" horiz-adv-x="855" d="M301 1559Q293 1607 333 1645T428 1684T512 1659Q563 1612 552 1556L463 1020H385L301 1559Z" />
<glyph unicode="(" glyph-name="parenleft" horiz-adv-x="1024" d="M511 634Q511 -180 1023 -503L975 -560Q683 -419 480 -111T276 610Q276 1165 632 1516Q768 1649 975 1765L1023 1709Q613 1419 536 926Q511 771 511 634Z" />
<glyph unicode=")" glyph-name="parenright" horiz-adv-x="1024" d="M513 571Q513 1385 1 1708L49 1765Q341 1624 544 1316T748 595Q748 40 392 -311Q256 -444 49 -560L1 -504Q411 -214 488 279Q513 434 513 571Z" />
<glyph unicode="*" glyph-name="asterisk" horiz-adv-x="1193" d="M470 902Q443 843 386 843T309 866Q278 904 278 938T289 990T323 1029L543 1208L238 1251Q195 1256 171 1288T147 1350Q147 1399 178 1426T245 1454T313 1431L562 1267L500 1582L501 1581Q498
1593 498 1609Q498 1644 531 1674T592 1704Q640 1704 670 1672T700 1616T695 1567L626 1266L893 1434Q918 1448 942 1448Q986 1448 1016 1417T1046 1354Q1046 1300 1016 1276T940 1244L645 1206L876 1013Q908 986 908 950Q908 891 878 864T808 837T746 859T710
911L592 1171L470 902Z" />
<glyph unicode="+" glyph-name="plus" horiz-adv-x="1536" d="M270 645H716V1114H820V645H1266V545H820V98H716V545H270V645Z" />
<glyph unicode="," glyph-name="comma" horiz-adv-x="683" d="M232 267Q281 310 330 310Q419 310 466 258T513 122Q513 -18 435 -158T275 -351L223 -313Q300 -249 336 -94Q347 -47 349 -2Q283 -2 234 43T184 156T232 267Z" />
<glyph unicode="-" glyph-name="hyphen" horiz-adv-x="1198" d="M237 646H961V546H237V646Z" />
<glyph unicode="." glyph-name="period" horiz-adv-x="683" d="M182 141Q182 248 278 290Q307 302 341 302Q409 302 455 256T501 142T456 28T342 -18T228 27T182 141Z" />
<glyph unicode="/" glyph-name="slash" horiz-adv-x="1025" d="M862 1683H1019L164 -554H6L862 1683Z" />
<glyph unicode="0" glyph-name="zero" horiz-adv-x="1537" d="M1133 91T1018 36T770 -20Q502 -20 322 196T142 761Q142 1109 322 1329T768 1550Q902 1550 1017 1493T1216 1332Q1395 1112 1395 762T1216 193Q1133 91 1018 36ZM768 63Q1058 63 1093 576Q1099 665
1099 790Q1099 1103 1034 1268Q956 1467 768 1467Q497 1467 452 1044Q439 915 439 790T445 576T465 410Q495 244 567 154T768 63Z" />
<glyph unicode="1" glyph-name="one" horiz-adv-x="1024" d="M204 78H382V1446L210 1430V1507L648 1554V78H827V0H204V78Z" />
<glyph unicode="2" glyph-name="two" horiz-adv-x="1366" d="M984 225Q1092 225 1123 388H1197V0H150V89L296 210Q469 360 618 540Q890 868 890 1146Q890 1321 814 1395T628 1470Q427 1470 331 1331Q416 1322 446 1242Q454 1219 454 1192Q454 1134 411 1095T321
1056Q242 1056 199 1098T156 1210Q156 1344 308 1448Q462 1550 677 1550T1034 1447T1175 1143Q1175 904 934 643Q797 495 662 390L445 225H984Z" />
<glyph unicode="3" glyph-name="three" horiz-adv-x="1366" d="M869 1185Q869 1467 606 1467Q445 1467 368 1390Q419 1378 448 1339T477 1261Q477 1191 436 1149T344 1107Q261 1107 225 1153T189 1248T209 1336T264 1406Q332 1471 440 1510T663 1550Q894 1550
1019 1454T1145 1195Q1145 1064 1049 957T793 819Q989 807 1110 707T1232 451Q1232 230 1059 105T613 -20Q431 -20 297 62T162 278Q162 339 204 381T293 424Q369 424 412 381T455 286T429 194T352 138Q423 80 524 68Q566 63 640 63Q790 63 871 156T953 398Q953
547 847 645T581 743Q526 743 471 730V823Q662 823 765 925T869 1185Z" />
<glyph unicode="4" glyph-name="four" horiz-adv-x="1366" d="M40 466L816 1530H1003V485H1317L1315 399H1003V78H1232V0H469V78H737V399H40V466ZM737 485V1267L177 485H737Z" />
<glyph unicode="5" glyph-name="five" horiz-adv-x="1365" d="M626 854Q440 854 252 761L306 1530H1183L1132 1148H1054L1048 1211Q1039 1294 957 1310Q928 1315 887 1315H394L357 873Q454 939 613 964Q661 971 704 971Q951 971 1088 842T1225 503Q1225 258 1054
119T610 -20Q435 -20 300 62T165 278Q165 339 207 381T296 424Q372 424 415 381T458 270T394 156Q374 142 347 135Q431 60 600 60Q855 60 930 290Q956 370 956 466Q956 649 864 751T626 854Z" />
<glyph unicode="6" glyph-name="six" horiz-adv-x="1365" d="M392 804Q544 981 792 981Q869 981 957 955T1114 872Q1267 747 1267 520T1103 137T711 -20Q446 -20 281 177T115 714T288 1291Q406 1454 590 1518Q684 1550 780 1550Q953 1550 1059 1489T1166 1326Q1166
1262 1131 1221T1046 1180Q969 1180 931 1222T892 1330T947 1430Q896 1479 792 1479Q598 1479 498 1297T392 804ZM738 881Q521 881 392 676Q402 240 572 108Q631 63 705 63Q847 63 926 177Q1003 291 1003 480Q1003 768 852 852Q800 881 738 881Z" />
<glyph unicode="7" glyph-name="seven" horiz-adv-x="1195" d="M421 0Q419 30 419 101T443 291T510 528Q590 752 713 962T960 1315H411Q328 1315 276 1288T199 1191Q193 1171 185 1141L171 1088H93L158 1530H1126V1460Q845 1023 764 481Q739 313 739 190T746 0H421Z" />
<glyph unicode="8" glyph-name="eight" horiz-adv-x="1366" d="M193 374Q193 604 487 748Q218 911 218 1129Q218 1322 384 1442Q532 1550 706 1550H716Q933 1550 1062 1451T1191 1204Q1191 1016 1002 896Q948 862 893 840Q1061 759 1126 697T1222 573T1253 429T1214
265T1105 120Q949 -20 714 -20T336 89T193 374ZM826 873Q997 966 997 1186Q997 1338 917 1403T718 1469Q538 1469 469 1334Q444 1286 444 1223Q444 1116 554 1028Q630 967 806 883L826 873ZM394 252T492 164T726 75T938 155T1014 354T811 578L688 641Q623 672 559
707Q481 650 451 602Q394 511 394 382Z" />
<glyph unicode="9" glyph-name="nine" horiz-adv-x="1365" d="M989 726Q837 549 590 549Q513 549 425 576T268 662Q115 793 115 1039Q115 1249 280 1399T671 1550Q936 1550 1101 1353T1267 816T1094 239Q976 76 792 12Q698 -20 602 -20Q427 -20 326 38T216 191V204Q216
268 251 309T336 350Q413 350 451 308T490 201T434 99Q489 51 592 51Q784 51 883 233T989 726ZM530 680Q582 649 644 649Q755 649 844 705Q932 761 989 854Q979 1290 810 1422Q751 1467 677 1467Q536 1467 458 1360T379 1070Q379 768 530 680ZM361 78L363 80H358L361
78Z" />
<glyph unicode=":" glyph-name="colon" horiz-adv-x="683" d="M182 141Q182 248 278 290Q307 302 341 302Q409 302 455 256T501 142T456 28T342 -18T228 27T182 141ZM182 141Q182 248 278 290Q307 302 341 302Q409 302 455 256T501 142T456 28T342 -18T228 27T182
141ZM182 878Q182 985 278 1026Q307 1039 341 1039Q409 1039 455 993T501 879T456 765T342 719T228 764T182 878Z" />
<glyph unicode=";" glyph-name="semicolon" horiz-adv-x="683" d="M232 267Q281 310 330 310Q419 310 466 258T513 122Q513 -18 435 -158T275 -351L223 -313Q300 -249 336 -94Q347 -47 349 -2Q283 -2 234 43T184 156T232 267ZM182 878Q182 985 278 1027Q307 1039
341 1039Q409 1039 455 993T501 879T456 765T342 719T228 764T182 878Z" />
<glyph unicode="&lt;" glyph-name="less" horiz-adv-x="1535" d="M340 582L1159 1060V946L468 545L1159 154V30L340 508V582Z" />
<glyph unicode="=" glyph-name="equal" horiz-adv-x="1536" d="M270 780H1266V680H270V780ZM270 440H1266V340H270V440Z" />
<glyph unicode="&gt;" glyph-name="greater" horiz-adv-x="1535" d="M1162 582L343 1060V946L1034 545L343 154V30L1162 508V582Z" />
<glyph unicode="?" glyph-name="question" horiz-adv-x="1364" d="M509 750Q719 821 844 976T969 1316Q969 1452 884 1535T629 1618T362 1502Q414 1487 446 1444T479 1354Q479 1275 433 1227T316 1179T198 1226T150 1343V1354Q150 1359 151 1364Q151 1423 189
1483T293 1593Q443 1704 667 1704T1054 1587T1218 1279Q1218 1000 950 826Q841 756 719 730L666 447H569L509 750ZM460 141Q460 248 556 290Q585 302 619 302Q687 302 733 256T779 142T734 28T620 -18T506 27T460 141Z" />
<glyph unicode="@" glyph-name="at" horiz-adv-x="2385" d="M1838 -299Q1551 -420 1185 -420T544 -238Q333 -98 246 149Q200 278 200 444T245 750T370 1002Q524 1218 783 1335T1323 1453Q1696 1453 1940 1271T2184 784T2017 238Q1905 77 1741 13Q1657 -20 1556
-20T1392 8T1317 108Q1176 -18 999 -18Q871 -18 778 106T684 444Q684 709 860 882Q1022 1040 1242 1040Q1347 1040 1429 981L1435 1020H1675L1565 219L1562 204L1556 153Q1556 71 1608 71Q1733 71 1850 180Q2018 338 2076 611Q2094 696 2094 807T2040 1028T1886
1214Q1679 1371 1323 1371Q1037 1371 802 1256T430 930T293 446T422 -2T750 -260T1167 -342Q1520 -342 1807 -222L1838 -299ZM1417 895Q1359 944 1284 944T1161 923T1078 867Q1012 803 977 694T942 515T945 404T958 324Q1001 123 1130 123Q1232 123 1323 234L1417
895Z" />
<glyph unicode="A" glyph-name="A" horiz-adv-x="1534" d="M21 78H129L693 1530H809L1412 78H1514V0H969V78H1119L975 427H368L236 78H416V0H21V78ZM943 505L659 1196L398 505H943Z" />
<glyph unicode="B" glyph-name="B" horiz-adv-x="1534" d="M106 78H276L277 1452H106V1530H860Q1095 1530 1209 1423T1324 1146Q1324 949 1142 855Q1088 827 1028 811Q1221 788 1323 687T1425 439Q1425 237 1278 119T856 0H106V78ZM791 832Q1008 832 1050 1018Q1063
1074 1063 1138Q1063 1290 1014 1358Q948 1452 764 1452H546V832H791ZM778 78Q960 78 1056 165T1153 412Q1153 647 966 726Q898 755 800 755H546V78H778Z" />
<glyph unicode="C" glyph-name="C" horiz-adv-x="1534" d="M1307 1422Q1347 1469 1349 1530H1431V1111H1346Q1317 1277 1188 1372T906 1467Q400 1467 404 760Q407 479 516 293Q642 78 882 78Q1065 78 1191 142T1390 317L1442 269Q1404 178 1284 95Q1119 -20 870
-20Q516 -20 306 200T96 762T305 1326T888 1550Q1090 1550 1240 1468Q1282 1445 1307 1422Z" />
<glyph unicode="D" glyph-name="D" horiz-adv-x="1707" d="M83 78H283L284 1452H83V1530H757Q1360 1530 1537 1149Q1610 992 1610 777Q1610 491 1444 278Q1310 107 1055 37Q921 0 743 0H83V78ZM731 78Q1046 78 1182 235T1318 770V801Q1312 1163 1173 1307T744
1452H553V78H731Z" />
<glyph unicode="E" glyph-name="E" horiz-adv-x="1535" d="M71 79H271L272 1452H71V1530H1364V1094H1286Q1281 1177 1272 1241T1234 1351Q1176 1443 998 1452H541V824H791Q876 824 921 851T977 948Q979 968 980 990T984 1035H1068V519H984Q982 542 981 572T977
622Q967 691 921 718T791 746H541V78H969Q1232 78 1288 321Q1304 391 1309 465H1387V0H71V79Z" />
<glyph unicode="F" glyph-name="F" horiz-adv-x="1367" d="M53 78H252L253 1452H52V1530H1305V1089H1227Q1216 1277 1166 1348Q1100 1443 919 1452H522V795H738Q822 795 872 823T933 919Q935 939 936 964T940 1012H1022V489H940Q938 512 937 542T933 593Q915 717
738 717H522V78H846V0H53V78Z" />
<glyph unicode="G" glyph-name="G" horiz-adv-x="1707" d="M896 1550Q1240 1550 1382 1421Q1404 1446 1426 1530H1507V1111H1422Q1374 1290 1240 1378T917 1467Q566 1467 450 1108Q380 892 416 602Q467 198 752 92Q832 63 922 63T1075 79T1184 118T1258 168T1288
216V601H1027V679H1659V601H1530V192Q1469 107 1292 44T927 -20T585 41T325 210Q107 430 107 759T326 1314Q471 1464 688 1521Q798 1550 896 1550Z" />
<glyph unicode="H" glyph-name="H" horiz-adv-x="1707" d="M55 78H211L212 1452H55V1530H650V1452H481V806H1225L1226 1452H1057V1530H1652V1452H1495V78H1651V0H1057V78H1225V728H481V78H649V0H55V78Z" />
<glyph unicode="I" glyph-name="I" horiz-adv-x="854" d="M95 78H292L293 1452H95V1530H759V1452H562V78H759V0H95V78Z" />
<glyph unicode="J" glyph-name="J" horiz-adv-x="854" d="M179 -290T213 -240T268 -89T289 381V1452H101V1530H756V1452H559V135Q559 -81 446 -213T159 -391L118 -318Q179 -290 213 -240Z" />
<glyph unicode="K" glyph-name="K" horiz-adv-x="1707" d="M141 78H331L332 1452H141V1530H806V1452H601V755L1303 1452H1154V1530H1601V1452H1426L878 908L1556 78H1698V0H1068V78H1215L700 732L601 634V78H806V0H141V78Z" />
<glyph unicode="L" glyph-name="L" horiz-adv-x="1367" d="M71 79L285 78L286 1453H118V1530H733V1453H555V78H861Q1124 78 1180 321Q1196 391 1201 465H1279V0H71V79Z" />
<glyph unicode="M" glyph-name="M" horiz-adv-x="2049" d="M62 78H246V1452H60V1530H582L1033 417L1481 1530H1986V1452H1791V78H2004V0H1339V78H1521L1522 1409L966 21H926L337 1416V78H518V0H62V78Z" />
<glyph unicode="N" glyph-name="N" horiz-adv-x="1707" d="M93 78H267V1452H93V1530H546L1356 325V1452H1162V1530H1637V1452H1454V0H1268L365 1327V78H568V0H93V78Z" />
<glyph unicode="O" glyph-name="O" horiz-adv-x="1711" d="M141 467T120 565T98 764T119 961T183 1145Q271 1328 442 1439T855 1550Q1221 1550 1428 1306Q1613 1086 1613 762T1426 218Q1298 68 1089 10Q983 -20 857 -20T625 9T436 92T289 218T183 379ZM1216 296Q1254
365 1289 481T1325 724T1314 937T1278 1100Q1225 1266 1120 1366T855 1467Q607 1467 486 1245Q383 1054 386 771T490 296Q614 63 851 63T1216 296Z" />
<glyph unicode="P" glyph-name="P" horiz-adv-x="1364" d="M51 78H222L223 1452H52V1530H701Q1011 1530 1155 1403T1300 1041T1150 660T705 513H492V78H745V0H51V78ZM680 582Q919 582 992 842Q1019 935 1019 1034Q1019 1232 940 1336Q855 1452 682 1452H492V582H680Z" />
<glyph unicode="Q" glyph-name="Q" horiz-adv-x="1711" d="M650 -305Q523 -305 416 -421L363 -387Q396 -297 570 -181Q616 -150 657 -127L852 -20Q614 -20 443 88T185 375T98 767Q98 1084 288 1306Q498 1550 859 1550T1428 1306Q1613 1086 1613 783T1468 274Q1312
49 1029 -4L833 -122Q882 -135 927 -154Q927 -154 1020 -190Q1132 -231 1224 -231Q1347 -231 1453 -115L1505 -149Q1476 -232 1378 -333T1170 -435Q1099 -435 1031 -415T895 -370Q714 -305 650 -305ZM1216 296Q1254 365 1289 481T1325 724T1314 937T1278 1100Q1225
1266 1120 1366T855 1467Q607 1467 486 1245Q383 1054 386 771T490 296Q614 63 851 63T1216 296Z" />
<glyph unicode="R" glyph-name="R" horiz-adv-x="1534" d="M755 1530Q1330 1530 1330 1144Q1330 969 1224 865T940 732Q1175 693 1262 490Q1297 408 1323 310T1371 170Q1417 78 1507 78H1547L1549 -5H1408Q1212 -5 1144 48Q1075 102 1039 261Q1006 406 985 459Q941
573 871 638T690 703H507V78H741V0H76V78H237L238 1452H76V1530H755ZM737 772Q919 772 993 889Q1047 974 1047 1130T984 1360Q906 1452 719 1452H507V772H737Z" />
<glyph unicode="S" glyph-name="S" horiz-adv-x="1366" d="M307 116Q266 70 266 0H177V408H280Q319 254 442 159T741 63Q960 63 1034 184Q1058 225 1058 276Q1058 385 981 463T718 609T436 735T285 855Q188 966 188 1146T342 1438T718 1550Q843 1550 930 1521T1064
1453Q1088 1488 1090 1530H1183V1158H1087Q1072 1306 964 1386T713 1467T480 1409T390 1249T474 1072T817 882Q1060 783 1156 682T1252 431Q1252 221 1105 101T748 -20T383 64Q337 89 307 116Z" />
<glyph unicode="T" glyph-name="T" horiz-adv-x="1535" d="M433 78H632L633 1453H447Q282 1442 217 1331Q167 1246 158 1049H80V1530H1454V1049H1376Q1367 1244 1316 1331Q1251 1442 1087 1453H902V78H1102V0H433V78Z" />
<glyph unicode="U" glyph-name="U" horiz-adv-x="1539" d="M183 1452H46V1530H598V1452H452V525Q452 162 656 95Q724 73 788 73T900 79T995 102Q1100 142 1167 246T1235 543V1452H1079V1530H1479V1452H1333V529Q1333 252 1189 116T798 -20Q333 -20 214 332Q182
426 182 559L183 1452Z" />
<glyph unicode="V" glyph-name="V" horiz-adv-x="1539" d="M121 1452H-13V1530H627V1452H434L877 317L1293 1452H1105V1530H1555V1452H1401L846 -20H761L121 1452Z" />
<glyph unicode="W" glyph-name="W" horiz-adv-x="2220" d="M98 1452H-49V1530H596V1452H396L773 343L1165 1530H1238L1673 348L2034 1452H1843V1530H2293V1452H2138L1642 -20H1550L1115 1088L743 -20H653L98 1452Z" />
<glyph unicode="X" glyph-name="X" horiz-adv-x="1538" d="M17 78H187L655 705L161 1452H15V1530H650V1452H465L831 906L1233 1452H1064V1531H1514V1452H1343L883 828L1387 78H1523V0H889V78H1071L707 626L301 78H484V0H17V78Z" />
<glyph unicode="Y" glyph-name="Y" horiz-adv-x="1539" d="M448 78H646L647 590L135 1452H10V1530H654V1452H451L860 733L1266 1452H1082V1530H1524V1452H1373L916 652V78H1115V0H448V78Z" />
<glyph unicode="Z" glyph-name="Z" horiz-adv-x="1538" d="M140 117L1091 1452H646Q453 1452 386 1372T304 1091H212V1530H1375V1415L437 78H1010Q1202 78 1268 180Q1315 252 1320 437H1413V0H140V117Z" />
<glyph unicode="[" glyph-name="bracketleft" horiz-adv-x="1024" d="M341 1767H809V1689H544V-482H808V-560H341V1767Z" />
<glyph unicode="\" glyph-name="backslash" horiz-adv-x="1025" d="M163 1683H6L861 -554H1019L163 1683Z" />
<glyph unicode="]" glyph-name="bracketright" horiz-adv-x="1024" d="M683 1767H215V1689H480V-482H216V-560H683V1767Z" />
<glyph unicode="^" glyph-name="asciicircum" horiz-adv-x="1707" d="M816 1527H891L1364 543H1245L850 1389L460 543H341L816 1527Z" />
<glyph unicode="_" glyph-name="underscore" horiz-adv-x="1368" d="M1378 -205V-333H-10V-205H1378Z" />
<glyph unicode="`" glyph-name="grave" horiz-adv-x="1707" d="M466 1406Q407 1442 412 1517Q414 1566 452 1594T530 1618T591 1598T631 1552L851 1218L820 1184L466 1406Z" />
<glyph unicode="a" glyph-name="a" horiz-adv-x="1195" d="M765 113Q649 -20 454 -20Q306 -20 199 62T92 278T197 488T467 565T744 482V720Q744 841 714 884T644 944T554 961Q477 961 424 944T353 908Q399 894 424 838Q432 818 432 790Q432 735 392 699T312 662Q242
662 203 699T164 788T183 873T234 934Q295 985 387 1012T561 1039Q786 1039 894 948T1002 694V161Q1002 78 1043 78T1122 128L1174 85Q1106 -18 952 -18Q898 -18 843 16T765 113ZM747 393Q662 476 561 476T409 429T358 276Q358 121 467 88Q498 78 530 78Q621 78
704 148Q728 169 747 193V393Z" />
<glyph unicode="b" glyph-name="b" horiz-adv-x="1365" d="M471 914Q587 1040 826 1040Q904 1040 989 1010T1140 914Q1279 773 1279 520T1134 124T780 -20Q646 -20 533 35Q498 52 471 73V0H61V78H211V1604H61V1684H471V914ZM738 66Q999 66 999 506Q999 833 858
918Q809 948 733 947T587 904T471 793V180Q546 99 668 74Q704 66 738 66Z" />
<glyph unicode="c" glyph-name="c" horiz-adv-x="1026" d="M998 144Q870 -20 604 -20Q510 -20 407 16T228 121Q67 269 67 513T224 899T624 1040Q762 1040 879 979T997 805Q997 745 959 707T878 669Q807 669 768 702T729 791Q729 882 802 917Q728 963 631 963Q343
963 343 514Q343 198 517 106Q575 76 652 76Q834 76 946 192L998 144Z" />
<glyph unicode="d" glyph-name="d" horiz-adv-x="1365" d="M925 104Q807 -20 572 -20Q494 -20 409 10T259 106T157 271T119 504Q119 752 264 896T618 1040Q750 1040 862 986Q898 969 925 948V1606H718V1684H1185V78H1333V0H925V104ZM660 954Q399 954 399 514Q399
187 540 102Q589 72 664 72T809 114T925 224V842Q848 922 729 946Q693 954 660 954Z" />
<glyph unicode="e" glyph-name="e" horiz-adv-x="1194" d="M1072 175Q915 -20 625 -20Q529 -20 425 20T248 132Q97 282 97 514T249 893T635 1039Q979 1039 1068 751Q1097 659 1097 544H373V514Q373 205 548 108Q607 75 689 75Q871 75 1019 223L1072 175ZM828 626Q826
786 779 870T625 955Q408 955 378 626H828Z" />
<glyph unicode="f" glyph-name="f" horiz-adv-x="855" d="M720 1430Q720 1546 826 1563Q815 1587 779 1604T696 1621Q610 1621 579 1549T548 1325V1023H752L772 945H547V78H757V0H125V78H287V945H125V1023H287V1276Q287 1484 391 1592T668 1700Q803 1700 886 1630T970
1464T889 1334Q866 1325 829 1325T756 1357T720 1430Z" />
<glyph unicode="g" glyph-name="g" horiz-adv-x="1194" d="M687 130Q1161 130 1161 -181Q1161 -367 1002 -463T612 -560Q262 -560 142 -421Q98 -371 98 -314Q98 -220 158 -156T311 -65Q230 -51 176 3Q122 57 122 112Q122 202 172 265T299 368Q144 473 144 647T275
930T579 1039T871 964Q928 974 961 1001Q897 1038 897 1096T923 1182Q970 1232 1022 1232T1110 1197T1147 1099T1079 980T941 909Q1052 800 1052 646T920 389T593 285Q464 285 362 332Q256 287 256 215Q256 130 406 130H687ZM592 368Q808 368 808 662T597 956Q429
956 398 772Q388 717 388 655Q388 445 490 390Q530 368 592 368ZM293 -284Q293 -477 622 -477Q790 -477 882 -417T975 -267Q975 -143 856 -95Q813 -78 751 -78H446Q378 -96 336 -152T293 -284Z" />
<glyph unicode="h" glyph-name="h" horiz-adv-x="1363" d="M55 78H217V1606H45V1684H477V899Q623 1040 821 1040Q954 1040 1058 972Q1190 884 1190 692V78H1352V0H768V78H930V712Q930 829 906 871T851 929T758 945T617 907T477 793V78H639V0H55V78Z" />
<glyph unicode="i" glyph-name="i" horiz-adv-x="683" d="M413 1227T356 1227T258 1266T217 1350Q217 1424 257 1464T355 1504Q447 1504 482 1420Q493 1395 493 1366Q493 1307 453 1267ZM61 78H223V945H75V1023H488V78H650V0H61V78Z" />
<glyph unicode="j" glyph-name="j" horiz-adv-x="683" d="M426 1227T369 1227T271 1266T230 1350Q230 1424 270 1464T368 1504Q460 1504 496 1420Q506 1395 506 1366Q506 1306 466 1267ZM233 945H86V1023H498V-45Q498 -410 276 -518Q191 -560 83 -560L63 -484Q119
-484 152 -459T209 -358T233 7V945Z" />
<glyph unicode="k" glyph-name="k" horiz-adv-x="1367" d="M59 78H212V1606H59V1684H472V516L978 946H792V1023H1238V946H1107L784 676L1200 78H1337V0H762V78H903L601 523L472 415V78H620V0H59V78Z" />
<glyph unicode="l" glyph-name="l" horiz-adv-x="683" d="M60 78H216V1605H53V1684H481V78H649V0H60V78Z" />
<glyph unicode="m" glyph-name="m" horiz-adv-x="2042" d="M752 944Q598 944 482 807V78H645V0H60V78H222V947H59V1023H482V909Q625 1040 791 1040T1063 949Q1101 916 1126 867Q1284 1040 1485 1040Q1618 1040 1722 972Q1854 884 1854 692V78H2017V0H1422V78H1594V722Q1594
831 1568 872T1512 928T1436 944Q1349 944 1276 900T1155 783Q1162 741 1162 706V78H1325V0H740V78H902V729Q902 834 879 873T827 928T752 944Z" />
<glyph unicode="n" glyph-name="n" horiz-adv-x="1365" d="M774 945Q611 945 479 794V78H661V0H57V78H219V945H56V1023H479V895Q629 1040 822 1040Q955 1040 1058 972Q1191 884 1191 692V78H1353V0H749V78H931V712Q931 829 907 871T852 929T774 945Z" />
<glyph unicode="o" glyph-name="o" horiz-adv-x="1194" d="M72 748T222 894T599 1040T974 895T1122 513T976 128T600 -20T222 128T72 512ZM597 63Q799 63 834 338Q844 420 844 514Q844 725 796 830Q737 956 597 956Q395 956 360 690Q350 609 350 514Q350 302 398
194Q458 63 597 63Z" />
<glyph unicode="p" glyph-name="p" horiz-adv-x="1365" d="M470 914Q586 1040 824 1040Q903 1040 988 1010T1138 914Q1278 773 1278 520T1133 124T779 -20Q645 -20 532 35Q497 52 470 73V-482H651V-560H60V-482H210V943H50V1023H470V914ZM737 66Q998 66 998 506Q998
833 857 918Q808 948 732 947T586 904T470 793V180Q545 99 667 74Q703 66 737 66Z" />
<glyph unicode="q" glyph-name="q" horiz-adv-x="1365" d="M910 104Q792 -20 556 -20Q479 -20 394 10T244 106T142 271T104 504Q104 753 249 896T603 1040Q735 1040 848 986Q883 969 910 948V1023H1318V945H1170V-482H1320V-560H729V-482H910V104ZM645 954Q384
954 384 514Q384 187 525 102Q574 72 649 72T794 114T910 224V842Q833 922 714 946Q678 954 645 954Z" />
<glyph unicode="r" glyph-name="r" horiz-adv-x="1024" d="M498 885Q659 1040 846 1040Q906 1040 952 1000T998 898T959 796T864 757Q808 757 770 795T731 891Q731 914 739 938Q594 894 498 789V77H717V0H87V77H236V945H86V1023H498V885Z" />
<glyph unicode="s" glyph-name="s" horiz-adv-x="1024" d="M267 73Q235 51 231 0H135L139 301H231Q231 224 327 143T572 62T760 148Q771 173 771 200Q771 250 703 292T478 390T231 534T141 750T255 959T518 1040T759 966Q787 975 803 1010Q809 1022 809 1039H885V760H797Q780
854 707 906T534 959T382 921T328 827T389 727T563 642T740 572Q945 473 945 286T735 13Q653 -20 568 -20Q391 -20 267 73Z" />
<glyph unicode="t" glyph-name="t" horiz-adv-x="853" d="M535 -20Q178 -20 178 312V945H57V1023H178V1329Q269 1329 400 1376Q430 1387 443 1395V1023H772V945H443V240Q443 148 481 108T584 67Q684 67 764 156L817 109Q745 20 621 -10Q580 -20 535 -20Z" />
<glyph unicode="u" glyph-name="u" horiz-adv-x="1366" d="M888 98Q755 -20 601 -20T339 42Q191 129 191 333V945H49V1023H451V287Q451 76 646 76Q781 76 888 200V945H715V1023H1146V78H1275V0H888V98Z" />
<glyph unicode="v" glyph-name="v" horiz-adv-x="1195" d="M103 945H-1V1023H526V945H397L697 258L967 945H832V1023H1196V945H1066L670 -20H565L103 945Z" />
<glyph unicode="w" glyph-name="w" horiz-adv-x="1706" d="M69 945H0V1023H472V945H352L629 315L913 1023H983L1301 317L1539 945H1393V1023H1739V945H1628L1263 -20H1183L862 673L584 -20H505L69 945Z" />
<glyph unicode="x" glyph-name="x" horiz-adv-x="1195" d="M48 78H188L501 450L130 945H31V1023H565V945H422L658 633L915 945H776V1023H1140V945H1026L709 566L1080 78H1181V0H652V78H780L552 383L300 78H433V0H48V78Z" />
<glyph unicode="y" glyph-name="y" horiz-adv-x="1195" d="M120 -294T144 -284T215 -273T295 -308T329 -386T304 -462Q342 -456 381 -404T473 -242L565 -20L103 945H-4V1023H535V945H396L698 259L968 945H793V1023H1168V945H1066L670 -20L549 -292Q478 -433 429
-480T339 -543T256 -560Q175 -560 121 -516T67 -410T93 -322Z" />
<glyph unicode="z" glyph-name="z" horiz-adv-x="1024" d="M81 78L657 947H433Q307 947 257 887T184 696H113V1023H939V946L369 76H648Q790 76 843 144Q880 192 894 317H963V0H81V78Z" />
<glyph unicode="{" glyph-name="braceleft" horiz-adv-x="1024" d="M907 1701Q630 1640 630 1352Q630 1300 634 1251L641 1150Q652 1009 652 966Q652 641 327 605V597Q652 556 652 206Q652 173 648 128L634 -56Q630 -100 630 -150Q630 -435 907 -497L887 -560Q635
-520 512 -370Q415 -253 415 -90L438 262Q438 401 390 462Q324 547 141 567V635Q402 664 430 810Q438 856 438 910L415 1294Q415 1556 657 1690Q748 1741 887 1764L907 1701Z" />
<glyph unicode="|" glyph-name="bar" horiz-adv-x="512" d="M192 1686H320V-300H192V1686Z" />
<glyph unicode="}" glyph-name="braceright" horiz-adv-x="1024" d="M117 1701Q394 1640 394 1352Q394 1300 390 1251L383 1150Q372 1009 372 966Q372 641 697 605V597Q372 556 372 206Q372 173 376 128L390 -56Q394 -100 394 -150Q394 -435 117 -497L137 -560Q389
-520 512 -370Q609 -253 609 -90L586 262Q586 401 634 462Q700 547 883 567V635Q622 664 594 810Q586 856 586 910L609 1294Q609 1556 367 1690Q276 1741 137 1764L117 1701Z" />
<glyph unicode="~" glyph-name="asciitilde" horiz-adv-x="1236" d="M1022 850Q911 614 761 614Q683 614 595 649T460 701T371 717T294 689T223 621L181 651Q237 751 276 794Q356 882 425 882T545 867T644 833L736 800Q781 784 818 784Q880 784 914 808T978 875L1022
850Z" />
<glyph unicode="&#xa0;" glyph-name="nbspace" horiz-adv-x="682" />
<glyph unicode="&#xa1;" glyph-name="exclamdown" horiz-adv-x="852" d="M584 72Q587 57 587 30Q587 -31 539 -77T426 -124Q361 -124 313 -78T265 38Q265 57 268 72L379 1114H473L584 72ZM585 1420Q585 1313 489 1271Q460 1259 426 1259Q358 1259 312 1305Q266
1351 266 1419T311 1533T425 1579T539 1534T585 1420Z" />
<glyph unicode="&#xa2;" glyph-name="cent" horiz-adv-x="1197" d="M748 76Q930 76 1042 192L1094 144Q1011 38 853 -4Q795 -20 756 -20H712Q705 -20 698 -19L680 -255H602L620 -12Q414 17 289 157T163 526T317 895T710 1040L730 1255H809L789 1035Q989 1013 1066
898Q1093 857 1093 816Q1093 745 1055 703T974 661Q903 661 864 698T825 791Q825 881 900 917Q885 928 841 941T727 955Q439 955 439 514Q439 198 613 106Q671 76 748 76Z" />
<glyph unicode="&#xa3;" glyph-name="sterling" horiz-adv-x="1367" d="M604 601L605 578Q605 480 582 430T500 332Q565 324 622 300Q622 300 736 252Q880 186 970 186Q1051 186 1154 320L1187 363L1250 316L1212 250Q1053 -22 901 -22Q820 -22 747 2T604 55T465
108T346 132T269 117Q219 89 162 30L115 -22L56 23Q96 84 178 166Q356 373 343 559L339 601H40L47 679H331L305 850H60L67 928H295Q263 1178 322 1308Q358 1388 420 1440Q542 1545 722 1545T1003 1468T1104 1281Q1104 1224 1066 1186T978 1148T892 1181T855 1254Q855
1320 887 1352T961 1388Q945 1421 893 1443T769 1466Q540 1466 545 1120Q545 1057 563 928H898L891 850H575L588 764Q595 721 599 679H878L871 601H604Z" />
<glyph unicode="&#xa4;" glyph-name="currency" horiz-adv-x="1368" d="M904 263Q803 198 683 198T462 265L308 112L208 212L359 363Q282 472 282 601T361 840L210 992L310 1093L464 938Q566 1004 684 1004T905 938L1060 1093L1160 992L1008 840Q1088 733 1088
600T1008 360L1159 209L1059 108L904 263ZM684 868Q574 868 499 789T423 601T498 412T684 333Q794 333 870 411T947 600T871 789T684 868Z" />
<glyph unicode="&#xa5;" glyph-name="yen" horiz-adv-x="1539" d="M242 418H649L650 589L643 601H255L262 679H596L135 1452H10V1530H654V1452H451L863 733L1266 1452H1082V1530H1524V1452H1374L934 679H1303L1296 601H919V418H1283L1276 340H919V78H1068V0H501V78H649V340H235L242
418Z" />
<glyph unicode="&#xa6;" glyph-name="brokenbar" horiz-adv-x="512" d="M194 1684H322V820H194V1684ZM192 528H320V-300H192V528Z" />
<glyph unicode="&#xa7;" glyph-name="section" horiz-adv-x="1366" d="M275 -204Q234 -250 234 -320H145V88H248Q287 -67 407 -162T699 -257Q924 -257 1000 -152Q1026 -117 1026 -72Q1026 23 951 88T688 216T404 331T253 442Q156 546 156 695T250 936T506 1062Q219
1186 172 1365Q156 1423 156 1501T198 1650T314 1770Q466 1871 691 1871T1032 1775Q1056 1808 1058 1851H1151V1479H1055Q1040 1629 935 1708T687 1788T451 1739T358 1600T440 1440T785 1263Q1027 1176 1123 1085T1220 862Q1220 694 1117 591T841 461Q1053 379
1136 293T1220 92Q1220 -116 1071 -228T710 -340T350 -256Q305 -231 275 -204ZM709 524Q928 524 1002 629Q1026 664 1026 709Q1026 804 952 868T654 1006Q526 1002 442 954T358 821T422 673T683 524H709Z" />
<glyph unicode="&#xa8;" glyph-name="dieresis" horiz-adv-x="1019" d="M861 1377Q861 1285 785 1254Q762 1244 736 1244Q687 1244 651 1278T614 1352Q614 1416 650 1452Q687 1487 724 1487Q789 1487 825 1451T861 1377ZM405 1377Q405 1285 329 1254Q306 1244
280 1244Q231 1244 195 1278T158 1352Q158 1416 194 1452Q231 1487 268 1487Q333 1487 369 1451T405 1377Z" />
<glyph unicode="&#xa9;" glyph-name="copyright" horiz-adv-x="2243" d="M2124 515Q2124 248 1992 23T1633 -335T1138 -468T645 -336T287 21T155 514T287 1009T645 1368T1138 1501T1632 1369T1991 1009T2124 515ZM261 512Q261 141 514 -122Q594 -205 692 -264Q896
-386 1139 -386T1583 -266T1900 60Q2017 266 2017 511T1900 965T1583 1295T1140 1417T695 1295T378 965T261 512ZM1206 1040Q1362 1040 1463 945Q1484 977 1490 1023H1580V720H1490Q1472 800 1397 860T1233 921T1092 890Q936 796 936 516T1084 136Q1140 98 1204
98Q1307 98 1381 149T1487 270L1573 219Q1517 66 1339 4Q1273 -19 1164 -19T950 22T773 136Q625 284 625 509T775 887T1206 1040Z" />
<glyph unicode="&#xaa;" glyph-name="ordfeminine" horiz-adv-x="1028" d="M649 1114Q567 1040 427 1040Q331 1040 267 1092T203 1223T273 1352T450 1402T633 1361V1502Q633 1570 610 1593Q566 1635 495 1635T377 1617Q430 1596 430 1552T400 1481T338 1455Q285
1455 256 1479T226 1542Q226 1611 317 1653T505 1696Q665 1696 741 1640T818 1487V1161Q818 1112 845 1112T894 1137L934 1103Q914 1077 873 1059T787 1040Q685 1040 649 1114ZM505 1334Q392 1334 392 1223Q392 1142 464 1116Q483 1109 502 1109Q575 1109 635 1186V1282Q574
1334 505 1334Z" />
<glyph unicode="&#xab;" glyph-name="guillemotleft" horiz-adv-x="1705" d="M218 538Q510 715 626 804T812 956L858 906Q772 787 681 688L505 499L681 310Q772 211 858 91L812 41Q741 101 665 158Q468 299 377 357L218 459V538ZM848 538Q1140 715 1256 804T1442
956L1488 906Q1402 787 1311 688L1135 499L1311 310Q1402 211 1488 91L1442 41Q1371 101 1295 158Q1098 299 1007 357L848 459V538Z" />
<glyph unicode="&#xac;" glyph-name="logicalnot" horiz-adv-x="1536" d="M310 645H1179V227H1075V545H310V645Z" />
<glyph unicode="&#xad;" glyph-name="uni00AD" horiz-adv-x="1229" />
<glyph unicode="&#xae;" glyph-name="registered" horiz-adv-x="1695" d="M1644 1146Q1644 926 1537 741T1245 448T843 339T439 447T147 741T39 1146Q39 1366 148 1555Q311 1838 628 1927Q730 1956 841 1956T1056 1927T1248 1846Q1429 1739 1536 1553T1644 1146ZM136
1145Q136 844 341 633T843 421T1344 633T1548 1145T1344 1658Q1216 1793 1033 1846Q942 1873 843 1873T652 1847T482 1772Q324 1677 230 1510T136 1145ZM1205 1330Q1205 1162 1003 1105Q1131 1073 1167 936Q1189 854 1211 831T1269 808H1294V734H1180Q1082 734
1056 755T1018 804T999 869Q979 961 946 1004Q894 1076 788 1076H676V815H822V737H405V815H502L503 1499H419V1577H828Q1111 1577 1182 1432Q1205 1385 1205 1330ZM819 1151Q928 1151 973 1201T1019 1303Q1019 1402 974 1450T809 1499H676V1151H819Z" />
<glyph unicode="&#xaf;" glyph-name="overscore" horiz-adv-x="1707" d="M505 1414H1162V1291H505V1414Z" />
<glyph unicode="&#xb0;" glyph-name="degree" horiz-adv-x="1028" d="M373 1023T271 1116T169 1360T271 1603T516 1696T758 1603T859 1360T760 1117T517 1023ZM515 1126Q618 1126 669 1196T720 1361Q720 1513 611 1572Q572 1593 515 1593Q410 1593 359 1524T308
1361Q308 1210 418 1148Q458 1126 515 1126Z" />
<glyph unicode="&#xb1;" glyph-name="plusminus" horiz-adv-x="1536" d="M270 100H716V545H270V645H716V1114H820V645H1266V545H820V100H1266V0H270V100Z" />
<glyph unicode="&#xb2;" glyph-name="twosuperior" horiz-adv-x="854" d="M382 1694Q683 1694 683 1476Q683 1344 484 1202Q417 1154 330 1102H610Q652 1102 667 1170H719V963H153V1018L274 1118Q508 1311 508 1485Q508 1593 423 1624Q398 1633 358 1633T282 1613Q328
1595 328 1541T280 1462Q263 1453 240 1453Q194 1453 171 1479T147 1544Q147 1615 227 1654T382 1694Z" />
<glyph unicode="&#xb3;" glyph-name="threesuperior" horiz-adv-x="854" d="M283 1615Q326 1596 326 1543T277 1462Q261 1454 238 1454Q193 1454 169 1484T145 1552Q145 1624 232 1663Q301 1694 390 1694Q541 1694 606 1648T672 1535Q672 1411 521 1354Q601 1350
657 1303T714 1174T632 1024T410 956Q220 956 148 1039Q122 1069 122 1096Q122 1141 145 1169T204 1197Q256 1197 279 1169T303 1100T266 1038Q313 1021 357 1021Q438 1021 491 1067T545 1175Q545 1263 444 1296Q411 1306 370 1306T286 1296L285 1350Q454 1361
495 1470Q506 1499 506 1537T469 1605T376 1634T283 1615Z" />
<glyph unicode="&#xb4;" glyph-name="acute" horiz-adv-x="1707" d="M528 1218L748 1552Q787 1610 825 1615Q889 1623 926 1595T966 1527Q972 1443 913 1406L559 1184L528 1218Z" />
<glyph unicode="&#xb5;" glyph-name="mu" horiz-adv-x="1366" d="M830 96Q705 -20 550 -20T294 91Q349 -161 445 -387Q451 -405 451 -427Q451 -476 409 -518T331 -560Q268 -560 226 -530T184 -441V1023H444V297Q444 76 614 76Q724 76 826 193V1023H1084V320Q1084
113 1184 113Q1204 113 1243 127L1266 65Q1118 -20 985 -20T830 96Z" />
<glyph unicode="&#xb6;" glyph-name="paragraph" horiz-adv-x="1707" d="M798 666Q529 668 375 806T220 1182T382 1552T804 1684H1520V1606H1349V-302H1189L1190 1606H958V-302H798V666Z" />
<glyph unicode="&#xb7;" glyph-name="middot" horiz-adv-x="683" d="M501 699T456 654T342 608T228 653T182 767Q182 874 278 916Q307 928 341 928Q409 928 455 882T501 768Z" />
<glyph unicode="&#xb8;" glyph-name="cedilla" horiz-adv-x="1707" d="M673 -332Q673 -247 527 -247Q519 -247 508 -248H484Q462 -249 438 -252L493 17L586 14L559 -127Q568 -126 577 -126H596Q763 -126 826 -207Q850 -239 850 -286T829 -369T773 -436Q704 -494
596 -527T394 -560L386 -485Q569 -471 643 -402Q673 -374 673 -332Z" />
<glyph unicode="&#xb9;" glyph-name="onesuperior" horiz-adv-x="854" d="M205 1022H323V1617L210 1619V1673L509 1683V1022H642V963H205V1022Z" />
<glyph unicode="&#xba;" glyph-name="ordmasculine" horiz-adv-x="1028" d="M356 1040T254 1133T151 1370T255 1605T514 1696T773 1606T876 1371T775 1133T515 1040ZM362 1372Q362 1102 513 1102T664 1372Q664 1495 634 1557Q599 1633 514 1633Q390 1633 368 1474Q362
1426 362 1372Z" />
<glyph unicode="&#xbb;" glyph-name="guillemotright" horiz-adv-x="1700" d="M857 538Q565 715 449 804T263 956L217 906Q303 787 394 688L570 499L394 310Q303 211 217 91L263 41Q334 101 410 158Q607 299 698 357L857 459V538ZM1483 538Q1191 715 1075 804T889
956L843 906Q929 787 1020 688L1196 499L1020 310Q929 211 843 91L889 41Q960 101 1036 158Q1233 299 1324 357L1483 459V538Z" />
<glyph unicode="&#xbc;" glyph-name="onequarter" horiz-adv-x="1712" d="M893 238L1245 719H1405V238H1542L1510 174H1404V58H1522V-1H1085V58H1218V174H893V238ZM1218 238V571L975 238H1218ZM231 889H349V1484L236 1486V1540L535 1550V889H668V830H231V889ZM1377
1530H1476L341 0H239L1377 1530Z" />
<glyph unicode="&#xbd;" glyph-name="onehalf" horiz-adv-x="1707" d="M213 891H331V1486L218 1488V1542L517 1552V891H650V832H213V891ZM1218 731Q1519 731 1519 513Q1519 381 1320 239Q1253 191 1166 139H1446Q1488 139 1503 207H1555V0H989V55L1110 155Q1344
348 1344 522Q1344 630 1259 661Q1234 670 1194 670T1118 650Q1164 632 1164 578T1116 499Q1099 490 1076 490Q1030 490 1007 516T983 581Q983 652 1063 691T1218 731ZM1377 1530H1476L341 0H239L1377 1530Z" />
<glyph unicode="&#xbe;" glyph-name="threequarters" horiz-adv-x="1712" d="M893 238L1245 719H1405V238H1542L1510 174H1404V58H1522V-1H1085V58H1218V174H893V238ZM1218 238V571L975 238H1218ZM319 1201Q540 1215 540 1388Q540 1427 503 1456T410 1485T317
1466Q360 1447 360 1394T311 1314Q295 1305 272 1305Q226 1305 203 1335T179 1402Q179 1475 266 1514Q335 1545 424 1545Q574 1545 640 1499T706 1386Q706 1262 555 1205Q635 1201 691 1154T748 1025T666 875T444 807Q254 807 182 890Q156 920 156 948Q156 992
179 1020T238 1048Q290 1048 313 1020T337 951T300 889Q347 872 391 872Q472 872 525 918T579 1026Q579 1114 478 1146Q445 1157 404 1157T320 1147L319 1201ZM1377 1530H1476L341 0H239L1377 1530Z" />
<glyph unicode="&#xbf;" glyph-name="questiondown" horiz-adv-x="1364" d="M855 807Q645 736 520 581T395 241Q395 105 480 22T735 -61T1002 55Q950 70 918 113T885 203Q885 282 931 330T1048 378T1166 331T1214 214V203Q1214 198 1213 193Q1213 134 1175 74T1071
-36Q921 -147 697 -147T310 -30T146 278Q146 557 414 731Q523 801 645 827L698 1110H795L855 807ZM904 1416Q904 1309 808 1267Q779 1255 745 1255Q677 1255 631 1301T585 1415T630 1529T744 1575T858 1530T904 1416Z" />
<glyph unicode="&#xc0;" glyph-name="Agrave" horiz-adv-x="1534" d="M21 78H129L693 1530H809L1412 78H1514V0H969V78H1119L975 427H368L236 78H416V0H21V78ZM943 505L659 1196L398 505H943ZM472 1774Q407 1796 394 1856T409 1954T479 1997T543 1993T593 1959L892
1692L871 1651L472 1774Z" />
<glyph unicode="&#xc1;" glyph-name="Aacute" horiz-adv-x="1534" d="M21 78H129L693 1530H809L1412 78H1514V0H969V78H1119L975 427H368L236 78H416V0H21V78ZM943 505L659 1196L398 505H943ZM627 1679L916 1956Q970 2005 1007 2001Q1070 1993 1100 1958T1123
1882Q1110 1800 1044 1776L649 1639L627 1679Z" />
<glyph unicode="&#xc2;" glyph-name="Acircumflex" horiz-adv-x="1534" d="M21 78H129L693 1530H809L1412 78H1514V0H969V78H1119L975 427H368L236 78H416V0H21V78ZM943 505L659 1196L398 505H943ZM382 1646L645 1936Q703 2000 738 2000T791 1992Q823 1979 850
1950L1116 1647L1088 1610L754 1794L410 1610L382 1646Z" />
<glyph unicode="&#xc3;" glyph-name="Atilde" horiz-adv-x="1534" d="M21 78H129L693 1530H809L1412 78H1514V0H969V78H1119L975 427H368L236 78H416V0H21V78ZM943 505L659 1196L398 505H943ZM379 1734Q435 1834 474 1877Q554 1965 623 1965T762 1932L865 1882Q899
1867 935 1867T1004 1891T1073 1956L1119 1923Q1063 1823 1024 1780Q944 1692 863 1692Q807 1689 740 1723T637 1774T564 1790T494 1766T425 1701L379 1734Z" />
<glyph unicode="&#xc4;" glyph-name="Adieresis" horiz-adv-x="1534" d="M21 78H129L693 1530H809L1412 78H1514V0H969V78H1119L975 427H368L236 78H416V0H21V78ZM943 505L659 1196L398 505H943ZM1078 1834Q1078 1740 1002 1708Q979 1699 953 1699Q903 1699 867
1735T831 1809Q831 1874 868 1910T942 1946Q1005 1946 1041 1910T1078 1834ZM662 1834Q662 1740 586 1708Q563 1699 537 1699Q487 1699 451 1735T415 1809Q415 1874 452 1910T526 1946Q589 1946 625 1910T662 1834Z" />
<glyph unicode="&#xc5;" glyph-name="Aring" horiz-adv-x="1534" d="M21 78H129L693 1530H809L1412 78H1514V0H969V78H1119L975 427H368L236 78H416V0H21V78ZM943 505L659 1196L398 505H943ZM663 1627T601 1678T539 1811T601 1945Q663 1996 756 1996T910 1945T971
1812T911 1678T757 1627ZM657 1943T657 1811T755 1679T854 1811T756 1943Z" />
<glyph unicode="&#xc6;" glyph-name="AE" horiz-adv-x="2218" d="M871 1452H748V1530H2041V1094H1963Q1958 1177 1949 1241T1912 1351Q1853 1443 1675 1452H1228V803H1468Q1553 803 1598 830T1654 927Q1656 947 1657 969T1661 1014H1745V498H1661Q1659 521 1658
551T1654 601Q1644 670 1598 697T1468 725H1228V78H1646Q1909 78 1965 321Q1981 391 1986 465H2064V0H748V79H958V725H541L154 78H340V0H-109V78H37L871 1452ZM958 804L959 1422L589 804H958Z" />
<glyph unicode="&#xc7;" glyph-name="Ccedilla" horiz-adv-x="1534" d="M932 -332Q932 -247 786 -247Q778 -247 766 -248H742Q721 -249 697 -252L746 -12Q445 28 271 241T96 779T305 1326T888 1550Q1090 1550 1240 1468Q1282 1445 1307 1422Q1347 1469 1349 1530H1431V1111H1346Q1317
1277 1188 1372T906 1467Q400 1467 404 760Q407 479 516 293Q642 78 882 78Q1065 78 1191 142T1390 317L1442 269Q1404 178 1284 95Q1119 -20 870 -20Q862 -20 854 -20T838 -19L818 -127Q827 -126 836 -126H855Q1022 -126 1084 -207Q1109 -239 1109 -286T1088 -369T1032
-436Q963 -494 855 -527T653 -560L645 -485Q828 -471 902 -402Q932 -374 932 -332Z" />
<glyph unicode="&#xc8;" glyph-name="Egrave" horiz-adv-x="1535" d="M71 79H271L272 1452H71V1530H1364V1094H1286Q1281 1177 1272 1241T1234 1351Q1176 1443 998 1452H541V824H791Q876 824 921 851T977 948Q979 968 980 990T984 1035H1068V519H984Q982 542 981
572T977 622Q967 691 921 718T791 746H541V78H969Q1232 78 1288 321Q1304 391 1309 465H1387V0H71V79ZM524 1774Q459 1796 446 1856T461 1954T531 1997T595 1993T645 1959L944 1692L923 1651L524 1774Z" />
<glyph unicode="&#xc9;" glyph-name="Eacute" horiz-adv-x="1535" d="M71 79H271L272 1452H71V1530H1364V1094H1286Q1281 1177 1272 1241T1234 1351Q1176 1443 998 1452H541V824H791Q876 824 921 851T977 948Q979 968 980 990T984 1035H1068V519H984Q982 542 981
572T977 622Q967 691 921 718T791 746H541V78H969Q1232 78 1288 321Q1304 391 1309 465H1387V0H71V79ZM680 1679L969 1956Q1023 2005 1060 2001Q1123 1993 1153 1958T1176 1882Q1163 1800 1097 1776L702 1639L680 1679Z" />
<glyph unicode="&#xca;" glyph-name="Ecircumflex" horiz-adv-x="1535" d="M71 79H271L272 1452H71V1530H1364V1094H1286Q1281 1177 1272 1241T1234 1351Q1176 1443 998 1452H541V824H791Q876 824 921 851T977 948Q979 968 980 990T984 1035H1068V519H984Q982
542 981 572T977 622Q967 691 921 718T791 746H541V78H969Q1232 78 1288 321Q1304 391 1309 465H1387V0H71V79ZM435 1646L698 1936Q756 2000 791 2000T844 1992Q876 1979 903 1950L1169 1647L1141 1610L807 1794L463 1610L435 1646Z" />
<glyph unicode="&#xcb;" glyph-name="Edieresis" horiz-adv-x="1535" d="M71 79H271L272 1452H71V1530H1364V1094H1286Q1281 1177 1272 1241T1234 1351Q1176 1443 998 1452H541V824H791Q876 824 921 851T977 948Q979 968 980 990T984 1035H1068V519H984Q982 542
981 572T977 622Q967 691 921 718T791 746H541V78H969Q1232 78 1288 321Q1304 391 1309 465H1387V0H71V79ZM1131 1834Q1131 1740 1055 1708Q1032 1699 1006 1699Q956 1699 920 1735T884 1809Q884 1874 921 1910T995 1946Q1058 1946 1094 1910T1131 1834ZM715 1834Q715
1740 639 1708Q616 1699 590 1699Q540 1699 504 1735T468 1809Q468 1874 505 1910T579 1946Q642 1946 678 1910T715 1834Z" />
<glyph unicode="&#xcc;" glyph-name="Igrave" horiz-adv-x="854" d="M95 78H292L293 1452H95V1530H759V1452H562V78H759V0H95V78ZM145 1774Q80 1796 67 1856T82 1954T152 1997T216 1993T266 1959L565 1692L544 1651L145 1774Z" />
<glyph unicode="&#xcd;" glyph-name="Iacute" horiz-adv-x="854" d="M95 78H292L293 1452H95V1530H759V1452H562V78H759V0H95V78ZM301 1679L590 1956Q644 2005 681 2001Q744 1993 774 1958T797 1882Q784 1800 718 1776L323 1639L301 1679Z" />
<glyph unicode="&#xce;" glyph-name="Icircumflex" horiz-adv-x="854" d="M95 78H292L293 1452H95V1530H759V1452H562V78H759V0H95V78ZM56 1646L319 1936Q377 2000 412 2000T465 1992Q497 1979 524 1950L790 1647L762 1610L428 1794L84 1610L56 1646Z" />
<glyph unicode="&#xcf;" glyph-name="Idieresis" horiz-adv-x="854" d="M95 78H292L293 1452H95V1530H759V1452H562V78H759V0H95V78ZM752 1834Q752 1740 676 1708Q653 1699 627 1699Q577 1699 541 1735T505 1809Q505 1874 542 1910T616 1946Q679 1946 715 1910T752
1834ZM336 1834Q336 1740 260 1708Q237 1699 211 1699Q161 1699 125 1735T89 1809Q89 1874 126 1910T200 1946Q263 1946 299 1910T336 1834Z" />
<glyph unicode="&#xd0;" glyph-name="Eth" horiz-adv-x="1707" d="M83 78H283V735H113V813H283L284 1452H83V1530H757Q1360 1530 1537 1149Q1610 992 1610 777Q1610 491 1444 278Q1310 107 1055 37Q921 0 743 0H83V78ZM731 78Q1046 78 1182 235T1318 770V801Q1312
1163 1173 1307T744 1452H553V813H943V735H553V78H731Z" />
<glyph unicode="&#xd1;" glyph-name="Ntilde" horiz-adv-x="1707" d="M93 78H267V1452H93V1530H546L1356 325V1452H1162V1530H1637V1452H1454V0H1268L365 1327V78H568V0H93V78ZM526 1734Q582 1834 621 1877Q701 1965 770 1965T909 1932L1012 1882Q1046 1867 1082
1867T1151 1891T1220 1956L1266 1923Q1210 1823 1171 1780Q1091 1692 1010 1692Q954 1689 887 1723T784 1774T711 1790T641 1766T572 1701L526 1734Z" />
<glyph unicode="&#xd2;" glyph-name="Ograve" horiz-adv-x="1711" d="M141 467T120 565T98 764T119 961T183 1145Q271 1328 442 1439T855 1550Q1221 1550 1428 1306Q1613 1086 1613 762T1426 218Q1298 68 1089 10Q983 -20 857 -20T625 9T436 92T289 218T183 379ZM1216
296Q1254 365 1289 481T1325 724T1314 937T1278 1100Q1225 1266 1120 1366T855 1467Q607 1467 486 1245Q383 1054 386 771T490 296Q614 63 851 63T1216 296ZM571 1774Q506 1796 493 1856T508 1954T578 1997T642 1993T692 1959L991 1692L970 1651L571 1774Z" />
<glyph unicode="&#xd3;" glyph-name="Oacute" horiz-adv-x="1711" d="M141 467T120 565T98 764T119 961T183 1145Q271 1328 442 1439T855 1550Q1221 1550 1428 1306Q1613 1086 1613 762T1426 218Q1298 68 1089 10Q983 -20 857 -20T625 9T436 92T289 218T183 379ZM1216
296Q1254 365 1289 481T1325 724T1314 937T1278 1100Q1225 1266 1120 1366T855 1467Q607 1467 486 1245Q383 1054 386 771T490 296Q614 63 851 63T1216 296ZM727 1679L1016 1956Q1070 2005 1107 2001Q1170 1993 1200 1958T1223 1882Q1210 1800 1144 1776L749 1639L727
1679Z" />
<glyph unicode="&#xd4;" glyph-name="Ocircumflex" horiz-adv-x="1711" d="M141 467T120 565T98 764T119 961T183 1145Q271 1328 442 1439T855 1550Q1221 1550 1428 1306Q1613 1086 1613 762T1426 218Q1298 68 1089 10Q983 -20 857 -20T625 9T436 92T289 218T183
379ZM1216 296Q1254 365 1289 481T1325 724T1314 937T1278 1100Q1225 1266 1120 1366T855 1467Q607 1467 486 1245Q383 1054 386 771T490 296Q614 63 851 63T1216 296ZM482 1646L745 1936Q803 2000 838 2000T891 1992Q923 1979 950 1950L1216 1647L1188 1610L854
1794L510 1610L482 1646Z" />
<glyph unicode="&#xd5;" glyph-name="Otilde" horiz-adv-x="1711" d="M141 467T120 565T98 764T119 961T183 1145Q271 1328 442 1439T855 1550Q1221 1550 1428 1306Q1613 1086 1613 762T1426 218Q1298 68 1089 10Q983 -20 857 -20T625 9T436 92T289 218T183 379ZM1216
296Q1254 365 1289 481T1325 724T1314 937T1278 1100Q1225 1266 1120 1366T855 1467Q607 1467 486 1245Q383 1054 386 771T490 296Q614 63 851 63T1216 296ZM479 1734Q535 1834 574 1877Q654 1965 723 1965T862 1932L965 1882Q999 1867 1035 1867T1104 1891T1173
1956L1219 1923Q1163 1823 1124 1780Q1044 1692 963 1692Q907 1689 840 1723T737 1774T664 1790T594 1766T525 1701L479 1734Z" />
<glyph unicode="&#xd6;" glyph-name="Odieresis" horiz-adv-x="1711" d="M141 467T120 565T98 764T119 961T183 1145Q271 1328 442 1439T855 1550Q1221 1550 1428 1306Q1613 1086 1613 762T1426 218Q1298 68 1089 10Q983 -20 857 -20T625 9T436 92T289 218T183
379ZM1216 296Q1254 365 1289 481T1325 724T1314 937T1278 1100Q1225 1266 1120 1366T855 1467Q607 1467 486 1245Q383 1054 386 771T490 296Q614 63 851 63T1216 296ZM1178 1834Q1178 1740 1102 1708Q1079 1699 1053 1699Q1003 1699 967 1735T931 1809Q931 1874
968 1910T1042 1946Q1105 1946 1141 1910T1178 1834ZM762 1834Q762 1740 686 1708Q663 1699 637 1699Q587 1699 551 1735T515 1809Q515 1874 552 1910T626 1946Q689 1946 725 1910T762 1834Z" />
<glyph unicode="&#xd7;" glyph-name="multiply" horiz-adv-x="1536" d="M697 544L381 860L452 931L768 615L1085 931L1156 860L839 544L1156 228L1086 156L768 473L451 156L381 228L697 544Z" />
<glyph unicode="&#xd8;" glyph-name="Oslash" horiz-adv-x="1711" d="M855 -20Q573 -20 381 130L266 -9L174 69L296 210Q98 428 98 756T288 1306Q498 1550 855 1550Q1130 1550 1322 1405L1433 1540L1525 1462L1408 1327Q1613 1106 1613 772T1426 218Q1298 68 1089
10Q983 -20 855 -20ZM1200 1269Q1072 1467 855 1467Q607 1467 486 1245Q383 1054 386 767Q388 550 452 379L807 790L1200 1269ZM505 269Q630 63 859 63T1216 296Q1325 494 1325 740T1256 1159L879 722L505 269Z" />
<glyph unicode="&#xd9;" glyph-name="Ugrave" horiz-adv-x="1539" d="M183 1452H46V1530H598V1452H452V525Q452 162 656 95Q724 73 788 73T900 79T995 102Q1100 142 1167 246T1235 543V1452H1079V1530H1479V1452H1333V529Q1333 252 1189 116T798 -20Q333 -20 214
332Q182 426 182 559L183 1452ZM520 1774Q455 1796 442 1856T457 1954T527 1997T591 1993T641 1959L940 1692L919 1651L520 1774Z" />
<glyph unicode="&#xda;" glyph-name="Uacute" horiz-adv-x="1539" d="M183 1452H46V1530H598V1452H452V525Q452 162 656 95Q724 73 788 73T900 79T995 102Q1100 142 1167 246T1235 543V1452H1079V1530H1479V1452H1333V529Q1333 252 1189 116T798 -20Q333 -20 214
332Q182 426 182 559L183 1452ZM676 1679L965 1956Q1019 2005 1056 2001Q1119 1993 1149 1958T1172 1882Q1159 1800 1093 1776L698 1639L676 1679Z" />
<glyph unicode="&#xdb;" glyph-name="Ucircumflex" horiz-adv-x="1539" d="M183 1452H46V1530H598V1452H452V525Q452 162 656 95Q724 73 788 73T900 79T995 102Q1100 142 1167 246T1235 543V1452H1079V1530H1479V1452H1333V529Q1333 252 1189 116T798 -20Q333
-20 214 332Q182 426 182 559L183 1452ZM431 1646L694 1936Q752 2000 787 2000T840 1992Q872 1979 899 1950L1165 1647L1137 1610L803 1794L459 1610L431 1646Z" />
<glyph unicode="&#xdc;" glyph-name="Udieresis" horiz-adv-x="1539" d="M183 1452H46V1530H598V1452H452V525Q452 162 656 95Q724 73 788 73T900 79T995 102Q1100 142 1167 246T1235 543V1452H1079V1530H1479V1452H1333V529Q1333 252 1189 116T798 -20Q333 -20
214 332Q182 426 182 559L183 1452ZM1127 1834Q1127 1740 1051 1708Q1028 1699 1002 1699Q952 1699 916 1735T880 1809Q880 1874 917 1910T991 1946Q1054 1946 1090 1910T1127 1834ZM711 1834Q711 1740 635 1708Q612 1699 586 1699Q536 1699 500 1735T464 1809Q464
1874 501 1910T575 1946Q638 1946 674 1910T711 1834Z" />
<glyph unicode="&#xdd;" glyph-name="Yacute" horiz-adv-x="1539" d="M448 78H646L647 590L135 1452H10V1530H654V1452H451L860 733L1266 1452H1082V1530H1524V1452H1373L916 652V78H1115V0H448V78ZM657 1679L946 1956Q1000 2005 1037 2001Q1100 1993 1130 1958T1153
1882Q1140 1800 1074 1776L679 1639L657 1679Z" />
<glyph unicode="&#xde;" glyph-name="Thorn" horiz-adv-x="1364" d="M671 1226Q1310 1226 1310 792Q1310 578 1150 448T675 317H492V78H705V0H51V78H222L223 1452H51V1530H705V1452H492V1226H671ZM700 386Q932 386 1003 612Q1029 695 1029 781Q1029 958 949 1057T702
1157H492V386H700Z" />
<glyph unicode="&#xdf;" glyph-name="germandbls" horiz-adv-x="1366" d="M689 1615Q461 1615 461 1187V0H47V78H200V945H22V1023H200V1105Q200 1367 339 1525T703 1684T1045 1593T1163 1374Q1163 1171 978 1066Q856 997 824 963T792 899T806 851T844 814T898
776L956 740Q1026 701 1084 672Q1219 604 1276 530T1334 367Q1334 196 1224 88T926 -20Q797 -20 699 31T586 148Q588 180 619 213T684 252Q744 135 859 84Q900 65 944 65Q1039 65 1099 110T1160 242T1006 414L910 464Q784 529 733 577Q632 672 632 779T704 970Q734
1006 770 1040Q908 1173 908 1325T846 1546T689 1615Z" />
<glyph unicode="&#xe0;" glyph-name="agrave" horiz-adv-x="1195" d="M765 113Q649 -20 454 -20Q306 -20 199 62T92 278T197 488T467 565T744 482V720Q744 841 714 884T644 944T554 961Q477 961 424 944T353 908Q399 894 424 838Q432 818 432 790Q432 735 392
699T312 662Q242 662 203 699T164 788T183 873T234 934Q295 985 387 1012T561 1039Q786 1039 894 948T1002 694V161Q1002 78 1043 78T1122 128L1174 85Q1106 -18 952 -18Q898 -18 843 16T765 113ZM747 393Q662 476 561 476T409 429T358 276Q358 121 467 88Q498
78 530 78Q621 78 704 148Q728 169 747 193V393ZM291 1406Q232 1442 237 1517Q239 1566 277 1594T355 1618T416 1598T456 1552L676 1218L645 1184L291 1406Z" />
<glyph unicode="&#xe1;" glyph-name="aacute" horiz-adv-x="1195" d="M765 113Q649 -20 454 -20Q306 -20 199 62T92 278T197 488T467 565T744 482V720Q744 841 714 884T644 944T554 961Q477 961 424 944T353 908Q399 894 424 838Q432 818 432 790Q432 735 392
699T312 662Q242 662 203 699T164 788T183 873T234 934Q295 985 387 1012T561 1039Q786 1039 894 948T1002 694V161Q1002 78 1043 78T1122 128L1174 85Q1106 -18 952 -18Q898 -18 843 16T765 113ZM747 393Q662 476 561 476T409 429T358 276Q358 121 467 88Q498
78 530 78Q621 78 704 148Q728 169 747 193V393ZM478 1218L698 1552Q737 1610 775 1615Q839 1623 876 1595T916 1527Q922 1443 863 1406L509 1184L478 1218Z" />
<glyph unicode="&#xe2;" glyph-name="acircumflex" horiz-adv-x="1195" d="M765 113Q649 -20 454 -20Q306 -20 199 62T92 278T197 488T467 565T744 482V720Q744 841 714 884T644 944T554 961Q477 961 424 944T353 908Q399 894 424 838Q432 818 432 790Q432 735
392 699T312 662Q242 662 203 699T164 788T183 873T234 934Q295 985 387 1012T561 1039Q786 1039 894 948T1002 694V161Q1002 78 1043 78T1122 128L1174 85Q1106 -18 952 -18Q898 -18 843 16T765 113ZM747 393Q662 476 561 476T409 429T358 276Q358 121 467 88Q498
78 530 78Q621 78 704 148Q728 169 747 193V393ZM208 1212L474 1535Q521 1599 585 1599T699 1528L950 1210L917 1179L583 1383L239 1179L208 1212Z" />
<glyph unicode="&#xe3;" glyph-name="atilde" horiz-adv-x="1195" d="M765 113Q649 -20 454 -20Q306 -20 199 62T92 278T197 488T467 565T744 482V720Q744 841 714 884T644 944T554 961Q477 961 424 944T353 908Q399 894 424 838Q432 818 432 790Q432 735 392
699T312 662Q242 662 203 699T164 788T183 873T234 934Q295 985 387 1012T561 1039Q786 1039 894 948T1002 694V161Q1002 78 1043 78T1122 128L1174 85Q1106 -18 952 -18Q898 -18 843 16T765 113ZM747 393Q662 476 561 476T409 429T358 276Q358 121 467 88Q498
78 530 78Q621 78 704 148Q728 169 747 193V393ZM944 1475Q833 1239 683 1239Q627 1239 561 1274T459 1326T387 1342T318 1318T249 1253L203 1286Q259 1386 298 1429Q378 1517 447 1517T582 1484T681 1435T745 1419Q824 1419 871 1473Q885 1489 897 1506L944 1475Z"
/>
<glyph unicode="&#xe4;" glyph-name="adieresis" horiz-adv-x="1195" d="M765 113Q649 -20 454 -20Q306 -20 199 62T92 278T197 488T467 565T744 482V720Q744 841 714 884T644 944T554 961Q477 961 424 944T353 908Q399 894 424 838Q432 818 432 790Q432 735 392
699T312 662Q242 662 203 699T164 788T183 873T234 934Q295 985 387 1012T561 1039Q786 1039 894 948T1002 694V161Q1002 78 1043 78T1122 128L1174 85Q1106 -18 952 -18Q898 -18 843 16T765 113ZM747 393Q662 476 561 476T409 429T358 276Q358 121 467 88Q498
78 530 78Q621 78 704 148Q728 169 747 193V393ZM929 1377Q929 1285 853 1254Q830 1244 804 1244Q755 1244 719 1278T682 1352Q682 1416 718 1452Q755 1487 792 1487Q857 1487 893 1451T929 1377ZM473 1377Q473 1285 397 1254Q374 1244 348 1244Q299 1244 263 1278T226
1352Q226 1416 262 1452Q299 1487 336 1487Q401 1487 437 1451T473 1377Z" />
<glyph unicode="&#xe5;" glyph-name="aring" horiz-adv-x="1195" d="M765 113Q649 -20 454 -20Q306 -20 199 62T92 278T197 488T467 565T744 482V720Q744 841 714 884T644 944T554 961Q477 961 424 944T353 908Q399 894 424 838Q432 818 432 790Q432 735 392 699T312
662Q242 662 203 699T164 788T183 873T234 934Q295 985 387 1012T561 1039Q786 1039 894 948T1002 694V161Q1002 78 1043 78T1122 128L1174 85Q1106 -18 952 -18Q898 -18 843 16T765 113ZM747 393Q662 476 561 476T409 429T358 276Q358 121 467 88Q498 78 530 78Q621
78 704 148Q728 169 747 193V393ZM374 1210Q295 1271 295 1369T374 1527T575 1587T774 1528T851 1369T774 1211T576 1151T374 1210ZM447 1518T447 1368T573 1218T700 1368T574 1518Z" />
<glyph unicode="&#xe6;" glyph-name="ae" horiz-adv-x="1707" d="M1248 75Q1422 75 1566 223L1619 175Q1510 40 1337 -5Q1279 -20 1206 -20Q1054 -20 950 21T779 152Q746 79 648 30T450 -20Q268 -20 166 61T64 277T169 488T428 565T686 502V720Q686 841 656 884T586
944T496 961Q419 961 366 944T295 908Q341 894 366 838Q374 818 374 790Q374 735 334 699T254 662Q184 662 145 699T106 788T125 873T176 934Q237 985 329 1012T503 1039Q759 1039 868 916Q991 1039 1202 1039T1526 910T1639 544H944V495Q950 200 1117 106Q1173
75 1248 75ZM1372 626Q1370 787 1326 871T1184 955Q979 955 949 626H1372ZM330 276Q330 120 430 88Q460 78 502 78Q578 78 628 106T689 160V407L686 420Q611 476 522 476T381 429T330 276Z" />
<glyph unicode="&#xe7;" glyph-name="ccedilla" horiz-adv-x="1026" d="M670 -332Q670 -247 524 -247Q516 -247 504 -248H480Q459 -249 435 -252L485 -5Q295 34 181 170T67 532T224 899T624 1040Q762 1040 879 979T997 805Q997 745 959 707T878 669Q807 669 768
702T729 791Q729 882 802 917Q728 963 631 963Q343 963 343 514Q343 198 517 106Q575 76 652 76Q834 76 946 192L998 144Q915 38 757 -4Q699 -20 651 -20T577 -18L556 -127Q565 -126 574 -126H593Q760 -126 822 -207Q847 -239 847 -286T826 -369T770 -436Q701 -494
593 -527T391 -560L383 -485Q566 -471 640 -402Q670 -374 670 -332Z" />
<glyph unicode="&#xe8;" glyph-name="egrave" horiz-adv-x="1194" d="M1072 175Q915 -20 625 -20Q529 -20 425 20T248 132Q97 282 97 514T249 893T635 1039Q979 1039 1068 751Q1097 659 1097 544H373V514Q373 205 548 108Q607 75 689 75Q871 75 1019 223L1072
175ZM828 626Q826 786 779 870T625 955Q408 955 378 626H828ZM316 1406Q257 1442 262 1517Q264 1566 302 1594T380 1618T441 1598T481 1552L701 1218L670 1184L316 1406Z" />
<glyph unicode="&#xe9;" glyph-name="eacute" horiz-adv-x="1194" d="M1072 175Q915 -20 625 -20Q529 -20 425 20T248 132Q97 282 97 514T249 893T635 1039Q979 1039 1068 751Q1097 659 1097 544H373V514Q373 205 548 108Q607 75 689 75Q871 75 1019 223L1072
175ZM828 626Q826 786 779 870T625 955Q408 955 378 626H828ZM503 1218L723 1552Q762 1610 800 1615Q864 1623 901 1595T941 1527Q947 1443 888 1406L534 1184L503 1218Z" />
<glyph unicode="&#xea;" glyph-name="ecircumflex" horiz-adv-x="1194" d="M1072 175Q915 -20 625 -20Q529 -20 425 20T248 132Q97 282 97 514T249 893T635 1039Q979 1039 1068 751Q1097 659 1097 544H373V514Q373 205 548 108Q607 75 689 75Q871 75 1019 223L1072
175ZM828 626Q826 786 779 870T625 955Q408 955 378 626H828ZM233 1212L499 1535Q546 1599 610 1599T724 1528L975 1210L942 1179L608 1383L264 1179L233 1212Z" />
<glyph unicode="&#xeb;" glyph-name="edieresis" horiz-adv-x="1194" d="M1072 175Q915 -20 625 -20Q529 -20 425 20T248 132Q97 282 97 514T249 893T635 1039Q979 1039 1068 751Q1097 659 1097 544H373V514Q373 205 548 108Q607 75 689 75Q871 75 1019 223L1072
175ZM828 626Q826 786 779 870T625 955Q408 955 378 626H828ZM954 1377Q954 1285 878 1254Q855 1244 829 1244Q780 1244 744 1278T707 1352Q707 1416 743 1452Q780 1487 817 1487Q882 1487 918 1451T954 1377ZM498 1377Q498 1285 422 1254Q399 1244 373 1244Q324
1244 288 1278T251 1352Q251 1416 287 1452Q324 1487 361 1487Q426 1487 462 1451T498 1377Z" />
<glyph unicode="&#xec;" glyph-name="igrave" horiz-adv-x="683" d="M61 78H223V945H75V1023H488V78H650V0H61V78ZM61 1406Q2 1442 7 1517Q9 1566 47 1594T125 1618T186 1598T226 1552L446 1218L415 1184L61 1406Z" />
<glyph unicode="&#xed;" glyph-name="iacute" horiz-adv-x="683" d="M61 78H223V945H75V1023H488V78H650V0H61V78ZM248 1218L468 1552Q507 1610 545 1615Q609 1623 646 1595T686 1527Q692 1443 633 1406L279 1184L248 1218Z" />
<glyph unicode="&#xee;" glyph-name="icircumflex" horiz-adv-x="683" d="M61 78H223V945H75V1023H488V78H650V0H61V78ZM-22 1212L244 1535Q291 1599 355 1599T469 1528L720 1210L687 1179L353 1383L9 1179L-22 1212Z" />
<glyph unicode="&#xef;" glyph-name="idieresis" horiz-adv-x="683" d="M656 1377Q656 1285 580 1254Q557 1244 532 1244Q482 1244 446 1278T409 1352Q409 1416 445 1452Q482 1487 520 1487Q583 1487 620 1452Q656 1415 656 1377ZM294 1377Q294 1285 218 1254Q195
1244 170 1244Q120 1244 84 1278T47 1352Q47 1416 83 1452Q120 1487 158 1487Q221 1487 258 1452Q294 1415 294 1377ZM61 78H223V945H75V1023H488V78H650V0H61V78Z" />
<glyph unicode="&#xf0;" glyph-name="eth" horiz-adv-x="1362" d="M1217 598L1216 560Q1207 264 1061 122T684 -20T299 128T145 512T299 894T680 1040Q818 1040 910 990Q855 1247 667 1418L458 1237L397 1306L594 1477Q457 1575 295 1605L315 1684Q519 1657 688
1558L911 1751L971 1682L769 1506Q983 1352 1100 1107T1217 598ZM423 515Q423 65 680 65Q952 65 952 505Q952 852 780 934Q738 955 672 955Q541 955 482 839T423 515Z" />
<glyph unicode="&#xf1;" glyph-name="ntilde" horiz-adv-x="1365" d="M774 945Q611 945 479 794V78H661V0H57V78H219V945H56V1023H479V895Q629 1040 822 1040Q955 1040 1058 972Q1191 884 1191 692V78H1353V0H749V78H931V712Q931 829 907 871T852 929T774 945ZM1072
1475Q961 1239 811 1239Q755 1239 689 1274T587 1326T515 1342T446 1318T377 1253L331 1286Q387 1386 426 1429Q506 1517 575 1517T710 1484T809 1435T873 1419Q952 1419 999 1473Q1013 1489 1025 1506L1072 1475Z" />
<glyph unicode="&#xf2;" glyph-name="ograve" horiz-adv-x="1194" d="M72 748T222 894T599 1040T974 895T1122 513T976 128T600 -20T222 128T72 512ZM597 63Q799 63 834 338Q844 420 844 514Q844 725 796 830Q737 956 597 956Q395 956 360 690Q350 609 350 514Q350
302 398 194Q458 63 597 63ZM310 1406Q251 1442 256 1517Q258 1566 296 1594T374 1618T435 1598T475 1552L695 1218L664 1184L310 1406Z" />
<glyph unicode="&#xf3;" glyph-name="oacute" horiz-adv-x="1194" d="M72 748T222 894T599 1040T974 895T1122 513T976 128T600 -20T222 128T72 512ZM597 63Q799 63 834 338Q844 420 844 514Q844 725 796 830Q737 956 597 956Q395 956 360 690Q350 609 350 514Q350
302 398 194Q458 63 597 63ZM497 1218L717 1552Q756 1610 794 1615Q858 1623 895 1595T935 1527Q941 1443 882 1406L528 1184L497 1218Z" />
<glyph unicode="&#xf4;" glyph-name="ocircumflex" horiz-adv-x="1194" d="M72 748T222 894T599 1040T974 895T1122 513T976 128T600 -20T222 128T72 512ZM597 63Q799 63 834 338Q844 420 844 514Q844 725 796 830Q737 956 597 956Q395 956 360 690Q350 609 350
514Q350 302 398 194Q458 63 597 63ZM227 1212L493 1535Q540 1599 604 1599T718 1528L969 1210L936 1179L602 1383L258 1179L227 1212Z" />
<glyph unicode="&#xf5;" glyph-name="otilde" horiz-adv-x="1194" d="M72 748T222 894T599 1040T974 895T1122 513T976 128T600 -20T222 128T72 512ZM597 63Q799 63 834 338Q844 420 844 514Q844 725 796 830Q737 956 597 956Q395 956 360 690Q350 609 350 514Q350
302 398 194Q458 63 597 63ZM963 1475Q852 1239 702 1239Q646 1239 580 1274T478 1326T406 1342T337 1318T268 1253L222 1286Q278 1386 317 1429Q397 1517 466 1517T601 1484T700 1435T764 1419Q843 1419 890 1473Q904 1489 916 1506L963 1475Z" />
<glyph unicode="&#xf6;" glyph-name="odieresis" horiz-adv-x="1194" d="M72 748T222 894T599 1040T974 895T1122 513T976 128T600 -20T222 128T72 512ZM597 63Q799 63 834 338Q844 420 844 514Q844 725 796 830Q737 956 597 956Q395 956 360 690Q350 609 350
514Q350 302 398 194Q458 63 597 63ZM948 1377Q948 1285 872 1254Q849 1244 823 1244Q774 1244 738 1278T701 1352Q701 1416 737 1452Q774 1487 811 1487Q876 1487 912 1451T948 1377ZM492 1377Q492 1285 416 1254Q393 1244 367 1244Q318 1244 282 1278T245 1352Q245
1416 281 1452Q318 1487 355 1487Q420 1487 456 1451T492 1377Z" />
<glyph unicode="&#xf7;" glyph-name="divide" horiz-adv-x="1536" d="M817 846Q794 836 755 836T678 872T640 963T667 1045Q715 1091 767 1091T857 1054T894 964Q894 879 817 846ZM270 646H1266V546H270V646ZM818 105Q795 95 756 95T679 131T641 222T668 304Q716
350 768 350T858 313T895 223Q895 138 818 105Z" />
<glyph unicode="&#xf8;" glyph-name="oslash" horiz-adv-x="1194" d="M235 115L126 3L61 66L177 179Q72 318 72 515Q72 748 222 894T582 1040T932 932L1040 1039L1114 976L999 868Q1122 726 1122 501T976 128T606 -20T235 115ZM802 814Q746 956 597 956Q395 956
360 690Q350 609 350 511T361 335L559 543L802 814ZM382 238Q436 63 597 63Q799 63 834 338Q844 420 844 526T829 716L608 485L382 238Z" />
<glyph unicode="&#xf9;" glyph-name="ugrave" horiz-adv-x="1366" d="M888 98Q755 -20 601 -20T339 42Q191 129 191 333V945H49V1023H451V287Q451 76 646 76Q781 76 888 200V945H715V1023H1146V78H1275V0H888V98ZM325 1406Q266 1442 271 1517Q273 1566 311 1594T389
1618T450 1598T490 1552L710 1218L679 1184L325 1406Z" />
<glyph unicode="&#xfa;" glyph-name="uacute" horiz-adv-x="1366" d="M888 98Q755 -20 601 -20T339 42Q191 129 191 333V945H49V1023H451V287Q451 76 646 76Q781 76 888 200V945H715V1023H1146V78H1275V0H888V98ZM512 1218L732 1552Q771 1610 809 1615Q873 1623
910 1595T950 1527Q956 1443 897 1406L543 1184L512 1218Z" />
<glyph unicode="&#xfb;" glyph-name="ucircumflex" horiz-adv-x="1366" d="M888 98Q755 -20 601 -20T339 42Q191 129 191 333V945H49V1023H451V287Q451 76 646 76Q781 76 888 200V945H715V1023H1146V78H1275V0H888V98ZM242 1212L508 1535Q555 1599 619 1599T733
1528L984 1210L951 1179L617 1383L273 1179L242 1212Z" />
<glyph unicode="&#xfc;" glyph-name="udieresis" horiz-adv-x="1366" d="M888 98Q755 -20 601 -20T339 42Q191 129 191 333V945H49V1023H451V287Q451 76 646 76Q781 76 888 200V945H715V1023H1146V78H1275V0H888V98ZM963 1377Q963 1285 887 1254Q864 1244 838
1244Q789 1244 753 1278T716 1352Q716 1416 752 1452Q789 1487 826 1487Q891 1487 927 1451T963 1377ZM507 1377Q507 1285 431 1254Q408 1244 382 1244Q333 1244 297 1278T260 1352Q260 1416 296 1452Q333 1487 370 1487Q435 1487 471 1451T507 1377Z" />
<glyph unicode="&#xfd;" glyph-name="yacute" horiz-adv-x="1195" d="M120 -294T144 -284T215 -273T295 -308T329 -386T304 -462Q342 -456 381 -404T473 -242L565 -20L103 945H-4V1023H535V945H396L698 259L968 945H793V1023H1168V945H1066L670 -20L549 -292Q478
-433 429 -480T339 -543T256 -560Q175 -560 121 -516T67 -410T93 -322ZM526 1218L746 1552Q785 1610 823 1615Q887 1623 924 1595T964 1527Q970 1443 911 1406L557 1184L526 1218Z" />
<glyph unicode="&#xfe;" glyph-name="thorn" horiz-adv-x="1365" d="M472 -482H652V-560H61V-482H211L212 1604H62V1684H472V915Q592 1040 803 1040T1146 907T1279 520T1134 124T780 -20Q647 -20 534 34Q499 51 472 72V-482ZM738 66Q999 66 999 506Q999 833 858
918Q809 948 734 947T588 905T472 794V179Q550 98 668 74Q704 66 738 66Z" />
<glyph unicode="&#xff;" glyph-name="ydieresis" horiz-adv-x="1195" d="M120 -294T144 -284T215 -273T295 -308T329 -386T304 -462Q342 -456 381 -404T473 -242L565 -20L103 945H-4V1023H535V945H396L698 259L968 945H793V1023H1168V945H1066L670 -20L549 -292Q478
-433 429 -480T339 -543T256 -560Q175 -560 121 -516T67 -410T93 -322ZM977 1377Q977 1285 901 1254Q878 1244 852 1244Q803 1244 767 1278T730 1352Q730 1416 766 1452Q803 1487 840 1487Q905 1487 941 1451T977 1377ZM521 1377Q521 1285 445 1254Q422 1244 396
1244Q347 1244 311 1278T274 1352Q274 1416 310 1452Q347 1487 384 1487Q449 1487 485 1451T521 1377Z" />
<glyph unicode="&#x2013;" glyph-name="endash" horiz-adv-x="1368" d="M186 646H1182V546H186V646Z" />
<glyph unicode="&#x2014;" glyph-name="emdash" horiz-adv-x="2051" d="M194 646H1856V546H194V646Z" />
<glyph unicode="&#x2018;" glyph-name="quoteleft" horiz-adv-x="684" d="M461 1612Q384 1558 342 1430Q329 1390 326 1351H335Q437 1351 478 1256Q490 1227 490 1192Q490 1124 446 1082T353 1039Q267 1039 224 1091T181 1224Q181 1361 254 1490T409 1670L461 1612Z" />
<glyph unicode="&#x2019;" glyph-name="quoteright" horiz-adv-x="684" d="M223 1108Q300 1162 342 1290Q355 1330 358 1369H349Q247 1369 206 1464Q194 1493 194 1528Q194 1596 238 1638T331 1681Q417 1681 460 1629T503 1496Q503 1359 430 1230T275 1050L223 1108Z" />
<glyph unicode="&#x201a;" glyph-name="quotesinglbase" horiz-adv-x="684" d="M206 94Q194 124 194 159Q194 227 238 269T331 312Q418 312 460 260T503 127Q503 -10 430 -139T275 -319L223 -261Q300 -203 342 -78Q355 -39 358 0H349Q247 0 206 94Z" />
<glyph unicode="&#x201c;" glyph-name="quotedblleft" horiz-adv-x="1195" d="M471 1612Q394 1558 352 1430Q339 1390 336 1351H345Q447 1351 488 1256Q500 1227 500 1192Q500 1124 456 1082T363 1039Q277 1039 234 1091T191 1224Q191 1361 264 1490T419 1670L471
1612ZM961 1612Q884 1558 842 1430Q829 1390 826 1351H835Q937 1351 978 1256Q990 1227 990 1192Q990 1124 946 1082T853 1039Q767 1039 724 1091T681 1224Q681 1361 754 1490T909 1670L961 1612Z" />
<glyph unicode="&#x201d;" glyph-name="quotedblright" horiz-adv-x="1195" d="M234 1108Q311 1162 353 1290Q366 1330 369 1369H360Q258 1369 217 1464Q205 1493 205 1528Q205 1596 249 1638T342 1681Q428 1681 471 1629T514 1496Q514 1359 441 1230T286 1050L234
1108ZM724 1108Q801 1162 843 1290Q856 1330 859 1369H850Q748 1369 707 1464Q695 1493 695 1528Q695 1596 739 1638T832 1681Q918 1681 961 1629T1004 1496Q1004 1359 931 1230T776 1050L724 1108Z" />
<glyph unicode="&#x201e;" glyph-name="quotedblbase" horiz-adv-x="1195" d="M234 -260Q311 -206 353 -78Q366 -38 369 1H360Q258 1 217 96Q205 125 205 160Q205 228 249 270T342 313Q428 313 471 261T514 128Q514 -9 441 -138T286 -318L234 -260ZM724 -260Q801
-206 843 -78Q856 -38 859 1H850Q748 1 707 96Q695 125 695 160Q695 228 739 270T832 313Q918 313 961 261T1004 128Q1004 -9 931 -138T776 -318L724 -260Z" />
<glyph unicode="&#x2022;" glyph-name="bullet" horiz-adv-x="854" d="M326 305T257 374T188 543T256 714T426 784T597 715T666 544T597 373T427 305Z" />
<glyph unicode="&#x2039;" glyph-name="guilsinglleft" horiz-adv-x="1194" d="M277 538Q569 715 685 804T871 956L917 906Q831 787 740 688L564 499L740 310Q831 211 917 91L871 41Q800 101 724 158Q527 299 436 357L277 459V538Z" />
<glyph unicode="&#x203a;" glyph-name="guilsinglright" horiz-adv-x="1194" d="M917 538Q625 715 509 804T323 956L277 906Q363 787 454 688L630 499L454 310Q363 211 277 91L323 41Q394 101 470 158Q667 299 758 357L917 459V538Z" />
</font>
</defs>
</svg>
