<?xml version="1.0" standalone="no"?>
<!DOCTYPE svg PUBLIC "-//W3C//DTD SVG 1.1//EN" "http://www.w3.org/Graphics/SVG/1.1/DTD/svg11.dtd">
<svg xmlns="http://www.w3.org/2000/svg">
<defs >
<font id="Arapey" horiz-adv-x="399" ><font-face
    font-family="Arapey"
    units-per-em="1000"
    panose-1="2 0 0 0 0 0 0 0 0 0"
    ascent="868"
    descent="-228"
    alphabetic="0" />
<glyph unicode=" " glyph-name="space" horiz-adv-x="250" />
<glyph unicode="!" glyph-name="exclam" horiz-adv-x="274" d="M183 583L150 170H124L90 583Q90 642 136 642T183 583ZM185 56T185 36T171 2T137 -12T104 2T89 36T103 70T137 84T170 70Z" />
<glyph unicode="&quot;" glyph-name="quotedbl" horiz-adv-x="277" d="M121 618L84 444H67L30 618Q30 642 43 655T76 668T108 655T121 618ZM247 618L210 444H193L156 618Q156 642 169 655T202 668T234 655T247 618Z" />
<glyph unicode="#" glyph-name="numbersign" horiz-adv-x="463" d="M14 -101H-19L70 202H-48L-38 233H79L119 369H1L11 400H128L206 667H239L161 400H333L411 667H444L366 400H486L476 369H357L317 233H437L427 202H308L219 -101H186L275 202H103L14 -101ZM152
369L112 233H284L324 369H152Z" />
<glyph unicode="$" glyph-name="dollar" horiz-adv-x="463" d="M136 -10T91 26T45 115T87 168Q110 168 128 152Q114 127 114 93T142 37T210 12V254L157 278Q109 300 85 337T60 418Q60 480 98 526T210 578V667H241V579Q313 576 350 541T387 453T351 399Q322 399
305 414Q318 443 318 471T298 523T241 550V319L306 290Q360 266 388 227T417 146Q417 82 369 39T241 -11V-101H210V-12Q136 -10 91 26ZM263 230L241 240V13Q288 20 316 52T344 124Q344 192 263 230ZM121 449Q121 373 199 338L210 333V549Q168 543 145 515T121 449Z"
/>
<glyph unicode="%" glyph-name="percent" horiz-adv-x="779" d="M116 205T79 255T41 392T78 529T176 579T273 530T311 393T274 255T176 205ZM144 560T123 515T101 393T122 270T175 225T229 270T251 393T229 515T176 560ZM543 -8T506 42T468 179T505 316T603 366T700
317T738 180T701 42T603 -8ZM571 347T550 302T528 180T549 57T602 12T656 57T678 180T656 302T603 347ZM282 -74H247L496 648H532L282 -74Z" />
<glyph unicode="&amp;" glyph-name="ampersand" horiz-adv-x="582" d="M333 643T372 608T411 521T376 424T277 354L402 178L454 311H403V329H556V311H493Q484 311 479 297L421 152L512 26Q517 18 526 18H562V0H506Q457 0 433 -6L379 71Q319 -12 215 -12Q129 -12
80 40T30 159T70 275T188 347L157 392Q115 451 115 510T154 606T263 643ZM235 27Q313 27 363 95L204 324Q114 276 114 167Q114 99 149 63T235 27ZM262 617Q178 617 178 534Q178 493 213 444L262 374Q303 394 325 432T347 514T325 587T262 617Z" />
<glyph unicode="&apos;" glyph-name="quotesingle" horiz-adv-x="151" d="M121 618L84 444H67L30 618Q30 642 43 655T76 668T108 655T121 618Z" />
<glyph unicode="(" glyph-name="parenleft" horiz-adv-x="287" d="M132 370T132 261T167 54T267 -98L257 -113Q158 -61 104 40T50 261T104 481T257 635L267 620Q202 567 167 469Z" />
<glyph unicode=")" glyph-name="parenright" horiz-adv-x="287" d="M155 152T155 261T120 468T20 620L30 635Q129 583 183 482T237 261T183 41T30 -113L20 -98Q85 -45 120 53Z" />
<glyph unicode="*" glyph-name="asterisk" horiz-adv-x="418" d="M225 660T235 650T246 623T234 566T217 499Q240 512 280 539T337 567T364 556T375 529Q375 492 310 489T222 483Q242 465 272 442T314 405T326 378T315 353T288 341T262 353T237 407T209 474Q195
445 183 411T164 364Q151 341 133 341T103 352T92 378T103 405T145 441T196 483Q174 486 109 489T43 529Q43 545 53 556T77 567T106 559T150 531T201 499Q196 524 184 565T172 623T182 649T209 660Z" />
<glyph unicode="+" glyph-name="plus" horiz-adv-x="532" d="M292 392V223H462V170H292V0H239V170H70V223H239V392H292Z" />
<glyph unicode="," glyph-name="comma" horiz-adv-x="192" d="M31 -111Q78 -69 78 -26T42 43Q43 67 58 83T96 100Q151 100 151 40Q151 -1 121 -49T42 -125L31 -111Z" />
<glyph unicode="-" glyph-name="hyphen" horiz-adv-x="312" d="M30 211V251H282V211H30Z" />
<glyph unicode="." glyph-name="period" horiz-adv-x="192" d="M40 21T40 44T56 83T96 100T135 84T152 44T136 5T96 -12T57 4Z" />
<glyph unicode="/" glyph-name="slash" horiz-adv-x="319" d="M54 -74H15L264 648H304L54 -74Z" />
<glyph unicode="0" glyph-name="zero" horiz-adv-x="463" d="M139 -12T82 66T24 283T81 500T231 579T381 501T439 284T381 67T231 -12ZM101 409T101 283T138 83T231 9T324 83T362 283T324 483T231 557T139 483Z" />
<glyph unicode="1" glyph-name="one" horiz-adv-x="463" d="M73 0V19H190Q202 19 204 31V491Q204 516 174 516L63 510L61 534L152 547Q238 560 288 579Q278 541 278 465V33Q278 19 293 19H387V0H73Z" />
<glyph unicode="2" glyph-name="two" horiz-adv-x="463" d="M319 491T294 524T223 557T153 534T129 476T142 414Q125 399 96 399Q60 399 60 453T99 543T221 579T350 540T397 447Q397 372 327 292Q320 284 295 257T265 224L116 63H346Q370 63 374 85L387 172H410V124Q410
36 420 -9Q386 0 305 0H20L247 250Q319 330 319 434Q319 491 294 524Z" />
<glyph unicode="3" glyph-name="three" horiz-adv-x="463" d="M128 282L125 301L168 309Q233 321 268 363T303 451T280 527T220 557T164 537T144 486T159 423Q142 408 118 408Q76 408 76 464T116 549T218 579T327 546T376 461T342 368T246 308Q324 299 367 257T410
160Q410 90 357 39T207 -12Q132 -12 93 23T54 113T90 168Q120 168 136 152Q123 126 123 91T144 33T207 9Q266 9 300 50T334 153T290 251T175 286Q149 286 128 282Z" />
<glyph unicode="4" glyph-name="four" horiz-adv-x="463" d="M317 579H350V165H434V134H350V31Q350 19 365 19H434V0H193V19H262Q276 19 276 33V134H0L317 579ZM57 165H276V472L57 165Z" />
<glyph unicode="5" glyph-name="five" horiz-adv-x="463" d="M93 288L115 566H344Q370 566 373 589L375 609H396L393 575Q389 525 373 513T310 501H140L125 321Q169 331 210 331Q306 331 359 280T413 160T360 39T210 -12Q135 -12 96 23T57 113T93 168Q123 168
139 152Q126 126 126 91T147 33T210 9Q270 9 303 50T337 157T293 263T178 302Q134 302 93 288Z" />
<glyph unicode="6" glyph-name="six" horiz-adv-x="463" d="M360 579L368 555Q310 536 247 478Q213 447 185 397T142 286Q182 344 251 344T372 295T424 165T373 36T235 -12T100 44T51 181T85 339T191 482T360 579ZM194 315T163 279T132 171T163 55T239 9T316 50T347
163T315 275T239 315Z" />
<glyph unicode="7" glyph-name="seven" horiz-adv-x="463" d="M424 566L270 188Q245 125 245 83T262 3Q246 -12 215 -12Q176 -12 176 27Q176 61 230 188L366 504H135Q108 504 106 481L94 394H70V443Q70 533 61 576Q97 566 175 566H424Z" />
<glyph unicode="8" glyph-name="eight" horiz-adv-x="463" d="M72 435Q72 502 116 540T231 579T346 541T390 435Q390 385 365 351T295 301Q351 286 383 247T416 140T365 31T231 -12T98 30T46 140T78 246T166 301Q122 316 97 350T72 435ZM124 214T124 149T155 47T231
9T307 47T339 149T308 251T231 289T155 252ZM142 491T142 434T167 344T231 311T294 344T320 434T295 524T231 557T168 524Z" />
<glyph unicode="9" glyph-name="nine" horiz-adv-x="463" d="M120 -12L112 11Q167 29 230 86Q263 117 290 166T331 274Q294 217 227 217T108 267T55 400T103 531T236 579T370 523T419 385T388 229T288 86T120 -12ZM283 246T311 284T340 394T309 511T234 557T161
517T132 404T164 289T239 246Z" />
<glyph unicode=":" glyph-name="colon" horiz-adv-x="192" d="M40 21T40 44T56 83T96 100T135 84T152 44T136 5T96 -12T57 4ZM40 353T40 376T56 415T96 432T135 416T152 376T136 337T96 320T57 336Z" />
<glyph unicode=";" glyph-name="semicolon" horiz-adv-x="192" d="M40 353T40 376T56 415T96 432T135 416T152 376T136 337T96 320T57 336ZM31 -111Q78 -69 78 -26T42 43Q43 67 58 83T96 100Q151 100 151 40Q151 -1 121 -49T42 -125L31 -111Z" />
<glyph unicode="&lt;" glyph-name="less" horiz-adv-x="532" d="M462 450L127 296L462 143V88L70 270V323L462 505V450Z" />
<glyph unicode="=" glyph-name="equal" horiz-adv-x="532" d="M462 255H70V308H462V255ZM462 85H70V138H462V85Z" />
<glyph unicode="&gt;" glyph-name="greater" horiz-adv-x="532" d="M70 143L404 296L70 450V505L462 323V270L70 88V143Z" />
<glyph unicode="?" glyph-name="question" horiz-adv-x="355" d="M35 552T73 586T177 621T289 585T335 485Q335 447 310 409T254 345T199 290T173 235V170H145Q136 254 136 276T149 326T182 373T220 410Q266 455 266 503T241 576T180 600T123 578T102 521T115
461Q98 446 76 446Q35 446 35 499ZM207 56T207 36T193 2T159 -12T126 2T111 36T125 70T159 84T192 70Z" />
<glyph unicode="@" glyph-name="at" horiz-adv-x="795" d="M470 283Q470 400 400 400Q369 400 352 379T334 331T342 282Q325 268 295 268T265 308Q265 360 302 392T408 424Q540 424 540 260V27Q540 -12 572 -12Q622 -12 660 52T699 200Q699 325 611 413T398 502T185
414T96 200T184 -13T398 -101V-137Q258 -137 159 -39T60 200T159 439T398 538T636 439T735 200Q735 87 679 20T557 -48Q470 -48 470 55V122Q454 55 417 22T337 -12T264 18T233 99T278 189T408 229Q424 229 469 224Q470 231 470 283ZM301 75T318 56T368 36T431 81T468
207Q459 208 443 208Q368 208 335 176T301 110Z" />
<glyph unicode="A" glyph-name="A" horiz-adv-x="566" d="M576 0H371V18H436L366 211H146L76 18H141V0H-10V18H27Q41 18 46 32L266 630H300L520 32Q525 18 539 18H576V0ZM257 512L157 239H356L257 512Z" />
<glyph unicode="B" glyph-name="B" horiz-adv-x="511" d="M35 0V18H82Q96 18 96 30V600Q96 612 82 612H35V630H269Q344 630 397 589T451 483Q451 433 425 396T354 339Q417 325 456 282T496 168T437 48T294 0H35ZM289 321H178V28H289Q349 28 382 72T416 175T383
277T289 321ZM248 602H178V346H254Q313 346 342 386T371 479T341 567T248 602Z" />
<glyph unicode="C" glyph-name="C" horiz-adv-x="563" d="M499 0L498 14Q497 35 482 35Q474 35 453 24Q388 -12 322 -12Q196 -12 116 75T35 314T114 554T322 642Q387 642 452 609Q473 598 482 598Q497 598 498 619L499 636H518V463H500Q491 540 443 576T322 613Q231
613 176 533T120 314T176 96T322 17Q394 17 442 53T500 167H518V0H499Z" />
<glyph unicode="D" glyph-name="D" horiz-adv-x="611" d="M35 612V630H289Q416 630 496 546T576 315T496 84T289 0H35V18H82Q96 18 96 30V600Q96 612 82 612H35ZM289 602H178V28H289Q375 28 433 105T491 315T433 525T289 602Z" />
<glyph unicode="E" glyph-name="E" horiz-adv-x="517" d="M35 0V18H82Q96 18 96 32V600Q96 612 82 612H35V630H352Q431 630 463 639Q454 598 454 525V478H431L416 580Q414 602 388 602H178V329H379Q391 329 393 343L398 405H416V225H398L393 287Q391 301 379 301H178V28H402Q428
28 430 50L445 167H468V120Q468 32 477 -9Q445 0 366 0H35Z" />
<glyph unicode="F" glyph-name="F" horiz-adv-x="467" d="M35 612V630H346Q425 630 457 639Q448 598 448 525V478H425L410 580Q408 602 382 602H178V329H375Q385 329 387 343L392 405H410V225H392L387 287Q385 301 375 301H178V32Q178 18 192 18H279V0H35V18H82Q96
18 96 32V600Q96 612 82 612H35Z" />
<glyph unicode="G" glyph-name="G" horiz-adv-x="591" d="M322 613Q231 613 176 533T120 314T176 96T316 17T434 60T468 188V228Q468 240 454 240H387V258H591V240H564Q550 240 550 228V192Q550 103 486 46T322 -12Q196 -12 116 75T35 314T114 554T322 642Q387
642 452 609Q473 598 482 598Q497 598 498 619L499 636H518V463H500Q491 540 443 576T322 613Z" />
<glyph unicode="H" glyph-name="H" horiz-adv-x="648" d="M470 32V301H178V32Q178 18 192 18H239V0H35V18H82Q96 18 96 32V600Q96 612 82 612H35V630H239V612H192Q178 612 178 598V329H470V598Q470 612 456 612H409V630H613V612H566Q552 612 552 600V32Q552 18
566 18H613V0H409V18H456Q470 18 470 32Z" />
<glyph unicode="I" glyph-name="I" horiz-adv-x="274" d="M96 32V600Q96 612 82 612H35V630H239V612H192Q178 612 178 600V32Q178 18 192 18H239V0H35V18H82Q96 18 96 32Z" />
<glyph unicode="J" glyph-name="J" horiz-adv-x="269" d="M178 598V127Q178 -159 30 -159Q-25 -159 -50 -132T-75 -74Q-75 -12 -38 -12Q-7 -12 11 -27Q-5 -55 -5 -82Q-5 -135 39 -135Q96 -135 96 -45V600Q96 612 82 612H35V630H239V612H192Q178 612 178 598Z" />
<glyph unicode="K" glyph-name="K" horiz-adv-x="539" d="M96 32V600Q96 612 82 612H35V630H239V612H192Q178 612 178 600V32Q178 18 192 18H239V0H35V18H82Q96 18 96 32ZM412 175L435 83Q450 21 483 21Q500 21 509 33T519 63T516 96L535 99Q539 84 539 66Q539
30 518 9T462 -12Q378 -12 352 95L329 187Q312 252 282 277T197 303V325L433 612H383V630H519V612H492Q476 612 464 598L240 327Q317 326 356 285T412 175Z" />
<glyph unicode="L" glyph-name="L" horiz-adv-x="452" d="M35 0V18H82Q96 18 96 32V600Q96 612 82 612H35V630H239V612H192Q178 612 178 600V28H377Q403 28 405 50L420 167H443V120Q443 32 452 -9Q420 0 341 0H35Z" />
<glyph unicode="M" glyph-name="M" horiz-adv-x="760" d="M521 0V18H568Q582 18 582 30V541L373 0H339L130 526V32Q130 18 144 18H191V0H35V18H82Q96 18 96 32V600Q96 612 82 612H35V630H178L382 113L582 630H725V612H678Q664 612 664 598V30Q664 18 678 18H725V0H521Z" />
<glyph unicode="N" glyph-name="N" horiz-adv-x="629" d="M506 0L130 558V32Q130 18 144 18H191V0H35V18H82Q96 18 96 32V600Q96 612 82 612H35V630H182L504 154V598Q504 612 490 612H443V630H599V612H552Q538 612 538 600V0H506Z" />
<glyph unicode="O" glyph-name="O" horiz-adv-x="643" d="M35 162T35 315T114 555T321 642T528 555T608 315T529 75T322 -12T115 75ZM120 454T120 315T177 95T321 14T465 95T523 315T465 535T321 616T178 535Z" />
<glyph unicode="P" glyph-name="P" horiz-adv-x="486" d="M35 612V630H279Q364 630 422 579T481 440T423 302T279 250H178V32Q178 18 192 18H259V0H35V18H82Q96 18 96 32V600Q96 612 82 612H35ZM274 602H178V278H274Q333 278 367 326T401 440T367 553T274 602Z" />
<glyph unicode="Q" glyph-name="Q" horiz-adv-x="643" d="M173 2T104 87T35 320T114 555T321 642T528 555T608 321T540 89T358 -10L364 -77Q367 -114 385 -136T451 -167L447 -191Q361 -182 330 -153T292 -59L287 -10Q173 2 104 87ZM120 454T120 315T177 95T321
14T465 95T523 315T465 535T321 616T178 535Z" />
<glyph unicode="R" glyph-name="R" horiz-adv-x="530" d="M483 21Q498 21 507 33T517 63T514 96L533 99Q537 84 537 66Q537 30 516 9T460 -12Q375 -12 375 91T349 242T243 291H178V32Q178 18 192 18H259V0H35V18H82Q96 18 96 32V600Q96 612 82 612H35V630H284Q368
630 427 584T486 461Q486 399 448 357T346 298Q417 274 436 212Q451 161 451 91T483 21ZM279 602H178V320H279Q339 320 372 362T406 461T373 560T279 602Z" />
<glyph unicode="S" glyph-name="S" horiz-adv-x="497" d="M248 -12Q182 -12 116 24Q94 35 86 35Q71 35 70 14L69 0H50V167H68Q77 90 125 54T240 17T341 53T376 138Q376 216 286 256L167 309Q113 333 86 374T59 464Q59 537 108 589T249 642Q303 642 360 606Q379
595 386 595Q399 595 400 616L401 636H420V463H402Q394 540 353 576T252 613T160 581T127 507T149 432T216 380L336 327Q396 300 426 257T457 163Q457 92 400 40T248 -12Z" />
<glyph unicode="T" glyph-name="T" horiz-adv-x="500" d="M291 602V30Q291 18 305 18H392V0H108V18H195Q209 18 209 30V602H80Q54 602 52 580L37 463H14V510Q14 598 5 639Q37 630 116 630H384Q463 630 495 639Q486 598 486 510V463H463L448 580Q446 602 420 602H291Z" />
<glyph unicode="U" glyph-name="U" horiz-adv-x="604" d="M589 630V612H542Q528 612 528 600V195Q528 91 468 40T307 -12T146 39T86 195V600Q86 612 72 612H25V630H229V612H182Q168 612 168 600V188Q168 104 209 64T322 23T444 63T494 195V600Q494 612 480 612H433V630H589Z"
/>
<glyph unicode="V" glyph-name="V" horiz-adv-x="566" d="M5 630H195V612H145L308 124L475 612H425V630H561V612H524Q510 612 505 598L300 0H266L61 598Q56 612 42 612H5V630Z" />
<glyph unicode="W" glyph-name="W" horiz-adv-x="885" d="M744 630H880V612H843Q829 612 824 598L639 0H605L442 498L280 0H246L61 598Q56 612 42 612H5V630H195V612H145L288 129L425 551L410 598Q405 612 391 612H354V630H544V612H494L645 132L794 612H744V630Z" />
<glyph unicode="X" glyph-name="X" horiz-adv-x="535" d="M154 612L287 374L439 612H389V630H526V612H489Q480 612 470 598L305 342L479 32Q486 18 498 18H535V0H341V18H391L249 271L87 18H137V0H0V18H37Q46 18 56 32L231 303L66 598Q59 612 47 612H10V630H204V612H154Z" />
<glyph unicode="Y" glyph-name="Y" horiz-adv-x="527" d="M386 630H522V612H485Q471 612 466 598L313 229V32Q313 18 327 18H399V0H145V18H217Q231 18 231 32V230L61 598Q54 612 42 612H5V630H196V612H146L299 280L436 612H386V630Z" />
<glyph unicode="Z" glyph-name="Z" horiz-adv-x="515" d="M30 0V28L388 602H126Q100 602 98 580L83 463H60V510Q60 598 51 639Q83 630 162 630H485V602L126 28H410Q436 28 438 50L453 167H476V120Q476 32 485 -9Q453 0 374 0H30Z" />
<glyph unicode="[" glyph-name="bracketleft" horiz-adv-x="263" d="M142 598V-75Q142 -89 156 -89H233V-107H154Q94 -107 70 -113V636Q94 630 154 630H233V612H156Q142 612 142 598Z" />
<glyph unicode="\" glyph-name="backslash" horiz-adv-x="319" d="M304 -74H265L15 648H55L304 -74Z" />
<glyph unicode="]" glyph-name="bracketright" horiz-adv-x="263" d="M121 -75V598Q121 612 107 612H30V630H109Q169 630 193 636V-113Q169 -107 109 -107H30V-89H107Q121 -89 121 -75Z" />
<glyph unicode="^" glyph-name="asciicircum" horiz-adv-x="532" d="M291 644L458 270H403L264 584L126 270H71L238 644H291Z" />
<glyph unicode="_" glyph-name="underscore" horiz-adv-x="406" d="M30 -51V-12H376V-51H30Z" />
<glyph unicode="`" glyph-name="grave" horiz-adv-x="150" d="M79 614L150 480L134 468L0 602Q0 625 11 636T36 648Q61 648 79 614Z" />
<glyph unicode="a" glyph-name="a" horiz-adv-x="459" d="M286 233L287 268V303Q287 420 211 420Q178 420 160 398T141 345T149 293Q132 278 102 278T72 327T110 410T220 444Q359 444 359 280V75Q359 21 389 21Q403 21 413 34T424 64T421 96L440 99Q444 84 444
66Q444 30 423 9T366 -12T309 16T287 102V120Q270 52 233 20T148 -12T70 18T40 99T87 189T222 229Q241 229 286 224V233ZM170 26Q212 26 245 73T285 207Q275 208 257 208Q177 208 143 175T108 97Q108 68 125 47T170 26Z" />
<glyph unicode="b" glyph-name="b" horiz-adv-x="495" d="M346 -12T258 -12T111 54L103 -8H86V616Q86 630 72 630H25V648H74Q134 648 158 654V298Q175 370 212 407T296 444Q359 444 407 381T455 214T401 49ZM281 406Q231 406 195 344T158 165V41Q200 13 253 13T343
66T379 212T350 355T281 406Z" />
<glyph unicode="c" glyph-name="c" horiz-adv-x="421" d="M244 420Q187 420 152 366T116 216T150 67T239 12T329 40T377 120L396 116Q384 55 341 22T242 -12Q155 -12 98 49T40 216T98 383T244 444Q312 444 346 414T380 332Q380 266 343 266Q313 266 295 282Q309
312 309 344T293 398T244 420Z" />
<glyph unicode="d" glyph-name="d" horiz-adv-x="500" d="M337 -6V80Q281 -12 205 -12T84 49T40 215T96 382T237 444Q292 444 337 417V616Q337 630 323 630H276V648H325Q385 648 409 654V32Q409 18 423 18H470V0H421Q361 0 337 -6ZM188 414T152 363T116 219T145
77T220 26Q285 26 337 117V386Q291 414 240 414Z" />
<glyph unicode="e" glyph-name="e" horiz-adv-x="441" d="M242 444Q311 444 351 398T391 263Q391 245 389 223H116V216Q116 121 150 67T239 12T329 40T377 120L396 116Q384 55 341 22T242 -12Q155 -12 98 49T40 215T98 382T242 444ZM322 297Q322 420 230 420Q184
420 152 370T117 243H318Q322 277 322 297Z" />
<glyph unicode="f" glyph-name="f" horiz-adv-x="299" d="M178 552V432H278V414H178V30Q178 18 194 18H259V0H45V18H92Q106 18 106 32V400Q106 414 92 414H45V432H107Q113 548 150 604T240 660T317 635T341 580Q341 520 306 520Q277 520 259 535Q274 565 274 588Q274
637 233 637Q178 637 178 552Z" />
<glyph unicode="g" glyph-name="g" horiz-adv-x="454" d="M428 420L420 421Q411 483 375 483Q357 483 342 464T324 414Q378 373 378 300T336 188T225 148H136Q111 148 98 134T84 101T97 68T136 54H303Q363 54 393 27T424 -43Q424 -110 361 -169T204 -228Q132 -228
87 -194T42 -108T97 -8Q71 -1 56 21T40 77T64 136T136 163H151Q73 199 73 296Q73 365 115 404T225 444Q270 444 304 426Q311 466 332 492T389 518T448 499T472 458Q472 420 428 420ZM303 -12H128Q96 -49 96 -96T124 -173T214 -204T328 -160T379 -69Q379 -44 360
-28T303 -12ZM144 354T144 296T167 204T225 170T283 204T307 296T284 388T225 422T167 388Z" />
<glyph unicode="h" glyph-name="h" horiz-adv-x="528" d="M437 292V30Q437 18 451 18H498V0H318V18H351Q365 18 365 30V305Q365 356 343 380T283 405Q231 405 197 344T163 167V32Q163 18 177 18H210V0H30V18H77Q91 18 91 30V616Q91 630 77 630H30V648H79Q139 648
163 654V302Q197 444 313 444Q365 444 401 407T437 292Z" />
<glyph unicode="i" glyph-name="i" horiz-adv-x="269" d="M106 32V400Q106 414 92 414H45V432H94Q154 432 178 438V30Q178 18 192 18H239V0H45V18H92Q106 18 106 32ZM95 556T95 576T108 609T142 623T175 610T189 576T176 543T142 529T109 542Z" />
<glyph unicode="j" glyph-name="j" horiz-adv-x="245" d="M80 556T80 576T94 609T127 623T160 610T174 576T160 543T127 529T94 542ZM163 438L162 32Q162 -94 124 -161T31 -228T-48 -203T-72 -148Q-72 -88 -37 -88Q-8 -88 10 -103Q-5 -133 -5 -156Q-5 -205 36
-205Q91 -205 91 -120V400Q91 414 77 414H30V432H79Q139 432 163 438Z" />
<glyph unicode="k" glyph-name="k" horiz-adv-x="451" d="M91 32V616Q91 630 77 630H30V648H79Q139 648 163 654V30Q163 18 177 18H224V0H30V18H77Q91 18 91 32ZM297 432H431V414H394Q386 414 376 404L247 257L406 26Q411 18 420 18H461V0H414Q366 0 342 -6L182
227L348 414H297V432Z" />
<glyph unicode="l" glyph-name="l" horiz-adv-x="254" d="M91 32V616Q91 630 77 630H30V648H79Q139 648 163 654V32Q163 18 177 18H224V0H30V18H77Q91 18 91 32Z" />
<glyph unicode="m" glyph-name="m" horiz-adv-x="802" d="M706 292V30Q706 18 720 18H767V0H587V18H620Q634 18 634 30V305Q634 356 613 380T556 405Q506 405 474 341T442 155V32Q442 18 456 18H503V0H323V18H356Q370 18 370 30V305Q370 356 349 380T292 405Q242
405 210 341T178 155V32Q178 18 192 18H225V0H45V18H92Q106 18 106 30V400Q106 414 92 414H45V432H94Q154 432 178 438V304Q211 444 320 444Q368 444 403 409T442 303Q475 444 584 444Q634 444 670 407T706 292Z" />
<glyph unicode="n" glyph-name="n" horiz-adv-x="548" d="M452 292V30Q452 18 466 18H513V0H333V18H366Q380 18 380 30V305Q380 356 358 380T298 405Q246 405 212 344T178 167V32Q178 18 192 18H225V0H45V18H92Q106 18 106 30V400Q106 414 92 414H45V432H94Q154
432 178 438V302Q212 444 328 444Q380 444 416 407T452 292Z" />
<glyph unicode="o" glyph-name="o" horiz-adv-x="485" d="M40 110T40 216T96 383T242 444T388 383T445 216T389 49T242 -12T96 49ZM116 311T116 216T152 66T242 10T332 65T369 216T333 366T242 422T152 367Z" />
<glyph unicode="p" glyph-name="p" horiz-adv-x="500" d="M91 -184V400Q91 414 77 414H30V432H79Q139 432 163 438V298Q180 370 217 407T301 444Q364 444 412 381T460 214T406 49T263 -12Q208 -12 163 15V-184Q163 -198 177 -198H244V-216H30V-198H77Q91 -198
91 -184ZM384 305T355 355T282 406T200 347T163 177V42Q207 13 259 13T348 66T384 212Z" />
<glyph unicode="q" glyph-name="q" horiz-adv-x="495" d="M40 320T96 382T237 444T383 378L393 440H409V-184Q409 -198 423 -198H470V-216H421Q361 -216 337 -222V98Q314 44 277 16T198 -12Q134 -12 87 50T40 216ZM116 126T146 76T216 26T288 58T337 153V387Q293
414 241 414T152 363T116 219Z" />
<glyph unicode="r" glyph-name="r" horiz-adv-x="388" d="M334 444T358 411T383 328T342 278Q318 278 303 293Q316 322 316 352Q316 405 272 405Q235 405 207 344T178 165V32Q178 18 192 18H259V0H45V18H92Q106 18 106 32V400Q106 414 92 414H45V432H94Q154 432
178 438V310Q194 379 225 411T295 444Z" />
<glyph unicode="s" glyph-name="s" horiz-adv-x="395" d="M170 271L274 232Q311 218 330 190T350 126Q350 72 307 30T192 -12T55 15Q61 39 61 99V139H79L86 87Q95 12 191 12Q234 12 262 38T291 99Q291 146 234 167L130 206Q95 219 77 247T59 310Q59 363 97 403T192
444T322 417Q316 393 316 333V293H298L291 345Q283 417 200 417Q163 417 139 394T115 340Q115 292 170 271Z" />
<glyph unicode="t" glyph-name="t" horiz-adv-x="273" d="M138 538H153V432H253V414H153V75Q153 21 183 21Q197 21 207 34T218 64T215 96L234 99Q238 84 238 66Q238 30 217 9T160 -12T103 16T81 102V400Q81 414 67 414H20V432H69Q101 432 138 538Z" />
<glyph unicode="u" glyph-name="u" horiz-adv-x="518" d="M427 438V32Q427 18 441 18H488V0H439Q379 0 355 -6V129Q321 -12 205 -12Q153 -12 117 25T81 140V400Q81 414 67 414H20V432H69Q129 432 153 438V127Q153 76 175 52T235 27Q288 27 321 91T355 277V400Q355
414 341 414H294V432H343Q403 432 427 438Z" />
<glyph unicode="v" glyph-name="v" horiz-adv-x="407" d="M290 432H417V414H380Q371 414 366 400L217 0H190L41 400Q36 414 27 414H-10V432H160V414H110L225 98L341 414H290V432Z" />
<glyph unicode="w" glyph-name="w" horiz-adv-x="586" d="M469 432H596V414H559Q550 414 545 400L421 0H394L293 309L192 0H165L41 400Q38 414 27 414H-10V432H159V414H109L199 107L298 414H328L427 109L520 414H469V432Z" />
<glyph unicode="x" glyph-name="x" horiz-adv-x="430" d="M286 432H420V414H383Q372 414 365 404L250 231L370 26Q375 18 384 18H425V0H378Q330 0 306 -6L196 182L88 18H139V0H5V18H42Q53 18 60 28L180 209L65 406Q60 414 51 414H10V432H57Q105 432 129 438L234
258L337 414H286V432Z" />
<glyph unicode="y" glyph-name="y" horiz-adv-x="407" d="M290 432H417V414H380Q371 414 366 400L193 -63Q190 -72 183 -90L172 -117Q169 -126 163 -141T153 -165T143 -186Q136 -201 123 -214T96 -228T67 -211T48 -173Q139 -134 172 -43L189 3L41 400Q36 414 27
414H-10V432H160V414H110L225 98L341 414H290V432Z" />
<glyph unicode="z" glyph-name="z" horiz-adv-x="405" d="M111 18H308Q323 18 326 32L341 128H359V78Q359 18 365 -6Q341 0 293 0H30V18L283 414H106Q91 414 88 400L73 304H55V354Q55 414 49 438Q73 432 121 432H364V414L111 18Z" />
<glyph unicode="{" glyph-name="braceleft" horiz-adv-x="288" d="M111 263V259Q146 248 162 223T179 150V23Q179 -34 202 -59Q213 -70 248 -98L238 -113Q207 -97 197 -92T167 -75T142 -57T126 -40T113 -20T107 7T102 80V193Q102 222 90 238T45 254V268Q78 268
90 284T102 329V442Q102 496 106 514T112 541T125 562T141 579T166 596T197 614T238 635L248 620Q213 592 202 581Q179 556 179 499V372Q179 324 163 299T111 263Z" />
<glyph unicode="|" glyph-name="bar" horiz-adv-x="236" d="M82 -107V630H154V-107H82Z" />
<glyph unicode="}" glyph-name="braceright" horiz-adv-x="288" d="M177 259V263Q142 274 126 299T109 372V499Q109 556 86 581Q75 592 40 620L50 635Q81 619 91 614T121 597T146 579T162 562T175 542T181 515T186 442V329Q186 300 198 284T243 268V254Q210 254
198 238T186 193V80Q186 26 182 8T176 -19T163 -40T147 -57T122 -74T91 -92T50 -113L40 -98Q75 -70 86 -59Q109 -34 109 23V150Q109 198 125 223T177 259Z" />
<glyph unicode="~" glyph-name="asciitilde" horiz-adv-x="532" d="M448 243L468 210Q419 164 352 164Q319 164 258 176T158 189T83 164L62 197Q110 241 175 241Q208 241 270 229T369 216T448 243Z" />
<glyph unicode="&#xa1;" glyph-name="exclamdown" horiz-adv-x="274" d="M185 416T185 396T171 362T137 348T104 362T89 396T103 430T137 444T170 430ZM91 -151L124 262H150L184 -151Q184 -210 138 -210T91 -151Z" />
<glyph unicode="&#xa2;" glyph-name="cent" horiz-adv-x="434" d="M262 -55H231V64Q148 70 95 128T41 282T94 436T231 502V621H262V502Q325 499 355 467T386 383T350 331Q321 331 304 346Q317 375 317 403T301 455T251 478Q192 478 156 426T119 284T155 141T245
89T337 116T388 192L408 187Q396 132 356 100T262 64V-55Z" />
<glyph unicode="&#xa3;" glyph-name="sterling" horiz-adv-x="463" d="M414 509T414 454T372 399Q350 399 331 414Q345 442 345 473T326 527T268 551Q167 551 167 416Q167 367 186 278H332V247H193Q208 172 208 136T202 78Q273 57 323 57Q397 57 415 148L440 144Q422
-12 325 -12Q295 -12 268 -2T227 17T191 45Q162 -12 103 -12Q73 -12 57 3T40 41T59 81T104 98T161 89Q159 122 124 247H37V278H115Q97 350 97 383Q97 476 153 527T279 579T381 544ZM83 27T91 17T117 7T147 23T161 65Q140 78 121 78T93 68T83 42Z" />
<glyph unicode="&#xa4;" glyph-name="currency" horiz-adv-x="463" d="M101 201Q72 243 72 294T102 387L26 463L64 500L139 424Q180 454 231 454T324 424L400 500L437 462L362 387Q392 346 392 294T362 201L437 127L400 89L325 164Q284 134 232 134T139 164L64
89L26 126L101 201ZM102 348T102 294T140 202T232 164T324 202T362 294T324 386T232 424T140 386Z" />
<glyph unicode="&#xa5;" glyph-name="yen" horiz-adv-x="463" d="M425 276V246H293L276 208V32Q276 18 290 18H365V0H111V18H186Q200 18 200 32V210L182 246H51V276H168L150 312H51V342H136L43 534Q36 548 24 548H7V566H153V548H118L257 256H262L390 548H355V566H456V548H439Q425
548 420 534L335 342H425V312H322L306 276H425Z" />
<glyph unicode="&#xa6;" glyph-name="brokenbar" horiz-adv-x="236" d="M82 366V630H154V366H82ZM82 -107V157H154V-107H82Z" />
<glyph unicode="&#xa7;" glyph-name="section" horiz-adv-x="415" d="M135 124Q59 153 59 240Q59 283 88 322T170 373L135 387Q98 401 79 431T59 498Q59 555 100 598T211 642T340 613Q334 591 334 525V482H315L307 538Q296 615 210 615Q170 615 145 590T119 530Q119
477 178 456L289 415Q329 400 349 369T370 297T341 217T260 162L289 152Q329 138 349 107T370 38Q370 -20 324 -65T202 -110T55 -81Q61 -55 61 9V52H80L88 -4Q100 -86 200 -86Q246 -86 276 -57T307 9Q307 59 246 82L135 124ZM119 267Q119 214 178 193L213 180Q254
184 280 211T307 272Q307 321 246 344Q228 349 210 349Q170 349 145 325T119 267Z" />
<glyph unicode="&#xa8;" glyph-name="dieresis" horiz-adv-x="268" d="M0 556T0 576T14 609T47 623T80 610T94 576T80 543T47 529T14 542ZM174 556T174 576T188 609T221 623T254 610T268 576T254 543T221 529T188 542Z" />
<glyph unicode="&#xa9;" glyph-name="copyright" horiz-adv-x="544" d="M30 318T30 418T101 589T272 660T443 589T514 418T443 247T272 176T101 247ZM55 507T55 418T119 265T272 201T425 265T489 418T425 571T272 635T119 571ZM362 487Q352 560 268 560Q230 560
205 522T179 418T205 314T268 276T331 294T362 349H374V260H362L360 271Q358 281 350 281Q347 281 337 274Q305 254 272 254Q208 254 167 297T125 418T165 539T272 583Q296 583 321 572T350 560Q358 560 360 570L362 581H374V487H362Z" />
<glyph unicode="&#xaa;" glyph-name="ordfeminine" horiz-adv-x="275" d="M85 593Q85 577 93 559Q83 549 62 549Q37 549 37 580T58 630T123 648T193 622T219 550V422Q219 395 233 395Q252 395 252 423Q252 430 250 440L268 441Q270 429 270 416T258 389T222 375Q174
375 168 435Q157 406 134 391T85 376T39 392T20 439T49 494T133 519Q154 519 168 517V564Q168 634 122 634Q85 634 85 593ZM102 398Q127 398 146 425T167 504Q160 505 149 505Q117 505 94 488T71 447T79 411T102 398Z" />
<glyph unicode="&#xab;" glyph-name="guillemotleft" horiz-adv-x="395" d="M179 225V237L339 408L355 394L261 231L355 68L339 54L179 225ZM30 225V237L190 408L206 394L112 231L206 68L190 54L30 225Z" />
<glyph unicode="&#xac;" glyph-name="logicalnot" horiz-adv-x="532" d="M462 44H409V170H70V223H462V44Z" />
<glyph unicode="&#xae;" glyph-name="registered" horiz-adv-x="544" d="M30 318T30 418T101 589T272 660T443 589T514 418T443 247T272 176T101 247ZM55 507T55 418T119 265T272 201T425 265T489 418T425 571T272 635T119 571ZM279 276V262H157V276H174Q188 276
188 290V553Q186 565 174 565H157V579H278Q322 579 352 555T383 489Q383 428 320 406L383 285Q388 276 396 276H407V262H379Q355 262 341 258L269 399H240V290Q240 276 254 276H279ZM276 558H240V421H276Q302 421 317 441T332 489T317 537T276 558Z" />
<glyph unicode="&#xaf;" glyph-name="overscore" horiz-adv-x="312" d="M35 534V588H277V534H35Z" />
<glyph unicode="&#xb0;" glyph-name="degree" horiz-adv-x="274" d="M30 491T30 535T61 610T137 642T212 611T244 535T213 460T137 428T62 459ZM71 562T71 535T90 489T137 469T183 488T203 535T184 581T137 601T91 582Z" />
<glyph unicode="&#xb1;" glyph-name="plusminus" horiz-adv-x="532" d="M292 492V323H462V270H292V100H239V270H70V323H239V492H292ZM462 0H70V53H462V0Z" />
<glyph unicode="&#xb2;" glyph-name="twosuperior" horiz-adv-x="292" d="M198 520T182 540T141 560T103 546T90 511T99 472Q87 462 64 462Q35 462 35 497T61 556T142 579T224 555T253 501T241 447T215 405T172 353L90 258H220Q232 258 233 269L240 326H260V293Q260
254 267 205Q237 213 189 213H17L153 374Q198 428 198 486Q198 520 182 540Z" />
<glyph unicode="&#xb3;" glyph-name="threesuperior" horiz-adv-x="292" d="M76 388L73 405L101 411Q141 419 162 444T183 497T170 542T137 560T107 548T97 519T106 479Q93 466 71 466Q42 466 42 503T69 560T136 579T206 558T236 504T218 447T168 408Q213 400
237 374T262 309T228 238T137 205T55 228T29 287T57 323Q78 323 92 311Q83 293 83 273T95 239T136 225T183 249T203 311T177 370T109 392Q93 392 76 388Z" />
<glyph unicode="&#xb4;" glyph-name="acute" horiz-adv-x="150" d="M0 480L71 614Q89 648 114 648Q128 648 139 637T150 602L16 468L0 480Z" />
<glyph unicode="&#xb5;" glyph-name="mu" horiz-adv-x="518" d="M355 -6V129Q321 -12 205 -12Q155 -12 122 20V-14Q122 -131 193 -179Q183 -195 164 -205T130 -216Q102 -216 92 -178T81 -62V362Q81 414 54 414V432H69Q129 432 153 438V127Q153 76 175 52T235 27Q288
27 321 91T355 277V362Q355 414 328 414V432H343Q403 432 427 438V70Q427 38 436 28T474 18V0H439Q379 0 355 -6Z" />
<glyph unicode="&#xb6;" glyph-name="paragraph" horiz-adv-x="451" d="M274 -92H240V262Q144 262 82 310T20 446T82 582T240 630H421V612H374Q360 612 360 598V-92H326V612H274V-92Z" />
<glyph unicode="&#xb7;" glyph-name="middot" horiz-adv-x="192" d="M40 260T40 283T56 322T96 339T135 323T152 283T136 244T96 227T57 243Z" />
<glyph unicode="&#xb8;" glyph-name="cedilla" horiz-adv-x="238" d="M174 -141Q174 -84 101 -80L109 0H126L122 -48Q168 -51 193 -74T218 -133T193 -193T129 -218T65 -198T40 -146T73 -114Q87 -114 94 -118Q90 -129 90 -147T100 -180T130 -195T161 -180T174 -141Z" />
<glyph unicode="&#xb9;" glyph-name="onesuperior" horiz-adv-x="292" d="M118 245V522Q118 535 105 535L30 531L29 550L91 559Q150 568 184 583Q176 553 176 505V245Q176 231 190 231H248V213H40V231H104Q118 231 118 245Z" />
<glyph unicode="&#xba;" glyph-name="ordmasculine" horiz-adv-x="291" d="M20 448T20 512T55 612T145 648T236 612T271 512T236 412T145 375T55 411ZM114 635T94 602T74 512T94 421T145 388T196 421T217 511T197 602T145 635Z" />
<glyph unicode="&#xbb;" glyph-name="guillemotright" horiz-adv-x="395" d="M216 237V225L56 54L40 68L134 231L40 394L56 408L216 237ZM365 237V225L205 54L189 68L283 231L189 394L205 408L365 237Z" />
<glyph unicode="&#xbc;" glyph-name="onequarter" horiz-adv-x="779" d="M139 245V522Q139 535 126 535L51 531L50 550L112 559Q171 568 205 583Q197 553 197 505V245Q197 231 211 231H269V213H61V231H125Q139 231 139 245ZM613 32V88H450L622 358H670V112H725V88H670V32Q670
18 684 18H725V0H559V18H599Q613 18 613 32ZM497 112H613V294L497 112ZM280 -74H245L494 648H530L280 -74Z" />
<glyph unicode="&#xbd;" glyph-name="onehalf" horiz-adv-x="779" d="M139 245V522Q139 535 126 535L51 531L50 550L112 559Q171 568 205 583Q197 553 197 505V245Q197 231 211 231H269V213H61V231H125Q139 231 139 245ZM646 307T630 327T589 347T551 333T538
298T547 259Q535 249 512 249Q483 249 483 284T509 343T590 366T672 342T701 288T689 234T663 192T620 140L538 45H668Q680 45 681 56L688 113H708V80Q708 41 715 -8Q685 0 637 0H465L601 161Q646 215 646 273Q646 307 630 327ZM280 -74H245L494 648H530L280 -74Z"
/>
<glyph unicode="&#xbe;" glyph-name="threequarters" horiz-adv-x="779" d="M97 388L94 405L122 411Q162 419 183 444T204 497T191 542T158 560T128 548T118 519T127 479Q114 466 92 466Q63 466 63 503T90 560T157 579T227 558T257 504T239 447T189 408Q234 400
258 374T283 309T249 238T158 205T76 228T50 287T78 323Q99 323 113 311Q104 293 104 273T116 239T157 225T204 249T224 311T198 370T130 392Q114 392 97 388ZM613 32V88H450L622 358H670V112H725V88H670V32Q670 18 684 18H725V0H559V18H599Q613 18 613 32ZM497
112H613V294L497 112ZM280 -74H245L494 648H530L280 -74Z" />
<glyph unicode="&#xbf;" glyph-name="questiondown" horiz-adv-x="355" d="M320 -120T282 -154T178 -189T66 -153T20 -53Q20 -15 45 23T101 87T156 142T182 197V262H210Q219 178 219 156T206 106T173 59T135 22Q89 -23 89 -71T114 -144T175 -168T232 -146T253
-89T240 -29Q257 -14 280 -14Q320 -14 320 -67ZM244 416T244 396T230 362T196 348T162 362T148 396T162 430T196 444T230 430Z" />
<glyph unicode="&#xc0;" glyph-name="Agrave" horiz-adv-x="566" d="M576 0H371V18H436L366 211H146L76 18H141V0H-10V18H27Q41 18 46 32L266 630H300L520 32Q525 18 539 18H576V0ZM257 512L157 239H356L257 512ZM287 812L358 678L342 666L208 800Q208 823 219
834T244 846Q269 846 287 812Z" />
<glyph unicode="&#xc1;" glyph-name="Aacute" horiz-adv-x="566" d="M576 0H371V18H436L366 211H146L76 18H141V0H-10V18H27Q41 18 46 32L266 630H300L520 32Q525 18 539 18H576V0ZM257 512L157 239H356L257 512ZM208 678L279 812Q297 846 322 846Q336 846 347
835T358 800L224 666L208 678Z" />
<glyph unicode="&#xc2;" glyph-name="Acircumflex" horiz-adv-x="566" d="M576 0H371V18H436L366 211H146L76 18H141V0H-10V18H27Q41 18 46 32L266 630H300L520 32Q525 18 539 18H576V0ZM257 512L157 239H356L257 512ZM240 812Q256 846 283 846T326 812L387 678L371
666L282 781L195 666L179 678L240 812Z" />
<glyph unicode="&#xc3;" glyph-name="Atilde" horiz-adv-x="566" d="M576 0H371V18H436L366 211H146L76 18H141V0H-10V18H27Q41 18 46 32L266 630H300L520 32Q525 18 539 18H576V0ZM257 512L157 239H356L257 512ZM407 822L422 815Q398 715 338 715Q322 715 285
728T227 741Q184 741 159 696L144 703Q156 756 179 779T222 802T281 789T339 776Q382 776 407 822Z" />
<glyph unicode="&#xc4;" glyph-name="Adieresis" horiz-adv-x="566" d="M576 0H371V18H436L366 211H146L76 18H141V0H-10V18H27Q41 18 46 32L266 630H300L520 32Q525 18 539 18H576V0ZM257 512L157 239H356L257 512ZM149 754T149 774T163 807T196 821T229 808T243
774T229 741T196 727T163 740ZM323 754T323 774T337 807T370 821T403 808T417 774T403 741T370 727T337 740Z" />
<glyph unicode="&#xc5;" glyph-name="Aring" horiz-adv-x="566" d="M576 0H371V18H436L366 211H146L76 18H141V0H-10V18H27Q41 18 46 32L266 630H300L520 32Q525 18 539 18H576V0ZM257 512L157 239H356L257 512ZM184 731T184 774T211 842T282 867T353 842T381
774T354 707T283 682T212 706ZM237 806T237 774T249 724T281 706T314 724T328 774T315 824T282 843T250 825Z" />
<glyph unicode="&#xc6;" glyph-name="AE" horiz-adv-x="820" d="M338 0V18H385Q399 18 399 32V276H199L62 18H127V0H-24V18H13Q25 18 32 32L333 591Q337 599 337 604Q337 612 327 612H293V630H655Q734 630 766 639Q757 598 757 510V463H734L719 580Q717 602 691
602H481V304H682Q694 304 696 318L701 380H719V200H701L696 262Q694 276 682 276H481V28H705Q731 28 733 50L748 167H771V120Q771 32 780 -9Q748 0 669 0H338ZM373 602L214 304H399V602H373Z" />
<glyph unicode="&#xc7;" glyph-name="Ccedilla" horiz-adv-x="563" d="M499 0L498 14Q497 35 482 35Q474 35 453 24Q388 -12 322 -12Q196 -12 116 75T35 314T114 554T322 642Q387 642 452 609Q473 598 482 598Q497 598 498 619L499 636H518V463H500Q491 540 443
576T322 613Q231 613 176 533T120 314T176 96T322 17Q394 17 442 53T500 167H518V0H499ZM353 -141Q353 -84 280 -80L288 0H305L301 -48Q347 -51 372 -74T397 -133T372 -193T308 -218T244 -198T219 -146T252 -114Q266 -114 273 -118Q269 -129 269 -147T279 -180T309
-195T340 -180T353 -141Z" />
<glyph unicode="&#xc8;" glyph-name="Egrave" horiz-adv-x="517" d="M35 0V18H82Q96 18 96 32V600Q96 612 82 612H35V630H352Q431 630 463 639Q454 598 454 525V478H431L416 580Q414 602 388 602H178V329H379Q391 329 393 343L398 405H416V225H398L393 287Q391
301 379 301H178V28H402Q428 28 430 50L445 167H468V120Q468 32 477 -9Q445 0 366 0H35ZM262 812L333 678L317 666L183 800Q183 823 194 834T219 846Q244 846 262 812Z" />
<glyph unicode="&#xc9;" glyph-name="Eacute" horiz-adv-x="517" d="M35 0V18H82Q96 18 96 32V600Q96 612 82 612H35V630H352Q431 630 463 639Q454 598 454 525V478H431L416 580Q414 602 388 602H178V329H379Q391 329 393 343L398 405H416V225H398L393 287Q391
301 379 301H178V28H402Q428 28 430 50L445 167H468V120Q468 32 477 -9Q445 0 366 0H35ZM202 678L273 812Q291 846 316 846Q330 846 341 835T352 800L218 666L202 678Z" />
<glyph unicode="&#xca;" glyph-name="Ecircumflex" horiz-adv-x="517" d="M35 0V18H82Q96 18 96 32V600Q96 612 82 612H35V630H352Q431 630 463 639Q454 598 454 525V478H431L416 580Q414 602 388 602H178V329H379Q391 329 393 343L398 405H416V225H398L393 287Q391
301 379 301H178V28H402Q428 28 430 50L445 167H468V120Q468 32 477 -9Q445 0 366 0H35ZM215 812Q231 846 258 846T301 812L362 678L346 666L257 781L170 666L154 678L215 812Z" />
<glyph unicode="&#xcb;" glyph-name="Edieresis" horiz-adv-x="517" d="M35 0V18H82Q96 18 96 32V600Q96 612 82 612H35V630H352Q431 630 463 639Q454 598 454 525V478H431L416 580Q414 602 388 602H178V329H379Q391 329 393 343L398 405H416V225H398L393 287Q391
301 379 301H178V28H402Q428 28 430 50L445 167H468V120Q468 32 477 -9Q445 0 366 0H35ZM124 754T124 774T138 807T171 821T204 808T218 774T204 741T171 727T138 740ZM298 754T298 774T312 807T345 821T378 808T392 774T378 741T345 727T312 740Z" />
<glyph unicode="&#xcc;" glyph-name="Igrave" horiz-adv-x="274" d="M96 32V600Q96 612 82 612H35V630H239V612H192Q178 612 178 600V32Q178 18 192 18H239V0H35V18H82Q96 18 96 32ZM141 812L212 678L196 666L62 800Q62 823 73 834T98 846Q123 846 141 812Z" />
<glyph unicode="&#xcd;" glyph-name="Iacute" horiz-adv-x="274" d="M96 32V600Q96 612 82 612H35V630H239V612H192Q178 612 178 600V32Q178 18 192 18H239V0H35V18H82Q96 18 96 32ZM62 678L133 812Q151 846 176 846Q190 846 201 835T212 800L78 666L62 678Z" />
<glyph unicode="&#xce;" glyph-name="Icircumflex" horiz-adv-x="274" d="M96 32V600Q96 612 82 612H35V630H239V612H192Q178 612 178 600V32Q178 18 192 18H239V0H35V18H82Q96 18 96 32ZM94 812Q110 846 137 846T180 812L241 678L225 666L136 781L49 666L33 678L94 812Z" />
<glyph unicode="&#xcf;" glyph-name="Idieresis" horiz-adv-x="274" d="M96 32V600Q96 612 82 612H35V630H239V612H192Q178 612 178 600V32Q178 18 192 18H239V0H35V18H82Q96 18 96 32ZM3 754T3 774T17 807T50 821T83 808T97 774T83 741T50 727T17 740ZM177 754T177
774T191 807T224 821T257 808T271 774T257 741T224 727T191 740Z" />
<glyph unicode="&#xd0;" glyph-name="Eth" horiz-adv-x="611" d="M35 612V630H289Q416 630 496 546T576 315T496 84T289 0H35V18H82Q96 18 96 30V600Q96 612 82 612H35ZM289 602H178V28H289Q375 28 433 105T491 315T433 525T289 602ZM30 295V335H376V295H30Z" />
<glyph unicode="&#xd1;" glyph-name="Ntilde" horiz-adv-x="629" d="M506 0L130 558V32Q130 18 144 18H191V0H35V18H82Q96 18 96 32V600Q96 612 82 612H35V630H182L504 154V598Q504 612 490 612H443V630H599V612H552Q538 612 538 600V0H506ZM455 822L470 815Q446
715 386 715Q370 715 333 728T275 741Q232 741 207 696L192 703Q204 756 227 779T270 802T329 789T387 776Q430 776 455 822Z" />
<glyph unicode="&#xd2;" glyph-name="Ograve" horiz-adv-x="643" d="M35 162T35 315T114 555T321 642T528 555T608 315T529 75T322 -12T115 75ZM120 454T120 315T177 95T321 14T465 95T523 315T465 535T321 616T178 535ZM325 812L396 678L380 666L246 800Q246
823 257 834T282 846Q307 846 325 812Z" />
<glyph unicode="&#xd3;" glyph-name="Oacute" horiz-adv-x="643" d="M35 162T35 315T114 555T321 642T528 555T608 315T529 75T322 -12T115 75ZM120 454T120 315T177 95T321 14T465 95T523 315T465 535T321 616T178 535ZM256 678L327 812Q345 846 370 846Q384
846 395 835T406 800L272 666L256 678Z" />
<glyph unicode="&#xd4;" glyph-name="Ocircumflex" horiz-adv-x="643" d="M35 162T35 315T114 555T321 642T528 555T608 315T529 75T322 -12T115 75ZM120 454T120 315T177 95T321 14T465 95T523 315T465 535T321 616T178 535ZM278 812Q294 846 321 846T364 812L425
678L409 666L320 781L233 666L217 678L278 812Z" />
<glyph unicode="&#xd5;" glyph-name="Otilde" horiz-adv-x="643" d="M35 162T35 315T114 555T321 642T528 555T608 315T529 75T322 -12T115 75ZM120 454T120 315T177 95T321 14T465 95T523 315T465 535T321 616T178 535ZM445 822L460 815Q436 715 376 715Q360
715 323 728T265 741Q222 741 197 696L182 703Q194 756 217 779T260 802T319 789T377 776Q420 776 445 822Z" />
<glyph unicode="&#xd6;" glyph-name="Odieresis" horiz-adv-x="643" d="M35 162T35 315T114 555T321 642T528 555T608 315T529 75T322 -12T115 75ZM120 454T120 315T177 95T321 14T465 95T523 315T465 535T321 616T178 535ZM187 754T187 774T201 807T234 821T267
808T281 774T267 741T234 727T201 740ZM361 754T361 774T375 807T408 821T441 808T455 774T441 741T408 727T375 740Z" />
<glyph unicode="&#xd7;" glyph-name="multiply" horiz-adv-x="532" d="M136 363L265 233L396 364L433 326L303 196L433 66L396 28L265 158L136 29L98 66L228 196L98 326L136 363Z" />
<glyph unicode="&#xd8;" glyph-name="Oslash" horiz-adv-x="643" d="M35 162T35 315T114 555T321 642T528 555T608 315T529 75T322 -12T115 75ZM120 454T120 315T177 95T321 14T465 95T523 315T465 535T321 616T178 535ZM216 -43H177L426 679H466L216 -43Z" />
<glyph unicode="&#xd9;" glyph-name="Ugrave" horiz-adv-x="604" d="M589 630V612H542Q528 612 528 600V195Q528 91 468 40T307 -12T146 39T86 195V600Q86 612 72 612H25V630H229V612H182Q168 612 168 600V188Q168 104 209 64T322 23T444 63T494 195V600Q494 612
480 612H433V630H589ZM306 812L377 678L361 666L227 800Q227 823 238 834T263 846Q288 846 306 812Z" />
<glyph unicode="&#xda;" glyph-name="Uacute" horiz-adv-x="604" d="M589 630V612H542Q528 612 528 600V195Q528 91 468 40T307 -12T146 39T86 195V600Q86 612 72 612H25V630H229V612H182Q168 612 168 600V188Q168 104 209 64T322 23T444 63T494 195V600Q494 612
480 612H433V630H589ZM282 678L353 812Q371 846 396 846Q410 846 421 835T432 800L298 666L282 678Z" />
<glyph unicode="&#xdb;" glyph-name="Ucircumflex" horiz-adv-x="604" d="M589 630V612H542Q528 612 528 600V195Q528 91 468 40T307 -12T146 39T86 195V600Q86 612 72 612H25V630H229V612H182Q168 612 168 600V188Q168 104 209 64T322 23T444 63T494 195V600Q494
612 480 612H433V630H589ZM290 812Q306 846 333 846T376 812L437 678L421 666L332 781L245 666L229 678L290 812Z" />
<glyph unicode="&#xdc;" glyph-name="Udieresis" horiz-adv-x="604" d="M589 630V612H542Q528 612 528 600V195Q528 91 468 40T307 -12T146 39T86 195V600Q86 612 72 612H25V630H229V612H182Q168 612 168 600V188Q168 104 209 64T322 23T444 63T494 195V600Q494
612 480 612H433V630H589ZM202 754T202 774T216 807T249 821T282 808T296 774T282 741T249 727T216 740ZM376 754T376 774T390 807T423 821T456 808T470 774T456 741T423 727T390 740Z" />
<glyph unicode="&#xdd;" glyph-name="Yacute" horiz-adv-x="527" d="M386 630H522V612H485Q471 612 466 598L313 229V32Q313 18 327 18H399V0H145V18H217Q231 18 231 32V230L61 598Q54 612 42 612H5V630H196V612H146L299 280L436 612H386V630ZM238 678L309 812Q327
846 352 846Q366 846 377 835T388 800L254 666L238 678Z" />
<glyph unicode="&#xde;" glyph-name="Thorn" horiz-adv-x="486" d="M123 153H264Q323 153 357 201T391 315T358 428T264 476H123V504H269Q354 504 412 453T471 315T413 177T269 125H123V153ZM96 32V600Q96 612 82 612H35V630H239V612H192Q178 612 178 600V32Q178
18 192 18H239V0H35V18H82Q96 18 96 32Z" />
<glyph unicode="&#xdf;" glyph-name="germandbls" horiz-adv-x="531" d="M211 46T211 100T252 154Q276 154 291 139Q277 107 277 78T295 31T352 12T418 38T447 92T435 137T390 176L309 230Q282 248 269 265T256 313T274 372T314 420T354 471T373 544T349 611T285
636T212 599T178 495V0H45V18H92Q106 18 106 32V400Q106 414 92 414H45V432H107Q107 544 166 602T305 660Q362 660 403 630T444 549Q444 517 424 487T379 437Q314 386 314 353T367 283L430 241Q473 213 489 187T506 126Q506 72 463 30T355 -12T251 17Z" />
<glyph unicode="&#xe0;" glyph-name="agrave" horiz-adv-x="459" d="M286 233L287 268V303Q287 420 211 420Q178 420 160 398T141 345T149 293Q132 278 102 278T72 327T110 410T220 444Q359 444 359 280V75Q359 21 389 21Q403 21 413 34T424 64T421 96L440 99Q444
84 444 66Q444 30 423 9T366 -12T309 16T287 102V120Q270 52 233 20T148 -12T70 18T40 99T87 189T222 229Q241 229 286 224V233ZM170 26Q212 26 245 73T285 207Q275 208 257 208Q177 208 143 175T108 97Q108 68 125 47T170 26ZM201 614L272 480L256 468L122 602Q122
625 133 636T158 648Q183 648 201 614Z" />
<glyph unicode="&#xe1;" glyph-name="aacute" horiz-adv-x="459" d="M286 233L287 268V303Q287 420 211 420Q178 420 160 398T141 345T149 293Q132 278 102 278T72 327T110 410T220 444Q359 444 359 280V75Q359 21 389 21Q403 21 413 34T424 64T421 96L440 99Q444
84 444 66Q444 30 423 9T366 -12T309 16T287 102V120Q270 52 233 20T148 -12T70 18T40 99T87 189T222 229Q241 229 286 224V233ZM170 26Q212 26 245 73T285 207Q275 208 257 208Q177 208 143 175T108 97Q108 68 125 47T170 26ZM179 480L250 614Q268 648 293 648Q307
648 318 637T329 602L195 468L179 480Z" />
<glyph unicode="&#xe2;" glyph-name="acircumflex" horiz-adv-x="459" d="M286 233L287 268V303Q287 420 211 420Q178 420 160 398T141 345T149 293Q132 278 102 278T72 327T110 410T220 444Q359 444 359 280V75Q359 21 389 21Q403 21 413 34T424 64T421 96L440
99Q444 84 444 66Q444 30 423 9T366 -12T309 16T287 102V120Q270 52 233 20T148 -12T70 18T40 99T87 189T222 229Q241 229 286 224V233ZM170 26Q212 26 245 73T285 207Q275 208 257 208Q177 208 143 175T108 97Q108 68 125 47T170 26ZM170 614Q186 648 213 648T256
614L317 480L301 468L212 583L125 468L109 480L170 614Z" />
<glyph unicode="&#xe3;" glyph-name="atilde" horiz-adv-x="459" d="M286 233L287 268V303Q287 420 211 420Q178 420 160 398T141 345T149 293Q132 278 102 278T72 327T110 410T220 444Q359 444 359 280V75Q359 21 389 21Q403 21 413 34T424 64T421 96L440 99Q444
84 444 66Q444 30 423 9T366 -12T309 16T287 102V120Q270 52 233 20T148 -12T70 18T40 99T87 189T222 229Q241 229 286 224V233ZM170 26Q212 26 245 73T285 207Q275 208 257 208Q177 208 143 175T108 97Q108 68 125 47T170 26ZM339 624L354 617Q330 517 270 517Q254
517 217 530T159 543Q116 543 91 498L76 505Q88 558 111 581T154 604T213 591T271 578Q314 578 339 624Z" />
<glyph unicode="&#xe4;" glyph-name="adieresis" horiz-adv-x="459" d="M286 233L287 268V303Q287 420 211 420Q178 420 160 398T141 345T149 293Q132 278 102 278T72 327T110 410T220 444Q359 444 359 280V75Q359 21 389 21Q403 21 413 34T424 64T421 96L440
99Q444 84 444 66Q444 30 423 9T366 -12T309 16T287 102V120Q270 52 233 20T148 -12T70 18T40 99T87 189T222 229Q241 229 286 224V233ZM170 26Q212 26 245 73T285 207Q275 208 257 208Q177 208 143 175T108 97Q108 68 125 47T170 26ZM93 556T93 576T107 609T140
623T173 610T187 576T173 543T140 529T107 542ZM267 556T267 576T281 609T314 623T347 610T361 576T347 543T314 529T281 542Z" />
<glyph unicode="&#xe5;" glyph-name="aring" horiz-adv-x="459" d="M286 233L287 268V303Q287 420 211 420Q178 420 160 398T141 345T149 293Q132 278 102 278T72 327T110 410T220 444Q359 444 359 280V75Q359 21 389 21Q403 21 413 34T424 64T421 96L440 99Q444
84 444 66Q444 30 423 9T366 -12T309 16T287 102V120Q270 52 233 20T148 -12T70 18T40 99T87 189T222 229Q241 229 286 224V233ZM170 26Q212 26 245 73T285 207Q275 208 257 208Q177 208 143 175T108 97Q108 68 125 47T170 26ZM118 533T118 576T145 644T216 669T287
644T315 576T288 509T217 484T146 508ZM171 608T171 576T183 526T215 508T248 526T262 576T249 626T216 645T184 627Z" />
<glyph unicode="&#xe6;" glyph-name="ae" horiz-adv-x="684" d="M222 229L287 231V303Q287 420 211 420Q178 420 160 398T141 345T149 293Q132 278 102 278T72 327T110 410T220 444Q306 444 339 379Q395 444 485 444Q554 444 594 398T634 263Q634 245 632 223L359
211Q360 118 394 65T483 12T572 40T620 120L639 116Q627 55 584 22T479 -12T367 26T297 135Q282 59 241 24T149 -12T70 18T40 99T87 187T222 229ZM565 297Q565 420 474 420Q427 420 395 368T359 233L560 240Q565 268 565 297ZM170 26Q212 26 245 74T285 208L260
207Q179 204 144 172T108 104T125 47T170 26Z" />
<glyph unicode="&#xe7;" glyph-name="ccedilla" horiz-adv-x="421" d="M244 420Q187 420 152 366T116 216T150 67T239 12T329 40T377 120L396 116Q384 55 341 22T242 -12Q155 -12 98 49T40 216T98 383T244 444Q312 444 346 414T380 332Q380 266 343 266Q313 266
295 282Q309 312 309 344T293 398T244 420ZM277 -141Q277 -84 204 -80L212 0H229L225 -48Q271 -51 296 -74T321 -133T296 -193T232 -218T168 -198T143 -146T176 -114Q190 -114 197 -118Q193 -129 193 -147T203 -180T233 -195T264 -180T277 -141Z" />
<glyph unicode="&#xe8;" glyph-name="egrave" horiz-adv-x="441" d="M242 444Q311 444 351 398T391 263Q391 245 389 223H116V216Q116 121 150 67T239 12T329 40T377 120L396 116Q384 55 341 22T242 -12Q155 -12 98 49T40 215T98 382T242 444ZM322 297Q322 420
230 420Q184 420 152 370T117 243H318Q322 277 322 297ZM204 614L275 480L259 468L125 602Q125 625 136 636T161 648Q186 648 204 614Z" />
<glyph unicode="&#xe9;" glyph-name="eacute" horiz-adv-x="441" d="M242 444Q311 444 351 398T391 263Q391 245 389 223H116V216Q116 121 150 67T239 12T329 40T377 120L396 116Q384 55 341 22T242 -12Q155 -12 98 49T40 215T98 382T242 444ZM322 297Q322 420
230 420Q184 420 152 370T117 243H318Q322 277 322 297ZM172 480L243 614Q261 648 286 648Q300 648 311 637T322 602L188 468L172 480Z" />
<glyph unicode="&#xea;" glyph-name="ecircumflex" horiz-adv-x="441" d="M242 444Q311 444 351 398T391 263Q391 245 389 223H116V216Q116 121 150 67T239 12T329 40T377 120L396 116Q384 55 341 22T242 -12Q155 -12 98 49T40 215T98 382T242 444ZM322 297Q322
420 230 420Q184 420 152 370T117 243H318Q322 277 322 297ZM187 614Q203 648 230 648T273 614L334 480L318 468L229 583L142 468L126 480L187 614Z" />
<glyph unicode="&#xeb;" glyph-name="edieresis" horiz-adv-x="441" d="M242 444Q311 444 351 398T391 263Q391 245 389 223H116V216Q116 121 150 67T239 12T329 40T377 120L396 116Q384 55 341 22T242 -12Q155 -12 98 49T40 215T98 382T242 444ZM322 297Q322
420 230 420Q184 420 152 370T117 243H318Q322 277 322 297ZM99 556T99 576T112 609T146 623T179 610T193 576T180 543T146 529T113 542ZM273 556T273 576T286 609T320 623T353 610T367 576T354 543T320 529T287 542Z" />
<glyph unicode="&#xec;" glyph-name="igrave" horiz-adv-x="269" d="M106 32V400Q106 414 92 414H45V432H94Q154 432 178 438V32Q178 18 192 18H239V0H45V18H92Q106 18 106 32ZM105 614L176 480L160 468L26 602Q26 625 37 636T62 648Q87 648 105 614Z" />
<glyph unicode="&#xed;" glyph-name="iacute" horiz-adv-x="269" d="M106 32V400Q106 414 92 414H45V432H94Q154 432 178 438V32Q178 18 192 18H239V0H45V18H92Q106 18 106 32ZM84 480L155 614Q173 648 198 648Q212 648 223 637T234 602L100 468L84 480Z" />
<glyph unicode="&#xee;" glyph-name="icircumflex" horiz-adv-x="269" d="M106 32V400Q106 414 92 414H45V432H94Q154 432 178 438V32Q178 18 192 18H239V0H45V18H92Q106 18 106 32ZM94 614Q110 648 137 648T180 614L241 480L225 468L136 583L49 468L33 480L94 614Z" />
<glyph unicode="&#xef;" glyph-name="idieresis" horiz-adv-x="269" d="M106 32V400Q106 414 92 414H45V432H94Q154 432 178 438V32Q178 18 192 18H239V0H45V18H92Q106 18 106 32ZM254 556T254 576T268 609T301 623T334 610T348 576T334 543T301 529T268 542ZM428
556T428 576T442 609T475 623T508 610T522 576T508 543T475 529T442 542Z" />
<glyph unicode="&#xf0;" glyph-name="eth" horiz-adv-x="485" d="M169 486L151 521L238 566Q190 610 125 637L132 660Q212 635 275 584L370 633L388 598L306 556Q374 490 410 402T447 219T394 56T247 -12T96 49T40 212T96 375T227 437T351 373L354 374Q326 470
267 536L169 486ZM189 409T153 357T116 213T152 66T244 10T337 65T374 213T337 357T245 409Z" />
<glyph unicode="&#xf1;" glyph-name="ntilde" horiz-adv-x="548" d="M452 292V30Q452 18 466 18H513V0H333V18H366Q380 18 380 30V305Q380 356 358 380T298 405Q246 405 212 344T178 167V32Q178 18 192 18H225V0H45V18H92Q106 18 106 30V400Q106 414 92 414H45V432H94Q154
432 178 438V302Q212 444 328 444Q380 444 416 407T452 292ZM418 624L433 617Q409 517 349 517Q333 517 296 530T238 543Q195 543 170 498L155 505Q167 558 190 581T233 604T292 591T350 578Q393 578 418 624Z" />
<glyph unicode="&#xf2;" glyph-name="ograve" horiz-adv-x="485" d="M40 110T40 216T96 383T242 444T388 383T445 216T389 49T242 -12T96 49ZM116 311T116 216T152 66T242 10T332 65T369 216T333 366T242 422T152 367ZM226 614L297 480L281 468L147 602Q147 625
158 636T183 648Q208 648 226 614Z" />
<glyph unicode="&#xf3;" glyph-name="oacute" horiz-adv-x="485" d="M40 110T40 216T96 383T242 444T388 383T445 216T389 49T242 -12T96 49ZM116 311T116 216T152 66T242 10T332 65T369 216T333 366T242 422T152 367ZM194 480L265 614Q283 648 308 648Q322 648
333 637T344 602L210 468L194 480Z" />
<glyph unicode="&#xf4;" glyph-name="ocircumflex" horiz-adv-x="485" d="M40 110T40 216T96 383T242 444T388 383T445 216T389 49T242 -12T96 49ZM116 311T116 216T152 66T242 10T332 65T369 216T333 366T242 422T152 367ZM199 614Q215 648 242 648T285 614L346
480L330 468L241 583L154 468L138 480L199 614Z" />
<glyph unicode="&#xf5;" glyph-name="otilde" horiz-adv-x="485" d="M40 110T40 216T96 383T242 444T388 383T445 216T389 49T242 -12T96 49ZM116 311T116 216T152 66T242 10T332 65T369 216T333 366T242 422T152 367ZM366 624L381 617Q357 517 297 517Q281 517
244 530T186 543Q143 543 118 498L103 505Q115 558 138 581T181 604T240 591T298 578Q341 578 366 624Z" />
<glyph unicode="&#xf6;" glyph-name="odieresis" horiz-adv-x="485" d="M40 110T40 216T96 383T242 444T388 383T445 216T389 49T242 -12T96 49ZM116 311T116 216T152 66T242 10T332 65T369 216T333 366T242 422T152 367ZM108 556T108 576T122 609T155 623T188
610T202 576T188 543T155 529T122 542ZM282 556T282 576T296 609T329 623T362 610T376 576T362 543T329 529T296 542Z" />
<glyph unicode="&#xf7;" glyph-name="divide" horiz-adv-x="532" d="M462 170H70V223H462V170ZM319 76T319 57T305 24T271 9T238 23T223 57T237 90T271 105T304 91ZM319 356T319 336T305 302T271 288T238 302T223 336T237 370T271 384T304 370Z" />
<glyph unicode="&#xf8;" glyph-name="oslash" horiz-adv-x="485" d="M40 110T40 216T96 383T242 444T388 383T445 216T389 49T242 -12T96 49ZM116 311T116 216T152 66T242 10T332 65T369 216T333 366T242 422T152 367ZM137 113H98L347 835H387L137 113Z" />
<glyph unicode="&#xf9;" glyph-name="ugrave" horiz-adv-x="518" d="M427 438V32Q427 18 441 18H488V0H439Q379 0 355 -6V129Q321 -12 205 -12Q153 -12 117 25T81 140V400Q81 414 67 414H20V432H69Q129 432 153 438V127Q153 76 175 52T235 27Q288 27 321 91T355
277V400Q355 414 341 414H294V432H343Q403 432 427 438ZM234 614L305 480L289 468L155 602Q155 625 166 636T191 648Q216 648 234 614Z" />
<glyph unicode="&#xfa;" glyph-name="uacute" horiz-adv-x="518" d="M427 438V32Q427 18 441 18H488V0H439Q379 0 355 -6V129Q321 -12 205 -12Q153 -12 117 25T81 140V400Q81 414 67 414H20V432H69Q129 432 153 438V127Q153 76 175 52T235 27Q288 27 321 91T355
277V400Q355 414 341 414H294V432H343Q403 432 427 438ZM211 480L282 614Q300 648 325 648Q339 648 350 637T361 602L227 468L211 480Z" />
<glyph unicode="&#xfb;" glyph-name="ucircumflex" horiz-adv-x="518" d="M427 438V32Q427 18 441 18H488V0H439Q379 0 355 -6V129Q321 -12 205 -12Q153 -12 117 25T81 140V400Q81 414 67 414H20V432H69Q129 432 153 438V127Q153 76 175 52T235 27Q288 27 321
91T355 277V400Q355 414 341 414H294V432H343Q403 432 427 438ZM216 614Q232 648 259 648T302 614L363 480L347 468L258 583L171 468L155 480L216 614Z" />
<glyph unicode="&#xfc;" glyph-name="udieresis" horiz-adv-x="518" d="M427 438V32Q427 18 441 18H488V0H439Q379 0 355 -6V129Q321 -12 205 -12Q153 -12 117 25T81 140V400Q81 414 67 414H20V432H69Q129 432 153 438V127Q153 76 175 52T235 27Q288 27 321 91T355
277V400Q355 414 341 414H294V432H343Q403 432 427 438ZM125 556T125 576T138 609T172 623T205 610T219 576T206 543T172 529T139 542ZM299 556T299 576T312 609T346 623T379 610T393 576T380 543T346 529T313 542Z" />
<glyph unicode="&#xfd;" glyph-name="yacute" horiz-adv-x="407" d="M176 480L247 614Q265 648 290 648Q304 648 315 637T326 602L192 468L176 480ZM290 432H417V414H380Q371 414 366 400L193 -63Q190 -72 183 -90L172 -117Q169 -126 163 -141T153 -165T143 -186Q136
-201 123 -214T96 -228T67 -211T48 -173Q139 -134 172 -43L189 3L41 400Q36 414 27 414H-10V432H160V414H110L225 98L341 414H290V432Z" />
<glyph unicode="&#xfe;" glyph-name="thorn" horiz-adv-x="495" d="M86 -184V616Q86 630 72 630H25V648H74Q134 648 158 654V298Q175 370 212 407T296 444Q359 444 407 381T455 214T401 49T258 -12Q203 -12 158 15V-184Q158 -198 172 -198H239V-216H25V-198H72Q86
-198 86 -184ZM379 305T350 355T277 406T195 346T158 177V42Q202 13 254 13T343 66T379 212Z" />
<glyph unicode="&#xff;" glyph-name="ydieresis" horiz-adv-x="407" d="M93 556T93 576T106 609T140 623T173 610T187 576T174 543T140 529T107 542ZM267 556T267 576T280 609T314 623T347 610T361 576T348 543T314 529T281 542ZM290 432H417V414H380Q371 414
366 400L193 -63Q190 -72 183 -90L172 -117Q169 -126 163 -141T153 -165T143 -186Q136 -201 123 -214T96 -228T67 -211T48 -173Q139 -134 172 -43L189 3L41 400Q36 414 27 414H-10V432H160V414H110L225 98L341 414H290V432Z" />
<glyph unicode="&#x2013;" glyph-name="endash" horiz-adv-x="406" d="M30 211V251H376V211H30Z" />
<glyph unicode="&#x2014;" glyph-name="emdash" horiz-adv-x="660" d="M30 211V251H630V211H30Z" />
<glyph unicode="&#x2018;" glyph-name="quoteleft" horiz-adv-x="190" d="M160 654Q113 612 113 569T149 500Q148 476 133 460T95 443Q40 443 40 503Q40 544 70 592T149 668L160 654Z" />
<glyph unicode="&#x2019;" glyph-name="quoteright" horiz-adv-x="190" d="M30 457Q77 499 77 542T41 611Q42 635 57 651T95 668Q150 668 150 608Q150 567 120 519T41 443L30 457Z" />
<glyph unicode="&#x201a;" glyph-name="quotesinglbase" horiz-adv-x="192" d="M31 -111Q78 -69 78 -26T42 43Q43 67 58 83T96 100Q151 100 151 40Q151 -1 121 -49T42 -125L31 -111Z" />
<glyph unicode="&#x201c;" glyph-name="quotedblleft" horiz-adv-x="335" d="M160 654Q113 612 113 569T149 500Q148 476 133 460T95 443Q40 443 40 503Q40 544 70 592T149 668L160 654ZM305 654Q258 612 258 569T294 500Q293 476 278 460T240 443Q185 443 185
503Q185 544 215 592T294 668L305 654Z" />
<glyph unicode="&#x201d;" glyph-name="quotedblright" horiz-adv-x="335" d="M175 457Q222 499 222 542T186 611Q187 635 202 651T240 668Q295 668 295 608Q295 567 265 519T186 443L175 457ZM30 457Q77 499 77 542T41 611Q42 635 57 651T95 668Q150 668 150
608Q150 567 120 519T41 443L30 457Z" />
<glyph unicode="&#x201e;" glyph-name="quotedblbase" horiz-adv-x="335" d="M175 -111Q222 -69 222 -26T186 43Q187 67 202 83T240 100Q295 100 295 40Q295 -1 265 -49T186 -125L175 -111ZM30 -111Q77 -69 77 -26T41 43Q42 67 57 83T95 100Q150 100 150 40Q150
-1 120 -49T41 -125L30 -111Z" />
<glyph unicode="&#x2022;" glyph-name="bullet" horiz-adv-x="226" d="M40 253T40 283T61 334T113 356T164 335T186 283T165 232T113 210T62 231Z" />
<glyph unicode="&#x2039;" glyph-name="guilsinglleft" horiz-adv-x="246" d="M30 225V237L190 408L206 394L112 231L206 68L190 54L30 225Z" />
<glyph unicode="&#x203a;" glyph-name="guilsinglright" horiz-adv-x="246" d="M216 237V225L56 54L40 68L134 231L40 394L56 408L216 237Z" />
</font>
</defs>
</svg>
