<?xml version="1.0" standalone="no"?>
<!DOCTYPE svg PUBLIC "-//W3C//DTD SVG 1.1//EN" "http://www.w3.org/Graphics/SVG/1.1/DTD/svg11.dtd">
<svg xmlns="http://www.w3.org/2000/svg">
<defs >
<font id="Cousine" horiz-adv-x="1229" ><font-face
    font-family="Cousine"
    units-per-em="2048"
    panose-1="2 7 7 9 2 2 5 2 4 4"
    ascent="1705"
    descent="-615"
    alphabetic="0" />
<glyph unicode=" " glyph-name="space" />
<glyph unicode="!" glyph-name="exclam" d="M730 426H500L468 1349H762L730 426ZM468 0V270H756V0H468Z" />
<glyph unicode="&quot;" glyph-name="quotedbl" d="M942 844H743L706 1485H981L942 844ZM486 844H287L250 1485H523L486 844Z" />
<glyph unicode="#" glyph-name="numbersign" d="M951 835L882 511H1119V362H849L771 0H616L695 362H386L308 0H155L233 362H59V511H265L335 835H108V983H367L446 1349H599L521 983H829L908 1349H1061L983 983H1168V835H951ZM488 835L418 511H727L797 835H488Z" />
<glyph unicode="$" glyph-name="dollar" d="M1152 393Q1152 212 1031 113T671 4V-171H562V1Q347 9 227 102T69 389L325 436Q344 323 400 271T562 208V599Q559 601 547 603T531 606Q370 643 288 693T162 821T117 1011Q117 1177 230 1267T562 1367V1501H671V1367Q866
1360 971 1281T1122 1017L858 978Q828 1150 671 1171V819L682 817Q711 817 858 769T1079 628T1152 393ZM562 1175Q379 1161 379 1015Q379 970 394 942T439 893T562 843V1175ZM892 389Q892 439 874 470T822 522T671 575V208Q892 223 892 389Z" />
<glyph unicode="%" glyph-name="percent" d="M236 0H61L993 1353H1170L236 0ZM291 1361Q574 1361 574 1025Q574 858 501 771T287 684Q146 684 73 770T0 1025Q0 1192 70 1276T291 1361ZM398 1025Q398 1132 372 1179T289 1226Q233 1226 205 1181T176 1025Q176 917
205 871T289 824Q398 824 398 1025ZM947 665Q1230 665 1230 329Q1230 162 1157 75T943 -12Q802 -12 729 74T656 329Q656 496 726 580T947 665ZM1054 329Q1054 436 1028 483T945 530Q889 530 861 485T832 329Q832 221 861 175T945 128Q1054 128 1054 329Z" />
<glyph unicode="&amp;" glyph-name="ampersand" d="M24 369Q24 496 104 604T326 779Q255 921 255 1046Q255 1194 348 1275T616 1357Q769 1357 861 1280T953 1073Q953 971 873 884T588 702Q683 536 802 400Q877 549 910 724L1114 697Q1072 460 959 262Q1044 189
1128 189Q1185 189 1221 206V10Q1183 -11 1126 -11Q966 -11 826 104Q662 -19 467 -19Q255 -19 140 81T24 369ZM671 239Q512 415 409 599Q341 559 304 501T267 373Q267 275 322 219T477 163Q581 163 671 239ZM739 1071Q739 1126 708 1160T614 1195Q540 1195 502
1154T463 1044Q463 956 515 859Q615 906 655 935T717 997T739 1071Z" />
<glyph unicode="&apos;" glyph-name="quotesingle" d="M714 844H515L478 1485H751L714 844Z" />
<glyph unicode="(" glyph-name="parenleft" d="M641 -425Q484 -199 414 26T344 531Q344 810 414 1034T641 1484H922Q764 1256 693 1030T621 530Q621 257 692 33T922 -425H641Z" />
<glyph unicode=")" glyph-name="parenright" d="M307 -425Q467 -191 537 32T608 530Q608 805 536 1031T307 1484H588Q746 1257 815 1032T885 531Q885 253 816 28T588 -425H307Z" />
<glyph unicode="*" glyph-name="asterisk" d="M706 1209L941 1313L1009 1116L759 1055L945 842L761 721L615 973L466 721L280 844L470 1055L220 1116L288 1313L527 1209L509 1483H724L706 1209Z" />
<glyph unicode="+" glyph-name="plus" d="M726 569V161H500V569H101V793H500V1201H726V793H1128V569H726Z" />
<glyph unicode="," glyph-name="comma" d="M258 -363L427 299H742L431 -363H258Z" />
<glyph unicode="-" glyph-name="hyphen" d="M324 409V653H904V409H324Z" />
<glyph unicode="." glyph-name="period" d="M470 0V305H759V0H470Z" />
<glyph unicode="/" glyph-name="slash" d="M89 -20L910 1484H1138L321 -20H89Z" />
<glyph unicode="0" glyph-name="zero" d="M1111 675Q1111 336 983 158T611 -20Q366 -20 242 157T117 675Q117 1027 238 1198T619 1370Q869 1370 990 1196T1111 675ZM829 675Q829 851 808 953T743 1103T617 1150Q531 1150 485 1103T419 954T398 675Q398 501 419
398T486 248T613 201Q729 201 779 310T829 675ZM506 555V804H721V555H506Z" />
<glyph unicode="1" glyph-name="one" d="M149 0V209H538V1100Q499 1018 383 962T138 906V1120Q277 1120 387 1181T553 1349H819V209H1142V0H149Z" />
<glyph unicode="2" glyph-name="two" d="M123 0V195Q173 305 265 415T535 670Q673 783 714 826T778 909T802 992Q802 1064 755 1105T617 1146Q527 1146 480 1098T418 952L135 968Q159 1164 281 1267T615 1370Q833 1370 960 1271T1087 1004Q1087 895 1019 792T813
581Q619 431 552 365T455 231H1109V0H123Z" />
<glyph unicode="3" glyph-name="three" d="M1125 376Q1125 187 990 82T615 -23Q385 -23 251 77T93 368L379 393Q404 205 614 205Q719 205 778 255T837 393Q837 480 765 526T557 572H459V799H551Q673 799 738 845T804 975Q804 1050 750 1098T604 1146Q518 1146
462 1106T398 977L117 997Q139 1176 268 1273T609 1370Q757 1370 865 1325T1031 1199T1089 1010Q1089 887 1011 805T788 695V691Q945 673 1035 589T1125 376Z" />
<glyph unicode="4" glyph-name="four" d="M980 287V0H712V287H71V498L666 1349H980V496H1168V287H980ZM712 907Q712 961 715 1024T721 1105Q695 1049 627 943L307 496H712V907Z" />
<glyph unicode="5" glyph-name="five" d="M1123 454Q1123 314 1061 207T880 40T601 -20Q389 -20 262 75T104 352L385 375Q407 285 463 244T604 203Q712 203 773 267T834 448Q834 552 775 614T610 677Q493 677 419 586H145L194 1349H1041V1140H449L426 814Q528
904 681 904Q882 904 1002 781T1123 454Z" />
<glyph unicode="6" glyph-name="six" d="M1115 446Q1115 229 988 105T641 -20Q396 -20 261 163T125 672Q125 1026 260 1198T648 1370Q827 1370 930 1291T1077 1046L812 1009Q774 1148 642 1148Q528 1148 464 1040T400 722Q445 797 525 837T706 877Q891 877 1003
761T1115 446ZM833 438Q833 547 778 608T625 670Q535 670 478 615T420 468Q420 355 479 277T632 199Q725 199 779 263T833 438Z" />
<glyph unicode="7" glyph-name="seven" d="M1092 1126Q837 778 733 517T629 0H336Q336 260 455 533T831 1118H131V1349H1092V1126Z" />
<glyph unicode="8" glyph-name="eight" d="M1120 382Q1120 194 987 87T615 -20Q378 -20 244 86T109 380Q109 508 188 597T396 707V711Q283 736 213 819T142 1012Q142 1176 266 1273T611 1370Q838 1370 961 1276T1085 1010Q1085 904 1014 820T829 713V709Q964 687
1042 600T1120 382ZM796 995Q796 1173 611 1173Q429 1173 429 995Q429 904 476 856T613 808Q796 808 796 995ZM829 405Q829 506 774 558T609 611Q508 611 453 556T398 401Q398 178 617 178Q723 178 776 232T829 405Z" />
<glyph unicode="9" glyph-name="nine" d="M1106 697Q1106 350 971 165T580 -20Q394 -20 289 59T139 311L403 348Q442 201 583 201Q697 201 762 305T830 619Q792 544 706 502T519 459Q336 459 225 582T114 913Q114 1126 244 1248T606 1370Q850 1370 978 1204T1106
697ZM809 879Q809 1001 750 1075T599 1150Q508 1150 454 1086T399 911Q399 803 453 736T600 668Q691 668 750 726T809 879Z" />
<glyph unicode=":" glyph-name="colon" d="M470 0V305H759V0H470ZM470 780V1085H759V780H470Z" />
<glyph unicode=";" glyph-name="semicolon" d="M479 780V1085H768V780H479ZM326 -363L495 299H810L499 -363H326Z" />
<glyph unicode="&lt;" glyph-name="less" d="M101 516V838L1128 1229V1001L295 676L1128 352V125L101 516Z" />
<glyph unicode="=" glyph-name="equal" d="M101 842V1065H1128V842H101ZM101 291V512H1128V291H101Z" />
<glyph unicode="&gt;" glyph-name="greater" d="M101 125V352L933 676L101 1001V1229L1128 838V516L101 125Z" />
<glyph unicode="?" glyph-name="question" d="M1113 986Q1113 921 1091 867T1026 766T831 608Q698 512 693 406H426Q432 509 485 590T635 739Q748 816 789 865T830 974Q830 1051 769 1097T609 1144Q508 1144 440 1085T359 929L74 941Q101 1144 241 1257T605 1370Q837
1370 975 1266T1113 986ZM418 0V270H707V0H418Z" />
<glyph unicode="@" glyph-name="at" d="M1189 755Q1189 457 1107 281T884 104Q741 104 741 261V270L743 309H737Q701 215 638 160T502 104Q396 104 337 204T277 489Q277 650 325 793T457 1018T644 1101Q710 1101 752 1058T808 928H813L846 1079H981L882 572Q842
362 842 294Q842 260 852 243T891 226Q965 226 1011 369T1058 753Q1058 1024 952 1191T670 1358Q521 1358 410 1250T240 947T180 514Q180 206 294 26T604 -155Q698 -155 785 -120T973 3L1044 -94Q929 -193 821 -238T594 -283Q429 -283 304 -186T111 93T44 514Q44
800 121 1021T341 1363T672 1484Q830 1484 946 1394T1126 1138T1189 755ZM755 784Q755 979 646 979Q586 979 537 911T460 727T432 491Q432 230 526 230Q596 230 647 316T727 559T755 784Z" />
<glyph unicode="A" glyph-name="A" d="M1229 0H935L843 330H387L295 0H0L443 1349H787L1229 0ZM615 1167Q607 1125 586 1042T449 552H781Q664 964 644 1045T615 1167Z" />
<glyph unicode="B" glyph-name="B" d="M1186 385Q1186 204 1062 102T719 0H137V1349H662Q880 1349 992 1262T1105 1010Q1105 895 1039 817T836 709Q1007 691 1096 607T1186 385ZM808 970Q808 1130 641 1130H432V811H643Q808 811 808 970ZM889 410Q889 498 836
545T682 593H432V219H689Q889 219 889 410Z" />
<glyph unicode="C" glyph-name="C" d="M380 681Q380 456 450 334T659 212Q821 212 899 456L1172 404Q1039 -20 656 -20Q375 -20 228 158T80 681Q80 1370 648 1370Q834 1370 959 1272T1144 981L872 915Q843 1021 785 1079T652 1138Q380 1138 380 681Z" />
<glyph unicode="D" glyph-name="D" d="M1149 685Q1149 355 995 178T556 0H135V1349H496Q824 1349 986 1185T1149 685ZM852 685Q852 912 767 1016T491 1121H430V228H532Q852 228 852 685Z" />
<glyph unicode="E" glyph-name="E" d="M137 0V1349H1105V1121H432V797H1044V569H432V228H1146V0H137Z" />
<glyph unicode="F" glyph-name="F" d="M462 1121V737H1083V509H462V0H167V1349H1106V1121H462Z" />
<glyph unicode="G" glyph-name="G" d="M1128 185Q885 -20 635 -20Q374 -20 227 163T80 681Q80 1370 638 1370Q818 1370 932 1277T1100 995L826 941Q773 1138 641 1138Q506 1138 443 1030T379 681Q379 458 446 337T650 216Q703 216 759 236T858 290V525H584V743H1128V185Z" />
<glyph unicode="H" glyph-name="H" d="M796 0V574H433V0H138V1349H433V818H796V1349H1091V0H796Z" />
<glyph unicode="I" glyph-name="I" d="M157 1349H1073V1121H762V228H1073V0H157V228H468V1121H157V1349Z" />
<glyph unicode="J" glyph-name="J" d="M564 -20Q368 -20 250 89T102 402L393 445Q413 327 458 269T566 211Q639 211 682 270T725 439V1118H424V1349H1019V446Q1019 228 898 104T564 -20Z" />
<glyph unicode="K" glyph-name="K" d="M881 0L558 557L431 415V0H136V1349H431V750L867 1349H1210L750 770L1229 0H881Z" />
<glyph unicode="L" glyph-name="L" d="M211 0V1349H506V228H1122V0H211Z" />
<glyph unicode="M" glyph-name="M" d="M908 0V868Q908 973 924 1169Q865 879 849 828L725 360H507L381 828Q352 936 305 1169L312 1069Q319 964 319 868V0H99V1349H446L581 850Q596 803 619 619Q639 774 659 849L795 1349H1130V0H908Z" />
<glyph unicode="N" glyph-name="N" d="M748 0L364 1010Q392 758 392 656V0H135V1349H472L865 312Q837 547 837 677V1349H1094V0H748Z" />
<glyph unicode="O" glyph-name="O" d="M1157 679Q1157 334 1017 157T615 -20Q353 -20 213 157T72 679Q72 1024 212 1197T615 1370Q877 1370 1017 1197T1157 679ZM858 679Q858 1138 615 1138Q371 1138 371 679Q371 449 432 331T615 212Q736 212 797 330T858 679Z" />
<glyph unicode="P" glyph-name="P" d="M1142 923Q1142 789 1081 688T905 531T628 476H431V0H136V1349H616Q873 1349 1007 1241T1142 923ZM845 918Q845 1027 780 1073T583 1120H431V703H591Q723 703 784 757T845 918Z" />
<glyph unicode="Q" glyph-name="Q" d="M1157 679Q1157 391 1061 221T779 0Q814 -97 877 -141T1045 -186Q1090 -186 1168 -173V-375Q1042 -403 926 -403Q762 -403 655 -311T482 -7Q282 35 177 207T72 679Q72 1024 212 1197T615 1370Q877 1370 1017 1197T1157 679ZM858
679Q858 1138 615 1138Q371 1138 371 679Q371 449 432 331T615 212Q736 212 797 330T858 679Z" />
<glyph unicode="R" glyph-name="R" d="M895 0L605 515H432V0H137V1349H631Q895 1349 1026 1246T1157 949Q1157 812 1083 716T878 581L1227 0H895ZM860 937Q860 1031 798 1075T600 1120H432V744H608Q860 744 860 937Z" />
<glyph unicode="S" glyph-name="S" d="M1165 391Q1165 199 1019 90T611 -20Q376 -20 228 79T38 367L323 404Q346 310 419 256T619 201Q751 201 814 243T878 374Q878 440 822 485T659 557Q444 609 356 647T214 734T133 846T104 991Q104 1166 244 1268T615 1370Q839
1370 965 1282T1128 1007L842 978Q798 1161 609 1161Q503 1161 447 1122T391 1008Q391 959 418 927T491 872T681 812Q869 766 970 710T1118 573T1165 391Z" />
<glyph unicode="T" glyph-name="T" d="M762 1121V0H467V1121H61V1349H1168V1121H762Z" />
<glyph unicode="U" glyph-name="U" d="M599 -20Q353 -20 241 114T129 528V1349H424V531Q424 356 464 284T607 211Q711 211 758 288T805 541V1349H1100V543Q1100 257 977 119T599 -20Z" />
<glyph unicode="V" glyph-name="V" d="M766 0H467L3 1349H311L544 574Q571 486 618 308L639 394L690 574L922 1349H1227L766 0Z" />
<glyph unicode="W" glyph-name="W" d="M1018 0H770L706 267Q656 456 616 636L581 489L537 312L459 0H211L0 1349H259L348 654Q360 558 364 388L379 464L419 632L518 971H713L812 632Q825 587 834 544T867 388L869 415Q875 576 885 654L969 1349H1228L1018 0Z" />
<glyph unicode="X" glyph-name="X" d="M919 0L616 493L312 0H0L459 711L41 1349H353L616 919L878 1349H1188L760 711L1229 0H919Z" />
<glyph unicode="Y" glyph-name="Y" d="M761 556V0H467V556L3 1349H312L612 783L916 1349H1225L761 556Z" />
<glyph unicode="Z" glyph-name="Z" d="M1138 0H87V209L758 1118H163V1349H1097V1144L426 231H1138V0Z" />
<glyph unicode="[" glyph-name="bracketleft" d="M373 -425V1484H975V1294H639V-234H975V-425H373Z" />
<glyph unicode="\" glyph-name="backslash" d="M908 -20L91 1484H319L1140 -20H908Z" />
<glyph unicode="]" glyph-name="bracketright" d="M254 -425V-234H590V1294H254V1484H856V-425H254Z" />
<glyph unicode="^" glyph-name="asciicircum" d="M922 514L596 1266L272 514H45L436 1409H758L1151 514H922Z" />
<glyph unicode="_" glyph-name="underscore" d="M-5 -220V-124H1233V-220H-5Z" />
<glyph unicode="`" glyph-name="grave" d="M687 1184L347 1415V1458H605L857 1215V1184H687Z" />
<glyph unicode="a" glyph-name="a" d="M439 -20Q282 -20 194 65T106 306Q106 474 210 561T523 652L746 656V711Q746 814 711 867T598 920Q525 920 491 884T448 767L155 781Q209 1102 610 1102Q812 1102 919 1003T1027 712V320Q1027 229 1047 195T1116 160Q1148
160 1178 166V14Q1153 8 1133 3T1093 -5T1051 -10T998 -12Q892 -12 842 40T781 193H775Q712 80 632 30T439 -20ZM746 501L612 499Q522 497 482 481T420 428T399 328Q399 176 519 176Q616 176 681 252T746 446V501Z" />
<glyph unicode="b" glyph-name="b" d="M140 0Q148 136 148 236V1484H429V1090L427 912H429Q470 1003 552 1053T746 1103Q932 1103 1032 956T1132 540Q1132 286 1026 133T737 -20Q633 -20 555 29T431 176H427Q427 143 423 85T412 0H140ZM425 547Q425 427 451 344T526
217T638 172Q734 172 786 264T839 540Q839 723 788 817T636 912Q538 912 482 816T425 547Z" />
<glyph unicode="c" glyph-name="c" d="M624 -20Q378 -20 244 126T110 535Q110 803 245 952T628 1102Q819 1102 944 1006T1101 741L818 727Q806 810 758 859T622 909Q405 909 405 546Q405 172 626 172Q706 172 760 222T827 373L1109 360Q1094 249 1030 162T860
28T624 -20Z" />
<glyph unicode="d" glyph-name="d" d="M817 0Q813 15 808 75T802 176H798Q745 69 667 25T482 -20Q303 -20 200 130T97 539Q97 804 200 952T493 1100Q600 1100 679 1052T800 909H802L800 1087V1484H1081V236Q1081 136 1089 0H817ZM804 546Q804 719 748 814T593
909Q493 909 442 816T390 539Q390 355 442 264T591 172Q653 172 702 216T777 344T804 546Z" />
<glyph unicode="e" glyph-name="e" d="M626 -20Q374 -20 237 128T100 546Q100 726 164 850T348 1038T630 1102Q867 1102 998 944T1129 495V487H395Q395 340 460 254T640 168Q714 168 771 199T848 297L1113 274Q1058 133 930 57T626 -20ZM626 925Q523 925 462 856T397
663H857Q850 783 789 854T626 925Z" />
<glyph unicode="f" glyph-name="f" d="M653 892V0H373V892H117V1082H373V1165Q373 1339 482 1426T795 1514Q954 1514 1122 1486V1302Q972 1321 844 1321Q746 1321 700 1281T653 1139V1082H1096V892H653Z" />
<glyph unicode="g" glyph-name="g" d="M616 -434Q430 -434 313 -357T169 -143L450 -110Q465 -175 512 -213T624 -251Q725 -251 777 -179T829 37V96L831 211H829Q736 12 501 12Q322 12 223 151T124 550Q124 812 227 955T522 1099Q627 1099 706 1051T829 908H834Q834
943 838 1003T848 1082H1114Q1108 974 1108 832V33Q1108 -194 981 -314T616 -434ZM831 556Q831 720 775 813T622 906Q522 906 470 816T417 550Q417 376 471 292T620 207Q722 207 776 301T831 556Z" />
<glyph unicode="h" glyph-name="h" d="M420 866Q477 990 563 1046T768 1102Q936 1102 1020 1000T1104 686V0H824V621Q824 772 784 831T651 891Q549 891 487 804T424 579V0H143V1484H424V1079Q424 970 416 866H420Z" />
<glyph unicode="i" glyph-name="i" d="M794 190H1147V0H118V190H513V892H223V1082H794V190ZM513 1277V1484H794V1277H513Z" />
<glyph unicode="j" glyph-name="j" d="M864 -13Q864 -142 808 -234T647 -376T405 -425Q326 -425 244 -412T117 -382V-172Q253 -206 380 -206Q490 -206 536 -153T582 10V892H228V1082H864V-13ZM583 1277V1484H864V1277H583Z" />
<glyph unicode="k" glyph-name="k" d="M864 0L575 490L454 406V0H173V1484H454V634L840 1082H1142L762 660L1171 0H864Z" />
<glyph unicode="l" glyph-name="l" d="M794 190H1147V0H118V190H513V1294H223V1484H794V190Z" />
<glyph unicode="m" glyph-name="m" d="M501 0V658Q501 807 483 865T414 923Q363 923 334 829T304 582V0H75V851Q75 1040 69 1082H278L284 955V907H286Q320 1009 372 1055T502 1102Q590 1102 633 1054T696 906H698Q738 1012 793 1057T934 1102Q1052 1102 1103 1016T1154
721V0H926V658Q926 807 908 865T839 923Q788 923 759 843T729 601V0H501Z" />
<glyph unicode="n" glyph-name="n" d="M824 0V619Q824 760 786 826T653 892Q549 892 487 804T424 580V0H143V840Q143 927 141 982T135 1082H403Q406 1063 411 981T416 867H420Q477 991 563 1047T768 1103Q1104 1103 1104 687V0H824Z" />
<glyph unicode="o" glyph-name="o" d="M1137 542Q1137 273 1001 127T610 -20Q364 -20 228 126T92 542Q92 810 227 956T616 1102Q1137 1102 1137 542ZM843 542Q843 734 792 821T620 909Q496 909 442 821T387 542Q387 349 442 261T607 172Q731 172 787 259T843 542Z" />
<glyph unicode="p" glyph-name="p" d="M412 1082Q418 1061 422 998T427 906H431Q479 1001 559 1052T747 1103Q927 1103 1029 952T1132 543Q1132 278 1029 129T736 -20Q629 -20 550 28T429 171H427L429 -7V-425H148V846Q148 946 140 1082H412ZM425 536Q425 417
451 337T524 214T636 171Q737 171 788 266T839 543Q839 727 787 819T638 911Q576 911 527 867T452 739T425 536Z" />
<glyph unicode="q" glyph-name="q" d="M1089 1082Q1081 946 1081 846V-425H800V-7L802 171H800Q759 80 677 30T483 -20Q297 -20 197 127T97 543Q97 798 204 950T492 1103Q700 1103 798 906H802Q802 950 808 1009T817 1082H1089ZM804 536Q804 656 778 739T703 866T591
911Q495 911 443 819T390 543Q390 360 441 266T593 171Q691 171 747 267T804 536Z" />
<glyph unicode="r" glyph-name="r" d="M1081 848Q969 867 869 867Q713 867 622 749T530 438V0H250V701Q250 777 237 880T198 1082H469Q505 952 515 854H519Q569 990 654 1046T875 1102Q979 1102 1081 1085V848Z" />
<glyph unicode="s" glyph-name="s" d="M1104 316Q1104 159 976 70T620 -20Q397 -20 279 50T121 270L368 307Q389 230 440 198T620 166Q738 166 792 196T846 290Q846 342 803 372T655 424Q417 471 334 511T208 616T164 775Q164 930 283 1016T622 1103Q815 1103
932 1028T1079 811L830 785Q818 851 771 883T622 916Q522 916 472 891T422 805Q422 758 460 731T590 685Q717 659 815 632T973 566T1068 469T1104 316Z" />
<glyph unicode="t" glyph-name="t" d="M328 892H161V1082H342L430 1364H606V1082H991V892H606V362Q606 274 622 244T676 196T780 178Q904 178 1035 205V19Q893 -4 834 -8T711 -13Q584 -13 499 21T370 129T326 336L328 892Z" />
<glyph unicode="u" glyph-name="u" d="M416 1082V475Q416 337 460 264T588 190Q678 190 736 278T795 502V1082H1076V242Q1076 104 1084 0H816Q804 144 804 215H799Q692 -20 471 -20Q307 -20 221 84T135 395V1082H416Z" />
<glyph unicode="v" glyph-name="v" d="M774 0H438L31 1082H328L537 460Q552 410 608 210Q614 234 644 337T899 1082H1193L774 0Z" />
<glyph unicode="w" glyph-name="w" d="M1028 0H784L641 471Q616 551 614 573Q613 564 603 527T437 0H194L11 1082H239L322 475Q341 323 341 249L361 323L518 817H711L851 362Q866 312 880 249Q880 311 890 392T992 1082H1218L1028 0Z" />
<glyph unicode="x" glyph-name="x" d="M874 0L612 392L348 0H49L455 559L68 1082H371L612 728L852 1082H1157L770 562L1179 0H874Z" />
<glyph unicode="y" glyph-name="y" d="M325 -425Q219 -425 143 -412V-212L194 -217L245 -220Q305 -220 344 -201T415 -138T486 11L38 1082H335L525 555Q565 446 626 221L635 258L716 551L896 1082H1190L742 -57Q662 -263 567 -344T325 -425Z" />
<glyph unicode="z" glyph-name="z" d="M138 0V199L708 879H179V1082H1028V881L461 205H1077V0H138Z" />
<glyph unicode="{" glyph-name="braceleft" d="M718 -425Q584 -425 504 -347T423 -126V202Q423 316 368 372T194 431V626Q315 631 369 687T423 857V1185Q423 1331 501 1407T718 1484H1045V1294H857Q766 1294 726 1242T685 1085V784Q685 689 628 620T478 532V528Q573
506 629 438T685 276V-25Q685 -131 725 -182T857 -234H1045V-425H718Z" />
<glyph unicode="|" glyph-name="bar" d="M483 -455V1484H745V-455H483Z" />
<glyph unicode="}" glyph-name="braceright" d="M184 -425V-234H372Q463 -234 503 -183T544 -25V276Q544 369 600 437T751 528V532Q658 552 601 621T544 784V1085Q544 1190 504 1242T372 1294H184V1484H511Q649 1484 727 1408T806 1185V857Q806 744 860 688T1035
626V431Q916 429 861 373T806 202V-126Q806 -267 726 -346T511 -425H184Z" />
<glyph unicode="~" glyph-name="asciitilde" d="M866 516Q791 516 719 537T571 584Q436 631 350 631Q279 631 220 610T95 543V756Q208 840 366 840Q471 840 608 793Q740 747 790 735T885 723Q1019 723 1133 815V596Q1069 552 1011 534T866 516Z" />
<glyph unicode="&#xa0;" glyph-name="space" />
<glyph unicode="&#xa1;" glyph-name="exclamdown" d="M500 653H730L762 -270H468L500 653ZM762 1079V809H474V1079H762Z" />
<glyph unicode="&#xa2;" glyph-name="cent" d="M635 311Q723 311 782 365T856 520L1139 508Q1117 355 1005 254T715 131V-60H553V129Q338 150 218 286T98 657Q98 889 215 1030T553 1196V1380H715V1196Q884 1177 993 1084T1130 839L848 825Q833 916 777 965T633
1015Q509 1015 445 923T381 667Q381 493 447 402T635 311Z" />
<glyph unicode="&#xa3;" glyph-name="sterling" d="M1180 363Q1149 191 1044 96T788 0H84V205Q186 263 223 335T261 512V594H73V764H251V962Q251 1163 358 1266T677 1370Q846 1370 943 1301T1084 1079L851 1032Q830 1109 789 1144T682 1179Q591 1179 551 1122T511
939V764H797V594H511V514Q511 411 470 338T329 209H719Q823 209 876 258T947 402L1180 363Z" />
<glyph unicode="&#xa4;" glyph-name="currency" d="M179 684Q179 804 239 905L106 1038L263 1194L394 1061Q495 1120 614 1120Q735 1120 833 1061L968 1196L1126 1038L990 903Q1050 804 1050 684Q1050 566 992 467L1126 334L968 174L835 309Q735 250 614 250Q492
250 394 307L259 170L102 328L237 465Q179 564 179 684ZM405 686Q405 600 466 539T614 477Q699 477 760 539T822 686Q822 772 761 833T614 895Q528 895 467 834T405 686Z" />
<glyph unicode="&#xa5;" glyph-name="yen" d="M811 691H1087V545H749V383H1087V236H749V0H477V236H141V383H477V545H141V691H417L33 1349H322L612 813L906 1349H1195L811 691Z" />
<glyph unicode="&#xa6;" glyph-name="brokenbar" d="M483 676V1454H745V676H483ZM483 -455V324H745V-455H483Z" />
<glyph unicode="&#xa7;" glyph-name="section" d="M629 1485Q823 1485 940 1415T1085 1211L846 1186Q833 1248 776 1281T629 1315Q517 1315 465 1286T412 1191Q412 1150 439 1122T515 1072T696 1021Q864 983 944 942T1067 840T1110 692Q1110 599 1055 528T913
429Q1094 350 1094 173Q1094 6 969 -82T610 -171Q387 -171 267 -102T107 117L344 154Q364 74 425 37T610 -1Q732 -1 795 31T858 144Q858 192 834 222T759 274T522 341Q316 390 231 468T145 658Q145 751 200 815T358 914Q268 952 219 1020T170 1172Q170 1321 287
1403T629 1485ZM872 658Q872 729 813 767T580 838Q387 815 387 685Q387 644 414 617T491 568T677 516Q872 526 872 658Z" />
<glyph unicode="&#xa8;" glyph-name="dieresis" d="M713 1219V1438H940V1219H713ZM289 1219V1438H513V1219H289Z" />
<glyph unicode="&#xa9;" glyph-name="copyright" d="M628 333Q460 333 368 446T275 763Q275 965 364 1076T621 1187Q838 1187 924 978L786 935Q737 1062 623 1062Q528 1062 478 986T428 763Q428 621 481 539T628 457Q741 457 799 611L928 569Q891 456 814 395T628
333ZM1197 761Q1197 534 1126 371T923 123T614 38Q437 38 306 123T103 372T31 761Q31 987 102 1150T305 1398T614 1484Q790 1484 922 1399T1126 1152T1197 761ZM1071 761Q1071 1049 952 1208T614 1368Q399 1368 280 1209T160 761Q160 470 280 312T614 153Q831 153
951 311T1071 761Z" />
<glyph unicode="&#xaa;" glyph-name="ordfeminine" d="M445 643Q333 643 268 704T202 875Q202 991 284 1053T528 1118L697 1120V1168Q697 1305 578 1305Q517 1305 487 1279T449 1197L230 1208Q250 1319 341 1380T576 1441Q732 1441 819 1373T906 1171V898Q906
843 916 815T965 787L1021 792V667Q954 646 885 646Q804 646 757 688T704 800H701Q618 643 445 643ZM527 794Q597 794 647 848T697 979V1010L591 1007Q490 1004 455 977T419 891Q419 794 527 794Z" />
<glyph unicode="&#xab;" glyph-name="guillemotleft" d="M857 141L601 502V573L857 940H1095V903L841 537L1097 176V141H857ZM390 141L132 502V573L390 940H626V903L372 537L628 176V141H390Z" />
<glyph unicode="&#xac;" glyph-name="logicalnot" d="M887 141V569H84V793H1111V141H887Z" />
<glyph unicode="&#xad;" glyph-name="hyphen" d="M324 409V653H904V409H324Z" />
<glyph unicode="&#xae;" glyph-name="registered" d="M1197 761Q1197 534 1126 371T923 123T614 38Q437 38 306 123T103 372T31 761Q31 987 102 1150T305 1398T614 1484Q790 1484 922 1399T1126 1152T1197 761ZM789 343L599 672H483V343H332V1174H639Q781 1174
856 1111T932 937Q932 835 882 770T746 686L964 343H789ZM781 935Q781 1062 605 1062H483V782H617Q697 782 739 821T781 935ZM1071 761Q1071 1049 952 1208T614 1368Q399 1368 280 1209T160 761Q160 470 280 312T614 153Q831 153 951 311T1071 761Z" />
<glyph unicode="&#xaf;" glyph-name="overscore" d="M-5 1452V1548H1233V1452H-5Z" />
<glyph unicode="&#xb0;" glyph-name="degree" d="M935 1110Q935 980 842 888T614 795Q482 795 388 886T294 1110Q294 1196 336 1269T452 1383T614 1425Q749 1425 842 1333T935 1110ZM777 1110Q777 1180 731 1228T614 1276Q543 1276 496 1228T448 1110Q448 1041
497 992T614 942Q681 942 729 991T777 1110Z" />
<glyph unicode="&#xb1;" glyph-name="plusminus" d="M726 707V366H502V707H101V930H502V1270H726V930H1128V707H726ZM101 0V223H1128V0H101Z" />
<glyph unicode="&#xb2;" glyph-name="twosuperior" d="M277 563V705Q340 842 543 969Q638 1029 679 1074T720 1166Q720 1273 624 1273Q525 1273 513 1158L285 1164Q300 1282 390 1352T624 1422Q780 1422 866 1357T952 1175Q952 1028 772 913Q639 828 599 796T542
725H967V563H277Z" />
<glyph unicode="&#xb3;" glyph-name="threesuperior" d="M962 799Q962 683 874 617T624 551Q297 551 264 795L486 810Q498 700 620 700Q740 700 740 813Q740 921 577 921H511V1069H571Q646 1069 683 1097T720 1174Q720 1220 693 1246T615 1272Q566 1272 536 1246T500
1167L282 1181Q297 1294 387 1357T621 1421Q769 1421 854 1360T940 1200Q940 1125 897 1072T761 1000V998Q856 987 909 935T962 799Z" />
<glyph unicode="&#xb4;" glyph-name="acute" d="M367 1184V1215L619 1458H877V1415L537 1184H367Z" />
<glyph unicode="&#xb5;" glyph-name="mu1" d="M834 0Q833 12 831 34T826 82T823 136T821 184H818Q740 -20 572 -20Q520 -20 477 4T410 70H406Q410 27 410 -45V-416H129V1082H410V477Q410 193 594 193Q691 193 752 276T813 504V1082H1094V242Q1094 112 1102 0H834Z" />
<glyph unicode="&#xb6;" glyph-name="paragraph" d="M984 1206V-324H828V1206H633V-324H478V634Q309 634 212 726T115 989Q115 1158 213 1253T486 1349H1115V1206H984Z" />
<glyph unicode="&#xb7;" glyph-name="middot.001" d="M470 417V722H758V417H470Z" />
<glyph unicode="&#xb8;" glyph-name="cedilla" d="M493 -255Q493 -349 415 -397T190 -445Q145 -445 89 -439V-321Q124 -328 173 -328Q310 -328 310 -259Q310 -224 282 -207T188 -190Q150 -190 136 -192L205 0H348L308 -102Q402 -107 447 -148T493 -255Z" />
<glyph unicode="&#xb9;" glyph-name="onesuperior" d="M275 563V705H511V1235Q488 1188 416 1154T280 1120V1274Q352 1274 421 1312T521 1410H725V705H945V563H275Z" />
<glyph unicode="&#xba;" glyph-name="ordmasculine" d="M1003 1043Q1003 857 899 750T610 643Q431 643 329 750T227 1043Q227 1230 329 1335T615 1441Q801 1441 902 1338T1003 1043ZM773 1043Q773 1163 738 1220T617 1277Q532 1277 494 1220T455 1043Q455 804
609 804Q696 804 734 862T773 1043Z" />
<glyph unicode="&#xbb;" glyph-name="guillemotright" d="M132 141V176L388 537L134 903V940H372L628 573V502L372 141H132ZM601 141V176L857 537L603 903V940H839L1097 573V502L839 141H601Z" />
<glyph unicode="&#xbc;" glyph-name="onequarter" d="M202 1159Q183 1121 121 1095T1 1068V1233Q59 1233 123 1266T212 1349H393V589H202V1159ZM562 0H400L1138 1349H1299L562 0ZM1107 162V2H916V162H575V311L896 763H1107V313H1189V162H1107ZM922 606Q881 531
857 489T739 313H916V511Q916 563 922 606Z" />
<glyph unicode="&#xbd;" glyph-name="onehalf" d="M203 1159Q184 1121 122 1095T2 1068V1233Q60 1233 124 1266T213 1349H394V589H203V1159ZM547 0H385L1123 1349H1284L547 0ZM658 1V144Q689 216 745 274T882 381Q961 429 992 467T1024 552Q1024 643 945 643Q913
643 894 631T863 598T845 525L665 535Q697 773 947 773Q1078 773 1143 716T1209 558Q1209 497 1186 452T1128 373T1050 311T967 260T895 210T850 154H1200V1H658Z" />
<glyph unicode="&#xbe;" glyph-name="threequarters" d="M591 793Q591 688 515 629T305 569Q178 569 107 622T11 801L216 827Q224 769 245 738T309 706Q391 706 391 810Q391 861 359 885T254 909H213V1040H250Q318 1040 345 1064T372 1144Q372 1189 357 1210T307
1231Q263 1231 246 1203T224 1121L30 1133Q46 1247 114 1304T312 1361Q436 1361 503 1307T570 1158Q570 1092 537 1051T434 984V978Q516 960 553 911T591 793ZM382 0H220L958 1349H1119L382 0ZM1146 162V2H955V162H614V311L935 763H1146V313H1228V162H1146ZM961
606Q920 531 896 489T778 313H955V511Q955 563 961 606Z" />
<glyph unicode="&#xbf;" glyph-name="questiondown" d="M124 96Q124 161 146 215T211 316T407 474Q539 570 544 676H811Q805 574 753 493T602 343Q489 266 448 217T407 108Q407 31 468 -15T628 -62Q729 -62 797 -3T878 153L1163 141Q1135 -63 995 -175T632 -288Q400
-288 262 -184T124 96ZM819 1082V812H530V1082H819Z" />
<glyph unicode="&#xc0;" glyph-name="Agrave" d="M1229 0H935L843 330H387L295 0H0L443 1349H787L1229 0ZM615 1167Q607 1125 586 1042T449 552H781Q664 964 644 1045T615 1167ZM594 1427L254 1658V1701H512L764 1458V1427H594Z" />
<glyph unicode="&#xc1;" glyph-name="Aacute" d="M1229 0H935L843 330H387L295 0H0L443 1349H787L1229 0ZM615 1167Q607 1125 586 1042T449 552H781Q664 964 644 1045T615 1167ZM460 1428V1459L712 1702H970V1659L630 1428H460Z" />
<glyph unicode="&#xc2;" glyph-name="Acircumflex" d="M1229 0H935L843 330H387L295 0H0L443 1349H787L1229 0ZM615 1167Q607 1125 586 1042T449 552H781Q664 964 644 1045T615 1167ZM983 1455V1427H824L621 1561H617L406 1427H246V1455L504 1705H733L983 1455Z" />
<glyph unicode="&#xc3;" glyph-name="Atilde" d="M1229 0H935L843 330H387L295 0H0L443 1349H787L1229 0ZM615 1167Q607 1125 586 1042T449 552H781Q664 964 644 1045T615 1167ZM781 1422Q737 1422 693 1439T606 1478T527 1517T459 1535Q414 1535 392 1512T361
1422H224Q236 1578 291 1641T449 1705Q494 1705 539 1688T626 1649T704 1610T770 1592Q817 1592 839 1618T869 1705H1004Q996 1594 970 1537T897 1451T781 1422Z" />
<glyph unicode="&#xc4;" glyph-name="Adieresis" d="M1229 0H935L843 330H387L295 0H0L443 1349H787L1229 0ZM615 1167Q607 1125 586 1042T449 552H781Q664 964 644 1045T615 1167ZM713 1445V1664H940V1445H713ZM289 1445V1664H513V1445H289Z" />
<glyph unicode="&#xc5;" glyph-name="Aring" d="M1229 0H935L843 330H387L295 0H0L443 1349H787L1229 0ZM615 1167Q607 1125 586 1042T449 552H781Q664 964 644 1045T615 1167ZM859 1479Q859 1392 794 1336T617 1279Q505 1279 440 1335T375 1479Q375 1568 441
1623T617 1678Q728 1678 793 1623T859 1479ZM720 1479Q720 1511 692 1530T617 1550Q571 1550 542 1531T513 1479Q513 1446 542 1427T617 1408Q663 1408 691 1427T720 1479Z" />
<glyph unicode="&#xc6;" glyph-name="AE" d="M616 387H363L261 0H0L372 1349H1176V1147H867V792H1164V592H867V202H1215V0H616V387ZM616 1152H558L512 952L414 586H616V1152Z" />
<glyph unicode="&#xc7;" glyph-name="Ccedilla" d="M380 681Q380 456 450 334T659 212Q821 212 899 456L1172 404Q1039 -20 656 -20Q375 -20 228 158T80 681Q80 1370 648 1370Q834 1370 959 1272T1144 981L872 915Q843 1021 785 1079T652 1138Q380 1138 380 681ZM847
-255Q847 -349 769 -397T544 -445Q499 -445 443 -439V-321Q478 -328 527 -328Q664 -328 664 -259Q664 -224 636 -207T542 -190Q504 -190 490 -192L559 0H702L662 -102Q756 -107 801 -148T847 -255Z" />
<glyph unicode="&#xc8;" glyph-name="Egrave" d="M137 0V1349H1105V1121H432V797H1044V569H432V228H1146V0H137ZM616 1428L276 1659V1702H534L786 1459V1428H616Z" />
<glyph unicode="&#xc9;" glyph-name="Eacute" d="M137 0V1349H1105V1121H432V797H1044V569H432V228H1146V0H137ZM458 1428V1459L710 1702H968V1659L628 1428H458Z" />
<glyph unicode="&#xca;" glyph-name="Ecircumflex" d="M137 0V1349H1105V1121H432V797H1044V569H432V228H1146V0H137ZM983 1455V1427H824L621 1561H617L406 1427H246V1455L504 1705H733L983 1455Z" />
<glyph unicode="&#xcb;" glyph-name="Edieresis" d="M137 0V1349H1105V1121H432V797H1044V569H432V228H1146V0H137ZM733 1445V1664H960V1445H733ZM309 1445V1664H533V1445H309Z" />
<glyph unicode="&#xcc;" glyph-name="Igrave" d="M157 1349H1073V1121H762V228H1073V0H157V228H468V1121H157V1349ZM606 1428L266 1659V1702H524L776 1459V1428H606Z" />
<glyph unicode="&#xcd;" glyph-name="Iacute" d="M157 1349H1073V1121H762V228H1073V0H157V228H468V1121H157V1349ZM470 1428V1459L722 1702H980V1659L640 1428H470Z" />
<glyph unicode="&#xce;" glyph-name="Icircumflex" d="M157 1349H1073V1121H762V228H1073V0H157V228H468V1121H157V1349ZM983 1455V1427H824L621 1561H617L406 1427H246V1455L504 1705H733L983 1455Z" />
<glyph unicode="&#xcf;" glyph-name="Idieresis" d="M157 1349H1073V1121H762V228H1073V0H157V228H468V1121H157V1349ZM713 1445V1664H940V1445H713ZM289 1445V1664H513V1445H289Z" />
<glyph unicode="&#xd0;" glyph-name="Eth" d="M1162 685Q1162 355 1008 178T569 0H148V564H14V783H148V1349H509Q837 1349 999 1185T1162 685ZM865 685Q865 912 780 1016T504 1121H443V783H650V564H443V228H545Q865 228 865 685Z" />
<glyph unicode="&#xd1;" glyph-name="Ntilde" d="M748 0L364 1010Q392 758 392 656V0H135V1349H472L865 312Q837 547 837 677V1349H1094V0H748ZM781 1422Q737 1422 693 1439T606 1478T527 1517T459 1535Q414 1535 392 1512T361 1422H224Q236 1578 291 1641T449
1705Q494 1705 539 1688T626 1649T704 1610T770 1592Q817 1592 839 1618T869 1705H1004Q996 1594 970 1537T897 1451T781 1422Z" />
<glyph unicode="&#xd2;" glyph-name="Ograve" d="M1157 679Q1157 334 1017 157T615 -20Q353 -20 213 157T72 679Q72 1024 212 1197T615 1370Q877 1370 1017 1197T1157 679ZM858 679Q858 1138 615 1138Q371 1138 371 679Q371 449 432 331T615 212Q736 212 797 330T858
679ZM601 1428L261 1659V1702H519L771 1459V1428H601Z" />
<glyph unicode="&#xd3;" glyph-name="Oacute" d="M1157 679Q1157 334 1017 157T615 -20Q353 -20 213 157T72 679Q72 1024 212 1197T615 1370Q877 1370 1017 1197T1157 679ZM858 679Q858 1138 615 1138Q371 1138 371 679Q371 449 432 331T615 212Q736 212 797 330T858
679ZM465 1428V1459L717 1702H975V1659L635 1428H465Z" />
<glyph unicode="&#xd4;" glyph-name="Ocircumflex" d="M1157 679Q1157 334 1017 157T615 -20Q353 -20 213 157T72 679Q72 1024 212 1197T615 1370Q877 1370 1017 1197T1157 679ZM858 679Q858 1138 615 1138Q371 1138 371 679Q371 449 432 331T615 212Q736 212
797 330T858 679ZM983 1455V1427H824L621 1561H617L406 1427H246V1455L504 1705H733L983 1455Z" />
<glyph unicode="&#xd5;" glyph-name="Otilde" d="M1157 679Q1157 334 1017 157T615 -20Q353 -20 213 157T72 679Q72 1024 212 1197T615 1370Q877 1370 1017 1197T1157 679ZM858 679Q858 1138 615 1138Q371 1138 371 679Q371 449 432 331T615 212Q736 212 797 330T858
679ZM781 1422Q737 1422 693 1439T606 1478T527 1517T459 1535Q414 1535 392 1512T361 1422H224Q236 1578 291 1641T449 1705Q494 1705 539 1688T626 1649T704 1610T770 1592Q817 1592 839 1618T869 1705H1004Q996 1594 970 1537T897 1451T781 1422Z" />
<glyph unicode="&#xd6;" glyph-name="Odieresis" d="M1157 679Q1157 334 1017 157T615 -20Q353 -20 213 157T72 679Q72 1024 212 1197T615 1370Q877 1370 1017 1197T1157 679ZM858 679Q858 1138 615 1138Q371 1138 371 679Q371 449 432 331T615 212Q736 212 797
330T858 679ZM716 1445V1664H943V1445H716ZM292 1445V1664H516V1445H292Z" />
<glyph unicode="&#xd7;" glyph-name="multiply" d="M102 326L458 684L106 1036L264 1192L616 842L968 1194L1126 1036L774 682L1126 332L968 172L616 526L260 168L102 326Z" />
<glyph unicode="&#xd8;" glyph-name="Oslash" d="M1157 679Q1157 334 1017 157T615 -20Q400 -20 266 99L160 -43L46 32L177 208Q72 384 72 679Q72 1024 212 1197T615 1370Q827 1370 960 1255L1066 1397L1180 1322L1050 1149Q1157 975 1157 679ZM858 679Q858 788
844 872L436 326Q498 212 615 212Q736 212 797 330T858 679ZM371 679Q371 560 385 486L792 1031Q732 1138 615 1138Q371 1138 371 679Z" />
<glyph unicode="&#xd9;" glyph-name="Ugrave" d="M599 -20Q353 -20 241 114T129 528V1349H424V531Q424 356 464 284T607 211Q711 211 758 288T805 541V1349H1100V543Q1100 257 977 119T599 -20ZM590 1428L250 1659V1702H508L760 1459V1428H590Z" />
<glyph unicode="&#xda;" glyph-name="Uacute" d="M599 -20Q353 -20 241 114T129 528V1349H424V531Q424 356 464 284T607 211Q711 211 758 288T805 541V1349H1100V543Q1100 257 977 119T599 -20ZM453 1428V1459L705 1702H963V1659L623 1428H453Z" />
<glyph unicode="&#xdb;" glyph-name="Ucircumflex" d="M599 -20Q353 -20 241 114T129 528V1349H424V531Q424 356 464 284T607 211Q711 211 758 288T805 541V1349H1100V543Q1100 257 977 119T599 -20ZM983 1455V1427H824L621 1561H617L406 1427H246V1455L504 1705H733L983
1455Z" />
<glyph unicode="&#xdc;" glyph-name="Udieresis" d="M599 -20Q353 -20 241 114T129 528V1349H424V531Q424 356 464 284T607 211Q711 211 758 288T805 541V1349H1100V543Q1100 257 977 119T599 -20ZM713 1445V1664H940V1445H713ZM289 1445V1664H513V1445H289Z" />
<glyph unicode="&#xdd;" glyph-name="Yacute" d="M761 556V0H467V556L3 1349H312L612 783L916 1349H1225L761 556ZM468 1428V1459L720 1702H978V1659L638 1428H468Z" />
<glyph unicode="&#xde;" glyph-name="Thorn" d="M1161 693Q1161 567 1099 467T920 312T647 256H432V0H137V1349H432V1114H635Q885 1114 1023 1004T1161 693ZM864 689Q864 790 795 847T602 905H432V465H610Q725 465 794 525T864 689Z" />
<glyph unicode="&#xdf;" glyph-name="germandbls" d="M1178 312Q1178 150 1078 65T791 -20Q645 -20 529 23V229Q579 206 646 188T761 170Q842 170 879 204T916 296Q916 348 878 392T747 498Q578 607 578 760Q578 814 605 861T690 958Q751 1012 776 1052T801 1138Q801
1203 755 1242T620 1281Q517 1281 463 1218T409 1013V0H128V1007Q128 1241 255 1362T623 1484Q829 1484 948 1394T1067 1149Q1067 1095 1051 1053T1009 976T955 915T900 866T859 823T842 782Q842 757 862 735T1010 618Q1178 493 1178 312Z" />
<glyph unicode="&#xe0;" glyph-name="agrave" d="M439 -20Q282 -20 194 65T106 306Q106 474 210 561T523 652L746 656V711Q746 814 711 867T598 920Q525 920 491 884T448 767L155 781Q209 1102 610 1102Q812 1102 919 1003T1027 712V320Q1027 229 1047 195T1116
160Q1148 160 1178 166V14Q1153 8 1133 3T1093 -5T1051 -10T998 -12Q892 -12 842 40T781 193H775Q712 80 632 30T439 -20ZM746 501L612 499Q522 497 482 481T420 428T399 328Q399 176 519 176Q616 176 681 252T746 446V501ZM829 1184L489 1415V1458H747L999 1215V1184H829Z"
/>
<glyph unicode="&#xe1;" glyph-name="aacute" d="M439 -20Q282 -20 194 65T106 306Q106 474 210 561T523 652L746 656V711Q746 814 711 867T598 920Q525 920 491 884T448 767L155 781Q209 1102 610 1102Q812 1102 919 1003T1027 712V320Q1027 229 1047 195T1116
160Q1148 160 1178 166V14Q1153 8 1133 3T1093 -5T1051 -10T998 -12Q892 -12 842 40T781 193H775Q712 80 632 30T439 -20ZM746 501L612 499Q522 497 482 481T420 428T399 328Q399 176 519 176Q616 176 681 252T746 446V501ZM444 1184V1215L696 1458H954V1415L614
1184H444Z" />
<glyph unicode="&#xe2;" glyph-name="acircumflex" d="M439 -20Q282 -20 194 65T106 306Q106 474 210 561T523 652L746 656V711Q746 814 711 867T598 920Q525 920 491 884T448 767L155 781Q209 1102 610 1102Q812 1102 919 1003T1027 712V320Q1027 229 1047 195T1116
160Q1148 160 1178 166V14Q1153 8 1133 3T1093 -5T1051 -10T998 -12Q892 -12 842 40T781 193H775Q712 80 632 30T439 -20ZM746 501L612 499Q522 497 482 481T420 428T399 328Q399 176 519 176Q616 176 681 252T746 446V501ZM1221 1211V1183H1062L859 1317H855L644
1183H484V1211L742 1461H971L1221 1211Z" />
<glyph unicode="&#xe3;" glyph-name="atilde" d="M439 -20Q282 -20 194 65T106 306Q106 474 210 561T523 652L746 656V711Q746 814 711 867T598 920Q525 920 491 884T448 767L155 781Q209 1102 610 1102Q812 1102 919 1003T1027 712V320Q1027 229 1047 195T1116
160Q1148 160 1178 166V14Q1153 8 1133 3T1093 -5T1051 -10T998 -12Q892 -12 842 40T781 193H775Q712 80 632 30T439 -20ZM746 501L612 499Q522 497 482 481T420 428T399 328Q399 176 519 176Q616 176 681 252T746 446V501ZM1029 1183Q985 1183 941 1200T854 1239T775
1278T707 1296Q662 1296 640 1273T609 1183H472Q484 1339 539 1402T697 1466Q742 1466 787 1449T874 1410T952 1371T1018 1353Q1065 1353 1087 1379T1117 1466H1252Q1244 1355 1218 1298T1145 1212T1029 1183Z" />
<glyph unicode="&#xe4;" glyph-name="adieresis" d="M439 -20Q282 -20 194 65T106 306Q106 474 210 561T523 652L746 656V711Q746 814 711 867T598 920Q525 920 491 884T448 767L155 781Q209 1102 610 1102Q812 1102 919 1003T1027 712V320Q1027 229 1047 195T1116
160Q1148 160 1178 166V14Q1153 8 1133 3T1093 -5T1051 -10T998 -12Q892 -12 842 40T781 193H775Q712 80 632 30T439 -20ZM746 501L612 499Q522 497 482 481T420 428T399 328Q399 176 519 176Q616 176 681 252T746 446V501ZM953 1219V1438H1180V1219H953ZM529 1219V1438H753V1219H529Z"
/>
<glyph unicode="&#xe5;" glyph-name="aring" d="M439 -20Q282 -20 194 65T106 306Q106 474 210 561T523 652L746 656V711Q746 814 711 867T598 920Q525 920 491 884T448 767L155 781Q209 1102 610 1102Q812 1102 919 1003T1027 712V320Q1027 229 1047 195T1116
160Q1148 160 1178 166V14Q1153 8 1133 3T1093 -5T1051 -10T998 -12Q892 -12 842 40T781 193H775Q712 80 632 30T439 -20ZM746 501L612 499Q522 497 482 481T420 428T399 328Q399 176 519 176Q616 176 681 252T746 446V501ZM1104 1348Q1104 1261 1039 1205T862
1148Q750 1148 685 1204T620 1348Q620 1437 686 1492T862 1547Q973 1547 1038 1492T1104 1348ZM965 1348Q965 1380 937 1399T862 1419Q816 1419 787 1400T758 1348Q758 1315 787 1296T862 1277Q908 1277 936 1296T965 1348Z" />
<glyph unicode="&#xe6;" glyph-name="ae" d="M699 484V482Q699 333 743 247T864 160Q924 160 956 198T1004 301L1182 256Q1145 116 1065 48T868 -20Q753 -20 687 35T586 212Q536 94 457 37T278 -20Q155 -20 88 66T20 302Q20 474 102 565T350 660L497 664V719Q497
812 467 866T381 920Q332 920 307 883T273 773L65 790Q104 1102 380 1102Q556 1102 627 963Q712 1102 873 1102Q1039 1102 1123 961T1208 527V484H699ZM229 299Q229 235 249 199T308 162Q386 162 441 248T497 445V499L395 496Q302 493 266 447T229 299ZM859 924Q819
924 783 892T725 801T701 660H1002Q994 793 960 858T859 924Z" />
<glyph unicode="&#xe7;" glyph-name="ccedilla" d="M624 -20Q378 -20 244 126T110 535Q110 803 245 952T628 1102Q819 1102 944 1006T1101 741L818 727Q806 810 758 859T622 909Q405 909 405 546Q405 172 626 172Q706 172 760 222T827 373L1109 360Q1094 249 1030
162T860 28T624 -20ZM830 -255Q830 -349 752 -397T527 -445Q482 -445 426 -439V-321Q461 -328 510 -328Q647 -328 647 -259Q647 -224 619 -207T525 -190Q487 -190 473 -192L542 0H685L645 -102Q739 -107 784 -148T830 -255Z" />
<glyph unicode="&#xe8;" glyph-name="egrave" d="M626 -20Q374 -20 237 128T100 546Q100 726 164 850T348 1038T630 1102Q867 1102 998 944T1129 495V487H395Q395 340 460 254T640 168Q714 168 771 199T848 297L1113 274Q1058 133 930 57T626 -20ZM626 925Q523
925 462 856T397 663H857Q850 783 789 854T626 925ZM864 1184L524 1415V1458H782L1034 1215V1184H864Z" />
<glyph unicode="&#xe9;" glyph-name="eacute" d="M626 -20Q374 -20 237 128T100 546Q100 726 164 850T348 1038T630 1102Q867 1102 998 944T1129 495V487H395Q395 340 460 254T640 168Q714 168 771 199T848 297L1113 274Q1058 133 930 57T626 -20ZM626 925Q523
925 462 856T397 663H857Q850 783 789 854T626 925ZM478 1184V1215L730 1458H988V1415L648 1184H478Z" />
<glyph unicode="&#xea;" glyph-name="ecircumflex" d="M626 -20Q374 -20 237 128T100 546Q100 726 164 850T348 1038T630 1102Q867 1102 998 944T1129 495V487H395Q395 340 460 254T640 168Q714 168 771 199T848 297L1113 274Q1058 133 930 57T626 -20ZM626 925Q523
925 462 856T397 663H857Q850 783 789 854T626 925ZM990 1211V1183H831L628 1317H624L413 1183H253V1211L511 1461H740L990 1211Z" />
<glyph unicode="&#xeb;" glyph-name="edieresis" d="M626 -20Q374 -20 237 128T100 546Q100 726 164 850T348 1038T630 1102Q867 1102 998 944T1129 495V487H395Q395 340 460 254T640 168Q714 168 771 199T848 297L1113 274Q1058 133 930 57T626 -20ZM626 925Q523
925 462 856T397 663H857Q850 783 789 854T626 925ZM721 1219V1438H948V1219H721ZM297 1219V1438H521V1219H297Z" />
<glyph unicode="&#xec;" glyph-name="igrave" d="M794 190H1147V0H118V190H513V892H223V1082H794V190ZM876 1184L536 1415V1458H794L1046 1215V1184H876Z" />
<glyph unicode="&#xed;" glyph-name="iacute" d="M794 190H1147V0H118V190H513V892H223V1082H794V190ZM471 1184V1215L723 1458H981V1415L641 1184H471Z" />
<glyph unicode="&#xee;" glyph-name="icircumflex" d="M794 190H1147V0H118V190H513V892H223V1082H794V190ZM993 1211V1183H834L631 1317H627L416 1183H256V1211L514 1461H743L993 1211Z" />
<glyph unicode="&#xef;" glyph-name="idieresis" d="M794 190H1147V0H118V190H513V892H223V1082H794V190ZM754 1219V1438H981V1219H754ZM330 1219V1438H554V1219H330Z" />
<glyph unicode="&#xf0;" glyph-name="eth" d="M820 1266Q1135 946 1135 541V537Q1135 270 999 125T607 -20Q360 -20 222 112T84 479Q84 717 221 848T611 979Q689 979 745 959Q688 1078 604 1176L369 1074L292 1229L478 1308Q390 1379 220 1484H513Q609 1436 673
1390L922 1499L1005 1345L820 1266ZM841 477Q841 637 788 711T615 786Q490 786 435 711T379 477Q379 170 602 170Q729 170 785 244T841 477Z" />
<glyph unicode="&#xf1;" glyph-name="ntilde" d="M824 0V619Q824 760 786 826T653 892Q549 892 487 804T424 580V0H143V840Q143 927 141 982T135 1082H403Q406 1063 411 981T416 867H420Q477 991 563 1047T768 1103Q1104 1103 1104 687V0H824ZM791 1183Q747 1183
703 1200T616 1239T537 1278T469 1296Q424 1296 402 1273T371 1183H234Q246 1339 301 1402T459 1466Q504 1466 549 1449T636 1410T714 1371T780 1353Q827 1353 849 1379T879 1466H1014Q1006 1355 980 1298T907 1212T791 1183Z" />
<glyph unicode="&#xf2;" glyph-name="ograve" d="M1137 542Q1137 273 1001 127T610 -20Q364 -20 228 126T92 542Q92 810 227 956T616 1102Q1137 1102 1137 542ZM843 542Q843 734 792 821T620 909Q496 909 442 821T387 542Q387 349 442 261T607 172Q731 172 787
259T843 542ZM873 1184L533 1415V1458H791L1043 1215V1184H873Z" />
<glyph unicode="&#xf3;" glyph-name="oacute" d="M1137 542Q1137 273 1001 127T610 -20Q364 -20 228 126T92 542Q92 810 227 956T616 1102Q1137 1102 1137 542ZM843 542Q843 734 792 821T620 909Q496 909 442 821T387 542Q387 349 442 261T607 172Q731 172 787
259T843 542ZM468 1184V1215L720 1458H978V1415L638 1184H468Z" />
<glyph unicode="&#xf4;" glyph-name="ocircumflex" d="M1137 542Q1137 273 1001 127T610 -20Q364 -20 228 126T92 542Q92 810 227 956T616 1102Q1137 1102 1137 542ZM843 542Q843 734 792 821T620 909Q496 909 442 821T387 542Q387 349 442 261T607 172Q731 172
787 259T843 542ZM983 1211V1183H824L621 1317H617L406 1183H246V1211L504 1461H733L983 1211Z" />
<glyph unicode="&#xf5;" glyph-name="otilde" d="M1137 542Q1137 273 1001 127T610 -20Q364 -20 228 126T92 542Q92 810 227 956T616 1102Q1137 1102 1137 542ZM843 542Q843 734 792 821T620 909Q496 909 442 821T387 542Q387 349 442 261T607 172Q731 172 787
259T843 542ZM781 1183Q737 1183 693 1200T606 1239T527 1278T459 1296Q414 1296 392 1273T361 1183H224Q236 1339 291 1402T449 1466Q494 1466 539 1449T626 1410T704 1371T770 1353Q817 1353 839 1379T869 1466H1004Q996 1355 970 1298T897 1212T781 1183Z" />
<glyph unicode="&#xf6;" glyph-name="odieresis" d="M1137 542Q1137 273 1001 127T610 -20Q364 -20 228 126T92 542Q92 810 227 956T616 1102Q1137 1102 1137 542ZM843 542Q843 734 792 821T620 909Q496 909 442 821T387 542Q387 349 442 261T607 172Q731 172
787 259T843 542ZM713 1219V1438H940V1219H713ZM289 1219V1438H513V1219H289Z" />
<glyph unicode="&#xf7;" glyph-name="divide" d="M494 961V1194H732V961H494ZM101 569V793H1128V569H101ZM494 170V403H732V170H494Z" />
<glyph unicode="&#xf8;" glyph-name="oslash" d="M1137 542Q1137 273 1001 127T610 -20Q410 -20 282 77L197 -20L101 58L196 165Q92 308 92 542Q92 810 227 956T616 1102Q821 1102 945 1015L1024 1104L1122 1026L1035 928Q1137 788 1137 542ZM843 542Q843 625
832 698L443 259Q498 172 607 172Q731 172 787 259T843 542ZM387 542Q387 458 397 394L784 832Q731 909 620 909Q496 909 442 821T387 542Z" />
<glyph unicode="&#xf9;" glyph-name="ugrave" d="M416 1082V475Q416 337 460 264T588 190Q678 190 736 278T795 502V1082H1076V242Q1076 104 1084 0H816Q804 144 804 215H799Q692 -20 471 -20Q307 -20 221 84T135 395V1082H416ZM849 1184L509 1415V1458H767L1019
1215V1184H849Z" />
<glyph unicode="&#xfa;" glyph-name="uacute" d="M416 1082V475Q416 337 460 264T588 190Q678 190 736 278T795 502V1082H1076V242Q1076 104 1084 0H816Q804 144 804 215H799Q692 -20 471 -20Q307 -20 221 84T135 395V1082H416ZM457 1184V1215L709 1458H967V1415L627
1184H457Z" />
<glyph unicode="&#xfb;" glyph-name="ucircumflex" d="M416 1082V475Q416 337 460 264T588 190Q678 190 736 278T795 502V1082H1076V242Q1076 104 1084 0H816Q804 144 804 215H799Q692 -20 471 -20Q307 -20 221 84T135 395V1082H416ZM983 1211V1183H824L621 1317H617L406
1183H246V1211L504 1461H733L983 1211Z" />
<glyph unicode="&#xfc;" glyph-name="udieresis" d="M416 1082V475Q416 337 460 264T588 190Q678 190 736 278T795 502V1082H1076V242Q1076 104 1084 0H816Q804 144 804 215H799Q692 -20 471 -20Q307 -20 221 84T135 395V1082H416ZM713 1219V1438H940V1219H713ZM289
1219V1438H513V1219H289Z" />
<glyph unicode="&#xfd;" glyph-name="yacute" d="M325 -425Q219 -425 143 -412V-212L194 -217L245 -220Q305 -220 344 -201T415 -138T486 11L38 1082H335L525 555Q565 446 626 221L635 258L716 551L896 1082H1190L742 -57Q662 -263 567 -344T325 -425ZM474 1184V1215L726
1458H984V1415L644 1184H474Z" />
<glyph unicode="&#xfe;" glyph-name="thorn" d="M143 1484H424V1072L420 904H424Q535 1103 745 1103Q924 1103 1025 956T1127 545Q1127 279 1022 130T727 -20Q628 -20 549 30T424 172H418Q424 142 424 -10V-425H143V1484ZM844 545Q844 908 636 908Q535 908 478
811T420 537Q420 362 477 267T634 172Q743 172 793 266T844 545Z" />
<glyph unicode="&#xff;" glyph-name="ydieresis" d="M325 -425Q219 -425 143 -412V-212L194 -217L245 -220Q305 -220 344 -201T415 -138T486 11L38 1082H335L525 555Q565 446 626 221L635 258L716 551L896 1082H1190L742 -57Q662 -263 567 -344T325 -425ZM718
1219V1438H945V1219H718ZM294 1219V1438H518V1219H294Z" />
<glyph unicode="&#x2013;" glyph-name="endash" d="M162 418V621H1066V418H162Z" />
<glyph unicode="&#x2014;" glyph-name="emdash" d="M-10 418V621H1238V418H-10Z" />
<glyph unicode="&#x2018;" glyph-name="quoteleft" d="M861 1484L692 862H367L678 1484H861Z" />
<glyph unicode="&#x2019;" glyph-name="quoteright" d="M369 862L538 1484H863L552 862H369Z" />
<glyph unicode="&#x201a;" glyph-name="quotesinglbase" d="M319 -363L488 259H813L502 -363H319Z" />
<glyph unicode="&#x201c;" glyph-name="quotedblleft" d="M631 1484L462 862H137L448 1484H631ZM1090 1484L921 862H596L907 1484H1090Z" />
<glyph unicode="&#x201d;" glyph-name="quotedblright" d="M597 862L766 1484H1091L780 862H597ZM138 862L307 1484H632L321 862H138Z" />
<glyph unicode="&#x201e;" glyph-name="quotedblbase" d="M597 -364L766 258H1091L780 -364H597ZM138 -364L307 258H632L321 -364H138Z" />
<glyph unicode="&#x2022;" glyph-name="bullet" d="M907 681Q907 560 820 473T612 386Q493 386 407 472T321 681Q321 803 406 888T612 974Q734 974 820 889T907 681Z" />
<glyph unicode="&#x2039;" glyph-name="guilsinglleft" d="M614 141L356 502V573L614 940H850V903L596 537L852 176V141H614Z" />
<glyph unicode="&#x203a;" glyph-name="guilsinglright" d="M376 141V176L632 537L378 903V940H614L872 573V502L614 141H376Z" />
</font>
</defs>
</svg>
