<?xml version="1.0" standalone="no"?>
<!DOCTYPE svg PUBLIC "-//W3C//DTD SVG 1.1//EN" "http://www.w3.org/Graphics/SVG/1.1/DTD/svg11.dtd">
<svg xmlns="http://www.w3.org/2000/svg">
<defs >
<font id="GiveYouGlory" horiz-adv-x="556" ><font-face
    font-family="Give You Glory"
    units-per-em="1024"
    panose-1="2 0 0 0 0 0 0 0 0 0"
    ascent="1020"
    descent="-625"
    alphabetic="0" />
<glyph unicode=" " glyph-name="space" horiz-adv-x="512" />
<glyph unicode="!" glyph-name="exclam" horiz-adv-x="142" d="M41 24Q28 39 32 53T48 87Q80 99 96 94T117 76T115 47T97 19T70 7T41 24ZM64 386Q62 444 68 505T71 623Q69 661 70 692T70 733Q69 743 66 756T62 782T65 805T85 820Q106 826 117 804Q118 780 118
735T118 639T118 543T119 473Q119 468 114 448T100 408T82 379T64 386Z" />
<glyph unicode="&quot;" glyph-name="quotedbl" horiz-adv-x="260" d="M32 488Q31 494 34 518T42 571T55 630T72 677T91 694T111 663Q115 651 111 626T99 572T86 518T79 481Q77 473 70 471T55 469T40 475T32 488ZM158 488Q141 496 143 518T156 565T185 612T216
644T238 645T237 599Q236 595 233 586T226 567T219 549T213 537Q223 523 220 511T207 492T184 484T158 488Z" />
<glyph unicode="#" glyph-name="numbersign" horiz-adv-x="1016" d="M519 8Q518 11 516 14Q512 20 512 24V32Q525 33 535 47T553 82T564 129T571 177T574 216T574 237H566Q558 235 541 232T501 224T454 213T407 199T369 184T346 166Q344 163 344 151T344 121T344
85T339 52T328 32T307 32Q303 34 297 39T291 47V150Q285 147 269 140T236 126T203 112T181 102Q170 97 152 87T117 73T90 75T86 111Q137 142 186 161T291 205Q305 222 313 261T324 345T327 436T323 512Q285 503 251 486T183 449T117 413T47 386Q36 383 31 388T24
402T25 419T31 433Q55 466 95 484T179 514T265 540T338 575Q335 617 343 641T362 674T383 680T393 662V591H401Q404 591 414 593T437 598T459 603T472 606Q479 607 498 611T539 618T579 625T606 630Q616 633 618 648T622 679T632 705T662 709Q664 709 666 706T669
701V646Q694 644 720 649T773 660T824 668T873 662Q892 655 894 641T888 609T862 575T827 544T791 523T764 520V536L826 599Q817 599 791 600T735 600T682 593T653 575Q651 564 648 535T641 473T634 411T630 371Q630 368 630 360T629 343T629 326T630 315H645Q655
318 680 323T732 335T784 346T819 354Q829 356 847 362T887 375T931 385T970 387T998 373T1008 339Q995 317 972 316T929 323Q894 317 855 310T776 294T697 275T622 252Q615 210 612 185T605 138T597 91T583 24Q573 7 555 2T519 8ZM346 284Q346 281 346 273T345
257T345 240T346 228Q373 224 406 229T471 246T533 271T583 299Q584 312 587 344T595 413T602 482T606 527Q607 533 607 547T606 567Q581 570 550 569T488 561T428 545T378 520Q370 493 365 462T357 401T351 340T346 284Z" />
<glyph unicode="$" glyph-name="dollar" horiz-adv-x="497" d="M189 -87Q121 -48 82 11T31 138T37 274T102 402Q107 409 111 411T126 410Q132 394 125 372T105 324T80 267T62 202T65 131T102 56Q108 48 117 36T135 12T150 -7T158 -15H165Q185 99 214 214T275 442V473Q257
502 238 541T206 622T190 705T199 780T245 834T339 859Q341 871 342 878T346 890T350 902T356 921Q373 935 381 935T393 927T396 906T393 878T388 852T386 835Q408 811 426 789T456 743T472 692T472 630Q467 621 453 612T423 599T392 598T369 615Q361 631 366 639T382
652T405 661T423 676T424 705T394 756Q389 764 381 771T362 772Q354 737 346 701T331 628T322 554T322 481Q325 452 341 423T377 365T415 305T441 244Q449 211 447 166T432 75T399 -12T347 -79T277 -109T189 -87ZM213 -47Q242 -77 275 -68T337 -22T385 70T406 186T385
306T307 410Q290 378 281 340T267 260T259 175T252 92T238 17T213 -47ZM244 615Q246 610 251 599T263 576T275 552T283 536L292 544Q293 556 297 586T307 650T316 714T322 756Q322 759 323 764T326 776T329 788T331 796Q326 817 304 809T261 774T231 704T244 615Z"
/>
<glyph unicode="%" glyph-name="percent" horiz-adv-x="740" d="M102 8Q101 13 101 28T102 47Q158 116 208 190T315 331Q342 362 372 394T436 456T504 512T574 559Q590 568 606 571T632 571T642 556T623 527Q600 504 570 483T509 440T448 398T394 354Q391 352
378 333T344 286T299 222T247 152T196 86T151 34T118 4T102 8ZM527 111Q513 125 514 147T525 190T547 229T570 248T582 234T574 173V158Q598 149 618 154T651 174T671 207T674 245T656 279T614 299Q606 301 599 299T586 294T573 287T559 284Q548 284 553 294T574
315T612 336T655 343T693 325T717 268Q723 228 714 196T683 142T630 110T559 102Q553 103 541 106T527 111ZM62 378Q30 399 23 427T23 486T54 546T106 598T168 632T230 641T282 615T315 544Q320 521 309 496T276 448T227 406T169 377T111 366T62 378ZM79 433Q90
415 116 417T171 433T227 471T264 517T263 561T205 591Q182 595 154 581T104 542T73 488T79 433Z" />
<glyph unicode="&amp;" glyph-name="ampersand" horiz-adv-x="583" d="M426 24Q417 38 414 55T410 92T408 130T402 166Q306 123 236 113T119 114T47 155T17 220T25 294T66 362T138 408T237 418Q259 415 278 405T313 380T346 351T379 323H386Q388 346 386 367T380
410T370 453T362 497Q384 526 397 525T419 502T430 448T436 379T441 313T450 268Q456 271 467 285T490 314T514 339T536 346Q556 338 559 325T554 297T531 266T501 236T473 212T457 197Q452 189 460 168T477 118T491 61T481 8Q462 3 449 5T426 24ZM87 173Q118 156
158 154T240 160T320 184T386 220Q389 229 386 239T378 258T367 277T354 292Q306 345 261 361T179 368T114 332T73 274T61 215T87 173Z" />
<glyph unicode="&apos;" glyph-name="quotesingle" horiz-adv-x="173" d="M99 457Q97 458 95 464T91 472Q89 486 80 520T61 593T48 664T51 709Q60 722 71 715T93 689T115 640T132 581T142 522T142 474T129 448T99 457Z" />
<glyph unicode="(" glyph-name="parenleft" horiz-adv-x="268" d="M209 -157Q192 -136 172 -101T132 -21T93 71T59 165T35 253T24 323Q22 360 22 391T24 452T32 511T47 575Q51 593 61 625T86 690T119 749T158 780Q172 783 180 773T189 749Q189 734 178 716T151
678T122 640T102 606Q89 564 84 503T81 372T95 229T125 91T171 -25T233 -102Q239 -105 246 -103T261 -96T278 -88T296 -87Q298 -98 294 -115T283 -148T264 -177T241 -189Q239 -188 235 -184T225 -174T215 -164T209 -157Z" />
<glyph unicode=")" glyph-name="parenright" horiz-adv-x="228" d="M58 -216Q55 -200 58 -183T68 -149T80 -114T90 -82Q106 -55 120 0T142 126T150 275T140 428T106 564T45 663Q27 657 21 667T17 692T30 722T55 740T88 731T124 678Q139 643 154 597T181 501T201
403T213 315Q213 309 211 279T203 205T189 107T171 0T150 -103T127 -188T101 -241T74 -248Q73 -247 71 -243T66 -234T61 -224T58 -216Z" />
<glyph unicode="*" glyph-name="asterisk" horiz-adv-x="504" d="M141 8Q121 18 119 40T119 89T129 141T134 181Q115 184 98 176T62 166Q30 161 20 164T14 174T34 191T67 211T98 228T118 237Q120 238 126 240T134 244Q133 245 125 252T105 269T82 291T65 314T61
333T79 346Q82 347 91 347T102 346Q120 341 140 344T176 346T199 327T197 268Q208 271 212 283T218 311T221 343T226 372T239 388T267 386Q278 381 279 367T277 335T268 303T260 284Q278 281 302 284T351 295T401 310T441 323Q444 332 452 332T471 325T489 309T500
289T495 270T465 260Q455 259 434 258T386 254T332 247T284 237T251 223T244 205Q247 198 255 195T271 190T286 184T292 173V118Q292 106 283 106T262 110T240 122T228 134Q217 131 213 117T208 85T204 49T196 17T178 0T141 8Z" />
<glyph unicode="+" glyph-name="plus" horiz-adv-x="606" d="M173 47Q170 59 175 69T188 87Q185 160 183 233T173 378Q158 380 139 373T102 358T66 343T39 339Q11 348 9 361T16 386T43 407T71 418Q76 419 89 422T118 429T146 436T165 441Q166 462 163 482T156
521T150 560T150 599Q152 614 160 619T178 623T196 613T205 591Q206 583 207 564T209 524T211 484T212 457L220 449Q220 449 244 452T300 461T367 471T425 480Q428 481 446 485T487 495T534 502T574 502T594 486T583 449Q582 447 579 445T574 441Q486 451 395 437T220
394Q219 379 221 344T225 266T231 175T235 89T235 25T228 0H188Q188 0 186 5T182 18T177 34T173 47Z" />
<glyph unicode="," glyph-name="comma" horiz-adv-x="200" d="M96 -267Q89 -262 89 -248T94 -214T107 -173T123 -129T136 -90T143 -62Q144 -54 144 -40T142 -12T139 14T135 32Q132 40 116 56T81 91T50 125T41 150Q55 178 76 173T119 140T157 66T182 -34T181 -145T143
-252Q132 -270 124 -275T96 -267Z" />
<glyph unicode="-" glyph-name="hyphen" horiz-adv-x="567" d="M24 260Q21 267 21 277T22 296T31 312T47 323Q60 326 99 328T191 331T300 332T407 331T489 328T527 323Q543 312 539 300T521 277T491 263T464 267Q414 268 361 265T253 257T144 250T39 252Q37 252
31 255T24 260Z" />
<glyph unicode="." glyph-name="period" horiz-adv-x="217" d="M123 32Q120 37 114 52T104 86T99 121T108 150Q147 145 167 128T192 90T192 49T175 17T149 6T123 32Z" />
<glyph unicode="/" glyph-name="slash" horiz-adv-x="433" d="M15 8Q4 16 4 27T9 49T21 70T32 87Q63 148 89 202T143 308T200 409T268 512Q319 576 355 615Q370 631 383 643T405 659T416 655T410 623Q402 601 387 581T352 541T315 502T284 465Q252 418 227 377T180
293T135 204T87 102Q84 95 80 75T68 35T48 6T15 8Z" />
<glyph unicode="0" glyph-name="zero" horiz-adv-x="410" d="M134 8Q100 18 77 57T39 150T20 268T15 389T22 493T39 559Q42 565 49 566T65 567T79 561T87 551Q92 519 87 478T76 390T64 296T64 205T88 127T150 71Q183 54 212 66T266 110T308 188T335 286T345 392T334
491T299 570T237 614Q198 626 175 613T126 567Q117 562 115 568T117 585T130 611T154 637T187 656T228 662Q277 657 310 623T362 538T385 423T382 296T352 174T300 74T227 13T134 8Z" />
<glyph unicode="1" glyph-name="one" horiz-adv-x="141" d="M62 24Q51 155 42 280T24 536Q23 547 27 556T38 570T54 573T71 559Q70 512 77 447T94 312T111 179T119 71T106 12T62 24Z" />
<glyph unicode="2" glyph-name="two" horiz-adv-x="678" d="M71 15Q69 23 69 40T71 63Q73 68 89 96T129 165T179 257T226 356T260 448T268 518T237 552T157 536Q133 525 121 509T101 473T83 435T54 401Q30 419 27 442T28 491T41 544T47 599Q49 608 56 612T71 617T88
617T102 614Q104 600 116 596T146 592T186 593T230 593T275 581T314 551Q319 490 304 429T263 309T206 194T150 87V71Q219 67 280 74T400 98T517 135T638 181Q640 182 645 182T653 181Q665 161 647 141T590 103T500 68T390 39T277 18T176 5T102 3T71 15Z" />
<glyph unicode="3" glyph-name="three" horiz-adv-x="457" d="M141 8Q118 13 107 28T95 63T98 102T114 137T138 158T165 158Q170 146 165 136T154 115T145 94T150 71Q165 48 189 46T241 55T295 89T344 139T377 194T386 244Q382 274 361 290T312 311T255 313T205
299Q193 293 185 283T169 261T154 238T134 220Q119 212 111 218T98 237T95 262T102 284Q112 298 130 321T167 371T203 429T231 487T242 541T228 583Q196 590 173 580T131 550T101 505T79 457Q75 448 73 441T66 429T54 424T32 425Q26 426 26 441T29 480T37 529T48
579T58 618T62 638Q77 654 87 655T104 650T111 628T111 599Q122 608 138 617T173 633T210 642T244 638Q267 629 276 610T285 566T277 514T261 462T242 417T228 386V371Q299 368 343 349T409 301T432 236T419 164T377 96T312 40T231 8T141 8Z" />
<glyph unicode="4" glyph-name="four" horiz-adv-x="630" d="M527 32Q526 40 525 60T522 106T521 161T520 218T519 267T520 299Q519 300 511 291T493 269T473 244T457 228Q445 221 435 218T410 213Q369 212 320 211T221 211T122 220T32 244Q25 247 21 268T13 321T9
389T8 459T10 517T15 551Q17 556 24 561T40 569T56 570T63 559V339Q63 315 89 298T157 272T249 261T345 265T428 286T480 323Q487 332 490 359T496 421T502 490T512 550T530 584T559 575Q561 573 564 567T567 559Q569 502 569 447T568 336T571 224T583 111Q598
101 600 80T594 39T571 7T536 0Q535 4 532 16T527 32Z" />
<glyph unicode="5" glyph-name="five" horiz-adv-x="480" d="M134 15Q114 37 124 56T157 90T209 113T252 118Q256 109 250 100T234 83T212 68T197 55Q234 35 272 44T341 79T389 143T403 221T370 296T275 354Q210 377 159 366T62 299Q38 293 30 310T24 358T40 427T69
502T102 566T134 606Q149 618 180 627T249 643T326 651T395 648T441 632T449 599Q441 578 419 576T366 579T299 590T228 592T162 569T111 504Q107 496 102 484T93 459T87 433T87 410Q105 405 128 408T178 415T238 418T307 401Q360 380 391 347T436 275T447 195T428
117T382 50T315 4T231 -11T134 15Z" />
<glyph unicode="6" glyph-name="six" horiz-adv-x="520" d="M118 8Q90 19 71 48T40 119T24 208T20 305T29 398T49 476T79 528T118 544Q123 520 117 491T100 431T81 370T71 315Q69 269 70 221T84 135T129 73T220 55Q231 56 245 59T274 68T299 82T315 102Q329 134
331 178T341 265T367 341T433 386Q462 392 477 378T504 339Q507 295 493 248T453 157T389 78T307 20T215 -7T118 8ZM378 173Q378 172 384 170T394 166H401Q411 176 427 198T455 245T468 293T449 331Q432 321 416 303T388 262T374 217T378 173Z" />
<glyph unicode="7" glyph-name="seven" horiz-adv-x="630" d="M220 94Q241 108 251 140T266 210T274 282T284 339H275Q221 322 173 303T71 260Q58 252 51 265T45 297T55 328T86 331Q137 347 175 358T239 382T282 411T306 455T316 522T314 623Q273 612 241 596T178
562T118 525T54 488Q42 482 32 490T17 511T12 536T24 551Q58 569 96 588T173 627T252 663T331 693Q342 697 349 692T361 678Q364 645 361 613T353 548T346 483T346 418Q409 437 470 452T591 497Q591 497 596 490T605 472T612 449T613 429T599 416T566 418H559Q548
416 521 409T464 395T407 381T370 371Q353 366 345 363T333 356T328 345T323 323Q320 309 313 273T299 197T285 121T275 71Q281 50 273 34T253 8T231 -2T220 8V94Z" />
<glyph unicode="8" glyph-name="eight" horiz-adv-x="465" d="M71 15Q45 34 35 72T24 156T33 251T54 337T80 399T102 418Q111 413 111 404T110 386Q99 353 90 318T74 247T67 175T71 102Q92 72 116 64T166 62T216 91T260 141T293 206T310 277T306 347T275 410Q264
423 250 423T221 419T192 411T165 410Q160 412 155 425T145 453T137 481T133 497Q129 510 129 536T131 595T143 660T166 719T201 759T250 768Q257 766 249 749T225 706T193 649T167 589T160 534T188 497Q226 492 248 492T288 498T323 524T370 575Q380 586 390 593T406
608T414 625T407 650Q403 656 385 661T345 672T304 681T280 690T290 700T352 712Q406 720 429 707T455 670T442 613T404 549T355 490T307 449Q322 415 332 391T347 343T354 291T354 220Q352 194 338 164T302 104T250 51T190 12T128 -3T71 15Z" />
<glyph unicode="9" glyph-name="nine" horiz-adv-x="394" d="M244 8Q241 12 245 40T256 110T273 201T291 295T304 378T307 433Q288 419 272 400T240 360T208 319T173 284Q128 246 97 247T48 276T24 351T25 452T51 558T100 650T172 707T267 709Q303 698 324 671T354
607T364 523T359 429T346 333T330 243T317 166T314 111Q317 115 323 122T336 136T352 144T370 141Q368 132 361 115T344 77T320 39T294 8T267 -5T244 8ZM71 331Q87 310 107 314T150 331Q210 364 244 404T293 484T304 562T286 625T247 664T195 668T139 626T86 527Q79
507 70 482T56 430T53 378T71 331Z" />
<glyph unicode=":" glyph-name="colon" horiz-adv-x="158" d="M79 213Q67 230 67 244T74 268T92 283T114 290T133 288T141 276V213Q141 209 135 206T121 199T105 194T94 189H102Q99 192 90 201T79 213ZM54 450Q47 461 41 466T30 477T22 492T15 520Q18 523 23 528T34
538T45 545T54 544L94 505Q101 498 99 489T90 470T75 453T62 441Q61 442 58 445T54 450Z" />
<glyph unicode=";" glyph-name="semicolon" horiz-adv-x="261" d="M70 -286Q67 -281 70 -278Q113 -264 132 -244T157 -199T157 -146T145 -89T135 -32T140 22Q147 43 161 30T187 -16T207 -94T210 -181T184 -255T117 -293Q112 -294 105 -295T92 -296T79 -294T70
-286ZM77 305Q54 323 50 345T54 386T83 416T132 424Q153 398 154 373T146 329T116 304T77 305Z" />
<glyph unicode="&lt;" glyph-name="less" horiz-adv-x="638" d="M481 8Q469 10 444 13T386 21T319 31T252 41T195 49T158 55Q156 55 151 56T139 59T126 62T119 63H32Q19 63 13 76T7 106T17 133T47 141Q55 146 74 159T115 188T155 217T181 237Q184 239 198 252T229
283T264 318T292 346Q305 360 314 375T332 407T350 438T371 465Q374 468 387 464T409 448T418 419T394 378L205 189Q182 175 161 160T119 126Q120 121 126 119T138 114T150 112T158 111Q213 103 270 94T384 78T499 69T614 71Q626 53 612 39T572 15T520 4T481 8Z"
/>
<glyph unicode="=" glyph-name="equal" horiz-adv-x="457" d="M14 152Q-5 178 6 193T46 214T117 219T204 212T289 198T356 180T388 164T369 152Q348 153 316 150T248 143T173 136T103 132T46 135T14 152ZM307 292Q242 297 178 299T47 299Q36 304 28 311T16 331Q11
352 31 361T84 373T157 371T232 362T290 351T315 346Q338 329 343 313T343 286T326 276T307 292Z" />
<glyph unicode="&gt;" glyph-name="greater" horiz-adv-x="441" d="M220 15Q216 29 228 58T259 125T302 202T344 279T371 344T370 386Q368 389 359 392T346 394H133Q130 394 118 391T90 384T60 378T39 378Q28 383 23 395T15 418Q11 434 21 441T46 449T75 450T94
449Q152 451 188 453T256 457T324 457T417 449Q425 431 426 410T425 371Q421 359 410 330T386 269T362 207T346 166Q341 152 332 122T310 61T278 12T236 0Q233 2 228 7T220 15Z" />
<glyph unicode="?" glyph-name="question" horiz-adv-x="527" d="M284 8Q265 22 261 38T263 68T286 90T323 94Q332 93 337 82T344 57T344 29T334 5T314 -5T284 8ZM270 277Q262 300 277 334T320 409T380 498T442 595T486 693T498 789Q494 797 483 800T466 805Q408
809 356 797T257 758T168 696T88 616Q86 616 76 616T56 616T39 623T33 639Q35 650 52 666T95 702T151 740T209 776T257 805T285 821Q325 842 369 849T458 852Q518 846 536 813T546 731T509 625T449 515T388 419T348 356Q341 344 336 329T325 301T309 276T285 262Q277
260 275 264T270 277Z" />
<glyph unicode="@" glyph-name="at" horiz-adv-x="1130" d="M220 -165Q156 -154 117 -114T59 -20T40 94T54 205Q83 307 134 410T250 604T392 768T550 883Q641 927 718 931T856 912T963 838T1038 724T1080 587T1088 442T1060 302T996 184T895 102T755 71Q691 71
641 106T574 205Q564 210 551 201T521 177T485 145T445 117T400 105T354 119Q324 139 312 182T302 282T318 400T354 517T404 616T461 679T520 688T574 623Q601 565 617 501T629 371Q612 364 607 343T603 296T610 248T621 213Q639 173 674 152T750 126T832 133T905
173Q999 258 1031 370T1039 607Q1028 659 1007 707T952 792T874 854T771 883Q699 888 628 864T491 795T364 688T254 555T165 407T105 256T77 115T88 -5T144 -92T251 -134Q267 -136 285 -137T321 -136T355 -128T384 -110Q390 -112 392 -118T394 -130T394 -143T393
-149Q386 -147 364 -150T314 -157T261 -165T220 -165ZM361 189Q363 187 369 181T377 173Q419 168 452 192T508 255T539 337T542 418Q553 423 559 443T566 491T563 548T551 600T529 637T498 644T458 609T409 520Q375 446 358 371T346 213Q348 210 353 201T361 189ZM566
237Q561 237 561 229T566 221Q572 221 572 229T566 237Z" />
<glyph unicode="A" glyph-name="A" horiz-adv-x="754" d="M150 8Q115 22 93 49T57 112T37 188T30 269T29 346T32 410Q36 499 66 571T155 717Q193 762 226 776T288 784T339 752T378 695T403 627T415 563T411 516T390 499Q384 526 382 538T375 562T363 593T336 655Q308
711 279 726T223 725T172 668T127 573T93 456T73 336T70 228T87 150Q94 132 104 112T130 77T163 52T205 47Q253 57 288 88T348 163T390 261T418 370T438 477T452 571T466 639T485 670Q495 673 502 669T513 657T518 640T517 623Q484 566 472 508T462 394T482 288T523
195T577 120T636 69T692 47T738 61Q778 103 800 112T829 113T829 80T804 35T758 -4T696 -19T622 13T540 109Q523 131 508 158T480 213T455 269T433 323Q427 294 416 255T387 175T346 97T293 34T227 0T150 8Z" />
<glyph unicode="B" glyph-name="B" horiz-adv-x="685" d="M220 8Q170 17 140 30T93 60T73 101T70 153T74 217T79 296Q79 324 79 359T78 429T76 499T75 559T73 601T72 618L64 626Q61 621 55 614T40 610Q11 621 12 641T35 685T97 731T186 769T289 790T394 783Q453
783 474 763T493 713T472 647T432 580T393 527T378 501Q477 489 538 459T628 388T659 299T639 205T576 118T479 48T357 7T220 8ZM181 63Q267 32 348 38T492 82T588 185T614 335Q604 368 577 389T520 422Q454 448 409 449T331 438T275 401T229 356T180 319T118 304V173Q120
171 127 175T144 185T164 194T181 197V189L134 118Q129 111 135 102T150 85T168 71T181 63ZM118 509Q118 501 119 482T121 442T124 401T126 375Q150 402 185 424T259 467T335 510T399 561T439 626T442 712Q425 727 396 735T333 746T264 744T197 728T143 699T111
657Q111 645 112 625T114 584T117 542T118 509Z" />
<glyph unicode="C" glyph-name="C" horiz-adv-x="606" d="M181 15Q133 29 101 60T50 135T24 230T20 336T35 446T65 551T107 641T158 709Q184 735 207 740T249 737T283 708T307 665T318 617T316 574T297 547T260 544Q249 557 253 577T262 617T265 656T237 685Q212
695 190 680T150 633T117 555T92 459T78 356T73 259T81 178T102 126Q123 101 147 87T199 67T255 61T315 63Q350 65 379 79T435 112T488 147T544 173Q581 184 585 172T570 136T509 85T415 35T302 6T181 15Z" />
<glyph unicode="D" glyph-name="D" horiz-adv-x="630" d="M110 15Q110 20 109 32T107 59T104 85T102 102L94 118Q96 187 96 239T94 340T85 440T69 561Q59 612 58 644Q58 657 59 667T65 681T78 679T101 655Q104 631 108 588T117 497T126 406T133 339Q134 331 135
313T138 275T140 238T141 213Q147 207 149 196T152 174T151 154T150 141Q156 129 170 121T201 107T236 98T267 94Q345 89 407 122T508 212T559 341T551 488Q538 534 508 568T437 625T346 664T244 687T141 696T45 696Q37 699 37 705T41 719T51 733T61 742Q142 757
223 746T375 701T505 613T598 488Q626 419 622 355T591 238T516 146T411 85T287 62T157 87Q157 83 159 67T161 33T152 4T126 0Q124 2 118 7T110 15Z" />
<glyph unicode="E" glyph-name="E" horiz-adv-x="727" d="M118 15Q99 27 87 58T67 132T56 227T53 332T53 436T57 529T60 600T62 638Q59 629 47 633T25 648T14 672T31 693Q55 703 81 709T136 721T191 730T244 740L717 757Q732 765 748 763T776 753T790 732T780
702Q764 703 729 703T646 704T543 702T431 699T321 692T225 681T154 666T118 646Q101 617 97 573T93 480T100 385T110 307Q125 305 131 305T140 306T148 310T165 315Q171 316 189 319T233 328T287 338T340 348T385 357T410 362Q446 369 459 375T476 387T484 398T504
410Q523 416 528 405T526 375T499 339T449 315Q433 312 392 304T304 287T216 271T157 260Q155 259 148 256T134 249T120 242T110 237Q109 236 106 233T102 228Q106 138 127 96T186 45T281 49T417 87Q437 93 464 98T519 113T569 134T606 166Q610 172 608 176T603
185T600 196T606 213Q652 201 661 183T653 143T597 100T508 58T400 23T290 1T191 -4T118 15Z" />
<glyph unicode="F" glyph-name="F" horiz-adv-x="709" d="M141 8Q139 9 133 15T126 24Q121 91 129 160T145 300T156 439T141 575L133 606H39Q30 606 27 613T24 630T26 649T31 662Q33 664 35 667T39 670H133V725Q133 743 141 739T160 722T179 695T188 678Q242 670
295 670T402 673T508 685T614 701Q620 702 629 697T646 685T657 669T653 653Q635 635 601 627T524 617T433 616T339 618T254 617T188 606Q190 534 189 463T185 319T181 176T181 32L165 0Q164 -2 155 1T141 8ZM220 371Q218 371 216 374T212 378Q216 389 222 402T237
423T257 431T284 418Q297 417 330 421T407 430T497 442T584 452T652 456T685 449Q693 438 680 427T640 406T575 388T495 373T410 362T329 358T262 360T220 371Z" />
<glyph unicode="G" glyph-name="G" horiz-adv-x="796" d="M201 -23Q129 -5 90 48T36 172T30 326T62 486T121 627T198 727T283 761T365 705Q400 657 416 601T428 485Q411 464 392 459T355 457T320 471T294 492T281 511T287 520H373Q374 530 373 550T366 596T353
646T333 690T306 718T270 722Q236 710 211 677T167 603T136 518T114 445Q70 300 77 205T124 61T231 5T371 29T518 128T646 292Q658 312 673 333T693 378Q687 380 661 372T601 351T528 326T458 307T408 302T394 323Q397 335 412 349T448 374T489 389T520 386Q545
390 573 402T631 426T688 447T740 457Q770 457 778 448T784 425T772 396T756 371Q724 315 691 259T620 154T540 63T446 -3T335 -34T201 -23Z" />
<glyph unicode="H" glyph-name="H" horiz-adv-x="717" d="M55 47Q48 77 56 122T76 217T102 314T118 397H39Q37 397 33 403T25 419T20 437T23 454T41 462T79 457Q83 455 90 455T103 452Q110 450 118 449L126 473Q127 474 127 491T129 532T130 582T129 628Q129 632
126 644T121 673T117 706T118 737T129 758T153 762Q158 760 163 750T168 738Q166 697 167 663T170 594T173 525T173 449Q210 440 263 435T374 432T484 445T574 480Q587 488 596 510T611 562T623 624T633 688T643 743T657 779T677 786T704 753V730Q699 659 690 595T672
467T653 340T638 205Q636 181 637 164T640 131T640 98T630 55Q617 46 605 47T583 63Q580 109 585 155T596 248T606 341T606 433Q500 398 388 390T165 386Q164 378 161 357T153 312T146 267T141 237Q133 186 127 131T111 24Q109 12 101 6T79 8Q77 9 73 14T65 26T58
38T55 47Z" />
<glyph unicode="I" glyph-name="I" horiz-adv-x="134" d="M40 8Q38 8 36 11T32 15Q30 90 31 165T35 315T39 464T40 614Q41 631 49 641T67 654T86 649T102 623V614Q85 489 85 359T87 102Q90 104 97 108T111 111Q112 97 109 74T98 32T75 3T40 8Z" />
<glyph unicode="J" glyph-name="J" horiz-adv-x="672" d="M252 8Q248 9 236 15T220 24Q174 67 139 106T82 189T50 284T47 401Q49 406 53 409T62 410Q69 353 81 306T113 218T164 140T236 63Q248 52 262 49T292 47T321 56T346 71Q383 100 407 143T444 238T456 344T448
452T420 552T375 634Q334 640 293 633T210 616T127 599T45 595Q25 619 35 631T69 649T118 656T154 658Q161 659 184 662T233 668T283 676T320 682Q325 683 340 685T359 690Q378 692 417 697T505 708T608 721T711 734T798 745T856 752Q857 752 868 756T894 765T920
773T934 776Q956 765 962 753T965 730T951 710T931 695T912 690T903 697H840L478 650L446 643Q459 623 469 584T486 494T492 385T484 270T459 162T414 74T346 19T252 8Z" />
<glyph unicode="K" glyph-name="K" horiz-adv-x="757" d="M590 14Q557 19 519 38T440 85T355 145T267 210T180 270T95 317Q87 274 84 239T81 171T83 102T87 24Q90 9 82 7T64 9T44 21T32 32V55Q36 116 39 162T45 251T49 339T48 443Q48 450 47 469T45 511T42 555T40
585Q40 587 37 601T31 636T26 679T25 718T34 745T56 750Q66 742 72 717T83 659T89 587T92 513T93 448T95 403Q108 399 128 405T169 421T208 442T238 459Q287 489 334 518T420 583T486 663T521 766Q521 768 524 771T529 774Q534 775 548 775T568 774Q593 749 586
716T551 648T483 576T402 510T327 457T277 427Q270 424 252 415T214 396T176 377T151 364L139 352Q264 264 359 199T534 103T683 82T826 156Q842 148 838 134T817 102T773 67T714 37T650 17T590 14Z" />
<glyph unicode="L" glyph-name="L" horiz-adv-x="693" d="M39 8Q20 15 15 24T15 55Q30 127 47 196T77 335T98 475T102 623Q111 640 120 635T135 616T146 584T150 559Q144 500 138 444T125 331T108 219T86 102Q80 72 104 60T162 44T232 43T284 47Q293 48 317 50T369
54T422 59T457 63Q466 73 487 78T533 87T582 96T622 111Q630 116 643 123T669 126V102Q665 98 651 86T620 59T586 27T559 0Q559 2 556 5T551 8Q499 15 433 15T300 11T171 3T62 0Q59 1 50 3T39 8Z" />
<glyph unicode="M" glyph-name="M" horiz-adv-x="985" d="M866 8Q864 10 858 16T850 24Q846 52 848 91T854 175T865 268T876 361T883 446T882 515Q877 560 857 591T806 638T740 659T668 655T599 627T543 578Q522 551 507 512T481 427T461 332T446 235T432 145T417
71Q417 69 414 66T410 63Q407 63 402 63T390 62T378 62T370 63Q364 68 363 98T364 172T369 266T377 361T383 439T386 483Q382 561 356 607T293 662T218 639T150 530Q139 503 133 458T123 360T115 252T106 149T89 65T62 15Q50 24 43 37T31 63V71Q38 124 43 198T51
351T53 504T47 633Q46 646 37 667T21 710T16 751T39 782Q44 785 47 782L86 743Q84 724 85 700T89 650T95 599T102 554Q142 655 191 690T288 710T374 636T433 492Q452 502 467 527T499 583T538 641T591 688Q643 718 696 717T796 691T875 622T922 523Q927 500 929
465T931 389T929 304T923 220T915 144T905 87Q910 84 915 87T925 94T936 102T952 102Q956 89 949 68T929 30T899 4T866 8Z" />
<glyph unicode="N" glyph-name="N" horiz-adv-x="851" d="M24 15Q17 24 17 51T21 113T32 187T45 258T57 313T63 339Q77 432 89 516T102 693Q134 712 164 705T222 677T273 630T315 583Q325 572 345 549T390 497T442 437T495 377T539 325T567 292Q573 285 586 267T615
229T643 191T662 166Q684 238 691 316T701 474T709 633T733 787Q738 809 749 814T774 815T800 796T820 769T828 742T819 725Q815 723 803 723T788 732L780 725Q779 724 776 710T770 678T763 639T757 606Q746 541 742 475T736 343T730 211T717 79Q708 56 696 56T670
70T642 105T617 148T599 186T591 205Q503 316 413 416T221 614Q210 622 195 632T166 638Q165 635 163 626T158 607T153 588T150 575Q132 434 116 296T79 15Q63 0 50 -1T24 15Z" />
<glyph unicode="O" glyph-name="O" horiz-adv-x="662" d="M173 8Q146 14 122 28T78 62T44 106T24 158Q21 222 27 281T46 398T80 513T126 630Q126 632 129 635T134 638Q139 639 154 639T173 638Q178 600 163 553T127 454T84 350T57 247T67 155T134 79Q164 60 201
54T275 53T348 73T410 111Q484 174 522 240T571 372T570 496T528 602T459 682T375 725T286 722T205 662Q190 654 188 658T191 674T211 700T241 730T275 756T307 772Q324 776 345 774T386 764T426 747T457 725Q476 707 497 688T538 647T576 601T606 551Q636 485
636 415T612 278T543 156T440 62T313 8T173 8Z" />
<glyph unicode="P" glyph-name="P" horiz-adv-x="578" d="M143 -41Q132 33 125 90T111 195T98 288T83 379T63 483T34 612Q26 656 47 692T107 754T197 792T301 805T402 788T485 736T532 648T529 518Q507 445 482 402T417 335T318 300T167 282L135 298V290Q137 278
141 248T151 184T160 120T167 77Q170 70 173 52T179 12T181 -30T178 -60T166 -68T143 -41ZM121 375Q123 358 124 353T127 344T131 335T135 313Q153 332 176 334T225 335T281 332T340 341T400 379T458 463Q490 526 494 574T485 658T440 714T371 744T291 752T209
738T139 704T90 651Q87 647 88 627T93 578T100 516T109 454T117 403T121 375Z" />
<glyph unicode="Q" glyph-name="Q" horiz-adv-x="614" d="M520 -118Q497 -97 478 -74T441 -28T404 19T362 63Q355 66 330 61T276 50T219 37T181 32Q129 25 93 57T35 146T2 277T-9 427T-1 574T23 697T59 771T105 776Q105 775 98 739T80 644T62 514T52 370T59 234T95
129T166 75T284 94Q284 94 289 96T301 102T314 110T323 118Q326 123 323 126Q313 138 296 162T262 218T228 284T201 352T188 412T197 457Q205 469 213 461T230 433T247 386T262 333T275 287T284 260Q287 254 295 238T314 205T333 172T346 150Q371 142 393 162T430
223T451 316T452 425T426 534T369 628T274 689T135 704Q134 707 134 712T135 724T139 735T143 741Q208 749 268 726T377 660T460 559T507 436T509 308T457 189Q456 188 447 176T426 149T407 116T401 87Q409 79 425 57T460 11T500 -34T535 -61T557 -56T559 0Q579
5 589 -6T600 -36T596 -76T579 -111T553 -130T520 -118Z" />
<glyph unicode="R" glyph-name="R" horiz-adv-x="636" d="M126 8Q124 9 121 15T118 24Q107 100 105 154T102 252T102 338T98 429T81 546T45 709Q42 716 49 725T67 738T90 733T108 694Q109 689 111 677T116 650T120 624T123 607H132Q187 701 235 743T321 791T386
772T422 704T425 608T387 504T304 412T168 352V344Q203 329 238 299T310 233T382 159T455 93T530 47T607 35Q609 35 621 48T648 77T677 106T700 122T708 109T689 50Q669 -5 641 -26T578 -45T506 -20T429 36T352 108T280 183T217 248T168 289L165 8Q165 2 160 1T150
0Q145 2 137 4T126 8ZM153 407Q199 417 241 448T315 519T369 602T394 678T383 731T328 741Q297 734 273 719T231 682T198 636T171 583Q163 551 157 529T148 488T146 451T153 407Z" />
<glyph unicode="S" glyph-name="S" horiz-adv-x="504" d="M291 8Q271 13 244 30T191 71T142 123T108 180T101 236T133 284Q137 287 149 292T174 299T194 296T197 275Q162 260 153 236T153 185T186 131T240 83T302 47T363 33T410 48T433 102Q436 151 427 197T386
284Q360 317 333 338T278 375T223 405T170 437T122 481T82 546Q59 597 68 641T108 717T184 764T279 774Q309 770 334 751T375 707T398 653T396 604T364 572T295 569Q290 586 299 595T320 611T342 626T350 648Q342 697 313 718T249 740T179 720T127 667T113 591T161
498Q193 461 222 443T279 410T338 377T401 323Q429 292 448 253T473 173T474 96T446 34T386 1T291 8Z" />
<glyph unicode="T" glyph-name="T" horiz-adv-x="656" d="M402 15Q393 31 389 50T385 89T387 128T394 166Q395 226 399 290T404 421T397 552T364 681Q332 685 293 680T214 664T137 644T73 626Q66 616 55 616T34 624T22 642T26 665Q43 671 94 682T214 705T365 730T525
750T673 762T787 759T846 736T829 688H822Q818 690 806 696T790 705Q696 707 604 706T420 688Q420 686 421 677T425 656T428 634T430 622Q438 536 441 462T444 316T444 170T441 8Q438 0 433 -1T421 -1T410 7T402 15Z" />
<glyph unicode="U" glyph-name="U" horiz-adv-x="835" d="M102 8Q86 18 79 42T68 94T64 148T62 189Q59 249 56 298T47 394T36 485T24 583Q24 585 24 590T23 602T23 614T24 623Q34 637 44 632T61 614T74 586T79 567L102 150Q105 101 116 83T145 67T183 90T225 139T267
203T305 267T333 319T346 346Q351 357 362 384T386 441T410 498T425 536Q426 540 429 553T438 582T449 610T463 627T479 622T497 583Q495 556 495 507T502 399T521 281T557 174T616 100T701 79Q714 81 725 92T748 115T773 134T804 134Q808 88 788 60T734 21T661
19T591 55Q552 88 529 136T492 239T471 349T457 449L449 465Q447 461 437 436T410 372T371 288T323 195T269 108T212 39T155 1T102 8Z" />
<glyph unicode="V" glyph-name="V" horiz-adv-x="583" d="M331 39Q305 96 278 155T221 274T158 390T87 497Q84 501 74 509T53 529T31 553T16 575Q6 601 14 607T37 609T69 590T95 559Q125 505 154 444T214 323T277 205T347 102Q348 103 351 106T354 111Q355 114
358 121T363 138T368 155T371 166Q373 177 377 200T387 253T398 315T410 377T419 430T426 465Q432 479 434 494T439 525T444 555T457 583Q461 589 478 596T514 607T544 611T552 599Q549 594 543 583T529 559T515 535T505 520Q500 511 493 479T477 402T458 304T436
200T413 106T387 37T359 10T331 39Z" />
<glyph unicode="W" glyph-name="W" horiz-adv-x="906" d="M614 8Q563 30 524 71T454 163T401 267T361 371L354 378Q350 376 340 355T314 301T280 230T239 153T194 82T148 30T103 10T62 32Q60 34 57 40T54 47L24 465Q19 479 16 496T24 527Q45 538 58 531T79 504Q85
485 85 455T84 394T80 333T79 284Q80 273 82 248T86 193T91 138T94 102Q94 99 97 90T102 79Q103 77 106 77T110 79Q152 115 182 160T237 256T284 357T331 457Q342 475 358 471T386 449Q409 410 420 369T444 287T474 204T527 126Q580 69 624 57T703 62T764 123T806
220T829 334T831 445T812 534T771 583Q769 585 765 585T760 583V544Q760 542 755 543T743 548T731 556T724 567V646Q767 657 798 630T848 552T873 434T873 299T847 167T795 60T718 0T614 8Z" />
<glyph unicode="X" glyph-name="X" horiz-adv-x="559" d="M141 24Q139 29 139 43T141 63Q150 78 165 97T198 139T231 186T257 235T269 281T259 323Q231 365 205 405T151 483T92 556T24 623Q18 628 15 631T12 640T12 652T15 670Q28 679 42 675T71 659T99 630T124
596T143 565T157 544Q164 533 182 506T221 449T259 392T284 354Q285 352 291 346T299 339Q300 337 303 337T307 339L464 662Q473 680 487 694T514 712T534 706T536 662Q502 621 476 576T426 483T382 387T338 292V275L464 87L472 79Q475 85 480 102T491 137T504
167T519 173Q528 167 531 152T533 116T525 75T509 38T486 15T457 15Q447 20 435 39T409 85T381 139T354 189T328 222T307 228Q301 215 293 204T279 180T268 155T267 126Q259 112 249 95T226 61T201 28T173 0Q170 -3 165 0Q160 4 151 13T141 24Z" />
<glyph unicode="Y" glyph-name="Y" horiz-adv-x="646" d="M465 15Q449 31 443 64T437 138T442 226T452 317T462 397T465 457H457Q419 395 384 369T316 341T254 359T201 406T157 466T123 524L17 683Q11 696 11 708T16 729T32 738T56 730Q69 721 81 698T109 643T142
576T186 510T245 456T324 425Q355 420 378 434T421 475T456 538T484 611T509 683T533 745T559 784T590 790Q585 740 576 677T556 545T537 405T522 267T515 142T520 39Q523 25 518 17T504 5T485 4T465 15Z" />
<glyph unicode="Z" glyph-name="Z" horiz-adv-x="780" d="M252 8Q200 28 177 55T152 114T162 180T197 251T242 323T287 393Q274 394 252 386T206 370T163 360T136 370Q124 390 133 401T165 419T218 431T280 446T341 470T388 512Q421 561 450 610T514 709Q493 711
448 699T346 669T231 632T122 604T42 598T10 630Q10 639 33 647T84 662T138 676T168 685Q267 711 364 735T561 779Q583 784 585 769T582 734T567 693T554 669Q546 658 528 631T490 574T452 517T428 480Q426 478 424 472T420 464Q421 464 434 465T468 468T513 475T560
485T600 499T625 519Q629 515 639 505T656 482T665 458T656 440Q627 425 591 424T518 423T445 420T381 393Q303 323 267 266T227 165T244 93T305 52T396 43T502 68T609 129T701 228Q703 244 703 251T703 263T699 273T693 292Q691 300 700 298T722 286T746 259T758
222T745 179T693 134Q648 107 594 76T482 23T365 -7T252 8Z" />
<glyph unicode="[" glyph-name="bracketleft" horiz-adv-x="623" d="M497 -131Q483 -126 466 -126T433 -128T402 -127T378 -114Q366 -114 337 -112T276 -108T214 -103T173 -99Q153 -97 122 -97T66 -89T31 -65T40 -12Q41 16 39 82T35 234T34 412T42 586T63 725T104
800Q134 799 170 804T244 815T317 823T379 816Q405 807 406 795T394 773T356 759T309 761Q302 760 281 759T233 755T182 751T143 745Q127 741 117 709T100 627T92 514T89 384T91 252T95 132T99 40T102 -12Q108 -24 128 -31T170 -43T214 -49T245 -52Q295 -56 339
-59T427 -65T514 -68T607 -67V-99L544 -146Q542 -147 536 -147T528 -146Q527 -146 523 -144T513 -139T503 -134T497 -131Z" />
<glyph unicode="\" glyph-name="backslash" horiz-adv-x="534" d="M482 53Q460 39 446 50T423 80T409 121T401 150Q372 207 348 254T299 344T246 431T181 522Q167 541 146 560T104 599T66 640T40 684Q31 708 33 716T44 722T69 706T101 676Q141 636 199 570Q242
516 275 465T339 361T399 253T464 134Q468 127 476 117T489 95T495 72T482 53Z" />
<glyph unicode="]" glyph-name="bracketright" horiz-adv-x="614" d="M180 -135Q179 -131 179 -119T180 -103Q196 -96 224 -91T285 -80T353 -70T417 -58T468 -40T495 -16Q501 0 501 20T498 63T492 105T487 142Q486 153 486 182T484 251T482 340T480 437T478 532T477
614T476 673T475 698Q474 710 473 728T467 763T453 791T428 801Q417 800 393 797T342 789T292 782T262 777Q233 772 203 763T141 744T80 730T19 730Q5 746 7 758T21 779T47 793T74 801Q90 804 123 810T191 822T255 834T294 841Q303 842 329 848T385 861T445 871T491
872Q496 861 502 815T514 700T526 547T537 377T546 210T552 64T554 -39T550 -79Q545 -79 516 -85T447 -100T361 -118T276 -133T209 -140T180 -135Z" />
<glyph unicode="^" glyph-name="asciicircum" horiz-adv-x="425" d="M82 619Q80 621 71 630T58 643Q57 644 77 659T123 694T173 733T203 761Q211 774 219 790T242 817H250Q262 809 277 791T307 748T336 698T357 649T365 609T356 586Q342 579 326 594T294 634T266
683T250 721Q238 727 226 719T202 695T175 662T147 630T116 612T82 619Z" />
<glyph unicode="_" glyph-name="underscore" horiz-adv-x="653" d="M8 32Q3 43 8 57T24 79Q32 78 52 78T94 77T137 77T166 79Q179 80 207 83T272 89T347 97T422 106T486 113T528 118Q559 134 582 132T615 117T617 86T575 55Q554 56 505 52T395 42T267 30T145 21T51
20T8 32Z" />
<glyph unicode="`" glyph-name="grave" horiz-adv-x="252" d="M181 575Q161 595 146 607T117 630T89 656T59 693Q54 700 52 712T51 736T60 754T82 757Q87 755 105 740T145 707T192 669T236 638Q247 632 244 617T231 589T206 570T181 575Z" />
<glyph unicode="a" glyph-name="a" horiz-adv-x="524" d="M59 37Q39 57 27 98T11 191T9 301T22 415T50 519T93 598T151 639T224 628Q238 620 253 601T283 559T307 512T323 472Q324 467 324 442T322 380T322 301T329 216T347 139T379 83T429 61T504 85Q520 99 523
112T526 135T528 148T546 143Q566 117 560 88T531 36T474 4T405 8T337 65T286 190Q280 173 268 148T238 98T200 51T155 18T108 9T59 37ZM68 100Q85 64 108 61T155 79T202 140T242 230T267 336T271 443T244 536T180 602Q179 603 177 603T172 603Q141 589 118 555T79
475T53 376T43 272T48 176T68 100Z" />
<glyph unicode="b" glyph-name="b" horiz-adv-x="512" d="M126 8Q117 13 111 27T102 47Q104 122 102 200T86 354Q85 360 78 392T62 466T45 549T31 614Q28 630 24 655T21 698T33 717T71 685Q71 680 72 667T74 638T76 610T79 591Q82 570 88 537T100 470T112 413T118
386L126 371Q131 393 141 420T166 471T203 513T252 536Q318 546 365 522T441 452T481 347T485 230T454 120T390 38T294 7T165 47Q164 35 163 25T157 8T145 1T126 8ZM236 71Q283 52 327 65T401 118Q440 172 449 228T448 333T409 419T349 474T279 485T215 438T169
320T157 118Q157 121 159 126T163 138T168 150T173 158Q176 163 185 169T197 173L205 166Q203 150 202 136T203 109T213 87T236 71Z" />
<glyph unicode="c" glyph-name="c" horiz-adv-x="410" d="M134 15Q108 35 86 76T48 167T27 273T26 376T49 461T102 512Q130 523 150 508T184 467T201 414T201 375T182 372T142 433Q131 456 119 449T96 413T79 343T72 254T78 165T104 91T152 49T228 55Q237 59 257
80T300 127T347 177T385 210T405 208T394 150Q383 115 355 80T290 21T212 -7T134 15Z" />
<glyph unicode="d" glyph-name="d" horiz-adv-x="418" d="M79 24Q62 45 49 82T26 165T13 261T12 358T26 443T57 504T108 529T181 504Q216 483 244 453T292 386Q292 389 292 397T293 413T293 430T292 441Q291 448 289 476T283 535T278 595T276 630Q275 641 275
658T274 691T274 720T276 732L284 740Q294 751 303 744T320 721T334 683T344 640T351 603T354 583Q355 575 355 542T356 464T356 369T356 275T358 203T362 173L379 166V55Q379 45 369 46T347 52T325 66T315 79V158Q297 126 276 97T228 45T169 13T95 8Q93 10 87
16T79 24ZM95 71Q96 70 102 67T111 63Q160 57 197 83T257 151T292 242T300 331Q276 313 264 310T246 313T239 333T236 361T233 392T221 418Q183 463 154 476T105 479T73 439T55 371T50 287T56 200T72 124T95 71Z" />
<glyph unicode="e" glyph-name="e" horiz-adv-x="449" d="M220 8Q182 24 163 49T134 104T123 168T118 237Q95 233 73 233T35 237T11 247T9 261T37 277T102 292Q108 292 119 298T133 307Q140 317 146 341T158 396T174 456T198 509T233 540T284 536Q287 534 292
529T304 517T315 506T323 497Q327 448 317 414T290 357T252 317T212 287T180 257T165 220Q163 194 163 173T168 132T185 96T220 63Q237 51 262 57T313 78T364 112T407 144T433 162T433 150Q419 117 400 84T355 28T296 -2T220 8ZM188 371Q187 366 184 351T181 331Q182
330 184 330T188 331Q191 333 197 337T209 346T220 355T228 362Q258 392 270 417T283 459T273 480T248 477T217 443T188 371Z" />
<glyph unicode="f" glyph-name="f" horiz-adv-x="473" d="M158 284Q135 287 106 282T55 268Q45 264 36 273T22 294T21 318T39 331Q43 331 61 330T99 329T137 333T158 346Q157 388 155 436T153 533T157 631T173 725Q180 751 193 761T237 764Q261 759 287 740T335
694T374 639T394 583Q395 573 386 565T364 558T342 573T331 623Q331 625 328 630T323 638L252 709Q232 717 222 707T206 679T200 643T197 614Q194 576 192 545T189 484T190 423T197 354Q201 353 225 362T283 383T353 405T415 416T453 406T449 362Q443 351 431 351T410
354Q403 352 386 347T351 335T315 323T292 315Q289 314 280 312T260 307T240 302T228 299Q225 298 222 298T214 295Q210 293 205 292V8Q205 0 198 -2T182 -2T166 7T158 24V284Z" />
<glyph unicode="g" glyph-name="g" horiz-adv-x="435" d="M209 -575Q171 -557 145 -522T103 -441T80 -345T72 -246T75 -157T85 -89Q87 -79 95 -64T112 -32T125 -1T127 23H106Q89 23 75 35T51 64T33 96T23 120Q21 139 20 162T18 208T22 254T33 299Q42 325 59 362T100
436T151 500T211 536T277 526T345 449Q353 447 361 448T376 451T388 453T399 449Q400 437 401 405T402 335T399 261T387 202Q387 189 386 161T384 99T382 26T381 -47T379 -109T378 -150Q377 -156 376 -174T372 -212T369 -250T367 -276Q366 -282 362 -310T348 -375T326
-453T296 -525T257 -572T209 -575ZM178 -494Q199 -518 216 -518T247 -504T272 -460T292 -398T307 -329T317 -265T323 -217T325 -195Q326 -185 328 -164T331 -122T334 -83T335 -60Q336 -50 336 -26T336 26T336 77T335 112H313L188 23Q160 3 143 -36T117 -125T110
-229T119 -334T142 -427T178 -494ZM85 97Q141 79 188 88T270 126T322 199T340 293T315 395T242 494Q214 501 189 480T142 419T104 332T80 236T72 151T85 97Z" />
<glyph unicode="h" glyph-name="h" horiz-adv-x="527" d="M433 39Q439 225 418 338T360 501T279 539T196 467T128 298T95 47Q91 35 83 35T67 43T53 60T47 79Q47 83 48 98T51 130T54 162T55 181Q55 190 55 209T56 254T56 306T56 358T56 403T55 433Q55 438 54 454T52
489T50 525T47 551Q47 556 45 574T40 614T35 654T32 678Q29 710 40 715T71 693Q79 611 82 532T95 371Q104 401 117 434T149 498T193 551T252 583Q296 596 328 586T382 551T419 487T442 405T455 315T462 226T467 150T473 94Q476 78 488 76T510 71T521 60T505 24Q498
14 486 9T461 4T440 13T433 39Z" />
<glyph unicode="i" glyph-name="i" horiz-adv-x="111" d="M24 24Q22 30 21 64T20 148T20 254T22 362T26 450T32 497Q38 500 45 497T57 489T67 477T71 465V24Q71 13 65 8T51 2T35 7T24 24ZM32 653Q31 656 31 661T30 673T30 685T32 693Q40 697 50 700T71 701Q88
679 92 666T93 645T80 636T60 636T42 642T32 653Z" />
<glyph unicode="j" glyph-name="j" horiz-adv-x="150" d="M-24 -488Q-41 -476 -59 -458T-91 -417T-114 -371T-118 -323Q-112 -320 -99 -339T-68 -384T-30 -433T11 -459T51 -439T87 -346Q89 -339 91 -325T96 -298T100 -273T102 -260V-7Q99 5 94 34T81 99T68 175T56
249T48 308T48 339Q56 358 66 361T86 357T100 335T102 307Q104 293 107 264T115 197T124 119T132 40T138 -27T142 -71Q142 -78 142 -103T143 -160T143 -222T142 -267Q141 -285 138 -314T126 -375T105 -437T74 -485T32 -507T-24 -488ZM16 520Q-11 536 -11 546T0
561T32 564T63 555T76 536T48 505Q44 507 32 512T16 520Z" />
<glyph unicode="k" glyph-name="k" horiz-adv-x="612" d="M60 22Q82 181 73 336T14 644Q9 657 14 666T28 676T46 671T60 644Q74 562 83 480T105 313Q130 293 157 304T213 344T267 413T317 492T359 560T390 598Q412 614 412 601T397 557T357 487T305 408T252 339T211
299Q209 297 204 294T192 287T180 280T172 275V267Q172 266 179 262T195 251T215 239T231 229Q250 219 277 202T336 167T401 131T468 103T530 90T582 100T619 141T634 221H654Q659 221 662 207T665 173T658 129T638 86T601 54T542 45Q493 49 440 70T335 119T235
180T146 237Q143 239 133 241T120 245H113Q107 186 107 125T93 7Q92 6 86 5T74 4T63 9T60 22Z" />
<glyph unicode="l" glyph-name="l" horiz-adv-x="141" d="M62 15Q58 31 56 59T54 121T54 194T56 268T57 335T54 386Q53 401 52 430T48 497T44 575T40 653T39 722T41 771Q56 784 65 765T80 709T86 626T88 539T87 470T86 441Q91 347 92 256T102 71Q112 52 112 31T107
-4T88 -15T62 15Z" />
<glyph unicode="m" glyph-name="m" horiz-adv-x="890" d="M701 15Q699 18 696 24T691 36T687 48T685 55Q686 67 688 92T693 148T698 214T701 280T699 338T689 378Q678 401 657 412T610 425Q553 430 516 405T454 339T417 246T394 149T376 68T354 24Q344 17 338
19T327 28T319 45T315 63Q316 100 320 153T327 262T327 369T311 456Q296 498 279 506T244 498T209 447T175 368T145 276T121 186T103 112T95 71Q92 51 79 50T54 59T38 86T47 118Q48 135 48 170T47 249T46 342T45 436T46 517T51 574Q53 586 60 587T75 585T89 573T98
558Q103 538 104 519T107 480T109 441T115 401Q124 420 139 447T173 499T213 543T256 566T298 555T335 496Q340 482 344 461T354 416T366 372T382 338Q399 348 411 365T436 400T463 436T500 464Q574 489 622 479T700 437T741 356T755 255T750 154T733 71L740 63Q745
58 763 70T804 97T846 124T874 134V118Q866 111 855 97T829 66T798 35T765 10T732 1T701 15Z" />
<glyph unicode="n" glyph-name="n" horiz-adv-x="567" d="M24 8Q22 10 19 16T15 24Q18 37 21 82T29 188T40 313T55 429T74 507T99 521Q129 499 155 466T205 393T251 313T298 234T350 166T410 118H417Q419 142 421 177T427 255T433 341T440 428T450 507T461 568Q462
570 465 576T473 589T483 600T493 600L540 552Q543 549 537 540T521 519T503 497T493 481Q486 455 481 419T473 341T468 255T465 170T463 91T461 27Q425 28 392 49T329 104T270 182T215 270T163 358T115 434H106Q102 434 100 413T95 357T91 280T86 193T77 110T65
43T48 5T24 8Z" />
<glyph unicode="o" glyph-name="o" horiz-adv-x="346" d="M79 8Q50 30 36 56T18 112T17 173T31 237Q37 257 42 285T56 341T75 394T102 433Q112 442 128 446T161 451T194 451T220 449Q264 446 288 420T320 354T323 267T301 173T259 85T205 19T143 -12T79 8ZM94
63Q119 43 148 54T203 95T251 167T281 252T284 331T252 386Q215 411 182 402T124 363T83 289T61 201T63 119T94 63Z" />
<glyph unicode="p" glyph-name="p" horiz-adv-x="386" d="M7 -338Q-10 -326 -8 -307Q-5 -233 2 -160T18 -15T36 129T55 276Q56 282 54 295T50 325T48 357T51 386T65 403T94 402Q97 401 103 395T110 386Q135 433 166 445T228 446T286 400T331 323T356 229T352 132T310
46T220 -15Q173 -33 140 -24T71 16Q56 -67 52 -152T39 -323Q34 -337 28 -342T7 -338ZM126 32Q127 31 129 28T133 25Q197 18 237 37T296 91T318 170T311 256T282 333T239 385T189 395T141 347Q105 280 90 215T79 72Q101 97 110 97T123 84T125 55T126 32Z" />
<glyph unicode="q" glyph-name="q" horiz-adv-x="373" d="M367 -503Q325 -482 300 -444T260 -357T240 -255T233 -147T233 -45T233 41Q216 1 183 -15T116 -22T56 24T24 126Q22 152 24 190T35 271T55 358T86 441T126 509T177 552Q203 564 225 553T264 515T295 454T316
383T328 316T329 269Q329 268 326 255T318 224T308 184T299 144T292 113T290 99Q340 78 378 46T446 -26T495 -107T527 -191T545 -271T551 -339Q546 -367 530 -403T490 -467T435 -509T367 -503ZM354 -451Q393 -479 421 -477T468 -449T493 -382T498 -290T480 -187T440
-86T377 -2T290 52Q285 19 279 -24T269 -114T266 -209T275 -303T303 -386T354 -451ZM96 41Q140 21 172 31T226 72T259 146T274 240T273 339T257 427T228 489T190 512T143 478T91 373Q86 358 77 321T64 236T64 136T96 41ZM233 54H240V60L233 54Z" />
<glyph unicode="r" glyph-name="r" horiz-adv-x="455" d="M343 27Q303 50 281 73T238 119T192 162T120 199Q113 179 109 152T103 98T99 46T95 8Q82 -8 70 -6T49 6T33 31T25 54Q48 108 56 163T65 276T58 396T48 526Q53 534 61 539T80 540Q93 555 114 573T159 607T210
633T260 642T300 624T326 572Q334 520 323 475T288 390T226 314T144 245Q141 239 146 234T160 224T178 216T191 212Q211 198 235 175T285 127T339 82T394 57T446 64T495 119H511Q515 89 502 64T464 24T407 9T343 27ZM112 356Q113 352 114 342T116 320T119 298T120
284Q163 301 195 337T247 414T273 497T273 566T244 599T183 579Q147 553 131 529T109 478T106 422T112 356Z" />
<glyph unicode="s" glyph-name="s" horiz-adv-x="371" d="M176 -5Q167 0 152 7T119 25T87 46T61 71T50 100T61 131Q63 133 74 121T104 91T145 55T192 27T240 20T284 50Q292 61 295 75T298 105T294 134T284 161Q271 189 244 218T185 277T123 338T76 401T59 465T89
532Q112 558 146 558T214 543T273 505T305 459Q308 450 307 440T301 422T287 413T262 416Q245 422 236 442T216 481T189 512T140 514Q104 502 101 478T115 422T163 356T225 290T282 235T313 199Q325 176 334 142T341 74T319 17T255 -11Q249 -12 239 -12T217 -13T195
-11T176 -5Z" />
<glyph unicode="t" glyph-name="t" horiz-adv-x="473" d="M157 8Q157 27 158 59T161 129T162 207T160 282T154 343T141 378Q78 373 45 379T12 395T45 416T150 433Q150 445 150 475T151 540T151 604T150 646Q149 653 147 665T143 690T140 717T141 740Q143 752 151
756T169 761T185 755T193 740V441Q193 431 218 431T279 436T354 444T422 447T461 434T449 394Q447 392 441 389T433 386Q379 388 319 387T205 378Q187 375 186 345T190 270T205 177T216 86T208 20T165 0Q163 0 160 3T157 8Z" />
<glyph unicode="u" glyph-name="u" horiz-adv-x="663" d="M512 8Q488 15 468 33T432 77T404 132T383 191T366 247T354 292H346Q334 266 310 230T255 159T192 100T128 71T74 88T39 173Q34 268 32 362T32 551Q35 555 42 561T58 569T72 567T79 544V213Q79 204 81
192T89 169T102 148T118 134Q154 119 183 134T235 184T278 264T314 356T343 439T370 497Q372 496 374 493T378 488Q381 484 390 473T401 457Q401 439 401 408T405 339T414 261T430 183T457 117T497 72T552 57T626 85Q647 98 651 109T654 131T653 155T666 184Q691
192 704 178T718 139T709 85T672 33T607 2T512 8Z" />
<glyph unicode="v" glyph-name="v" horiz-adv-x="544" d="M324 24Q286 73 254 126T187 232T114 333T24 418Q1 434 1 444T15 458T49 458T87 441Q117 405 151 359T217 265T279 172T331 94Q333 90 337 88T347 87Q355 101 364 138T382 224T402 323T425 415T451 479T481
497Q485 495 497 489T512 480Q522 474 519 466T508 448T491 428T481 410Q480 405 477 389T470 352T462 307T453 262T446 226T441 205Q441 202 437 188T428 154T418 116T410 87Q405 70 398 50T379 17T355 3T324 24Z" />
<glyph unicode="w" glyph-name="w" horiz-adv-x="787" d="M630 8Q576 40 543 84T486 177T440 278T386 378Q383 383 378 378Q358 342 345 303T318 223T290 144T252 71Q242 57 223 46T186 35T158 47T158 94Q131 169 112 237T71 378Q65 396 53 419T33 467T26 513T47
551Q55 557 69 528T100 452T134 348T166 239T191 152T205 111Q226 125 243 157T274 229T301 313T326 393T350 454T375 481T405 458T441 371Q469 282 513 203T630 63Q654 49 668 68T688 125T693 215T686 316T672 406T653 465Q643 480 635 485T624 496T625 511T646
544Q664 557 680 536T710 473T733 374T746 258T745 145T728 53T690 1T630 8Z" />
<glyph unicode="x" glyph-name="x" horiz-adv-x="449" d="M89 -7Q84 -1 86 8T94 27T104 44T113 56Q120 69 131 92T154 139T173 179T181 197V205Q181 205 169 226T138 276T102 335T71 386Q69 390 64 397T54 411T45 425T39 433Q36 437 30 451T23 479T27 500T54 497Q69
489 81 473T104 436T124 395T141 362Q145 356 154 341T173 307T192 274T205 252Q212 248 224 264T251 307T282 369T316 438T349 501T380 545T406 558T425 527Q426 525 426 520T425 512Q414 486 403 470T380 437T353 398T323 339Q308 310 291 282T263 225T254 168T279
112Q282 107 288 100T301 87T311 77T317 72H326Q331 72 335 83T343 111T351 147T360 180T371 202T386 205Q386 199 385 179T381 132T371 79T356 31T334 3T302 9Q288 19 278 34T259 64T239 93T215 119Q209 114 201 98T183 62T163 22T141 -11T116 -24T89 -7Z" />
<glyph unicode="y" glyph-name="y" horiz-adv-x="583" d="M267 -614Q233 -597 221 -544T212 -420T234 -270T282 -122T350 -5T433 55Q434 61 435 74T437 103T439 131T440 151Q441 173 441 207T441 274T441 330T440 355L433 362Q425 348 401 314T344 240T271 161T190
96T110 67T39 95Q23 110 18 141T12 211T18 292T31 373T44 442T54 488Q59 500 69 503T90 505T106 494T110 473Q99 431 91 392T77 314T70 235T71 151Q91 124 120 127T182 152T249 209T312 280T362 347T393 394Q402 409 407 428T419 465T434 501T457 528L488 497V87Q493
86 511 88T544 90T560 85T536 63Q522 55 509 47T480 32Q471 -53 463 -117T445 -241T421 -362T386 -504Q378 -522 369 -546T346 -590T313 -618T267 -614ZM299 -551Q309 -558 323 -525T351 -437T379 -313T403 -182T420 -71T425 -7Q380 -46 346 -97T291 -207T261 -327T259
-449Q260 -458 262 -472T267 -501T272 -525T275 -536L299 -551Z" />
<glyph unicode="z" glyph-name="z" horiz-adv-x="685" d="M160 49Q134 67 128 88T128 133T150 180T181 229T211 274T228 315Q222 318 215 318T201 318T186 319T174 326Q162 339 162 354T178 381Q188 388 199 386T221 379T244 369T267 366Q272 367 286 380T319
414T358 459T396 504T427 542T444 564Q409 583 362 587T264 589T164 579T75 569Q54 567 49 574T48 590T66 609T92 620Q137 626 181 627T270 628T359 623T449 618Q497 617 507 604T506 569T466 520T409 465T357 410T332 361Q351 349 394 348T485 349T576 359T639
368Q648 368 654 362T662 347T662 330T651 316Q631 305 603 301T543 295T476 296T406 300T341 304T284 304Q222 231 202 184T192 110T237 75T317 71T414 91T508 128T582 174T618 222Q637 230 640 219T641 190T630 155T620 133Q600 110 565 91T487 56T396 32T304
22T222 26T160 49Z" />
<glyph unicode="{" glyph-name="braceleft" horiz-adv-x="567" d="M329 -134Q281 -120 248 -97T203 -23Q203 -16 203 8T205 65T207 135T210 205T212 262T213 292Q214 324 213 341T201 368T170 381T111 394Q98 384 81 385T50 395T28 418T24 449Q28 464 38 476T55
504Q70 494 84 497T111 511T134 539T152 575T163 610T165 638Q158 693 143 728T118 783T109 811T135 822T215 825T371 831Q381 831 389 833T405 838T422 841T442 838Q451 835 454 828T459 813T459 797T457 783Q456 776 441 774T401 771T348 770T290 770T236 765T197
752Q204 710 211 681T223 631T227 592T217 555T188 513T134 457Q172 443 207 432T284 425Q290 415 290 384T285 309T275 217T263 123T253 43T250 -8Q255 -25 269 -41T303 -69T346 -90T390 -98T431 -91T462 -62Q492 -53 510 -58T533 -77T531 -108T502 -141Q477 -140
456 -141T415 -143T374 -143T329 -134Z" />
<glyph unicode="|" glyph-name="bar" horiz-adv-x="181" d="M102 8Q95 18 95 28T96 49T100 71T102 94Q97 239 75 386T8 670Q4 682 12 692T34 706T60 709T79 693Q78 612 85 527T104 356T132 186T166 24Q163 15 156 7T139 -4T120 -6T102 8Z" />
<glyph unicode="}" glyph-name="braceright" horiz-adv-x="591" d="M339 -199Q337 -197 337 -190T338 -175T342 -161T346 -152Q362 -139 376 -132T403 -117T429 -101T457 -73Q501 -19 509 20T504 87T462 134T404 169T351 197T323 226Q319 244 325 258T344 284T372
307T399 330T417 355T418 384Q360 380 325 394T272 434T250 495T250 569T264 647T283 720T297 780T299 819Q291 820 263 815T198 803T124 791T58 787T19 799T24 835Q31 846 47 851Q80 849 118 850T196 857T271 873T338 898Q349 903 359 895T376 874T386 847T386
827Q385 825 379 818T366 803T353 788T346 780Q341 773 336 750T326 695T317 628T311 560T307 504T308 471Q311 448 326 446T364 450T410 465T456 475T490 462T504 407Q504 405 499 394T489 376Q488 375 485 372T481 368Q474 357 463 340T442 307T425 278T418 266V258Q476
207 505 158T542 64T540 -20T510 -92T463 -149T411 -187T366 -205T339 -199Z" />
<glyph unicode="~" glyph-name="asciitilde" horiz-adv-x="749" d="M356 549Q317 558 295 577T260 621T238 675T213 733Q210 736 205 733Q175 709 158 695T128 665T107 630T84 576Q41 564 30 573T26 605T58 657T107 714T157 763T190 789Q211 799 225 787T252 750T276
694T304 637T342 594T398 583T477 621T586 725Q594 734 601 749T614 778T627 803T641 814T658 803T680 757Q686 740 674 734T649 725Q629 704 609 680T568 632T524 588T475 556T420 540T356 549Z" />
<glyph unicode="&#xa0;" glyph-name="space" horiz-adv-x="512" />
<glyph unicode="&#xa1;" glyph-name="exclamdown" horiz-adv-x="171" d="M50 400Q37 390 41 380T57 357Q88 349 104 352T125 365T123 385T105 403T79 411T50 400ZM73 156Q71 117 77 76T80 -3Q78 -29 79 -50T79 -77Q78 -84 75 -92T71 -110T74 -126T93 -136Q114
-140 125 -125Q126 -109 126 -79T126 -14T126 51T127 98Q127 101 122 115T108 141T90 161T73 156Z" />
<glyph unicode="&#xa2;" glyph-name="cent" horiz-adv-x="410" d="M223 -101Q215 -90 211 -64T205 -8Q167 -8 134 15Q110 33 96 67T76 145T73 235T88 328T119 411T165 473Q160 496 154 518T139 565Q135 577 144 581T168 583T197 571T217 549V501Q241 504 259 486T287
442T301 392T299 357T280 358T242 418Q231 437 218 435Q220 347 229 262T252 90Q265 101 284 121T324 161T363 198T393 218T406 207T394 150Q387 130 375 109T346 69T309 34T266 8Q271 -15 276 -38T287 -86Q284 -95 277 -103T260 -114T241 -115T223 -101ZM179 401Q164
377 151 343T130 271T119 196T124 130T149 85T201 73Q199 121 198 163T195 245T190 323T179 401Z" />
<glyph unicode="&#xa3;" glyph-name="sterling" horiz-adv-x="483" d="M233 286Q204 288 174 289T114 293Q109 246 103 200T86 102Q80 85 92 82T128 81T182 92T242 106T299 115T340 109Q350 110 368 105T407 95T446 85T475 82Q458 51 456 36T453 15T451 12T430
24T371 41T258 59Q257 59 241 56T200 46T148 33T96 21T56 11T39 8Q20 15 15 24T15 55Q22 93 27 124T36 183T43 238T50 294Q31 294 12 294T-27 293Q-38 298 -46 306T-57 328Q-61 342 -53 350T-28 363T11 368T59 368Q65 406 71 451T86 557Q98 598 120 618T171 642T229
638T288 616T340 586T378 557Q414 524 431 503T452 468T449 451T427 451T397 465T365 492Q347 511 317 528T254 556T189 566T134 549Q129 498 126 453T119 361Q143 358 165 355T204 348T231 342T242 340Q267 335 273 324T274 302T256 286T233 286Z" />
<glyph unicode="&#xa4;" glyph-name="currency" horiz-adv-x="496" d="M95 48Q90 55 92 64T100 82T111 99T119 112Q121 117 125 124T134 140Q115 161 104 179T88 217T84 259T94 309Q95 312 96 321T99 342T103 363T106 377Q93 395 87 406T77 424T66 436T47 447Q42
450 36 464T29 492T34 513T62 511Q85 499 102 478T134 426Q151 459 163 479T191 508T227 520T284 521Q291 521 301 514T321 497T340 480T354 468Q367 492 379 509T403 534T422 535T437 507Q438 505 438 500T437 492Q427 467 417 452T395 421Q395 368 389 327T370
254T341 195T303 147Q317 135 334 121T362 95Q393 61 394 49T382 37T346 47T308 65Q294 73 283 86T264 114Q245 102 225 99T183 103Q174 85 164 68T143 41T120 31T95 48ZM174 175Q199 154 227 162T279 196T322 260T348 336T349 409T315 461Q278 486 247 480T192
447T154 383T137 304T142 229T174 175ZM332 127L376 84Q374 85 372 87Q370 89 368 90T362 95Q356 102 349 110T332 127Z" />
<glyph unicode="&#xa5;" glyph-name="yen" horiz-adv-x="646" d="M410 225Q385 227 361 228T312 231Q311 223 311 215T310 198Q353 192 391 184T453 166T482 150T463 139Q437 140 395 136T307 127Q306 80 308 44T319 0L246 12L254 122Q228 120 205 120T162 120T129
126T109 139Q92 163 98 177T128 198T186 206T260 204L262 233Q233 234 205 234T150 232Q139 237 131 244T119 264Q115 280 126 289T159 302T208 306T267 303L270 348Q231 396 210 424T174 475T150 518T125 574T84 663T16 804Q10 817 10 829T15 850T31 859T55 851Q68
843 81 808T110 725T146 623T192 521T253 439T332 397Q363 392 386 413T428 471T461 557T488 658T511 757T533 842T558 898T589 911Q588 858 577 792T548 657T505 526T452 416T393 345T332 332Q326 326 321 297Q361 292 389 286T418 280Q441 263 445 247T445 220T429
209T410 225Z" />
<glyph unicode="&#xa6;" glyph-name="brokenbar" horiz-adv-x="134" d="M38 399Q40 453 40 506T40 614Q41 631 49 641T67 654T86 649T102 623V614Q94 560 91 505T85 392L38 399ZM91 332Q90 295 89 268T88 216T87 165T87 102Q90 104 97 108T111 111Q112 97 109
74T98 32T75 3T40 8Q38 8 36 11T32 15Q31 63 31 99T32 169T34 239T38 324L91 332Z" />
<glyph unicode="&#xa7;" glyph-name="section" horiz-adv-x="375" d="M147 44Q134 51 108 64T59 95T26 134T33 180Q34 182 43 173T67 150T102 121T146 97T197 86T255 99Q264 103 267 120T268 156T257 191T233 212L172 274Q140 304 111 335T64 398T46 463T76 530Q90
547 110 552T152 555Q129 579 111 604T85 654T82 705T110 758Q132 783 166 783T234 768T294 730T326 684Q329 675 328 665T322 648T308 638T283 641Q266 647 257 667T237 706T210 737T161 739Q124 727 121 702T136 645T186 578T250 511Q265 499 275 486Q297 465
313 449T334 424Q346 402 355 369T362 303T343 246T286 215Q291 210 294 206T300 197Q312 174 319 147T320 97T293 58T226 38Q220 37 210 37T188 36T166 38T147 44ZM304 386Q300 395 285 413T245 451T191 488T127 512Q97 511 89 497T88 459T114 408T158 350T209
294T256 245Q268 247 280 254T304 275Q313 286 316 300T318 330T314 359T304 386Z" />
<glyph unicode="&#xa8;" glyph-name="dieresis" horiz-adv-x="453" d="M80 601Q77 607 79 621T88 652T103 686T122 714Q161 710 176 694T192 657T178 616T147 584T111 575T80 601ZM335 588Q332 593 326 608T315 642T310 677T319 706Q358 701 378 684T404 646T404
605T387 573T361 562T335 588Z" />
<glyph unicode="&#xa9;" glyph-name="copyright" horiz-adv-x="815" d="M332 -70Q281 -58 242 -21T174 70T126 190T95 327T80 466T80 596T93 702T118 772Q124 782 132 784T148 783T160 771T164 754Q129 536 137 386T182 141T278 5T402 -38T533 -1T647 100T723
252T740 439T674 646T503 859Q474 885 446 886T390 873T337 835T287 785Q269 778 267 791T273 826T301 875T349 920T412 945T486 934Q572 896 632 829T727 677T773 500T772 316T726 147T636 13T504 -66T332 -70ZM390 124Q358 146 332 191T287 293T262 411T260 527T289
623T352 680Q377 689 397 681T432 656T456 615T469 570T471 534T461 518T437 532T399 591Q385 617 371 608T344 568T324 490T316 391T324 291T354 208T412 161T503 168Q511 171 526 185T561 220T602 262T644 303T680 334T705 346T714 329T700 273Q686 235 653 196T576
130T483 98T390 124Z" />
<glyph unicode="&#xaa;" glyph-name="ordfeminine" horiz-adv-x="340" d="M40 204Q28 214 21 234T11 281T9 336T17 394T35 446T61 485T97 506T142 500Q151 496 160 487T178 466T193 442T203 422Q204 420 204 407T203 376T203 336T207 293T218 255T237 227T269
216T315 228Q325 235 326 241T328 253T329 259T341 257Q353 244 349 229T331 203T296 187T254 189T212 217T180 280Q177 272 169 260T151 235T127 211T100 195T70 190T40 204ZM46 235Q56 217 70 216T99 224T128 255T153 300T169 354T171 407T155 454T115 487Q114
488 113 488T110 488Q91 481 77 464T53 424T37 374T31 322T33 273T46 235Z" />
<glyph unicode="&#xab;" glyph-name="guillemotleft" horiz-adv-x="942" d="M481 8Q469 10 444 13T386 21T319 31T252 41T195 49T158 55Q156 55 151 56T139 59T126 62T119 63H32Q19 63 13 76T7 106T17 133T47 141Q55 146 74 159T115 188T155 217T181 237Q184 239
198 252T229 283T264 318T292 346Q305 360 314 375T332 407T350 438T371 465Q374 468 387 464T409 448T418 419T394 378L205 189Q182 175 161 160T119 126Q120 121 126 119T138 114T150 112T158 111Q213 103 270 94T384 78T499 69T614 71Q626 53 612 39T572 15T520
4T481 8ZM748 83Q735 85 710 88T652 96T585 106T518 116T461 124T424 130Q422 130 417 131T405 134T392 137T385 138H298Q285 138 279 151T273 180T283 208T313 216Q321 221 340 234T381 262T421 291T447 311Q450 313 464 327T496 358T531 393T558 421Q571 435
580 450T598 482T616 513T637 540Q640 543 653 539T675 523T684 494T660 453L471 264Q448 250 427 234T385 201Q386 196 392 193T404 188T416 186T424 185Q479 177 536 168T651 152T766 143T881 145Q889 133 885 123T868 104T839 90T804 81T771 78T748 83Z" />
<glyph unicode="&#xac;" glyph-name="logicalnot" horiz-adv-x="433" d="M371 220Q371 221 369 234T365 267T361 309T356 351T351 382T348 395H135Q126 396 105 394T63 393T26 404T12 437Q13 449 26 453T55 457T84 457T98 458Q156 460 192 461T259 462T326 459T419
450Q422 424 423 393T425 330T422 272T413 229T396 208T371 220Z" />
<glyph unicode="&#xae;" glyph-name="registered" horiz-adv-x="925" d="M572 152Q532 175 510 198T467 244T421 287T349 324Q343 304 339 277T333 223T329 171T325 133Q312 117 300 119T278 131T262 156T254 179Q277 233 285 288T294 401T288 521T278 651Q283
658 291 663T309 665Q322 680 343 698T388 732T439 758T489 767T529 749T555 697Q563 645 553 600T518 515T456 439T374 370Q371 364 376 359T390 349T408 341T421 337Q441 323 465 300T515 252T569 207T623 182T675 189T724 244H740Q744 214 731 189T693 149T636
134T572 152ZM341 481Q338 517 336 546T338 602T360 653T413 703Q451 730 473 724T502 691T503 622T476 540T424 462T349 409Q349 413 348 423T346 444T343 466T341 481ZM572 152Q532 175 510 198T467 244T421 287T349 324Q343 304 339 277T333 223T329 171T325
133Q312 117 300 119T278 131T262 156T254 179Q277 233 285 288T294 401T288 521T278 651Q283 658 291 663T309 665Q322 680 343 698T388 732T439 758T489 767T529 749T555 697Q563 645 553 600T518 515T456 439T374 370Q371 364 376 359T390 349T408 341T421 337Q441
323 465 300T515 252T569 207T623 182T675 189T724 244H740Q744 214 731 189T693 149T636 134T572 152ZM341 481Q338 517 336 546T338 602T360 653T413 703Q451 730 473 724T502 691T503 622T476 540T424 462T349 409Q349 413 348 423T346 444T343 466T341 481ZM327
-101Q269 -90 226 -53T152 39T102 160T73 298T62 439T67 569T86 676T115 745Q122 754 131 756T148 755T161 745T164 729Q158 707 147 668T124 577T105 466T96 345T108 223T148 110T225 16T348 -49Q416 -71 479 -62T596 -20T696 65T773 180T825 315T847 457T836
594T786 715T695 808T557 860Q514 868 480 862T417 841T362 804T308 758Q288 751 284 759T288 785T318 824T372 864T445 894T535 902Q622 896 687 861T795 771T860 646T886 498T874 341T827 189T747 55T635 -46T494 -103T327 -101Z" />
<glyph unicode="&#xaf;" glyph-name="overscore" horiz-adv-x="479" d="M17 512Q12 526 15 539T38 557Q51 560 83 561T157 562T244 560T327 556T392 550T423 544Q439 533 435 523T419 507T389 499T362 506Q312 507 274 505T199 501T123 499T33 504Q31 504 25 507T17 512Z" />
<glyph unicode="&#xb0;" glyph-name="degree" horiz-adv-x="238" d="M47 166Q26 178 16 192T3 223T2 256T12 290Q17 301 21 316T30 346T44 375T64 396Q71 401 82 403T106 406T129 407T149 405Q180 403 197 389T221 354T223 307T207 256T177 208T138 172T93 156T47
166ZM58 196Q76 185 97 191T137 213T171 253T192 299T195 341T172 371Q145 384 121 379T79 358T50 319T34 271T35 227T58 196Z" />
<glyph unicode="&#xb1;" glyph-name="plusminus" horiz-adv-x="606" d="M173 47Q170 59 175 69T188 87Q185 160 183 233T173 378Q158 380 139 373T102 358T66 343T39 339Q11 348 9 361T16 386T43 407T71 418Q76 419 89 422T118 429T146 436T165 441Q166 462 163
482T156 521T150 560T150 599Q152 614 160 619T178 623T196 613T205 591Q206 583 207 564T209 524T211 484T212 457L220 449Q220 449 244 452T300 461T367 471T425 480Q428 481 446 485T487 495T534 502T574 502T594 486T583 449Q582 447 579 445T574 441Q486 451
395 437T220 394Q219 379 221 344T225 266T231 175T235 89T235 25T228 0H188Q188 0 186 5T182 18T177 34T173 47Z" />
<glyph unicode="&#xb2;" glyph-name="twosuperior" horiz-adv-x="422" d="M46 172Q45 177 45 186T46 198Q48 201 59 216T85 254T118 304T150 357T173 407T178 446T158 464T104 456Q88 450 80 441T67 422T55 401T35 382Q19 392 17 404T18 431T27 460T30 490Q32
495 36 497T46 499T58 500T67 498Q69 491 77 489T97 486T123 487T153 487T183 480T209 464Q212 431 202 398T175 332T137 270T99 211V203Q145 200 186 204T267 217T344 237T426 263Q427 263 430 263T436 263Q444 252 432 241T394 220T333 201T260 185T185 174T117
167T68 166T46 172Z" />
<glyph unicode="&#xb3;" glyph-name="threesuperior" horiz-adv-x="283" d="M88 173Q74 176 67 184T60 203T62 223T71 242T86 253T102 254Q105 247 102 242T96 231T90 219T93 207Q102 195 117 194T148 198T182 217T211 243T231 273T237 300Q234 316 222 324T192
336T158 337T127 329Q119 326 114 321T105 309T96 297T84 287Q74 283 69 286T62 296T60 309T64 321Q70 329 81 341T103 368T125 399T142 430T149 459T141 481Q121 485 107 480T82 464T64 440T50 414Q48 409 47 405T43 399T35 396T21 397Q18 397 18 405T19 426T24
453T31 479T37 500T40 511Q49 520 55 520T65 517T70 506T70 490Q76 495 86 500T107 508T130 513T150 511Q164 506 169 496T175 472T171 445T161 417T149 392T141 376V368Q184 366 210 356T250 331T264 296T257 257T231 221T192 191T143 173T88 173Z" />
<glyph unicode="&#xb4;" glyph-name="acute" horiz-adv-x="305" d="M42 624Q40 625 38 631T34 639Q28 653 48 665T103 687T180 708T260 729Q292 738 293 730T277 705T228 668T161 634T94 614T42 624Z" />
<glyph unicode="&#xb5;" glyph-name="mu" horiz-adv-x="537" d="M484 -29Q461 -5 444 29T413 98T392 167T377 223H369Q364 201 347 167T303 100T246 40T183 6T123 16T72 90Q72 93 72 82T70 52T68 10T66 -32T64 -62T63 -70L19 -74L53 487Q56 491 63 496T79 503T94
499T101 475V144Q101 135 104 124T112 101T124 80T140 66Q176 50 205 66T258 116T301 196T336 287T365 370T392 428Q394 427 396 424T400 420Q403 416 412 404T424 388Q424 369 424 336T428 262T438 180T457 100T488 34T535 -5L484 -29Z" />
<glyph unicode="&#xb6;" glyph-name="paragraph" horiz-adv-x="487" d="M382 6Q386 65 388 112T391 202T393 283T395 366T397 458T401 570Q380 561 361 550T344 530Q363 476 363 418T354 306T336 206T330 127Q327 110 322 87T310 43T296 4T281 -18T268 -15T259
25Q256 29 259 49T267 97T279 160T292 228T301 290T303 337Q284 323 271 314T247 297T222 279T190 254Q145 216 114 212T63 228T37 285T35 368T56 459T101 543T167 604T256 625Q286 629 321 630T387 629T436 615T455 586Q456 555 454 510T448 411T438 302T429 193T423
95T424 18Q426 8 418 -7T400 -30T384 -33T382 6Z" />
<glyph unicode="&#xb7;" glyph-name="middot" horiz-adv-x="229" d="M92 197Q69 215 65 237T70 278T99 308T147 315Q168 289 169 264T161 221T131 195T92 197Z" />
<glyph unicode="&#xb8;" glyph-name="cedilla" horiz-adv-x="853" d="M214 -318Q226 -326 245 -320T282 -299T313 -260T325 -211T305 -158T241 -106Q245 -97 243 -80T237 -45T232 -12T236 10Q254 29 259 19T267 -13T276 -61T303 -99Q360 -132 378 -169T386 -241T341
-304T261 -345Q255 -354 251 -354T241 -347T230 -333T214 -318Z" />
<glyph unicode="&#xb9;" glyph-name="onesuperior" horiz-adv-x="141" d="M46 156Q39 236 33 312T21 469Q20 475 23 481T30 490T41 492T52 483Q52 454 57 414T68 332T80 251T85 185T76 149T46 156Z" />
<glyph unicode="&#xba;" glyph-name="ordmasculine" horiz-adv-x="238" d="M47 166Q26 178 16 192T3 223T2 256T12 290Q17 301 21 316T30 346T44 375T64 396Q71 401 82 403T106 406T129 407T149 405Q180 403 197 389T221 354T223 307T207 256T177 208T138 172T93
156T47 166ZM58 196Q76 185 97 191T137 213T171 253T192 299T195 341T172 371Q145 384 121 379T79 358T50 319T34 271T35 227T58 196Z" />
<glyph unicode="&#xbb;" glyph-name="guillemotright" horiz-adv-x="692" d="M220 15Q216 29 228 58T259 125T302 202T344 279T371 344T370 386Q368 389 359 392T346 394H133Q130 394 118 391T90 384T60 378T39 378Q28 383 23 395T15 418Q11 434 21 441T46 449T75
450T94 449Q152 451 188 453T256 457T324 457T417 449Q425 431 426 410T425 371Q421 359 410 330T386 269T362 207T346 166Q341 152 332 122T310 61T278 12T236 0Q233 2 228 7T220 15ZM397 148Q392 162 404 191T436 258T479 335T521 412T548 477T547 519Q545 522
536 525T523 527H310Q307 527 295 524T267 517T237 511T216 511Q205 516 200 528T193 551Q188 567 198 574T223 582T252 583T271 582Q329 584 365 586T433 590T501 590T594 582Q602 564 603 543T602 504Q598 492 587 463T564 402T540 340T523 299Q518 285 509 255T487
195T455 145T413 133Q411 135 405 140T397 148Z" />
<glyph unicode="&#xbc;" glyph-name="onequarter" horiz-adv-x="655" d="M47 160Q39 228 33 292T21 424Q20 430 23 435T30 442T41 443T53 436Q53 412 58 378T69 309T81 240T87 185T78 154T47 160ZM25 228Q14 236 14 247T19 269T31 290T42 307Q73 368 99 422T153
528T210 629T278 732Q329 796 365 835Q380 851 393 863T415 879T426 875T420 843Q412 821 397 801T362 761T325 722T294 685Q262 638 237 597T190 513T145 424T97 322Q94 315 90 295T78 255T58 226T25 228ZM427 19Q426 24 425 38T424 70T423 108T423 147T422 180T423
202Q422 203 418 197T409 182T398 165T390 153Q384 149 379 147T365 143Q344 142 318 141T266 141T214 148T167 164Q163 166 161 181T157 217T155 263T154 311T155 351T158 375Q159 378 163 382T171 387T179 388T183 380V229Q183 213 197 202T232 184T280 176T331
179T375 193T402 218Q406 225 407 243T410 285T414 333T419 374T428 397T443 391Q444 390 446 386T448 380Q449 341 449 303T448 227T449 151T456 73Q464 66 465 52T462 24T450 2T431 -3Q431 0 429 8T427 19Z" />
<glyph unicode="&#xbd;" glyph-name="onehalf" horiz-adv-x="729" d="M57 159Q48 232 40 303T23 447Q23 453 27 458T36 466T50 468T65 460Q65 433 71 397T86 321T101 246T108 185T96 152T57 159ZM29 245Q18 253 18 264T23 286T35 307T46 324Q77 385 103 439T157
545T214 646T282 749Q333 813 369 852Q384 868 397 880T419 896T430 892T424 860Q416 838 401 818T366 778T329 739T298 702Q266 655 241 614T194 530T149 441T101 339Q98 332 94 312T82 272T62 243T29 245ZM216 5Q215 10 215 19T216 32Q218 34 230 49T259 88T295
138T330 193T354 243T360 282T338 301T279 292Q262 286 253 277T238 258T225 237T204 218Q186 228 184 240T185 267T194 296T198 327Q200 332 205 334T216 336T229 336T239 335Q240 327 249 325T271 323T300 323T333 323T366 317T394 300Q398 267 387 233T357 167T315
104T274 45V36Q325 34 370 38T458 51T543 71T632 97Q633 97 637 97T643 97Q652 86 639 75T597 54T531 35T450 19T367 7T293 0T239 -1T216 5Z" />
<glyph unicode="&#xbe;" glyph-name="threequarters" horiz-adv-x="741" d="M86 164Q72 167 66 177T58 198T60 222T70 244T84 258T100 258Q103 250 100 244T94 231T88 218T91 203Q100 189 114 188T145 193T177 215T206 246T226 280T232 312Q229 331 217 341T188
354T154 356T124 346Q117 342 112 336T103 323T94 308T82 297Q73 292 68 296T61 307T59 323T63 337Q69 346 79 360T101 391T123 427T139 464T146 497T138 524Q119 528 105 522T80 503T62 475T49 445Q47 440 46 435T42 428T34 424T21 425Q17 426 17 435T19 459T24
490T31 521T36 546T39 559Q48 569 54 569T63 566T68 552T68 534Q75 540 84 546T105 556T127 561T147 559Q161 553 166 541T172 513T167 481T157 449T146 420T138 401V391Q180 389 206 378T245 348T259 307T251 262T226 219T188 184T140 164T86 164ZM140 253Q129
261 129 272T134 294T146 315T157 332Q188 393 214 447T268 553T325 654T393 757Q444 821 480 860Q495 876 508 888T530 904T541 900T535 868Q527 846 512 826T477 786T440 747T409 710Q377 663 352 622T305 538T260 449T212 347Q209 340 205 320T193 280T173 251T140
253ZM480 2Q480 8 479 22T478 56T477 96T476 138T476 174T476 197Q476 198 472 191T463 175T452 157T444 145Q438 140 433 138T419 134Q398 134 373 133T322 132T271 139T224 157Q220 159 218 174T214 213T212 262T211 313T212 356T215 381Q216 384 220 388T228
393T236 394T240 386V226Q240 209 253 197T288 178T336 170T386 172T429 187T456 214Q459 221 461 241T464 286T467 336T472 380T481 404T497 398Q498 397 499 393T501 386Q502 345 502 305T501 224T502 142T509 60Q517 53 518 38T515 8T503 -16T485 -21Q484 -18
483 -10T480 2Z" />
<glyph unicode="&#xbf;" glyph-name="questiondown" horiz-adv-x="467" d="M109 736Q123 723 125 708T124 680T108 660T82 656Q76 657 72 667T67 690T67 717T74 739T88 749T109 736ZM119 484Q125 463 114 431T84 360T42 277T-1 186T-33 94T-41 4Q-38 -4 -31 -7T-19
-11Q22 -15 58 -3T128 33T190 91T247 166Q249 166 256 166T270 166T282 160T286 145Q284 134 272 119T242 86T203 50T162 16T129 -11T109 -26Q81 -46 50 -53T-13 -55Q-55 -50 -67 -19T-74 58T-49 157T-7 261T36 351T64 410Q69 421 72 435T80 462T91 485T109 498Q114
500 115 496T119 484Z" />
<glyph unicode="&#xc0;" glyph-name="Agrave" horiz-adv-x="754" d="M391 233Q356 247 334 274T298 337T278 413T271 494T270 571T273 635Q277 724 307 796T396 942Q434 987 467 1001T529 1009T580 977T619 920T644 852T656 788T652 741T631 724Q625 751 623 763T616
787T604 818T577 880Q549 936 520 951T464 950T413 893T368 798T334 681T314 561T311 453T328 375Q335 357 345 337T371 302T404 277T446 272Q494 282 529 313T589 388T631 486T659 595T679 702T693 796T707 864T726 895Q736 898 743 894T754 882T759 865T758 848Q725
791 713 733T703 619T723 513T764 420T818 345T877 294T933 272T979 286Q1019 328 1041 337T1070 338T1070 305T1045 260T999 221T937 206T863 238T781 334Q764 356 749 383T721 438T696 494T674 548Q668 519 657 480T628 400T587 322T534 259T468 225T391 233ZM420
731Q400 751 385 763T356 786T328 812T298 849Q293 856 291 868T290 892T299 910T321 913Q326 911 344 896T384 863T431 825T475 794Q486 788 483 773T470 745T445 726T420 731Z" />
<glyph unicode="&#xc1;" glyph-name="Aacute" horiz-adv-x="754" d="M150 8Q115 22 93 49T57 112T37 188T30 269T29 346T32 410Q36 499 66 571T155 717Q193 762 226 776T288 784T339 752T378 695T403 627T415 563T411 516T390 499Q384 526 382 538T375 562T363
593T336 655Q308 711 279 726T223 725T172 668T127 573T93 456T73 336T70 228T87 150Q94 132 104 112T130 77T163 52T205 47Q253 57 288 88T348 163T390 261T418 370T438 477T452 571T466 639T485 670Q495 673 502 669T513 657T518 640T517 623Q484 566 472 508T462
394T482 288T523 195T577 120T636 69T692 47T738 61Q778 103 800 112T829 113T829 80T804 35T758 -4T696 -19T622 13T540 109Q523 131 508 158T480 213T455 269T433 323Q427 294 416 255T387 175T346 97T293 34T227 0T150 8ZM146 826Q144 827 142 833T138 841Q132
855 152 867T207 889T284 910T364 931Q396 940 397 932T381 907T332 870T265 836T198 816T146 826Z" />
<glyph unicode="&#xc2;" glyph-name="Acircumflex" horiz-adv-x="754" d="M150 8Q115 22 93 49T57 112T37 188T30 269T29 346T32 410Q36 499 66 571T155 717Q193 762 226 776T288 784T339 752T378 695T403 627T415 563T411 516T390 499Q384 526 382 538T375 562T363
593T336 655Q308 711 279 726T223 725T172 668T127 573T93 456T73 336T70 228T87 150Q94 132 104 112T130 77T163 52T205 47Q253 57 288 88T348 163T390 261T418 370T438 477T452 571T466 639T485 670Q495 673 502 669T513 657T518 640T517 623Q484 566 472 508T462
394T482 288T523 195T577 120T636 69T692 47T738 61Q778 103 800 112T829 113T829 80T804 35T758 -4T696 -19T622 13T540 109Q523 131 508 158T480 213T455 269T433 323Q427 294 416 255T387 175T346 97T293 34T227 0T150 8ZM115 786Q113 788 104 797T91 810Q90
811 106 830T144 873T185 921T211 953Q219 966 227 982T250 1009H258Q287 954 313 914T355 848T375 807T361 791Q347 784 331 797T300 832T274 877T258 913Q246 919 236 909T216 880T196 841T173 803T147 781T115 786Z" />
<glyph unicode="&#xc3;" glyph-name="Atilde" horiz-adv-x="754" d="M38 865Q39 866 41 867T45 867Q63 836 82 826T123 817T169 830T222 855T282 880T351 893Q393 895 419 886T458 863T471 832T463 799Q459 792 457 797T444 812T409 830T338 839Q316 839 289 832T232
815T174 796T120 785T75 789T45 818Q43 822 40 828T35 840T33 853T38 865ZM150 8Q115 22 93 49T57 112T37 188T30 269T29 346T32 410Q36 499 66 571T155 717Q193 762 226 776T288 784T339 752T378 695T403 627T415 563T411 516T390 499Q384 526 382 538T375 562T363
593T336 655Q308 711 279 726T223 725T172 668T127 573T93 456T73 336T70 228T87 150Q94 132 104 112T130 77T163 52T205 47Q253 57 288 88T348 163T390 261T418 370T438 477T452 571T466 639T485 670Q495 673 502 669T513 657T518 640T517 623Q484 566 472 508T462
394T482 288T523 195T577 120T636 69T692 47T738 61Q778 103 800 112T829 113T829 80T804 35T758 -4T696 -19T622 13T540 109Q523 131 508 158T480 213T455 269T433 323Q427 294 416 255T387 175T346 97T293 34T227 0T150 8Z" />
<glyph unicode="&#xc4;" glyph-name="Adieresis" horiz-adv-x="747" d="M84 817Q81 822 84 836T93 868T107 902T126 930Q166 925 181 909T196 872T182 831T151 800T115 791T84 817ZM392 832Q389 838 383 853T373 886T368 921T377 950Q416 946 436 929T461 891T462
849T445 817T419 806T392 832ZM143 8Q108 22 86 49T50 112T30 188T23 269T22 346T25 410Q29 499 59 571T148 717Q186 762 219 776T281 784T332 752T371 695T396 627T408 563T404 516T383 499Q377 526 375 538T368 562T356 593T329 655Q301 711 272 726T216 725T165
668T120 573T86 456T66 336T63 228T80 150Q87 132 97 112T123 77T156 52T198 47Q246 57 281 88T341 163T383 261T411 370T431 477T445 571T459 639T478 670Q488 673 495 669T506 657T511 640T510 623Q477 566 465 508T455 394T475 288T516 195T570 120T629 69T685
47T731 61Q771 103 793 112T822 113T822 80T797 35T751 -4T689 -19T615 13T533 109Q516 131 501 158T473 213T448 269T426 323Q420 294 409 255T380 175T339 97T286 34T220 0T143 8Z" />
<glyph unicode="&#xc5;" glyph-name="Aring" horiz-adv-x="754" d="M230 764Q202 768 188 788T169 833T168 880T180 911Q183 914 193 913T204 909Q207 901 205 890T199 866T193 841T193 817T206 796T238 781Q261 775 281 782T315 804T336 838T341 875T324 907T283
925Q263 928 251 925T225 913Q218 911 219 915T227 924T248 933T279 937Q314 935 333 921T359 885T360 841T337 799T293 770T230 764ZM150 8Q115 22 93 49T57 112T37 188T30 269T29 346T32 410Q36 499 66 571T155 717Q193 762 226 776T288 784T339 752T378 695T403
627T415 563T411 516T390 499Q384 526 382 538T375 562T363 593T336 655Q308 711 279 726T223 725T172 668T127 573T93 456T73 336T70 228T87 150Q94 132 104 112T130 77T163 52T205 47Q253 57 288 88T348 163T390 261T418 370T438 477T452 571T466 639T485 670Q495
673 502 669T513 657T518 640T517 623Q484 566 472 508T462 394T482 288T523 195T577 120T636 69T692 47T738 61Q778 103 800 112T829 113T829 80T804 35T758 -4T696 -19T622 13T540 109Q523 131 508 158T480 213T455 269T433 323Q427 294 416 255T387 175T346
97T293 34T227 0T150 8Z" />
<glyph unicode="&#xc6;" glyph-name="AE" horiz-adv-x="1202" d="M462 251Q454 270 447 288T433 323Q427 294 416 255T387 175T346 97T293 34T227 0T150 8Q98 29 75 67T47 150T47 244T62 332Q77 408 98 477T143 605T194 707T247 777Q281 817 311 830T365 838T409
808T443 752Q491 771 545 777T648 796L1128 843Q1143 851 1159 849T1187 839T1201 818T1191 788Q1175 789 1140 788T1056 785T952 779T838 770T727 757T630 742T558 723T522 702Q505 673 501 629T497 536T504 441T514 363Q532 365 572 372T659 388T748 405T814
418Q850 425 863 431T880 443T888 454T908 466Q927 472 932 461T930 431T903 395T853 371Q835 367 804 365T738 359T665 351T596 339T542 320T514 293Q507 272 509 239T516 174T526 119T529 96Q547 96 581 96T655 99T735 107T808 122Q828 128 857 137T916 158T971
187T1010 222Q1014 228 1012 232T1007 241T1004 252T1010 269Q1048 266 1057 252T1054 217T1009 171T931 123T830 79T716 48T599 36T488 52L462 251ZM205 47Q246 55 277 82T333 150T373 241T402 346T422 456T437 561Q436 592 433 627T418 708Q402 773 378 792T325
795T267 735T208 631T155 502T113 367T89 243T87 150Q94 132 104 112T130 77T163 52T205 47Z" />
<glyph unicode="&#xc7;" glyph-name="Ccedilla" horiz-adv-x="606" d="M181 15Q133 29 101 60T50 135T24 230T20 336T35 446T65 551T107 641T158 709Q184 735 207 740T249 737T283 708T307 665T318 617T316 574T297 547T260 544Q249 557 253 577T262 617T265 656T237
685Q212 695 190 680T150 633T117 555T92 459T78 356T73 259T81 178T102 126Q123 101 147 87T199 67T255 61T315 63Q350 65 379 79T435 112T488 147T544 173Q581 184 585 172T570 136T509 85T415 35T302 6T181 15ZM451 -313Q463 -321 482 -315T519 -294T550 -255T562
-206T542 -153T478 -101Q482 -92 480 -75T474 -40T469 -7T473 15Q491 34 496 24T504 -8T513 -56T540 -94Q597 -127 615 -164T623 -236T578 -299T498 -340Q492 -349 488 -349T478 -342T467 -328T451 -313Z" />
<glyph unicode="&#xc8;" glyph-name="Egrave" horiz-adv-x="727" d="M118 15Q99 27 87 58T67 132T56 227T53 332T53 436T57 529T60 600T62 638Q59 629 47 633T25 648T14 672T31 693Q55 703 81 709T136 721T191 730T244 740L717 757Q732 765 748 763T776 753T790
732T780 702Q764 703 729 703T646 704T543 702T431 699T321 692T225 681T154 666T118 646Q101 617 97 573T93 480T100 385T110 307Q125 305 131 305T140 306T148 310T165 315Q171 316 189 319T233 328T287 338T340 348T385 357T410 362Q446 369 459 375T476 387T484
398T504 410Q523 416 528 405T526 375T499 339T449 315Q433 312 392 304T304 287T216 271T157 260Q155 259 148 256T134 249T120 242T110 237Q109 236 106 233T102 228Q106 138 127 96T186 45T281 49T417 87Q437 93 464 98T519 113T569 134T606 166Q610 172 608
176T603 185T600 196T606 213Q652 201 661 183T653 143T597 100T508 58T400 23T290 1T191 -4T118 15ZM393 772Q373 792 358 804T329 827T301 853T271 890Q266 897 264 909T263 933T272 951T294 954Q299 952 317 937T357 904T404 866T448 835Q459 829 456 814T443
786T418 767T393 772Z" />
<glyph unicode="&#xc9;" glyph-name="Eacute" horiz-adv-x="727" d="M118 15Q99 27 87 58T67 132T56 227T53 332T53 436T57 529T60 600T62 638Q59 629 47 633T25 648T14 672T31 693Q55 703 81 709T136 721T191 730T244 740L717 757Q732 765 748 763T776 753T790
732T780 702Q764 703 729 703T646 704T543 702T431 699T321 692T225 681T154 666T118 646Q101 617 97 573T93 480T100 385T110 307Q125 305 131 305T140 306T148 310T165 315Q171 316 189 319T233 328T287 338T340 348T385 357T410 362Q446 369 459 375T476 387T484
398T504 410Q523 416 528 405T526 375T499 339T449 315Q433 312 392 304T304 287T216 271T157 260Q155 259 148 256T134 249T120 242T110 237Q109 236 106 233T102 228Q106 138 127 96T186 45T281 49T417 87Q437 93 464 98T519 113T569 134T606 166Q610 172 608
176T603 185T600 196T606 213Q652 201 661 183T653 143T597 100T508 58T400 23T290 1T191 -4T118 15ZM97 809Q95 810 93 816T89 824Q83 838 103 850T158 872T235 893T315 914Q347 923 348 915T332 890T283 853T216 819T149 799T97 809Z" />
<glyph unicode="&#xca;" glyph-name="Ecircumflex" horiz-adv-x="727" d="M118 15Q99 27 87 58T67 132T56 227T53 332T53 436T57 529T60 600T62 638Q59 629 47 633T25 648T14 672T31 693Q55 703 81 709T136 721T191 730T244 740L717 757Q732 765 748 763T776 753T790
732T780 702Q764 703 729 703T646 704T543 702T431 699T321 692T225 681T154 666T118 646Q101 617 97 573T93 480T100 385T110 307Q125 305 131 305T140 306T148 310T165 315Q171 316 189 319T233 328T287 338T340 348T385 357T410 362Q446 369 459 375T476 387T484
398T504 410Q523 416 528 405T526 375T499 339T449 315Q433 312 392 304T304 287T216 271T157 260Q155 259 148 256T134 249T120 242T110 237Q109 236 106 233T102 228Q106 138 127 96T186 45T281 49T417 87Q437 93 464 98T519 113T569 134T606 166Q610 172 608
176T603 185T600 196T606 213Q652 201 661 183T653 143T597 100T508 58T400 23T290 1T191 -4T118 15ZM176 768Q174 770 165 779T152 792Q151 793 167 812T205 855T246 903T272 935Q280 948 288 964T311 991H319Q348 936 374 896T416 830T436 789T422 773Q408 766
392 779T361 814T335 859T319 895Q307 901 297 891T277 862T257 823T234 785T208 763T176 768Z" />
<glyph unicode="&#xcb;" glyph-name="Edieresis" horiz-adv-x="727" d="M118 15Q99 27 87 58T67 132T56 227T53 332T53 436T57 529T60 600T62 638Q59 629 47 633T25 648T14 672T31 693Q55 703 81 709T136 721T191 730T244 740L717 757Q732 765 748 763T776 753T790
732T780 702Q764 703 729 703T646 704T543 702T431 699T321 692T225 681T154 666T118 646Q101 617 97 573T93 480T100 385T110 307Q125 305 131 305T140 306T148 310T165 315Q171 316 189 319T233 328T287 338T340 348T385 357T410 362Q446 369 459 375T476 387T484
398T504 410Q523 416 528 405T526 375T499 339T449 315Q433 312 392 304T304 287T216 271T157 260Q155 259 148 256T134 249T120 242T110 237Q109 236 106 233T102 228Q106 138 127 96T186 45T281 49T417 87Q437 93 464 98T519 113T569 134T606 166Q610 172 608
176T603 185T600 196T606 213Q652 201 661 183T653 143T597 100T508 58T400 23T290 1T191 -4T118 15ZM95 843Q92 849 94 863T103 894T118 928T137 956Q176 952 191 936T207 899T193 858T162 826T126 817T95 843ZM350 830Q347 835 341 850T330 884T325 919T334 948Q373
943 393 926T419 888T419 847T402 815T376 804T350 830Z" />
<glyph unicode="&#xcc;" glyph-name="Igrave" horiz-adv-x="134" d="M40 8Q38 8 36 11T32 15Q30 90 31 165T35 315T39 464T40 614Q41 631 49 641T67 654T86 649T102 623V614Q85 489 85 359T87 102Q90 104 97 108T111 111Q112 97 109 74T98 32T75 3T40 8ZM111 735Q91
755 76 767T47 790T19 816T-11 853Q-16 860 -18 872T-19 896T-10 914T12 917Q17 915 35 900T75 867T122 829T166 798Q177 792 174 777T161 749T136 730T111 735Z" />
<glyph unicode="&#xcd;" glyph-name="Iacute" horiz-adv-x="134" d="M40 8Q38 8 36 11T32 15Q30 90 31 165T35 315T39 464T40 614Q41 631 49 641T67 654T86 649T102 623V614Q85 489 85 359T87 102Q90 104 97 108T111 111Q112 97 109 74T98 32T75 3T40 8ZM-29 802Q-31
803 -33 809T-37 817Q-43 831 -23 843T32 865T109 886T189 907Q221 916 222 908T206 883T157 846T90 812T23 792T-29 802Z" />
<glyph unicode="&#xce;" glyph-name="Icircumflex" horiz-adv-x="134" d="M40 8Q38 8 36 11T32 15Q30 90 31 165T35 315T39 464T40 614Q41 631 49 641T67 654T86 649T102 623V614Q85 489 85 359T87 102Q90 104 97 108T111 111Q112 97 109 74T98 32T75 3T40 8ZM-63
666Q-65 668 -74 677T-87 690Q-88 691 -72 710T-34 753T7 801T33 833Q41 846 49 862T72 889H80Q109 834 135 794T177 728T197 687T183 671Q169 664 153 677T122 712T96 757T80 793Q68 799 58 789T38 760T18 721T-5 683T-31 661T-63 666Z" />
<glyph unicode="&#xcf;" glyph-name="Idieresis" horiz-adv-x="134" d="M40 8Q38 8 36 11T32 15Q30 90 31 165T35 315T39 464T40 614Q41 631 49 641T67 654T86 649T102 623V614Q85 489 85 359T87 102Q90 104 97 108T111 111Q112 97 109 74T98 32T75 3T40 8ZM5
652Q3 656 4 666T10 688T20 712T32 732Q58 729 68 718T79 692T69 663T49 640T25 633T5 652ZM173 643Q171 647 167 657T160 681T156 706T162 726Q188 723 201 711T218 684T218 655T207 632T190 625T173 643Z" />
<glyph unicode="&#xd0;" glyph-name="Eth" horiz-adv-x="626" d="M-52 253Q-57 267 -53 276T-29 291Q-15 294 15 295T84 299Q78 387 66 485T43 670Q33 721 32 753Q32 766 33 776T39 790T52 788T75 764Q77 748 81 715T91 639T103 551T114 463T123 388T129 339Q129
338 129 332T130 319T130 304T131 295Q166 295 200 299T263 308T309 315T332 315Q348 305 344 293T326 270T295 256T268 260Q225 261 194 259T135 252Q136 238 136 228T137 213Q143 207 145 196T147 174T146 154T145 141Q151 129 165 121T197 107T232 98T263 94Q341
89 403 122T504 212T555 341T547 488Q534 534 503 576T429 655T335 722T230 772T124 803T27 811Q19 814 18 819T19 831T26 843T35 851Q77 857 116 852T193 833T265 799T334 756Q369 732 408 703T483 640T548 568T594 488Q622 419 618 355T587 238T512 146T407 85T283
62T153 87Q153 83 155 67T157 33T148 4T122 0Q120 2 114 7T105 15Q105 20 104 32T102 59T100 85T98 102L90 118Q91 150 91 181T89 245Q63 242 33 242T-37 245Q-39 245 -45 248T-52 253Z" />
<glyph unicode="&#xd1;" glyph-name="Ntilde" horiz-adv-x="851" d="M24 15Q17 24 17 51T21 113T32 187T45 258T57 313T63 339Q77 432 89 516T102 693Q134 712 164 705T222 677T273 630T315 583Q325 572 345 549T390 497T442 437T495 377T539 325T567 292Q573
285 586 267T615 229T643 191T662 166Q684 238 691 316T701 474T709 633T733 787Q738 809 749 814T774 815T800 796T820 769T828 742T819 725Q815 723 803 723T788 732L780 725Q779 724 776 710T770 678T763 639T757 606Q746 541 742 475T736 343T730 211T717 79Q708
56 696 56T670 70T642 105T617 148T599 186T591 205Q503 316 413 416T221 614Q210 622 195 632T166 638Q165 635 163 626T158 607T153 588T150 575Q132 434 116 296T79 15Q63 0 50 -1T24 15ZM207 857Q208 858 210 859T214 859Q232 828 251 818T292 809T338 823T391
848T451 872T520 885Q562 887 588 879T627 856T640 824T632 792Q628 785 626 790T613 805T578 823T507 832Q485 832 458 825T401 807T343 788T289 777T244 781T214 810Q212 814 209 820T204 833T202 846T207 857Z" />
<glyph unicode="&#xd2;" glyph-name="Ograve" horiz-adv-x="662" d="M173 8Q146 14 122 28T78 62T44 106T24 158Q21 222 27 281T46 398T80 513T126 630Q126 632 129 635T134 638Q139 639 154 639T173 638Q178 600 163 553T127 454T84 350T57 247T67 155T134 79Q164
60 201 54T275 53T348 73T410 111Q484 174 522 240T571 372T570 496T528 602T459 682T375 725T286 722T205 662Q190 654 188 658T191 674T211 700T241 730T275 756T307 772Q324 776 345 774T386 764T426 747T457 725Q476 707 497 688T538 647T576 601T606 551Q636
485 636 415T612 278T543 156T440 62T313 8T173 8ZM435 783Q415 803 400 815T371 838T343 864T313 901Q308 908 306 920T305 944T314 962T336 965Q341 963 359 948T399 915T446 877T490 846Q501 840 498 825T485 797T460 778T435 783Z" />
<glyph unicode="&#xd3;" glyph-name="Oacute" horiz-adv-x="662" d="M173 8Q146 14 122 28T78 62T44 106T24 158Q21 222 27 281T46 398T80 513T126 630Q126 632 129 635T134 638Q139 639 154 639T173 638Q178 600 163 553T127 454T84 350T57 247T67 155T134 79Q164
60 201 54T275 53T348 73T410 111Q484 174 522 240T571 372T570 496T528 602T459 682T375 725T286 722T205 662Q190 654 188 658T191 674T211 700T241 730T275 756T307 772Q324 776 345 774T386 764T426 747T457 725Q476 707 497 688T538 647T576 601T606 551Q636
485 636 415T612 278T543 156T440 62T313 8T173 8ZM166 805Q164 806 162 812T158 820Q152 834 172 846T227 868T304 889T384 910Q416 919 417 911T401 886T352 849T285 815T218 795T166 805Z" />
<glyph unicode="&#xd4;" glyph-name="Ocircumflex" horiz-adv-x="662" d="M173 8Q146 14 122 28T78 62T44 106T24 158Q21 222 27 281T46 398T80 513T126 630Q126 632 129 635T134 638Q139 639 154 639T173 638Q178 600 163 553T127 454T84 350T57 247T67 155T134
79Q164 60 201 54T275 53T348 73T410 111Q484 174 522 240T571 372T570 496T528 602T459 682T375 725T286 722T205 662Q190 654 188 658T191 674T211 700T241 730T275 756T307 772Q324 776 345 774T386 764T426 747T457 725Q476 707 497 688T538 647T576 601T606
551Q636 485 636 415T612 278T543 156T440 62T313 8T173 8ZM193 797Q191 799 182 808T169 821Q168 822 184 841T222 884T263 932T289 964Q297 977 305 993T328 1020H336Q365 965 391 925T433 859T453 818T439 802Q425 795 409 808T378 843T352 888T336 924Q324
930 314 920T294 891T274 852T251 814T225 792T193 797Z" />
<glyph unicode="&#xd5;" glyph-name="Otilde" horiz-adv-x="662" d="M173 8Q146 14 122 28T78 62T44 106T24 158Q21 222 27 281T46 398T80 513T126 630Q126 632 129 635T134 638Q139 639 154 639T173 638Q178 600 163 553T127 454T84 350T57 247T67 155T134 79Q164
60 201 54T275 53T348 73T410 111Q484 174 522 240T571 372T570 496T528 602T459 682T375 725T286 722T205 662Q190 654 188 658T191 674T211 700T241 730T275 756T307 772Q324 776 345 774T386 764T426 747T457 725Q476 707 497 688T538 647T576 601T606 551Q636
485 636 415T612 278T543 156T440 62T313 8T173 8ZM124 888Q125 889 127 890T131 890Q149 859 168 849T209 840T255 854T308 879T368 903T437 916Q479 918 505 910T544 887T557 855T549 823Q545 816 543 821T530 836T495 854T424 863Q402 863 375 856T318 838T260
819T206 808T161 812T131 841Q129 845 126 851T121 864T119 877T124 888Z" />
<glyph unicode="&#xd6;" glyph-name="Odieresis" horiz-adv-x="662" d="M173 8Q146 14 122 28T78 62T44 106T24 158Q21 222 27 281T46 398T80 513T126 630Q126 632 129 635T134 638Q139 639 154 639T173 638Q178 600 163 553T127 454T84 350T57 247T67 155T134
79Q164 60 201 54T275 53T348 73T410 111Q484 174 522 240T571 372T570 496T528 602T459 682T375 725T286 722T205 662Q190 654 188 658T191 674T211 700T241 730T275 756T307 772Q324 776 345 774T386 764T426 747T457 725Q476 707 497 688T538 647T576 601T606
551Q636 485 636 415T612 278T543 156T440 62T313 8T173 8ZM179 815Q176 821 178 835T187 866T202 900T221 928Q260 924 275 908T291 871T277 830T246 798T210 789T179 815ZM434 802Q431 807 425 822T414 856T409 891T418 920Q457 915 477 898T503 860T503 819T486
787T460 776T434 802Z" />
<glyph unicode="&#xd7;" glyph-name="multiply" horiz-adv-x="451" d="M101 111Q96 117 98 126T106 145T117 162T125 174Q132 187 143 210T166 256T185 296T194 314V323Q194 323 181 337T149 372T111 416T79 460Q52 493 52 508T68 521T108 498T152 438Q155 432
164 423T184 404T204 385T217 370Q227 365 240 382T267 426T297 479T327 522T354 534T377 492Q378 490 378 484T377 476Q369 464 354 447T323 410T292 366T270 320T267 273T291 229Q294 224 300 218T313 205T324 194T330 189Q337 187 345 175T361 149T372 122T372
103T355 101T314 127Q300 137 290 152T271 182T251 211T227 237Q221 232 213 216T196 180T176 140T153 107T128 94T101 111Z" />
<glyph unicode="&#xd8;" glyph-name="Oslash" horiz-adv-x="662" d="M173 8Q146 14 122 28T78 62T44 106T24 158Q21 222 27 281T46 398T80 513T126 630Q126 632 129 635T134 638Q139 639 154 639T173 638Q178 600 163 553T127 454T84 350T57 247T67 155T134 79Q164
60 201 54T275 53T348 73T410 111Q484 174 522 240T571 372T570 496T528 602T459 682T375 725T286 722T205 662Q190 654 188 658T191 674T211 700T241 730T275 756T307 772Q324 776 345 774T386 764T426 747T457 725Q476 707 497 688T538 647T576 601T606 551Q636
485 636 415T612 278T543 156T440 62T313 8T173 8ZM127 8Q116 16 116 27T121 49T133 70T144 87Q175 148 201 202T255 308T312 409T380 512Q431 576 467 615Q482 631 495 643T517 659T528 655T522 623Q514 601 499 581T464 541T427 502T396 465Q364 418 339 377T292
293T247 204T199 102Q196 95 192 75T180 35T160 6T127 8Z" />
<glyph unicode="&#xd9;" glyph-name="Ugrave" horiz-adv-x="835" d="M102 8Q86 18 79 42T68 94T64 148T62 189Q59 249 56 298T47 394T36 485T24 583Q24 585 24 590T23 602T23 614T24 623Q34 637 44 632T61 614T74 586T79 567L102 150Q105 101 116 83T145 67T183
90T225 139T267 203T305 267T333 319T346 346Q351 357 362 384T386 441T410 498T425 536Q426 540 429 553T438 582T449 610T463 627T479 622T497 583Q495 556 495 507T502 399T521 281T557 174T616 100T701 79Q714 81 725 92T748 115T773 134T804 134Q808 88 788
60T734 21T661 19T591 55Q552 88 529 136T492 239T471 349T457 449L449 465Q447 461 437 436T410 372T371 288T323 195T269 108T212 39T155 1T102 8ZM278 715Q258 735 243 747T214 770T186 796T156 833Q151 840 149 852T148 876T157 894T179 897Q184 895 202 880T242
847T289 809T333 778Q344 772 341 757T328 729T303 710T278 715Z" />
<glyph unicode="&#xda;" glyph-name="Uacute" horiz-adv-x="835" d="M102 8Q86 18 79 42T68 94T64 148T62 189Q59 249 56 298T47 394T36 485T24 583Q24 585 24 590T23 602T23 614T24 623Q34 637 44 632T61 614T74 586T79 567L102 150Q105 101 116 83T145 67T183
90T225 139T267 203T305 267T333 319T346 346Q351 357 362 384T386 441T410 498T425 536Q426 540 429 553T438 582T449 610T463 627T479 622T497 583Q495 556 495 507T502 399T521 281T557 174T616 100T701 79Q714 81 725 92T748 115T773 134T804 134Q808 88 788
60T734 21T661 19T591 55Q552 88 529 136T492 239T471 349T457 449L449 465Q447 461 437 436T410 372T371 288T323 195T269 108T212 39T155 1T102 8ZM152 784Q150 785 148 791T144 799Q138 813 158 825T213 847T290 868T370 889Q402 898 403 890T387 865T338 828T271
794T204 774T152 784Z" />
<glyph unicode="&#xdb;" glyph-name="Ucircumflex" horiz-adv-x="835" d="M102 8Q86 18 79 42T68 94T64 148T62 189Q59 249 56 298T47 394T36 485T24 583Q24 585 24 590T23 602T23 614T24 623Q34 637 44 632T61 614T74 586T79 567L102 150Q105 101 116 83T145
67T183 90T225 139T267 203T305 267T333 319T346 346Q351 357 362 384T386 441T410 498T425 536Q426 540 429 553T438 582T449 610T463 627T479 622T497 583Q495 556 495 507T502 399T521 281T557 174T616 100T701 79Q714 81 725 92T748 115T773 134T804 134Q808
88 788 60T734 21T661 19T591 55Q552 88 529 136T492 239T471 349T457 449L449 465Q447 461 437 436T410 372T371 288T323 195T269 108T212 39T155 1T102 8ZM161 640Q159 642 150 651T137 664Q136 665 152 684T190 727T231 775T257 807Q265 820 273 836T296 863H304Q333
808 359 768T401 702T421 661T407 645Q393 638 377 651T346 686T320 731T304 767Q292 773 282 763T262 734T242 695T219 657T193 635T161 640Z" />
<glyph unicode="&#xdc;" glyph-name="Udieresis" horiz-adv-x="835" d="M102 8Q86 18 79 42T68 94T64 148T62 189Q59 249 56 298T47 394T36 485T24 583Q24 585 24 590T23 602T23 614T24 623Q34 637 44 632T61 614T74 586T79 567L102 150Q105 101 116 83T145 67T183
90T225 139T267 203T305 267T333 319T346 346Q351 357 362 384T386 441T410 498T425 536Q426 540 429 553T438 582T449 610T463 627T479 622T497 583Q495 556 495 507T502 399T521 281T557 174T616 100T701 79Q714 81 725 92T748 115T773 134T804 134Q808 88 788
60T734 21T661 19T591 55Q552 88 529 136T492 239T471 349T457 449L449 465Q447 461 437 436T410 372T371 288T323 195T269 108T212 39T155 1T102 8ZM82 761Q79 767 81 781T90 812T105 846T124 874Q163 870 178 854T194 817T180 776T149 744T113 735T82 761ZM337
748Q334 753 328 768T317 802T312 837T321 866Q360 861 380 844T406 806T406 765T389 733T363 722T337 748Z" />
<glyph unicode="&#xdd;" glyph-name="Yacute" horiz-adv-x="646" d="M465 15Q449 31 443 64T437 138T442 226T452 317T462 397T465 457H457Q419 395 384 369T316 341T254 359T201 406T157 466T123 524L17 683Q11 696 11 708T16 729T32 738T56 730Q69 721 81 698T109
643T142 576T186 510T245 456T324 425Q355 420 378 434T421 475T456 538T484 611T509 683T533 745T559 784T590 790Q585 740 576 677T556 545T537 405T522 267T515 142T520 39Q523 25 518 17T504 5T485 4T465 15ZM240 815Q238 816 236 822T232 830Q226 844 246
856T301 878T378 899T458 920Q490 929 491 921T475 896T426 859T359 825T292 805T240 815Z" />
<glyph unicode="&#xde;" glyph-name="Thorn" horiz-adv-x="455" d="M82 -9Q73 -4 67 10T58 30Q59 113 55 202T47 385T40 572T42 760Q39 776 35 801T32 844T44 862T82 830Q91 802 91 755T88 658T81 562T77 493Q82 515 92 542T117 593T154 635T203 657Q269 667 316
643T392 573T432 469T436 351T405 241T341 160T245 129T116 169Q116 161 115 143T113 104T110 60T105 20T96 -6T82 -9ZM186 193Q234 174 278 186T352 240Q391 294 400 349T399 454T360 540T300 595T230 607T166 560T120 442T108 240L186 193Z" />
<glyph unicode="&#xdf;" glyph-name="germandbls" horiz-adv-x="669" d="M98 -123Q60 -32 44 57T23 230T23 391T33 537T39 662T31 764Q23 797 44 824T98 874T170 912T236 937Q327 950 381 943T463 916T495 866T489 801T460 732T420 668T382 618T361 591Q461 580
523 546T617 465T652 361T637 249T579 145T488 64T371 20T238 29L295 82Q375 65 435 86T535 156T590 275T598 425Q588 458 561 479T504 512Q440 535 394 540T315 539T262 517T230 484T212 451T202 425L172 504Q210 538 256 576T341 657T407 752T432 866Q415 881
385 888T319 896T245 890T173 870T116 838T82 795Q93 736 93 659T89 496T82 324T83 158T107 13T164 -94L98 -123Z" />
<glyph unicode="&#xe0;" glyph-name="agrave" horiz-adv-x="524" d="M59 37Q39 57 27 98T11 191T9 301T22 415T50 519T93 598T151 639T224 628Q238 620 253 601T283 559T307 512T323 472Q324 467 324 442T322 380T322 301T329 216T347 139T379 83T429 61T504 85Q520
99 523 112T526 135T528 148T546 143Q566 117 560 88T531 36T474 4T405 8T337 65T286 190Q280 173 268 148T238 98T200 51T155 18T108 9T59 37ZM68 100Q85 64 108 61T155 79T202 140T242 230T267 336T271 443T244 536T180 602Q179 603 177 603T172 603Q141 589
118 555T79 475T53 376T43 272T48 176T68 100ZM278 659Q258 679 243 691T214 714T186 740T156 777Q151 784 149 796T148 820T157 838T179 841Q184 839 202 824T242 791T289 753T333 722Q344 716 341 701T328 673T303 654T278 659Z" />
<glyph unicode="&#xe1;" glyph-name="aacute" horiz-adv-x="524" d="M59 37Q39 57 27 98T11 191T9 301T22 415T50 519T93 598T151 639T224 628Q238 620 253 601T283 559T307 512T323 472Q324 467 324 442T322 380T322 301T329 216T347 139T379 83T429 61T504 85Q520
99 523 112T526 135T528 148T546 143Q566 117 560 88T531 36T474 4T405 8T337 65T286 190Q280 173 268 148T238 98T200 51T155 18T108 9T59 37ZM68 100Q85 64 108 61T155 79T202 140T242 230T267 336T271 443T244 536T180 602Q179 603 177 603T172 603Q141 589
118 555T79 475T53 376T43 272T48 176T68 100ZM54 692Q52 693 50 699T46 707Q40 721 60 733T115 755T192 776T272 797Q304 806 305 798T289 773T240 736T173 702T106 682T54 692Z" />
<glyph unicode="&#xe2;" glyph-name="acircumflex" horiz-adv-x="524" d="M59 37Q39 57 27 98T11 191T9 301T22 415T50 519T93 598T151 639T224 628Q238 620 253 601T283 559T307 512T323 472Q324 467 324 442T322 380T322 301T329 216T347 139T379 83T429 61T504
85Q520 99 523 112T526 135T528 148T546 143Q566 117 560 88T531 36T474 4T405 8T337 65T286 190Q280 173 268 148T238 98T200 51T155 18T108 9T59 37ZM68 100Q85 64 108 61T155 79T202 140T242 230T267 336T271 443T244 536T180 602Q179 603 177 603T172 603Q141
589 118 555T79 475T53 376T43 272T48 176T68 100ZM280 671Q278 673 269 682T256 695Q255 696 271 715T309 758T350 806T376 838Q384 851 392 867T415 894H423Q452 839 478 799T520 733T540 692T526 676Q512 669 496 682T465 717T439 762T423 798Q411 804 401 794T381
765T361 726T338 688T312 666T280 671Z" />
<glyph unicode="&#xe3;" glyph-name="atilde" horiz-adv-x="524" d="M59 37Q39 57 27 98T11 191T9 301T22 415T50 519T93 598T151 639T224 628Q238 620 253 601T283 559T307 512T323 472Q324 467 324 442T322 380T322 301T329 216T347 139T379 83T429 61T504 85Q520
99 523 112T526 135T528 148T546 143Q566 117 560 88T531 36T474 4T405 8T337 65T286 190Q280 173 268 148T238 98T200 51T155 18T108 9T59 37ZM68 100Q85 64 108 61T155 79T202 140T242 230T267 336T271 443T244 536T180 602Q179 603 177 603T172 603Q141 589
118 555T79 475T53 376T43 272T48 176T68 100ZM-41 783Q-40 784 -38 785T-34 785Q-16 754 3 744T44 735T90 749T143 774T203 798T272 811Q314 813 340 805T379 782T392 750T384 718Q380 711 378 716T365 731T330 749T259 758Q237 758 210 751T153 733T95 714T41
703T-4 707T-34 736Q-36 740 -39 746T-44 759T-46 772T-41 783Z" />
<glyph unicode="&#xe4;" glyph-name="adieresis" horiz-adv-x="524" d="M59 37Q39 57 27 98T11 191T9 301T22 415T50 519T93 598T151 639T224 628Q238 620 253 601T283 559T307 512T323 472Q324 467 324 442T322 380T322 301T329 216T347 139T379 83T429 61T504
85Q520 99 523 112T526 135T528 148T546 143Q566 117 560 88T531 36T474 4T405 8T337 65T286 190Q280 173 268 148T238 98T200 51T155 18T108 9T59 37ZM68 100Q85 64 108 61T155 79T202 140T242 230T267 336T271 443T244 536T180 602Q179 603 177 603T172 603Q141
589 118 555T79 475T53 376T43 272T48 176T68 100ZM279 723Q276 729 278 743T287 774T302 808T321 836Q360 832 375 816T391 779T377 738T346 706T310 697T279 723ZM534 710Q531 715 525 730T514 764T509 799T518 828Q557 823 577 806T603 768T603 727T586 695T560
684T534 710Z" />
<glyph unicode="&#xe5;" glyph-name="aring" horiz-adv-x="524" d="M146 645Q126 648 113 662T92 697T80 740T77 784T81 822T91 847Q95 852 106 850T119 844Q123 827 116 802T106 750T110 702T156 668Q181 660 203 670T240 700T264 747T269 798T251 842T206 867Q183
871 170 866T142 850Q134 847 135 852T145 865T168 879T202 884Q240 881 261 861T290 811T290 750T265 692T216 652T146 645ZM59 37Q39 57 27 98T11 191T9 301T22 415T50 519T93 598T151 639T224 628Q238 620 253 601T283 559T307 512T323 472Q324 467 324 442T322
380T322 301T329 216T347 139T379 83T429 61T504 85Q520 99 523 112T526 135T528 148T546 143Q566 117 560 88T531 36T474 4T405 8T337 65T286 190Q280 173 268 148T238 98T200 51T155 18T108 9T59 37ZM68 100Q85 64 108 61T155 79T202 140T242 230T267 336T271
443T244 536T180 602Q179 603 177 603T172 603Q141 589 118 555T79 475T53 376T43 272T48 176T68 100Z" />
<glyph unicode="&#xe6;" glyph-name="ae" horiz-adv-x="620" d="M59 37Q39 57 27 98T11 191T9 301T22 415T50 519T93 598T151 639T224 628Q238 620 253 601T283 559T307 512T323 472Q325 457 325 443T328 415Q335 446 344 482T367 547T404 589T461 588Q464 586
469 581T481 569T492 558T500 549Q504 500 494 466T467 409T429 369T389 339T357 309T342 272Q341 261 341 251T340 232Q340 225 340 219T341 207Q343 180 355 158T397 115Q414 103 439 109T490 130T541 164T584 196T610 214T610 202Q596 169 577 136T532 80T473
50T397 60Q362 75 342 99Q331 51 320 35T299 31T286 84T286 190Q280 173 268 148T238 98T200 51T155 18T108 9T59 37ZM68 100Q85 64 108 61T155 79T202 140T242 230T267 336T271 443T244 536T180 602Q179 603 177 603T172 603Q141 589 118 555T79 475T53 376T43
272T48 176T68 100ZM365 423Q364 418 361 403T358 383Q359 382 361 382T365 383Q368 385 374 389T386 398T397 407T405 414Q435 444 447 469T460 511T450 532T425 529T394 495T365 423Z" />
<glyph unicode="&#xe7;" glyph-name="ccedilla" horiz-adv-x="410" d="M134 15Q108 35 86 76T48 167T27 273T26 376T49 461T102 512Q130 523 150 508T184 467T201 414T201 375T182 372T142 433Q131 456 119 449T96 413T79 343T72 254T78 165T104 91T152 49T228
55Q237 59 257 80T300 127T347 177T385 210T405 208T394 150Q383 115 355 80T290 21T212 -7T134 15ZM410 -313Q422 -321 441 -315T478 -294T509 -255T521 -206T501 -153T437 -101Q441 -92 439 -75T433 -40T428 -7T432 15Q450 34 455 24T463 -8T472 -56T499 -94Q556
-127 574 -164T582 -236T537 -299T457 -340Q451 -349 447 -349T437 -342T426 -328T410 -313Z" />
<glyph unicode="&#xe8;" glyph-name="egrave" horiz-adv-x="449" d="M220 8Q182 24 163 49T134 104T123 168T118 237Q95 233 73 233T35 237T11 247T9 261T37 277T102 292Q108 292 119 298T133 307Q140 317 146 341T158 396T174 456T198 509T233 540T284 536Q287
534 292 529T304 517T315 506T323 497Q327 448 317 414T290 357T252 317T212 287T180 257T165 220Q163 194 163 173T168 132T185 96T220 63Q237 51 262 57T313 78T364 112T407 144T433 162T433 150Q419 117 400 84T355 28T296 -2T220 8ZM188 371Q187 366 184 351T181
331Q182 330 184 330T188 331Q191 333 197 337T209 346T220 355T228 362Q258 392 270 417T283 459T273 480T248 477T217 443T188 371ZM267 575Q247 595 232 607T203 630T175 656T145 693Q140 700 138 712T137 736T146 754T168 757Q173 755 191 740T231 707T278
669T322 638Q333 632 330 617T317 589T292 570T267 575Z" />
<glyph unicode="&#xe9;" glyph-name="eacute" horiz-adv-x="449" d="M220 8Q182 24 163 49T134 104T123 168T118 237Q95 233 73 233T35 237T11 247T9 261T37 277T102 292Q108 292 119 298T133 307Q140 317 146 341T158 396T174 456T198 509T233 540T284 536Q287
534 292 529T304 517T315 506T323 497Q327 448 317 414T290 357T252 317T212 287T180 257T165 220Q163 194 163 173T168 132T185 96T220 63Q237 51 262 57T313 78T364 112T407 144T433 162T433 150Q419 117 400 84T355 28T296 -2T220 8ZM188 371Q187 366 184 351T181
331Q182 330 184 330T188 331Q191 333 197 337T209 346T220 355T228 362Q258 392 270 417T283 459T273 480T248 477T217 443T188 371ZM147 691Q145 692 143 698T139 706Q133 720 153 732T208 754T285 775T365 796Q397 805 398 797T382 772T333 735T266 701T199
681T147 691Z" />
<glyph unicode="&#xea;" glyph-name="ecircumflex" horiz-adv-x="449" d="M220 8Q182 24 163 49T134 104T123 168T118 237Q95 233 73 233T35 237T11 247T9 261T37 277T102 292Q108 292 119 298T133 307Q140 317 146 341T158 396T174 456T198 509T233 540T284 536Q287
534 292 529T304 517T315 506T323 497Q327 448 317 414T290 357T252 317T212 287T180 257T165 220Q163 194 163 173T168 132T185 96T220 63Q237 51 262 57T313 78T364 112T407 144T433 162T433 150Q419 117 400 84T355 28T296 -2T220 8ZM188 371Q187 366 184 351T181
331Q182 330 184 330T188 331Q191 333 197 337T209 346T220 355T228 362Q258 392 270 417T283 459T273 480T248 477T217 443T188 371ZM93 590Q91 592 82 601T69 614Q68 615 84 634T122 677T163 725T189 757Q197 770 205 786T228 813H236Q265 758 291 718T333 652T353
611T339 595Q325 588 309 601T278 636T252 681T236 717Q224 723 214 713T194 684T174 645T151 607T125 585T93 590Z" />
<glyph unicode="&#xeb;" glyph-name="edieresis" horiz-adv-x="449" d="M220 8Q182 24 163 49T134 104T123 168T118 237Q95 233 73 233T35 237T11 247T9 261T37 277T102 292Q108 292 119 298T133 307Q140 317 146 341T158 396T174 456T198 509T233 540T284 536Q287
534 292 529T304 517T315 506T323 497Q327 448 317 414T290 357T252 317T212 287T180 257T165 220Q163 194 163 173T168 132T185 96T220 63Q237 51 262 57T313 78T364 112T407 144T433 162T433 150Q419 117 400 84T355 28T296 -2T220 8ZM188 371Q187 366 184 351T181
331Q182 330 184 330T188 331Q191 333 197 337T209 346T220 355T228 362Q258 392 270 417T283 459T273 480T248 477T217 443T188 371ZM302 851Q299 857 301 871T310 902T325 936T344 964Q383 960 398 944T414 907T400 866T369 834T333 825T302 851ZM557 838Q554
843 548 858T537 892T532 927T541 956Q580 951 600 934T626 896T626 855T609 823T583 812T557 838Z" />
<glyph unicode="&#xec;" glyph-name="igrave" horiz-adv-x="111" d="M24 24Q22 30 21 64T20 148T20 254T22 362T26 450T32 497Q38 500 45 497T57 489T67 477T71 465V24Q71 13 65 8T51 2T35 7T24 24ZM32 653Q31 656 31 661T30 673T30 685T32 693Q40 697 50 700T71
701Q88 679 92 666T93 645T80 636T60 636T42 642T32 653ZM356 575Q336 595 321 607T292 630T264 656T234 693Q229 700 227 712T226 736T235 754T257 757Q262 755 280 740T320 707T367 669T411 638Q422 632 419 617T406 589T381 570T356 575Z" />
<glyph unicode="&#xed;" glyph-name="iacute" horiz-adv-x="127" d="M40 24Q38 30 37 64T36 148T37 254T39 362T43 450T48 497Q54 500 61 497T74 489T83 477T87 465V24Q87 13 81 8T67 2T51 7T40 24ZM-26 632Q-28 633 -30 639T-34 647Q-40 661 -20 673T35 695T112
716T192 737Q224 746 225 738T209 713T160 676T93 642T26 622T-26 632Z" />
<glyph unicode="&#xee;" glyph-name="icircumflex" horiz-adv-x="111" d="M24 24Q22 30 21 64T20 148T20 254T22 362T26 450T32 497Q38 500 45 497T57 489T67 477T71 465V24Q71 13 65 8T51 2T35 7T24 24ZM-84 553Q-86 555 -95 564T-108 577Q-109 578 -93 597T-55
640T-14 688T12 720Q20 733 28 749T51 776H59Q88 721 114 681T156 615T176 574T162 558Q148 551 132 564T101 599T75 644T59 680Q47 686 37 676T17 647T-3 608T-26 570T-52 548T-84 553Z" />
<glyph unicode="&#xef;" glyph-name="idieresis" horiz-adv-x="111" d="M24 24Q22 30 21 64T20 148T20 254T22 362T26 450T32 497Q38 500 45 497T57 489T67 477T71 465V24Q71 13 65 8T51 2T35 7T24 24ZM-25 580Q-27 584 -26 594T-21 616T-12 639T-2 659Q20 656
28 645T37 619T29 590T12 569T-8 562T-25 580ZM116 571Q114 574 111 584T106 608T103 633T107 653Q129 650 140 638T154 612T154 583T145 560T130 553T116 571Z" />
<glyph unicode="&#xf0;" glyph-name="eth" horiz-adv-x="362" d="M175 388Q162 385 151 391T135 407T138 425T170 433L190 438Q184 448 176 461T159 487T143 509T131 522Q138 544 150 545T177 534T207 498T237 449Q258 452 280 454T320 454T348 444T355 420Q353
410 345 410T330 406Q313 407 301 407T272 406Q299 357 319 296T348 177T349 71T313 4Q277 -15 241 -11T172 16T111 73T63 152T33 241T25 332Q52 370 81 372T140 354T195 299T241 227T274 161T288 120Q305 111 311 119T315 147T303 196T281 258T251 325T217 391L175
388ZM263 81Q267 99 256 127T226 186T181 246T133 296T92 326T66 324Q60 278 70 238T99 166T142 111T191 76T234 65T263 81Z" />
<glyph unicode="&#xf1;" glyph-name="ntilde" horiz-adv-x="567" d="M24 8Q22 10 19 16T15 24Q18 37 21 82T29 188T40 313T55 429T74 507T99 521Q129 499 155 466T205 393T251 313T298 234T350 166T410 118H417Q419 142 421 177T427 255T433 341T440 428T450 507T461
568Q462 570 465 576T473 589T483 600T493 600L540 552Q543 549 537 540T521 519T503 497T493 481Q486 455 481 419T473 341T468 255T465 170T463 91T461 27Q425 28 392 49T329 104T270 182T215 270T163 358T115 434H106Q102 434 100 413T95 357T91 280T86 193T77
110T65 43T48 5T24 8ZM323 697Q324 698 326 699T330 699Q348 668 367 658T408 649T454 663T507 688T567 712T636 725Q678 727 704 719T743 696T756 664T748 632Q744 625 742 630T729 645T694 663T623 672Q601 672 574 665T517 647T459 628T405 617T360 621T330
650Q328 654 325 660T320 673T318 686T323 697Z" />
<glyph unicode="&#xf2;" glyph-name="ograve" horiz-adv-x="346" d="M79 8Q50 30 36 56T18 112T17 173T31 237Q37 257 42 285T56 341T75 394T102 433Q112 442 128 446T161 451T194 451T220 449Q264 446 288 420T320 354T323 267T301 173T259 85T205 19T143 -12T79
8ZM94 63Q119 43 148 54T203 95T251 167T281 252T284 331T252 386Q215 411 182 402T124 363T83 289T61 201T63 119T94 63ZM216 575Q196 595 181 607T152 630T124 656T94 693Q89 700 87 712T86 736T95 754T117 757Q122 755 140 740T180 707T227 669T271 638Q282
632 279 617T266 589T241 570T216 575Z" />
<glyph unicode="&#xf3;" glyph-name="oacute" horiz-adv-x="346" d="M79 8Q50 30 36 56T18 112T17 173T31 237Q37 257 42 285T56 341T75 394T102 433Q112 442 128 446T161 451T194 451T220 449Q264 446 288 420T320 354T323 267T301 173T259 85T205 19T143 -12T79
8ZM94 63Q119 43 148 54T203 95T251 167T281 252T284 331T252 386Q215 411 182 402T124 363T83 289T61 201T63 119T94 63ZM130 833Q128 834 126 840T122 848Q116 862 136 874T191 896T268 917T348 938Q380 947 381 939T365 914T316 877T249 843T182 823T130 833Z"
/>
<glyph unicode="&#xf4;" glyph-name="ocircumflex" horiz-adv-x="346" d="M79 8Q50 30 36 56T18 112T17 173T31 237Q37 257 42 285T56 341T75 394T102 433Q112 442 128 446T161 451T194 451T220 449Q264 446 288 420T320 354T323 267T301 173T259 85T205 19T143
-12T79 8ZM94 63Q119 43 148 54T203 95T251 167T281 252T284 331T252 386Q215 411 182 402T124 363T83 289T61 201T63 119T94 63ZM97 740Q95 742 86 751T73 764Q72 765 88 784T126 827T167 875T193 907Q201 920 209 936T232 963H240Q269 908 295 868T337 802T357
761T343 745Q329 738 313 751T282 786T256 831T240 867Q228 873 218 863T198 834T178 795T155 757T129 735T97 740Z" />
<glyph unicode="&#xf5;" glyph-name="otilde" horiz-adv-x="346" d="M79 8Q50 30 36 56T18 112T17 173T31 237Q37 257 42 285T56 341T75 394T102 433Q112 442 128 446T161 451T194 451T220 449Q264 446 288 420T320 354T323 267T301 173T259 85T205 19T143 -12T79
8ZM94 63Q119 43 148 54T203 95T251 167T281 252T284 331T252 386Q215 411 182 402T124 363T83 289T61 201T63 119T94 63ZM-44 697Q-43 698 -41 699T-37 699Q-19 668 0 658T41 649T87 663T140 688T200 712T269 725Q311 727 337 719T376 696T389 664T381 632Q377
625 375 630T362 645T327 663T256 672Q234 672 207 665T150 647T92 628T38 617T-7 621T-37 650Q-39 654 -42 660T-47 673T-49 686T-44 697Z" />
<glyph unicode="&#xf6;" glyph-name="odieresis" horiz-adv-x="346" d="M79 8Q50 30 36 56T18 112T17 173T31 237Q37 257 42 285T56 341T75 394T102 433Q112 442 128 446T161 451T194 451T220 449Q264 446 288 420T320 354T323 267T301 173T259 85T205 19T143
-12T79 8ZM94 63Q119 43 148 54T203 95T251 167T281 252T284 331T252 386Q215 411 182 402T124 363T83 289T61 201T63 119T94 63ZM289 835Q286 841 288 855T297 886T312 920T331 948Q370 944 385 928T401 891T387 850T356 818T320 809T289 835ZM544 822Q541 827
535 842T524 876T519 911T528 940Q567 935 587 918T613 880T613 839T596 807T570 796T544 822Z" />
<glyph unicode="&#xf7;" glyph-name="divide" horiz-adv-x="434" d="M177 213Q165 230 165 244T172 268T190 283T212 290T231 288T239 276V213Q239 209 233 206T219 199T203 194T192 189H200Q197 192 188 201T177 213ZM152 450Q145 461 139 466T128 477T120 492T113
520Q116 523 121 528T132 538T143 545T152 544L192 505Q199 498 197 489T188 470T173 453T160 441Q159 442 156 445T152 450ZM258 348Q255 355 255 365T256 384T265 400T281 411Q294 414 326 415T400 416T487 414T570 410T635 404T666 397Q682 387 678 374T660
352T630 338T603 342Q553 343 514 342T439 338T363 336T273 340Q271 340 265 343T258 348Z" />
<glyph unicode="&#xf8;" glyph-name="oslash" horiz-adv-x="346" d="M79 8Q50 30 36 56T18 112T17 173T31 237Q37 257 42 285T56 341T75 394T102 433Q112 442 128 446T161 451T194 451T220 449Q264 446 288 420T320 354T323 267T301 173T259 85T205 19T143 -12T79
8ZM94 63Q119 43 148 54T203 95T251 167T281 252T284 331T252 386Q215 411 182 402T124 363T83 289T61 201T63 119T94 63ZM30 230Q22 237 22 246T25 264T34 281T42 295Q65 344 84 388T124 473T165 555T215 639Q253 691 279 723Q290 736 300 746T316 758T323 755T319
729Q313 711 302 695T277 662T250 631T227 601Q204 563 186 530T151 462T118 390T83 307Q81 301 78 285T69 253T54 229T30 230Z" />
<glyph unicode="&#xf9;" glyph-name="ugrave" horiz-adv-x="663" d="M512 8Q488 15 468 33T432 77T404 132T383 191T366 247T354 292H346Q334 266 310 230T255 159T192 100T128 71T74 88T39 173Q34 268 32 362T32 551Q35 555 42 561T58 569T72 567T79 544V213Q79
204 81 192T89 169T102 148T118 134Q154 119 183 134T235 184T278 264T314 356T343 439T370 497Q372 496 374 493T378 488Q381 484 390 473T401 457Q401 439 401 408T405 339T414 261T430 183T457 117T497 72T552 57T626 85Q647 98 651 109T654 131T653 155T666
184Q691 192 704 178T718 139T709 85T672 33T607 2T512 8ZM206 643Q186 663 171 675T142 698T114 724T84 761Q79 768 77 780T76 804T85 822T107 825Q112 823 130 808T170 775T217 737T261 706Q272 700 269 685T256 657T231 638T206 643Z" />
<glyph unicode="&#xfa;" glyph-name="uacute" horiz-adv-x="663" d="M512 8Q488 15 468 33T432 77T404 132T383 191T366 247T354 292H346Q334 266 310 230T255 159T192 100T128 71T74 88T39 173Q34 268 32 362T32 551Q35 555 42 561T58 569T72 567T79 544V213Q79
204 81 192T89 169T102 148T118 134Q154 119 183 134T235 184T278 264T314 356T343 439T370 497Q372 496 374 493T378 488Q381 484 390 473T401 457Q401 439 401 408T405 339T414 261T430 183T457 117T497 72T552 57T626 85Q647 98 651 109T654 131T653 155T666
184Q691 192 704 178T718 139T709 85T672 33T607 2T512 8ZM168 665Q166 666 164 672T160 680Q154 694 174 706T229 728T306 749T386 770Q418 779 419 771T403 746T354 709T287 675T220 655T168 665Z" />
<glyph unicode="&#xfb;" glyph-name="ucircumflex" horiz-adv-x="663" d="M512 8Q488 15 468 33T432 77T404 132T383 191T366 247T354 292H346Q334 266 310 230T255 159T192 100T128 71T74 88T39 173Q34 268 32 362T32 551Q35 555 42 561T58 569T72 567T79 544V213Q79
204 81 192T89 169T102 148T118 134Q154 119 183 134T235 184T278 264T314 356T343 439T370 497Q372 496 374 493T378 488Q381 484 390 473T401 457Q401 439 401 408T405 339T414 261T430 183T457 117T497 72T552 57T626 85Q647 98 651 109T654 131T653 155T666
184Q691 192 704 178T718 139T709 85T672 33T607 2T512 8ZM98 603Q96 605 87 614T74 627Q73 628 89 647T127 690T168 738T194 770Q202 783 210 799T233 826H241Q270 771 296 731T338 665T358 624T344 608Q330 601 314 614T283 649T257 694T241 730Q229 736 219
726T199 697T179 658T156 620T130 598T98 603Z" />
<glyph unicode="&#xfc;" glyph-name="udieresis" horiz-adv-x="663" d="M512 8Q488 15 468 33T432 77T404 132T383 191T366 247T354 292H346Q334 266 310 230T255 159T192 100T128 71T74 88T39 173Q34 268 32 362T32 551Q35 555 42 561T58 569T72 567T79 544V213Q79
204 81 192T89 169T102 148T118 134Q154 119 183 134T235 184T278 264T314 356T343 439T370 497Q372 496 374 493T378 488Q381 484 390 473T401 457Q401 439 401 408T405 339T414 261T430 183T457 117T497 72T552 57T626 85Q647 98 651 109T654 131T653 155T666
184Q691 192 704 178T718 139T709 85T672 33T607 2T512 8ZM91 635Q88 641 90 655T99 686T114 720T133 748Q172 744 187 728T203 691T189 650T158 618T122 609T91 635ZM346 622Q343 627 337 642T326 676T321 711T330 740Q369 735 389 718T415 680T415 639T398 607T372
596T346 622Z" />
<glyph unicode="&#xfd;" glyph-name="yacute" horiz-adv-x="583" d="M267 -614Q233 -597 221 -544T212 -420T234 -270T282 -122T350 -5T433 55Q434 61 435 74T437 103T439 131T440 151Q441 173 441 207T441 274T441 330T440 355L433 362Q425 348 401 314T344 240T271
161T190 96T110 67T39 95Q23 110 18 141T12 211T18 292T31 373T44 442T54 488Q59 500 69 503T90 505T106 494T110 473Q99 431 91 392T77 314T70 235T71 151Q91 124 120 127T182 152T249 209T312 280T362 347T393 394Q402 409 407 428T419 465T434 501T457 528L488
497V87Q493 86 511 88T544 90T560 85T536 63Q522 55 509 47T480 32Q471 -53 463 -117T445 -241T421 -362T386 -504Q378 -522 369 -546T346 -590T313 -618T267 -614ZM299 -551Q309 -558 323 -525T351 -437T379 -313T403 -182T420 -71T425 -7Q380 -46 346 -97T291
-207T261 -327T259 -449Q260 -458 262 -472T267 -501T272 -525T275 -536L299 -551ZM202 638Q200 639 198 645T194 653Q188 667 208 679T263 701T340 722T420 743Q452 752 453 744T437 719T388 682T321 648T254 628T202 638Z" />
<glyph unicode="&#xfe;" glyph-name="thorn" horiz-adv-x="386" d="M17 -163Q0 -151 2 -132Q4 -82 7 -46T14 18T23 72T33 127T43 191T55 276Q57 294 57 331T59 411T63 497T73 570T93 611T126 601Q127 601 126 585T124 546T120 495T115 443T112 403T110 386Q135
433 166 445T228 446T286 400T331 323T356 229T352 132T310 46T220 -15Q173 -33 140 -24T71 16Q66 -11 63 -26T59 -50T56 -65T55 -80T53 -104T49 -147Q44 -162 38 -167T17 -163ZM133 25Q197 18 237 37T296 91T318 170T311 256T282 333T239 385T189 395T141 347Q105
280 90 215T79 72L133 25Z" />
<glyph unicode="&#xff;" glyph-name="ydieresis" horiz-adv-x="583" d="M267 -614Q233 -597 221 -544T212 -420T234 -270T282 -122T350 -5T433 55Q434 61 435 74T437 103T439 131T440 151Q441 173 441 207T441 274T441 330T440 355L433 362Q425 348 401 314T344
240T271 161T190 96T110 67T39 95Q23 110 18 141T12 211T18 292T31 373T44 442T54 488Q59 500 69 503T90 505T106 494T110 473Q99 431 91 392T77 314T70 235T71 151Q91 124 120 127T182 152T249 209T312 280T362 347T393 394Q402 409 407 428T419 465T434 501T457
528L488 497V87Q493 86 511 88T544 90T560 85T536 63Q522 55 509 47T480 32Q471 -53 463 -117T445 -241T421 -362T386 -504Q378 -522 369 -546T346 -590T313 -618T267 -614ZM299 -551Q309 -558 323 -525T351 -437T379 -313T403 -182T420 -71T425 -7Q380 -46 346
-97T291 -207T261 -327T259 -449Q260 -458 262 -472T267 -501T272 -525T275 -536L299 -551ZM92 614Q89 620 91 634T100 665T115 699T134 727Q173 723 188 707T204 670T190 629T159 597T123 588T92 614ZM347 601Q344 606 338 621T327 655T322 690T331 719Q370 714
390 697T416 659T416 618T399 586T373 575T347 601Z" />
<glyph unicode="&#x2013;" glyph-name="endash" horiz-adv-x="479" d="M24 260Q21 267 21 277T22 296T31 312T47 323Q60 326 92 327T166 328T253 326T336 322T401 316T432 309Q448 299 444 286T426 264T396 250T369 254Q319 255 280 254T205 250T129 248T39 252Q37
252 31 255T24 260Z" />
<glyph unicode="&#x2014;" glyph-name="emdash" horiz-adv-x="717" d="M24 260Q21 267 21 277T22 296T31 312T47 323Q57 325 88 326T162 327T259 326T365 323T470 319T562 315T628 310T657 305Q673 295 669 282T652 260T621 246T594 250Q544 251 470 250T317 248T164
246T39 252Q37 252 31 255T24 260Z" />
<glyph unicode="&#x2018;" glyph-name="quoteleft" horiz-adv-x="173" d="M99 457Q97 458 95 464T91 472Q89 486 80 520T61 593T48 664T51 709Q60 722 71 715T93 689T115 640T132 581T142 522T142 474T129 448T99 457Z" />
<glyph unicode="&#x2019;" glyph-name="quoteright" horiz-adv-x="173" d="M99 457Q97 458 95 464T91 472Q89 486 80 520T61 593T48 664T51 709Q60 722 71 715T93 689T115 640T132 581T142 522T142 474T129 448T99 457Z" />
<glyph unicode="&#x201a;" glyph-name="quotesinglbase" horiz-adv-x="173" d="M87 15Q85 16 83 22T79 31Q78 40 73 59T61 102T49 152T39 201T35 241T39 267Q51 285 66 268T96 217T120 139T131 62T123 12T87 15Z" />
<glyph unicode="&#x201c;" glyph-name="quotedblleft" horiz-adv-x="260" d="M32 488Q31 494 34 518T42 571T55 630T72 677T91 694T111 663Q115 651 111 626T99 572T86 518T79 481Q77 473 70 471T55 469T40 475T32 488ZM158 488Q141 496 143 518T156 565T185 612T216
644T238 645T237 599Q236 595 233 586T226 567T219 549T213 537Q223 523 220 511T207 492T184 484T158 488Z" />
<glyph unicode="&#x201d;" glyph-name="quotedblright" horiz-adv-x="260" d="M32 488Q31 494 34 518T42 571T55 630T72 677T91 694T111 663Q115 651 111 626T99 572T86 518T79 481Q77 473 70 471T55 469T40 475T32 488ZM158 488Q141 496 143 518T156 565T185
612T216 644T238 645T237 599Q236 595 233 586T226 567T219 549T213 537Q223 523 220 511T207 492T184 484T158 488Z" />
<glyph unicode="&#x201e;" glyph-name="quotedblbase" horiz-adv-x="260" d="M32 4Q31 10 34 34T42 87T55 146T72 193T91 210T111 178Q115 166 111 141T99 87T86 33T79 -3Q77 -11 70 -14T55 -16T40 -9T32 4ZM158 4Q141 12 143 34T156 80T185 127T216 159T238 161T237
115Q236 111 233 102T226 82T219 64T213 52Q223 38 220 27T207 8T184 0T158 4Z" />
<glyph unicode="&#x2022;" glyph-name="bullet" horiz-adv-x="266" d="M97 258Q64 280 58 308T64 359T108 396T179 406Q210 374 212 343T199 288T155 256T97 258Z" />
<glyph unicode="&#x2039;" glyph-name="guilsinglleft" horiz-adv-x="638" d="M481 8Q469 10 444 13T386 21T319 31T252 41T195 49T158 55Q156 55 151 56T139 59T126 62T119 63H32Q19 63 13 76T7 106T17 133T47 141Q55 146 74 159T115 188T155 217T181 237Q184
239 198 252T229 283T264 318T292 346Q305 360 314 375T332 407T350 438T371 465Q374 468 387 464T409 448T418 419T394 378L205 189Q182 175 161 160T119 126Q120 121 126 119T138 114T150 112T158 111Q213 103 270 94T384 78T499 69T614 71Q626 53 612 39T572
15T520 4T481 8Z" />
<glyph unicode="&#x203a;" glyph-name="guilsinglright" horiz-adv-x="441" d="M220 15Q216 29 228 58T259 125T302 202T344 279T371 344T370 386Q368 389 359 392T346 394H133Q130 394 118 391T90 384T60 378T39 378Q28 383 23 395T15 418Q11 434 21 441T46 449T75
450T94 449Q152 451 188 453T256 457T324 457T417 449Q425 431 426 410T425 371Q421 359 410 330T386 269T362 207T346 166Q341 152 332 122T310 61T278 12T236 0Q233 2 228 7T220 15Z" />
</font>
</defs>
</svg>
