<?xml version="1.0" standalone="no"?>
<!DOCTYPE svg PUBLIC "-//W3C//DTD SVG 1.1//EN" "http://www.w3.org/Graphics/SVG/1.1/DTD/svg11.dtd">
<svg xmlns="http://www.w3.org/2000/svg">
<defs >
<font id="Teko" horiz-adv-x="346" ><font-face
    font-family="Teko Light"
    units-per-em="1000"
    panose-1="2 0 0 0 0 0 0 0 0 0"
    ascent="958"
    descent="-475"
    alphabetic="0" />
<glyph unicode=" " glyph-name="space" horiz-adv-x="130" />
<glyph unicode="!" glyph-name="exclam" horiz-adv-x="185" d="M51 0V112H133V0H51ZM50 622H135L122 196H63L50 622Z" />
<glyph unicode="&quot;" glyph-name="quotedbl" horiz-adv-x="254" d="M155 622H219V410H155V622ZM35 622H99V410H35V622Z" />
<glyph unicode="#" glyph-name="numbersign" horiz-adv-x="448" d="M418 398H360L331 224H388V166H321L294 0H231L258 166H141L114 0H51L78 166H30V224H88L117 398H60V456H127L154 622H217L190 456H307L334 622H397L370 456H418V398ZM268 224L297 398H180L151 224H268Z" />
<glyph unicode="$" glyph-name="dollar" horiz-adv-x="327" d="M140 350H208Q287 350 287 271V79Q287 0 208 0H196V-75H131V0H121Q42 0 42 79V175H111V90Q111 70 116 65T142 59H187Q206 59 212 64T218 90V260Q218 280 212 285T187 291H119Q40 291 40 370V543Q40
622 119 622H131V697H196V622H207Q286 622 286 543V447H217V532Q217 552 212 557T186 563H140Q120 563 115 558T109 532V381Q109 362 114 356T140 350Z" />
<glyph unicode="%" glyph-name="percent" horiz-adv-x="573" d="M392 622H453L180 0H120L392 622ZM487 80V246Q487 265 482 270T459 276H436Q418 276 413 271T408 246V80Q408 61 413 56T436 50H459Q477 50 482 55T487 80ZM165 376V542Q165 561 160 566T137 572H114Q96
572 91 567T86 542V376Q86 357 91 352T114 346H137Q155 346 160 351T165 376ZM543 255V71Q543 0 476 0H419Q352 0 352 71V255Q352 326 419 326H476Q543 326 543 255ZM221 551V367Q221 296 154 296H97Q30 296 30 367V551Q30 622 97 622H154Q221 622 221 551Z" />
<glyph unicode="&amp;" glyph-name="ampersand" horiz-adv-x="418" d="M311 0H119Q40 0 40 79V195Q40 223 51 242T92 281L126 307Q103 337 93 352T71 392T60 440V543Q60 622 139 622H231Q310 622 310 543V444Q310 394 294 364T241 311L217 294L334 145V224H390V73L475
-35H400L362 13Q343 0 311 0ZM128 532V434Q128 402 176 346L185 353Q216 375 229 394T242 444V532Q242 552 236 557T211 563H159Q140 563 134 558T128 532ZM139 59H303Q313 59 323 61L166 257L139 238Q121 226 115 214T108 177V90Q108 70 114 65T139 59Z" />
<glyph unicode="&apos;" glyph-name="quotesingle" horiz-adv-x="139" d="M35 622H104V410H35V622Z" />
<glyph unicode="(" glyph-name="parenleft" horiz-adv-x="245" d="M49 342Q49 791 255 791H271V734L257 733Q179 727 148 625T116 343V270Q116 90 147 -12T257 -120L271 -121V-178H255Q49 -178 49 271V342Z" />
<glyph unicode=")" glyph-name="parenright" horiz-adv-x="245" d="M193 271Q193 -178 -13 -178H-29V-121L-15 -120Q63 -114 94 -12T126 270V343Q126 523 95 625T-15 733L-29 734V791H-13Q193 791 193 342V271Z" />
<glyph unicode="*" glyph-name="asterisk" horiz-adv-x="302" d="M120 581V622H182V581Q182 548 177 525Q204 539 267 559L287 500Q218 479 193 476Q213 458 230 433L254 400L204 363Q160 426 151 445Q139 419 122 396L98 363L47 400Q91 458 109 475Q79 480 15
501L34 560L73 547Q96 540 125 524Q120 549 120 581Z" />
<glyph unicode="+" glyph-name="plus" horiz-adv-x="380" d="M355 341V281H225V131H155V281H25V341H155V491H225V341H355Z" />
<glyph unicode="," glyph-name="comma" horiz-adv-x="142" d="M30 112H112V54L57 -137H30V112Z" />
<glyph unicode="-" glyph-name="hyphen" horiz-adv-x="307" d="M55 263V321H251V263H55Z" />
<glyph unicode="." glyph-name="period" horiz-adv-x="142" d="M30 0V112H112V0H30Z" />
<glyph unicode="/" glyph-name="slash" horiz-adv-x="384" d="M272 699H340L76 -136H8L272 699Z" />
<glyph unicode="0" glyph-name="zero" horiz-adv-x="361" d="M242 90V532Q242 552 236 557T211 563H150Q130 563 125 558T119 532V90Q119 70 124 65T150 59H211Q230 59 236 64T242 90ZM311 543V79Q311 0 232 0H129Q50 0 50 79V543Q50 622 129 622H232Q311 622 311 543Z" />
<glyph unicode="1" glyph-name="one" horiz-adv-x="211" d="M156 622V0H88V563H20V622H156Z" />
<glyph unicode="2" glyph-name="two" horiz-adv-x="290" d="M93 532V422H25V543Q25 622 104 622H181Q260 622 260 543V488Q260 419 234 358L97 59H265V0H26V58L168 369Q191 423 191 492V532Q191 552 186 557T160 563H124Q104 563 99 558T93 532Z" />
<glyph unicode="3" glyph-name="three" horiz-adv-x="322" d="M98 532V430H30V543Q30 622 109 622H193Q272 622 272 543V364Q272 319 235 316Q272 310 272 269V79Q272 0 193 0H109Q30 0 30 79V191H98V90Q98 70 104 65T129 59H173Q192 59 198 64T204 90V254Q204
274 198 279T173 285H100V345H173Q192 345 198 350T204 376V532Q204 552 198 557T173 563H129Q110 563 104 558T98 532Z" />
<glyph unicode="4" glyph-name="four" horiz-adv-x="325" d="M325 186V127H272V0H206V127H5V180L169 622H236L75 186H206V304H272V186H325Z" />
<glyph unicode="5" glyph-name="five" horiz-adv-x="321" d="M284 563H109V383H205Q284 383 284 304V79Q284 0 205 0H119Q40 0 40 79V192H109V90Q109 70 114 65T140 59H184Q204 59 209 64T215 90V293Q215 312 210 318T184 324H40V622H284V563Z" />
<glyph unicode="6" glyph-name="six" horiz-adv-x="352" d="M119 353H228Q307 353 307 274V79Q307 0 228 0H129Q50 0 50 79V543Q50 622 129 622H227Q306 622 306 543V426H238V532Q238 552 232 557T207 563H150Q130 563 125 558T119 532V353ZM238 90V263Q238 282
232 288T207 294H119V90Q119 70 124 65T150 59H207Q226 59 232 64T238 90Z" />
<glyph unicode="7" glyph-name="seven" horiz-adv-x="256" d="M251 622V576L90 0H22L177 563H5V622H251Z" />
<glyph unicode="8" glyph-name="eight" horiz-adv-x="360" d="M310 543V360Q310 315 273 312Q310 306 310 265V79Q310 0 231 0H129Q50 0 50 79V265Q50 306 87 312Q50 315 50 360V543Q50 622 129 622H231Q310 622 310 543ZM242 90V252Q242 272 236 277T211 283H149Q130
283 124 278T118 252V90Q118 70 124 65T149 59H211Q230 59 236 64T242 90ZM242 374V532Q242 552 236 557T211 563H149Q130 563 124 558T118 532V374Q118 354 124 349T149 343H211Q230 343 236 348T242 374Z" />
<glyph unicode="9" glyph-name="nine" horiz-adv-x="347" d="M119 622H218Q297 622 297 543V79Q297 0 218 0H120Q41 0 41 79V196H109V90Q109 70 114 65T140 59H197Q216 59 222 64T228 90V259H119Q40 259 40 338V543Q40 622 119 622ZM140 318H228V532Q228 552 222
557T197 563H140Q120 563 115 558T109 532V349Q109 330 114 324T140 318Z" />
<glyph unicode=":" glyph-name="colon" horiz-adv-x="142" d="M30 373V485H112V373H30ZM30 0V112H112V0H30Z" />
<glyph unicode=";" glyph-name="semicolon" horiz-adv-x="142" d="M30 373V485H112V373H30ZM30 112H112V54L57 -137H30V112Z" />
<glyph unicode="&lt;" glyph-name="less" horiz-adv-x="390" d="M360 399L93 311L360 223V157L30 272V350L360 465V399Z" />
<glyph unicode="=" glyph-name="equal" horiz-adv-x="390" d="M30 194V256H360V194H30ZM30 366V428H360V366H30Z" />
<glyph unicode="&gt;" glyph-name="greater" horiz-adv-x="390" d="M297 311L30 399V465L360 350V272L30 157V223L297 311Z" />
<glyph unicode="?" glyph-name="question" horiz-adv-x="308" d="M99 622H184Q263 622 263 545V341Q263 263 184 263H166L163 196H106L100 322H166Q184 322 189 328T194 354V531Q194 550 189 557T166 564H118Q99 564 94 557T89 531V459H20V545Q20 622 99 622ZM93
0V112H175V0H93Z" />
<glyph unicode="@" glyph-name="at" horiz-adv-x="651" d="M298 337V171Q298 152 304 146T329 140H359Q377 140 385 148T393 176V332Q393 352 385 360T359 368H329Q310 368 304 362T298 337ZM229 348Q229 427 308 427H338Q382 427 393 393V427H461V140H506Q526
140 531 146T537 171V471Q537 491 531 497T506 503H185Q166 503 160 497T154 471V31Q154 12 160 6T185 0H462V-61H164Q85 -61 85 18V485Q85 564 164 564H526Q605 564 605 485V160Q605 81 526 81H400V130Q395 81 338 81H308Q229 81 229 160V348Z" />
<glyph unicode="A" glyph-name="A" horiz-adv-x="343" d="M259 0L233 158H107L84 0H15L112 622H221L328 0H259ZM115 217H224L166 574L115 217Z" />
<glyph unicode="B" glyph-name="B" horiz-adv-x="381" d="M262 378V532Q262 552 256 557T231 563H124V347H231Q250 347 256 352T262 378ZM262 90V257Q262 276 256 282T231 288H124V59H231Q250 59 256 64T262 90ZM55 622H252Q331 622 331 543V364Q331 318 294 315Q331
309 331 269V79Q331 0 252 0H55V622Z" />
<glyph unicode="C" glyph-name="C" horiz-adv-x="345" d="M305 438H236V532Q236 552 230 557T205 563H150Q130 563 125 558T119 532V89Q119 70 124 64T150 58H205Q224 58 230 64T236 89V183H305V78Q305 -1 226 -1H129Q50 -1 50 78V543Q50 622 129 622H226Q305
622 305 543V438Z" />
<glyph unicode="D" glyph-name="D" horiz-adv-x="381" d="M55 622H252Q331 622 331 543V79Q331 0 252 0H55V622ZM262 90V532Q262 552 256 557T231 563H124V59H231Q250 59 256 64T262 90Z" />
<glyph unicode="E" glyph-name="E" horiz-adv-x="315" d="M124 59H295V0H55V622H288V563H124V353H258V294H124V59Z" />
<glyph unicode="F" glyph-name="F" horiz-adv-x="303" d="M298 563H124V343H258V284H124V0H55V622H298V563Z" />
<glyph unicode="G" glyph-name="G" horiz-adv-x="350" d="M305 448H236V532Q236 552 230 557T205 563H150Q130 563 125 558T119 532V89Q119 70 124 64T150 58H205Q224 58 230 64T236 89V254H186V313H305V78Q305 -1 226 -1H129Q50 -1 50 78V543Q50 622 129 622H226Q305
622 305 543V448Z" />
<glyph unicode="H" glyph-name="H" horiz-adv-x="382" d="M258 622H327V0H258V281H124V0H55V622H124V340H258V622Z" />
<glyph unicode="I" glyph-name="I" horiz-adv-x="198" d="M65 622H133V0H65V622Z" />
<glyph unicode="J" glyph-name="J" horiz-adv-x="301" d="M15 192H84V90Q84 70 90 65T115 59H149Q168 59 174 64T180 90V622H249V79Q249 0 170 0H94Q15 0 15 79V192Z" />
<glyph unicode="K" glyph-name="K" horiz-adv-x="345" d="M335 622L201 308L333 0H259L130 308L261 622H335ZM55 0V622H123V0H55Z" />
<glyph unicode="L" glyph-name="L" horiz-adv-x="271" d="M123 59H266V0H55V622H123V59Z" />
<glyph unicode="M" glyph-name="M" horiz-adv-x="475" d="M114 0H55V622H130L237 222L345 622H420V0H361V471L274 135H201L114 471V0Z" />
<glyph unicode="N" glyph-name="N" horiz-adv-x="377" d="M259 622H322V0H247L118 482V0H55V622H135L259 157V622Z" />
<glyph unicode="O" glyph-name="O" horiz-adv-x="360" d="M129 622H231Q310 622 310 543V79Q310 0 231 0H129Q50 0 50 79V543Q50 622 129 622ZM242 90V532Q242 552 236 557T211 563H149Q130 563 124 558T118 532V90Q118 70 124 65T149 59H211Q230 59 236 64T242 90Z" />
<glyph unicode="P" glyph-name="P" horiz-adv-x="345" d="M55 622H236Q315 622 315 543V329Q315 250 236 250H123V0H55V622ZM247 340V532Q247 552 242 557T216 563H123V309H216Q236 309 241 314T247 340Z" />
<glyph unicode="Q" glyph-name="Q" horiz-adv-x="360" d="M129 0Q50 0 50 79V543Q50 622 129 622H231Q310 622 310 543V79Q310 8 248 1L313 -97H245L182 0H129ZM118 532V90Q118 70 124 65T149 59H211Q230 59 236 64T242 90V532Q242 552 236 557T211 563H149Q130
563 124 558T118 532Z" />
<glyph unicode="R" glyph-name="R" horiz-adv-x="364" d="M123 260V0H55V622H236Q315 622 315 543V339Q315 268 253 261L347 0H273L182 260H123ZM123 563V319H216Q236 319 241 324T247 350V532Q247 552 242 557T216 563H123Z" />
<glyph unicode="S" glyph-name="S" horiz-adv-x="327" d="M218 90V260Q218 280 212 285T187 291H119Q40 291 40 370V543Q40 622 119 622H207Q286 622 286 543V447H217V532Q217 552 212 557T186 563H140Q120 563 115 558T109 532V381Q109 362 114 356T140 350H208Q287
350 287 271V79Q287 0 208 0H121Q42 0 42 79V175H111V90Q111 70 116 65T142 59H187Q206 59 212 64T218 90Z" />
<glyph unicode="T" glyph-name="T" horiz-adv-x="278" d="M273 622V563H173V0H105V563H5V622H273Z" />
<glyph unicode="U" glyph-name="U" horiz-adv-x="364" d="M244 622H312V79Q312 0 233 0H131Q52 0 52 79V622H120V90Q120 70 126 65T151 59H213Q232 59 238 64T244 90V622Z" />
<glyph unicode="V" glyph-name="V" horiz-adv-x="319" d="M245 622H314L214 0H105L5 622H74L159 48L245 622Z" />
<glyph unicode="W" glyph-name="W" horiz-adv-x="549" d="M470 622H539L448 0H344L274 493L205 0H101L10 622H79L154 48L233 622H315L394 48L470 622Z" />
<glyph unicode="X" glyph-name="X" horiz-adv-x="334" d="M203 318L329 0H255L167 253L79 0H5L131 318L15 622H89L167 380L245 622H319L203 318Z" />
<glyph unicode="Y" glyph-name="Y" horiz-adv-x="319" d="M196 0H128V190L5 622H74L162 257L245 622H314L196 190V0Z" />
<glyph unicode="Z" glyph-name="Z" horiz-adv-x="273" d="M268 623V564L73 59H263V0H5V59L200 564H15V623H268Z" />
<glyph unicode="[" glyph-name="bracketleft" horiz-adv-x="309" d="M233 722H132V-108H233V-167H63V781H233V722Z" />
<glyph unicode="\" glyph-name="backslash" horiz-adv-x="385" d="M44 699H113L377 -136H308L44 699Z" />
<glyph unicode="]" glyph-name="bracketright" horiz-adv-x="309" d="M223 781V-167H53V-108H154V722H53V781H223Z" />
<glyph unicode="^" glyph-name="asciicircum" horiz-adv-x="443" d="M180 671H263L398 327H326L221 604L117 327H45L180 671Z" />
<glyph unicode="_" glyph-name="underscore" horiz-adv-x="474" d="M0 -103V-44H474V-103H0Z" />
<glyph unicode="`" glyph-name="grave" horiz-adv-x="400" d="M203 643L281 516H219L121 643H203Z" />
<glyph unicode="a" glyph-name="a" horiz-adv-x="328" d="M214 485H283V0H214V33Q203 0 159 0H119Q40 0 40 79V406Q40 485 119 485H159Q203 485 214 452V485ZM140 59H180Q198 59 206 67T214 95V390Q214 410 206 418T180 426H140Q120 426 115 420T109 395V90Q109
70 114 65T140 59Z" />
<glyph unicode="b" glyph-name="b" horiz-adv-x="328" d="M169 486H209Q288 486 288 407V79Q288 0 209 0H169Q125 0 114 33V0H45V669H114V453Q125 486 169 486ZM219 90V396Q219 416 214 421T188 427H148Q130 427 122 419T114 391V95Q114 75 122 67T148 59H188Q208
59 213 64T219 90Z" />
<glyph unicode="c" glyph-name="c" horiz-adv-x="325" d="M290 341H221V395Q221 414 216 420T190 426H140Q120 426 115 420T109 395V90Q109 70 114 65T140 59H190Q210 59 215 64T221 90V144H290V79Q290 0 211 0H119Q40 0 40 79V406Q40 485 119 485H211Q290 485
290 406V341Z" />
<glyph unicode="d" glyph-name="d" horiz-adv-x="328" d="M214 669H283V0H214V33Q203 0 159 0H119Q40 0 40 79V407Q40 486 119 486H159Q203 486 214 453V669ZM140 59H180Q198 59 206 67T214 95V391Q214 411 206 419T180 427H140Q120 427 115 422T109 396V90Q109
70 114 65T140 59Z" />
<glyph unicode="e" glyph-name="e" horiz-adv-x="330" d="M124 485H216Q295 485 295 406V219H114V90Q114 70 120 65T145 59H192Q212 59 217 64T223 90V134H292V79Q292 0 213 0H124Q45 0 45 79V406Q45 485 124 485ZM114 278H226V395Q226 414 220 420T195 426H145Q126
426 120 420T114 395V278Z" />
<glyph unicode="f" glyph-name="f" horiz-adv-x="197" d="M192 605H153Q134 605 128 600T122 574V485H192V426H122V0H53V426H5V485H53V590Q53 669 132 669H192V605Z" />
<glyph unicode="g" glyph-name="g" horiz-adv-x="328" d="M214 485H283V-62Q283 -141 204 -141H55V-82H183Q202 -82 208 -76T214 -51V33Q203 0 159 0H119Q40 0 40 79V406Q40 485 119 485H159Q203 485 214 452V485ZM140 59H180Q198 59 206 67T214 95V390Q214 410
206 418T180 426H140Q120 426 115 420T109 395V90Q109 70 114 65T140 59Z" />
<glyph unicode="h" glyph-name="h" horiz-adv-x="333" d="M169 485H209Q288 485 288 406V0H219V395Q219 414 214 420T188 426H148Q130 426 122 418T114 390V0H45V669H114V452Q125 485 169 485Z" />
<glyph unicode="i" glyph-name="i" horiz-adv-x="159" d="M43 589V670H116V589H43ZM114 0H45V485H114V0Z" />
<glyph unicode="j" glyph-name="j" horiz-adv-x="159" d="M43 589V670H116V589H43ZM45 -51V485H114V-62Q114 -141 35 -141H0V-82H14Q34 -82 39 -76T45 -51Z" />
<glyph unicode="k" glyph-name="k" horiz-adv-x="325" d="M320 485L207 256L320 0H246L136 256L246 485H320ZM45 0V669H114V0H45Z" />
<glyph unicode="l" glyph-name="l" horiz-adv-x="159" d="M114 0H45V669H114V0Z" />
<glyph unicode="m" glyph-name="m" horiz-adv-x="502" d="M343 485H383Q462 485 462 406V0H393V395Q393 414 388 420T362 426H322Q304 426 296 418T288 390V0H219V395Q219 414 214 420T188 426H148Q130 426 122 418T114 390V0H45V485H114V452Q125 485 169 485H209Q266
485 282 445Q292 485 343 485Z" />
<glyph unicode="n" glyph-name="n" horiz-adv-x="333" d="M169 485H209Q288 485 288 406V0H219V395Q219 414 214 420T188 426H148Q130 426 122 418T114 390V0H45V485H114V452Q125 485 169 485Z" />
<glyph unicode="o" glyph-name="o" horiz-adv-x="340" d="M119 485H221Q300 485 300 406V79Q300 0 221 0H119Q40 0 40 79V406Q40 485 119 485ZM232 90V395Q232 414 226 420T201 426H139Q120 426 114 420T108 395V90Q108 70 114 65T139 59H201Q220 59 226 64T232 90Z" />
<glyph unicode="p" glyph-name="p" horiz-adv-x="328" d="M169 485H209Q288 485 288 406V79Q288 0 209 0H169Q125 0 114 33V-141H45V485H114V452Q125 485 169 485ZM219 90V395Q219 414 214 420T188 426H148Q130 426 122 418T114 390V95Q114 75 122 67T148 59H188Q208
59 213 64T219 90Z" />
<glyph unicode="q" glyph-name="q" horiz-adv-x="328" d="M214 485H283V-141H214V33Q203 0 159 0H119Q40 0 40 79V406Q40 485 119 485H159Q203 485 214 452V485ZM140 59H180Q198 59 206 67T214 95V390Q214 410 206 418T180 426H140Q120 426 115 420T109 395V90Q109
70 114 65T140 59Z" />
<glyph unicode="r" glyph-name="r" horiz-adv-x="212" d="M186 485H207V425H177Q114 425 114 350V0H45V485H114V429Q122 452 140 468T186 485Z" />
<glyph unicode="s" glyph-name="s" horiz-adv-x="297" d="M194 89V181Q194 200 188 206T163 212H114Q35 212 35 291V406Q35 485 114 485H182Q261 485 261 406V357H193V396Q193 416 188 421T162 427H134Q114 427 109 422T103 396V301Q103 282 108 276T134 270H183Q262
270 262 191V79Q262 0 183 0H116Q37 0 37 79V128H105V89Q105 70 110 64T136 58H163Q182 58 188 64T194 89Z" />
<glyph unicode="t" glyph-name="t" horiz-adv-x="197" d="M187 426H118V95Q118 76 124 70T149 64H187V0H128Q49 0 49 79V426H5V485H49V564H118V485H187V426Z" />
<glyph unicode="u" glyph-name="u" horiz-adv-x="333" d="M219 485H288V0H219V33Q208 0 164 0H124Q45 0 45 79V485H114V90Q114 70 120 65T145 59H185Q203 59 211 67T219 95V485Z" />
<glyph unicode="v" glyph-name="v" horiz-adv-x="279" d="M74 485L139 48L205 485H274L194 0H85L5 485H74Z" />
<glyph unicode="w" glyph-name="w" horiz-adv-x="507" d="M436 485H502L416 0H311L253 389L196 0H91L5 485H71L143 48L206 485H301L363 48L436 485Z" />
<glyph unicode="x" glyph-name="x" horiz-adv-x="314" d="M188 248L309 0H235L157 175L79 0H5L126 248L15 485H89L158 320L225 485H299L188 248Z" />
<glyph unicode="y" glyph-name="y" horiz-adv-x="309" d="M107 -141H53V-82H86Q129 -82 136 -51L148 0H103L10 485H79L157 48L230 485H299L202 -62Q187 -141 107 -141Z" />
<glyph unicode="z" glyph-name="z" horiz-adv-x="266" d="M251 485V426L84 59H251V0H15V59L182 426H25V485H251Z" />
<glyph unicode="{" glyph-name="braceleft" horiz-adv-x="271" d="M180 689V428Q180 317 105 308Q180 298 180 189V-74Q180 -92 187 -99T214 -107H264V-166H181Q141 -166 127 -147T112 -88V163Q112 223 91 251T24 279H5V337H24Q70 337 91 365T112 454V703Q112
742 127 761T181 781H264V722H214Q195 722 188 715T180 689Z" />
<glyph unicode="|" glyph-name="bar" horiz-adv-x="179" d="M55 719H124V-98H55V719Z" />
<glyph unicode="}" glyph-name="braceright" horiz-adv-x="271" d="M90 428V689Q90 707 83 714T56 722H6V781H89Q128 781 143 762T158 703V454Q158 393 179 365T246 337H265V279H246Q200 279 179 251T158 163V-88Q158 -127 144 -146T89 -166H6V-107H56Q75 -107
82 -100T90 -74V189Q90 298 165 308Q90 317 90 428Z" />
<glyph unicode="~" glyph-name="asciitilde" horiz-adv-x="472" d="M318 216Q286 216 261 229T222 257Q186 298 146 298Q128 298 122 290T116 264V217H52V277Q52 353 129 353H158Q185 353 208 340T245 312T282 284T326 271T353 279T358 306V352H422V292Q422 216
344 216H318Z" />
<glyph unicode="&#xa0;" glyph-name="uni00A0" horiz-adv-x="130" />
<glyph unicode="&#xa1;" glyph-name="exclamdown" horiz-adv-x="185" d="M135 -137H50L63 289H122L135 -137ZM51 373V485H133V373H51Z" />
<glyph unicode="&#xa2;" glyph-name="cent" horiz-adv-x="325" d="M290 341H221V395Q221 414 216 420T190 426H140Q120 426 115 420T109 395V90Q109 70 114 65T140 59H190Q210 59 215 64T221 90V144H290V79Q290 0 211 0H201V-75H136V0H119Q40 0 40 79V406Q40 485
119 485H136V561H201V485H211Q290 485 290 406V341Z" />
<glyph unicode="&#xa3;" glyph-name="sterling" horiz-adv-x="355" d="M330 59V0H35V59Q61 59 72 82T84 157V273H35V332H84V543Q84 622 163 622H247Q326 622 326 543V452H258V532Q258 552 252 557T227 563H184Q164 563 159 558T153 532V332H280V273H153V142Q153
75 127 59H330Z" />
<glyph unicode="&#xa4;" glyph-name="currency" horiz-adv-x="454" d="M368 407V190Q368 168 362 153L403 113L357 67L311 113Q297 111 289 111H187Q171 111 159 114L111 67L65 113L112 159Q108 171 108 190V407Q108 427 112 439L65 486L111 532L160 483Q172 486
187 486H289Q303 486 309 485L357 532L403 486L362 445Q368 430 368 407ZM207 170H269Q288 170 294 176T300 201V396Q300 416 294 421T269 427H207Q188 427 182 422T176 396V201Q176 182 182 176T207 170Z" />
<glyph unicode="&#xa5;" glyph-name="yen" horiz-adv-x="344" d="M327 340V281H232L213 215H327V159H206V0H138V159H17V215H131L112 281H17V340H95L15 622H83L172 275L261 622H329L249 340H327Z" />
<glyph unicode="&#xa6;" glyph-name="brokenbar" horiz-adv-x="179" d="M124 374H55V719H124V374ZM55 247H124V-98H55V247Z" />
<glyph unicode="&#xa7;" glyph-name="section" horiz-adv-x="387" d="M190 454H258Q337 454 337 375V292Q337 217 289 205Q297 187 297 163V48Q297 -31 218 -31H130Q51 -31 51 48V97H120V59Q120 40 126 34T151 28H197Q216 28 222 34T228 59V152Q228 172 222 177T197
183H129Q50 183 50 262V345Q50 420 98 432Q90 450 90 474V589Q90 668 169 668H257Q336 668 336 589V540H267V578Q267 598 262 603T236 609H190Q170 609 165 604T159 578V485Q159 466 164 460T190 454ZM150 242H237Q256 242 262 248T268 273V364Q268 384 262 389T237
395H150Q130 395 125 390T119 364V273Q119 254 124 248T150 242Z" />
<glyph unicode="&#xa8;" glyph-name="dieresis" horiz-adv-x="400" d="M244 541V625H332V541H244ZM68 541V625H156V541H68Z" />
<glyph unicode="&#xa9;" glyph-name="copyright" horiz-adv-x="682" d="M406 240V264H475V229Q475 150 396 150H304Q225 150 225 229V406Q225 485 304 485H396Q475 485 475 406V371H406V395Q406 414 400 420T375 426H325Q306 426 300 420T294 395V240Q294 220
300 215T325 209H375Q394 209 400 214T406 240ZM257 60H443Q584 60 584 270V343Q584 564 443 564H257Q116 564 116 343V270Q116 60 257 60ZM651 342V271Q651 132 602 66T445 0H255Q148 0 99 66T49 271V342Q49 483 99 552T255 622H445Q551 622 601 553T651 342Z"
/>
<glyph unicode="&#xaa;" glyph-name="ordfeminine" horiz-adv-x="236" d="M157 622H206V280H157V304Q149 280 118 280H81Q25 280 25 336V566Q25 622 81 622H118Q149 622 157 598V622ZM96 323H133Q146 323 151 328T157 348V554Q157 580 133 580H96Q82 580 78 576T73
558V345Q73 331 77 327T96 323Z" />
<glyph unicode="&#xab;" glyph-name="guillemotleft" horiz-adv-x="487" d="M364 106L243 262L364 418H441L317 261L441 106H364ZM164 106L43 262L164 418H241L117 261L241 106H164Z" />
<glyph unicode="&#xac;" glyph-name="logicalnot" horiz-adv-x="432" d="M392 395V177H333V327H30V395H392Z" />
<glyph unicode="&#xad;" glyph-name="uni00AD" horiz-adv-x="307" d="M55 263V321H251V263H55Z" />
<glyph unicode="&#xae;" glyph-name="registered" horiz-adv-x="397" d="M216 527V587Q216 594 210 594H183V521H210Q216 521 216 527ZM152 620H216Q247 620 247 590V524Q247 498 226 494L258 407H226L195 493H183V407H152V620ZM148 376H250Q326 376 326 489V529Q326
650 250 650H148Q72 650 72 529V489Q72 376 148 376ZM362 529V490Q362 415 335 379T250 343H147Q89 343 62 379T35 490V529Q35 681 147 681H250Q362 681 362 529Z" />
<glyph unicode="&#xaf;" glyph-name="overscore" horiz-adv-x="400" d="M82 550V608H318V550H82Z" />
<glyph unicode="&#xb0;" glyph-name="degree" horiz-adv-x="356" d="M228 439V536Q228 555 222 560T197 566H153Q134 566 128 561T122 536V439Q122 420 128 415T153 409H197Q216 409 222 414T228 439ZM292 545V430Q292 353 215 353H135Q58 353 58 430V545Q58 622
135 622H215Q292 622 292 545Z" />
<glyph unicode="&#xb1;" glyph-name="plusminus" horiz-adv-x="390" d="M230 409H360V349H230V269H160V349H30V409H160V489H230V409ZM30 179V239H360V179H30Z" />
<glyph unicode="&#xb2;" glyph-name="twosuperior" horiz-adv-x="179" d="M61 563V512H14V579Q14 622 57 622H120Q163 622 163 579V548Q163 502 147 471L68 325H166V280H14V324L100 482Q115 510 115 551V563Q115 574 112 577T98 580H78Q68 580 65 577T61 563Z" />
<glyph unicode="&#xb3;" glyph-name="threesuperior" horiz-adv-x="196" d="M64 563V517H16V579Q16 622 60 622H126Q170 622 170 579V480Q170 456 149 454Q170 451 170 428V323Q170 280 126 280H60Q16 280 16 323V385H64V340Q64 329 67 326T81 322H105Q116 322
119 325T122 340V415Q122 426 119 429T105 432H75V475H105Q116 475 119 478T122 492V563Q122 574 119 577T105 580H81Q70 580 67 577T64 563Z" />
<glyph unicode="&#xb4;" glyph-name="acute" horiz-adv-x="400" d="M118 516L196 643H278L180 516H118Z" />
<glyph unicode="&#xb5;" glyph-name="uni00B5" horiz-adv-x="339" d="M214 485H283V0H214V33Q203 0 159 0H109V-141H40V485H109V90Q109 70 114 65T140 59H180Q198 59 206 67T214 95V485Z" />
<glyph unicode="&#xb6;" glyph-name="paragraph" horiz-adv-x="490" d="M357 622H425V-141H357V622ZM275 622V-141H207V230H134Q55 230 55 309V543Q55 622 134 622H275Z" />
<glyph unicode="&#xb7;" glyph-name="middot" horiz-adv-x="202" d="M30 259V371H112V259H30Z" />
<glyph unicode="&#xb8;" glyph-name="cedilla" horiz-adv-x="400" d="M208 -73V-51H273V-79Q273 -123 250 -145T184 -168H136V-110H173Q192 -110 200 -102T208 -73Z" />
<glyph unicode="&#xb9;" glyph-name="onesuperior" horiz-adv-x="126" d="M96 622V280H48V580H11V622H96Z" />
<glyph unicode="&#xba;" glyph-name="ordmasculine" horiz-adv-x="226" d="M82 622H144Q200 622 200 566V336Q200 280 144 280H82Q26 280 26 336V566Q26 622 82 622ZM152 344V558Q152 572 148 576T129 580H96Q82 580 78 576T74 558V344Q74 330 78 326T96 322H129Q143
322 147 326T152 344Z" />
<glyph unicode="&#xbb;" glyph-name="guillemotright" horiz-adv-x="487" d="M441 262L320 106H243L367 261L243 418H320L441 262ZM241 262L120 106H43L167 261L43 418H120L241 262Z" />
<glyph unicode="&#xbf;" glyph-name="questiondown" horiz-adv-x="308" d="M194 26H263V-60Q263 -137 184 -137H99Q20 -137 20 -60V144Q20 222 99 222H117L120 289H177L183 163H117Q99 163 94 157T89 131V-46Q89 -65 94 -72T117 -79H165Q184 -79 189 -72T194 -46V26ZM190
485V373H108V485H190Z" />
<glyph unicode="&#xc0;" glyph-name="Agrave" horiz-adv-x="343" d="M259 0L233 158H107L84 0H15L112 622H221L328 0H259ZM115 217H224L166 574L115 217ZM191 653H129L31 780H113L191 653Z" />
<glyph unicode="&#xc1;" glyph-name="Aacute" horiz-adv-x="343" d="M259 0L233 158H107L84 0H15L112 622H221L328 0H259ZM115 217H224L166 574L115 217ZM295 780L197 653H135L213 780H295Z" />
<glyph unicode="&#xc2;" glyph-name="Acircumflex" horiz-adv-x="343" d="M259 0L233 158H107L84 0H15L112 622H221L328 0H259ZM115 217H224L166 574L115 217ZM166 737L114 653H38L123 780H210L295 653H219L166 737Z" />
<glyph unicode="&#xc3;" glyph-name="Atilde" horiz-adv-x="343" d="M259 0L233 158H107L84 0H15L112 622H221L328 0H259ZM115 217H224L166 574L115 217ZM103 664V653H41V667Q41 704 57 723T113 743H119Q142 743 171 726T210 708T225 713T229 733V743H291V729Q291
692 276 673T220 653H215Q191 653 161 670T120 688Q103 688 103 664Z" />
<glyph unicode="&#xc4;" glyph-name="Adieresis" horiz-adv-x="343" d="M259 0L233 158H107L84 0H15L112 622H221L328 0H259ZM115 217H224L166 574L115 217ZM122 737V653H34V737H122ZM298 737V653H210V737H298Z" />
<glyph unicode="&#xc5;" glyph-name="Aring" horiz-adv-x="343" d="M259 0L233 158H107L84 0H15L112 622H221L328 0H259ZM115 217H224L166 574L115 217ZM196 653H136Q71 653 71 718V735Q71 800 136 800H196Q261 800 261 735V718Q261 653 196 653ZM122 729V724Q122
707 127 702T150 697H182Q200 697 205 702T210 724V729Q210 746 205 751T182 756H150Q132 756 127 751T122 729Z" />
<glyph unicode="&#xc6;" glyph-name="AE" horiz-adv-x="528" d="M333 59H504V0H264V158H139L83 0H14L240 622H497V563H333V353H467V294H333V59ZM264 217V509L160 217H264Z" />
<glyph unicode="&#xc7;" glyph-name="Ccedilla" horiz-adv-x="345" d="M305 438H236V532Q236 552 230 557T205 563H150Q130 563 125 558T119 532V89Q119 70 124 64T150 58H205Q224 58 230 64T236 89V183H305V78Q305 -1 226 -1H129Q50 -1 50 78V543Q50 622 129
622H226Q305 622 305 543V438ZM149 -73V-51H214V-79Q214 -123 191 -145T125 -168H77V-110H114Q133 -110 141 -102T149 -73Z" />
<glyph unicode="&#xc8;" glyph-name="Egrave" horiz-adv-x="315" d="M124 59H295V0H55V622H288V563H124V353H258V294H124V59ZM202 653H140L42 780H124L202 653Z" />
<glyph unicode="&#xc9;" glyph-name="Eacute" horiz-adv-x="315" d="M124 294V59H295V0H55V622H288V563H124V353H258V294H124ZM296 780L198 653H136L214 780H296Z" />
<glyph unicode="&#xca;" glyph-name="Ecircumflex" horiz-adv-x="315" d="M124 294V59H295V0H55V622H288V563H124V353H258V294H124ZM172 737L120 653H44L129 780H216L301 653H225L172 737Z" />
<glyph unicode="&#xcb;" glyph-name="Edieresis" horiz-adv-x="315" d="M213 737H301V653H213V737ZM124 294V59H295V0H55V622H288V563H124V353H258V294H124ZM125 737V653H37V737H125Z" />
<glyph unicode="&#xcc;" glyph-name="Igrave" horiz-adv-x="198" d="M52 780L130 653H68L-30 780H52ZM65 622H133V0H65V622Z" />
<glyph unicode="&#xcd;" glyph-name="Iacute" horiz-adv-x="198" d="M72 653L150 780H232L134 653H72ZM65 622H133V0H65V622Z" />
<glyph unicode="&#xce;" glyph-name="Icircumflex" horiz-adv-x="198" d="M-28 653L57 780H144L229 653H153L100 737L48 653H-28ZM65 622H133V0H65V622Z" />
<glyph unicode="&#xcf;" glyph-name="Idieresis" horiz-adv-x="198" d="M65 622H133V0H65V622ZM141 653V737H229V653H141ZM-35 653V737H53V653H-35Z" />
<glyph unicode="&#xd0;" glyph-name="Eth" horiz-adv-x="381" d="M55 622H252Q331 622 331 543V79Q331 0 252 0H55V283H5V342H55V622ZM262 90V532Q262 552 256 557T231 563H124V342H204V283H124V59H231Q250 59 256 64T262 90Z" />
<glyph unicode="&#xd1;" glyph-name="Ntilde" horiz-adv-x="377" d="M237 653Q213 653 183 670T142 688Q125 688 125 664V653H63V667Q63 704 79 723T135 743H141Q164 743 193 726T232 708T247 713T251 733V743H313V729Q313 692 298 673T242 653H237ZM259 622H322V0H247L118
482V0H55V622H135L259 157V622Z" />
<glyph unicode="&#xd2;" glyph-name="Ograve" horiz-adv-x="360" d="M129 622H231Q310 622 310 543V79Q310 0 231 0H129Q50 0 50 79V543Q50 622 129 622ZM242 90V532Q242 552 236 557T211 563H149Q130 563 124 558T118 532V90Q118 70 124 65T149 59H211Q230 59
236 64T242 90ZM200 653H138L40 780H122L200 653Z" />
<glyph unicode="&#xd3;" glyph-name="Oacute" horiz-adv-x="360" d="M129 622H231Q310 622 310 543V79Q310 0 231 0H129Q50 0 50 79V543Q50 622 129 622ZM242 90V532Q242 552 236 557T211 563H149Q130 563 124 558T118 532V90Q118 70 124 65T149 59H211Q230 59
236 64T242 90ZM300 780L202 653H140L218 780H300Z" />
<glyph unicode="&#xd4;" glyph-name="Ocircumflex" horiz-adv-x="360" d="M129 622H231Q310 622 310 543V79Q310 0 231 0H129Q50 0 50 79V543Q50 622 129 622ZM242 90V532Q242 552 236 557T211 563H149Q130 563 124 558T118 532V90Q118 70 124 65T149 59H211Q230
59 236 64T242 90ZM179 737L127 653H51L136 780H223L308 653H232L179 737Z" />
<glyph unicode="&#xd5;" glyph-name="Otilde" horiz-adv-x="360" d="M129 622H231Q310 622 310 543V79Q310 0 231 0H129Q50 0 50 79V543Q50 622 129 622ZM242 90V532Q242 552 236 557T211 563H149Q130 563 124 558T118 532V90Q118 70 124 65T149 59H211Q230 59
236 64T242 90ZM116 664V653H54V667Q54 704 70 723T126 743H132Q155 743 184 726T223 708T238 713T242 733V743H304V729Q304 692 289 673T233 653H228Q204 653 174 670T133 688Q116 688 116 664Z" />
<glyph unicode="&#xd6;" glyph-name="Odieresis" horiz-adv-x="360" d="M224 737H312V653H224V737ZM129 622H231Q310 622 310 543V79Q310 0 231 0H129Q50 0 50 79V543Q50 622 129 622ZM242 90V532Q242 552 236 557T211 563H149Q130 563 124 558T118 532V90Q118
70 124 65T149 59H211Q230 59 236 64T242 90ZM136 737V653H48V737H136Z" />
<glyph unicode="&#xd7;" glyph-name="multiply" horiz-adv-x="350" d="M325 416L220 311L325 206L280 161L175 266L70 161L25 206L130 311L25 416L70 461L175 356L280 461L325 416Z" />
<glyph unicode="&#xd8;" glyph-name="Oslash" horiz-adv-x="370" d="M315 543V79Q315 0 236 0H134Q124 0 110 2L103 -20H55L70 25Q55 44 55 79V543Q55 622 134 622H236Q246 622 260 620L267 642H315L300 597Q315 578 315 543ZM122 535V189L241 561Q235 566 216
566H153Q134 566 128 560T122 535ZM248 87V433L129 61Q134 56 153 56H216Q236 56 242 61T248 87Z" />
<glyph unicode="&#xd9;" glyph-name="Ugrave" horiz-adv-x="364" d="M244 622H312V79Q312 0 233 0H131Q52 0 52 79V622H120V90Q120 70 126 65T151 59H213Q232 59 238 64T244 90V622ZM213 653H151L53 780H135L213 653Z" />
<glyph unicode="&#xda;" glyph-name="Uacute" horiz-adv-x="364" d="M244 622H312V79Q312 0 233 0H131Q52 0 52 79V622H120V90Q120 70 126 65T151 59H213Q232 59 238 64T244 90V622ZM310 780L212 653H150L228 780H310Z" />
<glyph unicode="&#xdb;" glyph-name="Ucircumflex" horiz-adv-x="364" d="M244 622H312V79Q312 0 233 0H131Q52 0 52 79V622H120V90Q120 70 126 65T151 59H213Q232 59 238 64T244 90V622ZM181 737L129 653H53L138 780H225L310 653H234L181 737Z" />
<glyph unicode="&#xdc;" glyph-name="Udieresis" horiz-adv-x="364" d="M226 737H314V653H226V737ZM244 90V622H312V79Q312 0 233 0H131Q52 0 52 79V622H120V90Q120 70 126 65T151 59H213Q232 59 238 64T244 90ZM138 737V653H50V737H138Z" />
<glyph unicode="&#xdd;" glyph-name="Yacute" horiz-adv-x="319" d="M196 0H128V190L5 622H74L162 257L245 622H314L196 190V0ZM291 780L193 653H131L209 780H291Z" />
<glyph unicode="&#xde;" glyph-name="Thorn" horiz-adv-x="345" d="M123 497H236Q315 497 315 418V204Q315 125 236 125H123V0H55V622H123V497ZM247 215V407Q247 426 242 432T216 438H123V184H216Q236 184 241 190T247 215Z" />
<glyph unicode="&#xdf;" glyph-name="germandbls" horiz-adv-x="424" d="M184 148H251V89Q251 70 256 64T282 58H291Q310 58 316 64T322 89V181Q322 200 316 206T291 212H261Q182 212 182 291V356Q182 435 257 435Q283 435 290 439T297 460V495Q297 515 291 521T266
527H145Q126 527 120 521T113 495V0H45V510Q45 589 124 589H284Q363 589 363 510V442Q363 411 345 394T295 377H280Q260 377 254 371T248 346V301Q248 282 254 276T280 270H310Q389 270 389 191V79Q389 0 310 0H263Q184 0 184 79V148Z" />
<glyph unicode="&#xe0;" glyph-name="agrave" horiz-adv-x="328" d="M214 485H283V0H214V33Q203 0 159 0H119Q40 0 40 79V406Q40 485 119 485H159Q203 485 214 452V485ZM140 59H180Q198 59 206 67T214 95V390Q214 410 206 418T180 426H140Q120 426 115 420T109
395V90Q109 70 114 65T140 59ZM221 516H159L61 643H143L221 516Z" />
<glyph unicode="&#xe1;" glyph-name="aacute" horiz-adv-x="328" d="M214 485H283V0H214V33Q203 0 159 0H119Q40 0 40 79V406Q40 485 119 485H159Q203 485 214 452V485ZM140 59H180Q198 59 206 67T214 95V390Q214 410 206 418T180 426H140Q120 426 115 420T109
395V90Q109 70 114 65T140 59ZM298 643L200 516H138L216 643H298Z" />
<glyph unicode="&#xe2;" glyph-name="acircumflex" horiz-adv-x="328" d="M214 485H283V0H214V33Q203 0 159 0H119Q40 0 40 79V406Q40 485 119 485H159Q203 485 214 452V485ZM140 59H180Q198 59 206 67T214 95V390Q214 410 206 418T180 426H140Q120 426 115 420T109
395V90Q109 70 114 65T140 59ZM166 600L114 516H38L123 643H210L295 516H219L166 600Z" />
<glyph unicode="&#xe3;" glyph-name="atilde" horiz-adv-x="328" d="M222 624H284V610Q284 573 269 554T213 534H208Q184 534 154 551T113 569Q96 569 96 545V534H34V548Q34 585 50 604T106 624H112Q135 624 164 607T203 589T218 594T222 614V624ZM214 485H283V0H214V33Q203
0 159 0H119Q40 0 40 79V406Q40 485 119 485H159Q203 485 214 452V485ZM140 59H180Q198 59 206 67T214 95V390Q214 410 206 418T180 426H140Q120 426 115 420T109 395V90Q109 70 114 65T140 59Z" />
<glyph unicode="&#xe4;" glyph-name="adieresis" horiz-adv-x="328" d="M204 625H292V541H204V625ZM214 485H283V0H214V33Q203 0 159 0H119Q40 0 40 79V406Q40 485 119 485H159Q203 485 214 452V485ZM140 59H180Q198 59 206 67T214 95V390Q214 410 206 418T180
426H140Q120 426 115 420T109 395V90Q109 70 114 65T140 59ZM116 625V541H28V625H116Z" />
<glyph unicode="&#xe5;" glyph-name="aring" horiz-adv-x="328" d="M214 485H283V0H214V33Q203 0 159 0H119Q40 0 40 79V406Q40 485 119 485H159Q203 485 214 452V485ZM140 59H180Q198 59 206 67T214 95V390Q214 410 206 418T180 426H140Q120 426 115 420T109
395V90Q109 70 114 65T140 59ZM198 527H138Q73 527 73 592V609Q73 674 138 674H198Q263 674 263 609V592Q263 527 198 527ZM124 603V598Q124 581 129 576T152 571H184Q202 571 207 576T212 598V603Q212 620 207 625T184 630H152Q134 630 129 625T124 603Z" />
<glyph unicode="&#xe6;" glyph-name="ae" horiz-adv-x="509" d="M288 219V90Q288 70 294 65T319 59H366Q386 59 391 64T397 90V134H466V79Q466 0 387 0H307Q287 0 272 11T252 38Q248 23 233 12T195 0H124Q45 0 45 79V200L219 271V396Q216 426 185 426H145Q126
426 120 420T114 395V312H45V406Q45 485 124 485H195Q217 485 232 474T252 447Q256 462 271 473T307 485H390Q469 485 469 406V219H288ZM369 426H319Q300 426 294 420T288 395V278H400V395Q400 414 394 420T369 426ZM145 59H185Q202 59 210 65T219 89V208L114 166V90Q114
70 120 65T145 59Z" />
<glyph unicode="&#xe7;" glyph-name="ccedilla" horiz-adv-x="325" d="M290 341H221V395Q221 414 216 420T190 426H140Q120 426 115 420T109 395V90Q109 70 114 65T140 59H190Q210 59 215 64T221 90V144H290V79Q290 0 211 0H119Q40 0 40 79V406Q40 485 119 485H211Q290
485 290 406V341ZM136 -73V-51H201V-79Q201 -123 178 -145T112 -168H64V-110H101Q120 -110 128 -102T136 -73Z" />
<glyph unicode="&#xe8;" glyph-name="egrave" horiz-adv-x="330" d="M124 485H216Q295 485 295 406V219H114V90Q114 70 120 65T145 59H192Q212 59 217 64T223 90V134H292V79Q292 0 213 0H124Q45 0 45 79V406Q45 485 124 485ZM114 278H226V395Q226 414 220 420T195
426H145Q126 426 120 420T114 395V278ZM197 516H135L37 643H119L197 516Z" />
<glyph unicode="&#xe9;" glyph-name="eacute" horiz-adv-x="330" d="M124 485H216Q295 485 295 406V219H114V90Q114 70 120 65T145 59H192Q212 59 217 64T223 90V134H292V79Q292 0 213 0H124Q45 0 45 79V406Q45 485 124 485ZM114 278H226V395Q226 414 220 420T195
426H145Q126 426 120 420T114 395V278ZM298 643L200 516H138L216 643H298Z" />
<glyph unicode="&#xea;" glyph-name="ecircumflex" horiz-adv-x="328" d="M124 485H216Q295 485 295 406V219H114V90Q114 70 120 65T145 59H192Q212 59 217 64T223 90V134H292V79Q292 0 213 0H124Q45 0 45 79V406Q45 485 124 485ZM114 278H226V395Q226 414 220
420T195 426H145Q126 426 120 420T114 395V278ZM171 600L119 516H43L128 643H215L300 516H224L171 600Z" />
<glyph unicode="&#xeb;" glyph-name="edieresis" horiz-adv-x="328" d="M208 625H296V541H208V625ZM124 485H216Q295 485 295 406V219H114V90Q114 70 120 65T145 59H192Q212 59 217 64T223 90V134H292V79Q292 0 213 0H124Q45 0 45 79V406Q45 485 124 485ZM114
278H226V395Q226 414 220 420T195 426H145Q126 426 120 420T114 395V278ZM120 625V541H32V625H120Z" />
<glyph unicode="&#xec;" glyph-name="igrave" horiz-adv-x="159" d="M32 643L110 516H48L-50 643H32ZM114 0H45V485H114V0Z" />
<glyph unicode="&#xed;" glyph-name="iacute" horiz-adv-x="159" d="M45 516L123 643H205L107 516H45ZM114 0H45V485H114V0Z" />
<glyph unicode="&#xee;" glyph-name="icircumflex" horiz-adv-x="159" d="M-48 516L37 643H124L209 516H133L80 600L28 516H-48ZM114 0H45V485H114V0Z" />
<glyph unicode="&#xef;" glyph-name="idieresis" horiz-adv-x="159" d="M124 541V625H212V541H124ZM-52 541V625H36V541H-52ZM114 0H45V485H114V0Z" />
<glyph unicode="&#xf0;" glyph-name="eth" horiz-adv-x="347" d="M297 309V79Q297 0 218 0H119Q40 0 40 79V334Q40 413 119 413H212Q193 474 161 521L69 486V534L134 559Q106 594 71 622H166Q185 603 200 584L289 618V570L227 546Q297 438 297 309ZM228 90V298Q228
330 224 354H140Q120 354 115 348T109 323V90Q109 70 114 65T140 59H197Q216 59 222 64T228 90Z" />
<glyph unicode="&#xf1;" glyph-name="ntilde" horiz-adv-x="333" d="M169 485H209Q288 485 288 406V0H219V395Q219 414 214 420T188 426H148Q130 426 122 418T114 390V0H45V485H114V452Q125 485 169 485ZM96 545V534H34V548Q34 585 50 604T106 624H112Q135 624
164 607T203 589T218 594T222 614V624H284V610Q284 573 269 554T213 534H208Q184 534 154 551T113 569Q96 569 96 545Z" />
<glyph unicode="&#xf2;" glyph-name="ograve" horiz-adv-x="340" d="M119 485H221Q300 485 300 406V79Q300 0 221 0H119Q40 0 40 79V406Q40 485 119 485ZM232 90V395Q232 414 226 420T201 426H139Q120 426 114 420T108 395V90Q108 70 114 65T139 59H201Q220 59
226 64T232 90ZM198 516H136L38 643H120L198 516Z" />
<glyph unicode="&#xf3;" glyph-name="oacute" horiz-adv-x="340" d="M119 485H221Q300 485 300 406V79Q300 0 221 0H119Q40 0 40 79V406Q40 485 119 485ZM232 90V395Q232 414 226 420T201 426H139Q120 426 114 420T108 395V90Q108 70 114 65T139 59H201Q220 59
226 64T232 90ZM294 643L196 516H134L212 643H294Z" />
<glyph unicode="&#xf4;" glyph-name="ocircumflex" horiz-adv-x="340" d="M119 485H221Q300 485 300 406V79Q300 0 221 0H119Q40 0 40 79V406Q40 485 119 485ZM232 90V395Q232 414 226 420T201 426H139Q120 426 114 420T108 395V90Q108 70 114 65T139 59H201Q220
59 226 64T232 90ZM167 600L115 516H39L124 643H211L296 516H220L167 600Z" />
<glyph unicode="&#xf5;" glyph-name="otilde" horiz-adv-x="340" d="M119 485H221Q300 485 300 406V79Q300 0 221 0H119Q40 0 40 79V406Q40 485 119 485ZM232 90V395Q232 414 226 420T201 426H139Q120 426 114 420T108 395V90Q108 70 114 65T139 59H201Q220 59
226 64T232 90ZM100 545V534H38V548Q38 585 54 604T110 624H116Q139 624 168 607T207 589T222 594T226 614V624H288V610Q288 573 273 554T217 534H212Q188 534 158 551T117 569Q100 569 100 545Z" />
<glyph unicode="&#xf6;" glyph-name="odieresis" horiz-adv-x="340" d="M213 625H301V541H213V625ZM119 485H221Q300 485 300 406V79Q300 0 221 0H119Q40 0 40 79V406Q40 485 119 485ZM232 90V395Q232 414 226 420T201 426H139Q120 426 114 420T108 395V90Q108
70 114 65T139 59H201Q220 59 226 64T232 90ZM125 625V541H37V625H125Z" />
<glyph unicode="&#xf7;" glyph-name="divide" horiz-adv-x="380" d="M155 211H225V131H155V211ZM155 491H225V411H155V491ZM25 281V341H355V281H25Z" />
<glyph unicode="&#xf8;" glyph-name="oslash" horiz-adv-x="350" d="M305 406V79Q305 0 226 0H124Q116 0 102 2L93 -20H45L62 22Q45 42 45 79V406Q45 485 124 485H226Q234 485 248 483L257 505H305L288 463Q305 443 305 406ZM111 400V143L227 430Q217 432 207
432H143Q123 432 117 426T111 400ZM239 85V342L123 55Q133 53 143 53H207Q227 53 233 59T239 85Z" />
<glyph unicode="&#xf9;" glyph-name="ugrave" horiz-adv-x="333" d="M219 485H288V0H219V33Q208 0 164 0H124Q45 0 45 79V485H114V90Q114 70 120 65T145 59H185Q203 59 211 67T219 95V485ZM200 516H138L40 643H122L200 516Z" />
<glyph unicode="&#xfa;" glyph-name="uacute" horiz-adv-x="333" d="M219 485H288V0H219V33Q208 0 164 0H124Q45 0 45 79V485H114V90Q114 70 120 65T145 59H185Q203 59 211 67T219 95V485ZM297 643L199 516H137L215 643H297Z" />
<glyph unicode="&#xfb;" glyph-name="ucircumflex" horiz-adv-x="328" d="M219 485H288V0H219V33Q208 0 164 0H124Q45 0 45 79V485H114V90Q114 70 120 65T145 59H185Q203 59 211 67T219 95V485ZM161 600L109 516H33L118 643H205L290 516H214L161 600Z" />
<glyph unicode="&#xfc;" glyph-name="udieresis" horiz-adv-x="328" d="M205 625H293V541H205V625ZM219 485H288V0H219V33Q208 0 164 0H124Q45 0 45 79V485H114V90Q114 70 120 65T145 59H185Q203 59 211 67T219 95V485ZM117 625V541H29V625H117Z" />
<glyph unicode="&#xfd;" glyph-name="yacute" horiz-adv-x="309" d="M128 516L206 643H288L190 516H128ZM107 -141H53V-82H86Q129 -82 136 -51L148 0H103L10 485H79L157 48L230 485H299L202 -62Q187 -141 107 -141Z" />
<glyph unicode="&#xfe;" glyph-name="thorn" horiz-adv-x="328" d="M169 485H209Q288 485 288 406V79Q288 0 209 0H169Q125 0 114 33V-141H45V669H114V452Q125 485 169 485ZM219 90V395Q219 414 214 420T188 426H148Q130 426 122 418T114 390V95Q114 75 122 67T148
59H188Q208 59 213 64T219 90Z" />
<glyph unicode="&#xff;" glyph-name="ydieresis" horiz-adv-x="309" d="M107 -141H53V-82H86Q129 -82 136 -51L148 0H103L10 485H79L157 48L230 485H299L202 -62Q187 -141 107 -141ZM197 541V625H285V541H197ZM21 541V625H109V541H21Z" />
<glyph unicode="&#x2013;" glyph-name="endash" horiz-adv-x="370" d="M20 263V321H350V263H20Z" />
<glyph unicode="&#x2014;" glyph-name="emdash" horiz-adv-x="479" d="M0 263V321H479V263H0Z" />
<glyph unicode="&#x2018;" glyph-name="quoteleft" horiz-adv-x="142" d="M112 373H30V431L85 622H112V373Z" />
<glyph unicode="&#x2019;" glyph-name="quoteright" horiz-adv-x="142" d="M30 622H112V564L57 373H30V622Z" />
<glyph unicode="&#x201a;" glyph-name="quotesinglbase" horiz-adv-x="142" d="M30 112H112V54L57 -137H30V112Z" />
<glyph unicode="&#x201c;" glyph-name="quotedblleft" horiz-adv-x="274" d="M112 373H30V431L85 622H112V373ZM244 373H162V431L217 622H244V373Z" />
<glyph unicode="&#x201d;" glyph-name="quotedblright" horiz-adv-x="274" d="M162 622H244V564L189 373H162V622ZM30 622H112V564L57 373H30V622Z" />
<glyph unicode="&#x201e;" glyph-name="quotedblbase" horiz-adv-x="274" d="M162 112H244V54L189 -137H162V112ZM30 112H112V54L57 -137H30V112Z" />
<glyph unicode="&#x2022;" glyph-name="bullet" horiz-adv-x="396" d="M71 268T71 321T108 411T198 448T287 411T325 321T288 231T198 194T109 231Z" />
<glyph unicode="&#x2039;" glyph-name="guilsinglleft" horiz-adv-x="287" d="M164 106L43 262L164 418H241L117 261L241 106H164Z" />
<glyph unicode="&#x203a;" glyph-name="guilsinglright" horiz-adv-x="289" d="M241 262L120 106H43L167 261L43 418H120L241 262Z" />
</font>
</defs>
</svg>
