<?xml version="1.0" standalone="no"?>
<!DOCTYPE svg PUBLIC "-//W3C//DTD SVG 1.1//EN" "http://www.w3.org/Graphics/SVG/1.1/DTD/svg11.dtd">
<svg xmlns="http://www.w3.org/2000/svg">
<defs >
<font id="TitilliumWeb" horiz-adv-x="473" ><font-face
    font-family="Titillium Web ExtraLight"
    units-per-em="1000"
    panose-1="0 0 3 0 0 0 0 0 0 0"
    ascent="1133"
    descent="-388"
    alphabetic="0" />
<glyph unicode=" " glyph-name="space" horiz-adv-x="220" />
<glyph unicode="!" glyph-name="exclam" horiz-adv-x="207" d="M135 211L248 700H281L163 211H135ZM89 0L108 83H144L125 0H89Z" />
<glyph unicode="&quot;" glyph-name="quotedbl" horiz-adv-x="317" d="M356 486H323L371 698H406L356 486ZM217 486H184L232 698H267L217 486Z" />
<glyph unicode="#" glyph-name="numbersign" horiz-adv-x="560" d="M571 190H451L405 0H369L415 190H227L181 0H145L191 190H71L79 222H199L255 448H135L143 480H263L311 670H347L299 480H487L535 670H571L523 480H643L635 448H515L459 222H579L571 190ZM423 222L479
448H291L235 222H423Z" />
<glyph unicode="$" glyph-name="dollar" horiz-adv-x="560" d="M442 670L460 669L503 790H536L492 667Q544 663 589 654L604 651L598 622Q538 632 481 637L380 356Q452 334 483 307T514 220Q514 115 452 53T285 -9Q261 -9 249 -8L209 -120H178L218 -6L100 8L106
39Q168 30 230 25L340 333Q269 354 238 381T206 465Q206 566 269 618T442 670ZM478 219Q478 266 456 286T369 325L260 23H291Q379 23 428 76T478 219ZM241 465Q241 423 265 404T351 365L449 639H435Q344 639 293 595T241 465Z" />
<glyph unicode="%" glyph-name="percent" horiz-adv-x="560" d="M351 620Q351 670 301 670Q265 670 243 645T210 580T199 517Q199 462 249 462Q285 462 307 488T340 556T351 620ZM186 6L503 701L535 696L218 1L186 6ZM309 702Q386 702 386 626Q386 601 378 568Q361
499 325 465T241 430T174 464Q164 483 164 509T172 569Q206 702 309 702ZM482 272Q560 272 560 196Q560 171 552 138Q535 69 499 35T415 0T348 34Q338 53 338 79T346 139Q380 272 482 272ZM525 189Q525 240 474 240Q438 240 416 216T384 150T374 88Q374 32 422
32Q490 32 517 138Q525 168 525 189Z" />
<glyph unicode="&amp;" glyph-name="ampersand" horiz-adv-x="631" d="M451 709Q572 709 572 605Q572 448 362 371L496 185Q538 258 562 329H600Q572 240 520 156L623 21L598 -3L499 125Q398 -9 260 -9Q171 -9 127 26T83 142Q83 248 131 309T295 413Q271 465 271
507Q271 599 318 654T451 709ZM260 25Q389 25 476 154L312 383Q207 346 164 290T121 142Q121 25 260 25ZM380 677T345 630T309 517T345 399Q444 437 489 486T534 606T448 677Q380 677 345 630Z" />
<glyph unicode="&apos;" glyph-name="quotesingle" horiz-adv-x="178" d="M217 486H184L232 698H267L217 486Z" />
<glyph unicode="(" glyph-name="parenleft" horiz-adv-x="223" d="M184 389T160 289T136 113Q136 -26 146 -100L150 -124H117Q101 -45 101 74T123 294T178 472Q245 632 298 714L321 748H356Q322 696 282 616T213 463Z" />
<glyph unicode=")" glyph-name="parenright" horiz-adv-x="222" d="M183 241T207 341T231 517Q231 656 220 730L217 754H250Q266 675 266 556T244 336T188 158Q122 -2 68 -84L46 -118H11Q45 -66 85 14T154 167Z" />
<glyph unicode="*" glyph-name="asterisk" horiz-adv-x="407" d="M480 519H343L385 390L353 380L311 510L201 431L182 458L292 538L183 618L203 645L313 564L355 693L387 683L345 553H480V519Z" />
<glyph unicode="+" glyph-name="plus" horiz-adv-x="560" d="M117 234V268H319V480H355V268H559V234H355V20H319V234H117Z" />
<glyph unicode="," glyph-name="comma" horiz-adv-x="189" d="M43 -129H15L101 83H141L43 -129Z" />
<glyph unicode="-" glyph-name="hyphen" horiz-adv-x="383" d="M128 252L136 287H380L371 252H128Z" />
<glyph unicode="." glyph-name="period" horiz-adv-x="179" d="M72 0L91 83H127L108 0H72Z" />
<glyph unicode="/" glyph-name="slash" horiz-adv-x="386" d="M78 -1L45 12L470 700L503 686L78 -1Z" />
<glyph unicode="0" glyph-name="zero" horiz-adv-x="560" d="M217 573T278 621T424 670T557 623T606 485Q606 367 572 257T463 69T297 -9T155 36T106 167T125 336T181 497ZM570 559T530 598T420 637T294 591T207 472Q142 324 142 173Q142 98 182 61T290 24T412
67T500 178Q570 321 570 485Q570 559 530 598Z" />
<glyph unicode="1" glyph-name="one" horiz-adv-x="560" d="M256 533L485 661H517L366 0H330L470 614L264 501L256 533Z" />
<glyph unicode="2" glyph-name="two" horiz-adv-x="560" d="M562 530Q562 638 418 638Q340 638 252 620L221 613L223 644Q326 671 418 671Q598 671 598 530Q598 460 549 398T408 261L128 33H499L491 0H70L77 30L371 273Q465 350 513 409T562 530Z" />
<glyph unicode="3" glyph-name="three" horiz-adv-x="560" d="M424 670Q589 670 589 539Q589 470 547 422T443 353Q533 319 533 215T458 51T273 -9Q231 -9 183 -1T107 16L80 24L89 56Q193 24 280 24T432 76T497 212Q497 268 464 300T361 333H230L239 366H369Q431
366 492 414T553 532Q553 588 522 612T434 637Q336 637 252 620L224 615L227 647Q327 670 424 670Z" />
<glyph unicode="4" glyph-name="four" horiz-adv-x="560" d="M384 0L414 132H82L89 161L429 660H470L129 165H422L477 405H513L458 165H550L542 132H450L420 0H384Z" />
<glyph unicode="5" glyph-name="five" horiz-adv-x="560" d="M384 411Q553 411 553 275Q553 158 471 76T272 -7Q192 -7 105 14L76 21L86 53Q195 26 276 26Q376 26 446 98T517 275Q517 325 481 351T378 378Q341 378 294 364T217 336L188 323L155 327L257 660H623L615
627H281L198 361Q302 411 384 411Z" />
<glyph unicode="6" glyph-name="six" horiz-adv-x="560" d="M619 620Q537 637 474 637T367 619T295 572T240 504Q200 440 178 358Q279 406 376 406T516 366T560 256Q560 137 490 64T297 -9Q211 -9 166 48T121 213Q121 335 172 450Q200 512 239 560T338 639T469
670Q535 670 606 656L628 651L619 620ZM377 373Q335 373 283 361T200 336L169 323Q158 290 158 213Q158 24 296 24Q405 24 464 87T524 242Q524 308 491 340T377 373Z" />
<glyph unicode="7" glyph-name="seven" horiz-adv-x="560" d="M229 626L237 660H626L608 585L198 -9L166 5L572 592L580 626H229Z" />
<glyph unicode="8" glyph-name="eight" horiz-adv-x="560" d="M440 670Q639 670 639 537Q639 478 591 422T456 348Q521 328 544 297T568 220Q568 201 565 180T543 122T496 59T408 12T270 -9Q66 -9 66 118Q66 209 117 263T254 348Q202 368 182 395T162 463T176
538T221 602T308 651T440 670ZM105 76T150 50T264 24T378 37T450 71T497 118Q531 163 531 214T502 288T404 330H295Q216 309 161 259T105 122Q105 76 150 50ZM431 637Q307 637 253 588T198 468Q198 393 303 362H412Q450 369 489 386T564 442T600 534T561 612T431
637Z" />
<glyph unicode="9" glyph-name="nine" horiz-adv-x="560" d="M433 670Q595 670 595 485Q595 416 571 324Q526 144 444 68T242 -9Q172 -9 102 6L78 12L92 44Q174 25 251 25Q457 25 528 298Q396 256 309 256T180 306Q153 338 153 390Q153 420 162 457Q187 555 263
612T433 670ZM329 290Q391 290 502 322L538 333Q558 417 558 478Q558 636 424 636Q344 636 283 588T200 457Q192 425 192 391T213 332Q247 290 329 290Z" />
<glyph unicode=":" glyph-name="colon" horiz-adv-x="179" d="M152 352L171 435H207L188 352H152ZM72 0L91 83H127L108 0H72Z" />
<glyph unicode=";" glyph-name="semicolon" horiz-adv-x="218" d="M32 -129L118 83H158L60 -129H32ZM174 352L193 435H229L210 352H174Z" />
<glyph unicode="&lt;" glyph-name="less" horiz-adv-x="560" d="M525 446L134 251L525 56V15L101 233V269L525 485V446Z" />
<glyph unicode="=" glyph-name="equal" horiz-adv-x="560" d="M126 318V352H550V318H126ZM126 149V183H550V149H126Z" />
<glyph unicode="&gt;" glyph-name="greater" horiz-adv-x="560" d="M539 251L148 446V485L572 269V233L148 15V56L539 251Z" />
<glyph unicode="?" glyph-name="question" horiz-adv-x="403" d="M409 709T450 682T492 599T475 507T427 440T319 346T231 227L223 188H189Q191 210 195 231Q209 301 302 376T424 491T454 595Q454 675 334 675Q287 675 214 658L189 653V685Q276 709 342 709ZM155
1L172 83H209L191 1H155Z" />
<glyph unicode="@" glyph-name="at" horiz-adv-x="916" d="M641 717Q731 717 795 695T895 636Q958 569 958 449Q958 386 939 301T898 158T857 68T811 18T762 -5T708 -10Q623 -10 620 54Q494 -9 428 -9Q346 -9 325 48Q315 76 315 95T315 132Q316 153 324 198Q378
509 579 509Q641 509 741 489Q654 148 654 72Q654 41 667 33T710 24T758 29T796 50T834 98Q871 164 904 307Q923 390 923 439T911 533T868 610Q798 682 633 682Q434 682 323 587T154 261Q130 161 130 107T140 5T184 -80Q257 -162 433 -162L569 -152L564 -188Q470
-197 410 -197T292 -182T197 -143T136 -81Q92 -14 92 88Q92 163 115 261Q173 510 295 613T641 717ZM574 477Q486 477 437 408T359 197Q351 156 351 125Q351 27 435 27Q504 27 620 88Q622 113 649 238T700 462Q640 477 574 477Z" />
<glyph unicode="A" glyph-name="A" horiz-adv-x="556" d="M32 0L403 700H492L530 0H494L482 216H183L69 0H32ZM423 667L201 248H480L459 667H423Z" />
<glyph unicode="B" glyph-name="B" horiz-adv-x="580" d="M462 700Q543 700 581 671T620 568T579 438T479 363Q575 338 575 243Q575 128 507 64T313 0H86L247 700H462ZM388 343H201L130 33H321Q424 33 480 89T537 242Q537 299 498 321T388 343ZM455 667H275L208
376H396Q479 376 531 432T583 571Q583 626 554 646T455 667Z" />
<glyph unicode="C" glyph-name="C" horiz-adv-x="510" d="M306 -9Q121 -9 121 190Q121 333 176 465Q238 615 342 676Q401 709 469 709Q543 709 608 695L632 690L624 658Q537 675 465 675T332 628T234 506Q159 353 159 190Q159 105 195 65T311 25Q387 25 451 39L474
44L473 11Q386 -9 306 -9Z" />
<glyph unicode="D" glyph-name="D" horiz-adv-x="608" d="M323 0H86L248 700H476Q567 700 606 650T646 508T626 332T569 173T467 49T323 0ZM571 265T589 344T608 504T577 626T469 667H276L131 33H332Q396 33 450 78T537 194Z" />
<glyph unicode="E" glyph-name="E" horiz-adv-x="510" d="M86 0L248 700H625L617 667H276L209 376H494L486 343H201L130 33H471L463 0H86Z" />
<glyph unicode="F" glyph-name="F" horiz-adv-x="485" d="M86 0L248 700H615L607 667H276L203 349H490L482 316H195L122 0H86Z" />
<glyph unicode="G" glyph-name="G" horiz-adv-x="575" d="M318 -9Q121 -9 121 175Q121 331 175 466Q203 536 242 590T341 676T471 709Q550 709 638 690L665 684L655 654Q553 676 463 676Q402 676 351 644T265 560T206 442Q159 317 159 175Q159 24 320 24Q383 24
456 40L481 46L543 313H411L419 346H587L511 19Q409 -9 318 -9Z" />
<glyph unicode="H" glyph-name="H" horiz-adv-x="626" d="M504 0L581 334H199L122 0H86L248 700H284L207 367H589L666 700H702L540 0H504Z" />
<glyph unicode="I" glyph-name="I" horiz-adv-x="208" d="M86 0L248 700H284L122 0H86Z" />
<glyph unicode="J" glyph-name="J" horiz-adv-x="253" d="M332 700L195 107Q181 46 171 17T141 -35T90 -64T7 -71L13 -38Q88 -38 113 -11T161 116L296 700H332Z" />
<glyph unicode="K" glyph-name="K" horiz-adv-x="508" d="M448 0L314 329H198L122 0H86L248 700H284L205 362H315L605 700H648L344 346L486 0H448Z" />
<glyph unicode="L" glyph-name="L" horiz-adv-x="441" d="M432 0H86L248 700H284L130 33H440L432 0Z" />
<glyph unicode="M" glyph-name="M" horiz-adv-x="774" d="M86 0L248 700H321L393 54L777 700H850L688 0H652L807 667H794L412 21H366L290 667H276L122 0H86Z" />
<glyph unicode="N" glyph-name="N" horiz-adv-x="617" d="M86 0L248 700H329L479 33H503L657 700H693L531 0H452L301 667H276L122 0H86Z" />
<glyph unicode="O" glyph-name="O" horiz-adv-x="636" d="M159 102T198 63T323 24T469 69Q550 130 593 253T636 504Q636 593 594 634T474 676T336 633Q253 572 206 445T159 196Q159 102 198 63ZM674 369T631 246T509 57T324 -9T170 37T122 203T164 443T285 636T466
709T622 659T674 503Q674 369 631 246Z" />
<glyph unicode="P" glyph-name="P" horiz-adv-x="547" d="M377 256H181L122 0H86L248 700H481Q626 700 626 555Q626 428 562 342T377 256ZM385 290Q485 290 536 367T588 555Q588 611 561 638T473 666H276L189 290H385Z" />
<glyph unicode="Q" glyph-name="Q" horiz-adv-x="636" d="M333 -9Q218 -9 170 37T122 203T164 443T285 636T466 709T622 659T674 503Q674 369 631 246Q574 83 453 19L501 -128L467 -139L420 5Q378 -9 333 -9ZM159 102T198 63T323 24T469 69Q550 130 593 253T636
504Q636 593 594 634T474 676T336 633Q253 572 206 445T159 196Q159 102 198 63Z" />
<glyph unicode="R" glyph-name="R" horiz-adv-x="568" d="M470 700Q550 700 589 666T629 560T610 439T560 360Q502 305 435 292L524 0H488L400 288H189L122 0H86L248 700H470ZM591 551Q591 615 561 641T462 667H276L196 321H383Q477 321 534 384T591 551Z" />
<glyph unicode="S" glyph-name="S" horiz-adv-x="502" d="M415 676Q318 676 264 630T209 492Q209 444 239 424T351 379T465 326T498 233Q498 122 433 57T256 -9Q171 -9 90 4L60 8L67 41Q185 24 270 24T407 80T460 232Q460 282 435 303T330 347T211 399T172 492Q172
598 239 653T422 709Q488 709 568 693L593 688L587 658Q485 676 415 676Z" />
<glyph unicode="T" glyph-name="T" horiz-adv-x="477" d="M164 667L172 700H626L618 667H409L255 0H219L373 667H164Z" />
<glyph unicode="U" glyph-name="U" horiz-adv-x="593" d="M155 130Q155 25 313 25Q403 25 452 67T521 198L637 700H673L557 197Q533 93 476 42T320 -9Q119 -9 119 129Q119 167 129 207L243 700H279L165 207Q155 165 155 130Z" />
<glyph unicode="V" glyph-name="V" horiz-adv-x="538" d="M628 700H664L320 0H212L189 700H225L245 33H299L628 700Z" />
<glyph unicode="W" glyph-name="W" horiz-adv-x="805" d="M195 700H231L206 33H241L539 690H577L568 33H601L889 700H925L623 0H534L544 621L262 0H171L195 700Z" />
<glyph unicode="X" glyph-name="X" horiz-adv-x="509" d="M227 700L343 379L607 700H651L357 344L482 0H446L330 316L64 0H20L315 350L191 700H227Z" />
<glyph unicode="Y" glyph-name="Y" horiz-adv-x="485" d="M627 700L326 301L256 0H220L291 308L178 700H214L317 339L587 700H627Z" />
<glyph unicode="Z" glyph-name="Z" horiz-adv-x="498" d="M196 667L204 700H619L601 622L89 58L83 33H462L454 0H39L56 74L568 638L575 667H196Z" />
<glyph unicode="[" glyph-name="bracketleft" horiz-adv-x="296" d="M255 747H428L421 714H282L93 -89H232L223 -122H51L255 747Z" />
<glyph unicode="\" glyph-name="backslash" horiz-adv-x="387" d="M358 14L320 0L190 687L228 701L358 14Z" />
<glyph unicode="]" glyph-name="bracketright" horiz-adv-x="296" d="M186 -121H13L20 -88H159L348 715H209L218 748H390L186 -121Z" />
<glyph unicode="^" glyph-name="asciicircum" horiz-adv-x="560" d="M522 323L355 624L197 323H157L337 660H373L562 323H522Z" />
<glyph unicode="_" glyph-name="underscore" horiz-adv-x="643" d="M79 -79H528L518 -117H71L79 -79Z" />
<glyph unicode="`" glyph-name="grave" horiz-adv-x="518" d="M322 721L482 626L464 604L304 696L322 721Z" />
<glyph unicode="a" glyph-name="a" horiz-adv-x="482" d="M215 -9Q95 -9 95 118Q95 206 123 294T210 445T345 509Q396 509 489 494L520 489L444 163Q433 117 419 28L415 1L382 -1Q399 103 404 126Q400 121 393 112T365 79T322 38T271 6T215 -9ZM479 462Q406 477
343 477T229 417T155 276T132 118Q132 71 153 48T222 24Q276 24 369 126Q390 149 402 166L414 182L479 462Z" />
<glyph unicode="b" glyph-name="b" horiz-adv-x="481" d="M378 509Q450 509 475 473T501 363Q501 284 467 190Q448 138 421 94T349 21T250 -9Q192 -9 105 6L76 11L242 730H277L204 416Q210 423 234 443T278 476Q329 509 378 509ZM117 38Q203 23 254 23T351 65T418
166Q464 287 464 354T446 448T368 476Q334 476 291 449T220 394L193 367L117 38Z" />
<glyph unicode="c" glyph-name="c" horiz-adv-x="403" d="M363 509Q411 509 456 501L472 498L463 467Q406 477 363 477Q288 477 235 426Q136 329 136 132Q136 78 164 51T257 23Q294 23 352 37L372 42V10Q305 -9 249 -9Q99 -9 99 129Q99 347 215 452Q277 509 363 509Z" />
<glyph unicode="d" glyph-name="d" horiz-adv-x="481" d="M209 -9Q95 -9 95 117Q95 207 123 295T210 446T343 509Q406 509 466 497L486 493L541 730H576L407 0H373L399 114Q395 109 389 101T361 71T319 34T268 5T209 -9ZM479 462Q409 477 344 477T229 417T155
276T132 117Q132 23 219 23Q243 23 272 38T325 76Q374 121 400 156L412 172L479 462Z" />
<glyph unicode="e" glyph-name="e" horiz-adv-x="452" d="M134 84T163 55T236 25Q310 25 385 47L409 54V21Q323 -9 237 -9Q173 -9 135 27T97 130T113 261T161 382T245 474T364 509Q494 509 494 406Q494 321 425 286T212 250H149Q134 190 134 137ZM221 282Q344
282 401 308T458 406T363 477Q217 477 156 282H221Z" />
<glyph unicode="f" glyph-name="f" horiz-adv-x="297" d="M381 739Q410 739 446 733L458 731L450 700Q408 707 367 707T301 674T254 557L240 500H394L385 468H234L125 0L66 -230H37L198 468H134L142 500H205L219 559Q243 658 280 698T381 739Z" />
<glyph unicode="g" glyph-name="g" horiz-adv-x="458" d="M329 509Q378 509 408 494L557 500L549 465H439Q464 433 464 393T452 318T416 251T349 199T252 178L226 180Q185 127 185 94Q185 74 203 66T294 50T400 17T433 -62Q433 -132 362 -185T177 -239Q107 -239
66 -203T24 -112Q24 -22 163 53Q150 64 150 87T163 134T188 174L201 188Q131 216 131 304Q131 378 184 443T329 509ZM136 8T99 -29T61 -108T93 -179T185 -207Q272 -207 334 -166T396 -62Q396 -23 371 -7T280 16T189 34Q136 8 99 -29ZM260 210Q303 210 337 227T390
272Q428 324 428 375T405 452T325 477Q253 477 210 421T167 306Q167 210 260 210Z" />
<glyph unicode="h" glyph-name="h" horiz-adv-x="489" d="M198 385Q297 509 384 509Q438 509 468 478T499 394T479 257L419 0H385L445 258Q464 336 464 384Q464 476 378 476Q353 476 324 461T272 424Q226 381 196 343L185 328L109 0H74L243 730H278L198 385Z" />
<glyph unicode="i" glyph-name="i" horiz-adv-x="182" d="M73 0L189 500H224L108 0H73ZM220 638L234 698H270L256 638H220Z" />
<glyph unicode="j" glyph-name="j" horiz-adv-x="182" d="M73 0L189 500H224L108 0Q81 -115 51 -151T-87 -239L-99 -209Q-1 -160 25 -129T73 0ZM223 642L236 700H271L258 642H223Z" />
<glyph unicode="k" glyph-name="k" horiz-adv-x="431" d="M109 0H74L243 730H278L177 293H261L478 500H524L288 274L401 0H362L253 261H169L109 0Z" />
<glyph unicode="l" glyph-name="l" horiz-adv-x="195" d="M80 0L249 730H284L115 0H80Z" />
<glyph unicode="m" glyph-name="m" horiz-adv-x="774" d="M198 387Q296 509 383 509Q414 509 436 499T470 473Q492 441 494 418L495 408Q505 419 521 436T584 481T676 509T753 478T784 397T764 257L704 0H669L729 258Q748 336 748 383T725 453T665 476T586 448T520
392L496 365Q495 327 478 257L418 0H383L443 258Q462 336 462 383T440 453T385 476T323 461T270 424Q221 379 196 345L185 330L108 0H73L189 500H224L198 387Z" />
<glyph unicode="n" glyph-name="n" horiz-adv-x="488" d="M198 387Q296 509 383 509Q437 509 467 478T498 396T479 260L418 0H384L444 258Q463 336 463 384Q463 476 377 476Q352 476 323 461T270 424Q221 379 196 345L185 330L108 0H73L189 500H224L198 387Z" />
<glyph unicode="o" glyph-name="o" horiz-adv-x="493" d="M349 509Q507 509 507 352Q507 198 436 95T252 -9Q99 -9 99 139Q99 295 171 402T349 509ZM252 23Q349 23 410 118T471 352Q471 409 441 443T349 477Q256 477 196 378T135 139Q135 23 252 23Z" />
<glyph unicode="p" glyph-name="p" horiz-adv-x="480" d="M381 509Q501 509 501 377Q501 293 474 207T387 56T253 -9Q187 -9 130 4L110 8L55 -230H20L189 500H223L197 386Q201 391 207 399T234 429T275 466T325 495T381 509ZM464 377Q464 476 380 476Q338 476
291 439T214 365L184 328L117 39Q187 23 244 23T344 59T411 150Q464 267 464 377Z" />
<glyph unicode="q" glyph-name="q" horiz-adv-x="479" d="M397 113Q299 -9 213 -9Q94 -9 94 120Q94 250 158 374Q188 433 236 471T342 509Q403 509 490 494L519 489L355 -220H321L397 113ZM478 462Q410 477 345 477T229 417T155 278T131 135T152 48T222 24Q245
24 273 39T324 76Q373 121 400 156L411 171L478 462Z" />
<glyph unicode="r" glyph-name="r" horiz-adv-x="304" d="M73 0L190 500H224L207 424Q307 487 404 510L396 475Q332 459 232 406L199 389L109 0H73Z" />
<glyph unicode="s" glyph-name="s" horiz-adv-x="427" d="M470 464Q381 477 317 477T211 439T170 348Q170 318 191 304T282 274T384 238T415 168Q415 83 355 37T203 -9Q146 -9 77 3L54 7L61 39Q151 23 216 23T330 58T379 161Q379 199 356 213T262 242T163 277T134
342Q134 413 187 461T324 509Q379 509 454 498L479 495L470 464Z" />
<glyph unicode="t" glyph-name="t" horiz-adv-x="311" d="M159 82Q159 23 223 23L307 30L305 -1Q254 -9 218 -9Q122 -9 122 77Q122 114 139 182L206 468H133L141 500H215L254 662H289L249 500H412L404 468H241L174 182Q159 118 159 82Z" />
<glyph unicode="u" glyph-name="u" horiz-adv-x="488" d="M405 113Q307 -9 220 -9Q167 -9 136 22T105 104T124 240L185 500H219L159 242Q140 164 140 117T163 47T218 24T280 39T332 76Q382 121 407 155L418 170L495 500H530L414 0H379L405 113Z" />
<glyph unicode="v" glyph-name="v" horiz-adv-x="448" d="M147 500H183L206 32H246L494 500H532L266 0H172L147 500Z" />
<glyph unicode="w" glyph-name="w" horiz-adv-x="710" d="M150 500H185L191 32H207L443 490H488L508 32H525L752 500H789L547 0H473L456 447L229 0H157L150 500Z" />
<glyph unicode="x" glyph-name="x" horiz-adv-x="411" d="M145 500H183L269 273L459 500H502L286 247L380 0H341L258 223L70 0H27L240 250L145 500Z" />
<glyph unicode="y" glyph-name="y" horiz-adv-x="448" d="M147 500H183L206 32H246L494 500H532L145 -228H107L230 0H172L147 500Z" />
<glyph unicode="z" glyph-name="z" horiz-adv-x="420" d="M148 468L156 500H495L490 468L90 32H387L380 0H41L44 32L444 468H148Z" />
<glyph unicode="{" glyph-name="braceleft" horiz-adv-x="329" d="M207 224Q207 206 182 119T157 -4Q157 -87 266 -87L256 -123Q186 -120 154 -94T122 -22T147 110T172 213Q172 247 154 264T96 292L104 327Q170 345 195 373T233 461Q236 475 241 504Q251 565 261
596Q286 673 332 709T462 749L456 713Q377 709 339 675T286 568Q283 552 276 511T265 453Q251 388 225 359T143 311Q207 288 207 224Z" />
<glyph unicode="|" glyph-name="bar" horiz-adv-x="296" d="M188 -230V730H223V-230H188Z" />
<glyph unicode="}" glyph-name="braceright" horiz-adv-x="329" d="M266 399Q266 417 291 504T316 627Q316 710 207 710L217 746Q287 743 319 717T351 645T326 513T301 410Q301 376 319 359T377 331L369 296Q303 278 278 250T240 162Q237 148 232 118Q222 58 212
27Q187 -50 141 -86T11 -126L17 -90Q96 -86 134 -52T187 55Q190 71 197 112T208 170Q222 235 248 264T330 312Q266 335 266 399Z" />
<glyph unicode="~" glyph-name="asciitilde" horiz-adv-x="560" d="M441 212Q411 212 338 248T246 285T203 272T160 246L142 233L131 265Q193 319 243 319Q273 319 346 283T438 246T481 259T524 285L542 298L553 267Q491 212 441 212Z" />
<glyph unicode="&#xa0;" glyph-name="uni00A0" horiz-adv-x="220" />
<glyph unicode="&#xa1;" glyph-name="exclamdown" horiz-adv-x="189" d="M178 289L65 -200H32L150 289H178ZM224 500L205 417H169L188 500H224Z" />
<glyph unicode="&#xa2;" glyph-name="cent" horiz-adv-x="560" d="M162 160Q162 198 175 247Q202 350 257 403T389 459L420 590H453L422 460L529 450L519 415Q430 425 394 425Q326 425 280 378T213 247Q200 185 200 154T226 99T312 76L446 84L437 50Q381 43 325
43L295 -84H261L291 41Q162 41 162 160Z" />
<glyph unicode="&#xa3;" glyph-name="sterling" horiz-adv-x="560" d="M589 638Q515 646 476 646T419 641T388 622T366 597T348 558Q338 528 322 464L308 406H527L519 373H300L224 33H393L474 49V18L393 0H83L91 33H187L264 373H192L200 406H272L286 468Q299 523
310 555T340 619Q377 679 468 679Q523 679 576 671L596 668L589 638Z" />
<glyph unicode="&#xa4;" glyph-name="currency" horiz-adv-x="560" d="M398 82T338 82T230 120L160 49L134 75L205 145Q167 191 167 251T205 359L134 429L160 455L230 384Q276 422 337 422T444 384L514 455L540 429L469 359Q507 312 507 252T469 145L540 75L514
49L444 120Q398 82 338 82ZM281 119T337 119T432 157Q470 196 470 252T432 347Q393 385 337 385T242 347Q204 308 204 252T242 157Q281 119 337 119Z" />
<glyph unicode="&#xa5;" glyph-name="yen" horiz-adv-x="560" d="M143 332L151 365H313L195 661H233L356 350L622 661H668L412 365H569L562 332H384L367 312L345 216H535L527 183H337L294 0H259L301 183H108L116 216H308L331 314L326 332H143Z" />
<glyph unicode="&#xa6;" glyph-name="brokenbar" horiz-adv-x="306" d="M193 730H228V354H193V730ZM193 146H228V-230H193V146Z" />
<glyph unicode="&#xa7;" glyph-name="section" horiz-adv-x="459" d="M380 623Q303 623 263 583T222 476Q222 435 244 421T332 396Q463 375 463 295Q463 262 445 221T408 154L390 129Q407 109 407 79T397 19T365 -44T300 -99T201 -122Q143 -122 72 -112L45 -109L56
-73Q158 -87 209 -87Q282 -87 325 -37T368 66Q368 99 346 113T252 138T150 175T119 242T139 321T180 382L201 403Q181 432 181 474Q181 550 236 604T388 659Q432 659 509 649L532 646L522 610Q425 623 380 623ZM194 353T175 319T156 254T180 203T271 174T366 147Q428
230 428 286Q428 315 403 332T309 361T225 386Q217 378 206 366Z" />
<glyph unicode="&#xa8;" glyph-name="dieresis" horiz-adv-x="791" d="M260 633L275 698H304L289 633H260ZM435 633L448 698H477L462 633H435Z" />
<glyph unicode="&#xa9;" glyph-name="copyright" horiz-adv-x="646" d="M168 323T168 434T241 622T423 700T605 623T679 434T606 246T423 169T241 246ZM200 532T200 434T263 269T423 201T583 268T647 434T583 600T423 668T264 600ZM423 281Q361 281 338 319T314
433T337 548T423 587Q462 587 487 582L497 580L496 548Q455 555 423 555Q374 555 360 527T346 435T362 342T423 313L496 321L497 289Q454 281 423 281Z" />
<glyph unicode="&#xaa;" glyph-name="ordfeminine" horiz-adv-x="354" d="M215 386Q184 386 170 408Q161 422 161 437T164 466Q173 503 194 521T257 542L359 549L365 572Q368 586 368 598T362 619T328 629L223 622L227 651Q298 659 338 659Q402 659 402 606Q402
591 397 571L365 434Q371 418 396 413L388 386Q357 387 339 408Q271 386 215 386ZM195 445Q195 417 226 417Q266 417 316 430L332 435L352 520L257 514Q209 511 198 464Q195 453 195 445Z" />
<glyph unicode="&#xab;" glyph-name="guillemotleft" horiz-adv-x="422" d="M445 391L433 350L289 249L383 139L372 104L248 241L256 263L445 391ZM295 391L283 350L139 249L233 139L222 104L98 241L106 263L295 391Z" />
<glyph unicode="&#xac;" glyph-name="logicalnot" horiz-adv-x="560" d="M130 332H552V126H516V298H130V332Z" />
<glyph unicode="&#xae;" glyph-name="registered" horiz-adv-x="646" d="M168 323T168 434T241 622T423 700T605 623T679 434T606 246T423 169T241 246ZM200 532T200 434T263 269T423 201T583 268T647 434T583 600T423 668T264 600ZM353 402V286H321V581H414Q473
581 500 561T527 492Q527 420 468 405L533 286H497L434 402H353ZM353 550V433H433Q467 433 481 446T495 492T476 537T415 550H353Z" />
<glyph unicode="&#xaf;" glyph-name="overscore" horiz-adv-x="424" d="M237 647L243 673H496L489 647H237Z" />
<glyph unicode="&#xb0;" glyph-name="degree" horiz-adv-x="560" d="M275 512T275 573T312 671T411 709T509 672T547 573T510 475T411 438T313 475ZM309 620T309 573T337 498T411 470T486 498T515 573T487 648T412 677T337 649Z" />
<glyph unicode="&#xb1;" glyph-name="plusminus" horiz-adv-x="560" d="M105 308V342H307V480H343V342H547V308H343V164H307V308H105ZM105 84H547V50H105V84Z" />
<glyph unicode="&#xb2;" glyph-name="twosuperior" horiz-adv-x="280" d="M360 731Q360 765 313 765Q282 765 236 756L220 753L226 786Q281 799 323 799Q398 799 398 743Q398 695 363 654Q340 628 298 593L202 512H350L342 478H147L155 512L279 616Q360 683 360 731Z" />
<glyph unicode="&#xb3;" glyph-name="threesuperior" horiz-adv-x="280" d="M335 641Q378 627 378 595Q378 582 373 562Q350 469 249 469Q200 469 160 477L145 480L156 512Q208 503 258 503Q321 503 335 561Q338 574 338 584Q338 622 291 622H226L234 656H299Q317
656 338 675Q368 701 368 734Q368 747 360 756T325 765Q286 765 236 758L221 756L226 788Q282 799 329 799T391 784T407 751T403 719Q388 662 335 641Z" />
<glyph unicode="&#xb4;" glyph-name="acute" horiz-adv-x="537" d="M296 610L291 635L494 730L500 700L296 610Z" />
<glyph unicode="&#xb5;" glyph-name="mu" horiz-adv-x="560" d="M443 113Q345 -9 263 -9T153 52L88 -230H53L156 216L168 265L223 500H257L203 270H204L188 201Q178 151 178 111T201 47T256 24T318 39T370 76Q420 121 445 155L456 170L533 500H568L452 0H417L443 113Z" />
<glyph unicode="&#xb6;" glyph-name="paragraph" horiz-adv-x="551" d="M149 481Q149 561 213 630T370 700H679L672 664H580L422 0H388L546 664H403L244 0H210L295 349Q222 350 186 387T149 481Z" />
<glyph unicode="&#xb7;" glyph-name="middot" horiz-adv-x="182" d="M134 270L152 353H190L172 270H134Z" />
<glyph unicode="&#xb8;" glyph-name="cedilla" horiz-adv-x="791" d="M420 -53Q499 -53 499 -105Q499 -114 497 -124Q480 -199 402 -199L326 -195L334 -164Q375 -168 407 -168Q452 -168 463 -124Q465 -117 465 -110Q465 -83 428 -83H377L398 5H430L415 -53H420Z" />
<glyph unicode="&#xb9;" glyph-name="onesuperior" horiz-adv-x="280" d="M211 723L326 790H362L285 478H249L317 751L221 695L211 723Z" />
<glyph unicode="&#xba;" glyph-name="ordmasculine" horiz-adv-x="339" d="M321 658Q406 658 406 580Q406 552 398 515Q369 383 257 383Q171 383 171 466Q171 493 178 522Q196 595 229 626T321 658ZM264 419Q305 419 328 442T364 522Q370 547 370 573T357 611T309
622T250 600T213 522Q206 494 206 472Q206 419 264 419Z" />
<glyph unicode="&#xbb;" glyph-name="guillemotright" horiz-adv-x="484" d="M304 104L316 145L460 246L366 356L377 391L501 254L493 232L304 104ZM92 104L104 145L248 246L154 356L165 391L289 254L281 232L92 104Z" />
<glyph unicode="&#xbc;" glyph-name="onequarter" horiz-adv-x="567" d="M191 723L306 790H342L265 478H229L297 751L201 695L191 723ZM145 -1L112 12L537 700L570 686L145 -1ZM463 0L477 57H331L339 89L483 312H523L381 91H485L507 178H543L521 91H558L550 57H513L499
0H463Z" />
<glyph unicode="&#xbd;" glyph-name="onehalf" horiz-adv-x="597" d="M191 723L306 790H342L265 478H229L297 751L201 695L191 723ZM145 -1L112 12L537 700L570 686L145 -1ZM573 252Q573 287 526 287Q495 287 448 278L433 275L439 308Q494 321 536 321Q611 321
611 265Q611 217 576 176Q553 150 511 115L415 34H563L555 0H360L368 34L492 138Q573 205 573 252Z" />
<glyph unicode="&#xbe;" glyph-name="threequarters" horiz-adv-x="594" d="M174 -1L141 12L566 700L599 686L174 -1ZM342 641Q385 627 385 595Q385 582 380 562Q357 469 256 469Q207 469 167 477L152 480L163 512Q215 503 265 503Q328 503 342 561Q345 574 345
584Q345 622 298 622H233L241 656H306Q324 656 346 675Q375 701 375 734Q375 747 367 756T332 765Q293 765 242 758L228 756L233 788Q289 799 336 799T398 784T414 751T410 719Q395 664 342 641ZM492 0L506 57H360L368 89L512 312H552L410 91H514L536 178H572L550
91H587L579 57H542L528 0H492Z" />
<glyph unicode="&#xbf;" glyph-name="questiondown" horiz-adv-x="391" d="M104 -208T63 -181T21 -98T38 -6T86 61T194 155T282 274L290 313H324Q322 291 318 270Q304 200 211 125T89 10T59 -94Q59 -174 179 -174Q226 -174 300 -158L324 -152V-184Q237 -208 171
-208ZM358 500L341 418H304L322 500H358Z" />
<glyph unicode="&#xc0;" glyph-name="Agrave" horiz-adv-x="556" d="M350 917L510 820L495 798L333 890L350 917ZM32 0L403 700H492L530 0H494L482 216H183L69 0H32ZM423 667L201 248H480L459 667H423Z" />
<glyph unicode="&#xc1;" glyph-name="Aacute" horiz-adv-x="556" d="M411 798L403 823L607 919L616 890L411 798ZM32 0L403 700H492L530 0H494L482 216H183L69 0H32ZM423 667L201 248H480L459 667H423Z" />
<glyph unicode="&#xc2;" glyph-name="Acircumflex" horiz-adv-x="556" d="M324 803L480 931H494L591 803H557L484 900L365 803H324ZM32 0L403 700H492L530 0H494L482 216H183L69 0H32ZM423 667L201 248H480L459 667H423Z" />
<glyph unicode="&#xc3;" glyph-name="Atilde" horiz-adv-x="556" d="M629 877Q566 820 542 820T467 852T405 884Q387 884 332 842L314 829L313 857Q379 914 405 914T482 883T543 851Q562 851 609 889L625 902L629 877ZM32 0L403 700H492L530 0H494L482 216H183L69
0H32ZM423 667L201 248H480L459 667H423Z" />
<glyph unicode="&#xc4;" glyph-name="Adieresis" horiz-adv-x="556" d="M363 831L377 897H407L390 831H363ZM542 831L558 897H587L571 831H542ZM32 0L403 700H492L530 0H494L482 216H183L69 0H32ZM423 667L201 248H480L459 667H423Z" />
<glyph unicode="&#xc5;" glyph-name="Aring" horiz-adv-x="556" d="M368 725Q368 738 373 755Q397 844 481 844Q521 844 539 822Q550 808 550 790T546 755Q532 702 493 680L530 0H494L482 216H183L69 0H32L392 679Q368 694 368 725ZM459 667H423L201 248H480L459
667ZM522 773Q522 815 474 815Q414 815 399 755Q397 745 397 736Q397 709 420 700H473Q509 712 520 755Q522 765 522 773Z" />
<glyph unicode="&#xc6;" glyph-name="AE" horiz-adv-x="797" d="M372 0L421 215H181L67 0H32L402 700H913L907 667L564 669L493 376H780L774 343H487L414 33H755L749 0H372ZM418 667L197 247H428L530 667H418Z" />
<glyph unicode="&#xc7;" glyph-name="Ccedilla" horiz-adv-x="510" d="M298 -53Q377 -53 377 -105Q377 -114 375 -124Q358 -199 280 -199L204 -195L212 -164Q253 -168 285 -168Q330 -168 341 -124Q343 -117 343 -110Q343 -83 306 -83H255L273 -7Q121 9 121 190Q121
333 176 465Q238 615 342 676Q401 709 469 709Q543 709 608 695L632 690L624 658Q537 675 465 675T332 628T234 506Q159 353 159 190Q159 105 195 65T311 25Q387 25 451 39L474 44L473 11Q386 -9 306 -9H304L293 -53H298Z" />
<glyph unicode="&#xc8;" glyph-name="Egrave" horiz-adv-x="510" d="M391 917L551 820L536 798L374 890L391 917ZM86 0L248 700H625L617 667H276L209 376H494L486 343H201L130 33H471L463 0H86Z" />
<glyph unicode="&#xc9;" glyph-name="Eacute" horiz-adv-x="510" d="M395 798L387 823L591 919L600 890L395 798ZM86 0L248 700H625L617 667H276L209 376H494L486 343H201L130 33H471L463 0H86Z" />
<glyph unicode="&#xca;" glyph-name="Ecircumflex" horiz-adv-x="510" d="M397 798L553 926H567L664 798H630L557 895L438 798H397ZM86 0L248 700H625L617 667H276L209 376H494L486 343H201L130 33H471L463 0H86Z" />
<glyph unicode="&#xcb;" glyph-name="Edieresis" horiz-adv-x="510" d="M362 831L376 897H406L389 831H362ZM541 831L557 897H586L570 831H541ZM86 0L248 700H625L617 667H276L209 376H494L486 343H201L130 33H471L463 0H86Z" />
<glyph unicode="&#xcc;" glyph-name="Igrave" horiz-adv-x="208" d="M170 917L330 820L315 798L153 890L170 917ZM86 0L248 700H284L122 0H86Z" />
<glyph unicode="&#xcd;" glyph-name="Iacute" horiz-adv-x="208" d="M245 798L237 823L441 919L450 890L245 798ZM86 0L248 700H284L122 0H86Z" />
<glyph unicode="&#xce;" glyph-name="Icircumflex" horiz-adv-x="208" d="M151 798L307 926H321L418 798H384L311 895L192 798H151ZM86 0L248 700H284L122 0H86Z" />
<glyph unicode="&#xcf;" glyph-name="Idieresis" horiz-adv-x="208" d="M183 831L197 897H227L210 831H183ZM362 831L378 897H407L391 831H362ZM86 0L248 700H284L122 0H86Z" />
<glyph unicode="&#xd0;" glyph-name="Eth" horiz-adv-x="610" d="M325 0H88L165 332H89L96 370H174L250 700H478Q569 700 608 650T648 508T628 332T571 173T469 49T325 0ZM573 265T591 344T610 504T579 626T471 667H278L210 370H372L363 332H201L133 33H334Q398
33 452 78T539 194Z" />
<glyph unicode="&#xd1;" glyph-name="Ntilde" horiz-adv-x="617" d="M665 875Q602 818 578 818T503 850T441 882Q423 882 368 840L350 827L349 855Q415 912 441 912T518 881T579 849Q598 849 645 887L661 900L665 875ZM86 0L248 700H329L479 33H503L657 700H693L531
0H452L301 667H276L122 0H86Z" />
<glyph unicode="&#xd2;" glyph-name="Ograve" horiz-adv-x="636" d="M424 917L584 820L569 798L407 890L424 917ZM159 102T198 63T323 24T469 69Q550 130 593 253T636 504Q636 593 594 634T474 676T336 633Q253 572 206 445T159 196Q159 102 198 63ZM674 369T631
246T509 57T324 -9T170 37T122 203T164 443T285 636T466 709T622 659T674 503Q674 369 631 246Z" />
<glyph unicode="&#xd3;" glyph-name="Oacute" horiz-adv-x="636" d="M159 102T198 63T323 24T469 69Q550 130 593 253T636 504Q636 593 594 634T474 676T336 633Q253 572 206 445T159 196Q159 102 198 63ZM674 369T631 246T509 57T324 -9T170 37T122 203T164 443T285
636T466 709T622 659T674 503Q674 369 631 246ZM449 798L441 823L645 919L654 890L449 798Z" />
<glyph unicode="&#xd4;" glyph-name="Ocircumflex" horiz-adv-x="636" d="M159 102T198 63T323 24T469 69Q550 130 593 253T636 504Q636 593 594 634T474 676T336 633Q253 572 206 445T159 196Q159 102 198 63ZM674 369T631 246T509 57T324 -9T170 37T122 203T164
443T285 636T466 709T622 659T674 503Q674 369 631 246ZM372 803L528 931H542L639 803H605L532 900L413 803H372Z" />
<glyph unicode="&#xd5;" glyph-name="Otilde" horiz-adv-x="636" d="M682 875Q619 818 595 818T520 850T458 882Q440 882 385 840L367 827L366 855Q432 912 458 912T535 881T596 849Q615 849 662 887L678 900L682 875ZM159 102T198 63T323 24T469 69Q550 130 593
253T636 504Q636 593 594 634T474 676T336 633Q253 572 206 445T159 196Q159 102 198 63ZM674 369T631 246T509 57T324 -9T170 37T122 203T164 443T285 636T466 709T622 659T674 503Q674 369 631 246Z" />
<glyph unicode="&#xd6;" glyph-name="Odieresis" horiz-adv-x="636" d="M404 833L419 898H453L438 833H404ZM584 833L597 898H631L616 833H584ZM159 102T198 63T323 24T469 69Q550 130 593 253T636 504Q636 593 594 634T474 676T336 633Q253 572 206 445T159 196Q159
102 198 63ZM674 369T631 246T509 57T324 -9T170 37T122 203T164 443T285 636T466 709T622 659T674 503Q674 369 631 246Z" />
<glyph unicode="&#xd7;" glyph-name="multiply" horiz-adv-x="560" d="M162 450L337 274L512 450L536 426L360 251L536 76L512 52L337 228L162 52L138 76L314 251L138 426L162 450Z" />
<glyph unicode="&#xd8;" glyph-name="Oslash" horiz-adv-x="636" d="M169 38Q122 85 122 204T164 443T285 636T457 709T602 674L682 791L712 777L627 653Q674 601 674 503Q674 369 631 246T509 57T337 -9T194 19L106 -110L79 -94L169 38ZM582 644Q539 676 467
676T336 633Q253 572 206 445T159 196Q159 112 191 71L582 644ZM215 50Q255 24 331 24T469 69Q550 130 593 253T636 504Q636 580 605 621L409 332L215 50Z" />
<glyph unicode="&#xd9;" glyph-name="Ugrave" horiz-adv-x="593" d="M395 917L555 820L540 798L378 890L395 917ZM155 130Q155 25 313 25Q403 25 452 67T521 198L637 700H673L557 197Q533 93 476 42T320 -9Q119 -9 119 129Q119 167 129 207L243 700H279L165 207Q155
165 155 130Z" />
<glyph unicode="&#xda;" glyph-name="Uacute" horiz-adv-x="593" d="M155 130Q155 25 313 25Q403 25 452 67T521 198L637 700H673L557 197Q533 93 476 42T320 -9Q119 -9 119 129Q119 167 129 207L243 700H279L165 207Q155 165 155 130ZM402 798L394 823L598 919L607
890L402 798Z" />
<glyph unicode="&#xdb;" glyph-name="Ucircumflex" horiz-adv-x="593" d="M155 130Q155 25 313 25Q403 25 452 67T521 198L637 700H673L557 197Q533 93 476 42T320 -9Q119 -9 119 129Q119 167 129 207L243 700H279L165 207Q155 165 155 130ZM340 803L496 931H510L607
803H573L500 900L381 803H340Z" />
<glyph unicode="&#xdc;" glyph-name="Udieresis" horiz-adv-x="593" d="M371 833L386 898H420L405 833H371ZM551 833L564 898H598L583 833H551ZM155 130Q155 25 313 25Q403 25 452 67T521 198L637 700H673L557 197Q533 93 476 42T320 -9Q119 -9 119 129Q119 167
129 207L243 700H279L165 207Q155 165 155 130Z" />
<glyph unicode="&#xdd;" glyph-name="Yacute" horiz-adv-x="485" d="M344 798L336 823L540 919L549 890L344 798ZM627 700L326 301L256 0H220L291 308L178 700H214L317 339L587 700H627Z" />
<glyph unicode="&#xde;" glyph-name="Thorn" horiz-adv-x="556" d="M361 166Q509 166 560 367Q570 406 570 437Q570 547 444 547H250L160 166H361ZM353 134H152L121 0H85L249 700H285L257 579H452Q606 579 606 441Q606 408 597 367Q574 261 513 198T353 134Z" />
<glyph unicode="&#xdf;" glyph-name="germandbls" horiz-adv-x="522" d="M403 739Q544 739 544 635Q544 575 518 538T445 477T383 438T366 404T377 371T437 328T505 275T524 203Q524 106 465 49T297 -9Q258 -9 210 2L194 5L199 37Q262 23 301 23Q388 23 438 71T488
202Q488 238 472 258T408 307T346 355T331 403T350 452T430 505Q508 547 508 630Q508 670 484 688T393 707T290 668T231 532L107 0H73L198 535Q224 647 270 693T403 739Z" />
<glyph unicode="&#xe0;" glyph-name="agrave" horiz-adv-x="482" d="M215 -9Q95 -9 95 118Q95 206 123 294T210 445T345 509Q396 509 489 494L520 489L444 163Q433 117 419 28L415 1L382 -1Q399 103 404 126Q400 121 393 112T365 79T322 38T271 6T215 -9ZM479
462Q406 477 343 477T229 417T155 276T132 118Q132 71 153 48T222 24Q276 24 369 126Q390 149 402 166L414 182L479 462ZM330 721L490 626L472 604L312 696L330 721Z" />
<glyph unicode="&#xe1;" glyph-name="aacute" horiz-adv-x="482" d="M215 -9Q95 -9 95 118Q95 206 123 294T210 445T345 509Q396 509 489 494L520 489L444 163Q433 117 419 28L415 1L382 -1Q399 103 404 126Q400 121 393 112T365 79T322 38T271 6T215 -9ZM479
462Q406 477 343 477T229 417T155 276T132 118Q132 71 153 48T222 24Q276 24 369 126Q390 149 402 166L414 182L479 462ZM343 610L338 635L541 730L547 700L343 610Z" />
<glyph unicode="&#xe2;" glyph-name="acircumflex" horiz-adv-x="482" d="M260 595L406 730H428L515 595H477L413 696L303 595H260ZM215 -9Q95 -9 95 118Q95 206 123 294T210 445T345 509Q396 509 489 494L520 489L444 163Q433 117 419 28L415 1L382 -1Q399 103
404 126Q400 121 393 112T365 79T322 38T271 6T215 -9ZM479 462Q406 477 343 477T229 417T155 276T132 118Q132 71 153 48T222 24Q276 24 369 126Q390 149 402 166L414 182L479 462Z" />
<glyph unicode="&#xe3;" glyph-name="atilde" horiz-adv-x="482" d="M215 -9Q95 -9 95 118Q95 206 123 294T210 445T345 509Q396 509 489 494L520 489L444 163Q433 117 419 28L415 1L382 -1Q399 103 404 126Q400 121 393 112T365 79T322 38T271 6T215 -9ZM479
462Q406 477 343 477T229 417T155 276T132 118Q132 71 153 48T222 24Q276 24 369 126Q390 149 402 166L414 182L479 462ZM480 630Q462 630 414 655T356 681Q338 681 292 647L277 636L275 667Q333 713 363 713Q382 713 428 688T484 662Q503 662 541 692L554 703L559
673Q509 630 480 630Z" />
<glyph unicode="&#xe4;" glyph-name="adieresis" horiz-adv-x="482" d="M282 633L297 698H331L316 633H282ZM462 633L475 698H509L494 633H462ZM215 -9Q95 -9 95 118Q95 206 123 294T210 445T345 509Q396 509 489 494L520 489L444 163Q433 117 419 28L415 1L382
-1Q399 103 404 126Q400 121 393 112T365 79T322 38T271 6T215 -9ZM479 462Q406 477 343 477T229 417T155 276T132 118Q132 71 153 48T222 24Q276 24 369 126Q390 149 402 166L414 182L479 462Z" />
<glyph unicode="&#xe5;" glyph-name="aring" horiz-adv-x="482" d="M215 -9Q95 -9 95 118Q95 206 123 294T210 445T345 509Q396 509 489 494L520 489L444 163Q433 117 419 28L415 1L382 -1Q399 103 404 126Q400 121 393 112T365 79T322 38T271 6T215 -9ZM479 462Q406
477 343 477T229 417T155 276T132 118Q132 71 153 48T222 24Q276 24 369 126Q390 149 402 166L414 182L479 462ZM404 576Q338 576 338 642Q338 697 372 727T448 758Q513 758 513 688Q513 641 481 609T404 576ZM368 667Q366 659 366 648T376 621T411 605T456 623Q485
648 485 682Q485 696 475 711T441 727T395 710T368 667Z" />
<glyph unicode="&#xe6;" glyph-name="ae" horiz-adv-x="772" d="M408 49Q261 -9 165 -9T69 94Q69 114 73 138Q86 208 132 239T262 283T421 301Q441 369 441 385T440 412T432 439Q418 471 362 471Q316 471 212 464L183 462L189 499Q295 509 370 509Q416 509 446
484T477 414Q542 509 664 509Q801 509 801 373Q801 322 787 269L778 234L448 236Q433 169 433 124Q433 27 537 27Q609 27 684 34L712 36L705 0Q597 -9 529 -9Q437 -9 408 49ZM109 100Q109 27 173 27Q252 27 399 81Q392 118 394 141T397 172T401 196T406 218Q408
243 416 266Q288 252 238 244T157 211T114 138Q109 118 109 100ZM749 268Q765 326 765 374Q765 473 656 473Q581 473 531 425T455 270L749 268Z" />
<glyph unicode="&#xe7;" glyph-name="ccedilla" horiz-adv-x="403" d="M233 -53Q312 -53 312 -105Q312 -114 310 -124Q293 -199 215 -199L139 -195L147 -164Q188 -168 220 -168Q265 -168 276 -124Q278 -117 278 -110Q278 -83 241 -83H190L208 -6Q99 10 99 129Q99
347 215 452Q277 509 363 509Q411 509 456 501L472 498L463 467Q406 477 363 477Q288 477 235 426Q136 329 136 132Q136 78 164 51T257 23Q294 23 352 37L372 42V10Q305 -9 249 -9H239L228 -53H233Z" />
<glyph unicode="&#xe8;" glyph-name="egrave" horiz-adv-x="452" d="M134 84T163 55T236 25Q310 25 385 47L409 54V21Q323 -9 237 -9Q173 -9 135 27T97 130T113 261T161 382T245 474T364 509Q494 509 494 406Q494 321 425 286T212 250H149Q134 190 134 137ZM221
282Q344 282 401 308T458 406T363 477Q217 477 156 282H221ZM256 721L416 626L398 604L238 696L256 721Z" />
<glyph unicode="&#xe9;" glyph-name="eacute" horiz-adv-x="452" d="M134 84T163 55T236 25Q310 25 385 47L409 54V21Q323 -9 237 -9Q173 -9 135 27T97 130T113 261T161 382T245 474T364 509Q494 509 494 406Q494 321 425 286T212 250H149Q134 190 134 137ZM221
282Q344 282 401 308T458 406T363 477Q217 477 156 282H221ZM313 610L308 635L511 730L517 700L313 610Z" />
<glyph unicode="&#xea;" glyph-name="ecircumflex" horiz-adv-x="452" d="M243 595L389 730H411L498 595H460L396 696L286 595H243ZM134 84T163 55T236 25Q310 25 385 47L409 54V21Q323 -9 237 -9Q173 -9 135 27T97 130T113 261T161 382T245 474T364 509Q494 509
494 406Q494 321 425 286T212 250H149Q134 190 134 137ZM221 282Q344 282 401 308T458 406T363 477Q217 477 156 282H221Z" />
<glyph unicode="&#xeb;" glyph-name="edieresis" horiz-adv-x="452" d="M281 633L296 698H330L315 633H281ZM461 633L474 698H508L493 633H461ZM134 84T163 55T236 25Q310 25 385 47L409 54V21Q323 -9 237 -9Q173 -9 135 27T97 130T113 261T161 382T245 474T364
509Q494 509 494 406Q494 321 425 286T212 250H149Q134 190 134 137ZM221 282Q344 282 401 308T458 406T363 477Q217 477 156 282H221Z" />
<glyph unicode="&#xec;" glyph-name="igrave" horiz-adv-x="182" d="M73 0L189 500H224L108 0H73ZM98 721L258 626L240 604L80 696L98 721Z" />
<glyph unicode="&#xed;" glyph-name="iacute" horiz-adv-x="182" d="M73 0L189 500H224L108 0H73ZM202 610L197 635L400 730L406 700L202 610Z" />
<glyph unicode="&#xee;" glyph-name="icircumflex" horiz-adv-x="182" d="M94 595L240 730H262L349 595H311L247 696L137 595H94ZM73 0L189 500H224L108 0H73Z" />
<glyph unicode="&#xef;" glyph-name="idieresis" horiz-adv-x="182" d="M113 633L128 698H162L147 633H113ZM293 633L306 698H340L325 633H293ZM73 0L189 500H224L108 0H73Z" />
<glyph unicode="&#xf0;" glyph-name="eth" horiz-adv-x="510" d="M548 442Q548 403 538 360Q492 165 420 78T247 -9Q162 -9 123 31T83 135Q83 266 158 346T338 426Q371 426 413 415T480 393L506 382Q511 409 511 435Q511 554 410 631L282 554L266 582L380 651Q331
681 270 702L289 736Q364 711 417 674L529 742L545 713L445 653Q548 568 548 442ZM332 388Q244 388 184 316T123 139Q123 89 156 59T255 29Q418 29 498 343Q461 361 412 374T332 388Z" />
<glyph unicode="&#xf1;" glyph-name="ntilde" horiz-adv-x="488" d="M352 476T323 460T271 425T224 378T185 330L108 0H73L189 500H224L198 387L208 400Q230 429 275 466Q297 484 326 496T383 509Q437 509 467 478T498 396T479 260L418 0H384L444 258Q463 336
463 383T441 453T386 476ZM462 630Q444 630 396 655T338 681Q320 681 274 647L259 636L257 667Q315 713 345 713Q364 713 410 688T466 662Q485 662 523 692L536 703L541 673Q491 630 462 630Z" />
<glyph unicode="&#xf2;" glyph-name="ograve" horiz-adv-x="493" d="M349 509Q507 509 507 352Q507 198 436 95T252 -9Q99 -9 99 139Q99 295 171 402T349 509ZM252 23Q349 23 410 118T471 352Q471 409 441 443T349 477Q256 477 196 378T135 139Q135 23 252 23ZM283
721L443 626L425 604L265 696L283 721Z" />
<glyph unicode="&#xf3;" glyph-name="oacute" horiz-adv-x="493" d="M349 509Q507 509 507 352Q507 198 436 95T252 -9Q99 -9 99 139Q99 295 171 402T349 509ZM252 23Q349 23 410 118T471 352Q471 409 441 443T349 477Q256 477 196 378T135 139Q135 23 252 23ZM315
610L310 635L513 730L519 700L315 610Z" />
<glyph unicode="&#xf4;" glyph-name="ocircumflex" horiz-adv-x="493" d="M259 595L405 730H427L514 595H476L412 696L302 595H259ZM349 509Q507 509 507 352Q507 198 436 95T252 -9Q99 -9 99 139Q99 295 171 402T349 509ZM252 23Q349 23 410 118T471 352Q471
409 441 443T349 477Q256 477 196 378T135 139Q135 23 252 23Z" />
<glyph unicode="&#xf5;" glyph-name="otilde" horiz-adv-x="493" d="M349 509Q507 509 507 352Q507 198 436 95T252 -9Q99 -9 99 139Q99 295 171 402T349 509ZM252 23Q349 23 410 118T471 352Q471 409 441 443T349 477Q256 477 196 378T135 139Q135 23 252 23ZM454
630Q436 630 388 655T330 681Q312 681 266 647L251 636L249 667Q307 713 337 713Q356 713 402 688T458 662Q477 662 515 692L528 703L533 673Q483 630 454 630Z" />
<glyph unicode="&#xf6;" glyph-name="odieresis" horiz-adv-x="493" d="M349 509Q507 509 507 352Q507 198 436 95T252 -9Q99 -9 99 139Q99 295 171 402T349 509ZM252 23Q349 23 410 118T471 352Q471 409 441 443T349 477Q256 477 196 378T135 139Q135 23 252
23ZM285 633L300 698H329L314 633H285ZM460 633L473 698H502L487 633H460Z" />
<glyph unicode="&#xf7;" glyph-name="divide" horiz-adv-x="560" d="M116 234V268H560V234H116ZM319 383V463H357V383H319ZM319 39V119H357V39H319Z" />
<glyph unicode="&#xf8;" glyph-name="oslash" horiz-adv-x="492" d="M350 511Q400 511 436 494L505 604L532 592L460 478Q508 439 508 354Q508 200 437 97T253 -7Q203 -7 166 9L90 -113L63 -102L142 24Q100 60 100 141Q100 297 172 404T350 511ZM253 25Q350 25
411 120T472 354Q472 412 440 446L185 40Q212 25 253 25ZM350 479Q257 479 197 380T136 141Q136 86 163 57L288 255L417 463Q388 479 350 479Z" />
<glyph unicode="&#xf9;" glyph-name="ugrave" horiz-adv-x="488" d="M284 721L444 626L426 604L266 696L284 721ZM405 113Q307 -9 220 -9Q167 -9 136 22T105 104T124 240L185 500H219L159 242Q140 164 140 117T163 47T218 24T280 39T332 76Q382 121 407 155L418
170L495 500H530L414 0H379L405 113Z" />
<glyph unicode="&#xfa;" glyph-name="uacute" horiz-adv-x="488" d="M405 113Q307 -9 220 -9Q167 -9 136 22T105 104T124 240L185 500H219L159 242Q140 164 140 117T163 47T218 24T280 39T332 76Q382 121 407 155L418 170L495 500H530L414 0H379L405 113ZM330
610L325 635L528 730L534 700L330 610Z" />
<glyph unicode="&#xfb;" glyph-name="ucircumflex" horiz-adv-x="488" d="M235 595L381 730H403L490 595H452L388 696L278 595H235ZM405 113Q307 -9 220 -9Q167 -9 136 22T105 104T124 240L185 500H219L159 242Q140 164 140 117T163 47T218 24T280 39T332 76Q382
121 407 155L418 170L495 500H530L414 0H379L405 113Z" />
<glyph unicode="&#xfc;" glyph-name="udieresis" horiz-adv-x="488" d="M270 633L285 698H319L304 633H270ZM450 633L463 698H497L482 633H450ZM405 113Q307 -9 220 -9Q167 -9 136 22T105 104T124 240L185 500H219L159 242Q140 164 140 117T163 47T218 24T280
39T332 76Q382 121 407 155L418 170L495 500H530L414 0H379L405 113Z" />
<glyph unicode="&#xfd;" glyph-name="yacute" horiz-adv-x="448" d="M147 500H183L206 32H246L494 500H532L145 -228H107L230 0H172L147 500ZM300 610L295 635L498 730L504 700L300 610Z" />
<glyph unicode="&#xfe;" glyph-name="thorn" horiz-adv-x="475" d="M378 509Q496 509 496 360Q496 311 482 260Q445 123 385 57T221 -9Q168 -9 138 -4T107 3L52 -228H19L245 728H279L209 438Q247 469 295 489T378 509ZM448 261Q460 302 460 336T455 400T428 451T377
473T322 465T274 444Q231 421 208 402L198 395L114 39L227 27Q315 27 364 81T448 261Z" />
<glyph unicode="&#xff;" glyph-name="ydieresis" horiz-adv-x="448" d="M248 633L263 698H297L282 633H248ZM428 633L441 698H475L460 633H428ZM147 500H183L206 32H246L494 500H532L145 -228H107L230 0H172L147 500Z" />
<glyph unicode="&#x2013;" glyph-name="endash" horiz-adv-x="640" d="M132 286H632V252H132V286Z" />
<glyph unicode="&#x2014;" glyph-name="emdash" horiz-adv-x="1140" d="M132 286H1132V252H132V286Z" />
<glyph unicode="&#x2018;" glyph-name="quoteleft" horiz-adv-x="185" d="M264 700H291L209 498H171L264 700Z" />
<glyph unicode="&#x2019;" glyph-name="quoteright" horiz-adv-x="185" d="M201 498H174L256 700H294L201 498Z" />
<glyph unicode="&#x201a;" glyph-name="quotesinglbase" horiz-adv-x="187" d="M47 -114H20L102 88H140L47 -114Z" />
<glyph unicode="&#x201c;" glyph-name="quotedblleft" horiz-adv-x="322" d="M264 700H291L209 498H171L264 700ZM401 700H428L346 498H308L401 700Z" />
<glyph unicode="&#x201d;" glyph-name="quotedblright" horiz-adv-x="322" d="M201 498H174L256 700H294L201 498ZM338 498H311L393 700H431L338 498Z" />
<glyph unicode="&#x201e;" glyph-name="quotedblbase" horiz-adv-x="310" d="M236 90H263L181 -112H143L236 90ZM106 90H133L51 -112H13L106 90Z" />
<glyph unicode="&#x2022;" glyph-name="bullet" horiz-adv-x="503" d="M185 110V400H435V110H185Z" />
<glyph unicode="&#x2039;" glyph-name="guilsinglleft" horiz-adv-x="272" d="M295 391L283 350L139 249L233 139L222 104L98 241L106 263L295 391Z" />
<glyph unicode="&#x203a;" glyph-name="guilsinglright" horiz-adv-x="272" d="M92 104L104 145L248 246L154 356L165 391L289 254L281 232L92 104Z" />
</font>
</defs>
</svg>
