<?xml version="1.0" standalone="no"?>
<!DOCTYPE svg PUBLIC "-//W3C//DTD SVG 1.1//EN" "http://www.w3.org/Graphics/SVG/1.1/DTD/svg11.dtd">
<svg xmlns="http://www.w3.org/2000/svg">
<defs >
<font id="Economica" horiz-adv-x="308" ><font-face
    font-family="Economica"
    units-per-em="1000"
    panose-1="2 0 8 6 6 0 0 9 0 4"
    ascent="949"
    descent="-200"
    alphabetic="0" />
<glyph unicode=" " glyph-name="space" horiz-adv-x="190" />
<glyph unicode="!" glyph-name="exclam" horiz-adv-x="161" d="M115 117T129 103T144 65T125 23T81 4T43 18T28 54T48 97T91 117ZM121 176L75 178L158 661Q163 693 174 703T212 713L263 711L169 229Q163 196 155 186T121 176Z" />
<glyph unicode="&quot;" glyph-name="quotedbl" horiz-adv-x="332" d="M153 617Q153 625 148 640T142 664Q142 686 163 704T207 722T244 708T258 675T236 609T192 520T168 478L131 505L126 522Q153 581 153 617ZM289 617L279 664Q279 686 300 704T343 722T380
708T394 675T372 609T328 520T304 478L268 505L263 522Q289 579 289 617Z" />
<glyph unicode="#" glyph-name="numbersign" horiz-adv-x="655" d="M617 226H448L323 0H226L351 226H246L121 0H24L149 226H50L63 314H199L259 421H122L135 509H309L427 722H524L404 509H510L629 722H725L606 509H703L689 421H558L497 314H631L617 226ZM400 314L461
421H356L295 314H400Z" />
<glyph unicode="$" glyph-name="dollar" horiz-adv-x="392" d="M144 -102T144 -98T156 -6Q105 0 62 12L72 82Q86 81 129 77T192 72Q259 72 259 170Q259 198 185 259Q157 282 134 316T111 383Q111 526 238 542L252 626Q296 626 308 622T320 595L314 534L373 527Q361
457 317 457Q309 457 267 465Q196 464 196 394Q196 365 274 304Q303 282 327 249T352 185Q352 118 321 66T233 -2L213 -115Q154 -115 149 -109Z" />
<glyph unicode="%" glyph-name="percent" horiz-adv-x="611" d="M205 393Q159 393 139 412T119 486Q119 605 157 665T248 725T322 709T343 640Q343 531 307 462T205 393ZM213 467Q229 467 241 486T258 534Q269 588 269 615T264 647T246 652Q224 652 210 620Q191
574 191 500Q191 467 213 467ZM523 43T494 18T420 -7T356 12T336 86Q336 197 369 261T470 326Q518 326 538 310T559 247T554 164T536 85ZM409 80T414 74T432 67T458 86T476 133Q486 186 486 214T481 247T464 252Q409 252 409 98Q409 80 414 74ZM196 14H99L502 736H599L196
14Z" />
<glyph unicode="&amp;" glyph-name="ampersand" horiz-adv-x="536" d="M384 613L339 611H303Q222 611 222 474Q222 445 239 438T300 431L286 347Q235 347 195 297T154 164Q154 75 242 75Q298 75 328 109T371 212L392 339L395 347H346L359 426H407V438L416 492Q454
492 468 490Q498 487 498 456Q498 443 494 426H568Q560 373 549 360T495 347H481V335L460 208Q442 99 389 46T241 -7T105 32T64 150Q64 308 171 390Q134 425 134 482T151 584T196 651Q250 692 312 692L440 683Q432 635 425 626T387 613H384Z" />
<glyph unicode="&apos;" glyph-name="quotesingle" horiz-adv-x="165" d="M101 522Q143 616 143 648T161 701T205 722T245 708T259 671T204 564T142 478L105 505L101 522Z" />
<glyph unicode="(" glyph-name="parenleft" horiz-adv-x="248" d="M128 -106T90 -70T52 42T59 202T85 388T132 573T207 712T314 768Q336 768 363 760Q353 706 344 697T291 687Q254 687 216 545T158 252T137 34T174 -33T222 -38T233 -60T225 -106Q128 -106 90 -70Z" />
<glyph unicode=")" glyph-name="parenright" horiz-adv-x="249" d="M112 715L116 760Q213 760 252 722T291 597Q291 486 277 365T243 168T198 27T132 -76T42 -115Q18 -115 -9 -106Q-1 -52 8 -43T62 -33Q99 -33 134 102T187 387T206 611T170 687T123 692T112 715Z" />
<glyph unicode="*" glyph-name="asterisk" horiz-adv-x="302" d="M325 501L252 463L229 525L190 465L126 506L170 556H103L117 628H188L156 689L228 727L251 666L290 726L354 686L308 633H374L363 561H292L325 501Z" />
<glyph unicode="+" glyph-name="plus" horiz-adv-x="243" d="M278 284H194L198 266L184 196H107L121 268L129 284H47L59 361H142L138 380L152 448H229L215 380L207 361H290L278 284Z" />
<glyph unicode="," glyph-name="comma" horiz-adv-x="154" d="M40 22L39 55Q39 78 59 96T103 115Q151 115 151 71Q151 50 100 -29T41 -108L10 -89L5 -70Q40 -11 40 22Z" />
<glyph unicode="-" glyph-name="hyphen" horiz-adv-x="336" d="M322 284H91L102 361H333L322 284Z" />
<glyph unicode="." glyph-name="period" horiz-adv-x="177" d="M151 39T132 20T88 0T50 15T35 52T54 95T98 115T136 101T151 63Z" />
<glyph unicode="/" glyph-name="slash" horiz-adv-x="372" d="M54 -189H-37L392 722H485L54 -189Z" />
<glyph unicode="0" glyph-name="zero" horiz-adv-x="410" d="M194 -7Q124 -7 92 27T60 140T73 316T114 506T191 661T308 722Q439 722 439 586Q439 441 404 290Q362 110 288 36Q245 -7 194 -7ZM205 84Q241 84 276 178T329 382T348 561Q348 596 334 614T295 632Q257
632 222 539T169 337T151 157Q151 122 165 103T205 84Z" />
<glyph unicode="1" glyph-name="one" horiz-adv-x="410" d="M349 679Q349 679 257 84H375L362 0H60L74 84H168L254 629L194 619L205 699L278 710H284Q326 710 337 706T349 679Z" />
<glyph unicode="2" glyph-name="two" horiz-adv-x="410" d="M346 598Q346 619 330 629T271 639H223Q186 639 176 643T165 668T173 711L284 722Q376 722 409 698T443 621Q443 537 405 477T281 338T187 222L166 95L160 82H361L348 0H60L97 233Q106 282 140 324T222
409T288 469T326 524T346 598Z" />
<glyph unicode="3" glyph-name="three" horiz-adv-x="410" d="M195 72Q226 72 248 132Q289 240 289 367Q289 391 278 399T238 408H167L295 632H158L171 710H435L305 484Q347 477 363 456T380 379T373 262T348 135T293 30T201 -9Q185 -9 60 12L71 85Q194 72 195 72Z" />
<glyph unicode="4" glyph-name="four" horiz-adv-x="410" d="M240 32L267 214L278 235H60L336 710H432L374 339L364 313H406L394 235H350L352 214L317 0Q267 0 254 4T240 32ZM292 313L287 339L318 538L203 313H292Z" />
<glyph unicode="5" glyph-name="five" horiz-adv-x="410" d="M181 72Q211 72 234 106T268 190Q290 292 290 367Q290 391 279 399T239 408H124L172 710H428L415 632H237L244 607L229 506L216 487H276Q334 487 357 465T380 391T376 293T360 190T327 91T271 21T187
-8Q186 -8 181 -8Q145 -4 60 1L70 72H181Z" />
<glyph unicode="6" glyph-name="six" horiz-adv-x="410" d="M148 104T154 92T184 79T229 109T264 186Q289 281 289 373Q289 395 277 404T238 415L186 396Q172 338 161 256T149 139ZM379 393Q379 0 172 0Q111 0 86 29T60 128T74 295T113 491T184 655T284 722Q289
722 421 711Q413 658 404 649T350 639H284Q261 639 245 605T206 479L243 493Q321 493 350 473T379 393Z" />
<glyph unicode="7" glyph-name="seven" horiz-adv-x="410" d="M182 0H90L374 632H184L197 710H488L476 643L182 0Z" />
<glyph unicode="8" glyph-name="eight" horiz-adv-x="410" d="M167 391Q132 431 132 490T149 600T206 690T301 729T386 698T418 597T394 469T335 380Q382 331 382 251Q382 116 298 36Q253 -7 191 -7T94 33T60 151T90 291T167 391ZM199 75Q238 75 266 124T294 256Q294
298 281 322T246 347Q210 347 179 293T148 157T199 75ZM255 431Q277 431 293 449T316 497Q330 549 330 598T294 648Q272 648 256 631T232 585Q219 535 219 483T255 431Z" />
<glyph unicode="9" glyph-name="nine" horiz-adv-x="410" d="M322 407T334 491T346 601T338 635T311 643Q274 643 248 590Q202 498 202 349Q202 325 212 317T249 307L306 333Q322 407 334 491ZM197 82Q243 82 285 247L248 228Q169 228 141 249T112 328Q112 722
318 722Q383 722 408 701T433 611T420 444T382 242T310 69T206 -2Q203 -2 164 1T60 10L71 82H197Z" />
<glyph unicode=":" glyph-name="colon" horiz-adv-x="181" d="M150 39T131 20T88 0T49 15T34 52T53 95T97 115T136 101T150 63ZM223 462T204 442T161 422T122 437T107 475T127 517T171 537T209 523T223 486Z" />
<glyph unicode=";" glyph-name="semicolon" horiz-adv-x="153" d="M217 462T198 442T154 422T116 437T101 475T121 517T165 537T203 523T217 486ZM41 22L40 55Q40 78 60 96T104 115Q152 115 152 71Q152 50 100 -29T42 -108L11 -89L6 -70Q41 -11 41 22Z" />
<glyph unicode="&lt;" glyph-name="less" horiz-adv-x="237" d="M222 54H139L42 285L46 317L214 537H300L121 297L222 54Z" />
<glyph unicode="=" glyph-name="equal" horiz-adv-x="363" d="M386 332H99L111 409H398L386 332ZM363 214H76L88 291H375L363 214Z" />
<glyph unicode="&gt;" glyph-name="greater" horiz-adv-x="236" d="M108 54H20L200 301L100 537H182L280 313L275 282L108 54Z" />
<glyph unicode="?" glyph-name="question" horiz-adv-x="339" d="M171 39T152 20T108 0T69 15T54 52T74 95T118 115T156 101T171 63ZM268 478T287 516T307 585T290 627T227 639H189Q152 639 142 643T131 671T139 711L240 722Q332 722 365 698T398 621T365 506T292
396Q185 268 180 229L175 188H89L97 232Q108 301 182 381Q211 413 239 445Z" />
<glyph unicode="@" glyph-name="at" horiz-adv-x="556" d="M338 250L334 257L346 331Q304 331 301 324L283 226L338 250ZM188 -15Q110 -15 89 26T68 180Q68 521 254 531Q501 544 506 544Q580 544 580 470Q580 342 564 282Q548 217 518 186Q480 149 411 149T330
173L278 144Q235 144 219 150T202 182Q202 190 219 318Q227 367 271 388T374 409H435L407 228L406 227Q456 227 464 249Q467 259 482 354T498 456T491 463T247 448Q155 442 155 137Q155 63 198 63H370Q407 63 418 58T429 29L426 -15H188Z" />
<glyph unicode="A" glyph-name="A" horiz-adv-x="435" d="M393 0Q340 0 330 7T318 58L307 235H185L96 0H81Q25 0 19 10Q16 16 16 27T65 165L280 720H364L413 0H393ZM303 317L295 332V547L221 332L209 317H303Z" />
<glyph unicode="B" glyph-name="B" horiz-adv-x="421" d="M380 732T415 704T451 614T436 490T397 396Q429 368 429 309T426 212T411 130T376 58T314 11T216 -8Q201 -8 60 1L174 721L286 732Q380 732 415 704ZM231 431Q296 431 328 463Q352 487 356 545Q358 565
358 595T339 636T269 648H250V636L219 436L217 431H231ZM203 77Q239 77 265 91T304 126T326 178Q337 223 337 295Q337 323 321 335T261 348H203V336L163 82L161 77H203Z" />
<glyph unicode="C" glyph-name="C" horiz-adv-x="377" d="M230 -7Q150 -7 118 36T85 155T90 299T113 449T158 590T233 691T345 732L452 709Q445 670 430 656T392 641Q389 641 332 648Q291 648 259 594T210 460Q176 300 176 181Q176 84 241 84Q265 84 303 89T356
94L342 11Q332 10 292 2T230 -7Z" />
<glyph unicode="D" glyph-name="D" horiz-adv-x="472" d="M422 732T455 690T488 573T482 431T459 281T416 138T343 35T237 -7Q232 -7 60 1L175 721L342 732Q422 732 455 690ZM239 77Q280 77 312 133T362 272Q397 439 397 551Q397 599 383 623T334 648H250V636L163
82L161 77H239Z" />
<glyph unicode="E" glyph-name="E" horiz-adv-x="385" d="M252 640V629L222 435L220 430H397L383 347H206V335L167 91V89Q167 85 166 84H365L352 0H60L174 720H456L443 640H252Z" />
<glyph unicode="F" glyph-name="F" horiz-adv-x="375" d="M133 0Q102 0 91 2Q67 5 67 33Q67 39 174 720H457L443 640H252V629L222 435L220 430H397L384 347H206V335L153 0H133Z" />
<glyph unicode="G" glyph-name="G" horiz-adv-x="446" d="M422 641L337 648Q299 648 268 592T219 454Q185 292 185 176Q185 77 249 77L314 85V98L348 311Q356 362 364 370T415 379H448L390 11L240 -7Q160 -7 128 36T95 152T100 293T122 442T165 586T236 690T341
732Q350 732 481 710Q474 670 459 656T422 641Z" />
<glyph unicode="H" glyph-name="H" horiz-adv-x="457" d="M368 0Q328 0 315 3T301 24Q301 30 349 339L351 347H202V335L158 57Q151 17 140 9T81 0H60L175 720H191Q220 720 230 718Q256 715 256 688Q256 678 219 435L217 430H366V442L410 720H426Q481 720 487 705Q490
698 490 687T385 0H368Z" />
<glyph unicode="I" glyph-name="I" horiz-adv-x="213" d="M131 0Q100 0 89 2Q65 5 65 33Q65 39 172 720H189Q231 720 243 716T255 696T148 0H131Z" />
<glyph unicode="J" glyph-name="J" horiz-adv-x="246" d="M230 720Q259 720 270 719Q298 716 296 688L212 146Q184 -46 149 -100Q106 -166 50 -182Q16 -192 -29 -192L-17 -115Q56 -115 90 -5Q105 47 122 144Q159 365 213 720H230Z" />
<glyph unicode="K" glyph-name="K" horiz-adv-x="464" d="M404 0Q351 0 336 7T309 54L232 364L437 720H449Q476 720 486 719Q512 717 512 695Q512 688 477 625L328 361L426 0H404ZM81 0H60L174 720H191Q229 720 243 717T257 701Q257 699 158 57Q152 17 141 9T81 0Z" />
<glyph unicode="L" glyph-name="L" horiz-adv-x="361" d="M193 720Q250 720 256 710Q259 706 259 701T166 98L158 84H268Q310 84 321 80T333 52L329 0H59L173 720H193Z" />
<glyph unicode="M" glyph-name="M" horiz-adv-x="584" d="M616 696L508 0H492Q432 0 426 10Q423 16 423 23T496 502L397 340L362 289H311L276 342L225 505L155 57Q149 17 138 9T78 0H57L171 720H188Q235 720 247 712T271 665L347 418L536 720H549Q589 720 602
717T616 696Z" />
<glyph unicode="N" glyph-name="N" horiz-adv-x="455" d="M371 0Q321 0 311 7T292 56L216 453L153 57Q147 17 136 9T77 0H56L170 720H187Q236 720 247 713T265 664L339 256L413 720H429Q460 720 472 718Q494 716 494 694Q494 691 494 687L388 0H371Z" />
<glyph unicode="O" glyph-name="O" horiz-adv-x="481" d="M406 99T354 46T230 -7T123 37T89 176T103 364T147 542T228 679T353 732T460 690T494 553T480 365T436 185ZM244 77Q291 77 328 165T382 356T399 538Q399 648 339 648Q291 648 254 561T201 371T184 188Q184
77 244 77Z" />
<glyph unicode="P" glyph-name="P" horiz-adv-x="459" d="M82 0H60L175 721L316 732Q415 732 451 703T488 618T485 526T469 450T432 385T364 345T258 328H200V317L159 57Q154 17 143 9T82 0ZM267 412Q383 412 394 541Q396 565 396 595T378 636T308 648H250V636L217
417L215 412H267Z" />
<glyph unicode="Q" glyph-name="Q" horiz-adv-x="468" d="M535 -150T524 -157T458 -165T283 -143T102 -120L59 -119Q66 -80 69 -69T82 -53L162 8Q90 39 90 178Q90 340 127 476Q170 635 250 697Q294 732 348 732Q426 732 459 689T493 550Q493 404 446 218Q424 128
385 67T301 3L195 -51Q414 -80 500 -82L546 -83L540 -118Q535 -150 524 -157ZM244 77Q281 77 313 127T364 252Q403 408 403 528T339 648Q290 648 252 563T198 376T181 193Q181 77 244 77Z" />
<glyph unicode="R" glyph-name="R" horiz-adv-x="453" d="M401 0Q344 0 333 6T308 55L226 328H200V317L160 57Q154 17 143 9T83 0H60L174 721L296 732Q385 732 418 704T451 618Q451 374 316 331L424 0H401ZM247 412Q358 412 358 603Q358 628 343 638T288 648H243L247
620L219 429L207 412H247Z" />
<glyph unicode="S" glyph-name="S" horiz-adv-x="391" d="M301 236Q301 253 288 274T263 309T222 352V351Q186 388 168 409T130 467T111 545T118 619T146 678Q186 732 311 732L424 709Q417 670 405 657T371 643L304 650Q246 649 225 624T203 551Q203 507 270 444Q298
417 326 390T373 327T393 257Q393 -6 175 -7L26 14L37 96L189 85Q301 91 301 236Z" />
<glyph unicode="T" glyph-name="T" horiz-adv-x="333" d="M141 0H116L216 636L218 640H113L126 720H428L414 640H308V629L218 57Q212 17 201 9T141 0Z" />
<glyph unicode="U" glyph-name="U" horiz-adv-x="468" d="M261 697L179 125Q179 106 193 92T238 77Q294 77 314 122T356 301L423 720H442Q482 720 495 717T508 696Q508 695 495 607T461 382T435 216T420 148T401 91T376 49T340 17Q292 -7 230 -7Q87 -7 87 96Q87
114 176 720H195Q252 720 258 710Q261 706 261 697Z" />
<glyph unicode="V" glyph-name="V" horiz-adv-x="414" d="M396 720Q430 720 439 717T449 707T447 695L221 85Q198 21 189 11T144 0Q105 0 87 46Q80 65 80 90L79 720H103Q153 720 161 713T170 661L162 161L372 720H396Z" />
<glyph unicode="W" glyph-name="W" horiz-adv-x="572" d="M324 90V359L227 85Q205 21 195 11T150 0Q111 0 93 46Q86 65 86 90L85 720H111Q155 720 162 714T171 668L176 173L282 467L309 528H383L409 463V181L588 720Q611 720 625 720T648 719Q660 718 666 714T672
707L670 695L465 85Q444 21 434 11T388 0Q349 0 331 46Q324 65 324 90Z" />
<glyph unicode="X" glyph-name="X" horiz-adv-x="383" d="M325 0Q283 0 275 7T260 56L230 265L128 52Q109 13 99 7T51 0H5L194 357L131 720H170Q210 720 218 713T234 663L265 440L393 720H408Q442 720 455 715T469 694Q469 670 298 354L363 0H325Z" />
<glyph unicode="Y" glyph-name="Y" horiz-adv-x="375" d="M231 0Q210 0 196 0T172 2T158 8Q148 17 148 33T195 347L122 720H154Q197 720 207 712T225 664L259 467L389 720H408Q438 720 451 718T464 709T284 344L231 0Z" />
<glyph unicode="Z" glyph-name="Z" horiz-adv-x="370" d="M325 0H23L35 73L336 640H133L147 720H451L440 652L135 84H338L325 0Z" />
<glyph unicode="[" glyph-name="bracketleft" horiz-adv-x="201" d="M100 -66Q72 -66 62 -65Q40 -63 40 -36Q40 -29 40 -25T41 -14T44 4T49 32T57 79T68 147T84 244T105 374T132 544T165 760H253Q292 760 303 756T314 729L307 688H232L125 6H134Q172 6 183 2T194
-25L188 -66H100Z" />
<glyph unicode="\" glyph-name="backslash" horiz-adv-x="372" d="M336 -189H247L103 722H193L336 -189Z" />
<glyph unicode="]" glyph-name="bracketright" horiz-adv-x="204" d="M75 -66H-16Q-8 -12 1 -3T57 6H71L178 688H102Q111 742 120 751T177 760H270L147 -10Q142 -50 131 -58T75 -66Z" />
<glyph unicode="^" glyph-name="asciicircum" horiz-adv-x="411" d="M465 567L304 645L118 566L129 652L295 722H327L475 649L465 567Z" />
<glyph unicode="_" glyph-name="underscore" horiz-adv-x="613" d="M542 -1H48L59 76H554L542 -1Z" />
<glyph unicode="`" glyph-name="grave" horiz-adv-x="172" d="M116 695Q146 722 161 722T207 685L267 602L209 550L99 680L116 695Z" />
<glyph unicode="a" glyph-name="a" horiz-adv-x="367" d="M85 -7T64 17T43 101T51 230T77 374T131 499T218 548Q245 548 323 522Q351 520 369 506T387 467Q387 466 314 0Q264 0 251 5T237 29Q237 31 237 34L240 67L152 -7Q85 -7 64 17ZM227 466Q197 466 173 389T139
235T129 128T133 88T152 78L255 155V172L298 434L301 445Q242 466 227 466Z" />
<glyph unicode="b" glyph-name="b" horiz-adv-x="373" d="M216 719T224 712T232 691T210 544H264Q331 544 358 518T385 428T377 297T352 155T298 35T212 -12Q195 -12 131 37Q125 10 112 5T41 0L154 722Q190 722 203 721ZM195 465Q195 464 196 461L144 122L139
108L197 72Q199 71 203 71Q242 71 270 202T298 408Q298 465 260 465H195Z" />
<glyph unicode="c" glyph-name="c" horiz-adv-x="313" d="M295 460L245 465Q217 465 196 422T164 316Q145 201 145 149T153 84T184 72L284 83L274 11L177 -7Q111 -7 85 19T59 105T66 232T92 374T148 497T240 546Q247 546 352 529Q340 460 295 460Z" />
<glyph unicode="d" glyph-name="d" horiz-adv-x="378" d="M428 698Q428 697 320 0Q270 0 256 4T242 32Q242 34 243 36L181 -7Q113 -7 87 18T60 105T68 234T97 375T160 497T264 544H322L349 722Q396 722 412 719T428 698ZM252 465Q216 465 190 388T155 236T146
129T154 84T183 72L256 109V126L308 460L310 465H252Z" />
<glyph unicode="e" glyph-name="e" horiz-adv-x="353" d="M183 -7Q113 -7 86 18T59 104Q59 452 194 526Q226 544 275 544T347 520T370 442Q370 394 352 334Q340 297 311 273T237 249H149V238Q143 194 143 160T144 116T149 93T163 78T207 74T321 91L310 11Q220
-7 183 -7ZM226 318Q248 318 262 341Q285 377 285 421T258 465Q215 465 195 434T165 334L159 318H226Z" />
<glyph unicode="f" glyph-name="f" horiz-adv-x="231" d="M-81 -189L-70 -119Q-4 -119 19 -88T54 16L119 433L129 457H76L89 537H144L139 564Q156 669 184 689Q218 714 261 717T352 721L342 648Q270 648 251 635Q237 625 233 604T224 558L212 537H302L289 457H197L203
436L136 12Q120 -83 101 -112Q72 -155 45 -166Q-10 -189 -81 -189Z" />
<glyph unicode="g" glyph-name="g" horiz-adv-x="394" d="M161 -189H118Q84 -189 74 -186T62 -176T60 -156L64 -117L167 -110Q212 -110 222 -98T242 -34L252 26L194 -7Q123 -7 96 21T68 113T77 246Q102 434 170 505Q209 545 259 545Q265 545 271 544L346 537Q389
537 400 533T412 514Q412 510 411 506L324 -52Q312 -131 282 -160T161 -189ZM267 465Q230 465 202 396T164 255T154 143T164 88T199 72L269 108L267 126L319 457L322 465H267Z" />
<glyph unicode="h" glyph-name="h" horiz-adv-x="390" d="M238 697L215 544H289Q399 544 399 459Q399 450 335 0Q284 0 271 5T257 34Q311 418 311 427Q311 465 281 465H195L201 440L139 56Q134 16 121 8T46 0L159 722Q228 722 234 712Q238 706 238 697Z" />
<glyph unicode="i" glyph-name="i" horiz-adv-x="187" d="M228 634T211 615T170 596T134 610T122 647T139 690T181 710Q228 710 228 660Q228 634 211 615ZM195 514L115 -4Q46 -4 38 6Q35 10 35 17T36 27L116 537Q183 537 191 528Q195 523 195 514Z" />
<glyph unicode="j" glyph-name="j" horiz-adv-x="193" d="M238 634T221 615T179 596T143 610T131 648T149 691T190 710T226 697T238 659ZM-90 -189L-79 -119Q-13 -119 10 -88T45 16L127 537Q194 537 202 528Q205 523 205 515L127 12Q121 -28 116 -50T97 -103T61
-150Q7 -189 -90 -189Z" />
<glyph unicode="k" glyph-name="k" horiz-adv-x="355" d="M384 0H293L205 295L363 537H455L293 289L384 0ZM124 0Q80 0 69 4T57 17T58 31L165 722Q212 722 226 719T242 710T244 699T243 689L138 12L124 0Z" />
<glyph unicode="l" glyph-name="l" horiz-adv-x="199" d="M57 6Q54 10 54 17T163 722Q230 722 238 712Q242 706 242 701T222 568T135 9L121 -4Q63 -4 57 6Z" />
<glyph unicode="m" glyph-name="m" horiz-adv-x="603" d="M258 23L315 429Q315 465 280 465L196 418V401L134 0Q65 0 58 10Q54 14 54 21T134 537Q137 537 152 537T178 536T198 525T208 495V487Q217 493 236 509Q276 544 288 544Q332 544 356 533T387 510T396 476Q407
502 438 523T490 544Q551 544 579 530T607 474Q607 467 540 0Q471 0 464 10Q460 14 460 22Q466 78 519 438Q519 465 482 465Q470 465 399 419V401L337 0Q269 0 262 10Q258 14 258 23Z" />
<glyph unicode="n" glyph-name="n" horiz-adv-x="390" d="M256 24L314 429Q314 450 307 457T281 465L196 420V403L131 0Q63 0 56 10Q52 14 52 21T131 537H154Q209 537 211 506Q219 510 233 520Q264 544 286 544Q345 544 373 528T401 470Q401 462 336 0Q287 0 272
3T256 24Z" />
<glyph unicode="o" glyph-name="o" horiz-adv-x="374" d="M298 38T263 16T170 -7T87 19T60 115T69 256T99 395T162 503T268 544T359 519T386 442T384 354T376 261T356 163T320 79ZM190 72Q223 72 247 115T281 222Q300 342 300 413Q300 441 290 453T256 465Q220
465 193 396Q146 277 146 125Q146 97 156 85T190 72Z" />
<glyph unicode="p" glyph-name="p" horiz-adv-x="380" d="M20 -180Q16 -175 16 -168T126 536L269 544Q335 544 361 514T388 421T380 290T354 151T299 33T213 -13Q194 -13 129 27L95 -189Q27 -189 20 -180ZM205 69Q246 69 273 191T301 375T294 451T256 465H197V454L145
121L139 106Q200 69 205 69Z" />
<glyph unicode="q" glyph-name="q" horiz-adv-x="385" d="M406 514L296 -189Q228 -189 220 -180Q217 -175 217 -168T247 26L188 -7Q118 -7 90 21T62 113T71 243T99 381T159 498T254 544H266L341 537Q397 537 403 527Q406 522 406 514ZM261 465Q224 465 197 396T159
255T148 143T158 88T193 72L263 108L261 126L315 457L318 465H261Z" />
<glyph unicode="r" glyph-name="r" horiz-adv-x="269" d="M34 10Q31 14 31 21T111 537Q163 537 176 533T190 510V502Q232 544 274 544Q291 544 318 530Q310 483 301 474T252 465Q240 465 172 409V389L111 0Q42 0 34 10Z" />
<glyph unicode="s" glyph-name="s" horiz-adv-x="314" d="M225 178Q225 207 154 264Q127 285 105 318T81 384Q81 463 117 502T228 546L331 533Q323 465 277 463L224 469Q164 465 164 409Q164 370 238 310Q266 287 289 255T313 186T300 105T251 27T166 -7L38 5L48
82L172 77Q195 78 210 108T225 178Z" />
<glyph unicode="t" glyph-name="t" horiz-adv-x="250" d="M59 62Q59 68 113 453L115 457H77L90 537H129V548L140 612Q191 612 205 608T219 580L212 546L210 537H296Q287 483 277 470T225 457H197V446Q145 96 145 90Q145 72 159 72H240L229 1L151 -5Q59 -5 59 62Z" />
<glyph unicode="u" glyph-name="u" horiz-adv-x="385" d="M387 528Q391 523 391 517T312 0Q260 0 246 4T232 31L233 41L159 -7Q43 -7 43 80Q43 88 107 537Q155 537 170 534T186 513L131 109Q131 72 157 72L249 128V145L312 537Q379 537 387 528Z" />
<glyph unicode="v" glyph-name="v" horiz-adv-x="327" d="M395 519Q395 514 246 85Q223 21 214 11T169 0Q148 0 134 14Q107 41 105 90L92 537Q146 537 160 526T174 479V116L317 537Q364 537 379 535T395 519Z" />
<glyph unicode="w" glyph-name="w" horiz-adv-x="548" d="M310 90L311 319L237 85Q218 24 207 12T168 0Q131 0 113 46Q106 65 105 90L94 537Q156 537 167 530T179 479L180 152Q259 382 282 434T332 486Q373 486 381 480T390 442V155L516 537Q519 537 539 537T573
535T588 524L573 477Q522 316 448 85Q425 21 416 11T379 0T331 20T310 90Z" />
<glyph unicode="x" glyph-name="x" horiz-adv-x="318" d="M10 16Q10 21 147 292L97 537Q158 537 170 530T193 484L208 364L288 537Q357 537 357 521Q357 517 245 278L305 0H221L182 201L82 0Q10 0 10 16Z" />
<glyph unicode="y" glyph-name="y" horiz-adv-x="317" d="M171 487Q171 483 171 479V110L305 537Q345 537 362 534T379 517Q379 514 292 258T198 -15Q163 -102 137 -131Q90 -185 -16 -189L-6 -116Q46 -116 75 -81T105 6L90 537Q152 537 161 530T171 487Z" />
<glyph unicode="z" glyph-name="z" horiz-adv-x="333" d="M186 537H379L366 466L131 79H236Q276 79 288 75T301 52Q301 47 297 0H27L37 69L264 457H117Q127 517 136 527T186 537Z" />
<glyph unicode="{" glyph-name="braceleft" horiz-adv-x="240" d="M338 750Q341 746 341 742V736Q341 736 333 688H258L229 505L135 349L180 193L150 6H160Q198 6 209 2T220 -25T214 -66H127Q99 -66 89 -65Q66 -63 66 -36Q66 -30 101 194L57 339L61 368L151 515L191
760H279Q332 760 338 750Z" />
<glyph unicode="|" glyph-name="bar" horiz-adv-x="190" d="M25 -180Q22 -175 22 -168T161 722Q228 722 236 712Q240 706 240 701T215 533T104 -177L90 -189Q31 -189 25 -180Z" />
<glyph unicode="}" glyph-name="braceright" horiz-adv-x="239" d="M87 -66H-6Q4 -12 13 -3T69 6H82L113 199L207 355L162 510L190 688H114Q123 742 132 751T188 760H281L241 510L285 364L281 334L189 188L159 -10Q153 -50 143 -58T87 -66Z" />
<glyph unicode="~" glyph-name="asciitilde" horiz-adv-x="377" d="M161 368L321 358L349 361L381 359L375 322Q370 292 361 287T301 282L139 292L111 290L81 292L87 328Q92 358 101 363T161 368Z" />
<glyph unicode="&#xa0;" glyph-name="uni00A0" horiz-adv-x="190" />
<glyph unicode="&#xa1;" glyph-name="exclamdown" horiz-adv-x="162" d="M211 492V483Q207 460 188 444T147 427T110 442T95 480T115 522T158 542T196 528T211 492ZM-12 -169L84 313Q92 354 103 360T175 368L90 -114Q83 -150 65 -159T-12 -169Z" />
<glyph unicode="&#xa2;" glyph-name="cent" horiz-adv-x="344" d="M289 542L372 536Q363 483 354 474T300 465H244Q203 465 175 392Q130 275 130 130Q130 99 141 86T175 72T298 82L288 11L203 -3Q197 -33 193 -67T186 -112Q140 -112 128 -108T116 -87T118 -58T123
-30T127 -4Q81 4 63 30T44 104T47 202T62 315T90 426T139 508T212 542L226 629Q271 629 283 625T296 599T289 542Z" />
<glyph unicode="&#xa3;" glyph-name="sterling" horiz-adv-x="381" d="M240 537L200 277Q216 276 236 276T275 278L306 277L301 241Q297 210 287 205T226 200H188L171 86L169 81H271Q300 81 310 80Q336 78 336 55Q336 50 332 -1H72L106 208Q94 209 76 209T44 207L14
209L19 245Q23 276 33 281T76 286T117 285L162 561Q208 561 224 558T240 537Z" />
<glyph unicode="&#xa4;" glyph-name="currency" horiz-adv-x="486" d="M318 313T340 334T363 379T349 417T311 431T264 410T240 365T254 327T293 313ZM316 234T283 234T221 249L137 186Q107 219 107 232T117 258T148 286T172 305Q161 329 161 365T193 442L142
514Q179 548 195 548T235 518L255 493Q293 510 327 510T389 491L471 553Q502 520 502 504T435 434Q443 413 443 390Q443 343 413 302L464 229Q426 195 412 195T388 204T366 230T350 250Q316 234 283 234Z" />
<glyph unicode="&#xa5;" glyph-name="yen" horiz-adv-x="402" d="M155 23L163 83Q131 85 121 85T93 83L64 85L68 121Q71 151 81 156T127 162T175 161L177 174Q145 176 135 176T108 174L78 176L83 212Q88 243 97 248T143 253T192 252V261L100 537H134Q172 537 181
531T203 484L247 350L362 537H385Q387 537 391 537Q443 537 443 525Q443 520 275 258Q274 254 273 252T269 243Q284 242 306 242T342 245L372 243L368 207Q364 178 354 173T293 167H261L259 152Q318 152 328 154L358 152L353 116Q349 86 340 81T279 76H246L235
0H218Q164 0 158 10Q155 14 155 23Z" />
<glyph unicode="&#xa6;" glyph-name="brokenbar" horiz-adv-x="176" d="M100 314Q96 319 96 325T157 722Q206 722 222 718T239 695Q239 694 229 625T182 317L167 305Q107 305 100 314ZM162 204Q162 203 158 179T150 128T133 17T104 -173L90 -186Q30 -186 22 -176Q19
-172 19 -163L79 231Q129 231 145 227T162 204Z" />
<glyph unicode="&#xa7;" glyph-name="section" horiz-adv-x="326" d="M35 93Q143 72 161 72T191 78T209 91T221 114Q228 136 234 170Q234 198 158 262Q130 287 107 323T83 392Q83 477 127 513Q112 540 112 566Q112 647 151 683T277 721L380 706Q367 635 321 635Q309
635 269 642Q227 642 213 627T198 588T222 536T274 486T327 428T351 361Q351 277 311 225Q322 204 322 183Q322 102 283 48T153 -7Q126 -7 24 22L35 93ZM255 299Q263 329 263 342T259 363T245 382T226 402Q199 427 179 447Q173 439 169 408L168 403Q168 381 196
354Q207 344 226 326T255 299Z" />
<glyph unicode="&#xa8;" glyph-name="dieresis" horiz-adv-x="341" d="M259 635T240 616T197 596T158 610T143 648T163 690T207 710T245 696T259 659ZM366 710T380 696T395 659T375 616T332 596T293 610T278 648T298 690T342 710Z" />
<glyph unicode="&#xa9;" glyph-name="copyright" horiz-adv-x="653" d="M247 153T247 198T252 287T270 379T311 458T378 488Q383 488 473 482Q466 436 459 429T420 421H379Q352 421 335 342T318 220T334 176Q391 185 436 188L425 119L331 105Q285 105 266 129ZM319
0Q209 0 142 69T74 245Q74 376 172 481T407 587Q515 587 582 517T650 341Q650 203 551 102T319 0ZM326 77Q426 77 499 153T572 334Q572 410 525 460T399 510Q301 510 227 433T152 254Q152 177 200 127T326 77Z" />
<glyph unicode="&#xaa;" glyph-name="ordfeminine" horiz-adv-x="271" d="M218 460L228 521Q186 519 184 507L174 439L175 438L218 460ZM150 681L152 712L232 723Q320 723 320 674L276 373Q222 373 218 379T213 393L174 368Q145 368 133 369T111 379T101 400T114
510Q125 590 242 594L250 647Q250 655 227 655Q202 655 176 655T150 681Z" />
<glyph unicode="&#xab;" glyph-name="guillemotleft" horiz-adv-x="323" d="M166 128H85L37 288L41 318L138 474H223L115 297L166 128ZM303 128H222L174 288L178 318L275 474H360L252 297L303 128Z" />
<glyph unicode="&#xac;" glyph-name="logicalnot" horiz-adv-x="356" d="M258 210L269 286H61L74 365H355L340 272Q332 225 322 218T258 210Z" />
<glyph unicode="&#xae;" glyph-name="registered" horiz-adv-x="653" d="M440 488T460 472T481 420T477 358T455 305T404 270L467 125Q415 125 402 131T380 158L338 250L325 164Q320 135 311 130T247 125L304 482L384 488Q440 488 460 472ZM360 333Q389 333 399
349T409 407Q409 420 379 420H365L352 333H360ZM319 0Q209 0 142 69T74 245Q74 376 172 481T407 587Q515 587 582 517T650 341Q650 203 551 102T319 0ZM326 77Q426 77 499 153T572 334Q572 410 525 460T399 510Q301 510 227 433T152 254Q152 177 200 127T326 77Z"
/>
<glyph unicode="&#xaf;" glyph-name="overscore" horiz-adv-x="336" d="M379 634H147L160 710H392L379 634Z" />
<glyph unicode="&#xb0;" glyph-name="degree" horiz-adv-x="348" d="M334 721T368 687T403 597T353 493T247 445T155 479T120 569T168 673T275 721ZM277 524T300 544T323 589T309 628T270 642T223 621T200 576T214 538T252 524Z" />
<glyph unicode="&#xb1;" glyph-name="plusminus" horiz-adv-x="279" d="M231 386V375L217 299H139L155 382L157 386H80L91 463H170V474L184 550H262L245 463H322L311 386H231ZM275 185H43L55 261H286L275 185Z" />
<glyph unicode="&#xb2;" glyph-name="twosuperior" horiz-adv-x="270" d="M243 648Q243 654 228 654H195Q172 654 165 658T157 681L162 719L237 725Q284 724 301 709T319 661T304 601T269 562Q214 526 203 500L197 471H292L281 401H112L130 509Q137 548 192 586Q243
621 243 648Z" />
<glyph unicode="&#xb3;" glyph-name="threesuperior" horiz-adv-x="256" d="M198 465Q209 465 216 504T223 569Q223 574 218 574H159L212 652H154L164 722H334L266 626Q284 619 291 608T298 576Q298 394 205 394Q197 394 115 405L124 470L197 465Q197 465 198 465Z" />
<glyph unicode="&#xb4;" glyph-name="acute" horiz-adv-x="173" d="M216 722T231 722T280 684Q283 680 285 678L136 549L91 606L182 692Q216 722 231 722Z" />
<glyph unicode="&#xb5;" glyph-name="mu" horiz-adv-x="380" d="M210 507Q210 501 148 111L144 103L216 74Q262 75 282 146T346 483Q353 525 364 532T440 539L397 271Q373 121 354 82Q327 28 300 16Q258 -5 203 -5L132 25V16L109 -127Q104 -167 91 -175T17 -183L131
539Q182 539 196 535T210 507Z" />
<glyph unicode="&#xb6;" glyph-name="paragraph" horiz-adv-x="510" d="M112 564Q112 625 159 670T271 721H589L576 633H476L378 0H289L389 633H332L234 0H145L216 446Q173 454 143 487T112 564Z" />
<glyph unicode="&#xb7;" glyph-name="middot" horiz-adv-x="176" d="M190 281T171 262T127 242T89 256T74 294T94 336T137 356T175 342T190 305Z" />
<glyph unicode="&#xb8;" glyph-name="cedilla" horiz-adv-x="177" d="M69 -175H36Q-12 -175 -18 -166Q-21 -162 -21 -148T-17 -103H66L82 0H154L136 -117Q130 -155 119 -165T69 -175Z" />
<glyph unicode="&#xb9;" glyph-name="onesuperior" horiz-adv-x="184" d="M210 723Q240 723 246 718T252 708T249 685L205 401H129L169 647L126 636L137 708L183 723H210Z" />
<glyph unicode="&#xba;" glyph-name="ordmasculine" horiz-adv-x="282" d="M292 431T263 401T189 370T127 387T108 466T120 587T163 683T243 722T309 708T328 651T323 568T305 479ZM200 447Q221 447 237 510T254 627Q254 639 250 642T235 645Q216 645 202 606Q181
543 181 470Q181 456 185 452T200 447Z" />
<glyph unicode="&#xbb;" glyph-name="guillemotright" horiz-adv-x="323" d="M240 128H154L261 304L212 474H291L339 313L335 283L240 128ZM95 128H9L116 304L67 474H146L194 313L190 283L95 128Z" />
<glyph unicode="&#xbc;" glyph-name="onequarter" horiz-adv-x="277" d="M246 723Q272 723 279 719T287 700T245 428H169L205 646L161 636L172 710L215 723H246ZM297 324H76L87 397H307L297 324ZM198 71L199 68L188 0H121L132 70V71H8L159 288H230L206 125H228L221
71H198ZM150 126V131L167 210L108 126H150Z" />
<glyph unicode="&#xbd;" glyph-name="onehalf" horiz-adv-x="302" d="M116 152T137 162T178 187T198 228Q198 234 183 234H150Q133 234 127 235Q112 238 112 260Q112 266 117 298L192 304Q239 303 256 288T274 241T258 185T206 132T158 89L152 60H247L238 0H69L85
98Q84 118 100 135ZM263 723Q290 723 299 719T305 695L261 428H185L222 647L180 636L190 708L236 723H263ZM317 324L96 323L107 397H327L317 324Z" />
<glyph unicode="&#xbe;" glyph-name="threequarters" horiz-adv-x="282" d="M297 324H77L87 397H308L297 324ZM198 71L199 68L188 0H121L132 70V71H8L159 288H230L206 125H228L221 71H198ZM150 126V131L167 210L108 126H150ZM222 569Q222 574 217 574H157L210
652H152L163 722H332L264 626Q283 619 289 608T296 576Q296 494 274 456T190 418L114 428L123 493L196 488Q207 488 214 518T222 569Z" />
<glyph unicode="&#xbf;" glyph-name="questiondown" horiz-adv-x="339" d="M340 542T355 527T370 490T350 447T306 427T268 441T253 479T272 522T316 542ZM26 -131T26 -79T59 36T132 146Q239 274 244 313L249 354H335L327 310Q316 241 242 161Q213 129 184 96Q117
20 117 -51Q117 -74 134 -85T197 -97H235Q272 -97 282 -101T293 -129T285 -169L184 -180Q92 -180 59 -156Z" />
<glyph unicode="&#xc0;" glyph-name="Agrave" horiz-adv-x="435" d="M393 0Q340 0 330 7T318 58L307 235H185L96 0H81Q25 0 19 10Q16 16 16 27T65 165L280 720H364L413 0H393ZM303 317L295 332V547L221 332L209 317H303ZM208 890Q238 917 253 917T299 880L359
797L301 745L191 875L208 890Z" />
<glyph unicode="&#xc1;" glyph-name="Aacute" horiz-adv-x="435" d="M393 0Q340 0 330 7T318 58L307 235H185L96 0H81Q25 0 19 10Q16 16 16 27T65 165L280 720H364L413 0H393ZM303 317L295 332V547L221 332L209 317H303ZM428 917T443 917T492 879Q495 875 497
873L348 744L303 801L394 887Q428 917 443 917Z" />
<glyph unicode="&#xc2;" glyph-name="Acircumflex" horiz-adv-x="435" d="M393 0Q340 0 330 7T318 58L307 235H185L96 0H81Q25 0 19 10Q16 16 16 27T65 165L280 720H364L413 0H393ZM303 317L295 332V547L221 332L209 317H303ZM459 770L346 839L207 768L221 854L339
917H371L473 852L459 770Z" />
<glyph unicode="&#xc3;" glyph-name="Atilde" horiz-adv-x="435" d="M393 0Q340 0 330 7T318 58L307 235H185L96 0H81Q25 0 19 10Q16 16 16 27T65 165L280 720H364L413 0H393ZM303 317L295 332V547L221 332L209 317H303ZM301 837L411 834Q438 834 453 837L483
835L478 799Q474 769 464 764T403 759L293 762Q265 762 252 759L221 761L226 797Q233 827 241 832T301 837Z" />
<glyph unicode="&#xc4;" glyph-name="Adieresis" horiz-adv-x="435" d="M393 0Q340 0 330 7T318 58L307 235H185L96 0H81Q25 0 19 10Q16 16 16 27T65 165L280 720H364L413 0H393ZM303 317L295 332V547L221 332L209 317H303ZM333 829T314 810T271 790T232 804T217
842T237 884T281 904T319 890T333 853ZM440 904T454 890T469 853T449 810T406 790T367 804T352 842T372 884T416 904Z" />
<glyph unicode="&#xc5;" glyph-name="Aring" horiz-adv-x="435" d="M393 0Q340 0 330 7T318 58L307 235H185L96 0H81Q25 0 19 10Q16 16 16 27T65 165L280 720H364L413 0H393ZM303 317L295 332V547L221 332L209 317H303ZM385 949T408 927T432 867T400 798T329 766T267
788T244 848T276 917T346 949ZM363 864Q363 881 345 881Q334 881 323 873T312 854T318 839T334 833T353 842T363 864Z" />
<glyph unicode="&#xc6;" glyph-name="AE" horiz-adv-x="629" d="M107 0Q71 0 56 3T40 17Q40 19 42 25L296 720H691L678 640H477V629L447 435L445 430H631L618 347H431V335L390 84H600L586 0H285L320 230L322 235H211L122 0H107ZM337 317V328L386 640H349L244 322L241
317H337Z" />
<glyph unicode="&#xc7;" glyph-name="Ccedilla" horiz-adv-x="377" d="M173 -175H140Q92 -175 86 -166Q83 -162 83 -148T87 -103H170L185 -2Q85 17 85 162Q85 317 108 423T158 590T233 691T345 732L452 709Q445 670 430 656T392 641Q389 641 332 648Q291 648 259
594T210 460Q176 300 176 181Q176 84 241 84Q265 84 303 89T356 94L342 11Q327 9 299 3T257 -5L240 -117Q234 -155 223 -165T173 -175Z" />
<glyph unicode="&#xc8;" glyph-name="Egrave" horiz-adv-x="385" d="M252 640V629L222 435L220 430H397L383 347H206V335L167 91V89Q167 85 166 84H365L352 0H60L174 720H456L443 640H252ZM265 890Q295 917 310 917T356 880L416 797L358 745L248 875L265 890Z" />
<glyph unicode="&#xc9;" glyph-name="Eacute" horiz-adv-x="385" d="M252 640V629L222 435L220 430H397L383 347H206V335L167 91V89Q167 85 166 84H365L352 0H60L174 720H456L443 640H252ZM385 887Q420 917 434 917T483 879Q486 875 488 873L339 744L294 801L385 887Z" />
<glyph unicode="&#xca;" glyph-name="Ecircumflex" horiz-adv-x="385" d="M252 640V629L222 435L220 430H397L383 347H206V335L167 91V89Q167 85 166 84H365L352 0H60L174 720H456L443 640H252ZM446 770L333 839L194 768L208 854L326 917H358L460 852L446 770Z" />
<glyph unicode="&#xcb;" glyph-name="Edieresis" horiz-adv-x="385" d="M252 640V629L222 435L220 430H397L383 347H206V335L167 91V89Q167 85 166 84H365L352 0H60L174 720H456L443 640H252ZM334 830T315 811T272 791T233 805T218 843T238 885T282 905T320 891T334
854ZM441 905T455 891T470 854T450 811T407 791T368 805T353 843T373 885T417 905Z" />
<glyph unicode="&#xcc;" glyph-name="Igrave" horiz-adv-x="213" d="M131 0Q100 0 89 2Q65 5 65 33Q65 39 172 720H189Q231 720 243 716T255 696T148 0H131ZM153 890Q183 917 198 917T244 880L304 797L246 745L136 875L153 890Z" />
<glyph unicode="&#xcd;" glyph-name="Iacute" horiz-adv-x="213" d="M131 0Q100 0 89 2Q65 5 65 33Q65 39 172 720H189Q231 720 243 716T255 696T148 0H131ZM320 917T335 917T384 879Q387 875 389 873L240 744L195 801L286 887Q320 917 335 917Z" />
<glyph unicode="&#xce;" glyph-name="Icircumflex" horiz-adv-x="213" d="M131 0Q100 0 89 2Q65 5 65 33Q65 39 172 720H189Q231 720 243 716T255 696T148 0H131ZM361 770L248 839L109 768L123 854L241 917H273L375 852L361 770Z" />
<glyph unicode="&#xcf;" glyph-name="Idieresis" horiz-adv-x="213" d="M131 0Q100 0 89 2Q65 5 65 33Q65 39 172 720H189Q231 720 243 716T255 696T148 0H131ZM227 830T208 811T165 791T126 805T111 843T131 885T175 905T213 891T227 854ZM334 905T348 891T363
854T343 811T300 791T261 805T246 843T266 885T310 905Z" />
<glyph unicode="&#xd0;" glyph-name="Eth" horiz-adv-x="463" d="M427 732T460 690T493 564T482 392T446 209T367 53T241 -7Q236 -7 46 1L160 721L346 732Q427 732 460 690ZM244 77Q285 77 317 133T367 272Q402 439 402 551Q402 599 388 623T339 648H232L234 624L207
453L201 432H321L310 354H188V330L149 86L146 77H244Z" />
<glyph unicode="&#xd1;" glyph-name="Ntilde" horiz-adv-x="455" d="M371 0Q321 0 311 7T292 56L216 453L153 57Q147 17 136 9T77 0H56L170 720H187Q236 720 247 713T265 664L339 256L413 720H429Q460 720 472 718Q494 716 494 694Q494 691 494 687L388 0H371ZM301
837L411 834Q438 834 453 837L483 835L478 799Q474 769 464 764T403 759L293 762Q265 762 252 759L221 761L226 797Q233 827 241 832T301 837Z" />
<glyph unicode="&#xd2;" glyph-name="Ograve" horiz-adv-x="481" d="M406 99T354 46T230 -7T123 37T89 176T103 364T147 542T228 679T353 732T460 690T494 553T480 365T436 185ZM244 77Q291 77 328 165T382 356T399 538Q399 648 339 648Q291 648 254 561T201 371T184
188Q184 77 244 77ZM283 890Q313 917 328 917T374 880L434 797L376 745L266 875L283 890Z" />
<glyph unicode="&#xd3;" glyph-name="Oacute" horiz-adv-x="481" d="M406 99T354 46T230 -7T123 37T89 176T103 364T147 542T228 679T353 732T460 690T494 553T480 365T436 185ZM244 77Q291 77 328 165T382 356T399 538Q399 648 339 648Q291 648 254 561T201 371T184
188Q184 77 244 77ZM426 917T441 917T490 879Q493 875 495 873L346 744L301 801L392 887Q426 917 441 917Z" />
<glyph unicode="&#xd4;" glyph-name="Ocircumflex" horiz-adv-x="481" d="M406 99T354 46T230 -7T123 37T89 176T103 364T147 542T228 679T353 732T460 690T494 553T480 365T436 185ZM244 77Q291 77 328 165T382 356T399 538Q399 648 339 648Q291 648 254 561T201
371T184 188Q184 77 244 77ZM497 770L384 839L245 768L259 854L377 917H409L511 852L497 770Z" />
<glyph unicode="&#xd5;" glyph-name="Otilde" horiz-adv-x="481" d="M406 99T354 46T230 -7T123 37T89 176T103 364T147 542T228 679T353 732T460 690T494 553T480 365T436 185ZM244 77Q291 77 328 165T382 356T399 538Q399 648 339 648Q291 648 254 561T201 371T184
188Q184 77 244 77ZM324 893L434 890Q461 890 476 893L506 891L501 855Q497 825 487 820T426 815L316 818Q288 818 275 815L244 817L249 853Q256 883 265 888T324 893Z" />
<glyph unicode="&#xd6;" glyph-name="Odieresis" horiz-adv-x="481" d="M406 99T354 46T230 -7T123 37T89 176T103 364T147 542T228 679T353 732T460 690T494 553T480 365T436 185ZM244 77Q291 77 328 165T382 356T399 538Q399 648 339 648Q291 648 254 561T201
371T184 188Q184 77 244 77ZM361 830T342 811T299 791T260 805T245 843T265 885T309 905T347 891T361 854ZM468 905T482 891T497 854T477 811T434 791T395 805T380 843T400 885T444 905Z" />
<glyph unicode="&#xd7;" glyph-name="multiply" horiz-adv-x="271" d="M214 189L173 250L167 267L102 202L56 265L122 331L106 341L68 399L122 454L160 396L168 377L234 443L280 380L213 313L229 303L269 244L214 189Z" />
<glyph unicode="&#xd8;" glyph-name="Oslash" horiz-adv-x="476" d="M110 71Q95 108 95 190T109 365T152 542T233 679T353 732Q368 732 392 728L433 799H531L468 685Q499 642 499 551T485 365T442 185T361 46T241 -7Q201 -7 172 6L142 -48H44L110 71ZM250 77Q287
77 318 126T368 249Q407 405 407 526T345 648Q308 648 277 599T226 476Q186 322 186 200T250 77Z" />
<glyph unicode="&#xd9;" glyph-name="Ugrave" horiz-adv-x="468" d="M261 697L179 125Q179 106 193 92T238 77Q294 77 314 122T356 301L423 720H442Q482 720 495 717T508 696Q508 695 495 607T461 382T435 216T420 148T401 91T376 49T340 17Q292 -7 230 -7Q87
-7 87 96Q87 114 176 720H195Q252 720 258 710Q261 706 261 697ZM286 890Q316 917 331 917T377 880L437 797L379 745L269 875L286 890Z" />
<glyph unicode="&#xda;" glyph-name="Uacute" horiz-adv-x="468" d="M261 697L179 125Q179 106 193 92T238 77Q294 77 314 122T356 301L423 720H442Q482 720 495 717T508 696Q508 695 495 607T461 382T435 216T420 148T401 91T376 49T340 17Q292 -7 230 -7Q87
-7 87 96Q87 114 176 720H195Q252 720 258 710Q261 706 261 697ZM395 887Q430 917 444 917T493 879Q496 875 498 873L349 744L304 801L395 887Z" />
<glyph unicode="&#xdb;" glyph-name="Ucircumflex" horiz-adv-x="468" d="M261 697L179 125Q179 106 193 92T238 77Q294 77 314 122T356 301L423 720H442Q482 720 495 717T508 696Q508 695 495 607T461 382T435 216T420 148T401 91T376 49T340 17Q292 -7 230 -7Q87
-7 87 96Q87 114 176 720H195Q252 720 258 710Q261 706 261 697ZM482 770L369 839L230 768L244 854L362 917H394L496 852L482 770Z" />
<glyph unicode="&#xdc;" glyph-name="Udieresis" horiz-adv-x="468" d="M261 697L179 125Q179 106 193 92T238 77Q294 77 314 122T356 301L423 720H442Q482 720 495 717T508 696Q508 695 495 607T461 382T435 216T420 148T401 91T376 49T340 17Q292 -7 230 -7Q87
-7 87 96Q87 114 176 720H195Q252 720 258 710Q261 706 261 697ZM360 830T341 811T298 791T259 805T244 843T264 885T308 905T346 891T360 854ZM467 905T481 891T496 854T476 811T433 791T394 805T379 843T399 885T443 905Z" />
<glyph unicode="&#xdd;" glyph-name="Yacute" horiz-adv-x="375" d="M231 0Q210 0 196 0T172 2T158 8Q148 17 148 33T195 347L122 720H154Q197 720 207 712T225 664L259 467L389 720H408Q438 720 451 718T464 709T284 344L231 0ZM412 917T427 917T476 879Q479
875 481 873L332 744L287 801L378 887Q412 917 427 917Z" />
<glyph unicode="&#xde;" glyph-name="Thorn" horiz-adv-x="395" d="M371 609T399 579T427 487T417 343T386 179T328 38T246 -19Q227 -19 135 31L100 -192Q49 -192 35 -188T21 -160Q21 -153 24 -132L152 679Q158 719 171 727T246 735L222 588L301 609Q371 609 399
579ZM226 71Q272 71 306 219T340 463Q340 528 295 529L209 508V493L150 123L146 108Q223 71 226 71Z" />
<glyph unicode="&#xdf;" glyph-name="germandbls" horiz-adv-x="524" d="M345 79Q379 79 394 105T409 172Q409 201 336 260Q308 282 285 316T262 380T268 437T287 487T325 525T384 540Q389 540 392 544Q399 555 410 623V627Q410 643 360 643H315Q258 643 246 632T223
559L145 67Q138 22 123 11T46 0L136 563Q150 657 162 677Q181 705 195 708T229 716Q254 721 323 721H373Q448 721 481 681Q494 665 494 643Q494 509 443 476Q419 460 386 460Q348 460 348 393Q348 363 425 304Q454 281 478 246T502 174Q502 0 333 -7L203 1L214
79H345Z" />
<glyph unicode="&#xe0;" glyph-name="agrave" horiz-adv-x="367" d="M85 -7T64 17T43 101T51 230T77 374T131 499T218 548Q245 548 323 522Q351 520 369 506T387 467Q387 466 314 0Q264 0 251 5T237 29Q237 31 237 34L240 67L152 -7Q85 -7 64 17ZM227 466Q197
466 173 389T139 235T129 128T133 88T152 78L255 155V172L298 434L301 445Q242 466 227 466ZM228 711Q258 738 273 738T319 701L379 618L321 566L211 696L228 711Z" />
<glyph unicode="&#xe1;" glyph-name="aacute" horiz-adv-x="367" d="M85 -7T64 17T43 101T51 230T77 374T131 499T218 548Q245 548 323 522Q351 520 369 506T387 467Q387 466 314 0Q264 0 251 5T237 29Q237 31 237 34L240 67L152 -7Q85 -7 64 17ZM227 466Q197
466 173 389T139 235T129 128T133 88T152 78L255 155V172L298 434L301 445Q242 466 227 466ZM353 738T368 738T417 700Q420 696 422 694L273 565L228 622L319 708Q353 738 368 738Z" />
<glyph unicode="&#xe2;" glyph-name="acircumflex" horiz-adv-x="367" d="M85 -7T64 17T43 101T51 230T77 374T131 499T218 548Q245 548 323 522Q351 520 369 506T387 467Q387 466 314 0Q264 0 251 5T237 29Q237 31 237 34L240 67L152 -7Q85 -7 64 17ZM227 466Q197
466 173 389T139 235T129 128T133 88T152 78L255 155V172L298 434L301 445Q242 466 227 466ZM391 585L278 654L139 583L153 669L271 732H303L405 667L391 585Z" />
<glyph unicode="&#xe3;" glyph-name="atilde" horiz-adv-x="367" d="M85 -7T64 17T43 101T51 230T77 374T131 499T218 548Q245 548 323 522Q351 520 369 506T387 467Q387 466 314 0Q264 0 251 5T237 29Q237 31 237 34L240 67L152 -7Q85 -7 64 17ZM227 466Q197
466 173 389T139 235T129 128T133 88T152 78L255 155V172L298 434L301 445Q242 466 227 466ZM476 938L586 935Q613 935 628 938L658 936L653 900Q649 870 639 865T578 860L468 863Q440 863 427 860L396 862L401 898Q408 928 417 933T476 938Z" />
<glyph unicode="&#xe4;" glyph-name="adieresis" horiz-adv-x="367" d="M85 -7T64 17T43 101T51 230T77 374T131 499T218 548Q245 548 323 522Q351 520 369 506T387 467Q387 466 314 0Q264 0 251 5T237 29Q237 31 237 34L240 67L152 -7Q85 -7 64 17ZM227 466Q197
466 173 389T139 235T129 128T133 88T152 78L255 155V172L298 434L301 445Q242 466 227 466ZM285 882T266 863T223 843T184 857T169 895T189 937T233 957T271 943T285 906ZM392 957T406 943T421 906T401 863T358 843T319 857T304 895T324 937T368 957Z" />
<glyph unicode="&#xe5;" glyph-name="aring" horiz-adv-x="367" d="M85 -7T64 17T43 101T51 230T77 374T131 499T218 548Q245 548 323 522Q351 520 369 506T387 467Q387 466 314 0Q264 0 251 5T237 29Q237 31 237 34L240 67L152 -7Q85 -7 64 17ZM227 466Q197 466
173 389T139 235T129 128T133 88T152 78L255 155V172L298 434L301 445Q242 466 227 466ZM318 739T341 717T365 657T333 588T262 556T200 578T177 638T209 707T279 739ZM296 654Q296 671 278 671Q267 671 256 663T245 644T251 629T267 623T286 632T296 654Z" />
<glyph unicode="&#xe6;" glyph-name="ae" horiz-adv-x="588" d="M469 422Q469 445 460 455T425 465T390 443T371 349L369 341Q469 343 469 422ZM499 11Q401 -7 353 -7T288 4T261 47L148 -7Q101 -7 83 9T64 68L85 229Q106 339 280 343V354Q283 371 286 386L290
410Q291 419 292 426T294 438T295 445T296 449T296 451Q296 465 264 465Q204 456 200 456Q157 456 157 499L159 526L271 544Q337 544 361 520Q393 544 435 544Q503 544 529 520T555 443Q555 424 554 409T541 363T511 313T449 277T349 261L332 114Q332 72 360 72Q406
72 509 87L499 11ZM169 233Q147 100 147 87T150 72Q170 80 241 113L265 259L266 261Q173 259 169 233Z" />
<glyph unicode="&#xe7;" glyph-name="ccedilla" horiz-adv-x="313" d="M295 460L245 465Q217 465 196 422T164 316Q145 201 145 149T153 84T184 72L284 83L274 11L199 -3L182 -117Q176 -155 165 -165T115 -175H82Q34 -175 28 -166Q25 -162 25 -148T29 -103H112L127
-2Q90 6 75 31T59 111T66 232T92 374T148 497T240 546Q247 546 352 529Q340 460 295 460Z" />
<glyph unicode="&#xe8;" glyph-name="egrave" horiz-adv-x="353" d="M183 -7Q113 -7 86 18T59 104Q59 452 194 526Q226 544 275 544T347 520T370 442Q370 394 352 334Q340 297 311 273T237 249H149V238Q143 194 143 160T144 116T149 93T163 78T207 74T321 91L310
11Q220 -7 183 -7ZM226 318Q248 318 262 341Q285 377 285 421T258 465Q215 465 195 434T165 334L159 318H226ZM204 713Q234 740 249 740T295 703L355 620L297 568L187 698L204 713Z" />
<glyph unicode="&#xe9;" glyph-name="eacute" horiz-adv-x="353" d="M183 -7Q113 -7 86 18T59 104Q59 452 194 526Q226 544 275 544T347 520T370 442Q370 394 352 334Q340 297 311 273T237 249H149V238Q143 194 143 160T144 116T149 93T163 78T207 74T321 91L310
11Q220 -7 183 -7ZM226 318Q248 318 262 341Q285 377 285 421T258 465Q215 465 195 434T165 334L159 318H226ZM313 710Q348 740 362 740T411 702Q414 698 416 696L267 567L222 624L313 710Z" />
<glyph unicode="&#xea;" glyph-name="ecircumflex" horiz-adv-x="353" d="M183 -7Q113 -7 86 18T59 104Q59 452 194 526Q226 544 275 544T347 520T370 442Q370 394 352 334Q340 297 311 273T237 249H149V238Q143 194 143 160T144 116T149 93T163 78T207 74T321
91L310 11Q220 -7 183 -7ZM226 318Q248 318 262 341Q285 377 285 421T258 465Q215 465 195 434T165 334L159 318H226ZM395 587L282 656L143 585L157 671L275 734H307L409 669L395 587Z" />
<glyph unicode="&#xeb;" glyph-name="edieresis" horiz-adv-x="353" d="M183 -7Q113 -7 86 18T59 104Q59 452 194 526Q226 544 275 544T347 520T370 442Q370 394 352 334Q340 297 311 273T237 249H149V238Q143 194 143 160T144 116T149 93T163 78T207 74T321 91L310
11Q220 -7 183 -7ZM226 318Q248 318 262 341Q285 377 285 421T258 465Q215 465 195 434T165 334L159 318H226ZM271 628T252 609T209 589T170 603T155 641T175 683T219 703T257 689T271 652ZM378 703T392 689T407 652T387 609T344 589T305 603T290 641T310 683T354
703Z" />
<glyph unicode="&#xec;" glyph-name="igrave" horiz-adv-x="211" d="M220 514L140 -4Q71 -4 64 6Q60 10 60 19L141 537Q208 537 216 528Q220 523 220 514ZM119 729Q149 756 164 756T210 719L270 636L212 584L102 714L119 729Z" />
<glyph unicode="&#xed;" glyph-name="iacute" horiz-adv-x="220" d="M224 514L144 -4Q75 -4 68 6Q64 10 64 17T144 537Q212 537 220 528Q224 523 224 514ZM267 754T282 754T331 716Q334 712 336 710L187 581L142 638L233 724Q267 754 282 754Z" />
<glyph unicode="&#xee;" glyph-name="icircumflex" horiz-adv-x="246" d="M238 513Q238 510 238 506L158 -4Q106 -4 93 0T79 20Q79 23 80 27L159 537Q211 537 224 533T238 513ZM344 597L231 666L92 595L106 681L224 744H256L358 679L344 597Z" />
<glyph unicode="&#xef;" glyph-name="idieresis" horiz-adv-x="260" d="M256 513Q256 510 255 506L176 -4Q123 -4 110 0T96 20Q96 23 97 27L177 537Q228 537 242 533T256 513ZM233 643T214 624T171 604T132 618T117 656T137 698T181 718T219 704T233 667ZM340
718T354 704T369 667T349 624T306 604T267 618T252 656T272 698T316 718Z" />
<glyph unicode="&#xf0;" glyph-name="eth" horiz-adv-x="376" d="M220 418Q186 418 164 352Q129 250 129 122Q129 97 140 88T178 79T225 104T258 180Q278 256 297 389L236 415Q227 418 220 418ZM305 531Q305 586 289 612T235 639L248 722Q331 722 365 676T400
540Q400 420 382 316T341 151T275 45T173 0Q97 0 68 22T39 102T46 222T70 352T120 462T199 505Q222 505 249 493L304 468L305 525Q305 528 305 531Z" />
<glyph unicode="&#xf1;" glyph-name="ntilde" horiz-adv-x="390" d="M256 24L314 429Q314 450 307 457T281 465L196 420V403L131 0Q63 0 56 10Q52 14 52 21T131 537H154Q209 537 211 506Q219 510 233 520Q264 544 286 544Q345 544 373 528T401 470Q401 462 336
0Q287 0 272 3T256 24ZM248 938L358 935Q385 935 400 938L430 936L425 900Q421 870 411 865T350 860L240 863Q212 863 199 860L168 862L173 898Q180 928 189 933T248 938Z" />
<glyph unicode="&#xf2;" glyph-name="ograve" horiz-adv-x="374" d="M298 38T263 16T170 -7T87 19T60 115T69 256T99 395T162 503T268 544T359 519T386 442T384 354T376 261T356 163T320 79ZM190 72Q223 72 247 115T281 222Q300 342 300 413Q300 441 290 453T256
465Q220 465 193 396Q146 277 146 125Q146 97 156 85T190 72ZM221 717Q251 744 266 744T312 707L372 624L314 572L204 702L221 717Z" />
<glyph unicode="&#xf3;" glyph-name="oacute" horiz-adv-x="374" d="M298 38T263 16T170 -7T87 19T60 115T69 256T99 395T162 503T268 544T359 519T386 442T384 354T376 261T356 163T320 79ZM190 72Q223 72 247 115T281 222Q300 342 300 413Q300 441 290 453T256
465Q220 465 193 396Q146 277 146 125Q146 97 156 85T190 72ZM348 744T363 744T412 706Q415 702 417 700L268 571L223 628L314 714Q348 744 363 744Z" />
<glyph unicode="&#xf4;" glyph-name="ocircumflex" horiz-adv-x="374" d="M298 38T263 16T170 -7T87 19T60 115T69 256T99 395T162 503T268 544T359 519T386 442T384 354T376 261T356 163T320 79ZM190 72Q223 72 247 115T281 222Q300 342 300 413Q300 441 290
453T256 465Q220 465 193 396Q146 277 146 125Q146 97 156 85T190 72ZM400 587L287 656L148 585L162 671L280 734H312L414 669L400 587Z" />
<glyph unicode="&#xf5;" glyph-name="otilde" horiz-adv-x="374" d="M240 689L366 679Q378 679 390 682L420 680L416 644Q412 614 402 609T341 603L214 613Q206 613 190 611L160 613L165 649Q169 679 178 684T240 689ZM298 52T263 30T170 7T87 33T60 129T69 270T99
409T162 517T268 558T359 533T386 456T384 368T376 275T356 177T320 93ZM190 86Q223 86 247 129T281 236Q300 356 300 427Q300 455 290 467T256 479Q220 479 193 410Q146 291 146 139Q146 111 156 99T190 86Z" />
<glyph unicode="&#xf6;" glyph-name="odieresis" horiz-adv-x="374" d="M298 38T263 16T170 -7T87 19T60 115T69 256T99 395T162 503T268 544T359 519T386 442T384 354T376 261T356 163T320 79ZM190 72Q223 72 247 115T281 222Q300 342 300 413Q300 441 290 453T256
465Q220 465 193 396Q146 277 146 125Q146 97 156 85T190 72ZM276 626T257 607T214 587T175 601T160 639T180 681T224 701T262 687T276 650ZM383 701T397 687T412 650T392 607T349 587T310 601T295 639T315 681T359 701Z" />
<glyph unicode="&#xf7;" glyph-name="divide" horiz-adv-x="275" d="M194 39T175 20T132 0T93 15T78 52T97 95T141 115T180 101T194 63ZM267 462T248 442T205 422T166 437T151 475T171 517T215 537T253 523T267 486ZM288 254H57L68 331H299L288 254Z" />
<glyph unicode="&#xf8;" glyph-name="oslash" horiz-adv-x="400" d="M86 33Q71 60 71 114T76 225T95 341T130 445T189 516T275 544Q296 544 305 543L355 633H452L380 504Q396 479 396 406T386 264T353 131T290 31T192 -7Q171 -7 161 -5L114 -89H18L86 33ZM201
72Q237 72 264 140Q310 258 310 413Q310 441 301 453T267 465Q231 465 204 396Q157 277 157 125Q157 96 166 84T201 72Z" />
<glyph unicode="&#xf9;" glyph-name="ugrave" horiz-adv-x="385" d="M387 528Q391 523 391 517T312 0Q260 0 246 4T232 31L233 41L159 -7Q43 -7 43 80Q43 88 107 537Q155 537 170 534T186 513L131 109Q131 72 157 72L249 128V145L312 537Q379 537 387 528ZM199
709Q229 736 244 736T290 699L350 616L292 564L182 694L199 709Z" />
<glyph unicode="&#xfa;" glyph-name="uacute" horiz-adv-x="385" d="M387 528Q391 523 391 517T312 0Q260 0 246 4T232 31L233 41L159 -7Q43 -7 43 80Q43 88 107 537Q155 537 170 534T186 513L131 109Q131 72 157 72L249 128V145L312 537Q379 537 387 528ZM332
744T347 744T396 706Q399 702 401 700L252 571L207 628L298 714Q332 744 347 744Z" />
<glyph unicode="&#xfb;" glyph-name="ucircumflex" horiz-adv-x="385" d="M387 528Q391 523 391 517T312 0Q260 0 246 4T232 31L233 41L159 -7Q43 -7 43 80Q43 88 107 537Q155 537 170 534T186 513L131 109Q131 72 157 72L249 128V145L312 537Q379 537 387 528ZM387
585L274 654L135 583L149 669L267 732H299L401 667L387 585Z" />
<glyph unicode="&#xfc;" glyph-name="udieresis" horiz-adv-x="385" d="M387 528Q391 523 391 517T312 0Q260 0 246 4T232 31L233 41L159 -7Q43 -7 43 80Q43 88 107 537Q155 537 170 534T186 513L131 109Q131 72 157 72L249 128V145L312 537Q379 537 387 528ZM264
624T245 605T202 585T163 599T148 637T168 679T212 699T250 685T264 648ZM371 699T385 685T400 648T380 605T337 585T298 599T283 637T303 679T347 699Z" />
<glyph unicode="&#xfd;" glyph-name="yacute" horiz-adv-x="317" d="M171 487Q171 483 171 479V110L305 537Q345 537 362 534T379 517Q379 514 292 258T198 -15Q163 -102 137 -131Q90 -185 -16 -189L-6 -116Q46 -116 75 -81T105 6L90 537Q152 537 161 530T171
487ZM303 738T318 738T367 700Q370 696 372 694L223 565L178 622L269 708Q303 738 318 738Z" />
<glyph unicode="&#xfe;" glyph-name="thorn" horiz-adv-x="386" d="M215 70Q244 70 282 201T321 398T276 465L203 467L146 107L210 72Q214 70 215 70ZM238 697L215 544H278Q351 544 379 517T407 421T386 250T322 63T233 -22Q222 -22 204 -11T135 39L109 -128Q101
-174 90 -181T15 -189L159 722Q228 722 234 712Q238 706 238 697Z" />
<glyph unicode="&#xff;" glyph-name="ydieresis" horiz-adv-x="317" d="M171 487Q171 483 171 479V110L305 537Q345 537 362 534T379 517Q379 514 292 258T198 -15Q163 -102 137 -131Q90 -185 -16 -189L-6 -116Q46 -116 75 -81T105 6L90 537Q152 537 161 530T171
487ZM507 882T488 863T445 843T406 857T391 895T411 937T455 957T493 943T507 906ZM614 957T628 943T643 906T623 863T580 843T541 857T526 895T546 937T590 957Z" />
<glyph unicode="&#x2013;" glyph-name="endash" horiz-adv-x="395" d="M379 284H92L103 361H390L379 284Z" />
<glyph unicode="&#x2014;" glyph-name="emdash" horiz-adv-x="613" d="M589 284H95L106 361H600L589 284Z" />
<glyph unicode="&#x2018;" glyph-name="quoteleft" horiz-adv-x="166" d="M252 678Q210 585 210 552T192 498T148 478T108 492T94 524T122 591T178 680T210 722L247 695L252 678Z" />
<glyph unicode="&#x2019;" glyph-name="quoteright" horiz-adv-x="164" d="M99 522Q141 616 141 648T159 701T203 722T243 708T257 671T202 564T140 478L103 505L99 522Z" />
<glyph unicode="&#x201a;" glyph-name="quotesinglbase" horiz-adv-x="164" d="M0 -85Q42 10 42 42T61 94T104 115T143 101T158 66T104 -42T42 -129L5 -102L0 -85Z" />
<glyph unicode="&#x201c;" glyph-name="quotedblleft" horiz-adv-x="343" d="M408 678Q366 585 366 552T348 498T304 478T264 492T250 528T305 636T366 722L403 695L408 678ZM271 678Q230 584 230 551T212 498T168 478T128 492T113 528T168 636T230 722L267 695L271 678Z" />
<glyph unicode="&#x201d;" glyph-name="quotedblright" horiz-adv-x="343" d="M116 522Q159 616 159 648T177 701T220 722T260 708T274 675T246 608T190 519T158 478L121 505L116 522ZM252 522Q295 616 295 648T313 701T357 722T396 708T411 671T356 564T294 478L257
505L252 522Z" />
<glyph unicode="&#x201e;" glyph-name="quotedblbase" horiz-adv-x="345" d="M18 -85Q59 10 59 42T78 94T122 115T161 101T176 66T122 -42T59 -129L22 -102L18 -85ZM156 -85Q198 10 198 42T217 94T260 115T299 101T314 66T260 -42T198 -129L161 -102L156 -85Z" />
<glyph unicode="&#x2022;" glyph-name="bullet" horiz-adv-x="222" d="M194 378T214 359T234 307T206 247T145 220T93 240T73 291T100 350T161 378Z" />
<glyph unicode="&#x2039;" glyph-name="guilsinglleft" horiz-adv-x="185" d="M178 128H97L49 288L53 318L150 474H235L127 297L178 128Z" />
<glyph unicode="&#x203a;" glyph-name="guilsinglright" horiz-adv-x="185" d="M124 128H38L145 304L95 474H175L222 313L219 283L124 128Z" />
</font>
</defs>
</svg>
