<?xml version="1.0" standalone="no"?>
<!DOCTYPE svg PUBLIC "-//W3C//DTD SVG 1.1//EN" "http://www.w3.org/Graphics/SVG/1.1/DTD/svg11.dtd">
<svg xmlns="http://www.w3.org/2000/svg">
<defs >
<font id="Kanit" horiz-adv-x="576" ><font-face
    font-family="Kanit"
    units-per-em="1000"
    panose-1="0 0 8 0 0 0 0 0 0 0"
    ascent="1100"
    descent="-395"
    alphabetic="0" />
<glyph unicode=" " glyph-name="space" horiz-adv-x="340" />
<glyph unicode="!" glyph-name="exclam" horiz-adv-x="246" d="M29 471V644H217V471L211 184H35L29 471ZM25 133H221V0H25V133Z" />
<glyph unicode="&quot;" glyph-name="quotedbl" horiz-adv-x="403" d="M25 644H179L163 419H25V644ZM224 644H378L363 419H224V644Z" />
<glyph unicode="#" glyph-name="numbersign" horiz-adv-x="711" d="M88 150H25V271H126L158 373H66V495H196L243 644H404L357 495H468L515 644H676L629 495H686V373H590L558 271H646V150H520L473 0H313L360 150H248L201 0H41L88 150ZM398 271L430 373H318L286 271H398Z" />
<glyph unicode="$" glyph-name="dollar" horiz-adv-x="555" d="M207 -8Q99 -2 34 30V180Q80 159 135 146T237 133Q289 133 313 144T337 184Q337 204 324 216T285 238T199 266Q133 287 96 312T42 372T25 461Q25 539 71 586T207 648V730H362V650Q436 643 494 625V474Q406
509 323 509Q273 509 245 499T217 462Q217 445 228 435T263 416T338 394Q415 373 456 344T514 276T530 184Q530 114 488 66T362 0V-86H207V-8Z" />
<glyph unicode="%" glyph-name="percent" horiz-adv-x="773" d="M104 344T65 384T25 492Q25 568 64 611T177 654Q251 654 290 611T330 492Q330 425 290 385T177 344Q104 344 65 384ZM465 644H643L306 0H129L465 644ZM229 442T229 496Q229 527 217 541T177 556Q150
556 138 542T126 496Q126 442 177 442Q229 442 229 496ZM522 -10T483 30T443 138Q443 213 482 256T595 299Q669 299 708 256T748 138Q748 71 708 31T595 -10Q522 -10 483 30ZM647 87T647 141Q647 172 635 186T595 201Q568 201 556 187T544 141Q544 87 595 87Q647
87 647 141Z" />
<glyph unicode="&amp;" glyph-name="ampersand" horiz-adv-x="678" d="M482 48Q449 20 397 5T283 -10Q205 -10 147 12T57 75T25 171Q25 234 57 280T155 362Q122 395 107 424T91 491Q91 564 145 609T290 654Q381 654 436 610T491 491Q491 445 471 410T408 341L508
239Q519 258 519 286V303H658V280Q658 241 646 203T613 138L663 87L547 -18L482 48ZM317 430T329 444T341 482Q341 505 329 518T292 531Q266 531 254 518T241 482Q241 461 252 446T289 413Q317 430 329 444ZM309 117T331 125T368 148L268 250Q236 237 221 220T206
176Q206 148 227 133T283 117Q309 117 331 125Z" />
<glyph unicode="&apos;" glyph-name="quotesingle" horiz-adv-x="204" d="M25 644H179L163 419H25V644Z" />
<glyph unicode="(" glyph-name="parenleft" horiz-adv-x="370" d="M89 -9T57 88T25 303Q25 419 57 516T152 678H365Q217 542 217 303Q217 64 365 -72H152Q89 -9 57 88Z" />
<glyph unicode=")" glyph-name="parenright" horiz-adv-x="370" d="M153 64T153 303Q153 542 5 678H219Q281 614 313 517T345 303Q345 186 313 89T219 -72H5Q153 64 153 303Z" />
<glyph unicode="*" glyph-name="asterisk" horiz-adv-x="444" d="M49 366L127 445L25 487L80 600L159 556L153 644H292L286 556L364 600L419 487L317 445L395 366L289 289L222 381L155 289L49 366Z" />
<glyph unicode="+" glyph-name="plus" horiz-adv-x="455" d="M155 212H25V356H155V477H300V356H430V212H300V92H155V212Z" />
<glyph unicode="," glyph-name="comma" horiz-adv-x="241" d="M59 105H216L159 -120H25L59 105Z" />
<glyph unicode="-" glyph-name="hyphen" horiz-adv-x="455" d="M25 356H430V212H25V356Z" />
<glyph unicode="." glyph-name="period" horiz-adv-x="198" d="M25 135H173V0H25V135Z" />
<glyph unicode="/" glyph-name="slash" horiz-adv-x="477" d="M259 662H452L218 0H25L259 662Z" />
<glyph unicode="0" glyph-name="zero" horiz-adv-x="666" d="M171 -10T98 73T25 322Q25 487 98 570T333 654Q495 654 568 571T641 322Q641 157 568 74T333 -10Q171 -10 98 73ZM396 150T422 192T449 322Q449 410 423 452T333 494Q270 494 244 453T217 322Q217 234
243 192T333 150Q396 150 422 192Z" />
<glyph unicode="1" glyph-name="one" horiz-adv-x="365" d="M132 470L25 454V611L320 654V0H132V470Z" />
<glyph unicode="2" glyph-name="two" horiz-adv-x="522" d="M25 86Q50 133 86 173T182 267L202 285Q260 337 279 362T299 423Q299 458 276 476T206 494Q130 494 46 459V619Q87 635 142 644T253 654Q370 654 430 599T491 446Q491 381 469 341T391 251L374 236Q340
207 318 186T282 144H497V0H25V86Z" />
<glyph unicode="3" glyph-name="three" horiz-adv-x="534" d="M190 -10T126 0T25 25V175Q65 157 113 148T206 139Q264 139 290 153T317 205Q317 261 229 261H120L132 387H223Q266 387 285 401T305 446Q305 476 280 490T201 505Q158 505 113 495T35 469V618Q73
634 128 644T237 654Q319 654 377 630T466 564T497 468Q497 422 479 384T428 324Q509 290 509 189Q509 90 435 40T236 -10Q190 -10 126 0Z" />
<glyph unicode="4" glyph-name="four" horiz-adv-x="549" d="M298 121H5V244L323 644H486V273H544V121H486V0H298V121ZM331 265V440L186 265H331Z" />
<glyph unicode="5" glyph-name="five" horiz-adv-x="524" d="M182 -10T124 -2T28 24V175Q61 159 112 150T201 140Q256 140 281 157T307 211Q307 246 288 261T221 277H25V363L42 644H459L446 500H203L197 408H270Q499 408 499 204Q499 105 431 48T231 -10Q182 -10 124 -2Z" />
<glyph unicode="6" glyph-name="six" horiz-adv-x="589" d="M25 -10T25 251V375Q25 455 61 518T167 618T329 654Q382 654 422 648T500 627V481Q436 509 347 509Q278 509 240 483T201 414V396Q226 412 264 421T336 431Q453 431 508 377T564 216Q564 112 499 51T296
-10Q25 -10 25 251ZM346 123T371 145T396 209Q396 253 374 275T299 297Q251 297 201 267V220Q201 170 225 147T297 123Q346 123 371 145Z" />
<glyph unicode="7" glyph-name="seven" horiz-adv-x="498" d="M272 500H15V644H483V536L256 0H60L272 500Z" />
<glyph unicode="8" glyph-name="eight" horiz-adv-x="610" d="M161 -10T93 39T25 187Q25 234 47 274T109 333Q76 354 59 386T41 457Q41 551 105 602T304 654Q569 654 569 457Q569 418 552 384T499 328Q585 285 585 187Q585 88 516 39T304 -10Q161 -10 93 39ZM362
391T376 407T390 453Q390 518 304 518Q261 518 240 502T219 453Q219 402 273 391L329 380Q362 391 376 407ZM357 125T381 141T406 191Q406 220 390 235T337 258L269 272Q237 264 220 247T203 197Q203 160 227 143T304 125Q357 125 381 141Z" />
<glyph unicode="9" glyph-name="nine" horiz-adv-x="589" d="M204 -10T165 -5T89 15V161Q123 146 159 140T242 134Q313 134 350 161T388 229V248Q363 232 325 222T253 212Q136 212 81 266T25 427Q25 532 90 593T293 654Q432 654 498 589T564 393V269Q564 188 528
125T422 26T260 -10Q204 -10 165 -5ZM336 346T388 377V423Q388 474 365 497T291 521Q243 521 218 499T193 434Q193 390 215 368T289 346Q336 346 388 377Z" />
<glyph unicode=":" glyph-name="colon" horiz-adv-x="197" d="M25 454H172V317H25V454ZM25 155H172V18H25V155Z" />
<glyph unicode=";" glyph-name="semicolon" horiz-adv-x="241" d="M65 454H213V317H65V454ZM59 105H216L159 -120H25L59 105Z" />
<glyph unicode="&lt;" glyph-name="less" horiz-adv-x="538" d="M25 234V389L513 605V430L225 312L513 193V18L25 234Z" />
<glyph unicode="=" glyph-name="equal" horiz-adv-x="446" d="M25 440H421V311H25V440ZM25 254H421V124H25V254Z" />
<glyph unicode="&gt;" glyph-name="greater" horiz-adv-x="538" d="M25 193L313 312L25 430V605L513 389V234L25 18V193Z" />
<glyph unicode="?" glyph-name="question" horiz-adv-x="501" d="M125 202Q125 242 140 268T190 326Q216 348 230 359Q260 382 272 397T284 435Q284 466 259 480T176 494Q133 494 93 484T25 456V612Q109 654 230 654Q348 654 412 604T476 463Q476 410 456 375T389
301L367 283Q333 257 318 239T303 196V184H125V202ZM116 133H312V0H116V133Z" />
<glyph unicode="@" glyph-name="at" horiz-adv-x="755" d="M219 -132T122 -53T25 188Q25 357 124 441T396 525Q499 525 574 493T690 399T730 253Q730 156 677 104T520 50H480Q452 32 421 24T347 15Q286 15 248 43T210 126Q210 239 354 239H445V253Q445 276 428
287T368 298Q314 298 253 280V353Q279 364 317 370T395 376Q476 376 513 343T551 238V145Q577 145 590 168T603 244Q603 332 551 377T396 422Q152 422 152 186Q152 75 212 23T386 -29Q496 -29 559 -10V-114Q483 -132 388 -132Q219 -132 122 -53ZM419 88T445 118V171H383Q353
171 341 160T329 127Q329 88 377 88Q419 88 445 118Z" />
<glyph unicode="A" glyph-name="A" horiz-adv-x="743" d="M272 644H471L718 0H522L468 137H274L221 0H25L272 644ZM443 272L371 461L299 272H443Z" />
<glyph unicode="B" glyph-name="B" horiz-adv-x="647" d="M45 644H399Q496 644 547 598T599 466Q599 418 581 383T532 328Q577 310 599 279T622 191Q622 100 566 50T407 0H45V644ZM348 387Q417 387 417 449Q417 481 400 496T343 512H226V387H348ZM356 131Q394
131 412 147T430 200Q430 232 412 247T352 263H226V131H356Z" />
<glyph unicode="C" glyph-name="C" horiz-adv-x="607" d="M209 -10T117 75T25 319Q25 482 115 568T383 654Q440 654 486 646T580 620V456Q494 494 396 494Q304 494 261 452T217 319Q217 231 262 191T398 150Q497 150 582 187V22Q489 -10 384 -10Q209 -10 117 75Z" />
<glyph unicode="D" glyph-name="D" horiz-adv-x="671" d="M45 644H333Q487 644 566 567T646 318Q646 155 567 78T333 0H45V644ZM309 144Q359 144 390 158T437 210T454 318Q454 389 439 428T393 484T309 500H233V144H309Z" />
<glyph unicode="E" glyph-name="E" horiz-adv-x="548" d="M45 644H533V500H233V395H496V249H233V144H533V0H45V644Z" />
<glyph unicode="F" glyph-name="F" horiz-adv-x="534" d="M45 644H529V504H233V393H491V251H233V0H45V644Z" />
<glyph unicode="G" glyph-name="G" horiz-adv-x="651" d="M206 -10T116 74T25 316Q25 479 118 566T390 654Q505 654 590 626V465Q512 494 403 494Q309 494 263 452T217 316Q217 230 256 190T377 150Q425 150 469 163V257H341V373H626V49Q585 23 523 7T377 -10Q206
-10 116 74Z" />
<glyph unicode="H" glyph-name="H" horiz-adv-x="688" d="M45 644H233V404H455V644H643V0H455V240H233V0H45V644Z" />
<glyph unicode="I" glyph-name="I" horiz-adv-x="278" d="M45 644H233V0H45V644Z" />
<glyph unicode="J" glyph-name="J" horiz-adv-x="447" d="M71 -10T5 13V169Q54 149 119 149Q173 149 196 171T219 244V644H407V214Q407 108 343 49T158 -10Q71 -10 5 13Z" />
<glyph unicode="K" glyph-name="K" horiz-adv-x="683" d="M45 644H233V417L428 644H642L415 380L658 0H458L299 260L233 186V0H45V644Z" />
<glyph unicode="L" glyph-name="L" horiz-adv-x="528" d="M45 644H233V144H523V0H45V644Z" />
<glyph unicode="M" glyph-name="M" horiz-adv-x="774" d="M45 644H228L388 317L547 644H729V0H541V322L438 110H337L233 322V0H45V644Z" />
<glyph unicode="N" glyph-name="N" horiz-adv-x="681" d="M45 644H205L448 303V644H636V0H475L233 340V0H45V644Z" />
<glyph unicode="O" glyph-name="O" horiz-adv-x="708" d="M191 -10T108 69T25 320Q25 496 107 575T354 654Q518 654 600 575T683 320Q683 150 600 70T354 -10Q191 -10 108 69ZM426 150T458 190T491 320Q491 414 459 454T354 494Q281 494 249 454T217 320Q217 231
249 191T354 150Q426 150 458 190Z" />
<glyph unicode="P" glyph-name="P" horiz-adv-x="614" d="M45 644H377Q491 644 550 578T609 407Q609 339 580 286T498 203T373 173H233V0H45V644ZM330 317Q372 317 394 341T417 407Q417 451 397 475T335 500H233V317H330Z" />
<glyph unicode="Q" glyph-name="Q" horiz-adv-x="708" d="M372 -172T329 -132T284 -6Q155 9 90 89T25 320Q25 496 107 575T354 654Q518 654 600 575T683 320Q683 171 620 92T431 -5Q431 -35 442 -45T480 -56Q510 -56 543 -46V-162Q510 -172 472 -172Q372 -172
329 -132ZM426 150T458 190T491 320Q491 414 459 454T354 494Q281 494 249 454T217 320Q217 231 249 191T354 150Q426 150 458 190Z" />
<glyph unicode="R" glyph-name="R" horiz-adv-x="635" d="M45 644H380Q494 644 552 582T610 415Q610 351 578 302T491 225Q502 216 510 204T528 169L602 0H406L338 155Q330 173 319 180T286 188H233V0H45V644ZM332 332Q373 332 395 353T418 415Q418 500 338 500H233V332H332Z"
/>
<glyph unicode="S" glyph-name="S" horiz-adv-x="555" d="M190 -10T132 0T34 30V185Q80 164 135 151T237 138Q291 138 314 147T338 185Q338 203 327 214T293 234T223 258Q207 262 199 265Q133 286 96 311T42 371T25 460Q25 555 93 604T293 654Q344 654 400 646T494
625V469Q406 504 323 504Q270 504 244 496T217 461Q217 444 228 434T261 417T338 395Q415 374 456 345T514 277T530 185Q530 95 461 43T256 -10Q190 -10 132 0Z" />
<glyph unicode="T" glyph-name="T" horiz-adv-x="560" d="M186 504H5V644H555V504H374V0H186V504Z" />
<glyph unicode="U" glyph-name="U" horiz-adv-x="689" d="M207 -10T124 57T40 248V644H228V268Q228 150 345 150Q461 150 461 268V644H649V248Q649 166 611 108T504 20T345 -10Q207 -10 124 57Z" />
<glyph unicode="V" glyph-name="V" horiz-adv-x="743" d="M25 644H221L371 218L521 644H718L471 0H272L25 644Z" />
<glyph unicode="W" glyph-name="W" horiz-adv-x="891" d="M25 644H209L282 303L353 547V644H507L605 302L682 644H866L717 0H547L450 333L345 0H175L25 644Z" />
<glyph unicode="X" glyph-name="X" horiz-adv-x="753" d="M263 326L34 644H258L376 475L495 644H719L490 326L728 0H501L376 175L252 0H25L263 326Z" />
<glyph unicode="Y" glyph-name="Y" horiz-adv-x="702" d="M257 236L25 644H221L351 401L481 644H677L445 236V0H257V236Z" />
<glyph unicode="Z" glyph-name="Z" horiz-adv-x="578" d="M25 94L305 500H40V644H552V546L275 144H558V0H25V94Z" />
<glyph unicode="[" glyph-name="bracketleft" horiz-adv-x="375" d="M25 706H354L359 562H213V45H360L355 -99H25V706Z" />
<glyph unicode="\" glyph-name="backslash" horiz-adv-x="498" d="M25 662H221L473 -54H278L25 662Z" />
<glyph unicode="]" glyph-name="bracketright" horiz-adv-x="375" d="M15 45H162V562H16L21 706H350V-99H20L15 45Z" />
<glyph unicode="^" glyph-name="asciicircum" horiz-adv-x="527" d="M195 624H323L502 372H329L263 488L199 372H25L195 624Z" />
<glyph unicode="_" glyph-name="underscore" horiz-adv-x="518" d="M25 0H493V-129H25V0Z" />
<glyph unicode="`" glyph-name="grave" horiz-adv-x="284" d="M25 728H171L259 522H121L25 728Z" />
<glyph unicode="a" glyph-name="a" horiz-adv-x="568" d="M120 -10T73 28T25 142Q25 218 75 259T226 300H349V309Q349 337 326 350T245 363Q163 363 83 338V451Q120 466 174 475T283 484Q399 484 463 437T528 292V0H364L355 38Q301 -10 193 -10Q120 -10 73 28ZM314
100T349 138V197H258Q226 197 211 185T196 148Q196 100 257 100Q314 100 349 138Z" />
<glyph unicode="b" glyph-name="b" horiz-adv-x="607" d="M316 -10T282 2T217 37L208 0H45V674H233V457Q257 470 289 477T355 484Q582 484 582 241Q582 117 523 54T361 -10Q316 -10 282 2ZM351 126T370 152T390 239Q390 298 370 323T307 348Q261 348 233 323V155Q264
126 307 126Q351 126 370 152Z" />
<glyph unicode="c" glyph-name="c" horiz-adv-x="506" d="M172 -10T99 52T25 237Q25 359 100 421T305 484Q359 484 400 477T480 451V319Q421 347 346 347Q280 347 249 322T217 237Q217 179 248 153T346 127Q417 127 481 160V22Q410 -10 304 -10Q172 -10 99 52Z" />
<glyph unicode="d" glyph-name="d" horiz-adv-x="607" d="M140 -10T83 45T25 222Q25 306 55 365T137 454T252 484Q285 484 317 477T374 457V674H562V0H399L390 37Q360 14 326 2T246 -10Q140 -10 83 45ZM343 126T374 155V323Q346 348 300 348Q262 348 240 315T217
221Q217 182 225 162T251 134T300 126Q343 126 374 155Z" />
<glyph unicode="e" glyph-name="e" horiz-adv-x="552" d="M178 -10T102 53T25 236Q25 352 90 418T280 484Q395 484 461 425T527 264V181H198Q210 144 247 128T352 111Q392 111 433 118T501 136V23Q431 -10 306 -10Q178 -10 102 53ZM365 283V300Q365 364 286 364Q239
364 219 344T198 283H365Z" />
<glyph unicode="f" glyph-name="f" horiz-adv-x="362" d="M66 335H5V474H66V505Q66 588 113 639T250 690Q322 690 377 667V545Q346 556 317 556Q282 556 268 543T254 501V474H366L358 335H254V0H66V335Z" />
<glyph unicode="g" glyph-name="g" horiz-adv-x="565" d="M195 -176T134 -170T39 -151V-31Q77 -44 134 -51T242 -58Q298 -58 327 -53T356 -33Q356 -21 346 -18T308 -14H183Q109 -14 70 9T31 80Q31 112 49 135T104 172Q63 193 44 225T25 306Q25 484 268 484Q291
484 322 481T369 474H555L551 360H488Q506 337 506 304Q506 229 462 188T330 146Q308 146 274 150Q220 144 220 122Q220 112 228 109T254 105H363Q437 105 478 71T520 -29Q520 -100 454 -138T253 -176Q195 -176 134 -170ZM313 249T330 263T347 314Q347 350 330
365T269 381Q228 381 210 366T191 314Q191 280 208 265T269 249Q313 249 330 263Z" />
<glyph unicode="h" glyph-name="h" horiz-adv-x="604" d="M45 674H233V445Q259 462 297 473T376 484Q473 484 518 439T564 298V0H375V284Q375 317 361 331T313 345Q292 345 270 336T233 311V0H45V674Z" />
<glyph unicode="i" glyph-name="i" horiz-adv-x="347" d="M99 673H302V537H99V673ZM114 337H45L61 474H302V0H114V337Z" />
<glyph unicode="j" glyph-name="j" horiz-adv-x="349" d="M101 673H304V537H101V673ZM46 -234T-7 -212V-87Q23 -97 53 -97Q86 -97 101 -85T116 -46V337H47L63 474H304V-60Q304 -140 259 -187T121 -234Q46 -234 -7 -212Z" />
<glyph unicode="k" glyph-name="k" horiz-adv-x="614" d="M45 674H233V341L365 474H578L389 274L589 0H389L272 176L233 137V0H45V674Z" />
<glyph unicode="l" glyph-name="l" horiz-adv-x="319" d="M120 -10T83 26T45 143V674H233V164Q233 143 241 135T270 127Q299 127 319 135V10Q292 -1 268 -5T206 -10Q120 -10 83 26Z" />
<glyph unicode="m" glyph-name="m" horiz-adv-x="861" d="M45 474H219L224 436Q294 484 378 484Q422 484 449 472T492 433Q565 484 660 484Q743 484 782 441T821 308V0H636V286Q636 318 623 331T580 345Q562 345 545 338T516 317Q518 300 518 267V0H344V289Q344
319 334 332T296 345Q261 345 227 311V0H45V474Z" />
<glyph unicode="n" glyph-name="n" horiz-adv-x="604" d="M45 474H221L226 438Q255 458 300 471T393 484Q482 484 523 440T564 304V0H376V285Q376 317 362 331T313 345Q292 345 270 336T233 311V0H45V474Z" />
<glyph unicode="o" glyph-name="o" horiz-adv-x="606" d="M25 -10T25 237Q25 358 94 421T302 484Q442 484 511 421T581 237Q581 -10 302 -10Q25 -10 25 237ZM348 127T368 153T389 237Q389 294 369 320T302 347Q257 347 237 321T217 237Q217 179 237 153T302 127Q348
127 368 153Z" />
<glyph unicode="p" glyph-name="p" horiz-adv-x="607" d="M45 474H208L217 436Q247 460 281 472T361 484Q470 484 526 429T582 249Q582 123 522 57T353 -10Q319 -10 288 -3T233 17V-216H45V474ZM390 127T390 246Q390 303 371 325T307 347Q285 347 268 340T233
319V151Q250 138 266 133T305 127Q390 127 390 246Z" />
<glyph unicode="q" glyph-name="q" horiz-adv-x="632" d="M452 -242T413 -204T374 -86V17Q351 4 319 -3T254 -10Q144 -10 85 48T25 231Q25 356 84 420T248 484Q292 484 325 472T389 436L399 474H562V-64Q562 -88 570 -97T602 -106Q625 -106 647 -98V-222Q620 -233
597 -237T535 -242Q452 -242 413 -204ZM324 127T341 133T374 151V319Q358 334 341 340T302 347Q259 347 238 320T217 234Q217 175 237 151T301 127Q324 127 341 133Z" />
<glyph unicode="r" glyph-name="r" horiz-adv-x="401" d="M45 474H226L231 436Q262 454 306 467T396 484V344Q354 341 307 331T233 308V0H45V474Z" />
<glyph unicode="s" glyph-name="s" horiz-adv-x="487" d="M171 -10T117 -2T31 20V155Q64 139 112 130T197 121Q241 121 255 123T270 140Q270 152 255 159T204 176L154 192Q85 217 55 248T25 336Q25 484 257 484Q301 484 350 477T429 461V329Q400 341 365 347T299
354Q258 354 238 351T217 334Q217 323 230 317T278 302L322 289Q376 273 406 254T449 209T462 141Q462 68 403 29T230 -10Q171 -10 117 -2Z" />
<glyph unicode="t" glyph-name="t" horiz-adv-x="380" d="M155 -10T111 36T67 168V335H5V474H67V571L255 616V474H364L357 335H255V182Q255 152 269 140T316 127Q345 127 375 137V12Q322 -10 248 -10Q155 -10 111 36Z" />
<glyph unicode="u" glyph-name="u" horiz-adv-x="604" d="M133 -10T87 37T40 175V474H228V190Q228 158 243 143T291 128Q313 128 335 138T371 163V474H559V0H383L378 36Q313 -10 217 -10Q133 -10 87 37Z" />
<glyph unicode="v" glyph-name="v" horiz-adv-x="622" d="M25 474H221L311 196L401 474H597L410 0H212L25 474Z" />
<glyph unicode="w" glyph-name="w" horiz-adv-x="783" d="M25 474H207L263 239L318 406V474H456L522 239L576 474H758L633 0H465L393 215L321 0H150L25 474Z" />
<glyph unicode="x" glyph-name="x" horiz-adv-x="621" d="M208 241L32 474H236L310 374L385 474H588L413 241L596 0H390L310 106L230 0H25L208 241Z" />
<glyph unicode="y" glyph-name="y" horiz-adv-x="642" d="M164 -176T137 -172T82 -157V-29Q108 -39 143 -39Q182 -39 201 -29T239 11L25 474H222L333 195L441 474H637L462 45Q418 -64 358 -120T204 -176Q164 -176 137 -172Z" />
<glyph unicode="z" glyph-name="z" horiz-adv-x="495" d="M25 103L224 330H32V474H463V368L270 144H470V0H25V103Z" />
<glyph unicode="{" glyph-name="braceleft" horiz-adv-x="328" d="M126 -104T94 -70T62 34V166Q62 203 49 221T5 244V352Q38 356 50 376T62 440V562Q62 632 94 666T198 701H313V557H288Q267 557 259 547T250 513V393Q250 327 202 298Q250 267 250 203V83Q250 60
258 50T288 40H313V-104H198Q126 -104 94 -70Z" />
<glyph unicode="|" glyph-name="bar" horiz-adv-x="238" d="M25 735H213V-120H25V735Z" />
<glyph unicode="}" glyph-name="braceright" horiz-adv-x="328" d="M15 40H40Q61 40 69 50T78 83V203Q78 267 126 298Q78 327 78 393V513Q78 536 70 546T40 557H15V701H130Q201 701 233 667T266 562V440Q266 396 278 376T323 352V244Q292 240 279 222T266 166V34Q266
-36 234 -70T130 -104H15V40Z" />
<glyph unicode="~" glyph-name="asciitilde" horiz-adv-x="532" d="M359 189T334 197T266 222Q229 238 202 246T145 255Q106 255 78 241T25 197V365Q42 388 74 401T145 415Q176 415 204 407T272 381Q313 364 337 357T388 349Q427 349 455 362T507 406V238Q490
214 458 202T388 189Q359 189 334 197Z" />
<glyph unicode="&#xa0;" glyph-name="uni00A0" horiz-adv-x="340" />
<glyph unicode="&#xa1;" glyph-name="exclamdown" horiz-adv-x="246" d="M25 572H221V439H25V572ZM29 101L35 388H211L217 101V-72H29V101Z" />
<glyph unicode="&#xa2;" glyph-name="cent" horiz-adv-x="506" d="M219 -2Q126 16 76 76T25 237Q25 337 76 397T219 476V560H373V480Q427 474 480 451V319Q421 347 346 347Q280 347 249 322T217 237Q217 179 248 153T346 127Q417 127 481 160V22Q433 0 373 -6V-86H219V-2Z"
/>
<glyph unicode="&#xa3;" glyph-name="sterling" horiz-adv-x="485" d="M25 139H48Q70 139 80 151T91 184V264H30V403H91V467Q91 551 142 602T282 654Q359 654 417 629V508Q387 520 346 520Q279 520 279 460V403H414L406 264H279V195Q279 174 275 162T258 139H460V0H25V139Z"
/>
<glyph unicode="&#xa4;" glyph-name="currency" horiz-adv-x="570" d="M25 135L102 191Q84 227 84 269Q84 312 102 346L26 403L107 502L187 438Q230 464 284 464Q340 464 382 437L464 501L545 403L467 346Q486 310 486 269Q486 232 467 192L544 133L464 36L382
99Q338 72 285 72Q234 72 188 98L107 35L25 135ZM312 203T331 222T351 269Q351 297 332 316T284 336Q256 336 238 317T219 269Q219 241 237 222T284 203Q312 203 331 222Z" />
<glyph unicode="&#xa5;" glyph-name="yen" horiz-adv-x="702" d="M257 65H123V171H257V211H123V317H211L25 644H221L351 401L481 644H677L491 317H578V211H445V171H578V65H445V0H257V65Z" />
<glyph unicode="&#xa6;" glyph-name="brokenbar" horiz-adv-x="238" d="M25 735H213V383H25V735ZM25 231H213V-120H25V231Z" />
<glyph unicode="&#xa7;" glyph-name="section" horiz-adv-x="555" d="M190 -10T132 0T34 30V180Q80 159 135 146T237 133Q287 133 312 144T337 184Q337 209 312 223T222 258Q204 263 199 265Q133 286 96 309T42 364T25 443Q25 463 31 482T47 514Q26 546 26 588Q26
675 92 720T293 765Q340 765 398 756T494 736V585Q406 620 320 620Q276 620 247 611T217 573Q217 556 228 546T264 527T338 505Q417 484 458 461T515 407T530 328Q530 307 524 284T508 249Q518 235 524 216T530 178Q530 86 461 38T256 -10Q190 -10 132 0ZM387 330T387
338Q387 357 362 371T279 400Q206 419 188 437Q185 431 185 421Q185 401 207 390T287 363Q368 340 384 322Q387 330 387 338Z" />
<glyph unicode="&#xa8;" glyph-name="dieresis" horiz-adv-x="406" d="M25 678H166V548H25V678ZM240 678H381V548H240V678Z" />
<glyph unicode="&#xa9;" glyph-name="copyright" horiz-adv-x="714" d="M267 -10T191 34T70 155T25 322Q25 412 69 488T190 609T357 654Q447 654 523 610T644 489T689 322Q689 232 645 156T524 35T357 -10Q267 -10 191 34ZM422 86T474 116T557 200T588 322Q588
390 558 443T475 527T357 557Q292 557 240 527T157 444T126 322Q126 254 156 200T239 116T357 86Q422 86 474 116ZM272 124T219 177T165 322Q165 384 190 429T260 497T361 521Q400 521 430 511T488 482V398Q443 425 392 425Q346 425 317 401T287 322Q287 220 389
220Q416 220 442 228T489 251V162Q432 124 359 124Q272 124 219 177Z" />
<glyph unicode="&#xaa;" glyph-name="ordfeminine" horiz-adv-x="333" d="M77 380T51 401T25 464Q25 553 136 553H204V557Q204 572 192 578T148 584Q103 584 58 570V635Q79 643 109 648T170 654Q234 654 271 628T308 547V386H213L208 406Q176 380 118 380Q77 380
51 401ZM188 443T204 465V494H162Q142 494 133 489T124 468Q124 443 156 443Q188 443 204 465Z" />
<glyph unicode="&#xab;" glyph-name="guillemotleft" horiz-adv-x="676" d="M25 250V318L295 517L366 413L191 284L366 154L295 51L25 250ZM310 250V318L580 517L651 413L476 284L651 154L580 51L310 250Z" />
<glyph unicode="&#xac;" glyph-name="logicalnot" horiz-adv-x="503" d="M333 238H25V382H478V119H333V238Z" />
<glyph unicode="&#xad;" glyph-name="uni00AD" horiz-adv-x="455" d="M25 356H430V212H25V356Z" />
<glyph unicode="&#xae;" glyph-name="registered" horiz-adv-x="714" d="M267 -10T191 34T70 155T25 322Q25 412 69 488T190 609T357 654Q447 654 523 610T644 489T689 322Q689 232 645 156T524 35T357 -10Q267 -10 191 34ZM422 86T474 116T557 200T588 322Q588
390 558 443T475 527T357 557Q292 557 240 527T157 444T126 322Q126 254 156 200T239 116T357 86Q422 86 474 116ZM216 500H403Q463 500 495 467T527 379Q527 340 509 312T456 271Q467 261 474 242L509 148H412L381 239Q376 249 370 253T349 257H317V148H216V500ZM362
333Q395 333 410 342T426 379Q426 405 412 414T367 424H317V333H362Z" />
<glyph unicode="&#xaf;" glyph-name="overscore" horiz-adv-x="378" d="M25 669H353V557H25V669Z" />
<glyph unicode="&#xb0;" glyph-name="degree" horiz-adv-x="307" d="M100 487T63 521T25 612Q25 669 62 703T153 737Q207 737 244 703T282 612Q282 556 245 522T153 487Q100 487 63 521ZM170 573T181 584T192 612Q192 628 181 639T153 650Q137 650 126 639T114
612Q114 596 125 585T153 573Q170 573 181 584Z" />
<glyph unicode="&#xb1;" glyph-name="plusminus" horiz-adv-x="455" d="M155 303H25V447H155V568H300V447H430V303H300V183H155V303ZM25 144H430V0H25V144Z" />
<glyph unicode="&#xb2;" glyph-name="uni00B2" horiz-adv-x="306" d="M25 422Q38 440 51 451T91 483Q124 508 132 516T141 537Q141 550 131 555T99 561Q70 561 30 544V634Q51 642 85 648T152 654Q212 654 245 630T279 567Q279 542 270 526T239 489L220 473Q210
465 204 459H281V370H25V422Z" />
<glyph unicode="&#xb3;" glyph-name="uni00B3" horiz-adv-x="310" d="M115 362T78 366T25 377V451Q61 435 104 435Q130 435 141 440T152 456Q152 467 143 472T113 477H67L72 540H111Q130 540 138 545T147 561Q147 579 102 579Q63 579 29 563V638Q46 644 79 649T140
654Q211 654 245 631T280 570Q280 529 250 508Q285 495 285 450Q285 362 140 362Q115 362 78 366Z" />
<glyph unicode="&#xb4;" glyph-name="acute" horiz-adv-x="284" d="M113 728H259L163 522H25L113 728Z" />
<glyph unicode="&#xb6;" glyph-name="paragraph" horiz-adv-x="669" d="M248 253Q148 253 87 308T25 477Q25 594 95 652T281 710H644V-77H476V571H415V-77H248V253Z" />
<glyph unicode="&#xb7;" glyph-name="middot" horiz-adv-x="198" d="M25 354H173V219H25V354Z" />
<glyph unicode="&#xb8;" glyph-name="cedilla" horiz-adv-x="293" d="M89 -240T63 -238T25 -232V-158Q54 -166 84 -166Q123 -166 139 -159T156 -132Q156 -113 143 -107T102 -101H39L68 0H171L156 -41Q213 -41 240 -66T268 -135Q268 -185 228 -212T107 -240Q89
-240 63 -238Z" />
<glyph unicode="&#xb9;" glyph-name="uni00B9" horiz-adv-x="222" d="M83 528L25 517V616L217 654V370H83V528Z" />
<glyph unicode="&#xba;" glyph-name="ordmasculine" horiz-adv-x="359" d="M25 380T25 517Q25 654 179 654Q334 654 334 517Q334 380 179 380Q25 380 25 517ZM203 458T213 472T224 517Q224 548 214 561T179 575Q155 575 145 562T134 517Q134 486 144 472T179 458Q203
458 213 472Z" />
<glyph unicode="&#xbb;" glyph-name="guillemotright" horiz-adv-x="676" d="M25 154L200 284L25 413L96 517L366 318V250L96 51L25 154ZM310 154L485 284L310 413L381 517L651 318V250L381 51L310 154Z" />
<glyph unicode="&#xbc;" glyph-name="onequarter" horiz-adv-x="682" d="M83 528L25 517V616L217 654V370H83V528ZM415 644H593L256 0H79L415 644ZM501 42H373V121L502 284H628V126H657V42H628V0H501V42ZM535 126V196L481 126H535Z" />
<glyph unicode="&#xbd;" glyph-name="onehalf" horiz-adv-x="695" d="M83 528L25 517V616L217 654V370H83V528ZM415 644H593L256 0H79L415 644ZM414 52Q427 70 440 81T480 113Q513 138 521 146T530 167Q530 180 520 185T488 191Q459 191 419 174V264Q440 272 474
278T541 284Q601 284 634 260T668 197Q668 172 659 156T628 119L609 103Q599 95 593 89H670V0H414V52Z" />
<glyph unicode="&#xbe;" glyph-name="threequarters" horiz-adv-x="692" d="M115 362T78 366T25 377V451Q61 435 104 435Q130 435 141 440T152 456Q152 467 143 472T113 477H67L72 540H111Q130 540 138 545T147 561Q147 579 102 579Q63 579 29 563V638Q46 644
79 649T140 654Q211 654 245 631T280 570Q280 529 250 508Q285 495 285 450Q285 362 140 362Q115 362 78 366ZM425 644H603L266 0H89L425 644ZM511 42H383V121L512 284H638V126H667V42H638V0H511V42ZM545 126V196L491 126H545Z" />
<glyph unicode="&#xbf;" glyph-name="questiondown" horiz-adv-x="501" d="M189 572H385V439H189V572ZM153 -82T89 -32T25 109Q25 162 45 197T112 271L134 289Q168 315 183 333T198 376V388H376V370Q376 330 361 304T311 246Q285 224 271 213Q241 190 229 175T217
137Q217 106 242 92T325 78Q368 78 408 88T476 116V-40Q392 -82 271 -82Q153 -82 89 -32Z" />
<glyph unicode="&#xc0;" glyph-name="Agrave" horiz-adv-x="743" d="M204 894H351L439 688H301L204 894ZM272 644H471L718 0H522L468 137H274L221 0H25L272 644ZM443 272L371 461L299 272H443Z" />
<glyph unicode="&#xc1;" glyph-name="Aacute" horiz-adv-x="743" d="M387 894H533L437 688H299L387 894ZM272 644H471L718 0H522L468 137H274L221 0H25L272 644ZM443 272L371 461L299 272H443Z" />
<glyph unicode="&#xc2;" glyph-name="Acircumflex" horiz-adv-x="743" d="M314 888H428L583 688H447L371 796L299 688H159L314 888ZM272 644H471L718 0H522L468 137H274L221 0H25L272 644ZM443 272L371 461L299 272H443Z" />
<glyph unicode="&#xc3;" glyph-name="Atilde" horiz-adv-x="743" d="M445 691T423 696T369 713Q341 723 323 728T287 733Q228 733 189 694V812Q204 826 230 835T284 845Q306 845 326 840T377 824Q404 814 424 809T465 803Q495 803 518 814T555 843V724Q545 710
521 701T468 691Q445 691 423 696ZM272 644H471L718 0H522L468 137H274L221 0H25L272 644ZM443 272L371 461L299 272H443Z" />
<glyph unicode="&#xc4;" glyph-name="Adieresis" horiz-adv-x="743" d="M198 834H329V714H198V834ZM414 834H545V714H414V834ZM272 644H471L718 0H522L468 137H274L221 0H25L272 644ZM443 272L371 461L299 272H443Z" />
<glyph unicode="&#xc5;" glyph-name="Aring" horiz-adv-x="743" d="M718 0H522L468 137H274L221 0H25L267 630Q232 667 232 722Q232 779 269 816T371 854Q436 854 473 817T510 722Q510 667 476 631L718 0ZM345 776T330 761T315 722Q315 699 330 684T371 668Q398
668 412 683T427 722Q427 745 413 760T371 776Q345 776 330 761ZM443 272L371 461L299 272H443Z" />
<glyph unicode="&#xc6;" glyph-name="AE" horiz-adv-x="859" d="M272 644H834V500H586V395H797V249H586V144H834V0H402V138H277L224 0H25L272 644ZM402 284V500H396L313 284H402Z" />
<glyph unicode="&#xc7;" glyph-name="Ccedilla" horiz-adv-x="607" d="M507 -4T429 -9L417 -41Q474 -41 501 -66T529 -135Q529 -185 489 -212T368 -240Q350 -240 324 -238T286 -232V-158Q315 -166 345 -166Q384 -166 400 -159T417 -132Q417 -113 404 -107T363
-101H300L327 -7Q180 6 103 90T25 319Q25 482 115 568T383 654Q440 654 486 646T580 620V456Q494 494 396 494Q304 494 261 452T217 319Q217 231 262 191T398 150Q497 150 582 187V22Q507 -4 429 -9Z" />
<glyph unicode="&#xc8;" glyph-name="Egrave" horiz-adv-x="548" d="M141 894H288L376 688H238L141 894ZM45 644H533V500H233V395H496V249H233V144H533V0H45V644Z" />
<glyph unicode="&#xc9;" glyph-name="Eacute" horiz-adv-x="548" d="M289 894H435L339 688H201L289 894ZM45 644H533V500H233V395H496V249H233V144H533V0H45V644Z" />
<glyph unicode="&#xca;" glyph-name="Ecircumflex" horiz-adv-x="548" d="M233 888H347L502 688H366L290 796L218 688H78L233 888ZM45 644H533V500H233V395H496V249H233V144H533V0H45V644Z" />
<glyph unicode="&#xcb;" glyph-name="Edieresis" horiz-adv-x="548" d="M120 835H251V715H120V835ZM336 835H467V715H336V835ZM45 644H533V500H233V395H496V249H233V144H533V0H45V644Z" />
<glyph unicode="&#xcc;" glyph-name="Igrave" horiz-adv-x="278" d="M-24 894H123L211 688H73L-24 894ZM45 644H233V0H45V644Z" />
<glyph unicode="&#xcd;" glyph-name="Iacute" horiz-adv-x="278" d="M153 894H299L203 688H65L153 894ZM45 644H233V0H45V644Z" />
<glyph unicode="&#xce;" glyph-name="Icircumflex" horiz-adv-x="278" d="M82 888H196L351 688H215L139 796L67 688H-73L82 888ZM45 644H233V0H45V644Z" />
<glyph unicode="&#xcf;" glyph-name="Idieresis" horiz-adv-x="278" d="M-34 842H97V722H-34V842ZM182 842H313V722H182V842ZM45 644H233V0H45V644Z" />
<glyph unicode="&#xd0;" glyph-name="Eth" horiz-adv-x="710" d="M526 644T605 567T685 318Q685 155 606 78T372 0H84V251H5V380H84V644H372Q526 644 605 567ZM398 144T429 158T476 210T493 318Q493 389 478 428T432 484T348 500H272V380H374V251H272V144H348Q398
144 429 158Z" />
<glyph unicode="&#xd1;" glyph-name="Ntilde" horiz-adv-x="681" d="M424 696T402 701T348 718Q320 728 302 733T266 738Q207 738 168 699V817Q183 831 209 840T263 850Q285 850 305 845T356 829Q383 819 403 814T444 808Q474 808 497 819T534 848V729Q524 715
500 706T447 696Q424 696 402 701ZM45 644H205L448 303V644H636V0H475L233 340V0H45V644Z" />
<glyph unicode="&#xd2;" glyph-name="Ograve" horiz-adv-x="708" d="M194 894H341L429 688H291L194 894ZM191 -10T108 69T25 320Q25 496 107 575T354 654Q518 654 600 575T683 320Q683 150 600 70T354 -10Q191 -10 108 69ZM426 150T458 190T491 320Q491 414 459
454T354 494Q281 494 249 454T217 320Q217 231 249 191T354 150Q426 150 458 190Z" />
<glyph unicode="&#xd3;" glyph-name="Oacute" horiz-adv-x="708" d="M360 894H506L410 688H272L360 894ZM191 -10T108 69T25 320Q25 496 107 575T354 654Q518 654 600 575T683 320Q683 150 600 70T354 -10Q191 -10 108 69ZM426 150T458 190T491 320Q491 414 459
454T354 494Q281 494 249 454T217 320Q217 231 249 191T354 150Q426 150 458 190Z" />
<glyph unicode="&#xd4;" glyph-name="Ocircumflex" horiz-adv-x="708" d="M298 888H412L567 688H431L355 796L283 688H143L298 888ZM191 -10T108 69T25 320Q25 496 107 575T354 654Q518 654 600 575T683 320Q683 150 600 70T354 -10Q191 -10 108 69ZM426 150T458
190T491 320Q491 414 459 454T354 494Q281 494 249 454T217 320Q217 231 249 191T354 150Q426 150 458 190Z" />
<glyph unicode="&#xd5;" glyph-name="Otilde" horiz-adv-x="708" d="M428 711T406 716T352 733Q324 743 306 748T270 753Q211 753 172 714V832Q187 846 213 855T267 865Q289 865 309 860T360 844Q387 834 407 829T448 823Q478 823 501 834T538 863V744Q528 730
504 721T451 711Q428 711 406 716ZM191 -10T108 69T25 320Q25 496 107 575T354 654Q518 654 600 575T683 320Q683 150 600 70T354 -10Q191 -10 108 69ZM426 150T458 190T491 320Q491 414 459 454T354 494Q281 494 249 454T217 320Q217 231 249 191T354 150Q426
150 458 190Z" />
<glyph unicode="&#xd6;" glyph-name="Odieresis" horiz-adv-x="708" d="M181 835H312V715H181V835ZM397 835H528V715H397V835ZM191 -10T108 69T25 320Q25 496 107 575T354 654Q518 654 600 575T683 320Q683 150 600 70T354 -10Q191 -10 108 69ZM426 150T458 190T491
320Q491 414 459 454T354 494Q281 494 249 454T217 320Q217 231 249 191T354 150Q426 150 458 190Z" />
<glyph unicode="&#xd7;" glyph-name="multiply" horiz-adv-x="426" d="M214 160L120 67L28 158L122 252L25 349L116 440L211 342L310 439L401 348L303 250L401 153L311 63L214 160Z" />
<glyph unicode="&#xd8;" glyph-name="Oslash" horiz-adv-x="708" d="M180 21Q25 90 25 320Q25 496 107 575T354 654Q390 654 428 649L445 693H547L520 626Q601 593 642 518T683 320Q683 150 600 70T354 -10Q310 -10 272 -4L253 -53H151L180 21ZM366 493L354 494Q281
494 249 454T217 320Q217 233 248 192L366 493ZM426 150T458 190T491 320Q491 418 454 459L333 151Q340 150 354 150Q426 150 458 190Z" />
<glyph unicode="&#xd9;" glyph-name="Ugrave" horiz-adv-x="689" d="M185 894H332L420 688H282L185 894ZM207 -10T124 57T40 248V644H228V268Q228 150 345 150Q461 150 461 268V644H649V248Q649 166 611 108T504 20T345 -10Q207 -10 124 57Z" />
<glyph unicode="&#xda;" glyph-name="Uacute" horiz-adv-x="689" d="M362 894H508L412 688H274L362 894ZM207 -10T124 57T40 248V644H228V268Q228 150 345 150Q461 150 461 268V644H649V248Q649 166 611 108T504 20T345 -10Q207 -10 124 57Z" />
<glyph unicode="&#xdb;" glyph-name="Ucircumflex" horiz-adv-x="689" d="M288 888H402L557 688H421L345 796L273 688H133L288 888ZM207 -10T124 57T40 248V644H228V268Q228 150 345 150Q461 150 461 268V644H649V248Q649 166 611 108T504 20T345 -10Q207 -10 124 57Z" />
<glyph unicode="&#xdc;" glyph-name="Udieresis" horiz-adv-x="689" d="M171 835H302V715H171V835ZM387 835H518V715H387V835ZM207 -10T124 57T40 248V644H228V268Q228 150 345 150Q461 150 461 268V644H649V248Q649 166 611 108T504 20T345 -10Q207 -10 124 57Z" />
<glyph unicode="&#xdd;" glyph-name="Yacute" horiz-adv-x="702" d="M366 894H512L416 688H278L366 894ZM257 236L25 644H221L351 401L481 644H677L445 236V0H257V236Z" />
<glyph unicode="&#xde;" glyph-name="Thorn" horiz-adv-x="614" d="M45 644H233V553H377Q491 553 550 489T609 321Q609 253 580 201T498 119T373 90H233V0H45V644ZM330 234Q373 234 395 257T418 321Q418 409 335 409H233V234H330Z" />
<glyph unicode="&#xdf;" glyph-name="germandbls" horiz-adv-x="647" d="M321 -10T268 12V155Q285 148 309 144T357 140Q430 140 430 203Q430 238 411 252T349 266H285V397H338Q407 397 407 467Q407 540 324 540Q272 540 247 516T221 438V0H40V448Q40 521 74 578T171
668T318 700Q408 700 471 669T567 586T599 476Q599 427 581 390T531 334Q622 297 622 191Q622 98 565 44T405 -10Q321 -10 268 12Z" />
<glyph unicode="&#xe0;" glyph-name="agrave" horiz-adv-x="568" d="M130 728H277L365 522H227L130 728ZM120 -10T73 28T25 142Q25 218 75 259T226 300H349V309Q349 337 326 350T245 363Q163 363 83 338V451Q120 466 174 475T283 484Q399 484 463 437T528 292V0H364L355
38Q301 -10 193 -10Q120 -10 73 28ZM314 100T349 138V197H258Q226 197 211 185T196 148Q196 100 257 100Q314 100 349 138Z" />
<glyph unicode="&#xe1;" glyph-name="aacute" horiz-adv-x="568" d="M303 728H449L353 522H215L303 728ZM120 -10T73 28T25 142Q25 218 75 259T226 300H349V309Q349 337 326 350T245 363Q163 363 83 338V451Q120 466 174 475T283 484Q399 484 463 437T528 292V0H364L355
38Q301 -10 193 -10Q120 -10 73 28ZM314 100T349 138V197H258Q226 197 211 185T196 148Q196 100 257 100Q314 100 349 138Z" />
<glyph unicode="&#xe2;" glyph-name="acircumflex" horiz-adv-x="568" d="M234 722H348L503 522H367L291 630L219 522H79L234 722ZM120 -10T73 28T25 142Q25 218 75 259T226 300H349V309Q349 337 326 350T245 363Q163 363 83 338V451Q120 466 174 475T283 484Q399
484 463 437T528 292V0H364L355 38Q301 -10 193 -10Q120 -10 73 28ZM314 100T349 138V197H258Q226 197 211 185T196 148Q196 100 257 100Q314 100 349 138Z" />
<glyph unicode="&#xe3;" glyph-name="atilde" horiz-adv-x="568" d="M375 530T353 535T299 552Q271 562 253 567T217 572Q158 572 119 533V651Q134 665 160 674T214 684Q236 684 256 679T307 663Q334 653 354 648T395 642Q425 642 448 653T485 682V563Q475 549
451 540T398 530Q375 530 353 535ZM120 -10T73 28T25 142Q25 218 75 259T226 300H349V309Q349 337 326 350T245 363Q163 363 83 338V451Q120 466 174 475T283 484Q399 484 463 437T528 292V0H364L355 38Q301 -10 193 -10Q120 -10 73 28ZM314 100T349 138V197H258Q226
197 211 185T196 148Q196 100 257 100Q314 100 349 138Z" />
<glyph unicode="&#xe4;" glyph-name="adieresis" horiz-adv-x="568" d="M128 669H259V549H128V669ZM344 669H475V549H344V669ZM120 -10T73 28T25 142Q25 218 75 259T226 300H349V309Q349 337 326 350T245 363Q163 363 83 338V451Q120 466 174 475T283 484Q399
484 463 437T528 292V0H364L355 38Q301 -10 193 -10Q120 -10 73 28ZM314 100T349 138V197H258Q226 197 211 185T196 148Q196 100 257 100Q314 100 349 138Z" />
<glyph unicode="&#xe5;" glyph-name="aring" horiz-adv-x="568" d="M236 522T199 559T161 653Q161 710 198 747T300 785Q365 785 402 748T439 653Q439 596 402 559T300 522Q236 522 199 559ZM327 599T341 614T356 653Q356 676 342 691T300 707Q274 707 259 692T244
653Q244 630 259 615T300 599Q327 599 341 614ZM120 -10T73 28T25 142Q25 218 75 259T226 300H349V309Q349 337 326 350T245 363Q163 363 83 338V451Q120 466 174 475T283 484Q399 484 463 437T528 292V0H364L355 38Q301 -10 193 -10Q120 -10 73 28ZM314 100T349
138V197H258Q226 197 211 185T196 148Q196 100 257 100Q314 100 349 138Z" />
<glyph unicode="&#xe6;" glyph-name="ae" horiz-adv-x="882" d="M124 -10T75 28T25 142Q25 218 75 259T226 300H349V309Q349 337 326 350T245 363Q163 363 83 338V451Q120 466 174 475T283 484Q335 484 374 474T445 444Q475 463 518 473T610 484Q725 484 791 425T857
264V181H528Q540 144 577 128T682 111Q722 111 763 118T831 136V23Q761 -10 636 -10Q577 -10 527 8T445 60Q348 -10 207 -10Q124 -10 75 28ZM695 283V300Q695 364 616 364Q571 364 551 346T528 291V283H695ZM314 100T349 135V197H258Q226 197 211 185T196 148Q196
100 257 100Q314 100 349 135Z" />
<glyph unicode="&#xe7;" glyph-name="ccedilla" horiz-adv-x="506" d="M421 -4T344 -9L332 -41Q389 -41 416 -66T444 -135Q444 -185 404 -212T283 -240Q265 -240 239 -238T201 -232V-158Q230 -166 260 -166Q299 -166 315 -159T332 -132Q332 -113 319 -107T278
-101H215L242 -6Q138 8 82 69T25 237Q25 359 100 421T305 484Q359 484 400 477T480 451V319Q421 347 346 347Q280 347 249 322T217 237Q217 179 248 153T346 127Q417 127 481 160V22Q421 -4 344 -9Z" />
<glyph unicode="&#xe8;" glyph-name="egrave" horiz-adv-x="552" d="M118 728H265L353 522H215L118 728ZM178 -10T102 53T25 236Q25 352 90 418T280 484Q395 484 461 425T527 264V181H198Q210 144 247 128T352 111Q392 111 433 118T501 136V23Q431 -10 306 -10Q178
-10 102 53ZM365 283V300Q365 364 286 364Q239 364 219 344T198 283H365Z" />
<glyph unicode="&#xe9;" glyph-name="eacute" horiz-adv-x="552" d="M305 728H451L355 522H217L305 728ZM178 -10T102 53T25 236Q25 352 90 418T280 484Q395 484 461 425T527 264V181H198Q210 144 247 128T352 111Q392 111 433 118T501 136V23Q431 -10 306 -10Q178
-10 102 53ZM365 283V300Q365 364 286 364Q239 364 219 344T198 283H365Z" />
<glyph unicode="&#xea;" glyph-name="ecircumflex" horiz-adv-x="552" d="M227 722H341L496 522H360L284 630L212 522H72L227 722ZM178 -10T102 53T25 236Q25 352 90 418T280 484Q395 484 461 425T527 264V181H198Q210 144 247 128T352 111Q392 111 433 118T501
136V23Q431 -10 306 -10Q178 -10 102 53ZM365 283V300Q365 364 286 364Q239 364 219 344T198 283H365Z" />
<glyph unicode="&#xeb;" glyph-name="edieresis" horiz-adv-x="552" d="M110 669H241V549H110V669ZM326 669H457V549H326V669ZM178 -10T102 53T25 236Q25 352 90 418T280 484Q395 484 461 425T527 264V181H198Q210 144 247 128T352 111Q392 111 433 118T501 136V23Q431
-10 306 -10Q178 -10 102 53ZM365 283V300Q365 364 286 364Q239 364 219 344T198 283H365Z" />
<glyph unicode="&#xec;" glyph-name="igrave" horiz-adv-x="347" d="M35 728H182L270 522H132L35 728ZM114 337H45L61 474H302V0H114V337Z" />
<glyph unicode="&#xed;" glyph-name="iacute" horiz-adv-x="347" d="M202 728H348L252 522H114L202 728ZM114 337H45L61 474H302V0H114V337Z" />
<glyph unicode="&#xee;" glyph-name="icircumflex" horiz-adv-x="347" d="M119 722H233L388 522H252L176 630L104 522H-36L119 722ZM114 337H45L61 474H302V0H114V337Z" />
<glyph unicode="&#xef;" glyph-name="idieresis" horiz-adv-x="347" d="M2 669H133V549H2V669ZM218 669H349V549H218V669ZM114 337H45L61 474H302V0H114V337Z" />
<glyph unicode="&#xf0;" glyph-name="eth" horiz-adv-x="571" d="M154 -10T90 44T25 202Q25 304 84 355T254 406Q288 406 325 397T388 371V395Q388 451 374 480L268 435V492L335 521Q306 536 257 536Q182 536 111 505V626Q185 654 288 654Q411 654 483 585L571
623V565L518 542Q564 471 564 366V251Q564 -10 293 -10Q154 -10 90 44ZM340 113T364 137T388 213V261Q338 291 290 291Q238 291 216 269T193 202Q193 158 217 136T291 113Q340 113 364 137Z" />
<glyph unicode="&#xf1;" glyph-name="ntilde" horiz-adv-x="604" d="M377 530T355 535T301 552Q273 562 255 567T219 572Q160 572 121 533V651Q136 665 162 674T216 684Q238 684 258 679T309 663Q336 653 356 648T397 642Q427 642 450 653T487 682V563Q477 549
453 540T400 530Q377 530 355 535ZM45 474H221L226 438Q255 458 300 471T393 484Q482 484 523 440T564 304V0H376V285Q376 317 362 331T313 345Q292 345 270 336T233 311V0H45V474Z" />
<glyph unicode="&#xf2;" glyph-name="ograve" horiz-adv-x="606" d="M137 728H284L372 522H234L137 728ZM25 -10T25 237Q25 358 94 421T302 484Q442 484 511 421T581 237Q581 -10 302 -10Q25 -10 25 237ZM348 127T368 153T389 237Q389 294 369 320T302 347Q257
347 237 321T217 237Q217 179 237 153T302 127Q348 127 368 153Z" />
<glyph unicode="&#xf3;" glyph-name="oacute" horiz-adv-x="606" d="M308 728H454L358 522H220L308 728ZM25 -10T25 237Q25 358 94 421T302 484Q442 484 511 421T581 237Q581 -10 302 -10Q25 -10 25 237ZM348 127T368 153T389 237Q389 294 369 320T302 347Q257
347 237 321T217 237Q217 179 237 153T302 127Q348 127 368 153Z" />
<glyph unicode="&#xf4;" glyph-name="ocircumflex" horiz-adv-x="606" d="M246 722H360L515 522H379L303 630L231 522H91L246 722ZM25 -10T25 237Q25 358 94 421T302 484Q442 484 511 421T581 237Q581 -10 302 -10Q25 -10 25 237ZM348 127T368 153T389 237Q389
294 369 320T302 347Q257 347 237 321T217 237Q217 179 237 153T302 127Q348 127 368 153Z" />
<glyph unicode="&#xf5;" glyph-name="otilde" horiz-adv-x="606" d="M376 545T354 550T300 567Q272 577 254 582T218 587Q159 587 120 548V666Q135 680 161 689T215 699Q237 699 257 694T308 678Q335 668 355 663T396 657Q426 657 449 668T486 697V578Q476 564
452 555T399 545Q376 545 354 550ZM25 -10T25 237Q25 358 94 421T302 484Q442 484 511 421T581 237Q581 -10 302 -10Q25 -10 25 237ZM348 127T368 153T389 237Q389 294 369 320T302 347Q257 347 237 321T217 237Q217 179 237 153T302 127Q348 127 368 153Z" />
<glyph unicode="&#xf6;" glyph-name="odieresis" horiz-adv-x="606" d="M130 669H261V549H130V669ZM346 669H477V549H346V669ZM25 -10T25 237Q25 358 94 421T302 484Q442 484 511 421T581 237Q581 -10 302 -10Q25 -10 25 237ZM348 127T368 153T389 237Q389 294
369 320T302 347Q257 347 237 321T217 237Q217 179 237 153T302 127Q348 127 368 153Z" />
<glyph unicode="&#xf7;" glyph-name="divide" horiz-adv-x="455" d="M163 529H292V411H163V529ZM25 356H430V212H25V356ZM163 159H292V42H163V159Z" />
<glyph unicode="&#xf8;" glyph-name="oslash" horiz-adv-x="606" d="M165 11Q25 61 25 237Q25 358 94 421T302 484Q318 484 350 482L368 528H464L438 463Q581 412 581 237Q581 -10 302 -10Q285 -10 253 -8L236 -53H140L165 11ZM299 353Q206 351 206 237Q206 185
223 159L299 353ZM400 123T400 237Q400 287 381 317L304 121Q400 123 400 237Z" />
<glyph unicode="&#xf9;" glyph-name="ugrave" horiz-adv-x="604" d="M152 728H299L387 522H249L152 728ZM133 -10T87 37T40 175V474H228V190Q228 158 243 143T291 128Q313 128 335 138T371 163V474H559V0H383L378 36Q313 -10 217 -10Q133 -10 87 37Z" />
<glyph unicode="&#xfa;" glyph-name="uacute" horiz-adv-x="604" d="M300 728H446L350 522H212L300 728ZM133 -10T87 37T40 175V474H228V190Q228 158 243 143T291 128Q313 128 335 138T371 163V474H559V0H383L378 36Q313 -10 217 -10Q133 -10 87 37Z" />
<glyph unicode="&#xfb;" glyph-name="ucircumflex" horiz-adv-x="604" d="M242 722H356L511 522H375L299 630L227 522H87L242 722ZM133 -10T87 37T40 175V474H228V190Q228 158 243 143T291 128Q313 128 335 138T371 163V474H559V0H383L378 36Q313 -10 217 -10Q133
-10 87 37Z" />
<glyph unicode="&#xfc;" glyph-name="udieresis" horiz-adv-x="604" d="M127 669H258V549H127V669ZM343 669H474V549H343V669ZM133 -10T87 37T40 175V474H228V190Q228 158 243 143T291 128Q313 128 335 138T371 163V474H559V0H383L378 36Q313 -10 217 -10Q133 -10 87 37Z" />
<glyph unicode="&#xfd;" glyph-name="yacute" horiz-adv-x="642" d="M346 728H492L396 522H258L346 728ZM164 -176T137 -172T82 -157V-29Q108 -39 143 -39Q182 -39 201 -29T239 11L25 474H222L333 195L441 474H637L462 45Q418 -64 358 -120T204 -176Q164 -176 137 -172Z" />
<glyph unicode="&#xfe;" glyph-name="thorn" horiz-adv-x="607" d="M45 700H233V457Q256 470 287 477T353 484Q462 484 522 423T582 237Q582 113 522 52T353 -10Q319 -10 288 -3T233 17V-216H45V700ZM348 127T369 153T390 240Q390 298 370 322T307 347Q285 347
268 340T233 319V151Q250 138 266 133T305 127Q348 127 369 153Z" />
<glyph unicode="&#xff;" glyph-name="ydieresis" horiz-adv-x="642" d="M160 690H291V570H160V690ZM376 690H507V570H376V690ZM164 -176T137 -172T82 -157V-29Q108 -39 143 -39Q182 -39 201 -29T239 11L25 474H222L333 195L441 474H637L462 45Q418 -64 358 -120T204
-176Q164 -176 137 -172Z" />
<glyph unicode="&#x2013;" glyph-name="endash" horiz-adv-x="549" d="M25 356H524V212H25V356Z" />
<glyph unicode="&#x2014;" glyph-name="emdash" horiz-adv-x="802" d="M25 356H777V212H25V356Z" />
<glyph unicode="&#x2018;" glyph-name="quoteleft" horiz-adv-x="269" d="M103 654H244L182 424H25L103 654Z" />
<glyph unicode="&#x2019;" glyph-name="quoteright" horiz-adv-x="269" d="M87 654H244L166 424H25L87 654Z" />
<glyph unicode="&#x201a;" glyph-name="quotesinglbase" horiz-adv-x="269" d="M87 33H244L166 -197H25L87 33Z" />
<glyph unicode="&#x201c;" glyph-name="quotedblleft" horiz-adv-x="431" d="M103 654H229L167 424H25L103 654ZM280 654H406L344 424H202L280 654Z" />
<glyph unicode="&#x201d;" glyph-name="quotedblright" horiz-adv-x="431" d="M87 654H229L151 424H25L87 654ZM263 654H406L328 424H202L263 654Z" />
<glyph unicode="&#x201e;" glyph-name="quotedblbase" horiz-adv-x="431" d="M87 127H229L151 -102H25L87 127ZM263 127H406L328 -102H202L263 127Z" />
<glyph unicode="&#x2022;" glyph-name="bullet" horiz-adv-x="321" d="M103 152T64 191T25 287Q25 324 43 355T92 404T160 423Q197 423 228 405T277 355T296 287Q296 250 278 219T228 170T160 152Q103 152 64 191Z" />
<glyph unicode="&#x2039;" glyph-name="guilsinglleft" horiz-adv-x="391" d="M25 250V318L295 517L366 413L191 284L366 154L295 51L25 250Z" />
<glyph unicode="&#x203a;" glyph-name="guilsinglright" horiz-adv-x="391" d="M25 154L200 284L25 413L96 517L366 318V250L96 51L25 154Z" />
</font>
</defs>
</svg>
