<?xml version="1.0" standalone="no"?>
<!DOCTYPE svg PUBLIC "-//W3C//DTD SVG 1.1//EN" "http://www.w3.org/Graphics/SVG/1.1/DTD/svg11.dtd">
<svg xmlns="http://www.w3.org/2000/svg">
<defs >
<font id="AverageSans" horiz-adv-x="500" ><font-face
    font-family="Average Sans"
    units-per-em="1000"
    panose-1="2 0 5 3 4 0 0 2 0 3"
    ascent="1027"
    descent="-269"
    alphabetic="0" />
<glyph unicode=" " glyph-name="space" horiz-adv-x="270" />
<glyph unicode="!" glyph-name="exclam" horiz-adv-x="236" d="M140 -9T118 -9T81 6T65 45T80 83T118 99T155 84T171 45T156 7ZM171 646L144 168L96 159L65 646H171Z" />
<glyph unicode="&quot;" glyph-name="quotedbl" horiz-adv-x="274" d="M25 663H115L95 438H45L25 663ZM159 663H249L229 438H179L159 663Z" />
<glyph unicode="#" glyph-name="numbersign" horiz-adv-x="523" d="M24 223V284H120L146 385H65V446H162L221 674H286L227 446H355L414 674H479L420 446H499V385H404L378 284H460V223H363L303 -9H238L298 223H170L110 -9H45L105 223H24ZM211 385L185 284H313L339
385H211Z" />
<glyph unicode="$" glyph-name="dollar" horiz-adv-x="523" d="M468 167Q468 85 410 37T253 -12H237L224 -120H179L192 -8Q105 2 55 26L79 93Q137 67 201 60L230 303L183 329Q70 391 70 493Q70 573 126 622T276 673L289 781H334L320 671Q373 666 435 646L410 580Q347
600 312 602L283 369L355 330Q468 267 468 167ZM382 159Q382 220 318 255L272 280L245 58Q309 58 345 87T382 159ZM156 500Q156 440 220 405L241 393L267 601Q215 595 186 566T156 500Z" />
<glyph unicode="%" glyph-name="percent" horiz-adv-x="795" d="M250 -10L497 675H545L298 -10H250ZM341 557T341 455T300 295T190 236T80 294T38 455T79 614T189 672T299 615ZM266 379T266 455T246 571T190 612T133 571T113 455T133 339T189 298T246 338ZM756
313T756 211T715 51T605 -8T495 50T453 211T494 370T604 428T714 371ZM681 135T681 211T661 327T605 368T548 327T528 211T548 95T604 54T661 94Z" />
<glyph unicode="&amp;" glyph-name="ampersand" horiz-adv-x="680" d="M248 -12Q161 -12 102 37T43 180Q43 255 84 304T197 390Q139 481 139 546Q139 632 190 678T313 725T437 680T490 556Q490 477 436 432Q393 396 318 361Q380 284 474 196Q523 265 543 351L624
335Q598 222 534 140Q593 87 655 37L599 -21Q536 30 479 81Q373 -12 248 -12ZM248 62Q337 62 420 136Q311 238 242 327Q189 300 160 267T131 178T164 93T248 62ZM227 596T227 546T272 425Q371 470 392 512Q402 532 402 556Q402 600 376 625T314 651T253 624Z" />
<glyph unicode="&apos;" glyph-name="quotesingle" horiz-adv-x="140" d="M25 663H115L95 438H45L25 663Z" />
<glyph unicode="(" glyph-name="parenleft" horiz-adv-x="350" d="M152 516T152 291T321 -94L267 -148Q70 40 70 291T267 730L321 676Q152 516 152 291Z" />
<glyph unicode=")" glyph-name="parenright" horiz-adv-x="350" d="M198 66T198 291T29 676L83 730Q280 542 280 291T83 -148L29 -94Q198 66 198 291Z" />
<glyph unicode="*" glyph-name="asterisk" horiz-adv-x="462" d="M259 556Q291 570 402 623L432 532L276 503Q294 484 330 446T384 388L306 331L231 469L155 332L77 388L186 503L30 533L60 624L203 557L183 713H279L259 556Z" />
<glyph unicode="+" glyph-name="plus" horiz-adv-x="523" d="M231 541H292V334H499V273H292V66H231V273H24V334H231V541Z" />
<glyph unicode="," glyph-name="comma" horiz-adv-x="214" d="M68 -135L21 -125L62 79L158 89L68 -135Z" />
<glyph unicode="-" glyph-name="hyphen" horiz-adv-x="355" d="M320 228H35V296H320V228Z" />
<glyph unicode="." glyph-name="period" horiz-adv-x="165" d="M104 -9T82 -9T45 6T30 45T45 83T82 98T119 83T135 45T120 7Z" />
<glyph unicode="/" glyph-name="slash" horiz-adv-x="290" d="M20 -140L205 701H270L85 -140H20Z" />
<glyph unicode="0" glyph-name="zero" horiz-adv-x="587" d="M527 493T527 331T464 79T294 -12T124 78T60 331T123 583T293 673T463 583ZM437 201T437 331T399 532T294 603T189 532T150 331T188 130T294 59T399 130Z" />
<glyph unicode="1" glyph-name="one" horiz-adv-x="369" d="M269 665V0H182V574L29 501L0 566L208 665H269Z" />
<glyph unicode="2" glyph-name="two" horiz-adv-x="520" d="M465 0H53L35 53Q56 73 100 114T163 173T218 226T269 280T307 329T340 380Q365 434 365 485T332 567T235 598T79 556L47 617Q143 673 241 673T397 626T455 492Q455 423 421 366Q401 333 387 311T337
249T284 194T220 131T157 70L465 76V0Z" />
<glyph unicode="3" glyph-name="three" horiz-adv-x="531" d="M350 550T321 574T235 598T103 556L72 617Q169 673 257 673T393 625T440 517T408 411T315 349V342Q391 320 422 279T453 170T396 45T238 -12T55 27L82 88Q145 58 214 58T323 97T363 187T326 274T217
310H130V376H210Q276 376 313 412T350 499Z" />
<glyph unicode="4" glyph-name="four" horiz-adv-x="515" d="M409 0H322V149H33L15 202L340 665H409V222H475V149H409V0ZM322 222V519H317L114 222H322Z" />
<glyph unicode="5" glyph-name="five" horiz-adv-x="506" d="M181 395H217Q331 395 393 335T456 193T396 50T228 -12T55 27L81 87Q142 58 211 58T323 98T366 195T323 290T199 328H94V661H434L414 581L181 585V395Z" />
<glyph unicode="6" glyph-name="six" horiz-adv-x="552" d="M334 598Q255 598 208 537T150 359Q234 394 308 394T444 346T506 212Q506 110 445 49T287 -12T125 63T60 304T132 571T334 673Q405 673 483 642L446 572Q383 598 334 598ZM340 56T378 94T416 195T381
291T294 326Q217 326 149 285Q150 180 185 118T280 56Z" />
<glyph unicode="7" glyph-name="seven" horiz-adv-x="477" d="M458 661V631L190 0H91L350 585L57 580L37 661H458Z" />
<glyph unicode="8" glyph-name="eight" horiz-adv-x="567" d="M394 510Q394 554 366 579T285 605T203 578T174 507T201 439T306 377Q394 434 394 510ZM154 170Q154 115 190 85T285 54T378 84T413 166T383 245T263 315Q154 258 154 170ZM88 503Q88 577 142 625T285
673T427 627T480 508Q480 412 366 347Q437 313 470 274T503 163T443 39T282 -12T122 40T64 170Q64 276 194 348Q142 375 115 410T88 503Z" />
<glyph unicode="9" glyph-name="nine" horiz-adv-x="551" d="M212 605T174 565T135 461T169 360T257 324Q335 324 403 367Q403 475 368 540T272 605ZM364 673T427 598T491 358T416 91T213 -12Q135 -12 50 27L77 88Q141 62 199 62Q284 62 339 119T401 291Q317 256
237 256T101 309T45 459T107 614T266 673Z" />
<glyph unicode=":" glyph-name="colon" horiz-adv-x="166" d="M105 -9T83 -9T46 6T30 45T45 83T83 99T120 84T136 45T121 7ZM105 295T83 295T46 310T30 349T45 387T83 403T120 388T136 349T121 311Z" />
<glyph unicode=";" glyph-name="semicolon" horiz-adv-x="214" d="M138 295T116 295T79 310T63 349T78 387T116 403T153 388T169 349T154 311ZM68 -135L21 -125L62 79L158 89L68 -135Z" />
<glyph unicode="&lt;" glyph-name="less" horiz-adv-x="523" d="M487 56L37 303L487 550V481L151 303L487 125V56Z" />
<glyph unicode="=" glyph-name="equal" horiz-adv-x="523" d="M24 354V415H499V354H24ZM24 192V253H499V192H24Z" />
<glyph unicode="&gt;" glyph-name="greater" horiz-adv-x="523" d="M487 303L37 56V125L373 303L37 481V550L487 303Z" />
<glyph unicode="?" glyph-name="question" horiz-adv-x="360" d="M97 165Q78 232 78 277T104 351T162 398T220 443T247 504T217 561T115 585Q82 585 50 581L58 647Q89 650 134 650T224 637T293 602Q335 560 335 513T316 434T268 383T212 346Q146 307 146 269T163
170Q99 165 97 165ZM160 -9T138 -9T101 6T85 45T100 83T138 99T175 84T191 45T176 7Z" />
<glyph unicode="@" glyph-name="at" horiz-adv-x="809" d="M610 190T647 250T684 383T626 512T460 568Q388 568 329 542T232 472Q153 382 153 262T225 72T407 2T625 90L668 35Q609 -12 536 -40T385 -68T235 -33T114 81T65 270Q65 408 166 520Q215 573 292 605T454
638T599 616T697 556Q772 480 772 379T700 203T505 127L481 202Q431 122 355 122Q310 122 280 157T249 255Q249 338 304 403T444 468Q501 468 562 436L541 184Q610 190 647 250ZM448 411Q399 411 366 367T333 274T347 205T384 184T433 210T477 285L491 401Q470
411 448 411Z" />
<glyph unicode="A" glyph-name="A" horiz-adv-x="623" d="M518 0L439 225H178L99 0H10L260 691H363L613 0H518ZM414 298L327 547L311 603H307L291 547L204 298H414Z" />
<glyph unicode="B" glyph-name="B" horiz-adv-x="553" d="M75 0V691H249Q360 691 426 645T492 510Q492 409 392 361Q453 341 488 300T523 199Q523 105 454 53T270 0H75ZM269 323H161V76H269Q431 76 431 199T269 323ZM161 389H248Q323 389 361 421T400 509T363
589T248 615H161V389Z" />
<glyph unicode="C" glyph-name="C" horiz-adv-x="612" d="M149 321Q149 206 209 134T373 62T576 113L587 37Q475 -12 367 -12T188 36T83 159T50 321Q50 489 148 596T409 703Q484 703 571 676L547 606Q478 627 409 627Q287 627 218 545T149 321Z" />
<glyph unicode="D" glyph-name="D" horiz-adv-x="693" d="M75 0V691H335Q410 691 470 664T567 592Q643 498 643 370Q643 208 545 104T284 0H75ZM324 615H161V76H284Q408 76 476 154T544 370Q544 473 487 544T324 615Z" />
<glyph unicode="E" glyph-name="E" horiz-adv-x="535" d="M75 0V691H481L462 615H161V387H445V314H161V76H500V0H75Z" />
<glyph unicode="F" glyph-name="F" horiz-adv-x="494" d="M75 0V691H464L445 615H161V387H428V314H161V0H75Z" />
<glyph unicode="G" glyph-name="G" horiz-adv-x="675" d="M409 627Q287 627 218 545T149 321Q149 206 209 134T364 62T540 98V276H392V349H625V55Q494 -12 358 -12Q259 -12 188 36T83 159T50 321Q50 489 148 596T409 703Q489 703 587 671L562 601Q481 627 409 627Z" />
<glyph unicode="H" glyph-name="H" horiz-adv-x="695" d="M534 0V314H161V0H75V691H161V387H534V691H620V0H534Z" />
<glyph unicode="I" glyph-name="I" horiz-adv-x="256" d="M85 0V691H171V0H85Z" />
<glyph unicode="J" glyph-name="J" horiz-adv-x="271" d="M186 691V-1Q186 -100 149 -150T17 -201Q-22 -201 -53 -190L-36 -121Q-15 -129 18 -129Q65 -129 82 -95T100 7V691H186Z" />
<glyph unicode="K" glyph-name="K" horiz-adv-x="571" d="M161 0H75V691H161V399L434 691H541L269 407L566 0H456L207 342L161 294V0Z" />
<glyph unicode="L" glyph-name="L" horiz-adv-x="459" d="M75 0V691H161V76H454V0H75Z" />
<glyph unicode="M" glyph-name="M" horiz-adv-x="886" d="M489 0H386L180 572H175L156 0H70L97 690H226L441 93H445L660 690H789L816 0H720L701 572H696L489 0Z" />
<glyph unicode="N" glyph-name="N" horiz-adv-x="731" d="M570 155V691H656V0H573L166 537H161V0H75V691H158L565 155H570Z" />
<glyph unicode="O" glyph-name="O" horiz-adv-x="759" d="M355 -12Q280 -12 221 16T124 91Q50 187 50 321Q50 489 147 596T404 703Q479 703 538 675T634 600Q709 504 709 370Q709 202 612 95T355 -12ZM400 628Q276 628 209 547T142 320Q142 213 199 137T360 61Q484
61 550 142T617 369Q617 476 560 552T400 628Z" />
<glyph unicode="P" glyph-name="P" horiz-adv-x="523" d="M257 267H161V0H75V691H257Q363 691 428 635T493 479T428 323T257 267ZM161 343H257Q401 343 401 479T257 615H161V343Z" />
<glyph unicode="Q" glyph-name="Q" horiz-adv-x="759" d="M50 321Q50 489 147 596T404 703Q479 703 538 675T634 600Q709 504 709 367T640 130T451 0L709 -156V-178L626 -217L348 -12Q252 -10 182 39Q50 132 50 321ZM400 631Q276 631 209 549T142 319Q142 209
199 132T360 54Q484 54 550 136T617 366Q617 476 560 553T400 631Z" />
<glyph unicode="R" glyph-name="R" horiz-adv-x="549" d="M161 281V0H75V691H257Q359 691 426 637T493 485Q493 415 456 367T356 296Q408 236 549 0H445Q306 240 269 281H161ZM161 355H257Q326 355 363 389T401 485T364 581T257 615H161V355Z" />
<glyph unicode="S" glyph-name="S" horiz-adv-x="512" d="M412 605Q342 629 282 629T184 598T146 523Q146 460 213 424L354 346Q472 280 472 176Q472 90 411 39T239 -12T40 28L65 98Q147 62 226 62T344 93T382 168Q382 231 315 267L174 345Q56 411 56 515Q56 601
117 652T281 703Q351 703 438 674L412 605Z" />
<glyph unicode="T" glyph-name="T" horiz-adv-x="492" d="M5 615V691H487V615H289V0H203V615H5Z" />
<glyph unicode="U" glyph-name="U" horiz-adv-x="660" d="M156 691V222Q156 146 209 99Q251 61 330 61Q439 61 482 138Q504 176 504 222V691H590V222Q590 119 523 54T330 -12T138 53T70 222V691H156Z" />
<glyph unicode="V" glyph-name="V" horiz-adv-x="585" d="M100 691L294 95H299L495 691H580L354 0H234L5 691H100Z" />
<glyph unicode="W" glyph-name="W" horiz-adv-x="873" d="M485 691L630 95H634L780 691H868L692 0H569L438 514H434L304 0H184L5 691H103L248 95H252L398 691H485Z" />
<glyph unicode="X" glyph-name="X" horiz-adv-x="669" d="M45 691H152L335 433L514 691H620L386 361L644 0H532L329 287L131 0H25L279 359L45 691Z" />
<glyph unicode="Y" glyph-name="Y" horiz-adv-x="558" d="M318 0H232V247L5 691H100L276 342H281L459 691H553L318 247V0Z" />
<glyph unicode="Z" glyph-name="Z" horiz-adv-x="605" d="M572 76V0H48L30 53L456 615H84L65 691H555L575 631L157 76H572Z" />
<glyph unicode="[" glyph-name="bracketleft" horiz-adv-x="350" d="M167 653V-65H301L311 -130H85V718H311L301 653H167Z" />
<glyph unicode="\" glyph-name="backslash" horiz-adv-x="290" d="M85 701L270 -140H205L20 701H85Z" />
<glyph unicode="]" glyph-name="bracketright" horiz-adv-x="350" d="M183 -65V653H49L39 718H265V-130H39L49 -65H183Z" />
<glyph unicode="^" glyph-name="asciicircum" horiz-adv-x="523" d="M235 664H286L486 265H417L261 601L105 265H36L235 664Z" />
<glyph unicode="_" glyph-name="underscore" horiz-adv-x="462" d="M7 -16H455V-80H7V-16Z" />
<glyph unicode="`" glyph-name="grave" horiz-adv-x="285" d="M180 513H116L-19 643L53 697L180 513Z" />
<glyph unicode="a" glyph-name="a" horiz-adv-x="475" d="M322 273V317Q322 398 238 398Q172 398 100 355L71 415Q155 468 252 468Q320 468 363 434T407 327V0H353L328 60Q296 27 252 8T172 -12Q110 -12 73 22T36 111Q36 273 322 273ZM137 159T131 146T124 111T142
74T191 58Q254 58 322 114V214Q196 212 156 176Q137 159 131 146Z" />
<glyph unicode="b" glyph-name="b" horiz-adv-x="526" d="M243 56Q318 56 359 107T400 230T364 345T272 389T151 355V74Q198 56 243 56ZM151 718V419Q227 462 304 462T434 400T486 236T426 62T253 -12Q167 -12 69 32V718H151Z" />
<glyph unicode="c" glyph-name="c" horiz-adv-x="412" d="M251 468Q318 468 387 438L362 376Q311 398 254 398T163 355T129 229T164 102T256 58T374 86L393 20Q323 -12 251 -12Q158 -12 100 55T41 229T99 402T251 468Z" />
<glyph unicode="d" glyph-name="d" horiz-adv-x="529" d="M379 718H461V0H407L382 60Q307 -12 228 -12T96 49T44 216T106 391T266 462Q319 462 379 438V718ZM287 394Q212 394 171 343T130 219T164 102T252 58Q282 58 316 74T379 120V376Q332 394 287 394Z" />
<glyph unicode="e" glyph-name="e" horiz-adv-x="473" d="M255 58Q327 58 399 101L428 41Q344 -12 249 -12T97 48T41 223T99 402T253 468Q340 468 390 414Q411 392 425 350T440 251L409 216H126Q129 58 255 58ZM356 335T327 369T251 403T170 370T130 279H356Q356
335 327 369Z" />
<glyph unicode="f" glyph-name="f" horiz-adv-x="310" d="M95 456V577Q95 651 130 690T221 730T342 700L313 640Q269 658 237 658Q177 658 177 578V456H301V393H177V0H95V393H27V456H95Z" />
<glyph unicode="g" glyph-name="g" horiz-adv-x="469" d="M221 129Q198 129 177 132Q152 84 152 69Q152 62 170 57L292 30Q377 11 413 -14T449 -90T414 -174Q346 -242 214 -242Q133 -242 74 -212T15 -126T95 3Q65 14 65 36T124 145Q38 182 38 300Q38 366 84 415T221
465Q273 465 312 450L452 466V399H377Q403 357 403 293T357 179T221 129ZM323 285Q323 409 222 409Q182 409 157 388Q118 354 118 304T142 219T219 185T297 217T323 285ZM95 -113Q95 -145 130 -162T221 -179T325 -157T373 -95Q373 -75 350 -63T270 -38L153 -12Q95
-70 95 -113Z" />
<glyph unicode="h" glyph-name="h" horiz-adv-x="528" d="M153 718V409Q228 468 314 468Q381 468 420 435T460 347V0H375V341Q375 367 355 381T300 395Q229 395 153 344V0H68V718H153Z" />
<glyph unicode="i" glyph-name="i" horiz-adv-x="245" d="M145 547T122 547T83 563T67 603T83 642T122 659T160 643T177 603T161 564ZM80 456H165V0H80V456Z" />
<glyph unicode="j" glyph-name="j" horiz-adv-x="242" d="M145 547T122 547T83 563T67 603T83 642T122 659T160 643T177 603T161 564ZM162 456V-89Q162 -163 127 -202T36 -242T-85 -212L-56 -152Q-12 -170 20 -170Q80 -170 80 -90V456H162Z" />
<glyph unicode="k" glyph-name="k" horiz-adv-x="459" d="M150 0H68V718H150V294L328 456H441L240 283L462 0H354L178 230L150 206V0Z" />
<glyph unicode="l" glyph-name="l" horiz-adv-x="218" d="M68 718H150V0H68V718Z" />
<glyph unicode="m" glyph-name="m" horiz-adv-x="811" d="M151 404Q225 468 315 468T438 398Q517 468 604 468Q668 468 705 434T743 345V0H658V341Q658 367 639 381T588 395Q523 395 449 342V0H364V341Q364 367 345 381T294 395Q227 395 157 344V0H72V456H126L151 404Z" />
<glyph unicode="n" glyph-name="n" horiz-adv-x="532" d="M464 345V0H379V341Q379 367 359 381T304 395Q233 395 157 344V0H72V456H126L151 404Q228 468 318 468Q385 468 424 434T464 345Z" />
<glyph unicode="o" glyph-name="o" horiz-adv-x="513" d="M259 403Q221 403 194 386T153 342Q129 291 129 233Q129 53 254 53Q292 53 319 70T360 114Q384 164 384 223Q384 403 259 403ZM259 468Q370 468 421 399T472 219Q472 139 430 71Q407 34 361 11T251 -12Q141
-12 91 54T41 231Q41 296 61 341T105 410T168 451T259 468Z" />
<glyph unicode="p" glyph-name="p" horiz-adv-x="532" d="M247 56Q322 56 363 107T404 231T369 350T271 395Q247 395 214 381T155 344V74Q202 56 247 56ZM155 -230H72V456H126L149 404Q222 468 304 468T438 404T490 238T430 62T257 -12Q207 -12 155 2V-230Z" />
<glyph unicode="q" glyph-name="q" horiz-adv-x="526" d="M458 -230H376V48Q314 -12 229 -12T93 47T41 213T103 394T263 468Q319 468 376 438L458 468V-230ZM284 400Q209 400 168 347T127 220T161 102T253 57T376 114V382Q329 400 284 400Z" />
<glyph unicode="r" glyph-name="r" horiz-adv-x="315" d="M72 456H126L151 376H155Q210 447 306 462L315 383Q268 380 224 359T157 303V0H72V456Z" />
<glyph unicode="s" glyph-name="s" horiz-adv-x="384" d="M306 376Q255 398 210 398Q123 398 123 345Q123 299 239 256Q282 240 318 206T355 124Q355 55 310 22T185 -12T29 32L54 94Q117 58 197 58Q231 58 252 72T273 112T249 155T191 187T123 217T65 264T41 335Q41
399 84 433T195 468T331 438L306 376Z" />
<glyph unicode="t" glyph-name="t" horiz-adv-x="339" d="M174 393V119Q174 59 231 59Q264 59 310 78L321 11Q272 -12 218 -12T128 20T92 120V393H29V456H92V546L154 603H174V456H303V393H174Z" />
<glyph unicode="u" glyph-name="u" horiz-adv-x="530" d="M153 456V117Q153 89 173 74T227 58Q298 58 373 114V456H458V0H404L379 60Q302 -12 208 -12Q148 -12 108 20T68 113V456H153Z" />
<glyph unicode="v" glyph-name="v" horiz-adv-x="422" d="M258 0H164L5 456H91L209 91H213L331 456H417L258 0Z" />
<glyph unicode="w" glyph-name="w" horiz-adv-x="652" d="M223 0H129L5 456H91L174 91H178L285 456H366L474 91H478L561 456H647L523 0H429L327 325H322L223 0Z" />
<glyph unicode="x" glyph-name="x" horiz-adv-x="445" d="M14 456H112L227 298L338 456H434L273 234L445 0H347L219 175L96 0H0L173 238L14 456Z" />
<glyph unicode="y" glyph-name="y" horiz-adv-x="424" d="M199 -177T172 -209T90 -242T-29 -212L2 -147Q45 -170 76 -170Q103 -170 112 -161L125 -148Q138 -135 148 -103T164 -54T173 -26L6 456H92L210 91H214L332 456H418L232 -81Q199 -177 172 -209Z" />
<glyph unicode="z" glyph-name="z" horiz-adv-x="438" d="M397 68V0H46L27 28L290 388H67L59 456H386L404 424L148 68H397Z" />
<glyph unicode="{" glyph-name="braceleft" horiz-adv-x="350" d="M211 605V430Q211 373 200 342T152 294Q188 278 199 247T211 158V-17Q211 -49 232 -57T315 -65L325 -130Q168 -130 140 -83Q127 -60 127 -12V200Q127 249 88 262Q74 267 65 267V321Q105 321 120
355Q127 369 127 388V600Q127 648 140 671Q168 718 325 718L315 653Q253 653 232 645T211 605Z" />
<glyph unicode="|" glyph-name="bar" horiz-adv-x="289" d="M112 -140V701H177V-140H112Z" />
<glyph unicode="}" glyph-name="braceright" horiz-adv-x="350" d="M139 430V605Q139 637 118 645T35 653L25 718Q182 718 210 671Q223 648 223 600V388Q223 339 262 326Q276 321 285 321V267Q245 267 230 233Q223 219 223 200V-12Q223 -60 210 -83Q182 -130 25
-130L35 -65Q97 -65 118 -57T139 -17V158Q139 215 150 246T198 294Q162 310 151 341T139 430Z" />
<glyph unicode="~" glyph-name="asciitilde" horiz-adv-x="523" d="M381 241Q341 241 262 273T138 306T56 274L25 305Q79 367 143 367Q183 367 262 335T385 302T468 334L499 303Q445 241 381 241Z" />
<glyph unicode="&#xa0;" glyph-name="nbspace" horiz-adv-x="270" />
<glyph unicode="&#xa1;" glyph-name="exclamdown" horiz-adv-x="236" d="M96 461T118 461T155 446T171 407T156 369T118 353T81 368T65 407T80 445ZM65 -194L92 284L140 293L171 -194H65Z" />
<glyph unicode="&#xa2;" glyph-name="cent" horiz-adv-x="412" d="M259 148Q313 148 374 176L393 110Q323 78 251 78H232L221 -9H176L188 87Q121 108 81 170T41 329T98 491T247 558L257 641H302L291 555Q335 550 387 528L362 466Q321 482 283 486L241 149Q247
148 259 148ZM129 321Q129 200 197 163L238 487Q187 481 158 439T129 321Z" />
<glyph unicode="&#xa3;" glyph-name="sterling" horiz-adv-x="523" d="M194 500L206 315H409V265H206Q203 164 153 70L474 76L464 0H46L28 53Q116 97 121 265H24V315H120L108 493Q108 577 157 624T303 672Q370 672 453 645L428 579Q359 602 304 602T221 574T194 500Z" />
<glyph unicode="&#xa4;" glyph-name="currency" horiz-adv-x="523" d="M115 213Q79 262 79 322T115 432L35 495L86 551L152 468Q203 504 260 504T370 468L434 549L489 496L407 431Q443 378 443 322T407 213L487 151L436 95L370 177Q320 141 260 141T151 177L89
97L33 148L115 213ZM212 438T179 405T146 322T179 240T261 207T343 240T376 322T343 404T261 438Z" />
<glyph unicode="&#xa5;" glyph-name="yen" horiz-adv-x="523" d="M55 336V386H146L9 661H99L259 327H263L423 661H513L376 386H469V336H351L305 244H469V194H301V0H221V194H54V244H217L171 336H55Z" />
<glyph unicode="&#xa6;" glyph-name="brokenbar" horiz-adv-x="289" d="M112 -140V195H177V-140H112ZM112 366V701H177V366H112Z" />
<glyph unicode="&#xa7;" glyph-name="section" d="M85 227Q85 290 118 334Q85 375 85 430Q85 508 135 557T269 606Q326 606 397 577L377 508Q334 527 286 527T206 506T175 434T228 352L338 285Q431 228 431 138Q431 76 398 30Q431 -13 431 -65Q431 -144 380 -193T235
-242T69 -202L89 -132Q155 -168 218 -168T311 -139T342 -72Q342 -18 289 14L178 81Q85 136 85 227ZM175 234Q175 181 228 149L330 86Q342 107 342 131Q342 185 289 217L185 279Q175 262 175 234Z" />
<glyph unicode="&#xa8;" glyph-name="dieresis" horiz-adv-x="464" d="M163 547T140 547T101 563T85 603T101 642T140 659T178 643T195 603T179 564ZM343 547T320 547T281 563T265 603T281 642T320 659T358 643T375 603T359 564Z" />
<glyph unicode="&#xa9;" glyph-name="copyright" horiz-adv-x="663" d="M87 580T87 479T158 307T331 235T503 306T575 479T504 651T331 723T159 652ZM215 197T133 279T50 478T132 677T331 760T530 678T613 479T531 280T332 197ZM298 615T268 579T237 485T263 395T337
363T435 390L444 341Q382 314 328 314Q255 314 216 362T176 485T224 612T352 664Q389 664 437 649L422 603Q381 615 352 615Q298 615 268 579Z" />
<glyph unicode="&#xaa;" glyph-name="ordfeminine" horiz-adv-x="315" d="M200 609Q200 652 156 652Q121 652 72 624L52 669Q105 703 156 703Q260 703 260 615V418H220L208 449Q167 411 123 411T56 432T33 488Q33 587 200 588V609ZM94 491Q94 462 128 462T200
491V543Q94 541 94 491ZM38 330V370H260V330H38Z" />
<glyph unicode="&#xab;" glyph-name="guillemotleft" horiz-adv-x="450" d="M243 44H167L49 227L167 410H243L131 227L243 44ZM400 44H324L206 227L324 410H400L288 227L400 44Z" />
<glyph unicode="&#xac;" glyph-name="logicalnot" horiz-adv-x="523" d="M24 273V334H499V66H438V273H24Z" />
<glyph unicode="&#xae;" glyph-name="registered" horiz-adv-x="663" d="M87 580T87 479T158 307T331 235T503 306T575 479T504 651T331 723T159 652ZM215 197T133 279T50 478T132 677T331 760T530 678T613 479T531 280T332 197ZM286 452V320H232V659H324Q376
659 409 632T443 555Q443 489 382 462L475 320H409L328 452H286ZM286 500H324Q385 500 385 554T324 609H286V500Z" />
<glyph unicode="&#xaf;" glyph-name="overscore" horiz-adv-x="360" d="M320 635V568H40V635H320Z" />
<glyph unicode="&#xb0;" glyph-name="degree" horiz-adv-x="281" d="M10 500T10 554T48 646T140 685T232 647T271 554T233 462T140 424T48 462ZM52 591T52 554T77 492T140 466T203 491T230 554T204 617T140 644T78 618Z" />
<glyph unicode="&#xb1;" glyph-name="plusminus" horiz-adv-x="523" d="M231 541H292V334H499V273H292V66H231V273H24V334H231V541ZM24 -60V1H499V-60H24Z" />
<glyph unicode="&#xb2;" glyph-name="twosuperior" horiz-adv-x="371" d="M327 297H58L45 340L133 430Q244 543 244 597Q244 662 182 662Q138 662 78 632L50 686Q114 725 179 725T282 694T320 605Q320 511 174 380L150 358L327 361V297Z" />
<glyph unicode="&#xb3;" glyph-name="threesuperior" horiz-adv-x="350" d="M169 662Q131 662 77 632L51 686Q119 725 176 725T266 693T299 624Q299 545 236 517Q307 487 307 414Q307 364 269 327T167 289T40 319L64 372Q111 350 150 350T210 370T231 419T211
466T152 486H89V544H147Q183 544 203 563T223 609Q223 662 169 662Z" />
<glyph unicode="&#xb4;" glyph-name="acute" horiz-adv-x="285" d="M136 513H72L199 697L271 643L136 513Z" />
<glyph unicode="&#xb5;" glyph-name="mu" horiz-adv-x="530" d="M68 456H153V117Q153 89 173 74T227 58Q298 58 373 114V456H458V0H404L379 60Q302 -12 208 -12Q180 -12 153 -4V-230L68 -240V456Z" />
<glyph unicode="&#xb6;" glyph-name="paragraph" horiz-adv-x="546" d="M241 -229V173Q154 173 92 234T30 383T92 532T241 594H471V-229H403V531H309V-229H241Z" />
<glyph unicode="&#xb7;" glyph-name="middot" horiz-adv-x="165" d="M104 209T82 209T45 224T30 263T45 301T82 316T119 301T135 263T120 225Z" />
<glyph unicode="&#xb8;" glyph-name="cedilla" horiz-adv-x="443" d="M330 -143Q330 -188 298 -215T220 -242T129 -215L145 -175Q175 -195 203 -195T249 -179T267 -141T248 -103T193 -83L184 -70L216 8H251L240 -47Q330 -77 330 -143Z" />
<glyph unicode="&#xb9;" glyph-name="onesuperior" horiz-adv-x="251" d="M198 720V297H128V642L39 599L14 655L150 720H198Z" />
<glyph unicode="&#xba;" glyph-name="ordmasculine" horiz-adv-x="338" d="M168 655Q129 655 113 626T97 560Q97 459 165 459Q205 459 221 488T237 554Q237 655 168 655ZM168 703Q236 703 267 661T298 559T268 455T164 411Q36 411 36 559Q36 606 62 650Q75 674
102 688T168 703ZM41 330V370H293V330H41Z" />
<glyph unicode="&#xbb;" glyph-name="guillemotright" horiz-adv-x="450" d="M282 44H206L318 227L206 410H282L400 227L282 44ZM125 44H49L161 227L49 410H125L243 227L125 44Z" />
<glyph unicode="&#xbc;" glyph-name="onequarter" horiz-adv-x="795" d="M210 -10L457 675H505L258 -10H210ZM218 667V244H148V589L59 546L34 602L170 667H218ZM674 0H603V90H428L416 132L619 423H674V153H715V90H674V0ZM603 153V300L502 153H603Z" />
<glyph unicode="&#xbd;" glyph-name="onehalf" horiz-adv-x="795" d="M210 -10L457 675H505L258 -10H210ZM218 667V244H148V589L59 546L34 602L170 667H218ZM746 0H477L464 43L552 133Q663 246 663 300Q663 365 601 365Q557 365 497 335L469 389Q534 428 598 428T701
397T739 308Q739 214 593 83L569 61L746 64V0Z" />
<glyph unicode="&#xbe;" glyph-name="threequarters" horiz-adv-x="795" d="M263 -10L510 675H558L311 -10H263ZM189 609Q151 609 97 579L71 633Q139 672 196 672T286 640T319 570Q319 492 256 464Q327 434 327 361Q327 311 289 274T187 236T60 266L84 319Q131
297 170 297T230 317T251 366T231 413T172 433H109V491H167Q203 491 223 510T243 556Q243 609 189 609ZM674 0H603V90H428L416 132L619 423H674V153H715V90H674V0ZM603 153V300L502 153H603Z" />
<glyph unicode="&#xbf;" glyph-name="questiondown" horiz-adv-x="335" d="M238 287Q257 220 257 175T231 101T173 54T115 9T88 -52T118 -109T220 -133Q253 -133 285 -129L277 -195Q246 -198 201 -198T111 -185T42 -150Q0 -108 0 -61T19 18T67 69T122 106Q189
145 189 183T172 282Q236 287 238 287ZM175 461T197 461T234 446T250 407T235 369T197 353T160 368T144 407T159 445Z" />
<glyph unicode="&#xc0;" glyph-name="Agrave" horiz-adv-x="623" d="M518 0L439 225H178L99 0H10L260 691H363L613 0H518ZM414 298L327 547L311 603H307L291 547L204 298H414ZM378 742H314L179 872L251 926L378 742Z" />
<glyph unicode="&#xc1;" glyph-name="Aacute" horiz-adv-x="623" d="M518 0L439 225H178L99 0H10L260 691H363L613 0H518ZM414 298L327 547L311 603H307L291 547L204 298H414ZM276 742H212L339 926L411 872L276 742Z" />
<glyph unicode="&#xc2;" glyph-name="Acircumflex" horiz-adv-x="623" d="M518 0L439 225H178L99 0H10L260 691H363L613 0H518ZM414 298L327 547L311 603H307L291 547L204 298H414ZM430 742H377L313 826H308L245 742H192L289 924H333L430 742Z" />
<glyph unicode="&#xc3;" glyph-name="Atilde" horiz-adv-x="623" d="M518 0L439 225H178L99 0H10L260 691H363L613 0H518ZM414 298L327 547L311 603H307L291 547L204 298H414ZM377 780Q352 780 304 796T237 812Q203 812 188 775L149 792Q180 885 246 885Q271 885
319 869T386 853Q420 853 435 890L474 873Q443 780 377 780Z" />
<glyph unicode="&#xc4;" glyph-name="Adieresis" horiz-adv-x="623" d="M518 0L439 225H178L99 0H10L260 691H363L613 0H518ZM414 298L327 547L311 603H307L291 547L204 298H414ZM244 776T221 776T182 792T166 832T182 872T221 888T260 872T276 833T260 793ZM424
776T401 776T362 792T346 832T362 872T401 888T440 872T456 833T440 793Z" />
<glyph unicode="&#xc5;" glyph-name="Aring" horiz-adv-x="623" d="M518 0L439 225H178L99 0H10L260 691H363L613 0H518ZM414 298L327 547L311 603H307L291 547L204 298H414ZM311 781Q355 781 355 835T310 890T264 840Q264 815 276 798T311 781ZM207 792T207 835T237
909T311 940T385 910T416 836T386 762T312 731T238 761Z" />
<glyph unicode="&#xc6;" glyph-name="AE" horiz-adv-x="886" d="M426 0V231H218L89 0H0L379 691H832L813 615H512V387H796V314H512V76H851V0H426ZM426 304V623L258 304H426Z" />
<glyph unicode="&#xc7;" glyph-name="Ccedilla" horiz-adv-x="612" d="M149 321Q149 463 218 545T409 627Q478 627 547 606L571 676Q484 703 409 703Q246 703 148 596T50 321Q50 233 83 159T187 37T367 -12T587 37L576 113Q477 62 374 62T210 134T149 321ZM455
-143Q455 -188 423 -215T345 -242T254 -215L270 -175Q300 -195 328 -195T374 -179T392 -141T373 -103T318 -83L309 -70L341 8H376L365 -47Q455 -77 455 -143Z" />
<glyph unicode="&#xc8;" glyph-name="Egrave" horiz-adv-x="535" d="M75 0V691H481L462 615H161V387H445V314H161V76H500V0H75ZM367 742H303L168 872L240 926L367 742Z" />
<glyph unicode="&#xc9;" glyph-name="Eacute" horiz-adv-x="535" d="M75 0V691H481L462 615H161V387H445V314H161V76H500V0H75ZM262 742H198L325 926L397 872L262 742Z" />
<glyph unicode="&#xca;" glyph-name="Ecircumflex" horiz-adv-x="535" d="M75 0V691H481L462 615H161V387H445V314H161V76H500V0H75ZM406 742H353L289 826H284L221 742H168L265 924H309L406 742Z" />
<glyph unicode="&#xcb;" glyph-name="Edieresis" horiz-adv-x="535" d="M75 0V691H481L462 615H161V387H445V314H161V76H500V0H75ZM220 776T197 776T158 792T142 832T158 872T197 888T236 872T252 833T236 793ZM400 776T377 776T338 792T322 832T338 872T377 888T416
872T432 833T416 793Z" />
<glyph unicode="&#xcc;" glyph-name="Igrave" horiz-adv-x="256" d="M85 0V691H171V0H85ZM227 742H163L28 872L100 926L227 742Z" />
<glyph unicode="&#xcd;" glyph-name="Iacute" horiz-adv-x="256" d="M85 0V691H171V0H85ZM93 742H29L156 926L228 872L93 742Z" />
<glyph unicode="&#xce;" glyph-name="Icircumflex" horiz-adv-x="256" d="M85 0V691H171V0H85ZM247 742H194L130 826H125L62 742H9L106 924H150L247 742Z" />
<glyph unicode="&#xcf;" glyph-name="Idieresis" horiz-adv-x="256" d="M85 0V691H171V0H85ZM61 776T38 776T-1 792T-17 832T-1 872T38 888T76 872T93 833T77 793ZM241 776T218 776T179 792T163 832T179 872T218 888T256 872T273 833T257 793Z" />
<glyph unicode="&#xd0;" glyph-name="Eth" horiz-adv-x="693" d="M75 0V691H335Q410 691 470 664T567 592Q643 498 643 370Q643 208 545 104T284 0H75ZM324 615H161V76H284Q408 76 476 154T544 370Q544 473 487 544T324 615ZM382 315H0V369H382V315Z" />
<glyph unicode="&#xd1;" glyph-name="Ntilde" horiz-adv-x="731" d="M570 155V691H656V0H573L166 537H161V0H75V691H158L565 155H570ZM431 780Q406 780 358 796T291 812Q257 812 242 775L203 792Q234 885 300 885Q325 885 373 869T440 853Q474 853 489 890L528
873Q497 780 431 780Z" />
<glyph unicode="&#xd2;" glyph-name="Ograve" horiz-adv-x="759" d="M355 -12Q280 -12 221 16T124 91Q50 187 50 321Q50 489 147 596T404 703Q479 703 538 675T634 600Q709 504 709 370Q709 202 612 95T355 -12ZM400 628Q276 628 209 547T142 320Q142 213 199
137T360 61Q484 61 550 142T617 369Q617 476 560 552T400 628ZM479 742H415L280 872L352 926L479 742Z" />
<glyph unicode="&#xd3;" glyph-name="Oacute" horiz-adv-x="759" d="M355 -12Q280 -12 221 16T124 91Q50 187 50 321Q50 489 147 596T404 703Q479 703 538 675T634 600Q709 504 709 370Q709 202 612 95T355 -12ZM400 628Q276 628 209 547T142 320Q142 213 199
137T360 61Q484 61 550 142T617 369Q617 476 560 552T400 628ZM374 742H310L437 926L509 872L374 742Z" />
<glyph unicode="&#xd4;" glyph-name="Ocircumflex" horiz-adv-x="759" d="M355 -12Q280 -12 221 16T124 91Q50 187 50 321Q50 489 147 596T404 703Q479 703 538 675T634 600Q709 504 709 370Q709 202 612 95T355 -12ZM400 628Q276 628 209 547T142 320Q142 213
199 137T360 61Q484 61 550 142T617 369Q617 476 560 552T400 628ZM498 742H445L381 826H376L313 742H260L357 924H401L498 742Z" />
<glyph unicode="&#xd5;" glyph-name="Otilde" horiz-adv-x="759" d="M355 -12Q280 -12 221 16T124 91Q50 187 50 321Q50 489 147 596T404 703Q479 703 538 675T634 600Q709 504 709 370Q709 202 612 95T355 -12ZM400 628Q276 628 209 547T142 320Q142 213 199
137T360 61Q484 61 550 142T617 369Q617 476 560 552T400 628ZM445 780Q420 780 372 796T305 812Q271 812 256 775L217 792Q248 885 314 885Q339 885 387 869T454 853Q488 853 503 890L542 873Q511 780 445 780Z" />
<glyph unicode="&#xd6;" glyph-name="Odieresis" horiz-adv-x="759" d="M355 -12Q280 -12 221 16T124 91Q50 187 50 321Q50 489 147 596T404 703Q479 703 538 675T634 600Q709 504 709 370Q709 202 612 95T355 -12ZM400 628Q276 628 209 547T142 320Q142 213 199
137T360 61Q484 61 550 142T617 369Q617 476 560 552T400 628ZM312 776T289 776T250 792T234 832T250 872T289 888T328 872T344 833T328 793ZM492 776T469 776T430 792T414 832T430 872T469 888T508 872T524 833T508 793Z" />
<glyph unicode="&#xd7;" glyph-name="multiply" horiz-adv-x="523" d="M443 529L487 486L305 304L486 123L443 79L261 260L81 80L37 123L218 304L37 485L80 529L261 347L443 529Z" />
<glyph unicode="&#xd8;" glyph-name="Oslash" horiz-adv-x="759" d="M48 -81L644 760H709L113 -81H48ZM355 -12Q280 -12 221 16T124 91Q50 187 50 321Q50 489 147 596T404 703Q479 703 538 675T634 600Q709 504 709 370Q709 202 612 95T355 -12ZM400 628Q276 628
209 547T142 320Q142 213 199 137T360 61Q484 61 550 142T617 369Q617 476 560 552T400 628Z" />
<glyph unicode="&#xd9;" glyph-name="Ugrave" horiz-adv-x="660" d="M156 691V222Q156 146 209 99Q251 61 330 61Q439 61 482 138Q504 176 504 222V691H590V222Q590 119 523 54T330 -12T138 53T70 222V691H156ZM409 742H345L210 872L282 926L409 742Z" />
<glyph unicode="&#xda;" glyph-name="Uacute" horiz-adv-x="660" d="M156 691V222Q156 146 209 99Q251 61 330 61Q439 61 482 138Q504 176 504 222V691H590V222Q590 119 523 54T330 -12T138 53T70 222V691H156ZM334 742H270L397 926L469 872L334 742Z" />
<glyph unicode="&#xdb;" glyph-name="Ucircumflex" horiz-adv-x="660" d="M156 691V222Q156 146 209 99Q251 61 330 61Q439 61 482 138Q504 176 504 222V691H590V222Q590 119 523 54T330 -12T138 53T70 222V691H156ZM449 742H396L332 826H327L264 742H211L308
924H352L449 742Z" />
<glyph unicode="&#xdc;" glyph-name="Udieresis" horiz-adv-x="660" d="M156 691V222Q156 146 209 99Q251 61 330 61Q439 61 482 138Q504 176 504 222V691H590V222Q590 119 523 54T330 -12T138 53T70 222V691H156ZM263 776T240 776T201 792T185 832T201 872T240
888T278 872T295 833T279 793ZM443 776T420 776T381 792T365 832T381 872T420 888T458 872T475 833T459 793Z" />
<glyph unicode="&#xdd;" glyph-name="Yacute" horiz-adv-x="558" d="M318 0H232V247L5 691H100L276 342H281L459 691H553L318 247V0ZM284 742H220L347 926L419 872L284 742Z" />
<glyph unicode="&#xde;" glyph-name="Thorn" horiz-adv-x="523" d="M75 0V691H161V557H257Q363 557 428 501T493 345T428 189T257 133H161V0H75ZM161 209H257Q401 209 401 345T257 481H161V209Z" />
<glyph unicode="&#xdf;" glyph-name="germandbls" horiz-adv-x="552" d="M455 580Q455 538 435 501T394 435T374 383T391 337T432 293T480 248Q537 192 537 128Q537 87 519 58T472 14Q355 -42 211 22L237 86Q299 56 356 56Q456 56 456 127Q456 162 398 215Q374
237 350 261Q293 320 293 383Q293 420 313 454T354 518T374 570Q374 609 344 633T274 658T206 632T177 554V0H95V393H27V456H95V554Q95 637 149 683T276 730T402 692T455 580Z" />
<glyph unicode="&#xe0;" glyph-name="agrave" horiz-adv-x="475" d="M322 273V317Q322 398 238 398Q172 398 100 355L71 415Q155 468 252 468Q320 468 363 434T407 327V0H353L328 60Q296 27 252 8T172 -12Q110 -12 73 22T36 111Q36 273 322 273ZM137 159T131 146T124
111T142 74T191 58Q254 58 322 114V214Q196 212 156 176Q137 159 131 146ZM322 513H258L123 643L195 697L322 513Z" />
<glyph unicode="&#xe1;" glyph-name="aacute" horiz-adv-x="475" d="M322 273V317Q322 398 238 398Q172 398 100 355L71 415Q155 468 252 468Q320 468 363 434T407 327V0H353L328 60Q296 27 252 8T172 -12Q110 -12 73 22T36 111Q36 273 322 273ZM137 159T131 146T124
111T142 74T191 58Q254 58 322 114V214Q196 212 156 176Q137 159 131 146ZM259 513H195L322 697L394 643L259 513Z" />
<glyph unicode="&#xe2;" glyph-name="acircumflex" horiz-adv-x="475" d="M322 273V317Q322 398 238 398Q172 398 100 355L71 415Q155 468 252 468Q320 468 363 434T407 327V0H353L328 60Q296 27 252 8T172 -12Q110 -12 73 22T36 111Q36 273 322 273ZM137 159T131
146T124 111T142 74T191 58Q254 58 322 114V214Q196 212 156 176Q137 159 131 146ZM366 513H313L249 597H244L181 513H128L225 695H269L366 513Z" />
<glyph unicode="&#xe3;" glyph-name="atilde" horiz-adv-x="475" d="M322 273V317Q322 398 238 398Q172 398 100 355L71 415Q155 468 252 468Q320 468 363 434T407 327V0H353L328 60Q296 27 252 8T172 -12Q110 -12 73 22T36 111Q36 273 322 273ZM137 159T131 146T124
111T142 74T191 58Q254 58 322 114V214Q196 212 156 176Q137 159 131 146ZM312 551Q287 551 239 567T172 583Q138 583 123 546L84 563Q115 656 181 656Q206 656 254 640T321 624Q355 624 370 661L409 644Q378 551 312 551Z" />
<glyph unicode="&#xe4;" glyph-name="adieresis" horiz-adv-x="475" d="M322 273V317Q322 398 238 398Q172 398 100 355L71 415Q155 468 252 468Q320 468 363 434T407 327V0H353L328 60Q296 27 252 8T172 -12Q110 -12 73 22T36 111Q36 273 322 273ZM137 159T131
146T124 111T142 74T191 58Q254 58 322 114V214Q196 212 156 176Q137 159 131 146ZM181 547T158 547T119 563T103 603T119 642T158 659T196 643T213 603T197 564ZM361 547T338 547T299 563T283 603T299 642T338 659T376 643T393 603T377 564Z" />
<glyph unicode="&#xe5;" glyph-name="aring" horiz-adv-x="475" d="M322 273V317Q322 398 238 398Q172 398 100 355L71 415Q155 468 252 468Q320 468 363 434T407 327V0H353L328 60Q296 27 252 8T172 -12Q110 -12 73 22T36 111Q36 273 322 273ZM137 159T131 146T124
111T142 74T191 58Q254 58 322 114V214Q196 212 156 176Q137 159 131 146ZM248 552Q292 552 292 606T247 661T201 611Q201 586 213 569T248 552ZM205 502T175 532T144 606T175 680T249 711T322 681T353 606T323 532T249 502Z" />
<glyph unicode="&#xe6;" glyph-name="ae" horiz-adv-x="754" d="M536 58Q608 58 680 101L709 41Q625 -12 528 -12Q413 -12 361 71Q316 26 264 7T172 -12Q110 -12 73 22T36 111Q36 273 322 273V317Q322 398 238 398Q172 398 100 355L71 415Q155 468 250 468T386
408Q443 468 534 468Q621 468 672 414Q692 392 706 350T721 251L690 216H407Q410 58 536 58ZM137 159T131 146T124 111T142 74T191 58Q254 58 322 114V214Q196 212 156 176Q137 159 131 146ZM637 335T608 369T532 403T451 370T411 279H637Q637 335 608 369Z" />
<glyph unicode="&#xe7;" glyph-name="ccedilla" horiz-adv-x="412" d="M251 468Q318 468 387 438L362 376Q311 398 254 398T163 355T129 229T164 102T256 58T374 86L393 20Q323 -12 251 -12Q158 -12 100 55T41 229T99 402T251 468ZM309 -143Q309 -188 277 -215T199
-242T108 -215L124 -175Q154 -195 182 -195T228 -179T246 -141T227 -103T172 -83L163 -70L195 8H230L219 -47Q309 -77 309 -143Z" />
<glyph unicode="&#xe8;" glyph-name="egrave" horiz-adv-x="473" d="M255 58Q327 58 399 101L428 41Q344 -12 249 -12T97 48T41 223T99 402T253 468Q340 468 390 414Q411 392 425 350T440 251L409 216H126Q129 58 255 58ZM356 335T327 369T251 403T170 370T130
279H356Q356 335 327 369ZM324 513H260L125 643L197 697L324 513Z" />
<glyph unicode="&#xe9;" glyph-name="eacute" horiz-adv-x="473" d="M255 58Q327 58 399 101L428 41Q344 -12 249 -12T97 48T41 223T99 402T253 468Q340 468 390 414Q411 392 425 350T440 251L409 216H126Q129 58 255 58ZM356 335T327 369T251 403T170 370T130
279H356Q356 335 327 369ZM256 513H192L319 697L391 643L256 513Z" />
<glyph unicode="&#xea;" glyph-name="ecircumflex" horiz-adv-x="473" d="M255 58Q327 58 399 101L428 41Q344 -12 249 -12T97 48T41 223T99 402T253 468Q340 468 390 414Q411 392 425 350T440 251L409 216H126Q129 58 255 58ZM356 335T327 369T251 403T170 370T130
279H356Q356 335 327 369ZM361 513H308L244 597H239L176 513H123L220 695H264L361 513Z" />
<glyph unicode="&#xeb;" glyph-name="edieresis" horiz-adv-x="473" d="M255 58Q327 58 399 101L428 41Q344 -12 249 -12T97 48T41 223T99 402T253 468Q340 468 390 414Q411 392 425 350T440 251L409 216H126Q129 58 255 58ZM356 335T327 369T251 403T170 370T130
279H356Q356 335 327 369ZM175 547T152 547T113 563T97 603T113 642T152 659T190 643T207 603T191 564ZM355 547T332 547T293 563T277 603T293 642T332 659T370 643T387 603T371 564Z" />
<glyph unicode="&#xec;" glyph-name="igrave" horiz-adv-x="245" d="M80 456H165V0H80V456ZM182 513H118L-17 643L55 697L182 513Z" />
<glyph unicode="&#xed;" glyph-name="iacute" horiz-adv-x="245" d="M139 513H75L202 697L274 643L139 513ZM80 456H165V0H80V456Z" />
<glyph unicode="&#xee;" glyph-name="icircumflex" horiz-adv-x="245" d="M80 456H165V0H80V456ZM241 513H188L124 597H119L56 513H3L100 695H144L241 513Z" />
<glyph unicode="&#xef;" glyph-name="idieresis" horiz-adv-x="245" d="M80 456H165V0H80V456ZM55 547T32 547T-7 563T-23 603T-7 642T32 659T70 643T87 603T71 564ZM235 547T212 547T173 563T157 603T173 642T212 659T250 643T267 603T251 564Z" />
<glyph unicode="&#xf0;" glyph-name="eth" horiz-adv-x="513" d="M259 403Q221 403 194 386T153 342Q129 291 129 233Q129 53 254 53Q292 53 319 70T360 114Q384 164 384 223Q384 403 259 403ZM472 219Q472 139 430 71Q407 34 361 11T251 -12Q141 -12 91 54T41
231Q41 296 61 341T105 410T168 451T252 468T324 456L329 460Q284 528 214 588T66 687L92 730Q261 643 366 510T472 219ZM323 673L105 509V566L323 730V673Z" />
<glyph unicode="&#xf1;" glyph-name="ntilde" horiz-adv-x="532" d="M464 345V0H379V341Q379 367 359 381T304 395Q233 395 157 344V0H72V456H126L151 404Q228 468 318 468Q385 468 424 434T464 345ZM341 551Q316 551 268 567T201 583Q167 583 152 546L113 563Q144
656 210 656Q235 656 283 640T350 624Q384 624 399 661L438 644Q407 551 341 551Z" />
<glyph unicode="&#xf2;" glyph-name="ograve" horiz-adv-x="513" d="M259 403Q221 403 194 386T153 342Q129 291 129 233Q129 53 254 53Q292 53 319 70T360 114Q384 164 384 223Q384 403 259 403ZM259 468Q370 468 421 399T472 219Q472 139 430 71Q407 34 361
11T251 -12Q141 -12 91 54T41 231Q41 296 61 341T105 410T168 451T259 468ZM314 513H250L115 643L187 697L314 513Z" />
<glyph unicode="&#xf3;" glyph-name="oacute" horiz-adv-x="513" d="M259 403Q221 403 194 386T153 342Q129 291 129 233Q129 53 254 53Q292 53 319 70T360 114Q384 164 384 223Q384 403 259 403ZM259 468Q370 468 421 399T472 219Q472 139 430 71Q407 34 361
11T251 -12Q141 -12 91 54T41 231Q41 296 61 341T105 410T168 451T259 468ZM251 513H187L314 697L386 643L251 513Z" />
<glyph unicode="&#xf4;" glyph-name="ocircumflex" horiz-adv-x="513" d="M259 403Q221 403 194 386T153 342Q129 291 129 233Q129 53 254 53Q292 53 319 70T360 114Q384 164 384 223Q384 403 259 403ZM259 468Q370 468 421 399T472 219Q472 139 430 71Q407 34
361 11T251 -12Q141 -12 91 54T41 231Q41 296 61 341T105 410T168 451T259 468ZM375 513H322L258 597H253L190 513H137L234 695H278L375 513Z" />
<glyph unicode="&#xf5;" glyph-name="otilde" horiz-adv-x="513" d="M259 403Q221 403 194 386T153 342Q129 291 129 233Q129 53 254 53Q292 53 319 70T360 114Q384 164 384 223Q384 403 259 403ZM259 468Q370 468 421 399T472 219Q472 139 430 71Q407 34 361
11T251 -12Q141 -12 91 54T41 231Q41 296 61 341T105 410T168 451T259 468ZM322 551Q297 551 249 567T182 583Q148 583 133 546L94 563Q125 656 191 656Q216 656 264 640T331 624Q365 624 380 661L419 644Q388 551 322 551Z" />
<glyph unicode="&#xf6;" glyph-name="odieresis" horiz-adv-x="513" d="M259 403Q221 403 194 386T153 342Q129 291 129 233Q129 53 254 53Q292 53 319 70T360 114Q384 164 384 223Q384 403 259 403ZM259 468Q370 468 421 399T472 219Q472 139 430 71Q407 34 361
11T251 -12Q141 -12 91 54T41 231Q41 296 61 341T105 410T168 451T259 468ZM189 547T166 547T127 563T111 603T127 642T166 659T204 643T221 603T205 564ZM369 547T346 547T307 563T291 603T307 642T346 659T384 643T401 603T385 564Z" />
<glyph unicode="&#xf7;" glyph-name="divide" horiz-adv-x="523" d="M24 273V334H499V273H24ZM283 398T261 398T224 413T209 452T224 490T261 505T298 490T314 452T299 414ZM283 101T261 101T224 116T209 155T224 193T261 208T298 193T314 155T299 117Z" />
<glyph unicode="&#xf8;" glyph-name="oslash" horiz-adv-x="513" d="M39 -69L425 520H490L104 -69H39ZM259 403Q221 403 194 386T153 342Q129 291 129 233Q129 53 254 53Q292 53 319 70T360 114Q384 164 384 223Q384 403 259 403ZM259 468Q370 468 421 399T472
219Q472 139 430 71Q407 34 361 11T251 -12Q141 -12 91 54T41 231Q41 296 61 341T105 410T168 451T259 468Z" />
<glyph unicode="&#xf9;" glyph-name="ugrave" horiz-adv-x="530" d="M153 456V117Q153 89 173 74T227 58Q298 58 373 114V456H458V0H404L379 60Q302 -12 208 -12Q148 -12 108 20T68 113V456H153ZM318 513H254L119 643L191 697L318 513Z" />
<glyph unicode="&#xfa;" glyph-name="uacute" horiz-adv-x="530" d="M153 456V117Q153 89 173 74T227 58Q298 58 373 114V456H458V0H404L379 60Q302 -12 208 -12Q148 -12 108 20T68 113V456H153ZM274 513H210L337 697L409 643L274 513Z" />
<glyph unicode="&#xfb;" glyph-name="ucircumflex" horiz-adv-x="530" d="M153 456V117Q153 89 173 74T227 58Q298 58 373 114V456H458V0H404L379 60Q302 -12 208 -12Q148 -12 108 20T68 113V456H153ZM384 513H331L267 597H262L199 513H146L243 695H287L384 513Z" />
<glyph unicode="&#xfc;" glyph-name="udieresis" horiz-adv-x="530" d="M153 456V117Q153 89 173 74T227 58Q298 58 373 114V456H458V0H404L379 60Q302 -12 208 -12Q148 -12 108 20T68 113V456H153ZM198 547T175 547T136 563T120 603T136 642T175 659T214 643T230
603T214 564ZM378 547T355 547T316 563T300 603T316 642T355 659T394 643T410 603T394 564Z" />
<glyph unicode="&#xfd;" glyph-name="yacute" horiz-adv-x="424" d="M199 -177T172 -209T90 -242T-29 -212L2 -147Q45 -170 76 -170Q103 -170 112 -161L125 -148Q138 -135 148 -103T164 -54T173 -26L6 456H92L210 91H214L332 456H418L232 -81Q199 -177 172 -209ZM237
513H173L300 697L372 643L237 513Z" />
<glyph unicode="&#xfe;" glyph-name="thorn" horiz-adv-x="532" d="M72 718H155V409Q225 468 305 468T438 404T490 238T430 62T257 -12Q207 -12 155 2V-230H72V718ZM247 56Q322 56 363 107T404 231T369 350T271 395Q247 395 214 381T155 344V74Q202 56 247 56Z" />
<glyph unicode="&#xff;" glyph-name="ydieresis" horiz-adv-x="424" d="M199 -177T172 -209T90 -242T-29 -212L2 -147Q45 -170 76 -170Q103 -170 112 -161L125 -148Q138 -135 148 -103T164 -54T173 -26L6 456H92L210 91H214L332 456H418L232 -81Q199 -177 172
-209ZM145 547T122 547T83 563T67 603T83 642T122 659T160 643T177 603T161 564ZM325 547T302 547T263 563T247 603T263 642T302 659T340 643T357 603T341 564Z" />
<glyph unicode="&#x2013;" glyph-name="endash" horiz-adv-x="560" d="M-7 294H567V230H-7V294Z" />
<glyph unicode="&#x2014;" glyph-name="emdash" horiz-adv-x="838" d="M-7 294H845V230H-7V294Z" />
<glyph unicode="&#x2018;" glyph-name="quoteleft" horiz-adv-x="207" d="M125 671L172 661L131 457L35 447L125 671Z" />
<glyph unicode="&#x2019;" glyph-name="quoteright" horiz-adv-x="207" d="M82 447L35 457L76 661L172 671L82 447Z" />
<glyph unicode="&#x201a;" glyph-name="quotesinglbase" horiz-adv-x="207" d="M82 -126L35 -116L76 88L172 98L82 -126Z" />
<glyph unicode="&#x201c;" glyph-name="quotedblleft" horiz-adv-x="344" d="M262 671L309 661L268 457L172 447L262 671ZM125 671L172 661L131 457L35 447L125 671Z" />
<glyph unicode="&#x201d;" glyph-name="quotedblright" horiz-adv-x="344" d="M82 447L35 457L76 661L172 671L82 447ZM219 447L172 457L213 661L309 671L219 447Z" />
<glyph unicode="&#x201e;" glyph-name="quotedblbase" horiz-adv-x="344" d="M82 -127L35 -117L76 87L172 97L82 -127ZM219 -127L172 -117L213 87L309 97L219 -127Z" />
<glyph unicode="&#x2022;" glyph-name="bullet" horiz-adv-x="398" d="M70 303T70 356T108 447T199 485T290 447T328 356T290 265T199 227T108 265Z" />
<glyph unicode="&#x2039;" glyph-name="guilsinglleft" horiz-adv-x="293" d="M243 44H167L49 227L167 410H243L131 227L243 44Z" />
<glyph unicode="&#x203a;" glyph-name="guilsinglright" horiz-adv-x="293" d="M125 44H49L161 227L49 410H125L243 227L125 44Z" />
</font>
</defs>
</svg>
