<?xml version="1.0" standalone="no"?>
<!DOCTYPE svg PUBLIC "-//W3C//DTD SVG 1.1//EN" "http://www.w3.org/Graphics/SVG/1.1/DTD/svg11.dtd">
<svg xmlns="http://www.w3.org/2000/svg">
<defs >
<font id="ProzaLibre" horiz-adv-x="1271" ><font-face
    font-family="Proza Libre"
    units-per-em="2048"
    panose-1="2 0 8 5 0 0 0 9 0 4"
    ascent="2030"
    descent="-750"
    alphabetic="0" />
<glyph unicode=" " glyph-name="space" horiz-adv-x="405" />
<glyph unicode="!" glyph-name="exclam" horiz-adv-x="747" d="M256 579L286 1465H663L492 579H256ZM308 -20Q269 -20 236 -6T178 33T139 92T125 166Q125 216 145 258T198 331T275 379T363 397Q402 397 435 383T493 343T532 284T546 210Q546 160 526 118T472 45T395
-3T308 -20Z" />
<glyph unicode="&quot;" glyph-name="quotedbl" horiz-adv-x="1276" d="M162 873Q250 960 313 1049T407 1227Q382 1257 339 1282T251 1319Q247 1333 246 1351T244 1387Q244 1437 264 1479T317 1553T393 1601T481 1619Q517 1619 550 1607T610 1568T651 1502T667
1408Q667 1353 648 1285T584 1140T461 978T268 801L162 873ZM737 873Q825 960 889 1049T982 1227Q957 1257 914 1282T827 1319Q823 1333 822 1351T820 1387Q820 1437 840 1479T893 1553T968 1601T1056 1619Q1092 1619 1125 1607T1185 1568T1226 1502T1242 1408Q1242
1353 1224 1285T1159 1140T1037 978T844 801L737 873Z" />
<glyph unicode="#" glyph-name="numbersign" horiz-adv-x="1787" d="M374 316H118L186 538H441L558 926H302L369 1149H624L719 1465H944L849 1149H1234L1329 1465H1555L1460 1149H1715L1649 926H1394L1277 538H1532L1465 316H1210L1116 0H890L984 316H599L505
0H280L374 316ZM666 538H1051L1168 926H783L666 538Z" />
<glyph unicode="$" glyph-name="dollar" horiz-adv-x="1377" d="M599 218Q650 218 697 229T781 262T839 319T861 401Q861 449 836 484T770 546T677 598T569 647T462 702T368 774T302 869T277 998Q277 1086 307 1161T394 1294T528 1392T703 1451L745 1814H977L937
1465Q967 1465 1005 1461T1085 1450T1170 1434T1253 1413L1175 1178L1156 1170Q1111 1191 1066 1205T978 1229T900 1243T836 1247Q789 1247 749 1236T679 1204T632 1152T615 1081Q615 1034 640 1000T706 938T800 886T908 837T1016 781T1110 710T1177 615T1202 486Q1202
400 1172 326T1086 191T951 88T773 21L730 -350H498L538 0Q494 0 443 6T336 25T226 54T121 95L199 331L221 341Q327 287 418 253T599 218Z" />
<glyph unicode="%" glyph-name="percent" horiz-adv-x="2265" d="M1577 1465H1848L734 0H464L1577 1465ZM570 644Q489 644 425 670T315 742T245 854T221 997Q221 1104 260 1194T365 1348T519 1449T707 1485Q788 1485 852 1459T962 1387T1032 1275T1057 1131Q1057
1024 1019 935T914 781T759 680T570 644ZM618 849Q653 849 684 866T738 916T774 993T787 1093Q787 1134 778 1168T753 1227T713 1265T659 1279Q624 1279 593 1262T539 1213T503 1136T490 1035Q490 994 499 960T524 901T564 863T618 849ZM1605 -20Q1524 -20 1460
6T1350 78T1280 190T1256 333Q1256 440 1294 530T1399 684T1554 785T1742 821Q1823 821 1887 795T1997 722T2067 610T2092 467Q2092 360 2054 271T1949 117T1794 16T1605 -20ZM1653 185Q1688 185 1719 202T1773 252T1809 329T1822 429Q1822 470 1813 504T1788 563T1748
601T1694 615Q1659 615 1628 598T1574 549T1538 472T1525 371Q1525 330 1534 296T1559 237T1599 199T1653 185Z" />
<glyph unicode="&amp;" glyph-name="ampersand" horiz-adv-x="1564" d="M1199 1207Q1199 1136 1169 1070T1088 944T972 835T836 746Q890 683 943 627T1063 509Q1090 547 1109 579T1143 642T1170 706T1197 782H1446Q1401 674 1347 577T1224 389Q1285 339 1341 299T1459
218L1270 -26Q1208 16 1147 62T1030 158Q983 115 932 82T824 27T701 -8T561 -20Q451 -20 366 5T222 76T133 183T102 319Q102 398 132 462T213 581T329 679T466 762Q406 834 369 916T331 1083Q331 1172 372 1246T482 1373T645 1455T843 1485Q927 1485 993 1466T1104
1410T1174 1322T1199 1207ZM885 285Q846 324 809 360T735 435T662 515T590 603Q517 561 478 506T439 382Q439 297 498 248T661 198Q718 198 777 217T885 285ZM625 1107Q625 1079 633 1052T656 998T687 946T723 895Q765 919 802 947T866 1008T909 1074T925 1145Q925
1200 890 1233T793 1267Q756 1267 726 1255T673 1221T638 1170T625 1107Z" />
<glyph unicode="&apos;" glyph-name="quotesingle" horiz-adv-x="700" d="M162 873Q250 960 313 1049T407 1227Q382 1257 339 1282T251 1319Q247 1333 246 1351T244 1387Q244 1437 264 1479T317 1553T393 1601T481 1619Q517 1619 550 1607T610 1568T651 1502T667
1408Q667 1353 648 1285T584 1140T461 978T268 801L162 873Z" />
<glyph unicode="(" glyph-name="parenleft" horiz-adv-x="881" d="M892 1500Q806 1400 737 1285T618 1039T543 760T516 445Q516 232 562 53T692 -257L526 -373Q365 -210 282 -4T198 456Q198 808 340 1102T753 1617L892 1500Z" />
<glyph unicode=")" glyph-name="parenright" horiz-adv-x="882" d="M11 -257Q98 -157 167 -42T285 204T360 483T387 798Q387 1012 341 1191T211 1500L378 1617Q539 1454 622 1248T705 788Q705 434 564 142T151 -373L11 -257Z" />
<glyph unicode="*" glyph-name="asterisk" horiz-adv-x="1167" d="M548 1052L540 1067L184 999L234 1218L552 1159L564 1174L351 1449L575 1537L653 1218H673L817 1537L1027 1455L750 1174L757 1159L1117 1222L1066 1002L746 1062L735 1047L941 766L716 674L647
1004H627L484 681L273 763L548 1052Z" />
<glyph unicode="+" glyph-name="plus" horiz-adv-x="1304" d="M556 704L602 1102H835L789 704H1175L1149 479H763L718 81H485L531 479H145L170 704H556Z" />
<glyph unicode="," glyph-name="comma" horiz-adv-x="743" d="M38 -350Q126 -262 189 -173T282 4Q257 34 214 60T127 97Q123 111 122 129T120 165Q120 214 140 256T193 330T269 379T357 397Q393 397 426 385T486 346T527 279T543 185Q543 130 524 62T460 -83T337
-245T144 -421L38 -350Z" />
<glyph unicode="-" glyph-name="hyphen" horiz-adv-x="986" d="M857 704L831 479H145L170 704H857Z" />
<glyph unicode="." glyph-name="period" horiz-adv-x="737" d="M303 -20Q264 -20 231 -6T173 33T134 92T120 166Q120 216 140 258T193 331T270 379T358 397Q397 397 430 383T488 343T527 284T541 210Q541 160 521 118T467 45T391 -3T303 -20Z" />
<glyph unicode="/" glyph-name="slash" horiz-adv-x="970" d="M749 1602H993L234 -308H-10L749 1602Z" />
<glyph unicode="0" glyph-name="zero" horiz-adv-x="1473" d="M1029 862Q1029 955 1016 1030T977 1157T910 1238T816 1267Q733 1267 672 1212T571 1064T511 853T491 604Q491 510 504 435T545 308T612 227T705 198Q761 198 806 223T888 294T950 402T994 539T1020
695T1029 862ZM1396 868Q1396 653 1337 487T1175 209T938 38T652 -20Q531 -20 434 20T267 139T161 332T124 596Q124 812 183 977T345 1256T582 1427T868 1485Q989 1485 1087 1445T1253 1326T1359 1133T1396 868Z" />
<glyph unicode="1" glyph-name="one" horiz-adv-x="977" d="M369 0L498 1134H137L156 1299Q253 1299 333 1310T478 1342T596 1394T692 1465H890L723 0H369Z" />
<glyph unicode="2" glyph-name="two" horiz-adv-x="1251" d="M41 91Q244 283 382 426T605 681T727 878T764 1040Q764 1099 745 1139T694 1204T619 1240T531 1251Q456 1251 384 1230T256 1179V1334Q303 1367 359 1395T477 1443T605 1474T737 1485Q831 1485 906
1462T1033 1393T1112 1283T1140 1134Q1140 1038 1101 941T980 734T769 499T460 218H1101L1033 0H32L41 91Z" />
<glyph unicode="3" glyph-name="three" horiz-adv-x="1191" d="M1118 1206Q1118 1150 1094 1104T1023 1016T911 935T760 852Q759 847 759 844T758 835Q905 806 984 723T1064 517Q1064 460 1045 400T980 282T859 173T672 84T411 23T65 0L90 218Q221 218 317 229T480
260T590 305T655 359T687 418T696 475Q696 536 669 575T595 636T482 665T339 668L358 838Q388 846 428 858T510 886T594 924T668 973T721 1033T741 1107Q741 1145 723 1172T674 1217T605 1243T524 1251Q452 1251 376 1231T235 1178V1334Q283 1368 340 1395T462
1443T593 1474T726 1485Q822 1485 895 1463T1017 1402T1092 1314T1118 1206Z" />
<glyph unicode="4" glyph-name="four" horiz-adv-x="1344" d="M62 517L700 1465H1162L1064 608H1294L1228 391H1040L995 0H643L688 391H48L62 517ZM713 608L763 1049L796 1261H776L656 1054Q581 942 506 831T355 608H713Z" />
<glyph unicode="5" glyph-name="five" horiz-adv-x="1109" d="M304 1465H1084L1022 1247H493L434 974Q566 974 669 946T844 868T953 746T990 589Q990 532 972 466T912 335T800 209T629 102T389 28T72 0L97 218Q243 218 341 244T500 314T586 414T612 530Q612 588
588 630T521 701T420 742T293 756H154L304 1465Z" />
<glyph unicode="6" glyph-name="six" horiz-adv-x="1348" d="M684 801Q706 815 733 829T792 854T856 873T924 880Q987 880 1045 855T1147 785T1217 675T1243 532Q1243 463 1222 396T1162 267T1066 153T939 62T784 2T604 -20Q470 -20 376 22T220 134T131 295T103
487Q103 594 134 708T226 931T377 1137T586 1307T851 1422T1170 1465H1228L1203 1247H1156Q1026 1247 925 1219T748 1141T619 1023T534 876T487 710T472 536Q472 461 483 399T516 292T574 223T657 198Q702 198 741 219T810 280T856 372T873 488Q873 576 839 626T740
677Q726 677 712 675T684 669V801Z" />
<glyph unicode="7" glyph-name="seven" horiz-adv-x="1117" d="M167 1247L230 1465H1144L1132 1365Q950 1018 790 679T487 0H124Q283 318 452 626T806 1247H167Z" />
<glyph unicode="8" glyph-name="eight" horiz-adv-x="1346" d="M450 738Q409 762 371 792T304 861T258 946T240 1051Q240 1143 284 1222T405 1359T586 1451T809 1485Q914 1485 996 1460T1135 1390T1221 1288T1251 1164Q1251 1100 1225 1047T1155 948T1054 866T936
796Q995 764 1046 729T1136 652T1197 559T1219 443Q1219 349 1173 265T1044 118T846 17T592 -20Q470 -20 377 9T222 86T128 198T96 331Q96 401 125 459T204 566T317 658T450 738ZM614 656Q523 602 473 537T423 396Q423 353 439 317T484 255T555 213T648 198Q700
198 746 213T825 257T878 323T898 405Q898 449 878 483T821 545T731 600T614 656ZM761 875Q854 931 895 990T936 1110Q936 1149 922 1178T883 1227T826 1257T758 1267Q719 1267 682 1255T615 1221T569 1166T551 1093Q551 1055 566 1025T610 969T676 920T761 875Z"
/>
<glyph unicode="9" glyph-name="nine" horiz-adv-x="1348" d="M711 664Q688 650 661 636T603 610T539 592T471 585Q407 585 350 610T248 680T178 790T152 933Q152 1002 173 1069T233 1198T328 1312T456 1403T611 1463T791 1485Q924 1485 1019 1443T1174 1331T1263
1169T1292 977Q1292 870 1261 756T1169 534T1018 328T809 158T544 43T225 0H167L192 218H239Q369 218 470 246T647 324T775 442T860 589T907 754T922 929Q922 1004 911 1066T878 1173T821 1242T738 1267Q693 1267 654 1246T585 1185T539 1093T522 977Q522 889 555
839T655 788Q669 788 683 790T711 795V664Z" />
<glyph unicode=":" glyph-name="colon" horiz-adv-x="787" d="M328 -20Q289 -20 256 -6T198 33T159 92T145 166Q145 216 165 258T218 331T295 379T383 397Q422 397 455 383T513 343T552 284T566 210Q566 160 546 118T492 45T416 -3T328 -20ZM403 636Q364 636 331
650T273 689T234 748T220 822Q220 872 240 914T294 987T370 1035T458 1053Q497 1053 530 1039T588 999T627 940T641 866Q641 816 621 774T567 701T490 653T403 636Z" />
<glyph unicode=";" glyph-name="semicolon" horiz-adv-x="793" d="M401 636Q362 636 329 650T271 689T232 748T218 822Q218 872 238 914T291 987T368 1035T456 1053Q495 1053 528 1039T586 999T625 940T639 866Q639 816 619 774T565 701T488 653T401 636ZM63 -350Q151
-262 214 -173T307 4Q282 34 239 60T152 97Q148 111 147 129T145 165Q145 214 165 256T218 330T294 379T382 397Q418 397 451 385T511 346T552 279T568 185Q568 130 549 62T485 -83T362 -245T169 -421L63 -350Z" />
<glyph unicode="&lt;" glyph-name="less" horiz-adv-x="1170" d="M171 714L1034 1164L1005 908L421 602L936 296L907 40L146 490L171 714Z" />
<glyph unicode="=" glyph-name="equal" horiz-adv-x="1403" d="M1196 470L1171 245H168L193 470H1196ZM1250 939L1225 714H222L247 939H1250Z" />
<glyph unicode="&gt;" glyph-name="greater" horiz-adv-x="1170" d="M1015 490L152 40L181 296L765 602L250 908L280 1164L1041 714L1015 490Z" />
<glyph unicode="?" glyph-name="question" horiz-adv-x="1076" d="M554 1269Q527 1269 490 1263T410 1245T325 1213T241 1169L225 1178L189 1369Q319 1434 440 1459T665 1485Q756 1485 824 1469T940 1423T1014 1355T1052 1269Q1059 1230 1055 1191Q1050 1119 1016
1067T932 972T826 892T720 813T636 723T596 606L593 579H358Q356 591 356 605T355 632Q355 705 380 761T443 863T525 944T607 1015T670 1084T695 1160Q695 1211 655 1240T554 1269ZM417 -20Q378 -20 345 -6T287 33T248 92T234 166Q234 216 254 258T307 331T383
379T471 397Q510 397 544 383T602 343T641 284T655 210Q655 160 635 118T581 45T505 -3T417 -20Z" />
<glyph unicode="@" glyph-name="at" horiz-adv-x="2368" d="M1322 178Q1230 78 1153 29T993 -20Q924 -20 870 11T779 94T723 211T703 345Q703 415 723 486T783 621T880 742T1009 839T1169 903T1356 926Q1424 926 1509 912T1693 864L1621 232Q1706 266 1768 324T1871
453T1931 601T1951 752Q1951 872 1903 960T1773 1106T1583 1192T1356 1220Q1228 1220 1111 1189T893 1101T710 963T570 780T480 561T448 312Q448 166 489 49T613 -151T822 -279T1118 -324Q1187 -324 1267 -316T1431 -289T1597 -242T1756 -172L1738 -329Q1658 -388
1567 -429T1382 -497T1194 -536T1017 -549Q903 -549 795 -527T592 -459T417 -346T280 -185T191 23T159 279Q159 453 207 607T342 890T546 1123T802 1297T1094 1407T1406 1445Q1511 1445 1612 1428T1802 1375T1967 1286T2097 1161T2182 1001T2213 804Q2213 657 2154
521T1983 271T1707 76T1335 -44L1322 178ZM1380 686Q1361 697 1327 704T1261 712Q1201 712 1154 685T1073 615T1023 517T1005 408Q1005 372 1013 338T1036 276T1073 233T1125 216Q1150 216 1178 228T1236 261T1293 310T1345 371L1380 686Z" />
<glyph unicode="A" glyph-name="A" horiz-adv-x="1457" d="M916 339H418L285 0H-10L623 1465H1049L1347 0H974L916 339ZM884 542L805 1024L781 1244H761L686 1024Q638 903 591 783T496 542H884Z" />
<glyph unicode="B" glyph-name="B" horiz-adv-x="1446" d="M1057 814Q1109 800 1159 772T1248 702T1312 606T1337 485Q1337 393 1288 306T1145 150T919 41T617 0H122L289 1465H838Q965 1465 1061 1441T1221 1375T1318 1278T1350 1159Q1350 1100 1327 1052T1263
963T1170 886T1057 814ZM500 218H670Q743 218 798 239T892 296T949 378T969 472Q969 520 950 555T896 612T814 644T709 655H550L500 218ZM863 858Q890 875 913 898T954 949T982 1010T993 1079Q993 1156 936 1201T780 1247H618L573 858H863Z" />
<glyph unicode="C" glyph-name="C" horiz-adv-x="1438" d="M1283 139Q1231 99 1168 70T1035 20T896 -10T760 -20Q619 -20 503 25T302 155T172 359T125 628Q125 764 162 880T265 1091T420 1260T613 1383T830 1459T1058 1485Q1093 1485 1138 1483T1233 1474T1335
1458T1437 1434L1358 1198L1337 1190Q1250 1234 1169 1250T1024 1267Q910 1267 814 1224T647 1103T537 919T497 688Q497 581 527 493T615 343T760 247T959 213Q1048 213 1128 234T1283 290V139Z" />
<glyph unicode="D" glyph-name="D" horiz-adv-x="1660" d="M289 1465H863Q1041 1465 1175 1420T1400 1294T1537 1100T1583 849Q1583 754 1561 654T1490 460T1368 281T1190 135T953 36T652 -1Q518 -1 387 -1T122 0L289 1465ZM500 218H715Q841 218 935 267T1091
400T1184 592T1215 821Q1215 1035 1112 1141T809 1247H618L500 218Z" />
<glyph unicode="E" glyph-name="E" horiz-adv-x="1270" d="M122 0L289 1465H1246L1182 1247H618L573 858H1064L1006 655H550L500 218H1113L1049 0H122Z" />
<glyph unicode="F" glyph-name="F" horiz-adv-x="1231" d="M122 0L289 1465H1246L1182 1247H618L573 858H1064L1006 655H550L476 0H122Z" />
<glyph unicode="G" glyph-name="G" horiz-adv-x="1571" d="M1357 82Q1207 28 1073 4T814 -20Q639 -20 509 24T294 151T166 350T123 612Q123 753 160 872T264 1089T420 1260T615 1384T837 1459T1073 1485Q1110 1485 1157 1483T1256 1474T1361 1458T1464 1434L1386
1198L1365 1189Q1321 1211 1277 1226T1191 1250T1109 1263T1036 1267Q916 1267 817 1224T647 1102T536 914T496 673Q496 568 521 481T596 331T719 233T886 198Q904 198 927 199T973 203T1020 210T1061 221L1119 729H1430L1357 82Z" />
<glyph unicode="H" glyph-name="H" horiz-adv-x="1677" d="M122 0L289 1465H643L575 866H1181L1249 1465H1603L1436 0H1082L1156 648H549L476 0H122Z" />
<glyph unicode="I" glyph-name="I" horiz-adv-x="717" d="M476 0H122L289 1465H643L476 0Z" />
<glyph unicode="J" glyph-name="J" horiz-adv-x="717" d="M-216 -349Q-123 -293 -59 -235T47 -110T112 40T148 227L288 1465H643L511 311Q494 158 448 35T322 -187T128 -362T-141 -496L-216 -349Z" />
<glyph unicode="K" glyph-name="K" horiz-adv-x="1613" d="M476 0H122L289 1465H643L476 0ZM1070 0L648 740L1286 1465H1620L997 818L1498 0H1070Z" />
<glyph unicode="L" glyph-name="L" horiz-adv-x="1172" d="M122 0L289 1465H643L500 218H1049L986 0H122Z" />
<glyph unicode="M" glyph-name="M" horiz-adv-x="2130" d="M88 0L372 1465H870Q898 1294 925 1127T981 789L1010 592L1027 432H1047L1103 592Q1121 639 1138 685T1174 777L1444 1465H1975L1924 0H1543L1608 986L1635 1250H1612L1521 994Q1516 984 1512 974T1502
954L1130 29H807L645 952L623 1096Q617 1134 612 1172T601 1250H577Q572 1210 568 1171T558 1093L538 946L387 0H88Z" />
<glyph unicode="N" glyph-name="N" horiz-adv-x="1724" d="M120 0L287 1465H766L1162 665L1246 447H1266L1276 595Q1281 640 1284 684T1293 773L1372 1465H1652L1485 0H1118L624 990L546 1198H526L510 968Q483 724 455 484T400 0H120Z" />
<glyph unicode="O" glyph-name="O" horiz-adv-x="1750" d="M851 198Q918 198 978 221T1088 285T1177 383T1245 507T1287 648T1302 800Q1302 897 1279 982T1210 1130T1098 1230T946 1267Q844 1267 761 1216T619 1081T528 887T496 663Q496 566 519 482T588 334T700
235T851 198ZM795 -20Q646 -20 523 24T312 151T175 356T126 633Q126 758 157 869T246 1075T384 1246T562 1375T771 1456T1003 1485Q1150 1485 1273 1442T1484 1315T1622 1110T1671 832Q1671 707 1640 596T1551 389T1414 219T1236 90T1027 9T795 -20Z" />
<glyph unicode="P" glyph-name="P" horiz-adv-x="1407" d="M476 0H122L289 1465H815Q950 1465 1052 1435T1225 1349T1330 1212T1366 1030Q1366 948 1344 876T1281 744T1185 636T1063 555T921 504T767 486Q752 486 737 487T703 491L743 691Q748 689 754 689T768
689Q800 689 827 698Q877 703 913 732T972 804T1006 899T1017 1002Q1017 1068 1000 1114T951 1190T873 1233T767 1247H618L476 0Z" />
<glyph unicode="Q" glyph-name="Q" horiz-adv-x="1746" d="M784 -20Q639 -20 518 24T310 153T175 359T126 633Q126 757 157 868T246 1074T383 1245T561 1374T771 1456T1005 1485Q1153 1485 1276 1441T1486 1314T1622 1110T1671 837Q1671 701 1633 582T1527 363T1364
186T1154 58L1855 -194L1642 -442L784 -20ZM850 198Q918 198 978 221T1088 285T1178 383T1245 507T1287 648T1302 800Q1302 897 1278 982T1209 1130T1097 1230T947 1267Q845 1267 762 1216T619 1081T528 887T496 663Q496 566 519 482T588 334T700 235T850 198Z"
/>
<glyph unicode="R" glyph-name="R" horiz-adv-x="1449" d="M537 542L476 0H122L289 1465H815Q949 1465 1048 1435T1212 1355T1308 1240T1340 1103Q1340 1028 1309 964T1229 847T1121 750T1007 672L1342 0H931L723 542H537ZM560 745H813Q845 762 876 789T932 853T972
934T987 1030Q987 1077 973 1117T931 1186T860 1231T760 1247H618L560 745Z" />
<glyph unicode="S" glyph-name="S" horiz-adv-x="1217" d="M519 198Q569 198 616 209T700 243T759 300T781 380Q781 428 756 464T690 531T596 589T488 645T381 709T287 789T220 893T195 1030Q195 1130 239 1214T362 1358T551 1451T796 1485Q830 1485 876 1483T973
1474T1078 1458T1184 1433L1105 1198L1087 1190Q1042 1211 997 1225T910 1249T830 1263T763 1267Q711 1267 669 1256T596 1223T550 1171T533 1102Q533 1054 558 1018T625 951T719 893T827 837T935 772T1029 692T1095 589T1121 454Q1121 353 1076 267T949 116T751
16T496 -20Q445 -20 389 -15T274 2T156 31T41 75L119 309L141 319Q195 292 243 270T338 231T429 207T519 198Z" />
<glyph unicode="T" glyph-name="T" horiz-adv-x="1385" d="M806 0H453L595 1247H141L204 1465H1434L1370 1247H949L806 0Z" />
<glyph unicode="U" glyph-name="U" horiz-adv-x="1545" d="M633 1465L527 533Q517 449 532 386T581 282T664 219T773 198Q833 198 886 219T983 281T1055 384T1093 528L1200 1465H1480L1378 565Q1364 443 1313 336T1176 150T969 26T696 -20Q561 -20 457 17T284
127T188 304T174 547L279 1465H633Z" />
<glyph unicode="V" glyph-name="V" horiz-adv-x="1458" d="M1218 1465H1517L871 0H465L155 1465H531L703 480L729 269H749L823 480L1218 1465Z" />
<glyph unicode="W" glyph-name="W" horiz-adv-x="2183" d="M1414 1357L1515 482L1532 269H1551Q1570 332 1588 395T1627 522L1936 1465H2227L1694 0H1271L1176 766L1161 1009H1141L1094 857L1053 727Q990 544 927 364T801 0H370L171 1465H538L639 482L651 269H671L752
525Q824 734 894 941T1037 1357H1414Z" />
<glyph unicode="X" glyph-name="X" horiz-adv-x="1497" d="M-14 0L605 729L190 1465H600L753 1161L834 976H854L933 1090L1018 1208L1209 1465H1535L949 778L1391 0H981L801 352L724 525H704L628 419Q611 396 595 374T562 328L312 0H-14Z" />
<glyph unicode="Y" glyph-name="Y" horiz-adv-x="1411" d="M892 637L819 0H466L537 628L142 1465H547L711 1046L773 847H793L925 1080L1163 1465H1483L892 637Z" />
<glyph unicode="Z" glyph-name="Z" horiz-adv-x="1345" d="M866 1233L868 1253L679 1247H226L290 1465H1325L1315 1387L606 380L482 228L480 210L667 218H1223L1159 0H28L37 76L740 1080L866 1233Z" />
<glyph unicode="[" glyph-name="bracketleft" horiz-adv-x="954" d="M365 1602H961L936 1377H579L407 -133H764L738 -358H142L365 1602Z" />
<glyph unicode="\" glyph-name="backslash" horiz-adv-x="970" d="M790 -308H546L223 1602H467L790 -308Z" />
<glyph unicode="]" glyph-name="bracketright" horiz-adv-x="954" d="M611 -358H14L40 -133H396L568 1377H212L237 1602H834L611 -358Z" />
<glyph unicode="^" glyph-name="asciicircum" horiz-adv-x="1201" d="M835 1465L1112 665H864L678 1203L369 665H121L581 1465H835Z" />
<glyph unicode="_" glyph-name="underscore" horiz-adv-x="1057" d="M962 0L937 -225H-50L-25 0H962Z" />
<glyph unicode="`" glyph-name="grave" horiz-adv-x="946" d="M566 1240L323 1602H671L828 1240H566Z" />
<glyph unicode="a" glyph-name="a" horiz-adv-x="1311" d="M850 832Q822 849 792 857T732 865Q672 865 618 832T524 743T461 611T437 451Q437 340 476 277T580 213Q609 213 638 225T694 259T748 309T797 370L850 832ZM1102 0H806L790 207Q746 159 701 118T608
46T510 -2T405 -20Q327 -20 266 15T162 109T97 247T74 413Q74 509 102 596T179 757T295 891T439 993T602 1057T772 1080Q843 1080 902 1065T1016 1023L1226 1086L1102 0Z" />
<glyph unicode="b" glyph-name="b" horiz-adv-x="1321" d="M462 228Q493 211 527 203T591 195Q656 195 710 228T802 318T862 447T884 602Q884 720 843 783T736 846Q707 846 678 834T620 800T564 751T514 690L462 228ZM535 864Q574 907 616 946T706 1015T805 1062T912
1080Q990 1080 1052 1045T1157 951T1224 812T1247 644Q1247 549 1221 463T1146 302T1032 169T886 67T715 3T528 -20Q495 -20 445 -17T337 -7T216 14T93 46L270 1602H618L535 864Z" />
<glyph unicode="c" glyph-name="c" horiz-adv-x="1014" d="M885 129Q788 51 688 16T490 -20Q392 -20 315 13T185 105T103 245T74 425Q74 519 100 604T172 762T283 894T425 994T590 1057T769 1080Q816 1080 877 1072T1008 1041L933 819L913 809Q882 828 837 846T737
865Q679 865 625 839T530 764T464 646T439 491Q439 417 458 364T510 278T587 229T683 213Q728 213 776 225T885 270V129Z" />
<glyph unicode="d" glyph-name="d" horiz-adv-x="1320" d="M800 207Q756 159 710 118T616 46T516 -2T410 -20Q332 -20 270 15T164 109T97 247T74 414Q74 505 99 590T168 749T275 884T410 988T564 1056T731 1080Q779 1080 816 1074T885 1058L947 1602H1295L1112
0H816L800 207ZM859 832Q828 849 795 857T731 865Q666 865 612 832T519 742T459 612T437 457Q437 339 478 276T585 213Q614 213 643 225T701 259T757 309T807 370L859 832Z" />
<glyph unicode="e" glyph-name="e" horiz-adv-x="1181" d="M522 -20Q422 -20 340 11T198 102T107 245T74 437Q74 533 100 618T172 774T282 902T421 998T579 1059T749 1080Q844 1080 915 1056T1034 991T1105 900T1129 794Q1129 716 1083 651T951 539T746 466T479
439H429Q429 392 447 351T500 280T586 231T705 213Q776 213 843 233T980 292V151Q933 110 878 78T764 24T644 -9T522 -20ZM689 865Q644 865 601 840T523 773T464 677T432 562H493Q556 562 612 574T710 610T778 667T803 744Q803 763 797 784T778 824T742 853T689
865Z" />
<glyph unicode="f" glyph-name="f" horiz-adv-x="947" d="M545 209Q534 116 514 13T468 -190T411 -380T348 -536H112L269 845H57L96 995L295 1060L299 1094Q311 1205 354 1301T470 1468T641 1581T862 1622Q913 1622 966 1615T1068 1592L998 1383L977 1373Q953
1389 922 1398T858 1407Q810 1407 775 1387T714 1330T672 1240T649 1122L641 1060H973L900 845H617L545 209Z" />
<glyph unicode="g" glyph-name="g" horiz-adv-x="1320" d="M858 832Q827 849 793 857T729 865Q664 865 610 832T518 742T458 612T436 457Q436 339 477 276T584 213Q613 213 642 225T700 259T756 309T806 370L858 832ZM1115 29Q1099 -110 1039 -219T886 -403T671
-517T413 -556Q366 -556 318 -552T222 -538T130 -516T48 -485L121 -272L140 -262Q174 -281 211 -295T284 -320T356 -335T422 -341Q485 -341 543 -320T646 -259T721 -166T758 -47L785 196Q746 153 704 114T614 45T515 -2T408 -20Q330 -20 268 15T163 109T96 248T73
415Q73 510 100 596T175 757T289 890T432 992T596 1057T772 1080Q845 1080 908 1065T1025 1023L1235 1086L1115 29Z" />
<glyph unicode="h" glyph-name="h" horiz-adv-x="1336" d="M532 846Q572 889 615 931T707 1006T811 1059T932 1080Q1007 1080 1063 1052T1155 976T1205 863T1211 724L1128 0H780L860 690Q868 760 840 803T755 846Q722 846 690 831T626 791T566 732T512 663L436
0H88L271 1602H619L532 846Z" />
<glyph unicode="i" glyph-name="i" horiz-adv-x="644" d="M209 1060H557L436 0H88L209 1060ZM397 1227Q355 1227 323 1239T267 1272T232 1321T220 1381Q220 1421 237 1456T285 1517T357 1558T447 1574Q488 1574 521 1562T577 1529T612 1480T625 1419Q625 1379
608 1344T559 1283T487 1242T397 1227Z" />
<glyph unicode="j" glyph-name="j" horiz-adv-x="644" d="M-176 -413Q-112 -366 -65 -311T16 -194T68 -65T96 73L208 1060H556L453 156Q441 50 410 -54T317 -251T159 -423T-80 -557L-176 -413ZM397 1227Q355 1227 322 1239T266 1272T231 1321T219 1381Q219 1421
236 1456T285 1517T357 1558T447 1574Q488 1574 520 1562T576 1529T611 1480T624 1419Q624 1379 607 1344T559 1283T487 1242T397 1227Z" />
<glyph unicode="k" glyph-name="k" horiz-adv-x="1266" d="M271 1602H619L436 0H88L271 1602ZM777 0L530 563Q659 675 751 797T905 1060H1230Q1194 992 1146 925T1046 799T946 691T857 608L1172 0H777Z" />
<glyph unicode="l" glyph-name="l" horiz-adv-x="644" d="M271 1602H619L436 0H88L271 1602Z" />
<glyph unicode="m" glyph-name="m" horiz-adv-x="1984" d="M209 1060H506L521 833Q564 881 609 925T702 1004T804 1059T920 1080Q979 1080 1026 1061T1107 1009T1161 929T1189 828Q1231 879 1277 924T1373 1004T1477 1059T1592 1080Q1664 1080 1717 1052T1805
976T1854 862T1859 724L1777 0H1429L1508 690Q1516 760 1490 803T1414 846Q1385 846 1355 831T1295 791T1236 733T1182 664V665L1106 0H759L838 690Q846 760 819 803T742 846Q714 846 684 831T625 791T566 732T512 663L436 0H88L209 1060Z" />
<glyph unicode="n" glyph-name="n" horiz-adv-x="1336" d="M209 1060H506L521 833Q566 882 611 926T705 1005T811 1059T934 1080Q1009 1080 1064 1052T1155 976T1205 862T1211 724L1128 0H780L860 690Q868 761 840 803T754 846Q722 846 690 831T627 791T567 732T512
663L436 0H88L209 1060Z" />
<glyph unicode="o" glyph-name="o" horiz-adv-x="1292" d="M550 -20Q424 -20 334 19T186 122T101 270T74 443Q74 527 96 607T161 758T263 888T397 989T558 1056T742 1080Q868 1080 958 1041T1105 938T1190 789T1218 615Q1218 486 1168 371T1028 169T816 31T550
-20ZM611 195Q659 195 703 223T782 303T836 425T856 580Q856 640 845 692T812 783T756 843T680 865Q629 865 585 835T507 752T455 629T436 477Q436 414 448 363T482 274T537 216T611 195Z" />
<glyph unicode="p" glyph-name="p" horiz-adv-x="1321" d="M522 852Q566 901 612 942T706 1014T805 1062T911 1080Q989 1080 1051 1045T1156 951T1223 813T1247 647Q1247 555 1222 470T1151 310T1043 175T907 71T754 4T590 -20Q548 -20 509 -15T436 1L375 -536H27L209
1060H506L522 852ZM462 228Q493 211 527 203T591 195Q656 195 710 228T802 318T862 447T884 602Q884 720 843 783T736 846Q707 846 678 834T620 800T564 751T514 690L462 228Z" />
<glyph unicode="q" glyph-name="q" horiz-adv-x="1321" d="M859 832Q828 849 795 857T731 865Q666 865 612 832T519 742T459 612T437 457Q437 339 478 276T585 213Q614 213 643 225T701 259T757 309T807 370L859 832ZM787 196Q748 154 705 115T615 46T516 -2T408
-20Q331 -20 269 15T164 109T97 248T74 415Q74 511 101 597T176 758T291 891T435 993T599 1057T775 1080Q849 1080 910 1065T1026 1023L1236 1086L1052 -536H704L787 196Z" />
<glyph unicode="r" glyph-name="r" horiz-adv-x="989" d="M209 1060H506Q505 969 505 880T505 699Q537 768 572 836T650 958T747 1046T872 1080Q939 1080 989 1054L915 727Q883 732 860 733T814 735Q768 735 726 724T644 685T567 613T494 501L436 0H88L209 1060Z" />
<glyph unicode="s" glyph-name="s" horiz-adv-x="1003" d="M107 282L127 293Q201 246 278 221T428 195Q503 195 542 222T581 286Q581 320 548 345T466 393T358 442T251 505T168 593T135 719Q135 793 170 858T273 973T438 1051T660 1080Q737 1080 811 1069T943
1036L867 810L846 799Q787 832 726 848T610 865Q569 865 540 857T493 835T465 804T456 770Q456 734 489 709T572 661T680 613T788 553T871 467T904 345Q904 279 873 214T778 96T619 12T395 -20Q301 -20 205 -1T31 56L107 282Z" />
<glyph unicode="t" glyph-name="t" horiz-adv-x="1022" d="M269 845H57L96 992Q151 1011 192 1028T264 1064T321 1107T370 1161T419 1233T478 1327H650L620 1060H995L922 845H617L566 397Q555 298 596 256T716 213Q758 213 797 224T885 261V115Q799 50 699 15T504
-20Q415 -20 355 11T261 95T217 221T216 378L269 845Z" />
<glyph unicode="u" glyph-name="u" horiz-adv-x="1323" d="M1114 0H817L803 227Q759 179 715 135T621 56T518 1T399 -20Q326 -20 272 8T182 84T133 197T127 336L209 1060H557L478 370Q474 336 479 307T497 257T531 225T577 213Q606 213 636 228T697 268T756 326T812
397L887 1060H1235L1114 0Z" />
<glyph unicode="v" glyph-name="v" horiz-adv-x="1184" d="M118 1060H490L530 452Q531 401 531 350T532 248H552Q678 438 752 639T865 1060H1185Q1146 910 1092 772T967 504T812 248T625 0H259L118 1060Z" />
<glyph unicode="w" glyph-name="w" horiz-adv-x="1816" d="M882 453Q859 423 834 393Q811 341 785 288T731 183T677 86T625 0H260L118 1060H490L530 452Q531 401 531 350T532 248H552Q637 388 701 537T816 831L786 1060H1145L1182 489L1185 372Q1186 340 1186
310T1187 248H1207Q1267 343 1312 440T1392 639T1450 845T1494 1060H1815Q1775 910 1725 772T1609 504T1463 248T1280 0H928L882 453Z" />
<glyph unicode="x" glyph-name="x" horiz-adv-x="1186" d="M-37 0Q54 144 168 269T414 517L122 1060H513L586 900L643 727H664Q734 809 784 889T872 1060H1188Q1152 995 1102 930T993 800T874 676T753 561L1056 0H666L581 187L526 339H506Q471 297 441 258T385
179T334 96T285 0H-37Z" />
<glyph unicode="y" glyph-name="y" horiz-adv-x="1184" d="M118 1060H490L530 452Q531 401 531 350T532 248H552Q678 438 752 639T865 1060H1185Q1146 910 1091 772T966 502T811 247T625 0L156 -569L-93 -444L366 0H259L118 1060Z" />
<glyph unicode="z" glyph-name="z" horiz-adv-x="1101" d="M21 76L482 693L601 831L604 851L419 845H144L218 1060H1052V984L588 366L468 225L466 207L644 215H993L919 0H21V76Z" />
<glyph unicode="{" glyph-name="braceleft" horiz-adv-x="1027" d="M120 705Q166 720 207 739T282 788T337 859T365 957L383 1118Q410 1353 549 1477T925 1602H1035L1009 1377H897Q838 1377 791 1360T709 1312T653 1237T625 1138L608 985Q600 915 582 858T531
756T452 677T338 622Q452 580 497 496T528 281L508 106Q496 -4 551 -68T725 -133H837L812 -358H702Q601 -358 520 -334T383 -261T296 -142T264 21Q262 71 270 125L289 287Q295 344 283 385T244 455T180 503T101 538L120 705Z" />
<glyph unicode="|" glyph-name="bar" horiz-adv-x="695" d="M351 1602H591L347 -537H107L351 1602Z" />
<glyph unicode="}" glyph-name="braceright" horiz-adv-x="1027" d="M929 538Q883 523 842 504T767 455T712 385T684 287L666 125Q652 8 610 -82T499 -233T336 -326T124 -358H14L40 -133H152Q270 -133 340 -69T424 106L441 258Q448 328 466 385T517 487T597 566T711
622Q596 664 552 748T521 963L541 1138Q553 1248 498 1312T324 1377H212L237 1602H347Q446 1602 526 1578T662 1508T750 1392T784 1233Q785 1206 784 1177T779 1118L760 957Q753 900 765 859T804 789T868 740T948 705L929 538V538Z" />
<glyph unicode="~" glyph-name="asciitilde" horiz-adv-x="1481" d="M973 554Q1032 554 1072 624T1128 845H1353Q1337 695 1293 596T1189 438T1060 355T925 331Q859 331 813 352T734 406T677 476T630 546T582 600T522 622Q463 622 424 552T368 331H143Q158 480
202 579T306 737T434 820T568 845Q636 845 682 824T762 770T820 700T866 630T913 576T973 554Z" />
<glyph unicode="&#xa0;" glyph-name="uni00A0" horiz-adv-x="452" />
<glyph unicode="&#xa1;" glyph-name="exclamdown" horiz-adv-x="747" d="M492 481L462 -405H85L256 481H492ZM385 663Q346 663 313 677T255 716T216 775T202 849Q202 899 222 941T276 1014T353 1062T440 1080Q479 1080 512 1066T570 1026T609 967T623 893Q623
843 603 801T550 728T473 680T385 663Z" />
<glyph unicode="&#xa2;" glyph-name="cent" horiz-adv-x="1240" d="M554 177Q464 189 395 225T278 318T207 449T182 611Q182 727 219 829T323 1014T480 1157T676 1248L717 1606H942L904 1271H928Q946 1271 971 1269T1025 1262T1083 1250T1140 1233L1064 1007L1044
997Q1013 1018 962 1037T852 1057Q787 1057 732 1031T635 955T571 837T547 680Q547 609 567 557T624 471T712 421T827 405Q873 405 921 415T1037 451L1020 303Q961 258 901 231T781 189L740 -163H515L554 177Z" />
<glyph unicode="&#xa3;" glyph-name="sterling" horiz-adv-x="1429" d="M408 827L420 934Q436 1064 491 1166T632 1339T829 1447T1069 1485Q1095 1485 1128 1483T1195 1477T1264 1465T1328 1448L1248 1220L1225 1210Q1186 1237 1137 1252T1042 1268Q932 1268 864
1197T779 978L761 827H1163L1102 632H739L730 545Q719 448 678 371T571 231L569 211L768 217H792H1194L1128 0H129L138 76Q205 124 247 174T315 275T351 378T369 485L386 632H199L252 827H408Z" />
<glyph unicode="&#xa4;" glyph-name="currency" horiz-adv-x="1613" d="M332 711Q332 802 361 879T442 1024L267 1222L445 1381L621 1182Q685 1220 755 1240T899 1260Q968 1260 1030 1241T1146 1186L1364 1381L1505 1222L1288 1027Q1311 982 1323 927T1335 813Q1335
722 1305 646T1224 501L1400 303L1222 144L1046 343Q981 305 911 286T768 266Q699 266 637 285T521 339L304 144L162 303L379 498Q356 543 344 598T332 711ZM569 733Q569 679 587 635T637 558T711 509T802 491Q858 491 911 513T1006 574T1073 669T1098 792Q1098
846 1080 891T1030 968T955 1017T864 1035Q808 1035 755 1013T661 951T594 856T569 733Z" />
<glyph unicode="&#xa5;" glyph-name="yen" horiz-adv-x="1656" d="M1145 821H1407L1384 626H288L311 821H569L265 1465H669L833 1045L895 847H915Q932 878 949 908T983 969L1040 1069L1286 1465H1606L1145 821ZM975 287L942 0H589L621 287H250L272 482H1367L1346
287H975Z" />
<glyph unicode="&#xa6;" glyph-name="brokenbar" horiz-adv-x="695" d="M248 702L351 1602H591L488 702H248ZM450 364L347 -537H107L210 364H450Z" />
<glyph unicode="&#xa7;" glyph-name="section" horiz-adv-x="1438" d="M201 -91L220 -82Q260 -102 305 -118T396 -145T488 -163T580 -170Q689 -170 750 -134T812 -34Q812 5 786 32T718 81T621 121T510 159T399 203T303 261T234 340T208 449Q208 512 230 563T290
657T375 736T473 808Q437 825 406 848T352 902T316 972T303 1062Q303 1161 346 1239T467 1372T655 1456T899 1485Q934 1485 977 1483T1065 1476T1156 1462T1243 1441L1166 1210L1145 1201Q1068 1236 992 1251T846 1267Q799 1267 760 1260T693 1237T649 1199T633
1143Q633 1104 659 1076T727 1026T824 986T935 947T1046 902T1143 844T1212 764T1238 656Q1238 593 1215 541T1155 445T1072 363T980 294Q1015 276 1045 253T1096 200T1130 132T1143 46Q1143 -52 1100 -131T977 -268T786 -356T538 -387Q483 -387 427 -382T316 -368T213
-348T123 -323L201 -91ZM925 544Q925 589 901 619T837 672T746 712T640 747Q621 736 600 718T561 676T532 623T520 562Q520 517 544 487T609 433T702 393T808 357Q827 368 847 387T885 430T913 484T925 544Z" />
<glyph unicode="&#xa8;" glyph-name="dieresis" horiz-adv-x="1227" d="M299 1385Q299 1420 314 1453T356 1511T418 1552T493 1567Q526 1567 554 1556T602 1524T633 1477T644 1420Q644 1385 629 1353T588 1295T527 1255T451 1240Q418 1240 391 1251T343 1283T311
1329T299 1385ZM783 1385Q783 1420 798 1453T840 1511T902 1552T978 1567Q1011 1567 1038 1556T1086 1524T1117 1477T1128 1420Q1128 1385 1113 1353T1073 1295T1012 1255T936 1240Q903 1240 875 1251T827 1283T795 1329T783 1385Z" />
<glyph unicode="&#xa9;" glyph-name="copyright" horiz-adv-x="2014" d="M216 650Q216 778 248 893T339 1107T480 1285T664 1421T882 1507T1126 1537Q1303 1537 1437 1481T1662 1327T1799 1098T1845 816Q1845 689 1813 574T1723 360T1581 182T1397 46T1179 -40T933
-71Q757 -71 623 -15T399 139T262 368T216 650ZM433 673Q433 563 467 464T568 289T738 170T977 125Q1080 125 1168 151T1329 223T1457 332T1551 469T1608 626T1628 793Q1628 904 1594 1003T1492 1178T1323 1297T1085 1342Q981 1342 893 1316T732 1244T604 1134T510
997T453 840T433 673ZM1278 426Q1210 378 1136 354T987 330Q915 330 853 353T744 420T672 528T645 676Q645 749 665 811T722 925T807 1016T914 1082T1034 1123T1160 1137Q1195 1137 1245 1131T1358 1103L1301 900L1291 896Q1243 920 1204 931T1126 942Q1083 942
1042 928T967 887T914 817T894 719Q894 631 944 579T1089 527Q1125 527 1181 537T1295 580L1278 426Z" />
<glyph unicode="&#xaa;" glyph-name="ordfeminine" horiz-adv-x="1225" d="M716 685Q686 662 652 637T578 592T494 558T403 544Q346 544 305 565T238 619T199 693T187 775Q187 844 221 904T321 1010T484 1082T709 1109H750L755 1159Q763 1224 727 1257T625 1290Q593
1290 557 1282T484 1261T411 1229T342 1191L328 1200L294 1391Q413 1441 518 1463T723 1485Q805 1485 871 1469T982 1418T1047 1325T1059 1185L1018 835Q1014 802 1024 778T1070 753Q1092 753 1114 760L1099 628Q1043 592 989 568T876 544Q808 544 770 581T716
685ZM736 990H677Q615 990 573 981T506 953T471 909T460 851Q460 800 488 777T558 753Q599 753 640 771T716 818L736 990Z" />
<glyph unicode="&#xab;" glyph-name="guillemotleft" horiz-adv-x="1228" d="M105 626L476 1021L629 861L347 574L564 286L374 126L92 521L105 626ZM615 626L986 1021L1140 861L858 574L1074 286L884 126L603 521L615 626Z" />
<glyph unicode="&#xac;" glyph-name="logicalnot" horiz-adv-x="1433" d="M1265 812L1195 202H963L1007 587H157L182 812H1265Z" />
<glyph unicode="&#xad;" glyph-name="uni00AD" horiz-adv-x="986" d="M857 704L831 479H145L170 704H857Z" />
<glyph unicode="&#xae;" glyph-name="registered" horiz-adv-x="2014" d="M216 650Q216 778 248 893T339 1107T480 1285T664 1421T882 1507T1126 1537Q1303 1537 1437 1481T1662 1327T1799 1098T1845 816Q1845 689 1813 574T1723 360T1581 182T1397 46T1179 -40T933
-71Q757 -71 623 -15T399 139T262 368T216 650ZM433 673Q433 563 467 464T568 289T738 170T977 125Q1080 125 1168 151T1329 223T1457 332T1551 469T1608 626T1628 793Q1628 904 1594 1003T1492 1178T1323 1297T1085 1342Q981 1342 893 1316T732 1244T604 1134T510
997T453 840T433 673ZM682 329L775 1138H1066Q1135 1138 1193 1123T1292 1080T1357 1011T1380 918Q1380 871 1363 832T1321 762T1269 706T1221 666L1361 329H1097L1024 539H934L910 329H682ZM1071 734Q1083 742 1095 754T1118 781T1136 814T1143 855Q1143 897 1117
920T1044 943H980L956 734H1071Z" />
<glyph unicode="&#xaf;" glyph-name="overscore" horiz-adv-x="1016" d="M307 1465H923L898 1240H281L307 1465Z" />
<glyph unicode="&#xb0;" glyph-name="degree" horiz-adv-x="1123" d="M230 1167Q230 1268 268 1351T371 1495T520 1588T694 1622Q770 1622 835 1597T949 1524T1024 1410T1051 1263Q1051 1162 1012 1079T909 935T760 842T586 809Q510 809 445 834T332 907T257 1020T230
1167ZM439 1196Q439 1152 453 1117T492 1057T550 1018T621 1004Q664 1004 703 1020T774 1066T823 1138T842 1234Q842 1277 828 1313T788 1374T730 1413T658 1427Q615 1427 576 1411T506 1364T457 1291T439 1196Z" />
<glyph unicode="&#xb1;" glyph-name="plusminus" horiz-adv-x="1404" d="M871 989H1257L1232 764H846L805 404H572L613 764H227L253 989H639L680 1350H913L871 989ZM1170 225L1145 0H140L166 225H1170Z" />
<glyph unicode="&#xb2;" glyph-name="twosuperior" horiz-adv-x="927" d="M88 587Q190 679 271 759T408 911T495 1046T525 1167Q525 1201 513 1225T481 1263T434 1284T376 1291Q331 1291 288 1281T217 1258L232 1391Q261 1409 300 1426T383 1456T476 1477T573
1485Q645 1485 698 1467T787 1418T840 1344T857 1254Q857 1188 826 1122T740 988T608 849T440 705H845L787 514H79L88 587Z" />
<glyph unicode="&#xb3;" glyph-name="threesuperior" horiz-adv-x="862" d="M835 1307Q835 1264 814 1231T758 1171T683 1123T601 1083Q600 1078 600 1075T598 1066Q642 1056 678 1038T741 994T782 934T797 856Q797 817 785 777T743 698T662 627T534 568T350 529T102
514L123 704Q236 704 304 715T410 744T460 786T473 834Q473 861 457 881T412 913T342 931T250 933L266 1069Q298 1075 339 1086T416 1114T476 1156T501 1213Q501 1233 490 1248T461 1272T417 1286T363 1291Q317 1291 276 1281T199 1257L213 1386Q246 1407 287 1425T375
1457T470 1477T567 1485Q635 1485 685 1470T769 1430T818 1373T835 1307Z" />
<glyph unicode="&#xb4;" glyph-name="acute" horiz-adv-x="942" d="M281 1240L521 1602H864L540 1240H281Z" />
<glyph unicode="&#xb6;" glyph-name="paragraph" horiz-adv-x="1522" d="M657 487Q554 487 463 515T303 599T195 737T155 925Q155 1047 202 1146T339 1317T556 1426T845 1465H1445L1217 -536H984L1186 1235H975L773 -536H540L657 487Z" />
<glyph unicode="&#xb7;" glyph-name="middot" horiz-adv-x="675" d="M314 346Q275 346 242 360T184 400T145 459T131 532Q131 582 151 624T205 697T281 745T369 763Q408 763 441 749T499 710T538 651T552 577Q552 527 532 485T478 412T402 364T314 346Z" />
<glyph unicode="&#xb8;" glyph-name="cedilla" horiz-adv-x="830" d="M511 6Q525 -16 536 -48T548 -125Q548 -187 522 -245T440 -347T294 -419T79 -446L100 -268Q170 -268 216 -255T291 -219T332 -165T344 -95Q344 -45 317 6H511Z" />
<glyph unicode="&#xb9;" glyph-name="onesuperior" horiz-adv-x="709" d="M269 514L347 1204H128L145 1357Q273 1357 361 1385T507 1465H686L578 514H269Z" />
<glyph unicode="&#xba;" glyph-name="ordmasculine" horiz-adv-x="1302" d="M617 544Q510 544 433 576T305 664T231 790T207 939Q207 1050 250 1149T372 1323T558 1441T794 1485Q900 1485 978 1453T1107 1366T1182 1240T1207 1089Q1207 975 1162 876T1038 703T851
587T617 544ZM680 739Q725 739 764 759T833 820T878 919T895 1055Q895 1106 885 1149T854 1223T803 1272T733 1290Q685 1290 646 1268T578 1205T534 1104T518 972Q518 919 529 877T560 803T611 756T680 739Z" />
<glyph unicode="&#xbb;" glyph-name="guillemotright" horiz-adv-x="1228" d="M625 521L253 126L100 286L382 574L165 861L355 1021L637 626L625 521ZM1135 521L764 126L610 286L892 574L676 861L866 1021L1147 626L1135 521Z" />
<glyph unicode="&#xbc;" glyph-name="onequarter" horiz-adv-x="2144" d="M1334 1465H1594L700 0H439L1334 1465ZM301 514L380 1204H160L178 1357Q306 1357 394 1385T539 1465H719L611 514H301ZM1130 336L1517 951H1931L1871 426H2013L1962 236H1850L1823 0H1525L1552
236H1119L1130 336ZM1574 426L1600 660L1622 810H1604L1529 672L1373 426H1574Z" />
<glyph unicode="&#xbd;" glyph-name="onehalf" horiz-adv-x="2168" d="M1334 1465H1594L700 0H439L1334 1465ZM301 514L380 1204H160L178 1357Q306 1357 394 1385T539 1465H719L611 514H301ZM1238 73Q1340 165 1421 245T1558 397T1645 532T1675 653Q1675 687 1663
711T1631 749T1583 770T1525 777Q1481 777 1438 767T1367 744L1382 877Q1411 895 1450 912T1533 942T1626 963T1723 971Q1795 971 1848 953T1937 904T1989 830T2007 740Q2007 674 1976 608T1890 474T1758 335T1591 191H1996L1937 0H1229L1238 73Z" />
<glyph unicode="&#xbe;" glyph-name="threequarters" horiz-adv-x="2215" d="M1404 1465H1665L770 0H510L1404 1465ZM1201 336L1588 951H2002L1942 426H2084L2033 236H1921L1893 0H1596L1623 236H1190L1201 336ZM1644 426L1671 660L1693 810H1675L1599 672Q1561
610 1522 549T1444 426H1644ZM867 1307Q867 1264 846 1231T791 1171T715 1123T633 1083Q632 1078 632 1075T631 1066Q675 1056 711 1038T774 994T814 934T829 856Q829 817 817 777T775 698T694 627T566 568T382 529T134 514L155 704Q268 704 337 715T443 744T493
786T505 834Q505 889 445 913T283 933L298 1069Q331 1075 372 1086T449 1114T509 1156T534 1213Q534 1233 523 1248T494 1272T450 1286T395 1291Q349 1291 308 1281T231 1257L246 1386Q279 1407 320 1425T407 1457T502 1477T599 1485Q668 1485 718 1470T802 1430T851
1373T867 1307Z" />
<glyph unicode="&#xbf;" glyph-name="questiondown" horiz-adv-x="993" d="M486 -210Q513 -210 550 -204T629 -185T714 -153T798 -109L815 -118L851 -309Q720 -374 599 -399T374 -425Q282 -425 214 -409T99 -363T25 -295T-12 -210Q-19 -170 -15 -131Q-10 -59 24
-7T108 88T213 168T319 247T403 337T443 454L446 481H682Q683 469 683 455T684 427Q684 354 659 298T596 196T514 115T432 45T369 -25T344 -101Q344 -152 384 -181T486 -210ZM568 663Q529 663 496 677T438 716T399 775T385 849Q385 899 405 941T459 1014T535 1062T623
1080Q662 1080 695 1066T753 1026T791 967T805 893Q805 843 785 801T731 728T656 680T568 663Z" />
<glyph unicode="&#xc0;" glyph-name="Agrave" horiz-adv-x="1457" d="M916 339H418L285 0H-10L623 1465H1049L1347 0H974L916 339ZM884 542L805 1024L781 1244H761L686 1024Q638 903 591 783T496 542H884ZM788 1602L544 1955H892L1050 1602H788Z" />
<glyph unicode="&#xc1;" glyph-name="Aacute" horiz-adv-x="1457" d="M916 339H418L285 0H-10L623 1465H1049L1347 0H974L916 339ZM884 542L805 1024L781 1244H761L686 1024Q638 903 591 783T496 542H884ZM643 1602L882 1955H1226L903 1602H643Z" />
<glyph unicode="&#xc2;" glyph-name="Acircumflex" horiz-adv-x="1457" d="M916 339H418L285 0H-10L623 1465H1049L1347 0H974L916 339ZM884 542L805 1024L781 1244H761L686 1024Q638 903 591 783T496 542H884ZM450 1602L724 1955H1044L1238 1602H975L865 1805L709
1602H450Z" />
<glyph unicode="&#xc3;" glyph-name="Atilde" horiz-adv-x="1457" d="M916 339H418L285 0H-10L623 1465H1049L1347 0H974L916 339ZM884 542L805 1024L781 1244H761L686 1024Q638 903 591 783T496 542H884ZM975 1602Q933 1602 904 1613T852 1640T814 1676T783 1712T754
1740T720 1751Q690 1751 663 1717T625 1602H430Q440 1694 472 1759T547 1865T642 1926T743 1945Q784 1945 814 1934T867 1907T907 1871T938 1835T967 1807T999 1796Q1014 1796 1029 1804T1058 1831T1080 1877T1094 1945H1289Q1278 1853 1247 1788T1172 1681T1077
1621T975 1602Z" />
<glyph unicode="&#xc4;" glyph-name="Adieresis" horiz-adv-x="1457" d="M916 339H418L285 0H-10L623 1465H1049L1347 0H974L916 339ZM884 542L805 1024L781 1244H761L686 1024Q638 903 591 783T496 542H884ZM455 1747Q455 1782 470 1815T512 1873T574 1914T649
1929Q682 1929 710 1918T758 1886T789 1839T800 1782Q800 1747 785 1715T745 1657T684 1617T608 1602Q575 1602 547 1613T499 1645T467 1691T455 1747ZM939 1747Q939 1782 954 1815T997 1873T1059 1914T1134 1929Q1167 1929 1194 1918T1242 1886T1273 1839T1284
1782Q1284 1747 1270 1715T1229 1657T1168 1617T1093 1602Q1060 1602 1032 1613T983 1645T951 1691T939 1747Z" />
<glyph unicode="&#xc5;" glyph-name="Aring" horiz-adv-x="1457" d="M916 339H418L285 0H-10L623 1465H1049L1347 0H974L916 339ZM884 542L805 1024L781 1244H761L686 1024Q638 903 591 783T496 542H884ZM766 1709Q766 1665 791 1638T856 1611Q879 1611 900 1620T937
1645T963 1684T973 1733Q973 1777 947 1804T881 1831Q858 1831 838 1822T801 1797T776 1758T766 1709ZM567 1693Q567 1757 595 1809T670 1899T778 1957T908 1977Q968 1977 1016 1960T1099 1913T1152 1841T1171 1749Q1171 1685 1143 1633T1068 1543T959 1486T830
1465Q770 1465 722 1482T639 1529T586 1601T567 1693Z" />
<glyph unicode="&#xc6;" glyph-name="AE" horiz-adv-x="1974" d="M925 339H444L256 0H-45L819 1465H1905L1841 1247H1291L1285 858H1790L1731 655H1282L1276 218H1817L1753 0H922L925 339ZM927 542L935 1024L950 1244H930L820 1024L805 1000L553 542H927Z" />
<glyph unicode="&#xc7;" glyph-name="Ccedilla" horiz-adv-x="1438" d="M1283 139Q1249 113 1209 91T1125 51T1035 20T943 -2Q956 -25 965 -55T975 -126Q975 -187 949 -244T867 -347T722 -419T506 -446L527 -268Q596 -268 643 -255T718 -219T759 -165T771 -97Q771
-56 756 -20Q617 -20 501 26T302 156T172 360T125 628Q125 764 162 880T266 1091T421 1260T614 1383T831 1459T1058 1485Q1093 1485 1138 1483T1233 1474T1335 1458T1437 1434L1357 1198L1337 1190Q1250 1234 1169 1250T1023 1267Q909 1267 813 1224T647 1103T537
919T497 688Q497 580 527 493T616 343T761 247T958 213Q1047 213 1128 234T1283 290V139Z" />
<glyph unicode="&#xc8;" glyph-name="Egrave" horiz-adv-x="1270" d="M122 0L289 1465H1246L1182 1247H618L573 858H1064L1006 655H550L500 218H1113L1049 0H122ZM690 1602L446 1955H794L952 1602H690Z" />
<glyph unicode="&#xc9;" glyph-name="Eacute" horiz-adv-x="1270" d="M122 0L289 1465H1246L1182 1247H618L573 858H1064L1006 655H550L500 218H1113L1049 0H122ZM608 1602L847 1955H1191L868 1602H608Z" />
<glyph unicode="&#xca;" glyph-name="Ecircumflex" horiz-adv-x="1270" d="M122 0L289 1465H1246L1182 1247H618L573 858H1064L1006 655H550L500 218H1113L1049 0H122ZM402 1602L676 1955H996L1190 1602H927L817 1805L661 1602H402Z" />
<glyph unicode="&#xcb;" glyph-name="Edieresis" horiz-adv-x="1270" d="M122 0L289 1465H1246L1182 1247H618L573 858H1064L1006 655H550L500 218H1113L1049 0H122ZM384 1747Q384 1782 399 1815T441 1873T503 1914T578 1929Q611 1929 639 1918T687 1886T718 1839T729
1782Q729 1747 714 1715T674 1657T613 1617T537 1602Q504 1602 476 1613T428 1645T396 1691T384 1747ZM868 1747Q868 1782 883 1815T926 1873T988 1914T1063 1929Q1096 1929 1123 1918T1171 1886T1202 1839T1213 1782Q1213 1747 1199 1715T1158 1657T1097 1617T1022
1602Q989 1602 961 1613T912 1645T880 1691T868 1747Z" />
<glyph unicode="&#xcc;" glyph-name="Igrave" horiz-adv-x="717" d="M476 0H122L289 1465H643L476 0ZM399 1602L155 1955H503L661 1602H399Z" />
<glyph unicode="&#xcd;" glyph-name="Iacute" horiz-adv-x="717" d="M476 0H122L289 1465H643L476 0ZM380 1602L257 1955H605L643 1602H380Z" />
<glyph unicode="&#xce;" glyph-name="Icircumflex" horiz-adv-x="717" d="M476 0H122L289 1465H643L476 0ZM89 1602L363 1955H683L877 1602H614L504 1805L348 1602H89Z" />
<glyph unicode="&#xcf;" glyph-name="Idieresis" horiz-adv-x="717" d="M476 0H122L289 1465H643L476 0ZM85 1747Q85 1782 100 1815T142 1873T204 1914T279 1929Q312 1929 340 1918T388 1886T419 1839T430 1782Q430 1747 415 1715T375 1657T314 1617T238 1602Q205
1602 177 1613T129 1645T97 1691T85 1747ZM569 1747Q569 1782 584 1815T627 1873T689 1914T764 1929Q797 1929 824 1918T872 1886T903 1839T914 1782Q914 1747 900 1715T859 1657T798 1617T723 1602Q690 1602 662 1613T613 1645T581 1691T569 1747Z" />
<glyph unicode="&#xd0;" glyph-name="Eth" horiz-adv-x="1677" d="M235 846L306 1465H879Q1057 1465 1191 1420T1417 1294T1554 1100T1600 848Q1600 753 1578 653T1507 459T1385 281T1207 135T969 36T668 -1Q535 -1 404 -1T139 0L209 621H48L74 846H235ZM588 846H897L872
621H563L517 218H731Q857 218 951 267T1107 400T1200 592T1231 819Q1231 1036 1128 1141T826 1247H634L588 846Z" />
<glyph unicode="&#xd1;" glyph-name="Ntilde" horiz-adv-x="1724" d="M120 0L287 1465H766L1162 665L1246 447H1266L1276 595Q1281 640 1284 684T1293 773L1372 1465H1652L1485 0H1118L624 990L546 1198H526L510 968Q483 724 455 484T400 0H120ZM1134 1602Q1092
1602 1063 1613T1011 1640T973 1676T942 1712T913 1740T879 1751Q849 1751 822 1717T784 1602H589Q599 1694 631 1759T706 1865T801 1926T902 1945Q943 1945 973 1934T1026 1907T1066 1871T1097 1835T1126 1807T1158 1796Q1173 1796 1188 1804T1217 1831T1239 1877T1253
1945H1448Q1437 1853 1406 1788T1331 1681T1236 1621T1134 1602Z" />
<glyph unicode="&#xd2;" glyph-name="Ograve" horiz-adv-x="1750" d="M851 198Q918 198 978 221T1088 285T1177 383T1245 507T1287 648T1302 800Q1302 897 1279 982T1210 1130T1098 1230T946 1267Q844 1267 761 1216T619 1081T528 887T496 663Q496 566 519 482T588
334T700 235T851 198ZM795 -20Q646 -20 523 24T312 151T175 356T126 633Q126 758 157 869T246 1075T384 1246T562 1375T771 1456T1003 1485Q1150 1485 1273 1442T1484 1315T1622 1110T1671 832Q1671 707 1640 596T1551 389T1414 219T1236 90T1027 9T795 -20ZM919
1602L675 1955H1023L1181 1602H919Z" />
<glyph unicode="&#xd3;" glyph-name="Oacute" horiz-adv-x="1750" d="M851 198Q918 198 978 221T1088 285T1177 383T1245 507T1287 648T1302 800Q1302 897 1279 982T1210 1130T1098 1230T946 1267Q844 1267 761 1216T619 1081T528 887T496 663Q496 566 519 482T588
334T700 235T851 198ZM795 -20Q646 -20 523 24T312 151T175 356T126 633Q126 758 157 869T246 1075T384 1246T562 1375T771 1456T1003 1485Q1150 1485 1273 1442T1484 1315T1622 1110T1671 832Q1671 707 1640 596T1551 389T1414 219T1236 90T1027 9T795 -20ZM863
1602L1102 1955H1446L1123 1602H863Z" />
<glyph unicode="&#xd4;" glyph-name="Ocircumflex" horiz-adv-x="1750" d="M851 198Q918 198 978 221T1088 285T1177 383T1245 507T1287 648T1302 800Q1302 897 1279 982T1210 1130T1098 1230T946 1267Q844 1267 761 1216T619 1081T528 887T496 663Q496 566 519
482T588 334T700 235T851 198ZM795 -20Q646 -20 523 24T312 151T175 356T126 633Q126 758 157 869T246 1075T384 1246T562 1375T771 1456T1003 1485Q1150 1485 1273 1442T1484 1315T1622 1110T1671 832Q1671 707 1640 596T1551 389T1414 219T1236 90T1027 9T795
-20ZM602 1602L876 1955H1196L1390 1602H1127L1017 1805L861 1602H602Z" />
<glyph unicode="&#xd5;" glyph-name="Otilde" horiz-adv-x="1750" d="M851 198Q918 198 978 221T1088 285T1177 383T1245 507T1287 648T1302 800Q1302 897 1279 982T1210 1130T1098 1230T946 1267Q844 1267 761 1216T619 1081T528 887T496 663Q496 566 519 482T588
334T700 235T851 198ZM795 -20Q646 -20 523 24T312 151T175 356T126 633Q126 758 157 869T246 1075T384 1246T562 1375T771 1456T1003 1485Q1150 1485 1273 1442T1484 1315T1622 1110T1671 832Q1671 707 1640 596T1551 389T1414 219T1236 90T1027 9T795 -20ZM1130
1602Q1088 1602 1059 1613T1007 1640T969 1676T938 1712T909 1740T875 1751Q845 1751 818 1717T780 1602H585Q595 1694 627 1759T702 1865T797 1926T898 1945Q939 1945 969 1934T1022 1907T1062 1871T1093 1835T1122 1807T1154 1796Q1169 1796 1184 1804T1213 1831T1235
1877T1249 1945H1444Q1433 1853 1402 1788T1327 1681T1232 1621T1130 1602Z" />
<glyph unicode="&#xd6;" glyph-name="Odieresis" horiz-adv-x="1750" d="M851 198Q918 198 978 221T1088 285T1177 383T1245 507T1287 648T1302 800Q1302 897 1279 982T1210 1130T1098 1230T946 1267Q844 1267 761 1216T619 1081T528 887T496 663Q496 566 519
482T588 334T700 235T851 198ZM795 -20Q646 -20 523 24T312 151T175 356T126 633Q126 758 157 869T246 1075T384 1246T562 1375T771 1456T1003 1485Q1150 1485 1273 1442T1484 1315T1622 1110T1671 832Q1671 707 1640 596T1551 389T1414 219T1236 90T1027 9T795
-20ZM599 1747Q599 1782 614 1815T656 1873T718 1914T793 1929Q826 1929 854 1918T902 1886T933 1839T944 1782Q944 1747 929 1715T889 1657T828 1617T752 1602Q719 1602 691 1613T643 1645T611 1691T599 1747ZM1083 1747Q1083 1782 1098 1815T1141 1873T1203 1914T1278
1929Q1311 1929 1338 1918T1386 1886T1417 1839T1428 1782Q1428 1747 1414 1715T1373 1657T1312 1617T1237 1602Q1204 1602 1176 1613T1127 1645T1095 1691T1083 1747Z" />
<glyph unicode="&#xd7;" glyph-name="multiply" horiz-adv-x="1213" d="M631 743L954 1034L1095 875L771 584L1029 295L852 136L595 425L271 136L131 294L454 584L197 875L374 1034L631 743Z" />
<glyph unicode="&#xd8;" glyph-name="Oslash" horiz-adv-x="1750" d="M302 153Q218 233 172 352T126 620Q126 747 157 861T246 1071T384 1243T563 1374T774 1456T1009 1485Q1100 1485 1182 1468T1335 1417L1472 1585H1716L1494 1312Q1579 1232 1625 1114T1671
846Q1671 718 1640 605T1551 395T1414 222T1235 91T1024 9T788 -20Q603 -20 461 48L324 -120H79L302 153ZM496 662Q496 602 506 544T537 441L1154 1195Q1112 1229 1061 1248T950 1267Q881 1267 821 1244T710 1179T620 1080T553 956T511 814T496 662ZM847 198Q916
198 976 221T1086 285T1177 383T1244 506T1286 647T1301 797Q1301 859 1290 918T1259 1025L642 270Q684 235 735 217T847 198Z" />
<glyph unicode="&#xd9;" glyph-name="Ugrave" horiz-adv-x="1545" d="M633 1465L527 533Q517 449 532 386T581 282T664 219T773 198Q833 198 886 219T983 281T1055 384T1093 528L1200 1465H1480L1378 565Q1364 443 1313 336T1176 150T969 26T696 -20Q561 -20 457
17T284 127T188 304T174 547L279 1465H633ZM838 1602L594 1955H942L1100 1602H838Z" />
<glyph unicode="&#xda;" glyph-name="Uacute" horiz-adv-x="1545" d="M633 1465L527 533Q517 449 532 386T581 282T664 219T773 198Q833 198 886 219T983 281T1055 384T1093 528L1200 1465H1480L1378 565Q1364 443 1313 336T1176 150T969 26T696 -20Q561 -20 457
17T284 127T188 304T174 547L279 1465H633ZM753 1602L992 1955H1336L1013 1602H753Z" />
<glyph unicode="&#xdb;" glyph-name="Ucircumflex" horiz-adv-x="1545" d="M633 1465L527 533Q517 449 532 386T581 282T664 219T773 198Q833 198 886 219T983 281T1055 384T1093 528L1200 1465H1480L1378 565Q1364 443 1313 336T1176 150T969 26T696 -20Q561
-20 457 17T284 127T188 304T174 547L279 1465H633ZM502 1602L776 1955H1096L1290 1602H1027L917 1805L761 1602H502Z" />
<glyph unicode="&#xdc;" glyph-name="Udieresis" horiz-adv-x="1545" d="M633 1465L527 533Q517 449 532 386T581 282T664 219T773 198Q833 198 886 219T983 281T1055 384T1093 528L1200 1465H1480L1378 565Q1364 443 1313 336T1176 150T969 26T696 -20Q561 -20
457 17T284 127T188 304T174 547L279 1465H633ZM503 1747Q503 1782 518 1815T560 1873T622 1914T697 1929Q730 1929 758 1918T806 1886T837 1839T848 1782Q848 1747 833 1715T793 1657T732 1617T656 1602Q623 1602 595 1613T547 1645T515 1691T503 1747ZM987 1747Q987
1782 1002 1815T1045 1873T1107 1914T1182 1929Q1215 1929 1242 1918T1290 1886T1321 1839T1332 1782Q1332 1747 1318 1715T1277 1657T1216 1617T1141 1602Q1108 1602 1080 1613T1031 1645T999 1691T987 1747Z" />
<glyph unicode="&#xdd;" glyph-name="Yacute" horiz-adv-x="1411" d="M892 637L819 0H466L537 628L142 1465H547L711 1046L773 847H793L925 1080L1163 1465H1483L892 637ZM704 1602L943 1955H1287L964 1602H704Z" />
<glyph unicode="&#xde;" glyph-name="Thorn" horiz-adv-x="1415" d="M476 0H122L289 1465H643L614 1217H787Q922 1217 1024 1188T1196 1105T1301 974T1337 801Q1337 673 1288 569T1157 392T966 278T739 238Q723 238 708 239T674 243L714 443Q722 441 733 441T755
440Q813 440 857 467T930 538T974 640T989 759Q989 823 972 868T922 943T844 985T739 999H590L476 0Z" />
<glyph unicode="&#xdf;" glyph-name="germandbls" horiz-adv-x="1394" d="M998 320Q998 363 977 395T923 455T854 512T784 578T731 664T709 782Q709 848 729 893T779 970T844 1028T910 1081T960 1145T980 1234Q980 1277 966 1309T929 1364T875 1396T812 1407Q773
1407 733 1391T659 1340T598 1250T563 1114L437 0H89L212 1074Q225 1190 277 1290T414 1464T613 1580T864 1622Q961 1622 1044 1600T1189 1535T1285 1431T1320 1290Q1320 1226 1300 1180T1248 1098T1181 1034T1113 978T1062 920T1041 849Q1041 809 1061 778T1113
717T1181 658T1248 589T1300 502T1321 386Q1321 301 1286 227T1186 98T1033 12T838 -20Q808 -20 773 -18T699 -9T621 5T546 26L616 252L639 265Q698 232 758 214T860 195Q888 195 913 203T957 226T987 265T998 320Z" />
<glyph unicode="&#xe0;" glyph-name="agrave" horiz-adv-x="1311" d="M850 832Q822 849 792 857T732 865Q672 865 618 832T524 743T461 611T437 451Q437 340 476 277T580 213Q609 213 638 225T694 259T748 309T797 370L850 832ZM1102 0H806L790 207Q746 159 701
118T608 46T510 -2T405 -20Q327 -20 266 15T162 109T97 247T74 413Q74 509 102 596T179 757T295 891T439 993T602 1057T772 1080Q843 1080 902 1065T1016 1023L1226 1086L1102 0ZM656 1240L413 1602H761L918 1240H656Z" />
<glyph unicode="&#xe1;" glyph-name="aacute" horiz-adv-x="1297" d="M850 832Q822 849 792 857T732 865Q672 865 618 832T524 743T461 611T437 451Q437 340 476 277T580 213Q609 213 638 225T694 259T748 309T797 370L850 832ZM1102 0H806L790 207Q746 159 701
118T608 46T510 -2T405 -20Q327 -20 266 15T162 109T97 247T74 413Q74 509 102 596T179 757T295 891T439 993T602 1057T772 1080Q843 1080 902 1065T1016 1023L1226 1086L1102 0ZM585 1240L825 1602H1168L844 1240H585Z" />
<glyph unicode="&#xe2;" glyph-name="acircumflex" horiz-adv-x="1311" d="M850 832Q822 849 792 857T732 865Q672 865 618 832T524 743T461 611T437 451Q437 340 476 277T580 213Q609 213 638 225T694 259T748 309T797 370L850 832ZM1102 0H806L790 207Q746 159
701 118T608 46T510 -2T405 -20Q327 -20 266 15T162 109T97 247T74 413Q74 509 102 596T179 757T295 891T439 993T602 1057T772 1080Q843 1080 902 1065T1016 1023L1226 1086L1102 0ZM382 1240L657 1602H976L1169 1240H906L797 1449L641 1240H382Z" />
<glyph unicode="&#xe3;" glyph-name="atilde" horiz-adv-x="1311" d="M850 832Q822 849 792 857T732 865Q672 865 618 832T524 743T461 611T437 451Q437 340 476 277T580 213Q609 213 638 225T694 259T748 309T797 370L850 832ZM1102 0H806L790 207Q746 159 701
118T608 46T510 -2T405 -20Q327 -20 266 15T162 109T97 247T74 413Q74 509 102 596T179 757T295 891T439 993T602 1057T772 1080Q843 1080 902 1065T1016 1023L1226 1086L1102 0ZM927 1240Q885 1240 855 1252T803 1281T765 1319T734 1357T706 1387T672 1399Q657
1399 642 1391T614 1363T591 1314T576 1240H381Q392 1335 424 1402T499 1511T594 1573T695 1593Q736 1593 766 1581T819 1552T859 1514T890 1476T919 1446T950 1434Q981 1434 1009 1471T1046 1593H1241Q1230 1498 1199 1431T1123 1322T1028 1260T927 1240Z" />
<glyph unicode="&#xe4;" glyph-name="adieresis" horiz-adv-x="1311" d="M850 832Q822 849 792 857T732 865Q672 865 618 832T524 743T461 611T437 451Q437 340 476 277T580 213Q609 213 638 225T694 259T748 309T797 370L850 832ZM1102 0H806L790 207Q746 159
701 118T608 46T510 -2T405 -20Q327 -20 266 15T162 109T97 247T74 413Q74 509 102 596T179 757T295 891T439 993T602 1057T772 1080Q843 1080 902 1065T1016 1023L1226 1086L1102 0ZM395 1385Q395 1420 410 1453T452 1511T514 1552T589 1567Q622 1567 650 1556T698
1524T729 1477T740 1420Q740 1385 725 1353T684 1295T623 1255T547 1240Q514 1240 487 1251T439 1283T407 1329T395 1385ZM879 1385Q879 1420 894 1453T936 1511T998 1552T1074 1567Q1107 1567 1134 1556T1182 1524T1213 1477T1224 1420Q1224 1385 1209 1353T1169
1295T1108 1255T1032 1240Q999 1240 971 1251T923 1283T891 1329T879 1385Z" />
<glyph unicode="&#xe5;" glyph-name="aring" horiz-adv-x="1311" d="M850 832Q822 849 792 857T732 865Q672 865 618 832T524 743T461 611T437 451Q437 340 476 277T580 213Q609 213 638 225T694 259T748 309T797 370L850 832ZM1102 0H806L790 207Q746 159 701
118T608 46T510 -2T405 -20Q327 -20 266 15T162 109T97 247T74 413Q74 509 102 596T179 757T295 891T439 993T602 1057T772 1080Q843 1080 902 1065T1016 1023L1226 1086L1102 0ZM686 1456Q686 1412 711 1385T776 1358Q799 1358 820 1367T858 1392T883 1431T893
1480Q893 1524 867 1551T801 1578Q778 1578 758 1569T721 1544T696 1505T686 1456ZM487 1440Q487 1504 515 1556T590 1646T698 1704T828 1724Q888 1724 936 1707T1019 1660T1072 1588T1091 1496Q1091 1432 1063 1380T988 1290T879 1233T750 1212Q690 1212 642 1229T559
1276T506 1348T487 1440Z" />
<glyph unicode="&#xe6;" glyph-name="ae" horiz-adv-x="1797" d="M1138 -20Q1007 -20 909 32T753 182Q712 148 663 112T560 47T445 -1T323 -20Q256 -20 206 1T122 59T71 141T54 236Q54 308 90 372T203 485T397 562T677 591H717L727 700Q734 782 687 823T558 865Q523
865 484 858T405 837T323 804T245 761L228 771L183 971Q318 1031 437 1055T657 1080Q879 1080 980 961Q1065 1018 1163 1049T1365 1080Q1458 1080 1529 1057T1648 996T1721 907T1746 801Q1746 724 1700 663T1568 559T1363 492T1095 469H1045Q1045 413 1063 366T1117
285T1203 232T1322 213Q1392 213 1459 233T1597 292V151Q1550 110 1495 78T1381 24T1260 -9T1138 -20ZM1303 865Q1259 865 1217 842T1139 781T1080 694T1049 591H1110Q1172 591 1228 600T1327 629T1395 678T1420 749Q1420 770 1413 790T1392 827T1355 854T1303
865ZM503 213Q555 213 606 234T703 290Q696 321 695 356T696 425Q696 436 697 447T700 469H664Q584 469 530 460T442 432T394 386T379 325Q379 267 414 240T503 213Z" />
<glyph unicode="&#xe7;" glyph-name="ccedilla" horiz-adv-x="1014" d="M885 129Q828 83 770 52T652 4Q666 -18 677 -49T688 -125Q688 -187 662 -245T580 -347T434 -419T219 -446L240 -268Q310 -268 356 -255T431 -219T472 -165T484 -95Q484 -75 481 -57T469 -19Q376
-16 303 18T179 111T101 250T74 425Q74 519 100 604T172 762T283 894T425 994T590 1057T769 1080Q816 1080 877 1072T1008 1041L933 819L913 809Q882 828 837 846T737 865Q679 865 625 839T530 764T464 646T439 491Q439 417 458 364T510 278T587 229T683 213Q728
213 776 225T885 270V129Z" />
<glyph unicode="&#xe8;" glyph-name="egrave" horiz-adv-x="1181" d="M522 -20Q422 -20 340 11T198 102T107 245T74 437Q74 533 100 618T172 774T282 902T421 998T579 1059T749 1080Q844 1080 915 1056T1034 991T1105 900T1129 794Q1129 716 1083 651T951 539T746
466T479 439H429Q429 392 447 351T500 280T586 231T705 213Q776 213 843 233T980 292V151Q933 110 878 78T764 24T644 -9T522 -20ZM689 865Q644 865 601 840T523 773T464 677T432 562H493Q556 562 612 574T710 610T778 667T803 744Q803 763 797 784T778 824T742
853T689 865ZM621 1240L378 1602H726L883 1240H621Z" />
<glyph unicode="&#xe9;" glyph-name="eacute" horiz-adv-x="1181" d="M522 -20Q422 -20 340 11T198 102T107 245T74 437Q74 533 100 618T172 774T282 902T421 998T579 1059T749 1080Q844 1080 915 1056T1034 991T1105 900T1129 794Q1129 716 1083 651T951 539T746
466T479 439H429Q429 392 447 351T500 280T586 231T705 213Q776 213 843 233T980 292V151Q933 110 878 78T764 24T644 -9T522 -20ZM689 865Q644 865 601 840T523 773T464 677T432 562H493Q556 562 612 574T710 610T778 667T803 744Q803 763 797 784T778 824T742
853T689 865ZM549 1240L789 1602H1132L808 1240H549Z" />
<glyph unicode="&#xea;" glyph-name="ecircumflex" horiz-adv-x="1181" d="M522 -20Q422 -20 340 11T198 102T107 245T74 437Q74 533 100 618T172 774T282 902T421 998T579 1059T749 1080Q844 1080 915 1056T1034 991T1105 900T1129 794Q1129 716 1083 651T951
539T746 466T479 439H429Q429 392 447 351T500 280T586 231T705 213Q776 213 843 233T980 292V151Q933 110 878 78T764 24T644 -9T522 -20ZM689 865Q644 865 601 840T523 773T464 677T432 562H493Q556 562 612 574T710 610T778 667T803 744Q803 763 797 784T778
824T742 853T689 865ZM323 1240L598 1602H917L1110 1240H847L738 1449L582 1240H323Z" />
<glyph unicode="&#xeb;" glyph-name="edieresis" horiz-adv-x="1181" d="M522 -20Q422 -20 340 11T198 102T107 245T74 437Q74 533 100 618T172 774T282 902T421 998T579 1059T749 1080Q844 1080 915 1056T1034 991T1105 900T1129 794Q1129 716 1083 651T951 539T746
466T479 439H429Q429 392 447 351T500 280T586 231T705 213Q776 213 843 233T980 292V151Q933 110 878 78T764 24T644 -9T522 -20ZM689 865Q644 865 601 840T523 773T464 677T432 562H493Q556 562 612 574T710 610T778 667T803 744Q803 763 797 784T778 824T742
853T689 865ZM322 1385Q322 1420 337 1453T379 1511T441 1552T516 1567Q549 1567 577 1556T625 1524T656 1477T667 1420Q667 1385 652 1353T611 1295T550 1255T474 1240Q441 1240 414 1251T366 1283T334 1329T322 1385ZM806 1385Q806 1420 821 1453T863 1511T925
1552T1001 1567Q1034 1567 1061 1556T1109 1524T1140 1477T1151 1420Q1151 1385 1136 1353T1096 1295T1035 1255T959 1240Q926 1240 898 1251T850 1283T818 1329T806 1385Z" />
<glyph unicode="&#xec;" glyph-name="igrave" horiz-adv-x="646" d="M250 1240L7 1602H355L512 1240H250ZM407 1060H754L633 0H286L407 1060Z" />
<glyph unicode="&#xed;" glyph-name="iacute" horiz-adv-x="646" d="M425 1240L665 1602H1008L684 1240H425ZM407 1060H754L633 0H286L407 1060Z" />
<glyph unicode="&#xee;" glyph-name="icircumflex" horiz-adv-x="646" d="M407 1060H754L633 0H286L407 1060ZM-44 1240L231 1602H550L743 1240H480L371 1449L215 1240H-44Z" />
<glyph unicode="&#xef;" glyph-name="idieresis" horiz-adv-x="646" d="M-47 1385Q-47 1420 -32 1453T10 1511T72 1552T147 1567Q180 1567 208 1556T256 1524T287 1477T298 1420Q298 1385 283 1353T242 1295T181 1255T105 1240Q72 1240 45 1251T-3 1283T-35 1329T-47
1385ZM437 1385Q437 1420 452 1453T494 1511T556 1552T632 1567Q665 1567 692 1556T740 1524T771 1477T782 1420Q782 1385 767 1353T727 1295T666 1255T590 1240Q557 1240 529 1251T481 1283T449 1329T437 1385ZM407 1060H754L633 0H286L407 1060Z" />
<glyph unicode="&#xf0;" glyph-name="eth" horiz-adv-x="1342" d="M574 1324Q527 1349 475 1369T366 1407L480 1602Q704 1543 865 1438L1173 1562L1213 1434L989 1345Q1060 1282 1112 1206T1200 1046T1252 872T1270 689Q1270 528 1216 397T1067 174T845 31T570
-20Q441 -20 349 20T197 126T110 277T82 455Q82 550 105 632T169 782T264 903T379 993T503 1052T628 1077Q653 1079 680 1076T734 1067Q769 1062 797 1050T850 1023L869 1025Q846 1085 806 1139T714 1236L380 1103L341 1231L574 1324ZM911 678Q911 702 910 732T906
788Q875 819 833 837T749 861Q729 863 710 863T672 858Q623 849 582 821T510 746T464 636T447 495Q447 435 459 381T496 285T558 220T646 195Q708 195 757 229T841 326T893 478T911 678Z" />
<glyph unicode="&#xf1;" glyph-name="ntilde" horiz-adv-x="1336" d="M209 1060H506L521 833Q566 882 611 926T705 1005T811 1059T934 1080Q1009 1080 1064 1052T1155 976T1205 862T1211 724L1128 0H780L860 690Q868 761 840 803T754 846Q722 846 690 831T627
791T567 732T512 663L436 0H88L209 1060ZM881 1240Q839 1240 809 1252T757 1281T719 1319T688 1357T660 1387T626 1399Q611 1399 596 1391T568 1363T545 1314T530 1240H335Q346 1335 378 1402T453 1511T548 1573T649 1593Q690 1593 720 1581T773 1552T813 1514T844
1476T873 1446T904 1434Q935 1434 963 1471T1000 1593H1195Q1184 1498 1153 1431T1077 1322T982 1260T881 1240Z" />
<glyph unicode="&#xf2;" glyph-name="ograve" horiz-adv-x="1292" d="M550 -20Q424 -20 334 19T186 122T101 270T74 443Q74 527 96 607T161 758T263 888T397 989T558 1056T742 1080Q868 1080 958 1041T1105 938T1190 789T1218 615Q1218 486 1168 371T1028 169T816
31T550 -20ZM611 195Q659 195 703 223T782 303T836 425T856 580Q856 640 845 692T812 783T756 843T680 865Q629 865 585 835T507 752T455 629T436 477Q436 414 448 363T482 274T537 216T611 195ZM613 1240L370 1602H718L875 1240H613Z" />
<glyph unicode="&#xf3;" glyph-name="oacute" horiz-adv-x="1292" d="M550 -20Q424 -20 334 19T186 122T101 270T74 443Q74 527 96 607T161 758T263 888T397 989T558 1056T742 1080Q868 1080 958 1041T1105 938T1190 789T1218 615Q1218 486 1168 371T1028 169T816
31T550 -20ZM611 195Q659 195 703 223T782 303T836 425T856 580Q856 640 845 692T812 783T756 843T680 865Q629 865 585 835T507 752T455 629T436 477Q436 414 448 363T482 274T537 216T611 195ZM555 1240L795 1602H1138L814 1240H555Z" />
<glyph unicode="&#xf4;" glyph-name="ocircumflex" horiz-adv-x="1292" d="M550 -20Q424 -20 334 19T186 122T101 270T74 443Q74 527 96 607T161 758T263 888T397 989T558 1056T742 1080Q868 1080 958 1041T1105 938T1190 789T1218 615Q1218 486 1168 371T1028
169T816 31T550 -20ZM611 195Q659 195 703 223T782 303T836 425T856 580Q856 640 845 692T812 783T756 843T680 865Q629 865 585 835T507 752T455 629T436 477Q436 414 448 363T482 274T537 216T611 195ZM332 1240L607 1602H926L1119 1240H856L747 1449L591 1240H332Z"
/>
<glyph unicode="&#xf5;" glyph-name="otilde" horiz-adv-x="1292" d="M550 -20Q424 -20 334 19T186 122T101 270T74 443Q74 527 96 607T161 758T263 888T397 989T558 1056T742 1080Q868 1080 958 1041T1105 938T1190 789T1218 615Q1218 486 1168 371T1028 169T816
31T550 -20ZM611 195Q659 195 703 223T782 303T836 425T856 580Q856 640 845 692T812 783T756 843T680 865Q629 865 585 835T507 752T455 629T436 477Q436 414 448 363T482 274T537 216T611 195ZM860 1240Q818 1240 788 1252T736 1281T698 1319T667 1357T639 1387T605
1399Q590 1399 575 1391T547 1363T524 1314T509 1240H314Q325 1335 357 1402T432 1511T527 1573T628 1593Q669 1593 699 1581T752 1552T792 1514T823 1476T852 1446T883 1434Q914 1434 942 1471T979 1593H1174Q1163 1498 1132 1431T1056 1322T961 1260T860 1240Z"
/>
<glyph unicode="&#xf6;" glyph-name="odieresis" horiz-adv-x="1292" d="M550 -20Q424 -20 334 19T186 122T101 270T74 443Q74 527 96 607T161 758T263 888T397 989T558 1056T742 1080Q868 1080 958 1041T1105 938T1190 789T1218 615Q1218 486 1168 371T1028 169T816
31T550 -20ZM611 195Q659 195 703 223T782 303T836 425T856 580Q856 640 845 692T812 783T756 843T680 865Q629 865 585 835T507 752T455 629T436 477Q436 414 448 363T482 274T537 216T611 195ZM334 1385Q334 1420 349 1453T391 1511T453 1552T528 1567Q561 1567
589 1556T637 1524T668 1477T679 1420Q679 1385 664 1353T623 1295T562 1255T486 1240Q453 1240 426 1251T378 1283T346 1329T334 1385ZM818 1385Q818 1420 833 1453T875 1511T937 1552T1013 1567Q1046 1567 1073 1556T1121 1524T1152 1477T1163 1420Q1163 1385
1148 1353T1108 1295T1047 1255T971 1240Q938 1240 910 1251T862 1283T830 1329T818 1385Z" />
<glyph unicode="&#xf7;" glyph-name="divide" horiz-adv-x="1304" d="M1175 704L1149 479H145L170 704H1175ZM686 839Q656 839 631 850T587 879T558 924T547 980Q547 1017 562 1049T603 1104T660 1141T727 1154Q757 1154 782 1144T826 1114T855 1069T866 1013Q866
975 851 944T810 889T752 852T686 839ZM593 28Q563 28 538 39T494 69T465 113T454 169Q454 207 469 239T510 294T568 331T634 344Q664 344 689 333T733 303T762 258T773 202Q773 164 758 133T717 78T660 41T593 28Z" />
<glyph unicode="&#xf8;" glyph-name="oslash" horiz-adv-x="1310" d="M560 -20Q497 -20 443 -10T343 19L230 -120H23L207 106Q140 172 109 261T78 445Q78 571 127 686T266 888T479 1028T750 1080Q813 1080 868 1070T968 1040L1083 1180H1291L1104 951Q1170 886
1201 798T1232 613Q1232 485 1182 370T1042 169T829 31T560 -20ZM440 480Q440 461 443 442T453 407L792 823Q771 843 745 854T687 865Q634 865 589 835T511 753T459 631T440 480ZM622 195Q668 195 709 218T783 283T837 383T865 511Q867 534 867 557T866 606Q864
617 862 627T856 647L520 234Q562 195 622 195Z" />
<glyph unicode="&#xf9;" glyph-name="ugrave" horiz-adv-x="1323" d="M1114 0H817L803 227Q759 179 715 135T621 56T518 1T399 -20Q326 -20 272 8T182 84T133 197T127 336L209 1060H557L478 370Q474 336 479 307T497 257T531 225T577 213Q606 213 636 228T697
268T756 326T812 397L887 1060H1235L1114 0ZM640 1240L397 1602H745L902 1240H640Z" />
<glyph unicode="&#xfa;" glyph-name="uacute" horiz-adv-x="1323" d="M1114 0H817L803 227Q759 179 715 135T621 56T518 1T399 -20Q326 -20 272 8T182 84T133 197T127 336L209 1060H557L478 370Q474 336 479 307T497 257T531 225T577 213Q606 213 636 228T697
268T756 326T812 397L887 1060H1235L1114 0ZM560 1240L800 1602H1143L819 1240H560Z" />
<glyph unicode="&#xfb;" glyph-name="ucircumflex" horiz-adv-x="1323" d="M1114 0H817L803 227Q759 179 715 135T621 56T518 1T399 -20Q326 -20 272 8T182 84T133 197T127 336L209 1060H557L478 370Q474 336 479 307T497 257T531 225T577 213Q606 213 636 228T697
268T756 326T812 397L887 1060H1235L1114 0ZM352 1240L627 1602H946L1139 1240H876L767 1449L611 1240H352Z" />
<glyph unicode="&#xfc;" glyph-name="udieresis" horiz-adv-x="1323" d="M1114 0H817L803 227Q759 179 715 135T621 56T518 1T399 -20Q326 -20 272 8T182 84T133 197T127 336L209 1060H557L478 370Q474 336 479 307T497 257T531 225T577 213Q606 213 636 228T697
268T756 326T812 397L887 1060H1235L1114 0ZM347 1385Q347 1420 362 1453T404 1511T466 1552T541 1567Q574 1567 602 1556T650 1524T681 1477T692 1420Q692 1385 677 1353T636 1295T575 1255T499 1240Q466 1240 439 1251T391 1283T359 1329T347 1385ZM831 1385Q831
1420 846 1453T888 1511T950 1552T1026 1567Q1059 1567 1086 1556T1134 1524T1165 1477T1176 1420Q1176 1385 1161 1353T1121 1295T1060 1255T984 1240Q951 1240 923 1251T875 1283T843 1329T831 1385Z" />
<glyph unicode="&#xfd;" glyph-name="yacute" horiz-adv-x="1184" d="M118 1060H490L530 452Q531 401 531 350T532 248H552Q678 438 752 639T865 1060H1185Q1146 910 1091 772T966 502T811 247T625 0L156 -569L-93 -444L366 0H259L118 1060ZM510 1240L750 1602H1093L769
1240H510Z" />
<glyph unicode="&#xfe;" glyph-name="thorn" horiz-adv-x="1321" d="M272 1602H620L536 867Q578 912 622 951T712 1018T809 1063T912 1080Q990 1080 1052 1045T1157 951T1224 812T1247 645Q1247 549 1221 463T1147 302T1037 169T901 67T748 3T588 -20Q537 -20
498 -13T436 1L375 -536H27L272 1602ZM462 228Q493 211 527 203T591 195Q656 195 710 228T802 318T862 447T884 602Q884 720 843 783T736 846Q707 846 678 834T620 800T564 751T514 690L462 228Z" />
<glyph unicode="&#xff;" glyph-name="ydieresis" horiz-adv-x="1184" d="M118 1060H490L530 452Q531 401 531 350T532 248H552Q678 438 752 639T865 1060H1185Q1146 910 1091 772T966 502T811 247T625 0L156 -569L-93 -444L366 0H259L118 1060ZM530 1385Q530 1420
545 1453T587 1511T649 1552T724 1567Q757 1567 785 1556T833 1524T864 1477T875 1420Q875 1385 860 1353T819 1295T758 1255T682 1240Q649 1240 622 1251T574 1283T542 1329T530 1385ZM1014 1385Q1014 1420 1029 1453T1071 1511T1133 1552T1209 1567Q1242 1567
1269 1556T1317 1524T1348 1477T1359 1420Q1359 1385 1344 1353T1304 1295T1243 1255T1167 1240Q1134 1240 1106 1251T1058 1283T1026 1329T1014 1385Z" />
<glyph unicode="&#x2013;" glyph-name="endash" horiz-adv-x="1037" d="M1007 704L982 479H45L70 704H1007Z" />
<glyph unicode="&#x2014;" glyph-name="emdash" horiz-adv-x="2107" d="M2077 704L2052 479H45L70 704H2077Z" />
<glyph unicode="&#x2018;" glyph-name="quoteleft" horiz-adv-x="700" d="M696 1560Q608 1473 545 1384T451 1206Q476 1176 519 1151T607 1114Q611 1100 612 1082T614 1046Q614 996 594 954T541 880T465 832T377 814Q341 814 308 826T248 865T207 931T191 1025Q191
1080 209 1148T274 1293T397 1455T590 1632L696 1560Z" />
<glyph unicode="&#x2019;" glyph-name="quoteright" horiz-adv-x="700" d="M162 873Q250 960 313 1049T407 1227Q382 1257 339 1282T251 1319Q247 1333 246 1351T244 1387Q244 1437 264 1479T317 1553T393 1601T481 1619Q517 1619 550 1607T610 1568T651 1502T667
1408Q667 1353 648 1285T584 1140T461 978T268 801L162 873Z" />
<glyph unicode="&#x201a;" glyph-name="quotesinglbase" horiz-adv-x="700" d="M23 -350Q111 -262 174 -173T267 4Q242 34 199 60T112 97Q108 111 107 129T105 165Q105 214 125 256T178 330T254 379T342 397Q378 397 411 385T471 346T512 279T528 185Q528 130
509 62T445 -83T322 -245T129 -421L23 -350Z" />
<glyph unicode="&#x201c;" glyph-name="quotedblleft" horiz-adv-x="1276" d="M696 1560Q608 1473 545 1384T451 1206Q476 1176 519 1151T607 1114Q611 1100 612 1082T614 1046Q614 996 594 954T541 880T465 832T377 814Q341 814 308 826T248 865T207 931T191
1025Q191 1080 209 1148T274 1293T397 1455T590 1632L696 1560ZM1271 1560Q1183 1473 1120 1384T1027 1206Q1052 1176 1095 1151T1182 1114Q1186 1100 1187 1082T1189 1046Q1189 996 1169 954T1116 880T1040 832T952 814Q916 814 883 826T823 865T782 931T766 1025Q766
1080 784 1148T849 1293T972 1455T1165 1632L1271 1560Z" />
<glyph unicode="&#x201d;" glyph-name="quotedblright" horiz-adv-x="1276" d="M162 873Q250 960 313 1049T407 1227Q382 1257 339 1282T251 1319Q247 1333 246 1351T244 1387Q244 1437 264 1479T317 1553T393 1601T481 1619Q517 1619 550 1607T610 1568T651 1502T667
1408Q667 1353 648 1285T584 1140T461 978T268 801L162 873ZM737 873Q825 960 889 1049T982 1227Q957 1257 914 1282T827 1319Q823 1333 822 1351T820 1387Q820 1437 840 1479T893 1553T968 1601T1056 1619Q1092 1619 1125 1607T1185 1568T1226 1502T1242 1408Q1242
1353 1224 1285T1159 1140T1037 978T844 801L737 873Z" />
<glyph unicode="&#x201e;" glyph-name="quotedblbase" horiz-adv-x="1276" d="M23 -350Q111 -262 174 -173T267 4Q242 34 199 60T112 97Q108 111 107 129T105 165Q105 214 125 256T178 330T254 379T342 397Q378 397 411 385T471 346T512 279T528 185Q528 130 509
62T445 -83T322 -245T129 -421L23 -350ZM598 -350Q686 -262 749 -173T843 4Q831 19 813 33T775 60T732 82T687 97Q683 111 682 129T680 165Q680 214 700 256T753 330T829 379T917 397Q953 397 986 385T1046 346T1087 279T1103 185Q1103 130 1084 62T1020 -83T897
-245T704 -421L598 -350Z" />
<glyph unicode="&#x2022;" glyph-name="bullet" horiz-adv-x="899" d="M203 548Q203 605 227 655T290 742T381 801T486 823Q534 823 574 806T643 758T689 686T706 597Q706 539 682 489T617 402T526 344T420 323Q373 323 334 340T265 387T220 459T203 548Z" />
<glyph unicode="&#x2039;" glyph-name="guilsinglleft" horiz-adv-x="718" d="M105 626L476 1021L629 861L347 574L564 286L374 126L92 521L105 626Z" />
<glyph unicode="&#x203a;" glyph-name="guilsinglright" horiz-adv-x="718" d="M625 521L253 126L100 286L382 574L165 861L355 1021L637 626L625 521Z" />
</font>
</defs>
</svg>
