<?xml version="1.0" standalone="no"?>
<!DOCTYPE svg PUBLIC "-//W3C//DTD SVG 1.1//EN" "http://www.w3.org/Graphics/SVG/1.1/DTD/svg11.dtd">
<svg xmlns="http://www.w3.org/2000/svg">
<defs >
<font id="LilitaOne" horiz-adv-x="423" ><font-face
    font-family="Lilita One"
    units-per-em="1000"
    panose-1="2 0 0 0 0 0 0 0 0 0"
    ascent="923"
    descent="-220"
    alphabetic="0" />
<glyph unicode=" " glyph-name="space" horiz-adv-x="188" />
<glyph unicode="!" glyph-name="exclam" horiz-adv-x="287" d="M210 210Q210 204 139 204T67 209L47 702Q47 710 138 710T230 703L210 210ZM45 150Q45 157 137 157T230 151V7Q230 -3 138 -3T45 3V150Z" />
<glyph unicode="&quot;" glyph-name="quotedbl" horiz-adv-x="460" d="M208 663V452Q208 434 180 426Q166 422 152 422T124 426Q95 434 95 452L65 663Q65 681 100 689Q118 693 136 693T172 689Q208 681 208 663ZM326 422T312 422T284 426Q255 434 255 452V663Q255
681 290 689Q308 693 326 693T362 689Q398 681 398 663L368 452Q368 434 340 426Q326 422 312 422Z" />
<glyph unicode="#" glyph-name="numbersign" horiz-adv-x="833" d="M704 300Q722 300 730 271Q735 255 735 241T732 213Q725 184 706 184L556 183L499 14Q493 -1 469 -1Q448 -1 425 10Q379 32 390 55L433 183H317L260 15Q255 1 232 1Q209 1 186 12Q140 34 151
57L193 183H118Q107 183 100 195Q91 209 91 228T93 262T103 288T123 299H233L268 403H154Q143 403 136 415Q127 429 127 448T129 482T139 508T159 519H307L357 666Q363 682 389 682Q409 682 432 672Q477 652 469 631L431 519H547L596 665Q604 687 645 678Q687 670
703 650Q712 639 708 629L671 520H740Q758 520 766 491Q771 475 771 461T768 433Q761 404 742 404H631L596 300H704ZM384 412L343 290H479L520 412H384Z" />
<glyph unicode="$" glyph-name="dollar" horiz-adv-x="531" d="M303 767V710Q377 707 431 690T485 637Q485 606 465 555T436 501Q352 536 303 540V427Q513 419 513 225Q513 134 461 69T303 -7V-76Q303 -94 293 -100T275 -106L261 -102Q247 -94 247 -76V-10Q163
-8 99 20T34 91Q34 147 68 204Q71 210 76 217Q157 168 247 162V272Q34 285 34 490Q34 580 91 638T247 708V767Q247 785 257 791T275 797L289 793Q303 785 303 767ZM374 230Q374 253 359 261T303 272V164Q374 176 374 230ZM186 479Q186 437 247 430V539Q186 529
186 479Z" />
<glyph unicode="%" glyph-name="uni0025" horiz-adv-x="798" d="M254 711T297 662T340 519T298 375T188 326T78 373T35 517T77 662T186 711ZM235 519Q235 584 188 584T141 519Q141 488 154 472T188 456T222 472T235 519ZM667 377T710 328T753 185T711 41T601 -8T491
39T448 183T490 328T599 377ZM648 185Q648 250 601 250T554 185Q554 154 567 138T601 122T635 138T648 185ZM578 702Q587 710 597 710Q634 710 664 673Q676 658 676 649T672 634L197 -2Q188 -10 178 -10Q142 -10 112 28Q99 43 99 52T103 66L578 702Z" />
<glyph unicode="&amp;" glyph-name="ampersand" horiz-adv-x="667" d="M349 489L350 499Q350 524 334 539T293 554T253 538T237 494Q237 418 344 418Q368 418 398 422Q595 447 597 447Q625 447 625 390Q625 344 606 299L504 287Q530 224 530 173Q530 94 470 42T294
-10T111 46T44 191T129 343Q66 413 66 505T130 653T296 710T457 660T517 525Q517 508 485 492T407 476T349 489ZM239 285Q228 256 228 234T235 194Q251 155 299 155Q333 155 348 179T364 241Q364 258 363 266T362 277Q328 271 295 271T239 285Z" />
<glyph unicode="&apos;" glyph-name="quotesingle" horiz-adv-x="301" d="M160 422T146 422T118 426Q90 434 90 452L70 663Q70 681 108 689Q127 693 146 693T184 689Q223 681 223 663L203 452Q203 434 174 426Q160 422 146 422Z" />
<glyph unicode="(" glyph-name="parenleft" horiz-adv-x="430" d="M190 676Q201 696 224 696Q259 696 282 687T316 674T341 661Q293 555 270 478T246 311Q247 138 344 -28Q334 -38 306 -51T262 -68T236 -73Q200 -73 186 -44Q95 140 95 321T190 676Z" />
<glyph unicode=")" glyph-name="parenright" horiz-adv-x="422" d="M249 676Q344 502 344 321T253 -44Q238 -73 203 -73Q182 -73 151 -59Q105 -38 95 -28Q192 138 193 311Q193 401 170 478T98 661Q98 663 131 677Q178 697 206 697T249 676Z" />
<glyph unicode="*" glyph-name="asterisk" horiz-adv-x="557" d="M326 549Q447 572 457 572T478 554T488 524Q488 486 465 484L350 470L424 356Q438 322 383 302Q373 299 367 299Q347 299 342 309L283 422L229 309Q223 301 214 301T190 304T160 322T145 345T149
359L219 470Q136 481 104 484Q81 485 81 517Q81 535 91 553T116 572L241 549L237 668Q236 685 260 692Q272 696 284 696T308 692Q331 685 330 668L326 549Z" />
<glyph unicode="+" glyph-name="plus" horiz-adv-x="602" d="M353 574V406H522Q540 406 548 377Q552 362 552 348T548 319Q540 290 522 290H353V119Q353 101 324 93Q310 89 295 89L266 93Q237 101 237 119V290H67Q49 290 41 319Q37 334 37 348T41 377Q49 406 67
406H237V574Q237 592 266 600Q280 604 295 604L324 600Q353 592 353 574Z" />
<glyph unicode="," glyph-name="comma" horiz-adv-x="305" d="M120 148Q126 164 205 164T284 143L282 58L224 -78Q211 -107 144 -107T58 -85Q54 -80 54 -76T55 -67L116 57L120 148Z" />
<glyph unicode="-" glyph-name="hyphen" horiz-adv-x="525" d="M460 190H65Q47 190 39 219Q35 234 35 248T39 277Q47 306 65 306H460Q478 306 486 277Q490 262 490 248T486 219Q478 190 460 190Z" />
<glyph unicode="." glyph-name="period" horiz-adv-x="229" d="M209 -3Q209 -10 115 -10T20 -4V176Q20 185 114 185T209 180V-3Z" />
<glyph unicode="/" glyph-name="slash" horiz-adv-x="573" d="M470 775Q475 786 489 786T520 779Q557 762 568 739Q572 732 572 726T570 716L103 -95Q97 -105 82 -105T52 -98Q14 -80 3 -58Q0 -52 0 -47T3 -36L470 775Z" />
<glyph unicode="0" glyph-name="zero" horiz-adv-x="639" d="M194 -10T115 82T35 351T115 618T321 709T526 619T604 348T525 79T320 -10ZM281 517T255 474T228 350T253 228T319 185T385 228T411 351T385 474T320 517Z" />
<glyph unicode="1" glyph-name="one" horiz-adv-x="406" d="M356 17Q356 0 255 0T153 17V510L45 509Q15 509 15 605Q15 638 21 669T44 700H318Q335 700 345 693T356 674V17Z" />
<glyph unicode="2" glyph-name="two" horiz-adv-x="525" d="M433 0H101Q66 0 52 68Q45 105 45 124T51 149Q275 380 275 463Q275 491 261 505T215 519T152 507T102 481Q63 528 48 580Q43 597 43 611T48 639Q56 665 122 688T263 711Q487 711 487 512Q487 424 427
334T287 177L489 185Q494 132 494 93T478 27T433 0Z" />
<glyph unicode="3" glyph-name="three" horiz-adv-x="528" d="M20 66Q20 94 34 129T61 186T76 208Q134 173 198 173Q238 173 262 189T287 233T265 270T193 281H157Q145 281 135 310T124 368Q124 415 152 416L181 417Q208 417 237 432T267 472Q267 514 192 514Q136
514 84 492Q39 573 39 618T102 687T262 710T412 670T466 561Q466 440 362 375Q488 324 488 202Q488 107 421 49T229 -10Q150 -10 85 12T20 66Z" />
<glyph unicode="4" glyph-name="four" horiz-adv-x="598" d="M547 299Q557 299 557 224T547 148L481 147V21Q481 10 440 5T369 0L328 2Q277 6 277 20V144H78Q52 170 31 211T10 271T16 301L235 689Q239 697 296 701T417 705T480 700L481 299H547ZM306 298V507L189
298H306Z" />
<glyph unicode="5" glyph-name="five" horiz-adv-x="524" d="M427 700Q446 700 446 617Q446 591 442 556T425 520H230L229 447H262Q369 447 421 385T474 221T402 55T217 -10T52 22Q44 35 44 62T52 140T74 191Q75 191 80 187Q151 158 188 158T250 178T275 231Q275
311 189 311L103 310Q93 308 83 318T73 346V659Q73 700 103 700H427Z" />
<glyph unicode="6" glyph-name="six" horiz-adv-x="575" d="M427 508Q387 530 334 530Q241 530 228 410Q280 425 339 425Q440 425 487 373T535 229Q535 119 467 55T283 -10T101 74T35 315Q35 497 117 603T332 710Q482 710 482 649Q482 605 454 555Q444 533 427
508ZM362 228Q362 259 343 278T286 298T227 284Q226 271 226 255T229 216T249 170T293 147Q362 147 362 228Z" />
<glyph unicode="7" glyph-name="seven" horiz-adv-x="500" d="M313 13Q308 -3 207 -3T94 6Q90 9 90 13L257 503H54Q24 503 24 600Q24 633 30 664T53 695L403 696Q443 696 468 652Q480 630 485 608L313 13Z" />
<glyph unicode="8" glyph-name="eight" horiz-adv-x="570" d="M538 211Q538 113 468 51T280 -11T95 48T27 204T124 376Q56 435 56 518T121 655T287 709T448 659T509 532T444 393Q485 363 511 316T538 211ZM225 220Q225 191 242 174T286 156T328 173T345 220Q345
274 276 309Q225 278 225 220ZM333 503Q333 525 318 540T283 555Q232 555 230 506Q230 461 299 421Q333 459 333 503Z" />
<glyph unicode="9" glyph-name="nine" horiz-adv-x="565" d="M122 174Q197 159 235 159T303 183T339 258Q289 244 259 244Q154 244 97 302T40 468T105 643T285 710T464 630T530 394Q530 199 461 95T254 -10Q84 -10 84 47Q84 77 96 125T122 174ZM251 530T234 510T216
457T236 406T289 386T341 400Q341 469 328 499T283 530Z" />
<glyph unicode=":" glyph-name="colon" horiz-adv-x="277" d="M247 -3Q247 -10 153 -10T58 -4V176Q58 185 152 185T247 180V-3ZM247 318Q247 311 153 311T58 317V497Q58 506 152 506T247 501V318Z" />
<glyph unicode=";" glyph-name="semicolon" horiz-adv-x="277" d="M80 148Q86 164 165 164T244 143L242 58L184 -78Q171 -107 104 -107T18 -85Q14 -80 14 -76T15 -67L76 57L80 148ZM247 318Q247 311 153 311T58 317V497Q58 506 152 506T247 501V318Z" />
<glyph unicode="&lt;" glyph-name="less" horiz-adv-x="484" d="M300 638T311 638T343 628T378 600T392 574T386 559L184 335L389 124Q395 118 395 110T381 83T346 55T315 45T297 52L66 308Q52 322 52 333T62 354L294 631Q300 638 311 638Z" />
<glyph unicode="=" glyph-name="equal" horiz-adv-x="580" d="M492 160H97Q79 160 71 189Q67 204 67 218T71 247Q79 276 97 276H492Q510 276 518 247Q522 232 522 218T518 189Q510 160 492 160ZM492 384H97Q79 384 71 413Q67 428 67 442T71 471Q79 500 97 500H492Q510
500 518 471Q522 456 522 442T518 413Q510 384 492 384Z" />
<glyph unicode="&gt;" glyph-name="greater" horiz-adv-x="450" d="M385 354Q395 344 395 333T381 308L150 52Q143 45 133 45T101 54T66 82T52 109T58 124L263 335L61 559Q55 565 55 573T68 600T103 627T135 637T153 631L385 354Z" />
<glyph unicode="?" glyph-name="question" horiz-adv-x="584" d="M227 198Q148 198 148 217V255Q148 300 223 370Q251 396 274 429T298 489Q298 539 241 539T125 501Q87 539 72 587Q66 603 66 615T71 639Q79 665 145 688T286 711Q398 711 454 663T510 532Q510
494 492 458T447 394T394 342Q331 282 331 251V221Q331 209 294 204T227 198ZM325 -4Q325 -10 243 -10T160 -5V152Q160 160 242 160T325 155V-4Z" />
<glyph unicode="@" glyph-name="at" horiz-adv-x="867" d="M607 -29Q607 -88 409 -88Q238 -88 139 0T39 252Q39 441 155 556T462 672Q609 672 698 585T787 366T726 169T575 104Q544 104 515 117T471 146Q424 105 360 105T261 139T226 242Q226 351 303 426T474
501Q553 501 571 470Q580 454 580 437T552 216L594 214Q610 214 624 226T646 253Q667 289 667 362Q667 458 609 514T456 571Q315 571 233 484T150 257Q150 19 435 19Q523 19 577 37Q582 32 592 18Q607 -8 607 -29ZM435 383Q413 383 391 344T366 253Q366 216 399
216Q418 216 426 225L446 368Q448 383 435 383Z" />
<glyph unicode="A" glyph-name="A" horiz-adv-x="655" d="M520 -2Q433 -2 426 26L393 155H234L205 31Q199 0 109 0Q61 0 38 5T15 14L192 691Q192 699 329 699T466 691L639 13Q639 6 593 2T520 -2ZM259 282H364L319 489H313L259 282Z" />
<glyph unicode="B" glyph-name="B" horiz-adv-x="594" d="M541 519Q541 415 451 361Q500 343 533 299T566 175T507 47T336 0H100Q83 0 72 11T61 42V682Q61 693 64 696T79 700H307Q541 700 541 519ZM253 538V407H258Q354 407 354 471Q354 506 336 522T274 538H253ZM253
289V159H271Q314 159 334 175T354 226T336 275T274 289H253Z" />
<glyph unicode="C" glyph-name="C" horiz-adv-x="561" d="M409 709T464 689T520 633T494 547T449 495Q444 495 438 500T408 512T367 519Q309 519 274 478T238 353T274 227T367 186Q390 186 418 192T459 211Q461 213 467 213T489 191T520 132T534 75Q534 36 474
13T332 -10Q200 -10 115 83T30 345T117 612T336 709Q409 709 464 689Z" />
<glyph unicode="D" glyph-name="D" horiz-adv-x="616" d="M50 46V646Q50 671 62 685T95 700H262Q421 700 503 620T586 368Q586 0 272 0H101Q50 0 50 46ZM242 510V211Q242 190 245 185T263 179Q318 179 346 220T375 356T346 481T252 510H242Z" />
<glyph unicode="E" glyph-name="E" horiz-adv-x="493" d="M375 422Q394 422 394 352Q394 331 390 303T373 274H246V174H430Q447 174 453 130Q456 111 456 90T450 34T430 0H88Q50 0 50 31V674Q50 700 73 700H431Q452 700 452 612T431 523H246V422H375Z" />
<glyph unicode="F" glyph-name="F" horiz-adv-x="472" d="M424 700Q441 700 441 612T424 523H241V409H363Q380 409 380 332T364 254H241V13Q241 -1 204 -5T141 -10L94 -8Q45 -2 45 12V674Q45 690 51 695T71 700H424Z" />
<glyph unicode="G" glyph-name="G" horiz-adv-x="621" d="M420 209L422 345Q422 359 451 363T499 368L538 365Q576 359 576 344L572 31Q552 17 492 4T353 -10Q208 -10 119 84T30 360Q30 515 117 612T358 709Q428 709 484 696T562 659Q563 651 563 629T548 567T514
506T487 486T469 493T431 509T377 518Q315 518 277 478T238 354T277 227T368 183T420 209Z" />
<glyph unicode="H" glyph-name="H" horiz-adv-x="644" d="M594 17Q594 0 493 0T392 17V247H252V17Q252 0 151 0T50 17V680Q50 701 151 701T252 680V445H392V678Q392 692 442 698Q468 700 493 700L544 698Q594 692 594 678V17Z" />
<glyph unicode="I" glyph-name="I" horiz-adv-x="429" d="M116 172V528H45Q28 528 21 571Q18 592 18 614T21 657Q28 700 45 700H381Q398 700 404 657Q408 636 408 614T404 571Q398 528 381 528H314V172H384Q401 172 408 129Q412 108 412 86T408 43Q401 0 384 0H47Q30
0 24 43Q20 64 20 86T24 129Q30 172 47 172H116Z" />
<glyph unicode="J" glyph-name="J" horiz-adv-x="462" d="M9 90Q9 119 26 157T63 210Q101 182 140 182L171 187Q225 203 227 273V528H147Q130 528 123 571Q120 592 120 614T123 657Q130 700 147 700H385Q405 700 415 689T425 661V189Q425 91 360 40T203 -11T60 16T9 90Z" />
<glyph unicode="K" glyph-name="K" horiz-adv-x="620" d="M250 14Q250 -1 156 -1L100 2Q50 6 50 16V687Q50 704 150 704T250 687V431L372 687Q379 701 452 701Q585 701 592 678Q592 676 591 674L417 360L619 81Q619 79 600 64Q554 24 492 1Q473 -6 454 -6L430
-4Q398 4 380 37L266 255H250V14Z" />
<glyph unicode="L" glyph-name="L" horiz-adv-x="435" d="M40 59V681Q40 702 141 702T243 681V191H397Q415 191 422 144Q425 121 425 97T422 48Q414 0 396 0H88Q66 0 53 18T40 59Z" />
<glyph unicode="M" glyph-name="M" horiz-adv-x="907" d="M750 -1Q661 -1 661 19L640 420L518 14Q514 2 450 2T384 13L258 424L244 25Q243 10 206 5T145 -1T97 2Q49 9 50 27L73 677Q73 701 195 701Q231 701 283 696T341 674L453 359L551 675Q560 701 689 701Q726
701 777 696T829 676L858 20Q858 9 819 4T750 -1Z" />
<glyph unicode="N" glyph-name="N" horiz-adv-x="648" d="M598 22Q598 1 504 1T402 16L235 328V17Q235 -1 143 -1T50 17V686Q50 701 129 701Q160 701 201 696T252 675L412 367V681Q412 700 505 700T598 681V22Z" />
<glyph unicode="O" glyph-name="O" horiz-adv-x="696" d="M207 -10T119 82T30 350T119 618T350 709T579 620T666 349T577 79T348 -10ZM300 517T268 473T235 350T266 228T347 185T429 228T461 351T429 474T348 517Z" />
<glyph unicode="P" glyph-name="P" horiz-adv-x="570" d="M137 -2Q46 -2 46 18V666Q46 700 77 700H253Q401 700 466 639T532 462Q532 366 470 286Q439 246 379 222T239 198V19Q239 7 202 3T137 -2ZM239 526V368H252Q287 368 311 390T335 452T319 509T260 526H239Z" />
<glyph unicode="Q" glyph-name="Q" horiz-adv-x="706" d="M30 349Q30 527 119 618T350 709T579 620T666 349Q666 210 612 125T464 8L570 -65Q576 -69 576 -79T554 -119T500 -163T452 -179T426 -168L280 -6Q168 15 99 106T30 349ZM300 517T268 473T235 350T266
228T347 185T429 228T461 351T429 474T348 517Z" />
<glyph unicode="R" glyph-name="R" horiz-adv-x="590" d="M241 14Q241 -2 146 -2Q50 -2 50 13V665Q50 700 87 700H278Q541 700 541 495Q541 433 517 383T449 302L575 92Q567 68 523 37Q463 -6 424 -6T366 22L272 241H241V14ZM241 523V373H246Q341 373 341 452Q341
488 323 505T262 523H241Z" />
<glyph unicode="S" glyph-name="S" horiz-adv-x="531" d="M76 244Q95 229 141 203T230 177T273 210Q273 225 261 236T217 263T169 286T127 314T86 355Q46 412 46 500T111 648T283 709Q355 709 416 694T479 653Q479 650 479 647Q479 612 457 559T426 499Q362 532
312 532T261 496Q261 474 298 457Q306 453 321 446T355 430T397 406T446 367Q499 317 499 235Q499 128 440 60T258 -10Q198 -10 150 0T65 39T29 109T44 190T76 244Z" />
<glyph unicode="T" glyph-name="T" horiz-adv-x="502" d="M351 16Q351 -4 252 -4T153 16V518H33Q16 518 9 564Q6 586 6 609T9 654Q16 700 33 700H468Q485 700 492 654Q495 632 495 609T492 564Q485 518 468 518H351V16Z" />
<glyph unicode="U" glyph-name="U" horiz-adv-x="628" d="M377 680Q377 700 485 700T594 680V221Q594 119 521 55T320 -10T111 56T30 236V679Q30 699 138 699T247 679V228Q247 208 268 196Q290 184 314 184T357 195T377 228V680Z" />
<glyph unicode="V" glyph-name="V" horiz-adv-x="661" d="M11 687Q11 692 54 696T126 701Q237 701 242 672L328 232L409 672Q415 701 533 701Q562 701 606 697T650 688L473 26Q469 10 414 5Q329 -4 260 1T186 21L11 687Z" />
<glyph unicode="W" glyph-name="W" horiz-adv-x="953" d="M21 690Q18 701 122 701Q237 701 240 682L289 261L395 687Q400 702 473 702T551 688L655 259L713 684Q715 695 759 699T830 703Q935 703 932 689L811 26Q807 11 754 4T668 -3Q544 -3 538 25L470 300L396
26Q392 8 326 0Q292 -3 258 -3L194 0Q128 7 124 25L21 690Z" />
<glyph unicode="X" glyph-name="X" horiz-adv-x="683" d="M421 673Q433 703 546 703Q575 703 617 699T660 690L490 344L666 13Q669 8 623 4T545 -1Q418 -1 406 33L331 224L263 27Q253 -1 135 -1Q106 -1 63 3T24 14L180 360L18 690Q15 695 59 699T135 704Q261 704
273 668L342 500L421 673Z" />
<glyph unicode="Y" glyph-name="Y" horiz-adv-x="615" d="M398 667Q411 702 526 702Q555 702 594 698T631 688L423 270V26Q423 9 368 2Q340 -2 313 -2T259 1Q204 8 204 26V264L-11 686Q-15 692 30 697T106 703Q229 703 241 667L314 463L398 667Z" />
<glyph unicode="Z" glyph-name="Z" horiz-adv-x="563" d="M76 518Q59 518 52 564Q49 583 49 606T54 654Q63 700 84 700H454Q515 700 533 589Q537 565 537 554L303 199H486Q487 199 488 199Q510 199 519 151Q523 128 523 103T517 50Q506 0 483 0H94Q85 0 62 60T38
136T41 155L275 518H76Z" />
<glyph unicode="[" glyph-name="bracketleft" horiz-adv-x="385" d="M109 798H325Q343 798 351 769Q355 754 355 740T351 711Q343 682 325 682H196V0H325Q343 0 351 -29Q355 -44 355 -58T351 -87Q343 -116 325 -116H109Q80 -116 80 -87V769Q80 798 109 798Z" />
<glyph unicode="\" glyph-name="backslash" horiz-adv-x="587" d="M587 -36Q589 -40 589 -46T584 -62Q574 -82 536 -99Q521 -106 514 -106Q492 -106 487 -95L20 716Q17 721 17 726T22 742Q31 760 70 778Q84 785 91 785T106 785T120 775L587 -36Z" />
<glyph unicode="]" glyph-name="bracketright" horiz-adv-x="385" d="M60 798H276Q305 798 305 769V-87Q305 -116 276 -116H60Q42 -116 34 -87Q30 -72 30 -58T34 -29Q42 0 60 0H189V682H60Q42 682 34 711Q30 726 30 740T34 769Q42 798 60 798Z" />
<glyph unicode="^" glyph-name="asciicircum" horiz-adv-x="687" d="M630 447Q636 440 636 430T627 398T599 363T573 349T558 355L334 557L123 352Q117 346 109 346T82 359T54 394T44 426T51 444L307 675Q321 689 332 689T353 679L630 447Z" />
<glyph unicode="_" glyph-name="underscore" horiz-adv-x="636" d="M552 -150H77Q59 -150 51 -121Q47 -106 47 -92T51 -63Q59 -34 77 -34H552Q570 -34 578 -63Q582 -78 582 -92T578 -121Q570 -150 552 -150Z" />
<glyph unicode="`" glyph-name="grave" horiz-adv-x="350" d="M248 529T76 605Q71 610 71 619Q71 652 90 681T119 711Q122 711 285 621Q291 615 291 607Q291 577 275 553T250 529Q248 529 76 605Z" />
<glyph unicode="a" glyph-name="a" horiz-adv-x="517" d="M108 363Q80 413 80 444T97 485Q154 510 253 510T394 464T435 326V168H469Q486 168 495 148T505 93T488 24T440 -10Q386 -10 353 19Q338 31 330 48Q284 -10 187 -10Q114 -10 64 42T14 165Q14 328 209 328H264V338Q264
364 256 371T216 379Q178 379 108 363ZM188 179Q188 157 200 146T230 134T264 149V226H236Q188 226 188 179Z" />
<glyph unicode="b" glyph-name="b" horiz-adv-x="520" d="M50 697Q50 709 136 709T223 696V502Q266 510 284 510Q494 510 494 269Q494 135 430 63T247 -10T50 43V697ZM256 354Q239 354 223 343V152Q237 146 252 146T284 158Q312 178 312 251Q312 354 256 354Z" />
<glyph unicode="c" glyph-name="c" horiz-adv-x="424" d="M209 248Q209 150 283 150Q331 150 363 169Q378 169 387 118T397 48T392 23Q339 -10 247 -10T91 58T26 245T89 437T258 510T405 459Q414 448 414 427T406 374Q388 310 359 300Q355 299 348 299T329 311Q290
350 267 350T226 326T209 248Z" />
<glyph unicode="d" glyph-name="d" horiz-adv-x="565" d="M298 694Q298 709 377 709Q404 709 439 706T475 696V169H510Q535 169 543 124Q545 111 545 89T531 34Q511 -10 467 -10Q434 -10 409 3T374 30L365 43Q310 -10 227 -10T85 59T26 251T88 442T243 510Q270
510 298 504V694ZM265 350Q209 350 209 249Q209 198 225 176T260 153T298 170V340Q281 350 265 350Z" />
<glyph unicode="e" glyph-name="e" horiz-adv-x="486" d="M423 27Q360 -10 261 -10T94 57T26 244T91 437T257 510T411 459T466 335Q466 173 280 173H211Q211 143 227 132T276 120Q346 120 409 152Q410 153 418 138Q442 95 442 66T423 27ZM298 316Q298 358 257
358Q238 358 225 347T211 313V282H265Q298 282 298 316Z" />
<glyph unicode="f" glyph-name="f" horiz-adv-x="375" d="M84 367H35Q20 367 20 433T35 500H84V522Q84 628 128 668T253 709T394 680Q402 677 402 659T385 599T356 552Q322 573 286 573Q247 573 247 521V500H330Q348 500 348 436Q348 366 325 366H261V12Q261 0
173 0T84 12V367Z" />
<glyph unicode="g" glyph-name="g" horiz-adv-x="516" d="M229 0Q132 0 79 62T26 247T95 439T280 509T471 458V-40Q471 -114 411 -153T257 -193T89 -169Q79 -145 79 -126Q79 -62 100 -32Q167 -61 243 -61Q298 -61 298 -22V8Q255 0 229 0ZM275 346Q208 346 208
245Q208 182 234 163Q251 150 268 150T298 153V343Q286 346 275 346Z" />
<glyph unicode="h" glyph-name="h" horiz-adv-x="501" d="M212 7Q212 -2 129 -2T45 12V697Q45 704 76 707T128 710Q212 710 212 692V492Q268 509 297 509Q373 509 417 469T461 318V8Q461 -1 383 -1Q295 2 295 9V303Q295 352 263 352Q241 352 212 331V7Z" />
<glyph unicode="i" glyph-name="i" horiz-adv-x="273" d="M228 6Q228 -2 137 -2T45 5V496Q45 503 136 503T228 497V6ZM228 556Q228 549 137 549T45 555V699Q45 709 136 709T228 703V556Z" />
<glyph unicode="j" glyph-name="j" horiz-adv-x="271" d="M45 35V496Q45 502 135 502T226 497V-36Q226 -110 165 -153T11 -197Q-118 -197 -118 -107Q-118 -77 -108 -57Q-99 -58 -83 -58Q-10 -58 17 -35T45 35ZM45 555V699Q45 709 135 709T226 703V556Q226 549
136 549T45 555Z" />
<glyph unicode="k" glyph-name="k" horiz-adv-x="531" d="M45 692Q45 708 136 708Q221 705 221 695V311L320 494Q327 509 405 509T505 499L375 287L525 6Q527 2 488 0T422 -3Q326 -3 319 6L220 228V7Q220 -6 133 -6T45 6V692Z" />
<glyph unicode="l" glyph-name="l" horiz-adv-x="272" d="M227 8Q227 -1 125 -1Q45 0 45 7V688Q45 703 142 703Q227 700 227 693V8Z" />
<glyph unicode="m" glyph-name="m" horiz-adv-x="788" d="M498 5Q498 -2 413 -2T327 7V298Q327 348 294 348Q277 348 249 326V6Q249 -4 164 -4T78 7V334H53Q20 334 20 403Q20 434 32 466Q48 510 84 510T153 491T194 455Q256 510 331 510T453 463Q507 510 583 510Q748
510 748 309V5Q748 -2 663 -2T577 7V298Q577 348 544 348Q526 348 498 326V5Z" />
<glyph unicode="n" glyph-name="n" horiz-adv-x="551" d="M254 6Q254 -1 182 -1Q82 2 82 10V334H56Q30 334 22 378Q20 391 20 404Q20 435 32 466Q50 510 88 510T156 492T196 456Q259 510 346 510T472 463T511 309V9Q511 -3 426 -3T340 9V298Q340 348 305 348Q295
348 277 340T254 327V6Z" />
<glyph unicode="o" glyph-name="o" horiz-adv-x="513" d="M26 128T26 250T88 441T257 510T425 441T487 250T425 59T257 -10T89 59ZM201 343T201 251T257 159T314 251T258 343Z" />
<glyph unicode="p" glyph-name="p" horiz-adv-x="555" d="M260 -182Q260 -189 175 -189T89 -182V333H55Q31 333 22 377Q19 391 19 413T33 465Q53 509 97 509Q126 509 150 496T184 471T194 457Q261 509 339 509T473 449T529 262T473 66T331 -4Q292 -4 260 0V-182ZM301
334Q284 334 268 323V146Q285 144 295 144T312 144Q353 148 353 249Q353 334 301 334Z" />
<glyph unicode="q" glyph-name="q" horiz-adv-x="511" d="M226 -4Q134 -4 80 67T26 257T92 443T273 510T466 457V-180Q466 -193 380 -193T294 -180V4Q254 -4 226 -4ZM228 334Q205 314 205 248T232 163Q247 153 263 153T294 158V344Q279 348 261 348T228 334Z" />
<glyph unicode="r" glyph-name="r" horiz-adv-x="396" d="M264 1Q264 -6 173 -6Q82 -4 82 2V334H55Q39 334 30 353T20 402Q20 510 84 510Q129 510 159 483T189 420Q210 461 245 485T318 510Q376 510 388 480Q391 472 391 457T382 401T362 343T350 325T332 332T302
340Q264 340 264 280V1Z" />
<glyph unicode="s" glyph-name="s" horiz-adv-x="450" d="M66 180Q147 131 194 131Q224 131 224 152Q224 167 172 191Q47 242 47 358Q47 432 101 471T230 510T358 494T411 452Q411 430 390 394T360 355Q317 379 267 379Q240 379 240 360Q240 348 250 340T289 319T335
296T377 268Q425 230 425 169Q425 89 372 40T212 -10Q141 -10 83 14T25 80Q25 108 38 139T66 180Z" />
<glyph unicode="t" glyph-name="t" horiz-adv-x="368" d="M275 6Q275 -6 191 -6Q91 -2 91 7V361H40Q20 361 20 430Q20 448 23 474T38 500H91V588Q91 608 175 608T260 592V528L261 500H346Q363 500 363 430T346 360H275V6Z" />
<glyph unicode="u" glyph-name="u" horiz-adv-x="544" d="M40 494Q40 505 126 505T212 494V202Q212 152 244 152Q268 152 298 173V494Q298 504 383 504T468 494V166H494Q528 166 528 101Q528 68 514 34Q494 -10 460 -10Q393 -10 361 45L360 44Q299 -10 229 -10Q132
-10 86 38T40 199V494Z" />
<glyph unicode="v" glyph-name="v" horiz-adv-x="521" d="M6 497Q3 505 99 505T196 500L268 160L322 495Q325 504 421 504Q518 504 515 496L374 7Q367 -3 255 -3T135 12L6 497Z" />
<glyph unicode="w" glyph-name="w" horiz-adv-x="752" d="M564 495Q564 504 619 504Q743 504 741 496L643 10Q640 -6 532 -6T421 10L380 234L329 10Q326 -5 215 -5T100 13L11 500Q8 506 97 506Q185 505 185 502L231 164L314 498Q316 504 380 504T446 498L528 168L564
495Z" />
<glyph unicode="x" glyph-name="x" horiz-adv-x="557" d="M345 497Q349 505 395 505Q545 505 541 494L419 241Q542 11 542 11Q542 5 482 1T397 -3Q334 -3 330 10L276 177L214 3Q212 -4 157 -4T59 0T20 10L133 240Q15 487 15 488Q15 494 45 499T114 504T188 501T227
491L280 329L345 497Z" />
<glyph unicode="y" glyph-name="y" horiz-adv-x="537" d="M10 495Q10 506 101 506T196 496L268 260L337 498Q341 506 399 506Q532 506 526 493L291 -176Q290 -182 237 -182T137 -179T93 -170L180 40L10 495Z" />
<glyph unicode="z" glyph-name="z" horiz-adv-x="454" d="M43 340Q36 340 36 383Q36 500 55 500H374Q381 500 405 456T429 407T428 400L234 156L408 168Q424 168 424 97Q424 70 419 35T402 0H82Q67 0 46 50T25 110T27 123L218 346L43 340Z" />
<glyph unicode="{" glyph-name="braceleft" horiz-adv-x="362" d="M225 202V-63Q225 -104 276 -145Q282 -150 282 -159T255 -191T199 -214Q186 -214 179 -208Q158 -188 146 -174T121 -129T109 -63V177Q109 201 91 226T46 263Q30 272 30 319T46 373Q109 397 109
457V712Q109 780 183 842Q192 847 203 847Q240 847 270 814Q281 801 281 793T276 780Q225 729 225 697V447Q225 373 167 315Q225 259 225 202Z" />
<glyph unicode="|" glyph-name="bar" horiz-adv-x="628" d="M369 893V-190Q369 -208 340 -216Q326 -220 311 -220L282 -216Q253 -208 253 -190V893Q253 911 282 919Q296 923 311 923L340 919Q369 911 369 893Z" />
<glyph unicode="}" glyph-name="braceright" horiz-adv-x="362" d="M138 -63V202Q138 260 195 315Q137 373 137 447V697Q137 729 86 780Q81 785 81 793T95 818T128 841T158 847T179 842Q256 778 256 712V457Q256 396 316 373Q332 366 332 328Q332 272 316 263Q289
251 273 227T256 177V-63Q256 -99 243 -129T218 -173T183 -208Q175 -215 160 -215T113 -196T81 -156Q81 -149 86 -145Q138 -103 138 -63Z" />
<glyph unicode="~" glyph-name="asciitilde" horiz-adv-x="459" d="M74 226Q55 231 39 259T22 297T25 310Q88 373 155 373Q186 373 225 355T285 336Q322 337 354 375Q356 376 359 376Q371 376 392 348T413 310Q413 281 366 248Q334 227 305 227Q301 227 298 227Q260
227 214 247T158 267T140 265T128 262T115 255T103 248T89 237T74 226Z" />
<glyph unicode="&#xa1;" glyph-name="exclamdown" horiz-adv-x="287" d="M65 290Q65 296 136 296T208 291L228 -190Q228 -198 137 -198T45 -191L65 290ZM230 350Q230 343 138 343T45 349V493Q45 503 137 503T230 497V350Z" />
<glyph unicode="&#xa2;" glyph-name="cent" horiz-adv-x="528" d="M277 707Q277 726 305 726T333 707V644Q391 640 432 622T473 578T458 518T426 464L410 443Q384 458 333 461V255Q388 259 427 277Q447 250 461 214T475 146T435 92T333 66V4Q333 -17 305 -17T277
4V65Q167 71 101 145T35 354T101 562T277 644V707ZM205 445T205 359T277 257V459Q205 445 205 359Z" />
<glyph unicode="&#xa3;" glyph-name="sterling" horiz-adv-x="490" d="M389 299H297Q291 218 260 171H432Q450 171 458 128Q461 107 461 86T458 43Q451 0 433 0H91Q67 14 47 62Q37 86 37 103T47 130Q129 212 137 299H52Q38 299 32 320Q30 330 30 341T32 362Q38
383 51 383H111Q109 386 101 399T89 418T78 437T68 459T60 482Q52 505 52 539Q52 710 301 710Q364 710 412 693T460 644T446 563T419 503Q379 524 329 524Q234 524 234 463Q234 424 279 383H389Q409 383 409 341T389 299Z" />
<glyph unicode="&#xa4;" glyph-name="currency" horiz-adv-x="728" d="M473 159Q417 123 354 123T238 159L159 80Q154 75 147 75T125 84T99 112T97 141L176 220Q140 276 140 340T174 456L92 538Q87 542 87 549T96 570T120 594T142 604T154 599L235 518Q289 556
354 556T475 519L555 599Q559 604 566 604T587 596T611 572T621 549T617 538L536 458Q572 405 572 340T534 219L613 140Q622 131 610 112T584 84T563 75T552 80L473 159ZM235 388T235 340T270 255Q305 220 355 220T439 254T474 339T440 424T357 460Q307 460 271
424Z" />
<glyph unicode="&#xa5;" glyph-name="yen" horiz-adv-x="659" d="M567 213H433V17Q433 0 378 -8Q350 -11 323 -11T269 -8Q214 -1 214 17V213H91Q68 213 68 245T91 277H214V338H91Q68 338 68 375T91 412H182L0 696Q-5 704 43 707T116 711Q219 711 240 677L331 520L421
677Q439 711 552 711Q577 711 614 707T649 698L468 412H567Q582 412 588 394Q592 384 592 375T589 356Q583 338 567 338H433V277H567Q582 277 588 261Q592 253 592 245T589 229Q583 213 567 213Z" />
<glyph unicode="&#xa6;" glyph-name="brokenbar" horiz-adv-x="415" d="M269 193V-190Q269 -208 240 -216Q226 -220 211 -220L182 -216Q153 -208 153 -190V193Q153 211 182 219Q196 223 211 223L240 219Q269 211 269 193ZM269 711V355Q269 337 240 329Q226 325
211 325L182 329Q153 337 153 355V711Q153 729 182 737Q196 741 211 741L240 737Q269 729 269 711Z" />
<glyph unicode="&#xa7;" glyph-name="section" horiz-adv-x="617" d="M91 24Q120 7 176 -18T278 -43T324 -13Q324 2 297 16T231 46T153 83T87 141T59 228Q59 320 137 372Q63 419 59 507Q59 598 129 654T318 710Q396 710 463 696T532 659Q532 623 508 573T474 518Q384
545 330 545T276 512Q276 476 374 433Q415 415 456 394T525 340T554 266Q554 174 476 124Q507 104 530 69T554 0Q554 -93 490 -150T290 -209Q146 -209 79 -164Q40 -137 40 -100T56 -25T91 24ZM383 208T383 231T346 278T278 303Q235 303 235 260Q235 234 270 210T333
185T372 196Z" />
<glyph unicode="&#xa8;" glyph-name="dieresis" horiz-adv-x="457" d="M177 552Q177 546 108 546T38 551V691Q38 700 107 700T177 695V552ZM407 552Q407 546 338 546T268 551V691Q268 700 337 700T407 695V552Z" />
<glyph unicode="&#xa9;" glyph-name="copyright" horiz-adv-x="693" d="M84 352T84 464T162 654T353 733T543 655T622 464T544 274T353 195T163 273ZM268 680T205 617T142 466T203 316T354 253T506 316T569 466T507 617T356 680ZM450 583Q450 573 444 555T429
523T414 514Q397 524 375 524T339 510T325 469Q325 414 382 414Q411 414 422 425Q427 428 435 415Q455 382 455 355Q455 338 429 328T366 318Q300 318 258 357T216 466T259 576T367 616Q399 616 424 607T450 583Z" />
<glyph unicode="&#xaa;" glyph-name="ordfeminine" horiz-adv-x="506" d="M143 601Q124 630 124 654T135 681Q172 699 244 699T342 668T369 576V471H393Q416 471 416 425Q416 397 405 375T373 353Q335 353 316 372Q307 378 300 391Q268 353 195 353Q146 353 113
387T80 469Q80 567 200 567H247V585Q247 602 240 607T210 612T143 601ZM195 471Q195 442 223 442Q235 442 247 451V503H227Q195 503 195 471Z" />
<glyph unicode="&#xab;" glyph-name="guillemotleft" horiz-adv-x="773" d="M99 236Q89 246 89 257T103 282L271 479Q277 485 286 485T316 473T348 442T360 413T353 397L221 255L355 111Q362 105 362 96T351 67T319 35T289 23T273 29L99 236ZM399 236Q389 246
389 257T403 282L571 479Q577 485 586 485T616 473T648 442T660 413T653 397L521 255L655 111Q662 105 662 96T651 67T619 35T589 23T573 29L399 236Z" />
<glyph unicode="&#xac;" glyph-name="logicalnot" horiz-adv-x="613" d="M510 81Q510 60 454 60Q437 60 413 65T389 84L391 220H97Q79 220 71 249Q67 264 67 278T71 307Q79 336 97 336H469Q510 336 510 298V81Z" />
<glyph unicode="&#xad;" glyph-name="uni00AD" horiz-adv-x="454" d="M372 190H77Q59 190 51 219Q47 234 47 248T51 277Q59 306 77 306H372Q390 306 398 277Q402 262 402 248T398 219Q390 190 372 190Z" />
<glyph unicode="&#xae;" glyph-name="registered" horiz-adv-x="701" d="M84 352T84 464T162 654T353 733T543 655T622 464T544 274T353 195T163 273ZM268 680T205 617T142 466T203 316T354 253T506 316T569 466T507 617T356 680ZM475 529Q475 478 433 449L503
361Q499 353 485 341T457 323T433 317Q397 317 379 358L349 425H341V331Q341 319 293 319T244 331V600Q244 615 259 615H362Q475 615 475 529ZM341 543V483H343Q382 483 382 516Q382 543 349 543H341Z" />
<glyph unicode="&#xb0;" glyph-name="degree" horiz-adv-x="386" d="M40 443T40 526T80 654T192 699T304 654T345 526T305 399T193 353T81 398ZM108 573T108 526T130 454T192 428T254 453T276 526T254 598T193 624T131 599Z" />
<glyph unicode="&#xb1;" glyph-name="plusminus" horiz-adv-x="595" d="M353 259Q353 250 295 250T237 259V360H97Q79 360 71 389Q67 404 67 418T71 447Q79 476 97 476H237V614Q237 632 266 640Q280 644 295 644L324 640Q353 632 353 614V476H492Q510 476 518
447Q522 432 522 418T518 389Q510 360 492 360H353V259ZM97 213H492Q510 213 518 184Q522 170 522 155T518 126Q510 97 492 97H97Q79 97 71 126Q67 140 67 155T71 184Q79 213 97 213Z" />
<glyph unicode="&#xb2;" glyph-name="twosuperior" horiz-adv-x="352" d="M84 581Q55 624 55 652Q55 660 59 670T101 691T182 702Q290 702 290 606Q290 533 200 455L301 459Q303 441 303 415Q303 359 274 359H84Q67 359 60 399Q57 420 57 431T60 445Q135 504 151
526T168 565T161 591T133 599T84 581Z" />
<glyph unicode="&#xb3;" glyph-name="threesuperior" horiz-adv-x="305" d="M29 398Q29 417 39 438T55 468Q81 451 106 451Q154 451 154 482Q154 497 145 502T111 508H101Q95 508 91 519T86 542T95 553L113 554Q145 556 145 582Q145 602 114 602T59 592Q55 598
47 619T38 659T74 688T159 700T234 678T260 622Q260 574 209 543Q238 530 253 512T269 456T238 390T155 362T66 372T29 398Z" />
<glyph unicode="&#xb4;" glyph-name="acute" horiz-adv-x="357" d="M113 529Q104 529 90 549Q72 577 72 596T78 621Q241 711 244 711Q254 711 269 687Q292 652 292 621Q292 610 287 605Q115 529 113 529Z" />
<glyph unicode="&#xb5;" glyph-name="mu" horiz-adv-x="572" d="M40 494Q40 505 126 505T212 494V202Q212 152 244 152Q268 152 298 173V494Q298 504 383 504T468 494V166H494Q528 166 528 101Q528 68 514 34Q494 -10 460 -10Q393 -10 361 45Q337 21 305 12T253
3T212 9V-159Q212 -175 169 -181Q148 -184 128 -184L83 -180Q40 -174 40 -159V494Z" />
<glyph unicode="&#xb6;" glyph-name="paragraph" horiz-adv-x="780" d="M185 21V293Q110 293 70 350T30 498T85 644T245 700H674Q694 700 703 660Q708 639 708 619T704 580Q695 540 674 540H624V21Q624 2 574 -6Q550 -9 526 -9L474 -5Q424 3 424 21V510Q424 524
404 530Q394 532 384 532T364 530Q343 524 343 510V21Q343 4 304 -3Q284 -6 264 -6L224 -3Q185 4 185 21Z" />
<glyph unicode="&#xb7;" glyph-name="middot" horiz-adv-x="309" d="M247 217Q247 210 153 210T58 216V396Q58 405 152 405T247 400V217Z" />
<glyph unicode="&#xb8;" glyph-name="cedilla" horiz-adv-x="402" d="M101 -120Q101 -66 128 -66H161Q182 -66 188 -61T194 -34V21H255Q293 -61 293 -103Q293 -116 290 -125Q275 -170 196 -170Q152 -170 117 -154Q101 -147 101 -120Z" />
<glyph unicode="&#xb9;" glyph-name="onesuperior" horiz-adv-x="283" d="M231 683V363Q231 354 170 354T108 363V590L56 589Q41 589 41 642T56 695H213Q231 695 231 683Z" />
<glyph unicode="&#xba;" glyph-name="ordmasculine" horiz-adv-x="366" d="M40 443T40 526T80 654T192 699T304 654T345 526T305 399T193 353T81 398ZM153 578T153 527T193 476Q209 476 221 487T233 526T221 566T193 578Q153 578 153 527Z" />
<glyph unicode="&#xbb;" glyph-name="guillemotright" horiz-adv-x="732" d="M478 29Q471 22 462 22T432 34T401 66T389 95T396 111L530 255L398 397Q391 403 391 412T402 441T434 473T464 485T480 479L648 282Q662 268 662 257T652 236L478 29ZM178 29Q171 22
162 22T132 34T101 66T89 95T96 111L230 255L98 397Q91 403 91 412T102 441T134 473T164 485T180 479L348 282Q362 268 362 257T352 236L178 29Z" />
<glyph unicode="&#xbc;" glyph-name="onequarter" horiz-adv-x="839" d="M760 150Q766 150 766 114T760 77H729V9Q729 -3 667 -3Q615 0 615 8V75H509Q497 84 487 105T476 136T479 151L585 339Q588 346 658 346T728 344L729 150H760ZM634 149V251L577 149H634ZM271
688V368Q271 359 210 359T148 368V595L96 594Q81 594 81 647T96 700H253Q271 700 271 688ZM565 688Q576 698 586 698Q620 698 642 674Q654 663 654 655T650 640L257 0Q247 -10 237 -10Q203 -10 180 14Q168 26 168 34T172 49L565 688Z" />
<glyph unicode="&#xbd;" glyph-name="onehalf" horiz-adv-x="848" d="M273 688V368Q273 359 212 359T150 368V595L98 594Q83 594 83 647T98 700H255Q273 700 273 688ZM562 222Q533 265 533 293Q533 301 537 311T579 332T660 343Q768 343 768 247Q768 174 678 96L779
100Q781 82 781 56Q781 0 752 0H562Q545 0 538 40Q535 61 535 72T538 86Q613 145 629 167T646 206T639 232T611 240T562 222ZM565 688Q576 698 586 698Q620 698 642 674Q654 663 654 655T650 640L257 0Q247 -10 237 -10Q203 -10 180 14Q168 26 168 34T172 49L565
688Z" />
<glyph unicode="&#xbe;" glyph-name="threequarters" horiz-adv-x="868" d="M760 150Q766 150 766 114T760 77H729V9Q729 -3 667 -3Q615 0 615 8V75H509Q497 84 487 105T476 136T479 151L585 339Q588 346 658 346T728 344L729 150H760ZM634 149V251L577 149H634ZM69
398Q69 417 79 438T95 468Q121 451 146 451Q194 451 194 482Q194 497 185 502T151 508H141Q135 508 131 519T126 542T135 553L153 554Q185 556 185 582Q185 602 154 602T99 592Q95 598 87 619T78 659T114 688T199 700T274 678T300 622Q300 574 249 543Q278 530
293 512T309 456T278 390T195 362T106 372T69 398ZM565 688Q576 698 586 698Q620 698 642 674Q654 663 654 655T650 640L257 0Q247 -10 237 -10Q203 -10 180 14Q168 26 168 34T172 49L565 688Z" />
<glyph unicode="&#xbf;" glyph-name="questiondown" horiz-adv-x="584" d="M250 505Q250 511 332 511T415 506V349Q415 341 333 341T250 346V505ZM348 303Q427 303 427 284V246Q427 201 352 131Q324 105 301 72T277 12Q277 -38 334 -38T450 0Q488 -38 504 -86Q509
-102 509 -114T504 -138Q494 -164 429 -187T289 -210Q177 -210 121 -162T65 -31Q65 7 83 43T128 107T180 160Q244 218 244 250V280Q244 292 281 297T348 303Z" />
<glyph unicode="&#xc0;" glyph-name="Agrave" horiz-adv-x="655" d="M519 -12Q432 -12 425 16L393 155H234L204 21Q198 -10 108 -10Q60 -10 37 -5T14 4L192 691Q192 699 329 699T466 691L638 3Q638 -4 592 -8T519 -12ZM259 282H364L319 489H313L259 282ZM222 805Q217
810 217 819Q217 852 236 881T265 911Q268 911 431 821Q437 815 437 807Q437 777 421 753T396 729Q394 729 222 805Z" />
<glyph unicode="&#xc1;" glyph-name="Aacute" horiz-adv-x="655" d="M519 -12Q432 -12 425 16L393 155H234L204 21Q198 -10 108 -10Q60 -10 37 -5T14 4L192 691Q192 699 329 699T466 691L638 3Q638 -4 592 -8T519 -12ZM259 282H364L319 489H313L259 282ZM258 729Q249
729 235 749Q217 777 217 796T223 821Q386 911 389 911Q399 911 414 887Q437 852 437 821Q437 810 432 805Q260 729 258 729Z" />
<glyph unicode="&#xc2;" glyph-name="Acircumflex" horiz-adv-x="655" d="M519 -12Q432 -12 425 16L393 155H234L204 21Q198 -10 108 -10Q60 -10 37 -5T14 4L192 691Q192 699 329 699T466 691L638 3Q638 -4 592 -8T519 -12ZM259 282H364L319 489H313L259 282ZM200
724Q191 724 176 746Q156 776 156 796T162 821L316 905Q323 909 327 909T338 905L492 821Q498 816 498 807Q498 776 481 750T455 724Q453 724 327 798Q202 724 200 724Z" />
<glyph unicode="&#xc3;" glyph-name="Atilde" horiz-adv-x="655" d="M519 -12Q432 -12 425 16L393 155H234L204 21Q198 -10 108 -10Q60 -10 37 -5T14 4L192 691Q192 699 329 699T466 691L638 3Q638 -4 592 -8T519 -12ZM259 282H364L319 489H313L259 282ZM185 753Q166
758 150 787T133 825T136 837Q199 900 266 900Q297 900 336 882T396 863Q433 864 465 902Q467 903 470 903Q482 903 503 875T524 837Q524 808 476 776Q445 754 416 754Q412 754 409 754Q371 754 325 774T269 794T251 792T239 789T226 782T214 775T200 764T185 753Z"
/>
<glyph unicode="&#xc4;" glyph-name="Adieresis" horiz-adv-x="655" d="M519 -12Q432 -12 425 16L393 155H234L204 21Q198 -10 108 -10Q60 -10 37 -5T14 4L192 691Q192 699 329 699T466 691L638 3Q638 -4 592 -8T519 -12ZM259 282H364L319 489H313L259 282ZM282
752Q282 746 213 746T143 751V891Q143 900 212 900T282 895V752ZM512 752Q512 746 443 746T373 751V891Q373 900 442 900T512 895V752Z" />
<glyph unicode="&#xc5;" glyph-name="Aring" horiz-adv-x="655" d="M519 -12Q432 -12 425 16L393 155H234L204 21Q198 -10 108 -10Q60 -10 37 -5T14 4L192 691Q192 699 329 699T466 691L638 3Q638 -4 592 -8T519 -12ZM259 282H364L319 489H313L259 282ZM235 777T235
815T261 879T325 905T389 879T415 815T389 751T325 725T261 751ZM266 841T266 816T283 774T326 756T368 773T386 816T369 858T326 876T284 859Z" />
<glyph unicode="&#xc6;" glyph-name="AE" horiz-adv-x="917" d="M775 422Q794 422 794 352Q794 331 790 303T773 274H646V174H830Q847 174 853 130Q856 111 856 90T850 34T830 0H492Q461 0 461 32V156H302L238 22Q223 -10 137 -10Q122 -10 80 -8T34 4L360 700H831Q852
700 852 611T831 521H646V422H775ZM463 285V524H457L358 285H463Z" />
<glyph unicode="&#xc7;" glyph-name="Ccedilla" horiz-adv-x="546" d="M374 -114Q374 -180 276 -180Q231 -180 198 -164Q181 -159 181 -133Q181 -126 182 -117Q188 -76 209 -76H242Q263 -76 269 -71T275 -44V-7Q159 8 87 99T15 352T102 612T321 709Q394 709 449
689T505 633T479 547T434 495Q429 495 423 500T393 512T352 519Q294 519 259 478T223 353T259 227T352 186Q375 186 403 192T444 211Q446 213 452 213T474 191T505 132T519 75Q519 40 469 18T345 -9Q374 -78 374 -114Z" />
<glyph unicode="&#xc8;" glyph-name="Egrave" horiz-adv-x="488" d="M311 729T139 805Q134 810 134 819Q134 852 153 881T182 911Q185 911 348 821Q354 815 354 807Q354 777 338 753T313 729Q311 729 139 805ZM370 422Q389 422 389 352Q389 331 385 303T368 274H241V174H425Q442
174 448 130Q451 111 451 90T445 34T425 0H83Q45 0 45 31V674Q45 700 68 700H426Q447 700 447 612T426 523H241V422H370Z" />
<glyph unicode="&#xc9;" glyph-name="Eacute" horiz-adv-x="488" d="M175 729Q166 729 152 749Q134 777 134 796T140 821Q303 911 306 911Q316 911 331 887Q354 852 354 821Q354 810 349 805Q177 729 175 729ZM370 422Q389 422 389 352Q389 331 385 303T368 274H241V174H425Q442
174 448 130Q451 111 451 90T445 34T425 0H83Q45 0 45 31V674Q45 700 68 700H426Q447 700 447 612T426 523H241V422H370Z" />
<glyph unicode="&#xca;" glyph-name="Ecircumflex" horiz-adv-x="488" d="M117 724Q108 724 93 746Q73 776 73 796T79 821L233 905Q240 909 244 909T255 905L409 821Q415 816 415 807Q415 776 398 750T372 724Q370 724 244 798Q119 724 117 724ZM370 422Q389 422
389 352Q389 331 385 303T368 274H241V174H425Q442 174 448 130Q451 111 451 90T445 34T425 0H83Q45 0 45 31V674Q45 700 68 700H426Q447 700 447 612T426 523H241V422H370Z" />
<glyph unicode="&#xcb;" glyph-name="Edieresis" horiz-adv-x="488" d="M198 752Q198 746 129 746T59 751V891Q59 900 128 900T198 895V752ZM428 752Q428 746 359 746T289 751V891Q289 900 358 900T428 895V752ZM370 422Q389 422 389 352Q389 331 385 303T368
274H241V174H425Q442 174 448 130Q451 111 451 90T445 34T425 0H83Q45 0 45 31V674Q45 700 68 700H426Q447 700 447 612T426 523H241V422H370Z" />
<glyph unicode="&#xcc;" glyph-name="Igrave" horiz-adv-x="432" d="M117 172V528H46Q29 528 22 571Q18 592 18 614T22 657Q29 700 46 700H382Q399 700 406 657Q409 636 409 614T406 571Q399 528 382 528H315V172H385Q402 172 409 129Q412 108 412 86T409 43Q402
0 385 0H48Q31 0 24 43Q21 64 21 86T24 129Q31 172 48 172H117ZM111 805Q106 810 106 819Q106 852 125 881T154 911Q157 911 320 821Q326 815 326 807Q326 777 310 753T285 729Q283 729 111 805Z" />
<glyph unicode="&#xcd;" glyph-name="Iacute" horiz-adv-x="432" d="M117 172V528H46Q29 528 22 571Q18 592 18 614T22 657Q29 700 46 700H382Q399 700 406 657Q409 636 409 614T406 571Q399 528 382 528H315V172H385Q402 172 409 129Q412 108 412 86T409 43Q402
0 385 0H48Q31 0 24 43Q21 64 21 86T24 129Q31 172 48 172H117ZM147 729Q138 729 124 749Q106 777 106 796T112 821Q275 911 278 911Q288 911 303 887Q326 852 326 821Q326 810 321 805Q149 729 147 729Z" />
<glyph unicode="&#xce;" glyph-name="Icircumflex" horiz-adv-x="432" d="M117 172V528H46Q29 528 22 571Q18 592 18 614T22 657Q29 700 46 700H382Q399 700 406 657Q409 636 409 614T406 571Q399 528 382 528H315V172H385Q402 172 409 129Q412 108 412 86T409
43Q402 0 385 0H48Q31 0 24 43Q21 64 21 86T24 129Q31 172 48 172H117ZM89 724Q80 724 65 746Q45 776 45 796T51 821L205 905Q212 909 216 909T227 905L381 821Q387 816 387 807Q387 776 370 750T344 724Q342 724 216 798Q91 724 89 724Z" />
<glyph unicode="&#xcf;" glyph-name="Idieresis" horiz-adv-x="432" d="M171 752Q171 746 102 746T32 751V891Q32 900 101 900T171 895V752ZM401 752Q401 746 332 746T262 751V891Q262 900 331 900T401 895V752ZM117 172V528H46Q29 528 22 571Q18 592 18 614T22
657Q29 700 46 700H382Q399 700 406 657Q409 636 409 614T406 571Q399 528 382 528H315V172H385Q402 172 409 129Q412 108 412 86T409 43Q402 0 385 0H48Q31 0 24 43Q21 64 21 86T24 129Q31 172 48 172H117Z" />
<glyph unicode="&#xd0;" glyph-name="Eth" horiz-adv-x="620" d="M60 26V300H17Q-1 300 -9 329Q-13 344 -13 358T-9 387Q-1 416 17 416H60V678Q60 700 77 700H272Q431 700 513 620T596 368Q596 0 282 0H84Q60 0 60 26ZM290 300H242V221Q242 200 245 195T263 189Q334
189 364 229T395 365T362 490T262 520H242V416H290Q308 416 316 387Q320 372 320 358T316 329Q308 300 290 300Z" />
<glyph unicode="&#xd1;" glyph-name="Ntilde" horiz-adv-x="657" d="M186 753Q167 758 151 787T134 825T137 837Q200 900 267 900Q298 900 337 882T397 863Q434 864 466 902Q468 903 471 903Q483 903 504 875T525 837Q525 808 478 776Q446 754 417 754Q413 754
410 754Q372 754 326 774T270 794T252 792T240 789T227 782T215 775T201 764T186 753ZM591 12Q591 -9 500 -9T400 6L228 328V11Q228 -7 136 -7T43 11V696Q43 711 120 711Q150 711 190 706T240 685L405 367V687Q405 706 498 706T591 687V12Z" />
<glyph unicode="&#xd2;" glyph-name="Ograve" horiz-adv-x="696" d="M415 729T243 805Q238 810 238 819Q238 852 257 881T286 911Q289 911 452 821Q458 815 458 807Q458 777 442 753T417 729Q415 729 243 805ZM207 -10T119 82T30 350T119 618T350 709T579 620T666
349T577 79T348 -10ZM300 517T268 473T235 350T266 228T347 185T429 228T461 351T429 474T348 517Z" />
<glyph unicode="&#xd3;" glyph-name="Oacute" horiz-adv-x="696" d="M279 729Q270 729 256 749Q238 777 238 796T244 821Q407 911 410 911Q420 911 435 887Q458 852 458 821Q458 810 453 805Q281 729 279 729ZM207 -10T119 82T30 350T119 618T350 709T579 620T666
349T577 79T348 -10ZM300 517T268 473T235 350T266 228T347 185T429 228T461 351T429 474T348 517Z" />
<glyph unicode="&#xd4;" glyph-name="Ocircumflex" horiz-adv-x="696" d="M221 724Q212 724 197 746Q177 776 177 796T183 821L337 905Q344 909 348 909T359 905L513 821Q519 816 519 807Q519 776 502 750T476 724Q474 724 348 798Q223 724 221 724ZM207 -10T119
82T30 350T119 618T350 709T579 620T666 349T577 79T348 -10ZM300 517T268 473T235 350T266 228T347 185T429 228T461 351T429 474T348 517Z" />
<glyph unicode="&#xd5;" glyph-name="Otilde" horiz-adv-x="696" d="M205 753Q186 758 170 787T153 825T156 837Q219 900 286 900Q317 900 356 882T416 863Q453 864 485 902Q487 903 490 903Q502 903 523 875T544 837Q544 808 496 776Q465 754 436 754Q432 754
429 754Q391 754 345 774T289 794T271 792T259 789T246 782T234 775T220 764T205 753ZM207 -10T119 82T30 350T119 618T350 709T579 620T666 349T577 79T348 -10ZM300 517T268 473T235 350T266 228T347 185T429 228T461 351T429 474T348 517Z" />
<glyph unicode="&#xd6;" glyph-name="Odieresis" horiz-adv-x="696" d="M302 752Q302 746 233 746T163 751V891Q163 900 232 900T302 895V752ZM532 752Q532 746 463 746T393 751V891Q393 900 462 900T532 895V752ZM207 -10T119 82T30 350T119 618T350 709T579
620T666 349T577 79T348 -10ZM300 517T268 473T235 350T266 228T347 185T429 228T461 351T429 474T348 517Z" />
<glyph unicode="&#xd7;" glyph-name="multiply" horiz-adv-x="610" d="M108 459Q102 465 102 474T113 503T144 535T174 547T190 541L302 428L416 542Q422 548 431 548T461 537T492 505T504 476T498 460L384 346L497 233Q503 227 503 220T498 199T476 171Q449 145
430 145Q421 145 415 151L302 264L191 153Q184 146 170 146T129 173T102 214T109 235L220 346L108 459Z" />
<glyph unicode="&#xd8;" glyph-name="Oslash" horiz-adv-x="696" d="M129 71Q30 168 30 347T119 618T346 709Q399 709 452 695L495 778Q505 789 516 789Q554 789 584 763Q601 749 601 740T599 726L555 641Q666 546 666 357T577 79T343 -10Q285 -10 228 9L188 -69Q181
-81 167 -81Q148 -81 125 -71T90 -45T84 -16L129 71ZM413 138T453 193T493 336T470 476L299 147Q322 138 348 138Q413 138 453 193ZM203 349Q203 286 218 243L382 559Q362 564 348 564Q287 564 245 508T203 349Z" />
<glyph unicode="&#xd9;" glyph-name="Ugrave" horiz-adv-x="628" d="M377 691Q377 711 485 711T594 691V221Q594 119 521 55T320 -10T111 56T30 236V688Q30 708 138 708T247 688V247Q247 227 268 216Q290 203 314 203T357 214T377 247V691ZM209 805Q204 810 204
819Q204 852 223 881T252 911Q255 911 418 821Q424 815 424 807Q424 777 408 753T383 729Q381 729 209 805Z" />
<glyph unicode="&#xda;" glyph-name="Uacute" horiz-adv-x="628" d="M245 729Q236 729 222 749Q204 777 204 796T210 821Q373 911 376 911Q386 911 401 887Q424 852 424 821Q424 810 419 805Q247 729 245 729ZM377 691Q377 711 485 711T594 691V221Q594 119 521
55T320 -10T111 56T30 236V688Q30 708 138 708T247 688V247Q247 227 268 216Q290 203 314 203T357 214T377 247V691Z" />
<glyph unicode="&#xdb;" glyph-name="Ucircumflex" horiz-adv-x="628" d="M187 724Q178 724 163 746Q143 776 143 796T149 821L303 905Q310 909 314 909T325 905L479 821Q485 816 485 807Q485 776 468 750T442 724Q440 724 314 798Q189 724 187 724ZM377 691Q377
711 485 711T594 691V221Q594 119 521 55T320 -10T111 56T30 236V688Q30 708 138 708T247 688V247Q247 227 268 216Q290 203 314 203T357 214T377 247V691Z" />
<glyph unicode="&#xdc;" glyph-name="Udieresis" horiz-adv-x="628" d="M268 752Q268 746 199 746T129 751V891Q129 900 198 900T268 895V752ZM498 752Q498 746 429 746T359 751V891Q359 900 428 900T498 895V752ZM377 691Q377 711 485 711T594 691V221Q594 119
521 55T320 -10T111 56T30 236V688Q30 708 138 708T247 688V247Q247 227 268 216Q290 203 314 203T357 214T377 247V691Z" />
<glyph unicode="&#xdd;" glyph-name="Yacute" horiz-adv-x="615" d="M238 729Q229 729 215 749Q197 777 197 796T203 821Q366 911 369 911Q379 911 394 887Q417 852 417 821Q417 810 412 805Q240 729 238 729ZM398 674Q411 709 526 709Q555 709 594 705T631 695L423
250V18Q423 1 368 -6Q340 -10 313 -10T259 -7Q204 0 204 18V244L-11 693Q-15 699 30 704T106 710Q229 710 241 674L314 456L398 674Z" />
<glyph unicode="&#xde;" glyph-name="Thorn" horiz-adv-x="595" d="M46 699Q46 713 139 713Q238 709 238 700V620Q400 620 466 560T532 382Q532 286 470 206Q439 166 379 142T239 118V14Q239 -1 190 -7Q165 -10 141 -10Q46 -10 46 13V699ZM239 446V288H252Q287
288 311 310T335 372T319 429T260 446H239Z" />
<glyph unicode="&#xdf;" glyph-name="germandbls" horiz-adv-x="672" d="M368 -10T329 15T289 78Q289 122 305 178Q338 163 370 163Q436 163 436 211Q436 248 411 263T328 281Q303 300 303 344Q303 365 310 385T331 406L360 407Q363 411 369 432T376 487T346 536Q332
544 317 544T286 535Q257 518 257 478L258 -138Q258 -150 170 -150T82 -138V507Q82 608 148 659T326 710T496 666T555 537T499 355Q564 324 584 304Q627 262 627 182T575 46T428 -10Q368 -10 329 15Z" />
<glyph unicode="&#xe0;" glyph-name="agrave" horiz-adv-x="517" d="M108 363Q80 413 80 444T97 485Q154 510 253 510T394 464T435 326V168H469Q486 168 495 148T505 93T488 24T440 -10Q386 -10 353 19Q338 31 330 48Q284 -10 187 -10Q114 -10 64 42T14 165Q14
328 209 328H264V338Q264 364 256 371T216 379Q178 379 108 363ZM188 179Q188 157 200 146T230 134T264 149V226H236Q188 226 188 179ZM148 605Q143 610 143 619Q143 652 162 681T191 711Q194 711 357 621Q363 615 363 607Q363 577 347 553T322 529Q320 529 148
605Z" />
<glyph unicode="&#xe1;" glyph-name="aacute" horiz-adv-x="517" d="M108 363Q80 413 80 444T97 485Q154 510 253 510T394 464T435 326V168H469Q486 168 495 148T505 93T488 24T440 -10Q386 -10 353 19Q338 31 330 48Q284 -10 187 -10Q114 -10 64 42T14 165Q14
328 209 328H264V338Q264 364 256 371T216 379Q178 379 108 363ZM188 179Q188 157 200 146T230 134T264 149V226H236Q188 226 188 179ZM177 529Q168 529 154 549Q136 577 136 596T142 621Q305 711 308 711Q318 711 333 687Q356 652 356 621Q356 610 351 605Q179
529 177 529Z" />
<glyph unicode="&#xe2;" glyph-name="acircumflex" horiz-adv-x="517" d="M116 524Q107 524 92 546Q72 576 72 596T78 621L232 705Q239 709 243 709T254 705L408 621Q414 616 414 607Q414 576 397 550T371 524Q369 524 243 598Q118 524 116 524ZM108 363Q80 413
80 444T97 485Q154 510 253 510T394 464T435 326V168H469Q486 168 495 148T505 93T488 24T440 -10Q386 -10 353 19Q338 31 330 48Q284 -10 187 -10Q114 -10 64 42T14 165Q14 328 209 328H264V338Q264 364 256 371T216 379Q178 379 108 363ZM188 179Q188 157 200
146T230 134T264 149V226H236Q188 226 188 179Z" />
<glyph unicode="&#xe3;" glyph-name="atilde" horiz-adv-x="517" d="M110 553Q91 558 75 587T58 625T61 637Q124 700 191 700Q222 700 261 682T321 663Q358 664 390 702Q392 703 395 703Q407 703 428 675T449 637Q449 608 402 576Q370 554 341 554Q337 554 334
554Q296 554 250 574T194 594T176 592T164 589T151 582T139 575T125 564T110 553ZM108 363Q80 413 80 444T97 485Q154 510 253 510T394 464T435 326V168H469Q486 168 495 148T505 93T488 24T440 -10Q386 -10 353 19Q338 31 330 48Q284 -10 187 -10Q114 -10 64 42T14
165Q14 328 209 328H264V338Q264 364 256 371T216 379Q178 379 108 363ZM188 179Q188 157 200 146T230 134T264 149V226H236Q188 226 188 179Z" />
<glyph unicode="&#xe4;" glyph-name="adieresis" horiz-adv-x="517" d="M202 552Q202 546 133 546T63 551V691Q63 700 132 700T202 695V552ZM432 552Q432 546 363 546T293 551V691Q293 700 362 700T432 695V552ZM108 363Q80 413 80 444T97 485Q154 510 253 510T394
464T435 326V168H469Q486 168 495 148T505 93T488 24T440 -10Q386 -10 353 19Q338 31 330 48Q284 -10 187 -10Q114 -10 64 42T14 165Q14 328 209 328H264V338Q264 364 256 371T216 379Q178 379 108 363ZM188 179Q188 157 200 146T230 134T264 149V226H236Q188 226
188 179Z" />
<glyph unicode="&#xe5;" glyph-name="aring" horiz-adv-x="517" d="M162 581T162 619T188 683T252 709T316 683T342 619T316 555T252 529T188 555ZM193 645T193 620T210 578T253 560T295 577T313 620T296 662T253 680T211 663ZM108 363Q80 413 80 444T97 485Q154
510 253 510T394 464T435 326V168H469Q486 168 495 148T505 93T488 24T440 -10Q386 -10 353 19Q338 31 330 48Q284 -10 187 -10Q114 -10 64 42T14 165Q14 328 209 328H264V338Q264 364 256 371T216 379Q178 379 108 363ZM188 179Q188 157 200 146T230 134T264 149V226H236Q188
226 188 179Z" />
<glyph unicode="&#xe6;" glyph-name="ae" horiz-adv-x="685" d="M610 147Q642 97 642 67T624 26Q561 -10 470 -10T317 43Q271 -10 180 -10Q109 -10 62 39T14 158Q14 318 201 318H255V327Q255 351 247 359T208 367T157 363T123 356T105 351Q77 398 77 437Q77 460
94 469Q146 493 239 493Q296 493 349 461Q421 498 465 498Q559 498 612 448T665 328Q665 168 485 168H419V154Q423 132 438 124T481 116Q547 116 610 147ZM227 216Q181 216 181 173T221 129Q239 129 255 143V216H227ZM502 310Q502 350 462 350Q426 350 419 317V277H470Q502
277 502 310Z" />
<glyph unicode="&#xe7;" glyph-name="ccedilla" horiz-adv-x="424" d="M209 248Q209 150 283 150Q331 150 363 169Q378 169 387 118T397 48T392 23Q352 -1 295 -7Q307 -53 307 -83T298 -130Q273 -177 205 -177Q164 -177 132 -160Q120 -154 120 -127Q120 -120 120
-110Q125 -69 143 -69H176Q197 -69 203 -64T209 -37V-6Q130 7 78 73T26 252T89 437T258 510T405 459Q414 448 414 427T406 374Q388 310 359 300Q355 299 348 299T329 311Q290 350 267 350T226 326T209 248Z" />
<glyph unicode="&#xe8;" glyph-name="egrave" horiz-adv-x="486" d="M314 529T142 605Q137 610 137 619Q137 652 156 681T185 711Q188 711 351 621Q357 615 357 607Q357 577 341 553T316 529Q314 529 142 605ZM423 27Q360 -10 261 -10T94 57T26 244T91 437T257
510T411 459T466 335Q466 173 280 173H211Q211 143 227 132T276 120Q346 120 409 152Q410 153 418 138Q442 95 442 66T423 27ZM298 316Q298 358 257 358Q238 358 225 347T211 313V282H265Q298 282 298 316Z" />
<glyph unicode="&#xe9;" glyph-name="eacute" horiz-adv-x="486" d="M178 529Q169 529 155 549Q137 577 137 596T143 621Q306 711 309 711Q319 711 334 687Q357 652 357 621Q357 610 352 605Q180 529 178 529ZM423 27Q360 -10 261 -10T94 57T26 244T91 437T257
510T411 459T466 335Q466 173 280 173H211Q211 143 227 132T276 120Q346 120 409 152Q410 153 418 138Q442 95 442 66T423 27ZM298 316Q298 358 257 358Q238 358 225 347T211 313V282H265Q298 282 298 316Z" />
<glyph unicode="&#xea;" glyph-name="ecircumflex" horiz-adv-x="486" d="M120 524Q111 524 96 546Q76 576 76 596T82 621L236 705Q243 709 247 709T258 705L412 621Q418 616 418 607Q418 576 401 550T375 524Q373 524 247 598Q122 524 120 524ZM423 27Q360 -10
261 -10T94 57T26 244T91 437T257 510T411 459T466 335Q466 173 280 173H211Q211 143 227 132T276 120Q346 120 409 152Q410 153 418 138Q442 95 442 66T423 27ZM298 316Q298 358 257 358Q238 358 225 347T211 313V282H265Q298 282 298 316Z" />
<glyph unicode="&#xeb;" glyph-name="edieresis" horiz-adv-x="486" d="M201 552Q201 546 132 546T62 551V691Q62 700 131 700T201 695V552ZM431 552Q431 546 362 546T292 551V691Q292 700 361 700T431 695V552ZM423 27Q360 -10 261 -10T94 57T26 244T91 437T257
510T411 459T466 335Q466 173 280 173H211Q211 143 227 132T276 120Q346 120 409 152Q410 153 418 138Q442 95 442 66T423 27ZM298 316Q298 358 257 358Q238 358 225 347T211 313V282H265Q298 282 298 316Z" />
<glyph unicode="&#xec;" glyph-name="igrave" horiz-adv-x="267" d="M199 529T27 605Q22 610 22 619Q22 652 41 681T70 711Q73 711 236 621Q242 615 242 607Q242 577 226 553T201 529Q199 529 27 605ZM222 6Q222 -2 134 -2T45 5V480Q45 486 133 486T222 481V6Z" />
<glyph unicode="&#xed;" glyph-name="iacute" horiz-adv-x="267" d="M63 529Q54 529 40 549Q22 577 22 596T28 621Q191 711 194 711Q204 711 219 687Q242 652 242 621Q242 610 237 605Q65 529 63 529ZM222 6Q222 -2 134 -2T45 5V480Q45 486 133 486T222 481V6Z" />
<glyph unicode="&#xee;" glyph-name="icircumflex" horiz-adv-x="267" d="M5 524Q-4 524 -19 546Q-39 576 -39 596T-33 621L121 705Q128 709 132 709T143 705L297 621Q303 616 303 607Q303 576 286 550T260 524Q258 524 132 598Q7 524 5 524ZM222 6Q222 -2 134
-2T45 5V480Q45 486 133 486T222 481V6Z" />
<glyph unicode="&#xef;" glyph-name="idieresis" horiz-adv-x="267" d="M86 552Q86 546 17 546T-53 551V691Q-53 700 16 700T86 695V552ZM316 552Q316 546 247 546T177 551V691Q177 700 246 700T316 695V552ZM222 6Q222 -2 134 -2T45 5V480Q45 486 133 486T222 481V6Z" />
<glyph unicode="&#xf0;" glyph-name="eth" horiz-adv-x="574" d="M288 489L129 457Q115 457 106 470T97 500Q97 528 120 532L237 556Q212 585 175 620Q234 709 288 709Q350 709 429 595L513 612H517Q531 612 540 599T549 569Q549 541 527 537L470 525Q520 427
520 288T453 70T260 -10Q156 -10 98 50T40 207T95 351T236 400Q280 400 331 386Q327 429 288 489ZM213 215Q213 154 262 154Q297 154 313 179T329 242Q329 254 328 261Q308 275 264 275Q240 275 227 259T213 215Z" />
<glyph unicode="&#xf1;" glyph-name="ntilde" horiz-adv-x="551" d="M136 553Q117 558 101 587T84 625T87 637Q150 700 217 700Q248 700 287 682T347 663Q384 664 416 702Q418 703 421 703Q433 703 454 675T475 637Q475 608 428 576Q396 554 367 554Q363 554 360
554Q322 554 276 574T220 594T202 592T190 589T177 582T165 575T151 564T136 553ZM254 6Q254 -1 182 -1Q82 2 82 10V334H56Q30 334 22 378Q20 391 20 404Q20 435 32 466Q50 510 88 510T156 492T196 456Q259 510 346 510T472 463T511 309V9Q511 -3 426 -3T340 9V298Q340
348 305 348Q295 348 277 340T254 327V6Z" />
<glyph unicode="&#xf2;" glyph-name="ograve" horiz-adv-x="513" d="M26 128T26 250T88 441T257 510T425 441T487 250T425 59T257 -10T89 59ZM201 343T201 251T257 159T314 251T258 343ZM143 605Q138 610 138 619Q138 652 157 681T186 711Q189 711 352 621Q358
615 358 607Q358 577 342 553T317 529Q315 529 143 605Z" />
<glyph unicode="&#xf3;" glyph-name="oacute" horiz-adv-x="513" d="M26 128T26 250T88 441T257 510T425 441T487 250T425 59T257 -10T89 59ZM201 343T201 251T257 159T314 251T258 343ZM179 529Q170 529 156 549Q138 577 138 596T144 621Q307 711 310 711Q320
711 335 687Q358 652 358 621Q358 610 353 605Q181 529 179 529Z" />
<glyph unicode="&#xf4;" glyph-name="ocircumflex" horiz-adv-x="513" d="M26 128T26 250T88 441T257 510T425 441T487 250T425 59T257 -10T89 59ZM201 343T201 251T257 159T314 251T258 343ZM121 524Q112 524 97 546Q77 576 77 596T83 621L237 705Q244 709 248
709T259 705L413 621Q419 616 419 607Q419 576 402 550T376 524Q374 524 248 598Q123 524 121 524Z" />
<glyph unicode="&#xf5;" glyph-name="otilde" horiz-adv-x="513" d="M106 553Q87 558 71 587T54 625T57 637Q120 700 187 700Q218 700 257 682T317 663Q354 664 386 702Q388 703 391 703Q403 703 424 675T445 637Q445 608 398 576Q366 554 337 554Q333 554 330
554Q292 554 246 574T190 594T172 592T160 589T147 582T135 575T121 564T106 553ZM26 128T26 250T88 441T257 510T425 441T487 250T425 59T257 -10T89 59ZM201 343T201 251T257 159T314 251T258 343Z" />
<glyph unicode="&#xf6;" glyph-name="odieresis" horiz-adv-x="513" d="M203 552Q203 546 134 546T64 551V691Q64 700 133 700T203 695V552ZM433 552Q433 546 364 546T294 551V691Q294 700 363 700T433 695V552ZM26 128T26 250T88 441T257 510T425 441T487 250T425
59T257 -10T89 59ZM201 343T201 251T257 159T314 251T258 343Z" />
<glyph unicode="&#xf7;" glyph-name="divide" horiz-adv-x="611" d="M374 93Q374 88 301 88T227 92V232Q227 239 300 239T374 235V93ZM374 462Q374 456 301 456T227 462V602Q227 609 300 609T374 605V462ZM527 290H73Q52 290 43 319Q38 334 38 348T43 377Q52 406
73 406H527Q548 406 557 377Q562 362 562 348T557 319Q548 290 527 290Z" />
<glyph unicode="&#xf8;" glyph-name="oslash" horiz-adv-x="513" d="M90 56Q26 126 26 249T88 441T257 510Q300 510 336 498L366 551Q372 563 385 563T410 558T434 544Q462 524 451 502L420 446Q487 377 487 253T425 59T257 -10Q212 -10 175 2L159 -26Q150 -37
140 -37Q106 -37 82 -11Q69 2 69 10T73 25L90 56ZM362 251Q362 295 352 324L229 101Q241 97 257 97Q298 97 330 132T362 251ZM154 251Q154 208 161 183L283 401Q272 405 257 405Q216 405 185 370T154 251Z" />
<glyph unicode="&#xf9;" glyph-name="ugrave" horiz-adv-x="544" d="M349 529T177 605Q172 610 172 619Q172 652 191 681T220 711Q223 711 386 621Q392 615 392 607Q392 577 376 553T351 529Q349 529 177 605ZM40 494Q40 505 126 505T212 494V202Q212 152 244
152Q268 152 298 173V494Q298 504 383 504T468 494V166H494Q528 166 528 101Q528 68 514 34Q494 -10 460 -10Q393 -10 361 45L360 44Q299 -10 229 -10Q132 -10 86 38T40 199V494Z" />
<glyph unicode="&#xfa;" glyph-name="uacute" horiz-adv-x="544" d="M40 494Q40 505 126 505T212 494V202Q212 152 244 152Q268 152 298 173V494Q298 504 383 504T468 494V166H494Q528 166 528 101Q528 68 514 34Q494 -10 460 -10Q393 -10 361 45L360 44Q299 -10
229 -10Q132 -10 86 38T40 199V494ZM213 529Q204 529 190 549Q172 577 172 596T178 621Q341 711 344 711Q354 711 369 687Q392 652 392 621Q392 610 387 605Q215 529 213 529Z" />
<glyph unicode="&#xfb;" glyph-name="ucircumflex" horiz-adv-x="544" d="M125 524Q116 524 101 546Q81 576 81 596T87 621L241 705Q248 709 252 709T263 705L417 621Q423 616 423 607Q423 576 406 550T380 524Q378 524 252 598Q127 524 125 524ZM40 494Q40 505
126 505T212 494V202Q212 152 244 152Q268 152 298 173V494Q298 504 383 504T468 494V166H494Q528 166 528 101Q528 68 514 34Q494 -10 460 -10Q393 -10 361 45L360 44Q299 -10 229 -10Q132 -10 86 38T40 199V494Z" />
<glyph unicode="&#xfc;" glyph-name="udieresis" horiz-adv-x="544" d="M211 552Q211 546 142 546T72 551V691Q72 700 141 700T211 695V552ZM441 552Q441 546 372 546T302 551V691Q302 700 371 700T441 695V552ZM40 494Q40 505 126 505T212 494V202Q212 152 244
152Q268 152 298 173V494Q298 504 383 504T468 494V166H494Q528 166 528 101Q528 68 514 34Q494 -10 460 -10Q393 -10 361 45L360 44Q299 -10 229 -10Q132 -10 86 38T40 199V494Z" />
<glyph unicode="&#xfd;" glyph-name="yacute" horiz-adv-x="537" d="M10 495Q10 506 101 506T196 496L264 266L331 497Q335 505 396 505T494 503T526 493L291 -176Q290 -182 237 -182T137 -179T93 -170L180 40L10 495ZM193 529Q184 529 170 549Q152 577 152 596T158
621Q321 711 324 711Q334 711 349 687Q372 652 372 621Q372 610 367 605Q195 529 193 529Z" />
<glyph unicode="&#xfe;" glyph-name="thorn" horiz-adv-x="628" d="M326 510Q536 510 536 269Q536 139 473 70T298 0Q286 0 264 2V-165Q264 -191 181 -191Q145 -191 119 -184T92 -165V697Q92 709 178 709T265 696V502Q308 510 326 510ZM354 251Q354 355 300 355Q282
355 265 343V152Q281 145 293 145Q318 145 336 170T354 251Z" />
<glyph unicode="&#xff;" glyph-name="ydieresis" horiz-adv-x="524" d="M10 495Q10 506 101 506T196 496L264 266L331 497Q335 505 396 505T494 503T526 493L291 -176Q290 -182 237 -182T137 -179T93 -170L180 40L10 495ZM216 552Q216 546 147 546T77 551V691Q77
700 146 700T216 695V552ZM446 552Q446 546 377 546T307 551V691Q307 700 376 700T446 695V552Z" />
<glyph unicode="&#x2013;" glyph-name="endash" horiz-adv-x="469" d="M392 190H77Q59 190 51 219Q47 234 47 248T51 277Q59 306 77 306H392Q410 306 418 277Q422 262 422 248T418 219Q410 190 392 190Z" />
<glyph unicode="&#x2014;" glyph-name="emdash" horiz-adv-x="789" d="M670 190H97Q79 190 71 219Q67 234 67 248T71 277Q79 306 97 306H670Q688 306 696 277Q700 262 700 248T696 219Q688 190 670 190Z" />
<glyph unicode="&#x2018;" glyph-name="quoteleft" horiz-adv-x="341" d="M89 469V680Q89 699 115 706Q128 709 141 709T176 704T202 680L262 469Q262 451 219 443Q198 439 176 439T132 443Q89 451 89 469Z" />
<glyph unicode="&#x2019;" glyph-name="quoteright" horiz-adv-x="314" d="M140 440T126 440T98 444Q70 452 70 470V681Q70 699 113 707Q134 711 156 711T200 707Q243 699 243 681L183 470Q183 452 154 444Q140 440 126 440Z" />
<glyph unicode="&#x201a;" glyph-name="quotesinglbase" horiz-adv-x="368" d="M120 148Q126 164 205 164T284 143L282 58L224 -78Q211 -107 144 -107T58 -85Q54 -80 54 -76T55 -67L116 57L120 148Z" />
<glyph unicode="&#x201c;" glyph-name="quotedblleft" horiz-adv-x="564" d="M89 469V680Q89 699 115 706Q128 709 141 709T176 704T202 680L262 469Q262 451 219 443Q198 439 176 439T132 443Q89 451 89 469ZM319 469V680Q319 699 345 706Q358 709 371 709T406
704T432 680L492 469Q492 451 449 443Q428 439 406 439T362 443Q319 451 319 469Z" />
<glyph unicode="&#x201d;" glyph-name="quotedblright" horiz-adv-x="530" d="M183 469Q178 451 157 446T123 440T96 443Q70 450 70 469V680Q70 698 113 706Q134 710 156 710T200 706Q243 698 243 680L183 469ZM409 469Q404 451 383 446T349 440T322 443Q296 450
296 469V680Q296 698 339 706Q360 710 382 710T426 706Q469 698 469 680L409 469Z" />
<glyph unicode="&#x201e;" glyph-name="quotedblbase" horiz-adv-x="651" d="M120 148Q126 164 205 164T284 143L282 58L224 -78Q211 -107 144 -107T58 -85Q54 -80 54 -76T55 -67L116 57L120 148ZM390 148Q396 164 475 164T554 143L552 58L494 -78Q481 -107 414
-107T328 -85Q324 -80 324 -76T325 -67L386 57L390 148Z" />
<glyph unicode="&#x2022;" glyph-name="bullet" horiz-adv-x="357" d="M83 225T83 264T111 331T178 359T245 331T273 264T245 197T178 169T111 197Z" />
<glyph unicode="&#x2039;" glyph-name="guilsinglleft" horiz-adv-x="497" d="M99 236Q89 246 89 257T103 282L271 479Q277 485 286 485T316 473T348 442T360 413T353 397L221 255L355 111Q362 105 362 96T351 67T319 35T289 23T273 29L99 236Z" />
<glyph unicode="&#x203a;" glyph-name="guilsinglright" horiz-adv-x="443" d="M178 29Q171 22 162 22T132 34T101 66T89 95T96 111L230 255L98 397Q91 403 91 412T102 441T134 473T164 485T180 479L348 282Q362 268 362 257T352 236L178 29Z" />
</font>
</defs>
</svg>
