<?xml version="1.0" standalone="no"?>
<!DOCTYPE svg PUBLIC "-//W3C//DTD SVG 1.1//EN" "http://www.w3.org/Graphics/SVG/1.1/DTD/svg11.dtd">
<svg xmlns="http://www.w3.org/2000/svg">
<defs >
<font id="GrandHotel" horiz-adv-x="611" ><font-face
    font-family="Grand Hotel"
    units-per-em="2048"
    panose-1="2 0 6 6 0 0 0 2 0 3"
    ascent="1938"
    descent="-844"
    alphabetic="0" />
<glyph unicode=" " glyph-name="space" horiz-adv-x="451" />
<glyph unicode="!" glyph-name="exclam" horiz-adv-x="655" d="M328 150Q370 150 399 122T428 51Q428 32 420 15T399 -16T367 -37T328 -45Q308 -45 290 -37T259 -16T237 14T229 51Q229 72 237 90T258 121T290 142T328 150ZM408 309Q408 269 389 251T344 233Q328
233 311 240T281 259T259 289T250 328V1337Q250 1366 241 1381T231 1409Q231 1420 246 1427T293 1434Q314 1434 334 1430T371 1417T398 1392T408 1352V309Z" />
<glyph unicode="&quot;" glyph-name="quotedbl" horiz-adv-x="614" d="M252 993Q252 978 231 968T185 954T139 956T117 979V1333Q117 1342 115 1347T110 1355T105 1360T102 1368Q102 1379 118 1385T162 1391Q176 1391 191 1390T220 1384T243 1373T252 1356V993ZM498
993Q498 978 477 968T431 954T385 956T362 979V1333Q362 1342 360 1347T355 1355T350 1360T348 1368Q348 1379 364 1385T408 1391Q421 1391 437 1390T466 1384T489 1373T498 1356V993Z" />
<glyph unicode="#" glyph-name="numbersign" horiz-adv-x="952" d="M240 578L276 772H137Q119 772 111 785T102 817Q102 842 117 863T158 885H297L358 1204Q358 1221 365 1234T393 1247Q409 1247 426 1244T457 1233T477 1213T479 1182L422 885H604L666 1204Q666
1221 672 1234T700 1247Q716 1247 733 1244T764 1233T784 1213T786 1182L729 885H858Q863 885 866 886T874 887Q891 887 901 876T911 844Q911 804 890 788T840 772H707L670 578H797Q802 578 805 579T813 580Q830 580 840 569T850 537Q850 496 829 481T778 465H649L582
111Q582 95 567 91T535 86Q522 86 510 90T487 103T471 120T465 141Q465 146 465 149T467 160L524 465H342L274 111Q274 95 259 91T227 86Q214 86 202 90T180 103T164 120T158 141Q158 146 158 149T160 160L217 465H76Q57 465 49 478T41 510Q41 535 56 556T96 578H240ZM362
578H547L584 772H399L362 578Z" />
<glyph unicode="$" glyph-name="dollar" horiz-adv-x="809" d="M354 63Q306 68 269 81T208 110T171 138T158 156Q158 171 165 189T184 223T207 249T231 260Q240 260 250 252T273 233T306 212T354 197V498Q303 526 251 559T155 636T85 739T57 879Q57 941 80 1003T144
1121T238 1223T354 1300V1462Q354 1467 349 1474T344 1489Q344 1511 403 1511Q432 1511 449 1500T467 1460V1341Q486 1345 504 1347T543 1350Q594 1350 635 1334T704 1288T748 1216T764 1122Q764 1075 751 1030T717 950T667 894T610 872Q584 872 561 890T530 932Q522
954 531 964T549 975Q567 975 579 987T599 1018T609 1061T612 1112Q612 1154 593 1177T526 1200Q512 1200 497 1198T467 1190V602Q506 578 543 552T608 492T654 418T672 324Q672 279 656 239T612 167T547 110T467 74V-90Q467 -110 458 -118T426 -127Q397 -127 376
-113T354 -68V63ZM213 879Q213 843 224 813T253 758T298 712T354 670V1130Q325 1108 299 1081T254 1021T224 953T213 879ZM528 317Q528 349 512 376T467 426V209Q499 224 513 253T528 317Z" />
<glyph unicode="%" glyph-name="percent" horiz-adv-x="1159" d="M285 711Q237 711 195 730T120 793T70 905T51 1071Q51 1168 69 1237T120 1350T194 1414T285 1434Q333 1434 375 1414T448 1350T498 1237T516 1071Q516 973 498 905T449 794T375 731T285 711ZM285
1323Q234 1323 210 1263T186 1071Q186 939 210 880T285 821Q335 821 358 880T381 1071Q381 1203 358 1263T285 1323ZM901 1401Q903 1404 902 1411T901 1421Q901 1431 908 1433T924 1436Q936 1436 952 1431T983 1415T1008 1392T1018 1362Q1018 1357 1018 1352T1014
1339L248 -25Q243 -33 236 -36T221 -39Q209 -39 195 -35T169 -22T149 -2T141 27Q141 32 143 40T150 55L901 1401ZM877 -41Q829 -41 787 -22T712 41T662 153T643 319Q643 417 661 486T712 598T786 662T877 682Q925 682 967 662T1040 599T1090 486T1108 319Q1108
221 1090 153T1041 42T967 -21T877 -41ZM877 571Q826 571 802 512T778 319Q778 187 802 129T877 70Q927 70 950 128T973 319Q973 452 950 511T877 571Z" />
<glyph unicode="&amp;" glyph-name="ampersand" horiz-adv-x="864" d="M793 41Q819 38 819 23Q819 12 808 -2T780 -28T742 -48T702 -57Q687 -57 674 -51T651 -29Q639 -7 627 14T604 57Q550 0 489 -28T367 -57Q288 -57 228 -28T128 53T68 174T47 324Q47 419 71
508T128 673T195 806T250 893Q219 992 199 1071T168 1206T152 1295T147 1333Q147 1368 168 1390T227 1413H610Q616 1415 622 1416T633 1417Q653 1417 662 1403T672 1368Q672 1350 666 1331T649 1295T623 1268T588 1257Q572 1257 538 1257T463 1259T382 1261T313
1264Q319 1210 340 1122T399 921T490 673T612 391Q637 506 637 657Q637 668 635 680T630 704T627 726T629 743Q635 758 647 768T677 785T714 794T754 797Q772 797 788 791T805 774Q805 766 802 762T796 748T789 718T786 657Q786 514 764 403T702 207Q724 165 746
124T793 41ZM375 94Q423 94 463 119T535 193Q462 336 408 465T311 709Q291 675 272 634T236 544T211 442T201 326Q201 281 213 240T247 166T302 114T375 94Z" />
<glyph unicode="&apos;" glyph-name="quotesingle" horiz-adv-x="369" d="M252 993Q252 978 231 968T185 954T139 956T117 979V1333Q117 1342 115 1347T110 1355T105 1360T102 1368Q102 1379 118 1385T162 1391Q176 1391 191 1390T220 1384T243 1373T252 1356V993Z" />
<glyph unicode="(" glyph-name="parenleft" horiz-adv-x="553" d="M485 -162Q503 -178 504 -196T494 -231T459 -257T403 -268Q385 -268 354 -239T286 -153T213 -15T146 169T97 395T78 659Q78 817 100 947T155 1180T228 1359T301 1487T360 1565T387 1595Q390 1598
394 1598T403 1599Q418 1599 439 1593T479 1576T513 1552T528 1526Q528 1516 523 1509T502 1495Q501 1494 482 1472T433 1403T369 1289T305 1127T256 917T236 659Q236 524 254 411T299 207T359 47T418 -68T465 -138T485 -162Z" />
<glyph unicode=")" glyph-name="parenright" horiz-adv-x="553" d="M68 1493Q50 1509 49 1527T58 1562T93 1588T150 1599Q168 1599 199 1570T267 1484T340 1346T407 1162T456 936T475 672Q475 514 453 384T398 151T325 -28T252 -156T193 -234T166 -264Q163 -267
159 -267T150 -268Q135 -268 114 -262T74 -245T40 -221T25 -195Q25 -185 30 -178T51 -164Q51 -164 71 -141T120 -72T184 42T248 204T297 414T317 672Q317 806 299 919T254 1124T194 1284T135 1399T88 1469T68 1493Z" />
<glyph unicode="*" glyph-name="asterisk" horiz-adv-x="676" d="M281 1204V1339Q276 1368 285 1379T326 1391Q353 1391 374 1384T395 1350V1198L506 1280Q518 1289 529 1296T549 1303Q556 1303 565 1293T583 1268T596 1240T602 1219Q602 1205 592 1200L438 1090L596
975Q606 968 606 952Q606 941 601 928T587 903T569 885T549 877Q541 877 537 881L395 981V844Q395 835 388 827T371 814T347 806T322 803Q305 803 293 809T281 829V975L143 877Q136 872 133 872Q124 872 115 879T97 899T83 924T78 950Q78 968 90 977L244 1090L106
1188Q96 1195 90 1198T79 1205T72 1211T70 1221Q70 1228 77 1241T94 1268T116 1292T139 1303Q145 1303 156 1296L281 1204Z" />
<glyph unicode="+" glyph-name="plus" horiz-adv-x="819" d="M338 717V930Q338 941 334 944T330 954Q330 969 383 969Q397 969 414 968T446 963T471 952T481 934V717H694Q705 717 710 722T721 727Q732 727 736 714T741 684Q741 668 737 649T724 613T704 585T678
573H481V358Q481 348 471 340T445 326T411 319T376 318T349 326T338 344V573H113Q97 573 89 590T80 631Q80 645 83 660T94 688T111 709T137 717H338Z" />
<glyph unicode="," glyph-name="comma" horiz-adv-x="553" d="M293 150Q333 150 363 120T393 29Q393 0 377 -38T336 -112T286 -172T240 -197Q227 -197 216 -191T197 -175T185 -154T180 -133Q180 -125 184 -124T195 -119Q206 -116 226 -93T268 -41Q236 -33 215
-8T193 51Q193 72 201 90T223 121T255 142T293 150Z" />
<glyph unicode="-" glyph-name="hyphen" horiz-adv-x="717" d="M569 621Q580 621 585 626T596 631Q607 631 611 618T616 588Q616 572 612 550T599 507T579 472T553 457H131Q116 457 107 474T98 514Q98 528 101 546T112 581T130 609T156 621H569Z" />
<glyph unicode="." glyph-name="period" horiz-adv-x="553" d="M291 150Q333 150 362 122T391 51Q391 32 383 15T362 -16T330 -37T291 -45Q271 -45 254 -37T223 -16T201 14T193 51Q193 72 201 90T222 121T253 142T291 150Z" />
<glyph unicode="/" glyph-name="slash" horiz-adv-x="635" d="M489 1384Q491 1389 489 1396T487 1409Q487 1423 508 1423Q520 1423 540 1419T579 1405T613 1382T627 1350Q627 1348 627 1343T625 1335L147 -18Q142 -29 133 -33T111 -37Q98 -37 82 -32T51 -17T26
5T16 33Q16 38 17 42T20 51L489 1384Z" />
<glyph unicode="0" glyph-name="zero" horiz-adv-x="891" d="M446 -57Q258 -57 165 129T72 688Q72 723 72 773T77 883T91 1006T118 1131T163 1247T229 1343T322 1409T446 1434Q529 1434 589 1401T691 1312T758 1182T796 1025T814 855T819 688Q819 533 803 418T760
220T697 84T619 -1T533 -44T446 -57ZM446 1282Q337 1282 284 1134T231 688Q231 633 233 568T244 436T267 308T306 199T364 123T446 94Q497 94 536 135T603 252T645 439T659 688Q659 835 647 936T616 1104T572 1206T525 1259T480 1279T446 1282Z" />
<glyph unicode="1" glyph-name="one" horiz-adv-x="535" d="M252 1153Q221 1111 198 1084T156 1040T125 1018T102 1012Q84 1012 68 1021T41 1045T23 1075T16 1106Q16 1117 23 1120T39 1126Q48 1129 62 1142T94 1176T131 1220T170 1270Q215 1329 266 1401Q277 1416
293 1425T328 1434Q343 1434 357 1428T383 1410T401 1384T408 1354V10Q408 -16 391 -26T350 -37Q332 -37 315 -32T283 -19T261 0T252 23V1153Z" />
<glyph unicode="2" glyph-name="two" horiz-adv-x="815" d="M659 133Q671 133 678 137T690 147T699 157T711 162Q718 162 722 157T728 142T732 123T733 102Q733 78 729 56T714 17T689 -10T653 -20H193Q164 -20 141 0T117 55Q117 92 141 115Q142 116 175 152T259
250T367 398T474 582T557 792T590 1014Q590 1096 571 1148T523 1230T464 1271T410 1282Q374 1282 340 1268T277 1222T232 1139T215 1014Q215 963 224 920T247 844T276 793T303 774Q311 774 315 779T324 784Q327 784 329 780T330 766Q328 753 320 737T299 708T267
685T229 676Q191 676 159 707T105 788T70 898T57 1014Q57 1122 88 1201T170 1332T285 1409T414 1434Q501 1434 564 1397T669 1299T730 1162T750 1008Q750 920 732 833T683 664T612 505T528 361T442 235T362 133H659Z" />
<glyph unicode="3" glyph-name="three" horiz-adv-x="793" d="M47 1026Q47 1131 77 1208T156 1335T268 1410T395 1434Q485 1434 548 1394T651 1291T709 1148T727 989Q727 894 709 820T660 690T589 593T504 522Q532 505 564 481T622 422T666 343T684 238Q684 174
663 120T603 27T513 -35T399 -57Q334 -57 283 -29T196 40T142 129T123 217Q123 230 133 239T160 255T195 265T231 268Q276 268 276 256Q276 250 274 247T272 233Q272 227 278 205T299 158T341 114T408 94Q430 94 451 103T489 130T516 172T526 229Q526 287 505 327T453
392T392 430T342 449Q317 455 301 476T285 539Q285 546 286 555T292 572T305 585T326 590Q329 590 333 589T342 588Q389 603 430 633T503 711T553 830T571 995Q571 1070 557 1124T517 1214T458 1265T387 1282Q352 1282 319 1267T260 1219T219 1139T203 1024Q203
978 212 939T234 870T262 824T289 807Q297 807 300 812T309 817Q315 817 315 805Q315 792 308 776T287 744T255 719T215 709Q177 709 147 738T94 814T59 917T47 1026Z" />
<glyph unicode="4" glyph-name="four" horiz-adv-x="793" d="M657 385V10Q657 -16 640 -26T600 -37Q582 -37 565 -32T533 -19T511 0T502 23V389H428Q393 389 350 388T263 386T182 384T117 383Q99 383 83 392T54 415T33 445T25 473Q25 493 34 503T55 524Q97 630
120 739T156 948T171 1128T174 1260Q174 1271 173 1283T169 1307T166 1325T164 1335Q164 1360 219 1360Q236 1360 255 1355T292 1337T320 1300T332 1239Q332 1175 326 1088T306 905T270 713T215 535Q271 537 336 538T461 539H502V1333Q502 1355 499 1368T492 1389T485
1401T481 1411Q481 1416 487 1420T503 1428T524 1432T547 1434Q598 1434 627 1408T657 1343V537H711Q723 537 730 541T741 551T750 560T762 565Q769 565 773 560T779 546T783 527T784 506Q784 482 780 460T766 422T741 395T705 385H657Z" />
<glyph unicode="5" glyph-name="five" horiz-adv-x="750" d="M154 1380Q156 1393 163 1397T176 1401H383Q426 1401 458 1401T514 1402Q540 1402 559 1403Q571 1403 578 1406T591 1413T600 1420T610 1423Q616 1423 620 1418T627 1405T630 1388T631 1372Q631 1348
627 1326T613 1287T589 1260T553 1249H285L262 991Q282 1007 313 1018T385 1030Q414 1030 447 1022T512 992T575 933T629 840T666 706T680 524Q680 365 652 255T577 75T472 -26T352 -57Q294 -57 249 -36T171 18T116 93T81 177T61 257T55 322Q55 367 69 391T121
416Q140 416 158 411T190 397T212 381T221 365Q221 360 220 357T217 351T214 342T213 328Q213 317 214 295T221 247T235 194T260 145T299 108T354 94Q435 94 477 202T520 524Q520 608 510 674T478 787T426 858T352 883Q320 883 299 872T260 847T228 822T193 811Q184
811 166 816T131 832T103 858T94 891L154 1380Z" />
<glyph unicode="6" glyph-name="six" horiz-adv-x="817" d="M434 1284Q400 1284 370 1264T316 1199T273 1081T246 901Q274 932 301 951T352 980T399 994T442 997Q524 997 583 955T679 845T734 688T752 506Q752 372 732 279T681 123T611 24T537 -30T472 -52T430
-57Q345 -57 286 -17T188 88T127 233T94 394T81 545T78 662Q78 698 78 750T83 863T97 990T122 1119T165 1240T228 1340T316 1408T434 1434Q491 1434 540 1409T625 1348T681 1272T702 1200Q702 1188 691 1176T662 1155T625 1141T588 1135Q574 1135 565 1138T555
1151Q555 1176 546 1199T521 1242T483 1272T434 1284ZM430 850Q358 850 308 784T240 578Q244 434 262 341T306 192T365 114T430 92Q456 92 485 111T539 178T580 305T596 506Q596 574 586 636T556 746T504 822T430 850Z" />
<glyph unicode="7" glyph-name="seven" horiz-adv-x="653" d="M352 10Q352 -16 334 -26T293 -37Q275 -37 257 -33T223 -16T198 18T188 74Q188 248 213 417T278 741T366 1026T461 1253Q413 1251 365 1249T272 1244T187 1241T113 1239Q87 1239 72 1247T49 1269T39
1298T37 1331Q37 1360 46 1383T72 1407Q77 1407 79 1406T88 1403Q122 1401 183 1399T350 1397Q454 1397 513 1405T598 1413Q617 1413 632 1400T647 1358Q647 1344 642 1328T629 1292Q596 1213 563 1133T498 965T441 777T395 562T364 310T352 10Z" />
<glyph unicode="8" glyph-name="eight" horiz-adv-x="778" d="M383 -57Q328 -57 282 -34T202 28T150 121T131 236Q131 301 154 354T215 446Q183 473 155 513T106 609T73 737T61 901Q61 1048 89 1150T163 1315T266 1406T383 1434Q402 1434 433 1429T501 1406T573
1353T640 1259T688 1112T707 901Q707 814 696 744T663 617T614 519T551 449Q591 411 614 357T637 236Q637 175 619 122T567 29T487 -34T383 -57ZM383 1282Q346 1282 316 1254T263 1176T229 1056T217 901Q217 805 231 734T270 617T323 547T383 524Q414 524 444 549T498
622T536 740T551 901Q551 989 539 1059T505 1179T452 1255T383 1282ZM383 375Q364 375 346 366T314 339T292 295T283 236Q283 207 290 181T310 135T342 104T385 92Q410 92 429 103T460 134T479 180T485 236Q485 270 477 296T454 339T422 366T383 375Z" />
<glyph unicode="9" glyph-name="nine" horiz-adv-x="817" d="M383 92Q416 92 446 111T500 176T542 294T569 475Q542 443 515 425T464 396T417 382T375 379Q293 379 235 421T139 532T84 689T66 870Q66 1004 86 1097T137 1254T207 1353T280 1407T345 1429T387 1434Q451
1434 500 1411T585 1347T647 1255T690 1143T717 1023T732 904T738 798T739 715Q739 667 738 592T726 430T695 258T634 101T533 -13T383 -57Q326 -57 277 -33T192 28T136 104T115 176Q115 188 126 200T155 221T192 236T229 242Q243 242 252 239T262 225Q262 201
271 177T296 134T334 104T383 92ZM387 526Q457 526 509 593T578 797Q573 941 555 1035T510 1184T451 1262T387 1284Q361 1284 332 1265T278 1198T237 1071T221 870Q221 802 231 740T261 630T313 554T387 526Z" />
<glyph unicode=":" glyph-name="colon" horiz-adv-x="614" d="M322 150Q364 150 393 122T422 51Q422 32 414 15T393 -16T361 -37T322 -45Q302 -45 284 -37T253 -16T231 14T223 51Q223 72 231 90T252 121T284 142T322 150ZM322 723Q364 723 393 695T422 625Q422
605 414 588T393 557T361 536T322 528Q302 528 284 536T253 557T231 587T223 625Q223 667 252 695T322 723Z" />
<glyph unicode=";" glyph-name="semicolon" horiz-adv-x="614" d="M322 723Q364 723 393 695T422 625Q422 605 414 588T393 557T361 536T322 528Q302 528 284 536T253 557T231 587T223 625Q223 667 252 695T322 723ZM324 150Q364 150 394 120T424 29Q424 10 416
-14T396 -63T367 -112T333 -155T300 -185T270 -197Q257 -197 247 -191T228 -175T216 -154T211 -133Q211 -125 215 -124T225 -119Q236 -116 256 -93T299 -41Q267 -33 245 -8T223 51Q223 72 231 90T253 121T285 142T324 150Z" />
<glyph unicode="&lt;" glyph-name="less" horiz-adv-x="819" d="M606 979Q612 983 614 988T618 998T623 1004T633 1004Q642 1001 652 988T670 955T682 915T682 874Q679 865 674 858T664 848L297 643L680 430Q683 427 685 424T690 416Q693 404 689 385T677 346T657
313T633 295Q626 292 621 297L164 559Q136 578 123 602T109 653Q109 675 112 686T123 704T140 713T166 723L606 979Z" />
<glyph unicode="=" glyph-name="equal" horiz-adv-x="819" d="M674 573Q685 573 690 578T700 584Q711 584 716 571T721 541Q721 525 716 506T703 470T683 442T657 430H133Q118 430 109 447T100 487Q100 501 103 516T114 544T132 565T158 573H674ZM674 860Q685
860 690 865T700 870Q711 870 716 857T721 827Q721 811 716 792T703 756T683 728T657 717H133Q118 717 109 734T100 774Q100 788 103 803T114 831T132 852T158 860H674Z" />
<glyph unicode="&gt;" glyph-name="greater" horiz-adv-x="819" d="M213 324Q201 317 195 312T182 307Q172 307 164 316T149 340T139 373T135 410Q135 427 141 438T156 455L526 659L139 872Q134 877 131 881T127 897Q127 912 131 933T142 973T158 1006T178 1020Q184
1020 187 1016T199 1006L655 743Q669 734 679 732T697 727T707 720T711 702Q711 659 697 626T653 580L213 324Z" />
<glyph unicode="?" glyph-name="question" horiz-adv-x="885" d="M436 150Q457 150 475 143T506 122T527 90T535 51Q535 32 528 15T507 -16T475 -37T436 -45Q415 -45 397 -37T366 -16T344 14T336 51Q336 93 365 121T436 150ZM514 285Q514 262 503 250T474 234T436
234T399 250T370 277T358 313Q358 338 358 368T360 418Q364 452 374 472T406 512Q432 534 472 572T550 669T615 809T643 997Q643 1094 622 1151T569 1239T505 1277T449 1286Q413 1286 378 1273T316 1230T271 1152T254 1034Q254 1001 259 966T274 901T297 853T326
834Q332 834 336 836T344 838Q353 838 357 833T362 819Q362 807 354 791T330 761T293 737T248 727Q215 727 188 756T140 830T109 929T98 1034Q98 1138 128 1213T207 1338T319 1410T449 1434Q532 1434 597 1402T707 1311T775 1172T799 995Q799 888 775 805T714 656T630
539T539 444Q522 427 518 407T514 365V285Z" />
<glyph unicode="@" glyph-name="at" horiz-adv-x="1313" d="M645 223Q664 240 675 238T691 223T691 188T674 148T641 114T590 100Q517 100 444 131T312 222T217 370T180 573Q180 688 217 794T325 983T495 1115T721 1165Q814 1165 888 1135T1015 1051T1096 920T1124
752Q1124 674 1109 601T1061 472T978 381T860 346Q822 346 788 365T731 416Q706 388 675 367T604 346Q517 346 474 404T430 563Q430 645 453 715T517 836T615 915T737 944Q766 944 787 941T813 938Q818 940 821 941T827 942Q837 942 841 934T846 915Q846 901 842
885T829 855T811 831T791 821Q783 821 767 824T731 827Q690 827 658 809T604 757T569 676T557 571Q557 519 578 492T625 465Q651 465 670 479T705 516V735Q696 740 696 745Q696 755 716 760T762 766Q787 766 807 759T827 735V545Q827 519 832 502T844 476T859 463T874
459Q905 459 927 483T965 547T987 639T995 750Q995 896 924 969T719 1042Q627 1042 552 1003T422 899T339 749T309 569Q309 490 334 426T404 317T510 248T645 223Z" />
<glyph unicode="A" glyph-name="A" horiz-adv-x="1016" d="M492 788Q454 788 428 814T401 891Q401 902 402 913T407 934T414 950T424 956Q429 956 433 953T445 946T466 939T502 936Q557 936 615 953T720 1003T798 1082T829 1186Q829 1207 822 1227T801 1262T766
1288T715 1298Q635 1298 569 1263T448 1169T354 1031T286 867T245 691T231 522Q231 426 243 345T282 204T354 112T465 78Q525 78 571 108T651 191T710 312T753 461T784 624T807 788Q810 808 836 818T891 829Q903 829 916 826T938 817T952 801T954 776Q946 736 937
650T928 442Q928 341 929 268T934 142T940 54T946 -6Q952 -15 952 -20Q952 -30 942 -39T917 -55T884 -66T848 -70Q821 -70 807 -59T787 -23T778 45T774 150Q751 101 717 59T641 -14T550 -64T446 -82Q362 -82 293 -50T173 53T96 238T68 518Q68 631 89 744T151 962T250
1156T382 1312T541 1416T725 1454Q788 1454 837 1434T921 1379T973 1296T991 1194Q991 1105 948 1031T835 902T675 818T492 788Z" />
<glyph unicode="B" glyph-name="B" horiz-adv-x="1190" d="M410 1073Q410 1102 406 1115T401 1139Q401 1154 417 1164T455 1174Q506 1174 537 1148T569 1083V324Q569 250 581 198T617 113T676 65T756 49Q799 49 835 65T899 109T941 175T956 258Q956 327 932 373T870
447T783 486T686 498Q677 498 668 509T653 538T644 574T643 611T652 639T676 651Q700 651 734 657T805 678T878 720T943 786T990 882T1008 1012Q1008 1070 989 1126T926 1227T816 1299T655 1327Q532 1327 444 1289T301 1187T219 1039T193 860Q193 792 204 746T230
670T256 626T270 610Q287 615 294 606T301 582Q301 568 292 540T266 488T229 451T186 455Q174 466 149 495T100 572T56 689T37 848Q37 992 82 1108T208 1308T403 1436T653 1481Q769 1481 863 1450T1025 1358T1128 1212T1165 1016Q1165 932 1145 864T1090 742T1006
647T901 575Q946 562 985 537T1053 472T1099 381T1116 262Q1116 185 1089 120T1013 8T900 -65T758 -92Q657 -92 590 -62T483 24T427 157T410 330V1073Z" />
<glyph unicode="C" glyph-name="C" horiz-adv-x="999" d="M463 852Q501 852 543 865T626 902T705 958T771 1029T817 1110T834 1196Q834 1214 828 1234T807 1271T768 1299T709 1311Q641 1311 580 1279T465 1192T369 1064T295 907T248 736T231 565Q231 470 248 381T302
222T401 112T551 70Q616 70 668 89T757 130T814 172T836 193Q849 215 865 219T897 215T926 191T946 155T953 117T940 86Q938 84 925 71T888 39T829 -1T750 -41T653 -72T537 -84Q427 -84 340 -38T193 92T100 297T68 565Q68 665 89 770T150 974T249 1162T381 1317T544
1421T735 1460Q790 1460 838 1443T920 1392T975 1308T995 1190Q995 1127 971 1067T905 954T810 855T695 778T572 727T453 709Q415 709 389 732T362 807Q362 818 363 829T368 850T375 866T385 872Q390 872 394 869T406 862T427 855T463 852Z" />
<glyph unicode="D" glyph-name="D" horiz-adv-x="1247" d="M563 252Q563 167 589 124T678 80Q717 80 757 105T835 176T905 288T963 434T1002 609T1016 805Q1016 908 994 1000T924 1160T803 1269T627 1309Q542 1309 477 1290T365 1238T285 1159T233 1063T205 956T197
846Q197 772 212 714T247 616T284 553T305 528Q322 533 329 524T336 500Q336 480 328 459T305 420T274 391T238 379Q230 379 223 381T207 389Q205 390 192 403T160 442T120 504T80 591T49 701T37 834Q37 973 79 1089T200 1289T388 1419T633 1466Q776 1466 879 1412T1049
1267T1148 1061T1180 821Q1180 676 1158 553T1097 330T1007 154T899 26T782 -52T666 -78Q594 -78 544 -56T462 10T417 117T403 262V1047Q403 1076 399 1088T395 1112Q395 1128 411 1137T449 1147Q500 1147 531 1121T563 1057V252Z" />
<glyph unicode="E" glyph-name="E" horiz-adv-x="913" d="M866 147Q853 125 822 86T738 8T612 -59T440 -88Q366 -88 301 -66T187 0T109 105T80 248Q80 304 95 352T136 439T195 508T266 557Q232 578 200 607T143 678T103 771T88 891Q88 959 107 1028T162 1161T248
1281T358 1378T488 1444T633 1468Q703 1468 757 1447T849 1390T905 1304T924 1198Q924 1118 894 1042T811 907T690 811T545 774Q526 774 506 779T470 795T443 826T432 872Q432 883 433 896T438 920T445 938T455 946Q460 946 464 943T476 936T497 929T532 926Q583
926 625 950T698 1014T745 1102T762 1200Q762 1256 726 1283T633 1311Q556 1311 487 1275T366 1180T283 1048T252 901Q252 844 271 795T321 710T388 652T459 627Q464 629 468 629T477 629Q496 629 504 615T512 580Q512 563 508 545T497 511T481 485T463 473Q431
469 393 457T321 420T266 354T244 252Q244 213 259 180T301 124T364 87T444 74Q508 74 559 92T649 136T711 191T745 242Q753 260 764 268T788 276Q803 276 818 267T845 244T864 212T872 176Q872 160 866 147Z" />
<glyph unicode="F" glyph-name="F" horiz-adv-x="1194" d="M844 115Q844 47 836 -1T812 -79T776 -123T729 -137Q710 -137 687 -124T644 -92T610 -53T596 -18Q596 -8 598 -6T605 -3T616 -6T631 -8Q659 -8 671 27T684 141V463H578Q562 463 549 473T525 498T510 531T504
565Q504 582 511 594T535 606H684V1272Q576 1265 487 1240T334 1164T235 1032T199 829Q199 776 209 734T237 657T274 597T315 551Q332 556 339 547T346 522Q346 502 338 481T315 442T284 413T248 401Q240 401 233 403T217 412Q195 428 164 464T105 555T57 678T37
829Q37 1124 225 1279T782 1434Q810 1434 852 1434T943 1433T1040 1432T1132 1431T1205 1431T1247 1430Q1262 1430 1272 1432T1288 1438T1298 1443T1305 1446Q1310 1446 1315 1440T1324 1424T1330 1402T1333 1378Q1333 1360 1328 1341T1310 1306T1281 1280T1239
1270Q1230 1270 1206 1270T1149 1271T1075 1272T995 1273T915 1274T844 1276V606H1100Q1116 618 1124 612T1133 590T1132 552T1121 511T1103 477T1081 463H844V115Z" />
<glyph unicode="G" glyph-name="G" horiz-adv-x="1051" d="M784 119Q719 23 640 -29T467 -82Q372 -82 298 -37T174 92T97 293T70 555Q70 657 91 764T152 971T251 1161T383 1317T546 1423T737 1462Q792 1462 840 1445T922 1394T977 1314T997 1208Q997 1152 978
1100T927 1002T851 918T761 853T665 810T571 795Q534 795 508 818T481 893Q481 904 482 917T487 941T494 959T504 967Q509 967 513 964T525 957T546 950T582 946Q621 946 665 967T748 1023T811 1103T836 1198Q836 1216 830 1236T809 1273T770 1301T711 1313Q647
1313 587 1282T475 1197T380 1069T305 912T257 737T240 557Q240 446 257 358T306 207T379 112T471 78Q523 78 567 99T646 157T707 240T750 337T777 436T786 528Q786 544 784 564T782 596Q782 611 787 619T802 631T823 636T848 637Q862 637 880 631T914 615T942
590T954 559Q946 476 944 402T942 250Q942 178 943 100T944 -72Q973 -67 1000 -65T1053 -61Q1089 -59 1099 -83T1103 -139T1074 -196T1026 -223Q1003 -223 983 -224T940 -227Q937 -285 931 -344T912 -458T877 -562T823 -647T746 -704T641 -725Q589 -725 547 -707T474
-656T428 -579T412 -483Q412 -405 444 -345T528 -238T649 -160T788 -106V-86Q788 -20 786 31T784 119ZM645 -567Q679 -567 703 -542T744 -474T769 -376T782 -258Q680 -290 626 -346T571 -479Q571 -526 592 -546T645 -567Z" />
<glyph unicode="H" glyph-name="H" horiz-adv-x="1389" d="M793 618H1112V1317Q1112 1426 1143 1481T1219 1536Q1241 1536 1260 1523T1295 1493T1318 1457T1327 1427Q1327 1416 1319 1415T1300 1404T1281 1366T1272 1274V-10Q1272 -36 1255 -46T1214 -57Q1196
-57 1178 -52T1146 -39T1122 -21T1112 2V475H793V-10Q793 -36 776 -46T735 -57Q717 -57 699 -52T667 -39T643 -21T633 2V475H487Q471 475 458 485T435 510T420 544T414 578Q414 595 421 606T444 618H633V1280Q538 1280 459 1249T322 1159T232 1017T199 831Q199
766 212 714T243 626T279 569T307 549Q316 549 320 554T332 559Q340 559 342 548T344 526Q344 494 331 466T299 420T255 398T209 410Q182 429 152 464T96 552T54 672T37 825Q37 934 65 1021T142 1176T257 1292T397 1372T552 1419T711 1434Q727 1434 742 1428T768
1410T786 1382T793 1348V618Z" />
<glyph unicode="I" glyph-name="I" horiz-adv-x="811" d="M694 -10Q694 -36 677 -46T637 -57Q619 -57 601 -52T569 -39T545 -21T535 2V1274Q466 1265 405 1235T298 1153T226 1027T199 856Q199 794 212 745T243 661T279 607T307 588Q315 588 318 595T330 602Q338
602 341 592T344 571Q344 539 331 510T299 462T255 438T209 449Q182 467 152 504T96 593T54 712T37 856Q37 964 63 1049T132 1199T234 1308T356 1381T486 1421T612 1434Q628 1434 643 1428T669 1410T687 1382T694 1348V-10Z" />
<glyph unicode="J" glyph-name="J" horiz-adv-x="821" d="M535 1274Q466 1265 405 1235T298 1153T226 1027T199 856Q199 794 212 745T243 661T279 607T307 588Q315 588 318 595T330 602Q338 602 341 592T344 571Q344 545 336 521T313 478T281 448T244 436Q223
436 209 449Q190 461 161 492T104 574T57 695T37 856Q37 964 63 1049T132 1199T234 1308T356 1381T486 1421T612 1434Q628 1434 643 1428T669 1410T687 1382T694 1348V-10V-72Q723 -67 750 -65T803 -61Q839 -59 849 -83T853 -139T824 -196T776 -223Q753 -223 733
-224T692 -227Q687 -316 673 -404T626 -564T537 -680T391 -725Q339 -725 297 -707T224 -656T178 -579T162 -483Q162 -405 193 -345T277 -239T397 -162T535 -109V-86V1274ZM395 -567Q429 -567 453 -542T493 -475T517 -377T530 -260Q428 -291 375 -346T322 -479Q322
-526 343 -546T395 -567Z" />
<glyph unicode="K" glyph-name="K" horiz-adv-x="1227" d="M694 627Q793 647 846 697T924 816T956 970T972 1146T1001 1330T1071 1509Q1074 1516 1085 1526T1114 1536Q1133 1536 1154 1531T1194 1518T1223 1498T1235 1475Q1235 1460 1219 1452Q1187 1404 1169
1346T1139 1224T1120 1093T1102 961T1074 833T1028 716T954 617T840 543Q912 504 959 449T1040 330T1096 195T1144 55T1199 -78T1276 -195Q1280 -200 1286 -202T1299 -207T1310 -213T1315 -223Q1315 -238 1298 -256T1258 -291T1211 -319T1176 -330Q1161 -330 1149
-317Q1106 -263 1077 -206T1027 -89T989 28T957 141T920 245T869 334T797 405T694 453V-10Q694 -36 677 -46T637 -57Q619 -57 601 -52T569 -39T545 -21T535 2V1274Q466 1265 405 1235T298 1153T226 1027T199 856Q199 794 212 745T243 661T279 607T307 588Q316 588
324 592T340 596Q356 596 356 571Q356 539 342 510T305 462T257 438T209 449Q182 467 152 504T96 593T54 712T37 856Q37 964 63 1049T132 1199T234 1308T356 1381T486 1421T612 1434Q628 1434 643 1428T669 1410T687 1382T694 1348V627Z" />
<glyph unicode="L" glyph-name="L" horiz-adv-x="1034" d="M766 -76Q721 -76 680 -61T603 -22T532 33T467 96Q452 64 432 37T384 -12T324 -45T252 -57Q201 -57 162 -40T95 7T54 74T39 154Q39 204 58 245T109 316T184 362T272 379Q289 379 305 377T338 369Q320
435 292 497T238 625T192 762T172 920Q172 986 188 1051T233 1175T306 1286T403 1374T521 1433T659 1454Q728 1454 784 1433T880 1376T943 1289T965 1178Q965 1118 947 1063T898 960T826 873T739 806T645 763T553 748Q532 748 514 755T481 776T458 812T449 864Q449
891 465 891Q470 891 478 884T504 877Q555 877 608 902T704 966T775 1054T803 1149Q803 1179 794 1205T767 1252T720 1284T653 1296Q582 1296 524 1265T424 1181T359 1059T336 913Q336 860 348 809T378 707T417 605T457 499T489 387T504 266Q537 234 567 202T628
144T688 101T750 84Q793 84 821 103T866 150T890 212T897 272Q897 286 895 294T893 309Q893 324 918 324Q972 324 1001 297T1030 231Q1030 171 1011 116T958 18T874 -50T766 -76ZM258 238Q227 238 206 217T184 162Q184 133 202 110T256 86Q277 86 293 95T322 121T341
157T352 201Q329 218 306 228T258 238Z" />
<glyph unicode="M" glyph-name="M" horiz-adv-x="1122" d="M1087 39Q1099 31 1092 15T1066 -17T1021 -46T969 -57Q944 -56 920 -42T878 1T848 75T836 180V1128Q836 1186 825 1218T798 1264T766 1281T739 1284Q728 1284 711 1281T679 1262T652 1210T641 1108V2Q644
2 647 -1T651 -8Q651 -16 640 -24T611 -40T573 -52T532 -57Q512 -57 497 -52T481 -18V1128Q481 1186 471 1218T445 1264T414 1281T385 1284Q375 1284 359 1282T326 1265T299 1218T287 1128V221Q287 85 242 14T111 -57Q82 -57 64 -47T34 -22T19 10T14 41Q14 48 18
50T31 52T49 52T70 57Q80 61 90 73T109 108T122 166T127 252V1108Q127 1198 149 1260T208 1361T289 1417T381 1434Q394 1434 416 1432T464 1420T518 1395T569 1350Q588 1378 611 1394T656 1420T699 1431T735 1434Q783 1434 829 1417T912 1361T972 1260T995 1108V197Q995
165 1002 140T1022 95T1052 62T1087 39Z" />
<glyph unicode="N" glyph-name="N" horiz-adv-x="1262" d="M694 1180Q725 1233 760 1279T836 1359T918 1414T1006 1434Q1027 1434 1051 1425T1097 1396T1131 1341T1145 1255V61Q1145 23 1152 -2T1170 -45T1194 -72T1217 -90T1235 -105T1243 -123Q1243 -135 1236
-147T1215 -169T1182 -186T1139 -193Q1116 -193 1090 -183T1040 -148T1002 -80T985 27V1243Q985 1263 979 1267T967 1272Q951 1272 925 1248T869 1183T807 1092T751 985T710 877T694 780V-10Q694 -36 677 -46T637 -57Q619 -57 601 -52T569 -39T545 -21T535 2V1274Q466
1265 405 1235T298 1153T226 1027T199 856Q199 794 212 745T243 661T279 607T307 588Q316 588 324 592T340 596Q356 596 356 571Q356 545 347 521T321 478T286 448T246 436Q220 436 184 468T116 556T60 689T37 856Q37 964 63 1049T132 1199T234 1308T356 1381T486
1421T612 1434Q628 1434 643 1428T669 1410T687 1382T694 1348V1180Z" />
<glyph unicode="O" glyph-name="O" horiz-adv-x="1042" d="M801 696Q801 756 795 821H756Q692 821 636 839T539 891T473 972T449 1079Q449 1119 462 1154T500 1216T559 1258T635 1274Q691 1274 735 1253T814 1197T873 1114T915 1012Q931 1021 945 1034T973 1063Q982
1090 997 1090Q1008 1090 1019 1081T1041 1055T1057 1020T1063 979Q1063 941 1031 911T948 858Q954 815 957 774T961 696Q961 502 922 360T818 126T670 -12T496 -57Q384 -57 299 -5T157 139T70 351T41 610Q41 784 71 915T148 1142T250 1300T352 1401T433 1455T471
1473Q476 1475 481 1476T494 1477Q511 1477 524 1467T546 1441T560 1406T565 1370Q565 1350 559 1337T539 1323Q532 1323 528 1325Q510 1315 480 1296T413 1244T340 1159T273 1035T224 862T205 631Q205 492 231 391T299 225T394 128T502 96Q566 96 620 136T714
252T777 440T801 696ZM774 963Q766 998 755 1028T728 1079T693 1113T649 1126Q618 1126 608 1109T598 1075Q598 1057 606 1037T633 1001T681 974T750 963H774Z" />
<glyph unicode="P" glyph-name="P" horiz-adv-x="1161" d="M410 1073Q410 1102 406 1115T401 1139Q401 1154 417 1164T455 1174Q506 1174 537 1148T569 1083V414Q604 418 648 434T740 478T831 549T911 647T967 773T989 930Q989 988 971 1050T912 1163T809 1247T655
1280Q532 1280 444 1242T301 1140T219 992T193 813Q193 745 204 699T230 623T256 579T270 563Q287 568 294 559T301 535Q301 521 292 493T266 441T229 404T186 408Q174 419 149 448T100 525T56 642T37 801Q37 945 82 1061T208 1261T403 1389T653 1434Q765 1434
856 1397T1012 1294T1112 1135T1147 934Q1147 800 1099 687T971 485T787 339T569 260V-10Q569 -36 552 -46T512 -57Q494 -57 476 -52T444 -39T420 -21T410 2V1073Z" />
<glyph unicode="Q" glyph-name="Q" horiz-adv-x="1069" d="M934 -242Q953 -242 965 -237T985 -225T1000 -213T1012 -207Q1025 -207 1029 -221T1028 -257T1010 -304T977 -350T930 -386T870 -401Q788 -401 697 -370T516 -276T346 -122T203 90T105 358T68 680Q68
813 88 921T144 1113T226 1257T326 1357T434 1415T543 1434Q622 1434 701 1394T844 1265T947 1039T987 705Q987 567 966 459T912 268T838 128T755 34T678 -18T618 -35Q605 -35 588 -23T554 7T527 43T516 74Q516 90 535 90H545Q617 110 670 167T758 307T810 492T827
705Q827 857 802 965T737 1143T645 1245T539 1278Q485 1278 430 1243T329 1135T256 950T227 682Q227 509 261 374T353 135T484 -39T636 -156T792 -221T934 -242Z" />
<glyph unicode="R" glyph-name="R" horiz-adv-x="1161" d="M410 1073Q410 1102 406 1115T401 1139Q401 1154 417 1164T455 1174Q506 1174 537 1148T569 1083V414Q608 421 654 438T747 483T837 553T914 649T968 773T989 930Q989 988 970 1050T909 1163T804 1247T649
1280Q531 1280 445 1241T303 1137T220 987T193 813Q193 745 204 699T230 623T256 579T270 563Q287 568 294 559T301 535Q301 521 292 493T266 441T229 404T186 408Q174 419 149 448T100 525T56 642T37 801Q37 943 81 1059T205 1259T398 1388T647 1434Q759 1434
851 1397T1009 1294T1111 1135T1147 934Q1147 829 1117 737T1033 569T910 434T758 338Q809 309 842 268T899 179T940 79T976 -23T1017 -121T1075 -205Q1079 -210 1085 -212T1098 -217T1109 -223T1114 -233Q1114 -248 1097 -266T1057 -301T1011 -329T975 -340Q960
-340 948 -328Q898 -271 870 -210T823 -88T788 30T747 135T680 219T569 274V-10Q569 -36 552 -46T512 -57Q494 -57 476 -52T444 -39T420 -21T410 2V1073Z" />
<glyph unicode="S" glyph-name="S" horiz-adv-x="848" d="M414 -74Q349 -74 306 -60T238 -27T203 7T193 29Q193 47 201 67T221 105T247 135T272 147Q286 147 295 129Q297 127 305 119T327 103T363 87T414 80Q477 80 517 118T557 223Q557 269 536 305T479 372T399
432T307 494T215 563T135 648T79 756T57 895Q57 962 80 1030T143 1159T239 1274T358 1367T491 1429T631 1452Q691 1452 739 1433T820 1380T871 1297T889 1188Q889 1131 869 1076T816 972T742 882T657 810T572 762T500 745Q473 745 452 757T416 788T393 827T385
864Q385 877 388 881T398 885T415 882T438 879Q480 879 531 908T627 982T702 1081T733 1186Q733 1238 708 1268T621 1298Q583 1298 539 1284T449 1243T362 1180T288 1099T237 1003T217 895Q217 836 238 790T295 705T376 635T468 572T560 507T640 433T697 343T719
229Q719 167 696 112T631 15T534 -50T414 -74Z" />
<glyph unicode="T" glyph-name="T" horiz-adv-x="1051" d="M844 115Q844 47 836 -1T812 -79T776 -123T729 -137Q710 -137 687 -124T644 -92T610 -53T596 -18Q596 -8 598 -6T605 -3T616 -6T631 -8Q659 -8 671 27T684 141V1272Q589 1264 501 1239T346 1162T239 1030T199
829Q199 776 209 734T237 657T274 597T315 551Q332 556 339 547T346 522Q346 502 338 481T315 442T284 413T248 401Q240 401 233 403T217 412Q195 428 164 464T105 555T57 678T37 829Q37 977 92 1090T245 1279T477 1395T772 1434Q809 1434 861 1434T966 1432T1059
1431T1116 1430Q1129 1430 1137 1432T1151 1438T1160 1443T1165 1446Q1170 1446 1174 1440T1182 1424T1188 1402T1190 1378Q1190 1360 1185 1341T1170 1306T1145 1280T1110 1270Q1099 1270 1070 1270T1002 1272T922 1274T844 1276V115Z" />
<glyph unicode="U" glyph-name="U" horiz-adv-x="1262" d="M985 197Q953 144 917 98T842 17T760 -37T674 -57Q652 -57 628 -48T583 -19T549 36T535 121V1274Q466 1265 405 1235T298 1153T226 1027T199 856Q199 794 212 745T243 661T279 607T307 588Q316 588 324
592T340 596Q356 596 356 571Q356 539 342 510T305 462T257 438T209 449Q182 467 152 504T96 593T54 712T37 856Q37 964 63 1049T132 1199T234 1308T356 1381T486 1421T612 1434Q628 1434 643 1428T669 1410T687 1382T694 1348V133Q694 113 700 109T713 104Q728
104 754 125T810 182T872 264T928 361T969 461T985 555V1333Q985 1362 981 1375T977 1399Q977 1414 992 1424T1030 1434Q1081 1434 1113 1408T1145 1343V455Q1145 354 1146 281T1151 155T1157 67T1163 6Q1169 -3 1169 -8Q1169 -18 1159 -27T1134 -42T1101 -53T1065
-57Q1038 -57 1023 -42T1001 5T990 84T985 193V197Z" />
<glyph unicode="V" glyph-name="V" horiz-adv-x="1206" d="M985 1085Q985 1161 982 1215T975 1305T968 1364T965 1399Q965 1414 980 1424T1018 1434Q1069 1434 1093 1414T1126 1348Q1130 1329 1133 1308T1139 1258T1143 1195T1145 1112Q1145 935 1126 780T1074
494T996 262T898 89T789 -19T674 -57Q652 -57 628 -48T583 -19T549 36T535 121V1274Q466 1265 405 1235T298 1153T226 1027T199 856Q199 794 212 745T243 661T279 607T307 588Q316 588 324 592T340 596Q356 596 356 571Q356 539 342 510T305 462T257 438T209 449Q182
467 152 504T96 593T54 712T37 856Q37 964 63 1049T132 1199T234 1308T356 1381T486 1421T612 1434Q628 1434 643 1428T669 1410T687 1382T694 1348V133Q694 113 700 109T713 104Q728 104 754 130T810 211T872 346T928 536T969 782T985 1085Z" />
<glyph unicode="W" glyph-name="W" horiz-adv-x="1122" d="M995 268Q995 178 973 116T914 16T833 -40T741 -57Q727 -57 705 -55T655 -43T601 -17T549 29Q528 0 503 -17T454 -43T408 -54T373 -57Q325 -57 281 -40T203 15T148 116T127 268V1200Q127 1239 123 1266T109
1311T87 1341T55 1358Q47 1361 47 1366Q47 1373 59 1384T91 1407T133 1426T178 1434Q197 1434 216 1424T251 1390T277 1324T287 1221V248Q287 189 298 158T324 112T356 95T383 92Q395 92 411 94T443 113T470 166T481 268V1272Q481 1287 480 1297T477 1314T474 1326T473
1337Q473 1353 489 1362T526 1372Q577 1372 609 1346T641 1282V248Q641 189 652 158T678 112T709 95T737 92Q747 92 764 94T797 111T824 157T836 248V1221Q836 1283 845 1324T870 1389T905 1424T942 1434Q964 1434 987 1426T1030 1407T1062 1385T1075 1366Q1075
1361 1067 1358Q1047 1352 1034 1341T1012 1312T999 1266T995 1200V268Z" />
<glyph unicode="X" glyph-name="X" horiz-adv-x="805" d="M766 53Q775 48 779 45T784 33Q784 24 771 9T738 -20T699 -46T664 -57Q648 -57 639 -51T621 -33Q561 61 508 156T406 346Q362 258 313 169T207 -12Q194 -32 179 -44T131 -57Q104 -57 80 -45T39 -17T11
16T0 41Q0 46 3 48T18 51Q34 51 64 86T135 184T223 335T319 530Q247 692 195 837T109 1094T59 1275T43 1356Q43 1373 56 1387T90 1411T132 1428T172 1434Q186 1434 200 1429T215 1415Q215 1410 208 1404T201 1380Q201 1378 213 1327T250 1190T315 987T408 737Q471
892 525 1063T616 1411Q614 1413 614 1417Q614 1423 620 1426T635 1431T651 1433T664 1434Q681 1434 699 1430T732 1419T756 1401T766 1378Q766 1372 753 1306T708 1128T624 865T494 539Q551 417 618 294T766 53Z" />
<glyph unicode="Y" glyph-name="Y" horiz-adv-x="1272" d="M1145 -10V-72Q1174 -67 1201 -65T1253 -61Q1277 -60 1289 -71T1305 -100T1303 -139T1287 -178T1261 -210T1227 -223Q1204 -223 1184 -224T1143 -227Q1138 -316 1124 -404T1076 -564T987 -680T842 -725Q789
-725 747 -707T674 -656T628 -579T612 -483Q612 -405 644 -345T728 -239T847 -162T985 -109V-86V197Q953 144 917 98T842 17T760 -37T674 -57Q652 -57 628 -48T583 -19T549 36T535 121V1274Q466 1265 405 1235T298 1153T226 1027T199 856Q199 794 212 745T243 661T279
607T307 588Q316 588 324 592T340 596Q356 596 356 571Q356 539 342 510T305 462T257 438T209 449Q182 467 152 504T96 593T54 712T37 856Q37 964 63 1049T132 1199T234 1308T356 1381T486 1421T612 1434Q628 1434 643 1428T669 1410T687 1382T694 1348V133Q694
113 700 109T713 104Q728 104 754 125T810 182T872 264T928 361T969 461T985 555V1333Q985 1362 981 1375T977 1399Q977 1414 992 1424T1030 1434Q1081 1434 1113 1408T1145 1343V-10ZM846 -567Q880 -567 904 -542T944 -475T968 -377T981 -260Q879 -291 826 -346T772
-479Q772 -526 793 -546T846 -567Z" />
<glyph unicode="Z" glyph-name="Z" horiz-adv-x="997" d="M324 -510Q324 -435 353 -377T431 -273T543 -196T674 -141Q646 -50 586 -1T442 51Q425 52 412 61T391 86T378 118T373 152Q373 173 381 188T408 203Q411 203 415 203T424 201Q427 200 454 212T520 253T603
332T684 457T747 636T772 879Q772 966 757 1029T718 1137T664 1208T603 1249T546 1269T500 1274Q447 1274 397 1249T307 1174T245 1053T221 887Q221 789 244 721T299 609T366 546T424 526Q435 526 443 529T457 532Q462 532 464 527T467 504Q467 450 440 415T365
379Q341 379 309 393T243 435T176 504T116 601T73 726T57 877Q57 1019 97 1124T202 1298T346 1400T504 1434Q598 1434 677 1395T814 1282T904 1104T936 868Q936 717 906 601T831 398T733 251T631 150Q660 137 689 116T743 63T790 -9T827 -104Q865 -96 899 -93T965
-88Q1001 -86 1011 -110T1015 -166T986 -223T938 -250Q893 -250 850 -256Q852 -267 852 -279T852 -303Q852 -381 838 -460T790 -605T698 -711T553 -752Q501 -752 459 -734T386 -683T340 -606T324 -510ZM696 -285Q593 -316 538 -372T483 -506Q483 -552 504 -573T557
-594Q593 -594 619 -567T662 -498T688 -404T696 -301V-285Z" />
<glyph unicode="[" glyph-name="bracketleft" horiz-adv-x="553" d="M250 -90H293Q307 -90 324 -90T359 -90T394 -89T426 -86Q429 -84 431 -84T436 -84Q450 -84 457 -101T465 -143Q465 -159 461 -174T450 -202T430 -221T403 -229H152Q123 -229 111 -220T98 -176V1511Q98
1528 109 1544T141 1561H399Q431 1561 444 1545T457 1501Q457 1485 453 1469T443 1439T430 1418T416 1409Q405 1409 399 1423Q357 1426 326 1426T276 1427H250V-90Z" />
<glyph unicode="\" glyph-name="backslash" horiz-adv-x="635" d="M614 51Q627 31 612 11T572 -22T521 -36T487 -18L2 1360Q-4 1369 -7 1377T-8 1394T8 1410T47 1423Q75 1430 92 1428T120 1420T134 1406T141 1391L614 51Z" />
<glyph unicode="]" glyph-name="bracketright" horiz-adv-x="553" d="M303 1421H260Q246 1421 229 1421T194 1421T159 1419T127 1417Q124 1415 122 1415T117 1415Q103 1415 96 1432T88 1475Q88 1491 92 1506T103 1534T123 1553T150 1561H401Q430 1561 442 1551T455
1507V-180Q455 -197 444 -213T412 -229H154Q122 -229 109 -214T96 -170Q96 -154 100 -138T110 -108T123 -87T137 -78Q148 -78 154 -92Q196 -95 227 -95T276 -96H303V1421Z" />
<glyph unicode="^" glyph-name="asciicircum" horiz-adv-x="819" d="M668 1065Q674 1054 679 1048T684 1034Q684 1017 659 1002T592 987Q575 987 564 993T547 1008L406 1262L270 1022Q262 1008 253 998T221 987Q207 987 192 993T163 1008T142 1028T133 1051Q133
1055 137 1059L322 1378Q340 1406 365 1420T416 1434Q437 1434 448 1431T466 1420T475 1402T485 1376L668 1065Z" />
<glyph unicode="_" glyph-name="underscore" horiz-adv-x="827" d="M780 -164Q791 -164 796 -159T807 -154Q812 -154 816 -161T822 -177T826 -198T827 -217Q827 -233 823 -252T810 -288T790 -316T764 -328H33Q25 -328 19 -320T9 -301T2 -276T0 -250Q0 -236 3 -221T14
-193T31 -172T57 -164H780Z" />
<glyph unicode="`" glyph-name="grave" horiz-adv-x="819" d="M252 1137Q236 1156 236 1171Q236 1186 245 1198T268 1218T295 1232T319 1237Q341 1237 354 1226T379 1198L565 983Q571 975 576 968T582 952Q582 935 557 920T489 905Q472 905 461 911T444 926L252 1137Z" />
<glyph unicode="a" glyph-name="a" horiz-adv-x="725" d="M651 78Q682 78 704 100T743 155T770 226T788 299Q795 331 808 345T838 360Q850 360 862 353T885 333T902 306T909 276Q909 274 909 271T907 262Q894 211 872 155T814 52T730 -26T614 -57Q560 -57 520
-34T457 27Q426 -8 383 -32T281 -57Q221 -57 176 -33T99 32T53 130T37 252Q37 380 78 482T187 655T342 765T524 803Q566 803 592 780T618 717Q618 691 613 681T592 670Q578 670 563 672T532 674Q474 674 414 649T306 571T226 438T195 246Q195 165 226 122T311 78Q353
78 381 109T426 184V500Q426 515 425 525T422 542T419 554T418 565Q418 581 433 590T471 600Q522 600 552 574T582 510V172Q582 155 586 139T598 109T619 87T651 78Z" />
<glyph unicode="b" glyph-name="b" horiz-adv-x="774" d="M295 522Q295 584 308 629T346 704T401 748T469 762Q510 762 549 742T618 681T667 577T686 428Q686 368 679 309T655 195Q666 191 676 191T698 190Q731 190 756 202T800 234T830 281T846 338Q848 350 859
358T886 369T917 369T946 356T963 327T963 279Q954 237 934 201T882 136T809 92T715 76Q687 76 661 79T610 90Q572 24 511 -16T360 -57Q289 -57 236 -32T146 38T91 147T72 285V1262Q72 1284 69 1297T62 1317T55 1329T51 1339Q51 1345 57 1349T73 1356T94 1360T117
1362Q168 1362 197 1336T227 1272V313Q227 262 236 219T263 145T308 96T373 78Q411 78 438 97T483 150Q439 181 405 222T346 312T308 414T295 522ZM422 530Q422 456 448 390T520 276Q526 312 528 347T530 412Q530 515 509 571T459 627Q439 627 431 601T422 530Z"
/>
<glyph unicode="c" glyph-name="c" horiz-adv-x="608" d="M399 -57Q331 -57 267 -32T154 42T75 163T45 330Q45 418 70 503T139 654T244 762T379 803Q432 803 469 782T529 730T562 664T573 602Q573 582 563 566T537 539T504 523T472 518T450 528T444 555Q440 568
437 587T425 623T401 653T360 666Q332 666 306 640T259 567T226 460T213 330Q213 269 228 222T272 143T338 95T422 78Q482 78 526 100T602 160T652 243T680 336Q687 370 708 381T752 387T791 362T805 315Q801 284 791 244T760 163T710 83T635 12T533 -38T399 -57Z"
/>
<glyph unicode="d" glyph-name="d" horiz-adv-x="750" d="M301 -57Q241 -57 192 -36T109 26T56 129T37 272Q37 390 70 482T160 641T292 747T451 799V1262Q451 1284 448 1297T441 1317T434 1329T430 1339Q430 1345 436 1349T452 1356T473 1360T496 1362Q547 1362
576 1336T606 1272V172Q606 155 610 139T622 109T644 87T676 78Q707 78 729 100T768 155T795 226T813 299Q819 331 833 345T862 360Q874 360 887 353T910 333T927 306T934 276Q934 274 934 271T932 262Q919 211 897 155T839 52T754 -26T639 -57Q586 -57 546 -35T483
23Q449 -12 405 -34T301 -57ZM332 78Q372 78 401 101T451 158V664Q401 655 355 631T273 562T216 451T195 287Q195 231 206 192T236 127T280 90T332 78Z" />
<glyph unicode="e" glyph-name="e" horiz-adv-x="608" d="M543 596Q543 539 524 479T466 366T371 270T240 205Q250 179 266 156T306 115T359 88T430 78Q490 78 533 100T605 160T653 243T680 336Q687 370 708 381T752 387T791 362T805 315Q801 284 792 244T763
163T715 83T642 12T541 -38T408 -57Q338 -57 273 -30T157 49T76 176T45 348Q45 445 72 528T143 673T243 768T358 803Q401 803 435 788T494 746T530 680T543 596ZM213 354Q213 345 214 336T215 317Q253 335 284 363T337 427T371 505T383 594Q383 628 372 647T340
666Q315 666 296 649T262 605T238 543T222 473T214 407T213 354Z" />
<glyph unicode="f" glyph-name="f" horiz-adv-x="549" d="M227 600V555Q297 470 353 381T449 192T510 -17T532 -254Q532 -382 513 -490T458 -677T372 -800T260 -844Q206 -844 170 -818T113 -748T82 -649T72 -537V565Q69 568 66 572T59 580Q35 604 16 624T-4 670Q-4
685 7 700T43 719Q48 719 55 720T72 721V1303Q72 1325 69 1338T62 1358T55 1370T51 1380Q51 1386 57 1390T73 1397T94 1401T117 1403Q168 1403 197 1377T227 1313V733Q263 736 299 738T369 743T431 747T481 748Q515 748 540 735T565 690Q565 679 563 658T556 615T544
577T526 561Q521 561 519 564T511 572T495 580T463 586L227 600ZM377 -254Q377 -184 368 -110T339 41T292 193T227 340V-537Q227 -561 229 -589T236 -640T251 -678T276 -694Q298 -694 317 -662T349 -572T369 -433T377 -254Z" />
<glyph unicode="g" glyph-name="g" horiz-adv-x="721" d="M195 -608Q195 -530 215 -470T271 -360T352 -267T449 -178V37Q418 6 377 -15T281 -37Q221 -37 176 -13T99 52T53 150T37 272Q37 400 78 502T187 675T342 785T524 823Q566 823 592 801T618 737Q618 711
613 701T592 690Q578 690 563 692T532 694Q474 694 414 669T306 591T226 458T195 266Q195 186 226 142T311 98Q342 98 365 116T405 163T432 224T449 289V520Q449 549 445 562T440 586Q440 601 456 611T494 621Q545 621 574 595T604 530V-27Q660 35 706 114T784
299Q794 331 806 345T834 360Q846 360 858 353T881 333T898 306T905 276Q905 274 905 268T903 256Q877 167 843 99T769 -24T688 -120T604 -199V-553Q604 -634 586 -689T537 -779T469 -829T391 -844Q348 -844 312 -826T250 -775T210 -700T195 -608ZM391 -715Q416
-715 428 -695T444 -649T449 -595T449 -553V-334Q399 -384 369 -447T338 -602Q338 -650 352 -682T391 -715Z" />
<glyph unicode="h" glyph-name="h" horiz-adv-x="754" d="M72 1262Q72 1284 69 1297T62 1317T55 1329T51 1339Q51 1345 57 1349T73 1356T94 1360T117 1362Q168 1362 197 1336T227 1272V600Q248 643 272 680T325 744T386 787T457 803Q508 803 541 784T593 735T619
668T627 596V172Q627 165 628 150T634 118T649 90T680 78Q711 78 733 100T772 155T799 226T817 299Q823 330 835 344T862 359T892 352T918 329T934 296T936 262Q922 211 900 155T842 52T758 -26T643 -57Q602 -57 571 -42T517 0T483 61T471 135V551Q471 575 470
596T465 633T452 658T428 668Q406 668 374 638T311 560T257 452T227 330V31Q227 16 227 1T221 -27T204 -48T170 -57Q155 -57 138 -54T106 -41T82 -14T72 33V1262Z" />
<glyph unicode="i" glyph-name="i" horiz-adv-x="354" d="M180 985Q155 985 133 995T94 1022T67 1061T57 1110Q57 1137 67 1160T93 1199T132 1225T180 1235Q207 1235 230 1226T269 1200T295 1160T305 1110Q305 1084 296 1062T270 1022T230 995T180 985ZM227 172Q227
165 228 150T234 118T250 90T281 78Q311 78 333 100T372 155T400 226T418 299Q424 330 436 344T463 359T492 352T518 329T535 296T537 262Q523 211 501 155T443 52T359 -26T244 -57Q203 -57 171 -42T117 0T84 61T72 135V682Q72 711 68 724T63 748Q63 763 79 772T117
782Q168 782 197 756T227 692V172Z" />
<glyph unicode="j" glyph-name="j" horiz-adv-x="344" d="M408 299Q417 331 429 345T457 360Q469 360 481 353T504 333T521 306T528 276Q528 274 528 268T526 256Q500 167 466 99T392 -24T311 -120T227 -199V-553Q227 -634 209 -689T160 -779T92 -829T14 -844Q-29
-844 -65 -826T-127 -775T-167 -700T-182 -608Q-182 -530 -162 -470T-106 -360T-25 -267T72 -178V682Q72 711 68 724T63 748Q63 763 79 772T117 782Q168 782 197 756T227 692V-27Q283 35 330 114T408 299ZM25 1110Q25 1137 34 1160T61 1199T101 1225T150 1235Q175
1235 197 1226T237 1200T264 1160T274 1110Q274 1084 264 1062T237 1022T198 995T150 985Q124 985 101 995T61 1022T35 1061T25 1110ZM14 -715Q39 -715 51 -695T67 -649T72 -595T72 -553V-334Q22 -384 -8 -447T-39 -602Q-39 -650 -25 -682T14 -715Z" />
<glyph unicode="k" glyph-name="k" horiz-adv-x="717" d="M72 1262Q72 1284 69 1297T62 1317T55 1329T51 1339Q51 1345 57 1349T73 1356T94 1360T117 1362Q168 1362 197 1336T227 1272V633Q252 667 279 697T337 751T399 789T467 803Q515 803 549 785T605 735T638
665T649 582Q649 523 630 472T582 378T519 303T453 248Q460 215 472 185T503 130T544 92T598 78Q633 78 663 99T717 153T757 224T780 297Q786 328 798 342T825 357T855 350T881 327T897 294T899 260Q885 219 859 164T793 60T699 -23T575 -57Q515 -57 466 -26T381
52T326 155T307 262Q307 278 321 294T356 330T402 374T448 428T484 495T498 580Q498 618 480 642T432 666Q414 666 389 653T335 606T279 519T227 383V31Q227 16 227 1T221 -27T204 -48T170 -57Q155 -57 138 -54T106 -41T82 -14T72 33V1262Z" />
<glyph unicode="l" glyph-name="l" horiz-adv-x="451" d="M227 606Q238 627 248 662T268 741T286 831T300 923T309 1007T313 1075Q313 1177 298 1224T258 1272Q250 1272 244 1264T234 1244T229 1217T227 1190V606ZM518 297Q524 327 536 340T563 355T593 349T619
326T635 295T637 260Q623 219 597 164T531 60T437 -23T313 -57Q254 -57 209 -38T134 17T88 102T72 213V1145Q72 1202 86 1250T126 1333T186 1387T258 1407Q303 1407 334 1391T385 1347T416 1285T433 1214T439 1142T440 1077Q440 1002 426 920T391 757T344 604T295
473T253 380T227 338V219Q227 157 253 118T336 78Q371 78 401 99T455 153T495 224T518 297Z" />
<glyph unicode="m" glyph-name="m" horiz-adv-x="1112" d="M1294 262Q1280 211 1258 155T1200 52T1116 -26T1001 -57Q960 -57 929 -42T875 0T841 61T829 135V551Q829 575 828 596T823 633T812 658T791 668Q770 668 740 638T682 560T632 452T606 330V31Q606 16
606 1T600 -27T583 -48T549 -57Q534 -57 517 -54T485 -41T461 -14T451 33V551Q451 575 450 596T444 633T433 658T412 668Q391 668 362 638T304 560T254 452T227 330V31Q227 16 227 1T221 -27T204 -48T170 -57Q155 -57 138 -54T106 -41T82 -14T72 33V682Q72 711
68 724T63 748Q63 763 79 772T117 782Q168 782 197 756T227 692V606Q247 648 270 684T321 746T378 788T444 803Q490 803 520 786T569 741T596 679T606 610Q625 651 648 686T698 747T755 788T821 803Q871 803 903 784T953 735T978 668T985 596V172Q985 165 986 150T992
118T1007 90T1038 78Q1069 78 1091 100T1130 155T1158 226T1176 299Q1182 331 1195 345T1225 360Q1237 360 1249 353T1272 333T1289 306T1296 276Q1296 274 1296 271T1294 262Z" />
<glyph unicode="n" glyph-name="n" horiz-adv-x="739" d="M72 682Q72 711 68 724T63 748Q63 763 79 772T117 782Q168 782 197 756T227 692V600Q248 643 272 680T325 744T386 787T457 803Q508 803 541 784T593 735T619 668T627 596V172Q627 165 628 150T634 118T649
90T680 78Q711 78 733 100T772 155T799 226T817 299Q823 331 837 345T866 360Q878 360 891 353T914 333T931 306T938 276Q938 274 938 271T936 262Q923 211 901 155T843 52T758 -26T643 -57Q602 -57 571 -42T517 0T483 61T471 135V551Q471 575 470 596T465 633T452
658T428 668Q406 668 374 638T311 560T257 452T227 330V31Q227 16 227 1T221 -27T204 -48T170 -57Q155 -57 138 -54T106 -41T82 -14T72 33V682Z" />
<glyph unicode="o" glyph-name="o" horiz-adv-x="750" d="M821 338Q823 350 834 358T861 369T892 369T921 356T939 327T938 279Q929 237 909 201T857 136T784 92T690 76Q662 76 638 79T590 90Q552 24 492 -16T344 -57Q266 -57 210 -27T117 56T63 178T45 324Q45
437 71 526T133 678T202 774T254 807Q274 807 290 790T314 749T319 701T295 664Q283 645 267 620T236 558T211 466T201 336Q201 271 212 223T244 143T291 94T348 78Q392 78 420 99T469 156Q397 218 360 313T322 520Q322 568 332 611T363 688T415 740T487 760Q523
760 555 734T611 662T648 553T662 416Q662 359 655 303T633 195Q644 191 653 191T674 190Q707 190 732 202T776 234T805 281T821 338ZM430 528Q430 459 451 397T508 289Q514 338 514 383Q514 435 513 479T506 556T491 606T465 625Q430 625 430 528Z" />
<glyph unicode="p" glyph-name="p" horiz-adv-x="739" d="M326 -78Q288 -78 264 -70T227 -47V-713Q227 -741 216 -758T189 -786T153 -799T119 -803Q88 -803 80 -787T72 -748V682Q72 704 69 717T62 737T55 749T51 760Q51 765 57 769T73 776T94 780T117 782Q166
782 195 756T227 694Q259 741 304 772T414 803Q474 803 518 775T592 699T636 584T651 442Q651 356 636 278T598 143Q649 146 682 157T737 187T776 235T811 299Q825 328 834 341T858 354Q871 354 884 346T908 326T925 301T932 276Q932 241 908 196T835 111T710 44T532
16Q490 -29 435 -53T326 -78ZM362 666Q340 666 320 653T281 618T250 563T227 494V51Q249 83 299 100T420 123Q438 150 451 187T474 265T487 343T492 410Q492 480 482 529T453 608T412 652T362 666Z" />
<glyph unicode="q" glyph-name="q" horiz-adv-x="748" d="M281 -57Q221 -57 176 -33T99 32T53 130T37 252Q37 380 78 482T187 655T342 765T524 803Q566 803 592 780T618 717Q618 691 613 681T592 670Q578 670 563 672T532 674Q474 674 414 649T306 571T226 438T195
246Q195 165 226 122T311 78Q342 78 365 96T405 142T432 203T449 268V500Q449 515 448 525T445 542T442 554T440 565Q440 581 456 590T494 600Q545 600 574 574T604 510V-55Q667 10 721 95T811 299Q820 331 832 345T860 360Q872 360 885 353T908 333T925 306T932
276Q932 274 932 268T930 256Q906 175 875 111T809 -6T735 -99T657 -174Q703 -225 740 -272T802 -368T842 -466T856 -571Q856 -632 840 -682T796 -768T731 -824T653 -844Q549 -844 499 -772T449 -573V18Q418 -14 377 -35T281 -57ZM711 -594Q711 -557 707 -520T690
-446T657 -370T604 -289V-592Q604 -628 609 -651T623 -686T640 -704T657 -709Q677 -709 694 -682T711 -594Z" />
<glyph unicode="r" glyph-name="r" horiz-adv-x="629" d="M518 -57Q482 -57 445 -46T377 -8T327 63T307 176Q307 275 333 385T410 629H254H231Q230 599 228 553T219 455T204 350T180 252Q170 220 149 215T106 222T72 259T66 309Q74 340 80 384T89 478T95 577T98
666Q60 687 35 719T10 797Q10 818 18 835T41 865T74 884T113 891Q131 891 150 886T187 868T219 834T242 782Q267 779 284 778T314 775T334 774T350 774H457Q466 774 483 763T518 735T546 697T555 659Q555 653 548 630T531 572T509 492T487 396T470 293T463 188Q463
167 468 147T483 112T508 87T545 78Q580 78 605 100T647 155T674 226T692 299Q698 331 712 345T741 360Q753 360 766 353T789 333T806 306T813 276Q813 271 812 268T811 262Q797 211 775 155T717 52T633 -26T518 -57Z" />
<glyph unicode="s" glyph-name="s" horiz-adv-x="653" d="M188 281Q180 249 158 242T115 243T79 274T70 322Q85 390 113 472T170 637Q155 660 146 683T137 733Q137 759 156 787T203 840T260 879T311 895Q348 895 366 870T385 803Q385 780 378 758T361 716T345
682T336 664Q372 600 411 551T482 454T536 352T557 225Q557 207 555 188T547 152Q583 159 610 174T658 208T692 251T715 299Q726 328 737 341T762 354Q775 354 788 346T812 324T829 297T836 272Q836 257 828 236T807 193T776 151T741 115Q693 76 628 50T467 16Q430
-16 380 -36T266 -57Q234 -57 201 -49T137 -29T81 -1T41 29Q3 65 -8 101T-14 167T8 214T41 233Q51 233 72 225T122 203T183 174T249 146T313 124T371 115Q388 135 402 168T416 240Q416 288 403 329T369 405T322 470T268 528Q244 469 226 412T188 281Z" />
<glyph unicode="t" glyph-name="t" horiz-adv-x="371" d="M-113 963Q-90 961 -62 960Q-38 958 -4 958T72 956V1303Q72 1325 69 1338T62 1358T55 1370T51 1380Q51 1386 57 1390T73 1397T94 1401T117 1403Q168 1403 197 1377T227 1313V954Q321 954 425 956T635 963Q649
978 657 974T668 955T669 918T661 876T645 840T621 825Q498 822 404 822T227 821V172Q227 122 246 100T297 78Q328 78 350 100T389 155T416 226T434 299Q440 331 454 345T483 360Q495 360 508 353T531 333T548 306T555 276Q555 274 555 271T553 262Q540 211 518
155T460 52T375 -26T260 -57Q219 -57 185 -45T125 -5T86 66T72 170V821Q38 821 12 821T-33 823Q-54 824 -70 825Q-94 825 -112 846T-138 894T-141 941T-113 963Z" />
<glyph unicode="u" glyph-name="u" horiz-adv-x="745" d="M635 -57Q600 -57 572 -46T522 -16T486 30T467 88Q430 23 380 -18T262 -59Q211 -59 171 -38T102 21T60 114T45 236Q45 317 56 399T82 547Q98 624 119 696Q124 709 126 722T138 747T166 765T227 772Q265
772 276 759T285 727T273 690T260 659Q246 602 235 555T217 461T205 362T201 246Q201 162 225 119T295 76Q326 76 352 99T400 160T438 248T463 352V682Q463 704 460 717T453 737T446 749T442 760Q442 765 448 769T464 776T485 780T508 782Q559 782 588 756T618
692V172Q618 165 619 150T625 118T641 90T672 78Q703 78 725 100T764 155T791 226T809 299Q815 331 829 345T858 360Q870 360 883 353T906 333T923 306T930 276Q930 274 930 271T928 262Q914 211 892 155T834 52T750 -26T635 -57Z" />
<glyph unicode="v" glyph-name="v" horiz-adv-x="666" d="M72 682Q72 711 68 724T63 748Q63 763 79 772T117 782Q168 782 197 756T227 692V141Q227 112 236 95T272 78Q310 78 348 103T417 177T467 296T487 455Q487 517 478 558T455 624T428 663T403 684Q395 690
385 691T375 702Q375 716 382 733T402 766T429 792T459 803Q490 803 522 773T580 692T624 579T641 449Q641 345 613 253T534 92T409 -17T246 -57Q197 -57 164 -41T110 2T81 65T72 143V682Z" />
<glyph unicode="w" glyph-name="w" horiz-adv-x="1020" d="M430 682Q430 711 426 724T422 748Q422 763 437 772T475 782Q526 782 556 756T586 692V223Q587 191 591 164T607 118T637 89T686 78Q715 78 734 89T766 121T783 167T788 223V682Q788 711 784 724T780
748Q780 763 796 772T834 782Q885 782 914 756T944 692V223Q944 175 935 126T898 36T822 -31T694 -57Q661 -57 632 -49T579 -28T537 3T508 41Q498 21 479 4T434 -27T380 -49T322 -57Q265 -57 225 -44T156 -9T112 43T86 103T75 166T72 225V682Q72 711 68 724T63
748Q63 763 79 772T117 782Q168 782 197 756T227 692V223Q227 196 230 170T244 123T275 91T328 78Q357 78 376 89T408 121T425 167T430 223V682Z" />
<glyph unicode="x" glyph-name="x" horiz-adv-x="834" d="M180 252Q170 220 149 215T106 222T72 259T66 309Q71 328 77 357T89 422T100 496T109 572T116 644T119 705Q119 759 147 781T240 803Q252 803 266 801T296 792T324 775T348 748Q385 688 418 625T489 479Q542
560 582 630T649 750Q663 777 676 791T707 805Q722 805 737 795T765 769T785 735T793 698Q793 678 784 668L553 338Q582 276 607 226T658 142T708 89T762 70Q793 70 815 93T853 150T879 225T897 299Q903 331 917 345T946 360Q958 360 971 353T994 333T1011 306T1018
276Q1018 274 1018 271T1016 262Q1003 211 982 155T929 52T851 -26T743 -57Q697 -57 659 -44T587 0T522 80T457 199L319 4Q298 -30 277 -43T227 -57Q209 -57 191 -52T157 -38T131 -17T121 10Q121 20 125 25T140 37T167 58T209 100Q257 156 303 216T393 338Q361
412 326 481T248 623Q246 589 240 541T225 440T204 339T180 252Z" />
<glyph unicode="y" glyph-name="y" horiz-adv-x="735" d="M799 299Q808 331 820 345T848 360Q860 360 873 353T896 333T913 306T920 276Q920 274 920 268T918 256Q892 167 858 99T784 -24T702 -120T618 -199V-553Q618 -634 600 -689T551 -779T483 -829T406 -844Q363
-844 327 -826T265 -775T224 -700T209 -608Q209 -530 229 -470T285 -360T366 -267T463 -178V82Q426 20 377 -19T262 -59Q211 -59 171 -38T102 21T60 114T45 236Q45 317 56 399T82 547Q98 624 119 696Q124 709 126 722T138 747T166 765T227 772Q265 772 276 759T285
727T273 690T260 659Q246 602 235 555T217 461T205 362T201 246Q201 162 225 119T295 76Q326 76 352 99T400 160T438 248T463 352V682Q463 711 459 724T455 748Q455 763 470 772T508 782Q559 782 588 756T618 692V-27Q674 35 721 114T799 299ZM406 -715Q430 -715
442 -695T458 -649T463 -595T463 -553V-334Q413 -384 383 -447T352 -602Q352 -650 366 -682T406 -715Z" />
<glyph unicode="z" glyph-name="z" horiz-adv-x="737" d="M211 -608Q211 -528 233 -467T292 -354T377 -258T477 -166Q469 -123 454 -84T414 -14T356 33T274 51L246 164Q300 179 353 210T448 289T516 398T543 537Q543 563 536 586T515 628T478 657T426 668Q388
668 356 651T296 590T240 468T184 272Q177 243 165 232T140 223T113 236T89 263T73 296T70 326Q89 426 113 513T178 665T277 766T426 803Q490 803 541 781T626 721T679 631T698 520Q698 455 678 398T622 293T539 208T436 145Q495 113 536 69T604 -43Q664 20 716
102T801 299Q810 331 822 345T850 360Q862 360 875 353T898 333T915 306T922 276Q922 274 922 268T920 256Q894 172 862 106T793 -12T717 -106T637 -182Q649 -266 649 -379Q649 -460 638 -542T598 -692T524 -801T408 -844Q365 -844 329 -826T267 -775T226 -700T211
-608ZM494 -408Q494 -386 494 -361T492 -307Q462 -335 437 -365T393 -430T365 -507T354 -602Q354 -650 368 -682T408 -715Q427 -715 441 -700T464 -660T480 -603T489 -537T493 -469T494 -408Z" />
<glyph unicode="{" glyph-name="braceleft" horiz-adv-x="604" d="M467 -301Q423 -301 368 -287T265 -237T183 -141T150 12Q150 65 164 118T195 221T226 319T240 410Q240 460 227 488T193 532T149 554T105 570T71 593T57 637Q57 668 70 682T104 705T148 721T192
743T226 786T240 866Q240 916 226 964T194 1062T162 1163T147 1270Q147 1367 179 1431T258 1533T361 1586T463 1602Q485 1602 499 1593T522 1570T534 1539T537 1505Q536 1489 532 1475T521 1451T505 1440T487 1446Q448 1446 415 1436T357 1404T319 1349T305 1268Q305
1215 319 1166T350 1068T381 969T395 866Q395 824 383 789T350 726T304 676T250 639Q278 630 304 610T351 560T383 492T395 410Q395 360 381 314T351 222T321 124T307 12Q307 -65 357 -103T492 -141Q513 -137 526 -160T539 -215Q539 -231 535 -246T522 -274T500
-293T467 -301Z" />
<glyph unicode="|" glyph-name="bar" horiz-adv-x="512" d="M178 1487Q178 1492 173 1498T168 1513Q168 1519 175 1523T193 1531T219 1535T248 1536Q263 1536 278 1534T305 1525T324 1510T332 1485V-475Q332 -495 312 -503T270 -512Q255 -512 239 -509T210 -498T187
-480T178 -453V1487Z" />
<glyph unicode="}" glyph-name="braceright" horiz-adv-x="604" d="M137 1599Q181 1599 236 1585T340 1535T422 1439T455 1286Q455 1233 441 1181T410 1078T379 980T365 889Q365 838 378 810T412 767T456 744T500 728T533 706T547 662Q547 631 534 617T500 594T456
578T412 556T379 512T365 432Q365 382 379 334T411 236T442 135T457 29Q457 -69 425 -133T346 -234T243 -287T141 -303Q119 -303 105 -295T82 -272T70 -241T68 -207Q69 -191 73 -177T84 -153T99 -142T117 -147Q156 -147 189 -137T247 -105T285 -50T299 31Q299 83
285 132T254 231T223 329T209 432Q209 474 221 509T254 573T300 623T354 659Q326 668 300 688T254 738T221 806T209 889Q209 939 222 984T252 1076T283 1174T297 1286Q297 1364 248 1402T113 1440Q102 1438 94 1443T79 1459T70 1484T66 1513Q66 1529 70 1544T82
1572T104 1591T137 1599Z" />
<glyph unicode="~" glyph-name="asciitilde" horiz-adv-x="819" d="M223 555Q223 522 180 522Q165 522 149 526T121 536T100 552T92 571Q92 607 105 647T144 720T203 775T279 797Q323 797 357 775T421 725T476 676T530 653Q542 653 553 660T572 679T585 707T590
741Q590 769 605 780T643 791Q658 791 673 787T700 777T719 763T727 748Q727 688 708 644T660 569T597 525T532 510Q487 510 451 532T385 581T334 630T297 653Q279 653 267 644T245 620T231 588T223 555Z" />
<glyph unicode="&#xa0;" glyph-name="nbspace" horiz-adv-x="451" />
<glyph unicode="&#xa1;" glyph-name="exclamdown" horiz-adv-x="655" d="M348 711Q306 711 277 739T248 809Q248 828 256 845T277 876T309 897T348 905Q368 905 385 897T416 876T438 846T446 809Q446 788 438 771T417 740T386 719T348 711ZM268 551Q268 591 287
609T332 627Q348 627 365 620T395 601T417 571T426 532V-477Q426 -492 429 -502T435 -521T441 -536T444 -549Q444 -560 430 -566T383 -573Q362 -573 342 -569T305 -556T278 -532T268 -492V551Z" />
<glyph unicode="&#xa2;" glyph-name="cent" horiz-adv-x="735" d="M346 260Q291 273 242 303T157 381T99 493T78 637Q78 712 97 785T151 921T235 1029T346 1096V1278Q346 1283 341 1290T336 1305Q336 1327 395 1327Q424 1327 441 1316T459 1276V1108Q507 1103
541 1081T597 1029T629 967T639 909Q639 889 629 874T603 847T570 830T538 825T516 835T510 862Q506 872 503 885T495 913T481 939T459 961V385Q485 387 510 395T549 414Q571 433 591 436T628 432T655 409T668 376T664 338T637 305Q602 280 558 266T459 250V53Q459
16 418 16Q389 16 368 30T346 76V260ZM238 637Q238 550 266 493T346 408V948Q321 930 301 899T267 827T246 738T238 637Z" />
<glyph unicode="&#xa3;" glyph-name="sterling" horiz-adv-x="971" d="M444 475Q461 416 473 361T485 254Q485 239 483 220T476 181T464 141T449 106Q503 86 547 74T645 61Q696 61 726 79T771 128T792 196T797 272Q797 286 795 294T793 309Q793 324 817 324Q871
324 900 301T930 238Q930 178 913 122T861 21T776 -49T659 -76Q624 -76 587 -70T512 -53T438 -30T371 -6Q343 -29 298 -43T213 -57Q123 -57 72 -25T20 68Q20 103 35 125T74 160T130 177T195 180T259 170T317 152Q327 172 332 194T338 238Q338 299 323 357T287 475H127Q111
475 100 483T81 504T71 533T68 565Q68 582 75 594T98 606H238Q212 678 193 759T174 940Q174 1032 202 1121T283 1279T414 1391T590 1434Q651 1434 700 1412T785 1350T840 1258T860 1145Q860 1110 852 1068T828 990T789 930T735 905Q703 905 677 918T637 946T622
973T643 985Q661 984 674 1000T694 1038T705 1085T709 1128Q709 1158 699 1185T671 1232T626 1264T569 1276Q521 1276 479 1253T405 1183T356 1069T338 913Q338 839 357 762T401 606H664Q680 618 688 613T697 593T696 558T685 520T667 488T645 475H444Z" />
<glyph unicode="&#xa4;" glyph-name="currency" horiz-adv-x="979" d="M197 520Q171 562 157 609T143 711Q143 762 156 808T195 895L98 993Q93 998 87 1001T74 1008T64 1015T59 1024Q59 1036 68 1052T93 1083T126 1108T160 1118Q168 1118 174 1116T186 1108L295
999Q335 1027 384 1042T487 1057Q541 1057 589 1042T680 1001L782 1104Q792 1116 799 1118T813 1120Q823 1120 835 1112T857 1091T874 1059T881 1022Q881 1013 878 1005T870 991L780 901Q806 859 821 811T836 711Q836 655 821 607T778 516L885 410Q891 404 891
393Q891 380 882 363T860 329T832 302T805 291Q799 291 793 297L674 416Q634 391 587 378T487 365Q435 365 387 379T299 420L180 301Q174 295 162 295Q150 295 136 303T110 324T90 353T82 387Q82 406 96 420L197 520ZM274 709Q274 665 291 627T337 559T404 513T487
496Q531 496 570 513T640 559T687 626T705 709Q705 752 688 791T640 861T571 908T487 926Q443 926 405 909T337 861T291 792T274 709Z" />
<glyph unicode="&#xa5;" glyph-name="yen" horiz-adv-x="1356" d="M1157 -190Q1155 -251 1150 -314T1133 -436T1099 -548T1045 -640T966 -702T856 -725Q804 -725 762 -707T689 -656T643 -579T627 -483Q627 -405 656 -343T743 -238Q755 -229 770 -229Q787 -229
803 -240T833 -268T854 -303T862 -334Q862 -342 859 -347T846 -352Q844 -352 842 -351T838 -350Q786 -405 786 -479Q786 -526 807 -546T860 -567Q899 -567 924 -535T965 -449T988 -329T997 -190H846Q830 -190 819 -182T800 -161T790 -132T786 -100Q786 -83 794
-71T817 -59H999V35H846Q830 35 819 43T800 64T790 93T786 125Q786 142 794 154T817 166H999V442Q967 389 931 343T856 263T774 208T688 188Q667 188 643 197T597 226T563 281T549 367V1274Q480 1265 419 1235T312 1153T240 1027T213 856Q213 794 226 745T257 661T293
607T322 588Q331 588 338 592T354 596Q371 596 371 571Q371 539 357 510T320 462T271 438T223 449Q196 467 166 504T111 593T68 712T51 856Q51 964 77 1049T146 1199T248 1308T370 1381T500 1421T627 1434Q643 1434 658 1428T684 1410T702 1382T709 1348V379Q709
359 715 355T727 350Q742 350 768 371T824 428T886 510T942 607T983 707T999 801V1333Q999 1362 995 1375T991 1399Q991 1414 1007 1424T1044 1434Q1095 1434 1127 1408T1159 1343V166H1280Q1296 178 1304 173T1314 153T1313 118T1302 80T1284 48T1262 35H1159V-10V-59H1280Q1296
-47 1304 -52T1314 -72T1313 -107T1302 -145T1284 -177T1262 -190H1157Z" />
<glyph unicode="&#xa6;" glyph-name="brokenbar" horiz-adv-x="512" d="M178 1405Q178 1410 173 1417T168 1432Q168 1438 175 1442T193 1449T219 1453T248 1454Q263 1454 278 1452T305 1443T324 1428T332 1403V698Q332 678 312 670T270 662Q255 662 239 665T210
676T187 694T178 721V1405ZM178 313Q178 318 173 325T168 340Q168 346 175 350T193 357T219 361T248 362Q263 362 278 360T305 351T324 336T332 311V-393Q332 -413 312 -421T270 -430Q255 -430 239 -427T210 -416T187 -398T178 -371V313Z" />
<glyph unicode="&#xa7;" glyph-name="section" horiz-adv-x="717" d="M188 184Q214 184 236 168T266 129Q270 117 269 109T263 94T253 85T242 82Q229 82 220 76T206 58T198 33T195 4Q195 -42 229 -66T317 -90Q348 -90 383 -76T447 -34T495 36T514 133Q514 170
499 199T460 253T404 298T338 340Q300 363 263 387T197 440T150 508T131 598Q131 631 141 661T169 718T213 766T270 801Q235 823 203 849T146 909T107 985T92 1083Q92 1147 118 1211T192 1327T304 1410T446 1442Q491 1442 529 1428T597 1387T642 1325T659 1243Q659
1202 648 1163T617 1094T573 1045T522 1026Q497 1026 476 1042T446 1081Q442 1093 443 1101T449 1116T458 1125T469 1128Q482 1128 491 1137T507 1159T517 1189T520 1219Q520 1256 495 1278T432 1300Q397 1300 362 1284T300 1238T255 1169T238 1083Q238 1046 253
1017T294 963T351 917T416 877Q453 854 490 830T557 776T604 707T623 618Q623 550 584 497T483 416Q519 393 551 367T608 307T647 231T662 133Q662 60 635 -6T560 -122T447 -201T305 -231Q250 -231 204 -215T124 -169T72 -98T53 -8Q53 32 64 67T95 128T138 169T188
184ZM485 612Q485 628 480 641T465 668Q451 679 430 688T375 698Q316 698 292 671T268 604Q268 589 275 572T291 543Q303 532 325 525T379 518Q437 518 461 545T485 612Z" />
<glyph unicode="&#xa8;" glyph-name="dieresis" horiz-adv-x="819" d="M166 1042Q166 1083 194 1111T262 1139Q302 1139 330 1111T358 1042Q358 1002 330 974T262 946Q222 946 194 974T166 1042ZM461 1042Q461 1083 489 1111T557 1139Q597 1139 625 1111T653 1042Q653
1002 625 974T557 946Q517 946 489 974T461 1042Z" />
<glyph unicode="&#xa9;" glyph-name="copyright" horiz-adv-x="1696" d="M817 811Q850 811 887 827T955 868T1007 925T1028 987Q1028 1015 1010 1038T942 1061Q889 1061 840 1042T750 991T674 915T616 822T578 722T565 621Q565 565 578 514T622 422T700 358T819
334Q872 334 914 345T986 369T1032 393T1049 406Q1064 424 1087 424Q1098 424 1109 418T1129 401T1143 377T1149 350Q1149 341 1147 332T1139 319Q1138 317 1115 300T1050 262T947 224T811 207Q722 207 652 236T533 319T458 449T432 621Q432 692 449 761T499 893T577
1010T681 1103T807 1164T952 1186Q997 1186 1035 1173T1100 1134T1143 1074T1159 993Q1159 932 1127 878T1045 783T932 718T809 694Q781 694 760 711T739 768Q739 787 746 806T768 825Q777 825 779 823T786 819Q791 816 797 814T817 811ZM102 686Q102 789 128 884T203
1062T320 1213T471 1330T649 1405T848 1432Q951 1432 1046 1406T1224 1331T1375 1214T1491 1063T1566 885T1593 686Q1593 583 1567 488T1492 310T1375 159T1224 43T1046 -32T848 -59Q745 -59 650 -33T472 42T321 159T204 310T129 488T102 686ZM236 686Q236 559
284 448T415 253T609 122T848 74Q975 74 1086 122T1281 253T1412 447T1460 686Q1460 813 1412 924T1281 1119T1087 1250T848 1298Q721 1298 610 1250T415 1119T284 925T236 686Z" />
<glyph unicode="&#xaa;" glyph-name="ordfeminine" horiz-adv-x="623" d="M233 784Q185 784 149 802T89 852T53 927T41 1020Q41 1117 72 1194T156 1326T276 1409T416 1438Q450 1438 472 1419T494 1368Q494 1348 488 1339T467 1329Q456 1329 445 1331T422 1333Q380
1333 336 1315T257 1257T199 1158T176 1016Q176 957 197 925T256 893Q284 893 302 916T334 971V1186Q334 1198 333 1204T331 1214T329 1223T328 1235Q328 1247 342 1256T375 1266Q417 1266 442 1245T467 1194V961Q467 936 477 915T510 893Q519 893 528 895T543
905Q546 911 548 913T559 915Q566 915 573 909T587 894T598 874T602 850Q602 832 591 820T561 799T522 788T483 784Q445 784 414 799T362 840Q339 815 307 800T233 784ZM510 700Q536 704 545 689T555 647Q555 618 541 598T502 578Q500 578 498 578T492 580H125Q97
580 85 592T72 627Q72 669 91 684T145 700H510Z" />
<glyph unicode="&#xab;" glyph-name="guillemotleft" horiz-adv-x="1090" d="M440 813Q450 822 459 832T485 842Q493 842 502 834T519 811T532 780T537 745Q537 731 532 716T514 688L299 496L514 305Q525 294 530 284T535 254Q535 237 529 221T514 191T494 170T471
162Q460 162 457 166T451 172L186 412Q159 430 151 457T143 510Q143 532 151 547T188 575L440 813ZM809 813Q818 822 827 832T854 842Q861 842 870 834T887 811T900 780T905 745Q905 731 900 716T883 688L668 496L883 305Q894 294 898 284T903 254Q903 237 897
221T882 191T862 170T840 162Q829 162 825 166T819 172L555 412Q527 430 520 457T512 510Q512 532 520 547T557 575L809 813Z" />
<glyph unicode="&#xac;" glyph-name="logicalnot" horiz-adv-x="819" d="M657 860Q685 860 696 852T707 831Q707 817 705 808T702 776V461Q704 456 704 452T705 444Q705 426 687 417T643 408Q628 408 613 411T586 419T567 431T559 446V717H115Q99 717 91 734T82
774Q82 788 85 803T96 831T113 852T139 860H657Z" />
<glyph unicode="&#xad;" glyph-name="uni00AD" horiz-adv-x="717" d="M569 621Q580 621 585 626T596 631Q607 631 611 618T616 588Q616 572 612 550T599 507T579 472T553 457H131Q116 457 107 474T98 514Q98 528 101 546T112 581T130 609T156 621H569Z" />
<glyph unicode="&#xae;" glyph-name="registered" horiz-adv-x="1229" d="M102 926Q102 1032 142 1125T252 1287T415 1397T614 1438Q720 1438 813 1398T976 1288T1086 1125T1126 926Q1126 820 1086 727T977 564T814 454T614 414Q508 414 415 454T253 563T143 726T102
926ZM225 926Q225 845 255 775T339 651T462 568T614 537Q695 537 766 567T890 651T973 774T1004 926Q1004 1007 974 1077T890 1201T766 1284T614 1315Q533 1315 463 1285T339 1201T256 1078T225 926ZM440 1018Q440 1024 439 1030T438 1042Q438 1056 450 1063T483
1071Q512 1071 531 1059T551 1022V909Q582 912 614 922T674 949T718 989T735 1040Q735 1055 728 1070T705 1099T663 1121T598 1130Q547 1130 509 1121T451 1098Q440 1065 408 1065Q398 1065 387 1070T367 1084T352 1104T346 1126Q346 1153 372 1174T438 1211T520
1235T596 1243Q654 1243 702 1229T783 1190T835 1129T854 1053Q854 1016 840 984T801 926T742 879T666 844Q711 809 729 778Q746 751 760 735T785 711T804 700T819 698Q825 698 830 695T836 680Q836 670 828 658T810 634T788 616T770 608Q750 608 731 621T695 653T664
693T641 731Q629 754 612 774T551 805V666Q551 641 545 632T518 623Q508 623 495 625T469 634T449 649T440 670V1018Z" />
<glyph unicode="&#xaf;" glyph-name="overscore" horiz-adv-x="819" d="M600 1094Q626 1097 635 1082T645 1040Q645 1025 642 1010T631 983T614 964T592 956Q590 956 588 956T582 958H227Q199 958 187 971T174 1006Q174 1048 193 1071T248 1094H600Z" />
<glyph unicode="&#xb0;" glyph-name="degree" horiz-adv-x="543" d="M102 1264Q102 1299 115 1330T151 1384T204 1420T270 1434Q306 1434 337 1421T391 1384T427 1330T440 1264Q440 1229 427 1199T391 1145T337 1109T270 1096Q235 1096 205 1109T152 1145T116
1198T102 1264ZM201 1264Q201 1233 220 1214T270 1194Q301 1194 321 1213T342 1264Q342 1295 322 1315T270 1335Q239 1335 220 1315T201 1264Z" />
<glyph unicode="&#xb1;" glyph-name="plusminus" horiz-adv-x="819" d="M338 717V930Q338 941 334 944T330 954Q330 969 383 969Q397 969 414 968T446 963T471 952T481 934V717H694Q705 717 710 722T721 727Q732 727 736 714T741 684Q741 668 737 649T724 613T704
585T678 573H481V358Q481 348 471 340T445 326T411 319T376 318T349 326T338 344V573H113Q97 573 89 590T80 631Q80 645 83 660T94 688T111 709T137 717H338ZM674 205Q685 205 690 210T700 215Q711 215 716 202T721 172Q721 156 716 137T703 101T683 73T657 61H133Q118
61 109 78T100 119Q100 133 103 148T114 176T132 197T158 205H674Z" />
<glyph unicode="&#xb2;" glyph-name="twosuperior" horiz-adv-x="588" d="M457 690Q475 690 481 698T496 707Q499 707 502 702T509 688T514 671T516 653Q516 622 501 598T453 573H152Q129 573 111 588T92 627Q92 636 98 647T111 666Q115 670 137 692T190 751T256
835T320 940T369 1057T389 1182Q389 1227 379 1255T353 1298T320 1318T289 1323Q269 1323 250 1316T217 1293T193 1250T184 1182Q184 1155 188 1132T199 1091T213 1063T225 1051Q235 1056 240 1054T244 1038Q242 1012 223 995T176 977Q148 977 125 996T86 1046T60
1112T51 1182Q51 1247 72 1294T128 1373T205 1419T291 1434Q349 1434 393 1412T466 1353T511 1271T526 1178Q526 1104 501 1034T440 900T361 784T283 690H457Z" />
<glyph unicode="&#xb3;" glyph-name="threesuperior" horiz-adv-x="573" d="M41 1190Q41 1253 62 1299T118 1375T195 1419T281 1434Q340 1434 383 1410T455 1348T498 1263T512 1167Q512 1113 502 1071T472 996T428 940T375 897Q393 886 412 872T447 837T473 791T483
731Q483 693 467 661T424 604T360 567T283 553Q238 553 203 569T142 611T104 665T90 719Q90 729 99 736T121 748T151 755T180 758Q200 758 209 754T219 729Q219 726 221 716T231 694T252 673T287 664Q311 664 330 681T350 731Q350 765 339 786T311 821T276 840T244
848Q224 851 212 865T199 907Q199 927 212 934T244 942Q268 942 292 958T335 1003T367 1075T379 1171Q379 1213 371 1242T348 1289T315 1315T274 1323Q254 1323 236 1316T204 1292T182 1250T174 1188Q174 1162 178 1141T189 1104T203 1080T217 1071Q223 1071 231
1072T240 1061Q240 1052 235 1041T219 1021T196 1004T166 997Q139 997 116 1015T77 1061T51 1123T41 1190Z" />
<glyph unicode="&#xb4;" glyph-name="acute" horiz-adv-x="819" d="M379 942Q366 922 347 914T311 905Q269 905 250 920T231 952Q231 960 236 967T248 983L434 1198Q437 1215 458 1226T502 1237Q517 1237 532 1233T559 1220T578 1202T586 1178Q586 1164 578 1155T561
1137L379 942Z" />
<glyph unicode="&#xb5;" glyph-name="mu" horiz-adv-x="745" d="M236 246Q236 204 245 173T271 120T307 87T350 76Q384 76 408 97T450 155T479 238T498 336V682Q498 704 495 717T488 737T481 749T477 760Q477 765 483 769T499 776T520 780T543 782Q594 782 623
756T653 692V172Q653 165 654 150T660 118T676 90T707 78Q724 78 736 89T762 113Q772 123 782 123Q798 123 808 106T819 59Q819 39 815 22T799 -8Q779 -31 746 -44T670 -57Q613 -57 573 -28T514 47Q485 1 447 -28T358 -57Q315 -57 286 -37T236 20V-324Q236 -352
225 -369T197 -397T161 -410T127 -414Q96 -414 88 -398T80 -358V682Q80 704 77 717T70 737T63 749T59 760Q59 765 65 769T81 776T102 780T125 782Q176 782 206 756T236 692V246Z" />
<glyph unicode="&#xb6;" glyph-name="paragraph" horiz-adv-x="1180" d="M596 252Q564 255 532 261T469 279Q394 304 332 346T221 444T141 570T94 721Q78 817 83 896T108 1038T154 1150T211 1233Q251 1281 300 1318T407 1381T525 1420T651 1434Q739 1434 804 1422T912
1395T978 1366T1006 1348Q1020 1337 1028 1321T1036 1284V-10Q1036 -36 1019 -46T979 -57Q961 -57 944 -52T912 -39T890 -21T881 2V289Q818 263 754 254V-10Q754 -36 737 -46T696 -57Q678 -57 661 -53T629 -40T605 -22T596 0V252ZM516 426Q554 414 596 408V1272Q518
1263 448 1227T330 1133Q270 1060 249 963T250 748Q264 668 295 612T365 518T444 459T516 426ZM881 1239Q861 1247 830 1255T754 1270V414Q789 422 822 434T881 465V1239Z" />
<glyph unicode="&#xb7;" glyph-name="middot" horiz-adv-x="553" d="M291 741Q333 741 362 713T391 643Q391 624 383 607T362 576T330 555T291 547Q271 547 254 555T223 576T201 606T193 643Q193 664 201 681T222 712T253 733T291 741Z" />
<glyph unicode="&#xb8;" glyph-name="cedilla" horiz-adv-x="819" d="M438 -106Q492 -115 524 -136T575 -184T598 -237T604 -285Q604 -312 593 -346T555 -409T487 -459T383 -479Q295 -479 259 -459T223 -391Q223 -384 225 -374T230 -356T239 -343T252 -342Q274
-353 305 -356T360 -360Q414 -360 446 -337T479 -272Q479 -247 467 -236T436 -220T396 -215T356 -210T326 -195T313 -160Q313 -151 318 -128T332 -82Q341 -55 352 -23Q355 5 374 18T416 31Q437 31 448 26T464 12T468 -11T461 -43L438 -106Z" />
<glyph unicode="&#xb9;" glyph-name="onesuperior" horiz-adv-x="444" d="M188 1233Q161 1193 141 1180T106 1167Q92 1167 81 1174T60 1191T46 1214T41 1235Q41 1243 43 1246T50 1252T60 1256T72 1264Q82 1273 103 1296T146 1346Q172 1376 201 1411Q204 1434 238
1434Q273 1434 297 1417T322 1378V600Q322 580 305 573T268 565Q254 565 240 568T215 578T196 591T188 606V1233Z" />
<glyph unicode="&#xba;" glyph-name="ordmasculine" horiz-adv-x="651" d="M555 983Q564 989 578 989Q588 989 598 983T615 968T626 948T631 926Q631 911 622 902T598 889T567 884T535 883Q515 883 498 885T463 891Q434 841 389 812T274 782Q214 782 170 805T98
868T55 960T41 1071Q41 1157 61 1225T110 1340T165 1413T207 1438Q219 1438 229 1432T247 1415T259 1391T264 1366Q264 1355 258 1344T240 1317Q230 1304 219 1286T197 1240T181 1174T174 1081Q174 986 204 939T276 891Q305 891 325 905T360 944Q306 992 278 1063T250
1219Q250 1256 258 1289T282 1348T323 1388T381 1403Q410 1403 435 1384T479 1329T509 1246T520 1141Q520 1099 516 1058T500 979Q506 977 511 977T522 977Q532 977 540 977T555 983ZM346 1225Q346 1178 357 1138T391 1065Q393 1077 393 1090T393 1116Q393 1155
392 1187T388 1243T380 1280T365 1294Q346 1294 346 1225ZM489 700Q515 704 525 689T535 647Q535 618 521 598T481 578Q479 578 477 578T471 580H115Q87 580 74 592T61 627Q61 669 80 684T135 700H489Z" />
<glyph unicode="&#xbb;" glyph-name="guillemotright" horiz-adv-x="1090" d="M649 190Q640 181 631 172T604 162Q596 162 588 170T571 193T558 224T553 258Q553 272 558 287T575 315L791 508L575 698Q564 709 560 719T555 750Q555 767 561 783T576 813T596 834T618
842Q629 842 633 838T639 831L903 592Q931 573 938 547T946 494Q946 472 938 456T901 428L649 190ZM281 190Q271 181 262 172T236 162Q228 162 219 170T202 193T189 224T184 258Q184 272 189 287T207 315L422 508L207 698Q196 709 191 719T186 750Q186 767 192
783T207 813T227 834T250 842Q261 842 264 838T270 831L535 592Q562 573 570 547T578 494Q578 472 570 456T532 428L281 190Z" />
<glyph unicode="&#xbc;" glyph-name="onequarter" horiz-adv-x="1253" d="M1092 209V6Q1092 -4 1087 -10T1073 -21T1054 -27T1034 -29Q1020 -29 1007 -26T982 -16T965 -3T958 12V211H926Q842 211 793 209T721 207Q707 207 695 214T672 233T657 255T651 274Q651
285 655 290T670 307Q696 369 711 432T733 553T743 656T745 731Q745 740 741 754T737 774Q737 787 754 792T793 797Q805 797 819 794T847 782T868 758T877 719Q877 684 874 635T862 531T840 421T809 319Q841 321 877 321T946 322H958V774Q958 785 956 791T952 802T948
810T946 819Q946 830 963 835T999 840Q1038 840 1065 822T1092 778V322Q1101 324 1109 324T1124 326Q1126 331 1132 333T1145 336Q1162 336 1166 322T1171 293Q1171 278 1168 263T1157 236T1138 217T1110 209H1092ZM858 1389Q860 1392 859 1399T858 1409Q858 1418
865 1420T881 1423Q893 1423 909 1418T940 1403T965 1380T975 1350Q975 1345 975 1340T971 1327L233 14Q228 6 222 3T207 0Q195 0 181 4T155 17T135 37T127 66Q127 71 128 79T135 94L858 1389ZM188 1233Q161 1193 141 1180T106 1167Q92 1167 81 1174T60 1191T46
1214T41 1235Q41 1243 43 1246T50 1252T60 1256T72 1264Q82 1273 103 1296T146 1346Q172 1376 201 1411Q204 1434 238 1434Q273 1434 297 1417T322 1378V600Q322 580 305 573T268 565Q254 565 240 568T215 578T196 591T188 606V1233Z" />
<glyph unicode="&#xbd;" glyph-name="onehalf" horiz-adv-x="1241" d="M858 1389Q860 1392 859 1399T858 1409Q858 1418 865 1420T881 1423Q893 1423 909 1418T940 1403T965 1380T975 1350Q975 1345 975 1340T971 1327L233 14Q228 6 222 3T207 0Q195 0 181 4T155
17T135 37T127 66Q127 71 128 79T135 94L858 1389ZM188 1233Q161 1193 141 1180T106 1167Q92 1167 81 1174T60 1191T46 1214T41 1235Q41 1243 43 1246T50 1252T60 1256T72 1264Q82 1273 103 1296T146 1346Q172 1376 201 1411Q204 1434 238 1434Q273 1434 297 1417T322
1378V600Q322 580 305 573T268 565Q254 565 240 568T215 578T196 591T188 606V1233ZM1090 96Q1099 96 1104 98T1114 104T1121 110T1128 113Q1131 113 1135 108T1142 94T1147 77T1149 59Q1149 28 1133 4T1085 -20H784Q761 -20 743 -5T725 33Q725 42 731 53T743 72Q747
76 769 98T823 157T889 241T953 346T1002 463T1022 588Q1022 633 1011 661T985 704T952 724T922 729Q902 729 883 722T850 699T826 656T817 588Q817 561 821 538T832 497T846 469T858 457Q867 462 873 460T877 444Q875 418 856 401T809 383Q781 383 758 402T719
452T693 518T684 588Q684 653 705 700T761 779T838 825T924 840Q982 840 1026 818T1099 759T1144 677T1159 584Q1159 510 1134 440T1073 306T994 190T915 96H1090Z" />
<glyph unicode="&#xbe;" glyph-name="threequarters" horiz-adv-x="1368" d="M1206 209V6Q1206 -4 1201 -10T1187 -21T1169 -27T1149 -29Q1135 -29 1122 -26T1097 -16T1080 -3T1073 12V211H1040Q957 211 907 209T836 207Q822 207 810 214T787 233T772 255T766
274Q766 285 770 290T784 307Q810 369 825 432T848 553T858 656T860 731Q860 740 856 754T852 774Q852 787 869 792T907 797Q919 797 934 794T961 782T982 758T991 719Q991 684 988 635T976 531T955 421T924 319Q956 321 992 321T1061 322H1073V774Q1073 785 1071
791T1067 802T1063 810T1061 819Q1061 830 1078 835T1114 840Q1133 840 1150 835T1179 822T1199 802T1206 778V322Q1216 324 1224 324T1239 326Q1241 331 1247 333T1260 336Q1277 336 1281 322T1286 293Q1286 278 1283 263T1272 236T1253 217T1225 209H1206ZM41
1190Q41 1253 62 1299T118 1375T195 1419T281 1434Q340 1434 383 1410T455 1348T498 1263T512 1167Q512 1113 502 1071T472 996T428 940T375 897Q393 886 412 872T447 837T473 791T483 731Q483 693 467 661T424 604T360 567T283 553Q238 553 203 569T142 611T104
665T90 719Q90 729 99 736T121 748T151 755T180 758Q200 758 209 754T219 729Q219 726 221 716T231 694T252 673T287 664Q311 664 330 681T350 731Q350 765 339 786T311 821T276 840T244 848Q224 851 212 865T199 907Q199 927 212 934T244 942Q268 942 292 958T335
1003T367 1075T379 1171Q379 1213 371 1242T348 1289T315 1315T274 1323Q254 1323 236 1316T204 1292T182 1250T174 1188Q174 1162 178 1141T189 1104T203 1080T217 1071Q223 1071 231 1072T240 1061Q240 1052 235 1041T219 1021T196 1004T166 997Q139 997 116
1015T77 1061T51 1123T41 1190ZM973 1389Q975 1392 974 1399T973 1409Q973 1418 980 1420T995 1423Q1007 1423 1023 1418T1055 1403T1080 1380T1090 1350Q1090 1345 1090 1340T1085 1327L348 14Q343 6 337 3T322 0Q310 0 296 4T270 17T250 37T242 66Q242 71 243
79T250 94L973 1389Z" />
<glyph unicode="&#xbf;" glyph-name="questiondown" horiz-adv-x="885" d="M461 711Q419 711 391 739T362 809Q362 828 369 845T390 876T422 897T461 905Q482 905 500 897T531 876T553 846T561 809Q561 767 532 739T461 711ZM383 575Q383 598 394 610T423 626T461
626T498 611T527 584T539 547Q539 522 539 492T537 442Q533 408 523 388T492 348Q466 326 426 288T347 191T282 52T254 -137Q254 -202 264 -248T290 -327T328 -379T371 -408T413 -422T449 -426Q485 -426 520 -413T582 -370T626 -292T643 -174Q643 -141 638 -106T623
-41T600 8T571 27Q565 27 561 25T553 23Q544 23 540 28T535 41Q535 53 543 69T567 99T604 123T649 133Q682 133 709 104T757 30T788 -69T799 -174Q799 -278 769 -353T690 -477T578 -549T449 -573Q366 -573 301 -541T190 -450T122 -312T98 -135Q98 -27 122 56T183
205T267 322T358 416Q375 433 379 453T383 496V575Z" />
<glyph unicode="&#xc0;" glyph-name="Agrave" horiz-adv-x="1016" d="M492 788Q454 788 428 814T401 891Q401 902 402 913T407 934T414 950T424 956Q429 956 433 953T445 946T466 939T502 936Q557 936 615 953T720 1003T798 1082T829 1186Q829 1207 822 1227T801
1262T766 1288T715 1298Q635 1298 569 1263T448 1169T354 1031T286 867T245 691T231 522Q231 426 243 345T282 204T354 112T465 78Q525 78 571 108T651 191T710 312T753 461T784 624T807 788Q810 808 836 818T891 829Q903 829 916 826T938 817T952 801T954 776Q946
736 937 650T928 442Q928 341 929 268T934 142T940 54T946 -6Q952 -15 952 -20Q952 -30 942 -39T917 -55T884 -66T848 -70Q821 -70 807 -59T787 -23T778 45T774 150Q751 101 717 59T641 -14T550 -64T446 -82Q362 -82 293 -50T173 53T96 238T68 518Q68 631 89 744T151
962T250 1156T382 1312T541 1416T725 1454Q788 1454 837 1434T921 1379T973 1296T991 1194Q991 1105 948 1031T835 902T675 818T492 788ZM477 1768Q461 1787 461 1802Q461 1817 470 1829T493 1849T520 1863T544 1868Q566 1868 579 1857T604 1829L790 1614Q796 1606
801 1599T807 1583Q807 1566 782 1551T714 1536Q697 1536 686 1542T669 1557L477 1768Z" />
<glyph unicode="&#xc1;" glyph-name="Aacute" horiz-adv-x="1016" d="M492 788Q454 788 428 814T401 891Q401 902 402 913T407 934T414 950T424 956Q429 956 433 953T445 946T466 939T502 936Q557 936 615 953T720 1003T798 1082T829 1186Q829 1207 822 1227T801
1262T766 1288T715 1298Q635 1298 569 1263T448 1169T354 1031T286 867T245 691T231 522Q231 426 243 345T282 204T354 112T465 78Q525 78 571 108T651 191T710 312T753 461T784 624T807 788Q810 808 836 818T891 829Q903 829 916 826T938 817T952 801T954 776Q946
736 937 650T928 442Q928 341 929 268T934 142T940 54T946 -6Q952 -15 952 -20Q952 -30 942 -39T917 -55T884 -66T848 -70Q821 -70 807 -59T787 -23T778 45T774 150Q751 101 717 59T641 -14T550 -64T446 -82Q362 -82 293 -50T173 53T96 238T68 518Q68 631 89 744T151
962T250 1156T382 1312T541 1416T725 1454Q788 1454 837 1434T921 1379T973 1296T991 1194Q991 1105 948 1031T835 902T675 818T492 788ZM672 1573Q659 1553 640 1545T604 1536Q562 1536 543 1551T524 1583Q524 1591 529 1598T541 1614L727 1829Q730 1846 751 1857T795
1868Q810 1868 825 1864T852 1851T871 1833T879 1809Q879 1795 871 1786T854 1768L672 1573Z" />
<glyph unicode="&#xc2;" glyph-name="Acircumflex" horiz-adv-x="1016" d="M492 788Q454 788 428 814T401 891Q401 902 402 913T407 934T414 950T424 956Q429 956 433 953T445 946T466 939T502 936Q557 936 615 953T720 1003T798 1082T829 1186Q829 1207 822 1227T801
1262T766 1288T715 1298Q635 1298 569 1263T448 1169T354 1031T286 867T245 691T231 522Q231 426 243 345T282 204T354 112T465 78Q525 78 571 108T651 191T710 312T753 461T784 624T807 788Q810 808 836 818T891 829Q903 829 916 826T938 817T952 801T954 776Q946
736 937 650T928 442Q928 341 929 268T934 142T940 54T946 -6Q952 -15 952 -20Q952 -30 942 -39T917 -55T884 -66T848 -70Q821 -70 807 -59T787 -23T778 45T774 150Q751 101 717 59T641 -14T550 -64T446 -82Q362 -82 293 -50T173 53T96 238T68 518Q68 631 89 744T151
962T250 1156T382 1312T541 1416T725 1454Q788 1454 837 1434T921 1379T973 1296T991 1194Q991 1105 948 1031T835 902T675 818T492 788ZM885 1614Q891 1606 896 1599T901 1583Q901 1566 876 1551T809 1536Q792 1536 781 1542T764 1557L663 1712L575 1571Q567 1557
558 1547T526 1536Q512 1536 497 1542T468 1557T447 1577T438 1600Q438 1604 442 1608L586 1813Q604 1841 629 1854T680 1868Q698 1868 709 1865T727 1854T738 1837T749 1811L885 1614Z" />
<glyph unicode="&#xc3;" glyph-name="Atilde" horiz-adv-x="1016" d="M492 788Q454 788 428 814T401 891Q401 902 402 913T407 934T414 950T424 956Q429 956 433 953T445 946T466 939T502 936Q557 936 615 953T720 1003T798 1082T829 1186Q829 1207 822 1227T801
1262T766 1288T715 1298Q635 1298 569 1263T448 1169T354 1031T286 867T245 691T231 522Q231 426 243 345T282 204T354 112T465 78Q525 78 571 108T651 191T710 312T753 461T784 624T807 788Q810 808 836 818T891 829Q903 829 916 826T938 817T952 801T954 776Q946
736 937 650T928 442Q928 341 929 268T934 142T940 54T946 -6Q952 -15 952 -20Q952 -30 942 -39T917 -55T884 -66T848 -70Q821 -70 807 -59T787 -23T778 45T774 150Q751 101 717 59T641 -14T550 -64T446 -82Q362 -82 293 -50T173 53T96 238T68 518Q68 631 89 744T151
962T250 1156T382 1312T541 1416T725 1454Q788 1454 837 1434T921 1379T973 1296T991 1194Q991 1105 948 1031T835 902T675 818T492 788ZM534 1604Q534 1590 519 1584T487 1577Q474 1577 461 1580T438 1589T421 1602T414 1618Q414 1648 425 1681T457 1741T505 1787T569
1805Q611 1805 639 1788T689 1751T731 1713T774 1696Q794 1696 804 1713T815 1759Q815 1771 820 1778T834 1791T852 1798T870 1800Q895 1800 917 1789T940 1764Q940 1714 925 1678T885 1616T833 1579T778 1567Q737 1567 707 1584T654 1623T615 1662T588 1680Q573
1680 564 1673T549 1655T540 1631T534 1604Z" />
<glyph unicode="&#xc4;" glyph-name="Adieresis" horiz-adv-x="1016" d="M492 788Q454 788 428 814T401 891Q401 902 402 913T407 934T414 950T424 956Q429 956 433 953T445 946T466 939T502 936Q557 936 615 953T720 1003T798 1082T829 1186Q829 1207 822 1227T801
1262T766 1288T715 1298Q635 1298 569 1263T448 1169T354 1031T286 867T245 691T231 522Q231 426 243 345T282 204T354 112T465 78Q525 78 571 108T651 191T710 312T753 461T784 624T807 788Q810 808 836 818T891 829Q903 829 916 826T938 817T952 801T954 776Q946
736 937 650T928 442Q928 341 929 268T934 142T940 54T946 -6Q952 -15 952 -20Q952 -30 942 -39T917 -55T884 -66T848 -70Q821 -70 807 -59T787 -23T778 45T774 150Q751 101 717 59T641 -14T550 -64T446 -82Q362 -82 293 -50T173 53T96 238T68 518Q68 631 89 744T151
962T250 1156T382 1312T541 1416T725 1454Q788 1454 837 1434T921 1379T973 1296T991 1194Q991 1105 948 1031T835 902T675 818T492 788ZM426 1673Q426 1714 454 1742T522 1770Q562 1770 590 1742T618 1673Q618 1633 590 1605T522 1577Q482 1577 454 1605T426 1673ZM721
1673Q721 1714 749 1742T817 1770Q857 1770 885 1742T913 1673Q913 1633 885 1605T817 1577Q777 1577 749 1605T721 1673Z" />
<glyph unicode="&#xc5;" glyph-name="Aring" horiz-adv-x="1016" d="M492 788Q454 788 428 814T401 891Q401 902 402 913T407 934T414 950T424 956Q429 956 433 953T445 946T466 939T502 936Q557 936 615 953T720 1003T798 1082T829 1186Q829 1207 822 1227T801
1262T766 1288T715 1298Q635 1298 569 1263T448 1169T354 1031T286 867T245 691T231 522Q231 426 243 345T282 204T354 112T465 78Q525 78 571 108T651 191T710 312T753 461T784 624T807 788Q810 808 836 818T891 829Q903 829 916 826T938 817T952 801T954 776Q946
736 937 650T928 442Q928 341 929 268T934 142T940 54T946 -6Q952 -15 952 -20Q952 -30 942 -39T917 -55T884 -66T848 -70Q821 -70 807 -59T787 -23T778 45T774 150Q751 101 717 59T641 -14T550 -64T446 -82Q362 -82 293 -50T173 53T96 238T68 518Q68 631 89 744T151
962T250 1156T382 1312T541 1416T725 1454Q788 1454 837 1434T921 1379T973 1296T991 1194Q991 1105 948 1031T835 902T675 818T492 788ZM459 1727Q459 1770 475 1808T520 1876T587 1921T670 1938Q713 1938 751 1922T819 1876T864 1809T881 1727Q881 1683 865 1645T819
1578T752 1533T670 1516Q626 1516 588 1532T521 1577T476 1644T459 1727ZM579 1727Q579 1688 605 1663T670 1637Q707 1637 733 1662T760 1727Q760 1764 734 1790T670 1817Q631 1817 605 1791T579 1727Z" />
<glyph unicode="&#xc6;" glyph-name="AE" horiz-adv-x="1704" d="M1657 147Q1644 125 1613 86T1529 8T1403 -59T1231 -88Q1141 -88 1066 -56T940 37Q943 13 946 -6Q952 -15 952 -20Q952 -30 942 -39T917 -55T884 -66T848 -70Q821 -70 807 -59T787 -23T778 45T774
150Q751 101 717 59T641 -14T550 -64T446 -82Q362 -82 293 -50T173 53T96 238T68 518Q68 631 89 744T151 962T250 1156T382 1312T541 1416T725 1454Q784 1454 831 1436T912 1387T965 1312T989 1219Q1027 1273 1074 1318T1177 1397T1295 1449T1423 1468Q1494 1468
1548 1447T1639 1390T1695 1304T1714 1198Q1714 1118 1684 1042T1601 907T1480 811T1335 774Q1316 774 1296 779T1260 795T1234 826T1223 872Q1223 883 1224 896T1229 920T1236 938T1245 946Q1251 946 1255 943T1267 936T1288 929T1323 926Q1374 926 1416 950T1488
1014T1535 1102T1552 1200Q1552 1256 1516 1283T1423 1311Q1372 1311 1324 1295T1234 1249T1156 1180T1096 1095T1056 1000T1042 901Q1042 844 1061 795T1111 710T1178 652T1249 627Q1254 629 1258 629T1268 629Q1286 629 1294 615T1303 580Q1303 563 1299 545T1287
511T1271 485T1253 473Q1221 469 1183 457T1111 420T1056 354T1034 252Q1034 213 1049 180T1091 124T1155 87T1235 74Q1299 74 1350 92T1440 136T1502 191T1536 242Q1544 260 1555 268T1579 276Q1594 276 1609 267T1636 244T1655 212T1663 176Q1663 160 1657 147ZM492
788Q454 788 428 814T401 891Q401 902 402 913T407 934T414 950T424 956Q429 956 433 953T445 946T466 939T502 936Q557 936 615 953T720 1003T798 1082T829 1186Q829 1207 822 1227T801 1262T766 1288T715 1298Q635 1298 569 1263T448 1169T354 1031T286 867T245
691T231 522Q231 426 243 345T282 204T354 112T465 78Q525 78 571 108T651 191T710 312T753 461T784 624T807 788Q810 807 832 817T883 829Q881 843 880 858T879 891Q879 903 879 916T881 944Q845 908 800 879T705 830T601 799T492 788ZM928 440Q953 479 986 508T1057
557Q1025 577 994 604T938 670Q933 623 931 567T928 442V440Z" />
<glyph unicode="&#xc7;" glyph-name="Ccedilla" horiz-adv-x="999" d="M463 852Q501 852 543 865T626 902T705 958T771 1029T817 1110T834 1196Q834 1214 828 1234T807 1271T768 1299T709 1311Q641 1311 580 1279T465 1192T369 1064T295 907T248 736T231 565Q231
470 248 381T302 222T401 112T551 70Q616 70 668 89T757 130T814 172T836 193Q849 215 865 219T897 215T926 191T946 155T953 117T940 86Q938 84 913 60T842 7T731 -48T584 -82L565 -135Q619 -144 651 -165T702 -213T725 -265T731 -313Q731 -341 720 -375T682 -438T614
-488T510 -508Q422 -508 386 -487T350 -420Q350 -413 352 -403T357 -385T366 -372T379 -371Q401 -382 432 -385T487 -389Q541 -389 573 -366T606 -301Q606 -276 594 -265T563 -249T523 -243T483 -238T453 -223T440 -188Q440 -182 443 -170T450 -142T460 -110T469
-80Q374 -66 300 -15T174 120T95 315T68 565Q68 665 89 770T150 974T249 1162T381 1317T544 1421T735 1460Q790 1460 838 1443T920 1392T975 1308T995 1190Q995 1127 971 1067T905 954T810 855T695 778T572 727T453 709Q415 709 389 732T362 807Q362 818 363 829T368
850T375 866T385 872Q390 872 394 869T406 862T427 855T463 852Z" />
<glyph unicode="&#xc8;" glyph-name="Egrave" horiz-adv-x="913" d="M866 147Q853 125 822 86T738 8T612 -59T440 -88Q366 -88 301 -66T187 0T109 105T80 248Q80 304 95 352T136 439T195 508T266 557Q232 578 200 607T143 678T103 771T88 891Q88 959 107 1028T162
1161T248 1281T358 1378T488 1444T633 1468Q703 1468 757 1447T849 1390T905 1304T924 1198Q924 1118 894 1042T811 907T690 811T545 774Q526 774 506 779T470 795T443 826T432 872Q432 883 433 896T438 920T445 938T455 946Q460 946 464 943T476 936T497 929T532
926Q583 926 625 950T698 1014T745 1102T762 1200Q762 1256 726 1283T633 1311Q556 1311 487 1275T366 1180T283 1048T252 901Q252 844 271 795T321 710T388 652T459 627Q464 629 468 629T477 629Q496 629 504 615T512 580Q512 563 508 545T497 511T481 485T463
473Q431 469 393 457T321 420T266 354T244 252Q244 213 259 180T301 124T364 87T444 74Q508 74 559 92T649 136T711 191T745 242Q753 260 764 268T788 276Q803 276 818 267T845 244T864 212T872 176Q872 160 866 147ZM399 1782Q383 1801 383 1816Q383 1831 392
1843T415 1863T442 1877T466 1882Q488 1882 501 1871T526 1843L712 1628Q718 1620 723 1613T729 1597Q729 1580 704 1565T636 1550Q619 1550 608 1556T591 1571L399 1782Z" />
<glyph unicode="&#xc9;" glyph-name="Eacute" horiz-adv-x="913" d="M866 147Q853 125 822 86T738 8T612 -59T440 -88Q366 -88 301 -66T187 0T109 105T80 248Q80 304 95 352T136 439T195 508T266 557Q232 578 200 607T143 678T103 771T88 891Q88 959 107 1028T162
1161T248 1281T358 1378T488 1444T633 1468Q703 1468 757 1447T849 1390T905 1304T924 1198Q924 1118 894 1042T811 907T690 811T545 774Q526 774 506 779T470 795T443 826T432 872Q432 883 433 896T438 920T445 938T455 946Q460 946 464 943T476 936T497 929T532
926Q583 926 625 950T698 1014T745 1102T762 1200Q762 1256 726 1283T633 1311Q556 1311 487 1275T366 1180T283 1048T252 901Q252 844 271 795T321 710T388 652T459 627Q464 629 468 629T477 629Q496 629 504 615T512 580Q512 563 508 545T497 511T481 485T463
473Q431 469 393 457T321 420T266 354T244 252Q244 213 259 180T301 124T364 87T444 74Q508 74 559 92T649 136T711 191T745 242Q753 260 764 268T788 276Q803 276 818 267T845 244T864 212T872 176Q872 160 866 147ZM594 1587Q581 1567 562 1559T526 1550Q484
1550 465 1565T446 1597Q446 1605 451 1612T463 1628L649 1843Q652 1860 673 1871T717 1882Q732 1882 747 1878T774 1865T793 1847T801 1823Q801 1809 793 1800T776 1782L594 1587Z" />
<glyph unicode="&#xca;" glyph-name="Ecircumflex" horiz-adv-x="913" d="M866 147Q853 125 822 86T738 8T612 -59T440 -88Q366 -88 301 -66T187 0T109 105T80 248Q80 304 95 352T136 439T195 508T266 557Q232 578 200 607T143 678T103 771T88 891Q88 959 107
1028T162 1161T248 1281T358 1378T488 1444T633 1468Q703 1468 757 1447T849 1390T905 1304T924 1198Q924 1118 894 1042T811 907T690 811T545 774Q526 774 506 779T470 795T443 826T432 872Q432 883 433 896T438 920T445 938T455 946Q460 946 464 943T476 936T497
929T532 926Q583 926 625 950T698 1014T745 1102T762 1200Q762 1256 726 1283T633 1311Q556 1311 487 1275T366 1180T283 1048T252 901Q252 844 271 795T321 710T388 652T459 627Q464 629 468 629T477 629Q496 629 504 615T512 580Q512 563 508 545T497 511T481
485T463 473Q431 469 393 457T321 420T266 354T244 252Q244 213 259 180T301 124T364 87T444 74Q508 74 559 92T649 136T711 191T745 242Q753 260 764 268T788 276Q803 276 818 267T845 244T864 212T872 176Q872 160 866 147ZM807 1628Q813 1620 818 1613T823 1597Q823
1580 798 1565T731 1550Q714 1550 703 1556T686 1571L585 1726L497 1585Q489 1571 480 1561T448 1550Q434 1550 419 1556T390 1571T369 1591T360 1614Q360 1618 364 1622L508 1827Q526 1855 551 1868T602 1882Q620 1882 631 1879T649 1868T660 1851T671 1825L807
1628Z" />
<glyph unicode="&#xcb;" glyph-name="Edieresis" horiz-adv-x="913" d="M866 147Q853 125 822 86T738 8T612 -59T440 -88Q366 -88 301 -66T187 0T109 105T80 248Q80 304 95 352T136 439T195 508T266 557Q232 578 200 607T143 678T103 771T88 891Q88 959 107 1028T162
1161T248 1281T358 1378T488 1444T633 1468Q703 1468 757 1447T849 1390T905 1304T924 1198Q924 1118 894 1042T811 907T690 811T545 774Q526 774 506 779T470 795T443 826T432 872Q432 883 433 896T438 920T445 938T455 946Q460 946 464 943T476 936T497 929T532
926Q583 926 625 950T698 1014T745 1102T762 1200Q762 1256 726 1283T633 1311Q556 1311 487 1275T366 1180T283 1048T252 901Q252 844 271 795T321 710T388 652T459 627Q464 629 468 629T477 629Q496 629 504 615T512 580Q512 563 508 545T497 511T481 485T463
473Q431 469 393 457T321 420T266 354T244 252Q244 213 259 180T301 124T364 87T444 74Q508 74 559 92T649 136T711 191T745 242Q753 260 764 268T788 276Q803 276 818 267T845 244T864 212T872 176Q872 160 866 147ZM348 1687Q348 1728 376 1756T444 1784Q484
1784 512 1756T540 1687Q540 1647 512 1619T444 1591Q404 1591 376 1619T348 1687ZM643 1687Q643 1728 671 1756T739 1784Q779 1784 807 1756T835 1687Q835 1647 807 1619T739 1591Q699 1591 671 1619T643 1687Z" />
<glyph unicode="&#xcc;" glyph-name="Igrave" horiz-adv-x="811" d="M694 -10Q694 -36 677 -46T637 -57Q619 -57 601 -52T569 -39T545 -21T535 2V1274Q466 1265 405 1235T298 1153T226 1027T199 856Q199 794 212 745T243 661T279 607T307 588Q315 588 318 595T330
602Q338 602 341 592T344 571Q344 539 331 510T299 462T255 438T209 449Q182 467 152 504T96 593T54 712T37 856Q37 964 63 1049T132 1199T234 1308T356 1381T486 1421T612 1434Q628 1434 643 1428T669 1410T687 1382T694 1348V-10ZM377 1747Q361 1766 361 1781Q361
1796 370 1808T393 1828T420 1842T444 1847Q466 1847 479 1836T504 1808L690 1593Q696 1585 701 1578T707 1562Q707 1545 682 1530T614 1515Q597 1515 586 1521T569 1536L377 1747Z" />
<glyph unicode="&#xcd;" glyph-name="Iacute" horiz-adv-x="811" d="M694 -10Q694 -36 677 -46T637 -57Q619 -57 601 -52T569 -39T545 -21T535 2V1274Q466 1265 405 1235T298 1153T226 1027T199 856Q199 794 212 745T243 661T279 607T307 588Q315 588 318 595T330
602Q338 602 341 592T344 571Q344 539 331 510T299 462T255 438T209 449Q182 467 152 504T96 593T54 712T37 856Q37 964 63 1049T132 1199T234 1308T356 1381T486 1421T612 1434Q628 1434 643 1428T669 1410T687 1382T694 1348V-10ZM572 1552Q559 1532 540 1524T504
1515Q462 1515 443 1530T424 1562Q424 1570 429 1577T441 1593L627 1808Q630 1825 651 1836T695 1847Q710 1847 725 1843T752 1830T771 1812T779 1788Q779 1774 771 1765T754 1747L572 1552Z" />
<glyph unicode="&#xce;" glyph-name="Icircumflex" horiz-adv-x="811" d="M694 -10Q694 -36 677 -46T637 -57Q619 -57 601 -52T569 -39T545 -21T535 2V1274Q466 1265 405 1235T298 1153T226 1027T199 856Q199 794 212 745T243 661T279 607T307 588Q315 588 318
595T330 602Q338 602 341 592T344 571Q344 539 331 510T299 462T255 438T209 449Q182 467 152 504T96 593T54 712T37 856Q37 964 63 1049T132 1199T234 1308T356 1381T486 1421T612 1434Q628 1434 643 1428T669 1410T687 1382T694 1348V-10ZM785 1593Q791 1585
796 1578T801 1562Q801 1545 776 1530T709 1515Q692 1515 681 1521T664 1536L563 1691L475 1550Q467 1536 458 1526T426 1515Q412 1515 397 1521T368 1536T347 1556T338 1579Q338 1583 342 1587L486 1792Q504 1820 529 1833T580 1847Q598 1847 609 1844T627 1833T638
1816T649 1790L785 1593Z" />
<glyph unicode="&#xcf;" glyph-name="Idieresis" horiz-adv-x="811" d="M694 -10Q694 -36 677 -46T637 -57Q619 -57 601 -52T569 -39T545 -21T535 2V1274Q466 1265 405 1235T298 1153T226 1027T199 856Q199 794 212 745T243 661T279 607T307 588Q315 588 318 595T330
602Q338 602 341 592T344 571Q344 539 331 510T299 462T255 438T209 449Q182 467 152 504T96 593T54 712T37 856Q37 964 63 1049T132 1199T234 1308T356 1381T486 1421T612 1434Q628 1434 643 1428T669 1410T687 1382T694 1348V-10ZM326 1652Q326 1693 354 1721T422
1749Q462 1749 490 1721T518 1652Q518 1612 490 1584T422 1556Q382 1556 354 1584T326 1652ZM621 1652Q621 1693 649 1721T717 1749Q757 1749 785 1721T813 1652Q813 1612 785 1584T717 1556Q677 1556 649 1584T621 1652Z" />
<glyph unicode="&#xd0;" glyph-name="Eth" horiz-adv-x="1247" d="M403 735V1047Q403 1076 399 1088T395 1112Q395 1128 411 1137T449 1147Q500 1147 531 1121T563 1057V735H702Q728 738 738 723T748 682Q748 667 744 652T733 625T716 606T694 598Q692 598 690
598T684 600H563V252Q563 167 589 124T678 80Q717 80 757 105T835 176T905 288T963 434T1002 609T1016 805Q1016 908 994 1000T924 1160T803 1269T627 1309Q542 1309 477 1290T365 1238T285 1159T233 1063T205 956T197 846Q197 772 212 714T247 616T284 553T305
528Q322 533 329 524T336 500Q336 480 328 459T305 420T274 391T238 379Q230 379 223 381T207 389Q205 390 192 403T160 442T120 504T80 591T49 701T37 834Q37 973 79 1089T200 1289T388 1419T633 1466Q776 1466 879 1412T1049 1267T1148 1061T1180 821Q1180 676
1158 553T1097 330T1007 154T899 26T782 -52T666 -78Q594 -78 544 -56T462 10T417 117T403 262V600H330Q302 600 289 612T276 647Q276 689 295 712T350 735H403Z" />
<glyph unicode="&#xd1;" glyph-name="Ntilde" horiz-adv-x="1262" d="M694 1180Q725 1233 760 1279T836 1359T918 1414T1006 1434Q1027 1434 1051 1425T1097 1396T1131 1341T1145 1255V61Q1145 23 1152 -2T1170 -45T1194 -72T1217 -90T1235 -105T1243 -123Q1243
-135 1236 -147T1215 -169T1182 -186T1139 -193Q1116 -193 1090 -183T1040 -148T1002 -80T985 27V1243Q985 1263 979 1267T967 1272Q951 1272 925 1248T869 1183T807 1092T751 985T710 877T694 780V-10Q694 -36 677 -46T637 -57Q619 -57 601 -52T569 -39T545 -21T535
2V1274Q466 1265 405 1235T298 1153T226 1027T199 856Q199 794 212 745T243 661T279 607T307 588Q316 588 324 592T340 596Q356 596 356 571Q356 545 347 521T321 478T286 448T246 436Q220 436 184 468T116 556T60 689T37 856Q37 964 63 1049T132 1199T234 1308T356
1381T486 1421T612 1434Q628 1434 643 1428T669 1410T687 1382T694 1348V1180ZM665 1583Q665 1569 650 1563T618 1556Q605 1556 592 1559T569 1568T552 1581T545 1597Q545 1627 556 1660T588 1720T636 1766T700 1784Q742 1784 770 1767T820 1730T862 1692T905 1675Q925
1675 935 1692T946 1738Q946 1750 951 1757T965 1770T983 1777T1001 1779Q1026 1779 1048 1768T1071 1743Q1071 1693 1056 1657T1016 1595T964 1558T909 1546Q868 1546 838 1563T785 1602T746 1641T719 1659Q704 1659 695 1652T680 1634T671 1610T665 1583Z" />
<glyph unicode="&#xd2;" glyph-name="Ograve" horiz-adv-x="1042" d="M801 696Q801 756 795 821H756Q692 821 636 839T539 891T473 972T449 1079Q449 1119 462 1154T500 1216T559 1258T635 1274Q691 1274 735 1253T814 1197T873 1114T915 1012Q931 1021 945 1034T973
1063Q982 1090 997 1090Q1008 1090 1019 1081T1041 1055T1057 1020T1063 979Q1063 941 1031 911T948 858Q954 815 957 774T961 696Q961 502 922 360T818 126T670 -12T496 -57Q384 -57 299 -5T157 139T70 351T41 610Q41 784 71 915T148 1142T250 1300T352 1401T433
1455T471 1473Q476 1475 481 1476T494 1477Q511 1477 524 1467T546 1441T560 1406T565 1370Q565 1350 559 1337T539 1323Q532 1323 528 1325Q510 1315 480 1296T413 1244T340 1159T273 1035T224 862T205 631Q205 492 231 391T299 225T394 128T502 96Q566 96 620
136T714 252T777 440T801 696ZM774 963Q766 998 755 1028T728 1079T693 1113T649 1126Q618 1126 608 1109T598 1075Q598 1057 606 1037T633 1001T681 974T750 963H774ZM387 1768Q371 1787 371 1802Q371 1817 380 1829T403 1849T430 1863T454 1868Q476 1868 489
1857T514 1829L700 1614Q706 1606 711 1599T717 1583Q717 1566 692 1551T624 1536Q607 1536 596 1542T579 1557L387 1768Z" />
<glyph unicode="&#xd3;" glyph-name="Oacute" horiz-adv-x="1042" d="M801 696Q801 756 795 821H756Q692 821 636 839T539 891T473 972T449 1079Q449 1119 462 1154T500 1216T559 1258T635 1274Q691 1274 735 1253T814 1197T873 1114T915 1012Q931 1021 945 1034T973
1063Q982 1090 997 1090Q1008 1090 1019 1081T1041 1055T1057 1020T1063 979Q1063 941 1031 911T948 858Q954 815 957 774T961 696Q961 502 922 360T818 126T670 -12T496 -57Q384 -57 299 -5T157 139T70 351T41 610Q41 784 71 915T148 1142T250 1300T352 1401T433
1455T471 1473Q476 1475 481 1476T494 1477Q511 1477 524 1467T546 1441T560 1406T565 1370Q565 1350 559 1337T539 1323Q532 1323 528 1325Q510 1315 480 1296T413 1244T340 1159T273 1035T224 862T205 631Q205 492 231 391T299 225T394 128T502 96Q566 96 620
136T714 252T777 440T801 696ZM774 963Q766 998 755 1028T728 1079T693 1113T649 1126Q618 1126 608 1109T598 1075Q598 1057 606 1037T633 1001T681 974T750 963H774ZM582 1573Q569 1553 550 1545T514 1536Q472 1536 453 1551T434 1583Q434 1591 439 1598T451
1614L637 1829Q640 1846 661 1857T705 1868Q720 1868 735 1864T762 1851T781 1833T789 1809Q789 1795 781 1786T764 1768L582 1573Z" />
<glyph unicode="&#xd4;" glyph-name="Ocircumflex" horiz-adv-x="1042" d="M801 696Q801 756 795 821H756Q692 821 636 839T539 891T473 972T449 1079Q449 1119 462 1154T500 1216T559 1258T635 1274Q691 1274 735 1253T814 1197T873 1114T915 1012Q931 1021 945
1034T973 1063Q982 1090 997 1090Q1008 1090 1019 1081T1041 1055T1057 1020T1063 979Q1063 941 1031 911T948 858Q954 815 957 774T961 696Q961 502 922 360T818 126T670 -12T496 -57Q384 -57 299 -5T157 139T70 351T41 610Q41 784 71 915T148 1142T250 1300T352
1401T433 1455T471 1473Q476 1475 481 1476T494 1477Q511 1477 524 1467T546 1441T560 1406T565 1370Q565 1350 559 1337T539 1323Q532 1323 528 1325Q510 1315 480 1296T413 1244T340 1159T273 1035T224 862T205 631Q205 492 231 391T299 225T394 128T502 96Q566
96 620 136T714 252T777 440T801 696ZM774 963Q766 998 755 1028T728 1079T693 1113T649 1126Q618 1126 608 1109T598 1075Q598 1057 606 1037T633 1001T681 974T750 963H774ZM795 1614Q801 1606 806 1599T811 1583Q811 1566 786 1551T719 1536Q702 1536 691 1542T674
1557L573 1712L485 1571Q477 1557 468 1547T436 1536Q422 1536 407 1542T378 1557T357 1577T348 1600Q348 1604 352 1608L496 1813Q514 1841 539 1854T590 1868Q608 1868 619 1865T637 1854T648 1837T659 1811L795 1614Z" />
<glyph unicode="&#xd5;" glyph-name="Otilde" horiz-adv-x="1042" d="M801 696Q801 756 795 821H756Q692 821 636 839T539 891T473 972T449 1079Q449 1119 462 1154T500 1216T559 1258T635 1274Q691 1274 735 1253T814 1197T873 1114T915 1012Q931 1021 945 1034T973
1063Q982 1090 997 1090Q1008 1090 1019 1081T1041 1055T1057 1020T1063 979Q1063 941 1031 911T948 858Q954 815 957 774T961 696Q961 502 922 360T818 126T670 -12T496 -57Q384 -57 299 -5T157 139T70 351T41 610Q41 784 71 915T148 1142T250 1300T352 1401T433
1455T471 1473Q476 1475 481 1476T494 1477Q511 1477 524 1467T546 1441T560 1406T565 1370Q565 1350 559 1337T539 1323Q532 1323 528 1325Q510 1315 480 1296T413 1244T340 1159T273 1035T224 862T205 631Q205 492 231 391T299 225T394 128T502 96Q566 96 620
136T714 252T777 440T801 696ZM774 963Q766 998 755 1028T728 1079T693 1113T649 1126Q618 1126 608 1109T598 1075Q598 1057 606 1037T633 1001T681 974T750 963H774ZM444 1604Q444 1590 429 1584T397 1577Q384 1577 371 1580T348 1589T331 1602T324 1618Q324
1648 335 1681T367 1741T415 1787T479 1805Q521 1805 549 1788T599 1751T641 1713T684 1696Q704 1696 714 1713T725 1759Q725 1771 730 1778T744 1791T762 1798T780 1800Q805 1800 827 1789T850 1764Q850 1714 835 1678T795 1616T743 1579T688 1567Q647 1567 617
1584T564 1623T525 1662T498 1680Q483 1680 474 1673T459 1655T450 1631T444 1604Z" />
<glyph unicode="&#xd6;" glyph-name="Odieresis" horiz-adv-x="1042" d="M801 696Q801 756 795 821H756Q692 821 636 839T539 891T473 972T449 1079Q449 1119 462 1154T500 1216T559 1258T635 1274Q691 1274 735 1253T814 1197T873 1114T915 1012Q931 1021 945
1034T973 1063Q982 1090 997 1090Q1008 1090 1019 1081T1041 1055T1057 1020T1063 979Q1063 941 1031 911T948 858Q954 815 957 774T961 696Q961 502 922 360T818 126T670 -12T496 -57Q384 -57 299 -5T157 139T70 351T41 610Q41 784 71 915T148 1142T250 1300T352
1401T433 1455T471 1473Q476 1475 481 1476T494 1477Q511 1477 524 1467T546 1441T560 1406T565 1370Q565 1350 559 1337T539 1323Q532 1323 528 1325Q510 1315 480 1296T413 1244T340 1159T273 1035T224 862T205 631Q205 492 231 391T299 225T394 128T502 96Q566
96 620 136T714 252T777 440T801 696ZM774 963Q766 998 755 1028T728 1079T693 1113T649 1126Q618 1126 608 1109T598 1075Q598 1057 606 1037T633 1001T681 974T750 963H774ZM336 1673Q336 1714 364 1742T432 1770Q472 1770 500 1742T528 1673Q528 1633 500 1605T432
1577Q392 1577 364 1605T336 1673ZM631 1673Q631 1714 659 1742T727 1770Q767 1770 795 1742T823 1673Q823 1633 795 1605T727 1577Q687 1577 659 1605T631 1673Z" />
<glyph unicode="&#xd7;" glyph-name="multiply" horiz-adv-x="819" d="M420 741L614 936Q619 942 620 947T622 957T625 964T635 967Q645 967 658 957T684 930T704 893T713 854Q713 845 710 837T702 823L520 641L717 446Q723 440 723 430Q723 417 714 400T692 366T664
339T637 328Q631 328 625 334L418 539L217 338Q211 332 199 332Q187 332 173 340T147 361T127 390T119 424Q119 442 133 457L317 641L135 825Q130 830 124 833T111 840T101 847T96 856Q96 868 105 884T130 915T163 940T197 950Q205 950 211 948T223 940L420 741Z"
/>
<glyph unicode="&#xd8;" glyph-name="Oslash" horiz-adv-x="1042" d="M158 135Q99 226 70 348T41 610Q41 784 71 915T148 1142T250 1300T352 1401T433 1455T471 1473Q476 1475 481 1476T494 1477Q511 1477 524 1467T546 1441T560 1406T565 1370Q565 1350 559 1337T539
1323Q532 1323 528 1325Q510 1315 480 1296T413 1244T340 1159T273 1035T224 862T205 631Q205 531 218 452T254 311L698 1114Q676 1133 649 1133Q634 1133 624 1127T607 1113T597 1094T594 1075Q594 1059 597 1051T605 1040T612 1034T616 1026Q616 1020 606 1008T581
983T547 962T510 952Q495 952 484 966T465 1000T453 1042T449 1079Q449 1119 462 1154T500 1216T559 1258T635 1274Q672 1274 705 1264T766 1237L836 1362Q839 1367 838 1373T838 1386Q841 1400 860 1397Q872 1395 891 1388T927 1368T956 1340T965 1305Q965 1303
965 1299T961 1292L868 1124Q894 1078 912 1024T941 913T956 801T961 696Q961 502 922 360T818 126T670 -12T496 -57Q424 -57 365 -36T258 23L190 -98Q184 -109 174 -111T152 -111Q139 -109 124 -101T95 -82T75 -56T70 -27Q72 -18 78 -10L158 135ZM801 696Q801
758 796 827T776 958L340 172Q413 96 502 96Q565 96 619 136T714 252T778 440T801 696Z" />
<glyph unicode="&#xd9;" glyph-name="Ugrave" horiz-adv-x="1262" d="M985 197Q953 144 917 98T842 17T760 -37T674 -57Q652 -57 628 -48T583 -19T549 36T535 121V1274Q466 1265 405 1235T298 1153T226 1027T199 856Q199 794 212 745T243 661T279 607T307 588Q316
588 324 592T340 596Q356 596 356 571Q356 539 342 510T305 462T257 438T209 449Q182 467 152 504T96 593T54 712T37 856Q37 964 63 1049T132 1199T234 1308T356 1381T486 1421T612 1434Q628 1434 643 1428T669 1410T687 1382T694 1348V133Q694 113 700 109T713
104Q728 104 754 125T810 182T872 264T928 361T969 461T985 555V1333Q985 1362 981 1375T977 1399Q977 1414 992 1424T1030 1434Q1081 1434 1113 1408T1145 1343V455Q1145 354 1146 281T1151 155T1157 67T1163 6Q1169 -3 1169 -8Q1169 -18 1159 -27T1134 -42T1101
-53T1065 -57Q1038 -57 1023 -42T1001 5T990 84T985 193V197ZM633 1745Q617 1764 617 1779Q617 1794 626 1806T649 1826T676 1840T700 1845Q722 1845 735 1834T760 1806L946 1591Q952 1583 957 1576T963 1560Q963 1543 938 1528T870 1513Q853 1513 842 1519T825
1534L633 1745Z" />
<glyph unicode="&#xda;" glyph-name="Uacute" horiz-adv-x="1262" d="M985 197Q953 144 917 98T842 17T760 -37T674 -57Q652 -57 628 -48T583 -19T549 36T535 121V1274Q466 1265 405 1235T298 1153T226 1027T199 856Q199 794 212 745T243 661T279 607T307 588Q316
588 324 592T340 596Q356 596 356 571Q356 539 342 510T305 462T257 438T209 449Q182 467 152 504T96 593T54 712T37 856Q37 964 63 1049T132 1199T234 1308T356 1381T486 1421T612 1434Q628 1434 643 1428T669 1410T687 1382T694 1348V133Q694 113 700 109T713
104Q728 104 754 125T810 182T872 264T928 361T969 461T985 555V1333Q985 1362 981 1375T977 1399Q977 1414 992 1424T1030 1434Q1081 1434 1113 1408T1145 1343V455Q1145 354 1146 281T1151 155T1157 67T1163 6Q1169 -3 1169 -8Q1169 -18 1159 -27T1134 -42T1101
-53T1065 -57Q1038 -57 1023 -42T1001 5T990 84T985 193V197ZM828 1550Q815 1530 796 1522T760 1513Q718 1513 699 1528T680 1560Q680 1568 685 1575T697 1591L883 1806Q886 1823 907 1834T951 1845Q966 1845 981 1841T1008 1828T1027 1810T1035 1786Q1035 1772
1027 1763T1010 1745L828 1550Z" />
<glyph unicode="&#xdb;" glyph-name="Ucircumflex" horiz-adv-x="1262" d="M985 197Q953 144 917 98T842 17T760 -37T674 -57Q652 -57 628 -48T583 -19T549 36T535 121V1274Q466 1265 405 1235T298 1153T226 1027T199 856Q199 794 212 745T243 661T279 607T307
588Q316 588 324 592T340 596Q356 596 356 571Q356 539 342 510T305 462T257 438T209 449Q182 467 152 504T96 593T54 712T37 856Q37 964 63 1049T132 1199T234 1308T356 1381T486 1421T612 1434Q628 1434 643 1428T669 1410T687 1382T694 1348V133Q694 113 700
109T713 104Q728 104 754 125T810 182T872 264T928 361T969 461T985 555V1333Q985 1362 981 1375T977 1399Q977 1414 992 1424T1030 1434Q1081 1434 1113 1408T1145 1343V455Q1145 354 1146 281T1151 155T1157 67T1163 6Q1169 -3 1169 -8Q1169 -18 1159 -27T1134
-42T1101 -53T1065 -57Q1038 -57 1023 -42T1001 5T990 84T985 193V197ZM1041 1591Q1047 1583 1052 1576T1057 1560Q1057 1543 1032 1528T965 1513Q948 1513 937 1519T920 1534L819 1689L731 1548Q723 1534 714 1524T682 1513Q668 1513 653 1519T624 1534T603 1554T594
1577Q594 1581 598 1585L742 1790Q760 1818 785 1831T836 1845Q854 1845 865 1842T883 1831T894 1814T905 1788L1041 1591Z" />
<glyph unicode="&#xdc;" glyph-name="Udieresis" horiz-adv-x="1262" d="M985 197Q953 144 917 98T842 17T760 -37T674 -57Q652 -57 628 -48T583 -19T549 36T535 121V1274Q466 1265 405 1235T298 1153T226 1027T199 856Q199 794 212 745T243 661T279 607T307 588Q316
588 324 592T340 596Q356 596 356 571Q356 539 342 510T305 462T257 438T209 449Q182 467 152 504T96 593T54 712T37 856Q37 964 63 1049T132 1199T234 1308T356 1381T486 1421T612 1434Q628 1434 643 1428T669 1410T687 1382T694 1348V133Q694 113 700 109T713
104Q728 104 754 125T810 182T872 264T928 361T969 461T985 555V1333Q985 1362 981 1375T977 1399Q977 1414 992 1424T1030 1434Q1081 1434 1113 1408T1145 1343V455Q1145 354 1146 281T1151 155T1157 67T1163 6Q1169 -3 1169 -8Q1169 -18 1159 -27T1134 -42T1101
-53T1065 -57Q1038 -57 1023 -42T1001 5T990 84T985 193V197ZM582 1650Q582 1691 610 1719T678 1747Q718 1747 746 1719T774 1650Q774 1610 746 1582T678 1554Q638 1554 610 1582T582 1650ZM877 1650Q877 1691 905 1719T973 1747Q1013 1747 1041 1719T1069 1650Q1069
1610 1041 1582T973 1554Q933 1554 905 1582T877 1650Z" />
<glyph unicode="&#xdd;" glyph-name="Yacute" horiz-adv-x="1272" d="M1145 -10V-72Q1174 -67 1201 -65T1253 -61Q1277 -60 1289 -71T1305 -100T1303 -139T1287 -178T1261 -210T1227 -223Q1204 -223 1184 -224T1143 -227Q1138 -316 1124 -404T1076 -564T987 -680T842
-725Q789 -725 747 -707T674 -656T628 -579T612 -483Q612 -405 644 -345T728 -239T847 -162T985 -109V-86V197Q953 144 917 98T842 17T760 -37T674 -57Q652 -57 628 -48T583 -19T549 36T535 121V1274Q466 1265 405 1235T298 1153T226 1027T199 856Q199 794 212
745T243 661T279 607T307 588Q316 588 324 592T340 596Q356 596 356 571Q356 539 342 510T305 462T257 438T209 449Q182 467 152 504T96 593T54 712T37 856Q37 964 63 1049T132 1199T234 1308T356 1381T486 1421T612 1434Q628 1434 643 1428T669 1410T687 1382T694
1348V133Q694 113 700 109T713 104Q728 104 754 125T810 182T872 264T928 361T969 461T985 555V1333Q985 1362 981 1375T977 1399Q977 1414 992 1424T1030 1434Q1081 1434 1113 1408T1145 1343V-10ZM846 -567Q880 -567 904 -542T944 -475T968 -377T981 -260Q879
-291 826 -346T772 -479Q772 -526 793 -546T846 -567ZM832 1552Q819 1532 800 1524T764 1515Q722 1515 703 1530T684 1562Q684 1570 689 1577T701 1593L887 1808Q890 1825 911 1836T955 1847Q970 1847 985 1843T1012 1830T1031 1812T1039 1788Q1039 1774 1031 1765T1014
1747L832 1552Z" />
<glyph unicode="&#xde;" glyph-name="Thorn" horiz-adv-x="1182" d="M410 1016Q352 995 311 965T244 896T205 814T193 723Q193 675 204 643T230 589T256 558T270 547Q287 552 294 543T301 518Q301 504 292 476T266 424T229 387T186 391Q174 400 149 423T100 485T56
578T37 705Q37 792 63 866T137 1001T255 1104T410 1174V1333Q410 1362 406 1375T401 1399Q401 1414 417 1424T455 1434Q506 1434 537 1408T569 1343V1204Q589 1206 610 1207T653 1208Q765 1208 856 1178T1012 1092T1112 962T1147 797Q1147 687 1099 594T971 428T787
309T569 244V-10Q569 -36 552 -46T512 -57Q494 -57 476 -52T444 -39T420 -21T410 2V1016ZM655 1055Q632 1055 611 1054T569 1051V395Q604 398 648 410T740 444T831 498T911 572T967 668T989 788Q989 833 971 880T912 966T809 1030T655 1055Z" />
<glyph unicode="&#xdf;" glyph-name="germandbls" horiz-adv-x="797" d="M549 1120Q549 1046 536 994T508 903T480 832T467 770Q467 736 484 700T527 625T583 544T639 454T682 356T700 246Q700 198 688 150Q760 167 800 208T858 299Q869 328 880 341T905 354Q918
354 931 346T955 324T972 297T979 272Q979 257 971 236T950 193T920 151T885 115Q838 78 776 52T625 18Q596 -16 553 -36T451 -57Q410 -57 379 -42T327 -4T296 48T285 104Q285 143 303 168T342 193Q352 193 371 182T414 157T462 132T508 121Q525 141 538 171T551
240Q551 275 534 316T492 400T439 489T386 578T346 663T332 741Q334 786 344 827T366 912T387 1008T397 1126Q397 1153 392 1181T375 1233T345 1271T301 1286Q259 1286 243 1232T227 1079V-500Q227 -528 216 -545T189 -573T153 -586T119 -590Q88 -590 80 -574T72
-535V1079Q72 1167 90 1234T140 1345T215 1411T307 1434Q362 1434 406 1407T482 1334T531 1233T549 1120Z" />
<glyph unicode="&#xe0;" glyph-name="agrave" horiz-adv-x="725" d="M651 78Q682 78 704 100T743 155T770 226T788 299Q795 331 808 345T838 360Q850 360 862 353T885 333T902 306T909 276Q909 274 909 271T907 262Q894 211 872 155T814 52T730 -26T614 -57Q560
-57 520 -34T457 27Q426 -8 383 -32T281 -57Q221 -57 176 -33T99 32T53 130T37 252Q37 380 78 482T187 655T342 765T524 803Q566 803 592 780T618 717Q618 691 613 681T592 670Q578 670 563 672T532 674Q474 674 414 649T306 571T226 438T195 246Q195 165 226 122T311
78Q353 78 381 109T426 184V500Q426 515 425 525T422 542T419 554T418 565Q418 581 433 590T471 600Q522 600 552 574T582 510V172Q582 155 586 139T598 109T619 87T651 78ZM493 1137Q477 1156 477 1171Q477 1186 486 1198T509 1218T536 1232T560 1237Q582 1237
595 1226T620 1198L806 983Q812 975 817 968T823 952Q823 935 798 920T730 905Q713 905 702 911T685 926L493 1137Z" />
<glyph unicode="&#xe1;" glyph-name="aacute" horiz-adv-x="725" d="M651 78Q682 78 704 100T743 155T770 226T788 299Q795 331 808 345T838 360Q850 360 862 353T885 333T902 306T909 276Q909 274 909 271T907 262Q894 211 872 155T814 52T730 -26T614 -57Q560
-57 520 -34T457 27Q426 -8 383 -32T281 -57Q221 -57 176 -33T99 32T53 130T37 252Q37 380 78 482T187 655T342 765T524 803Q566 803 592 780T618 717Q618 691 613 681T592 670Q578 670 563 672T532 674Q474 674 414 649T306 571T226 438T195 246Q195 165 226 122T311
78Q353 78 381 109T426 184V500Q426 515 425 525T422 542T419 554T418 565Q418 581 433 590T471 600Q522 600 552 574T582 510V172Q582 155 586 139T598 109T619 87T651 78ZM430 942Q417 922 398 914T362 905Q320 905 301 920T282 952Q282 960 287 967T299 983L485
1198Q488 1215 509 1226T553 1237Q568 1237 583 1233T610 1220T629 1202T637 1178Q637 1164 629 1155T612 1137L430 942Z" />
<glyph unicode="&#xe2;" glyph-name="acircumflex" horiz-adv-x="725" d="M651 78Q682 78 704 100T743 155T770 226T788 299Q795 331 808 345T838 360Q850 360 862 353T885 333T902 306T909 276Q909 274 909 271T907 262Q894 211 872 155T814 52T730 -26T614 -57Q560
-57 520 -34T457 27Q426 -8 383 -32T281 -57Q221 -57 176 -33T99 32T53 130T37 252Q37 380 78 482T187 655T342 765T524 803Q566 803 592 780T618 717Q618 691 613 681T592 670Q578 670 563 672T532 674Q474 674 414 649T306 571T226 438T195 246Q195 165 226 122T311
78Q353 78 381 109T426 184V500Q426 515 425 525T422 542T419 554T418 565Q418 581 433 590T471 600Q522 600 552 574T582 510V172Q582 155 586 139T598 109T619 87T651 78ZM643 983Q649 975 654 968T659 952Q659 935 634 920T567 905Q550 905 539 911T522 926L421
1081L333 940Q325 926 316 916T284 905Q270 905 255 911T226 926T205 946T196 969Q196 973 200 977L344 1182Q362 1210 387 1223T438 1237Q456 1237 467 1234T485 1223T496 1206T507 1180L643 983Z" />
<glyph unicode="&#xe3;" glyph-name="atilde" horiz-adv-x="725" d="M651 78Q682 78 704 100T743 155T770 226T788 299Q795 331 808 345T838 360Q850 360 862 353T885 333T902 306T909 276Q909 274 909 271T907 262Q894 211 872 155T814 52T730 -26T614 -57Q560
-57 520 -34T457 27Q426 -8 383 -32T281 -57Q221 -57 176 -33T99 32T53 130T37 252Q37 380 78 482T187 655T342 765T524 803Q566 803 592 780T618 717Q618 691 613 681T592 670Q578 670 563 672T532 674Q474 674 414 649T306 571T226 438T195 246Q195 165 226 122T311
78Q353 78 381 109T426 184V500Q426 515 425 525T422 542T419 554T418 565Q418 581 433 590T471 600Q522 600 552 574T582 510V172Q582 155 586 139T598 109T619 87T651 78ZM292 973Q292 959 277 953T245 946Q232 946 219 949T196 958T179 971T172 987Q172 1017
183 1050T215 1110T263 1156T327 1174Q369 1174 397 1157T447 1120T489 1082T532 1065Q552 1065 562 1082T573 1128Q573 1140 578 1147T592 1160T610 1167T628 1169Q653 1169 675 1158T698 1133Q698 1083 683 1047T643 985T591 948T536 936Q495 936 465 953T412
992T373 1031T346 1049Q331 1049 322 1042T307 1024T298 1000T292 973Z" />
<glyph unicode="&#xe4;" glyph-name="adieresis" horiz-adv-x="725" d="M651 78Q682 78 704 100T743 155T770 226T788 299Q795 331 808 345T838 360Q850 360 862 353T885 333T902 306T909 276Q909 274 909 271T907 262Q894 211 872 155T814 52T730 -26T614 -57Q560
-57 520 -34T457 27Q426 -8 383 -32T281 -57Q221 -57 176 -33T99 32T53 130T37 252Q37 380 78 482T187 655T342 765T524 803Q566 803 592 780T618 717Q618 691 613 681T592 670Q578 670 563 672T532 674Q474 674 414 649T306 571T226 438T195 246Q195 165 226 122T311
78Q353 78 381 109T426 184V500Q426 515 425 525T422 542T419 554T418 565Q418 581 433 590T471 600Q522 600 552 574T582 510V172Q582 155 586 139T598 109T619 87T651 78ZM184 1042Q184 1083 212 1111T280 1139Q320 1139 348 1111T376 1042Q376 1002 348 974T280
946Q240 946 212 974T184 1042ZM479 1042Q479 1083 507 1111T575 1139Q615 1139 643 1111T671 1042Q671 1002 643 974T575 946Q535 946 507 974T479 1042Z" />
<glyph unicode="&#xe5;" glyph-name="aring" horiz-adv-x="725" d="M651 78Q682 78 704 100T743 155T770 226T788 299Q795 331 808 345T838 360Q850 360 862 353T885 333T902 306T909 276Q909 274 909 271T907 262Q894 211 872 155T814 52T730 -26T614 -57Q560
-57 520 -34T457 27Q426 -8 383 -32T281 -57Q221 -57 176 -33T99 32T53 130T37 252Q37 380 78 482T187 655T342 765T524 803Q566 803 592 780T618 717Q618 691 613 681T592 670Q578 670 563 672T532 674Q474 674 414 649T306 571T226 438T195 246Q195 165 226 122T311
78Q353 78 381 109T426 184V500Q426 515 425 525T422 542T419 554T418 565Q418 581 433 590T471 600Q522 600 552 574T582 510V172Q582 155 586 139T598 109T619 87T651 78ZM217 1096Q217 1139 233 1177T278 1245T345 1290T428 1307Q471 1307 509 1291T577 1245T622
1178T639 1096Q639 1052 623 1014T577 947T510 902T428 885Q384 885 346 901T279 946T234 1013T217 1096ZM337 1096Q337 1057 363 1032T428 1006Q465 1006 491 1031T518 1096Q518 1133 492 1159T428 1186Q389 1186 363 1160T337 1096Z" />
<glyph unicode="&#xe6;" glyph-name="ae" horiz-adv-x="985" d="M264 -57Q212 -57 170 -33T99 32T53 130T37 252Q37 380 78 482T187 655T342 765T524 803Q552 803 574 792T608 760Q668 803 735 803Q778 803 812 788T871 746T907 680T920 596Q920 539 901 479T843
366T748 270T616 205Q627 179 643 156T682 115T736 88T807 78Q867 78 910 100T982 160T1030 243T1057 336Q1064 370 1085 381T1129 387T1168 362T1182 315Q1178 284 1168 244T1139 163T1091 83T1018 12T917 -38T784 -57Q727 -57 674 -40T575 12Q574 -1 572 -13T563
-35T546 -51T516 -57Q501 -57 486 -54T459 -43T437 -21T426 16Q394 -16 354 -36T264 -57ZM311 78Q336 78 356 90T392 123T419 168T438 221Q430 250 426 281T422 348Q422 447 448 529T520 674Q463 671 405 644T301 565T225 433T195 246Q195 165 226 122T311 78ZM590
354Q590 345 591 336T592 317Q630 335 661 363T714 427T748 505T760 594Q760 628 749 647T717 666Q692 666 673 649T639 605T614 543T599 473T591 407T590 354Z" />
<glyph unicode="&#xe7;" glyph-name="ccedilla" horiz-adv-x="608" d="M391 -127Q445 -136 477 -157T528 -205T551 -257T557 -305Q557 -333 546 -367T508 -430T440 -480T336 -500Q248 -500 212 -479T176 -412Q176 -405 178 -395T183 -377T192 -363T205 -362Q215
-368 229 -371T258 -377T287 -380T313 -381Q367 -381 399 -358T432 -293Q432 -268 420 -257T389 -241T349 -235T309 -230T279 -215T266 -180Q266 -172 271 -152T283 -110T295 -69T303 -45Q249 -30 202 1T120 79T65 189T45 330Q45 418 70 503T139 654T244 762T379
803Q432 803 469 782T529 730T562 664T573 602Q573 582 563 566T537 539T504 523T472 518T450 528T444 555Q440 568 437 587T425 623T401 653T360 666Q332 666 306 640T259 567T226 460T213 330Q213 269 228 222T272 143T338 95T422 78Q482 78 526 100T602 160T652
243T680 336Q687 370 708 381T752 387T791 362T805 315Q801 284 791 246T762 167T713 87T641 17T544 -34T416 -57Q414 -59 414 -63L391 -127Z" />
<glyph unicode="&#xe8;" glyph-name="egrave" horiz-adv-x="608" d="M543 596Q543 539 524 479T466 366T371 270T240 205Q250 179 266 156T306 115T359 88T430 78Q490 78 533 100T605 160T653 243T680 336Q687 370 708 381T752 387T791 362T805 315Q801 284 792
244T763 163T715 83T642 12T541 -38T408 -57Q338 -57 273 -30T157 49T76 176T45 348Q45 445 72 528T143 673T243 768T358 803Q401 803 435 788T494 746T530 680T543 596ZM213 354Q213 345 214 336T215 317Q253 335 284 363T337 427T371 505T383 594Q383 628 372
647T340 666Q315 666 296 649T262 605T238 543T222 473T214 407T213 354ZM423 1137Q407 1156 407 1171Q407 1186 416 1198T439 1218T466 1232T490 1237Q512 1237 525 1226T550 1198L736 983Q742 975 747 968T753 952Q753 935 728 920T660 905Q643 905 632 911T615
926L423 1137Z" />
<glyph unicode="&#xe9;" glyph-name="eacute" horiz-adv-x="608" d="M543 596Q543 539 524 479T466 366T371 270T240 205Q250 179 266 156T306 115T359 88T430 78Q490 78 533 100T605 160T653 243T680 336Q687 370 708 381T752 387T791 362T805 315Q801 284 792
244T763 163T715 83T642 12T541 -38T408 -57Q338 -57 273 -30T157 49T76 176T45 348Q45 445 72 528T143 673T243 768T358 803Q401 803 435 788T494 746T530 680T543 596ZM213 354Q213 345 214 336T215 317Q253 335 284 363T337 427T371 505T383 594Q383 628 372
647T340 666Q315 666 296 649T262 605T238 543T222 473T214 407T213 354ZM618 942Q605 922 586 914T550 905Q508 905 489 920T470 952Q470 960 475 967T487 983L673 1198Q676 1215 697 1226T741 1237Q756 1237 771 1233T798 1220T817 1202T825 1178Q825 1164 817
1155T800 1137L618 942Z" />
<glyph unicode="&#xea;" glyph-name="ecircumflex" horiz-adv-x="608" d="M543 596Q543 539 524 479T466 366T371 270T240 205Q250 179 266 156T306 115T359 88T430 78Q490 78 533 100T605 160T653 243T680 336Q687 370 708 381T752 387T791 362T805 315Q801 284
792 244T763 163T715 83T642 12T541 -38T408 -57Q338 -57 273 -30T157 49T76 176T45 348Q45 445 72 528T143 673T243 768T358 803Q401 803 435 788T494 746T530 680T543 596ZM213 354Q213 345 214 336T215 317Q253 335 284 363T337 427T371 505T383 594Q383 628
372 647T340 666Q315 666 296 649T262 605T238 543T222 473T214 407T213 354ZM831 983Q837 975 842 968T847 952Q847 935 822 920T755 905Q738 905 727 911T710 926L609 1081L521 940Q513 926 504 916T472 905Q458 905 443 911T414 926T393 946T384 969Q384 973
388 977L532 1182Q550 1210 575 1223T626 1237Q644 1237 655 1234T673 1223T684 1206T695 1180L831 983Z" />
<glyph unicode="&#xeb;" glyph-name="edieresis" horiz-adv-x="608" d="M543 596Q543 539 524 479T466 366T371 270T240 205Q250 179 266 156T306 115T359 88T430 78Q490 78 533 100T605 160T653 243T680 336Q687 370 708 381T752 387T791 362T805 315Q801 284
792 244T763 163T715 83T642 12T541 -38T408 -57Q338 -57 273 -30T157 49T76 176T45 348Q45 445 72 528T143 673T243 768T358 803Q401 803 435 788T494 746T530 680T543 596ZM213 354Q213 345 214 336T215 317Q253 335 284 363T337 427T371 505T383 594Q383 628
372 647T340 666Q315 666 296 649T262 605T238 543T222 473T214 407T213 354ZM372 1042Q372 1083 400 1111T468 1139Q508 1139 536 1111T564 1042Q564 1002 536 974T468 946Q428 946 400 974T372 1042ZM667 1042Q667 1083 695 1111T763 1139Q803 1139 831 1111T859
1042Q859 1002 831 974T763 946Q723 946 695 974T667 1042Z" />
<glyph unicode="&#xec;" glyph-name="igrave" horiz-adv-x="354" d="M227 172Q227 165 228 150T234 118T250 90T281 78Q311 78 333 100T372 155T400 226T418 299Q424 330 436 344T463 359T492 352T518 329T535 296T537 262Q523 211 501 155T443 52T359 -26T244
-57Q203 -57 171 -42T117 0T84 61T72 135V682Q72 711 68 724T63 748Q63 763 79 772T117 782Q168 782 197 756T227 692V172ZM-42 1128Q-58 1147 -58 1162Q-58 1177 -49 1189T-26 1209T1 1223T25 1228Q47 1228 60 1217T85 1189L271 974Q277 966 282 959T288 943Q288
926 263 911T195 896Q178 896 167 902T150 917L-42 1128Z" />
<glyph unicode="&#xed;" glyph-name="iacute" horiz-adv-x="354" d="M227 172Q227 165 228 150T234 118T250 90T281 78Q311 78 333 100T372 155T400 226T418 299Q424 330 436 344T463 359T492 352T518 329T535 296T537 262Q523 211 501 155T443 52T359 -26T244
-57Q203 -57 171 -42T117 0T84 61T72 135V682Q72 711 68 724T63 748Q63 763 79 772T117 782Q168 782 197 756T227 692V172ZM153 933Q140 913 121 905T85 896Q43 896 24 911T5 943Q5 951 10 958T22 974L208 1189Q211 1206 232 1217T276 1228Q291 1228 306 1224T333
1211T352 1193T360 1169Q360 1155 352 1146T335 1128L153 933Z" />
<glyph unicode="&#xee;" glyph-name="icircumflex" horiz-adv-x="354" d="M227 172Q227 165 228 150T234 118T250 90T281 78Q311 78 333 100T372 155T400 226T418 299Q424 330 436 344T463 359T492 352T518 329T535 296T537 262Q523 211 501 155T443 52T359 -26T244
-57Q203 -57 171 -42T117 0T84 61T72 135V682Q72 711 68 724T63 748Q63 763 79 772T117 782Q168 782 197 756T227 692V172ZM366 974Q372 966 377 959T382 943Q382 926 357 911T290 896Q273 896 262 902T245 917L144 1072L56 931Q48 917 39 907T7 896Q-7 896 -22
902T-51 917T-72 937T-81 960Q-81 964 -77 968L67 1173Q85 1201 110 1214T161 1228Q179 1228 190 1225T208 1214T219 1197T230 1171L366 974Z" />
<glyph unicode="&#xef;" glyph-name="idieresis" horiz-adv-x="354" d="M227 172Q227 165 228 150T234 118T250 90T281 78Q311 78 333 100T372 155T400 226T418 299Q424 330 436 344T463 359T492 352T518 329T535 296T537 262Q523 211 501 155T443 52T359 -26T244
-57Q203 -57 171 -42T117 0T84 61T72 135V682Q72 711 68 724T63 748Q63 763 79 772T117 782Q168 782 197 756T227 692V172ZM-93 1033Q-93 1074 -65 1102T3 1130Q43 1130 71 1102T99 1033Q99 993 71 965T3 937Q-37 937 -65 965T-93 1033ZM202 1033Q202 1074 230
1102T298 1130Q338 1130 366 1102T394 1033Q394 993 366 965T298 937Q258 937 230 965T202 1033Z" />
<glyph unicode="&#xf0;" glyph-name="eth" horiz-adv-x="702" d="M115 1073Q135 1088 160 1106Q181 1121 210 1142T272 1188Q227 1237 191 1262T135 1288Q124 1288 117 1286T100 1284Q92 1284 88 1288T84 1307Q84 1320 94 1342T121 1384T158 1419T199 1434Q217
1434 230 1429T258 1411Q289 1385 322 1352T389 1278Q427 1309 464 1340T539 1405Q541 1426 550 1427T570 1418T592 1388T611 1348T618 1310T608 1284Q566 1255 530 1229T461 1180Q501 1118 537 1043T602 877T646 682T662 457Q662 353 644 260T588 97T490 -15T344
-57Q270 -57 214 -23T121 67T64 195T45 344Q45 456 75 542T149 686T243 773T334 803Q347 803 359 795T380 773T394 744T399 711Q399 703 396 695T387 681T371 673T348 674Q327 662 301 644T253 590T216 498T201 356Q201 291 212 240T244 152T291 97T348 78Q392
78 423 107T475 187T504 303T514 444Q514 555 500 650T462 827T408 974T344 1094Q313 1071 291 1053T253 1023L223 999Q204 984 178 988T132 1006T105 1040T115 1073Z" />
<glyph unicode="&#xf1;" glyph-name="ntilde" horiz-adv-x="754" d="M72 682Q72 711 68 724T63 748Q63 763 79 772T117 782Q168 782 197 756T227 692V600Q248 643 272 680T325 744T386 787T457 803Q508 803 541 784T593 735T619 668T627 596V172Q627 165 628 150T634
118T649 90T680 78Q711 78 733 100T772 155T799 226T817 299Q823 331 837 345T866 360Q878 360 891 353T914 333T931 306T938 276Q938 274 938 271T936 262Q923 211 901 155T843 52T758 -26T643 -57Q602 -57 571 -42T517 0T483 61T471 135V551Q471 575 470 596T465
633T452 658T428 668Q406 668 374 638T311 560T257 452T227 330V31Q227 16 227 1T221 -27T204 -48T170 -57Q155 -57 138 -54T106 -41T82 -14T72 33V682ZM472 973Q472 959 457 953T425 946Q412 946 399 949T376 958T359 971T352 987Q352 1017 363 1050T395 1110T443
1156T507 1174Q549 1174 577 1157T627 1120T669 1082T712 1065Q732 1065 742 1082T753 1128Q753 1140 758 1147T772 1160T790 1167T808 1169Q833 1169 855 1158T878 1133Q878 1083 863 1047T823 985T771 948T716 936Q675 936 645 953T592 992T553 1031T526 1049Q511
1049 502 1042T487 1024T478 1000T472 973Z" />
<glyph unicode="&#xf2;" glyph-name="ograve" horiz-adv-x="750" d="M821 338Q823 350 834 358T861 369T892 369T921 356T939 327T938 279Q929 237 909 201T857 136T784 92T690 76Q662 76 638 79T590 90Q552 24 492 -16T344 -57Q266 -57 210 -27T117 56T63 178T45
324Q45 437 71 526T133 678T202 774T254 807Q274 807 290 790T314 749T319 701T295 664Q283 645 267 620T236 558T211 466T201 336Q201 271 212 223T244 143T291 94T348 78Q392 78 420 99T469 156Q397 218 360 313T322 520Q322 568 332 611T363 688T415 740T487
760Q523 760 555 734T611 662T648 553T662 416Q662 359 655 303T633 195Q644 191 653 191T674 190Q707 190 732 202T776 234T805 281T821 338ZM430 528Q430 459 451 397T508 289Q514 338 514 383Q514 435 513 479T506 556T491 606T465 625Q430 625 430 528ZM431
1392Q415 1411 415 1426Q415 1441 424 1453T447 1473T474 1487T498 1492Q520 1492 533 1481T558 1453L744 1238Q750 1230 755 1223T761 1207Q761 1190 736 1175T668 1160Q651 1160 640 1166T623 1181L431 1392Z" />
<glyph unicode="&#xf3;" glyph-name="oacute" horiz-adv-x="750" d="M821 338Q823 350 834 358T861 369T892 369T921 356T939 327T938 279Q929 237 909 201T857 136T784 92T690 76Q662 76 638 79T590 90Q552 24 492 -16T344 -57Q266 -57 210 -27T117 56T63 178T45
324Q45 437 71 526T133 678T202 774T254 807Q274 807 290 790T314 749T319 701T295 664Q283 645 267 620T236 558T211 466T201 336Q201 271 212 223T244 143T291 94T348 78Q392 78 420 99T469 156Q397 218 360 313T322 520Q322 568 332 611T363 688T415 740T487
760Q523 760 555 734T611 662T648 553T662 416Q662 359 655 303T633 195Q644 191 653 191T674 190Q707 190 732 202T776 234T805 281T821 338ZM430 528Q430 459 451 397T508 289Q514 338 514 383Q514 435 513 479T506 556T491 606T465 625Q430 625 430 528ZM626
1197Q613 1177 594 1169T558 1160Q516 1160 497 1175T478 1207Q478 1215 483 1222T495 1238L681 1453Q684 1470 705 1481T749 1492Q764 1492 779 1488T806 1475T825 1457T833 1433Q833 1419 825 1410T808 1392L626 1197Z" />
<glyph unicode="&#xf4;" glyph-name="ocircumflex" horiz-adv-x="750" d="M821 338Q823 350 834 358T861 369T892 369T921 356T939 327T938 279Q929 237 909 201T857 136T784 92T690 76Q662 76 638 79T590 90Q552 24 492 -16T344 -57Q266 -57 210 -27T117 56T63
178T45 324Q45 437 71 526T133 678T202 774T254 807Q274 807 290 790T314 749T319 701T295 664Q283 645 267 620T236 558T211 466T201 336Q201 271 212 223T244 143T291 94T348 78Q392 78 420 99T469 156Q397 218 360 313T322 520Q322 568 332 611T363 688T415
740T487 760Q523 760 555 734T611 662T648 553T662 416Q662 359 655 303T633 195Q644 191 653 191T674 190Q707 190 732 202T776 234T805 281T821 338ZM430 528Q430 459 451 397T508 289Q514 338 514 383Q514 435 513 479T506 556T491 606T465 625Q430 625 430
528ZM839 1238Q845 1230 850 1223T855 1207Q855 1190 830 1175T763 1160Q746 1160 735 1166T718 1181L617 1336L529 1195Q521 1181 512 1171T480 1160Q466 1160 451 1166T422 1181T401 1201T392 1224Q392 1228 396 1232L540 1437Q558 1465 583 1478T634 1492Q652
1492 663 1489T681 1478T692 1461T703 1435L839 1238Z" />
<glyph unicode="&#xf5;" glyph-name="otilde" horiz-adv-x="750" d="M821 338Q823 350 834 358T861 369T892 369T921 356T939 327T938 279Q929 237 909 201T857 136T784 92T690 76Q662 76 638 79T590 90Q552 24 492 -16T344 -57Q266 -57 210 -27T117 56T63 178T45
324Q45 437 71 526T133 678T202 774T254 807Q274 807 290 790T314 749T319 701T295 664Q283 645 267 620T236 558T211 466T201 336Q201 271 212 223T244 143T291 94T348 78Q392 78 420 99T469 156Q397 218 360 313T322 520Q322 568 332 611T363 688T415 740T487
760Q523 760 555 734T611 662T648 553T662 416Q662 359 655 303T633 195Q644 191 653 191T674 190Q707 190 732 202T776 234T805 281T821 338ZM430 528Q430 459 451 397T508 289Q514 338 514 383Q514 435 513 479T506 556T491 606T465 625Q430 625 430 528ZM488
1228Q488 1214 473 1208T441 1201Q428 1201 415 1204T392 1213T375 1226T368 1242Q368 1272 379 1305T411 1365T459 1411T523 1429Q565 1429 593 1412T643 1375T685 1337T728 1320Q748 1320 758 1337T769 1383Q769 1395 774 1402T788 1415T806 1422T824 1424Q849
1424 871 1413T894 1388Q894 1338 879 1302T839 1240T787 1203T732 1191Q691 1191 661 1208T608 1247T569 1286T542 1304Q527 1304 518 1297T503 1279T494 1255T488 1228Z" />
<glyph unicode="&#xf6;" glyph-name="odieresis" horiz-adv-x="750" d="M821 338Q823 350 834 358T861 369T892 369T921 356T939 327T938 279Q929 237 909 201T857 136T784 92T690 76Q662 76 638 79T590 90Q552 24 492 -16T344 -57Q266 -57 210 -27T117 56T63
178T45 324Q45 437 71 526T133 678T202 774T254 807Q274 807 290 790T314 749T319 701T295 664Q283 645 267 620T236 558T211 466T201 336Q201 271 212 223T244 143T291 94T348 78Q392 78 420 99T469 156Q397 218 360 313T322 520Q322 568 332 611T363 688T415
740T487 760Q523 760 555 734T611 662T648 553T662 416Q662 359 655 303T633 195Q644 191 653 191T674 190Q707 190 732 202T776 234T805 281T821 338ZM430 528Q430 459 451 397T508 289Q514 338 514 383Q514 435 513 479T506 556T491 606T465 625Q430 625 430
528ZM380 1297Q380 1338 408 1366T476 1394Q516 1394 544 1366T572 1297Q572 1257 544 1229T476 1201Q436 1201 408 1229T380 1297ZM675 1297Q675 1338 703 1366T771 1394Q811 1394 839 1366T867 1297Q867 1257 839 1229T771 1201Q731 1201 703 1229T675 1297Z"
/>
<glyph unicode="&#xf7;" glyph-name="divide" horiz-adv-x="819" d="M694 717Q705 717 710 722T721 727Q732 727 736 714T741 684Q741 668 737 649T724 613T704 585T678 573H113Q97 573 89 590T80 631Q80 645 83 660T94 688T111 709T137 717H694ZM319 885Q319
922 345 948T410 975Q447 975 473 949T500 885Q500 848 474 822T410 795Q372 795 346 821T319 885ZM319 406Q319 443 345 469T410 496Q447 496 473 470T500 406Q500 368 474 342T410 315Q372 315 346 341T319 406Z" />
<glyph unicode="&#xf8;" glyph-name="oslash" horiz-adv-x="750" d="M821 338Q823 350 834 358T861 369T892 369T921 356T939 327T938 279Q929 237 909 201T857 136T784 92T690 76Q662 76 638 79T590 90Q552 24 492 -16T344 -57Q312 -57 283 -52T229 -37L150 -203Q145
-212 139 -214T123 -217Q109 -217 95 -212T70 -199T52 -178T45 -152Q45 -138 53 -127L131 35Q86 89 66 164T45 324Q45 437 71 526T133 678T202 774T254 807Q274 807 290 790T314 749T319 701T295 664Q283 645 267 620T236 558T211 466T201 336Q201 298 204 267T215
207L328 434Q322 477 322 520Q322 568 332 611T363 687T413 739T485 760L561 911Q561 914 560 918T559 928Q559 936 561 941T575 946Q584 946 601 942T634 928T662 906T674 874Q674 871 674 866T670 854L590 694Q622 648 642 577T662 416Q662 359 655 303T633 195Q644
191 653 191T674 190Q707 190 732 202T776 234T805 281T821 338ZM348 78Q392 78 420 99T469 156Q441 179 420 207T381 268L293 92Q305 84 319 81T348 78ZM449 406Q458 373 473 344T508 289Q514 338 514 383Q514 425 513 462T508 528L449 406Z" />
<glyph unicode="&#xf9;" glyph-name="ugrave" horiz-adv-x="745" d="M635 -57Q600 -57 572 -46T522 -16T486 30T467 88Q430 23 380 -18T262 -59Q211 -59 171 -38T102 21T60 114T45 236Q45 317 56 399T82 547Q98 624 119 696Q124 709 126 722T138 747T166 765T227
772Q265 772 276 759T285 727T273 690T260 659Q246 602 235 555T217 461T205 362T201 246Q201 162 225 119T295 76Q326 76 352 99T400 160T438 248T463 352V682Q463 704 460 717T453 737T446 749T442 760Q442 765 448 769T464 776T485 780T508 782Q559 782 588
756T618 692V172Q618 165 619 150T625 118T641 90T672 78Q703 78 725 100T764 155T791 226T809 299Q815 331 829 345T858 360Q870 360 883 353T906 333T923 306T930 276Q930 274 930 271T928 262Q914 211 892 155T834 52T750 -26T635 -57ZM433 1384Q417 1403 417
1418Q417 1433 426 1445T449 1465T476 1479T500 1484Q522 1484 535 1473T560 1445L746 1230Q752 1222 757 1215T763 1199Q763 1182 738 1167T670 1152Q653 1152 642 1158T625 1173L433 1384Z" />
<glyph unicode="&#xfa;" glyph-name="uacute" horiz-adv-x="745" d="M635 -57Q600 -57 572 -46T522 -16T486 30T467 88Q430 23 380 -18T262 -59Q211 -59 171 -38T102 21T60 114T45 236Q45 317 56 399T82 547Q98 624 119 696Q124 709 126 722T138 747T166 765T227
772Q265 772 276 759T285 727T273 690T260 659Q246 602 235 555T217 461T205 362T201 246Q201 162 225 119T295 76Q326 76 352 99T400 160T438 248T463 352V682Q463 704 460 717T453 737T446 749T442 760Q442 765 448 769T464 776T485 780T508 782Q559 782 588
756T618 692V172Q618 165 619 150T625 118T641 90T672 78Q703 78 725 100T764 155T791 226T809 299Q815 331 829 345T858 360Q870 360 883 353T906 333T923 306T930 276Q930 274 930 271T928 262Q914 211 892 155T834 52T750 -26T635 -57ZM628 1189Q615 1169 596
1161T560 1152Q518 1152 499 1167T480 1199Q480 1207 485 1214T497 1230L683 1445Q686 1462 707 1473T751 1484Q766 1484 781 1480T808 1467T827 1449T835 1425Q835 1411 827 1402T810 1384L628 1189Z" />
<glyph unicode="&#xfb;" glyph-name="ucircumflex" horiz-adv-x="745" d="M635 -57Q600 -57 572 -46T522 -16T486 30T467 88Q430 23 380 -18T262 -59Q211 -59 171 -38T102 21T60 114T45 236Q45 317 56 399T82 547Q98 624 119 696Q124 709 126 722T138 747T166
765T227 772Q265 772 276 759T285 727T273 690T260 659Q246 602 235 555T217 461T205 362T201 246Q201 162 225 119T295 76Q326 76 352 99T400 160T438 248T463 352V682Q463 704 460 717T453 737T446 749T442 760Q442 765 448 769T464 776T485 780T508 782Q559
782 588 756T618 692V172Q618 165 619 150T625 118T641 90T672 78Q703 78 725 100T764 155T791 226T809 299Q815 331 829 345T858 360Q870 360 883 353T906 333T923 306T930 276Q930 274 930 271T928 262Q914 211 892 155T834 52T750 -26T635 -57ZM841 1230Q847
1222 852 1215T857 1199Q857 1182 832 1167T765 1152Q748 1152 737 1158T720 1173L619 1328L531 1187Q523 1173 514 1163T482 1152Q468 1152 453 1158T424 1173T403 1193T394 1216Q394 1220 398 1224L542 1429Q560 1457 585 1470T636 1484Q654 1484 665 1481T683
1470T694 1453T705 1427L841 1230Z" />
<glyph unicode="&#xfc;" glyph-name="udieresis" horiz-adv-x="745" d="M635 -57Q600 -57 572 -46T522 -16T486 30T467 88Q430 23 380 -18T262 -59Q211 -59 171 -38T102 21T60 114T45 236Q45 317 56 399T82 547Q98 624 119 696Q124 709 126 722T138 747T166 765T227
772Q265 772 276 759T285 727T273 690T260 659Q246 602 235 555T217 461T205 362T201 246Q201 162 225 119T295 76Q326 76 352 99T400 160T438 248T463 352V682Q463 704 460 717T453 737T446 749T442 760Q442 765 448 769T464 776T485 780T508 782Q559 782 588
756T618 692V172Q618 165 619 150T625 118T641 90T672 78Q703 78 725 100T764 155T791 226T809 299Q815 331 829 345T858 360Q870 360 883 353T906 333T923 306T930 276Q930 274 930 271T928 262Q914 211 892 155T834 52T750 -26T635 -57ZM382 1289Q382 1330 410
1358T478 1386Q518 1386 546 1358T574 1289Q574 1249 546 1221T478 1193Q438 1193 410 1221T382 1289ZM677 1289Q677 1330 705 1358T773 1386Q813 1386 841 1358T869 1289Q869 1249 841 1221T773 1193Q733 1193 705 1221T677 1289Z" />
<glyph unicode="&#xfd;" glyph-name="yacute" horiz-adv-x="735" d="M799 299Q808 331 820 345T848 360Q860 360 873 353T896 333T913 306T920 276Q920 274 920 268T918 256Q892 167 858 99T784 -24T702 -120T618 -199V-553Q618 -634 600 -689T551 -779T483 -829T406
-844Q363 -844 327 -826T265 -775T224 -700T209 -608Q209 -530 229 -470T285 -360T366 -267T463 -178V82Q426 20 377 -19T262 -59Q211 -59 171 -38T102 21T60 114T45 236Q45 317 56 399T82 547Q98 624 119 696Q124 709 126 722T138 747T166 765T227 772Q265 772
276 759T285 727T273 690T260 659Q246 602 235 555T217 461T205 362T201 246Q201 162 225 119T295 76Q326 76 352 99T400 160T438 248T463 352V682Q463 711 459 724T455 748Q455 763 470 772T508 782Q559 782 588 756T618 692V-27Q674 35 721 114T799 299ZM406
-715Q430 -715 442 -695T458 -649T463 -595T463 -553V-334Q413 -384 383 -447T352 -602Q352 -650 366 -682T406 -715ZM393 1189Q380 1169 361 1161T325 1152Q283 1152 264 1167T245 1199Q245 1207 250 1214T262 1230L448 1445Q451 1462 472 1473T516 1484Q531 1484
546 1480T573 1467T592 1449T600 1425Q600 1411 592 1402T575 1384L393 1189Z" />
<glyph unicode="&#xfe;" glyph-name="thorn" horiz-adv-x="739" d="M227 694Q259 741 304 772T414 803Q474 803 518 775T592 699T636 584T651 442Q651 356 636 278T598 143Q649 146 682 157T737 187T776 235T811 299Q825 328 834 341T858 354Q871 354 884 346T908
326T925 301T932 276Q932 241 908 196T835 111T710 44T532 16Q490 -29 435 -53T326 -78Q288 -78 264 -70T227 -47V-713Q227 -741 216 -758T189 -786T153 -799T119 -803Q88 -803 80 -787T72 -748V1307Q72 1329 69 1342T62 1362T55 1374T51 1384Q51 1390 57 1394T73
1401T94 1405T117 1407Q168 1407 197 1381T227 1317V694ZM362 666Q340 666 320 653T281 618T250 563T227 494V51Q249 83 299 100T420 123Q438 150 451 187T474 265T487 343T492 410Q492 480 482 529T453 608T412 652T362 666Z" />
<glyph unicode="&#xff;" glyph-name="ydieresis" horiz-adv-x="735" d="M799 299Q808 331 820 345T848 360Q860 360 873 353T896 333T913 306T920 276Q920 274 920 268T918 256Q892 167 858 99T784 -24T702 -120T618 -199V-553Q618 -634 600 -689T551 -779T483
-829T406 -844Q363 -844 327 -826T265 -775T224 -700T209 -608Q209 -530 229 -470T285 -360T366 -267T463 -178V82Q426 20 377 -19T262 -59Q211 -59 171 -38T102 21T60 114T45 236Q45 317 56 399T82 547Q98 624 119 696Q124 709 126 722T138 747T166 765T227 772Q265
772 276 759T285 727T273 690T260 659Q246 602 235 555T217 461T205 362T201 246Q201 162 225 119T295 76Q326 76 352 99T400 160T438 248T463 352V682Q463 711 459 724T455 748Q455 763 470 772T508 782Q559 782 588 756T618 692V-27Q674 35 721 114T799 299ZM406
-715Q430 -715 442 -695T458 -649T463 -595T463 -553V-334Q413 -384 383 -447T352 -602Q352 -650 366 -682T406 -715ZM405 1289Q405 1330 433 1358T501 1386Q541 1386 569 1358T597 1289Q597 1249 569 1221T501 1193Q461 1193 433 1221T405 1289ZM700 1289Q700
1330 728 1358T796 1386Q836 1386 864 1358T892 1289Q892 1249 864 1221T796 1193Q756 1193 728 1221T700 1289Z" />
<glyph unicode="&#x2013;" glyph-name="endash" horiz-adv-x="1024" d="M877 600Q888 600 893 605T903 610Q914 610 919 597T924 567Q924 551 919 535T906 506T886 485T860 477H129Q114 477 105 494T96 535Q96 562 110 581T154 600H877Z" />
<glyph unicode="&#x2014;" glyph-name="emdash" horiz-adv-x="2048" d="M1997 600Q2008 600 2013 605T2023 610Q2034 610 2039 597T2044 567Q2044 551 2039 535T2026 506T2006 485T1980 477H29Q13 477 5 494T-4 535Q-4 562 10 581T53 600H1997Z" />
<glyph unicode="&#x2018;" glyph-name="quoteleft" horiz-adv-x="369" d="M178 1055Q158 1055 140 1062T108 1085T86 1122T78 1176Q78 1204 94 1242T135 1316T185 1376T231 1401Q244 1401 255 1395T274 1379T286 1358T291 1337Q291 1329 287 1328T276 1323Q265
1320 245 1297T203 1245Q235 1237 257 1212T279 1153Q279 1132 271 1115T248 1084T216 1063T178 1055Z" />
<glyph unicode="&#x2019;" glyph-name="quoteright" horiz-adv-x="369" d="M190 1403Q210 1403 228 1396T261 1373T283 1336T291 1282Q291 1253 274 1215T233 1141T183 1082T137 1057Q124 1057 113 1063T95 1079T83 1100T78 1120Q78 1128 82 1129T92 1135Q103
1138 123 1160T166 1212Q134 1220 112 1245T90 1305Q90 1326 98 1343T120 1374T152 1395T190 1403Z" />
<glyph unicode="&#x201a;" glyph-name="quotesinglbase" horiz-adv-x="369" d="M190 150Q210 150 228 143T261 120T283 83T291 29Q291 0 274 -38T233 -112T183 -172T137 -197Q124 -197 113 -191T95 -175T83 -154T78 -133Q78 -125 82 -124T92 -119Q103 -116 123
-93T166 -41Q134 -33 112 -8T90 51Q90 72 98 90T120 121T152 142T190 150Z" />
<glyph unicode="&#x201c;" glyph-name="quotedblleft" horiz-adv-x="621" d="M430 1055Q410 1055 392 1062T360 1085T338 1122T330 1176Q330 1204 346 1242T387 1316T437 1376T483 1401Q496 1401 507 1395T526 1379T538 1358T543 1337Q543 1329 539 1328T528 1323Q517
1320 497 1297T455 1245Q487 1237 508 1212T530 1153Q530 1132 522 1115T500 1084T468 1063T430 1055ZM178 1055Q158 1055 140 1062T108 1085T86 1122T78 1176Q78 1204 94 1242T135 1316T185 1376T231 1401Q244 1401 255 1395T274 1379T286 1358T291 1337Q291 1329
287 1328T276 1323Q265 1320 245 1297T203 1245Q235 1237 257 1212T279 1153Q279 1132 271 1115T248 1084T216 1063T178 1055Z" />
<glyph unicode="&#x201d;" glyph-name="quotedblright" horiz-adv-x="621" d="M190 1403Q210 1403 228 1396T261 1373T283 1336T291 1282Q291 1253 274 1215T233 1141T183 1082T137 1057Q124 1057 113 1063T95 1079T83 1100T78 1120Q78 1128 82 1129T92 1135Q103
1138 123 1160T166 1212Q134 1220 112 1245T90 1305Q90 1326 98 1343T120 1374T152 1395T190 1403ZM442 1403Q462 1403 480 1396T513 1373T535 1336T543 1282Q543 1253 526 1215T485 1141T435 1082T389 1057Q376 1057 365 1063T347 1079T335 1100T330 1120Q330
1128 334 1129T344 1135Q355 1138 375 1160T418 1212Q386 1220 364 1245T342 1305Q342 1326 350 1343T372 1374T404 1395T442 1403Z" />
<glyph unicode="&#x201e;" glyph-name="quotedblbase" horiz-adv-x="621" d="M190 150Q210 150 228 143T261 120T283 83T291 29Q291 0 274 -38T233 -112T183 -172T137 -197Q124 -197 113 -191T95 -175T83 -154T78 -133Q78 -125 82 -124T92 -119Q103 -116 123 -93T166
-41Q134 -33 112 -8T90 51Q90 72 98 90T120 121T152 142T190 150ZM442 150Q462 150 480 143T513 120T535 83T543 29Q543 0 526 -38T485 -112T435 -172T389 -197Q376 -197 365 -191T347 -175T335 -154T330 -133Q330 -125 334 -124T344 -119Q355 -116 375 -93T418
-41Q386 -33 364 -8T342 51Q342 72 350 90T372 121T404 142T442 150Z" />
<glyph unicode="&#x2022;" glyph-name="bullet" horiz-adv-x="653" d="M143 668Q143 706 157 739T196 798T254 837T326 852Q364 852 397 838T456 798T495 740T510 668Q510 630 496 597T456 539T398 500T326 485Q288 485 255 499T197 538T158 596T143 668Z" />
<glyph unicode="&#x2039;" glyph-name="guilsinglleft" horiz-adv-x="721" d="M440 813Q450 822 459 832T485 842Q493 842 502 834T519 811T532 780T537 745Q537 731 532 716T514 688L299 496L514 305Q525 294 530 284T535 254Q535 237 529 221T514 191T494 170T471
162Q460 162 457 166T451 172L186 412Q159 430 151 457T143 510Q143 532 151 547T188 575L440 813Z" />
<glyph unicode="&#x203a;" glyph-name="guilsinglright" horiz-adv-x="721" d="M281 190Q271 181 262 172T236 162Q228 162 219 170T202 193T189 224T184 258Q184 272 189 287T207 315L422 508L215 694Q210 700 205 704T195 712T187 723T184 739Q184 756 190 774T206
807T227 832T250 842Q261 842 264 838T270 831L535 592Q561 583 569 564T578 518Q578 496 566 472T532 428L281 190Z" />
</font>
</defs>
</svg>
