<?xml version="1.0" standalone="no"?>
<!DOCTYPE svg PUBLIC "-//W3C//DTD SVG 1.1//EN" "http://www.w3.org/Graphics/SVG/1.1/DTD/svg11.dtd">
<svg xmlns="http://www.w3.org/2000/svg">
<defs >
<font id="Prompt" horiz-adv-x="598" ><font-face
    font-family="Prompt SemiBold"
    units-per-em="1000"
    panose-1="0 0 7 0 0 0 0 0 0 0"
    ascent="1090"
    descent="-422"
    alphabetic="0" />
<glyph unicode=" " glyph-name="space" horiz-adv-x="350" />
<glyph unicode="!" glyph-name="exclam" horiz-adv-x="229" d="M41 699H189V219H41V699ZM80 -15T56 8T32 66Q32 100 56 123T115 147Q149 147 173 124T197 66Q197 32 173 9T115 -15Q80 -15 56 8Z" />
<glyph unicode="&quot;" glyph-name="quotedbl" horiz-adv-x="355" d="M32 699H144V500H32V699ZM210 699H322V500H210V699Z" />
<glyph unicode="#" glyph-name="numbersign" horiz-adv-x="773" d="M119 149H32V264H151L193 411H75V525H225L274 699H409L360 525H525L574 699H710L661 525H741V411H629L587 264H698V149H555L513 0H377L419 149H254L212 0H77L119 149ZM451 264L493 411H328L286 264H451Z" />
<glyph unicode="$" glyph-name="dollar" horiz-adv-x="568" d="M232 -14Q176 -12 125 -1T40 27V136Q129 93 232 88V310Q134 350 90 399T46 521Q46 594 96 644T232 709V802H340V712Q421 706 491 675V569Q415 606 340 610V393Q407 364 447 336T507 271T527 181Q527
103 480 54T340 -9V-103H232V-14ZM232 596Q181 574 181 521Q181 493 193 475T232 441V596ZM390 128T390 182Q390 209 378 227T340 261V104Q390 128 390 182Z" />
<glyph unicode="%" glyph-name="percent" horiz-adv-x="892" d="M168 347T126 371T60 438T35 530Q35 580 59 622T126 689T218 714Q268 714 310 690T377 623T402 530Q402 480 378 438T311 372T218 347Q168 347 126 371ZM566 699H717L330 0H179L566 699ZM254 445T277
468T301 527Q301 563 278 587T218 611Q183 611 160 587T136 527Q136 493 160 469T218 445Q254 445 277 468ZM625 -15T583 9T517 76T492 168Q492 218 516 260T583 327T675 352Q725 352 767 328T834 261T859 168Q859 118 835 76T768 10T675 -15Q625 -15 583 9ZM710
83T733 106T757 165Q757 201 734 225T674 249Q639 249 616 225T592 165Q592 131 616 107T674 83Q710 83 733 106Z" />
<glyph unicode="&amp;" glyph-name="ampersand" horiz-adv-x="788" d="M173 -15T103 36T32 178Q32 244 66 290T175 382Q132 423 111 460T90 544Q90 593 115 631T187 692T296 714Q356 714 401 692T472 631T497 544Q497 487 471 447T381 365L528 226Q551 267 551
364H678Q678 286 667 235T626 133L765 0H584L525 54Q483 18 425 2T287 -15Q173 -15 103 36ZM333 460T351 482T370 534Q370 567 350 587T296 607Q262 607 243 587T223 534Q223 509 238 488T290 434Q333 460 351 482ZM338 88T375 101T437 137L274 296Q224 273 201
245T178 178Q178 134 211 111T292 88Q338 88 375 101Z" />
<glyph unicode="&apos;" glyph-name="quotesingle" horiz-adv-x="177" d="M32 699H144V500H32V699Z" />
<glyph unicode="(" glyph-name="parenleft" horiz-adv-x="351" d="M32 10T32 270Q32 530 182 714H339Q187 519 187 270Q187 21 339 -174H182Q32 10 32 270Z" />
<glyph unicode=")" glyph-name="parenright" horiz-adv-x="351" d="M164 21T164 270Q164 519 12 714H169Q319 530 319 270Q319 10 169 -174H12Q164 21 164 270Z" />
<glyph unicode="*" glyph-name="asterisk" horiz-adv-x="440" d="M72 415L148 518L37 559L67 638L169 602V699H271V602L373 639L403 559L293 519L369 416L289 364L221 459L152 363L72 415Z" />
<glyph unicode="+" glyph-name="plus" horiz-adv-x="409" d="M144 243H32V359H144V473H264V359H376V243H264V129H144V243Z" />
<glyph unicode="," glyph-name="comma" horiz-adv-x="304" d="M115 59H271L170 -149H32L115 59Z" />
<glyph unicode="-" glyph-name="hyphen" horiz-adv-x="409" d="M32 361H376V241H32V361Z" />
<glyph unicode="." glyph-name="period" horiz-adv-x="179" d="M65 0T49 16T32 56Q32 80 49 97T89 114Q113 114 130 97T147 56Q147 32 130 16T89 0Q65 0 49 16Z" />
<glyph unicode="/" glyph-name="slash" horiz-adv-x="501" d="M317 714H469L184 0H32L317 714Z" />
<glyph unicode="0" glyph-name="zero" horiz-adv-x="688" d="M249 -15T179 28T70 154T32 349Q32 462 69 544T177 670T344 714Q440 714 510 670T617 544T655 349Q655 237 617 155T509 29T344 -15Q249 -15 179 28ZM419 125T460 184T501 347Q501 452 461 512T344
572Q268 572 228 512T187 347Q187 243 228 184T344 125Q419 125 460 184Z" />
<glyph unicode="1" glyph-name="one" horiz-adv-x="381" d="M177 533L32 428V574L202 699H329V0H177V533Z" />
<glyph unicode="2" glyph-name="two" horiz-adv-x="583" d="M32 91L157 205Q195 239 214 255Q271 305 301 335T350 399T369 467Q369 516 341 544T252 572Q202 572 152 555T60 505V650Q104 681 160 697T283 714Q359 714 414 686T498 607T527 490Q527 416 490 359T368
223L261 125H551V0H32V91Z" />
<glyph unicode="3" glyph-name="three" horiz-adv-x="577" d="M192 -15T133 -5T32 27V145Q129 101 235 101Q313 101 351 127T390 201Q390 252 352 273T235 295H143V411H231Q296 411 332 434T369 504Q369 550 336 574T244 598Q188 598 141 585T48 542V662Q93 687
149 700T265 714Q396 714 460 661T524 510Q524 462 500 421T427 354Q544 311 544 194Q544 -15 257 -15Q192 -15 133 -5Z" />
<glyph unicode="4" glyph-name="four" horiz-adv-x="612" d="M340 155H12V247L346 699H496V272H599V155H496V0H340V155ZM362 272V518L182 272H362Z" />
<glyph unicode="5" glyph-name="five" horiz-adv-x="577" d="M183 -15T127 -3T32 32V163Q76 135 130 120T234 104Q312 104 351 134T390 223Q390 279 352 309T243 339Q208 339 170 332T102 313L41 348L69 699H498V574H212L201 439Q256 451 311 451Q421 451 482
392T544 226Q544 111 468 48T241 -15Q183 -15 127 -3Z" />
<glyph unicode="6" glyph-name="six" horiz-adv-x="623" d="M233 -15T169 22T69 130T32 298Q32 429 75 523T196 665T379 714Q445 714 497 698V572Q455 593 391 593Q305 593 253 544T190 399Q219 429 265 445T364 461Q431 461 482 434T562 354T591 230Q591 160
559 105T465 17T315 -15Q233 -15 169 22ZM370 100T404 134T439 222Q439 276 405 311T316 346Q265 346 230 311T195 222Q195 172 229 136T316 100Q370 100 404 134Z" />
<glyph unicode="7" glyph-name="seven" horiz-adv-x="539" d="M356 574H22V699H517V596L246 0H95L356 574Z" />
<glyph unicode="8" glyph-name="eight" horiz-adv-x="617" d="M182 -15T107 40T32 197Q32 259 62 301T142 363Q101 386 79 426T56 515Q56 608 124 661T309 714Q425 714 493 661T561 515Q561 465 539 426T475 363Q525 344 555 302T585 197Q585 95 511 40T309 -15Q182
-15 107 40ZM356 402T386 429T416 499Q416 543 386 570T309 598Q262 598 233 571T203 499Q203 456 232 429T309 402Q356 402 386 429ZM364 99T397 129T431 210Q431 260 397 289T309 319Q255 319 221 290T187 210Q187 159 220 129T309 99Q364 99 397 129Z" />
<glyph unicode="9" glyph-name="nine" horiz-adv-x="623" d="M174 -15T126 0V126Q171 105 232 105Q318 105 371 154T435 299Q406 269 363 254T266 238Q197 238 144 266T62 346T32 470Q32 540 64 595T158 682T308 714Q393 714 457 677T556 569T591 400Q591 268
548 175T427 33T244 -15Q174 -15 126 0ZM360 352T395 387T430 475Q430 526 396 562T308 598Q255 598 221 564T186 475Q186 422 220 387T308 352Q360 352 395 387Z" />
<glyph unicode=":" glyph-name="colon" horiz-adv-x="217" d="M77 341T55 363T32 417Q32 448 54 470T108 493Q140 493 162 471T184 417Q184 386 162 364T108 341Q77 341 55 363ZM77 12T55 34T32 88Q32 119 54 141T108 164Q140 164 162 142T184 88Q184 57 162 35T108
12Q77 12 55 34Z" />
<glyph unicode=";" glyph-name="semicolon" horiz-adv-x="304" d="M154 341T132 363T109 417Q109 448 131 470T185 493Q217 493 239 471T261 417Q261 386 239 364T185 341Q154 341 132 363ZM115 59H271L170 -149H32L115 59Z" />
<glyph unicode="&lt;" glyph-name="less" horiz-adv-x="536" d="M32 272V378L504 609V455L225 324L504 194V40L32 272Z" />
<glyph unicode="=" glyph-name="equal" horiz-adv-x="523" d="M32 509H491V391H32V509ZM32 286H491V167H32V286Z" />
<glyph unicode="&gt;" glyph-name="greater" horiz-adv-x="536" d="M32 194L311 324L32 455V609L504 378V272L32 40V194Z" />
<glyph unicode="?" glyph-name="question" horiz-adv-x="521" d="M146 241Q146 296 167 336T233 408Q240 414 246 418T259 426Q298 452 314 470T331 515Q331 550 303 568T219 587Q172 587 123 576T32 544V673Q123 714 230 714Q350 714 419 664T489 522Q489 486
477 460T443 413T383 365Q343 335 327 321T303 288T294 240V219H146V241ZM184 -15T161 8T137 66Q137 101 160 124T219 147Q253 147 277 124T301 66Q301 32 277 9T219 -15Q184 -15 161 8Z" />
<glyph unicode="@" glyph-name="at" horiz-adv-x="906" d="M324 -76T230 -34T84 89T32 285Q32 410 88 507T245 659T479 714Q601 714 690 674T826 555T874 368Q874 251 823 179T681 107Q646 107 616 124T573 169Q549 139 511 123T428 107Q346 107 296 152T245 286Q245
354 273 408T355 494T479 526Q523 526 568 516T646 488L633 260Q631 230 643 214T678 197Q750 197 750 368Q750 490 684 548T479 606Q383 606 310 568T197 458T156 285Q156 158 231 94T449 29Q551 29 629 56V-47Q552 -76 449 -76Q324 -76 230 -34ZM478 206T499
227T522 281L530 418Q509 427 476 427Q430 427 401 390T371 295Q371 206 440 206Q478 206 499 227Z" />
<glyph unicode="A" glyph-name="A" horiz-adv-x="772" d="M312 699H461L740 0H585L525 152H248L188 0H32L312 699ZM485 273L386 539L287 273H485Z" />
<glyph unicode="B" glyph-name="B" horiz-adv-x="661" d="M52 699H395Q494 699 550 650T606 508Q606 461 584 423T524 363Q576 344 602 306T628 205Q628 142 600 96T522 25T412 0H52V699ZM366 415Q406 415 429 435T452 499Q452 547 430 565T361 583H204V415H366ZM375
116Q424 116 449 135T475 204Q475 254 449 276T370 298H204V116H375Z" />
<glyph unicode="C" glyph-name="C" horiz-adv-x="693" d="M298 -15T212 29T79 156T32 349Q32 460 79 542T212 669T410 714Q555 714 652 648V504Q608 541 552 557T423 574Q314 574 251 514T187 349Q187 244 251 184T423 123Q497 123 554 140T660 197V53Q568 -15
410 -15Q298 -15 212 29Z" />
<glyph unicode="D" glyph-name="D" horiz-adv-x="703" d="M52 699H295Q409 699 494 657T625 537T671 353Q671 179 570 90T287 0H52V699ZM295 127Q402 127 459 187T516 353Q516 416 491 466T418 544T305 572H204V127H295Z" />
<glyph unicode="E" glyph-name="E" horiz-adv-x="559" d="M52 699H537V572H204V410H449V288H204V127H537V0H52V699Z" />
<glyph unicode="F" glyph-name="F" horiz-adv-x="549" d="M52 699H537V571H204V408H449V291H204V0H52V699Z" />
<glyph unicode="G" glyph-name="G" horiz-adv-x="704" d="M298 -15T212 29T79 156T32 349Q32 460 79 542T212 669T410 714Q486 714 544 699T652 650V505Q608 541 552 557T423 574Q356 574 303 547T218 468T187 349Q187 280 215 229T296 149T416 121Q478 121 524
143V278H411V390H671V53Q572 -15 410 -15Q298 -15 212 29Z" />
<glyph unicode="H" glyph-name="H" horiz-adv-x="713" d="M52 699H204V419H509V699H661V0H509V293H204V0H52V699Z" />
<glyph unicode="I" glyph-name="I" horiz-adv-x="257" d="M52 699H204V0H52V699Z" />
<glyph unicode="J" glyph-name="J" horiz-adv-x="387" d="M99 -15T65 -9T12 6V137Q27 130 50 126T96 122Q141 122 163 143T185 209V699H337V195Q337 98 283 42T130 -15Q99 -15 65 -9Z" />
<glyph unicode="K" glyph-name="K" horiz-adv-x="701" d="M52 699H204V395L468 699H649L353 358L669 0H488L204 321V0H52V699Z" />
<glyph unicode="L" glyph-name="L" horiz-adv-x="537" d="M52 699H204V127H524V0H52V699Z" />
<glyph unicode="M" glyph-name="M" horiz-adv-x="835" d="M52 699H202L417 231L633 699H782V0H637V397L452 0H382L198 397V0H52V699Z" />
<glyph unicode="N" glyph-name="N" horiz-adv-x="696" d="M52 699H200L492 247V699H644V0H497L204 452V0H52V699Z" />
<glyph unicode="O" glyph-name="O" horiz-adv-x="810" d="M301 -15T216 31T81 159T32 349Q32 456 81 539T215 668T406 714Q511 714 595 668T729 539T778 349Q778 242 729 160T596 31T406 -15Q301 -15 216 31ZM466 125T515 152T594 230T623 349Q623 416 595 466T517
544T406 572Q344 572 295 545T216 467T187 349Q187 281 216 231T295 153T406 125Q466 125 515 152Z" />
<glyph unicode="P" glyph-name="P" horiz-adv-x="625" d="M52 699H346Q465 699 536 637T607 463Q607 349 537 288T346 227H204V0H52V699ZM324 354Q453 354 453 463Q453 524 419 548T324 572H204V354H324Z" />
<glyph unicode="Q" glyph-name="Q" horiz-adv-x="808" d="M307 0T218 42T81 164T32 351Q32 458 81 540T215 668T406 714Q511 714 595 669T729 541T778 351Q778 285 748 223T671 124H793V0H425Q307 0 218 42ZM469 133T518 158T595 233T623 350Q623 417 595 467T517
545T406 572Q344 572 295 545T216 468T187 350Q187 248 247 191T406 133Q469 133 518 158Z" />
<glyph unicode="R" glyph-name="R" horiz-adv-x="640" d="M52 699H355Q474 699 540 640T607 468Q607 390 571 336T469 256L602 0H446L323 237H204V0H52V699ZM328 364Q386 364 419 389T453 468Q453 525 420 548T328 572H204V364H328Z" />
<glyph unicode="S" glyph-name="S" horiz-adv-x="568" d="M198 -15T135 -3T32 29V163Q85 137 142 124T251 111Q309 111 339 131T369 187Q369 213 354 231T311 263T223 302Q125 342 81 391T37 514Q37 573 69 618T159 689T293 714Q355 714 403 704T497 673V543Q409
587 321 587Q265 587 233 568T201 512Q201 486 216 469T258 439T346 401Q417 371 457 344T516 279T535 186Q535 91 467 38T262 -15Q198 -15 135 -3Z" />
<glyph unicode="T" glyph-name="T" horiz-adv-x="590" d="M219 572H15V699H575V572H371V0H219V572Z" />
<glyph unicode="U" glyph-name="U" horiz-adv-x="711" d="M203 -15T125 65T47 282V699H199V280Q199 204 241 164T356 124Q428 124 469 164T511 280V699H663V282Q663 146 586 66T356 -15Q203 -15 125 65Z" />
<glyph unicode="V" glyph-name="V" horiz-adv-x="772" d="M32 699H194L386 202L579 699H740L461 0H312L32 699Z" />
<glyph unicode="W" glyph-name="W" horiz-adv-x="993" d="M32 699H192L317 247L440 699H557L676 247L801 699H960L764 0H621L496 443L372 0H228L32 699Z" />
<glyph unicode="X" glyph-name="X" horiz-adv-x="750" d="M288 352L36 699H210L375 471L541 699H715L462 352L718 0H544L375 232L206 0H32L288 352Z" />
<glyph unicode="Y" glyph-name="Y" horiz-adv-x="732" d="M288 266L32 699H194L363 408L538 699H699L437 266V0H288V266Z" />
<glyph unicode="Z" glyph-name="Z" horiz-adv-x="615" d="M32 101L374 572H41V699H562V597L222 127H582V0H32V101Z" />
<glyph unicode="[" glyph-name="bracketleft" horiz-adv-x="328" d="M32 787H305V660H184V31H305V-96H32V787Z" />
<glyph unicode="\" glyph-name="backslash" horiz-adv-x="501" d="M32 714H184L469 0H317L32 714Z" />
<glyph unicode="]" glyph-name="bracketright" horiz-adv-x="328" d="M22 31H143V660H22V787H295V-96H22V31Z" />
<glyph unicode="^" glyph-name="asciicircum" horiz-adv-x="574" d="M227 719H347L542 383H397L287 579L177 383H32L227 719Z" />
<glyph unicode="_" glyph-name="underscore" horiz-adv-x="483" d="M32 0H451V-128H32V0Z" />
<glyph unicode="`" glyph-name="grave" horiz-adv-x="293" d="M32 744H191L260 568H121L32 744Z" />
<glyph unicode="a" glyph-name="a" horiz-adv-x="585" d="M143 -15T88 29T32 151Q32 231 85 275T235 320Q278 320 317 311T386 286V298Q386 343 354 364T256 385Q168 385 94 352V462Q126 476 177 485T279 495Q409 495 473 442T537 292V0H395V44Q334 -15 231 -15Q143
-15 88 29ZM309 85T339 99T386 138V186Q335 220 274 220Q232 220 210 203T187 151Q187 119 209 102T272 85Q309 85 339 99Z" />
<glyph unicode="b" glyph-name="b" horiz-adv-x="665" d="M322 -15T279 1T198 52V0H52V739H203V437Q235 465 281 480T378 495Q453 495 510 463T600 372T632 239Q632 163 600 106T511 17T378 -15Q322 -15 279 1ZM401 102T439 139T478 239Q478 301 440 339T340 377Q293
377 256 352T203 285V194Q219 152 256 127T340 102Q401 102 439 139Z" />
<glyph unicode="c" glyph-name="c" horiz-adv-x="543" d="M186 -15T109 51T32 239Q32 360 109 427T317 495Q435 495 505 451V332Q473 355 431 366T341 377Q271 377 229 343T187 239Q187 169 228 136T340 102Q437 102 511 149V31Q437 -15 316 -15Q186 -15 109 51Z" />
<glyph unicode="d" glyph-name="d" horiz-adv-x="665" d="M212 -15T155 16T65 105T32 239Q32 314 64 372T154 462T286 495Q340 495 385 480T461 437V739H612V0H466V52Q429 17 386 1T286 -15Q212 -15 155 16ZM372 102T408 127T461 194V285Q447 326 410 351T325
377Q264 377 226 339T187 239Q187 177 225 140T325 102Q372 102 408 127Z" />
<glyph unicode="e" glyph-name="e" horiz-adv-x="604" d="M190 -15T111 51T32 238Q32 357 102 426T304 495Q390 495 450 463T541 375T572 247V186H176Q192 94 348 94Q394 94 443 102T528 124V18Q493 3 438 -6T328 -15Q190 -15 111 51ZM429 284Q426 332 393 358T302
385Q245 385 212 358T176 284H429Z" />
<glyph unicode="f" glyph-name="f" horiz-adv-x="369" d="M81 371H12V480H81V551Q81 644 138 694T286 744Q338 744 376 728V607Q347 620 315 620Q273 620 253 601T232 539V480H346V371H232V0H81V371Z" />
<glyph unicode="g" glyph-name="g" horiz-adv-x="665" d="M262 -230T214 -221T132 -197V-86Q209 -120 310 -120Q391 -120 426 -87T461 12V42Q430 14 385 0T289 -15Q215 -15 157 17T65 108T32 240Q32 316 64 374T154 463T286 495Q342 495 385 479T466 428V480H612V31Q612
-94 538 -162T310 -230Q262 -230 214 -221ZM372 102T409 127T461 195V285Q445 327 409 352T325 377Q264 377 226 340T187 241Q187 178 225 140T325 102Q372 102 409 127Z" />
<glyph unicode="h" glyph-name="h" horiz-adv-x="615" d="M52 739H203V425Q237 460 280 477T372 495Q470 495 518 443T567 301V0H416V284Q416 377 330 377Q292 377 259 359T203 304V0H52V739Z" />
<glyph unicode="i" glyph-name="i" horiz-adv-x="270" d="M100 554T76 577T52 635Q52 669 76 692T135 716Q170 716 194 693T218 635Q218 600 194 577T135 554Q100 554 76 577ZM59 480H211V0H59V480Z" />
<glyph unicode="j" glyph-name="j" horiz-adv-x="267" d="M97 554T73 577T49 635Q49 669 73 692T132 716Q166 716 190 693T214 635Q214 600 190 577T132 554Q97 554 73 577ZM-51 -231T-85 -216V-95Q-59 -108 -20 -108Q18 -108 37 -89T56 -29V480H207V-46Q207 -138
152 -184T5 -231Q-51 -231 -85 -216Z" />
<glyph unicode="k" glyph-name="k" horiz-adv-x="610" d="M52 739H203V277L378 480H553L350 246L578 0H403L203 216V0H52V739Z" />
<glyph unicode="l" glyph-name="l" horiz-adv-x="256" d="M52 739H203V0H52V739Z" />
<glyph unicode="m" glyph-name="m" horiz-adv-x="873" d="M52 480H193V422Q224 457 265 476T350 495Q405 495 438 478T490 426Q521 459 565 477T654 495Q746 495 785 448T825 312V0H681V291Q681 337 663 357T605 377Q549 377 515 333Q517 301 517 281V0H372V296Q372
340 357 358T303 377Q244 377 198 310V0H52V480Z" />
<glyph unicode="n" glyph-name="n" horiz-adv-x="615" d="M52 480H198V421Q231 458 276 476T372 495Q470 495 518 443T567 301V0H416V284Q416 377 330 377Q292 377 259 359T203 304V0H52V480Z" />
<glyph unicode="o" glyph-name="o" horiz-adv-x="642" d="M234 -15T169 16T68 105T32 240Q32 315 67 373T168 463T321 495Q407 495 472 463T573 373T609 240Q609 163 574 106T473 17T321 -15Q234 -15 169 16ZM382 103T418 140T454 240Q454 304 419 340T321 377Q259
377 223 341T187 240Q187 178 223 141T321 103Q382 103 418 140Z" />
<glyph unicode="p" glyph-name="p" horiz-adv-x="665" d="M52 480H198V427Q271 495 378 495Q453 495 510 464T600 375T632 241Q632 166 600 108T511 18T378 -15Q327 -15 281 0T203 43V-219H52V480ZM401 103T439 141T478 241Q478 303 440 340T340 377Q293 377 256
352T203 286V195Q218 153 255 128T340 103Q401 103 439 141Z" />
<glyph unicode="q" glyph-name="q" horiz-adv-x="665" d="M461 43Q430 15 384 0T286 -15Q212 -15 154 17T64 108T32 241Q32 317 64 374T154 463T286 495Q393 495 466 427V480H612V-219H461V43ZM372 103T409 128T461 195V286Q445 328 409 352T325 377Q264 377 226
340T187 241Q187 179 225 141T325 103Q372 103 409 128Z" />
<glyph unicode="r" glyph-name="r" horiz-adv-x="409" d="M52 480H198V411Q227 446 279 464T397 483V368Q328 368 276 347T203 283V0H52V480Z" />
<glyph unicode="s" glyph-name="s" horiz-adv-x="504" d="M195 -15T134 -4T37 29V147Q77 123 133 108T237 93Q278 93 297 100T316 126Q316 141 305 150T272 167T197 190Q136 208 102 226T50 273T32 345Q32 420 91 457T253 495Q303 495 356 485T439 457V342Q410
361 364 373T273 385Q232 385 210 377T187 347Q187 328 208 318T289 293L309 288Q372 271 407 251T456 202T471 130Q471 64 414 25T249 -15Q195 -15 134 -4Z" />
<glyph unicode="t" glyph-name="t" horiz-adv-x="387" d="M169 -15T126 31T82 161V371H12V480H82V624H233V480H346V371H233V181Q233 139 249 121T306 102Q339 102 369 118V5Q323 -15 253 -15Q169 -15 126 31Z" />
<glyph unicode="u" glyph-name="u" horiz-adv-x="615" d="M145 -15T96 38T47 181V480H198V197Q198 103 285 103Q323 103 356 121T411 175V480H562V0H416V58Q384 21 339 3T243 -15Q145 -15 96 38Z" />
<glyph unicode="v" glyph-name="v" horiz-adv-x="606" d="M40 480H167L297 148L427 480H554L356 0H238L40 480Z" />
<glyph unicode="w" glyph-name="w" horiz-adv-x="841" d="M32 480H183L271 180L357 480H483L570 180L657 480H808L649 0H512L420 298L328 0H191L32 480Z" />
<glyph unicode="x" glyph-name="x" horiz-adv-x="645" d="M238 248L46 480H215L322 350L430 480H599L406 248L612 0H445L322 147L200 0H32L238 248Z" />
<glyph unicode="y" glyph-name="y" horiz-adv-x="612" d="M154 -198T123 -194T75 -183V-70Q104 -81 139 -81Q175 -81 193 -65T224 -15L240 26L32 480H184L320 149L449 480H600L396 -33Q362 -118 312 -158T184 -198Q154 -198 123 -194Z" />
<glyph unicode="z" glyph-name="z" horiz-adv-x="509" d="M32 87L274 371H39V480H469V392L229 109H477V0H32V87Z" />
<glyph unicode="{" glyph-name="braceleft" horiz-adv-x="350" d="M147 -97T122 -70T96 11V213Q96 244 82 261T38 279H12V411H38Q67 411 81 428T96 476V678Q96 733 121 760T193 787H322V659H283Q263 659 255 650T247 620V452Q247 369 179 346V344Q213 334 230
307T247 238V70Q247 49 255 40T283 30H322V-97H193Q147 -97 122 -70Z" />
<glyph unicode="|" glyph-name="bar" horiz-adv-x="217" d="M32 812H184V-144H32V812Z" />
<glyph unicode="}" glyph-name="braceright" horiz-adv-x="350" d="M27 30H66Q86 30 94 39T102 70V238Q102 279 119 306T170 344V346Q102 369 102 452V620Q102 641 94 650T66 659H27V787H157Q203 787 228 760T254 678V476Q254 445 268 428T311 411H337V279H311Q283
279 269 262T254 213V11Q254 -43 229 -70T157 -97H27V30Z" />
<glyph unicode="~" glyph-name="asciitilde" horiz-adv-x="527" d="M354 250T326 257T259 280Q223 294 197 301T146 309Q76 309 32 252V385Q49 408 78 420T146 433Q173 433 200 426T267 403Q304 389 330 382T381 374Q450 374 494 432V299Q478 275 449 263T381
250Q354 250 326 257Z" />
<glyph unicode="&#xa0;" glyph-name="uni00A0" horiz-adv-x="350" />
<glyph unicode="&#xa1;" glyph-name="exclamdown" horiz-adv-x="229" d="M80 388T56 411T32 469Q32 503 56 526T115 550Q149 550 173 527T197 469Q197 434 173 411T115 388Q80 388 56 411ZM41 313H189V-167H41V313Z" />
<glyph unicode="&#xa2;" glyph-name="cent" horiz-adv-x="543" d="M269 -12Q163 1 102 66T40 239Q40 345 101 411T269 491V581H377V492Q450 485 502 451V350Q452 386 377 394V86Q452 95 508 132V32Q455 -3 377 -12V-101H269V-12ZM269 387Q221 373 195 336T168
239Q168 179 195 143T269 92V387Z" />
<glyph unicode="&#xa3;" glyph-name="sterling" horiz-adv-x="487" d="M32 127H106V309H36V431H106V514Q106 577 135 622T214 691T326 714Q379 714 417 698V577Q386 590 355 590Q310 590 284 568T258 502V431H408V309H258V127H455V0H32V127Z" />
<glyph unicode="&#xa4;" glyph-name="currency" horiz-adv-x="600" d="M32 116L117 179Q89 224 89 276Q89 328 117 375L33 437L96 515L185 444Q236 479 300 479Q365 479 416 444L504 514L567 437L483 375Q511 331 511 276Q511 222 483 179L568 116L504 38L415
107Q363 73 300 73Q238 73 186 107L96 38L32 116ZM340 181T367 208T395 276Q395 317 368 345T300 373Q260 373 233 345T205 276Q205 236 232 209T300 181Q340 181 367 208Z" />
<glyph unicode="&#xa5;" glyph-name="yen" horiz-adv-x="732" d="M288 85H156V184H288V238H156V336H246L32 699H194L363 408L538 699H699L479 336H569V238H437V184H569V85H437V0H288V85Z" />
<glyph unicode="&#xa6;" glyph-name="brokenbar" horiz-adv-x="217" d="M32 812H184V416H32V812ZM32 251H184V-144H32V251Z" />
<glyph unicode="&#xa7;" glyph-name="section" horiz-adv-x="568" d="M198 -170T135 -158T32 -126V8Q85 -18 142 -31T251 -44Q308 -44 337 -24T366 32Q366 58 353 75T313 105T223 145Q125 186 81 236T37 359Q37 401 58 435Q37 469 37 514Q37 573 69 618T159 689T293
714Q355 714 403 704T497 673V543Q409 587 321 587Q269 587 237 566T204 510Q204 478 235 456T346 400Q419 369 458 343T516 280T535 186Q535 146 516 111Q535 76 535 31Q535 -64 467 -117T262 -170Q198 -170 135 -158ZM404 195T404 206Q404 240 379 259T285 307Q252
320 223 336T181 366Q176 351 176 338Q176 307 202 287T291 239Q334 221 360 208T400 179Q404 195 404 206Z" />
<glyph unicode="&#xa8;" glyph-name="dieresis" horiz-adv-x="445" d="M75 574T54 594T32 645Q32 675 53 696T105 717Q134 717 155 696T176 645Q176 615 155 595T105 574Q75 574 54 594ZM311 574T290 594T269 645Q269 675 290 696T341 717Q370 717 391 696T412
645Q412 615 391 595T341 574Q311 574 290 594Z" />
<glyph unicode="&#xa9;" glyph-name="copyright" horiz-adv-x="806" d="M301 -15T216 31T82 160T32 349Q32 456 81 539T216 668T403 714Q505 714 589 668T723 539T773 349Q773 243 724 160T590 31T403 -15Q301 -15 216 31ZM476 91T534 121T625 210T659 349Q659
429 626 487T535 575T403 606Q329 606 271 576T180 487T147 349Q147 269 180 211T272 122T403 91Q476 91 534 121ZM303 132T243 189T183 348Q183 450 243 507T403 564Q501 564 559 527V427Q506 465 424 465Q368 465 337 436T306 348Q306 289 336 260T422 231Q503
231 565 272V172Q499 132 401 132Q303 132 243 189Z" />
<glyph unicode="&#xaa;" glyph-name="ordfeminine" horiz-adv-x="426" d="M111 349T72 381T32 468Q32 525 70 557T178 589Q208 589 236 583T285 564V573Q285 635 193 635Q129 635 76 611V690Q100 700 136 707T209 714Q302 714 348 676T394 569V360H292V391Q250
349 174 349Q111 349 72 381ZM230 420T252 430T285 458V493Q250 517 205 517Q143 517 143 468Q143 445 159 433T204 420Q230 420 252 430Z" />
<glyph unicode="&#xab;" glyph-name="guillemotleft" horiz-adv-x="656" d="M32 307V342L274 556L355 467L190 324L355 183L274 93L32 307ZM301 307V342L543 556L624 467L459 324L624 183L543 93L301 307Z" />
<glyph unicode="&#xac;" glyph-name="logicalnot" horiz-adv-x="446" d="M272 243H32V361H414V129H272V243Z" />
<glyph unicode="&#xad;" glyph-name="uni00AD" horiz-adv-x="409" d="M32 361H376V241H32V361Z" />
<glyph unicode="&#xae;" glyph-name="registered" horiz-adv-x="806" d="M301 -15T216 31T82 160T32 349Q32 456 81 539T216 668T403 714Q505 714 589 668T723 539T773 349Q773 243 724 160T590 31T403 -15Q301 -15 216 31ZM476 91T534 121T625 210T659 349Q659
429 626 487T535 575T403 606Q329 606 271 576T180 487T147 349Q147 269 180 211T272 122T403 91Q476 91 534 121ZM249 555H428Q499 555 541 520T583 419Q583 373 561 342T498 295L568 153H461L396 284H359V153H249V555ZM421 371Q481 371 481 419Q481 446 467 457T421
468H359V371H421Z" />
<glyph unicode="&#xaf;" glyph-name="overscore" horiz-adv-x="399" d="M32 682H366V584H32V682Z" />
<glyph unicode="&#xb0;" glyph-name="degree" horiz-adv-x="353" d="M137 439T104 458T52 511T32 583Q32 622 51 655T104 707T176 727Q215 727 248 708T300 655T320 583Q320 544 301 511T248 459T176 439Q137 439 104 458ZM200 524T217 541T234 583Q234 606 217
623T176 640Q152 640 136 623T119 583Q119 559 136 542T176 524Q200 524 217 541Z" />
<glyph unicode="&#xb1;" glyph-name="plusminus" horiz-adv-x="409" d="M144 275H32V391H144V505H264V391H376V275H264V161H144V275ZM32 116H376V0H32V116Z" />
<glyph unicode="&#xb2;" glyph-name="uni00B2" horiz-adv-x="340" d="M32 433L98 484Q149 523 170 544T191 586Q191 619 147 619Q122 619 93 610T45 586V679Q64 692 99 700T165 709Q233 709 268 678T303 600Q303 572 290 550T255 508T183 450H308V370H32V433Z" />
<glyph unicode="&#xb3;" glyph-name="uni00B3" horiz-adv-x="345" d="M78 360T32 380V457Q54 446 81 441T133 435Q163 435 179 442T195 469Q195 486 181 493T133 501H86V570H132Q186 570 186 600Q186 615 171 623T129 632Q80 632 39 606V684Q61 696 94 702T164
709Q229 709 266 683T303 611Q303 560 258 535Q312 518 312 460Q312 414 273 387T161 360Q78 360 32 380Z" />
<glyph unicode="&#xb4;" glyph-name="acute" horiz-adv-x="293" d="M102 744H260L172 568H32L102 744Z" />
<glyph unicode="&#xb6;" glyph-name="paragraph" horiz-adv-x="760" d="M317 269H272Q164 269 98 331T32 513Q32 634 106 698T300 762H727V-134H575V637H469V-134H317V269Z" />
<glyph unicode="&#xb7;" glyph-name="middot" horiz-adv-x="179" d="M66 239T49 256T32 296Q32 320 49 337T89 354Q113 354 130 337T147 296Q147 273 130 256T89 239Q66 239 49 256Z" />
<glyph unicode="&#xb8;" glyph-name="cedilla" horiz-adv-x="319" d="M103 -248T75 -245T32 -235L33 -158Q43 -164 59 -167T92 -171Q147 -171 147 -134Q147 -87 48 -87L82 0H216L197 -49Q240 -55 263 -79T286 -146Q286 -196 246 -222T134 -248Q103 -248 75 -245Z" />
<glyph unicode="&#xb9;" glyph-name="uni00B9" horiz-adv-x="233" d="M110 589L32 533V633L121 699H221V370H110V589Z" />
<glyph unicode="&#xba;" glyph-name="ordmasculine" horiz-adv-x="479" d="M145 348T89 397T32 531Q32 585 57 626T130 691T240 714Q302 714 348 691T420 627T446 531Q446 447 390 398T240 348Q145 348 89 397ZM282 434T308 461T334 531Q334 576 309 602T240 628Q196
628 171 602T145 531Q145 488 170 461T240 434Q282 434 308 461Z" />
<glyph unicode="&#xbb;" glyph-name="guillemotright" horiz-adv-x="656" d="M32 183L197 324L32 467L113 556L355 342V307L113 93L32 183ZM301 183L466 324L301 467L382 556L624 342V307L382 93L301 183Z" />
<glyph unicode="&#xbc;" glyph-name="onequarter" horiz-adv-x="750" d="M110 589L32 533V633L121 699H221V370H110V589ZM485 699H639L252 0H98L485 699ZM562 63H412V135L555 329H672V140H718V63H672V0H562V63ZM586 140V236L512 140H586Z" />
<glyph unicode="&#xbd;" glyph-name="onehalf" horiz-adv-x="769" d="M110 589L32 533V633L121 699H221V370H110V589ZM485 699H639L252 0H98L485 699ZM461 63L490 85Q563 140 591 167T619 216Q619 249 575 249Q551 249 522 240T474 216V309Q493 322 527 330T593
339Q661 339 696 308T731 230Q731 202 718 180T683 138T611 80H736V0H461V63Z" />
<glyph unicode="&#xbe;" glyph-name="threequarters" horiz-adv-x="763" d="M78 360T32 380V457Q54 446 81 441T133 435Q163 435 179 442T195 469Q195 486 181 493T133 501H86V570H132Q186 570 186 600Q186 615 171 623T129 632Q80 632 39 606V684Q61 696 94 702T164
709Q229 709 266 683T303 611Q303 560 258 535Q312 518 312 460Q312 414 273 387T161 360Q78 360 32 380ZM499 699H653L266 0H112L499 699ZM575 63H425V135L568 329H685V140H731V63H685V0H575V63ZM599 140V236L525 140H599Z" />
<glyph unicode="&#xbf;" glyph-name="questiondown" horiz-adv-x="521" d="M268 388T244 411T220 469Q220 503 244 526T302 550Q337 550 360 527T384 469Q384 434 361 411T302 388Q268 388 244 411ZM171 -179T102 -129T32 13Q32 49 44 75T78 120T138 169Q178 199
194 213T218 246T227 295V315H375V293Q375 238 354 198T288 126L263 109Q223 82 207 65T190 20Q190 -53 302 -53Q349 -53 397 -42T489 -9V-139Q401 -179 291 -179Q171 -179 102 -129Z" />
<glyph unicode="&#xc0;" glyph-name="Agrave" horiz-adv-x="772" d="M228 918H387L456 742H316L228 918ZM312 699H461L740 0H585L525 152H248L188 0H32L312 699ZM485 273L386 539L287 273H485Z" />
<glyph unicode="&#xc1;" glyph-name="Aacute" horiz-adv-x="772" d="M390 918H549L460 742H321L390 918ZM312 699H461L740 0H585L525 152H248L188 0H32L312 699ZM485 273L386 539L287 273H485Z" />
<glyph unicode="&#xc2;" glyph-name="Acircumflex" horiz-adv-x="772" d="M319 918H454L605 742H455L387 834L319 742H168L319 918ZM312 699H461L740 0H585L525 152H248L188 0H32L312 699ZM485 273L386 539L287 273H485Z" />
<glyph unicode="&#xc3;" glyph-name="Atilde" horiz-adv-x="772" d="M187 857Q220 900 290 900Q312 900 333 894T389 875Q418 863 439 857T483 850Q546 850 585 900V785Q552 743 483 743Q458 743 435 749T380 769Q349 781 330 787T290 793Q229 793 187 742V857ZM312
699H461L740 0H585L525 152H248L188 0H32L312 699ZM485 273L386 539L287 273H485Z" />
<glyph unicode="&#xc4;" glyph-name="Adieresis" horiz-adv-x="772" d="M238 752T217 772T196 823Q196 853 217 874T268 895Q297 895 318 874T339 823Q339 793 318 773T268 752Q238 752 217 772ZM475 752T454 772T432 823Q432 853 453 874T505 895Q534 895 555
874T576 823Q576 793 555 773T505 752Q475 752 454 772ZM312 699H461L740 0H585L525 152H248L188 0H32L312 699ZM485 273L386 539L287 273H485Z" />
<glyph unicode="&#xc5;" glyph-name="Aring" horiz-adv-x="772" d="M740 0H585L525 152H248L188 0H32L302 673Q279 691 266 718T253 776Q253 812 271 842T319 890T386 908Q422 908 452 890T501 842T519 776Q519 746 506 719T471 674L740 0ZM366 824T352 810T337
776Q337 756 351 742T386 727Q406 727 420 741T434 776Q434 796 420 810T386 824Q366 824 352 810ZM485 273L386 539L287 273H485Z" />
<glyph unicode="&#xc6;" glyph-name="AE" horiz-adv-x="915" d="M351 699H888V572H587V410H801V288H587V127H888V0H435V158H267L195 0H32L351 699ZM435 275V551H433L316 275H435Z" />
<glyph unicode="&#xc7;" glyph-name="Ccedilla" horiz-adv-x="693" d="M592 2T488 -10L473 -49Q516 -55 539 -79T562 -146Q562 -196 522 -222T410 -248Q379 -248 351 -245T308 -235L309 -158Q319 -164 335 -167T368 -171Q423 -171 423 -134Q423 -87 324 -87L353
-12Q256 -1 184 46T72 170T32 349Q32 460 79 542T212 669T410 714Q555 714 652 648V504Q608 541 552 557T423 574Q314 574 251 514T187 349Q187 244 251 184T423 123Q497 123 554 140T660 197V53Q592 2 488 -10Z" />
<glyph unicode="&#xc8;" glyph-name="Egrave" horiz-adv-x="569" d="M142 918H301L370 742H230L142 918ZM52 699H537V572H204V410H449V288H204V127H537V0H52V699Z" />
<glyph unicode="&#xc9;" glyph-name="Eacute" horiz-adv-x="559" d="M280 918H439L350 742H211L280 918ZM52 699H537V572H204V410H449V288H204V127H537V0H52V699Z" />
<glyph unicode="&#xca;" glyph-name="Ecircumflex" horiz-adv-x="562" d="M219 918H354L505 742H355L287 834L219 742H68L219 918ZM52 699H537V572H204V410H449V288H204V127H537V0H52V699Z" />
<glyph unicode="&#xcb;" glyph-name="Edieresis" horiz-adv-x="569" d="M145 752T124 772T103 823Q103 853 124 874T175 895Q204 895 225 874T246 823Q246 793 225 773T175 752Q145 752 124 772ZM382 752T361 772T339 823Q339 853 360 874T412 895Q441 895 462
874T483 823Q483 793 462 773T412 752Q382 752 361 772ZM52 699H537V572H204V410H449V288H204V127H537V0H52V699Z" />
<glyph unicode="&#xcc;" glyph-name="Igrave" horiz-adv-x="260" d="M-28 918H131L200 742H60L-28 918ZM53 699H205V0H53V699Z" />
<glyph unicode="&#xcd;" glyph-name="Iacute" horiz-adv-x="260" d="M128 918H287L198 742H59L128 918ZM53 699H205V0H53V699Z" />
<glyph unicode="&#xce;" glyph-name="Icircumflex" horiz-adv-x="260" d="M62 918H197L348 742H198L130 834L62 742H-89L62 918ZM53 699H205V0H53V699Z" />
<glyph unicode="&#xcf;" glyph-name="Idieresis" horiz-adv-x="260" d="M-19 752T-40 772T-61 823Q-61 853 -40 874T11 895Q40 895 61 874T82 823Q82 793 61 773T11 752Q-19 752 -40 772ZM218 752T197 772T175 823Q175 853 196 874T248 895Q277 895 298 874T319
823Q319 793 298 773T248 752Q218 752 197 772ZM53 699H205V0H53V699Z" />
<glyph unicode="&#xd0;" glyph-name="Eth" horiz-adv-x="733" d="M82 292H27V406H82V699H325Q439 699 524 657T655 537T701 353Q701 179 600 90T317 0H82V292ZM325 127Q432 127 489 187T546 353Q546 416 521 466T448 544T335 572H234V406H392V292H234V127H325Z" />
<glyph unicode="&#xd1;" glyph-name="Ntilde" horiz-adv-x="696" d="M157 857Q190 900 260 900Q282 900 303 894T359 875Q388 863 409 857T453 850Q516 850 555 900V785Q522 743 453 743Q428 743 405 749T350 769Q319 781 300 787T260 793Q199 793 157 742V857ZM52
699H200L492 247V699H644V0H497L204 452V0H52V699Z" />
<glyph unicode="&#xd2;" glyph-name="Ograve" horiz-adv-x="810" d="M262 918H421L490 742H350L262 918ZM301 -15T216 31T81 159T32 349Q32 456 81 539T215 668T406 714Q511 714 595 668T729 539T778 349Q778 242 729 160T596 31T406 -15Q301 -15 216 31ZM466
125T515 152T594 230T623 349Q623 416 595 466T517 544T406 572Q344 572 295 545T216 467T187 349Q187 281 216 231T295 153T406 125Q466 125 515 152Z" />
<glyph unicode="&#xd3;" glyph-name="Oacute" horiz-adv-x="810" d="M403 918H562L473 742H334L403 918ZM301 -15T216 31T81 159T32 349Q32 456 81 539T215 668T406 714Q511 714 595 668T729 539T778 349Q778 242 729 160T596 31T406 -15Q301 -15 216 31ZM466
125T515 152T594 230T623 349Q623 416 595 466T517 544T406 572Q344 572 295 545T216 467T187 349Q187 281 216 231T295 153T406 125Q466 125 515 152Z" />
<glyph unicode="&#xd4;" glyph-name="Ocircumflex" horiz-adv-x="810" d="M338 918H473L624 742H474L406 834L338 742H187L338 918ZM301 -15T216 31T81 159T32 349Q32 456 81 539T215 668T406 714Q511 714 595 668T729 539T778 349Q778 242 729 160T596 31T406
-15Q301 -15 216 31ZM466 125T515 152T594 230T623 349Q623 416 595 466T517 544T406 572Q344 572 295 545T216 467T187 349Q187 281 216 231T295 153T406 125Q466 125 515 152Z" />
<glyph unicode="&#xd5;" glyph-name="Otilde" horiz-adv-x="810" d="M206 857Q239 900 309 900Q331 900 352 894T408 875Q437 863 458 857T502 850Q565 850 604 900V785Q571 743 502 743Q477 743 454 749T399 769Q368 781 349 787T309 793Q248 793 206 742V857ZM301
-15T216 31T81 159T32 349Q32 456 81 539T215 668T406 714Q511 714 595 668T729 539T778 349Q778 242 729 160T596 31T406 -15Q301 -15 216 31ZM466 125T515 152T594 230T623 349Q623 416 595 466T517 544T406 572Q344 572 295 545T216 467T187 349Q187 281 216
231T295 153T406 125Q466 125 515 152Z" />
<glyph unicode="&#xd6;" glyph-name="Odieresis" horiz-adv-x="810" d="M257 752T236 772T215 823Q215 853 236 874T287 895Q316 895 337 874T358 823Q358 793 337 773T287 752Q257 752 236 772ZM494 752T473 772T451 823Q451 853 472 874T524 895Q553 895 574
874T595 823Q595 793 574 773T524 752Q494 752 473 772ZM301 -15T216 31T81 159T32 349Q32 456 81 539T215 668T406 714Q511 714 595 668T729 539T778 349Q778 242 729 160T596 31T406 -15Q301 -15 216 31ZM466 125T515 152T594 230T623 349Q623 416 595 466T517
544T406 572Q344 572 295 545T216 467T187 349Q187 281 216 231T295 153T406 125Q466 125 515 152Z" />
<glyph unicode="&#xd7;" glyph-name="multiply" horiz-adv-x="394" d="M197 221L119 143L33 228L111 306L32 386L118 471L196 392L276 472L361 386L282 307L361 228L276 142L197 221Z" />
<glyph unicode="&#xd8;" glyph-name="Oslash" horiz-adv-x="810" d="M216 30Q131 76 82 159T32 349Q32 456 81 539T215 668T406 714Q445 714 487 706L519 784H642L595 668Q680 622 729 539T778 349Q778 242 729 160T596 31T406 -15Q366 -15 323 -7L292 -86H169L216
30ZM433 570Q415 572 406 572Q344 572 295 545T216 467T187 349Q187 290 209 244T271 167L433 570ZM466 125T515 152T594 230T623 349Q623 407 601 453T539 529L377 126Q387 125 406 125Q466 125 515 152Z" />
<glyph unicode="&#xd9;" glyph-name="Ugrave" horiz-adv-x="711" d="M209 918H368L437 742H297L209 918ZM203 -15T125 65T47 282V699H199V280Q199 204 241 164T356 124Q428 124 469 164T511 280V699H663V282Q663 146 586 66T356 -15Q203 -15 125 65Z" />
<glyph unicode="&#xda;" glyph-name="Uacute" horiz-adv-x="711" d="M354 918H513L424 742H285L354 918ZM203 -15T125 65T47 282V699H199V280Q199 204 241 164T356 124Q428 124 469 164T511 280V699H663V282Q663 146 586 66T356 -15Q203 -15 125 65Z" />
<glyph unicode="&#xdb;" glyph-name="Ucircumflex" horiz-adv-x="711" d="M288 918H423L574 742H424L356 834L288 742H137L288 918ZM203 -15T125 65T47 282V699H199V280Q199 204 241 164T356 124Q428 124 469 164T511 280V699H663V282Q663 146 586 66T356 -15Q203
-15 125 65Z" />
<glyph unicode="&#xdc;" glyph-name="Udieresis" horiz-adv-x="711" d="M207 752T186 772T165 823Q165 853 186 874T237 895Q266 895 287 874T308 823Q308 793 287 773T237 752Q207 752 186 772ZM444 752T423 772T401 823Q401 853 422 874T474 895Q503 895 524
874T545 823Q545 793 524 773T474 752Q444 752 423 772ZM203 -15T125 65T47 282V699H199V280Q199 204 241 164T356 124Q428 124 469 164T511 280V699H663V282Q663 146 586 66T356 -15Q203 -15 125 65Z" />
<glyph unicode="&#xdd;" glyph-name="Yacute" horiz-adv-x="738" d="M357 918H516L427 742H288L357 918ZM291 266L35 699H197L366 408L541 699H702L440 266V0H291V266Z" />
<glyph unicode="&#xde;" glyph-name="Thorn" horiz-adv-x="625" d="M52 699H204V579H352Q472 579 539 522T607 351Q607 238 540 181T352 124H204V0H52V699ZM324 251Q385 251 419 272T453 351Q453 409 419 430T324 452H204V251H324Z" />
<glyph unicode="&#xdf;" glyph-name="germandbls" horiz-adv-x="648" d="M303 -15T259 3V135Q295 114 357 114Q406 114 433 143T461 222Q461 272 432 295T343 319H288V433H332Q419 433 419 526Q419 566 392 589T316 613Q260 613 230 587T199 507V0H47V493Q47 610
116 677T315 744Q404 744 461 713T546 631T573 524Q573 477 553 438T494 379Q615 338 615 205Q615 102 557 44T387 -15Q303 -15 259 3Z" />
<glyph unicode="&#xe0;" glyph-name="agrave" horiz-adv-x="585" d="M173 711H332L401 535H261L173 711ZM143 -15T88 29T32 151Q32 231 85 275T235 320Q278 320 317 311T386 286V298Q386 343 354 364T256 385Q168 385 94 352V462Q126 476 177 485T279 495Q409
495 473 442T537 292V0H395V44Q334 -15 231 -15Q143 -15 88 29ZM309 85T339 99T386 138V186Q335 220 274 220Q232 220 210 203T187 151Q187 119 209 102T272 85Q309 85 339 99Z" />
<glyph unicode="&#xe1;" glyph-name="aacute" horiz-adv-x="585" d="M295 711H454L365 535H226L295 711ZM143 -15T88 29T32 151Q32 231 85 275T235 320Q278 320 317 311T386 286V298Q386 343 354 364T256 385Q168 385 94 352V462Q126 476 177 485T279 495Q409
495 473 442T537 292V0H395V44Q334 -15 231 -15Q143 -15 88 29ZM309 85T339 99T386 138V186Q335 220 274 220Q232 220 210 203T187 151Q187 119 209 102T272 85Q309 85 339 99Z" />
<glyph unicode="&#xe2;" glyph-name="acircumflex" horiz-adv-x="585" d="M240 711H375L526 535H376L308 627L240 535H89L240 711ZM143 -15T88 29T32 151Q32 231 85 275T235 320Q278 320 317 311T386 286V298Q386 343 354 364T256 385Q168 385 94 352V462Q126
476 177 485T279 495Q409 495 473 442T537 292V0H395V44Q334 -15 231 -15Q143 -15 88 29ZM309 85T339 99T386 138V186Q335 220 274 220Q232 220 210 203T187 151Q187 119 209 102T272 85Q309 85 339 99Z" />
<glyph unicode="&#xe3;" glyph-name="atilde" horiz-adv-x="585" d="M119 650Q152 693 222 693Q244 693 265 687T321 668Q350 656 371 650T415 643Q478 643 517 693V578Q484 536 415 536Q390 536 367 542T312 562Q281 574 262 580T222 586Q161 586 119 535V650ZM143
-15T88 29T32 151Q32 231 85 275T235 320Q278 320 317 311T386 286V298Q386 343 354 364T256 385Q168 385 94 352V462Q126 476 177 485T279 495Q409 495 473 442T537 292V0H395V44Q334 -15 231 -15Q143 -15 88 29ZM309 85T339 99T386 138V186Q335 220 274 220Q232
220 210 203T187 151Q187 119 209 102T272 85Q309 85 339 99Z" />
<glyph unicode="&#xe4;" glyph-name="adieresis" horiz-adv-x="585" d="M153 545T132 565T111 616Q111 646 132 667T183 688Q212 688 233 667T254 616Q254 586 233 566T183 545Q153 545 132 565ZM390 545T369 565T347 616Q347 646 368 667T420 688Q449 688 470
667T491 616Q491 586 470 566T420 545Q390 545 369 565ZM143 -15T88 29T32 151Q32 231 85 275T235 320Q278 320 317 311T386 286V298Q386 343 354 364T256 385Q168 385 94 352V462Q126 476 177 485T279 495Q409 495 473 442T537 292V0H395V44Q334 -15 231 -15Q143
-15 88 29ZM309 85T339 99T386 138V186Q335 220 274 220Q232 220 210 203T187 151Q187 119 209 102T272 85Q309 85 339 99Z" />
<glyph unicode="&#xe5;" glyph-name="aring" horiz-adv-x="585" d="M277 535T247 552T198 600T180 667Q180 703 198 733T246 781T313 799Q349 799 379 781T428 733T446 667Q446 631 428 601T380 553T313 535Q277 535 247 552ZM333 618T347 632T361 667Q361 687
347 701T313 715Q293 715 279 701T264 667Q264 647 278 633T313 618Q333 618 347 632ZM143 -15T88 29T32 151Q32 231 85 275T235 320Q278 320 317 311T386 286V298Q386 343 354 364T256 385Q168 385 94 352V462Q126 476 177 485T279 495Q409 495 473 442T537 292V0H395V44Q334
-15 231 -15Q143 -15 88 29ZM309 85T339 99T386 138V186Q335 220 274 220Q232 220 210 203T187 151Q187 119 209 102T272 85Q309 85 339 99Z" />
<glyph unicode="&#xe6;" glyph-name="ae" horiz-adv-x="964" d="M145 -15T89 29T32 151Q32 231 85 275T235 320Q278 320 317 311T386 286V298Q386 343 354 364T256 385Q168 385 94 352V462Q126 476 177 485T279 495Q403 495 471 429Q505 460 554 477T664 495Q750
495 810 463T901 375T932 247V188H537Q554 94 708 94Q754 94 803 102T888 124V18Q853 3 799 -6T690 -15Q621 -15 565 4T469 59Q426 23 374 4T242 -15Q145 -15 89 29ZM789 283Q786 332 753 358T662 385Q605 385 573 358T537 283H789ZM309 85T339 98T386 136V186Q335
220 274 220Q232 220 210 203T187 151Q187 119 209 102T272 85Q309 85 339 98Z" />
<glyph unicode="&#xe7;" glyph-name="ccedilla" horiz-adv-x="543" d="M461 -1T388 -10L373 -49Q416 -55 439 -79T462 -146Q462 -196 422 -222T310 -248Q279 -248 251 -245T208 -235L209 -158Q219 -164 235 -167T268 -171Q323 -171 323 -134Q323 -87 224 -87L254
-11Q150 4 91 68T32 239Q32 360 109 427T317 495Q435 495 505 451V332Q473 355 431 366T341 377Q271 377 229 343T187 239Q187 169 228 136T340 102Q437 102 511 149V31Q461 -1 388 -10Z" />
<glyph unicode="&#xe8;" glyph-name="egrave" horiz-adv-x="604" d="M165 711H324L393 535H253L165 711ZM190 -15T111 51T32 238Q32 357 102 426T304 495Q390 495 450 463T541 375T572 247V186H176Q192 94 348 94Q394 94 443 102T528 124V18Q493 3 438 -6T328
-15Q190 -15 111 51ZM429 284Q426 332 393 358T302 385Q245 385 212 358T176 284H429Z" />
<glyph unicode="&#xe9;" glyph-name="eacute" horiz-adv-x="604" d="M298 711H457L368 535H229L298 711ZM190 -15T111 51T32 238Q32 357 102 426T304 495Q390 495 450 463T541 375T572 247V186H176Q192 94 348 94Q394 94 443 102T528 124V18Q493 3 438 -6T328
-15Q190 -15 111 51ZM429 284Q426 332 393 358T302 385Q245 385 212 358T176 284H429Z" />
<glyph unicode="&#xea;" glyph-name="ecircumflex" horiz-adv-x="613" d="M252 711H387L538 535H388L320 627L252 535H101L252 711ZM199 -15T120 51T41 238Q41 357 111 426T313 495Q399 495 459 463T550 375T581 247V186H185Q201 94 357 94Q403 94 452 102T537
124V18Q502 3 447 -6T337 -15Q199 -15 120 51ZM438 284Q435 332 402 358T311 385Q254 385 221 358T185 284H438Z" />
<glyph unicode="&#xeb;" glyph-name="edieresis" horiz-adv-x="604" d="M162 545T141 565T120 616Q120 646 141 667T192 688Q221 688 242 667T263 616Q263 586 242 566T192 545Q162 545 141 565ZM399 545T378 565T356 616Q356 646 377 667T429 688Q458 688 479
667T500 616Q500 586 479 566T429 545Q399 545 378 565ZM190 -15T111 51T32 238Q32 357 102 426T304 495Q390 495 450 463T541 375T572 247V186H176Q192 94 348 94Q394 94 443 102T528 124V18Q493 3 438 -6T328 -15Q190 -15 111 51ZM429 284Q426 332 393 358T302
385Q245 385 212 358T176 284H429Z" />
<glyph unicode="&#xec;" glyph-name="igrave" horiz-adv-x="257" d="M-28 711H131L200 535H60L-28 711ZM52 480H204V0H52V480Z" />
<glyph unicode="&#xed;" glyph-name="iacute" horiz-adv-x="257" d="M124 711H283L194 535H55L124 711ZM52 480H204V0H52V480Z" />
<glyph unicode="&#xee;" glyph-name="icircumflex" horiz-adv-x="257" d="M61 711H196L347 535H197L129 627L61 535H-90L61 711ZM52 480H204V0H52V480Z" />
<glyph unicode="&#xef;" glyph-name="idieresis" horiz-adv-x="257" d="M-20 545T-41 565T-62 616Q-62 646 -41 667T10 688Q39 688 60 667T81 616Q81 586 60 566T10 545Q-20 545 -41 565ZM217 545T196 565T174 616Q174 646 195 667T247 688Q276 688 297 667T318
616Q318 586 297 566T247 545Q217 545 196 565ZM52 480H204V0H52V480Z" />
<glyph unicode="&#xf0;" glyph-name="eth" horiz-adv-x="631" d="M215 -15T154 15T63 99T32 223Q32 332 101 393T290 455Q335 455 377 441T447 401Q442 490 403 541L273 475V551L343 587Q315 598 281 598Q248 598 212 592T154 576V697Q179 704 216 709T283 714Q397
714 473 653L589 712V637L520 602Q591 503 591 324Q591 216 555 140T454 25T303 -15Q215 -15 154 15ZM361 100T393 134T425 220Q425 273 392 306T308 339Q254 339 221 307T187 220Q187 165 220 133T308 100Q361 100 393 134Z" />
<glyph unicode="&#xf1;" glyph-name="ntilde" horiz-adv-x="615" d="M106 650Q139 693 209 693Q231 693 252 687T308 668Q337 656 358 650T402 643Q465 643 504 693V578Q471 536 402 536Q377 536 354 542T299 562Q268 574 249 580T209 586Q148 586 106 535V650ZM52
480H198V421Q231 458 276 476T372 495Q470 495 518 443T567 301V0H416V284Q416 377 330 377Q292 377 259 359T203 304V0H52V480Z" />
<glyph unicode="&#xf2;" glyph-name="ograve" horiz-adv-x="642" d="M178 711H337L406 535H266L178 711ZM234 -15T169 16T68 105T32 240Q32 315 67 373T168 463T321 495Q407 495 472 463T573 373T609 240Q609 163 574 106T473 17T321 -15Q234 -15 169 16ZM382
103T418 140T454 240Q454 304 419 340T321 377Q259 377 223 341T187 240Q187 178 223 141T321 103Q382 103 418 140Z" />
<glyph unicode="&#xf3;" glyph-name="oacute" horiz-adv-x="642" d="M320 711H479L390 535H251L320 711ZM234 -15T169 16T68 105T32 240Q32 315 67 373T168 463T321 495Q407 495 472 463T573 373T609 240Q609 163 574 106T473 17T321 -15Q234 -15 169 16ZM382
103T418 140T454 240Q454 304 419 340T321 377Q259 377 223 341T187 240Q187 178 223 141T321 103Q382 103 418 140Z" />
<glyph unicode="&#xf4;" glyph-name="ocircumflex" horiz-adv-x="662" d="M274 711H409L560 535H410L342 627L274 535H123L274 711ZM254 -15T189 16T88 105T52 240Q52 315 87 373T188 463T341 495Q427 495 492 463T593 373T629 240Q629 163 594 106T493 17T341
-15Q254 -15 189 16ZM402 103T438 140T474 240Q474 304 439 340T341 377Q279 377 243 341T207 240Q207 178 243 141T341 103Q402 103 438 140Z" />
<glyph unicode="&#xf5;" glyph-name="otilde" horiz-adv-x="656" d="M136 650Q169 693 239 693Q261 693 282 687T338 668Q367 656 388 650T432 643Q495 643 534 693V578Q501 536 432 536Q407 536 384 542T329 562Q298 574 279 580T239 586Q178 586 136 535V650ZM248
-15T183 16T82 105T46 240Q46 315 81 373T182 463T335 495Q421 495 486 463T587 373T623 240Q623 163 588 106T487 17T335 -15Q248 -15 183 16ZM396 103T432 140T468 240Q468 304 433 340T335 377Q273 377 237 341T201 240Q201 178 237 141T335 103Q396 103 432
140Z" />
<glyph unicode="&#xf6;" glyph-name="odieresis" horiz-adv-x="651" d="M182 545T161 565T140 616Q140 646 161 667T212 688Q241 688 262 667T283 616Q283 586 262 566T212 545Q182 545 161 565ZM419 545T398 565T376 616Q376 646 397 667T449 688Q478 688 499
667T520 616Q520 586 499 566T449 545Q419 545 398 565ZM243 -15T178 16T77 105T41 240Q41 315 76 373T177 463T330 495Q416 495 481 463T582 373T618 240Q618 163 583 106T482 17T330 -15Q243 -15 178 16ZM391 103T427 140T463 240Q463 304 428 340T330 377Q268
377 232 341T196 240Q196 178 232 141T330 103Q391 103 427 140Z" />
<glyph unicode="&#xf7;" glyph-name="divide" horiz-adv-x="409" d="M178 392T160 409T142 452Q142 478 159 496T203 514Q229 514 246 496T264 452Q264 427 246 410T203 392Q178 392 160 409ZM32 361H376V241H32V361ZM178 87T160 104T142 147Q142 173 159 191T203
209Q229 209 246 191T264 147Q264 122 246 105T203 87Q178 87 160 104Z" />
<glyph unicode="&#xf8;" glyph-name="oslash" horiz-adv-x="642" d="M169 16Q104 47 68 105T32 240Q32 315 67 373T168 463T321 495Q335 495 361 493L390 566H509L468 465Q535 434 572 376T609 240Q609 163 574 106T473 17T321 -15Q299 -15 276 -12L247 -86H128L169
16ZM314 377Q255 375 221 338T187 240Q187 182 220 144L314 377ZM383 104T418 141T454 240Q454 304 418 340L323 103Q383 104 418 141Z" />
<glyph unicode="&#xf9;" glyph-name="ugrave" horiz-adv-x="615" d="M162 711H321L390 535H250L162 711ZM145 -15T96 38T47 181V480H198V197Q198 103 285 103Q323 103 356 121T411 175V480H562V0H416V58Q384 21 339 3T243 -15Q145 -15 96 38Z" />
<glyph unicode="&#xfa;" glyph-name="uacute" horiz-adv-x="615" d="M299 711H458L369 535H230L299 711ZM145 -15T96 38T47 181V480H198V197Q198 103 285 103Q323 103 356 121T411 175V480H562V0H416V58Q384 21 339 3T243 -15Q145 -15 96 38Z" />
<glyph unicode="&#xfb;" glyph-name="ucircumflex" horiz-adv-x="615" d="M236 711H371L522 535H372L304 627L236 535H85L236 711ZM145 -15T96 38T47 181V480H198V197Q198 103 285 103Q323 103 356 121T411 175V480H562V0H416V58Q384 21 339 3T243 -15Q145 -15 96 38Z" />
<glyph unicode="&#xfc;" glyph-name="udieresis" horiz-adv-x="615" d="M157 545T136 565T115 616Q115 646 136 667T187 688Q216 688 237 667T258 616Q258 586 237 566T187 545Q157 545 136 565ZM394 545T373 565T351 616Q351 646 372 667T424 688Q453 688 474
667T495 616Q495 586 474 566T424 545Q394 545 373 565ZM145 -15T96 38T47 181V480H198V197Q198 103 285 103Q323 103 356 121T411 175V480H562V0H416V58Q384 21 339 3T243 -15Q145 -15 96 38Z" />
<glyph unicode="&#xfd;" glyph-name="yacute" horiz-adv-x="612" d="M308 711H467L378 535H239L308 711ZM154 -198T123 -194T75 -183V-70Q104 -81 139 -81Q175 -81 193 -65T224 -15L240 26L32 480H184L320 149L449 480H600L396 -33Q362 -118 312 -158T184 -198Q154
-198 123 -194Z" />
<glyph unicode="&#xfe;" glyph-name="thorn" horiz-adv-x="665" d="M52 699H203V437Q235 465 281 480T378 495Q453 495 510 464T600 375T632 241Q632 166 600 108T511 18T378 -15Q327 -15 281 0T203 43V-219H52V699ZM401 103T439 141T478 241Q478 303 440 340T340
377Q293 377 256 352T203 286V195Q218 153 255 128T340 103Q401 103 439 141Z" />
<glyph unicode="&#xff;" glyph-name="ydieresis" horiz-adv-x="612" d="M174 545T153 565T132 616Q132 646 153 667T204 688Q233 688 254 667T275 616Q275 586 254 566T204 545Q174 545 153 565ZM411 545T390 565T368 616Q368 646 389 667T441 688Q470 688 491
667T512 616Q512 586 491 566T441 545Q411 545 390 565ZM154 -198T123 -194T75 -183V-70Q104 -81 139 -81Q175 -81 193 -65T224 -15L240 26L32 480H184L320 149L449 480H600L396 -33Q362 -118 312 -158T184 -198Q154 -198 123 -194Z" />
<glyph unicode="&#x2013;" glyph-name="endash" horiz-adv-x="656" d="M32 361H624V241H32V361Z" />
<glyph unicode="&#x2014;" glyph-name="emdash" horiz-adv-x="795" d="M32 361H762V241H32V361Z" />
<glyph unicode="&#x2018;" glyph-name="quoteleft" horiz-adv-x="271" d="M114 714H239L174 516H32L114 714Z" />
<glyph unicode="&#x2019;" glyph-name="quoteright" horiz-adv-x="275" d="M97 714H242L161 516H32L97 714Z" />
<glyph unicode="&#x201a;" glyph-name="quotesinglbase" horiz-adv-x="275" d="M97 71H242L161 -127H32L97 71Z" />
<glyph unicode="&#x201c;" glyph-name="quotedblleft" horiz-adv-x="453" d="M114 714H237L172 516H32L114 714ZM298 714H421L356 516H216L298 714Z" />
<glyph unicode="&#x201d;" glyph-name="quotedblright" horiz-adv-x="453" d="M97 714H237L156 516H32L97 714ZM281 714H421L339 516H216L281 714Z" />
<glyph unicode="&#x201e;" glyph-name="quotedblbase" horiz-adv-x="453" d="M97 71H237L156 -127H32L97 71ZM281 71H421L339 -127H216L281 71Z" />
<glyph unicode="&#x2022;" glyph-name="bullet" horiz-adv-x="261" d="M90 199T61 228T32 298Q32 339 61 367T131 396Q172 396 200 368T229 298Q229 257 201 228T131 199Q90 199 61 228Z" />
<glyph unicode="&#x2039;" glyph-name="guilsinglleft" horiz-adv-x="387" d="M32 307V342L274 556L355 467L190 324L355 183L274 93L32 307Z" />
<glyph unicode="&#x203a;" glyph-name="guilsinglright" horiz-adv-x="387" d="M32 183L197 324L32 467L113 556L355 342V307L113 93L32 183Z" />
</font>
</defs>
</svg>
