<?xml version="1.0" standalone="no"?>
<!DOCTYPE svg PUBLIC "-//W3C//DTD SVG 1.1//EN" "http://www.w3.org/Graphics/SVG/1.1/DTD/svg11.dtd">
<svg xmlns="http://www.w3.org/2000/svg">
<defs >
<font id="Ruthie" horiz-adv-x="272" ><font-face
    font-family="Ruthie"
    units-per-em="1000"
    panose-1="2 0 5 7 6 0 0 2 0 3"
    ascent="800"
    descent="-450"
    alphabetic="0" />
<glyph unicode=" " glyph-name="space" horiz-adv-x="196" />
<glyph unicode="!" glyph-name="exclam" horiz-adv-x="219" d="M316 624Q316 617 288 570T202 399T124 190L119 160Q118 153 111 153T104 161Q104 217 165 394T264 620Q278 639 297 639T316 624ZM121 69Q121 64 100 20Q97 10 85 -2T64 -15T49 -3Q42 8 42 17Q42
34 70 53T118 72Q120 72 121 71V69Z" />
<glyph unicode="&quot;" glyph-name="quotedbl" horiz-adv-x="198" d="M92 300H91Q88 302 88 368T62 462Q60 464 60 470T71 489T94 503H101Q123 503 123 482Q97 300 92 300ZM198 300H197Q194 302 194 368T168 462Q166 464 166 470T177 489T200 503H208Q229 503
229 482Q203 300 198 300Z" />
<glyph unicode="#" glyph-name="numbersign" horiz-adv-x="449" d="M444 381Q444 376 428 376T334 374Q301 285 266 205Q309 203 374 195Q380 194 380 192Q380 187 362 187T258 185Q239 138 202 65Q195 52 178 52T160 59Q166 70 187 114T222 184L126 180Q112 147
81 86Q73 74 56 74T39 81Q39 83 81 178L36 175Q30 175 15 184T-1 199Q-1 201 94 205Q100 209 107 216Q172 343 184 369L98 364Q92 364 79 373Q64 381 62 388Q66 392 196 395Q235 482 237 513T247 545Q252 545 252 529Q252 494 216 396H244Q290 396 317 395Q343
460 351 484T363 535T372 563T378 531T341 394Q373 393 438 385Q444 384 444 381ZM162 206T186 206T233 206Q276 298 308 374L207 370Q177 293 138 206Q162 206 186 206Z" />
<glyph unicode="$" glyph-name="dollar" horiz-adv-x="280" d="M315 546Q315 515 257 515Q247 515 247 517T257 520Q294 520 294 549Q294 568 268 577Q229 512 195 449Q242 419 254 407Q280 381 280 341Q280 281 215 246Q164 219 104 219Q100 219 96 219Q79 162
72 118L68 71Q68 68 54 68T39 74Q39 125 73 221Q-28 235 -28 310Q-28 354 6 383T85 413Q109 413 110 409Q109 408 94 408Q52 408 24 386T-5 327T17 263T75 229Q108 324 163 435Q113 470 113 510T161 572Q196 588 234 588Q240 588 246 588Q305 689 334 689Q338 689
338 686L272 584Q315 572 315 546ZM235 339Q235 386 181 423Q126 313 98 226H102Q134 226 172 241Q235 266 235 339ZM233 582Q154 582 154 512Q154 484 177 463Q200 508 242 582H233Z" />
<glyph unicode="%" glyph-name="percent" horiz-adv-x="629" d="M327 737Q493 763 544 763T646 751T708 714H714Q733 714 733 698Q733 692 729 688Q600 579 580 561Q156 191 49 -39Q35 -68 22 -118Q19 -127 12 -127T-2 -119T-9 -101Q-9 -69 46 24T220 255T518
563Q582 623 669 696Q681 706 698 711Q682 745 570 745Q528 745 355 721Q379 706 379 667T356 574T278 449T175 378Q134 378 134 431Q134 508 204 636Q238 694 252 694Q273 694 273 680Q273 677 214 570T155 421Q155 393 176 393Q194 393 221 417Q267 460 301 532T335
662T289 737H327ZM622 233Q622 227 606 221T580 214Q581 207 581 195Q581 110 521 26H553Q542 19 534 19T524 20T519 21Q522 21 484 -12T417 -46Q378 -46 378 9T425 130Q405 176 405 219T431 305T502 348Q568 348 579 244Q622 244 622 233ZM509 329Q477 329 450
266Q432 224 432 189T436 141Q497 223 563 243Q543 329 509 329ZM565 215Q542 210 496 174T438 115Q460 39 490 32Q513 53 538 117T565 215ZM431 106Q399 50 399 18T420 -15Q448 -15 486 26Q454 30 431 106Z" />
<glyph unicode="&amp;" glyph-name="ampersand" horiz-adv-x="714" d="M722 325Q722 273 651 191Q556 83 408 36Q322 -242 164 -242Q130 -242 104 -226T77 -177Q77 -173 80 -173T85 -177Q92 -228 152 -228Q267 -228 358 19Q283 0 213 0T88 20Q15 47 15 106T94
245Q52 284 52 338Q52 419 140 474Q219 524 303 524Q317 524 344 521T372 510Q370 507 363 507T336 511T307 516Q230 516 156 466T82 343Q82 298 114 263Q189 332 296 389Q361 424 491 492Q506 534 520 564T560 621T608 647Q634 647 634 615T590 545Q570 529 515
496Q500 459 472 329Q557 387 639 387T722 325ZM521 509Q546 524 580 558T615 606T607 620Q596 620 575 601T521 509ZM684 296Q684 351 601 351Q534 351 469 317Q450 216 411 51Q543 91 622 181Q684 252 684 296ZM141 241Q179 218 226 218T337 248Q360 259 440
309Q464 410 487 480Q401 436 342 402Q224 334 141 241ZM215 198Q167 198 125 222Q79 164 79 119Q79 64 140 39Q185 21 243 21T362 35Q392 116 437 299Q310 198 215 198Z" />
<glyph unicode="&apos;" glyph-name="quotesingle" horiz-adv-x="198" d="M166 440L160 469Q160 478 166 488T182 499T205 481Q207 473 207 466Q207 421 145 341Q116 303 109 303Q108 303 108 304Q108 300 137 352T166 440Z" />
<glyph unicode="(" glyph-name="parenleft" horiz-adv-x="287" d="M152 -41L171 -39Q177 -39 177 -45T150 -56T111 -62Q14 -62 14 87Q14 130 24 178Q74 410 285 545Q414 628 551 628Q556 628 556 623T551 618Q444 618 329 540Q134 408 81 208Q69 163 69 102Q69
-41 152 -41Z" />
<glyph unicode=")" glyph-name="parenright" horiz-adv-x="458" d="M458 432Q458 302 360 160T142 -50Q68 -93 -5 -93Q-28 -93 -28 -87Q-28 -83 -11 -83Q51 -83 139 -30Q247 36 325 170T404 437T298 605Q287 609 243 616Q238 616 238 620Q238 629 277 629Q364
629 411 575T458 432Z" />
<glyph unicode="*" glyph-name="asterisk" horiz-adv-x="599" d="M544 289T547 289T557 280T566 265L565 264Q504 257 429 257T336 257Q432 164 489 115Q491 111 491 97T485 83Q473 83 328 231L335 34Q335 30 326 23T312 13L310 14Q304 62 304 133T304 238Q206
137 160 83Q158 81 144 81T129 87Q129 99 290 258Q82 262 65 268Q61 269 61 273T68 277Q125 277 280 280Q134 432 134 443Q134 447 136 447T143 445L304 287Q308 493 315 514Q316 518 320 518T324 511Q324 452 327 293Q476 438 488 438Q492 438 492 435T490 429L444
383L346 281Q371 281 422 283T508 287Z" />
<glyph unicode="+" glyph-name="plus" horiz-adv-x="385" d="M200 235Q367 232 367 220Q367 215 356 215Q280 215 197 211Q171 11 156 11Q152 11 152 17Q152 17 171 210L48 203Q41 203 29 211T15 227Q27 235 173 235Q178 307 178 393Q178 398 191 405T210 413L212
412V399Q212 332 200 235Z" />
<glyph unicode="," glyph-name="comma" horiz-adv-x="152" d="M79 16L73 45Q73 54 79 65T95 76T118 57Q120 48 120 42Q120 -3 58 -83Q29 -121 22 -121Q21 -121 21 -120Q79 -33 79 16Z" />
<glyph unicode="-" glyph-name="hyphen" horiz-adv-x="298" d="M111 168T108 168T103 167H99Q96 167 89 176T80 190L82 192Q133 198 191 198T285 187Q288 186 288 182T282 178Q228 178 189 175T141 171T127 170T116 169Z" />
<glyph unicode="." glyph-name="period" horiz-adv-x="152" d="M63 -15Q55 -15 49 -4T42 20T60 41Q66 48 88 60T115 72T122 70L107 52Q98 38 93 18Q84 -15 63 -15Z" />
<glyph unicode="/" glyph-name="slash" horiz-adv-x="446" d="M735 710Q735 709 730 704Q512 529 347 361Q113 124 39 -37Q24 -71 12 -116Q11 -117 9 -117T-1 -110T-9 -95T4 -55Q55 69 245 283Q377 432 543 587Q594 635 669 696Q697 715 716 715T735 710Z" />
<glyph unicode="0" glyph-name="zero" horiz-adv-x="647" d="M615 330Q615 211 543 112T355 -30Q294 -54 235 -54Q152 -54 105 -8T58 120Q58 163 70 205Q53 244 53 290Q53 363 111 424Q221 540 404 540Q479 540 540 496T612 378Q615 356 615 330ZM603 342Q603
354 601 376Q592 440 532 479T404 519Q308 519 225 475T103 350Q84 311 84 266Q84 256 86 250Q140 351 238 418Q343 492 449 492Q469 492 469 486T448 480Q357 480 249 387T99 201Q119 161 179 133T289 104H300Q311 104 311 100Q311 90 264 90T167 112T89 174Q74
132 74 118Q74 54 112 21T216 -12T371 30T532 158T603 342Z" />
<glyph unicode="1" glyph-name="one" horiz-adv-x="456" d="M481 504Q481 490 472 480Q446 454 396 394T288 224T213 21L212 19H243Q315 19 338 15Q345 14 345 7T337 0T322 1H307Q274 1 212 -7Q213 -12 213 -21T206 -31Q180 -31 172 -14Q80 -28 45 -28Q35 -28
35 -7T41 14Q81 14 170 18Q176 81 229 177Q229 178 239 194Q379 418 382 425Q350 412 295 364T232 316T223 321Q223 328 230 334L424 508Q446 527 461 527Q481 527 481 504Z" />
<glyph unicode="2" glyph-name="two" horiz-adv-x="679" d="M223 50Q477 -18 541 -18Q576 -18 603 -8Q641 6 641 36T605 93T536 129Q531 131 531 132Q531 136 538 136Q578 136 616 102T654 24T602 -44Q561 -63 498 -63T345 -27Q295 -5 194 37Q122 6 79 6T35 41Q35
84 96 84Q134 84 191 65Q261 100 340 152T443 223Q578 328 578 422Q578 453 554 469T497 486Q425 486 350 443T275 334L279 305Q279 300 277 300Q269 300 264 319T258 349Q258 416 349 462Q427 501 490 501T591 477T629 404Q629 309 470 192Q363 115 223 50ZM96
58Q55 58 55 35Q55 18 76 18Q103 18 154 48Q110 58 96 58Z" />
<glyph unicode="3" glyph-name="three" horiz-adv-x="686" d="M662 424Q662 330 479 296Q648 265 648 162Q648 52 501 -9Q387 -57 259 -57Q173 -57 110 -33Q20 0 20 70Q20 112 57 136T139 160T184 147Q184 141 156 141T98 128Q58 112 58 76Q58 13 119 -18Q169
-44 235 -44Q350 -44 457 3Q593 63 593 161Q593 226 503 254Q441 274 360 274Q346 274 346 288T365 309Q405 314 447 321T553 358Q635 395 635 438Q635 468 569 483Q526 493 475 493T377 478Q312 457 312 416Q312 399 299 399Q281 399 281 428Q281 471 361 497Q421
516 478 516T591 497Q662 471 662 424Z" />
<glyph unicode="4" glyph-name="four" horiz-adv-x="686" d="M495 -26L466 -24Q420 -24 334 -39T204 -54Q194 -54 194 -33T200 -11T312 -9Q320 50 353 135Q267 152 142 189Q85 173 58 173Q17 173 17 201Q17 226 73 226Q106 226 159 214Q244 246 339 328Q387 370
462 451T551 549T588 566T611 556Q542 397 533 383L515 368L409 169Q487 160 529 160T589 164Q667 182 667 222Q667 247 640 269T593 297T550 307Q545 309 545 310Q545 314 555 314Q600 314 640 286T680 210T621 134Q576 112 522 112T388 127Q349 44 340 -8Q363
-7 419 -7T489 -9T503 -18Q503 -26 495 -26ZM476 405Q316 260 184 207Q264 189 369 175Q408 271 476 405ZM120 200Q87 214 59 214T31 200Q31 191 59 191T120 200Z" />
<glyph unicode="5" glyph-name="five" horiz-adv-x="795" d="M349 266Q493 316 552 316T654 295Q708 268 708 217T664 111Q581 10 441 -38T148 -86Q102 -86 60 -72Q3 -52 3 -13Q3 47 144 86Q254 116 340 116Q360 116 360 109Q360 104 340 104Q282 104 161 63T40
-20Q40 -44 84 -56Q114 -64 148 -64Q276 -64 399 -17T602 119Q654 177 654 226Q654 293 551 293Q465 293 333 248Q310 240 303 240Q290 240 290 250Q290 257 312 289T352 359T377 412T391 440Q404 458 425 458T446 445Q446 438 349 266ZM803 524Q803 470 743 445Q697
425 630 425T416 474Q333 501 307 501T281 487Q281 479 292 471T303 460Q303 453 295 453T274 465T262 489Q262 523 316 523Q354 523 434 508L554 486Q635 473 674 473T747 485Q790 501 790 528T765 578T723 606T689 616T671 622Q671 626 680 626Q722 626 762 596T803
524Z" />
<glyph unicode="6" glyph-name="six" horiz-adv-x="551" d="M548 514T548 507T531 492Q480 470 423 438Q291 366 196 275Q68 152 68 40Q68 17 75 2Q122 88 221 158T414 229T509 151Q509 82 425 24Q361 -22 288 -42T165 -62T83 -50L79 -82Q75 -104 63 -104Q53 -104
53 -81T59 -38Q16 -13 16 40Q16 170 211 325Q363 446 527 512Q531 514 539 514ZM460 151Q460 201 393 201Q307 201 218 132T93 -22Q118 -44 164 -44T271 -24T388 40Q460 96 460 151Z" />
<glyph unicode="7" glyph-name="seven" horiz-adv-x="494" d="M110 -36L120 -33Q133 -33 133 -44Q133 -48 118 -53T97 -58Q58 -58 58 -7Q58 109 220 267Q315 359 484 478Q450 476 422 476L180 484Q122 484 100 477Q26 454 26 417Q26 392 53 372T97 347T134 339T154
334Q154 329 144 329Q96 329 54 354T12 430T78 511Q129 535 182 535T326 515T464 494T542 524L556 507Q414 416 278 277Q104 98 104 -16Q104 -36 110 -36Z" />
<glyph unicode="8" glyph-name="eight" horiz-adv-x="468" d="M268 303Q351 215 351 142T297 25T182 -19T83 9T46 91Q46 178 222 297Q183 352 183 419T225 519T336 553Q379 553 412 541Q409 586 369 610Q368 623 375 623Q378 623 382 620Q429 581 430 532Q442
525 455 514L474 491Q474 489 470 485Q454 498 428 508Q413 436 311 341Q284 319 268 303ZM300 121Q300 190 234 277Q178 245 130 193T81 96T109 28T182 5T264 37Q300 70 300 121ZM410 513Q371 526 325 526Q214 526 214 443Q214 384 254 320Q314 369 318 372Q399
439 410 513Z" />
<glyph unicode="9" glyph-name="nine" horiz-adv-x="589" d="M588 477Q588 468 571 444T545 419Q542 419 542 421T549 434T556 456Q556 487 494 502Q450 513 390 513T262 485T137 385T81 241T145 169Q198 169 290 244Q379 316 430 386Q441 401 447 408Q470 437
488 437T506 422Q506 412 415 289T276 90Q195 -38 195 -93Q195 -120 207 -131L222 -145Q222 -147 217 -147Q194 -147 182 -126T170 -82Q170 25 357 278Q223 156 146 156Q100 156 65 182T29 253Q29 320 108 396T267 503T442 533Q487 533 529 522Q588 507 588 477Z"
/>
<glyph unicode=":" glyph-name="colon" horiz-adv-x="152" d="M63 -15Q55 -15 49 -4T42 20T60 41Q66 48 88 60T115 72T122 70L107 52Q98 38 93 18Q84 -15 63 -15ZM175 229Q180 229 180 221T169 177T139 141Q133 141 125 152Q118 163 118 176T136 197Q165 229 175 229Z" />
<glyph unicode=";" glyph-name="semicolon" horiz-adv-x="152" d="M175 229Q180 229 180 221T169 177T139 141Q133 141 125 152Q118 163 118 176T136 197Q165 229 175 229ZM76 -9L70 20Q70 28 77 39T93 51T115 32Q118 24 118 17Q118 -27 55 -108Q26 -146 19 -146Q18
-146 18 -145Q76 -58 76 -9Z" />
<glyph unicode="&lt;" glyph-name="less" horiz-adv-x="318" d="M130 283Q227 161 227 149T219 136Q217 136 209 140Q186 171 152 199L88 250Q85 252 85 256Q85 268 130 332T203 431Q212 442 220 442T229 436Q229 421 130 283Z" />
<glyph unicode="=" glyph-name="equal" horiz-adv-x="348" d="M55 190Q59 198 164 198T297 187Q300 186 300 184Q300 178 294 178L75 167Q72 167 64 176Q57 185 55 190ZM55 87Q60 96 166 96T297 84Q300 82 300 81Q300 76 294 76Q257 76 184 70T75 64Q72 64 64
73Q57 82 55 87Z" />
<glyph unicode="&gt;" glyph-name="greater" horiz-adv-x="318" d="M184 288Q86 413 86 424T95 435Q97 435 105 431Q128 400 160 374L226 321Q229 320 229 313T179 234T115 146T93 129T85 135Q85 150 184 288Z" />
<glyph unicode="?" glyph-name="question" horiz-adv-x="528" d="M511 583Q511 483 394 408L320 368Q109 253 109 190Q109 176 118 166L127 155Q127 144 115 144Q114 144 113 145Q91 163 91 188Q91 228 144 278T272 376Q285 385 378 443Q493 516 493 601Q493 657
448 686T336 715T207 675T118 568Q108 544 108 528Q108 496 145 496Q185 496 263 530Q265 530 265 526T263 520Q243 502 201 489T128 476Q71 476 71 520Q71 538 83 567Q110 634 188 679T338 725T460 687T511 583ZM63 -15Q55 -15 49 -4T42 20T60 41Q66 48 88 60T115
72T122 70L107 52Q98 38 93 18Q84 -15 63 -15Z" />
<glyph unicode="@" glyph-name="at" horiz-adv-x="795" d="M766 303Q766 255 721 201Q656 124 540 76T333 28T173 58T78 146T52 264Q52 420 204 536Q346 645 507 645Q601 645 660 594T720 449Q720 440 718 420Q766 369 766 303ZM712 271Q718 289 718 316T700 379Q675
301 614 214Q539 108 475 108Q445 108 423 133T396 181T391 234T404 320Q321 138 236 138Q183 138 183 207Q183 293 254 392T409 530Q462 555 503 555Q554 555 554 512Q554 457 480 403Q443 313 443 211Q443 128 482 128T579 200Q654 295 684 403Q658 435 616 454L614
456Q614 464 637 464T693 442Q697 458 697 474T694 504Q667 614 532 614Q384 614 230 498T76 239Q76 140 151 88Q216 43 327 43T551 102Q676 167 712 271ZM494 447Q514 476 514 504T488 532Q422 532 317 404T212 208Q212 179 241 179Q287 179 338 249Q371 294 399
360Q381 353 371 353T360 358T378 370L418 393Q421 418 446 452T492 487Q501 487 501 476T494 447Z" />
<glyph unicode="A" glyph-name="A" horiz-adv-x="624" d="M419 156L445 157H450Q457 157 457 154Q457 144 439 143Q295 133 269 129Q149 -21 36 -105Q63 -118 125 -129Q134 -130 134 -135T124 -140Q84 -140 26 -113Q-72 -183 -144 -183Q-190 -183 -190 -154Q-190
-133 -178 -124Q-181 -133 -181 -143Q-181 -170 -143 -170Q-77 -170 9 -105Q-1 -100 -22 -86Q-90 -135 -130 -135Q-137 -135 -137 -131Q-137 -124 -127 -123Q-77 -106 -34 -75Q-64 -46 -64 -15Q-64 42 27 88Q87 119 168 135Q307 318 381 511Q385 520 415 619Q416
626 423 626Q424 625 424 624Q424 544 334 373Q268 246 191 139L239 144Q305 234 384 383T464 606Q464 652 423 658Q414 660 414 665T425 670Q461 670 482 647Q502 622 502 586Q502 505 423 359Q367 258 284 148Q372 156 419 156ZM712 -26Q712 -42 690 -71T649
-111T602 -122T536 -92T480 -21T461 95T476 298T493 456T501 487Q510 487 511 466V307Q511 43 554 -53Q580 -112 614 -112Q659 -112 712 -26ZM222 122Q199 117 168 108Q81 -4 -7 -74Q2 -86 20 -97Q112 -24 222 122ZM142 100Q-20 36 -20 -36Q-20 -48 -15 -61Q61
0 142 100Z" />
<glyph unicode="B" glyph-name="B" horiz-adv-x="864" d="M445 625L443 680Q443 687 447 687Q448 687 450 682Q456 647 456 616T456 572Q488 574 496 574Q548 574 622 558Q678 611 740 611Q774 611 798 587T823 526Q823 513 818 513Q816 513 811 540Q805 582 750
582Q710 582 667 546Q725 528 768 495Q820 453 820 401Q820 337 746 299Q690 270 617 266Q813 175 813 50Q813 -9 764 -48T655 -88Q562 -88 493 -66L343 -4Q290 -68 242 -88Q195 -111 110 -111Q73 -111 39 -86Q1 -60 1 -20T42 41T136 62T258 41Q334 128 387 284Q431
419 442 556Q262 543 165 443Q127 402 127 356Q127 280 211 245Q222 239 239 236T256 229Q256 224 250 224L247 225Q189 229 135 275T81 378Q81 421 116 456Q220 563 443 572Q445 608 445 625ZM776 19Q776 137 617 213L560 237Q558 239 558 247Q558 273 585 279H604Q617
279 637 283Q693 294 729 321Q772 356 772 404T739 485T655 535Q595 481 545 376Q515 312 460 190T354 9Q445 -25 511 -46T648 -68Q776 -68 776 19ZM611 546Q551 558 509 558T455 557Q447 418 404 282Q352 124 276 35L314 22Q353 64 398 160T495 367Q553 485 611
546ZM121 -52Q102 -52 102 -45Q102 -40 119 -40Q185 -40 251 31Q188 53 139 53T54 38T18 -13T51 -69Q80 -89 123 -89T223 -60T306 9L268 26Q199 -52 121 -52Z" />
<glyph unicode="C" glyph-name="C" horiz-adv-x="681" d="M430 642L428 700Q428 708 433 708Q435 708 440 691T445 637T444 586Q484 594 516 594Q606 594 656 547Q712 497 712 412V408Q712 391 698 391Q690 391 680 397Q612 438 555 468T438 518Q422 379 384 226Q338
53 287 -54Q295 -55 313 -55Q422 -55 534 1T703 147L712 159Q713 158 713 153T710 142Q652 42 518 -27Q391 -90 268 -92Q203 -208 147 -208Q138 -208 138 -202T144 -195L163 -191Q209 -175 257 -92Q154 -89 94 -35T34 129T120 362T320 543Q293 546 266 546T190
535T102 500Q44 466 44 424Q44 419 45 416V408Q45 395 36 395Q24 395 18 411Q10 429 10 441Q10 500 116 532Q194 555 271 555Q292 555 334 550Q390 574 429 583Q430 604 430 642ZM89 150Q89 60 139 9Q189 -46 277 -53Q332 59 371 217T425 522Q386 533 339 541Q230
489 161 380Q89 269 89 150ZM673 446Q680 446 680 456T674 480Q648 525 592 547T478 569Q466 569 442 567L439 533Q555 509 660 451Q670 446 673 446ZM427 566Q385 559 355 547Q424 536 426 536Q427 546 427 566Z" />
<glyph unicode="D" glyph-name="D" horiz-adv-x="934" d="M445 625L443 680Q443 687 447 687Q448 687 450 682Q456 644 456 612T456 572Q461 572 465 572Q536 572 603 558Q674 650 748 650Q777 650 806 634Q832 618 839 597T847 569T845 561Q840 561 836 578T805
609T755 623Q693 623 640 553Q752 535 833 464Q921 385 921 275Q921 204 891 139Q847 46 763 -4Q677 -54 572 -54T343 -4Q276 -89 152 -89Q137 -89 108 -87T41 -53T2 15T38 71Q66 87 114 87T263 46Q336 132 384 277T442 556Q249 546 152 443Q116 404 116 360Q116
284 197 247Q213 239 244 233Q249 231 249 229Q249 224 242 224L240 225Q181 230 132 273T82 366T117 453Q223 565 443 572Q445 608 445 625ZM864 265Q864 364 797 443T632 540Q597 485 543 364T445 153T353 9Q463 -38 562 -38Q694 -38 779 47T864 265ZM476 557H455Q448
424 401 277T279 39L313 26Q350 65 392 156Q412 196 446 273T485 361Q549 500 594 546Q534 557 476 557ZM121 -52Q102 -52 102 -45Q102 -40 119 -40Q188 -40 256 36Q163 78 101 78Q73 78 46 65T18 18T56 -41T137 -67T232 -44T305 12L271 29Q199 -52 121 -52Z" />
<glyph unicode="E" glyph-name="E" horiz-adv-x="931" d="M445 625L443 680Q443 687 447 687Q448 687 450 682Q456 647 456 617T456 573Q541 561 624 543Q705 648 783 648T862 587Q862 576 858 576T853 585Q853 609 834 619Q818 629 794 629Q730 629 666 536Q841
501 898 501Q1021 501 1021 554Q1021 563 1017 568Q1014 576 1014 577T1016 579Q1025 579 1030 563T1035 537Q1035 468 924 468Q861 468 652 514Q618 457 528 271Q569 284 664 284T826 261Q831 259 831 257T826 254L754 259Q669 259 609 247Q500 228 500 180Q500
174 505 161V160Q494 160 484 184Q426 75 369 9Q482 -25 586 -55T758 -85T863 -68Q914 -46 914 0Q914 34 884 83L855 131Q855 132 857 132T867 125Q929 74 929 7T883 -97T768 -135T564 -83T357 -4Q257 -113 134 -113Q94 -113 51 -90T8 -23T51 41T141 62T258 41Q333
126 382 273T442 555Q373 563 331 563Q150 563 150 439Q150 357 244 291Q249 289 249 286T246 283T239 285Q113 357 113 457Q113 513 160 547Q210 585 313 585Q358 585 443 575Q445 609 445 625ZM609 523Q542 538 455 553Q448 422 401 275T276 35L319 22Q365 68
436 210Q446 230 473 285Q553 448 609 523ZM121 -52Q102 -52 102 -45Q102 -40 119 -40Q184 -40 249 30Q195 47 150 47T73 33Q31 14 31 -22T63 -76Q91 -93 132 -93T228 -61T313 10L267 25Q197 -52 121 -52Z" />
<glyph unicode="F" glyph-name="F" horiz-adv-x="722" d="M445 625L443 680Q443 687 447 687Q448 687 450 682Q456 649 456 605T451 508Q461 508 547 490Q636 639 743 639Q807 639 807 585Q807 575 804 575T800 583Q800 622 748 622Q676 622 596 481Q697 462 750
462Q848 462 848 510Q848 519 845 523T842 530T844 533Q850 533 855 519T860 494Q860 433 762 433Q706 433 583 460L483 255Q512 271 601 271T753 252Q758 250 758 248T754 245L692 250Q619 250 565 239Q470 222 470 181L475 162Q467 162 463 175Q455 187 454 197Q386
65 330 2Q236 -103 135 -103Q93 -103 62 -87Q21 -68 21 -28T66 35Q100 53 146 53Q155 53 155 50T146 47Q108 47 80 31Q44 13 44 -20T69 -69T126 -85Q212 -85 282 -7Q333 51 381 145Q420 226 458 313T536 470L449 489Q437 389 401 275T307 76Q221 -52 121 -52Q102
-52 102 -45Q102 -40 119 -40Q209 -40 293 86Q352 176 387 285T435 492Q306 519 232 519Q71 519 71 408Q71 334 156 275Q160 274 160 271T158 268T151 270Q39 334 39 423Q39 486 100 516Q147 538 221 538T437 511Q445 573 445 625Z" />
<glyph unicode="G" glyph-name="G" horiz-adv-x="681" d="M526 594L524 644Q524 652 529 652Q538 652 540 593Q623 586 667 540T712 412V408Q712 391 698 391Q690 391 661 409T536 479Q525 370 499 251Q526 286 550 325Q558 336 559 336Q560 335 560 333Q560 312
491 218Q459 80 417 -29Q353 -195 291 -244Q265 -264 250 -264T234 -257Q234 -253 248 -250Q328 -233 404 -38Q448 78 475 197Q414 114 328 47Q221 -36 143 -36Q88 -36 60 7T31 110Q31 233 117 358T320 543Q293 546 266 546T190 535T102 500Q44 466 44 424Q44 419
45 416V408Q45 395 36 395T18 412T10 441Q10 500 116 532Q194 555 271 555Q292 555 334 550Q432 594 513 594Q519 594 526 594ZM72 143Q72 91 96 51T172 10Q240 10 343 92Q424 158 483 231Q513 364 522 485Q430 528 339 541Q228 489 150 376T72 143ZM332 -287Q299
-305 253 -305T153 -268T98 -188Q98 -184 101 -184T105 -190Q146 -283 233 -283Q274 -283 312 -263Q395 -218 456 -48Q496 87 538 235T622 384Q639 384 652 373H650Q636 369 615 283Q561 63 522 -33Q448 -225 332 -287ZM680 446T680 457T674 480Q636 543 541 563L538
506Q592 488 660 451Q670 446 673 446Q680 446 680 457ZM478 569Q413 569 355 547Q446 535 524 511Q526 549 526 566Q504 569 478 569Z" />
<glyph unicode="H" glyph-name="H" horiz-adv-x="705" d="M353 204Q576 215 586 215T596 212Q596 204 575 199Q442 199 342 181Q269 46 169 -61Q187 -66 208 -70T230 -77Q230 -82 215 -82T161 -69Q18 -219 -97 -219Q-147 -219 -147 -185Q-147 -165 -139 -159V-169Q-139
-206 -97 -206Q6 -206 129 -58Q106 -48 94 -40Q-1 -159 -72 -159Q-81 -159 -81 -154T-76 -147T-48 -141Q14 -122 85 -34Q36 2 36 47T104 134Q153 165 215 181Q314 398 322 590Q307 596 286 596Q214 596 135 536T56 412T142 303Q145 302 145 296T138 290H134Q90
308 55 342T19 417Q19 474 82 525Q132 568 187 586T292 604Q304 604 322 602V636Q322 644 328 644Q332 644 333 600Q435 579 435 462Q435 364 353 204ZM664 -172Q551 -172 551 -43Q551 42 602 186L722 477L763 580Q772 603 778 603T785 594Q785 577 734 428T657
195Q615 45 615 -41Q615 -158 686 -158Q715 -158 747 -136Q776 -115 849 -47L851 -48Q851 -50 848 -55Q815 -103 765 -137T664 -172ZM383 484Q383 561 333 585Q331 410 228 184Q267 194 293 197Q383 382 383 484ZM277 168Q221 151 209 146Q160 46 104 -28Q117 -41
137 -48Q213 45 277 168ZM76 25Q76 1 96 -21Q145 44 195 140Q76 86 76 25Z" />
<glyph unicode="I" glyph-name="I" horiz-adv-x="631" d="M214 176L122 173Q104 173 98 174Q99 173 99 168T93 149Q56 75 56 12T88 -88Q122 -129 179 -129Q282 -129 389 27Q510 206 600 484Q620 541 620 548T619 556Q608 556 537 516Q512 359 441 196Q356 1 248
-69Q201 -101 164 -101Q156 -101 156 -95T166 -88T209 -76Q292 -38 372 97Q479 278 520 506Q472 477 439 446Q413 419 391 378T368 315T383 283Q388 280 388 278T377 276T352 291Q339 307 339 324Q339 374 408 440Q460 487 523 525Q537 609 537 693Q537 699 542
701Q547 698 547 649T539 535Q612 576 648 576Q665 576 665 560Q665 530 642 446Q559 161 409 -11Q299 -142 176 -142Q103 -142 69 -92T35 32T58 151Q61 156 61 159T42 165T23 176Q23 186 40 194Q54 202 65 202L85 200L225 206Q272 206 294 200Q333 190 333 154Q333
128 301 109Q297 109 297 111Q297 115 308 126Q318 141 318 142Q318 176 214 176Z" />
<glyph unicode="J" glyph-name="J" horiz-adv-x="478" d="M191 86L223 89Q227 89 227 87Q227 77 169 77T65 109Q11 146 11 212Q11 431 389 533Q394 581 394 636Q394 642 400 643Q406 642 406 608T404 537L488 557Q512 616 539 639T628 662Q654 662 678 651Q706
635 706 612Q706 582 659 573T546 553Q468 303 456 267Q338 -87 111 -205Q65 -230 9 -230T-107 -182T-167 -75Q-167 -68 -163 -68Q-162 -68 -160 -76T-145 -112Q-106 -191 -4 -191Q56 -191 115 -161Q237 -98 309 28Q354 109 407 285Q433 375 482 541L402 521Q385
350 313 170Q229 -40 113 -122Q60 -158 23 -158Q14 -158 14 -152T22 -144Q141 -128 245 66Q360 279 388 517Q47 415 47 212Q47 153 88 120T191 86ZM698 617Q698 651 644 651Q599 651 555 568Q584 571 673 590Q698 600 698 617Z" />
<glyph unicode="K" glyph-name="K" horiz-adv-x="788" d="M239 185Q230 221 189 221Q118 221 75 150Q36 88 36 20T66 -87Q97 -132 160 -132Q188 -132 220 -123Q304 -97 396 37Q464 134 516 256Q481 295 441 318L433 325Q438 330 446 330Q470 330 522 270Q581 410
614 566Q606 567 591 567Q501 567 410 540Q281 502 281 440Q281 423 291 409L301 395Q301 393 298 393Q286 393 269 416Q250 439 250 455Q250 500 366 542T607 584Q649 584 663 577Q666 576 666 564Q666 512 628 404T558 226Q573 210 583 194Q673 366 750 452Q872
589 1013 589Q1088 589 1136 536T1185 407Q1185 386 1180 386Q1177 386 1177 403Q1177 472 1126 513T1001 554Q873 554 754 426Q676 339 590 185Q703 31 714 16Q797 -94 850 -130T937 -166Q991 -166 991 -98T950 27Q947 30 947 32T951 35T960 28Q1007 -26 1007
-90Q1007 -136 979 -167T906 -198Q840 -198 768 -135Q698 -76 655 3Q640 33 613 88T577 161L534 85Q454 -58 410 -58Q395 -58 395 -48Q395 -43 408 -42Q455 -36 512 61Q519 72 571 171Q559 194 550 209Q379 -143 163 -143Q89 -143 45 -96T1 31T50 175T179 239Q202
239 221 226Q242 215 242 192Q242 186 239 185Z" />
<glyph unicode="L" glyph-name="L" horiz-adv-x="555" d="M961 -76Q961 -128 897 -162Q844 -190 783 -190T647 -159T467 -69T322 6Q263 -62 206 -98T72 -135Q31 -135 -10 -106T-51 -38Q-51 17 4 45Q48 68 109 68T263 39Q294 81 328 145Q321 144 306 144Q96 144
96 293Q96 372 180 417Q184 420 187 420T191 418T190 414Q127 391 127 319T197 201Q257 162 336 161Q358 202 412 318T503 489Q590 619 689 619Q700 619 700 616T689 613Q594 613 508 479Q480 434 424 315T350 161Q382 161 415 167Q422 175 444 227Q463 278 469
291Q609 611 781 611Q816 611 837 587T858 526Q858 377 532 210Q490 188 477 183T458 174Q450 170 427 160Q419 146 389 99T334 19L591 -81Q749 -141 849 -141T950 -84Q950 -47 916 5Q934 -6 946 -30Q961 -55 961 -76ZM847 540Q847 562 830 572T788 582Q676 582
510 297Q461 213 436 174Q533 208 680 327Q847 462 847 540ZM85 -78Q71 -78 71 -75T85 -71Q178 -71 256 31Q164 61 113 61T15 40T-31 -21T8 -87Q39 -109 87 -109T208 -71T311 9Q297 18 267 28Q185 -78 85 -78ZM408 153Q361 147 342 146Q310 88 274 36Q284 32 319
22Q333 36 408 153Z" />
<glyph unicode="M" glyph-name="M" horiz-adv-x="1150" d="M1320 519L1329 569Q1329 636 1259 636Q1150 636 1001 454Q966 223 966 130Q966 -20 1022 -20Q1068 -20 1138 91L1160 126Q1164 133 1167 133Q1168 132 1168 129T1166 123Q1084 -32 1015 -32Q916 -32
916 109Q916 207 976 423Q918 349 756 90Q697 -5 656 -44T605 -84Q603 -84 603 -78T611 -69Q622 -52 622 -5T602 149Q588 235 588 312T607 475Q634 593 688 593Q690 593 690 591T685 585Q638 561 638 422Q638 319 665 148Q668 130 668 110Q668 7 623 -63Q670 -33
784 159Q824 228 885 322T990 472Q1005 532 1008 532T1011 524T1007 493Q1062 559 1122 607Q1205 675 1262 675Q1297 675 1319 649Q1337 625 1337 598T1332 544T1320 516V519ZM595 522Q595 378 506 212T298 -48Q188 -137 77 -137Q40 -137 17 -116T-6 -56T26 27Q29
30 31 30T33 26Q29 17 24 1Q13 -24 13 -50T31 -99T82 -122Q200 -122 320 -5Q424 99 495 252T567 516Q567 527 566 533Q554 527 531 522Q516 417 466 300Q420 187 345 81T188 -73Q140 -101 106 -101Q96 -101 96 -94T106 -86T151 -75Q244 -40 340 92Q478 284 517
520Q467 512 373 502T228 481Q110 451 110 391Q110 345 154 302Q190 264 242 251Q248 250 248 248Q248 244 240 244Q185 244 140 290T94 393T184 493Q256 526 369 543Q420 552 522 566Q525 594 525 662Q525 670 532 670Q538 670 538 633T536 568Q563 575 566 576Q573
583 579 583Q589 583 592 570T595 522Z" />
<glyph unicode="N" glyph-name="N" horiz-adv-x="908" d="M41 26Q21 -19 21 -46T39 -98T89 -122Q208 -122 328 -5Q433 99 504 250T575 516Q575 527 574 533Q554 524 526 520Q506 420 460 309T346 91T207 -64Q167 -89 137 -89Q127 -89 127 -84T138 -76T175 -66Q258
-29 344 106Q468 302 513 518L390 503Q287 493 231 479Q118 449 118 391Q118 348 162 302Q203 263 250 251Q256 250 256 248Q256 244 248 244Q193 244 147 290Q102 336 102 394T190 492Q261 525 344 538T522 564Q530 626 530 706Q530 713 536 713Q541 713 541 663T534
566Q551 569 575 576Q580 583 589 583T600 568Q603 539 629 395Q666 186 717 73Q737 117 765 264T817 477Q867 617 958 668Q985 683 1012 683Q1058 683 1100 630Q1142 580 1142 535Q1142 531 1139 531T1133 539Q1121 580 1095 607T1028 635Q1007 635 985 624Q895
583 840 446Q815 383 793 289T766 176Q745 96 727 54Q768 -30 818 -30Q846 -30 877 -5Q910 21 907 21Q909 21 909 17T903 8Q845 -50 791 -50T693 10Q682 4 666 4T650 16Q650 19 662 21T681 28Q638 96 617 229Q599 405 596 443Q572 307 492 172T304 -50T85 -137Q48
-137 25 -117T2 -56T33 27Q36 30 38 30T41 26Z" />
<glyph unicode="O" glyph-name="O" horiz-adv-x="601" d="M600 338Q600 199 481 86Q365 -21 221 -21Q200 -21 181 -18Q100 -109 39 -109Q29 -109 29 -102Q29 -98 34 -97T63 -91Q112 -76 168 -15Q57 14 57 141Q57 180 68 221Q48 258 48 297Q48 366 106 427Q212
536 383 536Q402 536 422 533Q432 606 432 687Q432 694 438 694T444 641T434 531Q506 518 554 465Q600 412 600 338ZM565 351Q565 414 529 459Q492 504 431 517Q407 388 345 249T205 11Q335 12 448 117Q565 223 565 351ZM383 522Q293 522 215 480T100 360Q77 314
77 264Q77 254 78 249Q111 334 195 403T364 473Q376 473 376 467T363 460Q294 460 201 369Q119 286 88 213Q96 198 116 188T136 176Q136 169 127 169Q106 169 83 199Q70 167 70 141Q70 18 192 12Q273 111 334 249T419 520Q407 522 383 522Z" />
<glyph unicode="P" glyph-name="P" horiz-adv-x="904" d="M239 185Q230 221 189 221Q118 221 75 150Q36 88 36 20T66 -87Q97 -132 160 -132Q278 -132 389 27Q536 243 581 454Q582 458 586 476T593 507Q600 537 632 537Q650 537 650 522Q650 511 643 482Q616 351
549 210H565Q647 210 750 239Q921 288 921 404Q921 475 855 529Q807 571 724 595Q652 614 573 614H554Q547 509 503 376Q456 241 394 135Q313 -9 230 -68Q182 -102 150 -102Q141 -102 141 -96T149 -88Q180 -83 194 -76Q286 -31 382 134Q453 259 494 387T541 613Q451
609 360 580T210 491Q172 453 172 409T198 335Q220 306 258 293Q275 287 288 284T302 277Q302 272 294 274H293Q232 283 179 326T126 427Q126 469 161 504Q220 564 327 594T543 629V693Q543 701 549 701T555 669T555 630H600Q672 630 750 615Q839 595 895 556Q971
503 971 428T898 294Q842 248 753 222T562 195Q552 195 542 195Q378 -143 163 -143Q89 -143 45 -96T1 31T50 175T179 239Q202 239 221 226Q242 215 242 192Q242 186 239 185Z" />
<glyph unicode="Q" glyph-name="Q" horiz-adv-x="617" d="M715 -145Q715 -185 672 -207T576 -230T441 -191Q430 -186 318 -126T148 -51Q87 -109 39 -109Q29 -109 29 -103T38 -95Q90 -86 133 -48Q101 -44 74 -44T18 -58Q-20 -74 -20 -104T5 -157T58 -180Q66 -180
66 -186Q66 -189 57 -189Q26 -189 -4 -168T-35 -112T7 -56Q39 -39 76 -39T140 -43Q143 -40 149 -34Q162 -23 168 -15Q57 14 57 141Q57 180 68 221Q48 258 48 297Q48 366 106 427Q212 536 383 536Q402 536 422 533Q432 606 432 687Q432 694 438 694T444 641T434
531Q506 518 554 465Q600 412 600 338Q600 199 481 86Q365 -21 221 -21Q200 -21 181 -18Q176 -24 167 -33T154 -46Q212 -57 377 -125T636 -193Q708 -193 708 -151Q708 -124 682 -86Q692 -91 703 -110T715 -145ZM565 351Q565 414 529 459Q492 504 431 517Q407 388
345 249T205 11Q335 12 448 117Q565 223 565 351ZM383 522Q293 522 215 480T100 360Q77 314 77 264Q77 254 78 249Q111 334 195 403T364 473Q376 473 376 467T363 460Q294 460 201 369Q119 286 88 213Q96 198 116 188T136 176Q136 169 127 169Q106 169 83 199Q70
167 70 141Q70 18 192 12Q273 111 334 249T419 520Q407 522 383 522Z" />
<glyph unicode="R" glyph-name="R" horiz-adv-x="923" d="M239 185Q230 221 189 221Q118 221 75 150Q36 88 36 20T66 -87Q97 -132 160 -132Q276 -132 389 27Q453 120 492 199Q467 204 437 216Q388 112 320 24Q224 -102 150 -102Q141 -102 141 -96T153 -88T183
-81Q249 -55 327 49Q381 123 427 220Q360 252 360 289Q360 307 379 322T420 338T470 318Q531 477 541 613Q451 609 358 579T210 491Q172 453 172 406Q172 326 256 294Q267 288 296 282Q302 280 302 276T294 274H293Q239 274 183 321T126 427Q126 469 161 504Q219
564 326 594T543 629V693Q543 701 549 701Q555 701 555 670T555 630H600Q672 630 750 615Q839 595 895 556Q971 503 971 428T898 294Q790 205 582 195Q596 176 622 140Q680 61 711 21Q794 -92 847 -129T937 -166Q991 -166 991 -98T950 27Q947 30 947 32T951 35T960
28Q1007 -26 1007 -90Q1007 -136 979 -167T906 -198Q840 -198 768 -135Q682 -61 611 90L559 195H542Q378 -143 163 -143Q89 -143 45 -96T1 31T50 175T179 239Q202 239 221 226Q242 215 242 192Q242 186 239 185ZM750 239Q921 291 921 408Q921 475 855 529Q807 571
724 595Q652 614 573 614H554Q545 479 479 312Q504 291 523 269Q561 361 587 478Q591 500 593 507Q600 537 632 537Q650 537 650 522Q650 515 642 480Q615 356 558 227L565 218Q674 218 750 239ZM418 326Q390 326 390 296T437 239Q456 280 465 307Q436 326 418
326ZM518 255Q495 282 474 299Q459 262 446 235Q472 224 502 220L518 255Z" />
<glyph unicode="S" glyph-name="S" horiz-adv-x="634" d="M680 530Q680 497 638 482Q608 470 568 470T484 481Q438 490 407 512Q405 514 405 516T407 518T411 517Q466 481 566 481Q600 481 628 493T656 531Q656 567 604 585Q568 598 523 598Q398 598 352 517Q338
492 338 465Q338 404 406 358Q451 328 531 278Q598 223 598 141Q598 30 484 -37Q389 -93 281 -93T108 -55Q28 -9 28 78T92 221T242 277Q289 277 289 269Q289 267 273 267T256 267Q175 267 116 219Q53 170 53 88T110 -40T244 -86T408 -50Q558 10 558 137Q558 215
489 263Q467 279 424 306T363 345Q295 391 295 457Q295 501 328 537Q298 534 277 508Q257 480 257 450Q257 381 322 332Q343 316 442 249Q506 196 506 125T436 -6T293 -67Q288 -67 288 -64Q288 -58 295 -58Q326 -54 348 -47Q402 -25 445 23T488 124Q488 198 425
245Q406 260 367 286T308 327Q244 374 244 449Q244 486 270 514T332 543H334Q405 611 517 611T668 562Q680 547 680 530Z" />
<glyph unicode="T" glyph-name="T" horiz-adv-x="543" d="M169 -15L185 -18Q262 -18 358 199Q423 345 458 487Q309 519 232 519Q71 519 71 408Q71 334 156 275Q160 274 160 271T158 268T151 270Q39 334 39 423Q39 486 100 516Q147 538 222 538T463 506Q468 531
473 576Q475 586 479 589Q482 588 482 568T474 504L547 490Q636 639 743 639Q807 639 807 585Q807 575 804 575T800 583Q800 622 748 622Q676 622 596 481Q697 462 750 462Q848 462 848 510Q848 519 845 523T842 530T844 533Q850 533 855 519T860 494Q860 433 762
433Q706 433 583 460Q542 378 478 244T356 35Q252 -103 135 -103Q93 -103 62 -87Q21 -68 21 -28T66 35Q100 53 146 53Q155 53 155 50T146 47Q108 47 80 31Q44 13 44 -20T69 -69T126 -85Q212 -85 282 -7Q333 51 381 145Q420 226 458 313T536 470L469 484Q422 276
328 106Q250 -30 185 -30Q164 -30 164 -20Q164 -15 169 -15Z" />
<glyph unicode="U" glyph-name="U" horiz-adv-x="811" d="M798 91Q803 101 813 117T826 133T829 131T827 124Q740 -32 674 -32Q573 -32 573 115Q573 200 609 344Q528 211 449 116Q321 -45 248 -45Q185 -45 185 42T243 276T367 534L327 550Q244 435 181 259T117
-46Q117 -55 113 -55T108 -26Q108 103 172 272T318 553Q258 573 204 573Q97 573 27 505Q8 487 8 466Q8 428 72 401Q95 390 95 389T91 387T70 393Q-14 428 -14 478Q-14 501 9 524Q81 597 218 597Q280 597 340 581Q385 636 397 636Q401 636 400 633T381 613T349 579Q427
556 427 539V536Q401 496 381 455Q237 185 237 36Q237 -26 268 -26Q326 -26 453 146Q571 305 629 421Q633 426 653 514Q659 530 678 530T697 518Q697 498 662 348T626 123Q626 -20 681 -20Q728 -20 798 91Z" />
<glyph unicode="V" glyph-name="V" horiz-adv-x="601" d="M457 336Q457 224 405 98Q385 48 296 -124Q293 -127 290 -127Q282 -127 282 -122T316 -18T369 147Q398 256 398 332Q398 470 332 528Q344 464 344 383Q344 240 307 78T204 -193Q201 -198 199 -198T197
-193V-190Q332 83 332 378Q332 475 316 540Q283 561 240 561Q146 561 77 481T7 305Q7 251 31 227T95 203T176 231T247 300Q250 304 252 304T254 301T252 294Q228 254 174 218T83 181T23 197Q-4 214 -12 239T-21 308T3 406Q36 478 112 526T269 575Q288 575 307 572Q279
649 225 659Q220 661 220 664Q220 674 234 674Q292 674 322 568Q457 530 457 336ZM1025 527Q1025 516 1020 487T1008 456Q1007 457 1007 460T1011 480T1016 509Q1016 576 947 576Q920 576 887 561Q737 492 568 227Q547 195 447 35Q333 -143 294 -143Q291 -143 291
-138T295 -131Q301 -129 320 -117Q359 -86 452 66Q583 286 644 369Q773 544 902 604Q926 616 956 616T1005 591T1025 527Z" />
<glyph unicode="W" glyph-name="W" horiz-adv-x="891" d="M1294 573L1303 623Q1303 690 1234 690Q1177 690 1102 632Q1006 553 908 388Q878 336 826 240T753 108Q646 -84 605 -84Q603 -84 603 -78T611 -69Q622 -52 622 -11T611 100Q596 180 594 208Q542 125 451
11Q330 -143 294 -143Q291 -143 291 -138T302 -128Q368 -100 472 45Q539 137 592 230Q588 266 588 330T603 462Q624 557 674 586Q688 595 699 595Q743 595 743 540Q743 460 646 293Q651 245 659 188T668 110Q668 7 624 -63Q662 -36 726 84Q763 153 846 314Q922
455 998 555Q1091 673 1189 719Q1213 731 1236 731Q1274 731 1292 705Q1312 679 1312 641Q1312 630 1307 601T1295 571Q1294 572 1294 573ZM457 336Q457 224 405 98Q385 48 296 -124Q293 -127 290 -127Q282 -127 282 -122T316 -18T369 147Q398 256 398 332Q398
470 332 528Q344 464 344 383Q344 240 307 78T204 -193Q201 -198 199 -198T197 -188T237 -51T297 150Q332 284 332 379T316 540Q283 561 240 561Q146 561 77 481T7 305Q7 251 31 227T95 203T176 231T247 300Q250 304 252 304T254 301T252 294Q228 254 174 218T83
181T23 197Q-4 214 -12 239T-21 308T3 406Q36 478 112 526T269 575Q288 575 307 572Q279 649 225 659Q220 661 220 664Q220 674 234 674Q292 674 322 568Q457 530 457 336ZM718 546Q718 588 697 588Q638 588 638 422Q638 384 643 326Q718 476 718 546Z" />
<glyph unicode="X" glyph-name="X" horiz-adv-x="638" d="M935 668Q935 664 914 664Q790 664 370 242Q390 15 487 15Q533 15 564 52Q608 104 621 193Q622 199 629 199Q632 199 632 192T618 133T569 40Q525 -13 469 -13Q353 -13 325 198L280 153Q310 -35 390 -35Q402
-35 411 -31Q431 -22 431 -27Q431 -39 414 -46Q393 -53 383 -53Q300 -53 269 141Q16 -115 -64 -115Q-67 -115 -67 -111T-63 -105T-19 -86Q38 -56 170 69L265 161Q256 227 256 301Q256 440 286 575Q63 535 63 396Q63 307 192 307Q199 307 206 308H219Q223 308 223
304Q223 295 188 295Q10 295 10 398Q10 544 289 586Q307 668 328 716Q331 724 333 724T335 720V718Q318 659 301 588L365 597Q393 619 399 619T405 618Q403 613 399 600Q544 617 551 617T559 615Q559 608 491 600L396 589Q365 484 365 347Q365 306 368 261Q797
677 913 677Q935 677 935 668ZM270 300Q270 241 277 173L322 217Q316 267 316 321T325 471T351 584L299 577Q270 441 270 300Z" />
<glyph unicode="Y" glyph-name="Y" horiz-adv-x="672" d="M736 477Q736 473 732 472T708 464Q653 429 616 269L557 22Q515 -132 462 -227Q393 -351 293 -407Q247 -432 186 -432T69 -388Q17 -344 -6 -277Q-7 -276 -7 -272T-5 -267T3 -275Q12 -302 23 -316Q72 -392
174 -392Q238 -392 292 -362Q397 -303 455 -178Q496 -86 534 115Q547 182 579 311Q510 193 436 101Q320 -45 249 -45Q185 -45 185 42T243 276T367 534L327 550Q244 435 181 259T117 -46Q117 -55 113 -55T108 -26Q108 103 172 272T318 553Q258 573 204 573Q98 573
27 505Q8 487 8 466Q8 428 72 401Q95 390 95 389T89 387T66 395Q-14 431 -14 478Q-14 501 9 524Q81 597 218 597Q280 597 340 581Q385 636 397 636Q401 636 400 633T381 613T349 579Q427 556 427 539V536Q401 496 381 455Q237 185 237 36Q237 -26 268 -26Q314 -26
423 107Q516 223 589 347Q612 448 661 472Q685 484 710 484T736 477Z" />
<glyph unicode="Z" glyph-name="Z" horiz-adv-x="778" d="M296 209Q296 204 302 194L301 193Q292 193 282 205T272 229Q272 276 413 282Q583 462 716 553L572 575Q476 588 427 588T333 573Q272 552 272 511Q272 495 279 485T287 472Q289 468 290 467Q290 461 283
460L280 461Q258 491 258 523T294 585T367 621T453 628T558 616T749 574Q784 596 840 624T911 652Q913 652 913 650Q913 642 903 638Q844 622 761 572Q804 562 842 559Q893 584 933 584T973 570Q973 543 853 543Q845 543 836 543Q715 465 532 282Q625 279 684 268Q691
267 691 265T685 262L599 266Q571 266 513 264Q352 100 305 52Q448 -3 513 -29Q635 -75 720 -75T806 -30Q806 -3 777 40Q790 34 802 13T815 -24Q815 -65 766 -90T672 -115Q600 -115 481 -54Q419 -23 295 41Q243 -16 205 -39Q156 -71 91 -71Q56 -71 27 -49Q-9 -25
-9 7Q-9 50 37 73Q73 91 117 91T221 78Q231 88 383 251Q296 235 296 209ZM94 -23Q79 -23 73 -15H78Q127 -15 213 70Q160 85 120 85T49 71Q8 53 8 20T39 -33Q64 -50 102 -50T199 -20Q258 12 282 45Q263 57 229 66Q138 -23 94 -23ZM814 544Q790 545 731 551Q620 475
437 283Q450 284 464 284L491 283Q655 456 814 544ZM469 261L410 255Q378 221 237 74Q277 62 292 57Q353 130 469 261ZM937 568Q937 572 919 572T864 558Q872 557 882 557H892Q937 557 937 568Z" />
<glyph unicode="[" glyph-name="bracketleft" horiz-adv-x="585" d="M472 718Q573 718 573 698Q573 693 572 684Q568 683 558 683L486 687Q442 687 426 677T370 620Q289 524 188 336T87 60Q87 4 164 4L239 9Q268 9 268 -3Q268 -17 158 -17T48 19Q48 138 177 386Q310
637 405 701Q429 718 472 718Z" />
<glyph unicode="\" glyph-name="backslash" horiz-adv-x="551" d="M523 -84Q523 -116 497 -116V-96Q497 63 317 332Q180 535 10 709Q12 715 30 715T72 696T164 590Q287 435 387 267Q523 37 523 -84Z" />
<glyph unicode="]" glyph-name="bracketright" horiz-adv-x="556" d="M538 679Q538 534 455 335T268 27Q226 -17 93 -17Q54 -17 32 -15Q55 5 71 8H116Q213 8 259 63Q337 156 418 345T499 643Q499 664 495 680Q482 689 464 689T421 688T384 686T366 685T356 684Q388
716 465 716Q507 716 513 714Q538 708 538 679Z" />
<glyph unicode="^" glyph-name="asciicircum" horiz-adv-x="370" d="M186 412Q86 328 75 328T64 338T125 398Q187 450 200 451L206 449Q244 407 331 341L336 331L332 324Q309 326 256 360T186 412Z" />
<glyph unicode="_" glyph-name="underscore" horiz-adv-x="643" d="M630 273Q630 246 614 204T578 138Q413 -64 200 -64Q118 -64 68 -18T18 110Q18 120 20 138Q9 146 1 161L21 153Q32 203 81 253T178 303Q189 303 189 300T163 280T104 224T57 147L59 145Q108 145
161 191T214 285Q214 299 206 311T182 324T138 308T108 291T105 294Q105 309 137 320T192 332T230 319T245 283Q245 247 202 210T116 152T56 131H53Q45 110 45 76Q45 15 89 -15T199 -45T350 -7T515 109Q610 202 610 290T531 379Q443 379 364 300Q359 295 356 295T352
298T354 305Q377 344 421 369T517 395T599 362T630 273Z" />
<glyph unicode="`" glyph-name="grave" horiz-adv-x="263" d="M201 402Q215 391 215 387T213 382Q203 382 159 410Q96 450 88 454Q57 471 57 484Q57 493 67 500T86 508Q110 508 114 492Q122 466 150 441Q154 436 201 402Z" />
<glyph unicode="a" glyph-name="a" horiz-adv-x="329" d="M339 134T342 134T345 130T341 120Q251 -14 202 -14Q175 -14 162 11T148 68T158 141Q95 1 28 1Q-13 1 -13 54Q-13 139 69 231T234 323Q273 323 273 289Q273 247 217 205Q188 133 188 67T213 0Q246 0 333
126Q339 134 342 134ZM227 239Q243 261 243 283T222 305Q172 305 91 207T10 55Q10 32 32 32Q95 32 154 172Q136 167 130 167T124 170Q124 175 138 180L169 198Q171 215 190 242T226 270Q232 270 232 262T227 239Z" />
<glyph unicode="b" glyph-name="b" horiz-adv-x="311" d="M322 128L293 130Q255 68 196 23T72 -22Q52 -22 39 -18L36 -39Q33 -55 27 -55T20 -42T23 -11Q0 3 0 24Q0 57 53 89Q75 153 94 200Q73 179 49 151Q44 146 41 146T38 150Q38 166 105 227Q224 522 303 671Q314
688 338 688T363 679Q363 678 294 544T162 274Q242 331 289 331T336 270T300 142Q328 141 328 132Q328 128 322 128ZM263 143Q278 185 278 240T244 295T150 249Q100 140 86 106Q163 138 263 143ZM68 -3Q126 -3 180 36T257 130Q159 122 72 74L44 -1Q58 -3 68 -3ZM40
52Q22 35 22 25T28 8Q31 23 40 52Z" />
<glyph unicode="c" glyph-name="c" horiz-adv-x="282" d="M249 269Q249 251 241 227T220 202T207 217Q207 223 213 244Q220 265 220 279Q220 324 184 324Q166 324 139 310T108 295T105 298Q105 312 139 323T195 334Q249 334 249 269ZM66 -28Q-3 -28 -3 50T52 215T179
303Q190 303 190 300T170 284Q121 254 82 191T42 76Q42 -5 103 -5Q140 -5 185 24Q247 64 283 121Q292 136 297 136L299 134Q299 130 290 117Q254 62 189 17T66 -28Z" />
<glyph unicode="d" glyph-name="d" horiz-adv-x="371" d="M330 376Q342 373 342 357T317 298T277 246Q258 207 244 149T229 45T255 0Q286 0 328 54Q342 70 382 135Q386 141 389 141T392 138L390 132Q313 -17 246 -17Q188 -17 188 67Q188 108 206 189Q168 116 139
74Q85 0 39 0T-7 62Q-7 157 94 264T292 382Q365 561 417 662Q434 685 471 685Q485 685 485 678Q407 531 330 376ZM18 81Q18 37 45 37Q118 37 188 200Q168 194 161 194T153 198T166 207T200 226Q209 250 214 267T224 284Q231 284 231 275T222 242L240 255L282 359Q206
342 112 248T18 81Z" />
<glyph unicode="e" glyph-name="e" horiz-adv-x="295" d="M310 136Q311 136 311 133T303 116Q272 66 213 24T102 -19Q31 -19 31 73Q31 104 38 139Q29 147 22 161Q23 160 27 159T34 156T42 153Q52 202 103 254T202 306Q213 306 213 304T199 293Q162 273 130 231Q96
189 81 147L83 145Q131 145 183 191T235 285Q235 299 228 311T203 324T161 309T133 293T130 294Q130 306 162 319T215 332T251 319T266 283Q266 230 201 183T77 131Q69 107 69 85Q69 2 129 2Q175 2 221 38T295 122Q304 136 310 136Z" />
<glyph unicode="f" glyph-name="f" horiz-adv-x="257" d="M44 273L63 272H83Q128 272 190 287Q304 497 442 616Q483 651 508 651Q540 651 540 603T512 514Q495 491 488 491T481 495T500 534T520 593T497 616Q461 616 397 544T301 418Q265 362 231 298L383 348Q387
348 387 346Q387 340 369 332Q299 303 222 280Q160 157 142 55Q142 54 133 -23Q131 -40 109 -40T85 -23Q93 56 93 81Q93 185 59 219L38 233Q27 240 27 254Q27 273 44 273ZM180 269Q140 259 70 248Q103 230 109 105Q135 184 180 269Z" />
<glyph unicode="g" glyph-name="g" horiz-adv-x="324" d="M347 -54Q347 -61 330 -61T277 -58T217 -54Q251 -122 251 -172Q251 -287 101 -374Q-29 -450 -156 -450Q-341 -450 -341 -339Q-341 -321 -339 -312Q-333 -276 -285 -220Q-135 -45 168 -37L135 46Q86 4 46
4Q10 4 10 43Q10 116 92 205Q90 229 90 239Q90 300 113 344Q142 400 197 400Q205 400 219 398Q242 393 252 365T263 325T262 307Q322 343 322 394Q322 412 326 412Q336 412 336 377Q336 310 260 274Q254 222 222 158T153 63Q170 34 208 -37Q347 -40 347 -54ZM203
-155Q203 -124 175 -55Q20 -62 -100 -113Q-252 -178 -297 -297Q-304 -314 -304 -331Q-304 -380 -257 -407T-157 -435Q-49 -435 77 -345T203 -155ZM222 321Q222 380 194 380Q170 380 148 347Q106 286 106 227Q106 219 107 216Q129 238 161 256L220 290Q222 312 222
321ZM217 261Q144 227 108 194Q115 145 145 80Q171 104 194 163T217 261ZM94 178Q38 104 38 71T57 38Q94 38 128 65Q98 138 94 178Z" />
<glyph unicode="h" glyph-name="h" horiz-adv-x="361" d="M267 301L258 225Q258 164 276 102Q302 16 347 16Q355 16 367 21T381 26Q389 26 389 17T369 0T337 -8Q286 -8 249 69T211 209Q211 221 212 226Q179 178 69 74Q56 30 47 -14Q40 -41 14 -41Q2 -41 4 -33Q1
-25 -10 -8T-22 16T-15 23Q3 34 30 58Q91 236 239 563Q241 567 245 578Q252 597 265 620Q276 643 318 643Q333 643 333 636Q333 636 273 523Q133 258 80 106Q197 223 235 299Q241 309 254 309T267 301ZM20 28L-1 11Q4 4 9 -10Q17 20 20 28Z" />
<glyph unicode="i" glyph-name="i" horiz-adv-x="174" d="M191 137Q193 137 193 135Q193 118 138 60Q94 16 71 16Q20 16 20 67Q20 105 40 163L22 135Q9 113 4 113Q2 113 2 118T17 144T61 226Q69 247 83 273Q88 282 106 282T125 272T115 242T98 219Q46 115 46 66Q46
33 68 33Q104 33 147 85Q165 106 169 110T177 120T184 128Q189 133 191 137ZM182 419T187 419T192 417T169 388L154 357Q145 337 131 337Q111 337 111 358Q111 368 124 383T160 409Z" />
<glyph unicode="j" glyph-name="j" horiz-adv-x="198" d="M91 1Q201 -2 201 -11T183 -20Q159 -14 88 -14Q61 -120 -27 -205T-226 -344Q-316 -385 -375 -385Q-461 -385 -461 -313Q-461 -250 -395 -180Q-347 -128 -276 -86Q-135 -4 54 1Q63 31 67 72T77 143Q48 117
45 117Q44 117 44 122T60 144L83 167L108 246Q114 257 132 257T151 248T144 216Q137 199 128 193Q121 167 110 99T91 1ZM-381 -197Q-441 -258 -441 -307T-364 -357Q-233 -357 -111 -251T51 -15Q-28 -18 -120 -46Q-287 -97 -381 -197ZM167 392Q203 409 207 409T212
406T190 378L175 347Q166 327 152 327Q132 327 132 348Q132 358 143 371T167 392Z" />
<glyph unicode="k" glyph-name="k" horiz-adv-x="291" d="M277 -25Q297 -25 312 -11T329 3T332 0T330 -9Q306 -48 263 -48T166 -1T74 100L36 38Q12 0 -10 -18Q-18 -41 -41 -41Q-52 -41 -52 -33Q-52 -5 6 144L-13 142Q-19 142 -19 144Q-19 158 11 159Q66 293 84
335Q38 310 18 310Q14 310 14 313Q14 323 28 329Q30 330 36 332Q70 348 97 368L210 620Q221 643 257 643Q276 643 276 632Q276 628 267 605Q238 526 173 422Q149 392 140 373Q125 344 106 305T39 163Q59 182 66 182T79 171Q95 176 108 182Q111 189 135 231T192
309Q239 362 270 362T301 295Q301 212 119 170Q113 158 98 137Q129 82 173 36Q231 -25 277 -25ZM252 301Q252 329 239 329Q217 329 153 232L128 187Q252 232 252 301ZM67 111Q56 130 46 152L35 151Q17 106 -6 2Q30 44 67 111Z" />
<glyph unicode="l" glyph-name="l" horiz-adv-x="163" d="M264 506Q256 502 246 491Q62 148 62 50Q62 17 84 17Q112 17 162 61Q170 68 173 71T176 74Q180 74 180 71T176 62Q132 0 86 0Q36 0 36 53T87 244Q62 210 52 210Q49 210 49 212T75 248T104 287Q135 377
197 503T282 671Q290 688 315 688T341 681T264 506Z" />
<glyph unicode="m" glyph-name="m" horiz-adv-x="496" d="M56 185L49 259Q49 266 57 269L101 281Q116 315 151 315Q166 315 161 303L185 314Q187 314 187 311Q187 302 155 288Q128 226 60 45Q118 112 151 156Q181 211 225 273Q237 291 266 291T295 269Q295 260
270 197T244 129Q295 174 338 242Q342 249 345 249T349 244Q349 231 296 158Q235 77 231 71T218 65T209 72Q209 82 236 188Q244 220 244 252Q209 199 152 133L53 20Q50 -7 27 -7Q18 -7 18 1L20 6Q18 8 29 34T48 105T56 185ZM518 31Q518 23 495 16T462 8Q407 8 376
81Q351 137 351 188T358 253T382 266T402 261Q400 261 397 241T394 181T411 94Q435 25 478 25Q487 25 498 29T513 34T518 31ZM94 264L67 255Q72 227 72 202Q80 227 94 264Z" />
<glyph unicode="n" glyph-name="n" horiz-adv-x="288" d="M-8 -6L48 247Q44 261 26 301Q26 308 43 314Q93 333 107 333T122 324Q85 232 71 196Q71 193 71 190Q71 159 62 159Q60 159 59 162Q38 99 30 70Q76 145 124 201Q199 288 248 288Q271 288 271 270Q271 263
213 50Q271 93 303 142Q308 148 310 148T313 145T310 137Q266 59 203 13Q198 7 191 7T183 16T195 84T212 174T220 252Q179 232 119 166T40 63T15 3T1 -21T-8 -8V-6ZM63 307Q58 303 44 297L54 274L63 307Z" />
<glyph unicode="o" glyph-name="o" horiz-adv-x="278" d="M255 196L258 215Q258 231 248 241T223 252Q211 130 164 65H195Q182 57 176 57T167 58T161 59Q162 58 156 53T118 20T60 -7Q21 -7 21 43Q21 104 67 168Q51 207 51 250T68 326Q101 389 150 389Q212 389
222 283Q272 281 272 231Q272 190 259 190Q255 190 255 196ZM151 367Q119 367 92 304Q75 266 75 231T78 179Q139 261 206 281Q186 367 151 367ZM207 253Q185 250 139 213T81 153Q102 77 132 70Q156 92 181 157T207 253ZM74 144Q41 88 41 56T63 23Q90 23 128 65Q95
69 74 144Z" />
<glyph unicode="p" glyph-name="p" horiz-adv-x="276" d="M194 184Q238 122 238 81T204 18T137 -3T68 10T32 43L33 46Q32 45 35 43Q42 39 68 26T121 13T170 29T193 70Q193 135 104 235Q-9 -28 -40 -105T-86 -236T-101 -349Q-101 -438 -43 -438Q-5 -438 49 -405Q39
-423 11 -436T-37 -450Q-85 -450 -122 -413T-160 -329T-142 -235T-89 -115T91 252Q36 331 36 386T80 441Q137 441 137 372Q137 338 117 276Q169 219 194 184ZM106 285Q123 325 123 377T86 430Q69 430 69 394Q69 338 106 285Z" />
<glyph unicode="q" glyph-name="q" horiz-adv-x="265" d="M295 289Q295 247 239 205Q164 26 134 -97Q192 -191 192 -220T173 -282T129 -315T97 -301Q81 -291 81 -241T107 -92Q79 -40 75 6Q62 1 50 1Q9 1 9 54Q9 130 95 228T254 326Q295 326 295 289ZM266 281Q266
303 244 303Q190 303 112 207T34 55Q34 32 54 32Q63 32 75 37Q80 69 106 92Q110 96 113 96T117 92Q113 87 102 74T87 44Q136 76 176 172Q158 167 152 167T146 170Q146 175 160 180L191 198Q196 214 209 230T233 246T249 239Q266 262 266 281ZM180 141Q135 42 87
12Q91 -24 115 -65Q134 1 154 62T180 141ZM156 -215Q156 -185 127 -129Q117 -179 117 -215T127 -275V-277H130Q156 -277 156 -215Z" />
<glyph unicode="r" glyph-name="r" horiz-adv-x="279" d="M285 230Q285 201 268 176T234 151Q231 151 231 155Q237 170 245 187T253 227T236 250Q213 250 164 195T94 104L51 -11Q49 -13 44 -13T28 -6T17 6Q19 10 22 19T29 33Q68 116 82 167T97 269Q93 253 61 198Q13
115 7 115T1 118Q1 120 42 187T99 312Q105 338 119 338Q135 338 135 298Q135 226 89 121Q143 188 164 211Q221 272 253 272T285 230Z" />
<glyph unicode="s" glyph-name="s" horiz-adv-x="254" d="M279 149T279 145T277 138Q243 81 193 71Q190 36 172 12T112 -12T33 27T-4 114Q-4 145 12 145Q22 145 32 130Q62 200 117 288Q152 342 199 342Q209 342 222 335T236 318Q236 311 228 311T215 312H207Q184
312 168 299T151 271T154 247L178 167Q192 117 192 85Q219 89 234 102T270 145Q273 149 276 149ZM151 72Q152 77 152 93T138 168T123 242T124 261Q98 234 39 117Q81 93 102 84T151 72ZM97 21Q136 21 150 60Q70 60 28 93Q30 70 52 46T97 21Z" />
<glyph unicode="t" glyph-name="t" horiz-adv-x="260" d="M360 322Q360 305 191 257Q146 170 136 146Q110 84 110 27Q110 -6 132 -6Q159 -6 203 32L248 71Q251 71 251 68T248 59Q232 35 194 6T134 -24Q84 -24 84 37Q84 81 106 146Q96 174 66 187Q57 191 39 198T10
210T-1 230T13 249H40Q92 249 151 261L247 476Q254 494 280 494T307 484Q307 481 270 399T228 312L211 296L199 272Q223 279 345 322Q355 324 357 324T360 322ZM144 244Q88 231 43 224Q95 197 110 160Q120 188 144 244Z" />
<glyph unicode="u" glyph-name="u" horiz-adv-x="297" d="M319 57V55Q284 7 242 7T200 81Q200 111 205 166Q167 94 80 26Q71 19 46 0Q41 -4 29 -4T16 2Q16 38 48 101T89 191T97 269Q93 253 61 198Q13 115 7 115T1 119L31 170Q79 254 93 311Q99 337 117 337T135
292T109 164L67 33Q151 97 207 190Q217 260 234 282Q240 289 256 289T273 278Q273 248 254 223Q232 148 232 77Q232 29 262 29Q277 29 292 42T312 59T316 63Q319 63 319 57Z" />
<glyph unicode="v" glyph-name="v" horiz-adv-x="267" d="M451 324Q451 308 448 308T442 325T433 352T401 362Q334 362 277 309T189 194T159 103V100Q159 88 136 36T102 -16Q99 -16 98 -17H94Q88 -17 80 -9Q79 -7 79 2T96 70T113 219T78 311Q59 311 31 286L3 260Q0
260 0 262T2 271Q14 293 47 315Q80 339 102 339Q144 339 144 258Q144 197 122 125Q168 220 232 287Q316 374 400 374Q451 374 451 324Z" />
<glyph unicode="w" glyph-name="w" horiz-adv-x="425" d="M389 184Q393 151 401 142T410 128T407 123Q398 123 374 169Q360 120 338 83Q306 30 272 30T219 52T201 100T204 142Q167 93 127 54Q66 -6 35 -6Q6 -6 6 32Q6 94 61 189Q56 184 36 156T14 127T11 130Q11
142 56 196Q102 250 119 263T150 276T164 270Q164 267 160 264Q131 233 81 147T31 29Q31 17 39 17Q102 17 210 182Q212 184 222 201T238 228T263 238T283 223Q245 164 245 98Q245 50 270 50T330 104Q357 149 367 181Q342 262 342 271Q342 288 357 288Q374 288 386
267T399 225T389 184Z" />
<glyph unicode="x" glyph-name="x" horiz-adv-x="253" d="M312 -6T312 -8T307 -15Q266 -48 229 -48Q142 -48 112 143Q104 137 -9 22Q-13 18 -15 18T-18 23T-11 35L79 131Q83 135 107 165Q107 185 94 243Q85 220 56 193Q27 164 1 152Q-2 150 -5 150T-9 152Q-9 156
0 162Q78 217 77 254V259Q77 272 86 282T104 293T114 292Q130 288 142 194Q157 206 195 251T252 307Q257 312 261 312Q263 312 263 308Q263 301 213 249T145 166Q172 -28 249 -28Q265 -28 309 -6Q312 -6 312 -8Z" />
<glyph unicode="y" glyph-name="y" horiz-adv-x="341" d="M384 396Q384 393 375 391T356 383Q311 351 278 212Q228 -1 226 -6Q187 -145 142 -226Q80 -336 -8 -385Q-49 -408 -100 -408T-212 -362T-273 -266Q-273 -262 -271 -262T-265 -268Q-223 -373 -113 -373Q-57
-373 -9 -346Q84 -294 136 -183Q169 -108 197 31Q221 160 238 222L255 284Q192 235 104 3Q104 1 98 1T85 8T77 23L94 65Q113 121 113 229Q113 311 78 311Q59 311 31 286L3 260Q0 260 0 262T2 271Q16 293 48 316T102 339Q144 339 144 258Q144 192 117 112Q200 265
258 295Q273 349 292 371Q317 402 366 402Q384 402 384 396Z" />
<glyph unicode="z" glyph-name="z" horiz-adv-x="279" d="M326 -59L328 -50Q328 -36 297 -25T244 -14Q217 -120 129 -205T-70 -344Q-160 -385 -219 -385Q-305 -385 -305 -313Q-305 -249 -240 -180Q-190 -127 -120 -86Q21 -4 210 1Q224 49 224 87Q224 160 175 160Q157
160 99 132Q89 132 89 141Q89 145 94 150Q119 172 154 220T190 288T176 307Q127 307 22 135Q19 129 15 129T11 133T14 142L54 210Q123 327 178 327Q223 327 223 297Q223 251 153 175Q181 192 200 192Q258 192 258 90Q258 43 247 1Q277 -1 309 -12T341 -43T329 -63Q326
-63 326 -59ZM-285 -307Q-285 -357 -209 -357Q-79 -357 44 -251T207 -15Q127 -18 35 -46T-116 -109T-230 -202T-285 -307Z" />
<glyph unicode="{" glyph-name="braceleft" horiz-adv-x="369" d="M169 244T169 199T150 77T131 -45Q131 -123 210 -125Q241 -126 244 -131Q242 -134 232 -134Q168 -134 140 -119Q98 -96 98 -39Q98 1 118 83T138 205Q138 300 21 301L26 309Q111 318 143 346Q187
384 203 497T243 650Q289 726 417 726Q421 726 423 724L415 721Q332 721 295 678Q267 647 252 574Q240 519 234 485T227 448Q210 392 166 349T66 305Q109 299 139 272Z" />
<glyph unicode="|" glyph-name="bar" horiz-adv-x="250" d="M181 617V601Q180 594 180 586Q180 487 146 213T87 -97Q73 -117 59 -117Q58 -117 58 -115T74 -45Q135 214 135 503Q135 592 129 638Q125 656 121 674T116 704T135 715Q181 715 181 617Z" />
<glyph unicode="}" glyph-name="braceright" horiz-adv-x="485" d="M284 718Q289 721 291 722Q351 722 378 713Q424 697 424 648T393 511T361 376Q361 307 471 296L464 287Q338 286 293 177L230 -24Q177 -131 31 -131Q27 -131 25 -129Q30 -128 75 -123T146 -99Q184
-70 220 57T300 226Q365 287 441 294Q396 297 363 319T330 385T359 516T388 648T356 705Q329 709 286 716L284 718Z" />
<glyph unicode="~" glyph-name="asciitilde" horiz-adv-x="327" d="M303 457Q292 442 275 429T238 415T171 432T101 450T54 422L43 435Q79 476 101 476T168 458T236 440T271 449L294 467L303 457Z" />
<glyph unicode="&#xa0;" glyph-name="uni00A0" horiz-adv-x="0" />
<glyph unicode="&#xa1;" glyph-name="exclamdown" horiz-adv-x="219" d="M159 196Q159 141 98 -36T0 -262Q-13 -281 -32 -281T-52 -266Q-52 -260 -46 -250Q5 -168 64 -38Q130 110 144 197Q145 204 152 204T159 196ZM178 360Q191 372 199 372T214 361T222 337T194
305T145 286Q143 286 142 287V289Q142 294 150 310T162 337T178 360Z" />
<glyph unicode="&#xa2;" glyph-name="cent" horiz-adv-x="282" d="M334 689Q338 689 338 688T336 681Q272 586 233 517Q269 500 269 457Q269 442 260 417T238 392Q224 392 224 406Q242 443 242 468T225 503Q137 347 96 220Q105 216 120 216Q166 216 223 259Q270
296 300 343Q309 358 315 358Q316 357 316 354T308 338Q276 287 210 242T88 193Q73 137 68 71Q68 68 54 68T39 74Q39 117 64 195Q14 206 14 272Q14 353 71 439T196 525Q202 525 209 524Q246 591 292 661Q311 689 334 689ZM199 504Q143 494 101 426T59 306T77 234Q121
355 199 504Z" />
<glyph unicode="&#xa3;" glyph-name="sterling" horiz-adv-x="697" d="M596 408Q617 450 617 498T599 580Q578 624 540 624Q484 624 421 531Q389 485 338 384T234 188Q244 188 298 188T410 178Q416 176 416 174Q416 169 406 169Q340 169 218 164Q146 45 70 -4Q106
-10 174 -22T314 -45T482 -56Q667 -56 667 16Q667 37 647 66T626 99T628 103Q632 103 641 93Q676 61 676 19T624 -62T526 -110Q499 -116 469 -116Q388 -116 256 -78L47 -18Q-7 -46 -61 -46Q-92 -46 -92 -33Q-92 -26 -70 -26Q58 -26 175 162L114 159Q106 159 95
166T82 180Q87 185 190 188Q214 229 282 364T393 560Q462 652 533 652Q582 652 606 611T631 514T609 405Q608 402 602 402T596 408Z" />
<glyph unicode="&#xa4;" glyph-name="currency" horiz-adv-x="479" d="M354 365Q383 344 383 305T361 235T303 187Q351 108 366 91H333Q329 104 285 179Q256 169 221 169T163 180L81 90H49L151 186Q116 208 116 251Q116 320 183 360L130 441L159 450Q163 432 198
368Q237 385 276 385T342 373Q385 415 414 448L437 439Q435 437 421 425Q385 394 354 365ZM283 198T314 226T345 290Q345 360 273 360Q221 360 188 334T155 272T175 218T239 198Z" />
<glyph unicode="&#xa5;" glyph-name="yen" horiz-adv-x="400" d="M187 215L90 210Q84 210 71 217T55 233L57 235Q108 240 198 241Q262 389 341 495Q456 652 566 652Q617 652 617 608Q617 599 612 592Q608 638 567 638Q462 638 361 486Q294 386 239 241Q408 238
408 226Q408 221 397 221Q317 221 230 217Q149 -5 149 -125T210 -245Q248 -245 303 -210Q293 -228 266 -242T218 -256Q161 -256 128 -202Q100 -158 100 -95Q100 7 187 215ZM293 543V539Q293 471 236 342Q232 332 225 332Q221 332 221 333T241 390T261 512V516Q261
600 211 600Q157 600 62 508Q56 502 50 502T44 507T55 527Q88 569 140 606T232 644Q293 644 293 543Z" />
<glyph unicode="&#xa6;" glyph-name="brokenbar" horiz-adv-x="166" d="M89 439L82 475Q82 483 94 483Q123 483 123 419Q123 261 112 243Q109 237 100 237T90 243L94 348Q94 412 89 439ZM105 193Q105 175 87 75T63 -35T47 -47L45 -46Q75 78 79 126T86 193Q87 197
96 197T105 193Z" />
<glyph unicode="&#xa7;" glyph-name="section" horiz-adv-x="605" d="M610 504Q610 475 582 462T531 449T507 453T525 458T561 472T578 509Q578 541 545 556Q522 567 486 567Q428 567 386 534T343 444T398 345L501 270Q557 219 557 143Q557 25 439 -36Q409 -104
336 -141T183 -178T50 -140Q-10 -98 -10 -22T38 108T159 162Q197 162 197 155Q197 153 173 153Q106 153 65 112T24 3T69 -115T184 -164Q235 -164 292 -137Q408 -83 408 35Q408 103 355 153Q279 208 256 228Q202 272 202 331Q202 421 307 460Q318 514 372 546T477
578T564 562Q610 543 610 504ZM511 140Q511 212 455 258Q439 271 405 296T355 335Q305 377 305 438Q305 441 305 445Q240 410 240 339Q240 281 296 240L399 166Q454 115 454 39Q454 18 449 -7Q511 44 511 140Z" />
<glyph unicode="&#xa8;" glyph-name="dieresis" horiz-adv-x="294" d="M267 465Q267 464 252 447Q244 434 238 414Q228 381 208 381Q202 381 194 392Q187 403 187 416T205 437Q212 444 233 455T260 467T267 466V465ZM133 465Q133 464 118 447Q110 434 104 414Q94
381 74 381Q68 381 60 392Q53 403 53 416T71 437Q78 444 100 455T127 467T133 466V465Z" />
<glyph unicode="&#xa9;" glyph-name="copyright" horiz-adv-x="638" d="M581 364Q581 248 459 139T217 29Q146 29 94 71T41 185Q41 302 166 412T410 522Q481 522 531 478T581 364ZM543 356Q543 420 503 461T400 502Q287 502 182 399T77 184Q77 125 123 88T231
50Q337 50 440 150T543 356ZM471 410Q471 380 453 378L448 382L453 406Q453 441 417 441Q339 441 252 348Q165 253 165 175Q165 127 213 127T338 169T413 214Q416 214 416 211Q416 177 336 146T218 115T158 130Q131 146 131 179Q131 271 229 360T422 450Q471 450
471 410Z" />
<glyph unicode="&#xaa;" glyph-name="ordfeminine" horiz-adv-x="264" d="M271 486Q217 405 186 405T155 454Q155 472 161 499Q124 414 83 414Q59 414 59 446Q59 497 108 552T207 607Q231 607 231 587Q231 562 197 537Q179 495 179 455T194 414Q215 414 266 489Q268
494 272 494L274 492Q274 490 271 486ZM203 557Q212 570 212 583T200 597Q169 597 121 538T73 447Q73 433 86 433Q123 433 159 517Q149 514 145 514T141 516Q141 518 168 532Q170 542 181 559T199 576T206 570T203 557Z" />
<glyph unicode="&#xab;" glyph-name="guillemotleft" horiz-adv-x="420" d="M130 283Q227 161 227 149T219 136Q217 136 209 140Q186 171 152 199L88 250Q85 252 85 256Q85 268 130 332T203 431Q212 442 220 442T229 436Q229 421 130 283ZM270 283Q368 159 368
148T359 136Q357 136 349 140Q324 173 303 190T260 225T232 247T225 259T275 337T339 425T361 442T369 436Q369 421 270 283Z" />
<glyph unicode="&#xac;" glyph-name="logicalnot" horiz-adv-x="0" />
<glyph unicode="&#xad;" glyph-name="uni00AD" horiz-adv-x="298" d="M111 168T108 168T103 167H99Q96 167 89 176T80 190L82 192Q133 198 191 198T285 187Q288 186 288 182T282 178Q228 178 189 175T141 171T127 170T116 169Z" />
<glyph unicode="&#xae;" glyph-name="registered" horiz-adv-x="638" d="M581 364Q581 248 459 139T217 29Q146 29 94 71T41 185Q41 302 166 412T410 522Q481 522 531 478T581 364ZM543 356Q543 420 503 461T400 502Q290 502 186 404Q276 439 355 439Q403 439
439 424Q489 403 489 363Q489 313 418 284Q367 263 304 261Q317 214 340 176Q371 125 408 123Q543 231 543 356ZM464 370Q464 427 351 427Q318 427 252 408T156 372Q77 278 77 184Q77 125 123 88T239 50T389 108Q352 117 320 166T274 264Q265 264 262 267L273 271L280
276L289 273Q464 297 464 370ZM150 76Q139 76 139 116T214 265T336 421L358 410Q354 401 302 336Q163 161 154 87Q152 76 150 76Z" />
<glyph unicode="&#xaf;" glyph-name="overscore" horiz-adv-x="296" d="M49 443Q57 451 143 451T253 439Q257 438 257 435T239 431T160 425T70 419Q66 419 58 428T49 443Z" />
<glyph unicode="&#xb0;" glyph-name="degree" horiz-adv-x="251" d="M218 485T218 448T192 385T128 358T65 384T38 447T64 512Q91 539 128 539T192 512ZM106 395T128 395T165 411T181 448T166 486Q150 502 128 502T91 486T75 449T90 411Q106 395 128 395Z" />
<glyph unicode="&#xb1;" glyph-name="plusminus" horiz-adv-x="438" d="M235 290L95 285Q88 285 84 292T79 306L85 311Q127 315 174 315T238 315Q248 413 253 453Q257 469 278 471L282 466Q281 426 264 315Q344 313 417 308Q422 306 422 304T421 298L411 292Q333
292 260 291Q248 224 230 144Q227 138 223 138T218 150T235 290ZM97 89Q113 97 195 97T301 85Q304 84 304 82Q304 77 297 77Q266 77 205 71T115 65Q110 65 104 73T97 89Z" />
<glyph unicode="&#xb2;" glyph-name="twosuperior" horiz-adv-x="422" d="M173 609L175 592Q175 589 174 589Q163 589 163 617Q163 655 212 680T297 705T354 691T376 649Q376 593 285 527Q227 485 143 445L251 418Q300 406 326 406Q383 406 383 437Q383 456 364
470T333 487T320 493Q320 495 324 495Q346 495 368 476T390 434Q390 381 306 381Q262 381 213 401L126 438Q84 420 60 420T35 440Q35 465 70 465Q88 465 124 454Q170 478 218 510T269 545Q347 605 347 659Q347 696 304 696T217 672T173 609ZM70 450Q46 450 46 437Q46
427 60 427Q64 427 103 444Q78 450 70 450Z" />
<glyph unicode="&#xb3;" glyph-name="threesuperior" horiz-adv-x="422" d="M392 655Q392 598 284 579Q384 560 384 499Q384 434 297 398Q231 370 168 370T65 384Q12 404 12 445Q12 470 35 484T83 499T109 491Q109 487 100 487Q34 487 34 448Q34 412 67 395T154
377T271 405Q351 441 351 499Q351 566 213 566Q205 566 205 575T217 585L257 592Q292 598 328 615Q376 638 376 663Q376 681 344 688T282 696T219 686T185 650Q185 640 177 640Q166 640 166 657Q166 683 209 696T284 709T354 696T392 655Z" />
<glyph unicode="&#xb4;" glyph-name="acute" horiz-adv-x="152" d="M201 511T211 504T221 486Q221 471 186 455Q174 449 124 417T65 385L63 387Q63 395 77 406Q124 440 128 445Q156 469 164 495Q168 511 191 511Q201 511 211 504Z" />
<glyph unicode="&#xb5;" glyph-name="mu" horiz-adv-x="297" d="M319 57V55Q284 7 242 7T200 81Q200 111 205 166Q165 88 52 5Q17 -79 9 -106T-2 -142Q-46 -266 -46 -352T12 -438Q50 -438 104 -405Q94 -423 66 -436T18 -450Q-30 -450 -67 -413T-105 -325V-322Q-105
-258 -46 -131L16 3Q55 86 76 147T97 270Q90 249 60 198Q12 115 7 115T1 119Q3 123 6 128T13 139T22 156Q76 246 93 311Q99 337 117 337T136 287T110 160Q98 126 67 33Q151 97 207 190Q217 260 234 282Q241 289 257 289T273 278Q273 248 254 223Q232 148 232 77Q232
29 262 29Q277 29 292 42T312 59T316 63Q319 63 319 57Z" />
<glyph unicode="&#xb6;" glyph-name="paragraph" horiz-adv-x="584" d="M727 673Q727 657 708 657Q650 657 584 559Q545 501 463 329T331 88Q215 -76 81 -76H74Q4 -125 -73 -125Q-106 -125 -106 -113Q-106 -104 -83 -104Q25 -104 122 17Q175 83 252 233Q190 238
150 267Q105 302 105 355T139 458Q193 536 293 572T504 608Q552 608 576 615Q639 686 701 686Q727 686 727 673ZM546 575L518 574Q453 528 383 398Q364 363 321 279T253 150Q176 8 93 -61Q178 -54 255 37Q304 95 359 204Q380 244 412 315T455 408Q506 516 546 575Z"
/>
<glyph unicode="&#xb7;" glyph-name="middot" horiz-adv-x="152" d="M175 229Q180 229 180 221T169 177T139 141Q133 141 125 152Q118 163 118 176T136 197Q165 229 175 229Z" />
<glyph unicode="&#xb8;" glyph-name="cedilla" horiz-adv-x="224" d="M173 -181Q173 -228 125 -254T24 -280Q15 -280 15 -269Q15 -264 24 -261Q72 -253 96 -250Q131 -239 131 -192Q131 -179 105 -142T79 -85Q79 -50 98 -24T149 2Q160 2 161 -5Q139 -9 127 -27T115
-68Q115 -79 144 -116T173 -181Z" />
<glyph unicode="&#xb9;" glyph-name="onesuperior" horiz-adv-x="321" d="M323 653Q323 643 316 636Q276 591 271 586Q161 453 135 315V314H156Q205 314 223 311Q227 311 227 306T222 300T211 301H201Q174 301 134 295Q135 292 135 286T130 279Q112 279 106 291Q47
281 18 281Q11 281 11 295T15 310Q34 310 105 313Q111 372 154 436L254 598Q230 587 192 555T148 522T142 525T150 537T260 635Q300 670 309 670Q323 670 323 653Z" />
<glyph unicode="&#xba;" glyph-name="ordmasculine" horiz-adv-x="225" d="M212 521L214 532Q214 554 192 554Q184 479 157 442H176Q168 437 164 437T158 438H155Q156 438 154 436T146 429Q115 398 93 398T71 432T99 504Q89 527 89 553T99 598Q119 636 148 636Q185
636 191 572Q221 572 221 541Q221 517 214 517Q212 517 212 521ZM149 623Q131 623 117 592T103 540T106 510Q145 561 182 571Q170 623 149 623ZM183 555Q172 554 143 531T107 495Q120 449 138 445Q152 459 167 496T183 555ZM103 490Q83 455 83 436T96 417Q114 417
136 442Q116 445 103 490Z" />
<glyph unicode="&#xbb;" glyph-name="guillemotright" horiz-adv-x="420" d="M340 288Q242 413 242 424T251 435Q253 435 261 431Q284 400 316 374L382 321Q385 320 385 313T335 234T271 146T249 129T241 135Q241 150 340 288ZM184 288Q86 413 86 424T95 435Q97
435 105 431Q128 400 160 374L226 321Q229 320 229 313T179 234T115 146T93 129T85 135Q85 150 184 288Z" />
<glyph unicode="&#xbc;" glyph-name="onequarter" horiz-adv-x="731" d="M556 225Q586 225 614 206T643 153T607 102T531 84T439 94Q411 37 405 0Q422 1 460 1T515 -2Q520 -4 520 -8T514 -13T503 -12H493Q459 -12 401 -22T310 -32Q303 -32 303 -18T307 -3T385
-1Q391 36 414 99Q335 118 267 137Q228 127 204 127T179 146Q179 163 219 163Q239 163 279 155Q368 186 510 342L553 389Q564 401 579 401T595 395Q544 276 539 274L528 263L453 124Q505 117 536 117T579 120Q634 133 634 160Q634 196 576 215Q565 219 557 220T549
222Q549 225 556 225ZM735 710Q735 709 730 704Q512 529 347 361Q113 124 39 -37Q24 -71 12 -116Q11 -117 9 -117T-1 -110T-9 -95T4 -55Q55 69 245 283Q377 432 543 587Q594 635 669 696Q697 715 716 715T735 710ZM18 324L108 326Q113 383 156 450L257 611Q234
602 196 569T152 535T145 538T151 548Q158 554 172 567T213 604T271 655T312 683Q326 683 326 666Q326 656 320 650Q298 628 274 599Q164 466 138 328V327H159Q210 327 226 324Q231 322 231 318T225 314H215Q210 315 194 315T138 309V301Q138 292 133 292Q114 292
110 304Q50 294 21 294Q14 294 14 309T18 324ZM500 288Q388 188 296 150Q352 137 426 127Q456 202 500 288ZM251 145Q230 155 210 155T189 145Q189 139 209 139T251 145Z" />
<glyph unicode="&#xbd;" glyph-name="onehalf" horiz-adv-x="665" d="M311 32Q482 -16 533 -16Q559 -16 577 -9Q604 2 604 23T579 62T540 84T526 89T531 92Q560 92 586 68T612 13T576 -34Q550 -47 504 -47T397 -22Q377 -13 290 22Q239 1 209 1T179 25Q179 55 222
55Q249 55 288 42Q387 94 473 160T560 292Q560 337 507 337T401 307T347 231L350 210Q350 206 349 206Q344 206 340 221T335 241Q335 287 394 317T496 347T567 331T595 279Q595 212 484 131Q410 76 311 32ZM735 710Q735 709 730 704Q512 529 347 361Q113 124 39
-37Q24 -71 12 -116Q11 -117 9 -117T-1 -110T-9 -95T4 -55Q55 69 245 283Q377 432 543 587Q594 635 669 696Q697 715 716 715T735 710ZM302 670Q316 670 316 656T310 636Q270 591 265 586Q154 449 128 315V314H149Q200 314 216 311Q221 309 221 306Q221 300 216
300T205 301H194Q168 301 128 295V288Q128 279 124 279Q104 279 100 291Q40 281 11 281Q4 281 4 295T8 310Q28 310 98 313Q103 367 140 425Q140 426 147 436T170 473L247 598Q223 587 186 555T142 522T135 526T141 535T253 635Q293 670 302 670ZM222 37Q193 37
193 21Q193 10 208 10T238 17Q248 24 263 30Q234 37 222 37Z" />
<glyph unicode="&#xbe;" glyph-name="threequarters" horiz-adv-x="750" d="M605 225Q635 225 663 206T692 153T656 102T581 84T488 94Q460 37 454 0Q471 1 509 1T564 -2Q568 -3 568 -8T563 -13T552 -12H542Q509 -12 450 -22T359 -32Q352 -32 352 -18T356 -3T434
-1Q440 36 463 99Q384 118 316 137Q277 127 253 127T228 146Q228 163 268 163Q288 163 328 155Q415 186 558 342L602 389Q612 401 628 401T644 395Q593 276 588 274L577 263Q563 235 554 219T502 124Q554 117 585 117T628 120Q683 133 683 160Q683 196 625 215Q614
219 601 220L598 222Q598 225 605 225ZM781 717Q563 542 398 374Q166 141 91 -23Q77 -56 70 -80T62 -104Q58 -104 50 -96T42 -82T56 -42Q107 83 296 296Q513 541 720 709Q746 729 766 729T786 726T781 717ZM392 655Q392 598 284 579Q384 560 384 499Q384 434 297
398Q231 370 168 370T65 384Q12 404 12 445Q12 470 35 484T83 499T109 491Q109 487 100 487Q34 487 34 448Q34 412 67 395T154 377T271 405Q351 441 351 499Q351 566 213 566Q205 566 205 575T217 585L257 592Q292 598 328 615Q376 638 376 663Q376 681 344 688T282
696T219 686T185 650Q185 640 177 640Q166 640 166 657Q166 683 209 696T284 709T354 696T392 655ZM549 288Q436 188 345 150Q403 137 474 127Q501 193 549 288ZM300 145Q279 155 259 155T238 145Q238 139 258 139T300 145Z" />
<glyph unicode="&#xbf;" glyph-name="questiondown" horiz-adv-x="528" d="M453 -159Q453 -174 441 -205Q412 -274 334 -319T184 -364T63 -326T13 -221Q13 -120 130 -47Q138 -42 204 -6Q415 108 415 172Q415 186 406 196L397 207Q397 217 408 217Q410 217 411
216Q433 198 433 174Q433 133 380 83T252 -15L146 -81Q31 -154 31 -239Q31 -294 77 -324T189 -354T317 -314T406 -207Q416 -183 416 -167Q416 -135 379 -135T284 -159L261 -168Q259 -168 259 -165T261 -159Q280 -140 323 -128T395 -115Q453 -115 453 -159ZM402
292L417 310Q425 323 431 343Q442 376 461 376Q467 376 474 365T482 341T464 320Q457 313 436 302T409 290T402 292Z" />
<glyph unicode="&#xc0;" glyph-name="Agrave" horiz-adv-x="624" d="M419 156L445 157H450Q457 157 457 154Q457 144 439 143Q295 133 269 129Q149 -21 36 -105Q63 -118 125 -129Q134 -130 134 -135T124 -140Q84 -140 26 -113Q-72 -183 -144 -183Q-190 -183 -190
-154Q-190 -133 -178 -124Q-181 -133 -181 -143Q-181 -170 -143 -170Q-77 -170 9 -105Q-1 -100 -22 -86Q-90 -135 -130 -135Q-137 -135 -137 -131Q-137 -124 -127 -123Q-77 -106 -34 -75Q-64 -46 -64 -15Q-64 42 27 88Q87 119 168 135Q307 318 381 511Q385 520
415 619Q416 626 423 626Q424 625 424 624Q424 544 334 373Q268 246 191 139L239 144Q305 234 384 383T464 606Q464 652 423 658Q414 660 414 665T425 670Q461 670 482 647Q502 622 502 586Q502 505 423 359Q367 258 284 148Q372 156 419 156ZM712 -26Q712 -42
690 -71T649 -111T602 -122T536 -92T480 -21T461 95T476 298T493 456T501 487Q510 487 511 466V307Q511 43 554 -53Q580 -112 614 -112Q659 -112 712 -26ZM222 122Q199 117 168 108Q81 -4 -7 -74Q2 -86 20 -97Q112 -24 222 122ZM142 100Q-20 36 -20 -36Q-20 -48
-15 -61Q61 0 142 100ZM563 694Q577 683 577 679T575 674Q565 674 521 702Q463 739 453 744Q419 763 419 776Q419 785 429 792T448 800Q472 800 476 784Q484 758 512 733Q516 728 563 694Z" />
<glyph unicode="&#xc1;" glyph-name="Aacute" horiz-adv-x="624" d="M419 156L445 157H450Q457 157 457 154Q457 144 439 143Q295 133 269 129Q149 -21 36 -105Q63 -118 125 -129Q134 -130 134 -135T124 -140Q84 -140 26 -113Q-72 -183 -144 -183Q-190 -183 -190
-154Q-190 -133 -178 -124Q-181 -133 -181 -143Q-181 -170 -143 -170Q-77 -170 9 -105Q-1 -100 -22 -86Q-90 -135 -130 -135Q-137 -135 -137 -131Q-137 -124 -127 -123Q-77 -106 -34 -75Q-64 -46 -64 -15Q-64 42 27 88Q87 119 168 135Q307 318 381 511Q385 520
415 619Q416 626 423 626Q424 625 424 624Q424 544 334 373Q268 246 191 139L239 144Q305 234 384 383T464 606Q464 652 423 658Q414 660 414 665T425 670Q461 670 482 647Q502 622 502 586Q502 505 423 359Q367 258 284 148Q372 156 419 156ZM712 -26Q712 -42
690 -71T649 -111T602 -122T536 -92T480 -21T461 95T476 298T493 456T501 487Q510 487 511 466V307Q511 43 554 -53Q580 -112 614 -112Q659 -112 712 -26ZM222 122Q199 117 168 108Q81 -4 -7 -74Q2 -86 20 -97Q112 -24 222 122ZM142 100Q-20 36 -20 -36Q-20 -48
-15 -61Q61 0 142 100ZM619 800T629 793T639 776Q639 762 592 738Q492 674 483 674L481 676Q481 684 495 695Q542 730 546 734Q574 758 582 784Q586 800 609 800Q619 800 629 793Z" />
<glyph unicode="&#xc2;" glyph-name="Acircumflex" horiz-adv-x="624" d="M419 156L445 157H450Q457 157 457 154Q457 144 439 143Q295 133 269 129Q149 -21 36 -105Q63 -118 125 -129Q134 -130 134 -135T124 -140Q84 -140 26 -113Q-72 -183 -144 -183Q-190 -183
-190 -154Q-190 -133 -178 -124Q-181 -133 -181 -143Q-181 -170 -143 -170Q-77 -170 9 -105Q-1 -100 -22 -86Q-90 -135 -130 -135Q-137 -135 -137 -131Q-137 -124 -127 -123Q-77 -106 -34 -75Q-64 -46 -64 -15Q-64 42 27 88Q87 119 168 135Q307 318 381 511Q385
520 415 619Q416 626 423 626Q424 625 424 624Q424 544 334 373Q268 246 191 139L239 144Q305 234 384 383T464 606Q464 652 423 658Q414 660 414 665T425 670Q461 670 482 647Q502 622 502 586Q502 505 423 359Q367 258 284 148Q372 156 419 156ZM712 -26Q712
-42 690 -71T649 -111T602 -122T536 -92T480 -21T461 95T476 298T493 456T501 487Q510 487 511 466V307Q511 43 554 -53Q580 -112 614 -112Q659 -112 712 -26ZM630 673T616 673T571 696T527 730T506 750T495 761Q374 677 361 677Q354 677 357 687Q359 698 421 741T495
790T514 797T528 788Q563 743 623 690Q630 685 630 679ZM222 122Q199 117 168 108Q81 -4 -7 -74Q2 -86 20 -97Q112 -24 222 122ZM142 100Q-20 36 -20 -36Q-20 -48 -15 -61Q61 0 142 100Z" />
<glyph unicode="&#xc3;" glyph-name="Atilde" horiz-adv-x="624" d="M419 156L445 157H450Q457 157 457 154Q457 144 439 143Q295 133 269 129Q149 -21 36 -105Q63 -118 125 -129Q134 -130 134 -135T124 -140Q84 -140 26 -113Q-72 -183 -144 -183Q-190 -183 -190
-154Q-190 -133 -178 -124Q-181 -133 -181 -143Q-181 -170 -143 -170Q-77 -170 9 -105Q-1 -100 -22 -86Q-90 -135 -130 -135Q-137 -135 -137 -131Q-137 -124 -127 -123Q-77 -106 -34 -75Q-64 -46 -64 -15Q-64 42 27 88Q87 119 168 135Q307 318 381 511Q385 520
415 619Q416 626 423 626Q424 625 424 624Q424 544 334 373Q268 246 191 139L239 144Q305 234 384 383T464 606Q464 652 423 658Q414 660 414 665T425 670Q461 670 482 647Q502 622 502 586Q502 505 423 359Q367 258 284 148Q372 156 419 156ZM712 -26Q712 -42
690 -71T649 -111T602 -122T536 -92T480 -21T461 95T476 298T493 456T501 487Q510 487 511 466V307Q511 43 554 -53Q580 -112 614 -112Q659 -112 712 -26ZM222 122Q199 117 168 108Q81 -4 -7 -74Q2 -86 20 -97Q112 -24 222 122ZM615 785Q615 768 595 751T546 734T496
743T457 760Q424 776 414 776Q382 776 364 749Q360 744 357 746T354 753Q354 774 372 787T419 800T470 791T505 776T525 768Q543 760 556 760Q581 760 608 787Q610 790 612 789T615 785ZM142 100Q-20 36 -20 -36Q-20 -48 -15 -61Q61 0 142 100Z" />
<glyph unicode="&#xc4;" glyph-name="Adieresis" horiz-adv-x="624" d="M419 156L445 157H450Q457 157 457 154Q457 144 439 143Q295 133 269 129Q149 -21 36 -105Q63 -118 125 -129Q134 -130 134 -135T124 -140Q84 -140 26 -113Q-72 -183 -144 -183Q-190 -183
-190 -154Q-190 -133 -178 -124Q-181 -133 -181 -143Q-181 -170 -143 -170Q-77 -170 9 -105Q-1 -100 -22 -86Q-90 -135 -130 -135Q-137 -135 -137 -131Q-137 -124 -127 -123Q-77 -106 -34 -75Q-64 -46 -64 -15Q-64 42 27 88Q87 119 168 135Q307 318 381 511Q385
520 415 619Q416 626 423 626Q424 625 424 624Q424 544 334 373Q268 246 191 139L239 144Q305 234 384 383T464 606Q464 652 423 658Q414 660 414 665T425 670Q461 670 482 647Q502 622 502 586Q502 505 423 359Q367 258 284 148Q372 156 419 156ZM712 -26Q712
-42 690 -71T649 -111T602 -122T536 -92T480 -21T461 95T476 298T493 456T501 487Q510 487 511 466V307Q511 43 554 -53Q580 -112 614 -112Q659 -112 712 -26ZM222 122Q199 117 168 108Q81 -4 -7 -74Q2 -86 20 -97Q112 -24 222 122ZM142 100Q-20 36 -20 -36Q-20
-48 -15 -61Q61 0 142 100ZM601 798Q601 797 586 780Q578 767 572 747Q562 714 542 714Q536 714 528 725Q521 736 521 749T539 770Q546 777 568 788T595 800T601 799V798ZM467 798Q467 797 452 780Q444 767 438 747Q428 714 408 714Q402 714 394 725Q387 736 387
749T405 770Q412 777 434 788T461 800T467 799V798Z" />
<glyph unicode="&#xc5;" glyph-name="Aring" horiz-adv-x="624" d="M419 156L445 157H450Q457 157 457 154Q457 144 439 143Q295 133 269 129Q149 -21 36 -105Q63 -118 125 -129Q134 -130 134 -135T124 -140Q84 -140 26 -113Q-72 -183 -144 -183Q-190 -183 -190
-154Q-190 -133 -178 -124Q-181 -133 -181 -143Q-181 -170 -143 -170Q-77 -170 9 -105Q-1 -100 -22 -86Q-90 -135 -130 -135Q-137 -135 -137 -131Q-137 -124 -127 -123Q-77 -106 -34 -75Q-64 -46 -64 -15Q-64 42 27 88Q87 119 168 135Q307 318 381 511Q385 520
415 619Q416 626 423 626Q424 625 424 624Q424 544 334 373Q268 246 191 139L239 144Q305 234 384 383T464 606Q464 652 423 658Q414 660 414 665T429 670T459 663Q453 672 453 691T464 734T492 763Q508 796 543 796Q562 796 574 780T586 744Q586 707 558 678T494
649Q483 649 479 650Q502 627 502 586Q502 505 423 359Q367 258 284 148Q372 156 419 156ZM712 -26Q712 -42 690 -71T649 -111T602 -122T536 -92T480 -21T461 95T476 298T493 456T501 487Q510 487 511 466V307Q511 43 554 -53Q580 -112 614 -112Q659 -112 712 -26ZM222
122Q199 117 168 108Q81 -4 -7 -74Q2 -86 20 -97Q112 -24 222 122ZM142 100Q-20 36 -20 -36Q-20 -48 -15 -61Q61 0 142 100ZM505 668Q528 668 545 693T562 747T540 777Q528 777 511 764L522 759Q520 754 505 731T490 688T505 668Z" />
<glyph unicode="&#xc6;" glyph-name="AE" horiz-adv-x="895" d="M615 586Q615 582 606 556Q740 553 866 519L882 513Q892 537 894 555T899 579Q900 585 906 585Q909 585 909 566T901 498Q902 497 902 495T900 489Q888 435 874 416T838 397Q831 397 815 405Q801
413 801 420Q801 422 818 425Q848 430 870 482Q854 482 832 488Q729 519 597 525Q584 478 572 398Q554 268 545 224L560 227Q723 254 787 254Q789 254 789 252Q789 242 772 234Q727 214 537 187Q502 31 418 -21H424Q522 -26 556 -26Q706 -26 775 1T845 71Q845 90
829 115T812 144Q812 151 819 151Q838 151 850 118Q862 91 862 68Q862 -10 772 -46Q730 -63 658 -63T485 -50L382 -37Q355 -46 322 -46T289 -32Q289 -30 290 -29H287Q278 -29 278 -22Q278 -17 304 -17T357 -18Q428 5 465 100Q475 123 488 181Q374 168 347 168Q320
168 299 169Q151 -18 36 -105Q63 -118 125 -129Q134 -130 134 -135T124 -140Q84 -140 26 -113Q-72 -183 -144 -183Q-190 -183 -190 -154Q-190 -133 -178 -124Q-181 -133 -181 -143Q-181 -170 -143 -170Q-77 -170 9 -105Q-1 -100 -22 -86Q-90 -135 -130 -135Q-137
-135 -137 -131Q-137 -124 -127 -123Q-77 -106 -34 -75Q-55 -54 -55 -22Q-55 30 -6 82Q37 124 88 146T202 180Q324 342 384 513Q377 516 377 521T390 531Q403 572 415 619Q416 626 423 626Q426 623 424 621Q418 580 406 536Q432 544 460 548Q468 580 468 601Q468
650 423 658Q414 660 414 665T426 670T455 664Q509 648 509 583Q509 570 506 553L562 556Q569 574 578 587T601 601T615 586ZM549 526Q532 526 500 524Q482 459 434 370T317 194Q369 197 496 216Q508 287 520 375T552 526H549ZM406 511H399Q351 355 224 183Q248
188 273 189Q336 278 386 374T452 519Q415 511 406 511ZM256 166Q222 159 202 153Q77 -9 -7 -74Q2 -86 20 -97Q118 -19 256 166ZM-18 -46Q-18 -54 -15 -61Q53 -6 176 144Q70 109 15 34Q-18 -12 -18 -46Z" />
<glyph unicode="&#xc7;" glyph-name="Ccedilla" horiz-adv-x="681" d="M430 642L428 700Q428 708 433 708Q435 708 440 691T445 637T444 586Q484 594 516 594Q606 594 656 547Q712 497 712 412V408Q712 391 698 391Q690 391 680 397Q612 438 555 468T438 518Q422
379 384 226Q338 53 287 -54Q295 -55 313 -55Q422 -55 534 1T703 147L712 159Q713 158 713 153T710 142Q652 42 518 -27Q399 -85 287 -91Q247 -104 247 -153Q247 -164 276 -201T305 -266Q305 -313 257 -339T156 -365Q147 -365 147 -354Q147 -349 156 -346Q204 -338
228 -335Q263 -324 263 -277Q263 -264 238 -228T211 -173Q178 -208 147 -208Q138 -208 138 -202T144 -195L163 -191Q186 -182 211 -156Q214 -129 230 -110Q238 -98 248 -92Q153 -88 94 -35T34 129T120 362T320 543Q293 546 266 546T190 535T102 500Q44 466 44 424Q44
419 45 416V408Q45 395 36 395Q24 395 18 411Q10 429 10 441Q10 500 116 532Q194 555 271 555Q292 555 334 550Q390 574 429 583Q430 604 430 642ZM89 150Q89 60 139 9Q189 -46 277 -53Q332 59 371 217T425 522Q386 533 339 541Q230 489 161 380Q89 269 89 150ZM673
446Q680 446 680 456T674 480Q648 525 592 547T478 569Q466 569 442 567L439 533Q555 509 660 451Q670 446 673 446ZM427 566Q385 559 355 547Q424 536 426 536Q427 546 427 566Z" />
<glyph unicode="&#xc8;" glyph-name="Egrave" horiz-adv-x="931" d="M445 625L443 680Q443 687 447 687Q448 687 450 682Q456 647 456 617T456 573Q541 561 624 543Q705 648 783 648T862 587Q862 576 858 576T853 585Q853 609 834 619Q818 629 794 629Q730 629
666 536Q841 501 898 501Q1021 501 1021 554Q1021 563 1017 568Q1014 576 1014 577T1016 579Q1025 579 1030 563T1035 537Q1035 468 924 468Q861 468 652 514Q618 457 528 271Q569 284 664 284T826 261Q831 259 831 257T826 254L754 259Q669 259 609 247Q500 228
500 180Q500 174 505 161V160Q494 160 484 184Q426 75 369 9Q482 -25 586 -55T758 -85T863 -68Q914 -46 914 0Q914 34 884 83L855 131Q855 132 857 132T867 125Q929 74 929 7T883 -97T768 -135T564 -83T357 -4Q257 -113 134 -113Q94 -113 51 -90T8 -23T51 41T141
62T258 41Q333 126 382 273T442 555Q373 563 331 563Q150 563 150 439Q150 357 244 291Q249 289 249 286T246 283T239 285Q113 357 113 457Q113 513 160 547Q210 585 313 585Q358 585 443 575Q445 609 445 625ZM609 523Q542 538 455 553Q448 422 401 275T276 35L319
22Q365 68 436 210Q446 230 473 285Q553 448 609 523ZM121 -52Q102 -52 102 -45Q102 -40 119 -40Q184 -40 249 30Q195 47 150 47T73 33Q31 14 31 -22T63 -76Q91 -93 132 -93T228 -61T313 10L267 25Q197 -52 121 -52ZM896 694Q910 683 910 679T908 674Q898 674 854
702Q796 739 786 744Q752 763 752 776Q752 785 762 792T781 800Q805 800 809 784Q816 758 845 733Q850 728 896 694Z" />
<glyph unicode="&#xc9;" glyph-name="Eacute" horiz-adv-x="931" d="M445 625L443 680Q443 687 447 687Q448 687 450 682Q456 647 456 617T456 573Q541 561 624 543Q705 648 783 648T862 587Q862 576 858 576T853 585Q853 609 834 619Q818 629 794 629Q730 629
666 536Q841 501 898 501Q1021 501 1021 554Q1021 563 1017 568Q1014 576 1014 577T1016 579Q1025 579 1030 563T1035 537Q1035 468 924 468Q861 468 652 514Q618 457 528 271Q569 284 664 284T826 261Q831 259 831 257T826 254L754 259Q669 259 609 247Q500 228
500 180Q500 174 505 161V160Q494 160 484 184Q426 75 369 9Q482 -25 586 -55T758 -85T863 -68Q914 -46 914 0Q914 34 884 83L855 131Q855 132 857 132T867 125Q929 74 929 7T883 -97T768 -135T564 -83T357 -4Q257 -113 134 -113Q94 -113 51 -90T8 -23T51 41T141
62T258 41Q333 126 382 273T442 555Q373 563 331 563Q150 563 150 439Q150 357 244 291Q249 289 249 286T246 283T239 285Q113 357 113 457Q113 513 160 547Q210 585 313 585Q358 585 443 575Q445 609 445 625ZM609 523Q542 538 455 553Q448 422 401 275T276 35L319
22Q365 68 436 210Q446 230 473 285Q553 448 609 523ZM121 -52Q102 -52 102 -45Q102 -40 119 -40Q184 -40 249 30Q195 47 150 47T73 33Q31 14 31 -22T63 -76Q91 -93 132 -93T228 -61T313 10L267 25Q197 -52 121 -52ZM859 800T869 793T879 776Q879 762 832 738Q732
674 723 674L721 676Q721 684 735 695Q782 730 786 734Q814 758 822 784Q826 800 849 800Q859 800 869 793Z" />
<glyph unicode="&#xca;" glyph-name="Ecircumflex" horiz-adv-x="931" d="M445 625L443 680Q443 687 447 687Q448 687 450 682Q456 647 456 617T456 573Q541 561 624 543Q705 648 783 648T862 587Q862 576 858 576T853 585Q853 609 834 619Q818 629 794 629Q730
629 666 536Q841 501 898 501Q1021 501 1021 554Q1021 563 1017 568Q1014 576 1014 577T1016 579Q1025 579 1030 563T1035 537Q1035 468 924 468Q861 468 652 514Q618 457 528 271Q569 284 664 284T826 261Q831 259 831 257T826 254L754 259Q669 259 609 247Q500
228 500 180Q500 174 505 161V160Q494 160 484 184Q426 75 369 9Q482 -25 586 -55T758 -85T863 -68Q914 -46 914 0Q914 34 884 83L855 131Q855 132 857 132T867 125Q929 74 929 7T883 -97T768 -135T564 -83T357 -4Q257 -113 134 -113Q94 -113 51 -90T8 -23T51 41T141
62T258 41Q333 126 382 273T442 555Q373 563 331 563Q150 563 150 439Q150 357 244 291Q249 289 249 286T246 283T239 285Q113 357 113 457Q113 513 160 547Q210 585 313 585Q358 585 443 575Q445 609 445 625ZM609 523Q542 538 455 553Q448 422 401 275T276 35L319
22Q365 68 436 210Q446 230 473 285Q553 448 609 523ZM121 -52Q102 -52 102 -45Q102 -40 119 -40Q184 -40 249 30Q195 47 150 47T73 33Q31 14 31 -22T63 -76Q91 -93 132 -93T228 -61T313 10L267 25Q197 -52 121 -52ZM953 671T939 671T894 694T850 728T829 748T818
759Q696 675 684 675Q679 675 679 678T680 685Q682 696 744 739T818 788T837 795T851 786Q886 741 946 688Q953 683 953 677Z" />
<glyph unicode="&#xcb;" glyph-name="Edieresis" horiz-adv-x="931" d="M445 625L443 680Q443 687 447 687Q448 687 450 682Q456 647 456 617T456 573Q541 561 624 543Q705 648 783 648T862 587Q862 576 858 576T853 585Q853 609 834 619Q818 629 794 629Q730
629 666 536Q841 501 898 501Q1021 501 1021 554Q1021 563 1017 568Q1014 576 1014 577T1016 579Q1025 579 1030 563T1035 537Q1035 468 924 468Q861 468 652 514Q618 457 528 271Q569 284 664 284T826 261Q831 259 831 257T826 254L754 259Q669 259 609 247Q500
228 500 180Q500 174 505 161V160Q494 160 484 184Q426 75 369 9Q482 -25 586 -55T758 -85T863 -68Q914 -46 914 0Q914 34 884 83L855 131Q855 132 857 132T867 125Q929 74 929 7T883 -97T768 -135T564 -83T357 -4Q257 -113 134 -113Q94 -113 51 -90T8 -23T51 41T141
62T258 41Q333 126 382 273T442 555Q373 563 331 563Q150 563 150 439Q150 357 244 291Q249 289 249 286T246 283T239 285Q113 357 113 457Q113 513 160 547Q210 585 313 585Q358 585 443 575Q445 609 445 625ZM609 523Q542 538 455 553Q448 422 401 275T276 35L319
22Q365 68 436 210Q446 230 473 285Q553 448 609 523ZM121 -52Q102 -52 102 -45Q102 -40 119 -40Q184 -40 249 30Q195 47 150 47T73 33Q31 14 31 -22T63 -76Q91 -93 132 -93T228 -61T313 10L267 25Q197 -52 121 -52ZM913 798Q913 797 898 780Q890 767 884 747Q874
714 854 714Q848 714 840 725Q833 736 833 749T851 770Q858 777 880 788T907 800T913 799V798ZM779 798Q779 797 764 780Q756 767 750 747Q740 714 720 714Q714 714 706 725Q699 736 699 749T717 770Q724 777 746 788T773 800T779 799V798Z" />
<glyph unicode="&#xcc;" glyph-name="Igrave" horiz-adv-x="631" d="M214 176L122 173Q104 173 98 174Q99 173 99 168T93 149Q56 75 56 12T88 -88Q122 -129 179 -129Q282 -129 389 27Q510 206 600 484Q620 541 620 548T619 556Q608 556 537 516Q512 359 441 196Q356
1 248 -69Q201 -101 164 -101Q156 -101 156 -95T166 -88T209 -76Q292 -38 372 97Q479 278 520 506Q472 477 439 446Q413 419 391 378T368 315T383 283Q388 280 388 278T377 276T352 291Q339 307 339 324Q339 374 408 440Q460 487 523 525Q537 609 537 693Q537 699
542 701Q547 698 547 649T539 535Q612 576 648 576Q665 576 665 560Q665 530 642 446Q559 161 409 -11Q299 -142 176 -142Q103 -142 69 -92T35 32T58 151Q61 156 61 159T42 165T23 176Q23 186 40 194Q54 202 65 202L85 200L225 206Q272 206 294 200Q333 190 333
154Q333 128 301 109Q297 109 297 111Q297 115 308 126Q318 141 318 142Q318 176 214 176ZM718 694Q732 683 732 679T730 674Q720 674 676 702Q614 742 605 746Q574 762 574 776Q574 785 584 792T603 800Q627 800 631 784Q638 758 667 733Q672 728 718 694Z" />
<glyph unicode="&#xcd;" glyph-name="Iacute" horiz-adv-x="631" d="M214 176L122 173Q104 173 98 174Q99 173 99 168T93 149Q56 75 56 12T88 -88Q122 -129 179 -129Q282 -129 389 27Q510 206 600 484Q620 541 620 548T619 556Q608 556 537 516Q512 359 441 196Q356
1 248 -69Q201 -101 164 -101Q156 -101 156 -95T166 -88T209 -76Q292 -38 372 97Q479 278 520 506Q472 477 439 446Q413 419 391 378T368 315T383 283Q388 280 388 278T377 276T352 291Q339 307 339 324Q339 374 408 440Q460 487 523 525Q537 609 537 693Q537 699
542 701Q547 698 547 649T539 535Q612 576 648 576Q665 576 665 560Q665 530 642 446Q559 161 409 -11Q299 -142 176 -142Q103 -142 69 -92T35 32T58 151Q61 156 61 159T42 165T23 176Q23 186 40 194Q54 202 65 202L85 200L225 206Q272 206 294 200Q333 190 333
154Q333 128 301 109Q297 109 297 111Q297 115 308 126Q318 141 318 142Q318 176 214 176ZM711 800T721 793T731 776Q731 762 684 738Q584 674 575 674L573 676Q573 684 587 695Q634 730 638 734Q666 758 674 784Q678 800 701 800Q711 800 721 793Z" />
<glyph unicode="&#xce;" glyph-name="Icircumflex" horiz-adv-x="631" d="M214 176L122 173Q104 173 98 174Q99 173 99 168T93 149Q56 75 56 12T88 -88Q122 -129 179 -129Q282 -129 389 27Q510 206 600 484Q620 541 620 548T619 556Q608 556 537 516Q512 359 441
196Q356 1 248 -69Q201 -101 164 -101Q156 -101 156 -95T166 -88T209 -76Q292 -38 372 97Q479 278 520 506Q472 477 439 446Q413 419 391 378T368 315T383 283Q388 280 388 278T377 276T352 291Q339 307 339 324Q339 374 408 440Q460 487 523 525Q536 602 537 676H534Q527
676 528 683Q531 694 542 701V700Q559 716 608 750Q675 796 684 796T701 787Q736 742 796 689Q803 684 803 678T789 672T744 695T700 729T679 749T668 760Q576 696 546 680L547 645Q547 599 539 535Q612 576 648 576Q665 576 665 560Q665 530 642 446Q559 161 409
-11Q299 -142 176 -142Q103 -142 69 -92T35 32T58 151Q61 156 61 159T42 165T23 176Q23 186 40 194Q54 202 65 202L85 200L225 206Q272 206 294 200Q333 190 333 154Q333 128 301 109Q297 109 297 111Q297 115 308 126Q318 141 318 142Q318 176 214 176Z" />
<glyph unicode="&#xcf;" glyph-name="Idieresis" horiz-adv-x="631" d="M214 176L122 173Q104 173 98 174Q99 173 99 168T93 149Q56 75 56 12T88 -88Q122 -129 179 -129Q282 -129 389 27Q510 206 600 484Q620 541 620 548T619 556Q608 556 537 516Q512 359 441
196Q356 1 248 -69Q201 -101 164 -101Q156 -101 156 -95T166 -88T209 -76Q292 -38 372 97Q479 278 520 506Q472 477 439 446Q413 419 391 378T368 315T383 283Q388 280 388 278T377 276T352 291Q339 307 339 324Q339 374 408 440Q460 487 523 525Q537 609 537 693Q537
699 542 701Q547 698 547 649T539 535Q612 576 648 576Q665 576 665 560Q665 530 642 446Q559 161 409 -11Q299 -142 176 -142Q103 -142 69 -92T35 32T58 151Q61 156 61 159T42 165T23 176Q23 186 40 194Q54 202 65 202L85 200L225 206Q272 206 294 200Q333 190
333 154Q333 128 301 109Q297 109 297 111Q297 115 308 126Q318 141 318 142Q318 176 214 176ZM641 798Q641 797 626 780Q618 767 612 747Q602 714 582 714Q576 714 568 725Q561 736 561 749T579 770Q586 777 608 788T635 800T641 799V798ZM775 798Q775 797 760
780Q752 767 746 747Q736 714 716 714Q710 714 702 725Q695 736 695 749T713 770Q720 777 742 788T769 800T775 799V798Z" />
<glyph unicode="&#xd0;" glyph-name="Eth" horiz-adv-x="983" d="M468 658L466 716Q466 723 471 723Q472 723 474 718Q480 678 480 645T480 602Q489 602 497 602Q569 602 635 587Q708 684 787 684Q820 684 849 667Q876 650 884 626T892 597T889 591Q884 591 881
604Q875 627 848 641T795 656Q730 656 674 582Q793 563 881 485T970 290Q970 216 938 146Q892 48 802 -4T601 -57T361 -4Q290 -94 160 -94Q147 -94 114 -91T42 -56T2 15T36 73T121 92T277 48Q328 110 368 200Q226 137 219 137Q207 137 207 162Q207 171 214 173Q230
178 388 248Q451 408 465 585Q263 575 160 466Q122 425 122 379Q122 298 209 259Q221 254 257 245Q262 243 262 241Q262 236 255 236L253 237Q192 241 139 287T86 393Q86 439 123 477Q235 594 466 602Q468 640 468 658ZM910 279Q910 383 839 466T665 568Q627 510
606 464Q545 324 534 300Q628 325 681 325Q689 325 689 318T683 310Q606 297 517 263Q438 86 372 9Q489 -40 592 -40Q730 -40 820 50Q910 142 910 279ZM127 -55Q107 -55 107 -47Q107 -42 125 -42Q198 -42 269 38Q170 82 106 82Q75 82 47 68T19 19T58 -43T144 -70T244
-47T321 13L285 31Q210 -55 127 -55ZM501 586H479Q472 423 411 258Q434 268 466 279Q529 419 537 434Q585 532 625 575Q562 586 501 586ZM446 234L393 211Q350 110 294 41L329 27Q372 74 446 234Z" />
<glyph unicode="&#xd1;" glyph-name="Ntilde" horiz-adv-x="908" d="M41 26Q21 -19 21 -46T39 -98T89 -122Q208 -122 328 -5Q433 99 504 250T575 516Q575 527 574 533Q554 524 526 520Q506 420 460 309T346 91T207 -64Q167 -89 137 -89Q127 -89 127 -84T138 -76T175
-66Q258 -29 344 106Q468 302 513 518L390 503Q287 493 231 479Q118 449 118 391Q118 348 162 302Q203 263 250 251Q256 250 256 248Q256 244 248 244Q193 244 147 290Q102 336 102 394T190 492Q261 525 344 538T522 564Q530 626 530 706Q530 713 536 713Q541 713
541 663T534 566Q551 569 575 576Q580 583 589 583T600 568Q603 539 629 395Q666 186 717 73Q737 117 765 264T817 477Q867 617 958 668Q985 683 1012 683Q1058 683 1100 630Q1142 580 1142 535Q1142 531 1139 531T1133 539Q1121 580 1095 607T1028 635Q1007 635
985 624Q895 583 840 446Q815 383 793 289T766 176Q745 96 727 54Q768 -30 818 -30Q846 -30 877 -5Q910 21 907 21Q909 21 909 17T903 8Q845 -50 791 -50T693 10Q682 4 666 4T650 16Q650 19 662 21T681 28Q638 96 617 229Q599 405 596 443Q572 307 492 172T304
-50T85 -137Q48 -137 25 -117T2 -56T33 27Q36 30 38 30T41 26ZM889 758Q889 741 869 724T820 707T770 716T731 734Q698 749 688 749Q656 749 638 722Q634 717 631 719T628 726Q628 747 646 760T693 773T744 764T779 749T799 740Q817 733 830 733Q855 733 882 760Q884
763 886 762T889 758Z" />
<glyph unicode="&#xd2;" glyph-name="Ograve" horiz-adv-x="601" d="M600 338Q600 199 481 86Q365 -21 221 -21Q200 -21 181 -18Q100 -109 39 -109Q29 -109 29 -102Q29 -98 34 -97T63 -91Q112 -76 168 -15Q57 14 57 141Q57 180 68 221Q48 258 48 297Q48 366 106
427Q212 536 383 536Q402 536 422 533Q432 606 432 687Q432 694 438 694T444 641T434 531Q506 518 554 465Q600 412 600 338ZM383 522Q293 522 215 480T100 360Q77 314 77 264Q77 254 78 249Q111 334 195 403T364 473Q376 473 376 467T363 460Q294 460 201 369Q119
286 88 213Q96 198 116 188T136 176Q136 169 127 169Q106 169 83 199Q70 167 70 141Q70 18 192 12Q273 111 334 249T419 520Q407 522 383 522ZM565 351Q565 414 529 459Q492 504 431 517Q407 388 345 249T205 11Q335 12 448 117Q565 223 565 351ZM561 693Q575 682
575 678T573 673Q563 673 519 701Q461 738 450 744Q417 761 417 775Q417 784 427 791T446 799Q470 799 474 783Q482 758 510 732Q514 728 561 693Z" />
<glyph unicode="&#xd3;" glyph-name="Oacute" horiz-adv-x="601" d="M600 338Q600 199 481 86Q365 -21 221 -21Q200 -21 181 -18Q100 -109 39 -109Q29 -109 29 -102Q29 -98 34 -97T63 -91Q112 -76 168 -15Q57 14 57 141Q57 180 68 221Q48 258 48 297Q48 366 106
427Q212 536 383 536Q402 536 422 533Q432 606 432 687Q432 694 438 694T444 641T434 531Q506 518 554 465Q600 412 600 338ZM383 522Q293 522 215 480T100 360Q77 314 77 264Q77 254 78 249Q111 334 195 403T364 473Q376 473 376 467T363 460Q294 460 201 369Q119
286 88 213Q96 198 116 188T136 176Q136 169 127 169Q106 169 83 199Q70 167 70 141Q70 18 192 12Q273 111 334 249T419 520Q407 522 383 522ZM565 351Q565 414 529 459Q492 504 431 517Q407 388 345 249T205 11Q335 12 448 117Q565 223 565 351ZM610 800T620 793T630
776Q630 762 583 738Q483 674 474 674L472 676Q472 684 486 695Q532 730 537 734Q565 758 573 784Q577 800 600 800Q610 800 620 793Z" />
<glyph unicode="&#xd4;" glyph-name="Ocircumflex" horiz-adv-x="601" d="M600 338Q600 199 481 86Q365 -21 221 -21Q200 -21 181 -18Q100 -109 39 -109Q29 -109 29 -102Q29 -98 34 -97T63 -91Q112 -76 168 -15Q57 14 57 141Q57 180 68 221Q48 258 48 297Q48 366
106 427Q212 536 383 536Q402 536 422 533Q432 606 432 687Q432 694 438 694T444 641T434 531Q506 518 554 465Q600 412 600 338ZM565 351Q565 414 529 459Q492 504 431 517Q407 388 345 249T205 11Q335 12 448 117Q565 223 565 351ZM383 522Q293 522 215 480T100
360Q77 314 77 264Q77 254 78 249Q111 334 195 403T364 473Q376 473 376 467T363 460Q294 460 201 369Q119 286 88 213Q96 198 116 188T136 176Q136 169 127 169Q106 169 83 199Q70 167 70 141Q70 18 192 12Q273 111 334 249T419 520Q407 522 383 522ZM604 670T590
670T545 693T501 727T480 747T469 758Q348 674 335 674Q330 674 330 677T331 684Q333 695 395 738T469 787T488 794T502 785Q537 740 597 687Q604 682 604 676Z" />
<glyph unicode="&#xd5;" glyph-name="Otilde" horiz-adv-x="601" d="M600 338Q600 199 481 86Q365 -21 221 -21Q200 -21 181 -18Q100 -109 39 -109Q29 -109 29 -102Q29 -98 34 -97T63 -91Q112 -76 168 -15Q57 14 57 141Q57 180 68 221Q48 258 48 297Q48 366 106
427Q212 536 383 536Q402 536 422 533Q432 606 432 687Q432 694 438 694T444 641T434 531Q506 518 554 465Q600 412 600 338ZM565 351Q565 414 529 459Q492 504 431 517Q407 388 345 249T205 11Q335 12 448 117Q565 223 565 351ZM383 522Q293 522 215 480T100 360Q77
314 77 264Q77 254 78 249Q111 334 195 403T364 473Q376 473 376 467T363 460Q294 460 201 369Q119 286 88 213Q96 198 116 188T136 176Q136 169 127 169Q106 169 83 199Q70 167 70 141Q70 18 192 12Q273 111 334 249T419 520Q407 522 383 522ZM575 785Q575 768
555 751T506 734T456 743T417 760Q384 776 374 776Q342 776 324 749Q320 744 317 746T314 753Q314 774 332 787T379 800T430 791T465 776T485 768Q503 760 516 760Q541 760 568 787Q570 790 572 789T575 785Z" />
<glyph unicode="&#xd6;" glyph-name="Odieresis" horiz-adv-x="601" d="M600 338Q600 199 481 86Q365 -21 221 -21Q200 -21 181 -18Q100 -109 39 -109Q29 -109 29 -102Q29 -98 34 -97T63 -91Q112 -76 168 -15Q57 14 57 141Q57 180 68 221Q48 258 48 297Q48 366
106 427Q212 536 383 536Q402 536 422 533Q432 606 432 687Q432 694 438 694T444 641T434 531Q506 518 554 465Q600 412 600 338ZM383 522Q293 522 215 480T100 360Q77 314 77 264Q77 254 78 249Q111 334 195 403T364 473Q376 473 376 467T363 460Q294 460 201
369Q119 286 88 213Q96 198 116 188T136 176Q136 169 127 169Q106 169 83 199Q70 167 70 141Q70 18 192 12Q273 111 334 249T419 520Q407 522 383 522ZM565 351Q565 414 529 459Q492 504 431 517Q407 388 345 249T205 11Q335 12 448 117Q565 223 565 351ZM437 798Q437
797 422 780Q414 767 408 747Q398 714 378 714Q372 714 364 725Q357 736 357 749T375 770Q382 777 404 788T431 800T437 799V798ZM571 798Q571 797 556 780Q548 767 542 747Q532 714 512 714Q506 714 498 725Q491 736 491 749T509 770Q516 777 538 788T565 800T571
799V798Z" />
<glyph unicode="&#xd7;" glyph-name="multiply" horiz-adv-x="278" d="M225 80L248 87L251 84Q251 75 236 66T210 57Q187 57 164 86T132 142Q64 46 53 46Q45 46 45 53Q45 71 127 156Q94 219 94 236Q94 245 105 245T119 239Q131 217 144 172Q149 177 163 193Q213
250 229 250L231 248Q230 240 149 159Q157 132 180 106T225 80Z" />
<glyph unicode="&#xd8;" glyph-name="Oslash" horiz-adv-x="634" d="M563 463Q615 420 615 335T535 160T342 14T139 -42Q108 -42 86 -33Q6 -145 -15 -219Q-21 -240 -21 -247Q-22 -248 -26 -248T-37 -242T-44 -229Q-44 -175 68 -24Q26 3 26 72Q26 237 267 445Q191
417 98 341Q90 335 86 335H85L84 337Q84 344 90 351Q140 419 234 463T407 507T536 481L607 544Q656 583 687 583Q699 583 700 579Q699 577 563 463ZM586 372Q586 423 549 451Q255 196 97 -18Q114 -24 134 -24Q218 -24 326 38T510 192T586 372ZM522 467Q486 483
426 483T304 462Q320 464 327 464Q359 464 368 450Q366 447 355 442Q258 406 154 285T49 66Q49 14 79 -9Q249 218 522 467Z" />
<glyph unicode="&#xd9;" glyph-name="Ugrave" horiz-adv-x="811" d="M798 91Q803 101 813 117T826 133T829 131T827 124Q740 -32 674 -32Q573 -32 573 115Q573 200 609 344Q528 211 449 116Q321 -45 248 -45Q185 -45 185 42T243 276T367 534L327 550Q244 435 181
259T117 -46Q117 -55 113 -55T108 -26Q108 103 172 272T318 553Q258 573 204 573Q97 573 27 505Q8 487 8 466Q8 428 72 401Q95 390 95 389T91 387T70 393Q-14 428 -14 478Q-14 501 9 524Q81 597 218 597Q280 597 340 581Q385 636 397 636Q401 636 400 633T381 613T349
579Q427 556 427 539V536Q401 496 381 455Q237 185 237 36Q237 -26 268 -26Q326 -26 453 146Q571 305 629 421Q633 426 653 514Q659 530 678 530T697 518Q697 498 662 348T626 123Q626 -20 681 -20Q728 -20 798 91ZM628 678Q642 667 642 663T640 658Q630 658 586
686Q528 723 517 729Q484 746 484 760Q484 769 494 776T513 784Q537 784 541 768Q548 742 577 717Q582 712 628 678Z" />
<glyph unicode="&#xda;" glyph-name="Uacute" horiz-adv-x="811" d="M798 91Q803 101 813 117T826 133T829 131T827 124Q740 -32 674 -32Q573 -32 573 115Q573 200 609 344Q528 211 449 116Q321 -45 248 -45Q185 -45 185 42T243 276T367 534L327 550Q244 435 181
259T117 -46Q117 -55 113 -55T108 -26Q108 103 172 272T318 553Q258 573 204 573Q97 573 27 505Q8 487 8 466Q8 428 72 401Q95 390 95 389T91 387T70 393Q-14 428 -14 478Q-14 501 9 524Q81 597 218 597Q280 597 340 581Q385 636 397 636Q401 636 400 633T381 613T349
579Q427 556 427 539V536Q401 496 381 455Q237 185 237 36Q237 -26 268 -26Q326 -26 453 146Q571 305 629 421Q633 426 653 514Q659 530 678 530T697 518Q697 498 662 348T626 123Q626 -20 681 -20Q728 -20 798 91ZM654 792T664 785T674 768Q674 754 627 730Q527
666 518 666L516 668Q516 676 530 687Q576 722 581 726Q609 750 617 776Q621 792 644 792Q654 792 664 785Z" />
<glyph unicode="&#xdb;" glyph-name="Ucircumflex" horiz-adv-x="811" d="M798 91Q803 101 813 117T826 133T829 131T827 124Q740 -32 674 -32Q573 -32 573 115Q573 200 609 344Q528 211 449 116Q321 -45 248 -45Q185 -45 185 42T243 276T367 534L327 550Q244
435 181 259T117 -46Q117 -55 113 -55T108 -26Q108 103 172 272T318 553Q258 573 204 573Q97 573 27 505Q8 487 8 466Q8 428 72 401Q95 390 95 389T91 387T70 393Q-14 428 -14 478Q-14 501 9 524Q81 597 218 597Q280 597 340 581Q385 636 397 636Q401 636 400 633T381
613T349 579Q427 556 427 539V536Q401 496 381 455Q237 185 237 36Q237 -26 268 -26Q326 -26 453 146Q571 305 629 421Q633 426 653 514Q659 530 678 530T697 518Q697 498 662 348T626 123Q626 -20 681 -20Q728 -20 798 91ZM709 664T695 664T650 687T606 721T585
741T574 752Q452 668 440 668Q435 668 435 671T436 678Q438 689 500 732T574 781T593 788T607 779Q642 734 702 681Q709 676 709 670Z" />
<glyph unicode="&#xdc;" glyph-name="Udieresis" horiz-adv-x="811" d="M798 91Q803 101 813 117T826 133T829 131T827 124Q740 -32 674 -32Q573 -32 573 115Q573 200 609 344Q528 211 449 116Q321 -45 248 -45Q185 -45 185 42T243 276T367 534L327 550Q244 435
181 259T117 -46Q117 -55 113 -55T108 -26Q108 103 172 272T318 553Q258 573 204 573Q97 573 27 505Q8 487 8 466Q8 428 72 401Q95 390 95 389T91 387T70 393Q-14 428 -14 478Q-14 501 9 524Q81 597 218 597Q280 597 340 581Q385 636 397 636Q401 636 400 633T381
613T349 579Q427 556 427 539V536Q401 496 381 455Q237 185 237 36Q237 -26 268 -26Q326 -26 453 146Q571 305 629 421Q633 426 653 514Q659 530 678 530T697 518Q697 498 662 348T626 123Q626 -20 681 -20Q728 -20 798 91ZM554 758Q554 757 539 740Q531 727 525
707Q514 674 495 674Q489 674 481 685Q474 696 474 709T492 730Q499 737 520 748T547 760T554 759V758ZM688 758Q688 757 673 740Q665 727 659 707Q648 674 629 674Q623 674 615 685Q608 696 608 709T626 730Q633 737 654 748T681 760T688 759V758Z" />
<glyph unicode="&#xdd;" glyph-name="Yacute" horiz-adv-x="707" d="M736 477Q736 473 732 472T708 464Q653 429 616 269L557 22Q515 -132 462 -227Q393 -351 293 -407Q247 -432 186 -432T69 -388Q17 -344 -6 -277Q-7 -276 -7 -272T-5 -267T3 -275Q12 -302 23
-316Q72 -392 174 -392Q238 -392 292 -362Q397 -303 455 -178Q496 -86 534 115Q547 182 579 311Q510 193 436 101Q320 -45 249 -45Q185 -45 185 42T243 276T367 534L327 550Q244 435 181 259T117 -46Q117 -55 113 -55T108 -26Q108 103 172 272T318 553Q258 573
204 573Q98 573 27 505Q8 487 8 466Q8 428 72 401Q95 390 95 389T89 387T66 395Q-14 431 -14 478Q-14 501 9 524Q81 597 218 597Q280 597 340 581Q385 636 397 636Q401 636 400 633T381 613T349 579Q427 556 427 539V536Q401 496 381 455Q237 185 237 36Q237 -26
268 -26Q314 -26 423 107Q516 223 589 347Q612 448 661 472Q685 484 710 484T736 477ZM717 706Q717 694 684 676Q678 673 624 639T561 604L558 606Q558 614 573 625Q616 657 623 664Q651 689 660 715Q664 730 687 730Q697 730 707 723T717 706Z" />
<glyph unicode="&#xde;" glyph-name="Thorn" horiz-adv-x="439" d="M433 313Q433 261 380 228Q336 200 271 200T157 240Q142 252 142 261T144 270T150 267Q213 222 265 222T353 246T389 312Q389 415 261 558Q226 469 155 305T56 68Q2 -84 2 -176T60 -269Q98 -269
152 -236Q140 -254 113 -267T66 -281Q17 -281 -20 -244T-57 -156V-153Q-57 -110 -27 -33Q-20 -16 -12 3T6 47T21 84Q188 503 326 757Q338 775 361 775T385 766Q385 753 372 746T347 721Q320 678 274 580Q433 408 433 313Z" />
<glyph unicode="&#xdf;" glyph-name="germandbls" horiz-adv-x="636" d="M515 636Q568 636 602 599T637 504T595 403T491 336Q458 324 415 318T371 304T423 280T505 247Q552 217 552 171Q552 113 478 56Q418 10 313 -18T132 -47T56 -38Q56 -24 132 -24T301 -1T449
62Q525 116 525 161Q525 223 400 259L351 270Q316 279 316 296Q316 318 367 325Q401 330 459 344Q520 365 564 410T608 513Q608 553 583 575T518 598Q429 598 353 463Q331 424 292 352T240 256Q154 101 80 9Q-18 -110 -93 -110Q-111 -110 -112 -100Q-107 -92 -100
-92Q-8 -92 98 71Q143 140 232 317Q394 636 515 636Z" />
<glyph unicode="&#xe0;" glyph-name="agrave" horiz-adv-x="329" d="M339 134T342 134T345 130T341 120Q251 -14 202 -14Q175 -14 162 11T148 68T158 141Q95 1 28 1Q-13 1 -13 54Q-13 139 69 231T234 323Q273 323 273 289Q273 247 217 205Q188 133 188 67T213
0Q246 0 333 126Q339 134 342 134ZM227 239Q243 261 243 283T222 305Q172 305 91 207T10 55Q10 32 32 32Q95 32 154 172Q136 167 130 167T124 170Q124 175 138 180L169 198Q171 215 190 242T226 270Q232 270 232 262T227 239ZM276 350Q276 345 269 345T199 382T135
430Q135 442 149 442T220 401T276 350Z" />
<glyph unicode="&#xe1;" glyph-name="aacute" horiz-adv-x="329" d="M339 134T342 134T345 130T341 120Q251 -14 202 -14Q175 -14 162 11T148 68T158 141Q95 1 28 1Q-13 1 -13 54Q-13 139 69 231T234 323Q273 323 273 289Q273 247 217 205Q188 133 188 67T213
0Q246 0 333 126Q339 134 342 134ZM227 239Q243 261 243 283T222 305Q172 305 91 207T10 55Q10 32 32 32Q95 32 154 172Q136 167 130 167T124 170Q124 175 138 180L169 198Q171 215 190 242T226 270Q232 270 232 262T227 239ZM354 436Q354 429 296 393T230 357T222
362Q222 372 274 409Q326 448 340 448T354 436Z" />
<glyph unicode="&#xe2;" glyph-name="acircumflex" horiz-adv-x="329" d="M339 134T342 134T345 130T341 120Q251 -14 202 -14Q175 -14 162 11T148 68T158 141Q95 1 28 1Q-13 1 -13 54Q-13 139 69 231T234 323Q273 323 273 289Q273 247 217 205Q188 133 188 67T213
0Q246 0 333 126Q339 134 342 134ZM227 239Q243 261 243 283T222 305Q172 305 91 207T10 55Q10 32 32 32Q95 32 154 172Q136 167 130 167T124 170Q124 175 138 180L169 198Q171 215 190 242T226 270Q232 270 232 262T227 239ZM341 342L337 336Q320 338 277 364T221
406Q145 343 129 339L123 347Q129 360 174 398T232 437L237 435Q270 399 336 349L341 342Z" />
<glyph unicode="&#xe3;" glyph-name="atilde" horiz-adv-x="329" d="M339 134T342 134T345 130T341 120Q251 -14 202 -14Q175 -14 162 11T148 68T158 141Q95 1 28 1Q-13 1 -13 54Q-13 139 69 231T234 323Q273 323 273 289Q273 247 217 205Q188 133 188 67T213
0Q246 0 333 126Q339 134 342 134ZM227 239Q243 261 243 283T222 305Q172 305 91 207T10 55Q10 32 32 32Q95 32 154 172Q136 167 130 167T124 170Q124 175 138 180L169 198Q171 215 190 242T226 270Q232 270 232 262T227 239ZM316 365Q294 365 253 382T195 400T161
388T143 376L140 381Q140 390 161 405Q183 420 195 420T248 403T308 386T343 396T360 407L362 406Q362 396 344 381T316 365Z" />
<glyph unicode="&#xe4;" glyph-name="adieresis" horiz-adv-x="329" d="M339 134T342 134T345 130T341 120Q251 -14 202 -14Q175 -14 162 11T148 68T158 141Q95 1 28 1Q-13 1 -13 54Q-13 139 69 231T234 323Q273 323 273 289Q273 247 217 205Q188 133 188 67T213
0Q246 0 333 126Q339 134 342 134ZM227 239Q243 261 243 283T222 305Q172 305 91 207T10 55Q10 32 32 32Q95 32 154 172Q136 167 130 167T124 170Q124 175 138 180L169 198Q171 215 190 242T226 270Q232 270 232 262T227 239ZM284 360Q277 360 273 367T268 383T290
407T324 423L326 422V421L316 409L303 379Q294 360 284 360ZM195 360Q189 360 185 367T180 383T201 407T235 423L238 421L227 409L215 379Q206 360 195 360Z" />
<glyph unicode="&#xe5;" glyph-name="aring" horiz-adv-x="329" d="M339 134T342 134T345 130T341 120Q251 -14 202 -14Q175 -14 162 11T148 68T158 141Q95 1 28 1Q-13 1 -13 54Q-13 139 69 231T234 323Q273 323 273 289Q273 247 217 205Q188 133 188 67T213 0Q246
0 333 126Q339 134 342 134ZM227 239Q243 261 243 283T222 305Q172 305 91 207T10 55Q10 32 32 32Q95 32 154 172Q136 167 130 167T124 170Q124 175 138 180L169 198Q171 215 190 242T226 270Q232 270 232 262T227 239ZM328 443Q328 406 300 377T236 348Q195 348
195 387Q195 406 206 432T234 462Q250 495 285 495Q306 495 316 479Q328 462 328 443ZM247 368Q272 368 288 392T305 446T283 476Q270 476 254 463L264 458Q263 451 248 429T232 388T247 368Z" />
<glyph unicode="&#xe6;" glyph-name="ae" horiz-adv-x="427" d="M442 136Q443 136 443 133T435 116Q402 65 344 23T234 -19Q162 -19 162 73Q162 114 167 139Q104 1 38 1Q-3 1 -3 54Q-3 122 52 197T172 303Q215 323 241 323T277 310Q309 332 338 332T383 319T398
283Q398 230 333 183T209 131Q201 107 201 85Q201 2 261 2Q296 2 337 28T404 87Q408 92 421 114T442 136ZM253 282Q253 305 232 305Q181 305 101 207T20 55Q20 32 42 32Q105 32 164 172Q146 167 140 167T134 170Q134 175 148 180L178 198Q184 212 204 241T237 270Q243
270 242 260L250 267Q253 274 253 282ZM367 285Q367 299 359 311T333 324T281 302L283 290Q311 306 328 306T345 304T331 293Q294 273 262 231Q228 189 213 147L215 145Q263 145 315 191T367 285Z" />
<glyph unicode="&#xe7;" glyph-name="ccedilla" horiz-adv-x="282" d="M249 269Q249 251 241 227T220 202T207 217Q207 223 213 244Q220 265 220 279Q220 324 184 324Q166 324 139 310T108 295T105 298Q105 312 139 323T195 334Q249 334 249 269ZM66 -28Q49 -28
38 -24Q34 -31 34 -40T53 -72T72 -113Q72 -143 41 -159T-23 -176Q-29 -176 -29 -169L-23 -164Q-10 -161 23 -157Q45 -150 45 -120Q45 -112 29 -89T12 -52Q12 -29 22 -15Q-3 4 -3 50Q-3 128 52 215T179 303Q190 303 190 300T170 284Q121 254 82 191T42 76Q42 -5
103 -5Q140 -5 185 24Q247 64 283 121Q292 136 297 136L299 134Q299 130 290 117Q254 62 189 17T66 -28Z" />
<glyph unicode="&#xe8;" glyph-name="egrave" horiz-adv-x="295" d="M310 136Q311 136 311 133T303 116Q272 66 213 24T102 -19Q31 -19 31 73Q31 104 38 139Q29 147 22 161Q23 160 27 159T34 156T42 153Q52 202 103 254T202 306Q213 306 213 304T199 293Q162 273
130 231Q96 189 81 147L83 145Q131 145 183 191T235 285Q235 299 228 311T203 324T161 309T133 293T130 294Q130 306 162 319T215 332T251 319T266 283Q266 230 201 183T77 131Q69 107 69 85Q69 2 129 2Q175 2 221 38T295 122Q304 136 310 136ZM255 373Q255 367
249 367T178 405T114 452Q114 464 128 464T199 423T255 373Z" />
<glyph unicode="&#xe9;" glyph-name="eacute" horiz-adv-x="295" d="M310 136Q311 136 311 133T303 116Q272 66 213 24T102 -19Q31 -19 31 73Q31 104 38 139Q29 147 22 161Q23 160 27 159T34 156T42 153Q52 202 103 254T202 306Q213 306 213 304T199 293Q162 273
130 231Q96 189 81 147L83 145Q131 145 183 191T235 285Q235 299 228 311T203 324T161 309T133 293T130 294Q130 306 162 319T215 332T251 319T266 283Q266 230 201 183T77 131Q69 107 69 85Q69 2 129 2Q175 2 221 38T295 122Q304 136 310 136ZM355 436Q355 429
297 393T230 356T222 362Q222 372 274 409T341 447T355 436Z" />
<glyph unicode="&#xea;" glyph-name="ecircumflex" horiz-adv-x="295" d="M310 136Q311 136 311 133T303 116Q272 66 213 24T102 -19Q31 -19 31 73Q31 104 38 139Q29 147 22 161Q23 160 27 159T34 156T42 153Q52 202 103 254T202 306Q213 306 213 304T199 293Q162
273 130 231Q96 189 81 147L83 145Q131 145 183 191T235 285Q235 299 228 311T203 324T161 309T133 293T130 294Q130 306 162 319T215 332T251 319T266 283Q266 230 201 183T77 131Q69 107 69 85Q69 2 129 2Q175 2 221 38T295 122Q304 136 310 136ZM334 352L330
346Q313 348 271 373Q228 401 214 416Q138 353 122 349L117 357Q121 369 167 407T225 447L230 445Q264 408 330 359L334 352Z" />
<glyph unicode="&#xeb;" glyph-name="edieresis" horiz-adv-x="295" d="M310 136Q311 136 311 133T303 116Q272 66 213 24T102 -19Q31 -19 31 73Q31 104 38 139Q29 147 22 161Q23 160 27 159T34 156T42 153Q52 202 103 254T202 306Q213 306 213 304T199 293Q162
273 130 231Q96 189 81 147L83 145Q131 145 183 191T235 285Q235 299 228 311T203 324T161 309T133 293T130 294Q130 306 162 319T215 332T251 319T266 283Q266 230 201 183T77 131Q69 107 69 85Q69 2 129 2Q175 2 221 38T295 122Q304 136 310 136ZM272 383Q266
383 261 390T256 406T278 430T312 446L315 444L304 432L292 402Q283 383 272 383ZM183 383Q177 383 173 390T168 406T190 430T223 446L226 445V444L215 432L203 402Q196 383 183 383Z" />
<glyph unicode="&#xec;" glyph-name="igrave" horiz-adv-x="174" d="M191 137Q193 137 193 135Q193 118 138 60Q94 16 71 16Q20 16 20 67Q20 105 40 163L22 135Q9 113 4 113Q2 113 2 118T17 144T61 226Q69 247 83 273Q88 282 106 282T125 272T115 242T98 219Q46
115 46 66Q46 33 68 33Q104 33 147 85Q165 106 169 110T177 120T184 128Q189 133 191 137ZM161 338Q161 333 155 333T84 370T20 418Q20 430 34 430T105 389T161 338Z" />
<glyph unicode="&#xed;" glyph-name="iacute" horiz-adv-x="174" d="M191 137Q193 137 193 135Q193 118 138 60Q94 16 71 16Q20 16 20 67Q20 105 40 163L22 135Q9 113 4 113Q2 113 2 118T17 144T61 226Q69 247 83 273Q88 282 106 282T125 272T115 242T98 219Q46
115 46 66Q46 33 68 33Q104 33 147 85Q165 106 169 110T177 120T184 128Q189 133 191 137ZM242 411Q242 404 184 368T118 331T110 336Q110 346 162 383Q214 422 228 422T242 411Z" />
<glyph unicode="&#xee;" glyph-name="icircumflex" horiz-adv-x="174" d="M267 316L263 310Q247 311 205 337T147 380Q71 318 56 313L50 321Q54 333 100 371T158 411L163 409Q197 372 263 323L267 316ZM123 254Q136 254 136 241T80 147T23 21Q23 6 32 6Q48 6 83
41Q118 78 122 79Q118 63 82 24T32 -16T10 -2T1 27Q1 68 45 161T123 254Z" />
<glyph unicode="&#xef;" glyph-name="idieresis" horiz-adv-x="174" d="M123 254Q136 254 136 241T80 147T23 21Q23 6 32 6Q48 6 83 41Q118 78 122 79Q118 63 82 24T32 -16T10 -2T1 27Q1 68 45 161T123 254ZM115 324Q109 324 105 331T100 347T121 371T155 387L158
385L147 373L135 344Q126 324 115 324ZM204 324Q197 324 193 331T188 347T210 371T244 387L246 386V385L236 373L223 344Q215 324 204 324Z" />
<glyph unicode="&#xf0;" glyph-name="eth" horiz-adv-x="286" d="M186 243L187 234V232Q187 231 187 231Q187 225 181 225H177Q176 226 173 226Q154 226 130 182Q74 78 74 33Q74 9 94 9Q126 9 162 81Q223 200 223 365V380Q141 330 139 330Q130 330 130 343T140
363Q164 380 222 407Q213 530 163 530H144Q136 532 136 544Q136 551 153 556T183 561Q249 561 262 425Q310 444 318 444T327 435Q327 429 321 426Q283 412 264 403V380Q264 323 246 244T188 87Q132 -21 73 -21Q29 -21 29 28Q29 88 90 191Q131 256 158 256Q177 256
186 243Z" />
<glyph unicode="&#xf1;" glyph-name="ntilde" horiz-adv-x="288" d="M-8 -6L48 247Q44 261 26 301Q26 308 43 314Q93 333 107 333T122 324Q85 232 71 196Q71 193 71 190Q71 159 62 159Q60 159 59 162Q38 99 30 70Q76 145 124 201Q199 288 248 288Q271 288 271
270Q271 263 213 50Q271 93 303 142Q308 148 310 148T313 145T310 137Q266 59 203 13Q198 7 191 7T183 16T195 84T212 174T220 252Q179 232 119 166T40 63T15 3T1 -21T-8 -8V-6ZM309 401Q308 392 291 376T257 360T199 378T140 396T108 384T89 372L86 376Q86 385
107 400T141 416T194 399T254 382T286 390T307 403L309 401ZM63 307Q58 303 44 297L54 274L63 307Z" />
<glyph unicode="&#xf2;" glyph-name="ograve" horiz-adv-x="278" d="M255 196L258 215Q258 231 248 241T223 252Q211 130 164 65H195Q182 57 176 57T167 58T161 59Q162 58 156 53T118 20T60 -7Q21 -7 21 43Q21 104 67 168Q51 207 51 250T68 326Q101 389 150 389Q212
389 222 283Q272 281 272 231Q272 190 259 190Q255 190 255 196ZM151 367Q119 367 92 304Q75 266 75 231T78 179Q139 261 206 281Q186 367 151 367ZM207 253Q185 250 139 213T81 153Q102 77 132 70Q156 92 181 157T207 253ZM74 144Q41 88 41 56T63 23Q90 23 128
65Q95 69 74 144ZM225 415Q225 410 218 410T148 448T84 494Q84 506 98 506T168 466T225 415Z" />
<glyph unicode="&#xf3;" glyph-name="oacute" horiz-adv-x="278" d="M255 196L258 215Q258 231 248 241T223 252Q211 130 164 65H195Q182 57 176 57T167 58T161 59Q162 58 156 53T118 20T60 -7Q21 -7 21 43Q21 104 67 168Q51 207 51 250T68 326Q101 389 150 389Q212
389 222 283Q272 281 272 231Q272 190 259 190Q255 190 255 196ZM151 367Q119 367 92 304Q75 266 75 231T78 179Q139 261 206 281Q186 367 151 367ZM207 253Q185 250 139 213T81 153Q102 77 132 70Q156 92 181 157T207 253ZM74 144Q41 88 41 56T63 23Q90 23 128
65Q95 69 74 144ZM315 506Q315 499 257 463T191 427T183 432Q183 442 235 479Q287 518 301 518T315 506Z" />
<glyph unicode="&#xf4;" glyph-name="ocircumflex" horiz-adv-x="278" d="M255 196L258 215Q258 231 248 241T223 252Q211 130 164 65H195Q182 57 176 57T167 58T161 59Q162 58 156 53T118 20T60 -7Q21 -7 21 43Q21 104 67 168Q51 207 51 250T68 326Q101 389 150
389Q212 389 222 283Q272 281 272 231Q272 190 259 190Q255 190 255 196ZM151 367Q119 367 92 304Q75 266 75 231T78 179Q139 261 206 281Q186 367 151 367ZM207 253Q185 250 139 213T81 153Q102 77 132 70Q156 92 181 157T207 253ZM296 400L293 394Q278 395 233
423T176 464Q100 402 85 397L79 405Q83 417 128 455T187 496L192 494Q225 458 292 407L296 400ZM74 144Q41 88 41 56T63 23Q90 23 128 65Q95 69 74 144Z" />
<glyph unicode="&#xf5;" glyph-name="otilde" horiz-adv-x="278" d="M255 196L258 215Q258 231 248 241T223 252Q211 130 164 65H195Q182 57 176 57T167 58T161 59Q162 58 156 53T118 20T60 -7Q21 -7 21 43Q21 104 67 168Q51 207 51 250T68 326Q101 389 150 389Q212
389 222 283Q272 281 272 231Q272 190 259 190Q255 190 255 196ZM151 367Q119 367 92 304Q75 266 75 231T78 179Q139 261 206 281Q186 367 151 367ZM207 253Q185 250 139 213T81 153Q102 77 132 70Q156 92 181 157T207 253ZM312 477Q312 460 292 443T243 426T193
435T154 452Q121 468 111 468Q79 468 61 441Q56 436 54 438T51 445Q51 466 69 479T115 492T166 483T202 468T222 460Q240 452 253 452Q278 452 305 479Q307 482 309 481T312 477ZM74 144Q41 88 41 56T63 23Q90 23 128 65Q95 69 74 144Z" />
<glyph unicode="&#xf6;" glyph-name="odieresis" horiz-adv-x="278" d="M255 196L258 215Q258 231 248 241T223 252Q211 130 164 65H195Q182 57 176 57T167 58T161 59Q162 58 156 53T118 20T60 -7Q21 -7 21 43Q21 104 67 168Q51 207 51 250T68 326Q101 389 150
389Q212 389 222 283Q272 281 272 231Q272 190 259 190Q255 190 255 196ZM151 367Q119 367 92 304Q75 266 75 231T78 179Q139 261 206 281Q186 367 151 367ZM207 253Q185 250 139 213T81 153Q102 77 132 70Q156 92 181 157T207 253ZM74 144Q41 88 41 56T63 23Q90
23 128 65Q95 69 74 144ZM236 422Q229 422 225 429T220 445T242 469T276 485L278 484V483Q274 477 268 471L255 442Q246 422 236 422ZM147 422Q141 422 137 429T132 445T153 469T187 485L190 483L179 471L167 442Q158 422 147 422Z" />
<glyph unicode="&#xf7;" glyph-name="divide" horiz-adv-x="228" d="M150 216T150 192T125 168T100 192T125 216ZM54 133Q70 139 105 139T179 134T218 122T203 114T170 112T143 110T116 106Q79 101 44 101H39Q19 101 19 108Q19 121 54 133ZM142 77T142 53T117
29T91 53T116 77Z" />
<glyph unicode="&#xf8;" glyph-name="oslash" horiz-adv-x="324" d="M302 238L307 270Q307 320 272 318Q259 181 184 82Q123 0 72 0Q58 0 48 6L0 -84H-27L31 25Q24 39 24 62Q24 136 81 215Q72 246 72 283Q72 369 125 437Q160 481 195 481T250 439L322 573L351
572L262 405Q269 380 270 356Q324 356 324 294Q324 278 319 254T306 230Q302 230 302 238ZM251 354Q250 361 246 375L231 348Q241 352 251 354ZM235 409Q216 460 188 460T134 414Q91 334 91 261Q91 241 95 229Q139 288 190 324L235 409ZM76 37Q134 37 192 145T253
320Q234 318 204 297L66 39Q72 37 76 37ZM49 81Q49 76 51 64L154 256Q137 241 95 196Q49 132 49 81Z" />
<glyph unicode="&#xf9;" glyph-name="ugrave" horiz-adv-x="297" d="M319 57V55Q284 7 242 7T200 81Q200 111 205 166Q167 94 80 26Q71 19 46 0Q41 -4 29 -4T16 2Q16 38 48 101T89 191T97 269Q93 253 61 198Q13 115 7 115T1 119L31 170Q79 254 93 311Q99 337 117
337T135 292T109 164L67 33Q151 97 207 190Q217 260 234 282Q240 289 256 289T273 278Q273 248 254 223Q232 148 232 77Q232 29 262 29Q277 29 292 42T312 59T316 63Q319 63 319 57ZM241 350Q241 345 235 345T165 382T101 430T115 441T185 401T241 350Z" />
<glyph unicode="&#xfa;" glyph-name="uacute" horiz-adv-x="297" d="M319 57V55Q284 7 242 7T200 81Q200 111 205 166Q167 94 80 26Q71 19 46 0Q41 -4 29 -4T16 2Q16 38 48 101T89 191T97 269Q93 253 61 198Q13 115 7 115T1 119L31 170Q79 254 93 311Q99 337 117
337T135 292T109 164L67 33Q151 97 207 190Q217 260 234 282Q240 289 256 289T273 278Q273 248 254 223Q232 148 232 77Q232 29 262 29Q277 29 292 42T312 59T316 63Q319 63 319 57ZM316 422Q316 415 258 379T192 342T184 347Q184 357 236 394Q288 433 302 433T316
422Z" />
<glyph unicode="&#xfb;" glyph-name="ucircumflex" horiz-adv-x="297" d="M319 57V55Q284 7 242 7T200 81Q200 111 205 166Q167 94 80 26Q71 19 46 0Q41 -4 29 -4T16 2Q16 38 48 101T89 191T97 269Q93 253 61 198Q13 115 7 115T1 119L31 170Q79 254 93 311Q99
337 117 337T135 292T109 164L67 33Q151 97 207 190Q217 260 234 282Q240 289 256 289T273 278Q273 248 254 223Q232 148 232 77Q232 29 262 29Q277 29 292 42T312 59T316 63Q319 63 319 57ZM325 368L321 362Q302 364 262 390T205 433Q127 369 113 365L108 373Q111
385 157 424T216 464L221 462Q255 425 321 376L325 368Z" />
<glyph unicode="&#xfc;" glyph-name="udieresis" horiz-adv-x="297" d="M319 57V55Q284 7 242 7T200 81Q200 111 205 166Q167 94 80 26Q71 19 46 0Q41 -4 29 -4T16 2Q16 38 48 101T89 191T97 269Q93 253 61 198Q13 115 7 115T1 119L31 170Q79 254 93 311Q99 337
117 337T135 292T109 164L67 33Q151 97 207 190Q217 260 234 282Q240 289 256 289T273 278Q273 248 254 223Q232 148 232 77Q232 29 262 29Q277 29 292 42T312 59T316 63Q319 63 319 57ZM248 366Q242 366 237 374T232 390T254 413T288 429L290 428L280 415L268
386Q259 366 248 366ZM159 366Q154 366 149 374T144 390T165 413T199 429L202 428L191 415L179 386Q170 366 159 366Z" />
<glyph unicode="&#xfd;" glyph-name="yacute" horiz-adv-x="341" d="M384 396Q384 393 375 391T356 383Q311 351 278 212Q228 -1 226 -6Q188 -142 141 -226Q79 -336 -8 -385Q-49 -408 -100 -408T-212 -362T-273 -266Q-273 -262 -271 -262T-265 -268Q-223 -373
-113 -373Q-57 -373 -9 -346Q84 -294 136 -183Q169 -108 197 31Q221 160 238 222L255 284Q192 235 104 3Q104 1 98 1T85 8T77 23L94 65Q113 121 113 229Q113 311 78 311Q59 311 31 286L3 260Q0 260 0 262T2 271Q16 293 48 316T102 339Q144 339 144 258Q144 192
117 112Q200 265 258 295Q273 349 292 371Q317 402 366 402Q384 402 384 396ZM331 561Q341 554 341 544Q341 531 308 513Q302 510 249 476T189 442T183 444Q183 451 196 461T222 481T241 496Q272 518 284 552Q290 568 312 568Q319 568 331 561Z" />
<glyph unicode="&#xfe;" glyph-name="thorn" horiz-adv-x="233" d="M330 670Q330 667 297 604T125 267Q238 142 238 77Q238 39 204 18T137 -3T68 10T32 43L33 46Q32 45 35 43Q42 39 68 26T121 13T170 29T193 70Q193 137 104 235Q59 130 -22 -56T-103 -358Q-103
-439 -47 -439Q-10 -439 42 -409Q32 -426 6 -438T-41 -450Q-89 -450 -124 -416T-159 -335V-333Q-159 -292 -124 -210Q-103 -164 -71 -87Q134 394 251 624Q265 652 273 665T306 679T330 670Z" />
<glyph unicode="&#xff;" glyph-name="ydieresis" horiz-adv-x="341" d="M384 396Q384 393 375 391T356 383Q311 351 278 212Q228 -1 226 -6Q188 -142 141 -226Q79 -336 -8 -385Q-49 -408 -100 -408T-212 -362T-273 -266Q-273 -262 -271 -262T-265 -268Q-223 -373
-113 -373Q-57 -373 -9 -346Q84 -294 136 -183Q169 -108 197 31Q221 160 238 222L255 284Q192 235 104 3Q104 1 98 1T85 8T77 23L94 65Q113 121 113 229Q113 311 78 311Q59 311 31 286L3 260Q0 260 0 262T2 271Q16 293 48 316T102 339Q144 339 144 258Q144 192
117 112Q200 265 258 295Q273 349 292 371Q317 402 366 402Q384 402 384 396ZM282 451Q277 451 272 459T267 475T288 499T322 515L325 513L314 501L302 471Q293 451 282 451ZM194 451Q188 451 183 459T178 475T200 499T233 515L236 514V513L226 501Q221 491 213
471T194 451Z" />
<glyph unicode="&#x2013;" glyph-name="endash" horiz-adv-x="445" d="M86 190Q94 198 234 198T432 187Q438 186 438 183Q438 178 427 178Q328 178 121 167Q115 167 102 175T86 190Z" />
<glyph unicode="&#x2014;" glyph-name="emdash" horiz-adv-x="713" d="M86 190Q94 198 319 198T711 187Q721 187 721 183T702 178Q351 176 121 167Q114 167 102 174T86 190Z" />
<glyph unicode="&#x2018;" glyph-name="quoteleft" horiz-adv-x="168" d="M154 337Q156 337 156 334T143 316T101 256Q118 256 118 234Q118 205 85 205Q77 205 71 213T64 231Q64 250 100 293T154 337Z" />
<glyph unicode="&#x2019;" glyph-name="quoteright" horiz-adv-x="168" d="M142 337Q162 337 162 315T126 249T72 206Q70 206 70 209T85 231T126 288Q108 288 108 310Q108 337 142 337Z" />
<glyph unicode="&#x201a;" glyph-name="quotesinglbase" horiz-adv-x="86" d="M87 71Q87 55 80 11T68 -42Q67 -46 62 -46Q59 -46 59 -38Q59 26 54 71Q75 74 80 74T87 73V71Z" />
<glyph unicode="&#x201c;" glyph-name="quotedblleft" horiz-adv-x="259" d="M232 526Q234 526 234 523T224 509T178 444Q196 444 196 422Q196 395 162 395Q142 395 142 417T178 483T232 526ZM154 526Q156 526 156 523T146 509T100 444Q118 444 118 422Q118 395
84 395Q64 395 64 417T100 483T154 526Z" />
<glyph unicode="&#x201d;" glyph-name="quotedblright" horiz-adv-x="259" d="M240 496Q240 476 204 433T149 389Q148 389 148 392T158 405T204 472L202 471Q186 471 186 493Q186 521 220 521Q227 521 233 513T240 496ZM162 496Q162 476 126 433T72 389L70 391Q70
393 80 404T126 472L124 471Q108 471 108 488T118 513T139 521T155 513T162 496Z" />
<glyph unicode="&#x201e;" glyph-name="quotedblbase" horiz-adv-x="156" d="M156 71Q156 55 149 11T137 -42Q136 -46 131 -46Q128 -46 128 -38Q128 26 123 71Q144 74 149 74T156 73V71ZM87 71Q87 55 80 11T68 -42Q67 -46 62 -46Q59 -46 59 -38Q59 26 54 71Q75
74 80 74T87 73V71Z" />
<glyph unicode="&#x2022;" glyph-name="bullet" horiz-adv-x="537" d="M487 326T487 237T424 84T271 20T118 83T54 236T117 389T270 453T423 390Z" />
<glyph unicode="&#x2039;" glyph-name="guilsinglleft" horiz-adv-x="279" d="M130 283Q227 161 227 149T219 136Q217 136 209 140Q186 171 152 199L88 250Q85 252 85 256Q85 268 130 332T203 431Q212 442 220 442T229 436Q229 421 130 283Z" />
<glyph unicode="&#x203a;" glyph-name="guilsinglright" horiz-adv-x="264" d="M184 288Q86 413 86 424T95 435Q97 435 105 431Q128 400 160 374L226 321Q229 320 229 313T179 234T115 146T93 129T85 135Q85 150 184 288Z" />
</font>
</defs>
</svg>
