<?xml version="1.0" standalone="no"?>
<!DOCTYPE svg PUBLIC "-//W3C//DTD SVG 1.1//EN" "http://www.w3.org/Graphics/SVG/1.1/DTD/svg11.dtd">
<svg xmlns="http://www.w3.org/2000/svg">
<defs >
<font id="JacquesFrancoisShadow" horiz-adv-x="1323" ><font-face
    font-family="Jacques Francois Shadow"
    units-per-em="2048"
    panose-1="2 0 0 0 0 0 0 0 0 0"
    ascent="2095"
    descent="-606"
    alphabetic="0" />
<glyph unicode=" " glyph-name="space" horiz-adv-x="532" />
<glyph unicode="!" glyph-name="exclam" horiz-adv-x="823" d="M340 348H389L397 489Q401 562 408 653T425 839T443 1026T459 1194T472 1322T477 1389Q477 1426 464 1448T433 1483T396 1499T364 1503Q354 1503 335 1500T298 1486T266 1452T252 1389Q252 1378 257
1329T270 1206T288 1039T307 850T323 660T334 489L340 348ZM285 184Q254 150 254 98Q254 72 262 50T285 11T319 -15T362 -25Q385 -25 405 -15T439 12T462 51T471 98Q471 124 463 146T439 185T404 211T362 221Q316 221 285 184ZM377 262Q602 262 602 98Q602 -66
377 -66Q344 -66 314 -53T262 -18T226 35T213 98Q213 132 226 161T261 213T313 249T377 262ZM528 307H301L293 487Q281 770 236 1124Q211 1311 211 1389Q211 1438 229 1471T278 1519T332 1539T379 1544Q430 1544 467 1539T542 1520T599 1473T618 1389Q618 1317
592 1081Q551 707 539 487L528 307Z" />
<glyph unicode="&quot;" glyph-name="quotedbl" horiz-adv-x="938" d="M512 1427L573 1030H649L709 1427Q709 1464 681 1483T610 1503Q512 1503 512 1427ZM164 1427L225 1030H301L360 1427Q360 1464 333 1483T262 1503Q164 1503 164 1427ZM190 989L123 1421Q123
1481 162 1512T262 1544Q367 1544 416 1520T471 1440Q483 1544 610 1544Q821 1544 821 1421L758 989H539L471 1413L410 989H190Z" />
<glyph unicode="#" glyph-name="numbersign" horiz-adv-x="1171" d="M688 510H356L428 981H758L688 510ZM610 0H733L799 412H1063L1077 510H813L887 981H1149L1165 1083H905L969 1470H838L780 1083H442L506 1470H381L317 1083H41L29 981H305L227 510H-45L-59 412H211L150
0H274L344 412H676L610 0ZM840 -41H561L629 371H453L381 -41H100L162 371H-106L-82 551H190L256 940H-18L4 1124H281L346 1511H627L563 1124H743L801 1511H1090L1026 1124H1284L1257 940H993L934 551H1196L1171 371H907L840 -41ZM475 551H651L711 940H537L475 551Z"
/>
<glyph unicode="$" glyph-name="dollar" horiz-adv-x="1171" d="M279 1190Q279 1288 341 1351T518 1427V836Q379 883 329 974T279 1190ZM823 330Q823 215 765 137T600 39V649Q729 604 776 531T823 330ZM907 1071Q930 1065 948 1071Q944 1268 854 1384T600 1501V1630H518V1501Q446
1495 382 1472T259 1403T166 1278T131 1092Q131 920 229 825T518 674V33Q379 37 274 137T133 477Q111 487 90 477Q111 336 111 221Q111 176 106 74Q317 -37 518 -41V-174H600V-35Q760 -12 879 105T999 420Q999 512 966 581T869 695T745 765T600 813V1430Q842 1403
907 1071ZM244 504Q289 180 477 98V643Q293 705 192 808T90 1092Q90 1300 201 1408T477 1538V1671H713V1540Q811 1528 983 1436Q956 1272 993 1047Q934 1014 872 1040Q825 1268 713 1346V885Q801 858 867 827T998 742T1098 607T1133 420Q1133 217 1009 91T713 -70V-215H477V-80Q287
-63 63 49Q70 203 70 221Q70 324 45 500Q72 514 141 515T244 504ZM782 330Q782 465 713 537V137Q782 205 782 330ZM412 1190Q412 1110 423 1063T477 979V1339Q412 1286 412 1190Z" />
<glyph unicode="%" glyph-name="percent" horiz-adv-x="2073" d="M1192 342Q1192 457 1275 537T1475 618Q1589 618 1670 538T1751 342Q1751 231 1669 151T1475 70Q1360 70 1276 150T1192 342ZM1104 344Q1104 188 1212 80T1477 -29Q1626 -29 1732 79T1839 344T1733
610T1477 721Q1321 721 1213 612T1104 344ZM242 1122Q242 1237 325 1318T524 1399Q639 1399 720 1318T801 1122Q801 1012 719 931T524 850Q410 850 326 931T242 1122ZM154 1124Q154 969 262 861T526 752Q676 752 782 860T889 1124T783 1390T526 1501Q371 1501 263
1392T154 1124ZM1329 1559L571 -61L659 -98L1417 1526L1329 1559ZM113 1124Q113 1298 233 1420T526 1542Q653 1542 759 1501T941 1362T1016 1124Q1016 948 882 830T526 711Q354 711 234 831T113 1124ZM1063 344Q1063 518 1184 640T1477 762Q1698 762 1832 642T1966
344Q1966 168 1832 49T1477 -70Q1305 -70 1184 51T1063 344ZM518 -82L1309 1610H1380L1544 1550L752 -152H680L518 -82ZM1319 342Q1319 258 1374 193T1511 113Q1595 127 1652 192T1710 342Q1710 430 1653 495T1511 573Q1430 561 1375 496T1319 342ZM369 1122Q369
1038 424 973T561 893Q645 907 702 972T760 1122Q760 1208 704 1273T561 1354Q479 1341 424 1276T369 1122Z" />
<glyph unicode="&amp;" glyph-name="ampersand" horiz-adv-x="1651" d="M1448 268Q1519 268 1569 229Q1557 170 1537 116T1482 20T1392 -47T1255 -72Q1171 -69 1138 -54T1068 -16T979 70Q920 26 869 -1T766 -45T658 -66T530 -72Q452 -72 390 -55T280 -7T199 64T144
150T112 244T102 338Q102 385 115 445T162 567T254 689T403 799Q365 836 337 872T291 946T263 1027T254 1122Q254 1194 283 1256T364 1364T483 1436T629 1462Q831 1462 931 1387T1032 1149Q1032 1090 1019 1043T980 957T912 882T813 811Q938 680 1061 508Q1100
583 1125 655T1151 789Q1151 796 1150 802T1139 812T1110 819T1053 825Q1042 856 1042 888Q1042 920 1053 956Q1188 950 1325 950Q1462 950 1602 956Q1618 930 1618 896Q1618 881 1615 864T1604 829Q1486 815 1448 750L1196 317Q1292 171 1362 143Q1416 171 1448
268ZM1081 866Q1102 863 1122 859T1158 847T1183 825T1193 787Q1193 701 1143 596T1004 377Q815 650 647 819Q707 852 753 887T829 962T875 1048T891 1149Q891 1286 821 1353T629 1421Q560 1421 499 1398T393 1334T322 1239T295 1122Q295 1069 304 1028T335 950T391
874T473 788Q374 741 311 682T210 563T158 444T143 338Q143 278 163 213T229 94T349 4T530 -31Q743 -31 958 170Q988 124 1022 83T1108 11T1196 -26T1255 -31Q1318 -31 1363 -13T1439 37T1490 114T1524 215Q1509 227 1477 227Q1424 96 1329 96Q1307 96 1284 103T1233
122T1162 180T1044 315L1327 774Q1372 848 1563 866Q1569 876 1569 888Q1569 899 1563 913Q1494 910 1430 909T1306 908Q1245 908 1189 909T1081 913Q1076 903 1076 890Q1076 876 1081 866ZM594 868Q440 993 440 1124Q440 1212 492 1271T639 1331Q709 1331 757
1285T805 1145Q805 1047 741 976T594 868ZM915 240Q803 119 623 119Q485 119 397 188T309 387Q309 512 373 604T530 731Q764 487 915 240ZM662 160Q776 170 862 246Q727 463 551 651Q451 561 451 387Q451 285 509 228T662 160ZM764 1145Q764 1262 674 1284Q629
1270 606 1227T582 1124Q582 1036 666 948Q764 1030 764 1145Z" />
<glyph unicode="&apos;" glyph-name="quotesingle" horiz-adv-x="590" d="M164 1427L225 1030H301L360 1427Q360 1464 333 1483T262 1503Q164 1503 164 1427ZM190 989L123 1421Q123 1481 162 1512T262 1544Q473 1544 473 1421L410 989H190Z" />
<glyph unicode="(" glyph-name="parenleft" horiz-adv-x="975" d="M772 -428L805 -397Q714 -310 642 -195T515 68T435 349T408 604Q408 1175 805 1606L772 1636Q667 1566 587 1486T446 1323T344 1158T275 1000T227 818T205 604Q205 550 213 464T253 272T347 44T491
-173T635 -323T772 -428ZM776 1690H848L926 1614Q867 1555 817 1483T724 1329T650 1158T595 976T561 789T549 604Q549 38 934 -399L848 -481H776Q639 -386 540 -282T373 -74T264 132T201 322T171 483T164 604Q164 648 170 719T197 878T258 1067T367 1275T535 1487T776
1690Z" />
<glyph unicode=")" glyph-name="parenright" horiz-adv-x="975" d="M104 -397L137 -428Q238 -356 315 -275T449 -111T545 55T609 212T647 351T665 457T673 536T676 604Q676 658 667 744T628 938T538 1167T377 1412Q273 1539 137 1636L104 1606Q473 1204 473 604Q473
3 104 -397ZM205 -481H133L47 -397Q141 -299 213 -184T333 59T407 324T432 604Q432 745 407 882T334 1148T213 1392T47 1606L133 1690H205Q348 1591 449 1483T618 1266T725 1054T785 864T811 709T817 604Q817 562 812 493T786 336T725 146T617 -62T448 -276T205
-481Z" />
<glyph unicode="*" glyph-name="asterisk" horiz-adv-x="1102" d="M430 1083Q430 1071 432 1061L260 1018Q143 986 143 899Q143 831 233 831Q251 831 276 846T332 893L457 1022Q475 1004 496 1001L444 829Q434 795 434 764Q434 662 518 662Q557 662 578 692T600
770Q600 802 592 829L539 1004Q561 1010 575 1024L705 893Q760 836 819 836Q893 836 893 905Q893 988 776 1018L598 1063Q600 1071 600 1083Q600 1091 596 1106L776 1149Q830 1162 861 1193T893 1268Q893 1292 875 1311T819 1331Q761 1329 705 1272L578 1141Q567
1153 539 1165L592 1339Q596 1355 598 1370T600 1401Q600 1449 579 1476T518 1503Q479 1503 457 1477T434 1405Q434 1391 436 1375T444 1339L496 1167Q471 1161 455 1145L319 1286Q305 1300 296 1309T276 1323T250 1331T211 1333Q197 1333 185 1327T164 1312T149
1291T143 1268Q143 1176 260 1149L432 1106Q430 1098 430 1083ZM102 899Q102 1020 250 1057L356 1083L250 1110H252Q102 1143 102 1268Q102 1303 134 1338T211 1374Q311 1374 406 1325Q393 1368 393 1405Q393 1468 426 1506T518 1544Q565 1544 594 1540T653 1523T698
1480T713 1401Q713 1362 700 1325Q752 1372 819 1372H891Q946 1372 976 1340T1006 1268Q1006 1217 962 1174T858 1110L754 1081L858 1057Q1006 1016 1006 905Q1006 856 977 826T891 795Q754 795 702 838Q713 805 713 770Q713 621 518 621Q393 621 393 764Q393 805
403 838Q348 791 305 791H233Q178 791 140 817T102 899Z" />
<glyph unicode="+" glyph-name="plus" horiz-adv-x="1571" d="M694 143H811V653H1321V768H811V1280H694V768H184V653H694V143ZM924 102H653V612H143V809H653V1321H924V809H1434V612H924V102Z" />
<glyph unicode="," glyph-name="comma" horiz-adv-x="684" d="M184 -217L236 -262Q317 -209 375 -109T434 86Q434 158 396 189T301 221Q252 221 218 183T184 98Q184 -20 320 -21Q293 -123 184 -217ZM305 -313H233L123 -217Q238 -119 266 -57Q143 -39 143 98Q143
162 188 212T301 262Q344 262 373 260T439 248T496 221T532 168T547 86Q547 -16 475 -133T305 -313Z" />
<glyph unicode="-" glyph-name="hyphen" horiz-adv-x="1042" d="M184 537V412H793V537H184ZM143 371V578H905V371H143Z" />
<glyph unicode="." glyph-name="period" horiz-adv-x="684" d="M215 182Q184 148 184 96Q184 71 192 49T216 10T250 -17T293 -27Q315 -27 334 -17T369 9T392 48T401 96Q401 121 393 143T369 182T335 209T293 219Q248 219 215 182ZM307 260Q532 260 532 96Q532
-68 307 -68Q274 -68 245 -55T193 -20T157 32T143 96Q143 130 156 160T191 212T244 247T307 260Z" />
<glyph unicode="/" glyph-name="slash" horiz-adv-x="1374" d="M184 -426H317L1124 1620H987L184 -426ZM418 -467H123L958 1661H1257L418 -467Z" />
<glyph unicode="0" glyph-name="zero" horiz-adv-x="1171" d="M195 831Q49 683 49 475Q49 371 88 280T196 120T355 11T551 -29Q655 -29 747 11T908 119T1017 279T1057 475Q1057 578 1017 670T907 831T746 940T551 981Q342 981 195 831ZM551 1022Q687 1022 800
980T996 864T1123 690T1169 475Q1169 360 1124 261T997 88T801 -28T551 -70Q326 -70 167 90Q8 250 8 475Q8 700 167 861Q326 1022 551 1022ZM184 473Q184 629 290 737T549 846Q705 846 813 738T922 473Q922 322 814 214T549 106Q399 106 292 214T184 473ZM297 473Q297
348 380 256T584 150Q711 162 796 255T881 473Q881 602 796 695T584 803Q461 788 379 695T297 473Z" />
<glyph unicode="1" glyph-name="one" horiz-adv-x="1171" d="M647 137V813Q649 862 713 881T893 907Q903 932 893 956H285Q274 932 285 907Q325 901 341 898T396 885T451 857T469 813Q481 475 469 137Q469 111 452 94T396 66T342 52T285 43Q274 18 285 -6H893Q903
18 893 43Q778 49 713 68T647 137ZM428 139Q442 465 428 811Q426 848 248 872Q231 932 248 993H930Q946 932 930 872Q790 850 788 811Q772 494 788 139Q790 100 930 78Q946 18 930 -43H248Q231 18 248 78Q426 102 428 139Z" />
<glyph unicode="2" glyph-name="two" horiz-adv-x="1171" d="M537 358L137 82Q147 16 170 0H858L950 334Q940 344 913 344Q881 289 823 243T694 197H442V207L688 358Q903 500 903 692Q903 825 813 903T569 981Q410 981 303 909T195 700Q195 649 210 606T246 538T290
495T328 471L344 465Q379 467 387 502Q319 559 319 678Q319 766 380 813T545 860Q604 860 657 813T711 657Q711 555 671 490T537 358ZM891 367Q954 367 993 334L903 -41H158Q111 -6 92 98L514 391Q670 502 670 657Q670 729 640 767T571 815Q506 805 469 770T432
678Q432 633 449 593T485 535L504 516Q483 430 410 424H338Q330 426 318 432T274 460T218 512T174 591T154 700Q154 856 272 939T569 1022Q805 1022 924 935T1044 692Q1044 475 795 324L655 238H700Q758 240 810 278T891 367Z" />
<glyph unicode="3" glyph-name="three" horiz-adv-x="1171" d="M418 -516Q311 -516 237 -486T116 -411T48 -316T27 -225Q27 -186 40 -153T76 -96T130 -59T197 -45Q348 -45 348 -195Q348 -301 252 -340Q314 -371 422 -371Q472 -371 516 -341T593 -260T645 -139T664
10Q664 215 504 240Q436 231 360 197H289L231 330L430 426Q521 470 566 537T612 694Q612 718 602 740T574 779T531 806T476 816Q444 816 414 807T360 781T322 741T307 690Q307 596 352 532Q319 467 256 461Q115 551 115 709Q115 778 141 835T217 934T341 999T514
1022Q989 1022 989 698Q989 611 940 535T805 408Q1042 325 1042 37Q1042 -203 853 -359Q665 -516 418 -516ZM412 -412Q287 -412 214 -354T141 -223Q141 -150 193 -133Q207 -113 193 -86Q139 -86 105 -124T70 -231Q70 -317 166 -396T414 -475Q588 -475 744 -328T901
37Q901 211 810 296T590 391V401Q696 434 772 517T848 698Q848 844 757 912T514 981Q340 981 248 905T156 709Q156 575 266 504Q293 508 305 530Q252 590 252 690Q252 766 307 813T475 860Q553 860 603 810T653 694Q653 489 449 389L285 309L309 250Q393 285 465
285Q567 285 636 223T705 10Q705 -180 624 -296T412 -412Z" />
<glyph unicode="4" glyph-name="four" horiz-adv-x="1151" d="M219 186L625 698V186H219ZM797 188L799 969Q786 981 762 981L29 59Q29 12 55 0H621V-438H797V0L1061 2L1090 188H797ZM-12 74L741 1022Q891 1022 938 975V227H1210L1171 -39L938 -41V-479H580V-41H45Q-12
-10 -12 74ZM403 227H584V453L403 227Z" />
<glyph unicode="5" glyph-name="five" horiz-adv-x="1171" d="M369 -410Q244 -410 171 -352T98 -221Q98 -147 150 -131Q164 -111 150 -84Q96 -84 62 -122T27 -229Q27 -315 124 -395T377 -475Q582 -475 736 -325T891 47Q891 180 848 271T725 411T549 481T326 502L369
754H868L948 1061Q930 1075 899 1075Q869 1017 832 986T690 950H313Q279 592 203 356Q225 307 266 299Q367 299 438 289T580 250T688 160T725 6Q725 -211 620 -310T369 -410ZM872 1116Q948 1116 993 1077L899 713H489L461 543Q735 539 883 429T1032 47Q1032 -186
823 -350T375 -514Q270 -514 191 -484T68 -406T5 -311T-16 -223Q-16 -145 33 -94T154 -43Q293 -43 293 -197Q293 -291 201 -332Q227 -352 292 -362T397 -367Q518 -356 601 -267T684 6Q684 86 649 138T549 215T417 249T258 258Q223 266 203 285T160 352Q238 596
276 991H707Q761 993 793 1015T839 1057T872 1116Z" />
<glyph unicode="6" glyph-name="six" horiz-adv-x="1171" d="M764 446Q764 217 690 127T524 37Q387 37 310 136T233 416Q233 680 367 817Q590 815 676 727T764 446ZM1047 1382L1022 1421Q1001 1415 967 1405T831 1353T637 1263T434 1132T241 956T105 730T49 455Q49
342 82 254T164 114T279 28T405 -17T526 -29Q696 -29 828 99T961 446Q961 889 414 889Q641 1186 1047 1382ZM1112 1468L1180 1366Q784 1176 569 928Q1102 895 1102 446Q1102 205 944 68T563 -70Q483 -70 411 -57T262 -7T132 85T43 236T8 455Q8 604 65 741T213 978T413
1162T634 1301T835 1395T1040 1468H1112ZM723 446Q721 602 665 679T461 772Q375 651 375 416Q375 272 423 185T557 82Q625 96 674 181T723 446Z" />
<glyph unicode="7" glyph-name="seven" horiz-adv-x="1171" d="M381 -143L1059 899Q1057 915 1045 932T1016 950H319L270 981Q247 981 231 956Q230 924 225 878T212 783T193 689T170 614Q192 590 227 590Q227 592 237 610T272 666Q293 697 318 715T368 741T414
752T449 754H840L246 -141L183 -232Q177 -241 171 -254T160 -283T151 -313T147 -342Q147 -403 186 -440T307 -477Q314 -473 319 -464T324 -443Q324 -432 319 -426Q268 -424 268 -380Q272 -312 381 -143ZM324 549Q277 549 248 550T197 556T159 573T123 606Q135 639
147 687T168 787T183 888T190 971Q224 1022 283 1022L334 991H1044Q1066 991 1088 981T1129 955T1159 922T1174 889L424 -250Q467 -296 467 -358Q467 -391 455 -419T419 -469T362 -503T285 -516Q200 -516 153 -470T106 -342Q106 -327 109 -311T117 -279T127 -250T138
-229Q142 -221 299 15T764 715H512Q479 715 454 705T407 675T366 623T324 549Z" />
<glyph unicode="8" glyph-name="eight" horiz-adv-x="1171" d="M545 670Q578 670 608 662T682 627T751 533T778 365Q778 180 716 109T545 37Q444 37 372 108T299 350Q299 514 376 592T545 670ZM545 735Q510 735 477 745T407 783T346 875T322 1034Q322 1194 381
1275T543 1356Q637 1356 685 1277T733 1059Q733 932 690 834T545 735ZM383 709V694Q373 692 355 687T289 657T207 597T143 498T113 350Q113 250 157 173T269 54T407 -8T543 -29Q705 -29 835 71T965 369Q965 590 782 674Q719 696 719 696V709Q754 725 788 753T850
818T898 918T920 1059Q920 1151 890 1220T819 1327T723 1386T627 1415T547 1421Q518 1421 481 1417T379 1391T263 1331T174 1217T135 1036Q135 819 319 731Q383 709 383 709ZM72 350Q72 596 285 702Q94 803 94 1036Q94 1151 136 1236T233 1362T361 1427T474 1457T547
1462Q1061 1462 1061 1059Q1061 831 881 711Q1106 608 1106 369Q1106 147 943 39T543 -70Q473 -70 396 -48T244 21T120 154T72 350ZM737 365Q737 594 586 625Q526 608 483 542T440 350Q440 109 584 80Q737 106 737 365ZM692 1059Q692 1278 580 1309Q463 1276 463
1034Q463 817 578 780Q692 815 692 1059Z" />
<glyph unicode="9" glyph-name="nine" horiz-adv-x="1171" d="M0 -430L25 -469Q220 -401 290 -366T435 -287T572 -195Q650 -138 721 -65T846 95T933 283T965 497Q965 595 944 669T888 796T806 886T709 943T609 972T516 981Q427 981 344 949T196 855T92 705T53
506Q53 387 94 303T212 166T395 88T633 63Q405 -234 0 -430ZM250 506Q250 627 276 714T347 842T432 899T518 915Q641 915 710 816T780 537Q780 248 672 135Q436 137 344 225T250 506ZM78 -516H6L-61 -414Q334 -223 549 25Q12 57 12 506Q12 745 164 883T516 1022Q629
1022 724 1000T910 922T1053 759T1106 498Q1106 348 1050 211T902 -25T702 -210T482 -353T78 -516ZM391 506Q393 350 450 274T655 180Q739 293 739 537Q739 680 690 767T555 870Q391 829 391 506Z" />
<glyph unicode=":" glyph-name="colon" horiz-adv-x="684" d="M221 184Q202 165 193 143T184 96Q184 71 194 49T221 9T261 -19T309 -29Q334 -29 356 -19T396 8T424 48T434 96Q434 121 424 143T397 183T357 211T309 221Q285 221 262 212T221 184ZM309 262Q353 262
396 257T472 233T526 183T547 96Q547 45 531 13T483 -37T408 -63T309 -70Q275 -70 245 -57T193 -22T157 31T143 96Q143 131 156 161T191 214T244 249T309 262ZM221 866Q184 832 184 778Q184 751 194 729T221 689T261 663T309 653Q334 653 356 662T396 689T423 728T434
778Q434 805 424 827T396 867T357 893T309 903Q285 903 263 894T221 866ZM309 944Q354 944 396 939T472 915T526 865T547 778Q547 727 531 695T483 645T408 619T309 612Q274 612 244 625T192 660T156 713T143 778Q143 813 156 843T191 896T244 931T309 944Z" />
<glyph unicode=";" glyph-name="semicolon" horiz-adv-x="684" d="M184 -217L236 -262Q275 -237 311 -197T374 -109T417 -11T434 86Q434 158 396 189T301 221Q277 221 256 211T218 183T193 143T184 98Q184 -20 313 -20L318 -27Q293 -123 184 -217ZM305 -313H233L123
-217Q181 -168 216 -128T266 -57Q143 -39 143 98Q143 130 155 159T188 212T238 248T301 262Q426 262 486 222T547 86Q547 36 527 -21T474 -133T397 -235T305 -313ZM221 866Q184 832 184 778Q184 751 194 729T221 689T261 663T309 653Q334 653 356 662T396 689T423
728T434 778Q434 805 424 827T396 867T357 893T309 903Q285 903 263 894T221 866ZM309 944Q354 944 396 939T472 915T526 865T547 778Q547 727 531 695T483 645T408 619T309 612Q274 612 244 625T192 660T156 713T143 778Q143 813 156 843T191 896T244 931T309
944Z" />
<glyph unicode="&lt;" glyph-name="less" horiz-adv-x="1669" d="M1419 307L473 715L1419 1118L1370 1227L184 713L1370 199L1419 307ZM649 715L1546 328L1462 145H1391L82 713L1391 1280H1462L1546 1098L649 715Z" />
<glyph unicode="=" glyph-name="equal" horiz-adv-x="1571" d="M184 838H1321V952H184V838ZM184 469H1321V584H184V469ZM1434 428H143V625H1434V428ZM1434 797H143V993H1434V797Z" />
<glyph unicode="&gt;" glyph-name="greater" horiz-adv-x="1669" d="M1130 715L184 307L233 199L1419 713L233 1227L184 1118L1130 715ZM129 328L1028 715L129 1098L213 1280H285L1593 713L285 145H213L129 328Z" />
<glyph unicode="?" glyph-name="question" horiz-adv-x="1137" d="M375 242Q600 242 600 78Q600 -86 375 -86Q342 -86 312 -73T260 -38T224 13T211 77Q211 111 224 141T259 193T312 229T375 242ZM283 164Q252 130 252 78Q252 52 260 30T283 -9T317 -35T360 -45Q383
-45 403 -35T437 -8T460 31T469 78Q469 103 461 125T438 164T403 191T360 201Q314 201 283 164ZM496 1544Q702 1544 840 1447T979 1174Q979 1067 930 984T811 845T672 736T553 615T504 459V307H272V489Q272 592 306 671T387 801T481 902T562 1026T596 1196Q596
1268 561 1322T449 1386Q352 1386 315 1333Q369 1296 369 1223Q369 1159 326 1115T215 1071Q139 1071 95 1113T51 1235Q51 1352 168 1448T496 1544ZM424 1503Q289 1503 195 1427T100 1241Q100 1182 135 1149T223 1116Q238 1143 223 1163Q172 1178 172 1233Q172
1321 236 1375T422 1430Q535 1430 586 1360T637 1196Q637 1098 603 1022T522 895T428 792T347 664T313 489V348H362V459Q362 543 411 614T530 740T669 852T788 991T838 1174Q838 1348 724 1425T424 1503Z" />
<glyph unicode="@" glyph-name="at" horiz-adv-x="2144" d="M1104 348L1225 770Q1205 872 1124 899Q1089 887 1056 850T994 757T944 630T912 478Q909 460 909 440Q909 411 913 383T925 330T948 288T983 262Q1054 278 1104 348ZM1266 770L1141 330Q1095 269 1045
243T932 217Q884 217 853 234T802 277T776 337T768 402Q768 510 792 608T860 782T961 901T1087 946Q1120 946 1149 933T1202 897T1241 842T1266 770ZM1317 487L1470 971L1446 969L1317 874Q1268 946 1204 976T1092 1006Q885 1006 749 856T612 498Q612 332 699 241T907
150Q1051 150 1155 248Q1212 123 1382 123Q1460 123 1546 160T1712 265T1843 454T1894 723Q1894 1047 1668 1274T1090 1501Q678 1501 417 1238T156 578Q156 346 266 145T597 -186T1104 -315Q1260 -315 1374 -273T1628 -129L1569 -29Q1479 -113 1347 -160T1094 -207Q909
-207 750 -142T483 34T314 288T252 588Q252 733 305 875T457 1137T722 1331T1090 1405Q1399 1405 1600 1210T1802 723Q1802 590 1757 487T1646 329T1517 248T1403 221Q1235 221 1317 487ZM1122 1542Q1507 1542 1771 1302T2036 723Q2036 563 1977 436T1820 235T1610
121T1382 82Q1245 82 1171 154Q1094 109 907 109Q770 109 671 211T571 498Q571 723 719 885T1092 1047Q1280 1047 1368 963L1434 1010H1626Q1442 432 1439 421T1431 389T1424 353T1424 321T1432 290T1452 268Q1501 279 1551 309T1651 392T1730 530T1761 723Q1761
989 1581 1170T1120 1362Q944 1354 802 1282T572 1098T439 854T393 588Q393 291 599 71T1128 -164Q1239 -156 1362 -104T1579 37H1651L1753 -141Q1589 -262 1453 -309T1104 -356Q879 -356 690 -278T376 -68T184 230T115 578Q115 995 393 1268T1122 1542Z" />
<glyph unicode="A" glyph-name="A" horiz-adv-x="1757" d="M1687 41Q1631 44 1579 49T1483 65T1411 91T1372 133L819 1499Q802 1498 786 1485Q779 1361 710 1286L733 1227L311 166Q271 66 65 41Q59 27 59 16Q59 4 65 -8Q179 -4 248 -2T344 0Q367 0 448 -2T670
-8Q676 4 676 16Q676 27 670 41Q587 49 535 58T454 79T415 103T405 134Q405 145 409 156L555 522Q666 524 734 525T829 526Q886 526 930 526T1007 524L1152 156Q1157 141 1157 133Q1157 106 1130 85T1062 56L954 41Q948 27 948 16Q948 4 954 -8Q1039 -5 1126 -3T1306
-1Q1398 -1 1492 -3T1687 -8Q1694 6 1694 16Q1694 22 1692 28T1687 41ZM829 604Q684 604 590 608L780 1098H784L975 606Q921 604 829 604ZM782 993L649 647Q770 641 915 645L782 993ZM1718 78Q1743 18 1716 -49H923Q899 20 923 78Q1032 84 1077 100T1108 154L977
485Q792 492 581 481L452 150Q446 133 461 120T512 98T594 85T700 78Q725 18 698 -49Q370 -37 37 -49Q10 18 35 78Q241 102 268 168L690 1229Q686 1237 675 1265T661 1303Q739 1382 747 1507Q835 1550 954 1556L1515 164Q1534 117 1575 102T1718 78Z" />
<glyph unicode="B" glyph-name="B" horiz-adv-x="1587" d="M518 829L530 1399Q614 1405 657 1405Q799 1405 883 1342T967 1141Q967 829 518 829ZM528 68L518 768Q598 774 674 774Q889 774 1016 695T1143 446Q1143 346 1106 275T1014 164T870 103T707 74T528 68ZM682
111Q772 117 840 132T971 182T1068 283T1102 446Q1102 549 1032 619T867 715T672 731L682 111ZM682 1362L674 877Q926 915 926 1141Q926 1348 682 1362ZM104 -6Q299 0 569 0Q659 0 731 4T903 21T1078 66T1222 145T1329 270T1366 451Q1366 608 1243 708T940 838V846Q1057
883 1128 956T1200 1141Q1200 1470 700 1470Q661 1470 569 1466T366 1462T106 1470Q98 1452 106 1423Q336 1401 338 1327Q348 1092 348 768Q348 451 336 137Q334 63 104 41Q96 25 104 -6ZM78 1513Q223 1507 352 1507T604 1509T772 1511Q856 1511 924 1505T1077
1477T1218 1416T1315 1308T1354 1141Q1354 963 1157 854Q1319 807 1419 704T1520 451Q1520 354 1487 278T1403 151T1273 64T1121 8T953 -23T791 -38T641 -41Q403 -41 76 -49Q51 20 76 80Q293 102 295 139Q307 453 307 768Q307 1090 297 1325Q295 1362 74 1384Q57
1448 78 1513Z" />
<glyph unicode="C" glyph-name="C" horiz-adv-x="1659" d="M911 -41Q1063 -41 1222 28T1475 233Q1475 246 1464 255T1438 264Q1288 82 997 82Q690 82 534 267T377 729Q377 854 404 970T490 1193T657 1366T911 1432Q1010 1432 1094 1401T1232 1328T1337 1216T1415
1094T1479 963Q1509 967 1516 985Q1442 1282 1293 1392T911 1503Q817 1503 719 1481T518 1401T335 1259T205 1037T154 729T205 422T335 201T517 61T719 -18T911 -41ZM1454 918Q1411 1014 1375 1076T1279 1216T1136 1337T950 1389Q836 1380 751 1317T620 1154T552
949T530 729Q530 477 657 306T1036 123Q1280 135 1419 305Q1458 305 1487 280T1516 219Q1415 72 1243 -5T911 -82Q811 -82 709 -59T497 24T303 173T166 406T113 729Q113 915 168 1061T309 1296T510 1442T733 1522T952 1544Q1102 1544 1278 1504T1530 1454Q1497
1325 1504 1228T1561 989Q1532 930 1454 918Z" />
<glyph unicode="D" glyph-name="D" horiz-adv-x="1827" d="M530 1386Q639 1399 760 1399Q893 1399 998 1357T1169 1250T1277 1095T1335 919T1352 739Q1352 436 1182 254T692 72L528 74Q518 489 518 694Q518 1065 530 1386ZM745 -41Q410 -41 76 -49Q51 20 76 80Q293
102 295 139Q307 453 307 768Q307 1090 297 1325Q295 1362 74 1384Q57 1448 78 1513Q201 1511 844 1511Q983 1511 1099 1494T1337 1426T1541 1291T1676 1067T1728 737Q1728 557 1667 418T1508 194T1276 55T1014 -20T745 -41ZM684 1350Q672 999 672 694Q672 446
680 113Q995 121 1153 290T1311 739Q1311 848 1285 947T1202 1141T1036 1293T778 1356Q729 1356 684 1350ZM104 -6Q319 0 674 0Q801 0 919 19T1160 91T1371 223T1517 436T1575 739Q1575 1470 772 1470Q698 1470 562 1467T316 1464T106 1470Q98 1452 106 1423Q336
1401 338 1327Q348 1092 348 768Q348 451 336 137Q334 63 104 41Q94 18 104 -6Z" />
<glyph unicode="E" glyph-name="E" horiz-adv-x="1714" d="M956 1462H453Q328 1462 102 1470V1423Q332 1401 334 1327Q344 1092 344 768Q344 451 332 137Q330 63 100 41Q96 6 100 -6Q293 0 997 0Q1243 0 1367 84T1591 373Q1583 389 1556 399Q1374 61 885 61H524Q514
498 514 700L840 702Q883 702 920 688T980 660T1033 604T1075 545T1117 468T1157 393Q1188 406 1196 420Q1096 590 1096 733Q1096 795 1124 884T1196 1047Q1188 1061 1157 1073Q1149 1059 1126 1013T1095 954T1066 904T1032 856T997 821T952 789T901 773T840 766Q625
766 514 770Q514 1012 526 1401H844Q1333 1401 1515 1063Q1542 1073 1550 1090Q1450 1294 1326 1378T956 1462ZM1094 1040L1137 1124Q1221 1094 1243 1047Q1198 969 1168 879T1137 733Q1137 600 1243 420Q1219 369 1141 342Q1104 403 1087 436Q1046 504 1023 537T952
605T848 641H668Q668 420 676 102H883Q1137 102 1296 201T1538 451Q1622 420 1644 373Q1513 156 1489 -41H659Q264 -41 72 -47Q51 18 70 80Q289 102 291 139Q303 453 303 768Q303 1090 293 1325Q291 1362 70 1384Q51 1454 74 1513Q381 1503 481 1503H1448Q1472
1307 1604 1090Q1581 1042 1497 1012Q1415 1161 1256 1260T842 1360H678Q668 1001 668 809Q731 807 850 807Q934 807 984 863T1094 1040Z" />
<glyph unicode="F" glyph-name="F" horiz-adv-x="1610" d="M811 641H672Q672 403 682 137Q682 131 687 126T701 116T734 103T827 86T907 74Q924 18 901 -49Q532 -41 453 -41Q399 -41 76 -49Q51 20 76 80Q293 102 295 139Q307 389 307 768Q307 1090 297 1325Q295
1362 74 1384Q55 1454 78 1513Q385 1503 485 1503H1411Q1436 1307 1567 1090Q1544 1042 1460 1012Q1378 1161 1219 1260T805 1360H682Q672 1001 672 809Q721 807 813 807Q897 807 947 863T1057 1040L1100 1124Q1184 1094 1206 1047Q1100 856 1100 733Q1100 600
1206 420Q1182 369 1104 342Q1081 373 1051 436Q1010 504 986 537T915 605T811 641ZM518 700L803 702Q846 702 884 688T944 660T996 604T1038 545T1080 468T1120 393Q1151 406 1159 420Q1059 598 1059 733Q1059 795 1087 884T1159 1047Q1155 1061 1120 1073Q1112
1059 1089 1013T1058 954T1030 904T996 856T960 821T915 789T864 773T803 766Q616 766 518 770Q518 1012 530 1401H807Q1296 1401 1479 1063Q1505 1073 1513 1090Q1413 1294 1289 1378T919 1462H457Q332 1462 106 1470V1423Q336 1401 338 1327Q348 1092 348 768Q348
451 336 137Q334 63 104 41Q96 25 104 -6Q274 0 453 0Q666 0 862 -6Q870 10 862 41Q532 61 528 137Q518 373 518 700Z" />
<glyph unicode="G" glyph-name="G" horiz-adv-x="1843" d="M932 1503Q836 1503 738 1483T532 1407T342 1268T207 1045T154 729T207 414T342 192T531 55T737 -20T932 -41Q1083 -41 1203 -13T1475 76Q1430 199 1430 387V535Q1430 608 1763 631Q1774 655 1763 678Q1501
670 1354 670Q1231 670 1006 678Q999 655 1006 631Q1237 608 1237 535V129Q1151 31 932 31Q815 31 719 74T561 187T456 351T396 538T377 729Q377 852 407 969T500 1193T674 1366T932 1432Q1030 1432 1114 1401T1252 1328T1358 1216T1435 1094T1499 963Q1530 967
1536 985Q1462 1282 1313 1392T932 1503ZM1475 918Q1432 1014 1396 1076T1300 1216T1156 1337T971 1389Q854 1382 765 1319T627 1156T554 950T530 729Q530 573 572 431T719 181T979 72Q1122 72 1196 145V535Q1196 569 973 592Q946 662 977 721Q1276 707 1804 715Q1827
655 1806 592Q1583 569 1583 535V387Q1583 205 1640 51Q1499 -2 1431 -22T1232 -62T932 -82Q829 -82 726 -61T510 18T311 163T169 396T113 729T168 1061T308 1296T504 1442T718 1522T924 1544Q1090 1544 1292 1502T1550 1454Q1518 1325 1525 1228T1581 989Q1552
930 1475 918Z" />
<glyph unicode="H" glyph-name="H" horiz-adv-x="1872" d="M1249 137Q1249 63 1018 41Q1010 25 1018 -6Q1188 0 1366 0Q1579 0 1776 -6Q1784 12 1776 41Q1444 61 1442 137Q1431 385 1431 731Q1431 1079 1442 1327Q1444 1403 1776 1423Q1786 1448 1776 1470Q1513
1462 1366 1462Q1243 1462 1018 1470Q1012 1446 1018 1423Q1247 1401 1249 1327Q1255 1143 1259 772Q1075 766 911 766Q637 766 514 770Q514 1106 526 1327Q528 1403 860 1423Q866 1442 860 1470Q598 1462 450 1462Q328 1462 102 1470Q94 1452 102 1423Q332 1401
334 1327Q344 1092 344 768Q344 451 332 137Q330 63 100 41Q92 25 100 -6Q270 0 448 0Q661 0 858 -6Q866 10 858 41Q526 61 524 137Q514 438 514 700Q760 705 911 705Q1075 705 1259 698Q1257 475 1249 137ZM1208 137Q1216 535 1218 639Q1022 643 911 643Q825 643
751 642T668 641Q668 410 678 139Q678 133 682 127T696 117T716 109T743 100T773 93T806 87T839 82T873 78T903 74Q919 18 897 -49Q528 -41 448 -41Q395 -41 72 -49Q47 20 72 80Q289 102 291 139Q303 453 303 768Q303 1090 293 1325Q291 1362 70 1384Q53 1448 74
1513Q162 1513 312 1508T522 1503Q565 1503 688 1505T901 1507Q919 1450 903 1384Q682 1362 680 1325Q668 1049 668 809Q764 803 911 807L1218 811Q1214 1137 1208 1325Q1206 1362 985 1384Q967 1454 989 1513Q1134 1503 1382 1503Q1429 1503 1573 1505T1816 1507Q1835
1450 1819 1384Q1597 1362 1595 1325Q1585 1077 1585 731Q1585 387 1595 139Q1597 102 1819 80Q1835 16 1814 -49Q1491 -41 1438 -41Q1358 -41 989 -49Q965 20 989 80Q1208 102 1208 137Z" />
<glyph unicode="I" glyph-name="I" horiz-adv-x="956" d="M528 137Q520 555 520 768Q520 1014 530 1327Q532 1403 864 1423Q870 1442 864 1470Q602 1462 455 1462Q332 1462 106 1470Q98 1452 106 1423Q336 1401 338 1327Q348 1092 348 768Q348 451 336 137Q334
63 104 41Q96 25 104 -6Q274 0 453 0Q666 0 862 -6Q870 10 862 41Q530 61 528 137ZM74 1384Q57 1450 78 1513Q166 1513 316 1508T526 1503Q569 1503 692 1505T905 1507Q924 1450 907 1384Q686 1362 684 1325Q672 1075 672 694Q672 326 682 139Q682 133 687 127T701
117T721 109T748 100T778 93T810 87T843 82T877 78T907 74Q924 18 901 -49Q532 -41 453 -41Q399 -41 76 -49Q51 20 76 80Q293 102 295 139Q307 389 307 768Q307 1090 297 1325Q295 1362 74 1384Z" />
<glyph unicode="J" glyph-name="J" horiz-adv-x="1012" d="M563 768Q563 1014 573 1327Q575 1403 907 1423Q913 1442 907 1470Q645 1462 498 1462Q375 1462 150 1470Q141 1452 150 1423Q379 1401 381 1327Q391 1092 391 768V55Q391 -236 349 -352T174 -469Q78
-469 27 -417T-25 -297Q-25 -244 2 -213T66 -182Q100 -182 125 -207Q150 -201 158 -172Q121 -119 49 -119T-67 -165T-111 -293Q-111 -389 -36 -460T174 -532Q229 -532 274 -520T356 -481T421 -419T470 -327T507 -212T532 -68T549 99T558 297T562 517T563 768ZM199
-573Q27 -573 -61 -492T-152 -293Q-154 -190 -94 -133T47 -76Q123 -76 178 -127T233 -268Q233 -307 221 -333T195 -375T178 -397Q186 -416 213 -424Q297 -406 323 -297T350 55V768Q350 1090 340 1325Q338 1362 117 1384Q100 1450 121 1513Q297 1503 569 1503Q610
1503 733 1505T948 1507Q967 1450 950 1384Q729 1362 727 1325Q715 1075 715 694Q715 532 711 408T694 146T658 -92T596 -288T503 -442T372 -537T199 -573Z" />
<glyph unicode="K" glyph-name="K" horiz-adv-x="1743" d="M1616 1470Q1341 1462 1280 1462Q1208 1462 983 1470Q977 1448 983 1423Q1087 1417 1127 1405T1167 1356Q1167 1338 1155 1327L588 780H518Q518 1053 530 1327Q532 1403 864 1423Q870 1442 864 1470Q602
1462 455 1462Q332 1462 106 1470Q98 1452 106 1423Q336 1401 338 1327Q348 1092 348 768Q348 451 336 137Q334 63 104 41Q96 25 104 -6Q274 0 453 0Q666 0 862 -6Q870 10 862 41Q530 61 528 137Q518 449 518 694L598 696L1085 190Q1139 133 1139 109Q1139 74 1107
59T979 41Q971 10 979 -6V-8Q1200 0 1358 0Q1589 0 1730 -6Q1737 16 1730 41Q1497 49 1356 190L739 815L1278 1327Q1331 1364 1396 1385T1504 1412T1616 1423Q1622 1448 1616 1470ZM1669 1384Q1429 1368 1325 1296L866 858L1495 221Q1636 80 1776 74Q1792 8 1776
-49Q1505 -33 950 -49Q930 8 944 74Q1098 78 1098 109Q1098 119 672 561Q672 375 682 139Q682 133 687 127T701 117T721 109T748 100T778 93T810 87T843 82T877 78T907 74Q922 8 901 -49Q532 -41 453 -41Q399 -41 76 -49Q51 20 76 80Q293 102 295 139Q307 389 307
768Q307 1090 297 1325Q295 1362 74 1384Q57 1450 78 1513Q166 1513 316 1508T526 1503Q569 1503 686 1505T893 1507Q911 1450 895 1384Q686 1364 684 1325Q674 1118 672 918L1126 1356Q1126 1372 956 1384Q936 1452 958 1511Q1321 1495 1669 1507Q1685 1450 1669
1384Z" />
<glyph unicode="L" glyph-name="L" horiz-adv-x="1704" d="M516 768Q516 1014 526 1327Q528 1403 860 1423Q866 1442 860 1470Q598 1462 451 1462Q328 1462 102 1470Q94 1452 102 1423Q332 1401 334 1327Q344 1092 344 768Q344 451 332 137Q330 63 100 41Q94 16
100 -6Q293 0 997 0Q1237 0 1357 90T1581 393Q1573 410 1546 420Q1507 348 1460 292T1336 180T1145 92T885 61H524Q516 412 516 768ZM668 694Q668 420 676 102H883Q1327 102 1528 471Q1612 440 1634 393Q1491 156 1466 -41H659Q264 -41 72 -47Q51 18 70 80Q289
102 291 139Q303 453 303 768Q303 1090 293 1325Q291 1362 70 1384Q53 1450 74 1513Q248 1503 522 1503Q563 1503 686 1505T901 1507Q920 1450 903 1384Q682 1362 680 1325Q668 1075 668 694Z" />
<glyph unicode="M" glyph-name="M" horiz-adv-x="2015" d="M315 152Q311 61 94 41Q86 25 94 -6Q283 0 362 0Q487 0 647 -6Q655 25 647 41Q428 61 426 152Q416 463 416 694Q416 1010 424 1253H434L922 25H932L1388 1229H1397Q1407 928 1407 694Q1407 369 1397 139Q1395
113 1374 95T1310 66T1239 51T1165 43Q1157 27 1165 -4Q1335 2 1513 2Q1726 2 1923 -4Q1931 14 1923 43Q1591 63 1589 137Q1577 451 1577 768Q1577 1075 1585 1327Q1587 1401 1919 1421Q1927 1450 1919 1468Q1722 1462 1395 1462L969 350L559 1462Q315 1462 127
1470Q117 1450 127 1432Q246 1415 282 1383T321 1233Q328 987 328 768Q328 465 315 152ZM274 152Q287 467 287 768Q287 987 280 1233Q278 1325 245 1351T100 1393Q72 1454 102 1513Q332 1503 700 1503L1028 627L1366 1503Q1634 1503 1958 1511Q1978 1446 1962 1382Q1741
1360 1739 1323Q1730 1135 1730 768Q1730 389 1743 141Q1745 104 1966 82Q1982 18 1962 -47Q1638 -39 1585 -39Q1505 -39 1137 -47Q1112 23 1137 82Q1354 104 1356 139Q1366 373 1366 694Q1366 944 1364 1061L960 -16H893L457 1083V694Q457 463 467 152Q469 98
686 80Q711 20 686 -49Q387 -37 65 -49Q41 20 65 80Q272 100 274 152Z" />
<glyph unicode="N" glyph-name="N" horiz-adv-x="1810" d="M1294 639V770Q1294 1001 1284 1313Q1282 1366 1065 1384Q1051 1419 1051 1448Q1051 1466 1065 1509Q1217 1503 1370 1503T1686 1509Q1700 1466 1700 1448Q1700 1419 1686 1384Q1479 1364 1477 1313Q1464
1102 1464 696Q1464 238 1477 -45L1395 -47L446 1114Q446 1096 445 1049T444 975Q444 492 457 152Q459 98 676 80Q690 45 690 16Q690 -6 676 -49Q522 -43 371 -43Q217 -43 55 -49Q41 -6 41 16Q41 45 55 80Q262 100 264 152Q276 362 276 768Q276 1079 268 1323Q203
1374 70 1384Q55 1411 55 1446Q55 1483 74 1513Q283 1503 602 1503L1294 639ZM1423 696Q1423 999 1436 1313Q1440 1403 1657 1423Q1665 1440 1657 1470Q1468 1464 1389 1464Q1264 1464 1104 1470Q1096 1440 1104 1423Q1323 1403 1325 1313Q1335 1001 1335 770Q1335
635 1331 406L469 1462Q244 1462 96 1470Q88 1446 96 1423Q225 1415 309 1341Q317 1098 317 768Q317 465 305 152Q301 61 84 41Q76 25 84 -6Q272 0 352 0Q477 0 637 -6Q645 25 637 41Q418 61 416 152Q406 463 406 694Q406 958 412 1217H422L1415 -6L1434 -4Q1423
231 1423 696Z" />
<glyph unicode="O" glyph-name="O" horiz-adv-x="1888" d="M946 1389Q869 1383 808 1352T701 1272T623 1159T570 1024T540 878T530 729Q530 656 539 581T570 434T623 300T702 189T809 110T946 74Q1024 80 1085 110T1192 189T1271 301T1324 435T1354 581T1364 729Q1364
802 1355 877T1325 1024T1272 1159T1193 1272T1085 1352T946 1389ZM911 31Q812 31 734 60T597 140T496 259T428 404T389 565T377 729Q377 809 389 892T427 1054T495 1201T596 1321T733 1402T911 1432Q1002 1432 1074 1403T1200 1322T1294 1201T1357 1054T1393 893T1405
729Q1405 649 1394 567T1359 407T1296 261T1202 141T1075 61T911 31ZM911 -41Q980 -41 1060 -27T1219 21T1373 112T1503 254T1594 457T1628 729Q1628 880 1595 996T1505 1199T1376 1343T1223 1436T1063 1487T911 1503Q842 1503 759 1490T592 1443T429 1352T289
1209T191 1005T154 729Q154 577 189 461T284 260T420 117T582 24T751 -26T911 -41ZM946 -86Q745 -86 590 -28T329 137T168 394T113 729Q113 913 168 1063T329 1320T590 1485T946 1544Q1135 1544 1289 1490T1553 1333T1722 1077T1782 729Q1782 532 1723 381T1554
125T1290 -32T946 -86Z" />
<glyph unicode="P" glyph-name="P" horiz-adv-x="1419" d="M532 1401Q614 1405 649 1405Q1014 1405 1014 1036Q1014 877 943 786T731 694Q625 694 526 731Q526 1040 532 1401ZM295 139Q307 389 307 768Q307 1090 297 1325Q295 1362 74 1384Q57 1450 78 1513Q184
1509 306 1508T586 1509T819 1511Q1096 1511 1241 1381T1386 1034Q1386 815 1226 691T809 567Q737 567 680 580Q680 297 686 137Q686 131 700 121T743 102T836 85T911 74Q928 18 905 -49Q536 -41 457 -41Q399 -41 76 -49Q51 20 76 80Q293 102 295 139ZM973 1036Q973
1346 684 1362Q680 1141 680 756Q717 739 760 735Q864 745 918 825T973 1036ZM336 137Q334 63 104 41Q96 25 104 -6Q274 0 457 0Q670 0 866 -6Q874 10 866 41Q534 61 532 137Q526 420 526 664Q651 608 809 608Q1012 608 1122 727T1233 1034Q1233 1231 1108 1350T747
1470Q674 1470 542 1467T306 1464T106 1470Q98 1452 106 1423Q151 1419 180 1415T251 1401T314 1373T338 1327Q348 1092 348 768Q348 451 336 137Z" />
<glyph unicode="Q" glyph-name="Q" horiz-adv-x="1888" d="M911 31Q810 31 731 61T593 143T493 264T426 410T389 570T377 729Q377 809 389 892T427 1054T495 1201T596 1321T733 1402T911 1432Q1002 1432 1074 1403T1200 1322T1294 1201T1357 1054T1393 893T1405
729Q1405 649 1394 567T1359 407T1296 261T1202 141T1075 61T911 31ZM946 1389Q869 1383 808 1352T701 1272T623 1159T570 1024T540 878T530 729Q530 656 539 581T570 434T623 300T702 189T809 110T946 74Q1024 80 1085 110T1192 189T1271 301T1324 435T1354 581T1364
729Q1364 802 1355 877T1325 1024T1272 1159T1193 1272T1085 1352T946 1389ZM1714 -406Q1731 -461 1708 -528Q1356 -528 1117 -427T729 -66Q610 -43 508 8T313 149T166 388T113 729Q113 915 167 1061T304 1296T496 1442T707 1522T911 1544Q1096 1544 1249 1497T1525
1354T1714 1098T1782 729Q1782 553 1736 413T1609 181T1434 35T1227 -51Q1280 -160 1385 -246T1714 -406ZM1683 -440Q1556 -401 1460 -348T1303 -232T1208 -120T1141 -8Q1217 18 1277 51T1406 143T1521 278T1597 470T1628 729Q1628 905 1580 1044T1457 1268T1283
1407T1093 1482T911 1503Q815 1503 719 1483T519 1407T335 1268T205 1045T154 729Q154 389 355 178T899 -41Q995 -233 1203 -356T1681 -487Q1692 -461 1683 -440Z" />
<glyph unicode="R" glyph-name="R" horiz-adv-x="1659" d="M528 1401H530Q592 1405 690 1405Q842 1405 922 1311T1003 1067Q1003 915 930 804T700 692Q608 692 518 715Q518 1067 528 1401ZM962 1067Q962 1196 885 1284T680 1362Q672 977 672 745Q692 739 733 735Q850
748 906 845T962 1067ZM336 137Q334 63 104 41Q96 25 104 -6Q274 0 453 0Q666 0 862 -6Q870 10 862 41Q530 61 528 137Q518 418 518 639Q631 616 727 616Q891 311 1159 0Q1210 0 1306 -1T1480 -3T1628 -6Q1636 12 1628 41Q1464 53 1352 121T1089 375Q987 504 905
647Q1053 696 1138 810T1223 1067Q1223 1247 1107 1358T786 1470Q110 1462 106 1470Q100 1446 106 1423Q336 1401 338 1327Q348 1092 348 768Q348 451 336 137ZM295 139Q307 389 307 768Q307 1090 297 1325Q295 1362 74 1384Q57 1450 78 1513Q188 1507 317 1507T613
1509T858 1511Q1100 1511 1238 1389T1376 1067Q1376 926 1295 807T1077 627Q1145 516 1235 399Q1341 258 1443 175T1671 80Q1687 16 1667 -49Q1524 -45 1141 -41Q860 287 702 575H672Q672 389 682 139Q682 133 687 127T726 108T829 86T907 74Q924 18 901 -49Q532
-41 453 -41Q399 -41 76 -49Q51 20 76 80Q293 102 295 139Z" />
<glyph unicode="S" glyph-name="S" horiz-adv-x="1391" d="M678 1544Q821 1544 941 1504T1157 1452Q1104 1266 1153 1051Q1102 1008 1036 1001Q1028 1020 1008 1080T969 1180T918 1269T832 1348T709 1389Q608 1380 553 1327T498 1190Q498 1104 542 1049T656 966T812
918T981 868T1135 791T1250 649T1294 420Q1294 256 1199 138T975 -31T711 -82Q414 -82 123 49Q129 178 129 207Q129 369 98 555Q188 598 299 559Q336 332 442 211T676 76Q795 84 859 153T924 330Q924 420 882 482T771 579T622 642T459 701T309 777T198 900T156
1092Q156 1194 188 1275T273 1405T396 1487T536 1532T678 1544ZM678 1503Q594 1503 515 1484T362 1420T242 1291T197 1092Q197 991 239 919T349 806T500 736T662 674T812 604T923 496T965 330Q965 197 880 115T639 33Q489 33 360 158T190 532Q170 545 143 532Q170
375 170 207Q170 160 166 74Q414 -41 639 -41Q825 -41 983 69T1141 379Q1141 492 1097 570T982 693T826 769T657 829T503 893T388 992T344 1149Q344 1278 431 1355T678 1432Q956 1432 1061 1047Q1092 1042 1104 1061Q1071 1305 960 1404T678 1503Z" />
<glyph unicode="T" glyph-name="T" horiz-adv-x="1735" d="M84 1012Q8 1042 -16 1090Q41 1198 60 1235T105 1348T141 1503H834H1667Q1692 1307 1823 1090Q1800 1042 1716 1012Q1634 1161 1475 1260T1061 1360Q1053 1112 1053 772Q1053 338 1063 139Q1065 102 1286
80Q1303 16 1282 -49Q958 -41 905 -41Q825 -41 457 -49Q432 20 457 80Q674 102 676 137Q686 389 686 772Q686 1092 678 1354Q262 1300 84 1012ZM367 1395L717 1405Q727 1073 727 772Q727 385 717 137Q715 63 485 41Q477 25 485 -6Q655 0 834 0Q1047 0 1243 -6Q1251
12 1243 41Q911 61 909 137Q899 469 899 772Q899 1157 909 1405L1063 1401Q1561 1389 1735 1063Q1761 1073 1769 1090Q1669 1294 1545 1378T1176 1462H834Q725 1462 505 1463T178 1464Q174 1430 164 1393T146 1331T118 1263T91 1207T60 1144T31 1090Q39 1073 66
1063Q137 1180 176 1236T268 1343T367 1395Z" />
<glyph unicode="U" glyph-name="U" horiz-adv-x="1874" d="M252 1327Q250 1364 29 1386Q20 1417 20 1446Q20 1479 33 1516Q121 1516 271 1511T481 1505Q524 1505 647 1507T860 1509Q870 1479 870 1448Q870 1419 862 1386Q641 1364 639 1327Q635 1257 635 596Q635
344 714 224T977 94Q1171 106 1276 235T1382 596Q1382 1071 1376 1311Q1374 1360 1161 1391Q1153 1415 1153 1440Q1153 1470 1167 1511Q1450 1503 1505 1503Q1612 1503 1778 1509Q1792 1466 1792 1446Q1792 1415 1778 1384Q1571 1364 1569 1311Q1559 1118 1559
596Q1559 440 1518 319T1414 123T1266 1T1104 -64T946 -82Q786 -82 670 -54T457 47T311 256T262 596Q262 1085 252 1327ZM485 1329Q487 1405 819 1425Q825 1444 819 1473Q557 1464 410 1464Q287 1464 61 1473Q53 1454 61 1425Q106 1421 135 1417T206 1403T270 1374T293
1327Q303 1010 303 596Q303 406 349 277T486 80T686 -14T946 -41Q1020 -41 1093 -25T1245 37T1382 151T1480 336T1518 596Q1518 1075 1528 1313Q1532 1401 1749 1421Q1757 1438 1749 1468Q1561 1462 1481 1462Q1356 1462 1196 1468Q1188 1452 1196 1421Q1415 1401
1417 1313Q1423 1073 1423 596Q1423 334 1299 194T942 53Q690 53 586 182T481 596Q481 1194 485 1329Z" />
<glyph unicode="V" glyph-name="V" horiz-adv-x="1710" d="M1709 1384Q1609 1376 1551 1360T1473 1298L923 -70H820L228 1284Q191 1366 -3 1384Q-20 1450 1 1513Q464 1499 804 1509Q824 1452 804 1382Q675 1372 642 1360T623 1311L966 514L1283 1311Q1289 1327
1275 1339T1227 1360T1159 1373T1076 1382Q1060 1448 1080 1511Q1410 1499 1705 1513Q1725 1450 1709 1384ZM1676 1423Q1684 1452 1676 1470Q1545 1464 1408 1464Q1277 1464 1111 1470Q1103 1452 1111 1423Q1156 1419 1186 1415T1261 1400T1322 1366T1328 1313L914
272L472 1300Q443 1368 495 1388T765 1423Q773 1452 765 1470Q470 1456 30 1470Q21 1452 30 1423Q218 1405 265 1300L847 -29H894L1435 1313Q1463 1370 1523 1392T1676 1423Z" />
<glyph unicode="W" glyph-name="W" horiz-adv-x="2251" d="M668 1384Q617 1382 608 1361T621 1284L929 526L1051 854L879 1286Q857 1339 825 1359T724 1384Q699 1448 724 1503H1430Q1455 1448 1430 1384Q1322 1380 1289 1355T1273 1284L1559 532L1840 1284Q1860
1339 1827 1357T1692 1384Q1668 1448 1692 1503H2286Q2311 1448 2286 1384Q2135 1374 2092 1354Q2047 1331 2028 1284L1516 -70H1414L1146 621L885 -70H785L226 1284Q206 1333 156 1353T5 1384Q-20 1448 5 1503H668Q693 1448 668 1384ZM634 1470H40Q27 1450 40
1423Q220 1405 263 1300L812 -29H857L1141 733L1443 -29H1488L1996 1313Q2018 1370 2076 1392T2243 1423Q2256 1450 2243 1470H1735Q1723 1450 1735 1423Q1854 1409 1881 1386Q1914 1360 1895 1313L1506 266L1111 1300Q1088 1354 1158 1384T1387 1423Q1400 1450
1387 1470H759Q746 1450 759 1423Q822 1417 858 1391T918 1300L1094 854L875 266L455 1300Q421 1368 462 1390T634 1423Q646 1450 634 1470Z" />
<glyph unicode="X" glyph-name="X" horiz-adv-x="1630" d="M696 713L283 152Q213 55 53 41Q45 25 53 -6Q168 0 301 0Q416 0 545 -6Q553 10 545 41Q405 57 383 94Q369 119 391 154L743 637L1048 152Q1061 133 1062 118T1046 86T993 60T940 48T895 43T856 40T827
39Q819 23 827 -8Q977 0 1175 0Q1347 0 1610 -8Q1618 10 1610 39Q1341 57 1255 152L854 791L1229 1313Q1294 1407 1458 1423Q1468 1446 1458 1470Q1343 1464 1210 1464Q1106 1464 977 1470Q969 1454 977 1423Q1134 1403 1137 1350Q1137 1333 1124 1313L807 866L541
1288Q528 1315 526 1334T545 1369T592 1393T659 1409T737 1418T821 1423Q829 1440 821 1470Q641 1462 442 1462Q305 1462 80 1470Q72 1452 80 1423Q137 1417 168 1412T241 1386T311 1327L696 713ZM250 176L647 715L276 1305L278 1303Q256 1333 214 1351T140 1374T47
1384Q31 1448 51 1513Q446 1497 862 1507Q883 1452 862 1384Q752 1380 709 1364T688 1311L866 1022L1089 1335Q1098 1348 1090 1357T1058 1372T1017 1381T971 1389L942 1391Q926 1446 948 1513Q1190 1499 1487 1513Q1497 1491 1497 1449T1487 1384Q1319 1370 1261
1288L965 872L1403 174Q1452 96 1653 78Q1669 14 1649 -51Q1188 -33 797 -45Q774 14 797 78Q960 84 993 96Q1028 109 1014 129L737 561L424 129Q412 113 425 102T470 85T526 78T579 74Q596 18 573 -49Q266 -35 24 -49Q0 20 24 80Q188 94 250 176Z" />
<glyph unicode="Y" glyph-name="Y" horiz-adv-x="1573" d="M967 141Q969 104 1190 82Q1204 23 1186 -45Q911 -41 772 -41Q635 -41 360 -45Q328 14 360 82Q578 104 580 139Q590 416 592 635L219 1284Q170 1366 -12 1384Q-20 1415 -20 1444Q-20 1475 -8 1511Q203
1503 489 1503Q696 1503 795 1507Q805 1473 805 1448Q805 1419 795 1382Q688 1374 647 1364T606 1333Q606 1327 850 889Q1122 1341 1122 1346Q1122 1356 1110 1364T1078 1377T1040 1384T1000 1388T973 1391Q956 1444 979 1511Q1163 1503 1253 1503Q1337 1503 1497
1511Q1520 1442 1497 1384Q1343 1370 1294 1292L956 750Q956 344 967 141ZM621 137Q618 63 389 41Q379 16 389 -8Q831 0 1147 -6Q1155 14 1147 43Q815 63 813 137Q803 424 803 582L1260 1313Q1319 1409 1468 1423Q1477 1440 1468 1470Q1356 1464 1241 1464Q1137
1464 1008 1470Q999 1454 1008 1423Q1155 1407 1165 1358Q1169 1339 1153 1313L791 715L463 1300Q428 1366 484 1387T756 1423Q764 1452 756 1470Q461 1456 20 1470Q12 1452 20 1423Q197 1407 256 1300L633 643Q631 408 621 137Z" />
<glyph unicode="Z" glyph-name="Z" horiz-adv-x="1575" d="M1370 -41Q248 -41 76 -47Q70 -42 63 -30T50 -4T41 23T37 45Q269 373 497 701T948 1360Q857 1355 783 1345T645 1317T524 1273T407 1210T285 1125T147 1016Q76 1033 51 1087Q228 1273 301 1511Q430 1506
559 1505T819 1503Q950 1503 1081 1504T1346 1511Q1413 1489 1413 1413Q1157 1051 929 724T502 102H786Q910 102 1008 139T1179 242T1301 395T1380 584Q1460 567 1495 522Q1491 507 1484 479T1467 416T1446 342T1425 265T1407 193T1388 106T1370 -41ZM901 0Q1133
0 1253 122T1442 518Q1425 532 1403 535Q1376 438 1332 360T1217 211T1036 101T788 61H313Q782 754 1260 1425Q1260 1458 1227 1470Q846 1460 332 1470Q260 1245 102 1079Q115 1057 143 1057Q317 1219 410 1366Q438 1368 657 1385T1028 1405Q569 723 78 33Q78 8
92 -6Q201 0 901 0Z" />
<glyph unicode="[" glyph-name="bracketleft" horiz-adv-x="930" d="M762 1534V1620H266V-426H762V-340H465V1534H762ZM874 1661V1493H578V-299H874V-467H225V1661H874Z" />
<glyph unicode="\" glyph-name="backslash" horiz-adv-x="1374" d="M184 1620L991 -426H1124L322 1620H184ZM963 -467L123 1661H422L1257 -467H963Z" />
<glyph unicode="]" glyph-name="bracketright" horiz-adv-x="930" d="M598 1620H102V1534H399V-340H102V-426H598V1620ZM61 1661H711V-467H61V-299H358V1493H61V1661Z" />
<glyph unicode="^" glyph-name="asciicircum" horiz-adv-x="1333" d="M365 1055L633 1323L901 1055H1083L633 1505L184 1055H365ZM885 1014L668 1229L453 1014H86L633 1563H705L1253 1014H885Z" />
<glyph unicode="_" glyph-name="underscore" horiz-adv-x="1364" d="M20 -424V-532H1278V-424H20ZM-20 -573V-383H1391V-573H-20Z" />
<glyph unicode="`" glyph-name="grave" horiz-adv-x="1100" d="M727 1120L485 1421Q449 1468 393 1468Q354 1468 331 1445T307 1382Q307 1331 344 1309L698 1083L727 1120ZM588 1448L850 1122L782 1028H711L317 1278Q266 1311 266 1382Q266 1440 301 1474T393
1509Q539 1509 588 1448Z" />
<glyph unicode="a" glyph-name="a" horiz-adv-x="1145" d="M330 727Q377 719 404 691T432 618Q432 565 397 531T305 496Q246 496 198 538T150 657Q150 788 274 869T600 950Q791 950 868 874T946 616V266L1010 268Q1092 262 1124 190L1092 135Q1061 88 1041 63T982
5T893 -41T774 -55Q690 -55 647 8Q539 -70 365 -70Q289 -70 236 -47T158 16T123 89T113 158Q113 305 212 378T612 528V637Q612 717 579 754T492 791Q379 791 330 727ZM653 434V225Q557 98 457 98Q399 98 363 126T326 205Q326 287 393 340T653 434ZM612 238V360Q467
307 467 205Q467 162 498 145Q551 164 612 238ZM305 584Q270 584 256 635Q236 717 305 778Q373 838 510 838Q575 838 614 788T653 637V498Q358 422 256 355T154 158Q154 90 200 31T365 -29Q412 -29 453 -14T539 34T594 77T627 108T653 133Q666 -14 774 -14Q801
-14 836 0T906 55T951 109T980 152T1008 193Q995 221 958 225Q903 141 846 143Q805 145 805 201V616Q805 776 743 842T528 909Q391 909 291 839T190 657Q190 600 225 569T305 537Q319 557 305 584Z" />
<glyph unicode="b" glyph-name="b" horiz-adv-x="1268" d="M623 778Q742 778 803 682T865 438Q865 221 788 129T621 37Q460 37 382 156Q378 356 378 680Q492 778 623 778ZM34 1438Q29 1407 34 1391Q169 1384 226 1350Q234 604 226 98Q378 -29 587 -29Q705 -29
795 18T937 142T1013 306T1039 485Q1039 680 950 794T720 909Q546 909 378 758V1493Q369 1509 343 1520Q210 1456 34 1438ZM357 1569Q466 1561 519 1503V897Q623 950 791 950Q963 950 1071 824T1180 485Q1180 385 1152 291T1064 114T900 -19T658 -70Q367 -70 185
80Q197 690 185 1325Q120 1346 3 1352Q-20 1417 5 1477Q183 1493 357 1569ZM824 438Q824 555 781 638T654 733Q584 723 519 664Q519 362 523 166Q568 92 652 80Q722 96 773 181T824 438Z" />
<glyph unicode="c" glyph-name="c" horiz-adv-x="1090" d="M856 694Q856 633 805 618Q791 592 805 571Q856 571 891 606T926 694Q926 788 838 848T608 909Q410 909 277 775T143 424Q143 199 267 85T559 -29Q682 -29 787 37T942 238Q928 254 903 260Q877 223 861
206T807 157T724 111T623 96Q467 96 395 187T322 424Q322 844 608 844Q723 844 789 806T856 694ZM885 299Q952 291 989 244Q932 88 813 9T559 -70Q377 -70 240 54T102 424Q102 659 246 804T608 950Q768 950 867 879T967 694Q967 625 921 584T805 543Q680 543 680
653Q680 723 766 754Q709 793 647 799Q463 772 463 424Q463 162 657 139Q774 154 885 299Z" />
<glyph unicode="d" glyph-name="d" horiz-adv-x="1298" d="M580 102Q461 102 400 198T338 442Q338 561 362 646T427 771T505 827T582 844Q723 844 793 725V580Q793 307 791 209Q680 102 580 102ZM1233 80Q1266 14 1229 -47Q973 -39 799 -47Q762 -31 752 -6Q655
-70 483 -70Q313 -70 208 57T102 403Q102 500 131 592T218 766T379 899T616 950Q707 950 752 946Q750 1104 750 1325Q684 1346 567 1352Q545 1411 567 1479Q707 1491 922 1569Q1030 1561 1083 1503Q1083 362 1092 139Q1094 96 1233 80ZM752 715Q702 786 621 799Q551
784 501 703T451 442Q451 326 491 245T614 147Q680 162 750 225Q752 324 752 580V715ZM1196 43Q1145 47 1119 51T1045 65T974 93T950 137Q942 360 942 1493Q932 1511 907 1520Q774 1456 598 1438Q592 1413 598 1391Q733 1384 791 1350Q791 1067 793 877Q690 909
616 909Q498 909 408 862T266 739T190 577T164 403Q164 203 253 87T467 -29Q625 -29 788 133Q788 49 784 25Q795 2 809 -6Q842 -4 874 -2T926 1T961 2Q1016 2 1196 -4Q1210 16 1196 43Z" />
<glyph unicode="e" glyph-name="e" horiz-adv-x="1106" d="M565 844Q645 844 681 793T717 664Q717 635 707 598H317Q348 723 417 783T565 844ZM307 530H852Q868 580 868 633Q868 750 802 829T590 909Q401 909 272 772T143 424Q143 199 266 85T555 -29Q678 -29
783 37T938 238Q924 254 899 260Q895 254 876 228T847 190T815 157T770 125T715 106T643 96Q489 96 398 187T303 434Q303 469 307 530ZM883 307Q946 293 985 244Q928 88 809 9T555 -70Q371 -70 237 54T102 424Q102 647 239 798T629 950Q1010 950 1010 633Q1010
571 981 489H444V424Q449 303 510 228T678 139Q741 145 782 182T883 307ZM676 664Q676 774 602 797Q514 770 471 639H674Q674 643 675 651T676 664Z" />
<glyph unicode="f" glyph-name="f" horiz-adv-x="848" d="M596 139Q598 100 731 78Q764 12 727 -49Q303 -35 86 -43Q49 16 82 78Q250 100 252 139Q256 238 256 748H133Q100 827 133 901H256V965Q256 1214 385 1387T753 1561Q874 1561 957 1498T1040 1329Q1040
1262 994 1213T874 1163Q813 1163 779 1194T745 1272Q745 1356 805 1380Q780 1395 733 1395Q670 1384 629 1331T588 1198V901H792Q825 821 792 748H588Q588 281 596 139ZM733 1454Q833 1454 877 1418T921 1333Q921 1262 870 1245Q856 1225 870 1198Q923 1198 961
1238T999 1329Q999 1415 929 1467T753 1520Q534 1520 416 1359T297 965V860H162Q147 827 162 788H297Q297 236 293 137Q291 63 123 41Q108 14 123 -6Q385 6 694 -6Q708 14 694 41Q457 63 454 137Q446 293 446 788H753Q768 821 753 860H446V1151Q446 1272 530 1363T733
1454Z" />
<glyph unicode="g" glyph-name="g" horiz-adv-x="1159" d="M317 580Q317 719 369 781T502 844Q561 844 611 788T662 598Q662 313 506 313Q317 313 317 580ZM313 -266Q313 -156 440 -88Q520 -80 686 -80Q805 -80 845 -124T885 -252Q885 -324 808 -401T578 -479Q440
-479 377 -417T313 -266ZM956 866Q983 864 983 838Q983 805 942 799Q907 795 856 815Q829 825 787 843T728 869T681 887T630 900T577 906T506 909Q354 909 249 807T143 582Q143 383 324 283Q162 162 162 66Q162 -55 354 -84Q158 -190 158 -338Q158 -434 248 -498T512
-563Q719 -563 862 -426T1006 -147Q1006 82 727 82Q696 82 645 80T575 78Q422 78 360 98T297 164Q297 221 385 258Q446 248 514 248Q649 248 742 342T836 596Q836 723 788 788L793 793Q809 782 836 763T878 735T916 719T963 711Q1001 711 1027 740T1053 811Q1053
854 1029 883T956 913Q942 887 956 866ZM969 670Q977 637 977 596Q977 418 864 313T586 207H461Q432 174 444 149T492 123H827Q1147 123 1147 -147Q1147 -219 1104 -298T984 -445T782 -559T512 -604Q317 -604 217 -529T117 -338Q117 -211 250 -102Q121 -57 121
66Q121 172 252 281Q102 389 102 582Q102 719 220 834T506 950Q631 950 690 937T840 887Q885 954 956 954Q1026 954 1060 913T1094 811Q1094 752 1060 711T969 670ZM455 -266Q455 -330 492 -378T614 -436Q729 -426 786 -366T844 -252Q844 -190 816 -156T709 -121Q614
-121 522 -129Q455 -186 455 -266ZM459 580Q459 391 541 360Q621 391 621 598Q621 762 537 795Q459 762 459 580Z" />
<glyph unicode="h" glyph-name="h" horiz-adv-x="1331" d="M739 46Q727 23 739 -3Q999 3 1259 -3Q1274 21 1259 46Q1016 58 1014 142L1003 645Q999 782 959 845T821 909Q655 909 426 680V1497Q418 1513 391 1524Q252 1458 102 1442Q96 1417 102 1395Q217 1389
272 1354V142Q270 68 100 46Q88 23 100 -3Q362 7 622 -3Q635 23 622 46Q436 66 434 142Q426 355 426 616Q626 793 741 793Q850 793 850 612L848 142Q848 93 818 74T739 46ZM706 -38Q682 21 706 83Q739 83 773 100T807 142L809 612Q809 721 766 745Q692 727 567
637Q567 367 575 144Q579 91 655 83Q680 21 655 -38Q362 -28 65 -38Q41 21 65 83Q229 105 231 144V1329Q164 1350 65 1356Q43 1415 65 1483Q217 1491 405 1573Q514 1565 567 1507V856Q708 950 893 950Q1028 950 1085 877T1145 645Q1149 253 1155 142Q1157 101 1296
83Q1319 17 1292 -38Q999 -32 706 -38Z" />
<glyph unicode="i" glyph-name="i" horiz-adv-x="780" d="M370 1405Q596 1405 596 1241Q596 1077 370 1077Q336 1077 307 1090T255 1125T220 1178T207 1241Q207 1274 220 1304T255 1356T306 1392T370 1405ZM278 1327Q248 1292 248 1241Q248 1215 256 1193T280
1154T314 1128T356 1118Q377 1118 397 1127T432 1153T456 1192T465 1241Q465 1267 456 1289T432 1328T397 1354T356 1364Q335 1364 315 1355T278 1327ZM682 46Q444 68 442 142Q432 442 434 879Q426 895 399 905Q260 840 110 823Q104 799 110 776Q223 770 282 735Q291
362 280 142Q278 68 110 46Q100 21 110 -3Q397 3 682 -3Q692 21 682 46ZM719 83Q735 21 719 -38Q397 -28 74 -38Q57 21 74 83Q237 99 239 144Q252 424 241 711Q174 731 74 737Q51 797 74 864Q225 872 414 954Q522 946 575 889Q571 397 583 144Q586 99 719 83Z"
/>
<glyph unicode="j" glyph-name="j" horiz-adv-x="737" d="M266 1327Q236 1292 236 1241Q236 1215 244 1193T268 1154T302 1128T344 1118Q365 1118 385 1127T420 1153T444 1192T453 1241Q453 1267 444 1289T420 1328T385 1354T344 1364Q323 1364 303 1355T266 1327ZM102
-498Q41 -498 7 -456T-27 -362Q-27 -289 25 -272Q39 -252 25 -225Q-29 -225 -63 -263T-98 -370T-46 -501T94 -563Q188 -563 256 -520T358 -403T407 -247T422 -72V879Q414 895 387 905Q254 842 78 823Q72 799 78 776Q213 770 270 735Q285 262 270 -236Q266 -381
227 -439T102 -498ZM358 1405Q584 1405 584 1241T358 1077Q291 1077 243 1125T195 1241T243 1357T358 1405ZM66 -451Q160 -475 194 -413T229 -236V711Q164 731 47 737Q25 797 47 864Q215 874 401 954Q510 946 563 889V-72Q565 -205 529 -320T400 -520T172 -604Q23
-604 -60 -536T-143 -358Q-143 -283 -97 -234T27 -184Q160 -184 160 -313Q160 -420 66 -451Z" />
<glyph unicode="k" glyph-name="k" horiz-adv-x="1225" d="M647 887Q635 860 647 840Q678 836 704 825T742 792T723 743L520 551H440Q438 848 438 1493Q428 1511 403 1520Q270 1456 94 1438Q88 1413 94 1391Q229 1384 287 1350Q287 1225 290 974T293 523T284 137Q282
63 114 41Q102 16 114 -6Q246 0 368 0Q487 0 618 -6Q631 16 618 41Q446 63 446 137Q440 248 440 487H518L790 137Q850 61 725 47Q713 23 725 0H954Q1067 0 1208 -6Q1220 16 1208 41Q1081 55 1030 90Q1001 109 979 137L639 565L815 743Q891 821 1067 840Q1075 864
1067 887Q844 874 647 887ZM629 928Q899 918 1095 930Q1120 868 1098 801Q911 782 844 715L749 618L1112 162Q1145 121 1170 105T1249 78Q1272 12 1245 -43Q1040 -31 710 -43Q680 20 702 78Q762 90 739 137L581 338Q581 209 588 137Q592 90 639 78Q659 25 635 -43Q362
-37 86 -43Q45 18 82 78Q241 98 244 139Q248 238 248 580Q248 664 247 831T246 1073V1325Q180 1346 63 1352Q41 1411 63 1479Q203 1491 418 1569Q526 1561 579 1503V666L694 774Q708 788 692 795Q684 797 626 807Q596 864 629 928Z" />
<glyph unicode="l" glyph-name="l" horiz-adv-x="770" d="M672 46Q434 68 432 142Q422 696 424 1493Q416 1509 389 1520Q250 1454 100 1438Q94 1413 100 1391Q213 1384 272 1350Q280 598 270 142Q268 68 100 46Q90 21 100 -3Q332 5 672 -3Q682 21 672 46ZM708
83Q725 21 708 -38Q323 -30 63 -38Q47 21 63 83Q227 99 229 144Q241 731 231 1325Q164 1346 63 1352Q41 1411 63 1479Q215 1487 403 1569Q512 1561 565 1503Q561 612 573 144Q575 99 708 83Z" />
<glyph unicode="m" glyph-name="m" horiz-adv-x="1886" d="M1134 637Q1134 348 1145 142Q1147 89 1212 83Q1237 21 1212 -38Q956 -32 698 -38Q674 21 698 83Q796 97 796 142L798 612Q798 721 755 745Q667 723 577 637Q577 362 585 144Q588 118 600 105T653 83Q678
21 653 -38Q366 -30 76 -38Q51 21 76 83Q239 105 241 144Q250 369 241 711Q174 731 76 737Q53 797 76 864Q227 872 416 954Q524 946 577 889V856Q647 905 711 927T882 950Q1046 950 1102 831Q1200 903 1265 926T1444 950Q1581 950 1638 876T1696 645Q1696 348 1706
142Q1708 101 1847 83Q1870 17 1843 -38Q1550 -32 1259 -38Q1235 21 1259 83Q1292 83 1325 100T1358 142L1360 612Q1360 721 1317 745Q1235 725 1134 637ZM991 680Q985 799 944 854T811 909Q743 909 671 870T555 794T436 680V879Q428 895 401 905Q262 840 112 823Q106
799 112 776Q227 770 282 735Q289 436 282 142Q280 68 110 46Q98 23 110 -3Q366 5 620 -3Q633 23 620 46Q446 66 444 142Q436 350 436 616Q540 707 606 750T731 793Q839 793 839 612L837 142Q837 64 731 46Q719 23 731 -3Q956 3 1179 -3Q1192 23 1179 46Q1126 50
1094 57T1032 85T1003 142L993 616Q1097 707 1163 750T1288 793Q1396 793 1396 612L1394 142Q1394 64 1288 46Q1276 23 1288 -3Q1546 3 1806 -3Q1820 21 1806 46Q1562 58 1560 142L1550 645Q1546 782 1506 845T1368 909Q1300 909 1228 872T1110 794T991 680Z" />
<glyph unicode="n" glyph-name="n" horiz-adv-x="1348" d="M749 46Q737 23 749 -3Q1009 3 1270 -3Q1284 21 1270 46Q1026 58 1024 142L1014 645Q1009 782 970 845T831 909Q665 909 436 680V879Q428 895 401 905Q262 840 112 823Q106 799 112 776Q227 770 282 735Q293
436 282 142Q280 68 110 46Q98 23 110 -3Q370 7 633 -3Q645 23 633 46Q446 66 444 142Q436 350 436 616Q637 793 751 793Q860 793 860 612L858 142Q858 93 828 74T749 46ZM717 -38Q692 21 717 83Q749 83 783 100T817 142L819 612Q819 721 776 745Q702 727 577 637Q577
362 585 144Q590 91 665 83Q690 21 665 -38Q372 -28 76 -38Q51 21 76 83Q239 105 241 144Q252 426 241 711Q174 731 76 737Q53 797 76 864Q227 872 416 954Q524 946 577 889V856Q719 950 903 950Q1038 950 1095 877T1155 645Q1159 248 1165 142Q1167 101 1306 83Q1329
17 1302 -38Q1009 -32 717 -38Z" />
<glyph unicode="o" glyph-name="o" horiz-adv-x="1212" d="M573 844Q676 844 736 746T797 440Q797 233 737 135T573 37Q516 37 470 61T391 135T340 260T322 440Q322 543 340 619T390 745T469 819T573 844ZM573 -29Q666 -29 740 6T866 103T947 252T975 440Q975
542 947 628T867 776T740 874T573 909Q474 909 394 874T259 777T173 629T143 440Q143 337 173 251T258 103T394 6T573 -29ZM608 950Q729 950 823 913T983 809T1082 647T1116 440Q1116 328 1082 234T984 73T824 -32T608 -70Q488 -70 394 -33T235 72T136 233T102
440Q102 553 136 647T235 808T394 913T608 950ZM463 440Q463 117 608 82Q756 117 756 440Q756 760 608 799Q463 760 463 440Z" />
<glyph unicode="p" glyph-name="p" horiz-adv-x="1274" d="M633 778Q751 778 812 682T874 438Q874 221 798 129T631 37Q459 37 391 164V684Q506 778 633 778ZM833 438Q833 555 790 637T665 733Q596 723 532 666V170Q571 94 657 80Q729 94 781 178T833 438ZM45
776H47Q182 770 239 735Q239 -31 237 -395Q235 -469 67 -492Q61 -514 67 -539Q329 -526 639 -539Q651 -516 639 -492Q401 -469 399 -395L393 6Q491 -29 602 -29Q719 -29 808 18T947 142T1022 306T1048 485Q1048 680 959 794T729 909Q557 909 391 762V879Q383 895
356 905Q223 842 47 823Q39 801 45 776ZM14 864Q209 881 366 961Q475 952 528 895Q622 950 801 950Q973 950 1081 824T1190 485Q1190 385 1160 291T1072 114T911 -19T674 -70Q588 -70 534 -66L540 -393Q542 -432 676 -455Q702 -514 676 -580Q276 -565 37 -575Q14
-512 37 -455Q194 -434 196 -393L198 711Q133 731 16 737Q-10 797 14 864Z" />
<glyph unicode="q" glyph-name="q" horiz-adv-x="1251" d="M588 102Q455 102 386 198T317 442Q317 561 345 646T418 771T505 827T590 844Q731 844 801 715Q801 424 803 227Q682 102 588 102ZM799 -395Q797 -469 629 -492Q618 -516 629 -541Q913 -535 1200 -541Q1210
-516 1200 -492Q963 -469 961 -395Q952 -172 952 805Q952 831 922 844Q772 909 625 909Q500 909 403 862T251 739T170 577T143 403Q143 203 240 87T492 -29Q633 -29 803 150Q803 -297 799 -395ZM1102 -393Q1104 -438 1237 -455Q1253 -516 1237 -575Q913 -565 592
-575Q575 -516 592 -455Q756 -438 758 -393Q762 -297 762 -2Q662 -70 522 -70Q326 -70 214 55T102 403Q102 500 131 591T219 766T389 900T647 950Q866 950 1034 885Q1077 868 1094 815Q1094 -182 1102 -393ZM760 702Q713 784 631 799Q561 784 510 703T459 442Q459
328 500 247T618 147Q682 164 762 244Q760 436 760 702Z" />
<glyph unicode="r" glyph-name="r" horiz-adv-x="1006" d="M448 563Q473 655 551 742T710 829Q805 829 805 768Q805 713 753 698Q739 678 753 651Q807 651 841 684T876 776Q876 838 839 873T741 909Q663 909 585 847T448 707V879Q440 895 414 905Q280 842 104
823Q98 799 104 776Q239 770 297 735Q305 362 295 137Q293 63 125 41Q110 14 125 -6Q387 6 696 -6Q710 14 696 41Q459 63 457 137Q448 340 448 563ZM598 139Q600 100 733 78Q766 12 729 -49Q305 -35 88 -43Q51 16 84 78Q252 100 254 139Q266 424 256 711Q190 731
74 737Q51 797 74 864Q241 874 428 954Q536 942 590 889Q674 950 741 950Q819 950 868 904T917 776Q917 698 871 654T753 610Q686 610 641 655Q600 600 590 555Q590 338 598 139Z" />
<glyph unicode="s" glyph-name="s" horiz-adv-x="1004" d="M254 -12Q206 -28 160 -51Q113 -22 98 8Q100 14 104 49T112 131T120 228T123 313Q170 335 268 335Q279 335 290 335T313 334Q385 100 510 80Q561 88 588 117T616 184Q616 211 601 234T561 278T503 315T432
348T357 380T284 413Q247 430 214 454T156 510T117 580T102 662Q102 709 118 760T173 853T278 922T444 950Q555 950 608 938L645 950H713Q726 865 744 791T786 653Q743 610 682 610Q648 650 619 682T564 739T512 778T459 799Q393 788 393 739Q393 700 427 671T512
618T623 573T738 527Q777 510 811 483T872 421T913 342T928 248Q928 174 891 115T792 15T651 -48T490 -70Q349 -70 254 -12ZM483 -29Q608 -29 697 45T786 211Q786 301 731 366T598 468T441 534T307 606T252 702Q252 772 304 808T426 844Q500 844 558 798T700 651Q727
651 739 664Q702 770 630 839T444 909Q283 909 213 833T143 662Q143 582 196 526T325 439T476 378T604 300T657 184Q657 127 608 82T471 37Q365 37 308 104T211 293Q176 293 164 287Q164 215 157 122T143 12Q150 2 162 -6Q203 23 225 55Q313 6 362 -11T483 -29Z"
/>
<glyph unicode="t" glyph-name="t" horiz-adv-x="907" d="M410 788H803Q817 827 803 860H410V1079Q385 1090 360 1079Q323 1010 278 959T203 887T115 834Q108 813 115 788H237V264Q237 -29 479 -29Q582 -29 669 24T799 156Q790 178 766 180Q672 96 584 96Q410
96 410 254V788ZM754 223Q817 215 844 154Q792 59 693 -5T479 -70Q197 -70 197 264V748H74Q59 801 74 858Q135 893 167 915T247 989T332 1112Q426 1151 551 1108V901H842Q874 827 842 748H551V254Q551 158 620 141Q680 154 754 223Z" />
<glyph unicode="u" glyph-name="u" horiz-adv-x="1352" d="M786 242Q794 492 786 743Q786 778 635 803Q612 864 635 924H1067Q1095 913 1107 900T1130 862Q1130 844 1125 805T1120 743Q1110 414 1120 170Q1192 147 1272 143Q1294 84 1272 16Q1141 8 948 -74Q839
-66 786 -8V18Q649 -70 461 -70Q325 -70 268 4T209 236Q211 487 209 743Q209 778 57 803Q35 864 57 924H491Q520 913 532 900T555 862Q555 844 550 805T545 743Q538 510 545 268Q549 154 586 135Q659 154 786 242ZM827 743Q833 483 827 221Q641 88 540 88Q403 88
403 268Q397 510 403 743Q403 770 408 808T414 856Q403 879 385 887Q237 877 90 887Q82 864 90 840Q248 815 250 743Q252 489 250 236Q248 100 297 36T461 -29Q612 -29 827 158V12Q835 -4 862 -14Q1005 39 1233 57Q1241 82 1233 104Q1061 111 979 145Q971 502 979
743Q979 770 984 808T989 856Q979 879 960 887Q815 879 667 887Q659 864 667 840Q825 815 827 743Z" />
<glyph unicode="v" glyph-name="v" horiz-adv-x="1083" d="M-38 924Q273 913 584 924Q607 856 584 803Q519 793 498 780T488 731L597 438L720 731Q736 768 718 780T634 803Q611 864 634 924Q845 918 1053 924Q1076 864 1053 803Q978 797 946 781T898 727L546 -70H441L128
729Q113 764 76 779T-38 803Q-61 864 -38 924ZM554 887Q273 877 -7 887Q-18 860 -7 840Q68 831 107 813T167 743L470 -29H519L861 743Q904 834 1023 840Q1033 860 1023 887Q845 881 664 887Q654 860 664 840Q703 838 726 831T769 802T769 743L537 195L339 743Q328
770 339 788T386 817T457 831T554 840Q564 860 554 887Z" />
<glyph unicode="w" glyph-name="w" horiz-adv-x="1591" d="M1084 887H585Q574 864 585 840Q675 823 699 743L740 635L558 233H554L349 743Q333 784 366 804T478 840Q488 864 478 887H-5Q-16 864 -5 840Q128 819 161 743L478 -29H525L779 532L996 -29H1043L1379
743Q1416 831 1533 840Q1543 864 1533 887H1193Q1183 864 1193 840Q1221 838 1240 833T1278 817T1298 790T1291 743L1076 233H1072L888 743Q888 758 883 770T887 791T902 807T924 818T955 826T993 832T1036 837T1084 840Q1094 864 1084 887ZM556 924H1113Q1146
860 1113 803Q1088 801 1078 799T1049 794T1024 787T1009 775T1002 759T1006 735L1117 436L1244 735Q1258 768 1239 782T1164 803Q1131 860 1164 924H1561Q1592 862 1559 803Q1492 799 1461 782T1416 727L1070 -70H968L775 428L552 -70H449L122 727Q107 762 75
776T-32 803Q-61 856 -34 924H507Q533 856 505 803Q445 799 470 735L599 420L697 635L658 733Q636 788 558 803Q529 856 556 924Z" />
<glyph unicode="x" glyph-name="x" horiz-adv-x="1116" d="M1062 41Q945 61 895 85T802 176L603 453L830 743Q906 842 1017 846Q1025 868 1017 893Q838 883 658 893Q650 870 658 846Q693 844 717 835T754 805T738 750L560 510L392 743Q355 797 397 818T533 846Q535
852 535 870T533 895Q306 883 48 895Q42 870 48 846Q85 840 104 835T157 807T220 743L449 426L216 137Q142 45 32 41Q25 18 32 -6Q212 4 390 -6Q396 18 390 41Q355 43 331 52T294 81T310 137L492 367L636 170Q683 104 664 76T556 41Q550 18 556 -8Q806 6 1062 -8Q1074
16 1062 41ZM1094 78Q1125 14 1092 -43Q810 -31 525 -43Q503 20 523 78Q589 84 605 97T599 147L488 295L361 135Q347 119 346 108T357 91T381 83T423 78Q443 20 421 -43Q212 -33 1 -43Q-20 16 1 78Q118 82 183 164L396 428L214 688Q175 741 137 763T15 809Q-5 868
17 930Q294 918 564 930Q587 866 566 809Q529 803 525 788T539 748L611 647L689 750Q712 778 699 790T625 809Q607 870 628 930Q838 920 1047 930Q1070 870 1047 809Q974 807 934 784T859 715L705 518L937 199Q1002 111 1094 78Z" />
<glyph unicode="y" glyph-name="y" horiz-adv-x="1032" d="M1026 924Q1046 860 1022 803Q897 797 866 727L559 -12L450 -301Q385 -475 318 -539T149 -604Q65 -604 14 -553T-37 -426Q-37 -352 14 -301T139 -250Q227 -250 280 -317L401 2L98 727Q76 786 -66 803Q-92
860 -70 924Q268 911 547 924Q567 860 543 803Q483 799 462 785T455 735L577 436L690 735Q702 766 684 783T600 803Q575 860 596 924Q678 920 1026 924ZM995 887Q774 877 627 887Q616 860 627 840Q665 838 691 832T734 803T737 743L528 193L317 719Q295 776 362
806T516 840Q526 860 516 887Q217 874 -39 887Q-49 860 -39 840Q100 823 135 743L446 0L336 -285Q303 -377 257 -429T162 -481Q80 -481 80 -399Q80 -346 119 -338Q133 -315 119 -291Q69 -291 37 -324T4 -418Q4 -483 48 -523T160 -563Q242 -563 296 -506T412 -287L520
4L829 743Q868 834 995 840Q1005 860 995 887Z" />
<glyph unicode="z" glyph-name="z" horiz-adv-x="1059" d="M188 887L119 637Q133 623 154 623L252 807Q338 825 494 825H627L102 35Q111 6 129 -6Q303 0 487 0Q549 0 595 7T707 41T824 135T901 307Q885 315 866 315Q827 246 805 213T744 141T658 87T545 72H295L811
850Q811 868 793 887Q659 879 496 879Q334 879 188 887ZM180 582Q160 582 123 597T74 625L158 930Q518 911 909 928Q952 885 952 836L473 113H545Q602 113 645 128T724 181T782 253T844 356Q895 356 948 330L872 -49Q496 -41 459 -41Q186 -41 117 -47Q74 -23 57
43L549 784Q442 778 335 728T180 582Z" />
<glyph unicode="{" glyph-name="braceleft" horiz-adv-x="913" d="M82 686Q157 697 204 729T279 807T316 912T326 1034L319 1231Q319 1261 320 1292T324 1355T336 1415T359 1470Q381 1509 412 1543T497 1604T637 1651T854 1681L889 1552Q850 1547 813 1535T746
1503T698 1455T680 1388Q697 1047 697 1039Q697 752 426 604Q697 456 697 169Q697 161 697 152T680 -180Q680 -218 698 -246T745 -295T812 -327T889 -344L854 -473Q685 -461 614 -439Q513 -410 455 -368T366 -273T328 -157T319 -23L326 174Q326 204 325 227T320
273T309 320T292 374Q271 434 218 472T82 522V686ZM123 649V559Q190 549 238 517T311 448T349 354T364 261T367 174L360 -23Q360 -70 362 -98T374 -169T400 -239T450 -301T530 -356T649 -398T813 -428L827 -379Q711 -369 621 -319T539 -170L555 135Q573 469 227
604Q317 639 383 690T480 788T530 896T552 992T555 1073Q555 1141 547 1243T539 1378Q539 1477 626 1527T827 1587L813 1636Q721 1626 650 1607T531 1565T451 1510T401 1448T374 1377T363 1307T360 1231L367 1034Q367 983 365 947T349 855T312 761T239 691T123
649Z" />
<glyph unicode="|" glyph-name="bar" horiz-adv-x="551" d="M184 1817V-477H301V1817H184ZM143 -518V1858H414V-518H143Z" />
<glyph unicode="}" glyph-name="braceright" horiz-adv-x="913" d="M592 604Q263 475 263 168Q263 160 281 -170Q281 -232 264 -266T218 -323T155 -360T82 -379L96 -428Q213 -411 284 -377T394 -294T446 -183T459 -23Q452 183 452 191T452 208Q452 526 696 559V649Q452
682 452 1000Q452 1008 452 1016T459 1231Q459 1291 458 1318T450 1377T438 1426T416 1474Q349 1600 96 1636L82 1587Q119 1582 154 1569T218 1532T263 1474T281 1395Q263 1048 263 1040Q263 731 592 604ZM240 -170Q222 144 222 153T222 172Q222 460 492 604Q222
749 222 1039Q222 1047 222 1055T240 1388Q240 1426 222 1454T175 1503T108 1535T31 1552L66 1681Q189 1672 268 1655T398 1616T481 1566T537 1509T573 1448T592 1383T599 1323T600 1231Q594 1026 594 1020T593 1006Q593 719 838 686V522Q593 489 593 201Q593 194
593 188T600 -23Q600 -35 600 -61T600 -115T592 -176T574 -240T537 -301T481 -357T399 -407T269 -447T66 -473L31 -344Q70 -339 107 -327T174 -295T222 -247T240 -170Z" />
<glyph unicode="~" glyph-name="asciitilde" horiz-adv-x="1485" d="M184 401H264Q299 473 341 508T449 543Q475 543 508 534T563 515T625 488T682 461Q809 401 891 401Q1010 401 1107 490T1235 727H1153Q1110 567 975 567Q909 567 819 612Q647 702 532 702Q459
702 396 670T290 585T225 489T184 401ZM184 360L145 416Q160 453 177 488T228 573T302 657T402 717T532 743Q631 743 714 720T879 661T1008 612Q1085 633 1122 768H1358Q1315 578 1194 469T891 360Q807 360 670 422T485 498Q418 479 362 360H184Z" />
<glyph unicode="&#xa1;" glyph-name="exclamdown" horiz-adv-x="823" d="M389 1130H340L334 989Q331 912 324 819T307 629T288 440T270 273T257 150T252 90Q252 52 265 30T296 -5T333 -21T364 -25Q374 -25 393 -22T431 -7T463 28T477 90Q477 104 473 156T461 284T444
452T425 639T409 825T397 989L389 1130ZM377 1217Q344 1217 314 1230T262 1265T226 1316T213 1380Q213 1414 226 1443T261 1495T313 1531T377 1544Q602 1544 602 1380Q602 1217 377 1217ZM285 1466Q254 1432 254 1380Q254 1354 262 1332T285 1293T319 1267T362
1257Q385 1257 405 1267T439 1294T462 1333T471 1380Q471 1406 463 1428T439 1467T404 1493T362 1503Q316 1503 285 1466ZM301 1171H528L539 991Q551 772 592 397Q618 162 618 90Q618 -4 554 -35T379 -66Q356 -66 333 -61T279 -41T230 7T211 90Q211 168 236 354Q281
709 293 991L301 1171Z" />
<glyph unicode="&#xa2;" glyph-name="cent" horiz-adv-x="1171" d="M557 834V106Q348 164 348 424Q348 776 557 834ZM635 92V836Q750 836 819 797T889 707Q889 635 823 621Q813 596 823 571Q881 571 918 606T956 694Q956 786 865 846T635 909V1051H557V903Q387
879 281 750T174 424Q174 209 286 97T557 -27V-164H635V-27Q745 -14 836 51T973 238Q958 254 934 260Q907 225 890 206T835 155T747 108T635 92ZM836 530Q782 530 748 553V152Q856 190 920 303Q973 295 1020 244Q981 111 909 34T748 -63V-205H516V-66Q354 -43 244
80T133 424Q133 631 237 767T516 938V1092H748V948Q862 922 929 859T997 694Q997 623 950 577T836 530ZM469 424Q469 326 516 266V643Q485 600 477 557T469 424Z" />
<glyph unicode="&#xa3;" glyph-name="sterling" horiz-adv-x="1171" d="M328 774V838Q328 944 333 1019T356 1178T409 1313T505 1398T655 1432Q786 1432 844 1356T965 1094Q995 1090 1008 1106Q983 1315 899 1409T655 1503Q580 1503 521 1492T389 1437T270 1317T192
1103T160 774L-43 780V696L160 700Q160 397 150 137Q147 63 -51 41V-8H592Q786 -8 900 90T1073 373Q1065 389 1040 389Q1004 311 975 264T893 165T761 87T575 61H336Q328 412 328 700L784 696V780L328 774ZM1016 430Q1090 430 1118 375Q1032 195 1008 -43H-80L-82
80Q106 102 109 139Q119 399 119 657L-84 653V823L119 815Q119 1004 153 1142T239 1356T367 1476T508 1532T655 1544Q731 1544 867 1517T1044 1483Q1004 1311 1051 1098Q1014 1053 936 1053Q911 1124 904 1145T877 1219T842 1289T804 1334T754 1373T692 1389Q618
1378 571 1332T503 1199T475 1028T469 815L836 823V653L469 655Q469 338 475 102H571Q666 102 740 129T866 207T950 308T1016 430Z" />
<glyph unicode="&#xa4;" glyph-name="currency" horiz-adv-x="1171" d="M588 428Q638 434 680 458T754 518T803 600T821 696Q821 747 803 792T754 873T680 931T588 963Q540 955 498 932T424 874T374 794T356 696Q356 645 374 599T423 517T496 458T588 428ZM334
475Q244 566 244 696Q244 760 268 816T335 915T433 981T553 1006Q617 1006 673 982T771 915T837 817T862 696Q862 632 838 576T772 477T674 410T553 385Q424 385 334 475ZM1036 1098L952 1178L807 1032Q700 1116 553 1116Q414 1116 295 1030L152 1178L70 1098L217
950Q129 838 129 696Q129 567 217 440L70 293L152 213L295 360Q422 272 553 272Q700 272 807 360L952 213L1036 293L887 440Q975 549 975 696Q975 852 889 952L1036 1098ZM1024 1235L1165 1098L1016 948Q1087 844 1087 696Q1087 553 1014 442L1165 293L1024 156H952L827
279Q727 231 553 231Q442 231 346 281Q256 190 223 156H152L12 293L166 446Q88 573 88 696Q88 825 164 946L12 1098L152 1235H223L346 1108Q449 1157 553 1157Q717 1157 827 1110L952 1235H1024Z" />
<glyph unicode="&#xa5;" glyph-name="yen" horiz-adv-x="1171" d="M591 1470H-40Q-46 1459 -46 1448T-40 1423Q-14 1420 5 1417T37 1412T65 1403T95 1387T123 1361T144 1327L419 717H157V639H452V520H157V442L450 446Q448 346 446 269T441 137Q438 63 210 41Q206
33 206 21Q206 7 210 -6Q378 0 540 0Q752 0 949 -6Q953 1 953 13T949 41Q788 51 709 75T628 137Q626 192 624 269T620 446Q686 446 781 445T1005 442V526H620V643L1005 639V723H685L978 1313Q1026 1411 1144 1423Q1148 1433 1148 1441T1147 1455T1144 1470H751Q744
1460 744 1448T751 1423Q887 1407 887 1351Q886 1343 885 1334T878 1313L599 709L345 1307Q339 1322 339 1335Q339 1359 358 1375T405 1400T466 1415T527 1421T573 1423T591 1423Q597 1436 597 1447T591 1470ZM-75 1503H636Q645 1473 645 1444T636 1384Q558 1374
524 1361T490 1322Q490 1309 495 1298L652 922L828 1298Q834 1310 834 1320Q834 1345 801 1360T706 1384Q696 1413 696 1443T706 1503H1189Q1196 1481 1196 1450T1183 1380Q1039 1367 1015 1294L751 760H1056V598H761V561H1056V401L761 406Q763 319 765 253T769
139Q769 133 774 127T796 113T846 99T994 74Q1001 52 1001 21T988 -49Q803 -45 692 -43T540 -41Q523 -41 434 -43T181 -49Q169 -15 169 18Q169 50 181 80Q399 103 400 139Q407 295 409 406L116 401V569H411V602H116V766H357Q200 1126 167 1196T110 1305Q62 1384
-75 1384Q-84 1414 -84 1443T-75 1503Z" />
<glyph unicode="&#xa6;" glyph-name="brokenbar" horiz-adv-x="551" d="M184 475V-477H301V475H184ZM301 864V1817H184V864H301ZM414 1858V823H143V1858H414ZM143 -518V516H414V-518H143Z" />
<glyph unicode="&#xa7;" glyph-name="section" horiz-adv-x="1339" d="M922 1268Q922 1194 870 1178Q863 1168 863 1155Q863 1143 870 1130Q924 1130 958 1168T993 1276Q993 1324 967 1365T896 1437T787 1485T649 1503Q572 1503 510 1481T403 1419T335 1324T311
1204Q311 1074 414 958Q354 923 311 888T240 813T198 730T184 633Q184 471 362 326L645 90Q688 54 720 23T773 -39T804 -101T815 -168Q815 -213 796 -248T746 -307T679 -343T608 -356Q560 -356 513 -345T429 -311T369 -254T346 -172Q346 -115 397 -98Q404 -90 404
-77Q404 -64 397 -51Q274 -51 274 -180Q274 -230 299 -275T368 -354T474 -408T608 -428Q674 -428 733 -401T836 -329T906 -225T932 -102Q932 34 834 137Q879 163 921 198T997 277T1049 371T1069 477Q1069 514 1056 553T1023 628T979 694T933 744Q910 765 819 839T565
1042Q430 1148 430 1274Q430 1306 447 1335T495 1385T565 1419T649 1432Q778 1432 850 1388T922 1268ZM649 1544Q731 1544 801 1520T923 1457T1004 1365T1034 1255Q1034 1098 872 1098Q842 1098 816 1109T771 1139T742 1184T731 1239Q731 1305 774 1348Q739 1378
686 1389Q657 1389 635 1380T596 1354T572 1317T563 1274Q563 1168 682 1075Q829 959 914 889T1026 796Q1064 762 1096 726T1152 650T1189 567T1202 477Q1202 424 1184 374T1136 279T1068 196T987 127Q1065 26 1065 -102Q1065 -175 1026 -241T923 -358T776 -439T608
-469Q526 -469 457 -446T339 -383T261 -291T233 -180Q233 -23 395 -23Q426 -23 452 -34T497 -63T526 -108T537 -164Q537 -231 492 -274Q498 -280 510 -287T539 -299T574 -309T611 -313Q640 -313 669 -303T721 -274T759 -228T774 -168Q774 -113 734 -60T618 59L336
295Q143 457 143 633Q143 827 354 969Q270 1087 270 1204Q270 1279 296 1341T372 1449T491 1519T649 1544ZM471 907Q827 608 860 578T921 499T950 403Q950 279 786 193L461 473Q410 516 383 542T329 618T301 717Q301 827 471 907ZM500 829Q434 774 434 717Q434
678 459 635T510 568T580 504Q635 457 729 374T848 270Q909 332 909 403Q909 442 882 484T826 553T500 829Z" />
<glyph unicode="&#xa8;" glyph-name="dieresis" horiz-adv-x="1231" d="M307 1327Q276 1293 276 1241Q276 1215 285 1193T309 1154T344 1128T385 1118Q406 1118 426 1127T461 1153T485 1192T494 1241Q494 1267 485 1289T461 1328T426 1354T385 1364Q364 1364 344
1355T307 1327ZM680 1327Q649 1293 649 1241Q649 1216 657 1194T681 1155T715 1128T758 1118Q780 1118 799 1128T834 1154T857 1193T866 1241Q866 1266 858 1288T834 1327T800 1354T758 1364Q713 1364 680 1327ZM772 1405Q997 1405 997 1241Q997 1077 772 1077Q719
1077 676 1107T616 1186Q586 1077 399 1077Q365 1077 336 1090T284 1125T249 1178T236 1241Q236 1274 249 1304T284 1356T335 1392T399 1405Q586 1405 616 1294Q633 1343 676 1374T772 1405Z" />
<glyph unicode="&#xa9;" glyph-name="copyright" horiz-adv-x="1968" d="M1305 514L1272 545Q1135 418 985 418Q842 418 761 509T680 795Q680 1192 950 1192Q1137 1192 1249 926L1280 936Q1227 1247 944 1247Q756 1247 638 1120T520 788Q520 750 527 704T560 591T629
472T754 383T942 346Q1022 346 1121 386T1305 514ZM221 791Q221 1102 439 1312T952 1522Q1143 1522 1310 1428T1580 1164T1683 791Q1683 479 1464 268T952 57Q657 57 439 267T221 791ZM123 791Q123 446 365 204T952 -39Q1294 -39 1537 203T1780 791Q1780 1133 1537
1375T952 1618Q608 1618 366 1376T123 791ZM952 1659Q1206 1659 1419 1556T1762 1252T1892 791Q1892 424 1626 172T952 -80Q592 -80 337 175T82 790T337 1405T952 1659ZM334 791Q334 504 526 309T987 98Q1253 113 1447 309T1642 791Q1642 1071 1448 1267T987 1479Q719
1464 527 1270T334 791ZM1333 903L1225 879Q1118 1122 985 1147Q813 1116 813 795Q813 485 1022 461Q1137 475 1272 602L1370 514Q1266 403 1152 354T950 305Q834 305 743 346T604 443T527 571T488 694T479 788Q479 1012 608 1150T944 1288Q1022 1288 1081 1278T1290
1231Q1282 1182 1282 1161Q1282 1061 1333 903Z" />
<glyph unicode="&#xaa;" glyph-name="ordfeminine" horiz-adv-x="926" d="M514 1110V936Q432 829 350 829Q313 829 290 853T266 920Q266 989 316 1033T514 1110ZM129 1296Q129 1247 158 1221T225 1194Q270 1194 294 1221T319 1284Q319 1362 238 1372Q246 1403
284 1424T377 1446Q438 1446 476 1404T514 1278V1163Q268 1100 183 1044T98 881Q98 823 136 774T272 725Q381 725 514 858Q526 737 614 737Q633 737 649 741T682 757T709 779T737 808T761 838T786 875T809 909Q797 932 768 936Q721 870 698 870Q664 870 664 915V1262Q664
1395 608 1450T412 1505Q309 1505 219 1451T129 1296ZM88 1296Q88 1403 190 1474T483 1546Q645 1546 710 1482T776 1262V973L821 979Q899 969 930 905Q870 823 843 791T755 727T614 696Q551 696 514 741Q432 684 272 684Q152 684 105 746T57 881Q57 1004 141 1066T473
1194V1278Q473 1380 406 1401Q385 1397 379 1393Q432 1364 432 1284Q432 1229 384 1191T225 1153Q172 1153 130 1191T88 1296ZM473 948V1034Q379 997 379 920Q379 893 393 881Q432 899 473 948Z" />
<glyph unicode="&#xab;" glyph-name="guillemotleft" horiz-adv-x="1221" d="M971 90L760 424L971 758L913 803L561 424L913 43L971 90ZM592 90L379 424L592 758L535 803L182 424L535 43L592 90ZM881 424L1098 80L979 -12H907L504 424L907 858H979L1098 766L881
424ZM500 424L719 80L600 -12H528L125 424L528 858H600L719 766L500 424Z" />
<glyph unicode="&#xac;" glyph-name="logicalnot" horiz-adv-x="1710" d="M184 526V414H1346V172H1460V526H184ZM143 373V567H1573V131H1305V373H143Z" />
<glyph unicode="&#xad;" glyph-name="uni00AD" horiz-adv-x="1042" d="M184 537V412H793V537H184ZM143 371V578H905V371H143Z" />
<glyph unicode="&#xae;" glyph-name="registered" horiz-adv-x="1968" d="M952 1659Q1074 1659 1191 1633T1413 1556T1605 1431T1757 1260T1856 1046T1892 791Q1892 424 1626 172Q1360 -80 952 -80Q592 -80 337 175Q82 430 82 790Q82 1151 337 1405Q593 1659 952
1659ZM479 362Q479 398 498 424Q618 434 618 440V442Q623 548 626 641T629 819Q629 877 627 958T621 1147Q607 1154 577 1159T500 1169Q481 1206 481 1219Q334 1034 334 790Q334 546 479 362ZM1087 999Q1087 907 1047 841T915 774Q844 774 795 786Q795 1012 801
1196Q825 1198 911 1198T1042 1143T1087 999ZM659 440Q659 395 524 385Q514 371 522 352Q692 360 958 352Q967 371 958 385Q807 395 801 440Q795 590 795 735Q856 725 926 725Q1049 504 1182 352H1425Q1432 369 1423 385Q1378 389 1331 416T1248 478T1170 566T1106
656T1051 745Q1139 776 1191 844T1243 999Q1243 1108 1170 1174T967 1241Q913 1241 843 1239T743 1237Q659 1237 528 1241L522 1227Q522 1217 526 1208Q655 1198 662 1153Q670 932 670 819Q670 651 659 440ZM221 791Q221 1102 439 1312T952 1522Q1143 1522 1310
1428T1580 1164T1683 791Q1683 479 1464 268T952 57Q657 57 439 267T221 791ZM123 791Q123 446 365 204T952 -39Q1294 -39 1537 203T1780 791Q1780 1133 1537 1375T952 1618Q608 1618 366 1376T123 791ZM1642 791Q1642 1071 1448 1267T987 1479Q725 1466 537 1280Q678
1278 981 1282Q1178 1282 1277 1205T1376 999Q1376 913 1329 840T1202 725Q1321 561 1390 497T1538 424Q1642 590 1642 791ZM987 98Q1260 115 1448 309Q1348 315 1165 311Q1040 449 928 641Q928 545 934 442V444Q938 434 1057 424Q1073 403 1073 367T1055 311Q625
317 520 315Q713 115 987 98ZM1047 999Q1047 1063 1017 1105T932 1155Q928 954 928 819Q989 817 1018 872T1047 999Z" />
<glyph unicode="&#xaf;" glyph-name="overscore" horiz-adv-x="1212" d="M891 1286H256V1163H891V1286ZM215 1327H1004V1122H215V1327Z" />
<glyph unicode="&#xb0;" glyph-name="degree" horiz-adv-x="897" d="M270 1280Q270 1331 309 1378T416 1425Q481 1425 521 1380T561 1280Q561 1223 517 1179T416 1135Q354 1135 312 1180T270 1280ZM184 1280Q184 1184 253 1118T416 1051T578 1117T647 1280Q647
1374 579 1442T416 1511T253 1443T184 1280ZM416 1552Q586 1552 673 1488T760 1280Q760 1163 668 1087T416 1010Q305 1010 224 1088T143 1280T224 1472T416 1552ZM383 1280Q383 1249 401 1221T451 1182Q479 1192 499 1219T520 1280Q520 1311 501 1338T451 1378Q420
1366 402 1338T383 1280Z" />
<glyph unicode="&#xb1;" glyph-name="plusminus" horiz-adv-x="1571" d="M184 121H1321V236H184V121ZM694 328H811V735H1321V850H811V1260H694V850H184V735H694V328ZM924 287H653V694H143V891H653V1300H924V891H1434V694H924V287ZM1434 80H143V276H1434V80Z" />
<glyph unicode="&#xb2;" glyph-name="twosuperior" horiz-adv-x="823" d="M356 1004L78 784Q84 743 102 725H608Q612 741 641 840T682 989Q676 991 659 991Q580 874 479 874H315V889L496 1028Q539 1061 565 1086T618 1164T645 1276Q645 1382 575 1443T381 1505Q260
1505 193 1449T125 1282Q125 1161 240 1098Q252 1102 268 1124Q262 1128 252 1141T230 1190T217 1266Q217 1335 260 1376T360 1417Q412 1417 455 1378T498 1247Q498 1100 356 1004ZM766 1276Q766 1151 641 1034Q694 1032 735 997L651 684H88Q47 719 33 801L334
1038Q459 1128 459 1247Q459 1354 383 1372Q338 1366 327 1343T315 1266Q315 1231 329 1199T358 1153L373 1139Q358 1063 293 1057H233Q227 1059 217 1064T181 1087T135 1128T99 1192T82 1282Q82 1413 162 1479T381 1546Q571 1546 668 1475T766 1276ZM485 915Q565
922 629 1022Q602 999 563 977L465 915H485Z" />
<glyph unicode="&#xb3;" glyph-name="threesuperior" horiz-adv-x="823" d="M186 911Q186 936 170 952Q152 952 137 944T110 923T92 893T86 858Q86 832 99 808T140 766T214 736T324 725Q379 725 433 744T530 798T600 881T627 989Q627 1027 616 1056T585 1107T538
1143T479 1165V1167Q594 1206 594 1329Q594 1370 578 1402T534 1456T469 1491T389 1503Q258 1503 197 1454T135 1323Q135 1263 184 1217Q215 1218 227 1241Q219 1268 219 1309Q219 1351 246 1380T334 1409Q359 1409 380 1401T417 1380T440 1348T449 1309Q449 1194
334 1157L250 1130L276 1075Q315 1092 356 1092Q481 1092 481 975Q481 882 433 833T307 784Q234 784 194 806T153 874Q153 885 162 898T186 911ZM262 1214Q233 1182 168 1171Q94 1264 94 1323Q94 1542 424 1542Q549 1542 642 1490T735 1329Q735 1229 657 1171Q768
1114 768 989Q768 852 644 768T354 684Q184 684 115 739T45 858Q45 911 79 952T170 993Q311 993 311 874Q311 840 287 815Q352 815 396 860T440 975Q440 1030 393 1044Q365 1038 328 1022H256L195 1155L309 1192Q408 1225 408 1309Q408 1337 387 1355T336 1378Q238
1356 262 1214Z" />
<glyph unicode="&#xb4;" glyph-name="acute" horiz-adv-x="1489" d="M743 1421L502 1120L530 1083L885 1309Q922 1331 922 1382Q922 1421 898 1444T836 1468Q780 1468 743 1421ZM451 1122L711 1446Q762 1509 836 1509H907Q965 1509 999 1475T1034 1382Q1034 1311
983 1278L590 1028H518L451 1122Z" />
<glyph unicode="&#xb5;" glyph-name="mu" horiz-adv-x="1352" d="M1196 57Q1206 82 1196 104Q1061 111 1003 145Q1003 797 1010 838Q1012 846 1014 856Q1003 879 989 887H666Q661 856 666 840Q813 817 815 743L823 213Q692 96 594 96Q534 96 481 157T428 317Q430
745 438 856Q432 881 410 887H86Q82 856 86 840Q235 817 237 743L248 238Q246 41 209 -152T172 -410Q172 -487 208 -526T291 -565Q336 -565 371 -527T407 -401Q407 -344 370 -187T328 119H340Q366 35 415 5T545 -25Q635 -25 695 14T823 137V2Q831 -14 858 -25Q1003
39 1196 57ZM930 -70Q825 -72 788 -23Q717 -66 545 -66Q491 -66 457 -57Q461 -96 490 -214T520 -401Q520 -606 291 -606Q227 -606 179 -557T131 -410Q131 -301 171 -111T207 238L194 743Q194 780 53 803Q35 870 57 928H487Q536 918 551 862Q543 682 541 317Q541
250 569 205T637 143Q696 158 782 231L774 741Q772 780 633 803Q614 870 637 928H1071Q1098 915 1107 901T1126 852Q1116 795 1116 170Q1173 150 1302 139Q1325 82 1302 16Q1091 0 930 -70Z" />
<glyph unicode="&#xb6;" glyph-name="paragraph" horiz-adv-x="1438" d="M547 889V-457H659V1430H907V-457H1018V1430H1167V1503H512Q143 1503 143 1198Q143 1118 173 1060T245 970T345 919T449 894T547 889ZM506 -498V848Q451 850 402 858T295 890T198 951T130
1051T102 1198Q102 1544 512 1544H1280V1389H1151V-498H866V1389H793V-498H506Z" />
<glyph unicode="&#xb7;" glyph-name="middot" horiz-adv-x="684" d="M215 838Q184 804 184 751Q184 726 192 704T215 666T250 639T293 629Q316 629 335 639T369 665T392 704T401 751Q401 777 392 799T368 838T334 864T293 874Q272 874 252 865T215 838ZM307 915Q532
915 532 751Q532 588 307 588Q274 588 244 601T192 636T156 687T143 751Q143 785 156 815T191 867T244 902T307 915Z" />
<glyph unicode="&#xb8;" glyph-name="cedilla" horiz-adv-x="1161" d="M535 0H469L412 -188Q463 -174 508 -174Q604 -174 604 -256Q604 -297 575 -323T496 -350Q410 -350 365 -303L338 -334Q399 -428 530 -428Q625 -428 677 -376T729 -252Q729 -182 691 -146T590
-109Q520 -109 498 -113L535 0ZM438 41H690L653 -68Q756 -68 813 -115T870 -252Q870 -340 799 -404T602 -469T406 -436T287 -332L352 -248L438 41ZM563 -256Q563 -229 537 -219Q502 -225 436 -244Q481 -293 528 -303Q563 -291 563 -256Z" />
<glyph unicode="&#xb9;" glyph-name="onesuperior" horiz-adv-x="823" d="M323 815Q323 803 319 794T304 777T285 766T252 757T208 750T186 748Q176 725 186 705H676Q680 711 680 725T676 748Q669 748 602 756T514 776T488 797T483 815Q471 1055 485 1360Q485
1370 489 1377T514 1397T586 1416T654 1425T678 1427Q682 1436 682 1450T678 1470H188Q178 1450 188 1427Q190 1427 221 1424T273 1413T306 1398T321 1382T325 1360Q331 1135 323 815ZM598 1331V846Q598 813 621 804T712 791Q743 725 710 672H157Q125 725 155 788Q237
795 260 804T284 844Q286 930 286 1331Q286 1362 263 1371T157 1386Q127 1450 159 1503H712Q745 1450 714 1384Q647 1380 624 1371T598 1331Z" />
<glyph unicode="&#xba;" glyph-name="ordmasculine" horiz-adv-x="926" d="M430 1448Q516 1448 566 1367T616 1114Q616 942 566 861T430 780Q346 780 296 862T246 1114Q246 1284 296 1366T430 1448ZM170 834Q266 725 430 725Q512 725 578 754T690 834T761 957T786
1114Q786 1199 761 1270T690 1394T577 1474T430 1503Q349 1503 283 1475T171 1394T99 1271T74 1114Q74 942 170 834ZM465 684Q363 684 283 715T147 803T62 939T33 1114Q33 1208 62 1287T148 1422T284 1510T467 1542Q566 1542 646 1512T782 1425T869 1290T899 1114Q899
1018 871 939T787 803T651 715T465 684ZM358 1114Q358 862 465 827Q575 862 575 1114Q575 1362 465 1401Q358 1363 358 1114Z" />
<glyph unicode="&#xbb;" glyph-name="guillemotright" horiz-adv-x="1223" d="M563 758L776 424L563 90L623 43L973 424L623 803L563 758ZM184 758L397 424L184 90L242 43L594 424L242 803L184 758ZM727 424L508 768L629 858H700L1102 424L700 -12H629L508 82L727
424ZM348 424L129 768L248 858H319L723 424L319 -12H248L129 82L348 424Z" />
<glyph unicode="&#xbc;" glyph-name="onequarter" horiz-adv-x="1704" d="M461 -111L553 -135L1294 1540L1198 1565L461 -111ZM575 -182L406 -137L1176 1612H1247L1421 1567L647 -182H575ZM1279 284H1072L1279 507V284ZM947 237V194H1279V-7H1437V194H1547V284H1437V730H1373L947
237ZM906 153V251L1355 771H1549V325H1660V153H1549V-48H1238V153H906ZM329 815Q329 803 325 794T310 777T291 766T258 757T214 750T192 748Q182 725 192 705H682Q686 711 686 725T682 748Q675 748 608 756T520 776T494 797T489 815Q477 1055 491 1360Q491 1370
495 1377T520 1397T592 1416T660 1425T684 1427Q688 1436 688 1450T684 1470H194Q184 1450 194 1427Q196 1427 227 1424T279 1413T312 1398T327 1382T331 1360Q337 1135 329 815ZM604 1331V846Q604 813 627 804T718 791Q749 725 716 672H163Q131 725 161 788Q243
795 266 804T290 844Q292 930 292 1331Q292 1362 269 1371T163 1386Q133 1450 165 1503H718Q751 1450 720 1384Q653 1380 630 1371T604 1331Z" />
<glyph unicode="&#xbd;" glyph-name="onehalf" horiz-adv-x="1704" d="M329 815Q329 803 325 794T310 777T291 766T258 757T214 750T192 748Q182 725 192 705H682Q686 711 686 725T682 748Q675 748 608 756T520 776T494 797T489 815Q477 1055 491 1360Q491 1370
495 1377T520 1397T592 1416T660 1425T684 1427Q688 1436 688 1450T684 1470H194Q184 1450 194 1427Q196 1427 227 1424T279 1413T312 1398T327 1382T331 1360Q337 1135 329 815ZM604 1331V846Q604 813 627 804T718 791Q749 725 716 672H163Q131 725 161 788Q243
795 266 804T290 844Q292 930 292 1331Q292 1362 269 1371T163 1386Q133 1450 165 1503H718Q751 1450 720 1384Q653 1380 630 1371T604 1331ZM1329 319L1051 99Q1057 58 1075 40H1581Q1585 56 1614 155T1655 304Q1649 306 1632 306Q1553 189 1452 189H1288V204L1469
343Q1512 376 1538 401T1591 479T1618 591Q1618 697 1548 758T1354 820Q1233 820 1166 764T1098 597Q1098 476 1213 413Q1225 417 1241 439Q1235 443 1225 456T1203 505T1190 581Q1190 650 1233 691T1333 732Q1385 732 1428 693T1471 562Q1471 415 1329 319ZM1739
591Q1739 466 1614 349Q1667 347 1708 312L1624 -1H1061Q1020 34 1006 116L1307 353Q1432 443 1432 562Q1432 669 1356 687Q1311 681 1300 658T1288 581Q1288 546 1302 514T1331 468L1346 454Q1331 378 1266 372H1206Q1200 374 1190 379T1154 402T1108 443T1072
507T1055 597Q1055 728 1135 794T1354 861Q1544 861 1641 790T1739 591ZM1458 230Q1538 237 1602 337Q1575 314 1536 292L1438 230H1458ZM463 -111L555 -135L1296 1540L1200 1565L463 -111ZM577 -182L408 -137L1178 1612H1249L1423 1567L649 -182H577Z" />
<glyph unicode="&#xbe;" glyph-name="threequarters" horiz-adv-x="1704" d="M209 911Q209 936 193 952Q175 952 160 944T133 923T115 893T109 858Q109 832 122 808T163 766T237 736T347 725Q402 725 456 744T553 798T623 881T650 989Q650 1027 639 1056T608 1107T561
1143T502 1165V1167Q617 1206 617 1329Q617 1370 601 1402T557 1456T492 1491T412 1503Q281 1503 220 1454T158 1323Q158 1263 207 1217Q238 1218 250 1241Q242 1268 242 1309Q242 1351 269 1380T357 1409Q382 1409 403 1401T440 1380T463 1348T472 1309Q472 1194
357 1157L273 1130L299 1075Q338 1092 379 1092Q504 1092 504 975Q504 882 456 833T330 784Q257 784 217 806T176 874Q176 885 185 898T209 911ZM285 1214Q256 1182 191 1171Q117 1264 117 1323Q117 1542 447 1542Q572 1542 665 1490T758 1329Q758 1229 680 1171Q791
1114 791 989Q791 852 667 768T377 684Q207 684 138 739T68 858Q68 911 102 952T193 993Q334 993 334 874Q334 840 310 815Q375 815 419 860T463 975Q463 1030 416 1044Q388 1038 351 1022H279L218 1155L332 1192Q431 1225 431 1309Q431 1337 410 1355T359 1378Q261
1356 285 1214ZM422 -111L514 -135L1255 1540L1159 1565L422 -111ZM536 -182L367 -137L1137 1612H1208L1382 1567L608 -182H536ZM1240 284H1033L1240 507V284ZM908 237V194H1240V-7H1398V194H1508V284H1398V730H1334L908 237ZM867 153V251L1316 771H1510V325H1621V153H1510V-48H1199V153H867Z"
/>
<glyph unicode="&#xbf;" glyph-name="questiondown" horiz-adv-x="1137" d="M641 1217Q608 1217 578 1230T526 1265T490 1316T477 1380Q477 1414 490 1443T525 1495T577 1531T641 1544Q866 1544 866 1380Q866 1217 641 1217ZM549 1466Q518 1432 518 1380Q518 1355
526 1333T550 1294T584 1267T627 1257Q649 1257 668 1267T703 1293T726 1332T735 1380Q735 1406 727 1428T703 1467T669 1493T627 1503Q582 1503 549 1466ZM846 403Q922 403 966 361T1010 240Q1010 123 893 27T565 -70Q358 -70 220 27T82 301Q82 385 105 453T181
578T268 664T373 743Q455 805 506 877T557 1016V1167H788V985Q788 852 753 775T618 608Q575 569 548 538T493 436T465 279Q465 207 500 152T612 88Q715 96 745 139Q692 176 692 252Q692 315 735 359T846 403ZM588 45Q449 45 387 114T324 279Q324 377 357 453T438
581T532 684T613 811T647 985V1126H598V1016Q598 938 543 857T397 711Q332 664 299 637T217 557T146 442T123 301Q123 145 256 58T586 -29Q739 -29 844 48T950 233Q950 293 915 325T827 358Q813 332 827 311Q879 297 879 242Q879 154 804 100T588 45Z" />
<glyph unicode="&#xc0;" glyph-name="Agrave" horiz-adv-x="1757" d="M1687 41Q1631 44 1579 49T1483 65T1411 91T1372 133L819 1499Q802 1498 786 1485Q779 1361 710 1286L733 1227L311 166Q271 66 65 41Q59 27 59 16Q59 4 65 -8Q179 -4 248 -2T344 0Q367 0 448
-2T670 -8Q676 4 676 16Q676 27 670 41Q587 49 535 58T454 79T415 103T405 134Q405 145 409 156L555 522Q666 524 734 525T829 526Q886 526 930 526T1007 524L1152 156Q1157 141 1157 133Q1157 106 1130 85T1062 56L954 41Q948 27 948 16Q948 4 954 -8Q1039 -5
1126 -3T1306 -1Q1398 -1 1492 -3T1687 -8Q1694 6 1694 16Q1694 22 1692 28T1687 41ZM829 604Q684 604 590 608L780 1098H784L975 606Q921 604 829 604ZM782 993L649 647Q770 641 915 645L782 993ZM1718 78Q1743 18 1716 -49H923Q899 20 923 78Q1032 84 1077 100T1108
154L977 485Q792 492 581 481L452 150Q446 133 461 120T512 98T594 85T700 78Q725 18 698 -49Q370 -37 37 -49Q10 18 35 78Q241 102 268 168L690 1229Q686 1237 675 1265T661 1303Q739 1382 747 1507Q835 1550 954 1556L1515 164Q1534 117 1575 102T1718 78ZM973
1706L731 2007Q695 2054 639 2054Q600 2054 577 2031T553 1968Q553 1917 590 1895L944 1669L973 1706ZM834 2034L1096 1708L1028 1614H957L563 1864Q512 1897 512 1968Q512 2026 547 2060T639 2095Q785 2095 834 2034Z" />
<glyph unicode="&#xc1;" glyph-name="Aacute" horiz-adv-x="1757" d="M1687 41Q1631 44 1579 49T1483 65T1411 91T1372 133L819 1499Q802 1498 786 1485Q779 1361 710 1286L733 1227L311 166Q271 66 65 41Q59 27 59 16Q59 4 65 -8Q179 -4 248 -2T344 0Q367 0 448
-2T670 -8Q676 4 676 16Q676 27 670 41Q587 49 535 58T454 79T415 103T405 134Q405 145 409 156L555 522Q666 524 734 525T829 526Q886 526 930 526T1007 524L1152 156Q1157 141 1157 133Q1157 106 1130 85T1062 56L954 41Q948 27 948 16Q948 4 954 -8Q1039 -5
1126 -3T1306 -1Q1398 -1 1492 -3T1687 -8Q1694 6 1694 16Q1694 22 1692 28T1687 41ZM829 604Q684 604 590 608L780 1098H784L975 606Q921 604 829 604ZM782 993L649 647Q770 641 915 645L782 993ZM1718 78Q1743 18 1716 -49H923Q899 20 923 78Q1032 84 1077 100T1108
154L977 485Q792 492 581 481L452 150Q446 133 461 120T512 98T594 85T700 78Q725 18 698 -49Q370 -37 37 -49Q10 18 35 78Q241 102 268 168L690 1229Q686 1237 675 1265T661 1303Q739 1382 747 1507Q835 1550 954 1556L1515 164Q1534 117 1575 102T1718 78ZM958
2007L717 1706L745 1669L1100 1895Q1137 1917 1137 1968Q1137 2007 1113 2030T1051 2054Q995 2054 958 2007ZM666 1708L926 2032Q977 2095 1051 2095H1122Q1180 2095 1214 2061T1249 1968Q1249 1897 1198 1864L805 1614H733L666 1708Z" />
<glyph unicode="&#xc2;" glyph-name="Acircumflex" horiz-adv-x="1757" d="M1687 41Q1631 44 1579 49T1483 65T1411 91T1372 133L819 1499Q802 1498 786 1485Q779 1361 710 1286L733 1227L311 166Q271 66 65 41Q59 27 59 16Q59 4 65 -8Q179 -4 248 -2T344 0Q367
0 448 -2T670 -8Q676 4 676 16Q676 27 670 41Q587 49 535 58T454 79T415 103T405 134Q405 145 409 156L555 522Q666 524 734 525T829 526Q886 526 930 526T1007 524L1152 156Q1157 141 1157 133Q1157 106 1130 85T1062 56L954 41Q948 27 948 16Q948 4 954 -8Q1039
-5 1126 -3T1306 -1Q1398 -1 1492 -3T1687 -8Q1694 6 1694 16Q1694 22 1692 28T1687 41ZM829 604Q684 604 590 608L780 1098H784L975 606Q921 604 829 604ZM782 993L649 647Q770 641 915 645L782 993ZM1718 78Q1743 18 1716 -49H923Q899 20 923 78Q1032 84 1077
100T1108 154L977 485Q792 492 581 481L452 150Q446 133 461 120T512 98T594 85T700 78Q725 18 698 -49Q370 -37 37 -49Q10 18 35 78Q241 102 268 168L690 1229Q686 1237 675 1265T661 1303Q739 1382 747 1507Q835 1550 954 1556L1515 164Q1534 117 1575 102T1718
78ZM625 1653L866 1831L1108 1653H1182L926 1985H807L551 1653H625ZM1094 1612L901 1753L711 1612H469L787 2026H1018L1335 1612H1094Z" />
<glyph unicode="&#xc3;" glyph-name="Atilde" horiz-adv-x="1757" d="M1687 41Q1631 44 1579 49T1483 65T1411 91T1372 133L819 1499Q802 1498 786 1485Q779 1361 710 1286L733 1227L311 166Q271 66 65 41Q59 27 59 16Q59 4 65 -8Q179 -4 248 -2T344 0Q367 0 448
-2T670 -8Q676 4 676 16Q676 27 670 41Q587 49 535 58T454 79T415 103T405 134Q405 145 409 156L555 522Q666 524 734 525T829 526Q886 526 930 526T1007 524L1152 156Q1157 141 1157 133Q1157 106 1130 85T1062 56L954 41Q948 27 948 16Q948 4 954 -8Q1039 -5
1126 -3T1306 -1Q1398 -1 1492 -3T1687 -8Q1694 6 1694 16Q1694 22 1692 28T1687 41ZM829 604Q684 604 590 608L780 1098H784L975 606Q921 604 829 604ZM782 993L649 647Q770 641 915 645L782 993ZM1718 78Q1743 18 1716 -49H923Q899 20 923 78Q1032 84 1077 100T1108
154L977 485Q792 492 581 481L452 150Q446 133 461 120T512 98T594 85T700 78Q725 18 698 -49Q370 -37 37 -49Q10 18 35 78Q241 102 268 168L690 1229Q686 1237 675 1265T661 1303Q739 1382 747 1507Q835 1550 954 1556L1515 164Q1534 117 1575 102T1718 78ZM1200
1927H1138Q1116 1854 1036 1854Q1005 1854 900 1884T747 1915Q612 1915 532 1714H587Q634 1776 700 1776Q745 1776 836 1745T976 1714Q1136 1714 1200 1927ZM1107 1968H1327Q1237 1673 1048 1673Q948 1673 739 1727Q712 1714 679 1673H471Q585 1956 747 1956Q841
1956 1060 1901Q1091 1917 1107 1968Z" />
<glyph unicode="&#xc4;" glyph-name="Adieresis" horiz-adv-x="1757" d="M1687 41Q1631 44 1579 49T1483 65T1411 91T1372 133L819 1499Q802 1498 786 1485Q779 1361 710 1286L733 1227L311 166Q271 66 65 41Q59 27 59 16Q59 4 65 -8Q179 -4 248 -2T344 0Q367
0 448 -2T670 -8Q676 4 676 16Q676 27 670 41Q587 49 535 58T454 79T415 103T405 134Q405 145 409 156L555 522Q666 524 734 525T829 526Q886 526 930 526T1007 524L1152 156Q1157 141 1157 133Q1157 106 1130 85T1062 56L954 41Q948 27 948 16Q948 4 954 -8Q1039
-5 1126 -3T1306 -1Q1398 -1 1492 -3T1687 -8Q1694 6 1694 16Q1694 22 1692 28T1687 41ZM829 604Q684 604 590 608L780 1098H784L975 606Q921 604 829 604ZM782 993L649 647Q770 641 915 645L782 993ZM1718 78Q1743 18 1716 -49H923Q899 20 923 78Q1032 84 1077
100T1108 154L977 485Q792 492 581 481L452 150Q446 133 461 120T512 98T594 85T700 78Q725 18 698 -49Q370 -37 37 -49Q10 18 35 78Q241 102 268 168L690 1229Q686 1237 675 1265T661 1303Q739 1382 747 1507Q835 1550 954 1556L1515 164Q1534 117 1575 102T1718
78ZM569 1913Q538 1879 538 1827Q538 1801 547 1779T571 1740T606 1714T647 1704Q668 1704 688 1713T723 1739T747 1778T756 1827Q756 1853 747 1875T723 1914T688 1940T647 1950Q626 1950 606 1941T569 1913ZM942 1913Q911 1879 911 1827Q911 1802 919 1780T943
1741T977 1714T1020 1704Q1042 1704 1061 1714T1096 1740T1119 1779T1128 1827Q1128 1852 1120 1874T1096 1913T1062 1940T1020 1950Q975 1950 942 1913ZM1034 1991Q1259 1991 1259 1827Q1259 1663 1034 1663Q981 1663 938 1693T878 1772Q848 1663 661 1663Q627
1663 598 1676T546 1711T511 1764T498 1827Q498 1860 511 1890T546 1942T597 1978T661 1991Q848 1991 878 1880Q895 1929 938 1960T1034 1991Z" />
<glyph unicode="&#xc5;" glyph-name="Aring" horiz-adv-x="1757" d="M1687 41Q1631 44 1579 49T1483 65T1411 91T1372 133L819 1499Q802 1498 786 1485Q779 1361 710 1286L733 1227L311 166Q271 66 65 41Q59 27 59 16Q59 4 65 -8Q179 -4 248 -2T344 0Q367 0 448
-2T670 -8Q676 4 676 16Q676 27 670 41Q587 49 535 58T454 79T415 103T405 134Q405 145 409 156L555 522Q666 524 734 525T829 526Q886 526 930 526T1007 524L1152 156Q1157 141 1157 133Q1157 106 1130 85T1062 56L954 41Q948 27 948 16Q948 4 954 -8Q1039 -5
1126 -3T1306 -1Q1398 -1 1492 -3T1687 -8Q1694 6 1694 16Q1694 22 1692 28T1687 41ZM829 604Q684 604 590 608L780 1098H784L975 606Q921 604 829 604ZM782 993L649 647Q770 641 915 645L782 993ZM1718 78Q1743 18 1716 -49H923Q899 20 923 78Q1032 84 1077 100T1108
154L977 485Q792 492 581 481L452 150Q446 133 461 120T512 98T594 85T700 78Q725 18 698 -49Q370 -37 37 -49Q10 18 35 78Q241 102 268 168L690 1229Q686 1237 675 1265T661 1303Q739 1382 747 1507Q835 1550 954 1556L1515 164Q1534 117 1575 102T1718 78ZM641
1848Q641 1804 656 1767T699 1702T763 1659T844 1643Q887 1643 924 1658T990 1700T1033 1765T1049 1848Q1049 1895 1032 1932T985 1996T919 2036T844 2050Q807 2050 771 2037T706 1997T659 1934T641 1848ZM723 1846Q723 1871 733 1893T759 1932T798 1958T844 1968Q869
1968 891 1958T930 1930T957 1891T967 1845Q967 1822 957 1801T930 1762T891 1735T844 1725Q821 1725 800 1735T761 1761T734 1800T723 1846ZM600 1848Q600 1905 621 1950T677 2026T756 2074T844 2091H916Q962 2091 1006 2074T1084 2026T1140 1949T1161 1848Q1161
1795 1143 1750T1093 1672T1015 1621T916 1602H844Q790 1602 746 1620T669 1672T618 1750T600 1848ZM836 1846Q836 1798 881 1774Q926 1798 926 1845Q926 1893 879 1917Q836 1898 836 1846Z" />
<glyph unicode="&#xc6;" glyph-name="AE" horiz-adv-x="2404" d="M1047 662H728L431 152Q417 122 432 112T462 98T522 89T603 82Q625 18 603 -49Q310 -37 13 -49Q-20 16 11 80Q203 102 240 164L951 1368Q926 1372 814 1384Q795 1454 818 1513Q1125 1503 1225 1503H2192Q2217
1307 2348 1090Q2325 1042 2241 1012Q2159 1161 2000 1260T1586 1360H1422Q1412 1001 1412 809Q1475 807 1594 807Q1678 807 1728 863T1838 1040L1881 1124Q1965 1094 1987 1047Q1942 969 1912 879T1881 733Q1881 600 1987 420Q1963 369 1885 342Q1848 403 1832
436Q1791 504 1768 537T1697 605T1592 641H1412Q1412 420 1420 102H1627Q1881 102 2040 201T2282 451Q2366 420 2389 373Q2258 156 2233 -41H1404Q1008 -41 816 -47Q795 18 814 80Q1033 102 1035 139Q1045 401 1047 662ZM1074 1335H1078Q1088 1100 1088 764H742L1074
1335ZM705 702H1088Q1088 420 1076 137Q1074 63 844 41Q840 6 844 -6Q1037 0 1309 0H1742Q1987 0 2111 84T2335 373Q2327 389 2301 399Q2118 61 1629 61H1268Q1258 498 1258 700L1584 702Q1627 702 1665 688T1725 660T1777 604T1819 545T1861 468T1901 393Q1932
406 1940 420Q1840 590 1840 733Q1840 795 1868 884T1940 1047Q1932 1061 1901 1073Q1893 1059 1870 1013T1839 954T1811 904T1777 856T1741 821T1696 789T1646 773T1584 766Q1369 766 1258 770Q1258 1012 1270 1401H1588Q2077 1401 2260 1063Q2286 1073 2294 1090Q2194
1294 2070 1378T1701 1462H1197Q1072 1462 847 1470V1423Q955 1415 1012 1393L275 143Q226 63 42 41Q38 29 38 17T42 -8Q324 8 572 -8Q576 8 576 16T572 41Q480 49 454 54T413 65T384 82T369 110T380 145L705 702ZM1047 809L1045 1204L812 807L1047 809Z" />
<glyph unicode="&#xc7;" glyph-name="Ccedilla" horiz-adv-x="1659" d="M928 -317Q928 -291 901 -281Q866 -287 801 -305Q846 -354 893 -365Q928 -352 928 -317ZM862 -174L905 -41Q1063 -41 1222 28T1475 233Q1475 246 1464 255T1438 264Q1288 82 997 82Q690 82
534 267T377 729Q377 854 404 970T490 1193T657 1366T911 1432Q1010 1432 1094 1401T1232 1328T1337 1216T1415 1094T1479 963Q1509 967 1516 985Q1442 1282 1293 1392T911 1503Q817 1503 719 1481T518 1401T335 1259T205 1037T154 729Q154 571 198 441T311 227T474
84T657 -3T842 -39L776 -250Q827 -236 872 -236Q969 -236 969 -317Q969 -358 939 -385T860 -412Q774 -412 729 -365L702 -395Q764 -489 895 -489Q989 -489 1041 -437T1094 -313Q1094 -244 1056 -207T954 -170Q885 -170 862 -174ZM651 -393L717 -309L786 -72Q664
-53 552 -2T338 139T175 382T113 729Q113 915 168 1061T309 1296T510 1442T733 1522T952 1544Q1102 1544 1278 1504T1530 1454Q1497 1325 1504 1228T1561 989Q1532 930 1454 918Q1411 1014 1375 1076T1279 1216T1136 1337T950 1389Q836 1380 751 1317T620 1154T552
949T530 729Q530 477 657 306T1036 123Q1280 135 1419 305Q1458 305 1487 280T1516 219Q1434 102 1305 29T1036 -70L1018 -129Q1120 -129 1177 -176T1235 -313Q1235 -401 1164 -465T967 -530T770 -498T651 -393Z" />
<glyph unicode="&#xc8;" glyph-name="Egrave" horiz-adv-x="1714" d="M956 1462H453Q328 1462 102 1470V1423Q332 1401 334 1327Q344 1092 344 768Q344 451 332 137Q330 63 100 41Q96 6 100 -6Q293 0 997 0Q1243 0 1367 84T1591 373Q1583 389 1556 399Q1374 61
885 61H524Q514 498 514 700L840 702Q883 702 920 688T980 660T1033 604T1075 545T1117 468T1157 393Q1188 406 1196 420Q1096 590 1096 733Q1096 795 1124 884T1196 1047Q1188 1061 1157 1073Q1149 1059 1126 1013T1095 954T1066 904T1032 856T997 821T952 789T901
773T840 766Q625 766 514 770Q514 1012 526 1401H844Q1333 1401 1515 1063Q1542 1073 1550 1090Q1450 1294 1326 1378T956 1462ZM1094 1040L1137 1124Q1221 1094 1243 1047Q1198 969 1168 879T1137 733Q1137 600 1243 420Q1219 369 1141 342Q1104 403 1087 436Q1046
504 1023 537T952 605T848 641H668Q668 420 676 102H883Q1137 102 1296 201T1538 451Q1622 420 1644 373Q1513 156 1489 -41H659Q264 -41 72 -47Q51 18 70 80Q289 102 291 139Q303 453 303 768Q303 1090 293 1325Q291 1362 70 1384Q51 1454 74 1513Q381 1503 481
1503H1448Q1472 1307 1604 1090Q1581 1042 1497 1012Q1415 1161 1256 1260T842 1360H678Q668 1001 668 809Q731 807 850 807Q934 807 984 863T1094 1040ZM973 1706L731 2007Q695 2054 639 2054Q600 2054 577 2031T553 1968Q553 1917 590 1895L944 1669L973 1706ZM834
2034L1096 1708L1028 1614H957L563 1864Q512 1897 512 1968Q512 2026 547 2060T639 2095Q785 2095 834 2034Z" />
<glyph unicode="&#xc9;" glyph-name="Eacute" horiz-adv-x="1714" d="M956 1462H453Q328 1462 102 1470V1423Q332 1401 334 1327Q344 1092 344 768Q344 451 332 137Q330 63 100 41Q96 6 100 -6Q293 0 997 0Q1243 0 1367 84T1591 373Q1583 389 1556 399Q1374 61
885 61H524Q514 498 514 700L840 702Q883 702 920 688T980 660T1033 604T1075 545T1117 468T1157 393Q1188 406 1196 420Q1096 590 1096 733Q1096 795 1124 884T1196 1047Q1188 1061 1157 1073Q1149 1059 1126 1013T1095 954T1066 904T1032 856T997 821T952 789T901
773T840 766Q625 766 514 770Q514 1012 526 1401H844Q1333 1401 1515 1063Q1542 1073 1550 1090Q1450 1294 1326 1378T956 1462ZM1094 1040L1137 1124Q1221 1094 1243 1047Q1198 969 1168 879T1137 733Q1137 600 1243 420Q1219 369 1141 342Q1104 403 1087 436Q1046
504 1023 537T952 605T848 641H668Q668 420 676 102H883Q1137 102 1296 201T1538 451Q1622 420 1644 373Q1513 156 1489 -41H659Q264 -41 72 -47Q51 18 70 80Q289 102 291 139Q303 453 303 768Q303 1090 293 1325Q291 1362 70 1384Q51 1454 74 1513Q381 1503 481
1503H1448Q1472 1307 1604 1090Q1581 1042 1497 1012Q1415 1161 1256 1260T842 1360H678Q668 1001 668 809Q731 807 850 807Q934 807 984 863T1094 1040ZM958 2007L717 1706L745 1669L1100 1895Q1137 1917 1137 1968Q1137 2007 1113 2030T1051 2054Q995 2054 958
2007ZM666 1708L926 2032Q977 2095 1051 2095H1122Q1180 2095 1214 2061T1249 1968Q1249 1897 1198 1864L805 1614H733L666 1708Z" />
<glyph unicode="&#xca;" glyph-name="Ecircumflex" horiz-adv-x="1714" d="M956 1462H453Q328 1462 102 1470V1423Q332 1401 334 1327Q344 1092 344 768Q344 451 332 137Q330 63 100 41Q96 6 100 -6Q293 0 997 0Q1243 0 1367 84T1591 373Q1583 389 1556 399Q1374
61 885 61H524Q514 498 514 700L840 702Q883 702 920 688T980 660T1033 604T1075 545T1117 468T1157 393Q1188 406 1196 420Q1096 590 1096 733Q1096 795 1124 884T1196 1047Q1188 1061 1157 1073Q1149 1059 1126 1013T1095 954T1066 904T1032 856T997 821T952
789T901 773T840 766Q625 766 514 770Q514 1012 526 1401H844Q1333 1401 1515 1063Q1542 1073 1550 1090Q1450 1294 1326 1378T956 1462ZM1094 1040L1137 1124Q1221 1094 1243 1047Q1198 969 1168 879T1137 733Q1137 600 1243 420Q1219 369 1141 342Q1104 403 1087
436Q1046 504 1023 537T952 605T848 641H668Q668 420 676 102H883Q1137 102 1296 201T1538 451Q1622 420 1644 373Q1513 156 1489 -41H659Q264 -41 72 -47Q51 18 70 80Q289 102 291 139Q303 453 303 768Q303 1090 293 1325Q291 1362 70 1384Q51 1454 74 1513Q381
1503 481 1503H1448Q1472 1307 1604 1090Q1581 1042 1497 1012Q1415 1161 1256 1260T842 1360H678Q668 1001 668 809Q731 807 850 807Q934 807 984 863T1094 1040ZM602 1653L843 1831L1085 1653H1159L903 1985H784L528 1653H602ZM1071 1612L878 1753L688 1612H446L764
2026H995L1312 1612H1071Z" />
<glyph unicode="&#xcb;" glyph-name="Edieresis" horiz-adv-x="1714" d="M956 1462H453Q328 1462 102 1470V1423Q332 1401 334 1327Q344 1092 344 768Q344 451 332 137Q330 63 100 41Q96 6 100 -6Q293 0 997 0Q1243 0 1367 84T1591 373Q1583 389 1556 399Q1374
61 885 61H524Q514 498 514 700L840 702Q883 702 920 688T980 660T1033 604T1075 545T1117 468T1157 393Q1188 406 1196 420Q1096 590 1096 733Q1096 795 1124 884T1196 1047Q1188 1061 1157 1073Q1149 1059 1126 1013T1095 954T1066 904T1032 856T997 821T952
789T901 773T840 766Q625 766 514 770Q514 1012 526 1401H844Q1333 1401 1515 1063Q1542 1073 1550 1090Q1450 1294 1326 1378T956 1462ZM1094 1040L1137 1124Q1221 1094 1243 1047Q1198 969 1168 879T1137 733Q1137 600 1243 420Q1219 369 1141 342Q1104 403 1087
436Q1046 504 1023 537T952 605T848 641H668Q668 420 676 102H883Q1137 102 1296 201T1538 451Q1622 420 1644 373Q1513 156 1489 -41H659Q264 -41 72 -47Q51 18 70 80Q289 102 291 139Q303 453 303 768Q303 1090 293 1325Q291 1362 70 1384Q51 1454 74 1513Q381
1503 481 1503H1448Q1472 1307 1604 1090Q1581 1042 1497 1012Q1415 1161 1256 1260T842 1360H678Q668 1001 668 809Q731 807 850 807Q934 807 984 863T1094 1040ZM549 1913Q518 1879 518 1827Q518 1801 527 1779T551 1740T586 1714T627 1704Q648 1704 668 1713T703
1739T727 1778T736 1827Q736 1853 727 1875T703 1914T668 1940T627 1950Q606 1950 586 1941T549 1913ZM922 1913Q891 1879 891 1827Q891 1802 899 1780T923 1741T957 1714T1000 1704Q1022 1704 1041 1714T1076 1740T1099 1779T1108 1827Q1108 1852 1100 1874T1076
1913T1042 1940T1000 1950Q955 1950 922 1913ZM1014 1991Q1239 1991 1239 1827Q1239 1663 1014 1663Q961 1663 918 1693T858 1772Q828 1663 641 1663Q607 1663 578 1676T526 1711T491 1764T478 1827Q478 1860 491 1890T526 1942T577 1978T641 1991Q828 1991 858
1880Q875 1929 918 1960T1014 1991Z" />
<glyph unicode="&#xcc;" glyph-name="Igrave" horiz-adv-x="956" d="M528 137Q520 555 520 768Q520 1014 530 1327Q532 1403 864 1423Q870 1442 864 1470Q602 1462 455 1462Q332 1462 106 1470Q98 1452 106 1423Q336 1401 338 1327Q348 1092 348 768Q348 451 336
137Q334 63 104 41Q96 25 104 -6Q274 0 453 0Q666 0 862 -6Q870 10 862 41Q530 61 528 137ZM74 1384Q57 1450 78 1513Q166 1513 316 1508T526 1503Q569 1503 692 1505T905 1507Q924 1450 907 1384Q686 1362 684 1325Q672 1075 672 694Q672 326 682 139Q682 133
687 127T701 117T721 109T748 100T778 93T810 87T843 82T877 78T907 74Q924 18 901 -49Q532 -41 453 -41Q399 -41 76 -49Q51 20 76 80Q293 102 295 139Q307 389 307 768Q307 1090 297 1325Q295 1362 74 1384ZM595 1706L353 2007Q317 2054 261 2054Q222 2054 199
2031T175 1968Q175 1917 212 1895L566 1669L595 1706ZM456 2034L718 1708L650 1614H579L185 1864Q134 1897 134 1968Q134 2026 169 2060T261 2095Q407 2095 456 2034Z" />
<glyph unicode="&#xcd;" glyph-name="Iacute" horiz-adv-x="956" d="M528 137Q520 555 520 768Q520 1014 530 1327Q532 1403 864 1423Q870 1442 864 1470Q602 1462 455 1462Q332 1462 106 1470Q98 1452 106 1423Q336 1401 338 1327Q348 1092 348 768Q348 451 336
137Q334 63 104 41Q96 25 104 -6Q274 0 453 0Q666 0 862 -6Q870 10 862 41Q530 61 528 137ZM74 1384Q57 1450 78 1513Q166 1513 316 1508T526 1503Q569 1503 692 1505T905 1507Q924 1450 907 1384Q686 1362 684 1325Q672 1075 672 694Q672 326 682 139Q682 133
687 127T701 117T721 109T748 100T778 93T810 87T843 82T877 78T907 74Q924 18 901 -49Q532 -41 453 -41Q399 -41 76 -49Q51 20 76 80Q293 102 295 139Q307 389 307 768Q307 1090 297 1325Q295 1362 74 1384ZM539 2007L298 1706L326 1669L681 1895Q718 1917 718
1968Q718 2007 694 2030T632 2054Q576 2054 539 2007ZM247 1708L507 2032Q558 2095 632 2095H703Q761 2095 795 2061T830 1968Q830 1897 779 1864L386 1614H314L247 1708Z" />
<glyph unicode="&#xce;" glyph-name="Icircumflex" horiz-adv-x="956" d="M528 137Q520 555 520 768Q520 1014 530 1327Q532 1403 864 1423Q870 1442 864 1470Q602 1462 455 1462Q332 1462 106 1470Q98 1452 106 1423Q336 1401 338 1327Q348 1092 348 768Q348
451 336 137Q334 63 104 41Q96 25 104 -6Q274 0 453 0Q666 0 862 -6Q870 10 862 41Q530 61 528 137ZM74 1384Q57 1450 78 1513Q166 1513 316 1508T526 1503Q569 1503 692 1505T905 1507Q924 1450 907 1384Q686 1362 684 1325Q672 1075 672 694Q672 326 682 139Q682
133 687 127T701 117T721 109T748 100T778 93T810 87T843 82T877 78T907 74Q924 18 901 -49Q532 -41 453 -41Q399 -41 76 -49Q51 20 76 80Q293 102 295 139Q307 389 307 768Q307 1090 297 1325Q295 1362 74 1384ZM206 1653L447 1831L689 1653H763L507 1985H388L132
1653H206ZM675 1612L482 1753L292 1612H50L368 2026H599L916 1612H675Z" />
<glyph unicode="&#xcf;" glyph-name="Idieresis" horiz-adv-x="956" d="M528 137Q520 555 520 768Q520 1014 530 1327Q532 1403 864 1423Q870 1442 864 1470Q602 1462 455 1462Q332 1462 106 1470Q98 1452 106 1423Q336 1401 338 1327Q348 1092 348 768Q348 451
336 137Q334 63 104 41Q96 25 104 -6Q274 0 453 0Q666 0 862 -6Q870 10 862 41Q530 61 528 137ZM74 1384Q57 1450 78 1513Q166 1513 316 1508T526 1503Q569 1503 692 1505T905 1507Q924 1450 907 1384Q686 1362 684 1325Q672 1075 672 694Q672 326 682 139Q682
133 687 127T701 117T721 109T748 100T778 93T810 87T843 82T877 78T907 74Q924 18 901 -49Q532 -41 453 -41Q399 -41 76 -49Q51 20 76 80Q293 102 295 139Q307 389 307 768Q307 1090 297 1325Q295 1362 74 1384ZM171 1913Q140 1879 140 1827Q140 1801 149 1779T173
1740T208 1714T249 1704Q270 1704 290 1713T325 1739T349 1778T358 1827Q358 1853 349 1875T325 1914T290 1940T249 1950Q228 1950 208 1941T171 1913ZM544 1913Q513 1879 513 1827Q513 1802 521 1780T545 1741T579 1714T622 1704Q644 1704 663 1714T698 1740T721
1779T730 1827Q730 1852 722 1874T698 1913T664 1940T622 1950Q577 1950 544 1913ZM636 1991Q861 1991 861 1827Q861 1663 636 1663Q583 1663 540 1693T480 1772Q450 1663 263 1663Q229 1663 200 1676T148 1711T113 1764T100 1827Q100 1860 113 1890T148 1942T199
1978T263 1991Q450 1991 480 1880Q497 1929 540 1960T636 1991Z" />
<glyph unicode="&#xd0;" glyph-name="Eth" horiz-adv-x="1827" d="M672 807Q758 807 1010 817V637Q768 637 672 643Q672 418 680 113Q995 121 1153 290T1311 739Q1311 848 1285 947T1202 1141T1036 1293T778 1356Q729 1356 684 1350Q674 1051 672 807ZM348 766Q188
770 110 774V678Q266 682 348 682Q348 451 336 137Q334 63 104 41Q94 18 104 -6Q319 0 674 0Q801 0 919 19T1160 91T1371 223T1517 436T1575 739Q1575 1470 772 1470Q698 1470 562 1467T316 1464T106 1470Q98 1452 106 1423Q336 1401 338 1327Q348 1092 348 766ZM518
766Q518 1065 530 1386Q639 1399 760 1399Q893 1399 998 1357T1169 1250T1277 1095T1335 919T1352 739Q1352 436 1182 254T692 72Q584 72 528 74Q518 489 518 684Q565 684 958 678V774Q784 766 518 766ZM307 809Q307 1106 297 1325Q295 1362 74 1384Q57 1448 78
1513Q201 1511 844 1511Q983 1511 1099 1494T1337 1426T1541 1291T1676 1067T1728 737Q1728 557 1667 418T1508 194T1276 55T1014 -20T745 -41Q410 -41 76 -49Q51 20 76 80Q293 102 295 139Q307 471 307 639L70 635V817L307 809Z" />
<glyph unicode="&#xd1;" glyph-name="Ntilde" horiz-adv-x="1810" d="M1294 639V770Q1294 1001 1284 1313Q1282 1366 1065 1384Q1051 1419 1051 1448Q1051 1466 1065 1509Q1217 1503 1370 1503T1686 1509Q1700 1466 1700 1448Q1700 1419 1686 1384Q1479 1364 1477
1313Q1464 1102 1464 696Q1464 238 1477 -45L1395 -47L446 1114Q446 1096 445 1049T444 975Q444 492 457 152Q459 98 676 80Q690 45 690 16Q690 -6 676 -49Q522 -43 371 -43Q217 -43 55 -49Q41 -6 41 16Q41 45 55 80Q262 100 264 152Q276 362 276 768Q276 1079
268 1323Q203 1374 70 1384Q55 1411 55 1446Q55 1483 74 1513Q283 1503 602 1503L1294 639ZM1423 696Q1423 999 1436 1313Q1440 1403 1657 1423Q1665 1440 1657 1470Q1468 1464 1389 1464Q1264 1464 1104 1470Q1096 1440 1104 1423Q1323 1403 1325 1313Q1335 1001
1335 770Q1335 635 1331 406L469 1462Q244 1462 96 1470Q88 1446 96 1423Q225 1415 309 1341Q317 1098 317 768Q317 465 305 152Q301 61 84 41Q76 25 84 -6Q272 0 352 0Q477 0 637 -6Q645 25 637 41Q418 61 416 152Q406 463 406 694Q406 958 412 1217H422L1415
-6L1434 -4Q1423 231 1423 696ZM1207 1927H1145Q1123 1854 1043 1854Q1012 1854 907 1884T754 1915Q619 1915 539 1714H594Q641 1776 707 1776Q752 1776 843 1745T983 1714Q1143 1714 1207 1927ZM1114 1968H1334Q1244 1673 1055 1673Q955 1673 746 1727Q719 1714
686 1673H478Q592 1956 754 1956Q848 1956 1067 1901Q1098 1917 1114 1968Z" />
<glyph unicode="&#xd2;" glyph-name="Ograve" horiz-adv-x="1888" d="M946 1389Q869 1383 808 1352T701 1272T623 1159T570 1024T540 878T530 729Q530 656 539 581T570 434T623 300T702 189T809 110T946 74Q1024 80 1085 110T1192 189T1271 301T1324 435T1354
581T1364 729Q1364 802 1355 877T1325 1024T1272 1159T1193 1272T1085 1352T946 1389ZM911 31Q812 31 734 60T597 140T496 259T428 404T389 565T377 729Q377 809 389 892T427 1054T495 1201T596 1321T733 1402T911 1432Q1002 1432 1074 1403T1200 1322T1294 1201T1357
1054T1393 893T1405 729Q1405 649 1394 567T1359 407T1296 261T1202 141T1075 61T911 31ZM911 -41Q980 -41 1060 -27T1219 21T1373 112T1503 254T1594 457T1628 729Q1628 880 1595 996T1505 1199T1376 1343T1223 1436T1063 1487T911 1503Q842 1503 759 1490T592
1443T429 1352T289 1209T191 1005T154 729Q154 577 189 461T284 260T420 117T582 24T751 -26T911 -41ZM946 -86Q745 -86 590 -28T329 137T168 394T113 729Q113 913 168 1063T329 1320T590 1485T946 1544Q1135 1544 1289 1490T1553 1333T1722 1077T1782 729Q1782
532 1723 381T1554 125T1290 -32T946 -86ZM1079 1706L837 2007Q801 2054 745 2054Q706 2054 683 2031T659 1968Q659 1917 696 1895L1050 1669L1079 1706ZM940 2034L1202 1708L1134 1614H1063L669 1864Q618 1897 618 1968Q618 2026 653 2060T745 2095Q891 2095 940
2034Z" />
<glyph unicode="&#xd3;" glyph-name="Oacute" horiz-adv-x="1888" d="M946 1389Q869 1383 808 1352T701 1272T623 1159T570 1024T540 878T530 729Q530 656 539 581T570 434T623 300T702 189T809 110T946 74Q1024 80 1085 110T1192 189T1271 301T1324 435T1354
581T1364 729Q1364 802 1355 877T1325 1024T1272 1159T1193 1272T1085 1352T946 1389ZM911 31Q812 31 734 60T597 140T496 259T428 404T389 565T377 729Q377 809 389 892T427 1054T495 1201T596 1321T733 1402T911 1432Q1002 1432 1074 1403T1200 1322T1294 1201T1357
1054T1393 893T1405 729Q1405 649 1394 567T1359 407T1296 261T1202 141T1075 61T911 31ZM911 -41Q980 -41 1060 -27T1219 21T1373 112T1503 254T1594 457T1628 729Q1628 880 1595 996T1505 1199T1376 1343T1223 1436T1063 1487T911 1503Q842 1503 759 1490T592
1443T429 1352T289 1209T191 1005T154 729Q154 577 189 461T284 260T420 117T582 24T751 -26T911 -41ZM946 -86Q745 -86 590 -28T329 137T168 394T113 729Q113 913 168 1063T329 1320T590 1485T946 1544Q1135 1544 1289 1490T1553 1333T1722 1077T1782 729Q1782
532 1723 381T1554 125T1290 -32T946 -86ZM1003 2007L762 1706L790 1669L1145 1895Q1182 1917 1182 1968Q1182 2007 1158 2030T1096 2054Q1040 2054 1003 2007ZM711 1708L971 2032Q1022 2095 1096 2095H1167Q1225 2095 1259 2061T1294 1968Q1294 1897 1243 1864L850
1614H778L711 1708Z" />
<glyph unicode="&#xd4;" glyph-name="Ocircumflex" horiz-adv-x="1888" d="M946 1389Q869 1383 808 1352T701 1272T623 1159T570 1024T540 878T530 729Q530 656 539 581T570 434T623 300T702 189T809 110T946 74Q1024 80 1085 110T1192 189T1271 301T1324 435T1354
581T1364 729Q1364 802 1355 877T1325 1024T1272 1159T1193 1272T1085 1352T946 1389ZM911 31Q812 31 734 60T597 140T496 259T428 404T389 565T377 729Q377 809 389 892T427 1054T495 1201T596 1321T733 1402T911 1432Q1002 1432 1074 1403T1200 1322T1294 1201T1357
1054T1393 893T1405 729Q1405 649 1394 567T1359 407T1296 261T1202 141T1075 61T911 31ZM911 -41Q980 -41 1060 -27T1219 21T1373 112T1503 254T1594 457T1628 729Q1628 880 1595 996T1505 1199T1376 1343T1223 1436T1063 1487T911 1503Q842 1503 759 1490T592
1443T429 1352T289 1209T191 1005T154 729Q154 577 189 461T284 260T420 117T582 24T751 -26T911 -41ZM946 -86Q745 -86 590 -28T329 137T168 394T113 729Q113 913 168 1063T329 1320T590 1485T946 1544Q1135 1544 1289 1490T1553 1333T1722 1077T1782 729Q1782
532 1723 381T1554 125T1290 -32T946 -86ZM690 1653L931 1831L1173 1653H1247L991 1985H872L616 1653H690ZM1159 1612L966 1753L776 1612H534L852 2026H1083L1400 1612H1159Z" />
<glyph unicode="&#xd5;" glyph-name="Otilde" horiz-adv-x="1888" d="M946 1389Q869 1383 808 1352T701 1272T623 1159T570 1024T540 878T530 729Q530 656 539 581T570 434T623 300T702 189T809 110T946 74Q1024 80 1085 110T1192 189T1271 301T1324 435T1354
581T1364 729Q1364 802 1355 877T1325 1024T1272 1159T1193 1272T1085 1352T946 1389ZM911 31Q812 31 734 60T597 140T496 259T428 404T389 565T377 729Q377 809 389 892T427 1054T495 1201T596 1321T733 1402T911 1432Q1002 1432 1074 1403T1200 1322T1294 1201T1357
1054T1393 893T1405 729Q1405 649 1394 567T1359 407T1296 261T1202 141T1075 61T911 31ZM911 -41Q980 -41 1060 -27T1219 21T1373 112T1503 254T1594 457T1628 729Q1628 880 1595 996T1505 1199T1376 1343T1223 1436T1063 1487T911 1503Q842 1503 759 1490T592
1443T429 1352T289 1209T191 1005T154 729Q154 577 189 461T284 260T420 117T582 24T751 -26T911 -41ZM946 -86Q745 -86 590 -28T329 137T168 394T113 729Q113 913 168 1063T329 1320T590 1485T946 1544Q1135 1544 1289 1490T1553 1333T1722 1077T1782 729Q1782
532 1723 381T1554 125T1290 -32T946 -86ZM1246 1927H1184Q1162 1854 1082 1854Q1051 1854 946 1884T793 1915Q658 1915 578 1714H633Q680 1776 746 1776Q791 1776 882 1745T1022 1714Q1182 1714 1246 1927ZM1153 1968H1373Q1283 1673 1094 1673Q994 1673 785 1727Q758
1714 725 1673H517Q631 1956 793 1956Q887 1956 1106 1901Q1137 1917 1153 1968Z" />
<glyph unicode="&#xd6;" glyph-name="Odieresis" horiz-adv-x="1888" d="M946 1389Q869 1383 808 1352T701 1272T623 1159T570 1024T540 878T530 729Q530 656 539 581T570 434T623 300T702 189T809 110T946 74Q1024 80 1085 110T1192 189T1271 301T1324 435T1354
581T1364 729Q1364 802 1355 877T1325 1024T1272 1159T1193 1272T1085 1352T946 1389ZM911 31Q812 31 734 60T597 140T496 259T428 404T389 565T377 729Q377 809 389 892T427 1054T495 1201T596 1321T733 1402T911 1432Q1002 1432 1074 1403T1200 1322T1294 1201T1357
1054T1393 893T1405 729Q1405 649 1394 567T1359 407T1296 261T1202 141T1075 61T911 31ZM911 -41Q980 -41 1060 -27T1219 21T1373 112T1503 254T1594 457T1628 729Q1628 880 1595 996T1505 1199T1376 1343T1223 1436T1063 1487T911 1503Q842 1503 759 1490T592
1443T429 1352T289 1209T191 1005T154 729Q154 577 189 461T284 260T420 117T582 24T751 -26T911 -41ZM946 -86Q745 -86 590 -28T329 137T168 394T113 729Q113 913 168 1063T329 1320T590 1485T946 1544Q1135 1544 1289 1490T1553 1333T1722 1077T1782 729Q1782
532 1723 381T1554 125T1290 -32T946 -86ZM635 1913Q604 1879 604 1827Q604 1801 613 1779T637 1740T672 1714T713 1704Q734 1704 754 1713T789 1739T813 1778T822 1827Q822 1853 813 1875T789 1914T754 1940T713 1950Q692 1950 672 1941T635 1913ZM1008 1913Q977
1879 977 1827Q977 1802 985 1780T1009 1741T1043 1714T1086 1704Q1108 1704 1127 1714T1162 1740T1185 1779T1194 1827Q1194 1852 1186 1874T1162 1913T1128 1940T1086 1950Q1041 1950 1008 1913ZM1100 1991Q1325 1991 1325 1827Q1325 1663 1100 1663Q1047 1663
1004 1693T944 1772Q914 1663 727 1663Q693 1663 664 1676T612 1711T577 1764T564 1827Q564 1860 577 1890T612 1942T663 1978T727 1991Q914 1991 944 1880Q961 1929 1004 1960T1100 1991Z" />
<glyph unicode="&#xd7;" glyph-name="multiply" horiz-adv-x="1571" d="M309 350L391 268L752 629L1114 268L1194 350L834 711L1196 1073L1114 1155L752 793L391 1153L309 1073L670 711L309 350ZM391 211L252 350L612 711L252 1073L391 1210H463L786 885L1114
1212H1186L1325 1073L963 711L1323 350L1186 211H1114L786 535L463 211H391Z" />
<glyph unicode="&#xd8;" glyph-name="Oslash" horiz-adv-x="1888" d="M1405 729Q1405 604 1380 489T1300 267T1145 96T911 31Q725 31 582 164L1307 1178Q1405 989 1405 729ZM377 729Q377 854 404 970T490 1193T657 1366T911 1432Q1114 1432 1243 1276L508 252Q377
455 377 729ZM1417 1331L1577 1554L1489 1620L1327 1395Q1141 1503 911 1503Q815 1503 719 1483T519 1407T335 1268T205 1045T154 729Q154 324 414 121L244 -117L332 -182L504 59Q688 -41 911 -41Q1004 -41 1094 -21T1283 54T1457 191T1580 413T1628 729Q1628 1124
1417 1331ZM514 4L342 -240L186 -127L358 113Q113 328 113 729Q113 915 167 1061T306 1296T504 1442T727 1522T948 1544Q1171 1544 1333 1473L1479 1677L1634 1565L1499 1378Q1782 1124 1782 729Q1782 543 1728 398T1588 164T1390 19T1168 -60T946 -82Q737 -82
514 4ZM530 729Q530 555 575 418L1192 1274Q1100 1374 950 1389Q836 1380 751 1317T620 1154T552 949T530 729ZM1364 729Q1364 928 1303 1108L668 213Q715 152 790 115T942 72Q1057 80 1142 143T1274 305T1342 509T1364 729Z" />
<glyph unicode="&#xd9;" glyph-name="Ugrave" horiz-adv-x="1874" d="M252 1327Q250 1364 29 1386Q20 1417 20 1446Q20 1479 33 1516Q121 1516 271 1511T481 1505Q524 1505 647 1507T860 1509Q870 1479 870 1448Q870 1419 862 1386Q641 1364 639 1327Q635 1257
635 596Q635 344 714 224T977 94Q1171 106 1276 235T1382 596Q1382 1071 1376 1311Q1374 1360 1161 1391Q1153 1415 1153 1440Q1153 1470 1167 1511Q1450 1503 1505 1503Q1612 1503 1778 1509Q1792 1466 1792 1446Q1792 1415 1778 1384Q1571 1364 1569 1311Q1559
1118 1559 596Q1559 440 1518 319T1414 123T1266 1T1104 -64T946 -82Q786 -82 670 -54T457 47T311 256T262 596Q262 1085 252 1327ZM485 1329Q487 1405 819 1425Q825 1444 819 1473Q557 1464 410 1464Q287 1464 61 1473Q53 1454 61 1425Q106 1421 135 1417T206
1403T270 1374T293 1327Q303 1010 303 596Q303 406 349 277T486 80T686 -14T946 -41Q1020 -41 1093 -25T1245 37T1382 151T1480 336T1518 596Q1518 1075 1528 1313Q1532 1401 1749 1421Q1757 1438 1749 1468Q1561 1462 1481 1462Q1356 1462 1196 1468Q1188 1452
1196 1421Q1415 1401 1417 1313Q1423 1073 1423 596Q1423 334 1299 194T942 53Q690 53 586 182T481 596Q481 1194 485 1329ZM1012 1706L770 2007Q734 2054 678 2054Q639 2054 616 2031T592 1968Q592 1917 629 1895L983 1669L1012 1706ZM873 2034L1135 1708L1067
1614H996L602 1864Q551 1897 551 1968Q551 2026 586 2060T678 2095Q824 2095 873 2034Z" />
<glyph unicode="&#xda;" glyph-name="Uacute" horiz-adv-x="1874" d="M252 1327Q250 1364 29 1386Q20 1417 20 1446Q20 1479 33 1516Q121 1516 271 1511T481 1505Q524 1505 647 1507T860 1509Q870 1479 870 1448Q870 1419 862 1386Q641 1364 639 1327Q635 1257
635 596Q635 344 714 224T977 94Q1171 106 1276 235T1382 596Q1382 1071 1376 1311Q1374 1360 1161 1391Q1153 1415 1153 1440Q1153 1470 1167 1511Q1450 1503 1505 1503Q1612 1503 1778 1509Q1792 1466 1792 1446Q1792 1415 1778 1384Q1571 1364 1569 1311Q1559
1118 1559 596Q1559 440 1518 319T1414 123T1266 1T1104 -64T946 -82Q786 -82 670 -54T457 47T311 256T262 596Q262 1085 252 1327ZM485 1329Q487 1405 819 1425Q825 1444 819 1473Q557 1464 410 1464Q287 1464 61 1473Q53 1454 61 1425Q106 1421 135 1417T206
1403T270 1374T293 1327Q303 1010 303 596Q303 406 349 277T486 80T686 -14T946 -41Q1020 -41 1093 -25T1245 37T1382 151T1480 336T1518 596Q1518 1075 1528 1313Q1532 1401 1749 1421Q1757 1438 1749 1468Q1561 1462 1481 1462Q1356 1462 1196 1468Q1188 1452
1196 1421Q1415 1401 1417 1313Q1423 1073 1423 596Q1423 334 1299 194T942 53Q690 53 586 182T481 596Q481 1194 485 1329ZM1140 2007L899 1706L927 1669L1282 1895Q1319 1917 1319 1968Q1319 2007 1295 2030T1233 2054Q1177 2054 1140 2007ZM848 1708L1108 2032Q1159
2095 1233 2095H1304Q1362 2095 1396 2061T1431 1968Q1431 1897 1380 1864L987 1614H915L848 1708Z" />
<glyph unicode="&#xdb;" glyph-name="Ucircumflex" horiz-adv-x="1874" d="M252 1327Q250 1364 29 1386Q20 1417 20 1446Q20 1479 33 1516Q121 1516 271 1511T481 1505Q524 1505 647 1507T860 1509Q870 1479 870 1448Q870 1419 862 1386Q641 1364 639 1327Q635
1257 635 596Q635 344 714 224T977 94Q1171 106 1276 235T1382 596Q1382 1071 1376 1311Q1374 1360 1161 1391Q1153 1415 1153 1440Q1153 1470 1167 1511Q1450 1503 1505 1503Q1612 1503 1778 1509Q1792 1466 1792 1446Q1792 1415 1778 1384Q1571 1364 1569 1311Q1559
1118 1559 596Q1559 440 1518 319T1414 123T1266 1T1104 -64T946 -82Q786 -82 670 -54T457 47T311 256T262 596Q262 1085 252 1327ZM485 1329Q487 1405 819 1425Q825 1444 819 1473Q557 1464 410 1464Q287 1464 61 1473Q53 1454 61 1425Q106 1421 135 1417T206
1403T270 1374T293 1327Q303 1010 303 596Q303 406 349 277T486 80T686 -14T946 -41Q1020 -41 1093 -25T1245 37T1382 151T1480 336T1518 596Q1518 1075 1528 1313Q1532 1401 1749 1421Q1757 1438 1749 1468Q1561 1462 1481 1462Q1356 1462 1196 1468Q1188 1452
1196 1421Q1415 1401 1417 1313Q1423 1073 1423 596Q1423 334 1299 194T942 53Q690 53 586 182T481 596Q481 1194 485 1329ZM723 1653L964 1831L1206 1653H1280L1024 1985H905L649 1653H723ZM1192 1612L999 1753L809 1612H567L885 2026H1116L1433 1612H1192Z" />
<glyph unicode="&#xdc;" glyph-name="Udieresis" horiz-adv-x="1874" d="M252 1327Q250 1364 29 1386Q20 1417 20 1446Q20 1479 33 1516Q121 1516 271 1511T481 1505Q524 1505 647 1507T860 1509Q870 1479 870 1448Q870 1419 862 1386Q641 1364 639 1327Q635 1257
635 596Q635 344 714 224T977 94Q1171 106 1276 235T1382 596Q1382 1071 1376 1311Q1374 1360 1161 1391Q1153 1415 1153 1440Q1153 1470 1167 1511Q1450 1503 1505 1503Q1612 1503 1778 1509Q1792 1466 1792 1446Q1792 1415 1778 1384Q1571 1364 1569 1311Q1559
1118 1559 596Q1559 440 1518 319T1414 123T1266 1T1104 -64T946 -82Q786 -82 670 -54T457 47T311 256T262 596Q262 1085 252 1327ZM485 1329Q487 1405 819 1425Q825 1444 819 1473Q557 1464 410 1464Q287 1464 61 1473Q53 1454 61 1425Q106 1421 135 1417T206
1403T270 1374T293 1327Q303 1010 303 596Q303 406 349 277T486 80T686 -14T946 -41Q1020 -41 1093 -25T1245 37T1382 151T1480 336T1518 596Q1518 1075 1528 1313Q1532 1401 1749 1421Q1757 1438 1749 1468Q1561 1462 1481 1462Q1356 1462 1196 1468Q1188 1452
1196 1421Q1415 1401 1417 1313Q1423 1073 1423 596Q1423 334 1299 194T942 53Q690 53 586 182T481 596Q481 1194 485 1329ZM649 1913Q618 1879 618 1827Q618 1801 627 1779T651 1740T686 1714T727 1704Q748 1704 768 1713T803 1739T827 1778T836 1827Q836 1853
827 1875T803 1914T768 1940T727 1950Q706 1950 686 1941T649 1913ZM1022 1913Q991 1879 991 1827Q991 1802 999 1780T1023 1741T1057 1714T1100 1704Q1122 1704 1141 1714T1176 1740T1199 1779T1208 1827Q1208 1852 1200 1874T1176 1913T1142 1940T1100 1950Q1055
1950 1022 1913ZM1114 1991Q1339 1991 1339 1827Q1339 1663 1114 1663Q1061 1663 1018 1693T958 1772Q928 1663 741 1663Q707 1663 678 1676T626 1711T591 1764T578 1827Q578 1860 591 1890T626 1942T677 1978T741 1991Q928 1991 958 1880Q975 1929 1018 1960T1114
1991Z" />
<glyph unicode="&#xdd;" glyph-name="Yacute" horiz-adv-x="1573" d="M967 141Q969 104 1190 82Q1204 23 1186 -45Q911 -41 772 -41Q635 -41 360 -45Q328 14 360 82Q578 104 580 139Q590 416 592 635L219 1284Q170 1366 -12 1384Q-20 1415 -20 1444Q-20 1475 -8
1511Q203 1503 489 1503Q696 1503 795 1507Q805 1473 805 1448Q805 1419 795 1382Q688 1374 647 1364T606 1333Q606 1327 850 889Q1122 1341 1122 1346Q1122 1356 1110 1364T1078 1377T1040 1384T1000 1388T973 1391Q956 1444 979 1511Q1163 1503 1253 1503Q1337
1503 1497 1511Q1520 1442 1497 1384Q1343 1370 1294 1292L956 750Q956 344 967 141ZM621 137Q618 63 389 41Q379 16 389 -8Q831 0 1147 -6Q1155 14 1147 43Q815 63 813 137Q803 424 803 582L1260 1313Q1319 1409 1468 1423Q1477 1440 1468 1470Q1356 1464 1241
1464Q1137 1464 1008 1470Q999 1454 1008 1423Q1155 1407 1165 1358Q1169 1339 1153 1313L791 715L463 1300Q428 1366 484 1387T756 1423Q764 1452 756 1470Q461 1456 20 1470Q12 1452 20 1423Q197 1407 256 1300L633 643Q631 408 621 137ZM989 2007L748 1706L776
1669L1131 1895Q1168 1917 1168 1968Q1168 2007 1144 2030T1082 2054Q1026 2054 989 2007ZM697 1708L957 2032Q1008 2095 1082 2095H1153Q1211 2095 1245 2061T1280 1968Q1280 1897 1229 1864L836 1614H764L697 1708Z" />
<glyph unicode="&#xde;" glyph-name="Thorn" horiz-adv-x="1442" d="M749 1108Q1022 1108 1022 774Q1022 612 950 515T739 418Q606 418 520 440Q512 711 522 1081Q614 1108 749 1108ZM528 1327Q530 1403 862 1423Q868 1442 862 1470Q600 1462 453 1462Q330 1462
104 1470Q96 1452 104 1423Q338 1401 338 1327Q340 922 336 137Q336 63 104 41Q96 25 104 -6Q274 0 453 0Q666 0 862 -6Q870 10 862 41Q530 61 528 137Q524 215 520 375Q641 332 817 332Q1020 332 1130 457T1241 772Q1241 965 1130 1079T829 1194Q635 1194 524
1153Q524 1212 528 1327ZM981 774Q981 1051 774 1065Q717 1063 674 1051Q666 784 672 471Q715 463 762 459Q868 467 924 553T981 774ZM682 1325Q680 1290 680 1225Q752 1235 901 1235Q1126 1235 1260 1109T1395 772Q1395 565 1263 428T889 291Q727 291 674 301Q678
195 682 139Q682 133 687 127T704 115T746 100T837 84T907 74Q924 18 901 -49Q532 -41 453 -41Q399 -41 76 -49Q51 20 76 80Q293 102 295 139Q307 729 295 1325Q295 1362 72 1384Q55 1450 76 1513Q164 1513 314 1508T524 1503Q565 1503 688 1505T903 1507Q922 1450
905 1384Q684 1362 682 1325Z" />
<glyph unicode="&#xdf;" glyph-name="germandbls" horiz-adv-x="1290" d="M133 -43H55Q39 16 55 78Q219 94 221 139Q225 238 225 1122Q233 1559 678 1559Q764 1559 839 1540T978 1479T1079 1364T1116 1190Q1116 938 952 836Q1200 752 1200 414Q1200 297 1161 190T1036
6T835 -70Q668 -70 573 4L575 -41L133 -43ZM840 414Q840 475 832 519T798 615T711 697T557 731Q557 475 561 229Q596 270 663 270Q788 270 788 141Q788 96 764 68Q778 68 789 79T809 108T823 148T832 197T837 249T840 303T840 349T840 388T840 414ZM762 1190Q762
1382 676 1409Q557 1384 557 1200V874Q678 874 720 960T762 1190ZM758 33Q686 33 654 62T622 131Q622 186 674 201Q684 225 674 248Q620 248 586 215T551 123Q551 66 609 19T764 -29Q901 -29 980 107T1059 414Q1059 598 973 703T727 817V825Q975 895 975 1190Q975
1360 875 1440T645 1520Q602 1520 560 1514T463 1482T366 1416T296 1300T266 1122Q266 236 262 137Q260 63 92 41Q82 16 92 -8L432 0L424 137Q416 317 416 1200Q416 1454 645 1454Q803 1454 803 1190Q803 1130 798 1083T777 988T737 907T666 854T559 834H534V772H563Q668
772 736 740T833 648T871 537T880 414Q880 252 863 165T823 56T758 33Z" />
<glyph unicode="&#xe0;" glyph-name="agrave" horiz-adv-x="1145" d="M330 727Q377 719 404 691T432 618Q432 565 397 531T305 496Q246 496 198 538T150 657Q150 788 274 869T600 950Q791 950 868 874T946 616V266L1010 268Q1092 262 1124 190L1092 135Q1061 88
1041 63T982 5T893 -41T774 -55Q690 -55 647 8Q539 -70 365 -70Q289 -70 236 -47T158 16T123 89T113 158Q113 305 212 378T612 528V637Q612 717 579 754T492 791Q379 791 330 727ZM653 434V225Q557 98 457 98Q399 98 363 126T326 205Q326 287 393 340T653 434ZM612
238V360Q467 307 467 205Q467 162 498 145Q551 164 612 238ZM305 584Q270 584 256 635Q236 717 305 778Q373 838 510 838Q575 838 614 788T653 637V498Q358 422 256 355T154 158Q154 90 200 31T365 -29Q412 -29 453 -14T539 34T594 77T627 108T653 133Q666 -14
774 -14Q801 -14 836 0T906 55T951 109T980 152T1008 193Q995 221 958 225Q903 141 846 143Q805 145 805 201V616Q805 776 743 842T528 909Q391 909 291 839T190 657Q190 600 225 569T305 537Q319 557 305 584ZM925 1120L683 1421Q647 1468 591 1468Q552 1468 529
1445T505 1382Q505 1331 542 1309L896 1083L925 1120ZM786 1448L1048 1122L980 1028H909L515 1278Q464 1311 464 1382Q464 1440 499 1474T591 1509Q737 1509 786 1448Z" />
<glyph unicode="&#xe1;" glyph-name="aacute" horiz-adv-x="1145" d="M330 727Q377 719 404 691T432 618Q432 565 397 531T305 496Q246 496 198 538T150 657Q150 788 274 869T600 950Q791 950 868 874T946 616V266L1010 268Q1092 262 1124 190L1092 135Q1061 88
1041 63T982 5T893 -41T774 -55Q690 -55 647 8Q539 -70 365 -70Q289 -70 236 -47T158 16T123 89T113 158Q113 305 212 378T612 528V637Q612 717 579 754T492 791Q379 791 330 727ZM653 434V225Q557 98 457 98Q399 98 363 126T326 205Q326 287 393 340T653 434ZM612
238V360Q467 307 467 205Q467 162 498 145Q551 164 612 238ZM305 584Q270 584 256 635Q236 717 305 778Q373 838 510 838Q575 838 614 788T653 637V498Q358 422 256 355T154 158Q154 90 200 31T365 -29Q412 -29 453 -14T539 34T594 77T627 108T653 133Q666 -14
774 -14Q801 -14 836 0T906 55T951 109T980 152T1008 193Q995 221 958 225Q903 141 846 143Q805 145 805 201V616Q805 776 743 842T528 909Q391 909 291 839T190 657Q190 600 225 569T305 537Q319 557 305 584ZM889 1421L648 1120L676 1083L1031 1309Q1068 1331
1068 1382Q1068 1421 1044 1444T982 1468Q926 1468 889 1421ZM597 1122L857 1446Q908 1509 982 1509H1053Q1111 1509 1145 1475T1180 1382Q1180 1311 1129 1278L736 1028H664L597 1122Z" />
<glyph unicode="&#xe2;" glyph-name="acircumflex" horiz-adv-x="1145" d="M330 727Q377 719 404 691T432 618Q432 565 397 531T305 496Q246 496 198 538T150 657Q150 788 274 869T600 950Q791 950 868 874T946 616V266L1010 268Q1092 262 1124 190L1092 135Q1061
88 1041 63T982 5T893 -41T774 -55Q690 -55 647 8Q539 -70 365 -70Q289 -70 236 -47T158 16T123 89T113 158Q113 305 212 378T612 528V637Q612 717 579 754T492 791Q379 791 330 727ZM653 434V225Q557 98 457 98Q399 98 363 126T326 205Q326 287 393 340T653 434ZM612
238V360Q467 307 467 205Q467 162 498 145Q551 164 612 238ZM305 584Q270 584 256 635Q236 717 305 778Q373 838 510 838Q575 838 614 788T653 637V498Q358 422 256 355T154 158Q154 90 200 31T365 -29Q412 -29 453 -14T539 34T594 77T627 108T653 133Q666 -14
774 -14Q801 -14 836 0T906 55T951 109T980 152T1008 193Q995 221 958 225Q903 141 846 143Q805 145 805 201V616Q805 776 743 842T528 909Q391 909 291 839T190 657Q190 600 225 569T305 537Q319 557 305 584ZM558 1067L799 1245L1041 1067H1115L859 1399H740L484
1067H558ZM1027 1026L834 1167L644 1026H402L720 1440H951L1268 1026H1027Z" />
<glyph unicode="&#xe3;" glyph-name="atilde" horiz-adv-x="1145" d="M330 727Q377 719 404 691T432 618Q432 565 397 531T305 496Q246 496 198 538T150 657Q150 788 274 869T600 950Q791 950 868 874T946 616V266L1010 268Q1092 262 1124 190L1092 135Q1061 88
1041 63T982 5T893 -41T774 -55Q690 -55 647 8Q539 -70 365 -70Q289 -70 236 -47T158 16T123 89T113 158Q113 305 212 378T612 528V637Q612 717 579 754T492 791Q379 791 330 727ZM653 434V225Q557 98 457 98Q399 98 363 126T326 205Q326 287 393 340T653 434ZM612
238V360Q467 307 467 205Q467 162 498 145Q551 164 612 238ZM305 584Q270 584 256 635Q236 717 305 778Q373 838 510 838Q575 838 614 788T653 637V498Q358 422 256 355T154 158Q154 90 200 31T365 -29Q412 -29 453 -14T539 34T594 77T627 108T653 133Q666 -14
774 -14Q801 -14 836 0T906 55T951 109T980 152T1008 193Q995 221 958 225Q903 141 846 143Q805 145 805 201V616Q805 776 743 842T528 909Q391 909 291 839T190 657Q190 600 225 569T305 537Q319 557 305 584ZM1132 1341H1070Q1048 1268 968 1268Q937 1268 832
1298T679 1329Q544 1329 464 1128H519Q566 1190 632 1190Q677 1190 768 1159T908 1128Q1068 1128 1132 1341ZM1039 1382H1259Q1169 1087 980 1087Q880 1087 671 1141Q644 1128 611 1087H403Q517 1370 679 1370Q773 1370 992 1315Q1023 1331 1039 1382Z" />
<glyph unicode="&#xe4;" glyph-name="adieresis" horiz-adv-x="1145" d="M330 727Q377 719 404 691T432 618Q432 565 397 531T305 496Q246 496 198 538T150 657Q150 788 274 869T600 950Q791 950 868 874T946 616V266L1010 268Q1092 262 1124 190L1092 135Q1061
88 1041 63T982 5T893 -41T774 -55Q690 -55 647 8Q539 -70 365 -70Q289 -70 236 -47T158 16T123 89T113 158Q113 305 212 378T612 528V637Q612 717 579 754T492 791Q379 791 330 727ZM653 434V225Q557 98 457 98Q399 98 363 126T326 205Q326 287 393 340T653 434ZM612
238V360Q467 307 467 205Q467 162 498 145Q551 164 612 238ZM305 584Q270 584 256 635Q236 717 305 778Q373 838 510 838Q575 838 614 788T653 637V498Q358 422 256 355T154 158Q154 90 200 31T365 -29Q412 -29 453 -14T539 34T594 77T627 108T653 133Q666 -14
774 -14Q801 -14 836 0T906 55T951 109T980 152T1008 193Q995 221 958 225Q903 141 846 143Q805 145 805 201V616Q805 776 743 842T528 909Q391 909 291 839T190 657Q190 600 225 569T305 537Q319 557 305 584ZM521 1327Q490 1293 490 1241Q490 1215 499 1193T523
1154T558 1128T599 1118Q620 1118 640 1127T675 1153T699 1192T708 1241Q708 1267 699 1289T675 1328T640 1354T599 1364Q578 1364 558 1355T521 1327ZM894 1327Q863 1293 863 1241Q863 1216 871 1194T895 1155T929 1128T972 1118Q994 1118 1013 1128T1048 1154T1071
1193T1080 1241Q1080 1266 1072 1288T1048 1327T1014 1354T972 1364Q927 1364 894 1327ZM986 1405Q1211 1405 1211 1241Q1211 1077 986 1077Q933 1077 890 1107T830 1186Q800 1077 613 1077Q579 1077 550 1090T498 1125T463 1178T450 1241Q450 1274 463 1304T498
1356T549 1392T613 1405Q800 1405 830 1294Q847 1343 890 1374T986 1405Z" />
<glyph unicode="&#xe5;" glyph-name="aring" horiz-adv-x="1145" d="M330 727Q377 719 404 691T432 618Q432 565 397 531T305 496Q246 496 198 538T150 657Q150 788 274 869T600 950Q791 950 868 874T946 616V266L1010 268Q1092 262 1124 190L1092 135Q1061 88
1041 63T982 5T893 -41T774 -55Q690 -55 647 8Q539 -70 365 -70Q289 -70 236 -47T158 16T123 89T113 158Q113 305 212 378T612 528V637Q612 717 579 754T492 791Q379 791 330 727ZM653 434V225Q557 98 457 98Q399 98 363 126T326 205Q326 287 393 340T653 434ZM612
238V360Q467 307 467 205Q467 162 498 145Q551 164 612 238ZM305 584Q270 584 256 635Q236 717 305 778Q373 838 510 838Q575 838 614 788T653 637V498Q358 422 256 355T154 158Q154 90 200 31T365 -29Q412 -29 453 -14T539 34T594 77T627 108T653 133Q666 -14
774 -14Q801 -14 836 0T906 55T951 109T980 152T1008 193Q995 221 958 225Q903 141 846 143Q805 145 805 201V616Q805 776 743 842T528 909Q391 909 291 839T190 657Q190 600 225 569T305 537Q319 557 305 584ZM593 1262Q593 1218 608 1181T651 1116T715 1073T796
1057Q839 1057 876 1072T942 1114T985 1179T1001 1262Q1001 1309 984 1346T937 1410T871 1450T796 1464Q759 1464 723 1451T658 1411T611 1348T593 1262ZM675 1260Q675 1285 685 1307T711 1346T750 1372T796 1382Q821 1382 843 1372T882 1344T909 1305T919 1259Q919
1236 909 1215T882 1176T843 1149T796 1139Q773 1139 752 1149T713 1175T686 1214T675 1260ZM552 1262Q552 1319 573 1364T629 1440T708 1488T796 1505H868Q914 1505 958 1488T1036 1440T1092 1363T1113 1262Q1113 1209 1095 1164T1045 1086T967 1035T868 1016H796Q742
1016 698 1034T621 1086T570 1164T552 1262ZM788 1260Q788 1212 833 1188Q878 1212 878 1259Q878 1307 831 1331Q788 1312 788 1260Z" />
<glyph unicode="&#xe6;" glyph-name="ae" horiz-adv-x="1608" d="M1067 844Q1147 844 1183 793T1219 664Q1219 635 1208 598H819Q850 723 919 783T1067 844ZM653 434V178Q563 98 457 98Q399 98 363 126T326 205Q326 287 393 340T653 434ZM528 909Q391 909 291
839T190 657Q190 600 225 569T305 537Q319 557 305 584Q285 584 270 607T254 666Q254 731 311 783T496 838Q567 836 610 786T653 637V498Q358 422 256 355T154 158Q154 90 200 31T365 -29Q440 -29 505 -6T611 47T727 139Q838 -29 1057 -29Q1180 -29 1285 37T1440
238Q1425 254 1401 260Q1397 254 1378 228T1349 190T1316 157T1271 125T1217 106T1145 96Q991 96 900 186T805 424L809 530H1354Q1370 580 1370 633Q1370 750 1304 829T1092 909Q922 909 801 793Q739 909 528 909ZM1178 664Q1178 774 1104 797Q1016 770 973 639H1176Q1176
643 1177 651T1178 664ZM612 197V360Q467 307 467 205Q467 158 504 143Q563 154 612 197ZM489 795Q379 791 330 727Q377 719 404 691T432 618Q432 565 397 531T305 496Q246 496 198 538T150 657Q150 788 265 869T565 950Q754 950 850 883Q965 950 1163 950Q1343
950 1427 858T1511 633Q1511 571 1483 489H946V424Q950 303 1011 228T1180 139Q1243 145 1284 182T1384 307Q1448 293 1487 244Q1430 88 1311 9T1057 -70Q885 -70 752 47Q672 -14 591 -42T365 -70Q289 -70 236 -47T158 16T123 89T113 158Q113 305 212 378T612 528V637Q612
711 581 753T489 795Z" />
<glyph unicode="&#xe7;" glyph-name="ccedilla" horiz-adv-x="1090" d="M319 -248L381 -37Q319 -12 268 29T179 127T122 259T102 424Q102 541 141 638T248 804T408 912T608 950Q687 950 753 931T866 878T940 797T967 694Q967 659 955 632T921 584T869 554T805
543Q680 543 680 653Q680 722 766 754Q709 793 647 799Q463 772 463 424Q463 162 657 139Q774 154 885 299Q951 292 989 244Q964 176 925 122T836 28T730 -35T612 -68Q663 -68 704 -80T776 -116T822 -174T838 -252Q838 -296 819 -335T765 -404T681 -451T569 -469Q506
-469 458 -461T373 -437T307 -394T254 -332L319 -248ZM465 -113L494 -23Q528 -29 559 -29Q682 -29 787 37T942 238Q928 254 903 260Q877 223 861 206T807 157T724 111T623 96Q467 96 395 187T322 424Q322 844 608 844Q723 844 789 806T856 694Q856 633 805 618Q791
592 805 571Q856 571 891 606T926 694Q926 788 838 848T608 909Q410 909 277 775T143 424Q143 244 225 136T434 -10L379 -188Q430 -174 475 -174Q571 -174 571 -256Q571 -297 542 -323T463 -350Q377 -350 332 -303L305 -334Q367 -428 498 -428Q592 -428 644 -376T696
-252Q696 -182 659 -146T557 -109Q487 -109 465 -113ZM530 -256Q530 -229 504 -219Q469 -225 403 -244Q449 -293 496 -303Q530 -291 530 -256Z" />
<glyph unicode="&#xe8;" glyph-name="egrave" horiz-adv-x="1106" d="M565 844Q645 844 681 793T717 664Q717 635 707 598H317Q348 723 417 783T565 844ZM307 530H852Q868 580 868 633Q868 750 802 829T590 909Q401 909 272 772T143 424Q143 199 266 85T555 -29Q678
-29 783 37T938 238Q924 254 899 260Q895 254 876 228T847 190T815 157T770 125T715 106T643 96Q489 96 398 187T303 434Q303 469 307 530ZM883 307Q946 293 985 244Q928 88 809 9T555 -70Q371 -70 237 54T102 424Q102 647 239 798T629 950Q1010 950 1010 633Q1010
571 981 489H444V424Q449 303 510 228T678 139Q741 145 782 182T883 307ZM676 664Q676 774 602 797Q514 770 471 639H674Q674 643 675 651T676 664ZM729 1120L487 1421Q451 1468 395 1468Q356 1468 333 1445T309 1382Q309 1331 346 1309L700 1083L729 1120ZM590
1448L852 1122L784 1028H713L319 1278Q268 1311 268 1382Q268 1440 303 1474T395 1509Q541 1509 590 1448Z" />
<glyph unicode="&#xe9;" glyph-name="eacute" horiz-adv-x="1106" d="M565 844Q645 844 681 793T717 664Q717 635 707 598H317Q348 723 417 783T565 844ZM307 530H852Q868 580 868 633Q868 750 802 829T590 909Q401 909 272 772T143 424Q143 199 266 85T555 -29Q678
-29 783 37T938 238Q924 254 899 260Q895 254 876 228T847 190T815 157T770 125T715 106T643 96Q489 96 398 187T303 434Q303 469 307 530ZM883 307Q946 293 985 244Q928 88 809 9T555 -70Q371 -70 237 54T102 424Q102 647 239 798T629 950Q1010 950 1010 633Q1010
571 981 489H444V424Q449 303 510 228T678 139Q741 145 782 182T883 307ZM676 664Q676 774 602 797Q514 770 471 639H674Q674 643 675 651T676 664ZM932 1421L691 1120L719 1083L1074 1309Q1111 1331 1111 1382Q1111 1421 1087 1444T1025 1468Q969 1468 932 1421ZM640
1122L900 1446Q951 1509 1025 1509H1096Q1154 1509 1188 1475T1223 1382Q1223 1311 1172 1278L779 1028H707L640 1122Z" />
<glyph unicode="&#xea;" glyph-name="ecircumflex" horiz-adv-x="1106" d="M565 844Q645 844 681 793T717 664Q717 635 707 598H317Q348 723 417 783T565 844ZM307 530H852Q868 580 868 633Q868 750 802 829T590 909Q401 909 272 772T143 424Q143 199 266 85T555
-29Q678 -29 783 37T938 238Q924 254 899 260Q895 254 876 228T847 190T815 157T770 125T715 106T643 96Q489 96 398 187T303 434Q303 469 307 530ZM883 307Q946 293 985 244Q928 88 809 9T555 -70Q371 -70 237 54T102 424Q102 647 239 798T629 950Q1010 950 1010
633Q1010 571 981 489H444V424Q449 303 510 228T678 139Q741 145 782 182T883 307ZM676 664Q676 774 602 797Q514 770 471 639H674Q674 643 675 651T676 664ZM556 1067L797 1245L1039 1067H1113L857 1399H738L482 1067H556ZM1025 1026L832 1167L642 1026H400L718
1440H949L1266 1026H1025Z" />
<glyph unicode="&#xeb;" glyph-name="edieresis" horiz-adv-x="1106" d="M565 844Q645 844 681 793T717 664Q717 635 707 598H317Q348 723 417 783T565 844ZM307 530H852Q868 580 868 633Q868 750 802 829T590 909Q401 909 272 772T143 424Q143 199 266 85T555
-29Q678 -29 783 37T938 238Q924 254 899 260Q895 254 876 228T847 190T815 157T770 125T715 106T643 96Q489 96 398 187T303 434Q303 469 307 530ZM883 307Q946 293 985 244Q928 88 809 9T555 -70Q371 -70 237 54T102 424Q102 647 239 798T629 950Q1010 950 1010
633Q1010 571 981 489H444V424Q449 303 510 228T678 139Q741 145 782 182T883 307ZM676 664Q676 774 602 797Q514 770 471 639H674Q674 643 675 651T676 664ZM307 1327Q276 1293 276 1241Q276 1215 285 1193T309 1154T344 1128T385 1118Q406 1118 426 1127T461
1153T485 1192T494 1241Q494 1267 485 1289T461 1328T426 1354T385 1364Q364 1364 344 1355T307 1327ZM680 1327Q649 1293 649 1241Q649 1216 657 1194T681 1155T715 1128T758 1118Q780 1118 799 1128T834 1154T857 1193T866 1241Q866 1266 858 1288T834 1327T800
1354T758 1364Q713 1364 680 1327ZM772 1405Q997 1405 997 1241Q997 1077 772 1077Q719 1077 676 1107T616 1186Q586 1077 399 1077Q365 1077 336 1090T284 1125T249 1178T236 1241Q236 1274 249 1304T284 1356T335 1392T399 1405Q586 1405 616 1294Q633 1343 676
1374T772 1405Z" />
<glyph unicode="&#xec;" glyph-name="igrave" horiz-adv-x="780" d="M513 1120L271 1421Q235 1468 179 1468Q140 1468 117 1445T93 1382Q93 1331 130 1309L484 1083L513 1120ZM374 1448L636 1122L568 1028H497L103 1278Q52 1311 52 1382Q52 1440 87 1474T179 1509Q325
1509 374 1448ZM750 41Q512 63 510 137Q500 442 502 879Q494 895 467 905Q328 840 178 823Q172 799 178 776Q291 770 350 735Q359 362 348 137Q346 63 178 41Q168 16 178 -8Q465 -2 750 -8Q760 16 750 41ZM787 78Q803 16 787 -43Q465 -33 142 -43Q125 16 142 78Q305
94 307 139Q320 424 309 711Q242 731 142 737Q119 797 142 864Q293 872 482 954Q590 946 643 889Q639 397 651 139Q654 94 787 78Z" />
<glyph unicode="&#xed;" glyph-name="iacute" horiz-adv-x="780" d="M500 1421L259 1120L287 1083L642 1309Q679 1331 679 1382Q679 1421 655 1444T593 1468Q537 1468 500 1421ZM208 1122L468 1446Q519 1509 593 1509H664Q722 1509 756 1475T791 1382Q791 1311
740 1278L347 1028H275L208 1122ZM690 41Q452 63 450 137Q440 442 442 879Q434 895 407 905Q268 840 118 823Q112 799 118 776Q231 770 290 735Q299 362 288 137Q286 63 118 41Q108 16 118 -8Q405 -2 690 -8Q700 16 690 41ZM727 78Q743 16 727 -43Q405 -33 82 -43Q65
16 82 78Q245 94 247 139Q260 424 249 711Q182 731 82 737Q59 797 82 864Q233 872 422 954Q530 946 583 889Q579 397 591 139Q594 94 727 78Z" />
<glyph unicode="&#xee;" glyph-name="icircumflex" horiz-adv-x="780" d="M108 1067L349 1245L591 1067H665L409 1399H290L34 1067H108ZM577 1026L384 1167L194 1026H-48L270 1440H501L818 1026H577ZM682 41Q444 63 442 137Q432 442 434 879Q426 895 399 905Q260
840 110 823Q104 799 110 776Q223 770 282 735Q291 362 280 137Q278 63 110 41Q100 16 110 -8Q397 -2 682 -8Q692 16 682 41ZM719 78Q735 16 719 -43Q397 -33 74 -43Q57 16 74 78Q237 94 239 139Q252 424 241 711Q174 731 74 737Q51 797 74 864Q225 872 414 954Q522
946 575 889Q571 397 583 139Q586 94 719 78Z" />
<glyph unicode="&#xef;" glyph-name="idieresis" horiz-adv-x="780" d="M62 1327Q31 1293 31 1241Q31 1215 40 1193T64 1154T99 1128T140 1118Q161 1118 181 1127T216 1153T240 1192T249 1241Q249 1267 240 1289T216 1328T181 1354T140 1364Q119 1364 99 1355T62
1327ZM435 1327Q404 1293 404 1241Q404 1216 412 1194T436 1155T470 1128T513 1118Q535 1118 554 1128T589 1154T612 1193T621 1241Q621 1266 613 1288T589 1327T555 1354T513 1364Q468 1364 435 1327ZM527 1405Q752 1405 752 1241Q752 1077 527 1077Q474 1077
431 1107T371 1186Q341 1077 154 1077Q120 1077 91 1090T39 1125T4 1178T-9 1241Q-9 1274 4 1304T39 1356T90 1392T154 1405Q341 1405 371 1294Q388 1343 431 1374T527 1405ZM682 41Q444 63 442 137Q432 442 434 879Q426 895 399 905Q260 840 110 823Q104 799 110
776Q223 770 282 735Q291 362 280 137Q278 63 110 41Q100 16 110 -8Q397 -2 682 -8Q692 16 682 41ZM719 78Q735 16 719 -43Q397 -33 74 -43Q57 16 74 78Q237 94 239 139Q252 424 241 711Q174 731 74 737Q51 797 74 864Q225 872 414 954Q522 946 575 889Q571 397
583 139Q586 94 719 78Z" />
<glyph unicode="&#xf0;" glyph-name="eth" horiz-adv-x="1233" d="M571 844Q674 844 735 747T797 438Q797 375 790 318T762 191T692 79T571 37Q492 37 439 79T362 190T330 317T322 438Q322 506 331 567T364 696T442 804T571 844ZM352 1128L412 1065L578 1233Q727
1055 756 862Q692 909 571 909Q453 909 365 863T230 743T164 592T143 440Q143 309 185 213T294 67T432 -6T571 -29Q639 -29 706 -3T835 75T936 221T975 438Q975 700 906 911T659 1311L811 1462L750 1516L590 1360Q471 1446 315 1516L285 1464Q455 1350 516 1288L352
1128ZM410 1006L297 1130L459 1288Q401 1339 285 1415L227 1452L299 1567H371Q508 1503 614 1440L748 1569H819L944 1466L791 1313Q983 1120 1049 916T1116 438Q1116 303 1071 200T954 40T802 -43T643 -70Q102 -70 102 440Q102 522 124 605T197 769T344 900T571
950Q649 950 690 948Q657 1038 602 1128L481 1006H410ZM756 438Q756 762 606 797Q463 760 463 438Q463 119 608 82Q756 119 756 438Z" />
<glyph unicode="&#xf1;" glyph-name="ntilde" horiz-adv-x="1348" d="M749 46Q737 23 749 -3Q1009 3 1270 -3Q1284 21 1270 46Q1026 58 1024 142L1014 645Q1009 782 970 845T831 909Q665 909 436 680V879Q428 895 401 905Q262 840 112 823Q106 799 112 776Q227
770 282 735Q293 436 282 142Q280 68 110 46Q98 23 110 -3Q370 7 633 -3Q645 23 633 46Q446 66 444 142Q436 350 436 616Q637 793 751 793Q860 793 860 612L858 142Q858 93 828 74T749 46ZM717 -38Q692 21 717 83Q749 83 783 100T817 142L819 612Q819 721 776 745Q702
727 577 637Q577 362 585 144Q590 91 665 83Q690 21 665 -38Q372 -28 76 -38Q51 21 76 83Q239 105 241 144Q252 426 241 711Q174 731 76 737Q53 797 76 864Q227 872 416 954Q524 946 577 889V856Q719 950 903 950Q1038 950 1095 877T1155 645Q1159 248 1165 142Q1167
101 1306 83Q1329 17 1302 -38Q1009 -32 717 -38ZM1020 1341H958Q936 1268 856 1268Q825 1268 720 1298T567 1329Q432 1329 352 1128H407Q454 1190 520 1190Q565 1190 656 1159T796 1128Q956 1128 1020 1341ZM927 1382H1147Q1057 1087 868 1087Q768 1087 559 1141Q532
1128 499 1087H291Q405 1370 567 1370Q661 1370 880 1315Q911 1331 927 1382Z" />
<glyph unicode="&#xf2;" glyph-name="ograve" horiz-adv-x="1212" d="M573 844Q676 844 736 746T797 440Q797 233 737 135T573 37Q516 37 470 61T391 135T340 260T322 440Q322 543 340 619T390 745T469 819T573 844ZM573 -29Q666 -29 740 6T866 103T947 252T975
440Q975 542 947 628T867 776T740 874T573 909Q474 909 394 874T259 777T173 629T143 440Q143 337 173 251T258 103T394 6T573 -29ZM608 950Q729 950 823 913T983 809T1082 647T1116 440Q1116 328 1082 234T984 73T824 -32T608 -70Q488 -70 394 -33T235 72T136
233T102 440Q102 553 136 647T235 808T394 913T608 950ZM463 440Q463 117 608 82Q756 117 756 440Q756 760 608 799Q463 760 463 440ZM937 1120L695 1421Q659 1468 603 1468Q564 1468 541 1445T517 1382Q517 1331 554 1309L908 1083L937 1120ZM798 1448L1060 1122L992
1028H921L527 1278Q476 1311 476 1382Q476 1440 511 1474T603 1509Q749 1509 798 1448Z" />
<glyph unicode="&#xf3;" glyph-name="oacute" horiz-adv-x="1212" d="M573 844Q676 844 736 746T797 440Q797 233 737 135T573 37Q516 37 470 61T391 135T340 260T322 440Q322 543 340 619T390 745T469 819T573 844ZM573 -29Q666 -29 740 6T866 103T947 252T975
440Q975 542 947 628T867 776T740 874T573 909Q474 909 394 874T259 777T173 629T143 440Q143 337 173 251T258 103T394 6T573 -29ZM608 950Q729 950 823 913T983 809T1082 647T1116 440Q1116 328 1082 234T984 73T824 -32T608 -70Q488 -70 394 -33T235 72T136
233T102 440Q102 553 136 647T235 808T394 913T608 950ZM463 440Q463 117 608 82Q756 117 756 440Q756 760 608 799Q463 760 463 440ZM945 1421L704 1120L732 1083L1087 1309Q1124 1331 1124 1382Q1124 1421 1100 1444T1038 1468Q982 1468 945 1421ZM653 1122L913
1446Q964 1509 1038 1509H1109Q1167 1509 1201 1475T1236 1382Q1236 1311 1185 1278L792 1028H720L653 1122Z" />
<glyph unicode="&#xf4;" glyph-name="ocircumflex" horiz-adv-x="1212" d="M573 844Q676 844 736 746T797 440Q797 233 737 135T573 37Q516 37 470 61T391 135T340 260T322 440Q322 543 340 619T390 745T469 819T573 844ZM573 -29Q666 -29 740 6T866 103T947 252T975
440Q975 542 947 628T867 776T740 874T573 909Q474 909 394 874T259 777T173 629T143 440Q143 337 173 251T258 103T394 6T573 -29ZM608 950Q729 950 823 913T983 809T1082 647T1116 440Q1116 328 1082 234T984 73T824 -32T608 -70Q488 -70 394 -33T235 72T136
233T102 440Q102 553 136 647T235 808T394 913T608 950ZM463 440Q463 117 608 82Q756 117 756 440Q756 760 608 799Q463 760 463 440ZM336 1067L577 1245L819 1067H893L637 1399H518L262 1067H336ZM805 1026L612 1167L422 1026H180L498 1440H729L1046 1026H805Z"
/>
<glyph unicode="&#xf5;" glyph-name="otilde" horiz-adv-x="1212" d="M573 844Q676 844 736 746T797 440Q797 233 737 135T573 37Q516 37 470 61T391 135T340 260T322 440Q322 543 340 619T390 745T469 819T573 844ZM573 -29Q666 -29 740 6T866 103T947 252T975
440Q975 542 947 628T867 776T740 874T573 909Q474 909 394 874T259 777T173 629T143 440Q143 337 173 251T258 103T394 6T573 -29ZM608 950Q729 950 823 913T983 809T1082 647T1116 440Q1116 328 1082 234T984 73T824 -32T608 -70Q488 -70 394 -33T235 72T136
233T102 440Q102 553 136 647T235 808T394 913T608 950ZM463 440Q463 117 608 82Q756 117 756 440Q756 760 608 799Q463 760 463 440ZM1173 1341H1111Q1089 1268 1009 1268Q978 1268 873 1298T720 1329Q585 1329 505 1128H560Q607 1190 673 1190Q718 1190 809 1159T949
1128Q1109 1128 1173 1341ZM1080 1382H1300Q1210 1087 1021 1087Q921 1087 712 1141Q685 1128 652 1087H444Q558 1370 720 1370Q814 1370 1033 1315Q1064 1331 1080 1382Z" />
<glyph unicode="&#xf6;" glyph-name="odieresis" horiz-adv-x="1212" d="M573 844Q676 844 736 746T797 440Q797 233 737 135T573 37Q516 37 470 61T391 135T340 260T322 440Q322 543 340 619T390 745T469 819T573 844ZM573 -29Q666 -29 740 6T866 103T947 252T975
440Q975 542 947 628T867 776T740 874T573 909Q474 909 394 874T259 777T173 629T143 440Q143 337 173 251T258 103T394 6T573 -29ZM608 950Q729 950 823 913T983 809T1082 647T1116 440Q1116 328 1082 234T984 73T824 -32T608 -70Q488 -70 394 -33T235 72T136
233T102 440Q102 553 136 647T235 808T394 913T608 950ZM463 440Q463 117 608 82Q756 117 756 440Q756 760 608 799Q463 760 463 440ZM556 1327Q525 1293 525 1241Q525 1215 534 1193T558 1154T593 1128T634 1118Q655 1118 675 1127T710 1153T734 1192T743 1241Q743
1267 734 1289T710 1328T675 1354T634 1364Q613 1364 593 1355T556 1327ZM929 1327Q898 1293 898 1241Q898 1216 906 1194T930 1155T964 1128T1007 1118Q1029 1118 1048 1128T1083 1154T1106 1193T1115 1241Q1115 1266 1107 1288T1083 1327T1049 1354T1007 1364Q962
1364 929 1327ZM1021 1405Q1246 1405 1246 1241Q1246 1077 1021 1077Q968 1077 925 1107T865 1186Q835 1077 648 1077Q614 1077 585 1090T533 1125T498 1178T485 1241Q485 1274 498 1304T533 1356T584 1392T648 1405Q835 1405 865 1294Q882 1343 925 1374T1021
1405Z" />
<glyph unicode="&#xf7;" glyph-name="divide" horiz-adv-x="1571" d="M631 379Q631 352 640 329T664 288T701 260T745 250Q769 250 790 260T827 288T852 329T862 379Q862 406 853 430T827 471T790 499T745 510Q722 510 702 500T665 473T640 431T631 379ZM631 1040Q631
1013 640 990T664 949T701 921T745 911Q769 911 790 921T827 949T852 990T862 1040Q862 1067 853 1091T827 1132T790 1160T745 1171Q722 1171 702 1161T665 1134T640 1092T631 1040ZM184 653H1321V768H184V653ZM1434 612H143V809H1434V612ZM760 555Q1001 555 1001
379Q1001 205 760 205Q688 205 637 256T586 379Q586 453 637 504T760 555ZM760 1217Q1001 1217 1001 1040Q1001 866 760 866Q688 866 637 917T586 1040Q586 1114 637 1165T760 1217Z" />
<glyph unicode="&#xf8;" glyph-name="oslash" horiz-adv-x="1212" d="M322 440Q322 647 390 745T573 844Q674 844 733 750L350 223Q322 309 322 440ZM573 37Q467 37 395 127L774 645Q797 559 797 440Q797 233 737 135T573 37ZM262 100L158 -43L233 -98L332 39Q434
-29 573 -29Q758 -29 866 102T975 440Q975 659 877 788L983 934L907 989L805 848Q705 909 573 909Q375 909 259 778T143 440Q143 229 262 100ZM608 -70Q477 -70 395 -41L313 -156H242L100 -51L209 98Q102 233 102 440Q102 666 230 808T575 950Q735 950 809 924L899
1047H971L1112 942L1001 791Q1116 653 1116 440Q1116 219 972 75T608 -70ZM608 82Q756 117 756 440Q756 473 748 543L508 217Q516 170 549 129T608 82ZM682 752Q655 784 608 799Q463 760 463 449Q592 629 682 752Z" />
<glyph unicode="&#xf9;" glyph-name="ugrave" horiz-adv-x="1352" d="M786 242Q794 492 786 743Q786 778 635 803Q612 864 635 924H1067Q1095 913 1107 900T1130 862Q1130 844 1125 805T1120 743Q1110 414 1120 170Q1192 147 1272 143Q1294 84 1272 16Q1141 8
948 -74Q839 -66 786 -8V18Q649 -70 461 -70Q325 -70 268 4T209 236Q211 487 209 743Q209 778 57 803Q35 864 57 924H491Q520 913 532 900T555 862Q555 844 550 805T545 743Q538 510 545 268Q549 154 586 135Q659 154 786 242ZM827 743Q833 483 827 221Q641 88
540 88Q403 88 403 268Q397 510 403 743Q403 770 408 808T414 856Q403 879 385 887Q237 877 90 887Q82 864 90 840Q248 815 250 743Q252 489 250 236Q248 100 297 36T461 -29Q612 -29 827 158V12Q835 -4 862 -14Q1005 39 1233 57Q1241 82 1233 104Q1061 111 979
145Q971 502 979 743Q979 770 984 808T989 856Q979 879 960 887Q815 879 667 887Q659 864 667 840Q825 815 827 743ZM925 1120L683 1421Q647 1468 591 1468Q552 1468 529 1445T505 1382Q505 1331 542 1309L896 1083L925 1120ZM786 1448L1048 1122L980 1028H909L515
1278Q464 1311 464 1382Q464 1440 499 1474T591 1509Q737 1509 786 1448Z" />
<glyph unicode="&#xfa;" glyph-name="uacute" horiz-adv-x="1352" d="M786 242Q794 492 786 743Q786 778 635 803Q612 864 635 924H1067Q1095 913 1107 900T1130 862Q1130 844 1125 805T1120 743Q1110 414 1120 170Q1192 147 1272 143Q1294 84 1272 16Q1141 8
948 -74Q839 -66 786 -8V18Q649 -70 461 -70Q325 -70 268 4T209 236Q211 487 209 743Q209 778 57 803Q35 864 57 924H491Q520 913 532 900T555 862Q555 844 550 805T545 743Q538 510 545 268Q549 154 586 135Q659 154 786 242ZM827 743Q833 483 827 221Q641 88
540 88Q403 88 403 268Q397 510 403 743Q403 770 408 808T414 856Q403 879 385 887Q237 877 90 887Q82 864 90 840Q248 815 250 743Q252 489 250 236Q248 100 297 36T461 -29Q612 -29 827 158V12Q835 -4 862 -14Q1005 39 1233 57Q1241 82 1233 104Q1061 111 979
145Q971 502 979 743Q979 770 984 808T989 856Q979 879 960 887Q815 879 667 887Q659 864 667 840Q825 815 827 743ZM973 1421L732 1120L760 1083L1115 1309Q1152 1331 1152 1382Q1152 1421 1128 1444T1066 1468Q1010 1468 973 1421ZM681 1122L941 1446Q992 1509
1066 1509H1137Q1195 1509 1229 1475T1264 1382Q1264 1311 1213 1278L820 1028H748L681 1122Z" />
<glyph unicode="&#xfb;" glyph-name="ucircumflex" horiz-adv-x="1352" d="M786 242Q794 492 786 743Q786 778 635 803Q612 864 635 924H1067Q1095 913 1107 900T1130 862Q1130 844 1125 805T1120 743Q1110 414 1120 170Q1192 147 1272 143Q1294 84 1272 16Q1141
8 948 -74Q839 -66 786 -8V18Q649 -70 461 -70Q325 -70 268 4T209 236Q211 487 209 743Q209 778 57 803Q35 864 57 924H491Q520 913 532 900T555 862Q555 844 550 805T545 743Q538 510 545 268Q549 154 586 135Q659 154 786 242ZM827 743Q833 483 827 221Q641 88
540 88Q403 88 403 268Q397 510 403 743Q403 770 408 808T414 856Q403 879 385 887Q237 877 90 887Q82 864 90 840Q248 815 250 743Q252 489 250 236Q248 100 297 36T461 -29Q612 -29 827 158V12Q835 -4 862 -14Q1005 39 1233 57Q1241 82 1233 104Q1061 111 979
145Q971 502 979 743Q979 770 984 808T989 856Q979 879 960 887Q815 879 667 887Q659 864 667 840Q825 815 827 743ZM406 1067L647 1245L889 1067H963L707 1399H588L332 1067H406ZM875 1026L682 1167L492 1026H250L568 1440H799L1116 1026H875Z" />
<glyph unicode="&#xfc;" glyph-name="udieresis" horiz-adv-x="1352" d="M786 242Q794 492 786 743Q786 778 635 803Q612 864 635 924H1067Q1095 913 1107 900T1130 862Q1130 844 1125 805T1120 743Q1110 414 1120 170Q1192 147 1272 143Q1294 84 1272 16Q1141
8 948 -74Q839 -66 786 -8V18Q649 -70 461 -70Q325 -70 268 4T209 236Q211 487 209 743Q209 778 57 803Q35 864 57 924H491Q520 913 532 900T555 862Q555 844 550 805T545 743Q538 510 545 268Q549 154 586 135Q659 154 786 242ZM827 743Q833 483 827 221Q641 88
540 88Q403 88 403 268Q397 510 403 743Q403 770 408 808T414 856Q403 879 385 887Q237 877 90 887Q82 864 90 840Q248 815 250 743Q252 489 250 236Q248 100 297 36T461 -29Q612 -29 827 158V12Q835 -4 862 -14Q1005 39 1233 57Q1241 82 1233 104Q1061 111 979
145Q971 502 979 743Q979 770 984 808T989 856Q979 879 960 887Q815 879 667 887Q659 864 667 840Q825 815 827 743ZM319 1327Q288 1293 288 1241Q288 1215 297 1193T321 1154T356 1128T397 1118Q418 1118 438 1127T473 1153T497 1192T506 1241Q506 1267 497 1289T473
1328T438 1354T397 1364Q376 1364 356 1355T319 1327ZM692 1327Q661 1293 661 1241Q661 1216 669 1194T693 1155T727 1128T770 1118Q792 1118 811 1128T846 1154T869 1193T878 1241Q878 1266 870 1288T846 1327T812 1354T770 1364Q725 1364 692 1327ZM784 1405Q1009
1405 1009 1241Q1009 1077 784 1077Q731 1077 688 1107T628 1186Q598 1077 411 1077Q377 1077 348 1090T296 1125T261 1178T248 1241Q248 1274 261 1304T296 1356T347 1392T411 1405Q598 1405 628 1294Q645 1343 688 1374T784 1405Z" />
<glyph unicode="&#xfd;" glyph-name="yacute" horiz-adv-x="1032" d="M1026 924Q1046 860 1022 803Q897 797 866 727L559 -12L450 -301Q385 -475 318 -539T149 -604Q65 -604 14 -553T-37 -426Q-37 -352 14 -301T139 -250Q227 -250 280 -317L401 2L98 727Q76 786
-66 803Q-92 860 -70 924Q268 911 547 924Q567 860 543 803Q483 799 462 785T455 735L577 436L690 735Q702 766 684 783T600 803Q575 860 596 924Q678 920 1026 924ZM995 887Q774 877 627 887Q616 860 627 840Q665 838 691 832T734 803T737 743L528 193L317 719Q295
776 362 806T516 840Q526 860 516 887Q217 874 -39 887Q-49 860 -39 840Q100 823 135 743L446 0L336 -285Q303 -377 257 -429T162 -481Q80 -481 80 -399Q80 -346 119 -338Q133 -315 119 -291Q69 -291 37 -324T4 -418Q4 -483 48 -523T160 -563Q242 -563 296 -506T412
-287L520 4L829 743Q868 834 995 840Q1005 860 995 887ZM580 1421L339 1120L367 1083L722 1309Q759 1331 759 1382Q759 1421 735 1444T673 1468Q617 1468 580 1421ZM288 1122L548 1446Q599 1509 673 1509H744Q802 1509 836 1475T871 1382Q871 1311 820 1278L427
1028H355L288 1122Z" />
<glyph unicode="&#xfe;" glyph-name="thorn" horiz-adv-x="1274" d="M373 166L370 682Q487 778 614 778Q733 778 794 682T856 438Q856 221 779 129T612 37Q440 37 373 166ZM221 1350Q229 573 219 -395Q217 -469 49 -492Q39 -516 49 -541Q280 -532 620 -541Q631
-516 620 -492Q381 -475 381 -395Q375 -283 370 6Q471 -29 583 -29Q700 -29 789 18T928 142T1004 306T1030 485Q1030 680 941 794T710 909Q538 909 370 760L373 1493Q364 1509 338 1520Q198 1454 49 1438Q43 1413 49 1391Q162 1384 221 1350ZM522 -393Q524 -438
657 -455Q674 -516 657 -575Q272 -567 12 -575Q-4 -516 12 -455Q176 -438 178 -393Q190 535 180 1325Q112 1346 12 1352Q-10 1411 12 1479Q164 1487 352 1569Q461 1561 514 1503L512 897Q608 950 782 950Q954 950 1062 824T1171 485Q1171 385 1142 291T1054 114T892
-19T655 -70Q557 -70 512 -66Q516 -297 522 -393ZM815 438Q815 555 772 637T647 733Q581 723 512 664V178Q551 94 643 80Q713 96 764 181T815 438Z" />
<glyph unicode="&#xff;" glyph-name="ydieresis" horiz-adv-x="1032" d="M1026 924Q1046 860 1022 803Q897 797 866 727L559 -12L450 -301Q385 -475 318 -539T149 -604Q65 -604 14 -553T-37 -426Q-37 -352 14 -301T139 -250Q227 -250 280 -317L401 2L98 727Q76
786 -66 803Q-92 860 -70 924Q268 911 547 924Q567 860 543 803Q483 799 462 785T455 735L577 436L690 735Q702 766 684 783T600 803Q575 860 596 924Q678 920 1026 924ZM995 887Q774 877 627 887Q616 860 627 840Q665 838 691 832T734 803T737 743L528 193L317
719Q295 776 362 806T516 840Q526 860 516 887Q217 874 -39 887Q-49 860 -39 840Q100 823 135 743L446 0L336 -285Q303 -377 257 -429T162 -481Q80 -481 80 -399Q80 -346 119 -338Q133 -315 119 -291Q69 -291 37 -324T4 -418Q4 -483 48 -523T160 -563Q242 -563
296 -506T412 -287L520 4L829 743Q868 834 995 840Q1005 860 995 887ZM503 1327Q472 1293 472 1241Q472 1215 481 1193T505 1154T540 1128T581 1118Q602 1118 622 1127T657 1153T681 1192T690 1241Q690 1267 681 1289T657 1328T622 1354T581 1364Q560 1364 540
1355T503 1327ZM876 1327Q845 1293 845 1241Q845 1216 853 1194T877 1155T911 1128T954 1118Q976 1118 995 1128T1030 1154T1053 1193T1062 1241Q1062 1266 1054 1288T1030 1327T996 1354T954 1364Q909 1364 876 1327ZM968 1405Q1193 1405 1193 1241Q1193 1077
968 1077Q915 1077 872 1107T812 1186Q782 1077 595 1077Q561 1077 532 1090T480 1125T445 1178T432 1241Q432 1274 445 1304T480 1356T531 1392T595 1405Q782 1405 812 1294Q829 1343 872 1374T968 1405Z" />
<glyph unicode="&#x2013;" glyph-name="endash" horiz-adv-x="1862" d="M184 526V412H1612V526H184ZM143 371V567H1724V371H143Z" />
<glyph unicode="&#x2014;" glyph-name="emdash" horiz-adv-x="2546" d="M184 526V412H2296V526H184ZM143 371V567H2408V371H143Z" />
<glyph unicode="&#x2018;" glyph-name="quoteleft" horiz-adv-x="725" d="M455 1458L403 1503Q322 1450 264 1350T205 1155Q205 1083 243 1052T338 1020Q387 1020 421 1058T455 1143Q455 1262 326 1262L322 1268Q341 1366 455 1458ZM477 1554L588 1458Q475 1362
444 1298Q567 1280 567 1143Q567 1075 510 1027T338 979Q262 979 213 1021T164 1155Q164 1257 235 1374T406 1554H477Z" />
<glyph unicode="&#x2019;" glyph-name="quoteright" horiz-adv-x="725" d="M205 1065L256 1020Q338 1073 396 1173T455 1368Q455 1440 417 1471T322 1503Q272 1503 239 1465T205 1380Q205 1262 334 1262L338 1255Q318 1156 205 1065ZM326 969H254L143 1065Q254
1159 287 1223Q164 1243 164 1380Q164 1444 209 1494T322 1544Q377 1544 414 1539T489 1518T547 1464T567 1368Q567 1266 496 1149T326 969Z" />
<glyph unicode="&#x201a;" glyph-name="quotesinglbase" horiz-adv-x="725" d="M205 -217L256 -262Q338 -209 396 -109T455 86Q455 158 417 189T322 221Q272 221 239 183T205 98Q205 -20 334 -20L338 -27Q316 -125 205 -217ZM326 -313H254L143 -217Q258 -119 287
-57Q164 -39 164 98Q164 162 209 212T322 262Q377 262 414 257T489 236T547 182T567 86Q567 -16 496 -133T326 -313Z" />
<glyph unicode="&#x201c;" glyph-name="quotedblleft" horiz-adv-x="1096" d="M455 1458L403 1503Q322 1450 264 1350T205 1155Q205 1083 243 1052T338 1020Q387 1020 421 1058T455 1143Q455 1262 326 1262L322 1268Q342 1367 455 1458ZM825 1458L774 1503Q692
1450 634 1350T575 1155Q575 1083 613 1052T709 1020Q758 1020 791 1058T825 1143Q825 1262 696 1262L692 1268Q713 1366 825 1458ZM477 1554L588 1458Q475 1362 444 1298Q516 1290 545 1237Q569 1327 633 1415T776 1554H848L958 1458Q846 1362 815 1298Q938 1280
938 1143Q938 1075 881 1027T709 979Q588 979 549 1069Q506 979 338 979Q262 979 213 1021T164 1155Q164 1257 235 1374T406 1554H477Z" />
<glyph unicode="&#x201d;" glyph-name="quotedblright" horiz-adv-x="1096" d="M575 1065L627 1020Q709 1073 767 1173T825 1368Q825 1440 788 1471T692 1503Q643 1503 609 1465T575 1380Q575 1262 705 1262L709 1255Q687 1156 575 1065ZM205 1065L256 1020Q338
1073 396 1173T455 1368Q455 1440 417 1471T322 1503Q272 1503 239 1465T205 1380Q205 1262 334 1262L338 1255Q318 1158 205 1065ZM326 969H254L143 1065Q254 1159 287 1223Q164 1243 164 1380Q164 1444 209 1494T322 1544Q371 1544 390 1543T448 1535T511 1508T551
1454Q600 1544 692 1544Q748 1544 784 1539T860 1518T918 1464T938 1368Q938 1266 867 1149T696 969H625L514 1065Q625 1159 657 1223Q586 1235 555 1284Q532 1196 468 1108T326 969Z" />
<glyph unicode="&#x201e;" glyph-name="quotedblbase" horiz-adv-x="1096" d="M575 -217L627 -262Q709 -209 767 -109T825 86Q825 158 788 189T692 221Q643 221 609 183T575 98Q575 -20 705 -20L709 -27Q684 -123 575 -217ZM205 -217L256 -262Q338 -209 396 -109T455
86Q455 158 417 189T322 221Q272 221 239 183T205 98Q205 -20 334 -20L338 -27Q317 -125 205 -217ZM326 -313H254L143 -217Q258 -119 287 -57Q164 -39 164 98Q164 162 209 212T322 262Q371 262 390 261T446 253T508 226T551 172Q600 262 692 262Q817 262 877 222T938
86Q938 -16 867 -133T696 -313H625L514 -217Q629 -119 657 -57Q590 -49 555 2Q532 -86 468 -174T326 -313Z" />
<glyph unicode="&#x2022;" glyph-name="bullet" horiz-adv-x="827" d="M184 729Q184 647 235 590T362 532T490 589T543 729Q543 813 491 869T363 926T236 870T184 729ZM143 729Q143 829 212 898T381 967Q690 967 690 730T381 492Q281 492 212 561T143 729Z" />
<glyph unicode="&#x2039;" glyph-name="guilsinglleft" horiz-adv-x="844" d="M594 90L385 424L594 758L537 803L184 424L537 43L594 90ZM506 424L721 80L602 -12H530L127 424L530 858H602L721 768L506 424Z" />
<glyph unicode="&#x203a;" glyph-name="guilsinglright" horiz-adv-x="844" d="M393 424L184 90L242 43L594 424L242 803L184 758L393 424ZM129 80L344 424L129 768L248 858H319L723 424L319 -12H248L129 80Z" />
</font>
</defs>
</svg>
