<?xml version="1.0" standalone="no"?>
<!DOCTYPE svg PUBLIC "-//W3C//DTD SVG 1.1//EN" "http://www.w3.org/Graphics/SVG/1.1/DTD/svg11.dtd">
<svg xmlns="http://www.w3.org/2000/svg">
<defs >
<font id="AveriaSansLibre" horiz-adv-x="905" ><font-face
    font-family="Averia Sans Libre"
    units-per-em="2048"
    panose-1="2 0 6 3 0 0 0 0 0 4"
    ascent="2035"
    descent="-499"
    alphabetic="0" />
<glyph unicode=" " horiz-adv-x="591" />
<glyph unicode="!" horiz-adv-x="615" d="M428 1456H523Q582 1456 582 1421Q582 1420 494 981T382 472Q364 421 306 421H259Q199 421 199 445V467L228 677Q228 679 232 702T239 753Q288 1159 341 1404Q352 1456 428 1456ZM197 -7Q99 -7 99 38L96 60V98L100 132Q100
208 137 240T248 272H268Q280 269 295 269Q366 269 366 227L369 205V167L365 133Q365 70 323 21Q304 -1 264 -1Q248 -5 241 -5L212 -7H197Z" />
<glyph unicode="&quot;" horiz-adv-x="811" d="M268 942H236Q202 942 202 970V976L203 983Q203 1147 270 1437Q277 1468 333 1468H437Q476 1468 476 1455V1449Q476 1419 455 1344T426 1236T391 1106T354 986Q336 942 268 942ZM682 1468H785Q824 1468 824 1455V1449Q824
1444 819 1427T808 1381L797 1332L795 1325Q748 1106 702 986Q685 942 616 942H584Q551 942 551 970V977L565 1090Q565 1207 618 1437Q625 1468 682 1468Z" />
<glyph unicode="#" horiz-adv-x="1280" d="M811 867H634Q596 867 589 853Q521 717 521 617V613Q521 604 531 604H703Q746 604 753 618Q820 752 820 850V862Q820 867 811 867ZM610 424Q506 424 484 409T425 283T354 129T256 86T192 147L198 179L208 213L216 245Q225
292 225 356Q225 387 160 427T94 505T120 565T219 600T313 640Q376 716 376 815Q376 851 364 862T276 873T200 916Q200 995 248 1029Q270 1045 345 1051T444 1084T503 1219T548 1346Q573 1390 624 1390H657Q721 1390 721 1327Q721 1306 692 1203T663 1072T763 1044T883
1077Q886 1083 914 1179T959 1307Q1002 1387 1072 1387T1142 1332L1136 1300L1120 1235Q1107 1172 1107 1120T1165 1057Q1256 1040 1256 986Q1256 915 1194 886Q1181 880 1111 877T1023 848Q968 773 968 660Q968 624 1051 614T1134 549Q1134 489 1111 465T1016
435T911 401T839 252T776 109T684 86H650Q621 86 621 144Q621 168 641 239L671 341L679 374Q679 424 610 424Z" />
<glyph unicode="$" horiz-adv-x="1139" d="M591 881Q605 881 605 921L609 943Q618 979 618 990L623 1016Q637 1079 637 1089L646 1137Q654 1173 654 1180L659 1202V1213Q659 1221 647 1221L643 1220H638Q568 1220 518 1161T467 1032V1027Q467 976 507 929T585
881H591ZM606 224V216Q606 208 615 208H619Q694 208 756 270T818 412V432Q818 485 775 536T692 588H688Q663 588 663 522L616 277Q606 232 606 224ZM475 -153H448Q408 -153 408 -109L409 -81L411 -55Q411 5 371 24L343 32L316 41Q92 122 92 234Q92 278 118 314T209
350T329 302T419 253Q461 253 491 366T521 581Q521 626 430 689T289 823T240 1025T338 1257Q427 1348 601 1400Q661 1418 678 1432T717 1504T781 1562T843 1546T868 1481T890 1414T963 1373T1070 1314T1121 1236V1208Q1121 1186 1086 1149T1008 1111T906 1143T840
1175Q825 1175 804 1143Q741 1048 741 895Q741 834 857 765T1013 629T1052 453Q1052 297 941 175Q882 110 820 82T683 34T597 7T551 -89Q526 -153 475 -153Z" />
<glyph unicode="%" horiz-adv-x="1565" d="M614 1168L612 1208Q612 1226 588 1253T530 1281H519Q461 1281 422 1223Q365 1137 365 1059L364 1054L363 1048L362 1025V986Q364 976 364 970Q364 930 389 905T441 879H457Q517 879 563 949T610 1089Q613 1104 613 1112L615
1140V1162L614 1168ZM1101 162H1123Q1196 162 1250 259T1304 475V481Q1304 541 1282 567T1236 593H1214Q1152 593 1103 520Q1037 421 1037 327L1034 297V261Q1034 212 1056 187T1101 162ZM802 1157V1114Q802 1055 772 968T684 819Q582 710 451 710H440Q338 710
274 774T209 954V998Q209 1000 209 1002Q209 1066 238 1144Q296 1302 424 1366Q492 1400 559 1400H570Q677 1400 739 1333T802 1157ZM201 54Q201 66 261 147Q911 1023 1173 1327Q1260 1428 1319 1428Q1434 1428 1434 1404Q1434 1391 1386 1326Q800 536 474 145Q377
29 316 29Q201 29 201 54ZM871 264V296Q871 372 900 455Q958 622 1108 689Q1164 714 1239 714L1251 713Q1358 713 1421 645T1484 457V446Q1484 259 1366 125Q1325 78 1261 48T1126 17H1115Q999 17 935 85T871 264Z" />
<glyph unicode="&amp;" horiz-adv-x="1388" d="M705 914H713Q763 914 878 1029Q938 1089 938 1156V1183Q938 1224 908 1250T835 1276H812Q744 1276 692 1224T639 1096V1069Q639 994 684 934Q699 914 705 914ZM586 637H574Q515 637 424 512Q364 429 364 357V327Q364
255 416 209T552 162H585Q670 162 755 208T841 284T720 475T586 637ZM852 1450Q994 1450 1070 1384Q1146 1320 1147 1214Q1147 1030 948 877Q831 788 831 743T925 560Q975 488 1010 488T1114 600T1241 712Q1336 712 1336 664Q1336 603 1247 459T1157 284T1213 188T1270
77Q1270 15 1201 15T1059 54T944 94Q940 94 795 38T534 -18H502Q328 -18 226 62T123 281Q123 505 326 680Q469 804 469 828T443 932T417 1080Q417 1230 535 1340T852 1450Z" />
<glyph unicode="&apos;" horiz-adv-x="474" d="M304 941H259Q229 941 229 968V974L230 981Q230 990 247 1109L251 1137Q254 1149 256 1168L264 1215L267 1237Q295 1437 298 1444Q306 1468 353 1468H476Q505 1468 505 1457V1446Q505 1435 496 1402T459 1241T385
993Q365 941 304 941Z" />
<glyph unicode="(" horiz-adv-x="728" d="M383 284Q383 142 402 57T463 -127T505 -252T489 -292Q443 -334 380 -334Q362 -334 321 -302T234 -150Q160 47 160 254V340Q160 502 207 706T341 1086T538 1394T735 1525Q768 1525 794 1502T820 1464Q820 1428 748 1348Q591
1174 487 897T383 284Z" />
<glyph unicode=")" horiz-adv-x="727" d="M425 902Q425 1059 402 1155T343 1337T307 1450T333 1492Q385 1525 421 1525T491 1476T582 1280T639 922V879L638 857Q638 687 591 483T454 101T279 -172Q131 -335 70 -335Q41 -335 15 -312T-12 -277Q-12 -245 51 -175Q216
8 320 294T425 902Z" />
<glyph unicode="*" horiz-adv-x="928" d="M286 858T275 858T257 868Q227 911 227 935T256 999T295 1045Q329 1065 329 1067Q314 1085 311 1101T291 1144T275 1191T298 1241T335 1272Q375 1272 434 1246L448 1242L460 1238L471 1233L491 1222Q497 1222 517 1285T553
1362Q598 1400 670 1400Q699 1400 699 1334T682 1221T672 1173L825 1227Q840 1227 874 1199T908 1139T872 1078T780 1033T725 998Q725 986 755 950T785 857T771 789T712 777T635 797T584 817T562 813T549 792T534 771Q470 718 409 718Q369 718 369 785L375 839Q375
862 304 862Q286 858 275 858Z" />
<glyph unicode="+" horiz-adv-x="1106" d="M699 708T853 708T1023 700T1039 652Q1039 542 1004 525Q988 517 835 517T674 509T645 353T621 196Q609 155 563 155H473Q424 155 424 194L463 495Q463 517 312 517T144 524T127 567Q127 676 158 697Q175 708 331 708T496
727Q498 732 518 875T541 1027Q555 1065 638 1065H674Q736 1065 736 1022L699 722Q699 708 853 708Z" />
<glyph unicode="," horiz-adv-x="548" d="M40 -222V-213Q40 -200 77 -140T114 -44L113 -40L102 14Q100 26 100 31L99 44V57Q99 154 135 211Q157 246 237 246H297Q373 246 373 225V206Q373 85 280 -88Q236 -170 164 -229Q129 -258 101 -258H95Q40 -258 40 -222Z" />
<glyph unicode="-" horiz-adv-x="829" d="M754 654V641Q754 567 726 511Q716 492 686 492H166Q133 492 133 510V523Q133 602 161 653Q171 672 193 672H728Q754 672 754 654Z" />
<glyph unicode="." horiz-adv-x="551" d="M104 54V91L106 111L109 135Q109 193 151 242Q170 264 216 264L221 265L225 266L269 269H279Q294 266 307 266Q375 266 375 226Q377 218 377 213L379 195V171Q379 89 335 19Q319 -7 262 -7Q252 -9 248 -9L224 -11H199L167
-7Q104 -7 104 54Z" />
<glyph unicode="/" horiz-adv-x="840" d="M-53 -134Q-53 -120 42 60Q136 240 186 339L546 1031Q584 1103 593 1121L733 1391Q779 1471 848 1471H867Q967 1471 967 1450Q967 1373 181 -75Q137 -156 66 -156Q-53 -156 -53 -134Z" />
<glyph unicode="0" horiz-adv-x="1232" d="M539 170H578Q644 170 708 221T819 352T903 575T941 848V902Q941 1036 893 1114T748 1193H735Q507 1193 397 788Q358 643 358 516V461Q358 326 408 248T539 170ZM113 452V512Q113 689 171 863T314 1155T519 1331T756
1390H777Q973 1390 1088 1250Q1125 1205 1154 1115T1184 912V872Q1184 711 1133 528T994 224T793 38T562 -28H499Q412 -28 336 12Q191 87 142 251Q113 351 113 452Z" />
<glyph unicode="1" horiz-adv-x="888" d="M473 984Q473 1028 428 1028Q426 1028 424 1028Q376 1026 341 1026T279 1049T253 1114Q253 1163 375 1236Q592 1366 682 1366H702Q776 1366 776 1324V1306Q776 1299 704 888T632 448T654 367T676 288Q676 165 585 61Q532
0 425 0H363Q288 0 262 26T235 105Q235 218 299 302T386 459L398 519Q405 553 406 560L413 601L421 641L428 682L436 723L443 764Q473 914 473 984Z" />
<glyph unicode="2" horiz-adv-x="1104" d="M943 150Q943 44 886 22T644 -1H550L519 0H395Q159 0 116 9T73 51Q73 136 183 257Q238 317 452 522T705 776Q815 919 815 1031Q815 1106 766 1140T645 1174T479 1094T326 1013Q258 1013 258 1105T400 1288T710 1379T975
1296T1072 1093V1063Q1072 895 926 710Q863 630 652 441T440 229T573 206L841 214Q943 214 943 150Z" />
<glyph unicode="3" horiz-adv-x="1105" d="M786 1094Q786 1121 752 1145T664 1170T523 1143T367 1115T298 1174Q298 1262 395 1311Q528 1379 702 1379T956 1326T1036 1158Q1036 971 885 827Q802 748 802 747T860 700Q920 655 950 597Q980 538 980 440Q980 239
800 97Q653 -20 432 -20Q284 -20 179 37T74 169Q74 200 111 232T200 264T328 221T501 177T672 248T747 417T696 563Q665 593 575 620T475 655Q446 679 446 720T477 785Q488 793 579 836T728 940T786 1094Z" />
<glyph unicode="4" horiz-adv-x="1162" d="M793 997V1006H791L599 776Q589 765 584 759L488 645Q359 490 359 488T367 486H664Q688 486 698 513Q700 517 718 617L785 961Q793 989 793 997ZM75 355Q75 423 124 483Q698 1180 811 1293Q864 1346 991 1346H1032Q1068
1346 1068 1301Q1068 1283 1006 942T944 519Q944 489 1011 482T1079 435Q1079 353 1053 323T972 288T900 255T865 119T824 -13T728 -37L706 -36Q684 -35 662 -35Q605 -35 605 15L607 35L612 77L620 159L623 180Q628 215 628 221Q628 266 590 281Q575 287 496 287L238
294Q134 294 105 306T75 355Z" />
<glyph unicode="5" horiz-adv-x="1115" d="M634 1360L975 1366H1036Q1090 1366 1090 1334Q1090 1223 1026 1185Q994 1166 782 1166T550 1146T500 1028T470 882Q470 859 493 859L611 868Q797 868 904 773T1012 497Q1012 402 971 303Q888 103 660 15Q563 -22 443
-22H410Q305 -22 191 27T76 124Q76 179 115 217T192 255T320 215T491 175Q618 175 696 265T774 477Q774 561 720 618T565 676Q515 676 436 662T325 647Q240 647 240 716T299 1036T381 1317T469 1358Q480 1360 634 1360Z" />
<glyph unicode="6" horiz-adv-x="1138" d="M818 481V506Q818 592 765 640T632 688H623Q504 688 426 603T348 385V359Q348 268 399 212T530 156H538Q646 156 732 249T818 481ZM1047 505Q1047 402 1001 296Q908 83 721 6Q621 -35 531 -35H480Q322 -35 219 68Q173
114 146 189T118 355V406Q118 559 186 745T377 1081Q461 1184 609 1267T884 1351H907Q986 1351 1019 1323T1052 1273Q1052 1233 989 1199Q954 1180 894 1168T822 1152Q629 1097 514 918Q491 882 491 851T531 819Q536 819 569 828T631 844T726 851Q728 851 730 851Q794
851 861 822Q1047 742 1047 505Z" />
<glyph unicode="7" horiz-adv-x="1061" d="M1118 1316V1297Q1118 1279 883 894T572 363T458 132T415 38Q385 -17 326 -17H302Q171 -17 171 18Q171 88 369 429Q480 621 643 866T807 1124Q807 1163 703 1163L656 1165H605L297 1149Q258 1149 241 1166T224 1250T253
1342T428 1367H452L476 1366L574 1364L622 1362L844 1361Q1043 1361 1066 1358Q1118 1351 1118 1316Z" />
<glyph unicode="8" horiz-adv-x="1146" d="M735 1198H689Q607 1198 552 1136T496 994V976Q496 918 539 870T637 822H663Q751 822 810 898T869 1045T834 1157T735 1198ZM614 628H590Q493 628 410 537T327 336V328L328 320Q328 253 374 202T495 151L512 149H537Q652
149 736 241Q799 310 799 415V438Q799 500 747 564T614 628ZM267 971Q267 1155 402 1270Q468 1326 556 1354T724 1382H748Q904 1382 1003 1308T1102 1115V1093Q1102 952 992 832Q952 788 920 759T887 723T930 678T1004 582T1036 430T994 244Q909 59 686 -13Q598
-41 489 -41Q297 -41 193 50T88 285V308Q88 530 318 682Q361 710 361 723T346 760Q267 868 267 971Z" />
<glyph unicode="9" horiz-adv-x="1137" d="M886 975Q886 1052 839 1110T714 1168H682Q590 1168 506 1077T422 864V815Q422 748 469 696T590 644H631Q728 644 806 722T884 917L886 933V975ZM190 832Q190 930 236 1037T353 1213T522 1321T724 1360H750Q842 1360
916 1326Q1114 1234 1115 970V918Q1115 756 1045 566T871 249T623 50T344 -23H322Q258 -23 218 -2T178 62T219 127T386 175Q611 222 714 388Q750 447 750 477T706 507Q696 507 643 492T516 477Q444 478 374 506Q190 582 190 832Z" />
<glyph unicode=":" horiz-adv-x="594" d="M332 698Q237 698 237 746L234 773V787L235 792V806Q238 828 238 831Q238 899 280 948Q300 971 344 971Q358 974 363 974L387 976H421Q433 973 443 973Q509 973 509 910V878L505 839Q505 761 461 723Q436 702 390 702L371
699H361L347 698H332ZM106 60V88L107 93V102L113 146Q113 199 152 244Q173 269 225 269L230 270L234 271L268 273H283Q295 270 310 270Q381 270 381 207V175L377 135Q377 71 333 20Q316 0 272 0L253 -3L229 -5H200L168 -1Q106 -1 106 60Z" />
<glyph unicode=";" horiz-adv-x="571" d="M451 966Q515 966 515 923Q517 915 517 910L519 888V878L518 874Q518 766 472 720Q444 692 366 692H342Q247 692 247 760V793L251 832Q251 882 291 938Q310 965 362 965Q372 967 376 967L395 969H428Q443 966 451 966ZM119
104Q119 180 151 216T263 252H308Q384 252 384 218V205L383 198V191Q383 71 315 -46T196 -204T121 -246H109Q59 -246 59 -205L60 -201Q60 -181 96 -127T133 -37L126 -10Q118 30 118 44L117 50V83Q119 97 119 104Z" />
<glyph unicode="&lt;" horiz-adv-x="1085" d="M425 603Q425 593 622 466T841 322Q921 259 921 188Q921 149 898 126T851 102Q798 102 199 495Q135 537 135 599T203 706Q217 715 517 879T832 1049Q983 1111 1003 1111Q1039 1111 1039 1061V1045Q1039 975 947 908Q928
894 677 757T425 603Z" />
<glyph unicode="=" horiz-adv-x="1171" d="M239 880H1044Q1081 880 1081 855V846Q1081 755 1058 720Q1045 701 998 701H257Q177 701 177 726V735Q177 880 239 880ZM200 515H973Q1032 515 1032 490V481Q1032 387 1014 362T959 336H175Q128 336 128 361V379Q128
459 150 496Q161 515 200 515Z" />
<glyph unicode="&gt;" horiz-adv-x="1081" d="M238 1023Q238 1114 283 1114Q354 1114 933 722Q1002 675 1002 629Q1002 546 893 483Q233 103 153 103Q118 103 118 147V162Q118 236 221 311Q254 335 494 462T735 605T544 744T326 890Q238 962 238 1023Z" />
<glyph unicode="?" horiz-adv-x="996" d="M727 967T727 1036T690 1143T590 1181T449 1138T308 1094T245 1155V1171Q245 1249 364 1316T625 1384T863 1309T960 1102V1083Q960 960 868 833Q835 787 503 403Q484 381 448 381H430Q328 381 328 421Q328 513 403 631Q433
679 531 762T661 886Q727 967 727 1036ZM545 232Q545 232 543 203Q543 124 496 70T381 16H345Q319 16 287 39T254 70V88L255 93V102L259 146L279 252L282 275Q282 343 389 343H424Q543 343 543 278L544 272L545 267L546 244V238L545 232Z" />
<glyph unicode="@" horiz-adv-x="1755" d="M1032 843H1012Q977 843 920 813T828 731Q716 569 716 443V406Q716 358 738 332T786 306H799Q950 306 1055 600Q1097 718 1097 776V796Q1097 843 1032 843ZM1694 806Q1694 532 1569 359Q1501 265 1415 221T1269 177T1148
208T1071 240T976 204T828 167Q727 167 660 248T592 455Q592 627 694 779Q762 880 835 926T974 972L1016 970Q1077 967 1093 967L1166 977Q1202 977 1226 952T1251 866T1222 667T1192 498Q1192 406 1244 406T1337 494T1378 696Q1378 893 1271 995T1031 1098T813
1062Q730 1026 644 936Q468 750 467 493Q467 369 485 278T560 100T701 -31T852 -76T962 -71L1005 -65Q1073 -56 1084 -56Q1149 -56 1149 -90Q1149 -138 1070 -172Q961 -219 805 -219T537 -174Q319 -86 225 123Q164 259 164 393V449Q164 641 242 818Q399 1176 725
1312Q891 1381 1060 1381Q1368 1381 1539 1212Q1615 1137 1654 1029T1694 806Z" />
<glyph unicode="A" horiz-adv-x="1286" d="M830 971Q830 1136 803 1136Q802 1136 667 886T532 605Q532 596 688 596L787 594Q869 594 869 632Q866 653 866 662L862 692Q858 722 858 730L854 760Q851 783 851 790L841 873L838 895Q830 956 830 971ZM775 1426T859
1426T965 1405T1006 1304T1103 655T1181 72Q1181 13 1088 13T955 56Q937 76 918 216T892 369Q874 406 771 406Q474 406 439 380T338 216T265 69Q221 11 98 11H53Q12 11 12 34T100 234Q518 1071 588 1179Q717 1379 725 1386Q775 1426 859 1426Z" />
<glyph unicode="B" horiz-adv-x="1227" d="M522 842H627Q782 842 849 891Q946 962 946 1074V1099Q946 1241 738 1241H662L654 1240L595 1237Q587 1236 581 1236Q555 1236 548 1212Q484 1004 484 875V862Q484 842 522 842ZM419 213H557Q809 213 875 356Q902 414
902 474L901 484Q901 576 836 616T640 657H555Q455 657 446 643T396 400L392 384Q369 254 369 251V236Q369 213 419 213ZM520 16H307Q160 16 128 23T96 73T210 699L222 767Q241 859 254 938T284 1090T310 1256T329 1371Q346 1417 381 1425T633 1433H777Q1073 1433
1158 1275Q1191 1214 1191 1142V1118Q1190 952 1038 824Q970 768 970 763Q970 759 992 744Q1144 646 1144 487Q1144 380 1097 286Q999 91 757 37Q660 16 520 16Z" />
<glyph unicode="C" horiz-adv-x="1241" d="M138 574Q138 744 206 923T387 1219T632 1388T917 1440T1183 1388T1296 1269Q1296 1217 1262 1174T1184 1131T1023 1179T866 1228Q766 1228 678 1178Q509 1081 435 828Q399 707 399 549T483 294T708 198Q780 198 876
239T1051 281Q1125 281 1125 193Q1125 118 973 50Q822 -18 676 -18Q418 -18 278 126T138 574Z" />
<glyph unicode="D" horiz-adv-x="1341" d="M1062 829V874Q1062 1036 983 1129T762 1223H702L615 1219Q554 1219 544 1182Q516 1076 465 778T410 467L395 386L392 372L390 358L385 329L379 301Q372 260 372 258V246Q372 210 477 210H536Q655 210 741 246T900 367T1018
584T1062 829ZM1316 920V850Q1316 694 1252 521Q1060 7 481 7H367L344 8Q91 8 91 49Q91 69 116 193T150 372T164 448L172 492L181 536Q195 617 199 638T214 715L226 781Q235 825 243 870L251 915L276 1048Q296 1157 304 1248T325 1373T388 1416T626 1425L694 1426H765Q1146
1426 1272 1140Q1316 1039 1316 920Z" />
<glyph unicode="E" horiz-adv-x="1140" d="M498 913Q498 867 559 857T782 842T961 829Q998 811 998 768Q998 676 957 651Q931 635 746 635T519 625T448 580Q389 513 389 299Q389 239 427 221T544 203T693 207L795 213Q894 213 933 192T972 105T896 11Q863 -1 656
-1H376Q202 -1 150 16T97 97T178 546T267 984Q327 1361 334 1372Q364 1418 760 1418H1041Q1145 1418 1165 1404T1186 1359Q1186 1268 1138 1235T986 1201L682 1212Q586 1212 556 1166Q498 1077 498 913Z" />
<glyph unicode="F" horiz-adv-x="1109" d="M503 882Q503 844 532 832T738 819T950 804T985 746Q985 651 925 624Q902 614 715 607T483 561T420 475T370 263T322 69Q294 20 199 20T104 81L129 220L135 248Q137 256 147 315T166 414L176 470Q206 629 215 692T277
1054T331 1357Q367 1413 746 1413L802 1415L1002 1418H1088Q1174 1418 1174 1366Q1174 1276 1132 1239Q1106 1216 1000 1216L950 1218H870L729 1215Q596 1215 566 1171Q503 1078 503 882Z" />
<glyph unicode="G" horiz-adv-x="1348" d="M149 613Q149 772 215 935T391 1216T637 1386T923 1440T1177 1396Q1307 1341 1307 1267Q1307 1226 1274 1190T1199 1154T1047 1187T852 1221T678 1171T526 1026Q402 844 402 597Q402 418 497 329T745 240Q839 240 913
290T988 410Q988 440 920 479Q853 518 853 583Q853 625 877 636Q924 657 1034 657T1176 630T1208 534T1157 257Q1131 153 1093 108T911 18T671 -27T481 16T307 148T188 350T149 575V613Z" />
<glyph unicode="H" horiz-adv-x="1378" d="M1318 1399Q1380 1399 1380 1366Q1380 1243 1316 954T1202 384T1144 76T1113 40T997 29T904 104Q904 134 943 340T983 587T960 641T893 654Q499 654 453 597Q431 570 388 343T325 74Q297 16 201 16H166Q98 16 98 52Q98
74 153 322T252 865T333 1312Q342 1351 362 1362T449 1373T535 1358T554 1282L504 911Q504 862 531 847T669 831L882 824L951 822Q1021 822 1046 873Q1050 880 1080 1007T1126 1217T1154 1323Q1193 1399 1318 1399Z" />
<glyph unicode="I" horiz-adv-x="656" d="M276 4T220 4T144 18T124 73T191 327Q203 365 262 680T322 1121L317 1211Q317 1355 373 1395Q408 1420 562 1420H598Q648 1420 648 1353Q648 1326 588 1106Q577 1064 513 727T449 250T420 56T327 2H310Q276 4 220 4Z" />
<glyph unicode="J" horiz-adv-x="798" d="M107 -147Q-32 -147 -32 -51V-33Q-32 60 130 98Q210 116 233 133Q283 168 334 266T442 640T509 1028Q532 1307 542 1346T603 1401T746 1417Q788 1417 788 1325L787 1307L786 1252Q786 1182 681 591Q618 245 554 115Q424
-148 144 -148L125 -147H107Z" />
<glyph unicode="K" horiz-adv-x="1263" d="M1268 1403Q1311 1403 1311 1395T1038 1097T764 763Q764 732 821 631T986 293T1094 36Q1094 -2 992 -2T839 63Q830 75 727 298T611 545Q573 614 529 614Q473 614 425 474Q414 442 385 267T338 60Q308 5 248 5Q124 5 124
48V80Q124 86 172 376T268 972T330 1317Q353 1379 478 1379Q551 1379 551 1313Q551 1282 519 1114T486 909T497 871Q542 871 612 932Q613 933 746 1060T951 1265T1045 1357Q1116 1403 1268 1403Z" />
<glyph unicode="L" horiz-adv-x="1071" d="M298 -2Q176 -2 145 10T113 63V83Q113 105 134 211T203 593T283 1099T325 1367Q336 1415 453 1415H497Q568 1415 568 1360Q568 1222 484 790T399 286T446 203Q503 191 712 191T944 184Q980 173 980 109T959 6Q946 -17
904 -17H833L810 -16L763 -15Q740 -14 717 -14L624 -11L577 -9Q530 -7 508 -7L485 -6Q462 -5 438 -5L415 -4Q392 -3 369 -3L345 -2H298Z" />
<glyph unicode="M" horiz-adv-x="1692" d="M515 914Q509 914 448 685T355 320T309 152T250 94T181 69Q124 69 124 168L133 215Q141 256 153 309L174 404Q199 522 216 632Q298 1163 341 1287Q356 1331 399 1360T499 1389T579 1375Q624 1348 666 1251T786 857T881
561L904 593Q1017 760 1104 899L1210 1071Q1321 1250 1342 1279Q1433 1400 1515 1400Q1576 1400 1612 1366T1649 1274Q1649 1125 1493 189Q1480 111 1451 76T1386 40T1310 77T1269 174Q1269 199 1287 351T1314 581T1339 785T1356 927T1351 943Q1338 943 1145 606T911
230T783 191Q736 191 712 231Q703 246 628 580T515 914Z" />
<glyph unicode="N" horiz-adv-x="1428" d="M1172 23T1111 23T1011 34T936 99T715 586T504 1020Q503 1020 421 574T329 101Q305 27 211 27T116 58Q116 69 161 311T222 668T276 985L297 1096L302 1135L310 1213Q322 1313 325 1327Q340 1391 421 1391T541 1376T611
1312Q689 1196 860 807T1035 418Q1051 418 1126 855T1214 1325T1265 1386T1385 1414Q1434 1414 1434 1356Q1434 1237 1207 116Q1195 55 1184 39Z" />
<glyph unicode="O" horiz-adv-x="1457" d="M687 188H718Q902 188 1042 385Q1101 468 1142 596T1183 853V868Q1183 1055 1102 1150T874 1245Q672 1245 542 1061Q475 966 434 839T393 581V550Q393 389 470 289T687 188ZM1438 905V859Q1438 699 1378 529T1213 237Q996
-17 681 -17H658Q285 -17 173 308Q137 413 137 574T197 904T361 1195Q579 1451 918 1451Q1292 1451 1403 1125Q1438 1022 1438 905Z" />
<glyph unicode="P" horiz-adv-x="1170" d="M506 747H619Q788 747 877 821T967 1027V1064Q967 1143 908 1187T733 1231H663Q553 1231 544 1197Q467 908 467 772Q467 747 506 747ZM755 1426Q1213 1426 1213 1087V1063Q1213 955 1162 845Q1112 735 1034 674Q879 552
600 552Q453 552 422 498Q406 472 372 282T332 74Q310 10 227 10H161Q89 10 89 47L172 501L181 544Q182 550 244 883T313 1282T330 1378T386 1416T642 1425L686 1426H755Z" />
<glyph unicode="Q" horiz-adv-x="1463" d="M379 600V550Q379 381 462 285T678 188H694Q763 188 789 210T839 268T895 333T955 394T994 434T1045 469T1105 524T1153 655T1180 863V880Q1180 1142 1002 1212Q940 1236 881 1237H864Q652 1237 523 1049Q453 948 416
825T379 600ZM1428 895V842Q1428 691 1374 546T1259 318T1194 230L1162 194Q1130 158 1119 139T1107 56L1104 25Q1099 -3 1099 -24T1108 -82T1114 -118T1103 -124T1078 -143Q1009 -190 933 -190Q795 -190 539 -65Q417 -5 287 117Q213 187 173 299T132 530V557Q132
722 192 895T360 1192T599 1376T863 1436H918Q1028 1436 1129 1397T1293 1291T1391 1120T1428 895Z" />
<glyph unicode="R" horiz-adv-x="1235" d="M518 783H594L602 784L680 786Q689 787 697 787Q806 787 887 862T969 1043V1078Q969 1149 913 1191T747 1234H662L654 1233L629 1232H613Q597 1230 589 1230Q552 1230 541 1198Q470 985 470 826V805Q470 783 518 783ZM508
583Q439 583 417 523Q413 513 374 310T322 81Q288 14 204 14T106 28Q92 40 92 64T196 649T308 1288T325 1381Q351 1428 641 1428L729 1429Q987 1429 1094 1354Q1148 1316 1180 1251T1212 1118V1089Q1212 864 1000 709Q895 632 895 596Q895 590 923 530T1019 266T1087
47Q1087 6 986 6H957Q861 6 827 63Q818 77 756 277T652 530T508 583Z" />
<glyph unicode="S" horiz-adv-x="1158" d="M1146 1341T1146 1284T1112 1187T1043 1148T887 1193T703 1238Q601 1238 545 1180T489 1033Q489 971 568 913Q596 892 748 820T958 693Q1062 594 1062 439Q1062 344 1022 264Q941 103 759 31Q656 -10 542 -10H510Q340
-10 207 47T73 170Q73 223 110 267T197 311T357 252T565 192T738 248T813 395T735 547Q694 578 538 649T314 799T245 1023Q245 1098 282 1172Q362 1331 543 1399Q634 1433 725 1433H791Q942 1433 1061 1379Q1146 1341 1146 1284Z" />
<glyph unicode="T" horiz-adv-x="1153" d="M537 0Q380 0 380 43Q380 123 417 285T508 752T562 1146Q562 1208 472 1208L429 1204Q415 1203 354 1198T265 1192Q189 1192 189 1255V1278Q189 1340 205 1365T263 1400Q367 1426 815 1426H892Q1211 1426 1240 1417T1270
1371Q1270 1266 1222 1231Q1194 1211 1083 1211L1034 1213H986L941 1215Q858 1215 832 1142Q811 1084 729 618L711 517L706 492Q687 384 662 209T610 17T537 0Z" />
<glyph unicode="U" horiz-adv-x="1371" d="M549 1337Q549 1329 522 1131T491 899T457 688T426 415T488 254Q551 191 651 191Q653 191 654 191Q859 191 949 380Q988 461 1069 891T1160 1350Q1187 1424 1328 1424H1361Q1396 1424 1396 1394Q1396 1264 1249 568Q1209
379 1146 268Q1066 127 934 55T660 -17Q404 -17 291 93Q177 203 177 397V433Q177 591 280 1123Q294 1196 303 1286T317 1383Q333 1411 467 1411Q549 1411 549 1337Z" />
<glyph unicode="V" horiz-adv-x="1284" d="M612 331T625 331T866 802T1127 1327Q1188 1423 1288 1423H1319Q1395 1423 1395 1390Q1395 1377 1348 1285Q891 388 792 217T670 27T572 8T468 22T421 92T370 391T304 781T255 1042T216 1251T195 1362Q195 1412 307 1412T447
1341Q498 1209 555 770Z" />
<glyph unicode="W" horiz-adv-x="1883" d="M1103 1355Q1179 1355 1195 1286Q1218 1187 1255 799T1316 410L1332 440Q1451 681 1567 960T1719 1294T1806 1372T1907 1395T1958 1374Q1958 1338 1896 1202T1653 652T1437 173T1350 73T1248 39Q1200 40 1180 60Q1142
98 1104 367L1091 471Q1036 907 1013 907L928 733Q766 398 650 195Q568 52 515 52Q430 52 374 109Q349 134 342 175T321 370T294 632T251 998T222 1298Q222 1384 308 1384Q431 1384 468 1234Q491 1143 521 784T569 424Q593 424 707 680T878 1100T943 1283L964 1324Q992
1355 1103 1355Z" />
<glyph unicode="X" horiz-adv-x="1276" d="M878 697Q878 680 1010 366T1143 39Q1143 -1 981 -1Q910 -1 878 42T765 306T664 527Q659 527 564 402T412 198T317 76Q253 8 158 8Q21 8 21 34Q21 40 277 383T533 769Q533 791 401 1074T269 1379T417 1401Q507 1401 545
1344Q553 1332 639 1136T734 939Q747 939 847 1063T1001 1260T1076 1349Q1142 1404 1287 1404H1321Q1361 1404 1361 1391T1143 1099T920 813Q878 748 878 697Z" />
<glyph unicode="Y" horiz-adv-x="1199" d="M206 1319V1338Q206 1393 320 1393Q387 1393 429 1368Q449 1356 485 1300Q488 1295 574 1071T664 846Q698 846 861 1064Q930 1156 987 1243T1068 1351Q1130 1406 1250 1406H1275Q1318 1406 1318 1388T1073 1020T786 599T712
344T642 69Q618 8 566 8Q465 8 434 20T403 67L488 524Q488 618 454 722Q448 739 406 829T325 1022L271 1159Q248 1220 227 1269T206 1319Z" />
<glyph unicode="Z" horiz-adv-x="1193" d="M1275 1397Q1275 1313 1206 1223Q1186 1196 1042 1019T657 540T416 219T551 199T786 208T958 218T1047 192T1064 107T1034 24T810 0H189Q42 0 42 51Q42 117 114 213T290 435T646 876T897 1206Q897 1228 776 1228T533
1217T376 1205Q295 1205 295 1282Q295 1379 322 1402T480 1425L511 1424L579 1425H1200Q1275 1425 1275 1397Z" />
<glyph unicode="[" horiz-adv-x="754" d="M564 -241Q564 -331 478 -331H161Q72 -331 72 -270V-247Q72 -201 112 7T182 392T241 716T307 1082T362 1378T412 1487T518 1518H835Q877 1518 877 1485Q877 1389 828 1355Q797 1334 685 1334Q623 1334 588 1292Q575 1276
550 1184T428 535T332 -65T374 -130Q392 -139 458 -144T544 -167T564 -241Z" />
<glyph unicode="\" horiz-adv-x="859" d="M743 -117Q743 -155 605 -155Q540 -155 522 -93Q522 -91 512 -46L494 35Q486 71 479 108L463 181Q403 459 397 487T385 545L349 709L306 909Q302 930 250 1173T197 1437Q197 1475 335 1475Q401 1475 417 1413Q449 1290
477 1145T540 840T582 647T622 465L630 429L637 392Q645 355 655 310T673 228L681 192Q690 148 716 28T743 -117Z" />
<glyph unicode="]" horiz-adv-x="759" d="M365 1518H538Q671 1518 710 1505T750 1437T625 656T470 -176T406 -304T299 -325T176 -327L74 -331H0Q-37 -331 -37 -318V-297Q-37 -208 14 -169Q43 -147 119 -147T230 -120T286 -16Q289 -5 326 188L335 240L345 292L354
344L364 396Q380 478 406 629T470 975T508 1231T465 1317Q448 1327 384 1337T302 1363T284 1426T301 1496T365 1518Z" />
<glyph unicode="^" horiz-adv-x="1133" d="M725 1413H738Q783 1413 831 1308Q1024 890 1024 816Q1024 774 934 774Q879 774 825 863Q800 904 745 1040T679 1176Q677 1176 560 1011T423 826Q372 775 305 775T238 809Q238 821 268 871Q425 1133 595 1350Q644 1413
725 1413Z" />
<glyph unicode="_" horiz-adv-x="1074" d="M45 -52H936Q973 -52 973 -80V-90Q973 -166 946 -200Q932 -217 889 -217H10Q-27 -217 -27 -198V-179Q-27 -102 0 -68Q13 -52 45 -52Z" />
<glyph unicode="`" horiz-adv-x="674" d="M633 1140V1129Q633 1086 573 1086H561Q494 1086 434 1153Q266 1342 266 1385V1395Q266 1430 335 1430H363Q458 1430 495 1388Q633 1230 633 1140Z" />
<glyph unicode="a" horiz-adv-x="1104" d="M333 412V384Q333 295 370 241T466 186H484Q530 186 586 222T683 327Q769 470 769 670V697Q769 781 745 810T652 839H634L625 838Q581 838 527 806T427 707Q333 570 333 412ZM1060 957T1060 909T1012 642T963 281Q963
239 972 203T981 159Q981 17 845 17Q798 17 769 53Q716 119 715 119Q707 119 669 90T539 30T384 -1Q251 -1 168 100T84 353V392Q84 503 130 619Q228 862 415 959Q518 1012 610 1012H647Q727 1012 784 990T861 967L966 986Q1013 986 1036 972Z" />
<glyph unicode="b" horiz-adv-x="1101" d="M511 171H539Q590 171 640 201T724 281Q824 431 824 605V633Q824 727 787 780T675 834L665 833Q608 833 554 800T467 714T402 543T369 325V288Q369 232 411 202T511 171ZM660 -9T571 -9T422 14L382 33L363 43Q322 63
312 63T264 37T175 11T107 27T89 78T110 226T141 390T167 530T249 991T333 1421T454 1479H477Q556 1479 556 1425Q556 1384 521 1176T485 952Q484 937 494 937Q504 938 543 956Q662 1012 783 1012T980 911T1056 650V626Q1056 511 1016 391Q932 138 747 38Q660 -9
571 -9Z" />
<glyph unicode="c" horiz-adv-x="938" d="M94 359V402Q94 516 144 648Q241 899 469 984Q569 1021 691 1021H712Q799 1021 872 975T946 887T911 808T848 770T749 800T625 831Q513 831 425 706T337 390Q337 293 383 235T517 176Q568 176 640 202T761 228Q828 228
828 161T722 40T492 -15H470Q383 -15 310 13T194 85T123 202T94 359Z" />
<glyph unicode="d" horiz-adv-x="1113" d="M330 398V379Q330 285 368 230T477 175H486L496 176Q544 176 602 209T693 300T754 486T783 691L784 710Q784 775 752 800Q700 840 626 840H617Q503 840 427 726Q330 580 330 398ZM422 970Q506 1010 604 1010T756 991T813
972Q853 972 879 1171T923 1408Q954 1478 1037 1478H1059Q1117 1478 1134 1466T1152 1415T1112 1160L1068 928Q995 545 966 324T933 94Q906 14 805 14Q755 14 737 37Q732 43 723 71T700 99Q697 99 653 72Q536 0 393 0H370Q251 0 171 93T91 350V374Q91 495 143 630Q240
883 422 970Z" />
<glyph unicode="e" horiz-adv-x="1016" d="M377 610V596Q377 576 399 576H448L453 577L482 579L487 580L522 583Q588 594 607 594Q677 594 744 639Q780 663 780 716V732Q780 777 746 811T663 846H621Q609 844 604 844Q528 844 453 758T377 610ZM523 -11H478Q214
-11 132 198Q100 279 100 361V383Q100 507 146 634Q238 890 455 981Q552 1022 662 1022H685Q828 1022 911 942T994 734V712Q994 576 909 516Q844 470 661 443Q602 434 599 434L578 432Q415 414 398 407Q352 388 352 307Q352 255 405 218T532 181T688 211T811 241Q868
241 868 158Q868 103 781 60Q639 -11 523 -11Z" />
<glyph unicode="f" horiz-adv-x="745" d="M569 1088Q569 1033 660 1017T752 943Q752 898 673 847Q558 773 543 743Q470 596 423 328T345 -19T282 -126T176 -156H150Q47 -156 47 -104Q47 -42 106 86T203 380T240 703Q240 730 217 811T193 930T251 1013T327 1092T357
1169T391 1265T460 1370T581 1447T727 1475H753Q853 1475 883 1454T914 1413Q914 1328 864 1300Q852 1293 760 1284T628 1239Q569 1188 569 1088Z" />
<glyph unicode="g" horiz-adv-x="1106" d="M656 819H635L625 818Q526 818 454 720Q349 577 349 446V420L363 307Q363 239 394 196T471 152L496 149H519Q555 149 626 188T723 283Q812 472 812 665V694Q812 760 782 783Q735 819 656 819ZM430 20Q289 20 209 113T128
384Q128 487 172 611Q257 851 446 937Q533 977 614 977T733 963T810 928T867 907T913 930T988 954Q1067 954 1067 913V891Q1067 866 1024 663T955 322Q882 -65 831 -169T667 -345T413 -418T161 -365Q81 -327 81 -267Q81 -232 108 -209T184 -186T294 -213T416 -240Q523
-240 597 -143T672 100L666 105Q663 105 632 85T554 42T430 20Z" />
<glyph unicode="h" horiz-adv-x="1105" d="M775 668Q775 815 659 815Q608 815 553 782T462 685T381 381T317 96Q283 10 212 10Q103 10 103 65Q103 112 183 524T294 1146T334 1387Q353 1459 467 1459Q546 1459 546 1405Q546 1362 528 1259T491 1073T472 964T494
936Q498 936 535 953T611 981T754 992T925 916T992 718T951 336T897 53Q878 18 760 18Q723 18 713 41T702 137T738 431T775 668Z" />
<glyph unicode="i" horiz-adv-x="563" d="M575 1347Q575 1347 572 1306Q572 1256 540 1218T458 1180L441 1177H432L418 1176H414Q314 1176 314 1248V1279L315 1284V1293Q317 1303 317 1307Q317 1373 356 1407T458 1441H485L510 1437Q573 1437 573 1386Q575 1376
575 1373L576 1356V1352L575 1347ZM104 70V94Q104 161 132 259T198 559T236 862T264 996Q279 1014 369 1014H407Q491 1014 491 985V951Q491 929 447 691T402 424T401 381V351L405 281Q405 213 379 127T341 29Q318 6 185 6L160 5Q124 5 114 11T104 70Z" />
<glyph unicode="j" horiz-adv-x="565" d="M440 1184Q382 1184 356 1202T330 1267V1280L332 1303L336 1330Q336 1372 378 1422Q396 1444 444 1444L471 1447H498Q596 1447 596 1390L599 1364V1342Q599 1274 569 1231T490 1188L472 1185H463L449 1184H440ZM-141 -311Q-141
-258 -58 -214T51 -140T105 -14T191 426T248 863T269 988T362 1020H380L398 1019H416Q505 1019 505 984L504 968L503 937Q501 905 501 889Q501 824 412 367T296 -154Q248 -266 176 -323Q61 -413 -50 -413H-68Q-101 -413 -121 -389T-141 -327V-311Z" />
<glyph unicode="k" horiz-adv-x="1021" d="M430 436Q383 436 343 248T285 38T189 16T109 53Q109 130 176 583T333 1390Q350 1455 453 1455H481Q540 1455 540 1383T483 1047T426 736T452 687Q455 687 543 762T681 887T772 963T923 991Q985 991 985 962T828 747T670
500Q670 496 709 417T805 194T861 45Q861 5 728 5Q666 5 632 46T532 262T430 436Z" />
<glyph unicode="l" horiz-adv-x="567" d="M117 128V163Q117 200 151 338T248 841T311 1227Q311 1391 349 1453Q368 1484 489 1484L506 1485Q567 1485 567 1441V1423L566 1406Q566 1328 486 905T406 336L407 310Q407 290 407 270L412 188Q412 86 372 35Q344 -1
250 -1H198Q150 -1 134 29T117 128Z" />
<glyph unicode="m" horiz-adv-x="1609" d="M1330 23Q1235 23 1235 100Q1235 293 1261 450T1288 662T1259 758T1176 801Q1068 801 1013 698Q973 624 921 357T864 69Q845 0 758 0H717Q664 0 651 12T638 59T687 362T736 684Q736 808 626 808Q579 808 528 772T442
678T360 375T285 83Q249 23 152 23Q90 23 90 89T133 380T191 724Q206 844 242 923Q266 974 325 974T406 953L421 933Q442 900 447 900T551 953T732 1006T885 962Q1001 889 1004 889L1060 923Q1188 999 1295 999T1467 931T1532 730Q1532 680 1494 420T1444 115T1412
47T1330 23Z" />
<glyph unicode="n" horiz-adv-x="1103" d="M722 62T722 146T757 432T792 688T762 781T672 822T554 790T453 698T359 364T283 56T140 20Q80 20 80 53Q80 122 125 310T192 662T231 885Q258 981 328 981Q381 981 404 968T438 916T466 876Q470 876 514 908Q639 1000
762 1000T953 928T1021 738V713Q1021 676 1000 540T957 242T932 69Q914 19 835 19T731 51Q722 62 722 146Z" />
<glyph unicode="o" horiz-adv-x="1098" d="M506 170H535Q572 170 627 198T724 285Q818 422 818 578V637Q818 732 774 789T653 846H624Q580 846 526 816T429 724Q337 590 337 427V379Q337 286 382 228T506 170ZM509 -15H474Q300 -15 196 89Q151 134 124 208T96
365V399Q96 515 144 646T273 862Q430 1027 655 1027L672 1026H690Q844 1026 964 917Q1011 874 1039 802T1068 669V636Q1068 528 1021 400Q923 134 726 39Q614 -15 509 -15Z" />
<glyph unicode="p" horiz-adv-x="1110" d="M500 158H527Q584 158 651 203T757 305Q846 439 846 605V644Q846 739 809 791T703 844H684Q624 844 568 812T478 724T410 538T376 296V277Q376 216 410 187T500 158ZM1074 647Q1074 526 1030 398Q984 270 908 178Q764
4 538 4Q486 4 426 31T354 58Q335 58 296 -132T233 -366T112 -410H68Q20 -410 20 -370Q20 -310 78 -27T157 378T187 543T206 640L214 685L221 730Q225 753 234 820T255 924Q280 1002 375 1002Q415 1002 431 986T460 941T478 913Q496 914 536 938Q658 1012 786 1012T994
921T1074 671V647Z" />
<glyph unicode="q" horiz-adv-x="1098" d="M645 844H626Q515 844 426 715T337 395Q337 293 373 237T481 180H500Q547 180 605 212T691 292T754 462T788 685V730Q788 781 750 812T645 844ZM656 75Q646 75 611 56T557 28Q484 -6 403 -6Q263 -6 181 90T99 361V384Q99
497 141 621T254 836Q395 1016 607 1017Q680 1017 753 988T840 958T894 980T1005 1002T1076 955Q1076 916 1024 655T956 302T914 79T863 -199T834 -358Q818 -414 794 -423T706 -432H683Q599 -432 599 -382L673 59Q673 75 656 75Z" />
<glyph unicode="r" horiz-adv-x="784" d="M202 0H132Q85 0 85 37V52Q85 76 116 219T149 370L155 404L162 438Q168 472 174 507L186 575Q208 697 217 800T241 954T333 1005T447 972Q461 959 470 914T483 869T524 904Q632 1008 739 1008H755Q850 1008 850 951Q850
908 801 839Q777 805 741 805Q740 805 739 805Q702 806 667 806T569 773T473 684Q411 582 385 365T330 60Q311 0 202 0Z" />
<glyph unicode="s" horiz-adv-x="914" d="M558 1013H581Q695 1013 785 980T876 911Q876 850 848 822T790 793T670 819T565 845Q492 845 445 818T397 739T452 650Q460 644 582 590Q702 536 758 478T814 330Q814 170 695 78T401 -14Q281 -14 170 25T59 103Q59 159
94 195T161 231T274 195T426 159T548 196T599 287T558 370T404 442T235 541T178 696Q178 829 289 921T558 1013Z" />
<glyph unicode="t" horiz-adv-x="742" d="M733 985V954Q733 882 696 856Q680 845 613 835T531 804T469 591T421 320T442 223T518 198T581 186Q608 171 608 108T555 19T391 -8T226 53T172 249Q172 301 207 476T242 767Q242 810 198 836T154 885Q154 939 185 970T257
1014T311 1051T345 1156T387 1265Q427 1315 502 1315H521Q580 1315 580 1265L564 1110Q564 1064 577 1050T662 1018T733 985Z" />
<glyph unicode="u" horiz-adv-x="1105" d="M358 319Q358 183 491 183Q529 183 590 217T688 307T771 608T848 922T969 990T1059 936Q1059 930 1018 690T955 300T924 110T891 43T812 17T742 27T711 77T688 117T637 86T529 27T350 -2T168 85Q117 152 117 273Q117
335 153 528T206 822T225 930Q244 995 306 995H330Q406 995 426 974T446 896T402 606T358 319Z" />
<glyph unicode="v" horiz-adv-x="1009" d="M419 -6Q363 -6 338 7T299 74T220 539T154 952V971Q154 1005 251 1005H273Q365 1005 388 932Q394 912 437 590T490 267Q495 267 580 438T697 677L781 858Q821 948 825 953Q861 1004 991 1004Q1057 1004 1057 986Q1057
959 943 731Q656 157 571 46Q531 -6 419 -6Z" />
<glyph unicode="w" horiz-adv-x="1463" d="M952 29Q909 29 893 67Q866 130 815 355T755 580Q754 580 703 490T567 262T461 100Q402 33 352 33Q249 33 231 141Q188 388 188 804L186 868L184 899V930Q184 978 220 978Q344 978 368 907Q378 877 389 588T439 298Q453
298 529 483T658 806T718 954Q742 981 854 981Q918 981 929 936T960 602T985 312Q997 312 1085 482T1216 757T1280 891Q1336 971 1403 971T1471 953T1435 859T1369 701Q1222 280 1119 119Q1061 29 952 29Z" />
<glyph unicode="x" horiz-adv-x="1015" d="M738 1Q666 1 641 34T560 205T497 344T386 206T264 52Q212 3 109 3T5 28Q5 34 188 270T371 524Q371 570 277 730T183 953Q183 995 342 995Q410 995 438 957T516 797T575 676Q603 676 736 875Q778 938 796 955Q847 1003
967 1003H992Q1053 1003 1053 991Q1053 952 874 740T694 481T793 264T892 48T763 1H738Z" />
<glyph unicode="y" horiz-adv-x="1054" d="M411 42Q411 57 335 166T226 376Q159 589 159 871Q159 917 176 935Q222 984 298 984T400 905Q436 789 449 538T486 286Q576 286 762 720Q846 914 874 947Q921 999 1047 999Q1088 999 1088 963Q1088 955 890 502T613 -72T397
-293T170 -394T80 -357Q80 -342 173 -272L317 -163Q411 -47 411 42Z" />
<glyph unicode="z" horiz-adv-x="962" d="M615 789T615 807T555 825T421 816T293 806T221 822T204 898T230 984T341 1009H414L438 1008Q486 1006 487 1006H713Q928 1006 936 1004Q966 996 966 963Q966 900 900 814Q884 794 637 509T390 203T499 183Q512 183 591
191T732 200T813 181T832 104T807 22T670 -1H296Q86 -1 69 3Q36 11 36 40Q36 104 101 191Q133 233 374 511Z" />
<glyph unicode="{" horiz-adv-x="767" d="M568 -241Q568 -345 477 -345Q332 -345 256 -278T180 -54Q180 -7 210 146T240 367T199 474Q118 550 118 561Q118 643 177 674T239 707Q298 747 325 815Q332 834 373 1058T472 1362T614 1479T789 1517H815Q874 1517 874
1474V1452Q874 1382 830 1352Q820 1345 784 1334T725 1311Q674 1288 642 1234T577 994T514 742T426 634T369 587T393 554T438 489T458 386T432 188T406 -16T468 -130Q568 -198 568 -241Z" />
<glyph unicode="|" horiz-adv-x="619" d="M259 -363H199Q136 -363 136 -346V-307L180 48L183 69L198 194L201 215Q340 1378 355 1467Q365 1522 415 1522H494Q558 1522 558 1505V1486Q558 1485 526 1216L524 1195L498 986L495 965L490 923Q352 -234 339 -308Q329
-363 259 -363Z" />
<glyph unicode="}" horiz-adv-x="772" d="M353 1518Q649 1518 649 1220Q649 1140 624 1013T599 825T633 721Q634 720 673 687T712 630V607Q712 537 635 497T530 400T464 126T371 -171T233 -296T66 -343H43Q-26 -343 -26 -295Q-26 -239 17 -193L113 -145Q171 -116
203 -65T268 174Q300 360 322 412Q357 497 438 552Q489 586 489 591Q488 596 464 620Q389 695 389 800Q389 847 416 987T444 1203T367 1321T289 1420Q289 1518 353 1518Z" />
<glyph unicode="~" horiz-adv-x="1052" d="M1035 809V790Q1035 701 929 614Q857 555 780 555T580 619T432 684Q380 684 327 631T218 578T162 607Q162 695 247 774T424 854H446Q506 854 621 791T777 727T874 778T982 830T1035 809Z" />
<glyph unicode="&#xa0;" horiz-adv-x="591" />
<glyph unicode="&#xa1;" horiz-adv-x="589" d="M408 1189H413Q481 1189 520 1156Q540 1139 540 1093V1060L536 1032Q536 979 496 945T389 910H379Q256 910 256 1015V1024L260 1062Q260 1126 304 1157T408 1189ZM229 -288H114Q52 -288 52 -261V-250Q52 -201 82
-76T171 346T248 703T318 763H408Q439 763 439 729V706Q439 702 420 544L412 481L410 469L407 443L405 430L402 405L400 392L399 379Q344 -83 315 -220Q301 -288 229 -288Z" />
<glyph unicode="&#xa2;" horiz-adv-x="1031" d="M356 432Q356 372 386 312T453 251Q470 251 476 277Q589 804 589 845V851Q589 858 585 858H580Q505 858 432 743T359 522L358 515L357 507L356 485V432ZM120 440V464Q120 566 155 666Q225 867 387 965Q442 999 520
1026T611 1065T648 1135T677 1201Q699 1228 741 1228T800 1211T816 1124T874 1015Q979 944 979 907Q979 880 949 853T886 826T821 839T768 852T735 812Q732 803 676 549T619 284Q619 242 651 242Q676 242 724 256T795 271T842 244T866 199Q866 150 773 100L733
82L714 72L695 63Q638 35 626 25T591 -29T551 -86Q509 -122 442 -122Q409 -122 401 -57T391 12L360 32L345 44L327 55Q240 108 195 185Q120 311 120 440Z" />
<glyph unicode="&#xa3;" horiz-adv-x="1129" d="M430 250Q430 196 588 196Q672 196 768 215T887 235T939 213T967 154Q967 70 910 35T685 -1L453 5L154 -2Q47 -2 47 92Q47 146 152 251T257 489Q257 545 247 564L232 580L211 590L193 603Q147 642 147 672T214 762T287
833T308 918Q354 1146 441 1246Q505 1320 597 1360T778 1401H812Q918 1401 1008 1351T1099 1248V1220Q1099 1181 1070 1158T1012 1134T917 1160Q852 1185 793 1185Q791 1185 788 1185Q666 1185 602 1075Q552 988 552 833Q552 802 566 795T709 771T839 724Q839 665
788 623Q759 599 661 570T527 500T461 361T430 250Z" />
<glyph unicode="&#xa4;" horiz-adv-x="1162" d="M852 789V828Q850 844 850 852Q850 914 797 973T670 1032H654Q551 1032 482 939T412 740V725Q412 641 458 579T582 517H613Q691 517 771 597T852 789ZM1022 874T1022 816T1007 713T968 615T943 532T980 444T1018
375Q1018 335 992 306T939 276T862 326T774 376L756 372L717 360Q642 340 568 340T449 351T388 363T302 304T219 245T168 284T131 349T187 432T244 535L233 574Q216 632 216 763Q216 811 249 880T282 985T254 1081T225 1165T257 1224T311 1260T383 1209T453 1158T531
1176T665 1195T797 1176T877 1156T963 1208T1042 1260T1093 1222T1129 1158T1066 1069T1002 970L1005 951L1015 911Q1022 874 1022 816Z" />
<glyph unicode="&#xa5;" horiz-adv-x="1223" d="M662 817T672 817T862 1080T1069 1369Q1137 1433 1248 1433Q1299 1433 1299 1379Q1299 1363 1201 1227T1075 1049Q904 790 904 745Q904 718 957 690T1010 640Q1010 586 952 562Q928 552 866 548T782 527T759 467Q759
430 873 418T987 361Q987 278 839 272Q747 268 719 245T666 124T636 21Q616 0 539 0H501Q450 0 430 11T409 87L412 183Q412 237 302 257T191 310V334Q191 375 221 393T331 423T425 448T441 494T428 538T333 550T251 596Q251 648 320 698T389 766Q389 890 252 1222Q205
1336 205 1385T278 1435Q411 1435 457 1371Q477 1343 569 1080Z" />
<glyph unicode="&#xa6;" horiz-adv-x="547" d="M373 740H242Q206 740 206 765V783Q206 826 217 899T252 1219T285 1503T332 1542H453Q489 1542 489 1507Q489 1398 467 1248T429 943T411 779Q402 740 373 740ZM252 -355H143Q90 -355 90 -328V-319Q90 -85 165 390Q172
432 209 432H328Q371 432 371 405V396Q371 162 296 -313Q289 -355 252 -355Z" />
<glyph unicode="&#xa7;" horiz-adv-x="1019" d="M725 634V655Q725 718 636 787T494 857H484Q446 857 408 813T369 725V698Q369 641 426 590Q540 489 593 489H617Q648 489 686 538T725 634ZM315 1139Q315 1302 426 1400T687 1498H717Q806 1498 880 1467T954 1396Q954
1272 867 1272Q844 1272 782 1290T668 1308T583 1276T550 1191T590 1097T738 982T893 843T939 675T854 475T769 332L772 311Q774 293 774 261Q774 -20 552 -116Q466 -153 387 -153H358Q255 -153 165 -110Q104 -81 104 -29T127 54T185 84T285 64T404 44T494 78T530
165T501 250T365 361T208 506Q159 569 159 662Q159 817 282 916Q341 963 341 978Q315 1060 315 1139Z" />
<glyph unicode="&#xa8;" horiz-adv-x="845" d="M448 1151V1143L447 1139Q447 1082 413 1041T325 1000H296Q255 1000 228 1023T200 1089V1114Q200 1159 230 1202T302 1245L323 1248H356Q364 1246 379 1246T421 1224T448 1151ZM839 1159V1130Q836 1118 836 1098T806
1041T741 1004Q725 1000 721 1000H684Q641 1000 617 1024T592 1088V1113Q597 1133 597 1152T629 1210T714 1248H743Q789 1248 814 1223T839 1159Z" />
<glyph unicode="&#xa9;" horiz-adv-x="1579" d="M920 1305H883Q774 1305 667 1255Q446 1152 351 908Q309 801 309 681Q309 440 451 292Q519 222 610 189T786 155H823Q825 155 827 155Q928 155 1034 202Q1256 299 1355 551Q1396 655 1396 761V798Q1396 1019 1254
1167Q1191 1232 1102 1268T920 1305ZM886 1136H919Q996 1136 1064 1101T1133 1023Q1133 1000 1107 978T1069 956T997 969T874 983Q782 983 728 898Q674 814 674 704Q674 474 849 473Q885 473 947 488T1031 503Q1077 503 1077 438Q1077 402 1003 364T851 325H801Q672
325 584 421T495 658V710Q495 786 527 869Q593 1040 743 1104Q817 1136 886 1136ZM929 1432Q1178 1432 1354 1267Q1444 1183 1493 1064T1543 821V776Q1543 634 1485 496T1322 251T1081 86T799 27H777Q527 27 349 195Q264 275 213 394T162 639V684Q162 820 220 959T375
1200T607 1366T884 1432H929Z" />
<glyph unicode="&#xaa;" horiz-adv-x="797" d="M544 1091Q544 1138 497 1138H474L452 1134Q426 1134 378 1086T330 978V958Q330 880 394 880H405Q445 880 490 925T535 1019Q538 1031 538 1035L539 1038L540 1042L543 1065V1076L544 1084V1091ZM701 964L715 880Q715
805 694 785T628 765T567 782Q531 818 526 818T452 790T326 761T225 803T180 912V923Q180 1000 262 1087Q381 1214 381 1238T367 1274T353 1289Q353 1354 502 1354Q530 1354 572 1366T633 1378H658Q689 1378 715 1348T741 1266V1222L701 964Z" />
<glyph unicode="&#xab;" horiz-adv-x="1178" d="M676 894Q676 830 436 603Q372 542 371 534Q371 526 465 382Q559 237 559 200T529 136T477 109Q425 109 353 200Q125 489 125 532Q125 542 156 581Q264 717 490 896Q567 957 610 957H621Q676 957 676 904V894ZM1012
240T1012 205T981 142T936 114Q883 114 811 200Q583 474 583 526Q583 553 929 879Q1007 952 1056 952H1066Q1128 952 1128 895V885Q1128 839 977 688T826 526L926 372Q1012 240 1012 205Z" />
<glyph unicode="&#xac;" horiz-adv-x="1231" d="M229 828H1046Q1092 828 1105 815T1119 745V706Q1117 680 1117 665Q1117 469 1074 329Q1066 304 1035 304Q934 304 915 324T896 421Q896 422 900 451T904 557T886 646T795 658L723 660H485Q226 660 207 663Q165
669 165 707L166 721V734Q166 793 176 810T229 828Z" />
<glyph unicode="&#xad;" horiz-adv-x="812" d="M181 703H720Q738 703 738 691Q738 592 713 527Q705 505 676 505H137Q119 505 119 517Q119 703 181 703Z" />
<glyph unicode="&#xae;" horiz-adv-x="1440" d="M622 992H697L701 993L733 996Q737 997 740 997Q774 997 804 1027T835 1097V1117Q832 1129 832 1135Q832 1190 758 1190Q752 1192 747 1192L727 1194H670Q623 1194 623 1081Q623 1077 623 1073L622 1070Q622 1066
622 1062L616 1001Q616 992 622 992ZM765 1458H732Q631 1458 536 1414T369 1291T258 1110T219 907V875Q219 873 219 870Q219 789 252 704Q286 616 348 556Q472 438 654 437L670 438H686Q770 438 866 481Q1055 566 1139 770Q1183 876 1183 987V1003L1182 1019Q1182
1106 1152 1186Q1092 1343 949 1414Q861 1458 765 1458ZM969 1140V1110Q969 1056 939 1013T866 942T823 906Q823 905 845 860T908 717T949 619Q949 602 875 602H862Q816 602 754 742T643 883Q607 883 601 858T588 745T567 631T498 604T445 624V637Q445 643 469
880T494 1193T509 1285T610 1302H714Q832 1302 900 1260T969 1140ZM677 328H617Q512 328 410 374Q204 468 129 674Q93 774 93 885V905Q93 1171 293 1377Q373 1460 491 1514T746 1568H766Q884 1568 988 1524T1159 1407Q1309 1246 1309 1030V991Q1309 862 1258 742Q1147
483 902 378Q785 328 677 328Z" />
<glyph unicode="&#xaf;" horiz-adv-x="829" d="M245 1197H807Q829 1197 829 1173V1165Q829 1034 783 1034H205Q192 1034 192 1051V1065Q192 1197 245 1197Z" />
<glyph unicode="&#xb0;" horiz-adv-x="719" d="M476 1196H456Q406 1196 357 1147T307 1030V995Q309 985 309 980Q309 950 341 912T422 874H432Q487 874 535 922T583 1025L586 1055V1060L585 1065Q585 1112 555 1154T476 1196ZM433 751H396Q298 751 230 825T161
997V1015Q161 1136 253 1228T467 1320H476Q592 1320 661 1246T730 1065L729 1055V1046Q729 933 638 842T433 751Z" />
<glyph unicode="&#xb1;" horiz-adv-x="1112" d="M482 399L504 649Q504 671 343 671T181 705Q181 817 213 840Q228 851 375 851T528 858T552 1019T605 1172H672Q753 1172 753 1121Q753 1112 749 1074T741 1005L733 939Q728 898 728 875T891 851T1055 820Q1055 714
1024 685Q1009 671 863 671T709 662T684 516T665 375Q657 354 614 354H581L564 355Q509 355 496 364T482 399ZM168 255H960Q985 255 985 229L984 219V209Q984 135 970 108T920 80H138Q114 80 114 97V116Q114 255 168 255Z" />
<glyph unicode="&#xb2;" horiz-adv-x="738" d="M477 638H423L405 639H351Q141 639 141 671Q141 721 201 791Q223 817 340 929T501 1106T546 1226Q546 1300 475 1300Q442 1300 362 1259T277 1217Q243 1217 243 1279T330 1393T518 1444T674 1393T730 1270V1234Q730
1159 673 1083T508 907T401 794Q401 788 500 788T629 773T660 712T616 649Q588 638 477 638Z" />
<glyph unicode="&#xb3;" horiz-adv-x="730" d="M485 1446H522Q627 1446 666 1409T705 1300Q704 1188 602 1106Q570 1080 571 1066L579 1059L606 1041Q677 989 677 885T587 698T360 614H342Q248 614 193 651T137 703V716Q137 738 161 769T211 800T289 782T387 763T469
798T506 895T432 981Q337 1012 337 1054Q337 1087 429 1141T522 1246T441 1297L300 1279Q258 1279 258 1343Q258 1379 327 1412T485 1446Z" />
<glyph unicode="&#xb4;" horiz-adv-x="665" d="M674 1416Q702 1416 702 1398Q702 1331 488 1138Q417 1074 355 1074H306Q273 1074 273 1088V1093Q273 1177 441 1366Q483 1413 552 1413L564 1414L571 1415L601 1416H674Z" />
<glyph unicode="&#xb5;" horiz-adv-x="1131" d="M367 358Q367 179 512 179Q564 179 623 221T714 324T794 656T885 968Q913 994 982 994Q1061 994 1061 906Q1061 868 1019 625T976 250Q976 233 988 165Q988 102 940 48Q920 25 879 25T812 43T768 83T742 105T648
53T461 1Q439 1 388 17T334 33Q291 32 245 -258Q233 -334 231 -338Q212 -396 119 -396H88Q16 -396 16 -344V-318Q16 -273 63 -8L89 151Q99 209 100 215L106 247Q111 279 117 310L138 436Q211 860 215 878Q241 992 306 992Q400 992 421 973T442 894T405 616T367
358Z" />
<glyph unicode="&#xb6;" horiz-adv-x="1261" d="M1285 1415Q1285 1415 1285 1412Q1285 1318 1226 1200Q1166 1080 1152 1006T1066 462T984 -38T932 -91T875 -115T832 -88T803 -6T899 636T996 1266T891 1311Q846 1311 833 1240Q827 1207 802 1041T740 651T670 202T628
-52Q609 -123 537 -123H502Q446 -123 446 -33Q446 0 472 157T499 347Q499 541 472 587T352 708T217 851T176 1017Q176 1116 230 1216Q330 1402 559 1455Q657 1478 837 1478H917L956 1477Q1170 1477 1227 1467T1285 1415Z" />
<glyph unicode="&#xb7;" horiz-adv-x="523" d="M146 629L148 654Q148 710 188 745T286 780H321Q385 780 413 747T441 662V642L440 636L438 612Q438 547 395 516T295 485H275L270 486H259Q249 488 245 488Q199 488 172 520T145 604V624L146 629Z" />
<glyph unicode="&#xb8;" horiz-adv-x="715" d="M280 -432H255Q182 -432 140 -404Q125 -394 125 -384V-371Q125 -316 220 -316Q273 -316 298 -293T324 -244T288 -194T251 -153Q251 -91 285 -49T348 -6H380Q425 -6 425 -42Q420 -72 420 -81T445 -107Q455 -117 463
-123Q510 -158 510 -208V-232Q510 -303 440 -367T280 -432Z" />
<glyph unicode="&#xb9;" horiz-adv-x="588" d="M387 640H295Q243 640 243 685Q243 703 293 878T343 1153L345 1172V1189Q345 1205 317 1205Q234 1205 234 1280V1287Q234 1307 294 1348Q420 1434 498 1434H520L530 1433Q563 1433 563 1413V1393Q563 1391 525 1173T487
920L490 883Q490 799 459 720T387 640Z" />
<glyph unicode="&#xba;" horiz-adv-x="807" d="M525 1230H509Q447 1230 394 1161T340 1019L338 1007L337 984V960Q337 899 367 865T444 830H450Q510 830 566 894T623 1034Q625 1046 625 1051L627 1075V1099Q627 1156 598 1193T525 1230ZM526 1367H549Q661 1367
735 1298T809 1112V1079Q809 1008 777 931T693 802Q584 693 449 693H415Q305 693 230 762T155 947V992Q155 1134 271 1258Q319 1309 387 1338T526 1367Z" />
<glyph unicode="&#xbb;" horiz-adv-x="1171" d="M180 118H160Q151 118 130 141T108 173V183Q108 231 259 382T411 541T317 686T223 861T251 926T298 955H308Q349 955 405 896T621 607Q652 563 652 535Q652 516 441 317T180 118ZM868 540Q868 553 772 690T675 867T708
934T750 962H760Q807 962 869 888Q1111 598 1111 537Q1111 500 761 189Q675 113 623 113H613Q559 113 559 166V176Q559 226 713 380T868 540Z" />
<glyph unicode="&#xbc;" horiz-adv-x="1646" d="M1281 565V571H1279Q1278 571 1189 464L1174 446Q1169 439 1166 436T1158 427L1143 409L1090 349Q1056 315 1056 310V308L1059 307H1105L1109 308H1137Q1238 308 1238 337Q1242 355 1247 386T1254 426T1257 439T1266
478T1274 535Q1281 556 1281 565ZM434 599H376Q313 599 313 653T343 794T376 896Q417 1132 417 1156Q417 1174 386 1174T332 1209T309 1264Q309 1300 423 1372Q485 1411 547 1411H581Q623 1411 623 1367Q621 1347 621 1340T583 1115T545 852Q545 737 499 634Q483
599 434 599ZM1276 1464T1357 1464T1438 1443V1429Q1438 1414 1383 1329Q822 462 474 -2Q422 -71 342 -71T261 -50V-35Q261 -15 316 64Q546 394 837 830T1224 1395Q1276 1464 1357 1464ZM1205 176T1028 176T850 217Q850 250 888 297Q1169 644 1314 789Q1345 820
1424 820H1436Q1476 820 1476 781Q1476 768 1441 577T1405 353T1449 308T1494 270V259Q1494 214 1469 191Q1460 182 1422 174T1374 152T1354 68T1330 -14T1248 -27H1220Q1181 -27 1181 0L1205 148Q1205 176 1028 176Z" />
<glyph unicode="&#xbd;" horiz-adv-x="1678" d="M432 597H362Q307 597 307 641Q307 669 319 725T345 818T380 976T401 1136T360 1175Q337 1175 322 1194Q290 1236 290 1260T356 1329Q482 1415 549 1415H583Q625 1415 625 1381V1361L581 1108Q543 889 543 859Q543
760 500 643Q483 597 432 597ZM1279 1468T1353 1468T1428 1441Q1428 1384 501 54Q420 -62 332 -62T244 -35Q244 25 1158 1336Q1214 1416 1246 1442ZM1312 -1H1182Q952 -1 952 33Q952 77 986 121T1146 287T1317 477T1363 605Q1363 675 1286 675Q1252 675 1176 629T1090
582Q1055 582 1055 644T1136 764T1325 823H1345Q1437 823 1496 773T1555 633V615Q1555 534 1484 437Q1449 389 1335 279T1220 160T1315 151T1425 147Q1484 130 1484 94Q1484 37 1453 18T1312 -1Z" />
<glyph unicode="&#xbe;" horiz-adv-x="1801" d="M1298 580H1297Q1291 580 1232 506T1132 391T1091 343V341L1093 340H1111L1115 341H1170Q1258 341 1258 362Q1281 454 1282 477T1289 529T1296 567L1298 575V580ZM232 1287T232 1336T276 1408Q351 1447 481 1447H500Q614
1447 652 1418Q669 1405 669 1350V1335Q669 1239 576 1142Q557 1122 541 1109T525 1092L571 1055Q640 1000 640 899T548 713T331 628H296Q224 628 162 660T100 723T124 779T172 805T240 791T348 776T448 817T486 909T450 986Q438 994 370 1013T301 1062T390 1153T479
1263Q479 1299 407 1299L274 1287Q232 1287 232 1336ZM310 -31Q310 1 351 59T492 267T605 433T707 583T815 743T865 815T933 915L989 999Q1030 1060 1060 1104T1102 1165T1159 1248L1215 1332Q1257 1395 1272 1415Q1323 1483 1400 1483H1419Q1489 1483 1489 1467Q1489
1439 1430 1352Q565 74 520 13T398 -48H379Q310 -48 310 -31ZM890 236V255Q890 280 925 321Q1242 694 1332 784Q1364 816 1436 816H1448Q1488 816 1488 783Q1488 780 1474 705T1455 593T1445 539L1441 513L1436 487Q1420 387 1420 385Q1420 354 1452 346Q1504 333
1504 312V289Q1504 241 1468 225L1391 190Q1380 171 1371 111T1353 36T1310 20H1244Q1203 20 1203 43L1226 193Q1226 215 1058 215T890 236Z" />
<glyph unicode="&#xbf;" horiz-adv-x="958" d="M519 1003L521 1027Q521 1082 559 1120T663 1158H682Q697 1155 720 1155T772 1132T801 1060V1041L800 1037L798 1013Q798 944 755 913T665 882H627Q584 882 543 911Q518 929 518 980V998L519 1003ZM580 753H618Q698
753 698 683Q698 516 503 341Q394 243 346 177T297 38T340 -72T451 -109T607 -59T722 -9T771 -36T794 -105Q794 -182 666 -248T421 -314H381Q239 -314 140 -230T41 -18V21Q41 137 133 262Q179 325 294 421T439 553T494 664T530 746T580 753Z" />
<glyph unicode="&#xc0;" horiz-adv-x="1318" d="M821 1171H818L809 1152Q803 1139 796 1125L770 1073Q558 679 558 656V651Q558 641 716 641L797 639H812Q888 639 888 673L887 680V687L855 921Q851 935 851 950L836 1068Q836 1171 821 1171ZM1008 1647Q1008 1613
957 1613L951 1614H939L916 1616Q854 1616 793 1685Q642 1855 642 1906V1911Q642 1952 693 1952H756Q792 1946 808 1946Q866 1946 900 1895Q1010 1730 1010 1662Q1008 1652 1008 1647ZM813 1486T889 1486T982 1456T1052 1225L1152 575Q1221 126 1221 123V102Q1221
49 1150 49Q1035 49 987 105Q970 126 946 267T913 419Q889 452 784 452Q527 452 465 420Q425 399 347 231L324 184Q284 103 276 94Q233 48 99 48H55Q22 48 22 82Q22 105 77 213Q515 1070 703 1384Q737 1440 775 1463Z" />
<glyph unicode="&#xc1;" horiz-adv-x="1303" d="M815 1182H813Q811 1182 792 1141T757 1069Q548 681 548 652Q548 641 701 641L784 639H807L814 640H829Q849 643 856 643Q883 643 883 674V681L882 688Q882 723 876 752T862 834T852 904L846 949Q835 1032 835 1039L826
1114Q826 1182 815 1182ZM788 1623Q751 1623 751 1645V1654Q751 1713 915 1897Q960 1948 1014 1948Q1050 1954 1064 1954L1102 1958H1163Q1195 1958 1195 1931Q1195 1886 1114 1805Q939 1630 870 1630Q852 1627 845 1627L794 1623H788ZM809 1493T883 1493T976 1461Q1042
1344 1105 870Q1128 696 1172 417T1216 126V104Q1216 48 1146 48Q1038 48 985 107Q963 131 942 267T909 420Q883 456 780 456Q526 456 458 422Q420 403 317 186Q282 111 269 96Q226 46 70 46Q18 46 18 64V83Q18 111 84 240Q551 1156 696 1391Q732 1450 770 1471Z"
/>
<glyph unicode="&#xc2;" horiz-adv-x="1318" d="M830 1081T830 1118T819 1156H817L804 1130L792 1103Q778 1077 740 1000T629 789T556 636Q556 626 707 626L788 624H810L817 625L838 626Q852 628 859 628Q886 628 886 658L835 1046Q830 1081 830 1118ZM592 1608V1622Q592
1671 800 1847Q902 1933 955 1933H963Q1016 1933 1072 1867Q1213 1700 1213 1648V1632Q1213 1594 1149 1594T1026 1652Q931 1747 926 1747T879 1714T776 1637T646 1593H630Q592 1593 592 1608ZM811 1471T887 1471T983 1436T1056 1185Q1065 1146 1080 1035T1107
850L1135 665Q1142 619 1148 575T1166 455L1174 404Q1181 352 1200 231T1219 108V87Q1219 34 1148 34Q1034 34 986 90Q966 114 945 249T911 403Q886 437 783 437Q522 437 463 405Q423 383 356 239T274 79Q231 32 75 32Q21 32 21 49V67Q21 92 87 221Q532 1093 701
1368Q737 1427 774 1449Z" />
<glyph unicode="&#xc3;" horiz-adv-x="1318" d="M814 1142H812Q811 1142 794 1105T664 859T552 628V623Q552 612 702 612L799 610Q881 610 881 638V651L880 658Q880 662 860 812L857 834L854 848L848 892Q838 962 838 973L828 1054Q828 1142 814 1142ZM781 1839H817Q863
1839 940 1796T1052 1753T1137 1788T1232 1823T1277 1789V1780Q1277 1713 1207 1653T1056 1593H1037Q985 1593 901 1637T783 1682T705 1645T597 1607Q560 1607 560 1639Q560 1716 632 1777T781 1839ZM807 1457T884 1457T977 1426Q1000 1381 1052 1171Q1053 1168
1076 1017L1088 940Q1095 888 1103 837L1107 811L1114 758L1126 678Q1142 572 1178 335T1215 94V73Q1215 20 1144 20Q1029 20 981 76Q961 100 940 237T907 390Q882 424 778 424Q522 424 458 391Q430 377 364 250L318 155Q279 74 270 65Q228 19 93 19H49Q16 19 16
35V53Q16 86 94 230Q320 646 391 812T697 1355Q734 1414 770 1435Z" />
<glyph unicode="&#xc4;" horiz-adv-x="1318" d="M828 1159H826Q825 1159 808 1122T678 876T566 645V640Q566 629 716 629L813 627Q895 627 895 655V668L894 675Q894 679 874 829L871 851Q869 861 861 920T852 990L842 1071Q842 1159 828 1159ZM734 1608H697Q682
1611 676 1611Q604 1611 604 1693V1714L605 1718V1727Q607 1735 607 1739Q607 1783 654 1830Q676 1852 731 1852H752Q799 1852 824 1831T850 1782Q852 1774 852 1770L853 1753V1749L852 1745Q852 1687 819 1648T734 1608ZM1248 1769V1737Q1248 1678 1214 1644T1142
1610L1118 1607H1101Q1000 1607 1000 1697V1714Q1000 1780 1047 1827Q1072 1852 1135 1852H1143Q1248 1852 1248 1769ZM819 1474T897 1474T991 1443Q1014 1398 1066 1188Q1067 1185 1090 1034L1102 957Q1109 905 1119 840T1143 682T1192 352T1229 111V90Q1229 37
1158 37Q1043 37 995 93Q975 117 954 254T921 407Q896 441 792 441Q536 441 472 408Q444 394 378 267L332 172Q293 91 284 82Q242 36 107 36H63Q30 36 30 69T108 247Q327 651 405 829T711 1372Q749 1433 784 1453Z" />
<glyph unicode="&#xc5;" horiz-adv-x="1334" d="M903 1908T890 1908T849 1880T821 1826L818 1807V1791L819 1788V1781Q822 1772 822 1769Q822 1715 882 1715L901 1712H908L911 1713H918L930 1715Q953 1715 982 1744T1012 1809V1836Q1009 1845 1009 1851Q1009 1908
951 1908L935 1911H912Q903 1908 890 1908ZM911 688V701L902 769Q899 782 899 785L887 868L881 914L868 997L862 1043Q848 1155 848 1187T838 1219Q836 1219 702 950T567 678Q567 668 726 668L803 666H841L884 670Q911 670 911 688ZM1123 1835V1822Q1123 1745 1058
1680T897 1615H890L883 1616Q809 1616 758 1667T707 1782V1801Q707 1878 772 1943T920 2009H947Q1019 2009 1071 1957T1123 1835ZM774 1509T869 1509T982 1485Q1013 1442 1068 1235Q1073 1215 1104 1008T1143 757L1155 674Q1165 603 1199 397T1234 149Q1234 57
1184 57Q1158 57 1090 82T1006 129T972 297T939 465T826 486Q518 486 456 435Q429 413 362 260T274 90Q228 52 127 52T26 80Q26 116 88 237Q264 581 296 657Q411 927 490 1062Q677 1380 725 1444Z" />
<glyph unicode="&#xc6;" horiz-adv-x="1809" d="M1046 1032Q1045 1032 1045 1034Q1045 1043 1068 1098Q1092 1156 1101 1194Q1101 1208 1083 1208H1072Q1001 1208 973 1147Q920 1030 844 908L702 680L646 578L710 568Q714 559 813 559Q846 559 890 560L1046 1032ZM1619
248T1619 200T1582 137T1446 123Q1073 123 982 157Q926 178 913 200T899 307T883 407Q866 422 770 422T635 402T507 276T378 145T228 119Q191 119 191 144Q191 223 722 1001Q886 1241 951 1290T1123 1351Q1306 1371 1500 1371T1729 1364Q1805 1349 1805 1302Q1805
1223 1721 1205Q1693 1199 1544 1195T1358 1171T1310 1131Q1278 1074 1278 953Q1278 890 1305 874T1441 857L1515 855Q1552 854 1588 854Q1679 854 1679 801Q1679 725 1633 698T1439 658T1259 617Q1211 575 1211 403Q1211 309 1229 293T1381 276L1507 280Q1594
280 1606 264Z" />
<glyph unicode="&#xc7;" horiz-adv-x="1248" d="M168 540V604Q168 776 232 946Q359 1285 638 1422Q777 1490 927 1490H959Q1084 1490 1215 1435T1347 1333V1306Q1347 1273 1301 1203Q1277 1166 1245 1166T1158 1188Q1002 1252 886 1252Q772 1252 692 1196Q534
1086 469 853Q433 724 433 608Q433 394 522 289Q594 204 745 204Q808 204 923 256T1088 308T1154 284T1171 205T1152 124T1006 35T734 -27T495 6T327 114T210 302T168 540ZM559 -437H536Q425 -437 425 -377V-374Q426 -366 450 -359Q584 -325 584 -236Q584 -214
562 -192T540 -159Q540 -123 581 -77T659 -30H682Q732 -30 732 -78L737 -105Q737 -115 753 -144T770 -205L769 -212Q769 -288 702 -362T559 -437Z" />
<glyph unicode="&#xc8;" horiz-adv-x="1139" d="M651 1931Q686 1924 708 1924Q761 1924 794 1874Q904 1709 904 1641L903 1636V1631Q903 1592 851 1592L845 1593H833L810 1595Q748 1595 687 1664Q536 1834 536 1885L537 1890V1895Q537 1931 587 1931H651ZM600
21H389Q163 21 129 38T94 131T189 663T294 1250T312 1399Q332 1444 372 1453Q437 1467 687 1467L758 1469L900 1470H970Q1080 1470 1108 1463Q1176 1446 1176 1401Q1176 1336 1128 1288T986 1239L955 1242L853 1247Q730 1254 687 1254Q591 1254 555 1182Q504 1080
504 958Q504 911 573 900T799 881T970 865T985 818Q985 704 932 682Q919 677 702 668T460 635T425 560Q392 387 392 326T417 246T529 228L565 229Q601 230 637 230T741 235L775 238L808 242Q837 245 881 245T956 227T988 136T913 38Q863 21 600 21Z" />
<glyph unicode="&#xc9;" horiz-adv-x="1135" d="M689 1602Q651 1602 651 1628V1633Q651 1690 820 1880Q865 1931 945 1931L971 1934L1002 1937H1064Q1095 1937 1095 1914V1905Q1095 1856 1010 1780Q818 1609 771 1609Q753 1606 752 1606L714 1603L708 1602H689ZM874
240Q982 240 983 144Q983 88 962 67T881 33T598 20H386Q231 20 148 35Q98 44 98 88Q98 208 196 687T295 1243Q307 1385 314 1404Q332 1451 373 1461Q454 1480 861 1480H931Q1075 1480 1105 1473Q1176 1456 1176 1410Q1176 1354 1125 1302T985 1250L687 1263Q596
1263 558 1189Q508 1093 508 966Q508 916 571 904Q621 894 790 884T966 871Q988 859 988 785T935 688Q918 681 704 672T465 641T429 566Q392 392 392 294Q392 257 428 243T541 228T734 233L769 235L804 238Q832 240 874 240Z" />
<glyph unicode="&#xca;" horiz-adv-x="1139" d="M534 1589H518Q480 1589 480 1604V1611Q480 1651 688 1843Q782 1930 840 1930T949 1876Q1101 1710 1101 1644V1628Q1101 1590 1037 1590T914 1648Q819 1743 815 1743T777 1717T675 1641T560 1592Q536 1589 534 1589ZM600
16H389Q162 16 128 34T94 127T189 659T294 1246T312 1394Q331 1439 379 1449T615 1460L722 1463L900 1465H935Q1080 1465 1108 1458Q1176 1441 1176 1396Q1176 1331 1128 1283T986 1234L922 1238Q900 1239 815 1244T718 1249Q609 1249 569 1199Q551 1176 528 1080T504
953Q504 907 569 895T795 876T970 860T985 813Q985 699 932 677Q919 672 702 663T460 630T425 555Q393 388 393 286Q393 249 437 233Q462 224 564 224T754 232T882 240T955 221T988 130T913 33Q863 16 600 16Z" />
<glyph unicode="&#xcb;" horiz-adv-x="1141" d="M760 1768V1735Q757 1723 757 1703T727 1646T662 1610Q654 1608 650 1608L633 1606H608Q515 1606 515 1672L512 1692V1717Q512 1770 544 1808T614 1847L635 1850H668Q708 1850 734 1829T760 1768ZM1157 1768V1735Q1154
1723 1154 1703T1124 1646T1055 1609L1035 1606H1001Q989 1609 981 1609Q909 1609 909 1691V1712L910 1716V1725Q912 1733 912 1737Q912 1774 941 1809T1003 1845Q1015 1848 1019 1848L1040 1850H1061Q1110 1850 1133 1827T1157 1768ZM581 24H406Q180 24 145 42T110
117Q110 225 204 663T311 1246T329 1402Q348 1447 401 1458T704 1470L774 1472L916 1473H987Q1097 1473 1125 1466Q1192 1449 1192 1404Q1192 1338 1144 1290T1002 1242L971 1245L869 1250Q745 1257 704 1257Q608 1257 571 1185Q521 1089 521 961Q521 914 590 903T815
884T986 868T1001 783T948 685Q935 680 719 671T477 638T441 563Q409 408 409 338T434 249T546 231L581 232Q617 233 653 233T758 238L791 241L825 245Q854 248 898 248T973 230T1004 139T929 41Q879 24 581 24Z" />
<glyph unicode="&#xcc;" horiz-adv-x="609" d="M628 1624Q628 1588 576 1588H570L564 1589L541 1590Q472 1590 424 1645Q265 1827 265 1870V1888Q265 1916 317 1916H379L402 1913L424 1911Q489 1911 518 1868Q629 1701 629 1633L628 1628V1624ZM606 1408V1393Q606
1337 590 1273T560 1125L542 1017L514 855L507 819Q415 267 415 188T394 66T310 22Q194 22 146 37Q120 45 120 98T142 233Q171 323 178 364Q306 1119 306 1186L300 1275Q300 1394 343 1435Q372 1463 508 1463L545 1465Q606 1465 606 1408Z" />
<glyph unicode="&#xcd;" horiz-adv-x="621" d="M428 1596Q391 1596 391 1618V1622Q391 1677 554 1860Q601 1913 662 1913Q674 1915 681 1915L693 1917L755 1921H785Q835 1921 835 1899Q835 1849 750 1773Q556 1601 496 1601Q484 1599 477 1599L446 1596H428ZM619
1417V1387Q619 1339 602 1272T567 1094T543 952L522 825Q431 279 431 193Q431 22 328 22Q174 22 155 38T136 98Q136 107 228 580T320 1189L318 1203L315 1233Q312 1262 312 1278Q312 1417 365 1451Q399 1473 556 1473Q619 1473 619 1417Z" />
<glyph unicode="&#xce;" horiz-adv-x="625" d="M510 1910T565 1910T661 1866Q821 1691 821 1617Q821 1582 754 1582T633 1635Q540 1728 534 1728Q530 1728 478 1688Q340 1581 257 1581L248 1582Q201 1582 201 1602Q201 1672 441 1857Q510 1910 565 1910ZM603 1403V1373Q603
1332 588 1267T562 1143T545 1048L521 904Q515 874 464 568Q413 260 413 182Q413 17 325 17Q325 17 324 17H308L292 18Q154 18 136 32T118 103T145 249T176 359Q304 1114 304 1180L298 1270Q298 1390 334 1424T524 1459H560Q603 1459 603 1403Z" />
<glyph unicode="&#xcf;" horiz-adv-x="622" d="M250 1699L253 1732Q253 1762 284 1799T352 1836L372 1839H400Q446 1839 470 1815T495 1752V1727Q495 1668 447 1620Q422 1595 365 1595H352Q249 1595 249 1691V1695L250 1699ZM880 1756V1723Q877 1711 877 1692T846
1635T775 1598L751 1595H734Q635 1595 635 1690V1698Q635 1758 669 1798T757 1839H785Q831 1839 855 1815T880 1756ZM149 79V110Q149 163 175 245T226 482T258 666Q335 1073 335 1183L333 1198L328 1273Q328 1410 382 1441Q418 1462 573 1462Q634 1462 634 1406V1376Q634
1325 539 834T443 226T423 65T354 20H322Q222 20 174 35Q149 43 149 79Z" />
<glyph unicode="&#xd0;" horiz-adv-x="1399" d="M1116 817V890Q1116 966 1086 1044T1007 1167Q920 1247 729 1247L712 1246Q594 1246 572 1201Q520 1093 520 884Q520 824 677 824Q767 824 767 793Q767 713 750 683T615 652T469 607Q460 593 434 441T408 273Q408
216 466 216H536Q687 216 778 251T945 366T1069 575T1116 817ZM1382 882V856Q1382 668 1309 496Q1169 166 845 54Q713 8 447 8H397Q117 8 117 49Q117 75 161 315T205 601Q205 641 143 655T81 710Q81 780 119 812Q131 822 165 826T204 833Q245 848 258 886Q320 1068
320 1310Q320 1408 353 1429T520 1451L545 1452Q570 1453 594 1453L719 1455Q904 1454 1009 1426Q1235 1365 1331 1151Q1382 1036 1382 882Z" />
<glyph unicode="&#xd1;" horiz-adv-x="1470" d="M849 1825H876Q930 1825 999 1782T1107 1738T1185 1774T1276 1811T1327 1783Q1327 1708 1259 1646T1107 1583H1098Q1050 1583 960 1628T850 1673T779 1635T680 1596T631 1622V1630Q631 1704 702 1764T849 1825ZM1239
9T1176 9T1071 26T994 94T747 586T517 1027Q513 1027 439 583T349 98Q326 35 229 35T131 75Q131 90 170 321L191 444Q208 528 238 748T284 1057T303 1193T313 1325L316 1365Q325 1400 352 1417T445 1435T555 1410T654 1295Q781 1091 861 923T977 679L1080 460Q1096
460 1172 909T1253 1372Q1284 1452 1397 1452H1437Q1480 1452 1480 1418Q1480 1369 1372 728T1256 62Q1239 9 1176 9Z" />
<glyph unicode="&#xd2;" horiz-adv-x="1502" d="M1219 870V918Q1219 1089 1132 1196T907 1303H875Q783 1303 693 1249Q510 1139 433 889Q396 770 396 658V610Q396 445 482 335T709 224H741Q832 224 926 280T1084 430T1183 639T1219 870ZM1067 1650V1645Q1067 1607
1017 1607H1005L999 1608L976 1609Q907 1609 832 1693Q697 1845 697 1893V1902Q697 1932 763 1932H814L837 1929L859 1927Q919 1927 953 1883Q1067 1736 1067 1650ZM1485 925V901Q1485 731 1429 571T1268 288T1020 89T721 14H673Q556 14 454 58Q240 149 166 375Q130
486 130 604V652Q130 822 197 989T372 1270T616 1449T894 1514H942Q1187 1514 1343 1342Q1412 1266 1448 1154T1485 925Z" />
<glyph unicode="&#xd3;" horiz-adv-x="1508" d="M1224 875V907L1223 923Q1223 1103 1133 1208T910 1313H877Q784 1313 693 1258T536 1110T433 894T396 660V612Q396 444 484 332T711 220H727Q924 220 1074 410Q1145 500 1184 631T1224 875ZM849 1614Q810 1614 810
1635V1640Q810 1663 842 1709Q935 1842 997 1897Q1040 1935 1165 1935L1184 1936H1196Q1259 1936 1259 1914Q1259 1870 1070 1702Q975 1618 905 1618Q891 1616 886 1616L861 1614H849ZM1488 938V891Q1488 733 1432 572T1270 287T1023 89T733 14H685Q559 14 454
59T279 180T170 369T131 598V645Q131 824 196 988Q324 1310 604 1450Q748 1522 910 1522H934Q1183 1522 1340 1355Q1403 1287 1445 1176T1488 938Z" />
<glyph unicode="&#xd4;" horiz-adv-x="1502" d="M739 212Q826 212 917 264Q1101 370 1181 627Q1218 746 1218 875V891Q1218 1087 1126 1189T889 1292Q693 1292 545 1105Q474 1015 435 888T395 662V599Q395 438 478 325T707 212H739ZM1010 1919H1018Q1068 1919
1121 1861Q1272 1696 1272 1634V1627Q1272 1593 1207 1593T1082 1644Q1076 1649 1031 1694T982 1739T955 1721T926 1699T888 1670L853 1645Q779 1592 707 1592H699Q650 1592 650 1613Q650 1667 836 1824Q948 1919 1010 1919ZM1483 913V866Q1483 718 1426 554Q1368
392 1252 260Q1024 3 696 2Q428 2 278 168T128 616Q128 788 188 956T361 1248Q593 1503 916 1503H941Q941 1503 946 1503Q1060 1503 1160 1460Q1363 1373 1440 1161Q1483 1041 1483 913Z" />
<glyph unicode="&#xd5;" horiz-adv-x="1502" d="M1215 846V893Q1215 1059 1129 1168T903 1278H871Q782 1278 688 1224Q507 1119 424 849Q392 746 392 633V585Q392 425 475 312T704 199H737Q827 199 921 256T1078 404T1177 611T1215 846ZM827 1842H862Q913 1842
985 1797T1094 1752T1167 1791T1256 1830T1310 1799V1791Q1310 1717 1241 1658T1092 1599H1083Q1030 1599 949 1645T836 1691T764 1650T671 1609T619 1639V1647Q619 1717 687 1779T827 1842ZM1480 924V853Q1480 681 1412 514Q1346 347 1234 228Q1010 -11 694 -11Q288
-11 162 351Q126 454 126 580V627Q126 798 192 961T366 1242Q592 1490 913 1490Q1296 1490 1432 1161Q1480 1046 1480 924Z" />
<glyph unicode="&#xd6;" horiz-adv-x="1502" d="M1216 858V906Q1216 1077 1129 1184T905 1291H872Q790 1291 698 1242T541 1101T434 891T393 646V614L394 598Q394 415 486 313T722 211Q918 212 1060 392Q1136 488 1176 616T1216 858ZM757 1850H786Q833 1850 857
1826T882 1768V1735L878 1710Q878 1683 848 1647T779 1610L763 1607H755L743 1606H739Q634 1606 634 1696V1709L638 1742Q638 1787 675 1818T757 1850ZM1280 1739Q1280 1739 1278 1718Q1278 1684 1247 1647T1174 1609L1150 1606H1133Q1081 1606 1057 1630T1033
1692V1713Q1033 1768 1066 1807T1140 1847L1164 1850H1185Q1227 1850 1252 1829T1278 1779L1281 1755V1743L1280 1739ZM1482 912V889Q1482 719 1426 559T1268 278T1024 80T718 2H670Q552 2 452 44Q245 132 171 342Q127 465 127 592V639Q127 815 196 981Q330 1303
608 1435Q749 1502 891 1502H939Q1050 1502 1156 1460Q1262 1420 1334 1338Q1482 1168 1482 912Z" />
<glyph unicode="&#xd7;" horiz-adv-x="1091" d="M938 307Q938 280 889 236T815 191T678 324T563 458Q553 458 410 324T240 190Q228 190 184 236T139 298T286 455T433 606T324 752T214 899Q214 924 268 971T343 1018T474 882T590 745T742 880T900 1016Q926 1016
969 970T1012 906T868 753T724 603T831 454T938 307Z" />
<glyph unicode="&#xd8;" horiz-adv-x="1447" d="M411 629V592Q411 484 443 413Q450 397 453 397Q477 397 638 632Q1003 1165 1003 1202Q1003 1219 976 1244T894 1270H883L871 1269Q871 1269 868 1269Q789 1269 702 1218Q528 1117 444 850Q411 746 411 629ZM692
207H716Q796 208 884 258Q1061 360 1144 621Q1179 731 1179 866V878Q1179 989 1150 1058Q1142 1077 1134 1077Q1113 1077 952 836Q590 293 590 274T616 231T692 207ZM1446 905V877Q1446 722 1396 568Q1294 255 1038 97Q868 -9 748 -9H724L699 -8L674 -6L621 -7L434
10L377 1L321 0Q230 0 189 38Q177 49 177 83T202 185T227 272T200 368T173 553V579Q173 1012 350 1213Q458 1335 679 1424Q797 1471 979 1471L1026 1472L1047 1474L1133 1470Q1135 1470 1182 1485T1254 1500H1272Q1379 1500 1379 1430L1350 1277Q1350 1266 1374
1218Q1446 1076 1446 905Z" />
<glyph unicode="&#xd9;" horiz-adv-x="1390" d="M935 1587Q868 1587 800 1665Q660 1825 660 1876V1885Q660 1913 711 1913H785L813 1910Q875 1910 909 1871Q922 1856 974 1762Q1026 1669 1026 1643L1025 1614Q1025 1587 980 1587L969 1585L964 1586H952L946 1587H935ZM441
496Q441 218 701 218Q781 218 855 266T978 411T1136 1145Q1171 1353 1187 1391T1238 1450T1350 1472T1428 1434Q1428 1297 1282 586Q1247 417 1191 313Q1112 167 977 86T684 4H648Q426 4 306 128T185 479Q185 541 197 614T222 807T257 1063T291 1306T310 1424Q327
1451 465 1451Q546 1451 546 1374Q546 1359 539 1305T511 1050T466 705T441 496Z" />
<glyph unicode="&#xda;" horiz-adv-x="1395" d="M833 1593Q790 1593 790 1615V1624Q790 1637 840 1720T978 1882Q1019 1918 1141 1918H1202Q1233 1918 1233 1896V1892Q1233 1846 1144 1767Q956 1600 907 1600Q877 1595 864 1595L839 1593H833ZM547 1386Q547 1353
535 1236T512 1003T475 731T449 466T515 287T682 217Q880 217 980 400Q1034 500 1105 922T1190 1386T1240 1453T1360 1478H1392Q1433 1478 1433 1449Q1433 1292 1293 601Q1259 432 1204 324Q1129 177 993 91T647 4T315 129T192 473Q192 638 280 1166Q293 1244 298
1331T308 1427Q324 1459 460 1459Q547 1459 547 1386Z" />
<glyph unicode="&#xdb;" horiz-adv-x="1390" d="M683 1577H658Q619 1577 619 1591V1598Q619 1650 839 1836Q921 1905 979 1905H987Q1038 1905 1084 1855Q1238 1687 1238 1620V1613Q1238 1577 1175 1577H1166Q1092 1577 1004 1677Q962 1723 953 1723T863 1660L828
1635Q747 1577 683 1577ZM441 490Q441 212 701 212Q795 212 865 266T980 408T1097 914T1173 1347Q1194 1416 1233 1440T1327 1465H1363Q1428 1465 1428 1428Q1428 1291 1282 580Q1247 411 1181 288T978 81T684 -3H648Q427 -3 306 123T185 472Q185 533 199 626T224
819T258 1060T291 1302T310 1418Q327 1445 465 1445Q546 1445 546 1368Q546 1354 539 1295T525 1177L501 948Q488 824 465 696T441 490Z" />
<glyph unicode="&#xdc;" horiz-adv-x="1390" d="M867 1749V1733Q867 1678 833 1637T740 1596H719Q673 1596 646 1618T619 1678V1707Q619 1758 664 1812Q687 1840 742 1840H770Q817 1840 842 1815T867 1749ZM1264 1732Q1264 1677 1232 1639T1165 1600Q1157 1598
1153 1598L1137 1596H1112Q1070 1596 1043 1618T1016 1687V1703Q1016 1758 1049 1797T1123 1837L1147 1840H1164Q1176 1837 1188 1837Q1261 1837 1261 1769L1264 1745V1732ZM450 494Q450 216 709 216Q889 216 990 417Q1035 507 1106 921T1188 1371T1231 1438T1336
1469H1371Q1436 1469 1436 1431Q1436 1299 1291 584Q1220 229 992 87Q855 1 693 1H656Q348 2 234 248Q194 334 194 439V476Q194 512 245 919T307 1377T343 1439T473 1449Q555 1449 555 1372Q555 1369 545 1278L541 1246Q534 1188 533 1181L523 1082Q516 1018 507
934T474 706T450 494Z" />
<glyph unicode="&#xdd;" horiz-adv-x="1230" d="M740 1598Q702 1598 702 1624V1629Q702 1707 875 1880Q921 1926 990 1926L997 1927L1003 1928L1028 1930L1034 1931L1066 1933H1103Q1146 1933 1146 1910V1901Q1146 1851 1052 1767Q867 1603 810 1603Q796 1601
791 1601L752 1598H740ZM680 880T683 880T875 1112L965 1223Q973 1233 1021 1304T1074 1379Q1142 1459 1248 1459H1299Q1343 1459 1343 1442Q1343 1415 1091 1061T812 651Q759 543 727 345T669 89T581 30Q490 30 460 40T430 91Q430 93 461 306T492 578Q492 694
423 863L298 1132Q186 1385 186 1394T218 1423T307 1443Q398 1443 442 1381Q505 1292 645 962Q680 880 683 880Z" />
<glyph unicode="&#xde;" horiz-adv-x="1094" d="M923 866Q923 951 859 999T674 1047H649Q560 1047 546 1019T523 912T503 779T490 704T478 630T467 567Q467 540 519 540H569L577 541L603 542L646 545Q757 545 839 627T921 822L923 839V866ZM493 1442Q549 1442
557 1432T581 1348T614 1264Q621 1260 728 1248T865 1227Q1173 1143 1173 866Q1173 653 1039 519Q959 439 842 399Q805 386 648 360T474 323Q413 287 379 155T301 23Q126 23 126 67Q126 213 252 879Q272 984 289 1171T323 1400T493 1442Z" />
<glyph unicode="&#xdf;" horiz-adv-x="1175" d="M852 344Q852 449 749 555T646 755T737 971T829 1130T804 1195T729 1225T617 1172T513 1020T403 523T282 -39Q242 -163 138 -163Q86 -163 63 -141T39 -96T72 55T148 442T191 823L190 859L189 888Q189 988 254 1105Q318
1222 402 1303Q569 1465 760 1465H799Q917 1465 1002 1380T1087 1185T1001 959T914 758Q914 731 1004 612Q1094 492 1094 392Q1094 202 969 86T624 -30Q553 -30 503 -5T453 72Q453 92 481 127T530 171T644 186T784 223Q852 269 852 344Z" />
<glyph unicode="&#xe0;" horiz-adv-x="1107" d="M347 463V416Q347 336 384 282T489 227L498 228Q546 228 601 265T683 346Q779 506 779 666L782 694V756Q782 831 753 856T656 881H647Q538 881 443 751T347 463ZM799 1198H759Q703 1198 651 1258Q498 1433 498 1518L499
1523V1527Q499 1553 549 1553H560L566 1552L646 1550Q652 1549 657 1549Q712 1549 743 1500Q839 1346 839 1266L842 1238V1228Q842 1198 799 1198ZM98 375V434Q98 528 138 645T257 857T432 1002T623 1054H642Q748 1054 801 1032T875 1009T930 1018T994 1027Q1073
1027 1073 951V935Q1073 904 1025 682T977 309Q977 260 986 235T995 201Q995 135 961 97T870 58T782 95Q729 161 728 161Q721 161 680 131T550 71T398 41Q270 41 184 137T98 375Z" />
<glyph unicode="&#xe1;" horiz-adv-x="1109" d="M351 474V417Q351 338 387 282T484 225H502Q542 225 599 259T693 355Q785 508 785 692L787 711V764Q787 844 759 867T671 891H653Q603 891 548 858T450 763Q351 619 351 474ZM1038 1543V1535Q1038 1485 833 1280Q761
1208 697 1208H659Q614 1208 614 1228T656 1331T773 1500Q822 1555 894 1555L900 1556L907 1557L950 1559H1005Q1038 1559 1038 1543ZM985 1036Q1073 1036 1073 960Q1073 922 1028 682T982 305Q982 264 994 208Q994 137 972 108Q934 58 853 58Q808 58 780 95Q733
157 727 157T679 126T543 67T410 39H392Q259 39 179 144T98 401L99 421V440Q99 442 99 444Q99 538 142 656Q233 908 447 1018Q536 1064 625 1064H644Q680 1062 704 1062T769 1054T835 1034T881 1023L985 1036Z" />
<glyph unicode="&#xe2;" horiz-adv-x="1107" d="M350 448V411Q350 321 387 267T492 212L501 213Q549 213 605 250T691 338Q786 496 786 706V723Q786 807 762 836T660 866L651 865Q540 865 455 749Q350 606 350 448ZM492 1183H475L467 1184Q435 1184 435 1203V1210Q435
1259 671 1477Q743 1543 795 1543T892 1486Q1036 1299 1036 1222Q1036 1183 993 1183H976Q924 1183 896 1207T821 1291T768 1352T729 1323T677 1278T636 1242T582 1203T492 1183ZM101 380V419Q101 520 144 636Q235 881 432 986Q532 1039 627 1039H645Q755 1039
806 1017T877 994T933 1003T998 1012Q1076 1012 1076 936V920Q1076 889 1028 667T980 294Q980 255 989 226T998 186Q998 120 964 82T872 43T786 79Q735 146 733 146T682 114T548 54T401 26Q264 26 183 128T101 380Z" />
<glyph unicode="&#xe3;" horiz-adv-x="1107" d="M345 429V410Q345 316 381 259T478 202H496Q538 202 594 236T695 343Q781 486 781 687V722Q779 740 779 768T758 826T673 855H637Q602 855 544 824T434 716Q345 582 345 429ZM615 1434H641Q691 1434 767 1389T879
1344T958 1380T1050 1417T1098 1388Q1098 1304 1026 1243T877 1182H868L859 1183Q804 1183 727 1228T615 1274T535 1236T442 1198T394 1225V1234Q394 1311 467 1372T615 1434ZM1072 926Q1072 884 1024 660T975 298Q975 256 984 220T993 176Q993 33 857 33Q808 33
781 69Q730 136 725 136T681 107T552 47T415 16H396Q259 16 178 118T96 370V389Q96 506 140 627T258 835Q425 1029 622 1029H640Q735 1029 796 1007T873 984L993 1002Q1072 1002 1072 926Z" />
<glyph unicode="&#xe4;" horiz-adv-x="1107" d="M362 461V405Q362 329 398 273T495 216H512Q554 216 611 250T707 349Q797 499 797 691V736Q797 821 768 845T680 869H653Q552 869 457 740T362 461ZM696 1346L691 1309Q691 1282 661 1246T590 1209L565 1206H548Q501
1206 476 1227T451 1275L448 1295V1320Q448 1374 492 1427Q516 1456 570 1456H600Q696 1456 696 1363V1346ZM936 1206Q893 1206 868 1227T843 1274L840 1294V1319Q845 1344 845 1362T875 1417T946 1453L970 1456H987Q1088 1456 1088 1359V1350Q1088 1294 1059 1253T994
1211L982 1208L961 1206H936ZM1088 940V923Q1088 912 1074 836T1054 739L1046 702Q991 443 991 362T1000 238T1009 189Q1009 47 874 47Q826 47 797 83Q744 149 743 149Q734 149 695 120T571 60T431 30H394Q274 30 193 133T112 384V403Q112 519 154 635Q244 884
444 989Q546 1043 638 1043H657Q749 1043 810 1021T889 998L1009 1016Q1088 1016 1088 940Z" />
<glyph unicode="&#xe5;" horiz-adv-x="1107" d="M742 1483T727 1483T686 1450T659 1395L657 1382V1363L658 1360V1353Q661 1344 661 1341Q661 1290 716 1290L731 1287H751Q763 1291 778 1291T820 1323T846 1378L848 1394V1410Q848 1483 789 1483L773 1486H751Q742
1483 727 1483ZM349 463V416Q349 336 386 282T473 228H508Q542 228 598 262T685 346Q782 508 782 676L784 694V756Q784 831 755 856T658 881H649Q540 881 445 751T349 463ZM531 1352V1380Q531 1464 605 1531T770 1598H784Q858 1598 915 1546T973 1415V1401Q973
1310 900 1244T741 1177H720Q639 1177 585 1231T531 1352ZM626 1054H663Q745 1054 800 1032T874 1009T931 1018T997 1027Q1075 1027 1075 951V935Q1075 904 1027 682T979 309Q979 260 988 235T997 201Q997 135 963 97T871 58T784 95Q734 161 729 161T682 131T551
71T400 41Q272 41 186 137T100 376V434Q100 536 143 653T262 861T434 1002T626 1054Z" />
<glyph unicode="&#xe6;" horiz-adv-x="1740" d="M401 470V429Q401 330 443 276T544 222H563Q614 222 682 260T770 338Q777 351 804 479T835 625T844 665T852 698L890 854Q890 862 859 884T752 907H713Q668 907 608 872T502 770Q401 623 401 470ZM1123 669T1123
662T1145 654H1157L1163 655L1272 664L1293 666Q1318 671 1334 671L1362 675L1393 680Q1457 680 1496 704T1536 736V765Q1534 777 1534 782Q1534 831 1491 874T1384 917H1360Q1289 917 1204 841T1118 693V689Q1123 669 1123 662ZM1247 7H1215Q1083 7 988 70L964
88L942 108Q886 146 865 146T717 78T482 9Q331 9 232 112T133 409V439Q133 561 183 686T318 908Q493 1109 728 1109Q751 1109 788 1104L818 1099L846 1093L871 1098Q891 1101 949 1101T1066 1059L1106 1028Q1108 1028 1155 1053T1261 1099T1417 1119Q1574 1119
1672 1029T1770 767Q1770 636 1658 576Q1592 540 1438 514T1227 487L1133 481Q1081 471 1081 395T1152 272T1328 225Q1364 225 1449 245T1563 266Q1630 266 1630 223Q1630 134 1591 105T1452 41T1247 7Z" />
<glyph unicode="&#xe7;" horiz-adv-x="942" d="M680 1062Q790 1062 859 1030Q977 974 977 931V912Q977 871 943 835T891 798T839 818T769 856T666 874T538 828Q360 693 360 391Q360 289 411 232T534 175T696 215T821 255T856 180T771 54Q641 -23 503 -23Q228 -23
139 209Q109 287 109 375L108 399Q108 524 156 653T290 877Q456 1062 680 1062ZM397 -444H366Q260 -444 260 -387V-383Q260 -370 308 -362Q425 -341 425 -251Q425 -233 397 -205T369 -172Q369 -135 410 -85T480 -35H512Q551 -35 551 -78Q551 -108 581 -142T611
-211V-218L610 -225Q610 -303 540 -373T397 -444Z" />
<glyph unicode="&#xe8;" horiz-adv-x="975" d="M439 607Q474 614 499 614Q595 614 686 665T778 765V780Q778 824 743 855T665 886H637Q627 884 621 884Q549 884 471 794T392 643L388 623V619Q388 607 413 607H439ZM793 1244V1228Q793 1198 733 1198H715Q655 1198
613 1245Q449 1430 449 1518V1523Q449 1553 494 1553H551Q649 1553 684 1513T756 1371T793 1244ZM531 32H509Q238 32 147 242Q111 325 111 402V445Q111 568 157 684Q251 922 452 1016Q549 1062 652 1062H697Q813 1062 903 987T994 791V769Q994 645 907 589T715
505T533 469T421 448Q373 432 373 370T419 268T539 228T701 255L825 293Q877 293 877 221T761 90T531 32Z" />
<glyph unicode="&#xe9;" horiz-adv-x="980" d="M653 897H641Q558 897 469 808T379 625V620Q379 609 405 609H431L436 610L458 612Q470 614 475 614Q579 614 676 668T774 774V785L773 790Q773 830 740 863T653 897ZM590 1209Q557 1209 557 1223V1232Q557 1297 708
1491Q758 1555 831 1555Q843 1557 849 1557L862 1559H960Q981 1559 981 1540V1535Q981 1494 895 1397Q731 1212 664 1212L646 1209H590ZM527 30H504Q231 30 139 242Q103 325 103 424V446Q103 568 150 690Q241 928 444 1024Q546 1072 645 1072H689Q813 1072 901
995T990 800V779Q990 712 964 667T851 567T531 472Q423 454 413 450Q369 434 369 371T416 267T532 226T647 238T748 271T826 291Q877 291 877 217T755 87T527 30Z" />
<glyph unicode="&#xea;" horiz-adv-x="975" d="M772 750V766Q772 805 739 838T648 872L642 871H637Q555 871 469 785T382 604Q382 592 417 592H422L427 593L449 594L476 597Q504 602 510 602Q581 602 707 665Q772 698 772 750ZM436 1182H420L411 1183Q379 1183
379 1202V1209Q379 1258 616 1477Q688 1543 739 1543T842 1478Q980 1302 980 1221Q980 1183 925 1183T844 1203T767 1287T709 1351Q708 1351 627 1282T519 1198T436 1182ZM525 18H480Q319 18 218 115Q162 169 134 244T105 387V431Q105 549 150 666T268 867Q425
1048 669 1048Q879 1048 958 895Q988 837 988 776V754Q988 638 910 580Q794 494 553 458Q434 440 415 434Q368 419 368 337Q368 283 420 248T540 213T695 240L819 278Q871 278 871 206T756 76T525 18Z" />
<glyph unicode="&#xeb;" horiz-adv-x="979" d="M455 596Q485 602 504 602Q605 602 697 653T789 754V769Q789 808 756 841T676 875H653Q638 872 626 872Q569 872 485 788T401 622L399 612V607Q399 596 419 596H455ZM489 1207Q451 1207 425 1229T398 1291V1324L402
1349Q402 1381 432 1417T499 1453L519 1456H552Q644 1456 644 1359V1351Q644 1287 612 1249T542 1210L522 1207H489ZM786 1320L788 1341Q788 1395 825 1425T906 1456H936Q977 1456 1004 1434T1031 1363V1346L1029 1330L1026 1309Q1026 1281 996 1245T926 1209L901
1206H884Q785 1206 785 1295V1316L786 1320ZM542 21H497Q416 21 343 51T221 132Q121 240 121 412V434Q122 564 172 684Q268 913 463 1005Q560 1051 663 1051H685Q826 1051 915 974T1005 779V758Q1004 634 914 576Q786 495 570 461Q453 444 432 437Q384 421 384
355T435 253T560 217T731 249T836 282Q888 282 888 210T772 79T542 21Z" />
<glyph unicode="&#xec;" horiz-adv-x="520" d="M487 1208V1197Q487 1173 428 1173H399Q341 1173 294 1234Q145 1426 145 1489V1498Q145 1521 214 1521H300Q364 1521 389 1476Q487 1300 487 1208ZM469 1002V978Q469 947 426 679T383 257T349 47Q329 15 170 15H144Q103
15 103 49V118L104 130L105 154Q106 167 106 185T147 460T197 827T217 972Q232 1021 335 1021L373 1022H386Q469 1022 469 1002Z" />
<glyph unicode="&#xed;" horiz-adv-x="525" d="M387 1185H325Q295 1185 295 1201V1206Q295 1262 458 1472Q502 1529 562 1529H665Q724 1529 724 1513V1508Q724 1446 546 1288Q430 1185 387 1185ZM207 16H168Q128 16 128 52V64L129 75Q129 87 129 99L133 196Q133
222 182 541L190 593Q195 618 199 644L211 721Q228 826 237 901T247 983Q260 1033 350 1033H414Q496 1033 496 1012V1000Q496 975 452 689T408 306L407 276L403 232Q403 75 365 37Q344 16 207 16Z" />
<glyph unicode="&#xee;" horiz-adv-x="545" d="M195 1170H161Q103 1170 103 1191Q103 1230 335 1462Q401 1528 460 1528H468Q529 1528 566 1467Q699 1245 699 1198Q699 1173 638 1173T556 1187T485 1267T428 1332T332 1251T195 1170ZM485 997V973Q485 962 442
680T398 297Q398 71 358 34Q334 12 185 12L159 11Q117 11 117 67V91L118 102V114Q118 171 161 454T206 747Q221 924 233 970T350 1016L388 1017H401Q485 1017 485 997Z" />
<glyph unicode="&#xef;" horiz-adv-x="557" d="M234 1183H209Q169 1183 141 1207T112 1260Q110 1268 110 1272L109 1293V1297Q109 1353 152 1405Q180 1438 233 1438H258Q273 1435 287 1435T330 1411T359 1340V1319L355 1290Q355 1248 317 1216T234 1183ZM741 1345V1311Q741
1243 687 1204Q656 1182 609 1182H601Q552 1182 524 1206T495 1259L491 1288V1296Q491 1352 525 1393T595 1434Q603 1436 607 1436L628 1438H636Q679 1438 710 1412T741 1345ZM193 12H167Q125 12 125 80L126 92L128 151Q129 163 129 187T164 431L169 458L177 510L180
523L190 588Q195 615 197 625L209 700Q212 728 215 762L226 859L229 884L232 920Q241 1015 293 1015Q319 1017 332 1017L409 1019Q492 1019 492 998V975Q492 904 452 694T411 415Q411 413 408 380L405 347Q405 332 405 317L407 262L404 216Q404 73 366 35Q343 12
193 12Z" />
<glyph unicode="&#xf0;" horiz-adv-x="1072" d="M338 394Q338 304 385 243T498 182H516Q558 182 611 210T704 300Q789 432 789 589L790 598Q790 692 746 749T630 807H603Q510 807 425 699T340 456L338 438V394ZM95 398Q95 500 133 604T244 793T409 921T583 965L609
964L656 961Q764 961 764 994Q764 1054 724 1091T650 1128T579 1121L558 1117Q522 1109 518 1109Q461 1109 461 1179Q461 1205 519 1241T577 1292T535 1348T493 1412T522 1465T586 1495T711 1444T823 1392T890 1410T952 1429Q1021 1429 1021 1374Q1021 1345 967
1302T912 1222Q912 1210 952 1106Q1046 867 1046 612T898 177Q828 93 727 45T520 -4Q330 -4 224 88Q95 199 95 398Z" />
<glyph unicode="&#xf1;" horiz-adv-x="1100" d="M872 1168H836Q792 1168 715 1213T601 1259T523 1221T431 1183T380 1211V1219Q380 1284 448 1352T610 1420H619Q679 1420 752 1375T861 1329T944 1365T1038 1402T1084 1373Q1084 1301 1018 1235T872 1168ZM783 18Q745
18 734 68T723 204Q723 207 723 210Q723 295 752 450Q782 610 782 672Q782 816 648 817Q598 817 543 773T455 664T377 358T313 77Q287 16 185 16H161Q88 16 88 69Q88 89 136 343T198 735T226 919Q252 1004 319 1004T409 982T444 921T460 881Q470 881 514 915Q633
1008 763 1008T964 936T1034 747V723Q1034 695 1027 645T1013 524T996 394T978 230T949 78Q925 18 783 18Z" />
<glyph unicode="&#xf2;" horiz-adv-x="1076" d="M508 207H527Q573 207 627 238T726 334Q810 460 810 613V632Q810 748 768 813T649 879H620Q580 879 526 847T431 753Q343 621 343 472V424Q343 328 390 268T508 207ZM796 1236V1221Q796 1198 747 1198H719Q655 1198
608 1251Q451 1428 451 1512Q451 1543 498 1543H560L565 1542L599 1541Q605 1540 611 1540Q667 1540 694 1500Q796 1347 796 1236ZM1070 704V656Q1070 546 1018 418Q914 166 714 70Q608 19 498 19H480Q302 19 198 132T94 417V450Q94 559 136 673T254 874Q417 1060
651 1061L668 1060Q829 1060 955 945Q1007 897 1038 827T1070 704Z" />
<glyph unicode="&#xf3;" horiz-adv-x="1084" d="M508 205H537Q572 205 626 235T746 363T811 627V636Q811 756 769 822T650 888H631Q525 888 447 782Q343 640 343 474V426Q343 325 390 265T508 205ZM596 1208Q563 1208 563 1222V1227Q563 1243 610 1330T735 1504Q771
1544 824 1544Q836 1546 842 1546L873 1549H970Q993 1549 993 1531Q993 1484 856 1347T664 1210L652 1208H596ZM1074 708V659Q1074 552 1020 421Q914 164 714 68Q608 17 495 17H478Q392 18 318 48Q171 109 119 263Q91 347 91 422V438L92 455Q92 563 134 679T257
887T439 1024T638 1070H672Q829 1070 959 951Q1010 904 1042 832T1074 708Z" />
<glyph unicode="&#xf4;" horiz-adv-x="1076" d="M508 194H527Q633 194 721 314T809 580V638Q809 736 768 801T649 866H620Q580 866 526 834T431 740Q342 606 342 440V430L343 421Q343 309 391 252T508 194ZM940 1184H923L915 1185Q864 1185 831 1213Q828 1216
772 1282T710 1348T657 1306T593 1249Q510 1184 450 1184H442Q382 1184 382 1203T411 1260Q505 1379 619 1476Q690 1536 745 1536T846 1476Q985 1295 985 1213Q985 1184 940 1184ZM94 387V454Q94 550 141 675T271 882Q437 1048 651 1048L668 1047Q829 1047 955
932Q1007 885 1038 814T1070 675V643Q1070 543 1022 416T894 196Q727 6 499 6Q498 6 497 6H480Q317 6 215 103Q158 158 126 237T94 387Z" />
<glyph unicode="&#xf5;" horiz-adv-x="1076" d="M507 183H526Q572 183 626 214T725 310Q809 436 809 588V608Q809 724 767 789T648 855H629Q589 855 534 828T435 736Q342 601 342 448V400Q342 309 387 246T507 183ZM570 1436H588L597 1435Q648 1435 716 1390T822
1344T897 1382T985 1420T1036 1391V1382Q1036 1309 966 1249T829 1189H803Q754 1189 677 1235T566 1282T497 1243T408 1204T355 1231Q355 1307 425 1371T570 1436ZM513 -5H462Q390 -5 320 24Q175 84 121 235Q93 311 93 393V426Q94 538 136 650Q227 889 434 989Q531
1036 634 1036H667Q750 1036 826 1004Q977 939 1039 799Q1069 731 1069 680V631Q1069 521 1017 395T889 182T713 45T513 -5Z" />
<glyph unicode="&#xf6;" horiz-adv-x="1076" d="M515 195H534Q640 195 728 315T816 581V639Q816 730 777 798T656 867H636L627 866Q585 866 528 832T432 733Q349 595 349 450V422Q349 311 398 253T515 195ZM518 1456H539Q588 1456 613 1431T639 1366V1342L635
1313Q635 1270 598 1239T508 1207H495Q451 1207 423 1227T394 1280L391 1304V1313L395 1346Q395 1393 433 1424T518 1456ZM1031 1342Q1031 1342 1029 1321Q1029 1270 991 1239T909 1207H884L880 1208H872Q864 1210 850 1210T812 1230T787 1280L784 1304V1316Q784
1382 821 1419T915 1456H928Q975 1456 1001 1434T1028 1386Q1030 1378 1030 1374L1032 1358V1346L1031 1342ZM521 7H487Q307 7 204 121T100 422Q100 678 262 863T658 1049L675 1048Q839 1048 961 933Q1016 880 1046 812T1077 676V643Q1077 546 1029 418T904 203T730
62T521 7Z" />
<glyph unicode="&#xf7;" horiz-adv-x="1127" d="M629 884H597Q550 884 522 907T494 975V1006Q494 1065 535 1113Q560 1142 618 1142H653Q700 1142 728 1118T757 1046V1020L752 985Q752 942 717 913T629 884ZM982 553H142Q106 553 106 584Q106 663 128 710Q138
731 178 731H1029Q1054 731 1054 711V690Q1054 614 1033 574Q1022 553 982 553ZM545 398H555L590 394Q619 394 643 370T667 301V274Q667 216 636 180T564 143Q556 141 551 141L534 139H507Q460 139 433 161T406 218L403 244V253L407 288Q407 337 443 367T545 398Z"
/>
<glyph unicode="&#xf8;" horiz-adv-x="1032" d="M667 809V819Q667 844 620 844H594Q553 844 503 815T412 722Q336 603 336 459V431L338 411L340 385Q340 342 353 342H356Q373 342 460 478Q667 803 667 809ZM449 220V205Q449 185 494 185H521Q612 185 682 281Q773
406 773 528L774 534L775 541L776 562V613L772 652Q772 690 759 690T597 458T449 220ZM92 385V424Q92 556 148 682Q258 931 486 1003Q582 1033 663 1033Q666 1033 668 1033Q751 1032 766 1032L889 1068H916Q950 1068 963 1054T976 980L972 912Q972 885 996 812T1021
664V644L1020 625V606Q1020 493 976 374T843 163T650 32T412 -7L381 -9L350 -8Q341 -8 297 -19T225 -31H212Q169 -31 151 -21T133 35L129 62L132 89V140Q132 170 112 238T92 385Z" />
<glyph unicode="&#xf9;" horiz-adv-x="1094" d="M800 1197Q800 1167 752 1167H717Q661 1167 609 1227Q457 1401 457 1482V1491Q457 1522 507 1522H518L524 1521L604 1519Q610 1518 615 1518Q675 1518 704 1465Q798 1296 798 1229L800 1218V1197ZM378 356Q378 213
499 213Q545 213 600 249T694 347T775 641T849 942T950 1011T1042 990T1064 949T1022 687T969 298Q951 39 859 39Q780 39 759 56T725 107T707 141T654 110Q523 26 387 26H362Q257 26 192 97T126 279V304Q126 333 177 645T231 964Q251 1014 348 1014Q409 1014 431
992T454 902T416 616T378 356Z" />
<glyph unicode="&#xfa;" horiz-adv-x="1103" d="M968 1529Q996 1529 996 1509V1505Q996 1434 804 1263Q708 1178 655 1178H617Q572 1178 572 1192V1202Q572 1218 614 1301T731 1470Q780 1525 852 1525L864 1527L907 1529H968ZM383 357Q383 212 504 212Q550 212
609 252T703 360T779 646T841 919T889 997T971 1021T1049 999T1071 946T1033 710T983 367T953 158Q922 38 862 38Q784 38 763 57T731 112T716 147T654 109T536 48T374 25T200 92T128 286V311Q128 332 179 650T234 977Q255 1024 354 1024Q415 1024 436 1000T457
903T420 618T383 357Z" />
<glyph unicode="&#xfb;" horiz-adv-x="1094" d="M456 1164H422Q390 1164 390 1184V1191Q390 1258 633 1464Q704 1524 751 1524T853 1460Q991 1297 991 1211V1203Q991 1164 948 1164H931L923 1165Q864 1165 811 1228Q722 1333 719 1333Q712 1333 622 1249T456 1164ZM378
349Q378 206 499 206Q545 206 600 242T692 339T773 626T837 906Q876 1004 948 1004T1050 975Q1064 961 1064 945T1017 656T970 277T926 84Q899 32 859 32Q781 32 759 49T724 100T707 134T648 101T578 60Q490 19 387 19H362Q259 19 193 89T126 272V297Q126 368 152
508T200 789T231 957Q251 1007 348 1007Q407 1007 430 986T454 894T416 609T378 349Z" />
<glyph unicode="&#xfc;" horiz-adv-x="1094" d="M396 1307L398 1328Q398 1359 426 1399T493 1439Q501 1441 505 1441L522 1443H547Q589 1443 616 1421T643 1354V1329Q643 1274 609 1234T512 1193H500L467 1197Q445 1197 420 1217T395 1282V1303L396 1307ZM788
1307L790 1327Q790 1381 827 1412T914 1443H934Q949 1440 959 1440Q1032 1440 1032 1370L1035 1346V1333Q1035 1274 1002 1234T912 1193H883Q835 1193 811 1217T787 1281V1302L788 1307ZM389 360Q389 216 510 216Q554 216 609 250T702 347T786 646T856 937Q892
1014 967 1014Q1075 1014 1075 951Q1075 939 1028 667T981 288T937 95Q910 42 870 42Q791 42 769 60T734 111T719 144Q712 144 659 112T589 71Q503 29 398 29H373Q271 29 204 100T137 282V307Q137 339 188 650T241 967Q262 1017 359 1017H383Q417 1017 441 995T465
904T427 619T389 360Z" />
<glyph unicode="&#xfd;" horiz-adv-x="1041" d="M593 1188Q549 1188 549 1203V1208Q549 1295 709 1475Q760 1532 822 1532Q850 1536 859 1536L890 1537H951Q978 1537 978 1516Q978 1462 889 1373Q706 1190 649 1190L637 1188H593ZM447 96Q447 98 352 203T220 406Q150
598 150 924Q150 952 186 975Q256 1019 298 1019Q386 1019 423 883Q444 806 456 576T490 345Q542 345 637 499Q695 593 765 769T861 976Q910 1035 1031 1035Q1083 1035 1083 1009T890 520T651 -11Q568 -137 467 -217Q287 -359 203 -359T119 -322Q119 -319 208 -257T331
-151Q447 -1 447 96Z" />
<glyph unicode="&#xfe;" horiz-adv-x="1087" d="M485 170H522Q619 170 708 291T797 584V621Q797 706 762 764T667 822H658L650 821Q604 821 542 781T449 683Q363 522 363 322V288Q363 232 394 201T485 170ZM1038 619V591Q1038 470 990 352T872 154Q726 -11 502
-11Q455 -11 395 11T331 34Q302 34 267 -159T221 -372Q185 -439 70 -439H43Q-15 -439 -15 -417Q-15 -406 42 -87L72 81Q82 136 93 197T191 793T301 1416Q321 1488 405 1488H432Q489 1488 504 1457T519 1351T494 1121T469 951T483 936Q485 936 509 944Q671 998 746
998Q866 998 952 897T1038 619Z" />
<glyph unicode="&#xff;" horiz-adv-x="1041" d="M368 1307Q368 1366 400 1405T465 1444Q473 1446 478 1446L494 1448H519Q561 1448 586 1427T611 1380L614 1360V1335L610 1306Q610 1258 574 1228T480 1198H472L439 1202Q371 1202 371 1266L368 1291V1307ZM852
1198Q757 1198 757 1282V1311Q757 1367 800 1419Q824 1448 882 1448H907Q950 1448 975 1427T1000 1375Q1002 1369 1002 1364L1003 1347L1002 1343V1334L999 1309Q999 1274 969 1238T897 1201L873 1198H852ZM441 84Q441 96 349 207T221 428Q158 624 158 917Q158
946 191 970Q252 1014 299 1014T375 987Q444 920 459 631T498 341Q548 341 643 498Q702 594 774 770T869 972Q919 1028 1042 1028Q1091 1028 1091 1006T903 533T640 -30T426 -250T200 -358T114 -319Q114 -313 196 -254T319 -146Q441 -2 441 84Z" />
<glyph unicode="&#x2013;" horiz-adv-x="1105" d="M941 482H158Q118 482 118 504V512Q118 608 150 643Q161 655 259 655H956Q1029 655 1029 633V624Q1029 547 1011 515T941 482Z" />
<glyph unicode="&#x2014;" horiz-adv-x="1622" d="M1489 482H141Q106 482 106 508V522Q106 654 184 654H1531Q1566 654 1566 628V614Q1566 482 1489 482Z" />
<glyph unicode="&#x2018;" horiz-adv-x="498" d="M444 1497H457Q503 1497 503 1458L502 1453V1448Q502 1444 470 1380T438 1291T451 1216T465 1108T439 1023T346 996L331 994H295Q205 994 205 1047V1061L206 1069L208 1105Q209 1113 209 1119Q209 1239 287 1373Q325
1438 375 1467T444 1497Z" />
<glyph unicode="&#x2019;" horiz-adv-x="499" d="M458 1486Q529 1486 529 1454V1433Q527 1419 527 1412Q527 1289 458 1170T336 1016T261 981H254Q204 981 204 1030L205 1035Q205 1051 241 1105T277 1205L264 1318Q264 1406 286 1444T369 1482L383 1484L436 1486H458Z" />
<glyph unicode="&#x201a;" horiz-adv-x="510" d="M49 -171Q50 -162 86 -102Q121 -45 121 -13Q121 13 115 44Q111 66 111 78L110 91V104Q110 198 134 235T216 273L223 274L231 275L260 276H312Q374 276 374 243V216Q374 88 275 -82Q233 -154 180 -189T104 -225H97Q49
-225 49 -186V-171Z" />
<glyph unicode="&#x201c;" horiz-adv-x="828" d="M480 1472V1456Q480 1442 447 1386T414 1293T422 1226T430 1147L429 1126Q426 1105 426 1098Q426 1007 310 1007L295 1005H259Q170 1005 170 1043V1070L174 1113Q174 1238 259 1371T428 1505H434Q480 1505 480
1472ZM798 1505H804Q851 1505 851 1467V1462Q851 1444 818 1387T784 1286L786 1265Q787 1260 787 1255L792 1233Q801 1188 801 1128T774 1038T681 1007L666 1005H630Q540 1005 540 1049V1062L541 1069L543 1098Q543 1222 634 1378Q669 1437 719 1471T798 1505Z"
/>
<glyph unicode="&#x201d;" horiz-adv-x="816" d="M228 1302V1324Q228 1425 257 1454T376 1484H428Q490 1484 490 1452V1431Q487 1410 487 1403Q487 1288 393 1127Q353 1058 302 1021T223 984H217Q168 984 168 1021V1042Q168 1044 218 1130Q238 1164 238 1215L230
1280Q228 1292 228 1302ZM753 1484H798Q860 1484 860 1451V1438L859 1431Q859 1292 777 1151Q723 1059 671 1021T592 983H586Q537 983 537 1022V1042Q537 1054 560 1088T595 1145T608 1216L604 1252L599 1280L597 1311Q597 1429 636 1464Q659 1484 753 1484Z" />
<glyph unicode="&#x201e;" horiz-adv-x="855" d="M31 -209V-194Q31 -179 68 -124T105 -18Q104 -6 98 26Q92 60 92 118Q92 253 189 253Q189 253 190 253L204 255L272 258H279Q359 258 359 220V206L358 199Q358 77 275 -77Q233 -156 177 -202T89 -248H82Q31 -248
31 -209ZM467 78V96Q467 197 497 227T632 257L647 258H655Q734 258 734 219V205Q734 67 646 -84Q601 -162 548 -205T463 -248Q406 -248 406 -204V-194Q406 -184 442 -125T479 -13L469 58Q467 70 467 78Z" />
<glyph unicode="&#x2022;" horiz-adv-x="915" d="M767 670V634Q767 522 678 440T480 357H471Q363 357 292 428T220 588V624Q220 737 309 819T507 902H516Q616 902 691 833T767 670Z" />
<glyph unicode="&#x2039;" horiz-adv-x="772" d="M707 900Q707 860 555 708T402 543T441 472Q585 260 585 211Q585 186 557 163T511 140H501Q439 140 381 209Q159 475 159 538V548Q159 590 508 900Q571 956 628 956H638Q707 956 707 909V900Z" />
<glyph unicode="&#x203a;" horiz-adv-x="774" d="M141 195Q141 229 294 391T447 559T356 705T264 882T290 937T330 957H340Q403 957 452 893Q673 604 673 556T328 203Q259 142 200 142T141 185V195Z" />
</font>
</defs>
</svg>
