<?xml version="1.0" standalone="no"?>
<!DOCTYPE svg PUBLIC "-//W3C//DTD SVG 1.1//EN" "http://www.w3.org/Graphics/SVG/1.1/DTD/svg11.dtd">
<svg xmlns="http://www.w3.org/2000/svg">
<defs >
<font id="Quantico" horiz-adv-x="484" ><font-face
    font-family="Quantico"
    units-per-em="1000"
    panose-1="2 0 0 0 0 0 0 0 0 0"
    ascent="1063"
    descent="-367"
    alphabetic="0" />
<glyph unicode=" " glyph-name="space" horiz-adv-x="260" />
<glyph unicode="!" glyph-name="exclam" horiz-adv-x="380" d="M95 0L114 190H304L285 0H95ZM160 288L180 730H352L280 288H160Z" />
<glyph unicode="&quot;" glyph-name="quotedbl" horiz-adv-x="500" d="M128 418L141 730H291L238 418H128ZM348 418L361 730H511L458 418H348Z" />
<glyph unicode="#" glyph-name="numbersign" horiz-adv-x="764" d="M562 165Q553 105 527 -19H403L439 165H314L279 -19H155L190 165H72L83 267H210Q230 369 244 441H101L112 543H264L298 719H422L388 543H512L547 719H670L636 543H766L755 441H616Q596 339 582
267H737L726 165H562ZM368 441L334 267H458Q481 382 493 441H368Z" />
<glyph unicode="$" glyph-name="dollar" horiz-adv-x="655" d="M378 -123H258L270 -5H190L81 62L95 195H235L227 115H442L460 288H231L122 355L152 638L275 705H345L357 823H477L465 705H528L637 638L623 505H483L491 585H286L268 418H497L606 351L576 62L453
-5H390L378 -123Z" />
<glyph unicode="%" glyph-name="percent" horiz-adv-x="1001" d="M484 424L361 357H228L119 424L142 643L265 710H398L507 643L484 424ZM258 599L245 468H368L381 599H258ZM766 710H896L307 -10H177L766 710ZM590 276L713 343H846L955 276L931 57L808 -10H675L566
57L590 276ZM815 101L829 232H706L692 101H815Z" />
<glyph unicode="&amp;" glyph-name="ampersand" horiz-adv-x="665" d="M684 422L671 302H597L572 62L449 -5H200L91 62L117 311L209 361L210 363L128 413L152 638L275 705H484L593 638L578 495H438L447 585H286L269 422H414L401 302H256L237 115H438L463 355L586
422H684Z" />
<glyph unicode="&apos;" glyph-name="quotesingle" horiz-adv-x="280" d="M128 418L141 730H291L238 418H128Z" />
<glyph unicode="(" glyph-name="parenleft" horiz-adv-x="383" d="M281 630L204 -100H317L306 -200H179L71 -133L154 663L277 730H404L394 630H281Z" />
<glyph unicode=")" glyph-name="parenright" horiz-adv-x="383" d="M157 -100L234 630H121L131 730H258L367 663L284 -133L160 -200H33L44 -100H157Z" />
<glyph unicode="*" glyph-name="asterisk" horiz-adv-x="649" d="M364 376H363L257 236L162 310L282 440L125 483L177 604L327 543L335 710H462L436 543L598 604L624 483L459 440L551 310L440 236L364 376Z" />
<glyph unicode="+" glyph-name="plus" horiz-adv-x="610" d="M79 327H272L292 520H426L406 327H599L585 193H392L372 0H238L258 193H65L79 327Z" />
<glyph unicode="," glyph-name="comma" horiz-adv-x="380" d="M73 -200L114 190H304L296 108L155 -200H73Z" />
<glyph unicode="-" glyph-name="hyphen" horiz-adv-x="448" d="M85 198L99 325H417L403 198H85Z" />
<glyph unicode="." glyph-name="period" horiz-adv-x="380" d="M95 0L114 190H304L285 0H95Z" />
<glyph unicode="/" glyph-name="slash" horiz-adv-x="416" d="M22 -20L336 720H466L152 -20H22Z" />
<glyph unicode="0" glyph-name="zero" horiz-adv-x="675" d="M596 62L473 -5H200L91 62L152 638L275 705H548L657 638L596 62ZM286 585L237 115H462L511 585H286Z" />
<glyph unicode="1" glyph-name="one" horiz-adv-x="580" d="M133 466L147 597L338 700H458L397 120H557L545 0H85L97 120H257L303 558L133 466Z" />
<glyph unicode="2" glyph-name="two" horiz-adv-x="640" d="M237 120H567L555 0H85L119 329L242 396H456L475 580H285L276 490H136L151 633L274 700H512L621 633L591 343L468 276H254L237 120Z" />
<glyph unicode="3" glyph-name="three" horiz-adv-x="661" d="M459 -5H200L91 62L106 205H246L237 115H448L467 302H292L305 422H480L497 585H286L277 495H137L152 638L275 705H534L643 638L619 413L527 363L526 361L608 311L582 62L459 -5Z" />
<glyph unicode="4" glyph-name="four" horiz-adv-x="636" d="M521 155L505 0H367L383 155H51L61 255L455 700H578L533 268H619L607 155H521ZM218 268H395L418 494H416L218 270V268Z" />
<glyph unicode="5" glyph-name="five" horiz-adv-x="655" d="M305 580L291 446H500L609 379L576 62L453 -5H200L91 62L106 205H246L237 115H442L464 326H139L178 700H633L620 580H305Z" />
<glyph unicode="6" glyph-name="six" horiz-adv-x="645" d="M286 585L265 384L340 425H488L597 358L566 62L443 -5H200L91 62L152 638L275 705H518L627 638L612 495H472L481 585H286ZM257 305L237 115H432L452 305H257Z" />
<glyph unicode="7" glyph-name="seven" horiz-adv-x="625" d="M298 0H151L480 578V580H255L246 490H106L128 700H653L644 610L298 0Z" />
<glyph unicode="8" glyph-name="eight" horiz-adv-x="655" d="M237 115H442L461 302H256L237 115ZM269 422H474L491 585H286L269 422ZM453 -5H184L91 62L117 311L209 361L210 363L128 413L152 638L275 705H528L637 638L613 413L521 363L520 361L602 311L576 62L453 -5Z" />
<glyph unicode="9" glyph-name="nine" horiz-adv-x="645" d="M432 115L453 316L377 275H229L120 342L152 638L275 705H518L627 638L566 62L443 -5H200L91 62L106 205H246L237 115H432ZM461 395L481 585H286L266 395H461Z" />
<glyph unicode=":" glyph-name="colon" horiz-adv-x="380" d="M95 0L114 190H304L285 0H95ZM129 330L149 520H339L319 330H129Z" />
<glyph unicode=";" glyph-name="semicolon" horiz-adv-x="380" d="M73 -200L114 190H304L296 108L155 -200H73ZM129 330L149 520H339L319 330H129Z" />
<glyph unicode="&lt;" glyph-name="less" horiz-adv-x="660" d="M627 501L613 367L246 251V249L588 133L574 -1L73 179L88 321L627 501Z" />
<glyph unicode="=" glyph-name="equal" horiz-adv-x="690" d="M625 198L612 74H92L105 198H625ZM649 426L636 302H116L129 426H649Z" />
<glyph unicode="&gt;" glyph-name="greater" horiz-adv-x="660" d="M123 367L137 501L638 321L623 179L84 -1L98 133L466 249V251L123 367Z" />
<glyph unicode="?" glyph-name="question" horiz-adv-x="590" d="M356 376L338 288H228L233 429L356 496H417L429 610H289L279 520H139L154 663L277 730H465L574 663L551 443L428 376H356ZM158 0L177 190H367L348 0H158Z" />
<glyph unicode="@" glyph-name="at" horiz-adv-x="1020" d="M804 -141H186L77 -74L152 638L275 705H893L1002 638L945 104L822 37H612L551 78L470 37H389L287 104L365 470L495 537H576L638 496L718 537H784L702 147H820L867 595H277L211 -31H815L804 -141ZM491
420L436 154H567L622 420H491Z" />
<glyph unicode="A" glyph-name="A" horiz-adv-x="674" d="M482 700L659 0H521L483 151H221L153 0H15L338 700H482ZM391 524L276 271H453L393 524H391Z" />
<glyph unicode="B" glyph-name="B" horiz-adv-x="665" d="M623 413L531 363L530 361L612 311L587 67L464 0H85L158 700H537L646 633L623 413ZM256 302L237 120H452L471 302H256ZM285 580L269 422H484L500 580H285Z" />
<glyph unicode="C" glyph-name="C" horiz-adv-x="675" d="M481 205H621L606 62L483 -5H200L91 62L152 638L275 705H558L667 638L652 495H512L521 585H286L237 115H472L481 205Z" />
<glyph unicode="D" glyph-name="D" horiz-adv-x="715" d="M637 67L514 0H85L158 700H587L696 633L637 67ZM285 580L237 120H502L550 580H285Z" />
<glyph unicode="E" glyph-name="E" horiz-adv-x="549" d="M256 300L237 120H516L504 0H85L158 700H577L564 580H285L269 420H488L475 300H256Z" />
<glyph unicode="F" glyph-name="F" horiz-adv-x="539" d="M256 300L225 0H85L158 700H587L574 580H285L269 420H498L485 300H256Z" />
<glyph unicode="G" glyph-name="G" horiz-adv-x="665" d="M360 245L373 365H628L596 62L473 -5H190L81 62L142 638L265 705H548L657 638L642 495H502L511 585H276L227 115H462L475 245H360Z" />
<glyph unicode="H" glyph-name="H" horiz-adv-x="725" d="M256 300L225 0H85L158 700H298L269 420H544L573 700H713L640 0H500L531 300H256Z" />
<glyph unicode="I" glyph-name="I" horiz-adv-x="310" d="M85 0L158 700H298L225 0H85Z" />
<glyph unicode="J" glyph-name="J" horiz-adv-x="545" d="M332 115L393 700H533L466 62L343 -5H130L21 62L41 255H181L167 115H332Z" />
<glyph unicode="K" glyph-name="K" horiz-adv-x="690" d="M85 0L158 700H298L265 385H267L561 700H727L417 372L685 0H517L322 272L245 191L225 0H85Z" />
<glyph unicode="L" glyph-name="L" horiz-adv-x="489" d="M85 0L158 700H298L237 120H476L464 0H85Z" />
<glyph unicode="M" glyph-name="M" horiz-adv-x="894" d="M674 0L722 462H720L514 0H381L271 468H269L220 0H85L158 700H344L466 185H468L697 700H882L809 0H674Z" />
<glyph unicode="N" glyph-name="N" horiz-adv-x="745" d="M272 453L225 0H85L158 700H289L543 247H545L593 700H733L660 0H529L274 453H272Z" />
<glyph unicode="O" glyph-name="O" horiz-adv-x="715" d="M636 62L513 -5H200L91 62L152 638L275 705H588L697 638L636 62ZM286 585L237 115H502L551 585H286Z" />
<glyph unicode="P" glyph-name="P" horiz-adv-x="625" d="M85 0L158 700H527L636 633L603 321L480 254H251L225 0H85ZM285 580L264 374H469L490 580H285Z" />
<glyph unicode="Q" glyph-name="Q" horiz-adv-x="715" d="M286 585L237 115H502L551 585H286ZM363 -5H200L91 62L152 638L275 705H588L697 638L636 62L513 -5L605 -200H452L363 -5Z" />
<glyph unicode="R" glyph-name="R" horiz-adv-x="665" d="M616 0H462L339 264H252L225 0H85L158 700H537L646 633L614 331L491 264L616 0ZM285 580L265 384H480L500 580H285Z" />
<glyph unicode="S" glyph-name="S" horiz-adv-x="655" d="M122 355L152 638L275 705H528L637 638L623 505H483L491 585H286L268 418H497L606 351L576 62L453 -5H190L81 62L95 195H235L227 115H442L460 288H231L122 355Z" />
<glyph unicode="T" glyph-name="T" horiz-adv-x="568" d="M414 580L354 0H214L274 580H85L98 700H616L603 580H414Z" />
<glyph unicode="U" glyph-name="U" horiz-adv-x="715" d="M563 700H703L636 62L513 -5H200L91 62L158 700H298L238 125H503L563 700Z" />
<glyph unicode="V" glyph-name="V" horiz-adv-x="684" d="M742 700L419 0H265L88 700H230L359 171H361L600 700H742Z" />
<glyph unicode="W" glyph-name="W" horiz-adv-x="960" d="M1008 700L757 0H607L530 473H528L353 0H203L98 700H234L302 220H304L482 700H624L702 222H704L872 700H1008Z" />
<glyph unicode="X" glyph-name="X" horiz-adv-x="661" d="M25 0L288 358L108 700H266L380 483L541 700H699L446 358L636 0H478L354 233L183 0H25Z" />
<glyph unicode="Y" glyph-name="Y" horiz-adv-x="621" d="M240 0L271 299L88 700H240L355 438H357L527 700H679L411 298L380 0H240Z" />
<glyph unicode="Z" glyph-name="Z" horiz-adv-x="595" d="M125 580L138 700H613L604 610L237 122V120H552L540 0H45L54 90L420 578V580H125Z" />
<glyph unicode="[" glyph-name="bracketleft" horiz-adv-x="373" d="M281 630L204 -100H307L296 -200H63L161 730H394L384 630H281Z" />
<glyph unicode="\" glyph-name="backslash" horiz-adv-x="416" d="M230 720L388 -20H258L100 720H230Z" />
<glyph unicode="]" glyph-name="bracketright" horiz-adv-x="373" d="M147 -100L224 630H121L131 730H364L266 -200H33L44 -100H147Z" />
<glyph unicode="^" glyph-name="asciicircum" horiz-adv-x="612" d="M231 380H84L318 700H440L606 380H459L367 573H366L231 380Z" />
<glyph unicode="_" glyph-name="underscore" horiz-adv-x="602" d="M617 -86L605 -200H-46L-34 -86H617Z" />
<glyph unicode="`" glyph-name="grave" horiz-adv-x="500" d="M410 718L491 590H371L240 718H410Z" />
<glyph unicode="a" glyph-name="a" horiz-adv-x="595" d="M394 112L423 388H252L223 112H394ZM573 505L519 -5H453L386 36L311 -5H190L81 62L121 438L244 505H365L431 464L507 505H573Z" />
<glyph unicode="b" glyph-name="b" horiz-adv-x="605" d="M336 505H467L576 438L536 62L413 -5H282L215 36L140 -5H74L151 730H288L260 464L336 505ZM252 388L223 112H404L433 388H252Z" />
<glyph unicode="c" glyph-name="c" horiz-adv-x="515" d="M252 383L224 117H472L460 0H191L82 67L120 433L243 500H512L500 383H252Z" />
<glyph unicode="d" glyph-name="d" horiz-adv-x="605" d="M244 505H375L441 464L469 730H606L529 -5H416L396 36L321 -5H190L81 62L121 438L244 505ZM404 112L433 388H252L223 112H404Z" />
<glyph unicode="e" glyph-name="e" horiz-adv-x="565" d="M502 117L490 0H191L82 67L121 438L244 505H427L536 438L510 199H232L224 117H502ZM252 388L243 302H384L393 388H252Z" />
<glyph unicode="f" glyph-name="f" horiz-adv-x="409" d="M75 383L87 500H179L196 663L319 730H450L438 613H328L316 500H426L414 383H304L264 0H127L167 383H75Z" />
<glyph unicode="g" glyph-name="g" horiz-adv-x="605" d="M516 -133L392 -200H120L133 -83H384L398 56L323 15H192L83 82L121 438L244 505H375L441 464L517 505H583L516 -133ZM406 132L433 388H252L225 132H406Z" />
<glyph unicode="h" glyph-name="h" horiz-adv-x="605" d="M212 0H75L151 730H288L260 464L336 505H467L576 438L530 0H393L433 388H252L212 0Z" />
<glyph unicode="i" glyph-name="i" horiz-adv-x="287" d="M264 500L212 0H75L127 500H264ZM132 593L146 730H293L279 593H132Z" />
<glyph unicode="j" glyph-name="j" horiz-adv-x="287" d="M132 593L146 730H293L279 593H132ZM264 500L198 -133L74 -200H-46L-33 -83H66L127 500H264Z" />
<glyph unicode="k" glyph-name="k" horiz-adv-x="551" d="M288 730L243 299H245L421 500H578L376 277L556 0H397L285 177L223 108L212 0H75L151 730H288Z" />
<glyph unicode="l" glyph-name="l" horiz-adv-x="327" d="M191 0L82 67L151 730H288L224 117H324L312 0H191Z" />
<glyph unicode="m" glyph-name="m" horiz-adv-x="853" d="M824 438L778 0H641L681 388H535L495 0H358L398 388H252L212 0H75L128 505H241L260 464L336 505H432L519 451L619 505H715L824 438Z" />
<glyph unicode="n" glyph-name="n" horiz-adv-x="595" d="M566 438L520 0H383L423 388H252L212 0H75L128 505H241L260 464L336 505H457L566 438Z" />
<glyph unicode="o" glyph-name="o" horiz-adv-x="595" d="M526 62L403 -5H190L81 62L121 438L244 505H457L566 438L526 62ZM252 388L223 112H394L423 388H252Z" />
<glyph unicode="p" glyph-name="p" horiz-adv-x="605" d="M413 -5H282L215 36L190 -200H53L128 505H241L260 464L336 505H467L576 438L536 62L413 -5ZM252 388L223 112H404L433 388H252Z" />
<glyph unicode="q" glyph-name="q" horiz-adv-x="605" d="M321 -5H190L81 62L121 438L244 505H375L441 464L517 505H583L508 -200H371L396 36L321 -5ZM404 112L433 388H252L223 112H404Z" />
<glyph unicode="r" glyph-name="r" horiz-adv-x="409" d="M424 383H252L212 0H75L127 500H240L260 459L335 500H436L424 383Z" />
<glyph unicode="s" glyph-name="s" horiz-adv-x="546" d="M496 246L478 67L355 0H75L87 117H346L354 194H211L102 261L120 433L243 500H513L501 383H252L244 313H387L496 246Z" />
<glyph unicode="t" glyph-name="t" horiz-adv-x="429" d="M75 383L87 500H179L188 584L333 663L316 500H426L414 383H304L276 117H386L374 0H243L134 67L167 383H75Z" />
<glyph unicode="u" glyph-name="u" horiz-adv-x="595" d="M81 62L127 500H264L223 112H394L435 500H572L519 -5H406L386 36L311 -5H190L81 62Z" />
<glyph unicode="v" glyph-name="v" horiz-adv-x="537" d="M204 500L285 172H287L437 500H574L337 0H200L67 500H204Z" />
<glyph unicode="w" glyph-name="w" horiz-adv-x="768" d="M418 316H416L295 0H153L77 500H204L249 181H251L373 500H499L555 181H557L668 500H795L615 0H473L418 316Z" />
<glyph unicode="x" glyph-name="x" horiz-adv-x="536" d="M15 0L223 255L73 500H222L305 359L418 500H567L364 255L521 0H374L283 150L162 0H15Z" />
<glyph unicode="y" glyph-name="y" horiz-adv-x="545" d="M92 -200L209 35L67 500H204L296 206H298L445 500H582L227 -200H92Z" />
<glyph unicode="z" glyph-name="z" horiz-adv-x="476" d="M45 96L291 381V383H85L97 500H483L473 404L227 119V117H443L431 0H35L45 96Z" />
<glyph unicode="{" glyph-name="braceleft" horiz-adv-x="408" d="M273 225L239 -100H342L331 -200H214L106 -133L142 215H57L68 315H153L189 663L312 730H429L419 630H316L282 305L210 266V264L273 225Z" />
<glyph unicode="|" glyph-name="bar" horiz-adv-x="360" d="M93 -200L191 730H321L223 -200H93Z" />
<glyph unicode="}" glyph-name="braceright" horiz-adv-x="408" d="M147 -100L181 225L252 264V266L190 305L224 630H121L131 730H248L357 663L321 315H406L395 215H310L274 -133L150 -200H33L44 -100H147Z" />
<glyph unicode="~" glyph-name="asciitilde" horiz-adv-x="672" d="M273 255H198L190 173H73L87 305L210 372H323L455 290H530L539 372H656L642 240L519 173H406L273 255Z" />
<glyph unicode="&#xa0;" glyph-name="uni00A0" horiz-adv-x="260" />
<glyph unicode="&#xa1;" glyph-name="exclamdown" horiz-adv-x="380" d="M127 310L147 500H337L317 310H127ZM79 -230L152 212H272L251 -230H79Z" />
<glyph unicode="&#xa2;" glyph-name="cent" horiz-adv-x="525" d="M430 500H522L510 383H252L224 117H482L470 0H378L365 -118H249L262 0H191L82 67L120 433L243 500H314L326 618H442L430 500Z" />
<glyph unicode="&#xa3;" glyph-name="sterling" horiz-adv-x="652" d="M410 380L400 276H281L264 120H479L489 210H629L614 67L491 0H112L141 276H64L74 380H151L179 638L302 705H515L624 638L609 495H469L478 585H313L291 380H410Z" />
<glyph unicode="&#xa5;" glyph-name="yen" horiz-adv-x="661" d="M260 0L273 128H75L86 232H284L290 293H92L103 397H246L108 700H260L375 438H377L547 700H699L496 397H639L628 293H430L424 232H622L611 128H413L400 0H260Z" />
<glyph unicode="&#xa6;" glyph-name="brokenbar" horiz-adv-x="360" d="M93 -200L136 202H266L223 -200H93ZM149 328L191 730H321L279 328H149Z" />
<glyph unicode="&#xa7;" glyph-name="section" horiz-adv-x="663" d="M438 178L454 327H287L271 178H438ZM148 336L240 386V388L159 438L180 638L303 705H536L645 638L631 505H491L499 585H314L299 447H490L599 380L577 169L485 119V117L567 67L546 -133L422 -200H179L71
-133L85 0H225L216 -80H411L426 58H235L126 125L148 336Z" />
<glyph unicode="&#xa8;" glyph-name="dieresis" horiz-adv-x="544" d="M142 595L156 730H291L277 595H142ZM381 595L395 730H530L516 595H381Z" />
<glyph unicode="&#xa9;" glyph-name="copyright" horiz-adv-x="850" d="M771 62L648 -5H200L91 62L152 638L275 705H723L832 638L771 62ZM268 605L214 95H654L708 605H268ZM511 281H620L609 177L532 135H346L276 177L312 523L391 565H577L645 523L635 419H526L531
472H416L390 228H505L511 281Z" />
<glyph unicode="&#xaa;" glyph-name="ordfeminine" horiz-adv-x="595" d="M75 0L87 117H532L520 0H75ZM415 312L444 588H273L244 312H415ZM594 705L540 195H474L407 236L332 195H211L102 262L142 638L265 705H386L452 664L528 705H594Z" />
<glyph unicode="&#xab;" glyph-name="guillemotleft" horiz-adv-x="690" d="M359 137L345 0L104 190L117 312L397 502L383 365L208 252V251L359 137ZM619 137L605 0L364 190L377 312L657 502L643 365L468 252V251L619 137Z" />
<glyph unicode="&#xae;" glyph-name="registered" horiz-adv-x="850" d="M615 138H496L428 283H405L390 138H281L326 562H567L636 520L616 326L544 286L615 138ZM425 469L415 376H512L522 469H425ZM771 62L648 -5H200L91 62L152 638L275 705H723L832 638L771 62ZM268
605L214 95H654L708 605H268Z" />
<glyph unicode="&#xaf;" glyph-name="overscore" horiz-adv-x="599" d="M207 600L217 697H528L518 600H207Z" />
<glyph unicode="&#xb0;" glyph-name="degree" horiz-adv-x="495" d="M474 424L351 357H218L109 424L132 643L255 710H388L497 643L474 424ZM248 599L235 468H358L371 599H248Z" />
<glyph unicode="&#xb1;" glyph-name="plusminus" horiz-adv-x="690" d="M131 447H324L338 580H472L458 447H651L637 313H444L430 180H296L310 313H117L131 447ZM619 134L605 0H85L99 134H619Z" />
<glyph unicode="&#xb4;" glyph-name="acute" horiz-adv-x="500" d="M227 590L334 718H504L347 590H227Z" />
<glyph unicode="&#xb5;" glyph-name="mu" horiz-adv-x="618" d="M212 -188H75L147 500H284L244 117H415L455 500H592L552 117H635L622 0H426L407 41L331 0H231L212 -188Z" />
<glyph unicode="&#xb6;" glyph-name="paragraph" horiz-adv-x="735" d="M491 -200L574 583H487L404 -200H267L312 219H194L85 286L121 633L244 700H723L628 -200H491Z" />
<glyph unicode="&#xb7;" glyph-name="middot" horiz-adv-x="380" d="M122 264L142 454H332L312 264H122Z" />
<glyph unicode="&#xb8;" glyph-name="cedilla" horiz-adv-x="578" d="M255 0H348L316 -47L378 -85L368 -179L276 -229H166L175 -149H274L279 -104H184L255 0Z" />
<glyph unicode="&#xba;" glyph-name="ordmasculine" horiz-adv-x="595" d="M547 262L424 195H211L102 262L142 638L265 705H478L587 638L547 262ZM273 588L244 312H415L444 588H273ZM75 0L87 117H532L520 0H75Z" />
<glyph unicode="&#xbb;" glyph-name="guillemotright" horiz-adv-x="690" d="M345 0L359 137L534 251V252L383 365L397 502L637 312L624 190L345 0ZM85 0L99 137L274 251V252L123 365L137 502L377 312L364 190L85 0Z" />
<glyph unicode="&#xbf;" glyph-name="questiondown" horiz-adv-x="590" d="M286 124L304 212H414L409 71L286 4H225L213 -110H353L362 -20H502L487 -163L364 -230H176L67 -163L90 57L214 124H286ZM484 500L464 310H274L294 500H484Z" />
<glyph unicode="&#xc0;" glyph-name="Agrave" horiz-adv-x="674" d="M482 700L659 0H521L483 151H221L153 0H15L338 700H482ZM391 524L276 271H453L393 524H391ZM410 913L491 785H371L240 913H410Z" />
<glyph unicode="&#xc1;" glyph-name="Aacute" horiz-adv-x="674" d="M482 700L659 0H521L483 151H221L153 0H15L338 700H482ZM391 524L276 271H453L393 524H391ZM327 785L434 913H604L447 785H327Z" />
<glyph unicode="&#xc2;" glyph-name="Acircumflex" horiz-adv-x="674" d="M482 700L659 0H521L483 151H221L153 0H15L338 700H482ZM391 524L276 271H453L393 524H391ZM324 933H514L600 785H485L412 865L324 785H209L324 933Z" />
<glyph unicode="&#xc3;" glyph-name="Atilde" horiz-adv-x="674" d="M482 700L659 0H521L483 151H221L153 0H15L338 700H482ZM391 524L276 271H453L393 524H391ZM331 867H327L318 785H220L233 909L333 964H361L494 882H498L507 964H605L592 840L492 785H464L331 867Z" />
<glyph unicode="&#xc4;" glyph-name="Adieresis" horiz-adv-x="674" d="M482 700L659 0H521L483 151H221L153 0H15L338 700H482ZM391 524L276 271H453L393 524H391ZM217 785L231 920H366L352 785H217ZM456 785L470 920H605L591 785H456Z" />
<glyph unicode="&#xc5;" glyph-name="Aring" horiz-adv-x="674" d="M567 657L502 622L659 0H521L483 151H221L153 0H15L301 620L242 657L264 866L350 913H511L589 866L567 657ZM391 524L276 271H453L393 524H391ZM363 818L352 705H467L478 818H363Z" />
<glyph unicode="&#xc6;" glyph-name="AE" horiz-adv-x="952" d="M659 300L640 120H919L907 0H488L503 151H243L123 0H-25L539 700H980L967 580H688L672 420H891L878 300H659ZM541 524L339 271H516L543 524H541Z" />
<glyph unicode="&#xc7;" glyph-name="Ccedilla" horiz-adv-x="675" d="M481 205H621L606 62L483 -5H386L358 -47L420 -85L410 -179L318 -229H208L217 -149H316L321 -104H226L293 -5H200L91 62L152 638L275 705H558L667 638L652 495H512L521 585H286L237 115H472L481 205Z" />
<glyph unicode="&#xc8;" glyph-name="Egrave" horiz-adv-x="549" d="M256 300L237 120H516L504 0H85L158 700H577L564 580H285L269 420H488L475 300H256ZM380 913L461 785H341L210 913H380Z" />
<glyph unicode="&#xc9;" glyph-name="Eacute" horiz-adv-x="549" d="M256 300L237 120H516L504 0H85L158 700H577L564 580H285L269 420H488L475 300H256ZM267 785L374 913H544L387 785H267Z" />
<glyph unicode="&#xca;" glyph-name="Ecircumflex" horiz-adv-x="549" d="M256 300L237 120H516L504 0H85L158 700H577L564 580H285L269 420H488L475 300H256ZM281 933H471L557 785H442L369 865L281 785H166L281 933Z" />
<glyph unicode="&#xcb;" glyph-name="Edieresis" horiz-adv-x="549" d="M256 300L237 120H516L504 0H85L158 700H577L564 580H285L269 420H488L475 300H256ZM172 785L186 920H321L307 785H172ZM411 785L425 920H560L546 785H411Z" />
<glyph unicode="&#xcc;" glyph-name="Igrave" horiz-adv-x="310" d="M85 0L158 700H298L225 0H85ZM225 913L306 785H186L55 913H225Z" />
<glyph unicode="&#xcd;" glyph-name="Iacute" horiz-adv-x="310" d="M85 0L158 700H298L225 0H85ZM127 785L234 913H404L247 785H127Z" />
<glyph unicode="&#xce;" glyph-name="Icircumflex" horiz-adv-x="310" d="M85 0L158 700H298L225 0H85ZM137 933H327L413 785H298L225 865L137 785H22L137 933Z" />
<glyph unicode="&#xcf;" glyph-name="Idieresis" horiz-adv-x="310" d="M85 0L158 700H298L225 0H85ZM30 785L44 920H179L165 785H30ZM269 785L283 920H418L404 785H269Z" />
<glyph unicode="&#xd0;" glyph-name="Eth" horiz-adv-x="715" d="M54 375H124L158 700H587L696 633L637 67L514 0H85L114 281H44L54 375ZM285 580L264 375H360L350 281H254L237 120H502L550 580H285Z" />
<glyph unicode="&#xd1;" glyph-name="Ntilde" horiz-adv-x="745" d="M272 453L225 0H85L158 700H289L543 247H545L593 700H733L660 0H529L274 453H272ZM362 867H358L349 785H251L264 909L364 964H392L525 882H529L538 964H636L623 840L523 785H495L362 867Z" />
<glyph unicode="&#xd2;" glyph-name="Ograve" horiz-adv-x="715" d="M636 62L513 -5H200L91 62L152 638L275 705H588L697 638L636 62ZM286 585L237 115H502L551 585H286ZM430 913L511 785H391L260 913H430Z" />
<glyph unicode="&#xd3;" glyph-name="Oacute" horiz-adv-x="715" d="M636 62L513 -5H200L91 62L152 638L275 705H588L697 638L636 62ZM286 585L237 115H502L551 585H286ZM327 785L434 913H604L447 785H327Z" />
<glyph unicode="&#xd4;" glyph-name="Ocircumflex" horiz-adv-x="715" d="M636 62L513 -5H200L91 62L152 638L275 705H588L697 638L636 62ZM286 585L237 115H502L551 585H286ZM349 933H539L625 785H510L437 865L349 785H234L349 933Z" />
<glyph unicode="&#xd5;" glyph-name="Otilde" horiz-adv-x="715" d="M636 62L513 -5H200L91 62L152 638L275 705H588L697 638L636 62ZM286 585L237 115H502L551 585H286ZM351 867H347L338 785H240L253 909L353 964H381L514 882H518L527 964H625L612 840L512 785H484L351
867Z" />
<glyph unicode="&#xd6;" glyph-name="Odieresis" horiz-adv-x="715" d="M636 62L513 -5H200L91 62L152 638L275 705H588L697 638L636 62ZM286 585L237 115H502L551 585H286ZM237 785L251 920H386L372 785H237ZM476 785L490 920H625L611 785H476Z" />
<glyph unicode="&#xd7;" glyph-name="multiply" horiz-adv-x="630" d="M204 520L352 355L534 520L619 425L437 260L584 95L480 0L332 165L150 0L64 95L247 260L99 425L204 520Z" />
<glyph unicode="&#xd8;" glyph-name="Oslash" horiz-adv-x="715" d="M636 62L513 -5H200L91 62L152 638L275 705H588L697 638L636 62ZM286 115H502L539 475L286 115ZM286 585L248 225L501 585H286Z" />
<glyph unicode="&#xd9;" glyph-name="Ugrave" horiz-adv-x="715" d="M563 700H703L636 62L513 -5H200L91 62L158 700H298L238 125H503L563 700ZM420 913L501 785H381L250 913H420Z" />
<glyph unicode="&#xda;" glyph-name="Uacute" horiz-adv-x="715" d="M563 700H703L636 62L513 -5H200L91 62L158 700H298L238 125H503L563 700ZM342 785L449 913H619L462 785H342Z" />
<glyph unicode="&#xdb;" glyph-name="Ucircumflex" horiz-adv-x="715" d="M563 700H703L636 62L513 -5H200L91 62L158 700H298L238 125H503L563 700ZM347 933H537L623 785H508L435 865L347 785H232L347 933Z" />
<glyph unicode="&#xdc;" glyph-name="Udieresis" horiz-adv-x="715" d="M563 700H703L636 62L513 -5H200L91 62L158 700H298L238 125H503L563 700ZM237 785L251 920H386L372 785H237ZM476 785L490 920H625L611 785H476Z" />
<glyph unicode="&#xdd;" glyph-name="Yacute" horiz-adv-x="621" d="M240 0L271 299L88 700H240L355 438H357L527 700H679L411 298L380 0H240ZM287 785L394 913H564L407 785H287Z" />
<glyph unicode="&#xde;" glyph-name="Thorn" horiz-adv-x="645" d="M85 0L161 730H301L288 602H517L626 535L591 208L468 141H239L225 0H85ZM275 482L252 261H457L480 482H275Z" />
<glyph unicode="&#xdf;" glyph-name="germandbls" horiz-adv-x="675" d="M56 302L69 422H159L181 633L304 700H527L636 633L613 413L534 370L632 311L607 67L484 0H318L330 120H472L491 302H349L362 422H474L490 580H315L233 -200H93L146 302H56Z" />
<glyph unicode="&#xe0;" glyph-name="agrave" horiz-adv-x="595" d="M394 112L423 388H252L223 112H394ZM573 505L519 -5H453L386 36L311 -5H190L81 62L121 438L244 505H365L431 464L507 505H573ZM645 718L726 590H606L475 718H645Z" />
<glyph unicode="&#xe1;" glyph-name="aacute" horiz-adv-x="595" d="M394 112L423 388H252L223 112H394ZM573 505L519 -5H453L386 36L311 -5H190L81 62L121 438L244 505H365L431 464L507 505H573ZM247 590L354 718H524L367 590H247Z" />
<glyph unicode="&#xe2;" glyph-name="acircumflex" horiz-adv-x="595" d="M394 112L423 388H252L223 112H394ZM573 505L519 -5H453L386 36L311 -5H190L81 62L121 438L244 505H365L431 464L507 505H573ZM282 738H472L558 590H443L370 670L282 590H167L282 738Z" />
<glyph unicode="&#xe3;" glyph-name="atilde" horiz-adv-x="595" d="M394 112L423 388H252L223 112H394ZM573 505L519 -5H453L386 36L311 -5H190L81 62L121 438L244 505H365L431 464L507 505H573ZM292 667H288L279 585H181L194 709L294 764H322L455 682H459L468
764H566L553 640L453 585H425L292 667Z" />
<glyph unicode="&#xe4;" glyph-name="adieresis" horiz-adv-x="595" d="M394 112L423 388H252L223 112H394ZM573 505L519 -5H453L386 36L311 -5H190L81 62L121 438L244 505H365L431 464L507 505H573ZM179 595L193 730H328L314 595H179ZM418 595L432 730H567L553 595H418Z" />
<glyph unicode="&#xe5;" glyph-name="aring" horiz-adv-x="595" d="M394 112L423 388H252L223 112H394ZM573 505L519 -5H453L386 36L311 -5H190L81 62L121 438L244 505H365L431 464L507 505H573ZM531 617L444 570H283L206 617L228 826L315 873H476L553 826L531
617ZM328 778L316 665H431L443 778H328Z" />
<glyph unicode="&#xe6;" glyph-name="ae" horiz-adv-x="823" d="M760 117L748 0H449L365 51L261 -5H170L61 62L79 235L202 302H364L373 383H145L157 500H386L445 463L522 505H685L794 438L768 199H490L482 117H760ZM212 197L203 110H344L353 197H212ZM510 388L501
302H642L651 388H510Z" />
<glyph unicode="&#xe7;" glyph-name="ccedilla" horiz-adv-x="515" d="M262 0H191L82 67L120 433L243 500H512L500 383H252L224 117H472L460 0H355L323 -47L385 -85L375 -179L283 -229H173L182 -149H281L286 -104H191L262 0Z" />
<glyph unicode="&#xe8;" glyph-name="egrave" horiz-adv-x="565" d="M502 117L490 0H191L82 67L121 438L244 505H427L536 438L510 199H232L224 117H502ZM252 388L243 302H384L393 388H252ZM636 718L717 590H597L466 718H636Z" />
<glyph unicode="&#xe9;" glyph-name="eacute" horiz-adv-x="565" d="M502 117L490 0H191L82 67L121 438L244 505H427L536 438L510 199H232L224 117H502ZM252 388L243 302H384L393 388H252ZM257 590L364 718H534L377 590H257Z" />
<glyph unicode="&#xea;" glyph-name="ecircumflex" horiz-adv-x="565" d="M502 117L490 0H191L82 67L121 438L244 505H427L536 438L510 199H232L224 117H502ZM252 388L243 302H384L393 388H252ZM269 738H459L545 590H430L357 670L269 590H154L269 738Z" />
<glyph unicode="&#xeb;" glyph-name="edieresis" horiz-adv-x="565" d="M502 117L490 0H191L82 67L121 438L244 505H427L536 438L510 199H232L224 117H502ZM252 388L243 302H384L393 388H252ZM165 595L179 730H314L300 595H165ZM404 595L418 730H553L539 595H404Z" />
<glyph unicode="&#xec;" glyph-name="igrave" horiz-adv-x="287" d="M264 500L212 0H75L127 500H264ZM205 718L286 590H166L35 718H205Z" />
<glyph unicode="&#xed;" glyph-name="iacute" horiz-adv-x="287" d="M264 500L212 0H75L127 500H264ZM125 590L232 718H402L245 590H125Z" />
<glyph unicode="&#xee;" glyph-name="icircumflex" horiz-adv-x="287" d="M264 500L212 0H75L127 500H264ZM381 738H571L657 590H542L469 670L381 590H266L381 738Z" />
<glyph unicode="&#xef;" glyph-name="idieresis" horiz-adv-x="287" d="M264 500L212 0H75L127 500H264ZM19 595L33 730H168L154 595H19ZM258 595L272 730H407L393 595H258Z" />
<glyph unicode="&#xf0;" glyph-name="eth" horiz-adv-x="645" d="M617 544H676L666 450H607L566 62L443 -5H200L91 62L121 348L244 415H392L459 374L467 450H360L370 544H477L481 585H262L275 705H518L627 638L617 544ZM432 115L451 295H256L237 115H432Z" />
<glyph unicode="&#xf1;" glyph-name="ntilde" horiz-adv-x="595" d="M566 438L520 0H383L423 388H252L212 0H75L128 505H241L260 464L336 505H457L566 438ZM292 667H288L279 585H181L194 709L294 764H322L455 682H459L468 764H566L553 640L453 585H425L292 667Z" />
<glyph unicode="&#xf2;" glyph-name="ograve" horiz-adv-x="595" d="M526 62L403 -5H190L81 62L121 438L244 505H457L566 438L526 62ZM252 388L223 112H394L423 388H252ZM646 718L727 590H607L476 718H646Z" />
<glyph unicode="&#xf3;" glyph-name="oacute" horiz-adv-x="595" d="M526 62L403 -5H190L81 62L121 438L244 505H457L566 438L526 62ZM252 388L223 112H394L423 388H252ZM257 590L364 718H534L377 590H257Z" />
<glyph unicode="&#xf4;" glyph-name="ocircumflex" horiz-adv-x="595" d="M526 62L403 -5H190L81 62L121 438L244 505H457L566 438L526 62ZM252 388L223 112H394L423 388H252ZM285 738H475L561 590H446L373 670L285 590H170L285 738Z" />
<glyph unicode="&#xf5;" glyph-name="otilde" horiz-adv-x="595" d="M526 62L403 -5H190L81 62L121 438L244 505H457L566 438L526 62ZM252 388L223 112H394L423 388H252ZM292 667H288L279 585H181L194 709L294 764H322L455 682H459L468 764H566L553 640L453 585H425L292
667Z" />
<glyph unicode="&#xf6;" glyph-name="odieresis" horiz-adv-x="595" d="M526 62L403 -5H190L81 62L121 438L244 505H457L566 438L526 62ZM252 388L223 112H394L423 388H252ZM177 595L191 730H326L312 595H177ZM416 595L430 730H565L551 595H416Z" />
<glyph unicode="&#xf7;" glyph-name="divide" horiz-adv-x="610" d="M599 327L586 203H66L79 327H599ZM216 -31L234 139H404L386 -31H216ZM261 391L278 561H448L431 391H261Z" />
<glyph unicode="&#xf8;" glyph-name="oslash" horiz-adv-x="595" d="M526 62L403 -5H190L81 62L121 438L244 505H457L566 438L526 62ZM264 112H394L414 301L264 112ZM252 388L232 198L382 388H252Z" />
<glyph unicode="&#xf9;" glyph-name="ugrave" horiz-adv-x="595" d="M81 62L127 500H264L223 112H394L435 500H572L519 -5H406L386 36L311 -5H190L81 62ZM410 718L491 590H371L240 718H410Z" />
<glyph unicode="&#xfa;" glyph-name="uacute" horiz-adv-x="595" d="M81 62L127 500H264L223 112H394L435 500H572L519 -5H406L386 36L311 -5H190L81 62ZM267 590L374 718H544L387 590H267Z" />
<glyph unicode="&#xfb;" glyph-name="ucircumflex" horiz-adv-x="595" d="M81 62L127 500H264L223 112H394L435 500H572L519 -5H406L386 36L311 -5H190L81 62ZM285 738H475L561 590H446L373 670L285 590H170L285 738Z" />
<glyph unicode="&#xfc;" glyph-name="udieresis" horiz-adv-x="595" d="M81 62L127 500H264L223 112H394L435 500H572L519 -5H406L386 36L311 -5H190L81 62ZM177 595L191 730H326L312 595H177ZM416 595L430 730H565L551 595H416Z" />
<glyph unicode="&#xfd;" glyph-name="yacute" horiz-adv-x="545" d="M92 -200L209 35L67 500H204L296 206H298L445 500H582L227 -200H92ZM247 590L354 718H524L367 590H247Z" />
<glyph unicode="&#xfe;" glyph-name="thorn" horiz-adv-x="585" d="M141 730H278L250 464L326 505H457L566 438L526 62L403 -5H272L205 36L180 -200H43L141 730ZM242 388L213 112H394L423 388H242Z" />
<glyph unicode="&#xff;" glyph-name="ydieresis" horiz-adv-x="545" d="M92 -200L209 35L67 500H204L296 206H298L445 500H582L227 -200H92ZM157 595L171 730H306L292 595H157ZM396 595L410 730H545L531 595H396Z" />
<glyph unicode="&#x2013;" glyph-name="endash" horiz-adv-x="706" d="M85 198L99 325H675L661 198H85Z" />
<glyph unicode="&#x2014;" glyph-name="emdash" horiz-adv-x="984" d="M85 198L99 325H953L939 198H85Z" />
<glyph unicode="&#x2018;" glyph-name="quoteleft" horiz-adv-x="360" d="M351 730L310 340H120L129 422L269 730H351Z" />
<glyph unicode="&#x2019;" glyph-name="quoteright" horiz-adv-x="360" d="M120 340L161 730H351L343 648L202 340H120Z" />
<glyph unicode="&#x201a;" glyph-name="quotesinglbase" horiz-adv-x="380" d="M73 -200L114 190H304L296 108L155 -200H73Z" />
<glyph unicode="&#x201c;" glyph-name="quotedblleft" horiz-adv-x="640" d="M631 730L590 340H400L409 422L549 730H631ZM351 730L310 340H120L129 422L269 730H351Z" />
<glyph unicode="&#x201d;" glyph-name="quotedblright" horiz-adv-x="640" d="M120 340L161 730H351L343 648L202 340H120ZM400 340L441 730H631L623 648L482 340H400Z" />
<glyph unicode="&#x201e;" glyph-name="quotedblbase" horiz-adv-x="660" d="M73 -200L114 190H304L296 108L155 -200H73ZM353 -200L394 190H584L576 108L435 -200H353Z" />
<glyph unicode="&#x2022;" glyph-name="bullet" horiz-adv-x="570" d="M498 224L375 157H227L118 224L144 470L267 537H415L524 470L498 224Z" />
<glyph unicode="&#x2039;" glyph-name="guilsinglleft" horiz-adv-x="430" d="M359 137L345 0L104 190L117 312L397 502L383 365L208 252V251L359 137Z" />
<glyph unicode="&#x203a;" glyph-name="guilsinglright" horiz-adv-x="430" d="M85 0L99 137L274 251V252L123 365L137 502L377 312L364 190L85 0Z" />
</font>
</defs>
</svg>
