<?xml version="1.0" standalone="no"?>
<!DOCTYPE svg PUBLIC "-//W3C//DTD SVG 1.1//EN" "http://www.w3.org/Graphics/SVG/1.1/DTD/svg11.dtd">
<svg xmlns="http://www.w3.org/2000/svg">
<defs >
<font id="Mada" horiz-adv-x="558" ><font-face
    font-family="Mada"
    units-per-em="1000"
    panose-1="0 0 0 0 0 0 0 0 0 0"
    ascent="900"
    descent="-300"
    alphabetic="0" />
<glyph unicode=" " glyph-name="space" horiz-adv-x="200" />
<glyph unicode="!" glyph-name="exclam" horiz-adv-x="340" d="M122 231L101 537L96 670H244L239 537L218 231H122ZM170 -12Q132 -12 107 14T81 80Q81 120 106 146T170 173Q208 173 233 147T259 80Q259 41 234 15T170 -12Z" />
<glyph unicode="&quot;" glyph-name="quotedbl" horiz-adv-x="537" d="M110 354L81 553L76 686H224L219 553L190 354H110ZM347 354L318 553L313 686H461L456 553L427 354H347Z" />
<glyph unicode="#" glyph-name="numbersign" horiz-adv-x="528" d="M205 281H308L322 391H218L205 281ZM86 0L108 187H34V281H119L133 391H54V485H145L166 650H250L230 485H334L355 650H439L419 485H498V391H407L394 281H478V187H383L360 0H275L297 187H194L171 0H86Z" />
<glyph unicode="$" glyph-name="dollar" horiz-adv-x="528" d="M312 -110H215V-10Q171 -5 123 14T39 66L103 165Q141 136 175 122T246 107Q327 107 327 176Q327 207 301 228T235 267T156 309T90 368T63 457Q63 531 103 579T215 642V745H312V644Q360 637 396 615T461
562L387 478Q360 503 335 515T278 528Q204 528 204 464Q204 436 230 417T296 380T375 339T441 280T468 186Q468 114 429 63T312 -6V-110Z" />
<glyph unicode="%" glyph-name="percent" horiz-adv-x="857" d="M188 250Q118 250 72 305T26 458Q26 556 72 610T188 664Q258 664 304 610T351 458Q351 360 305 305T188 250ZM188 332Q213 332 230 360T248 458Q248 528 231 555T188 582Q163 582 146 555T128 458Q128
388 145 360T188 332ZM210 -12L562 664H647L295 -12H210ZM669 -12Q599 -12 553 43T507 196Q507 294 553 348T669 402Q739 402 785 348T832 196Q832 98 786 43T669 -12ZM669 70Q694 70 711 98T729 196Q729 266 712 293T669 320Q644 320 627 293T609 196Q609 126
626 98T669 70Z" />
<glyph unicode="&amp;" glyph-name="ampersand" horiz-adv-x="667" d="M614 -12Q533 4 447 54Q406 23 355 6T242 -12Q136 -12 81 43T25 174Q25 242 60 284T144 358Q104 433 104 493Q104 563 151 613T281 664Q354 664 397 624T441 516Q441 452 399 409T305 331Q359
268 436 212Q460 244 479 283T511 368H645Q627 309 601 254T536 148Q601 115 649 107L614 -12ZM225 494Q225 459 246 416Q282 437 305 460T329 516Q329 567 284 567Q259 567 242 548T225 494ZM261 100Q300 100 343 126Q266 188 208 261Q188 244 176 225T164 183Q164
146 191 123T261 100Z" />
<glyph unicode="&apos;" glyph-name="quotesingle" horiz-adv-x="300" d="M110 354L81 553L76 686H224L219 553L190 354H110Z" />
<glyph unicode="(" glyph-name="parenleft" horiz-adv-x="344" d="M204 -179Q141 -76 107 35T72 278Q72 410 106 521T204 735L296 697Q241 600 216 492T191 278Q191 172 216 64T296 -141L204 -179Z" />
<glyph unicode=")" glyph-name="parenright" horiz-adv-x="344" d="M140 -179L48 -141Q104 -44 129 64T154 278Q154 384 129 492T48 697L140 735Q203 632 237 521T272 278Q272 146 238 35T140 -179Z" />
<glyph unicode="*" glyph-name="asterisk" horiz-adv-x="457" d="M148 349L87 393L146 497L38 546L61 618L177 594L190 712H267L280 593L395 618L419 546L311 497L370 393L309 349L229 438L148 349Z" />
<glyph unicode="+" glyph-name="plus" horiz-adv-x="528" d="M210 94V278H34V382H210V566H318V382H494V278H318V94H210Z" />
<glyph unicode="," glyph-name="comma" horiz-adv-x="300" d="M76 -194L46 -116Q161 -76 159 6Q155 6 151 6Q116 6 89 27T62 89Q62 127 89 150T154 173Q204 173 230 136T256 34Q256 -48 210 -108T76 -194Z" />
<glyph unicode="-" glyph-name="hyphen" horiz-adv-x="332" d="M43 201V305H289V201H43Z" />
<glyph unicode="." glyph-name="period" horiz-adv-x="300" d="M150 -12Q112 -12 87 14T61 80Q61 120 86 146T150 173Q188 173 213 147T239 80Q239 41 214 15T150 -12Z" />
<glyph unicode="/" glyph-name="slash" horiz-adv-x="339" d="M13 -160L214 710H310L109 -160H13Z" />
<glyph unicode="0" glyph-name="zero" horiz-adv-x="528" d="M264 -12Q162 -12 100 73T37 320Q37 482 99 564T264 647Q366 647 428 565T491 320Q491 158 429 73T264 -12ZM264 102Q302 102 327 146T352 320Q352 450 327 491T264 533Q227 533 202 492T176 320Q176
190 201 146T264 102Z" />
<glyph unicode="1" glyph-name="one" horiz-adv-x="528" d="M70 0V119H208V486H89V577Q141 587 177 601T247 635H355V119H474V0H70Z" />
<glyph unicode="2" glyph-name="two" horiz-adv-x="528" d="M37 0V84Q158 199 235 283T313 436Q313 482 289 507T223 532Q188 532 161 512T110 467L30 546Q77 596 126 621T243 647Q337 647 395 592T453 445Q453 365 390 281T250 116Q274 119 304 121T356 124H484V0H37Z" />
<glyph unicode="3" glyph-name="three" horiz-adv-x="528" d="M243 -12Q166 -12 111 13T22 78L90 171Q118 143 153 125T229 107Q276 107 304 126T332 182Q332 224 298 248T161 273V377Q246 377 278 400T311 462Q311 532 233 532Q199 532 172 517T114 476L40 566Q84
604 133 625T240 647Q338 647 398 602T459 473Q459 377 353 332V328Q408 312 443 273T479 173Q479 84 409 36T243 -12Z" />
<glyph unicode="4" glyph-name="four" horiz-adv-x="528" d="M160 264H294V367Q294 398 296 438T300 509H296Q284 483 271 456T244 402L160 264ZM504 152H431V0H294V152H19V253L251 635H431V264H504V152Z" />
<glyph unicode="5" glyph-name="five" horiz-adv-x="528" d="M247 -12Q169 -12 115 14T23 77L89 170Q118 144 152 126T226 107Q275 107 304 132T333 206Q333 254 305 279T233 304Q205 304 187 297T139 272L73 314L91 635H451V511H218L207 392Q240 407 278 407Q360
407 420 359T480 210Q480 104 410 46T247 -12Z" />
<glyph unicode="6" glyph-name="six" horiz-adv-x="528" d="M492 201Q492 102 430 45T281 -12Q220 -12 165 20T76 122T41 303Q41 422 77 498T172 610T298 647Q361 647 407 625T483 571L406 483Q390 501 363 514T307 528Q255 528 218 485T176 330Q201 362 237 379T303
397Q385 397 438 350T492 201ZM278 98Q311 98 334 122T358 201Q358 251 335 272T275 293Q250 293 225 279T179 230Q189 155 217 127T278 98Z" />
<glyph unicode="7" glyph-name="seven" horiz-adv-x="528" d="M159 0Q165 106 182 190T234 351T329 511H44V635H486V545Q412 456 376 379T326 213T307 0H159Z" />
<glyph unicode="8" glyph-name="eight" horiz-adv-x="528" d="M263 -12Q168 -12 105 36T42 162Q42 220 73 257T150 318V322Q113 350 89 386T65 472Q65 553 122 600T268 647Q355 647 408 600T461 473Q461 427 436 392T378 334V330Q424 305 456 266T488 164Q488
89 426 39T263 -12ZM303 370Q342 415 342 463Q342 500 322 522T265 545Q236 545 215 527T194 472Q194 433 224 411T303 370ZM266 90Q303 90 327 109T351 169Q351 211 314 232T217 280Q196 260 182 234T168 179Q168 137 197 114T266 90Z" />
<glyph unicode="9" glyph-name="nine" horiz-adv-x="528" d="M252 342Q277 342 302 356T347 405Q337 480 309 508T248 537Q216 537 192 513T168 434Q168 384 192 363T252 342ZM229 -12Q166 -12 120 11T43 64L121 152Q137 134 164 121T219 107Q272 107 309 150T350
305Q325 273 289 256T223 238Q142 238 88 286T34 434Q34 533 96 590T245 647Q306 647 361 615T451 513T486 332Q486 214 450 138T355 25T229 -12Z" />
<glyph unicode=":" glyph-name="colon" horiz-adv-x="300" d="M150 312Q112 312 87 338T61 404Q61 444 86 470T150 497Q188 497 213 471T239 404Q239 365 214 339T150 312ZM150 -12Q112 -12 87 14T61 80Q61 120 86 146T150 173Q188 173 213 147T239 80Q239 41
214 15T150 -12Z" />
<glyph unicode=";" glyph-name="semicolon" horiz-adv-x="300" d="M76 -194L46 -116Q161 -76 159 6Q155 6 151 6Q116 6 89 27T62 89Q62 127 89 150T154 173Q204 173 230 136T256 34Q256 -48 210 -108T76 -194ZM150 312Q112 312 87 338T61 404Q61 444 86 470T150
497Q188 497 213 471T239 404Q239 365 214 339T150 312Z" />
<glyph unicode="&lt;" glyph-name="less" horiz-adv-x="528" d="M494 104L34 281V383L494 560V439L318 381L183 334V330L318 283L494 225V104Z" />
<glyph unicode="=" glyph-name="equal" horiz-adv-x="528" d="M34 394V498H494V394H34ZM34 418V522H494V418H34Z" />
<glyph unicode="&gt;" glyph-name="greater" horiz-adv-x="528" d="M34 104V225L210 283L345 330V334L210 381L34 439V560L494 383V281L34 104Z" />
<glyph unicode="?" glyph-name="question" horiz-adv-x="463" d="M154 231Q146 282 164 320T209 389T258 445T280 500Q280 531 262 547T213 563Q185 563 164 550T122 517L41 591Q76 632 125 657T232 682Q312 682 366 641T421 511Q421 464 399 431T348 369T299
308T283 231H154ZM218 -12Q180 -12 155 14T130 80Q130 120 155 146T218 173Q256 173 281 147T307 80Q307 41 282 15T218 -12Z" />
<glyph unicode="@" glyph-name="at" horiz-adv-x="903" d="M428 -172Q328 -172 242 -131T102 -6T49 205Q49 345 110 449T274 611T500 669Q662 669 758 570T854 313Q854 222 819 161T731 69T626 38Q583 38 551 58T511 114H509Q488 85 454 67T389 48Q330 48 294
88T257 198Q257 259 283 315T356 407T459 443Q511 443 535 393H537L551 435H642L596 215Q575 129 642 129Q687 129 724 177T761 309Q761 380 734 442T646 542T488 580Q402 580 325 534T198 405T148 209Q148 110 188 46T295 -51T440 -83Q479 -83 519 -72T592 -44L624
-124Q535 -172 428 -172ZM420 140Q452 140 486 185L510 320Q495 349 464 349Q419 349 394 301T368 207Q368 140 420 140Z" />
<glyph unicode="A" glyph-name="A" horiz-adv-x="573" d="M230 330L214 270H353L338 330Q324 379 311 434T285 540H281Q269 488 257 434T230 330ZM423 0L383 155H184L144 0H-6L198 652H375L579 0H423Z" />
<glyph unicode="B" glyph-name="B" horiz-adv-x="605" d="M77 0V652H300Q401 652 470 618T540 490Q540 446 518 405T455 349V345Q504 332 538 295T572 192Q572 92 499 46T319 0H77ZM224 391H293Q347 391 371 412T396 468Q396 538 294 538H224V391ZM224 114H307Q428
114 428 202Q428 282 307 282H224V114Z" />
<glyph unicode="C" glyph-name="C" horiz-adv-x="582" d="M349 -12Q266 -12 198 26T88 138T46 322Q46 430 88 506T201 623T354 664Q417 664 467 639T550 579L472 485Q447 508 420 522T357 537Q290 537 244 481T197 327Q197 226 240 171T355 115Q395 115 426 132T482
176L560 84Q478 -12 349 -12Z" />
<glyph unicode="D" glyph-name="D" horiz-adv-x="635" d="M77 0V652H261Q410 652 499 575T588 329Q588 161 500 81T269 0H77ZM224 119H252Q335 119 386 165T437 329Q437 446 386 489T252 533H224V119Z" />
<glyph unicode="E" glyph-name="E" horiz-adv-x="548" d="M77 0V652H485V528H224V397H446V274H224V124H495V0H77Z" />
<glyph unicode="F" glyph-name="F" horiz-adv-x="524" d="M77 0V652H488V528H224V377H450V253H224V0H77Z" />
<glyph unicode="G" glyph-name="G" horiz-adv-x="638" d="M365 -12Q231 -12 139 73T46 322Q46 430 89 506T204 623T364 664Q434 664 485 638T569 579L492 485Q467 507 439 522T369 537Q293 537 245 481T197 327Q197 226 242 171T380 115Q425 115 450 135V247H342V367H580V67Q546
34 490 11T365 -12Z" />
<glyph unicode="H" glyph-name="H" horiz-adv-x="674" d="M77 0V652H224V401H449V652H597V0H449V272H224V0H77Z" />
<glyph unicode="I" glyph-name="I" horiz-adv-x="301" d="M77 0V652H224V0H77Z" />
<glyph unicode="J" glyph-name="J" horiz-adv-x="509" d="M226 -12Q83 -12 16 106L116 180Q151 115 207 115Q247 115 267 139T288 229V652H435V217Q435 122 385 55T226 -12Z" />
<glyph unicode="K" glyph-name="K" horiz-adv-x="614" d="M77 0V652H224V385H228L422 652H584L387 392L620 0H459L300 275L224 175V0H77Z" />
<glyph unicode="L" glyph-name="L" horiz-adv-x="518" d="M77 0V652H224V124H482V0H77Z" />
<glyph unicode="M" glyph-name="M" horiz-adv-x="762" d="M77 0V652H238L343 362Q353 334 362 303T381 242H385Q395 272 403 303T422 362L525 652H685V0H551V239Q551 287 558 350T570 461H566L513 306L420 57H339L246 306L194 461H190Q195 414 202 351T209 239V0H77Z" />
<glyph unicode="N" glyph-name="N" horiz-adv-x="665" d="M77 0V652H228L398 328L462 184H466Q462 236 455 300T448 422V652H588V0H437L267 325L203 467H199Q204 413 210 351T217 231V0H77Z" />
<glyph unicode="O" glyph-name="O" horiz-adv-x="684" d="M342 -12Q210 -12 128 78T46 329Q46 489 128 576T342 664Q474 664 556 576T638 329Q638 169 556 79T342 -12ZM342 115Q409 115 448 173T487 329Q487 426 448 481T342 537Q275 537 236 482T197 329Q197
231 236 173T342 115Z" />
<glyph unicode="P" glyph-name="P" horiz-adv-x="596" d="M77 0V652H301Q408 652 484 606T560 442Q560 327 484 274T305 221H224V0H77ZM224 338H296Q416 338 416 442Q416 493 384 514T292 535H224V338Z" />
<glyph unicode="Q" glyph-name="Q" horiz-adv-x="684" d="M557 -182Q453 -182 382 -132T275 -5Q171 17 109 104T46 329Q46 489 128 576T342 664Q474 664 556 576T638 329Q638 198 582 113T431 0Q453 -35 493 -49T574 -64Q595 -64 613 -61T646 -53L672 -160Q654
-169 624 -175T557 -182ZM342 108Q409 108 448 166T487 329Q487 426 448 481T342 537Q275 537 236 482T197 329Q197 225 236 167T342 108Z" />
<glyph unicode="R" glyph-name="R" horiz-adv-x="613" d="M224 352H300Q419 352 419 449Q419 497 389 516T300 535H224V352ZM224 0H77V652H312Q416 652 489 609T563 449Q563 377 531 331T447 261L595 0H430L305 235H224V0Z" />
<glyph unicode="S" glyph-name="S" horiz-adv-x="556" d="M276 -12Q212 -12 148 12T35 82L119 183Q154 153 197 134T280 115Q371 115 371 178Q371 209 346 223T277 256L192 292Q142 312 102 355T61 470Q61 551 126 607T293 664Q349 664 405 642T503 578L428 485Q396
510 364 523T293 537Q255 537 233 522T210 478Q210 448 238 433T309 401L393 367Q452 343 487 301T522 190Q522 109 458 49T276 -12Z" />
<glyph unicode="T" glyph-name="T" horiz-adv-x="556" d="M204 0V528H25V652H531V528H352V0H204Z" />
<glyph unicode="U" glyph-name="U" horiz-adv-x="665" d="M334 -12Q207 -12 140 63T73 302V652H221V287Q221 191 250 153T334 115Q389 115 419 153T449 287V652H591V302Q591 138 526 63T334 -12Z" />
<glyph unicode="V" glyph-name="V" horiz-adv-x="556" d="M190 0L-7 652H149L227 348Q242 295 253 244T280 139H284Q298 193 310 244T336 348L413 652H563L367 0H190Z" />
<glyph unicode="W" glyph-name="W" horiz-adv-x="813" d="M135 0L14 652H165L210 347Q216 296 223 245T236 141H240Q250 193 259 244T279 347L349 652H474L544 347Q554 298 563 246T583 141H587Q594 194 600 245T614 347L659 652H800L684 0H499L435 296Q427 334
421 372T409 447H405Q399 411 393 373T378 296L317 0H135Z" />
<glyph unicode="X" glyph-name="X" horiz-adv-x="567" d="M11 0L192 335L22 652H186L243 529Q254 506 265 481T290 424H294Q305 455 315 480T336 529L388 652H545L376 328L556 0H392L327 133Q315 158 304 184T278 240H274Q263 210 252 184T230 133L169 0H11Z" />
<glyph unicode="Y" glyph-name="Y" horiz-adv-x="525" d="M189 0V232L-8 652H150L208 502Q222 465 235 431T261 358H265Q279 396 292 430T320 502L379 652H533L336 232V0H189Z" />
<glyph unicode="Z" glyph-name="Z" horiz-adv-x="541" d="M36 0V89L324 528H63V652H505V563L217 124H508V0H36Z" />
<glyph unicode="[" glyph-name="bracketleft" horiz-adv-x="344" d="M87 -152V708H298V630H197V-74H298V-152H87Z" />
<glyph unicode="\" glyph-name="backslash" horiz-adv-x="339" d="M230 -160L28 710H124L326 -160H230Z" />
<glyph unicode="]" glyph-name="bracketright" horiz-adv-x="344" d="M46 -152V-74H148V630H46V708H257V-152H46Z" />
<glyph unicode="^" glyph-name="asciicircum" horiz-adv-x="528" d="M50 274L205 670H323L478 274H357L311 402L266 537H262L217 402L171 274H50Z" />
<glyph unicode="_" glyph-name="underscore" horiz-adv-x="500" d="M12 -140V-57H488V-140H12Z" />
<glyph unicode="`" glyph-name="grave" horiz-adv-x="555" d="M268 572L87 729L186 826L340 644L268 572Z" />
<glyph unicode="a" glyph-name="a" horiz-adv-x="527" d="M240 102Q265 102 283 113T321 144V231Q243 220 213 199T183 149Q183 102 240 102ZM190 -12Q122 -12 82 31T42 138Q42 216 108 260T321 319Q319 352 302 371T243 391Q212 391 180 379T112 346L59 443Q106
472 159 490T271 508Q366 508 417 453T468 284V0H348L338 51H334Q302 23 267 6T190 -12Z" />
<glyph unicode="b" glyph-name="b" horiz-adv-x="573" d="M325 -12Q255 -12 196 53H192L180 0H65V701H212V529L208 453Q269 508 339 508Q429 508 481 440T534 257Q534 129 470 59T325 -12ZM291 108Q329 108 356 143T383 254Q383 388 297 388Q253 388 212 343V140Q232
122 252 115T291 108Z" />
<glyph unicode="c" glyph-name="c" horiz-adv-x="467" d="M281 -12Q178 -12 107 56T36 248Q36 372 113 440T294 508Q340 508 375 493T439 455L370 360Q335 389 303 389Q250 389 219 351T187 248Q187 184 218 146T298 107Q322 107 345 117T387 143L445 47Q408 15
365 2T281 -12Z" />
<glyph unicode="d" glyph-name="d" horiz-adv-x="573" d="M280 108Q328 108 361 153V356Q342 374 321 381T279 388Q244 388 217 354T190 250Q190 108 280 108ZM242 -12Q150 -12 95 57T39 248Q39 370 102 439T245 508Q286 508 314 494T367 456L361 532V701H508V0H388L378
49H374Q348 23 313 6T242 -12Z" />
<glyph unicode="e" glyph-name="e" horiz-adv-x="518" d="M287 -12Q180 -12 108 56T36 248Q36 328 69 386T156 476T270 508Q376 508 428 440T481 270Q481 229 475 205H178Q188 151 223 126T307 100Q360 100 414 133L463 44Q381 -12 287 -12ZM177 302H356Q356 343
337 369T273 396Q238 396 211 373T177 302Z" />
<glyph unicode="f" glyph-name="f" horiz-adv-x="341" d="M326 381H237V0H90V381H24V490L90 495V522Q90 601 131 657T273 713Q304 713 330 707T372 695L345 587Q317 597 294 597Q237 597 237 526V496H326V381Z" />
<glyph unicode="g" glyph-name="g" horiz-adv-x="534" d="M253 246Q282 246 301 267T321 329Q321 368 302 388T253 409Q224 409 205 389T185 329Q185 288 204 267T253 246ZM242 -211Q155 -211 95 -181T34 -85Q34 -25 105 15V19Q86 32 73 52T59 103Q59 130 75 155T115
196V200Q89 218 69 252T48 329Q48 418 110 463T253 508Q297 508 330 496H511V389H432Q448 362 448 324Q448 238 392 198T253 157Q224 157 193 167Q175 152 175 130Q175 111 192 102T250 93H330Q422 93 470 64T519 -33Q519 -110 445 -160T242 -211ZM265 -119Q314
-119 346 -102T379 -58Q379 -35 360 -27T303 -19H252Q206 -19 182 -13Q155 -37 155 -62Q155 -90 185 -104T265 -119Z" />
<glyph unicode="h" glyph-name="h" horiz-adv-x="571" d="M65 0V701H212V529L205 440Q233 465 270 486T358 508Q439 508 475 455T512 308V0H365V289Q365 343 351 363T304 383Q276 383 256 371T212 335V0H65Z" />
<glyph unicode="i" glyph-name="i" horiz-adv-x="276" d="M138 569Q101 569 77 590T53 646Q53 680 77 701T138 722Q176 722 199 701T223 646Q223 612 200 591T138 569ZM65 0V496H212V0H65Z" />
<glyph unicode="j" glyph-name="j" horiz-adv-x="278" d="M140 569Q103 569 79 590T55 646Q55 680 79 701T140 722Q177 722 201 701T225 646Q225 612 201 591T140 569ZM36 -196Q5 -196 -15 -192T-51 -182L-25 -74Q-15 -77 -6 -79T14 -81Q66 -81 66 -1V496H213V3Q213
-78 175 -137T36 -196Z" />
<glyph unicode="k" glyph-name="k" horiz-adv-x="548" d="M65 0V701H208V299H212L369 496H529L355 292L542 0H383L271 193L208 122V0H65Z" />
<glyph unicode="l" glyph-name="l" horiz-adv-x="286" d="M200 -12Q124 -12 95 33T65 154V701H212V148Q212 125 220 116T238 107Q248 107 256 109L274 0Q247 -12 200 -12Z" />
<glyph unicode="m" glyph-name="m" horiz-adv-x="857" d="M65 0V496H185L195 432H199Q230 463 265 485T349 508Q402 508 434 487T486 425Q519 459 555 483T642 508Q722 508 759 455T797 308V0H650V289Q650 343 635 363T589 383Q552 383 504 335V0H357V289Q357
343 343 363T296 383Q258 383 212 335V0H65Z" />
<glyph unicode="n" glyph-name="n" horiz-adv-x="572" d="M65 0V496H185L195 433H199Q230 463 269 485T358 508Q439 508 475 455T512 308V0H365V289Q365 343 351 363T304 383Q276 383 256 371T212 335V0H65Z" />
<glyph unicode="o" glyph-name="o" horiz-adv-x="555" d="M278 -12Q215 -12 160 18T70 107T36 248Q36 330 70 388T159 477T278 508Q340 508 395 478T485 389T519 248Q519 166 485 108T396 19T278 -12ZM278 107Q323 107 346 145T369 248Q369 312 346 350T278 389Q232
389 210 351T187 248Q187 184 209 146T278 107Z" />
<glyph unicode="p" glyph-name="p" horiz-adv-x="573" d="M291 108Q329 108 356 143T383 254Q383 388 297 388Q254 388 212 343V140Q232 122 252 115T291 108ZM65 -184V496H185L195 447H199Q228 473 264 490T340 508Q430 508 482 440T534 256Q534 128 470 58T325
-12Q262 -12 207 40L212 -39V-184H65Z" />
<glyph unicode="q" glyph-name="q" horiz-adv-x="573" d="M361 -184V-33L367 43Q342 19 309 4T242 -12Q150 -12 95 57T39 248Q39 370 102 439T245 508Q320 508 377 447H381L393 496H508V-184H361ZM280 108Q328 108 361 153V356Q342 374 321 381T279 388Q244 388
217 354T190 250Q190 108 280 108Z" />
<glyph unicode="r" glyph-name="r" horiz-adv-x="398" d="M65 0V496H185L195 409H199Q226 459 264 483T340 508Q361 508 374 505T399 498L375 371Q362 375 350 377T321 379Q293 379 263 359T212 288V0H65Z" />
<glyph unicode="s" glyph-name="s" horiz-adv-x="443" d="M211 -12Q162 -12 110 7T21 57L87 149Q156 97 215 97Q278 97 278 139Q278 164 247 178T177 207Q132 224 89 258T46 353Q46 422 98 465T236 508Q293 508 336 489T411 445L345 357Q318 376 292 387T240 399Q184
399 184 360Q184 336 213 324T281 297Q328 280 371 248T415 148Q415 80 363 34T211 -12Z" />
<glyph unicode="t" glyph-name="t" horiz-adv-x="383" d="M256 -12Q164 -12 125 41T85 180V381H17V490L93 496L110 628H232V496H351V381H232V182Q232 103 296 103Q308 103 320 106T343 113L366 6Q346 0 319 -6T256 -12Z" />
<glyph unicode="u" glyph-name="u" horiz-adv-x="568" d="M214 -12Q133 -12 97 41T60 188V496H207V207Q207 154 222 134T269 113Q297 113 316 126T357 168V496H504V0H384L373 69H370Q338 32 302 10T214 -12Z" />
<glyph unicode="v" glyph-name="v" horiz-adv-x="523" d="M179 0L12 496H160L224 262Q234 225 243 187T263 109H267Q284 184 305 262L370 496H511L349 0H179Z" />
<glyph unicode="w" glyph-name="w" horiz-adv-x="776" d="M148 0L24 496H170L218 266Q224 229 229 193T240 119H244Q251 156 257 193T273 266L328 496H455L511 266Q520 229 527 193T542 119H546Q553 156 557 192T569 266L616 496H752L633 0H461L416 198Q408 232
402 267T389 343H385Q378 303 373 268T360 198L316 0H148Z" />
<glyph unicode="x" glyph-name="x" horiz-adv-x="514" d="M14 0L166 258L23 496H181L225 416Q235 395 245 374T267 331H271Q278 352 287 373T305 416L339 496H491L347 241L500 0H342L294 82Q282 103 271 125T247 168H243Q234 147 224 126T205 82L166 0H14Z" />
<glyph unicode="y" glyph-name="y" horiz-adv-x="521" d="M120 -194Q98 -194 82 -191T50 -184L76 -72Q83 -74 92 -76T109 -78Q146 -78 166 -60T196 -13L203 13L12 496H160L231 283Q242 249 251 214T270 142H274Q282 177 290 212T308 283L368 496H509L337 -5Q302
-99 255 -146T120 -194Z" />
<glyph unicode="z" glyph-name="z" horiz-adv-x="460" d="M38 0V79L246 381H61V496H429V418L221 115H436V0H38Z" />
<glyph unicode="{" glyph-name="braceleft" horiz-adv-x="344" d="M235 -152Q169 -152 138 -122T107 -10Q107 43 112 78T117 161Q117 187 99 210T31 235V321Q80 322 98 345T117 395Q117 442 112 477T107 566Q107 647 138 677T235 708H298V630H279Q248 630 237
616T226 560Q226 520 228 482T230 397Q230 340 212 315T156 280V276Q194 267 212 242T230 159Q230 113 228 75T226 -4Q226 -45 237 -59T279 -74H298V-152H235Z" />
<glyph unicode="|" glyph-name="bar" horiz-adv-x="268" d="M86 -250V750H182V-250H86Z" />
<glyph unicode="}" glyph-name="braceright" horiz-adv-x="344" d="M46 -152V-74H65Q96 -74 107 -60T118 -4Q118 36 116 74T114 159Q114 216 132 241T188 276V280Q150 289 132 314T114 397Q114 443 116 481T118 560Q118 601 107 615T65 630H46V708H109Q175 708
206 678T237 566Q237 513 232 478T227 395Q227 369 245 346T313 321V235Q264 234 246 211T227 161Q227 114 232 79T237 -10Q237 -91 206 -121T109 -152H46Z" />
<glyph unicode="~" glyph-name="asciitilde" horiz-adv-x="528" d="M349 240Q308 240 280 259T228 297T177 316Q138 316 105 258L29 317Q66 373 104 396T179 420Q220 420 248 401T300 363T351 344Q390 344 423 402L499 343Q462 287 424 264T349 240Z" />
<glyph unicode="&#xa0;" glyph-name="space" horiz-adv-x="200" />
<glyph unicode="&#xa1;" glyph-name="exclamdown" horiz-adv-x="340" d="M170 323Q132 323 107 349T81 416Q81 455 106 481T170 508Q208 508 233 482T259 416Q259 376 234 350T170 323ZM96 -174L101 -41L122 265H218L239 -41L244 -174H96Z" />
<glyph unicode="&#xa2;" glyph-name="cent" horiz-adv-x="528" d="M487 113Q458 88 424 73T356 54V-41H275V54Q178 67 119 132T60 307Q60 413 121 477T275 558V655H356V562Q432 555 480 506L413 416Q385 440 356 443V171Q377 175 395 184T428 206L487 113ZM203
307Q203 213 275 182V432Q203 401 203 307Z" />
<glyph unicode="&#xa3;" glyph-name="sterling" horiz-adv-x="528" d="M497 124V0H48V91Q93 111 123 151T154 244Q154 257 152 271H52V357L120 362H126Q120 383 115 403T110 442Q110 536 170 591T324 647Q380 647 421 626T497 566L417 486Q382 528 338 528Q298
528 275 505T251 434Q251 416 254 398T262 362H410V271H281Q283 257 283 243Q283 179 238 128V124H497Z" />
<glyph unicode="&#xa4;" glyph-name="currency" horiz-adv-x="528" d="M93 83L20 157L81 219Q47 265 47 330Q47 393 80 439L20 501L93 575L162 505Q210 530 264 530Q316 530 366 505L435 575L508 501L447 439Q481 394 481 330Q481 268 447 219L508 157L435 83L365
154Q318 130 264 130Q210 130 163 154L93 83ZM264 232Q300 232 325 258T350 330Q350 374 325 401T264 428Q228 428 203 401T178 330Q178 285 203 259T264 232Z" />
<glyph unicode="&#xa5;" glyph-name="yen" horiz-adv-x="528" d="M190 0V147H37V217H190V272H37V342H159L12 635H163L214 502Q226 469 238 436T264 371H268Q281 404 293 437T318 502L368 635H516L369 342H491V272H337V217H491V147H337V0H190Z" />
<glyph unicode="&#xa6;" glyph-name="brokenbar" horiz-adv-x="268" d="M86 312V750H182V312H86ZM86 -250V204H182V-250H86Z" />
<glyph unicode="&#xa7;" glyph-name="section" horiz-adv-x="528" d="M161 337Q161 306 188 286T254 250T333 213Q367 234 367 272Q367 303 341 323T275 359T196 395Q161 373 161 337ZM240 -84Q185 -84 133 -64T46 0L131 75Q180 24 240 24Q300 24 300 67Q300 90
274 106T208 138T129 176T64 234T37 326Q37 363 58 397T117 454Q88 489 88 537Q88 604 135 647T266 690Q324 690 369 670T446 625L379 533Q356 553 328 567T274 581Q220 581 220 542Q220 521 247 505T315 473T396 433T463 374T491 284Q491 201 409 151Q432 118
432 74Q432 6 383 -39T240 -84Z" />
<glyph unicode="&#xa8;" glyph-name="dieresis" horiz-adv-x="555" d="M387 569Q356 569 336 589T316 641Q316 671 336 691T387 712Q418 712 438 692T459 641Q459 610 439 590T387 569ZM169 569Q138 569 118 589T97 641Q97 671 117 691T169 712Q200 712 220 692T240
641Q240 610 220 590T169 569Z" />
<glyph unicode="&#xa9;" glyph-name="copyright" horiz-adv-x="750" d="M375 -9Q286 -9 211 31T91 147T45 325Q45 428 90 502T211 615T375 655Q464 655 538 616T658 502T704 325Q704 222 659 147T539 32T375 -9ZM375 52Q485 52 561 127T637 325Q637 448 561 521T375
595Q265 595 189 522T113 325Q113 202 189 127T375 52ZM387 127Q303 127 249 180T194 324Q194 412 252 464T387 516Q433 516 464 499T519 457L464 396Q432 430 396 430Q349 430 324 399T299 324Q299 273 324 243T391 213Q416 213 434 222T471 247L519 179Q490 156
458 142T387 127Z" />
<glyph unicode="&#xaa;" glyph-name="ordfeminine" horiz-adv-x="359" d="M165 446Q180 446 191 453T216 472V527Q166 522 147 508T128 476Q128 446 165 446ZM130 367Q84 367 57 396T29 467Q29 520 73 549T216 587Q211 631 167 631Q147 631 124 623T77 601L40
669Q73 688 109 700T185 713Q249 713 284 676T320 564V375H237L227 409H223Q205 391 182 379T130 367Z" />
<glyph unicode="&#xab;" glyph-name="guillemotleft" horiz-adv-x="480" d="M183 56L49 200V304L183 448L238 404L127 252L238 100L183 56ZM371 56L237 200V304L371 448L426 404L315 252L426 100L371 56Z" />
<glyph unicode="&#xac;" glyph-name="logicalnot" horiz-adv-x="528" d="M386 94V278H34V382H494V94H386Z" />
<glyph unicode="&#xad;" glyph-name="uni00AD" horiz-adv-x="332" d="M43 201V305H289V201H43Z" />
<glyph unicode="&#xae;" glyph-name="registered" horiz-adv-x="462" d="M231 311Q148 311 90 367T32 513Q32 602 90 658T231 715Q313 715 371 659T429 513Q429 424 371 368T231 311ZM231 360Q294 360 334 401T374 513Q374 583 334 624T231 666Q168 666 128 625T87
513Q87 443 127 402T231 360ZM207 516H228Q258 516 258 544Q258 570 228 570H207V516ZM150 416V613H239Q274 613 297 597T320 547Q320 510 285 493L326 416H266L236 476H207V416H150Z" />
<glyph unicode="&#xaf;" glyph-name="overscore" horiz-adv-x="555" d="M130 592V685H426V592H130Z" />
<glyph unicode="&#xb0;" glyph-name="degree" horiz-adv-x="365" d="M183 398Q123 398 81 438T39 542Q39 605 81 645T183 686Q244 686 286 646T328 542Q328 479 286 439T183 398ZM183 468Q213 468 231 488T250 542Q250 574 232 594T183 615Q154 615 135 595T116
542Q116 509 135 489T183 468Z" />
<glyph unicode="&#xb1;" glyph-name="plusminus" horiz-adv-x="528" d="M210 158V294H34V398H210V566H318V398H494V294H318V158H210ZM34 0V104H494V0H34Z" />
<glyph unicode="&#xb2;" glyph-name="two.sups" horiz-adv-x="376" d="M45 375V433Q120 495 168 542T216 627Q216 688 159 688Q124 688 88 641L27 697Q87 777 176 777Q240 777 280 743T320 645Q320 598 289 555T216 465H334V375H45Z" />
<glyph unicode="&#xb3;" glyph-name="three.sups" horiz-adv-x="376" d="M186 363Q80 363 27 442L92 493Q127 445 175 445Q198 445 214 457T231 492Q231 543 138 543V605Q174 605 195 616T217 653Q217 695 168 695Q149 695 134 684T104 656L43 710Q75 745 108
761T187 777Q241 777 282 748T323 668Q323 611 266 578Q296 566 316 543T337 484Q337 430 292 397T186 363Z" />
<glyph unicode="&#xb4;" glyph-name="acute" horiz-adv-x="555" d="M288 572L216 644L370 826L469 729L288 572Z" />
<glyph unicode="&#xb5;" glyph-name="uni00B5" horiz-adv-x="594" d="M65 -177V496H212V207Q212 154 227 134T273 113Q298 113 318 127T358 178V496H506Q504 409 500 310T496 149Q496 107 540 107Q556 107 572 113L589 4Q573 -3 554 -7T502 -12Q398 -12 374 71H370Q333
-7 265 -7Q247 -7 231 -3T203 16Q204 -40 206 -82T213 -177H65Z" />
<glyph unicode="&#xb6;" glyph-name="paragraph" horiz-adv-x="636" d="M297 197Q190 197 115 255T39 429Q39 555 114 603T293 652H337V197H297ZM393 -80V652H540V-80H393Z" />
<glyph unicode="&#xb7;" glyph-name="middot" horiz-adv-x="300" d="M150 228Q112 228 87 254T61 320Q61 360 86 386T150 413Q188 413 213 387T239 320Q239 281 214 255T150 228Z" />
<glyph unicode="&#xb8;" glyph-name="cedilla" horiz-adv-x="555" d="M177 -239L166 -180Q225 -177 247 -167T269 -136Q269 -121 254 -111T192 -94L240 4H326L298 -61Q374 -79 374 -136Q374 -187 323 -211T177 -239Z" />
<glyph unicode="&#xb9;" glyph-name="one.sups" horiz-adv-x="376" d="M165 375V656H76V722Q116 728 139 738T188 765H274V375H165Z" />
<glyph unicode="&#xba;" glyph-name="ordmasculine" horiz-adv-x="373" d="M186 367Q122 367 73 412T24 539Q24 621 73 667T186 713Q250 713 299 667T348 539Q348 458 299 413T186 367ZM186 449Q215 449 229 473T243 539Q243 580 229 605T186 631Q157 631 144
606T130 539Q130 498 143 474T186 449Z" />
<glyph unicode="&#xbb;" glyph-name="guillemotright" horiz-adv-x="480" d="M109 56L54 100L165 252L54 404L109 448L243 304V200L109 56ZM297 56L242 100L353 252L242 404L297 448L431 304V200L297 56Z" />
<glyph unicode="&#xbc;" glyph-name="onequarter" horiz-adv-x="809" d="M135 262V543H46V609Q86 615 109 625T158 652H244V262H135ZM185 -12L537 664H622L270 -12H185ZM567 157H647V198L653 315H649L609 238L567 157ZM801 87H743V0H647V87H468V141L609 390H743V157H801V87Z"
/>
<glyph unicode="&#xbd;" glyph-name="onehalf" horiz-adv-x="846" d="M135 262V543H46V609Q86 615 109 625T158 652H244V262H135ZM170 -12L522 664H607L255 -12H170ZM514 0V58Q589 120 637 167T685 252Q685 313 628 313Q593 313 557 266L496 322Q556 402 645 402Q709
402 749 368T789 270Q789 223 758 180T685 90H803V0H514Z" />
<glyph unicode="&#xbe;" glyph-name="threequarters" horiz-adv-x="818" d="M183 250Q77 250 24 329L89 380Q124 332 172 332Q195 332 211 344T228 379Q228 430 135 430V492Q171 492 192 503T214 540Q214 582 165 582Q146 582 131 571T101 543L40 597Q72 632 105
648T184 664Q238 664 279 635T320 555Q320 498 263 465Q293 453 313 430T334 371Q334 317 289 284T183 250ZM207 -12L559 664H644L292 -12H207ZM575 157H655V198L661 315H657L617 238L575 157ZM809 87H751V0H655V87H476V141L617 390H751V157H809V87Z" />
<glyph unicode="&#xbf;" glyph-name="questiondown" horiz-adv-x="463" d="M245 323Q207 323 182 349T156 416Q156 455 181 481T245 508Q283 508 308 482T334 416Q334 376 309 350T245 323ZM232 -186Q151 -186 97 -145T42 -14Q42 32 64 65T115 127T164 188T181
265H309Q316 214 299 176T254 107T205 51T183 -4Q183 -35 202 -51T250 -67Q278 -67 299 -54T341 -21L422 -95Q386 -136 338 -161T232 -186Z" />
<glyph unicode="&#xc0;" glyph-name="Agrave" horiz-adv-x="573" d="M230 330L214 270H353L338 330Q324 379 311 434T285 540H281Q269 488 257 434T230 330ZM423 0L383 155H184L144 0H-6L198 652H375L579 0H423ZM293 680L110 799L188 894L359 754L293 680Z" />
<glyph unicode="&#xc1;" glyph-name="Aacute" horiz-adv-x="573" d="M230 330L214 270H353L338 330Q324 379 311 434T285 540H281Q269 488 257 434T230 330ZM423 0L383 155H184L144 0H-6L198 652H375L579 0H423ZM273 680L207 754L378 894L456 799L273 680Z" />
<glyph unicode="&#xc2;" glyph-name="Acircumflex" horiz-adv-x="573" d="M230 330L214 270H353L338 330Q324 379 311 434T285 540H281Q269 488 257 434T230 330ZM423 0L383 155H184L144 0H-6L198 652H375L579 0H423ZM113 724L203 835H363L453 724L389 685L285
769H281L177 685L113 724Z" />
<glyph unicode="&#xc3;" glyph-name="Atilde" horiz-adv-x="573" d="M230 330L214 270H353L338 330Q324 379 311 434T285 540H281Q269 488 257 434T230 330ZM423 0L383 155H184L144 0H-6L198 652H375L579 0H423ZM354 692Q319 692 295 706T252 735T217 750Q185
750 180 701L85 708Q89 784 124 818T212 852Q247 852 271 838T314 809T349 794Q381 794 386 843L481 836Q477 761 442 727T354 692Z" />
<glyph unicode="&#xc4;" glyph-name="Adieresis" horiz-adv-x="573" d="M230 330L214 270H353L338 330Q324 379 311 434T285 540H281Q269 488 257 434T230 330ZM423 0L383 155H184L144 0H-6L198 652H375L579 0H423ZM394 700Q363 700 344 720T324 770Q324 800 343
820T394 840Q425 840 444 820T464 770Q464 740 445 720T394 700ZM172 700Q141 700 122 720T102 770Q102 800 121 820T172 840Q203 840 222 820T242 770Q242 740 223 720T172 700Z" />
<glyph unicode="&#xc5;" glyph-name="Aring" horiz-adv-x="573" d="M283 697Q232 697 201 724T169 796Q169 841 200 867T283 894Q333 894 365 868T397 796Q397 751 365 724T283 697ZM283 752Q300 752 312 764T325 796Q325 816 313 827T283 839Q266 839 254 828T241
796Q241 776 253 764T283 752ZM230 330L214 270H353L338 330Q324 379 311 434T285 540H281Q269 488 257 434T230 330ZM423 0L383 155H184L144 0H-6L198 652H375L579 0H423Z" />
<glyph unicode="&#xc6;" glyph-name="AE" horiz-adv-x="845" d="M303 356L261 263H386V541H382Q362 493 342 446T303 356ZM386 0V149H209L141 0H-14L296 652H783V528H533V397H744V274H533V124H793V0H386Z" />
<glyph unicode="&#xc7;" glyph-name="Ccedilla" horiz-adv-x="582" d="M445 -136Q445 -187 394 -211T248 -239L237 -180Q296 -177 318 -167T340 -136Q340 -121 325 -111T263 -94L305 -9Q196 5 121 89T46 322Q46 430 88 506T201 623T354 664Q417 664 467 639T550
579L472 485Q447 508 420 522T357 537Q290 537 244 481T197 327Q197 226 240 171T355 115Q395 115 426 132T482 176L560 84Q492 5 391 -9L369 -61Q445 -79 445 -136Z" />
<glyph unicode="&#xc8;" glyph-name="Egrave" horiz-adv-x="548" d="M77 0V652H485V528H224V397H446V274H224V124H495V0H77ZM298 680L115 799L193 894L364 754L298 680Z" />
<glyph unicode="&#xc9;" glyph-name="Eacute" horiz-adv-x="548" d="M77 0V652H485V528H224V397H446V274H224V124H495V0H77ZM278 680L212 754L383 894L461 799L278 680Z" />
<glyph unicode="&#xca;" glyph-name="Ecircumflex" horiz-adv-x="548" d="M77 0V652H485V528H224V397H446V274H224V124H495V0H77ZM118 724L208 835H368L458 724L394 685L290 769H286L182 685L118 724Z" />
<glyph unicode="&#xcb;" glyph-name="Edieresis" horiz-adv-x="548" d="M77 0V652H485V528H224V397H446V274H224V124H495V0H77ZM399 700Q368 700 349 720T329 770Q329 800 348 820T399 840Q430 840 449 820T469 770Q469 740 450 720T399 700ZM177 700Q146 700
127 720T107 770Q107 800 126 820T177 840Q208 840 227 820T247 770Q247 740 228 720T177 700Z" />
<glyph unicode="&#xcc;" glyph-name="Igrave" horiz-adv-x="301" d="M77 0V652H224V0H77ZM161 680L-22 799L56 894L227 754L161 680Z" />
<glyph unicode="&#xcd;" glyph-name="Iacute" horiz-adv-x="301" d="M77 0V652H224V0H77ZM141 680L75 754L246 894L324 799L141 680Z" />
<glyph unicode="&#xce;" glyph-name="Icircumflex" horiz-adv-x="301" d="M77 0V652H224V0H77ZM-19 724L71 835H231L321 724L257 685L153 769H149L45 685L-19 724Z" />
<glyph unicode="&#xcf;" glyph-name="Idieresis" horiz-adv-x="301" d="M77 0V652H224V0H77ZM262 700Q231 700 212 720T192 770Q192 800 211 820T262 840Q293 840 312 820T332 770Q332 740 313 720T262 700ZM40 700Q9 700 -10 720T-30 770Q-30 800 -11 820T40
840Q71 840 90 820T110 770Q110 740 91 720T40 700Z" />
<glyph unicode="&#xd0;" glyph-name="Eth" horiz-adv-x="660" d="M294 0H102V301H26V367L102 372V652H286Q435 652 524 575T613 329Q613 161 525 81T294 0ZM249 119H277Q360 119 411 165T462 329Q462 446 411 489T277 533H249V372H374V301H249V119Z" />
<glyph unicode="&#xd1;" glyph-name="Ntilde" horiz-adv-x="665" d="M77 0V652H228L398 328L462 184H466Q462 236 455 300T448 422V652H588V0H437L267 325L203 467H199Q204 413 210 351T217 231V0H77ZM404 692Q368 692 344 706T302 735T267 750Q235 750 230 701L135
708Q139 784 174 818T262 852Q298 852 322 838T364 809T399 794Q431 794 436 843L531 836Q527 761 492 727T404 692Z" />
<glyph unicode="&#xd2;" glyph-name="Ograve" horiz-adv-x="684" d="M342 -12Q210 -12 128 78T46 329Q46 489 128 576T342 664Q474 664 556 576T638 329Q638 169 556 79T342 -12ZM342 115Q409 115 448 173T487 329Q487 426 448 481T342 537Q275 537 236 482T197
329Q197 231 236 173T342 115ZM352 680L169 799L247 894L418 754L352 680Z" />
<glyph unicode="&#xd3;" glyph-name="Oacute" horiz-adv-x="684" d="M342 -12Q210 -12 128 78T46 329Q46 489 128 576T342 664Q474 664 556 576T638 329Q638 169 556 79T342 -12ZM342 115Q409 115 448 173T487 329Q487 426 448 481T342 537Q275 537 236 482T197
329Q197 231 236 173T342 115ZM332 680L266 754L437 894L515 799L332 680Z" />
<glyph unicode="&#xd4;" glyph-name="Ocircumflex" horiz-adv-x="684" d="M342 -12Q210 -12 128 78T46 329Q46 489 128 576T342 664Q474 664 556 576T638 329Q638 169 556 79T342 -12ZM342 115Q409 115 448 173T487 329Q487 426 448 481T342 537Q275 537 236 482T197
329Q197 231 236 173T342 115ZM172 724L262 835H422L512 724L448 685L344 769H340L236 685L172 724Z" />
<glyph unicode="&#xd5;" glyph-name="Otilde" horiz-adv-x="684" d="M342 -12Q210 -12 128 78T46 329Q46 489 128 576T342 664Q474 664 556 576T638 329Q638 169 556 79T342 -12ZM342 115Q409 115 448 173T487 329Q487 426 448 481T342 537Q275 537 236 482T197
329Q197 231 236 173T342 115ZM413 692Q378 692 354 706T311 735T276 750Q244 750 239 701L144 708Q148 784 183 818T271 852Q306 852 330 838T373 809T408 794Q440 794 445 843L540 836Q536 761 501 727T413 692Z" />
<glyph unicode="&#xd6;" glyph-name="Odieresis" horiz-adv-x="684" d="M342 -12Q210 -12 128 78T46 329Q46 489 128 576T342 664Q474 664 556 576T638 329Q638 169 556 79T342 -12ZM342 115Q409 115 448 173T487 329Q487 426 448 481T342 537Q275 537 236 482T197
329Q197 231 236 173T342 115ZM453 700Q422 700 403 720T383 770Q383 800 402 820T453 840Q484 840 503 820T523 770Q523 740 504 720T453 700ZM231 700Q200 700 181 720T161 770Q161 800 180 820T231 840Q262 840 281 820T301 770Q301 740 282 720T231 700Z" />
<glyph unicode="&#xd7;" glyph-name="multiply" horiz-adv-x="528" d="M121 112L48 186L190 329L48 473L121 547L264 403L407 547L480 473L338 329L480 186L407 112L264 256L121 112Z" />
<glyph unicode="&#xd8;" glyph-name="Oslash" horiz-adv-x="684" d="M116 -41L40 17L584 693L660 634L116 -41ZM343 -12Q211 -12 129 78T47 329Q47 489 129 576T343 664Q475 664 557 576T639 329Q639 169 557 79T343 -12ZM343 115Q410 115 449 173T488 329Q488
426 449 481T343 537Q276 537 237 482T198 329Q198 231 237 173T343 115Z" />
<glyph unicode="&#xd9;" glyph-name="Ugrave" horiz-adv-x="665" d="M334 -12Q207 -12 140 63T73 302V652H221V287Q221 191 250 153T334 115Q389 115 419 153T449 287V652H591V302Q591 138 526 63T334 -12ZM342 680L159 799L237 894L408 754L342 680Z" />
<glyph unicode="&#xda;" glyph-name="Uacute" horiz-adv-x="665" d="M334 -12Q207 -12 140 63T73 302V652H221V287Q221 191 250 153T334 115Q389 115 419 153T449 287V652H591V302Q591 138 526 63T334 -12ZM322 680L256 754L427 894L505 799L322 680Z" />
<glyph unicode="&#xdb;" glyph-name="Ucircumflex" horiz-adv-x="665" d="M334 -12Q207 -12 140 63T73 302V652H221V287Q221 191 250 153T334 115Q389 115 419 153T449 287V652H591V302Q591 138 526 63T334 -12ZM162 724L252 835H412L502 724L438 685L334 769H330L226
685L162 724Z" />
<glyph unicode="&#xdc;" glyph-name="Udieresis" horiz-adv-x="665" d="M334 -12Q207 -12 140 63T73 302V652H221V287Q221 191 250 153T334 115Q389 115 419 153T449 287V652H591V302Q591 138 526 63T334 -12ZM443 700Q412 700 393 720T373 770Q373 800 392 820T443
840Q474 840 493 820T513 770Q513 740 494 720T443 700ZM221 700Q190 700 171 720T151 770Q151 800 170 820T221 840Q252 840 271 820T291 770Q291 740 272 720T221 700Z" />
<glyph unicode="&#xdd;" glyph-name="Yacute" horiz-adv-x="525" d="M189 0V232L-8 652H150L208 502Q222 465 235 431T261 358H265Q279 396 292 430T320 502L379 652H533L336 232V0H189ZM252 680L186 754L357 894L435 799L252 680Z" />
<glyph unicode="&#xde;" glyph-name="Thorn" horiz-adv-x="617" d="M77 0V652H224V553H315Q421 553 495 508T570 344Q570 228 494 176T315 123H224V0H77ZM224 240H306Q426 240 426 344Q426 395 395 415T306 436H224V240Z" />
<glyph unicode="&#xdf;" glyph-name="germandbls" horiz-adv-x="632" d="M421 -12Q377 -12 342 0T270 33L321 133Q370 97 416 97Q471 97 471 145Q471 174 445 191T383 226T322 272T295 350Q295 388 312 414T348 465T366 527Q366 556 350 575T302 595Q256 595 233
562T210 470V0H65V487Q65 584 123 647T302 711Q405 711 456 660T507 544Q507 496 488 467T449 416T429 368Q429 343 455 328T517 293T578 242T605 152Q605 84 559 36T421 -12Z" />
<glyph unicode="&#xe0;" glyph-name="agrave" horiz-adv-x="527" d="M240 102Q265 102 283 113T321 144V231Q243 220 213 199T183 149Q183 102 240 102ZM190 -12Q122 -12 82 31T42 138Q42 216 108 260T321 319Q319 352 302 371T243 391Q212 391 180 379T112 346L59
443Q106 472 159 490T271 508Q366 508 417 453T468 284V0H348L338 51H334Q302 23 267 6T190 -12ZM266 572L85 729L184 826L338 644L266 572Z" />
<glyph unicode="&#xe1;" glyph-name="aacute" horiz-adv-x="527" d="M240 102Q265 102 283 113T321 144V231Q243 220 213 199T183 149Q183 102 240 102ZM190 -12Q122 -12 82 31T42 138Q42 216 108 260T321 319Q319 352 302 371T243 391Q212 391 180 379T112 346L59
443Q106 472 159 490T271 508Q366 508 417 453T468 284V0H348L338 51H334Q302 23 267 6T190 -12ZM286 572L214 644L368 826L467 729L286 572Z" />
<glyph unicode="&#xe2;" glyph-name="acircumflex" horiz-adv-x="527" d="M240 102Q265 102 283 113T321 144V231Q243 220 213 199T183 149Q183 102 240 102ZM190 -12Q122 -12 82 31T42 138Q42 216 108 260T321 319Q319 352 302 371T243 391Q212 391 180 379T112
346L59 443Q106 472 159 490T271 508Q366 508 417 453T468 284V0H348L338 51H334Q302 23 267 6T190 -12ZM93 613L201 744H351L459 613L403 561L278 653H274L149 561L93 613Z" />
<glyph unicode="&#xe3;" glyph-name="atilde" horiz-adv-x="527" d="M240 102Q265 102 283 113T321 144V231Q243 220 213 199T183 149Q183 102 240 102ZM190 -12Q122 -12 82 31T42 138Q42 216 108 260T321 319Q319 352 302 371T243 391Q212 391 180 379T112 346L59
443Q106 472 159 490T271 508Q366 508 417 453T468 284V0H348L338 51H334Q302 23 267 6T190 -12ZM342 573Q310 573 287 589T246 621T213 637Q184 637 178 582L86 587Q90 739 210 739Q242 739 265 723T306 691T339 675Q368 675 374 730L466 725Q462 573 342 573Z"
/>
<glyph unicode="&#xe4;" glyph-name="adieresis" horiz-adv-x="527" d="M240 102Q265 102 283 113T321 144V231Q243 220 213 199T183 149Q183 102 240 102ZM190 -12Q122 -12 82 31T42 138Q42 216 108 260T321 319Q319 352 302 371T243 391Q212 391 180 379T112
346L59 443Q106 472 159 490T271 508Q366 508 417 453T468 284V0H348L338 51H334Q302 23 267 6T190 -12ZM385 569Q354 569 334 589T314 641Q314 671 334 691T385 712Q416 712 436 692T457 641Q457 610 437 590T385 569ZM167 569Q136 569 116 589T95 641Q95 671
115 691T167 712Q198 712 218 692T238 641Q238 610 218 590T167 569Z" />
<glyph unicode="&#xe5;" glyph-name="aring" horiz-adv-x="527" d="M240 102Q265 102 283 113T321 144V231Q243 220 213 199T183 149Q183 102 240 102ZM190 -12Q122 -12 82 31T42 138Q42 216 108 260T321 319Q319 352 302 371T243 391Q212 391 180 379T112 346L59
443Q106 472 159 490T271 508Q366 508 417 453T468 284V0H348L338 51H334Q302 23 267 6T190 -12ZM276 564Q211 564 178 594T144 668Q144 712 177 742T276 772Q341 772 374 742T408 668Q408 624 375 594T276 564ZM276 619Q294 619 306 632T319 668Q319 690 307 703T276
717Q258 717 246 704T233 668Q233 646 245 633T276 619Z" />
<glyph unicode="&#xe6;" glyph-name="ae" horiz-adv-x="786" d="M194 -12Q126 -12 87 31T47 137Q47 216 112 260T323 320Q321 352 304 371T246 391Q216 391 184 379T116 346L64 443Q111 472 162 490T267 508Q359 508 405 433Q436 469 472 488T552 508Q650 508
699 438T749 267Q749 247 747 231T743 205H457Q465 153 498 128T576 103Q604 103 629 113T681 139L731 44Q649 -12 556 -12Q500 -12 458 9T385 65Q332 23 288 6T194 -12ZM457 295H624Q624 340 606 368T547 396Q512 396 488 372T457 295ZM244 102Q293 102 337 144Q326
175 323 210L322 231Q249 220 218 199T187 149Q187 102 244 102Z" />
<glyph unicode="&#xe7;" glyph-name="ccedilla" horiz-adv-x="467" d="M281 -12Q178 -12 107 56T36 248Q36 372 113 440T294 508Q340 508 375 493T439 455L370 360Q335 389 303 389Q250 389 219 351T187 248Q187 184 218 146T298 107Q322 107 345 117T387 143L445
47Q408 15 365 2T281 -12ZM181 -239L170 -180Q228 -177 250 -167T273 -136Q273 -121 258 -111T196 -94L244 4H330L302 -61Q378 -79 378 -136Q378 -187 327 -211T181 -239Z" />
<glyph unicode="&#xe8;" glyph-name="egrave" horiz-adv-x="518" d="M287 -12Q180 -12 108 56T36 248Q36 328 69 386T156 476T270 508Q376 508 428 440T481 270Q481 229 475 205H178Q188 151 223 126T307 100Q360 100 414 133L463 44Q381 -12 287 -12ZM177 302H356Q356
343 337 369T273 396Q238 396 211 373T177 302ZM260 572L79 729L178 826L332 644L260 572Z" />
<glyph unicode="&#xe9;" glyph-name="eacute" horiz-adv-x="518" d="M287 -12Q180 -12 108 56T36 248Q36 328 69 386T156 476T270 508Q376 508 428 440T481 270Q481 229 475 205H178Q188 151 223 126T307 100Q360 100 414 133L463 44Q381 -12 287 -12ZM177 302H356Q356
343 337 369T273 396Q238 396 211 373T177 302ZM280 572L208 644L362 826L461 729L280 572Z" />
<glyph unicode="&#xea;" glyph-name="ecircumflex" horiz-adv-x="518" d="M287 -12Q180 -12 108 56T36 248Q36 328 69 386T156 476T270 508Q376 508 428 440T481 270Q481 229 475 205H178Q188 151 223 126T307 100Q360 100 414 133L463 44Q381 -12 287 -12ZM177
302H356Q356 343 337 369T273 396Q238 396 211 373T177 302ZM87 613L195 744H345L453 613L397 561L272 653H268L143 561L87 613Z" />
<glyph unicode="&#xeb;" glyph-name="edieresis" horiz-adv-x="518" d="M287 -12Q180 -12 108 56T36 248Q36 328 69 386T156 476T270 508Q376 508 428 440T481 270Q481 229 475 205H178Q188 151 223 126T307 100Q360 100 414 133L463 44Q381 -12 287 -12ZM177
302H356Q356 343 337 369T273 396Q238 396 211 373T177 302ZM379 569Q348 569 328 589T308 641Q308 671 328 691T379 712Q410 712 430 692T451 641Q451 610 431 590T379 569ZM161 569Q130 569 110 589T89 641Q89 671 109 691T161 712Q192 712 212 692T232 641Q232
610 212 590T161 569Z" />
<glyph unicode="&#xec;" glyph-name="igrave" horiz-adv-x="276" d="M65 0V496H212V0H65ZM128 572L-53 729L46 826L200 644L128 572Z" />
<glyph unicode="&#xed;" glyph-name="iacute" horiz-adv-x="276" d="M65 0V496H212V0H65ZM148 572L76 644L230 826L329 729L148 572Z" />
<glyph unicode="&#xee;" glyph-name="icircumflex" horiz-adv-x="276" d="M65 0V496H212V0H65ZM-45 613L63 744H213L321 613L265 561L140 653H136L11 561L-45 613Z" />
<glyph unicode="&#xef;" glyph-name="idieresis" horiz-adv-x="276" d="M65 0V496H212V0H65ZM247 569Q216 569 196 589T176 641Q176 671 196 691T247 712Q278 712 298 692T319 641Q319 610 299 590T247 569ZM29 569Q-2 569 -22 589T-43 641Q-43 671 -23 691T29
712Q60 712 80 692T100 641Q100 610 80 590T29 569Z" />
<glyph unicode="&#xf0;" glyph-name="eth" horiz-adv-x="560" d="M273 -12Q180 -12 111 53T42 228Q42 335 104 395T245 455Q274 455 302 446T351 413Q325 489 266 546L124 475L86 540L202 598Q164 624 112 651L176 740Q211 722 246 701T314 655L457 727L495 662L375
601Q434 541 472 460T510 266Q510 145 447 67T273 -12ZM278 107Q320 107 346 144T373 258Q373 281 372 303Q349 327 325 336T275 346Q232 346 204 317T176 228Q176 169 206 138T278 107Z" />
<glyph unicode="&#xf1;" glyph-name="ntilde" horiz-adv-x="572" d="M65 0V496H185L195 433H199Q230 463 269 485T358 508Q439 508 475 455T512 308V0H365V289Q365 343 351 363T304 383Q276 383 256 371T212 335V0H65ZM374 573Q342 573 319 589T278 621T245 637Q216
637 210 582L118 587Q122 739 242 739Q274 739 297 723T338 691T371 675Q400 675 406 730L498 725Q494 573 374 573Z" />
<glyph unicode="&#xf2;" glyph-name="ograve" horiz-adv-x="555" d="M278 -12Q215 -12 160 18T70 107T36 248Q36 330 70 388T159 477T278 508Q340 508 395 478T485 389T519 248Q519 166 485 108T396 19T278 -12ZM278 107Q323 107 346 145T369 248Q369 312 346
350T278 389Q232 389 210 351T187 248Q187 184 209 146T278 107ZM268 572L87 729L186 826L340 644L268 572Z" />
<glyph unicode="&#xf3;" glyph-name="oacute" horiz-adv-x="555" d="M278 -12Q215 -12 160 18T70 107T36 248Q36 330 70 388T159 477T278 508Q340 508 395 478T485 389T519 248Q519 166 485 108T396 19T278 -12ZM278 107Q323 107 346 145T369 248Q369 312 346
350T278 389Q232 389 210 351T187 248Q187 184 209 146T278 107ZM288 572L216 644L370 826L469 729L288 572Z" />
<glyph unicode="&#xf4;" glyph-name="ocircumflex" horiz-adv-x="555" d="M278 -12Q215 -12 160 18T70 107T36 248Q36 330 70 388T159 477T278 508Q340 508 395 478T485 389T519 248Q519 166 485 108T396 19T278 -12ZM278 107Q323 107 346 145T369 248Q369 312
346 350T278 389Q232 389 210 351T187 248Q187 184 209 146T278 107ZM95 613L203 744H353L461 613L405 561L280 653H276L151 561L95 613Z" />
<glyph unicode="&#xf5;" glyph-name="otilde" horiz-adv-x="555" d="M278 -12Q215 -12 160 18T70 107T36 248Q36 330 70 388T159 477T278 508Q340 508 395 478T485 389T519 248Q519 166 485 108T396 19T278 -12ZM278 107Q323 107 346 145T369 248Q369 312 346
350T278 389Q232 389 210 351T187 248Q187 184 209 146T278 107ZM344 573Q312 573 289 589T248 621T215 637Q186 637 180 582L88 587Q92 739 212 739Q244 739 267 723T308 691T341 675Q370 675 376 730L468 725Q464 573 344 573Z" />
<glyph unicode="&#xf6;" glyph-name="odieresis" horiz-adv-x="555" d="M278 -12Q215 -12 160 18T70 107T36 248Q36 330 70 388T159 477T278 508Q340 508 395 478T485 389T519 248Q519 166 485 108T396 19T278 -12ZM278 107Q323 107 346 145T369 248Q369 312 346
350T278 389Q232 389 210 351T187 248Q187 184 209 146T278 107ZM387 569Q356 569 336 589T316 641Q316 671 336 691T387 712Q418 712 438 692T459 641Q459 610 439 590T387 569ZM169 569Q138 569 118 589T97 641Q97 671 117 691T169 712Q200 712 220 692T240 641Q240
610 220 590T169 569Z" />
<glyph unicode="&#xf7;" glyph-name="divide" horiz-adv-x="528" d="M264 433Q230 433 207 454T183 510Q183 544 206 565T264 587Q298 587 321 566T345 510Q345 476 322 455T264 433ZM34 278V382H494V278H34ZM264 73Q230 73 207 94T183 150Q183 184 206 205T264
227Q298 227 321 206T345 150Q345 116 322 95T264 73Z" />
<glyph unicode="&#xf8;" glyph-name="oslash" horiz-adv-x="555" d="M178 256Q178 218 185 189L334 375Q312 394 278 394Q232 394 205 356T178 256ZM278 102Q323 102 350 140T377 240Q377 279 370 308L220 122Q243 102 278 102ZM278 -12Q204 -12 144 28L101 -25L46
17L93 75Q67 107 52 150T36 248Q36 330 70 388T159 477T278 508Q351 508 410 469L454 523L509 480L462 422Q488 389 503 346T519 248Q519 166 485 108T396 19T278 -12Z" />
<glyph unicode="&#xf9;" glyph-name="ugrave" horiz-adv-x="568" d="M214 -12Q133 -12 97 41T60 188V496H207V207Q207 154 222 134T269 113Q297 113 316 126T357 168V496H504V0H384L373 69H370Q338 32 302 10T214 -12ZM275 572L94 729L193 826L347 644L275 572Z" />
<glyph unicode="&#xfa;" glyph-name="uacute" horiz-adv-x="568" d="M214 -12Q133 -12 97 41T60 188V496H207V207Q207 154 222 134T269 113Q297 113 316 126T357 168V496H504V0H384L373 69H370Q338 32 302 10T214 -12ZM295 572L223 644L377 826L476 729L295 572Z" />
<glyph unicode="&#xfb;" glyph-name="ucircumflex" horiz-adv-x="568" d="M214 -12Q133 -12 97 41T60 188V496H207V207Q207 154 222 134T269 113Q297 113 316 126T357 168V496H504V0H384L373 69H370Q338 32 302 10T214 -12ZM102 613L210 744H360L468 613L412 561L287
653H283L158 561L102 613Z" />
<glyph unicode="&#xfc;" glyph-name="udieresis" horiz-adv-x="568" d="M214 -12Q133 -12 97 41T60 188V496H207V207Q207 154 222 134T269 113Q297 113 316 126T357 168V496H504V0H384L373 69H370Q338 32 302 10T214 -12ZM394 569Q363 569 343 589T323 641Q323
671 343 691T394 712Q425 712 445 692T466 641Q466 610 446 590T394 569ZM176 569Q145 569 125 589T104 641Q104 671 124 691T176 712Q207 712 227 692T247 641Q247 610 227 590T176 569Z" />
<glyph unicode="&#xfd;" glyph-name="yacute" horiz-adv-x="521" d="M120 -194Q98 -194 82 -191T50 -184L76 -72Q83 -74 92 -76T109 -78Q146 -78 166 -60T196 -13L203 13L12 496H160L231 283Q242 249 251 214T270 142H274Q282 177 290 212T308 283L368 496H509L337
-5Q302 -99 255 -146T120 -194ZM277 572L205 644L359 826L458 729L277 572Z" />
<glyph unicode="&#xfe;" glyph-name="thorn" horiz-adv-x="573" d="M291 108Q329 108 356 143T383 254Q383 388 297 388Q254 388 212 343V140Q232 122 252 115T291 108ZM65 -184V701H212V529L208 459Q265 508 332 508Q426 508 480 440T534 256Q534 128 470 58T325
-12Q289 -12 262 0T208 35L212 -39V-184H65Z" />
<glyph unicode="&#xff;" glyph-name="ydieresis" horiz-adv-x="521" d="M120 -194Q98 -194 82 -191T50 -184L76 -72Q83 -74 92 -76T109 -78Q146 -78 166 -60T196 -13L203 13L12 496H160L231 283Q242 249 251 214T270 142H274Q282 177 290 212T308 283L368 496H509L337
-5Q302 -99 255 -146T120 -194ZM376 569Q345 569 325 589T305 641Q305 671 325 691T376 712Q407 712 427 692T448 641Q448 610 428 590T376 569ZM158 569Q127 569 107 589T86 641Q86 671 106 691T158 712Q189 712 209 692T229 641Q229 610 209 590T158 569Z" />
<glyph unicode="&#x2013;" glyph-name="endash" horiz-adv-x="480" d="M43 206V300H437V206H43Z" />
<glyph unicode="&#x2014;" glyph-name="emdash" horiz-adv-x="800" d="M43 206V300H757V206H43Z" />
<glyph unicode="&#x2018;" glyph-name="quoteleft" horiz-adv-x="300" d="M149 338Q102 338 79 373T55 469Q55 613 197 683L229 619Q139 574 139 492Q144 493 149 493Q180 493 203 474T226 420Q226 382 204 360T149 338Z" />
<glyph unicode="&#x2019;" glyph-name="quoteright" horiz-adv-x="300" d="M103 352L71 416Q161 461 161 543Q157 542 152 542Q120 542 98 561T75 615Q75 652 96 674T152 697Q246 697 246 566Q246 422 103 352Z" />
<glyph unicode="&#x201a;" glyph-name="quotesinglbase" horiz-adv-x="300" d="M103 -169L71 -105Q161 -60 161 22Q157 21 152 21Q120 21 98 40T75 94Q75 131 96 153T152 176Q246 176 246 45Q246 -99 103 -169Z" />
<glyph unicode="&#x201c;" glyph-name="quotedblleft" horiz-adv-x="537" d="M149 338Q102 338 79 373T55 469Q55 613 197 683L229 619Q139 574 139 492Q144 493 149 493Q180 493 203 474T226 420Q226 382 204 360T149 338ZM386 338Q339 338 316 373T292 469Q292
613 434 683L466 619Q376 574 376 492Q381 493 386 493Q417 493 440 474T463 420Q463 382 441 360T386 338Z" />
<glyph unicode="&#x201d;" glyph-name="quotedblright" horiz-adv-x="537" d="M103 352L71 416Q161 461 161 543Q157 542 152 542Q120 542 98 561T75 615Q75 652 96 674T152 697Q246 697 246 566Q246 422 103 352ZM340 352L308 416Q398 461 398 543Q394 542 389
542Q357 542 335 561T312 615Q312 652 333 674T389 697Q483 697 483 566Q483 422 340 352Z" />
<glyph unicode="&#x201e;" glyph-name="quotedblbase" horiz-adv-x="537" d="M103 -169L71 -105Q161 -60 161 22Q157 21 152 21Q120 21 98 40T75 94Q75 131 96 153T152 176Q246 176 246 45Q246 -99 103 -169ZM340 -169L308 -105Q398 -60 398 22Q394 21 389 21Q357
21 335 40T312 94Q312 131 333 153T389 176Q483 176 483 45Q483 -99 340 -169Z" />
<glyph unicode="&#x2022;" glyph-name="bullet" horiz-adv-x="345" d="M172 123Q116 123 78 163T40 262Q40 322 78 361T172 401Q228 401 266 362T305 262Q305 203 267 163T172 123Z" />
<glyph unicode="&#x2039;" glyph-name="guilsinglleft" horiz-adv-x="292" d="M183 56L49 200V304L183 448L238 404L127 252L238 100L183 56Z" />
<glyph unicode="&#x203a;" glyph-name="guilsinglright" horiz-adv-x="292" d="M109 56L54 100L165 252L54 404L109 448L243 304V200L109 56Z" />
</font>
</defs>
</svg>
