<?xml version="1.0" standalone="no"?>
<!DOCTYPE svg PUBLIC "-//W3C//DTD SVG 1.1//EN" "http://www.w3.org/Graphics/SVG/1.1/DTD/svg11.dtd">
<svg xmlns="http://www.w3.org/2000/svg">
<defs >
<font id="Asul" horiz-adv-x="442" ><font-face
    font-family="Asul"
    units-per-em="1000"
    panose-1="2 0 0 0 0 0 0 0 0 0"
    ascent="949"
    descent="-264"
    alphabetic="0" />
<glyph unicode=" " glyph-name="space" horiz-adv-x="225" />
<glyph unicode="!" glyph-name="exclam" horiz-adv-x="268" d="M98 167Q99 175 99 220T97 355T94 475T92 524T90 558T88 588Q81 658 50 680V690L187 714L193 704Q187 659 169 180L98 167ZM204 20Q204 16 204 12L196 4Q145 -9 112 -11L102 -7Q89 21 89 59Q89 64
89 69L97 77Q144 92 179 92Q183 92 192 87Q204 57 204 20Z" />
<glyph unicode="&quot;" glyph-name="quotedbl" horiz-adv-x="471" d="M184 694Q192 688 192 656T181 537T159 427H131Q120 450 110 533T100 650T107 693L116 699Q132 703 143 703Q157 703 177 699L184 694ZM364 694Q372 688 372 656T361 537T339 427H311Q300
450 290 533T280 650T287 693L296 699Q312 703 323 703Q337 703 357 699L364 694Z" />
<glyph unicode="#" glyph-name="numbersign" horiz-adv-x="573" d="M516 216H396Q386 137 370 0L293 -6L292 0Q309 57 337 216H191Q181 137 165 0L88 -6L87 0Q104 57 132 216H2L19 288H145Q154 333 165 410H29L46 482H176L202 688L277 706L278 700Q259 626 235
482H381L407 688L482 706L483 700Q464 626 440 482H556L545 410H428L408 288H531L516 216ZM223 410L203 288H350Q359 333 370 410H223Z" />
<glyph unicode="$" glyph-name="dollar" horiz-adv-x="560" d="M500 205Q500 9 303 -9Q303 -71 307 -115L248 -131L244 -124Q253 -63 254 -11Q136 -8 54 48Q57 108 90 153Q161 75 255 57V335Q217 352 200 360T152 387T107 423Q69 469 69 526Q69 613 120 658T255
710Q253 762 251 792L306 818L310 811Q303 758 303 712Q392 707 482 666Q471 616 446 569Q378 627 303 646V410Q343 392 361 384T411 355T459 316T487 269T500 205ZM389 77Q415 110 415 166T386 254T303 313V53Q352 53 389 77ZM169 636Q147 608 147 562T175 486T255
431V653H252Q199 653 169 636Z" />
<glyph unicode="%" glyph-name="percent" horiz-adv-x="778" d="M552 716L636 720L635 714Q593 654 490 482T341 226L214 -11L129 -19L130 -13Q171 46 272 218T424 479L552 716ZM105 312T66 367T26 514T69 658T182 712T286 658T321 517T281 371T173 312ZM243 503Q243
654 168 654Q139 654 126 639Q104 602 104 531Q104 367 186 367Q210 367 221 384Q243 412 243 503ZM523 -12T484 43T444 190T487 334T600 388T704 334T739 193T699 47T591 -12ZM661 179Q661 330 586 330Q557 330 544 315Q522 278 522 207Q522 46 604 46Q628 46
639 63Q661 91 661 179Z" />
<glyph unicode="&amp;" glyph-name="ampersand" horiz-adv-x="773" d="M666 402H599Q603 358 603 322Q603 224 571 154Q663 91 777 32L711 -57Q635 5 602 28L529 85Q447 -12 298 -12Q169 -12 105 52T40 218Q40 267 55 306T93 366Q134 403 173 414Q108 499 108
575Q108 711 287 711Q385 711 472 682Q465 619 435 580Q346 655 280 655Q236 655 212 631T187 559Q187 467 375 306Q446 244 522 189Q532 236 532 290T513 405L407 403L447 461Q523 454 558 454L693 460L666 402ZM490 117Q287 283 202 380Q136 335 136 238Q136
161 183 107T325 53Q440 53 490 117Z" />
<glyph unicode="&apos;" glyph-name="quotesingle" horiz-adv-x="281" d="M179 694Q187 688 187 656T176 537T154 427H126Q115 450 105 533T95 650T102 693L111 699Q127 703 138 703Q152 703 172 699L179 694Z" />
<glyph unicode="(" glyph-name="parenleft" horiz-adv-x="400" d="M368 -135Q360 -166 351 -173Q238 -133 159 -22Q119 34 96 114T73 291Q73 554 232 688Q288 734 351 757L355 754Q367 724 368 719Q250 667 205 547Q165 440 165 272T212 8T368 -135Z" />
<glyph unicode=")" glyph-name="parenright" horiz-adv-x="400" d="M327 291Q327 195 304 115T241 -22Q162 -133 49 -173Q40 -166 32 -135Q140 -87 187 8T235 283Q235 540 132 650Q91 693 32 719Q33 724 45 754L49 757Q112 734 168 688Q327 554 327 291Z" />
<glyph unicode="*" glyph-name="asterisk" horiz-adv-x="419" d="M45 481L38 484L37 573L44 574Q87 561 170 555Q127 614 89 646L86 653L162 700L168 695Q182 625 209 569Q253 645 264 695L269 700L345 653L344 646Q305 621 246 553Q337 562 375 574L382 573L381
482L374 480Q322 503 244 512Q295 448 342 416L345 409L269 361L264 366Q256 407 209 490Q180 427 168 367L162 361L87 408L89 415Q136 456 174 511Q88 501 45 481Z" />
<glyph unicode="+" glyph-name="plus" horiz-adv-x="600" d="M330 358H558L557 292H330V64H262V292H42L43 359L262 358L263 578L330 577V358Z" />
<glyph unicode="," glyph-name="comma" horiz-adv-x="277" d="M174 112Q197 89 197 33T168 -73T84 -180L32 -159Q66 -107 81 -71T96 6T73 86Q75 92 79 96Q120 113 163 113Q169 113 174 112Z" />
<glyph unicode="-" glyph-name="hyphen" horiz-adv-x="354" d="M38 323Q78 314 128 314L214 315Q236 315 282 317T353 319L323 241H316Q248 250 135 250L1 244L31 323H38Z" />
<glyph unicode="." glyph-name="period" horiz-adv-x="311" d="M225 108Q241 92 241 41Q241 28 239 17L229 9Q180 -6 119 -10L108 -5Q91 27 91 76Q91 81 91 86L101 95Q154 114 204 114Q209 114 214 114L225 108Z" />
<glyph unicode="/" glyph-name="slash" horiz-adv-x="329" d="M273 716L361 734V728Q292 592 95 41Q88 21 74 -23T52 -91L-46 -118V-112Q-16 -53 70 166T191 479L273 716Z" />
<glyph unicode="0" glyph-name="zero" horiz-adv-x="675" d="M213 -12T142 89T70 355T149 617T353 714T541 616T605 360T533 95T347 -12Q213 -12 142 89ZM499 334Q499 643 328 643Q297 643 269 634T228 612Q206 581 191 514T176 383T184 265T213 162T270 87T360
59Q378 59 405 68T446 92Q471 120 485 191T499 334Z" />
<glyph unicode="1" glyph-name="one" horiz-adv-x="374" d="M251 587V210Q251 65 266 7V0H140V7Q155 65 155 210V509Q155 582 152 607Q84 592 28 589L20 634Q116 651 183 700H255L251 587Z" />
<glyph unicode="2" glyph-name="two" horiz-adv-x="528" d="M345 547Q345 650 254 650Q186 650 84 562Q50 603 45 664Q159 712 255 712T401 670T451 554Q451 445 344 304Q290 233 251 188T144 71Q220 71 250 72Q427 78 478 122L487 115L446 0H58L39 49Q219 242
278 344Q345 459 345 547Z" />
<glyph unicode="3" glyph-name="three" horiz-adv-x="504" d="M459 116T396 53T221 -11T19 40Q19 44 19 47Q19 95 45 124Q142 50 222 50Q283 50 312 69Q358 113 358 210Q358 284 326 315T224 346T128 342H124L107 404H192Q246 404 280 446T314 542Q314 655 228
655Q157 655 78 587Q52 623 46 682Q142 712 238 712Q410 712 410 566Q410 496 375 450T299 391Q459 371 459 215Q459 116 396 53Z" />
<glyph unicode="4" glyph-name="four" horiz-adv-x="566" d="M410 191Q410 64 421 7V0H308V7Q317 63 319 181V191Q73 191 39 190L16 238Q120 429 293 700L412 712Q408 624 408 264Q429 264 466 267T513 270L497 191H410ZM321 262V630Q146 345 100 259Q108 259 321 262Z" />
<glyph unicode="5" glyph-name="five" horiz-adv-x="538" d="M446 569Q385 628 251 632H201Q187 585 158 425Q289 417 329 409T409 380Q490 340 490 224Q490 123 422 56T242 -12T14 51Q17 71 30 100T56 141Q167 54 267 54Q318 54 350 70Q368 93 378 133T389 210Q389
337 216 350L99 359L81 380Q94 491 131 698L434 703L457 569H446Z" />
<glyph unicode="6" glyph-name="six" horiz-adv-x="594" d="M348 449Q418 449 474 406Q502 383 519 340T537 239Q537 129 477 59T307 -11T134 60T70 279Q70 563 324 677Q386 705 437 712L447 667Q327 630 266 559T184 380Q253 449 348 449ZM176 252Q176 146 205
97T311 47Q368 47 392 64Q431 116 431 206T400 336T317 375Q248 375 178 321Q176 279 176 252Z" />
<glyph unicode="7" glyph-name="seven" horiz-adv-x="443" d="M221 700L449 701L450 697Q429 657 334 394T217 -3H75L74 4Q225 277 355 626Q313 630 259 630Q116 630 57 571H46L21 703Q135 700 221 700Z" />
<glyph unicode="8" glyph-name="eight" horiz-adv-x="574" d="M397 542Q397 661 287 661Q248 661 218 647Q185 615 185 551Q185 509 214 477T328 398Q397 448 397 542ZM158 191Q158 56 293 56Q347 56 377 69Q416 99 416 163Q416 209 381 244T250 331Q158 291 158
191ZM522 181Q522 90 456 39T288 -12T119 37T52 179Q52 253 94 297T198 363Q143 400 117 438T91 534Q91 620 146 666T290 712T435 673T491 548Q491 482 460 441T376 367Q457 317 489 280T522 181Z" />
<glyph unicode="9" glyph-name="nine" horiz-adv-x="595" d="M121 280Q92 304 75 348T58 453Q58 569 119 640T289 711T461 639T525 413Q525 184 378 71Q297 9 160 -11L148 33Q198 42 248 69T335 139T405 288Q335 236 256 236T121 280ZM419 443Q419 551 390 601T284
651Q226 651 203 633Q164 579 164 485T196 352T290 312T414 348Q419 396 419 443Z" />
<glyph unicode=":" glyph-name="colon" horiz-adv-x="333" d="M204 462T214 456Q229 442 229 394Q229 382 228 373L219 364Q169 351 117 347L106 352Q91 382 91 425Q91 431 91 436L100 445Q154 462 199 462Q204 462 214 456ZM232 99Q247 85 247 37Q247 25 246
16L237 7Q187 -6 135 -10L124 -5Q109 25 109 68Q109 74 109 79L118 88Q172 105 217 105Q222 105 232 99Z" />
<glyph unicode=";" glyph-name="semicolon" horiz-adv-x="315" d="M217 -7T198 -48T160 -113T104 -180L52 -159Q54 -155 64 -140T76 -121T85 -105T94 -88T100 -72T106 -53T110 -33Q113 -16 113 13T93 86L99 96Q140 113 183 113Q189 113 194 112Q217 89 217 41ZM182
451Q197 437 197 389Q197 377 196 368L187 359Q137 346 85 342L74 347Q59 377 59 420Q59 426 59 431L68 440Q122 457 167 457Q172 457 182 451Z" />
<glyph unicode="&lt;" glyph-name="less" horiz-adv-x="536" d="M526 115V45L10 287V357L526 600V529L92 322L526 115Z" />
<glyph unicode="=" glyph-name="equal" horiz-adv-x="536" d="M526 446L525 380H10L11 447L526 446ZM526 279L525 213H10L11 280L526 279Z" />
<glyph unicode="&gt;" glyph-name="greater" horiz-adv-x="534" d="M9 45V115L443 322L9 529V600L525 357V287L9 45Z" />
<glyph unicode="?" glyph-name="question" horiz-adv-x="430" d="M297 534Q297 634 203 634Q138 634 69 577Q45 620 45 673Q45 679 45 685Q118 712 206 712T343 671T393 548Q393 499 374 454T330 379T273 325Q229 291 199 277Q199 272 199 254T210 200V193Q190
189 167 189T120 193V200Q131 247 131 266T130 291L142 300Q206 345 251 407T297 534ZM212 85Q225 72 225 28Q225 18 224 10L216 2Q182 -8 140 -11L130 -7Q118 18 118 37T120 68L128 76Q161 87 203 90L212 85Z" />
<glyph unicode="@" glyph-name="at" horiz-adv-x="806" d="M389 -43Q242 -43 139 54T35 318T140 599T426 713Q588 713 678 622T769 410T699 211T537 132T445 214Q445 238 449 261L446 260Q341 132 270 132Q205 132 205 241Q205 316 234 386T327 505T478 555Q544
555 584 541L516 295Q506 259 506 229Q506 185 546 185Q611 185 658 249T705 392T673 522T592 602Q493 657 394 657Q332 657 275 637Q119 542 119 336Q119 177 201 95T405 12Q496 12 596 64L617 31Q514 -43 389 -43ZM498 495Q476 508 440 508T373 495Q323 432 301
342Q288 290 288 253Q288 201 317 201Q341 201 397 255T463 355L498 495Z" />
<glyph unicode="A" glyph-name="A" horiz-adv-x="573" d="M334 245T261 245T150 244Q122 132 116 96T109 17V0H-27V10Q18 45 93 287T191 605T216 701L333 713Q333 678 396 495T497 211T557 72T604 10V0H436V17Q436 53 427 84T414 124L374 244Q334 245 261 245ZM258
626Q238 573 162 301H357Q339 356 304 474T258 626Z" />
<glyph unicode="B" glyph-name="B" horiz-adv-x="660" d="M306 52Q384 52 432 95T480 211T434 320T279 359L230 360Q230 110 234 61Q264 52 306 52ZM230 411H309Q445 411 445 532Q445 595 412 623T321 652T232 649Q230 634 230 411ZM170 698L332 700Q546 700 546
560Q546 504 518 465T449 403Q492 395 536 360Q562 341 577 304T593 218Q593 143 557 93T464 21T320 -2L201 3L108 0V7Q127 58 127 150V540Q127 640 111 693V700L170 698Z" />
<glyph unicode="C" glyph-name="C" horiz-adv-x="658" d="M162 375Q162 231 231 151T404 71Q479 71 603 139L630 98Q584 64 559 49T501 18Q436 -13 362 -13Q232 -13 141 84T49 344T155 609T418 712Q523 712 615 664Q603 601 573 558Q470 641 350 641Q314 641 280
634Q229 596 196 531T162 375Z" />
<glyph unicode="D" glyph-name="D" horiz-adv-x="754" d="M166 698Q351 701 354 701Q531 701 618 621T705 373Q705 268 672 186Q597 0 357 0L167 1H108V8Q124 70 124 211V490Q124 631 108 693V700L166 698ZM353 68Q474 68 526 99Q592 174 592 343T532 577T328
641Q325 641 229 640Q227 602 227 394V334Q227 104 231 74Q291 68 353 68Z" />
<glyph unicode="E" glyph-name="E" horiz-adv-x="573" d="M480 628Q421 643 338 643T231 641Q229 603 229 395L467 400L438 331H431Q363 339 323 339T229 336Q229 93 233 63Q256 60 309 60Q466 60 538 92H545L527 0H108V7Q124 69 124 210V490Q124 631 108 693V700L512
703L487 628H480Z" />
<glyph unicode="F" glyph-name="F" horiz-adv-x="530" d="M422 320Q368 328 316 328T227 326V211Q227 69 243 7V0H108V7Q124 69 124 210V489Q124 630 108 692V699L513 702L488 626H481Q418 642 336 642T231 640Q227 610 227 387L461 392L429 320H422Z" />
<glyph unicode="G" glyph-name="G" horiz-adv-x="707" d="M626 273Q626 135 633 78Q490 -12 356 -12T136 83T49 336T144 603T398 712Q525 712 640 626Q603 587 545 551Q477 641 346 641Q291 641 259 631Q162 549 162 367Q162 62 399 62Q484 62 525 88Q537 150
537 266H406L448 332Q527 326 585 326T684 328L656 273H626Z" />
<glyph unicode="H" glyph-name="H" horiz-adv-x="767" d="M541 336L383 337Q284 337 226 336V209Q226 172 230 101T241 7V0H108V7Q123 65 123 210V490Q123 635 108 693V700H241V693Q235 670 231 599T226 490V399H541V490Q541 527 537 598T526 693V700H659V693Q644
635 644 490V210Q644 65 659 7V0H526V7Q532 30 536 101T541 209V336Z" />
<glyph unicode="I" glyph-name="I" horiz-adv-x="349" d="M226 480V210Q226 173 230 102T241 7V0H108V7Q123 65 123 220V490Q123 635 108 693V700H241V693Q235 670 231 594T226 480Z" />
<glyph unicode="J" glyph-name="J" horiz-adv-x="356" d="M130 199V490Q130 643 113 693V700H248V693Q233 645 233 490V156Q233 73 214 -14Q206 -54 164 -121Q154 -137 128 -161Q98 -189 23 -247L-13 -213Q1 -204 33 -174Q93 -120 111 -45T130 199Z" />
<glyph unicode="K" glyph-name="K" horiz-adv-x="610" d="M649 0H485Q450 43 226 346V210Q226 173 230 102T241 7V0H108V7Q123 65 123 210V489Q123 635 108 693V700H241V693Q235 670 231 598T226 489V369L389 580Q453 663 453 700H579V690Q537 683 462 585L307
385L437 217Q515 117 564 69T649 10V0Z" />
<glyph unicode="L" glyph-name="L" horiz-adv-x="523" d="M108 0V7Q123 65 123 210V490Q123 635 108 693V700H241V693Q235 669 231 597T226 487V206Q226 140 232 63Q254 60 312 60Q465 60 536 92H543L525 0H108Z" />
<glyph unicode="M" glyph-name="M" horiz-adv-x="889" d="M75 10Q112 290 112 563Q112 644 107 692V702L246 713Q252 674 270 618Q304 510 447 96Q529 345 574 504T626 700L774 715V705Q773 678 773 608T784 349T820 7V0H690V17Q692 105 692 183T689 328T682 443T674
526T669 578Q640 492 579 300T489 1L380 -9Q380 37 219 492Q188 580 185 586Q185 585 183 548Q172 343 172 235T174 17V0H75V10Z" />
<glyph unicode="N" glyph-name="N" horiz-adv-x="710" d="M173 0H72V7Q87 73 87 239V463Q87 617 74 693V700L195 709L545 165V490Q545 543 539 605T524 693V700H629V693Q614 627 614 461V210Q614 150 618 82T627 0L533 -10L155 575V210Q155 77 173 7V0Z" />
<glyph unicode="O" glyph-name="O" horiz-adv-x="753" d="M220 -12T135 89T49 344T146 606T396 714Q495 714 566 665Q704 570 704 368Q704 203 607 96T365 -12ZM591 341Q591 469 543 550Q490 641 365 641Q277 641 227 610Q198 574 180 509T162 362T183 215T258
104T392 59T524 92Q591 167 591 341Z" />
<glyph unicode="P" glyph-name="P" horiz-adv-x="623" d="M170 698L327 700Q585 700 585 509Q585 399 510 338T316 277Q275 277 230 286V135Q230 53 249 6V0H108V7Q127 58 127 150V533Q127 638 111 693V700L170 698ZM472 499Q472 649 328 649Q255 649 232 646Q230
619 230 470V333Q269 322 311 322Q390 322 431 368T472 499Z" />
<glyph unicode="Q" glyph-name="Q" horiz-adv-x="752" d="M220 -12T135 88T49 344T146 607T392 714T622 616T704 365Q704 175 571 62Q659 -20 723 -53L724 -59L612 -99Q554 -28 508 21Q440 -12 363 -12Q220 -12 135 88ZM591 344Q591 465 546 547Q521 591 475 616T353
641T227 610Q162 528 162 362Q162 239 210 154Q235 109 283 83T399 56Q434 56 465 65Q440 91 370 156V160L439 190Q470 153 530 99Q591 187 591 344Z" />
<glyph unicode="R" glyph-name="R" horiz-adv-x="641" d="M174 698L323 700Q563 700 563 527Q563 443 508 387T360 319L475 174Q547 83 583 50T645 10V0H481Q462 31 421 89L259 316L230 318V161Q230 56 245 7V0H108V7Q127 58 127 150V538Q127 642 112 693V700Q112
700 174 698ZM310 649Q262 649 233 645Q230 623 230 367Q266 363 299 363Q383 363 417 401T452 515T420 620T310 649Z" />
<glyph unicode="S" glyph-name="S" horiz-adv-x="562" d="M173 632Q152 605 152 567T171 503T221 462T289 430T363 396T431 353T481 288T500 194Q500 93 435 41T257 -11T54 53Q57 119 90 168Q130 120 187 89T296 58T385 81Q410 111 410 160T385 240T322 288T240
327T158 371T95 434T69 530Q69 622 131 667T288 712T482 666Q471 607 446 554Q405 595 352 621T250 648T173 632Z" />
<glyph unicode="T" glyph-name="T" horiz-adv-x="487" d="M-10 614Q-10 659 -15 703Q186 700 243 700T502 703Q495 642 495 614H488Q377 642 299 644Q294 592 294 483V208Q294 73 309 7V0H178V7Q191 72 191 204V479Q191 592 186 644Q110 642 -3 614H-10Z" />
<glyph unicode="U" glyph-name="U" horiz-adv-x="701" d="M609 501V311Q609 129 550 59T352 -12T150 56T88 275V486Q88 635 73 693V700H203V693Q190 608 190 455V321Q190 153 234 104Q276 57 364 57T495 87Q521 129 528 202T535 442T520 693V700H624V693Q618 669
614 603T609 501Z" />
<glyph unicode="V" glyph-name="V" horiz-adv-x="623" d="M484 700H630V690Q580 651 496 399Q391 68 372 -1L250 -13Q250 20 186 214Q40 659 -5 690V700H158V683Q158 630 199 498L330 75Q419 382 427 412T445 478Q470 566 476 600T484 683V700Z" />
<glyph unicode="W" glyph-name="W" horiz-adv-x="953" d="M826 683V700H961V690Q890 538 804 194Q761 25 754 -1L626 -13Q626 42 521 410Q517 424 512 443T499 494T483 552H481Q474 525 459 478T412 317T365 142T327 -1L199 -13Q199 35 69 492Q38 601 25 636T-4
690V700H145V683Q145 617 176 498L282 75Q375 389 410 590Q422 661 423 700H546Q556 605 608 420Q627 353 706 75Q710 94 736 186Q826 513 826 683Z" />
<glyph unicode="X" glyph-name="X" horiz-adv-x="593" d="M281 302Q129 73 129 -1L-14 0V10Q37 39 103 143Q214 312 240 355L161 488Q56 665 3 690V700H177V689Q177 655 200 609Q223 560 302 430Q358 514 385 567Q434 661 434 700H578V690Q545 669 522 641T428
508T342 378L425 245Q499 121 535 74T602 10V0H425V8Q425 41 391 104Q342 193 321 233L281 302Z" />
<glyph unicode="Y" glyph-name="Y" horiz-adv-x="511" d="M277 348Q404 623 404 683V700H520V690Q479 660 311 290V210Q311 175 315 103T325 7V0H197V7Q211 68 211 183V293L115 482Q16 671 -15 690V700H133V683Q133 644 165 574T214 470T234 429Q247 409 277 348Z" />
<glyph unicode="Z" glyph-name="Z" horiz-adv-x="514" d="M124 63Q147 60 233 60T400 69T512 92H519L501 0H25L-4 51L384 638Q361 641 288 641T144 630T38 602H31L48 698L475 705L509 645L124 63Z" />
<glyph unicode="[" glyph-name="bracketleft" horiz-adv-x="431" d="M203 -135Q273 -135 319 -116H326L356 -176L95 -173L96 757L356 760L326 700H319Q275 718 204 718H177V-42Q177 -90 180 -135H203Z" />
<glyph unicode="\" glyph-name="backslash" horiz-adv-x="291" d="M-72 654L-26 731L-21 727Q33 582 303 65Q310 52 333 12T370 -56L324 -146L320 -142Q296 -81 196 129T47 433L-72 654Z" />
<glyph unicode="]" glyph-name="bracketright" horiz-adv-x="431" d="M228 -135H251Q254 -90 254 -42V718H227Q156 718 112 700H105L75 760L335 757L336 -173L75 -176L105 -116H112Q158 -135 228 -135Z" />
<glyph unicode="^" glyph-name="asciicircum" horiz-adv-x="602" d="M272 682H336L484 379H403L302 592L196 379H118L272 682Z" />
<glyph unicode="_" glyph-name="underscore" horiz-adv-x="560" d="M536 -138H24V-82H536V-138Z" />
<glyph unicode="`" glyph-name="grave" horiz-adv-x="500" d="M319 530Q230 579 132 674Q157 715 200 732Q254 636 342 556L319 530Z" />
<glyph unicode="a" glyph-name="a" horiz-adv-x="504" d="M330 200Q289 215 236 215T158 198Q143 175 143 137T164 76T216 54T281 70T330 106V200ZM346 56Q285 -11 209 -11T89 22T45 128T96 234T242 266L330 263V320Q330 373 304 406T225 439Q186 438 100 364Q71
401 59 460Q158 492 241 492T374 449T424 327V159Q425 114 438 76T474 22L476 12L369 -14Q356 18 346 56Z" />
<glyph unicode="b" glyph-name="b" horiz-adv-x="588" d="M191 88Q257 54 315 54T394 66Q411 86 424 142T437 250Q437 417 333 417Q275 417 191 360V88ZM191 654V417Q274 491 356 491T491 426T544 268Q544 151 473 70T310 -11T86 31V37Q97 67 97 174V587Q97 666
50 711V723L188 747L194 737Q191 708 191 654Z" />
<glyph unicode="c" glyph-name="c" horiz-adv-x="490" d="M188 404T169 355T150 237T177 117T265 66Q305 66 358 84T428 116L453 77Q325 -11 259 -11Q159 -11 102 57T44 235T118 419T288 493T447 450Q408 388 396 375Q328 427 266 427Q243 427 221 424Q188 404 169 355Z" />
<glyph unicode="d" glyph-name="d" horiz-adv-x="571" d="M255 -11Q151 -11 100 59T49 237T114 418T280 492Q336 492 391 473V587Q391 667 345 711V723L482 747L488 737Q485 708 485 654V159Q485 114 499 74T535 18L537 8L428 -18Q418 7 403 64Q326 -11 255 -11ZM208
93Q237 63 287 63T391 111V393Q339 431 261 431Q216 431 192 413Q155 354 155 250T208 93Z" />
<glyph unicode="e" glyph-name="e" horiz-adv-x="494" d="M267 -11Q162 -11 103 54T44 225T110 412T274 492Q453 492 453 271L416 235H150Q150 151 186 109T283 67Q307 67 351 81T429 116L454 78Q435 59 372 24T267 -11ZM256 442Q214 442 191 423Q172 397 161
357T150 287L355 295Q355 442 256 442Z" />
<glyph unicode="f" glyph-name="f" horiz-adv-x="357" d="M63 484L120 481V541Q120 626 159 683T282 740T449 702Q423 639 406 614Q335 678 276 678Q257 678 235 669Q214 642 214 538V480Q287 481 359 488L332 415Q273 424 214 426V193Q214 146 223 89T243 7V0H103V7Q120
57 120 170V426L40 423L63 484Z" />
<glyph unicode="g" glyph-name="g" horiz-adv-x="518" d="M185 146T171 132T157 110T161 96T175 87T195 81T222 75T253 70T290 65T328 59Q417 46 457 22T497 -59Q497 -140 422 -184T243 -228Q168 -228 106 -204Q71 -190 50 -164T29 -99Q29 -20 122 19Q72 40 72
83T157 173Q69 218 69 320Q69 400 122 444T251 489T373 463Q409 463 491 471L518 414L427 416Q453 377 453 324Q453 243 400 197T263 151Q233 151 206 157Q185 146 171 132ZM162 1Q93 -24 93 -78T148 -158T267 -185Q345 -185 387 -150Q412 -130 412 -99Q412 -73
389 -55Q369 -39 274 -22Q254 -18 214 -10T162 1ZM182 257Q208 201 269 201Q311 201 327 215Q355 247 355 313T334 409T265 439T194 426Q167 389 167 339T182 257Z" />
<glyph unicode="h" glyph-name="h" horiz-adv-x="599" d="M187 545V408Q225 437 245 451T298 478T360 492Q434 492 474 446T514 314V170Q514 75 544 7V0H403V7Q420 57 420 140V293Q420 351 403 380T330 410T190 359V170Q190 73 219 7V0H79V7Q96 57 96 140V587Q96
667 50 711V723L184 747L190 737Q187 708 187 545Z" />
<glyph unicode="i" glyph-name="i" horiz-adv-x="265" d="M97 139V333Q97 422 47 457V469L188 493L194 483Q191 454 191 400V164Q191 64 216 7V0H81V7Q97 54 97 139ZM181 708Q195 696 195 650Q195 639 194 630L186 623Q146 612 91 607L82 611Q67 637 67 680Q67
685 67 690L75 697Q123 713 167 713Q172 713 181 708Z" />
<glyph unicode="j" glyph-name="j" horiz-adv-x="251" d="M167 712T176 707Q190 694 190 649Q190 638 189 629L181 622Q141 611 86 606L77 610Q62 636 62 679Q62 684 62 689L70 696Q118 712 162 712Q167 712 176 707ZM186 398V110Q186 -42 143 -112Q120 -150 102
-169T62 -207Q62 -208 15 -248L-21 -215Q53 -169 76 -70Q92 -1 92 149V330Q92 421 36 457V469L183 493L189 483Q186 453 186 398Z" />
<glyph unicode="k" glyph-name="k" horiz-adv-x="534" d="M206 0H79V12Q96 62 96 170V587Q96 667 50 711V723L187 747L193 737Q190 708 190 654V302L360 444Q388 467 388 480H503V468Q484 466 409 406L267 284L392 150Q461 74 491 48T549 12V0H400Q400 2 190 252V170Q190
59 206 12V0Z" />
<glyph unicode="l" glyph-name="l" horiz-adv-x="264" d="M208 0H79V12Q96 62 96 170V587Q96 667 50 711V723L187 747L193 737Q190 708 190 545L191 170Q191 62 208 12V0Z" />
<glyph unicode="m" glyph-name="m" horiz-adv-x="874" d="M492 321V140Q492 60 507 7V0H383V7Q398 60 398 140V300Q398 357 383 383T323 410T202 359V170Q202 73 231 7V0H91V7Q108 57 108 140V310Q108 353 91 394T50 450L49 462L180 493L186 483Q194 446 198 408Q234
439 249 451T293 478T347 492Q450 492 480 403Q583 492 641 492Q711 492 750 446T789 314V170Q789 75 819 7V0H678V7Q695 57 695 140V293Q695 410 622 410Q561 410 490 358Q492 334 492 321Z" />
<glyph unicode="n" glyph-name="n" horiz-adv-x="605" d="M369 492Q441 492 480 446T520 314V170Q520 75 550 7V0H409V7Q426 57 426 140V293Q426 351 409 380T338 410T202 359V170Q202 73 231 7V0H91V7Q108 57 108 140V310Q108 353 91 394T50 450L49 462L180 493L186
483Q194 446 198 408Q235 437 255 451T308 478T369 492Z" />
<glyph unicode="o" glyph-name="o" horiz-adv-x="562" d="M166 -12T105 54T44 228T115 414T293 492T459 427T518 253T447 66T271 -12ZM412 228Q412 327 381 381T271 435Q220 435 191 413Q173 390 162 343T150 253Q150 44 298 44Q344 44 373 65Q392 88 402 136T412 228Z" />
<glyph unicode="p" glyph-name="p" horiz-adv-x="588" d="M328 53Q373 53 394 65Q410 84 423 141T436 251Q436 418 335 418Q271 418 195 365V95Q258 53 328 53ZM101 -100V314Q101 358 87 396T50 449L49 461L186 493L192 483Q190 460 190 418Q273 492 355 492T490
427T543 269Q543 153 474 71T317 -12Q259 -12 195 10V-58Q197 -178 236 -226V-231L98 -246Q101 -206 101 -100Z" />
<glyph unicode="q" glyph-name="q" horiz-adv-x="547" d="M398 -61V64Q321 -11 250 -11Q146 -11 95 59T44 237T109 418T275 492Q346 492 413 454L470 489Q486 491 498 487Q493 432 493 342V-100Q493 -206 496 -246L357 -238V-233Q398 -183 398 -61ZM202 93Q232
63 275 63Q300 63 333 75T392 111V393Q340 431 256 431Q211 431 187 413Q150 354 150 250T202 93Z" />
<glyph unicode="r" glyph-name="r" horiz-adv-x="377" d="M338 492Q369 492 384 485Q384 479 384 473Q384 414 366 366Q321 395 264 395Q233 395 202 384V170Q202 73 231 7V0H91V7Q108 57 108 140V310Q108 353 91 394T50 450L49 462L167 493Q183 466 193 430Q253
492 338 492Z" />
<glyph unicode="s" glyph-name="s" horiz-adv-x="458" d="M161 429Q143 411 143 380T163 331T213 305T279 285T344 260T395 216T415 143Q415 67 359 28T212 -11T49 36Q52 87 79 127Q169 45 243 45Q275 45 300 58Q324 79 324 114T297 169T230 200T152 225T86 269T58
347Q58 417 110 454T243 492T400 458Q391 414 365 370Q294 441 217 441Q184 441 161 429Z" />
<glyph unicode="t" glyph-name="t" horiz-adv-x="369" d="M202 112Q202 59 234 59Q261 59 325 91L346 56Q314 34 266 12T178 -11T123 14T108 86V423L18 418L42 483Q60 481 106 479Q104 529 100 569L202 595V480Q256 482 349 492L321 414Q267 422 202 424V112Z" />
<glyph unicode="u" glyph-name="u" horiz-adv-x="602" d="M236 -11Q152 -11 119 32T85 167V310Q85 405 55 473V480H194V473Q179 420 179 340V183Q179 123 194 97T267 71T403 126V310Q403 407 374 473V480H512V473Q497 420 497 340V171Q497 127 512 85T547 28L548
16L431 -12Q414 34 407 76Q358 34 318 12T236 -11Z" />
<glyph unicode="v" glyph-name="v" horiz-adv-x="454" d="M130 476Q130 447 170 325L245 94L329 347Q350 413 350 468V480H455V468Q428 443 403 371L290 44L276 -7L183 -11L166 46L47 375Q19 446 -6 463V475L130 488V476Z" />
<glyph unicode="w" glyph-name="w" horiz-adv-x="763" d="M254 106Q332 330 352 411Q332 458 323 465V477L452 484V472Q452 443 503 293L568 101Q634 304 645 347Q666 417 666 468V480H764V468Q739 445 716 371L616 44L603 -9L509 -11L492 46L389 313L299 44L288
-9L193 -11L176 46L45 375Q17 448 -6 463V475L138 487V475Q138 440 187 300L254 106Z" />
<glyph unicode="x" glyph-name="x" horiz-adv-x="488" d="M334 480H468V468Q447 461 415 429T353 350L290 254L364 156Q461 27 491 12V0H324V12Q319 61 287 104L227 184L168 93Q136 43 134 12V0H0V12Q14 18 47 47T106 115L186 240L104 352Q75 392 44 426T-1 468V480H150V468Q152
440 197 380L249 309L300 387Q332 437 334 468V480Z" />
<glyph unicode="y" glyph-name="y" horiz-adv-x="450" d="M254 92Q350 385 350 440Q350 457 343 468V480H450V468Q435 455 287 10Q216 -198 206 -238V-246L82 -255L81 -248Q154 -161 209 -14Q203 3 36 398Q16 445 -7 464V476L127 487V475Q127 449 151 375T254 92Z" />
<glyph unicode="z" glyph-name="z" horiz-adv-x="426" d="M402 431L136 59Q300 59 391 88L402 83L374 0H39L15 48L282 420Q177 420 134 415T56 392L45 399L65 483L377 480L402 431Z" />
<glyph unicode="{" glyph-name="braceleft" horiz-adv-x="414" d="M216 103V29Q216 -71 236 -98Q259 -130 297 -130T372 -126L379 -160Q327 -173 288 -173T220 -162T175 -132T149 -84Q135 -36 135 46V139Q135 201 104 231Q82 252 53 268V275Q77 290 90 300T120
341T136 412V537Q136 669 172 712Q209 756 287 756Q326 756 378 743L371 709Q335 713 304 713T255 702T228 666Q216 629 216 559V436Q216 359 184 321Q168 302 158 294T128 274V271Q216 224 216 103Z" />
<glyph unicode="|" glyph-name="bar" horiz-adv-x="227" d="M147 600V-147L74 -177L73 702V709L154 739Q147 644 147 600Z" />
<glyph unicode="}" glyph-name="braceright" horiz-adv-x="415" d="M199 29V103Q199 224 287 271V274Q267 286 257 294T231 321Q199 359 199 436V559Q199 629 189 659T161 701T111 713T44 709Q42 713 35 737L36 743Q88 756 129 756T199 743T243 712T267 660Q279
612 279 537V412Q279 372 295 342T324 301T362 275V268Q302 236 288 193Q280 170 280 139V46Q280 -86 244 -128Q207 -173 129 -173Q89 -173 37 -160L36 -154Q43 -130 45 -126Q81 -130 109 -130T154 -121T179 -99T192 -62Q199 -27 199 29Z" />
<glyph unicode="~" glyph-name="asciitilde" horiz-adv-x="640" d="M422 222Q389 222 321 246T221 270Q167 270 112 231L80 297Q162 340 215 340Q246 340 317 316T421 291Q476 291 528 327L560 262Q484 222 422 222Z" />
<glyph unicode="&#xa1;" glyph-name="exclamdown" horiz-adv-x="268" d="M170 314Q169 306 169 261T171 126T174 6T176 -43T178 -77T180 -107Q187 -177 218 -199V-209L81 -233L75 -223Q81 -178 99 301L170 314ZM179 419Q179 415 179 411L171 403Q120 390 87 388L77
392Q64 420 64 458Q64 463 64 468L72 476Q119 491 154 491Q158 491 167 486Q179 456 179 419Z" />
<glyph unicode="&#xa2;" glyph-name="cent" horiz-adv-x="486" d="M153 -10T97 58T40 230T101 404T252 490Q252 540 248 584L303 610L307 603Q300 543 300 493Q386 489 443 450Q404 388 392 375Q346 410 300 422V70Q337 77 374 92T424 116L449 77L444 73Q362 15
300 -3Q300 -80 304 -115L245 -131L241 -124Q250 -63 251 -11Q153 -10 97 58ZM184 404T165 355T146 238T171 121T252 66V427Q241 427 217 424Q184 404 165 355Z" />
<glyph unicode="&#xa3;" glyph-name="sterling" horiz-adv-x="492" d="M191 211Q191 251 152 350H150Q85 350 16 344L41 408H48Q89 399 129 399Q88 477 88 531Q88 602 148 657T307 712T463 675Q427 620 419 611Q358 656 296 656Q274 656 254 653Q227 637 211 603T194
531T227 400Q248 400 294 402T363 404L338 341H331Q293 346 248 348Q279 273 279 234Q279 152 173 60Q371 60 461 121H471L444 0H14L48 50Q118 65 154 108T191 211Z" />
<glyph unicode="&#xa4;" glyph-name="currency" horiz-adv-x="553" d="M390 191Q340 155 277 155T162 192L106 130L45 156L122 228Q80 287 80 350T122 473Q117 478 88 505T45 546L106 571L163 509Q210 546 275 546T390 510L447 572L508 547L429 473H430Q472 419
472 350T429 228L508 154L447 129L390 191ZM329 221T365 259T402 351T366 444T275 482T186 444T150 352T185 259T275 221Z" />
<glyph unicode="&#xa5;" glyph-name="yen" horiz-adv-x="544" d="M294 347Q421 624 421 683V700H537V690Q511 671 458 564Q449 545 420 488Q356 363 329 306H405Q449 306 544 313L521 245H328V210Q328 175 332 103T342 7V0H214V7Q228 68 228 183V245H149Q104 245
10 238L37 306H222L132 482Q33 671 2 690V700H150V683Q150 644 182 574T231 470T252 429Q262 412 294 347Z" />
<glyph unicode="&#xa6;" glyph-name="brokenbar" horiz-adv-x="227" d="M147 233V-118L74 -148L73 233H147ZM147 368H73V713L154 743Q147 648 147 604V368Z" />
<glyph unicode="&#xa7;" glyph-name="section" horiz-adv-x="566" d="M329 -101Q329 24 275 106Q237 163 160 238Q129 267 104 298Q47 369 47 466Q47 586 122 651T289 717T457 684Q455 632 425 587Q361 658 284 658Q250 658 222 647Q222 542 280 470Q305 439 336
411T398 353T455 292Q513 219 513 110Q513 -19 440 -99T265 -179Q219 -179 166 -162T73 -115Q76 -54 105 -15Q192 -114 285 -114Q309 -114 329 -109Q329 -105 329 -101ZM382 262Q359 292 331 319T273 376T220 437Q168 508 168 620Q117 575 117 482Q117 397 172
332Q197 304 226 275T284 213T336 142Q385 62 385 -63Q385 -72 385 -81Q436 -21 436 86T382 262Z" />
<glyph unicode="&#xa8;" glyph-name="dieresis" horiz-adv-x="500" d="M404 687Q411 679 414 658T418 625T417 607L409 600Q372 588 335 585H323L313 588Q298 618 298 668L308 676Q344 689 379 691H396L404 687ZM188 678Q195 670 198 649T202 616T201 598L193
591Q157 579 120 576H107L97 579Q82 609 82 658L92 667Q130 680 164 682H180L188 678Z" />
<glyph unicode="&#xa9;" glyph-name="copyright" horiz-adv-x="758" d="M524 711T625 608T727 356T627 104T381 -1T134 103T31 355T133 606T380 711ZM497 56T582 143T667 354T584 566T381 654T178 566T94 355T178 144T379 56ZM325 488T311 450T296 360T318 268T387
229Q419 229 462 243T517 267L536 237Q436 170 380 170Q298 170 251 222T203 358T265 498T404 555T531 522Q501 475 491 465Q435 505 388 505Q371 505 351 502Q325 488 311 450Z" />
<glyph unicode="&#xaa;" glyph-name="ordfeminine" horiz-adv-x="355" d="M213 528Q190 537 160 537T115 526Q107 510 107 491Q107 443 150 443Q166 443 185 453T213 475V528ZM223 438Q179 399 133 399T58 420T29 488Q29 575 157 575L214 573V605Q214 635 199
654T155 673T66 617Q40 650 37 687Q108 709 164 709T254 683T288 607V505Q288 442 318 420L320 413L237 398Q228 417 223 438Z" />
<glyph unicode="&#xab;" glyph-name="guillemotleft" horiz-adv-x="574" d="M67 268L63 283Q112 314 120 321L269 456L306 421L286 398L169 272L306 122L268 85Q264 89 256 98Q237 118 227 126L102 238L67 268ZM273 268L269 283Q318 314 326 321L475 456L512 421L492
398L375 272L512 122L474 85Q470 89 462 98Q443 118 433 126L308 238L273 268Z" />
<glyph unicode="&#xac;" glyph-name="logicalnot" horiz-adv-x="569" d="M565 142H495V359H4V427H565V142Z" />
<glyph unicode="&#xad;" glyph-name="uni00AD" horiz-adv-x="354" d="M38 323Q78 314 128 314L214 315Q236 315 282 317T353 319L323 241H316Q248 250 135 250L1 244L31 323H38Z" />
<glyph unicode="&#xae;" glyph-name="registered" horiz-adv-x="758" d="M524 711T625 608T727 356T627 104T381 -1T134 103T31 355T133 606T380 711ZM497 56T582 143T667 354T584 566T381 654T178 566T94 355T178 144T379 56ZM274 550L389 551Q456 551 495 533T534
465T501 384T419 347L481 269Q543 191 574 181V176H460Q436 210 345 345Q333 345 325 347V263Q325 203 332 180V176H231V180Q242 208 242 258V465Q242 523 233 548V551L274 550ZM443 493T426 508T373 524T326 522Q325 510 325 372Q338 371 362 371Q407 371 425
391T443 452Z" />
<glyph unicode="&#xaf;" glyph-name="overscore" horiz-adv-x="500" d="M387 597H113V674H387V597Z" />
<glyph unicode="&#xb0;" glyph-name="degree" horiz-adv-x="361" d="M118 707T180 707T282 668T322 567T284 464T183 424T80 462T39 563T78 666ZM85 519T111 499T190 479T267 504Q277 525 277 554Q277 652 174 652Q120 652 95 625Q85 604 85 562Z" />
<glyph unicode="&#xb1;" glyph-name="plusminus" horiz-adv-x="600" d="M330 448H558L557 382H330V162H262V382H42L43 449L262 448L263 668L330 667V448ZM558 77L557 11H42L43 78L558 77Z" />
<glyph unicode="&#xb2;" glyph-name="twosuperior" horiz-adv-x="361" d="M181 668Q158 668 126 645T71 596Q41 628 39 675Q113 712 178 712T276 687T309 623T293 547T243 468Q191 405 119 333H183Q293 339 322 364L327 360L303 279H45L33 319Q152 438 186 492Q227
559 227 613T181 668Z" />
<glyph unicode="&#xb3;" glyph-name="threesuperior" horiz-adv-x="338" d="M208 521Q312 507 312 413Q312 354 265 314T148 274T24 308Q24 312 24 315Q24 352 42 371Q101 323 141 323T201 333Q230 356 230 417Q230 456 210 472T149 489T90 486H87L77 528H129Q161
528 182 551T203 606Q203 670 150 670Q101 670 50 612Q30 644 27 688Q97 712 152 712T245 691T283 627T259 556T208 521Z" />
<glyph unicode="&#xb4;" glyph-name="acute" horiz-adv-x="500" d="M355 674Q257 579 168 530L145 556Q233 636 287 732Q330 715 355 674Z" />
<glyph unicode="&#xb5;" glyph-name="mu" horiz-adv-x="605" d="M358 32T319 11T238 -11T163 2Q174 -75 193 -115Q220 -172 269 -201L271 -213L111 -240Q88 -36 88 90V310Q88 405 58 473V480H197V473Q182 420 182 340V183Q182 123 197 97T270 71T406 126V310Q406
407 377 473V480H515V473Q500 420 500 340V171Q500 127 515 85T550 28L551 16L434 -12Q417 34 410 76Q358 32 319 11Z" />
<glyph unicode="&#xb6;" glyph-name="paragraph" horiz-adv-x="660" d="M416 -109V648H327Q324 418 324 141T328 -178L244 -194L240 -187Q251 -110 251 -39V213Q139 214 72 285T5 458T73 627T253 693L647 698L622 634H615Q567 646 489 648V-113Q489 -206 493 -248L409
-264L405 -257Q416 -180 416 -109Z" />
<glyph unicode="&#xb7;" glyph-name="middot" horiz-adv-x="294" d="M206 344Q223 329 223 275Q223 262 221 251L211 242Q161 227 98 223L86 228Q69 261 69 311Q69 317 69 322L79 331Q134 350 185 350Q190 350 195 350L206 344Z" />
<glyph unicode="&#xb8;" glyph-name="cedilla" horiz-adv-x="500" d="M407 -66T430 -84T454 -140T422 -201T345 -224Q322 -224 289 -214T243 -195L259 -163Q293 -180 326 -180Q378 -180 378 -135Q378 -114 366 -102Q351 -95 331 -95T289 -99L283 -90L325 -2L379
-9L343 -68Q353 -65 380 -65Z" />
<glyph unicode="&#xb9;" glyph-name="onesuperior" horiz-adv-x="262" d="M191 631V398Q191 314 200 276V272H102V276Q112 305 112 393V572Q112 614 109 629Q62 618 23 617L16 657Q91 673 129 700H194Q191 649 191 631Z" />
<glyph unicode="&#xba;" glyph-name="ordmasculine" horiz-adv-x="393" d="M121 398T81 439T40 547T86 662T204 710T314 670T353 562T307 446T191 398ZM251 450Q275 480 275 542T257 637T191 669Q159 669 143 657Q118 627 118 562Q118 438 207 438Q235 438 251 450Z" />
<glyph unicode="&#xbb;" glyph-name="guillemotright" horiz-adv-x="574" d="M511 283L507 268L472 238Q334 114 322 102T306 85L268 122L405 272L288 398L268 421L305 456L454 321Q462 314 511 283ZM305 283L301 268L266 238Q128 114 116 102T100 85L62 122L199
272L82 398L62 421L99 456L248 321Q256 314 305 283Z" />
<glyph unicode="&#xbc;" glyph-name="onequarter" horiz-adv-x="774" d="M671 101Q671 39 680 3V0H585V3Q590 29 592 96V101Q510 101 427 101L402 145Q498 309 572 422L672 429Q670 375 670 159Q686 159 716 161T749 163L737 101H671ZM71 -13Q134 50 360 394Q431
501 567 719L649 725L655 718Q587 650 380 330Q264 152 226 93L161 -14L77 -20L71 -13ZM191 631V398Q191 314 200 276V272H102V276Q112 305 112 393V572Q112 614 109 629Q62 618 23 617L16 657Q91 673 129 700H194Q191 649 191 631ZM593 158V373Q531 276 464 156Q507
156 593 158Z" />
<glyph unicode="&#xbd;" glyph-name="onehalf" horiz-adv-x="807" d="M627 389Q604 389 572 366T517 317Q487 349 485 396Q559 433 624 433T722 408T755 344T739 268T689 190Q637 126 565 54H629Q739 60 768 85L773 81L749 0H491L479 40Q598 159 632 213Q673 280
673 334T627 389ZM69 -13Q132 50 358 394Q429 501 565 719L647 725L653 718Q585 650 378 330Q262 152 224 93L159 -14L75 -20L69 -13ZM191 631V398Q191 314 200 276V272H102V276Q112 305 112 393V572Q112 614 109 629Q62 618 23 617L16 657Q91 673 129 700H194Q191
649 191 631Z" />
<glyph unicode="&#xbe;" glyph-name="threequarters" horiz-adv-x="875" d="M772 101Q772 39 781 3V0H686V3Q691 29 693 96V101Q610 101 528 101L503 145Q599 309 673 422L773 429Q771 375 771 159Q787 159 817 161T850 163L838 101H772ZM208 521Q312 507 312
413Q312 354 265 314T148 274T24 308Q24 312 24 315Q24 352 42 371Q101 323 141 323T201 333Q230 356 230 417Q230 456 210 472T149 489T90 486H87L77 528H129Q161 528 182 551T203 606Q203 670 150 670Q101 670 50 612Q30 644 27 688Q97 712 152 712T245 691T283
627T259 556T208 521ZM138 -13Q201 50 427 394Q498 501 634 719L716 725L722 718Q654 650 446 330Q331 152 293 93L228 -14L144 -20L138 -13ZM694 158V373Q632 276 565 156Q608 156 694 158Z" />
<glyph unicode="&#xbf;" glyph-name="questiondown" horiz-adv-x="430" d="M223 135T178 75T133 -42Q133 -154 227 -154Q292 -154 361 -97Q385 -140 385 -193Q385 -199 385 -205Q312 -232 225 -232T87 -190T37 -64Q37 -15 56 30T100 103T157 156Q196 186 231 203Q231
208 231 226T220 280V287Q240 291 263 291T310 287V280Q299 233 299 214T300 189L288 180Q223 135 178 75ZM218 395Q205 408 205 452Q205 462 206 470L214 478Q248 488 290 491L300 487Q312 462 312 443T310 412L302 404Q269 393 227 390L218 395Z" />
<glyph unicode="&#xc0;" glyph-name="Agrave" horiz-adv-x="562" d="M361 784L351 751Q237 760 122 806Q128 852 159 887Q246 821 361 784ZM364 244Q326 245 256 245T148 244Q121 129 115 94T109 17V0H-27V10Q16 43 89 280Q208 664 211 701L327 713Q327 679 388
499T488 214T547 71T593 10V0H425V17Q425 60 404 124Q400 135 392 161T377 204T364 244ZM162 301H346Q329 358 295 480T253 626Q239 592 201 447T162 301Z" />
<glyph unicode="&#xc1;" glyph-name="Aacute" horiz-adv-x="562" d="M364 244Q326 245 256 245T148 244Q121 129 115 94T109 17V0H-27V10Q16 43 89 280Q208 664 211 701L327 713Q327 679 388 499T488 214T547 71T593 10V0H425V17Q425 60 404 124Q400 135 392 161T377
204T364 244ZM162 301H346Q329 358 295 480T253 626Q239 592 201 447T162 301ZM214 751L204 784Q319 821 406 887Q437 852 443 806Q328 760 214 751Z" />
<glyph unicode="&#xc2;" glyph-name="Acircumflex" horiz-adv-x="562" d="M225 903H305Q331 850 380 805Q397 789 430 761L402 730Q331 771 262 845Q196 779 134 735L105 765Q192 841 225 903ZM364 244Q326 245 256 245T148 244Q121 129 115 94T109 17V0H-27V10Q16
43 89 280Q208 664 211 701L327 713Q327 679 388 499T488 214T547 71T593 10V0H425V17Q425 60 404 124Q400 135 392 161T377 204T364 244ZM162 301H346Q329 358 295 480T253 626Q239 592 201 447T162 301Z" />
<glyph unicode="&#xc3;" glyph-name="Atilde" horiz-adv-x="562" d="M353 781Q329 781 279 805T204 829T161 821T116 791L96 809Q120 839 156 871T215 904T286 883T356 861Q395 861 448 898L467 881Q390 781 353 781ZM364 244Q326 245 256 245T148 244Q121 129
115 94T109 17V0H-27V10Q16 43 89 280Q208 664 211 701L327 713Q327 679 388 499T488 214T547 71T593 10V0H425V17Q425 60 404 124Q400 135 392 161T377 204T364 244ZM162 301H346Q329 358 295 480T253 626Q239 592 201 447T162 301Z" />
<glyph unicode="&#xc4;" glyph-name="Adieresis" horiz-adv-x="595" d="M373 244Q335 245 265 245T157 244Q130 129 124 94T118 17V0H-18V10Q25 43 98 280Q217 664 220 701L336 713Q336 679 397 499T497 214T556 71T602 10V0H434V17Q434 60 412 124Q409 135 401
161T386 204T373 244ZM171 301H355Q338 358 304 480T262 626Q248 592 210 447T171 301ZM230 846Q237 838 240 817T244 785T243 768L235 761Q199 749 163 746H151L141 749Q126 779 126 827L136 835Q172 848 206 850H222L230 846ZM428 855Q435 847 438 826T442 794T441
777L433 770Q397 758 361 755H349L339 758Q324 788 324 836L334 844Q370 857 404 859H420L428 855Z" />
<glyph unicode="&#xc5;" glyph-name="Aring" horiz-adv-x="595" d="M373 244Q335 245 265 245T157 244Q130 129 124 94T118 17V0H-18V10Q25 43 98 280Q217 664 220 701L234 702Q208 713 190 737T171 790Q171 835 201 865T273 895Q316 895 343 867T370 801Q370
741 320 711L336 713Q336 679 397 499T497 214T556 71T602 10V0H434V17Q434 60 412 124Q409 135 401 161T386 204T373 244ZM171 301H355Q338 358 304 480T262 626Q248 592 210 447T171 301ZM264 852Q215 852 215 804Q215 774 231 759T272 743T312 752Q325 765 325
792T310 836T264 852Z" />
<glyph unicode="&#xc6;" glyph-name="AE" horiz-adv-x="865" d="M772 628Q713 643 630 643T523 641Q521 603 521 375L759 380L730 311H723Q655 319 615 319T521 316Q521 93 525 63Q548 60 601 60Q758 60 830 92H837L819 0H400V7Q416 69 416 210V272H338Q282 272
240 271Q215 229 167 129T119 0H-10V10Q13 25 58 93Q70 111 85 137T111 182T138 229T162 273Q194 333 246 430Q369 656 375 700H400L804 703L779 628H772ZM416 490Q416 530 412 600H406L268 330H416V490Z" />
<glyph unicode="&#xc7;" glyph-name="Ccedilla" horiz-adv-x="658" d="M49 336Q49 509 154 610T432 712Q465 712 517 700T615 664Q603 601 573 558Q471 641 356 641Q314 641 280 634Q162 544 162 367Q162 246 231 159T415 71Q483 71 603 139L630 98Q525 22 455
1Q422 -9 391 -12L359 -65Q369 -62 396 -62T446 -81T470 -137T438 -198T361 -221Q338 -221 305 -211T259 -192L275 -160Q309 -177 342 -177Q394 -177 394 -132Q394 -111 382 -99Q367 -92 347 -92T305 -96L299 -87L335 -11Q210 2 130 95T49 336Z" />
<glyph unicode="&#xc8;" glyph-name="Egrave" horiz-adv-x="573" d="M480 628Q421 643 338 643T231 641Q229 603 229 395L467 400L438 331H431Q363 339 323 339T229 336Q229 93 233 63Q256 60 309 60Q466 60 538 92H545L527 0H108V7Q124 69 124 210V490Q124 631
108 693V700L512 703L487 628H480ZM407 784L397 751Q283 760 168 806Q174 852 205 887Q292 821 407 784Z" />
<glyph unicode="&#xc9;" glyph-name="Eacute" horiz-adv-x="573" d="M480 628Q421 643 338 643T231 641Q229 603 229 395L467 400L438 331H431Q363 339 323 339T229 336Q229 93 233 63Q256 60 309 60Q466 60 538 92H545L527 0H108V7Q124 69 124 210V490Q124 631
108 693V700L512 703L487 628H480ZM248 751L238 784Q353 821 440 887Q471 852 477 806Q362 760 248 751Z" />
<glyph unicode="&#xca;" glyph-name="Ecircumflex" horiz-adv-x="573" d="M480 628Q421 643 338 643T231 641Q229 603 229 395L467 400L438 331H431Q363 339 323 339T229 336Q229 93 233 63Q256 60 309 60Q466 60 538 92H545L527 0H108V7Q124 69 124 210V490Q124
631 108 693V700L512 703L487 628H480ZM292 903H372Q398 850 446 805Q464 789 497 761L469 730Q398 771 329 845Q263 779 201 735L172 765Q259 841 292 903Z" />
<glyph unicode="&#xcb;" glyph-name="Edieresis" horiz-adv-x="573" d="M480 628Q421 643 338 643T231 641Q229 603 229 395L467 400L438 331H431Q363 339 323 339T229 336Q229 93 233 63Q256 60 309 60Q466 60 538 92H545L527 0H108V7Q124 69 124 210V490Q124
631 108 693V700L512 703L487 628H480ZM474 854Q481 846 484 825T488 793T487 776L479 769Q443 757 407 754H395L385 757Q370 787 370 835L380 843Q416 856 450 858H466L474 854ZM276 845Q283 837 286 816T290 784T289 767L281 760Q245 748 209 745H197L187 748Q172
778 172 826L182 834Q218 847 252 849H268L276 845Z" />
<glyph unicode="&#xcc;" glyph-name="Igrave" horiz-adv-x="353" d="M226 480V210Q226 173 230 102T241 7V0H108V7Q123 65 123 220V490Q123 635 108 693V700H241V693Q235 670 231 594T226 480ZM253 784L243 751Q129 760 14 806Q20 852 51 887Q138 821 253 784Z" />
<glyph unicode="&#xcd;" glyph-name="Iacute" horiz-adv-x="353" d="M232 480V210Q232 173 236 102T247 7V0H114V7Q129 65 129 220V490Q129 635 114 693V700H247V693Q241 670 237 594T232 480ZM111 751L101 784Q216 821 303 887Q334 852 340 806Q225 760 111 751Z" />
<glyph unicode="&#xce;" glyph-name="Icircumflex" horiz-adv-x="348" d="M226 480V210Q226 173 230 102T241 7V0H108V7Q123 65 123 220V490Q123 635 108 693V700H241V693Q235 670 231 594T226 480ZM133 903H213Q239 850 288 805Q305 789 338 761L310 730Q239
771 170 845Q104 779 42 735L13 765Q100 841 133 903Z" />
<glyph unicode="&#xcf;" glyph-name="Idieresis" horiz-adv-x="348" d="M230 480V210Q230 173 234 102T245 7V0H112V7Q127 65 127 220V490Q127 635 112 693V700H245V693Q239 670 235 594T230 480ZM320 856Q327 848 330 827T334 795T333 778L325 771Q289 759 253
756H241L231 759Q216 789 216 837L226 845Q262 858 296 860H312L320 856ZM122 847Q129 839 132 818T136 786T135 769L127 762Q91 750 55 747H43L33 750Q18 780 18 828L28 836Q64 849 98 851H114L122 847Z" />
<glyph unicode="&#xd0;" glyph-name="Eth" horiz-adv-x="742" d="M154 698Q339 701 342 701Q519 701 606 621T693 373Q693 268 660 186Q585 0 345 0L155 1H96V8Q112 70 112 211V351L2 346L25 402H32Q68 399 112 399V490Q112 631 96 693V700L154 698ZM341 68Q462
68 514 99Q580 174 580 343T520 577T316 641Q313 641 217 640Q215 603 215 400H226Q259 400 375 404L350 346H343Q270 351 215 352V334Q215 104 219 74Q279 68 341 68Z" />
<glyph unicode="&#xd1;" glyph-name="Ntilde" horiz-adv-x="714" d="M180 0H79V7Q94 73 94 239V463Q94 617 81 693V700L202 709L552 165V490Q552 543 546 605T531 693V700H636V693Q621 627 621 461V210Q621 150 625 82T634 0L540 -10L162 575V210Q162 77 180 7V0ZM442
781Q418 781 368 805T293 829T250 821T205 791L185 809Q209 839 245 871T304 904T375 883T445 861Q484 861 537 898L556 881Q479 781 442 781Z" />
<glyph unicode="&#xd2;" glyph-name="Ograve" horiz-adv-x="753" d="M220 -12T135 89T49 344T146 606T396 714Q495 714 566 665Q704 570 704 368Q704 203 607 96T365 -12ZM591 341Q591 469 543 550Q490 641 365 641Q277 641 227 610Q198 574 180 509T162 362T183
215T258 104T392 59T524 92Q591 167 591 341ZM463 784L453 751Q339 760 224 806Q230 852 261 887Q348 821 463 784Z" />
<glyph unicode="&#xd3;" glyph-name="Oacute" horiz-adv-x="753" d="M220 -12T135 89T49 344T146 606T396 714Q495 714 566 665Q704 570 704 368Q704 203 607 96T365 -12ZM591 341Q591 469 543 550Q490 641 365 641Q277 641 227 610Q198 574 180 509T162 362T183
215T258 104T392 59T524 92Q591 167 591 341ZM295 751L285 784Q400 821 487 887Q518 852 524 806Q409 760 295 751Z" />
<glyph unicode="&#xd4;" glyph-name="Ocircumflex" horiz-adv-x="753" d="M220 -12T135 89T49 344T146 606T396 714Q495 714 566 665Q704 570 704 368Q704 203 607 96T365 -12ZM591 341Q591 469 543 550Q490 641 365 641Q277 641 227 610Q198 574 180 509T162
362T183 215T258 104T392 59T524 92Q591 167 591 341ZM335 903H415Q441 850 490 805Q507 789 540 761L512 730Q441 771 372 845Q306 779 244 735L215 765Q302 841 335 903Z" />
<glyph unicode="&#xd5;" glyph-name="Otilde" horiz-adv-x="753" d="M220 -12T135 89T49 344T146 606T396 714Q495 714 566 665Q704 570 704 368Q704 203 607 96T365 -12ZM591 341Q591 469 543 550Q490 641 365 641Q277 641 227 610Q198 574 180 509T162 362T183
215T258 104T392 59T524 92Q591 167 591 341ZM447 781Q423 781 373 805T298 829T255 821T210 791L190 809Q214 839 250 871T309 904T380 883T450 861Q489 861 542 898L561 881Q484 781 447 781Z" />
<glyph unicode="&#xd6;" glyph-name="Odieresis" horiz-adv-x="753" d="M220 -12T135 89T49 344T146 606T396 714Q495 714 566 665Q704 570 704 368Q704 203 607 96T365 -12ZM591 341Q591 469 543 550Q490 641 365 641Q277 641 227 610Q198 574 180 509T162 362T183
215T258 104T392 59T524 92Q591 167 591 341ZM320 846Q327 838 330 817T334 785T333 768L325 761Q289 749 253 746H241L231 749Q216 779 216 827L226 835Q262 848 296 850H312L320 846ZM518 855Q525 847 528 826T532 794T531 777L523 770Q487 758 451 755H439L429
758Q414 788 414 836L424 844Q460 857 494 859H510L518 855Z" />
<glyph unicode="&#xd7;" glyph-name="multiply" horiz-adv-x="565" d="M72 162L232 319L72 476L123 527L282 368L440 527L491 475L332 318L493 161L442 110L281 269L123 110L72 162Z" />
<glyph unicode="&#xd8;" glyph-name="Oslash" horiz-adv-x="776" d="M49 347Q49 498 147 606T388 714Q510 714 590 648L640 728L727 741V735Q691 693 626 611Q704 516 704 360T606 96T365 -12Q274 -12 204 30Q167 -23 145 -61L53 -77V-71Q84 -35 159 63Q49 162
49 347ZM359 641Q325 641 286 632T227 610Q198 574 180 507T162 371Q162 214 218 139Q311 260 535 570Q477 641 359 641ZM591 333Q591 460 561 526Q496 440 255 101Q311 59 405 59Q474 59 524 92Q557 128 574 195T591 333Z" />
<glyph unicode="&#xd9;" glyph-name="Ugrave" horiz-adv-x="701" d="M609 501V311Q609 215 595 153T547 54T465 3T344 -12Q202 -12 145 55T88 275V486Q88 635 73 693V700H203V693Q190 608 190 367Q190 367 190 302Q190 219 198 177T212 124T227 98T249 77T278
63Q303 52 360 52Q450 52 495 82Q521 124 528 197T535 439T520 693V700H624V693Q618 669 614 603T609 501ZM436 784L426 751Q312 760 197 806Q203 852 234 887Q321 821 436 784Z" />
<glyph unicode="&#xda;" glyph-name="Uacute" horiz-adv-x="701" d="M609 501V311Q609 215 595 153T547 54T465 3T344 -12Q202 -12 145 55T88 275V486Q88 635 73 693V700H203V693Q190 608 190 367Q190 367 190 302Q190 219 198 177T212 124T227 98T249 77T278
63Q303 52 360 52Q450 52 495 82Q521 124 528 197T535 439T520 693V700H624V693Q618 669 614 603T609 501ZM284 751L274 784Q389 821 476 887Q507 852 513 806Q398 760 284 751Z" />
<glyph unicode="&#xdb;" glyph-name="Ucircumflex" horiz-adv-x="701" d="M609 501V311Q609 215 595 153T547 54T465 3T344 -12Q202 -12 145 55T88 275V486Q88 635 73 693V700H203V693Q190 608 190 367Q190 367 190 302Q190 219 198 177T212 124T227 98T249 77T278
63Q303 52 360 52Q450 52 495 82Q521 124 528 197T535 439T520 693V700H624V693Q618 669 614 603T609 501ZM315 903H395Q421 850 470 805Q487 789 520 761L492 730Q421 771 352 845Q286 779 224 735L195 765Q282 841 315 903Z" />
<glyph unicode="&#xdc;" glyph-name="Udieresis" horiz-adv-x="744" d="M643 501V311Q643 215 629 153T581 54T499 3T378 -12Q236 -12 179 55T122 275V486Q122 635 107 693V700H237V693Q224 609 224 367Q224 367 224 302Q224 219 232 177T246 124T261 98T283 77T312
63Q337 52 394 52Q484 52 529 82Q555 124 562 197T569 439T554 693V700H658V693Q652 669 648 603T643 501ZM537 855Q544 847 547 826T551 794T550 777L542 770Q506 758 470 755H458L448 758Q433 788 433 836L443 844Q479 857 513 859H529L537 855ZM339 846Q346
838 349 817T353 785T352 768L344 761Q308 749 272 746H260L250 749Q235 779 235 827L245 835Q281 848 315 850H331L339 846Z" />
<glyph unicode="&#xdd;" glyph-name="Yacute" horiz-adv-x="511" d="M277 348Q404 623 404 683V700H520V690Q479 660 311 290V210Q311 175 315 103T325 7V0H197V7Q211 68 211 183V293L115 482Q16 671 -15 690V700H133V683Q133 644 165 574T214 470T234 429Q247
409 277 348ZM189 751L179 784Q294 821 381 887Q412 852 418 806Q303 760 189 751Z" />
<glyph unicode="&#xde;" glyph-name="Thorn" horiz-adv-x="620" d="M230 136Q230 53 249 6V0H108V7Q127 58 127 150V512Q125 639 112 692V699H245V692Q242 676 236 615H326Q582 615 582 424Q582 316 507 256T312 195Q294 195 230 203V136ZM469 489T434 526T323
564T232 562Q230 535 230 387V251Q269 240 311 240Q388 240 428 285T469 410Z" />
<glyph unicode="&#xdf;" glyph-name="germandbls" horiz-adv-x="601" d="M58 460L115 457V503Q115 606 178 673T336 740Q403 740 444 709T486 611Q486 557 442 522Q424 507 406 492Q362 457 362 408Q362 354 438 316Q469 301 500 283T553 230T575 145Q575 74 530
32Q484 -11 406 -11T273 30Q274 81 292 115Q310 91 347 71T417 50T463 59Q479 76 479 138Q479 193 408 232Q378 249 349 267T299 317T278 391T297 465T338 513Q398 557 398 603Q398 678 293 678Q252 678 230 661Q209 632 209 538V0H98V7Q115 57 115 170V402L35
399L58 460Z" />
<glyph unicode="&#xe0;" glyph-name="agrave" horiz-adv-x="504" d="M311 530Q216 582 124 674Q149 715 192 732Q246 636 334 556L311 530ZM330 200Q289 215 236 215T158 198Q143 175 143 137T164 76T216 54T281 70T330 106V200ZM346 56Q285 -11 209 -11T89 22T45
128T96 234T242 266L330 263V320Q330 373 304 406T225 439Q186 438 100 364Q71 401 59 460Q158 492 241 492T374 449T424 327V159Q425 114 438 76T474 22L476 12L369 -14Q356 18 346 56Z" />
<glyph unicode="&#xe1;" glyph-name="aacute" horiz-adv-x="504" d="M402 674Q304 579 215 530L192 556Q280 636 334 732Q377 715 402 674ZM330 200Q289 215 236 215T158 198Q143 175 143 137T164 76T216 54T281 70T330 106V200ZM346 56Q285 -11 209 -11T89 22T45
128T96 234T242 266L330 263V320Q330 373 304 406T225 439Q186 438 100 364Q71 401 59 460Q158 492 241 492T374 449T424 327V159Q425 114 438 76T474 22L476 12L369 -14Q356 18 346 56Z" />
<glyph unicode="&#xe2;" glyph-name="acircumflex" horiz-adv-x="504" d="M208 718L278 729Q299 667 342 616Q357 598 387 564L353 530Q328 550 290 592T235 661Q190 599 131 538L101 565Q132 600 145 615T178 660T208 718ZM330 200Q289 215 236 215T158 198Q143
175 143 137T164 76T216 54T281 70T330 106V200ZM346 56Q285 -11 209 -11T89 22T45 128T96 234T242 266L330 263V320Q330 373 304 406T225 439Q186 438 100 364Q71 401 59 460Q158 492 241 492T374 449T424 327V159Q425 114 438 76T474 22L476 12L369 -14Q356 18
346 56Z" />
<glyph unicode="&#xe3;" glyph-name="atilde" horiz-adv-x="504" d="M299 569T249 593T170 617T86 579L66 597Q90 627 126 659T185 692T256 671T330 649T418 686L437 669Q360 569 323 569Q299 569 249 593ZM330 200Q289 215 236 215T158 198Q143 175 143 137T164
76T216 54T281 70T330 106V200ZM346 56Q285 -11 209 -11T89 22T45 128T96 234T242 266L330 263V320Q330 373 304 406T225 439Q186 438 100 364Q71 401 59 460Q158 492 241 492T374 449T424 327V159Q425 114 438 76T474 22L476 12L369 -14Q356 18 346 56Z" />
<glyph unicode="&#xe4;" glyph-name="adieresis" horiz-adv-x="504" d="M400 687Q407 679 410 658T414 625T413 607L405 600Q368 588 331 585H319L309 588Q294 618 294 668L304 676Q340 689 375 691H392L400 687ZM184 678Q191 670 194 649T198 616T197 598L189
591Q153 579 116 576H103L93 579Q78 609 78 658L88 667Q126 680 160 682H176L184 678ZM330 200Q289 215 236 215T158 198Q143 175 143 137T164 76T216 54T281 70T330 106V200ZM346 56Q285 -11 209 -11T89 22T45 128T96 234T242 266L330 263V320Q330 373 304 406T225
439Q186 438 100 364Q71 401 59 460Q158 492 241 492T374 449T424 327V159Q425 114 438 76T474 22L476 12L369 -14Q356 18 346 56Z" />
<glyph unicode="&#xe5;" glyph-name="aring" horiz-adv-x="504" d="M292 732T317 706T343 640T315 570T245 540T177 566T151 632T180 702T250 732ZM295 637Q295 683 249 683Q198 683 198 631Q198 586 245 586Q295 586 295 637ZM330 200Q289 215 236 215T158 198Q143
175 143 137T164 76T216 54T281 70T330 106V200ZM346 56Q285 -11 209 -11T89 22T45 128T96 234T242 266L330 263V320Q330 373 304 406T225 439Q186 438 100 364Q71 401 59 460Q158 492 241 492T374 449T424 327V159Q425 114 438 76T474 22L476 12L369 -14Q356 18
346 56Z" />
<glyph unicode="&#xe6;" glyph-name="ae" horiz-adv-x="780" d="M676 31T628 10T538 -11T449 11T376 74Q298 -11 200 -11Q134 -11 90 23T45 126Q45 261 242 261L330 257V320Q330 373 304 406T225 439Q186 438 100 364Q71 401 59 460Q158 492 237 492Q354 492 400
417Q467 492 560 492T696 433T739 271L702 235H436Q436 153 472 110T568 67T715 116L740 78Q722 63 699 47ZM546 442Q499 442 476 423Q457 397 446 357T435 287L640 295Q640 442 546 442ZM333 196Q289 210 236 210T158 194Q143 172 143 135T165 76T222 54T293 73T349
119Q337 158 333 196Z" />
<glyph unicode="&#xe7;" glyph-name="ccedilla" horiz-adv-x="490" d="M188 404T169 355T150 237T177 117T265 66Q305 66 358 84T428 116L453 77Q356 8 293 -7L255 -68Q265 -65 292 -65T342 -84T366 -140T334 -201T257 -224Q234 -224 201 -214T155 -195L171 -163Q205
-180 238 -180Q290 -180 290 -135Q290 -114 278 -102Q263 -95 243 -95T201 -99L195 -90L233 -10Q145 -1 95 65T44 238T118 419T288 493T447 450Q408 388 396 375Q328 427 266 427Q243 427 221 424Q188 404 169 355Z" />
<glyph unicode="&#xe8;" glyph-name="egrave" horiz-adv-x="494" d="M294 530Q205 579 107 674Q132 715 175 732Q229 636 317 556L294 530ZM267 -11Q162 -11 103 54T44 225T110 412T274 492Q453 492 453 271L416 235H150Q150 151 186 109T283 67Q307 67 351 81T429
116L454 78Q435 59 372 24T267 -11ZM256 442Q214 442 191 423Q172 397 161 357T150 287L355 295Q355 442 256 442Z" />
<glyph unicode="&#xe9;" glyph-name="eacute" horiz-adv-x="494" d="M391 674Q293 579 204 530L181 556Q269 636 323 732Q366 715 391 674ZM267 -11Q162 -11 103 54T44 225T110 412T274 492Q453 492 453 271L416 235H150Q150 151 186 109T283 67Q307 67 351 81T429
116L454 78Q435 59 372 24T267 -11ZM256 442Q214 442 191 423Q172 397 161 357T150 287L355 295Q355 442 256 442Z" />
<glyph unicode="&#xea;" glyph-name="ecircumflex" horiz-adv-x="494" d="M229 718L299 729Q320 667 363 616Q378 598 408 564L374 530Q349 550 311 592T256 661Q211 599 152 538L122 565Q153 600 166 615T199 660T229 718ZM267 -11Q162 -11 103 54T44 225T110
412T274 492Q453 492 453 271L416 235H150Q150 151 186 109T283 67Q307 67 351 81T429 116L454 78Q435 59 372 24T267 -11ZM256 442Q214 442 191 423Q172 397 161 357T150 287L355 295Q355 442 256 442Z" />
<glyph unicode="&#xeb;" glyph-name="edieresis" horiz-adv-x="494" d="M398 687Q405 679 408 658T412 625T411 607L403 600Q366 588 330 585H317L307 588Q292 618 292 668L302 676Q340 689 373 691H390L398 687ZM194 678Q201 670 204 649T208 616T207 598L199
591Q162 579 126 576H113L103 579Q88 609 88 658L98 667Q136 680 169 682H186L194 678ZM267 -11Q162 -11 103 54T44 225T110 412T274 492Q453 492 453 271L416 235H150Q150 151 186 109T283 67Q307 67 351 81T429 116L454 78Q435 59 372 24T267 -11ZM256 442Q214
442 191 423Q172 397 161 357T150 287L355 295Q355 442 256 442Z" />
<glyph unicode="&#xec;" glyph-name="igrave" horiz-adv-x="288" d="M109 139V333Q109 422 59 457V469L200 493L206 483Q203 454 203 400V164Q203 64 228 7V0H93V7Q109 54 109 139ZM203 530Q114 579 16 674Q41 715 84 732Q138 636 226 556L203 530Z" />
<glyph unicode="&#xed;" glyph-name="iacute" horiz-adv-x="286" d="M99 139V333Q99 422 49 457V469L190 493L196 483Q193 454 193 400V164Q193 64 218 7V0H83V7Q99 54 99 139ZM291 674Q199 582 104 530L81 556Q169 636 223 732Q266 715 291 674Z" />
<glyph unicode="&#xee;" glyph-name="icircumflex" horiz-adv-x="344" d="M128 139V333Q128 422 78 457V469L219 493L225 483Q222 454 222 400V164Q222 64 247 7V0H112V7Q128 54 128 139ZM109 718L179 729Q200 667 243 616Q258 598 288 564L254 530Q229 550 191
592T136 661Q91 599 32 538L2 565Q33 600 46 615T79 660T109 718Z" />
<glyph unicode="&#xef;" glyph-name="idieresis" horiz-adv-x="357" d="M133 139V333Q133 422 83 457V469L224 493L230 483Q227 454 227 400V164Q227 64 252 7V0H117V7Q133 54 133 139ZM299 687Q306 679 309 658T313 625T312 607L304 600Q267 588 230 585H218L208
588Q193 618 193 668L203 676Q239 689 274 691H291L299 687ZM129 678Q136 670 139 649T143 616T142 598L134 591Q98 579 61 576H48L38 579Q23 609 23 658L33 667Q71 680 105 682H121L129 678Z" />
<glyph unicode="&#xf0;" glyph-name="eth" horiz-adv-x="562" d="M518 250Q518 144 447 66T271 -12T105 54T44 233T110 418T289 492Q292 492 295 492Q264 531 225 567Q120 527 87 512L91 570Q144 586 187 603Q115 666 48 700L47 707L191 740Q213 704 268 634Q313
651 403 687L400 631Q367 621 300 596Q356 537 376 518Q464 433 491 382T518 250ZM412 228Q412 327 381 381T271 435Q220 435 191 413Q173 390 162 343T150 253Q150 44 298 44Q344 44 373 65Q392 88 402 136T412 228Z" />
<glyph unicode="&#xf1;" glyph-name="ntilde" horiz-adv-x="605" d="M370 569Q346 569 296 593T220 617Q187 617 144 586Q135 580 133 579L113 597Q137 627 173 659T232 692T303 671T377 649T465 686L484 669Q407 569 370 569ZM369 492Q441 492 480 446T520 314V170Q520
75 550 7V0H409V7Q426 57 426 140V293Q426 351 409 380T338 410T202 359V170Q202 73 231 7V0H91V7Q108 57 108 140V310Q108 353 91 394T50 450L49 462L180 493L186 483Q194 446 198 408Q235 437 255 451T308 478T369 492Z" />
<glyph unicode="&#xf2;" glyph-name="ograve" horiz-adv-x="562" d="M334 530Q245 579 147 674Q172 715 215 732Q269 636 357 556L334 530ZM166 -12T105 54T44 228T115 414T293 492T459 427T518 253T447 66T271 -12ZM412 228Q412 327 381 381T271 435Q220 435
191 413Q173 390 162 343T150 253Q150 44 298 44Q344 44 373 65Q392 88 402 136T412 228Z" />
<glyph unicode="&#xf3;" glyph-name="oacute" horiz-adv-x="562" d="M426 674Q334 582 239 530L216 556Q304 636 358 732Q401 715 426 674ZM166 -12T105 54T44 228T115 414T293 492T459 427T518 253T447 66T271 -12ZM412 228Q412 327 381 381T271 435Q220 435
191 413Q173 390 162 343T150 253Q150 44 298 44Q344 44 373 65Q392 88 402 136T412 228Z" />
<glyph unicode="&#xf4;" glyph-name="ocircumflex" horiz-adv-x="562" d="M254 718L324 729Q345 667 388 616Q403 598 433 564L399 530Q374 550 336 592T281 661Q236 599 177 538L147 565Q178 600 191 615T224 660T254 718ZM166 -12T105 54T44 228T115 414T293
492T459 427T518 253T447 66T271 -12ZM412 228Q412 327 381 381T271 435Q220 435 191 413Q173 390 162 343T150 253Q150 44 298 44Q344 44 373 65Q392 88 402 136T412 228Z" />
<glyph unicode="&#xf5;" glyph-name="otilde" horiz-adv-x="562" d="M357 569Q333 569 283 593T207 617Q174 617 130 586Q122 580 120 579L100 597Q124 627 160 659T219 692T290 671T364 649T452 686L471 669Q394 569 357 569ZM166 -12T105 54T44 228T115 414T293
492T459 427T518 253T447 66T271 -12ZM412 228Q412 327 381 381T271 435Q220 435 191 413Q173 390 162 343T150 253Q150 44 298 44Q344 44 373 65Q392 88 402 136T412 228Z" />
<glyph unicode="&#xf6;" glyph-name="odieresis" horiz-adv-x="562" d="M418 687Q425 679 428 658T432 625T431 607L423 600Q386 588 350 585H337L327 588Q312 618 312 668L322 676Q360 689 393 691H410L418 687ZM216 678Q223 670 226 649T230 616T229 598L221
591Q184 579 148 576H135L125 579Q110 609 110 658L120 667Q158 680 191 682H208L216 678ZM166 -12T105 54T44 228T115 414T293 492T459 427T518 253T447 66T271 -12ZM412 228Q412 327 381 381T271 435Q220 435 191 413Q173 390 162 343T150 253Q150 44 298 44Q344
44 373 65Q392 88 402 136T412 228Z" />
<glyph unicode="&#xf7;" glyph-name="divide" horiz-adv-x="536" d="M216 446T216 466T229 500T263 514T297 500T311 466T297 433T263 419T230 432ZM216 157T216 177T229 211T263 225T297 211T311 177T297 144T263 130T230 143ZM526 354L525 288H10L11 355L526 354Z" />
<glyph unicode="&#xf8;" glyph-name="oslash" horiz-adv-x="548" d="M31 230Q31 336 102 414T276 492Q317 492 360 480Q381 521 398 564L460 570L459 564Q438 532 398 464Q505 406 505 250Q505 144 434 66T260 -12Q205 -12 159 7Q144 -24 126 -67L53 -81L54 -75Q76
-45 121 29Q31 93 31 230ZM399 228Q399 344 358 393Q301 287 192 75Q228 44 279 44T360 65Q379 88 389 136T399 228ZM328 419Q299 435 253 435T178 413Q160 390 149 343T137 253Q137 160 166 108Q243 248 325 412L328 419Z" />
<glyph unicode="&#xf9;" glyph-name="ugrave" horiz-adv-x="602" d="M344 530Q249 582 157 674Q182 715 225 732Q279 636 367 556L344 530ZM236 -11Q152 -11 119 32T85 167V310Q85 405 55 473V480H194V473Q179 420 179 340V183Q179 123 194 97T267 71T403 126V310Q403
407 374 473V480H512V473Q497 420 497 340V171Q497 127 512 85T547 28L548 16L431 -12Q414 34 407 76Q358 34 318 12T236 -11Z" />
<glyph unicode="&#xfa;" glyph-name="uacute" horiz-adv-x="602" d="M442 674Q344 579 255 530L232 556Q320 636 374 732Q417 715 442 674ZM236 -11Q152 -11 119 32T85 167V310Q85 405 55 473V480H194V473Q179 420 179 340V183Q179 123 194 97T267 71T403 126V310Q403
407 374 473V480H512V473Q497 420 497 340V171Q497 127 512 85T547 28L548 16L431 -12Q414 34 407 76Q358 34 318 12T236 -11Z" />
<glyph unicode="&#xfb;" glyph-name="ucircumflex" horiz-adv-x="602" d="M256 718L326 729Q347 667 390 616Q405 598 435 564L401 530Q376 550 338 592T283 661Q238 599 179 538L149 565Q180 600 193 615T226 660T256 718ZM236 -11Q152 -11 119 32T85 167V310Q85
405 55 473V480H194V473Q179 420 179 340V183Q179 123 194 97T267 71T403 126V310Q403 407 374 473V480H512V473Q497 420 497 340V171Q497 127 512 85T547 28L548 16L431 -12Q414 34 407 76Q358 34 318 12T236 -11Z" />
<glyph unicode="&#xfc;" glyph-name="udieresis" horiz-adv-x="602" d="M462 682Q469 674 472 653T476 620T475 602L467 595Q430 583 394 580H381L371 583Q356 613 356 663L366 671Q404 684 437 686H454L462 682ZM216 673Q223 665 226 644T230 611T229 593L221
586Q184 574 148 571H135L125 574Q110 604 110 653L120 662Q158 675 191 677H208L216 673ZM278 -11T236 -11Q152 -11 119 32T85 167V310Q85 405 55 473V480H194V473Q179 420 179 340V183Q179 123 194 97T267 71T403 126V310Q403 407 374 473V480H512V473Q497 420
497 340V171Q497 127 512 85T547 28L548 16L431 -12Q414 34 407 76Q358 34 318 12Z" />
<glyph unicode="&#xfd;" glyph-name="yacute" horiz-adv-x="489" d="M387 674Q295 582 200 530L177 556Q265 636 319 732Q362 715 387 674ZM263 92Q359 385 359 440Q359 457 352 468V480H459V468Q444 455 296 10Q225 -198 215 -238V-246L91 -255L90 -248Q163 -161
218 -14Q212 3 45 398Q25 445 2 464V476L136 487V475Q136 449 160 375T263 92Z" />
<glyph unicode="&#xfe;" glyph-name="thorn" horiz-adv-x="588" d="M190 648V417Q273 491 355 491T490 426T543 268Q543 151 472 70T304 -11Q267 -11 197 9V-60Q199 -180 238 -228V-233L95 -248Q98 -208 98 -102L96 581Q96 661 50 705V717L187 741L193 731Q190
702 190 648ZM328 54Q373 54 394 66Q410 85 423 141T436 250Q436 417 335 417Q274 417 196 363V95Q260 54 328 54Z" />
<glyph unicode="&#xff;" glyph-name="ydieresis" horiz-adv-x="489" d="M402 687Q409 679 412 658T416 625T415 607L407 600Q370 588 333 585H321L311 588Q296 618 296 668L306 676Q342 689 377 691H394L402 687ZM213 678Q220 670 223 649T227 616T226 598L218
591Q182 579 145 576H132L122 579Q107 609 107 658L117 667Q155 680 189 682H205L213 678ZM263 92Q359 385 359 440Q359 457 352 468V480H459V468Q444 455 296 10Q225 -198 215 -238V-246L91 -255L90 -248Q163 -161 218 -14Q212 3 45 398Q25 445 2 464V476L136
487V475Q136 449 160 375T263 92Z" />
<glyph unicode="&#x2013;" glyph-name="endash" horiz-adv-x="567" d="M37 323Q114 313 230 313L428 315Q450 315 496 317T567 319L537 243H530Q457 252 244 252L0 246L30 323H37Z" />
<glyph unicode="&#x2014;" glyph-name="emdash" horiz-adv-x="942" d="M38 323Q116 314 368 314T722 314T870 317T941 319L911 243H904Q831 252 245 252L1 246L31 323H38Z" />
<glyph unicode="&#x2018;" glyph-name="quoteleft" horiz-adv-x="278" d="M81 538Q81 559 85 578T97 615T118 655Q135 684 165 725L203 714Q185 682 176 664Q157 621 157 578Q157 566 159 554Q170 525 210 489L209 477Q187 458 177 452T160 440Q147 429 141 428L128
436Q81 487 81 538Z" />
<glyph unicode="&#x2019;" glyph-name="quoteright" horiz-adv-x="278" d="M197 615Q197 594 193 575T181 538T160 498Q143 469 113 428L75 439Q93 471 102 490Q121 532 121 575Q121 587 119 599Q108 628 68 664L69 676Q91 695 101 701T118 713Q131 724 137 725Q149
718 150 717Q197 666 197 615Z" />
<glyph unicode="&#x201a;" glyph-name="quotesinglbase" horiz-adv-x="304" d="M213 101Q227 69 227 19Q227 -75 117 -189L65 -165Q99 -115 113 -77T127 6T97 85Q97 92 100 96Q144 113 191 113Q198 113 203 112Q212 102 213 101Z" />
<glyph unicode="&#x201c;" glyph-name="quotedblleft" horiz-adv-x="477" d="M305 423Q257 474 257 529Q257 598 306 682Q318 701 334 726L370 718Q353 685 345 648T336 592T341 541Q349 519 397 476L396 464Q353 427 318 415Q306 423 305 423ZM111 422Q63 473
63 529Q63 597 112 680Q124 700 140 725L176 717Q159 684 151 647T142 591T147 540Q155 518 203 475L202 463Q159 426 124 414Q112 421 111 422Z" />
<glyph unicode="&#x201d;" glyph-name="quotedblright" horiz-adv-x="477" d="M157 717Q205 666 205 611Q205 542 156 458Q144 439 128 414L92 422Q109 455 117 492T126 548T121 599Q113 621 65 664L66 676Q109 713 144 725Q157 718 157 717ZM351 718Q399 667
399 611Q399 543 350 460Q338 440 322 415L286 423Q303 456 311 493T320 549T315 600Q307 622 259 665L260 677Q303 714 338 726L351 718Z" />
<glyph unicode="&#x201e;" glyph-name="quotedblbase" horiz-adv-x="497" d="M213 101Q227 69 227 19Q227 -75 117 -189L65 -165Q99 -115 113 -77T127 6T97 85Q97 92 100 96Q144 113 191 113Q198 113 203 112Q212 102 213 101ZM406 101Q420 69 420 19Q420 -75
310 -189L258 -165Q292 -115 306 -77T320 6T290 85Q290 92 293 96Q337 113 384 113Q391 113 396 112Q406 102 406 101Z" />
<glyph unicode="&#x2022;" glyph-name="bullet" horiz-adv-x="530" d="M356 447Q374 420 380 375T387 306T383 263L366 248Q335 228 290 221T225 214T193 216L173 226Q155 250 149 294T142 363T145 407L161 423Q191 440 236 449T304 459T339 457L356 447Z" />
<glyph unicode="&#x2039;" glyph-name="guilsinglleft" horiz-adv-x="356" d="M61 263L57 278Q106 309 114 316L263 451L300 416L280 393L163 267L300 117L262 80L221 121L96 233L61 263Z" />
<glyph unicode="&#x203a;" glyph-name="guilsinglright" horiz-adv-x="356" d="M299 278L295 263L260 233L135 121L94 80L56 117L193 267L76 393L56 416L93 451L242 316Q250 309 299 278Z" />
</font>
</defs>
</svg>
