<?xml version="1.0" standalone="no"?>
<!DOCTYPE svg PUBLIC "-//W3C//DTD SVG 1.1//EN" "http://www.w3.org/Graphics/SVG/1.1/DTD/svg11.dtd">
<svg xmlns="http://www.w3.org/2000/svg">
<defs >
<font id="Quattrocento" horiz-adv-x="452" ><font-face
    font-family="Quattrocento"
    units-per-em="1000"
    panose-1="2 2 5 2 3 0 0 0 4 4"
    ascent="848"
    descent="-260"
    alphabetic="0" />
<glyph unicode=" " glyph-name="space" horiz-adv-x="240" />
<glyph unicode="!" glyph-name="exclam" horiz-adv-x="246" d="M169 683Q169 674 169 667T168 654Q167 643 166 632T164 603T160 554T156 473T151 350T146 172L141 165L106 149L100 153Q98 252 96 324T91 448T87 534T83 591T80 627T78 651L82 660L164 686L169
683ZM76 35Q76 54 89 68T123 83Q141 83 155 69T170 35Q170 16 156 3T123 -11Q103 -11 90 2T76 35Z" />
<glyph unicode="&quot;" glyph-name="quotedbl" horiz-adv-x="306" d="M67 516L65 521Q64 569 62 619T53 717L54 721L121 730L123 726Q116 683 114 632T111 530L109 526L67 516ZM200 516L198 521Q197 569 195 619T186 717L188 721L254 730L256 726Q249 683 247
632T244 530L242 526L200 516Z" />
<glyph unicode="#" glyph-name="numbersign" horiz-adv-x="622" d="M294 4Q311 52 325 108T352 222H218Q207 165 198 109T184 4L181 0H105L104 4Q121 52 135 108T162 222H42L51 275H174L199 394H71L80 446H210Q220 494 229 548T242 650L244 654H320L322 650Q305
603 291 549T266 446H400Q410 494 419 548T432 650L434 654H510L512 650Q495 603 481 549T456 446H582L573 394H445L420 275H551L542 222H408Q397 165 388 109T374 4L371 0H295L294 4ZM230 275H364L389 394H254L230 275Z" />
<glyph unicode="$" glyph-name="dollar" horiz-adv-x="533" d="M238 -93Q240 -71 241 -47T245 2Q187 3 139 16T53 49L49 63L66 164H91L96 159Q101 104 139 77T246 47Q248 85 248 123T248 198V309Q246 309 245 310Q205 322 171 336T112 372T73 421T59 488Q59 530
73 559T111 608T170 638T245 651Q244 676 242 700T238 747L240 750H301L303 747Q300 725 299 701T295 651Q341 649 380 640T446 619L450 608L436 523H408L404 528Q402 549 392 563T365 586T331 599T294 605Q293 573 293 545T293 493V379Q294 378 296 378Q333 367
368 352T432 315T476 260T493 181Q493 137 478 106T436 53T373 19T296 4Q297 -22 299 -46T303 -93L301 -96H240L238 -93ZM293 198Q293 162 293 124T294 48Q357 56 386 88T416 168Q416 195 406 215T380 250T341 275T293 295V198ZM132 500Q132 477 139 461T160 433T196
412T248 393V493Q248 516 248 544T247 605Q192 600 162 574T132 500Z" />
<glyph unicode="%" glyph-name="percent" horiz-adv-x="783" d="M124 23Q152 56 176 86T223 146T270 208T321 278L441 443Q478 494 518 550T593 669L598 673H674L673 669Q618 608 576 551T497 443L377 278Q350 240 327 208T284 146T244 86T204 23L199 19H123L124
23ZM596 357Q631 357 658 342T704 302T732 244T742 174Q742 138 733 105T704 46T657 5T593 -11Q558 -11 532 3T488 42T461 100T452 170Q452 209 462 243T490 302T535 342T596 357ZM596 27Q619 27 637 38T667 70T686 117T693 174Q693 205 686 231T667 277T636 308T594
319Q571 319 554 308T525 278T507 232T501 174Q501 105 527 66T596 27ZM189 665Q223 665 250 650T296 610T324 552T334 482Q334 446 325 413T297 354T250 313T186 297Q151 297 125 311T80 350T53 408T44 478Q44 517 54 551T82 610T128 650T189 665ZM189 335Q212
335 230 346T260 378T278 425T285 482Q285 513 278 539T259 585T228 616T187 627Q164 627 147 616T117 586T99 540T93 482Q93 413 120 374T189 335Z" />
<glyph unicode="&amp;" glyph-name="ampersand" horiz-adv-x="755" d="M711 424Q711 421 706 409T691 383T663 358T621 347Q609 347 581 349T524 353Q539 330 546 301T554 239Q554 204 545 169T516 104Q554 66 592 44T684 20L690 16L693 -2L690 -6Q680 -6 665
-6T633 -8T604 -9T585 -10Q555 -10 526 9T471 54Q433 23 384 7T281 -10Q237 -10 196 1T123 36T72 93T53 172Q53 202 62 232T88 288T129 336T185 370Q153 412 139 443T125 513Q125 584 168 623T278 663Q299 663 320 659T360 646T392 621T410 584L413 574L401 503H368L364
507Q359 566 337 589T276 612Q232 612 213 587T194 528Q194 490 210 455Q218 437 234 414T281 356T357 270T472 148Q497 195 497 242Q497 271 488 299T460 356Q437 355 427 349T409 331L395 338Q395 345 401 358T419 383T448 405T490 414Q499 414 515 413T550 410T591
407T632 406Q651 406 668 410T698 432L711 424ZM431 96Q380 152 328 207T222 325Q197 317 179 301T149 265T131 222T125 179Q125 144 140 119T178 77T231 52T290 43Q328 43 365 56T431 96Z" />
<glyph unicode="&apos;" glyph-name="quotesingle" horiz-adv-x="172" d="M67 516L65 521Q64 569 62 619T53 717L54 721L121 730L123 726Q116 683 114 632T111 530L109 526L67 516Z" />
<glyph unicode="(" glyph-name="parenleft" horiz-adv-x="271" d="M257 760V755Q215 703 186 646T140 523Q126 468 123 417T120 327Q120 286 123 237T140 132T181 18T257 -101V-106L242 -117Q146 -31 93 84T40 327Q40 455 93 569T242 771L257 760Z" />
<glyph unicode=")" glyph-name="parenright" horiz-adv-x="271" d="M29 771Q125 684 178 570T231 327Q231 264 217 203T177 84T114 -24T29 -117L14 -106V-101Q62 -41 89 18T129 132T146 237T150 327Q150 365 147 416T130 523Q114 588 85 645T14 755V760L29 771Z" />
<glyph unicode="*" glyph-name="asterisk" horiz-adv-x="439" d="M377 481Q365 467 359 457T348 431Q346 431 345 431T343 430Q318 451 295 468T235 509Q238 480 240 461T243 427T247 401T252 377L248 374Q238 375 234 375T221 375Q213 375 208 375T193 374L190
377Q195 407 197 435T205 510Q184 495 169 485T142 465T120 448T98 429Q96 429 96 429T93 430Q87 444 82 453T65 476Q65 477 65 479T66 483Q101 496 129 508T189 538Q166 550 152 557T126 569T102 578T70 589L68 596Q79 610 85 620T98 644L102 645Q108 640 114
635T131 621T160 599T207 565Q205 584 203 600T198 632T191 663T182 698L185 702Q194 700 199 700T214 700Q222 700 228 700T242 702Q243 700 243 700T245 699Q238 670 237 637T235 565Q253 579 266 589T291 610T312 629T334 651Q335 648 339 648Q345 636 350 626T367
601Q366 599 366 597T366 594Q348 587 333 581T304 569T276 555T245 539Q263 529 277 522T306 508T337 497T375 486L377 481Z" />
<glyph unicode="+" glyph-name="plus" horiz-adv-x="495" d="M273 265H445L435 213H273V41H221V213H50L59 265H221V427H273V265Z" />
<glyph unicode="," glyph-name="comma" horiz-adv-x="213" d="M57 -97L51 -91V-87Q65 -58 69 -35T74 1Q74 12 69 23T63 50Q63 58 69 64T83 75T102 81T122 83Q130 83 135 79T142 67T146 53T147 40Q147 17 138 -5T115 -46T88 -78T63 -97H57Z" />
<glyph unicode="-" glyph-name="hyphen" horiz-adv-x="471" d="M405 265L395 213H67L76 265H405Z" />
<glyph unicode="." glyph-name="period" horiz-adv-x="217" d="M62 35Q62 54 75 68T108 83Q127 83 141 69T156 35Q156 16 142 3T108 -11Q88 -11 75 2T62 35Z" />
<glyph unicode="/" glyph-name="slash" horiz-adv-x="434" d="M40 -53Q73 14 104 94T162 249L229 433Q238 458 250 491T273 559T295 631T313 698L316 702H394L395 698Q378 667 363 631T334 560T308 491T287 433L219 249Q191 174 164 94T121 -53L118 -57H40V-53Z" />
<glyph unicode="0" glyph-name="zero" horiz-adv-x="646" d="M323 665Q386 665 435 638T519 565T571 457T589 329Q589 263 572 202T520 93T435 18T318 -11Q253 -11 205 16T124 88T75 194T58 322Q58 393 76 455T128 564T211 638T323 665ZM322 42Q367 42 402 64T462
126T499 217T512 328Q512 388 499 440T460 530T400 590T319 612Q274 612 240 591T183 531T148 442T136 329Q136 262 149 209T188 119T247 62T322 42Z" />
<glyph unicode="1" glyph-name="one" horiz-adv-x="354" d="M42 554L45 560Q88 581 127 604T204 663H211L233 654Q232 646 232 636T231 614T230 593T229 577Q228 561 228 547T227 514T226 468T226 399V258Q226 216 226 190T226 145T227 113T230 82Q232 61 239
51T254 33Q263 26 282 22T316 18L321 13L323 0L321 -4Q314 -4 300 -3T270 -2T240 -1T219 0H162Q155 0 141 0T111 -1T81 -3T60 -4L58 0L60 14L63 18Q79 18 99 21T128 33Q136 40 143 51T152 82Q153 95 154 107T155 136T156 176T156 234V397Q156 438 156 463T156 506T154
535T152 564L45 537L42 541V554Z" />
<glyph unicode="2" glyph-name="two" horiz-adv-x="536" d="M60 546L63 555Q75 576 93 596T136 631T194 655T268 665Q373 665 419 619T465 493Q465 446 443 407T387 323Q359 285 322 242T251 160T194 92T170 51L172 48H250Q310 48 346 49T402 59T431 82T448 127L453
133H480L462 4L453 -6Q446 -6 420 -5T362 -3T301 -1T258 0H159Q137 0 110 -2T56 -6L46 5V28Q68 56 105 98T185 188T268 284T338 373Q361 405 376 437T392 505Q392 555 355 583T262 612Q196 612 155 579T110 478L106 474H72L60 546Z" />
<glyph unicode="3" glyph-name="three" horiz-adv-x="544" d="M101 147Q102 127 112 108T142 75T190 51T256 42Q301 42 331 55T379 90T404 136T412 185Q412 212 404 238T378 285T335 319T274 332H242L237 336L234 364L239 369H257Q286 369 308 380T346 410T370
453T378 504Q378 525 372 544T352 579T314 603T253 612Q217 612 194 603T155 576T132 534T120 478L116 474H83L71 546L73 555Q83 574 100 594T142 629T199 655T271 665Q305 665 338 656T396 627T438 579T454 511Q454 480 445 455T422 411T391 380T357 361V357Q417
346 452 299T488 189Q488 145 471 108T422 45T345 4T246 -11Q118 -11 55 80L54 89L65 151H98L101 147Z" />
<glyph unicode="4" glyph-name="four" horiz-adv-x="508" d="M32 223L21 245Q40 278 64 318T116 400T170 483T221 558T263 618T291 656L356 665H364L376 654Q375 646 375 636T374 614T373 593T372 577Q371 561 371 547T370 514T369 468T369 399V270H454L458 264L447
223L440 218H369Q369 191 369 172T369 138T370 110T373 82Q375 61 382 51T398 33Q406 26 425 22T460 18L464 13L466 0L464 -4Q457 -4 443 -3T414 -2T384 -1T363 0H307Q300 0 284 0T251 -1T217 -3T194 -4L193 0L197 14L201 18Q209 18 219 19T240 22T259 26T272 33Q280
40 287 51T296 82Q298 107 299 139T300 218H41L32 223ZM297 581Q280 561 254 525T199 445T143 355T96 270H300V397Q300 418 300 442T300 491T299 539T297 581Z" />
<glyph unicode="5" glyph-name="five" horiz-adv-x="531" d="M410 201Q410 243 396 269T360 311T310 332T253 338Q217 338 182 330T118 305H108L81 320L79 327L111 646L117 654H207Q234 654 287 655T409 662L418 654L433 546L427 539H409L403 544Q399 566 393
578T370 597T321 604T234 606H174Q168 606 168 601L148 377Q174 387 205 392T272 397Q313 397 351 388T418 357T465 299T483 209Q483 156 465 115T415 46T337 4T238 -11Q168 -11 125 11T54 70L53 80L64 151H100L103 147Q105 102 141 72T248 42Q293 42 324 55T374
90T401 141T410 201Z" />
<glyph unicode="6" glyph-name="six" horiz-adv-x="544" d="M141 336Q157 358 175 370T213 390T250 399T284 401Q351 401 392 380T457 328T487 262T495 200Q495 163 484 126T447 58T381 8T283 -11Q223 -11 182 11T115 75T78 174T67 303Q67 364 76 428T110 545T181
631T298 665Q314 665 335 663T378 656T421 641T457 618L442 555H424Q414 572 400 583T370 600T337 609T305 612Q257 612 225 590T173 534T145 459T136 377Q136 366 136 357T138 337L141 336ZM289 346Q217 346 182 307T146 203Q146 179 152 151T173 99T214 59T282
42Q351 42 389 87T427 202Q427 225 422 250T401 297T359 332T289 346Z" />
<glyph unicode="7" glyph-name="seven" horiz-adv-x="512" d="M199 0Q175 0 144 -2T93 -6L86 4Q124 71 162 139T234 272T297 393T347 494T381 566T393 602L388 606H252Q193 606 158 604T103 596T77 578T65 544L59 539H41L36 546L51 654L59 662Q139 658 219 656T364
654H501L506 651L501 626Q494 618 478 590T440 524T395 440T349 352T309 274T283 219Q260 168 241 119T204 7L199 0Z" />
<glyph unicode="8" glyph-name="eight" horiz-adv-x="558" d="M276 665Q316 665 351 655T411 623T451 571T466 500Q466 470 459 448T439 411T411 385T379 369V365Q411 355 434 336T471 293T493 241T500 186Q500 150 489 115T452 52T384 7T278 -11Q216 -11 174
6T106 51T69 114T58 186Q58 247 87 295T179 365V369Q144 380 118 411T92 501Q92 580 143 622T276 665ZM277 335Q237 335 210 320T166 283T142 233T134 181Q134 160 141 136T166 90T210 56T279 42Q320 42 347 54T392 86T416 130T424 179Q424 206 416 233T391 283T345
320T277 335ZM390 504Q390 561 361 586T277 612Q219 612 194 585T168 506Q168 446 198 415T279 384Q303 384 323 393T359 419T382 457T390 504Z" />
<glyph unicode="9" glyph-name="nine" horiz-adv-x="544" d="M403 318Q386 296 368 283T330 264T293 255T260 253Q192 253 151 274T87 326T57 392T49 454Q49 491 60 528T97 596T163 646T261 665Q321 665 362 643T429 579T466 480T477 351Q477 289 468 225T433
109T362 23T245 -11Q229 -11 208 -9T165 -2T123 12T87 36L102 99H120Q140 65 174 54T239 42Q287 42 319 62T371 117T399 196T408 288V296Q408 300 408 305T406 317L403 318ZM255 308Q327 308 362 347T397 451Q397 475 391 503T370 555T329 595T261 612Q193 612
155 567T117 452Q117 429 122 404T143 357T185 322T255 308Z" />
<glyph unicode=":" glyph-name="colon" horiz-adv-x="227" d="M67 35Q67 54 80 68T113 83Q132 83 146 69T161 35Q161 16 147 3T113 -11Q93 -11 80 2T67 35ZM67 408Q67 427 80 441T113 455Q132 455 146 441T161 408Q161 388 147 375T113 361Q93 361 80 374T67 408Z" />
<glyph unicode=";" glyph-name="semicolon" horiz-adv-x="233" d="M71 408Q71 427 84 441T117 455Q136 455 150 441T165 408Q165 388 151 375T117 361Q97 361 84 374T71 408ZM70 -97L64 -91V-87Q78 -58 82 -35T87 1Q87 12 82 23T76 50Q76 58 82 64T96 75T115 81T135
83Q143 83 148 79T155 67T159 53T160 40Q160 17 151 -5T128 -46T101 -78T76 -97H70Z" />
<glyph unicode="&lt;" glyph-name="less" horiz-adv-x="414" d="M124 238Q175 203 231 168T342 101V94L333 56L329 52Q260 103 188 149T44 238V243Q116 285 188 331T329 429L333 425L342 387V380Q288 349 232 314T124 243V238Z" />
<glyph unicode="=" glyph-name="equal" horiz-adv-x="488" d="M413 189L403 137H75L84 189H413ZM413 341L403 289H75L84 341H413Z" />
<glyph unicode="&gt;" glyph-name="greater" horiz-adv-x="414" d="M290 243Q239 278 183 313T72 380V387L81 425L85 429Q154 378 226 332T370 243V238Q298 196 226 150T85 52L81 56L72 94V101Q126 133 182 168T290 238V243Z" />
<glyph unicode="?" glyph-name="question" horiz-adv-x="424" d="M220 172L214 165L179 149L173 153Q172 178 171 207T170 250Q170 290 191 324T237 393T283 463T304 543Q304 569 295 588T271 619T239 638T204 644Q177 644 156 635T118 611T91 575T78 532L76 529H58L46
622L48 631Q57 645 76 655T119 672T166 682T207 686Q228 686 256 679T310 654T353 605T371 526Q371 495 361 467T334 412T300 361T265 315T237 272T224 234L220 172ZM150 36Q150 56 163 69T196 83Q215 83 229 70T244 36Q244 17 230 3T196 -11Q177 -11 164 3T150
36Z" />
<glyph unicode="@" glyph-name="at" horiz-adv-x="722" d="M441 354Q435 360 416 360Q383 360 359 342T320 296T298 238T291 180Q291 147 300 132T323 116Q336 116 350 126T378 153T401 190T416 229L441 354ZM577 -23Q567 -32 546 -45T494 -71T427 -92T349 -101Q289
-101 236 -81T143 -25T80 64T56 180Q56 237 76 301T140 421T249 512T408 548Q478 548 529 526T614 469T664 390T680 301Q680 257 666 216T624 144T560 93T476 74Q452 74 438 79T416 94T406 117T403 147Q386 113 361 93T309 73Q294 73 279 80T252 103T233 140T225
193Q225 238 242 274T286 335T348 375T416 389Q440 389 468 381T514 356L477 178Q475 167 474 159T473 143Q473 129 479 122T502 115Q529 115 551 130T590 171T616 230T625 297Q625 334 613 371T574 439T506 488T407 507Q335 507 280 478T188 402T132 297T113 180Q113
117 133 72T188 -2T266 -45T359 -59Q400 -59 435 -51T499 -30T549 -3T581 21L594 11L577 -23Z" />
<glyph unicode="A" glyph-name="A" horiz-adv-x="675" d="M372 665L536 211Q546 181 553 161T566 127T576 104T583 87Q594 62 605 49T629 29T653 21T679 20L684 16L687 -2L685 -6Q678 -6 664 -5T635 -3T607 -1T586 0H553Q546 0 530 -1T497 -3T463 -5T440 -6L438
-2L441 16L445 20Q474 20 490 26T506 62Q506 85 491 126T452 231L435 279H211L194 231Q171 168 156 127T140 62Q140 33 156 27T201 20L206 16L209 -2L207 -6Q200 -6 185 -5T154 -3T122 -1T100 0H81Q74 0 60 -1T31 -3T3 -5T-18 -6L-19 -2L-17 16L-12 20Q1 20 13
21T37 28T60 48T84 87Q87 92 89 98T97 118T111 152T133 208T166 293T214 414Q227 449 241 483T267 548T288 601T302 635L361 665H372ZM228 322H419L324 579L228 322Z" />
<glyph unicode="B" glyph-name="B" horiz-adv-x="587" d="M157 0Q150 0 134 -1T101 -3T68 -5T45 -6L43 -2L46 16L51 20Q63 20 79 21T104 29Q112 35 119 48T129 87Q130 102 130 132T131 221V471Q131 491 131 516T129 567Q127 594 120 606T104 624Q95 629 86 631T51
634L46 638L43 656L45 660Q52 660 63 659T87 657T113 655T137 654H173Q184 654 198 654T226 654T253 655T272 655Q380 655 427 614T474 504Q474 474 467 451T446 411T417 381T383 359Q456 346 495 304T535 188Q535 138 517 103T467 45T389 11T290 0H157ZM202 332Q202
304 202 266T202 192T203 126T205 87Q207 60 216 54T240 48H301Q325 48 353 54T407 75T449 117T466 186Q466 222 453 249T417 295T364 322T297 332H202ZM249 369Q281 369 310 373T362 394Q384 408 398 434T412 497Q412 550 382 578T297 606H207Q205 577 205 557T203
522T202 495T202 472V410Q202 387 204 378T219 369H249Z" />
<glyph unicode="C" glyph-name="C" horiz-adv-x="650" d="M551 535Q548 557 532 572T493 596T441 608T384 612Q285 612 228 567Q181 529 158 466T134 328Q134 257 154 204T211 114T296 60T404 41Q445 41 498 52T600 97L610 86L588 41Q538 14 489 2T386 -11Q311
-11 250 13T146 81T78 187T54 324Q54 394 75 456T139 565T244 638T390 665Q408 665 432 664T484 658T539 648T593 631L596 622L583 531H554L551 535Z" />
<glyph unicode="D" glyph-name="D" horiz-adv-x="734" d="M129 567Q127 592 120 604T104 624Q95 629 86 631T51 634L46 638L43 656L45 660Q52 660 65 659T93 657T122 655T148 654H205Q218 654 237 654T277 656T317 657T349 658Q427 658 488 632T592 560T656 455T679
328Q679 262 658 203T594 98T489 25T343 -2Q334 -2 316 -2T278 -1T240 -1T210 0H157Q150 0 134 -1T101 -3T68 -5T45 -6L43 -2L46 16L51 20Q63 20 79 21T104 29Q112 35 119 48T129 87Q129 94 129 103T130 127T131 161T131 211V414Q131 424 131 444T131 488T131 533T129
567ZM350 48Q410 48 456 70T533 129T581 218T598 328Q598 388 581 439T532 527T452 585T345 606H207Q205 577 205 558T203 518T202 475T202 415V231Q202 171 202 138T205 87Q208 61 218 55T254 48H350Z" />
<glyph unicode="E" glyph-name="E" horiz-adv-x="571" d="M331 654Q344 654 370 654T424 656T472 657T499 658L504 648L500 539H475L471 543Q469 566 466 579T446 598T396 605T303 606H207L205 567Q204 551 204 540T203 513T202 475T202 366Q232 367 262 367T316
368T358 372T381 383Q389 391 395 399T401 422L406 427L423 429L427 427Q425 404 424 387T422 348Q422 324 423 304T427 259L423 257L405 259L401 262Q401 278 395 291T381 314Q375 320 358 323T317 327T263 328T202 328V231Q202 195 202 173T202 133T204 101T207
67Q207 48 227 48H312Q372 48 406 50T459 61T484 85T499 129L503 133H529L511 6L503 -4Q498 -4 480 -4T440 -2T395 -1T359 0H157Q150 0 134 -1T101 -3T68 -5T45 -6L43 -2L46 16L51 20Q67 20 81 21T104 30Q112 37 119 48T129 87Q129 94 129 103T130 127T131 161T131
211V414Q131 449 131 473T131 514T131 543T129 567Q127 594 120 605T104 624Q95 631 81 632T51 634L46 638L43 656L45 660Q52 660 68 659T102 657T138 655T167 654H331Z" />
<glyph unicode="F" glyph-name="F" horiz-adv-x="529" d="M129 567Q127 595 120 606T104 624Q95 631 81 632T51 634L46 638L43 656L45 660Q52 660 68 659T101 657T134 655T157 654H331Q344 654 370 654T424 656T472 657T499 658L504 648L500 539H475L471 543Q469
566 466 579T446 598T396 605T303 606H207L205 567Q204 553 204 541T203 513T202 474T202 366Q232 367 262 367T316 368T358 372T381 383Q389 391 395 399T401 422L406 427L423 429L427 427Q425 404 424 387T422 348Q422 324 423 304T427 259L423 257L405 259L401
262Q401 278 395 291T381 314Q375 320 358 323T317 327T263 328T202 328V231Q202 195 202 173T202 135T203 110T205 87Q207 59 215 48T232 30Q241 23 258 22T292 20L297 16L300 -2L298 -6Q291 -6 274 -5T237 -3T201 -1T176 0H157Q150 0 134 -1T101 -3T68 -5T45
-6L43 -2L46 16L51 20Q67 20 81 21T104 30Q112 37 119 48T129 87Q129 94 129 103T130 127T131 161T131 211V414Q131 449 131 473T131 514T130 543T129 567Z" />
<glyph unicode="G" glyph-name="G" horiz-adv-x="708" d="M607 25Q559 10 507 0T397 -11Q310 -11 246 15T139 88T75 195T54 324Q54 396 76 458T143 566T252 638T403 665Q421 665 446 664T500 658T557 648T612 631L614 622L597 525H569L565 528Q558 568 519 590T398
612Q285 612 226 565Q202 546 185 520T157 463T140 398T134 329Q134 262 153 209T207 120T288 64T390 44Q407 44 428 45T470 50T507 57T529 65Q537 70 537 86Q537 93 537 105T537 130T537 157T535 181Q533 207 525 220T510 238Q501 245 483 246T449 248L444 252L441
274L443 278Q450 278 465 277T497 275T529 273T552 272H582Q589 272 601 273T626 275T651 277T670 278L672 274L670 250L665 246Q636 246 625 230T611 181Q609 156 609 128T608 85Q608 70 608 53T611 30L607 25Z" />
<glyph unicode="H" glyph-name="H" horiz-adv-x="760" d="M715 -6Q708 -6 692 -5T659 -3T626 -1T603 0H584Q577 0 561 -1T528 -3T495 -5T472 -6L470 -2L473 16L477 20Q493 20 507 21T531 30Q539 37 545 48T555 87Q556 94 556 103T557 127T558 161T558 211V326H202V231Q202
195 202 173T202 135T203 110T205 87Q207 59 214 48T229 30Q238 23 252 22T283 20L287 16L290 -2L288 -6Q281 -6 265 -5T232 -3T199 -1T176 0H157Q150 0 134 -1T101 -3T68 -5T45 -6L43 -2L46 16L51 20Q67 20 81 21T104 30Q112 37 119 48T129 87Q129 94 129 103T130
127T131 161T131 211V414Q131 449 131 473T131 514T130 543T128 567Q126 594 119 605T104 624Q95 631 81 632T51 634L46 638L43 656L45 660Q52 660 68 659T101 657T134 655T157 654H176Q183 654 199 655T232 657T265 659T288 660L290 656L287 638L283 634Q267 634
253 633T229 624Q221 617 214 606T205 567Q204 553 204 541T203 513T202 474T202 415V370H558V414Q558 449 558 473T558 514T557 543T555 567Q553 595 546 606T531 624Q522 631 508 632T477 634L473 638L470 656L472 660Q479 660 495 659T528 657T561 655T584 654H603Q610
654 626 655T659 657T692 659T715 660L717 656L714 638L709 634Q693 634 679 633T656 624Q648 617 641 606T631 567Q630 553 630 541T629 513T629 474T629 415V231Q629 195 629 173T629 135T629 110T631 87Q633 59 640 48T656 30Q665 23 679 22T709 20L714 16L717
-2L715 -6Z" />
<glyph unicode="I" glyph-name="I" horiz-adv-x="333" d="M290 656L287 638L283 634Q267 634 253 633T229 624Q221 617 214 606T205 567Q204 553 204 541T203 513T202 474T202 415V231Q202 195 202 173T202 135T203 110T205 87Q207 59 214 48T229 30Q238 23 252
22T283 20L287 16L290 -2L288 -6Q281 -6 265 -5T232 -3T199 -1T176 0H157Q150 0 134 -1T101 -3T68 -5T45 -6L43 -2L46 16L51 20Q67 20 81 21T104 30Q112 37 119 48T129 87Q129 94 129 103T130 127T131 161T131 211V414Q131 449 131 473T131 514T130 543T128 567Q126
593 119 605T104 624Q95 631 81 632T51 634L46 638L43 656L45 660Q52 660 68 659T101 657T134 655T157 654H176Q183 654 199 655T232 657T265 659T288 660L290 656Z" />
<glyph unicode="J" glyph-name="J" horiz-adv-x="318" d="M283 656L280 638L276 634Q260 634 246 633T222 624Q214 617 207 606T198 567Q197 553 197 541T196 513T195 474T195 415V231Q195 195 195 171T195 129T194 100T194 76Q194 36 185 -3T160 -73T119 -126T63
-153Q55 -155 45 -155T27 -156L19 -153L17 -131L21 -126Q34 -126 44 -126T64 -121Q76 -114 87 -103Q115 -75 119 1T124 211V414Q124 449 124 473T124 514T123 543T121 567Q119 594 112 605T97 624Q88 631 74 632T44 634L39 638L36 656L38 660Q45 660 61 659T94
657T127 655T150 654H169Q176 654 192 655T225 657T258 659T281 660L283 656Z" />
<glyph unicode="K" glyph-name="K" horiz-adv-x="656" d="M290 656L287 638L283 634Q267 634 253 633T229 624Q221 617 214 606T205 567Q204 553 204 541T203 513T202 474T202 415V347Q229 364 267 396T342 464Q385 507 414 544T443 596Q443 607 438 613T426 624T409
630T389 634L384 638V656L389 660Q429 654 477 654H526Q538 654 546 654T563 655T582 657T606 660L610 656V638L606 634Q593 631 571 627T534 612Q524 606 512 593T482 560T440 513T382 452L302 370Q385 244 486 125Q506 102 523 84T559 53T603 32T661 20L667 16L669
-2L667 -6Q645 -6 617 -8T573 -10Q547 -10 528 -5T492 14T455 48T412 99Q409 103 389 130T344 194T292 268T249 330H245Q234 322 224 316T202 299V231Q202 195 202 173T202 135T203 110T205 87Q207 59 214 48T229 30Q238 23 252 22T283 20L287 16L290 -2L288 -6Q281
-6 265 -5T232 -3T199 -1T176 0H157Q150 0 134 -1T101 -3T68 -5T45 -6L43 -2L46 16L51 20Q67 20 81 21T104 30Q112 37 119 48T129 87Q129 94 129 103T130 127T131 161T131 211V414Q131 449 131 473T131 514T131 543T129 567Q127 594 120 605T104 624Q95 631 81
632T51 634L46 638L43 656L45 660Q52 660 68 659T101 657T134 655T157 654H176Q183 654 199 655T232 657T265 659T288 660L290 656Z" />
<glyph unicode="L" glyph-name="L" horiz-adv-x="516" d="M128 567Q126 595 119 606T104 624Q95 631 81 632T51 634L46 638L43 656L45 660Q52 660 68 659T101 657T134 655T157 654H176Q183 654 199 655T232 657T265 659T288 660L290 656L287 638L283 634Q267 634
253 633T229 624Q221 617 214 606T204 567Q203 553 203 541T202 513T202 474T202 415V231Q202 196 202 173T202 133T204 101T206 67Q207 48 227 48H312Q372 48 402 50T446 61T463 85T473 129L476 133H502L484 6L476 -4Q471 -4 458 -4T427 -2T391 -1T359 0H157Q150
0 134 -1T101 -3T68 -5T45 -6L43 -2L46 16L51 20Q67 20 81 21T104 30Q112 37 119 50T129 87Q130 94 130 103T131 127T131 161T131 211V414Q131 449 131 473T131 514T130 543T128 567Z" />
<glyph unicode="M" glyph-name="M" horiz-adv-x="901" d="M874 -6Q867 -6 851 -5T818 -3T785 -1T762 0H743Q736 0 720 -1T687 -3T654 -5T631 -6L628 -2L631 16L635 20Q651 20 665 21T688 30Q695 37 701 48T708 87Q708 94 708 103T708 127T706 161T703 211Q695
316 691 378T683 476T679 526T676 551Q669 533 654 496T620 410T578 306T535 197T494 95T460 13H413L213 549Q212 539 211 528T209 502T207 466T203 415L189 231Q186 197 185 175T183 137T182 110T182 87Q182 59 188 48T203 30Q211 23 221 22T248 20L252 16L255
-2L253 -6Q246 -6 233 -5T205 -3T178 -1T157 0H138Q131 0 116 -1T83 -3T50 -5T27 -6L25 -2L28 16L34 20Q49 20 63 21T87 30Q95 37 103 48T116 87Q117 94 118 103T120 127T124 161T128 211L142 414Q145 449 146 473T148 514T149 543T150 567Q150 595 142 606T125
624Q116 631 102 632T72 634L67 638L64 656L66 660Q73 660 89 659T122 657T155 655T178 654H213Q221 654 235 655T259 658L264 655Q265 642 271 621T287 572T308 515T330 454L398 269Q415 221 429 188T454 128Q457 133 471 166T505 249T549 358T593 473T629 578T648
654L653 658Q661 656 670 655T687 654H723Q730 654 746 655T779 657T812 659T835 660L837 656L834 638L829 634Q813 634 799 633T776 624Q768 618 760 606T751 567Q751 553 751 541T752 513T754 474T759 415L771 231Q774 195 775 173T778 135T781 110T785 87Q789
59 797 48T813 30Q822 23 836 22T867 20L872 16L875 -2L874 -6Z" />
<glyph unicode="N" glyph-name="N" horiz-adv-x="746" d="M708 656L706 638L701 634Q685 634 671 633T648 624Q640 617 634 606T625 567Q624 553 624 541T623 513T622 474T622 415V239Q622 183 622 147T623 86T625 40T629 -4L621 -9L559 -5L549 7L193 540Q193
530 193 520T192 496T192 462T192 415V231Q192 219 192 200T192 159T193 119T195 87Q197 62 203 50T220 30Q228 24 241 22T274 20L279 16L282 -2L280 -6Q273 -6 259 -5T228 -3T198 -1T176 0H157Q150 0 134 -1T101 -3T68 -5T45 -6L43 -2L46 16L51 20Q69 20 81 21T104
30Q111 35 118 46T129 87Q130 94 130 103T131 127T131 161T131 211V414Q131 449 131 473T131 514T131 543T129 567Q127 588 120 602T104 624Q95 631 82 632T51 634L46 638L43 656L45 660Q52 660 65 659T93 657T120 655T141 654H176Q184 654 198 655T222 658L227
655Q231 641 243 617T273 562T311 498T353 431Q429 309 485 232T558 132Q558 139 558 145T559 159T559 179T559 211V414Q559 449 559 473T559 514T558 543T556 567Q554 595 547 606T532 624Q523 631 509 632T478 634L474 638L471 656L473 660Q480 660 493 659T519
657T546 655T566 654H613Q620 654 633 654T660 656T687 658T707 660L708 656Z" />
<glyph unicode="O" glyph-name="O" horiz-adv-x="763" d="M382 665Q460 665 521 638T623 565T687 457T709 329Q709 263 688 202T624 93T520 18T375 -11Q295 -11 236 16T136 88T75 194T55 322Q55 393 77 455T141 564T244 638T382 665ZM381 42Q441 42 487 64T566
126T615 217T632 328Q632 388 615 440T564 530T484 590T376 612Q317 612 272 591T195 531T149 442T133 329Q133 262 151 209T202 119T280 62T381 42Z" />
<glyph unicode="P" glyph-name="P" horiz-adv-x="549" d="M288 -6Q281 -6 265 -5T232 -3T199 -1T176 0H157Q150 0 134 -1T101 -3T68 -5T45 -6L43 -2L46 16L51 20Q63 20 79 21T104 29Q112 35 119 48T129 87Q129 94 129 103T130 127T131 161T131 211V471Q131 491
131 516T129 567Q127 593 120 605T104 624Q95 629 86 631T51 634L46 638L43 656L45 660Q52 660 63 659T87 657T113 655T137 654H173Q184 654 198 654T226 654T253 655T273 655Q340 655 386 642T462 605T504 548T518 474Q518 416 494 379T433 320T349 290T258 282H202Q202
255 202 225T202 168T203 119T205 87Q207 58 215 47T229 30Q238 25 247 23T283 20L287 16L290 -2L288 -6ZM293 326Q377 326 413 364T449 469Q449 538 408 572T294 606H207Q205 577 205 557T203 522T202 495T202 472V363Q202 350 203 343T208 332T219 327T240 326H293Z"
/>
<glyph unicode="Q" glyph-name="Q" horiz-adv-x="763" d="M382 665Q460 665 521 638T623 565T687 458T709 330Q709 266 689 207T630 101T533 24T399 -10Q451 -11 491 -22T568 -46T638 -71T714 -82Q728 -82 747 -79T789 -63L792 -65L796 -73L795 -77Q773 -103 743
-120T675 -138Q641 -138 605 -124T530 -93T449 -62T361 -48Q323 -48 289 -57T237 -78L234 -77L229 -63L230 -60Q252 -45 289 -30T369 -11Q291 -10 232 17T134 89T75 195T55 322Q55 393 77 455T141 564T244 638T382 665ZM381 42Q441 42 487 64T566 126T615 217T632
328Q632 388 615 440T564 530T484 590T376 612Q317 612 272 591T195 531T149 442T133 329Q133 262 151 209T202 119T280 62T381 42Z" />
<glyph unicode="R" glyph-name="R" horiz-adv-x="638" d="M288 -6Q281 -6 265 -5T232 -3T199 -1T176 0H157Q150 0 134 -1T101 -3T68 -5T45 -6L43 -2L46 16L51 20Q63 20 79 21T104 29Q112 35 119 48T129 87Q129 94 129 103T130 127T131 161T131 211V471Q131 491
131 516T128 567Q126 590 119 603T104 624Q95 629 86 631T51 634L46 638L43 656L45 660Q52 660 63 659T87 657T113 655T137 654H173Q184 654 198 654T226 654T253 655T273 655Q340 655 386 642T462 607T504 553T518 485Q518 442 503 411T463 357T409 321T350 300Q382
255 416 211T486 125Q506 102 523 84T559 53T603 32T661 20L667 16L669 -2L667 -6Q645 -7 617 -8T573 -10Q547 -10 528 -4T491 15T455 49T412 99Q409 102 395 122T360 171T317 232T275 293H202Q202 266 202 234T202 173T203 121T205 87Q207 58 215 47T229 30Q238
25 247 23T283 20L287 16L290 -2L288 -6ZM293 337Q376 337 412 375T449 479Q449 540 408 573T294 606H207Q205 577 205 557T203 522T202 495T202 472V374Q202 361 203 354T208 343T219 338T240 337H293Z" />
<glyph unicode="S" glyph-name="S" horiz-adv-x="551" d="M138 508Q138 480 148 462T178 429T230 404T305 379Q342 367 378 352T442 314T488 257T505 175Q505 124 485 89T432 31T356 -1T264 -11Q202 -11 151 3T59 38L55 51L72 158H97L102 152Q107 91 151 63T271
34Q349 34 388 69T428 162Q428 197 413 220T374 260T318 288T254 310Q214 323 180 338T120 375T80 425T65 494Q65 541 81 573T127 626T194 656T278 665Q332 665 380 655T458 631L462 620L448 531H420L415 536Q413 562 398 578T363 603T319 615T277 618Q212 618
175 590T138 508Z" />
<glyph unicode="T" glyph-name="T" horiz-adv-x="589" d="M431 -6Q424 -6 409 -5T377 -3T345 -1T323 0H266Q259 0 244 -1T213 -3T181 -5T159 -6L157 -2L160 16L165 20Q181 20 201 21T229 30Q237 37 246 48T257 87Q258 94 258 103T259 127T260 161T260 211V414Q260
479 259 529T257 606H246Q196 606 164 606T113 604T84 600T70 595Q48 583 43 543L39 539H16L23 653L27 662L33 665Q41 662 68 660T127 656T188 655T231 654H357Q370 654 399 654T461 656T520 659T555 665L561 662L565 653L573 539H549L545 543Q540 583 518 595Q514
598 505 600T476 603T424 605T343 606H332Q331 577 331 530T330 415V231Q330 195 330 173T330 135T331 110T333 87Q335 59 344 48T361 30Q369 23 389 22T425 20L430 16L433 -2L431 -6Z" />
<glyph unicode="U" glyph-name="U" horiz-adv-x="723" d="M697 656L694 638L690 634Q674 634 660 633T636 624Q628 617 621 606T612 567Q611 555 611 543T610 514T609 473T609 414V222Q609 173 595 131T550 57T475 7T368 -11Q298 -11 250 7T171 56T128 130T114
222V414Q114 449 114 473T114 514T114 543T112 567Q110 594 103 605T87 624Q78 631 64 632T34 634L29 638L26 656L28 660Q35 660 51 659T84 657T117 655T140 654H159Q166 654 182 655T215 657T248 659T271 660L273 656L270 638L266 634Q250 634 236 633T212 624Q204
617 197 606T188 567Q187 553 187 541T186 513T185 474T185 415V250Q185 142 233 95T368 48Q454 48 503 95T552 250V415Q552 451 552 474T552 513T551 541T549 567Q547 595 540 606T524 624Q516 631 502 632T471 634L466 638L463 656L465 660Q472 660 486 659T515
657T545 655T566 654H588Q595 654 610 655T641 657T673 659T695 660L697 656Z" />
<glyph unicode="V" glyph-name="V" horiz-adv-x="674" d="M302 -11L139 443Q128 473 121 493T108 527T98 550T91 567Q80 592 69 605T45 625T21 633T-5 634L-10 638L-12 656L-11 660Q-4 660 9 659T38 657T67 655T88 654H122Q129 654 145 655T178 657T212 659T235
660L237 656L234 638L229 634Q200 634 184 628T168 592Q168 569 183 528T222 423L290 239Q309 187 323 146T350 74Q361 103 376 143T412 239L480 423Q503 486 518 527T534 592Q534 621 518 627T473 634L468 638L466 656L468 660Q475 660 490 659T521 657T552 655T574
654H593Q600 654 613 655T642 657T671 659T692 660L694 656L691 638L686 634Q673 634 661 633T637 626T614 606T590 567Q587 559 582 547T563 502T526 408T460 240Q446 205 432 168T404 97T380 37T366 0L314 -11H302Z" />
<glyph unicode="W" glyph-name="W" horiz-adv-x="1096" d="M302 -11L139 443Q128 473 121 493T108 527T98 550T91 567Q80 592 69 605T45 625T21 633T-5 634L-10 638L-12 656L-11 660Q-4 660 9 659T38 657T67 655T88 654H122Q129 654 145 655T178 657T212 659T235
660L237 656L234 638L229 634Q200 634 184 628T168 592Q168 569 183 528T222 423L290 239Q309 187 323 146T350 74Q361 103 376 143T412 239L480 423Q494 462 505 492T525 546Q520 562 514 577T498 604T473 624T436 634L431 638L429 656L430 660Q437 660 450 659T478
657T506 655T527 654H560Q567 654 582 655T614 657T646 659T668 660L670 656L667 638L662 634Q651 634 639 631T616 620T599 603T592 580Q592 570 594 566Q600 541 613 506T644 423L712 239Q731 188 746 146T772 74Q783 103 798 143T834 239L902 423Q925 486 940
527T956 592Q956 621 940 627T895 634L891 638L888 656L890 660Q897 660 912 659T943 657T974 655T996 654H1015Q1022 654 1035 655T1064 657T1093 659T1114 660L1116 656L1113 638L1108 634Q1095 634 1083 633T1059 626T1036 606T1012 567Q1009 559 1004 547T985
502T948 408T882 240Q868 205 854 168T826 97T802 37T788 0L736 -11H724L550 471Q536 436 515 381T460 240Q447 205 432 168T404 97T380 37T366 0L314 -11H302Z" />
<glyph unicode="X" glyph-name="X" horiz-adv-x="662" d="M215 622Q204 614 204 605Q204 600 207 593T213 581Q230 550 244 526T273 479T302 433T337 381Q358 408 377 436T411 490T436 535T451 566Q453 571 455 578T457 594Q457 606 451 613T435 623T413 629T390
634L385 638V656L390 660Q419 655 438 655T482 654H540Q564 654 583 655T631 660L635 656V638L631 634Q609 631 593 625T563 609T536 584T508 548Q476 503 456 473T420 421T392 380T364 339Q399 288 429 243T484 162T523 105T543 77Q553 66 561 58T582 42T612 30T657
20L666 13V-1L660 -7Q636 -4 607 -2T555 1H515Q492 1 461 -1T402 -7L397 -1V14L402 20Q425 22 444 31T463 58Q463 69 449 96T415 156T371 225T327 288Q304 258 281 227T238 167T203 115T181 78Q177 70 177 60Q177 52 179 46T189 35T212 27T252 20L258 14V0L252
-6Q223 -1 196 -1T146 0H99Q76 0 53 -1T1 -6L-4 0V13L4 20Q26 23 42 27T71 40T98 60T127 94Q154 129 197 189T297 330Q281 352 261 381T219 442T174 508T129 577Q121 588 113 598T96 615Q85 624 70 628T34 634L26 638V656L32 660Q78 654 120 654H163Q186 654 216
655T274 660L279 656V638L274 634Q254 633 239 631T215 622Z" />
<glyph unicode="Y" glyph-name="Y" horiz-adv-x="612" d="M428 -6Q421 -6 405 -5T372 -3T339 -1T316 0H297Q290 0 274 -1T241 -3T207 -5T184 -6L183 -2L185 16L190 20Q206 20 220 21T243 30Q251 37 258 48T268 87Q269 94 269 103T270 127T271 161T271 211V250Q271
278 263 295T247 327Q232 354 214 385T175 449T134 514T94 577Q87 588 78 598T62 615Q51 624 36 628T0 634L-8 638V656L-3 660Q21 657 42 655T86 652H128Q151 652 181 654T240 660L244 656V638L240 634Q220 633 205 631T181 622Q169 613 169 605Q169 600 172 593T179
581Q215 515 247 456T317 332Q334 361 353 396T391 465T422 526T441 564Q443 569 447 580T451 599Q451 611 444 617T427 626T404 630T380 634L376 638V656L380 660Q409 655 428 655T472 654H530Q554 654 574 655T622 660L626 656V638L622 634Q599 631 583 626T554
613T528 590T501 554Q472 510 451 476T412 414T382 361T355 314Q351 308 346 294T341 264V229Q341 193 341 171T341 134T342 109T344 87Q346 59 353 48T369 30Q377 23 391 22T422 20L427 16L430 -2L428 -6Z" />
<glyph unicode="Z" glyph-name="Z" horiz-adv-x="614" d="M56 546L72 654L80 662Q207 656 292 655T404 654H470Q476 654 486 654T508 656T531 658T552 662L560 651L555 626Q537 607 503 563T428 463T344 342T264 221T201 118T168 51L173 48H253Q342 48 395 49T477
59T518 82T537 127L543 133H570L552 4L543 -6Q539 -6 522 -6T482 -4T433 -3T382 -2T338 -1T309 0H149Q127 0 100 -2T46 -6L36 5V28Q56 48 88 89T159 183T237 296T313 413T377 519T420 601L415 606H273Q217 606 183 605T128 597T99 579T86 544L80 539H62L56 546Z"
/>
<glyph unicode="[" glyph-name="bracketleft" horiz-adv-x="278" d="M262 751L260 733L255 729Q247 729 237 729T216 727T196 724T183 719Q175 712 168 701T158 662Q156 634 156 594T155 482V231Q155 195 155 158T155 87T156 29T158 -8Q160 -36 167 -47T183 -65Q187
-68 196 -70T215 -73T236 -74T255 -75L260 -79L262 -97L261 -101Q254 -101 240 -100T210 -98T180 -96T158 -95H82L80 -91Q88 -24 90 56T92 211V481Q92 506 92 538T91 607T87 678T80 745L82 749H158Q165 749 179 750T209 752T239 754T261 755L262 751Z" />
<glyph unicode="\" glyph-name="backslash" horiz-adv-x="434" d="M393 -57H315L312 -53Q296 14 269 94T214 249L147 433Q138 458 126 491T99 559T70 631T39 698V702H117L120 698Q127 667 137 631T160 560T184 491T205 433L271 249Q298 174 329 94T394 -53L393 -57Z" />
<glyph unicode="]" glyph-name="bracketright" horiz-adv-x="278" d="M17 755Q24 755 38 754T68 752T98 750T120 749H196L198 745Q193 714 191 679T188 607T186 539T186 481V211Q186 137 188 57T198 -91L196 -95H120Q113 -95 99 -96T69 -98T39 -100T17 -101L16
-97L18 -79L23 -75Q31 -75 41 -75T62 -73T82 -70T95 -65Q103 -58 110 -47T120 -8Q121 4 121 29T122 87T123 157T123 231V482Q123 554 123 594T120 662Q118 690 111 701T95 719Q91 722 82 724T63 727T42 728T23 729L18 733L16 751L17 755Z" />
<glyph unicode="^" glyph-name="asciicircum" horiz-adv-x="348" d="M178 673L288 574L291 567L285 548L278 545L174 606L70 545L63 548L57 567L60 574L170 673H178Z" />
<glyph unicode="_" glyph-name="underscore" horiz-adv-x="463" d="M448 0V-52H15V0H448Z" />
<glyph unicode="`" glyph-name="grave" horiz-adv-x="219" d="M205 549L4 626Q0 635 0 645Q0 659 9 669T35 680L216 579L219 572L213 552L205 549Z" />
<glyph unicode="a" glyph-name="a" horiz-adv-x="496" d="M324 7Q327 18 328 40T333 81L332 84Q319 66 301 49T262 19T216 -3T164 -11Q133 -11 109 0T69 29T45 71T37 121Q37 158 54 185T99 231Q125 247 160 257T229 271T290 277T326 279H340Q339 316 336 337T328
373Q317 403 290 416T225 430Q209 430 191 427T156 416T127 394T113 356L109 353H87L78 427L81 433Q86 439 102 446T139 459T187 470T240 475Q276 475 307 466T360 437T396 390T409 323Q409 281 409 249T407 189T406 135T405 78Q407 55 410 45T420 29Q428 21 443
20T475 18L479 14L480 0L479 -4Q461 -2 440 -1T399 0Q361 0 330 -3L324 7ZM324 115Q327 120 330 127T335 144L340 244H331Q291 244 251 240T180 222T128 186T108 127Q108 89 130 67T187 44Q208 44 229 51T268 69T301 92T324 115Z" />
<glyph unicode="b" glyph-name="b" horiz-adv-x="599" d="M166 80Q166 60 170 39T179 7L172 0H126Q119 0 105 0T75 -1T45 -3T23 -4L22 0L23 14L27 18Q43 18 58 19T82 29Q90 36 92 47T97 78L98 87Q98 96 98 107T99 135T100 175T100 234V474Q100 515 100 543T100
593T99 629T97 662Q96 673 92 681T84 693Q74 704 59 707T28 710L24 714V727L28 731H46Q63 731 89 731T134 735L169 740L175 731Q173 727 172 717T169 694T168 671T167 654Q167 638 167 624T167 591T166 545T166 476Q166 433 165 414T163 382L166 380Q195 422 237
448T332 475Q389 475 430 455T499 402T539 327T552 238Q552 170 531 123T478 46T407 3T333 -11Q285 -11 243 10T169 82L166 80ZM476 236Q476 270 467 303T440 361T393 402T327 418Q288 418 258 403T208 367T177 324T166 285V176Q169 160 180 138T210 94T258 59T325
44Q364 44 392 60T439 104T467 165T476 236Z" />
<glyph unicode="c" glyph-name="c" horiz-adv-x="509" d="M427 353L423 356Q423 379 410 393T377 416T337 427T299 430Q253 430 220 414T164 370T132 307T121 234Q121 196 132 161T168 99T228 56T314 40Q348 40 389 50T461 77L471 67L456 39Q445 31 428 23T388
7T341 -6T290 -11Q241 -11 197 6T119 55T65 131T45 230Q45 285 65 330T120 407T201 457T301 475Q349 475 391 463T456 439L459 430L448 353H427Z" />
<glyph unicode="d" glyph-name="d" horiz-adv-x="599" d="M420 7Q423 18 425 40T430 79L429 83Q401 41 360 15T266 -11Q209 -11 168 9T100 62T60 137T47 226Q47 294 68 341T121 418T191 461T265 475Q313 475 357 454T432 381L434 385Q432 408 432 429T432 474Q432
515 432 543T432 593T431 630T429 662Q428 673 424 681T416 693Q406 704 391 707T360 710L356 714V727L360 731H378Q395 731 421 731T466 735L501 740L507 731Q505 727 504 717T502 694T501 671T500 654Q500 638 500 624T499 591T499 545T498 476V258Q498 216 498
189T499 143T500 110T502 78Q504 55 507 45T516 29Q525 21 540 20T571 18L575 14L577 0L575 -4Q557 -2 537 -1T495 0Q458 0 427 -3L420 7ZM123 228Q123 194 132 161T159 103T205 62T272 46Q309 46 338 60T388 94T419 136T432 174V285Q430 301 420 324T390 368T342
405T274 420Q234 420 206 404T159 360T132 299T123 228Z" />
<glyph unicode="e" glyph-name="e" horiz-adv-x="525" d="M480 269L464 262Q410 262 353 261T241 260H123Q122 253 122 247T122 234Q122 196 133 162T167 101T228 60T318 44Q349 44 384 50T450 74L460 68V50L450 39Q426 20 382 5T284 -11Q231 -11 188 6T113 56T64
132T46 230Q46 285 64 330T113 407T187 457T279 475Q305 475 337 468T400 442T454 387T487 293L480 269ZM280 430Q248 430 223 420T178 392T146 351T128 301H167Q221 301 272 302T379 307Q392 308 396 314T401 328Q401 334 400 339T397 349Q386 387 356 408T280
430Z" />
<glyph unicode="f" glyph-name="f" horiz-adv-x="333" d="M305 413H178V258Q178 216 178 188T178 140T180 106T182 78Q184 63 186 50T197 29Q202 25 211 23T231 20T252 19T268 18L273 13L275 0L273 -4Q266 -4 251 -3T218 -2T186 -1T163 0H139Q132 0 118 0T87 -1T57
-3T35 -4L34 0L35 14L39 18Q55 18 70 19T94 29Q100 35 104 44T109 76T111 135T112 234V413H38L34 418V436L38 440L112 455V512Q112 619 152 682T269 745Q292 745 319 738T375 715L380 705L368 628H342Q338 660 313 678T255 696Q226 696 211 685T188 654T179 611T178
561V455L305 461L310 457V418L305 413Z" />
<glyph unicode="g" glyph-name="g" horiz-adv-x="506" d="M151 136Q97 156 73 199T49 294Q49 331 62 364T99 421T158 460T237 474Q263 474 288 469T333 455Q375 456 411 460T480 473L485 469L478 414L473 409L382 413L381 410Q407 389 419 355T431 289Q431 256
419 226T382 174T322 138T239 124Q231 124 219 124T199 125Q182 118 174 106T165 86Q165 76 178 69T222 58L319 48Q352 44 380 34T430 8T464 -32T476 -87Q476 -116 463 -145T424 -198Q398 -220 352 -234T246 -248Q192 -248 153 -237T87 -206T47 -162T34 -111Q34
-69 61 -37T132 9L133 12Q111 21 98 34T85 68Q85 94 106 110T151 132V136ZM241 166Q269 166 290 176T327 203T350 242T358 289Q358 314 350 339T327 384T288 417T235 430Q206 430 185 418T149 387T127 345T120 298Q120 274 127 251T150 208T188 178T241 166ZM209
-5Q181 -6 160 -15T125 -37T103 -67T96 -100Q96 -138 138 -162T252 -186Q285 -186 313 -181T361 -164T394 -136T406 -97Q406 -73 395 -58T365 -34T323 -20T276 -12L209 -5Z" />
<glyph unicode="h" glyph-name="h" horiz-adv-x="597" d="M425 7Q429 20 431 41T434 78Q436 120 437 160T438 228Q438 251 437 278T430 325Q420 372 389 395T317 418Q284 418 256 404T207 369T176 326T164 288Q164 234 164 202T164 147T165 111T168 78Q170 57
172 47T183 29Q191 22 205 20T235 18L240 13L242 0L240 -4Q233 -4 219 -3T189 -2T159 -1T138 0H124Q117 0 103 0T73 -1T43 -3T21 -4L20 0L21 14L25 18Q41 18 56 19T80 29Q88 36 90 47T95 78Q96 91 96 104T97 134T98 175T98 234V474Q98 515 98 543T98 593T97 630T95
662Q94 673 90 681T82 693Q72 704 57 707T26 710L22 714V727L26 731H44Q61 731 87 731T132 735L167 740L173 731Q171 727 170 717T168 694T167 671T167 654Q167 622 166 578T164 476Q164 434 164 410T161 372L164 370Q189 414 231 444T335 475Q363 475 391 467T443
442T482 399T502 337Q505 311 505 278T506 223V82Q506 59 510 47T521 29Q530 21 545 20T577 18L580 14L582 0L580 -4Q563 -2 542 -1T501 0Q463 0 432 -3L425 7Z" />
<glyph unicode="i" glyph-name="i" horiz-adv-x="276" d="M252 -4Q245 -4 231 -3T201 -2T171 -1T150 0H136Q129 0 115 0T85 -1T55 -3T33 -4L32 0L33 14L37 18Q53 18 68 19T92 29Q100 36 102 47T107 78Q108 94 109 110T110 163V286Q110 307 110 321T110 347T109
367T107 386Q105 397 101 405T94 417Q84 429 69 431T38 434L34 438V452L38 455H56Q73 455 99 455T144 459L179 464L185 455Q183 451 182 441T180 420T179 397T178 380Q178 372 178 365T177 347T177 323T176 287V175Q176 153 176 139T177 115T178 97T180 78Q182
57 184 47T195 29Q203 22 217 20T247 18L252 13L254 0L252 -4ZM84 631Q84 651 97 665T131 680Q151 680 165 666T180 631Q180 611 166 598T131 584Q111 584 98 597T84 631Z" />
<glyph unicode="j" glyph-name="j" horiz-adv-x="252" d="M23 452L27 455H45Q62 455 88 455T133 459L168 464L173 455Q171 451 171 441T169 419T168 396T167 378Q167 369 167 358T166 331T165 290T165 232V-4Q165 -51 157 -93T132 -168T91 -224T35 -257Q25 -259
17 -259T-1 -260L-9 -258L-11 -239L-7 -234Q13 -234 28 -231T59 -210Q82 -186 88 -148T96 -62Q96 -56 96 -36T97 12T98 70T98 128T99 176T99 204Q99 214 99 237T99 287T98 341T96 385Q95 396 91 405T83 417Q73 429 58 431T27 434L23 438V452ZM73 631Q73 651 86
665T120 680Q140 680 154 666T169 631Q169 611 155 598T120 584Q100 584 87 597T73 631Z" />
<glyph unicode="k" glyph-name="k" horiz-adv-x="525" d="M22 727L26 731H44Q61 731 87 731T132 735L167 740L173 731Q171 727 170 717T168 694T167 671T167 654Q167 638 167 624T166 591T165 545T164 476V238L283 348Q285 350 292 357T308 371T323 386T334 397Q343
407 343 415Q343 427 328 432T297 439L293 443V455L297 459Q316 457 335 455T374 453H402Q421 453 440 455T480 459L483 455V441L478 436Q468 434 454 432T429 422Q414 413 398 401T365 374T333 346T304 319L263 281Q268 274 276 262T300 230L389 120Q403 103 416
86T445 54T479 29T520 18L523 14L525 0L523 -4Q506 -6 485 -6T443 -7Q415 -7 390 18Q387 21 371 37T338 73L258 176Q241 199 231 210T210 233Q188 213 180 204T164 187Q164 167 164 153T165 127T166 104T168 78Q169 57 172 47T183 29Q191 22 205 20T235 18L240
13L242 0L240 -4Q233 -4 219 -3T189 -2T159 -1T138 0H124Q117 0 103 0T73 -1T43 -3T21 -4L20 0L21 14L25 18Q41 18 56 19T80 29Q88 36 90 47T95 78Q96 91 96 104T97 134T98 175T98 234V474Q98 515 98 543T98 593T97 630T95 662Q94 673 90 681T82 693Q72 704 57
707T26 710L22 714V727Z" />
<glyph unicode="l" glyph-name="l" horiz-adv-x="270" d="M26 727L30 731H48Q65 731 91 731T136 735L172 740L178 731Q176 727 175 717T173 694T172 671T171 654Q170 638 170 624T169 591T168 545T168 476V258Q168 216 168 189T169 143T170 110T172 78Q174 57
176 47T187 29Q195 22 209 20T239 18L244 13L246 0L244 -4Q237 -4 223 -3T193 -2T163 -1T142 0H128Q121 0 107 0T77 -1T47 -3T25 -4L24 0L25 14L29 18Q45 18 60 19T84 29Q92 36 94 47T99 78Q100 91 100 104T101 134T102 175T102 234V474Q102 515 102 543T102 593T101
630T99 662Q98 673 94 681T86 693Q76 704 61 707T30 710L26 714V727Z" />
<glyph unicode="m" glyph-name="m" horiz-adv-x="924" d="M34 452L38 455H56Q73 455 99 455T144 459L179 464L185 455Q183 449 182 440T179 419T176 396T175 377L178 375Q189 395 203 413T237 445T280 467T335 475Q361 475 386 469T432 449T470 414T496 362Q508
384 522 404T556 440T601 465T660 475Q689 475 716 467T766 442T805 399T828 336Q833 310 833 281T834 223V78Q834 55 838 45T849 29Q857 21 872 20T904 18L908 14L910 0L908 -4Q890 -2 870 -1T828 0Q791 0 760 -3L753 7Q757 20 759 41T762 78Q763 93 763 115T764
159T765 202T765 233Q765 253 764 283T757 335Q747 376 717 397T648 418Q620 418 597 408T555 382T525 347T506 311Q508 289 508 267T509 223V78Q509 57 513 47T525 29Q533 22 547 20T577 18L582 13L584 0L582 -4Q575 -4 561 -3T531 -2T501 -1T480 0H466Q459 0
445 0T415 -1T385 -3T363 -4L361 0L363 14L367 18Q383 18 398 19T422 29Q430 36 432 47T436 78Q437 93 437 115T438 159T439 202T440 233Q440 243 440 256T439 284T437 311T432 335Q421 376 391 397T323 418Q290 418 263 404T217 369T187 326T176 287V175Q176 153
176 139T177 115T178 97T180 78Q182 57 184 47T195 29Q203 22 217 20T247 18L252 13L254 0L252 -4Q245 -4 231 -3T201 -2T171 -1T150 0H136Q129 0 115 0T85 -1T55 -3T33 -4L32 0L33 14L37 18Q53 18 68 19T92 29Q100 36 102 47T107 78Q108 94 109 110T110 163V286Q110
307 110 321T110 347T109 367T107 386Q105 397 101 405T94 417Q84 429 69 431T38 434L34 438V452Z" />
<glyph unicode="n" glyph-name="n" horiz-adv-x="609" d="M178 374Q204 417 245 446T347 475Q375 475 403 467T454 442T493 399T514 336Q517 310 517 281T518 223Q518 187 518 151T519 78Q521 55 524 45T533 29Q542 21 557 20T589 18L592 14L594 0L592 -4Q575
-2 554 -1T513 0Q475 0 444 -3L437 7Q441 20 443 41T446 78Q448 120 449 160T450 228Q450 251 449 278T442 325Q432 372 401 395T329 418Q296 418 268 404T219 370T188 327T176 288V175Q176 153 176 139T176 115T178 97T180 78Q182 57 184 47T195 29Q203 22 217
20T247 18L252 13L254 0L252 -4Q245 -4 231 -3T201 -2T171 -1T150 0H136Q129 0 115 0T85 -1T55 -3T33 -4L32 0L33 14L37 18Q53 18 68 19T92 29Q100 36 102 47T107 78Q108 94 109 110T110 163V286Q110 307 110 321T110 347T109 367T107 386Q105 397 101 405T94 417Q84
429 69 431T38 434L34 438V452L38 455H56Q73 455 99 455T144 459L179 464L185 455Q180 442 178 420T175 376L178 374Z" />
<glyph unicode="o" glyph-name="o" horiz-adv-x="583" d="M291 475Q350 475 396 455T473 400T521 320T538 227Q538 181 523 138T477 62T400 9T293 -11Q230 -11 183 10T106 65T60 142T45 232Q45 281 62 325T110 402T187 455T291 475ZM292 28Q334 28 366 45T419
90T450 153T461 227Q461 263 450 300T416 366T362 414T288 433Q244 433 213 416T161 370T130 306T120 234Q120 197 131 161T165 95T219 47T292 28Z" />
<glyph unicode="p" glyph-name="p" horiz-adv-x="598" d="M168 384Q197 425 238 450T331 475Q388 475 429 455T498 402T538 327T551 238Q551 170 530 123T477 46T406 3T332 -11Q284 -11 240 11T165 85L162 83Q163 69 164 50T165 -5Q165 -46 165 -71T165 -115T166
-147T169 -179Q171 -199 173 -210T184 -227Q192 -235 206 -237T236 -239L241 -243L243 -257L241 -260Q234 -260 220 -260T190 -259T160 -258T139 -257H125Q118 -257 104 -257T74 -258T44 -259T22 -260L21 -257L22 -242L26 -239Q42 -239 57 -237T81 -227Q89 -220
91 -210T96 -179Q97 -166 97 -154T98 -124T99 -84T99 -28V205Q99 245 99 272T99 319T98 354T96 386Q95 397 91 405T83 417Q73 429 58 431T27 434L23 438V452L27 455H45Q62 455 88 455T133 459L168 464L174 455Q172 451 171 443T168 424T166 403T165 385L168 384ZM475
236Q475 270 466 303T439 361T392 402T326 418Q288 418 259 404T210 370T178 327T165 289V179Q168 163 178 140T207 96T256 59T324 44Q363 44 391 60T438 104T466 165T475 236Z" />
<glyph unicode="q" glyph-name="q" horiz-adv-x="597" d="M433 388Q433 395 432 405T430 425T427 443T424 455L430 464L465 459Q483 456 509 456T552 455H570L574 452V438L570 434Q554 434 540 432T514 417Q511 414 507 406T502 386Q501 368 500 353T499 319T498
274T498 206V-5Q498 -46 498 -71T499 -115T500 -147T502 -179Q504 -199 506 -210T517 -227Q525 -235 539 -237T569 -239L574 -243L576 -257L574 -260Q567 -260 553 -260T523 -259T493 -258T472 -257H458Q451 -257 437 -257T407 -258T377 -259T355 -260L354 -257L355
-242L359 -239Q375 -239 390 -237T414 -227Q422 -221 424 -210T429 -179Q430 -166 430 -154T431 -124T432 -84T432 -28Q432 -6 432 10T432 40T433 63T435 85L432 87Q403 43 362 16T266 -11Q209 -11 168 9T100 62T60 137T47 226Q47 294 68 341T121 418T191 461T265
475Q312 475 355 455T430 386L433 388ZM123 228Q123 194 132 161T159 103T205 62T272 46Q309 46 338 60T388 94T420 137T432 175V285Q430 301 420 324T390 368T342 405T274 420Q234 420 206 404T159 360T132 299T123 228Z" />
<glyph unicode="r" glyph-name="r" horiz-adv-x="408" d="M177 354Q187 373 199 394T228 433T264 463T311 475Q329 475 351 470T382 455L390 446L378 369H345Q342 383 330 394T291 406Q266 406 245 392T209 355T185 309T176 264V175Q176 153 176 140T177 117T178
101T179 87L180 78Q182 63 184 50T195 29Q200 25 209 23T229 20T250 19T266 18L271 13L273 0L271 -4Q264 -4 249 -3T216 -2T184 -1T161 0H137Q130 0 116 0T85 -1T55 -3T33 -4L32 0L33 14L37 18Q53 18 68 19T92 29Q100 36 102 47T107 78L108 87Q109 97 109 112T110
163V286Q110 307 110 321T110 347T109 367T107 386Q105 397 101 405T94 417Q84 429 69 431T38 434L34 438V452L38 455H56Q73 455 99 455T144 459L179 464L185 455Q179 434 177 407T174 355L177 354Z" />
<glyph unicode="s" glyph-name="s" horiz-adv-x="439" d="M270 265Q312 256 337 241T377 207T395 171T400 136Q400 104 387 77T350 31T290 0T211 -11Q162 -11 120 0T52 25L50 34L65 137H88L91 133Q91 85 121 58T208 30Q242 30 265 38T301 59T321 87T327 116Q327
125 326 136T318 159T297 181T257 199L161 223Q128 231 107 244T74 272T57 305T52 341Q52 374 65 399T100 441T153 466T218 475Q265 475 304 463T366 439L369 430L358 353H337L333 356Q333 379 321 394T290 419T252 433T217 437Q167 437 145 412T123 356Q123 333
138 313T199 281L270 265Z" />
<glyph unicode="t" glyph-name="t" horiz-adv-x="326" d="M296 413H166Q166 348 166 293T165 197T165 130T164 99Q164 60 179 47T214 34Q231 34 253 40T290 55L299 48L290 20Q267 4 239 -3T188 -11Q137 -11 116 17T95 89Q95 98 96 126T98 196T100 293T101 413H29L25
418V437L29 441L101 455Q101 490 100 526T96 598L103 604L117 605Q125 606 143 609T168 616L177 612Q174 598 172 580T169 540T167 497T166 455L296 461L301 457V418L296 413Z" />
<glyph unicode="u" glyph-name="u" horiz-adv-x="599" d="M429 86Q403 44 363 17T263 -11Q234 -11 208 -5T159 17T120 57T97 120Q92 146 92 174T92 232Q92 245 92 267T91 313T91 357T91 386Q91 397 86 405T78 418Q68 429 53 431T22 434L19 438V452L22 455H40Q57
455 83 455T128 459L163 464L169 455Q167 451 166 441T164 418T163 395T163 378Q163 361 163 341T162 299T161 259T160 227Q160 205 161 178T168 130Q178 83 209 60T281 37Q312 37 338 49T383 80T415 118T432 156V286Q432 307 432 321T431 347T430 367T428 386Q426
397 423 405T416 417Q406 429 391 431T360 434L356 438V452L360 455H378Q395 455 421 455T465 459L500 464L506 455Q504 451 503 441T501 418T500 395T500 378Q500 370 500 363T499 346T499 323T498 287V175Q498 153 498 139T499 115T500 97T501 78Q503 55 506
45T516 29Q524 21 539 20T571 18L575 14L577 0L575 -4Q557 -2 536 -1T495 0Q457 0 426 -3L420 7Q423 20 426 41T432 84L429 86Z" />
<glyph unicode="v" glyph-name="v" horiz-adv-x="515" d="M230 -5L220 0L160 160Q157 169 148 193T126 246T102 306T79 362Q69 386 61 400Q51 416 39 425T5 436L-1 441V455L3 459Q20 457 39 455T74 453H113Q129 453 151 455T194 459L198 455V443L194 439Q172 437
158 428T143 400Q143 388 152 358T174 293T197 229T212 189L261 59L309 174Q316 191 328 220T352 282T372 346T381 400Q381 422 365 429T329 439L325 443V455L329 459Q368 453 402 453H443Q460 453 476 455T512 459L516 455V441L510 436Q493 434 481 426T457 400Q448
384 437 360T414 308T391 251T370 197T354 154T344 128L293 0L230 -5Z" />
<glyph unicode="w" glyph-name="w" horiz-adv-x="819" d="M527 0L409 304Q398 276 388 248T368 196T352 153T342 128L291 0L230 -5L220 0L160 160Q157 168 148 191T126 245T102 306T79 362Q69 386 61 400Q51 416 39 425T5 436L-1 441V455L3 459Q20 457 39 455T74
453H113Q129 453 151 455T194 459L198 455V443L194 439Q172 437 158 428T143 400Q143 392 147 375T159 337T174 293T190 248T204 211T212 189L261 59L309 174Q315 189 325 213T346 265T366 322T380 375Q375 394 365 412T323 436L317 441V455L321 459Q338 457 352
455T383 453H422Q455 453 493 459L497 455V443L493 439Q449 434 449 400Q449 392 453 375T465 337T480 293T496 248T510 211T518 189L567 59L615 174Q622 191 634 220T658 282T678 346T687 400Q687 422 671 429T635 439L631 443V455L635 459Q675 453 708 453H749Q766
453 781 455T817 459L820 455V441L815 436Q797 434 785 426T761 400Q751 384 740 360T718 308T695 251T675 197T658 154T648 128L597 0L536 -5L527 0Z" />
<glyph unicode="x" glyph-name="x" horiz-adv-x="525" d="M175 410Q175 406 182 393T203 361T233 318T270 269Q289 292 305 315T333 356T352 388T359 406Q359 426 351 430T320 439L316 443V455L320 459Q340 456 353 455T384 453H425Q442 453 458 455T495 459L499
455V441L493 436Q477 434 465 431T442 421T422 405T402 380Q384 356 371 337T345 302T321 269T296 234Q319 203 342 174T383 121T412 83T426 67Q440 48 457 36T507 18L513 13V-1L509 -5Q492 -3 471 -1T434 1H395Q379 1 358 -1T317 -5L313 -1V11L317 15Q334 16 346
23T358 38Q358 43 355 52T340 78T308 125T254 199Q234 175 215 150T179 104T154 68T144 49Q144 32 156 26T192 16L196 12V0L192 -4Q172 -1 159 -1T129 0H88Q71 0 54 -1T18 -4L14 0V14L20 19Q36 22 46 25T66 33T83 47T103 70Q120 92 153 136T225 236Q201 268 171
309T101 400Q89 415 74 424T35 436L29 441V455L33 459Q50 457 71 455T108 453H147Q163 453 183 455T224 459L228 455V443L224 439Q204 437 190 432T175 410Z" />
<glyph unicode="y" glyph-name="y" horiz-adv-x="514" d="M41 -229Q55 -229 67 -228T92 -224T115 -212T141 -190Q160 -170 174 -148T197 -102L229 -21L160 160Q156 169 147 193T125 246T101 307T79 362Q69 386 61 400Q51 416 39 425T5 436L-1 441V455L3 459Q20
457 39 455T74 453H113Q129 453 151 455T194 459L198 455V443L194 439Q172 437 158 428T143 400Q143 388 152 358T174 293T197 228T212 189L262 59L309 174Q316 191 328 220T352 282T372 346T381 400Q381 422 365 429T329 439L325 443V455L329 459Q368 453 402
453H443Q460 453 475 455T510 459L514 455V441L509 436Q491 434 482 426T461 400Q452 384 441 360T418 308T395 251T374 197T358 154T348 128L250 -116Q224 -181 180 -212T83 -257Q73 -259 65 -259T47 -260L39 -258L37 -234L41 -229Z" />
<glyph unicode="z" glyph-name="z" horiz-adv-x="488" d="M50 350L58 455L61 461Q105 459 148 458T228 456T291 455T327 455H372Q381 455 399 456T430 461L436 453L433 437Q420 424 400 398T355 337T303 263T252 184T206 110T171 48L175 44H226Q286 44 320 46T374
55T402 78T421 121L424 125H446L430 6L425 -4Q422 -4 405 -4T362 -3T308 -2T252 -1T206 -1T180 0H148Q140 0 127 0T98 -1T69 -2T46 -4L39 4V18Q53 32 75 60T124 123T177 199T228 279T272 354T301 414L297 418H202Q163 418 140 415T105 403T87 381T78 349L74 345H57L50
350Z" />
<glyph unicode="{" glyph-name="braceleft" horiz-adv-x="254" d="M227 749Q201 746 187 737T164 712T154 678T152 637Q152 628 152 609T153 569T153 528T154 494Q154 463 150 436T135 386T106 349T60 327Q88 321 106 306T134 268T149 219T154 160Q154 147 154
127T153 85T153 45T152 17Q152 -4 154 -23T164 -58T186 -82T227 -95L225 -106Q182 -106 156 -96T115 -67T96 -22T91 36Q91 47 91 66T92 106T92 149T93 184Q93 204 92 227T84 271T63 306T21 322V332Q48 333 62 348T84 384T92 430T93 473Q93 488 93 508T92 550T92
589T91 618Q91 649 96 675T115 720T155 749T225 760L227 749Z" />
<glyph unicode="|" glyph-name="bar" horiz-adv-x="237" d="M79 -110Q87 -43 89 37T91 192V500Q91 525 91 557T90 626T86 697T79 764L80 768H156L158 764Q153 733 151 698T148 626T146 558T146 500V192Q146 118 148 38T158 -110L156 -114H80L79 -110Z" />
<glyph unicode="}" glyph-name="braceright" horiz-adv-x="253" d="M28 760Q71 760 97 750T138 721T157 676T162 618Q162 607 162 589T162 550T161 509T161 473Q161 454 162 430T170 385T191 348T232 332V322Q205 321 191 307T170 272T162 228T161 184Q161 170
161 149T161 107T162 66T162 36Q162 4 157 -22T138 -66T98 -95T28 -106L26 -95Q51 -92 66 -83T89 -58T99 -24T102 17Q102 26 102 45T101 85T101 126T100 160Q100 191 104 218T119 268T148 305T194 327Q166 333 148 348T120 386T105 435T100 494Q100 507 100 527T101
569T101 609T102 637Q102 658 100 677T90 712T67 736T26 749L28 760Z" />
<glyph unicode="~" glyph-name="asciitilde" horiz-adv-x="479" d="M413 288Q413 285 408 273T393 247T366 222T325 211Q314 211 289 212T235 215T178 218T134 220Q109 220 99 214T79 195L66 202Q66 209 72 222T90 248T119 270T157 279Q170 279 191 278T237 275T288
272T336 270Q353 270 370 274T401 296L413 288Z" />
<glyph unicode="&#xa0;" glyph-name="uni00A0" horiz-adv-x="240" />
<glyph unicode="&#xa1;" glyph-name="exclamdown" horiz-adv-x="225" d="M65 429Q65 448 78 461T112 475Q130 475 144 462T159 429Q159 410 145 396T112 381Q92 381 79 395T65 429ZM153 -222L71 -196L67 -187Q68 -177 69 -164T72 -128T76 -71T80 15T84 139T89
311L95 315L130 298L135 292Q137 188 139 115T144 -9T149 -89T152 -138T155 -168T157 -190Q157 -195 157 -202T158 -219L153 -222Z" />
<glyph unicode="&#xa2;" glyph-name="cent" horiz-adv-x="515" d="M245 -133Q249 -106 251 -75T255 -9Q212 -5 174 11T106 55T60 122T43 212Q43 261 59 300T105 367T172 413T255 435Q254 473 252 509T245 573L247 577H323L325 573Q320 546 318 511T314 437Q359
435 396 424T454 402L457 393L446 316H425L421 319Q421 340 411 353T384 375T349 387T313 392Q312 356 312 324T312 271V188Q312 155 312 117T313 41Q356 42 394 53T459 78L469 68L454 40Q434 26 398 11T315 -9Q317 -42 319 -74T325 -133L323 -137H247L245 -133ZM119
218Q119 151 153 105T255 45Q256 83 256 119T257 188V271Q257 291 257 322T256 390Q221 384 196 369T153 331T128 279T119 218Z" />
<glyph unicode="&#xa3;" glyph-name="sterling" horiz-adv-x="531" d="M148 312Q143 348 139 385T134 457Q134 553 180 609T311 665Q332 665 356 660T402 644T444 613T476 565L463 474H436L432 478Q426 545 402 578T323 612Q291 612 271 601T237 571T219 525T214
466Q214 434 217 395T223 312H372L362 270H225V259Q225 224 221 192T208 131T181 82T137 48L139 45Q228 38 273 34T333 29Q363 29 381 33T409 45T425 66T436 99L441 105H468L431 -34L422 -44Q400 -32 357 -23T262 -9T154 -2T53 1L43 11V34Q76 60 97 85T131 135T148
186T153 239Q153 247 153 254T152 270H50L70 312H148Z" />
<glyph unicode="&#xa4;" glyph-name="currency" horiz-adv-x="580" d="M136 107Q92 161 92 230Q92 262 102 291T137 351L55 431L85 461L165 382Q197 405 226 415T289 426Q324 426 353 416T412 382L493 460L523 431L444 351Q467 320 477 291T488 228Q488 195 478
166T445 107L525 27L494 -3L413 76Q384 54 354 43T291 31Q259 31 230 42T167 76L87 -3L58 27L136 107ZM290 378Q260 378 233 367T186 335T154 288T142 229Q142 198 153 171T185 124T233 92T291 80Q322 80 348 91T395 123T426 171T438 229Q438 260 427 287T395 334T348
366T290 378Z" />
<glyph unicode="&#xa5;" glyph-name="yen" horiz-adv-x="702" d="M393 307Q389 299 386 286T383 254H553V210H383Q383 181 383 163T383 131T384 107T386 87Q388 59 395 48T411 30Q419 23 433 22T464 20L469 16L472 -2L470 -6Q463 -6 447 -5T414 -3T381 -1T358
0H339Q332 0 316 -1T283 -3T249 -5T226 -6L225 -2L227 16L232 20Q248 20 262 21T285 30Q293 37 300 48T310 87Q311 94 311 103T312 127T313 161T313 210H143V254H313Q312 273 309 285T301 307H143V351H276Q246 402 209 462T136 577Q129 588 120 598T104 615Q93
624 78 628T42 634L34 638V656L39 660Q63 657 84 655T128 652H170Q193 652 223 654T282 660L286 656V638L282 634Q262 633 247 631T223 622Q211 613 211 605Q211 600 214 593T221 581Q257 515 289 456T359 332Q376 361 395 396T433 465T464 526T483 564Q485 569
489 580T493 599Q493 611 486 617T469 626T446 630T422 634L418 638V656L422 660Q451 655 470 655T514 654H572Q596 654 616 655T664 660L668 656V638L664 634Q641 631 625 626T596 613T570 590T543 554Q496 484 468 437T418 351H553V307H393Z" />
<glyph unicode="&#xa6;" glyph-name="brokenbar" horiz-adv-x="241" d="M81 384Q85 417 87 441T91 485T92 526T93 572V605Q93 619 93 634T92 667T88 709T81 764L82 768H158L160 764Q155 733 153 710T150 668T148 634T148 605V572Q148 546 148 526T150 486T153
441T160 384L158 380H82L81 384ZM81 -110Q85 -77 87 -53T91 -9T92 32T93 78V110Q93 124 93 139T92 172T88 215T81 270L82 274H158L160 270Q155 239 153 215T150 173T148 139T148 110V78Q148 52 148 32T150 -8T153 -53T160 -110L158 -114H82L81 -110Z" />
<glyph unicode="&#xa7;" glyph-name="section" horiz-adv-x="422" d="M321 249Q321 263 317 275T294 306T237 358T131 445Q111 426 104 414T97 388Q97 377 103 364T130 329T189 274T290 188Q310 204 315 216T321 249ZM286 591Q274 619 251 633T204 648Q180 648
163 634T145 588Q145 566 158 547T189 510T228 477T265 447Q322 396 349 357T376 280Q376 251 359 222T310 158Q318 141 319 130T321 106Q321 69 310 39T279 -14T233 -48T176 -60Q150 -60 130 -51T86 -19L85 -13L135 54L138 53Q146 24 166 11T209 -3Q235 -3 255
12T275 55Q275 73 264 89T236 121T198 152T154 184Q121 209 101 229T69 268T54 302T50 337Q50 356 53 371T63 402T82 434T110 471Q99 488 94 507T89 545Q89 576 102 605T137 657T188 694T251 708Q274 708 293 702T332 680L334 672L291 591H286Z" />
<glyph unicode="&#xa8;" glyph-name="dieresis" horiz-adv-x="220" d="M0 631Q0 649 12 662T41 676Q58 676 70 663T83 631Q83 612 71 600T41 587Q24 587 12 599T0 631ZM137 631Q137 649 149 662T178 676Q195 676 207 663T220 631Q220 612 208 600T178 587Q161
587 149 599T137 631Z" />
<glyph unicode="&#xa9;" glyph-name="copyright" horiz-adv-x="725" d="M435 455Q432 475 410 482T364 490Q319 490 292 469Q272 451 261 421T250 355Q250 289 285 255T372 220Q392 220 419 226T473 253L482 239L470 211Q445 197 419 191T365 184Q326 184 294
196T240 231T205 284T192 353Q192 389 203 420T236 475T291 512T367 526Q385 526 416 522T475 507L476 500L468 450H441L435 455ZM362 654Q425 654 480 631T577 566T642 471T666 354Q666 291 642 236T577 140T479 76T357 52Q296 52 242 76T147 141T83 237T59 354Q59
416 82 470T147 566T244 630T362 654ZM362 625Q306 625 258 604T173 546T115 460T94 354Q94 298 115 248T172 161T256 103T358 81Q415 81 465 102T552 160T610 247T631 354Q631 410 610 459T552 545T466 603T362 625Z" />
<glyph unicode="&#xaa;" glyph-name="ordfeminine" horiz-adv-x="355" d="M208 445Q210 448 212 452T215 462L218 516Q193 516 171 514T133 506T107 488T97 455Q97 430 110 419T142 408Q163 408 181 419T208 445ZM213 426Q198 404 178 387T131 369Q94 369 72 393T50
451Q50 484 71 503T121 531T177 542T218 544Q217 571 213 587T203 612T187 623T165 626Q157 626 147 625T126 620T109 607T100 585L98 582H82L77 628L79 632Q82 635 91 639T114 648T144 655T177 658Q263 658 263 567Q263 541 263 522T262 487T262 456T261 423Q261
400 273 396T302 392L304 374Q293 375 282 375T256 376Q245 376 235 376T215 375L211 379Q213 390 214 401T215 423L213 426Z" />
<glyph unicode="&#xab;" glyph-name="guillemotleft" horiz-adv-x="464" d="M249 411Q205 367 173 327T109 240Q141 195 173 155T249 70L244 60H186L179 64Q167 83 155 101T127 139T92 184T47 240Q72 271 91 296T126 341T154 380T179 417L186 421H244L249 411ZM411
411Q367 367 335 327T271 240Q303 195 335 155T411 70L406 60H348L340 64Q328 83 316 101T288 139T253 184T208 240Q233 271 252 296T287 341T315 380T340 417L348 421H406L411 411Z" />
<glyph unicode="&#xac;" glyph-name="logicalnot" horiz-adv-x="632" d="M557 341V117H504V289H77V341H557Z" />
<glyph unicode="&#xad;" glyph-name="uni00AD" horiz-adv-x="471" d="M405 265L395 213H67L76 265H405Z" />
<glyph unicode="&#xae;" glyph-name="registered" horiz-adv-x="725" d="M225 201L226 217Q242 218 250 223T263 240T267 269T268 311V444Q268 471 261 490T226 512V532H346Q415 532 441 508T468 446Q468 426 461 411T443 384T417 365T387 353Q403 331 421 307T457
263T493 230T526 217V201Q510 201 506 200T493 199Q472 199 458 205T428 227T392 273T341 347H310Q310 308 311 283T317 243T330 222T352 216L354 201H225ZM355 377Q390 377 407 394T424 443Q424 470 406 486T356 502H310V391Q310 380 315 379T328 377H355ZM362
654Q425 654 480 631T577 566T642 471T666 354Q666 291 642 236T577 140T479 76T357 52Q296 52 242 76T147 141T83 237T59 354Q59 416 82 470T147 566T244 630T362 654ZM362 625Q306 625 258 604T173 546T115 460T94 354Q94 298 115 248T172 161T256 103T358 81Q415
81 465 102T552 160T610 247T631 354Q631 410 610 459T552 545T466 603T362 625Z" />
<glyph unicode="&#xb0;" glyph-name="degree" horiz-adv-x="340" d="M169 658Q230 658 261 623T292 540Q292 518 285 498T262 463T224 438T169 429Q137 429 114 438T77 464T55 500T48 543Q48 567 56 587T79 624T117 649T169 658ZM169 459Q209 459 228 482T248
540Q248 574 229 599T168 625Q126 625 108 601T90 544Q90 509 110 484T169 459Z" />
<glyph unicode="&#xb1;" glyph-name="plusminus" horiz-adv-x="480" d="M266 351H400L390 298H266V183H214V298H81L90 351H214V455H266V351ZM400 123L390 70H81L90 123H400Z" />
<glyph unicode="&#xb2;" glyph-name="twosuperior" horiz-adv-x="355" d="M68 606Q81 629 107 647T179 665Q236 665 261 640T286 572Q286 537 263 501T211 434T160 378T136 341H169Q202 341 221 342T251 347T268 361T279 388H293L284 308L279 303Q276 303 262
303T230 304T197 305T174 306H120Q108 306 93 305T64 303L59 309V321Q78 345 108 378T168 445T218 513T239 571Q239 593 227 610T176 627Q103 627 97 552H74L68 606Z" />
<glyph unicode="&#xb3;" glyph-name="threesuperior" horiz-adv-x="338" d="M80 403Q85 361 108 346T160 330Q193 330 219 349T245 409Q245 438 227 461T172 485H157L163 506Q194 507 210 528T227 575Q227 605 206 619T159 634Q133 634 112 619T90 572Q90 565
91 562H69L64 606Q69 616 76 627T95 646T123 659T163 665Q214 665 242 639T270 577Q270 555 258 535T217 500Q254 492 271 468T288 415Q288 394 279 373T254 335T214 308T160 297Q122 297 97 313T53 359L59 403H80Z" />
<glyph unicode="&#xb4;" glyph-name="acute" horiz-adv-x="219" d="M6 552L0 572L3 579L183 680Q200 679 209 669T219 645Q219 635 215 626L13 549L6 552Z" />
<glyph unicode="&#xb5;" glyph-name="mu" horiz-adv-x="642" d="M139 -131H130Q83 -131 66 -106V-100Q79 -74 89 -41T107 25T117 89T121 139V237Q121 256 121 279T120 324T119 362T118 386Q117 397 114 405T107 418Q97 429 82 431T51 434L48 438V452L51 455H69Q86
455 112 455T157 459L192 464L198 455Q196 451 195 441T193 418T192 395T192 378Q192 361 192 341T191 299T190 259T189 227Q189 205 190 178T197 130Q207 83 238 60T310 37Q341 37 367 49T412 80T444 118T461 156V286Q461 307 461 321T461 347T459 367T457 386Q455
397 452 405T445 417Q435 429 420 431T389 434L385 438V452L389 455H407Q424 455 450 455T494 459L529 464L535 455Q533 451 532 441T530 418T529 395T529 378Q529 370 529 363T528 346T528 323T527 287V175Q527 153 527 139T528 115T529 97T530 78Q532 55 535
45T545 29Q553 21 568 20T600 18L604 14L606 0L604 -4Q586 -2 565 -1T524 0Q486 0 455 -3L449 7Q452 20 454 42T458 86Q432 44 392 17T292 -11Q278 -11 260 -9T223 0T191 17T170 43L167 41Q161 -22 157 -58T144 -125L139 -131Z" />
<glyph unicode="&#xb6;" glyph-name="paragraph" horiz-adv-x="530" d="M171 -125L174 -107L179 -104Q204 -104 213 -102T232 -93Q238 -88 246 -77T257 -36Q257 -29 257 -3T258 57T259 123T259 177V282Q224 282 185 290T113 322T59 386T37 493Q37 526 49 555T81
607T128 642T188 655Q195 655 207 655T234 655T263 654T288 654H391Q401 654 414 655T440 657T464 659T483 660L485 656L482 638L477 634Q452 634 442 632T424 624Q416 617 409 607T399 567Q397 542 397 517T396 471V211Q396 181 396 142T396 65T397 0T399 -36Q402
-62 409 -75T424 -94Q433 -101 449 -102T477 -104L482 -107L485 -125L483 -129Q476 -128 460 -128T427 -126T394 -125T371 -124H285Q278 -124 262 -124T229 -126T196 -127T173 -129L171 -125ZM291 -86H370L372 -82Q367 -48 365 -22T361 28T360 80T359 144V367Q359
417 360 483T372 612L370 616H291L289 612Q298 549 299 483T301 367V144Q301 108 301 81T299 29T296 -22T289 -82L291 -86Z" />
<glyph unicode="&#xb7;" glyph-name="middot" horiz-adv-x="227" d="M67 243Q67 262 80 276T114 291Q132 291 146 277T161 243Q161 224 147 211T114 197Q94 197 81 210T67 243Z" />
<glyph unicode="&#xb8;" glyph-name="cedilla" horiz-adv-x="202" d="M0 -178L13 -155H20Q32 -160 51 -163T89 -167Q111 -167 127 -159T143 -127Q143 -100 128 -91T91 -81Q79 -81 67 -83T43 -88L34 -77L85 0H119L89 -51Q106 -47 123 -47Q158 -47 180 -67T202 -119Q202
-136 194 -151T171 -177T136 -196T92 -203Q68 -203 45 -198T1 -184L0 -178Z" />
<glyph unicode="&#xb9;" glyph-name="onesuperior" horiz-adv-x="269" d="M55 600L56 604Q82 617 105 630T151 665H155L169 660Q166 628 166 593T165 508V453Q165 428 165 413T165 386T165 367T167 348Q168 336 172 330T182 319Q187 315 198 313T219 310L222 297Q217
297 209 297T191 298T174 299T161 299H127Q122 299 114 299T96 299T78 298T65 297L68 310Q77 310 89 312T107 319Q112 323 115 329T121 348Q122 356 122 363T123 381T123 404T123 439V506Q123 530 123 545T123 570T123 588T121 606L55 589V600Z" />
<glyph unicode="&#xba;" glyph-name="ordmasculine" horiz-adv-x="374" d="M186 658Q220 658 246 646T290 614T317 566T326 510Q326 483 318 458T292 413T248 381T187 369Q151 369 125 381T82 413T57 460T48 513Q48 543 57 569T85 615T128 646T186 658ZM187 399Q210
399 227 408T257 432T275 468T281 510Q281 531 275 552T256 589T225 615T184 625Q160 625 143 616T114 591T97 555T91 514Q91 492 97 472T116 435T146 409T187 399Z" />
<glyph unicode="&#xbb;" glyph-name="guillemotright" horiz-adv-x="464" d="M57 421H115L123 417Q135 398 147 380T175 342T210 296T255 240Q230 209 211 185T176 140T148 101T123 64L115 60H57L53 70Q96 114 128 154T192 240Q160 286 128 326T53 411L57 421ZM219
421H277L284 417Q296 398 308 380T337 342T372 296T417 240Q391 209 372 185T337 140T309 101T284 64L277 60H219L214 70Q257 114 289 154T354 240Q322 286 290 326T214 411L219 421Z" />
<glyph unicode="&#xbc;" glyph-name="onequarter" horiz-adv-x="679" d="M59 23Q88 56 112 86T159 147T205 209T256 278L377 443Q414 494 454 550T529 669L534 673H610L609 669Q553 607 511 551T432 443L312 278Q285 240 262 208T219 146T179 86T139 23L135 19H59V23ZM63
600L65 604Q91 617 114 630T160 665H164L177 660Q175 628 175 593T174 508V453Q174 409 175 381T180 337T193 316T218 310L221 297Q213 298 196 298T170 299H136Q131 299 123 299T105 299T87 298T74 297L77 310Q86 310 98 312T116 319Q122 325 125 331T129 349T131
382T132 439V506Q132 530 132 545T132 570T132 588T130 606L63 589V600ZM390 116L384 131L518 350L576 358L583 353Q582 345 582 335T581 304T580 245T579 145H627L630 142L622 116L618 113H579Q579 81 580 61T585 27T600 9T629 4L631 -8Q623 -8 604 -7T576 -6H538Q534
-6 526 -6T508 -7T491 -7T478 -8L481 4Q501 4 512 9T528 27T534 61T535 113H395L390 116ZM434 145H535Q535 218 535 255T533 313L434 145Z" />
<glyph unicode="&#xbd;" glyph-name="onehalf" horiz-adv-x="700" d="M62 23Q91 56 115 86T162 147T208 209T259 278L380 443Q417 494 457 550T532 669L537 673H613L612 669Q558 607 515 551T435 443L315 278Q288 240 265 208T222 146T182 86T142 23L138 19H62V23ZM62
600L64 604Q90 617 113 630T159 665H163L177 660Q174 628 174 593T173 508V453Q173 428 173 413T173 386T173 367T175 348Q176 336 180 330T190 319Q195 315 201 313T217 310L220 297Q212 298 195 298T169 299H135Q130 299 122 299T104 299T86 298T73 297L76 310Q85
310 97 312T115 319Q119 323 123 329T129 348Q130 356 130 363T131 381T131 404T131 439V506Q131 530 131 545T131 570T131 588T129 606L62 589V600ZM423 299Q436 322 462 340T534 358Q591 358 616 333T641 265Q641 232 622 200T577 138T525 84T486 38L488 34H524Q557
34 576 35T606 40T623 54T634 81H648L639 1L634 -4Q631 -4 617 -4T585 -3T552 -2T529 -1H475Q463 -1 448 -2T419 -4L414 2V14Q433 38 463 71T523 138T573 206T594 264Q594 286 582 303T531 320Q458 320 452 245H429L423 299Z" />
<glyph unicode="&#xbe;" glyph-name="threequarters" horiz-adv-x="719" d="M100 23Q128 56 152 86T200 147T246 209T297 278L418 443Q455 494 494 550T570 669L574 673H650L649 669Q594 608 552 551T473 443L353 278Q326 240 303 208T260 146T220 86T180 23L175
19H99L100 23ZM79 403Q84 362 107 346T159 330Q175 330 190 335T218 349T237 374T245 409Q245 438 227 461T171 485H156L162 506Q193 507 209 528T226 575Q226 605 205 619T158 634Q132 634 111 619T89 572Q89 566 90 562H68L63 606Q68 616 75 627T94 646T122 659T162
665Q213 665 241 639T269 577Q269 555 257 535T216 500Q253 492 270 468T287 415Q287 394 278 373T253 335T213 308T159 297Q121 297 96 313T53 359L58 403H79ZM430 116L424 131L558 350L616 358L623 353Q622 345 622 335T621 304T620 245T619 145H667L670 142L662
116L658 113H619Q619 81 620 61T625 27T640 9T669 4L671 -8Q663 -8 644 -7T616 -6H578Q574 -6 566 -6T548 -7T531 -7T518 -8L521 4Q541 4 552 9T568 27T574 61T575 113H435L430 116ZM474 145H575Q575 218 575 255T573 313L474 145Z" />
<glyph unicode="&#xbf;" glyph-name="questiondown" horiz-adv-x="415" d="M198 292L204 298L239 315L245 311Q246 285 247 257T249 214Q249 173 228 139T182 71T136 1T115 -79Q115 -105 124 -124T147 -156T179 -175T214 -181Q241 -181 263 -172T301 -147T327
-111T340 -68L343 -65H360L372 -158L370 -167Q361 -181 342 -191T299 -209T252 -219T211 -222Q190 -222 162 -215T108 -190T65 -141T47 -62Q47 -16 69 25T119 103T169 171T194 230L198 292ZM174 429Q174 448 187 461T221 475Q240 475 254 462T269 429Q269 410 255
396T221 381Q201 381 188 395T174 429Z" />
<glyph unicode="&#xc0;" glyph-name="Agrave" horiz-adv-x="675" d="M429 718L228 795Q224 804 224 814Q224 828 233 837T259 848L440 748L442 741L437 721L429 718ZM372 665L536 211Q546 181 553 161T566 127T576 104T583 87Q594 62 605 49T629 29T653 21T679
20L684 16L687 -2L685 -6Q678 -6 664 -5T635 -3T607 -1T586 0H553Q546 0 530 -1T497 -3T463 -5T440 -6L438 -2L441 16L445 20Q474 20 490 26T506 62Q506 85 491 126T452 231L435 279H211L194 231Q171 168 156 127T140 62Q140 33 156 27T201 20L206 16L209 -2L207
-6Q200 -6 185 -5T154 -3T122 -1T100 0H81Q74 0 60 -1T31 -3T3 -5T-18 -6L-19 -2L-17 16L-12 20Q1 20 13 21T37 28T60 48T84 87Q87 92 89 98T97 118T111 152T133 208T166 293T214 414Q227 449 241 483T267 548T288 601T302 635L361 665H372ZM228 322H419L324 579L228
322Z" />
<glyph unicode="&#xc1;" glyph-name="Aacute" horiz-adv-x="675" d="M230 721L224 741L227 748L407 848Q424 847 433 838T442 814Q442 809 442 805T439 795L237 718L230 721ZM372 665L536 211Q546 181 553 161T566 127T576 104T583 87Q594 62 605 49T629 29T653
21T679 20L684 16L687 -2L685 -6Q678 -6 664 -5T635 -3T607 -1T586 0H553Q546 0 530 -1T497 -3T463 -5T440 -6L438 -2L441 16L445 20Q474 20 490 26T506 62Q506 85 491 126T452 231L435 279H211L194 231Q171 168 156 127T140 62Q140 33 156 27T201 20L206 16L209
-2L207 -6Q200 -6 185 -5T154 -3T122 -1T100 0H81Q74 0 60 -1T31 -3T3 -5T-18 -6L-19 -2L-17 16L-12 20Q1 20 13 21T37 28T60 48T84 87Q87 92 89 98T97 118T111 152T133 208T166 293T214 414Q227 449 241 483T267 548T288 601T302 635L361 665H372ZM228 322H419L324
579L228 322Z" />
<glyph unicode="&#xc2;" glyph-name="Acircumflex" horiz-adv-x="675" d="M340 842L450 743L453 736L447 716L440 713L336 775L232 713L225 716L219 736L222 743L332 842H340ZM372 665L536 211Q546 181 553 161T566 127T576 104T583 87Q594 62 605 49T629 29T653
21T679 20L684 16L687 -2L685 -6Q678 -6 664 -5T635 -3T607 -1T586 0H553Q546 0 530 -1T497 -3T463 -5T440 -6L438 -2L441 16L445 20Q474 20 490 26T506 62Q506 85 491 126T452 231L435 279H211L194 231Q171 168 156 127T140 62Q140 33 156 27T201 20L206 16L209
-2L207 -6Q200 -6 185 -5T154 -3T122 -1T100 0H81Q74 0 60 -1T31 -3T3 -5T-18 -6L-19 -2L-17 16L-12 20Q1 20 13 21T37 28T60 48T84 87Q87 92 89 98T97 118T111 152T133 208T166 293T214 414Q227 449 241 483T267 548T288 601T302 635L361 665H372ZM228 322H419L324
579L228 322Z" />
<glyph unicode="&#xc3;" glyph-name="Atilde" horiz-adv-x="675" d="M372 665L536 211Q546 181 553 161T566 127T576 104T583 87Q594 62 605 49T629 29T653 21T679 20L684 16L687 -2L685 -6Q678 -6 664 -5T635 -3T607 -1T586 0H553Q546 0 530 -1T497 -3T463 -5T440
-6L438 -2L441 16L445 20Q474 20 490 26T506 62Q506 85 491 126T452 231L435 279H211L194 231Q171 168 156 127T140 62Q140 33 156 27T201 20L206 16L209 -2L207 -6Q200 -6 185 -5T154 -3T122 -1T100 0H81Q74 0 60 -1T31 -3T3 -5T-18 -6L-19 -2L-17 16L-12 20Q1
20 13 21T37 28T60 48T84 87Q87 92 89 98T97 118T111 152T133 208T166 293T214 414Q227 449 241 483T267 548T288 601T302 635L361 665H372ZM228 322H419L324 579L228 322ZM489 832Q486 818 480 805T463 780T437 762T401 755Q361 755 320 762T246 769Q221 769 211
763T191 744L178 752Q182 765 189 779T206 803T232 821T269 828Q294 828 312 826T347 821T378 816T412 814Q429 814 446 818T477 840L489 832Z" />
<glyph unicode="&#xc4;" glyph-name="Adieresis" horiz-adv-x="675" d="M372 665L536 211Q546 181 553 161T566 127T576 104T583 87Q594 62 605 49T629 29T653 21T679 20L684 16L687 -2L685 -6Q678 -6 664 -5T635 -3T607 -1T586 0H553Q546 0 530 -1T497 -3T463
-5T440 -6L438 -2L441 16L445 20Q474 20 490 26T506 62Q506 85 491 126T452 231L435 279H211L194 231Q171 168 156 127T140 62Q140 33 156 27T201 20L206 16L209 -2L207 -6Q200 -6 185 -5T154 -3T122 -1T100 0H81Q74 0 60 -1T31 -3T3 -5T-18 -6L-19 -2L-17 16L-12
20Q1 20 13 21T37 28T60 48T84 87Q87 92 89 98T97 118T111 152T133 208T166 293T214 414Q227 449 241 483T267 548T288 601T302 635L361 665H372ZM228 322H419L324 579L228 322ZM214 794Q214 812 226 825T255 839Q272 839 284 826T297 794Q297 775 285 763T255
750Q238 750 226 762T214 794ZM371 794Q371 812 383 825T412 839Q428 839 440 826T453 794Q453 775 441 763T412 750Q395 750 383 762T371 794Z" />
<glyph unicode="&#xc5;" glyph-name="Aring" horiz-adv-x="676" d="M333 778Q372 778 394 755T416 703Q416 686 407 670T379 644L536 211Q546 181 553 161T566 127T576 104T583 87Q594 62 605 49T629 29T653 21T679 20L684 16L687 -2L685 -6Q678 -6 664 -5T635
-3T607 -1T586 0H553Q546 0 530 -1T497 -3T463 -5T440 -6L438 -2L441 16L445 20Q474 20 490 26T506 62Q506 85 491 126T452 231L435 279H211L194 231Q171 168 156 127T140 62Q140 33 156 27T201 20L206 16L209 -2L207 -6Q200 -6 185 -5T154 -3T122 -1T100 0H81Q74
0 60 -1T31 -3T3 -5T-18 -6L-19 -2L-17 16L-12 20Q1 20 13 21T37 28T60 48T84 87Q87 92 89 98T97 118T111 152T133 208T166 293T214 414Q226 446 239 480T265 544T287 598T303 637Q277 645 264 665T251 705Q251 733 273 755T333 778ZM228 322H419L324 579L228 322ZM334
656Q354 656 366 671T378 703Q378 721 366 737T332 753Q311 753 300 738T288 706Q288 687 301 672T334 656Z" />
<glyph unicode="&#xc6;" glyph-name="AE" horiz-adv-x="868" d="M359 520Q374 546 386 566T398 602Q398 616 391 623T355 634L351 638L348 656L350 660Q357 659 376 658T417 656T460 655T492 654H628Q641 654 667 654T721 656T770 657T797 658L801 648L797 539H772L768
543Q766 566 763 579T743 598T693 605T600 606H533Q528 547 528 488T527 366Q588 368 627 368T678 383Q685 391 691 404T698 432L702 436L720 438L723 436Q721 414 720 392T719 348Q719 324 720 304T723 259L720 257L701 259L698 262Q698 278 692 291T678 314Q666
327 629 327T527 328Q527 256 527 214T527 145T529 102T532 67Q533 48 553 48H609Q669 48 703 50T756 61T782 85T797 129L800 133H826L808 6L800 -4Q795 -4 777 -4T737 -2T692 -1T656 0H483Q476 0 460 -1T427 -3T394 -5T371 -6L369 -2L372 16L376 20Q392 20 406
21T430 30Q438 37 445 48T454 87Q455 94 455 105T456 141T457 210T457 328H298Q250 247 221 197T176 117T155 73T150 49Q150 29 166 25T207 20L212 16L215 -2L212 -6Q205 -6 188 -5T151 -3T114 -1T89 0H70Q63 0 49 -1T20 -3T-9 -5T-30 -6V-2L-28 16L-23 20Q-5 22
18 25T56 39Q66 46 76 58T98 87Q101 92 115 114T151 172T198 250T253 340T308 433T359 520ZM322 366H457Q457 417 457 454T457 519T457 563T456 593L322 366Z" />
<glyph unicode="&#xc7;" glyph-name="Ccedilla" horiz-adv-x="651" d="M276 -178L289 -155H296Q308 -160 327 -163T365 -167Q387 -167 403 -159T419 -127Q419 -100 404 -91T367 -81Q355 -81 343 -83T319 -88L310 -77L354 -10Q286 -5 231 21T136 91T76 194T55 324Q55
394 76 456T140 565T245 638T391 665Q409 665 433 664T485 658T540 648T594 631L597 622L584 531H555L552 535Q549 557 533 572T494 596T442 608T385 612Q286 612 229 567Q182 529 159 466T135 328Q135 257 155 204T212 114T297 60T405 41Q446 41 499 52T601 97L611
86L589 41Q541 15 493 3T394 -11L371 -51Q379 -48 385 -48T399 -47Q434 -47 456 -67T478 -119Q478 -136 470 -151T447 -177T412 -196T368 -203Q344 -203 321 -198T277 -184L276 -178Z" />
<glyph unicode="&#xc8;" glyph-name="Egrave" horiz-adv-x="571" d="M381 718L180 795Q176 804 176 814Q176 828 185 837T211 848L392 748L395 741L389 721L381 718ZM331 654Q344 654 370 654T424 656T472 657T499 658L504 648L500 539H475L471 543Q469 566 466
579T446 598T396 605T303 606H207L205 567Q204 553 204 541T203 513T202 474T202 366Q232 367 262 367T316 368T358 372T381 383Q389 391 395 399T401 422L406 427L423 429L427 427Q425 404 424 387T422 348Q422 324 423 304T427 259L423 257L405 259L401 262Q401
278 395 291T381 314Q375 320 358 323T317 327T263 328T202 328V231Q202 195 202 173T202 133T204 101T207 67Q207 48 227 48H312Q372 48 406 50T459 61T484 85T499 129L503 133H529L511 6L503 -4Q498 -4 480 -4T440 -2T395 -1T359 0H157Q150 0 134 -1T101 -3T68
-5T45 -6L43 -2L46 16L51 20Q67 20 81 21T104 30Q112 37 119 48T129 87Q129 94 129 103T130 127T131 161T131 211V414Q131 449 131 473T131 514T131 543T129 567Q127 594 120 605T104 624Q95 631 81 632T51 634L46 638L43 656L45 660Q52 660 68 659T102 657T138
655T167 654H331Z" />
<glyph unicode="&#xc9;" glyph-name="Eacute" horiz-adv-x="571" d="M182 721L176 741L179 748L360 848Q377 847 386 838T395 814Q395 804 391 795L189 718L182 721ZM331 654Q344 654 370 654T424 656T472 657T499 658L504 648L500 539H475L471 543Q469 566 466
579T446 598T396 605T303 606H207L205 567Q204 553 204 541T203 513T202 474T202 366Q232 367 262 367T316 368T358 372T381 383Q389 391 395 399T401 422L406 427L423 429L427 427Q425 404 424 387T422 348Q422 324 423 304T427 259L423 257L405 259L401 262Q401
278 395 291T381 314Q375 320 358 323T317 327T263 328T202 328V231Q202 195 202 173T202 133T204 101T207 67Q207 48 227 48H312Q372 48 406 50T459 61T484 85T499 129L503 133H529L511 6L503 -4Q498 -4 480 -4T440 -2T395 -1T359 0H157Q150 0 134 -1T101 -3T68
-5T45 -6L43 -2L46 16L51 20Q67 20 81 21T104 30Q112 37 119 48T129 87Q129 94 129 103T130 127T131 161T131 211V414Q131 449 131 473T131 514T131 543T129 567Q127 594 120 605T104 624Q95 631 81 632T51 634L46 638L43 656L45 660Q52 660 68 659T102 657T138
655T167 654H331Z" />
<glyph unicode="&#xca;" glyph-name="Ecircumflex" horiz-adv-x="571" d="M299 842L409 743L412 736L406 716L399 713L295 775L191 713L184 716L178 736L181 743L291 842H299ZM331 654Q344 654 370 654T424 656T472 657T499 658L504 648L500 539H475L471 543Q469
566 466 579T446 598T396 605T303 606H207L205 567Q204 553 204 541T203 513T202 474T202 366Q232 367 262 367T316 368T358 372T381 383Q389 391 395 399T401 422L406 427L423 429L427 427Q425 404 424 387T422 348Q422 324 423 304T427 259L423 257L405 259L401
262Q401 278 395 291T381 314Q375 320 358 323T317 327T263 328T202 328V231Q202 195 202 173T202 133T204 101T207 67Q207 48 227 48H312Q372 48 406 50T459 61T484 85T499 129L503 133H529L511 6L503 -4Q498 -4 480 -4T440 -2T395 -1T359 0H157Q150 0 134 -1T101
-3T68 -5T45 -6L43 -2L46 16L51 20Q67 20 81 21T104 30Q112 37 119 48T129 87Q129 94 129 103T130 127T131 161T131 211V414Q131 449 131 473T131 514T131 543T129 567Q127 594 120 605T104 624Q95 631 81 632T51 634L46 638L43 656L45 660Q52 660 68 659T102 657T138
655T167 654H331Z" />
<glyph unicode="&#xcb;" glyph-name="Edieresis" horiz-adv-x="571" d="M331 654Q344 654 370 654T424 656T472 657T499 658L504 648L500 539H475L471 543Q469 566 466 579T446 598T396 605T303 606H207L205 567Q204 553 204 541T203 513T202 474T202 366Q232
367 262 367T316 368T358 372T381 383Q389 391 395 399T401 422L406 427L423 429L427 427Q425 404 424 387T422 348Q422 324 423 304T427 259L423 257L405 259L401 262Q401 278 395 291T381 314Q375 320 358 323T317 327T263 328T202 328V231Q202 195 202 173T202
133T204 101T207 67Q207 48 227 48H312Q372 48 406 50T459 61T484 85T499 129L503 133H529L511 6L503 -4Q498 -4 480 -4T440 -2T395 -1T359 0H157Q150 0 134 -1T101 -3T68 -5T45 -6L43 -2L46 16L51 20Q67 20 81 21T104 30Q112 37 119 48T129 87Q129 94 129 103T130
127T131 161T131 211V414Q131 449 131 473T131 514T131 543T129 567Q127 594 120 605T104 624Q95 631 81 632T51 634L46 638L43 656L45 660Q52 660 68 659T102 657T138 655T167 654H331ZM166 794Q166 812 178 825T207 839Q224 839 236 826T249 794Q249 775 237
763T207 750Q190 750 178 762T166 794ZM323 794Q323 812 335 825T364 839Q381 839 393 826T406 794Q406 775 394 763T364 750Q347 750 335 762T323 794Z" />
<glyph unicode="&#xcc;" glyph-name="Igrave" horiz-adv-x="333" d="M263 718L61 795Q57 804 57 814Q57 828 66 837T92 848L273 748L276 741L270 721L263 718ZM290 656L287 638L283 634Q267 634 253 633T229 624Q221 617 214 606T205 567Q204 553 204 541T203
513T202 474T202 415V231Q202 195 202 173T202 135T203 110T205 87Q207 59 214 48T229 30Q238 23 252 22T283 20L287 16L290 -2L288 -6Q281 -6 265 -5T232 -3T199 -1T176 0H157Q150 0 134 -1T101 -3T68 -5T45 -6L43 -2L46 16L51 20Q67 20 81 21T104 30Q112 37 119
48T129 87Q129 94 129 103T130 127T131 161T131 211V414Q131 449 131 473T131 514T130 543T128 567Q126 593 119 605T104 624Q95 631 81 632T51 634L46 638L43 656L45 660Q52 660 68 659T101 657T134 655T157 654H176Q183 654 199 655T232 657T265 659T288 660L290
656Z" />
<glyph unicode="&#xcd;" glyph-name="Iacute" horiz-adv-x="333" d="M63 721L57 741L60 748L241 848Q258 847 267 838T276 814Q276 804 272 795L71 718L63 721ZM290 656L287 638L283 634Q267 634 253 633T229 624Q221 617 214 606T205 567Q204 553 204 541T203
513T202 474T202 415V231Q202 195 202 173T202 135T203 110T205 87Q207 59 214 48T229 30Q238 23 252 22T283 20L287 16L290 -2L288 -6Q281 -6 265 -5T232 -3T199 -1T176 0H157Q150 0 134 -1T101 -3T68 -5T45 -6L43 -2L46 16L51 20Q67 20 81 21T104 30Q112 37 119
48T129 87Q129 94 129 103T130 127T131 161T131 211V414Q131 449 131 473T131 514T130 543T128 567Q126 593 119 605T104 624Q95 631 81 632T51 634L46 638L43 656L45 660Q52 660 68 659T101 657T134 655T157 654H176Q183 654 199 655T232 657T265 659T288 660L290
656Z" />
<glyph unicode="&#xce;" glyph-name="Icircumflex" horiz-adv-x="333" d="M170 842L281 743L284 736L278 716L270 713L167 775L63 713L55 716L50 736L53 743L163 842H170ZM290 656L287 638L283 634Q267 634 253 633T229 624Q221 617 214 606T205 567Q204 553 204
541T203 513T202 474T202 415V231Q202 195 202 173T202 135T203 110T205 87Q207 59 214 48T229 30Q238 23 252 22T283 20L287 16L290 -2L288 -6Q281 -6 265 -5T232 -3T199 -1T176 0H157Q150 0 134 -1T101 -3T68 -5T45 -6L43 -2L46 16L51 20Q67 20 81 21T104 30Q112
37 119 48T129 87Q129 94 129 103T130 127T131 161T131 211V414Q131 449 131 473T131 514T130 543T128 567Q126 593 119 605T104 624Q95 631 81 632T51 634L46 638L43 656L45 660Q52 660 68 659T101 657T134 655T157 654H176Q183 654 199 655T232 657T265 659T288
660L290 656Z" />
<glyph unicode="&#xcf;" glyph-name="Idieresis" horiz-adv-x="333" d="M290 656L287 638L283 634Q267 634 253 633T229 624Q221 617 214 606T205 567Q204 553 204 541T203 513T202 474T202 415V231Q202 195 202 173T202 135T203 110T205 87Q207 59 214 48T229
30Q238 23 252 22T283 20L287 16L290 -2L288 -6Q281 -6 265 -5T232 -3T199 -1T176 0H157Q150 0 134 -1T101 -3T68 -5T45 -6L43 -2L46 16L51 20Q67 20 81 21T104 30Q112 37 119 48T129 87Q129 94 129 103T130 127T131 161T131 211V414Q131 449 131 473T131 514T130
543T128 567Q126 593 119 605T104 624Q95 631 81 632T51 634L46 638L43 656L45 660Q52 660 68 659T101 657T134 655T157 654H176Q183 654 199 655T232 657T265 659T288 660L290 656ZM51 794Q51 812 63 825T92 839Q109 839 121 826T134 794Q134 775 122 763T92 750Q75
750 63 762T51 794ZM208 794Q208 812 220 825T249 839Q266 839 278 826T291 794Q291 775 279 763T249 750Q232 750 220 762T208 794Z" />
<glyph unicode="&#xd0;" glyph-name="Eth" horiz-adv-x="735" d="M52 370H132V414Q132 424 132 444T132 488T132 533T130 567Q128 592 121 604T105 624Q96 629 87 631T52 634L47 638L44 656L46 660Q53 660 66 659T94 657T123 655T149 654H206Q219 654 238 654T278
656T318 657T350 658Q428 658 489 632T593 560T657 455T680 328Q680 262 659 203T595 98T490 25T344 -2Q335 -2 317 -2T279 -1T241 -1T211 0H158Q151 0 135 -1T102 -3T69 -5T46 -6L44 -2L47 16L52 20Q64 20 80 21T105 29Q113 35 120 48T130 87Q130 94 130 103T131
127T132 161T132 211V326H44L52 370ZM351 48Q411 48 457 70T534 129T582 218T599 328Q599 388 582 439T533 527T453 585T346 606H208Q206 577 206 558T204 518T203 475T203 415V370H381L373 326H203V231Q203 171 203 138T206 87Q209 61 219 55T255 48H351Z" />
<glyph unicode="&#xd1;" glyph-name="Ntilde" horiz-adv-x="746" d="M522 832Q519 818 513 805T496 780T470 762T434 755Q394 755 353 762T279 769Q254 769 244 763T224 744L211 752Q215 765 222 779T239 803T265 821T302 828Q327 828 345 826T380 821T411 816T445
814Q462 814 479 818T510 840L522 832ZM708 656L706 638L701 634Q685 634 671 633T648 624Q640 617 634 606T625 567Q624 553 624 541T623 513T622 474T622 415V239Q622 183 622 147T623 86T625 40T629 -4L621 -9L559 -5L549 7L193 540Q193 530 193 520T192 496T192
462T192 415V231Q192 219 192 200T192 159T193 119T195 87Q197 62 203 50T220 30Q228 24 241 22T274 20L279 16L282 -2L280 -6Q273 -6 259 -5T228 -3T198 -1T176 0H157Q150 0 134 -1T101 -3T68 -5T45 -6L43 -2L46 16L51 20Q69 20 81 21T104 30Q111 35 118 46T129
87Q130 94 130 103T131 127T131 161T131 211V414Q131 449 131 473T131 514T131 543T129 567Q127 588 120 602T104 624Q95 631 82 632T51 634L46 638L43 656L45 660Q52 660 65 659T93 657T120 655T141 654H176Q184 654 198 655T222 658L227 655Q231 641 243 617T273
562T311 498T353 431Q429 309 485 232T558 132Q558 139 558 145T559 159T559 179T559 211V414Q559 449 559 473T559 514T558 543T556 567Q554 595 547 606T532 624Q523 631 509 632T478 634L474 638L471 656L473 660Q480 660 493 659T519 657T546 655T566 654H613Q620
654 633 654T660 656T687 658T707 660L708 656Z" />
<glyph unicode="&#xd2;" glyph-name="Ograve" horiz-adv-x="763" d="M382 665Q460 665 521 638T623 565T687 457T709 329Q709 263 688 202T624 93T520 18T375 -11Q295 -11 236 16T136 88T75 194T55 322Q55 393 77 455T141 564T244 638T382 665ZM381 42Q441 42
487 64T566 126T615 217T632 328Q632 388 615 440T564 530T484 590T376 612Q317 612 272 591T195 531T149 442T133 329Q133 262 151 209T202 119T280 62T381 42ZM449 718L248 795Q244 804 244 814Q244 828 253 837T279 848L459 748L462 741L457 721L449 718Z" />
<glyph unicode="&#xd3;" glyph-name="Oacute" horiz-adv-x="763" d="M382 665Q460 665 521 638T623 565T687 457T709 329Q709 263 688 202T624 93T520 18T375 -11Q295 -11 236 16T136 88T75 194T55 322Q55 393 77 455T141 564T244 638T382 665ZM381 42Q441 42
487 64T566 126T615 217T632 328Q632 388 615 440T564 530T484 590T376 612Q317 612 272 591T195 531T149 442T133 329Q133 262 151 209T202 119T280 62T381 42ZM306 721L301 741L304 748L484 848Q501 847 510 838T519 814Q519 805 516 795L314 718L306 721Z" />
<glyph unicode="&#xd4;" glyph-name="Ocircumflex" horiz-adv-x="763" d="M382 665Q460 665 521 638T623 565T687 457T709 329Q709 263 688 202T624 93T520 18T375 -11Q295 -11 236 16T136 88T75 194T55 322Q55 393 77 455T141 564T244 638T382 665ZM381 42Q441
42 487 64T566 126T615 217T632 328Q632 388 615 440T564 530T484 590T376 612Q317 612 272 591T195 531T149 442T133 329Q133 262 151 209T202 119T280 62T381 42ZM396 842L506 743L509 736L503 716L496 713L392 775L288 713L281 716L275 736L278 743L388 842H396Z"
/>
<glyph unicode="&#xd5;" glyph-name="Otilde" horiz-adv-x="763" d="M382 665Q460 665 521 638T623 565T687 457T709 329Q709 263 688 202T624 93T520 18T375 -11Q295 -11 236 16T136 88T75 194T55 322Q55 393 77 455T141 564T244 638T382 665ZM381 42Q441 42
487 64T566 126T615 217T632 328Q632 388 615 440T564 530T484 590T376 612Q317 612 272 591T195 531T149 442T133 329Q133 262 151 209T202 119T280 62T381 42ZM539 832Q536 818 530 805T513 780T487 762T451 755Q411 755 370 762T296 769Q271 769 261 763T241
744L228 752Q232 765 239 779T256 803T282 821T319 828Q344 828 362 826T397 821T428 816T462 814Q479 814 496 818T527 840L539 832Z" />
<glyph unicode="&#xd6;" glyph-name="Odieresis" horiz-adv-x="763" d="M382 665Q460 665 521 638T623 565T687 457T709 329Q709 263 688 202T624 93T520 18T375 -11Q295 -11 236 16T136 88T75 194T55 322Q55 393 77 455T141 564T244 638T382 665ZM381 42Q441
42 487 64T566 126T615 217T632 328Q632 388 615 440T564 530T484 590T376 612Q317 612 272 591T195 531T149 442T133 329Q133 262 151 209T202 119T280 62T381 42ZM263 794Q263 812 275 825T304 839Q321 839 333 826T346 794Q346 775 334 763T304 750Q287 750
275 762T263 794ZM420 794Q420 812 432 825T461 839Q478 839 490 826T503 794Q503 775 491 763T461 750Q444 750 432 762T420 794Z" />
<glyph unicode="&#xd7;" glyph-name="multiply" horiz-adv-x="462" d="M230 202L110 81L73 118L193 239L73 359L110 396L230 276L352 397L389 360L267 239L389 117L352 80L230 202Z" />
<glyph unicode="&#xd8;" glyph-name="Oslash" horiz-adv-x="763" d="M382 665Q442 665 491 650T579 605L637 672L643 676H709L707 672L619 569Q664 523 687 461T710 329Q710 263 689 202T625 93T521 18T376 -11Q312 -11 262 5T172 53L113 -15L108 -19H41L43 -15L134
90Q95 136 75 195T55 322Q55 393 77 455T142 564T244 638T382 665ZM381 42Q441 42 487 64T566 126T615 217T632 328Q632 384 617 432T573 517L217 105Q282 42 381 42ZM134 329Q134 218 183 146L537 556Q505 582 465 597T377 612Q318 612 273 591T196 531T150 442T134
329Z" />
<glyph unicode="&#xd9;" glyph-name="Ugrave" horiz-adv-x="723" d="M448 718L247 795Q243 804 243 814Q243 828 252 837T278 848L459 748L461 741L456 721L448 718ZM697 656L694 638L690 634Q674 634 660 633T636 624Q628 617 621 606T612 567Q611 555 611 543T610
514T609 473T609 414V222Q609 173 595 131T550 57T475 7T368 -11Q298 -11 250 7T171 56T128 130T114 222V414Q114 449 114 473T114 514T114 543T112 567Q110 594 103 605T87 624Q78 631 64 632T34 634L29 638L26 656L28 660Q35 660 51 659T84 657T117 655T140 654H159Q166
654 182 655T215 657T248 659T271 660L273 656L270 638L266 634Q250 634 236 633T212 624Q204 617 197 606T188 567Q187 553 187 541T186 513T185 474T185 415V250Q185 142 233 95T368 48Q454 48 503 95T552 250V415Q552 451 552 474T552 513T551 541T549 567Q547
595 540 606T524 624Q516 631 502 632T471 634L466 638L463 656L465 660Q472 660 486 659T515 657T545 655T566 654H588Q595 654 610 655T641 657T673 659T695 660L697 656Z" />
<glyph unicode="&#xda;" glyph-name="Uacute" horiz-adv-x="723" d="M277 721L271 741L274 748L455 848Q472 847 481 838T490 814Q490 804 486 795L285 718L277 721ZM697 656L694 638L690 634Q674 634 660 633T636 624Q628 617 621 606T612 567Q611 555 611 543T610
514T609 473T609 414V222Q609 173 595 131T550 57T475 7T368 -11Q298 -11 250 7T171 56T128 130T114 222V414Q114 449 114 473T114 514T114 543T112 567Q110 594 103 605T87 624Q78 631 64 632T34 634L29 638L26 656L28 660Q35 660 51 659T84 657T117 655T140 654H159Q166
654 182 655T215 657T248 659T271 660L273 656L270 638L266 634Q250 634 236 633T212 624Q204 617 197 606T188 567Q187 553 187 541T186 513T185 474T185 415V250Q185 142 233 95T368 48Q454 48 503 95T552 250V415Q552 451 552 474T552 513T551 541T549 567Q547
595 540 606T524 624Q516 631 502 632T471 634L466 638L463 656L465 660Q472 660 486 659T515 657T545 655T566 654H588Q595 654 610 655T641 657T673 659T695 660L697 656Z" />
<glyph unicode="&#xdb;" glyph-name="Ucircumflex" horiz-adv-x="723" d="M697 656L694 638L690 634Q674 634 660 633T636 624Q628 617 621 606T612 567Q611 555 611 543T610 514T609 473T609 414V222Q609 173 595 131T550 57T475 7T368 -11Q298 -11 250 7T171
56T128 130T114 222V414Q114 449 114 473T114 514T114 543T112 567Q110 594 103 605T87 624Q78 631 64 632T34 634L29 638L26 656L28 660Q35 660 51 659T84 657T117 655T140 654H159Q166 654 182 655T215 657T248 659T271 660L273 656L270 638L266 634Q250 634
236 633T212 624Q204 617 197 606T188 567Q187 553 187 541T186 513T185 474T185 415V250Q185 142 233 95T368 48Q454 48 503 95T552 250V415Q552 451 552 474T552 513T551 541T549 567Q547 595 540 606T524 624Q516 631 502 632T471 634L466 638L463 656L465 660Q472
660 486 659T515 657T545 655T566 654H588Q595 654 610 655T641 657T673 659T695 660L697 656ZM366 842L477 743L479 736L474 716L466 713L363 775L259 713L251 716L246 736L248 743L359 842H366Z" />
<glyph unicode="&#xdc;" glyph-name="Udieresis" horiz-adv-x="723" d="M697 656L694 638L690 634Q674 634 660 633T636 624Q628 617 621 606T612 567Q611 555 611 543T610 514T609 473T609 414V222Q609 173 595 131T550 57T475 7T368 -11Q298 -11 250 7T171 56T128
130T114 222V414Q114 449 114 473T114 514T114 543T112 567Q110 594 103 605T87 624Q78 631 64 632T34 634L29 638L26 656L28 660Q35 660 51 659T84 657T117 655T140 654H159Q166 654 182 655T215 657T248 659T271 660L273 656L270 638L266 634Q250 634 236 633T212
624Q204 617 197 606T188 567Q187 553 187 541T186 513T185 474T185 415V250Q185 142 233 95T368 48Q454 48 503 95T552 250V415Q552 451 552 474T552 513T551 541T549 567Q547 595 540 606T524 624Q516 631 502 632T471 634L466 638L463 656L465 660Q472 660 486
659T515 657T545 655T566 654H588Q595 654 610 655T641 657T673 659T695 660L697 656ZM258 794Q258 812 270 825T299 839Q316 839 328 826T341 794Q341 775 329 763T299 750Q282 750 270 762T258 794ZM415 794Q415 812 427 825T456 839Q473 839 485 826T498 794Q498
775 486 763T456 750Q439 750 427 762T415 794Z" />
<glyph unicode="&#xdd;" glyph-name="Yacute" horiz-adv-x="612" d="M428 -6Q421 -6 405 -5T372 -3T339 -1T316 0H297Q290 0 274 -1T241 -3T207 -5T184 -6L183 -2L185 16L190 20Q206 20 220 21T243 30Q251 37 258 48T268 87Q269 94 269 103T270 127T271 161T271
211V250Q271 278 263 295T247 327Q232 354 214 385T175 449T134 514T94 577Q87 588 78 598T62 615Q51 624 36 628T0 634L-8 638V656L-3 660Q21 657 42 655T86 652H128Q151 652 181 654T240 660L244 656V638L240 634Q220 633 205 631T181 622Q169 613 169 605Q169
600 172 593T179 581Q215 515 247 456T317 332Q334 361 353 396T391 465T422 526T441 564Q443 569 447 580T451 599Q451 611 444 617T427 626T404 630T380 634L376 638V656L380 660Q409 655 428 655T472 654H530Q554 654 574 655T622 660L626 656V638L622 634Q599
631 583 626T554 613T528 590T501 554Q472 510 451 476T412 414T382 361T355 314Q351 308 346 294T341 264V229Q341 193 341 171T341 134T342 109T344 87Q346 59 353 48T369 30Q377 23 391 22T422 20L427 16L430 -2L428 -6ZM242 721L237 741L240 748L420 848Q437
847 446 838T455 814Q455 805 452 795L250 718L242 721Z" />
<glyph unicode="&#xde;" glyph-name="Thorn" horiz-adv-x="537" d="M202 524H254Q321 524 367 511T443 474T485 417T499 344Q499 286 475 249T414 190T330 160T239 152H202Q202 129 202 115T205 87Q207 59 214 48T229 30Q238 23 252 22T283 20L287 16L290 -2L288
-6Q281 -6 265 -5T232 -3T199 -1T176 0H157Q150 0 134 -1T101 -3T68 -5T45 -6L43 -2L46 16L51 20Q67 20 81 21T104 30Q112 37 119 48T129 87Q129 94 129 103T130 127T131 161T131 211V414Q131 449 131 473T131 514T131 543T129 567Q127 593 120 605T104 624Q95
631 81 632T51 634L46 638L43 656L45 660Q52 660 68 659T101 657T134 655T157 654H176Q183 654 199 655T232 657T265 659T288 660L290 656L287 638L283 634Q267 634 253 633T229 624Q214 611 208 596T202 559V524ZM202 476V196H274Q358 196 394 234T430 339Q430
476 275 476H202Z" />
<glyph unicode="&#xdf;" glyph-name="germandbls" horiz-adv-x="578" d="M110 484Q110 541 121 587T154 667T209 718T289 736Q326 736 355 725T405 696T436 654T447 605Q447 571 431 545T394 497T358 454T341 409Q341 386 355 370T391 338T438 306T485 267T521
215T536 141Q536 97 521 68T484 22T436 -3T388 -11Q356 -11 326 0T278 25L276 34L288 137H305L308 133Q308 88 327 59T386 30Q422 30 445 56T469 127Q469 162 456 185T421 224T377 254T332 282T298 319T284 374Q284 410 300 439T335 495T370 545T386 597Q386 614
379 630T359 659T327 679T284 687Q247 687 226 669T193 622T178 557T175 485V258Q175 238 175 212T175 159T176 111T178 78Q179 57 185 45T202 27T223 20T247 18L252 13L254 0L252 -4Q245 -4 233 -3T207 -2T181 -1T162 0H135Q128 0 114 0T85 -1T56 -3T35 -4L34
0L35 14L39 18Q56 18 69 19T92 29Q98 35 102 44T107 75T109 134T110 234V413H38L34 418V436L38 440L110 455V484Z" />
<glyph unicode="&#xe0;" glyph-name="agrave" horiz-adv-x="496" d="M316 549L114 626Q111 636 111 645Q111 659 120 669T146 680L326 579L329 572L324 552L316 549ZM324 7Q327 18 328 40T333 81L332 84Q319 66 301 49T262 19T216 -3T164 -11Q133 -11 109 0T69
29T45 71T37 121Q37 158 54 185T99 231Q125 247 160 257T229 271T290 277T326 279H340Q339 316 336 337T328 373Q317 403 290 416T225 430Q209 430 191 427T156 416T127 394T113 356L109 353H87L78 427L81 433Q86 439 102 446T139 459T187 470T240 475Q276 475
307 466T360 437T396 390T409 323Q409 281 409 249T407 189T406 135T405 78Q407 55 410 45T420 29Q428 21 443 20T475 18L479 14L480 0L479 -4Q461 -2 440 -1T399 0Q361 0 330 -3L324 7ZM324 115Q327 120 330 127T335 144L340 244H331Q291 244 251 240T180 222T128
186T108 127Q108 89 130 67T187 44Q208 44 229 51T268 69T301 92T324 115Z" />
<glyph unicode="&#xe1;" glyph-name="aacute" horiz-adv-x="496" d="M170 552L164 572L167 579L347 680Q364 679 373 669T383 645Q383 635 379 626L177 549L170 552ZM324 7Q327 18 328 40T333 81L332 84Q319 66 301 49T262 19T216 -3T164 -11Q133 -11 109 0T69
29T45 71T37 121Q37 158 54 185T99 231Q125 247 160 257T229 271T290 277T326 279H340Q339 316 336 337T328 373Q317 403 290 416T225 430Q209 430 191 427T156 416T127 394T113 356L109 353H87L78 427L81 433Q86 439 102 446T139 459T187 470T240 475Q276 475
307 466T360 437T396 390T409 323Q409 281 409 249T407 189T406 135T405 78Q407 55 410 45T420 29Q428 21 443 20T475 18L479 14L480 0L479 -4Q461 -2 440 -1T399 0Q361 0 330 -3L324 7ZM324 115Q327 120 330 127T335 144L340 244H331Q291 244 251 240T180 222T128
186T108 127Q108 89 130 67T187 44Q208 44 229 51T268 69T301 92T324 115Z" />
<glyph unicode="&#xe2;" glyph-name="acircumflex" horiz-adv-x="496" d="M239 673L349 574L352 567L346 548L339 545L235 606L132 545L124 548L118 567L121 574L231 673H239ZM324 7Q327 18 328 40T333 81L332 84Q319 66 301 49T262 19T216 -3T164 -11Q133 -11
109 0T69 29T45 71T37 121Q37 158 54 185T99 231Q125 247 160 257T229 271T290 277T326 279H340Q339 316 336 337T328 373Q317 403 290 416T225 430Q209 430 191 427T156 416T127 394T113 356L109 353H87L78 427L81 433Q86 439 102 446T139 459T187 470T240 475Q276
475 307 466T360 437T396 390T409 323Q409 281 409 249T407 189T406 135T405 78Q407 55 410 45T420 29Q428 21 443 20T475 18L479 14L480 0L479 -4Q461 -2 440 -1T399 0Q361 0 330 -3L324 7ZM324 115Q327 120 330 127T335 144L340 244H331Q291 244 251 240T180
222T128 186T108 127Q108 89 130 67T187 44Q208 44 229 51T268 69T301 92T324 115Z" />
<glyph unicode="&#xe3;" glyph-name="atilde" horiz-adv-x="496" d="M324 7Q327 18 328 40T333 81L332 84Q319 66 301 49T262 19T216 -3T164 -11Q133 -11 109 0T69 29T45 71T37 121Q37 158 54 185T99 231Q125 247 160 257T229 271T290 277T326 279H340Q339 316
336 337T328 373Q317 403 290 416T225 430Q209 430 191 427T156 416T127 394T113 356L109 353H87L78 427L81 433Q86 439 102 446T139 459T187 470T240 475Q276 475 307 466T360 437T396 390T409 323Q409 281 409 249T407 189T406 135T405 78Q407 55 410 45T420
29Q428 21 443 20T475 18L479 14L480 0L479 -4Q461 -2 440 -1T399 0Q361 0 330 -3L324 7ZM324 115Q327 120 330 127T335 144L340 244H331Q291 244 251 240T180 222T128 186T108 127Q108 89 130 67T187 44Q208 44 229 51T268 69T301 92T324 115ZM398 668Q398 665
393 653T378 627T351 602T310 591Q299 591 279 592T235 595T188 598T149 600Q124 600 114 594T94 575L81 583Q81 590 87 603T105 628T134 650T172 659Q198 659 237 655T321 650Q338 650 355 654T386 676L398 668Z" />
<glyph unicode="&#xe4;" glyph-name="adieresis" horiz-adv-x="496" d="M324 7Q327 18 328 40T333 81L332 84Q319 66 301 49T262 19T216 -3T164 -11Q133 -11 109 0T69 29T45 71T37 121Q37 158 54 185T99 231Q125 247 160 257T229 271T290 277T326 279H340Q339
316 336 337T328 373Q317 403 290 416T225 430Q209 430 191 427T156 416T127 394T113 356L109 353H87L78 427L81 433Q86 439 102 446T139 459T187 470T240 475Q276 475 307 466T360 437T396 390T409 323Q409 281 409 249T407 189T406 135T405 78Q407 55 410 45T420
29Q428 21 443 20T475 18L479 14L480 0L479 -4Q461 -2 440 -1T399 0Q361 0 330 -3L324 7ZM324 115Q327 120 330 127T335 144L340 244H331Q291 244 251 240T180 222T128 186T108 127Q108 89 130 67T187 44Q208 44 229 51T268 69T301 92T324 115ZM120 626Q120 644
132 657T161 671Q177 671 189 658T202 626Q202 607 190 595T161 582Q144 582 132 594T120 626ZM277 626Q277 644 288 657T317 671Q334 671 346 658T359 626Q359 607 347 595T317 582Q300 582 289 594T277 626Z" />
<glyph unicode="&#xe5;" glyph-name="aring" horiz-adv-x="496" d="M258 683Q297 683 319 660T341 608Q341 582 320 560T259 538Q238 538 223 544T197 561T181 584T176 610Q176 638 198 660T258 683ZM259 562Q279 562 291 576T303 608Q303 626 291 642T257 659Q236
659 225 644T213 611Q213 593 226 578T259 562ZM324 7Q327 18 328 40T333 81L332 84Q319 66 301 49T262 19T216 -3T164 -11Q133 -11 109 0T69 29T45 71T37 121Q37 158 54 185T99 231Q125 247 160 257T229 271T290 277T326 279H340Q339 316 336 337T328 373Q317
403 290 416T225 430Q209 430 191 427T156 416T127 394T113 356L109 353H87L78 427L81 433Q86 439 102 446T139 459T187 470T240 475Q276 475 307 466T360 437T396 390T409 323Q409 281 409 249T407 189T406 135T405 78Q407 55 410 45T420 29Q428 21 443 20T475
18L479 14L480 0L479 -4Q461 -2 440 -1T399 0Q361 0 330 -3L324 7ZM324 115Q327 120 330 127T335 144L340 244H331Q291 244 251 240T180 222T128 186T108 127Q108 89 130 67T187 44Q208 44 229 51T268 69T301 92T324 115Z" />
<glyph unicode="&#xe6;" glyph-name="ae" horiz-adv-x="812" d="M572 -11Q506 -11 456 15T373 88H369Q334 43 284 16T164 -11Q133 -11 109 0T69 29T45 71T37 121Q37 158 54 185T99 231Q125 247 160 257T229 271T290 277T326 279H340Q339 316 336 337T328 373Q317
403 290 416T225 430Q209 430 191 427T156 416T127 394T113 356L109 353H87L78 427L81 433Q86 439 102 446T139 459T187 470T240 475Q290 475 330 455T389 397H393Q422 432 468 453T567 475Q593 475 625 468T687 442T741 387T774 293L768 269L751 262Q697 262 640
261T529 260H410Q409 253 409 247T409 234Q409 196 420 162T454 101T515 60T606 44Q637 44 672 50T737 74L748 68V50L738 39Q714 20 670 5T572 -11ZM324 115Q327 120 330 127T335 144L340 244H331Q291 244 251 240T180 222T128 186T108 127Q108 89 130 67T187 44Q208
44 229 51T268 69T301 92T324 115ZM568 430Q536 430 510 420T465 392T434 351T416 301H455Q508 301 559 302T667 307Q680 308 684 314T689 328Q689 334 688 339T685 349Q674 387 644 408T568 430Z" />
<glyph unicode="&#xe7;" glyph-name="ccedilla" horiz-adv-x="509" d="M176 -178L189 -155H196Q208 -160 226 -163T265 -167Q287 -167 302 -159T318 -127Q318 -100 303 -91T267 -81Q255 -81 242 -83T218 -88L210 -77L255 -9Q211 -3 173 16T107 67T62 139T45 230Q45
285 65 330T120 407T201 457T301 475Q349 475 391 463T456 439L459 430L448 353H427L423 356Q423 379 410 393T377 416T337 427T299 430Q253 430 220 414T164 370T132 307T121 234Q121 196 132 161T168 99T228 56T314 40Q348 40 389 50T461 77L471 67L456 39Q445
31 428 23T388 7T341 -6T290 -11L265 -51Q274 -49 282 -48T298 -47Q333 -47 355 -67T377 -119Q377 -136 369 -151T347 -177T312 -196T268 -203Q244 -203 220 -198T177 -184L176 -178Z" />
<glyph unicode="&#xe8;" glyph-name="egrave" horiz-adv-x="525" d="M480 269L464 262Q410 262 353 261T241 260H123Q122 253 122 247T122 234Q122 196 133 162T167 101T228 60T318 44Q349 44 384 50T450 74L460 68V50L450 39Q426 20 382 5T284 -11Q231 -11 188
6T113 56T64 132T46 230Q46 285 64 330T113 407T187 457T279 475Q305 475 337 468T400 442T454 387T487 293L480 269ZM280 430Q248 430 223 420T178 392T146 351T128 301H167Q221 301 272 302T379 307Q392 308 396 314T401 328Q401 334 400 339T397 349Q386 387
356 408T280 430ZM346 549L144 626Q141 636 141 645Q141 659 150 669T176 680L356 579L359 572L354 552L346 549Z" />
<glyph unicode="&#xe9;" glyph-name="eacute" horiz-adv-x="525" d="M480 269L464 262Q410 262 353 261T241 260H123Q122 253 122 247T122 234Q122 196 133 162T167 101T228 60T318 44Q349 44 384 50T450 74L460 68V50L450 39Q426 20 382 5T284 -11Q231 -11 188
6T113 56T64 132T46 230Q46 285 64 330T113 407T187 457T279 475Q305 475 337 468T400 442T454 387T487 293L480 269ZM280 430Q248 430 223 420T178 392T146 351T128 301H167Q221 301 272 302T379 307Q392 308 396 314T401 328Q401 334 400 339T397 349Q386 387
356 408T280 430ZM199 552L193 572L196 579L376 680Q393 679 402 669T411 645Q411 641 411 636T408 626L206 549L199 552Z" />
<glyph unicode="&#xea;" glyph-name="ecircumflex" horiz-adv-x="525" d="M480 269L464 262Q410 262 353 261T241 260H123Q122 253 122 247T122 234Q122 196 133 162T167 101T228 60T318 44Q349 44 384 50T450 74L460 68V50L450 39Q426 20 382 5T284 -11Q231 -11
188 6T113 56T64 132T46 230Q46 285 64 330T113 407T187 457T279 475Q305 475 337 468T400 442T454 387T487 293L480 269ZM280 430Q248 430 223 420T178 392T146 351T128 301H167Q221 301 272 302T379 307Q392 308 396 314T401 328Q401 334 400 339T397 349Q386
387 356 408T280 430ZM279 673L390 574L392 567L387 548L379 545L276 606L172 545L164 548L159 567L161 574L272 673H279Z" />
<glyph unicode="&#xeb;" glyph-name="edieresis" horiz-adv-x="525" d="M480 269L464 262Q410 262 353 261T241 260H123Q122 253 122 247T122 234Q122 196 133 162T167 101T228 60T318 44Q349 44 384 50T450 74L460 68V50L450 39Q426 20 382 5T284 -11Q231 -11
188 6T113 56T64 132T46 230Q46 285 64 330T113 407T187 457T279 475Q305 475 337 468T400 442T454 387T487 293L480 269ZM280 430Q248 430 223 420T178 392T146 351T128 301H167Q221 301 272 302T379 307Q392 308 396 314T401 328Q401 334 400 339T397 349Q386
387 356 408T280 430ZM154 626Q154 644 166 657T195 671Q212 671 224 658T237 626Q237 607 225 595T195 582Q178 582 166 594T154 626ZM311 626Q311 644 323 657T352 671Q369 671 381 658T394 626Q394 607 382 595T352 582Q335 582 323 594T311 626Z" />
<glyph unicode="&#xec;" glyph-name="igrave" horiz-adv-x="276" d="M252 -4Q245 -4 231 -3T201 -2T171 -1T150 0H136Q129 0 115 0T85 -1T55 -3T33 -4L32 0L33 14L37 18Q53 18 68 19T92 29Q100 36 102 47T107 78Q108 94 109 110T110 163V286Q110 307 110 321T110
347T109 367T107 386Q105 397 101 405T94 417Q84 429 69 431T38 434L34 438V452L38 455H56Q73 455 99 455T144 459L179 464L185 455Q183 451 182 441T180 420T179 397T178 380Q178 372 178 365T177 347T177 323T176 287V175Q176 153 176 139T177 115T178 97T180
78Q182 57 184 47T195 29Q203 22 217 20T247 18L252 13L254 0L252 -4ZM191 549L-10 626Q-14 635 -14 645Q-14 659 -5 669T21 680L202 579L205 572L199 552L191 549Z" />
<glyph unicode="&#xed;" glyph-name="iacute" horiz-adv-x="276" d="M252 -4Q245 -4 231 -3T201 -2T171 -1T150 0H136Q129 0 115 0T85 -1T55 -3T33 -4L32 0L33 14L37 18Q53 18 68 19T92 29Q100 36 102 47T107 78Q108 94 109 110T110 163V286Q110 307 110 321T110
347T109 367T107 386Q105 397 101 405T94 417Q84 429 69 431T38 434L34 438V452L38 455H56Q73 455 99 455T144 459L179 464L185 455Q183 451 182 441T180 420T179 397T178 380Q178 372 178 365T177 347T177 323T176 287V175Q176 153 176 139T177 115T178 97T180
78Q182 57 184 47T195 29Q203 22 217 20T247 18L252 13L254 0L252 -4ZM47 552L41 572L44 579L224 680Q241 679 250 669T260 645Q260 635 256 626L54 549L47 552Z" />
<glyph unicode="&#xee;" glyph-name="icircumflex" horiz-adv-x="276" d="M252 -4Q245 -4 231 -3T201 -2T171 -1T150 0H136Q129 0 115 0T85 -1T55 -3T33 -4L32 0L33 14L37 18Q53 18 68 19T92 29Q100 36 102 47T107 78Q108 94 109 110T110 163V286Q110 307 110
321T110 347T109 367T107 386Q105 397 101 405T94 417Q84 429 69 431T38 434L34 438V452L38 455H56Q73 455 99 455T144 459L179 464L185 455Q183 451 182 441T180 420T179 397T178 380Q178 372 178 365T177 347T177 323T176 287V175Q176 153 176 139T177 115T178
97T180 78Q182 57 184 47T195 29Q203 22 217 20T247 18L252 13L254 0L252 -4ZM137 673L247 574L250 567L244 548L237 545L133 606L30 545L22 548L16 567L19 574L129 673H137Z" />
<glyph unicode="&#xef;" glyph-name="idieresis" horiz-adv-x="276" d="M252 -4Q245 -4 231 -3T201 -2T171 -1T150 0H136Q129 0 115 0T85 -1T55 -3T33 -4L32 0L33 14L37 18Q53 18 68 19T92 29Q100 36 102 47T107 78Q108 94 109 110T110 163V286Q110 307 110 321T110
347T109 367T107 386Q105 397 101 405T94 417Q84 429 69 431T38 434L34 438V452L38 455H56Q73 455 99 455T144 459L179 464L185 455Q183 451 182 441T180 420T179 397T178 380Q178 372 178 365T177 347T177 323T176 287V175Q176 153 176 139T177 115T178 97T180
78Q182 57 184 47T195 29Q203 22 217 20T247 18L252 13L254 0L252 -4ZM13 626Q13 644 25 657T54 671Q71 671 83 658T96 626Q96 607 84 595T54 582Q37 582 25 594T13 626ZM170 626Q170 644 182 657T211 671Q228 671 240 658T253 626Q253 607 241 595T211 582Q194
582 182 594T170 626Z" />
<glyph unicode="&#xf0;" glyph-name="eth" horiz-adv-x="579" d="M443 407Q441 463 423 511T380 598L270 554L249 588L360 634Q353 650 341 663T317 685T292 702T270 712L287 740Q359 720 412 653L512 693L533 659L436 620Q478 554 500 469T522 291Q522 231 510
177T470 80T397 14T287 -11Q224 -11 178 10T103 65T60 142T46 232Q46 281 61 325T107 402T182 455T285 475Q325 475 366 459T440 406L443 407ZM286 28Q328 28 358 46T408 94T437 161T447 236Q447 328 404 379T282 431Q238 431 208 414T158 369T130 306T121 234Q121
197 131 161T162 95T214 47T286 28Z" />
<glyph unicode="&#xf1;" glyph-name="ntilde" horiz-adv-x="609" d="M178 374Q204 417 245 446T347 475Q375 475 403 467T454 442T493 399T514 336Q517 310 517 281T518 223Q518 187 518 151T519 78Q521 55 524 45T533 29Q542 21 557 20T589 18L592 14L594 0L592
-4Q575 -2 554 -1T513 0Q475 0 444 -3L437 7Q441 20 443 41T446 78Q448 120 449 160T450 228Q450 251 449 278T442 325Q432 372 401 395T329 418Q296 418 268 404T219 370T188 327T176 288V175Q176 153 176 139T176 115T178 97T180 78Q182 57 184 47T195 29Q203
22 217 20T247 18L252 13L254 0L252 -4Q245 -4 231 -3T201 -2T171 -1T150 0H136Q129 0 115 0T85 -1T55 -3T33 -4L32 0L33 14L37 18Q53 18 68 19T92 29Q100 36 102 47T107 78Q108 94 109 110T110 163V286Q110 307 110 321T110 347T109 367T107 386Q105 397 101 405T94
417Q84 429 69 431T38 434L34 438V452L38 455H56Q73 455 99 455T144 459L179 464L185 455Q180 442 178 420T175 376L178 374ZM459 663Q456 649 450 636T433 611T407 593T371 586Q331 586 290 593T216 600Q191 600 181 594T161 575L148 583Q152 596 159 610T176
634T202 652T239 659Q264 659 282 657T317 652T348 647T382 645Q399 645 416 649T447 671L459 663Z" />
<glyph unicode="&#xf2;" glyph-name="ograve" horiz-adv-x="583" d="M291 475Q350 475 396 455T473 400T521 320T538 227Q538 181 523 138T477 62T400 9T293 -11Q230 -11 183 10T106 65T60 142T45 232Q45 281 62 325T110 402T187 455T291 475ZM292 28Q334 28 366
45T419 90T450 153T461 227Q461 263 450 300T416 366T362 414T288 433Q244 433 213 416T161 370T130 306T120 234Q120 197 131 161T165 95T219 47T292 28ZM352 549L150 626Q146 635 146 645Q146 659 155 669T181 680L362 579L365 572L359 552L352 549Z" />
<glyph unicode="&#xf3;" glyph-name="oacute" horiz-adv-x="583" d="M291 475Q350 475 396 455T473 400T521 320T538 227Q538 181 523 138T477 62T400 9T293 -11Q230 -11 183 10T106 65T60 142T45 232Q45 281 62 325T110 402T187 455T291 475ZM292 28Q334 28 366
45T419 90T450 153T461 227Q461 263 450 300T416 366T362 414T288 433Q244 433 213 416T161 370T130 306T120 234Q120 197 131 161T165 95T219 47T292 28ZM216 552L210 572L213 579L393 680Q410 679 419 669T429 645Q429 635 425 626L223 549L216 552Z" />
<glyph unicode="&#xf4;" glyph-name="ocircumflex" horiz-adv-x="583" d="M291 475Q350 475 396 455T473 400T521 320T538 227Q538 181 523 138T477 62T400 9T293 -11Q230 -11 183 10T106 65T60 142T45 232Q45 281 62 325T110 402T187 455T291 475ZM292 28Q334
28 366 45T419 90T450 153T461 227Q461 263 450 300T416 366T362 414T288 433Q244 433 213 416T161 370T130 306T120 234Q120 197 131 161T165 95T219 47T292 28ZM302 673L412 574L415 567L410 548L402 545L298 606L195 545L187 548L181 567L184 574L295 673H302Z"
/>
<glyph unicode="&#xf5;" glyph-name="otilde" horiz-adv-x="583" d="M291 475Q350 475 396 455T473 400T521 320T538 227Q538 181 523 138T477 62T400 9T293 -11Q230 -11 183 10T106 65T60 142T45 232Q45 281 62 325T110 402T187 455T291 475ZM292 28Q334 28 366
45T419 90T450 153T461 227Q461 263 450 300T416 366T362 414T288 433Q244 433 213 416T161 370T130 306T120 234Q120 197 131 161T165 95T219 47T292 28ZM437 663Q434 649 428 636T411 611T385 593T349 586Q309 586 268 593T194 600Q169 600 159 594T139 575L126
583Q130 596 137 610T154 634T180 652T217 659Q242 659 260 657T295 652T326 647T360 645Q377 645 394 649T425 671L437 663Z" />
<glyph unicode="&#xf6;" glyph-name="odieresis" horiz-adv-x="583" d="M291 475Q350 475 396 455T473 400T521 320T538 227Q538 181 523 138T477 62T400 9T293 -11Q230 -11 183 10T106 65T60 142T45 232Q45 281 62 325T110 402T187 455T291 475ZM292 28Q334 28
366 45T419 90T450 153T461 227Q461 263 450 300T416 366T362 414T288 433Q244 433 213 416T161 370T130 306T120 234Q120 197 131 161T165 95T219 47T292 28ZM171 626Q171 644 183 657T212 671Q229 671 241 658T254 626Q254 607 242 595T212 582Q195 582 183 594T171
626ZM328 626Q328 644 340 657T369 671Q386 671 398 658T411 626Q411 607 399 595T369 582Q352 582 340 594T328 626Z" />
<glyph unicode="&#xf7;" glyph-name="divide" horiz-adv-x="565" d="M490 265L481 213H76L86 265H490ZM247 80Q247 99 260 113T294 127Q312 127 326 113T341 80Q341 60 327 47T294 33Q274 33 261 46T247 80ZM247 397Q247 416 260 430T294 445Q312 445 326 431T341
397Q341 378 327 365T294 351Q274 351 261 364T247 397Z" />
<glyph unicode="&#xf8;" glyph-name="oslash" horiz-adv-x="583" d="M291 475Q335 475 371 464T436 432L469 470L475 473H542L540 470L476 396Q506 362 522 319T538 227Q538 181 523 138T477 62T400 9T293 -11Q251 -11 217 -2T155 24L122 -15L116 -19H49L51 -15L113
56Q78 91 62 137T45 232Q45 281 62 325T110 402T187 455T291 475ZM120 234Q120 201 129 168T156 106L398 387Q377 408 350 420T288 433Q244 433 213 416T161 370T130 306T120 234ZM292 28Q334 28 366 45T419 90T450 153T461 227Q461 256 453 286T430 343L191 66Q211
48 236 38T292 28Z" />
<glyph unicode="&#xf9;" glyph-name="ugrave" horiz-adv-x="599" d="M355 549L154 626Q150 635 150 645Q150 659 159 669T185 680L365 579L368 572L363 552L355 549ZM429 86Q403 44 363 17T263 -11Q234 -11 208 -5T159 17T120 57T97 120Q92 146 92 174T92 232Q92
245 92 267T91 313T91 357T91 386Q91 397 86 405T78 418Q68 429 53 431T22 434L19 438V452L22 455H40Q57 455 83 455T128 459L163 464L169 455Q167 451 166 441T164 418T163 395T163 378Q163 361 163 341T162 299T161 259T160 227Q160 205 161 178T168 130Q178
83 209 60T281 37Q312 37 338 49T383 80T415 118T432 156V286Q432 307 432 321T431 347T430 367T428 386Q426 397 423 405T416 417Q406 429 391 431T360 434L356 438V452L360 455H378Q395 455 421 455T465 459L500 464L506 455Q504 451 503 441T501 418T500 395T500
378Q500 370 500 363T499 346T499 323T498 287V175Q498 153 498 139T499 115T500 97T501 78Q503 55 506 45T516 29Q524 21 539 20T571 18L575 14L577 0L575 -4Q557 -2 536 -1T495 0Q457 0 426 -3L420 7Q423 20 426 41T432 84L429 86Z" />
<glyph unicode="&#xfa;" glyph-name="uacute" horiz-adv-x="599" d="M193 552L188 572L191 579L371 680Q388 679 397 669T406 645Q406 636 403 626L201 549L193 552ZM429 86Q403 44 363 17T263 -11Q234 -11 208 -5T159 17T120 57T97 120Q92 146 92 174T92 232Q92
245 92 267T91 313T91 357T91 386Q91 397 86 405T78 418Q68 429 53 431T22 434L19 438V452L22 455H40Q57 455 83 455T128 459L163 464L169 455Q167 451 166 441T164 418T163 395T163 378Q163 361 163 341T162 299T161 259T160 227Q160 205 161 178T168 130Q178
83 209 60T281 37Q312 37 338 49T383 80T415 118T432 156V286Q432 307 432 321T431 347T430 367T428 386Q426 397 423 405T416 417Q406 429 391 431T360 434L356 438V452L360 455H378Q395 455 421 455T465 459L500 464L506 455Q504 451 503 441T501 418T500 395T500
378Q500 370 500 363T499 346T499 323T498 287V175Q498 153 498 139T499 115T500 97T501 78Q503 55 506 45T516 29Q524 21 539 20T571 18L575 14L577 0L575 -4Q557 -2 536 -1T495 0Q457 0 426 -3L420 7Q423 20 426 41T432 84L429 86Z" />
<glyph unicode="&#xfb;" glyph-name="ucircumflex" horiz-adv-x="599" d="M292 673L403 574L405 567L400 548L392 545L288 606L185 545L177 548L172 567L174 574L285 673H292ZM429 86Q403 44 363 17T263 -11Q234 -11 208 -5T159 17T120 57T97 120Q92 146 92 174T92
232Q92 245 92 267T91 313T91 357T91 386Q91 397 86 405T78 418Q68 429 53 431T22 434L19 438V452L22 455H40Q57 455 83 455T128 459L163 464L169 455Q167 451 166 441T164 418T163 395T163 378Q163 361 163 341T162 299T161 259T160 227Q160 205 161 178T168 130Q178
83 209 60T281 37Q312 37 338 49T383 80T415 118T432 156V286Q432 307 432 321T431 347T430 367T428 386Q426 397 423 405T416 417Q406 429 391 431T360 434L356 438V452L360 455H378Q395 455 421 455T465 459L500 464L506 455Q504 451 503 441T501 418T500 395T500
378Q500 370 500 363T499 346T499 323T498 287V175Q498 153 498 139T499 115T500 97T501 78Q503 55 506 45T516 29Q524 21 539 20T571 18L575 14L577 0L575 -4Q557 -2 536 -1T495 0Q457 0 426 -3L420 7Q423 20 426 41T432 84L429 86Z" />
<glyph unicode="&#xfc;" glyph-name="udieresis" horiz-adv-x="599" d="M429 86Q403 44 363 17T263 -11Q234 -11 208 -5T159 17T120 57T97 120Q92 146 92 174T92 232Q92 245 92 267T91 313T91 357T91 386Q91 397 86 405T78 418Q68 429 53 431T22 434L19 438V452L22
455H40Q57 455 83 455T128 459L163 464L169 455Q167 451 166 441T164 418T163 395T163 378Q163 361 163 341T162 299T161 259T160 227Q160 205 161 178T168 130Q178 83 209 60T281 37Q312 37 338 49T383 80T415 118T432 156V286Q432 307 432 321T431 347T430 367T428
386Q426 397 423 405T416 417Q406 429 391 431T360 434L356 438V452L360 455H378Q395 455 421 455T465 459L500 464L506 455Q504 451 503 441T501 418T500 395T500 378Q500 370 500 363T499 346T499 323T498 287V175Q498 153 498 139T499 115T500 97T501 78Q503
55 506 45T516 29Q524 21 539 20T571 18L575 14L577 0L575 -4Q557 -2 536 -1T495 0Q457 0 426 -3L420 7Q423 20 426 41T432 84L429 86ZM168 626Q168 644 180 657T209 671Q226 671 238 658T251 626Q251 607 239 595T209 582Q192 582 180 594T168 626ZM325 626Q325
644 337 657T366 671Q383 671 395 658T408 626Q408 607 396 595T366 582Q349 582 337 594T325 626Z" />
<glyph unicode="&#xfd;" glyph-name="yacute" horiz-adv-x="514" d="M41 -229Q55 -229 67 -228T92 -224T115 -212T141 -190Q160 -170 174 -148T197 -102L229 -21L160 160Q156 169 147 193T125 246T101 307T79 362Q69 386 61 400Q51 416 39 425T5 436L-1 441V455L3
459Q20 457 39 455T74 453H113Q129 453 151 455T194 459L198 455V443L194 439Q172 437 158 428T143 400Q143 388 152 358T174 293T197 228T212 189L262 59L309 174Q316 191 328 220T352 282T372 346T381 400Q381 422 365 429T329 439L325 443V455L329 459Q368 453
402 453H443Q460 453 475 455T510 459L514 455V441L509 436Q491 434 482 426T461 400Q452 384 441 360T418 308T395 251T374 197T358 154T348 128L250 -116Q224 -181 180 -212T83 -257Q73 -259 65 -259T47 -260L39 -258L37 -234L41 -229ZM201 552L195 572L198 579L378
680Q395 679 404 669T413 645Q413 641 413 636T410 626L208 549L201 552Z" />
<glyph unicode="&#xfe;" glyph-name="thorn" horiz-adv-x="581" d="M6 727L10 731H28Q45 731 71 731T116 735L155 740L160 731Q155 716 154 685Q153 652 153 604T152 508T151 426T151 384Q180 425 221 450T314 475Q371 475 412 455T481 402T521 327T534 238Q534
170 513 123T460 46T389 3T315 -11Q266 -11 223 11T148 87V-5Q148 -46 148 -71T149 -115T150 -147T152 -179Q154 -199 156 -210T167 -227Q175 -235 189 -237T219 -239L224 -243L226 -257L224 -260Q217 -260 203 -260T173 -259T143 -258T122 -257H108Q101 -257 87
-257T57 -258T27 -259T5 -260L4 -257L5 -242L9 -239Q25 -239 40 -237T64 -227Q72 -221 74 -210T79 -179Q80 -166 80 -154T81 -124T82 -84T82 -28V481Q82 521 82 548T82 595T81 630T79 662Q78 673 74 681T66 693Q56 704 41 707T10 710L6 714V727ZM458 236Q458 270
449 303T422 361T375 402T309 418Q271 418 242 404T193 370T161 327T148 289V179Q151 163 161 140T190 96T239 59T307 44Q346 44 374 60T421 104T449 165T458 236Z" />
<glyph unicode="&#xff;" glyph-name="ydieresis" horiz-adv-x="514" d="M41 -229Q55 -229 67 -228T92 -224T115 -212T141 -190Q160 -170 174 -148T197 -102L229 -21L160 160Q156 169 147 193T125 246T101 307T79 362Q69 386 61 400Q51 416 39 425T5 436L-1 441V455L3
459Q20 457 39 455T74 453H113Q129 453 151 455T194 459L198 455V443L194 439Q172 437 158 428T143 400Q143 388 152 358T174 293T197 228T212 189L262 59L309 174Q316 191 328 220T352 282T372 346T381 400Q381 422 365 429T329 439L325 443V455L329 459Q368 453
402 453H443Q460 453 475 455T510 459L514 455V441L509 436Q491 434 482 426T461 400Q452 384 441 360T418 308T395 251T374 197T358 154T348 128L250 -116Q224 -181 180 -212T83 -257Q73 -259 65 -259T47 -260L39 -258L37 -234L41 -229ZM137 626Q137 644 149 657T178
671Q195 671 207 658T220 626Q220 607 208 595T178 582Q161 582 149 594T137 626ZM294 626Q294 644 306 657T335 671Q352 671 364 658T377 626Q377 607 365 595T335 582Q318 582 306 594T294 626Z" />
<glyph unicode="&#x2013;" glyph-name="endash" horiz-adv-x="548" d="M481 265L472 213H67L77 265H481Z" />
<glyph unicode="&#x2014;" glyph-name="emdash" horiz-adv-x="786" d="M719 265L710 213H67L77 265H719Z" />
<glyph unicode="&#x2018;" glyph-name="quoteleft" horiz-adv-x="189" d="M144 740L150 734V730Q136 701 132 678T127 642Q127 631 132 620T138 593Q138 585 132 579T118 568T99 562T79 560Q71 560 66 564T59 576T55 590T54 603Q54 626 63 648T86 689T113 721T138
740H144Z" />
<glyph unicode="&#x2019;" glyph-name="quoteright" horiz-adv-x="176" d="M62 560L56 566V570Q70 599 74 622T79 658Q79 669 74 680T68 707Q68 715 74 721T88 732T107 738T127 740Q135 740 140 736T147 724T151 710T152 697Q152 674 143 652T120 611T93 579T68 560H62Z" />
<glyph unicode="&#x201a;" glyph-name="quotesinglbase" horiz-adv-x="213" d="M57 -97L51 -91V-87Q65 -58 69 -35T74 1Q74 12 69 23T63 50Q63 58 69 64T83 75T102 81T122 83Q130 83 135 79T142 67T146 53T147 40Q147 17 138 -5T115 -46T88 -78T63 -97H57Z" />
<glyph unicode="&#x201c;" glyph-name="quotedblleft" horiz-adv-x="341" d="M296 740L302 734V730Q288 701 284 678T279 642Q279 631 284 620T290 593Q290 585 284 579T270 568T251 562T231 560Q223 560 218 564T211 576T207 590T206 603Q206 626 215 648T238
689T265 721T290 740H296ZM144 740L150 734V730Q136 701 132 678T127 642Q127 631 132 620T138 593Q138 585 132 579T118 568T99 562T79 560Q71 560 66 564T59 576T55 590T54 603Q54 626 63 648T86 689T113 721T138 740H144Z" />
<glyph unicode="&#x201d;" glyph-name="quotedblright" horiz-adv-x="328" d="M62 560L56 566V570Q70 599 74 622T79 658Q79 669 74 680T68 707Q68 715 74 721T88 732T107 738T127 740Q135 740 140 736T147 724T151 710T152 697Q152 674 143 652T120 611T93 579T68
560H62ZM214 560L208 566V570Q222 599 226 622T231 658Q231 669 226 680T220 707Q220 715 226 721T240 732T259 738T279 740Q287 740 292 736T299 724T303 710T304 697Q304 674 295 652T272 611T245 579T220 560H214Z" />
<glyph unicode="&#x201e;" glyph-name="quotedblbase" horiz-adv-x="374" d="M57 -97L51 -91V-87Q65 -58 69 -35T74 1Q74 12 69 23T63 50Q63 58 69 64T83 75T102 81T122 83Q130 83 135 79T142 67T146 53T147 40Q147 17 138 -5T115 -46T88 -78T63 -97H57ZM218 -97L212
-91V-87Q226 -58 230 -35T235 1Q235 12 230 23T224 50Q224 58 230 64T244 75T263 81T283 83Q291 83 296 79T303 67T307 53T308 40Q308 17 299 -5T276 -46T249 -78T224 -97H218Z" />
<glyph unicode="&#x2022;" glyph-name="bullet" horiz-adv-x="326" d="M95 243Q95 270 114 291T163 312Q176 312 188 307T210 291T225 269T231 243Q231 214 210 195T163 176Q134 176 115 195T95 243Z" />
<glyph unicode="&#x2039;" glyph-name="guilsinglleft" horiz-adv-x="302" d="M249 411Q205 367 173 327T109 240Q141 195 173 155T249 70L244 60H186L179 64Q167 83 155 101T127 139T92 184T47 240Q72 271 91 296T126 341T154 380T179 417L186 421H244L249 411Z" />
<glyph unicode="&#x203a;" glyph-name="guilsinglright" horiz-adv-x="302" d="M57 421H115L123 417Q135 398 147 380T175 342T210 296T255 240Q230 209 211 185T176 140T148 101T123 64L115 60H57L53 70Q96 114 128 154T192 240Q160 286 128 326T53 411L57 421Z" />
</font>
</defs>
</svg>
