<?xml version="1.0" standalone="no"?>
<!DOCTYPE svg PUBLIC "-//W3C//DTD SVG 1.1//EN" "http://www.w3.org/Graphics/SVG/1.1/DTD/svg11.dtd">
<svg xmlns="http://www.w3.org/2000/svg">
<defs >
<font id="InknutAntiqua" horiz-adv-x="804" ><font-face
    font-family="Inknut Antiqua Medium"
    units-per-em="1000"
    panose-1="0 0 6 0 0 0 0 0 0 0"
    ascent="1703"
    descent="-876"
    alphabetic="0" />
<glyph unicode=" " glyph-name="space" horiz-adv-x="279" />
<glyph unicode="!" glyph-name="exclam" horiz-adv-x="348" d="M137 250L74 697V733L217 786H260L206 250H137ZM216 163T236 140T257 82Q257 58 242 37T204 3T160 -10Q128 -10 107 13T85 71Q85 95 100 116T138 150T183 163Q216 163 236 140Z" />
<glyph unicode="&quot;" glyph-name="quotedbl" horiz-adv-x="524" d="M140 424L60 700V736L184 786H227L193 425L140 424ZM376 424L296 700V736L420 786H463L429 425L376 424Z" />
<glyph unicode="#" glyph-name="numbersign" horiz-adv-x="780" d="M476 187H634L606 137H447L362 -10L324 12L396 137H239L154 -10L116 12L188 137H30L58 187H217L306 342H147L176 392H334L421 542L459 520L385 392H542L629 542L667 520L593 392H752L723 342H565L476
187ZM357 342L268 187H425L514 342H357Z" />
<glyph unicode="$" glyph-name="dollar" horiz-adv-x="700" d="M634 177T592 122T487 26T371 -19V-199H310V-18Q245 -13 174 0T70 27V226H119Q159 161 208 119T311 62V337Q233 378 187 406T108 474T75 562Q75 608 112 661T204 754T311 804V986H372V805Q434 801
503 788T605 759V560H556Q517 628 470 671T372 726V460L407 442Q480 404 526 375T603 308T635 223L634 225Q634 177 592 122ZM215 582T240 554T310 497V732Q266 725 241 693T215 613V614Q215 582 240 554ZM427 59T460 94T494 177Q494 212 462 243T371 307V56Q427
59 460 94Z" />
<glyph unicode="%" glyph-name="percent" horiz-adv-x="1085" d="M646 883T696 857T774 787T802 688Q802 629 759 579T650 498T525 468Q462 468 412 493T333 564T305 664Q305 722 348 772T456 853T582 883Q646 883 696 857ZM417 811T417 697Q417 630 456 586T571
541Q690 541 690 655Q690 722 650 766T535 811Q417 811 417 697ZM154 -126L117 -97L953 927L991 899L154 -126ZM880 298T930 272T1008 202T1036 103Q1036 44 993 -6T884 -87T759 -117Q696 -117 646 -92T567 -21T539 79Q539 137 582 187T690 268T816 298Q880 298
930 272ZM651 226T651 112Q651 45 690 0T805 -45Q924 -45 924 70Q924 137 884 181T769 226Q651 226 651 112Z" />
<glyph unicode="&amp;" glyph-name="ampersand" horiz-adv-x="1261" d="M1038 84T1148 162L1178 120L1026 0Q982 -9 920 -9Q861 -9 814 15T741 80T714 170Q714 196 720 220L442 0Q397 -9 327 -9Q252 -9 193 28T101 128T67 270Q67 353 118 425T245 541T393 584Q446
584 485 549T536 471Q581 520 635 551T738 583Q776 583 806 573T876 543Q916 523 946 513T1016 502Q1040 502 1065 513T1106 543T1123 586Q1123 623 1084 656T974 716V752L1101 796Q1133 763 1166 707T1200 611Q1200 561 1159 507T1063 416T972 379Q941 379 918
383Q885 359 870 320T854 219Q854 159 886 121T978 83V84Q1038 84 1148 162ZM423 84T471 104T584 175L864 396Q832 406 786 427Q745 445 719 453T662 462Q630 462 601 451T537 411Q527 368 493 331T412 261T287 183L263 228Q342 274 370 317T398 410Q398 444 377
468T327 493Q268 493 238 449T208 318Q208 218 253 151T383 84Q423 84 471 104Z" />
<glyph unicode="&apos;" glyph-name="quotesingle" horiz-adv-x="287" d="M140 424L60 700V736L184 786H227L193 425L140 424Z" />
<glyph unicode="(" glyph-name="parenleft" horiz-adv-x="516" d="M343 822T278 701T213 403Q213 223 274 72T462 -166L432 -210Q322 -169 240 -89T113 105T68 355Q68 709 436 953L463 909Q343 822 278 701Z" />
<glyph unicode=")" glyph-name="parenright" horiz-adv-x="516" d="M173 -79T238 42T303 340Q303 520 242 671T54 909L84 953Q194 912 276 832T403 638T448 388Q448 34 80 -210L53 -166Q173 -79 238 42Z" />
<glyph unicode="*" glyph-name="asterisk" horiz-adv-x="698" d="M352 548L370 727L489 813L559 691L541 660L462 700L369 538L352 548ZM348 549L331 539L185 643L170 790H310L329 759L255 710L348 549ZM30 503L100 624H136L142 536H328V516L164 442L30 503ZM598
426H562L556 514H370V534L534 608L668 548L598 426ZM346 503L329 324L209 238L139 359L157 390L236 351L329 512L346 503ZM528 260H388L369 291L443 340L350 501L367 511L513 407L528 260Z" />
<glyph unicode="+" glyph-name="plus" horiz-adv-x="531" d="M288 286V84H242V286H40V332H243V535H289V332H491V286H288Z" />
<glyph unicode="," glyph-name="comma" horiz-adv-x="370" d="M91 -264L48 -230Q98 -170 120 -127T147 -32L66 16V52L245 137L288 -20L91 -264Z" />
<glyph unicode="-" glyph-name="hyphen" horiz-adv-x="513" d="M76 301L116 352H437V317L397 266H76V301Z" />
<glyph unicode="." glyph-name="period" horiz-adv-x="337" d="M213 163T234 140T255 82Q255 58 240 37T202 3T157 -10Q125 -10 104 13T83 71Q83 95 98 116T136 150T180 163Q213 163 234 140Z" />
<glyph unicode="/" glyph-name="slash" horiz-adv-x="355" d="M73 -141L18 -129L281 944L338 932L73 -141Z" />
<glyph unicode="0" glyph-name="zero" horiz-adv-x="757" d="M493 583T556 546T654 446T689 304Q689 221 635 149T500 33T343 -10Q264 -10 202 27T104 127T68 269Q68 352 122 424T257 540T414 583Q493 583 556 546ZM208 494T208 317Q208 252 229 198T294 112T401
79Q549 79 549 257Q549 322 528 376T463 462T356 494Q208 494 208 317Z" />
<glyph unicode="1" glyph-name="one" horiz-adv-x="497" d="M399 0H86V36L183 112V493L75 528L98 573H410V537L313 461V80L422 45L399 0Z" />
<glyph unicode="2" glyph-name="two" horiz-adv-x="603" d="M552 -19L492 -1H44V35Q171 139 237 201T329 303T355 376Q355 426 321 457T232 489Q168 489 74 417L44 459L187 572Q220 582 260 582Q331 582 385 564T468 511T497 433Q497 389 437 314T245 131H485L517
213L552 201V-19Z" />
<glyph unicode="3" glyph-name="three" horiz-adv-x="560" d="M425 209T460 170T495 84Q495 -22 390 -105T52 -264L36 -211Q166 -164 233 -128T327 -55T354 37Q354 65 342 87T302 132T220 187V217Q275 279 293 311T312 377Q312 427 283 459T207 491Q150 491 55
419L25 461L169 575Q191 583 213 583Q278 583 333 563T420 509T453 434Q450 396 424 357T336 259H337Q425 209 460 170Z" />
<glyph unicode="4" glyph-name="four" horiz-adv-x="703" d="M530 59V-155L400 -214V59H30V95L400 543L530 602V135H683L648 59H530ZM400 438L155 135H400V438Z" />
<glyph unicode="5" glyph-name="five" horiz-adv-x="626" d="M287 303T366 256T477 169T508 82Q508 -6 444 -71T286 -180T63 -264L46 -211Q183 -162 251 -126T343 -53T367 35Q367 75 345 105T259 172T69 262L134 573H426L459 655L494 644V424L434 442H153L138
366V365Q287 303 366 256Z" />
<glyph unicode="6" glyph-name="six" horiz-adv-x="738" d="M399 710T314 590T228 345Q228 273 248 213T310 116T411 79Q529 79 529 236Q529 327 473 390T328 483L361 533Q447 533 518 501T629 411T670 285Q670 214 624 145T503 33T352 -10Q276 -10 216 30T122
142T88 300Q88 410 128 503T273 691T566 883L592 837Q399 710 314 590Z" />
<glyph unicode="7" glyph-name="seven" horiz-adv-x="658" d="M604 530L200 -264L147 -240L498 442H135L104 368L69 379V591L129 573H604V530Z" />
<glyph unicode="8" glyph-name="eight" horiz-adv-x="739" d="M533 447T574 416T644 345T672 254Q672 200 626 138T514 33T394 -10Q301 -10 227 21T111 107T69 228Q69 278 113 329T259 455Q194 499 158 545T121 649Q121 697 164 752T269 845T383 883Q450 883 502
859T584 793T614 702Q610 658 580 611T467 486H468Q533 447 574 416ZM318 809T289 777T260 696Q260 644 301 603T421 514Q462 567 473 594T485 655Q485 720 450 764T362 808V809Q318 809 289 777ZM439 66T469 86T516 139T533 209Q533 247 508 280T445 339T343 404Q332
411 323 416T305 427Q246 377 228 346T209 277Q209 222 235 174T306 96T399 66Q439 66 469 86Z" />
<glyph unicode="9" glyph-name="nine" horiz-adv-x="738" d="M461 583T521 546T616 443T650 299Q650 192 610 102T465 -79T173 -264L147 -218Q340 -94 424 20T509 254Q509 319 489 373T428 461T327 494Q268 494 238 454T208 336Q208 245 262 182T401 90L368 40Q284
40 216 72T108 162T68 288Q68 359 114 428T235 540T385 583Q461 583 521 546Z" />
<glyph unicode=":" glyph-name="colon" horiz-adv-x="337" d="M213 542T234 519T255 461Q255 437 240 416T202 382T157 369Q125 369 104 392T83 450Q83 474 98 495T136 529T180 542Q213 542 234 519ZM213 163T234 140T255 82Q255 58 240 37T202 3T157 -10Q125
-10 104 13T83 71Q83 95 98 116T136 150T180 163Q213 163 234 140Z" />
<glyph unicode=";" glyph-name="semicolon" horiz-adv-x="370" d="M91 -264L48 -230Q98 -170 120 -127T147 -32L66 16V52L245 137L288 -20L91 -264ZM213 542T234 519T255 461Q255 437 240 416T202 382T157 369Q125 369 104 392T83 450Q83 474 98 495T136 529T180
542Q213 542 234 519Z" />
<glyph unicode="&lt;" glyph-name="less" horiz-adv-x="474" d="M330 84L30 310L395 556L429 523L171 349L444 143L330 84Z" />
<glyph unicode="=" glyph-name="equal" horiz-adv-x="531" d="M40 422H491V376H40V422ZM40 498H491V452H40V498Z" />
<glyph unicode="&gt;" glyph-name="greater" horiz-adv-x="474" d="M79 63L45 97L303 271L30 477L144 536L444 310L79 63Z" />
<glyph unicode="?" glyph-name="question" horiz-adv-x="491" d="M249 806T300 781T387 716T424 639Q424 604 397 575T316 507Q280 480 263 463T245 431Q245 395 290 359V323L180 266Q152 291 136 317T120 373Q120 407 146 435T223 501Q261 529 279 547T297 582Q297
606 275 637T218 690T149 712Q107 712 39 675L9 717L113 798Q153 806 210 806Q249 806 300 781ZM251 163T271 140T292 82Q292 58 277 37T239 3T195 -10Q163 -10 142 13T120 71Q120 95 135 116T173 150T218 163Q251 163 271 140Z" />
<glyph unicode="@" glyph-name="at" horiz-adv-x="1356" d="M903 818T1027 760T1219 597T1288 361Q1288 268 1234 189T1094 60T922 0H792V72L699 -2Q667 -10 622 -10Q556 -10 504 24T422 118T392 248Q392 326 439 394T556 502T693 543Q771 543 828 486L879 551H922V61Q1034
87 1090 152T1147 314Q1147 428 1097 522T943 672T685 729Q548 729 439 674T269 519T208 294Q208 166 255 57T399 -126T642 -219L619 -264Q440 -265 317 -202T131 -23T68 246Q68 408 173 539T436 744T743 818Q903 818 1027 760ZM705 84T732 92T791 123V343Q785
391 747 421T640 452Q586 452 559 413T532 296Q532 206 569 146T676 85V84Q705 84 732 92Z" />
<glyph unicode="A" glyph-name="A" horiz-adv-x="879" d="M858 0H540V36L638 107L564 285H232L156 108L328 45L305 0H-3V36L94 111L372 754L490 805L780 103L880 45L858 0ZM402 678L255 337H543L402 678Z" />
<glyph unicode="B" glyph-name="B" horiz-adv-x="790" d="M650 401T693 349T737 229Q737 166 686 111T558 22T412 -11Q362 -11 314 -6Q234 -1 190 -1H58V35L152 109V708L46 741L69 786H189Q280 786 368 792Q436 796 468 796Q536 796 588 770T668 700T697 600Q697
550 664 504T575 425V424Q650 401 693 349ZM550 628T510 677T390 726Q335 726 288 695V431H425Q484 431 517 462T550 551Q550 628 510 677ZM509 67T549 102T590 196Q590 272 546 319T416 369Q409 368 397 368H288V93Q352 68 440 68V67Q509 67 549 102Z" />
<glyph unicode="C" glyph-name="C" horiz-adv-x="823" d="M557 806T628 791T732 759V561H682Q593 716 445 716Q381 716 329 678T246 573T215 423Q215 327 244 248T335 122T486 74Q573 74 733 196L765 145L581 2Q543 -11 507 -15T430 -20Q324 -20 242 31T114 171T68
375Q68 492 137 591T308 748T503 806Q557 806 628 791Z" />
<glyph unicode="D" glyph-name="D" horiz-adv-x="895" d="M578 795T658 746T783 608T828 409Q828 295 761 199T593 46T402 -11Q354 -11 309 -6Q231 -1 191 -1H58V35L152 109V707L46 741L69 786H190Q284 786 374 792Q442 796 473 796V795Q578 795 658 746ZM500
68T557 106T647 211T680 363Q680 464 649 546T554 678T395 727Q336 727 288 693V91Q349 67 430 67V68Q500 68 557 106Z" />
<glyph unicode="E" glyph-name="E" horiz-adv-x="815" d="M664 -1H58V35L152 109V706L46 741L69 786H654L712 804V569L677 557L557 735H288V427H437L510 552H546V251L501 228L438 376H288V51H552L687 250L722 237V-19L664 -1Z" />
<glyph unicode="F" glyph-name="F" horiz-adv-x="775" d="M712 568L677 556L556 734H288V426H437L510 551H546V273L501 251L440 375H288V86L447 44L424 -1H58V35L152 109V706L46 741L69 786H654L712 803V568Z" />
<glyph unicode="G" glyph-name="G" horiz-adv-x="916" d="M780 162L807 115L623 2Q579 -11 539 -15T452 -20Q339 -20 252 31T117 171T69 375Q69 492 141 591T320 748T525 806Q583 806 660 791T774 759V556H725Q626 716 467 716Q397 716 340 678T249 573T216 423Q216
327 248 247T345 119T508 71Q549 71 577 73T643 89V319L487 361L510 406H874V370L780 295V162Z" />
<glyph unicode="H" glyph-name="H" horiz-adv-x="960" d="M892 1H578V37L672 111V367H288V81L394 46L372 1H58V37L152 111V707L46 741L69 786H383V750L288 675V417H672V707L566 741L589 786H903V750L808 675V80L914 46L892 1Z" />
<glyph unicode="I" glyph-name="I" horiz-adv-x="440" d="M372 1H58V37L152 111V707L46 741L69 786H383V750L288 675V80L394 46L372 1Z" />
<glyph unicode="J" glyph-name="J" horiz-adv-x="427" d="M285 99Q285 59 287 26T294 -20L95 -264L52 -230Q109 -159 129 -109T149 15V704L24 741L46 786H380V750L285 676V99Z" />
<glyph unicode="K" glyph-name="K" horiz-adv-x="869" d="M394 46L372 1H58V37L152 111V707L46 741L69 786H383V750L288 675V81L394 46ZM834 2H647L342 396L645 661L529 743L552 788H827V752L474 443L742 102L857 47L834 2Z" />
<glyph unicode="L" glyph-name="L" horiz-adv-x="787" d="M665 0H58V36L152 110V707L46 741L69 786H383V750L288 676V51H539L688 270L723 257V-18L665 0Z" />
<glyph unicode="M" glyph-name="M" horiz-adv-x="1089" d="M1020 -1H706V35L800 109V647L537 -1H475L213 654V95L319 44L297 -1H58V35L152 109V687L46 741L69 786H299L544 173L789 786H1031V750L936 676V79L1042 44L1020 -1Z" />
<glyph unicode="N" glyph-name="N" horiz-adv-x="879" d="M748 675V0H687L213 587V97L325 45L303 0H58V36L152 110V684L46 741L69 786H225L687 213V689L575 741L598 786H843V750L748 675Z" />
<glyph unicode="O" glyph-name="O" horiz-adv-x="935" d="M611 806T694 755T822 614T868 410Q868 293 799 194T628 38T432 -20Q325 -20 242 30T114 171T68 375Q68 492 137 591T308 748T503 806Q611 806 694 755ZM381 716T329 678T246 573T215 423Q215 326 245
246T337 118T490 70Q554 70 606 108T689 213T720 363Q720 461 690 541T598 668T445 716Q381 716 329 678Z" />
<glyph unicode="P" glyph-name="P" horiz-adv-x="782" d="M506 384T543 421T581 523Q581 612 537 669T406 726Q340 726 288 689V86L447 44L424 -1H58V35L152 109V707L46 741L69 786H195Q290 786 382 792Q452 796 484 796Q556 796 611 766T697 685T728 569Q728
499 676 437T544 339T387 308L341 340L364 385H440L441 384Q506 384 543 421Z" />
<glyph unicode="Q" glyph-name="Q" horiz-adv-x="935" d="M898 -264T837 -264Q801 -264 728 -189T553 3Q489 -20 432 -20Q325 -20 242 30T114 171T68 375Q68 492 137 591T308 748T503 806Q611 806 694 755T822 614T868 410Q868 295 801 197T631 40Q726 -31 806
-85T903 -140H1038L1061 -190Q898 -264 837 -264ZM215 326T245 246T337 118T490 70Q554 70 606 108T689 213T720 363Q720 461 690 541T598 668T445 716Q381 716 329 678T246 573T215 423Q215 326 245 246Z" />
<glyph unicode="R" glyph-name="R" horiz-adv-x="817" d="M795 1H603L389 354L342 387L359 421H413Q479 421 516 455T554 549Q554 627 512 677T387 728Q334 728 288 695V80L394 45L372 0H58V36L152 110V708L46 741L69 786H195Q286 786 372 792Q436 796 466 796Q535
796 589 769T672 696T702 594Q702 545 672 500T591 421T485 369L553 347L702 101L818 46L795 1Z" />
<glyph unicode="S" glyph-name="S" horiz-adv-x="700" d="M495 206T470 233T408 282T308 338Q233 377 187 406T108 474T75 562Q75 612 117 669T222 766T336 806Q399 806 482 791T605 759V560H556Q509 641 452 686T332 731Q278 731 247 698T216 611Q216 578 241
550T305 498T407 442Q483 402 527 374T603 308T635 223Q635 173 590 116T478 19T358 -21Q292 -21 201 -6T70 26V225H119Q169 144 232 99T363 54Q403 54 433 71T479 115T495 175Q495 206 470 233Z" />
<glyph unicode="T" glyph-name="T" horiz-adv-x="835" d="M770 549L735 537L600 735H484V79L590 45L568 0H254V36L348 110V735H235L100 537L65 549V804L123 786H712L770 804V549Z" />
<glyph unicode="U" glyph-name="U" horiz-adv-x="898" d="M776 676V310Q776 205 725 130T599 18T453 -20Q362 -20 291 19T179 128T139 285V707L34 741L56 786H370V750L275 676V331Q275 208 336 139T521 70Q567 70 611 99T685 186T714 321V691L608 741L630 786H871V750L776
676Z" />
<glyph unicode="V" glyph-name="V" horiz-adv-x="882" d="M785 675L507 32L390 -19L99 683L-1 741L21 786H339V750L242 679L478 108L723 678L552 741L574 786H882V750L785 675Z" />
<glyph unicode="W" glyph-name="W" horiz-adv-x="1212" d="M1123 681L886 33L768 -18L612 440L471 33L353 -18L94 687L-1 742L21 787H305V751L233 697L440 122L582 527L527 687L435 741L457 786H762V750L671 683L856 123L1056 678L882 741L905 786H1212V751L1123 681Z" />
<glyph unicode="X" glyph-name="X" horiz-adv-x="876" d="M827 -1H514V35L593 94L408 325L208 103L348 45L325 0H18V36L129 105L371 371L124 682L26 741L49 786H362V750L282 692L466 462L649 681L508 740L530 785H838V749L733 684L504 416L755 100L849 44L827 -1Z" />
<glyph unicode="Y" glyph-name="Y" horiz-adv-x="812" d="M470 79L576 45L554 0H241V36L335 110V280L76 696L-2 741L18 786H329V750L240 681L436 365L638 676L482 741L504 786H812V750L727 696L470 300V79Z" />
<glyph unicode="Z" glyph-name="Z" horiz-adv-x="790" d="M537 51L676 260L711 247V-18L653 0H64V51L562 735H256L130 547L95 559V804L153 786H721V735L223 51H537Z" />
<glyph unicode="[" glyph-name="bracketleft" horiz-adv-x="435" d="M245 -160H390V-210H115V954H390V904H245V-160Z" />
<glyph unicode="\" glyph-name="backslash" horiz-adv-x="355" d="M282 -141L337 -129L74 944L17 932L282 -141Z" />
<glyph unicode="]" glyph-name="bracketright" horiz-adv-x="435" d="M190 904H45V954H320V-210H45V-160H190V904Z" />
<glyph unicode="^" glyph-name="asciicircum" horiz-adv-x="606" d="M557 285H435L272 608L97 285H49V321L240 676L358 727L557 329V285Z" />
<glyph unicode="_" glyph-name="underscore" horiz-adv-x="503" d="M40 -91H463V-137H40V-91Z" />
<glyph unicode="`" glyph-name="grave" horiz-adv-x="380" d="M282 675L54 844L74 873L218 892L325 696L282 675Z" />
<glyph unicode="a" glyph-name="a" horiz-adv-x="630" d="M585 0H387V87L274 -2Q254 -10 224 -10Q136 -10 97 33T58 139Q58 175 83 210T156 278H387V332Q387 449 262 449Q199 449 104 378L74 420L217 533Q263 543 317 543Q412 543 464 497T517 364V80L607 45L585
0ZM319 85T387 138V232H213Q201 217 196 202T191 169Q191 134 210 110T260 85Q319 85 387 138Z" />
<glyph unicode="b" glyph-name="b" horiz-adv-x="710" d="M504 543T549 509T619 415T644 284Q644 206 597 139T477 31T338 -10Q297 -10 262 7T199 57L155 0H112V708L23 770V806L199 873H242V432L371 535Q403 543 448 543H449Q504 543 549 509ZM450 80T477 119T504
236Q504 326 476 387T395 449Q358 449 324 436T243 383V205Q243 152 282 116T396 80Q450 80 477 119Z" />
<glyph unicode="c" glyph-name="c" horiz-adv-x="618" d="M396 543T452 532T533 506V345H490Q451 395 401 423T297 452Q253 452 231 413T208 297Q208 205 247 144T361 83Q419 83 528 161L558 119L406 -1Q363 -10 303 -10Q236 -10 183 24T99 118T68 249Q68 327
112 394T224 502T354 543Q396 543 452 532Z" />
<glyph unicode="d" glyph-name="d" horiz-adv-x="710" d="M665 0H468V72L374 -2Q342 -10 298 -10Q232 -10 180 24T98 118T68 249Q68 327 115 394T235 502T374 543Q425 543 468 513V708L379 770V806L555 873H598V78L688 45L665 0ZM382 85T409 93T469 123V344Q463
392 424 422T316 452Q208 452 208 297Q208 206 245 146T351 85H352Q382 85 409 93Z" />
<glyph unicode="e" glyph-name="e" horiz-adv-x="647" d="M407 -1Q364 -10 303 -10Q236 -10 183 24T99 118T68 249Q68 327 115 394T235 502T374 543Q471 543 524 467T577 264H209Q216 184 255 134T361 83Q427 83 549 177L579 136L407 -1ZM214 452T209 310H434Q425
361 416 389T383 434T316 452H317Q214 452 209 310Z" />
<glyph unicode="f" glyph-name="f" horiz-adv-x="449" d="M446 883T483 877T538 864V705H495Q470 746 434 769T361 793Q317 793 295 754T272 640V503H449V457H272V87L414 45L392 0H53V36L142 107V457H25V503H142V589Q142 667 184 734T291 842T417 883Q446 883 483 877Z" />
<glyph unicode="g" glyph-name="g" horiz-adv-x="640" d="M499 456Q526 416 526 371Q526 306 473 248T344 164Q318 136 318 106Q318 90 342 77T419 41Q489 13 528 -11T567 -69Q567 -100 528 -147T432 -229T321 -264Q263 -264 186 -245T56 -207V-48H99Q154 -117
210 -152T337 -188Q364 -188 385 -178T419 -153T431 -123Q431 -97 401 -78T307 -31Q246 -5 215 14T184 59Q184 83 216 108T294 152Q272 150 261 150Q207 150 162 173T90 236T63 322Q63 377 102 428T203 511T329 543Q402 543 456 503H615L613 456H499ZM359 239T381
260T404 323Q404 381 367 416T269 451Q183 451 183 370Q183 311 220 275T317 239Q359 239 381 260Z" />
<glyph unicode="h" glyph-name="h" horiz-adv-x="704" d="M659 -1H462V333Q462 386 445 407T386 429Q355 429 324 418T252 376V77L342 44L319 -1H33V35L122 106V708L33 770V806L209 873H252V430L384 535Q407 543 440 543Q510 543 551 502T592 389V78L682 44L659 -1Z" />
<glyph unicode="i" glyph-name="i" horiz-adv-x="393" d="M339 0H53V36L142 107V387L53 448V484L229 552H272V78L362 45L339 0ZM236 852T257 829T278 771Q278 747 263 726T225 692T180 679Q148 679 127 702T106 760Q106 784 121 805T159 839T203 852Q236 852 257 829Z" />
<glyph unicode="j" glyph-name="j" horiz-adv-x="380" d="M269 59T271 26T278 -20L81 -264L38 -230Q98 -159 118 -109T139 15V390L50 452V488L226 552H269V99Q269 59 271 26ZM233 1106T254 1083T275 1025Q275 1001 260 980T222 946T177 933Q145 933 124 956T103
1014Q103 1038 118 1059T156 1093T200 1106Q233 1106 254 1083Z" />
<glyph unicode="k" glyph-name="k" horiz-adv-x="698" d="M342 44L319 -1H33V35L122 106V708L33 770V806L209 873H252V77L342 44ZM662 -1H485L302 264L487 418L386 487L408 532H657V496L429 305L591 79L684 44L662 -1Z" />
<glyph unicode="l" glyph-name="l" horiz-adv-x="373" d="M319 -1H33V35L122 106V708L33 770V806L209 873H252V78L342 44L319 -1Z" />
<glyph unicode="m" glyph-name="m" horiz-adv-x="1042" d="M997 0H799V336Q799 388 783 409T725 430Q696 430 667 419T600 377V78L689 45L667 0H470V336Q470 388 454 409T396 430Q367 430 338 419T272 377V77L360 44L338 -1H53V35L142 106V378L53 431V467L231
552L265 426L395 535Q418 543 450 543Q508 543 546 513T596 428L724 535Q747 543 779 543Q848 543 888 502T929 389V78L1019 45L997 0Z" />
<glyph unicode="n" glyph-name="n" horiz-adv-x="724" d="M679 -1H482V333Q482 386 465 407T406 429Q375 429 344 418T272 376V77L362 44L339 -1H53V35L142 106V378L53 431V467L231 552L266 425L404 535Q427 543 460 543Q530 543 571 502T612 389V78L702 44L679 -1Z" />
<glyph unicode="o" glyph-name="o" horiz-adv-x="676" d="M442 543T495 509T579 415T609 284Q609 206 562 139T442 31T303 -10Q236 -10 183 24T99 118T68 249Q68 327 115 394T235 502T374 543Q442 543 495 509ZM208 452T208 297Q208 204 247 142T361 80Q414 80
441 120T468 237Q468 329 429 390T316 452Q208 452 208 297Z" />
<glyph unicode="p" glyph-name="p" horiz-adv-x="740" d="M316 -11T272 19V-168L414 -210L392 -255H53V-219L142 -148V378L53 431V467L231 552L266 424L405 535Q437 543 478 543Q533 543 578 509T648 415T673 284Q673 206 626 139T506 31T367 -10V-11Q316 -11
272 19ZM387 438T353 425T272 372V204Q272 151 311 115T425 79Q479 79 506 118T533 235Q533 321 505 379T424 438Q387 438 353 425Z" />
<glyph unicode="q" glyph-name="q" horiz-adv-x="710" d="M666 -253H326V-217L468 -144V72L375 -2Q343 -10 298 -10Q232 -10 180 24T98 118T68 248Q68 326 115 394T232 502T369 543Q447 543 504 486L555 551H598V-176L689 -208L666 -253ZM381 86T408 94T469 125V344Q463
392 424 422T316 453Q208 453 208 297Q208 207 245 147T351 86Q381 86 408 94Z" />
<glyph unicode="r" glyph-name="r" horiz-adv-x="529" d="M347 430T324 419T272 379V86L414 44L392 -1H53V35L142 106V378L53 431V467L231 552L264 431L365 535Q388 543 419 543Q456 543 483 524T525 470L453 380H410Q406 407 396 418T368 430Q347 430 324 419Z" />
<glyph unicode="s" glyph-name="s" horiz-adv-x="559" d="M368 138T338 160T246 216Q193 244 162 264T108 310T85 369Q85 405 116 446T192 515T276 543Q323 543 385 532T475 506V349H432Q401 408 360 441T275 475Q246 475 229 460T211 421Q211 392 242 369T338
311Q389 285 420 266T473 221T495 164Q495 127 463 87T384 18T298 -10Q248 -10 179 2T80 27V185H123Q157 125 204 92T299 58Q330 58 349 74T368 112Q368 138 338 160Z" />
<glyph unicode="t" glyph-name="t" horiz-adv-x="463" d="M348 -2Q323 -10 287 -10Q201 -10 162 33T122 168V457H14V500L209 724H252V503H432V457H252V160Q252 81 330 81Q351 81 370 89T419 120L449 78L348 -2Z" />
<glyph unicode="u" glyph-name="u" horiz-adv-x="703" d="M649 0H452V101L328 -2Q309 -10 272 -10Q202 -10 161 31T120 144V378L31 430V466L207 550H250V199Q250 145 267 124T326 102Q355 102 384 113T452 155V378L363 430V466L539 550H582V78L672 45L649 0Z" />
<glyph unicode="v" glyph-name="v" horiz-adv-x="626" d="M591 497L338 0H252L97 377L3 432V468L184 552L222 401L342 110L479 391L344 488L366 533H591V497Z" />
<glyph unicode="w" glyph-name="w" horiz-adv-x="910" d="M875 496L650 -1H564L463 246L338 -1H252L97 376L3 431V467L184 551L222 400L342 110L437 311L410 377L316 432V468L497 552L535 401L652 118L769 387L628 488L650 533L875 532V496Z" />
<glyph unicode="x" glyph-name="x" horiz-adv-x="627" d="M589 -1H431L277 207L170 107L262 43L240 -2H18V34L245 249L103 434L13 488L36 533H194L347 328L450 424L357 488L380 533H601V497L378 286L520 102L611 44L589 -1Z" />
<glyph unicode="y" glyph-name="y" horiz-adv-x="626" d="M591 497L338 0L124 -264L81 -230Q136 -169 165 -123T207 -31T220 77L97 377L3 432V468L184 552L222 401L342 110L479 391L344 488L366 533H591V497Z" />
<glyph unicode="z" glyph-name="z" horiz-adv-x="618" d="M459 130L502 213L537 202V-18L477 0H69V43L400 403H156L116 329L81 341V551L141 533H549V490L220 130H459Z" />
<glyph unicode="{" glyph-name="braceleft" horiz-adv-x="496" d="M350 -138T401 -166L375 -210Q308 -170 264 -103T220 43V171Q220 250 197 290T127 331H40V413H127Q173 413 196 454T220 573V701Q220 779 264 846T375 954L401 910Q350 882 350 764V621Q350 544
307 478T199 372Q264 333 307 267T350 123V-20Q350 -138 401 -166Z" />
<glyph unicode="|" glyph-name="bar" horiz-adv-x="373" d="M217 -200H156V986H217V-200Z" />
<glyph unicode="}" glyph-name="braceright" horiz-adv-x="496" d="M146 882T95 910L121 954Q188 914 232 847T276 701V573Q276 494 299 454T369 413H456V331H369Q323 331 300 290T276 171V43Q276 -35 232 -102T121 -210L95 -166Q146 -138 146 -20V123Q146 200
189 266T297 372Q232 411 189 477T146 621V764Q146 882 95 910Z" />
<glyph unicode="~" glyph-name="asciitilde" horiz-adv-x="623" d="M226 422T258 408T333 366Q377 340 402 328T455 316Q476 316 498 334T541 383L576 343Q550 284 509 242T429 199Q396 199 364 213T289 255Q247 280 221 292T168 305Q127 305 81 238L46 277Q72
337 113 379T193 422Q226 422 258 408Z" />
<glyph unicode="&#xa0;" glyph-name="uni00A0" horiz-adv-x="279" />
<glyph unicode="&#xa1;" glyph-name="exclamdown" horiz-adv-x="347" d="M224 543T245 520T266 462Q266 437 251 416T213 382T169 369Q136 369 115 392T94 450Q94 475 109 496T147 530T191 543Q224 543 245 520ZM273 -201L130 -254H87L141 284H210L273 -165V-201Z" />
<glyph unicode="&#xa2;" glyph-name="cent" horiz-adv-x="618" d="M385 -5T363 -7V-199H302V-9Q235 -9 182 25T99 119T69 250Q69 317 103 377T190 480T302 537V750H363V544Q406 543 458 532T533 507V346H490Q434 418 362 442V84Q420 84 528 161L558 119L407 -1Q385
-5 363 -7ZM208 227T231 173T301 96V452H298Q254 452 232 413T209 297H208Q208 227 231 173Z" />
<glyph unicode="&#xa3;" glyph-name="sterling" horiz-adv-x="721" d="M646 -18L586 0H43V43L159 165V348H9L32 394H159V512Q159 590 203 657T315 765T445 806Q488 806 543 795T624 769V609H581Q542 659 492 687T389 716Q340 716 315 677T289 560V394H481L458
348H289V322Q289 275 266 223T203 131H579L611 213L646 202V-18Z" />
<glyph unicode="&#xa4;" glyph-name="currency" horiz-adv-x="897" d="M766 355T740 304T669 209L831 47L796 12L630 178Q580 141 523 121T413 100Q315 100 242 151L103 12L69 47L205 183Q169 220 150 269T131 375Q131 431 157 483T229 577L68 738L102 773L267
608Q317 645 374 665T483 686Q583 686 655 634L794 773L829 738L692 602Q727 565 745 516T764 410H766Q766 355 740 304ZM519 189T559 212T622 275T645 363Q645 465 590 531T427 597Q380 597 341 574T278 511T255 423Q255 358 279 305T351 221T472 189Q519 189
559 212Z" />
<glyph unicode="&#xa5;" glyph-name="yen" horiz-adv-x="812" d="M501 348H741L717 302H471L470 300V206H741L717 160H470V79L576 45L554 0H241V36L335 110V160H64L88 206H335V280L321 302H64L88 348H292L76 696L-2 741L18 786H329V750L240 681L436 365L638 676L482
741L504 786H812V750L726 696L501 348Z" />
<glyph unicode="&#xa6;" glyph-name="brokenbar" horiz-adv-x="373" d="M156 523V986H217V523H156ZM156 -200V263H217V-200H156Z" />
<glyph unicode="&#xa7;" glyph-name="section" horiz-adv-x="688" d="M247 162T227 205T165 310Q131 363 112 398T79 475T65 562Q65 612 108 669T213 766T327 806Q391 806 475 791T599 759V580H556Q542 630 521 655T478 681Q463 681 455 660T446 606Q446 561 466
518T530 408Q578 335 603 281T628 163Q628 114 583 57T471 -41T349 -81Q283 -81 192 -66T61 -34V145H104Q122 99 148 72T199 44Q220 44 233 65T247 120Q247 162 227 205ZM332 639T357 671T443 735Q407 743 336 743Q301 743 262 716T196 649T169 574Q169 521 193
469T267 338Q312 265 334 219T356 128Q356 87 331 54T246 -10Q282 -18 352 -18Q385 -18 424 9T491 75T519 151Q519 202 496 253T424 381Q379 451 356 500T332 598Q332 639 357 671Z" />
<glyph unicode="&#xa8;" glyph-name="dieresis" horiz-adv-x="599" d="M205 849T224 827T243 772Q243 750 230 730T196 698T155 686Q127 686 108 708T89 762Q89 785 102 805T136 837T176 849Q205 849 224 827ZM480 849T499 827T518 772Q518 750 505 730T471 698T430
686Q402 686 383 708T364 762Q364 785 377 805T411 837T451 849Q480 849 499 827Z" />
<glyph unicode="&#xa9;" glyph-name="copyright" horiz-adv-x="1018" d="M663 806T755 755T897 614T948 410Q948 293 873 194T686 38T473 -20Q354 -20 263 31T121 171T70 375Q70 492 145 591T332 748T544 806Q663 806 755 755ZM403 717T336 679T230 574T191 423Q191
326 228 246T341 118T531 69Q614 69 681 107T788 212T827 363Q827 461 790 541T676 669T486 717Q403 717 336 679ZM565 622T608 611T670 585V430H627Q598 478 559 506T478 534Q453 534 440 507T426 429Q426 359 455 312T539 265Q586 265 665 314L695 272L584 184Q542
175 481 175Q427 175 383 202T315 277T290 381Q290 445 327 500T421 589T532 622Q565 622 608 611Z" />
<glyph unicode="&#xaa;" glyph-name="ordfeminine" horiz-adv-x="548" d="M506 415H338V480L242 414Q225 408 199 408Q125 408 92 440T58 519Q58 546 79 573T142 624H338V664Q338 752 232 752Q178 752 97 699L72 730L193 815Q233 822 278 822Q359 822 403 788T448
688V475L525 449L506 415ZM280 479T338 519V589H190Q180 578 176 567T171 542Q171 516 187 498T230 479Q280 479 338 519Z" />
<glyph unicode="&#xab;" glyph-name="guillemotleft" horiz-adv-x="683" d="M348 55L308 25L48 268L308 510L348 481L222 289L348 55ZM569 117L530 88L336 268L530 448L569 419L507 290L569 117Z" />
<glyph unicode="&#xac;" glyph-name="logicalnot" horiz-adv-x="578" d="M491 85H445V286H40V332H491V85Z" />
<glyph unicode="&#xad;" glyph-name="softhyphen" horiz-adv-x="513" d="M76 301L116 352H437V317L397 266H76V301Z" />
<glyph unicode="&#xae;" glyph-name="registered" horiz-adv-x="1013" d="M661 806T753 755T895 614T945 410Q945 293 870 194T683 38T471 -20Q352 -20 261 30T119 171T68 375Q68 492 143 591T329 748T542 806Q661 806 753 755ZM612 69T679 107T785 212T824 363Q824
461 787 541T674 669T484 717Q401 717 334 679T228 574T189 423Q189 326 226 246T339 118T529 69Q612 69 679 107ZM753 228L733 185H586L525 319Q515 341 503 352T468 367V185H288V219L350 274V538L278 564L298 608H381Q444 608 504 614Q514 615 533 616T567 617Q629
617 668 588T707 513Q707 470 661 431T550 376L647 348L688 260L753 228ZM577 510T555 531T490 552Q478 552 468 546V419Q489 413 514 413Q544 413 560 430T577 477V476Q577 510 555 531Z" />
<glyph unicode="&#xaf;" glyph-name="overscore" horiz-adv-x="600" d="M90 797H518V747H90V797Z" />
<glyph unicode="&#xb0;" glyph-name="degree" horiz-adv-x="431" d="M299 883T336 843T374 746Q374 696 344 656T268 593T175 570Q112 570 75 610T38 708Q38 757 67 797T143 860T236 883Q299 883 336 843ZM166 817T145 797T123 741Q123 700 148 668T213 636Q245
636 267 657T289 714Q289 753 264 785T197 817Q166 817 145 797Z" />
<glyph unicode="&#xb1;" glyph-name="plusminus" horiz-adv-x="531" d="M288 286V84H242V286H40V332H243V535H289V332H491V286H288ZM40 -31H491V-77H40V-31Z" />
<glyph unicode="&#xb2;" glyph-name="twosuperior" horiz-adv-x="501" d="M449 402L394 415H43V451Q143 520 195 562T269 630T290 679Q290 708 263 727T194 747Q142 747 67 697L43 737L157 816Q182 823 216 823Q302 823 354 795T406 719Q406 689 358 636T207 507H388L415
567L449 556V402Z" />
<glyph unicode="&#xb3;" glyph-name="threesuperior" horiz-adv-x="466" d="M345 560T373 533T401 473Q401 398 317 340T46 229L33 277Q137 308 190 331T266 380T288 440Q288 466 266 485T181 535V566Q224 608 239 631T254 678Q254 709 231 728T171 748Q125 748
49 698L25 736L140 816Q156 822 175 822Q227 822 271 808T341 770T367 718Q365 692 344 664T274 596V595Q345 560 373 533Z" />
<glyph unicode="&#xb4;" glyph-name="acute" horiz-adv-x="380" d="M366 844L139 675L95 696L202 892L346 873L366 844Z" />
<glyph unicode="&#xb5;" glyph-name="uni00B5" horiz-adv-x="697" d="M583 154T599 121T641 59L496 -10H453V101L330 -2Q309 -10 274 -10Q259 -10 252 -9V-63Q251 -89 267 -122T310 -185L165 -254H122V359Q123 385 107 418T64 481L209 550H252V199Q252 145 268
124T327 102Q356 102 385 113T453 155V359Q453 386 437 419T395 481L540 550H583V181Q583 154 599 121Z" />
<glyph unicode="&#xb6;" glyph-name="paragraph" horiz-adv-x="835" d="M359 795T399 790Q466 785 501 785H530V-255H348V-219L468 -123V317Q402 316 334 312Q276 308 248 308Q188 308 142 338T71 419T45 535Q45 604 88 664T195 760T319 796V795Q359 795 399 790ZM766
-255H621V785H778V749L683 674V-175L789 -210L766 -255Z" />
<glyph unicode="&#xb7;" glyph-name="middot" horiz-adv-x="337" d="M213 354T234 331T255 274Q255 249 240 228T202 194T157 181Q125 181 104 204T83 262Q83 286 98 307T136 341T180 354Q213 354 234 331Z" />
<glyph unicode="&#xb8;" glyph-name="cedilla" horiz-adv-x="600" d="M380 -85T398 -110T416 -163Q416 -209 368 -234T219 -264V-228Q307 -200 307 -145Q307 -123 293 -106T243 -67L264 -50Q384 51 407 72L443 46Q425 30 355 -28L331 -48Q380 -85 398 -110Z" />
<glyph unicode="&#xb9;" glyph-name="onesuperior" horiz-adv-x="427" d="M334 415H84V451L162 504V750L75 775L93 816H343V781L266 728V481L352 457L334 415Z" />
<glyph unicode="&#xba;" glyph-name="ordmasculine" horiz-adv-x="595" d="M386 822T431 797T502 727T528 628Q528 570 488 519T386 438T268 408Q211 408 166 433T94 503T68 602Q68 660 108 711T210 792T328 822Q386 822 431 797ZM187 754T187 638Q187 568 220
522T317 475Q362 475 385 505T408 593Q408 662 375 708T279 754Q187 754 187 638Z" />
<glyph unicode="&#xbb;" glyph-name="guillemotright" horiz-adv-x="683" d="M375 25L335 54L461 246L335 481L375 510L636 267L375 25ZM153 87L113 116L175 245L113 418L153 447L347 267L153 87Z" />
<glyph unicode="&#xbc;" glyph-name="onequarter" horiz-adv-x="1047" d="M334 415H84V451L162 504V750L75 775L93 816H343V781L266 728V481L352 457L334 415ZM252 -193L210 -172L831 997L874 977L252 -193ZM905 -48V-187L801 -229V-48H505V-13L801 301L905 342V15H1027L999
-48H905ZM801 217L615 15H801V217Z" />
<glyph unicode="&#xbd;" glyph-name="onehalf" horiz-adv-x="1137" d="M334 415H84V451L162 504V750L75 775L93 816H343V781L266 728V481L352 457L334 415ZM252 -193L210 -172L831 997L874 977L252 -193ZM1085 -92L1030 -79H679V-43Q779 26 831 68T905 136T926
185Q926 214 899 233T830 253Q778 253 703 203L679 243L793 322Q817 329 852 329Q938 329 990 301T1042 225Q1042 195 994 142T843 13H1024L1051 73L1085 62V-92Z" />
<glyph unicode="&#xbe;" glyph-name="threequarters" horiz-adv-x="1086" d="M345 560T373 533T401 473Q401 398 317 340T46 229L33 277Q137 308 190 331T266 380T288 440Q288 466 266 485T181 535V566Q224 608 239 631T254 678Q254 709 231 728T171 748Q125 748
49 698L25 736L140 816Q156 822 175 822Q227 822 271 808T341 770T367 718Q365 692 344 664T274 596V595Q345 560 373 533ZM291 -193L249 -172L870 997L913 977L291 -193ZM944 -48V-187L840 -229V-48H544V-13L840 301L944 342V15H1066L1038 -48H944ZM840 217L654
15H840V217Z" />
<glyph unicode="&#xbf;" glyph-name="questiondown" horiz-adv-x="411" d="M260 543T281 520T302 462Q302 437 287 416T248 382T204 369Q172 369 151 392T129 450Q129 475 144 496T183 530T227 543Q260 543 281 520ZM302 224T302 170Q302 136 275 107T198 41Q160
12 143 -5T125 -40Q125 -64 147 -95T203 -148T272 -170Q314 -170 383 -133L413 -175L309 -256Q268 -264 212 -264Q173 -264 122 -239T34 -174T-3 -97Q-3 -62 24 -33T105 35Q141 62 158 79T176 111Q176 147 131 183V219L241 276Q302 224 302 170Z" />
<glyph unicode="&#xc0;" glyph-name="Agrave" horiz-adv-x="879" d="M858 0H540V36L638 107L564 285H232L156 108L328 45L305 0H-3V36L94 111L372 754L490 805L780 103L880 45L858 0ZM402 678L255 337H543L402 678ZM462 929L234 1098L254 1127L398 1146L505 950L462 929Z" />
<glyph unicode="&#xc1;" glyph-name="Aacute" horiz-adv-x="879" d="M858 0H540V36L638 107L564 285H232L156 108L328 45L305 0H-3V36L94 111L372 754L490 805L780 103L880 45L858 0ZM402 678L255 337H543L402 678ZM645 1098L418 929L374 950L481 1146L625 1127L645
1098Z" />
<glyph unicode="&#xc2;" glyph-name="Acircumflex" horiz-adv-x="879" d="M858 0H540V36L638 107L564 285H232L156 108L328 45L305 0H-3V36L94 111L372 754L490 805L780 103L880 45L858 0ZM402 678L255 337H543L402 678ZM649 934L514 915L404 1046L242 923L210
965L435 1138L669 963L649 934Z" />
<glyph unicode="&#xc3;" glyph-name="Atilde" horiz-adv-x="879" d="M858 0H540V36L638 107L564 285H232L156 108L328 45L305 0H-3V36L94 111L372 754L490 805L780 103L880 45L858 0ZM402 678L255 337H543L402 678ZM468 1064T529 1064Q560 1064 588 1084L625 1111L657
1069L484 938Q408 1015 348 1015Q315 1015 287 994L252 968L220 1010L392 1141Q468 1064 529 1064Z" />
<glyph unicode="&#xc4;" glyph-name="Adieresis" horiz-adv-x="879" d="M241 940T222 962T202 1016Q202 1039 215 1059T250 1092T290 1104Q320 1104 338 1082T357 1027Q357 1004 344 984T310 952T270 940Q241 940 222 962ZM559 940T540 962T520 1016Q520 1039
533 1059T568 1092T608 1104Q638 1104 656 1082T675 1027Q675 1004 662 984T628 952T588 940Q559 940 540 962ZM858 0H540V36L638 107L564 285H232L156 108L328 45L305 0H-3V36L94 111L372 754L490 805L780 103L880 45L858 0ZM402 678L255 337H543L402 678Z" />
<glyph unicode="&#xc5;" glyph-name="Aring" horiz-adv-x="879" d="M858 0H540V36L638 107L564 285H232L156 108L328 45L305 0H-3V36L94 111L372 754L490 805L780 103L880 45L858 0ZM402 678L255 337H543L402 678ZM523 1138T556 1110T589 1039Q589 1004 561 973T489
924T403 905Q354 905 321 934T288 1004Q288 1039 316 1070T388 1119T474 1138Q523 1138 556 1110ZM392 1091T379 1081T366 1051Q366 1008 391 981T461 953Q485 953 498 963T512 993Q512 1035 487 1063T416 1091Q392 1091 379 1081Z" />
<glyph unicode="&#xc6;" glyph-name="AE" horiz-adv-x="1104" d="M953 -1H378V35L472 109V375H298L151 107L297 44L275 -1H-2V35L79 98L407 698L279 741L301 786H942L1000 804V569L965 557L845 735H608V427H725L799 552H835V251L790 228L726 376H608V51H841L975
250L1010 237L1011 -19L953 -1ZM472 692L326 426H472V692Z" />
<glyph unicode="&#xc7;" glyph-name="Ccedilla" horiz-adv-x="823" d="M540 -11T500 -16L461 -48Q510 -85 528 -110T546 -163Q546 -209 498 -234T349 -264V-228Q437 -200 437 -145Q437 -123 423 -106T373 -67L430 -20Q324 -20 242 31T114 171T68 375Q68 492 137
591T308 748T503 806Q557 806 628 791T732 759V561H682Q593 716 445 716Q381 716 329 678T246 573T215 423Q215 327 244 248T335 122T486 74Q573 74 733 196L765 145L581 2V3Q540 -11 500 -16Z" />
<glyph unicode="&#xc8;" glyph-name="Egrave" horiz-adv-x="815" d="M664 -1H58V35L152 109V706L46 741L69 786H654L712 804V569L677 557L557 735H288V427H437L510 552H546V251L501 228L438 376H288V51H552L687 250L722 237V-19L664 -1ZM433 929L205 1098L225
1127L369 1146L476 950L433 929Z" />
<glyph unicode="&#xc9;" glyph-name="Eacute" horiz-adv-x="815" d="M664 -1H58V35L152 109V706L46 741L69 786H654L712 804V569L677 557L557 735H288V427H437L510 552H546V251L501 228L438 376H288V51H552L687 250L722 237V-19L664 -1ZM616 1098L389 929L345
950L452 1146L596 1127L616 1098Z" />
<glyph unicode="&#xca;" glyph-name="Ecircumflex" horiz-adv-x="815" d="M664 -1H58V35L152 109V706L46 741L69 786H654L712 804V569L677 557L557 735H288V427H437L510 552H546V251L501 228L438 376H288V51H552L687 250L722 237V-19L664 -1ZM620 934L485 915L375
1046L213 923L181 965L406 1138L640 963L620 934Z" />
<glyph unicode="&#xcb;" glyph-name="Edieresis" horiz-adv-x="815" d="M211 940T192 962T172 1016Q172 1039 185 1059T220 1092T260 1104Q290 1104 308 1082T327 1027Q327 1004 314 984T280 952T240 940Q211 940 192 962ZM529 940T510 962T490 1016Q490 1039
503 1059T538 1092T578 1104Q608 1104 626 1082T645 1027Q645 1004 632 984T598 952T558 940Q529 940 510 962ZM664 -1H58V35L152 109V706L46 741L69 786H654L712 804V569L677 557L557 735H288V427H437L510 552H546V251L501 228L438 376H288V51H552L687 250L722
237V-19L664 -1Z" />
<glyph unicode="&#xcc;" glyph-name="Igrave" horiz-adv-x="440" d="M372 1H58V37L152 111V707L46 741L69 786H383V750L288 675V80L394 46L372 1ZM243 929L15 1098L35 1127L179 1146L286 950L243 929Z" />
<glyph unicode="&#xcd;" glyph-name="Iacute" horiz-adv-x="440" d="M372 1H58V37L152 111V707L46 741L69 786H383V750L288 675V80L394 46L372 1ZM426 1098L199 929L155 950L262 1146L406 1127L426 1098Z" />
<glyph unicode="&#xce;" glyph-name="Icircumflex" horiz-adv-x="440" d="M372 1H58V37L152 111V707L46 741L69 786H383V750L288 675V80L394 46L372 1ZM430 934L295 915L185 1046L23 923L-9 965L216 1138L450 963L430 934Z" />
<glyph unicode="&#xcf;" glyph-name="Idieresis" horiz-adv-x="440" d="M372 1H58V37L152 111V707L46 741L69 786H383V750L288 675V80L394 46L372 1ZM121 1103T140 1081T159 1026Q159 1004 146 984T112 952T71 940Q43 940 24 962T5 1016Q5 1039 18 1059T52 1091T92
1103Q121 1103 140 1081ZM396 1103T415 1081T434 1026Q434 1004 421 984T387 952T346 940Q318 940 299 962T280 1016Q280 1039 293 1059T327 1091T367 1103Q396 1103 415 1081Z" />
<glyph unicode="&#xd0;" glyph-name="Eth" horiz-adv-x="895" d="M578 795T658 746T783 608T828 409Q828 295 761 199T593 46T402 -11Q354 -11 309 -6Q231 -1 191 -1H58V35L152 109V707L46 741L69 786H190Q284 786 374 792Q442 796 473 796V795Q578 795 658 746ZM500
68T557 106T647 211T680 363Q680 464 649 546T554 678T395 727Q336 727 288 693V91Q349 67 430 67V68Q500 68 557 106Z" />
<glyph unicode="&#xd1;" glyph-name="Ntilde" horiz-adv-x="879" d="M748 675V0H687L213 587V97L325 45L303 0H58V36L152 110V684L46 741L69 786H225L687 213V689L575 741L598 786H843V750L748 675ZM469 1064T530 1064Q561 1064 589 1084L626 1111L658 1069L485
938Q409 1015 349 1015Q316 1015 288 994L253 968L221 1010L393 1141Q469 1064 530 1064Z" />
<glyph unicode="&#xd2;" glyph-name="Ograve" horiz-adv-x="935" d="M611 806T694 755T822 614T868 410Q868 293 799 194T628 38T432 -20Q325 -20 242 30T114 171T68 375Q68 492 137 591T308 748T503 806Q611 806 694 755ZM381 716T329 678T246 573T215 423Q215
326 245 246T337 118T490 70Q554 70 606 108T689 213T720 363Q720 461 690 541T598 668T445 716Q381 716 329 678ZM491 929L263 1098L283 1127L427 1146L534 950L491 929Z" />
<glyph unicode="&#xd3;" glyph-name="Oacute" horiz-adv-x="935" d="M611 806T694 755T822 614T868 410Q868 293 799 194T628 38T432 -20Q325 -20 242 30T114 171T68 375Q68 492 137 591T308 748T503 806Q611 806 694 755ZM381 716T329 678T246 573T215 423Q215
326 245 246T337 118T490 70Q554 70 606 108T689 213T720 363Q720 461 690 541T598 668T445 716Q381 716 329 678ZM674 1098L447 929L403 950L510 1146L654 1127L674 1098Z" />
<glyph unicode="&#xd4;" glyph-name="Ocircumflex" horiz-adv-x="935" d="M611 806T694 755T822 614T868 410Q868 293 799 194T628 38T432 -20Q325 -20 242 30T114 171T68 375Q68 492 137 591T308 748T503 806Q611 806 694 755ZM381 716T329 678T246 573T215 423Q215
326 245 246T337 118T490 70Q554 70 606 108T689 213T720 363Q720 461 690 541T598 668T445 716Q381 716 329 678ZM678 934L543 915L433 1046L271 923L239 965L464 1138L698 963L678 934Z" />
<glyph unicode="&#xd5;" glyph-name="Otilde" horiz-adv-x="935" d="M611 806T694 755T822 614T868 410Q868 293 799 194T628 38T432 -20Q325 -20 242 30T114 171T68 375Q68 492 137 591T308 748T503 806Q611 806 694 755ZM381 716T329 678T246 573T215 423Q215
326 245 246T337 118T490 70Q554 70 606 108T689 213T720 363Q720 461 690 541T598 668T445 716Q381 716 329 678ZM497 1064T558 1064Q589 1064 617 1084L654 1111L686 1069L513 938Q437 1015 377 1015Q344 1015 316 994L281 968L249 1010L421 1141Q497 1064 558
1064Z" />
<glyph unicode="&#xd6;" glyph-name="Odieresis" horiz-adv-x="935" d="M349 1104T367 1082T386 1027Q386 1004 373 984T339 952T299 940Q270 940 251 962T231 1016Q231 1039 244 1059T279 1092T319 1104Q349 1104 367 1082ZM667 1104T685 1082T704 1027Q704 1004
691 984T657 952T617 940Q588 940 569 962T549 1016Q549 1039 562 1059T597 1092T637 1104Q667 1104 685 1082ZM611 806T694 755T822 614T868 410Q868 293 799 194T628 38T432 -20Q325 -20 242 30T114 171T68 375Q68 492 137 591T308 748T503 806Q611 806 694 755ZM381
716T329 678T246 573T215 423Q215 326 245 246T337 118T490 70Q554 70 606 108T689 213T720 363Q720 461 690 541T598 668T445 716Q381 716 329 678Z" />
<glyph unicode="&#xd7;" glyph-name="multiply" horiz-adv-x="513" d="M473 125L440 92L256 276L72 92L39 125L223 309L39 493L72 526L256 342L440 526L473 493L289 309L473 125Z" />
<glyph unicode="&#xd8;" glyph-name="Oslash" horiz-adv-x="935" d="M779 699T822 611T866 410Q866 293 797 194T626 38T430 -20Q347 -20 275 13L181 -150L139 -126L233 36Q154 87 111 175T67 374Q67 491 136 590T307 747T502 805Q587 805 659 772L754 936L796
912L702 749L700 750Q779 699 822 611ZM213 341T234 271T298 152L596 668Q532 716 443 716Q379 716 327 678T244 573T213 423V422Q213 341 234 271ZM552 69T604 107T687 212T718 362Q718 444 697 514T633 633L335 117Q399 69 488 69Q552 69 604 107Z" />
<glyph unicode="&#xd9;" glyph-name="Ugrave" horiz-adv-x="898" d="M776 676V310Q776 205 725 130T599 18T453 -20Q362 -20 291 19T179 128T139 285V707L34 741L56 786H370V750L275 676V331Q275 208 336 139T521 70Q567 70 611 99T685 186T714 321V691L608 741L630
786H871V750L776 676ZM485 929L257 1098L277 1127L421 1146L528 950L485 929Z" />
<glyph unicode="&#xda;" glyph-name="Uacute" horiz-adv-x="898" d="M776 676V310Q776 205 725 130T599 18T453 -20Q362 -20 291 19T179 128T139 285V707L34 741L56 786H370V750L275 676V331Q275 208 336 139T521 70Q567 70 611 99T685 186T714 321V691L608 741L630
786H871V750L776 676ZM668 1098L441 929L397 950L504 1146L648 1127L668 1098Z" />
<glyph unicode="&#xdb;" glyph-name="Ucircumflex" horiz-adv-x="898" d="M776 676V310Q776 205 725 130T599 18T453 -20Q362 -20 291 19T179 128T139 285V707L34 741L56 786H370V750L275 676V331Q275 208 336 139T521 70Q567 70 611 99T685 186T714 321V691L608
741L630 786H871V750L776 676ZM672 934L537 915L427 1046L265 923L233 965L458 1138L692 963L672 934Z" />
<glyph unicode="&#xdc;" glyph-name="Udieresis" horiz-adv-x="898" d="M264 940T245 962T225 1016Q225 1039 238 1059T273 1092T313 1104Q343 1104 361 1082T380 1027Q380 1004 367 984T333 952T293 940Q264 940 245 962ZM582 940T563 962T543 1016Q543 1039
556 1059T591 1092T631 1104Q661 1104 679 1082T698 1027Q698 1004 685 984T651 952T611 940Q582 940 563 962ZM776 676V310Q776 205 725 130T599 18T453 -20Q362 -20 291 19T179 128T139 285V707L34 741L56 786H370V750L275 676V331Q275 208 336 139T521 70Q567
70 611 99T685 186T714 321V691L608 741L630 786H871V750L776 676Z" />
<glyph unicode="&#xdd;" glyph-name="Yacute" horiz-adv-x="812" d="M470 79L576 45L554 0H241V36L335 110V280L76 696L-2 741L18 786H329V750L240 681L436 365L638 676L482 741L504 786H812V750L727 696L470 300V79ZM613 1098L386 929L342 950L449 1146L593 1127L613
1098Z" />
<glyph unicode="&#xde;" glyph-name="Thorn" horiz-adv-x="779" d="M555 608T610 582T695 511T725 412Q725 351 674 296T543 210T387 182L341 215L364 260H440Q504 260 541 288T578 367Q578 442 534 490T405 539Q339 539 287 502V80L393 45L371 0H57V36L151 110V706L45
740L68 785H382V749L287 674V599Q329 600 381 604Q451 608 484 608Q555 608 610 582Z" />
<glyph unicode="&#xdf;" glyph-name="germandbls" horiz-adv-x="787" d="M488 439T514 412T595 348Q637 318 662 297T705 247T723 184Q723 144 694 98T621 21T543 -10Q500 -10 442 -2T360 17V175H403Q430 120 469 89T548 58Q571 58 585 79T600 129Q600 159 575
184T498 246Q455 277 429 299T385 350T366 415Q366 452 387 483T446 552Q478 585 494 607T510 654Q510 679 488 712T432 770T364 794Q273 794 273 638V0H54V36L143 106V457H25V503H143V590Q143 667 186 735T296 843T424 883Q461 883 512 858T599 793T636 715Q636
676 616 648T556 580Q522 548 505 525T488 474Q488 439 514 412Z" />
<glyph unicode="&#xe0;" glyph-name="agrave" horiz-adv-x="630" d="M585 0H387V87L274 -2Q254 -10 224 -10Q136 -10 97 33T58 139Q58 175 83 210T156 278H387V332Q387 449 262 449Q199 449 104 378L74 420L217 533Q263 543 317 543Q412 543 464 497T517 364V80L607
45L585 0ZM319 85T387 138V232H213Q201 217 196 202T191 169Q191 134 210 110T260 85Q319 85 387 138ZM325 675L97 844L117 873L261 892L368 696L325 675Z" />
<glyph unicode="&#xe1;" glyph-name="aacute" horiz-adv-x="630" d="M585 0H387V87L274 -2Q254 -10 224 -10Q136 -10 97 33T58 139Q58 175 83 210T156 278H387V332Q387 449 262 449Q199 449 104 378L74 420L217 533Q263 543 317 543Q412 543 464 497T517 364V80L607
45L585 0ZM319 85T387 138V232H213Q201 217 196 202T191 169Q191 134 210 110T260 85Q319 85 387 138ZM508 844L281 675L237 696L344 892L488 873L508 844Z" />
<glyph unicode="&#xe2;" glyph-name="acircumflex" horiz-adv-x="630" d="M585 0H387V87L274 -2Q254 -10 224 -10Q136 -10 97 33T58 139Q58 175 83 210T156 278H387V332Q387 449 262 449Q199 449 104 378L74 420L217 533Q263 543 317 543Q412 543 464 497T517
364V80L607 45L585 0ZM319 85T387 138V232H213Q201 217 196 202T191 169Q191 134 210 110T260 85Q319 85 387 138ZM512 680L377 661L267 792L105 669L73 711L298 884L532 709L512 680Z" />
<glyph unicode="&#xe3;" glyph-name="atilde" horiz-adv-x="630" d="M585 0H387V87L274 -2Q254 -10 224 -10Q136 -10 97 33T58 139Q58 175 83 210T156 278H387V332Q387 449 262 449Q199 449 104 378L74 420L217 533Q263 543 317 543Q412 543 464 497T517 364V80L607
45L585 0ZM319 85T387 138V232H213Q201 217 196 202T191 169Q191 134 210 110T260 85Q319 85 387 138ZM331 810T392 810Q423 810 451 830L488 857L520 815L347 684Q271 761 211 761Q178 761 150 740L115 714L83 756L255 887Q331 810 392 810Z" />
<glyph unicode="&#xe4;" glyph-name="adieresis" horiz-adv-x="630" d="M125 686T106 708T87 762Q87 785 100 805T134 837T174 849Q203 849 222 827T241 773Q241 750 228 730T194 698T154 686Q125 686 106 708ZM400 686T381 708T362 762Q362 785 375 805T409 837T449
849Q478 849 497 827T516 773Q516 750 503 730T469 698T429 686Q400 686 381 708ZM585 0H387V87L274 -2Q254 -10 224 -10Q136 -10 97 33T58 139Q58 175 83 210T156 278H387V332Q387 449 262 449Q199 449 104 378L74 420L217 533Q263 543 317 543Q412 543 464 497T517
364V80L607 45L585 0ZM319 85T387 138V232H213Q201 217 196 202T191 169Q191 134 210 110T260 85Q319 85 387 138Z" />
<glyph unicode="&#xe5;" glyph-name="aring" horiz-adv-x="630" d="M585 0H387V87L274 -2Q254 -10 224 -10Q136 -10 97 33T58 139Q58 175 83 210T156 278H387V332Q387 449 262 449Q199 449 104 378L74 420L217 533Q263 543 317 543Q412 543 464 497T517 364V80L607
45L585 0ZM319 85T387 138V232H213Q201 217 196 202T191 169Q191 134 210 110T260 85Q319 85 387 138ZM386 884T419 856T452 785Q452 750 424 719T352 670T266 651Q217 651 184 680T151 750Q151 785 179 816T251 865T337 884Q386 884 419 856ZM255 837T242 827T229
797Q229 754 254 727T324 699Q348 699 361 709T375 739Q375 781 350 809T279 837Q255 837 242 827Z" />
<glyph unicode="&#xe6;" glyph-name="ae" horiz-adv-x="922" d="M713 83T823 165L853 123L698 -1Q655 -10 594 -10Q540 -10 495 17T419 91L307 -2Q274 -10 224 -10Q136 -10 97 33T58 139Q58 212 156 277H376V332Q376 449 261 449Q197 449 104 378L74 420L217 533Q262
543 316 543Q375 543 417 523T482 464Q524 501 574 522T670 543Q758 543 806 467T855 264H515Q521 185 556 134T652 83Q713 83 823 165ZM519 452T514 310H711Q704 361 696 389T669 434T612 452Q519 452 514 310ZM328 84T395 137Q378 182 375 232H213Q201 217 196
202T191 169Q191 133 212 108T270 83L269 84Q328 84 395 137Z" />
<glyph unicode="&#xe7;" glyph-name="ccedilla" horiz-adv-x="618" d="M400 -85T418 -110T436 -163Q436 -209 388 -234T239 -264V-228Q327 -200 327 -145Q327 -123 313 -106T263 -67L332 -9H304Q237 -9 184 25T100 119T69 250Q69 328 113 395T225 503T355 544Q397
544 453 533T534 507V346H491Q452 396 402 424T298 453Q254 453 232 414T209 298Q209 206 248 145T362 84Q420 84 529 162L559 120L413 5L349 -48H351Q400 -85 418 -110Z" />
<glyph unicode="&#xe8;" glyph-name="egrave" horiz-adv-x="647" d="M407 -1Q364 -10 303 -10Q236 -10 183 24T99 118T68 249Q68 327 115 394T235 502T374 543Q471 543 524 467T577 264H209Q216 184 255 134T361 83Q427 83 549 177L579 136L407 -1ZM214 452T209
310H434Q425 361 416 389T383 434T316 452H317Q214 452 209 310ZM348 675L120 844L140 873L284 892L391 696L348 675Z" />
<glyph unicode="&#xe9;" glyph-name="eacute" horiz-adv-x="647" d="M407 -1Q364 -10 303 -10Q236 -10 183 24T99 118T68 249Q68 327 115 394T235 502T374 543Q471 543 524 467T577 264H209Q216 184 255 134T361 83Q427 83 549 177L579 136L407 -1ZM214 452T209
310H434Q425 361 416 389T383 434T316 452H317Q214 452 209 310ZM531 844L304 675L260 696L367 892L511 873L531 844Z" />
<glyph unicode="&#xea;" glyph-name="ecircumflex" horiz-adv-x="647" d="M407 -1Q364 -10 303 -10Q236 -10 183 24T99 118T68 249Q68 327 115 394T235 502T374 543Q471 543 524 467T577 264H209Q216 184 255 134T361 83Q427 83 549 177L579 136L407 -1ZM214 452T209
310H434Q425 361 416 389T383 434T316 452H317Q214 452 209 310ZM535 680L400 661L290 792L128 669L96 711L321 884L555 709L535 680Z" />
<glyph unicode="&#xeb;" glyph-name="edieresis" horiz-adv-x="647" d="M148 686T129 708T110 762Q110 785 123 805T157 837T197 849Q226 849 245 827T264 773Q264 750 251 730T217 698T177 686Q148 686 129 708ZM423 686T404 708T385 762Q385 785 398 805T432
837T472 849Q501 849 520 827T539 773Q539 750 526 730T492 698T452 686Q423 686 404 708ZM407 -1Q364 -10 303 -10Q236 -10 183 24T99 118T68 249Q68 327 115 394T235 502T374 543Q471 543 524 467T577 264H209Q216 184 255 134T361 83Q427 83 549 177L579 136L407
-1ZM214 452T209 310H434Q425 361 416 389T383 434T316 452H317Q214 452 209 310Z" />
<glyph unicode="&#xec;" glyph-name="igrave" horiz-adv-x="393" d="M339 0H53V36L142 107V387L53 448V484L229 552H272V78L362 45L339 0ZM471 675L243 844L263 873L407 892L514 696L471 675Z" />
<glyph unicode="&#xed;" glyph-name="iacute" horiz-adv-x="393" d="M339 0H53V36L142 107V387L53 448V484L229 552H272V78L362 45L339 0ZM399 844L172 675L128 696L235 892L379 873L399 844Z" />
<glyph unicode="&#xee;" glyph-name="icircumflex" horiz-adv-x="393" d="M339 0H53V36L142 107V387L53 448V484L229 552H272V78L362 45L339 0ZM658 680L523 661L413 792L251 669L219 711L444 884L678 709L658 680Z" />
<glyph unicode="&#xef;" glyph-name="idieresis" horiz-adv-x="393" d="M132 750T119 730T85 698T45 686Q16 686 -3 708T-22 762Q-22 785 -9 805T25 837T65 849Q94 849 113 827T132 773Q132 750 119 730ZM369 849T388 827T407 773Q407 750 394 730T360 698T320
686Q291 686 272 708T253 762Q253 785 266 805T300 837T340 849Q369 849 388 827ZM362 45L339 0H53V36L142 107V387L53 448V484L229 552H272V78L362 45Z" />
<glyph unicode="&#xf0;" glyph-name="eth" horiz-adv-x="671" d="M499 664T553 556T607 343Q607 251 565 170T451 39T300 -10Q234 -10 180 24T95 117T64 249Q64 320 109 388T225 500T371 543Q379 543 401 541Q358 617 289 678L110 572L90 608L255 706Q164 775
56 804V840L182 883Q283 851 374 777L552 883L574 847L407 748H408Q499 664 553 556ZM417 80T444 129T472 286Q472 370 444 452H314Q206 452 206 297Q206 199 248 140T359 80Q417 80 444 129Z" />
<glyph unicode="&#xf1;" glyph-name="ntilde" horiz-adv-x="724" d="M679 -1H482V333Q482 386 465 407T406 429Q375 429 344 418T272 376V77L362 44L339 -1H53V35L142 106V378L53 431V467L231 552L266 425L404 535Q427 543 460 543Q530 543 571 502T612 389V78L702
44L679 -1ZM382 810T443 810Q474 810 502 830L539 857L571 815L398 684Q322 761 262 761Q229 761 201 740L166 714L134 756L306 887Q382 810 443 810Z" />
<glyph unicode="&#xf2;" glyph-name="ograve" horiz-adv-x="676" d="M442 543T495 509T579 415T609 284Q609 206 562 139T442 31T303 -10Q236 -10 183 24T99 118T68 249Q68 327 115 394T235 502T374 543Q442 543 495 509ZM208 452T208 297Q208 204 247 142T361
80Q414 80 441 120T468 237Q468 329 429 390T316 452Q208 452 208 297ZM362 675L134 844L154 873L298 892L405 696L362 675Z" />
<glyph unicode="&#xf3;" glyph-name="oacute" horiz-adv-x="676" d="M442 543T495 509T579 415T609 284Q609 206 562 139T442 31T303 -10Q236 -10 183 24T99 118T68 249Q68 327 115 394T235 502T374 543Q442 543 495 509ZM208 452T208 297Q208 204 247 142T361
80Q414 80 441 120T468 237Q468 329 429 390T316 452Q208 452 208 297ZM545 844L318 675L274 696L381 892L525 873L545 844Z" />
<glyph unicode="&#xf4;" glyph-name="ocircumflex" horiz-adv-x="676" d="M442 543T495 509T579 415T609 284Q609 206 562 139T442 31T303 -10Q236 -10 183 24T99 118T68 249Q68 327 115 394T235 502T374 543Q442 543 495 509ZM208 452T208 297Q208 204 247 142T361
80Q414 80 441 120T468 237Q468 329 429 390T316 452Q208 452 208 297ZM549 680L414 661L304 792L142 669L110 711L335 884L569 709L549 680Z" />
<glyph unicode="&#xf5;" glyph-name="otilde" horiz-adv-x="676" d="M442 543T495 509T579 415T609 284Q609 206 562 139T442 31T303 -10Q236 -10 183 24T99 118T68 249Q68 327 115 394T235 502T374 543Q442 543 495 509ZM208 452T208 297Q208 204 247 142T361
80Q414 80 441 120T468 237Q468 329 429 390T316 452Q208 452 208 297ZM368 810T429 810Q460 810 488 830L525 857L557 815L384 684Q308 761 248 761Q215 761 187 740L152 714L120 756L292 887Q368 810 429 810Z" />
<glyph unicode="&#xf6;" glyph-name="odieresis" horiz-adv-x="676" d="M240 849T259 827T278 773Q278 750 265 730T231 698T191 686Q162 686 143 708T124 762Q124 785 137 805T171 837T211 849Q240 849 259 827ZM515 849T534 827T553 773Q553 750 540 730T506
698T466 686Q437 686 418 708T399 762Q399 785 412 805T446 837T486 849Q515 849 534 827ZM442 543T495 509T579 415T609 284Q609 206 562 139T442 31T303 -10Q236 -10 183 24T99 118T68 249Q68 327 115 394T235 502T374 543Q442 543 495 509ZM208 452T208 297Q208
204 247 142T361 80Q414 80 441 120T468 237Q468 329 429 390T316 452Q208 452 208 297Z" />
<glyph unicode="&#xf7;" glyph-name="divide" horiz-adv-x="531" d="M40 332H491V286H40V332ZM310 201T331 178T352 120Q352 96 337 75T299 41T254 28Q222 28 201 51T180 109Q180 133 195 154T233 188T277 201Q310 201 331 178ZM310 591T331 568T352 510Q352 486
337 465T299 431T254 418Q222 418 201 441T180 499Q180 523 195 544T233 578T277 591Q310 591 331 568Z" />
<glyph unicode="&#xf8;" glyph-name="oslash" horiz-adv-x="676" d="M555 469T583 411T612 284Q612 206 565 139T445 31T306 -10Q259 -10 217 7L127 -148L87 -125L176 30Q126 64 98 122T69 249Q69 327 116 394T236 502T375 543Q421 543 461 526L550 681L590 657L502
504H505Q555 469 583 411ZM211 208T247 149L404 422Q368 452 319 452Q211 452 211 297V296Q211 208 247 149ZM417 80T444 120T471 237Q471 326 435 384L277 111Q314 79 364 79V80Q417 80 444 120Z" />
<glyph unicode="&#xf9;" glyph-name="ugrave" horiz-adv-x="703" d="M649 0H452V101L328 -2Q309 -10 272 -10Q202 -10 161 31T120 144V378L31 430V466L207 550H250V199Q250 145 267 124T326 102Q355 102 384 113T452 155V378L363 430V466L539 550H582V78L672 45L649
0ZM381 675L153 844L173 873L317 892L424 696L381 675Z" />
<glyph unicode="&#xfa;" glyph-name="uacute" horiz-adv-x="703" d="M649 0H452V101L328 -2Q309 -10 272 -10Q202 -10 161 31T120 144V378L31 430V466L207 550H250V199Q250 145 267 124T326 102Q355 102 384 113T452 155V378L363 430V466L539 550H582V78L672 45L649
0ZM564 844L337 675L293 696L400 892L544 873L564 844Z" />
<glyph unicode="&#xfb;" glyph-name="ucircumflex" horiz-adv-x="703" d="M649 0H452V101L328 -2Q309 -10 272 -10Q202 -10 161 31T120 144V378L31 430V466L207 550H250V199Q250 145 267 124T326 102Q355 102 384 113T452 155V378L363 430V466L539 550H582V78L672
45L649 0ZM568 680L433 661L323 792L161 669L129 711L354 884L588 709L568 680Z" />
<glyph unicode="&#xfc;" glyph-name="udieresis" horiz-adv-x="703" d="M181 686T162 708T143 762Q143 785 156 805T190 837T230 849Q259 849 278 827T297 773Q297 750 284 730T250 698T210 686Q181 686 162 708ZM456 686T437 708T418 762Q418 785 431 805T465
837T505 849Q534 849 553 827T572 773Q572 750 559 730T525 698T485 686Q456 686 437 708ZM649 0H452V101L328 -2Q309 -10 272 -10Q202 -10 161 31T120 144V378L31 430V466L207 550H250V199Q250 145 267 124T326 102Q355 102 384 113T452 155V378L363 430V466L539
550H582V78L672 45L649 0Z" />
<glyph unicode="&#xfd;" glyph-name="yacute" horiz-adv-x="626" d="M591 497L338 0L124 -264L81 -230Q136 -169 165 -123T207 -31T220 77L97 377L3 432V468L184 552L222 401L342 110L479 391L344 488L366 533H591V497ZM510 844L283 675L239 696L346 892L490 873L510
844Z" />
<glyph unicode="&#xfe;" glyph-name="thorn" horiz-adv-x="719" d="M295 -11T252 19V-168L394 -210L372 -255H33V-219L122 -148V708L33 770V806L209 873H252V433L380 535Q412 543 457 543Q512 543 557 509T627 415T652 284Q652 206 605 139T485 31T346 -10V-11Q295
-11 252 19ZM368 447T333 434T253 382V188Q259 141 297 110T404 79Q458 79 485 118T512 235Q512 325 484 386T404 447H405Q368 447 333 434Z" />
<glyph unicode="&#xff;" glyph-name="ydieresis" horiz-adv-x="626" d="M127 686T108 708T89 762Q89 785 102 805T136 837T176 849Q205 849 224 827T243 773Q243 750 230 730T196 698T156 686Q127 686 108 708ZM402 686T383 708T364 762Q364 785 377 805T411 837T451
849Q480 849 499 827T518 773Q518 750 505 730T471 698T431 686Q402 686 383 708ZM591 497L338 0L124 -264L81 -230Q136 -169 165 -123T207 -31T220 77L97 377L3 432V468L184 552L222 401L342 110L479 391L344 488L366 533H591V497Z" />
<glyph unicode="&#x2013;" glyph-name="endash" horiz-adv-x="724" d="M40 332H684V286H40V332Z" />
<glyph unicode="&#x2014;" glyph-name="emdash" horiz-adv-x="1042" d="M40 332H1002V286H40V332Z" />
<glyph unicode="&#x2018;" glyph-name="quoteleft" horiz-adv-x="364" d="M266 734T244 691T217 595L298 547V511L119 426L76 583L273 827L316 794H317Q266 734 244 691Z" />
<glyph unicode="&#x2019;" glyph-name="quoteright" horiz-adv-x="370" d="M91 426L48 460Q98 520 120 563T147 659L66 706V742L245 827L288 670L91 426Z" />
<glyph unicode="&#x201a;" glyph-name="quotesinglbase" horiz-adv-x="364" d="M91 -264L48 -230Q98 -170 120 -127T147 -32L66 16V52L245 137L288 -20L91 -264Z" />
<glyph unicode="&#x201c;" glyph-name="quotedblleft" horiz-adv-x="634" d="M526 734T504 691T477 595L558 547V511L379 426L336 583L533 827L576 794H577Q526 734 504 691ZM512 734T490 691T463 595L544 547V511L365 426L322 583L519 827L562 794H563Q512 734 490 691Z" />
<glyph unicode="&#x201d;" glyph-name="quotedblright" horiz-adv-x="640" d="M361 426L318 460Q368 520 390 563T417 659L336 706V742L515 827L558 670L361 426ZM91 426L48 460Q98 520 120 563T147 659L66 706V742L245 827L288 670L91 426Z" />
<glyph unicode="&#x201e;" glyph-name="quotedblbase" horiz-adv-x="634" d="M361 -264L318 -230Q368 -170 390 -127T417 -32L336 16V52L515 137L558 -20L361 -264ZM91 -264L48 -230Q98 -170 120 -127T147 -32L66 16V52L245 137L288 -20L91 -264Z" />
<glyph unicode="&#x2022;" glyph-name="bullet" horiz-adv-x="520" d="M315 442T349 421T403 364T422 282Q422 232 392 190T315 122T226 96Q184 96 150 117T97 176T78 258Q78 307 108 349T184 417T272 442Q315 442 349 421Z" />
<glyph unicode="&#x2039;" glyph-name="guilsinglleft" horiz-adv-x="415" d="M348 55L308 25L48 268L308 510L348 481L222 289L348 55Z" />
<glyph unicode="&#x203a;" glyph-name="guilsinglright" horiz-adv-x="415" d="M107 24L68 54L194 246L68 480L107 509L368 267L107 24Z" />
</font>
</defs>
</svg>
