<?xml version="1.0" standalone="no"?>
<!DOCTYPE svg PUBLIC "-//W3C//DTD SVG 1.1//EN" "http://www.w3.org/Graphics/SVG/1.1/DTD/svg11.dtd">
<svg xmlns="http://www.w3.org/2000/svg">
<defs >
<font id="LilyScriptOne" horiz-adv-x="554" ><font-face
    font-family="Lily Script One"
    units-per-em="1000"
    panose-1="2 0 5 0 0 0 0 0 0 0"
    ascent="1017"
    descent="-359"
    alphabetic="0" />
<glyph unicode=" " glyph-name="space" horiz-adv-x="220" />
<glyph unicode="!" glyph-name="exclam" horiz-adv-x="344" d="M156 831Q176 841 226 841Q324 841 324 795Q324 791 323 786L199 262H92L156 831ZM86 144T120 144T178 120T202 62T178 5T120 -19T63 4T39 62T62 120Z" />
<glyph unicode="&quot;" glyph-name="quotedbl" horiz-adv-x="432" d="M46 743T69 767T128 791T188 769T214 704T170 603T84 511Q82 510 76 510T52 516T30 526Q77 580 112 630Q84 635 65 657T46 711ZM234 743T257 767T316 791T376 769T402 704T358 603T272 511Q270
510 264 510T240 516T218 526Q265 580 300 630Q272 635 253 657T234 711Z" />
<glyph unicode="#" glyph-name="numbersign" horiz-adv-x="643" d="M533 283L522 207H385L298 -8H222L309 207H193L106 -8H30L117 207H15L24 283H148L207 427H95L104 503H238L318 701H394L314 503H430L510 701H586L506 503H623L612 427H475L416 283H533ZM224 283H340L399
427H283L224 283Z" />
<glyph unicode="$" glyph-name="dollar" horiz-adv-x="488" d="M461 725Q520 681 520 600Q520 553 496 504H421Q445 544 445 587Q445 591 445 594Q445 621 426 643L342 445Q351 429 372 394T403 341T425 296Q450 242 450 186Q450 102 390 49T243 -4Q196 -4 158
12L140 -30H75L107 45Q47 100 47 186Q47 232 78 273L167 271Q135 230 135 197T147 139L238 354Q234 362 221 385T203 417T188 445T173 476T161 503T150 532Q141 568 141 591Q141 663 195 711T345 760Q377 760 407 752L411 761H476L461 725ZM356 673Q322 673 301
651T280 591T304 509L373 672Q368 673 356 673ZM228 84Q265 84 290 107T314 164Q312 214 274 286L192 93Q210 84 228 84Z" />
<glyph unicode="%" glyph-name="percent" horiz-adv-x="858" d="M20 506L21 530Q32 639 84 700T223 761Q292 761 334 710T377 561L376 528Q364 430 313 369T186 307Q103 307 62 363T20 506ZM640 761H723L165 -100H82L640 761ZM113 516Q112 510 112 492T114 455T122
412Q133 363 184 363Q222 363 249 409T284 547Q286 561 286 569Q286 704 220 705Q177 705 148 655T113 516ZM473 200L474 223Q486 332 538 393T678 454Q747 454 788 403T830 255L829 221Q819 123 768 61T642 -1Q635 -1 628 0Q554 4 514 58T473 200ZM565 193Q565
58 631 55Q633 55 636 55Q675 55 703 102T737 239Q740 260 740 262Q740 396 673 397Q630 397 602 348T566 209Q565 202 565 193Z" />
<glyph unicode="&amp;" glyph-name="ampersand" horiz-adv-x="657" d="M450 -13Q450 11 438 53Q349 -9 251 -9T96 46T40 178Q40 260 93 322Q133 368 224 422Q177 513 177 585T231 710T381 764Q448 764 490 729T533 641Q533 540 389 423Q399 407 443 344T509 245Q529
286 529 320Q529 389 483 391Q483 398 488 414T500 440T522 458T556 466Q592 466 615 439T639 369Q639 354 636 338Q619 255 553 165Q591 81 591 21T572 -78Q539 -142 456 -164Q428 -171 400 -171H388V-110Q450 -79 450 -13ZM351 676T332 658T310 604Q310 560 347
491Q388 523 414 551Q444 585 444 613T429 658Q412 676 382 676ZM181 200L180 188Q180 146 208 114T293 81T407 124Q378 179 339 238T287 317L276 335Q223 294 204 264T181 200Z" />
<glyph unicode="&apos;" glyph-name="quotesingle" horiz-adv-x="600" d="M231 795Q231 801 240 801H350Q358 801 358 797T357 785L328 519Q327 511 318 511H252Q249 511 247 535T238 667L231 795Z" />
<glyph unicode="(" glyph-name="parenleft" horiz-adv-x="446" d="M156 243Q156 143 190 66Q237 -42 330 -73L318 -158Q161 -112 83 19Q21 123 21 260Q21 493 160 633Q276 749 426 762L417 678Q200 641 161 327Q156 283 156 243Z" />
<glyph unicode=")" glyph-name="parenright" horiz-adv-x="446" d="M425 344Q425 111 286 -29Q170 -145 20 -158L29 -74Q246 -37 285 277Q290 321 290 361Q290 461 256 538Q209 646 116 677L128 762Q285 716 363 585Q425 481 425 344Z" />
<glyph unicode="*" glyph-name="asterisk" horiz-adv-x="389" d="M138 698Q129 709 129 718Q129 749 155 760Q165 763 174 763T197 755T209 723L204 615L138 698ZM314 731T325 719T336 697Q336 665 310 653L208 615L260 711Q273 731 293 731ZM98 578Q90 576 81
576T59 586T45 619Q47 640 62 648T87 657T105 654L200 612L98 578ZM342 570Q345 562 345 553T338 534Q326 514 306 514T273 528L207 611L312 592Q333 590 342 570ZM208 504Q208 482 194 472T170 462T154 463Q126 473 126 500Q126 513 136 526L204 610L208 504Z"
/>
<glyph unicode="+" glyph-name="plus" horiz-adv-x="442" d="M243 119H151L176 332H-14L-4 418H186L210 628H301L277 418H468L458 332H267L243 119Z" />
<glyph unicode="," glyph-name="comma" horiz-adv-x="384" d="M116 106T139 130T198 154T258 132T284 67T240 -34T154 -126Q152 -127 146 -127T122 -121T100 -111Q147 -57 182 -7Q154 -2 135 20T116 74Z" />
<glyph unicode="-" glyph-name="hyphen" horiz-adv-x="458" d="M42 417H424L415 331H33L42 417Z" />
<glyph unicode="." glyph-name="period" horiz-adv-x="363" d="M147 144T181 144T239 120T263 62T239 5T181 -19T124 4T100 62T123 120Z" />
<glyph unicode="/" glyph-name="slash" horiz-adv-x="381" d="M278 761H361L103 -100H20L278 761Z" />
<glyph unicode="0" glyph-name="zero" horiz-adv-x="673" d="M309 0Q175 0 111 92T45 335Q45 360 47 376Q62 557 145 659T368 761Q370 761 371 761Q485 759 555 674T628 426Q628 291 576 182Q534 97 464 49T309 0ZM469 454Q469 665 363 665Q291 665 252 581T201
325Q205 195 228 149Q238 128 259 112Q281 94 312 94Q373 94 415 171T468 401Q469 429 469 454Z" />
<glyph unicode="1" glyph-name="one" horiz-adv-x="509" d="M475 0H12L26 108H186L248 564L64 553L75 643Q259 690 294 761H416L331 108H487L475 0Z" />
<glyph unicode="2" glyph-name="two" horiz-adv-x="616" d="M570 226Q576 201 576 186Q576 79 531 37T408 -5Q353 -5 278 13T173 32Q171 32 170 32Q109 32 63 0L26 88H25Q49 119 121 183T208 262T252 300T296 339T337 380T375 430Q417 498 417 554T388 638T322
667Q273 665 248 638T222 581T226 536H90Q81 620 130 678Q198 761 327 761Q435 761 503 707T571 553Q571 458 488 364Q460 333 447 321Q349 230 240 150Q259 147 324 134Q394 121 413 121Q454 121 475 148T510 226H570Z" />
<glyph unicode="3" glyph-name="three" horiz-adv-x="658" d="M108 567Q108 617 130 656T189 717Q263 761 344 761Q452 761 521 711T590 566Q587 442 465 391Q531 378 572 333T613 224Q613 112 527 56T329 0Q136 0 35 138L132 228Q155 177 212 138Q271 98 327
98T419 132T454 218Q454 250 437 274Q394 332 267 332Q261 332 255 332H194L202 423Q275 423 324 428T410 464Q449 499 449 559Q449 601 420 633T334 667Q287 665 265 639T242 583T248 536H110Q108 556 108 567Z" />
<glyph unicode="4" glyph-name="four" horiz-adv-x="608" d="M110 723Q157 768 220 768Q263 768 286 746T310 687Q310 651 291 611T262 550T234 498T206 451Q195 430 155 364H322L380 713Q401 721 435 721T489 708T510 659Q510 646 509 636T457 354Q583 324 583
198Q583 182 581 165Q571 77 526 39T418 0T320 34T285 124Q285 143 287 153L303 249L53 246L26 304Q12 337 12 343T13 350Q155 535 165 654Q165 657 165 660Q165 704 110 723ZM503 184Q503 246 439 252Q422 158 422 144Q422 102 450 102Q470 102 484 118Q503 143
503 184Z" />
<glyph unicode="5" glyph-name="five" horiz-adv-x="606" d="M416 639L281 647L257 491Q283 497 315 497T386 486T465 451T529 382T554 276Q554 143 473 72T252 0T20 97L87 204Q145 101 252 101Q315 101 355 146T396 263T351 371T236 409T107 378L170 760H213Q245
760 274 760Q518 760 570 782Q571 765 571 745T566 702T539 663T491 644T416 639Z" />
<glyph unicode="6" glyph-name="six" horiz-adv-x="623" d="M362 495Q468 495 525 424T583 262Q583 142 504 71T321 0Q250 0 197 24T111 88Q30 185 30 330Q30 352 32 375Q46 558 142 659T395 761Q504 761 573 704L527 622Q470 667 395 667Q324 667 278 620T210
506Q184 419 184 323Q184 258 201 203Q235 94 318 94Q358 94 391 136T427 249Q427 256 427 264Q427 407 293 407Q276 407 245 399T208 385L215 461Q276 495 362 495Z" />
<glyph unicode="7" glyph-name="seven" horiz-adv-x="596" d="M348 30Q304 -13 249 -13Q219 -13 189 6T148 72Q145 86 145 100T147 124T154 148T163 170T174 193T186 216L248 345H104L114 431H289L392 648H260Q257 604 224 570T140 535T57 563T25 640T62 725T178
761H576Q582 744 582 723T565 678L444 431H535L524 345H401L335 210Q306 152 306 105T348 30ZM114 628Q114 614 136 614Q173 614 187 648Q162 648 138 648T114 628Z" />
<glyph unicode="8" glyph-name="eight" horiz-adv-x="611" d="M482 369T503 350T544 296T563 218T547 135Q508 45 404 14Q357 -1 298 -1Q167 -1 107 61Q45 125 45 201Q45 335 188 408Q105 484 105 560Q105 652 176 706T342 761T501 714T566 583Q569 477 439 400Q482
369 503 350ZM453 621T420 644T348 667T279 643T248 582Q248 544 290 510Q307 496 356 460Q415 489 434 518T454 584ZM340 94T376 121T412 188Q412 211 406 227T383 259T356 284T315 312T272 341Q217 317 188 282T158 211Q158 156 195 125Q234 94 287 94Z" />
<glyph unicode="9" glyph-name="nine" horiz-adv-x="671" d="M313 273Q196 273 138 348Q88 415 88 503Q88 512 90 532Q103 642 173 703T353 765Q413 765 460 746T538 696T589 623Q626 545 626 447Q626 417 623 390Q605 206 516 104T265 -1Q209 -1 163 12T95 40T45
78L118 171Q148 133 184 115T274 97Q446 97 471 414Q474 468 474 475Q474 671 362 671Q309 671 277 630Q240 581 240 504Q240 453 271 409T372 365Q389 365 418 373T453 387L445 314Q390 273 313 273Z" />
<glyph unicode=":" glyph-name="colon" horiz-adv-x="291" d="M137 494T171 494T229 470T253 412T229 355T171 331T114 354T90 412T113 470ZM96 144T130 144T188 120T212 62T188 5T130 -19T73 4T49 62T72 120Z" />
<glyph unicode=";" glyph-name="semicolon" horiz-adv-x="361" d="M180 484T214 484T272 460T296 402T272 345T214 321T157 344T133 402T156 460ZM81 106T104 130T163 154T223 132T249 67T205 -34T119 -126Q117 -127 111 -127T87 -121T65 -111Q112 -57 147 -7Q119
-2 100 20T81 74Z" />
<glyph unicode="&lt;" glyph-name="less" horiz-adv-x="687" d="M619 157L607 61L28 366L667 592L654 493L237 350L619 157Z" />
<glyph unicode="=" glyph-name="equal" horiz-adv-x="524" d="M31 395L43 481H514L503 395H31ZM482 215H9L22 301H493L482 215Z" />
<glyph unicode="&gt;" glyph-name="greater" horiz-adv-x="687" d="M41 190L458 333L76 526L88 622L667 317L28 91L41 190Z" />
<glyph unicode="?" glyph-name="question" horiz-adv-x="523" d="M83 704T147 757T305 811T456 762T514 633Q514 631 514 628Q509 500 391 410Q372 395 336 371T281 332T244 296Q221 265 222 238Q223 228 224 226H127Q118 235 114 258T110 289Q110 337 139 375T205
440T278 492T340 556Q367 597 367 637T345 702T278 727T205 694Q176 660 176 614T195 540H98Q80 584 80 624Q83 704 147 757ZM130 132T164 132T222 108T246 49T222 -8T164 -32T106 -9T82 49T106 107Z" />
<glyph unicode="@" glyph-name="at" horiz-adv-x="746" d="M211 523T273 545T397 567T513 551T615 502T692 413T721 283Q721 180 676 114T560 48Q477 48 464 137Q445 96 411 71T332 45Q263 45 224 89T184 209Q184 284 231 354Q254 389 297 411T393 433T493 418Q510
424 531 424T570 414Q538 200 538 151Q538 114 573 114Q604 114 625 158T646 276Q646 381 581 439T398 497T201 424T122 216Q122 118 190 54T357 -11Q403 -11 422 -5T454 5L469 10Q473 8 477 -10T481 -38T479 -53Q416 -76 352 -76Q228 -76 137 -1T45 209Q45 298
76 368T159 481ZM413 364Q353 364 316 323T278 215Q278 169 299 147T352 124T410 149T445 225L463 358Q431 364 413 364Z" />
<glyph unicode="A" glyph-name="A" horiz-adv-x="714" d="M608 -2Q552 -2 524 34T485 171Q479 223 473 306Q403 285 332 262L298 168Q288 141 284 130T270 95T252 62T231 35T203 12Q167 -6 126 -6T60 23T34 96Q34 108 36 121Q49 217 233 296Q285 429 406 744Q438
762 487 762Q498 762 508 762T532 762T569 756Q570 709 615 173Q619 128 626 115T650 101Q678 101 724 139T808 234L836 166L812 134Q707 -2 608 -2ZM449 588L362 345Q432 369 466 380L449 588ZM105 162T105 117Q105 85 129 85Q147 85 158 111Q171 139 198 209Q105
162 105 117Z" />
<glyph unicode="B" glyph-name="B" horiz-adv-x="707" d="M42 541Q42 636 126 698T348 761Q421 761 479 747T571 710T628 659Q666 609 666 548T617 438T501 388Q586 382 648 332T711 206Q711 106 634 50T447 -6T296 23L327 107Q371 84 429 84T525 118T562 210T512
306T374 345L383 419Q443 419 484 447T527 533T476 629Q419 670 320 670Q255 670 193 637T131 547Q131 520 153 502T211 479L200 405Q124 408 83 448T42 541ZM312 85T266 41T158 -4T64 28T32 110Q32 228 211 311Q216 353 225 424T240 540T248 598Q289 624 343 624Q368
624 391 619L328 192Q312 85 266 41ZM106 123Q106 87 140 87Q154 87 169 105T191 164L200 226Q106 173 106 123Z" />
<glyph unicode="C" glyph-name="C" horiz-adv-x="575" d="M330 -6Q175 -6 103 73T30 281T74 517T207 692T397 761T558 712T617 579T566 440T445 385T338 415T300 480T327 534T408 554Q395 541 395 520T408 482T448 466T502 494T529 570T501 645T420 673Q352 673
297 618T212 478T183 299Q183 218 218 156Q236 124 271 105T355 86Q437 86 513 138T641 274L675 213Q616 117 527 56T330 -6Z" />
<glyph unicode="D" glyph-name="D" horiz-adv-x="744" d="M45 536Q45 643 138 704T352 765Q507 765 624 676Q682 631 714 557T746 392Q746 215 645 104Q540 -9 382 -9Q347 -9 308 0T246 24Q209 -4 152 -4T62 28T30 110Q30 228 209 311Q214 353 223 424T238 540T246
598Q287 624 341 624Q366 624 389 619L326 192Q317 135 301 97Q332 89 351 89Q466 89 529 176Q594 267 594 396Q594 561 475 633Q409 673 330 673Q229 673 170 618Q136 587 136 543Q136 520 150 500T199 476L189 411Q116 415 81 451T45 536ZM104 123Q104 87 138
87Q152 87 167 105T189 164L198 226Q104 173 104 123Z" />
<glyph unicode="E" glyph-name="E" horiz-adv-x="481" d="M234 349Q176 308 176 227Q176 176 212 131T336 86T501 145T619 274L653 213Q524 -6 294 -6Q180 -6 101 55T22 200Q22 345 151 410Q108 463 108 534Q108 627 188 694T375 761T538 707T596 565H501Q502
619 473 646T391 674T296 636Q249 595 249 540T279 445Q379 457 431 432Q463 417 463 385T427 339T339 326T234 349Z" />
<glyph unicode="F" glyph-name="F" horiz-adv-x="556" d="M457 589Q417 589 346 602Q246 526 161 526Q158 526 155 526Q94 527 60 558T25 642T59 728T162 761Q207 761 306 731Q410 700 461 700Q545 700 572 760L611 733Q589 589 457 589ZM124 612Q124 587 167
587T272 619Q184 641 151 641Q140 641 132 633T124 612ZM397 538L381 431H530Q539 410 539 390T520 357T472 343H367L366 334Q492 274 492 156Q492 67 445 31T334 -6T235 26T200 113Q200 122 202 136L229 343H135Q141 400 145 431H241L252 519Q304 544 339 544T397
538ZM365 85Q389 85 407 102T425 158Q425 233 357 273Q341 162 341 135T347 96T365 85Z" />
<glyph unicode="G" glyph-name="G" horiz-adv-x="630" d="M331 -275Q275 -275 236 -241T196 -135T264 -2Q143 15 86 91T29 289T73 517T206 692T396 761T557 712T616 576T565 438T445 385T337 415T299 480T326 534T407 554Q394 541 394 520T407 482T446 466T496
494T520 570T495 646T419 673Q351 673 296 618T211 478T182 299Q182 218 217 156Q235 124 270 105T340 86T396 89L421 307H561L539 144Q647 201 681 268L720 213Q655 113 528 61L515 -47Q507 -120 486 -169T437 -239T384 -268T331 -275ZM285 -132Q285 -150 296
-163T321 -176T344 -171T361 -145T375 -86L385 -4Q285 -66 285 -132Z" />
<glyph unicode="H" glyph-name="H" horiz-adv-x="725" d="M565 746T597 753T659 761T707 753L609 0H473L512 338L499 334Q407 307 332 281L318 171Q294 -6 152 -6Q101 -6 73 24T45 103Q45 210 196 296L247 730Q266 743 297 752T357 761T395 760L343 362Q404 384
497 409L521 415L559 738Q565 746 597 753ZM115 118Q115 86 144 86Q160 86 165 95T172 111T177 129T180 148T182 171T184 193L186 208Q115 159 115 118Z" />
<glyph unicode="I" glyph-name="I" horiz-adv-x="483" d="M556 648Q540 655 525 655T495 636T475 581L423 210Q409 109 354 51T215 -7Q132 -7 87 39T41 150T85 260T198 305Q240 305 264 299L259 238Q242 242 207 242T144 218T116 158T136 103T184 83Q268 83 282
207Q309 455 321 542Q261 521 215 521Q142 521 104 555T65 644T104 730T204 762Q241 762 310 739T418 716Q486 716 532 751Q557 716 557 668Q557 658 556 648ZM164 617Q164 602 180 591T230 580T318 610Q279 619 238 630T189 642Q164 642 164 617Z" />
<glyph unicode="J" glyph-name="J" horiz-adv-x="418" d="M512 646Q496 653 481 653T451 634T431 579L381 229Q507 284 542 311L580 245Q550 222 508 204T427 171T369 147L336 -87Q323 -183 268 -228T146 -274T40 -226T1 -117Q1 40 231 162L241 243Q260 415 280
542Q223 519 161 519T60 553T21 642T60 728T160 760Q197 760 266 737T374 714Q442 714 488 749Q513 714 513 666Q513 656 512 646ZM120 615Q120 600 136 589T186 578T274 608Q235 617 194 628T145 640Q120 640 120 615ZM220 75Q77 -11 77 -107Q77 -134 91 -153Q107
-175 131 -175T174 -160T196 -112L220 75Z" />
<glyph unicode="K" glyph-name="K" horiz-adv-x="682" d="M745 215L777 166Q762 112 736 75T681 22Q630 -6 584 -6Q504 -6 466 40T425 165Q422 291 410 322T355 357L362 432Q380 435 390 440T416 460Q450 490 466 601Q479 685 519 723T607 761T690 734T726 645Q726
564 668 505T505 398Q541 381 558 341T577 257T580 172Q584 76 637 76Q699 76 745 215ZM122 -6Q69 -6 37 26T5 108Q5 225 182 309Q189 368 202 476Q227 698 232 734Q273 760 317 760T385 755L311 190Q281 -6 122 -6ZM656 637T648 645T631 653T619 651T611 645T605
636T601 622T597 607T592 588T584 556T572 514Q656 568 656 622Q656 637 648 645ZM79 121Q79 85 113 85Q127 85 142 103T164 162L172 224Q79 170 79 121Z" />
<glyph unicode="L" glyph-name="L" horiz-adv-x="464" d="M387 87Q398 83 411 83T437 86T460 100T477 119T492 150Q503 178 519 229Q561 190 569 170Q521 -6 400 -6Q343 -6 255 68Q209 -6 112 -6Q69 -6 35 23T0 106T36 194T129 229Q140 229 160 227L174 354Q130
340 38 318V393Q113 410 182 431L202 594Q223 761 372 761Q431 761 466 729T502 637Q502 495 319 408L289 172L288 162Q362 96 387 87ZM427 629Q427 671 392 671Q350 671 339 572L329 493Q427 551 427 629ZM76 113Q76 83 110 83Q143 83 151 142Q132 150 116 150T88
139T76 113Z" />
<glyph unicode="M" glyph-name="M" horiz-adv-x="810" d="M660 754Q681 762 719 762T787 757Q756 527 739 341T720 144T718 126Q719 100 743 100Q803 100 910 238Q929 185 932 167Q884 91 817 43T689 -6T606 25T583 94Q583 103 585 129T625 453L461 74H376L327
447L257 137Q240 63 202 28T117 -7T42 20Q11 49 11 102Q11 208 175 283Q264 710 271 756Q295 762 335 762T391 760H398L460 295L660 749V754ZM82 119Q82 87 107 87Q124 87 135 114Q149 147 158 201Q82 158 82 119Z" />
<glyph unicode="N" glyph-name="N" horiz-adv-x="730" d="M603 693T636 727T723 761T802 730T828 666Q828 656 826 646Q804 535 679 473L609 0H441L322 527L267 137Q256 63 222 28T141 -7T65 20T27 97Q26 105 26 113Q26 212 175 283L218 605Q243 616 261 616T293
613Q270 649 220 649T132 597L113 683Q132 709 179 735T284 762T382 728T440 612L534 216L592 616Q603 693 636 727ZM692 559Q754 603 754 641Q754 648 749 657T734 666Q715 666 708 645Q698 616 692 559ZM96 161T96 124T123 87Q141 87 149 110T164 195L165 200Q96
161 96 124Z" />
<glyph unicode="O" glyph-name="O" horiz-adv-x="747" d="M925 402Q902 377 849 358T765 338T718 340Q693 192 591 93T353 -6T149 78T80 297Q80 385 107 468T181 617T301 721T451 761T580 726T631 627Q631 579 598 542T505 504Q474 504 450 519T426 569Q426 585
434 597T450 612L459 616Q459 576 491 576Q506 576 517 586T529 610T528 630T520 648Q506 673 461 673Q402 673 349 617T265 473T233 293Q233 216 258 156Q272 124 299 106T364 87Q427 87 476 140T549 268T573 420V432Q570 443 570 453Q570 501 604 526Q626 542
659 542Q668 542 688 539T716 530Q695 529 684 516T672 481T692 440Q720 413 779 413T903 462L925 402Z" />
<glyph unicode="P" glyph-name="P" horiz-adv-x="619" d="M19 545Q19 641 104 701T331 761Q416 761 480 742T578 688Q646 621 646 534T577 389T399 330Q387 330 363 332L372 405Q505 405 505 530Q505 588 456 628Q405 670 304 670Q203 670 144 618Q109 588 109
553Q109 487 188 478L176 404Q107 407 63 448T19 545ZM371 618L327 332Q454 271 454 152Q454 65 409 30T299 -6T199 27T163 116Q163 129 164 136L224 599Q276 624 312 624T371 618ZM328 85Q352 85 369 102T387 159Q387 230 319 271Q303 154 303 131T310 96T328
85Z" />
<glyph unicode="Q" glyph-name="Q" horiz-adv-x="729" d="M543 425Q543 452 536 469Q546 484 567 493T608 503T643 497Q694 472 694 407Q694 234 575 108Q604 77 629 77Q671 77 671 118Q671 129 668 141Q715 119 715 76T687 11T620 -10Q562 -10 509 53Q418 -6
316 -6Q187 -6 119 78T50 297Q50 385 77 468T151 617T271 721T421 761T550 726T601 627Q601 579 568 542T475 504Q444 504 420 519T396 569Q396 585 404 597T420 612L429 616Q429 576 461 576Q476 576 487 586T499 610T498 630T490 648Q476 673 431 673Q372 673
319 617T235 473T203 293Q203 216 228 156Q242 124 269 106T334 87Q397 87 446 141Q393 222 356 222Q351 222 330 215L345 268Q365 285 392 285Q441 285 496 215Q543 311 543 425Z" />
<glyph unicode="R" glyph-name="R" horiz-adv-x="669" d="M747 215L779 166Q730 -6 576 -6Q541 -6 516 7T477 38T456 84Q445 126 445 195T428 290T365 319L376 404Q378 404 379 404Q437 404 475 437Q516 474 516 532T462 630T321 670Q210 670 150 615Q118 585
118 543Q118 490 199 479L185 404Q124 407 77 445T30 543Q30 648 118 704T341 761Q428 761 494 740Q607 702 644 608Q656 575 656 555T656 527Q652 472 616 419T506 346Q550 337 566 308T583 220Q584 119 592 98T628 76Q701 76 747 215ZM134 -6Q81 -6 49 26T17
105Q17 227 196 309Q232 589 233 596Q275 623 328 623Q350 623 378 617L315 190Q285 -6 134 -6ZM91 117Q91 85 125 85Q165 85 176 157L185 225Q91 170 91 117Z" />
<glyph unicode="S" glyph-name="S" horiz-adv-x="488" d="M418 504Q448 549 448 588T426 650T368 673T310 656T288 601T340 466T406 341Q444 265 444 194Q444 105 380 50T228 -6T90 48T40 176Q40 311 207 399Q139 533 139 586Q139 660 198 711T344 763T477 719T523
607Q523 562 493 504H418ZM183 85T221 85T281 107T303 174Q303 214 272 272Q268 280 257 301T241 332Q129 274 129 186Q129 141 156 114Q183 85 221 85Z" />
<glyph unicode="T" glyph-name="T" horiz-adv-x="404" d="M239 596T198 566T109 536T31 564T0 647T49 731T164 761H561Q564 747 564 734Q564 700 542 671T475 642Q473 642 472 642H260Q239 596 198 566ZM130 642Q93 642 93 616Q93 595 125 595Q140 595 160 608T195
642H130ZM312 -4T160 -4Q106 -4 74 29T41 112Q41 229 219 312L254 578Q295 604 349 604Q374 604 397 599L337 192Q312 -4 160 -4ZM115 173T115 123Q115 87 150 87Q190 87 200 164L208 227Q115 173 115 123Z" />
<glyph unicode="U" glyph-name="U" horiz-adv-x="602" d="M447 746T479 753T541 761T589 753Q516 169 516 149T528 114T565 98Q631 98 683 279Q683 281 684 284T685 288Q729 260 742 253Q709 127 660 61T534 -6T430 67H427Q396 28 358 11T263 -6Q169 -6 119 43T68
183Q68 202 71 225L99 459Q0 529 0 624Q0 687 38 724T135 761Q258 761 258 631Q258 610 255 584L204 193Q203 186 203 172Q203 133 221 109T276 85Q365 85 381 223L441 738Q447 746 479 753ZM98 669Q64 669 64 628T110 546L113 572Q119 624 120 637Q120 669 98
669Z" />
<glyph unicode="V" glyph-name="V" horiz-adv-x="673" d="M700 761Q747 761 774 734T802 664Q802 588 748 540T605 450Q533 264 433 0H267Q233 476 227 553T213 645T184 659Q131 659 75 472Q27 495 8 506Q59 671 124 727Q168 765 229 765Q284 765 314 729T354
589Q359 534 368 374T382 161H388L541 586Q574 679 597 709Q635 761 700 761ZM734 635Q734 648 726 656T705 664T682 643T640 541Q734 590 734 635Z" />
<glyph unicode="W" glyph-name="W" horiz-adv-x="827" d="M558 693L557 680Q519 388 507 320Q487 208 487 150T537 91Q579 91 612 151T662 302Q697 490 697 627Q697 691 686 738Q726 762 782 762T838 696Q838 593 806 383Q780 208 734 126Q713 91 686 59Q630 -6
530 -6T386 80Q331 -6 219 -6Q147 -6 108 35T68 146Q68 155 70 173L107 455Q0 532 0 628Q0 689 42 725T144 761Q275 761 275 631Q275 629 275 626T274 617T272 602T268 576T262 539T254 484T244 411T230 314T216 217T210 159Q210 92 262 92Q334 92 351 223L415
728Q448 743 494 743Q558 743 558 693ZM105 681Q86 681 77 667T68 635Q68 590 118 542L123 582Q127 615 127 648T105 681Z" />
<glyph unicode="X" glyph-name="X" horiz-adv-x="736" d="M83 697Q133 774 226 774Q265 774 304 748T368 648L417 494L486 612Q526 680 553 710Q602 763 651 763T731 734T763 664Q763 591 704 542Q652 497 498 468L450 391Q492 262 513 200T551 111T590 85T628
92T653 106T673 124T688 137L701 63Q688 44 646 19T560 -6Q485 -6 441 30T361 183L340 253L280 151Q229 63 204 37Q164 -6 120 -6T43 22T10 95T29 173T86 228Q152 265 259 286Q285 328 307 360L240 584Q236 595 230 617T219 649T208 671Q195 693 168 687T96 625L83
697ZM687 632Q687 659 651 659Q627 659 609 638T574 588T556 558T553 553T549 547Q687 580 687 632ZM122 98Q141 98 159 122Q182 154 213 207Q86 176 86 125Q86 98 122 98Z" />
<glyph unicode="Y" glyph-name="Y" horiz-adv-x="644" d="M313 643L312 626Q309 579 284 394Q253 172 253 162Q253 132 272 112T322 91T380 112T421 164L477 675Q482 721 514 741T583 762Q607 762 633 752L566 198Q698 259 729 270L744 200Q656 164 557 117L532
-87Q526 -141 506 -179T456 -238Q403 -274 341 -274T237 -229T195 -119T237 -3Q184 6 149 43T114 136Q114 142 116 158L148 404Q25 482 25 596Q25 702 102 742Q138 762 184 762T272 733T313 643ZM147 681Q123 681 108 658T92 603Q92 533 158 488L177 632Q177 673
157 680Q153 681 147 681ZM271 -106Q271 -139 287 -157T327 -175T368 -159T390 -112L408 45Q271 -30 271 -106Z" />
<glyph unicode="Z" glyph-name="Z" horiz-adv-x="535" d="M517 243T553 210T590 127T552 39T437 0H29Q19 25 19 53T40 109L387 642H353Q326 589 276 554T165 519T67 551T30 634T68 722T183 761H581Q586 744 586 727Q586 696 567 670L210 119H267Q294 172 344 207T455
242ZM182 642Q117 642 117 611T178 580T283 642H182ZM438 119Q503 119 503 150T442 181T337 119H438Z" />
<glyph unicode="[" glyph-name="bracketleft" horiz-adv-x="446" d="M19 -125V-123H18L134 759V760H426L415 685H206L111 -50H322L313 -125H19Z" />
<glyph unicode="\" glyph-name="backslash" horiz-adv-x="520" d="M20 761H103L500 -100H417L20 761Z" />
<glyph unicode="]" glyph-name="bracketright" horiz-adv-x="448" d="M425 761V759H426L310 -123V-124H18L29 -49H238L333 686H122L131 761H425Z" />
<glyph unicode="^" glyph-name="asciicircum" horiz-adv-x="600" d="M330 527L157 207H60L352 720L570 207H473L330 527Z" />
<glyph unicode="_" glyph-name="underscore" horiz-adv-x="560" d="M10 -1H560L549 -87H0L10 -1Z" />
<glyph unicode="`" glyph-name="grave" horiz-adv-x="238" d="M101 737L228 550Q202 520 190 513L10 646Q27 670 54 698T101 737Z" />
<glyph unicode="a" glyph-name="a" horiz-adv-x="548" d="M478 -5Q386 -5 356 59Q304 -6 223 -6T86 49T30 194Q30 325 107 403T302 481Q305 481 308 481Q358 481 400 464Q427 481 465 481T521 471Q512 397 502 326T488 224Q479 156 479 126Q479 86 511 86Q536
86 564 119T613 225Q642 199 653 167Q624 72 575 34T478 -5ZM317 403Q253 403 216 355T171 210Q170 201 170 193Q170 144 193 115T254 86Q317 86 349 175L373 391Q344 403 317 403Z" />
<glyph unicode="b" glyph-name="b" horiz-adv-x="512" d="M398 482T450 423T502 285Q502 274 501 262Q490 131 413 63T212 -6Q162 -4 125 12T70 52Q36 96 36 130T46 242Q67 400 106 753Q127 761 162 761Q242 761 242 715L208 449Q255 482 326 482ZM171 114T188
99T237 83Q288 83 321 130Q361 187 361 278Q361 322 341 356T279 390Q222 390 192 322L184 262Q171 161 171 138Z" />
<glyph unicode="c" glyph-name="c" horiz-adv-x="469" d="M346 339Q346 404 288 404Q245 404 211 355Q175 302 175 231T206 122T293 83Q359 83 432 137T551 271Q571 256 590 216Q561 158 482 86Q441 48 380 22Q314 -6 248 -6Q159 -6 98 55T36 214Q36 333 116 407T295
481Q372 481 417 449T462 365Q462 331 438 306Q394 262 331 262Q346 312 346 339Z" />
<glyph unicode="d" glyph-name="d" horiz-adv-x="548" d="M422 738T446 749T505 761T557 751Q547 673 525 506Q479 157 479 122T509 86Q535 86 563 118T614 225Q642 198 653 166Q617 47 540 12Q505 -5 474 -5Q385 -5 355 59Q303 -6 222 -6T86 49T30 194Q30 325
107 403T302 481Q305 481 308 481Q349 481 385 469L415 721Q422 738 446 749ZM317 403Q253 403 216 355T171 210Q170 201 170 193Q170 144 193 115T254 86Q317 86 349 175L375 390Q342 403 317 403Z" />
<glyph unicode="e" glyph-name="e" horiz-adv-x="466" d="M281 237T311 274T342 345T324 392T283 405Q236 405 201 353T165 228T199 120T285 84Q360 84 429 136T541 272Q563 251 581 220Q548 145 464 73Q422 38 365 16T246 -6Q146 -6 88 55Q26 121 26 224T103
404T289 481Q366 481 414 448T463 357Q463 280 402 232T233 165L219 224Q281 237 311 274Z" />
<glyph unicode="f" glyph-name="f" horiz-adv-x="403" d="M303 -1Q358 -98 358 -161T320 -264T219 -304T118 -270T78 -174Q78 -162 82 -126L113 144Q54 223 16 270Q50 317 73 317Q84 317 93 306T126 265L164 601Q172 667 196 708Q228 761 314 761Q375 761 407
728T439 635Q439 556 388 479T268 344L243 103Q260 84 291 84Q353 84 394 136T467 285Q481 277 496 265T514 247Q491 136 434 75T303 -1ZM350 674Q345 675 340 675Q313 675 304 640T282 479L278 441Q321 485 347 534T374 624T350 674ZM216 -152Q215 -157 215 -173T225
-201T251 -212T281 -199T294 -157Q294 -104 231 -12L216 -152Z" />
<glyph unicode="g" glyph-name="g" horiz-adv-x="532" d="M302 481Q357 481 403 463Q434 482 468 482T522 473L486 191Q560 248 598 295L627 234Q570 174 475 106L448 -103Q437 -197 387 -247T256 -298Q210 -298 166 -268Q120 -236 120 -165Q120 -78 203 -6Q132
-1 81 53T30 194Q30 325 107 403T302 481ZM317 403Q253 403 216 355T171 210Q170 201 170 193Q170 144 193 115T254 86Q317 86 349 174L374 391Q343 403 317 403ZM197 -150Q197 -177 212 -192T248 -208Q304 -208 313 -137L330 13Q197 -66 197 -150Z" />
<glyph unicode="h" glyph-name="h" horiz-adv-x="497" d="M306 114L330 335Q330 362 316 380T271 398T219 374T187 309Q180 252 166 143T148 0H15Q87 613 102 753Q123 761 159 761Q237 761 237 715V709Q220 552 201 433Q254 481 321 481T427 447T466 361Q466 347
460 309Q437 159 437 133Q437 86 468 86Q494 86 523 120T571 227Q605 191 612 170Q560 -4 428 -4Q366 -4 336 34T306 114Z" />
<glyph unicode="i" glyph-name="i" horiz-adv-x="231" d="M132 760T165 760T221 737T245 680T222 624T165 601T109 624T86 680T109 736ZM78 461T106 470T161 480T210 473Q171 172 171 169Q166 149 166 136T168 112Q172 86 204 86T264 128T306 225Q313 221 328
201T346 171Q326 91 278 42Q230 -7 163 -7T64 26T31 111Q31 122 32 134L68 443Q78 461 106 470Z" />
<glyph unicode="j" glyph-name="j" horiz-adv-x="305" d="M217 760T250 760T306 737T330 680T307 624T250 601T194 624T171 680T194 736ZM55 -306Q8 -306 -28 -277T-65 -175Q-65 -31 109 82Q116 142 151 443Q181 480 245 480Q281 480 294 473L216 -132Q206 -219
168 -262T55 -306ZM-1 -192T10 -206T38 -221Q70 -221 79 -155L100 5Q-1 -75 -1 -165Q-1 -192 10 -206Z" />
<glyph unicode="k" glyph-name="k" horiz-adv-x="496" d="M486 360Q486 256 362 201Q365 183 371 158Q389 84 431 82Q434 82 437 82Q517 82 556 223Q577 204 596 166Q582 112 557 75T501 22Q448 -6 401 -6Q291 -6 247 117Q230 166 224 217Q281 231 314 263T347
333Q347 397 283 397Q248 397 223 371T190 307Q184 256 171 147T153 0H20Q92 613 107 753Q128 761 164 761Q242 761 242 715V709Q222 528 205 432Q260 483 343 483Q405 483 445 451T486 360Z" />
<glyph unicode="l" glyph-name="l" horiz-adv-x="306" d="M106 -7T71 27T36 122Q36 138 90 597Q104 715 165 746Q193 761 232 761Q364 761 364 639Q364 629 363 618Q353 484 195 345Q190 296 184 250Q172 147 172 136Q172 84 217 84Q266 84 308 140T374 285Q383
282 399 269T421 245Q405 162 349 86Q321 47 278 22Q229 -7 168 -7ZM206 445Q298 546 298 626Q298 674 262 674Q239 672 232 644T218 553T209 475L206 445Z" />
<glyph unicode="m" glyph-name="m" horiz-adv-x="804" d="M315 0L353 332Q353 360 340 378T292 397T236 365T208 296Q173 47 169 0H35L90 470Q132 481 154 481Q217 481 223 439Q272 481 330 481Q446 481 478 412Q527 482 618 482Q685 482 724 448T763 361Q763
346 757 308Q734 158 734 132Q734 85 765 85Q791 85 820 119T868 226Q902 190 909 169Q857 -5 725 -5Q663 -5 633 33T603 113L627 334Q627 361 613 379T569 397T515 374T483 315Q453 61 444 0H315Z" />
<glyph unicode="n" glyph-name="n" horiz-adv-x="519" d="M318 112L342 335Q342 362 328 380T282 398T227 370T198 298Q162 24 160 0H25L80 471Q122 482 144 482Q211 482 214 433Q263 481 331 481T439 447T478 361Q478 347 472 308Q449 156 449 131Q449 85 480
85Q548 85 583 227Q617 191 624 170Q571 -6 440 -6Q378 -6 348 32T318 112Z" />
<glyph unicode="o" glyph-name="o" horiz-adv-x="520" d="M295 481Q387 481 448 422T510 278Q510 149 435 72T252 -6T83 55T20 206Q20 332 97 406Q175 481 295 481ZM228 400T196 346T161 210Q161 152 184 114T256 76T336 129T369 250T346 358Q323 400 276 400Z" />
<glyph unicode="p" glyph-name="p" horiz-adv-x="529" d="M143 482Q208 482 219 449Q266 482 338 482T462 423T514 285Q514 274 513 262Q502 131 425 63T224 -6Q196 -6 163 1L131 -274H0Q64 277 86 474Q107 482 143 482ZM373 278Q373 322 353 356T291 390Q234
390 204 316Q184 168 181 144Q180 114 200 99T249 84Q300 84 333 130Q373 187 373 278Z" />
<glyph unicode="q" glyph-name="q" horiz-adv-x="573" d="M313 27Q267 -6 199 -6T76 49T20 194Q20 325 97 403T292 481Q295 481 298 481Q347 481 390 464Q422 481 455 481T506 471Q467 159 463 126L458 85Q484 85 497 86Q538 89 576 125T635 235Q667 195 673 177Q648
95 601 52T499 -2Q567 -82 567 -154Q567 -157 567 -160Q567 -199 554 -229T517 -275Q473 -304 431 -304Q357 -304 320 -258Q292 -221 292 -163Q292 -147 294 -130L313 27ZM307 403Q243 403 206 355T161 210Q160 201 160 193Q160 144 183 115T244 86Q300 86 332
157L359 393Q332 403 307 403ZM443 -23Q427 -150 427 -169T439 -200T467 -212T497 -199T510 -159Q510 -90 443 -23Z" />
<glyph unicode="r" glyph-name="r" horiz-adv-x="412" d="M328 350Q328 394 288 394T223 342Q331 257 331 151Q331 74 288 34T180 -6T85 34T55 137Q55 156 56 165L91 470Q127 481 164 481Q225 481 225 436V434Q265 481 327 481Q372 481 397 461T422 406T397 351T330
329Q328 329 326 329Q328 340 328 350ZM266 214T206 272Q188 128 188 127Q188 85 222 85Q266 85 266 156Q266 214 206 272Z" />
<glyph unicode="s" glyph-name="s" horiz-adv-x="515" d="M450 306Q529 248 529 169T467 42T311 -6Q250 -6 210 24T169 100T199 171T274 204Q253 174 253 147T272 102Q291 85 320 85T368 106T387 156Q387 202 344 238Q318 259 288 277T256 297Q252 300 248 302Q230
281 196 245T142 186Q86 125 79 84Q77 76 77 54T90 7T123 -29T160 -48T192 -59T206 -63Q206 -70 184 -79Q143 -94 99 -94T12 -62Q-45 -18 -45 55Q-45 100 -22 144Q19 222 170 358Q133 395 133 437T164 508T239 537Q278 537 307 506Q326 485 326 453T305 381Q412
333 450 306ZM233 419Q257 444 257 455Q257 480 235 482Q210 482 210 454Q210 437 233 419Z" />
<glyph unicode="t" glyph-name="t" horiz-adv-x="344" d="M259 696Q259 690 232 481H379V404H222L219 379Q336 281 336 165Q336 74 290 34T178 -6T83 28T53 112Q53 123 55 136L86 402L82 404H1Q0 414 0 436T9 481H95L127 753Q148 761 183 761Q259 761 259 696ZM269
166Q269 235 209 302Q191 153 191 130Q191 85 220 85Q241 85 255 104T269 166Z" />
<glyph unicode="u" glyph-name="u" horiz-adv-x="507" d="M479 471Q438 147 438 126Q438 86 467 86Q493 86 523 121T572 228Q605 192 612 172Q589 75 539 35T436 -5Q349 -5 319 62Q267 -5 180 -5Q108 -5 69 31T30 125Q30 139 35 174Q58 360 70 470Q101 481 127
481T166 479T191 464T203 427L170 172Q168 160 168 150Q168 91 222 91Q272 91 305 140Q305 151 307 175L340 441Q347 458 370 469T427 481T479 471Z" />
<glyph unicode="v" glyph-name="v" horiz-adv-x="454" d="M378 98T320 47T186 -5T74 44T36 158Q36 171 37 184L71 469Q103 481 139 481Q205 481 205 432Q205 430 189 299T172 146Q172 89 227 89Q274 89 306 142Q362 238 365 359H356Q314 359 292 378Q267 400 267
431T286 481Q309 501 341 501Q417 501 436 422Q466 426 479 430V373L442 367V350Q441 260 410 179ZM324 431Q324 414 353 414Q356 414 359 414Q352 441 338 441T324 431Z" />
<glyph unicode="w" glyph-name="w" horiz-adv-x="719" d="M437 159Q437 87 498 87Q500 87 501 87Q529 87 551 117T584 192Q608 284 608 359H599Q557 359 534 378Q510 400 510 431T529 481Q552 502 586 502Q660 502 686 426Q756 443 834 473V416Q760 388 696 373Q697
365 697 350Q693 143 600 50Q545 -5 458 -5T327 69Q278 -6 177 -6Q117 -6 79 36T40 137Q40 147 41 161Q62 335 76 469Q112 481 139 481Q210 481 210 432Q210 413 195 301Q176 160 176 143T189 108T228 91T274 114T303 170L338 469Q370 481 406 481Q471 481 471
432Q471 414 457 315Q437 175 437 159ZM567 431Q567 414 596 414Q599 414 602 414Q595 441 581 441T567 431Z" />
<glyph unicode="x" glyph-name="x" horiz-adv-x="510" d="M512 61T477 28T395 -6T322 13T274 77L242 139L193 68Q145 -1 93 -1Q53 -1 32 21T10 76Q10 130 52 160T143 191Q157 191 172 188L196 224Q124 354 117 365Q105 382 95 382T77 375T70 354T74 325L49 318Q40
330 34 352T28 388Q28 437 59 464T140 492Q201 492 235 426L276 347L331 433Q355 470 375 482T426 495T481 473T504 419Q504 366 466 337T382 308Q373 308 359 310L323 257Q391 125 398 112Q413 85 436 85Q467 85 485 140L489 152Q490 155 494 172L528 123Q512
61 477 28ZM442 418Q432 418 424 408T384 348Q411 348 435 361T460 396T442 418ZM139 151Q111 151 85 137T59 102T77 81Q98 81 147 151H139Z" />
<glyph unicode="y" glyph-name="y" horiz-adv-x="486" d="M205 -297Q148 -297 107 -263T66 -162Q66 -81 148 -4Q90 1 55 34T20 127Q20 155 27 211T42 332T59 470Q90 481 116 481T155 479T180 464T192 427L159 172Q157 156 157 150Q157 91 211 91Q260 91 291 137Q294
160 306 269T326 440Q335 459 363 470T410 481Q442 481 468 473L421 104Q538 83 561 -57Q557 -76 523 -117Q503 8 413 35L397 -90Q386 -180 340 -238T205 -297ZM144 -176T160 -192T202 -208T243 -186T265 -98L278 12Q147 -56 144 -143Q144 -176 160 -192Z" />
<glyph unicode="z" glyph-name="z" horiz-adv-x="437" d="M311 -9L33 -3Q20 -3 20 32T35 88Q50 128 118 205Q140 230 200 295T279 384L226 387Q211 351 183 329T119 306Q79 306 54 329T29 395T58 462T138 487L416 481Q429 481 429 447Q429 412 416 393Q404 371
382 347T316 282T256 224Q189 157 156 95L223 91Q238 127 266 149T330 172Q370 172 395 149T420 83T391 16T311 -9ZM130 394Q95 394 95 371T121 348Q160 348 183 390L142 393Q136 394 130 394ZM319 84Q354 84 354 107T328 130Q289 130 266 88L307 85Q313 84 319
84Z" />
<glyph unicode="{" glyph-name="braceleft" horiz-adv-x="379" d="M102 358Q126 358 135 442Q153 626 159 669T196 737T273 762Q334 762 379 725L368 681Q356 689 345 689Q305 689 294 674T280 630T273 562T261 470T250 381Q242 311 184 296Q227 278 227 226L194
-46Q194 -49 194 -61Q194 -91 233 -94Q258 -94 274 -86V-130Q214 -166 167 -166T92 -141T65 -77T82 73Q99 192 99 203Q99 237 83 237Q76 237 73 236T61 227T43 199L20 210Q32 240 57 264T115 298Q58 319 46 385L71 396Q80 362 92 359Q95 358 102 358Z" />
<glyph unicode="|" glyph-name="bar" horiz-adv-x="253" d="M123 761H209L107 -100H25L123 761Z" />
<glyph unicode="}" glyph-name="braceright" horiz-adv-x="380" d="M277 242Q253 242 244 158Q225 -33 219 -73T182 -137T106 -162Q45 -162 0 -125L11 -81Q23 -89 34 -89Q74 -89 85 -74T101 -6T127 219Q136 284 194 303Q148 320 148 374L181 646Q181 649 181 661Q181
691 142 694Q117 694 101 686V730Q161 766 208 766T283 741T310 677T292 527Q276 408 276 397Q276 363 292 363Q299 363 302 364T314 373T332 401L355 390Q343 360 319 336T263 302Q291 293 309 269T333 215L308 204Q299 238 288 241Q284 242 277 242Z" />
<glyph unicode="~" glyph-name="asciitilde" horiz-adv-x="425" d="M99 491Q108 491 130 487T233 446T340 409Q392 409 420 480H464Q454 393 414 352T324 311T194 350Q112 389 88 389T43 377T18 333H-26Q-22 412 17 451T99 491Z" />
<glyph unicode="&#xa0;" glyph-name="nbspace" horiz-adv-x="220" />
<glyph unicode="&#xa1;" glyph-name="exclamdown" horiz-adv-x="264" d="M188 338T154 338T96 362T72 420T96 477T154 501T211 478T235 420T212 362ZM118 -349Q98 -359 48 -359Q-50 -359 -50 -313Q-50 -309 -49 -304L75 220H182L118 -349Z" />
<glyph unicode="&#xa2;" glyph-name="cent" horiz-adv-x="557" d="M20 214Q20 320 87 391T246 478L278 761H354L322 479Q384 472 419 441T455 371T430 306Q386 262 322 262Q332 297 332 333T312 388L279 96L289 95Q292 95 295 95Q347 95 404 128T497 230L537 186Q481
57 357 13Q315 -2 267 -5L236 -284H160L192 0Q120 17 70 75T20 214ZM158 238Q158 159 206 123L237 396Q203 381 181 339T158 238Z" />
<glyph unicode="&#xa3;" glyph-name="sterling" horiz-adv-x="609" d="M408 89Q419 85 436 85T469 92T498 123T517 165T539 229Q572 198 589 170Q556 -6 430 -6Q362 -6 276 65Q229 -6 132 -6Q88 -6 53 23T17 106T54 195T149 231Q166 231 183 228Q193 300 200 363H82L94
443H210L229 594Q250 761 427 761Q496 761 536 720T577 610Q577 589 574 568H499Q501 588 501 597Q501 632 486 652Q468 674 434 674T383 648T361 573L345 443H527L514 363H335L312 172L311 161Q383 98 408 89ZM125 83Q160 83 170 143Q149 150 134 150T108 139T96
113T105 90T125 83Z" />
<glyph unicode="&#xa4;" glyph-name="currency" horiz-adv-x="678" d="M507 457Q541 409 541 348T508 238L617 128L564 74L454 187Q410 160 355 160T255 186L144 76L90 129L201 237Q169 284 169 345T204 458L91 568L145 621L260 508Q302 532 355 532T452 507L565
623L618 569L507 457ZM307 459T275 426T242 346T274 266T354 233T435 265T468 345T435 426T355 459Z" />
<glyph unicode="&#xa5;" glyph-name="yen" horiz-adv-x="614" d="M178 757Q244 757 244 708Q244 706 228 575T211 422Q211 365 266 365Q314 365 345 414T390 519T404 626T372 686Q373 687 372 694T373 712T382 734T400 753T433 761Q480 761 502 719Q516 691 516
662T512 610Q497 521 460 443T368 319H472L461 233H328L320 179H454L443 93H309L296 0H160L170 93H26L36 179H180L186 233H42L52 319H113Q75 362 75 432Q75 445 76 460L110 745Q142 757 178 757Z" />
<glyph unicode="&#xa6;" glyph-name="brokenbar" horiz-adv-x="220" d="M116 761H199L158 395H75L116 761ZM63 287H146L102 -99H19L63 287Z" />
<glyph unicode="&#xa7;" glyph-name="section" horiz-adv-x="621" d="M402 -2Q441 -71 441 -134Q441 -223 383 -279T232 -335T88 -288Q33 -237 33 -155Q33 -120 45 -82H131Q120 -104 121 -141T146 -208T209 -239T271 -220T295 -168T279 -110T179 21Q77 147 74
245Q73 318 117 371T233 442Q215 471 208 484Q182 531 182 586Q182 663 243 712T392 762T534 721Q589 678 589 600Q589 561 567 514H480Q481 517 487 528T496 546Q504 564 504 599T475 655T411 676T351 654T327 600T345 541T388 486T431 438T454 412T475 387T497
360T515 335T533 307T547 281T560 252Q570 213 570 185Q570 110 522 61T402 -2ZM286 369Q256 364 238 343T219 289T236 225Q259 185 318 124Q335 105 343 94Q375 95 398 114T421 160T406 216T376 262T330 317T286 369Z" />
<glyph unicode="&#xa8;" glyph-name="dieresis" horiz-adv-x="600" d="M127 634T147 655T198 677T249 656T270 604T249 553T198 532T148 553T127 604ZM409 677T439 677T490 656T511 604T491 553T440 532T388 553T366 604T387 655Z" />
<glyph unicode="&#xa9;" glyph-name="copyright" horiz-adv-x="710" d="M30 481T120 576T354 671T589 577T680 347T589 116T354 21T120 115T30 345ZM462 603T354 603T172 528T98 345T172 163T354 89T537 163T612 345T537 528ZM377 238Q459 238 527 308L549 258Q532
223 476 188Q419 151 346 151T213 201T152 341T211 491T350 550T474 519T518 439Q518 388 476 371Q436 355 404 355Q418 383 418 403Q418 478 352 478Q311 478 285 445T258 355T294 268T377 238Z" />
<glyph unicode="&#xaa;" glyph-name="ordfeminine" horiz-adv-x="416" d="M280 472Q236 472 222 502Q198 472 160 472T96 498T70 565Q70 627 106 663T198 700Q223 700 243 692Q256 700 273 700T301 695Q281 543 281 529T294 515Q325 515 342 581Q357 568 361 552Q348
508 325 490T280 472ZM204 663Q137 663 137 562Q137 542 147 529T175 515Q206 515 221 561L231 657Q215 663 204 663Z" />
<glyph unicode="&#xab;" glyph-name="guillemotleft" horiz-adv-x="600" d="M293 -1L102 238L313 483H379L235 238L360 -1H293ZM414 -1L295 238L434 483H500L403 238L481 -1H414Z" />
<glyph unicode="&#xac;" glyph-name="logicalnot" horiz-adv-x="600" d="M471 164L493 345H34L46 431H586L554 164H471Z" />
<glyph unicode="&#xad;" glyph-name="softhyphen" horiz-adv-x="458" d="M424 417L415 331H33L42 417H424Z" />
<glyph unicode="&#xae;" glyph-name="registered" horiz-adv-x="710" d="M30 481T120 576T354 671T589 577T680 347T589 116T354 21T120 115T30 345ZM246 89T354 89T537 163T612 345T537 528T354 603T172 528T98 345T172 163ZM419 157T401 184T375 263T363 329L340
323L334 271Q326 208 298 183T238 157T188 179T171 225Q171 288 264 332Q277 446 278 455Q296 467 320 467T358 463L345 361L347 362Q427 388 427 443Q427 471 403 488T332 505T255 487T225 439Q225 426 237 416T260 405L256 377Q255 377 254 377Q173 377 173 443Q173
491 221 525Q272 561 343 561T467 530T519 439Q519 410 499 383T445 342Q454 324 458 290T469 235T491 214Q521 214 544 283L569 273Q555 213 526 186Q496 157 458 157ZM258 286Q210 256 210 238T227 219Q250 219 255 257L258 286Z" />
<glyph unicode="&#xaf;" glyph-name="overscore" horiz-adv-x="600" d="M120 700H540V618H120V700Z" />
<glyph unicode="&#xb0;" glyph-name="degree" horiz-adv-x="600" d="M145 680T190 720T292 761T383 724T417 640Q417 631 416 622Q411 565 367 524T265 483T172 521T137 609Q137 615 138 622Q145 680 190 720ZM354 632Q354 657 336 677T287 698T230 676Q201 650
201 619T220 567T270 546T326 568T353 622Q354 627 354 632Z" />
<glyph unicode="&#xb1;" glyph-name="plusminus" horiz-adv-x="494" d="M287 392L263 179H171L196 392H6L16 478H206L230 688H321L297 478H488L478 392H287ZM458 0H-14L-4 86H468L458 0Z" />
<glyph unicode="&#xb2;" glyph-name="twosuperior" horiz-adv-x="357" d="M57 586V600Q58 651 95 675T184 700T273 673T310 592Q310 550 280 512Q260 487 246 473L230 457Q193 420 150 391Q212 379 233 379T265 392T284 434H315Q317 414 317 406Q310 310 230 310Q202
310 158 319T92 328T45 310L25 357Q33 368 72 400T120 441T145 464T167 485T187 505T206 531Q225 567 225 595T211 638T176 653Q127 650 125 605Q125 596 127 586H57Z" />
<glyph unicode="&#xb3;" glyph-name="threesuperior" horiz-adv-x="399" d="M250 422Q250 480 168 480H143L148 527Q173 527 196 529T234 545T252 591Q253 616 242 633T208 651Q162 651 156 604Q154 593 159 574H79Q77 588 77 600Q77 634 103 658Q148 700 210
700T305 672T337 600Q337 544 284 511Q314 500 330 480T347 434Q347 370 296 337Q255 310 199 310Q94 310 44 391L125 437Q126 399 144 380T190 360T233 377T250 422Z" />
<glyph unicode="&#xb4;" glyph-name="acute" horiz-adv-x="238" d="M52 550L179 737Q199 727 226 699T270 646L90 513Q78 520 52 550Z" />
<glyph unicode="&#xb6;" glyph-name="paragraph" horiz-adv-x="600" d="M294 301L241 297Q155 297 88 344T21 478Q21 562 84 626Q156 699 331 705L335 740Q369 762 433 762Q447 762 461 760L454 693L477 687L485 761H539L529 670Q539 666 557 656L540 588L521
596L455 0H401L469 612L445 617L399 196Q378 -1 228 -1Q171 -1 136 30T101 111T132 190T205 221T261 216L257 171Q248 173 223 173T183 159T168 122T182 87T214 73Q272 73 282 173L294 301ZM190 489Q190 443 221 408T300 370L323 622Q274 617 243 594T201 544T190
489Z" />
<glyph unicode="&#xb7;" glyph-name="middot" horiz-adv-x="600" d="M232 378H358Q367 378 369 377T371 371V244Q371 238 369 237T358 236H232Q225 236 223 238T221 248V366Q221 374 222 376T232 378Z" />
<glyph unicode="&#xb8;" glyph-name="cedilla" horiz-adv-x="600" d="M350 -32T379 -56T409 -126T375 -201T296 -230Q225 -230 191 -182L209 -144Q218 -158 240 -171T285 -184T321 -168T336 -126T317 -85T269 -70T236 -71L277 37H333L307 -33L313 -32Q350 -32 379 -56Z" />
<glyph unicode="&#xb9;" glyph-name="onesuperior" horiz-adv-x="267" d="M245 365Q239 323 239 310H2L9 365H87L113 600L29 592L36 639Q118 660 138 700H202L164 365H245Z" />
<glyph unicode="&#xba;" glyph-name="ordmasculine" horiz-adv-x="282" d="M272 596Q272 530 233 490T140 450T53 481T20 559Q20 623 59 661T153 699T240 670T272 596ZM127 659T111 631T93 567T104 511T141 491T183 519T200 581T188 637Q176 659 152 659Z" />
<glyph unicode="&#xbb;" glyph-name="guillemotright" horiz-adv-x="480" d="M77 0L172 239L93 484H159L280 239L143 0H77ZM198 0L341 239L214 484H280L474 239L264 0H198Z" />
<glyph unicode="&#xbc;" glyph-name="onequarter" horiz-adv-x="858" d="M713 761L155 -100H72L630 761H713ZM290 365Q284 323 284 310H33L40 365H122L148 600L60 592L67 639Q165 664 183 700H247L209 365H290ZM708 388Q756 388 756 356Q756 340 727 191Q798 174
798 103Q798 40 764 12Q738 -8 705 -8Q668 -8 648 11T627 62Q627 67 629 77L636 130H495V132Q490 139 481 160T472 184T473 189Q559 302 559 365Q559 388 529 400Q553 424 601 424Q625 424 637 412T650 388T650 368T643 343T626 305T606 268T582 228T564 196H646L676
384Q696 388 708 388ZM723 49Q753 49 753 96Q753 112 745 121T715 133L707 73Q707 49 723 49Z" />
<glyph unicode="&#xbd;" glyph-name="onehalf" horiz-adv-x="800" d="M726 761L168 -100H85L643 761H726ZM307 365Q301 323 301 310H50L57 365H139L165 600L77 592L84 639Q182 664 200 700H264L226 365H307ZM766 114L769 73Q769 34 745 7T687 -20T609 -6T543 8T496
-10L476 37Q479 51 518 84Q591 146 614 175T646 225Q657 253 657 279T644 318T610 333Q568 331 566 285Q566 256 568 246H488V280Q489 330 530 355T624 380T714 353T751 268T681 137Q644 100 601 71Q663 59 684 59T716 72T735 114H766Z" />
<glyph unicode="&#xbe;" glyph-name="threequarters" horiz-adv-x="850" d="M91 -100L649 761H732L174 -100H91ZM244 422Q244 480 162 480H137L142 527Q167 527 190 529T228 545T246 591Q247 616 236 633T202 651Q156 651 150 604Q148 593 153 574H73Q71 588 71
600Q71 634 97 658Q142 700 204 700T299 672T331 600Q331 544 278 511Q308 500 324 480T341 434Q341 370 290 337Q249 310 193 310Q88 310 38 391L119 437Q120 399 138 380T184 360T227 377T244 422ZM526 394Q550 418 598 418Q622 418 634 406T647 382T647 362T640
337T623 299T603 262T579 222T561 190H643L673 378Q693 382 711 382Q753 382 753 348Q753 334 724 185Q795 168 795 97Q795 34 761 6Q735 -14 702 -14Q665 -14 645 5T624 56Q624 61 626 71L633 124H492V126Q487 133 478 154T469 178T470 183Q556 296 556 359Q556
382 526 394ZM720 43Q750 43 750 90Q750 106 742 115T712 127Q712 127 704 67Q704 43 720 43Z" />
<glyph unicode="&#xbf;" glyph-name="questiondown" horiz-adv-x="593" d="M396 568T430 568T488 545T512 487T488 429T430 404T372 428T348 487T372 544ZM467 311Q476 301 480 278T484 247Q484 199 455 162T389 99T316 48T254 -15Q227 -55 227 -96T249 -164T316
-191T389 -158Q418 -124 418 -78T399 -4H496Q514 -47 514 -88Q511 -168 447 -221T289 -275T138 -223T80 -91Q80 -89 80 -86Q83 -13 115 35T203 126Q222 141 258 165T313 204T349 240T371 286V292Q371 308 370 311H467Z" />
<glyph unicode="&#xc0;" glyph-name="Agrave" horiz-adv-x="714" d="M469 1017L596 830Q570 800 558 793L378 926Q395 950 422 978T469 1017ZM608 -2Q552 -2 524 34T485 171Q479 223 473 306Q403 285 332 262L298 168Q288 141 284 130T270 95T252 62T231 35T203
12Q167 -6 126 -6T60 23T34 96Q34 108 36 121Q49 217 233 296Q285 429 406 744Q438 762 487 762Q498 762 508 762T532 762T569 756Q570 709 615 173Q619 128 626 115T650 101Q678 101 724 139T808 234L836 166L812 134Q707 -2 608 -2ZM449 588L362 345Q432 369
466 380L449 588ZM105 162T105 117Q105 85 129 85Q147 85 158 111Q171 139 198 209Q105 162 105 117Z" />
<glyph unicode="&#xc1;" glyph-name="Aacute" horiz-adv-x="714" d="M430 830L557 1017Q577 1007 604 979T648 926L468 793Q456 800 430 830ZM608 -2Q552 -2 524 34T485 171Q479 223 473 306Q403 285 332 262L298 168Q288 141 284 130T270 95T252 62T231 35T203
12Q167 -6 126 -6T60 23T34 96Q34 108 36 121Q49 217 233 296Q285 429 406 744Q438 762 487 762Q498 762 508 762T532 762T569 756Q570 709 615 173Q619 128 626 115T650 101Q678 101 724 139T808 234L836 166L812 134Q707 -2 608 -2ZM449 588L362 345Q432 369
466 380L449 588ZM105 162T105 117Q105 85 129 85Q147 85 158 111Q171 139 198 209Q105 162 105 117Z" />
<glyph unicode="&#xc2;" glyph-name="Acircumflex" horiz-adv-x="714" d="M499 980L673 859Q652 820 640 801L499 874L358 801Q346 820 325 859L499 980ZM608 -2Q552 -2 524 34T485 171Q479 223 473 306Q403 285 332 262L298 168Q288 141 284 130T270 95T252 62T231
35T203 12Q167 -6 126 -6T60 23T34 96Q34 108 36 121Q49 217 233 296Q285 429 406 744Q438 762 487 762Q498 762 508 762T532 762T569 756Q570 709 615 173Q619 128 626 115T650 101Q678 101 724 139T808 234L836 166L812 134Q707 -2 608 -2ZM449 588L362 345Q432
369 466 380L449 588ZM105 162T105 117Q105 85 129 85Q147 85 158 111Q171 139 198 209Q105 162 105 117Z" />
<glyph unicode="&#xc3;" glyph-name="Atilde" horiz-adv-x="714" d="M474 979T529 944T607 909Q653 909 681 977L725 952Q716 887 682 846T600 804T500 841Q446 879 424 879T386 867T354 820L310 846Q323 904 355 941T430 979ZM608 -2Q552 -2 524 34T485 171Q479
223 473 306Q403 285 332 262L298 168Q288 141 284 130T270 95T252 62T231 35T203 12Q167 -6 126 -6T60 23T34 96Q34 108 36 121Q49 217 233 296Q285 429 406 744Q438 762 487 762Q498 762 508 762T532 762T569 756Q570 709 615 173Q619 128 626 115T650 101Q678
101 724 139T808 234L836 166L812 134Q707 -2 608 -2ZM449 588L362 345Q432 369 466 380L449 588ZM105 117Q105 85 129 85Q147 85 158 111Q171 139 198 209Q105 162 105 117Z" />
<glyph unicode="&#xc4;" glyph-name="Adieresis" horiz-adv-x="714" d="M305 914T325 935T376 957T427 936T448 884T427 833T376 812T326 833T305 884ZM587 957T617 957T668 936T689 884T669 833T618 812T566 833T544 884T565 935ZM608 -2Q552 -2 524 34T485 171Q479
223 473 306Q403 285 332 262L298 168Q288 141 284 130T270 95T252 62T231 35T203 12Q167 -6 126 -6T60 23T34 96Q34 108 36 121Q49 217 233 296Q285 429 406 744Q438 762 487 762Q498 762 508 762T532 762T569 756Q570 709 615 173Q619 128 626 115T650 101Q678
101 724 139T808 234L836 166L812 134Q707 -2 608 -2ZM449 588L362 345Q432 369 466 380L449 588ZM105 117Q105 85 129 85Q147 85 158 111Q171 139 198 209Q105 162 105 117Z" />
<glyph unicode="&#xc5;" glyph-name="Aring" horiz-adv-x="714" d="M608 -2Q552 -2 524 34T485 171Q479 223 473 306Q403 285 332 262L298 168Q288 141 284 130T270 95T252 62T231 35T203 12Q167 -6 126 -6T60 23T34 96Q34 108 36 121Q49 217 233 296Q285 429
406 744L426 753Q379 783 379 833T409 914T484 945T558 915T589 838T552 760L569 756Q570 709 615 173Q619 128 626 115T650 101Q678 101 724 139T808 234L836 166L812 134Q707 -2 608 -2ZM504 889T484 889T450 875T435 840T449 806T484 791T518 805T533 840T519
874ZM449 588L362 345Q432 369 466 380L449 588ZM105 117Q105 85 129 85Q147 85 158 111Q171 139 198 209Q105 162 105 117Z" />
<glyph unicode="&#xc6;" glyph-name="AE" horiz-adv-x="1196" d="M679 349Q621 308 621 227Q621 176 657 131T781 86T946 145T1064 274L1098 213Q969 -6 739 -6Q625 -6 546 55T467 200Q467 242 477 273L474 306Q404 285 333 262L299 168Q289 141 285 130T271 95T253
62T232 35T204 12Q168 -6 127 -6T61 23T35 96Q35 108 37 121Q50 217 234 296Q286 429 407 744Q440 762 491 762L521 760Q526 760 540 756Q542 689 554 552Q562 641 642 701T824 761T983 707T1041 565H946Q947 619 918 646T836 674T741 636Q694 595 694 540T724
445Q824 457 876 432Q908 417 908 385T872 339T784 326T679 349ZM450 588L363 345Q433 369 468 380L450 588ZM559 481L567 393Q572 396 582 402T596 410Q571 442 559 481ZM106 117Q106 85 130 85Q148 85 159 111Q172 139 199 209Q106 162 106 117Z" />
<glyph unicode="&#xc7;" glyph-name="Ccedilla" horiz-adv-x="575" d="M382 -32T411 -56T441 -126T407 -201T328 -230Q257 -230 223 -182L241 -144Q250 -158 272 -171T317 -184T353 -168T368 -126T349 -85T301 -70T268 -71L293 -5Q157 5 94 83T30 286T74 517T207
692T397 761T558 712T617 579T566 440T445 385T338 415T300 480T327 534T408 554Q395 541 395 520T408 482T448 466T502 494T529 570T501 645T420 673Q352 673 297 618T212 478T183 299Q183 218 218 156Q236 124 271 105T355 86Q437 86 513 138T641 274L675 213Q619
121 535 61T349 -5L339 -33L345 -32Q382 -32 411 -56Z" />
<glyph unicode="&#xc8;" glyph-name="Egrave" horiz-adv-x="481" d="M362 1017L489 830Q463 800 451 793L271 926Q288 950 315 978T362 1017ZM234 349Q176 308 176 227Q176 176 212 131T336 86T501 145T619 274L653 213Q524 -6 294 -6Q180 -6 101 55T22 200Q22
345 151 410Q108 463 108 534Q108 627 188 694T375 761T538 707T596 565H501Q502 619 473 646T391 674T296 636Q249 595 249 540T279 445Q379 457 431 432Q463 417 463 385T427 339T339 326T234 349Z" />
<glyph unicode="&#xc9;" glyph-name="Eacute" horiz-adv-x="481" d="M323 830L450 1017Q470 1007 497 979T541 926L361 793Q349 800 323 830ZM234 349Q176 308 176 227Q176 176 212 131T336 86T501 145T619 274L653 213Q524 -6 294 -6Q180 -6 101 55T22 200Q22
345 151 410Q108 463 108 534Q108 627 188 694T375 761T538 707T596 565H501Q502 619 473 646T391 674T296 636Q249 595 249 540T279 445Q379 457 431 432Q463 417 463 385T427 339T339 326T234 349Z" />
<glyph unicode="&#xca;" glyph-name="Ecircumflex" horiz-adv-x="481" d="M392 980L566 859Q545 820 533 801L392 874L251 801Q239 820 218 859L392 980ZM234 349Q176 308 176 227Q176 176 212 131T336 86T501 145T619 274L653 213Q524 -6 294 -6Q180 -6 101 55T22
200Q22 345 151 410Q108 463 108 534Q108 627 188 694T375 761T538 707T596 565H501Q502 619 473 646T391 674T296 636Q249 595 249 540T279 445Q379 457 431 432Q463 417 463 385T427 339T339 326T234 349Z" />
<glyph unicode="&#xcb;" glyph-name="Edieresis" horiz-adv-x="481" d="M198 914T218 935T269 957T320 936T341 884T320 833T269 812T219 833T198 884ZM480 957T510 957T561 936T582 884T562 833T511 812T459 833T437 884T458 935ZM234 349Q176 308 176 227Q176
176 212 131T336 86T501 145T619 274L653 213Q524 -6 294 -6Q180 -6 101 55T22 200Q22 345 151 410Q108 463 108 534Q108 627 188 694T375 761T538 707T596 565H501Q502 619 473 646T391 674T296 636Q249 595 249 540T279 445Q379 457 431 432Q463 417 463 385T427
339T339 326T234 349Z" />
<glyph unicode="&#xcc;" glyph-name="Igrave" horiz-adv-x="483" d="M314 1017L441 830Q415 800 403 793L223 926Q240 950 267 978T314 1017ZM556 648Q540 655 525 655T495 636T475 581L423 210Q409 109 354 51T215 -7Q132 -7 87 39T41 150T85 260T198 305Q240
305 264 299L259 238Q242 242 207 242T144 218T116 158T136 103T184 83Q268 83 282 207Q309 455 321 542Q261 521 215 521Q142 521 104 555T65 644T104 730T204 762Q241 762 310 739T418 716Q486 716 532 751Q557 716 557 668Q557 658 556 648ZM164 617Q164 602
180 591T230 580T318 610Q279 619 238 630T189 642Q164 642 164 617Z" />
<glyph unicode="&#xcd;" glyph-name="Iacute" horiz-adv-x="483" d="M275 830L402 1017Q422 1007 449 979T493 926L313 793Q301 800 275 830ZM556 648Q540 655 525 655T495 636T475 581L423 210Q409 109 354 51T215 -7Q132 -7 87 39T41 150T85 260T198 305Q240
305 264 299L259 238Q242 242 207 242T144 218T116 158T136 103T184 83Q268 83 282 207Q309 455 321 542Q261 521 215 521Q142 521 104 555T65 644T104 730T204 762Q241 762 310 739T418 716Q486 716 532 751Q557 716 557 668Q557 658 556 648ZM164 617Q164 602
180 591T230 580T318 610Q279 619 238 630T189 642Q164 642 164 617Z" />
<glyph unicode="&#xce;" glyph-name="Icircumflex" horiz-adv-x="483" d="M344 980L518 859Q497 820 485 801L344 874L203 801Q191 820 170 859L344 980ZM556 648Q540 655 525 655T495 636T475 581L423 210Q409 109 354 51T215 -7Q132 -7 87 39T41 150T85 260T198
305Q240 305 264 299L259 238Q242 242 207 242T144 218T116 158T136 103T184 83Q268 83 282 207Q309 455 321 542Q261 521 215 521Q142 521 104 555T65 644T104 730T204 762Q241 762 310 739T418 716Q486 716 532 751Q557 716 557 668Q557 658 556 648ZM164 617Q164
602 180 591T230 580T318 610Q279 619 238 630T189 642Q164 642 164 617Z" />
<glyph unicode="&#xcf;" glyph-name="Idieresis" horiz-adv-x="483" d="M150 914T170 935T221 957T272 936T293 884T272 833T221 812T171 833T150 884ZM432 957T462 957T513 936T534 884T514 833T463 812T411 833T389 884T410 935ZM556 648Q540 655 525 655T495
636T475 581L423 210Q409 109 354 51T215 -7Q132 -7 87 39T41 150T85 260T198 305Q240 305 264 299L259 238Q242 242 207 242T144 218T116 158T136 103T184 83Q268 83 282 207Q309 455 321 542Q261 521 215 521Q142 521 104 555T65 644T104 730T204 762Q241 762
310 739T418 716Q486 716 532 751Q557 716 557 668Q557 658 556 648ZM164 617Q164 602 180 591T230 580T318 610Q279 619 238 630T189 642Q164 642 164 617Z" />
<glyph unicode="&#xd0;" glyph-name="Eth" horiz-adv-x="744" d="M45 534Q45 643 138 704T352 765Q507 765 624 676Q682 631 714 557T746 392Q746 215 645 104Q540 -9 382 -9Q347 -9 308 0T246 24Q209 -4 152 -4T62 28T30 110Q30 228 209 311L219 391H43L52 477H60Q45
504 45 534ZM301 97Q332 89 351 89Q466 89 529 176Q594 267 594 396Q594 561 475 633Q409 673 330 673Q229 673 170 618Q136 587 136 543Q136 522 148 502T192 477H230Q242 577 246 598Q287 624 341 624Q366 624 389 619L368 477H434L425 391H355L326 192Q317 135
301 97ZM104 123Q104 87 138 87Q152 87 167 105T189 164L198 226Q104 173 104 123Z" />
<glyph unicode="&#xd1;" glyph-name="Ntilde" horiz-adv-x="730" d="M452 979T507 944T585 909Q631 909 659 977L703 952Q694 887 660 846T578 804T478 841Q424 879 402 879T364 867T332 820L288 846Q301 904 333 941T408 979ZM603 693T636 727T723 761T802 730T828
666Q828 656 826 646Q804 535 679 473L609 0H441L322 527L267 137Q256 63 222 28T141 -7T65 20T27 97Q26 105 26 113Q26 212 175 283L218 605Q243 616 261 616T293 613Q270 649 220 649T132 597L113 683Q132 709 179 735T284 762T382 728T440 612L534 216L592 616Q603
693 636 727ZM692 559Q754 603 754 641Q754 648 749 657T734 666Q715 666 708 645Q698 616 692 559ZM96 161T96 124T123 87Q141 87 149 110T164 195L165 200Q96 161 96 124Z" />
<glyph unicode="&#xd2;" glyph-name="Ograve" horiz-adv-x="747" d="M442 1017L569 830Q543 800 531 793L351 926Q368 950 395 978T442 1017ZM925 402Q902 377 849 358T765 338T718 340Q693 192 591 93T353 -6T149 78T80 297Q80 385 107 468T181 617T301 721T451
761T580 726T631 627Q631 579 598 542T505 504Q474 504 450 519T426 569Q426 585 434 597T450 612L459 616Q459 576 491 576Q506 576 517 586T529 610T528 630T520 648Q506 673 461 673Q402 673 349 617T265 473T233 293Q233 216 258 156Q272 124 299 106T364 87Q427
87 476 140T549 268T573 420V432Q570 443 570 453Q570 501 604 526Q626 542 659 542Q668 542 688 539T716 530Q695 529 684 516T672 481T692 440Q720 413 779 413T903 462L925 402Z" />
<glyph unicode="&#xd3;" glyph-name="Oacute" horiz-adv-x="747" d="M403 830L530 1017Q550 1007 577 979T621 926L441 793Q429 800 403 830ZM925 402Q902 377 849 358T765 338T718 340Q693 192 591 93T353 -6T149 78T80 297Q80 385 107 468T181 617T301 721T451
761T580 726T631 627Q631 579 598 542T505 504Q474 504 450 519T426 569Q426 585 434 597T450 612L459 616Q459 576 491 576Q506 576 517 586T529 610T528 630T520 648Q506 673 461 673Q402 673 349 617T265 473T233 293Q233 216 258 156Q272 124 299 106T364 87Q427
87 476 140T549 268T573 420V432Q570 443 570 453Q570 501 604 526Q626 542 659 542Q668 542 688 539T716 530Q695 529 684 516T672 481T692 440Q720 413 779 413T903 462L925 402Z" />
<glyph unicode="&#xd4;" glyph-name="Ocircumflex" horiz-adv-x="747" d="M472 980L646 859Q625 820 613 801L472 874L331 801Q319 820 298 859L472 980ZM925 402Q902 377 849 358T765 338T718 340Q693 192 591 93T353 -6T149 78T80 297Q80 385 107 468T181 617T301
721T451 761T580 726T631 627Q631 579 598 542T505 504Q474 504 450 519T426 569Q426 585 434 597T450 612L459 616Q459 576 491 576Q506 576 517 586T529 610T528 630T520 648Q506 673 461 673Q402 673 349 617T265 473T233 293Q233 216 258 156Q272 124 299 106T364
87Q427 87 476 140T549 268T573 420V432Q570 443 570 453Q570 501 604 526Q626 542 659 542Q668 542 688 539T716 530Q695 529 684 516T672 481T692 440Q720 413 779 413T903 462L925 402Z" />
<glyph unicode="&#xd5;" glyph-name="Otilde" horiz-adv-x="747" d="M447 979T502 944T580 909Q626 909 654 977L698 952Q689 887 655 846T573 804T474 841Q419 879 397 879T359 867T327 820L283 846Q296 904 328 941T403 979ZM925 402Q902 377 849 358T765 338T718
340Q693 192 591 93T353 -6T149 78T80 297Q80 385 107 468T181 617T301 721T451 761T580 726T631 627Q631 579 598 542T505 504Q474 504 450 519T426 569Q426 585 434 597T450 612L459 616Q459 576 491 576Q506 576 517 586T529 610T528 630T520 648Q506 673 461
673Q402 673 349 617T265 473T233 293Q233 216 258 156Q272 124 299 106T364 87Q427 87 476 140T549 268T573 420V432Q570 443 570 453Q570 501 604 526Q626 542 659 542Q668 542 688 539T716 530Q695 529 684 516T672 481T692 440Q720 413 779 413T903 462L925
402Z" />
<glyph unicode="&#xd6;" glyph-name="Odieresis" horiz-adv-x="747" d="M278 914T298 935T349 957T400 936T421 884T400 833T349 812T299 833T278 884ZM560 957T590 957T641 936T662 884T642 833T591 812T539 833T517 884T538 935ZM925 402Q902 377 849 358T765
338T718 340Q693 192 591 93T353 -6T149 78T80 297Q80 385 107 468T181 617T301 721T451 761T580 726T631 627Q631 579 598 542T505 504Q474 504 450 519T426 569Q426 585 434 597T450 612L459 616Q459 576 491 576Q506 576 517 586T529 610T528 630T520 648Q506
673 461 673Q402 673 349 617T265 473T233 293Q233 216 258 156Q272 124 299 106T364 87Q427 87 476 140T549 268T573 420V432Q570 443 570 453Q570 501 604 526Q626 542 659 542Q668 542 688 539T716 530Q695 529 684 516T672 481T692 440Q720 413 779 413T903
462L925 402Z" />
<glyph unicode="&#xd7;" glyph-name="multiply" horiz-adv-x="383" d="M390 69L211 264L8 64L-47 126L155 325L-13 508L49 570L218 388L406 573L459 510L274 327L455 132L390 69Z" />
<glyph unicode="&#xd8;" glyph-name="Oslash" horiz-adv-x="747" d="M925 402Q902 377 849 358T765 338T718 340Q693 192 591 93T346 -6H327L311 -60H228L249 9Q166 38 123 114T80 288T107 468T181 617T301 721T457 761L474 760L486 801H569L551 742Q631 706 631
627Q631 579 598 542T505 504Q493 504 481 507L355 87H364Q427 87 476 140T549 268T573 420V432Q570 443 570 453Q570 501 604 526Q626 542 659 542Q668 542 688 539T716 530Q695 529 684 516T672 481T692 440Q720 413 779 413T903 462L925 402ZM233 293Q233 173
282 121L447 672Q391 665 341 609T262 467T233 293ZM522 645L502 578Q527 585 530 617Q530 631 522 645Z" />
<glyph unicode="&#xd9;" glyph-name="Ugrave" horiz-adv-x="602" d="M313 1017L440 830Q414 800 402 793L222 926Q239 950 266 978T313 1017ZM447 746T479 753T541 761T589 753Q516 169 516 149T528 114T565 98Q631 98 683 279Q683 281 684 284T685 288Q729 260
742 253Q709 127 660 61T534 -6T430 67H427Q396 28 358 11T263 -6Q169 -6 119 43T68 183Q68 202 71 225L99 459Q0 529 0 624Q0 687 38 724T135 761Q258 761 258 631Q258 610 255 584L204 193Q203 186 203 172Q203 133 221 109T276 85Q365 85 381 223L441 738Q447
746 479 753ZM98 669Q64 669 64 628T110 546L113 572Q119 624 120 637Q120 669 98 669Z" />
<glyph unicode="&#xda;" glyph-name="Uacute" horiz-adv-x="602" d="M274 830L401 1017Q421 1007 448 979T492 926L312 793Q300 800 274 830ZM447 746T479 753T541 761T589 753Q516 169 516 149T528 114T565 98Q631 98 683 279Q683 281 684 284T685 288Q729 260
742 253Q709 127 660 61T534 -6T430 67H427Q396 28 358 11T263 -6Q169 -6 119 43T68 183Q68 202 71 225L99 459Q0 529 0 624Q0 687 38 724T135 761Q258 761 258 631Q258 610 255 584L204 193Q203 186 203 172Q203 133 221 109T276 85Q365 85 381 223L441 738Q447
746 479 753ZM98 669Q64 669 64 628T110 546L113 572Q119 624 120 637Q120 669 98 669Z" />
<glyph unicode="&#xdb;" glyph-name="Ucircumflex" horiz-adv-x="602" d="M343 980L517 859Q496 820 484 801L343 874L202 801Q190 820 169 859L343 980ZM447 746T479 753T541 761T589 753Q516 169 516 149T528 114T565 98Q631 98 683 279Q683 281 684 284T685
288Q729 260 742 253Q709 127 660 61T534 -6T430 67H427Q396 28 358 11T263 -6Q169 -6 119 43T68 183Q68 202 71 225L99 459Q0 529 0 624Q0 687 38 724T135 761Q258 761 258 631Q258 610 255 584L204 193Q203 186 203 172Q203 133 221 109T276 85Q365 85 381 223L441
738Q447 746 479 753ZM98 669Q64 669 64 628T110 546L113 572Q119 624 120 637Q120 669 98 669Z" />
<glyph unicode="&#xdc;" glyph-name="Udieresis" horiz-adv-x="602" d="M149 914T169 935T220 957T271 936T292 884T271 833T220 812T170 833T149 884ZM431 957T461 957T512 936T533 884T513 833T462 812T410 833T388 884T409 935ZM447 746T479 753T541 761T589
753Q516 169 516 149T528 114T565 98Q631 98 683 279Q683 281 684 284T685 288Q729 260 742 253Q709 127 660 61T534 -6T430 67H427Q396 28 358 11T263 -6Q169 -6 119 43T68 183Q68 202 71 225L99 459Q0 529 0 624Q0 687 38 724T135 761Q258 761 258 631Q258 610
255 584L204 193Q203 186 203 172Q203 133 221 109T276 85Q365 85 381 223L441 738Q447 746 479 753ZM98 669Q64 669 64 628T110 546L113 572Q119 624 120 637Q120 669 98 669Z" />
<glyph unicode="&#xdd;" glyph-name="Yacute" horiz-adv-x="644" d="M335 830L462 1017Q482 1007 509 979T553 926L373 793Q361 800 335 830ZM313 643L312 626Q309 579 284 394Q253 172 253 162Q253 132 272 112T322 91T380 112T421 164L477 675Q482 721 514 741T583
762Q607 762 633 752L566 198Q698 259 729 270L744 200Q656 164 557 117L532 -87Q526 -141 506 -179T456 -238Q403 -274 341 -274T237 -229T195 -119T237 -3Q184 6 149 43T114 136Q114 142 116 158L148 404Q25 482 25 596Q25 702 102 742Q138 762 184 762T272 733T313
643ZM147 681Q123 681 108 658T92 603Q92 533 158 488L177 632Q177 673 157 680Q153 681 147 681ZM271 -106Q271 -139 287 -157T327 -175T368 -159T390 -112L408 45Q271 -30 271 -106Z" />
<glyph unicode="&#xde;" glyph-name="Thorn" horiz-adv-x="600" d="M597 377Q597 313 563 266T482 195Q394 151 295 151H274Q359 30 359 -91Q359 -172 317 -223T197 -274Q141 -274 102 -236T62 -136L67 -86L97 151V155Q98 188 104 227Q43 238 1 277T-41 365Q-41
436 8 489T144 566Q162 727 166 753Q187 761 222 761Q302 761 302 715L285 581Q446 578 521 518T597 377ZM277 225Q353 225 404 256T455 360Q455 414 407 449T273 489L237 198Q248 186 264 164L272 225Q274 225 277 225ZM49 366Q49 342 66 325T113 301L133 469Q49
435 49 366ZM200 -112Q199 -118 199 -135T209 -167T237 -182T271 -162T288 -93Q288 -8 223 84L200 -112Z" />
<glyph unicode="&#xdf;" glyph-name="germandbls" horiz-adv-x="576" d="M301 -154Q301 -246 255 -294T152 -343T58 -309T20 -208Q20 -192 112 591Q120 661 168 711T302 761T449 720T510 615Q510 569 483 534T428 480Q356 431 356 402Q356 389 362 384T371 376T380
370Q392 362 402 355T435 333T474 305T512 270Q551 229 551 158T493 40T347 -6Q286 -6 242 26T197 108T230 180T293 204Q304 204 306 202Q297 199 290 184T283 146T299 105T342 87T386 103T407 151Q407 185 389 211T325 281T278 367T300 448T348 531T373 609T359
657Q343 673 324 673T292 667T272 647T257 610Q249 578 244 529T233 431T211 266T190 107L183 49Q301 -41 301 -154ZM153 -205Q153 -252 193 -252Q209 -252 223 -230T238 -168Q238 -88 175 -22L154 -186Q153 -193 153 -205Z" />
<glyph unicode="&#xe0;" glyph-name="agrave" horiz-adv-x="548" d="M306 737L433 550Q407 520 395 513L215 646Q232 670 259 698T306 737ZM478 -5Q386 -5 356 59Q304 -6 223 -6T86 49T30 194Q30 325 107 403T302 481Q305 481 308 481Q358 481 400 464Q427 481
465 481T521 471Q512 397 502 326T488 224Q479 156 479 126Q479 86 511 86Q536 86 564 119T613 225Q642 199 653 167Q624 72 575 34T478 -5ZM317 403Q253 403 216 355T171 210Q170 201 170 193Q170 144 193 115T254 86Q317 86 349 175L373 391Q344 403 317 403Z"
/>
<glyph unicode="&#xe1;" glyph-name="aacute" horiz-adv-x="548" d="M267 550L394 737Q414 727 441 699T485 646L305 513Q293 520 267 550ZM478 -5Q386 -5 356 59Q304 -6 223 -6T86 49T30 194Q30 325 107 403T302 481Q305 481 308 481Q358 481 400 464Q427 481
465 481T521 471Q512 397 502 326T488 224Q479 156 479 126Q479 86 511 86Q536 86 564 119T613 225Q642 199 653 167Q624 72 575 34T478 -5ZM317 403Q253 403 216 355T171 210Q170 201 170 193Q170 144 193 115T254 86Q317 86 349 175L373 391Q344 403 317 403Z"
/>
<glyph unicode="&#xe2;" glyph-name="acircumflex" horiz-adv-x="548" d="M336 700L510 579Q489 540 477 521L336 594L195 521Q183 540 162 579L336 700ZM478 -5Q386 -5 356 59Q304 -6 223 -6T86 49T30 194Q30 325 107 403T302 481Q305 481 308 481Q358 481 400
464Q427 481 465 481T521 471Q512 397 502 326T488 224Q479 156 479 126Q479 86 511 86Q536 86 564 119T613 225Q642 199 653 167Q624 72 575 34T478 -5ZM317 403Q253 403 216 355T171 210Q170 201 170 193Q170 144 193 115T254 86Q317 86 349 175L373 391Q344
403 317 403Z" />
<glyph unicode="&#xe3;" glyph-name="atilde" horiz-adv-x="548" d="M553 607T519 566T437 524T338 561Q283 599 261 599T223 587T191 540L147 566Q160 624 192 661T270 699Q311 699 366 664T444 629Q490 629 518 697L562 672Q553 607 519 566ZM478 -5Q386 -5
356 59Q304 -6 223 -6T86 49T30 194Q30 325 107 403T302 481Q305 481 308 481Q358 481 400 464Q427 481 465 481T521 471Q512 397 502 326T488 224Q479 156 479 126Q479 86 511 86Q536 86 564 119T613 225Q642 199 653 167Q624 72 575 34T478 -5ZM317 403Q253 403
216 355T171 210Q170 201 170 193Q170 144 193 115T254 86Q317 86 349 175L373 391Q344 403 317 403Z" />
<glyph unicode="&#xe4;" glyph-name="adieresis" horiz-adv-x="548" d="M285 574T264 553T213 532T163 553T142 604T162 655T213 677T264 656T285 604ZM526 574T506 553T455 532T403 553T381 604T402 655T454 677T505 656T526 604ZM478 -5Q386 -5 356 59Q304 -6
223 -6T86 49T30 194Q30 325 107 403T302 481Q305 481 308 481Q358 481 400 464Q427 481 465 481T521 471Q512 397 502 326T488 224Q479 156 479 126Q479 86 511 86Q536 86 564 119T613 225Q642 199 653 167Q624 72 575 34T478 -5ZM317 403Q253 403 216 355T171
210Q170 201 170 193Q170 144 193 115T254 86Q317 86 349 175L373 391Q344 403 317 403Z" />
<glyph unicode="&#xe5;" glyph-name="aring" horiz-adv-x="548" d="M377 471L400 464Q427 481 465 481T521 471Q512 397 502 326T488 224Q479 156 479 126Q479 86 511 86Q536 86 564 119T613 225Q642 199 653 167Q624 72 575 34T478 -5Q386 -5 356 59Q304 -6 223
-6T86 49T30 194Q30 310 92 386T256 478Q216 510 216 557T247 634T321 665T395 635T426 560Q426 502 377 471ZM341 609T321 609T287 595T272 560T286 526T321 511T355 525T370 560T356 594ZM317 403Q253 403 216 355T171 210Q170 201 170 193Q170 144 193 115T254
86Q317 86 349 175L373 391Q344 403 317 403Z" />
<glyph unicode="&#xe6;" glyph-name="ae" horiz-adv-x="1014" d="M620 237T650 274T681 345T663 392T622 405Q575 405 540 353T504 228T538 120T624 84Q699 84 768 136T880 272Q902 251 920 220Q887 145 802 73Q761 38 704 16T585 -6Q451 -6 393 102Q338 -6 225
-6Q151 -6 96 49T40 194Q40 325 117 403T312 481Q315 481 318 481Q368 481 410 464Q437 481 475 481T531 471L530 462Q579 481 628 481Q705 481 753 448T802 357Q802 280 741 232T572 165L558 224Q620 237 650 274ZM327 403Q263 403 226 355T181 210Q180 201 180
193Q180 144 203 115T264 86Q327 86 359 175L365 227Q365 242 369 268L383 391Q354 403 327 403Z" />
<glyph unicode="&#xe7;" glyph-name="ccedilla" horiz-adv-x="469" d="M346 339Q346 404 288 404Q245 404 211 355Q175 302 175 231T206 122T293 83Q359 83 432 137T551 271Q571 256 590 216Q565 164 490 92Q451 56 395 29T278 -5L267 -33L273 -32Q310 -32 339
-56T369 -126T335 -201T256 -230Q185 -230 151 -182L169 -144Q178 -158 200 -171T245 -184T281 -168T296 -126T277 -85T229 -70T196 -71L221 -5Q140 5 88 65T36 214Q36 333 116 407T295 481Q372 481 417 449T462 365Q462 331 438 306Q394 262 331 262Q346 312 346
339Z" />
<glyph unicode="&#xe8;" glyph-name="egrave" horiz-adv-x="466" d="M265 737L392 550Q366 520 354 513L174 646Q191 670 218 698T265 737ZM281 237T311 274T342 345T324 392T283 405Q236 405 201 353T165 228T199 120T285 84Q360 84 429 136T541 272Q563 251
581 220Q548 145 464 73Q422 38 365 16T246 -6Q146 -6 88 55Q26 121 26 224T103 404T289 481Q366 481 414 448T463 357Q463 280 402 232T233 165L219 224Q281 237 311 274Z" />
<glyph unicode="&#xe9;" glyph-name="eacute" horiz-adv-x="466" d="M226 550L353 737Q373 727 400 699T444 646L264 513Q252 520 226 550ZM281 237T311 274T342 345T324 392T283 405Q236 405 201 353T165 228T199 120T285 84Q360 84 429 136T541 272Q563 251
581 220Q548 145 464 73Q422 38 365 16T246 -6Q146 -6 88 55Q26 121 26 224T103 404T289 481Q366 481 414 448T463 357Q463 280 402 232T233 165L219 224Q281 237 311 274Z" />
<glyph unicode="&#xea;" glyph-name="ecircumflex" horiz-adv-x="466" d="M295 700L469 579Q448 540 436 521L295 594L154 521Q142 540 121 579L295 700ZM281 237T311 274T342 345T324 392T283 405Q236 405 201 353T165 228T199 120T285 84Q360 84 429 136T541
272Q563 251 581 220Q548 145 464 73Q422 38 365 16T246 -6Q146 -6 88 55Q26 121 26 224T103 404T289 481Q366 481 414 448T463 357Q463 280 402 232T233 165L219 224Q281 237 311 274Z" />
<glyph unicode="&#xeb;" glyph-name="edieresis" horiz-adv-x="466" d="M101 634T121 655T172 677T223 656T244 604T223 553T172 532T122 553T101 604ZM383 677T413 677T464 656T485 604T465 553T414 532T362 553T340 604T361 655ZM281 237T311 274T342 345T324
392T283 405Q236 405 201 353T165 228T199 120T285 84Q360 84 429 136T541 272Q563 251 581 220Q548 145 464 73Q422 38 365 16T246 -6Q146 -6 88 55Q26 121 26 224T103 404T289 481Q366 481 414 448T463 357Q463 280 402 232T233 165L219 224Q281 237 311 274Z"
/>
<glyph unicode="&#xec;" glyph-name="igrave" horiz-adv-x="230" d="M117 737L244 550Q218 520 206 513L26 646Q43 670 70 698T117 737ZM77 461T105 470T160 480T209 473Q170 172 170 169Q165 149 165 136T166 112Q171 86 203 86T263 128T305 225Q312 221 327
201T345 171Q325 91 278 42Q229 -7 162 -7T63 26T30 111Q30 122 31 134L67 443Q77 461 105 470Z" />
<glyph unicode="&#xed;" glyph-name="iacute" horiz-adv-x="230" d="M78 550L205 737Q225 727 252 699T296 646L116 513Q104 520 78 550ZM77 461T105 470T160 480T209 473Q170 172 170 169Q165 149 165 136T166 112Q171 86 203 86T263 128T305 225Q312 221 327
201T345 171Q325 91 278 42Q229 -7 162 -7T63 26T30 111Q30 122 31 134L67 443Q77 461 105 470Z" />
<glyph unicode="&#xee;" glyph-name="icircumflex" horiz-adv-x="230" d="M147 700L321 579Q300 540 288 521L147 594L6 521Q-6 540 -27 579L147 700ZM77 461T105 470T160 480T209 473Q170 172 170 169Q165 149 165 136T166 112Q171 86 203 86T263 128T305 225Q312
221 327 201T345 171Q325 91 278 42Q229 -7 162 -7T63 26T30 111Q30 122 31 134L67 443Q77 461 105 470Z" />
<glyph unicode="&#xef;" glyph-name="idieresis" horiz-adv-x="230" d="M19 667T38 686T85 706T131 687T150 640T131 594T85 574T39 593T19 640ZM204 667T223 686T269 706T316 687T335 640T316 594T270 574T223 593T204 640ZM77 461T105 470T160 480T209 473Q170
172 170 169Q165 149 165 136T166 112Q171 86 203 86T263 128T305 225Q312 221 327 201T345 171Q325 91 278 42Q229 -7 162 -7T63 26T30 111Q30 122 31 134L67 443Q77 461 105 470Z" />
<glyph unicode="&#xf0;" glyph-name="eth" horiz-adv-x="600" d="M648 403H512Q479 150 479 126Q479 86 509 86Q535 86 563 118T614 225Q642 198 653 166Q617 47 540 12Q505 -5 474 -5Q385 -5 355 59Q303 -6 222 -6T86 49T30 194Q30 317 98 394T278 480V481H308Q316
481 320 480H386L415 721Q422 738 446 749T505 761T557 751L522 480H648V403ZM317 403Q253 403 216 355T171 210Q170 201 170 193Q170 144 193 115T254 86Q317 86 349 175L375 390Q342 403 317 403Z" />
<glyph unicode="&#xf1;" glyph-name="ntilde" horiz-adv-x="519" d="M277 699T332 664T410 629Q456 629 484 697L528 672Q519 607 485 566T403 524T304 561Q249 599 227 599T189 587T157 540L113 566Q126 624 158 661T233 699ZM318 112L342 335Q342 362 328 380T282
398T227 370T198 298Q162 24 160 0H25L80 471Q122 482 144 482Q211 482 214 433Q263 481 331 481T439 447T478 361Q478 347 472 308Q449 156 449 131Q449 85 480 85Q548 85 583 227Q617 191 624 170Q571 -6 440 -6Q378 -6 348 32T318 112Z" />
<glyph unicode="&#xf2;" glyph-name="ograve" horiz-adv-x="520" d="M253 737L380 550Q354 520 342 513L162 646Q179 670 206 698T253 737ZM295 481Q387 481 448 422T510 278Q510 149 435 72T252 -6T83 55T20 206Q20 332 97 406Q175 481 295 481ZM228 400T196
346T161 210Q161 152 184 114T256 76T336 129T369 250T346 358Q323 400 276 400Z" />
<glyph unicode="&#xf3;" glyph-name="oacute" horiz-adv-x="520" d="M214 550L341 737Q361 727 388 699T432 646L252 513Q240 520 214 550ZM295 481Q387 481 448 422T510 278Q510 149 435 72T252 -6T83 55T20 206Q20 332 97 406Q175 481 295 481ZM228 400T196
346T161 210Q161 152 184 114T256 76T336 129T369 250T346 358Q323 400 276 400Z" />
<glyph unicode="&#xf4;" glyph-name="ocircumflex" horiz-adv-x="520" d="M283 700L457 579Q436 540 424 521L283 594L142 521Q130 540 109 579L283 700ZM295 481Q387 481 448 422T510 278Q510 149 435 72T252 -6T83 55T20 206Q20 332 97 406Q175 481 295 481ZM228
400T196 346T161 210Q161 152 184 114T256 76T336 129T369 250T346 358Q323 400 276 400Z" />
<glyph unicode="&#xf5;" glyph-name="otilde" horiz-adv-x="520" d="M258 699T313 664T391 629Q437 629 465 697L509 672Q500 607 466 566T384 524T284 561Q230 599 208 599T170 587T138 540L94 566Q107 624 139 661T214 699ZM295 481Q387 481 448 422T510 278Q510
149 435 72T252 -6T83 55T20 206Q20 332 97 406Q175 481 295 481ZM228 400T196 346T161 210Q161 152 184 114T256 76T336 129T369 250T346 358Q323 400 276 400Z" />
<glyph unicode="&#xf6;" glyph-name="odieresis" horiz-adv-x="520" d="M89 634T109 655T160 677T211 656T232 604T211 553T160 532T110 553T89 604ZM371 677T401 677T452 656T473 604T453 553T402 532T350 553T328 604T349 655ZM295 481Q387 481 448 422T510
278Q510 149 435 72T252 -6T83 55T20 206Q20 332 97 406Q175 481 295 481ZM228 400T196 346T161 210Q161 152 184 114T256 76T336 129T369 250T346 358Q323 400 276 400Z" />
<glyph unicode="&#xf7;" glyph-name="divide" horiz-adv-x="458" d="M238 625T272 625T330 601T354 543T330 486T272 462T215 485T191 543T214 601ZM22 417H494L485 331H13L22 417ZM197 275T231 275T289 251T313 193T289 136T231 112T174 135T150 193T173 251Z" />
<glyph unicode="&#xf8;" glyph-name="oslash" horiz-adv-x="520" d="M510 278Q510 149 435 72T246 -6H232L186 -160H103L154 10Q91 34 56 86T20 206Q20 332 97 406T292 481H295L361 701H444L374 468Q436 446 473 394T510 278ZM185 113L271 399Q222 394 193 341T161
210Q161 150 185 113ZM307 79T338 131T369 255T343 364L257 76Q307 79 338 131Z" />
<glyph unicode="&#xf9;" glyph-name="ugrave" horiz-adv-x="507" d="M264 742L391 555Q365 525 353 518L173 651Q190 676 217 704T264 742ZM479 471Q438 147 438 126Q438 86 467 86Q493 86 523 121T572 228Q605 192 612 172Q589 75 539 35T436 -5Q349 -5 319 62Q267
-5 180 -5Q108 -5 69 31T30 125Q30 139 35 174Q58 360 70 470Q101 481 127 481T166 479T191 464T203 427L170 172Q168 160 168 150Q168 91 222 91Q272 91 305 140Q305 151 307 175L340 441Q347 458 370 469T427 481T479 471Z" />
<glyph unicode="&#xfa;" glyph-name="uacute" horiz-adv-x="507" d="M225 555L352 742Q372 732 399 704T443 651L263 518Q251 525 225 555ZM479 471Q438 147 438 126Q438 86 467 86Q493 86 523 121T572 228Q605 192 612 172Q589 75 539 35T436 -5Q349 -5 319 62Q267
-5 180 -5Q108 -5 69 31T30 125Q30 139 35 174Q58 360 70 470Q101 481 127 481T166 479T191 464T203 427L170 172Q168 160 168 150Q168 91 222 91Q272 91 305 140Q305 151 307 175L340 441Q347 458 370 469T427 481T479 471Z" />
<glyph unicode="&#xfb;" glyph-name="ucircumflex" horiz-adv-x="507" d="M294 705L468 584Q447 545 435 526L294 599L153 526Q141 545 120 584L294 705ZM479 471Q438 147 438 126Q438 86 467 86Q493 86 523 121T572 228Q605 192 612 172Q589 75 539 35T436 -5Q349
-5 319 62Q267 -5 180 -5Q108 -5 69 31T30 125Q30 139 35 174Q58 360 70 470Q101 481 127 481T166 479T191 464T203 427L170 172Q168 160 168 150Q168 91 222 91Q272 91 305 140Q305 151 307 175L340 441Q347 458 370 469T427 481T479 471Z" />
<glyph unicode="&#xfc;" glyph-name="udieresis" horiz-adv-x="507" d="M100 639T120 660T171 682T222 661T243 609T222 558T171 537T121 558T100 609ZM382 682T412 682T463 661T484 609T464 558T413 537T361 558T339 609T360 660ZM479 471Q438 147 438 126Q438
86 467 86Q493 86 523 121T572 228Q605 192 612 172Q589 75 539 35T436 -5Q349 -5 319 62Q267 -5 180 -5Q108 -5 69 31T30 125Q30 139 35 174Q58 360 70 470Q101 481 127 481T166 479T191 464T203 427L170 172Q168 160 168 150Q168 91 222 91Q272 91 305 140Q305
151 307 175L340 441Q347 458 370 469T427 481T479 471Z" />
<glyph unicode="&#xfd;" glyph-name="yacute" horiz-adv-x="486" d="M206 550L333 737Q353 727 380 699T424 646L244 513Q232 520 206 550ZM205 -297Q148 -297 107 -263T66 -162Q66 -81 148 -4Q90 1 55 34T20 127Q20 155 27 211T42 332T59 470Q90 481 116 481T155
479T180 464T192 427L159 172Q157 156 157 150Q157 91 211 91Q260 91 291 137Q294 160 306 269T326 440Q335 459 363 470T410 481Q442 481 468 473L421 104Q538 83 561 -57Q557 -76 523 -117Q503 8 413 35L397 -90Q386 -180 340 -238T205 -297ZM144 -176T160 -192T202
-208T243 -186T265 -98L278 12Q147 -56 144 -143Q144 -176 160 -192Z" />
<glyph unicode="&#xfe;" glyph-name="thorn" horiz-adv-x="600" d="M398 482T450 423T502 285Q502 274 501 262Q490 131 413 63T212 -6Q177 -4 150 3L118 -274H-13L37 155Q40 198 49 266L74 474Q79 518 87 590Q104 740 106 753Q127 761 162 761Q242 761 242 715L208
449Q255 482 326 482ZM171 114T188 99T237 83Q288 83 321 130Q361 187 361 278Q361 322 341 356T279 390Q221 390 192 323L187 289L184 262Q171 161 171 138Z" />
<glyph unicode="&#xff;" glyph-name="ydieresis" horiz-adv-x="486" d="M81 634T101 655T152 677T203 656T224 604T203 553T152 532T102 553T81 604ZM363 677T393 677T444 656T465 604T445 553T394 532T342 553T320 604T341 655ZM205 -297Q148 -297 107 -263T66
-162Q66 -81 148 -4Q90 1 55 34T20 127Q20 155 27 211T42 332T59 470Q90 481 116 481T155 479T180 464T192 427L159 172Q157 156 157 150Q157 91 211 91Q260 91 291 137Q294 160 306 269T326 440Q335 459 363 470T410 481Q442 481 468 473L421 104Q538 83 561 -57Q557
-76 523 -117Q503 8 413 35L397 -90Q386 -180 340 -238T205 -297ZM144 -176T160 -192T202 -208T243 -186T265 -98L278 12Q147 -56 144 -143Q144 -176 160 -192Z" />
<glyph unicode="&#x2013;" glyph-name="endash" horiz-adv-x="600" d="M100 399H510L499 313H90L100 399Z" />
<glyph unicode="&#x2014;" glyph-name="emdash" horiz-adv-x="600" d="M-80 399H700L689 313H-90L-80 399Z" />
<glyph unicode="&#x2018;" glyph-name="quoteleft" horiz-adv-x="244" d="M160 790Q162 791 168 791T192 785T214 775Q167 721 132 671Q160 666 179 644T198 590T175 534T116 510T56 532T30 597T74 698T160 790Z" />
<glyph unicode="&#x2019;" glyph-name="quoteright" horiz-adv-x="249" d="M46 743T69 767T128 791T188 769T214 704T170 603T84 511Q82 510 76 510T52 516T30 526Q77 580 112 630Q84 635 65 657T46 711Z" />
<glyph unicode="&#x201a;" glyph-name="quotesinglbase" horiz-adv-x="179" d="M18 106T41 130T100 154T160 132T186 67T142 -34T56 -126Q54 -127 48 -127T24 -121T2 -111Q49 -57 84 -7Q56 -2 37 20T18 74Z" />
<glyph unicode="&#x201c;" glyph-name="quotedblleft" horiz-adv-x="432" d="M161 808Q163 809 169 809T193 803T216 793Q178 750 134 690Q162 683 181 661T200 608T177 552T122 528Q120 528 119 528Q81 528 56 550T30 616T75 717T161 808ZM349 808Q351 809 356
809T381 803T402 793Q352 735 322 690Q350 683 368 662T387 608T364 552T309 528Q307 528 306 528Q269 528 244 550T218 608T246 690Q289 758 349 808Z" />
<glyph unicode="&#x201d;" glyph-name="quotedblright" horiz-adv-x="432" d="M46 743T69 767T128 791T188 769T214 704T170 603T84 511Q82 510 76 510T52 516T30 526Q77 580 112 630Q84 635 65 657T46 711ZM234 743T257 767T316 791T376 769T402 704T358 603T272
511Q270 510 264 510T240 516T218 526Q265 580 300 630Q272 635 253 657T234 711Z" />
<glyph unicode="&#x201e;" glyph-name="quotedblbase" horiz-adv-x="432" d="M46 113T69 137T128 161T188 139T214 74T170 -27T84 -119Q82 -120 76 -120T52 -114T30 -104Q77 -50 112 0Q84 5 65 27T46 81ZM234 113T257 137T316 161T376 139T402 74T358 -27T272
-119Q270 -120 264 -120T240 -114T218 -104Q265 -50 300 0Q272 5 253 27T234 81Z" />
<glyph unicode="&#x2022;" glyph-name="bullet" horiz-adv-x="600" d="M242 481T285 481T359 451T390 376T359 302T285 271T211 301T180 376T211 450Z" />
<glyph unicode="&#x2039;" glyph-name="guilsinglleft" horiz-adv-x="310" d="M193 0L20 239L227 484H293L153 239L260 0H193Z" />
<glyph unicode="&#x203a;" glyph-name="guilsinglright" horiz-adv-x="310" d="M20 0L151 239L35 484H101L284 239L87 0H20Z" />
</font>
</defs>
</svg>
