<?xml version="1.0" standalone="no"?>
<!DOCTYPE svg PUBLIC "-//W3C//DTD SVG 1.1//EN" "http://www.w3.org/Graphics/SVG/1.1/DTD/svg11.dtd">
<svg xmlns="http://www.w3.org/2000/svg">
<defs >
<font id="LindenHill" horiz-adv-x="2086" ><font-face
    font-family="Linden Hill"
    units-per-em="4096"
    panose-1="2 0 5 3 0 0 0 0 0 0"
    ascent="3633"
    descent="-1888"
    alphabetic="0" />
<glyph unicode=" " glyph-name="space" horiz-adv-x="757" />
<glyph unicode="!" glyph-name="exclam" horiz-adv-x="1249" d="M584 -41T518 25T451 135T522 245T635 311T737 243T799 133T733 25T625 -41ZM455 2540Q455 2637 671 2670Q708 2675 725 2675Q778 2675 778 2630Q774 2375 724 1827T671 1136T666 933T665 839T663
764T657 702T645 660Q631 623 605 623T566 635T547 668Q510 781 483 1543T455 2540Z" />
<glyph unicode="&quot;" glyph-name="quotedbl" horiz-adv-x="1359" d="M98 1958T98 1999T169 2400T265 2851T335 2974T444 3006T546 2963T586 2876T546 2738T430 2495T327 2283T275 2163T237 2074T208 2014Q177 1958 138 1958ZM528 1962Q483 1962 483 2011Q483
2089 558 2253T671 2525T733 2708T790 2856Q856 3002 967 3002Q1036 3002 1067 2971T1098 2907T1087 2838T1052 2753T1005 2663T944 2560T881 2461T814 2359T746 2256T686 2160T633 2071T596 2012Q562 1962 528 1962Z" />
<glyph unicode="#" glyph-name="numbersign" horiz-adv-x="1748" d="M98 1053V1192H500L586 1499H102V1638H627L950 2814H1118L791 1638H1130L1458 2814H1622L1294 1638H1651V1499H1257L1171 1192H1647V1053H1130L778 -201H614L967 1053H627L283 -201H115L463
1053H98ZM668 1192H1004L1090 1499H754L668 1192Z" />
<glyph unicode="$" glyph-name="dollar" horiz-adv-x="2170" d="M1782 2142L1794 2040V2007Q1794 1970 1765 1970Q1728 1970 1702 2000T1656 2056T1611 2116T1520 2197T1394 2266Q1262 2316 1159 2322V1397Q1215 1368 1317 1319T1467 1245T1593 1176T1709 1101T1797
1020T1871 922Q1929 799 1929 685T1903 483T1831 331T1728 212T1606 121T1478 57T1356 14Q1227 -21 1155 -29V-684H1028V-33Q770 -33 594 5T353 71T274 125T250 220T237 313T225 391T211 475T205 516Q205 578 250 578Q289 578 303 547T325 489T348 431T382 366T439
297T525 230Q635 158 790 124T1028 90V1126Q1010 1135 954 1162T866 1204T774 1252T676 1309T584 1370T495 1441T421 1518T360 1606Q307 1706 307 1802T332 1978T399 2117T495 2224T609 2305T730 2362T844 2401Q941 2426 1032 2437V2765H1159V2437Q1472 2402 1518
2390Q1572 2376 1585 2376L1708 2404Q1734 2404 1743 2380T1759 2299T1769 2229T1774 2190T1782 2142ZM622 2062Q598 1999 598 1933T622 1808T684 1704T768 1615T862 1542Q953 1482 1032 1442V2322Q711 2286 622 2062ZM1155 94Q1401 110 1568 332Q1651 442 1651
539T1624 700T1553 814T1456 908T1350 983Q1245 1044 1155 1081V94Z" />
<glyph unicode="%" glyph-name="percent" horiz-adv-x="3198" d="M250 -164Q180 -164 180 -140T217 -74L2679 2552Q2301 2363 1802 2363Q1720 2363 1507 2388Q1585 2264 1585 2093T1513 1766T1324 1498T1054 1320T764 1253T533 1292T382 1398Q266 1534 266 1704T322
2007T469 2239T674 2412Q904 2564 1130 2564Q1225 2564 1314 2542Q1482 2499 1743 2499T2221 2535T2579 2613T2836 2692T2986 2728T3019 2707Q3019 2675 2945 2593L377 -164H250ZM543 1925T493 1818T442 1625T494 1480T652 1421T870 1477T1072 1622T1236 1818Q1389
2039 1389 2220Q1389 2299 1332 2349T1192 2400T1006 2348T806 2211T626 2025ZM1595 255Q1565 341 1565 461T1621 714T1768 946T1972 1120Q2202 1270 2429 1270Q2625 1270 2750 1158Q2884 1037 2884 791Q2884 624 2813 468T2624 200Q2367 -45 2048 -45Q1700 -45
1595 255ZM1814 578T1778 491T1741 324T1795 184T1955 123T2173 179T2375 326T2538 522Q2691 747 2691 926Q2691 1005 2632 1055T2496 1106T2336 1069T2171 970T2011 828T1873 663Z" />
<glyph unicode="&amp;" glyph-name="ampersand" horiz-adv-x="3481" d="M3342 299Q3383 299 3383 254Q3383 128 3242 34T2896 -61Q2776 -61 2648 8Q2445 119 2346 188L2306 217Q2180 65 1884 -23Q1558 -121 1172 -62Q586 27 320 427Q180 638 180 922Q180 1269
444 1470Q561 1559 721 1606Q639 1672 567 1793Q438 2008 438 2140T485 2380T620 2572Q812 2757 1139 2757Q1296 2757 1437 2695T1663 2528T1749 2330T1726 2172T1660 2050Q1565 1925 1401 1925Q1326 1925 1249 1954T1171 2023Q1171 2045 1238 2068T1346 2112Q1442
2161 1442 2289T1339 2509T1100 2601T862 2514T758 2298Q758 2141 871 1990Q995 1825 1155 1673T1371 1469T1541 1311T1761 1109T1954 942T2084 835T2201 745T2281 684L2392 598Q2638 952 2638 1356Q2638 1757 2508 1794Q2420 1819 2077 1819L2068 1978H3162L3166
1819Q3118 1818 3000 1818T2834 1810T2785 1769Q2785 1758 2793 1737T2812 1684Q2839 1602 2839 1415T2809 1097T2735 864Q2646 652 2574 543L2544 496Q2560 485 2627 439T2716 379T2795 333T2887 288Q3087 223 3288 288Q3323 299 3342 299ZM721 1464T641 1344T561
1072T607 803T733 593T918 426T1142 300Q1390 197 1626 197Q1956 197 2136 320Q2149 328 2150 328L1798 586Q1630 715 1359 966T827 1491Q721 1464 641 1344Z" />
<glyph unicode="&apos;" glyph-name="quotesingle" horiz-adv-x="917" d="M147 1946Q98 1946 98 1999T158 2220T241 2469T279 2610T312 2736T350 2847T394 2930Q446 3006 520 3006T624 2960T655 2863T609 2714T473 2465T358 2265T308 2171T270 2096T241 2040T217
1996T196 1968Q176 1946 147 1946Z" />
<glyph unicode="(" glyph-name="parenleft" horiz-adv-x="1282" d="M180 982Q180 1205 233 1452T372 1882T560 2222T767 2486Q983 2706 1094 2776L1147 2810L1212 2732Q877 2464 652 1943Q455 1487 455 954Q455 422 640 -52Q722 -260 827 -416T986 -633Q1096 -759
1171 -819L1098 -905Q934 -782 716 -506Q180 172 180 982Z" />
<glyph unicode=")" glyph-name="parenright" horiz-adv-x="1282" d="M70 2732L135 2810Q318 2703 538 2460Q957 1995 1068 1346Q1102 1148 1102 929T1052 484T920 81T741 -257T545 -534Q337 -778 234 -863L184 -905L115 -819Q337 -647 531 -292Q827 249 827 954Q827
1473 631 1942Q542 2156 433 2314T266 2536Q152 2663 70 2732Z" />
<glyph unicode="*" glyph-name="asterisk" horiz-adv-x="1863" d="M1100 1652T1059 1690T1001 1729T983 1679T1038 1449T1094 1208T1044 1098T927 1049T805 1097T750 1201T809 1473T868 1712T857 1737T802 1699T702 1607T581 1498Q429 1368 344 1368T220 1418T180
1524T244 1629T398 1709T580 1764Q799 1820 799 1847T736 1894T582 1930T402 1970Q184 2028 184 2171Q184 2284 305 2326Q329 2335 360 2335T473 2279T628 2154Q821 1974 868 1974Q885 1974 885 2021T822 2270T758 2530T812 2644T918 2699T1001 2688T1058 2653Q1118
2601 1118 2474Q1118 2429 1059 2231T999 1995T1021 1958T1088 1995T1186 2085T1296 2191Q1433 2318 1513 2318T1638 2281T1683 2186T1650 2084T1562 2010T1443 1961T1313 1926T1194 1901Q1073 1876 1073 1851T1115 1807T1222 1774T1360 1736T1498 1686T1604 1612T1647
1503T1613 1399T1522 1356T1398 1394T1271 1487T1155 1597Z" />
<glyph unicode="+" glyph-name="plus" horiz-adv-x="3125" d="M328 844V1081Q1234 1081 1405 1069L1462 1065Q1442 1121 1442 2200H1683Q1683 1161 1663 1065Q1788 1081 2798 1081V844Q1899 844 1722 856L1663 860Q1683 736 1683 -274H1442Q1442 625 1457 802L1462
860Q1346 844 328 844Z" />
<glyph unicode="," glyph-name="comma" horiz-adv-x="917" d="M143 -541Q143 -510 196 -480T286 -419T356 -354Q430 -270 430 -131Q430 -39 398 -7T342 42T300 68Q254 91 254 122T294 200T380 281T438 315T471 311T528 287T595 236Q672 155 672 12T617 -265T490
-468T333 -568T196 -598T143 -541Z" />
<glyph unicode="-" glyph-name="hyphen" horiz-adv-x="1290" d="M139 987V1233L1151 1532V1282L139 987Z" />
<glyph unicode="." glyph-name="period" horiz-adv-x="917" d="M399 -41T327 37T254 163T334 281T460 352T575 271T643 144T565 28T443 -41Z" />
<glyph unicode="/" glyph-name="slash" horiz-adv-x="1810" d="M70 -946L1466 2892H1659L262 -946H70Z" />
<glyph unicode="0" glyph-name="zero" horiz-adv-x="2162" d="M361 293T291 449T221 763T259 1051T372 1292T550 1489Q772 1671 1094 1671Q1447 1671 1692 1446Q1942 1217 1942 852Q1942 490 1704 230Q1593 108 1431 36T1089 -37T753 22T479 187ZM422 830Q422
693 472 570T610 352Q804 143 1098 143Q1350 143 1544 326Q1745 516 1745 807Q1745 1069 1560 1274Q1369 1487 1073 1487Q815 1487 622 1303Q422 1113 422 830Z" />
<glyph unicode="1" glyph-name="one" horiz-adv-x="1384" d="M152 0V131H307Q470 131 496 144T530 174Q541 196 541 258V1323Q541 1399 519 1416Q475 1450 401 1450H160V1577H586Q707 1577 730 1624Q739 1642 745 1664T754 1696H844Q827 1269 827 881V254Q827
174 863 153T1012 131H1233V0H152Z" />
<glyph unicode="2" glyph-name="two" horiz-adv-x="1978" d="M401 1262Q360 1262 360 1307T386 1404T468 1503T598 1588Q763 1671 945 1671T1230 1637T1399 1551T1512 1436Q1597 1319 1597 1212Q1597 846 1163 532Q1002 414 827 303T651 182T771 172T1067 193T1360
245T1567 307T1715 359T1794 381Q1827 381 1827 344Q1827 320 1791 181T1741 29T1722 12Q1704 0 1552 0H209Q152 0 152 33Q152 54 309 157T583 340T817 514T1032 706Q1249 925 1249 1094T1132 1371T840 1479Q649 1479 554 1402Q514 1370 487 1339T440 1285T401
1262Z" />
<glyph unicode="3" glyph-name="three" horiz-adv-x="1765" d="M78 -990Q25 -954 25 -901T82 -848Q97 -848 153 -863Q325 -909 470 -909T719 -883T921 -803T1095 -672Q1262 -507 1262 -254Q1262 -81 1216 3T1129 129T1050 197T966 242Q870 283 800 288T709 294T666
300Q627 309 627 343T649 394T711 425T795 456Q992 533 1064 766Q1102 887 1102 954T1089 1078T1045 1195T970 1304Q870 1413 740 1413T529 1394T401 1348T318 1294Q234 1229 201 1229Q152 1229 152 1290Q152 1355 268 1468Q468 1663 819 1663Q1171 1663 1326 1401Q1401
1273 1401 1139T1378 916T1319 763T1238 645T1150 556Q1065 488 987 451Q1269 416 1451 223Q1614 50 1614 -225Q1614 -578 1334 -812Q1016 -1077 537 -1077Q204 -1077 78 -990Z" />
<glyph unicode="4" glyph-name="four" horiz-adv-x="2457" d="M209 0Q152 0 152 29Q152 42 487 377L1737 1618Q1782 1663 1794 1663Q1827 1663 1827 1565V254H2306L2220 0H1827V-958L1536 -1081V0H209ZM578 254H1536V1208L578 254Z" />
<glyph unicode="5" glyph-name="five" horiz-adv-x="1900" d="M520 791L811 815Q1513 815 1674 264Q1720 109 1720 -26T1707 -240T1661 -416T1576 -601T1442 -775T1254 -922Q1024 -1061 680 -1061Q323 -1061 149 -936Q70 -878 70 -835T111 -791Q140 -791 165 -808T201
-831Q310 -905 668 -905Q814 -905 948 -839T1178 -665Q1384 -431 1384 -139Q1384 466 798 612Q642 651 475 651L299 639Q299 1092 249 1518Q246 1543 246 1544Q246 1593 307 1593L909 1577Q1123 1577 1339 1610Q1397 1618 1409 1769L1507 1757L1458 1409Q1449 1344
1430 1317T1344 1290T927 1339T565 1389Q489 1389 454 1283T418 1029T422 858T431 820T451 799Q471 791 520 791Z" />
<glyph unicode="6" glyph-name="six" horiz-adv-x="2088" d="M337 471T279 689T221 1136T266 1563T392 1927T586 2233T831 2472Q1110 2679 1421 2679Q1553 2679 1665 2631T1778 2544Q1778 2521 1760 2508T1727 2494T1644 2508T1516 2523Q1310 2523 1146 2428T879
2218T720 1988T624 1747T570 1526T545 1355T528 1266Q690 1549 994 1620Q1069 1638 1164 1638T1362 1611T1537 1538T1668 1429T1762 1299T1822 1156Q1864 1020 1864 844T1804 489T1640 194Q1423 -45 1102 -45Q892 -45 724 49T446 307ZM667 1299T612 1194T557 940T612
629T753 353T949 171T1163 102Q1329 102 1436 261T1544 732T1390 1237T995 1430Q870 1430 769 1365Z" />
<glyph unicode="7" glyph-name="seven" horiz-adv-x="1818" d="M156 1196Q111 1196 111 1290T132 1483T159 1587T180 1594Q201 1597 233 1597H1516Q1562 1597 1573 1590T1585 1548Q1585 1304 1464 736T1192 -350T958 -1020Q930 -1065 910 -1065T795 -1044T672
-1012Q623 -1000 623 -971T646 -897T717 -769T828 -566Q984 -261 1127 168T1336 906T1401 1311Q1401 1368 1298 1368T946 1345T558 1299T332 1252T206 1212T156 1196Z" />
<glyph unicode="8" glyph-name="eight" horiz-adv-x="2097" d="M353 226T287 355T221 616T262 848T361 1020T497 1156T633 1258T750 1325T811 1360Q596 1486 462 1667T328 2045T425 2390Q625 2695 1081 2695Q1255 2695 1415 2618T1674 2406T1774 2148T1746 1936T1673
1782T1574 1657T1466 1558Q1360 1481 1266 1434Q1274 1429 1319 1405T1403 1359T1501 1297T1608 1218T1708 1122T1795 1007Q1876 873 1876 723T1815 433T1646 188Q1413 -41 1049 -41Q704 -41 466 140Q353 226 287 355ZM519 893T493 815T467 649T504 472T603 320T745
209Q905 115 1067 115T1352 183T1544 370T1614 591T1597 753T1545 861T1463 955T1350 1045Q1263 1105 1114 1191T922 1303Q773 1214 684 1114T557 954ZM613 2298T602 2243T590 2121T619 1981T694 1849T796 1735T908 1640Q1034 1548 1114 1507Q1332 1604 1456 1788Q1540
1911 1540 2046T1465 2293T1272 2470T1040 2535T848 2511T722 2447T644 2353Z" />
<glyph unicode="9" glyph-name="nine" horiz-adv-x="2109" d="M418 -897L606 -918Q1029 -918 1310 -496Q1457 -274 1518 25Q1544 156 1544 274Q1540 268 1533 257T1500 215T1444 155T1363 91T1257 30Q1129 -29 983 -29T727 3T543 89T409 217T316 369T259 534Q221
684 221 850T281 1168T444 1422Q664 1638 991 1638Q1402 1638 1642 1344Q1888 1045 1888 487Q1888 -5 1658 -406Q1419 -819 1055 -978Q863 -1061 655 -1061Q392 -1061 322 -988Q311 -976 311 -967Q311 -897 418 -897ZM585 1253T555 1154T524 975T530 840T554 713T599
571T674 432T782 312Q919 197 1126 197Q1364 197 1477 387Q1544 499 1544 677T1464 1054T1245 1380T946 1507Q845 1507 762 1443T632 1316Z" />
<glyph unicode=":" glyph-name="colon" horiz-adv-x="1081" d="M481 -37T413 39T344 159T422 275T548 348T666 269T737 143T656 30T528 -37ZM502 1241T423 1314T344 1437T420 1558T542 1630T662 1558T737 1442T665 1319T548 1241Z" />
<glyph unicode=";" glyph-name="semicolon" horiz-adv-x="1081" d="M295 -598Q233 -598 233 -532Q233 -499 284 -471T372 -414T440 -350Q512 -270 512 -131Q512 -39 480 -7T424 42T382 68Q336 91 336 121T372 199T449 283T505 319T543 311T605 279T674 220Q754
136 754 3T699 -265T572 -468T421 -568T295 -598ZM502 1241T423 1314T344 1437T420 1558T542 1630T662 1558T737 1442T665 1319T548 1241Z" />
<glyph unicode="&lt;" glyph-name="less" horiz-adv-x="3117" d="M242 954V1044L2875 2306V2032L668 999L2875 -33V-307L242 954Z" />
<glyph unicode="=" glyph-name="equal" horiz-adv-x="3211" d="M369 500V741H2843V500H369ZM369 1184V1425H2843V1184H369Z" />
<glyph unicode="&gt;" glyph-name="greater" horiz-adv-x="3117" d="M242 -33L2449 999L242 2032V2306L2875 1044V954L242 -307V-33Z" />
<glyph unicode="?" glyph-name="question" horiz-adv-x="1626" d="M381 2425Q328 2425 328 2474Q328 2530 410 2600Q563 2732 692 2732Q781 2732 902 2649T1100 2490T1240 2330Q1380 2139 1380 1942Q1380 1755 1266 1622Q1145 1480 1037 1388T869 1241T769 1140Q680
1040 680 959T700 827T748 742T804 682Q872 616 872 590Q872 532 811 532Q736 532 661 599T542 726Q442 863 442 1053Q442 1234 586 1390Q668 1480 812 1600T1020 1786Q1163 1933 1163 2093Q1163 2166 1089 2244T890 2375T635 2429L381 2425ZM730 -37T656 40T582
164T660 279T785 348T904 276T975 160T901 40T778 -37Z" />
<glyph unicode="@" glyph-name="at" horiz-adv-x="3096" d="M2138 1921Q2138 1966 2179 1966Q2244 1966 2343 1898T2496 1779T2601 1665T2699 1520T2780 1342Q2855 1136 2855 916T2817 535T2710 249T2545 20T2335 -157T2089 -280Q1835 -377 1597 -377T1198 -343T909
-246T675 -98T493 91T364 312Q262 542 262 749T297 1101T398 1378T567 1622T801 1816Q1078 1991 1462 1991Q1628 1991 1760 1910T1964 1693T2036 1393V807Q2036 618 2103 542Q2168 469 2253 446T2339 401T2284 346Q2070 214 2056 209Q1961 277 1920 326T1839 427T1782
500Q1699 389 1567 314T1335 238T1171 255T1049 308Q922 386 922 527T986 784T1159 984Q1399 1171 1745 1171V1495Q1745 1636 1630 1752Q1538 1843 1382 1843T1091 1787T856 1633T685 1406Q541 1150 541 831Q541 499 704 239Q986 -213 1610 -213Q2235 -213 2534
254Q2695 503 2695 877Q2695 1120 2644 1255T2551 1467T2463 1599T2370 1702T2283 1784T2208 1845Q2138 1901 2138 1921ZM1212 656Q1212 575 1270 515T1425 455T1576 470T1661 509T1712 565Q1745 618 1745 684V1061Q1498 1061 1350 932Q1212 810 1212 656Z" />
<glyph unicode="A" glyph-name="A" horiz-adv-x="2973" d="M111 160H160Q270 160 307 198T392 344T517 623T711 1054T880 1430T970 1627T1022 1743T1053 1815L1470 2830H1556Q1804 2183 2183 1266T2602 273T2684 179T2802 160H2863L2859 0H1925L1929 160H2052Q2154
160 2193 168T2232 209Q2232 232 2214 278T2191 336L1888 1081H938L614 360Q573 260 573 221T604 171T741 160H909V0H115L111 160ZM1016 1262H1819L1430 2232L1016 1262Z" />
<glyph unicode="B" glyph-name="B" horiz-adv-x="2285" d="M111 2568L119 2732H1024Q1731 2732 1927 2329Q1987 2205 1987 2080T1941 1859T1819 1690Q1666 1543 1462 1483Q1839 1398 1998 1084Q2085 909 2085 739Q2085 408 1901 242Q1656 21 1001 3Q890 0 725
0H143V160H266Q371 160 404 181T438 279V2421Q438 2537 362 2556Q317 2568 225 2568H111ZM762 1409L770 311Q770 227 822 204T1015 180T1254 199T1420 250T1538 328T1618 422T1666 527Q1696 622 1696 737T1662 950T1572 1117T1438 1239T1277 1323T1099 1375Q938
1409 762 1409ZM896 2552Q770 2552 770 2458V1528H1171Q1373 1528 1494 1693Q1606 1845 1606 2011Q1606 2296 1317 2460Q1154 2552 896 2552Z" />
<glyph unicode="C" glyph-name="C" horiz-adv-x="3018" d="M2588 2740L2589 2765H2744Q2756 2366 2793 1982L2646 1978Q2627 2137 2626 2166T2618 2228T2611 2273T2598 2303T2580 2327T2552 2346T2515 2366Q2481 2377 2390 2424T2107 2509T1714 2548T1333 2489T1014
2324T775 2074Q569 1784 569 1405Q569 1082 729 782Q885 489 1166 304Q1455 115 1810 115Q2152 115 2482 335Q2664 456 2666 537L2679 881H2822L2798 283Q2435 29 1958 -46Q1831 -66 1708 -66Q1001 -66 609 300Q221 662 221 1286Q221 1870 598 2270Q808 2493 1124
2623Q1407 2740 1658 2740T2074 2720T2316 2677T2450 2633T2527 2613T2559 2616T2578 2636Q2588 2659 2588 2740Z" />
<glyph unicode="D" glyph-name="D" horiz-adv-x="3047" d="M111 2732H1217Q1819 2732 2070 2652Q2409 2544 2616 2268Q2867 1932 2867 1470Q2867 848 2454 428Q2032 0 1241 0H184L180 160H291Q441 160 463 178T494 221Q504 251 504 340V2421Q504 2528 485 2541T438
2560Q406 2568 295 2568H123L111 2732ZM836 348Q836 242 849 222T882 190T924 174T986 166Q1036 160 1220 160T1588 197T1905 298T2143 453T2313 646T2422 869Q2499 1084 2499 1276T2475 1591T2399 1833T2271 2057T2085 2251T1839 2404Q1552 2540 1155 2540H1004Q933
2540 900 2528Q836 2503 836 2347V348Z" />
<glyph unicode="E" glyph-name="E" horiz-adv-x="2523" d="M979 188Q1798 196 1954 209T2133 244T2166 298T2232 655L2372 635L2269 0H193V160H299Q452 160 474 175T506 212Q516 238 516 315V2392Q516 2514 472 2544Q434 2568 229 2568H115L111 2732H2220Q2226
2379 2241 2089L2081 2081Q2066 2485 2020 2534Q2006 2549 1974 2552T1782 2556H1085Q916 2556 893 2538T860 2494Q848 2464 848 2363V1794Q848 1674 860 1661T890 1640Q912 1630 983 1630H1602Q1710 1630 1726 1651T1748 1699Q1757 1733 1757 1835V1991L1909 1987V1008H1757V1221Q1757
1392 1740 1413T1717 1438T1690 1446T1656 1450H995Q893 1450 873 1430Q848 1403 848 1323V356Q848 250 873 219T979 188Z" />
<glyph unicode="F" glyph-name="F" horiz-adv-x="2433" d="M111 2732H2212Q2219 2350 2232 2089L2073 2081Q2058 2485 2012 2534Q1998 2549 1966 2552T1774 2556H1077Q908 2556 885 2538T852 2494Q840 2464 840 2363V1794Q840 1674 852 1661T882 1640Q904 1630
975 1630H1593Q1704 1630 1718 1650T1740 1694Q1749 1726 1749 1827V1987H1901V1008H1749V1280Q1749 1306 1747 1330T1743 1370T1736 1399T1727 1421T1712 1435T1694 1444T1669 1448T1640 1450H987Q885 1450 865 1430Q840 1403 840 1323V356Q840 243 863 202T963
160H1237V0H184V160H303Q445 160 466 176T496 212Q508 238 508 315V2392Q508 2522 481 2532T435 2552T362 2563T261 2566T115 2568L111 2732Z" />
<glyph unicode="G" glyph-name="G" horiz-adv-x="3252" d="M277 796T249 935T221 1228T255 1544T357 1859T522 2149T751 2402T1037 2600Q1363 2777 1778 2777Q2007 2777 2194 2730T2613 2589V2793H2777L2806 1901L2646 1896L2617 2322Q2405 2485 2050 2552Q1901
2580 1727 2580T1385 2536T1094 2411T872 2222T713 1982Q590 1719 590 1417Q590 1092 728 792Q866 494 1134 303Q1412 106 1790 106Q2170 106 2442 287Q2472 307 2499 332V1065H2011L2007 1225H3138L3142 1065H2830V225Q2770 200 2672 156T2509 82T2343 16T2156
-42Q1946 -94 1721 -94T1305 -57T965 48T692 211T483 419T337 664Z" />
<glyph unicode="H" glyph-name="H" horiz-adv-x="2949" d="M111 2568V2732H1130V2568H1024Q870 2568 845 2548T809 2507Q791 2473 791 2388V1610H2122V2421Q2122 2530 2104 2541T2056 2560Q2024 2568 1909 2568H1737L1733 2732H2773V2568H2658Q2522 2568 2500
2549T2468 2510Q2454 2478 2454 2396V328Q2454 210 2491 185T2699 160H2839L2834 0H1815L1810 160H1929Q2064 160 2084 179T2112 221Q2122 253 2122 340V1413H791V340Q791 217 838 187Q879 160 1085 160H1204L1196 0H147L143 160Q231 160 287 160T370 164T408 170T432
184T448 205T455 238T459 282V2433Q459 2528 414 2548Q370 2568 217 2568H111Z" />
<glyph unicode="I" glyph-name="I" horiz-adv-x="1318" d="M111 2568L115 2732H1143V2568H1073Q931 2568 908 2561T867 2543T845 2521T832 2487Q823 2456 823 2380V348Q823 216 845 198T896 171Q934 160 1044 160H1204L1208 0H160L156 160H262Q422 160 446 178T480
221Q492 253 492 340V2421Q492 2528 473 2541T426 2560Q394 2568 283 2568H111Z" />
<glyph unicode="J" glyph-name="J" horiz-adv-x="1249" d="M225 -831Q492 -831 492 -98V2421Q492 2521 473 2537T430 2560Q398 2568 307 2568H156V2732H1139L1130 2568H999Q878 2568 863 2550T838 2510Q823 2478 823 2380V-8Q823 -223 800 -351T719 -576T528 -802T273
-994T19 -1057T-212 -994T-311 -868T-267 -745T-162 -645T-63 -606T7 -629T60 -685T108 -752Q163 -831 225 -831Z" />
<glyph unicode="K" glyph-name="K" horiz-adv-x="2981" d="M2019 2408Q2122 2492 2122 2530T1933 2568H1774L1765 2732H2748V2568H2642Q2524 2568 2465 2538Q2387 2497 2146 2302L1221 1561L2458 270Q2523 202 2558 181T2634 160H2871L2863 0H2220L975 1368L823
1245V348Q823 247 838 223T873 187T912 172T970 164Q1021 160 1147 160H1237V0H188L184 160H295Q442 160 460 181T482 210T489 243T492 284V2421Q492 2528 473 2541T426 2560Q394 2568 283 2568H111V2732H1135V2568H1004Q882 2568 866 2550T839 2510Q823 2476 823
2380V1438L2019 2408Z" />
<glyph unicode="L" glyph-name="L" horiz-adv-x="2392" d="M111 2568L115 2732H1163V2568H979Q865 2568 847 2553T819 2520Q803 2493 803 2417V348Q803 219 854 198Q881 188 938 188Q1973 194 2028 249Q2059 280 2074 352T2098 472T2116 569T2138 692L2281 684L2146
0H168L164 160H279Q419 160 437 177T460 203T467 231Q471 258 471 315V2433Q471 2521 427 2544T254 2568H111Z" />
<glyph unicode="M" glyph-name="M" horiz-adv-x="3366" d="M475 2351L479 2458Q479 2526 457 2547T365 2568H156L152 2732H770L1704 545L2621 2732H3277V2568H3138Q3014 2568 2970 2545T2925 2437V348Q2925 239 2934 221T2957 190T2986 174T3032 166Q3068 160
3174 160H3256L3260 0H2265L2261 160H2343Q2518 160 2544 178T2580 221Q2593 253 2593 340V2220L1962 733Q1827 413 1749 211T1660 -10T1627 -29Q1592 -29 1466 262L643 2167L627 299Q627 227 651 199T762 166T1036 160V0H152V160H193Q365 160 389 178T424 223Q436
255 438 352L475 2351Z" />
<glyph unicode="N" glyph-name="N" horiz-adv-x="3047" d="M111 2732H745L2425 565V2421Q2425 2517 2379 2547Q2346 2568 2200 2568H2056L2064 2732H2937V2568H2843Q2716 2568 2678 2544Q2617 2508 2617 2388V29Q2617 -31 2612 -50T2580 -70H2523Q2489 -70 2482
-61T2471 -47T2455 -26T2433 4L647 2298L668 348Q668 215 720 186Q770 160 971 160H1040V0H180V160H303Q438 160 457 206Q475 250 475 340V2519L434 2568H115L111 2732Z" />
<glyph unicode="O" glyph-name="O" horiz-adv-x="3268" d="M221 1381Q221 1575 277 1781T432 2145T665 2426T959 2628Q1284 2789 1642 2789Q2115 2789 2491 2528Q2889 2251 3006 1742Q3047 1563 3047 1387T3019 1061T2931 769T2785 502T2580 273T2316 93Q2012
-66 1610 -66Q1049 -66 673 265Q221 662 221 1381ZM658 1978T624 1819T590 1496T613 1191T685 915T802 660T966 439T1174 265Q1411 111 1720 111Q1969 111 2186 237Q2402 362 2536 619Q2675 883 2675 1262Q2675 1874 2322 2266Q2119 2493 1831 2580Q1695 2621 1584
2621T1385 2605T1202 2550T1019 2452T853 2301T716 2093Z" />
<glyph unicode="P" glyph-name="P" horiz-adv-x="2338" d="M111 0V160H238Q339 160 356 172T378 202Q385 221 385 279V2421Q385 2523 360 2543Q327 2568 229 2568H123L127 2732H971Q1391 2732 1507 2699Q1701 2644 1835 2536T2064 2242T2159 1823Q2159 1459 1854
1236Q1636 1077 1294 1077Q1033 1077 751 1154Q718 1163 717 1163V279Q717 193 752 180Q804 160 995 160H1200V0H111ZM717 1286Q821 1208 1124 1208T1600 1367T1774 1831Q1774 2247 1388 2447Q1155 2568 840 2568Q768 2568 748 2544Q717 2506 717 2380V1286Z" />
<glyph unicode="Q" glyph-name="Q" horiz-adv-x="3268" d="M284 856T253 1012T221 1372T277 1781T432 2145T665 2426T959 2628Q1284 2789 1642 2789Q2115 2789 2491 2528Q2889 2251 3006 1742Q3047 1563 3047 1321T2951 823Q2760 316 2310 90Q2243 56 2101 12L2052
-4Q2244 -84 2558 -333Q2886 -592 3021 -660T3225 -729T3334 -718T3398 -695T3437 -684Q3473 -684 3473 -729Q3473 -840 3320 -922Q3221 -975 3083 -975T2851 -954T2674 -891T2514 -803T2360 -692T2221 -574T2084 -453T1916 -310T1745 -178T1606 -94T1511 -63T1399
-50T1229 -22T1035 39T831 148T640 298T473 492T340 729ZM658 1978T624 1819T590 1496T613 1191T685 915T802 660T966 439T1174 265Q1411 111 1720 111Q1969 111 2186 237Q2402 362 2536 619Q2675 883 2675 1262Q2675 1874 2322 2266Q2119 2493 1831 2580Q1695
2621 1584 2621T1385 2605T1202 2550T1019 2452T853 2301T716 2093Z" />
<glyph unicode="R" glyph-name="R" horiz-adv-x="2842" d="M1159 1257Q908 1257 786 1282V279Q786 194 824 179Q872 160 1069 160H1278L1270 0H180V160H274Q405 160 422 170T446 198Q455 216 455 279V2421Q455 2535 362 2556Q310 2568 209 2568H94L98 2732H1040Q1366
2732 1548 2691T1873 2534T2091 2268T2167 2000T2149 1808T2087 1658T1977 1519Q1831 1380 1581 1315L2367 270Q2423 200 2460 180T2544 160H2720L2728 0H2134L1257 1262L1159 1257ZM786 1417Q835 1376 1049 1376Q1421 1376 1591 1504T1761 1901Q1761 2197 1543
2380Q1319 2568 909 2568Q837 2568 817 2544Q786 2506 786 2380V1417Z" />
<glyph unicode="S" glyph-name="S" horiz-adv-x="2117" d="M262 -115Q229 69 102 696L246 713L299 459Q327 325 343 306T383 271T427 248T539 208Q747 135 946 135T1269 193T1468 366T1544 593T1514 776T1439 901T1320 1014Q1208 1102 1020 1204L852 1298Q602
1438 530 1507T413 1632T340 1747Q279 1880 279 2035T349 2329T533 2561Q780 2765 1094 2765Q1250 2765 1373 2724T1513 2683T1545 2709T1565 2789L1704 2798L1765 2048L1618 2044L1581 2408Q1451 2509 1211 2554Q1118 2572 1008 2572T789 2517T615 2361T549 2165T567
2012T621 1902T701 1807T807 1718Q904 1649 1061 1561L1286 1438Q1527 1304 1610 1228T1739 1099T1814 990Q1876 869 1876 740T1838 499T1721 290T1532 120Q1296 -37 946 -37Q748 -37 624 0T471 37Q397 37 397 -49L401 -102L262 -115Z" />
<glyph unicode="T" glyph-name="T" horiz-adv-x="2580" d="M2470 2732L2421 2077L2273 2081Q2298 2375 2298 2437T2255 2526T2089 2552Q1818 2552 1670 2552T1496 2547T1457 2540T1432 2523T1416 2501T1409 2465T1405 2418V348Q1405 221 1446 189Q1483 160 1642
160H1806L1810 0L729 4V160Q798 160 845 160T924 162T971 165T1005 172T1032 183T1050 199T1062 220T1068 250Q1073 273 1073 332V2322Q1073 2479 1054 2505T1010 2540Q979 2552 893 2552H463Q329 2552 297 2531T252 2489T232 2444T218 2381Q212 2334 205 2225T193
2068L45 2073Q81 2420 106 2732H2470Z" />
<glyph unicode="U" glyph-name="U" horiz-adv-x="2953" d="M111 2568V2732H1094L1098 2568H942Q820 2568 771 2540T721 2417V901Q721 616 900 412Q1118 164 1577 164Q2091 164 2266 382Q2329 459 2361 524T2410 702Q2433 854 2433 1094V2421Q2433 2517 2387 2547Q2354
2568 2208 2568H2064L2073 2732H2843V2568H2785Q2716 2568 2686 2557Q2626 2536 2626 2388V934Q2626 254 2154 33Q1925 -74 1577 -74Q692 -74 464 474Q389 655 389 881V2421Q389 2523 360 2542Q323 2568 221 2568H111Z" />
<glyph unicode="V" glyph-name="V" horiz-adv-x="3121" d="M111 2568V2732H1139L1135 2568H918Q863 2568 841 2559T819 2507T877 2322L1638 430L2499 2408Q2519 2463 2519 2488T2505 2531T2458 2556Q2410 2568 2318 2568H2187L2179 2732H3011L3002 2568H2884Q2784
2568 2738 2504Q2693 2439 2631 2295T2558 2130Q2543 2094 2503 2003L1585 -61H1516L565 2249Q486 2439 453 2491T375 2556T254 2568H111Z" />
<glyph unicode="W" glyph-name="W" horiz-adv-x="4259" d="M152 2568V2732H1061L1057 2568H967Q782 2568 742 2526Q725 2508 725 2487T733 2433L1442 483L2118 2212Q2111 2231 2099 2271T2076 2338T2051 2404T2020 2468T1984 2518Q1942 2568 1884 2568H1683V2732H2658V2568H2441Q2375
2568 2355 2557T2335 2512Q2335 2462 2408 2241L3006 496L3736 2408Q3752 2466 3752 2487T3737 2528T3690 2556Q3642 2568 3551 2568H3445V2732H4145L4149 2568H4100Q4004 2568 3971 2528T3902 2392T3863 2286L2957 -66H2888L2191 1982L1397 -61H1331L463 2310Q401
2483 360 2518T293 2561T221 2568H152Z" />
<glyph unicode="X" glyph-name="X" horiz-adv-x="3112" d="M111 0V160Q111 160 200 160Q231 160 269 165T323 171T368 188T408 211T448 248T494 295T551 361T623 442L1405 1327L598 2347Q586 2363 559 2397T518 2449T479 2492T445 2525T410 2545T372 2559T323
2564T261 2568H180V2732H1221V2568H1110Q1006 2568 972 2562T938 2529T961 2464T1085 2286L1618 1573L2167 2191Q2374 2427 2389 2459T2404 2515Q2404 2549 2362 2558T2212 2568H2097L2101 2732H2978V2568H2904Q2766 2568 2743 2552T2698 2521T2666 2494T2631 2457T2595
2419T2579 2401T2570 2391T2560 2380L1720 1454L2245 786Q2598 335 2665 275T2754 201T2809 175Q2850 160 2929 160H2998L3002 0H1946V160H2044Q2152 160 2200 169T2249 213Q2249 232 2225 267T2081 459L1503 1200L766 348Q672 243 672 209T706 168T836 160H983V0H111Z"
/>
<glyph unicode="Y" glyph-name="Y" horiz-adv-x="2699" d="M152 2568L156 2732H1073V2568H991Q871 2568 825 2559T778 2515Q778 2496 852 2372L1438 1450L2154 2466Q2179 2508 2179 2515Q2179 2549 2117 2558T1913 2568H1847L1843 2732H2589V2568H2568Q2459 2568
2436 2552T2390 2515Q2355 2483 2294 2396L1495 1241V348Q1495 239 1504 221T1527 190T1555 174T1599 166Q1633 160 1737 160H1921L1917 0H766L770 160H934Q1085 160 1111 177T1144 207T1156 240Q1163 267 1163 340V1274L492 2318Q393 2473 362 2511T290 2559T152
2568Z" />
<glyph unicode="Z" glyph-name="Z" horiz-adv-x="2719" d="M2609 717L2527 0H201Q111 0 111 82Q111 118 195 208T303 328L2142 2408H471Q392 2408 374 2373T347 2243T336 2139T327 2078T319 1999L156 2007Q207 2444 217 2732H2449Q2518 2732 2547 2725T2576 2696T2563
2647T2529 2591T2489 2538T2452 2493T2433 2470L569 340H2191Q2359 340 2376 362Q2410 409 2442 642L2454 721L2609 717Z" />
<glyph unicode="[" glyph-name="bracketleft" horiz-adv-x="1335" d="M360 -946V2892H1266V2769H614V-827H1266V-946H360Z" />
<glyph unicode="\" glyph-name="backslash" horiz-adv-x="1810" d="M152 2892H344L1741 -946H1548L152 2892Z" />
<glyph unicode="]" glyph-name="bracketright" horiz-adv-x="1335" d="M70 -827H721V2769H70V2892H975V-946H70V-827Z" />
<glyph unicode="^" glyph-name="asciicircum" horiz-adv-x="1662" d="M164 1356L807 2666H856L1499 1356H1241L831 2224L422 1356H164Z" />
<glyph unicode="_" glyph-name="underscore" horiz-adv-x="925" d="M82 -242H844V-418H82V-242Z" />
<glyph unicode="`" glyph-name="grave" horiz-adv-x="1597" d="M389 2580H675L888 1917H741L389 2580Z" />
<glyph unicode="a" glyph-name="a" horiz-adv-x="1556" d="M238 1016Q143 1016 143 1163Q143 1258 239 1382Q424 1622 860 1622Q1108 1622 1192 1442Q1221 1379 1221 1294V528Q1221 342 1290 264Q1355 192 1487 156Q1524 146 1524 122T1472 66Q1252 -67 1241 -70Q1150
-6 1108 43Q1056 102 967 217Q885 106 752 31T519 -45T355 -27T235 27Q111 107 111 269T219 576T517 806T934 893V1139Q934 1315 864 1374Q798 1430 689 1430T515 1417T418 1385Q348 1345 328 1303Q334 1276 345 1236Q369 1150 369 1114T321 1047T238 1016ZM397
374Q397 293 456 235T614 176T765 191T850 229T901 284Q934 335 934 401V782Q686 782 537 651Q397 528 397 374Z" />
<glyph unicode="b" glyph-name="b" horiz-adv-x="2068" d="M340 86L352 635V2642Q352 2765 295 2765Q263 2765 61 2720L49 2847Q187 2871 639 2961V1376Q646 1381 681 1410T748 1463T835 1521T945 1578Q1076 1634 1239 1634T1548 1570T1784 1398Q1966 1177 1966
868Q1966 433 1655 154Q1441 -37 1122 -37Q930 -37 815 6Q597 86 570 86T479 39T385 -8Q340 -8 340 86ZM1110 1413Q818 1413 639 1262V401Q639 197 924 129Q999 111 1064 111T1181 117T1292 141T1405 187T1508 263T1593 372Q1671 510 1671 681T1645 961T1579 1140T1483
1263T1376 1343T1267 1388Q1183 1413 1110 1413Z" />
<glyph unicode="c" glyph-name="c" horiz-adv-x="1650" d="M98 879T128 1008T221 1252T372 1454Q564 1642 852 1642Q1223 1642 1434 1440Q1479 1397 1479 1370T1445 1317T1366 1278Q1271 1249 1232 1249T1150 1272T1065 1330T978 1398Q871 1479 780 1479T619 1434T506
1321T436 1164Q389 1012 389 856T427 585T527 399T669 279Q814 193 964 193T1217 208T1369 242T1459 275T1516 291Q1548 291 1548 256T1489 170T1337 68Q1111 -53 868 -53Q292 -53 144 420Q98 566 98 722Z" />
<glyph unicode="d" glyph-name="d" horiz-adv-x="2097" d="M1438 -106L1442 193Q1442 246 1438 258Q1185 -49 827 -49Q526 -49 314 173Q98 398 98 758Q98 937 168 1099T352 1374Q598 1618 894 1618T1430 1438V2658Q1430 2773 1372 2773Q1337 2773 1102 2720L1094
2847Q1296 2884 1716 2994V287Q1716 181 1725 146T1760 111T1819 120T1912 149T2028 184V74Q1946 51 1760 -7T1438 -106ZM476 1248T437 1138T397 894T442 632T568 402Q744 184 1040 184Q1178 184 1253 225Q1379 294 1430 348V1229Q1313 1390 1085 1462Q995 1491
896 1491T705 1447T544 1326Z" />
<glyph unicode="e" glyph-name="e" horiz-adv-x="1691" d="M410 926L406 868Q406 411 772 268Q882 225 992 225T1185 245T1324 293T1426 350Q1537 418 1556 418Q1593 418 1593 381T1559 295T1457 187T1302 74Q1096 -53 848 -53Q511 -53 310 164Q98 395 98 750Q98
1145 308 1392Q514 1634 823 1634Q1169 1634 1391 1356Q1503 1216 1503 1110Q1503 1081 1480 1065T1438 1049L410 926ZM418 1069L1122 1159Q1096 1250 1038 1325T948 1429Q871 1495 763 1495T553 1381T418 1069Z" />
<glyph unicode="f" glyph-name="f" horiz-adv-x="1167" d="M70 1409L119 1606H369V2048Q369 2243 387 2319T423 2456T472 2570T543 2678Q623 2788 766 2877T1077 2966T1334 2926T1425 2825T1347 2658T1212 2552Q1182 2552 1151 2613T1097 2711Q1044 2798 974 2798T855
2768T775 2690T720 2577T684 2452T665 2325Q655 2229 655 2146V1606H1114L1069 1409H655V254Q655 186 665 173T690 151T721 141T768 135Q807 131 913 131H971L967 0H115L111 131H197Q308 131 338 150T369 242V1409H70Z" />
<glyph unicode="g" glyph-name="g" horiz-adv-x="1826" d="M713 172L991 176Q1737 176 1737 -283Q1737 -524 1538 -729Q1200 -1077 635 -1077Q271 -1077 72 -882Q-33 -779 -33 -627Q-33 -404 191 -239Q273 -178 374 -138Q472 -99 537 -82Q247 -46 162 94Q139 130
139 172T160 255T214 323T289 375T370 416Q453 447 520 463Q406 491 288 616Q135 775 135 1020Q135 1273 332 1455T782 1638Q957 1638 1034 1596T1152 1530Q1252 1470 1340 1470T1464 1476T1521 1492T1558 1517T1581 1546T1598 1579T1614 1610H1700V1507Q1700 1366
1689 1346T1667 1313T1636 1296Q1595 1286 1536 1286H1470Q1360 1286 1360 1276T1374 1243T1407 1193Q1454 1122 1454 1001T1405 776T1269 594Q1080 422 782 422Q620 422 525 382T430 274Q430 212 486 194Q502 189 513 185T546 179T580 174Q603 172 644 172H713ZM283
-604Q283 -714 401 -801T758 -889Q1088 -889 1300 -712Q1450 -585 1450 -393Q1450 -90 938 -90Q647 -90 460 -250Q283 -401 283 -604ZM648 1487T562 1372T475 1093T505 832T584 674Q685 549 815 549Q930 549 1016 654Q1106 767 1106 933T1077 1199T1000 1360Q899
1487 774 1487Z" />
<glyph unicode="h" glyph-name="h" horiz-adv-x="1900" d="M1024 1389Q830 1389 594 1192V225Q594 163 633 147T803 131H877L872 0H78L74 131H119Q258 131 275 147Q307 176 307 225V2658Q307 2729 292 2755T249 2781T74 2757V2900Q186 2911 594 2974V1315Q763
1456 816 1487T917 1544T1007 1584Q1112 1618 1185 1618T1311 1605T1401 1573T1469 1518T1518 1451T1552 1366T1573 1274T1584 1171Q1589 1092 1589 958V250Q1589 164 1605 154T1645 138Q1672 131 1765 131H1831V0H1044L1040 131H1106Q1229 131 1266 150T1303 246V1077Q1303
1272 1176 1348Q1108 1389 1024 1389Z" />
<glyph unicode="i" glyph-name="i" horiz-adv-x="1085" d="M111 1540Q415 1589 688 1663V242Q688 164 724 150Q771 131 942 131H1016V0H127V131H164Q351 131 370 148Q401 177 401 225V1319Q401 1397 388 1423T329 1450T115 1417L111 1540ZM539 2248T479 2319T418
2436T483 2543T587 2605T696 2540T766 2432T696 2318T582 2248Z" />
<glyph unicode="j" glyph-name="j" horiz-adv-x="1019" d="M329 1426T312 1434T280 1442T90 1405L70 1528Q193 1547 284 1569Q546 1632 647 1655V-197Q647 -528 600 -647T513 -817T442 -892T396 -926T338 -964T253 -1013Q141 -1069 62 -1069T-94 -1042T-220 -977T-270
-892T-194 -777T-73 -709T2 -736T60 -797Q130 -885 172 -885Q360 -885 360 -328V1274Q360 1387 345 1406ZM432 2248T372 2319T311 2436T376 2543T480 2605T589 2540T659 2432T589 2318T475 2248Z" />
<glyph unicode="k" glyph-name="k" horiz-adv-x="1933" d="M70 2863Q479 2944 602 2970V819L1352 1430Q1380 1452 1380 1466Q1380 1495 1294 1495H1171V1606H1831L1827 1495H1765Q1701 1495 1657 1479T1540 1405L958 942L1569 229Q1581 215 1600 192T1625 163T1643
148T1668 136T1701 133T1753 131H1864L1860 0H1376L737 786L594 676V233Q594 162 630 146Q665 131 807 131H918L922 0H82V131Q136 131 174 131T235 133T269 136T291 144T305 154T311 171T315 192V2576Q315 2690 305 2729T258 2769T78 2732L70 2863Z" />
<glyph unicode="l" glyph-name="l" horiz-adv-x="1073" d="M70 2879Q419 2927 672 2974V242Q672 168 719 150T934 131H1004V0H111V131H201Q310 131 347 150T385 242V2576Q385 2707 373 2744T319 2781T78 2740L70 2879Z" />
<glyph unicode="m" glyph-name="m" horiz-adv-x="2830" d="M291 1450Q285 1450 70 1409V1536Q216 1557 539 1628L643 1651Q635 1512 635 1352Q648 1359 693 1393T790 1462T910 1534Q1062 1618 1171 1618T1338 1593T1428 1536T1486 1460Q1520 1403 1532 1356Q1783
1544 1904 1581T2102 1618T2239 1599T2340 1551T2410 1475T2455 1385T2480 1282Q2494 1198 2494 1077V233Q2494 160 2530 145Q2562 131 2720 131H2761V0H1966V131Q2133 131 2170 144T2208 229V1077Q2208 1336 2068 1376Q2025 1389 1957 1389T1821 1375T1706 1341Q1614
1301 1552 1253Q1569 1126 1569 958V201Q1569 153 1590 145T1638 134Q1676 131 1774 131H1810V0H1032L1028 131H1077Q1204 131 1243 142T1282 197V1077Q1282 1234 1221 1311T1003 1389T643 1257V221Q643 155 662 148T710 136Q743 131 860 131H881V0H82L78 131H193Q295
131 325 146T356 221V1240Q356 1374 347 1412T291 1450Z" />
<glyph unicode="n" glyph-name="n" horiz-adv-x="1896" d="M1290 1248T1228 1318T1006 1389T582 1257V228Q582 177 604 160T641 141T685 136Q722 131 827 131H881L872 0H74L70 131Q121 131 158 131T217 134T250 140T271 152T285 168T292 193T295 226V1245Q295
1376 285 1413T233 1450Q222 1450 78 1417V1544L582 1647Q569 1488 569 1356Q583 1362 625 1393T722 1461T846 1534Q1006 1618 1137 1618T1330 1597T1433 1546T1502 1459T1545 1356T1568 1229Q1577 1128 1577 958V254Q1577 167 1622 149T1827 131L1823 0H1061L1057
131H1151Q1258 131 1270 153Q1290 190 1290 254V1077Q1290 1248 1228 1318Z" />
<glyph unicode="o" glyph-name="o" horiz-adv-x="1875" d="M102 801Q102 929 132 1050T226 1279T384 1468Q588 1642 913 1642Q1316 1642 1540 1406Q1774 1161 1774 754Q1774 405 1546 174Q1312 -61 922 -61Q460 -61 232 317Q102 532 102 801ZM430 914Q430 784
454 670T525 453T637 271T789 145T975 98T1151 135T1280 235T1366 384Q1430 544 1430 745T1386 1089T1264 1322Q1106 1503 877 1503Q693 1503 564 1351Q430 1192 430 914Z" />
<glyph unicode="p" glyph-name="p" horiz-adv-x="2011" d="M270 1421L86 1380L82 1511Q190 1531 389 1584T623 1647V1311Q814 1502 1050 1582Q1146 1614 1233 1614Q1423 1614 1580 1506T1825 1216T1913 854T1877 541T1773 300T1610 114Q1413 -49 1130 -49Q875
-49 686 2L623 20V-827Q623 -897 682 -913T946 -930H1008L1004 -1061H61L57 -930Q246 -930 276 -920T319 -896Q336 -879 336 -831V1307Q336 1421 270 1421ZM623 225Q734 142 886 114T1136 86T1325 129T1471 236T1560 386Q1622 532 1622 681T1577 957T1456 1174Q1289
1372 1049 1372Q845 1372 646 1204Q624 1185 623 1184V225Z" />
<glyph unicode="q" glyph-name="q" horiz-adv-x="1970" d="M157 406T128 520T98 774T150 1057T291 1303T496 1483Q726 1634 1004 1634Q1197 1634 1370 1560Q1434 1533 1487 1510T1558 1487T1594 1501T1622 1534Q1644 1578 1647 1622H1729Q1727 1579 1715 1390Q1692
1026 1692 541V-816Q1692 -909 1748 -920Q1803 -930 1836 -930H1991V-1061H958L946 -930H1090Q1282 -930 1343 -905T1405 -791V238Q1182 71 1127 47T1025 4Q939 -29 814 -29T570 14T365 132T218 306ZM1405 1331Q1177 1483 971 1483Q637 1483 469 1208Q381 1064
381 919T435 646T578 426Q772 221 1008 221Q1229 221 1386 419Q1404 441 1405 442V1331Z" />
<glyph unicode="r" glyph-name="r" horiz-adv-x="1400" d="M389 1298Q389 1446 342 1446Q316 1446 82 1401L70 1528Q105 1535 147 1542T208 1553T282 1569T425 1603T668 1663V1200Q668 1204 714 1282T802 1414T890 1514Q994 1618 1106 1618Q1226 1618 1301 1552Q1314
1541 1331 1516L1176 1110L1110 1135V1188Q1110 1282 1012 1282Q945 1282 868 1244T733 1136T676 991V299Q676 183 716 158Q756 131 934 131H1110V0H131V131H209Q339 131 355 147T379 185Q389 212 389 299V1298Z" />
<glyph unicode="s" glyph-name="s" horiz-adv-x="1421" d="M279 -53L283 -94L164 -102L90 578L217 586L258 246Q381 150 512 118T706 86T815 107T890 163Q946 235 946 299T930 404T892 475T828 542Q769 591 664 659L516 758Q209 958 209 1212Q209 1321 274 1415T455
1566T685 1622T878 1604T1005 1567T1070 1548Q1102 1548 1102 1671L1233 1667V1049H1102L1098 1339Q1029 1422 850 1460Q784 1475 704 1475T552 1417T479 1278Q479 1217 498 1190T522 1152T546 1125T571 1102T602 1077T634 1054Q656 1036 705 1004L889 881Q1078
754 1124 699T1198 600Q1249 518 1249 418T1215 236T1117 88Q978 -53 717 -53Q578 -53 451 -27T315 0Q279 0 279 -53Z" />
<glyph unicode="t" glyph-name="t" horiz-adv-x="1294" d="M139 1380Q90 1380 90 1413Q90 1435 195 1548T335 1700T438 1826Q583 2011 598 2011Q623 2011 623 1982V1577H1176L1151 1380H623V426Q623 242 798 196Q844 184 906 184T1038 203T1150 242T1196 262Q1225
262 1225 215T1149 104T956 -2T736 -45T552 -11T427 84Q336 205 336 393V1380H139Z" />
<glyph unicode="u" glyph-name="u" horiz-adv-x="1892" d="M205 1475L70 1462V1585Q386 1614 569 1647V623Q569 361 656 274Q737 193 909 193Q1162 193 1278 348V1348Q1278 1425 1260 1447T1206 1470T1126 1466Q1022 1456 1016 1450L1004 1577Q1232 1592 1565
1647V455Q1565 183 1584 159Q1606 131 1637 131T1823 176V45Q1677 15 1521 -29T1319 -86Q1313 60 1290 205Q1139 39 928 -32Q844 -61 762 -61T610 -43T491 8T404 87T344 187T307 306Q283 418 283 565V1372Q283 1434 266 1454T205 1475Z" />
<glyph unicode="v" glyph-name="v" horiz-adv-x="1888" d="M70 1475V1606H807L803 1475H745Q669 1475 638 1465T606 1422T651 1274L1016 406Q1123 664 1237 909T1380 1215Q1446 1359 1446 1407T1409 1465T1266 1475H1253V1606H1819V1475H1794Q1724 1475 1690 1449T1630
1374Q1577 1278 1450 991L971 -74L913 -70L336 1253Q264 1413 240 1434T189 1464Q156 1475 70 1475Z" />
<glyph unicode="w" glyph-name="w" horiz-adv-x="3231" d="M803 1475Q680 1475 680 1405Q680 1374 721 1274L1102 385L1536 1331Q1498 1422 1455 1448T1323 1475H1171L1163 1606H2048V1475Q1864 1475 1848 1455T1831 1413T1868 1294L2249 389L2687 1315Q2720 1389
2720 1420Q2720 1475 2540 1475H2433V1606H3158L3162 1475Q3039 1475 3009 1462T2956 1434Q2912 1408 2879 1339L2200 -70L2109 -66L1614 1155L1061 -74L975 -70L406 1253Q351 1381 330 1417T263 1464T70 1475V1606H930L926 1475H803Z" />
<glyph unicode="x" glyph-name="x" horiz-adv-x="2134" d="M1233 131Q1442 131 1442 180Q1442 203 1405 243T1360 291L1020 688L610 254Q557 195 557 170Q557 131 750 131H848V0H70L74 131H106Q227 131 266 156Q338 200 410 270L926 786L397 1348Q313 1437 294
1444T247 1461Q209 1475 123 1475V1606H1012V1475H930Q828 1475 783 1467T737 1432T782 1348L1102 979L1430 1323Q1507 1406 1507 1434Q1507 1475 1323 1475V1606H2044V1475H1962Q1826 1475 1799 1457T1749 1420T1713 1390T1663 1339L1200 881L1769 279Q1874 164
1898 154T1947 137T1990 131H2060V0H1233V131Z" />
<glyph unicode="y" glyph-name="y" horiz-adv-x="1921" d="M184 -705L303 -713Q368 -713 471 -574T754 -86L877 152L365 1253Q354 1278 337 1316T314 1367T295 1404T275 1433T253 1451T225 1465T189 1471T140 1475H78L70 1606H852L844 1475H774Q695 1475 663 1465T631
1429T636 1385T647 1351T664 1311T680 1274L1028 492L1286 1073Q1421 1371 1421 1412T1383 1464T1241 1475H1184V1606H1851V1475H1753Q1697 1475 1679 1470T1652 1462T1630 1447T1613 1428T1596 1399T1578 1363Q1556 1310 1532 1257L909 -119Q534 -946 323 -1036Q266
-1061 192 -1061T74 -1009T29 -873T72 -748T184 -705Z" />
<glyph unicode="z" glyph-name="z" horiz-adv-x="1802" d="M1663 618L1618 0H217Q119 0 109 13T98 37T101 57T111 77T125 97T144 119T165 142T189 168T213 193L1274 1339H438Q314 1339 300 1282Q266 1138 266 1081L160 1085L225 1667H328Q328 1667 328 1658Q328
1610 337 1599Q353 1585 418 1585H1520Q1659 1585 1659 1556Q1659 1538 1598 1479T1503 1380L467 250H1343Q1432 250 1449 265T1478 301T1495 344T1507 410Q1515 461 1528 618H1663Z" />
<glyph unicode="{" glyph-name="braceleft" horiz-adv-x="1150" d="M397 -98L414 401Q414 639 385 713T341 813T303 859T263 890T217 910T170 923T120 932T70 942V1020Q84 1023 130 1031T208 1049T286 1090T354 1175Q410 1309 410 1561L397 2060Q397 2690 817
2848Q934 2892 1081 2892V2773Q786 2773 706 2510Q659 2358 659 2085L680 1495Q680 1285 618 1163T406 983Q601 909 652 701Q676 604 676 467L659 -119Q659 -408 688 -502T748 -654T824 -747Q923 -827 1081 -827V-946Q397 -946 397 -98Z" />
<glyph unicode="|" glyph-name="bar" horiz-adv-x="901" d="M360 -946V2892H541V-946H360Z" />
<glyph unicode="}" glyph-name="braceright" horiz-adv-x="1150" d="M741 401L758 -98Q758 -755 336 -904Q219 -946 70 -946V-827Q427 -827 481 -407Q496 -290 496 -119L475 467Q475 672 538 799T750 983Q600 1040 538 1163T475 1495Q475 1495 492 2085Q492 2456
408 2597Q355 2686 298 2717Q194 2773 70 2773V2892Q492 2892 661 2545Q758 2345 758 2060L741 1561Q741 1322 769 1250T810 1152T847 1105T887 1073T935 1052Q980 1038 1014 1032T1053 1025Q1070 1022 1081 1020V942Q1064 938 1032 933T982 923T936 910T890 890T850
859T813 813T784 748T760 660Q741 544 741 401Z" />
<glyph unicode="~" glyph-name="asciitilde" horiz-adv-x="4079" d="M246 913Q274 1082 350 1232T477 1453T601 1598T758 1722Q947 1839 1144 1839T1495 1799T1784 1694T2054 1551T2319 1394T2572 1252Q2851 1106 3080 1106Q3275 1106 3440 1295Q3574 1448 3676
1743Q3685 1770 3703 1835L3834 1810Q3833 1807 3820 1758T3788 1647T3732 1499T3647 1333T3527 1169T3366 1026Q3172 889 2900 889Q2603 889 2291 1029Q2105 1113 1859 1252T1488 1453Q1204 1593 967 1593Q756 1593 600 1410Q473 1261 396 974Q385 933 377 885L246
913Z" />
<glyph unicode="&#xa0;" glyph-name="uni00A0" horiz-adv-x="757" />
<glyph unicode="&#xa1;" glyph-name="exclamdown" horiz-adv-x="1249" d="M578 2322T515 2390T451 2501T517 2609T625 2675T732 2608T799 2498T730 2388T619 2322ZM471 4Q475 259 525 807T579 1497T584 1700T585 1794T587 1870T593 1932T604 1974Q618 2011 643
2011T679 2002T696 1980T708 1949T715 1916Q745 1714 770 1020T795 94Q795 -3 578 -36Q541 -41 524 -41Q471 -41 471 4Z" />
<glyph unicode="&#xa2;" glyph-name="cent" horiz-adv-x="1748" d="M954 1786L1249 2970L1413 2949L1073 1774Q1289 1739 1437 1615T1585 1327Q1585 1225 1515 1151T1349 1077T1190 1135T1126 1255T1151 1358T1206 1422Q1286 1485 1286 1524T1213 1609T1044 1659L651
213Q785 90 983 90Q1231 90 1442 292Q1523 369 1561 426L1651 340Q1648 338 1617 302T1547 226T1443 135T1306 45Q1137 -49 950 -49T602 25L389 -827L246 -791L500 82Q316 198 207 406T98 933T325 1519T954 1786ZM561 319L918 1647Q766 1617 654 1507Q426 1285
426 902T561 319Z" />
<glyph unicode="&#xa3;" glyph-name="sterling" horiz-adv-x="1781" d="M848 2122L852 1470Q852 1328 831 1163H1319V1004H807Q750 727 658 550L627 492Q647 504 697 504T813 482T929 425T1027 346T1116 260T1197 182Q1284 102 1357 102T1473 158T1516 267T1499
353T1458 411T1410 462Q1352 523 1352 585T1388 694T1483 741T1594 689Q1700 581 1700 430T1640 173T1466 4T1252 -61T1098 -47T1010 -13T937 45T878 111T818 192Q671 401 594 401Q531 401 468 240Q395 54 336 1T213 -53T110 -10T70 93T101 204T186 292T292 358T405
416T492 463Q533 508 555 641T578 885L565 1004H111V1163H549Q512 1552 512 1692T550 2012T656 2319T818 2535Q1003 2707 1266 2707Q1514 2707 1648 2524Q1712 2437 1712 2344T1666 2197T1556 2142Q1422 2142 1384 2343Q1362 2445 1345 2479Q1301 2569 1181 2572Q1176
2572 1153 2572T1087 2559T1001 2512T924 2430Q848 2318 848 2122Z" />
<glyph unicode="&#xa4;" glyph-name="currency" horiz-adv-x="2134" d="M1548 426Q1333 266 1064 266T586 422L303 143Q234 74 182 74T100 106T70 170T82 226Q98 258 143 303L422 586Q262 798 262 1070T418 1552L143 1835Q70 1898 70 1952T102 2037T182 2068T303
1995L586 1712Q799 1872 1065 1872T1548 1712L1831 1995Q1900 2064 1951 2064T2033 2032T2064 1968T2052 1912Q2036 1880 1991 1835L1708 1548Q1876 1317 1876 1066T1708 590L1991 303Q2064 240 2064 187T2030 102T1964 70T1908 82Q1876 98 1831 143L1548 426ZM646
1494T571 1359T496 1065T573 774T780 567T1064 492T1350 569T1560 779T1638 1068T1561 1359T1352 1574T1064 1655T778 1575Z" />
<glyph unicode="&#xa5;" glyph-name="yen" horiz-adv-x="2617" d="M111 2568L115 2732H1032V2568H930Q825 2568 781 2559T737 2515Q737 2487 877 2269L1397 1450L2114 2466Q2138 2506 2138 2515Q2138 2549 2075 2558T1872 2568H1806L1802 2732H2548V2568H2527Q2406
2568 2374 2538Q2317 2485 2253 2396L1704 1606H2142L2093 1409H1540L1454 1270V1004H2142L2093 807H1454V348Q1454 215 1477 197T1531 171Q1572 160 1692 160H1880L1876 0H725L729 160H893Q1044 160 1070 177T1103 207T1114 240Q1122 267 1122 340V807H475L524
1004H1122V1303L1061 1409H475L524 1606H909L451 2318Q438 2338 416 2374T383 2426T354 2468L330 2502Q289 2560 234 2564Q225 2564 200 2566T160 2568H111Z" />
<glyph unicode="&#xa6;" glyph-name="brokenbar" horiz-adv-x="901" d="M360 590H541V-946H360V590ZM360 1356V2892H541V1356H360Z" />
<glyph unicode="&#xa7;" glyph-name="section" horiz-adv-x="1839" d="M1126 381Q1528 12 1528 -356Q1528 -604 1354 -736Q1191 -860 971 -860Q688 -860 509 -680Q385 -554 385 -393T454 -147T627 -61Q655 -61 709 -91T809 -170T856 -257T831 -336T776 -410Q696
-496 696 -538T702 -602T728 -649T778 -691Q850 -733 953 -733T1135 -697T1268 -589T1323 -434T1290 -273T1204 -130T1073 11T918 150Q703 328 577 459T368 730Q221 979 221 1208Q221 1488 398 1604Q494 1667 614 1667Q625 1667 644 1665T668 1663Q667 1666 642
1694T583 1763T507 1868T432 2003Q352 2168 352 2312T381 2546T461 2696T579 2797Q708 2875 842 2875T1063 2851T1209 2787T1312 2695Q1397 2594 1397 2474T1339 2300T1189 2245T1014 2298T930 2408T977 2538T1024 2649T991 2713T905 2740Q557 2740 557 2413Q557
2223 832 1972Q912 1899 1000 1823T1175 1667T1343 1493T1484 1302Q1618 1087 1618 836Q1618 640 1574 561T1496 446T1420 393Q1344 360 1291 360T1216 363T1163 373T1126 381ZM561 1593T484 1529T406 1375T452 1183T572 980T739 780T924 606Q1128 438 1230 438T1395
488T1458 627T1390 848T1220 1106T1010 1344T812 1524T688 1593Q561 1593 484 1529Z" />
<glyph unicode="&#xa8;" glyph-name="dieresis" horiz-adv-x="1597" d="M1068 2064T1003 2131T938 2244T1011 2355T1126 2421T1227 2349T1286 2233T1217 2127T1108 2064ZM471 2064T406 2131T340 2243T411 2354T525 2420T627 2348T688 2232T619 2127T511 2064Z" />
<glyph unicode="&#xa9;" glyph-name="copyright" horiz-adv-x="3309" d="M230 566Q180 761 180 966T232 1362T378 1716T610 2016T910 2250Q1258 2454 1675 2454Q2293 2454 2715 2016Q2980 1741 3079 1362Q3129 1171 3129 972T3080 582T2942 226T2721 -77T2430
-315Q2094 -524 1671 -524Q1021 -524 597 -94Q330 177 230 566ZM425 1383Q360 1183 360 967T423 548T605 180T884 -108Q1218 -365 1675 -365Q1934 -365 2169 -261T2575 22T2847 450T2949 943T2889 1383T2716 1743T2448 2030Q2121 2290 1671 2290Q1227 2290 890
2032Q551 1772 425 1383ZM753 491T711 632T668 920T700 1192T788 1415T922 1593T1088 1730T1276 1826Q1465 1901 1645 1901T1962 1877T2168 1824T2296 1767T2359 1737V1450Q2359 1384 2349 1384T2322 1403T2279 1452T2216 1519T2126 1593T2009 1660Q1868 1729 1691
1729T1375 1666T1142 1496Q942 1272 942 967Q942 572 1258 310Q1464 139 1741 139Q2013 139 2203 289Q2289 357 2343 438T2405 520T2413 451V225Q2239 67 1934 2Q1806 -25 1645 -25T1322 25T1042 163T838 371Z" />
<glyph unicode="&#xaa;" glyph-name="ordfeminine" horiz-adv-x="1572" d="M291 2499Q209 2499 209 2617Q209 2694 264 2761T368 2864T478 2926Q615 2986 823 2986Q1038 2986 1110 2844Q1135 2793 1135 2724V2105Q1135 1919 1242 1850Q1288 1821 1340 1809T1393
1777T1302 1705T1151 1622Q1057 1686 995 1763T913 1864Q842 1770 729 1706T532 1642T391 1657T287 1702Q180 1768 180 1899T271 2145T525 2330T881 2400V2597Q881 2734 822 2779Q767 2822 675 2822T530 2812T448 2788Q390 2757 373 2724L406 2585Q406 2552 363
2526T291 2499ZM464 2104Q434 2050 434 1987T481 1877T617 1831T757 1848T834 1893Q881 1946 881 2007V2306Q575 2306 464 2104Z" />
<glyph unicode="&#xab;" glyph-name="guillemotleft" horiz-adv-x="1556" d="M705 885L1327 1430L1393 1356L1012 885L1393 418L1327 340L705 885ZM164 885L786 1430L852 1356L471 885L852 418L786 340L164 885Z" />
<glyph unicode="&#xac;" glyph-name="logicalnot" horiz-adv-x="2949" d="M328 844V1081H2621V-135H2380V844H328Z" />
<glyph unicode="&#xad;" glyph-name="uni00AD" horiz-adv-x="1290" d="M139 987V1233L1151 1532V1282L139 987Z" />
<glyph unicode="&#xae;" glyph-name="registered" horiz-adv-x="2052" d="M312 1748T246 1906T180 2238T246 2573T424 2848T694 3032T1008 3101T1295 3058T1530 2934T1711 2748Q1872 2525 1872 2236Q1872 1879 1647 1633Q1416 1380 1024 1380Q851 1380 694 1448T425
1632ZM500 2779T404 2606T307 2234T404 1868T668 1604T1042 1507T1411 1605T1659 1867T1745 2206T1689 2521T1538 2762Q1331 2986 1036 2986Q837 2986 669 2883ZM647 1868Q705 1868 705 1880V2662Q705 2683 694 2689T651 2695H594L598 2793H934Q1159 2793 1259
2713T1360 2494Q1360 2318 1163 2253L1430 1901Q1453 1868 1479 1868H1520L1524 1769H1319L1004 2220H979L864 2224V1884Q864 1872 867 1870T884 1868H983L979 1769H606V1868H647ZM864 2310Q880 2306 976 2306Q1176 2306 1176 2474Q1176 2573 1101 2634T889 2695Q873
2695 869 2688T864 2646V2310Z" />
<glyph unicode="&#xaf;" glyph-name="overscore" horiz-adv-x="1597" d="M352 2130V2327H1294V2130H352Z" />
<glyph unicode="&#xb0;" glyph-name="degree" horiz-adv-x="1351" d="M180 2355T180 2490T246 2739T427 2919T676 2986T925 2920T1105 2739T1171 2507T1132 2298T1026 2140Q882 1995 676 1995Q541 1995 427 2061T247 2241ZM328 2635T328 2490T430 2242T676 2138T924
2241T1028 2489T925 2736T676 2839T430 2737Z" />
<glyph unicode="&#xb1;" glyph-name="plusminus" horiz-adv-x="2969" d="M328 -94V147H2642V-94H328ZM328 1184V1421Q1123 1421 1318 1409L1384 1405Q1364 1570 1364 2298H1606Q1606 1661 1590 1474L1585 1405Q1792 1421 2642 1421V1184Q1845 1184 1650 1196L1585
1200Q1606 1039 1606 307H1364Q1364 952 1379 1138L1384 1200Q1219 1184 328 1184Z" />
<glyph unicode="&#xb2;" glyph-name="uni00B2" horiz-adv-x="1634" d="M164 1024Q164 1037 285 1155T497 1365T678 1568T844 1791Q1012 2044 1012 2256Q1012 2492 822 2579Q738 2617 650 2617T496 2602T394 2565T336 2521Q280 2469 253 2469T225 2511T264 2604T371
2697Q526 2793 779 2793T1190 2647T1348 2277Q1348 2034 1073 1713Q900 1511 615 1287Q479 1180 479 1168T610 1155T921 1176T1196 1224T1362 1272T1451 1294T1470 1265T1444 1132T1405 1019T1387 1007Q1371 999 1253 999H238Q164 999 164 1024Z" />
<glyph unicode="&#xb3;" glyph-name="uni00B3" horiz-adv-x="1699" d="M256 1048T210 1084T164 1160T217 1200Q237 1200 317 1165Q469 1097 625 1097T867 1126T1002 1198T1082 1298Q1135 1393 1135 1489T1083 1672T935 1824T768 1901T668 1915T622 1919T590 1925Q561
1932 561 1957Q561 2002 664 2022T822 2075T906 2145T952 2227Q979 2295 979 2349T959 2447T903 2532T806 2598T672 2625T541 2611T448 2577T388 2537Q326 2490 303 2490Q266 2490 266 2535Q266 2582 326 2636T444 2724Q579 2801 730 2801T972 2778T1138 2710Q1303
2613 1303 2437Q1303 2258 1116 2122Q994 2033 827 1990Q1106 1955 1291 1813Q1454 1687 1454 1495Q1454 1180 1134 1036Q951 954 713 954Q502 954 379 1001Z" />
<glyph unicode="&#xb4;" glyph-name="acute" horiz-adv-x="1597" d="M704 1917L917 2580H1204L852 1917H704Z" />
<glyph unicode="&#xb5;" glyph-name="uni00B5" horiz-adv-x="2121" d="M1421 -86Q1257 -86 1257 184Q1257 284 1298 510T1339 747T1331 758T1306 733T1262 658T1194 544Q1100 391 964 241Q677 -74 463 -74Q420 -74 388 -47T343 14T321 74T305 102T281 22Q233 -193
233 -300T256 -482T304 -614T328 -684T325 -709T312 -741T288 -776Q252 -815 188 -815T97 -768T70 -582T107 -264T217 170Q334 580 422 1018T525 1502T569 1548Q592 1548 642 1534Q741 1506 741 1454Q741 1417 649 900T557 332T563 253Q579 180 645 180T810 258T1004
456T1194 731Q1366 1009 1495 1303Q1553 1424 1571 1479T1596 1539Q1609 1548 1651 1548T1754 1526T1815 1481T1750 1198Q1556 414 1556 295Q1556 254 1586 228T1661 201T1749 242T1816 332Q1880 463 1921 463Q1970 463 1970 407T1943 287T1865 159T1748 39Q1599
-86 1421 -86Z" />
<glyph unicode="&#xb6;" glyph-name="paragraph" horiz-adv-x="2871" d="M2437 -676L2466 -573Q2466 -439 2072 -348Q1894 -308 1704 -272Q1190 -176 989 -84T630 159T375 502Q180 886 180 1397Q180 2036 632 2452Q904 2703 1296 2797Q1487 2843 1654 2843T1926
2822T2086 2769Q2195 2706 2195 2659T2172 2590T2123 2568T2054 2590T1967 2640Q1850 2712 1651 2712L1421 2691V-57Q1562 -91 1732 -104T2017 -131T2229 -160T2419 -207T2577 -278Q2720 -368 2720 -532Q2720 -629 2673 -705T2548 -782Q2437 -782 2437 -676ZM860
176Q1017 43 1270 -25V2650Q1021 2589 860 2449V176Z" />
<glyph unicode="&#xb7;" glyph-name="middot" horiz-adv-x="823" d="M369 1192T304 1257T238 1367T309 1478T423 1544T525 1472T586 1356T518 1253T409 1192Z" />
<glyph unicode="&#xb8;" glyph-name="cedilla" horiz-adv-x="1597" d="M749 -270L819 -266Q1004 -266 1107 -318Q1290 -410 1290 -578Q1290 -806 1007 -880Q929 -901 844 -901Q671 -901 581 -848L667 -750Q790 -791 874 -791T1012 -737T1065 -608T1038 -492T964
-430Q874 -389 791 -389T679 -393L630 -324L745 29H839L749 -270Z" />
<glyph unicode="&#xb9;" glyph-name="uni00B9" horiz-adv-x="1409" d="M287 999V1118Q324 1119 372 1119Q372 1119 436 1119Q543 1119 556 1128T580 1143T593 1158T600 1177Q606 1193 606 1232V2498Q606 2571 582 2590T471 2609H303L307 2723H668Q770 2723 818
2811Q832 2835 836 2842L893 2838Q868 2456 868 2187V1232Q868 1152 912 1136Q962 1118 1245 1118V999H287Z" />
<glyph unicode="&#xba;" glyph-name="ordmasculine" horiz-adv-x="1650" d="M180 2324Q180 2426 203 2523T276 2707T398 2858Q554 2998 803 2998Q1226 2998 1388 2662Q1470 2491 1470 2320T1424 2028T1293 1820Q1113 1630 811 1630Q456 1630 280 1935Q180 2107
180 2324ZM644 2879T554 2754T463 2438T508 2104T644 1863T834 1765T998 1809T1098 1931Q1167 2082 1167 2259T1136 2550T1050 2734Q938 2879 791 2879Z" />
<glyph unicode="&#xbb;" glyph-name="guillemotright" horiz-adv-x="1560" d="M709 418L1090 885L709 1356L774 1430L1397 885L774 340L709 418ZM164 418L545 885L164 1356L229 1430L852 885L229 340L164 418Z" />
<glyph unicode="&#xbc;" glyph-name="onequarter" horiz-adv-x="3907" d="M2286 492Q2245 492 2245 512Q2245 545 2301 608T2439 758T2592 924T2778 1130Q2994 1372 3343 1790Q3366 1819 3389 1819T3412 1749V721H3744L3679 492H3412V-41H3154V492H2286ZM2569
721H3154V1397L2569 721ZM831 -152L2949 2867H3158L1040 -152H831ZM287 999V1118Q324 1119 372 1119Q372 1119 436 1119Q543 1119 556 1128T580 1143T593 1158T600 1177Q606 1193 606 1232V2498Q606 2571 582 2590T471 2609H303L307 2723H668Q770 2723 818 2811Q832
2835 836 2842L893 2838Q868 2456 868 2187V1232Q868 1152 912 1136Q962 1118 1245 1118V999H287Z" />
<glyph unicode="&#xbd;" glyph-name="onehalf" horiz-adv-x="4042" d="M2572 25Q2572 38 2693 156T2905 366T3086 569T3252 792Q3420 1045 3420 1257Q3420 1493 3230 1580Q3146 1618 3058 1618T2904 1603T2802 1566T2744 1522Q2688 1470 2661 1470T2633 1512T2672
1605T2779 1698Q2934 1794 3187 1794T3598 1648T3756 1278Q3756 1035 3481 714Q3308 512 3023 288Q2887 181 2887 169T3018 156T3329 177T3604 225T3770 273T3859 295T3878 266T3852 133T3813 20T3795 8Q3779 0 3661 0H2646Q2572 0 2572 25ZM831 -152L2949 2867H3158L1040
-152H831ZM287 999V1118Q324 1119 372 1119Q372 1119 436 1119Q543 1119 556 1128T580 1143T593 1158T600 1177Q606 1193 606 1232V2498Q606 2571 582 2590T471 2609H303L307 2723H668Q770 2723 818 2811Q832 2835 836 2842L893 2838Q868 2456 868 2187V1232Q868
1152 912 1136Q962 1118 1245 1118V999H287Z" />
<glyph unicode="&#xbe;" glyph-name="threequarters" horiz-adv-x="4034" d="M2413 492Q2372 492 2372 512Q2372 545 2428 608T2566 758T2719 924T2905 1130Q3121 1372 3470 1790Q3493 1819 3516 1819T3539 1749V721H3871L3806 492H3539V-41H3281V492H2413ZM2696
721H3281V1397L2696 721ZM958 -152L3076 2867H3285L1167 -152H958ZM256 1048T210 1084T164 1160T217 1200Q237 1200 317 1165Q469 1097 625 1097T867 1126T1002 1198T1082 1298Q1135 1393 1135 1489T1083 1672T935 1824T768 1901T668 1915T622 1919T590 1925Q561
1932 561 1957Q561 2002 664 2022T822 2075T906 2145T952 2227Q979 2295 979 2349T959 2447T903 2532T806 2598T672 2625T541 2611T448 2577T388 2537Q326 2490 303 2490Q266 2490 266 2535Q266 2582 326 2636T444 2724Q579 2801 730 2801T972 2778T1138 2710Q1303
2613 1303 2437Q1303 2258 1116 2122Q994 2033 827 1990Q1106 1955 1291 1813Q1454 1687 1454 1495Q1454 1180 1134 1036Q951 954 713 954Q502 954 379 1001Z" />
<glyph unicode="&#xbf;" glyph-name="questiondown" horiz-adv-x="1626" d="M1241 270Q1298 270 1298 221Q1298 165 1216 95Q1063 -37 934 -37Q846 -37 725 46T526 207T386 369Q246 561 246 758Q246 859 270 927T363 1077T526 1247T688 1395T819 1516Q946 1643
946 1761Q946 1897 822 2014Q754 2079 754 2109Q754 2163 811 2163Q886 2163 962 2096T1082 1970T1155 1823T1184 1642T1144 1461T1041 1305T901 1170T747 1039T606 909Q463 762 463 602Q463 529 537 451T736 320T991 266L1241 270ZM793 2347T722 2422T651 2540T725
2658T848 2732T970 2656T1044 2532T966 2416T841 2347Z" />
<glyph unicode="&#xc0;" glyph-name="Agrave" horiz-adv-x="2973" d="M1102 3559H1388L1601 2977H1454L1102 3559ZM111 160H160Q270 160 307 198T392 344T517 623T711 1054T880 1430T970 1627T1022 1743T1053 1815L1470 2830H1556Q1804 2183 2183 1266T2602 273T2684
179T2802 160H2863L2859 0H1925L1929 160H2052Q2154 160 2193 168T2232 209Q2232 232 2214 278T2191 336L1888 1081H938L614 360Q573 260 573 221T604 171T741 160H909V0H115L111 160ZM1016 1262H1819L1430 2232L1016 1262Z" />
<glyph unicode="&#xc1;" glyph-name="Aacute" horiz-adv-x="2973" d="M1417 2977L1630 3559H1917L1565 2977H1417ZM111 160H160Q270 160 307 198T392 344T517 623T711 1054T880 1430T970 1627T1022 1743T1053 1815L1470 2830H1556Q1804 2183 2183 1266T2602 273T2684
179T2802 160H2863L2859 0H1925L1929 160H2052Q2154 160 2193 168T2232 209Q2232 232 2214 278T2191 336L1888 1081H938L614 360Q573 260 573 221T604 171T741 160H909V0H115L111 160ZM1016 1262H1819L1430 2232L1016 1262Z" />
<glyph unicode="&#xc2;" glyph-name="Acircumflex" horiz-adv-x="2973" d="M1499 3350L1249 3055H1093Q1222 3235 1421 3543H1663Q1809 3312 1991 3055H1753Q1696 3117 1614 3214T1499 3350ZM111 160H160Q270 160 307 198T392 344T517 623T711 1054T880 1430T970
1627T1022 1743T1053 1815L1470 2830H1556Q1804 2183 2183 1266T2602 273T2684 179T2802 160H2863L2859 0H1925L1929 160H2052Q2154 160 2193 168T2232 209Q2232 232 2214 278T2191 336L1888 1081H938L614 360Q573 260 573 221T604 171T741 160H909V0H115L111 160ZM1016
1262H1819L1430 2232L1016 1262Z" />
<glyph unicode="&#xc3;" glyph-name="Atilde" horiz-adv-x="2973" d="M1024 3084Q1026 3093 1029 3108T1045 3168T1073 3254T1114 3344T1171 3429Q1242 3514 1331 3514T1511 3465L1634 3399Q1714 3358 1762 3358T1845 3377T1901 3423Q1947 3481 1970 3543L2027
3526Q1992 3331 1877 3213Q1807 3141 1730 3141T1569 3178L1442 3240Q1360 3280 1295 3280T1196 3258T1142 3205Q1097 3135 1081 3067L1024 3084ZM111 160H160Q270 160 307 198T392 344T517 623T711 1054T880 1430T970 1627T1022 1743T1053 1815L1470 2830H1556Q1804
2183 2183 1266T2602 273T2684 179T2802 160H2863L2859 0H1925L1929 160H2052Q2154 160 2193 168T2232 209Q2232 232 2214 278T2191 336L1888 1081H938L614 360Q573 260 573 221T604 171T741 160H909V0H115L111 160ZM1016 1262H1819L1430 2232L1016 1262Z" />
<glyph unicode="&#xc4;" glyph-name="Adieresis" horiz-adv-x="2973" d="M111 160H160Q270 160 307 198T392 344T517 623T711 1054T880 1430T970 1627T1022 1743T1053 1815L1470 2830H1556Q1804 2183 2183 1266T2602 273T2684 179T2802 160H2863L2859 0H1925L1929
160H2052Q2154 160 2193 168T2232 209Q2232 232 2214 278T2191 336L1888 1081H938L614 360Q573 260 573 221T604 171T741 160H909V0H115L111 160ZM1016 1262H1819L1430 2232L1016 1262ZM1171 3137T1106 3204T1040 3316T1113 3427T1228 3493T1329 3421T1388 3306T1319
3200T1211 3137ZM1774 3137T1709 3204T1643 3316T1714 3427T1828 3493T1930 3421T1991 3305T1922 3200T1814 3137Z" />
<glyph unicode="&#xc5;" glyph-name="Aring" horiz-adv-x="2973" d="M1390 2990T1285 3077T1180 3265T1227 3446T1353 3579T1539 3633T1744 3533T1843 3306T1748 3085T1522 2990ZM1323 3208T1376 3161T1491 3113T1584 3122T1643 3151Q1704 3196 1704 3279T1686
3403T1636 3464Q1579 3502 1524 3502T1433 3485T1376 3443T1344 3387Q1323 3337 1323 3273ZM111 160H160Q270 160 307 198T392 344T517 623T711 1054T880 1430T970 1627T1022 1743T1053 1815L1470 2830H1556Q1804 2183 2183 1266T2602 273T2684 179T2802 160H2863L2859
0H1925L1929 160H2052Q2154 160 2193 168T2232 209Q2232 232 2214 278T2191 336L1888 1081H938L614 360Q573 260 573 221T604 171T741 160H909V0H115L111 160ZM1016 1262H1819L1430 2232L1016 1262Z" />
<glyph unicode="&#xc6;" glyph-name="AE" horiz-adv-x="4313" d="M2769 188Q3588 196 3744 209T3923 244T3956 298T4022 655L4162 635L4059 0H1987V160H2044Q2210 160 2251 170T2301 213T2310 315V1081H1208L696 360Q623 256 623 218T666 170T823 160H946V0H111L115
160H184Q291 160 362 234Q437 315 541 463L2032 2572L1769 2568L1765 2732H4010Q4017 2350 4030 2089L3871 2081Q3856 2485 3810 2534Q3796 2549 3764 2552T3572 2556H2875Q2708 2556 2684 2536T2656 2506T2648 2470Q2642 2441 2642 2363V1794Q2642 1674 2654 1661T2684
1640Q2706 1630 2777 1630H3391Q3497 1630 3514 1650T3538 1696Q3547 1734 3547 1827V1991L3699 1987V1008H3547V1280Q3547 1305 3545 1330T3542 1370T3535 1399T3527 1421T3513 1435T3495 1444T3470 1448T3441 1450H2785Q2683 1450 2665 1429Q2642 1402 2642 1323V356Q2642
249 2665 219T2769 188ZM1335 1262H2310V2466Q2310 2526 2294 2547T2236 2568L1335 1262Z" />
<glyph unicode="&#xc7;" glyph-name="Ccedilla" horiz-adv-x="3018" d="M1659 -270L1729 -266Q1914 -266 2017 -318Q2200 -410 2200 -578Q2200 -806 1916 -880Q1839 -901 1754 -901Q1585 -901 1491 -848L1577 -750Q1700 -791 1784 -791T1921 -737T1974 -608T1947
-492T1874 -430Q1784 -389 1701 -389T1589 -393L1540 -324L1626 -66Q958 -44 588 320Q221 681 221 1286Q221 1870 598 2270Q808 2493 1124 2623Q1407 2740 1658 2740T2074 2720T2316 2677T2450 2633T2527 2613T2559 2616T2578 2636Q2588 2659 2588 2740L2589 2765H2744Q2756
2366 2793 1982L2646 1978Q2627 2137 2626 2166T2618 2228T2611 2273T2598 2303T2580 2327T2552 2346T2515 2366Q2481 2377 2390 2424T2107 2509T1714 2548T1333 2489T1014 2324T775 2074Q569 1784 569 1405Q569 1082 729 782Q885 489 1166 304Q1455 115 1810 115Q2152
115 2482 335Q2664 456 2666 537L2679 881H2822L2798 283Q2486 65 2062 -27Q1887 -65 1720 -66L1659 -270Z" />
<glyph unicode="&#xc8;" glyph-name="Egrave" horiz-adv-x="2523" d="M852 3559H1138L1351 2977H1204L852 3559ZM979 188Q1798 196 1954 209T2133 244T2166 298T2232 655L2372 635L2269 0H193V160H299Q452 160 474 175T506 212Q516 238 516 315V2392Q516 2514
472 2544Q434 2568 229 2568H115L111 2732H2220Q2226 2379 2241 2089L2081 2081Q2066 2485 2020 2534Q2006 2549 1974 2552T1782 2556H1085Q916 2556 893 2538T860 2494Q848 2464 848 2363V1794Q848 1674 860 1661T890 1640Q912 1630 983 1630H1602Q1710 1630 1726
1651T1748 1699Q1757 1733 1757 1835V1991L1909 1987V1008H1757V1221Q1757 1392 1740 1413T1717 1438T1690 1446T1656 1450H995Q893 1450 873 1430Q848 1403 848 1323V356Q848 250 873 219T979 188Z" />
<glyph unicode="&#xc9;" glyph-name="Eacute" horiz-adv-x="2523" d="M1167 2977L1380 3559H1667L1315 2977H1167ZM979 188Q1798 196 1954 209T2133 244T2166 298T2232 655L2372 635L2269 0H193V160H299Q452 160 474 175T506 212Q516 238 516 315V2392Q516 2514
472 2544Q434 2568 229 2568H115L111 2732H2220Q2226 2379 2241 2089L2081 2081Q2066 2485 2020 2534Q2006 2549 1974 2552T1782 2556H1085Q916 2556 893 2538T860 2494Q848 2464 848 2363V1794Q848 1674 860 1661T890 1640Q912 1630 983 1630H1602Q1710 1630 1726
1651T1748 1699Q1757 1733 1757 1835V1991L1909 1987V1008H1757V1221Q1757 1392 1740 1413T1717 1438T1690 1446T1656 1450H995Q893 1450 873 1430Q848 1403 848 1323V356Q848 250 873 219T979 188Z" />
<glyph unicode="&#xca;" glyph-name="Ecircumflex" horiz-adv-x="2523" d="M1249 3350L999 3055H843Q972 3235 1171 3543H1413Q1559 3312 1741 3055H1503Q1446 3117 1364 3214T1249 3350ZM979 188Q1798 196 1954 209T2133 244T2166 298T2232 655L2372 635L2269
0H193V160H299Q452 160 474 175T506 212Q516 238 516 315V2392Q516 2514 472 2544Q434 2568 229 2568H115L111 2732H2220Q2226 2379 2241 2089L2081 2081Q2066 2485 2020 2534Q2006 2549 1974 2552T1782 2556H1085Q916 2556 893 2538T860 2494Q848 2464 848 2363V1794Q848
1674 860 1661T890 1640Q912 1630 983 1630H1602Q1710 1630 1726 1651T1748 1699Q1757 1733 1757 1835V1991L1909 1987V1008H1757V1221Q1757 1392 1740 1413T1717 1438T1690 1446T1656 1450H995Q893 1450 873 1430Q848 1403 848 1323V356Q848 250 873 219T979 188Z"
/>
<glyph unicode="&#xcb;" glyph-name="Edieresis" horiz-adv-x="2523" d="M979 188Q1798 196 1954 209T2133 244T2166 298T2232 655L2372 635L2269 0H193V160H299Q452 160 474 175T506 212Q516 238 516 315V2392Q516 2514 472 2544Q434 2568 229 2568H115L111 2732H2220Q2226
2379 2241 2089L2081 2081Q2066 2485 2020 2534Q2006 2549 1974 2552T1782 2556H1085Q916 2556 893 2538T860 2494Q848 2464 848 2363V1794Q848 1674 860 1661T890 1640Q912 1630 983 1630H1602Q1710 1630 1726 1651T1748 1699Q1757 1733 1757 1835V1991L1909 1987V1008H1757V1221Q1757
1392 1740 1413T1717 1438T1690 1446T1656 1450H995Q893 1450 873 1430Q848 1403 848 1323V356Q848 250 873 219T979 188ZM921 3137T856 3204T790 3316T863 3427T978 3493T1079 3421T1138 3306T1069 3200T961 3137ZM1524 3137T1459 3204T1393 3316T1464 3427T1578
3493T1680 3421T1741 3305T1672 3200T1564 3137Z" />
<glyph unicode="&#xcc;" glyph-name="Igrave" horiz-adv-x="1318" d="M234 3559H520L733 2977H586L234 3559ZM111 2568L115 2732H1143V2568H1073Q931 2568 908 2561T867 2543T845 2521T832 2487Q823 2456 823 2380V348Q823 216 845 198T896 171Q934 160 1044 160H1204L1208
0H160L156 160H262Q422 160 446 178T480 221Q492 253 492 340V2421Q492 2528 473 2541T426 2560Q394 2568 283 2568H111Z" />
<glyph unicode="&#xcd;" glyph-name="Iacute" horiz-adv-x="1318" d="M549 2977L762 3559H1049L697 2977H549ZM111 2568L115 2732H1143V2568H1073Q931 2568 908 2561T867 2543T845 2521T832 2487Q823 2456 823 2380V348Q823 216 845 198T896 171Q934 160 1044
160H1204L1208 0H160L156 160H262Q422 160 446 178T480 221Q492 253 492 340V2421Q492 2528 473 2541T426 2560Q394 2568 283 2568H111Z" />
<glyph unicode="&#xce;" glyph-name="Icircumflex" horiz-adv-x="1318" d="M631 3350L381 3055H225Q354 3235 553 3543H795Q941 3312 1123 3055H885Q828 3117 746 3214T631 3350ZM111 2568L115 2732H1143V2568H1073Q931 2568 908 2561T867 2543T845 2521T832 2487Q823
2456 823 2380V348Q823 216 845 198T896 171Q934 160 1044 160H1204L1208 0H160L156 160H262Q422 160 446 178T480 221Q492 253 492 340V2421Q492 2528 473 2541T426 2560Q394 2568 283 2568H111Z" />
<glyph unicode="&#xcf;" glyph-name="Idieresis" horiz-adv-x="1318" d="M111 2568L115 2732H1143V2568H1073Q931 2568 908 2561T867 2543T845 2521T832 2487Q823 2456 823 2380V348Q823 216 845 198T896 171Q934 160 1044 160H1204L1208 0H160L156 160H262Q422
160 446 178T480 221Q492 253 492 340V2421Q492 2528 473 2541T426 2560Q394 2568 283 2568H111ZM303 3137T238 3204T172 3316T245 3427T360 3493T461 3421T520 3306T451 3200T343 3137ZM906 3137T841 3204T775 3316T846 3427T960 3493T1062 3421T1123 3305T1054
3200T946 3137Z" />
<glyph unicode="&#xd0;" glyph-name="Eth" horiz-adv-x="3047" d="M111 2732H1217Q1819 2732 2070 2652Q2409 2544 2616 2268Q2867 1932 2867 1470Q2867 848 2454 428Q2032 0 1241 0H184L180 160H279Q432 160 457 177T487 205T498 238Q504 263 504 340V1311H193L197
1507H504V2421Q504 2528 485 2541T438 2560Q406 2568 295 2568H123L111 2732ZM836 348Q836 242 849 222T882 190T924 174T986 166Q1036 160 1220 160T1588 197T1905 298T2143 453T2313 646T2422 869Q2499 1084 2499 1276T2475 1591T2399 1833T2271 2057T2085 2251T1839
2404Q1552 2540 1155 2540H1004Q933 2540 900 2528Q836 2503 836 2347V1507H1671L1667 1311H836V348Z" />
<glyph unicode="&#xd1;" glyph-name="Ntilde" horiz-adv-x="3047" d="M1045 3084Q1047 3093 1050 3108T1066 3168T1094 3254T1135 3344T1192 3429Q1263 3514 1352 3514T1532 3465L1655 3399Q1735 3358 1783 3358T1866 3377T1922 3423Q1968 3481 1991 3543L2048
3526Q2013 3331 1898 3213Q1828 3141 1751 3141T1590 3178L1463 3240Q1381 3280 1316 3280T1217 3258T1163 3205Q1118 3135 1102 3067L1045 3084ZM111 2732H745L2425 565V2421Q2425 2517 2379 2547Q2346 2568 2200 2568H2056L2064 2732H2937V2568H2843Q2716 2568
2678 2544Q2617 2508 2617 2388V29Q2617 -31 2612 -50T2580 -70H2523Q2489 -70 2482 -61T2471 -47T2455 -26T2433 4L647 2298L668 348Q668 215 720 186Q770 160 971 160H1040V0H180V160H303Q438 160 457 206Q475 250 475 340V2519L434 2568H115L111 2732Z" />
<glyph unicode="&#xd2;" glyph-name="Ograve" horiz-adv-x="3268" d="M1213 3559H1499L1712 2977H1565L1213 3559ZM221 1381Q221 1575 277 1781T432 2145T665 2426T959 2628Q1284 2789 1642 2789Q2115 2789 2491 2528Q2889 2251 3006 1742Q3047 1563 3047 1387T3019
1061T2931 769T2785 502T2580 273T2316 93Q2012 -66 1610 -66Q1049 -66 673 265Q221 662 221 1381ZM658 1978T624 1819T590 1496T613 1191T685 915T802 660T966 439T1174 265Q1411 111 1720 111Q1969 111 2186 237Q2402 362 2536 619Q2675 883 2675 1262Q2675 1874
2322 2266Q2119 2493 1831 2580Q1695 2621 1584 2621T1385 2605T1202 2550T1019 2452T853 2301T716 2093Z" />
<glyph unicode="&#xd3;" glyph-name="Oacute" horiz-adv-x="3268" d="M1528 2977L1741 3559H2028L1676 2977H1528ZM221 1381Q221 1575 277 1781T432 2145T665 2426T959 2628Q1284 2789 1642 2789Q2115 2789 2491 2528Q2889 2251 3006 1742Q3047 1563 3047 1387T3019
1061T2931 769T2785 502T2580 273T2316 93Q2012 -66 1610 -66Q1049 -66 673 265Q221 662 221 1381ZM658 1978T624 1819T590 1496T613 1191T685 915T802 660T966 439T1174 265Q1411 111 1720 111Q1969 111 2186 237Q2402 362 2536 619Q2675 883 2675 1262Q2675 1874
2322 2266Q2119 2493 1831 2580Q1695 2621 1584 2621T1385 2605T1202 2550T1019 2452T853 2301T716 2093Z" />
<glyph unicode="&#xd4;" glyph-name="Ocircumflex" horiz-adv-x="3268" d="M1610 3350L1360 3055H1204Q1333 3235 1532 3543H1774Q1920 3312 2102 3055H1864Q1807 3117 1725 3214T1610 3350ZM221 1381Q221 1575 277 1781T432 2145T665 2426T959 2628Q1284 2789
1642 2789Q2115 2789 2491 2528Q2889 2251 3006 1742Q3047 1563 3047 1387T3019 1061T2931 769T2785 502T2580 273T2316 93Q2012 -66 1610 -66Q1049 -66 673 265Q221 662 221 1381ZM658 1978T624 1819T590 1496T613 1191T685 915T802 660T966 439T1174 265Q1411
111 1720 111Q1969 111 2186 237Q2402 362 2536 619Q2675 883 2675 1262Q2675 1874 2322 2266Q2119 2493 1831 2580Q1695 2621 1584 2621T1385 2605T1202 2550T1019 2452T853 2301T716 2093Z" />
<glyph unicode="&#xd5;" glyph-name="Otilde" horiz-adv-x="3268" d="M1135 3084Q1137 3093 1140 3108T1156 3168T1184 3254T1225 3344T1282 3429Q1353 3514 1442 3514T1622 3465L1745 3399Q1825 3358 1873 3358T1956 3377T2012 3423Q2058 3481 2081 3543L2138
3526Q2103 3331 1988 3213Q1918 3141 1841 3141T1680 3178L1553 3240Q1471 3280 1406 3280T1307 3258T1253 3205Q1208 3135 1192 3067L1135 3084ZM221 1381Q221 1575 277 1781T432 2145T665 2426T959 2628Q1284 2789 1642 2789Q2115 2789 2491 2528Q2889 2251 3006
1742Q3047 1563 3047 1387T3019 1061T2931 769T2785 502T2580 273T2316 93Q2012 -66 1610 -66Q1049 -66 673 265Q221 662 221 1381ZM658 1978T624 1819T590 1496T613 1191T685 915T802 660T966 439T1174 265Q1411 111 1720 111Q1969 111 2186 237Q2402 362 2536
619Q2675 883 2675 1262Q2675 1874 2322 2266Q2119 2493 1831 2580Q1695 2621 1584 2621T1385 2605T1202 2550T1019 2452T853 2301T716 2093Z" />
<glyph unicode="&#xd6;" glyph-name="Odieresis" horiz-adv-x="3268" d="M221 1381Q221 1575 277 1781T432 2145T665 2426T959 2628Q1284 2789 1642 2789Q2115 2789 2491 2528Q2889 2251 3006 1742Q3047 1563 3047 1387T3019 1061T2931 769T2785 502T2580 273T2316
93Q2012 -66 1610 -66Q1049 -66 673 265Q221 662 221 1381ZM658 1978T624 1819T590 1496T613 1191T685 915T802 660T966 439T1174 265Q1411 111 1720 111Q1969 111 2186 237Q2402 362 2536 619Q2675 883 2675 1262Q2675 1874 2322 2266Q2119 2493 1831 2580Q1695
2621 1584 2621T1385 2605T1202 2550T1019 2452T853 2301T716 2093ZM1282 3137T1217 3204T1151 3316T1224 3427T1339 3493T1440 3421T1499 3306T1430 3200T1322 3137ZM1885 3137T1820 3204T1754 3316T1825 3427T1939 3493T2041 3421T2102 3305T2033 3200T1925 3137Z"
/>
<glyph unicode="&#xd7;" glyph-name="multiply" horiz-adv-x="2412" d="M246 172Q886 812 1018 926L1061 963Q1010 989 246 1753L418 1921Q1117 1222 1204 1106Q1268 1194 1995 1921L2167 1753Q1518 1104 1396 1001L1352 963Q1440 899 2167 172L1995 4Q1375 624
1242 774L1204 819Q1117 703 418 4L246 172Z" />
<glyph unicode="&#xd8;" glyph-name="Oslash" horiz-adv-x="3268" d="M352 660T287 880T221 1338T277 1781T432 2145T665 2426T959 2628Q1284 2789 1626 2789T2273 2650L2441 2937L2609 2839L2445 2560Q2878 2275 3002 1758Q3047 1572 3047 1391T3019 1061T2931
769T2785 502T2580 273T2316 93Q2012 -66 1641 -66T999 57L729 -414L561 -315L827 147Q629 273 491 466ZM590 1418Q590 1176 692 897T987 422L2142 2429Q1876 2621 1556 2621Q1271 2621 1019 2452Q590 2163 590 1418ZM1139 291Q1405 111 1720 111Q1969 111 2186
237Q2402 362 2536 619Q2675 883 2675 1237Q2675 1908 2298 2298L1139 291Z" />
<glyph unicode="&#xd9;" glyph-name="Ugrave" horiz-adv-x="2953" d="M1139 3559H1425L1638 2977H1491L1139 3559ZM111 2568V2732H1094L1098 2568H942Q820 2568 771 2540T721 2417V901Q721 616 900 412Q1118 164 1577 164Q2091 164 2266 382Q2329 459 2361 524T2410
702Q2433 854 2433 1094V2421Q2433 2517 2387 2547Q2354 2568 2208 2568H2064L2073 2732H2843V2568H2785Q2716 2568 2686 2557Q2626 2536 2626 2388V934Q2626 254 2154 33Q1925 -74 1577 -74Q692 -74 464 474Q389 655 389 881V2421Q389 2523 360 2542Q323 2568
221 2568H111Z" />
<glyph unicode="&#xda;" glyph-name="Uacute" horiz-adv-x="2953" d="M1454 2977L1667 3559H1954L1602 2977H1454ZM111 2568V2732H1094L1098 2568H942Q820 2568 771 2540T721 2417V901Q721 616 900 412Q1118 164 1577 164Q2091 164 2266 382Q2329 459 2361 524T2410
702Q2433 854 2433 1094V2421Q2433 2517 2387 2547Q2354 2568 2208 2568H2064L2073 2732H2843V2568H2785Q2716 2568 2686 2557Q2626 2536 2626 2388V934Q2626 254 2154 33Q1925 -74 1577 -74Q692 -74 464 474Q389 655 389 881V2421Q389 2523 360 2542Q323 2568
221 2568H111Z" />
<glyph unicode="&#xdb;" glyph-name="Ucircumflex" horiz-adv-x="2953" d="M1536 3350L1286 3055H1130Q1259 3235 1458 3543H1700Q1846 3312 2028 3055H1790Q1733 3117 1651 3214T1536 3350ZM111 2568V2732H1094L1098 2568H942Q820 2568 771 2540T721 2417V901Q721
616 900 412Q1118 164 1577 164Q2091 164 2266 382Q2329 459 2361 524T2410 702Q2433 854 2433 1094V2421Q2433 2517 2387 2547Q2354 2568 2208 2568H2064L2073 2732H2843V2568H2785Q2716 2568 2686 2557Q2626 2536 2626 2388V934Q2626 254 2154 33Q1925 -74 1577
-74Q692 -74 464 474Q389 655 389 881V2421Q389 2523 360 2542Q323 2568 221 2568H111Z" />
<glyph unicode="&#xdc;" glyph-name="Udieresis" horiz-adv-x="2953" d="M111 2568V2732H1094L1098 2568H942Q820 2568 771 2540T721 2417V901Q721 616 900 412Q1118 164 1577 164Q2091 164 2266 382Q2329 459 2361 524T2410 702Q2433 854 2433 1094V2421Q2433
2517 2387 2547Q2354 2568 2208 2568H2064L2073 2732H2843V2568H2785Q2716 2568 2686 2557Q2626 2536 2626 2388V934Q2626 254 2154 33Q1925 -74 1577 -74Q692 -74 464 474Q389 655 389 881V2421Q389 2523 360 2542Q323 2568 221 2568H111ZM1208 3137T1143 3204T1077
3316T1150 3427T1265 3493T1366 3421T1425 3306T1356 3200T1248 3137ZM1811 3137T1746 3204T1680 3316T1751 3427T1865 3493T1967 3421T2028 3305T1959 3200T1851 3137Z" />
<glyph unicode="&#xdd;" glyph-name="Yacute" horiz-adv-x="2699" d="M1315 2977L1528 3559H1815L1463 2977H1315ZM152 2568L156 2732H1073V2568H991Q871 2568 825 2559T778 2515Q778 2496 852 2372L1438 1450L2154 2466Q2179 2508 2179 2515Q2179 2549 2117 2558T1913
2568H1847L1843 2732H2589V2568H2568Q2459 2568 2436 2552T2390 2515Q2355 2483 2294 2396L1495 1241V348Q1495 239 1504 221T1527 190T1555 174T1599 166Q1633 160 1737 160H1921L1917 0H766L770 160H934Q1085 160 1111 177T1144 207T1156 240Q1163 267 1163 340V1274L492
2318Q393 2473 362 2511T290 2559T152 2568Z" />
<glyph unicode="&#xde;" glyph-name="Thorn" horiz-adv-x="2445" d="M111 2568L115 2732H1143V2568H1012Q885 2568 868 2550T840 2510Q823 2477 823 2380V2228H1077Q1499 2228 1614 2195Q1809 2139 1942 2031T2170 1740T2265 1323Q2265 958 1960 736Q1743 578
1401 578Q1139 578 857 655Q824 664 823 664V348Q823 217 845 198T894 171Q931 160 1036 160H1204L1208 0H160L156 160H291Q428 160 449 179T480 221Q492 253 492 340V2421Q492 2528 473 2541T426 2560Q394 2568 283 2568H111ZM823 786Q926 709 1229 709T1706 867T1880
1331Q1880 1747 1494 1947Q1261 2068 946 2068Q895 2068 871 2056Q823 2032 823 1876V786Z" />
<glyph unicode="&#xdf;" glyph-name="germandbls" horiz-adv-x="2101" d="M70 131H111Q251 131 270 139T301 154T318 174Q328 201 328 242V1409H98L160 1606H332V2048Q332 2267 356 2357T409 2518T480 2648Q705 2966 1069 2966Q1312 2966 1456 2786Q1593 2614
1593 2400Q1593 2268 1400 2074Q1255 1930 1205 1868Q1100 1740 1098 1618Q1098 1440 1425 1118L1593 954Q1608 939 1655 894T1719 832T1773 774T1827 711T1867 650T1902 578Q1929 493 1929 440T1924 351T1904 269T1865 182T1798 103T1698 34Q1572 -29 1437 -29T1241
-18T1142 4T1090 16Q1061 16 1061 -33L1065 -78L942 -82L868 496L999 508L1040 246Q1227 106 1413 106Q1533 106 1598 196Q1634 244 1634 311Q1634 493 1331 774L1204 897Q1200 901 1179 920T1137 960T1079 1024T1014 1112T960 1213Q905 1328 905 1445T930 1640T995
1780T1083 1899T1181 2006T1270 2102Q1360 2206 1360 2305T1330 2496T1255 2644T1152 2736Q1052 2802 968 2802T833 2778T744 2705T684 2591T646 2463T624 2330Q614 2219 614 2146V254Q614 170 634 154Q661 131 721 131H786V0H74L70 131Z" />
<glyph unicode="&#xe0;" glyph-name="agrave" horiz-adv-x="1556" d="M312 2580H598L811 1917H664L312 2580ZM238 1016Q143 1016 143 1163Q143 1258 239 1382Q424 1622 860 1622Q1108 1622 1192 1442Q1221 1379 1221 1294V528Q1221 342 1290 264Q1355 192 1487
156Q1524 146 1524 122T1472 66Q1252 -67 1241 -70Q1150 -6 1108 43Q1056 102 967 217Q885 106 752 31T519 -45T355 -27T235 27Q111 107 111 269T219 576T517 806T934 893V1139Q934 1315 864 1374Q798 1430 689 1430T515 1417T418 1385Q348 1345 328 1303Q334 1276
345 1236Q369 1150 369 1114T321 1047T238 1016ZM397 374Q397 293 456 235T614 176T765 191T850 229T901 284Q934 335 934 401V782Q686 782 537 651Q397 528 397 374Z" />
<glyph unicode="&#xe1;" glyph-name="aacute" horiz-adv-x="1556" d="M627 1917L840 2580H1127L775 1917H627ZM238 1016Q143 1016 143 1163Q143 1258 239 1382Q424 1622 860 1622Q1108 1622 1192 1442Q1221 1379 1221 1294V528Q1221 342 1290 264Q1355 192 1487
156Q1524 146 1524 122T1472 66Q1252 -67 1241 -70Q1150 -6 1108 43Q1056 102 967 217Q885 106 752 31T519 -45T355 -27T235 27Q111 107 111 269T219 576T517 806T934 893V1139Q934 1315 864 1374Q798 1430 689 1430T515 1417T418 1385Q348 1345 328 1303Q334 1276
345 1236Q369 1150 369 1114T321 1047T238 1016ZM397 374Q397 293 456 235T614 176T765 191T850 229T901 284Q934 335 934 401V782Q686 782 537 651Q397 528 397 374Z" />
<glyph unicode="&#xe2;" glyph-name="acircumflex" horiz-adv-x="1556" d="M303 1917Q417 2093 631 2478H873Q891 2446 937 2362T1005 2237T1066 2131Q1133 2013 1201 1917H963Q902 1985 819 2116T709 2286Q680 2243 630 2162Q519 1987 459 1917H303ZM238 1016Q143
1016 143 1163Q143 1258 239 1382Q424 1622 860 1622Q1108 1622 1192 1442Q1221 1379 1221 1294V528Q1221 342 1290 264Q1355 192 1487 156Q1524 146 1524 122T1472 66Q1252 -67 1241 -70Q1150 -6 1108 43Q1056 102 967 217Q885 106 752 31T519 -45T355 -27T235
27Q111 107 111 269T219 576T517 806T934 893V1139Q934 1315 864 1374Q798 1430 689 1430T515 1417T418 1385Q348 1345 328 1303Q334 1276 345 1236Q369 1150 369 1114T321 1047T238 1016ZM397 374Q397 293 456 235T614 176T765 191T850 229T901 284Q934 335 934
401V782Q686 782 537 651Q397 528 397 374Z" />
<glyph unicode="&#xe3;" glyph-name="atilde" horiz-adv-x="1556" d="M226 1978Q228 1987 231 2002T247 2062T275 2148T316 2238T373 2324Q444 2408 537 2408T713 2363L836 2298Q916 2257 962 2257T1043 2275T1099 2320Q1146 2377 1168 2437L1229 2425Q1194 2230
1079 2112Q1009 2040 925 2040T766 2073L639 2138Q555 2179 491 2179T394 2157T340 2104Q299 2036 283 1966L226 1978ZM238 1016Q143 1016 143 1163Q143 1258 239 1382Q424 1622 860 1622Q1108 1622 1192 1442Q1221 1379 1221 1294V528Q1221 342 1290 264Q1355
192 1487 156Q1524 146 1524 122T1472 66Q1252 -67 1241 -70Q1150 -6 1108 43Q1056 102 967 217Q885 106 752 31T519 -45T355 -27T235 27Q111 107 111 269T219 576T517 806T934 893V1139Q934 1315 864 1374Q798 1430 689 1430T515 1417T418 1385Q348 1345 328 1303Q334
1276 345 1236Q369 1150 369 1114T321 1047T238 1016ZM397 374Q397 293 456 235T614 176T765 191T850 229T901 284Q934 335 934 401V782Q686 782 537 651Q397 528 397 374Z" />
<glyph unicode="&#xe4;" glyph-name="adieresis" horiz-adv-x="1556" d="M238 1016Q143 1016 143 1163Q143 1258 239 1382Q424 1622 860 1622Q1108 1622 1192 1442Q1221 1379 1221 1294V528Q1221 342 1290 264Q1355 192 1487 156Q1524 146 1524 122T1472 66Q1252
-67 1241 -70Q1150 -6 1108 43Q1056 102 967 217Q885 106 752 31T519 -45T355 -27T235 27Q111 107 111 269T219 576T517 806T934 893V1139Q934 1315 864 1374Q798 1430 689 1430T515 1417T418 1385Q348 1345 328 1303Q334 1276 345 1236Q369 1150 369 1114T321
1047T238 1016ZM397 374Q397 293 456 235T614 176T765 191T850 229T901 284Q934 335 934 401V782Q686 782 537 651Q397 528 397 374ZM991 2064T926 2131T861 2244T934 2355T1049 2421T1150 2349T1209 2233T1140 2127T1031 2064ZM394 2064T329 2131T263 2243T334
2354T448 2420T550 2348T611 2232T542 2127T434 2064Z" />
<glyph unicode="&#xe5;" glyph-name="aring" horiz-adv-x="1556" d="M624 1909T519 1996T414 2184T460 2365T585 2498T770 2552T977 2452T1078 2225T983 2004T756 1909ZM569 2297T561 2267T553 2182T608 2080T746 2032Q934 2032 934 2224Q934 2374 807 2412Q777
2421 733 2421T648 2396T588 2334ZM238 1016Q143 1016 143 1163Q143 1258 239 1382Q424 1622 860 1622Q1108 1622 1192 1442Q1221 1379 1221 1294V528Q1221 342 1290 264Q1355 192 1487 156Q1524 146 1524 122T1472 66Q1252 -67 1241 -70Q1150 -6 1108 43Q1056
102 967 217Q885 106 752 31T519 -45T355 -27T235 27Q111 107 111 269T219 576T517 806T934 893V1139Q934 1315 864 1374Q798 1430 689 1430T515 1417T418 1385Q348 1345 328 1303Q334 1276 345 1236Q369 1150 369 1114T321 1047T238 1016ZM397 374Q397 293 456
235T614 176T765 191T850 229T901 284Q934 335 934 401V782Q686 782 537 651Q397 528 397 374Z" />
<glyph unicode="&#xe6;" glyph-name="ae" horiz-adv-x="2600" d="M332 1016Q238 1016 238 1163Q238 1265 311 1357T453 1503Q613 1626 852 1626Q1159 1626 1236 1335Q1254 1267 1257 1257Q1308 1413 1448 1523T1719 1634T1942 1607T2104 1536T2234 1435T2332 1320Q2413
1198 2413 1140T2389 1065T2347 1049L1331 934V868Q1331 409 1690 268Q1800 225 1920 225T2139 252T2294 311Q2443 397 2466 397Q2503 397 2503 360T2470 277T2370 173T2217 66Q2015 -53 1793 -53T1414 54T1171 324Q1026 34 723 -44Q638 -66 558 -66T407 -48T274
6Q131 87 131 233T212 502T424 708Q710 893 1065 893L1069 1032Q1069 1203 1047 1256T1001 1339T944 1388Q870 1430 772 1430T610 1417T512 1385Q441 1345 422 1303Q427 1279 438 1237Q459 1157 459 1118T412 1047T332 1016ZM430 346Q430 265 492 217T633 168T777
181T889 217T979 265T1049 317Q1108 371 1135 414Q1077 643 1069 782Q819 782 622 639Q430 500 430 346ZM1348 1081L2032 1159Q1961 1407 1798 1476Q1753 1495 1704 1495Q1577 1495 1479 1387T1348 1081Z" />
<glyph unicode="&#xe7;" glyph-name="ccedilla" horiz-adv-x="1650" d="M819 -270L889 -266Q1074 -266 1177 -318Q1360 -410 1360 -578Q1360 -806 1078 -880Q1000 -901 915 -901Q745 -901 651 -848L737 -750Q860 -791 944 -791T1082 -737T1135 -608T1108 -492T1034
-430Q944 -389 862 -389T750 -393L700 -324L791 -49Q270 -17 140 434Q98 578 98 728T128 1008T221 1252T372 1454Q564 1642 852 1642Q1223 1642 1434 1440Q1479 1397 1479 1370T1445 1317T1366 1278Q1271 1249 1232 1249T1150 1272T1065 1330T978 1398Q871 1479
780 1479T619 1434T506 1321T436 1164Q389 1012 389 856T427 585T527 399T669 279Q814 193 964 193T1217 208T1369 242T1459 275T1516 291Q1548 291 1548 256T1491 171T1344 71Q1128 -47 885 -53L819 -270Z" />
<glyph unicode="&#xe8;" glyph-name="egrave" horiz-adv-x="1691" d="M414 2580H700L913 1917H766L414 2580ZM410 926L406 868Q406 411 772 268Q882 225 992 225T1185 245T1324 293T1426 350Q1537 418 1556 418Q1593 418 1593 381T1559 295T1457 187T1302 74Q1096
-53 848 -53Q511 -53 310 164Q98 395 98 750Q98 1145 308 1392Q514 1634 823 1634Q1169 1634 1391 1356Q1503 1216 1503 1110Q1503 1081 1480 1065T1438 1049L410 926ZM418 1069L1122 1159Q1096 1250 1038 1325T948 1429Q871 1495 763 1495T553 1381T418 1069Z"
/>
<glyph unicode="&#xe9;" glyph-name="eacute" horiz-adv-x="1691" d="M729 1917L942 2580H1229L877 1917H729ZM410 926L406 868Q406 411 772 268Q882 225 992 225T1185 245T1324 293T1426 350Q1537 418 1556 418Q1593 418 1593 381T1559 295T1457 187T1302 74Q1096
-53 848 -53Q511 -53 310 164Q98 395 98 750Q98 1145 308 1392Q514 1634 823 1634Q1169 1634 1391 1356Q1503 1216 1503 1110Q1503 1081 1480 1065T1438 1049L410 926ZM418 1069L1122 1159Q1096 1250 1038 1325T948 1429Q871 1495 763 1495T553 1381T418 1069Z"
/>
<glyph unicode="&#xea;" glyph-name="ecircumflex" horiz-adv-x="1691" d="M405 1917Q519 2093 733 2478H975Q993 2446 1039 2362T1107 2237T1168 2131Q1235 2013 1303 1917H1065Q1004 1985 921 2116T811 2286Q782 2243 732 2162Q621 1987 561 1917H405ZM410 926L406
868Q406 411 772 268Q882 225 992 225T1185 245T1324 293T1426 350Q1537 418 1556 418Q1593 418 1593 381T1559 295T1457 187T1302 74Q1096 -53 848 -53Q511 -53 310 164Q98 395 98 750Q98 1145 308 1392Q514 1634 823 1634Q1169 1634 1391 1356Q1503 1216 1503
1110Q1503 1081 1480 1065T1438 1049L410 926ZM418 1069L1122 1159Q1096 1250 1038 1325T948 1429Q871 1495 763 1495T553 1381T418 1069Z" />
<glyph unicode="&#xeb;" glyph-name="edieresis" horiz-adv-x="1691" d="M410 926L406 868Q406 411 772 268Q882 225 992 225T1185 245T1324 293T1426 350Q1537 418 1556 418Q1593 418 1593 381T1559 295T1457 187T1302 74Q1096 -53 848 -53Q511 -53 310 164Q98
395 98 750Q98 1145 308 1392Q514 1634 823 1634Q1169 1634 1391 1356Q1503 1216 1503 1110Q1503 1081 1480 1065T1438 1049L410 926ZM418 1069L1122 1159Q1096 1250 1038 1325T948 1429Q871 1495 763 1495T553 1381T418 1069ZM1093 2064T1028 2131T963 2244T1036
2355T1151 2421T1252 2349T1311 2233T1242 2127T1133 2064ZM496 2064T431 2131T365 2243T436 2354T550 2420T652 2348T713 2232T644 2127T536 2064Z" />
<glyph unicode="&#xec;" glyph-name="igrave" horiz-adv-x="1085" d="M107 2580H393L606 1917H459L107 2580ZM111 1540Q415 1589 688 1663V242Q688 164 724 150Q771 131 942 131H1016V0H127V131H164Q351 131 370 148Q401 177 401 225V1319Q401 1397 388 1423T329
1450T115 1417L111 1540Z" />
<glyph unicode="&#xed;" glyph-name="iacute" horiz-adv-x="1085" d="M422 1917L635 2580H922L570 1917H422ZM111 1540Q415 1589 688 1663V242Q688 164 724 150Q771 131 942 131H1016V0H127V131H164Q351 131 370 148Q401 177 401 225V1319Q401 1397 388 1423T329
1450T115 1417L111 1540Z" />
<glyph unicode="&#xee;" glyph-name="icircumflex" horiz-adv-x="1085" d="M98 1917Q212 2093 426 2478H668Q686 2446 732 2362T800 2237T861 2131Q928 2013 996 1917H758Q697 1985 614 2116T504 2286Q475 2243 425 2162Q314 1987 254 1917H98ZM111 1540Q415 1589
688 1663V242Q688 164 724 150Q771 131 942 131H1016V0H127V131H164Q351 131 370 148Q401 177 401 225V1319Q401 1397 388 1423T329 1450T115 1417L111 1540Z" />
<glyph unicode="&#xef;" glyph-name="idieresis" horiz-adv-x="1085" d="M111 1540Q415 1589 688 1663V242Q688 164 724 150Q771 131 942 131H1016V0H127V131H164Q351 131 370 148Q401 177 401 225V1319Q401 1397 388 1423T329 1450T115 1417L111 1540ZM750 2064T685
2131T619 2243T690 2354T804 2420T906 2348T967 2232T898 2127T790 2064ZM230 2064T165 2131T99 2243T170 2354T284 2420T386 2348T447 2232T378 2127T270 2064Z" />
<glyph unicode="&#xf0;" glyph-name="eth" horiz-adv-x="1884" d="M1274 2372Q1782 1674 1782 877Q1782 472 1566 216Q1332 -61 979 -61Q478 -61 239 303Q102 511 102 782Q102 1199 390 1452Q588 1626 885 1626Q1107 1626 1280 1525Q1304 1511 1349 1483T1409
1446Q1377 1681 1296 1849Q1160 2133 1095 2228L1065 2273Q1015 2248 943 2214T828 2159Q738 2115 606 2044L463 2195L942 2421Q747 2699 365 2937H651Q815 2847 951 2718T1151 2515Q1524 2683 1565 2695L1712 2560Q1553 2504 1425 2443T1274 2372ZM551 1307T491
1158T430 868T455 620T532 421T654 258Q806 106 1028 106Q1397 106 1471 632Q1487 745 1487 844Q1487 999 1456 1176L1446 1233Q1435 1243 1416 1260T1338 1322T1220 1401Q1064 1491 921 1491T664 1399Z" />
<glyph unicode="&#xf1;" glyph-name="ntilde" horiz-adv-x="1896" d="M459 1978Q461 1987 464 2002T480 2062T508 2148T549 2238T606 2324Q677 2408 770 2408T946 2363L1069 2298Q1149 2257 1195 2257T1276 2275T1332 2320Q1379 2377 1401 2437L1462 2425Q1427
2230 1312 2112Q1242 2040 1158 2040T999 2073L872 2138Q788 2179 724 2179T627 2157T573 2104Q532 2036 516 1966L459 1978ZM1290 1248T1228 1318T1006 1389T582 1257V228Q582 177 604 160T641 141T685 136Q722 131 827 131H881L872 0H74L70 131Q121 131 158 131T217
134T250 140T271 152T285 168T292 193T295 226V1245Q295 1376 285 1413T233 1450Q222 1450 78 1417V1544L582 1647Q569 1488 569 1356Q583 1362 625 1393T722 1461T846 1534Q1006 1618 1137 1618T1330 1597T1433 1546T1502 1459T1545 1356T1568 1229Q1577 1128
1577 958V254Q1577 167 1622 149T1827 131L1823 0H1061L1057 131H1151Q1258 131 1270 153Q1290 190 1290 254V1077Q1290 1248 1228 1318Z" />
<glyph unicode="&#xf2;" glyph-name="ograve" horiz-adv-x="1875" d="M504 2580H790L1003 1917H856L504 2580ZM102 801Q102 929 132 1050T226 1279T384 1468Q588 1642 913 1642Q1316 1642 1540 1406Q1774 1161 1774 754Q1774 405 1546 174Q1312 -61 922 -61Q460
-61 232 317Q102 532 102 801ZM430 914Q430 784 454 670T525 453T637 271T789 145T975 98T1151 135T1280 235T1366 384Q1430 544 1430 745T1386 1089T1264 1322Q1106 1503 877 1503Q693 1503 564 1351Q430 1192 430 914Z" />
<glyph unicode="&#xf3;" glyph-name="oacute" horiz-adv-x="1875" d="M819 1917L1032 2580H1319L967 1917H819ZM102 801Q102 929 132 1050T226 1279T384 1468Q588 1642 913 1642Q1316 1642 1540 1406Q1774 1161 1774 754Q1774 405 1546 174Q1312 -61 922 -61Q460
-61 232 317Q102 532 102 801ZM430 914Q430 784 454 670T525 453T637 271T789 145T975 98T1151 135T1280 235T1366 384Q1430 544 1430 745T1386 1089T1264 1322Q1106 1503 877 1503Q693 1503 564 1351Q430 1192 430 914Z" />
<glyph unicode="&#xf4;" glyph-name="ocircumflex" horiz-adv-x="1875" d="M495 1917Q609 2093 823 2478H1065Q1083 2446 1129 2362T1197 2237T1258 2131Q1325 2013 1393 1917H1155Q1094 1985 1011 2116T901 2286Q872 2243 822 2162Q711 1987 651 1917H495ZM102
801Q102 929 132 1050T226 1279T384 1468Q588 1642 913 1642Q1316 1642 1540 1406Q1774 1161 1774 754Q1774 405 1546 174Q1312 -61 922 -61Q460 -61 232 317Q102 532 102 801ZM430 914Q430 784 454 670T525 453T637 271T789 145T975 98T1151 135T1280 235T1366
384Q1430 544 1430 745T1386 1089T1264 1322Q1106 1503 877 1503Q693 1503 564 1351Q430 1192 430 914Z" />
<glyph unicode="&#xf5;" glyph-name="otilde" horiz-adv-x="1875" d="M418 1978Q420 1987 423 2002T439 2062T467 2148T508 2238T565 2324Q636 2408 729 2408T905 2363L1028 2298Q1108 2257 1154 2257T1235 2275T1291 2320Q1338 2377 1360 2437L1421 2425Q1386
2230 1271 2112Q1201 2040 1117 2040T958 2073L831 2138Q747 2179 683 2179T586 2157T532 2104Q491 2036 475 1966L418 1978ZM102 801Q102 929 132 1050T226 1279T384 1468Q588 1642 913 1642Q1316 1642 1540 1406Q1774 1161 1774 754Q1774 405 1546 174Q1312 -61
922 -61Q460 -61 232 317Q102 532 102 801ZM430 914Q430 784 454 670T525 453T637 271T789 145T975 98T1151 135T1280 235T1366 384Q1430 544 1430 745T1386 1089T1264 1322Q1106 1503 877 1503Q693 1503 564 1351Q430 1192 430 914Z" />
<glyph unicode="&#xf6;" glyph-name="odieresis" horiz-adv-x="1875" d="M102 801Q102 929 132 1050T226 1279T384 1468Q588 1642 913 1642Q1316 1642 1540 1406Q1774 1161 1774 754Q1774 405 1546 174Q1312 -61 922 -61Q460 -61 232 317Q102 532 102 801ZM430
914Q430 784 454 670T525 453T637 271T789 145T975 98T1151 135T1280 235T1366 384Q1430 544 1430 745T1386 1089T1264 1322Q1106 1503 877 1503Q693 1503 564 1351Q430 1192 430 914ZM1183 2064T1118 2131T1053 2244T1126 2355T1241 2421T1342 2349T1401 2233T1332
2127T1223 2064ZM586 2064T521 2131T455 2243T526 2354T640 2420T742 2348T803 2232T734 2127T626 2064Z" />
<glyph unicode="&#xf7;" glyph-name="divide" horiz-adv-x="2965" d="M1233 218T1233 319T1307 494T1483 569T1656 495T1729 320T1657 146T1483 74T1307 146ZM1233 1505T1233 1606T1307 1779T1482 1851T1656 1779T1729 1606T1657 1430T1483 1356T1308 1430ZM543
844V1081H2935V844H543Z" />
<glyph unicode="&#xf8;" glyph-name="oslash" horiz-adv-x="1871" d="M271 208T185 399T98 760T128 1050T222 1279T380 1468Q584 1642 909 1642Q1131 1642 1294 1573L1380 1720L1491 1655L1409 1511Q1682 1334 1751 954Q1769 855 1769 719T1709 433T1540 174Q1307
-61 918 -61Q718 -61 549 20L406 -229L291 -168L434 86Q271 208 185 399ZM582 340L1188 1389Q1056 1503 872 1503Q687 1503 560 1351Q426 1191 426 889T582 340ZM672 233Q807 98 971 98Q1247 98 1362 384Q1425 544 1425 766Q1425 1095 1282 1290L672 233Z" />
<glyph unicode="&#xf9;" glyph-name="ugrave" horiz-adv-x="1892" d="M496 2580H782L995 1917H848L496 2580ZM205 1475L70 1462V1585Q386 1614 569 1647V623Q569 361 656 274Q737 193 909 193Q1162 193 1278 348V1348Q1278 1425 1260 1447T1206 1470T1126 1466Q1022
1456 1016 1450L1004 1577Q1232 1592 1565 1647V455Q1565 183 1584 159Q1606 131 1637 131T1823 176V45Q1677 15 1521 -29T1319 -86Q1313 60 1290 205Q1139 39 928 -32Q844 -61 762 -61T610 -43T491 8T404 87T344 187T307 306Q283 418 283 565V1372Q283 1434 266
1454T205 1475Z" />
<glyph unicode="&#xfa;" glyph-name="uacute" horiz-adv-x="1892" d="M811 1917L1024 2580H1311L959 1917H811ZM205 1475L70 1462V1585Q386 1614 569 1647V623Q569 361 656 274Q737 193 909 193Q1162 193 1278 348V1348Q1278 1425 1260 1447T1206 1470T1126 1466Q1022
1456 1016 1450L1004 1577Q1232 1592 1565 1647V455Q1565 183 1584 159Q1606 131 1637 131T1823 176V45Q1677 15 1521 -29T1319 -86Q1313 60 1290 205Q1139 39 928 -32Q844 -61 762 -61T610 -43T491 8T404 87T344 187T307 306Q283 418 283 565V1372Q283 1434 266
1454T205 1475Z" />
<glyph unicode="&#xfb;" glyph-name="ucircumflex" horiz-adv-x="1892" d="M487 1917Q601 2093 815 2478H1057Q1075 2446 1121 2362T1189 2237T1250 2131Q1317 2013 1385 1917H1147Q1086 1985 1003 2116T893 2286Q864 2243 814 2162Q703 1987 643 1917H487ZM205
1475L70 1462V1585Q386 1614 569 1647V623Q569 361 656 274Q737 193 909 193Q1162 193 1278 348V1348Q1278 1425 1260 1447T1206 1470T1126 1466Q1022 1456 1016 1450L1004 1577Q1232 1592 1565 1647V455Q1565 183 1584 159Q1606 131 1637 131T1823 176V45Q1677
15 1521 -29T1319 -86Q1313 60 1290 205Q1139 39 928 -32Q844 -61 762 -61T610 -43T491 8T404 87T344 187T307 306Q283 418 283 565V1372Q283 1434 266 1454T205 1475Z" />
<glyph unicode="&#xfc;" glyph-name="udieresis" horiz-adv-x="1892" d="M205 1475L70 1462V1585Q386 1614 569 1647V623Q569 361 656 274Q737 193 909 193Q1162 193 1278 348V1348Q1278 1425 1260 1447T1206 1470T1126 1466Q1022 1456 1016 1450L1004 1577Q1232
1592 1565 1647V455Q1565 183 1584 159Q1606 131 1637 131T1823 176V45Q1677 15 1521 -29T1319 -86Q1313 60 1290 205Q1139 39 928 -32Q844 -61 762 -61T610 -43T491 8T404 87T344 187T307 306Q283 418 283 565V1372Q283 1434 266 1454T205 1475ZM1175 2064T1110
2131T1045 2244T1118 2355T1233 2421T1334 2349T1393 2233T1324 2127T1215 2064ZM578 2064T513 2131T447 2243T518 2354T632 2420T734 2348T795 2232T726 2127T618 2064Z" />
<glyph unicode="&#xfd;" glyph-name="yacute" horiz-adv-x="1921" d="M885 1917L1098 2580H1385L1033 1917H885ZM184 -705L303 -713Q368 -713 471 -574T754 -86L877 152L365 1253Q354 1278 337 1316T314 1367T295 1404T275 1433T253 1451T225 1465T189 1471T140
1475H78L70 1606H852L844 1475H774Q695 1475 663 1465T631 1429T636 1385T647 1351T664 1311T680 1274L1028 492L1286 1073Q1421 1371 1421 1412T1383 1464T1241 1475H1184V1606H1851V1475H1753Q1697 1475 1679 1470T1652 1462T1630 1447T1613 1428T1596 1399T1578
1363Q1556 1310 1532 1257L909 -119Q534 -946 323 -1036Q266 -1061 192 -1061T74 -1009T29 -873T72 -748T184 -705Z" />
<glyph unicode="&#xfe;" glyph-name="thorn" horiz-adv-x="2072" d="M82 2879Q431 2927 684 2974V1311Q875 1502 1110 1582Q1207 1614 1294 1614Q1484 1614 1641 1506T1886 1216T1974 804T1878 376T1602 65T1192 -49Q936 -49 747 2L684 20V-827Q684 -897 744 -913T1008
-930H1069L1065 -1061H123L119 -930Q342 -930 364 -911Q397 -881 397 -831V2576Q397 2708 385 2744T331 2781T90 2740L82 2879ZM684 225Q892 86 1180 86Q1497 86 1622 386Q1683 530 1683 680T1638 957T1516 1174Q1350 1372 1110 1372Q906 1372 708 1204Q685 1185
684 1184V225Z" />
<glyph unicode="&#xff;" glyph-name="ydieresis" horiz-adv-x="1921" d="M184 -705L303 -713Q368 -713 471 -574T754 -86L877 152L365 1253Q354 1278 337 1316T314 1367T295 1404T275 1433T253 1451T225 1465T189 1471T140 1475H78L70 1606H852L844 1475H774Q695
1475 663 1465T631 1429T636 1385T647 1351T664 1311T680 1274L1028 492L1286 1073Q1421 1371 1421 1412T1383 1464T1241 1475H1184V1606H1851V1475H1753Q1697 1475 1679 1470T1652 1462T1630 1447T1613 1428T1596 1399T1578 1363Q1556 1310 1532 1257L909 -119Q534
-946 323 -1036Q266 -1061 192 -1061T74 -1009T29 -873T72 -748T184 -705ZM1249 2064T1184 2131T1119 2244T1192 2355T1307 2421T1408 2349T1467 2233T1398 2127T1289 2064ZM652 2064T587 2131T521 2243T592 2354T706 2420T808 2348T869 2232T800 2127T692 2064Z"
/>
<glyph unicode="&#x2013;" glyph-name="endash" horiz-adv-x="2048" d="M0 1081V1257H2048V1081H0Z" />
<glyph unicode="&#x2014;" glyph-name="emdash" horiz-adv-x="4096" d="M0 1081V1257H4096V1081H0Z" />
<glyph unicode="&#x2018;" glyph-name="quoteleft" horiz-adv-x="995" d="M283 2207V2274Q283 2329 318 2419T407 2574T523 2688Q645 2785 711 2785T778 2744Q778 2704 716 2663T616 2590Q528 2514 528 2380Q528 2285 566 2255T632 2211T683 2190Q737 2174 737
2146Q737 2141 721 2109L618 1962Q589 1917 557 1917T447 1965T350 2030Q288 2087 283 2207Z" />
<glyph unicode="&#x2019;" glyph-name="quoteright" horiz-adv-x="995" d="M283 1996T330 2024T410 2079T471 2136Q537 2205 537 2287T522 2405T483 2459T433 2491T382 2512Q328 2528 328 2556Q328 2561 344 2593L442 2736Q474 2785 501 2785T611 2735T711 2668Q773
2611 778 2491V2466Q778 2244 600 2064Q514 1978 439 1948T323 1917T283 1956Z" />
<glyph unicode="&#x201a;" glyph-name="quotesinglbase" horiz-adv-x="995" d="M283 -441T330 -413T410 -358T471 -302Q537 -232 537 -150T522 -32T483 21T433 52T382 72Q328 87 328 115Q328 124 344 156L442 299Q470 344 503 344T614 296T711 231Q773 174 778
54V29Q778 -193 600 -372Q514 -459 439 -489T323 -520T283 -481Z" />
<glyph unicode="&#x201c;" glyph-name="quotedblleft" horiz-adv-x="1695" d="M983 2207V2274Q983 2329 1018 2419T1107 2574T1223 2688Q1345 2785 1411 2785T1478 2744Q1478 2704 1416 2663T1316 2590Q1228 2514 1228 2380Q1228 2285 1266 2255T1332 2211T1383
2190Q1437 2174 1437 2146Q1437 2141 1421 2109L1318 1962Q1289 1917 1257 1917T1147 1965T1050 2030Q988 2087 983 2207ZM283 2207V2274Q283 2329 318 2419T407 2574T523 2688Q645 2785 711 2785T778 2744Q778 2704 716 2663T616 2590Q528 2514 528 2380Q528 2285
566 2255T632 2211T683 2190Q737 2174 737 2146Q737 2141 721 2109L618 1962Q589 1917 557 1917T447 1965T350 2030Q288 2087 283 2207Z" />
<glyph unicode="&#x201d;" glyph-name="quotedblright" horiz-adv-x="1691" d="M979 1996T1026 2024T1106 2079T1167 2136Q1233 2205 1233 2287T1218 2405T1179 2459T1129 2491T1078 2512Q1024 2528 1024 2556Q1024 2561 1040 2593L1138 2736Q1170 2785 1197 2785T1307
2735T1407 2668Q1469 2611 1474 2491V2466Q1474 2244 1296 2064Q1210 1978 1135 1948T1019 1917T979 1956ZM283 1996T330 2024T410 2079T471 2136Q537 2205 537 2287T522 2405T483 2459T433 2491T382 2512Q328 2528 328 2556Q328 2561 344 2593L442 2736Q474 2785
501 2785T611 2735T711 2668Q773 2611 778 2491V2466Q778 2244 600 2064Q514 1978 439 1948T323 1917T283 1956Z" />
<glyph unicode="&#x201e;" glyph-name="quotedblbase" horiz-adv-x="1691" d="M979 -441T1026 -413T1106 -358T1167 -302Q1233 -232 1233 -150T1218 -32T1179 21T1129 52T1078 72Q1024 87 1024 115Q1024 124 1040 156L1138 299Q1166 344 1199 344T1310 296T1407
231Q1469 174 1474 54V29Q1474 -193 1296 -372Q1210 -459 1135 -489T1019 -520T979 -481ZM283 -441T330 -413T410 -358T471 -302Q537 -232 537 -150T522 -32T483 21T433 52T382 72Q328 87 328 115Q328 124 344 156L442 299Q470 344 503 344T614 296T711 231Q773
174 778 54V29Q778 -193 600 -372Q514 -459 439 -489T323 -520T283 -481Z" />
<glyph unicode="&#x2022;" glyph-name="bullet" horiz-adv-x="1708" d="M493 872T427 985T360 1232T425 1480T604 1661T851 1729T1099 1664T1280 1485T1348 1237T1283 988T1104 808T856 741T607 806Z" />
<glyph unicode="&#x2039;" glyph-name="guilsinglleft" horiz-adv-x="1015" d="M164 885L786 1430L852 1356L471 885L852 418L786 340L164 885Z" />
<glyph unicode="&#x203a;" glyph-name="guilsinglright" horiz-adv-x="1015" d="M164 418L545 885L164 1356L229 1430L852 885L229 340L164 418Z" />
</font>
</defs>
</svg>
