<?xml version="1.0" standalone="no"?>
<!DOCTYPE svg PUBLIC "-//W3C//DTD SVG 1.1//EN" "http://www.w3.org/Graphics/SVG/1.1/DTD/svg11.dtd">
<svg xmlns="http://www.w3.org/2000/svg">
<defs >
<font id="Taviraj" horiz-adv-x="653" ><font-face
    font-family="Taviraj Black"
    units-per-em="1000"
    panose-1="0 0 10 0 0 0 0 0 0 0"
    ascent="1172"
    descent="-534"
    alphabetic="0" />
<glyph unicode=" " glyph-name="space" horiz-adv-x="254" />
<glyph unicode="!" glyph-name="exclam" horiz-adv-x="382" d="M178 610Q179 611 179 615T181 627Q196 711 296 711Q380 711 380 650Q380 639 377 627L372 610L231 194H150L178 610ZM116 -10T99 7T81 55Q81 102 111 134T186 167Q218 167 236 150T255 102Q255 55
225 23T149 -10Q116 -10 99 7Z" />
<glyph unicode="&quot;" glyph-name="quotedbl" horiz-adv-x="486" d="M128 621L130 626Q139 667 160 688T232 709Q271 709 288 695T305 655Q305 642 302 627L300 621L198 395H134L128 621ZM357 621L359 626Q368 667 389 688T461 709Q501 709 517 695T534 655Q534
642 531 627L529 621L428 395H363L357 621Z" />
<glyph unicode="#" glyph-name="numbersign" horiz-adv-x="852" d="M719 441L634 244H770L757 176H604L524 -9H392L473 176H281L200 -9H69L150 176H19L32 244H179L265 441H131L145 509H295L369 680H500L426 509H618L692 680H823L749 509H884L869 441H719ZM588
441H396L310 244H502L588 441Z" />
<glyph unicode="$" glyph-name="dollar" horiz-adv-x="650" d="M590 486L591 504Q591 576 550 607T446 639Q395 639 356 611T316 538Q316 506 342 489T414 456L433 449Q491 426 527 406T592 349T620 254Q620 133 538 67T321 -9L303 -98H243L261 -10Q201 -7 157
8T84 46Q81 49 76 49Q68 49 67 41L57 -5H-5L40 214H94Q89 133 135 97T250 61Q317 61 361 93T406 182Q406 210 388 231T344 265T279 294Q222 317 188 336T129 388T104 471Q104 588 188 648T408 710L422 779H481L466 707Q510 702 541 688T600 654Q601 653 603 652T608
651Q615 651 618 659L626 705H689L644 486H590Z" />
<glyph unicode="%" glyph-name="percent" horiz-adv-x="945" d="M98 -17L848 735L893 689L141 -61L98 -17ZM75 303T75 439Q75 556 142 623T328 690Q502 690 502 554Q502 437 434 370T249 303Q75 303 75 439ZM282 370T300 403T329 482T340 566Q340 592 334 608T314
624Q294 624 276 591T247 511T236 427Q236 370 262 370Q282 370 300 403ZM499 -11T499 126Q499 242 567 309T752 376Q927 376 927 240Q927 124 859 57T673 -11Q499 -11 499 126ZM708 56T725 90T754 172T765 255Q765 311 740 311Q720 311 702 278T672 197T661 113Q661
56 687 56Q708 56 725 90Z" />
<glyph unicode="&amp;" glyph-name="ampersand" horiz-adv-x="753" d="M151 -9T86 31T20 144Q20 292 231 394Q193 480 193 532Q193 587 224 626T306 686T419 706Q573 706 573 600Q573 560 551 530T497 478T415 428Q458 349 573 181Q643 255 667 342H737Q721 285
687 233T605 136L704 0H480L454 34Q355 -9 260 -9Q151 -9 86 31ZM495 524T495 598Q495 639 449 639Q414 639 396 614T377 552Q377 517 396 472Q495 524 495 598ZM360 61T420 80Q335 198 275 308Q248 274 230 229T212 149Q212 106 237 84T296 61Q360 61 420 80Z"
/>
<glyph unicode="&apos;" glyph-name="quotesingle" horiz-adv-x="256" d="M128 621L130 626Q139 667 160 688T232 709Q271 709 288 695T305 655Q305 642 302 627L300 621L198 395H133L128 621Z" />
<glyph unicode="(" glyph-name="parenleft" horiz-adv-x="323" d="M117 -71T82 16T46 202Q46 315 87 424T204 626T379 780L404 755Q333 679 281 574T200 352T172 125Q172 0 228 -109L192 -134Q117 -71 82 16Z" />
<glyph unicode=")" glyph-name="parenright" horiz-adv-x="323" d="M-31 -109Q40 -33 92 72T173 294T201 521Q201 651 145 755L181 780Q256 717 291 630T327 444Q327 330 286 221T169 20T-5 -134L-31 -109Z" />
<glyph unicode="*" glyph-name="asterisk" horiz-adv-x="528" d="M260 268T249 279T237 310Q237 327 242 339T259 367Q273 387 281 403T296 449Q275 440 259 426T224 393Q203 371 188 361T154 350Q138 350 127 362T116 392Q116 410 127 426T158 453Q167 458 177
460T198 462Q219 463 237 467T282 487Q257 500 239 506T200 512Q180 512 165 526T150 561Q150 586 170 605T212 624Q234 624 243 616T260 587Q271 566 280 553T310 525Q315 550 315 571Q315 590 308 611Q303 623 303 632Q303 636 305 648Q310 675 327 691T368 707Q387
707 398 696T409 664Q409 647 405 637T388 608Q375 591 366 573T351 525Q376 538 392 553T424 586Q442 606 455 615T490 624Q506 624 518 612T530 581Q530 557 505 535T455 512Q432 512 413 507T364 487Q385 472 401 468T438 462Q461 462 475 453Q496 438 496 413Q496
388 477 369T436 350Q415 350 405 360T384 394Q374 415 364 428T336 450Q332 429 332 401Q332 384 339 363Q343 351 343 342Q343 309 324 289T279 268Q260 268 249 279Z" />
<glyph unicode="+" glyph-name="plus" horiz-adv-x="596" d="M210 249H37L57 346H230L267 528H458L421 346H594L573 249H401L364 67H173L210 249Z" />
<glyph unicode="," glyph-name="comma" horiz-adv-x="269" d="M-33 -135Q5 -101 24 -77T50 -19Q52 -9 52 -6Q52 4 49 10T39 27Q31 37 27 46T23 68Q23 78 26 90Q33 124 60 150T128 177Q164 177 183 157T202 99Q202 84 197 61Q184 -1 131 -55T1 -163L-33 -135Z" />
<glyph unicode="-" glyph-name="hyphen" horiz-adv-x="475" d="M76 337H455L433 228H54L76 337Z" />
<glyph unicode="." glyph-name="period" horiz-adv-x="269" d="M55 -10T35 11T14 65Q14 117 48 153T133 190Q170 190 191 169T212 114Q212 81 196 53T152 7T92 -10Q55 -10 35 11Z" />
<glyph unicode="/" glyph-name="slash" horiz-adv-x="358" d="M367 694H443L47 0H-27L367 694Z" />
<glyph unicode="0" glyph-name="zero" horiz-adv-x="634" d="M42 -10T42 220Q42 284 56 350Q91 521 180 615T421 710Q654 710 654 478Q654 422 640 350Q605 179 516 85T274 -10Q42 -10 42 220ZM380 62T438 350Q461 462 461 534Q461 640 407 640Q316 640 258 350Q235
238 235 167Q235 62 289 62Q380 62 438 350Z" />
<glyph unicode="1" glyph-name="one" horiz-adv-x="634" d="M87 48H146Q198 48 206 88L304 569L172 514L190 603L538 736L405 88Q404 84 404 78Q404 48 450 48H509L500 0H77L87 48Z" />
<glyph unicode="2" glyph-name="two" horiz-adv-x="634" d="M-2 73Q19 131 62 172T184 270Q199 280 229 302Q299 353 341 387T418 462T461 542Q465 558 465 575Q465 640 395 640Q345 640 319 612T281 522Q277 500 252 487T195 474Q164 474 143 487T122 528Q122
536 123 540Q133 586 173 625T278 687T421 710Q521 710 583 673T646 559Q646 540 643 519Q632 468 590 424T498 349T364 271Q354 266 342 260T315 246Q251 213 219 191T180 141V137H445Q484 137 506 160T547 222H589L529 0H-16L-2 73Z" />
<glyph unicode="3" glyph-name="three" horiz-adv-x="634" d="M181 -10T131 8T56 59T30 133Q30 147 33 160Q39 192 68 209T132 226Q163 226 182 213T197 178Q190 143 190 126Q190 93 207 78T262 62Q309 62 342 96T390 205Q394 222 394 243Q394 284 373 309T307
335H192L207 405H321Q382 405 417 447T463 542Q467 558 467 575Q467 640 397 640Q347 640 321 612T283 522Q279 500 254 487T197 474Q166 474 145 487T124 528Q124 536 125 540Q135 586 175 625T280 687T423 710Q523 710 585 673T648 559Q648 538 644 519Q634 470
590 430T489 375L488 371Q537 356 564 323T592 243Q592 224 588 208Q565 96 473 43T250 -10Q181 -10 131 8Z" />
<glyph unicode="4" glyph-name="four" horiz-adv-x="634" d="M181 48H240Q292 48 300 88L311 142H9L27 232L447 710H626L532 247H634L594 142H511L500 88Q499 84 499 78Q499 63 509 56T544 48H603L594 0H171L181 48ZM332 247L396 557L130 247H332Z" />
<glyph unicode="5" glyph-name="five" horiz-adv-x="634" d="M166 -10T118 10T52 57T34 110Q34 118 35 121Q42 157 66 176T116 196Q135 196 148 186T163 156Q167 114 178 94T204 68T244 62Q289 62 325 102T378 224Q384 266 384 284Q384 328 366 354T310 380Q268
380 227 358T155 295L96 307L227 700H563Q586 700 606 736H654L608 573H260L200 399Q271 449 373 449Q485 449 534 405T583 285Q583 251 576 222Q553 110 470 50T248 -10Q166 -10 118 10Z" />
<glyph unicode="6" glyph-name="six" horiz-adv-x="634" d="M45 -10T45 202Q45 250 57 308Q83 435 138 525T271 662T444 710Q538 710 595 677T653 582Q653 568 650 553Q644 520 618 504T559 487Q530 487 516 496T501 528Q501 541 503 549Q506 566 506 578Q506
640 432 640Q328 640 277 410Q303 431 346 442T429 453Q520 453 565 410T611 293Q611 271 604 234Q581 122 498 56T274 -10Q45 -10 45 202ZM330 61T359 104T404 220Q411 258 411 292Q411 334 398 357T356 381Q321 381 291 339T246 225Q238 187 238 156Q238 114
252 88T292 61Q330 61 359 104Z" />
<glyph unicode="7" glyph-name="seven" horiz-adv-x="634" d="M175 -10T154 8T133 58Q133 72 135 80Q163 219 268 351T500 573H249Q215 573 191 539T153 468H101L148 700H700L686 630Q609 572 537 483T411 291T336 87Q327 42 299 16T207 -10Q175 -10 154 8Z" />
<glyph unicode="8" glyph-name="eight" horiz-adv-x="634" d="M622 492T588 456T498 394Q546 367 573 331T601 240Q601 213 596 192Q576 89 487 40T266 -10Q155 -10 91 24T26 134Q26 150 31 175Q53 285 177 350Q118 404 118 477Q118 494 123 519Q141 608 220 659T419
710Q519 710 577 675T636 576Q636 562 633 545Q622 492 588 456ZM524 550T524 564Q524 601 498 620T424 640Q372 640 338 619T296 559Q294 547 294 542Q294 516 311 497T353 464T425 430Q507 472 522 542Q524 550 524 564ZM417 163T417 171Q417 200 390 220T302
273Q259 295 246 302Q203 271 180 227T157 145Q157 103 186 83T261 62Q318 62 362 87T416 159Q417 163 417 171Z" />
<glyph unicode="9" glyph-name="nine" horiz-adv-x="634" d="M154 -10T97 23T40 118Q40 132 43 147Q49 180 74 196T134 213Q163 213 177 204T191 172Q191 159 189 151Q187 129 187 122Q187 60 260 60Q365 60 416 290Q390 269 347 258T263 247Q173 247 128 290T82
407Q82 429 89 466Q111 578 194 644T418 710Q647 710 647 498Q647 446 636 392Q610 265 555 175T421 37T248 -10Q154 -10 97 23ZM371 319T401 361T446 475Q453 509 453 544Q453 587 440 613T400 639Q362 639 333 596T289 480Q281 437 281 406Q281 365 295 342T336
319Q371 319 401 361Z" />
<glyph unicode=":" glyph-name="colon" horiz-adv-x="269" d="M118 297T97 318T76 373Q76 385 79 397Q88 440 120 468T195 497Q232 497 253 476T274 421Q274 388 258 360T215 314T155 297Q118 297 97 318ZM55 -10T35 11T14 65Q14 117 48 153T133 190Q170 190 191
169T212 114Q212 81 196 53T152 7T92 -10Q55 -10 35 11Z" />
<glyph unicode=";" glyph-name="semicolon" horiz-adv-x="269" d="M118 297T97 318T76 373Q76 385 79 397Q88 440 120 468T195 497Q232 497 253 476T274 421Q274 388 258 360T215 314T155 297Q118 297 97 318ZM-33 -135Q5 -101 24 -77T50 -19Q52 -9 52 -6Q52 4
49 10T39 27Q31 37 27 46T23 68Q23 78 26 90Q33 124 60 150T128 177Q164 177 183 157T202 99Q202 84 197 61Q184 -1 131 -55T1 -163L-33 -135Z" />
<glyph unicode="&lt;" glyph-name="less" horiz-adv-x="596" d="M66 305L76 356L617 599L595 492L243 330L528 169L507 62L66 305Z" />
<glyph unicode="=" glyph-name="equal" horiz-adv-x="596" d="M93 421H594L573 324H73L93 421ZM53 222H553L533 125H33L53 222Z" />
<glyph unicode="&gt;" glyph-name="greater" horiz-adv-x="596" d="M55 169L407 330L121 492L143 599L584 356L573 305L34 62L55 169Z" />
<glyph unicode="?" glyph-name="question" horiz-adv-x="516" d="M189 224T195 254Q208 313 235 350T310 432Q346 465 364 488T389 542Q394 569 394 583Q394 613 380 626T332 640Q287 640 264 612T229 522Q225 500 203 487T151 474Q123 474 106 487T88 525Q88
535 89 540Q104 614 174 662T361 710Q571 710 571 576Q571 560 566 533Q557 490 535 460T485 411T414 369Q355 338 323 309T279 228Q275 212 275 185H189Q189 224 195 254ZM158 -10T141 7T123 55Q123 70 125 78Q134 119 161 143T228 167Q260 167 278 150T297 102Q297
92 294 78Q287 38 259 14T191 -10Q158 -10 141 7Z" />
<glyph unicode="@" glyph-name="at" horiz-adv-x="813" d="M245 -57T177 -20T75 79T42 219Q42 262 49 298Q69 393 131 478T291 616T513 669Q599 669 665 637T769 547T806 411Q806 380 798 342Q785 281 753 229T673 145T573 113Q545 113 523 132T500 183Q468 143
426 128T343 113Q278 113 241 143T203 230Q203 246 208 271Q219 325 252 377T341 463T473 498Q524 498 564 488T636 452L571 224L570 217Q569 213 569 205Q569 189 578 184T596 178Q620 178 647 200T697 260T728 344Q734 373 734 400Q734 460 706 506T626 579T503
605Q405 605 327 563T201 452T137 308Q128 268 128 229Q128 131 188 71T382 11Q426 11 492 23T616 65L600 -10Q540 -32 472 -44T348 -57Q245 -57 177 -20ZM397 179T416 200T447 258L497 411Q485 421 460 421Q424 421 392 374T349 270Q343 236 343 224Q343 179 377
179Q397 179 416 200Z" />
<glyph unicode="A" glyph-name="A" horiz-adv-x="794" d="M760 48L750 0H404L413 48H436Q476 48 476 82V91L464 174H225L182 99Q173 85 173 73Q173 60 182 54T205 48H228L218 0H-36L-27 48H-10Q11 48 31 57T63 87L411 676L571 728L694 84Q702 48 737 48H760ZM454
242L415 509L263 242H454Z" />
<glyph unicode="B" glyph-name="B" horiz-adv-x="676" d="M-20 48H11Q64 48 70 88L178 612Q179 616 179 622Q179 652 134 652H103L113 700H476Q591 700 641 670T692 578Q692 555 688 535Q675 476 632 431T522 370Q595 356 627 317T660 229Q660 217 656 195Q637
102 570 51T371 0H-29L-20 48ZM378 401Q419 401 446 433T485 524Q490 547 490 563Q490 632 419 632H381L334 401H378ZM331 68Q379 68 412 104T458 206Q463 231 463 248Q463 291 440 312T373 334H320L266 68H331Z" />
<glyph unicode="C" glyph-name="C" horiz-adv-x="710" d="M197 -10T124 59T50 250Q50 302 61 350Q94 515 203 612T486 710Q607 710 681 654Q682 653 684 652T689 651Q695 651 698 659L707 705H769L725 486H670L671 503Q671 575 627 607T519 639Q460 639 409 605T320
506T263 350Q250 279 250 233Q250 149 284 105T383 61Q531 61 610 176H674Q652 125 607 83T494 15T345 -10Q197 -10 124 59Z" />
<glyph unicode="D" glyph-name="D" horiz-adv-x="757" d="M-21 48H10Q63 48 69 88L177 612Q178 616 178 622Q178 652 133 652H102L112 700H467Q618 700 690 642T762 464Q762 411 749 350Q713 171 611 86T324 0H-30L-21 48ZM336 68Q408 68 463 139T547 350Q562
425 562 479Q562 555 534 593T452 632H380L265 68H336Z" />
<glyph unicode="E" glyph-name="E" horiz-adv-x="663" d="M628 496Q630 512 630 529Q630 632 545 632H380L332 395H447Q476 395 490 417T518 482H555L506 240H469Q471 264 471 276Q471 300 463 313T433 327H318L265 68H458Q507 68 536 103T589 203H636L573 0H-30L-21
48H10Q63 48 69 88L177 612Q178 616 178 622Q178 652 133 652H102L112 700H716L675 496H628Z" />
<glyph unicode="F" glyph-name="F" horiz-adv-x="659" d="M717 700L676 496H629Q631 512 631 529Q631 632 546 632H381L325 358H443Q472 358 486 380T513 445H550L501 203H464Q465 209 466 218T467 239Q467 290 428 290H311L270 88Q269 84 269 78Q269 48 314 48H345L335
0H-29L-20 48H11Q64 48 70 88L178 612Q179 616 179 622Q179 652 134 652H103L113 700H717Z" />
<glyph unicode="G" glyph-name="G" horiz-adv-x="759" d="M197 -10T124 59T50 250Q50 302 61 350Q83 458 139 539T285 665T491 710Q615 710 691 654Q691 653 693 652T698 651Q705 651 708 659L716 705H779L735 486H680Q686 567 639 603T524 639Q465 639 413 605T321
506T263 350Q250 279 250 233Q250 149 284 105T383 61Q430 61 470 72L508 260Q509 264 509 272Q509 309 460 309H444L452 348H784L778 317H760Q738 317 723 305T704 276L661 64Q575 18 504 4T345 -10Q197 -10 124 59Z" />
<glyph unicode="H" glyph-name="H" horiz-adv-x="824" d="M916 700L907 652H876Q824 652 816 612L709 88Q708 84 708 78Q708 63 718 56T753 48H784L774 0H409L419 48H450Q501 48 509 88L557 321H317L269 88Q268 84 268 78Q268 48 313 48H344L334 0H-30L-21 48H10Q63
48 69 88L177 612Q178 616 178 622Q178 652 133 652H102L112 700H476L467 652H436Q383 652 377 612L331 389H571L617 612Q618 616 618 622Q618 652 572 652H542L551 700H916Z" />
<glyph unicode="I" glyph-name="I" horiz-adv-x="396" d="M-15 48H16Q67 48 75 88L183 612Q184 616 184 622Q184 652 139 652H108L117 700H482L473 652H442Q390 652 382 612L275 88Q274 84 274 78Q274 63 284 56T319 48H350L340 0H-25L-15 48Z" />
<glyph unicode="J" glyph-name="J" horiz-adv-x="456" d="M-10 -83Q41 -67 72 -35T119 40T148 146L243 612Q244 616 244 622Q244 637 234 644T199 652H168L178 700H543L533 652H502Q451 652 443 612L347 143Q320 12 225 -51T-11 -114L-10 -83Z" />
<glyph unicode="K" glyph-name="K" horiz-adv-x="805" d="M844 700L835 652H806Q791 652 777 647T751 634L454 401L657 99Q671 77 694 63T740 48H770L761 0H500L308 277L269 88Q268 84 268 78Q268 48 313 48H344L334 0H-30L-21 48H10Q63 48 69 88L177 612Q178
616 178 622Q178 652 133 652H102L112 700H476L467 652H436Q383 652 377 612L332 392L618 615Q630 627 631 634Q635 652 601 652H586L596 700H844Z" />
<glyph unicode="L" glyph-name="L" horiz-adv-x="683" d="M-21 48H10Q63 48 69 88L177 612Q178 616 178 622Q178 652 133 652H102L112 700H476L467 652H436Q383 652 377 612L276 122Q275 117 275 107Q275 68 322 68H483Q527 68 563 119T617 221H668L602 0H-30L-21 48Z" />
<glyph unicode="M" glyph-name="M" horiz-adv-x="960" d="M-21 48H10Q63 48 69 88L177 612Q178 616 178 622Q178 652 133 652H102L112 700H383L473 235L593 430L759 700H1052L1043 652H1012Q959 652 953 612L845 88Q844 84 844 78Q844 48 889 48H920L910 0H546L555
48H586Q639 48 645 88L738 540L449 74H331L238 537L146 88Q145 84 145 78Q145 48 190 48H221L212 0H-30L-21 48Z" />
<glyph unicode="N" glyph-name="N" horiz-adv-x="771" d="M-21 48H10Q63 48 69 88L177 612Q178 616 178 622Q178 652 133 652H102L112 700H383L613 251L687 612Q688 616 688 622Q688 652 643 652H612L621 700H863L854 652H823Q770 652 764 612L639 0H539L247 581L146
88Q145 84 145 78Q145 48 190 48H221L212 0H-30L-21 48Z" />
<glyph unicode="O" glyph-name="O" horiz-adv-x="806" d="M201 -10T125 58T48 249Q48 296 60 350Q94 517 205 613T507 710Q666 710 742 642T819 451Q819 401 809 350Q774 183 662 87T360 -10Q201 -10 125 58ZM457 62T517 137T606 350Q620 418 620 469Q620 552
587 596T493 640Q412 640 351 564T262 350Q249 279 249 232Q249 149 281 106T375 62Q457 62 517 137Z" />
<glyph unicode="P" glyph-name="P" horiz-adv-x="660" d="M-21 48H10Q63 48 69 88L177 612Q178 616 178 622Q178 652 133 652H102L112 700H507Q613 700 659 661T706 550Q706 520 698 482Q677 378 612 321T418 263H305L269 88Q268 84 268 78Q268 48 313 48H344L334
0H-30L-21 48ZM382 331Q428 331 457 368T501 482Q510 523 510 551Q510 632 444 632H380L319 331H382Z" />
<glyph unicode="Q" glyph-name="Q" horiz-adv-x="806" d="M666 710T742 642T819 451Q819 401 809 350Q774 183 662 87T360 -10Q342 -10 312 -8L276 -32H288Q322 -32 350 -40T414 -66Q453 -82 476 -89T530 -97Q567 -97 589 -82T631 -32H665Q665 -46 661 -64Q648
-126 604 -167T482 -208Q447 -208 419 -194T346 -149Q306 -120 277 -105T212 -90Q174 -90 135 -111L120 -82Q183 -27 242 2Q143 25 96 88T48 249Q48 296 60 350Q94 517 205 613T507 710Q666 710 742 642ZM620 418T620 469Q620 552 587 596T493 640Q412 640 351
564T262 350Q249 279 249 232Q249 149 281 106T375 62Q457 62 517 137T606 350Q620 418 620 469Z" />
<glyph unicode="R" glyph-name="R" horiz-adv-x="727" d="M684 415T647 367T539 298Q564 285 576 266T593 229T600 180Q604 139 609 113T630 69T673 48L664 0H524Q477 0 451 9T413 40T397 100Q396 110 396 130L397 165Q398 176 398 198Q398 228 393 248T373 283H309L269
88Q268 84 268 78Q268 48 313 48H344L334 0H-30L-21 48H10Q63 48 69 88L177 612Q178 616 178 622Q178 652 133 652H102L112 700H507Q615 700 661 664T708 558Q708 530 700 492Q684 415 647 367ZM323 351H386Q433 351 460 384T503 492Q511 534 511 557Q511 596 495
614T444 632H380L323 351Z" />
<glyph unicode="S" glyph-name="S" horiz-adv-x="650" d="M215 -10T165 6T84 46Q81 49 76 49Q68 49 67 41L57 -5H-5L40 214H94Q89 133 135 97T250 61Q308 61 350 84T404 165Q406 177 406 182Q406 210 388 231T344 265T279 294Q222 317 188 336T129 388T104 471Q104
498 109 519Q128 613 208 661T413 710Q480 710 523 695T600 654Q601 653 603 652T608 651Q615 651 618 659L626 705H689L644 486H590L591 504Q591 576 550 607T446 639Q400 639 363 616T317 551Q316 546 316 538Q316 506 342 489T414 456L433 449Q491 426 527 406T592
349T620 254Q620 230 614 201Q591 91 502 41T283 -10Q215 -10 165 6Z" />
<glyph unicode="T" glyph-name="T" horiz-adv-x="728" d="M151 48H182Q233 48 241 88L353 632H232Q204 632 180 596T139 516T117 446H69L121 700H811L759 446H711Q714 457 716 481T718 530Q718 574 708 603T673 632H552L441 88Q440 84 440 78Q440 63 450 56T485
48H516L506 0H141L151 48Z" />
<glyph unicode="U" glyph-name="U" horiz-adv-x="797" d="M232 -10T162 34T92 169Q92 196 98 227L177 612Q178 616 178 622Q178 652 133 652H102L112 700H476L467 652H436Q383 652 377 612L294 211Q290 192 290 171Q290 113 328 87T427 61Q497 61 556 97T630 211L713
612Q714 616 714 622Q714 652 668 652H638L647 700H889L880 652H849Q797 652 789 612L711 227Q688 114 599 52T365 -10Q232 -10 162 34Z" />
<glyph unicode="V" glyph-name="V" horiz-adv-x="805" d="M166 616Q160 652 125 652H102L112 700H458L449 652H426Q385 652 385 618L386 609L447 191L680 601Q689 615 689 627Q689 640 680 646T657 652H634L644 700H898L888 652H872Q851 652 831 643T799 613L436
0H286L166 616Z" />
<glyph unicode="W" glyph-name="W" horiz-adv-x="1134" d="M1226 700L1217 652H1200Q1179 652 1158 642T1127 613L811 0H690L636 393L398 0H248L166 616Q160 652 125 652H102L112 700H458L449 652H426Q404 652 395 642T386 609L408 191L615 543L605 616Q600 652
564 652H541L550 700H868L859 652H836Q793 652 796 609L821 191L1008 601Q1016 619 1016 627Q1016 640 1007 646T985 652H962L972 700H1226Z" />
<glyph unicode="X" glyph-name="X" horiz-adv-x="793" d="M873 700L863 652H847Q817 652 774 613L525 395L688 84Q698 65 707 57T730 48H753L743 0H391L401 48H424Q442 48 454 56T467 78Q467 81 463 91L374 262L188 99Q173 87 173 75Q173 64 186 56T211 48H234L224
0H-30L-21 48H-4Q25 48 68 87L340 325L188 616Q177 635 169 643T146 652H123L133 700H485L476 652H452Q434 652 422 644T409 622Q409 616 413 609L492 458L655 601Q669 612 669 625Q669 636 656 644T632 652H609L619 700H873Z" />
<glyph unicode="Y" glyph-name="Y" horiz-adv-x="736" d="M147 48H178Q231 48 237 88L278 286L166 616Q155 652 125 652H102L112 700H444L434 652H411Q393 652 382 644T370 621Q370 617 372 609L438 369L611 601Q621 614 621 626Q621 638 611 645T588 652H565L574
700H829L819 652H803Q783 652 764 642T730 613L477 284L437 88Q436 84 436 78Q436 48 481 48H512L502 0H138L147 48Z" />
<glyph unicode="Z" glyph-name="Z" horiz-adv-x="619" d="M-15 44L470 632H290Q229 632 199 591T151 496H104L145 700H696L691 672L198 68H424Q473 68 501 102T554 203H601L539 0H-24L-15 44Z" />
<glyph unicode="[" glyph-name="bracketleft" horiz-adv-x="314" d="M117 706H408L395 640H244L103 -51H254L239 -120H-51L117 706Z" />
<glyph unicode="\" glyph-name="backslash" horiz-adv-x="358" d="M115 694H189L302 0H227L115 694Z" />
<glyph unicode="]" glyph-name="bracketright" horiz-adv-x="314" d="M-44 -51H106L247 640H96L110 706H401L232 -120H-58L-44 -51Z" />
<glyph unicode="^" glyph-name="asciicircum" horiz-adv-x="568" d="M329 724H448L570 310H448L375 657L160 310H39L329 724Z" />
<glyph unicode="_" glyph-name="underscore" horiz-adv-x="473" d="M-52 -43H427L413 -112H-65L-52 -43Z" />
<glyph unicode="`" glyph-name="grave" horiz-adv-x="509" d="M284 672Q262 688 251 703T239 737Q239 744 240 748Q245 769 264 786T314 803Q340 803 357 788T380 760L474 621L429 571L284 672Z" />
<glyph unicode="a" glyph-name="a" horiz-adv-x="655" d="M83 -12T58 23T33 113Q33 138 41 182Q66 305 136 392T347 480Q368 480 395 473T439 452L442 470H634L556 89Q554 79 554 75Q554 53 577 53Q586 53 599 56T620 61L613 28Q586 10 546 0T466 -10Q422 -10
390 4T357 51Q357 55 359 65L379 157Q341 91 275 40T142 -12Q83 -12 58 23ZM245 63T286 109T365 212T407 299L422 368Q417 388 411 399T392 410Q353 410 319 378T259 294T223 186Q219 171 216 146T213 99Q213 63 225 63Q245 63 286 109Z" />
<glyph unicode="b" glyph-name="b" horiz-adv-x="656" d="M207 -10T173 51L117 0H31L148 574Q149 578 149 585Q149 611 121 611Q116 611 103 608L101 648L332 717H369L310 429Q367 480 464 480Q544 480 591 437T639 312Q639 280 632 246Q604 109 526 50T325 -10Q207
-10 173 51ZM362 57T392 105T441 241Q452 294 452 328Q452 371 435 392T383 413Q367 413 347 401T309 365T286 311L258 174Q254 150 254 138Q254 102 269 80T315 57Q362 57 392 105Z" />
<glyph unicode="c" glyph-name="c" horiz-adv-x="580" d="M150 -10T86 36T21 172Q21 203 28 235Q43 305 87 360T201 448T361 480Q570 480 570 367Q570 357 566 335Q561 314 542 295T500 276Q477 276 466 287T454 314Q454 321 455 324Q457 331 463 343Q472 357
472 371Q472 389 453 402T398 416Q328 416 284 365T224 234Q217 203 217 172Q217 116 242 84T317 51Q379 51 421 79T490 172H536Q512 93 445 42T276 -10Q150 -10 86 36Z" />
<glyph unicode="d" glyph-name="d" horiz-adv-x="657" d="M83 -12T58 23T33 113Q33 138 41 182Q66 305 136 392T347 480Q368 480 395 473T439 452L464 574Q465 578 465 585Q465 611 437 611Q432 611 419 608L417 648L647 717H685L556 89Q554 79 554 75Q554 53
577 53Q586 53 599 56T620 61L613 28Q586 10 546 0T466 -10Q422 -10 390 4T357 51Q357 55 359 65L379 157Q341 91 275 40T142 -12Q83 -12 58 23ZM245 63T286 109T365 212T407 299L422 368Q417 388 411 399T392 410Q353 410 319 378T259 294T223 186Q219 171 216
146T213 99Q213 63 225 63Q245 63 286 109Z" />
<glyph unicode="e" glyph-name="e" horiz-adv-x="575" d="M560 248T461 207T217 159Q220 110 246 81T319 51Q382 51 425 79T494 172H540Q516 93 448 42T278 -10Q152 -10 87 36T21 173Q21 204 28 235Q43 308 87 363T202 449T361 480Q477 480 529 452T581 367Q581
353 578 336Q560 248 461 207ZM419 350T419 363Q419 389 405 402T361 416Q305 416 272 361T224 234L221 216Q398 245 416 335Q419 350 419 363Z" />
<glyph unicode="f" glyph-name="f" horiz-adv-x="486" d="M508 722T547 697T587 628Q587 615 584 600Q571 534 506 534Q484 534 471 542T458 568Q458 574 459 577Q460 582 468 598Q476 614 476 625Q476 640 466 649T436 658Q389 658 372 577L350 470H485L472 404H337L226
-141L31 -151L145 404H58L71 470H158L175 552Q192 634 257 678T415 722Q508 722 547 697Z" />
<glyph unicode="g" glyph-name="g" horiz-adv-x="584" d="M635 480T658 465T682 425Q682 418 681 414Q676 386 658 371T614 355Q598 355 592 361T581 382Q576 396 570 403T546 410Q539 410 521 405Q533 383 533 352Q533 333 529 317Q513 238 443 198T255 157Q191
157 146 169Q125 153 125 134Q125 125 132 120T153 114H352Q418 114 457 87T496 10Q496 -3 493 -18Q477 -94 398 -140T178 -187Q-38 -187 -38 -86Q-38 -47 -14 -23T47 14Q7 32 7 75Q7 89 9 96Q19 145 94 190Q42 222 42 283Q42 299 45 317Q62 397 132 438T321 480Q430
480 484 444Q515 465 542 472T600 480Q635 480 658 465ZM345 343T345 364Q345 415 308 415Q256 415 236 317Q230 292 230 271Q230 220 267 220Q319 220 339 317Q345 343 345 364ZM120 -13Q98 -27 92 -59L91 -72Q91 -99 117 -113T192 -127Q244 -127 277 -109T316
-58Q317 -54 317 -48Q317 -13 271 -13H120Z" />
<glyph unicode="h" glyph-name="h" horiz-adv-x="728" d="M643 53T656 56T676 61L669 28Q643 10 603 0T523 -10Q479 -10 447 4T414 51Q414 55 416 65L469 324Q473 343 473 360Q473 408 430 408Q401 408 373 378T322 304T290 225L244 0L49 -10L169 574Q170 578
170 585Q170 611 142 611Q138 611 124 608L122 648L353 717H390L319 368Q354 418 405 449T514 480Q669 480 669 378Q669 363 666 345L613 89Q611 79 611 75Q611 53 634 53Q643 53 656 56Z" />
<glyph unicode="i" glyph-name="i" horiz-adv-x="376" d="M212 553T193 573T173 625Q173 672 206 705T285 739Q320 739 340 719T360 667Q360 620 327 587T247 553Q212 553 193 573ZM127 -10T95 4T63 51Q63 55 65 65L120 337L122 349Q122 374 94 374Q90 374 75
371L74 411L305 480H342L261 89Q260 84 260 75Q260 53 283 53Q291 53 304 56T325 61L318 28Q292 10 252 0T171 -10Q127 -10 95 4Z" />
<glyph unicode="j" glyph-name="j" horiz-adv-x="381" d="M236 553T217 573T197 625Q197 672 230 705T309 739Q344 739 364 719T384 667Q384 620 351 587T271 553Q236 553 217 573ZM-74 -132Q0 -110 35 -56T88 79L140 337L142 349Q142 374 115 374Q110 374 95
371L94 411L325 480H362L283 94Q256 -37 161 -100T-74 -163V-132Z" />
<glyph unicode="k" glyph-name="k" horiz-adv-x="721" d="M642 422T574 374L426 271L548 93Q562 72 589 60T641 48H671L662 0H404L285 173L276 167L242 0L47 -10L167 574Q168 578 168 585Q168 611 140 611Q136 611 122 608L120 648L351 717H388L296 264L598 470H716L706
422H668Q642 422 574 374Z" />
<glyph unicode="l" glyph-name="l" horiz-adv-x="375" d="M129 -10T97 4T65 51Q65 55 67 65L171 574Q172 578 172 585Q172 611 144 611Q140 611 126 608L124 648L355 717H392L263 89Q261 79 261 75Q261 53 284 53Q293 53 306 56T327 61L320 28Q294 10 254 0T173
-10Q129 -10 97 4Z" />
<glyph unicode="m" glyph-name="m" horiz-adv-x="1056" d="M976 53T989 56T1009 61L1003 28Q976 10 936 0T856 -10Q812 -10 780 4T747 51Q747 55 749 65L802 324Q806 341 806 357Q806 408 755 408Q738 408 715 394T669 348T635 264L581 0L395 -10L463 324Q467
341 467 357Q467 408 416 408Q399 408 377 395T333 350T299 270L244 0L49 -10L120 337L122 349Q122 374 94 374Q90 374 75 371L74 411L305 480H342L327 406Q358 444 406 462T501 480Q641 480 653 391Q683 437 735 458T840 480Q922 480 961 451T1001 370Q1001 356
998 339L946 89Q944 79 944 75Q944 53 967 53Q976 53 989 56Z" />
<glyph unicode="n" glyph-name="n" horiz-adv-x="728" d="M643 52T656 55T676 60L669 27Q643 9 603 -1T523 -11Q479 -11 447 3T414 50Q414 54 416 64L469 324Q473 340 473 356Q473 408 420 408Q403 408 380 395T334 350T299 269L244 0L49 -10L120 337L122 349Q122
374 94 374Q90 374 75 371L74 411L305 480H342L327 406Q359 444 408 462T505 480Q588 480 628 451T668 370Q668 356 665 339L613 88Q611 78 611 74Q611 52 634 52Q643 52 656 55Z" />
<glyph unicode="o" glyph-name="o" horiz-adv-x="636" d="M149 -10T85 35T21 171Q21 203 28 235Q53 356 141 418T376 480Q502 480 565 435T629 300Q629 272 621 235Q597 114 510 52T275 -10Q149 -10 85 35ZM337 57T374 102T428 235Q436 281 436 311Q436 362 417
387T361 413Q313 413 277 368T222 235Q213 192 213 160Q213 108 232 83T289 57Q337 57 374 102Z" />
<glyph unicode="p" glyph-name="p" horiz-adv-x="664" d="M120 337L122 349Q122 374 94 374Q90 374 75 371L74 411L305 480H342L325 396Q354 433 395 456T482 480Q565 480 613 437T661 312Q661 284 653 246Q625 109 549 50T349 -10Q316 -10 290 1T251 33L199 -221L4
-231L120 337ZM384 57T413 104T462 241Q475 300 475 340Q475 377 462 395T423 413Q407 413 379 388T327 326T297 259L278 166Q274 150 274 131Q274 97 290 77T336 57Q384 57 413 104Z" />
<glyph unicode="q" glyph-name="q" horiz-adv-x="669" d="M373 -255T341 -241T308 -194Q308 -190 310 -180L355 34Q297 -10 205 -10Q28 -10 28 157Q28 193 39 246Q61 358 134 419T303 480Q420 480 454 419L508 480H638L507 -156Q505 -166 505 -170Q505 -192 528
-192Q537 -192 550 -189T571 -184L564 -217Q537 -235 497 -245T417 -255Q373 -255 341 -241ZM317 57T345 91T382 174L411 311Q414 325 414 336Q414 371 396 392T355 413Q305 413 276 372T228 241Q216 187 216 146Q216 57 279 57Q317 57 345 91Z" />
<glyph unicode="r" glyph-name="r" horiz-adv-x="548" d="M537 480T562 468T588 425Q588 420 586 410Q578 374 556 356T504 337Q488 337 479 343T460 360Q451 370 444 375T423 380Q409 380 383 360T330 304T290 223L244 0L49 -10L120 337L122 349Q122 374 94 374Q90
374 75 371L74 411L305 480H342L320 372Q360 429 410 454T501 480Q537 480 562 468Z" />
<glyph unicode="s" glyph-name="s" horiz-adv-x="525" d="M113 -10T62 18T10 92Q10 128 31 146T79 165Q97 165 110 157T123 133Q123 119 117 110T108 94Q105 77 124 67T185 57Q227 57 255 69T289 110Q293 128 275 138T211 163Q163 178 132 192T77 233T54 303Q54
321 58 338Q72 404 134 442T313 480Q422 480 472 452T523 378Q523 342 502 324T453 305Q435 305 422 314T409 339Q409 352 416 360T424 376Q427 393 406 402T343 412Q306 412 281 401T251 367Q247 348 266 338T332 315Q380 303 412 290T468 249T492 178Q492 159
488 140Q471 59 397 25T222 -10Q113 -10 62 18Z" />
<glyph unicode="t" glyph-name="t" horiz-adv-x="468" d="M317 51T342 69T381 127H428Q408 55 356 23T224 -10Q139 -10 91 15T42 102Q42 120 45 139L100 404H43L56 470H113L132 560L296 609H333L305 470H436L423 404H291L237 139Q234 121 234 107Q234 51 286 51Q317
51 342 69Z" />
<glyph unicode="u" glyph-name="u" horiz-adv-x="693" d="M590 53T613 53Q622 53 635 56T655 61L648 28Q622 10 584 0T507 -10Q463 -10 429 6T395 59V65Q364 27 315 9T216 -10Q134 -10 94 19T54 100Q54 115 57 131L99 337L101 349Q101 374 73 374Q68 374 54 371L53
411L284 480H321L253 146Q249 130 249 114Q249 62 302 62Q319 62 342 75T388 119T422 198L451 337Q452 342 452 349Q452 374 425 374Q420 374 405 371L404 411L635 480H672L592 89Q590 79 590 75Q590 53 613 53Z" />
<glyph unicode="v" glyph-name="v" horiz-adv-x="633" d="M116 -10T85 23T54 104Q54 118 57 131L99 337L101 349Q101 374 73 374Q68 374 54 371L53 411L284 480H321L253 146Q248 121 248 105Q248 80 256 64T286 48Q347 48 386 131T447 324Q456 376 456 407Q456
426 452 452Q474 466 501 473T553 481Q604 481 627 461T651 410Q651 405 649 393Q629 296 572 204T416 51T183 -10Q116 -10 85 23Z" />
<glyph unicode="w" glyph-name="w" horiz-adv-x="833" d="M810 481T830 457T850 395Q850 373 846 357Q824 252 793 177T686 46T477 -10Q379 -10 356 56Q278 -9 196 -9Q125 -9 89 16T52 91Q52 108 56 124L99 337L101 349Q101 374 73 374Q68 374 54 371L53 411L284
480H321L248 125Q243 100 243 88Q243 65 253 58T283 50Q308 50 350 90V94Q350 110 353 123L422 463H590L516 100Q513 85 513 73Q513 44 542 44Q575 44 599 90T639 213Q650 266 655 324T661 425Q661 445 660 452Q707 481 764 481Q810 481 830 457Z" />
<glyph unicode="x" glyph-name="x" horiz-adv-x="641" d="M679 470L669 422H646Q630 422 612 412T572 383L418 256L498 123Q502 117 515 98T544 67T577 55Q591 55 601 61L595 28Q569 10 520 0T428 -10Q396 -10 376 -2T343 20T313 57L268 133L107 0H-35L-26 48H-4Q30
48 74 84L226 205L123 379Q121 384 111 384Q102 384 91 380T77 375L61 368L56 409L203 470H289L376 325L559 470H679Z" />
<glyph unicode="y" glyph-name="y" horiz-adv-x="641" d="M635 480T654 463T674 417Q674 411 672 399Q667 373 642 338T571 247L537 205L205 -213Q170 -257 133 -274T47 -291Q16 -291 -7 -270T-31 -217Q-31 -208 -30 -203Q-26 -182 -7 -163T36 -144Q58 -144 66
-155T80 -186Q83 -199 86 -205T98 -212Q112 -212 128 -196T167 -151L286 0L123 379Q121 384 111 384Q102 384 91 380T77 375L61 368L56 409L203 470H286L407 153L446 203Q459 220 474 261T498 348Q506 396 506 413Q506 437 500 449Q547 480 599 480Q635 480 654
463Z" />
<glyph unicode="z" glyph-name="z" horiz-adv-x="517" d="M-17 30L336 404H167Q140 404 110 320H67L96 470H552L546 436L247 120Q260 120 266 119Q286 117 313 111Q345 105 356 105Q393 105 425 130T476 197L504 187Q445 -10 353 -10Q331 -10 308 -5T253 10Q219
20 200 24T162 28Q112 28 62 -10L-17 30Z" />
<glyph unicode="{" glyph-name="braceleft" horiz-adv-x="350" d="M187 -150T144 -141T81 -110T61 -48Q61 -25 67 4L106 195Q111 218 111 236Q111 273 93 297T34 325L41 360Q102 371 127 399T165 489L201 659Q215 726 240 762T315 814T457 830L451 797Q399 786
372 757T334 675L299 501Q290 455 275 425T227 375T138 345L137 340Q195 332 219 310T243 247Q243 225 237 198L198 5Q193 -15 193 -38Q193 -70 210 -89T268 -118L262 -150Q187 -150 144 -141Z" />
<glyph unicode="|" glyph-name="bar" horiz-adv-x="453" d="M110 742H263V-204H110V742Z" />
<glyph unicode="}" glyph-name="braceright" horiz-adv-x="350" d="M-47 -118Q10 -105 36 -77T74 5L114 198Q127 263 161 296T272 340L273 345Q214 354 191 378T168 443Q168 464 175 501L211 675Q215 705 215 717Q215 749 199 768T144 797L151 830Q225 830 267
820T327 787T346 725Q346 699 338 659L303 489Q296 456 296 438Q296 405 314 387T376 360L369 325Q315 321 285 284T243 195L204 4Q192 -57 165 -90T87 -136T-52 -150L-47 -118Z" />
<glyph unicode="~" glyph-name="asciitilde" horiz-adv-x="598" d="M393 194T363 200T286 221Q247 233 225 238T181 243Q134 243 94 210L78 279Q99 302 134 317T200 333Q226 333 252 327T322 309Q360 297 388 291T443 284Q492 284 529 317L546 248Q525 225 491
210T426 194Q393 194 363 200Z" />
<glyph unicode="&#xa0;" glyph-name="uni00A0" horiz-adv-x="254" />
<glyph unicode="&#xa1;" glyph-name="exclamdown" horiz-adv-x="382" d="M179 303T161 320T142 368Q142 379 145 392Q153 432 181 456T248 480Q281 480 298 463T316 415Q316 400 314 392Q306 351 278 327T212 303Q179 303 161 320ZM19 -236T19 -175Q19 -168 21
-152L26 -135L166 276H247L220 -135Q219 -136 219 -140T217 -152Q202 -236 102 -236Q19 -236 19 -175Z" />
<glyph unicode="&#xa2;" glyph-name="cent" horiz-adv-x="580" d="M570 469T570 367Q570 357 566 335Q561 314 542 295T500 276Q477 276 466 287T454 314Q454 321 455 324Q457 331 463 343Q472 357 472 371Q472 389 453 402T398 416Q328 416 284 365T224 234Q217
203 217 172Q217 116 242 84T317 51Q379 51 421 79T490 172H536Q514 98 453 48T301 -9L285 -87H226L242 -9Q132 -3 77 42T21 172Q21 203 28 235Q42 303 83 357T191 443T341 480L361 578H421L401 479Q570 469 570 367Z" />
<glyph unicode="&#xa3;" glyph-name="sterling" horiz-adv-x="623" d="M-10 66H57Q81 86 87 98T100 140L137 317H49L63 382H150L174 499Q192 592 261 648T448 705Q506 705 539 691T608 649Q611 646 617 646Q623 646 626 654L635 700H697L657 500H602Q603 508 603
523Q603 589 575 612T498 635Q450 635 414 601T363 499L339 382H524L510 317H326L293 159Q286 126 274 105T237 68H406Q455 68 484 103T537 203H584L522 0H-24L-10 66Z" />
<glyph unicode="&#xa4;" glyph-name="currency" horiz-adv-x="597" d="M61 114L131 174Q116 209 116 250Q116 277 119 291Q133 355 179 408L131 471L188 521L236 458Q266 478 295 487T359 497Q394 497 419 488T467 458L541 521L578 471L503 408Q520 372 520 333Q520
316 515 291Q502 227 455 174L500 115L443 65L399 124Q369 104 340 95T276 85Q241 85 216 94T168 124L97 64L61 114ZM329 156T366 178T427 239T451 319Q451 365 421 395T344 426Q291 426 245 387T187 291Q184 278 184 265Q184 218 213 187T289 156Q329 156 366
178Z" />
<glyph unicode="&#xa5;" glyph-name="yen" horiz-adv-x="736" d="M830 705L820 657H804Q784 657 765 647T731 618L564 401H692L679 336H514L478 289L463 217H655L642 152H450L438 93Q437 89 437 83Q437 53 482 53H513L503 5H139L148 53H179Q232 53 238 93L250
152H78L92 217H264L279 291L264 336H116L129 401H242L167 621Q156 657 126 657H103L113 705H445L435 657H412Q394 657 383 649T371 626Q371 622 373 614L432 401H459L612 606Q622 619 622 631Q622 643 612 650T589 657H566L575 705H830Z" />
<glyph unicode="&#xa6;" glyph-name="brokenbar" horiz-adv-x="453" d="M110 742H263V329H110V742ZM110 263H263V-204H110V263Z" />
<glyph unicode="&#xa7;" glyph-name="section" horiz-adv-x="650" d="M599 533L600 551Q600 623 559 654T455 686Q404 686 365 658T325 579Q325 553 341 535T383 504T451 475Q507 454 543 435T604 383T629 297Q629 275 623 248Q606 162 542 109Q572 73 572 18Q572
-9 567 -31Q544 -141 455 -191T236 -242Q174 -242 131 -228T48 -193Q30 -183 26 -183Q21 -183 20 -189L10 -237H-52L-7 -18H47Q42 -99 88 -135T203 -171Q261 -171 303 -148T356 -67Q358 -60 358 -46Q358 -18 341 1T300 33T230 64Q174 86 140 104T82 156T57 239Q57
266 62 287Q78 372 149 422Q114 462 114 518Q114 543 118 566Q137 660 217 708T423 757Q471 757 509 744T589 710Q613 698 618 698Q624 698 627 706L636 752H698L654 533H599ZM416 261T398 281T354 314T279 346Q271 331 269 319Q267 305 267 300Q267 272 286 253T330
223T408 191L414 212Q416 226 416 232Q416 261 398 281Z" />
<glyph unicode="&#xa8;" glyph-name="dieresis" horiz-adv-x="509" d="M181 573T165 589T149 630Q149 668 175 696T239 724Q267 724 283 708T299 666Q299 628 273 601T209 573Q181 573 165 589ZM419 573T403 589T387 630Q387 668 413 696T477 724Q505 724 521
708T537 666Q537 628 511 601T447 573Q419 573 403 589Z" />
<glyph unicode="&#xa9;" glyph-name="copyright" horiz-adv-x="797" d="M258 -10T178 37T53 167T8 355Q8 460 53 543T178 673T358 720Q459 720 539 673T664 543T709 355Q709 250 664 167T539 37T358 -10Q258 -10 178 37ZM440 55T504 94T605 202T641 355Q641 439
605 507T505 615T358 655Q276 655 212 616T112 508T76 355Q76 270 111 202T211 95T358 55Q440 55 504 94ZM256 131T198 185T140 347Q140 443 196 503T354 563Q448 563 497 515L503 563H536V389H504Q491 507 400 507Q345 507 314 461T282 346Q282 276 310 231T390
185Q438 185 466 210T504 291H540Q534 222 490 177T367 131Q256 131 198 185Z" />
<glyph unicode="&#xaa;" glyph-name="ordfeminine" horiz-adv-x="534" d="M377 259T352 276T326 326Q326 330 328 342L334 373Q308 334 266 297T188 260Q126 260 97 298T68 396Q68 424 74 449Q89 523 125 582T212 676T325 710Q350 710 373 701T405 676L412 710H570L496
344Q495 339 495 331Q495 321 499 317T513 313Q523 313 533 316T548 320L541 291Q516 276 482 268T410 259Q377 259 352 276ZM257 327T291 363T345 427L387 633Q384 643 372 652T340 661Q309 661 280 596T239 474Q234 448 229 418T224 367Q224 327 243 327Q257
327 291 363Z" />
<glyph unicode="&#xab;" glyph-name="guillemotleft" horiz-adv-x="612" d="M46 249L52 275L339 541L362 487L193 262L270 37L226 -17L46 249ZM297 249L303 275L590 541L613 487L444 262L521 37L476 -17L297 249Z" />
<glyph unicode="&#xac;" glyph-name="logicalnot" horiz-adv-x="497" d="M339 313H-14V379H417V170H339V313Z" />
<glyph unicode="&#xad;" glyph-name="uni00AD" horiz-adv-x="475" d="M73 337H454L432 228H51L73 337Z" />
<glyph unicode="&#xae;" glyph-name="registered" horiz-adv-x="797" d="M459 720T539 673T664 543T709 355Q709 250 664 167T539 37T358 -10Q258 -10 178 37T53 167T8 355Q8 460 53 543T178 673T358 720Q459 720 539 673ZM440 55T504 94T605 202T641 355Q641
439 605 507T505 615T358 655Q276 655 212 616T112 508T76 355Q76 270 111 202T211 95T358 55Q440 55 504 94ZM525 193T536 190T564 185V153H421L342 325H336V212Q336 198 343 192T368 185H386V153H164V185H183Q200 185 207 191T215 212V509Q215 523 208 529T183
536H164V568H406Q483 568 513 538T543 451Q543 408 523 377T463 333L520 203Q525 193 536 190ZM336 370H367Q424 370 424 452Q424 490 411 507T367 524H336V370Z" />
<glyph unicode="&#xaf;" glyph-name="overscore" horiz-adv-x="509" d="M140 768H596L578 681H122L140 768Z" />
<glyph unicode="&#xb0;" glyph-name="degree" horiz-adv-x="365" d="M168 423T135 456T101 544Q101 564 105 581Q119 650 171 694T293 739Q353 739 386 706T420 618Q420 598 416 581Q402 513 350 468T228 423Q168 423 135 456ZM285 496T314 527T343 601Q343 630
326 648T278 667Q237 667 208 636T178 561Q178 532 195 514T243 496Q285 496 314 527Z" />
<glyph unicode="&#xb1;" glyph-name="plusminus" horiz-adv-x="596" d="M222 310H49L69 407H242L276 570H467L433 407H606L586 310H413L380 147H189L222 310ZM32 116H514L495 20H13L32 116Z" />
<glyph unicode="&#xb2;" glyph-name="uni00B2" horiz-adv-x="480" d="M69 305Q86 340 116 368T199 433Q260 477 292 509T333 586Q335 594 335 607Q335 645 294 645Q236 645 222 574Q218 556 201 547T163 537Q144 537 134 546T123 572Q123 576 125 586Q132 619
161 646T235 690T335 706Q408 706 454 681T500 601Q500 588 497 573Q488 530 450 498T343 425Q277 385 250 363H394Q408 363 420 380T440 418H464L420 259H61L69 305Z" />
<glyph unicode="&#xb3;" glyph-name="uni00B3" horiz-adv-x="480" d="M153 251T112 274T70 337Q70 343 72 355Q83 404 129 404Q153 404 165 395T174 367Q172 357 172 353Q172 334 185 325T218 316Q288 316 302 384Q304 396 304 401Q304 423 290 437T250 452H184L196
515H263Q293 515 313 537T339 586Q341 594 341 607Q341 645 301 645Q274 645 255 633T228 582Q224 564 207 555T168 545Q130 545 130 579Q130 584 132 594Q141 642 195 674T332 706Q408 706 453 682T498 608Q498 596 495 584Q478 511 413 486Q467 465 467 413Q467
405 463 383Q449 314 385 283T236 251Q153 251 112 274Z" />
<glyph unicode="&#xb4;" glyph-name="acute" horiz-adv-x="509" d="M213 621L363 760Q382 777 402 790T448 803Q474 803 487 791T500 760Q500 752 499 748Q495 726 476 708T424 672L237 571L213 621Z" />
<glyph unicode="&#xb6;" glyph-name="paragraph" horiz-adv-x="563" d="M85 48H116Q142 48 150 57T159 88V304Q75 316 31 369T-14 506Q-14 605 36 650T186 696H499V648H468Q442 648 434 639T425 608V88Q425 67 433 58T468 48H499V0H327V635H258V0H85V48ZM159 635Q103
634 78 598T53 505Q53 463 69 434T109 389T159 373V635Z" />
<glyph unicode="&#xb7;" glyph-name="middot" horiz-adv-x="300" d="M135 272T120 287T104 329Q104 367 129 395T193 423Q222 423 238 407T254 365Q254 327 228 300T163 272Q135 272 120 287Z" />
<glyph unicode="&#xb8;" glyph-name="cedilla" horiz-adv-x="509" d="M66 -259T38 -255L46 -214Q103 -214 139 -199T184 -145Q185 -142 185 -136Q185 -111 162 -99T114 -85L109 -73L201 37H267L210 -31Q245 -37 275 -56T306 -116Q306 -121 304 -135Q289 -209 227
-234T95 -259Q66 -259 38 -255Z" />
<glyph unicode="&#xb9;" glyph-name="uni00B9" horiz-adv-x="480" d="M83 305H137Q184 305 190 343L240 584L153 559L165 619L445 712L369 343Q368 339 368 332Q368 305 407 305H461L452 259H74L83 305Z" />
<glyph unicode="&#xba;" glyph-name="ordmasculine" horiz-adv-x="431" d="M149 259T109 298T69 411Q69 442 77 482Q99 587 160 646T319 706Q399 706 438 667T477 553Q477 518 470 482Q448 377 387 318T228 259Q149 259 109 298ZM271 343T292 380T327 482Q335
528 335 557Q335 620 303 620Q278 620 256 583T221 482Q212 440 212 408Q212 377 221 360T246 343Q271 343 292 380Z" />
<glyph unicode="&#xbb;" glyph-name="guillemotright" horiz-adv-x="612" d="M24 37L193 262L116 487L161 541L340 275L334 249L47 -17L24 37ZM275 37L444 262L367 487L411 541L591 275L585 249L298 -17L275 37Z" />
<glyph unicode="&#xbc;" glyph-name="onequarter" horiz-adv-x="1056" d="M61 305H115Q162 305 168 343L218 584L131 559L143 619L423 712L347 343Q346 339 346 332Q346 318 355 312T385 305H439L430 259H52L61 305ZM826 694H894L337 0H271L826 694ZM560 134L816
442H993L936 164H1007L980 98H923L920 84Q919 80 919 73Q919 46 958 46H993L984 0H644L653 46H688Q735 46 741 84L744 98H552L560 134ZM758 164L794 340L650 164H758Z" />
<glyph unicode="&#xbd;" glyph-name="onehalf" horiz-adv-x="1056" d="M61 305H115Q162 305 168 343L218 584L131 559L143 619L423 712L347 343Q346 339 346 332Q346 318 355 312T385 305H439L430 259H52L61 305ZM808 694H876L319 0H253L808 694ZM604 46Q621 81
651 109T734 174Q795 218 827 250T868 327Q870 335 870 348Q870 386 829 386Q770 386 756 315Q752 297 736 288T697 278Q658 278 658 313Q658 317 660 327Q667 360 695 387T770 431T870 447Q942 447 988 422T1034 342Q1034 329 1031 314Q1022 271 985 239T878 166Q853
151 828 135T785 104H929Q943 104 955 121T975 159H999L955 0H596L604 46Z" />
<glyph unicode="&#xbe;" glyph-name="threequarters" horiz-adv-x="1056" d="M70 343T72 355Q83 404 129 404Q153 404 165 395T174 367Q172 357 172 353Q172 334 185 325T218 316Q288 316 302 384Q304 396 304 401Q304 423 290 437T250 452H184L196 515H263Q293
515 313 537T339 586Q341 594 341 607Q341 645 301 645Q274 645 255 633T228 582Q224 564 207 555T168 545Q130 545 130 579Q130 584 132 594Q141 642 195 674T332 706Q408 706 453 682T498 608Q498 596 495 584Q478 511 413 486Q467 465 467 413Q467 405 463 383Q449
314 385 283T236 251Q153 251 112 274T70 337Q70 343 72 355ZM808 694H876L319 0H253L808 694ZM547 134L803 442H980L923 164H994L966 98H909L907 84Q906 80 906 73Q906 59 915 53T945 46H980L971 0H631L640 46H674Q720 46 728 84L731 98H539L547 134ZM744 164L781
340L637 164H744Z" />
<glyph unicode="&#xbf;" glyph-name="questiondown" horiz-adv-x="516" d="M271 303T253 320T235 368Q235 374 237 392Q245 432 273 456T340 480Q373 480 390 463T408 415Q408 400 406 392Q398 351 371 327T304 303Q271 303 253 320ZM72 -240T17 -210T-39 -106Q-39
-88 -34 -63Q-25 -20 -3 10T46 59T117 101Q158 123 182 139T226 181T253 242Q257 266 257 285H342Q342 244 335 216Q323 156 295 118T220 37Q185 5 167 -18T142 -72Q138 -104 138 -113Q138 -143 152 -156T200 -170Q244 -170 266 -143T302 -52Q306 -30 328 -17T380
-4Q408 -4 426 -17T444 -55Q444 -65 443 -70Q428 -144 357 -192T169 -240Q72 -240 17 -210Z" />
<glyph unicode="&#xc0;" glyph-name="Agrave" horiz-adv-x="794" d="M426 905T426 938Q426 946 427 950Q431 971 450 988T500 1005Q525 1005 542 990T567 962L659 823L616 773L470 874Q426 905 426 938ZM760 48L750 0H404L413 48H436Q476 48 476 82V91L464 174H225L182
99Q173 85 173 73Q173 60 182 54T205 48H228L218 0H-36L-27 48H-10Q11 48 31 57T63 87L411 676L571 728L694 84Q702 48 737 48H760ZM454 242L415 509L263 242H454Z" />
<glyph unicode="&#xc1;" glyph-name="Aacute" horiz-adv-x="794" d="M424 773L399 823L549 962Q568 979 588 992T633 1005Q659 1005 671 993T684 962Q684 954 683 950Q679 929 661 911T609 874L424 773ZM760 48L750 0H404L413 48H436Q476 48 476 82V91L464 174H225L182
99Q173 85 173 73Q173 60 182 54T205 48H228L218 0H-36L-27 48H-10Q11 48 31 57T63 87L411 676L571 728L694 84Q702 48 737 48H760ZM454 242L415 509L263 242H454Z" />
<glyph unicode="&#xc2;" glyph-name="Acircumflex" horiz-adv-x="794" d="M339 775L320 805L513 990H609L728 805L695 775L580 878Q557 899 543 899Q529 899 496 878L339 775ZM760 48L750 0H404L413 48H436Q476 48 476 82V91L464 174H225L182 99Q173 85 173 73Q173
60 182 54T205 48H228L218 0H-36L-27 48H-10Q11 48 31 57T63 87L411 676L571 728L694 84Q702 48 737 48H760ZM454 242L415 509L263 242H454Z" />
<glyph unicode="&#xc3;" glyph-name="Atilde" horiz-adv-x="794" d="M408 827T391 815T348 770L319 789Q354 843 390 879T480 916Q501 916 520 911T566 894Q594 883 613 878T654 872Q681 872 698 884T740 929L767 910Q736 857 699 820T608 783Q588 783 571 788T524
804Q498 815 477 821T434 827Q408 827 391 815ZM702 48T737 48H760L750 0H404L413 48H436Q476 48 476 82V91L464 174H225L182 99Q173 85 173 73Q173 60 182 54T205 48H228L218 0H-36L-27 48H-10Q11 48 31 57T63 87L411 676L571 728L694 84Q702 48 737 48ZM454 242L415
509L263 242H454Z" />
<glyph unicode="&#xc4;" glyph-name="Adieresis" horiz-adv-x="794" d="M350 775T335 790T319 832Q319 870 344 898T407 926Q436 926 452 910T468 868Q468 830 442 803T378 775Q350 775 335 790ZM587 775T572 790T556 832Q556 870 582 898T646 926Q674 926 690
910T706 868Q706 830 680 803T616 775Q587 775 572 790ZM760 48L750 0H404L413 48H436Q476 48 476 82V91L464 174H225L182 99Q173 85 173 73Q173 60 182 54T205 48H228L218 0H-36L-27 48H-10Q11 48 31 57T63 87L411 676L571 728L694 84Q702 48 737 48H760ZM454
242L415 509L263 242H454Z" />
<glyph unicode="&#xc5;" glyph-name="Aring" horiz-adv-x="794" d="M463 739T437 762T411 826Q411 839 414 852Q425 903 463 934T555 966Q600 966 625 943T651 880Q651 867 648 852Q638 802 600 771T508 739Q463 739 437 762ZM479 848T479 841Q479 823 491 812T521
801Q545 801 564 819T583 864Q583 882 572 892T542 903Q521 903 503 889T480 852Q479 848 479 841ZM760 48L750 0H404L413 48H436Q476 48 476 82V91L464 174H225L182 99Q173 85 173 73Q173 60 182 54T205 48H228L218 0H-36L-27 48H-10Q11 48 31 57T63 87L411 676L571
728L694 84Q702 48 737 48H760ZM454 242L415 509L263 242H454Z" />
<glyph unicode="&#xc6;" glyph-name="AE" horiz-adv-x="1023" d="M-14 48H2Q21 48 40 58T75 87L482 621Q490 631 490 640Q490 652 477 652H446L455 700H1076L1035 496H988Q990 512 990 529Q990 632 905 632H740L692 395H807Q836 395 850 417T878 482H915L866 240H829Q831
264 831 276Q831 300 823 313T793 327H678L625 68H818Q867 68 896 103T949 203H996L933 0H330L339 48H370Q423 48 429 88L447 174H247L194 99Q184 85 184 73Q184 61 194 55T217 48H240L231 0H-24L-14 48ZM461 242L522 540L299 242H461Z" />
<glyph unicode="&#xc7;" glyph-name="Ccedilla" horiz-adv-x="710" d="M670 486L671 503Q671 575 627 607T519 639Q460 639 409 605T320 506T263 350Q250 279 250 233Q250 149 284 105T383 61Q531 61 610 176H674Q652 125 607 83T494 15T345 -10H338L314 -38Q349
-44 379 -63T410 -123Q410 -128 408 -142Q393 -216 331 -241T201 -266Q171 -266 143 -262L152 -221Q209 -221 245 -206T289 -152Q290 -149 290 -144Q290 -119 267 -107T219 -92L214 -80L276 -6Q162 10 106 76T50 250Q50 302 61 350Q94 515 203 612T486 710Q607
710 681 654Q682 653 684 652T689 651Q695 651 698 659L707 705H769L725 486H670Z" />
<glyph unicode="&#xc8;" glyph-name="Egrave" horiz-adv-x="663" d="M397 905T397 938Q397 946 398 950Q403 972 421 988T471 1005Q496 1005 513 990T538 962L630 823L587 773L441 874Q397 905 397 938ZM628 496Q630 512 630 529Q630 632 545 632H380L332 395H447Q476
395 490 417T518 482H555L506 240H469Q471 264 471 276Q471 300 463 313T433 327H318L265 68H458Q507 68 536 103T589 203H636L573 0H-30L-21 48H10Q63 48 69 88L177 612Q178 616 178 622Q178 652 133 652H102L112 700H716L675 496H628Z" />
<glyph unicode="&#xc9;" glyph-name="Eacute" horiz-adv-x="663" d="M411 773L386 823L537 962Q557 980 576 992T620 1005Q646 1005 658 993T671 962Q671 954 670 950Q666 929 648 911T596 874L411 773ZM628 496Q630 512 630 529Q630 632 545 632H380L332 395H447Q476
395 490 417T518 482H555L506 240H469Q471 264 471 276Q471 300 463 313T433 327H318L265 68H458Q507 68 536 103T589 203H636L573 0H-30L-21 48H10Q63 48 69 88L177 612Q178 616 178 622Q178 652 133 652H102L112 700H716L675 496H628Z" />
<glyph unicode="&#xca;" glyph-name="Ecircumflex" horiz-adv-x="663" d="M310 775L291 805L484 990H580L699 805L667 775L551 878Q528 899 514 899Q500 899 467 878L310 775ZM628 496Q630 512 630 529Q630 632 545 632H380L332 395H447Q476 395 490 417T518 482H555L506
240H469Q471 264 471 276Q471 300 463 313T433 327H318L265 68H458Q507 68 536 103T589 203H636L573 0H-30L-21 48H10Q63 48 69 88L177 612Q178 616 178 622Q178 652 133 652H102L112 700H716L675 496H628Z" />
<glyph unicode="&#xcb;" glyph-name="Edieresis" horiz-adv-x="663" d="M356 775T341 790T326 832Q326 870 351 898T414 926Q443 926 459 910T475 868Q475 830 449 803T384 775Q356 775 341 790ZM594 775T579 790T563 832Q563 870 588 898T653 926Q681 926 697
910T713 868Q713 830 687 803T622 775Q594 775 579 790ZM628 496Q630 512 630 529Q630 632 545 632H380L332 395H447Q476 395 490 417T518 482H555L506 240H469Q471 264 471 276Q471 300 463 313T433 327H318L265 68H458Q507 68 536 103T589 203H636L573 0H-30L-21
48H10Q63 48 69 88L177 612Q178 616 178 622Q178 652 133 652H102L112 700H716L675 496H628Z" />
<glyph unicode="&#xcc;" glyph-name="Igrave" horiz-adv-x="396" d="M264 874Q220 905 220 938Q220 946 221 950Q226 972 244 988T294 1005Q319 1005 336 990T361 962L453 823L410 773L264 874ZM-15 48H16Q67 48 75 88L183 612Q184 616 184 622Q184 652 139 652H108L117
700H482L473 652H442Q390 652 382 612L275 88Q274 84 274 78Q274 63 284 56T319 48H350L340 0H-25L-15 48Z" />
<glyph unicode="&#xcd;" glyph-name="Iacute" horiz-adv-x="396" d="M195 823L346 962Q366 980 385 992T429 1005Q455 1005 467 993T480 962Q480 954 479 950Q475 929 457 911T405 874L220 773L195 823ZM-15 48H16Q67 48 75 88L183 612Q184 616 184 622Q184 652
139 652H108L117 700H482L473 652H442Q390 652 382 612L275 88Q274 84 274 78Q274 63 284 56T319 48H350L340 0H-25L-15 48Z" />
<glyph unicode="&#xce;" glyph-name="Icircumflex" horiz-adv-x="396" d="M117 805L310 990H406L525 805L493 775L378 878Q354 899 340 899Q326 899 293 878L137 775L117 805ZM-15 48H16Q67 48 75 88L183 612Q184 616 184 622Q184 652 139 652H108L117 700H482L473
652H442Q390 652 382 612L275 88Q274 84 274 78Q274 63 284 56T319 48H350L340 0H-25L-15 48Z" />
<glyph unicode="&#xcf;" glyph-name="Idieresis" horiz-adv-x="396" d="M167 775T152 790T137 832Q137 870 162 898T225 926Q253 926 269 910T285 868Q285 830 259 803T195 775Q167 775 152 790ZM405 775T390 790T374 832Q374 870 399 898T464 926Q492 926 508
910T524 868Q524 830 498 803T433 775Q405 775 390 790ZM-15 48H16Q67 48 75 88L183 612Q184 616 184 622Q184 652 139 652H108L117 700H482L473 652H442Q390 652 382 612L275 88Q274 84 274 78Q274 63 284 56T319 48H350L340 0H-25L-15 48Z" />
<glyph unicode="&#xd0;" glyph-name="Eth" horiz-adv-x="757" d="M618 700T690 642T762 464Q762 411 749 350Q713 171 611 86T324 0H-30L-21 48H10Q63 48 69 88L111 291H29L47 378H129L177 612Q178 616 178 622Q178 652 133 652H102L112 700H467Q618 700 690 642ZM562
425T562 479Q562 555 534 593T452 632H380L328 378H503L485 291H310L265 68H336Q408 68 463 139T547 350Q562 425 562 479Z" />
<glyph unicode="&#xd1;" glyph-name="Ntilde" horiz-adv-x="771" d="M308 789Q343 843 380 879T470 916Q491 916 509 911T555 894Q583 883 602 878T644 872Q670 872 687 884T729 929L757 910Q726 858 689 821T597 783Q577 783 559 788T513 805Q486 816 466 821T424
827Q397 827 380 815T337 770L308 789ZM-21 48H10Q63 48 69 88L177 612Q178 616 178 622Q178 652 133 652H102L112 700H383L613 251L687 612Q688 616 688 622Q688 652 643 652H612L621 700H863L854 652H823Q770 652 764 612L639 0H539L247 581L146 88Q145 84 145
78Q145 48 190 48H221L212 0H-30L-21 48Z" />
<glyph unicode="&#xd2;" glyph-name="Ograve" horiz-adv-x="806" d="M470 874Q426 905 426 938Q426 966 447 985T500 1005Q525 1005 542 990T567 962L659 823L616 773L470 874ZM201 -10T125 58T48 249Q48 386 105 490T267 652T507 710Q666 710 742 642T819 451Q819
313 762 209T601 47T360 -10Q201 -10 125 58ZM449 62T504 124T590 280T620 469Q620 552 587 596T493 640Q420 640 364 578T279 420T249 232Q249 149 281 106T375 62Q449 62 504 124Z" />
<glyph unicode="&#xd3;" glyph-name="Oacute" horiz-adv-x="806" d="M401 823L551 962Q570 979 590 992T635 1005Q661 1005 673 993T686 962Q686 954 685 950Q681 929 663 911T611 874L426 773L401 823ZM201 -10T125 58T48 249Q48 296 60 350Q94 517 205 613T507
710Q666 710 742 642T819 451Q819 401 809 350Q774 183 662 87T360 -10Q201 -10 125 58ZM457 62T517 137T606 350Q620 418 620 469Q620 552 587 596T493 640Q412 640 351 564T262 350Q249 279 249 232Q249 149 281 106T375 62Q457 62 517 137Z" />
<glyph unicode="&#xd4;" glyph-name="Ocircumflex" horiz-adv-x="806" d="M323 805L516 990H612L731 805L698 775L583 878Q560 899 546 899Q532 899 499 878L342 775L323 805ZM201 -10T125 58T48 249Q48 296 60 350Q94 517 205 613T507 710Q666 710 742 642T819
451Q819 401 809 350Q774 183 662 87T360 -10Q201 -10 125 58ZM457 62T517 137T606 350Q620 418 620 469Q620 552 587 596T493 640Q412 640 351 564T262 350Q249 279 249 232Q249 149 281 106T375 62Q457 62 517 137Z" />
<glyph unicode="&#xd5;" glyph-name="Otilde" horiz-adv-x="806" d="M303 789Q338 844 374 880T464 916Q485 916 503 911T549 894Q577 883 596 878T638 872Q664 872 681 884T723 929L751 910Q720 858 683 821T592 783Q571 783 553 788T506 805Q478 816 459 821T418
827Q391 827 374 815T332 770L303 789ZM201 -10T125 58T48 249Q48 296 60 350Q94 517 205 613T507 710Q666 710 742 642T819 451Q819 401 809 350Q774 183 662 87T360 -10Q201 -10 125 58ZM457 62T517 137T606 350Q620 418 620 469Q620 552 587 596T493 640Q412
640 351 564T262 350Q249 279 249 232Q249 149 281 106T375 62Q457 62 517 137Z" />
<glyph unicode="&#xd6;" glyph-name="Odieresis" horiz-adv-x="806" d="M373 775T358 790T342 832Q342 870 367 898T430 926Q459 926 475 910T491 868Q491 830 465 803T401 775Q373 775 358 790ZM610 775T595 790T579 832Q579 870 605 898T669 926Q697 926 713
910T729 868Q729 830 703 803T639 775Q610 775 595 790ZM201 -10T125 58T48 249Q48 296 60 350Q94 517 205 613T507 710Q666 710 742 642T819 451Q819 401 809 350Q774 183 662 87T360 -10Q201 -10 125 58ZM457 62T517 137T606 350Q620 418 620 469Q620 552 587
596T493 640Q412 640 351 564T262 350Q249 279 249 232Q249 149 281 106T375 62Q457 62 517 137Z" />
<glyph unicode="&#xd7;" glyph-name="multiply" horiz-adv-x="596" d="M43 145L221 296L105 447L214 542L335 380L523 542L594 447L414 296L531 145L422 50L302 212L114 50L43 145Z" />
<glyph unicode="&#xd8;" glyph-name="Oslash" horiz-adv-x="806" d="M819 567T819 451Q819 401 809 350Q774 183 662 87T360 -10Q215 -10 136 49L43 -40L-1 5L92 94Q48 154 48 249Q48 296 60 350Q94 517 205 613T507 710Q623 710 698 671L760 730L806 684L752
633Q819 567 819 451ZM250 285T249 243L599 577Q567 640 493 640Q412 640 351 564T262 350Q250 285 249 243ZM620 418T620 469Q620 482 618 506L256 162Q281 62 375 62Q457 62 517 137T606 350Q620 418 620 469Z" />
<glyph unicode="&#xd9;" glyph-name="Ugrave" horiz-adv-x="797" d="M499 874Q454 906 454 938Q454 946 455 950Q460 972 478 988T528 1005Q554 1005 571 990T596 962L688 823L644 773L499 874ZM232 -10T162 34T92 169Q92 196 98 227L177 612Q178 616 178 622Q178
652 133 652H102L112 700H476L467 652H436Q383 652 377 612L294 211Q290 192 290 171Q290 113 328 87T427 61Q497 61 556 97T630 211L713 612Q714 616 714 622Q714 652 668 652H638L647 700H889L880 652H849Q797 652 789 612L711 227Q688 114 599 52T365 -10Q232
-10 162 34Z" />
<glyph unicode="&#xda;" glyph-name="Uacute" horiz-adv-x="797" d="M429 823L580 962Q600 980 619 992T664 1005Q690 1005 702 993T715 962Q715 954 714 950Q710 929 692 911T640 874L454 773L429 823ZM232 -10T162 34T92 169Q92 196 98 227L177 612Q178 616
178 622Q178 652 133 652H102L112 700H476L467 652H436Q383 652 377 612L294 211Q290 192 290 171Q290 113 328 87T427 61Q497 61 556 97T630 211L713 612Q714 616 714 622Q714 652 668 652H638L647 700H889L880 652H849Q797 652 789 612L711 227Q688 114 599 52T365
-10Q232 -10 162 34Z" />
<glyph unicode="&#xdb;" glyph-name="Ucircumflex" horiz-adv-x="797" d="M352 805L545 990H641L760 805L727 775L612 878Q587 899 574 899Q562 899 527 878L371 775L352 805ZM232 -10T162 34T92 169Q92 196 98 227L177 612Q178 616 178 622Q178 652 133 652H102L112
700H476L467 652H436Q383 652 377 612L294 211Q290 192 290 171Q290 113 328 87T427 61Q497 61 556 97T630 211L713 612Q714 616 714 622Q714 652 668 652H638L647 700H889L880 652H849Q797 652 789 612L711 227Q688 114 599 52T365 -10Q232 -10 162 34Z" />
<glyph unicode="&#xdc;" glyph-name="Udieresis" horiz-adv-x="797" d="M391 775T376 790T361 832Q361 870 386 898T449 926Q478 926 494 910T510 868Q510 830 484 803T419 775Q391 775 376 790ZM629 775T614 790T598 832Q598 870 623 898T688 926Q716 926 732
910T748 868Q748 830 722 803T658 775Q629 775 614 790ZM232 -10T162 34T92 169Q92 196 98 227L177 612Q178 616 178 622Q178 652 133 652H102L112 700H476L467 652H436Q383 652 377 612L294 211Q290 192 290 171Q290 113 328 87T427 61Q497 61 556 97T630 211L713
612Q714 616 714 622Q714 652 668 652H638L647 700H889L880 652H849Q797 652 789 612L711 227Q688 114 599 52T365 -10Q232 -10 162 34Z" />
<glyph unicode="&#xdd;" glyph-name="Yacute" horiz-adv-x="736" d="M421 823L572 962Q586 976 608 990T655 1005Q681 1005 693 993T706 962Q706 954 705 950Q701 929 683 911T631 874L446 773L421 823ZM147 48H178Q231 48 237 88L278 286L166 616Q155 652 125
652H102L112 700H444L434 652H411Q393 652 382 644T370 621Q370 617 372 609L438 369L611 601Q621 614 621 626Q621 638 611 645T588 652H565L574 700H829L819 652H803Q783 652 764 642T730 613L477 284L437 88Q436 84 436 78Q436 48 481 48H512L502 0H138L147
48Z" />
<glyph unicode="&#xde;" glyph-name="Thorn" horiz-adv-x="660" d="M-21 48H10Q63 48 69 88L177 612Q178 616 178 622Q178 652 133 652H102L112 700H394L373 596H486Q592 596 638 557T685 446Q685 416 677 378Q656 274 591 217T397 159H284L269 88Q268 84 268
78Q268 48 313 48H344L334 0H-30L-21 48ZM361 227Q407 227 436 264T480 378Q489 419 489 447Q489 528 423 528H359L298 227H361Z" />
<glyph unicode="&#xdf;" glyph-name="germandbls" horiz-adv-x="812" d="M614 345T631 332T682 304Q715 289 736 276T773 240T788 183Q788 161 785 148Q775 101 741 65T655 10T545 -10Q435 -10 384 18T332 92Q332 128 353 146T402 165Q420 165 433 157T446 133Q446
120 439 111T430 94Q428 77 447 67T507 57Q541 57 560 72T584 110Q587 128 574 139T527 164Q492 179 470 193T431 233T414 298Q414 315 419 342Q429 393 470 434T567 491Q572 516 572 546Q572 591 551 621T476 652Q438 652 408 628T368 557L226 -141L31 -151L145
404H58L71 470H158L170 528Q190 625 275 673T480 722Q631 722 688 660T745 517Q745 500 740 472L734 440Q686 440 650 420T614 365Q614 345 631 332Z" />
<glyph unicode="&#xe0;" glyph-name="agrave" horiz-adv-x="655" d="M353 652Q308 684 308 716Q308 724 309 728Q314 750 332 766T382 783Q408 783 425 768T450 740L542 601L499 551L353 652ZM83 -12T58 23T33 113Q33 138 41 182Q66 305 136 392T347 480Q368 480
395 473T439 452L442 470H634L556 89Q554 79 554 75Q554 53 577 53Q586 53 599 56T620 61L613 28Q586 10 546 0T466 -10Q422 -10 390 4T357 51Q357 55 359 65L379 157Q341 91 275 40T142 -12Q83 -12 58 23ZM245 63T286 109T365 212T407 299L422 368Q417 388 411
399T392 410Q353 410 319 378T259 294T223 186Q219 171 216 146T213 99Q213 63 225 63Q245 63 286 109Z" />
<glyph unicode="&#xe1;" glyph-name="aacute" horiz-adv-x="655" d="M325 601L476 740Q490 754 512 768T559 783Q585 783 597 771T610 740Q610 732 609 728Q605 707 587 689T535 652L350 551L325 601ZM83 -12T58 23T33 113Q33 138 41 182Q66 305 136 392T347 480Q368
480 395 473T439 452L442 470H634L556 89Q554 79 554 75Q554 53 577 53Q586 53 599 56T620 61L613 28Q586 10 546 0T466 -10Q422 -10 390 4T357 51Q357 55 359 65L379 157Q341 91 275 40T142 -12Q83 -12 58 23ZM245 63T286 109T365 212T407 299L422 368Q417 388
411 399T392 410Q353 410 319 378T259 294T223 186Q219 171 216 146T213 99Q213 63 225 63Q245 63 286 109Z" />
<glyph unicode="&#xe2;" glyph-name="acircumflex" horiz-adv-x="655" d="M212 583L404 768H500L620 583L587 553L472 656Q447 677 434 677Q420 677 387 656L231 553L212 583ZM83 -12T58 23T33 113Q33 138 41 182Q66 305 136 392T347 480Q368 480 395 473T439
452L442 470H634L556 89Q554 79 554 75Q554 53 577 53Q586 53 599 56T620 61L613 28Q586 10 546 0T466 -10Q422 -10 390 4T357 51Q357 55 359 65L379 157Q341 91 275 40T142 -12Q83 -12 58 23ZM245 63T286 109T365 212T407 299L422 368Q417 388 411 399T392 410Q353
410 319 378T259 294T223 186Q219 171 216 146T213 99Q213 63 225 63Q245 63 286 109Z" />
<glyph unicode="&#xe3;" glyph-name="atilde" horiz-adv-x="655" d="M212 567Q247 621 284 657T374 694Q395 694 413 689T459 672Q487 661 506 656T548 650Q574 650 591 662T633 707L661 688Q630 636 593 599T501 561Q481 561 463 566T417 583Q390 594 370 599T328
605Q301 605 284 593T241 548L212 567ZM83 -12T58 23T33 113Q33 138 41 182Q66 305 136 392T347 480Q368 480 395 473T439 452L442 470H634L556 89Q554 79 554 75Q554 53 577 53Q586 53 599 56T620 61L613 28Q586 10 546 0T466 -10Q422 -10 390 4T357 51Q357 55
359 65L379 157Q341 91 275 40T142 -12Q83 -12 58 23ZM245 63T286 109T365 212T407 299L422 368Q417 388 411 399T392 410Q353 410 319 378T259 294T223 186Q219 171 216 146T213 99Q213 63 225 63Q245 63 286 109Z" />
<glyph unicode="&#xe4;" glyph-name="adieresis" horiz-adv-x="655" d="M256 553T241 568T225 610Q225 648 250 676T313 704Q342 704 358 688T374 646Q374 608 348 581T284 553Q256 553 241 568ZM493 553T478 568T462 610Q462 648 488 676T552 704Q580 704 596
688T612 646Q612 608 586 581T522 553Q493 553 478 568ZM83 -12T58 23T33 113Q33 138 41 182Q66 305 136 392T347 480Q368 480 395 473T439 452L442 470H634L556 89Q554 79 554 75Q554 53 577 53Q586 53 599 56T620 61L613 28Q586 10 546 0T466 -10Q422 -10 390
4T357 51Q357 55 359 65L379 157Q341 91 275 40T142 -12Q83 -12 58 23ZM245 63T286 109T365 212T407 299L422 368Q417 388 411 399T392 410Q353 410 319 378T259 294T223 186Q219 171 216 146T213 99Q213 63 225 63Q245 63 286 109Z" />
<glyph unicode="&#xe5;" glyph-name="aring" horiz-adv-x="655" d="M371 553T345 576T319 640Q319 653 322 666Q333 717 371 748T463 780Q508 780 533 757T559 694Q559 681 556 666Q546 616 508 585T416 553Q371 553 345 576ZM453 615T472 633T491 678Q491 696
480 706T450 717Q429 717 411 703T388 666Q387 662 387 655Q387 637 398 626T428 615Q453 615 472 633ZM83 -12T58 23T33 113Q33 138 41 182Q66 305 136 392T347 480Q368 480 395 473T439 452L442 470H634L556 89Q554 79 554 75Q554 53 577 53Q586 53 599 56T620
61L613 28Q586 10 546 0T466 -10Q422 -10 390 4T357 51Q357 55 359 65L379 157Q341 91 275 40T142 -12Q83 -12 58 23ZM245 63T286 109T365 212T407 299L422 368Q417 388 411 399T392 410Q353 410 319 378T259 294T223 186Q219 171 216 146T213 99Q213 63 225 63Q245
63 286 109Z" />
<glyph unicode="&#xe6;" glyph-name="ae" horiz-adv-x="858" d="M75 -10T33 13T-10 79Q-10 85 -8 97Q8 175 91 220T328 287Q335 310 352 336Q355 372 333 391T275 410Q242 410 217 397T188 370V345V335Q183 314 165 300T116 286Q95 286 79 300T63 341Q63 353 65
360Q76 417 145 448T331 480Q374 480 412 471T478 446Q552 480 644 480Q760 480 812 452T864 367Q864 353 861 336Q844 248 745 207T500 159Q504 109 529 80T602 51Q665 51 708 79T777 172H823Q799 93 731 42T561 -10Q410 -10 348 55Q266 -10 148 -10Q75 -10 33
13ZM580 228T634 255T699 335Q702 350 702 363Q702 389 688 402T644 416Q588 416 556 362T507 234L503 215Q580 228 634 255ZM255 61T279 69T323 90Q305 122 305 171Q305 200 311 231Q199 186 185 112Q184 108 184 100Q184 82 196 72T232 61Q255 61 279 69Z" />
<glyph unicode="&#xe7;" glyph-name="ccedilla" horiz-adv-x="580" d="M570 480T570 367Q570 357 566 335Q561 314 542 295T500 276Q477 276 466 287T454 314Q454 321 455 324Q457 331 463 343Q472 357 472 371Q472 389 453 402T398 416Q328 416 284 365T224 234Q217
203 217 172Q217 116 242 84T317 51Q379 51 421 79T490 172H536Q512 93 445 42T276 -10H261L231 -46Q266 -52 296 -71T327 -131Q327 -136 325 -150Q310 -224 248 -249T117 -274Q88 -274 60 -270L68 -229Q125 -229 161 -214T206 -160Q207 -157 207 -152Q207 -127
184 -115T136 -100L131 -88L200 -5Q111 8 66 52T21 172Q21 203 28 235Q43 305 87 360T201 448T361 480Q570 480 570 367Z" />
<glyph unicode="&#xe8;" glyph-name="egrave" horiz-adv-x="575" d="M291 685T291 716Q291 724 292 728Q297 750 315 766T365 783Q390 783 407 768T432 740L524 601L481 551L335 652Q291 685 291 716ZM560 248T461 207T217 159Q220 110 246 81T319 51Q382 51 425
79T494 172H540Q516 93 448 42T278 -10Q152 -10 87 36T21 173Q21 204 28 235Q43 308 87 363T202 449T361 480Q477 480 529 452T581 367Q581 353 578 336Q560 248 461 207ZM419 350T419 363Q419 389 405 402T361 416Q305 416 272 361T224 234L221 216Q398 245 416
335Q419 350 419 363Z" />
<glyph unicode="&#xe9;" glyph-name="eacute" horiz-adv-x="575" d="M557 783T569 771T582 740Q582 732 581 728Q577 707 559 689T507 652L322 551L297 601L448 740Q462 754 484 768T531 783Q557 783 569 771ZM477 480T529 452T581 367Q581 353 578 336Q560 248
461 207T217 159Q220 110 246 81T319 51Q382 51 425 79T494 172H540Q516 93 448 42T278 -10Q152 -10 87 36T21 173Q21 204 28 235Q43 308 87 363T202 449T361 480Q477 480 529 452ZM419 350T419 363Q419 389 405 402T361 416Q305 416 272 361T224 234L221 216Q398
245 416 335Q419 350 419 363Z" />
<glyph unicode="&#xea;" glyph-name="ecircumflex" horiz-adv-x="575" d="M207 553L188 583L380 768H476L596 583L563 553L448 656Q424 677 410 677Q396 677 363 656L207 553ZM477 480T529 452T581 367Q581 353 578 336Q560 248 461 207T217 159Q220 110 246 81T319
51Q382 51 425 79T494 172H540Q516 93 448 42T278 -10Q152 -10 87 36T21 173Q21 204 28 235Q43 308 87 363T202 449T361 480Q477 480 529 452ZM419 350T419 363Q419 389 405 402T361 416Q305 416 272 361T224 234L221 216Q398 245 416 335Q419 350 419 363Z" />
<glyph unicode="&#xeb;" glyph-name="edieresis" horiz-adv-x="575" d="M239 553T224 568T209 610Q209 648 234 676T297 704Q325 704 341 688T357 646Q357 608 331 581T267 553Q239 553 224 568ZM477 553T462 568T446 610Q446 648 471 676T536 704Q564 704 580
688T596 646Q596 608 570 581T505 553Q477 553 462 568ZM477 480T529 452T581 367Q581 353 578 336Q560 248 461 207T217 159Q220 110 246 81T319 51Q382 51 425 79T494 172H540Q516 93 448 42T278 -10Q152 -10 87 36T21 173Q21 204 28 235Q43 308 87 363T202 449T361
480Q477 480 529 452ZM419 350T419 363Q419 389 405 402T361 416Q305 416 272 361T224 234L221 216Q398 245 416 335Q419 350 419 363Z" />
<glyph unicode="&#xec;" glyph-name="igrave" horiz-adv-x="396" d="M219 652Q175 683 175 716Q175 724 176 728Q181 750 199 766T249 783Q274 783 291 768T316 740L408 601L365 551L219 652ZM137 -10T105 4T72 51Q72 55 74 65L130 337L132 349Q132 374 104 374Q99
374 85 371L84 411L314 480H352L271 89Q269 79 269 75Q269 53 292 53Q301 53 314 56T334 61L328 28Q301 10 261 0T181 -10Q137 -10 105 4Z" />
<glyph unicode="&#xed;" glyph-name="iacute" horiz-adv-x="396" d="M150 601L301 740Q315 754 337 768T384 783Q410 783 422 771T435 740Q435 732 434 728Q430 706 412 688T360 652L175 551L150 601ZM137 -10T105 4T72 51Q72 55 74 65L130 337L132 349Q132 374
104 374Q99 374 85 371L84 411L314 480H352L271 89Q269 79 269 75Q269 53 292 53Q301 53 314 56T334 61L328 28Q301 10 261 0T181 -10Q137 -10 105 4Z" />
<glyph unicode="&#xee;" glyph-name="icircumflex" horiz-adv-x="396" d="M72 583L265 768H361L480 583L448 553L332 656Q309 677 295 677Q281 677 248 656L92 553L72 583ZM137 -10T105 4T72 51Q72 55 74 65L130 337L132 349Q132 374 104 374Q99 374 85 371L84
411L314 480H352L271 89Q269 79 269 75Q269 53 292 53Q301 53 314 56T334 61L328 28Q301 10 261 0T181 -10Q137 -10 105 4Z" />
<glyph unicode="&#xef;" glyph-name="idieresis" horiz-adv-x="396" d="M122 553T107 568T92 610Q92 648 117 676T180 704Q208 704 224 688T240 646Q240 608 214 581T150 553Q122 553 107 568ZM360 553T345 568T329 610Q329 648 354 676T419 704Q447 704 462 688T478
646Q478 608 452 581T388 553Q360 553 345 568ZM137 -10T105 4T72 51Q72 55 74 65L130 337L132 349Q132 374 104 374Q99 374 85 371L84 411L314 480H352L271 89Q269 79 269 75Q269 53 292 53Q301 53 314 56T334 61L328 28Q301 10 261 0T181 -10Q137 -10 105 4Z"
/>
<glyph unicode="&#xf0;" glyph-name="eth" horiz-adv-x="611" d="M494 639Q551 576 582 502T613 355Q613 327 606 290Q577 148 488 69T251 -10Q137 -10 79 46T21 190Q21 218 27 248Q40 312 79 369T189 464T360 502Q377 502 399 500T437 494Q421 542 389 584L189
480L178 569Q258 610 329 649Q289 685 238 711L304 776Q371 745 427 702L590 791L626 708L494 639ZM417 298T417 324Q417 373 400 404T351 435Q309 435 273 383T219 248Q210 203 210 163Q210 115 224 86T267 57Q314 57 353 117T411 269Q417 298 417 324Z" />
<glyph unicode="&#xf1;" glyph-name="ntilde" horiz-adv-x="728" d="M331 605T314 593T271 548L242 567Q277 621 314 657T404 694Q425 694 443 689T489 672Q517 661 536 656T577 650Q604 650 621 662T663 707L691 688Q660 636 623 599T531 561Q511 561 494 566T447
582Q421 593 400 599T357 605Q331 605 314 593ZM611 52T634 52Q643 52 656 55T676 60L669 27Q643 9 603 -1T523 -11Q479 -11 447 3T414 50Q414 54 416 64L469 324Q473 340 473 356Q473 408 420 408Q403 408 380 395T334 350T299 269L244 0L49 -10L120 337L122 349Q122
374 94 374Q90 374 75 371L74 411L305 480H342L327 406Q359 444 408 462T505 480Q588 480 628 451T668 370Q668 356 665 339L613 88Q611 78 611 74Q611 52 634 52Z" />
<glyph unicode="&#xf2;" glyph-name="ograve" horiz-adv-x="636" d="M339 652Q295 683 295 716Q295 724 296 728Q301 750 319 766T369 783Q394 783 411 768T436 740L528 601L485 551L339 652ZM149 -10T85 35T21 171Q21 203 28 235Q53 356 141 418T376 480Q502
480 565 435T629 300Q629 272 621 235Q597 114 510 52T275 -10Q149 -10 85 35ZM337 57T374 102T428 235Q436 281 436 311Q436 362 417 387T361 413Q313 413 277 368T222 235Q213 192 213 160Q213 108 232 83T289 57Q337 57 374 102Z" />
<glyph unicode="&#xf3;" glyph-name="oacute" horiz-adv-x="636" d="M270 601L421 740Q435 754 457 768T504 783Q530 783 542 771T555 740Q555 732 554 728Q550 706 532 688T480 652L295 551L270 601ZM149 -10T85 35T21 171Q21 203 28 235Q53 356 141 418T376
480Q502 480 565 435T629 300Q629 272 621 235Q597 114 510 52T275 -10Q149 -10 85 35ZM337 57T374 102T428 235Q436 281 436 311Q436 362 417 387T361 413Q313 413 277 368T222 235Q213 192 213 160Q213 108 232 83T289 57Q337 57 374 102Z" />
<glyph unicode="&#xf4;" glyph-name="ocircumflex" horiz-adv-x="636" d="M192 583L385 768H481L600 583L568 553L452 656Q429 677 415 677Q401 677 368 656L212 553L192 583ZM149 -10T85 35T21 171Q21 203 28 235Q53 356 141 418T376 480Q502 480 565 435T629
300Q629 272 621 235Q597 114 510 52T275 -10Q149 -10 85 35ZM337 57T374 102T428 235Q436 281 436 311Q436 362 417 387T361 413Q313 413 277 368T222 235Q213 192 213 160Q213 108 232 83T289 57Q337 57 374 102Z" />
<glyph unicode="&#xf5;" glyph-name="otilde" horiz-adv-x="636" d="M181 567Q216 622 252 658T342 694Q363 694 381 689T428 672Q456 661 475 656T516 650Q543 650 560 662T601 707L629 688Q598 636 561 599T470 561Q449 561 431 566T384 583Q356 594 337 599T296
605Q270 605 252 593T210 548L181 567ZM149 -10T85 35T21 171Q21 203 28 235Q53 356 141 418T376 480Q502 480 565 435T629 300Q629 272 621 235Q597 114 510 52T275 -10Q149 -10 85 35ZM337 57T374 102T428 235Q436 281 436 311Q436 362 417 387T361 413Q313 413
277 368T222 235Q213 192 213 160Q213 108 232 83T289 57Q337 57 374 102Z" />
<glyph unicode="&#xf6;" glyph-name="odieresis" horiz-adv-x="636" d="M242 553T227 568T212 610Q212 648 237 676T300 704Q328 704 344 688T360 646Q360 608 334 581T270 553Q242 553 227 568ZM480 553T465 568T449 610Q449 648 474 676T539 704Q567 704 582
688T598 646Q598 608 572 581T508 553Q480 553 465 568ZM149 -10T85 35T21 171Q21 203 28 235Q53 356 141 418T376 480Q502 480 565 435T629 300Q629 272 621 235Q597 114 510 52T275 -10Q149 -10 85 35ZM337 57T374 102T428 235Q436 281 436 311Q436 362 417 387T361
413Q313 413 277 368T222 235Q213 192 213 160Q213 108 232 83T289 57Q337 57 374 102Z" />
<glyph unicode="&#xf7;" glyph-name="divide" horiz-adv-x="596" d="M292 385T274 404T256 454Q256 461 258 475Q266 514 294 540T363 566Q396 566 414 547T433 498Q433 451 402 418T326 385Q292 385 274 404ZM60 346H596L576 249H40L60 346ZM220 29T202 48T184
98Q184 144 214 177T290 210Q324 210 342 192T360 142Q360 96 330 63T254 29Q220 29 202 48Z" />
<glyph unicode="&#xf8;" glyph-name="oslash" horiz-adv-x="636" d="M629 379T629 300Q629 272 621 235Q597 114 510 52T275 -10Q166 -10 103 24L32 -35L-10 12L53 66Q21 107 21 171Q21 203 28 235Q53 356 141 418T376 480Q462 480 517 459L602 531L647 481L579
424Q629 379 629 300ZM218 212T217 204L422 379Q403 413 361 413Q313 413 277 368T222 235Q218 212 217 204ZM337 57T374 102T428 235Q435 279 436 304L217 120Q230 57 289 57Q337 57 374 102Z" />
<glyph unicode="&#xf9;" glyph-name="ugrave" horiz-adv-x="693" d="M313 685T313 716Q313 724 314 728Q319 750 337 766T387 783Q413 783 431 767T454 740L547 601L503 551L357 652Q313 685 313 716ZM590 53T613 53Q622 53 635 56T655 61L648 28Q622 10 584 0T507
-10Q463 -10 429 6T395 59V65Q364 27 315 9T216 -10Q134 -10 94 19T54 100Q54 115 57 131L99 337L101 349Q101 374 73 374Q68 374 54 371L53 411L284 480H321L253 146Q249 130 249 114Q249 62 302 62Q319 62 342 75T388 119T422 198L451 337Q452 342 452 349Q452
374 425 374Q420 374 405 371L404 411L635 480H672L592 89Q590 79 590 75Q590 53 613 53Z" />
<glyph unicode="&#xfa;" glyph-name="uacute" horiz-adv-x="693" d="M364 551L339 601L490 740Q510 758 529 770T573 783Q599 783 611 771T624 740Q624 732 623 728Q619 707 601 689T549 652L364 551ZM590 53T613 53Q622 53 635 56T655 61L648 28Q622 10 584 0T507
-10Q463 -10 429 6T395 59V65Q364 27 315 9T216 -10Q134 -10 94 19T54 100Q54 115 57 131L99 337L101 349Q101 374 73 374Q68 374 54 371L53 411L284 480H321L253 146Q249 130 249 114Q249 62 302 62Q319 62 342 75T388 119T422 198L451 337Q452 342 452 349Q452
374 425 374Q420 374 405 371L404 411L635 480H672L592 89Q590 79 590 75Q590 53 613 53Z" />
<glyph unicode="&#xfb;" glyph-name="ucircumflex" horiz-adv-x="693" d="M230 553L211 583L404 768H500L619 583L586 553L471 656Q447 677 433 677Q419 677 386 656L230 553ZM590 53T613 53Q622 53 635 56T655 61L648 28Q622 10 584 0T507 -10Q463 -10 429 6T395
59V65Q364 27 315 9T216 -10Q134 -10 94 19T54 100Q54 115 57 131L99 337L101 349Q101 374 73 374Q68 374 54 371L53 411L284 480H321L253 146Q249 130 249 114Q249 62 302 62Q319 62 342 75T388 119T422 198L451 337Q452 342 452 349Q452 374 425 374Q420 374
405 371L404 411L635 480H672L592 89Q590 79 590 75Q590 53 613 53Z" />
<glyph unicode="&#xfc;" glyph-name="udieresis" horiz-adv-x="693" d="M260 553T245 568T230 610Q230 648 255 676T318 704Q347 704 363 688T379 646Q379 608 353 581T288 553Q260 553 245 568ZM498 553T483 568T467 610Q467 648 492 676T557 704Q585 704 601
688T617 646Q617 608 591 581T526 553Q498 553 483 568ZM590 53T613 53Q622 53 635 56T655 61L648 28Q622 10 584 0T507 -10Q463 -10 429 6T395 59V65Q364 27 315 9T216 -10Q134 -10 94 19T54 100Q54 115 57 131L99 337L101 349Q101 374 73 374Q68 374 54 371L53
411L284 480H321L253 146Q249 130 249 114Q249 62 302 62Q319 62 342 75T388 119T422 198L451 337Q452 342 452 349Q452 374 425 374Q420 374 405 371L404 411L635 480H672L592 89Q590 79 590 75Q590 53 613 53Z" />
<glyph unicode="&#xfd;" glyph-name="yacute" horiz-adv-x="641" d="M356 551L331 601L481 740Q501 758 520 770T565 783Q591 783 603 771T616 740Q616 732 615 728Q611 707 593 689T541 652L356 551ZM635 480T654 463T674 417Q674 411 672 399Q667 373 642 338T571
247L537 205L205 -213Q170 -257 133 -274T47 -291Q16 -291 -7 -270T-31 -217Q-31 -208 -30 -203Q-26 -182 -7 -163T36 -144Q58 -144 66 -155T80 -186Q83 -199 86 -205T98 -212Q112 -212 128 -196T167 -151L286 0L123 379Q121 384 111 384Q102 384 91 380T77 375L61
368L56 409L203 470H286L407 153L446 203Q459 220 474 261T498 348Q506 396 506 413Q506 437 500 449Q547 480 599 480Q635 480 654 463Z" />
<glyph unicode="&#xfe;" glyph-name="thorn" horiz-adv-x="664" d="M167 567Q168 571 168 578Q168 604 141 604Q137 604 122 601L121 641L351 710H388L325 396Q354 433 395 456T482 480Q565 480 613 437T661 312Q661 284 653 246Q625 109 549 50T349 -10Q316 -10
290 1T251 33L199 -221L4 -231L167 567ZM384 57T413 104T462 241Q475 300 475 340Q475 377 462 395T423 413Q407 413 379 388T327 326T297 259L278 166Q274 150 274 131Q274 97 290 77T336 57Q384 57 413 104Z" />
<glyph unicode="&#xff;" glyph-name="ydieresis" horiz-adv-x="641" d="M275 553T260 568T244 610Q244 648 269 676T332 704Q361 704 377 688T393 646Q393 608 367 581T303 553Q275 553 260 568ZM512 553T497 568T481 610Q481 648 507 676T572 704Q600 704 615
688T631 646Q631 608 605 581T541 553Q512 553 497 568ZM635 480T654 463T674 417Q674 411 672 399Q667 373 642 338T571 247L537 205L205 -213Q170 -257 133 -274T47 -291Q16 -291 -7 -270T-31 -217Q-31 -208 -30 -203Q-26 -182 -7 -163T36 -144Q58 -144 66 -155T80
-186Q83 -199 86 -205T98 -212Q112 -212 128 -196T167 -151L286 0L123 379Q121 384 111 384Q102 384 91 380T77 375L61 368L56 409L203 470H286L407 153L446 203Q459 220 474 261T498 348Q506 396 506 413Q506 437 500 449Q547 480 599 480Q635 480 654 463Z" />
<glyph unicode="&#x2013;" glyph-name="endash" horiz-adv-x="731" d="M76 337H711L689 228H54L76 337Z" />
<glyph unicode="&#x2014;" glyph-name="emdash" horiz-adv-x="1068" d="M76 337H1048L1026 228H54L76 337Z" />
<glyph unicode="&#x2018;" glyph-name="quoteleft" horiz-adv-x="262" d="M133 388T115 409T96 467Q96 482 99 498Q111 559 169 620T294 720L318 692Q246 628 234 568Q232 558 232 554Q232 536 245 512Q257 486 257 469Q257 438 230 413T165 388Q133 388 115 409Z" />
<glyph unicode="&#x2019;" glyph-name="quoteright" horiz-adv-x="262" d="M81 406Q152 469 164 530Q166 540 166 544Q166 563 153 587Q141 611 141 627Q141 659 168 684T233 710Q264 710 283 690T303 632Q303 616 299 600Q287 539 229 478T105 378L81 406Z" />
<glyph unicode="&#x201a;" glyph-name="quotesinglbase" horiz-adv-x="262" d="M-8 -32Q63 31 75 92Q77 102 77 106Q77 125 64 149Q52 173 52 189Q52 221 78 246T143 272Q175 272 194 252T213 194Q213 180 210 162Q197 101 140 40T16 -60L-8 -32Z" />
<glyph unicode="&#x201c;" glyph-name="quotedblleft" horiz-adv-x="475" d="M133 388T115 409T96 467Q96 482 99 498Q111 559 169 620T294 720L318 692Q246 628 234 568Q232 558 232 554Q232 536 245 512Q257 486 257 469Q257 438 230 413T165 388Q133 388 115
409ZM347 388T328 409T309 467Q309 482 312 498Q325 559 383 620T507 720L531 692Q459 628 447 568Q445 558 445 554Q445 536 458 512Q470 486 470 469Q470 438 444 413T379 388Q347 388 328 409Z" />
<glyph unicode="&#x201d;" glyph-name="quotedblright" horiz-adv-x="475" d="M81 406Q152 469 164 530Q166 540 166 544Q166 563 153 587Q141 611 141 627Q141 659 168 684T233 710Q264 710 283 690T303 632Q303 616 299 600Q287 539 229 478T105 378L81 406ZM294
406Q365 468 378 530Q380 540 380 544Q380 563 367 587Q355 611 355 627Q355 659 381 684T446 710Q477 710 496 690T516 632Q516 616 512 600Q500 539 442 478T318 378L294 406Z" />
<glyph unicode="&#x201e;" glyph-name="quotedblbase" horiz-adv-x="475" d="M-8 -32Q63 31 75 92Q77 102 77 106Q77 125 64 149Q52 173 52 189Q52 221 78 246T143 272Q175 272 194 252T213 194Q213 180 210 162Q197 101 140 40T16 -60L-8 -32ZM205 -32Q276 31
288 92Q290 102 290 106Q290 125 277 149Q265 173 265 189Q265 221 291 246T356 272Q388 272 407 252T427 194Q427 178 423 162Q410 101 353 40T229 -60L205 -32Z" />
<glyph unicode="&#x2022;" glyph-name="bullet" horiz-adv-x="287" d="M105 205T82 229T58 292Q58 327 76 358T124 409T190 428Q230 428 254 404T278 341Q278 306 260 275T210 224T145 205Q105 205 82 229Z" />
<glyph unicode="&#x2039;" glyph-name="guilsinglleft" horiz-adv-x="371" d="M56 249L62 275L349 541L372 487L203 262L280 37L236 -17L56 249Z" />
<glyph unicode="&#x203a;" glyph-name="guilsinglright" horiz-adv-x="371" d="M24 37L193 262L116 487L161 541L340 275L334 249L47 -17L24 37Z" />
</font>
</defs>
</svg>
