<?xml version="1.0" standalone="no"?>
<!DOCTYPE svg PUBLIC "-//W3C//DTD SVG 1.1//EN" "http://www.w3.org/Graphics/SVG/1.1/DTD/svg11.dtd">
<svg xmlns="http://www.w3.org/2000/svg">
<defs >
<font id="Risque" horiz-adv-x="877" ><font-face
    font-family="Risque"
    units-per-em="2048"
    panose-1="2 10 5 3 0 0 0 2 0 4"
    ascent="1853"
    descent="-514"
    alphabetic="0" />
<glyph unicode=" " glyph-name="space" horiz-adv-x="532" />
<glyph unicode="!" glyph-name="exclam" horiz-adv-x="553" d="M309 297L190 303L195 1393L459 1360L309 297ZM397 57Q397 25 381 2T341 -35T291 -56T246 -63Q225 -63 199 -57T149 -36T110 2T94 57Q94 91 110 115T149 154T198 177T246 184Q265 184 291 177T340
155T380 115T397 57Z" />
<glyph unicode="&quot;" glyph-name="quotedbl" horiz-adv-x="655" d="M66 1430L324 1444L227 915L160 922L66 1430ZM352 1368L610 1403L514 915L446 922L352 1368Z" />
<glyph unicode="#" glyph-name="numbersign" horiz-adv-x="1044" d="M131 860L276 870L289 1157L502 1196L449 885L578 895L618 1245L872 1210L793 911L981 928L942 762L752 760L715 625L889 633L846 453L670 461L602 211L500 225L528 467L379 475L336 215L252
219L262 481L66 492L76 600L266 608L272 758H121L131 860ZM403 612L545 618L561 760H428L403 612Z" />
<glyph unicode="$" glyph-name="dollar" horiz-adv-x="813" d="M422 1096Q475 1089 524 1070T610 1022L743 1186L684 784Q674 826 650 867T591 940T510 992T408 1012Q377 1012 349 1005T300 983T265 945T252 889Q252 851 273 827T328 786T407 758T497 733T588
703T666 659T722 592T743 492Q743 426 717 379T651 302T561 258T465 244Q453 244 441 244T416 246L455 -195L309 -162L358 258Q309 272 264 296T184 352L63 190L102 588Q127 532 163 485T243 404T337 350T442 330Q505 330 543 356T582 432Q582 464 561 485T505
522T426 551T335 579T245 615T165 667T109 742T88 850Q88 899 101 936T135 1000T184 1044T241 1073T300 1089T352 1096L297 1559L475 1536L422 1096Z" />
<glyph unicode="%" glyph-name="percent" horiz-adv-x="1319" d="M344 715Q299 716 250 732T160 781T93 868T66 997Q66 1085 95 1143T169 1235T268 1282T373 1296Q421 1296 470 1281T560 1234T625 1150T651 1024Q651 965 633 910T576 812T480 743T344 715ZM496
1047Q496 1150 462 1195T373 1241Q304 1241 261 1174T217 963Q217 866 253 818T352 770Q388 770 415 793T460 856T487 944T496 1047ZM946 80Q901 81 852 97T762 146T695 233T668 362Q668 450 696 508T770 600T869 648T975 662Q1023 662 1072 647T1162 600T1227
515T1253 389Q1253 330 1235 275T1178 177T1082 108T946 80ZM1098 412Q1098 515 1065 560T975 606Q906 606 863 539T819 328Q819 231 855 183T954 135Q990 135 1017 158T1062 221T1089 309T1098 412ZM356 180L301 219L918 1241L1065 1143L356 180Z" />
<glyph unicode="&amp;" glyph-name="ampersand" horiz-adv-x="1243" d="M330 1061Q330 1132 354 1187T421 1281T520 1338T639 1358Q698 1358 742 1341T815 1295T858 1226T872 1141Q872 1095 859 1047T819 951T754 861T668 782Q660 777 654 772T641 762Q686 662
745 570T864 399Q898 458 913 514T928 625Q928 682 915 726T887 797Q888 797 901 791T934 771T976 737T1018 688T1050 622T1063 539Q1061 483 1035 417T958 285Q980 259 998 239T1030 205Q1046 188 1059 176L1264 215L1004 -20Q980 -2 951 23Q926 44 893 74T821
143Q735 77 625 35T383 -8Q291 -8 225 14T116 76T52 174T31 301Q31 394 64 462T151 581T270 670T403 743Q371 822 351 904T330 1061ZM502 547Q491 564 481 583T459 623Q374 553 331 490T287 352Q287 307 303 269T347 204T414 162T498 147Q549 147 606 169T725 242Q666
308 608 385T502 547ZM741 1133Q741 1152 738 1173T725 1213T699 1243T655 1255Q627 1255 611 1241T586 1203T574 1148T569 1083Q566 1029 575 973T602 860Q671 919 706 991T741 1133Z" />
<glyph unicode="&apos;" glyph-name="quotesingle" horiz-adv-x="371" d="M66 1430L324 1444L227 915L160 922L66 1430Z" />
<glyph unicode="(" glyph-name="parenleft" horiz-adv-x="604" d="M621 -158Q464 -108 341 1Q288 47 238 111T149 261T85 454T61 696Q61 825 85 931T148 1124T238 1277T341 1395Q464 1514 621 1579Q532 1475 462 1340Q432 1283 404 1213T353 1062T317 889T303
696Q303 597 316 508T352 340T403 194T462 71Q532 -59 621 -158Z" />
<glyph unicode=")" glyph-name="parenright" horiz-adv-x="604" d="M-12 -158Q76 -59 146 71Q176 126 204 193T255 339T291 507T305 696Q305 797 292 889T256 1062T205 1213T146 1340Q76 1475 -12 1579Q144 1514 267 1395Q319 1344 369 1277T459 1124T523 932T547
696Q547 562 523 454T460 261T370 112T267 1Q144 -108 -12 -158Z" />
<glyph unicode="*" glyph-name="asterisk" horiz-adv-x="881" d="M305 649L403 961L188 758L72 942L352 1030L84 1104L211 1323L393 1133L305 1417L588 1432L489 1118L705 1323L821 1139L539 1051L809 977L682 758L498 946L588 664L305 649Z" />
<glyph unicode="+" glyph-name="plus" horiz-adv-x="819" d="M512 778L756 786L729 573L502 588L485 291L315 301L309 600L61 616L72 766L305 772L301 1055L526 1036L512 778Z" />
<glyph unicode="," glyph-name="comma" horiz-adv-x="471" d="M383 68Q383 17 363 -22T310 -91T233 -141T141 -174Q151 -158 159 -146T174 -120T184 -89T188 -47Q170 -43 149 -35T110 -12T80 22T68 68Q68 99 85 121T127 157T180 177T229 184Q251 184 278 178T328
157T367 121T383 68Z" />
<glyph unicode="-" glyph-name="hyphen" horiz-adv-x="889" d="M111 616L121 766L778 821V573L111 616Z" />
<glyph unicode="." glyph-name="period" horiz-adv-x="455" d="M371 57Q371 25 355 2T314 -35T264 -56T219 -63Q198 -63 172 -57T123 -36T84 2T68 57Q68 91 84 115T123 154T172 177T219 184Q238 184 264 177T314 155T354 115T371 57Z" />
<glyph unicode="/" glyph-name="slash" horiz-adv-x="967" d="M119 -35L31 14L690 1378L942 1319L119 -35Z" />
<glyph unicode="0" glyph-name="zero" horiz-adv-x="1243" d="M596 -43Q501 -41 409 -2T245 123T129 341T84 666Q84 812 106 923T168 1117T262 1256T379 1346T512 1394T653 1409Q755 1409 847 1372T1009 1254T1121 1044T1163 729Q1163 632 1151 538T1112 358T1042
199T935 73T788 -11T596 -43ZM909 784Q909 912 891 1010T838 1175T757 1276T653 1311Q581 1311 522 1264T420 1123T354 892T330 573Q330 453 349 357T405 194T493 90T610 53Q660 53 701 83T776 165T834 287T875 439T900 608T909 784Z" />
<glyph unicode="1" glyph-name="one" horiz-adv-x="674" d="M451 133L643 -10L6 8L215 133L305 1184L43 1311L451 1378V133Z" />
<glyph unicode="2" glyph-name="two" horiz-adv-x="1178" d="M571 453Q525 433 488 407T421 341T372 248T340 117L909 236L1040 483L1051 25L53 -8Q81 116 132 207T247 363T377 471T504 541Q595 582 656 628T754 724T806 822T821 918Q821 994 796 1046T731 1130T639
1176T537 1190Q472 1190 417 1165T316 1099T236 1005T182 897L53 1417L211 1176Q259 1248 314 1289T421 1352T515 1378T580 1384Q681 1384 771 1355T928 1271T1035 1134T1075 948Q1075 862 1057 800T1005 693T925 615T822 556T703 505T571 453Z" />
<glyph unicode="3" glyph-name="three" horiz-adv-x="1182" d="M59 1505L168 1341H1118L516 864Q637 862 745 837T934 760T1062 629T1110 438Q1110 348 1085 277T1019 153T923 62T811 1T693 -34T582 -45Q542 -45 491 -38T386 -13T281 33T190 104T125 203T100 334Q100
355 106 388T136 457T206 527T334 586Q302 533 284 475T266 358Q266 302 282 251T333 161T419 99T543 76Q630 76 688 100T783 166T834 261T850 375Q850 445 828 500T768 596T680 667T573 715T456 741T340 750Q326 750 313 750T285 748L608 1141L225 1217L141 1012L59
1505Z" />
<glyph unicode="4" glyph-name="four" horiz-adv-x="1268" d="M1253 1341L1055 1210L973 180L1237 57L594 -16L836 193L827 489L45 444L258 1192L84 1296L719 1374L506 1251L242 633L825 610L809 1196L643 1280L1253 1341Z" />
<glyph unicode="5" glyph-name="five" horiz-adv-x="1194" d="M180 1305L969 1362L1102 1509L1012 956L958 1141L299 1196L324 932Q366 943 413 949T500 959Q547 963 592 963Q689 963 779 930T938 835T1048 682T1090 477Q1090 377 1067 300T1003 166T908 69T790
5T660 -30T526 -41Q410 -41 322 -7T175 83T85 211T55 360Q55 375 58 398T71 447T98 498T142 545T207 579T297 592H311Q279 545 262 486T244 365Q244 310 258 257T304 162T384 94T502 68Q598 68 663 104T767 197T823 323T840 459Q840 537 813 602T737 715T619 790T465
817Q423 817 372 813T271 800T177 776T104 739L180 1305Z" />
<glyph unicode="6" glyph-name="six" horiz-adv-x="1223" d="M1137 424Q1137 318 1103 229T1003 76T840 -25T616 -61Q509 -61 411 -14T239 119T120 326T76 596Q76 692 93 788T146 974T233 1140T355 1274T512 1364T705 1397Q816 1397 894 1371T1021 1303T1093 1208T1116
1100Q1116 1038 1091 985T1020 903Q1017 997 988 1068T914 1188T814 1261T702 1286Q610 1286 541 1243T424 1122T351 935T322 694Q357 736 398 770T487 830T588 869T700 883Q801 883 882 845T1019 744T1106 597T1137 424ZM639 735Q588 735 542 721T457 681T384
623T324 551Q333 407 363 311T437 157T532 75T635 51Q692 52 739 75T820 144T872 258T891 418Q891 473 877 529T831 631T753 706T639 735Z" />
<glyph unicode="7" glyph-name="seven" horiz-adv-x="1044" d="M35 1481L178 1311L1038 1331L510 160L770 20L137 -8L344 135L676 1118L207 1194L115 899L35 1481Z" />
<glyph unicode="8" glyph-name="eight" horiz-adv-x="1200" d="M1133 377Q1133 269 1089 187T971 51T800 -31T596 -59Q488 -59 391 -27T219 64T101 202T57 377Q57 432 73 490T124 601T211 694T334 756Q294 780 266 813T219 884T193 957T184 1026Q184 1120 219
1190T313 1308T449 1378T610 1401Q695 1401 772 1375T908 1300T1001 1182T1036 1026Q1036 988 1025 950T992 875T937 806T860 748Q917 729 967 693T1053 608T1111 500T1133 377ZM889 377Q889 448 862 507T792 608T697 673T596 696Q550 696 499 676T404 615T332
515T303 377Q303 299 331 239T403 139T498 78T596 57Q647 57 699 77T794 138T862 239T889 377ZM805 1044Q805 1100 788 1147T741 1228T674 1281T598 1300Q560 1300 525 1281T462 1226T418 1139T401 1024Q401 971 417 928T462 855T526 808T604 791Q660 791 698 815T760
877T794 958T805 1044Z" />
<glyph unicode="9" glyph-name="nine" horiz-adv-x="1221" d="M88 911Q88 1017 121 1106T221 1260T384 1361T608 1397Q680 1397 748 1376T876 1315T986 1218T1072 1087T1129 926T1149 739Q1149 643 1132 547T1079 361T992 195T870 61T713 -28T520 -61Q409 -61
331 -35T203 33T132 128T109 236Q109 297 134 350T205 432Q208 338 237 267T310 147T410 74T522 49Q614 49 684 92T801 213T874 399T903 639Q868 597 827 563T738 505T637 467T524 453Q423 453 343 491T206 592T119 738T88 911ZM586 600Q637 600 682 614T767 652T839
710T899 782Q891 927 861 1023T787 1178T692 1260T590 1284Q532 1282 485 1259T405 1191T353 1077T334 918Q334 862 348 806T394 704T472 629T586 600Z" />
<glyph unicode=":" glyph-name="colon" horiz-adv-x="539" d="M418 57Q418 25 402 2T361 -35T311 -56T266 -63Q245 -63 219 -57T170 -36T131 2T115 57Q115 91 131 115T170 154T219 177T266 184Q285 184 311 177T361 155T401 115T418 57ZM418 815Q418 783 402 760T361
723T311 701T266 694Q245 694 219 701T170 722T131 760T115 815Q115 849 131 873T170 912T219 935T266 942Q285 942 311 935T361 913T401 873T418 815Z" />
<glyph unicode=";" glyph-name="semicolon" horiz-adv-x="551" d="M428 68Q428 17 409 -22T356 -91T280 -141T188 -174Q198 -158 207 -146T222 -120T232 -89T236 -47Q217 -43 196 -35T157 -12T127 22T115 68Q115 99 132 121T174 157T227 177T276 184Q298 184 325
178T374 157T412 121T428 68ZM428 815Q428 783 411 760T370 723T318 701T272 694Q251 694 224 701T173 722T132 760T115 815Q115 849 132 873T173 912T224 935T272 942Q291 942 318 935T369 913T411 873T428 815Z" />
<glyph unicode="&lt;" glyph-name="less" horiz-adv-x="788" d="M61 690L592 1143L694 909L209 696L698 528L606 279L61 690Z" />
<glyph unicode="=" glyph-name="equal" horiz-adv-x="905" d="M137 760L127 909L784 965L768 717L137 760ZM131 428L127 647L768 606L784 455L131 428Z" />
<glyph unicode="&gt;" glyph-name="greater" horiz-adv-x="786" d="M182 279L90 528L578 696L94 909L197 1143L727 690L182 279Z" />
<glyph unicode="?" glyph-name="question" horiz-adv-x="1247" d="M78 1522L293 1210L193 1229Q226 1267 280 1297Q326 1323 399 1344T580 1366Q701 1366 813 1341T1010 1267T1147 1146T1198 979Q1198 899 1176 845T1116 754T1032 693T936 648T840 604T756 548T697
466T674 344Q674 330 675 315T678 283H457Q456 289 455 297Q454 304 454 313T453 334Q453 363 460 403T490 488T557 575T674 653Q746 687 791 728T860 813T894 898T903 975Q903 1039 878 1087T810 1168T713 1217T602 1233Q528 1233 471 1218T370 1175T294 1111T235
1032T188 943T145 850L78 1522ZM707 57Q707 25 691 2T650 -35T600 -56T555 -63Q534 -63 508 -57T459 -36T419 2T403 57Q403 91 419 115T458 154T508 177T555 184Q574 184 600 177T650 155T690 115T707 57Z" />
<glyph unicode="@" glyph-name="at" horiz-adv-x="1364" d="M975 532Q975 478 965 421T943 311T921 213T911 137Q911 116 922 101T954 86Q985 86 1015 114T1068 197T1106 332T1120 518Q1120 623 1100 714T1034 874T911 981T721 1020Q608 1020 519 977T368 857T273
677T240 455Q240 372 258 308T306 195T373 115T449 62T522 32T584 23Q622 23 656 35T717 61Q748 78 774 100Q774 62 750 29T689 -30T610 -71T532 -86Q487 -86 435 -73T331 -31T232 41T147 146T88 287T66 467Q66 594 97 693T181 866T300 991T439 1073T582 1119T713
1133Q772 1133 838 1120T968 1077T1091 999T1194 880T1265 715T1292 498Q1292 375 1271 290T1217 149T1143 63T1063 17T990 -1T938 -4Q913 -4 889 2T846 23T815 58T803 111Q803 149 809 193Q731 111 596 111Q498 111 451 161T403 295Q403 335 422 373T479 440T569
486T690 504Q718 504 756 499T829 477Q826 515 818 553T793 621T752 671T690 690Q658 690 627 676T568 635T516 573T471 492L428 811L506 692Q537 726 568 747T630 781T687 797T739 801Q790 799 833 781T907 728T957 645T975 532ZM829 328Q831 343 832 360T834
395Q812 404 792 409T754 416T723 419T702 420Q667 420 641 408T597 378T572 339T563 297Q563 251 585 228T649 205Q676 205 701 215T750 242T793 281T829 328Z" />
<glyph unicode="A" glyph-name="A" horiz-adv-x="1311" d="M866 1415L1167 207L1405 172L842 -68L1034 176L922 455L406 438L301 141L494 -113L-104 123L190 152L274 434H225L141 541L311 559L492 1163L287 1270L866 1415ZM453 575L852 621L647 1128L453 575Z" />
<glyph unicode="B" glyph-name="B" horiz-adv-x="1251" d="M1202 1028Q1202 936 1175 873T1103 769T1000 705T881 672Q958 644 1006 601T1082 512T1120 421T1130 346Q1130 271 1108 215T1049 119T961 53T855 12T739 -10T623 -16Q604 -16 585 -16T536 -14T464 -9T352
-1T187 11T-45 29L197 178L268 1235L6 1405Q191 1403 330 1401T566 1397Q678 1395 758 1393Q836 1393 915 1370T1058 1300T1162 1186T1202 1028ZM938 1022Q938 1031 936 1053T922 1104T886 1164T819 1222T711 1265T551 1284Q501 1284 453 1278V725Q479 723 505
723T551 723Q647 723 713 742T822 791T888 856T923 925T936 985T938 1022ZM557 616Q535 616 507 616T453 614V133Q498 125 536 122T612 119Q663 119 713 130T804 170T870 247T895 367Q895 404 878 448T822 529T718 591T557 616Z" />
<glyph unicode="C" glyph-name="C" horiz-adv-x="1206" d="M674 1399Q776 1399 869 1364T1024 1260L1268 1454L989 856L965 1147Q932 1187 895 1210T824 1244T762 1259T719 1262Q638 1262 569 1221T448 1104T368 919T338 678Q338 545 367 435T447 246T566 124T711
80Q789 80 845 118T937 216T989 345T1006 479Q1006 493 1006 505T1004 532Q1069 489 1099 435T1130 322Q1130 268 1104 208T1025 96T897 11T721 -23Q640 -23 560 -6T407 46T271 137T162 268T90 443T63 664Q63 783 87 883T155 1065T257 1209T383 1314T525 1377T674
1399Z" />
<glyph unicode="D" glyph-name="D" horiz-adv-x="1255" d="M272 -8Q115 -8 -47 16L225 141L317 1174L8 1313Q105 1335 205 1347T389 1366Q486 1373 578 1374Q646 1374 718 1358T860 1308T990 1219T1096 1090T1169 918T1196 698Q1196 563 1157 458T1051 275T893
143T700 55T488 7T272 -8ZM963 737Q963 788 956 846T930 961T882 1070T808 1163T702 1227T561 1251Q519 1251 473 1245V125Q609 144 702 196T854 327T937 510T963 737Z" />
<glyph unicode="E" glyph-name="E" horiz-adv-x="1188" d="M1100 37L-27 -8L223 248L293 1169L-8 1317L1063 1393L1081 924L895 1257L438 1184L453 711L557 725L764 999L778 369L598 627L455 606L467 193L915 152L1083 571L1100 37Z" />
<glyph unicode="F" glyph-name="F" horiz-adv-x="1079" d="M1067 926L907 1268L397 1167L416 801H567L733 1042V434L559 702L422 686L449 186L743 61L-20 -20L197 174L250 1133L-23 1374L1067 1413V926Z" />
<glyph unicode="G" glyph-name="G" horiz-adv-x="1260" d="M1280 666L1116 502L1081 -47L991 123Q916 45 819 3T621 -39Q558 -39 493 -22T366 32T250 125T155 257T90 432T66 651Q66 794 99 903T186 1092T308 1225T446 1310T582 1355T698 1368Q750 1365 804 1351Q849
1339 902 1313T1001 1241L1229 1413L930 874V1155Q895 1189 855 1207T779 1233T719 1243T688 1245Q615 1242 549 1199T433 1080T352 897T322 659Q322 527 352 421T434 241T558 126T711 86Q718 86 740 87T793 100T860 135T932 205L897 463L653 590L1280 666Z" />
<glyph unicode="H" glyph-name="H" horiz-adv-x="1378" d="M657 1391L463 1284L436 788L952 772L965 1188L780 1298L1372 1335L1147 1151L1184 145L1391 8L680 4L932 172L948 643L428 653L406 242L553 94H66L238 233L178 1270L-39 1401L657 1391Z" />
<glyph unicode="I" glyph-name="I" horiz-adv-x="694" d="M440 1087L469 182L676 37L-33 -25L211 178L272 1147L63 1311L672 1274L440 1087Z" />
<glyph unicode="J" glyph-name="J" horiz-adv-x="1178" d="M1227 1372L1014 1210Q1016 1150 1016 1097T1016 993Q1016 810 1009 687T994 485Q984 394 973 340Q954 269 915 200T816 74T671 -16T475 -51Q354 -51 265 -15T118 81T31 215T2 365Q2 422 20 475T73 569T154
634T258 659Q306 659 360 641Q324 620 299 594T256 540T228 485T213 433T207 389T205 360Q205 292 223 237T275 142T356 81T459 59Q529 59 585 88T682 175T744 316T766 512Q766 585 762 666T750 831T732 998T711 1157L444 1315L1227 1372Z" />
<glyph unicode="K" glyph-name="K" horiz-adv-x="1391" d="M1425 1364L1139 1268L559 557Q651 456 729 396T868 304Q937 266 995 252Q1032 245 1071 250T1150 268T1226 302T1294 343T1351 386T1391 426Q1380 356 1354 297T1291 189T1215 105T1135 43T1063 5T1010
-10Q954 -7 871 45Q836 67 792 101T694 187T577 309T442 473L457 152L702 35L-45 -10L225 188L246 1237L-6 1378L664 1403L414 1243L438 604L864 1284L791 1403L1425 1364Z" />
<glyph unicode="L" glyph-name="L" horiz-adv-x="1159" d="M1118 45L-31 0L223 221L283 1188L8 1331L674 1374L463 1231L475 217L938 160L1118 498V45Z" />
<glyph unicode="M" glyph-name="M" horiz-adv-x="1642" d="M1663 1348L1413 1161L1452 188L1653 96L1044 -31L1292 188L1128 981L905 96L422 901L291 176L483 14L-25 -12L176 170L238 1214L27 1348L520 1372L852 434L1106 1362L1663 1348Z" />
<glyph unicode="N" glyph-name="N" horiz-adv-x="1448" d="M1556 1337L1272 1255L1126 -20L479 977L377 203L655 55L-2 6L260 203L279 1204L-20 1309L633 1417L1022 412L1141 1229L922 1436L1556 1337Z" />
<glyph unicode="O" glyph-name="O" horiz-adv-x="1452" d="M1393 707Q1393 540 1342 409T1201 187T994 48T741 0Q653 0 569 21T409 82T269 179T159 311T87 475T61 668Q61 828 113 963T259 1198T480 1353T758 1409Q884 1409 999 1363T1201 1226T1341 1006T1393
707ZM1124 688Q1124 812 1082 905T973 1062T821 1156T651 1188Q553 1188 469 1152T323 1049T226 885T190 668Q190 554 225 465T321 315T463 221T637 188Q730 188 817 220T973 316T1083 473T1124 688Z" />
<glyph unicode="P" glyph-name="P" horiz-adv-x="1233" d="M461 428V139L713 14H-31L217 162L287 1190L-12 1372Q40 1380 94 1385T202 1392T306 1396T401 1397Q501 1397 600 1390T789 1364T957 1310T1092 1223T1181 1093T1214 915Q1214 822 1185 750T1105 624T986
532T842 472T686 438T530 428H461ZM461 1264V528Q578 528 659 551T794 609T878 688T924 772T942 845T946 893Q946 913 943 948T925 1025T883 1108T805 1185T681 1242T500 1264H461Z" />
<glyph unicode="Q" glyph-name="Q" horiz-adv-x="1446" d="M1028 -270Q965 -270 922 -247T847 -184T796 -93T758 12H731Q642 12 558 32T399 93T261 191T153 326T83 495T57 696Q57 803 85 898T161 1074T275 1219T416 1328T571 1397T731 1421Q866 1421 985 1375T1194
1239T1334 1021T1386 727Q1386 589 1353 476T1260 277T1119 132T940 43Q951 15 964 -11T994 -58T1032 -91T1079 -104Q1105 -104 1123 -95T1153 -70T1170 -36T1176 4Q1176 33 1166 58T1139 92Q1204 92 1241 52T1278 -51Q1278 -102 1255 -142T1194 -211T1113 -255T1028
-270ZM1118 688Q1118 812 1076 905T967 1062T815 1156T645 1188Q547 1188 463 1152T317 1049T220 885T184 668Q184 550 220 460T322 307Q355 359 399 388T485 431Q533 448 582 451Q645 451 692 436T773 395T832 331T874 250Q927 279 972 321T1049 419T1100 541T1118
688ZM526 350Q475 350 436 326T371 266Q426 228 491 208T631 188Q648 188 665 189T700 193Q687 227 672 255T635 304T587 337T526 350Z" />
<glyph unicode="R" glyph-name="R" horiz-adv-x="1282" d="M1290 397Q1263 260 1221 172T1136 32T1056 -39T999 -59Q969 -59 922 -33T819 34T702 126T585 229T482 325T406 399L414 152L625 35L-10 -10L203 186L240 1192L-20 1317Q175 1328 311 1333T536 1341T673
1343T741 1343Q784 1343 834 1336T935 1311T1032 1266T1115 1200T1172 1110T1194 993Q1194 978 1191 952T1176 891T1143 818T1084 741T991 666T859 602T679 557T444 537Q509 488 585 433T739 331T892 254T1032 223Q1063 223 1098 230T1168 256T1234 309T1290 397ZM905
946Q905 977 900 1008T879 1067T833 1120T753 1163T628 1191T451 1202Q435 1202 420 1202T389 1200L399 666Q462 667 524 676T642 703T746 744T830 798T885 866T905 946Z" />
<glyph unicode="S" glyph-name="S" horiz-adv-x="1202" d="M549 1354Q617 1354 679 1342T796 1309T894 1262T969 1210L1229 1389L930 815L907 1116Q878 1136 845 1151T778 1177T713 1194T658 1205T620 1210T604 1212Q536 1212 490 1197T416 1158T375 1104T362
1042Q362 979 388 936T467 858T602 795T795 731Q862 710 921 675T1025 592T1094 486T1120 360Q1120 282 1098 222T1040 116T955 39T856 -12T752 -40T653 -49Q518 -49 408 -3T203 123L-57 -55L233 459Q245 387 275 321T351 202T455 119T584 88Q640 88 686 105T766
150T817 216T836 295Q836 352 804 393T720 467T602 527T465 584T329 648T210 730T126 842T94 993Q94 1060 120 1124T202 1240T344 1322T549 1354Z" />
<glyph unicode="T" glyph-name="T" horiz-adv-x="1208" d="M1192 1360L1114 774L999 1202L692 1167L733 168L981 41L182 -35L473 176L524 1157L207 1169L84 805L45 1343L1192 1360Z" />
<glyph unicode="U" glyph-name="U" horiz-adv-x="1270" d="M1288 1362L1085 1198Q1087 1156 1088 1113T1090 1036Q1090 901 1089 772T1075 526T1038 311T964 141T842 29T659 -12Q549 -12 471 41T340 184T254 393T202 647T175 921T160 1192L-41 1311L659 1384L440
1221Q438 1190 438 1160T438 1098Q438 1028 438 948T441 785T450 618T467 457T497 314T542 199T605 122T690 94Q754 94 807 128T898 234T957 421T979 696Q979 892 966 1014T940 1196L737 1292L1288 1362Z" />
<glyph unicode="V" glyph-name="V" horiz-adv-x="1298" d="M1360 1251L1122 1165L825 158L995 41L338 -14L516 193L129 1161L-57 1251L549 1411L403 1270L655 213L981 1169L827 1393L1360 1251Z" />
<glyph unicode="W" glyph-name="W" horiz-adv-x="1589" d="M1618 1325L1366 1169L1208 213L1399 57H827L930 160L811 934L651 117L817 -14L240 16L434 166L152 1180L-76 1292L631 1411L430 1264L553 315L723 995L588 1092L1110 1159L936 1020L1061 385L1229 1217L1038
1366L1618 1325Z" />
<glyph unicode="X" glyph-name="X" horiz-adv-x="1352" d="M1380 1247L1165 1163L780 672L1063 176L1366 123L735 -51L915 176L664 520L377 156L545 -18L-39 119L264 205L563 657L195 1159L-2 1204L623 1393L475 1208L684 842L918 1194L731 1366L1380 1247Z" />
<glyph unicode="Y" glyph-name="Y" horiz-adv-x="1274" d="M1395 1280L1141 1161L711 535L735 172L934 27L254 -18L479 131L555 539L164 1153L-78 1239L608 1403L420 1233L645 651L913 1217L748 1389L1395 1280Z" />
<glyph unicode="Z" glyph-name="Z" horiz-adv-x="1184" d="M289 143L920 205L1124 535L1049 -18L55 29L725 1165L236 1051L115 809L86 1409L193 1282L1124 1327L289 143Z" />
<glyph unicode="[" glyph-name="bracketleft" horiz-adv-x="621" d="M422 1274L358 27L596 -119L205 -145L131 1475L670 1491L422 1274Z" />
<glyph unicode="\" glyph-name="backslash" horiz-adv-x="1004" d="M47 1319L299 1378L958 14L870 -35L47 1319Z" />
<glyph unicode="]" glyph-name="bracketright" horiz-adv-x="627" d="M37 -119L272 27L209 1274L-37 1491L502 1475L428 -145L37 -119Z" />
<glyph unicode="^" glyph-name="asciicircum" horiz-adv-x="707" d="M354 1143L90 967L360 1442L629 991L354 1143Z" />
<glyph unicode="_" glyph-name="underscore" horiz-adv-x="913" d="M94 -377V-201H788V-377H94Z" />
<glyph unicode="`" glyph-name="grave" horiz-adv-x="385" d="M0 1401L240 1475L385 1104L0 1401Z" />
<glyph unicode="a" glyph-name="a" horiz-adv-x="1047" d="M930 623Q930 570 924 509T907 385T880 262T846 150L1059 0L682 16L705 139Q645 64 567 25T385 -23Q301 -29 239 -12T135 42T73 132T53 252Q53 313 83 370T169 472T308 542T494 569Q542 569 604 560T723
522Q718 583 705 646T665 762T598 846T494 879Q441 879 391 857T298 794T219 694T160 561L76 1051L203 856Q250 914 298 948T393 1001T485 1026T571 1032Q648 1028 713 1001T827 922T902 795T930 623ZM723 303Q725 331 726 357T727 408V420Q691 434 655 441T587
452T535 456T506 457Q449 455 407 436T338 389T297 325T283 256Q283 179 320 140T430 100Q478 100 521 117T601 162T669 227T723 303Z" />
<glyph unicode="b" glyph-name="b" horiz-adv-x="1057" d="M532 -23Q478 -23 432 -6T350 40T288 107T246 190L145 -43L106 1151L-145 1249L385 1309Q365 1163 351 1049T328 844Q382 925 459 975T637 1026Q711 1026 766 1008T860 959T925 885T966 794T987 695T993
594Q993 459 964 346T877 150T733 23T532 -23ZM547 872Q505 872 468 851T401 794T347 711T307 610Q305 581 304 561T303 526Q302 509 303 498Q303 382 320 306T366 185T433 121T514 102Q556 102 600 134T680 226T740 371T764 563Q764 638 746 696T698 793T628 852T547
872Z" />
<glyph unicode="c" glyph-name="c" horiz-adv-x="987" d="M532 999Q616 999 684 963T795 864L997 1069L831 528Q822 612 803 670T760 767T709 827T660 858T621 870T600 872Q528 872 470 844T371 762T307 630T285 451Q285 355 308 282T369 158T456 83T557 57Q618
57 670 84T759 157T814 260T827 381Q839 370 852 354T877 319T896 277T903 231Q903 163 871 109T787 16T672 -42T545 -63Q518 -63 472 -57T371 -33T260 21T159 114T84 257T55 461Q55 567 79 648T144 790T236 890T340 954T443 988T532 999Z" />
<glyph unicode="d" glyph-name="d" horiz-adv-x="1090" d="M889 125L1110 43L748 -27L752 168Q728 127 697 90T628 23T542 -23T440 -41Q362 -39 293 -6T171 88T88 239T57 444Q57 584 90 689T180 864T313 969T477 1004Q565 1004 640 967T764 866L768 1102L524 1194L1018
1282L889 125ZM471 86Q474 86 491 88T533 98T588 124T649 171T708 248T756 360L762 686Q747 722 725 755T675 813T614 854T543 870Q474 870 426 836T346 742T300 600T285 422Q285 351 297 290T332 183T390 112T471 86Z" />
<glyph unicode="e" glyph-name="e" horiz-adv-x="983" d="M289 367Q302 311 324 258T378 162T452 94T547 68Q617 68 669 97T754 170T800 268T805 371Q833 360 851 342T880 303T895 259T899 215Q899 167 871 123T793 44T673 -12T522 -33Q412 -33 326 10T179 126T87
299T55 510Q55 624 87 720T181 885T335 988T545 1016Q627 1010 696 969T816 864T899 716T938 543L289 367ZM270 528Q270 514 270 501T272 473L711 633Q689 705 662 756T604 841T544 889T485 905Q443 905 411 889T356 846T316 781T289 702T275 616T270 528Z" />
<glyph unicode="f" glyph-name="f" horiz-adv-x="690" d="M354 803V774Q354 687 352 607T348 448T343 294T340 141L571 12H33L213 135Q191 337 179 501T160 778L14 762L152 981Q159 1075 181 1154T243 1292T345 1382T492 1415Q522 1415 554 1410T616 1393T674
1365T719 1325L881 1444L723 1044Q721 1105 708 1148T675 1221T632 1266T589 1291T555 1302T539 1305Q491 1302 459 1274T407 1197T375 1081T358 932H723L649 840L354 803Z" />
<glyph unicode="g" glyph-name="g" horiz-adv-x="1083" d="M1120 1030L930 864Q941 781 946 697T952 528Q952 334 933 170T862 -114T719 -300T485 -367Q458 -367 430 -360T375 -340T324 -313T281 -283L164 -414L137 20Q189 -73 240 -125T336 -204T415 -237T469
-244Q493 -244 518 -242T568 -228T616 -194T660 -129T697 -26T725 127Q701 92 672 62T608 9T531 -27T442 -41Q365 -39 296 -6T174 88T90 239T59 444Q59 584 92 690T182 867T315 972T479 1004Q561 1000 622 965T725 877Q723 901 721 927T715 981L1120 1030ZM743
465Q743 524 742 583T737 709Q721 741 701 770T656 822T604 857T545 870Q476 870 428 836T348 742T302 600T287 422Q287 351 299 290T334 183T392 112T473 86Q476 86 491 87T528 96T579 118T636 157T692 219T741 311Q743 346 743 384T743 465Z" />
<glyph unicode="h" glyph-name="h" horiz-adv-x="1049" d="M-41 12L113 137L184 1251L-39 1362L315 1421L319 858Q353 907 394 938T474 988T547 1013T600 1020Q694 1020 759 987T864 894T923 755T942 580Q942 528 934 469T911 351T880 236T844 135L1042 25L524
-29L743 170Q757 244 763 309T770 430Q770 458 767 498T753 581T726 668T682 745T616 800T524 821Q472 821 418 798T319 725L326 123L459 12H-41Z" />
<glyph unicode="i" glyph-name="i" horiz-adv-x="512" d="M33 -10L190 113L156 803L-29 924L401 997L324 195L539 61L33 -10ZM412 1239Q412 1209 400 1183T367 1136T319 1104T262 1092Q230 1092 203 1103T155 1135T123 1182T111 1239Q111 1270 123 1296T155 1343T202
1374T262 1386Q292 1386 319 1375T367 1343T400 1297T412 1239Z" />
<glyph unicode="j" glyph-name="j" horiz-adv-x="498" d="M-84 -199Q-30 -199 11 -166T82 -77T132 53T166 210T186 380T196 548T200 699T201 819L-57 930L340 1008Q351 956 360 889T376 745T387 590T391 436Q391 343 383 251T354 76T300 -78T218 -202T101 -283T-53
-313Q-81 -313 -112 -309T-176 -293L-223 -469L-340 -45Q-308 -93 -273 -123T-205 -170T-140 -193T-84 -199ZM373 1233Q373 1204 363 1180T334 1136T292 1107T238 1096Q210 1096 186 1106T143 1136T115 1179T104 1233Q104 1261 114 1285T143 1328T185 1357T238
1368Q267 1368 291 1358T334 1329T362 1286T373 1233Z" />
<glyph unicode="k" glyph-name="k" horiz-adv-x="975" d="M1020 889L813 817L387 412Q427 363 464 328T534 268T595 228T648 205Q703 186 748 193Q780 195 817 213Q849 228 890 261T979 356Q961 245 927 172T854 55T782 -7T729 -25Q677 -17 614 22Q587 38 555
63T486 123T408 205T324 315L326 123L459 12H-41L113 137L184 1251L-39 1362L315 1421L322 516L602 874L487 1001L1020 889Z" />
<glyph unicode="l" glyph-name="l" horiz-adv-x="487" d="M287 125L487 45L-14 -4L166 137L135 1217L-96 1317L410 1384L287 125Z" />
<glyph unicode="m" glyph-name="m" horiz-adv-x="1356" d="M-2 -10L129 137L197 815L-14 967L326 944V842Q364 893 405 921T482 962Q523 977 563 979Q634 979 692 950T784 870Q826 920 880 949T997 979Q1054 979 1103 953T1187 880T1243 766T1264 616Q1264 557
1257 493T1237 366T1206 244T1167 133L1309 70L813 -23L1032 152Q1048 260 1052 349T1057 502Q1057 663 1019 736T909 809Q866 809 823 778Q829 754 829 727Q829 666 820 601T795 473T761 351T723 244L864 133H461L596 242Q608 335 613 432T618 616Q618 718 595
776T510 834Q479 834 453 822T404 790T362 744T326 690V145L494 25L-2 -10Z" />
<glyph unicode="n" glyph-name="n" horiz-adv-x="1083" d="M973 621Q973 565 968 503T953 379T929 258T895 150L1092 86L571 -16L748 117Q769 194 776 265T784 399Q784 437 782 485T771 584T747 682T706 767T645 827T557 850Q498 850 437 811T324 696V143L489
25L-6 -10L125 135L195 862L-18 967L324 1001V850Q353 890 388 925T462 985T543 1025T631 1040Q718 1040 782 1008T888 920T952 787T973 621Z" />
<glyph unicode="o" glyph-name="o" horiz-adv-x="1065" d="M55 502Q55 614 90 709T189 875T340 984T532 1024Q633 1024 717 987T863 881T962 718T1006 508Q1013 385 981 286T885 117T735 9T545 -29Q447 -29 359 6T203 110T95 276T55 502ZM301 485Q301 397 326
326T393 206T490 129T606 102Q667 102 720 128T812 203T873 320T895 471Q895 553 873 625T812 752T718 837T600 868Q543 868 490 842T394 767T327 646T301 485Z" />
<glyph unicode="p" glyph-name="p" horiz-adv-x="1069" d="M367 874Q390 902 417 925T476 966T544 994T623 1004Q700 1001 769 968T891 874T975 723T1006 518Q1006 378 973 273T883 99T750 -6T586 -41Q510 -41 445 -15T332 57L322 -168L522 -276L31 -360L182 -209L141
862L-41 934L373 1004L367 874ZM592 877Q578 877 552 872T494 849T426 797T358 705L338 207Q370 157 416 125T520 92Q588 92 637 126T717 220T763 363T778 541Q778 611 766 672T731 779T673 851T592 877Z" />
<glyph unicode="q" glyph-name="q" horiz-adv-x="1055" d="M1114 952L877 866L928 -217L1110 -279L715 -377L723 123Q699 89 670 60T605 8T530 -28T442 -41Q365 -39 296 -6T174 88T90 239T59 444Q59 584 92 689T182 864T315 969T479 1004Q555 1004 621 977T737
901L739 1016L1114 952ZM473 86Q488 86 517 92T581 119T655 184T727 301L733 741Q701 795 653 832T545 870Q476 870 428 836T348 742T302 600T287 422Q287 351 299 290T334 183T392 112T473 86Z" />
<glyph unicode="r" glyph-name="r" horiz-adv-x="850" d="M750 682Q741 719 725 745T688 788T644 815T598 830Q544 841 483 829Q462 822 438 807Q417 793 390 770T332 707L350 127L530 37L0 -10L137 129L193 825L-20 922L324 987L328 862Q363 904 400 931T467
975Q502 994 535 1004Q595 1018 657 1015Q683 1014 711 1009T769 994T827 966T881 922L750 682Z" />
<glyph unicode="s" glyph-name="s" horiz-adv-x="952" d="M446 1018Q484 1018 523 1012T599 993T670 963T731 924L895 1126L821 627Q809 679 779 729T705 820T602 884T475 909Q437 909 402 901T341 873T299 825T283 756Q283 708 309 678T379 628T477 593T590 562T703
525T801 469T870 385T897 260Q897 177 865 119T781 23T668 -32T547 -49Q499 -49 451 -39T358 -11T273 32T199 86L47 -117L94 379Q126 311 171 252T271 150T389 82T520 57Q599 57 646 90T694 186Q694 226 668 252T598 299T499 335T386 370T273 414T175 478T105 572T78
707Q78 775 98 825T150 909T223 965T305 998T383 1014T446 1018Z" />
<glyph unicode="t" glyph-name="t" horiz-adv-x="813" d="M131 438Q131 532 150 625T193 797L20 786L508 1319Q450 1136 414 989L803 956L752 836L375 809Q361 736 354 680T341 584Q336 538 334 504Q334 404 346 324T383 188T448 101T543 70Q594 70 628 90T684
143T714 216T723 297Q723 334 717 369Q760 347 782 299T805 193Q805 134 786 89T732 14T652 -33T553 -49Q521 -49 478 -42T387 -17T294 36T212 124T154 255T131 438Z" />
<glyph unicode="u" glyph-name="u" horiz-adv-x="1094" d="M922 973L961 113L1141 29L731 -47L750 246Q722 187 686 134T605 40T507 -25T391 -49Q317 -49 261 -23T167 48T110 155T90 287Q90 352 100 422T127 560T169 693T223 813L12 862L408 997Q370 896 350 804T319
639Q308 555 305 483Q305 390 318 323T354 211T409 145T479 123Q537 123 583 154T664 237T725 360T767 508T792 667T801 823L584 973H922Z" />
<glyph unicode="v" glyph-name="v" horiz-adv-x="1016" d="M1061 918L874 809L655 86L809 -20L209 -6L395 121L98 836L-33 913L494 973L373 854L522 170L764 807L614 938L1061 918Z" />
<glyph unicode="w" glyph-name="w" horiz-adv-x="1323" d="M1274 983L1124 860L1055 139L1194 47L760 -4L854 102L633 508L471 104L569 18L166 -23L307 106L133 831L-45 905L502 1016L381 877L424 252L688 895L895 293L1024 885L823 991L1274 983Z" />
<glyph unicode="x" glyph-name="x" horiz-adv-x="1104" d="M1143 930L944 848Q875 754 804 662T657 481Q716 396 777 314T903 152L1122 92L709 -35L801 106Q735 168 673 231T551 360Q494 297 436 239T317 127L385 0L-31 23L225 168Q345 308 457 465Q370 567 289
669T129 874L-29 940L477 1016L385 913Q427 841 471 768T563 621Q610 692 651 762T733 907L618 1001L1143 930Z" />
<glyph unicode="y" glyph-name="y" horiz-adv-x="1047" d="M889 874Q899 792 904 696T908 499T895 297T860 102T798 -73T705 -213T575 -307T403 -342Q293 -342 168 -287L94 -434L-8 -41Q37 -100 84 -136T175 -191T255 -217T315 -223Q397 -223 461 -172T575 -29Q495
55 420 153T283 363T181 598T127 854L-37 942L426 1008L340 891Q366 690 440 496T633 102Q659 177 678 264T711 448T732 649T741 862L592 1008Q675 1002 738 997T849 989T928 983T982 979Q1031 975 1040 975L889 874Z" />
<glyph unicode="z" glyph-name="z" horiz-adv-x="928" d="M90 1126L193 952L887 938L381 139L694 72L883 274L827 -184L745 -29L8 -14L649 797L158 756L90 621V1126Z" />
<glyph unicode="{" glyph-name="braceleft" horiz-adv-x="600" d="M391 1507Q430 1507 465 1499T529 1481T577 1462T602 1452Q594 1451 575 1446T531 1431T481 1404T434 1364T399 1310T385 1241Q385 1185 393 1135T401 1040Q401 960 388 901T355 799T311 729T266
687T229 665T209 659Q310 647 350 579T391 387Q391 357 387 324T378 255T369 181T365 100Q365 65 374 38T400 -12T436 -50T477 -79Q526 -107 590 -119Q557 -140 519 -157Q487 -171 445 -183T358 -195Q298 -195 256 -174T188 -119T149 -44T137 37Q137 82 145 129T163
225T181 321T190 414Q190 473 177 513T142 580T98 621T54 643T21 651T10 653Q60 680 100 712Q117 725 133 740T162 772T182 806T190 842Q190 860 185 898T172 984T160 1089T154 1202Q154 1274 167 1330T210 1426T284 1486T391 1507Z" />
<glyph unicode="|" glyph-name="bar" horiz-adv-x="500" d="M184 -156L150 1593L373 1565L305 -156H184Z" />
<glyph unicode="}" glyph-name="braceright" horiz-adv-x="602" d="M213 1507Q275 1507 320 1486T394 1426T437 1331T451 1202Q451 1146 445 1090T433 985T420 898T414 842Q414 824 421 807T442 773T471 741T504 712Q544 680 594 653Q595 653 583 652T550 643T506
622T462 581T428 514T414 414Q414 369 422 322T440 226T458 130T467 37Q467 -2 455 -43T417 -118T348 -173T246 -195Q201 -195 159 -183T85 -157Q47 -140 14 -119Q77 -107 127 -79Q148 -67 168 -51T204 -12T230 37T240 100Q240 142 236 180T227 255T217 324T213
387Q213 510 253 578T395 659Q391 659 375 665T338 686T293 729T249 798T216 900T203 1040Q203 1084 211 1134T219 1241Q219 1279 205 1309T170 1363T123 1403T73 1430T30 1446T2 1452Q8 1453 27 1462T75 1481T139 1499T213 1507Z" />
<glyph unicode="~" glyph-name="asciitilde" horiz-adv-x="975" d="M881 723Q857 671 825 634T758 572T690 537T633 526Q600 526 564 540T490 572T416 603T346 618Q300 618 257 603T170 553L106 639Q135 689 168 724T235 783T301 816T360 827Q393 827 433 812T511
779T583 746T635 731Q659 731 680 732T724 740T771 763T823 807L881 723Z" />
<glyph unicode="&#xa0;" glyph-name="nbspace" horiz-adv-x="532" />
<glyph unicode="&#xa1;" glyph-name="exclamdown" horiz-adv-x="520" d="M225 766L344 760L340 -330L76 -297L225 766ZM137 1006Q137 1038 153 1061T194 1098T244 1119T289 1126Q310 1126 336 1120T385 1099T424 1061T440 1006Q440 972 424 948T385 909T336 886T289
879Q270 879 244 886T194 908T154 948T137 1006Z" />
<glyph unicode="&#xa2;" glyph-name="cent" horiz-adv-x="874" d="M475 897Q534 892 582 864T662 791L823 954L690 522Q683 590 668 636T634 713T593 761T554 786T522 795T506 797Q448 797 402 775T322 709T272 604T254 461Q254 384 272 325T321 226T390 166T471
145Q519 145 561 167T632 225T677 307T688 403Q697 395 707 383T727 355T742 321T748 285Q748 232 724 189T660 116T571 68T473 49L508 -379L362 -346L410 51Q381 55 345 65T270 94T196 144T132 219T87 326T70 469Q70 545 86 605T128 711T189 789T261 844T337 878T408
895L352 1374L530 1352L475 897Z" />
<glyph unicode="&#xa3;" glyph-name="sterling" horiz-adv-x="1030" d="M494 571Q505 527 508 485T509 405T501 332T487 272L834 229L940 399L920 131L41 133L236 246Q256 276 276 314T310 397T327 488T315 582L182 592L190 682L281 690Q245 816 247 921T282 1102T376
1220T518 1262Q599 1262 656 1234T754 1151L879 1229L721 827L700 1065Q679 1095 658 1112T617 1139T581 1150T553 1153Q499 1153 461 1121T406 1031T396 889T442 705L590 717V565L494 571Z" />
<glyph unicode="&#xa4;" glyph-name="currency" horiz-adv-x="850" d="M575 801Q575 858 559 904T516 981T455 1030T385 1047Q343 1047 309 1027T250 973T211 892T197 793Q197 739 210 696T248 621T306 574T379 557Q418 557 453 573T516 621T559 698T575 801ZM145
1178L231 1071Q270 1106 318 1126T426 1147Q485 1147 535 1127T627 1071L731 1157L809 1001L707 954Q719 922 726 887T733 813Q733 751 718 700T676 608L770 532L614 420L555 502Q523 486 488 479T418 471Q365 471 320 487T236 532L168 430L66 557L154 635Q137
672 129 717T123 815Q126 881 147 936L41 1006L145 1178Z" />
<glyph unicode="&#xa5;" glyph-name="yen" horiz-adv-x="1274" d="M700 371L707 276L866 160L322 123L504 242L526 365L379 360L377 483L545 475L557 539L385 547L377 631L518 639L248 1061L57 1130L606 1262L455 1124L635 659L848 1112L717 1249L1235 1163L1032
1067L748 653L903 664L889 524L690 532L694 469L889 461L903 377L700 371Z" />
<glyph unicode="&#xa6;" glyph-name="brokenbar" horiz-adv-x="504" d="M178 858L143 1593L367 1565L322 866L178 858ZM330 553L360 -156H158L184 563L330 553Z" />
<glyph unicode="&#xa7;" glyph-name="section" horiz-adv-x="1042" d="M127 672Q127 724 139 765T171 838T217 893T274 932Q242 952 215 977T169 1034T138 1106T127 1198Q127 1267 147 1316T199 1400T273 1456T355 1489T433 1505T496 1509Q533 1509 572 1503T649
1484T719 1455T780 1415L944 1618L870 1118Q858 1170 829 1221T755 1312T652 1376T524 1401Q486 1401 451 1393T390 1365T348 1317T332 1247Q332 1199 358 1169T428 1119T526 1084T639 1053T752 1016T850 961T919 877T946 752Q946 699 933 657T895 580T840 521T772
479Q809 462 840 440T895 388T932 317T946 225Q946 142 914 84T830 -12T717 -67T596 -84Q548 -84 500 -74T407 -46T322 -3T248 51L96 -152L143 344Q175 276 220 217T320 115T438 48T569 23Q648 23 695 56T743 152Q743 192 717 218T647 264T548 300T435 335T322
379T224 444T154 538T127 672ZM332 721Q332 682 350 655T398 608T469 575T555 549H569Q648 549 695 582T743 678Q743 718 717 744T646 790T546 826T432 862Q387 847 360 812T332 721Z" />
<glyph unicode="&#xa8;" glyph-name="dieresis" horiz-adv-x="524" d="M524 1268Q524 1245 516 1225T492 1189T457 1164T412 1155Q389 1155 369 1164T334 1189T310 1225T301 1268Q301 1291 310 1311T334 1347T369 1371T412 1380Q436 1380 456 1371T492 1347T515
1312T524 1268ZM217 1262Q217 1239 209 1220T186 1186T152 1164T109 1155Q86 1155 67 1163T32 1186T9 1219T0 1262Q0 1285 8 1304T32 1338T66 1361T109 1370Q155 1370 186 1339T217 1262Z" />
<glyph unicode="&#xa9;" glyph-name="copyright" horiz-adv-x="1247" d="M1157 649Q1157 519 1113 417T995 244T825 136T623 98Q519 98 423 134T253 238T135 402T90 621Q90 745 131 850T246 1033T419 1154T637 1198Q736 1198 829 1162T996 1055T1113 883T1157
649ZM1051 651Q1051 770 1009 859T901 1008L774 735L760 881Q744 901 726 912T690 929T660 936T639 938Q598 938 564 917T504 858T464 766T449 645Q449 579 463 524T503 430T562 368T635 346Q674 346 702 365T747 414T773 479T782 547Q782 553 782 559T780 573Q812
552 828 524T844 467Q844 440 831 410T791 354T727 312T639 295Q579 295 520 314T415 374T340 481T311 639Q311 728 337 796T407 911T505 982T616 1006Q666 1006 713 988T791 936L891 1016Q829 1068 755 1094T606 1120Q514 1120 436 1086T299 989T207 836T174 631Q174
524 207 440T297 299T430 211T594 180Q681 180 763 210T909 301T1012 449T1051 651Z" />
<glyph unicode="&#xaa;" glyph-name="ordfeminine" horiz-adv-x="760" d="M629 1067Q629 1033 625 994T614 914T597 835T575 764L713 668L471 678Q476 698 479 718T485 758Q447 708 397 682T281 653Q227 649 187 660T121 695T81 753T68 829Q68 868 87 905T142
970T230 1015T350 1032Q379 1032 420 1026T496 1001Q493 1040 485 1081T460 1155T417 1210T350 1231Q316 1231 284 1217T225 1176T175 1112T137 1028L82 1339L164 1214Q194 1251 225 1273T286 1308T344 1325T399 1329Q448 1327 490 1309T563 1258T611 1177T629
1067ZM41 473L51 541L709 596V430L41 473ZM498 864Q500 881 500 897T500 930V936Q477 945 454 950T411 958T377 960T358 961Q322 958 295 946T251 915T224 875T215 831Q215 733 309 733Q340 733 368 744T420 773T463 815T498 864Z" />
<glyph unicode="&#xab;" glyph-name="guillemotleft" horiz-adv-x="1077" d="M55 510L479 872L561 686L174 514L565 381L492 180L55 510ZM461 530L885 872L967 686L580 532L971 381L897 180L461 530Z" />
<glyph unicode="&#xac;" glyph-name="logicalnot" horiz-adv-x="1044" d="M115 766L895 815L915 332L676 338L723 623L109 664L115 766Z" />
<glyph unicode="&#xad;" glyph-name="uni00AD" horiz-adv-x="889" d="M111 616L121 766L778 821V573L111 616Z" />
<glyph unicode="&#xae;" glyph-name="registered" horiz-adv-x="874" d="M807 999Q807 911 777 842T697 724T581 651T442 625Q372 625 307 649T192 719T111 830T80 979Q80 1063 108 1135T186 1259T304 1342T453 1372Q520 1372 584 1347T697 1275T777 1158T807
999ZM717 999Q717 1073 692 1129T626 1222T534 1279T432 1298Q370 1298 319 1275T229 1208Q348 1215 407 1216T479 1217Q501 1217 526 1211T574 1192T610 1157T625 1104Q625 1095 619 1072T589 1024T517 980T383 958Q404 942 429 925T479 892T529 868T573 858Q593
858 616 868T655 913Q647 869 634 841T607 796T581 774T563 768Q549 768 523 785T469 825T414 873T373 913L375 836L442 797L223 782Q260 740 312 718T424 696Q479 696 531 716T625 774T692 868T717 999ZM156 985Q156 922 173 872T221 784L289 848L319 1167L225
1204Q191 1164 174 1109T156 985ZM532 1090Q532 1105 528 1119T510 1145T466 1164T387 1171H367L373 999Q403 1000 431 1006T482 1024T518 1052T532 1090Z" />
<glyph unicode="&#xaf;" glyph-name="overscore" horiz-adv-x="512" d="M502 1212L8 1221L0 1343L512 1386L502 1212Z" />
<glyph unicode="&#xb0;" glyph-name="degree" horiz-adv-x="524" d="M469 1163Q469 1125 453 1094T410 1039T347 1002T272 989Q232 989 196 1002T133 1038T90 1093T74 1163Q74 1201 90 1233T133 1288T196 1325T272 1339Q311 1339 347 1326T410 1289T453 1233T469
1163ZM344 1163Q344 1183 339 1203T325 1238T302 1264T272 1274Q256 1274 243 1264T220 1239T205 1203T199 1163Q199 1144 204 1125T219 1090T242 1065T272 1055Q284 1055 297 1064T320 1089T337 1124T344 1163Z" />
<glyph unicode="&#xb1;" glyph-name="plusminus" horiz-adv-x="883" d="M543 778L786 786L760 573L532 588L516 291L346 301L340 600L92 616L102 766L336 772L332 1055L557 1036L543 778ZM92 43L102 193L786 213L760 0L92 43Z" />
<glyph unicode="&#xb2;" glyph-name="twosuperior" horiz-adv-x="707" d="M346 889Q337 885 323 876T294 850T266 810T246 756L510 809L592 903L596 719L98 707Q111 756 136 792T191 855T253 898T313 926Q357 943 385 961T429 999T451 1038T457 1077Q457 1107
447 1127T418 1160T377 1178T330 1184Q299 1184 272 1174T223 1148T185 1111T160 1069L98 1276L172 1180Q195 1209 221 1225T273 1250T318 1261T350 1264Q398 1264 443 1252T522 1218T577 1162T598 1087Q598 1036 577 1006T521 956T440 922T346 889Z" />
<glyph unicode="&#xb3;" glyph-name="threesuperior" horiz-adv-x="678" d="M84 1307L137 1241H594L301 1049Q359 1048 414 1038T513 1008T582 955T608 879Q608 843 595 815T559 765T509 729T450 704T389 691T334 686Q306 686 267 693T191 717T130 764T104 838Q104
846 107 859T121 887T155 915T217 938Q184 894 184 848Q184 801 216 768T317 735Q359 735 387 744T432 770T457 808T465 854Q465 896 442 925T383 971T304 996T219 1004H193L346 1159L164 1190L123 1108L84 1307Z" />
<glyph unicode="&#xb4;" glyph-name="acute" horiz-adv-x="369" d="M0 1104L147 1475L369 1417L0 1104Z" />
<glyph unicode="&#xb5;" glyph-name="mu" horiz-adv-x="1257" d="M162 289Q162 354 172 423T199 561T241 693T295 813L84 862L479 997Q442 896 422 804T391 639Q380 555 377 483Q377 390 390 323T426 211T481 145T551 123Q609 123 655 154T736 237T796 360T838
508T863 667T872 823L655 973H993L1032 113L1212 29L803 -47L821 246Q794 187 758 134T677 40T579 -25T463 -49Q375 -49 311 -12Q321 -121 341 -228T401 -440L172 -512Q158 -332 157 -132T162 289Z" />
<glyph unicode="&#xb6;" glyph-name="paragraph" horiz-adv-x="1661" d="M1081 68L1155 158L1219 1229L987 1239L1006 145L1071 10L506 14L760 141L774 428H750Q674 428 594 438T438 471T294 532T176 623T96 750T66 915Q66 1017 98 1093T188 1222T322 1310T490
1363T680 1390T879 1397Q908 1397 942 1397T1019 1395T1118 1391T1246 1384T1410 1372T1618 1356L1386 1169L1415 172L1554 49L1081 68ZM334 893Q334 879 337 848T354 777T396 696T473 618T597 557T780 528L815 1264H780Q673 1264 599 1242T475 1186T397 1109T355
1025T338 949T334 893Z" />
<glyph unicode="&#xb7;" glyph-name="middot" horiz-adv-x="492" d="M399 713Q399 681 383 658T343 621T293 599T248 592Q227 592 201 599T152 620T112 658T96 713Q96 747 112 771T151 810T201 833T248 840Q267 840 293 833T342 811T382 771T399 713Z" />
<glyph unicode="&#xb8;" glyph-name="cedilla" horiz-adv-x="268" d="M29 -176Q41 -192 63 -207T111 -223Q137 -223 154 -205T172 -158Q172 -143 163 -135T140 -121T110 -115T82 -113Q63 -113 57 -113T41 -117L152 43H209L162 -61Q177 -61 195 -68T229 -89T257
-126T268 -180Q268 -245 230 -277T131 -309Q113 -309 93 -302T55 -283T22 -254T0 -219L29 -176Z" />
<glyph unicode="&#xb9;" glyph-name="onesuperior" horiz-adv-x="481" d="M322 774L414 713L88 721L188 770L231 1190L104 1241L322 1268V774Z" />
<glyph unicode="&#xba;" glyph-name="ordmasculine" horiz-adv-x="748" d="M672 1014Q672 933 646 869T577 762T476 695T356 672Q291 672 236 696T140 766T78 874T61 1016Q67 1089 91 1150T154 1255T247 1323T365 1348Q432 1348 488 1322T586 1251T649 1145T672
1014ZM514 1001Q514 1059 498 1104T455 1181T394 1230T324 1247Q282 1247 248 1227T188 1173T149 1092T135 993Q135 939 149 896T187 822T244 775T317 758Q356 758 392 774T455 822T498 899T514 1001ZM49 473L59 569L688 596V430L49 473Z" />
<glyph unicode="&#xbb;" glyph-name="guillemotright" horiz-adv-x="1075" d="M582 180L508 381L897 514L512 686L594 872L1018 510L582 180ZM176 180L102 381L492 532L106 686L188 872L612 530L176 180Z" />
<glyph unicode="&#xbc;" glyph-name="onequarter" horiz-adv-x="1176" d="M227 180L172 219L788 1241L936 1143L227 180ZM850 274Q841 270 827 261T798 235T770 195T750 141L1014 195L1096 289L1100 104L602 92Q615 141 640 177T695 240T757 283T817 311Q861 328
889 346T933 384T955 424T961 463Q961 493 951 513T922 546T881 563T834 569Q803 569 776 559T727 533T689 497T664 455L602 662L676 565Q699 594 725 611T777 636T822 647T854 649Q902 649 947 638T1026 604T1081 548T1102 473Q1102 422 1081 392T1025 342T944
308T850 274ZM305 774L397 713L72 721L172 770L215 1190L88 1241L305 1268V774Z" />
<glyph unicode="&#xbd;" glyph-name="onehalf" horiz-adv-x="1221" d="M215 180L160 219L776 1241L924 1143L215 180ZM1161 625L1067 571L1026 160L1153 111L823 82L940 164L938 281L539 264L641 563L557 606L883 637L778 588L655 360L936 336L928 565L846 600L1161
625ZM315 774L408 713L82 721L182 770L225 1190L98 1241L315 1268V774Z" />
<glyph unicode="&#xbe;" glyph-name="threequarters" horiz-adv-x="1378" d="M358 180L303 219L920 1241L1067 1143L358 180ZM1321 625L1227 571L1186 160L1313 111L983 82L1100 164L1098 281L698 264L801 563L717 606L1042 637L938 588L815 360L1096 336L1087
565L1006 600L1321 625ZM78 1307L131 1241H588L295 1049Q353 1048 408 1038T507 1008T576 955T602 879Q602 843 589 815T553 765T503 729T444 704T383 691T328 686Q300 686 261 693T185 717T124 764T98 838Q98 846 101 859T115 887T149 915T211 938Q178 896 178
848Q178 801 210 768T311 735Q353 735 381 744T426 770T451 808T459 854Q459 896 436 925T377 971T298 996T213 1004H186L340 1159L158 1190L117 1108L78 1307Z" />
<glyph unicode="&#xbf;" glyph-name="questiondown" horiz-adv-x="1231" d="M1161 -473L991 -227Q970 -242 941 -258T870 -287T777 -308T659 -317Q538 -317 426 -292T229 -218T92 -97T41 70Q41 150 63 204T123 294T207 355T303 401T399 444T483 500T542 582T565
705Q565 719 564 734T561 766H782Q783 760 784 752Q785 745 785 736T786 715Q786 686 779 645T749 560T682 473T565 395Q493 361 448 320T379 235T345 150T336 74Q336 9 361 -39T429 -119T526 -168T637 -184Q711 -184 768 -169T869 -126T945 -62T1004 17T1051 106T1094
199L1161 -473ZM532 991Q532 1023 548 1046T589 1083T639 1105T684 1112Q705 1112 731 1105T780 1084T820 1046T836 991Q836 957 820 933T781 894T731 871T684 864Q665 864 639 871T589 893T549 933T532 991Z" />
<glyph unicode="&#xc0;" glyph-name="Agrave" horiz-adv-x="1311" d="M866 1415L1167 207L1405 172L842 -68L1034 176L922 455L406 438L301 141L494 -113L-104 123L190 152L274 434H225L141 541L311 559L492 1163L287 1270L866 1415ZM453 575L852 621L647 1128L453
575ZM207 1704L447 1778L592 1407L207 1704Z" />
<glyph unicode="&#xc1;" glyph-name="Aacute" horiz-adv-x="1311" d="M866 1415L1167 207L1405 172L842 -68L1034 176L922 455L406 438L301 141L494 -113L-104 123L190 152L274 434H225L141 541L311 559L492 1163L287 1270L866 1415ZM453 575L852 621L647 1128L453
575ZM616 1411L763 1782L985 1724L616 1411Z" />
<glyph unicode="&#xc2;" glyph-name="Acircumflex" horiz-adv-x="1311" d="M866 1415L1167 207L1405 172L842 -68L1034 176L922 455L406 438L301 141L494 -113L-104 123L190 152L274 434H225L141 541L311 559L492 1163L287 1270L866 1415ZM453 575L852 621L647
1128L453 575ZM873 1469L652 1604L428 1471L649 1792L873 1469Z" />
<glyph unicode="&#xc3;" glyph-name="Atilde" horiz-adv-x="1311" d="M866 1415L1167 207L1405 172L842 -68L1034 176L922 455L406 438L301 141L494 -113L-104 123L190 152L274 434H225L141 541L311 559L492 1163L287 1270L866 1415ZM453 575L852 621L647 1128L453
575ZM928 1663Q922 1607 903 1567T858 1502T807 1466T760 1454Q735 1454 707 1467T649 1497T590 1526T537 1538Q506 1536 484 1523T446 1495Q428 1477 416 1456L371 1484Q388 1539 411 1576T461 1636T512 1669T557 1679Q581 1679 610 1667T667 1640T720 1613T760
1601Q793 1601 816 1613T854 1641Q872 1659 883 1681L928 1663Z" />
<glyph unicode="&#xc4;" glyph-name="Adieresis" horiz-adv-x="1311" d="M866 1415L1167 207L1405 172L842 -68L1034 176L922 455L406 438L301 141L494 -113L-104 123L190 152L274 434H225L141 541L311 559L492 1163L287 1270L866 1415ZM453 575L852 621L647 1128L453
575ZM882 1579Q882 1556 874 1536T850 1500T815 1475T770 1466Q747 1466 727 1475T692 1500T668 1536T659 1579Q659 1602 668 1622T692 1658T727 1682T770 1691Q794 1691 814 1682T850 1658T873 1623T882 1579ZM575 1573Q575 1550 567 1531T544 1497T510 1475T467
1466Q444 1466 425 1474T390 1497T367 1530T358 1573Q358 1596 366 1615T390 1649T424 1672T467 1681Q513 1681 544 1650T575 1573Z" />
<glyph unicode="&#xc5;" glyph-name="Aring" horiz-adv-x="1311" d="M836 1483Q836 1460 830 1440T813 1401L866 1415L1167 207L1405 172L842 -68L1034 176L922 455L406 438L301 141L494 -113L-104 123L190 152L274 434H225L141 541L311 559L492 1163L287 1270L559
1337Q521 1360 497 1397T473 1483Q473 1520 488 1551T528 1606T586 1642T655 1655Q691 1655 723 1642T781 1606T821 1552T836 1483ZM453 575L852 621L647 1128L453 575ZM721 1483Q721 1503 716 1522T703 1557T682 1581T655 1591Q640 1591 628 1582T607 1557T593
1523T588 1483Q588 1464 593 1445T607 1411T628 1386T655 1376Q667 1376 678 1385T699 1410T715 1445T721 1483Z" />
<glyph unicode="&#xc6;" glyph-name="AE" horiz-adv-x="1954" d="M1544 369L1364 627L1221 606L1233 193L1681 152L1849 571L1866 37L739 -8L989 248L1006 463L596 451L342 137L438 -113L-70 123L233 152L434 446L377 444L293 551L522 578L924 1169L758 1317L1829
1393L1847 924L1661 1257L1204 1184L1219 711L1323 725L1530 999L1544 369ZM1020 633L1047 1006L717 598L1020 633Z" />
<glyph unicode="&#xc7;" glyph-name="Ccedilla" horiz-adv-x="1206" d="M559 -176Q571 -192 593 -207T641 -223Q667 -223 684 -205T702 -158Q702 -143 693 -135T670 -121T640 -115T612 -113Q594 -113 588 -113T571 -117L639 -18Q528 -7 425 38T241 166T112 372T63
664Q63 783 87 883T155 1065T257 1209T383 1314T525 1377T674 1399Q776 1399 869 1364T1024 1260L1268 1454L989 856L965 1147Q932 1187 895 1210T824 1244T762 1259T719 1262Q638 1262 569 1221T448 1104T368 919T338 678Q338 545 367 435T447 246T566 124T711
80Q789 80 845 118T937 216T989 345T1006 479Q1006 493 1006 505T1004 532Q1069 489 1099 435T1130 322Q1130 268 1104 208T1025 96T897 11T721 -23H709L692 -61Q707 -61 725 -68T760 -89T788 -126T799 -180Q799 -245 761 -277T662 -309Q644 -309 624 -302T586
-283T552 -254T530 -219L559 -176Z" />
<glyph unicode="&#xc8;" glyph-name="Egrave" horiz-adv-x="1188" d="M1100 37L-27 -8L223 248L293 1169L-8 1317L1063 1393L1081 924L895 1257L438 1184L453 711L557 725L764 999L778 369L598 627L455 606L467 193L915 152L1083 571L1100 37ZM168 1708L408 1782L553
1411L168 1708Z" />
<glyph unicode="&#xc9;" glyph-name="Eacute" horiz-adv-x="1188" d="M1100 37L-27 -8L223 248L293 1169L-8 1317L1063 1393L1081 924L895 1257L438 1184L453 711L557 725L764 999L778 369L598 627L455 606L467 193L915 152L1083 571L1100 37ZM567 1411L714 1782L936
1724L567 1411Z" />
<glyph unicode="&#xca;" glyph-name="Ecircumflex" horiz-adv-x="1188" d="M1100 37L-27 -8L223 248L293 1169L-8 1317L1063 1393L1081 924L895 1257L438 1184L453 711L557 725L764 999L778 369L598 627L455 606L467 193L915 152L1083 571L1100 37ZM807 1424L586
1559L362 1426L583 1747L807 1424Z" />
<glyph unicode="&#xcb;" glyph-name="Edieresis" horiz-adv-x="1188" d="M1100 37L-27 -8L223 248L293 1169L-8 1317L1063 1393L1081 924L895 1257L438 1184L453 711L557 725L764 999L778 369L598 627L455 606L467 193L915 152L1083 571L1100 37ZM798 1540Q798
1517 790 1497T766 1461T731 1436T686 1427Q663 1427 643 1436T608 1461T584 1497T575 1540Q575 1563 584 1583T608 1619T643 1643T686 1652Q710 1652 730 1643T766 1619T789 1584T798 1540ZM491 1534Q491 1511 483 1492T460 1458T426 1436T383 1427Q360 1427 341
1435T306 1458T283 1491T274 1534Q274 1557 282 1576T306 1610T340 1633T383 1642Q429 1642 460 1611T491 1534Z" />
<glyph unicode="&#xcc;" glyph-name="Igrave" horiz-adv-x="694" d="M440 1087L469 182L676 37L-33 -25L211 178L272 1147L63 1311L672 1274L440 1087ZM-19 1655L221 1729L366 1358L-19 1655Z" />
<glyph unicode="&#xcd;" glyph-name="Iacute" horiz-adv-x="694" d="M440 1087L469 182L676 37L-33 -25L211 178L272 1147L63 1311L672 1274L440 1087ZM371 1344L518 1715L740 1657L371 1344Z" />
<glyph unicode="&#xce;" glyph-name="Icircumflex" horiz-adv-x="692" d="M440 1087L469 182L676 37L-33 -25L211 178L272 1147L63 1311L672 1274L440 1087ZM586 1391L365 1526L141 1393L362 1714L586 1391Z" />
<glyph unicode="&#xcf;" glyph-name="Idieresis" horiz-adv-x="694" d="M440 1087L469 182L676 37L-33 -25L211 178L272 1147L63 1311L672 1274L440 1087ZM620 1483Q620 1460 612 1440T588 1404T553 1379T508 1370Q485 1370 465 1379T430 1404T406 1440T397 1483Q397
1506 406 1526T430 1562T465 1586T508 1595Q532 1595 552 1586T588 1562T611 1527T620 1483ZM313 1477Q313 1454 305 1435T282 1401T248 1379T205 1370Q182 1370 163 1378T128 1401T105 1434T96 1477Q96 1500 104 1519T128 1553T162 1576T205 1585Q251 1585 282
1554T313 1477Z" />
<glyph unicode="&#xd0;" glyph-name="Eth" horiz-adv-x="1260" d="M276 -8Q120 -8 -43 16L229 141L270 602L59 616L70 766L287 784L322 1174L12 1313Q109 1335 209 1347T393 1366Q490 1373 582 1374Q650 1374 722 1358T864 1308T994 1219T1100 1090T1173 918T1200
698Q1200 563 1161 458T1055 275T897 143T704 55T492 7T276 -8ZM477 590V125Q613 144 706 196T858 327T941 510T967 737Q967 788 960 846T934 961T886 1070T812 1163T706 1227T565 1251Q523 1251 477 1245V801L727 821V573L477 590Z" />
<glyph unicode="&#xd1;" glyph-name="Ntilde" horiz-adv-x="1448" d="M1556 1337L1272 1255L1126 -20L479 977L377 203L655 55L-2 6L260 203L279 1204L-20 1309L633 1417L1022 412L1141 1229L922 1436L1556 1337ZM1088 1710Q1082 1654 1063 1614T1018 1549T967
1513T920 1501Q895 1501 867 1514T809 1544T750 1573T697 1585Q666 1583 644 1570T606 1542Q588 1524 576 1503L531 1531Q548 1586 571 1623T621 1683T672 1716T717 1726Q741 1726 770 1714T827 1687T880 1660T920 1648Q953 1648 976 1660T1014 1688Q1032 1706
1043 1728L1088 1710Z" />
<glyph unicode="&#xd2;" glyph-name="Ograve" horiz-adv-x="1452" d="M1393 707Q1393 540 1342 409T1201 187T994 48T741 0Q653 0 569 21T409 82T269 179T159 311T87 475T61 668Q61 828 113 963T259 1198T480 1353T758 1409Q884 1409 999 1363T1201 1226T1341
1006T1393 707ZM1124 688Q1124 812 1082 905T973 1062T821 1156T651 1188Q553 1188 469 1152T323 1049T226 885T190 668Q190 554 225 465T321 315T463 221T637 188Q730 188 817 220T973 316T1083 473T1124 688ZM287 1753L527 1827L672 1456L287 1753Z" />
<glyph unicode="&#xd3;" glyph-name="Oacute" horiz-adv-x="1452" d="M1393 707Q1393 540 1342 409T1201 187T994 48T741 0Q653 0 569 21T409 82T269 179T159 311T87 475T61 668Q61 828 113 963T259 1198T480 1353T758 1409Q884 1409 999 1363T1201 1226T1341
1006T1393 707ZM1124 688Q1124 812 1082 905T973 1062T821 1156T651 1188Q553 1188 469 1152T323 1049T226 885T190 668Q190 554 225 465T321 315T463 221T637 188Q730 188 817 220T973 316T1083 473T1124 688ZM670 1450L817 1821L1039 1763L670 1450Z" />
<glyph unicode="&#xd4;" glyph-name="Ocircumflex" horiz-adv-x="1452" d="M1393 707Q1393 540 1342 409T1201 187T994 48T741 0Q653 0 569 21T409 82T269 179T159 311T87 475T61 668Q61 828 113 963T259 1198T480 1353T758 1409Q884 1409 999 1363T1201 1226T1341
1006T1393 707ZM1124 688Q1124 812 1082 905T973 1062T821 1156T651 1188Q553 1188 469 1152T323 1049T226 885T190 668Q190 554 225 465T321 315T463 221T637 188Q730 188 817 220T973 316T1083 473T1124 688ZM924 1473L703 1608L479 1475L700 1796L924 1473Z"
/>
<glyph unicode="&#xd5;" glyph-name="Otilde" horiz-adv-x="1452" d="M1393 707Q1393 540 1342 409T1201 187T994 48T741 0Q653 0 569 21T409 82T269 179T159 311T87 475T61 668Q61 828 113 963T259 1198T480 1353T758 1409Q884 1409 999 1363T1201 1226T1341
1006T1393 707ZM1124 688Q1124 812 1082 905T973 1062T821 1156T651 1188Q553 1188 469 1152T323 1049T226 885T190 668Q190 554 225 465T321 315T463 221T637 188Q730 188 817 220T973 316T1083 473T1124 688ZM1006 1688Q1000 1632 981 1592T936 1527T885 1491T838
1479Q813 1479 785 1492T727 1522T668 1551T615 1563Q584 1561 562 1548T524 1520Q506 1502 494 1481L449 1509Q466 1564 489 1601T539 1661T590 1694T635 1704Q659 1704 688 1692T745 1665T798 1638T838 1626Q871 1626 894 1638T932 1666Q950 1684 961 1706L1006
1688Z" />
<glyph unicode="&#xd6;" glyph-name="Odieresis" horiz-adv-x="1452" d="M1393 707Q1393 540 1342 409T1201 187T994 48T741 0Q653 0 569 21T409 82T269 179T159 311T87 475T61 668Q61 828 113 963T259 1198T480 1353T758 1409Q884 1409 999 1363T1201 1226T1341
1006T1393 707ZM1124 688Q1124 812 1082 905T973 1062T821 1156T651 1188Q553 1188 469 1152T323 1049T226 885T190 668Q190 554 225 465T321 315T463 221T637 188Q730 188 817 220T973 316T1083 473T1124 688ZM993 1577Q993 1554 985 1534T961 1498T926 1473T881
1464Q858 1464 838 1473T803 1498T779 1534T770 1577Q770 1600 779 1620T803 1656T838 1680T881 1689Q905 1689 925 1680T961 1656T984 1621T993 1577ZM686 1571Q686 1548 678 1529T655 1495T621 1473T578 1464Q555 1464 536 1472T501 1495T478 1528T469 1571Q469
1594 477 1613T501 1647T535 1670T578 1679Q624 1679 655 1648T686 1571Z" />
<glyph unicode="&#xd7;" glyph-name="multiply" horiz-adv-x="848" d="M432 815L625 1024L756 854L559 674L754 457L627 344L418 543L205 346L106 459L295 664L84 866L256 1014L432 815Z" />
<glyph unicode="&#xd8;" glyph-name="Oslash" horiz-adv-x="1452" d="M1178 1247Q1275 1158 1334 1022T1393 707Q1393 540 1342 409T1201 187T994 48T741 0Q658 0 578 18T426 72L356 -35L268 14L328 131Q269 174 220 230T135 353T81 500T61 668Q61 828 113 963T259
1198T480 1353T758 1409Q815 1409 869 1399T977 1370L1030 1470L1282 1411L1178 1247ZM190 668Q190 523 246 419T393 256L856 1141Q807 1164 756 1176T651 1188Q553 1188 469 1152T323 1049T226 885T190 668ZM1124 688Q1124 787 1096 866T1022 1006L510 205Q541
196 572 192T637 188Q730 188 817 220T973 316T1083 473T1124 688Z" />
<glyph unicode="&#xd9;" glyph-name="Ugrave" horiz-adv-x="1270" d="M1288 1362L1085 1198Q1087 1156 1088 1113T1090 1036Q1090 901 1089 772T1075 526T1038 311T964 141T842 29T659 -12Q549 -12 471 41T340 184T254 393T202 647T175 921T160 1192L-41 1311L659
1384L440 1221Q438 1190 438 1160T438 1098Q438 1028 438 948T441 785T450 618T467 457T497 314T542 199T605 122T690 94Q754 94 807 128T898 234T957 421T979 696Q979 892 966 1014T940 1196L737 1292L1288 1362ZM332 1723L572 1797L717 1426L332 1723Z" />
<glyph unicode="&#xda;" glyph-name="Uacute" horiz-adv-x="1270" d="M1288 1362L1085 1198Q1087 1156 1088 1113T1090 1036Q1090 901 1089 772T1075 526T1038 311T964 141T842 29T659 -12Q549 -12 471 41T340 184T254 393T202 647T175 921T160 1192L-41 1311L659
1384L440 1221Q438 1190 438 1160T438 1098Q438 1028 438 948T441 785T450 618T467 457T497 314T542 199T605 122T690 94Q754 94 807 128T898 234T957 421T979 696Q979 892 966 1014T940 1196L737 1292L1288 1362ZM713 1391L860 1762L1082 1704L713 1391Z" />
<glyph unicode="&#xdb;" glyph-name="Ucircumflex" horiz-adv-x="1270" d="M1288 1362L1085 1198Q1087 1156 1088 1113T1090 1036Q1090 901 1089 772T1075 526T1038 311T964 141T842 29T659 -12Q549 -12 471 41T340 184T254 393T202 647T175 921T160 1192L-41
1311L659 1384L440 1221Q438 1190 438 1160T438 1098Q438 1028 438 948T441 785T450 618T467 457T497 314T542 199T605 122T690 94Q754 94 807 128T898 234T957 421T979 696Q979 892 966 1014T940 1196L737 1292L1288 1362ZM899 1448L678 1583L454 1450L675 1771L899
1448Z" />
<glyph unicode="&#xdc;" glyph-name="Udieresis" horiz-adv-x="1270" d="M1288 1362L1085 1198Q1087 1156 1088 1113T1090 1036Q1090 901 1089 772T1075 526T1038 311T964 141T842 29T659 -12Q549 -12 471 41T340 184T254 393T202 647T175 921T160 1192L-41 1311L659
1384L440 1221Q438 1190 438 1160T438 1098Q438 1028 438 948T441 785T450 618T467 457T497 314T542 199T605 122T690 94Q754 94 807 128T898 234T957 421T979 696Q979 892 966 1014T940 1196L737 1292L1288 1362ZM962 1540Q962 1517 954 1497T930 1461T895 1436T850
1427Q827 1427 807 1436T772 1461T748 1497T739 1540Q739 1563 748 1583T772 1619T807 1643T850 1652Q874 1652 894 1643T930 1619T953 1584T962 1540ZM655 1534Q655 1511 647 1492T624 1458T590 1436T547 1427Q524 1427 505 1435T470 1458T447 1491T438 1534Q438
1557 446 1576T470 1610T504 1633T547 1642Q593 1642 624 1611T655 1534Z" />
<glyph unicode="&#xdd;" glyph-name="Yacute" horiz-adv-x="1274" d="M1395 1280L1141 1161L711 535L735 172L934 27L254 -18L479 131L555 539L164 1153L-78 1239L608 1403L420 1233L645 651L913 1217L748 1389L1395 1280ZM657 1387L804 1758L1026 1700L657 1387Z" />
<glyph unicode="&#xde;" glyph-name="Thorn" horiz-adv-x="1229" d="M678 1425L461 1292V1233Q556 1231 648 1222T824 1191T979 1136T1103 1048T1184 922T1214 752Q1214 659 1185 587T1105 460T986 368T842 308T686 274T530 264H461V139L713 14H-31L217 162L287
1192L-6 1378L678 1425ZM500 1100Q492 1100 482 1100T461 1098V365Q578 365 659 388T794 446T878 525T924 608T942 681T946 729Q946 749 943 784T925 861T883 944T805 1021T681 1078T500 1100Z" />
<glyph unicode="&#xdf;" glyph-name="germandbls" horiz-adv-x="1335" d="M879 1143Q879 1093 866 1052T833 977T790 915T747 860T714 808T700 756Q700 708 726 678T796 628T894 593T1007 562T1120 525T1219 469T1288 385T1315 260Q1315 177 1283 119T1199 23T1086
-32T965 -49Q917 -49 869 -39T776 -11T690 32T616 86L465 -117L512 379Q544 311 589 252T689 150T807 82T938 57Q1016 57 1064 90T1112 186Q1112 226 1086 252T1016 299T917 335T804 370T691 414T593 478T523 572T496 707Q496 740 508 775T539 847T580 919T620
992T651 1062T664 1128Q664 1172 656 1202T634 1252T605 1283T575 1298T551 1304T539 1305Q480 1302 445 1261T391 1149T364 982T354 774Q354 725 354 666T352 544T350 417T348 294Q345 155 342 10L33 12L213 135Q190 350 177 521T158 805L14 762L152 981Q159 1075
187 1154T264 1292T379 1382T532 1415Q596 1415 658 1399T769 1350T848 1266T879 1143Z" />
<glyph unicode="&#xe0;" glyph-name="agrave" horiz-adv-x="1047" d="M930 623Q930 570 924 509T907 385T880 262T846 150L1059 0L682 16L705 139Q645 64 567 25T385 -23Q301 -29 239 -12T135 42T73 132T53 252Q53 313 83 370T169 472T308 542T494 569Q542 569
604 560T723 522Q718 583 705 646T665 762T598 846T494 879Q441 879 391 857T298 794T219 694T160 561L76 1051L203 856Q250 914 298 948T393 1001T485 1026T571 1032Q648 1028 713 1001T827 922T902 795T930 623ZM723 303Q725 331 726 357T727 408V420Q691 434
655 441T587 452T535 456T506 457Q449 455 407 436T338 389T297 325T283 256Q283 179 320 140T430 100Q478 100 521 117T601 162T669 227T723 303ZM182 1371L422 1445L567 1074L182 1371Z" />
<glyph unicode="&#xe1;" glyph-name="aacute" horiz-adv-x="1047" d="M930 623Q930 570 924 509T907 385T880 262T846 150L1059 0L682 16L705 139Q645 64 567 25T385 -23Q301 -29 239 -12T135 42T73 132T53 252Q53 313 83 370T169 472T308 542T494 569Q542 569
604 560T723 522Q718 583 705 646T665 762T598 846T494 879Q441 879 391 857T298 794T219 694T160 561L76 1051L203 856Q250 914 298 948T393 1001T485 1026T571 1032Q648 1028 713 1001T827 922T902 795T930 623ZM723 303Q725 331 726 357T727 408V420Q691 434
655 441T587 452T535 456T506 457Q449 455 407 436T338 389T297 325T283 256Q283 179 320 140T430 100Q478 100 521 117T601 162T669 227T723 303ZM479 1080L626 1451L848 1393L479 1080Z" />
<glyph unicode="&#xe2;" glyph-name="acircumflex" horiz-adv-x="1047" d="M930 623Q930 570 924 509T907 385T880 262T846 150L1059 0L682 16L705 139Q645 64 567 25T385 -23Q301 -29 239 -12T135 42T73 132T53 252Q53 313 83 370T169 472T308 542T494 569Q542
569 604 560T723 522Q718 583 705 646T665 762T598 846T494 879Q441 879 391 857T298 794T219 694T160 561L76 1051L203 856Q250 914 298 948T393 1001T485 1026T571 1032Q648 1028 713 1001T827 922T902 795T930 623ZM723 303Q725 331 726 357T727 408V420Q691
434 655 441T587 452T535 456T506 457Q449 455 407 436T338 389T297 325T283 256Q283 179 320 140T430 100Q478 100 521 117T601 162T669 227T723 303ZM762 1072L541 1207L317 1074L538 1395L762 1072Z" />
<glyph unicode="&#xe3;" glyph-name="atilde" horiz-adv-x="1047" d="M930 623Q930 570 924 509T907 385T880 262T846 150L1059 0L682 16L705 139Q645 64 567 25T385 -23Q301 -29 239 -12T135 42T73 132T53 252Q53 313 83 370T169 472T308 542T494 569Q542 569
604 560T723 522Q718 583 705 646T665 762T598 846T494 879Q441 879 391 857T298 794T219 694T160 561L76 1051L203 856Q250 914 298 948T393 1001T485 1026T571 1032Q648 1028 713 1001T827 922T902 795T930 623ZM723 303Q725 331 726 357T727 408V420Q691 434
655 441T587 452T535 456T506 457Q449 455 407 436T338 389T297 325T283 256Q283 179 320 140T430 100Q478 100 521 117T601 162T669 227T723 303ZM809 1302Q803 1246 784 1206T739 1141T688 1105T641 1093Q616 1093 588 1106T530 1136T471 1165T418 1177Q387 1175
365 1162T327 1134Q309 1116 297 1095L252 1123Q269 1178 292 1215T342 1275T393 1308T438 1318Q462 1318 491 1306T548 1279T601 1252T641 1240Q674 1240 697 1252T735 1280Q753 1298 764 1320L809 1302Z" />
<glyph unicode="&#xe4;" glyph-name="adieresis" horiz-adv-x="1047" d="M930 623Q930 570 924 509T907 385T880 262T846 150L1059 0L682 16L705 139Q645 64 567 25T385 -23Q301 -29 239 -12T135 42T73 132T53 252Q53 313 83 370T169 472T308 542T494 569Q542
569 604 560T723 522Q718 583 705 646T665 762T598 846T494 879Q441 879 391 857T298 794T219 694T160 561L76 1051L203 856Q250 914 298 948T393 1001T485 1026T571 1032Q648 1028 713 1001T827 922T902 795T930 623ZM723 303Q725 331 726 357T727 408V420Q691
434 655 441T587 452T535 456T506 457Q449 455 407 436T338 389T297 325T283 256Q283 179 320 140T430 100Q478 100 521 117T601 162T669 227T723 303ZM807 1199Q807 1176 799 1156T775 1120T740 1095T695 1086Q672 1086 652 1095T617 1120T593 1156T584 1199Q584
1222 593 1242T617 1278T652 1302T695 1311Q719 1311 739 1302T775 1278T798 1243T807 1199ZM500 1193Q500 1170 492 1151T469 1117T435 1095T392 1086Q369 1086 350 1094T315 1117T292 1150T283 1193Q283 1216 291 1235T315 1269T349 1292T392 1301Q438 1301 469
1270T500 1193Z" />
<glyph unicode="&#xe5;" glyph-name="aring" horiz-adv-x="1047" d="M930 623Q930 570 924 509T907 385T880 262T846 150L1059 0L682 16L705 139Q645 64 567 25T385 -23Q301 -29 239 -12T135 42T73 132T53 252Q53 313 83 370T169 472T308 542T494 569Q542 569
604 560T723 522Q718 583 705 646T665 762T598 846T494 879Q441 879 391 857T298 794T219 694T160 561L76 1051L203 856Q250 914 298 948T393 1001T485 1026T571 1032Q648 1028 713 1001T827 922T902 795T930 623ZM723 303Q725 331 726 357T727 408V420Q691 434
655 441T587 452T535 456T506 457Q449 455 407 436T338 389T297 325T283 256Q283 179 320 140T430 100Q478 100 521 117T601 162T669 227T723 303ZM695 1294Q695 1257 680 1226T640 1173T583 1137T514 1124Q478 1124 445 1137T387 1172T347 1226T332 1294Q332 1331
347 1362T387 1417T445 1453T514 1466Q550 1466 582 1453T640 1417T680 1363T695 1294ZM580 1294Q580 1314 575 1333T562 1368T541 1393T514 1403Q499 1403 487 1394T466 1369T452 1334T447 1294Q447 1275 452 1256T466 1222T487 1198T514 1188Q526 1188 537 1197T558
1222T574 1256T580 1294Z" />
<glyph unicode="&#xe6;" glyph-name="ae" horiz-adv-x="1657" d="M963 367Q976 311 998 258T1051 162T1125 94T1221 68Q1291 68 1343 97T1428 170T1474 268T1479 371Q1507 360 1525 342T1554 303T1569 259T1573 215Q1573 167 1545 123T1467 44T1347 -12T1196 -33Q1124
-33 1062 -14T947 39T855 122T786 229Q753 179 709 136T612 58T502 3T385 -23Q301 -29 239 -12T135 42T73 132T53 252Q53 313 83 370T169 472T308 542T494 569Q542 569 604 560T723 522Q718 583 705 646T665 762T598 846T494 879Q441 879 391 857T298 794T219 694T160
561L76 1051L203 856Q250 914 298 948T393 1001T485 1026T571 1032Q661 1027 734 990T856 885Q918 953 1009 988T1219 1016Q1301 1010 1370 969T1490 864T1573 716T1612 543L963 367ZM750 315Q727 366 727 408V420Q691 434 655 441T587 452T535 456T506 457Q449
455 407 436T338 389T297 325T283 256Q283 179 320 140T430 100Q474 100 519 119T606 169T685 238T750 315ZM944 528Q944 516 944 503T946 475L1378 657Q1357 723 1330 770T1274 847T1216 891T1159 905Q1117 905 1085 889T1030 846T990 781T963 702T949 616T944
528Z" />
<glyph unicode="&#xe7;" glyph-name="ccedilla" horiz-adv-x="987" d="M375 -240Q387 -255 409 -271T457 -287Q483 -287 500 -268T518 -221Q518 -206 509 -198T486 -184T456 -178T428 -176Q409 -176 403 -176T387 -180L471 -57Q434 -52 389 -39T297 -2T208 61T130
154T76 286T55 461Q55 567 79 648T144 790T236 890T340 954T443 988T532 999Q616 999 684 963T795 864L997 1069L831 528Q822 612 803 670T760 767T709 827T660 858T621 870T600 872Q528 872 470 844T371 762T307 630T285 451Q285 355 308 282T369 158T456 83T557
57Q618 57 670 84T759 157T814 260T827 381Q839 370 852 354T877 319T896 277T903 231Q903 163 871 109T787 16T672 -42T545 -63H535L508 -125Q523 -125 541 -132T575 -153T603 -190T614 -244Q614 -309 576 -341T477 -373Q459 -373 439 -366T401 -347T368 -318T346
-283L375 -240Z" />
<glyph unicode="&#xe8;" glyph-name="egrave" horiz-adv-x="983" d="M289 367Q302 311 324 258T378 162T452 94T547 68Q617 68 669 97T754 170T800 268T805 371Q833 360 851 342T880 303T895 259T899 215Q899 167 871 123T793 44T673 -12T522 -33Q412 -33 326
10T179 126T87 299T55 510Q55 624 87 720T181 885T335 988T545 1016Q627 1010 696 969T816 864T899 716T938 543L289 367ZM270 528Q270 514 270 501T272 473L711 633Q689 705 662 756T604 841T544 889T485 905Q443 905 411 889T356 846T316 781T289 702T275 616T270
528ZM94 1613L334 1687L479 1316L94 1613Z" />
<glyph unicode="&#xe9;" glyph-name="eacute" horiz-adv-x="983" d="M289 367Q302 311 324 258T378 162T452 94T547 68Q617 68 669 97T754 170T800 268T805 371Q833 360 851 342T880 303T895 259T899 215Q899 167 871 123T793 44T673 -12T522 -33Q412 -33 326
10T179 126T87 299T55 510Q55 624 87 720T181 885T335 988T545 1016Q627 1010 696 969T816 864T899 716T938 543L289 367ZM270 528Q270 514 270 501T272 473L711 633Q689 705 662 756T604 841T544 889T485 905Q443 905 411 889T356 846T316 781T289 702T275 616T270
528ZM393 1060L540 1431L762 1373L393 1060Z" />
<glyph unicode="&#xea;" glyph-name="ecircumflex" horiz-adv-x="983" d="M289 367Q302 311 324 258T378 162T452 94T547 68Q617 68 669 97T754 170T800 268T805 371Q833 360 851 342T880 303T895 259T899 215Q899 167 871 123T793 44T673 -12T522 -33Q412 -33
326 10T179 126T87 299T55 510Q55 624 87 720T181 885T335 988T545 1016Q627 1010 696 969T816 864T899 716T938 543L289 367ZM270 528Q270 514 270 501T272 473L711 633Q689 705 662 756T604 841T544 889T485 905Q443 905 411 889T356 846T316 781T289 702T275
616T270 528ZM684 1036L463 1171L239 1038L460 1359L684 1036Z" />
<glyph unicode="&#xeb;" glyph-name="edieresis" horiz-adv-x="983" d="M289 367Q302 311 324 258T378 162T452 94T547 68Q617 68 669 97T754 170T800 268T805 371Q833 360 851 342T880 303T895 259T899 215Q899 167 871 123T793 44T673 -12T522 -33Q412 -33 326
10T179 126T87 299T55 510Q55 624 87 720T181 885T335 988T545 1016Q627 1010 696 969T816 864T899 716T938 543L289 367ZM270 528Q270 514 270 501T272 473L711 633Q689 705 662 756T604 841T544 889T485 905Q443 905 411 889T356 846T316 781T289 702T275 616T270
528ZM719 1191Q719 1168 711 1148T687 1112T652 1087T607 1078Q584 1078 564 1087T529 1112T505 1148T496 1191Q496 1214 505 1234T529 1270T564 1294T607 1303Q631 1303 651 1294T687 1270T710 1235T719 1191ZM412 1185Q412 1162 404 1143T381 1109T347 1087T304
1078Q281 1078 262 1086T227 1109T204 1142T195 1185Q195 1208 203 1227T227 1261T261 1284T304 1293Q350 1293 381 1262T412 1185Z" />
<glyph unicode="&#xec;" glyph-name="igrave" horiz-adv-x="512" d="M33 -10L190 113L156 803L-29 924L401 997L324 195L539 61L33 -10ZM138 1590L378 1664L523 1293L138 1590Z" />
<glyph unicode="&#xed;" glyph-name="iacute" horiz-adv-x="512" d="M33 -10L190 113L156 803L-29 924L401 997L324 195L539 61L33 -10ZM270 1048L417 1419L639 1361L270 1048Z" />
<glyph unicode="&#xee;" glyph-name="icircumflex" horiz-adv-x="539" d="M37 -10L194 113L160 803L-25 924L405 997L328 195L543 61L37 -10ZM739 1302L518 1437L294 1304L515 1625L739 1302Z" />
<glyph unicode="&#xef;" glyph-name="idieresis" horiz-adv-x="512" d="M33 -10L190 113L156 803L-29 924L401 997L324 195L539 61L33 -10ZM773 1441Q773 1418 765 1398T741 1362T706 1337T661 1328Q638 1328 618 1337T583 1362T559 1398T550 1441Q550 1464 559
1484T583 1520T618 1544T661 1553Q685 1553 705 1544T741 1520T764 1485T773 1441ZM466 1435Q466 1412 458 1393T435 1359T401 1337T358 1328Q335 1328 316 1336T281 1359T258 1392T249 1435Q249 1458 257 1477T281 1511T315 1534T358 1543Q404 1543 435 1512T466
1435Z" />
<glyph unicode="&#xf0;" glyph-name="eth" horiz-adv-x="1073" d="M715 1298Q767 1240 819 1162T914 986T982 767T1008 502Q1008 375 968 277T861 110T704 7T518 -29Q416 -29 329 9T178 116T82 285T57 508Q64 623 101 718T200 881T345 986T530 1024Q611 1024 680
999Q657 1062 632 1114T580 1208L369 1069L338 1221L506 1313Q486 1337 470 1355T442 1384Q428 1397 416 1407L487 1491Q505 1480 528 1464Q548 1450 574 1430T631 1382L784 1466L854 1393L715 1298ZM762 485Q762 575 737 646T669 766T574 842T463 868Q399 868
345 837T252 752T190 626T168 471Q168 388 190 320T251 204T342 129T457 102Q517 102 572 129T670 205T737 326T762 485Z" />
<glyph unicode="&#xf1;" glyph-name="ntilde" horiz-adv-x="1083" d="M973 621Q973 565 968 503T953 379T929 258T895 150L1092 86L571 -16L748 117Q769 194 776 265T784 399Q784 437 782 485T771 584T747 682T706 767T645 827T557 850Q498 850 437 811T324 696V143L489
25L-6 -10L125 135L195 862L-18 967L324 1001V850Q353 890 388 925T462 985T543 1025T631 1040Q718 1040 782 1008T888 920T952 787T973 621ZM826 1337Q820 1281 801 1241T756 1176T705 1140T658 1128Q633 1128 605 1141T547 1171T488 1200T435 1212Q404 1210 382
1197T344 1169Q326 1151 314 1130L269 1158Q286 1213 309 1250T359 1310T410 1343T455 1353Q479 1353 508 1341T565 1314T618 1287T658 1275Q691 1275 714 1287T752 1315Q770 1333 781 1355L826 1337Z" />
<glyph unicode="&#xf2;" glyph-name="ograve" horiz-adv-x="1065" d="M55 502Q55 614 90 709T189 875T340 984T532 1024Q633 1024 717 987T863 881T962 718T1006 508Q1013 385 981 286T885 117T735 9T545 -29Q447 -29 359 6T203 110T95 276T55 502ZM301 485Q301
397 326 326T393 206T490 129T606 102Q667 102 720 128T812 203T873 320T895 471Q895 553 873 625T812 752T718 837T600 868Q543 868 490 842T394 767T327 646T301 485ZM168 1388L408 1462L553 1091L168 1388Z" />
<glyph unicode="&#xf3;" glyph-name="oacute" horiz-adv-x="1065" d="M55 502Q55 614 90 709T189 875T340 984T532 1024Q633 1024 717 987T863 881T962 718T1006 508Q1013 385 981 286T885 117T735 9T545 -29Q447 -29 359 6T203 110T95 276T55 502ZM301 485Q301
397 326 326T393 206T490 129T606 102Q667 102 720 128T812 203T873 320T895 471Q895 553 873 625T812 752T718 837T600 868Q543 868 490 842T394 767T327 646T301 485ZM487 1087L634 1458L856 1400L487 1087Z" />
<glyph unicode="&#xf4;" glyph-name="ocircumflex" horiz-adv-x="1065" d="M55 502Q55 614 90 709T189 875T340 984T532 1024Q633 1024 717 987T863 881T962 718T1006 508Q1013 385 981 286T885 117T735 9T545 -29Q447 -29 359 6T203 110T95 276T55 502ZM301 485Q301
397 326 326T393 206T490 129T606 102Q667 102 720 128T812 203T873 320T895 471Q895 553 873 625T812 752T718 837T600 868Q543 868 490 842T394 767T327 646T301 485ZM766 1079L545 1214L321 1081L542 1402L766 1079Z" />
<glyph unicode="&#xf5;" glyph-name="otilde" horiz-adv-x="1065" d="M55 502Q55 614 90 709T189 875T340 984T532 1024Q633 1024 717 987T863 881T962 718T1006 508Q1013 385 981 286T885 117T735 9T545 -29Q447 -29 359 6T203 110T95 276T55 502ZM301 485Q301
397 326 326T393 206T490 129T606 102Q667 102 720 128T812 203T873 320T895 471Q895 553 873 625T812 752T718 837T600 868Q543 868 490 842T394 767T327 646T301 485ZM815 1302Q809 1246 790 1206T745 1141T694 1105T647 1093Q622 1093 594 1106T536 1136T477
1165T424 1177Q393 1175 371 1162T333 1134Q315 1116 303 1095L258 1123Q275 1178 298 1215T348 1275T399 1308T444 1318Q468 1318 497 1306T554 1279T607 1252T647 1240Q680 1240 703 1252T741 1280Q759 1298 770 1320L815 1302Z" />
<glyph unicode="&#xf6;" glyph-name="odieresis" horiz-adv-x="1065" d="M55 502Q55 614 90 709T189 875T340 984T532 1024Q633 1024 717 987T863 881T962 718T1006 508Q1013 385 981 286T885 117T735 9T545 -29Q447 -29 359 6T203 110T95 276T55 502ZM301 485Q301
397 326 326T393 206T490 129T606 102Q667 102 720 128T812 203T873 320T895 471Q895 553 873 625T812 752T718 837T600 868Q543 868 490 842T394 767T327 646T301 485ZM807 1199Q807 1176 799 1156T775 1120T740 1095T695 1086Q672 1086 652 1095T617 1120T593
1156T584 1199Q584 1222 593 1242T617 1278T652 1302T695 1311Q719 1311 739 1302T775 1278T798 1243T807 1199ZM500 1193Q500 1170 492 1151T469 1117T435 1095T392 1086Q369 1086 350 1094T315 1117T292 1150T283 1193Q283 1216 291 1235T315 1269T349 1292T392
1301Q438 1301 469 1270T500 1193Z" />
<glyph unicode="&#xf7;" glyph-name="divide" horiz-adv-x="815" d="M66 616L76 766L733 821V573L66 616ZM528 414Q528 388 515 370T483 340T443 323T406 317Q389 317 369 322T329 339T298 369T285 414Q285 441 297 460T329 492T368 510T406 516Q422 516 443 511T483
493T515 461T528 414ZM528 967Q528 941 515 923T483 893T443 876T406 870Q389 870 369 875T329 892T298 922T285 967Q285 994 297 1013T329 1045T368 1063T406 1069Q422 1069 443 1064T483 1046T515 1014T528 967Z" />
<glyph unicode="&#xf8;" glyph-name="oslash" horiz-adv-x="1065" d="M850 897Q922 826 964 725T1006 502Q1006 375 966 277T859 110T702 7T516 -29Q454 -29 397 -15T291 25L190 -133L117 -92L209 84Q130 153 88 261T55 508Q62 623 99 718T198 881T343 986T528
1024Q570 1024 609 1017T686 997L750 1120L961 1071L850 897ZM166 471Q166 380 191 308T262 186L596 827Q534 868 461 868Q397 868 343 837T250 752T188 626T166 471ZM760 485Q760 544 749 595T717 688L354 123Q400 102 455 102Q515 102 570 129T668 205T735 326T760
485Z" />
<glyph unicode="&#xf9;" glyph-name="ugrave" horiz-adv-x="1094" d="M922 973L961 113L1141 29L731 -47L750 246Q722 187 686 134T605 40T507 -25T391 -49Q317 -49 261 -23T167 48T110 155T90 287Q90 352 100 422T127 560T169 693T223 813L12 862L408 997Q370
896 350 804T319 639Q308 555 305 483Q305 390 318 323T354 211T409 145T479 123Q537 123 583 154T664 237T725 360T767 508T792 667T801 823L584 973H922ZM158 1339L398 1413L543 1042L158 1339Z" />
<glyph unicode="&#xfa;" glyph-name="uacute" horiz-adv-x="1094" d="M922 973L961 113L1141 29L731 -47L750 246Q722 187 686 134T605 40T507 -25T391 -49Q317 -49 261 -23T167 48T110 155T90 287Q90 352 100 422T127 560T169 693T223 813L12 862L408 997Q370
896 350 804T319 639Q308 555 305 483Q305 390 318 323T354 211T409 145T479 123Q537 123 583 154T664 237T725 360T767 508T792 667T801 823L584 973H922ZM528 1023L675 1394L897 1336L528 1023Z" />
<glyph unicode="&#xfb;" glyph-name="ucircumflex" horiz-adv-x="1094" d="M922 973L961 113L1141 29L731 -47L750 246Q722 187 686 134T605 40T507 -25T391 -49Q317 -49 261 -23T167 48T110 155T90 287Q90 352 100 422T127 560T169 693T223 813L12 862L408 997Q370
896 350 804T319 639Q308 555 305 483Q305 390 318 323T354 211T409 145T479 123Q537 123 583 154T664 237T725 360T767 508T792 667T801 823L584 973H922ZM774 1079L553 1214L329 1081L550 1402L774 1079Z" />
<glyph unicode="&#xfc;" glyph-name="udieresis" horiz-adv-x="1094" d="M922 973L961 113L1141 29L731 -47L750 246Q722 187 686 134T605 40T507 -25T391 -49Q317 -49 261 -23T167 48T110 155T90 287Q90 352 100 422T127 560T169 693T223 813L12 862L408 997Q370
896 350 804T319 639Q308 555 305 483Q305 390 318 323T354 211T409 145T479 123Q537 123 583 154T664 237T725 360T767 508T792 667T801 823L584 973H922ZM803 1167Q803 1144 795 1124T771 1088T736 1063T691 1054Q668 1054 648 1063T613 1088T589 1124T580 1167Q580
1190 589 1210T613 1246T648 1270T691 1279Q715 1279 735 1270T771 1246T794 1211T803 1167ZM496 1161Q496 1138 488 1119T465 1085T431 1063T388 1054Q365 1054 346 1062T311 1085T288 1118T279 1161Q279 1184 287 1203T311 1237T345 1260T388 1269Q434 1269 465
1238T496 1161Z" />
<glyph unicode="&#xfd;" glyph-name="yacute" horiz-adv-x="1047" d="M889 874Q899 792 904 696T908 499T895 297T860 102T798 -73T705 -213T575 -307T403 -342Q293 -342 168 -287L94 -434L-8 -41Q37 -100 84 -136T175 -191T255 -217T315 -223Q397 -223 461 -172T575
-29Q495 55 420 153T283 363T181 598T127 854L-37 942L426 1008L340 891Q366 690 440 496T633 102Q659 177 678 264T711 448T732 649T741 862L592 1008Q675 1002 738 997T849 989T928 983T982 979Q1031 975 1040 975L889 874ZM522 1042L669 1413L891 1355L522 1042Z"
/>
<glyph unicode="&#xfe;" glyph-name="thorn" horiz-adv-x="1034" d="M319 858Q342 888 370 914T432 961T504 992T588 1004Q666 1001 735 968T857 874T940 723T971 518Q971 378 938 273T848 99T715 -6T551 -41Q474 -41 408 -14T293 61L285 -168L487 -276L-4 -360L147
-209L104 1272L-76 1343L338 1413L319 858ZM557 877Q542 877 515 872T453 846T382 787T313 682L297 215Q331 162 378 127T485 92Q554 92 602 126T682 220T728 363T743 541Q743 611 731 672T696 779T638 851T557 877Z" />
<glyph unicode="&#xff;" glyph-name="ydieresis" horiz-adv-x="1047" d="M889 874Q899 792 904 696T908 499T895 297T860 102T798 -73T705 -213T575 -307T403 -342Q293 -342 168 -287L94 -434L-8 -41Q37 -100 84 -136T175 -191T255 -217T315 -223Q397 -223 461
-172T575 -29Q495 55 420 153T283 363T181 598T127 854L-37 942L426 1008L340 891Q366 690 440 496T633 102Q659 177 678 264T711 448T732 649T741 862L592 1008Q675 1002 738 997T849 989T928 983T982 979Q1031 975 1040 975L889 874ZM762 1185Q762 1162 754 1142T730
1106T695 1081T650 1072Q627 1072 607 1081T572 1106T548 1142T539 1185Q539 1208 548 1228T572 1264T607 1288T650 1297Q674 1297 694 1288T730 1264T753 1229T762 1185ZM455 1179Q455 1156 447 1137T424 1103T390 1081T347 1072Q324 1072 305 1080T270 1103T247
1136T238 1179Q238 1202 246 1221T270 1255T304 1278T347 1287Q393 1287 424 1256T455 1179Z" />
<glyph unicode="&#x2013;" glyph-name="endash" horiz-adv-x="1042" d="M111 616L121 766L932 821V573L111 616Z" />
<glyph unicode="&#x2014;" glyph-name="emdash" horiz-adv-x="1350" d="M111 616L121 766L1239 821V573L111 616Z" />
<glyph unicode="&#x2018;" glyph-name="quoteleft" horiz-adv-x="387" d="M78 1167Q78 1208 94 1239T137 1295T199 1335T272 1362Q264 1349 257 1339T244 1318T236 1294T233 1260Q248 1257 265 1250T298 1231T322 1204T332 1167Q332 1143 318 1126T284 1097T242
1080T201 1075Q183 1075 162 1080T122 1096T91 1125T78 1167Z" />
<glyph unicode="&#x2019;" glyph-name="quoteright" horiz-adv-x="373" d="M328 1270Q328 1229 312 1198T269 1142T207 1102T133 1075Q142 1088 149 1098T161 1119T169 1144T172 1178Q157 1181 140 1188T108 1206T84 1233T74 1270Q74 1294 88 1311T122 1340T164
1357T205 1362Q223 1362 244 1357T284 1341T315 1312T328 1270Z" />
<glyph unicode="&#x201a;" glyph-name="quotesinglbase" horiz-adv-x="414" d="M324 55Q324 14 308 -17T265 -73T203 -113T129 -139Q138 -126 145 -116T157 -95T165 -71T168 -37Q153 -34 136 -27T104 -9T80 18T70 55Q70 80 84 97T118 126T160 142T201 147Q219
147 240 142T280 126T311 98T324 55Z" />
<glyph unicode="&#x201c;" glyph-name="quotedblleft" horiz-adv-x="684" d="M375 1161Q375 1202 391 1233T434 1289T496 1329T569 1356Q561 1343 554 1333T541 1312T533 1287T530 1253Q545 1250 562 1243T595 1225T619 1198T629 1161Q629 1137 615 1120T581 1091T539
1074T498 1069Q480 1069 459 1074T419 1090T388 1119T375 1161ZM80 1161Q80 1202 95 1233T137 1289T199 1329T272 1356Q264 1343 258 1333T247 1312T239 1287T236 1253Q250 1250 267 1243T298 1225T322 1198T332 1161Q332 1137 318 1120T284 1091T242 1074T203
1069Q185 1069 164 1074T124 1090T93 1119T80 1161Z" />
<glyph unicode="&#x201d;" glyph-name="quotedblright" horiz-adv-x="668" d="M326 1264Q326 1223 310 1192T267 1136T205 1096T131 1069Q140 1082 147 1092T159 1113T167 1137T170 1171Q155 1174 138 1181T106 1200T82 1227T72 1264Q72 1288 86 1305T120 1334T162
1351T203 1356Q221 1356 242 1351T282 1335T313 1306T326 1264ZM621 1264Q621 1223 605 1192T563 1136T501 1096T428 1069Q436 1082 442 1092T454 1113T462 1137T465 1171Q450 1174 434 1181T403 1200T379 1227T369 1264Q369 1288 383 1305T417 1334T459 1351T498
1356Q516 1356 537 1351T577 1335T608 1306T621 1264Z" />
<glyph unicode="&#x201e;" glyph-name="quotedblbase" horiz-adv-x="709" d="M324 55Q324 14 308 -17T265 -73T203 -113T129 -139Q138 -126 145 -116T157 -95T165 -71T168 -37Q153 -34 136 -27T104 -9T80 18T70 55Q70 80 84 97T118 126T160 142T201 147Q219 147
240 142T280 126T311 98T324 55ZM618 55Q618 14 603 -17T561 -73T499 -113T426 -139Q433 -126 440 -116T452 -95T460 -71T463 -37Q448 -34 432 -27T401 -9T377 18T367 55Q367 80 381 97T415 126T457 142T496 147Q514 147 535 142T575 126T606 98T618 55Z" />
<glyph unicode="&#x2022;" glyph-name="bullet" horiz-adv-x="684" d="M539 698Q539 656 518 627T467 579T403 552T344 543Q317 543 284 551T220 578T170 626T150 698Q150 742 170 772T220 822T283 851T344 860Q369 860 402 851T466 823T518 773T539 698Z" />
<glyph unicode="&#x2039;" glyph-name="guilsinglleft" horiz-adv-x="672" d="M55 510L479 872L561 686L174 514L565 381L492 180L55 510Z" />
<glyph unicode="&#x203a;" glyph-name="guilsinglright" horiz-adv-x="670" d="M176 180L102 381L492 514L106 686L188 872L612 510L176 180Z" />
</font>
</defs>
</svg>
