<?xml version="1.0" standalone="no"?>
<!DOCTYPE svg PUBLIC "-//W3C//DTD SVG 1.1//EN" "http://www.w3.org/Graphics/SVG/1.1/DTD/svg11.dtd">
<svg xmlns="http://www.w3.org/2000/svg">
<defs >
<font id="Taviraj" horiz-adv-x="644" ><font-face
    font-family="Taviraj ExtraBold"
    units-per-em="1000"
    panose-1="0 0 9 0 0 0 0 0 0 0"
    ascent="1172"
    descent="-534"
    alphabetic="0" />
<glyph unicode=" " glyph-name="space" horiz-adv-x="253" />
<glyph unicode="!" glyph-name="exclam" horiz-adv-x="372" d="M180 612L181 629Q198 711 292 711Q371 711 371 653Q371 641 368 629Q366 621 365 618T364 612L223 188H146L180 612ZM114 -10T97 6T79 52Q79 66 81 74Q88 113 115 136T180 160Q212 160 229 144T247
97Q247 86 244 74Q236 36 209 13T145 -10Q114 -10 97 6Z" />
<glyph unicode="&quot;" glyph-name="quotedbl" horiz-adv-x="475" d="M132 623Q142 667 162 688T231 710Q269 710 284 697T300 657Q300 636 297 624L198 398H136L132 623ZM355 623Q364 668 384 689T454 710Q492 710 507 697T523 658Q523 640 519 624L420 398H359L355
623Z" />
<glyph unicode="#" glyph-name="numbersign" horiz-adv-x="847" d="M714 443L627 242H766L753 177H599L518 -9H393L474 177H280L199 -9H75L156 177H21L35 242H184L271 443H134L148 509H299L374 681H499L424 509H617L692 681H817L742 509H880L867 443H714ZM589
443H396L308 242H502L589 443Z" />
<glyph unicode="$" glyph-name="dollar" horiz-adv-x="640" d="M585 489L586 507Q586 578 545 610T442 642Q397 642 358 619T309 553Q307 541 307 536Q307 500 337 481T429 439Q488 418 524 399T586 345T612 254Q612 229 606 199Q585 98 508 48T315 -9L297 -97H239L257
-9Q197 -7 154 8T84 46Q80 50 74 50Q68 50 65 41L56 -5H-4L40 211H92Q87 131 134 95T250 58Q310 58 352 82T407 165Q409 172 409 186Q409 215 392 235T349 268T278 300Q222 322 188 341T130 393T106 475Q106 498 110 521Q129 613 206 660T404 710L418 780H475L460
708Q506 703 537 690T593 656Q598 651 603 651Q606 651 609 653T612 660L621 705H681L636 489H585Z" />
<glyph unicode="%" glyph-name="percent" horiz-adv-x="936" d="M99 -15L844 733L888 689L140 -58L99 -15ZM78 305T78 440Q78 456 84 498Q123 691 327 691Q499 691 499 555Q499 533 492 498Q453 305 249 305Q78 305 78 440ZM287 369T307 408T338 498Q346 532 346
564Q346 592 339 609T315 627Q289 627 269 588T238 498Q230 464 230 432Q230 404 238 387T262 369Q287 369 307 408ZM496 -11T496 125Q496 147 503 182Q542 375 747 375Q919 375 919 239Q919 217 912 182Q872 -11 668 -11Q496 -11 496 125ZM707 53T727 92T757 182Q765
216 765 250Q765 278 758 295T734 312Q709 312 689 272T658 182Q651 145 651 117Q651 88 658 71T682 53Q707 53 727 92Z" />
<glyph unicode="&amp;" glyph-name="ampersand" horiz-adv-x="747" d="M150 -9T86 31T22 143Q22 161 26 177Q42 252 95 301T234 393Q195 478 195 534Q195 551 197 558Q212 634 273 670T418 706Q494 706 531 683T569 608Q569 591 567 581Q556 532 513 495T409 424Q456
338 568 178Q640 257 663 340H731Q714 284 680 232T600 134Q664 44 698 0H486L456 37Q358 -9 257 -9Q150 -9 86 31ZM433 490T459 516T492 578Q494 594 494 599Q494 642 444 642Q419 642 399 627T372 577Q369 565 369 551Q369 515 390 467Q433 490 459 516ZM364
58T423 82Q335 203 276 311Q223 251 208 180Q204 158 204 149Q204 105 230 82T293 58Q364 58 423 82Z" />
<glyph unicode="&apos;" glyph-name="quotesingle" horiz-adv-x="252" d="M132 623Q142 667 162 688T231 710Q269 710 284 697T300 657Q300 636 297 624L198 398H135L132 623Z" />
<glyph unicode="(" glyph-name="parenleft" horiz-adv-x="316" d="M115 -72T81 13T47 195Q47 253 60 320Q87 450 165 571T373 775L399 751Q332 679 291 606T229 466T192 320Q180 259 174 215T167 123Q167 -6 224 -112L188 -135Q115 -72 81 13Z" />
<glyph unicode=")" glyph-name="parenright" horiz-adv-x="316" d="M-31 -112Q65 -9 108 94T178 320Q189 381 195 425T201 515Q201 643 145 751L180 775Q253 712 287 626T322 442Q322 385 309 320Q283 189 204 69T-5 -135L-31 -112Z" />
<glyph unicode="*" glyph-name="asterisk" horiz-adv-x="525" d="M260 272T249 283T238 315Q238 319 240 329Q244 347 260 370Q273 387 282 405T298 453Q276 443 261 430T224 396Q203 374 189 364T156 354Q140 354 129 365T118 394Q118 401 119 405Q125 437 160
455Q176 463 198 463Q221 465 238 469T283 489Q259 503 241 509T202 515Q181 515 167 529T152 564Q152 588 171 606T212 625Q234 625 242 617T261 588Q271 568 281 554T311 526Q316 551 316 573Q316 593 308 611Q307 613 305 619T303 634Q303 637 305 649Q311 676
328 691T368 707Q387 707 397 696T408 666Q408 648 403 636T386 608Q373 590 365 573T350 526Q377 540 393 555T426 589Q442 608 455 616T490 625Q505 625 517 613T529 583Q529 558 505 537T456 515Q432 515 412 510T363 489Q384 474 400 470T436 464Q461 462 472
455Q495 441 495 415Q495 408 494 405Q490 384 473 369T437 354Q415 354 405 365T385 398Q374 419 365 432T337 454Q331 426 331 402Q331 383 337 367Q342 355 342 345Q342 313 324 293T279 272Q260 272 249 283Z" />
<glyph unicode="+" glyph-name="plus" horiz-adv-x="592" d="M219 255H45L63 347H237L275 531H456L419 347H592L574 255H400L363 71H181L219 255Z" />
<glyph unicode="," glyph-name="comma" horiz-adv-x="265" d="M-29 -134Q8 -100 27 -76T54 -18Q55 -14 55 -6Q55 3 52 9T42 24Q34 34 30 43T25 65Q25 88 37 112T72 153T126 169Q161 169 179 149T198 92Q198 74 194 57Q181 -3 130 -55T5 -161L-29 -134Z" />
<glyph unicode="-" glyph-name="hyphen" horiz-adv-x="464" d="M76 334H445L424 230H55L76 334Z" />
<glyph unicode="." glyph-name="period" horiz-adv-x="265" d="M55 -10T36 10T16 62Q16 111 49 146T131 181Q166 181 185 161T205 108Q205 93 204 86Q195 45 164 18T91 -10Q55 -10 36 10Z" />
<glyph unicode="/" glyph-name="slash" horiz-adv-x="357" d="M370 695H443L47 0H-24L370 695Z" />
<glyph unicode="0" glyph-name="zero" horiz-adv-x="626" d="M44 -10T44 219Q44 280 59 350Q132 710 419 710Q646 710 646 480Q646 423 632 350Q597 179 509 85T272 -10Q44 -10 44 219ZM380 59T441 350Q464 467 464 532Q464 643 405 643Q309 643 250 350Q227 247
227 169Q227 59 286 59Q380 59 441 350Z" />
<glyph unicode="1" glyph-name="one" horiz-adv-x="626" d="M89 46H147Q201 46 208 85L308 576L175 521L192 606L530 735L397 85Q396 81 396 74Q396 46 441 46H498L490 0H81L89 46Z" />
<glyph unicode="2" glyph-name="two" horiz-adv-x="626" d="M2 71Q17 113 46 148T110 211T200 279Q228 299 231 301Q332 373 391 428T463 541Q467 558 467 575Q467 643 393 643Q342 643 316 616T277 527Q273 506 249 493T195 480Q166 480 146 493T125 532Q125
540 126 544Q135 589 175 627T278 687T418 710Q517 710 578 674T640 561Q640 550 636 520Q625 468 583 424T491 348T360 271L315 247Q251 215 216 190T174 135L173 129H441Q478 129 499 152T540 215H580L522 0H-12L2 71Z" />
<glyph unicode="3" glyph-name="three" horiz-adv-x="626" d="M181 -10T132 8T58 58T32 130Q32 143 35 156Q41 187 68 203T129 219Q158 219 176 207T191 173Q185 146 185 125Q185 91 202 75T260 59Q309 59 343 94T394 204Q397 222 397 241Q397 283 375 309T306
336H195L208 403H320Q381 403 417 445T465 542Q468 560 468 575Q468 643 395 643Q343 643 317 616T279 527Q275 506 251 493T197 480Q168 480 148 493T127 532Q127 540 128 544Q137 589 177 627T280 687T420 710Q518 710 579 674T641 561Q641 545 636 520Q626 471
582 430T481 375L480 371Q529 356 556 323T584 243Q584 224 580 207Q557 95 467 43T249 -10Q181 -10 132 8Z" />
<glyph unicode="4" glyph-name="four" horiz-adv-x="626" d="M184 46H242Q295 46 302 85L314 144H12L30 231L447 709H618L523 244H625L587 144H503L492 85Q491 81 491 74Q491 46 536 46H592L584 0H176L184 46ZM334 244L399 564L127 244H334Z" />
<glyph unicode="5" glyph-name="five" horiz-adv-x="626" d="M167 -10T120 9T55 55T36 107V119Q43 153 65 172T113 191Q132 191 144 181T158 152Q162 111 173 91T200 65T243 59Q290 59 328 100T382 223Q389 258 389 281Q389 326 370 353T311 381Q267 381 227 359T155
297L98 309L228 700H558Q571 700 581 709T602 736H647L604 579H260L198 397Q270 448 370 448Q480 448 528 404T576 285Q576 252 569 221Q547 111 465 51T247 -10Q167 -10 120 9Z" />
<glyph unicode="6" glyph-name="six" horiz-adv-x="626" d="M47 -10T47 199Q47 244 60 307Q85 434 139 524T270 662T441 710Q533 710 589 677T645 583Q645 570 642 555Q636 524 612 508T556 492Q527 492 514 501T500 530Q500 539 503 551Q506 566 506 578Q506
643 429 643Q369 643 330 575T267 403Q295 427 339 439T423 452Q512 452 558 409T604 292Q604 270 597 233Q574 121 492 56T272 -10Q47 -10 47 199ZM331 58T361 102T407 219Q415 261 415 290Q415 334 400 358T354 383Q317 383 285 340T238 224Q231 192 231 158Q231
113 246 86T290 58Q331 58 361 102Z" />
<glyph unicode="7" glyph-name="seven" horiz-adv-x="626" d="M173 -10T153 7T133 56Q133 69 135 76Q164 216 270 351T503 579H248Q215 579 190 545T155 477H105L150 700H692L679 633Q602 574 529 483T401 287T326 83Q318 40 291 15T204 -10Q173 -10 153 7Z" />
<glyph unicode="8" glyph-name="eight" horiz-adv-x="626" d="M616 491T582 454T491 392Q540 365 567 329T594 239Q594 212 589 191Q569 90 482 40T264 -10Q155 -10 92 25T29 134Q29 150 34 175Q57 287 182 352Q121 405 121 478Q121 495 126 520Q144 609 221 659T417
710Q515 710 573 675T631 576Q631 567 627 545Q616 491 582 454ZM522 550T522 564Q522 602 496 622T420 643Q367 643 333 621T290 558Q288 546 288 540Q288 513 305 494T347 461T420 426Q465 449 489 479T520 542Q522 550 522 564ZM420 164T420 173Q420 204 393
225T303 278L248 307Q203 276 178 231T153 145Q153 102 182 81T259 59Q316 59 362 85T419 160Q420 164 420 173Z" />
<glyph unicode="9" glyph-name="nine" horiz-adv-x="626" d="M154 -10T98 22T42 116Q42 129 45 144Q51 176 74 192T130 208Q159 208 173 199T187 167Q187 155 185 148Q182 133 182 120Q182 57 259 57Q320 57 359 125T421 297Q393 272 349 260T264 247Q175 247
130 290T84 408Q84 430 91 467Q114 579 196 644T416 710Q529 710 584 656T640 499Q640 453 629 392Q603 265 548 175T416 37T246 -10Q154 -10 98 22ZM371 316T402 359T448 475Q456 513 456 544Q456 589 442 615T398 642Q357 642 327 598T281 480Q273 437 273 407Q273
364 288 340T333 316Q371 316 402 359Z" />
<glyph unicode=":" glyph-name="colon" horiz-adv-x="265" d="M120 305T101 325T81 377Q81 427 113 462T195 497Q230 497 250 477T270 423Q270 409 268 401Q259 360 228 333T156 305Q120 305 101 325ZM55 -10T36 10T16 62Q16 111 49 146T131 181Q166 181 185 161T205
108Q205 93 204 86Q195 45 164 18T91 -10Q55 -10 36 10Z" />
<glyph unicode=";" glyph-name="semicolon" horiz-adv-x="265" d="M120 305T101 325T81 377Q81 427 113 462T195 497Q230 497 250 477T270 423Q270 409 268 401Q259 360 228 333T156 305Q120 305 101 325ZM-29 -134Q8 -100 27 -76T54 -18Q55 -14 55 -6Q55 3 52
9T42 24Q34 34 30 43T25 65Q25 88 37 112T72 153T126 169Q161 169 179 149T198 92Q198 74 194 57Q181 -3 130 -55T5 -161L-29 -134Z" />
<glyph unicode="&lt;" glyph-name="less" horiz-adv-x="592" d="M68 306L78 355L615 598L594 496L236 330L527 165L506 62L68 306Z" />
<glyph unicode="=" glyph-name="equal" horiz-adv-x="592" d="M95 422H591L572 329H76L95 422ZM55 224H551L532 131H36L55 224Z" />
<glyph unicode="&gt;" glyph-name="greater" horiz-adv-x="592" d="M50 165L408 330L117 496L138 598L576 355L566 306L29 62L50 165Z" />
<glyph unicode="?" glyph-name="question" horiz-adv-x="510" d="M188 223T194 249Q207 309 235 346T311 429Q347 462 366 486T392 542Q396 562 396 582Q396 614 380 628T330 643Q285 643 262 616T227 527Q222 505 201 493T152 480Q125 480 107 492T89 529Q89
534 91 544Q100 590 134 627T225 687T359 710Q564 710 564 576Q564 554 560 533Q551 491 529 461T480 412T410 369Q370 347 346 330T301 286T274 224Q270 202 270 183H187Q188 223 194 249ZM157 -10T140 6T122 52Q122 62 125 74Q133 113 160 136T224 160Q255 160
272 143T290 97Q290 86 287 74Q279 36 252 13T188 -10Q157 -10 140 6Z" />
<glyph unicode="@" glyph-name="at" horiz-adv-x="808" d="M245 -57T177 -21T75 78T42 217Q42 257 51 297Q70 392 132 477T292 616T513 669Q598 669 664 637T767 547T804 411Q804 380 796 342Q783 281 751 229T672 146T573 114Q545 114 522 133T500 185Q468 145
427 130T344 114Q279 114 242 143T205 230Q205 247 210 272Q221 325 254 377T343 463T472 497Q573 497 633 452L562 223Q559 214 559 207Q559 191 570 184T595 176Q620 176 647 198T696 259T728 344Q733 369 733 401Q733 462 705 508T626 581T504 607Q406 607 328
565T201 454T135 306Q127 261 127 224Q127 127 186 68T379 8Q422 8 487 20T610 61L595 -11Q535 -33 468 -45T347 -57Q245 -57 177 -21ZM398 179T418 200T451 259L500 413Q487 423 460 423Q422 423 389 376T345 271Q339 239 339 226Q339 179 376 179Q398 179 418
200Z" />
<glyph unicode="A" glyph-name="A" horiz-adv-x="784" d="M751 46L742 0H406L415 46H437Q479 46 479 82L478 92L466 177H223L177 96Q169 83 169 71Q169 58 178 52T202 46H224L215 0H-35L-26 46H-10Q11 46 32 55T63 84L413 677L564 726L686 81Q692 46 729 46H751ZM456
243L416 517L260 243H456Z" />
<glyph unicode="B" glyph-name="B" horiz-adv-x="666" d="M-19 46H12Q64 46 73 85L180 614Q181 618 181 625Q181 654 136 654H106L114 700H470Q583 700 633 670T684 578Q684 560 679 535Q666 476 623 431T514 370Q587 356 619 318T651 229Q651 216 647 194Q628
102 561 51T366 0H-28L-19 46ZM373 399Q417 399 445 432T487 524Q492 547 492 563Q492 634 415 634H373L325 399H373ZM325 65Q377 65 412 101T461 204Q466 229 466 246Q466 290 441 312T369 335H313L257 65H325Z" />
<glyph unicode="C" glyph-name="C" horiz-adv-x="704" d="M197 -10T125 58T52 247Q52 293 63 350Q97 515 206 612T486 710Q605 710 678 653Q681 650 686 650Q693 650 696 659L705 705H764L720 488H668L669 505Q669 577 625 609T516 642Q424 642 354 565T255 350Q242
280 242 233Q242 148 277 103T380 58Q529 58 608 175H669Q635 95 549 43T343 -10Q197 -10 125 58Z" />
<glyph unicode="D" glyph-name="D" horiz-adv-x="748" d="M-20 46H11Q63 46 72 85L180 614V625Q180 654 135 654H105L113 700H464Q612 700 683 642T754 464Q754 411 741 350Q705 171 604 86T321 0H-29L-20 46ZM332 65Q408 65 464 137T549 350Q564 424 564 478Q564
556 535 595T449 635H372L256 65H332Z" />
<glyph unicode="E" glyph-name="E" horiz-adv-x="655" d="M624 499Q626 515 626 532Q626 634 542 634H372L323 394H444Q473 394 487 417T515 482H550L501 241H466Q468 265 468 278Q468 302 460 315T430 329H309L255 65H454Q502 65 531 100T583 200H628L566 0H-29L-20
46H11Q38 46 52 55T71 85L179 614Q180 618 180 625Q180 654 135 654H105L113 700H709L669 499H624Z" />
<glyph unicode="F" glyph-name="F" horiz-adv-x="647" d="M709 700L669 499H624Q626 515 626 531Q626 634 542 634H372L316 358H437Q466 358 480 380T507 446H543L494 205H458Q461 225 461 243Q461 293 423 293H302L260 85Q259 81 259 74Q259 46 304 46H334L325
0H-29L-20 46H11Q38 46 52 55T71 85L179 614Q180 618 180 625Q180 654 135 654H105L113 700H709Z" />
<glyph unicode="G" glyph-name="G" horiz-adv-x="752" d="M197 -10T125 58T52 247Q52 293 63 350Q85 458 141 539T286 665T490 710Q556 710 606 694T686 653Q689 650 695 650Q702 650 705 659L713 705H773L729 488H677Q678 494 678 505Q678 577 632 609T520 642Q459
642 406 607T313 506T255 350Q242 280 242 233Q242 148 277 103T380 58Q435 58 474 72L513 261Q515 269 515 274Q515 290 503 300T462 311H447L454 348H778L772 318Q732 318 716 303T691 242L655 64Q571 19 501 5T343 -10Q197 -10 125 58Z" />
<glyph unicode="H" glyph-name="H" horiz-adv-x="815" d="M908 700L900 654H869Q817 654 808 614L701 85Q700 81 700 74Q700 60 710 53T744 46H775L766 0H412L420 46H450Q478 46 492 55T512 85L560 323H310L261 85Q260 81 260 74Q260 46 304 46H335L326 0H-28L-19
46H12Q39 46 53 55T72 85L180 614V625Q180 654 136 654H106L114 700H468L460 654H429Q377 654 369 614L323 389H573L619 614Q620 618 620 625Q620 654 575 654H545L554 700H908Z" />
<glyph unicode="I" glyph-name="I" horiz-adv-x="387" d="M-13 46H16Q69 46 78 85L185 614Q186 618 186 625Q186 654 141 654H111L120 700H474L466 654H435Q383 654 374 614L267 85Q266 81 266 74Q266 60 276 53T310 46H341L332 0H-22L-13 46Z" />
<glyph unicode="J" glyph-name="J" horiz-adv-x="445" d="M-11 -84Q62 -63 95 -8T147 140L244 614Q245 618 245 625Q245 654 201 654H170L179 700H533L524 654H493Q442 654 433 614L336 137Q310 10 217 -52T-12 -114L-11 -84Z" />
<glyph unicode="K" glyph-name="K" horiz-adv-x="792" d="M833 700L825 654H797Q767 654 741 635L440 398L644 97Q659 74 681 60T726 46H756L748 0H497L301 281L261 85Q260 81 260 74Q260 46 304 46H335L326 0H-28L-19 46H12Q39 46 53 55T72 85L180 614V625Q180
654 136 654H106L114 700H468L460 654H429Q377 654 369 614L323 391L614 617Q625 627 628 636Q632 654 597 654H582L590 700H833Z" />
<glyph unicode="L" glyph-name="L" horiz-adv-x="677" d="M-13 46H16Q69 46 78 85L185 614Q186 618 186 625Q186 654 141 654H111L120 700H474L466 654H435Q383 654 374 614L274 118Q272 106 272 102Q272 65 319 65H482Q525 65 560 116T614 217H663L598 0H-22L-13 46Z" />
<glyph unicode="M" glyph-name="M" horiz-adv-x="950" d="M-19 46H12Q39 46 53 55T72 85L180 614V625Q180 654 136 654H106L114 700H377L469 228L759 700H1044L1035 654H1004Q952 654 944 614L836 85Q835 81 835 74Q835 46 879 46H910L901 0H547L556 46H586Q638
46 647 85L741 547L446 74H334L239 544L146 85Q145 81 145 74Q145 60 155 53T189 46H220L211 0H-28L-19 46Z" />
<glyph unicode="N" glyph-name="N" horiz-adv-x="766" d="M-19 46H12Q39 46 53 55T72 85L180 614V625Q180 654 136 654H106L114 700H377L609 238L685 614Q686 618 686 625Q686 654 641 654H611L619 700H859L851 654H820Q768 654 759 614L635 0H539L248 587L146
85Q145 81 145 74Q145 60 155 53T189 46H220L211 0H-28L-19 46Z" />
<glyph unicode="O" glyph-name="O" horiz-adv-x="798" d="M201 -10T126 58T50 247Q50 293 61 350Q96 517 207 613T504 710Q661 710 736 642T812 451Q812 401 802 350Q767 182 656 86T357 -10Q201 -10 126 58ZM456 59T518 135T610 350Q623 420 623 467Q623 552
589 597T490 643Q406 643 344 566T253 350Q240 279 240 232Q240 148 273 104T371 59Q456 59 518 135Z" />
<glyph unicode="P" glyph-name="P" horiz-adv-x="651" d="M-19 46H12Q39 46 53 55T72 85L180 614V625Q180 654 136 654H106L114 700H503Q608 700 653 661T699 550Q699 520 691 482Q670 378 606 321T415 264H298L261 85Q260 81 260 74Q260 46 304 46H335L326 0H-28L-19
46ZM380 329Q474 329 505 482Q513 524 513 550Q513 592 496 613T443 634H372L310 329H380Z" />
<glyph unicode="Q" glyph-name="Q" horiz-adv-x="798" d="M661 710T736 642T812 451Q812 401 802 350Q767 182 656 86T357 -10Q339 -10 309 -8Q293 -18 271 -33H283Q316 -33 343 -41T408 -66Q444 -82 469 -90T524 -98Q560 -98 582 -83T624 -32H656Q656 -46 652
-64Q639 -125 595 -165T476 -205Q441 -205 412 -190T341 -145Q300 -116 273 -102T212 -88Q171 -88 132 -109L119 -82Q183 -26 243 2Q145 25 98 88T50 247Q50 293 61 350Q96 517 207 613T504 710Q661 710 736 642ZM623 420T623 467Q623 552 589 597T490 643Q406
643 344 566T253 350Q240 279 240 232Q240 148 273 104T371 59Q456 59 518 135T610 350Q623 420 623 467Z" />
<glyph unicode="R" glyph-name="R" horiz-adv-x="718" d="M677 415T640 367T532 297Q556 285 568 266T584 228T591 179Q595 136 600 111T621 67T664 46L656 0H521Q476 0 451 9T414 40T398 100Q397 111 397 133L398 194Q398 226 393 247T374 283H301L261 85Q260
81 260 74Q260 46 304 46H335L326 0H-28L-19 46H12Q39 46 53 55T72 85L180 614V625Q180 654 136 654H106L114 700H503Q609 700 655 664T701 558Q701 530 693 492Q677 415 640 367ZM315 349H385Q433 349 462 383T507 492Q515 532 515 556Q515 596 497 615T443 634H372L315
349Z" />
<glyph unicode="S" glyph-name="S" horiz-adv-x="640" d="M208 -10T164 5T84 46Q80 49 74 49Q71 49 69 47T65 41L56 -5H-4L40 211H92Q87 131 134 95T250 58Q310 58 352 82T407 165Q409 172 409 186Q409 215 392 235T349 268T278 300Q222 322 188 341T130 393T106
475Q106 498 110 521Q129 614 208 662T411 710Q479 710 519 696T599 657L607 654Q610 654 611 657T612 662T613 666L621 705H681L636 489H585L586 507Q586 578 545 610T442 642Q397 642 358 619T309 553Q307 541 307 536Q307 500 337 481T429 439Q488 418 524 399T586
345T612 254Q612 229 606 199Q583 91 496 41T280 -10Q208 -10 164 5Z" />
<glyph unicode="T" glyph-name="T" horiz-adv-x="717" d="M152 46H181Q209 46 223 55T243 85L354 634H232Q204 634 181 599T141 521T120 452H75L125 700H800L750 452H705Q711 491 711 531Q711 575 701 604T665 634H543L432 85Q431 81 431 74Q431 60 441 53T475
46H506L497 0H143L152 46Z" />
<glyph unicode="U" glyph-name="U" horiz-adv-x="788" d="M231 -10T163 34T94 167Q94 194 100 224L180 614V625Q180 654 136 654H107L115 700H468L459 654H429Q377 654 369 614L286 209Q281 184 281 168Q281 110 320 84T420 58Q492 58 550 94T625 209L708 614V625Q708
654 664 654H635L643 700H880L872 654H842Q790 654 781 614L702 224Q679 111 592 51T362 -10Q231 -10 163 34Z" />
<glyph unicode="V" glyph-name="V" horiz-adv-x="794" d="M169 618Q162 654 127 654H105L113 700H449L441 654H418Q396 654 385 643T377 612L438 182L677 604Q684 616 684 629Q684 641 674 647T652 654H630L638 700H888L879 654H863Q842 654 821 644T789 615L427
-1H285L169 618Z" />
<glyph unicode="W" glyph-name="W" horiz-adv-x="1117" d="M1212 700L1203 654H1187Q1165 654 1144 644T1113 615L797 -1H682L629 401L388 -1H246L169 618Q164 654 127 654H105L113 700H449L441 654H418Q375 654 376 611L398 182L610 546L600 618Q597 637 586
645T558 654H535L543 700H852L844 654H822Q779 654 780 612L807 182L1000 604Q1006 619 1006 628Q1006 642 997 648T975 654H953L962 700H1212Z" />
<glyph unicode="X" glyph-name="X" horiz-adv-x="781" d="M863 700L854 654H838Q821 654 803 644T764 615L517 394L678 81Q688 62 697 54T720 46H742L733 0H392L400 46H423Q441 46 454 54T467 76Q467 82 464 88L373 265L182 95Q168 82 168 71Q168 60 179 53T206
46H228L220 0H-30L-21 46H-5Q26 46 68 84L341 327L191 618Q182 637 172 645T149 654H126L134 700H476L468 654H445Q427 654 414 645T400 624Q400 617 404 612L485 455L652 604Q664 615 664 626Q664 638 652 646T627 654H605L613 700H863Z" />
<glyph unicode="Y" glyph-name="Y" horiz-adv-x="729" d="M149 46H180Q207 46 221 55T240 85L280 286L169 618Q162 637 152 645T127 654H105L113 700H436L427 654H399Q383 654 373 646T362 624Q362 620 364 612L432 366L612 604Q623 621 623 631Q623 642 614 648T593
654H564L573 700H823L814 654H798Q778 654 758 644T724 615L469 284L429 85Q428 81 428 74Q428 46 473 46H504L495 0H140L149 46Z" />
<glyph unicode="Z" glyph-name="Z" horiz-adv-x="612" d="M-14 42L474 634H288Q229 634 198 591T153 499H108L148 700H690L685 673L188 65H420Q468 65 496 100T548 200H593L532 0H-22L-14 42Z" />
<glyph unicode="[" glyph-name="bracketleft" horiz-adv-x="310" d="M122 705H403L391 642H242L100 -55H249L235 -121H-45L122 705Z" />
<glyph unicode="\" glyph-name="backslash" horiz-adv-x="357" d="M117 695H189L301 0H229L117 695Z" />
<glyph unicode="]" glyph-name="bracketright" horiz-adv-x="310" d="M-40 -55H107L249 642H101L113 705H395L227 -121H-54L-40 -55Z" />
<glyph unicode="^" glyph-name="asciicircum" horiz-adv-x="564" d="M332 723H446L567 310H450L376 658L160 310H44L332 723Z" />
<glyph unicode="_" glyph-name="underscore" horiz-adv-x="469" d="M-51 -46H425L412 -112H-64L-51 -46Z" />
<glyph unicode="`" glyph-name="grave" horiz-adv-x="505" d="M284 671Q263 686 253 700T242 732Q242 735 244 745Q248 765 266 780T313 796Q336 796 352 782T375 755L468 619L426 572L284 671Z" />
<glyph unicode="a" glyph-name="a" horiz-adv-x="642" d="M91 -10T64 29T37 128Q37 160 45 194Q68 309 139 394T344 480Q366 480 395 473T439 450L443 470H624L546 86Q544 74 544 71Q544 50 565 50Q574 50 587 53T608 58L601 27Q575 10 538 0T463 -10Q421 -10
390 3T358 48Q358 52 360 62L378 154Q339 87 277 39T153 -10Q91 -10 64 29ZM247 59T287 103T363 203T406 289L422 368Q419 391 411 401T383 412Q347 412 313 383T254 306T216 202Q209 160 209 120Q209 59 226 59Q247 59 287 103Z" />
<glyph unicode="b" glyph-name="b" horiz-adv-x="645" d="M201 -10T169 53L115 0H34L152 581Q153 585 153 592Q153 616 126 616Q120 616 107 613L106 651L324 717H360L300 426Q359 480 456 480Q536 480 583 437T631 312Q631 284 623 246Q595 109 518 50T320 -10Q201
-10 169 53ZM361 54T393 103T444 241Q454 296 454 326Q454 372 436 394T381 416Q341 416 312 377T268 268L249 174Q245 158 245 138Q245 101 262 78T311 54Q361 54 393 103Z" />
<glyph unicode="c" glyph-name="c" horiz-adv-x="569" d="M149 -10T87 35T24 171Q24 203 31 235Q46 306 89 361T202 448T358 480Q562 480 562 369Q562 360 558 338Q554 318 535 300T494 281Q473 281 462 291T451 318Q451 331 460 347Q466 359 468 367Q471 386
451 402T393 419Q321 419 276 367T215 234Q208 203 208 171Q208 115 233 82T310 48Q373 48 415 77T484 172H528Q504 92 437 41T271 -10Q149 -10 87 35Z" />
<glyph unicode="d" glyph-name="d" horiz-adv-x="646" d="M91 -10T64 29T37 128Q37 160 45 194Q68 309 139 394T344 480Q366 480 395 473T440 450L467 581Q468 585 468 592Q468 616 442 616Q435 616 422 613L420 651L639 717H675L546 86Q544 74 544 71Q544 50
565 50Q574 50 587 53T608 58L601 27Q575 10 538 0T463 -10Q421 -10 390 3T358 48Q358 52 360 62L378 154Q339 87 277 39T153 -10Q91 -10 64 29ZM247 59T287 103T363 203T406 289L422 368Q419 391 411 401T383 412Q347 412 313 383T254 306T216 202Q209 160 209
120Q209 59 226 59Q247 59 287 103Z" />
<glyph unicode="e" glyph-name="e" horiz-adv-x="566" d="M552 249T451 208T208 159Q211 108 237 78T312 48Q375 48 418 77T488 172H532Q508 92 441 41T273 -10Q150 -10 87 35T24 172Q24 203 31 235Q53 346 140 413T358 480Q471 480 522 452T573 368Q573 354 570
337Q552 249 451 208ZM420 346T420 363Q420 416 358 419Q301 419 266 364T215 234Q213 227 211 213Q398 244 418 336Q420 346 420 363Z" />
<glyph unicode="f" glyph-name="f" horiz-adv-x="474" d="M501 722T539 698T577 629Q577 616 574 602Q562 539 500 539Q479 539 467 547T454 572Q454 586 464 602Q472 618 472 627Q472 642 462 651T431 661Q401 661 386 638T363 578L341 470H476L464 407H328L217
-141L34 -151L148 407H61L74 470H161L178 555Q195 635 258 678T411 722Q501 722 539 698Z" />
<glyph unicode="g" glyph-name="g" horiz-adv-x="573" d="M625 480T647 465T670 427Q670 420 669 417Q664 391 647 376T605 361Q590 361 584 367T573 386Q568 400 562 406T538 413Q530 413 512 408Q525 385 525 354Q525 335 521 318Q505 239 437 199T252 158Q189
158 145 170Q122 153 122 133Q122 112 153 112H347Q412 112 450 86T488 11Q488 -2 485 -17Q469 -93 391 -138T176 -184Q-35 -184 -35 -83Q-35 -44 -12 -20T50 18Q11 34 11 78Q11 92 12 99Q22 147 95 191Q44 223 44 284Q44 294 48 318Q64 397 134 438T319 480Q426
480 477 444Q507 465 534 472T591 480Q625 480 647 465ZM348 345T348 362Q348 418 305 418Q248 418 228 318Q223 291 223 274Q223 218 265 218Q322 218 343 318Q348 345 348 362ZM122 -8Q96 -24 89 -61Q88 -65 88 -73Q88 -99 115 -112T190 -126Q244 -126 278 -108T319
-55Q320 -50 320 -43Q320 -24 304 -16T248 -8H122Z" />
<glyph unicode="h" glyph-name="h" horiz-adv-x="713" d="M628 50T641 53T662 58L656 27Q630 10 592 0T516 -10Q474 -10 444 4T414 51Q414 56 416 66L468 322Q472 350 472 360Q472 411 425 411Q384 411 344 355T282 237L234 0L51 -10L172 581Q173 585 173 592Q173
616 146 616Q140 616 127 613L126 651L344 717H380L304 344Q369 480 503 480Q656 480 656 377Q656 358 652 342L600 86Q598 74 598 72Q598 50 620 50Q628 50 641 53Z" />
<glyph unicode="i" glyph-name="i" horiz-adv-x="366" d="M211 554T192 573T173 622Q173 667 204 699T280 731Q313 731 332 712T352 663Q352 618 320 586T244 554Q211 554 192 573ZM126 -10T95 3T64 48Q64 52 66 62L124 344Q125 348 125 355Q125 368 118 373T99
379Q96 379 79 375L77 413L298 480H333L252 86L251 71Q251 50 272 50Q280 50 293 53T314 58L307 27Q282 10 243 0T167 -10Q126 -10 95 3Z" />
<glyph unicode="j" glyph-name="j" horiz-adv-x="371" d="M236 554T217 573T198 622Q198 667 229 699T304 731Q337 731 356 712T376 663Q376 650 374 643Q366 604 337 579T268 554Q236 554 217 573ZM-67 -129Q6 -106 40 -53T91 82L144 343Q146 351 146 355Q146
379 119 379Q118 379 99 375L97 413L316 479H352L275 96Q248 -31 158 -94T-68 -160L-67 -129Z" />
<glyph unicode="k" glyph-name="k" horiz-adv-x="704" d="M630 425T564 379L410 271L537 89Q552 69 577 57T625 45H656L647 0H401L276 177L267 171L232 0L49 -10L170 581Q171 585 171 592Q171 616 145 616Q138 616 125 613L124 651L343 717H378L286 263L587 470H700L691
425H655Q630 425 564 379Z" />
<glyph unicode="l" glyph-name="l" horiz-adv-x="366" d="M128 -10T98 3T67 48Q67 52 69 62L175 581Q176 585 176 592Q176 616 149 616Q143 616 130 613L129 651L347 717H383L254 86Q252 74 252 71Q252 50 274 50Q282 50 295 53T317 58L310 27Q285 10 246 0T169
-10Q128 -10 98 3Z" />
<glyph unicode="m" glyph-name="m" horiz-adv-x="1034" d="M953 50T966 53T988 58L981 27Q956 10 917 0T841 -10Q800 -10 769 3T738 48Q738 52 740 62L794 325Q798 342 798 358Q798 411 745 411Q728 411 705 398T659 355T624 281L566 0L391 -10L460 325Q464 341
464 358Q464 411 411 411Q392 411 368 396T322 347T287 264L234 0L51 -10L123 343L125 355Q125 368 117 373T98 379Q97 379 78 375L77 413L295 479H331L315 399Q345 439 394 459T491 480Q630 480 638 387Q668 432 720 456T825 480Q904 480 942 452T980 371Q980
356 977 339L925 86Q924 80 924 72Q924 50 945 50Q953 50 966 53Z" />
<glyph unicode="n" glyph-name="n" horiz-adv-x="713" d="M628 49T641 52T662 57L656 26Q630 9 592 -1T516 -11Q474 -11 444 2T413 48Q413 56 414 61L468 325Q472 349 472 357Q472 411 417 411Q397 411 372 396T323 347T287 264L234 0L51 -10L123 343L125 355Q125
368 117 373T98 379Q97 379 78 375L77 413L295 479H331L315 398Q347 438 397 459T496 480Q576 480 615 451T655 371Q655 357 652 340L600 85Q598 73 598 71Q598 49 619 49Q628 49 641 52Z" />
<glyph unicode="o" glyph-name="o" horiz-adv-x="625" d="M149 -10T87 36T24 171Q24 203 31 235Q56 356 142 418T372 480Q495 480 557 435T619 301Q619 277 612 235Q587 114 501 52T272 -10Q149 -10 87 36ZM335 54T373 100T429 235Q438 279 438 311Q438 363 417
389T359 416Q308 416 270 370T213 235Q204 193 204 160Q204 108 225 81T285 54Q335 54 373 100Z" />
<glyph unicode="p" glyph-name="p" horiz-adv-x="654" d="M123 343L125 355Q125 368 118 373T99 379Q97 379 78 375L77 413L296 479H331L314 392Q344 431 386 455T475 480Q557 480 604 438T651 314Q651 284 643 246Q615 109 540 50T343 -10Q308 -10 281 2T241
36L189 -221L6 -231L123 343ZM382 54T414 103T464 241Q476 310 476 339Q476 378 463 397T420 416Q402 416 373 391T318 328T287 259L268 165Q264 149 264 130Q264 95 281 75T331 54Q382 54 414 103Z" />
<glyph unicode="q" glyph-name="q" horiz-adv-x="659" d="M370 -250T341 -235T312 -188Q312 -183 314 -173L357 40Q299 -10 204 -10Q122 -10 76 29T30 156Q30 189 40 246Q63 359 135 419T302 480Q421 480 454 417L505 479H627L497 -158Q495 -168 495 -171Q495
-192 517 -192Q526 -192 539 -189T560 -184L554 -215Q528 -233 489 -243T411 -253Q370 -250 341 -235ZM324 54T351 101T394 220L413 311Q416 325 416 337Q416 373 396 394T351 416Q300 416 268 374T218 241Q206 189 206 147Q206 54 274 54Q324 54 351 101Z" />
<glyph unicode="r" glyph-name="r" horiz-adv-x="530" d="M522 480T546 468T571 428Q571 423 569 413Q562 379 542 362T493 344Q478 344 469 349T451 366Q441 376 434 380T415 385Q399 385 373 365T321 310T281 228L235 0L52 -10L124 343L126 355Q126 368 119
373T100 379Q98 379 79 375L78 413L297 479H332L308 361Q328 403 362 430T430 468T489 480Q522 480 546 468Z" />
<glyph unicode="s" glyph-name="s" horiz-adv-x="516" d="M112 -10T62 18T12 91Q12 126 32 144T78 162Q96 162 108 154T121 130Q121 118 113 108Q106 99 106 88Q106 73 126 64T184 54Q227 54 256 67T292 110Q296 130 276 141T212 167Q165 181 135 195T82 236T59
305Q59 322 62 340Q75 405 137 442T311 480Q417 480 466 452T515 378Q515 344 495 326T448 308Q431 308 419 317T406 341Q406 353 412 361T420 377Q423 394 402 404T339 415Q296 415 269 401T242 360Q242 342 262 332T325 311Q375 297 406 284T460 244T483 174Q483
155 479 138Q462 59 390 25T219 -10Q112 -10 62 18Z" />
<glyph unicode="t" glyph-name="t" horiz-adv-x="458" d="M312 48T337 65T375 123H420Q383 -10 223 -10Q141 -10 94 14T47 100Q47 118 51 137L106 407H47L60 470H119L131 528L292 608H327L299 470H430L418 407H286L231 138Q228 126 228 105Q228 48 281 48Q312 48 337 65Z" />
<glyph unicode="u" glyph-name="u" horiz-adv-x="681" d="M578 50T599 50Q608 50 621 53T641 58L635 27Q609 9 573 0T500 -10Q459 -10 427 7T395 60Q395 65 396 67Q364 29 314 10T216 -10Q136 -10 97 19T57 99Q57 114 60 130L103 343Q105 351 105 355Q105 368
97 373T78 379Q77 379 58 375L56 413L275 479H311L243 145Q239 121 239 114Q239 58 296 58Q315 58 340 72T387 119T422 203L451 343Q453 351 453 355Q453 379 426 379Q425 379 406 375L404 413L623 479H660L580 86Q578 74 578 71Q578 50 599 50Z" />
<glyph unicode="v" glyph-name="v" horiz-adv-x="620" d="M117 -10T87 22T57 100Q57 116 60 129L103 343Q105 351 105 355Q105 368 97 373T78 379Q77 379 58 375L56 413L275 479H311L243 143Q239 123 239 104Q239 45 278 45Q339 45 382 132T446 324Q456 371 456
404Q456 433 449 453Q471 466 497 473T546 481Q595 481 617 460T639 407Q639 400 637 388Q618 293 561 202T407 51T182 -10Q117 -10 87 22Z" />
<glyph unicode="w" glyph-name="w" horiz-adv-x="822" d="M800 481T819 457T838 395Q838 372 834 355Q814 254 782 178T674 46T471 -10Q420 -10 392 8T353 57Q278 -9 195 -9Q126 -9 91 15T55 89Q55 107 59 123L103 343Q105 351 105 355Q105 368 97 373T78 379Q77
379 58 375L56 413L275 479H311L239 123Q234 98 234 86Q234 64 244 56T275 47Q303 47 348 92V93Q348 113 350 123L420 463H578L504 102Q500 80 500 73Q500 57 507 50T531 42Q566 42 595 93T639 221Q650 269 655 321T660 413Q660 433 658 453Q680 466 705 473T756
481Q800 481 819 457Z" />
<glyph unicode="x" glyph-name="x" horiz-adv-x="629" d="M667 470L659 425H638Q621 425 604 414T562 384L408 255L487 121Q491 116 504 96T532 64T565 52Q577 52 590 58L584 27Q558 9 521 0T446 -10Q392 -10 365 8T313 62L269 138L104 0H-33L-24 45H-4Q30 45
76 83L228 207L126 383Q124 388 113 388Q100 388 85 381T63 372L60 411L200 470H280L368 321L551 470H667Z" />
<glyph unicode="y" glyph-name="y" horiz-adv-x="630" d="M623 480T642 463T661 416L660 397Q655 373 634 343T570 260Q550 236 532 213L202 -206Q171 -245 131 -265T44 -286Q15 -286 -7 -267T-30 -217Q-30 -208 -29 -203Q-24 -182 -6 -165T34 -147Q54 -147 62
-157T76 -187Q80 -200 83 -205T95 -211Q109 -211 124 -196T165 -148L281 1L125 382Q123 388 112 388Q99 388 84 381T63 372L59 411L239 470H278L395 147L438 202Q453 222 470 265T495 350Q502 387 502 407Q502 437 493 450Q539 480 588 480Q623 480 642 463Z" />
<glyph unicode="z" glyph-name="z" horiz-adv-x="508" d="M24 7T-15 30L342 407H168Q141 407 110 323H69L99 470H544L538 437L238 116Q268 116 306 106Q332 99 348 99Q385 99 416 124T468 190L494 180Q437 -10 347 -10Q326 -10 305 -5T251 10Q246 12 227 17T191
26T160 29Q110 29 60 -10Q24 7 -15 30Z" />
<glyph unicode="{" glyph-name="braceleft" horiz-adv-x="349" d="M188 -149T146 -140T84 -110T64 -49Q64 -30 71 5L109 194Q113 211 113 233Q113 270 95 294T36 322L42 356Q104 367 130 395T168 484L203 653Q216 719 241 754T315 806T454 822L447 790Q394 779
368 750T329 666L295 497Q285 450 270 420T222 370T134 341L133 337Q191 329 215 307T239 243Q239 221 233 194L195 8Q190 -20 190 -36Q190 -69 208 -88T268 -117L261 -149Q188 -149 146 -140Z" />
<glyph unicode="|" glyph-name="bar" horiz-adv-x="450" d="M113 743H259V-203H113V743Z" />
<glyph unicode="}" glyph-name="braceright" horiz-adv-x="349" d="M-42 -117Q15 -105 41 -78T80 5L118 197Q131 261 165 294T276 337V341Q219 350 196 374T172 438Q172 461 180 495L214 668Q219 693 219 710Q219 743 202 762T146 790L153 822Q225 822 266 812T325
780T343 718Q343 693 335 653L300 484Q295 452 295 434Q295 401 313 383T374 356L368 322Q314 318 283 282T242 194L204 5Q191 -56 165 -89T88 -135T-49 -149L-42 -117Z" />
<glyph unicode="~" glyph-name="asciitilde" horiz-adv-x="594" d="M393 200T364 207T288 228Q250 240 228 245T183 251Q156 251 134 241T95 217L79 282Q101 305 135 320T202 336Q227 336 251 330T320 311Q360 298 388 292T442 285Q469 285 491 295T529 319L545
254Q523 231 490 216T425 200Q393 200 364 207Z" />
<glyph unicode="&#xa0;" glyph-name="uni00A0" horiz-adv-x="253" />
<glyph unicode="&#xa1;" glyph-name="exclamdown" horiz-adv-x="372" d="M177 309T160 326T142 372Q142 383 145 395Q153 434 180 457T244 480Q275 480 292 464T310 418Q310 407 307 395Q299 356 272 333T208 309Q177 309 160 326ZM19 -237T19 -180Q19 -167 22
-155Q24 -147 25 -144T26 -138L165 282H242L210 -138Q210 -144 208 -155Q200 -191 176 -214T98 -237Q19 -237 19 -180Z" />
<glyph unicode="&#xa2;" glyph-name="cent" horiz-adv-x="570" d="M509 286Q517 418 400 418Q328 418 280 366T215 234Q208 203 208 171Q208 115 234 82T311 48Q373 48 416 77T485 171H529Q507 97 447 48T298 -9L282 -87H225L241 -9Q133 -4 78 41T23 171Q23 203
30 235Q44 303 85 357T192 444T340 480L360 576H418L398 478Q486 471 526 425L546 480H588L547 286H509Z" />
<glyph unicode="&#xa3;" glyph-name="sterling" horiz-adv-x="616" d="M-9 63H59Q83 83 90 97T103 139L139 319H52L64 381H152L176 498Q195 593 262 649T446 705Q505 705 539 691T605 649Q611 646 613 646Q620 646 623 655L632 700H692L652 502H599Q600 511 600
527Q600 591 572 614T493 638Q444 638 407 604T356 500L331 381H517L505 319H319L286 157Q279 124 266 103T229 65H402Q451 65 479 98T531 197H576L516 0H-21L-9 63Z" />
<glyph unicode="&#xa4;" glyph-name="currency" horiz-adv-x="593" d="M61 113L132 174Q116 211 116 251Q116 272 120 291Q134 355 180 408L132 471L187 520L236 457Q266 477 295 486T359 496Q394 496 419 487T467 457L540 520L576 471L501 408Q518 372 518 331Q518
319 514 291Q501 229 453 174L499 114L444 66L398 126Q369 106 340 96T276 86Q241 86 216 96T168 126L97 65L61 113ZM329 155T366 178T427 239T451 320Q451 367 421 397T344 428Q290 428 244 389T185 291Q182 276 182 263Q182 216 212 186T288 155Q329 155 366
178Z" />
<glyph unicode="&#xa5;" glyph-name="yen" horiz-adv-x="729" d="M823 700L814 654H798Q778 654 758 644T724 615L559 401H686L674 339H511L469 284L455 215H648L636 152H442L429 85Q428 81 428 74Q428 46 473 46H504L495 0H140L149 46H180Q207 46 221 55T240
85L253 152H80L92 215H266L280 286L262 339H118L131 401H242L169 618Q162 637 152 645T127 654H105L113 700H436L427 654H399Q383 654 373 646T362 624Q362 620 364 612L422 401H458L612 604Q623 621 623 631Q623 642 614 648T593 654H564L573 700H823Z" />
<glyph unicode="&#xa6;" glyph-name="brokenbar" horiz-adv-x="450" d="M113 743H259V330H113V743ZM113 260H259V-203H113V260Z" />
<glyph unicode="&#xa7;" glyph-name="section" horiz-adv-x="640" d="M594 536L595 554Q595 625 554 657T451 689Q397 689 357 660T316 580Q316 553 333 534T374 503T444 473Q500 451 535 432T595 380T620 295Q620 268 615 247Q596 159 533 108Q564 69 564 16Q564
-6 558 -33Q536 -141 449 -191T233 -242Q172 -242 129 -227T46 -191Q41 -189 35 -186T25 -182Q20 -182 18 -189L9 -237H-50L-7 -20H45Q40 -100 87 -137T203 -174Q262 -174 305 -149T359 -67Q361 -59 361 -46Q361 -17 344 3T302 36T231 68Q175 90 141 109T83 161T59
243Q59 266 63 289Q81 376 153 424Q115 465 115 523Q115 541 120 569Q139 662 218 709T420 757Q469 757 508 743T585 709Q589 707 598 703T612 698Q619 698 622 707L631 752H690L646 536H594ZM419 264T400 284T353 318T274 352Q266 341 260 319Q258 305 258 300Q258
273 274 255T316 224T385 194L408 185Q414 199 417 213Q419 220 419 234Q419 264 400 284Z" />
<glyph unicode="&#xa8;" glyph-name="dieresis" horiz-adv-x="505" d="M185 573T170 588T155 628Q155 665 179 692T241 719Q268 719 283 703T299 662Q299 626 273 600T211 573Q185 573 170 588ZM420 573T405 588T390 628Q390 665 414 692T476 719Q504 719 519
704T534 662Q534 626 508 600T446 573Q420 573 405 588Z" />
<glyph unicode="&#xa9;" glyph-name="copyright" horiz-adv-x="796" d="M259 -10T179 37T54 167T9 355Q9 460 54 543T179 673T359 720Q460 720 539 673T664 543T709 355Q709 250 664 167T540 37T359 -10Q259 -10 179 37ZM441 52T506 91T607 200T643 355Q643 439
607 508T506 617T359 657Q276 657 212 618T111 509T75 355Q75 270 111 201T211 92T359 52Q441 52 506 91ZM258 131T201 185T143 347Q143 443 198 503T355 564Q448 564 496 517L503 564H535V394H504Q489 510 398 510Q342 510 310 463T278 346Q278 275 307 229T390
183Q438 183 467 208T505 288H540Q534 220 490 176T368 131Q258 131 201 185Z" />
<glyph unicode="&#xaa;" glyph-name="ordfeminine" horiz-adv-x="519" d="M369 267T349 283T328 323Q328 330 329 334L342 394Q315 345 275 307T195 268Q137 268 107 298T77 388Q77 416 84 447Q106 553 163 627T329 702Q352 702 372 694T404 669L409 702H546L478
350Q477 345 477 337Q477 319 495 319Q510 319 536 326L530 298Q506 283 470 275T398 267Q369 267 349 283ZM256 316T282 353T328 421T352 459L383 607Q381 630 369 643T332 656Q296 656 268 584T227 452Q217 402 217 369Q217 316 242 316Q256 316 282 353Z" />
<glyph unicode="&#xab;" glyph-name="guillemotleft" horiz-adv-x="597" d="M48 249L54 274L334 535L356 483L188 262L266 40L223 -12L48 249ZM292 249L298 274L579 535L601 483L433 262L511 40L468 -12L292 249Z" />
<glyph unicode="&#xac;" glyph-name="logicalnot" horiz-adv-x="493" d="M339 315H-12V378H414V171H339V315Z" />
<glyph unicode="&#xad;" glyph-name="uni00AD" horiz-adv-x="464" d="M75 334H446L425 230H54L75 334Z" />
<glyph unicode="&#xae;" glyph-name="registered" horiz-adv-x="796" d="M460 720T539 673T664 543T709 355Q709 250 664 167T540 37T359 -10Q259 -10 179 37T54 167T9 355Q9 460 54 543T179 673T359 720Q460 720 539 673ZM441 52T506 91T607 200T643 355Q643
439 607 508T506 617T359 657Q276 657 212 618T111 509T75 355Q75 270 111 201T211 92T359 52Q441 52 506 91ZM524 191T535 187T563 182V151H425L345 325H334V209Q334 195 341 189T366 182H384V151H167V182H185Q219 182 219 209V510Q219 537 186 537H168V568H405Q481
568 511 538T541 451Q541 406 521 375T460 332L518 201Q524 191 535 187ZM334 368H369Q428 368 428 452Q428 490 414 507T369 525H334V368Z" />
<glyph unicode="&#xaf;" glyph-name="overscore" horiz-adv-x="505" d="M145 768H593L576 685H128L145 768Z" />
<glyph unicode="&#xb0;" glyph-name="degree" horiz-adv-x="359" d="M170 426T137 459T103 545Q103 565 107 582Q121 650 172 693T291 737Q349 737 382 705T416 619Q416 599 412 582Q398 514 347 470T228 426Q170 426 137 459ZM284 496T313 527T342 602Q342 631
325 649T276 668Q235 668 206 636T176 562Q176 533 193 515T242 496Q284 496 313 527Z" />
<glyph unicode="&#xb1;" glyph-name="plusminus" horiz-adv-x="592" d="M230 312H57L75 404H249L283 570H464L429 404H603L585 312H411L377 146H197L230 312ZM35 110H515L495 18H15L35 110Z" />
<glyph unicode="&#xb2;" glyph-name="uni00B2" horiz-adv-x="468" d="M70 305Q87 342 118 370T201 435Q243 466 266 485T309 530T334 587Q336 595 336 607Q336 647 292 647Q264 647 246 631T219 577Q215 559 199 550T161 541Q125 541 125 574Q125 583 126 588Q133
620 161 647T233 690T331 706Q402 706 447 681T492 601Q492 584 490 574Q481 531 445 500T340 428Q304 406 282 391T241 359H386Q400 359 412 376T432 414H455L413 260H61L70 305Z" />
<glyph unicode="&#xb3;" glyph-name="uni00B3" horiz-adv-x="468" d="M151 252T111 275T71 337Q71 343 73 355Q84 403 128 403Q151 403 163 394T171 367Q169 357 169 352Q169 333 182 324T216 315Q288 315 301 385Q303 397 303 402Q303 425 289 439T249 454H183L196
515H261Q292 515 313 538T339 587Q341 595 341 608Q341 647 299 647Q271 647 252 634T226 584Q222 566 206 557T168 548Q132 548 132 582V596Q142 643 195 674T327 706Q400 706 445 682T490 609Q490 597 487 585Q471 512 404 487Q459 467 459 414Q459 406 455 384Q441
315 378 284T232 252Q151 252 111 275Z" />
<glyph unicode="&#xb4;" glyph-name="acute" horiz-adv-x="505" d="M218 619L365 755Q377 767 399 781T446 796Q472 796 483 784T495 754Q495 730 477 711T423 671L240 572L218 619Z" />
<glyph unicode="&#xb6;" glyph-name="paragraph" horiz-adv-x="554" d="M88 45H118Q144 45 152 54T161 85V306Q77 317 33 370T-12 508Q-12 607 37 652T186 698H491V652H461Q436 652 427 643T418 613V85Q418 64 426 55T461 45H491V0H324V639H256V0H88V45ZM161 639Q105
638 79 602T53 507Q53 464 69 434T110 389T161 372V639Z" />
<glyph unicode="&#xb7;" glyph-name="middot" horiz-adv-x="298" d="M135 272T121 287T106 328Q106 367 131 395T194 423Q222 423 237 407T253 365Q253 327 227 300T163 272Q135 272 121 287Z" />
<glyph unicode="&#xb8;" glyph-name="cedilla" horiz-adv-x="505" d="M70 -255T43 -251L52 -211Q109 -211 144 -197T188 -144Q189 -141 189 -135Q189 -110 165 -99T117 -86L112 -74L203 34H266L208 -34Q244 -40 274 -58T304 -115Q304 -120 302 -134Q287 -206 227
-230T100 -255Q70 -255 43 -251Z" />
<glyph unicode="&#xb9;" glyph-name="uni00B9" horiz-adv-x="468" d="M84 304H136Q182 304 190 342L241 590L155 564L167 622L436 712L360 342Q359 338 359 332Q359 318 368 311T399 304H451L443 260H75L84 304Z" />
<glyph unicode="&#xba;" glyph-name="ordmasculine" horiz-adv-x="422" d="M149 267T110 306T71 416Q71 446 79 486Q100 590 160 648T316 706Q394 706 433 667T472 555Q472 530 465 486Q444 382 383 325T226 267Q149 267 110 306ZM270 347T292 384T328 486Q336
529 336 557Q336 589 327 606T300 624Q274 624 251 586T216 486Q207 446 207 415Q207 383 216 365T244 347Q270 347 292 384Z" />
<glyph unicode="&#xbb;" glyph-name="guillemotright" horiz-adv-x="597" d="M25 40L193 262L115 483L158 535L334 274L328 249L47 -12L25 40ZM270 40L438 262L360 483L402 535L578 274L572 249L291 -12L270 40Z" />
<glyph unicode="&#xbc;" glyph-name="onequarter" horiz-adv-x="1036" d="M63 304H115Q162 304 170 342L221 590L133 564L146 622L415 712L339 342Q338 338 338 332Q338 304 378 304H430L421 260H55L63 304ZM818 695H883L327 0H263L818 695ZM643 44H678Q725 44
732 81L735 98H543L551 134L806 440H974L918 162H988L961 98H904L901 81Q900 77 900 70Q900 44 941 44H974L966 0H635L643 44ZM749 162L785 342L637 162H749Z" />
<glyph unicode="&#xbd;" glyph-name="onehalf" horiz-adv-x="1036" d="M63 304H115Q162 304 170 342L221 590L133 564L146 622L415 712L339 342Q338 338 338 332Q338 304 378 304H430L421 260H55L63 304ZM801 695H867L310 0H246L801 695ZM595 45Q612 81 643 109T726
174Q786 217 818 249T859 326Q861 334 861 347Q861 387 818 387Q760 387 744 317Q740 299 724 290T686 280Q650 280 650 315Q650 323 651 328Q658 360 686 387T758 429T856 445Q927 445 972 420T1017 342Q1017 329 1014 314Q1008 284 987 259T938 214T863 165Q793
123 766 99H912Q926 99 938 115T958 154H981L938 0H587L595 45Z" />
<glyph unicode="&#xbe;" glyph-name="threequarters" horiz-adv-x="1036" d="M153 252T113 275T72 337Q72 343 74 355Q85 403 129 403Q152 403 164 394T172 367Q170 357 170 352Q170 333 183 324T216 315Q289 315 302 385Q304 397 304 402Q304 425 290 439T249
454H184L197 515H262Q292 515 313 538T340 587Q342 595 342 608Q342 647 300 647Q272 647 253 634T226 584Q222 566 206 557T168 548Q132 548 132 583V596Q142 643 195 674T328 706Q401 706 445 682T490 609Q490 597 487 585Q470 512 405 487Q459 467 459 414Q459
406 455 384Q441 315 378 284T233 252Q153 252 113 275ZM801 695H867L310 0H246L801 695ZM631 44H665Q689 44 701 53T719 81L722 98H531L539 134L794 440H962L905 162H975L948 98H892L889 81Q888 77 888 70Q888 56 897 50T928 44H962L953 0H622L631 44ZM735 162L772
342L625 162H735Z" />
<glyph unicode="&#xbf;" glyph-name="questiondown" horiz-adv-x="510" d="M272 309T255 326T237 373Q237 387 239 395Q247 433 274 456T339 480Q370 480 387 464T405 418Q405 407 402 395Q394 356 367 333T303 309Q272 309 255 326ZM-36 -240T-36 -107Q-36 -85
-32 -64Q-23 -22 -1 8T47 57T117 100Q157 122 181 139T226 183T253 245Q255 254 258 287H340Q340 248 333 221Q321 161 293 123T216 39Q179 6 160 -17T135 -73Q131 -93 131 -114Q131 -144 147 -158T197 -173Q242 -173 265 -146T301 -57Q306 -36 327 -23T376 -10Q403
-10 420 -23T438 -60Q438 -64 436 -74Q427 -120 393 -158T301 -218T167 -240Q-36 -240 -36 -107Z" />
<glyph unicode="&#xc0;" glyph-name="Agrave" horiz-adv-x="784" d="M446 889T435 903T424 933Q424 955 442 976T495 998Q529 998 544 978T560 957L652 821L610 774L467 873Q446 889 435 903ZM751 46L742 0H406L415 46H437Q479 46 479 82L478 92L466 177H223L177
96Q169 83 169 71Q169 58 178 52T202 46H224L215 0H-35L-26 46H-10Q11 46 32 55T63 84L413 677L564 726L686 81Q692 46 729 46H751ZM456 243L416 517L260 243H456Z" />
<glyph unicode="&#xc1;" glyph-name="Aacute" horiz-adv-x="784" d="M421 774L398 821L547 957Q560 970 581 984T627 998Q652 998 664 986T676 957Q676 932 658 913T604 873L421 774ZM751 46L742 0H406L415 46H437Q479 46 479 82L478 92L466 177H223L177 96Q169
83 169 71Q169 58 178 52T202 46H224L215 0H-35L-26 46H-10Q11 46 32 55T63 84L413 677L564 726L686 81Q692 46 729 46H751ZM456 243L416 517L260 243H456Z" />
<glyph unicode="&#xc2;" glyph-name="Acircumflex" horiz-adv-x="784" d="M341 775L321 804L512 984H602L718 804L686 775L575 877Q555 897 539 897Q526 897 494 877L341 775ZM751 46L742 0H406L415 46H437Q479 46 479 82L478 92L466 177H223L177 96Q169 83 169
71Q169 58 178 52T202 46H224L215 0H-35L-26 46H-10Q11 46 32 55T63 84L413 677L564 726L686 81Q692 46 729 46H751ZM456 243L416 517L260 243H456Z" />
<glyph unicode="&#xc3;" glyph-name="Atilde" horiz-adv-x="784" d="M406 828T388 816T347 771L319 789Q352 842 388 877T476 913Q497 913 515 908T561 891Q585 880 604 874T645 868Q672 868 689 880T730 925L756 907Q730 858 692 821T602 783Q582 783 564 788T518
805Q493 816 474 822T433 828Q406 828 388 816ZM692 46T729 46H751L742 0H406L415 46H437Q479 46 479 82L478 92L466 177H223L177 96Q169 83 169 71Q169 58 178 52T202 46H224L215 0H-35L-26 46H-10Q11 46 32 55T63 84L413 677L564 726L686 81Q692 46 729 46ZM456
243L416 517L260 243H456Z" />
<glyph unicode="&#xc4;" glyph-name="Adieresis" horiz-adv-x="784" d="M350 775T336 790T321 829Q321 866 345 893T405 921Q433 921 448 906T464 864Q464 828 438 802T376 775Q350 775 336 790ZM584 775T570 790T555 829Q555 867 579 894T641 921Q669 921 684
906T699 864Q699 828 674 802T612 775Q584 775 570 790ZM751 46L742 0H406L415 46H437Q479 46 479 82L478 92L466 177H223L177 96Q169 83 169 71Q169 58 178 52T202 46H224L215 0H-35L-26 46H-10Q11 46 32 55T63 84L413 677L564 726L686 81Q692 46 729 46H751ZM456
243L416 517L260 243H456Z" />
<glyph unicode="&#xc5;" glyph-name="Aring" horiz-adv-x="784" d="M460 740T435 763T410 825Q410 838 413 851Q423 901 460 931T550 962Q595 962 620 939T645 877Q645 865 642 851Q632 801 595 771T505 740Q460 740 435 763ZM514 902T495 884T476 839Q476 821
487 810T517 799Q538 799 556 813T579 851Q580 855 580 862Q580 880 569 891T539 902Q514 902 495 884ZM751 46L742 0H406L415 46H437Q479 46 479 82L478 92L466 177H223L177 96Q169 83 169 71Q169 58 178 52T202 46H224L215 0H-35L-26 46H-10Q11 46 32 55T63 84L413
677L564 726L686 81Q692 46 729 46H751ZM456 243L416 517L260 243H456Z" />
<glyph unicode="&#xc6;" glyph-name="AE" horiz-adv-x="1015" d="M-14 46H2Q22 46 42 57T77 87L488 623L492 631Q494 639 494 643Q494 654 483 654H451L460 700H1069L1029 499H984Q986 517 986 532Q986 574 968 604T900 634H733L684 394H804Q833 394 847 417T875
482H910L861 241H826Q828 265 828 278Q828 302 820 315T790 329H671L617 65H813Q861 65 890 100T943 200H987L926 0H334L343 46H372Q424 46 433 85L451 177H248L231 155Q190 101 183 86Q180 80 180 71Q180 59 191 53T213 46H235L227 0H-23L-14 46ZM465 243L527
548L297 243H465Z" />
<glyph unicode="&#xc7;" glyph-name="Ccedilla" horiz-adv-x="704" d="M668 488L669 505Q669 577 625 609T516 642Q424 642 354 565T255 350Q242 280 242 233Q242 148 277 103T380 58Q529 58 608 175H669Q635 95 550 43T345 -10L319 -41Q355 -47 385 -65T415 -122Q415
-127 413 -141Q398 -214 338 -238T211 -262Q182 -262 155 -258L163 -218Q220 -218 256 -204T300 -151V-143Q300 -118 276 -106T228 -93L224 -81L285 -7Q168 6 110 72T52 247Q52 293 63 350Q97 515 206 612T486 710Q605 710 678 653Q681 650 686 650Q693 650 696
659L705 705H764L720 488H668Z" />
<glyph unicode="&#xc8;" glyph-name="Egrave" horiz-adv-x="655" d="M416 888T406 902T395 933Q395 955 413 976T466 998Q499 998 514 978T530 957L622 821L580 774L437 873Q416 888 406 902ZM624 499Q626 515 626 532Q626 634 542 634H372L323 394H444Q473 394
487 417T515 482H550L501 241H466Q468 265 468 278Q468 302 460 315T430 329H309L255 65H454Q502 65 531 100T583 200H628L566 0H-29L-20 46H11Q38 46 52 55T71 85L179 614Q180 618 180 625Q180 654 135 654H105L113 700H709L669 499H624Z" />
<glyph unicode="&#xc9;" glyph-name="Eacute" horiz-adv-x="655" d="M408 774L385 821L534 957Q544 968 566 983T613 998Q638 998 650 987T662 957Q662 932 644 913T590 873L408 774ZM624 499Q626 515 626 532Q626 634 542 634H372L323 394H444Q473 394 487 417T515
482H550L501 241H466Q468 265 468 278Q468 302 460 315T430 329H309L255 65H454Q502 65 531 100T583 200H628L566 0H-29L-20 46H11Q38 46 52 55T71 85L179 614Q180 618 180 625Q180 654 135 654H105L113 700H709L669 499H624Z" />
<glyph unicode="&#xca;" glyph-name="Ecircumflex" horiz-adv-x="655" d="M311 775L291 804L482 984H572L688 804L657 775L545 877Q525 897 509 897Q495 897 465 877L311 775ZM624 499Q626 515 626 532Q626 634 542 634H372L323 394H444Q473 394 487 417T515 482H550L501
241H466Q468 265 468 278Q468 302 460 315T430 329H309L255 65H454Q502 65 531 100T583 200H628L566 0H-29L-20 46H11Q38 46 52 55T71 85L179 614Q180 618 180 625Q180 654 135 654H105L113 700H709L669 499H624Z" />
<glyph unicode="&#xcb;" glyph-name="Edieresis" horiz-adv-x="655" d="M354 775T339 790T324 829Q324 866 348 893T409 921Q437 921 452 905T468 864Q468 828 442 802T380 775Q354 775 339 790ZM588 775T574 790T559 829Q559 867 583 894T645 921Q673 921 688
906T703 864Q703 828 677 802T615 775Q588 775 574 790ZM624 499Q626 515 626 532Q626 634 542 634H372L323 394H444Q473 394 487 417T515 482H550L501 241H466Q468 265 468 278Q468 302 460 315T430 329H309L255 65H454Q502 65 531 100T583 200H628L566 0H-29L-20
46H11Q38 46 52 55T71 85L179 614Q180 618 180 625Q180 654 135 654H105L113 700H709L669 499H624Z" />
<glyph unicode="&#xcc;" glyph-name="Igrave" horiz-adv-x="387" d="M262 873Q241 888 231 902T220 933Q220 955 238 976T291 998Q324 998 339 978T355 957L447 821L405 774L262 873ZM-13 46H16Q69 46 78 85L185 614Q186 618 186 625Q186 654 141 654H111L120
700H474L466 654H435Q383 654 374 614L267 85Q266 81 266 74Q266 60 276 53T310 46H341L332 0H-22L-13 46Z" />
<glyph unicode="&#xcd;" glyph-name="Iacute" horiz-adv-x="387" d="M196 821L345 957Q355 968 377 983T424 998Q449 998 461 987T473 957Q473 932 455 913T401 873L219 774L196 821ZM-13 46H16Q69 46 78 85L185 614Q186 618 186 625Q186 654 141 654H111L120
700H474L466 654H435Q383 654 374 614L267 85Q266 81 266 74Q266 60 276 53T310 46H341L332 0H-22L-13 46Z" />
<glyph unicode="&#xce;" glyph-name="Icircumflex" horiz-adv-x="387" d="M118 804L309 984H399L516 804L484 775L372 877Q352 897 336 897Q322 897 292 877L138 775L118 804ZM-13 46H16Q69 46 78 85L185 614Q186 618 186 625Q186 654 141 654H111L120 700H474L466
654H435Q383 654 374 614L267 85Q266 81 266 74Q266 60 276 53T310 46H341L332 0H-22L-13 46Z" />
<glyph unicode="&#xcf;" glyph-name="Idieresis" horiz-adv-x="387" d="M166 775T152 790T137 829Q137 866 161 893T222 921Q250 921 265 906T280 864Q280 828 255 802T193 775Q166 775 152 790ZM401 775T387 790T372 829Q372 867 396 894T458 921Q485 921 500
905T516 864Q516 828 490 802T428 775Q401 775 387 790ZM-13 46H16Q69 46 78 85L185 614Q186 618 186 625Q186 654 141 654H111L120 700H474L466 654H435Q383 654 374 614L267 85Q266 81 266 74Q266 60 276 53T310 46H341L332 0H-22L-13 46Z" />
<glyph unicode="&#xd0;" glyph-name="Eth" horiz-adv-x="748" d="M612 700T683 642T754 464Q754 411 741 350Q705 171 604 86T321 0H-29L-20 46H11Q63 46 72 85L115 294H33L50 377H132L180 614V625Q180 654 135 654H105L113 700H464Q612 700 683 642ZM564 424T564
478Q564 556 535 595T449 635H372L319 377H498L481 294H303L256 65H332Q408 65 464 137T549 350Q564 424 564 478Z" />
<glyph unicode="&#xd1;" glyph-name="Ntilde" horiz-adv-x="766" d="M311 789Q344 841 380 877T468 913Q489 913 507 908T553 891Q577 880 596 874T637 868Q664 868 681 880T722 925L749 907Q680 783 594 783Q574 783 556 788T512 805Q480 817 463 822T425 828Q399
828 381 816T339 771L311 789ZM-19 46H12Q39 46 53 55T72 85L180 614V625Q180 654 136 654H106L114 700H377L609 238L685 614Q686 618 686 625Q686 654 641 654H611L619 700H859L851 654H820Q768 654 759 614L635 0H539L248 587L146 85Q145 81 145 74Q145 60 155
53T189 46H220L211 0H-28L-19 46Z" />
<glyph unicode="&#xd2;" glyph-name="Ograve" horiz-adv-x="798" d="M466 873Q445 889 434 903T423 933Q423 955 441 976T494 998Q528 998 543 978T559 957L651 821L609 774L466 873ZM201 -10T126 58T50 247Q50 293 61 350Q96 517 207 613T504 710Q661 710 736
642T812 451Q812 401 802 350Q767 182 656 86T357 -10Q201 -10 126 58ZM456 59T518 135T610 350Q623 420 623 467Q623 552 589 597T490 643Q406 643 344 566T253 350Q240 279 240 232Q240 148 273 104T371 59Q456 59 518 135Z" />
<glyph unicode="&#xd3;" glyph-name="Oacute" horiz-adv-x="798" d="M401 821L550 957Q563 970 584 984T630 998Q655 998 667 986T679 957Q679 932 661 913T607 873L424 774L401 821ZM201 -10T126 58T50 247Q50 293 61 350Q96 517 207 613T504 710Q661 710 736
642T812 451Q812 401 802 350Q767 182 656 86T357 -10Q201 -10 126 58ZM456 59T518 135T610 350Q623 420 623 467Q623 552 589 597T490 643Q406 643 344 566T253 350Q240 279 240 232Q240 148 273 104T371 59Q456 59 518 135Z" />
<glyph unicode="&#xd4;" glyph-name="Ocircumflex" horiz-adv-x="798" d="M324 804L515 984H605L721 804L689 775L578 877Q556 897 541 897Q529 897 497 877L344 775L324 804ZM201 -10T126 58T50 247Q50 293 61 350Q96 517 207 613T504 710Q661 710 736 642T812
451Q812 401 802 350Q767 182 656 86T357 -10Q201 -10 126 58ZM456 59T518 135T610 350Q623 420 623 467Q623 552 589 597T490 643Q406 643 344 566T253 350Q240 279 240 232Q240 148 273 104T371 59Q456 59 518 135Z" />
<glyph unicode="&#xd5;" glyph-name="Otilde" horiz-adv-x="798" d="M304 789Q337 841 373 877T462 913Q482 913 501 908T545 891Q570 880 589 874T631 868Q657 868 674 880T715 925L742 907Q673 783 588 783Q568 783 550 788T504 805Q479 816 460 822T419 828Q392
828 374 816T332 771L304 789ZM201 -10T126 58T50 247Q50 293 61 350Q96 517 207 613T504 710Q661 710 736 642T812 451Q812 401 802 350Q767 182 656 86T357 -10Q201 -10 126 58ZM456 59T518 135T610 350Q623 420 623 467Q623 552 589 597T490 643Q406 643 344
566T253 350Q240 279 240 232Q240 148 273 104T371 59Q456 59 518 135Z" />
<glyph unicode="&#xd6;" glyph-name="Odieresis" horiz-adv-x="798" d="M372 775T358 790T343 829Q343 866 367 893T427 921Q455 921 470 906T486 864Q486 828 460 802T398 775Q372 775 358 790ZM606 775T592 790T577 829Q577 867 601 894T663 921Q691 921 706
906T721 864Q721 828 696 802T634 775Q606 775 592 790ZM201 -10T126 58T50 247Q50 293 61 350Q96 517 207 613T504 710Q661 710 736 642T812 451Q812 401 802 350Q767 182 656 86T357 -10Q201 -10 126 58ZM456 59T518 135T610 350Q623 420 623 467Q623 552 589
597T490 643Q406 643 344 566T253 350Q240 279 240 232Q240 148 273 104T371 59Q456 59 518 135Z" />
<glyph unicode="&#xd7;" glyph-name="multiply" horiz-adv-x="592" d="M46 146L227 299L108 452L212 543L335 379L523 543L591 452L410 299L529 146L423 56L302 219L112 56L46 146Z" />
<glyph unicode="&#xd8;" glyph-name="Oslash" horiz-adv-x="798" d="M812 567T812 451Q812 401 802 350Q767 182 656 86T357 -10Q213 -10 136 50L44 -38L3 5L94 92Q50 154 50 247Q50 293 61 350Q96 517 207 613T504 710Q621 710 695 670L756 729L801 685L746 633Q812
567 812 451ZM240 279T240 233L600 579Q568 643 490 643Q406 643 344 566T253 350Q240 279 240 233ZM623 420T623 467Q623 491 620 512L248 157Q261 109 292 84T371 59Q456 59 518 135T610 350Q623 420 623 467Z" />
<glyph unicode="&#xd9;" glyph-name="Ugrave" horiz-adv-x="788" d="M493 873Q472 889 462 903T451 933Q451 955 469 976T522 998Q556 998 571 978T587 957L679 821L636 774L493 873ZM231 -10T163 34T94 167Q94 194 100 224L180 614V625Q180 654 136 654H107L115
700H468L459 654H429Q377 654 369 614L286 209Q281 184 281 168Q281 110 320 84T420 58Q492 58 550 94T625 209L708 614V625Q708 654 664 654H635L643 700H880L872 654H842Q790 654 781 614L702 224Q679 111 592 51T362 -10Q231 -10 163 34Z" />
<glyph unicode="&#xda;" glyph-name="Uacute" horiz-adv-x="788" d="M428 821L577 957Q590 970 611 984T657 998Q682 998 694 986T706 957Q706 932 688 913T634 873L451 774L428 821ZM231 -10T163 34T94 167Q94 194 100 224L180 614V625Q180 654 136 654H107L115
700H468L459 654H429Q377 654 369 614L286 209Q281 184 281 168Q281 110 320 84T420 58Q492 58 550 94T625 209L708 614V625Q708 654 664 654H635L643 700H880L872 654H842Q790 654 781 614L702 224Q679 111 592 51T362 -10Q231 -10 163 34Z" />
<glyph unicode="&#xdb;" glyph-name="Ucircumflex" horiz-adv-x="788" d="M350 804L541 984H632L748 804L716 775L605 877Q583 897 568 897Q554 897 524 877L371 775L350 804ZM231 -10T163 34T94 167Q94 194 100 224L180 614V625Q180 654 136 654H107L115 700H468L459
654H429Q377 654 369 614L286 209Q281 184 281 168Q281 110 320 84T420 58Q492 58 550 94T625 209L708 614V625Q708 654 664 654H635L643 700H880L872 654H842Q790 654 781 614L702 224Q679 111 592 51T362 -10Q231 -10 163 34Z" />
<glyph unicode="&#xdc;" glyph-name="Udieresis" horiz-adv-x="788" d="M399 775T385 790T370 829Q370 866 394 893T454 921Q482 921 497 905T513 864Q513 828 487 802T425 775Q399 775 385 790ZM633 775T619 790T604 829Q604 867 628 894T690 921Q718 921 733
906T748 864Q748 828 722 802T660 775Q633 775 619 790ZM231 -10T163 34T94 167Q94 194 100 224L180 614V625Q180 654 136 654H107L115 700H468L459 654H429Q377 654 369 614L286 209Q281 184 281 168Q281 110 320 84T420 58Q492 58 550 94T625 209L708 614V625Q708
654 664 654H635L643 700H880L872 654H842Q790 654 781 614L702 224Q679 111 592 51T362 -10Q231 -10 163 34Z" />
<glyph unicode="&#xdd;" glyph-name="Yacute" horiz-adv-x="729" d="M420 822L568 958Q581 971 602 985T648 999Q673 999 685 988T697 958Q697 933 679 914T625 874L443 775L420 822ZM149 46H180Q207 46 221 55T240 85L280 286L169 618Q162 637 152 645T127 654H105L113
700H436L427 654H399Q383 654 373 646T362 624Q362 620 364 612L432 366L612 604Q623 621 623 631Q623 642 614 648T593 654H564L573 700H823L814 654H798Q778 654 758 644T724 615L469 284L429 85Q428 81 428 74Q428 46 473 46H504L495 0H140L149 46Z" />
<glyph unicode="&#xde;" glyph-name="Thorn" horiz-adv-x="654" d="M171 574Q172 578 172 585Q172 610 146 610Q144 610 125 606L124 644L343 710H378L314 392Q344 431 386 455T475 480Q557 480 604 438T651 314Q651 284 643 246Q615 109 540 50T343 -10Q308 -10
281 2T241 36L189 -221L6 -231L171 574ZM382 54T414 103T464 241Q476 310 476 339Q476 378 463 397T420 416Q402 416 373 391T318 328T287 259L268 165Q264 149 264 130Q264 95 281 75T331 54Q382 54 414 103Z" />
<glyph unicode="&#xdf;" glyph-name="germandbls" horiz-adv-x="798" d="M597 342T614 329T667 301Q702 285 723 272T759 236T775 179Q775 161 771 145Q757 74 694 32T544 -10Q426 -10 378 18T329 89Q329 123 348 141T393 160Q410 160 421 152T433 130Q433 116
426 107Q420 99 420 88Q420 72 438 63T485 54Q519 54 547 68T582 110Q586 130 571 141T522 167Q487 182 464 196T425 236T408 301Q408 318 413 343Q423 394 465 435T564 490Q569 528 569 547Q569 593 547 624T470 655Q431 655 400 630T360 558L217 -142L34 -151L148
406H68L81 470H161L172 526Q192 626 276 674T475 722Q622 722 677 661T732 520Q732 495 728 473L721 441Q670 441 634 420T597 363Q597 342 614 329Z" />
<glyph unicode="&#xe0;" glyph-name="agrave" horiz-adv-x="642" d="M349 649Q328 665 318 679T307 709Q307 731 325 752T378 774Q412 774 427 754T443 733L535 597L492 550L349 649ZM91 -10T64 29T37 128Q37 160 45 194Q68 309 139 394T344 480Q366 480 395 473T439
450L443 470H624L546 86Q544 74 544 71Q544 50 565 50Q574 50 587 53T608 58L601 27Q575 10 538 0T463 -10Q421 -10 390 3T358 48Q358 52 360 62L378 154Q339 87 277 39T153 -10Q91 -10 64 29ZM247 59T287 103T363 203T406 289L422 368Q419 391 411 401T383 412Q347
412 313 383T254 306T216 202Q209 160 209 120Q209 59 226 59Q247 59 287 103Z" />
<glyph unicode="&#xe1;" glyph-name="aacute" horiz-adv-x="642" d="M323 597L471 733Q484 746 505 760T551 774Q576 774 588 763T600 733Q600 708 582 689T528 649L346 550L323 597ZM91 -10T64 29T37 128Q37 160 45 194Q68 309 139 394T344 480Q366 480 395 473T439
450L443 470H624L546 86Q544 74 544 71Q544 50 565 50Q574 50 587 53T608 58L601 27Q575 10 538 0T463 -10Q421 -10 390 3T358 48Q358 52 360 62L378 154Q339 87 277 39T153 -10Q91 -10 64 29ZM247 59T287 103T363 203T406 289L422 368Q419 391 411 401T383 412Q347
412 313 383T254 306T216 202Q209 160 209 120Q209 59 226 59Q247 59 287 103Z" />
<glyph unicode="&#xe2;" glyph-name="acircumflex" horiz-adv-x="642" d="M212 580L403 760H493L610 580L578 551L467 653Q445 673 430 673Q416 673 386 653L232 551L212 580ZM91 -10T64 29T37 128Q37 160 45 194Q68 309 139 394T344 480Q366 480 395 473T439
450L443 470H624L546 86Q544 74 544 71Q544 50 565 50Q574 50 587 53T608 58L601 27Q575 10 538 0T463 -10Q421 -10 390 3T358 48Q358 52 360 62L378 154Q339 87 277 39T153 -10Q91 -10 64 29ZM247 59T287 103T363 203T406 289L422 368Q419 391 411 401T383 412Q347
412 313 383T254 306T216 202Q209 160 209 120Q209 59 226 59Q247 59 287 103Z" />
<glyph unicode="&#xe3;" glyph-name="atilde" horiz-adv-x="642" d="M203 565Q234 616 271 652T360 689Q380 689 398 684T444 667Q469 656 488 650T529 644Q556 644 573 656T613 701L640 683Q571 559 486 559Q466 559 448 564T402 581Q377 592 358 598T317 604Q290
604 272 592T230 547L203 565ZM91 -10T64 29T37 128Q37 160 45 194Q68 309 139 394T344 480Q366 480 395 473T439 450L443 470H624L546 86Q544 74 544 71Q544 50 565 50Q574 50 587 53T608 58L601 27Q575 10 538 0T463 -10Q421 -10 390 3T358 48Q358 52 360 62L378
154Q339 87 277 39T153 -10Q91 -10 64 29ZM247 59T287 103T363 203T406 289L422 368Q419 391 411 401T383 412Q347 412 313 383T254 306T216 202Q209 160 209 120Q209 59 226 59Q247 59 287 103Z" />
<glyph unicode="&#xe4;" glyph-name="adieresis" horiz-adv-x="642" d="M255 551T241 566T226 605Q226 642 250 669T310 697Q338 697 353 681T369 640Q369 604 343 578T281 551Q255 551 241 566ZM489 551T475 566T460 605Q460 643 484 670T546 697Q574 697 589
682T604 640Q604 604 578 578T516 551Q489 551 475 566ZM91 -10T64 29T37 128Q37 160 45 194Q68 309 139 394T344 480Q366 480 395 473T439 450L443 470H624L546 86Q544 74 544 71Q544 50 565 50Q574 50 587 53T608 58L601 27Q575 10 538 0T463 -10Q421 -10 390
3T358 48Q358 52 360 62L378 154Q339 87 277 39T153 -10Q91 -10 64 29ZM247 59T287 103T363 203T406 289L422 368Q419 391 411 401T383 412Q347 412 313 383T254 306T216 202Q209 160 209 120Q209 59 226 59Q247 59 287 103Z" />
<glyph unicode="&#xe5;" glyph-name="aring" horiz-adv-x="642" d="M369 550T344 573T319 635Q319 648 322 661Q332 711 369 741T459 772Q503 772 528 749T554 687Q554 675 551 661Q541 611 504 581T414 550Q369 550 344 573ZM447 609T465 623T488 661Q489 665
489 672Q489 690 477 701T447 712Q423 712 404 694T385 649Q385 631 396 620T426 609Q447 609 465 623ZM91 -10T64 29T37 128Q37 160 45 194Q68 309 139 394T344 480Q366 480 395 473T439 450L443 470H624L546 86Q544 74 544 71Q544 50 565 50Q574 50 587 53T608
58L601 27Q575 10 538 0T463 -10Q421 -10 390 3T358 48Q358 52 360 62L378 154Q339 87 277 39T153 -10Q91 -10 64 29ZM247 59T287 103T363 203T406 289L422 368Q419 391 411 401T383 412Q347 412 313 383T254 306T216 202Q209 160 209 120Q209 59 226 59Q247 59
287 103Z" />
<glyph unicode="&#xe6;" glyph-name="ae" horiz-adv-x="850" d="M73 -10T33 12T-8 78Q-8 83 -6 97Q9 172 91 217T325 285Q339 316 350 336L351 347Q351 380 330 396T275 413Q242 413 216 399T187 372Q186 369 186 362V350Q186 342 185 338Q181 318 164 304T117
290Q95 290 80 303T65 343Q65 349 67 361Q79 417 147 448T328 480Q417 480 473 445Q545 480 638 480Q750 480 801 452T853 368Q853 359 851 337Q833 249 732 208T489 159Q491 108 517 78T592 48Q655 48 698 77T768 172H812Q788 92 721 41T553 -10Q405 -10 345 56Q265
-10 143 -10Q73 -10 33 12ZM679 242T698 336Q701 351 701 363Q701 416 638 419Q581 419 546 364T495 234Q494 230 493 225T492 213Q679 242 698 336ZM252 58T277 67T321 89Q303 124 303 169Q303 195 311 232Q244 206 214 174T178 111Q177 106 177 98Q177 79 190
69T227 58Q252 58 277 67Z" />
<glyph unicode="&#xe7;" glyph-name="ccedilla" horiz-adv-x="569" d="M562 480T562 369Q562 360 558 338Q554 318 535 300T494 281Q473 281 462 291T451 318Q451 331 460 347Q466 359 468 367Q471 386 451 402T393 419Q321 419 276 367T215 234Q208 203 208 171Q208
115 233 82T310 48Q373 48 415 77T484 172H528Q504 92 437 41T271 -10H265L233 -48Q269 -54 299 -72T329 -129Q329 -134 327 -148Q312 -220 252 -244T126 -269Q96 -269 69 -265L78 -225Q135 -225 170 -211T214 -158Q215 -155 215 -150Q215 -125 191 -113T143 -100L138
-88L206 -6Q24 17 24 171Q24 203 31 235Q46 306 89 361T202 448T358 480Q562 480 562 369Z" />
<glyph unicode="&#xe8;" glyph-name="egrave" horiz-adv-x="566" d="M310 664T300 678T289 709Q289 731 307 752T360 774Q395 774 424 733L516 597L474 550L331 649Q310 664 300 678ZM552 249T451 208T208 159Q211 108 237 78T312 48Q375 48 418 77T488 172H532Q508
92 441 41T273 -10Q150 -10 87 35T24 172Q24 203 31 235Q53 346 140 413T358 480Q471 480 522 452T573 368Q573 354 570 337Q552 249 451 208ZM420 346T420 363Q420 416 358 419Q301 419 266 364T215 234Q213 227 211 213Q398 244 418 336Q420 346 420 363Z" />
<glyph unicode="&#xe9;" glyph-name="eacute" horiz-adv-x="566" d="M317 550L294 597L443 733Q453 744 475 759T522 774Q547 774 559 763T571 733Q571 708 553 689T499 649L317 550ZM552 249T451 208T208 159Q211 108 237 78T312 48Q375 48 418 77T488 172H532Q508
92 441 41T273 -10Q150 -10 87 35T24 172Q24 203 31 235Q53 346 140 413T358 480Q471 480 522 452T573 368Q573 354 570 337Q552 249 451 208ZM420 346T420 363Q420 416 358 419Q301 419 266 364T215 234Q213 227 211 213Q398 244 418 336Q420 346 420 363Z" />
<glyph unicode="&#xea;" glyph-name="ecircumflex" horiz-adv-x="566" d="M207 551L187 580L378 760H468L585 580L553 551L442 653Q420 673 405 673Q391 673 361 653L207 551ZM471 480T522 452T573 368Q573 354 570 337Q552 249 451 208T208 159Q211 108 237 78T312
48Q375 48 418 77T488 172H532Q508 92 441 41T273 -10Q150 -10 87 35T24 172Q24 203 31 235Q53 346 140 413T358 480Q471 480 522 452ZM420 346T420 363Q420 416 358 419Q301 419 266 364T215 234Q213 227 211 213Q398 244 418 336Q420 346 420 363Z" />
<glyph unicode="&#xeb;" glyph-name="edieresis" horiz-adv-x="566" d="M238 551T223 566T208 605Q208 642 232 669T293 697Q321 697 336 682T351 640Q351 604 326 578T264 551Q238 551 223 566ZM472 551T458 566T443 605Q443 643 467 670T529 697Q556 697 571
681T587 640Q587 604 561 578T499 551Q472 551 458 566ZM471 480T522 452T573 368Q573 354 570 337Q552 249 451 208T208 159Q211 108 237 78T312 48Q375 48 418 77T488 172H532Q508 92 441 41T273 -10Q150 -10 87 35T24 172Q24 203 31 235Q53 346 140 413T358
480Q471 480 522 452ZM420 346T420 363Q420 416 358 419Q301 419 266 364T215 234Q213 227 211 213Q398 244 418 336Q420 346 420 363Z" />
<glyph unicode="&#xec;" glyph-name="igrave" horiz-adv-x="385" d="M216 649Q195 664 185 678T174 709Q174 731 192 752T245 774Q278 774 293 754T309 733L401 597L359 550L216 649ZM136 -10T105 3T74 48Q74 52 76 62L133 344Q134 348 134 355Q134 379 108 379Q107
379 88 375L86 413L307 480H343L262 86Q260 74 260 71Q260 50 281 50Q290 50 303 53T324 58L317 27Q291 10 253 0T177 -10Q136 -10 105 3Z" />
<glyph unicode="&#xed;" glyph-name="iacute" horiz-adv-x="385" d="M150 597L299 733Q309 744 331 759T378 774Q403 774 415 763T427 733Q427 708 409 689T355 649L173 550L150 597ZM136 -10T105 3T74 48Q74 52 76 62L133 344Q134 348 134 355Q134 379 108 379Q107
379 88 375L86 413L307 480H343L262 86Q260 74 260 71Q260 50 281 50Q290 50 303 53T324 58L317 27Q291 10 253 0T177 -10Q136 -10 105 3Z" />
<glyph unicode="&#xee;" glyph-name="icircumflex" horiz-adv-x="385" d="M72 580L263 760H353L469 580L438 551L326 653Q306 673 290 673Q276 673 246 653L92 551L72 580ZM136 -10T105 3T74 48Q74 52 76 62L133 344Q134 348 134 355Q134 379 108 379Q107 379
88 375L86 413L307 480H343L262 86Q260 74 260 71Q260 50 281 50Q290 50 303 53T324 58L317 27Q291 10 253 0T177 -10Q136 -10 105 3Z" />
<glyph unicode="&#xef;" glyph-name="idieresis" horiz-adv-x="385" d="M120 551T106 566T91 605Q91 642 115 669T176 697Q204 697 219 682T234 640Q234 604 209 578T147 551Q120 551 106 566ZM355 551T340 566T325 605Q325 643 350 670T412 697Q439 697 454 681T469
640Q469 604 444 578T382 551Q355 551 340 566ZM136 -10T105 3T74 48Q74 52 76 62L133 344Q134 348 134 355Q134 379 108 379Q107 379 88 375L86 413L307 480H343L262 86Q260 74 260 71Q260 50 281 50Q290 50 303 53T324 58L317 27Q291 10 253 0T177 -10Q136 -10
105 3Z" />
<glyph unicode="&#xf0;" glyph-name="eth" horiz-adv-x="606" d="M491 642Q548 579 578 505T608 358Q608 321 601 290Q572 148 484 69T250 -10Q138 -10 82 45T25 189Q25 218 31 248Q44 312 83 369T192 464T360 502Q377 502 401 498T441 488Q426 540 390 589L193
486L182 571Q286 625 333 651Q294 687 242 714L305 776Q374 744 427 701L587 789L621 710L491 642ZM421 292T421 323Q421 373 402 405T350 437Q306 437 268 384T213 248Q204 203 204 164Q204 114 219 84T265 54Q315 54 356 115T416 269Q421 292 421 323Z" />
<glyph unicode="&#xf1;" glyph-name="ntilde" horiz-adv-x="714" d="M328 604T310 592T268 547L240 565Q273 617 309 653T397 689Q418 689 436 684T482 667Q506 656 525 650T566 644Q593 644 610 656T651 701L678 683Q609 559 523 559Q503 559 485 564T441 581Q409
593 392 598T354 604Q328 604 310 592ZM598 49T619 49Q628 49 641 52T662 57L656 26Q630 9 592 -1T516 -11Q474 -11 444 2T413 48Q413 56 414 61L468 325Q472 349 472 357Q472 411 417 411Q397 411 372 396T323 347T287 264L234 0L51 -10L123 343L125 355Q125 368
117 373T98 379Q97 379 78 375L77 413L295 479H331L315 398Q347 438 397 459T496 480Q576 480 615 451T655 371Q655 357 652 340L600 85Q598 73 598 71Q598 49 619 49Z" />
<glyph unicode="&#xf2;" glyph-name="ograve" horiz-adv-x="625" d="M336 649Q315 664 305 678T294 709Q294 731 312 752T365 774Q398 774 413 754T429 733L521 597L479 550L336 649ZM149 -10T87 36T24 171Q24 203 31 235Q56 356 142 418T372 480Q495 480 557
435T619 301Q619 277 612 235Q587 114 501 52T272 -10Q149 -10 87 36ZM335 54T373 100T429 235Q438 279 438 311Q438 363 417 389T359 416Q308 416 270 370T213 235Q204 193 204 160Q204 108 225 81T285 54Q335 54 373 100Z" />
<glyph unicode="&#xf3;" glyph-name="oacute" horiz-adv-x="625" d="M270 597L419 733Q429 744 451 759T498 774Q523 774 535 763T547 733Q547 708 529 689T475 649L293 550L270 597ZM149 -10T87 36T24 171Q24 203 31 235Q56 356 142 418T372 480Q495 480 557
435T619 301Q619 277 612 235Q587 114 501 52T272 -10Q149 -10 87 36ZM335 54T373 100T429 235Q438 279 438 311Q438 363 417 389T359 416Q308 416 270 370T213 235Q204 193 204 160Q204 108 225 81T285 54Q335 54 373 100Z" />
<glyph unicode="&#xf4;" glyph-name="ocircumflex" horiz-adv-x="625" d="M193 580L384 760H474L590 580L559 551L447 653Q427 673 411 673Q397 673 367 653L213 551L193 580ZM149 -10T87 36T24 171Q24 203 31 235Q56 356 142 418T372 480Q495 480 557 435T619
301Q619 277 612 235Q587 114 501 52T272 -10Q149 -10 87 36ZM335 54T373 100T429 235Q438 279 438 311Q438 363 417 389T359 416Q308 416 270 370T213 235Q204 193 204 160Q204 108 225 81T285 54Q335 54 373 100Z" />
<glyph unicode="&#xf5;" glyph-name="otilde" horiz-adv-x="625" d="M181 565Q214 617 250 653T339 689Q359 689 378 684T422 667Q447 656 466 650T508 644Q535 644 552 656T592 701L619 683Q550 559 465 559Q445 559 427 564T381 581Q356 592 337 598T296 604Q269
604 251 592T209 547L181 565ZM149 -10T87 36T24 171Q24 203 31 235Q56 356 142 418T372 480Q495 480 557 435T619 301Q619 277 612 235Q587 114 501 52T272 -10Q149 -10 87 36ZM335 54T373 100T429 235Q438 279 438 311Q438 363 417 389T359 416Q308 416 270 370T213
235Q204 193 204 160Q204 108 225 81T285 54Q335 54 373 100Z" />
<glyph unicode="&#xf6;" glyph-name="odieresis" horiz-adv-x="625" d="M241 551T227 566T212 605Q212 642 236 669T297 697Q325 697 340 682T355 640Q355 604 330 578T268 551Q241 551 227 566ZM476 551T461 566T446 605Q446 643 471 670T533 697Q560 697 575
681T590 640Q590 604 565 578T503 551Q476 551 461 566ZM149 -10T87 36T24 171Q24 203 31 235Q56 356 142 418T372 480Q495 480 557 435T619 301Q619 277 612 235Q587 114 501 52T272 -10Q149 -10 87 36ZM335 54T373 100T429 235Q438 279 438 311Q438 363 417 389T359
416Q308 416 270 370T213 235Q204 193 204 160Q204 108 225 81T285 54Q335 54 373 100Z" />
<glyph unicode="&#xf7;" glyph-name="divide" horiz-adv-x="592" d="M294 390T277 408T259 455Q259 500 288 532T362 564Q394 564 412 546T430 497Q430 491 428 477Q420 439 392 415T326 390Q294 390 277 408ZM63 347H591L573 255H45L63 347ZM222 37T205 55T188
103Q188 149 217 180T290 211Q322 211 340 193T358 145Q358 101 328 69T254 37Q222 37 205 55Z" />
<glyph unicode="&#xf8;" glyph-name="oslash" horiz-adv-x="625" d="M619 379T619 301Q619 277 612 235Q587 114 501 52T272 -10Q168 -10 105 24L36 -35L-5 10L57 64Q24 106 24 171Q24 203 31 235Q56 356 142 418T372 480Q457 480 513 458L594 529L637 481L570
424Q619 379 619 301ZM207 204T206 193L423 381Q402 416 359 416Q308 416 270 370T213 235Q207 204 206 193ZM335 54T373 100T429 235Q438 279 438 310L209 114Q217 84 236 69T285 54Q335 54 373 100Z" />
<glyph unicode="&#xf9;" glyph-name="ugrave" horiz-adv-x="682" d="M333 664T323 678T312 709Q312 731 330 752T383 774Q418 774 447 733L540 597L497 550L354 649Q333 664 323 678ZM578 50T599 50Q608 50 621 53T641 58L635 27Q609 9 573 0T500 -10Q459 -10
427 7T395 60Q395 65 396 67Q364 29 314 10T216 -10Q136 -10 97 19T57 99Q57 114 60 130L103 343Q105 351 105 355Q105 368 97 373T78 379Q77 379 58 375L56 413L275 479H311L243 145Q239 121 239 114Q239 58 296 58Q315 58 340 72T387 119T422 203L451 343Q453
351 453 355Q453 379 426 379Q425 379 406 375L404 413L623 479H660L580 86Q578 74 578 71Q578 50 599 50Z" />
<glyph unicode="&#xfa;" glyph-name="uacute" horiz-adv-x="682" d="M359 550L336 597L485 733Q498 746 519 760T564 774Q589 774 601 763T613 733Q613 708 596 688T541 649L359 550ZM578 50T599 50Q608 50 621 53T641 58L635 27Q609 9 573 0T500 -10Q459 -10
427 7T395 60Q395 65 396 67Q364 29 314 10T216 -10Q136 -10 97 19T57 99Q57 114 60 130L103 343Q105 351 105 355Q105 368 97 373T78 379Q77 379 58 375L56 413L275 479H311L243 145Q239 121 239 114Q239 58 296 58Q315 58 340 72T387 119T422 203L451 343Q453
351 453 355Q453 379 426 379Q425 379 406 375L404 413L623 479H660L580 86Q578 74 578 71Q578 50 599 50Z" />
<glyph unicode="&#xfb;" glyph-name="ucircumflex" horiz-adv-x="682" d="M230 551L210 580L401 760H492L608 580L576 551L465 653Q443 673 428 673Q414 673 384 653L230 551ZM578 50T599 50Q608 50 621 53T641 58L635 27Q609 9 573 0T500 -10Q459 -10 427 7T395
60Q395 65 396 67Q364 29 314 10T216 -10Q136 -10 97 19T57 99Q57 114 60 130L103 343Q105 351 105 355Q105 368 97 373T78 379Q77 379 58 375L56 413L275 479H311L243 145Q239 121 239 114Q239 58 296 58Q315 58 340 72T387 119T422 203L451 343Q453 351 453 355Q453
379 426 379Q425 379 406 375L404 413L623 479H660L580 86Q578 74 578 71Q578 50 599 50Z" />
<glyph unicode="&#xfc;" glyph-name="udieresis" horiz-adv-x="682" d="M259 551T244 566T229 605Q229 642 253 669T314 697Q342 697 357 682T372 640Q372 604 347 578T285 551Q259 551 244 566ZM493 551T479 566T464 605Q464 643 488 670T550 697Q578 697 593
682T608 640Q608 604 582 578T520 551Q493 551 479 566ZM578 50T599 50Q608 50 621 53T641 58L635 27Q609 9 573 0T500 -10Q459 -10 427 7T395 60Q395 65 396 67Q364 29 314 10T216 -10Q136 -10 97 19T57 99Q57 114 60 130L103 343Q105 351 105 355Q105 368 97
373T78 379Q77 379 58 375L56 413L275 479H311L243 145Q239 121 239 114Q239 58 296 58Q315 58 340 72T387 119T422 203L451 343Q453 351 453 355Q453 379 426 379Q425 379 406 375L404 413L623 479H660L580 86Q578 74 578 71Q578 50 599 50Z" />
<glyph unicode="&#xfd;" glyph-name="yacute" horiz-adv-x="631" d="M349 550L326 597L475 733Q488 746 509 760T555 774Q580 774 592 762T604 733Q604 708 586 689T532 649L349 550ZM623 480T642 463T661 416L660 397Q655 373 634 343T570 260Q550 236 532 213L202
-206Q171 -245 131 -265T44 -286Q15 -286 -7 -267T-30 -217Q-30 -208 -29 -203Q-24 -182 -6 -165T34 -147Q54 -147 62 -157T76 -187Q80 -200 83 -205T95 -211Q109 -211 124 -196T165 -148L281 1L125 382Q123 388 112 388Q99 388 84 381T63 372L59 411L239 470H278L395
147L438 202Q453 222 470 265T495 350Q502 387 502 407Q502 437 493 450Q539 480 588 480Q623 480 642 463Z" />
<glyph unicode="&#xfe;" glyph-name="thorn" horiz-adv-x="653" d="M166 564L168 576Q168 599 142 599Q135 599 122 596L120 634L341 701H377L321 425Q379 480 476 480Q556 480 603 437T651 312Q651 284 643 246Q615 109 539 50T342 -10Q308 -10 280 2T241 35L189
-219L6 -231L166 564ZM380 54T412 103T462 241Q472 298 472 328Q472 373 455 394T400 415Q383 415 361 402T322 365T297 310L268 165Q264 149 264 130Q264 95 281 75T330 54Q380 54 412 103Z" />
<glyph unicode="&#xff;" glyph-name="ydieresis" horiz-adv-x="631" d="M272 551T258 566T243 605Q243 642 267 669T327 697Q355 697 370 682T386 640Q386 604 361 578T299 551Q272 551 258 566ZM506 551T492 566T477 605Q477 643 502 670T564 697Q591 697 606
681T621 640Q621 604 596 578T534 551Q506 551 492 566ZM623 480T642 463T661 416L660 397Q655 373 634 343T570 260Q550 236 532 213L202 -206Q171 -245 131 -265T44 -286Q15 -286 -7 -267T-30 -217Q-30 -208 -29 -203Q-24 -182 -6 -165T34 -147Q54 -147 62 -157T76
-187Q80 -200 83 -205T95 -211Q109 -211 124 -196T165 -148L281 1L125 382Q123 388 112 388Q99 388 84 381T63 372L59 411L239 470H278L395 147L438 202Q453 222 470 265T495 350Q502 387 502 407Q502 437 493 450Q539 480 588 480Q623 480 642 463Z" />
<glyph unicode="&#x2013;" glyph-name="endash" horiz-adv-x="718" d="M76 334H700L679 230H55L76 334Z" />
<glyph unicode="&#x2014;" glyph-name="emdash" horiz-adv-x="1051" d="M76 334H1033L1012 230H55L76 334Z" />
<glyph unicode="&#x2018;" glyph-name="quoteleft" horiz-adv-x="259" d="M137 397T119 417T101 472Q101 487 104 503Q116 562 171 621T291 719L315 692Q244 629 232 571Q230 561 230 557Q230 541 242 517Q247 507 250 497T254 476Q254 446 229 422T167 397Q137
397 119 417Z" />
<glyph unicode="&#x2019;" glyph-name="quoteright" horiz-adv-x="259" d="M86 415Q155 475 167 536Q169 546 169 550Q169 564 164 576T158 590Q146 614 146 630Q146 661 170 685T232 710Q263 710 281 691T300 635Q300 621 297 604Q285 545 229 486T108 388L86 415Z" />
<glyph unicode="&#x201a;" glyph-name="quotesinglbase" horiz-adv-x="259" d="M-5 -31Q63 29 77 90Q78 95 78 103Q78 120 66 144Q62 153 59 163T55 184Q55 215 80 239T142 264Q172 264 190 245T208 189Q208 175 205 158Q193 98 138 39T17 -58L-5 -31Z" />
<glyph unicode="&#x201c;" glyph-name="quotedblleft" horiz-adv-x="466" d="M137 397T119 417T101 472Q101 487 104 503Q116 562 171 621T291 719L315 692Q244 629 232 571Q230 561 230 557Q230 541 242 517Q247 507 250 497T254 476Q254 446 229 422T167 397Q137
397 119 417ZM343 397T325 417T307 472Q307 487 310 503Q322 562 377 621T497 719L521 692Q449 629 439 571Q437 561 437 557Q437 541 449 517Q454 507 457 497T461 476Q461 446 435 422T373 397Q343 397 325 417Z" />
<glyph unicode="&#x201d;" glyph-name="quotedblright" horiz-adv-x="466" d="M86 415Q155 475 167 536Q169 546 169 550Q169 564 164 576T158 590Q146 614 146 630Q146 661 170 685T232 710Q263 710 281 691T300 635Q300 621 297 604Q285 545 229 486T108 388L86
415ZM293 415Q363 478 373 536Q375 546 375 550Q375 564 370 576T364 590Q352 614 352 630Q352 661 377 685T439 710Q470 710 488 690T506 635Q506 621 503 604Q491 545 436 486T315 388L293 415Z" />
<glyph unicode="&#x201e;" glyph-name="quotedblbase" horiz-adv-x="466" d="M-5 -31Q63 29 77 90Q78 95 78 103Q78 120 66 144Q62 153 59 163T55 184Q55 215 80 239T142 264Q172 264 190 245T208 189Q208 175 205 158Q193 98 138 39T17 -58L-5 -31ZM202 -31Q271
29 283 90Q284 95 284 103Q284 120 272 144Q268 153 265 163T261 184Q261 215 286 239T348 264Q379 264 397 245T415 189Q415 175 412 158Q400 98 345 39T224 -58L202 -31Z" />
<glyph unicode="&#x2022;" glyph-name="bullet" horiz-adv-x="284" d="M107 211T85 234T62 294Q62 329 79 359T126 408T190 427Q229 427 251 404T274 343Q274 328 272 320Q262 274 227 243T146 211Q107 211 85 234Z" />
<glyph unicode="&#x2039;" glyph-name="guilsinglleft" horiz-adv-x="362" d="M57 249L62 274L344 535L366 483L198 262L276 40L232 -12L57 249Z" />
<glyph unicode="&#x203a;" glyph-name="guilsinglright" horiz-adv-x="362" d="M25 40L193 262L115 483L158 535L334 274L328 249L47 -12L25 40Z" />
</font>
</defs>
</svg>
