<?xml version="1.0" standalone="no"?>
<!DOCTYPE svg PUBLIC "-//W3C//DTD SVG 1.1//EN" "http://www.w3.org/Graphics/SVG/1.1/DTD/svg11.dtd">
<svg xmlns="http://www.w3.org/2000/svg">
<defs >
<font id="Buenard" horiz-adv-x="412" ><font-face
    font-family="Buenard"
    units-per-em="1000"
    panose-1="2 0 0 0 0 0 0 0 0 0"
    ascent="1031"
    descent="-270"
    alphabetic="0" />
<glyph unicode=" " glyph-name="space" horiz-adv-x="218" />
<glyph unicode="!" glyph-name="exclam" horiz-adv-x="253" d="M182 70T182 46T167 7T127 -8T85 7T69 46T85 84T126 100T166 85ZM76 660L89 676Q106 676 141 670T185 658Q165 435 154 309L144 201L115 193L103 200L96 358L76 660Z" />
<glyph unicode="&quot;" glyph-name="quotedbl" horiz-adv-x="338" d="M206 717L220 728Q236 728 260 723T294 711Q294 660 255 477L227 472L217 479L206 717ZM50 717L64 728Q80 728 104 723T138 711Q138 660 99 477L71 472L61 479L50 717Z" />
<glyph unicode="#" glyph-name="numbersign" horiz-adv-x="541" d="M281 0L306 174H186L161 0H109L134 174H23L35 238H144L164 383H52L64 447H174L197 608H250L226 447H345L368 608H421L398 447H510L497 383H389L368 238H480L468 174H359L334 0H281ZM216 383L196
238H315L336 383H216Z" />
<glyph unicode="$" glyph-name="dollar" horiz-adv-x="534" d="M301 592Q355 590 444 564Q436 479 421 422L389 418Q383 502 373 525Q348 542 300 547L294 363Q420 305 446 256Q459 231 459 200Q459 123 411 79T283 26L280 -57L242 -61L245 25Q164 26 81 59Q78
86 78 123T85 212L120 222Q130 80 246 70L253 284Q165 329 137 354Q95 392 95 442Q95 512 141 550T264 592L267 685L305 690L301 592ZM373 167Q373 220 291 265L284 70Q325 75 349 100T373 167ZM174 469Q174 423 257 381L262 549Q174 544 174 469Z" />
<glyph unicode="%" glyph-name="percent" horiz-adv-x="784" d="M174 -16L544 610H610L240 -16H174ZM267 611T310 569T353 459T310 347T198 303T86 345T42 456T85 567T198 611ZM232 346T255 374T278 457T255 540T198 568T141 540T117 458T140 375T198 346ZM656
291T699 249T742 139T699 27T587 -17T475 25T431 136T474 247T587 291ZM621 26T644 54T667 137T644 220T587 248T530 220T506 137T529 54T587 26Z" />
<glyph unicode="&amp;" glyph-name="ampersand" horiz-adv-x="629" d="M496 -7Q482 -7 422 51Q348 -16 257 -16T104 25T42 147Q42 268 174 320Q173 321 173 322Q138 355 123 385T107 462Q107 524 154 567T264 610T374 575T421 482T379 382T282 329Q287 323 297
313T365 241T452 147Q477 186 477 228T452 317L479 335Q540 285 571 244Q546 202 480 118Q540 59 560 46Q588 25 641 25L636 -7H496ZM131 162Q131 107 169 68T269 28T393 81Q378 97 199 293Q131 246 131 162ZM189 488Q189 435 256 358Q286 367 310 400T335 474T313
541T259 567T208 545T189 488Z" />
<glyph unicode="&apos;" glyph-name="quotesingle" horiz-adv-x="182" d="M50 717L64 728Q80 728 104 723T138 711Q138 660 99 477L71 472L61 479L50 717Z" />
<glyph unicode="(" glyph-name="parenleft" horiz-adv-x="323" d="M221 573T194 479T166 249T194 16T292 -150L269 -170Q181 -105 129 5T77 249T129 492T269 666L289 643Q221 573 194 479Z" />
<glyph unicode=")" glyph-name="parenright" horiz-adv-x="323" d="M142 602T194 492T246 249T194 6T54 -170L31 -150Q100 -80 128 16T157 248T130 479T34 643L54 666Q142 602 194 492Z" />
<glyph unicode="*" glyph-name="asterisk" horiz-adv-x="417" d="M365 627Q375 606 375 588T374 562Q344 552 245 542Q301 490 338 450L328 429Q308 409 269 401Q251 424 210 516Q182 451 152 401L129 402Q109 413 83 450Q111 485 176 542Q92 552 48 562L42 584Q49
613 74 643Q109 630 190 582Q174 653 169 712L188 723Q223 723 253 712Q253 668 232 582Q292 617 348 643L365 627Z" />
<glyph unicode="+" glyph-name="plus" horiz-adv-x="460" d="M261 411V244H414V186H261V15H199V186H46V244H199V411H261Z" />
<glyph unicode="," glyph-name="comma" horiz-adv-x="239" d="M143 108T170 86T197 27T156 -74T76 -178L52 -159Q122 -63 122 -11Q122 16 56 21L48 41Q57 57 77 78T114 111Q143 108 170 86Z" />
<glyph unicode="-" glyph-name="hyphen" horiz-adv-x="304" d="M35 192L46 257H268L258 192H35Z" />
<glyph unicode="." glyph-name="period" horiz-adv-x="205" d="M40 25T40 51T56 93T101 110T147 94T165 51T148 9T102 -8T57 8Z" />
<glyph unicode="/" glyph-name="slash" horiz-adv-x="441" d="M23 -142L363 667L418 639L78 -170L23 -142Z" />
<glyph unicode="0" glyph-name="zero" horiz-adv-x="547" d="M379 440T444 379T510 216T444 51T273 -14T103 48T37 211T103 376T274 440ZM416 126T416 214T375 347T274 392T172 347T131 214T172 80T273 34T375 80Z" />
<glyph unicode="1" glyph-name="one" horiz-adv-x="303" d="M196 71Q196 48 214 40Q230 32 270 26L283 24L276 -7Q224 0 153 0T30 -7L23 24Q76 31 95 39T114 71V337Q114 357 107 365T80 373H28L22 397Q97 426 180 440L196 424V71Z" />
<glyph unicode="2" glyph-name="two" horiz-adv-x="445" d="M115 384Q106 362 106 331T107 278L75 272Q67 290 57 334T44 400Q146 440 208 440T315 410T360 318Q360 282 342 250T306 200T246 148Q211 121 131 66L135 57H316Q327 68 347 100T371 148L403 141Q402
126 392 73T375 0H50L44 47Q137 120 183 166T249 244T268 313T247 375T185 400T115 384Z" />
<glyph unicode="3" glyph-name="three" horiz-adv-x="435" d="M272 305Q272 400 186 400Q138 400 112 384Q104 361 104 331T105 278L73 272Q65 289 55 333T42 400Q144 440 207 440T314 411T358 326T320 233T230 178V169Q295 169 341 130T388 13T329 -117T190 -170T23
-139Q24 -119 35 -71T55 -1L89 -7Q87 -35 87 -65T93 -115Q127 -130 176 -130T261 -94T296 0Q296 130 152 130Q141 130 129 129L131 168Q182 179 227 217T272 305Z" />
<glyph unicode="4" glyph-name="four" horiz-adv-x="455" d="M352 0V-85Q352 -108 370 -116Q385 -124 419 -132L412 -163Q342 -156 307 -156T186 -163L179 -132Q232 -125 251 -117T270 -85V0H41L15 42L292 432H352V57H434L418 0H352ZM270 57V326L266 327L257 304L87
66L92 57H270Z" />
<glyph unicode="5" glyph-name="five" horiz-adv-x="397" d="M178 208Q246 208 297 174Q367 129 367 25Q367 -59 310 -114T170 -170Q110 -170 8 -139Q10 -119 22 -68T42 3L76 -4Q74 -38 74 -68T78 -114Q119 -130 165 -130T244 -91T276 9Q276 94 226 126Q190 149
137 149Q113 149 87 145L59 180L102 426L265 437Q321 441 347 454L354 444Q353 434 345 405T332 366H139L118 210L124 203Q152 208 178 208Z" />
<glyph unicode="6" glyph-name="six" horiz-adv-x="460" d="M258 359Q338 359 382 312T427 181T371 42T236 -14Q140 -14 90 53T40 218T68 388T144 508Q243 604 373 610L376 578Q257 561 195 473T132 230Q132 158 154 97Q166 66 188 48T240 29Q291 29 315 67T339
168T314 273T242 315T154 288L151 304Q177 339 199 349T258 359Z" />
<glyph unicode="7" glyph-name="seven" horiz-adv-x="414" d="M33 270Q29 312 29 361T32 429Q72 424 126 424H388L410 393Q170 30 165 -156Q126 -170 76 -170L67 -158Q79 3 333 358L328 365H87Q75 338 66 268L33 270Z" />
<glyph unicode="8" glyph-name="eight" horiz-adv-x="457" d="M124 319T93 359T61 458T112 564T232 610T346 576T392 484T361 388T287 333L285 326Q338 306 379 262T420 150T361 34T221 -14T89 25T37 142Q37 184 61 219T112 270T165 296L164 303Q124 319 93 359ZM119
152Q119 98 148 64T227 29T306 58T336 131T303 207T206 274Q204 275 200 277T193 281Q119 231 119 152ZM319 468Q319 514 294 540T228 566T162 541T138 477T168 407T254 347Q319 402 319 468Z" />
<glyph unicode="9" glyph-name="nine" horiz-adv-x="460" d="M323 112Q265 72 196 72T80 119T33 245T90 382T226 440Q323 440 371 372T420 207T391 39T312 -75Q212 -164 78 -170L75 -138Q164 -126 234 -66T323 112ZM121 197T146 156T224 115T327 158Q328 170 328
202T324 267T308 330Q283 396 227 396Q121 396 121 260Q121 197 146 156Z" />
<glyph unicode=":" glyph-name="colon" horiz-adv-x="253" d="M64 26T64 52T80 94T125 111T171 95T189 52T172 10T126 -7T81 9ZM97 291T81 307T64 350T80 393T125 410T171 394T189 351T172 308T126 291Z" />
<glyph unicode=";" glyph-name="semicolon" horiz-adv-x="239" d="M143 108T170 86T197 27T156 -74T76 -178L52 -159Q122 -63 122 -11Q122 16 56 21L48 41Q57 57 77 78T114 111Q143 108 170 86ZM89 291T73 307T56 350T72 393T117 410T163 394T181 351T164 308T118 291Z" />
<glyph unicode="&lt;" glyph-name="less" horiz-adv-x="469" d="M425 -16L44 184V232L425 432V365L120 208L425 51V-16Z" />
<glyph unicode="=" glyph-name="equal" horiz-adv-x="460" d="M410 261H50V319H410V261ZM410 106H50V164H410V106Z" />
<glyph unicode="&gt;" glyph-name="greater" horiz-adv-x="469" d="M425 184L44 -16V51L349 208L44 365V432L425 232V184Z" />
<glyph unicode="?" glyph-name="question" horiz-adv-x="432" d="M218 307T203 285T187 246T199 196L175 176Q128 220 110 267Q110 287 121 303T139 328T160 351L181 372Q188 379 205 394T228 415Q300 481 300 523T272 592T200 618T134 589T110 490L76 482Q50
571 50 612Q154 659 225 659T338 622T380 510Q380 482 364 453T330 407T281 363T234 322ZM113 22T113 46T128 85T169 100T211 85T227 46T211 8T170 -8T129 7Z" />
<glyph unicode="@" glyph-name="at" horiz-adv-x="879" d="M520 -16Q487 -16 487 24Q487 48 498 89L514 154L508 156Q423 31 370 0Q344 -16 320 -16Q243 -16 243 84Q243 170 284 250T392 381T533 432Q570 432 637 418L648 402Q635 371 627 337L572 99Q566 80 566
66T576 51T607 61T640 81Q697 122 735 175T773 281Q773 406 699 480T493 554Q337 554 234 453T130 192T213 -56T456 -146Q497 -146 546 -130T630 -90L650 -114Q609 -151 549 -177T433 -204Q251 -204 149 -97T47 188Q47 306 110 403T279 555T504 610Q663 610 756
523T850 288Q850 239 786 170T645 49Q559 -16 520 -16ZM559 374Q545 387 493 387T401 339T342 227T323 105T352 45T431 100T529 233Q538 254 547 302T559 374Z" />
<glyph unicode="A" glyph-name="A" horiz-adv-x="650" d="M134 65Q134 45 159 38L218 25L212 -8Q157 0 108 0T3 -8L-4 25Q38 34 50 45T78 101L277 645Q321 655 353 674L568 101Q584 58 597 46T652 25L645 -8Q589 0 526 0T406 -8L400 25Q435 31 459 38T483 65Q483
72 480 79L423 237H190L136 79Q134 74 134 65ZM294 537L207 287H405L317 530L306 572L299 575L294 537Z" />
<glyph unicode="B" glyph-name="B" horiz-adv-x="593" d="M93 650L279 658Q511 658 511 510Q511 445 473 413T384 369V362Q453 358 505 316T557 184T486 44T309 -8L170 0Q124 0 57 -8L50 25Q90 30 107 37T125 69V578Q125 602 109 609Q96 615 60 620L50 622L57
653Q66 650 93 650ZM214 324V81Q214 55 243 44T306 32Q370 32 413 69T456 180Q456 324 301 324H214ZM214 366H277Q341 366 378 401T416 497T380 589T279 619Q242 619 214 612V366Z" />
<glyph unicode="C" glyph-name="C" horiz-adv-x="660" d="M385 -16Q236 -16 142 69T47 308T141 563T393 666Q455 666 499 658T579 643T620 634Q610 525 593 463L559 457Q546 563 525 594Q477 620 374 620T209 541T148 335T216 119T395 30Q474 30 515 66T581 186L615
181Q614 106 594 17Q497 -16 385 -16Z" />
<glyph unicode="D" glyph-name="D" horiz-adv-x="750" d="M214 88Q214 36 342 36T536 115T602 334Q602 615 310 615Q250 615 214 606V88ZM95 652L329 660Q500 660 598 590Q703 517 703 353T611 91T357 -8Q311 -8 248 -4T157 0T57 -8L50 25Q90 30 107 37T125 69V579Q125
592 123 596T110 606Q97 613 60 620L50 622L57 653Q72 652 95 652Z" />
<glyph unicode="E" glyph-name="E" horiz-adv-x="583" d="M214 312V48H444Q457 60 474 103T499 173L535 167Q534 139 527 80T514 0H170Q124 0 57 -8L50 25Q90 30 107 37T125 69V583Q125 607 109 613Q96 619 60 624L50 626L57 659Q133 650 170 650H421Q466 650
503 656Q506 620 506 581T503 501L466 495Q452 580 434 603H214V360H364Q392 360 397 375Q403 389 408 422L409 434L447 430Q439 380 439 336T447 242L409 238Q404 281 398 296T364 312H214Z" />
<glyph unicode="F" glyph-name="F" horiz-adv-x="512" d="M345 308H214V77Q214 62 218 54T236 42L319 28L312 -8Q242 0 187 0T57 -8L50 25Q90 30 107 37T125 69V583Q125 608 109 613Q83 622 50 626L57 659Q133 650 170 650H411Q455 650 493 656Q496 628 496 588T494
499L457 493Q438 585 423 603H214V356H345Q373 356 378 371Q384 385 388 418L390 430L428 426Q420 376 420 332T428 238L390 234Q385 277 379 292T345 308Z" />
<glyph unicode="G" glyph-name="G" horiz-adv-x="690" d="M514 202Q514 217 510 225T492 237L416 251L423 287Q493 279 557 279T658 287L664 254Q634 248 619 241T603 210V19Q511 -16 385 -16Q236 -16 142 69T47 308T141 563T393 666Q447 666 483 660T531 652T578
643T619 634Q609 535 593 473L559 467Q547 562 526 594Q478 620 374 620T209 541T148 335T216 119T395 30Q469 30 514 56V202Z" />
<glyph unicode="H" glyph-name="H" horiz-adv-x="795" d="M581 364V580Q581 594 579 600T566 610Q548 619 510 624L497 625L504 658Q578 650 621 650T738 658L745 625Q679 617 672 602Q670 596 670 582V68Q670 54 672 49T684 38Q699 32 734 26L745 25L738 -8Q664
0 621 0T504 -8L497 25Q572 34 578 50Q581 56 581 70V311H214V70Q214 56 216 50T228 40Q247 31 285 26L298 25L291 -8Q217 0 174 0T57 -8L50 25Q116 33 122 48Q125 54 125 68V582Q125 596 123 601T110 612Q96 618 60 624L50 625L57 658Q131 650 174 650T291 658L298
625Q249 619 232 612T214 582V364H581Z" />
<glyph unicode="I" glyph-name="I" horiz-adv-x="339" d="M214 582V68Q214 54 216 49T228 38Q243 32 280 26L291 25L284 -8Q217 0 171 0T57 -8L50 25Q116 33 122 48Q125 54 125 68V582Q125 596 123 601T110 612Q96 618 60 624L50 625L57 658Q124 650 170 650T284
658L291 625Q224 617 216 602Q214 596 214 582Z" />
<glyph unicode="J" glyph-name="J" horiz-adv-x="303" d="M196 582V50Q196 -29 179 -77T96 -189L24 -260L0 -235Q107 -111 107 0V582Q107 596 105 601T92 612Q78 618 42 624L32 625L39 658Q106 650 152 650T266 658L273 625Q206 617 198 602Q196 596 196 582Z" />
<glyph unicode="K" glyph-name="K" horiz-adv-x="668" d="M464 602Q464 616 408 625L415 658Q462 650 509 650T602 658L609 625Q575 620 556 610T514 576L312 363L558 96Q592 59 614 47T672 25L665 -8Q612 0 542 0T420 -8L413 25Q417 26 425 27T437 30T447 32T457
35T464 39Q471 43 471 51T453 80L228 327V345L449 576Q464 592 464 602ZM214 582V75Q214 60 218 52T236 40L307 27L300 -8Q230 0 181 0T57 -8L50 25Q116 33 122 48Q125 54 125 68V582Q125 596 123 601T110 612Q96 618 60 624L50 625L57 658Q124 650 167 650T277
658L284 625Q223 616 216 602Q214 596 214 582Z" />
<glyph unicode="L" glyph-name="L" horiz-adv-x="528" d="M214 573V48H425Q437 60 458 104T486 173L520 166Q519 142 511 82T496 0H167Q139 0 57 -8L50 24Q90 29 107 36T125 69V581Q125 605 109 612Q96 618 60 624L50 625L57 658Q131 650 186 650T312 658L319
622Q255 614 239 609T218 596T214 573Z" />
<glyph unicode="M" glyph-name="M" horiz-adv-x="926" d="M669 659Q710 650 760 650T857 659L864 626Q825 621 808 614T790 579L820 72Q822 46 838 38Q851 32 893 25L886 -8Q819 0 767 0T649 -8L642 27Q694 33 713 42Q731 49 730 72L701 572L695 577Q684 527 674
503L530 142Q510 90 489 22L482 0L422 -17Q394 77 373 129L224 502L205 568L198 563L163 72Q162 59 165 53T178 42Q193 36 238 29L251 27L244 -8Q177 0 140 0T36 -8L29 25Q64 30 83 38Q99 46 100 69L137 582Q139 606 121 613Q108 620 74 624L63 626L70 659Q117
650 172 650T268 659Q276 623 288 591L454 158L467 111L474 109Q477 142 483 157L646 585L669 659Z" />
<glyph unicode="N" glyph-name="N" horiz-adv-x="764" d="M191 77Q191 62 195 54T213 42L296 28L289 -8Q219 0 175 0T57 -8L50 25Q90 30 107 37T125 69V583Q125 607 109 613Q95 620 61 624L50 626L57 659Q104 650 152 650T241 659Q262 619 303 563L554 216Q571
191 582 157L586 145L591 149V580Q591 603 574 610Q558 618 520 622L507 624L514 659Q590 650 620 650T725 659L732 626Q693 621 675 614T657 583V193Q657 113 663 29L665 1L590 -14Q555 70 475 178L232 507Q215 531 201 561L196 572L191 568V77Z" />
<glyph unicode="O" glyph-name="O" horiz-adv-x="755" d="M227 -16T137 71T47 311T136 565T377 666T618 579T708 339T619 85T378 -16ZM258 618T203 542T148 339T210 122T384 32T552 108T607 311T545 528T371 618Z" />
<glyph unicode="P" glyph-name="P" horiz-adv-x="537" d="M89 650L277 658Q521 658 521 474Q521 391 453 332T298 273Q284 273 263 282T232 298L228 314Q242 310 261 310Q422 310 422 461Q422 619 271 619Q244 619 214 612V77Q214 62 218 54T236 42L319 28L312
-8Q242 0 187 0T57 -8L50 25Q90 30 107 37T125 69V579Q125 602 109 609Q96 615 60 620L50 622L57 653Q62 650 89 650Z" />
<glyph unicode="Q" glyph-name="Q" horiz-adv-x="755" d="M217 -11T132 75T47 313T136 565T377 666T618 579T708 341T622 89T392 -15Q414 -22 487 -78T596 -135T668 -92L691 -120Q642 -174 616 -193T558 -213T487 -183T413 -122T359 -91T317 -106T279 -138L251
-115Q268 -93 306 -59T363 -16Q217 -11 132 75ZM258 618T203 542T148 339T210 121T385 30T552 106T607 310T545 528T371 618Z" />
<glyph unicode="R" glyph-name="R" horiz-adv-x="649" d="M214 331H269Q343 331 382 367T422 476T387 584T279 619Q240 619 214 612V331ZM87 650L279 658Q387 658 454 619T521 489Q521 423 476 374T368 320V313Q393 306 421 269T471 190Q529 74 566 50T651 26L646
-6H504Q473 -6 412 102Q397 127 377 162T350 210T337 231T329 245T322 255T315 265T308 272Q294 289 257 289H214V77Q214 62 218 54T236 42L319 28L312 -8Q242 0 187 0T57 -8L50 25Q90 30 107 37T125 69V579Q125 602 109 609Q96 615 60 620L50 622L57 653Q62 650
87 650Z" />
<glyph unicode="S" glyph-name="S" horiz-adv-x="524" d="M100 120T137 75T239 30T340 61T377 145Q377 195 335 231Q295 265 206 312Q197 317 173 332T140 356T113 381T89 412Q70 450 70 487Q70 571 128 618T277 666Q310 666 454 640Q446 553 428 486L394 480Q387
565 375 597Q338 622 278 622T186 595T154 520Q154 457 252 402Q266 395 302 376T360 342T412 304Q469 257 469 187Q469 88 403 36T238 -16T55 21Q53 32 53 94T57 183L94 192Q100 120 137 75Z" />
<glyph unicode="T" glyph-name="T" horiz-adv-x="573" d="M422 -8Q356 0 287 0T151 -8L143 26Q207 34 221 40T239 53T242 72V603H75Q60 561 54 478L17 484Q8 553 8 595T9 657Q65 650 110 650H463Q508 650 564 657Q565 639 565 599T555 484L519 478Q513 561 498
603H331V72Q331 59 334 53T346 43Q361 37 414 28L430 26L422 -8Z" />
<glyph unicode="U" glyph-name="U" horiz-adv-x="724" d="M558 229V581Q558 594 556 599T544 610Q525 618 492 622L480 624L487 658Q554 650 590 650T693 658L700 624Q658 619 641 612T623 582V245Q623 118 555 52T357 -14T164 45T101 233V582Q101 596 99 601T86
612Q72 618 36 624L26 625L33 658Q100 650 148 650T263 658L270 625Q199 616 192 600Q190 595 190 581V249Q190 145 236 96T374 46T512 95T558 229Z" />
<glyph unicode="V" glyph-name="V" horiz-adv-x="643" d="M506 585Q506 605 480 612L419 625L425 658Q480 650 530 650T634 658L641 625Q600 616 590 606T563 549L352 -7H278L78 549Q62 593 51 604T-2 625L5 658Q58 650 122 650T243 658L249 625Q212 619 188 612T164
585Q164 578 167 571L321 124L331 83L338 80L344 124L503 571Q506 579 506 585Z" />
<glyph unicode="W" glyph-name="W" horiz-adv-x="1018" d="M5 658Q58 650 122 650T243 658L249 625Q212 619 189 612T165 584Q165 578 167 571L309 139L315 110L321 109L325 142L492 649H564L732 135L738 109L743 108L749 138L884 571Q887 579 887 585Q887 605
861 612L800 625L806 658Q861 650 910 650T1013 658L1020 625Q979 616 969 605T942 549L753 -8H685L516 493L510 520L505 521L497 487L332 -8H263L78 549Q63 593 52 604T-2 625L5 658Z" />
<glyph unicode="X" glyph-name="X" horiz-adv-x="669" d="M234 -8Q179 0 127 0T15 -9L8 24Q34 30 52 42T95 88L285 330L125 551Q91 593 75 606T27 625L34 658Q87 650 159 650T286 658L292 625Q227 618 217 596Q212 584 220 571L358 384L496 571Q503 584 498 596T484
612Q462 621 432 624L422 625L428 658Q483 650 533 650T637 658L644 625Q604 616 593 608T552 562L386 346L568 99Q598 57 614 44T661 25L654 -8Q601 0 525 0T392 -8L386 25Q423 31 448 39T474 63Q474 70 468 79L314 290L156 79Q147 65 154 54T179 38L240 25L234
-8Z" />
<glyph unicode="Y" glyph-name="Y" horiz-adv-x="592" d="M-2 659Q52 650 117 650T251 659L248 627Q218 621 197 614T176 592T184 563L316 330L447 564Q454 576 454 587T443 606Q431 614 374 627L371 659Q441 650 487 650T594 659L590 627Q559 624 542 612T505
562L339 276V68Q339 44 355 37Q371 29 413 24L427 23L419 -8Q353 0 296 0T172 -8L165 24Q215 29 232 36T250 68V274L79 569Q61 602 46 613T2 627L-2 659Z" />
<glyph unicode="Z" glyph-name="Z" horiz-adv-x="587" d="M58 463Q57 473 57 493T60 568T69 650L93 662Q123 650 164 650H511L525 600L149 53H434Q450 69 478 123T517 206L553 197Q552 170 539 98T518 0H49L40 47L418 597H144Q115 556 93 456L58 463Z" />
<glyph unicode="[" glyph-name="bracketleft" horiz-adv-x="327" d="M112 -156V650H308V596H179V-102H308V-156H112Z" />
<glyph unicode="\" glyph-name="backslash" horiz-adv-x="441" d="M78 667L418 -142L363 -170L23 639L78 667Z" />
<glyph unicode="]" glyph-name="bracketright" horiz-adv-x="327" d="M309 650V-156H112V-101H237V595H112V650H309Z" />
<glyph unicode="^" glyph-name="asciicircum" horiz-adv-x="474" d="M36 311L213 666H261L438 311L384 285L237 590L90 285L36 311Z" />
<glyph unicode="_" glyph-name="underscore" horiz-adv-x="500" d="M0 -156V-107H500V-156H0Z" />
<glyph unicode="`" glyph-name="grave" horiz-adv-x="322" d="M86 676Q90 676 99 676Q144 676 171 670Q179 661 214 599T259 517L227 498L76 660L86 676Z" />
<glyph unicode="a" glyph-name="a" horiz-adv-x="455" d="M127 84T145 64T197 44T283 84V198L206 184Q127 171 127 112Q127 84 145 64ZM363 286V82Q363 46 402 46L429 47L437 18Q388 7 333 -16Q296 9 286 51Q241 13 213 -1T156 -16Q105 -16 75 16T44 102T83 183T191
217L283 227V272Q283 329 266 358T205 387T138 375Q132 354 132 283L90 271Q68 344 65 383Q173 432 221 432Q295 432 329 397T363 286Z" />
<glyph unicode="b" glyph-name="b" horiz-adv-x="517" d="M163 375Q248 432 308 432Q391 432 433 376T475 220T415 52T269 -16T83 25V622Q83 640 78 648T58 656L16 650L10 680Q82 712 156 718L171 700Q163 670 163 602V375ZM267 373Q241 373 215 364T176 345L163
336V107Q163 70 191 48T269 25T352 69T386 201Q386 373 267 373Z" />
<glyph unicode="c" glyph-name="c" horiz-adv-x="435" d="M328 265Q329 275 329 289Q329 349 318 371Q291 390 235 390Q131 390 131 223Q131 137 170 92T269 47T389 88L405 64Q316 -16 242 -16Q153 -16 98 43T42 199T96 364T243 432Q274 432 323 419T398 394Q396
373 384 326T362 259L328 265Z" />
<glyph unicode="d" glyph-name="d" horiz-adv-x="528" d="M432 85Q432 59 447 53T479 46T511 48L518 18Q453 5 401 -16Q364 12 355 52Q272 -16 223 -16Q135 -16 89 40T42 197T100 365T258 432Q308 432 352 411V622Q352 653 334 656Q317 658 282 652L271 650L266
680Q294 693 343 704T424 718L439 700Q432 670 432 602V85ZM131 128T164 86T249 43T352 83V332Q335 359 306 375T249 391Q196 391 164 347T131 216Z" />
<glyph unicode="e" glyph-name="e" horiz-adv-x="450" d="M275 47Q335 47 395 90L411 68Q320 -16 236 -16T97 42T42 198T97 363T239 432T370 378T413 230L131 210Q139 47 275 47ZM234 391Q181 391 156 349T131 246L323 270Q323 391 234 391Z" />
<glyph unicode="f" glyph-name="f" horiz-adv-x="327" d="M107 474Q107 575 156 646T296 718Q339 718 406 700Q399 649 371 575L342 573Q342 615 322 645T264 675T206 632T187 531V412L306 420L297 367L187 370V67Q187 54 190 49T202 39Q219 30 262 24L276 22L268
-8Q183 0 154 0T42 -8L34 22Q73 28 87 35T104 48T107 66V372L44 373L41 401L107 416V474Z" />
<glyph unicode="g" glyph-name="g" horiz-adv-x="471" d="M48 277Q48 351 99 391T230 432Q282 432 315 416L326 410Q393 416 450 442L463 428L452 380Q433 377 412 377T367 379Q384 362 395 334T407 277Q407 203 356 162T225 120L186 124Q144 92 144 75Q144 48
220 43L319 36Q382 31 415 1T448 -78T408 -170T310 -237T183 -260T67 -230T20 -140Q20 -112 29 -94L128 -19Q62 -1 62 45Q62 58 69 72L147 134Q137 137 116 150T82 178T59 219T48 277ZM100 -125Q100 -162 137 -186T236 -211T339 -183T381 -116T361 -59T292 -36L172
-27Q131 -60 116 -80T100 -125ZM132 283Q132 230 157 195T230 159Q322 159 322 270Q322 323 297 358T225 394Q132 394 132 283Z" />
<glyph unicode="h" glyph-name="h" horiz-adv-x="567" d="M474 281V66Q474 53 476 48T488 38Q502 31 537 24L547 22L540 -8Q458 0 437 0T333 -8L326 21Q360 27 374 34T391 47T394 64V261Q394 319 374 345T302 371T187 321V64Q187 51 189 47T202 37Q221 27 256
21L249 -8Q167 0 146 0T42 -8L34 22Q73 28 87 35T104 48T107 66V622Q107 652 90 655Q72 657 45 652L34 650L29 680Q57 693 103 704T180 718L194 700Q187 670 187 602V358L224 387Q281 432 344 432T440 397T474 281Z" />
<glyph unicode="i" glyph-name="i" horiz-adv-x="284" d="M187 66Q187 53 189 48T202 38Q221 28 250 24L260 22L253 -8Q186 0 147 0T42 -8L34 22Q73 28 87 35T104 48T107 66V341Q107 370 90 373Q75 375 43 369L37 399Q67 411 112 421T183 432L198 414Q187 372
187 316V66ZM72 575T72 599T88 639T130 655T172 639T189 599T173 560T131 544T89 559Z" />
<glyph unicode="j" glyph-name="j" horiz-adv-x="249" d="M60 575T60 599T76 639T118 655T160 639T177 599T161 560T119 544T77 559ZM95 -28V341Q95 370 78 373Q64 375 30 369L25 399Q55 411 99 421T171 432L185 414Q175 369 175 316V2Q175 -69 162 -96Q127 -171
35 -260L14 -239Q66 -175 88 -103Q95 -75 95 -28Z" />
<glyph unicode="k" glyph-name="k" horiz-adv-x="513" d="M325 22Q357 26 357 44Q357 54 346 66L187 234V66Q187 53 189 48T203 37L249 22L241 -8Q156 0 138 0T42 -8L34 22Q73 28 87 35T104 48T107 66V622Q107 651 90 656Q76 658 44 652L34 650L29 681Q108 714
180 718L194 700Q187 670 187 603V236L331 359Q365 389 307 393L304 422Q345 416 392 416T477 422L474 392Q450 389 434 385T396 360L270 251L445 66Q470 39 489 32L524 22L517 -8Q467 0 423 0T332 -8L325 22Z" />
<glyph unicode="l" glyph-name="l" horiz-adv-x="284" d="M187 66Q187 53 189 48T202 38Q221 28 250 24L260 22L253 -8Q168 0 146 0T42 -8L34 22Q73 28 87 35T104 48T107 66V622Q107 651 90 656Q76 658 44 652L34 650L29 681Q108 714 180 718L194 700Q187 670
187 642T187 603V66Z" />
<glyph unicode="m" glyph-name="m" horiz-adv-x="836" d="M339 432Q435 432 457 353L503 388Q560 432 621 432T712 398T743 281V66Q743 53 745 48T757 38Q769 31 805 24L815 22L808 -8Q726 0 705 0T601 -8L594 21Q628 27 642 34T659 47T662 64V261Q662 321 645
346T581 371T463 317Q465 295 465 281V66Q465 53 467 48T479 38Q497 28 532 22L525 -8Q443 0 425 0T324 -8L317 21Q374 31 382 46Q385 51 385 64V261Q385 321 368 346T301 371T187 321V64Q187 51 189 47T202 37Q221 27 256 21L249 -8Q167 0 146 0T42 -8L34 22Q73
28 87 35T104 48T107 66V336Q107 366 90 369Q73 371 46 366L35 364L30 394Q101 425 160 432L176 414Q176 388 186 358L224 387Q281 432 339 432Z" />
<glyph unicode="n" glyph-name="n" horiz-adv-x="567" d="M187 64Q187 51 189 47T202 37Q221 27 256 21L249 -8Q167 0 146 0T42 -8L34 22Q73 28 87 35T104 48T107 66V336Q107 366 90 369Q73 371 46 366L35 364L30 394Q101 425 160 432L176 414Q176 388 186 358L224
387Q281 432 344 432T440 397T474 281V66Q474 53 476 48T488 38Q502 31 537 24L547 22L540 -8Q458 0 437 0T333 -8L326 21Q360 27 374 34T391 47T394 64V261Q394 319 374 345T302 371T187 321V64Z" />
<glyph unicode="o" glyph-name="o" horiz-adv-x="502" d="M150 -16T96 42T42 200T99 366T253 432T405 374T460 216T402 50T247 -16ZM131 219Q131 125 166 75T264 25Q370 25 370 197Q370 290 335 340T236 391Q131 391 131 219Z" />
<glyph unicode="p" glyph-name="p" horiz-adv-x="532" d="M99 336Q99 366 82 369Q65 371 38 366L27 364L22 394Q89 425 154 432L170 414L176 360L225 395Q275 432 328 432Q410 432 450 377T490 220T429 52T273 -16Q222 -16 179 10V-178Q179 -200 200 -207L272
-220L264 -253Q185 -244 150 -244T40 -253L32 -223Q90 -211 96 -197Q99 -192 99 -179V336ZM282 25Q333 25 367 69T401 201Q401 372 285 372Q240 372 179 320V84Q195 59 223 42T282 25Z" />
<glyph unicode="q" glyph-name="q" horiz-adv-x="505" d="M435 314V-179Q435 -192 437 -197T450 -207L498 -223L491 -253Q438 -244 394 -244T269 -253L262 -220Q317 -213 336 -206T355 -178V45Q283 -16 223 -16Q136 -16 89 39T42 195T100 364T257 432Q284 432
319 424T372 416T427 432L442 424Q435 394 435 314ZM131 126T164 85T250 43T353 79V310Q353 347 324 369T245 391T164 346T131 214Z" />
<glyph unicode="r" glyph-name="r" horiz-adv-x="381" d="M278 364Q240 364 187 289V67Q187 54 191 49T206 39Q223 32 268 28L283 26L276 -8Q186 0 147 0T42 -8L34 22Q73 28 87 35T104 48T107 66V336Q107 366 90 369Q73 371 46 366L35 364L30 394Q100 425 162
432L178 414Q178 382 187 337L220 379Q263 432 310 432Q330 432 381 413Q367 334 347 284L320 282Q320 318 310 341T278 364Z" />
<glyph unicode="s" glyph-name="s" horiz-adv-x="381" d="M179 22Q260 22 260 92Q260 123 237 142T172 181T115 209T84 232Q51 261 51 314T91 399T200 432Q232 432 321 409Q315 348 304 309L284 305Q260 396 193 396Q158 396 141 379T123 336T141 294T184 266T227
245L249 234Q279 219 285 213T303 198T317 182T327 164Q337 146 337 118Q337 52 291 18T174 -16T48 11Q46 25 46 65T48 120L77 126Q85 80 112 51T179 22Z" />
<glyph unicode="t" glyph-name="t" horiz-adv-x="336" d="M165 124Q165 77 182 61T233 45T315 76L330 53Q246 -16 191 -16Q85 -16 85 109V372H27L22 398L85 416V483L165 520V410L293 419L285 366L165 370V124Z" />
<glyph unicode="u" glyph-name="u" horiz-adv-x="550" d="M453 85Q453 59 468 53T500 46T532 48L539 18Q470 4 422 -16Q375 18 375 57L339 30Q280 -16 220 -16Q93 -16 93 135V338Q93 370 76 373Q61 375 36 370L26 368L21 398Q80 423 166 432L180 414Q173 384 173
316V155Q173 98 194 72T263 45T372 92V338Q372 370 356 373Q338 375 310 370L299 368L293 398Q359 427 445 432L460 414Q453 384 453 316V85Z" />
<glyph unicode="v" glyph-name="v" horiz-adv-x="451" d="M352 367Q352 380 336 385L291 394L289 423Q348 416 373 416T457 423L450 392Q429 391 421 384T402 350L251 -9H205L51 353Q40 378 33 384T3 392L-3 423Q63 416 97 416T197 423L194 394Q162 389 148 385T134
367Q134 361 137 353L236 112L242 87L248 86L255 114L348 353Q352 361 352 367Z" />
<glyph unicode="w" glyph-name="w" horiz-adv-x="686" d="M-2 423Q64 416 101 416T204 423L202 394Q162 389 148 385T134 370T137 353L223 118L228 92L233 90L240 119L341 416H389L489 119L494 92L500 90L509 122L593 353Q596 360 596 366Q596 380 580 385L528
394L526 423Q576 417 611 417T696 423L690 392Q667 391 659 384T642 353L506 -9H459L358 283L353 309L347 311L340 282L241 -9H193L52 353Q43 377 35 384T4 392L-2 423Z" />
<glyph unicode="x" glyph-name="x" horiz-adv-x="483" d="M187 -8Q135 0 97 0T10 -8L3 22Q36 24 77 64L205 210L87 358Q71 378 58 384T24 393L20 423Q64 416 125 416T228 423L226 393Q204 390 193 387T178 374T182 354L261 254L340 353Q347 363 342 372T325 385L290
392L288 422Q325 416 375 416T462 422L459 392Q449 392 445 390T438 387T431 384T426 380T420 374Q412 367 406 361T398 352L287 222L417 60Q448 24 480 22L473 -8Q423 0 372 0T270 -8L263 22Q295 28 307 32T323 45T319 68L231 178L140 68Q131 55 134 45T147 32L194
22L187 -8Z" />
<glyph unicode="y" glyph-name="y" horiz-adv-x="466" d="M65 -244H53Q30 -206 21 -147L39 -138Q67 -151 90 -151Q138 -151 165 -93L207 -1L47 353Q35 378 28 384T-1 392L-7 423Q57 416 92 416T192 423L190 394Q158 389 144 385T130 367Q130 361 133 353L238 113L243
88H249L256 118L350 352Q354 360 354 366Q354 379 338 384L293 393L291 422Q341 416 375 416T459 422L452 391Q430 390 423 384T406 352L195 -139Q150 -244 65 -244Z" />
<glyph unicode="z" glyph-name="z" horiz-adv-x="405" d="M165 416H358L369 393L131 43H296Q305 52 323 86T347 138L378 132Q376 93 351 0H35L29 23L268 375H114Q106 365 94 335T76 284L47 289Q47 309 51 356T58 419L78 430Q122 416 165 416Z" />
<glyph unicode="{" glyph-name="braceleft" horiz-adv-x="327" d="M138 411L129 564Q129 619 180 642Q199 651 229 658T264 666L277 642Q275 641 264 637T248 631T234 625T219 616T208 606Q197 595 197 575T204 499T211 421Q211 364 180 318T112 261V252Q149 241
180 194T211 87Q211 61 204 3T197 -73T199 -97T208 -110T219 -120T234 -128T248 -135T263 -141T277 -146L264 -170Q260 -169 239 -164T207 -157T180 -146T153 -128Q129 -103 129 -68L138 97Q138 152 116 194T53 237V276Q94 276 116 316T138 411Z" />
<glyph unicode="|" glyph-name="bar" horiz-adv-x="317" d="M125 -170V666H192V-170H125Z" />
<glyph unicode="}" glyph-name="braceright" horiz-adv-x="327" d="M189 97L198 -68Q198 -123 148 -146Q128 -155 98 -162T63 -170L50 -146Q52 -145 63 -141T79 -135T93 -129T108 -120T119 -110Q130 -99 130 -78T123 2T116 87Q116 146 147 193T215 252V261Q178
272 147 318T116 421Q116 444 123 499T130 570T128 593T119 606T108 616T93 624T79 631T64 637T50 642L63 666Q67 665 88 660T120 653T147 642T174 624Q198 599 198 564L189 411Q189 357 211 317T274 276V237Q233 237 211 195T189 97Z" />
<glyph unicode="~" glyph-name="asciitilde" horiz-adv-x="499" d="M155 247Q114 247 67 181L33 203Q47 227 81 265T135 318L170 324Q187 320 251 287T344 253Q384 253 432 320L466 302Q451 276 417 234T364 180L329 174Q311 178 247 212T155 247Z" />
<glyph unicode="&#xa0;" glyph-name="nbspace" horiz-adv-x="218" />
<glyph unicode="&#xa1;" glyph-name="exclamdown" horiz-adv-x="253" d="M71 346T71 370T86 409T126 424T168 409T184 370T168 332T127 316T87 331ZM177 -244L163 -260Q146 -260 111 -254T68 -242Q86 -19 98 107L108 215L136 223L149 216L156 58L177 -244Z" />
<glyph unicode="&#xa2;" glyph-name="cent" horiz-adv-x="441" d="M135 103T90 157T45 297T93 446T226 517L229 605L267 610L263 517Q329 510 401 480Q399 461 387 417T365 355L328 362Q329 372 329 385Q329 440 318 458Q302 469 262 474L251 155Q259 153 278
153Q331 153 392 189L408 165Q320 92 248 90L245 -12L207 -16L211 92Q135 103 90 157ZM134 319Q134 200 213 165L224 475Q134 465 134 319Z" />
<glyph unicode="&#xa3;" glyph-name="sterling" horiz-adv-x="511" d="M127 330V366Q127 467 181 538T331 610Q376 610 446 592Q438 530 411 450L377 448Q377 486 367 548Q343 565 299 565T233 522T212 423V330H362L354 288H212V187Q212 109 174 69L153 62L156
56H388Q399 67 416 108T439 171L473 164Q472 140 465 81T454 0H150Q122 0 40 -8L33 24Q45 25 66 32Q127 54 127 125V288H49L57 330H127Z" />
<glyph unicode="&#xa4;" glyph-name="currency" horiz-adv-x="574" d="M91 232T91 303T132 428Q88 459 58 485L61 504Q74 523 87 529L106 533Q136 497 161 459Q215 505 286 505T412 459Q442 502 468 533L487 529Q500 523 513 504L516 485Q476 451 442 429Q484
372 484 302T442 178Q486 147 516 122L513 103Q500 84 487 78L468 74Q438 110 412 147Q359 102 288 102T161 147Q139 113 106 74L87 78Q74 84 61 103L58 122Q92 152 132 178Q91 232 91 303ZM232 448T195 407T157 304T194 201T287 159T380 200T418 303T381 406T288
448Z" />
<glyph unicode="&#xa5;" glyph-name="yen" horiz-adv-x="592" d="M250 251V279L89 515Q70 548 54 559T7 573L3 605Q49 596 118 596T256 605L253 573Q222 568 207 562T187 543T192 514L316 340L439 514Q448 526 447 538T438 555T379 573L376 605Q443 596 488 596T594
605L590 573Q556 570 537 558T495 508L339 281V251H477L469 209H339V156H463L455 114H339V68Q339 44 355 37Q371 29 413 24L427 23L419 -8Q353 0 296 0T172 -8L165 24Q215 29 232 36T250 68V114H115L123 156H250V209H129L137 251H250Z" />
<glyph unicode="&#xa6;" glyph-name="brokenbar" horiz-adv-x="317" d="M125 -170V119H192V-170H125ZM125 384V666H192V384H125Z" />
<glyph unicode="&#xa7;" glyph-name="section" horiz-adv-x="448" d="M53 266Q53 300 73 332T123 384Q50 434 50 509T100 625T236 666Q278 666 373 639Q372 618 366 572T354 510L327 505Q313 582 304 600Q277 623 229 623T157 600T134 541T157 486T214 444T273
409T306 389T333 369T359 345T376 318Q395 289 395 248T372 172T315 119Q392 65 392 -11T337 -129T194 -171T48 -136Q46 -94 46 -59T48 3L81 10Q89 -51 121 -88T202 -126Q303 -126 303 -36Q303 4 268 33Q237 58 173 96Q109 138 90 159Q53 200 53 266ZM313 214Q313
255 285 282Q254 310 174 354Q168 357 165 358Q130 334 130 291Q130 265 144 244T172 213T214 184Q267 147 274 144Q292 155 302 175T313 214Z" />
<glyph unicode="&#xa8;" glyph-name="dieresis" horiz-adv-x="384" d="M40 568T40 591T55 629T95 644T135 629T151 591T136 554T96 539T56 553ZM232 568T232 591T247 629T287 644T327 629T343 591T328 554T288 539T248 553Z" />
<glyph unicode="&#xa9;" glyph-name="copyright" horiz-adv-x="706" d="M361 133Q285 133 236 176T187 295T235 422T364 473Q400 473 477 456Q473 401 464 364L441 360Q435 417 431 427Q405 439 358 439T284 403T258 309T288 209T360 167T422 184T455 241L475
239Q475 206 465 150Q414 133 361 133ZM40 167T40 297T131 518T353 610T574 519T666 297T575 76T353 -16T132 75ZM84 411T84 297T162 103T353 23T543 103T622 297T544 491T353 571T163 491Z" />
<glyph unicode="&#xaa;" glyph-name="ordfeminine" horiz-adv-x="329" d="M263 511V386Q263 371 270 365Q277 362 287 362T309 364L315 333Q277 326 232 306Q222 311 212 324T198 351Q161 323 142 315T107 306Q71 306 51 327T30 387T57 443T137 466L193 473V502Q193
574 145 574Q121 574 103 566Q98 549 98 534T99 507L66 499Q61 509 55 536T47 575Q122 610 162 610Q263 610 263 511ZM106 392Q106 377 115 368T146 358T193 378V443L152 436Q106 427 106 392Z" />
<glyph unicode="&#xab;" glyph-name="guillemotleft" horiz-adv-x="466" d="M218 28L45 196V220L218 388L241 366L138 208L241 50L218 28ZM396 28L223 196V220L396 388L419 366L316 208L419 50L396 28Z" />
<glyph unicode="&#xac;" glyph-name="logicalnot" horiz-adv-x="567" d="M54 234V299H513V100H453V234H54Z" />
<glyph unicode="&#xae;" glyph-name="registered" horiz-adv-x="497" d="M223 468H241Q279 468 279 504T244 541Q230 541 223 538V468ZM163 377Q185 377 185 389V529Q185 536 180 537L163 541L164 557Q168 557 176 557L244 559Q277 559 298 547T319 512T306 475T273
460V457Q285 454 305 422T335 383T360 377L357 361H310Q301 361 293 373T281 393T269 412Q250 444 245 446T238 449H223V392Q223 383 230 381L255 377L253 360Q221 362 209 362T164 360L163 377ZM32 358T32 449T95 603T249 666T402 603T465 449T403 296T249 233T95
295ZM73 525T73 449T124 319T248 265T372 319T424 449T373 579T249 634T125 580Z" />
<glyph unicode="&#xaf;" glyph-name="overscore" horiz-adv-x="500" d="M0 547V596H500V547H0Z" />
<glyph unicode="&#xb0;" glyph-name="degree" horiz-adv-x="299" d="M27 499T27 548T62 631T148 666T235 632T272 548T236 465T149 430T63 464ZM78 576T78 548T98 499T148 478T199 499T221 548T200 597T149 618T99 597Z" />
<glyph unicode="&#xb1;" glyph-name="plusminus" horiz-adv-x="460" d="M261 496V341H410V285H261V127H199V285H50V341H199V496H261ZM414 18H46V74H414V18Z" />
<glyph unicode="&#xb2;" glyph-name="twosuperior" horiz-adv-x="367" d="M106 612Q103 596 103 579T105 543L73 539Q54 575 45 635Q123 665 170 665T251 641T285 568Q285 540 273 515T248 476Q208 431 127 368L130 361H251Q259 368 274 389T293 422L320 417Q320
406 312 368T299 315H50L45 355Q115 416 150 459Q206 517 206 563Q206 590 194 607T155 624T106 612Z" />
<glyph unicode="&#xb3;" glyph-name="threesuperior" horiz-adv-x="347" d="M203 550T203 574T190 611T147 625T102 618Q99 585 99 573T99 556L71 551Q55 578 48 641Q137 666 175 666T246 646T278 593T254 537T198 509V502Q239 502 269 481T300 415T258 338T162
306T43 324Q44 338 52 373T67 425L96 421Q95 406 95 386T99 354Q120 347 149 347T200 363T221 406Q221 476 143 476Q135 476 126 475L128 505Q154 510 178 530Z" />
<glyph unicode="&#xb4;" glyph-name="acute" horiz-adv-x="322" d="M151 670Q178 676 205 676T236 676L246 660L95 498L63 517Q73 536 108 598T151 670Z" />
<glyph unicode="&#xb5;" glyph-name="mu" horiz-adv-x="523" d="M116 14Q116 -181 156 -249L142 -260Q126 -260 102 -255T68 -243Q69 -94 83 117V401L93 416Q119 428 155 432L170 414Q163 388 163 316V155Q163 101 178 76T232 50T306 98T342 194V401L352 416Q378
427 415 432L430 414Q423 384 423 316V95Q423 52 447 52Q461 52 481 69T515 105L535 88Q471 -16 414 -16Q383 -16 364 7T345 63V96Q310 38 275 11T192 -16T116 14Z" />
<glyph unicode="&#xb6;" glyph-name="paragraph" horiz-adv-x="481" d="M119 248T71 293T22 420T71 556T203 610H233L256 591V267L233 248H203Q119 248 71 293ZM373 565V42Q373 -79 306 -138Q270 -170 223 -170H211Q185 -138 164 -53L184 -43Q216 -62 239 -62T281
-45T306 0Q313 22 313 77V522Q313 609 300 643L320 666Q402 658 471 631L462 591Q423 599 403 599T378 592T373 565Z" />
<glyph unicode="&#xb7;" glyph-name="middot" horiz-adv-x="285" d="M87 248T87 271T102 309T142 324T182 309T198 271T183 234T143 219T103 233Z" />
<glyph unicode="&#xb8;" glyph-name="cedilla" horiz-adv-x="322" d="M201 -71T223 -93T246 -153T219 -214T150 -239T57 -211L72 -180Q112 -198 140 -198Q193 -198 193 -158Q193 -132 170 -118Q155 -110 140 -110T112 -113L99 -92L151 0H191L169 -71Q201 -71 223 -93Z" />
<glyph unicode="&#xb9;" glyph-name="onesuperior" horiz-adv-x="293" d="M188 379Q188 362 202 355Q214 348 253 342L248 310Q210 315 151 315T55 310L48 342Q88 347 103 354T118 379V575Q118 591 112 597T90 604H50L46 628Q115 657 171 666L188 649V379Z" />
<glyph unicode="&#xba;" glyph-name="ordmasculine" horiz-adv-x="362" d="M110 305T72 345T33 453T74 565T183 610T290 571T329 463T288 350T179 305ZM112 466Q112 408 132 377T190 346Q249 346 249 452Q249 508 229 538T171 569Q112 569 112 466Z" />
<glyph unicode="&#xbb;" glyph-name="guillemotright" horiz-adv-x="466" d="M421 196L248 28L225 50L328 208L225 366L248 388L421 220V196ZM243 196L70 28L47 50L150 208L47 366L70 388L243 220V196Z" />
<glyph unicode="&#xbc;" glyph-name="onequarter" horiz-adv-x="731" d="M183 8L543 687L583 663L223 -16L183 8ZM204 379Q204 362 218 355Q230 348 269 342L264 310Q226 315 167 315T71 310L64 342Q104 347 119 354T134 379V575Q134 591 128 597T106 604H66L62
628Q131 657 187 666L204 649V379ZM616 100V55Q616 42 627 36L656 27L652 -5Q602 0 579 0T496 -5L492 27Q524 31 535 36T546 55V100H416L394 137L553 351H616V146H665L655 100H616ZM546 146V285L544 286L538 272L448 151L451 146H546Z" />
<glyph unicode="&#xbd;" glyph-name="onehalf" horiz-adv-x="779" d="M161 8L521 687L561 663L201 -16L161 8ZM204 379Q204 362 218 355Q230 348 269 342L264 310Q226 315 167 315T71 310L64 342Q104 347 119 354T134 379V575Q134 591 128 597T106 604H66L62 628Q131
657 187 666L204 649V379ZM497 297Q494 281 494 264T496 228L464 224Q445 260 436 320Q514 350 561 350T642 326T676 253Q676 225 664 200T639 161T599 121T518 53L521 46H642Q650 53 665 74T684 107L711 102Q711 91 703 53T690 0H441L436 40Q506 101 541 144Q597
202 597 248Q597 275 585 292T546 309T497 297Z" />
<glyph unicode="&#xbe;" glyph-name="threequarters" horiz-adv-x="738" d="M190 8L550 687L590 663L230 -16L190 8ZM216 550T216 574T203 611T160 625T115 618Q112 585 112 573T112 556L84 551Q68 578 61 641Q150 666 188 666T259 646T291 593T267 537T211 509V502Q252
502 282 481T313 415T271 338T175 306T56 324Q57 338 65 373T80 425L109 421Q108 406 108 386T112 354Q133 347 162 347T213 363T234 406Q234 476 156 476Q148 476 139 475L141 505Q167 510 191 530ZM623 100V55Q623 42 634 36L663 27L659 -5Q609 0 586 0T503 -5L499
27Q531 31 542 36T553 55V100H423L401 137L560 351H623V146H672L662 100H623ZM553 146V285L551 286L545 272L455 151L458 146H553Z" />
<glyph unicode="&#xbf;" glyph-name="questiondown" horiz-adv-x="432" d="M212 109T227 131T243 170T231 220L255 240Q302 196 320 149Q320 129 309 113T291 88T270 65L249 44Q242 37 225 22T202 1Q130 -65 130 -107T158 -176T230 -202T296 -173T320 -74L354
-66Q380 -155 380 -196Q276 -243 205 -243T92 -206T50 -94Q50 -66 66 -37T100 9T149 53T196 94ZM317 394T317 370T302 331T261 316T219 331T203 370T219 408T260 424T301 409Z" />
<glyph unicode="&#xc0;" glyph-name="Agrave" horiz-adv-x="650" d="M134 65Q134 45 159 38L218 25L212 -8Q157 0 108 0T3 -8L-4 25Q38 34 50 45T78 101L277 645Q321 655 353 674L568 101Q584 58 597 46T652 25L645 -8Q589 0 526 0T406 -8L400 25Q435 31 459 38T483
65Q483 72 480 79L423 237H190L136 79Q134 74 134 65ZM294 537L207 287H405L317 530L306 572L299 575L294 537ZM156 799L162 817Q174 822 203 827T246 833Q257 826 308 774T370 708L344 681L156 799Z" />
<glyph unicode="&#xc1;" glyph-name="Aacute" horiz-adv-x="650" d="M134 65Q134 45 159 38L218 25L212 -8Q157 0 108 0T3 -8L-4 25Q38 34 50 45T78 101L277 645Q321 655 353 674L568 101Q584 58 597 46T652 25L645 -8Q589 0 526 0T406 -8L400 25Q435 31 459 38T483
65Q483 72 480 79L423 237H190L136 79Q134 74 134 65ZM294 537L207 287H405L317 530L306 572L299 575L294 537ZM429 817L435 799L247 681L221 708Q232 721 283 773T345 833Q358 833 387 828T429 817Z" />
<glyph unicode="&#xc2;" glyph-name="Acircumflex" horiz-adv-x="650" d="M134 65Q134 45 159 38L218 25L212 -8Q157 0 108 0T3 -8L-4 25Q38 34 50 45T78 101L277 645Q321 655 353 674L568 101Q584 58 597 46T652 25L645 -8Q589 0 526 0T406 -8L400 25Q435 31
459 38T483 65Q483 72 480 79L423 237H190L136 79Q134 74 134 65ZM294 537L207 287H405L317 530L306 572L299 575L294 537ZM278 831T303 831T344 829Q356 820 398 767T446 702L418 681L303 771L188 681L160 702Q166 713 208 766T262 829Q278 831 303 831Z" />
<glyph unicode="&#xc3;" glyph-name="Atilde" horiz-adv-x="650" d="M134 65Q134 45 159 38L218 25L212 -8Q157 0 108 0T3 -8L-4 25Q38 34 50 45T78 101L277 645Q321 655 353 674L568 101Q584 58 597 46T652 25L645 -8Q589 0 526 0T406 -8L400 25Q435 31 459 38T483
65Q483 72 480 79L423 237H190L136 79Q134 74 134 65ZM294 537L207 287H405L317 530L306 572L299 575L294 537ZM258 733T234 733T176 691L149 707Q159 725 184 754T224 794L247 798Q259 796 304 777T372 757T431 800L458 783Q447 765 422 735T383 695L360 691Q348
693 303 713Z" />
<glyph unicode="&#xc4;" glyph-name="Adieresis" horiz-adv-x="650" d="M134 65Q134 45 159 38L218 25L212 -8Q157 0 108 0T3 -8L-4 25Q38 34 50 45T78 101L277 645Q321 655 353 674L568 101Q584 58 597 46T652 25L645 -8Q589 0 526 0T406 -8L400 25Q435 31 459
38T483 65Q483 72 480 79L423 237H190L136 79Q134 74 134 65ZM294 537L207 287H405L317 530L306 572L299 575L294 537ZM151 716T151 739T166 777T206 792T246 777T262 739T247 702T207 687T167 701ZM343 716T343 739T358 777T398 792T438 777T454 739T439 702T399
687T359 701Z" />
<glyph unicode="&#xc5;" glyph-name="Aring" horiz-adv-x="650" d="M134 65Q134 45 159 38L218 25L212 -8Q157 0 108 0T3 -8L-4 25Q38 34 50 45T78 101L277 645Q321 655 353 674L568 101Q584 58 597 46T652 25L645 -8Q589 0 526 0T406 -8L400 25Q435 31 459 38T483
65Q483 72 480 79L423 237H190L136 79Q134 74 134 65ZM294 537L207 287H405L317 530L306 572L299 575L294 537ZM262 788T262 766T276 729T310 714T344 729T358 766T344 803T310 818T276 803ZM224 732T224 766T249 825T310 851T370 826T396 766T371 707T310 681T250
706Z" />
<glyph unicode="&#xc6;" glyph-name="AE" horiz-adv-x="857" d="M459 650H695Q741 650 777 656V501L740 495Q726 580 708 603H503V360H638Q666 360 671 375Q677 389 682 422L683 434L721 430Q713 380 713 336T721 242L683 238Q678 281 672 296T638 312H503V48H718Q731
60 748 103T773 173L809 167Q808 139 801 80T788 0H459Q413 0 346 -8L339 25Q379 30 396 37T414 69V312H259L153 79Q144 60 144 51T152 37Q165 31 199 26L210 25L204 -8Q144 0 95 0T-5 -8L-12 25Q31 33 45 42Q62 51 85 101L346 656Q393 650 459 650ZM414 603H392L281
360H414V603Z" />
<glyph unicode="&#xc7;" glyph-name="Ccedilla" horiz-adv-x="660" d="M47 299Q47 461 141 563T393 666Q455 666 499 658T579 643T620 634Q610 525 593 463L559 457Q546 563 525 594Q477 620 374 620T209 541T148 335T216 119T395 30Q474 30 515 66T581 186L615
181Q614 106 594 17Q497 -16 385 -16H382L365 -71Q397 -71 419 -93T442 -153T415 -214T346 -239T253 -211L268 -180Q308 -198 336 -198Q389 -198 389 -158Q389 -132 366 -118Q351 -110 336 -110T308 -113L295 -92L339 -13Q208 0 128 83T47 299Z" />
<glyph unicode="&#xc8;" glyph-name="Egrave" horiz-adv-x="583" d="M214 312V48H444Q457 60 474 103T499 173L535 167Q534 139 527 80T514 0H170Q124 0 57 -8L50 25Q90 30 107 37T125 69V583Q125 607 109 613Q96 619 60 624L50 626L57 659Q133 650 170 650H421Q466
650 503 656Q506 620 506 581T503 501L466 495Q452 580 434 603H214V360H364Q392 360 397 375Q403 389 408 422L409 434L447 430Q439 380 439 336T447 242L409 238Q404 281 398 296T364 312H214ZM147 799L153 817Q165 822 194 827T237 833Q248 826 299 774T361
708L335 681L147 799Z" />
<glyph unicode="&#xc9;" glyph-name="Eacute" horiz-adv-x="583" d="M214 312V48H444Q457 60 474 103T499 173L535 167Q534 139 527 80T514 0H170Q124 0 57 -8L50 25Q90 30 107 37T125 69V583Q125 607 109 613Q96 619 60 624L50 626L57 659Q133 650 170 650H421Q466
650 503 656Q506 620 506 581T503 501L466 495Q452 580 434 603H214V360H364Q392 360 397 375Q403 389 408 422L409 434L447 430Q439 380 439 336T447 242L409 238Q404 281 398 296T364 312H214ZM420 817L426 799L238 681L212 708Q223 721 274 773T336 833Q349
833 378 828T420 817Z" />
<glyph unicode="&#xca;" glyph-name="Ecircumflex" horiz-adv-x="583" d="M214 312V48H444Q457 60 474 103T499 173L535 167Q534 139 527 80T514 0H170Q124 0 57 -8L50 25Q90 30 107 37T125 69V583Q125 607 109 613Q96 619 60 624L50 626L57 659Q133 650 170 650H421Q466
650 503 656Q506 620 506 581T503 501L466 495Q452 580 434 603H214V360H364Q392 360 397 375Q403 389 408 422L409 434L447 430Q439 380 439 336T447 242L409 238Q404 281 398 296T364 312H214ZM269 831T294 831T335 829Q347 820 389 767T437 702L409 681L294
771L179 681L151 702Q157 713 199 766T253 829Q269 831 294 831Z" />
<glyph unicode="&#xcb;" glyph-name="Edieresis" horiz-adv-x="583" d="M214 312V48H444Q457 60 474 103T499 173L535 167Q534 139 527 80T514 0H170Q124 0 57 -8L50 25Q90 30 107 37T125 69V583Q125 607 109 613Q96 619 60 624L50 626L57 659Q133 650 170 650H421Q466
650 503 656Q506 620 506 581T503 501L466 495Q452 580 434 603H214V360H364Q392 360 397 375Q403 389 408 422L409 434L447 430Q439 380 439 336T447 242L409 238Q404 281 398 296T364 312H214ZM142 715T142 738T157 776T197 791T237 776T253 738T238 701T198
686T158 700ZM334 715T334 738T349 776T389 791T429 776T445 738T430 701T390 686T350 700Z" />
<glyph unicode="&#xcc;" glyph-name="Igrave" horiz-adv-x="339" d="M214 582V68Q214 54 216 49T228 38Q243 32 280 26L291 25L284 -8Q217 0 171 0T57 -8L50 25Q116 33 122 48Q125 54 125 68V582Q125 596 123 601T110 612Q96 618 60 624L50 625L57 658Q124 650
170 650T284 658L291 625Q224 617 216 602Q214 596 214 582ZM24 799L30 817Q42 822 71 827T114 833Q125 826 176 774T238 708L212 681L24 799Z" />
<glyph unicode="&#xcd;" glyph-name="Iacute" horiz-adv-x="339" d="M214 582V68Q214 54 216 49T228 38Q243 32 280 26L291 25L284 -8Q217 0 171 0T57 -8L50 25Q116 33 122 48Q125 54 125 68V582Q125 596 123 601T110 612Q96 618 60 624L50 625L57 658Q124 650
170 650T284 658L291 625Q224 617 216 602Q214 596 214 582ZM297 817L303 799L115 681L89 708Q100 721 151 773T213 833Q226 833 255 828T297 817Z" />
<glyph unicode="&#xce;" glyph-name="Icircumflex" horiz-adv-x="339" d="M214 582V68Q214 54 216 49T228 38Q243 32 280 26L291 25L284 -8Q217 0 171 0T57 -8L50 25Q116 33 122 48Q125 54 125 68V582Q125 596 123 601T110 612Q96 618 60 624L50 625L57 658Q124
650 170 650T284 658L291 625Q224 617 216 602Q214 596 214 582ZM146 831T171 831T212 829Q224 820 266 767T314 702L286 681L171 771L56 681L28 702Q34 713 76 766T130 829Q146 831 171 831Z" />
<glyph unicode="&#xcf;" glyph-name="Idieresis" horiz-adv-x="339" d="M214 582V68Q214 54 216 49T228 38Q243 32 280 26L291 25L284 -8Q217 0 171 0T57 -8L50 25Q116 33 122 48Q125 54 125 68V582Q125 596 123 601T110 612Q96 618 60 624L50 625L57 658Q124
650 170 650T284 658L291 625Q224 617 216 602Q214 596 214 582ZM19 715T19 738T34 776T74 791T114 776T130 738T115 701T75 686T35 700ZM211 715T211 738T226 776T266 791T306 776T322 738T307 701T267 686T227 700Z" />
<glyph unicode="&#xd0;" glyph-name="Eth" horiz-adv-x="750" d="M95 652L329 660Q500 660 598 590Q703 517 703 353T611 91T357 -8Q311 -8 248 -4T157 0T57 -8L50 25Q90 30 107 37T125 69V315H46L55 361H125V579Q125 592 123 596T110 606Q97 613 60 620L50 622L57
653Q72 652 95 652ZM214 88Q214 36 342 36T536 115T602 334Q602 615 310 615Q250 615 214 606V361H395L386 315H214V88Z" />
<glyph unicode="&#xd1;" glyph-name="Ntilde" horiz-adv-x="764" d="M191 77Q191 62 195 54T213 42L296 28L289 -8Q219 0 175 0T57 -8L50 25Q90 30 107 37T125 69V583Q125 607 109 613Q95 620 61 624L50 626L57 659Q104 650 152 650T241 659Q262 619 303 563L554
216Q571 191 582 157L586 145L591 149V580Q591 603 574 610Q558 618 520 622L507 624L514 659Q590 650 620 650T725 659L732 626Q693 621 675 614T657 583V193Q657 113 663 29L665 1L590 -14Q555 70 475 178L232 507Q215 531 201 561L196 572L191 568V77ZM347 734T323
734T265 692L238 708Q248 726 273 755T313 795L336 799Q348 797 393 778T461 758T520 801L547 784Q536 766 511 736T472 696L449 692Q437 694 392 714Z" />
<glyph unicode="&#xd2;" glyph-name="Ograve" horiz-adv-x="755" d="M227 -16T137 71T47 311T136 565T377 666T618 579T708 339T619 85T378 -16ZM258 618T203 542T148 339T210 122T384 32T552 108T607 311T545 528T371 618ZM228 799L234 817Q246 822 275 827T318
833Q329 826 380 774T442 708L416 681L228 799Z" />
<glyph unicode="&#xd3;" glyph-name="Oacute" horiz-adv-x="755" d="M227 -16T137 71T47 311T136 565T377 666T618 579T708 339T619 85T378 -16ZM258 618T203 542T148 339T210 122T384 32T552 108T607 311T545 528T371 618ZM501 817L507 799L319 681L293 708Q304
721 355 773T417 833Q430 833 459 828T501 817Z" />
<glyph unicode="&#xd4;" glyph-name="Ocircumflex" horiz-adv-x="755" d="M227 -16T137 71T47 311T136 565T377 666T618 579T708 339T619 85T378 -16ZM258 618T203 542T148 339T210 122T384 32T552 108T607 311T545 528T371 618ZM350 831T375 831T416 829Q428
820 470 767T518 702L490 681L375 771L260 681L232 702Q238 713 280 766T334 829Q350 831 375 831Z" />
<glyph unicode="&#xd5;" glyph-name="Otilde" horiz-adv-x="755" d="M227 -16T137 71T47 311T136 565T377 666T618 579T708 339T619 85T378 -16ZM258 618T203 542T148 339T210 122T384 32T552 108T607 311T545 528T371 618ZM330 733T306 733T248 691L221 707Q231
725 256 754T296 794L319 798Q331 796 376 777T444 757T503 800L530 783Q519 765 494 735T455 695L432 691Q420 693 375 713Z" />
<glyph unicode="&#xd6;" glyph-name="Odieresis" horiz-adv-x="755" d="M227 -16T137 71T47 311T136 565T377 666T618 579T708 339T619 85T378 -16ZM258 618T203 542T148 339T210 122T384 32T552 108T607 311T545 528T371 618ZM223 715T223 738T238 776T278 791T318
776T334 738T319 701T279 686T239 700ZM415 715T415 738T430 776T470 791T510 776T526 738T511 701T471 686T431 700Z" />
<glyph unicode="&#xd7;" glyph-name="multiply" horiz-adv-x="460" d="M368 34L230 172L92 34L51 75L189 213L51 351L92 392L230 254L368 392L409 351L271 213L409 75L368 34Z" />
<glyph unicode="&#xd8;" glyph-name="Oslash" horiz-adv-x="755" d="M143 64Q47 151 47 307T136 565T375 666Q467 666 540 632L585 697L619 660L582 608Q708 521 708 341Q708 186 619 85T380 -16Q265 -16 183 35L137 -31L102 5L143 64ZM607 305Q607 455 535 540L228
99Q290 32 393 32T552 108T607 305ZM148 466T148 345T197 141L500 575Q443 618 366 618Q258 618 203 542Z" />
<glyph unicode="&#xd9;" glyph-name="Ugrave" horiz-adv-x="724" d="M558 229V581Q558 594 556 599T544 610Q525 618 492 622L480 624L487 658Q554 650 590 650T693 658L700 624Q658 619 641 612T623 582V245Q623 118 555 52T357 -14T164 45T101 233V582Q101 596
99 601T86 612Q72 618 36 624L26 625L33 658Q100 650 148 650T263 658L270 625Q199 616 192 600Q190 595 190 581V249Q190 145 236 96T374 46T512 95T558 229ZM225 799L231 817Q243 822 272 827T315 833Q326 826 377 774T439 708L413 681L225 799Z" />
<glyph unicode="&#xda;" glyph-name="Uacute" horiz-adv-x="724" d="M558 229V581Q558 594 556 599T544 610Q525 618 492 622L480 624L487 658Q554 650 590 650T693 658L700 624Q658 619 641 612T623 582V245Q623 118 555 52T357 -14T164 45T101 233V582Q101 596
99 601T86 612Q72 618 36 624L26 625L33 658Q100 650 148 650T263 658L270 625Q199 616 192 600Q190 595 190 581V249Q190 145 236 96T374 46T512 95T558 229ZM498 817L504 799L316 681L290 708Q301 721 352 773T414 833Q427 833 456 828T498 817Z" />
<glyph unicode="&#xdb;" glyph-name="Ucircumflex" horiz-adv-x="724" d="M558 229V581Q558 594 556 599T544 610Q525 618 492 622L480 624L487 658Q554 650 590 650T693 658L700 624Q658 619 641 612T623 582V245Q623 118 555 52T357 -14T164 45T101 233V582Q101
596 99 601T86 612Q72 618 36 624L26 625L33 658Q100 650 148 650T263 658L270 625Q199 616 192 600Q190 595 190 581V249Q190 145 236 96T374 46T512 95T558 229ZM347 831T372 831T413 829Q425 820 467 767T515 702L487 681L372 771L257 681L229 702Q235 713 277
766T331 829Q347 831 372 831Z" />
<glyph unicode="&#xdc;" glyph-name="Udieresis" horiz-adv-x="724" d="M558 229V581Q558 594 556 599T544 610Q525 618 492 622L480 624L487 658Q554 650 590 650T693 658L700 624Q658 619 641 612T623 582V245Q623 118 555 52T357 -14T164 45T101 233V582Q101
596 99 601T86 612Q72 618 36 624L26 625L33 658Q100 650 148 650T263 658L270 625Q199 616 192 600Q190 595 190 581V249Q190 145 236 96T374 46T512 95T558 229ZM220 715T220 738T235 776T275 791T315 776T331 738T316 701T276 686T236 700ZM412 715T412 738T427
776T467 791T507 776T523 738T508 701T468 686T428 700Z" />
<glyph unicode="&#xdd;" glyph-name="Yacute" horiz-adv-x="592" d="M-2 659Q52 650 117 650T251 659L248 627Q218 621 197 614T176 592T184 563L316 330L447 564Q454 576 454 587T443 606Q431 614 374 627L371 659Q441 650 487 650T594 659L590 627Q559 624 542
612T505 562L339 276V68Q339 44 355 37Q371 29 413 24L427 23L419 -8Q353 0 296 0T172 -8L165 24Q215 29 232 36T250 68V274L79 569Q61 602 46 613T2 627L-2 659ZM433 817L439 799L251 681L225 708Q236 721 287 773T349 833Q362 833 391 828T433 817Z" />
<glyph unicode="&#xde;" glyph-name="Thorn" horiz-adv-x="537" d="M228 214L261 210Q422 210 422 351Q422 426 382 462T271 499Q244 499 214 492V68Q214 54 216 49T228 38Q243 32 280 26L291 25L284 -8Q217 0 171 0T57 -8L50 25Q116 33 122 48Q125 54 125 68V582Q125
596 123 601T110 612Q96 618 60 624L50 625L57 658Q124 650 170 650T284 658L291 625Q224 617 216 602Q214 596 214 582V535Q244 538 277 538Q521 538 521 364Q521 285 453 229T298 173Q284 173 263 182T232 198L228 214Z" />
<glyph unicode="&#xdf;" glyph-name="germandbls" horiz-adv-x="590" d="M446 441Q425 422 404 406Q356 370 356 346T377 304T436 265T489 235T524 208Q560 175 560 114T516 18T402 -16T281 11Q279 25 279 65T281 120L310 126Q318 80 343 51T407 22Q483 22 483
92Q483 126 461 147T394 193T333 228T300 266T284 323T296 376T327 412T363 442Q406 476 406 540T377 639T277 675Q244 675 223 651Q187 610 187 531V67Q187 54 190 49T204 37L241 22L233 -8Q171 0 145 0T42 -8L34 22Q73 28 87 35T104 48T107 66V372H44L41 401L107
416V474Q107 575 159 646T303 718T444 669T494 553T446 441Z" />
<glyph unicode="&#xe0;" glyph-name="agrave" horiz-adv-x="455" d="M127 84T145 64T197 44T283 84V198L206 184Q127 171 127 112Q127 84 145 64ZM363 286V82Q363 46 402 46L429 47L437 18Q388 7 333 -16Q296 9 286 51Q241 13 213 -1T156 -16Q105 -16 75 16T44
102T83 183T191 217L283 227V272Q283 329 266 358T205 387T138 375Q132 354 132 283L90 271Q68 344 65 383Q173 432 221 432Q295 432 329 397T363 286ZM119 676Q123 676 132 676Q177 676 204 670Q212 661 247 599T292 517L260 498L109 660L119 676Z" />
<glyph unicode="&#xe1;" glyph-name="aacute" horiz-adv-x="455" d="M127 84T145 64T197 44T283 84V198L206 184Q127 171 127 112Q127 84 145 64ZM363 286V82Q363 46 402 46L429 47L437 18Q388 7 333 -16Q296 9 286 51Q241 13 213 -1T156 -16Q105 -16 75 16T44
102T83 183T191 217L283 227V272Q283 329 266 358T205 387T138 375Q132 354 132 283L90 271Q68 344 65 383Q173 432 221 432Q295 432 329 397T363 286ZM236 670Q263 676 290 676T321 676L331 660L180 498L148 517Q158 536 193 598T236 670Z" />
<glyph unicode="&#xe2;" glyph-name="acircumflex" horiz-adv-x="455" d="M127 84T145 64T197 44T283 84V198L206 184Q127 171 127 112Q127 84 145 64ZM363 286V82Q363 46 402 46L429 47L437 18Q388 7 333 -16Q296 9 286 51Q241 13 213 -1T156 -16Q105 -16 75
16T44 102T83 183T191 217L283 227V272Q283 329 266 358T205 387T138 375Q132 354 132 283L90 271Q68 344 65 383Q173 432 221 432Q295 432 329 397T363 286ZM195 676T220 676T261 674Q270 665 306 602T352 517L320 498L220 610L120 498L88 517Q98 538 134 601T179
674Q195 676 220 676Z" />
<glyph unicode="&#xe3;" glyph-name="atilde" horiz-adv-x="455" d="M127 84T145 64T197 44T283 84V198L206 184Q127 171 127 112Q127 84 145 64ZM363 286V82Q363 46 402 46L429 47L437 18Q388 7 333 -16Q296 9 286 51Q241 13 213 -1T156 -16Q105 -16 75 16T44
102T83 183T191 217L283 227V272Q283 329 266 358T205 387T138 375Q132 354 132 283L90 271Q68 344 65 383Q173 432 221 432Q295 432 329 397T363 286ZM175 566T151 566T93 524L66 540Q76 558 101 587T141 627L164 631Q176 629 221 610T289 590T348 633L375 616Q364
598 339 568T300 528L277 524Q265 526 220 546Z" />
<glyph unicode="&#xe4;" glyph-name="adieresis" horiz-adv-x="455" d="M127 84T145 64T197 44T283 84V198L206 184Q127 171 127 112Q127 84 145 64ZM363 286V82Q363 46 402 46L429 47L437 18Q388 7 333 -16Q296 9 286 51Q241 13 213 -1T156 -16Q105 -16 75 16T44
102T83 183T191 217L283 227V272Q283 329 266 358T205 387T138 375Q132 354 132 283L90 271Q68 344 65 383Q173 432 221 432Q295 432 329 397T363 286ZM68 568T68 591T83 629T123 644T163 629T179 591T164 554T124 539T84 553ZM260 568T260 591T275 629T315 644T355
629T371 591T356 554T316 539T276 553Z" />
<glyph unicode="&#xe5;" glyph-name="aring" horiz-adv-x="455" d="M127 84T145 64T197 44T283 84V198L206 184Q127 171 127 112Q127 84 145 64ZM363 286V82Q363 46 402 46L429 47L437 18Q388 7 333 -16Q296 9 286 51Q241 13 213 -1T156 -16Q105 -16 75 16T44
102T83 183T191 217L283 227V272Q283 329 266 358T205 387T138 375Q132 354 132 283L90 271Q68 344 65 383Q173 432 221 432Q295 432 329 397T363 286ZM170 610T170 588T184 551T218 536T252 551T266 588T252 625T218 640T184 625ZM132 554T132 588T157 647T218
673T278 648T304 588T279 529T218 503T158 528Z" />
<glyph unicode="&#xe6;" glyph-name="ae" horiz-adv-x="679" d="M507 47Q566 47 624 90L640 68Q551 -16 474 -16Q366 -16 314 71Q223 -16 156 -16Q105 -16 75 16T44 102T83 183T191 217L283 227V272Q283 329 266 358T203 387T133 374Q129 354 129 286L88 276Q72
326 65 383Q173 432 221 432Q314 432 345 375Q397 432 477 432T599 378T642 230L366 210Q374 47 507 47ZM552 322T532 356T464 391T391 348T366 246L552 270Q552 322 532 356ZM191 44Q240 44 301 99Q283 141 283 198L206 184Q127 171 127 112Q127 84 145 64T191
44Z" />
<glyph unicode="&#xe7;" glyph-name="ccedilla" horiz-adv-x="435" d="M126 3T84 59T42 206T96 364T243 432Q274 432 323 419T398 394Q396 373 384 326T362 259L328 265Q329 275 329 289Q329 349 318 371Q291 390 235 390Q131 390 131 223Q131 137 170 92T269
47T389 88L405 64Q316 -16 242 -16H239L222 -71Q254 -71 276 -93T299 -153T272 -214T203 -239T110 -211L125 -180Q165 -198 193 -198Q246 -198 246 -158Q246 -132 222 -118Q208 -110 193 -110T165 -113L152 -92L197 -11Q126 3 84 59Z" />
<glyph unicode="&#xe8;" glyph-name="egrave" horiz-adv-x="450" d="M275 47Q335 47 395 90L411 68Q320 -16 236 -16T97 42T42 198T97 363T239 432T370 378T413 230L131 210Q139 47 275 47ZM234 391Q181 391 156 349T131 246L323 270Q323 391 234 391ZM139 676Q143
676 152 676Q197 676 224 670Q232 661 267 599T312 517L280 498L129 660L139 676Z" />
<glyph unicode="&#xe9;" glyph-name="eacute" horiz-adv-x="450" d="M275 47Q335 47 395 90L411 68Q320 -16 236 -16T97 42T42 198T97 363T239 432T370 378T413 230L131 210Q139 47 275 47ZM234 391Q181 391 156 349T131 246L323 270Q323 391 234 391ZM256 670Q283
676 310 676T341 676L351 660L200 498L168 517Q178 536 213 598T256 670Z" />
<glyph unicode="&#xea;" glyph-name="ecircumflex" horiz-adv-x="450" d="M275 47Q335 47 395 90L411 68Q320 -16 236 -16T97 42T42 198T97 363T239 432T370 378T413 230L131 210Q139 47 275 47ZM234 391Q181 391 156 349T131 246L323 270Q323 391 234 391ZM215
676T240 676T281 674Q290 665 326 602T372 517L340 498L240 610L140 498L108 517Q118 538 154 601T199 674Q215 676 240 676Z" />
<glyph unicode="&#xeb;" glyph-name="edieresis" horiz-adv-x="450" d="M275 47Q335 47 395 90L411 68Q320 -16 236 -16T97 42T42 198T97 363T239 432T370 378T413 230L131 210Q139 47 275 47ZM234 391Q181 391 156 349T131 246L323 270Q323 391 234 391ZM88 568T88
591T103 629T143 644T183 629T199 591T184 554T144 539T104 553ZM280 568T280 591T295 629T335 644T375 629T391 591T376 554T336 539T296 553Z" />
<glyph unicode="&#xec;" glyph-name="igrave" horiz-adv-x="284" d="M187 66Q187 53 189 48T202 38Q221 28 250 24L260 22L253 -8Q186 0 147 0T42 -8L34 22Q73 28 87 35T104 48T107 66V341Q107 370 90 373Q75 375 43 369L37 399Q67 411 112 421T183 432L198 414Q187
372 187 316V66ZM39 676Q43 676 52 676Q97 676 124 670Q132 661 167 599T212 517L180 498L29 660L39 676Z" />
<glyph unicode="&#xed;" glyph-name="iacute" horiz-adv-x="284" d="M187 66Q187 53 189 48T202 38Q221 28 250 24L260 22L253 -8Q186 0 147 0T42 -8L34 22Q73 28 87 35T104 48T107 66V341Q107 370 90 373Q75 375 43 369L37 399Q67 411 112 421T183 432L198 414Q187
372 187 316V66ZM156 670Q183 676 210 676T241 676L251 660L100 498L68 517Q78 536 113 598T156 670Z" />
<glyph unicode="&#xee;" glyph-name="icircumflex" horiz-adv-x="284" d="M187 66Q187 53 189 48T202 38Q221 28 250 24L260 22L253 -8Q186 0 147 0T42 -8L34 22Q73 28 87 35T104 48T107 66V341Q107 370 90 373Q75 375 43 369L37 399Q67 411 112 421T183 432L198
414Q187 372 187 316V66ZM115 676T140 676T181 674Q190 665 226 602T272 517L240 498L140 610L40 498L8 517Q18 538 54 601T99 674Q115 676 140 676Z" />
<glyph unicode="&#xef;" glyph-name="idieresis" horiz-adv-x="284" d="M187 66Q187 53 189 48T202 38Q221 28 250 24L260 22L253 -8Q186 0 147 0T42 -8L34 22Q73 28 87 35T104 48T107 66V341Q107 370 90 373Q75 375 43 369L37 399Q67 411 112 421T183 432L198
414Q187 372 187 316V66ZM-12 568T-12 591T3 629T43 644T83 629T99 591T84 554T44 539T4 553ZM180 568T180 591T195 629T235 644T275 629T291 591T276 554T236 539T196 553Z" />
<glyph unicode="&#xf0;" glyph-name="eth" horiz-adv-x="460" d="M421 290Q421 163 382 80Q336 -16 212 -16Q111 -16 57 42T3 200T60 366T211 432Q268 432 314 400Q294 505 242 574L128 509L114 549L215 607Q152 670 60 686L63 718Q173 713 268 637L379 701L393
661L300 607Q421 483 421 290ZM92 219Q92 125 127 75T225 25Q326 25 326 197Q326 283 319 320Q280 391 197 391Q92 391 92 219Z" />
<glyph unicode="&#xf1;" glyph-name="ntilde" horiz-adv-x="567" d="M187 64Q187 51 189 47T202 37Q221 27 256 21L249 -8Q167 0 146 0T42 -8L34 22Q73 28 87 35T104 48T107 66V336Q107 366 90 369Q73 371 46 366L35 364L30 394Q101 425 160 432L176 414Q176 388
186 358L224 387Q281 432 344 432T440 397T474 281V66Q474 53 476 48T488 38Q502 31 537 24L547 22L540 -8Q458 0 437 0T333 -8L326 21Q360 27 374 34T391 47T394 64V261Q394 319 374 345T302 371T187 321V64ZM243 566T219 566T161 524L134 540Q144 558 169 587T209
627L232 631Q244 629 289 610T357 590T416 633L443 616Q432 598 407 568T368 528L345 524Q333 526 288 546Z" />
<glyph unicode="&#xf2;" glyph-name="ograve" horiz-adv-x="502" d="M150 -16T96 42T42 200T99 366T253 432T405 374T460 216T402 50T247 -16ZM131 219Q131 125 166 75T264 25Q370 25 370 197Q370 290 335 340T236 391Q131 391 131 219ZM158 675Q162 675 171 675Q216
675 243 669Q251 660 286 598T331 516L299 497L148 659L158 675Z" />
<glyph unicode="&#xf3;" glyph-name="oacute" horiz-adv-x="502" d="M150 -16T96 42T42 200T99 366T253 432T405 374T460 216T402 50T247 -16ZM131 219Q131 125 166 75T264 25Q370 25 370 197Q370 290 335 340T236 391Q131 391 131 219ZM275 669Q302 675 329 675T360
675L370 659L219 497L187 516Q197 535 232 597T275 669Z" />
<glyph unicode="&#xf4;" glyph-name="ocircumflex" horiz-adv-x="502" d="M150 -16T96 42T42 200T99 366T253 432T405 374T460 216T402 50T247 -16ZM131 219Q131 125 166 75T264 25Q370 25 370 197Q370 290 335 340T236 391Q131 391 131 219ZM234 675T259 675T300
673Q309 664 345 601T391 516L359 497L259 609L159 497L127 516Q137 537 173 600T218 673Q234 675 259 675Z" />
<glyph unicode="&#xf5;" glyph-name="otilde" horiz-adv-x="502" d="M150 -16T96 42T42 200T99 366T253 432T405 374T460 216T402 50T247 -16ZM131 219Q131 125 166 75T264 25Q370 25 370 197Q370 290 335 340T236 391Q131 391 131 219ZM214 565T190 565T132 523L105
539Q115 557 140 586T180 626L203 630Q215 628 260 609T328 589T387 632L414 615Q403 597 378 567T339 527L316 523Q304 525 259 545Z" />
<glyph unicode="&#xf6;" glyph-name="odieresis" horiz-adv-x="502" d="M150 -16T96 42T42 200T99 366T253 432T405 374T460 216T402 50T247 -16ZM131 219Q131 125 166 75T264 25Q370 25 370 197Q370 290 335 340T236 391Q131 391 131 219ZM107 567T107 590T122
628T162 643T202 628T218 590T203 553T163 538T123 552ZM299 567T299 590T314 628T354 643T394 628T410 590T395 553T355 538T315 552Z" />
<glyph unicode="&#xf7;" glyph-name="divide" horiz-adv-x="460" d="M178 56T178 78T192 113T229 127T266 113T281 78T267 43T229 29T192 42ZM178 331T178 353T191 388T228 402T266 389T281 353T267 317T229 303T192 317ZM414 186H46V244H414V186Z" />
<glyph unicode="&#xf8;" glyph-name="oslash" horiz-adv-x="502" d="M98 40Q42 98 42 199T99 366T250 432Q310 432 356 409L397 469L427 439L390 387Q460 329 460 223T402 50T251 -16Q181 -16 130 14L92 -41L63 -11L98 40ZM370 197Q370 274 345 322L169 70Q203
25 264 25Q370 25 370 197ZM131 219Q131 152 147 110L320 358Q287 391 236 391Q131 391 131 219Z" />
<glyph unicode="&#xf9;" glyph-name="ugrave" horiz-adv-x="550" d="M453 85Q453 59 468 53T500 46T532 48L539 18Q470 4 422 -16Q375 18 375 57L339 30Q280 -16 220 -16Q93 -16 93 135V338Q93 370 76 373Q61 375 36 370L26 368L21 398Q80 423 166 432L180 414Q173
384 173 316V155Q173 98 194 72T263 45T372 92V338Q372 370 356 373Q338 375 310 370L299 368L293 398Q359 427 445 432L460 414Q453 384 453 316V85ZM169 676Q173 676 182 676Q227 676 254 670Q262 661 297 599T342 517L310 498L159 660L169 676Z" />
<glyph unicode="&#xfa;" glyph-name="uacute" horiz-adv-x="550" d="M453 85Q453 59 468 53T500 46T532 48L539 18Q470 4 422 -16Q375 18 375 57L339 30Q280 -16 220 -16Q93 -16 93 135V338Q93 370 76 373Q61 375 36 370L26 368L21 398Q80 423 166 432L180 414Q173
384 173 316V155Q173 98 194 72T263 45T372 92V338Q372 370 356 373Q338 375 310 370L299 368L293 398Q359 427 445 432L460 414Q453 384 453 316V85ZM286 670Q313 676 340 676T371 676L381 660L230 498L198 517Q208 536 243 598T286 670Z" />
<glyph unicode="&#xfb;" glyph-name="ucircumflex" horiz-adv-x="550" d="M453 85Q453 59 468 53T500 46T532 48L539 18Q470 4 422 -16Q375 18 375 57L339 30Q280 -16 220 -16Q93 -16 93 135V338Q93 370 76 373Q61 375 36 370L26 368L21 398Q80 423 166 432L180
414Q173 384 173 316V155Q173 98 194 72T263 45T372 92V338Q372 370 356 373Q338 375 310 370L299 368L293 398Q359 427 445 432L460 414Q453 384 453 316V85ZM245 676T270 676T311 674Q320 665 356 602T402 517L370 498L270 610L170 498L138 517Q148 538 184 601T229
674Q245 676 270 676Z" />
<glyph unicode="&#xfc;" glyph-name="udieresis" horiz-adv-x="550" d="M453 85Q453 59 468 53T500 46T532 48L539 18Q470 4 422 -16Q375 18 375 57L339 30Q280 -16 220 -16Q93 -16 93 135V338Q93 370 76 373Q61 375 36 370L26 368L21 398Q80 423 166 432L180
414Q173 384 173 316V155Q173 98 194 72T263 45T372 92V338Q372 370 356 373Q338 375 310 370L299 368L293 398Q359 427 445 432L460 414Q453 384 453 316V85ZM118 568T118 591T133 629T173 644T213 629T229 591T214 554T174 539T134 553ZM310 568T310 591T325
629T365 644T405 629T421 591T406 554T366 539T326 553Z" />
<glyph unicode="&#xfd;" glyph-name="yacute" horiz-adv-x="466" d="M65 -244H53Q30 -206 21 -147L39 -138Q67 -151 90 -151Q138 -151 165 -93L207 -1L47 353Q35 378 28 384T-1 392L-7 423Q57 416 92 416T192 423L190 394Q158 389 144 385T130 367Q130 361 133
353L238 113L243 88H249L256 118L350 352Q354 360 354 366Q354 379 338 384L293 393L291 422Q341 416 375 416T459 422L452 391Q430 390 423 384T406 352L195 -139Q150 -244 65 -244ZM257 670Q284 676 311 676T342 676L352 660L201 498L169 517Q179 536 214 598T257
670Z" />
<glyph unicode="&#xfe;" glyph-name="thorn" horiz-adv-x="517" d="M163 375Q248 432 308 432Q391 432 433 376T475 220T415 52T261 -16Q215 -16 163 2V-178Q163 -200 184 -207L256 -220L248 -253Q169 -244 134 -244T24 -253L16 -223Q74 -211 80 -197Q83 -192
83 -179V622Q83 640 78 648T58 656L16 650L10 680Q82 712 156 718L171 700Q163 670 163 602V375ZM267 373Q241 373 215 364T176 345L163 336V107Q163 70 191 48T269 25T352 69T386 201Q386 373 267 373Z" />
<glyph unicode="&#xff;" glyph-name="ydieresis" horiz-adv-x="466" d="M65 -244H53Q30 -206 21 -147L39 -138Q67 -151 90 -151Q138 -151 165 -93L207 -1L47 353Q35 378 28 384T-1 392L-7 423Q57 416 92 416T192 423L190 394Q158 389 144 385T130 367Q130 361
133 353L238 113L243 88H249L256 118L350 352Q354 360 354 366Q354 379 338 384L293 393L291 422Q341 416 375 416T459 422L452 391Q430 390 423 384T406 352L195 -139Q150 -244 65 -244ZM89 568T89 591T104 629T144 644T184 629T200 591T185 554T145 539T105 553ZM281
568T281 591T296 629T336 644T376 629T392 591T377 554T337 539T297 553Z" />
<glyph unicode="&#x2013;" glyph-name="endash" horiz-adv-x="567" d="M-4 194L4 255H571L563 194H-4Z" />
<glyph unicode="&#x2014;" glyph-name="emdash" horiz-adv-x="836" d="M-4 194L4 255H840L832 194H-4Z" />
<glyph unicode="&#x2018;" glyph-name="quoteleft" horiz-adv-x="222" d="M84 419T58 442T32 498T73 590T153 688L176 669Q107 568 107 537Q107 522 122 516T171 506L179 487Q154 445 112 416Q84 419 58 442Z" />
<glyph unicode="&#x2019;" glyph-name="quoteright" horiz-adv-x="222" d="M138 674T164 651T190 594T150 502T70 404L47 423Q115 522 115 555Q115 570 101 576T52 586L44 605Q67 646 110 676Q138 674 164 651Z" />
<glyph unicode="&#x201a;" glyph-name="quotesinglbase" horiz-adv-x="222" d="M138 107T164 84T190 27T150 -65T70 -163L47 -144Q115 -45 115 -12Q115 3 101 9T52 19L44 38Q67 79 110 109Q138 107 164 84Z" />
<glyph unicode="&#x201c;" glyph-name="quotedblleft" horiz-adv-x="408" d="M84 419T58 442T32 498T73 590T153 688L176 669Q107 568 107 537Q107 522 122 516T171 506L179 487Q154 445 112 416Q84 419 58 442ZM270 419T244 442T218 498T259 590T339 688L362
669Q293 568 293 537Q293 522 308 516T357 506L365 487Q356 471 336 450T298 416Q270 419 244 442Z" />
<glyph unicode="&#x201d;" glyph-name="quotedblright" horiz-adv-x="408" d="M322 674T348 651T374 594T334 502T254 404L231 423Q300 524 300 555Q300 570 285 576T236 586L228 605Q251 646 294 676Q322 674 348 651ZM136 673T162 650T188 594T148 502T68 404L45
423Q113 522 113 555Q113 570 99 576T50 586L42 605Q65 646 108 676Q136 673 162 650Z" />
<glyph unicode="&#x201e;" glyph-name="quotedblbase" horiz-adv-x="408" d="M322 107T348 84T374 27T334 -65T254 -163L231 -144Q300 -43 300 -12Q300 3 285 9T236 19L228 38Q251 79 294 109Q322 107 348 84ZM136 106T162 83T188 27T148 -65T68 -163L45 -144Q113
-45 113 -12Q113 3 99 9T50 19L42 38Q65 79 108 109Q136 106 162 83Z" />
<glyph unicode="&#x2022;" glyph-name="bullet" horiz-adv-x="433" d="M157 147T125 181T93 282T120 382T210 416T306 380T340 279T311 180T220 147Z" />
<glyph unicode="&#x2039;" glyph-name="guilsinglleft" horiz-adv-x="288" d="M218 28L45 196V220L218 388L241 366L138 208L241 50L218 28Z" />
<glyph unicode="&#x203a;" glyph-name="guilsinglright" horiz-adv-x="288" d="M243 196L70 28L47 50L150 208L47 366L70 388L243 220V196Z" />
</font>
</defs>
</svg>
