<?xml version="1.0" standalone="no"?>
<!DOCTYPE svg PUBLIC "-//W3C//DTD SVG 1.1//EN" "http://www.w3.org/Graphics/SVG/1.1/DTD/svg11.dtd">
<svg xmlns="http://www.w3.org/2000/svg">
<defs >
<font id="ChangaOne" horiz-adv-x="462" ><font-face
    font-family="Changa One"
    units-per-em="1000"
    panose-1="2 0 0 0 0 0 0 0 0 0"
    ascent="882"
    descent="-180"
    alphabetic="0" />
<glyph unicode=" " glyph-name="space" horiz-adv-x="200" />
<glyph unicode="!" glyph-name="exclam" horiz-adv-x="330" d="M221 170H60L107 598Q111 625 148 625H296Q327 625 327 605Q327 600 326 598L221 170ZM14 44Q14 101 45 125T133 149T211 137T232 96Q232 40 206 17T118 -7T35 4T14 44Z" />
<glyph unicode="&quot;" glyph-name="quotedbl" horiz-adv-x="500" d="M277 629L266 565Q265 561 171 300H76V531Q76 567 86 623Q90 650 126 650H246Q277 650 277 629ZM515 629L504 565Q503 561 409 300H314V531Q314 567 324 623Q328 650 364 650H484Q515 650 515 629Z" />
<glyph unicode="#" glyph-name="numbersign" horiz-adv-x="746" d="M425 665L349 474H529L595 640Q600 650 604 654Q615 665 638 665H689L613 474H746L728 426Q718 402 706 398Q700 397 689 395H582L516 228H649L631 181Q623 163 615 158T592 150H485L420 -15Q415
-25 411 -29Q400 -40 377 -40H326L401 150H221L156 -15Q151 -25 147 -29Q136 -40 113 -40H62L137 150H0L19 197Q26 215 34 220T58 228H168L234 395H97L116 443Q126 467 138 470Q144 472 155 474H265L331 640Q336 650 340 654Q351 665 374 665H425ZM318 395L252
228H432L498 395H318Z" />
<glyph unicode="$" glyph-name="dollar" horiz-adv-x="551" d="M300 718H420L404 638Q477 633 534 622L479 467H336Q303 467 290 456T270 414L329 407Q419 396 456 363T493 270Q493 163 436 84T268 1L247 -100H124L146 1Q58 8 -3 25L53 184Q127 162 214 162Q250
162 283 166L290 208L232 215Q145 226 111 261T76 357Q76 464 127 541T282 635L300 718Z" />
<glyph unicode="%" glyph-name="percent" horiz-adv-x="971" d="M670 665L401 -15Q396 -25 392 -29Q381 -40 358 -40H307L576 640Q581 650 585 654Q596 665 619 665H670ZM563 105Q563 137 573 193T595 283T629 346Q670 398 773 398Q849 398 879 371T910 285Q910
252 900 196T878 105T844 43Q805 -9 701 -9Q625 -9 594 18T563 105ZM718 274L686 92H704Q751 92 755 116L787 297H767Q722 297 718 274ZM61 332Q61 364 71 420T93 510T127 573Q168 625 271 625Q347 625 377 598T408 512Q408 479 398 423T376 332T342 270Q303 218
199 218Q123 218 92 245T61 332ZM216 501L184 319H202Q249 319 253 343L285 524H265Q220 524 216 501Z" />
<glyph unicode="&amp;" glyph-name="ampersand" horiz-adv-x="664" d="M363 -115V21Q242 -15 173 -15Q35 -15 35 119Q35 198 67 268Q84 305 116 331T192 363V367L116 396Q140 529 193 577T336 625T516 604L462 462H378Q347 462 332 454T313 420L307 382H655L609
242H543L483 -100L363 -115ZM293 143Q329 143 363 148V242H252Q241 202 241 180Q241 143 293 143Z" />
<glyph unicode="&apos;" glyph-name="quotesingle" horiz-adv-x="262" d="M277 629L266 565Q265 561 171 300H76V531Q76 567 86 623Q90 650 126 650H246Q277 650 277 629Z" />
<glyph unicode="(" glyph-name="parenleft" horiz-adv-x="314" d="M320 690L304 543Q286 536 274 527T243 494Q207 449 183 312Q170 238 170 195T179 127T197 96T222 81L187 -66Q0 -40 0 186Q0 242 12 312Q75 658 320 690Z" />
<glyph unicode=")" glyph-name="parenright" horiz-adv-x="331" d="M82 533L118 680Q305 654 305 429Q305 378 292 302Q232 -43 -15 -76L1 71Q16 77 24 82T48 102T75 140Q102 196 118 285T134 416T125 484T107 517T82 533Z" />
<glyph unicode="*" glyph-name="asterisk" horiz-adv-x="536" d="M357 580L313 491L395 548L449 564Q452 565 457 565Q475 565 480 538L490 467Q491 462 491 453Q491 427 470 422L413 406H323L387 351L411 304Q413 300 413 288T389 260L325 216Q308 204 298 204T280
215L249 263L242 345L203 262L163 216Q154 205 143 205T119 216L68 260Q53 272 53 283T62 304L103 351L182 404H96L47 422Q33 427 33 438T41 466L75 538Q89 567 105 567Q107 567 115 565L166 547L226 492L214 580L224 638Q228 665 265 665H337Q367 665 367 644Q367
640 357 580Z" />
<glyph unicode="+" glyph-name="plus" horiz-adv-x="600" d="M71 240L96 384H244L272 539H408L380 384H529L504 240H355L327 84H191L219 240H71Z" />
<glyph unicode="," glyph-name="comma" horiz-adv-x="277" d="M37 99Q47 158 72 182T153 206T228 191T248 141Q248 72 192 -15L104 -151L24 -122L80 22Q34 30 34 72Q34 84 37 99Z" />
<glyph unicode="-" glyph-name="hyphen" horiz-adv-x="350" d="M20 200L39 308Q44 335 60 342T111 350H331L312 242Q307 215 290 208T239 200H20Z" />
<glyph unicode="." glyph-name="period" horiz-adv-x="267" d="M35 99Q45 158 70 182T151 206T226 191T246 148T242 99Q232 40 207 17T126 -6T51 8T31 50T35 99Z" />
<glyph unicode="/" glyph-name="slash" horiz-adv-x="503" d="M503 665L114 -15Q109 -25 105 -29Q94 -40 71 -40H0L389 640Q394 650 398 654Q409 665 432 665H503Z" />
<glyph unicode="0" glyph-name="zero" horiz-adv-x="600" d="M31 171Q31 232 46 315T81 456T137 556Q204 640 358 640Q474 640 522 595T570 453Q570 400 555 313T519 169T464 68Q397 -15 243 -15Q127 -15 79 30T31 171ZM262 426L212 146H252Q295 146 314 155T339
199L388 479H343Q301 479 285 470T262 426Z" />
<glyph unicode="1" glyph-name="one" horiz-adv-x="600" d="M501 0H26L54 160H223L269 425L98 413L127 573L354 625H504L422 160H529L501 0Z" />
<glyph unicode="2" glyph-name="two" horiz-adv-x="600" d="M113 453L116 602Q242 640 360 640Q494 640 536 604Q576 569 576 499T557 379T482 292T390 240Q330 215 249 188L244 160H512L484 0H-4L18 125Q28 185 46 214T77 258T111 289T148 315T194 340T244 364T301
389T362 416L371 470Q329 475 293 475Q206 475 113 453Z" />
<glyph unicode="3" glyph-name="three" horiz-adv-x="600" d="M364 405L375 470Q348 475 285 475T122 454L123 602Q245 640 353 640Q451 640 506 620Q570 598 570 522Q570 392 462 337L461 332Q532 297 532 219Q532 -15 222 -15Q108 -15 7 11L63 176Q149 153 211
153T321 159L332 223L171 240L196 385L364 405Z" />
<glyph unicode="4" glyph-name="four" horiz-adv-x="600" d="M269 0L286 100H-7L15 225L232 625H569L506 272H568L538 100H476L459 0H269ZM342 475L222 272H316L352 475H342Z" />
<glyph unicode="5" glyph-name="five" horiz-adv-x="600" d="M2 11L58 176Q144 153 212 153T325 159L333 209L264 217Q163 229 124 251T84 326Q84 345 88 365L143 625H575L530 453L308 467L297 406L352 399Q457 385 500 352T543 253T524 136T474 57T400 12T316
-10T227 -15Q103 -15 2 11Z" />
<glyph unicode="6" glyph-name="six" horiz-adv-x="600" d="M324 178L338 257H300Q268 257 254 250T235 215L221 136H260Q292 136 305 143T324 178ZM538 259Q538 122 463 54T243 -15Q131 -15 83 32T35 177Q35 233 49 316T86 456T148 556Q225 640 405 640Q441 640
499 632T584 614L528 461Q453 475 385 475T280 466L269 405H317Q415 405 472 381Q538 353 538 259Z" />
<glyph unicode="7" glyph-name="seven" horiz-adv-x="600" d="M577 500L306 0H91L340 448H111L129 625H599L577 500Z" />
<glyph unicode="8" glyph-name="eight" horiz-adv-x="600" d="M448 640T505 607T562 498Q562 441 536 392T469 315L468 308Q497 292 513 263T530 196Q530 123 490 74Q416 -15 243 -15Q20 -15 20 131Q20 188 51 236T132 308L133 315Q91 351 91 416T114 526T178
594Q256 640 352 640ZM328 201L269 234Q255 240 251 240Q240 240 237 223L221 136H260Q292 136 305 143T324 178L328 201ZM272 423L328 389Q336 385 341 385Q360 385 364 403L378 484H340Q308 484 294 477T275 442L272 423Z" />
<glyph unicode="9" glyph-name="nine" horiz-adv-x="600" d="M277 447L265 376H303Q335 376 348 383T367 418L380 489H341Q309 489 295 482T277 447ZM334 228H286Q148 228 105 262T62 367Q62 503 138 571T358 640Q470 640 518 593T567 446Q567 391 553 313Q522
141 455 63T251 -15T13 11L70 176Q156 153 216 153T322 159L334 228Z" />
<glyph unicode=":" glyph-name="colon" horiz-adv-x="303" d="M35 99Q45 158 70 182T151 206T226 191T246 148T242 99Q232 40 207 17T126 -6T51 8T31 50T35 99ZM88 399Q98 458 123 482T204 506T279 491T299 448T295 399Q285 340 260 317T179 294T104 308T84 350T88 399Z" />
<glyph unicode=";" glyph-name="semicolon" horiz-adv-x="303" d="M36 99Q46 158 71 182T152 206T227 191T247 141Q247 72 191 -15L103 -151L23 -122L79 22Q33 30 33 72Q33 84 36 99ZM88 399Q98 458 123 482T204 506T279 491T299 448T295 399Q285 340 260 317T179
294T104 308T84 350T88 399Z" />
<glyph unicode="&lt;" glyph-name="less" horiz-adv-x="600" d="M497 557L537 423L250 315L249 308L488 201L400 67L96 221L128 403L497 557Z" />
<glyph unicode="=" glyph-name="equal" horiz-adv-x="600" d="M50 121L75 265H508L483 121H50ZM92 359L117 503H550L525 359H92Z" />
<glyph unicode="&gt;" glyph-name="greater" horiz-adv-x="600" d="M110 67L70 201L357 309L358 316L119 423L207 557L511 403L479 221L110 67Z" />
<glyph unicode="?" glyph-name="question" horiz-adv-x="454" d="M286 302L247 175H85L105 363Q107 381 120 391T176 416L284 453L290 487Q266 489 234 489T149 483T74 469L76 612Q185 640 279 640Q371 640 412 625T468 586T484 523Q484 438 439 387T286 302ZM40
44Q40 100 70 124T158 149T237 137T258 96Q258 40 231 17T143 -7T61 4T40 44Z" />
<glyph unicode="@" glyph-name="at" horiz-adv-x="867" d="M492 187L483 131H514Q546 131 562 137T585 167L596 229H566Q532 229 514 222T492 187ZM39 176L53 259Q69 356 111 425T217 531Q334 600 502 600T745 563T821 445Q821 433 817 407L746 0H651L608 63Q538
-9 428 -9Q307 -9 307 108Q307 232 379 291T579 350H617L630 423Q583 433 520 433T432 432T376 422T324 400Q276 365 263 290L228 93Q224 74 224 50T235 6T261 -25T304 -42Q340 -50 409 -50H588L571 -144Q468 -165 391 -165T264 -158T170 -133T95 -86Q30 -25 30
88Q30 118 39 176Z" />
<glyph unicode="A" glyph-name="A" horiz-adv-x="609" d="M150 0H-50L213 625H507L551 0H350L346 99H189L150 0ZM321 433L251 258H331V433H321Z" />
<glyph unicode="B" glyph-name="B" horiz-adv-x="578" d="M8 0L118 625H426Q498 625 530 600T563 523Q563 447 530 398T448 337L447 331Q537 314 537 212Q537 122 488 61T350 0H8ZM316 249H241L223 147H297Q322 147 335 167T348 218T316 249ZM344 488H284L267
395H326Q372 395 372 460Q372 488 344 488Z" />
<glyph unicode="C" glyph-name="C" horiz-adv-x="500" d="M438 179L422 11Q358 -15 260 -15Q134 -15 80 34T25 185Q25 228 39 312Q69 484 142 562T375 640Q412 640 459 633T529 614L473 461Q414 475 363 475T289 465T262 425L216 163Q252 155 290 155Q371 155 438 179Z" />
<glyph unicode="D" glyph-name="D" horiz-adv-x="645" d="M8 0L118 625H384Q513 625 567 580T622 432Q622 380 610 312Q580 144 508 72T274 0H8ZM358 465H279L226 160H305Q344 160 363 169T388 213L423 412Q424 418 424 428Q424 451 408 458T358 465Z" />
<glyph unicode="E" glyph-name="E" horiz-adv-x="530" d="M429 236H239L226 160H459L431 0H8L118 625H536L484 465H279L265 381H455L429 236Z" />
<glyph unicode="F" glyph-name="F" horiz-adv-x="470" d="M400 232H238L198 0H8L118 625H508L455 465H279L265 381H427L400 232Z" />
<glyph unicode="G" glyph-name="G" horiz-adv-x="586" d="M348 184L353 211H305L332 364H561L502 30Q380 -15 257 -15T80 34T25 185Q25 228 39 312Q69 486 145 563T397 640Q434 640 491 632T576 614L521 461Q446 475 384 475T294 465T262 425L213 142H276Q310
142 326 149T348 184Z" />
<glyph unicode="H" glyph-name="H" horiz-adv-x="650" d="M341 0L379 221H236L198 0H8L118 625H308L269 404H412L451 625H641L531 0H341Z" />
<glyph unicode="I" glyph-name="I" horiz-adv-x="300" d="M0 0L110 625H300L190 0H0Z" />
<glyph unicode="J" glyph-name="J" horiz-adv-x="366" d="M-23 0L-14 160H65Q94 160 103 168T115 190L163 465H85L114 625H382L301 165Q287 84 242 42T125 0H-23Z" />
<glyph unicode="K" glyph-name="K" horiz-adv-x="575" d="M252 253L253 272H245L198 0H8L118 625H308L263 370H271Q279 402 289 418L415 625H620L424 318L515 0H310L255 224Q252 234 252 253Z" />
<glyph unicode="L" glyph-name="L" horiz-adv-x="426" d="M388 0H8L118 625H308L226 160H416L388 0Z" />
<glyph unicode="M" glyph-name="M" horiz-adv-x="811" d="M188 0H-10L136 625H384L402 307H409L539 625H787L713 0H514L556 303H549L424 0H279L258 303H253L188 0Z" />
<glyph unicode="N" glyph-name="N" horiz-adv-x="655" d="M357 0L255 222Q251 229 251 241T253 270H245L198 0H8L118 625H297L399 403Q402 396 402 384T400 355H408L456 625H646L536 0H357Z" />
<glyph unicode="O" glyph-name="O" horiz-adv-x="630" d="M257 416L211 156H290Q329 156 348 165T373 209L419 469H339Q301 469 282 460T257 416ZM372 640Q499 640 553 591T607 438T575 223T472 48T266 -15T76 34T22 187Q22 236 36 316T73 455T135 557Q210 640 372 640Z" />
<glyph unicode="P" glyph-name="P" horiz-adv-x="573" d="M348 151H224L198 0H8L118 625H418Q588 625 588 467Q588 392 567 332T521 236T451 176T348 151ZM279 465L252 311H296Q330 311 347 318T370 353Q383 427 383 434Q383 453 368 459T323 465H279Z" />
<glyph unicode="Q" glyph-name="Q" horiz-adv-x="629" d="M21 187Q21 236 35 316T72 455T134 557Q209 640 371 640Q497 640 551 590T606 439T577 248T507 107L569 65L499 -50L323 -15L330 23L245 0Q124 0 73 48T21 187ZM210 156H289Q328 156 347 165T372 209L418
469H338Q300 469 281 460T256 416L210 156Z" />
<glyph unicode="R" glyph-name="R" horiz-adv-x="599" d="M526 0H317L271 186H230L198 0H8L118 625H418Q589 625 589 472Q589 409 570 352Q535 244 460 208L526 0ZM279 465L257 340H301Q335 340 352 347T376 390T383 434Q383 454 368 459T317 465H279Z" />
<glyph unicode="S" glyph-name="S" horiz-adv-x="575" d="M-10 11L46 176Q130 153 200 153T313 159L321 209L238 217Q143 226 104 260T64 356Q64 383 70 416Q93 544 153 592T341 640T565 615L513 455Q426 470 373 470T283 465L275 416L342 409Q444 398 487 361T530
260Q530 196 502 128Q488 93 472 70T430 30T383 5T330 -8Q283 -15 215 -15Q91 -15 -10 11Z" />
<glyph unicode="T" glyph-name="T" horiz-adv-x="500" d="M509 465H371L290 0H100L181 465H44L73 625H538L509 465Z" />
<glyph unicode="U" glyph-name="U" horiz-adv-x="607" d="M294 625L211 156H279Q314 156 329 165T350 209L424 625H614L552 274Q537 189 518 137T463 49T377 -1T246 -15Q125 -15 77 21T28 147Q28 196 42 274L104 625H294Z" />
<glyph unicode="V" glyph-name="V" horiz-adv-x="582" d="M431 625H632L375 0H97L60 625H271V228H280L431 625Z" />
<glyph unicode="W" glyph-name="W" horiz-adv-x="800" d="M641 625H840L637 0H385V230H374L291 0H60V625H259L241 276H247L377 625H528V276H534L641 625Z" />
<glyph unicode="X" glyph-name="X" horiz-adv-x="572" d="M276 625L311 458H321L416 625H622L436 323L512 0H301L261 180H253L151 0H-50L134 317L60 625H276Z" />
<glyph unicode="Y" glyph-name="Y" horiz-adv-x="481" d="M240 625L253 405H260L352 625H562L310 170L281 0H91L120 170L30 625H240Z" />
<glyph unicode="Z" glyph-name="Z" horiz-adv-x="548" d="M462 0H-50L-28 125L273 459L271 465H72L83 625H568L546 500L247 166L248 160H490L462 0Z" />
<glyph unicode="[" glyph-name="bracketleft" horiz-adv-x="339" d="M-9 29L88 575Q100 637 158 658Q216 680 344 680L327 533Q324 533 247 526L168 78L246 71L211 -76Q112 -76 67 -66T6 -38T-11 10Q-11 15 -9 29Z" />
<glyph unicode="\" glyph-name="backslash" horiz-adv-x="503" d="M389 -15L0 665H71Q90 665 98 660T114 640L503 -40H432Q413 -40 405 -35T389 -15Z" />
<glyph unicode="]" glyph-name="bracketright" horiz-adv-x="367" d="M348 575L251 29Q243 -21 204 -43Q163 -66 122 -70Q60 -76 -5 -76L12 71L92 78L171 526Q96 533 93 533L128 680Q227 680 272 670T333 642T350 594Q350 589 348 575Z" />
<glyph unicode="^" glyph-name="asciicircum" horiz-adv-x="600" d="M528 262L392 218L329 442H323L181 218L62 262L265 587H438L528 262Z" />
<glyph unicode="_" glyph-name="underscore" horiz-adv-x="506" d="M-70 -135L-51 -27Q-46 0 -30 7T21 15H473L454 -93Q449 -120 433 -127T382 -135H-70Z" />
<glyph unicode="`" glyph-name="grave" horiz-adv-x="429" d="M288 539L114 574Q98 577 88 586L43 625Q39 631 39 637T48 654L111 728Q120 739 127 739T140 735L329 596L288 539Z" />
<glyph unicode="a" glyph-name="a" horiz-adv-x="587" d="M565 475L482 0H387L342 57Q310 22 278 4T194 -15Q104 -15 66 35T27 165Q27 308 103 411T316 515Q431 515 565 475ZM254 327L220 131H249Q271 131 283 132T306 142T321 167L357 369H327Q293 369 276 362T254 327Z" />
<glyph unicode="b" glyph-name="b" horiz-adv-x="592" d="M20 25L130 650L323 665L293 499Q332 515 391 515Q557 515 557 331Q557 129 433 35Q367 -15 272 -15Q128 -15 20 25ZM264 332L229 131H259Q293 131 309 138T331 173L366 369H337Q296 369 282 359T264 332Z" />
<glyph unicode="c" glyph-name="c" horiz-adv-x="446" d="M393 150L380 6Q325 -15 248 -15Q138 -15 87 30T35 167Q35 316 109 415T326 515Q424 515 466 494L419 358Q369 369 341 369Q268 369 259 316L228 137Q254 131 297 131T393 150Z" />
<glyph unicode="d" glyph-name="d" horiz-adv-x="595" d="M489 0H394L360 42Q308 -15 201 -15Q35 -15 35 168Q35 240 55 304T100 406T171 472T277 500H387L413 650L606 665L489 0ZM261 327L227 131H256Q288 131 305 137T328 167L364 369H334Q300 369 283 362T261 327Z" />
<glyph unicode="e" glyph-name="e" horiz-adv-x="565" d="M232 170L226 135Q254 132 283 132Q375 132 466 162L463 15Q352 -15 244 -15Q34 -15 34 167Q34 373 160 466Q228 515 324 515Q449 515 498 489T547 399T532 296T491 232T424 194Q352 172 232 170ZM260
327L253 286H292Q325 286 342 293T364 328L372 369H333Q299 369 282 362T260 327Z" />
<glyph unicode="f" glyph-name="f" horiz-adv-x="348" d="M316 542L309 500H366L343 370H286L221 0H31L96 370H48L71 500H119L136 560Q168 675 324 675Q363 675 426 665L393 534L316 542Z" />
<glyph unicode="g" glyph-name="g" horiz-adv-x="588" d="M566 475L483 0Q469 -80 423 -122T305 -165H38L61 -35L242 -25Q288 -23 295 15L297 30Q258 15 200 15Q108 15 69 63T30 185Q30 320 109 417T321 515T566 475ZM256 327L226 161H255Q277 161 289 162T312
172T327 197L359 369H329Q295 369 278 362T256 327Z" />
<glyph unicode="h" glyph-name="h" horiz-adv-x="595" d="M263 308L209 0H19L133 650L326 665L293 482Q361 515 431 515Q566 515 566 423Q566 416 564 400L494 0H304L365 350H336Q302 350 285 343T263 308Z" />
<glyph unicode="i" glyph-name="i" horiz-adv-x="300" d="M11 0L94 475L289 500L201 0H11ZM102 567Q102 625 132 650T221 675T299 663T320 621Q320 562 294 539T206 515T123 526T102 567Z" />
<glyph unicode="j" glyph-name="j" horiz-adv-x="300" d="M-113 -165L-90 -35L-38 -25Q-16 -21 -3 -13T13 15L94 475L289 500L201 0Q187 -80 141 -122T24 -165H-113ZM102 567Q102 625 132 650T221 675T299 663T320 621Q320 562 294 539T206 515T123 526T102 567Z" />
<glyph unicode="k" glyph-name="k" horiz-adv-x="550" d="M289 0L250 198H243L209 0H19L133 650L326 665L268 335H275L373 500H578L426 262L494 0H289Z" />
<glyph unicode="l" glyph-name="l" horiz-adv-x="309" d="M319 665L227 143Q256 137 272 136L238 -11Q106 -11 67 8Q50 17 38 33T26 64T28 94L126 650L319 665Z" />
<glyph unicode="m" glyph-name="m" horiz-adv-x="862" d="M356 350H343Q321 350 308 348T280 336T262 304L209 0H19L107 500H202L237 454Q268 482 316 498T414 515Q503 515 538 474Q602 515 680 515Q833 515 833 421Q833 414 831 400L761 0H571L632 350H619Q546
350 539 310L485 0H295L356 350Z" />
<glyph unicode="n" glyph-name="n" horiz-adv-x="595" d="M202 500L241 450Q339 515 442 515Q501 515 533 491T566 423Q566 416 564 400L494 0H304L365 350H336Q304 350 286 343T264 312L209 0H19L107 500H202Z" />
<glyph unicode="o" glyph-name="o" horiz-adv-x="590" d="M35 167Q35 317 111 416T341 515Q452 515 503 470T555 330T525 160T423 35T245 -15Q35 -15 35 167ZM261 327L227 131H256Q290 131 307 138T329 173L364 369H334Q300 369 283 362T261 327Z" />
<glyph unicode="p" glyph-name="p" horiz-adv-x="595" d="M108 500H203L230 450Q281 515 395 515Q561 515 561 331Q561 259 541 195T496 93T425 28T320 0H210L183 -150L-10 -165L108 500ZM268 332L233 131H263Q297 131 313 138T335 173L370 369H341Q300 369 286
359T268 332Z" />
<glyph unicode="q" glyph-name="q" horiz-adv-x="589" d="M476 500H571L456 -151L263 -165L293 0Q253 -15 195 -15Q106 -15 68 36T29 160T44 290T91 401T178 484T311 515T444 472L476 500ZM255 327L221 131H250Q284 131 301 138T323 173L358 369H328Q294 369 277
362T255 327Z" />
<glyph unicode="r" glyph-name="r" horiz-adv-x="375" d="M99 500H194L237 444Q302 498 389 515L368 326Q345 325 306 314T251 286L201 0H11L99 500Z" />
<glyph unicode="s" glyph-name="s" horiz-adv-x="526" d="M56 295Q56 402 118 458T303 515T511 484L465 348Q396 370 321 370Q297 370 255 366L249 334Q378 334 431 301T484 204Q484 -15 233 -15Q84 -15 -4 14L44 156Q121 130 212 130Q256 130 291 134L297 166Q165
166 111 197T56 295Z" />
<glyph unicode="t" glyph-name="t" horiz-adv-x="364" d="M50 371L73 500H120L134 580L333 630L310 500H376L353 371H287L247 143Q272 138 302 136L268 -11Q128 -11 88 8Q46 29 46 73Q46 78 48 94L97 371H50Z" />
<glyph unicode="u" glyph-name="u" horiz-adv-x="590" d="M287 500L222 131H251Q285 131 302 138T324 173L382 500H572L484 0H389L344 57Q274 -15 168 -15Q97 -15 64 11T30 97Q30 125 35 150L97 500H287Z" />
<glyph unicode="v" glyph-name="v" horiz-adv-x="520" d="M88 0L57 500H241V175H251L361 500H551L344 0H88Z" />
<glyph unicode="w" glyph-name="w" horiz-adv-x="800" d="M79 0V500H265L251 203H262L375 500H517V203H528L626 500H813L630 0H396V215H388L310 0H79Z" />
<glyph unicode="x" glyph-name="x" horiz-adv-x="540" d="M260 500L292 376H297L369 500H566L402 244L483 0H285L249 135H245L168 0H-30L138 258L63 500H260Z" />
<glyph unicode="y" glyph-name="y" horiz-adv-x="520" d="M84 52L57 500H241V175H251L361 500H551L344 0Q303 -99 257 -132T133 -165H-51L-29 -35L63 -17Q164 3 184 46V52H84Z" />
<glyph unicode="z" glyph-name="z" horiz-adv-x="516" d="M-3 100L226 344L224 350H74L87 500H518L500 400L274 156L276 150H462L436 0H-20L-3 100Z" />
<glyph unicode="{" glyph-name="braceleft" horiz-adv-x="339" d="M168 78L246 71L211 -76Q112 -76 67 -66T6 -38T-11 10Q-11 18 42 229L-18 245L2 357L67 373L88 575Q96 647 175 666Q216 675 250 677T344 680L327 533Q324 533 247 526L235 409Q230 366 214 344T169
307L167 295Q204 267 204 218Q204 201 197 175L168 78Z" />
<glyph unicode="|" glyph-name="bar" horiz-adv-x="420" d="M67 -180L223 704H337L181 -180H67Z" />
<glyph unicode="}" glyph-name="braceright" horiz-adv-x="358" d="M161 526L83 533L118 680Q217 680 262 670T323 642T340 594Q340 586 287 375L347 359L327 247L262 231L241 29Q233 -43 154 -62Q113 -71 79 -73T-15 -76L2 71Q5 71 82 78L94 195Q99 238 115 260T160
297L162 309Q125 337 125 386Q125 403 132 429L161 526Z" />
<glyph unicode="~" glyph-name="asciitilde" horiz-adv-x="600" d="M383 203Q348 203 315 219T257 252T212 268Q174 268 108 202L23 293Q107 390 163 412Q189 423 220 423T305 389T389 354Q435 354 492 420L578 330Q488 203 383 203Z" />
<glyph unicode="&#xa1;" glyph-name="exclamdown" horiz-adv-x="330" d="M85 338H246L199 -90Q195 -117 158 -117H10Q-21 -117 -21 -97Q-21 -92 -20 -90L85 338ZM292 464Q292 407 261 383T173 359T95 371T74 412Q74 468 100 491T188 515T271 504T292 464Z" />
<glyph unicode="&#xa2;" glyph-name="cent" horiz-adv-x="459" d="M219 504L239 600H361L342 513Q395 508 438 496L385 351H319Q301 351 289 349T264 335T247 302L222 189Q244 186 282 186T369 201L349 56Q298 36 241 35L219 -64H97L120 44Q25 67 25 172Q25 233
43 292T81 390T137 460T219 504Z" />
<glyph unicode="&#xa3;" glyph-name="sterling" horiz-adv-x="586" d="M441 262H297L270 160H477V0H-4L13 100L66 135L103 262H42L61 369H133L154 443Q210 641 392 641Q488 641 566 622L512 477H419Q387 477 368 468T341 428L325 369H469L441 262Z" />
<glyph unicode="&#xa5;" glyph-name="yen" horiz-adv-x="560" d="M278 625L289 391H295L390 625H590L454 369H517L498 262H397L370 212H489L470 105H337L319 0H129L147 105H14L33 212H151L143 262H42L61 369H124L77 625H278Z" />
<glyph unicode="&#xa6;" glyph-name="brokenbar" horiz-adv-x="420" d="M164 368L224 704H338L278 368H164ZM68 -180L127 156H241L182 -180H68Z" />
<glyph unicode="&#xa7;" glyph-name="section" horiz-adv-x="588" d="M364 203Q372 253 372 264Q372 290 331 290H222Q214 240 214 228Q214 203 255 203H364ZM-8 -91L35 31H290L296 65Q163 65 109 95T54 190Q54 231 68 273T100 342Q90 361 90 404T105 490T144
556T205 595Q266 618 367 618T554 593L511 466H296L290 432Q419 432 471 400T523 306Q523 264 509 223T476 155Q487 132 487 87T470 0T426 -64T359 -100Q298 -121 192 -121T-8 -91Z" />
<glyph unicode="&#xa8;" glyph-name="dieresis" horiz-adv-x="430" d="M242 659T262 683T325 708T382 697T397 660Q397 601 377 577T314 552T257 563T242 600Q242 659 262 683ZM34 659T54 683T117 708T174 697T189 660Q189 601 168 577T105 552T49 563T34 600Q34
659 54 683Z" />
<glyph unicode="&#xa9;" glyph-name="copyright" horiz-adv-x="563" d="M244 364L274 361Q312 361 348 375L339 288Q304 274 251 274T172 297T146 371Q146 396 152 431Q167 514 202 551T314 588Q364 588 390 574L362 496Q335 503 310 503T276 499T265 484L244
364ZM27 353Q27 492 92 582Q126 629 184 655T320 682Q424 682 472 640T521 520T506 385T457 280T367 206T231 179Q125 179 76 222T27 353ZM312 636Q188 636 132 566T75 356Q75 284 113 255T239 225Q363 225 418 296T474 507Q474 578 436 607T312 636Z" />
<glyph unicode="&#xaa;" glyph-name="ordfeminine" horiz-adv-x="458" d="M29 191L43 271Q46 291 57 295T94 300H417L404 222Q401 202 389 197T352 191H29ZM485 738L419 356H342L306 402Q254 344 187 344Q53 344 53 489Q53 604 114 687T285 770Q378 770 485 738ZM235
619L208 461H231Q264 461 275 469T289 490L318 653H294Q267 653 253 647T235 619Z" />
<glyph unicode="&#xab;" glyph-name="guillemotleft" horiz-adv-x="575" d="M36 300L251 475L319 424L194 250L258 76L172 25L19 200L36 300ZM273 300L489 475L556 424L431 250L495 76L410 25L251 200L273 300Z" />
<glyph unicode="&#xac;" glyph-name="logicalnot" horiz-adv-x="600" d="M72 240L97 384H530L480 100H352L377 240H72Z" />
<glyph unicode="&#xae;" glyph-name="registered" horiz-adv-x="563" d="M27 353Q27 492 92 582Q126 629 184 655T320 682Q424 682 472 640T521 520T506 385T457 280T367 206T231 179Q125 179 76 222T27 353ZM312 636Q188 636 132 566T75 356Q75 284 113 255T239
225Q363 225 418 296T474 507Q474 578 436 607T312 636ZM385 281H278L256 368H245L230 281H133L186 581H329Q413 581 413 507Q413 471 399 434T353 380L385 281ZM268 498L259 448H275Q291 448 297 450T306 468T309 488Q309 498 284 498H268Z" />
<glyph unicode="&#xaf;" glyph-name="overscore" horiz-adv-x="399" d="M331 568H97Q72 568 63 575T53 597T57 632L68 695H303Q328 695 337 689T346 672T342 632L331 568Z" />
<glyph unicode="&#xb0;" glyph-name="degree" horiz-adv-x="407" d="M33 477Q33 576 83 640T235 704Q307 704 340 675T373 585Q373 486 323 422T173 357Q100 357 67 386T33 477ZM149 562L131 461H191Q212 461 222 462T243 473T257 500L274 600H220Q196 600 185
599T163 589T149 562Z" />
<glyph unicode="&#xb1;" glyph-name="plusminus" horiz-adv-x="600" d="M91 341L116 485H264L292 640H428L400 485H549L524 341H375L347 185H211L239 341H91ZM31 0L56 144H489L464 0H31Z" />
<glyph unicode="&#xb2;" glyph-name="twosuperior" horiz-adv-x="400" d="M84 616L85 724Q153 741 218 741T310 736T355 711T375 652Q375 643 371 613Q361 554 327 530T180 468L176 448H336L318 343H12L26 425Q35 471 48 487T68 511T93 529T120 544T155 560T192
576L232 594L238 629Q217 631 184 631T84 616Z" />
<glyph unicode="&#xb3;" glyph-name="threesuperior" horiz-adv-x="400" d="M227 584L235 628Q213 631 175 631T84 616L85 724Q153 741 226 741T332 726T366 665Q366 588 308 550Q343 529 343 486Q343 478 339 452T321 402T291 365T248 345Q208 334 143 334T13
351L50 460Q112 444 149 444T203 446L211 492L115 503L127 572L227 584Z" />
<glyph unicode="&#xb4;" glyph-name="acute" horiz-adv-x="429" d="M285 574L111 539L70 596L259 735Q265 739 272 739T288 728L351 654Q360 644 360 638T358 628T311 586Q301 577 285 574Z" />
<glyph unicode="&#xb5;" glyph-name="mu" horiz-adv-x="590" d="M288 500L223 131H252Q286 131 303 138T325 173L383 500L575 515L485 0H390L356 43Q313 0 232 0H164L103 -165H-20L98 500H288Z" />
<glyph unicode="&#xb6;" glyph-name="paragraph" horiz-adv-x="604" d="M234 0L131 -25L173 218Q54 236 54 359Q54 468 108 542Q136 581 185 603T302 625H605L576 465H528L446 0Q417 -165 275 -165H-5L4 -114L206 -55Q253 -42 258 -12L343 465H315L234 0Z" />
<glyph unicode="&#xb7;" glyph-name="middot" horiz-adv-x="277" d="M35 249Q45 308 70 332T151 356T226 341T246 298T242 249Q232 190 207 167T126 144T51 158T31 200T35 249Z" />
<glyph unicode="&#xb8;" glyph-name="cedilla" horiz-adv-x="469" d="M203 -26L211 21H269Q326 -3 326 -64Q326 -105 294 -135T209 -165T109 -146L135 -58H166Q186 -58 192 -53T203 -26Z" />
<glyph unicode="&#xb9;" glyph-name="onesuperior" horiz-adv-x="400" d="M316 343H37L55 448H136L162 596L70 591L90 700L220 732H319L269 448H334L316 343Z" />
<glyph unicode="&#xba;" glyph-name="ordmasculine" horiz-adv-x="458" d="M62 490Q62 611 123 690T308 770Q397 770 438 734T480 623Q480 503 418 424T233 344Q144 344 103 380T62 490ZM244 619L216 461H240Q267 461 281 467T298 495L326 653H302Q275 653 261
647T244 619ZM29 191L43 271Q46 291 57 295T94 300H417L404 222Q401 202 389 197T352 191H29Z" />
<glyph unicode="&#xbb;" glyph-name="guillemotright" horiz-adv-x="575" d="M380 475L533 300L516 200L301 25L233 76L359 250L294 424L380 475ZM143 475L296 300L279 200L64 25L-4 76L122 250L57 424L143 475Z" />
<glyph unicode="&#xbc;" glyph-name="onequarter" horiz-adv-x="971" d="M689 665L420 -15Q415 -25 411 -29Q400 -40 377 -40H326L595 640Q600 650 604 654Q615 665 638 665H689ZM728 0L738 60H563L578 144L710 389H923L883 160H920L902 60H865L855 0H728ZM756
160L780 295H763L696 160H756ZM342 227H63L81 332H162L188 480L96 475L116 584L246 616H345L295 332H360L342 227Z" />
<glyph unicode="&#xbd;" glyph-name="onehalf" horiz-adv-x="971" d="M659 665L390 -15Q385 -25 381 -29Q370 -40 347 -40H296L565 640Q570 650 574 654Q585 665 608 665H659ZM641 273L642 381Q710 398 775 398T867 393T912 368T932 309Q932 300 928 270Q918 211
884 187T737 125L733 105H893L875 0H569L583 82Q592 128 605 144T625 168T650 186T677 201T712 217T749 233L789 251L795 286Q774 288 741 288T641 273ZM322 227H43L61 332H142L168 480L76 475L96 584L226 616H325L275 332H340L322 227Z" />
<glyph unicode="&#xbe;" glyph-name="threequarters" horiz-adv-x="971" d="M670 665L401 -15Q396 -25 392 -29Q381 -40 358 -40H307L576 640Q581 650 585 654Q596 665 619 665H670ZM728 0L738 60H563L578 144L710 389H923L883 160H920L902 60H865L855 0H728ZM756
160L780 295H763L696 160H756ZM243 468L251 512Q229 515 191 515T100 500L101 608Q169 625 242 625T348 610T382 549Q382 472 324 434Q359 413 359 370Q359 362 355 336T337 286T307 249T264 229Q224 218 159 218T29 235L66 344Q128 328 165 328T219 330L227 376L131
387L143 456L243 468Z" />
<glyph unicode="&#xbf;" glyph-name="questiondown" horiz-adv-x="434" d="M158 206L197 333H359L339 145Q337 127 324 117T268 92L160 55L154 21Q178 19 210 19T295 25T370 39L368 -104Q259 -132 165 -132Q73 -132 32 -117T-24 -78T-40 -15Q-40 70 5 121T158
206ZM404 464Q404 408 374 384T286 359T207 371T186 412Q186 468 213 491T301 515T383 504T404 464Z" />
<glyph unicode="&#xc0;" glyph-name="Agrave" horiz-adv-x="609" d="M150 0H-50L213 625H507L551 0H350L346 99H189L150 0ZM321 433L251 258H331V433H321ZM487 664L313 699Q297 702 287 711L242 750Q238 756 238 762T247 779L310 853Q319 864 326 864T339 860L528
721L487 664Z" />
<glyph unicode="&#xc1;" glyph-name="Aacute" horiz-adv-x="609" d="M150 0H-50L213 625H507L551 0H350L346 99H189L150 0ZM321 433L251 258H331V433H321ZM451 684L277 649L236 706L425 845Q431 849 438 849T454 838L517 764Q526 754 526 748T524 738T477 696Q467
687 451 684Z" />
<glyph unicode="&#xc2;" glyph-name="Acircumflex" horiz-adv-x="609" d="M150 0H-50L213 625H507L551 0H350L346 99H189L150 0ZM321 433L251 258H331V433H321ZM389 864H434Q442 864 447 855L530 710L464 661L386 724L287 661L239 710L371 855Q378 864 389 864Z" />
<glyph unicode="&#xc3;" glyph-name="Atilde" horiz-adv-x="609" d="M150 0H-50L213 625H507L551 0H350L346 99H189L150 0ZM321 433L251 258H331V433H321ZM447 800L533 840L566 759Q437 678 423 673T396 667T375 669T359 676T346 686Q338 691 317 712L232 672L198
753Q327 834 341 839T368 845T389 843T405 836T418 826Q426 821 447 800Z" />
<glyph unicode="&#xc4;" glyph-name="Adieresis" horiz-adv-x="609" d="M150 0H-50L213 625H507L551 0H350L346 99H189L150 0ZM321 433L251 258H331V433H321ZM409 783T429 807T492 832T549 821T564 784Q564 725 544 701T481 676T424 687T409 724Q409 783 429 807ZM201
783T221 807T284 832T341 821T356 784Q356 725 335 701T272 676T216 687T201 724Q201 783 221 807Z" />
<glyph unicode="&#xc5;" glyph-name="Aring" horiz-adv-x="609" d="M150 0H-50L213 625H507L551 0H350L346 99H189L150 0ZM321 433L251 258H331V433H321ZM347 788L335 720H375Q402 720 409 727T419 746L431 813H394Q365 813 357 806T347 788ZM404 882Q497 882
497 802Q497 728 462 690T363 651Q270 651 270 731Q270 805 305 843T404 882Z" />
<glyph unicode="&#xc6;" glyph-name="AE" horiz-adv-x="748" d="M130 0H-70L193 625H754L701 465H497L504 381H673L647 236H514L519 160H720L692 0H330L326 99H169L130 0ZM301 433L231 258H311V433H301Z" />
<glyph unicode="&#xc7;" glyph-name="Ccedilla" horiz-adv-x="500" d="M201 -26L203 -12Q108 -3 67 46T25 185Q25 228 39 312Q69 484 142 562T375 640Q412 640 459 633T529 614L473 461Q414 475 363 475T289 465T262 425L216 163Q252 155 290 155Q371 155 438
179L422 11Q373 -9 309 -13Q324 -36 324 -70T292 -135T207 -165T107 -146L133 -58H164Q184 -58 190 -53T201 -26Z" />
<glyph unicode="&#xc8;" glyph-name="Egrave" horiz-adv-x="530" d="M429 236H239L226 160H459L431 0H8L118 625H536L484 465H279L265 381H455L429 236ZM444 664L270 699Q254 702 244 711L199 750Q195 756 195 762T204 779L267 853Q276 864 283 864T296 860L485
721L444 664Z" />
<glyph unicode="&#xc9;" glyph-name="Eacute" horiz-adv-x="530" d="M429 236H239L226 160H459L431 0H8L118 625H536L484 465H279L265 381H455L429 236ZM407 684L233 649L192 706L381 845Q387 849 394 849T410 838L473 764Q482 754 482 748T480 738T433 696Q423
687 407 684Z" />
<glyph unicode="&#xca;" glyph-name="Ecircumflex" horiz-adv-x="530" d="M429 236H239L226 160H459L431 0H8L118 625H536L484 465H279L265 381H455L429 236ZM388 864H433Q441 864 446 855L529 710L463 661L385 724L286 661L238 710L370 855Q378 864 388 864Z" />
<glyph unicode="&#xcb;" glyph-name="Edieresis" horiz-adv-x="530" d="M429 236H239L226 160H459L431 0H8L118 625H536L484 465H279L265 381H455L429 236ZM367 783T387 807T450 832T507 821T522 784Q522 725 502 701T439 676T382 687T367 724Q367 783 387 807ZM159
783T179 807T242 832T299 821T314 784Q314 725 293 701T230 676T174 687T159 724Q159 783 179 807Z" />
<glyph unicode="&#xcc;" glyph-name="Igrave" horiz-adv-x="300" d="M0 0L110 625H300L190 0H0ZM333 664L159 699Q143 702 133 711L88 750Q84 756 84 762T93 779L156 853Q165 864 172 864T185 860L374 721L333 664Z" />
<glyph unicode="&#xcd;" glyph-name="Iacute" horiz-adv-x="300" d="M0 0L110 625H300L190 0H0ZM296 684L122 649L81 706L270 845Q276 849 283 849T299 838L362 764Q371 754 371 748T369 738T322 696Q312 687 296 684Z" />
<glyph unicode="&#xce;" glyph-name="Icircumflex" horiz-adv-x="300" d="M0 0L110 625H300L190 0H0ZM234 864H279Q287 864 292 855L375 710L309 661L231 724L132 661L84 710L216 855Q224 864 234 864Z" />
<glyph unicode="&#xcf;" glyph-name="Idieresis" horiz-adv-x="300" d="M0 0L110 625H300L190 0H0ZM254 783T274 807T337 832T394 821T409 784Q409 725 389 701T326 676T269 687T254 724Q254 783 274 807ZM46 783T66 807T129 832T186 821T201 784Q201 725 180
701T117 676T61 687T46 724Q46 783 66 807Z" />
<glyph unicode="&#xd0;" glyph-name="Eth" horiz-adv-x="645" d="M8 0L51 243H-15L3 341Q7 363 19 370T56 378H74L118 625H384Q513 625 567 580T622 432Q622 380 610 312Q580 144 508 72T274 0H8ZM358 465H279L264 378H342L325 281Q321 257 306 250T260 243H240L226
160H305Q344 160 363 169T388 213L423 412Q424 418 424 428Q424 451 408 458T358 465Z" />
<glyph unicode="&#xd1;" glyph-name="Ntilde" horiz-adv-x="655" d="M357 0L255 222Q251 229 251 241T253 270H245L198 0H8L118 625H297L399 403Q402 396 402 384T400 355H408L456 625H646L536 0H357ZM466 800L552 840L585 759Q456 678 442 673T415 667T394 669T378
676T365 686Q357 691 336 712L251 672L217 753Q346 834 360 839T387 845T408 843T424 836T437 826Q445 821 466 800Z" />
<glyph unicode="&#xd2;" glyph-name="Ograve" horiz-adv-x="630" d="M257 416L211 156H290Q329 156 348 165T373 209L419 469H339Q301 469 282 460T257 416ZM372 640Q499 640 553 591T607 438T575 223T472 48T266 -15T76 34T22 187Q22 236 36 316T73 455T135 557Q210
640 372 640ZM497 664L323 699Q307 702 297 711L252 750Q248 756 248 762T257 779L320 853Q329 864 336 864T349 860L538 721L497 664Z" />
<glyph unicode="&#xd3;" glyph-name="Oacute" horiz-adv-x="630" d="M257 416L211 156H290Q329 156 348 165T373 209L419 469H339Q301 469 282 460T257 416ZM372 640Q499 640 553 591T607 438T575 223T472 48T266 -15T76 34T22 187Q22 236 36 316T73 455T135 557Q210
640 372 640ZM461 684L287 649L246 706L435 845Q441 849 448 849T464 838L527 764Q536 754 536 748T534 738T487 696Q477 687 461 684Z" />
<glyph unicode="&#xd4;" glyph-name="Ocircumflex" horiz-adv-x="630" d="M257 416L211 156H290Q329 156 348 165T373 209L419 469H339Q301 469 282 460T257 416ZM372 640Q499 640 553 591T607 438T575 223T472 48T266 -15T76 34T22 187Q22 236 36 316T73 455T135
557Q210 640 372 640ZM398 864H443Q451 864 456 855L539 710L473 661L395 724L296 661L248 710L380 855Q388 864 398 864Z" />
<glyph unicode="&#xd5;" glyph-name="Otilde" horiz-adv-x="630" d="M257 416L211 156H290Q329 156 348 165T373 209L419 469H339Q301 469 282 460T257 416ZM372 640Q499 640 553 591T607 438T575 223T472 48T266 -15T76 34T22 187Q22 236 36 316T73 455T135 557Q210
640 372 640ZM458 800L544 840L577 759Q448 678 434 673T407 667T386 669T370 676T357 686Q349 691 328 712L243 672L209 753Q338 834 352 839T379 845T400 843T416 836T429 826Q437 821 458 800Z" />
<glyph unicode="&#xd6;" glyph-name="Odieresis" horiz-adv-x="630" d="M257 416L211 156H290Q329 156 348 165T373 209L419 469H339Q301 469 282 460T257 416ZM372 640Q499 640 553 591T607 438T575 223T472 48T266 -15T76 34T22 187Q22 236 36 316T73 455T135
557Q210 640 372 640ZM420 783T440 807T503 832T560 821T575 784Q575 725 555 701T492 676T435 687T420 724Q420 783 440 807ZM212 783T232 807T295 832T352 821T367 784Q367 725 346 701T283 676T227 687T212 724Q212 783 232 807Z" />
<glyph unicode="&#xd7;" glyph-name="multiply" horiz-adv-x="600" d="M129 75L50 177L202 312L97 447L212 549L316 414L468 549L547 447L396 312L500 177L385 75L281 210L129 75Z" />
<glyph unicode="&#xd8;" glyph-name="Oslash" horiz-adv-x="630" d="M174 600T232 620T352 640T451 634L477 679Q482 689 486 693Q497 704 520 704H591L533 605Q607 558 607 438Q607 335 575 223T472 48T257 -15Q213 -15 178 -9L152 -54Q147 -64 143 -68Q132 -79
109 -79H38L95 20Q22 66 22 187Q22 236 36 316T73 455T135 557ZM250 156H290Q329 156 348 165T373 209L414 443L250 156ZM257 416L216 186L378 469H339Q301 469 282 460T257 416Z" />
<glyph unicode="&#xd9;" glyph-name="Ugrave" horiz-adv-x="617" d="M299 625L216 156H284Q319 156 334 165T355 209L429 625H619L557 274Q542 189 523 137T468 49T382 -1T251 -15Q130 -15 82 21T33 147Q33 196 47 274L109 625H299ZM494 664L320 699Q304 702 294
711L249 750Q245 756 245 762T254 779L317 853Q326 864 333 864T346 860L535 721L494 664Z" />
<glyph unicode="&#xda;" glyph-name="Uacute" horiz-adv-x="617" d="M299 625L216 156H284Q319 156 334 165T355 209L429 625H619L557 274Q542 189 523 137T468 49T382 -1T251 -15Q130 -15 82 21T33 147Q33 196 47 274L109 625H299ZM457 684L283 649L242 706L431
845Q437 849 444 849T460 838L523 764Q532 754 532 748T530 738T483 696Q473 687 457 684Z" />
<glyph unicode="&#xdb;" glyph-name="Ucircumflex" horiz-adv-x="617" d="M299 625L216 156H284Q319 156 334 165T355 209L429 625H619L557 274Q542 189 523 137T468 49T382 -1T251 -15Q130 -15 82 21T33 147Q33 196 47 274L109 625H299ZM394 864H439Q447 864
452 855L535 710L469 661L391 724L292 661L244 710L376 855Q384 864 394 864Z" />
<glyph unicode="&#xdc;" glyph-name="Udieresis" horiz-adv-x="617" d="M299 625L216 156H284Q319 156 334 165T355 209L429 625H619L557 274Q542 189 523 137T468 49T382 -1T251 -15Q130 -15 82 21T33 147Q33 196 47 274L109 625H299ZM415 783T435 807T498 832T555
821T570 784Q570 725 550 701T487 676T430 687T415 724Q415 783 435 807ZM207 783T227 807T290 832T347 821T362 784Q362 725 341 701T278 676T222 687T207 724Q207 783 227 807Z" />
<glyph unicode="&#xdd;" glyph-name="Yacute" horiz-adv-x="520" d="M259 625L272 405H279L371 625H581L329 170L300 0H110L139 170L49 625H259ZM409 698L235 663L194 720L383 859Q389 863 396 863T412 852L475 778Q484 768 484 762T482 752T435 710Q425 701 409 698Z" />
<glyph unicode="&#xde;" glyph-name="Thorn" horiz-adv-x="560" d="M335 76H211L198 0H8L118 625H308L294 550H404Q575 550 575 391Q575 315 554 256T507 161T437 101T335 76ZM266 390L239 236H283Q317 236 334 243T357 278L369 348Q370 352 370 359Q370 378 355
384T310 390H266Z" />
<glyph unicode="&#xdf;" glyph-name="germandbls" horiz-adv-x="635" d="M49 370L72 500H119L136 560Q158 636 231 657Q293 675 397 675Q582 675 582 550Q582 449 466 314Q605 314 605 198Q605 101 547 43T388 -15T255 -1L299 141Q338 130 376 130T415 134L421
166Q363 166 334 184T305 245T345 373T386 487Q386 519 346 519Q331 519 311 515L221 0H31L96 370H49Z" />
<glyph unicode="&#xe0;" glyph-name="agrave" horiz-adv-x="587" d="M475 539L301 574Q285 577 275 586L230 625Q226 631 226 637T235 654L298 728Q307 739 314 739T327 735L516 596L475 539ZM565 475L482 0H387L342 57Q310 22 278 4T194 -15Q104 -15 66 35T27
165Q27 308 103 411T316 515Q431 515 565 475ZM254 327L220 131H249Q271 131 283 132T306 142T321 167L357 369H327Q293 369 276 362T254 327Z" />
<glyph unicode="&#xe1;" glyph-name="aacute" horiz-adv-x="587" d="M565 475L482 0H387L342 57Q310 22 278 4T194 -15Q104 -15 66 35T27 165Q27 308 103 411T316 515Q431 515 565 475ZM254 327L220 131H249Q271 131 283 132T306 142T321 167L357 369H327Q293
369 276 362T254 327ZM441 574L267 539L226 596L415 735Q421 739 428 739T444 728L507 654Q516 644 516 638T514 628T467 586Q457 577 441 574Z" />
<glyph unicode="&#xe2;" glyph-name="acircumflex" horiz-adv-x="587" d="M375 740H420Q428 740 433 731L516 586L450 537L372 600L273 537L225 586L357 731Q364 740 375 740ZM565 475L482 0H387L342 57Q310 22 278 4T194 -15Q104 -15 66 35T27 165Q27 308 103
411T316 515Q431 515 565 475ZM254 327L220 131H249Q271 131 283 132T306 142T321 167L357 369H327Q293 369 276 362T254 327Z" />
<glyph unicode="&#xe3;" glyph-name="atilde" horiz-adv-x="587" d="M565 475L482 0H387L342 57Q310 22 278 4T194 -15Q104 -15 66 35T27 165Q27 308 103 411T316 515Q431 515 565 475ZM254 327L220 131H249Q271 131 283 132T306 142T321 167L357 369H327Q293
369 276 362T254 327ZM434 676L520 716L553 635Q424 554 410 549T383 543T362 545T346 552T333 562Q325 567 304 588L219 548L185 629Q314 710 328 715T355 721T376 719T392 712T405 702Q413 697 434 676Z" />
<glyph unicode="&#xe4;" glyph-name="adieresis" horiz-adv-x="587" d="M395 659T415 683T478 708T535 697T550 660Q550 601 530 577T467 552T410 563T395 600Q395 659 415 683ZM187 659T207 683T270 708T327 697T342 660Q342 601 321 577T258 552T202 563T187
600Q187 659 207 683ZM565 475L482 0H387L342 57Q310 22 278 4T194 -15Q104 -15 66 35T27 165Q27 308 103 411T316 515Q431 515 565 475ZM254 327L220 131H249Q271 131 283 132T306 142T321 167L357 369H327Q293 369 276 362T254 327Z" />
<glyph unicode="&#xe5;" glyph-name="aring" horiz-adv-x="587" d="M565 475L482 0H387L342 57Q310 22 278 4T194 -15Q104 -15 66 35T27 165Q27 308 103 411T316 515Q431 515 565 475ZM254 327L220 131H249Q271 131 283 132T306 142T321 167L357 369H327Q293 369
276 362T254 327ZM335 664L323 596H363Q390 596 397 603T407 622L419 689H382Q353 689 345 682T335 664ZM392 758Q485 758 485 678Q485 604 450 566T351 527Q258 527 258 607Q258 681 293 719T392 758Z" />
<glyph unicode="&#xe6;" glyph-name="ae" horiz-adv-x="845" d="M568 515L559 470H566Q596 515 676 515Q827 515 827 392Q827 286 771 232Q726 189 618 176Q575 171 512 170L506 135Q534 132 563 132Q655 132 746 162L743 15Q632 -15 527 -15Q390 -15 342 57Q310
22 278 4T194 -15Q104 -15 66 35T27 165Q27 308 103 411T316 515Q388 515 444 472L479 515H568ZM254 327L220 131H249Q271 131 283 132T306 142T321 167L357 369H327Q293 369 276 362T254 327ZM613 369Q582 369 565 363T542 335L533 286H572Q605 286 622 293T644
328L652 369H613Z" />
<glyph unicode="&#xe7;" glyph-name="ccedilla" horiz-adv-x="446" d="M162 -26L165 -6Q35 23 35 169T109 415T326 515Q424 515 466 494L419 358Q369 369 341 369Q268 369 259 316L228 137Q254 131 297 131T393 150L380 6Q329 -13 271 -14Q285 -37 285 -71T253
-135T168 -165T68 -146L94 -58H125Q145 -58 151 -53T162 -26Z" />
<glyph unicode="&#xe8;" glyph-name="egrave" horiz-adv-x="565" d="M232 170L226 135Q254 132 283 132Q375 132 466 162L463 15Q352 -15 244 -15Q34 -15 34 167Q34 373 160 466Q228 515 324 515Q449 515 498 489T547 399T532 296T491 232T424 194Q352 172 232
170ZM260 327L253 286H292Q325 286 342 293T364 328L372 369H333Q299 369 282 362T260 327ZM461 539L287 574Q271 577 261 586L216 625Q212 631 212 637T221 654L284 728Q293 739 300 739T313 735L502 596L461 539Z" />
<glyph unicode="&#xe9;" glyph-name="eacute" horiz-adv-x="565" d="M232 170L226 135Q254 132 283 132Q375 132 466 162L463 15Q352 -15 244 -15Q34 -15 34 167Q34 373 160 466Q228 515 324 515Q449 515 498 489T547 399T532 296T491 232T424 194Q352 172 232
170ZM260 327L253 286H292Q325 286 342 293T364 328L372 369H333Q299 369 282 362T260 327ZM428 574L254 539L213 596L402 735Q408 739 415 739T431 728L494 654Q503 644 503 638T501 628T454 586Q444 577 428 574Z" />
<glyph unicode="&#xea;" glyph-name="ecircumflex" horiz-adv-x="565" d="M232 170L226 135Q254 132 283 132Q375 132 466 162L463 15Q352 -15 244 -15Q34 -15 34 167Q34 373 160 466Q228 515 324 515Q449 515 498 489T547 399T532 296T491 232T424 194Q352 172
232 170ZM260 327L253 286H292Q325 286 342 293T364 328L372 369H333Q299 369 282 362T260 327ZM363 740H408Q416 740 421 731L504 586L438 537L360 600L261 537L213 586L345 731Q352 740 363 740Z" />
<glyph unicode="&#xeb;" glyph-name="edieresis" horiz-adv-x="565" d="M232 170L226 135Q254 132 283 132Q375 132 466 162L463 15Q352 -15 244 -15Q34 -15 34 167Q34 373 160 466Q228 515 324 515Q449 515 498 489T547 399T532 296T491 232T424 194Q352 172
232 170ZM260 327L253 286H292Q325 286 342 293T364 328L372 369H333Q299 369 282 362T260 327ZM383 659T403 683T466 708T523 697T538 660Q538 601 518 577T455 552T398 563T383 600Q383 659 403 683ZM175 659T195 683T258 708T315 697T330 660Q330 601 309 577T246
552T190 563T175 600Q175 659 195 683Z" />
<glyph unicode="&#xec;" glyph-name="igrave" horiz-adv-x="300" d="M11 0L94 475L289 500L201 0H11ZM312 539L138 574Q122 577 112 586L67 625Q63 631 63 637T72 654L135 728Q144 739 151 739T164 735L353 596L312 539Z" />
<glyph unicode="&#xed;" glyph-name="iacute" horiz-adv-x="300" d="M11 0L94 475L289 500L201 0H11ZM278 574L104 539L63 596L252 735Q258 739 265 739T281 728L344 654Q353 644 353 638T351 628T304 586Q294 577 278 574Z" />
<glyph unicode="&#xee;" glyph-name="icircumflex" horiz-adv-x="300" d="M11 0L94 475L289 500L201 0H11ZM213 740H258Q266 740 271 731L354 586L288 537L210 600L111 537L63 586L195 731Q202 740 213 740Z" />
<glyph unicode="&#xef;" glyph-name="idieresis" horiz-adv-x="300" d="M11 0L94 475L289 500L201 0H11ZM246 659T266 683T329 708T386 697T401 660Q401 601 381 577T318 552T261 563T246 600Q246 659 266 683ZM38 659T58 683T121 708T178 697T193 660Q193 601
172 577T109 552T53 563T38 600Q38 659 58 683Z" />
<glyph unicode="&#xf0;" glyph-name="eth" horiz-adv-x="575" d="M485 570L460 562Q545 432 545 319Q545 176 478 84Q444 38 386 12T250 -15Q136 -15 83 33T30 179Q30 308 99 371T325 435Q312 472 291 509L178 473L173 526Q176 541 184 547T214 561L252 573Q227
608 203 636L356 680Q385 659 415 624L521 658L526 605Q523 590 515 584T485 570ZM242 279L215 121H244Q278 121 295 128T317 163L345 321H315Q281 321 264 314T242 279Z" />
<glyph unicode="&#xf1;" glyph-name="ntilde" horiz-adv-x="595" d="M202 500L241 450Q339 515 442 515Q501 515 533 491T566 423Q566 416 564 400L494 0H304L365 350H336Q304 350 286 343T264 312L209 0H19L107 500H202ZM436 676L522 716L555 635Q426 554 412
549T385 543T364 545T348 552T335 562Q327 567 306 588L221 548L187 629Q316 710 330 715T357 721T378 719T394 712T407 702Q415 697 436 676Z" />
<glyph unicode="&#xf2;" glyph-name="ograve" horiz-adv-x="590" d="M35 167Q35 317 111 416T341 515Q452 515 503 470T555 330T525 160T423 35T245 -15Q35 -15 35 167ZM261 327L227 131H256Q290 131 307 138T329 173L364 369H334Q300 369 283 362T261 327ZM468
539L294 574Q278 577 268 586L223 625Q219 631 219 637T228 654L291 728Q300 739 307 739T320 735L509 596L468 539Z" />
<glyph unicode="&#xf3;" glyph-name="oacute" horiz-adv-x="590" d="M35 167Q35 317 111 416T341 515Q452 515 503 470T555 330T525 160T423 35T245 -15Q35 -15 35 167ZM261 327L227 131H256Q290 131 307 138T329 173L364 369H334Q300 369 283 362T261 327ZM434
574L260 539L219 596L408 735Q414 739 421 739T437 728L500 654Q509 644 509 638T507 628T460 586Q450 577 434 574Z" />
<glyph unicode="&#xf4;" glyph-name="ocircumflex" horiz-adv-x="590" d="M35 167Q35 317 111 416T341 515Q452 515 503 470T555 330T525 160T423 35T245 -15Q35 -15 35 167ZM261 327L227 131H256Q290 131 307 138T329 173L364 369H334Q300 369 283 362T261 327ZM369
740H414Q422 740 427 731L510 586L444 537L366 600L267 537L219 586L351 731Q358 740 369 740Z" />
<glyph unicode="&#xf5;" glyph-name="otilde" horiz-adv-x="590" d="M35 167Q35 317 111 416T341 515Q452 515 503 470T555 330T525 160T423 35T245 -15Q35 -15 35 167ZM261 327L227 131H256Q290 131 307 138T329 173L364 369H334Q300 369 283 362T261 327ZM428
676L514 716L547 635Q418 554 404 549T377 543T356 545T340 552T327 562Q319 567 298 588L213 548L179 629Q308 710 322 715T349 721T370 719T386 712T399 702Q407 697 428 676Z" />
<glyph unicode="&#xf6;" glyph-name="odieresis" horiz-adv-x="590" d="M35 167Q35 317 111 416T341 515Q452 515 503 470T555 330T525 160T423 35T245 -15Q35 -15 35 167ZM261 327L227 131H256Q290 131 307 138T329 173L364 369H334Q300 369 283 362T261 327ZM389
659T409 683T472 708T529 697T544 660Q544 601 524 577T461 552T404 563T389 600Q389 659 409 683ZM181 659T201 683T264 708T321 697T336 660Q336 601 315 577T252 552T196 563T181 600Q181 659 201 683Z" />
<glyph unicode="&#xf7;" glyph-name="divide" horiz-adv-x="600" d="M418 554L401 457Q396 428 359 428H283Q250 428 250 450Q250 455 267 547Q272 575 309 575H385Q418 575 418 554ZM351 174L334 77Q329 48 292 48H216Q183 48 183 70Q183 75 200 167Q205 195
242 195H318Q351 195 351 174ZM71 240L96 384H529L504 240H71Z" />
<glyph unicode="&#xf8;" glyph-name="oslash" horiz-adv-x="590" d="M35 167Q35 317 111 416T341 515Q371 515 395 512L432 576Q437 586 441 590Q452 601 475 601H546L480 486Q555 442 555 339T525 160T423 35T248 -15Q219 -15 195 -12L157 -79Q152 -89 148 -93Q137
-104 114 -104H43L110 13Q35 55 35 167ZM261 327L236 181L343 369H334Q300 369 283 362T261 327ZM248 131H256Q290 131 307 138T329 173L355 317L248 131Z" />
<glyph unicode="&#xf9;" glyph-name="ugrave" horiz-adv-x="590" d="M287 500L222 131H251Q285 131 302 138T324 173L382 500H572L484 0H389L344 57Q274 -15 168 -15Q97 -15 64 11T30 97Q30 125 35 150L97 500H287ZM464 539L290 574Q274 577 264 586L219 625Q215
631 215 637T224 654L287 728Q296 739 303 739T316 735L505 596L464 539Z" />
<glyph unicode="&#xfa;" glyph-name="uacute" horiz-adv-x="590" d="M287 500L222 131H251Q285 131 302 138T324 173L382 500H572L484 0H389L344 57Q274 -15 168 -15Q97 -15 64 11T30 97Q30 125 35 150L97 500H287ZM430 574L256 539L215 596L404 735Q410 739 417
739T433 728L496 654Q505 644 505 638T503 628T456 586Q446 577 430 574Z" />
<glyph unicode="&#xfb;" glyph-name="ucircumflex" horiz-adv-x="590" d="M287 500L222 131H251Q285 131 302 138T324 173L382 500H572L484 0H389L344 57Q274 -15 168 -15Q97 -15 64 11T30 97Q30 125 35 150L97 500H287ZM364 740H409Q417 740 422 731L505 586L439
537L361 600L262 537L214 586L346 731Q354 740 364 740Z" />
<glyph unicode="&#xfc;" glyph-name="udieresis" horiz-adv-x="590" d="M287 500L222 131H251Q285 131 302 138T324 173L382 500H572L484 0H389L344 57Q274 -15 168 -15Q97 -15 64 11T30 97Q30 125 35 150L97 500H287ZM384 659T404 683T467 708T524 697T539 660Q539
601 519 577T456 552T399 563T384 600Q384 659 404 683ZM176 659T196 683T259 708T316 697T331 660Q331 601 310 577T247 552T191 563T176 600Q176 659 196 683Z" />
<glyph unicode="&#xfd;" glyph-name="yacute" horiz-adv-x="520" d="M84 52L57 500H241V175H251L361 500H551L344 0Q303 -99 257 -132T133 -165H-51L-29 -35L63 -17Q164 3 184 46V52H84ZM398 574L224 539L183 596L372 735Q378 739 385 739T401 728L464 654Q473
644 473 638T471 628T424 586Q414 577 398 574Z" />
<glyph unicode="&#xfe;" glyph-name="thorn" horiz-adv-x="595" d="M133 650L326 665L296 499Q335 515 394 515Q560 515 560 331Q560 187 494 91Q461 42 404 14T270 -15H206L182 -150L-10 -165L133 650ZM267 332L232 131H262Q296 131 312 138T334 173L369 369H340Q298
369 284 359T267 332Z" />
<glyph unicode="&#xff;" glyph-name="ydieresis" horiz-adv-x="520" d="M84 52L57 500H241V175H251L361 500H551L344 0Q303 -99 257 -132T133 -165H-51L-29 -35L63 -17Q164 3 184 46V52H84ZM351 659T371 683T434 708T491 697T506 660Q506 601 486 577T423 552T366
563T351 600Q351 659 371 683ZM143 659T163 683T226 708T283 697T298 660Q298 601 277 577T214 552T158 563T143 600Q143 659 163 683Z" />
<glyph unicode="&#x2013;" glyph-name="endash" horiz-adv-x="595" d="M20 200L39 308Q44 335 60 342T111 350H563L544 242Q539 215 523 208T472 200H20Z" />
<glyph unicode="&#x2014;" glyph-name="emdash" horiz-adv-x="854" d="M27 200L46 308Q51 335 67 342T118 350H817L798 242Q793 215 776 208T725 200H27Z" />
<glyph unicode="&#x2018;" glyph-name="quoteleft" horiz-adv-x="260" d="M248 446Q248 313 124 313Q75 313 55 328T35 377Q35 393 40 420L42 432Q49 466 60 486T80 518T91 534L180 670L260 641L202 496Q227 492 237 480T248 446Z" />
<glyph unicode="&#x2019;" glyph-name="quoteright" horiz-adv-x="295" d="M57 525Q57 658 181 658Q230 658 250 643T270 594Q270 578 265 551L263 539Q256 505 245 485T225 453T214 437L125 301L45 330L103 475Q78 479 68 491T57 525Z" />
<glyph unicode="&#x201a;" glyph-name="quotesinglbase" horiz-adv-x="277" d="M37 99Q47 158 72 182T153 206T228 191T248 141Q248 72 192 -15L104 -151L24 -122L80 22Q34 30 34 72Q34 84 37 99Z" />
<glyph unicode="&#x201c;" glyph-name="quotedblleft" horiz-adv-x="497" d="M486 445Q486 313 361 313Q313 313 293 328T273 371T278 420L281 432Q293 478 329 534L418 670L497 641L440 496Q486 488 486 445ZM248 446Q248 313 124 313Q75 313 55 328T35 371T40
420L43 432Q55 478 91 534L180 670L260 641L202 496Q227 492 237 480T248 446Z" />
<glyph unicode="&#x201d;" glyph-name="quotedblright" horiz-adv-x="532" d="M56 526Q56 658 181 658Q229 658 249 643T269 594Q269 579 264 551L262 539Q255 505 244 485T224 453T213 437L124 301L45 330L102 475Q56 483 56 526ZM294 525Q294 658 418 658Q467
658 487 643T507 594Q507 578 502 551L500 539Q493 505 482 485T462 453T451 437L362 301L282 330L340 475Q315 479 305 491T294 525Z" />
<glyph unicode="&#x201e;" glyph-name="quotedblbase" horiz-adv-x="515" d="M35 76Q35 208 160 208Q208 208 228 193T248 144Q248 129 243 101L241 89Q234 55 223 35T203 3T192 -13L103 -149L24 -120L81 25Q35 33 35 76ZM273 75Q273 208 397 208Q446 208 466
193T486 144Q486 128 481 101L479 89Q472 55 461 35T441 3T430 -13L341 -149L261 -120L319 25Q294 29 284 41T273 75Z" />
<glyph unicode="&#x2022;" glyph-name="bullet" horiz-adv-x="342" d="M20 195Q20 388 186 388Q249 388 274 369T300 305Q300 214 264 163T137 112Q72 112 46 131T20 195Z" />
<glyph unicode="&#x2039;" glyph-name="guilsinglleft" horiz-adv-x="325" d="M29 300L244 475L312 424L187 250L251 76L165 25L12 200L29 300Z" />
<glyph unicode="&#x203a;" glyph-name="guilsinglright" horiz-adv-x="325" d="M138 475L291 300L274 200L59 25L-9 76L117 250L52 424L138 475Z" />
</font>
</defs>
</svg>
