<?xml version="1.0" standalone="no"?>
<!DOCTYPE svg PUBLIC "-//W3C//DTD SVG 1.1//EN" "http://www.w3.org/Graphics/SVG/1.1/DTD/svg11.dtd">
<svg xmlns="http://www.w3.org/2000/svg">
<defs >
<font id="Exo2" horiz-adv-x="543" ><font-face
    font-family="Exo 2 Extra Light"
    units-per-em="1000"
    panose-1="0 0 3 0 0 0 0 0 0 0"
    ascent="992"
    descent="-208"
    alphabetic="0" />
<glyph unicode=" " glyph-name="space" horiz-adv-x="228" />
<glyph unicode="!" glyph-name="exclam" horiz-adv-x="258" d="M149 363L146 205H113L109 363V695H149V363ZM123 94H136Q153 94 153 77V17Q153 0 136 0H123Q106 0 106 17V77Q106 94 123 94Z" />
<glyph unicode="&quot;" glyph-name="quotedbl" horiz-adv-x="334" d="M116 480H86L83 690H119L116 480ZM248 480H218L215 690H250L248 480Z" />
<glyph unicode="#" glyph-name="numbersign" horiz-adv-x="672" d="M500 464L464 255H573L568 224H459L420 0H384L423 224H208L169 0H133L172 224H56L62 255H177L213 464H98L104 495H219L253 690H289L255 495H470L504 690H540L506 495H615L610 464H500ZM464 464H249L213
255H428L464 464Z" />
<glyph unicode="$" glyph-name="dollar" horiz-adv-x="560" d="M300 365L360 355Q437 344 468 302T500 171Q500 111 487 74T444 19T379 -5T284 -11H276L269 -133H241L248 -11Q152 -9 77 2L81 33Q188 27 251 27L269 331L201 342Q129 353 98 396T66 523Q66 584 78
620T119 674T183 697T278 701H292L298 803H325L319 700Q402 697 470 687L466 657Q395 661 317 663L300 365ZM290 664H279Q242 664 224 663T182 658T147 645T125 621T111 581T107 522Q107 452 130 421T211 380L272 370L290 664ZM278 27H285Q385 28 421 54T458 171Q458
246 434 277T351 317L296 326L278 27Z" />
<glyph unicode="%" glyph-name="percent" horiz-adv-x="886" d="M126 702T210 702T328 654T363 498T329 342T210 294T92 342T57 498T91 654ZM222 0H189L660 690H694L222 0ZM276 674T210 674T118 634T91 498T117 363T210 322T302 362T329 498T303 633ZM676 401Q759
401 793 353T828 197Q828 88 794 40T676 -8Q592 -8 558 40T523 197Q523 305 557 353T676 401ZM741 373T675 373T583 333T557 197T583 61T675 20T767 61T794 197T768 332Z" />
<glyph unicode="&amp;" glyph-name="ampersand" horiz-adv-x="780" d="M721 29L726 1Q681 -7 635 -7Q527 -7 522 91Q475 36 418 14T276 -9Q167 -9 122 31T77 174Q77 258 108 304T213 356V360Q151 365 124 405T97 521Q97 580 111 616T160 670T238 693T355 699Q444
699 514 690L508 660Q477 663 353 663Q227 663 183 636T139 517Q139 433 174 404T304 374H523L529 523H561V374H698L695 341H561V105Q561 29 637 29H721ZM522 341H303Q201 341 161 307T120 178Q120 93 155 61T280 28Q364 28 420 53T522 133V341Z" />
<glyph unicode="&apos;" glyph-name="quotesingle" horiz-adv-x="202" d="M116 480H86L83 690H119L116 480Z" />
<glyph unicode="(" glyph-name="parenleft" horiz-adv-x="356" d="M309 790L315 766Q207 711 157 601T106 313Q106 138 156 28T315 -141L309 -165Q183 -109 124 7T65 312Q65 503 124 619T309 790Z" />
<glyph unicode=")" glyph-name="parenright" horiz-adv-x="356" d="M42 766L47 790Q173 735 232 619T291 312Q291 123 232 7T47 -165L42 -141Q149 -83 199 27T250 313Q250 490 200 600T42 766Z" />
<glyph unicode="*" glyph-name="asterisk" horiz-adv-x="452" d="M236 535L332 406L308 389L226 513L144 390L119 407L215 535L211 690H242L236 535ZM199 550L198 537L192 528L67 565L78 594L199 550ZM386 564L259 528L253 537V550L376 593L386 564Z" />
<glyph unicode="+" glyph-name="plus" horiz-adv-x="552" d="M487 281H292V97H260V281H65V314H259V498H293V314H487V281Z" />
<glyph unicode="," glyph-name="comma" horiz-adv-x="213" d="M101 94H114Q131 94 131 77V13Q129 -59 108 -121L89 -114Q94 -64 94 0Q89 0 86 4T84 15V77Q83 94 101 94Z" />
<glyph unicode="-" glyph-name="hyphen" horiz-adv-x="474" d="M392 235H82V268H392V235Z" />
<glyph unicode="." glyph-name="period" horiz-adv-x="212" d="M99 94H113Q130 94 130 77V17Q130 0 113 0H99Q81 0 81 17V77Q81 94 99 94Z" />
<glyph unicode="/" glyph-name="slash" horiz-adv-x="500" d="M72 -61H35L428 690H465L72 -61Z" />
<glyph unicode="0" glyph-name="zero" horiz-adv-x="589" d="M294 702Q416 702 465 618T515 345T466 73T294 -12Q173 -12 124 72T74 345T123 617T294 702ZM393 665T294 665T155 590T115 345T155 100T294 25T433 100T474 345T434 590Z" />
<glyph unicode="1" glyph-name="one" horiz-adv-x="383" d="M260 0H219V600Q219 625 222 649L40 589L33 618L219 690H260V0Z" />
<glyph unicode="2" glyph-name="two" horiz-adv-x="558" d="M72 644L66 675Q178 702 266 702Q372 702 421 674T470 561Q470 495 439 437T335 293L112 37Q150 38 229 38H499V0H60V25Q60 37 67 45L297 309Q368 389 398 448T427 566Q424 627 386 646T268 665Q177
665 72 644Z" />
<glyph unicode="3" glyph-name="three" horiz-adv-x="553" d="M76 654L69 685Q168 702 250 702Q365 702 411 668T458 543Q458 391 351 369V365Q474 345 477 192Q479 87 431 38T267 -12Q184 -12 59 5L65 37Q185 25 260 25Q354 25 395 63T436 194Q436 227 430 252T406
300T356 335T273 349H145V380L273 382Q320 383 351 397T395 437T413 484T418 537Q416 613 380 639T247 665Q158 665 76 654Z" />
<glyph unicode="4" glyph-name="four" horiz-adv-x="600" d="M548 194L464 190V0H424V189H107Q73 189 57 216T56 275L272 690H314L96 271Q87 252 95 238T124 224H424V443L433 559H464V224H548V194Z" />
<glyph unicode="5" glyph-name="five" horiz-adv-x="529" d="M440 654H136L125 409L185 408Q264 406 312 398T397 367T449 306T464 204Q464 167 460 139T443 81T408 32T345 1T250 -12Q166 -12 62 15L69 47Q169 24 243 24Q350 24 386 68T424 204Q424 238 418 263T403
306T374 336T335 355T280 367T213 372T128 374H105Q85 376 87 395L102 690H444L440 654Z" />
<glyph unicode="6" glyph-name="six" horiz-adv-x="566" d="M458 689L450 659Q411 666 334 666Q272 666 235 655T171 610T133 515T119 351Q162 403 205 423T315 443Q422 443 462 392T502 210Q502 153 495 117T466 49T403 3T295 -12Q225 -12 183 3T117 60T85 157T77
309Q77 412 86 481T114 595T165 662T236 694T334 702Q408 702 458 689ZM296 24Q349 24 383 36T434 74T456 132T462 213Q462 322 430 365T307 409Q252 409 210 390T119 319V306Q119 250 121 214T129 143T148 88T179 52T227 30T296 24Z" />
<glyph unicode="7" glyph-name="seven" horiz-adv-x="507" d="M46 690H426Q476 690 460 644L237 0H196L408 613Q418 641 423 654H48L46 690Z" />
<glyph unicode="8" glyph-name="eight" horiz-adv-x="610" d="M194 356V360Q95 371 95 518Q95 615 140 657T305 699Q427 699 471 658T515 518Q515 371 416 360V356Q478 349 503 305T529 172Q529 72 483 32T305 -9Q175 -10 128 30T81 172Q81 261 106 305T194 356ZM408
663T306 663T170 632T135 516Q135 427 168 401T307 375T444 401T476 516Q476 600 442 631ZM307 341Q247 341 214 335T158 311T128 262T121 177Q121 94 159 62T306 29T452 61T489 177Q489 282 455 311T307 341Z" />
<glyph unicode="9" glyph-name="nine" horiz-adv-x="567" d="M98 1L106 31Q158 25 229 25Q292 25 329 36T394 80T433 176T445 341Q402 288 359 268T249 247Q149 247 107 303T64 472Q64 589 109 645T272 702Q322 702 356 696T414 670T452 628T474 561T484 472T486
354Q486 236 473 164T426 53T348 1T229 -12Q153 -12 98 1ZM257 281Q312 281 354 300T445 372Q445 448 442 488T430 569T402 627T352 655T271 666Q174 666 139 618T104 470Q104 374 138 328T257 281Z" />
<glyph unicode=":" glyph-name="colon" horiz-adv-x="214" d="M99 433H113Q131 433 131 416V355Q131 338 113 338H99Q82 338 82 355V416Q82 433 99 433ZM99 94H113Q131 94 131 77V17Q131 0 113 0H99Q82 0 82 17V77Q82 94 99 94Z" />
<glyph unicode=";" glyph-name="semicolon" horiz-adv-x="216" d="M100 433H115Q132 433 132 416V355Q132 338 115 338H100Q83 338 83 355V416Q83 433 100 433ZM102 94H115Q132 94 132 77V13Q130 -57 110 -121L90 -114Q96 -54 96 0Q83 0 85 15V77Q85 94 102 94Z" />
<glyph unicode="&lt;" glyph-name="less" horiz-adv-x="538" d="M458 459L99 296L458 137V103L62 279V313L458 493V459Z" />
<glyph unicode="=" glyph-name="equal" horiz-adv-x="588" d="M505 380H83V413H505V380ZM505 168H83V201H505V168Z" />
<glyph unicode="&gt;" glyph-name="greater" horiz-adv-x="538" d="M476 313V279L80 103V137L439 296L80 459V493L476 313Z" />
<glyph unicode="?" glyph-name="question" horiz-adv-x="506" d="M52 664L47 693Q54 694 76 698T106 703T132 706T166 709T204 711T255 712Q452 712 452 557Q452 515 433 480T387 417T332 362T285 294T264 205H228Q228 258 246 301T292 372T346 427T392 484T411
553Q411 617 372 647T250 677Q161 677 52 664ZM239 94H252Q269 94 269 77V17Q269 0 252 0H239Q222 0 222 17V77Q222 94 239 94Z" />
<glyph unicode="@" glyph-name="at" horiz-adv-x="699" d="M341 572H482Q618 572 618 448V130H589L583 209Q548 178 485 151T360 124Q301 124 268 152T234 233V286Q234 333 264 359T349 385H581V447Q581 490 558 514T477 537H342Q289 537 260 535T203 523T164
498T142 450T130 375T128 265Q128 194 130 152T143 76T166 26T210 0T274 -13T368 -15H613V-46Q451 -50 369 -50Q301 -51 260 -48T185 -32T135 -1T107 57T92 142T89 265Q89 338 91 382T104 464T129 520T175 551T243 567T341 572ZM581 359L356 355Q273 352 273 283V237Q273
160 363 158Q415 157 477 180T581 238V359Z" />
<glyph unicode="A" glyph-name="A" horiz-adv-x="608" d="M463 243H145L60 0H17L258 677Q263 690 276 690H332Q345 690 350 677L591 0H548L463 243ZM450 279L338 600L318 656H290L270 600L158 279H450Z" />
<glyph unicode="B" glyph-name="B" horiz-adv-x="614" d="M408 360V356Q482 349 513 304T545 172Q545 68 498 30T331 -8Q182 -8 99 0V690Q172 698 301 698Q427 698 476 660T525 518Q525 443 497 405T408 360ZM140 374H318Q412 375 447 403T483 515Q483 603 444
632T300 662Q210 662 140 660V374ZM140 341V30Q218 28 327 28Q427 28 465 58T503 176Q503 271 463 305T318 341H140Z" />
<glyph unicode="C" glyph-name="C" horiz-adv-x="563" d="M516 38L523 7Q444 -12 331 -12Q188 -12 130 68T72 345T130 622T331 702Q436 702 509 684L502 654Q424 665 331 665Q210 665 163 595T115 345T162 96T331 25Q439 25 516 38Z" />
<glyph unicode="D" glyph-name="D" horiz-adv-x="660" d="M99 0V690Q220 699 332 699Q474 699 531 620T588 345T531 70T332 -9Q221 -9 99 0ZM140 659V31Q224 28 332 28Q451 28 498 98T545 345T498 592T332 662Q226 662 140 659Z" />
<glyph unicode="E" glyph-name="E" horiz-adv-x="553" d="M495 35L497 4Q401 0 203 0Q154 0 124 29T93 106V584Q93 631 123 660T203 690Q401 690 497 686L495 655H210Q176 655 155 634T134 577V385H454V351H134V113Q134 78 155 57T210 35H495Z" />
<glyph unicode="F" glyph-name="F" horiz-adv-x="532" d="M490 655H215Q180 655 159 634T137 577V380H450V346H137V0H96V583Q96 631 126 660T206 690Q399 690 493 685L490 655Z" />
<glyph unicode="G" glyph-name="G" horiz-adv-x="624" d="M546 400V0H517L509 84Q420 -12 298 -12Q177 -12 125 72T72 346Q72 544 131 623T338 702Q451 702 533 684L526 654Q439 665 339 665Q214 665 165 596T116 344Q116 173 159 99T305 25Q366 25 410 49T505
117V400H546Z" />
<glyph unicode="H" glyph-name="H" horiz-adv-x="660" d="M561 690V0H520V352H140V0H99V690H140V388H520V690H561Z" />
<glyph unicode="I" glyph-name="I" horiz-adv-x="239" d="M140 0H99V690H140V0Z" />
<glyph unicode="J" glyph-name="J" horiz-adv-x="328" d="M232 690V123Q232 58 201 25T107 -7Q74 -7 36 1L41 29H97Q191 29 191 123V690H232Z" />
<glyph unicode="K" glyph-name="K" horiz-adv-x="570" d="M243 343H136Q139 299 139 260V0H99V690H139V459Q139 414 135 377H243L477 690H524L301 390Q292 376 274 361V359Q291 344 302 329L540 0H492L243 343Z" />
<glyph unicode="L" glyph-name="L" horiz-adv-x="509" d="M137 690V113Q137 78 158 57T215 35H482V5Q392 0 208 0Q156 0 126 30T96 109V690H137Z" />
<glyph unicode="M" glyph-name="M" horiz-adv-x="860" d="M669 690H726Q746 690 746 669L776 0H735L706 655H683L475 79Q470 65 456 65H404Q389 65 384 79L177 655H154L125 0H84L113 669Q115 690 134 690H191Q205 690 210 676L385 192Q390 178 395 163T407 128T418
99H442L475 194L649 676Q654 690 669 690Z" />
<glyph unicode="N" glyph-name="N" horiz-adv-x="692" d="M593 690V20Q593 0 574 0H520Q504 0 497 15L199 579Q171 633 162 653H139Q140 628 140 578V0H99V670Q99 690 119 690H169Q186 690 193 675L483 124Q491 111 528 38H553Q553 54 553 85T552 132V690H593Z" />
<glyph unicode="O" glyph-name="O" horiz-adv-x="664" d="M188 702T332 702T533 623T591 345T534 67T332 -12T130 67T72 345T130 622ZM453 665T332 665T163 594T115 345T163 96T332 25T500 95T548 345T501 594Z" />
<glyph unicode="P" glyph-name="P" horiz-adv-x="583" d="M99 0V690Q180 698 324 698Q439 698 484 655T529 492Q529 372 485 329T327 286Q220 286 140 292V0H99ZM140 322H324Q416 324 451 358T487 492T452 626T324 662Q218 662 140 660V322Z" />
<glyph unicode="Q" glyph-name="Q" horiz-adv-x="664" d="M188 702T332 702T533 623T591 345T534 67T332 -12T130 67T72 345T130 622ZM453 665T332 665T164 595T116 345T163 96T332 25T500 95T548 345T501 594ZM282 -73L297 -49Q392 -108 532 -130L519 -171Q384
-150 282 -73Z" />
<glyph unicode="R" glyph-name="R" horiz-adv-x="610" d="M554 0H509L439 217Q409 304 331 304Q257 304 140 307V0H99V690Q180 698 324 698Q439 698 484 657T529 503Q529 413 500 372T402 321V316Q455 301 481 220L554 0ZM140 341H324Q416 343 451 376T487 502T452
628T324 662Q216 662 140 660V341Z" />
<glyph unicode="S" glyph-name="S" horiz-adv-x="556" d="M348 317L198 342Q126 353 95 396T63 523Q63 584 75 620T116 674T180 697T275 701Q382 699 467 687L463 657Q325 664 276 664Q240 664 221 663T179 658T145 645T123 621T109 581T105 522Q105 452 128 421T208
380L358 355Q434 344 465 302T497 171Q497 111 484 74T441 19T376 -5T281 -11Q169 -11 75 2L78 33Q196 25 283 26Q335 27 364 32T415 52T446 95T455 171Q455 246 431 277T348 317Z" />
<glyph unicode="T" glyph-name="T" horiz-adv-x="568" d="M542 654H304V0H263V654H26V690H542V654Z" />
<glyph unicode="U" glyph-name="U" horiz-adv-x="667" d="M573 690V257Q573 111 519 50T335 -12Q203 -12 149 49T94 257V690H135V257Q135 129 179 77T334 25Q442 25 487 77T532 257V690H573Z" />
<glyph unicode="V" glyph-name="V" horiz-adv-x="596" d="M573 690L344 13Q338 0 325 0H271Q257 0 253 13L24 690H67L261 108Q279 51 284 34H312L336 109L529 690H573Z" />
<glyph unicode="W" glyph-name="W" horiz-adv-x="935" d="M902 690L730 14Q726 0 711 0H654Q638 0 635 15L498 579L479 657H456Q449 631 437 579L300 15Q297 0 281 0H224Q209 0 204 14L32 690H76L222 107L239 34H266Q268 43 274 67T283 106L422 674Q425 690 441
690H494Q508 690 513 674L652 107Q658 82 668 34H695L712 106L859 690H902Z" />
<glyph unicode="X" glyph-name="X" horiz-adv-x="598" d="M314 343H284L82 0H35L247 359L48 690H94L282 377H315L503 690H550L350 359L563 0H516L314 343Z" />
<glyph unicode="Y" glyph-name="Y" horiz-adv-x="548" d="M295 253V0H253V254L19 690H64L235 368Q241 357 253 333T271 297H277L312 367L483 690H528L295 253Z" />
<glyph unicode="Z" glyph-name="Z" horiz-adv-x="560" d="M510 36V0H51V36L458 654H55V690H505V654L97 36H510Z" />
<glyph unicode="[" glyph-name="bracketleft" horiz-adv-x="316" d="M269 737H153Q141 737 141 724V-121Q141 -134 153 -134H269V-165H139Q123 -165 113 -155T102 -128V731Q102 747 112 757T139 768H269V737Z" />
<glyph unicode="\" glyph-name="backslash" horiz-adv-x="500" d="M465 -61H428L35 690H72L465 -61Z" />
<glyph unicode="]" glyph-name="bracketright" horiz-adv-x="316" d="M48 768H177Q194 768 204 758T214 731V-128Q214 -144 204 -154T177 -165H48V-134H163Q176 -134 176 -121V724Q176 737 163 737H48V768Z" />
<glyph unicode="^" glyph-name="asciicircum" horiz-adv-x="401" d="M371 381L353 367L205 546H197L49 367L30 381L186 582H215L371 381Z" />
<glyph unicode="_" glyph-name="underscore" horiz-adv-x="586" d="M509 -33H77V0H509V-33Z" />
<glyph unicode="`" glyph-name="grave" horiz-adv-x="287" d="M225 567L208 547L45 683L70 712L225 567Z" />
<glyph unicode="a" glyph-name="a" horiz-adv-x="541" d="M86 443L82 473Q234 494 312 494Q454 494 454 354V0H424L417 89Q380 53 318 23T193 -7T97 25T62 118V178Q62 233 93 263T182 293H414V354Q414 404 390 431T307 458Q221 458 86 443ZM103 175V121Q103 31
197 30Q247 29 309 55T414 122V261L186 258Q103 257 103 175Z" />
<glyph unicode="b" glyph-name="b" horiz-adv-x="561" d="M128 700V492Q128 427 123 395Q230 494 321 494Q414 494 454 436T495 241Q495 106 450 47T296 -12Q198 -12 88 20V700H128ZM128 365V47Q213 22 295 24Q381 24 417 73T454 241T423 409T313 458Q271 458
230 436T128 365Z" />
<glyph unicode="c" glyph-name="c" horiz-adv-x="481" d="M433 35L439 7Q366 -12 288 -12Q166 -12 116 45T65 241T115 437T287 494Q374 494 428 475L421 448Q368 458 294 458Q190 458 149 412T107 241T148 71T294 24Q378 24 433 35Z" />
<glyph unicode="d" glyph-name="d" horiz-adv-x="564" d="M473 700V0H443L438 80Q333 -12 240 -12T107 47T67 241Q67 378 108 436T244 494Q333 494 437 445Q434 470 434 539V700H473ZM434 112V415Q320 458 249 458Q172 458 140 410T108 242T140 73T248 24Q291
24 332 44T434 112Z" />
<glyph unicode="e" glyph-name="e" horiz-adv-x="530" d="M364 221H107Q111 111 153 68T289 24Q372 24 454 36L459 8Q399 -12 284 -12Q167 -12 116 46T65 243T113 437T276 494Q467 494 470 352Q472 286 447 254T364 221ZM107 254H358Q432 254 429 350Q428 406
392 432T278 458Q184 458 146 413T107 254Z" />
<glyph unicode="f" glyph-name="f" horiz-adv-x="361" d="M371 680H263Q207 680 184 657T160 577V482H332V448H160V0H120V448H33V477L120 481V579Q120 648 150 681T250 715Q329 715 373 710L371 680Z" />
<glyph unicode="g" glyph-name="g" horiz-adv-x="548" d="M518 456L425 452Q464 417 464 343Q464 266 419 230T269 194Q196 194 151 212Q131 189 127 165T138 121T192 94L382 61Q444 51 467 22T491 -68Q491 -146 443 -177T275 -209Q152 -209 103 -178T53 -69Q53
-17 68 12T125 64L139 72Q107 87 96 115T94 173T129 223Q73 257 73 343Q73 420 119 457T270 494Q331 494 370 482H521L518 456ZM184 227T269 227T390 254T426 343T391 432T269 461Q184 461 148 433T111 343Q111 283 147 255ZM171 62L150 49Q116 28 104 3T92 -67Q92
-127 132 -150T274 -174Q373 -174 412 -151T452 -67Q452 -20 435 0T366 30L173 62H171Z" />
<glyph unicode="h" glyph-name="h" horiz-adv-x="572" d="M131 700V491Q131 430 126 397Q255 494 355 494Q485 494 485 362V0H445V354Q445 408 421 433T346 458Q297 458 249 437T130 366V0H90V700H131Z" />
<glyph unicode="i" glyph-name="i" horiz-adv-x="227" d="M105 683H123Q138 683 138 667V607Q138 591 123 591H105Q89 591 89 607V667Q89 683 105 683ZM133 0H94V482H133V0Z" />
<glyph unicode="j" glyph-name="j" horiz-adv-x="228" d="M105 683H123Q138 683 138 667V607Q138 591 123 591H105Q90 591 90 607V667Q90 683 105 683ZM134 482V-37Q134 -135 61 -208L39 -191Q94 -120 94 -37V482H134Z" />
<glyph unicode="k" glyph-name="k" horiz-adv-x="482" d="M206 259H127Q130 214 130 174V0H90V700H131V373Q131 328 127 291H206L388 482H437L264 298Q249 283 238 275V273Q252 261 264 244L453 0H405L206 259Z" />
<glyph unicode="l" glyph-name="l" horiz-adv-x="277" d="M131 700V106Q130 69 150 50T207 30H262L267 1Q243 -7 197 -7Q148 -7 120 21T91 100V700H131Z" />
<glyph unicode="m" glyph-name="m" horiz-adv-x="879" d="M122 482L126 397Q237 494 336 494Q441 494 458 398Q569 494 667 494Q792 494 792 362V0H753V354Q752 458 655 458Q611 458 569 437T461 366V362V0H422V354Q422 458 324 458Q281 458 239 437T130 366V0H91V482H122Z"
/>
<glyph unicode="n" glyph-name="n" horiz-adv-x="573" d="M123 482L126 397Q251 494 356 494Q486 494 486 362V0H446V354Q446 408 422 433T347 458Q298 458 251 437T130 366V0H91V482H123Z" />
<glyph unicode="o" glyph-name="o" horiz-adv-x="562" d="M163 494T281 494T447 437T496 241T448 45T281 -12T114 45T66 241T114 437ZM378 458T281 458T146 411T108 241T146 71T281 23T416 70T455 241T417 411Z" />
<glyph unicode="p" glyph-name="p" horiz-adv-x="566" d="M122 482L127 397Q229 494 327 494Q419 494 459 435T499 240Q499 103 458 46T322 -12Q228 -12 127 41Q130 15 130 -53V-208H91V482H122ZM130 367V68Q248 24 317 24Q394 24 426 72T458 240Q458 359 426
408T319 458Q275 458 233 437T130 367Z" />
<glyph unicode="q" glyph-name="q" horiz-adv-x="562" d="M473 -208H433V-16Q433 48 438 79Q325 -12 231 -12Q145 -12 106 48T66 241Q66 377 112 435T270 494Q363 494 473 462V-208ZM434 110V435Q349 458 272 458Q181 458 144 410T107 238Q107 124 138 74T241
24Q288 24 329 44T434 110Z" />
<glyph unicode="r" glyph-name="r" horiz-adv-x="388" d="M366 494L360 456H340Q294 456 249 436T130 368V0H91V482H121L126 397Q248 494 346 494H366Z" />
<glyph unicode="s" glyph-name="s" horiz-adv-x="501" d="M321 215L164 238Q110 246 85 275T59 365Q59 449 99 472T239 494Q347 492 430 481L426 452Q311 458 243 459Q157 461 128 446T98 365Q98 318 117 298T176 272L333 249Q388 240 415 211T443 124Q443 39
399 14T249 -11Q153 -11 70 1L74 30Q160 23 245 24Q338 25 371 43T404 124Q404 168 383 188T321 215Z" />
<glyph unicode="t" glyph-name="t" horiz-adv-x="356" d="M159 448V106Q159 30 236 30H320L325 1Q280 -7 233 -7Q119 -7 119 102V448H32V477L119 481V631H159V482H331V448H159Z" />
<glyph unicode="u" glyph-name="u" horiz-adv-x="563" d="M472 482V0H441L437 83Q321 -12 217 -12Q87 -12 87 120V482H127V128Q126 74 151 49T228 24Q274 24 318 45T432 114V482H472Z" />
<glyph unicode="v" glyph-name="v" horiz-adv-x="513" d="M486 482L294 11Q288 0 276 0H236Q224 0 219 11L27 482H70L214 121Q220 107 232 77T250 32H263L300 122L443 482H486Z" />
<glyph unicode="w" glyph-name="w" horiz-adv-x="815" d="M783 482L623 13Q618 0 605 0H566Q552 0 547 14L434 379Q420 427 413 452H402L380 379L268 14Q263 0 249 0H210Q197 0 192 13L32 482H74L202 97Q207 84 214 59T223 30H236L257 98L371 468Q374 482 389
482H426Q440 482 444 468L559 98L579 30H592Q596 41 602 64T613 98L741 482H783Z" />
<glyph unicode="x" glyph-name="x" horiz-adv-x="511" d="M267 235H244L79 0H33L210 250L45 482H91L242 268H269L420 482H466L301 250L478 0H432L267 235Z" />
<glyph unicode="y" glyph-name="y" horiz-adv-x="512" d="M485 482L271 -42Q243 -112 205 -153T101 -209L95 -184Q150 -164 181 -127T235 -34L249 0H236Q224 0 219 12L27 482H70L228 87Q230 81 234 70T242 50T249 33H262L284 88L443 482H485Z" />
<glyph unicode="z" glyph-name="z" horiz-adv-x="502" d="M450 34V0H52V34L399 447H55V482H447V447L99 34H450Z" />
<glyph unicode="{" glyph-name="braceleft" horiz-adv-x="303" d="M255 768V741Q199 741 178 717T156 639V440Q156 381 141 360T76 328Q127 311 143 291T160 220V-36Q160 -89 181 -113T259 -138V-165Q185 -166 153 -136T121 -37V231Q121 251 118 263T104 284T85
296T53 309V347Q79 355 86 357T103 369T115 391T117 429V640Q117 708 149 738T255 768Z" />
<glyph unicode="|" glyph-name="bar" horiz-adv-x="237" d="M135 -169H102V781H135V-169Z" />
<glyph unicode="}" glyph-name="braceright" horiz-adv-x="304" d="M48 741V768Q122 769 154 739T187 640V429Q187 383 197 372T250 347V309Q226 300 218 297T199 285T186 264T183 231V-37Q183 -105 151 -135T44 -165V-138Q100 -138 122 -114T144 -36V220Q144
271 160 291T227 328Q179 339 164 360T148 440V639Q148 692 126 716T48 741Z" />
<glyph unicode="~" glyph-name="asciitilde" horiz-adv-x="531" d="M108 238H84Q81 286 102 311T160 335Q202 332 265 302T369 269Q398 267 411 281T424 330H448Q450 283 430 258T372 236Q321 239 259 269T163 302Q134 305 121 290T108 238Z" />
<glyph unicode="&#xa0;" glyph-name="uni00A0" horiz-adv-x="228" />
<glyph unicode="&#xa1;" glyph-name="exclamdown" horiz-adv-x="239" d="M114 483H127Q144 483 144 466V406Q144 389 127 389H114Q96 389 96 406V466Q96 483 114 483ZM140 120V-203H99V120L103 278H136L140 120Z" />
<glyph unicode="&#xa2;" glyph-name="cent" horiz-adv-x="505" d="M433 144L438 116Q367 97 288 97H276L268 0H241L249 98Q149 106 107 164T65 350Q65 488 115 545T286 603L292 690H320L313 602Q376 600 428 584L421 556Q380 565 310 567L279 133L294 132Q373
132 433 144ZM252 134L283 567Q184 565 145 518T105 350Q105 238 138 190T252 134Z" />
<glyph unicode="&#xa3;" glyph-name="sterling" horiz-adv-x="562" d="M505 36V0H69V36Q119 66 136 118T150 248L145 349H63V377H143L136 525Q133 582 144 618T183 672T241 695T319 701Q390 701 481 691L477 660Q403 665 301 665Q229 665 201 634T176 527L184
377H424L422 349H185L190 248Q193 169 178 118T117 35Q138 36 179 36H505Z" />
<glyph unicode="&#xa4;" glyph-name="currency" horiz-adv-x="600" d="M499 132L424 207Q371 160 299 160Q228 160 174 206L100 132L79 153L153 227Q107 279 107 352Q107 424 153 478L80 551L100 572L174 498Q226 544 299 544T425 497L499 572L519 551L445 477Q491
423 491 352Q491 280 444 227L520 152L499 132ZM299 189Q366 188 413 236T461 352T414 468T299 516T184 468T136 352T184 236T299 189Z" />
<glyph unicode="&#xa5;" glyph-name="yen" horiz-adv-x="606" d="M340 310H516V282H324L323 281V200H516V172H323V0H282V172H94V200H282V281L281 282H94V310H265L48 690H92L261 394Q278 366 300 323H306L344 393L512 690H557L340 310Z" />
<glyph unicode="&#xa6;" glyph-name="brokenbar" horiz-adv-x="239" d="M136 381H103V781H136V381ZM136 -169H103V231H136V-169Z" />
<glyph unicode="&#xa7;" glyph-name="section" d="M361 332L174 439Q117 471 94 504T71 588Q71 657 115 680T253 702Q376 700 470 690L466 660Q371 666 259 667Q221 667 200 666T156 657T123 633T113 588Q113 518 189 474L373 370Q436 334 453 282T460 145H427Q435
216 420 261T361 332ZM84 409H116Q108 338 122 295T182 225L370 119Q425 88 449 54T473 -32Q473 -65 463 -87T439 -122T399 -140T350 -147T290 -149Q190 -148 74 -137L78 -106Q207 -113 285 -114Q316 -114 333 -114T371 -109T404 -97T423 -72T431 -31Q431 41 355
83L172 187Q109 222 91 273T84 409Z" />
<glyph unicode="&#xa8;" glyph-name="dieresis" horiz-adv-x="402" d="M105 678H120Q134 678 134 664V608Q134 594 120 594H105Q92 594 92 608V664Q92 678 105 678ZM282 678H297Q311 678 311 664V608Q311 594 297 594H282Q269 594 269 608V664Q269 678 282 678Z" />
<glyph unicode="&#xa9;" glyph-name="copyright" horiz-adv-x="852" d="M426 702Q577 702 680 601T784 345T681 90T426 -12Q276 -12 173 89T69 345T172 600T426 702ZM426 675Q289 675 193 581T96 345T192 110T426 15Q564 15 660 109T756 345T660 580T426 675ZM571
156L575 132Q517 119 431 119Q323 119 280 170T236 348T279 525T431 577Q513 577 565 564L559 541Q505 546 431 546Q341 546 306 503T270 348T305 193T431 149Q524 149 571 156Z" />
<glyph unicode="&#xaa;" glyph-name="ordfeminine" horiz-adv-x="443" d="M93 564L89 588Q199 602 257 602Q358 602 358 506V271H333L327 333Q300 307 256 287T167 266Q124 266 100 287T75 349V390Q75 426 97 446T161 467H325V506Q325 573 252 573Q185 573 93
564ZM108 388V354Q108 297 175 295Q210 294 252 312T325 355V446L168 441Q108 440 108 388Z" />
<glyph unicode="&#xab;" glyph-name="guillemotleft" horiz-adv-x="460" d="M232 440L90 251L233 59L213 44L49 245V257L212 455L232 440ZM396 440L254 251L397 59L377 44L213 245V257L376 455L396 440Z" />
<glyph unicode="&#xac;" glyph-name="logicalnot" horiz-adv-x="592" d="M505 313V130H471V280H83V313H505Z" />
<glyph unicode="&#xad;" glyph-name="softhyphen" horiz-adv-x="474" d="M392 235H82V268H392V235Z" />
<glyph unicode="&#xae;" glyph-name="registered" horiz-adv-x="574" d="M287 701Q379 701 444 636T509 479Q509 386 444 321T287 256Q194 256 129 321T64 479Q64 571 129 636T287 701ZM204 276T287 276T429 335T488 479Q488 563 429 622T287 682T145 623T86 479Q86
394 145 335ZM337 469V467Q365 462 376 428L412 340H386L352 426Q338 460 301 460Q278 460 248 460T210 461V340H187V617Q222 620 298 620Q354 620 377 603T400 541Q400 506 386 490T337 469ZM210 478H298Q342 479 359 491T376 539Q376 575 359 587T298 600Q230
600 210 599V478Z" />
<glyph unicode="&#xaf;" glyph-name="overscore" horiz-adv-x="400" d="M332 621H68V654H332V621Z" />
<glyph unicode="&#xb0;" glyph-name="degree" horiz-adv-x="378" d="M189 702Q240 702 277 666T314 578T277 490T189 453T101 490T64 578T100 665T189 702ZM229 674T189 674T121 646T93 578Q93 539 121 510T189 481T256 510T285 578Q285 618 257 646Z" />
<glyph unicode="&#xb1;" glyph-name="plusminus" horiz-adv-x="596" d="M509 366V334H314V190H281V334H87V366H281V510H315V366H509ZM87 121H509V88H87V121Z" />
<glyph unicode="&#xb2;" glyph-name="twosuperior" horiz-adv-x="439" d="M78 741L74 765Q147 781 209 781Q282 781 315 764T348 694Q348 656 327 621T258 537L112 389Q150 390 189 389H368V360H70V379Q70 388 76 394L226 546Q272 593 292 627T312 695Q311 731
287 741T209 752Q148 752 78 741Z" />
<glyph unicode="&#xb3;" glyph-name="threesuperior" horiz-adv-x="422" d="M81 747L77 771Q138 781 199 781Q280 781 311 761T342 686Q342 594 267 581V579Q351 567 353 475Q355 411 322 382T210 353Q158 353 70 363L74 388Q146 381 205 381Q266 381 292 403T319
478Q319 518 297 541T213 566H128V590L213 591Q254 592 277 607T305 640T310 680Q309 722 285 737T197 753Q143 753 81 747Z" />
<glyph unicode="&#xb4;" glyph-name="acute" horiz-adv-x="287" d="M240 683L77 547L59 567L214 712L240 683Z" />
<glyph unicode="&#xb6;" glyph-name="paragraph" horiz-adv-x="596" d="M490 0H455V663Q404 669 317 671V-210H282V201Q158 212 104 270T50 450Q50 588 119 645T351 702Q434 702 490 685V0Z" />
<glyph unicode="&#xb7;" glyph-name="middot" horiz-adv-x="214" d="M100 304H114Q131 304 131 287V227Q131 210 114 210H100Q82 210 82 227V287Q82 304 100 304Z" />
<glyph unicode="&#xb8;" glyph-name="cedilla" horiz-adv-x="223" d="M95 -68L100 -47Q144 -44 165 -59T186 -112Q185 -167 145 -198T40 -222L46 -199Q95 -201 124 -176T154 -114Q154 -89 141 -79T95 -68Z" />
<glyph unicode="&#xb9;" glyph-name="onesuperior" horiz-adv-x="288" d="M201 360H168V711Q168 732 170 743L50 708L44 730L168 774H201V360Z" />
<glyph unicode="&#xba;" glyph-name="ordmasculine" horiz-adv-x="448" d="M223 602Q308 602 342 564T377 432Q377 339 343 301T223 263Q139 263 105 301T71 432Q71 526 105 564T223 602ZM223 574Q157 574 131 543T105 432T131 322T223 291T315 321T342 432T316
543T223 574Z" />
<glyph unicode="&#xbb;" glyph-name="guillemotright" horiz-adv-x="460" d="M411 257V245L248 44L227 59L371 251L228 440L249 455L411 257ZM247 257V245L84 44L63 59L207 251L64 440L85 455L247 257Z" />
<glyph unicode="&#xbc;" glyph-name="onequarter" horiz-adv-x="846" d="M174 276V627Q174 648 176 659L55 624L50 646L174 690H206V276H174ZM634 690L162 0H129L600 690H634ZM796 114L751 111V0H719V110H499Q477 110 466 126T466 163L608 414H642L500 165Q494
155 500 146T519 137H719V266L726 336H751V137H796V114Z" />
<glyph unicode="&#xbd;" glyph-name="onehalf" horiz-adv-x="875" d="M206 276H174V627Q174 648 176 659L55 624L50 646L174 690H206V276ZM161 0H127L599 690H632L161 0ZM529 381L525 405Q598 421 660 421Q733 421 766 404T799 334Q799 296 778 261T709 177L563
29Q601 30 640 29H818V0H521V19Q521 27 526 34L677 186Q723 233 743 267T763 335Q762 371 737 381T660 392Q599 392 529 381Z" />
<glyph unicode="&#xbe;" glyph-name="threequarters" horiz-adv-x="936" d="M262 495V493Q346 481 348 389Q350 325 318 296T206 267Q155 267 65 277L69 302Q141 295 200 295Q261 295 287 317T314 392Q314 432 292 455T209 479L123 480V503L209 505Q240 506 260
514T290 536T302 563T305 593Q304 636 280 651T192 667Q138 667 76 661L72 685Q133 695 195 695Q275 695 306 675T337 600Q337 508 262 495ZM737 690L266 0H232L704 690H737ZM886 114L832 111V0H800V110H589Q567 110 556 126T555 163L698 414H731L589 165Q584 154
590 146T609 137H800V266L807 336H832V137H886V114Z" />
<glyph unicode="&#xbf;" glyph-name="questiondown" horiz-adv-x="503" d="M253 492H266Q283 492 283 475V415Q283 398 266 398H253Q236 398 236 415V475Q236 492 253 492ZM240 287H277Q277 234 259 191T213 120T159 65T113 8T94 -61Q93 -124 132 -154T254 -185Q343
-185 452 -172L457 -201Q446 -203 423 -207T387 -212T354 -216T307 -219T250 -220Q52 -220 52 -65Q52 -23 71 12T117 75T172 131T219 199T240 287Z" />
<glyph unicode="&#xc0;" glyph-name="Agrave" horiz-adv-x="608" d="M328 734L165 870L191 899L346 754L328 734ZM463 243H145L60 0H17L258 677Q263 690 276 690H332Q345 690 350 677L591 0H548L463 243ZM450 279L338 600L318 656H290L270 600L158 279H450Z" />
<glyph unicode="&#xc1;" glyph-name="Aacute" horiz-adv-x="608" d="M270 734L252 754L407 899L433 870L270 734ZM463 243H145L60 0H17L258 677Q263 690 276 690H332Q345 690 350 677L591 0H548L463 243ZM450 279L338 600L318 656H290L270 600L158 279H450Z" />
<glyph unicode="&#xc2;" glyph-name="Acircumflex" horiz-adv-x="608" d="M170 746L154 765L289 884H318L453 765L437 746L308 847H300L170 746ZM463 243H145L60 0H17L258 677Q263 690 276 690H332Q345 690 350 677L591 0H548L463 243ZM450 279L338 600L318 656H290L270
600L158 279H450Z" />
<glyph unicode="&#xc3;" glyph-name="Atilde" horiz-adv-x="608" d="M179 774H156Q153 822 174 847T232 870Q262 867 303 837T374 805Q404 802 417 816T430 865H453Q455 819 435 795T377 773Q341 776 299 805T234 838Q205 841 192 826T179 774ZM463 243H145L60
0H17L258 677Q263 690 276 690H332Q345 690 350 677L591 0H548L463 243ZM450 279L338 600L318 656H290L270 600L158 279H450Z" />
<glyph unicode="&#xc4;" glyph-name="Adieresis" horiz-adv-x="608" d="M223 775H208Q195 775 195 790V845Q195 860 208 860H223Q236 860 236 845V790Q236 775 223 775ZM400 775H385Q372 775 372 790V845Q372 860 385 860H400Q413 860 413 845V790Q413 775 400
775ZM463 243H145L60 0H17L258 677Q263 690 276 690H332Q345 690 350 677L591 0H548L463 243ZM450 279L338 600L318 656H290L270 600L158 279H450Z" />
<glyph unicode="&#xc5;" glyph-name="Aring" horiz-adv-x="608" d="M345 718T304 718T235 746T206 815Q206 856 235 884T304 913Q345 913 374 885T403 815Q403 775 374 747ZM334 888T304 888T254 867T233 815T253 764T304 743T355 763T376 815T355 867ZM463 243H145L60
0H17L258 677Q263 690 276 690H332Q345 690 350 677L591 0H548L463 243ZM450 279L338 600L318 656H290L270 600L158 279H450Z" />
<glyph unicode="&#xc6;" glyph-name="AE" horiz-adv-x="908" d="M850 35V4Q758 0 572 0Q526 0 496 30T466 106V260H220L54 0H8L392 599Q427 653 467 671T573 690Q749 690 850 686V654H585Q549 654 528 633T506 576V385H808V351H506V114Q506 78 527 57T585 35H850ZM466
295V579Q466 602 477 624T505 655H498Q461 638 427 586L242 295H466Z" />
<glyph unicode="&#xc7;" glyph-name="Ccedilla" horiz-adv-x="563" d="M516 38L523 7Q444 -12 331 -12Q188 -12 130 68T72 345T130 622T331 702Q436 702 509 684L502 654Q424 665 331 665Q210 665 163 595T115 345T162 96T331 25Q439 25 516 38ZM292 -80L297 -59Q386
-53 383 -124Q382 -179 342 -210T237 -234L243 -211Q292 -213 321 -188T351 -126Q351 -101 338 -91T292 -80Z" />
<glyph unicode="&#xc8;" glyph-name="Egrave" horiz-adv-x="553" d="M334 758L171 894L197 923L352 778L334 758ZM495 35L497 4Q401 0 203 0Q154 0 124 29T93 106V584Q93 631 123 660T203 690Q401 690 497 686L495 655H210Q176 655 155 634T134 577V385H454V351H134V113Q134
78 155 57T210 35H495Z" />
<glyph unicode="&#xc9;" glyph-name="Eacute" horiz-adv-x="553" d="M275 758L257 778L413 923L438 894L275 758ZM495 35L497 4Q401 0 203 0Q154 0 124 29T93 106V584Q93 631 123 660T203 690Q401 690 497 686L495 655H210Q176 655 155 634T134 577V385H454V351H134V113Q134
78 155 57T210 35H495Z" />
<glyph unicode="&#xca;" glyph-name="Ecircumflex" horiz-adv-x="553" d="M176 770L160 788L294 908H324L459 788L443 770L313 871H305L176 770ZM495 35L497 4Q401 0 203 0Q154 0 124 29T93 106V584Q93 631 123 660T203 690Q401 690 497 686L495 655H210Q176 655
155 634T134 577V385H454V351H134V113Q134 78 155 57T210 35H495Z" />
<glyph unicode="&#xcb;" glyph-name="Edieresis" horiz-adv-x="553" d="M228 799H214Q200 799 200 813V869Q200 883 214 883H228Q242 883 242 869V813Q242 799 228 799ZM405 799H391Q377 799 377 813V869Q377 883 391 883H405Q419 883 419 869V813Q419 799 405
799ZM495 35L497 4Q401 0 203 0Q154 0 124 29T93 106V584Q93 631 123 660T203 690Q401 690 497 686L495 655H210Q176 655 155 634T134 577V385H454V351H134V113Q134 78 155 57T210 35H495Z" />
<glyph unicode="&#xcc;" glyph-name="Igrave" horiz-adv-x="239" d="M161 754L143 734L-20 870L6 899L161 754ZM140 0H99V690H140V0Z" />
<glyph unicode="&#xcd;" glyph-name="Iacute" horiz-adv-x="239" d="M248 870L85 734L67 754L222 899L248 870ZM140 0H99V690H140V0Z" />
<glyph unicode="&#xce;" glyph-name="Icircumflex" horiz-adv-x="239" d="M268 765L252 746L122 847H114L-15 746L-31 765L104 884H133L268 765ZM140 0H99V690H140V0Z" />
<glyph unicode="&#xcf;" glyph-name="Idieresis" horiz-adv-x="239" d="M23 860H38Q51 860 51 845V790Q51 775 38 775H23Q9 775 9 790V845Q9 860 23 860ZM200 860H215Q228 860 228 845V790Q228 775 215 775H200Q186 775 186 790V845Q186 860 200 860ZM140 0H99V690H140V0Z"
/>
<glyph unicode="&#xd0;" glyph-name="Eth" horiz-adv-x="664" d="M102 384V690Q224 699 336 699Q477 699 534 620T591 345T534 70T336 -9Q226 -9 102 0V356H25V384H102ZM143 356V31Q227 28 336 28Q454 28 501 98T548 345T501 592T336 662Q230 662 143 659V384H318V356H143Z"
/>
<glyph unicode="&#xd1;" glyph-name="Ntilde" horiz-adv-x="692" d="M233 774H210Q208 822 229 847T286 870Q316 867 358 837T429 805Q459 802 471 816T484 865H507Q510 818 489 794T431 773Q395 776 353 805T289 838Q259 841 246 826T233 774ZM593 690V20Q593
0 574 0H520Q504 0 497 15L199 579Q171 633 162 653H139Q140 628 140 578V0H99V670Q99 690 119 690H169Q186 690 193 675L483 124Q491 111 528 38H553Q553 54 553 85T552 132V690H593Z" />
<glyph unicode="&#xd2;" glyph-name="Ograve" horiz-adv-x="664" d="M374 754L356 734L193 870L219 899L374 754ZM188 702T332 702T533 623T591 345T534 67T332 -12T130 67T72 345T130 622ZM453 665T332 665T163 594T115 345T163 96T332 25T500 95T548 345T501 594Z" />
<glyph unicode="&#xd3;" glyph-name="Oacute" horiz-adv-x="664" d="M461 870L298 734L280 754L435 899L461 870ZM188 702T332 702T533 623T591 345T534 67T332 -12T130 67T72 345T130 622ZM453 665T332 665T163 594T115 345T163 96T332 25T500 95T548 345T501 594Z" />
<glyph unicode="&#xd4;" glyph-name="Ocircumflex" horiz-adv-x="664" d="M481 765L465 746L336 847H328L198 746L182 765L317 884H346L481 765ZM188 702T332 702T533 623T591 345T534 67T332 -12T130 67T72 345T130 622ZM453 665T332 665T163 594T115 345T163
96T332 25T500 95T548 345T501 594Z" />
<glyph unicode="&#xd5;" glyph-name="Otilde" horiz-adv-x="664" d="M207 774H184Q181 822 202 847T260 870Q290 867 331 837T402 805Q432 802 445 816T458 865H481Q483 819 463 795T405 773Q369 776 327 805T262 838Q233 841 220 826T207 774ZM188 702T332 702T533
623T591 345T534 67T332 -12T130 67T72 345T130 622ZM453 665T332 665T163 594T115 345T163 96T332 25T500 95T548 345T501 594Z" />
<glyph unicode="&#xd6;" glyph-name="Odieresis" horiz-adv-x="664" d="M236 860H251Q264 860 264 845V790Q264 775 251 775H236Q223 775 223 790V845Q223 860 236 860ZM413 860H428Q441 860 441 845V790Q441 775 428 775H413Q400 775 400 790V845Q400 860 413
860ZM188 702T332 702T533 623T591 345T534 67T332 -12T130 67T72 345T130 622ZM453 665T332 665T163 594T115 345T163 96T332 25T500 95T548 345T501 594Z" />
<glyph unicode="&#xd7;" glyph-name="multiply" horiz-adv-x="487" d="M60 433L412 117L433 143L81 459L60 433Z" />
<glyph unicode="&#xd8;" glyph-name="Oslash" horiz-adv-x="664" d="M522 731L491 664Q544 628 567 552T591 345Q591 146 534 67T332 -12Q241 -12 187 17L154 -53L127 -40L162 34Q115 72 94 147T72 345Q72 543 130 622T332 702Q414 702 464 679L494 743L522 731ZM181
74L447 642Q404 665 332 665Q211 665 163 594T115 345Q115 141 181 74ZM472 625L205 55Q251 25 332 25Q453 25 500 95T548 345Q548 458 531 525T472 625Z" />
<glyph unicode="&#xd9;" glyph-name="Ugrave" horiz-adv-x="667" d="M377 754L359 734L196 870L222 899L377 754ZM573 690V257Q573 111 519 50T335 -12Q203 -12 149 49T94 257V690H135V257Q135 129 179 77T334 25Q442 25 487 77T532 257V690H573Z" />
<glyph unicode="&#xda;" glyph-name="Uacute" horiz-adv-x="667" d="M463 870L300 734L282 754L437 899L463 870ZM573 690V257Q573 111 519 50T335 -12Q203 -12 149 49T94 257V690H135V257Q135 129 179 77T334 25Q442 25 487 77T532 257V690H573Z" />
<glyph unicode="&#xdb;" glyph-name="Ucircumflex" horiz-adv-x="667" d="M484 765L468 746L338 847H330L201 746L184 765L319 884H349L484 765ZM573 690V257Q573 111 519 50T335 -12Q203 -12 149 49T94 257V690H135V257Q135 129 179 77T334 25Q442 25 487 77T532
257V690H573Z" />
<glyph unicode="&#xdc;" glyph-name="Udieresis" horiz-adv-x="667" d="M238 860H253Q267 860 267 845V790Q267 775 253 775H238Q225 775 225 790V845Q225 860 238 860ZM416 860H430Q444 860 444 845V790Q444 775 430 775H416Q402 775 402 790V845Q402 860 416
860ZM573 690V257Q573 111 519 50T335 -12Q203 -12 149 49T94 257V690H135V257Q135 129 179 77T334 25Q442 25 487 77T532 257V690H573Z" />
<glyph unicode="&#xdd;" glyph-name="Yacute" horiz-adv-x="548" d="M240 734L222 754L377 899L403 870L240 734ZM295 253V0H253V254L19 690H64L235 368Q241 357 253 333T271 297H277L312 367L483 690H528L295 253Z" />
<glyph unicode="&#xde;" glyph-name="Thorn" horiz-adv-x="585" d="M140 690V554Q192 558 324 558Q439 558 484 515T529 351T485 188T327 144Q220 144 140 150V0H99V550V690H140ZM140 181H324Q416 183 451 217T487 351Q487 451 452 486T324 522Q218 522 140 520V181Z" />
<glyph unicode="&#xdf;" glyph-name="germandbls" horiz-adv-x="657" d="M390 289L515 247Q564 231 587 204T610 123Q610 40 571 15T446 -11Q357 -11 282 0L285 30Q352 23 442 23Q513 25 541 43T570 124Q570 168 553 186T497 217L372 259Q329 274 307 298T285
365Q285 383 287 397T299 422T314 440T337 456T362 468T395 481T430 494Q475 511 491 532T507 597Q507 643 465 661T333 680Q234 680 198 650T161 532V0H121V448H34V478L121 481V534Q121 594 135 631T181 686T245 709T332 714Q440 714 492 689T544 598Q544 543
523 516T446 467Q435 463 410 454T377 442T355 431T337 415T329 395T324 366Q324 333 340 317T390 289Z" />
<glyph unicode="&#xe0;" glyph-name="agrave" horiz-adv-x="541" d="M291 552L128 688L154 718L309 572L291 552ZM86 443L82 473Q234 494 312 494Q454 494 454 354V0H424L417 89Q380 53 318 23T193 -7T97 25T62 118V178Q62 233 93 263T182 293H414V354Q414 404
390 431T307 458Q221 458 86 443ZM103 175V121Q103 31 197 30Q247 29 309 55T414 122V261L186 258Q103 257 103 175Z" />
<glyph unicode="&#xe1;" glyph-name="aacute" horiz-adv-x="541" d="M233 552L215 572L370 718L396 688L233 552ZM86 443L82 473Q234 494 312 494Q454 494 454 354V0H424L417 89Q380 53 318 23T193 -7T97 25T62 118V178Q62 233 93 263T182 293H414V354Q414 404
390 431T307 458Q221 458 86 443ZM103 175V121Q103 31 197 30Q247 29 309 55T414 122V261L186 258Q103 257 103 175Z" />
<glyph unicode="&#xe2;" glyph-name="acircumflex" horiz-adv-x="541" d="M134 565L117 583L252 703H281L416 583L401 565L271 666H263L134 565ZM86 443L82 473Q234 494 312 494Q454 494 454 354V0H424L417 89Q380 53 318 23T193 -7T97 25T62 118V178Q62 233 93
263T182 293H414V354Q414 404 390 431T307 458Q221 458 86 443ZM103 175V121Q103 31 197 30Q247 29 309 55T414 122V261L186 258Q103 257 103 175Z" />
<glyph unicode="&#xe3;" glyph-name="atilde" horiz-adv-x="541" d="M142 593H119Q116 641 137 666T195 688Q225 685 266 656T337 623Q367 621 380 635T393 683H416Q418 637 397 613T340 591T262 624T197 656Q142 662 142 593ZM86 443L82 473Q234 494 312 494Q454
494 454 354V0H424L417 89Q380 53 318 23T193 -7T97 25T62 118V178Q62 233 93 263T182 293H414V354Q414 404 390 431T307 458Q221 458 86 443ZM103 175V121Q103 31 197 30Q247 29 309 55T414 122V261L186 258Q103 257 103 175Z" />
<glyph unicode="&#xe4;" glyph-name="adieresis" horiz-adv-x="541" d="M186 594H171Q158 594 158 608V664Q158 678 171 678H186Q199 678 199 664V608Q199 594 186 594ZM363 594H348Q335 594 335 608V664Q335 678 348 678H363Q377 678 377 664V608Q377 594 363
594ZM86 443L82 473Q234 494 312 494Q454 494 454 354V0H424L417 89Q380 53 318 23T193 -7T97 25T62 118V178Q62 233 93 263T182 293H414V354Q414 404 390 431T307 458Q221 458 86 443ZM103 175V121Q103 31 197 30Q247 29 309 55T414 122V261L186 258Q103 257 103
175Z" />
<glyph unicode="&#xe5;" glyph-name="aring" horiz-adv-x="541" d="M309 536T268 536T198 564T169 634T198 703T268 732Q308 732 337 703T366 634Q366 593 338 565ZM268 706Q237 706 217 686T197 634T217 583T268 562Q298 562 318 582T339 634Q339 664 319 685T268
706ZM86 443L82 473Q234 494 312 494Q454 494 454 354V0H424L417 89Q380 53 318 23T193 -7T97 25T62 118V178Q62 233 93 263T182 293H414V354Q414 404 390 431T307 458Q221 458 86 443ZM103 175V121Q103 31 197 30Q247 29 309 55T414 122V261L186 258Q103 257 103
175Z" />
<glyph unicode="&#xe6;" glyph-name="ae" horiz-adv-x="878" d="M680 221H456Q460 111 502 68T638 24Q721 24 803 36L808 8Q748 -12 633 -12Q476 -12 435 99Q397 60 329 27T193 -7Q131 -7 97 25T62 118V178Q62 233 93 263T182 293H414V354Q414 404 390 431T307
458Q221 458 86 443L82 473Q234 494 312 494Q421 494 446 414Q491 494 625 494Q816 494 819 352Q820 282 788 252T680 221ZM456 254H674Q732 254 756 276T778 350Q777 458 626 458Q533 458 495 413T456 254ZM103 175V121Q103 31 197 30Q249 29 314 56T426 126Q414
176 414 243V260V261L186 258Q103 257 103 175Z" />
<glyph unicode="&#xe7;" glyph-name="ccedilla" horiz-adv-x="481" d="M433 35L439 7Q366 -12 288 -12Q166 -12 116 45T65 241T115 437T287 494Q374 494 428 475L421 448Q368 458 294 458Q190 458 149 412T107 241T148 71T294 24Q378 24 433 35ZM247 -80L251 -59Q296
-56 317 -71T338 -124Q337 -179 297 -210T192 -234L198 -211Q247 -213 276 -189T306 -126Q306 -101 293 -91T247 -80Z" />
<glyph unicode="&#xe8;" glyph-name="egrave" horiz-adv-x="530" d="M302 552L139 688L164 718L319 572L302 552ZM364 221H107Q111 111 153 68T289 24Q372 24 454 36L459 8Q399 -12 284 -12Q167 -12 116 46T65 243T113 437T276 494Q467 494 470 352Q472 286 447
254T364 221ZM107 254H358Q432 254 429 350Q428 406 392 432T278 458Q184 458 146 413T107 254Z" />
<glyph unicode="&#xe9;" glyph-name="eacute" horiz-adv-x="530" d="M243 552L225 572L380 718L406 688L243 552ZM364 221H107Q111 111 153 68T289 24Q372 24 454 36L459 8Q399 -12 284 -12Q167 -12 116 46T65 243T113 437T276 494Q467 494 470 352Q472 286 447
254T364 221ZM107 254H358Q432 254 429 350Q428 406 392 432T278 458Q184 458 146 413T107 254Z" />
<glyph unicode="&#xea;" glyph-name="ecircumflex" horiz-adv-x="530" d="M144 565L127 583L262 703H292L427 583L411 565L281 666H273L144 565ZM364 221H107Q111 111 153 68T289 24Q372 24 454 36L459 8Q399 -12 284 -12Q167 -12 116 46T65 243T113 437T276 494Q467
494 470 352Q472 286 447 254T364 221ZM107 254H358Q432 254 429 350Q428 406 392 432T278 458Q184 458 146 413T107 254Z" />
<glyph unicode="&#xeb;" glyph-name="edieresis" horiz-adv-x="530" d="M196 594H181Q168 594 168 608V664Q168 678 181 678H196Q210 678 210 664V608Q210 594 196 594ZM373 594H359Q345 594 345 608V664Q345 678 359 678H373Q387 678 387 664V608Q387 594 373
594ZM364 221H107Q111 111 153 68T289 24Q372 24 454 36L459 8Q399 -12 284 -12Q167 -12 116 46T65 243T113 437T276 494Q467 494 470 352Q472 286 447 254T364 221ZM107 254H358Q432 254 429 350Q428 406 392 432T278 458Q184 458 146 413T107 254Z" />
<glyph unicode="&#xec;" glyph-name="igrave" horiz-adv-x="228" d="M155 572L137 552L-26 688L0 718L155 572ZM134 0H94V482H134V0Z" />
<glyph unicode="&#xed;" glyph-name="iacute" horiz-adv-x="228" d="M242 688L79 552L61 572L216 718L242 688ZM134 0H94V482H134V0Z" />
<glyph unicode="&#xee;" glyph-name="icircumflex" horiz-adv-x="228" d="M262 583L246 565L116 666H108L-21 565L-37 583L98 703H127L262 583ZM134 0H94V482H134V0Z" />
<glyph unicode="&#xef;" glyph-name="idieresis" horiz-adv-x="228" d="M17 678H32Q45 678 45 664V608Q45 594 32 594H17Q3 594 3 608V664Q3 678 17 678ZM194 678H209Q222 678 222 664V608Q222 594 209 594H194Q180 594 180 608V664Q180 678 194 678ZM134 0H94V482H134V0Z"
/>
<glyph unicode="&#xf0;" glyph-name="eth" horiz-adv-x="551" d="M430 679L354 625Q474 521 474 280Q474 227 471 189T455 111T422 45T362 4T271 -12Q166 -12 116 43T66 220Q66 330 113 388T267 447Q348 447 426 397Q405 534 324 604L235 541L219 563L301 621Q230
669 117 669L124 698Q247 702 331 643L414 702L430 679ZM272 23Q314 23 343 35T390 69T418 125T431 197T434 286Q434 317 430 367Q353 412 266 412Q180 412 144 362T108 220Q108 114 147 69T272 23Z" />
<glyph unicode="&#xf1;" glyph-name="ntilde" horiz-adv-x="573" d="M169 593H146Q143 641 164 666T221 688Q251 685 293 656T364 623Q394 621 406 635T419 683H442Q445 637 425 613T367 591T288 624T224 656Q169 662 169 593ZM123 482L126 397Q251 494 356 494Q486
494 486 362V0H446V354Q446 408 422 433T347 458Q298 458 251 437T130 366V0H91V482H123Z" />
<glyph unicode="&#xf2;" glyph-name="ograve" horiz-adv-x="562" d="M322 572L304 552L141 688L167 718L322 572ZM163 494T281 494T447 437T496 241T448 45T281 -12T114 45T66 241T114 437ZM378 458T281 458T146 411T108 241T146 71T281 23T416 70T455 241T417 411Z" />
<glyph unicode="&#xf3;" glyph-name="oacute" horiz-adv-x="562" d="M409 688L246 552L228 572L383 718L409 688ZM163 494T281 494T447 437T496 241T448 45T281 -12T114 45T66 241T114 437ZM378 458T281 458T146 411T108 241T146 71T281 23T416 70T455 241T417 411Z" />
<glyph unicode="&#xf4;" glyph-name="ocircumflex" horiz-adv-x="562" d="M429 583L413 565L283 666H275L146 565L130 583L265 703H294L429 583ZM163 494T281 494T447 437T496 241T448 45T281 -12T114 45T66 241T114 437ZM378 458T281 458T146 411T108 241T146
71T281 23T416 70T455 241T417 411Z" />
<glyph unicode="&#xf5;" glyph-name="otilde" horiz-adv-x="562" d="M155 593H132Q129 641 150 666T207 688Q237 685 279 656T350 623Q380 621 392 635T405 683H428Q431 637 411 613T353 591T274 624T210 656Q155 662 155 593ZM163 494T281 494T447 437T496 241T448
45T281 -12T114 45T66 241T114 437ZM378 458T281 458T146 411T108 241T146 71T281 23T416 70T455 241T417 411Z" />
<glyph unicode="&#xf6;" glyph-name="odieresis" horiz-adv-x="562" d="M184 678H199Q212 678 212 664V608Q212 594 199 594H184Q170 594 170 608V664Q170 678 184 678ZM361 678H376Q389 678 389 664V608Q389 594 376 594H361Q347 594 347 608V664Q347 678 361
678ZM163 494T281 494T447 437T496 241T448 45T281 -12T114 45T66 241T114 437ZM378 458T281 458T146 411T108 241T146 71T281 23T416 70T455 241T417 411Z" />
<glyph unicode="&#xf7;" glyph-name="divide" horiz-adv-x="584" d="M284 508H297Q314 508 314 491V432Q314 415 297 415H284Q267 415 267 432V491Q267 508 284 508ZM503 279H81V312H503V279ZM284 176H297Q314 176 314 159V100Q314 83 297 83H284Q267 83 267 100V159Q267
176 284 176Z" />
<glyph unicode="&#xf8;" glyph-name="oslash" horiz-adv-x="562" d="M428 533L400 473Q451 449 473 394T496 241Q496 102 448 45T281 -12Q220 -12 180 1L150 -65L125 -53L156 12Q108 36 87 91T66 241Q66 380 114 437T281 494Q336 494 375 482L404 544L428 533ZM172
47L359 448Q329 458 281 458Q184 458 146 411T108 241Q108 87 172 47ZM384 438L196 35Q230 23 281 23Q378 23 416 70T455 241Q455 324 439 370T384 438Z" />
<glyph unicode="&#xf9;" glyph-name="ugrave" horiz-adv-x="563" d="M306 553L143 689L169 719L324 573L306 553ZM472 482V0H441L437 83Q321 -12 217 -12Q87 -12 87 120V482H127V128Q126 74 151 49T228 24Q274 24 318 45T432 114V482H472Z" />
<glyph unicode="&#xfa;" glyph-name="uacute" horiz-adv-x="563" d="M247 553L229 573L384 719L410 689L247 553ZM472 482V0H441L437 83Q321 -12 217 -12Q87 -12 87 120V482H127V128Q126 74 151 49T228 24Q274 24 318 45T432 114V482H472Z" />
<glyph unicode="&#xfb;" glyph-name="ucircumflex" horiz-adv-x="563" d="M148 566L132 584L266 704H296L431 584L415 566L285 667H277L148 566ZM472 482V0H441L437 83Q321 -12 217 -12Q87 -12 87 120V482H127V128Q126 74 151 49T228 24Q274 24 318 45T432 114V482H472Z" />
<glyph unicode="&#xfc;" glyph-name="udieresis" horiz-adv-x="563" d="M200 595H185Q172 595 172 609V665Q172 679 185 679H200Q214 679 214 665V609Q214 595 200 595ZM377 595H363Q349 595 349 609V665Q349 679 363 679H377Q391 679 391 665V609Q391 595 377
595ZM472 482V0H441L437 83Q321 -12 217 -12Q87 -12 87 120V482H127V128Q126 74 151 49T228 24Q274 24 318 45T432 114V482H472Z" />
<glyph unicode="&#xfd;" glyph-name="yacute" horiz-adv-x="512" d="M224 552L206 572L361 718L387 688L224 552ZM485 482L271 -42Q243 -112 205 -153T101 -209L95 -184Q150 -164 181 -127T235 -34L249 0H236Q224 0 219 12L27 482H70L228 87Q230 81 234 70T242
50T249 33H262L284 88L443 482H485Z" />
<glyph unicode="&#xfe;" glyph-name="thorn" horiz-adv-x="565" d="M130 700V505Q130 436 127 410Q228 494 323 494Q417 494 457 436T497 240T457 46T322 -12Q230 -12 128 39Q130 17 130 -53V-208H91V700H130ZM130 376V68Q245 23 315 23Q391 23 423 72T456 240Q456
360 424 409T316 458Q238 458 130 376Z" />
<glyph unicode="&#xff;" glyph-name="ydieresis" horiz-adv-x="512" d="M177 594H162Q149 594 149 608V664Q149 678 162 678H177Q191 678 191 664V608Q191 594 177 594ZM354 594H340Q326 594 326 608V664Q326 678 340 678H354Q368 678 368 664V608Q368 594 354
594ZM485 482L271 -42Q243 -112 205 -153T101 -209L95 -184Q150 -164 181 -127T235 -34L249 0H236Q224 0 219 12L27 482H70L228 87Q230 81 234 70T242 50T249 33H262L284 88L443 482H485Z" />
<glyph unicode="&#x2013;" glyph-name="endash" horiz-adv-x="615" d="M533 235H82V268H533V235Z" />
<glyph unicode="&#x2014;" glyph-name="emdash" horiz-adv-x="923" d="M841 235H82V268H841V235Z" />
<glyph unicode="&#x2018;" glyph-name="quoteleft" horiz-adv-x="202" d="M107 519H95Q79 519 79 536V599Q81 672 100 731L119 724Q113 666 113 612Q126 612 123 598V536Q124 519 107 519Z" />
<glyph unicode="&#x2019;" glyph-name="quoteright" horiz-adv-x="200" d="M94 722H107Q123 722 123 705V642Q121 569 102 510L83 517Q89 577 89 629Q76 629 78 643V705Q78 722 94 722Z" />
<glyph unicode="&#x201a;" glyph-name="quotesinglbase" horiz-adv-x="213" d="M101 93H114Q131 93 131 76V13Q129 -58 108 -119L89 -112Q95 -52 95 0Q90 0 87 4T84 14V76Q84 93 101 93Z" />
<glyph unicode="&#x201c;" glyph-name="quotedblleft" horiz-adv-x="326" d="M231 519H219Q203 519 203 536V599Q203 666 224 731L243 724Q237 666 237 612Q250 612 247 598V536Q248 519 231 519ZM107 519H95Q79 519 79 536V599Q81 672 100 731L119 724Q113 666
113 612Q126 612 123 598V536Q124 519 107 519Z" />
<glyph unicode="&#x201d;" glyph-name="quotedblright" horiz-adv-x="324" d="M94 722H107Q123 722 123 705V642Q121 569 102 510L83 517Q89 577 89 629Q76 629 78 643V705Q78 722 94 722ZM218 722H231Q247 722 247 705V642Q245 569 226 510L207 517Q213 577 213
629Q200 629 202 643V705Q202 722 218 722Z" />
<glyph unicode="&#x201e;" glyph-name="quotedblbase" horiz-adv-x="336" d="M100 93H113Q129 93 129 76V13Q127 -61 107 -119L89 -112Q94 -62 94 0Q89 0 86 4T84 14V76Q84 93 100 93ZM224 93H237Q253 93 253 76V13Q251 -61 231 -119L213 -112Q218 -62 218 0Q213
0 210 4T208 14V76Q208 93 224 93Z" />
<glyph unicode="&#x2022;" glyph-name="bullet" horiz-adv-x="354" d="M173 342H183Q222 342 237 327T252 274V263Q252 223 237 208T183 193H173Q133 193 118 208T102 263V274Q102 312 117 327T173 342Z" />
<glyph unicode="&#x2039;" glyph-name="guilsinglleft" horiz-adv-x="240" d="M208 440L65 251L209 59L188 44L25 245V257L187 455L208 440Z" />
<glyph unicode="&#x203a;" glyph-name="guilsinglright" horiz-adv-x="242" d="M216 257V245L52 44L32 59L175 251L33 440L53 455L216 257Z" />
</font>
</defs>
</svg>
