<?xml version="1.0" standalone="no"?>
<!DOCTYPE svg PUBLIC "-//W3C//DTD SVG 1.1//EN" "http://www.w3.org/Graphics/SVG/1.1/DTD/svg11.dtd">
<svg xmlns="http://www.w3.org/2000/svg">
<defs >
<font id="Biryani" horiz-adv-x="552" ><font-face
    font-family="Biryani Light"
    units-per-em="1000"
    panose-1="0 0 4 0 0 0 0 0 0 0"
    ascent="1109"
    descent="-656"
    alphabetic="0" />
<glyph unicode=" " glyph-name="space" horiz-adv-x="220" />
<glyph unicode="!" glyph-name="exclam" horiz-adv-x="284" d="M96 758H188L174 230H110L96 758ZM100 154H184V0H100V154Z" />
<glyph unicode="&quot;" glyph-name="quotedbl" horiz-adv-x="454" d="M106 758H178V456H106V758ZM276 758H348V456H276V758Z" />
<glyph unicode="#" glyph-name="numbersign" horiz-adv-x="703" d="M524 429L500 245H612V175H491L468 0H396L418 175H242L219 0H147L169 175H60V245H178L202 429H90V499H211L234 674H306L284 499H460L483 674H555L533 499H642V429H524ZM451 429H275L251 245H427L451
429Z" />
<glyph unicode="$" glyph-name="dollar" horiz-adv-x="592" d="M505 91T454 42T310 -16V-96H239V-16Q189 -12 145 0T53 36V109Q144 61 239 53V305L231 308Q152 330 107 371T62 496Q62 582 109 630T243 687V758H314V686Q356 682 390 672T468 640V568Q391 609 314
617V364L336 358Q418 336 462 295T506 172Q505 91 454 42ZM140 450T166 425T243 384V618Q190 612 165 580T139 497Q140 450 166 425ZM429 218T398 243T310 285V53Q372 60 400 91T429 172Q429 218 398 243Z" />
<glyph unicode="%" glyph-name="percent" horiz-adv-x="1017" d="M689 773H761L344 -33H272L689 773ZM183 306T138 332T68 403T42 501Q42 554 67 599T138 670T237 696Q292 696 336 670T406 599T432 501Q432 448 407 403T337 332T237 306Q183 306 138 332ZM293
368T327 406T362 501Q362 557 328 595T237 633Q182 633 147 595T111 501Q111 445 146 407T237 368Q293 368 327 406ZM726 -17T681 9T611 80T585 178Q585 231 610 276T681 347T780 373Q835 373 879 347T949 276T975 178Q975 125 950 80T880 9T780 -17Q726 -17 681
9ZM836 45T870 83T905 178Q905 235 871 272T780 310Q725 310 690 272T654 178Q654 122 689 84T780 45Q836 45 870 83Z" />
<glyph unicode="&amp;" glyph-name="ampersand" horiz-adv-x="814" d="M784 71V0H749Q654 0 540 86Q490 37 431 10T306 -17Q227 -17 172 12T88 92T60 205Q60 259 82 299T136 368T221 431Q183 481 164 521T144 611Q144 686 192 732T319 779Q395 779 441 736T488
622Q488 528 360 443L320 417Q361 364 420 300T536 185Q577 246 600 326T624 498H702Q702 399 672 306T588 141Q679 71 750 71H784ZM271 712T247 686T222 611Q222 573 235 540T278 468L326 500Q410 554 410 623Q410 664 387 688T319 712Q271 712 247 686ZM138 164T157
129T214 73T306 52Q409 52 489 129Q394 218 261 377Q199 336 169 299T138 206Q138 164 157 129Z" />
<glyph unicode="&apos;" glyph-name="quotesingle" horiz-adv-x="284" d="M106 758H178V456H106V758Z" />
<glyph unicode="(" glyph-name="parenleft" horiz-adv-x="336" d="M162 -48T109 67T56 359Q56 535 109 650T232 847L283 810Q246 760 216 705T161 562T136 359Q136 245 160 157T215 13T283 -92L232 -129Q162 -48 109 67Z" />
<glyph unicode=")" glyph-name="parenright" horiz-adv-x="336" d="M53 -92Q90 -42 120 13T175 156T200 359Q200 473 176 561T121 705T53 810L104 847Q174 766 227 651T280 359Q280 183 227 68T104 -129L53 -92Z" />
<glyph unicode="*" glyph-name="asterisk" horiz-adv-x="618" d="M356 623L541 529L507 470L332 582L343 375H275L286 582L111 470L77 529L263 623L77 718L111 777L286 664L275 872H343L332 664L507 777L541 718L356 623Z" />
<glyph unicode="+" glyph-name="plus" horiz-adv-x="550" d="M483 302H311V129L239 128V302H67V372H239V544L311 545V372H483V302Z" />
<glyph unicode="," glyph-name="comma" horiz-adv-x="284" d="M127 156H207L138 -151H67L127 156Z" />
<glyph unicode="-" glyph-name="hyphen" horiz-adv-x="454" d="M80 332H374V260H80V332Z" />
<glyph unicode="." glyph-name="period" horiz-adv-x="284" d="M100 156H184V0H100V156Z" />
<glyph unicode="/" glyph-name="slash" horiz-adv-x="404" d="M319 931H395L84 -177H8L319 931Z" />
<glyph unicode="0" glyph-name="zero" horiz-adv-x="550" d="M166 -17T113 70T60 336Q60 688 275 688Q380 688 435 599T490 336Q490 160 435 72T275 -17Q166 -17 113 70ZM341 52T376 123T412 341Q412 479 376 549T275 619Q206 619 172 549T138 336Q138 190 172
121T275 52Q341 52 376 123Z" />
<glyph unicode="1" glyph-name="one" horiz-adv-x="550" d="M442 71V0H111V71H239V603H131V674H315V71H442Z" />
<glyph unicode="2" glyph-name="two" horiz-adv-x="550" d="M59 71L76 87Q208 209 268 269T360 381T392 487Q392 551 356 585T256 619Q164 619 84 578V651Q167 688 263 688Q355 688 412 637T470 491Q470 429 439 372T360 263T226 132L161 71H498V0H59V71Z" />
<glyph unicode="3" glyph-name="three" horiz-adv-x="550" d="M417 339T448 294T480 185Q480 92 421 38T259 -17Q162 -17 80 18V91Q117 72 162 62T252 52Q324 52 363 88T402 191Q402 256 359 289T233 323H160V391H233Q311 391 351 420T392 508Q392 561 356 590T254
619Q213 619 170 611T90 584V657Q164 688 259 688Q356 688 413 641T470 514Q470 457 442 419T356 358Q417 339 448 294Z" />
<glyph unicode="4" glyph-name="four" horiz-adv-x="550" d="M535 155H420V-17H344V155H27V224L334 683H420V224H535V155ZM344 224V571L109 224H344Z" />
<glyph unicode="5" glyph-name="five" horiz-adv-x="550" d="M360 431T422 371T485 212Q485 102 420 43T240 -17Q151 -17 77 12V84Q153 52 237 52Q320 52 363 92T407 212Q407 285 363 323T240 362Q200 362 160 354T88 332L95 674H446V603H169L165 423Q205 431
247 431Q360 431 422 371Z" />
<glyph unicode="6" glyph-name="six" horiz-adv-x="550" d="M350 420T398 393T472 317T498 204Q498 138 470 88T394 11T285 -17Q177 -17 118 51T59 243Q59 377 136 489T354 686L400 634Q312 578 252 516T163 381Q221 420 287 420Q350 420 398 393ZM343 50T381
91T420 202Q420 272 381 313T280 354Q200 354 141 300Q137 275 137 240Q138 143 177 97T284 50Q343 50 381 91Z" />
<glyph unicode="7" glyph-name="seven" horiz-adv-x="550" d="M505 674V603L247 -17H163L429 603H76V674H505Z" />
<glyph unicode="8" glyph-name="eight" horiz-adv-x="550" d="M434 328T465 283T497 177Q497 119 468 75T389 7T275 -17Q212 -17 162 7T82 75T53 177Q53 237 84 282T170 351Q126 374 101 415T75 507Q75 558 101 599T172 664T275 688Q331 688 376 665T448 600T475
507Q475 456 449 415T379 351Q434 328 465 283ZM224 621T189 588T153 503Q153 451 188 418T275 385Q327 385 362 418T397 503Q397 554 362 587T275 621Q224 621 189 588ZM337 50T378 85T419 181Q419 241 378 276T275 312Q213 312 172 277T131 181Q131 121 172 86T275
50Q337 50 378 85Z" />
<glyph unicode="9" glyph-name="nine" horiz-adv-x="550" d="M373 688T432 620T491 428Q491 294 414 182T195 -15L150 37Q238 93 297 155T386 290Q331 251 263 251Q200 251 152 278T78 354T52 467Q52 533 79 583T155 660T265 688Q373 688 432 620ZM310 316T345
330T408 371Q413 403 413 431Q412 527 373 574T265 621Q206 621 168 580T130 469Q130 399 169 358T270 316Q310 316 345 330Z" />
<glyph unicode=":" glyph-name="colon" horiz-adv-x="284" d="M100 156H184V0H100V156ZM100 551H184V395H100V551Z" />
<glyph unicode=";" glyph-name="semicolon" horiz-adv-x="284" d="M127 156H207L138 -151H67L127 156ZM100 551H184V395H100V551Z" />
<glyph unicode="&lt;" glyph-name="less" horiz-adv-x="550" d="M152 336L470 149L434 90L67 307V366L435 584L470 523L152 336Z" />
<glyph unicode="=" glyph-name="equal" horiz-adv-x="550" d="M67 472H483V402H67V472ZM67 272H483V202H67V272Z" />
<glyph unicode="&gt;" glyph-name="greater" horiz-adv-x="550" d="M398 336L80 149L116 90L483 307V366L115 584L80 523L398 336Z" />
<glyph unicode="?" glyph-name="question" horiz-adv-x="542" d="M208 272Q208 314 219 343T249 392T300 441L331 467Q362 495 374 518T387 575Q387 636 351 669T253 703Q161 703 79 662V735Q162 772 256 772Q348 772 406 722T465 578Q465 524 445 489T386 420L358
396Q328 369 314 353T292 318T284 269V230H208V272ZM204 154H288V0H204V154Z" />
<glyph unicode="@" glyph-name="at" horiz-adv-x="986" d="M632 158Q625 136 625 117Q625 94 640 84T690 74Q742 74 779 111T836 208T855 337Q855 493 767 577T522 662Q418 662 329 607T185 452T131 228Q131 114 170 29T289 -104T486 -152Q554 -152 615 -134T745
-79L768 -137Q694 -174 629 -193T486 -212Q362 -212 267 -161T118 -10T64 228Q64 372 126 484T293 659T522 722Q644 722 734 675T873 541T922 337Q922 243 892 170T808 55T685 14Q628 14 597 34T560 94Q499 27 428 27Q359 27 319 68T279 189Q279 277 312 350T401
464T524 506Q610 506 646 437L662 490H730L632 158ZM629 379Q588 442 527 442Q476 442 436 406T372 311T348 191Q348 136 368 114T433 91Q472 91 507 115T572 183L629 379Z" />
<glyph unicode="A" glyph-name="A" horiz-adv-x="711" d="M515 237H195L106 0H26L316 767H394L685 0H605L515 237ZM488 308L355 661L222 308H488Z" />
<glyph unicode="B" glyph-name="B" horiz-adv-x="699" d="M626 341T626 204Q626 101 565 51T362 0H113V758H362Q491 758 543 709T596 555Q596 432 491 385Q626 341 626 204ZM190 414H362Q440 414 478 448T517 555Q517 628 483 659T362 691H190V414ZM547 280T501
313T362 347H190V67H362Q464 67 505 100T547 208Q547 280 501 313Z" />
<glyph unicode="C" glyph-name="C" horiz-adv-x="705" d="M307 -17T225 32T103 171T62 378Q62 490 102 579T223 720T426 772Q479 772 520 764T610 735V662Q527 703 427 703Q338 703 273 662T174 546T140 378Q141 281 174 208T272 93T426 52Q481 52 533 67T644
110L670 44Q612 14 548 -1T426 -17Q307 -17 225 32Z" />
<glyph unicode="D" glyph-name="D" horiz-adv-x="795" d="M544 758T636 662T729 378Q729 190 637 95T362 0H113V758H362Q544 758 636 662ZM506 69T578 144T651 381Q651 539 578 614T362 689H190V69H362Q506 69 578 144Z" />
<glyph unicode="E" glyph-name="E" horiz-adv-x="628" d="M568 69V0H113V758H563V689H190V416H513V347H190V69H568Z" />
<glyph unicode="F" glyph-name="F" horiz-adv-x="611" d="M190 687V405H513V334H190V0H113V758H563V687H190Z" />
<glyph unicode="G" glyph-name="G" horiz-adv-x="776" d="M687 463V53Q627 19 557 1T426 -17Q308 -17 226 32T103 171T62 378Q62 490 101 579T223 720T426 772Q492 772 537 760T640 722V646Q589 674 540 688T426 703Q337 703 273 662T174 548T140 381Q140 283
173 209T271 94T426 52Q473 52 518 63T611 96V392H305V463H687Z" />
<glyph unicode="H" glyph-name="H" horiz-adv-x="782" d="M669 758V0H592V346H190V0H113V758H190V416H592V758H669Z" />
<glyph unicode="I" glyph-name="I" horiz-adv-x="303" d="M113 758H190V0H113V758Z" />
<glyph unicode="J" glyph-name="J" horiz-adv-x="308" d="M32 -98T9 -93V-23Q29 -27 57 -27Q82 -27 94 -19T112 13T118 83V758H195V77Q195 6 183 -31T143 -83T59 -98Q32 -98 9 -93Z" />
<glyph unicode="K" glyph-name="K" horiz-adv-x="674" d="M246 359L190 302V0H113V758H190V404L534 758H632L300 415L637 0H537L246 359Z" />
<glyph unicode="L" glyph-name="L" horiz-adv-x="558" d="M518 71V0H113V758H190V71H518Z" />
<glyph unicode="M" glyph-name="M" horiz-adv-x="913" d="M800 758V0H723V638L477 297H436L190 638V0H113V758H195L457 395L719 758H800Z" />
<glyph unicode="N" glyph-name="N" horiz-adv-x="782" d="M669 758V0H589L190 625V0H113V758H194L592 133V758H669Z" />
<glyph unicode="O" glyph-name="O" horiz-adv-x="832" d="M302 -17T222 34T102 175T62 378Q62 489 102 578T222 719T417 772Q530 772 610 720T730 578T771 378Q771 265 731 176T610 35T417 -17Q302 -17 222 34ZM503 52T565 95T659 213T692 381Q692 471 660 544T565
660T417 703Q329 703 267 660T173 543T141 378Q141 285 172 211T266 95T417 52Q503 52 565 95Z" />
<glyph unicode="P" glyph-name="P" horiz-adv-x="651" d="M606 758T606 538Q606 432 547 377T369 321H190V0H113V758H369Q606 758 606 538ZM527 618T488 653T369 689H190V389H369Q527 389 527 541Q527 618 488 653Z" />
<glyph unicode="Q" glyph-name="Q" horiz-adv-x="832" d="M771 279T740 198T648 63L760 -64H665L590 23Q516 -17 417 -17Q302 -17 222 34T102 175T62 378Q62 489 102 578T222 719T417 772Q530 772 610 720T730 578T771 378Q771 279 740 198ZM141 285T172 211T266
95T417 52Q485 52 541 80L406 237H497L597 122Q643 166 667 233T692 381Q692 471 660 544T565 660T417 703Q329 703 267 660T173 543T141 378Q141 285 172 211Z" />
<glyph unicode="R" glyph-name="R" horiz-adv-x="698" d="M352 332H190V0H113V758H369Q606 758 606 544Q606 456 564 404T435 337L644 0H556L352 332ZM190 401H369Q527 401 527 547Q527 621 488 655T369 689H190V401Z" />
<glyph unicode="S" glyph-name="S" horiz-adv-x="636" d="M176 -17T64 37V110Q175 52 318 52Q407 52 448 90T491 191Q491 250 452 280T343 331L275 350Q218 367 178 388T111 451T84 558Q84 663 144 717T315 772Q380 772 430 760T532 723V651Q431 703 315 703Q237
703 200 665T162 560Q163 500 198 471T304 422L373 403Q433 387 475 364T543 300T569 192Q568 95 502 39T318 -17Q176 -17 64 37Z" />
<glyph unicode="T" glyph-name="T" horiz-adv-x="624" d="M584 687H350V0H274V687H40V758H584V687Z" />
<glyph unicode="U" glyph-name="U" horiz-adv-x="775" d="M248 -17T179 54T109 256V758H186V256Q186 155 236 104T388 52Q488 52 538 103T589 256V758H666V256Q666 125 597 54T388 -17Q248 -17 179 54Z" />
<glyph unicode="V" glyph-name="V" horiz-adv-x="727" d="M693 758L403 -9H325L34 758H115L364 98L612 758H693Z" />
<glyph unicode="W" glyph-name="W" horiz-adv-x="1073" d="M1036 758L809 -9H731L537 638L343 -9H265L38 758H117L304 106L494 758H579L770 105L956 758H1036Z" />
<glyph unicode="X" glyph-name="X" horiz-adv-x="724" d="M590 0L364 336L137 0H46L315 390L64 758H154L364 446L574 758H664L413 390L681 0H590Z" />
<glyph unicode="Y" glyph-name="Y" horiz-adv-x="708" d="M392 293V0H316V293L33 758H113L354 358L596 758H676L392 293Z" />
<glyph unicode="Z" glyph-name="Z" horiz-adv-x="713" d="M636 71V0H80V69L511 687H93V758H603V689L173 71H636Z" />
<glyph unicode="[" glyph-name="bracketleft" horiz-adv-x="327" d="M272 -58V-129H110V847H267V776H186V-58H272Z" />
<glyph unicode="\" glyph-name="backslash" horiz-adv-x="404" d="M8 931H84L395 -177H319L8 931Z" />
<glyph unicode="]" glyph-name="bracketright" horiz-adv-x="327" d="M217 -129H56V-58H141V776H59V847H217V-129Z" />
<glyph unicode="^" glyph-name="asciicircum" horiz-adv-x="550" d="M462 133L275 451L88 133L28 170L246 536H304L522 168L462 133Z" />
<glyph unicode="_" glyph-name="underscore" horiz-adv-x="500" d="M0 -77H500V-148H0V-77Z" />
<glyph unicode="`" glyph-name="grave" horiz-adv-x="649" d="M181 809H271L377 656H302L181 809Z" />
<glyph unicode="a" glyph-name="a" horiz-adv-x="514" d="M335 549T377 520T434 441T449 316V0H375V57Q335 20 297 4T214 -13Q165 -13 124 9T59 74T34 174Q34 264 90 313T240 363Q274 363 309 355T375 330Q374 384 364 416T325 465T238 483H174V549H253Q335 549
377 520ZM299 54T375 123V267Q318 297 247 297Q189 297 150 269T110 174Q110 111 143 83T220 54Q299 54 375 123Z" />
<glyph unicode="b" glyph-name="b" horiz-adv-x="634" d="M441 565T507 491T573 274Q573 132 507 58T331 -17Q250 -17 169 54V0H95V846H169V495Q249 565 331 565Q441 565 507 491ZM410 54T453 110T496 274Q496 382 453 438T325 495Q247 495 169 427V121Q246 54
325 54Q410 54 453 110Z" />
<glyph unicode="c" glyph-name="c" horiz-adv-x="546" d="M198 -16T130 63T62 276Q62 409 130 487T325 565Q368 565 400 559T468 538V464Q431 481 399 488T328 495Q229 494 184 435T139 277Q139 176 183 116T327 54Q401 54 486 95L511 30Q422 -17 325 -17Q198
-16 130 63Z" />
<glyph unicode="d" glyph-name="d" horiz-adv-x="634" d="M539 846V0H465V54Q384 -17 303 -17Q193 -17 128 57T62 275Q62 417 127 491T303 565Q385 565 465 495V846H539ZM388 54T465 121V427Q387 495 310 495Q226 495 183 439T139 275Q139 166 182 110T310 54Q388
54 465 121Z" />
<glyph unicode="e" glyph-name="e" horiz-adv-x="578" d="M139 277Q139 176 185 114T332 52Q405 52 494 93L518 29Q430 -17 328 -17Q201 -17 132 63T62 276Q62 368 94 433T181 531T306 565Q411 565 471 499T532 308V279H139V277ZM241 496T199 459T144 346H454Q448
423 412 459T306 496Q241 496 199 459Z" />
<glyph unicode="f" glyph-name="f" horiz-adv-x="316" d="M207 788T194 774T181 718V549H291V479H181V0H107V479H39V549H107V733Q107 803 137 831T239 859Q263 859 291 853V784Q271 788 243 788Q207 788 194 774Z" />
<glyph unicode="g" glyph-name="g" horiz-adv-x="614" d="M539 549V-15Q539 -89 520 -140T451 -221T309 -251Q250 -251 208 -243T117 -215V-138Q160 -158 204 -169T287 -180Q365 -180 403 -160T453 -104T465 -5V74Q382 3 303 3Q231 3 177 35T92 131T61 285Q61
422 127 493T303 565Q383 565 465 495V549H539ZM388 74T465 141V427Q387 495 309 495Q226 495 182 439T138 285Q138 184 181 129T309 74Q388 74 465 141Z" />
<glyph unicode="h" glyph-name="h" horiz-adv-x="625" d="M440 561T487 509T535 332V0H461V332Q461 419 433 455T334 491Q250 491 169 418V0H95V846H169V487Q208 522 252 541T340 561Q440 561 487 509Z" />
<glyph unicode="i" glyph-name="i" horiz-adv-x="264" d="M95 808H169V657H95V808ZM95 549H169V0H95V549Z" />
<glyph unicode="j" glyph-name="j" horiz-adv-x="264" d="M95 808H169V657H95V808ZM13 -251T-15 -245V-176Q5 -180 33 -180Q58 -180 71 -172T89 -142T95 -76V550H169V-92Q169 -154 157 -188T117 -236T37 -251Q13 -251 -15 -245Z" />
<glyph unicode="k" glyph-name="k" horiz-adv-x="565" d="M233 272L169 207V0H95V846H169V303L408 546H502L284 324L539 0H447L233 272Z" />
<glyph unicode="l" glyph-name="l" horiz-adv-x="304" d="M155 -13T125 15T95 113V846H169V129Q169 88 182 73T231 58Q259 58 279 62V-7Q250 -13 227 -13Q155 -13 125 15Z" />
<glyph unicode="m" glyph-name="m" horiz-adv-x="964" d="M801 561T848 509T895 332V0H821V332Q821 419 793 455T695 491Q609 491 527 407Q532 370 532 332V0H458V332Q458 419 430 455T332 491Q249 491 169 418V0H95V549H169V487Q207 521 251 541T339 561Q405
561 447 539T511 466Q553 510 602 535T702 561Q801 561 848 509Z" />
<glyph unicode="n" glyph-name="n" horiz-adv-x="625" d="M440 561T487 509T535 332V0H461V332Q461 419 433 455T334 491Q250 491 169 418V0H95V549H169V487Q208 522 252 541T340 561Q440 561 487 509Z" />
<glyph unicode="o" glyph-name="o" horiz-adv-x="653" d="M241 -17T182 21T92 126T62 275Q62 357 92 423T181 527T327 565Q413 565 472 527T562 423T592 275Q592 192 562 126T473 22T327 -17Q241 -17 182 21ZM416 53T465 115T515 275Q515 372 466 434T327 496Q238
496 189 434T139 275Q139 177 188 115T327 53Q416 53 465 115Z" />
<glyph unicode="p" glyph-name="p" horiz-adv-x="634" d="M441 565T507 491T573 274Q573 132 507 58T331 -17Q250 -17 169 54V-234H95V549H169V495Q249 565 331 565Q441 565 507 491ZM410 54T453 110T496 274Q496 382 453 438T325 495Q247 495 169 427V121Q246
54 325 54Q410 54 453 110Z" />
<glyph unicode="q" glyph-name="q" horiz-adv-x="634" d="M539 549V-234H465V54Q384 -17 303 -17Q193 -17 128 57T62 275Q62 417 127 491T303 565Q385 565 465 495V549H539ZM388 54T465 121V427Q387 495 310 495Q226 495 183 439T139 275Q139 166 182 110T310
54Q388 54 465 121Z" />
<glyph unicode="r" glyph-name="r" horiz-adv-x="393" d="M363 561V491H340Q252 491 169 417V0H95V549H169V485Q208 521 252 541T340 561H363Z" />
<glyph unicode="s" glyph-name="s" horiz-adv-x="501" d="M194 -17T149 -7T54 26V104Q145 52 252 52Q312 52 339 78T367 145Q367 186 345 205T273 238L215 253Q148 270 109 305T69 414Q69 484 115 524T250 565Q299 565 338 556T417 529V456Q377 475 340 485T252
496Q195 496 170 473T145 415Q145 375 168 356T236 324L294 309Q342 296 373 280T424 231T443 146Q443 68 391 26T252 -17Q194 -17 149 -7Z" />
<glyph unicode="t" glyph-name="t" horiz-adv-x="356" d="M183 475V129Q183 88 196 73T245 58Q275 58 310 66V-4Q273 -13 237 -13Q187 -13 160 0T121 41T109 118V475H39V546H109V736H183V546H311V475H183Z" />
<glyph unicode="u" glyph-name="u" horiz-adv-x="625" d="M530 549V0H456V63Q418 28 374 8T285 -12Q185 -12 138 41T90 218V549H164V218Q164 131 192 95T292 59Q376 59 456 132V549H530Z" />
<glyph unicode="v" glyph-name="v" d="M532 549L315 -9H237L20 549H98L276 85L454 549H532Z" />
<glyph unicode="w" glyph-name="w" horiz-adv-x="837" d="M815 549L639 -9H564L419 437L274 -9H199L22 549H100L236 96L377 549H460L601 96L737 549H815Z" />
<glyph unicode="x" glyph-name="x" horiz-adv-x="571" d="M442 0L282 228L129 0H38L236 287L48 549H139L286 339L435 549H524L331 280L533 0H442Z" />
<glyph unicode="y" glyph-name="y" horiz-adv-x="545" d="M525 549L275 -89Q247 -160 229 -192T185 -237T111 -251Q86 -251 61 -245V-176Q82 -180 110 -180Q133 -180 147 -171T174 -141T204 -74L234 3L20 549H98L272 100L449 549H525Z" />
<glyph unicode="z" glyph-name="z" horiz-adv-x="527" d="M470 69V0H67V69L365 481H85V549H448V481L150 69H470Z" />
<glyph unicode="{" glyph-name="braceleft" horiz-adv-x="338" d="M194 431T180 401T125 359Q164 346 179 316T194 219V15Q194 -28 207 -43T255 -58Q281 -58 301 -54V-125Q278 -129 255 -129Q205 -129 176 -118T132 -78T118 0V214Q118 260 113 283T96 315T58 324H43V394H58Q83
394 95 402T113 434T118 504V718Q118 768 132 796T175 835T255 847Q278 847 301 843V772Q281 776 255 776Q220 776 207 761T194 703V499Q194 431 180 401Z" />
<glyph unicode="|" glyph-name="bar" horiz-adv-x="303" d="M113 847H189V-129H113V847Z" />
<glyph unicode="}" glyph-name="braceright" horiz-adv-x="324" d="M130 431T144 401T199 359Q160 346 145 316T130 219V15Q130 -28 117 -43T69 -58Q43 -58 23 -54V-125Q46 -129 69 -129Q119 -129 148 -118T192 -78T206 0V214Q206 260 211 283T228 315T266 324H281V394H266Q241
394 229 402T211 434T206 504V718Q206 768 192 796T149 835T69 847Q46 847 23 843V772Q43 776 69 776Q104 776 117 761T130 703V499Q130 431 144 401Z" />
<glyph unicode="~" glyph-name="asciitilde" horiz-adv-x="550" d="M336 272T313 284T261 320Q238 339 223 348T188 357Q158 357 135 341T77 291L42 337Q78 379 110 401T187 424Q222 424 245 412T298 376Q319 359 334 351T368 342Q399 342 421 355T474 396L508
352Q474 314 442 293T369 272Q336 272 313 284Z" />
<glyph unicode="&#xa0;" glyph-name="uni00A0" horiz-adv-x="220" />
<glyph unicode="&#xa1;" glyph-name="exclamdown" horiz-adv-x="284" d="M100 758H184V604H100V758ZM110 528H174L188 0H96L110 528Z" />
<glyph unicode="&#xa2;" glyph-name="cent" horiz-adv-x="550" d="M443 -7T364 -15V-96H293V-15Q182 -4 122 73T62 274Q62 396 122 472T293 560V641H364V561Q413 557 472 535V460Q420 485 364 490V56Q424 63 490 95L515 30Q443 -7 364 -15ZM139 185T176 127T293
56V489Q213 477 176 420T139 275Q139 185 176 127Z" />
<glyph unicode="&#xa3;" glyph-name="sterling" horiz-adv-x="550" d="M505 71V0H45V71H140V316H75V386H140V492Q140 568 158 610T216 670T328 688Q355 688 384 684T434 670V596Q408 609 383 613T329 617Q283 617 259 606T224 568T214 488V386H386V316H214V71H505Z" />
<glyph unicode="&#xa4;" glyph-name="currency" horiz-adv-x="550" d="M43 143L124 226Q87 274 87 336Q87 396 122 444L40 527L82 570L165 487Q215 521 272 521Q334 521 385 483L468 565L510 522L426 438Q458 390 458 336Q458 276 423 228L506 146L462 103L380
186Q331 151 272 151Q214 151 168 184L85 100L43 143ZM305 209T333 226T377 272T394 336Q394 370 378 399T333 446T272 463Q222 463 187 426T151 336Q151 283 186 246T272 209Q305 209 333 226Z" />
<glyph unicode="&#xa5;" glyph-name="yen" horiz-adv-x="550" d="M346 348H460V282H313V193H460V127H313V0H237V127H90V193H237V282H90V348H204L9 674H88L275 356L463 674H542L346 348Z" />
<glyph unicode="&#xa6;" glyph-name="brokenbar" horiz-adv-x="303" d="M113 847H189V471H113V847ZM113 247H189V-129H113V247Z" />
<glyph unicode="&#xa7;" glyph-name="section" horiz-adv-x="550" d="M503 249T474 217T390 163Q459 121 459 42Q458 -25 407 -63T267 -101Q219 -101 180 -95T102 -72V1Q175 -34 267 -34Q327 -34 355 -13T384 43Q384 78 358 98T284 131L223 148Q166 164 129 182T69
231T46 310Q46 398 157 437Q129 456 114 483T99 550Q99 619 146 653T280 688Q330 688 368 680T446 652V581Q404 602 366 611T280 621Q228 621 201 602T174 549Q174 514 197 497T264 468L325 451Q406 429 454 395T504 298Q503 249 474 217ZM371 208T400 233T429
294Q429 327 396 347T301 384L242 401Q234 403 228 405Q121 381 121 313Q121 286 133 270T171 242T247 215L306 199L317 195Q371 208 400 233Z" />
<glyph unicode="&#xa8;" glyph-name="dieresis" horiz-adv-x="649" d="M389 791H460V674H389V791ZM190 791H260V674H190V791Z" />
<glyph unicode="&#xa9;" glyph-name="copyright" horiz-adv-x="935" d="M358 -17T266 34T121 176T67 378Q67 484 121 574T267 718T468 772Q575 772 667 719T813 575T868 378Q868 267 814 177T668 35T468 -17Q358 -17 266 34ZM556 45T632 89T753 209T799 380Q799
468 753 544T631 665T468 710Q378 710 302 665T181 544T136 378Q136 284 180 208T301 89T468 45Q556 45 632 89ZM404 155T358 184T288 265T264 378Q264 475 316 537T471 600Q502 600 525 596T575 580V512Q530 536 471 536Q409 536 372 493T335 381Q335 305 370
263T471 220Q501 220 529 227T589 248L609 190Q576 173 540 164T471 155Q404 155 358 184Z" />
<glyph unicode="&#xaa;" glyph-name="ordfeminine" horiz-adv-x="397" d="M253 679T285 658T328 600T339 508V284H275V320Q226 275 165 275Q110 275 71 311T31 408Q31 472 73 508T183 544Q228 544 275 523Q273 573 255 596T182 619H129V679H193Q253 679 285 658ZM223
335T275 378V466Q237 483 189 483Q151 483 125 466T98 409Q98 372 121 354T171 335Q223 335 275 378Z" />
<glyph unicode="&#xab;" glyph-name="guillemotleft" horiz-adv-x="741" d="M436 270L622 82L572 34L366 242V298L572 506L622 458L436 270ZM185 270L371 82L321 34L115 242V298L321 506L371 458L185 270Z" />
<glyph unicode="&#xac;" glyph-name="logicalnot" horiz-adv-x="550" d="M483 372V129L410 128V302H67V372H483Z" />
<glyph unicode="&#xae;" glyph-name="registered" horiz-adv-x="721" d="M439 769T505 730T611 625T650 483Q650 402 611 337T506 234T361 196Q281 196 215 233T110 336T71 483Q71 559 110 625T215 730T361 769Q439 769 505 730ZM424 250T477 280T562 365T594
485Q594 546 562 599T476 683T361 715Q298 715 244 684T159 599T127 483Q127 417 158 364T243 280T361 250Q424 250 477 280ZM474 466T419 447L488 338H427L364 441H313V338H260V628H370Q423 628 448 606T474 535Q474 466 419 447ZM313 489H368Q397 489 408 499T419
535Q419 560 408 570T368 580H313V489Z" />
<glyph unicode="&#xaf;" glyph-name="overscore" horiz-adv-x="649" d="M170 762H479V704H170V762Z" />
<glyph unicode="&#xb0;" glyph-name="degree" horiz-adv-x="473" d="M184 306T140 332T70 402T44 499Q44 552 70 596T140 665T237 691Q290 691 334 666T403 596T429 499Q429 446 404 402T334 332T237 306Q184 306 140 332ZM290 371T324 408T358 499Q358 553 324
589T237 626Q184 626 150 589T115 499Q115 446 149 409T237 371Q290 371 324 408Z" />
<glyph unicode="&#xb1;" glyph-name="plusminus" horiz-adv-x="550" d="M483 302H311V129L239 128V302H67V372H239V544L311 545V372H483V302ZM67 62H483V-8H67V62Z" />
<glyph unicode="&#xb2;" glyph-name="uni00B2" horiz-adv-x="390" d="M44 193Q132 291 180 349T252 453T276 538Q276 579 253 601T186 623Q121 623 61 593V656Q122 683 186 683Q258 683 300 646T342 540Q342 493 315 442T249 341T139 214L120 193H356V131H44V193Z" />
<glyph unicode="&#xb3;" glyph-name="uni00B3" horiz-adv-x="390" d="M296 400T320 365T345 285Q345 206 298 163T170 120Q107 120 54 140V203Q108 180 168 180Q217 180 247 207T278 287Q278 335 245 360T149 386H111V448H149Q209 448 240 472T271 542Q271 580
245 601T170 623Q112 623 61 603V665Q112 683 170 683Q253 683 295 646T338 542Q338 455 249 417Q296 400 320 365Z" />
<glyph unicode="&#xb4;" glyph-name="acute" horiz-adv-x="649" d="M380 809H470L349 656H274L380 809Z" />
<glyph unicode="&#xb6;" glyph-name="paragraph" horiz-adv-x="668" d="M309 317H280Q164 317 106 373T48 537Q48 758 280 758H555V-100H482V689H381V-100H309V317Z" />
<glyph unicode="&#xb7;" glyph-name="middot" horiz-adv-x="284" d="M100 418H184V262H100V418Z" />
<glyph unicode="&#xb8;" glyph-name="cedilla" horiz-adv-x="649" d="M398 -67T426 -93T455 -162Q455 -208 423 -235T329 -263Q277 -263 234 -243V-187Q280 -208 326 -208Q359 -208 375 -195T392 -163Q392 -121 336 -121Q299 -121 253 -137L294 1H355L334 -68L346
-67Q398 -67 426 -93Z" />
<glyph unicode="&#xb9;" glyph-name="uni00B9" horiz-adv-x="390" d="M310 193V131H80V193H163V611H94V673H227V193H310Z" />
<glyph unicode="&#xba;" glyph-name="ordmasculine" horiz-adv-x="517" d="M198 275T154 302T86 378T62 485Q62 543 85 590T153 665T259 693Q320 693 364 666T432 591T455 485Q455 426 432 378T365 303T259 275Q198 275 154 302ZM324 339T355 380T387 485Q387
548 356 588T259 629Q194 629 162 589T130 485Q130 421 162 380T259 339Q324 339 355 380Z" />
<glyph unicode="&#xbb;" glyph-name="guillemotright" horiz-adv-x="741" d="M305 270L119 82L169 34L375 242V298L169 506L119 458L305 270ZM556 270L370 82L420 34L626 242V298L420 506L370 458L556 270Z" />
<glyph unicode="&#xbc;" glyph-name="onequarter" horiz-adv-x="995" d="M310 193V131H80V193H163V611H94V673H227V193H310ZM708 773H780L363 -33H291L708 773ZM985 155H913V22H849V155H623V215L852 573H913V215H985V155ZM849 215V466L687 215H849Z" />
<glyph unicode="&#xbd;" glyph-name="onehalf" horiz-adv-x="1052" d="M310 193V131H80V193H163V611H94V673H227V193H310ZM708 773H780L363 -33H291L708 773ZM706 84Q794 182 842 240T914 344T938 429Q938 470 915 492T848 514Q783 514 723 484V547Q784 574 848
574Q920 574 962 537T1004 431Q1004 384 977 333T911 232T801 105L782 84H1018V22H706V84Z" />
<glyph unicode="&#xbe;" glyph-name="threequarters" horiz-adv-x="991" d="M296 400T320 365T345 285Q345 206 298 163T170 120Q107 120 54 140V203Q108 180 168 180Q217 180 247 207T278 287Q278 335 245 360T149 386H111V448H149Q209 448 240 472T271 542Q271
580 245 601T170 623Q112 623 61 603V665Q112 683 170 683Q253 683 295 646T338 542Q338 455 249 417Q296 400 320 365ZM703 773H775L358 -33H286L703 773ZM981 155H909V22H845V155H619V215L848 573H909V215H981V155ZM845 215V466L683 215H845Z" />
<glyph unicode="&#xbf;" glyph-name="questiondown" horiz-adv-x="542" d="M307 632H285V730H307V632ZM194 -14T136 36T77 180Q77 234 97 269T156 339L184 363Q214 390 228 405T250 440T258 489V528H334V486Q334 444 323 416T294 367T242 317L211 291Q180 263
168 240T155 183Q155 122 191 89T289 55Q381 55 463 96V23Q380 -14 286 -14Q194 -14 136 36Z" />
<glyph unicode="&#xc0;" glyph-name="Agrave" horiz-adv-x="711" d="M515 237H195L106 0H26L316 767H394L685 0H605L515 237ZM488 308L355 661L222 308H488ZM467 989H556L663 836H588L467 989Z" />
<glyph unicode="&#xc1;" glyph-name="Aacute" horiz-adv-x="711" d="M515 237H195L106 0H26L316 767H394L685 0H605L515 237ZM488 308L355 661L222 308H488ZM676 989H766L645 836H570L676 989Z" />
<glyph unicode="&#xc2;" glyph-name="Acircumflex" horiz-adv-x="711" d="M515 237H195L106 0H26L316 767H394L685 0H605L515 237ZM488 308L355 661L222 308H488ZM684 836L611 947L537 836H452L568 989H653L769 836H684Z" />
<glyph unicode="&#xc3;" glyph-name="Atilde" horiz-adv-x="711" d="M515 237H195L106 0H26L316 767H394L685 0H605L515 237ZM488 308L355 661L222 308H488ZM463 913T485 937T540 961Q569 961 599 946L636 927Q656 917 668 917Q698 917 698 961H759Q758 906 736
882T681 858Q653 858 623 873L586 892Q564 902 553 902Q523 902 523 858H462Q463 913 485 937Z" />
<glyph unicode="&#xc4;" glyph-name="Adieresis" horiz-adv-x="711" d="M515 237H195L106 0H26L316 767H394L685 0H605L515 237ZM488 308L355 661L222 308H488ZM675 971H746V854H675V971ZM476 971H546V854H476V971Z" />
<glyph unicode="&#xc5;" glyph-name="Aring" horiz-adv-x="711" d="M515 237H195L106 0H26L316 767H394L685 0H605L515 237ZM488 308L355 661L222 308H488ZM568 820T541 846T513 912Q513 952 540 977T611 1003Q654 1003 681 977T708 912Q708 872 681 846T611 820Q568
820 541 846ZM632 863T645 876T659 912Q659 934 646 947T611 961Q590 961 576 948T562 912Q562 890 576 877T611 863Q632 863 645 876Z" />
<glyph unicode="&#xc6;" glyph-name="AE" horiz-adv-x="1070" d="M1010 69V0H556V246H274L118 0H33L519 758H1005V689H633V416H955V347H633V69H1010ZM556 315V690L318 315H556Z" />
<glyph unicode="&#xc7;" glyph-name="Ccedilla" horiz-adv-x="705" d="M496 -67T524 -93T553 -162Q553 -208 521 -235T428 -263Q375 -263 332 -243V-187Q378 -208 424 -208Q458 -208 474 -195T490 -163Q490 -121 434 -121Q399 -121 351 -137L388 -16Q229 -4 146
102T62 378Q62 490 102 579T223 720T426 772Q479 772 520 764T610 735V662Q527 703 427 703Q338 703 273 662T174 546T140 378Q141 281 174 208T272 93T426 52Q481 52 533 67T644 110L670 44Q617 17 560 2T449 -16L433 -68Q436 -67 444 -67Q496 -67 524 -93Z" />
<glyph unicode="&#xc8;" glyph-name="Egrave" horiz-adv-x="628" d="M568 69V0H113V758H563V689H190V416H513V347H190V69H568ZM448 989H537L644 836H569L448 989Z" />
<glyph unicode="&#xc9;" glyph-name="Eacute" horiz-adv-x="628" d="M568 69V0H113V758H563V689H190V416H513V347H190V69H568ZM658 989H748L627 836H552L658 989Z" />
<glyph unicode="&#xca;" glyph-name="Ecircumflex" horiz-adv-x="628" d="M568 69V0H113V758H563V689H190V416H513V347H190V69H568ZM665 836L592 947L518 836H433L549 989H634L750 836H665Z" />
<glyph unicode="&#xcb;" glyph-name="Edieresis" horiz-adv-x="628" d="M568 69V0H113V758H563V689H190V416H513V347H190V69H568ZM657 971H728V854H657V971ZM458 971H528V854H458V971Z" />
<glyph unicode="&#xcc;" glyph-name="Igrave" horiz-adv-x="303" d="M113 758H190V0H113V758ZM7 989H96L203 836H128L7 989Z" />
<glyph unicode="&#xcd;" glyph-name="Iacute" horiz-adv-x="303" d="M113 758H190V0H113V758ZM217 989H307L186 836H111L217 989Z" />
<glyph unicode="&#xce;" glyph-name="Icircumflex" horiz-adv-x="303" d="M113 758H190V0H113V758ZM225 836L152 947L78 836H-7L109 989H194L310 836H225Z" />
<glyph unicode="&#xcf;" glyph-name="Idieresis" horiz-adv-x="303" d="M113 758H190V0H113V758ZM216 971H287V854H216V971ZM17 971H87V854H17V971Z" />
<glyph unicode="&#xd0;" glyph-name="Eth" horiz-adv-x="795" d="M544 758T636 662T729 378Q729 190 637 95T362 0H113V349H24V413H113V758H362Q544 758 636 662ZM506 69T578 144T651 381Q651 539 578 614T362 689H190V413H386V349H190V69H362Q506 69 578 144Z" />
<glyph unicode="&#xd1;" glyph-name="Ntilde" horiz-adv-x="782" d="M669 758V0H589L190 625V0H113V758H194L592 133V758H669ZM256 913T278 937T333 961Q362 961 392 946L429 927Q449 917 461 917Q491 917 491 961H552Q551 906 529 882T474 858Q446 858 416 873L379
892Q357 902 346 902Q316 902 316 858H255Q256 913 278 937Z" />
<glyph unicode="&#xd2;" glyph-name="Ograve" horiz-adv-x="832" d="M302 -17T222 34T102 175T62 378Q62 489 102 578T222 719T417 772Q530 772 610 720T730 578T771 378Q771 265 731 176T610 35T417 -17Q302 -17 222 34ZM503 52T565 95T659 213T692 381Q692 471
660 544T565 660T417 703Q329 703 267 660T173 543T141 378Q141 285 172 211T266 95T417 52Q503 52 565 95ZM272 989H361L468 836H393L272 989Z" />
<glyph unicode="&#xd3;" glyph-name="Oacute" horiz-adv-x="832" d="M302 -17T222 34T102 175T62 378Q62 489 102 578T222 719T417 772Q530 772 610 720T730 578T771 378Q771 265 731 176T610 35T417 -17Q302 -17 222 34ZM503 52T565 95T659 213T692 381Q692 471
660 544T565 660T417 703Q329 703 267 660T173 543T141 378Q141 285 172 211T266 95T417 52Q503 52 565 95ZM482 989H572L451 836H376L482 989Z" />
<glyph unicode="&#xd4;" glyph-name="Ocircumflex" horiz-adv-x="832" d="M302 -17T222 34T102 175T62 378Q62 489 102 578T222 719T417 772Q530 772 610 720T730 578T771 378Q771 265 731 176T610 35T417 -17Q302 -17 222 34ZM503 52T565 95T659 213T692 381Q692
471 660 544T565 660T417 703Q329 703 267 660T173 543T141 378Q141 285 172 211T266 95T417 52Q503 52 565 95ZM490 836L417 947L343 836H258L374 989H459L575 836H490Z" />
<glyph unicode="&#xd5;" glyph-name="Otilde" horiz-adv-x="832" d="M302 -17T222 34T102 175T62 378Q62 489 102 578T222 719T417 772Q530 772 610 720T730 578T771 378Q771 265 731 176T610 35T417 -17Q302 -17 222 34ZM503 52T565 95T659 213T692 381Q692 471
660 544T565 660T417 703Q329 703 267 660T173 543T141 378Q141 285 172 211T266 95T417 52Q503 52 565 95ZM269 913T291 937T346 961Q375 961 405 946L442 927Q462 917 474 917Q504 917 504 961H565Q564 906 542 882T487 858Q459 858 429 873L392 892Q370 902
359 902Q329 902 329 858H268Q269 913 291 937Z" />
<glyph unicode="&#xd6;" glyph-name="Odieresis" horiz-adv-x="832" d="M302 -17T222 34T102 175T62 378Q62 489 102 578T222 719T417 772Q530 772 610 720T730 578T771 378Q771 265 731 176T610 35T417 -17Q302 -17 222 34ZM503 52T565 95T659 213T692 381Q692
471 660 544T565 660T417 703Q329 703 267 660T173 543T141 378Q141 285 172 211T266 95T417 52Q503 52 565 95ZM481 971H552V854H481V971ZM282 971H352V854H282V971Z" />
<glyph unicode="&#xd8;" glyph-name="Oslash" horiz-adv-x="832" d="M707 620Q771 518 771 378Q771 265 731 176T610 35T417 -17Q258 -17 163 83L77 -2L30 43L123 135Q62 235 62 378Q62 489 102 578T222 719T417 772Q496 772 559 746T667 672L757 760L803 714L707
620ZM141 271T181 192L612 618Q577 659 528 681T417 703Q329 703 267 660T173 543T141 378Q141 271 181 192ZM692 485T650 563L218 137Q292 52 417 52Q503 52 565 94T659 211T692 378Q692 485 650 563Z" />
<glyph unicode="&#xd9;" glyph-name="Ugrave" horiz-adv-x="775" d="M248 -17T179 54T109 256V758H186V256Q186 155 236 104T388 52Q488 52 538 103T589 256V758H666V256Q666 125 597 54T388 -17Q248 -17 179 54ZM499 989H588L695 836H620L499 989Z" />
<glyph unicode="&#xda;" glyph-name="Uacute" horiz-adv-x="775" d="M248 -17T179 54T109 256V758H186V256Q186 155 236 104T388 52Q488 52 538 103T589 256V758H666V256Q666 125 597 54T388 -17Q248 -17 179 54ZM709 989H799L678 836H603L709 989Z" />
<glyph unicode="&#xdb;" glyph-name="Ucircumflex" horiz-adv-x="775" d="M248 -17T179 54T109 256V758H186V256Q186 155 236 104T388 52Q488 52 538 103T589 256V758H666V256Q666 125 597 54T388 -17Q248 -17 179 54ZM716 836L643 947L569 836H484L600 989H685L801
836H716Z" />
<glyph unicode="&#xdc;" glyph-name="Udieresis" horiz-adv-x="775" d="M708 971H779V854H708V971ZM509 971H579V854H509V971ZM248 -17T179 54T109 256V758H186V256Q186 155 236 104T388 52Q488 52 538 103T589 256V758H666V256Q666 125 597 54T388 -17Q248 -17 179 54Z" />
<glyph unicode="&#xdd;" glyph-name="Yacute" horiz-adv-x="708" d="M392 293V0H316V293L33 758H113L354 358L596 758H676L392 293ZM675 989H765L644 836H569L675 989Z" />
<glyph unicode="&#xde;" glyph-name="Thorn" horiz-adv-x="642" d="M606 603T606 383Q606 277 547 222T369 166H190V0H113V758H190V603H369Q606 603 606 383ZM527 463T488 498T369 534H190V234H369Q527 234 527 386Q527 463 488 498Z" />
<glyph unicode="&#xdf;" glyph-name="germandbls" horiz-adv-x="609" d="M347 -17T319 -12T259 8V80Q296 64 321 58T374 52Q489 52 490 147Q490 187 465 208T388 253Q346 273 321 289T277 335T259 410Q259 450 272 479T312 544Q340 584 353 614T367 688Q367 740
343 764T270 788Q216 788 193 764T169 681V0H95V681Q95 777 139 818T275 859Q353 859 397 816T441 690Q441 629 424 590T376 504Q354 473 345 453T335 410Q335 378 357 359T429 315Q473 293 500 275T546 225T566 147Q563 65 514 24T379 -17Q347 -17 319 -12Z" />
<glyph unicode="&#xe0;" glyph-name="agrave" horiz-adv-x="514" d="M335 549T377 520T434 441T449 316V0H375V57Q335 20 297 4T214 -13Q165 -13 124 9T59 74T34 174Q34 264 90 313T240 363Q274 363 309 355T375 330Q374 384 364 416T325 465T238 483H174V549H253Q335
549 377 520ZM299 54T375 123V267Q318 297 247 297Q189 297 150 269T110 174Q110 111 143 83T220 54Q299 54 375 123ZM372 809H462L568 656H493L372 809Z" />
<glyph unicode="&#xe1;" glyph-name="aacute" horiz-adv-x="514" d="M335 549T377 520T434 441T449 316V0H375V57Q335 20 297 4T214 -13Q165 -13 124 9T59 74T34 174Q34 264 90 313T240 363Q274 363 309 355T375 330Q374 384 364 416T325 465T238 483H174V549H253Q335
549 377 520ZM299 54T375 123V267Q318 297 247 297Q189 297 150 269T110 174Q110 111 143 83T220 54Q299 54 375 123ZM590 809H680L559 656H484L590 809Z" />
<glyph unicode="&#xe2;" glyph-name="acircumflex" horiz-adv-x="514" d="M335 549T377 520T434 441T449 316V0H375V57Q335 20 297 4T214 -13Q165 -13 124 9T59 74T34 174Q34 264 90 313T240 363Q274 363 309 355T375 330Q374 384 364 416T325 465T238 483H174V549H253Q335
549 377 520ZM299 54T375 123V267Q318 297 247 297Q189 297 150 269T110 174Q110 111 143 83T220 54Q299 54 375 123ZM598 656L525 767L451 656H366L482 809H567L683 656H598Z" />
<glyph unicode="&#xe3;" glyph-name="atilde" horiz-adv-x="514" d="M335 549T377 520T434 441T449 316V0H375V57Q335 20 297 4T214 -13Q165 -13 124 9T59 74T34 174Q34 264 90 313T240 363Q274 363 309 355T375 330Q374 384 364 416T325 465T238 483H174V549H253Q335
549 377 520ZM299 54T375 123V267Q318 297 247 297Q189 297 150 269T110 174Q110 111 143 83T220 54Q299 54 375 123ZM377 733T399 757T454 781Q483 781 513 766L550 747Q570 737 582 737Q612 737 612 781H673Q672 726 650 702T595 678Q567 678 537 693L500 712Q478
722 467 722Q437 722 437 678H376Q377 733 399 757Z" />
<glyph unicode="&#xe4;" glyph-name="adieresis" horiz-adv-x="514" d="M335 549T377 520T434 441T449 316V0H375V57Q335 20 297 4T214 -13Q165 -13 124 9T59 74T34 174Q34 264 90 313T240 363Q274 363 309 355T375 330Q374 384 364 416T325 465T238 483H174V549H253Q335
549 377 520ZM299 54T375 123V267Q318 297 247 297Q189 297 150 269T110 174Q110 111 143 83T220 54Q299 54 375 123ZM589 791H660V674H589V791ZM390 791H460V674H390V791Z" />
<glyph unicode="&#xe5;" glyph-name="aring" horiz-adv-x="514" d="M335 549T377 520T434 441T449 316V0H375V57Q335 20 297 4T214 -13Q165 -13 124 9T59 74T34 174Q34 264 90 313T240 363Q274 363 309 355T375 330Q374 384 364 416T325 465T238 483H174V549H253Q335
549 377 520ZM299 54T375 123V267Q318 297 247 297Q189 297 150 269T110 174Q110 111 143 83T220 54Q299 54 375 123ZM482 640T455 666T427 732Q427 772 454 797T525 823Q568 823 595 797T622 732Q622 692 595 666T525 640Q482 640 455 666ZM546 683T559 696T573
732Q573 754 560 767T525 781Q504 781 490 768T476 732Q476 710 490 697T525 683Q546 683 559 696Z" />
<glyph unicode="&#xe6;" glyph-name="ae" horiz-adv-x="891" d="M452 277Q452 177 498 115T645 52Q718 52 807 93L831 29Q743 -17 641 -17Q569 -17 515 9T426 85Q374 35 323 11T214 -13Q165 -13 124 9T59 74T34 174Q34 264 90 313T240 363Q274 363 309 355T375
330Q374 384 364 416T325 465T238 483H174V549H253Q325 549 365 525T424 455Q456 509 507 537T622 565Q725 565 784 499T845 308V279H452V277ZM554 496T512 459T457 346H767Q761 423 725 459T619 496Q554 496 512 459ZM262 54T307 76T396 144Q375 202 375 267Q318
297 247 297Q189 297 150 269T110 174Q110 111 143 83T220 54Q262 54 307 76Z" />
<glyph unicode="&#xe7;" glyph-name="ccedilla" horiz-adv-x="546" d="M383 -67T411 -93T440 -162Q440 -208 408 -235T314 -263Q262 -263 219 -243V-187Q265 -208 311 -208Q345 -208 361 -195T377 -163Q377 -121 321 -121Q284 -121 238 -137L275 -13Q172 2 117
79T62 276Q62 409 130 487T325 565Q368 565 400 559T468 538V464Q431 481 399 488T328 495Q229 494 184 435T139 277Q139 176 183 116T327 54Q401 54 486 95L511 30Q429 -14 334 -17L319 -68Q323 -67 331 -67Q383 -67 411 -93Z" />
<glyph unicode="&#xe8;" glyph-name="egrave" horiz-adv-x="578" d="M139 277Q139 176 185 114T332 52Q405 52 494 93L518 29Q430 -17 328 -17Q201 -17 132 63T62 276Q62 368 94 433T181 531T306 565Q411 565 471 499T532 308V279H139V277ZM241 496T199 459T144
346H454Q448 423 412 459T306 496Q241 496 199 459ZM408 809H498L604 656H529L408 809Z" />
<glyph unicode="&#xe9;" glyph-name="eacute" horiz-adv-x="578" d="M139 277Q139 176 185 114T332 52Q405 52 494 93L518 29Q430 -17 328 -17Q201 -17 132 63T62 276Q62 368 94 433T181 531T306 565Q411 565 471 499T532 308V279H139V277ZM241 496T199 459T144
346H454Q448 423 412 459T306 496Q241 496 199 459ZM627 809H717L596 656H521L627 809Z" />
<glyph unicode="&#xea;" glyph-name="ecircumflex" horiz-adv-x="578" d="M139 277Q139 176 185 114T332 52Q405 52 494 93L518 29Q430 -17 328 -17Q201 -17 132 63T62 276Q62 368 94 433T181 531T306 565Q411 565 471 499T532 308V279H139V277ZM241 496T199 459T144
346H454Q448 423 412 459T306 496Q241 496 199 459ZM635 656L562 767L488 656H403L519 809H604L720 656H635Z" />
<glyph unicode="&#xeb;" glyph-name="edieresis" horiz-adv-x="578" d="M139 277Q139 176 185 114T332 52Q405 52 494 93L518 29Q430 -17 328 -17Q201 -17 132 63T62 276Q62 368 94 433T181 531T306 565Q411 565 471 499T532 308V279H139V277ZM241 496T199 459T144
346H454Q448 423 412 459T306 496Q241 496 199 459ZM626 791H697V674H626V791ZM427 791H497V674H427V791Z" />
<glyph unicode="&#xec;" glyph-name="igrave" horiz-adv-x="264" d="M95 549H169V0H95V549ZM-22 809H68L174 656H99L-22 809Z" />
<glyph unicode="&#xed;" glyph-name="iacute" horiz-adv-x="264" d="M95 549H169V0H95V549ZM196 809H286L165 656H90L196 809Z" />
<glyph unicode="&#xee;" glyph-name="icircumflex" horiz-adv-x="264" d="M95 549H169V0H95V549ZM204 656L131 767L57 656H-28L88 809H173L289 656H204Z" />
<glyph unicode="&#xef;" glyph-name="idieresis" horiz-adv-x="264" d="M95 549H169V0H95V549ZM195 791H266V674H195V791ZM-4 791H66V674H-4V791Z" />
<glyph unicode="&#xf0;" glyph-name="eth" horiz-adv-x="626" d="M469 688T517 567T565 315Q565 164 500 74T314 -17Q197 -17 130 57T62 273Q62 423 130 493T305 564Q344 564 384 546T461 497Q420 632 328 727L242 650L202 686L288 763Q261 786 220 810L269 862Q304
842 342 812L412 874L453 837L383 775Q469 688 517 567ZM489 359T481 412Q396 493 313 493Q237 493 188 445T138 273Q138 54 314 54Q396 54 442 120T489 313Q489 359 481 412Z" />
<glyph unicode="&#xf1;" glyph-name="ntilde" horiz-adv-x="625" d="M440 561T487 509T535 332V0H461V332Q461 419 433 455T334 491Q250 491 169 418V0H95V549H169V487Q208 522 252 541T340 561Q440 561 487 509ZM423 733T445 757T500 781Q529 781 559 766L596
747Q616 737 628 737Q658 737 658 781H719Q718 726 696 702T641 678Q613 678 583 693L546 712Q524 722 513 722Q483 722 483 678H422Q423 733 445 757Z" />
<glyph unicode="&#xf2;" glyph-name="ograve" horiz-adv-x="653" d="M241 -17T182 21T92 126T62 275Q62 357 92 423T181 527T327 565Q413 565 472 527T562 423T592 275Q592 192 562 126T473 22T327 -17Q241 -17 182 21ZM416 53T465 115T515 275Q515 372 466 434T327
496Q238 496 189 434T139 275Q139 177 188 115T327 53Q416 53 465 115ZM429 809H519L625 656H550L429 809Z" />
<glyph unicode="&#xf3;" glyph-name="oacute" horiz-adv-x="653" d="M241 -17T182 21T92 126T62 275Q62 357 92 423T181 527T327 565Q413 565 472 527T562 423T592 275Q592 192 562 126T473 22T327 -17Q241 -17 182 21ZM416 53T465 115T515 275Q515 372 466 434T327
496Q238 496 189 434T139 275Q139 177 188 115T327 53Q416 53 465 115ZM391 809H481L360 656H285L391 809Z" />
<glyph unicode="&#xf4;" glyph-name="ocircumflex" horiz-adv-x="653" d="M241 -17T182 21T92 126T62 275Q62 357 92 423T181 527T327 565Q413 565 472 527T562 423T592 275Q592 192 562 126T473 22T327 -17Q241 -17 182 21ZM416 53T465 115T515 275Q515 372 466
434T327 496Q238 496 189 434T139 275Q139 177 188 115T327 53Q416 53 465 115ZM399 656L326 767L252 656H167L283 809H368L484 656H399Z" />
<glyph unicode="&#xf5;" glyph-name="otilde" horiz-adv-x="653" d="M241 -17T182 21T92 126T62 275Q62 357 92 423T181 527T327 565Q413 565 472 527T562 423T592 275Q592 192 562 126T473 22T327 -17Q241 -17 182 21ZM416 53T465 115T515 275Q515 372 466 434T327
496Q238 496 189 434T139 275Q139 177 188 115T327 53Q416 53 465 115ZM178 733T200 757T255 781Q284 781 314 766L351 747Q371 737 383 737Q413 737 413 781H474Q473 726 451 702T396 678Q368 678 338 693L301 712Q279 722 268 722Q238 722 238 678H177Q178 733
200 757Z" />
<glyph unicode="&#xf6;" glyph-name="odieresis" horiz-adv-x="653" d="M241 -17T182 21T92 126T62 275Q62 357 92 423T181 527T327 565Q413 565 472 527T562 423T592 275Q592 192 562 126T473 22T327 -17Q241 -17 182 21ZM416 53T465 115T515 275Q515 372 466
434T327 496Q238 496 189 434T139 275Q139 177 188 115T327 53Q416 53 465 115ZM390 791H461V674H390V791ZM191 791H261V674H191V791Z" />
<glyph unicode="&#xf7;" glyph-name="divide" horiz-adv-x="550" d="M233 195H317V39H233V195ZM67 372H483V302H67V372ZM233 637H317V481H233V637Z" />
<glyph unicode="&#xf8;" glyph-name="oslash" horiz-adv-x="653" d="M552 441Q592 371 592 275Q592 192 562 126T473 22T327 -17Q209 -17 138 57L74 -2L29 41L101 108Q62 179 62 275Q62 357 92 423T181 527T327 565Q447 565 515 492L580 552L624 508L552 441ZM139
211T160 162L460 440Q409 496 327 496Q238 496 189 434T139 275Q139 211 160 162ZM515 338T494 386L194 108Q244 53 327 53Q416 53 465 115T515 275Q515 338 494 386Z" />
<glyph unicode="&#xf9;" glyph-name="ugrave" horiz-adv-x="625" d="M530 549V0H456V63Q418 28 374 8T285 -12Q185 -12 138 41T90 218V549H164V218Q164 131 192 95T292 59Q376 59 456 132V549H530ZM411 809H501L607 656H532L411 809Z" />
<glyph unicode="&#xfa;" glyph-name="uacute" horiz-adv-x="625" d="M530 549V0H456V63Q418 28 374 8T285 -12Q185 -12 138 41T90 218V549H164V218Q164 131 192 95T292 59Q376 59 456 132V549H530ZM629 809H719L598 656H523L629 809Z" />
<glyph unicode="&#xfb;" glyph-name="ucircumflex" horiz-adv-x="625" d="M530 549V0H456V63Q418 28 374 8T285 -12Q185 -12 138 41T90 218V549H164V218Q164 131 192 95T292 59Q376 59 456 132V549H530ZM637 656L564 767L490 656H405L521 809H606L722 656H637Z" />
<glyph unicode="&#xfc;" glyph-name="udieresis" horiz-adv-x="625" d="M530 549V0H456V63Q418 28 374 8T285 -12Q185 -12 138 41T90 218V549H164V218Q164 131 192 95T292 59Q376 59 456 132V549H530ZM629 791H700V674H629V791ZM430 791H500V674H430V791Z" />
<glyph unicode="&#xfd;" glyph-name="yacute" horiz-adv-x="545" d="M525 549L275 -89Q247 -160 229 -192T185 -237T111 -251Q86 -251 61 -245V-176Q82 -180 110 -180Q133 -180 147 -171T174 -141T204 -74L234 3L20 549H98L272 100L449 549H525ZM593 809H683L562
656H487L593 809Z" />
<glyph unicode="&#xfe;" glyph-name="thorn" horiz-adv-x="623" d="M441 565T507 491T573 274Q573 132 507 58T331 -17Q250 -17 169 54V-234H95V846H169V495Q249 565 331 565Q441 565 507 491ZM410 54T453 110T496 274Q496 382 453 438T325 495Q247 495 169 427V121Q246
54 325 54Q410 54 453 110Z" />
<glyph unicode="&#xff;" glyph-name="ydieresis" horiz-adv-x="545" d="M525 549L275 -89Q247 -160 229 -192T185 -237T111 -251Q86 -251 61 -245V-176Q82 -180 110 -180Q133 -180 147 -171T174 -141T204 -74L234 3L20 549H98L272 100L449 549H525ZM592 791H663V674H592V791ZM393
791H463V674H393V791Z" />
<glyph unicode="&#x2013;" glyph-name="endash" horiz-adv-x="500" d="M0 331H500V261H0V331Z" />
<glyph unicode="&#x2014;" glyph-name="emdash" horiz-adv-x="1000" d="M125 331H875V261H125V331Z" />
<glyph unicode="&#x2018;" glyph-name="quoteleft" horiz-adv-x="284" d="M137 451H217L148 758H77L137 451Z" />
<glyph unicode="&#x2019;" glyph-name="quoteright" horiz-adv-x="284" d="M127 758H207L138 451H67L127 758Z" />
<glyph unicode="&#x201a;" glyph-name="quotesinglbase" horiz-adv-x="284" d="M127 156H207L138 -151H67L127 156Z" />
<glyph unicode="&#x201c;" glyph-name="quotedblleft" horiz-adv-x="457" d="M148 758L217 451H137L77 758H148ZM390 451H310L250 758H321L390 451Z" />
<glyph unicode="&#x201d;" glyph-name="quotedblright" horiz-adv-x="457" d="M127 758H207L138 451H67L127 758ZM300 758H380L311 451H240L300 758Z" />
<glyph unicode="&#x201e;" glyph-name="quotedblbase" horiz-adv-x="457" d="M127 156H207L138 -151H67L127 156ZM380 156L311 -151H240L300 156H380Z" />
<glyph unicode="&#x2022;" glyph-name="bullet" horiz-adv-x="347" d="M125 263T91 297T56 381Q56 430 90 464T174 498Q224 498 257 465T291 381Q291 332 257 298T174 263Q125 263 91 297Z" />
<glyph unicode="&#x2039;" glyph-name="guilsinglleft" horiz-adv-x="490" d="M185 270L371 82L321 34L115 242V298L321 506L371 458L185 270Z" />
<glyph unicode="&#x203a;" glyph-name="guilsinglright" horiz-adv-x="490" d="M305 270L119 82L169 34L375 242V298L169 506L119 458L305 270Z" />
</font>
</defs>
</svg>
