<?xml version="1.0" standalone="no"?>
<!DOCTYPE svg PUBLIC "-//W3C//DTD SVG 1.1//EN" "http://www.w3.org/Graphics/SVG/1.1/DTD/svg11.dtd">
<svg xmlns="http://www.w3.org/2000/svg">
<defs >
<font id="Faustina" horiz-adv-x="536" ><font-face
    font-family="Faustina Medium"
    units-per-em="1000"
    panose-1="0 0 6 0 0 0 0 0 0 0"
    ascent="1043"
    descent="-216"
    alphabetic="0" />
<glyph unicode=" " glyph-name="space" horiz-adv-x="192" />
<glyph unicode="!" glyph-name="exclam" horiz-adv-x="207" d="M33 668T39 671T58 676T89 679Q124 679 135 666T146 626Q146 608 140 500L122 160H66L32 667Q33 668 39 671ZM66 -16T50 1T34 47Q34 75 52 95T98 115Q124 115 140 98T157 53Q157 25 140 5T92 -16Q66
-16 50 1Z" />
<glyph unicode="&quot;" glyph-name="quotedbl" horiz-adv-x="327" d="M79 719T105 719Q146 719 146 681Q143 653 141 637L118 493H73L51 705Q79 719 105 719ZM217 719T243 719Q284 719 284 681Q284 670 279 637L256 493H211L189 705Q217 719 243 719Z" />
<glyph unicode="#" glyph-name="numbersign" horiz-adv-x="530" d="M102 121H-2V190H115L138 312H21V381H152L178 519H249L222 381H344L370 519H441L414 381H511V312H400L377 190H489V121H364L335 -31H264L294 121H172L143 -31H72L102 121ZM307 190L330 312H208L185
190H307Z" />
<glyph unicode="$" glyph-name="dollar" horiz-adv-x="475" d="M447 108T401 58T278 -4L274 -114H214L210 -6Q160 -2 115 13T50 46V199H106L122 98Q143 80 173 69T241 58Q349 58 349 157Q349 202 322 227T222 284Q167 308 134 327T76 382T51 474Q51 545 94 592T214
651L219 759H280L284 653Q321 650 361 643T422 629V468H367L347 565Q308 587 252 587Q200 587 176 566T151 503Q151 470 165 449T203 415T279 379Q338 353 371 331T426 275T447 188Q447 108 401 58Z" />
<glyph unicode="%" glyph-name="percent" horiz-adv-x="700" d="M139 -41L81 -2L550 675L606 637L139 -41ZM81 347T49 388T16 502Q16 576 54 619T170 662Q248 662 280 621T313 504Q313 431 277 389T160 347Q81 347 49 388ZM208 402T222 425T237 504Q237 564 221
585T164 606Q125 606 109 582T92 504Q92 450 107 426T165 402Q208 402 222 425ZM450 -10T418 31T385 146Q385 219 423 262T539 305Q616 305 649 265T682 148Q682 75 646 33T529 -10Q450 -10 418 31ZM577 46T591 69T606 148Q606 207 590 228T533 250Q494 250 478
226T461 148Q461 94 476 70T534 46Q577 46 591 69Z" />
<glyph unicode="&amp;" glyph-name="ampersand" horiz-adv-x="611" d="M382 -12T277 -12Q173 -12 107 29T41 169Q41 235 79 278T163 347Q124 389 106 424T87 500Q87 571 136 616T276 662Q318 662 360 653T424 634V478H369L349 583Q348 583 330 590T267 597Q216
597 196 576T176 513Q176 482 189 461T247 394L465 168Q478 202 478 239Q478 288 467 318L381 335V383H528Q536 362 541 325T547 238Q547 176 514 117L563 66L643 49V0H544Q503 0 473 30L455 48Q382 -12 277 -12ZM140 261T140 183Q140 118 174 87T291 56Q363 56
411 93L201 308Q140 261 140 183Z" />
<glyph unicode="&apos;" glyph-name="quotesingle" horiz-adv-x="207" d="M85 719T110 719Q151 719 151 681L145 637L122 493H77L55 705Q85 719 110 719Z" />
<glyph unicode="(" glyph-name="parenleft" horiz-adv-x="258" d="M126 -128T83 -9T39 279Q39 660 241 699L260 653Q207 637 180 593T144 475T135 279Q135 147 145 71T182 -47T261 -105L242 -151Q126 -128 83 -9Z" />
<glyph unicode=")" glyph-name="parenright" horiz-adv-x="258" d="M49 -90T76 -48T113 71T123 279Q123 402 114 475T78 592T-2 653L17 699Q132 677 175 562T219 281Q219 111 176 -8T16 -151L-3 -105Q49 -90 76 -48Z" />
<glyph unicode="*" glyph-name="asterisk" horiz-adv-x="384" d="M139 347T104 375L167 506L89 497Q59 494 52 494Q36 494 24 501T11 528Q11 545 24 577L167 554L134 626Q133 629 125 646T116 679Q116 713 168 713H189L211 570L271 626Q275 630 284 639T303 654T324
659Q339 659 348 646T369 599L240 531L309 495Q315 491 330 484T353 466T362 443Q362 431 352 419T318 391L213 492L199 415Q193 383 186 365T157 347Q139 347 104 375ZM210 501L230 531L208 561L175 548V511L210 501Z" />
<glyph unicode="+" glyph-name="plus" horiz-adv-x="530" d="M226 69V234H65V303H226V469H302V303H465V234H302V69H226Z" />
<glyph unicode="," glyph-name="comma" horiz-adv-x="186" d="M23 -117Q40 -83 50 -51T60 3Q60 23 51 40T28 69Q51 119 97 119Q125 119 142 100T159 53Q159 8 124 -46T58 -132L23 -117Z" />
<glyph unicode="-" glyph-name="hyphen" horiz-adv-x="313" d="M39 301L259 318V233H39V301Z" />
<glyph unicode="." glyph-name="period" horiz-adv-x="191" d="M66 -10T49 8T32 56Q32 85 51 106T99 127Q127 127 143 110T160 62Q160 32 142 11T93 -10Q66 -10 49 8Z" />
<glyph unicode="/" glyph-name="slash" horiz-adv-x="350" d="M332 695L399 665L37 -167L-31 -137L332 695Z" />
<glyph unicode="0" glyph-name="zero" horiz-adv-x="597" d="M159 -11T104 76T48 326Q48 485 112 574T310 663Q442 663 496 577T551 326Q551 166 489 78T292 -11Q159 -11 104 76ZM381 55T411 121T442 326Q442 465 412 530T300 596Q219 596 189 531T158 326Q158
187 188 121T300 55Q381 55 411 121Z" />
<glyph unicode="1" glyph-name="one" horiz-adv-x="402" d="M53 0V54L168 66V572H44V628L213 658H267V66L383 54V0H53Z" />
<glyph unicode="2" glyph-name="two" horiz-adv-x="494" d="M29 59L224 263Q287 329 314 376T341 477Q341 537 315 563T219 589Q157 589 116 571L98 473H43V625Q72 639 120 650T223 662Q340 662 394 620T448 486Q448 441 431 402T378 318T275 208L153 88V82H397L419
171H474V0H29V59Z" />
<glyph unicode="3" glyph-name="three" horiz-adv-x="454" d="M146 -12T97 2T20 35L28 174H88L98 90Q150 59 199 59Q270 59 303 88T336 185Q336 250 294 277T178 305H132L116 336V374H165Q225 374 267 404T310 488Q310 541 284 565T194 589Q162 589 143 585T105
574L96 488H39L30 630Q111 662 208 662Q312 662 359 625T406 514Q406 457 374 418T296 360L293 357Q356 343 399 305T443 192Q443 91 376 40T201 -12Q146 -12 97 2Z" />
<glyph unicode="4" glyph-name="four" horiz-adv-x="493" d="M205 0V48L288 64V176H25L-4 232L320 681L385 656V249H473V176H385V64L468 48V0H205ZM97 249H288V511L289 527L287 530L280 514L95 256L97 249Z" />
<glyph unicode="5" glyph-name="five" horiz-adv-x="450" d="M90 -12T20 31L28 175H86L96 80Q98 79 122 67T204 55Q271 55 301 92T332 199Q332 270 290 304T147 339H45V648H402V561H111V409H172Q307 409 372 364T438 217Q438 110 375 49T201 -12Q90 -12 20 31Z" />
<glyph unicode="6" glyph-name="six" horiz-adv-x="522" d="M151 -12T98 53T45 251Q45 376 92 467T230 607T447 660V615Q313 601 240 534T160 353Q193 376 232 388T312 401Q391 401 439 350T487 216Q487 148 459 97T378 17T258 -12Q151 -12 98 53ZM328 56T354
91T381 200Q381 260 352 290T266 321Q212 321 159 305V272Q159 191 170 144T205 77T272 56Q328 56 354 91Z" />
<glyph unicode="7" glyph-name="seven" horiz-adv-x="440" d="M84 0V46L358 542V561H99L90 483H30L21 648H445V561L170 0H84Z" />
<glyph unicode="8" glyph-name="eight" horiz-adv-x="492" d="M145 -11T94 29T42 142Q42 196 75 243T160 322Q56 381 56 482Q56 535 82 576T154 640T256 663Q343 663 391 622T439 511Q439 459 413 418T342 350Q401 318 431 279T462 180Q462 130 438 87T365 16T243
-11Q145 -11 94 29ZM351 421T351 495Q351 546 327 568T248 591Q151 591 151 507Q151 467 173 442T252 392Q265 386 275 381T294 373Q351 421 351 495ZM365 53T365 162Q365 205 334 233T231 289L206 300Q139 242 139 166Q139 110 166 82T253 53Q365 53 365 162Z"
/>
<glyph unicode="9" glyph-name="nine" horiz-adv-x="496" d="M120 -8T100 -5T76 -2V43Q181 43 240 67T326 145T356 294Q336 280 301 265T210 250Q126 250 75 301T24 441Q24 512 53 562T130 637T237 662Q354 662 410 591T467 356Q467 170 386 81T158 -8Q120 -8
100 -5ZM302 328T328 338T356 348Q357 433 350 483T317 564T236 594Q177 594 154 560T131 452Q131 385 166 357T255 328Q302 328 328 338Z" />
<glyph unicode=":" glyph-name="colon" horiz-adv-x="212" d="M76 319T60 337T43 385Q43 414 62 435T110 456Q137 456 154 439T171 392Q171 362 153 341T104 319Q76 319 60 337ZM76 -10T60 8T43 56Q43 85 62 106T110 127Q137 127 154 110T171 62Q171 32 153 11T104
-10Q76 -10 60 8Z" />
<glyph unicode=";" glyph-name="semicolon" horiz-adv-x="216" d="M80 319T63 337T46 385Q46 414 65 435T113 456Q141 456 157 439T174 392Q174 362 156 341T107 319Q80 319 63 337ZM40 -117Q57 -84 67 -51T77 3Q77 23 68 40T46 69Q69 119 114 119Q143 119 159
101T176 53Q176 7 140 -48T75 -132L40 -117Z" />
<glyph unicode="&lt;" glyph-name="less" horiz-adv-x="530" d="M32 278L467 502L503 429L134 250L502 72L468 0L32 216V278Z" />
<glyph unicode="=" glyph-name="equal" horiz-adv-x="530" d="M66 313V384H464V313H66ZM66 152V222H464V152H66Z" />
<glyph unicode="&gt;" glyph-name="greater" horiz-adv-x="530" d="M32 72L400 250L31 429L67 502L502 278V216L66 0L32 72Z" />
<glyph unicode="?" glyph-name="question" horiz-adv-x="361" d="M171 366Q214 381 232 407T250 483Q250 520 240 537T208 561T140 567H44Q43 569 40 574T34 589T31 609Q31 638 48 651T118 664Q181 664 230 638T308 565T336 453Q336 393 304 354T219 297L166 280L145
163H83L79 333L171 366ZM83 -16T67 1T51 47Q51 75 69 95T115 115Q141 115 157 98T174 53Q174 25 157 5T109 -16Q83 -16 67 1Z" />
<glyph unicode="@" glyph-name="at" horiz-adv-x="762" d="M269 -109T190 -64T68 64T25 252Q25 350 75 437T215 576T415 629Q515 629 590 587T704 472T744 314Q744 192 690 123T546 54Q508 54 478 71T437 123Q433 120 412 104T363 75T309 62Q262 62 236 97T210
199Q210 249 229 306T290 402T391 442Q411 442 431 438T464 428T482 421L512 453H554L510 189Q507 171 507 161Q507 140 519 129T554 117Q600 117 630 160T660 294Q660 432 588 497T405 563Q332 563 266 533T156 435T112 258Q112 110 187 33T395 -45Q448 -45 498
-32T572 -7L589 -41Q589 -44 560 -61T484 -94T377 -109Q269 -109 190 -64ZM359 134T378 142T411 158T427 170L458 360Q456 361 447 365T420 374T378 378Q362 378 348 375T329 366Q316 351 304 309T292 222Q292 174 302 154T340 134Q359 134 378 142Z" />
<glyph unicode="A" glyph-name="A" horiz-adv-x="622" d="M-9 47L55 62L270 654H340L566 62L632 47V0H372V47L446 62L443 82L405 184H176L140 81L138 62L216 47V0H-9V47ZM384 248L295 492L291 507L288 510L283 490L198 248H384Z" />
<glyph unicode="B" glyph-name="B" horiz-adv-x="611" d="M52 47L134 65V584L52 601V648H318Q424 648 481 607T539 489Q539 438 513 403T430 345Q493 330 531 287T570 186Q570 98 510 49T343 0H52V47ZM283 360Q354 360 392 392T431 485Q431 585 304 585Q269 585
237 580V360H283ZM456 61T456 183Q456 244 418 271T295 299H237V66Q262 61 312 61Q456 61 456 183Z" />
<glyph unicode="C" glyph-name="C" horiz-adv-x="610" d="M560 191V31Q515 12 467 0T339 -13Q190 -13 116 71T42 316Q42 410 81 489T191 615T356 662Q418 662 469 654T556 633V469H499L478 578Q418 595 352 595Q282 595 241 567T181 479T162 319Q162 187 211 119T355
51Q429 51 455 67T482 84L503 191H560Z" />
<glyph unicode="D" glyph-name="D" horiz-adv-x="706" d="M49 47L131 65V583L49 601V648H350Q501 648 582 569T664 338Q664 175 576 88T323 0H49V47ZM398 59T448 86T521 174T544 339Q544 471 488 528T317 585Q272 585 234 580V66Q264 59 310 59Q398 59 448 86Z" />
<glyph unicode="E" glyph-name="E" horiz-adv-x="575" d="M131 65V584L49 601V648H519V477H464L442 587H316L234 580V360H375L392 422H437V236H392L375 301H234V70Q273 63 323 63H450L474 174H528V0H49V47L131 65Z" />
<glyph unicode="F" glyph-name="F" horiz-adv-x="523" d="M49 47L131 65V584L49 601V648H519V477H463L441 587H316L234 580V341H387L403 404H448V217H403L387 282H234V67L338 51V0H49V47Z" />
<glyph unicode="G" glyph-name="G" horiz-adv-x="646" d="M397 278V325H617V273L573 262V0H530L500 27H488Q426 -13 331 -13Q42 -13 42 314Q42 412 81 491T194 616T367 662Q434 662 486 653T564 632V468H508L481 578Q430 595 358 595Q252 595 207 529T162 325Q162
183 207 117T356 51Q395 51 420 57T472 77V260L397 278Z" />
<glyph unicode="H" glyph-name="H" horiz-adv-x="756" d="M49 48L131 64V584L49 600V648H316V600L234 584V364H522V584L440 600V648H707V600L625 584V64L707 48V0H440V48L522 64V302H234V64L316 48V0H49V48Z" />
<glyph unicode="I" glyph-name="I" horiz-adv-x="370" d="M52 48L133 64V584L52 600V648H318V600L237 584V64L318 48V0H52V48Z" />
<glyph unicode="J" glyph-name="J" horiz-adv-x="405" d="M62 168L90 55Q93 53 106 49T135 45Q193 45 193 105V583L102 600V648H371V600L296 584V114Q296 49 258 17T138 -15Q92 -15 55 -5T7 14V168H62Z" />
<glyph unicode="K" glyph-name="K" horiz-adv-x="610" d="M131 64V584L49 600V648H316V600L234 584V358H260L439 576V589L384 601V648H597V600L536 586L346 357L551 65L620 48V0H509Q485 0 472 7T446 34L261 306H234V64L316 48V0H49V48L131 64Z" />
<glyph unicode="L" glyph-name="L" horiz-adv-x="523" d="M49 47L131 65V584L49 601V648H322V598L234 582V69L318 61H432L456 170H510V0H49V47Z" />
<glyph unicode="M" glyph-name="M" horiz-adv-x="883" d="M48 0V46L123 63V587L59 599V648H275L426 187L438 138L450 187L600 648H827V599L749 585V64L831 48V0H564V48L646 64V544H634L627 520L455 0H385L205 544H195L196 518V63L271 46V0H48Z" />
<glyph unicode="N" glyph-name="N" horiz-adv-x="728" d="M49 0V46L122 63V585L57 599V648H227L526 174L537 156H544V585L472 602V648H689V602L616 585V0H515L211 478L201 495H194V63L267 46V0H49Z" />
<glyph unicode="O" glyph-name="O" horiz-adv-x="699" d="M197 -15T120 71T42 313Q42 412 80 491T192 616T366 662Q504 662 580 576T657 337Q657 235 623 156T518 31T343 -15Q197 -15 120 71ZM454 50T495 115T537 316Q537 424 515 485T453 571T351 595Q289 595
249 575T186 497T162 325Q162 178 211 114T363 50Q454 50 495 115Z" />
<glyph unicode="P" glyph-name="P" horiz-adv-x="570" d="M49 47L131 65V584L49 601V648H308Q428 648 491 609T555 477Q555 372 490 316T317 260Q306 260 282 262L277 304Q362 306 403 341T445 456Q445 585 306 585Q283 585 262 584T234 581V67L336 49V0H49V47Z" />
<glyph unicode="Q" glyph-name="Q" horiz-adv-x="704" d="M364 -32T346 -24T297 -10Q174 -1 108 85T42 317Q42 411 82 490T196 615T366 662Q504 662 580 577T657 341Q657 230 607 135T447 5L595 -83H700V-123Q696 -126 680 -134T640 -150T594 -158Q551 -158 515
-135L380 -43Q364 -32 346 -24ZM455 51T496 118T537 324Q537 429 515 488T452 571T351 595Q289 595 249 576T186 498T162 328Q162 186 214 119T367 51Q455 51 496 118Z" />
<glyph unicode="R" glyph-name="R" horiz-adv-x="616" d="M49 47L131 65V584L49 601V648H332Q432 648 489 608T546 481Q546 403 509 361T408 291L543 65L613 47V0H495Q456 0 439 31L307 270H234V65L316 47V0H49V47ZM287 332Q354 332 394 369T435 469Q435 536 400
560T306 585Q272 585 234 581V332H287Z" />
<glyph unicode="S" glyph-name="S" horiz-adv-x="521" d="M188 -12T132 4T52 41V194H111L128 93Q149 76 183 65T246 53Q317 53 348 78T379 159Q379 191 364 212T323 247T247 282Q178 308 143 325T81 379T53 476Q53 560 112 611T273 662Q321 662 374 654T449 637V476H394L375
574Q373 575 347 585T272 595Q205 595 179 572T153 504Q153 470 172 448T217 415T301 381Q357 359 393 337T453 279T477 187Q477 117 444 73T360 8T251 -12Q188 -12 132 4Z" />
<glyph unicode="T" glyph-name="T" horiz-adv-x="548" d="M142 48L223 64V585H90L67 477H13V648H537V477H482L460 585H327V64L408 48V0H142V48Z" />
<glyph unicode="U" glyph-name="U" horiz-adv-x="718" d="M32 600V648H297V600L217 584V278Q217 188 231 142T281 77T384 58Q442 58 475 81T521 151T535 278V583L454 599V648H692V599L611 583V278Q611 175 589 112T512 17T357 -15Q261 -15 209 16T135 110T114
278V584L32 600Z" />
<glyph unicode="V" glyph-name="V" horiz-adv-x="608" d="M279 -7L53 586L-10 601V648H251V601L175 586V573L317 160L327 129L338 155L441 453L481 586L400 601V648H621V601L560 586L346 -7H279Z" />
<glyph unicode="W" glyph-name="W" horiz-adv-x="964" d="M247 -7L59 586L-4 601V648H254V601L177 586L179 569L294 159L302 129H305L314 159L446 523L423 586L351 601V648H619V601L541 586L543 570L695 159L703 130H708L715 159L827 569L828 586L746 601V648H971V601L910
586L733 -7H653L494 398L488 417H482L476 396L327 -7H247Z" />
<glyph unicode="X" glyph-name="X" horiz-adv-x="601" d="M3 48L72 63L251 320L73 580L8 600V648H270V600L208 586V568L322 401L445 572V588L377 601V648H605V602L537 586L360 344L548 63L619 48V0H352V48L420 63V75L290 263L159 76V60L222 47V0H3V48Z" />
<glyph unicode="Y" glyph-name="Y" horiz-adv-x="593" d="M174 48L255 64V237L59 587L-4 603V648H248V603L176 587V570L314 309H327L463 572V587L386 603V648H608V603L545 586L359 246V64L440 48V0H174V48Z" />
<glyph unicode="Z" glyph-name="Z" horiz-adv-x="547" d="M26 64L378 567V584H117L91 481H36V648H513V579L154 76V64H439L465 168H521V0H26V64Z" />
<glyph unicode="[" glyph-name="bracketleft" horiz-adv-x="253" d="M68 701H241V651L148 636V-87L241 -102V-151H68V701Z" />
<glyph unicode="\" glyph-name="backslash" horiz-adv-x="385" d="M-34 665L32 695L396 -137L328 -167L-34 665Z" />
<glyph unicode="]" glyph-name="bracketright" horiz-adv-x="253" d="M12 -102L105 -87V637L12 651V701H186V-151H12V-102Z" />
<glyph unicode="^" glyph-name="asciicircum" horiz-adv-x="530" d="M235 649H297L487 262H407L266 564L123 262H44L235 649Z" />
<glyph unicode="_" glyph-name="underscore" horiz-adv-x="453" d="M3 0H450V-70H3V0Z" />
<glyph unicode="`" glyph-name="grave" horiz-adv-x="205" d="M6 684T22 702T54 721Q65 721 75 713T100 688L205 569L175 535L0 652Q6 684 22 702Z" />
<glyph unicode="a" glyph-name="a" horiz-adv-x="492" d="M108 -9T73 27T37 117Q37 180 82 217T212 267L307 282V354Q307 396 285 416T216 436Q194 436 179 433T159 429L144 337Q142 336 132 333T106 329Q83 329 68 342T53 379Q53 418 89 446T174 490T260 505Q330
505 367 473T404 384V72L476 58V16Q472 14 457 9T419 0T372 -5Q343 -5 331 7T314 42H309Q295 26 259 9T180 -9Q108 -9 73 27ZM254 61T275 67T307 79V228Q216 221 178 199T140 133Q140 102 162 82T227 61Q254 61 275 67Z" />
<glyph unicode="b" glyph-name="b" horiz-adv-x="526" d="M205 -9T159 34H150L119 -2H70V615L-12 629V673L137 699L167 685V474L165 460V454Q186 472 222 488T307 505Q389 505 439 450T489 280Q489 187 460 122T382 24T275 -9Q205 -9 159 34ZM319 55T351 100T383
250Q383 347 356 388T262 430Q218 430 167 415V72Q212 55 257 55Q319 55 351 100Z" />
<glyph unicode="c" glyph-name="c" horiz-adv-x="444" d="M406 49T384 33T326 4T243 -10Q140 -10 82 52T24 235Q24 315 52 376T133 471T253 505Q326 505 369 469T413 379Q413 358 400 343T357 328Q343 328 335 331T324 335L307 430Q307 431 290 435T250 440Q182
440 155 397T128 252Q128 151 164 109T282 66Q310 66 334 70T373 78T392 85L406 51Q406 49 384 33Z" />
<glyph unicode="d" glyph-name="d" horiz-adv-x="547" d="M140 -10T89 47T37 219Q37 317 69 381T150 475T252 505Q316 505 359 470L360 480L358 492V615L276 638V682L424 699L455 685V76L529 60V16L381 -5L365 46L361 47Q342 26 307 8T223 -10Q140 -10 89 47ZM287
66T313 73T358 90V422Q316 437 269 437Q207 437 175 394T142 247Q142 150 168 108T259 66Q287 66 313 73Z" />
<glyph unicode="e" glyph-name="e" horiz-adv-x="468" d="M137 -10T81 54T24 235Q24 315 53 376T133 471T251 505Q340 505 382 451T425 318Q425 266 415 248T377 230H128Q128 155 163 111T277 66Q313 66 340 71T382 82T400 90L415 57Q415 55 392 38T331 5T246
-10Q137 -10 81 54ZM324 290Q327 308 327 328Q327 386 308 413T238 440Q182 440 156 400T128 282L324 290Z" />
<glyph unicode="f" glyph-name="f" horiz-adv-x="315" d="M16 45L88 59V433H23V485L88 499Q90 558 117 604T189 676T291 702Q322 702 339 689T357 650Q357 629 346 616T325 598Q327 597 301 605Q294 607 272 612T237 620T215 623Q199 623 185 616V496H313V462L300
433H185V62L289 46V0H16V45Z" />
<glyph unicode="g" glyph-name="g" horiz-adv-x="467" d="M127 -166T73 -139T18 -55Q18 -13 49 15T124 68Q106 88 106 118Q106 137 120 155T156 187Q95 200 65 240T34 332Q34 383 60 422T131 483T233 505Q301 505 342 475Q366 492 387 504T433 517Q455 517 467
506T479 472Q479 456 471 443T454 421L422 431Q416 433 404 437T378 441Q393 420 400 395T408 345Q408 297 382 260T312 202T214 181H201V130L310 110Q386 96 422 71T459 -8Q459 -56 426 -91T338 -146T215 -166Q127 -166 73 -139ZM267 244T288 265T310 345Q310
395 291 418T224 442Q174 442 154 419T133 340Q133 288 154 266T221 244Q267 244 288 265ZM301 -109T335 -89T369 -36Q369 -14 356 1T305 23L162 48Q142 31 127 7T112 -41Q112 -77 141 -93T237 -109Q301 -109 335 -89Z" />
<glyph unicode="h" glyph-name="h" horiz-adv-x="583" d="M22 45L103 59V616L22 631V677L172 699L200 689V468L197 460L198 454Q229 475 273 490T353 505Q414 505 451 472T488 367V59L566 45V0H315V45L391 59V350Q391 394 368 412T293 431Q254 431 200 419V59L276
45V0H22V45Z" />
<glyph unicode="i" glyph-name="i" horiz-adv-x="298" d="M113 566T96 584T79 633Q79 663 98 684T147 705Q175 705 192 688T210 640Q210 609 191 588T141 566Q113 566 96 584ZM25 45L105 59V410L25 425V471L175 498L202 487V59L278 45V0H25V45Z" />
<glyph unicode="j" glyph-name="j" horiz-adv-x="269" d="M101 566T84 584T67 633Q67 663 86 684T135 705Q163 705 180 688T198 640Q198 609 179 588T129 566Q101 566 84 584ZM48 -166T19 -161T-11 -154V-112L96 -87V410L15 425V471L165 498L193 487V-82Q193 -122
165 -144T81 -166Q48 -166 19 -161Z" />
<glyph unicode="k" glyph-name="k" horiz-adv-x="506" d="M98 59V618L18 632V677L171 699L195 682V300H245L347 426V438L289 450V495H494V451L430 435L317 291L448 65L531 45V0H355V18Q355 35 347 46L237 240H195V59L267 45V0H18V45L98 59Z" />
<glyph unicode="l" glyph-name="l" horiz-adv-x="291" d="M17 45L97 59V616L17 631V677L167 699L194 689V59L270 45V0H17V45Z" />
<glyph unicode="m" glyph-name="m" horiz-adv-x="863" d="M24 45L104 59V411L23 427V471L171 498L201 455Q236 477 278 491T352 505Q389 505 420 491T467 451Q495 473 546 489T636 505Q696 505 732 469T769 373V59L847 45V0H596V45L672 59V349Q672 394 652 412T579
431Q560 431 532 427T483 418Q484 407 484 387V59L550 45V0H320V45L387 59V349Q387 395 367 413T295 431Q257 431 201 417V59L277 45V0H24V45Z" />
<glyph unicode="n" glyph-name="n" horiz-adv-x="584" d="M25 45L104 59V410L25 425V471L181 498L195 460L198 456Q223 472 268 489T355 506Q420 506 454 470T489 367V59L567 45V0H317V45L392 59V350Q392 393 370 411T295 430Q242 430 201 419V59L277 45V0H25V45Z" />
<glyph unicode="o" glyph-name="o" horiz-adv-x="507" d="M134 -11T80 55T25 240Q25 312 52 372T133 469T262 506Q370 506 425 441T480 263Q480 186 454 124T375 26T242 -11Q134 -11 80 55ZM326 53T350 100T374 245Q374 349 348 394T254 440Q203 440 177 419T141
356T131 245Q131 147 159 100T261 53Q326 53 350 100Z" />
<glyph unicode="p" glyph-name="p" horiz-adv-x="544" d="M20 -119L89 -105V410L8 425V471L165 498L182 455L184 453Q213 477 251 491T325 505Q413 505 460 447T507 280Q507 195 480 132T404 33T288 -2Q260 -2 233 7T184 32L183 28L186 18V-105L277 -117V-165H20V-119ZM340
62T370 106T401 250Q401 348 374 389T280 430Q233 430 186 415V83Q202 73 226 68T273 62Q340 62 370 106Z" />
<glyph unicode="q" glyph-name="q" horiz-adv-x="523" d="M275 -119L358 -105V37L361 44L360 47Q337 24 303 11T231 -2Q137 -2 87 55T37 219Q37 302 65 367T143 468T257 505Q288 505 317 495T366 467H373L414 495H455V-105L521 -119V-165H275V-119ZM287 66T312
73T358 93V421Q314 437 269 437Q142 437 142 247Q142 153 171 110T263 66Q287 66 312 73Z" />
<glyph unicode="r" glyph-name="r" horiz-adv-x="376" d="M99 59V412L21 427V473L174 499L195 444Q200 449 219 463T263 491T309 505Q331 505 343 492T356 454Q356 438 349 425T334 403T325 394L271 409Q254 414 235 414Q226 414 196 408V61L293 47V0H27V45L99 59Z" />
<glyph unicode="s" glyph-name="s" horiz-adv-x="421" d="M93 156L110 77Q147 50 199 50Q254 50 275 70T297 131Q297 156 283 170T248 193T190 210Q141 222 110 235T57 278T35 359Q35 431 86 468T223 505Q265 505 308 497T369 481L357 350H309L293 427Q290 428
279 431T251 438T216 442Q165 442 145 426T124 375Q124 344 149 330T226 302Q276 288 308 274T363 229T386 146Q386 63 333 26T197 -11Q147 -11 100 2T35 27L45 156H93Z" />
<glyph unicode="t" glyph-name="t" horiz-adv-x="357" d="M8 436V485L91 506L121 615H188V496H329V463L315 436H188V123Q188 91 200 80T240 69Q264 69 291 75T318 83L330 45Q332 45 312 31T264 6T208 -6Q143 -6 117 24T91 113V436H8Z" />
<glyph unicode="u" glyph-name="u" horiz-adv-x="570" d="M165 -10T127 25T89 129V419L7 434V478L155 505L186 491V170Q186 109 208 86T289 62Q309 62 334 69T379 86V419L297 434V478L445 505L476 491V76L550 60V16L400 -5L381 44L378 43Q355 20 315 5T237 -10Q165
-10 127 25Z" />
<glyph unicode="v" glyph-name="v" horiz-adv-x="467" d="M35 434L-22 447V495H210V446L147 434V419L242 149L251 107L261 155L356 418V433L293 447V495H490V447L434 432L269 -6H205L35 434Z" />
<glyph unicode="w" glyph-name="w" horiz-adv-x="744" d="M195 -6L37 433L-21 448V495H212V445L145 435V424L227 166L236 122L245 173L340 495H443L535 166L543 122L553 173L631 421L632 435L566 445V495H764V448L704 431L561 -6H494L375 375L261 -6H195Z" />
<glyph unicode="x" glyph-name="x" horiz-adv-x="498" d="M-8 0V45L58 60L195 242L66 431L0 448V495H236V447L187 439V426L263 316L343 424V436L288 447V495H484V449L426 434L297 263L433 63L506 45V0H268V45L316 54V64L231 188L143 69V57L204 45V0H-8Z" />
<glyph unicode="y" glyph-name="y" horiz-adv-x="469" d="M493 495V447L436 433L230 -107Q217 -139 190 -153T116 -168Q98 -168 76 -165T39 -158V-115L161 -85L203 14L38 433L-24 448V495H213V445L147 436L148 422L246 159L251 128L263 169L358 422L359 434L292
444V495H493Z" />
<glyph unicode="z" glyph-name="z" horiz-adv-x="441" d="M18 0V59L282 422L284 435H105L88 355H38L28 495H399V419L145 75L142 59H342L358 145H409L419 0H18Z" />
<glyph unicode="{" glyph-name="braceleft" horiz-adv-x="217" d="M114 -132T77 -93T40 5L42 21L69 236L10 263V302Q47 318 69 328L42 528Q41 533 41 544Q41 602 77 642T174 700L195 655Q154 633 142 613T129 548L144 348Q144 318 131 305T99 282Q116 273 130
259T144 215L128 1Q128 -42 140 -62T194 -105L174 -151Q114 -132 77 -93Z" />
<glyph unicode="|" glyph-name="bar" horiz-adv-x="361" d="M146 699H215V-156H146V699Z" />
<glyph unicode="}" glyph-name="braceright" horiz-adv-x="217" d="M23 -105Q64 -82 76 -62T89 1L73 215Q73 262 118 282Q73 300 73 348L88 548Q88 592 76 612T22 655L43 700Q102 682 139 642T176 544Q176 537 175 531L148 328L206 302V263L171 247Q165 244 159
241T148 236L175 22L177 5Q177 -53 140 -92T43 -151L23 -105Z" />
<glyph unicode="~" glyph-name="asciitilde" horiz-adv-x="500" d="M316 225T291 231T256 239L158 262L83 227L58 255L94 306Q118 340 157 340Q182 340 244 326L342 303L418 338L442 309L405 257Q382 225 342 225Q316 225 291 231Z" />
<glyph unicode="&#xa0;" glyph-name="uni00A0" horiz-adv-x="192" />
<glyph unicode="&#xa1;" glyph-name="exclamdown" horiz-adv-x="207" d="M76 396T60 413T43 458Q43 486 60 506T108 527Q134 527 150 510T166 464Q166 437 148 417T102 396Q76 396 60 413ZM75 -168T64 -154T53 -112L77 351H133L167 -156Q166 -157 160 -160T142
-165T111 -168Q75 -168 64 -154Z" />
<glyph unicode="&#xa2;" glyph-name="cent" horiz-adv-x="484" d="M153 72T105 137T56 316Q56 424 104 500T243 594L248 705H310L315 599Q375 596 405 587T436 577V434H379L363 516Q363 517 338 522T289 528Q219 528 191 482T162 333Q162 232 196 183T303 134Q337
134 366 138T414 147T436 154V111Q432 108 416 98T374 76T315 60L310 -49H249L244 61Q153 72 105 137Z" />
<glyph unicode="&#xa3;" glyph-name="sterling" horiz-adv-x="517" d="M65 71T83 106T102 174V307H38V373H102V472Q102 561 153 610T301 659Q338 659 382 652T456 635V488H401L378 580Q367 585 344 588T297 591Q242 591 220 565T197 472V373H326V307H197V174Q197
141 185 116T151 80V75H399L422 180H476V0H37V49Q65 71 83 106Z" />
<glyph unicode="&#xa4;" glyph-name="currency" horiz-adv-x="530" d="M55 258T55 327Q55 393 93 447L10 535L55 579L143 495Q196 532 260 532Q294 532 325 521T382 491L475 578L520 534L430 440Q466 388 466 327Q466 264 428 209L520 114L475 70L381 161Q328
122 260 122Q194 122 145 156L54 71L10 115L95 204Q55 258 55 327ZM139 295T155 268T200 224T260 207Q292 207 320 223T364 267T381 327Q381 359 365 387T320 431T260 448Q228 448 200 432T156 387T139 327Q139 295 155 268Z" />
<glyph unicode="&#xa5;" glyph-name="yen" horiz-adv-x="562" d="M386 648H608V603L545 586L427 369L533 366V314L394 310L361 249L533 243V191L359 189V64L440 48V0H174V48L255 64V189L86 193V245L248 249L213 312L86 315V367L180 370L59 587L-4 603V648H248V603L176
587V570L314 309H327L463 572V587L386 603V648Z" />
<glyph unicode="&#xa6;" glyph-name="brokenbar" horiz-adv-x="361" d="M146 699H215V334H146V699ZM146 209H215V-156H146V209Z" />
<glyph unicode="&#xa7;" glyph-name="section" horiz-adv-x="551" d="M256 348Q194 387 162 412T109 468T88 541Q88 614 140 657T293 701Q345 701 396 692T464 676V518H409L389 615Q386 616 374 619T340 626T291 630Q236 630 212 613T188 552Q188 529 200 511T237
474T312 420L332 406L511 288L462 216L290 326L256 348ZM148 44L168 -62Q219 -100 280 -100Q340 -100 368 -78T397 -10Q397 24 370 49T280 118Q278 119 263 129L76 248L124 318L336 189Q416 139 453 98T490 6Q490 -75 431 -120T280 -165Q218 -165 164 -149T90 -117V44H148Z"
/>
<glyph unicode="&#xa8;" glyph-name="dieresis" horiz-adv-x="334" d="M32 571T16 588T0 632Q0 659 18 678T62 698Q88 698 103 682T119 638Q119 610 102 591T57 571Q32 571 16 588ZM247 571T231 588T215 632Q215 659 233 678T277 698Q303 698 318 682T334 638Q334
610 317 591T272 571Q247 571 231 588Z" />
<glyph unicode="&#xa9;" glyph-name="copyright" horiz-adv-x="653" d="M1 414T45 489T164 608T328 652Q417 652 491 608T610 489T654 325Q654 236 610 162T492 43T328 -1Q239 -1 164 43T45 161T1 325Q1 414 45 489ZM400 55T460 91T555 189T590 324Q590 397 556
459T461 557T327 593Q254 593 195 557T101 459T67 324Q67 251 101 189T194 91T327 55Q400 55 460 91ZM444 275V177Q393 155 320 155Q163 155 163 323Q163 370 183 409T241 472T329 495Q363 495 393 491T441 481V382H404L394 434Q373 441 339 441Q303 441 283 431T253
395T243 322Q243 259 266 234T340 208Q380 208 398 220L409 275H444Z" />
<glyph unicode="&#xaa;" glyph-name="ordfeminine" horiz-adv-x="376" d="M77 353T50 377T23 441Q23 482 53 508T136 543L214 554V597Q214 626 199 639T151 653Q136 653 114 649L101 591Q91 586 71 586Q34 586 34 620Q34 640 56 660T112 693T181 706Q235 706 264
685T294 624V417L344 403V372Q328 365 306 361T267 356Q226 356 217 388L214 387Q198 372 173 363T123 353Q77 353 50 377ZM174 410T188 413T214 421V510Q156 506 131 493T105 452Q105 432 120 421T162 410Q174 410 188 413Z" />
<glyph unicode="&#xab;" glyph-name="guillemotleft" horiz-adv-x="390" d="M75 179T62 195T40 224T31 245Q31 259 74 308L175 420L209 398L127 245L209 89L175 67L80 173Q75 179 62 195ZM235 179T222 195T200 224T191 245Q191 260 233 308L334 420L369 398L287
245L369 89L334 67L240 173Q235 179 222 195Z" />
<glyph unicode="&#xac;" glyph-name="logicalnot" horiz-adv-x="530" d="M39 364H464V119H401V295H39V364Z" />
<glyph unicode="&#xad;" glyph-name="uni00AD" horiz-adv-x="313" d="M39 301L259 318V233H39V301Z" />
<glyph unicode="&#xae;" glyph-name="registered" horiz-adv-x="691" d="M255 225T192 262T91 363T53 503Q53 579 90 642T191 743T331 781Q407 781 470 744T571 643T609 503Q609 427 572 364T471 263T331 225Q255 225 192 262ZM390 282T439 311T517 391T546 503Q546
564 518 614T440 694T331 724Q271 724 222 695T145 615T116 503Q116 442 144 392T222 312T331 282Q390 282 439 311ZM178 386L218 393V608L181 614V648H354Q398 648 424 627T450 571Q450 540 433 516T388 482L448 396L487 387V358H407Q390 358 383 371L319 469H291V393L331
386V357H178V386ZM316 508Q345 508 359 522T373 565Q373 588 362 598T324 608Q307 608 291 605V508H316Z" />
<glyph unicode="&#xaf;" glyph-name="overscore" horiz-adv-x="350" d="M12 665H348L337 600H1L12 665Z" />
<glyph unicode="&#xb0;" glyph-name="degree" horiz-adv-x="238" d="M17 613T46 642T118 672Q161 672 190 643T220 570Q220 527 191 498T118 469Q75 469 46 498T17 570Q17 613 46 642ZM71 549T84 536T118 522Q139 522 153 535T167 569Q167 590 153 604T118 618Q98
618 85 604T71 569Q71 549 84 536Z" />
<glyph unicode="&#xb1;" glyph-name="plusminus" horiz-adv-x="530" d="M226 127V291H64V360H226V527H302V360H464V291H302V127H226ZM65 -3V67H463V-3H65Z" />
<glyph unicode="&#xb2;" glyph-name="uni00B2" horiz-adv-x="345" d="M123 487Q168 529 188 553T209 603Q209 630 195 639T150 649Q133 649 119 646T101 640L90 581H42V675Q59 687 91 698T159 709Q225 709 260 687T296 615Q296 576 273 545T186 461L136 421V417H257L268
471H314V360H34V404L123 487Z" />
<glyph unicode="&#xb3;" glyph-name="uni00B3" horiz-adv-x="345" d="M98 467L103 421Q125 410 162 410Q196 410 213 421T230 458Q230 489 213 501T160 514H135L125 539V566H151Q183 566 202 576T221 610Q221 633 206 642T161 652Q143 652 128 649T108 643L99
586H51L49 678Q66 688 97 698T169 709Q233 709 266 687T299 622Q299 593 283 575T243 548Q313 529 313 464Q313 412 271 383T163 354Q135 354 100 361T47 378L49 467H98Z" />
<glyph unicode="&#xb4;" glyph-name="acute" horiz-adv-x="205" d="M105 688Q120 705 130 713T151 721Q167 721 183 703T205 652L30 535L0 569L105 688Z" />
<glyph unicode="&#xb5;" glyph-name="uni00B5" horiz-adv-x="541" d="M67 -149V494L133 505L164 491V167Q164 107 185 85T266 63Q285 63 311 69T356 84V494L423 505L454 491V71L532 58V16Q508 7 477 1T422 -5Q373 -5 360 42H355Q325 19 284 5T209 -10Q167 -10
139 2Q144 -14 146 -28L157 -153L98 -163L67 -149Z" />
<glyph unicode="&#xb6;" glyph-name="paragraph" horiz-adv-x="643" d="M228 196T178 223T97 301T65 422Q65 492 96 543T178 621T282 648H600V599L526 585H359V-40H281V196Q228 196 178 223ZM349 -102Q386 -98 405 -88T431 -60T438 -11V532H516V-31Q516 -88 483
-126T378 -165H218V-118L349 -102Z" />
<glyph unicode="&#xb7;" glyph-name="middot" horiz-adv-x="191" d="M66 194T49 212T32 260Q32 289 51 310T99 331Q127 331 143 314T160 267Q160 237 142 216T93 194Q66 194 49 212Z" />
<glyph unicode="&#xb8;" glyph-name="cedilla" horiz-adv-x="174" d="M40 -189T23 -185T-13 -172L4 -132Q33 -144 60 -144Q112 -144 112 -115Q112 -102 106 -97T83 -88L49 -81L28 -61L55 0H98V-29L116 -34Q151 -42 169 -55T187 -98Q187 -145 153 -167T64 -189Q40
-189 23 -185Z" />
<glyph unicode="&#xb9;" glyph-name="uni00B9" horiz-adv-x="345" d="M55 410L146 413V644H51V693L166 703H225V411L316 409V360H55V410Z" />
<glyph unicode="&#xba;" glyph-name="ordmasculine" horiz-adv-x="386" d="M107 354T66 399T25 525Q25 574 46 616T106 683T197 709Q273 709 316 664T359 541Q359 490 339 448T280 380T185 354Q107 354 66 399ZM241 412T257 440T274 529Q274 594 257 619T193 645Q143
645 127 618T111 529Q111 464 129 438T198 412Q241 412 257 440Z" />
<glyph unicode="&#xbb;" glyph-name="guillemotright" horiz-adv-x="390" d="M21 398L56 420L157 308Q159 305 179 281T200 244Q200 236 190 222T168 194T151 173L56 67L21 89L103 244L21 398ZM181 398L216 420L316 308Q359 259 359 244Q359 235 348 220T325 191T310
173L216 67L181 89L263 244L181 398Z" />
<glyph unicode="&#xbc;" glyph-name="onequarter" horiz-adv-x="762" d="M573 692L630 654L149 -41L91 -2L573 692ZM31 360L101 363V594H27V643L121 653H180V361L250 359V310H31V360ZM509 44L575 50V95H430L407 135L588 363L653 340V146H709V95H653V50L718 45V0H509V44ZM575
146V270L484 149V146H575Z" />
<glyph unicode="&#xbd;" glyph-name="onehalf" horiz-adv-x="738" d="M132 -40L74 -2L556 692L612 654L132 -40ZM26 310V360L96 363V594H22V643L116 653H175V361L245 359V310H26ZM427 45L516 127Q560 168 581 193T602 243Q602 270 588 279T544 289Q527 289 513
286T494 280L483 221H435V316Q453 328 485 338T552 349Q618 349 653 328T689 256Q689 217 666 186T579 102L530 61V57H650L661 111H707V0H427V45Z" />
<glyph unicode="&#xbe;" glyph-name="threequarters" horiz-adv-x="717" d="M159 -41L101 -2L582 692L639 654L159 -41ZM115 304T80 311T27 328L30 417H78L84 371Q102 360 142 360Q176 360 193 371T210 408Q210 439 193 451T140 464H115L105 489V516H131Q163 516
182 526T202 560Q202 583 186 592T141 602Q123 602 108 599T89 593L80 536H31L29 628Q48 639 79 649T149 659Q213 659 246 637T279 572Q279 543 263 525T223 498Q293 479 293 414Q293 362 251 333T143 304Q115 304 80 311ZM483 0V44L549 50V95H404L381 135L562
363L627 340V146H683V95H627V50L692 45V0H483ZM458 146H549V270L458 149V146Z" />
<glyph unicode="&#xbf;" glyph-name="questiondown" horiz-adv-x="362" d="M219 388T203 405T186 450Q186 478 203 498T251 519Q277 519 293 502T309 456Q309 428 291 408T245 388Q219 388 203 405ZM183 -161T134 -135T56 -62T28 50Q28 110 61 149T146 206L199
223L220 340H281L285 170L194 137Q151 122 133 96T115 20Q115 -17 125 -34T157 -58T225 -64H320Q321 -66 324 -72T331 -87T334 -106Q334 -135 317 -148T246 -161Q183 -161 134 -135Z" />
<glyph unicode="&#xc0;" glyph-name="Agrave" horiz-adv-x="622" d="M172 795T184 816T217 838Q225 838 237 831T262 816L397 718L374 678L173 759Q172 795 184 816ZM-9 47L55 62L270 654H340L566 62L632 47V0H372V47L446 62L443 82L405 184H176L140 81L138 62L216
47V0H-9V47ZM384 248L295 492L291 507L288 510L283 490L198 248H384Z" />
<glyph unicode="&#xc1;" glyph-name="Aacute" horiz-adv-x="622" d="M337 816Q342 819 352 825T369 835T382 838Q404 838 416 817T427 759L226 678L203 718L337 816ZM-9 47L55 62L270 654H340L566 62L632 47V0H372V47L446 62L443 82L405 184H176L140 81L138 62L216
47V0H-9V47ZM384 248L295 492L291 507L288 510L283 490L198 248H384Z" />
<glyph unicode="&#xc2;" glyph-name="Acircumflex" horiz-adv-x="622" d="M236 790Q273 820 285 828T305 837Q314 837 325 830T356 805L374 790L462 720L430 676L300 740L169 677L144 715L236 790ZM-9 47L55 62L270 654H340L566 62L632 47V0H372V47L446 62L443
82L405 184H176L140 81L138 62L216 47V0H-9V47ZM384 248L295 492L291 507L288 510L283 490L198 248H384Z" />
<glyph unicode="&#xc3;" glyph-name="Atilde" horiz-adv-x="622" d="M163 782Q176 802 193 809T232 817Q257 817 298 804L383 776L461 813L488 784L452 734Q439 714 422 707T383 699Q358 699 317 712L232 740L155 703L127 732L163 782ZM-9 47L55 62L270 654H340L566
62L632 47V0H372V47L446 62L443 82L405 184H176L140 81L138 62L216 47V0H-9V47ZM384 248L295 492L291 507L288 510L283 490L198 248H384Z" />
<glyph unicode="&#xc4;" glyph-name="Adieresis" horiz-adv-x="622" d="M166 689T150 706T134 750Q134 777 152 796T196 816Q222 816 237 800T253 756Q253 728 236 709T191 689Q166 689 150 706ZM387 689T372 706T356 750Q356 777 373 796T417 816Q443 816 458
800T474 756Q474 728 457 709T412 689Q387 689 372 706ZM-9 47L55 62L270 654H340L566 62L632 47V0H372V47L446 62L443 82L405 184H176L140 81L138 62L216 47V0H-9V47ZM384 248L295 492L291 507L288 510L283 490L198 248H384Z" />
<glyph unicode="&#xc5;" glyph-name="Aring" horiz-adv-x="622" d="M632 47V0H372V47L446 62L443 82L405 184H176L140 81L138 62L216 47V0H-9V47L55 62L270 654H277Q242 660 227 681T211 739Q211 781 237 805T308 829Q351 829 375 808T400 745Q400 665 328 654H340L566
62L632 47ZM266 718T274 709T307 700Q329 700 337 709T345 741Q345 764 338 773T306 783Q284 783 275 775T266 743Q266 718 274 709ZM198 248H384L295 492L291 507L288 510L283 490L198 248Z" />
<glyph unicode="&#xc6;" glyph-name="AE" horiz-adv-x="820" d="M59 62L335 648H734L739 477H685L659 587H557L478 580L499 330H625L642 385H687L693 210H648L628 267H504L522 70Q557 63 607 63H719L739 174H793L798 0H337L335 47L417 65L399 266H231L145 80L142
62L217 47V0H-8V47L59 62ZM394 330L373 578L262 330H394Z" />
<glyph unicode="&#xc7;" glyph-name="Ccedilla" horiz-adv-x="610" d="M301 -144T328 -144Q380 -144 380 -115Q380 -102 374 -97T351 -88L317 -81L296 -61L317 -12Q179 -7 111 76T42 316Q42 410 81 489T191 615T356 662Q477 662 555 633V469H499L478 578Q418 595
352 595Q282 595 241 567T181 479T162 319Q162 187 211 119T355 51Q429 51 455 67T482 84L503 191H559V31Q519 13 476 2T366 -13V-29L384 -34Q419 -42 437 -55T455 -98Q455 -145 421 -167T332 -189Q308 -189 291 -185T255 -172L272 -132Q301 -144 328 -144Z" />
<glyph unicode="&#xc8;" glyph-name="Egrave" horiz-adv-x="575" d="M182 795T194 816T228 838Q236 838 248 831T273 816L407 718L385 678L183 759Q182 795 194 816ZM131 65V584L49 601V648H519V477H464L442 587H316L234 580V360H375L392 422H437V236H392L375
301H234V70Q273 63 323 63H450L474 174H528V0H49V47L131 65Z" />
<glyph unicode="&#xc9;" glyph-name="Eacute" horiz-adv-x="575" d="M341 816Q346 819 356 825T373 835T386 838Q408 838 420 817T431 759L230 678L207 718L341 816ZM131 65V584L49 601V648H519V477H464L442 587H316L234 580V360H375L392 422H437V236H392L375
301H234V70Q273 63 323 63H450L474 174H528V0H49V47L131 65Z" />
<glyph unicode="&#xca;" glyph-name="Ecircumflex" horiz-adv-x="575" d="M232 790Q269 820 281 828T301 837Q310 837 321 830T352 805L370 790L458 720L426 676L296 740L165 677L140 715L232 790ZM131 65V584L49 601V648H519V477H464L442 587H316L234 580V360H375L392
422H437V236H392L375 301H234V70Q273 63 323 63H450L474 174H528V0H49V47L131 65Z" />
<glyph unicode="&#xcb;" glyph-name="Edieresis" horiz-adv-x="575" d="M167 694T151 711T135 755Q135 782 152 801T197 820Q223 820 238 804T254 761Q254 733 237 714T192 694Q167 694 151 711ZM388 694T373 711T357 755Q357 782 374 801T418 820Q444 820 459
804T475 761Q475 733 458 714T413 694Q388 694 373 711ZM131 65V584L49 601V648H519V477H464L442 587H316L234 580V360H375L392 422H437V236H392L375 301H234V70Q273 63 323 63H450L474 174H528V0H49V47L131 65Z" />
<glyph unicode="&#xcc;" glyph-name="Igrave" horiz-adv-x="370" d="M69 795T81 816T114 838Q122 838 132 833T149 823T159 816L294 718L271 678L70 759Q69 795 81 816ZM52 48L133 64V584L52 600V648H318V600L237 584V64L318 48V0H52V48Z" />
<glyph unicode="&#xcd;" glyph-name="Iacute" horiz-adv-x="370" d="M211 816Q216 819 226 825T243 835T256 838Q278 838 290 817T301 759L100 678L77 718L211 816ZM52 48L133 64V584L52 600V648H318V600L237 584V64L318 48V0H52V48Z" />
<glyph unicode="&#xce;" glyph-name="Icircumflex" horiz-adv-x="370" d="M114 790L130 803Q154 823 164 830T183 837Q191 837 203 829T231 808T253 790L341 720L308 676L179 740L48 677L23 715L114 790ZM52 48L133 64V584L52 600V648H318V600L237 584V64L318
48V0H52V48Z" />
<glyph unicode="&#xcf;" glyph-name="Idieresis" horiz-adv-x="370" d="M47 694T31 711T15 755Q15 782 32 801T77 820Q103 820 118 804T134 761Q134 733 117 714T72 694Q47 694 31 711ZM268 694T252 711T236 755Q236 782 253 801T298 820Q324 820 339 804T355
761Q355 733 338 714T293 694Q268 694 252 711ZM52 0V48L133 64V584L52 600V648H318V600L237 584V64L318 48V0H52Z" />
<glyph unicode="&#xd0;" glyph-name="Eth" horiz-adv-x="715" d="M137 65V302H52V365H137V583L55 601V648H364Q511 648 590 567T669 331Q669 232 629 157T516 41T347 0H55V47L137 65ZM268 59T320 59Q406 59 455 85T527 171T550 332Q550 469 496 527T331 585Q289
585 239 580V365H398V302H239V66Q268 59 320 59Z" />
<glyph unicode="&#xd1;" glyph-name="Ntilde" horiz-adv-x="729" d="M421 699T382 712L296 740L219 703L191 732L228 782Q241 802 258 809T296 817Q322 817 363 804L448 776L525 813L553 784L517 734Q503 714 486 707T448 699Q421 699 382 712ZM49 0V46L122 63V585L57
599V648H227L526 176L537 156H544V585L472 602V648H689V602L616 585V0H515L208 482L201 495H194V63L267 46V0H49Z" />
<glyph unicode="&#xd2;" glyph-name="Ograve" horiz-adv-x="699" d="M234 759Q233 795 245 816T279 838Q287 838 299 831T324 816L458 718L436 678L234 759ZM197 -15T120 71T42 313Q42 412 80 491T192 616T366 662Q504 662 580 576T657 337Q657 235 623 156T518
31T343 -15Q197 -15 120 71ZM454 50T495 115T537 316Q537 424 515 485T453 571T351 595Q289 595 249 575T186 497T162 325Q162 178 211 114T363 50Q454 50 495 115Z" />
<glyph unicode="&#xd3;" glyph-name="Oacute" horiz-adv-x="699" d="M246 718L381 816Q393 824 405 831T426 838Q447 838 459 816T470 759L269 678L246 718ZM197 -15T120 71T42 313Q42 412 80 491T192 616T366 662Q504 662 580 576T657 337Q657 235 623 156T518
31T343 -15Q197 -15 120 71ZM454 50T495 115T537 316Q537 424 515 485T453 571T351 595Q289 595 249 575T186 497T162 325Q162 178 211 114T363 50Q454 50 495 115Z" />
<glyph unicode="&#xd4;" glyph-name="Ocircumflex" horiz-adv-x="699" d="M284 790Q321 820 333 828T353 837Q362 837 373 830T404 805L422 790L510 720L478 676L348 740L217 677L192 715L284 790ZM197 -15T120 71T42 313Q42 412 80 491T192 616T366 662Q504 662
580 576T657 337Q657 235 623 156T518 31T343 -15Q197 -15 120 71ZM454 50T495 115T537 316Q537 424 515 485T453 571T351 595Q289 595 249 575T186 497T162 325Q162 178 211 114T363 50Q454 50 495 115Z" />
<glyph unicode="&#xd5;" glyph-name="Otilde" horiz-adv-x="699" d="M407 699T366 712L281 740L204 703L176 732L212 782Q225 802 242 809T281 817Q306 817 347 804L432 776L510 813L537 784L501 734Q488 714 471 707T432 699Q407 699 366 712ZM197 -15T120 71T42
313Q42 412 80 491T192 616T366 662Q504 662 580 576T657 337Q657 235 623 156T518 31T343 -15Q197 -15 120 71ZM454 50T495 115T537 316Q537 424 515 485T453 571T351 595Q289 595 249 575T186 497T162 325Q162 178 211 114T363 50Q454 50 495 115Z" />
<glyph unicode="&#xd6;" glyph-name="Odieresis" horiz-adv-x="699" d="M215 694T199 711T183 755Q183 782 200 801T245 820Q271 820 286 804T302 761Q302 733 285 714T240 694Q215 694 199 711ZM436 694T421 711T405 755Q405 782 422 801T466 820Q492 820 507
804T523 761Q523 733 506 714T461 694Q436 694 421 711ZM197 -15T120 71T42 313Q42 412 80 491T192 616T366 662Q504 662 580 576T657 337Q657 235 623 156T518 31T343 -15Q197 -15 120 71ZM454 50T495 115T537 316Q537 424 515 485T453 571T351 595Q289 595 249
575T186 497T162 325Q162 178 211 114T363 50Q454 50 495 115Z" />
<glyph unicode="&#xd7;" glyph-name="multiply" horiz-adv-x="530" d="M83 142L212 271L83 401L136 454L264 324L393 454L448 399L319 270L448 141L395 88L266 217L136 88L83 142Z" />
<glyph unicode="&#xd8;" glyph-name="Oslash" horiz-adv-x="699" d="M110 64T76 137T42 313Q42 412 80 491T192 616T366 662Q402 662 447 653L477 720L540 692L512 629Q582 591 619 517T657 337Q657 235 623 156T518 31T343 -15Q292 -15 242 -2L212 -73L147 -45L177
25Q110 64 76 137ZM388 595T351 595Q289 595 249 575T186 497T162 325Q162 179 214 113L418 586Q388 595 351 595ZM308 50T363 50Q454 50 495 115T537 316Q537 405 522 461T478 548L271 67Q308 50 363 50Z" />
<glyph unicode="&#xd9;" glyph-name="Ugrave" horiz-adv-x="718" d="M242 759Q241 795 253 816T286 838Q294 838 304 833T321 823T331 816L466 718L443 678L242 759ZM261 -15T209 16T135 110T114 278V584L32 600V648H297V600L217 584V278Q217 188 231 142T281
77T384 58Q443 58 475 81T521 151T535 278V583L454 599V648H692V599L611 583V278Q611 176 588 113T510 17T357 -15Q261 -15 209 16Z" />
<glyph unicode="&#xda;" glyph-name="Uacute" horiz-adv-x="718" d="M281 718L415 816Q420 819 430 825T447 835T460 838Q482 838 494 817T505 759L304 678L281 718ZM261 -15T209 16T135 110T114 278V584L32 600V648H297V600L217 584V278Q217 188 231 142T281
77T384 58Q443 58 475 81T521 151T535 278V583L454 599V648H692V599L611 583V278Q611 176 588 113T510 17T357 -15Q261 -15 209 16Z" />
<glyph unicode="&#xdb;" glyph-name="Ucircumflex" horiz-adv-x="718" d="M306 790L322 803Q347 823 357 830T376 837Q384 837 393 831T425 806Q445 789 444 790L533 720L500 676L370 740L240 677L214 715L306 790ZM32 600V648H297V600L217 584V278Q217 188 231
142T281 77T384 58Q443 58 475 81T521 151T535 278V583L454 599V648H692V599L611 583V278Q611 176 588 113T510 17T357 -15Q261 -15 209 16T135 110T114 278V584L32 600Z" />
<glyph unicode="&#xdc;" glyph-name="Udieresis" horiz-adv-x="718" d="M234 701T218 718T202 762Q202 789 219 808T264 827Q290 827 305 811T321 768Q321 740 304 721T259 701Q234 701 218 718ZM455 701T439 718T423 762Q423 789 440 808T485 827Q511 827 526
811T542 768Q542 740 525 721T480 701Q455 701 439 718ZM261 -15T209 16T135 110T114 278V584L32 600V648H297V600L217 584V278Q217 188 231 142T281 77T384 58Q443 58 475 81T521 151T535 278V583L454 599V648H692V599L611 583V278Q611 176 588 113T510 17T357
-15Q261 -15 209 16Z" />
<glyph unicode="&#xdd;" glyph-name="Yacute" horiz-adv-x="593" d="M215 718L350 816Q362 824 374 831T395 838Q416 838 428 816T439 759L238 678L215 718ZM171 0V48L252 64V237L56 587L-7 603V648H245V603L174 587V570L311 309H324L460 572V587L384 603V648H605V603L542
586L356 246V64L437 48V0H171Z" />
<glyph unicode="&#xde;" glyph-name="Thorn" horiz-adv-x="567" d="M52 48L133 64V584L52 600V648H318V600L237 584V510H324Q436 510 488 474T541 353Q541 151 302 151H237V64L318 48V0H52V48ZM288 209Q365 209 399 238T433 335Q433 396 403 422T308 448L237 447V209H288Z"
/>
<glyph unicode="&#xdf;" glyph-name="germandbls" horiz-adv-x="609" d="M349 -11T307 2T248 27L258 156H306L323 77Q335 66 354 58T401 50Q443 50 463 71T483 126Q483 150 474 163T445 185T386 206Q347 219 323 231T282 269T265 337Q265 372 277 397T304 437T346
473Q376 496 389 513T403 560Q403 594 380 613T307 633Q194 633 194 521V0H25V45L97 59V433H31V485L96 499Q97 596 157 649T316 702Q398 702 449 665T500 561Q500 501 452 459Q438 446 416 431Q386 409 371 392T356 350Q356 323 374 311T436 285Q480 270 508 255T554
213T572 141Q572 64 521 27T396 -11Q349 -11 307 2Z" />
<glyph unicode="&#xe0;" glyph-name="agrave" horiz-adv-x="489" d="M126 652Q132 684 148 702T180 721Q191 721 200 714T225 688L331 569L300 535L126 652ZM104 -9T69 27T33 117Q33 180 78 217T208 267L304 282V354Q304 396 282 416T213 436Q191 436 176 433T156
429L141 337Q139 336 129 333T103 329Q80 329 65 342T50 379Q50 418 86 446T171 490T257 505Q327 505 363 473T400 384V72L472 58V16Q468 14 453 9T416 0T369 -5Q340 -5 328 7T311 42H305Q292 27 256 9T176 -9Q104 -9 69 27ZM251 61T272 67T304 79V228Q213 221
175 199T137 133Q137 101 159 81T224 61Q251 61 272 67Z" />
<glyph unicode="&#xe1;" glyph-name="aacute" horiz-adv-x="489" d="M145 569L250 688Q264 704 274 712T295 721Q311 721 327 703T350 652L175 535L145 569ZM104 -9T69 27T33 117Q33 180 78 217T208 267L304 282V354Q304 396 282 416T213 436Q191 436 176 433T156
429L141 337Q139 336 129 333T103 329Q80 329 65 342T50 379Q50 418 86 446T171 490T257 505Q327 505 363 473T400 384V72L472 58V16Q468 14 453 9T416 0T369 -5Q340 -5 328 7T311 42H305Q292 27 256 9T176 -9Q104 -9 69 27ZM251 61T272 67T304 79V228Q213 221
175 199T137 133Q137 101 159 81T224 61Q251 61 272 67Z" />
<glyph unicode="&#xe2;" glyph-name="acircumflex" horiz-adv-x="489" d="M229 623L113 543L84 578L188 684Q217 713 238 713Q255 713 278 690L384 581L348 542L229 623ZM104 -9T69 27T33 117Q33 180 78 217T208 267L304 282V354Q304 396 282 416T213 436Q191
436 176 433T156 429L141 337Q139 336 129 333T103 329Q80 329 65 342T50 379Q50 418 86 446T171 490T257 505Q327 505 363 473T400 384V72L472 58V16Q468 14 453 9T416 0T369 -5Q340 -5 328 7T311 42H305Q292 27 256 9T176 -9Q104 -9 69 27ZM251 61T272 67T304
79V228Q213 221 175 199T137 133Q137 101 159 81T224 61Q251 61 272 67Z" />
<glyph unicode="&#xe3;" glyph-name="atilde" horiz-adv-x="489" d="M288 571T263 578T233 586L147 613L77 578L51 602L82 653Q93 671 110 680T148 690Q167 690 221 675L307 648L377 684L403 660L372 608Q349 571 307 571Q288 571 263 578ZM104 -9T69 27T33 117Q33
180 78 217T208 267L304 282V354Q304 396 282 416T213 436Q191 436 176 433T156 429L141 337Q139 336 129 333T103 329Q80 329 65 342T50 379Q50 418 86 446T171 490T257 505Q327 505 363 473T400 384V72L472 58V16Q468 14 453 9T416 0T369 -5Q340 -5 328 7T311
42H305Q292 27 256 9T176 -9Q104 -9 69 27ZM251 61T272 67T304 79V228Q213 221 175 199T137 133Q137 101 159 81T224 61Q251 61 272 67Z" />
<glyph unicode="&#xe4;" glyph-name="adieresis" horiz-adv-x="489" d="M91 571T75 588T59 632Q59 659 77 678T121 698Q146 698 162 682T178 638Q178 610 161 591T116 571Q91 571 75 588ZM306 571T290 588T274 632Q274 659 292 678T336 698Q362 698 377 682T393
638Q393 610 376 591T331 571Q306 571 290 588ZM104 -9T69 27T33 117Q33 180 78 217T208 267L304 282V354Q304 396 282 416T213 436Q191 436 176 433T156 429L141 337Q139 336 129 333T103 329Q80 329 65 342T50 379Q50 418 86 446T171 490T257 505Q327 505 363
473T400 384V72L472 58V16Q468 14 453 9T416 0T369 -5Q340 -5 328 7T311 42H305Q292 27 256 9T176 -9Q104 -9 69 27ZM251 61T272 67T304 79V228Q213 221 175 199T137 133Q137 101 159 81T224 61Q251 61 272 67Z" />
<glyph unicode="&#xe5;" glyph-name="aring" horiz-adv-x="489" d="M180 543T157 566T133 630Q133 670 159 697T234 725Q280 725 304 701T328 636Q328 596 301 570T227 543Q180 543 157 566ZM252 587T260 597T268 634Q268 660 259 669T229 679Q208 679 201 669T193
634Q193 606 201 597T231 587Q252 587 260 597ZM104 -9T69 27T33 117Q33 180 78 217T208 267L304 282V354Q304 396 282 416T213 436Q191 436 176 433T156 429L141 337Q139 336 129 333T103 329Q80 329 65 342T50 379Q50 418 86 446T171 490T257 505Q327 505 363
473T400 384V72L472 58V16Q468 14 453 9T416 0T369 -5Q340 -5 328 7T311 42H305Q292 27 256 9T176 -9Q104 -9 69 27ZM251 61T272 67T304 79V228Q213 221 175 199T137 133Q137 101 159 81T224 61Q251 61 272 67Z" />
<glyph unicode="&#xe6;" glyph-name="ae" horiz-adv-x="741" d="M311 350Q311 392 290 412T221 432Q199 432 184 429T165 425L145 337Q143 336 133 333T108 329Q84 329 71 340T57 378Q57 418 93 447T179 490T265 505Q309 505 341 490T391 446Q417 475 453 490T531
505Q631 505 670 445T710 274Q710 250 702 241T675 230L414 223Q414 150 439 108T540 66Q580 66 611 70T660 78T682 84L694 48Q694 46 672 31T613 3T529 -10Q417 -10 364 55Q296 -9 185 -9Q112 -9 77 27T41 117Q41 184 89 223T219 267L311 273V350ZM613 309T613
329Q613 390 594 412T522 434Q465 434 441 392T416 279L610 291Q613 309 613 329ZM219 215T182 197T145 136Q145 103 166 82T231 61Q257 61 278 69T311 84V218Q219 215 182 197Z" />
<glyph unicode="&#xe7;" glyph-name="ccedilla" horiz-adv-x="452" d="M212 -189T195 -185T159 -172L176 -132Q205 -144 232 -144Q284 -144 284 -115Q284 -102 278 -97T255 -88L220 -81L200 -61L223 -8Q134 1 85 63T36 235Q36 315 64 376T145 471T265 505Q338
505 381 469T425 379Q425 358 412 343T369 328Q347 328 336 335L319 430Q310 434 294 437T262 440Q194 440 167 397T140 252Q140 151 176 109T294 66Q322 66 346 70T385 78T404 85L418 51Q418 49 398 35T345 7T270 -9V-29L288 -34Q323 -42 341 -55T359 -98Q359
-145 325 -167T236 -189Q212 -189 195 -185Z" />
<glyph unicode="&#xe8;" glyph-name="egrave" horiz-adv-x="474" d="M134 652Q140 684 156 702T188 721Q199 721 209 713T234 688L339 569L308 535L134 652ZM147 -10T91 54T34 235Q34 315 63 376T143 471T261 505Q350 505 392 451T435 318Q435 266 425 248T387
230H138Q139 155 174 111T288 66Q324 66 351 71T392 82T410 90L426 57Q426 55 403 38T342 5T257 -10Q147 -10 91 54ZM334 290Q337 308 337 328Q337 386 319 413T249 440Q192 440 167 400T139 282L334 290Z" />
<glyph unicode="&#xe9;" glyph-name="eacute" horiz-adv-x="474" d="M157 569L262 688Q278 705 287 713T308 721Q324 721 340 703T362 652L187 535L157 569ZM147 -10T91 54T34 235Q34 315 63 376T143 471T261 505Q350 505 392 451T435 318Q435 266 425 248T387
230H138Q139 155 174 111T288 66Q324 66 351 71T392 82T410 90L426 57Q426 55 403 38T342 5T257 -10Q147 -10 91 54ZM334 290Q337 308 337 328Q337 386 319 413T249 440Q192 440 167 400T139 282L334 290Z" />
<glyph unicode="&#xea;" glyph-name="ecircumflex" horiz-adv-x="474" d="M235 623L119 543L90 578L195 684Q224 713 244 713Q261 713 284 690L390 581L354 542L235 623ZM147 -10T91 54T34 235Q34 315 63 376T143 471T261 505Q350 505 392 451T435 318Q435 266
425 248T387 230H138Q139 155 174 111T288 66Q324 66 351 71T392 82T410 90L426 57Q426 55 403 38T342 5T257 -10Q147 -10 91 54ZM334 290Q337 308 337 328Q337 386 319 413T249 440Q192 440 167 400T139 282L334 290Z" />
<glyph unicode="&#xeb;" glyph-name="edieresis" horiz-adv-x="474" d="M114 571T98 588T82 632Q82 659 100 678T144 698Q169 698 185 682T201 638Q201 610 184 591T139 571Q114 571 98 588ZM329 571T313 588T297 632Q297 659 315 678T359 698Q385 698 400 682T416
638Q416 610 399 591T354 571Q329 571 313 588ZM147 -10T91 54T34 235Q34 315 63 376T143 471T261 505Q350 505 392 451T435 318Q435 266 425 248T387 230H138Q139 155 174 111T288 66Q324 66 351 71T392 82T410 90L426 57Q426 55 403 38T342 5T257 -10Q147 -10
91 54ZM334 290Q337 308 337 328Q337 386 319 413T249 440Q192 440 167 400T139 282L334 290Z" />
<glyph unicode="&#xec;" glyph-name="igrave" horiz-adv-x="298" d="M24 684T40 702T72 721Q83 721 93 713T118 688L223 569L192 535L18 652Q24 684 40 702ZM25 45L105 59V410L25 425V471L175 498L202 487V59L278 45V0H25V45Z" />
<glyph unicode="&#xed;" glyph-name="iacute" horiz-adv-x="298" d="M38 569L143 688Q159 706 168 713T188 721Q204 721 220 703T243 652L68 535L38 569ZM25 0V45L105 59V410L25 425V471L175 498L202 487V59L278 45V0H25Z" />
<glyph unicode="&#xee;" glyph-name="icircumflex" horiz-adv-x="298" d="M70 672Q89 693 104 706T129 719Q138 719 153 706T183 675L265 586L230 549L125 625L14 551L-13 583L70 672ZM25 45L105 59V410L25 425V471L175 498L202 487V59L278 45V0H25V45Z" />
<glyph unicode="&#xef;" glyph-name="idieresis" horiz-adv-x="299" d="M7 569T-9 586T-25 631Q-25 658 -8 677T37 696Q63 696 78 680T94 637Q94 609 77 589T32 569Q7 569 -9 586ZM194 569T178 586T162 631Q162 658 179 677T224 696Q250 696 265 680T281 637Q281
609 264 589T219 569Q194 569 178 586ZM26 0V45L106 59V410L26 425V471L176 498L203 487V59L279 45V0H26Z" />
<glyph unicode="&#xf0;" glyph-name="eth" horiz-adv-x="525" d="M151 -11T95 53T38 236Q38 310 67 364T150 447T273 476Q328 476 374 453Q354 546 301 588L195 525L166 573L244 621Q197 638 116 638V685Q121 686 141 688T195 691Q262 691 320 665L409 719L438
670L374 631Q431 584 462 504T494 314Q494 147 434 68T265 -11Q151 -11 95 53ZM318 53T343 77T377 147T387 271Q387 327 382 387Q329 408 273 408Q201 408 173 368T144 245Q144 187 152 147T189 80T271 53Q318 53 343 77Z" />
<glyph unicode="&#xf1;" glyph-name="ntilde" horiz-adv-x="584" d="M352 576T332 580T293 591L206 618L136 583L110 606L142 658Q152 676 169 685T208 695Q227 695 281 680L366 653L436 689L462 665L431 613Q421 595 404 586T366 576Q352 576 332 580ZM25 45L104
59V410L25 425V471L181 498L195 460L198 456Q223 472 268 489T355 506Q420 506 454 470T489 367V59L567 45V0H317V45L392 59V350Q392 393 370 411T295 430Q242 430 201 419V59L277 45V0H25V45Z" />
<glyph unicode="&#xf2;" glyph-name="ograve" horiz-adv-x="527" d="M157 684T173 702T205 721Q216 721 226 713T251 688L356 569L325 535L151 652Q157 684 173 702ZM146 -11T92 55T37 240Q37 312 64 372T145 469T274 506Q382 506 437 441T492 263Q492 186 466
124T387 26T254 -11Q146 -11 92 55ZM338 53T362 100T386 245Q386 349 360 394T266 440Q215 440 189 419T153 356T143 245Q143 147 171 100T273 53Q338 53 362 100Z" />
<glyph unicode="&#xf3;" glyph-name="oacute" horiz-adv-x="527" d="M286 688Q302 706 311 713T331 721Q347 721 363 703T386 652L211 535L181 569L286 688ZM146 -11T92 55T37 240Q37 312 64 372T145 469T274 506Q382 506 437 441T492 263Q492 186 466 124T387
26T254 -11Q146 -11 92 55ZM338 53T362 100T386 245Q386 349 360 394T266 440Q215 440 189 419T153 356T143 245Q143 147 171 100T273 53Q338 53 362 100Z" />
<glyph unicode="&#xf4;" glyph-name="ocircumflex" horiz-adv-x="527" d="M223 684Q252 713 272 713Q290 713 313 690L419 581L383 542L264 623L148 543L119 578L223 684ZM146 -11T92 55T37 240Q37 312 64 372T145 469T274 506Q382 506 437 441T492 263Q492 186
466 124T387 26T254 -11Q146 -11 92 55ZM338 53T362 100T386 245Q386 349 360 394T266 440Q215 440 189 419T153 356T143 245Q143 147 171 100T273 53Q338 53 362 100Z" />
<glyph unicode="&#xf5;" glyph-name="otilde" horiz-adv-x="527" d="M131 671T148 680T186 690Q206 690 260 675L345 648L415 684L441 660L410 608Q387 571 345 571Q331 571 311 575T272 586L185 613L115 578L89 602L120 653Q131 671 148 680ZM146 -11T92 55T37
240Q37 312 64 372T145 469T274 506Q382 506 437 441T492 263Q492 186 466 124T387 26T254 -11Q146 -11 92 55ZM338 53T362 100T386 245Q386 349 360 394T266 440Q215 440 189 419T153 356T143 245Q143 147 171 100T273 53Q338 53 362 100Z" />
<glyph unicode="&#xf6;" glyph-name="odieresis" horiz-adv-x="527" d="M132 571T116 588T100 632Q100 659 118 678T162 698Q188 698 203 682T219 638Q219 610 202 591T157 571Q132 571 116 588ZM347 571T332 588T316 632Q316 659 334 678T378 698Q403 698 419
682T435 638Q435 610 418 591T372 571Q347 571 332 588ZM146 -11T92 55T37 240Q37 312 64 372T145 469T274 506Q382 506 437 441T492 263Q492 186 466 124T387 26T254 -11Q146 -11 92 55ZM338 53T362 100T386 245Q386 349 360 394T266 440Q215 440 189 419T153
356T143 245Q143 147 171 100T273 53Q338 53 362 100Z" />
<glyph unicode="&#xf7;" glyph-name="divide" horiz-adv-x="530" d="M235 364T217 383T199 432Q199 462 218 483T268 505Q297 505 314 487T332 439Q332 408 313 386T263 364Q235 364 217 383ZM67 230V303H462V230H67ZM235 25T217 44T199 93Q199 123 219 144T268
166Q297 166 314 148T332 100Q332 69 313 47T263 25Q235 25 217 44Z" />
<glyph unicode="&#xf8;" glyph-name="oslash" horiz-adv-x="527" d="M98 -53L130 21Q83 51 60 107T37 240Q37 312 64 372T145 469T274 506Q307 506 339 498L371 572L429 547L397 474Q444 444 468 390T492 263Q492 186 466 124T387 26T254 -11Q229 -11 189 -3L157
-79L98 -53ZM310 433Q293 440 266 440Q215 440 189 419T153 356T143 245Q143 199 149 166T169 109L310 433ZM338 53T362 100T386 245Q386 347 361 391L217 62Q240 53 273 53Q338 53 362 100Z" />
<glyph unicode="&#xf9;" glyph-name="ugrave" horiz-adv-x="570" d="M156 652Q162 684 178 702T210 721Q221 721 231 713T256 688L361 569L331 535L156 652ZM165 -10T127 25T89 129V419L7 434V478L155 505L186 491V170Q186 109 208 86T289 62Q309 62 334 69T379
86V419L297 434V478L445 505L476 491V76L550 60V16L400 -5L381 44L378 43Q355 20 315 5T237 -10Q165 -10 127 25Z" />
<glyph unicode="&#xfa;" glyph-name="uacute" horiz-adv-x="570" d="M187 569L292 688Q307 705 317 713T338 721Q354 721 370 703T392 652L217 535L187 569ZM165 -10T127 25T89 129V419L7 434V478L155 505L186 491V170Q186 109 208 86T289 62Q309 62 334 69T379
86V419L297 434V478L445 505L476 491V76L550 60V16L400 -5L381 44L378 43Q355 20 315 5T237 -10Q165 -10 127 25Z" />
<glyph unicode="&#xfb;" glyph-name="ucircumflex" horiz-adv-x="570" d="M266 619L150 540L121 575L226 680Q256 710 275 710Q292 710 315 687L421 577L385 539L266 619ZM165 -10T127 25T89 129V419L7 434V478L155 505L186 491V170Q186 109 208 86T289 62Q309
62 334 69T379 86V419L297 434V478L445 505L476 491V76L550 60V16L400 -5L381 44L378 43Q355 20 315 5T237 -10Q165 -10 127 25Z" />
<glyph unicode="&#xfc;" glyph-name="udieresis" horiz-adv-x="570" d="M137 571T122 588T106 632Q106 659 124 678T168 698Q193 698 209 682T225 638Q225 610 208 591T162 571Q137 571 122 588ZM353 571T337 588T321 632Q321 659 339 678T383 698Q408 698 424
682T440 638Q440 610 423 591T378 571Q353 571 337 588ZM165 -10T127 25T89 129V419L7 434V478L155 505L186 491V170Q186 109 208 86T289 62Q309 62 334 69T379 86V419L297 434V478L445 505L476 491V76L550 60V16L400 -5L381 44L378 43Q355 20 315 5T237 -10Q165
-10 127 25Z" />
<glyph unicode="&#xfd;" glyph-name="yacute" horiz-adv-x="479" d="M205 535L175 569L280 688Q296 705 305 713T326 721Q342 721 358 703T380 652L205 535ZM493 495V447L436 433L230 -107Q217 -139 190 -153T116 -168Q98 -168 76 -165T39 -158V-115L161 -85L203
14L38 433L-24 448V495H213V445L147 436L148 422L246 159L251 128L263 169L358 422L359 434L292 444V495H493Z" />
<glyph unicode="&#xfe;" glyph-name="thorn" horiz-adv-x="543" d="M20 -119L89 -105V615L7 629V673L156 699L186 685V455Q214 478 251 491T325 505Q412 505 459 446T507 280Q507 196 481 132T406 33T293 -2Q262 -2 233 8T184 34L183 29L186 20V-105L277 -117V-165H20V-119ZM342
63T371 107T401 250Q401 348 373 390T280 432Q233 432 186 417V85Q204 75 228 69T275 63Q342 63 371 107Z" />
<glyph unicode="&#xff;" glyph-name="ydieresis" horiz-adv-x="479" d="M119 571T103 588T87 632Q87 659 105 678T149 698Q175 698 190 682T206 638Q206 610 189 591T144 571Q119 571 103 588ZM334 571T318 588T302 632Q302 659 320 678T364 698Q390 698 405 682T421
638Q421 610 404 591T359 571Q334 571 318 588ZM493 495V447L436 433L230 -107Q217 -139 190 -153T116 -168Q98 -168 76 -165T39 -158V-115L161 -85L203 14L38 433L-24 448V495H213V445L147 436L148 422L246 159L251 128L263 169L358 422L359 434L292 444V495H493Z"
/>
<glyph unicode="&#x2013;" glyph-name="endash" horiz-adv-x="494" d="M3 302H491V229H3V302Z" />
<glyph unicode="&#x2014;" glyph-name="emdash" horiz-adv-x="988" d="M3 303H985V230H3V303Z" />
<glyph unicode="&#x2018;" glyph-name="quoteleft" horiz-adv-x="192" d="M172 706Q138 636 138 590Q138 570 145 552T164 519Q152 499 137 488T99 476Q70 476 53 495T36 542Q36 586 72 640T138 721L172 706Z" />
<glyph unicode="&#x2019;" glyph-name="quoteright" horiz-adv-x="189" d="M23 483Q58 556 58 600Q58 620 51 638T32 671Q56 714 97 714Q126 714 142 696T159 648Q159 604 123 550T58 469L23 483Z" />
<glyph unicode="&#x201a;" glyph-name="quotesinglbase" horiz-adv-x="192" d="M26 -118Q61 -46 61 -1Q61 19 54 37T35 70Q59 113 99 113Q128 113 145 95T162 47Q162 2 126 -51T61 -132L26 -118Z" />
<glyph unicode="&#x201c;" glyph-name="quotedblleft" horiz-adv-x="337" d="M154 706Q118 627 118 587Q118 547 148 521Q137 502 123 491T86 480Q59 480 43 498T26 545Q26 589 60 640T122 720L154 706ZM309 706Q273 627 273 587Q273 547 303 521Q281 480 241
480Q214 480 198 498T181 545Q181 589 215 640T277 720L309 706Z" />
<glyph unicode="&#x201d;" glyph-name="quotedblright" horiz-adv-x="335" d="M25 495Q43 534 52 562T61 613Q61 653 31 679Q53 720 92 720Q120 720 136 702T153 655Q153 611 120 562T57 480L25 495ZM180 495Q198 534 207 562T216 613Q216 653 186 679Q208 720
248 720Q275 720 291 702T308 655Q308 611 275 562T212 480L180 495Z" />
<glyph unicode="&#x201e;" glyph-name="quotedblbase" horiz-adv-x="347" d="M33 -114Q52 -73 61 -46T70 5Q70 45 39 70Q51 90 65 101T101 112Q129 112 145 94T161 46Q161 2 127 -49T65 -129L33 -114ZM188 -114Q207 -73 216 -46T225 5Q225 45 194 70Q219 112 256
112Q284 112 300 94T316 46Q316 2 283 -48T221 -129L188 -114Z" />
<glyph unicode="&#x2022;" glyph-name="bullet" horiz-adv-x="413" d="M90 352T123 385T203 419Q250 419 283 386T317 305Q317 258 284 225T203 192Q156 192 123 225T90 305Q90 352 123 385Z" />
<glyph unicode="&#x2039;" glyph-name="guilsinglleft" horiz-adv-x="230" d="M67 191Q31 232 31 245Q31 253 42 268T74 306L175 418L209 397L127 245L209 91L175 69L80 175L67 191Z" />
<glyph unicode="&#x203a;" glyph-name="guilsinglright" horiz-adv-x="230" d="M21 397L56 418L157 306Q177 284 188 269T200 245Q200 236 191 224T164 192L150 175L56 69L21 91L103 245L21 397Z" />
</font>
</defs>
</svg>
