<?xml version="1.0" standalone="no"?>
<!DOCTYPE svg PUBLIC "-//W3C//DTD SVG 1.1//EN" "http://www.w3.org/Graphics/SVG/1.1/DTD/svg11.dtd">
<svg xmlns="http://www.w3.org/2000/svg">
<defs >
<font id="Khand" horiz-adv-x="427" ><font-face
    font-family="Khand Medium"
    units-per-em="1000"
    panose-1="2 0 0 0 0 0 0 0 0 0"
    ascent="1050"
    descent="-479"
    alphabetic="0" />
<glyph unicode=" " glyph-name="space" horiz-adv-x="188" />
<glyph unicode="!" glyph-name="exclam" horiz-adv-x="272" d="M81 -7T81 48T136 103T191 48T136 -7ZM85 678H186L174 187H97L85 678Z" />
<glyph unicode="&quot;" glyph-name="quotedbl" horiz-adv-x="389" d="M82 754H164V529H82V754ZM222 754H305V529H222V754Z" />
<glyph unicode="#" glyph-name="numbersign" horiz-adv-x="560" d="M528 421H443L417 245H492V172H407L382 0H300L325 172H196L171 0H89L114 172H37V245H124L150 421H73V493H160L185 666H268L243 493H371L396 666H478L453 493H528V421ZM335 245L361 421H232L207 245H335Z" />
<glyph unicode="$" glyph-name="dollar" horiz-adv-x="403" d="M375 203V147Q375 22 235 0V-68H147V-4Q77 -1 32 16V106Q98 82 171 82Q280 82 280 156V190Q280 220 269 236T228 269L115 331Q26 379 26 474V534Q26 657 156 679V739H244V682Q304 679 345 665V575Q291
596 214 596Q121 596 121 527V488Q121 456 133 438T178 401L294 336Q375 292 375 203Z" />
<glyph unicode="%" glyph-name="percent" horiz-adv-x="612" d="M336 -8T336 143T456 294T577 143Q577 72 547 32T456 -8Q336 -8 336 143ZM506 57T506 143T456 229T405 143T455 57ZM35 464T35 535T65 646T155 686Q276 686 276 535T155 384Q95 384 65 424ZM105
448T155 448T205 534T155 621T105 535ZM415 678H482L197 0H130L415 678Z" />
<glyph unicode="&amp;" glyph-name="ampersand" horiz-adv-x="471" d="M458 390V309H414V156Q414 81 369 37T235 -8T100 37T53 156V232Q53 325 129 352Q54 379 54 472V529Q54 601 103 642T241 683T380 667V577Q329 596 263 596T172 577T148 521V473Q148 390 225
390H323V451H414V390H458ZM323 158V309H227Q147 309 147 227V158Q147 75 235 75T323 158Z" />
<glyph unicode="&apos;" glyph-name="quotesingle" horiz-adv-x="250" d="M82 754H167V529H82V754Z" />
<glyph unicode="(" glyph-name="parenleft" horiz-adv-x="305" d="M204 702T177 577T149 329T176 80T248 -146H166Q122 -53 95 75T67 328T94 580T166 802H248Q204 702 177 577Z" />
<glyph unicode=")" glyph-name="parenright" horiz-adv-x="305" d="M183 708T210 581T238 329T211 76T139 -146H56Q100 -46 127 80T155 328T128 576T56 802H139Q183 708 210 581Z" />
<glyph unicode="*" glyph-name="asterisk" horiz-adv-x="513" d="M215 703V800H299V703Q299 668 291 644Q313 659 345 670L438 700L464 620L372 590Q339 579 312 579Q332 565 354 536L411 457L343 407L285 486Q265 515 257 538Q249 515 229 486L172 407L104 457L161
536Q183 565 203 579Q176 579 143 590L51 620L76 700L169 670Q201 659 223 644Q215 668 215 703Z" />
<glyph unicode="+" glyph-name="plus" horiz-adv-x="459" d="M416 367V287H273V140H186V287H43V367H186V514H273V367H416Z" />
<glyph unicode="," glyph-name="comma" horiz-adv-x="167" d="M98 102Q142 102 142 63Q142 12 62 -128H9L51 102H98Z" />
<glyph unicode="-" glyph-name="hyphen" horiz-adv-x="253" d="M40 367H218V287H40V367Z" />
<glyph unicode="." glyph-name="period" horiz-adv-x="179" d="M34 -7T34 48T89 103T144 48T89 -7Z" />
<glyph unicode="/" glyph-name="slash" horiz-adv-x="401" d="M297 803H381L117 -146H34L297 803Z" />
<glyph unicode="0" glyph-name="zero" horiz-adv-x="453" d="M307 521Q307 603 226 603Q182 603 164 582T146 521V157Q146 117 164 96T226 75Q307 75 307 157V521ZM52 523Q52 598 95 643T226 688T358 643T401 523V154Q401 79 358 35T227 -10T95 34T52 154V523Z" />
<glyph unicode="1" glyph-name="one" horiz-adv-x="290" d="M228 678V0H134V573L12 485V590L133 678H228Z" />
<glyph unicode="2" glyph-name="two" horiz-adv-x="413" d="M181 683Q369 683 369 533V475Q369 422 352 387T293 322L212 261Q166 228 151 206T136 143V85H368V0H41V150Q41 211 66 248T141 320L226 386Q255 405 265 427T275 487V525Q275 561 255 578T173 596T52
573V664Q107 683 181 683Z" />
<glyph unicode="3" glyph-name="three" horiz-adv-x="401" d="M156 683Q346 683 346 532V463Q346 368 274 343Q349 323 349 229V146Q349 74 302 35T166 -5T26 14V104Q87 81 149 81T233 99T255 154V218Q255 257 236 276T173 296H102V383H172Q215 383 233 404T251
465V525Q251 560 230 578T147 597T39 580V669Q81 683 156 683Z" />
<glyph unicode="4" glyph-name="four" horiz-adv-x="422" d="M417 206V123H350V0H260V123H10V210L217 678H350V206H417ZM262 206V589L94 206H262Z" />
<glyph unicode="5" glyph-name="five" horiz-adv-x="425" d="M57 678H361V591H150V406Q185 410 224 410Q301 410 340 371T379 259V146Q379 74 332 35T199 -5T52 16V106Q125 81 182 81T261 99T284 153V249Q284 289 266 307T202 325Q180 325 57 314V678Z" />
<glyph unicode="6" glyph-name="six" horiz-adv-x="442" d="M307 276Q307 348 231 348Q180 348 146 329V156Q146 73 226 73T307 156V276ZM52 516Q52 591 98 637T234 683T374 664V575Q321 596 245 596Q146 596 146 509V412Q185 430 252 430T360 392T401 282V154Q401
79 358 35T227 -10T95 34T52 154V516Z" />
<glyph unicode="7" glyph-name="seven" horiz-adv-x="346" d="M5 678H325V603L252 378Q204 228 204 100V0H108V106Q108 236 158 389L222 592H5V678Z" />
<glyph unicode="8" glyph-name="eight" horiz-adv-x="461" d="M408 527V460Q408 372 345 338Q409 303 409 215V150Q409 76 365 33T231 -10T97 33T52 150V215Q52 303 116 338Q53 372 53 460V527Q53 601 97 644T230 688T364 645T408 527ZM147 527V458Q147 376 230
376T314 458V527Q314 606 231 606T147 527ZM316 151V217Q316 300 231 300T145 217V151Q145 72 230 72T316 151Z" />
<glyph unicode="9" glyph-name="nine" horiz-adv-x="442" d="M296 522Q296 605 216 605T135 522V398Q135 322 212 322Q268 322 296 341V522ZM41 523Q41 598 84 643T216 688T347 644T390 523V152Q390 80 342 38T205 -5T62 15V105Q123 81 196 81Q296 81 296 160V257Q260
239 191 239T81 278T41 390V523Z" />
<glyph unicode=":" glyph-name="colon" horiz-adv-x="218" d="M34 -7T34 48T89 103T144 48T89 -7ZM144 343T89 343T34 398T89 454T144 399Z" />
<glyph unicode=";" glyph-name="semicolon" horiz-adv-x="218" d="M144 343T89 343T34 398T89 454T144 399ZM98 102Q142 102 142 63Q142 12 62 -128H9L51 102H98Z" />
<glyph unicode="&lt;" glyph-name="less" horiz-adv-x="475" d="M418 515V430L122 327L418 223V138L40 280V372L418 515Z" />
<glyph unicode="=" glyph-name="equal" horiz-adv-x="455" d="M37 273H415V194H37V273ZM37 459H415V380H37V459Z" />
<glyph unicode="&gt;" glyph-name="greater" horiz-adv-x="473" d="M51 515L430 372V280L51 138V223L348 327L51 430V515Z" />
<glyph unicode="?" glyph-name="question" horiz-adv-x="392" d="M93 -7T93 48T148 103T203 48T148 -7ZM156 688Q345 688 345 539V445Q345 372 310 331T192 289L187 187H108L103 363H159Q209 363 231 383T253 446V532Q253 568 233 584T150 601T32 582V672Q87 688
156 688Z" />
<glyph unicode="@" glyph-name="at" horiz-adv-x="874" d="M530 -121H442Q238 -121 154 -20T69 276T154 573T442 675Q654 675 736 570Q778 517 796 448T814 284Q814 144 770 83T641 22T523 75Q484 48 420 48Q295 48 295 162V180Q295 230 320 257T399 303L501 337V393Q501
422 488 436T433 451T316 433V501Q376 517 438 517Q576 517 576 396V168Q576 128 592 111T649 94T711 135T733 270T721 418T678 516Q619 601 442 601Q266 601 205 512Q174 467 162 412T150 277T162 143T206 42Q268 -46 442 -46H530V-121ZM372 182V161Q372 113 427
113Q467 113 501 135V268L428 245Q397 235 385 223T372 182Z" />
<glyph unicode="A" glyph-name="A" horiz-adv-x="453" d="M347 0L310 180H142L105 0H13L161 678H293L439 0H347ZM158 261H293L225 590L158 261Z" />
<glyph unicode="B" glyph-name="B" horiz-adv-x="475" d="M417 524V465Q417 370 345 343Q423 317 423 217V154Q423 79 382 40T259 0H62V678H253Q334 678 375 639T417 524ZM242 597H156V383H242Q324 383 324 461V520Q324 597 242 597ZM330 158V222Q330 299 248
299H156V81H248Q330 81 330 158Z" />
<glyph unicode="C" glyph-name="C" horiz-adv-x="399" d="M52 533Q52 604 100 643T245 683Q309 683 363 668V581Q304 598 247 598T169 580T147 526V151Q147 116 169 98T250 80T366 96V11Q314 -5 244 -5Q52 -5 52 145V533Z" />
<glyph unicode="D" glyph-name="D" horiz-adv-x="473" d="M328 523Q328 599 249 599H156V82H249Q328 82 328 161V523ZM62 678H258Q338 678 380 638T422 526V156Q422 83 383 42T262 0H62V678Z" />
<glyph unicode="E" glyph-name="E" horiz-adv-x="404" d="M62 678H371V595H156V384H343V301H156V82H371V0H62V678Z" />
<glyph unicode="F" glyph-name="F" horiz-adv-x="380" d="M62 678H362V595H157V367H351V283H157V0H62V678Z" />
<glyph unicode="G" glyph-name="G" horiz-adv-x="454" d="M52 528Q52 601 101 642T252 683Q320 683 379 666V576Q319 596 253 596Q147 596 147 520V152Q147 80 235 80Q284 80 309 97V342H402V35Q329 -5 239 -5T100 32T52 145V528Z" />
<glyph unicode="H" glyph-name="H" horiz-adv-x="506" d="M348 678H444V0H348V291H157V0H62V678H157V375H348V678Z" />
<glyph unicode="I" glyph-name="I" horiz-adv-x="218" d="M62 678H157V0H62V678Z" />
<glyph unicode="J" glyph-name="J" horiz-adv-x="221" d="M64 678H159V201Q159 72 125 -45L94 -149H-4L26 -44Q64 87 64 200V678Z" />
<glyph unicode="K" glyph-name="K" horiz-adv-x="448" d="M62 678H156V0H62V678ZM325 678H426L289 343L435 0H330L189 341L325 678Z" />
<glyph unicode="L" glyph-name="L" horiz-adv-x="360" d="M62 678H157V81H355V0H62V678Z" />
<glyph unicode="M" glyph-name="M" horiz-adv-x="622" d="M560 678V0H470V321Q470 424 480 522L354 178H267L141 522Q151 429 151 322V0H62V678H167L311 276L455 678H560Z" />
<glyph unicode="N" glyph-name="N" horiz-adv-x="509" d="M354 678H447V0H347Q190 401 142 532Q142 521 146 486Q154 399 154 293V0H62V678H163Q302 326 332 242T366 147Q366 156 361 235T354 389V678Z" />
<glyph unicode="O" glyph-name="O" horiz-adv-x="466" d="M320 520Q320 602 233 602T146 520V158Q146 75 233 75T320 158V520ZM52 523Q52 598 97 643T232 688T368 643T414 523V154Q414 80 368 35T233 -10T98 35T52 154V523Z" />
<glyph unicode="P" glyph-name="P" horiz-adv-x="448" d="M315 518Q315 595 235 595H156V304H235Q315 304 315 382V518ZM62 678H244Q324 678 366 638T409 526V374Q409 302 367 262T244 222H156V0H62V678Z" />
<glyph unicode="Q" glyph-name="Q" horiz-adv-x="466" d="M233 -10Q144 -10 98 35T52 154V523Q52 598 97 643T232 688T368 643T414 523V154Q414 65 352 22L463 -97H348L266 -8Q246 -10 233 -10ZM146 520V158Q146 75 233 75T320 158V520Q320 602 233 602T146 520Z" />
<glyph unicode="R" glyph-name="R" horiz-adv-x="464" d="M156 264V0H62V678H244Q324 678 366 638T409 527V419Q409 308 324 276L432 0H328L231 264H156ZM156 596V343H236Q278 343 296 362T315 420V521Q315 596 236 596H156Z" />
<glyph unicode="S" glyph-name="S" horiz-adv-x="403" d="M26 534Q26 605 72 644T205 683T345 665V575Q291 596 214 596Q121 596 121 527V488Q121 456 133 438T178 401L294 336Q375 292 375 203V147Q375 74 324 35T181 -5T32 16V106Q98 82 171 82Q280 82 280 156V190Q280
220 269 236T228 269L115 331Q26 379 26 474V534Z" />
<glyph unicode="T" glyph-name="T" horiz-adv-x="368" d="M361 678V595H232V0H137V595H8V678H361Z" />
<glyph unicode="U" glyph-name="U" horiz-adv-x="474" d="M323 678H417V154Q417 80 372 35T237 -10T103 35T57 154V678H151V158Q151 75 237 75T323 158V678Z" />
<glyph unicode="V" glyph-name="V" horiz-adv-x="439" d="M330 678H428L286 0H154L11 678H107Q181 309 198 209T220 87Q229 128 245 225T267 356L330 678Z" />
<glyph unicode="W" glyph-name="W" horiz-adv-x="604" d="M502 678H588L483 0H383Q315 417 303 533Q294 423 276 318L224 0H120L16 678H103L158 328L181 146Q192 238 205 328L259 678H347L400 328L424 149Q435 253 446 328L502 678Z" />
<glyph unicode="X" glyph-name="X" horiz-adv-x="414" d="M302 678H404L256 338L404 0H301L208 235L113 0H11L157 338L11 678H113L208 441L302 678Z" />
<glyph unicode="Y" glyph-name="Y" horiz-adv-x="430" d="M263 0H168V223L3 678H100L157 518Q188 428 217 327Q245 425 276 518L333 678H428L263 223V0Z" />
<glyph unicode="Z" glyph-name="Z" horiz-adv-x="395" d="M31 678H367V599L124 81H366V0H26V81L266 597H31V678Z" />
<glyph unicode="[" glyph-name="bracketleft" horiz-adv-x="319" d="M162 -73H284V-148H84V810H284V736H162V-73Z" />
<glyph unicode="\" glyph-name="backslash" horiz-adv-x="420" d="M35 810H120L390 -148H304L35 810Z" />
<glyph unicode="]" glyph-name="bracketright" horiz-adv-x="319" d="M34 810H235V-148H34V-73H156V736H34V810Z" />
<glyph unicode="^" glyph-name="asciicircum" horiz-adv-x="354" d="M348 385H256L175 630L94 385H2L118 685H233L348 385Z" />
<glyph unicode="_" glyph-name="underscore" horiz-adv-x="502" d="M4 -8H498L497 -84H4V-8Z" />
<glyph unicode="`" glyph-name="grave" horiz-adv-x="350" d="M115 728H195L235 619H179L115 728Z" />
<glyph unicode="a" glyph-name="a" horiz-adv-x="429" d="M121 165V135Q121 102 136 86T197 70T281 101V268L186 242Q147 231 134 215T121 165ZM56 561Q113 580 201 580Q372 580 372 425V0H282V41Q238 -3 166 -3Q28 -3 28 136V169Q28 225 57 259T150 312L281 348V425Q281
462 261 478T177 495T56 475V561Z" />
<glyph unicode="b" glyph-name="b" horiz-adv-x="452" d="M305 431Q305 490 244 490Q208 490 156 470V86H227Q305 86 305 158V431ZM62 728H156V556Q210 578 269 578T364 545T400 447V148Q400 76 359 38T250 0H62V728Z" />
<glyph unicode="c" glyph-name="c" horiz-adv-x="372" d="M52 428Q52 580 228 580Q291 580 340 566V479Q290 493 239 493T167 476T146 422V152Q146 115 166 98T240 81T341 97V9Q283 -5 228 -5Q52 -5 52 147V428Z" />
<glyph unicode="d" glyph-name="d" horiz-adv-x="451" d="M295 490H227Q146 490 146 414V149Q146 82 212 82Q265 82 295 110V490ZM295 728H390V0H297V36Q256 -3 189 -3T87 33T52 138V417Q52 491 95 533T215 575H295V728Z" />
<glyph unicode="e" glyph-name="e" horiz-adv-x="435" d="M52 152V428Q52 500 94 542T222 585T349 543T390 428V245H144V157Q144 117 168 98T254 79T374 97V11Q314 -5 246 -5Q52 -5 52 152ZM144 321H301V427Q301 505 223 505T144 427V321Z" />
<glyph unicode="f" glyph-name="f" horiz-adv-x="279" d="M82 601Q82 747 232 747Q259 747 279 743V666Q264 669 243 669Q176 669 176 602V575H275V498H176V0H82V498H25V575H82V601Z" />
<glyph unicode="g" glyph-name="g" horiz-adv-x="449" d="M433 538H399Q376 538 360 529Q388 494 388 436V354Q388 284 346 245T217 205Q170 205 170 161Q170 140 182 131T227 122H285Q427 122 427 3V-14Q427 -149 236 -149H197Q88 -149 32 -114V-26Q98 -69 195
-69H227Q287 -69 312 -55T337 -13V-4Q337 20 325 31T276 43H215Q86 43 86 130V146Q86 202 139 214Q38 243 38 354V436Q38 507 81 546T203 585T323 561Q344 625 418 625H433V538ZM294 355V435Q294 472 275 489T213 507T151 490T132 435V355Q132 318 151 301T213
283T275 300T294 355Z" />
<glyph unicode="h" glyph-name="h" horiz-adv-x="455" d="M62 728H156V556Q207 578 265 578T361 545T398 447V0H302V431Q302 490 243 490Q198 490 156 469V0H62V728Z" />
<glyph unicode="i" glyph-name="i" horiz-adv-x="218" d="M164 625T109 625T54 680T109 736T164 681ZM62 568H156V0H62V568Z" />
<glyph unicode="j" glyph-name="j" horiz-adv-x="218" d="M164 625T109 625T54 680T109 736T164 681ZM62 568H156V3Q156 -69 119 -110T8 -151Q-12 -151 -23 -148V-63Q-7 -65 2 -65Q33 -65 47 -49T62 3V568Z" />
<glyph unicode="k" glyph-name="k" horiz-adv-x="412" d="M62 728H154V0H62V728ZM290 575H387L274 300L398 0H297L177 302L290 575Z" />
<glyph unicode="l" glyph-name="l" horiz-adv-x="218" d="M62 728H156V0H62V728Z" />
<glyph unicode="m" glyph-name="m" horiz-adv-x="696" d="M367 538Q435 577 501 577T603 544T639 447V0H544V431Q544 490 484 490Q436 490 393 463Q398 452 398 432V0H302V431Q302 490 243 490Q200 490 156 468V0H62V575H152V549Q216 577 274 577T367 538Z" />
<glyph unicode="n" glyph-name="n" horiz-adv-x="455" d="M152 549Q216 577 271 577T362 544T398 447V0H302V431Q302 490 243 490Q200 490 156 468V0H62V575H152V549Z" />
<glyph unicode="o" glyph-name="o" horiz-adv-x="444" d="M299 426Q299 503 222 503T145 426V149Q145 72 222 72T299 149V426ZM52 428Q52 500 94 542T222 585T350 543T393 428V147Q393 75 351 33T222 -10T94 32T52 147V428Z" />
<glyph unicode="p" glyph-name="p" horiz-adv-x="452" d="M305 431Q305 490 244 490Q200 490 156 468V86H228Q305 86 305 159V431ZM152 548Q210 577 269 577T364 544T400 447V149Q400 77 360 39T251 0H156V-149H62V575H152V548Z" />
<glyph unicode="q" glyph-name="q" horiz-adv-x="451" d="M295 490H229Q146 490 146 411V152Q146 83 213 83Q264 83 295 110V490ZM218 575H390V-149H296V23Q257 -2 193 -2Q52 -2 52 145V413Q52 488 95 531T218 575Z" />
<glyph unicode="r" glyph-name="r" horiz-adv-x="294" d="M266 578H289V489H259Q212 489 156 451V0H62V575H152V533Q155 535 163 541T174 548T184 555T195 561T204 565T215 570T225 573T238 576Q256 578 266 578Z" />
<glyph unicode="s" glyph-name="s" horiz-adv-x="369" d="M26 435Q26 508 68 544T207 580Q271 580 321 564V478Q273 496 215 496T138 481T119 430V410Q119 383 130 369T172 339L257 293Q343 247 343 169V143Q343 -5 151 -5Q86 -5 28 10V97Q79 80 140 80T225 96T249
145V162Q249 186 237 200T187 234L106 276Q26 317 26 403V435Z" />
<glyph unicode="t" glyph-name="t" horiz-adv-x="299" d="M159 678V575H275V494H159V137Q159 79 219 79Q248 79 284 91V6Q283 6 275 4T257 0Q230 -6 205 -6Q65 -6 65 130V494H5V575H68L96 678H159Z" />
<glyph unicode="u" glyph-name="u" horiz-adv-x="456" d="M218 83Q260 83 300 108V575H395V0H305V27Q253 -2 190 -2T92 34T57 138V575H152V151Q152 83 218 83Z" />
<glyph unicode="v" glyph-name="v" horiz-adv-x="401" d="M293 575H388L263 0H140L13 575H109Q179 234 202 70Q220 200 246 336L293 575Z" />
<glyph unicode="w" glyph-name="w" horiz-adv-x="606" d="M496 575H592L493 0H374Q312 378 304 449Q294 365 233 0H115L13 575H111L177 108L256 575H351L430 107L496 575Z" />
<glyph unicode="x" glyph-name="x" horiz-adv-x="376" d="M267 575H368L236 288L368 0H267L188 198L109 0H8L138 288L8 575H109L188 381L267 575Z" />
<glyph unicode="y" glyph-name="y" horiz-adv-x="405" d="M297 575H390L239 -149H148L178 0H138L16 575H110Q187 198 203 70Q219 189 245 320L297 575Z" />
<glyph unicode="z" glyph-name="z" horiz-adv-x="333" d="M25 575H312V510L119 81H313V0H20V66L211 494H25V575Z" />
<glyph unicode="{" glyph-name="braceleft" horiz-adv-x="369" d="M217 664V463Q217 402 198 370T129 329Q180 322 198 291T217 198V-8Q217 -66 286 -66H310V-146H281Q211 -146 173 -108T135 -4V221Q135 253 116 270T61 288H57V369H61Q97 369 116 386T135 436V661Q135
726 173 764T281 803H310V722H286Q217 722 217 664Z" />
<glyph unicode="|" glyph-name="bar" horiz-adv-x="212" d="M72 826H140V-162H72V826Z" />
<glyph unicode="}" glyph-name="braceright" horiz-adv-x="368" d="M306 369H309V288H306Q270 288 251 271T232 221V-4Q232 -70 194 -108T85 -146H56V-66H80Q149 -66 149 -8V198Q149 259 168 290T237 329Q187 337 168 369T149 463V664Q149 722 80 722H56V803H85Q155
803 193 765T232 661V436Q232 404 251 387T306 369Z" />
<glyph unicode="~" glyph-name="asciitilde" horiz-adv-x="485" d="M460 370Q460 323 435 296Q389 246 292 280L188 321Q151 339 126 328T107 276H27Q24 295 24 314Q24 361 50 388Q95 438 192 404L296 363Q335 345 359 356T376 408H456Q460 391 460 370Z" />
<glyph unicode="&#xa0;" glyph-name="uni00A0" horiz-adv-x="188" />
<glyph unicode="&#xa1;" glyph-name="exclamdown" horiz-adv-x="272" d="M186 -103H85L97 388H174L186 -103ZM81 472T81 527T136 582T191 527T136 472Z" />
<glyph unicode="&#xa2;" glyph-name="cent" horiz-adv-x="394" d="M273 -74H186V-2Q58 17 58 147V428Q58 560 188 577V654H275V579Q317 575 346 566V479Q296 493 245 493T173 476T152 422V152Q152 115 172 98T246 81T347 97V9Q306 -1 273 -4V-74Z" />
<glyph unicode="&#xa3;" glyph-name="sterling" horiz-adv-x="477" d="M433 84V0H48V83Q57 83 71 89T90 100T101 111T110 128Q119 148 119 177V308H57V388H119V511Q119 592 165 636T305 681Q369 681 425 663V574Q371 593 313 593T234 571T213 505V388H374V308H213V189Q213
155 204 131T188 100T167 84H433Z" />
<glyph unicode="&#xa4;" glyph-name="currency" horiz-adv-x="460" d="M401 384V294Q401 248 386 214L432 169L375 112L331 156Q294 135 232 135T131 156L87 112L30 169L76 214Q61 248 61 294V384Q61 430 76 464L31 509L88 566L132 522Q170 543 231 543T332 522L376
566L433 509L386 463Q401 430 401 384ZM152 382V296Q152 256 169 237T231 217T292 236T310 296V382Q310 422 293 441T231 460T170 441T152 382Z" />
<glyph unicode="&#xa5;" glyph-name="yen" horiz-adv-x="499" d="M465 423V349H351L317 262H465V188H301V0H209V188H42V262H192L158 349H42V423H131L40 666H135L225 417L256 325L287 417L376 666H469L378 423H465Z" />
<glyph unicode="&#xa6;" glyph-name="brokenbar" horiz-adv-x="213" d="M72 220H140V-162H72V220ZM72 826H140V445H72V826Z" />
<glyph unicode="&#xa7;" glyph-name="section" horiz-adv-x="376" d="M129 268V251Q129 224 140 210T184 179L268 134Q311 111 333 83T355 9V-2Q355 -149 163 -149Q88 -149 40 -135V-49Q88 -65 151 -65T238 -50T261 -5T249 39T199 75L118 117Q38 158 38 244V268H129ZM31
535Q31 608 73 644T211 681Q278 681 325 666V580Q277 596 219 596T142 581T123 533T133 487T176 458L261 413Q348 369 348 289V264H256V282Q256 305 243 319T192 354L111 396Q31 438 31 523V535Z" />
<glyph unicode="&#xa8;" glyph-name="dieresis" horiz-adv-x="350" d="M292 630T248 630T204 672T248 715T292 673ZM146 630T102 630T58 672T102 715T146 673Z" />
<glyph unicode="&#xa9;" glyph-name="copyright" horiz-adv-x="693" d="M572 243Q576 278 576 328T573 413T556 483T518 540Q464 586 347 586Q197 586 154 512Q131 473 124 433T117 334T121 242T139 172T178 116Q233 70 347 70Q460 70 514 117Q560 156 572 243ZM226
385Q226 445 257 476T359 507Q402 507 434 499V433Q394 443 357 443T309 429T297 383V273Q297 253 300 242T317 223T365 214T434 223V157Q386 149 359 149Q288 149 257 180T226 272V385ZM43 327Q43 403 56 459T102 562Q169 656 347 656Q527 656 592 563Q624 517
636 461T649 329T635 196T588 94Q522 0 347 0Q169 0 104 93Q43 179 43 327Z" />
<glyph unicode="&#xaa;" glyph-name="ordfeminine" horiz-adv-x="336" d="M99 429V399Q99 369 112 356T167 342T234 369V503L160 488Q128 480 114 467T99 429ZM168 745Q299 745 299 638V287H234V323Q205 288 144 288Q34 288 34 398V433Q34 478 62 503T148 543L234
561V639Q232 685 166 685Q112 685 53 668V728Q107 745 168 745Z" />
<glyph unicode="&#xab;" glyph-name="guillemotleft" horiz-adv-x="516" d="M182 505H277L155 322L277 139H182L61 322L182 505ZM376 505H472L350 322L472 139H376L255 322L376 505Z" />
<glyph unicode="&#xac;" glyph-name="logicalnot" horiz-adv-x="478" d="M61 375H416V187H320V291H61V375Z" />
<glyph unicode="&#xad;" glyph-name="uni00AD" horiz-adv-x="253" d="M40 367H218V287H40V367Z" />
<glyph unicode="&#xae;" glyph-name="registered" horiz-adv-x="539" d="M78 634T124 689T288 745T452 690T497 522T452 354T287 299T123 353T78 521ZM171 366T202 356T286 346T371 356T419 390T440 443T445 521T440 600T419 653T372 688T287 698T202 688T155
653T135 600T130 522T134 444T155 391ZM209 656H284Q377 656 377 574Q377 520 343 500L388 391H334L298 488Q293 487 283 487H259V391H209V656ZM259 529H279Q307 529 318 538T329 573T319 607T285 614H259V529Z" />
<glyph unicode="&#xaf;" glyph-name="overscore" horiz-adv-x="350" d="M57 701H292V645H57V701Z" />
<glyph unicode="&#xb0;" glyph-name="degree" horiz-adv-x="391" d="M268 616T268 657T253 719T197 740T141 719T126 657T141 595T197 574T253 595ZM120 502T85 544T49 657T84 771T197 813T309 771T345 658T310 544T197 502Z" />
<glyph unicode="&#xb1;" glyph-name="plusminus" horiz-adv-x="455" d="M273 367H416V287H273V162H186V287H43V367H186V492H273V367ZM43 30V109H416V30H43Z" />
<glyph unicode="&#xb2;" glyph-name="twosuperior" horiz-adv-x="294" d="M145 745Q267 745 267 639V608Q267 572 255 549T212 504L147 458Q111 433 103 421T95 379V349H268V289H31V381Q31 424 46 448T100 499L170 546Q191 561 197 575T203 616V638Q203 662 190
673T134 685T42 674V734Q78 745 145 745Z" />
<glyph unicode="&#xb3;" glyph-name="threesuperior" horiz-adv-x="301" d="M135 745Q255 745 258 642V597Q258 538 217 518Q258 499 258 439V390Q258 285 134 285Q70 285 30 296V356Q81 344 123 344T179 355T193 391V439Q193 463 183 475T141 488H95V547H141Q172
547 182 560T193 597V638Q193 662 180 673T124 685T37 675V735Q77 745 135 745Z" />
<glyph unicode="&#xb4;" glyph-name="acute" horiz-adv-x="350" d="M155 728H235L171 619H115L155 728Z" />
<glyph unicode="&#xb5;" glyph-name="uni00B5" horiz-adv-x="458" d="M154 98Q178 84 203 84T239 86T258 90T275 96T302 110V575H396V0H307V27Q263 2 222 1T154 8V-150H59V575H154V98Z" />
<glyph unicode="&#xb6;" glyph-name="paragraph" horiz-adv-x="421" d="M228 678H354V1H259V376H228Q147 376 105 416T62 527T105 638T228 678Z" />
<glyph unicode="&#xb7;" glyph-name="middot" horiz-adv-x="236" d="M67 293T67 344T118 396T170 345T119 293Z" />
<glyph unicode="&#xb8;" glyph-name="cedilla" horiz-adv-x="350" d="M208 -42T227 -58T246 -109T221 -164T161 -184T103 -178V-130Q119 -137 143 -137Q189 -137 189 -104Q189 -73 142 -71H129L146 6H191L181 -40Q208 -42 227 -58Z" />
<glyph unicode="&#xb9;" glyph-name="onesuperior" horiz-adv-x="220" d="M172 739V289H109V672L18 603V676L102 739H172Z" />
<glyph unicode="&#xba;" glyph-name="ordmasculine" horiz-adv-x="331" d="M172 685Q110 685 110 641V392Q110 368 124 357T172 345T220 356T234 392V641Q233 663 219 674T172 685ZM45 637Q45 745 171 745T298 637V393Q298 285 172 285T45 393V637Z" />
<glyph unicode="&#xbb;" glyph-name="guillemotright" horiz-adv-x="514" d="M37 505H133L254 322L133 139H37L159 322L37 505ZM232 505H328L449 322L328 139H232L354 322L232 505Z" />
<glyph unicode="&#xbc;" glyph-name="onequarter" horiz-adv-x="799" d="M504 678H569L215 0H150L504 678ZM634 149V398L518 149H634ZM697 451V149H744V92H697V0H634V92H457V152L598 451H697ZM194 678V227H131V610L40 541V615L124 678H194Z" />
<glyph unicode="&#xbd;" glyph-name="onehalf" horiz-adv-x="797" d="M504 678H569L215 0H150L504 678ZM194 678V228H131V611L40 542V615L124 678H194ZM611 456Q733 456 733 350V319Q733 283 721 260T678 215L613 169Q577 144 569 132T561 90V60H734V0H497V92Q497
135 512 159T566 210L636 257Q657 272 663 286T669 327V349Q669 373 656 384T600 396T508 385V445Q544 456 611 456Z" />
<glyph unicode="&#xbe;" glyph-name="threequarters" horiz-adv-x="834" d="M145 683Q265 683 268 581V536Q268 476 227 457Q268 438 268 378V329Q268 278 237 251T145 223T40 235V295Q95 282 135 282T189 294T203 330V378Q203 402 193 414T151 427H104V486H151Q182
486 192 499T203 536V576Q203 601 190 612T134 624T47 614V674Q83 683 145 683ZM549 678H614L261 0H195L549 678ZM668 149V398L552 149H668ZM731 451V149H778V92H731V0H668V92H491V152L632 451H731Z" />
<glyph unicode="&#xbf;" glyph-name="questiondown" horiz-adv-x="392" d="M284 582T284 527T229 472T174 527T229 582ZM221 -113Q32 -113 32 36V130Q32 203 67 244T185 286L190 388H269L274 212H218Q168 212 146 192T124 129V43Q124 7 144 -9T227 -26T345 -7V-97Q290
-113 221 -113Z" />
<glyph unicode="&#xc0;" glyph-name="Agrave" horiz-adv-x="453" d="M347 0L310 180H142L105 0H13L161 678H293L439 0H347ZM158 261H293L225 590L158 261ZM250 719H194L130 828H210L250 719Z" />
<glyph unicode="&#xc1;" glyph-name="Aacute" horiz-adv-x="453" d="M347 0L310 180H142L105 0H13L161 678H293L439 0H347ZM158 261H293L225 590L158 261ZM316 828L252 719H196L236 828H316Z" />
<glyph unicode="&#xc2;" glyph-name="Acircumflex" horiz-adv-x="453" d="M347 0L310 180H142L105 0H13L161 678H293L439 0H347ZM158 261H293L225 590L158 261ZM229 779L191 719H139L192 828H265L318 719H266L229 779Z" />
<glyph unicode="&#xc3;" glyph-name="Atilde" horiz-adv-x="453" d="M347 0L310 180H142L105 0H13L161 678H293L439 0H347ZM158 261H293L225 590L158 261ZM156 734V725H97V735Q99 819 171 819Q199 819 233 799T277 779Q299 779 299 812V821H358V810Q356 727 285
727Q259 727 225 747T178 767Q156 767 156 734Z" />
<glyph unicode="&#xc4;" glyph-name="Adieresis" horiz-adv-x="453" d="M347 0L310 180H142L105 0H13L161 678H293L439 0H347ZM158 261H293L225 590L158 261ZM196 730T152 730T108 772T152 815T196 773ZM342 730T298 730T254 772T298 815T342 773Z" />
<glyph unicode="&#xc5;" glyph-name="Aring" horiz-adv-x="453" d="M347 0L310 180H142L105 0H13L161 678H293L439 0H347ZM158 261H293L225 590L158 261ZM301 741T281 720T226 698T170 719T149 773T169 826T225 847T281 827T301 774ZM240 806T225 806T201 797T192
773T201 749T225 739T249 748T258 773T249 797Z" />
<glyph unicode="&#xc6;" glyph-name="AE" horiz-adv-x="679" d="M659 595H444V384H631V301H444V82H659V0H354V180H175L100 0H6L298 678H659V595ZM354 261V613L208 261H354Z" />
<glyph unicode="&#xc7;" glyph-name="Ccedilla" horiz-adv-x="399" d="M266 -42T285 -58T304 -109T279 -164T219 -184T161 -178V-130Q177 -137 201 -137Q247 -137 247 -104Q247 -73 200 -71H187L202 -3Q52 13 52 145V533Q52 604 100 643T245 683Q309 683 363 668V581Q304
598 247 598T169 580T147 526V151Q147 116 169 98T250 80T366 96V11Q316 -5 247 -5L239 -40Q266 -42 285 -58Z" />
<glyph unicode="&#xc8;" glyph-name="Egrave" horiz-adv-x="404" d="M126 828H206L246 719H190L126 828ZM62 678H371V595H156V384H343V301H156V82H371V0H62V678Z" />
<glyph unicode="&#xc9;" glyph-name="Eacute" horiz-adv-x="404" d="M62 678H371V595H156V384H343V301H156V82H371V0H62V678ZM228 828H308L244 719H188L228 828Z" />
<glyph unicode="&#xca;" glyph-name="Ecircumflex" horiz-adv-x="404" d="M371 595H156V384H343V301H156V82H371V0H62V678H371V595ZM211 779L173 719H121L174 828H247L300 719H248L211 779Z" />
<glyph unicode="&#xcb;" glyph-name="Edieresis" horiz-adv-x="404" d="M62 678H371V595H156V384H343V301H156V82H371V0H62V678ZM335 730T291 730T247 772T291 815T335 773ZM189 730T145 730T101 772T145 815T189 773Z" />
<glyph unicode="&#xcc;" glyph-name="Igrave" horiz-adv-x="404" d="M125 828H205L245 719H189L125 828ZM62 678H371V595H156V384H343V301H156V82H371V0H62V678Z" />
<glyph unicode="&#xcd;" glyph-name="Iacute" horiz-adv-x="404" d="M62 678H371V595H156V384H343V301H156V82H371V0H62V678ZM228 828H308L244 719H188L228 828Z" />
<glyph unicode="&#xce;" glyph-name="Icircumflex" horiz-adv-x="218" d="M62 0V678H157V0H62ZM113 779L75 719H23L76 828H149L202 719H150L113 779Z" />
<glyph unicode="&#xcf;" glyph-name="Idieresis" horiz-adv-x="218" d="M225 730T181 730T137 772T181 815T225 773ZM79 730T35 730T-9 772T35 815T79 773ZM62 678H157V0H62V678Z" />
<glyph unicode="&#xd0;" glyph-name="Eth" horiz-adv-x="476" d="M66 678H262Q342 678 384 638T426 526V156Q426 83 387 42T266 0H66V293H-5V373H66V678ZM332 161V523Q332 599 253 599H160V373H253V293H160V82H253Q332 82 332 161Z" />
<glyph unicode="&#xd1;" glyph-name="Ntilde" horiz-adv-x="509" d="M333 821H392V810Q390 727 319 727Q293 727 259 747T212 767Q190 767 190 734V725H131V735Q133 819 205 819Q233 819 267 799T311 779Q333 779 333 812V821ZM354 678H447V0H347Q190 401 142
532Q142 521 146 486Q154 399 154 293V0H62V678H163Q302 326 332 242T366 147Q366 156 361 235T354 389V678Z" />
<glyph unicode="&#xd2;" glyph-name="Ograve" horiz-adv-x="466" d="M136 828H216L256 719H200L136 828ZM320 520Q320 602 233 602T146 520V158Q146 75 233 75T320 158V520ZM52 523Q52 598 97 643T232 688T368 643T414 523V154Q414 80 368 35T233 -10T98 35T52 154V523Z" />
<glyph unicode="&#xd3;" glyph-name="Oacute" horiz-adv-x="466" d="M320 520Q320 602 233 602T146 520V158Q146 75 233 75T320 158V520ZM52 523Q52 598 97 643T232 688T368 643T414 523V154Q414 80 368 35T233 -10T98 35T52 154V523ZM248 828H328L264 719H208L248 828Z" />
<glyph unicode="&#xd4;" glyph-name="Ocircumflex" horiz-adv-x="466" d="M52 154V523Q52 598 97 643T232 688T368 643T414 523V154Q414 80 368 35T233 -10T98 35T52 154ZM320 158V520Q320 602 233 602T146 520V158Q146 75 233 75T320 158ZM234 779L196 719H144L197
828H270L323 719H271L234 779Z" />
<glyph unicode="&#xd5;" glyph-name="Otilde" horiz-adv-x="466" d="M304 821H363V810Q361 727 290 727Q264 727 230 747T183 767Q161 767 161 734V725H102V735Q104 819 176 819Q204 819 238 799T282 779Q304 779 304 812V821ZM320 520Q320 602 233 602T146 520V158Q146
75 233 75T320 158V520ZM52 523Q52 598 97 643T232 688T368 643T414 523V154Q414 80 368 35T233 -10T98 35T52 154V523Z" />
<glyph unicode="&#xd6;" glyph-name="Odieresis" horiz-adv-x="466" d="M320 520Q320 602 233 602T146 520V158Q146 75 233 75T320 158V520ZM52 523Q52 598 97 643T232 688T368 643T414 523V154Q414 80 368 35T233 -10T98 35T52 154V523ZM350 730T306 730T262
772T306 815T350 773ZM204 730T160 730T116 772T160 815T204 773Z" />
<glyph unicode="&#xd7;" glyph-name="multiply" horiz-adv-x="409" d="M375 213L318 157L204 271L90 157L34 213L148 327L34 441L91 497L204 384L317 497L374 441L261 328L375 213Z" />
<glyph unicode="&#xd8;" glyph-name="Oslash" horiz-adv-x="466" d="M414 523V154Q414 80 368 35T233 -10Q166 -10 122 17L114 0H50L77 60Q52 98 52 154V523Q52 598 97 643T233 688Q300 688 344 661L352 678H416L389 617Q414 579 414 523ZM146 520V216L305 573Q284
602 233 602Q146 602 146 520ZM320 158V462L161 105Q182 75 233 75Q320 75 320 158Z" />
<glyph unicode="&#xd9;" glyph-name="Ugrave" horiz-adv-x="474" d="M145 828H225L265 719H209L145 828ZM323 678H417V154Q417 80 372 35T237 -10T103 35T57 154V678H151V158Q151 75 237 75T323 158V678Z" />
<glyph unicode="&#xda;" glyph-name="Uacute" horiz-adv-x="474" d="M323 678H417V154Q417 80 372 35T237 -10T103 35T57 154V678H151V158Q151 75 237 75T323 158V678ZM249 828H329L265 719H209L249 828Z" />
<glyph unicode="&#xdb;" glyph-name="Ucircumflex" horiz-adv-x="474" d="M323 678H417V154Q417 80 372 35T237 -10T103 35T57 154V678H151V158Q151 75 237 75T323 158V678ZM237 779L199 719H147L200 828H273L326 719H274L237 779Z" />
<glyph unicode="&#xdc;" glyph-name="Udieresis" horiz-adv-x="474" d="M323 678H417V154Q417 80 372 35T237 -10T103 35T57 154V678H151V158Q151 75 237 75T323 158V678ZM353 730T309 730T265 772T309 815T353 773ZM207 730T163 730T119 772T163 815T207 773Z" />
<glyph unicode="&#xdd;" glyph-name="Yacute" horiz-adv-x="430" d="M225 828H305L241 719H185L225 828ZM263 0H168V223L3 678H100L157 518Q188 428 217 327Q245 425 276 518L333 678H428L263 223V0Z" />
<glyph unicode="&#xde;" glyph-name="Thorn" horiz-adv-x="436" d="M163 562H248Q329 562 371 522T414 410V268Q414 197 371 157T248 116H163V0H72V678H163V562ZM323 275V403Q323 480 243 480H163V199H243Q323 199 323 275Z" />
<glyph unicode="&#xdf;" glyph-name="germandbls" horiz-adv-x="546" d="M62 542Q62 628 111 673T249 719T388 677T438 560Q438 519 419 486T382 428T363 384V373Q363 353 380 335T440 291T505 238T526 170V141Q526 -4 341 -4Q281 -4 227 11V97Q276 80 333 80T412
97T435 147V162Q435 186 420 204T359 248T291 300T268 364V379Q268 417 306 468T345 556Q345 635 254 635Q201 635 177 611T152 536V0H62V542Z" />
<glyph unicode="&#xe0;" glyph-name="agrave" horiz-adv-x="429" d="M117 728H197L237 619H181L117 728ZM121 165V135Q121 102 136 86T197 70T281 101V268L186 242Q147 231 134 215T121 165ZM56 561Q113 580 201 580Q372 580 372 425V0H282V41Q238 -3 166 -3Q28
-3 28 136V169Q28 225 57 259T150 312L281 348V425Q281 462 261 478T177 495T56 475V561Z" />
<glyph unicode="&#xe1;" glyph-name="aacute" horiz-adv-x="429" d="M217 728H297L233 619H177L217 728ZM121 165V135Q121 102 136 86T197 70T281 101V268L186 242Q147 231 134 215T121 165ZM56 561Q113 580 201 580Q372 580 372 425V0H282V41Q238 -3 166 -3Q28
-3 28 136V169Q28 225 57 259T150 312L281 348V425Q281 462 261 478T177 495T56 475V561Z" />
<glyph unicode="&#xe2;" glyph-name="acircumflex" horiz-adv-x="429" d="M56 561Q113 580 201 580Q372 580 372 425V0H282V41Q238 -3 166 -3Q28 -3 28 136V169Q28 225 57 259T150 312L281 348V425Q281 462 261 478T177 495T56 475V561ZM121 165V135Q121 102 136
86T197 70T281 101V268L186 242Q147 231 134 215T121 165ZM215 679L177 619H125L178 728H251L304 619H252L215 679Z" />
<glyph unicode="&#xe3;" glyph-name="atilde" horiz-adv-x="429" d="M283 721H342V710Q340 627 269 627Q243 627 209 647T162 667Q140 667 140 634V625H81V635Q83 719 155 719Q183 719 217 699T261 679Q283 679 283 712V721ZM121 165V135Q121 102 136 86T197 70T281
101V268L186 242Q147 231 134 215T121 165ZM56 561Q113 580 201 580Q372 580 372 425V0H282V41Q238 -3 166 -3Q28 -3 28 136V169Q28 225 57 259T150 312L281 348V425Q281 462 261 478T177 495T56 475V561Z" />
<glyph unicode="&#xe4;" glyph-name="adieresis" horiz-adv-x="429" d="M327 630T283 630T239 672T283 715T327 673ZM181 630T137 630T93 672T137 715T181 673ZM121 165V135Q121 102 136 86T197 70T281 101V268L186 242Q147 231 134 215T121 165ZM56 561Q113 580
201 580Q372 580 372 425V0H282V41Q238 -3 166 -3Q28 -3 28 136V169Q28 225 57 259T150 312L281 348V425Q281 462 261 478T177 495T56 475V561Z" />
<glyph unicode="&#xe5;" glyph-name="aring" horiz-adv-x="429" d="M242 658T242 673T233 697T209 706T185 697T176 673T185 649T209 639T233 648ZM174 598T154 619T133 673T153 726T209 747T265 727T285 674T265 620T210 598ZM121 165V135Q121 102 136 86T197
70T281 101V268L186 242Q147 231 134 215T121 165ZM56 561Q113 580 201 580Q372 580 372 425V0H282V41Q238 -3 166 -3Q28 -3 28 136V169Q28 225 57 259T150 312L281 348V425Q281 462 261 478T177 495T56 475V561Z" />
<glyph unicode="&#xe6;" glyph-name="ae" horiz-adv-x="651" d="M531 427Q531 505 451 505T371 427V321H531V427ZM121 165V135Q121 70 189 70Q245 70 282 99V269L186 243Q148 232 135 215T121 165ZM325 539Q373 585 455 585T579 543T620 428V245H371V157Q371 116
397 98T485 79T604 97V11Q544 -5 476 -5Q373 -5 327 38Q274 -4 175 -4Q30 -4 30 135V169Q30 225 58 259T150 313L281 351L280 429Q280 462 261 478T175 495T56 474V561Q115 580 199 580T325 539Z" />
<glyph unicode="&#xe7;" glyph-name="ccedilla" horiz-adv-x="372" d="M250 -42T269 -58T288 -109T263 -164T203 -184T145 -178V-130Q161 -137 185 -137Q231 -137 231 -104Q231 -73 184 -71H171L186 -3Q52 14 52 147V428Q52 580 228 580Q291 580 340 566V479Q290
493 239 493T167 476T146 422V152Q146 115 166 98T240 81T341 97V9Q283 -5 231 -5L223 -40Q250 -42 269 -58Z" />
<glyph unicode="&#xe8;" glyph-name="egrave" horiz-adv-x="435" d="M52 152V428Q52 500 94 542T222 585T349 543T390 428V245H144V157Q144 117 168 98T254 79T374 97V11Q314 -5 246 -5Q52 -5 52 152ZM144 321H301V427Q301 505 223 505T144 427V321ZM255 619H199L135
728H215L255 619Z" />
<glyph unicode="&#xe9;" glyph-name="eacute" horiz-adv-x="435" d="M52 152V428Q52 500 94 542T222 585T349 543T390 428V245H144V157Q144 117 168 98T254 79T374 97V11Q314 -5 246 -5Q52 -5 52 152ZM144 321H301V427Q301 505 223 505T144 427V321ZM316 728L252
619H196L236 728H316Z" />
<glyph unicode="&#xea;" glyph-name="ecircumflex" horiz-adv-x="435" d="M52 152V428Q52 500 94 542T222 585T349 543T390 428V245H144V157Q144 117 168 98T254 79T374 97V11Q314 -5 246 -5Q52 -5 52 152ZM144 321H301V427Q301 505 223 505T144 427V321ZM228
679L190 619H138L191 728H264L317 619H265L228 679Z" />
<glyph unicode="&#xeb;" glyph-name="edieresis" horiz-adv-x="435" d="M52 152V428Q52 500 94 542T222 585T349 543T390 428V245H144V157Q144 117 168 98T254 79T374 97V11Q314 -5 246 -5Q52 -5 52 152ZM144 321H301V427Q301 505 223 505T144 427V321ZM196 630T152
630T108 672T152 715T196 673ZM342 630T298 630T254 672T298 715T342 673Z" />
<glyph unicode="&#xec;" glyph-name="igrave" horiz-adv-x="218" d="M14 728H94L134 619H78L14 728ZM62 568H156V0H62V568Z" />
<glyph unicode="&#xed;" glyph-name="iacute" horiz-adv-x="218" d="M120 728H200L136 619H80L120 728ZM62 568H156V0H62V568Z" />
<glyph unicode="&#xee;" glyph-name="icircumflex" horiz-adv-x="218" d="M62 0V568H156V0H62ZM110 679L72 619H20L73 728H146L199 619H147L110 679Z" />
<glyph unicode="&#xef;" glyph-name="idieresis" horiz-adv-x="218" d="M226 630T182 630T138 672T182 715T226 673ZM80 630T36 630T-8 672T36 715T80 673ZM62 568H156V0H62V568Z" />
<glyph unicode="&#xf0;" glyph-name="eth" horiz-adv-x="453" d="M397 308V150Q397 77 354 35T226 -8T99 34T57 150V300Q57 450 206 450Q260 450 291 417Q274 485 233 552L125 500V558L205 596Q177 635 137 678H250Q271 655 285 634L385 682V625L313 591Q397 452
397 308ZM305 152V350Q282 375 233 375T166 356T148 298V153Q148 75 226 75T305 152Z" />
<glyph unicode="&#xf1;" glyph-name="ntilde" horiz-adv-x="455" d="M301 721H360V710Q358 627 287 627Q261 627 227 647T180 667Q158 667 158 634V625H99V635Q101 719 173 719Q201 719 235 699T279 679Q301 679 301 712V721ZM152 549Q216 577 271 577T362 544T398
447V0H302V431Q302 490 243 490Q200 490 156 468V0H62V575H152V549Z" />
<glyph unicode="&#xf2;" glyph-name="ograve" horiz-adv-x="444" d="M135 728H215L255 619H199L135 728ZM299 426Q299 503 222 503T145 426V149Q145 72 222 72T299 149V426ZM52 428Q52 500 94 542T222 585T350 543T393 428V147Q393 75 351 33T222 -10T94 32T52 147V428Z" />
<glyph unicode="&#xf3;" glyph-name="oacute" horiz-adv-x="444" d="M299 426Q299 503 222 503T145 426V149Q145 72 222 72T299 149V426ZM52 428Q52 500 94 542T222 585T350 543T393 428V147Q393 75 351 33T222 -10T94 32T52 147V428ZM238 728H318L254 619H198L238 728Z" />
<glyph unicode="&#xf4;" glyph-name="ocircumflex" horiz-adv-x="444" d="M52 147V428Q52 500 94 542T222 585T350 543T393 428V147Q393 75 351 33T222 -10T94 32T52 147ZM299 149V426Q299 503 222 503T145 426V149Q145 72 222 72T299 149ZM226 679L188 619H136L189
728H262L315 619H263L226 679Z" />
<glyph unicode="&#xf5;" glyph-name="otilde" horiz-adv-x="444" d="M297 721H356V710Q354 627 283 627Q257 627 223 647T176 667Q154 667 154 634V625H95V635Q97 719 169 719Q197 719 231 699T275 679Q297 679 297 712V721ZM299 426Q299 503 222 503T145 426V149Q145
72 222 72T299 149V426ZM52 428Q52 500 94 542T222 585T350 543T393 428V147Q393 75 351 33T222 -10T94 32T52 147V428Z" />
<glyph unicode="&#xf6;" glyph-name="odieresis" horiz-adv-x="444" d="M299 426Q299 503 222 503T145 426V149Q145 72 222 72T299 149V426ZM52 428Q52 500 94 542T222 585T350 543T393 428V147Q393 75 351 33T222 -10T94 32T52 147V428ZM345 630T301 630T257
672T301 715T345 673ZM199 630T155 630T111 672T155 715T199 673Z" />
<glyph unicode="&#xf7;" glyph-name="divide" horiz-adv-x="455" d="M177 445T177 496T228 548T280 497T229 445ZM177 102T177 153T228 205T280 154T229 102ZM40 365H414V286H40V365Z" />
<glyph unicode="&#xf8;" glyph-name="oslash" horiz-adv-x="444" d="M393 428V147Q393 75 351 33T230 -10T111 19L101 0H49L77 53Q52 91 52 147V428Q52 500 94 542T215 585T338 553L349 575H401L371 517Q393 480 393 428ZM145 426V184L292 466Q276 503 222 503Q145
503 145 426ZM299 149V380L155 104Q173 72 222 72Q299 72 299 149Z" />
<glyph unicode="&#xf9;" glyph-name="ugrave" horiz-adv-x="456" d="M129 728H209L249 619H193L129 728ZM218 83Q260 83 300 108V575H395V0H305V27Q253 -2 190 -2T92 34T57 138V575H152V151Q152 83 218 83Z" />
<glyph unicode="&#xfa;" glyph-name="uacute" horiz-adv-x="456" d="M218 83Q260 83 300 108V575H395V0H305V27Q253 -2 190 -2T92 34T57 138V575H152V151Q152 83 218 83ZM239 728H319L255 619H199L239 728Z" />
<glyph unicode="&#xfb;" glyph-name="ucircumflex" horiz-adv-x="456" d="M218 83Q260 83 300 108V575H395V0H305V27Q253 -2 190 -2T92 34T57 138V575H152V151Q152 83 218 83ZM228 679L190 619H138L191 728H264L317 619H265L228 679Z" />
<glyph unicode="&#xfc;" glyph-name="udieresis" horiz-adv-x="456" d="M218 83Q260 83 300 108V575H395V0H305V27Q253 -2 190 -2T92 34T57 138V575H152V151Q152 83 218 83ZM345 630T301 630T257 672T301 715T345 673ZM199 630T155 630T111 672T155 715T199 673Z" />
<glyph unicode="&#xfd;" glyph-name="yacute" horiz-adv-x="405" d="M211 728H291L227 619H171L211 728ZM297 575H390L239 -149H148L178 0H138L16 575H110Q187 198 203 70Q219 189 245 320L297 575Z" />
<glyph unicode="&#xfe;" glyph-name="thorn" horiz-adv-x="457" d="M305 432Q305 491 244 491Q204 491 156 469V85H228Q305 85 305 157V432ZM62 728H156V551Q213 577 271 577T364 544T400 447V149Q400 77 360 39T251 0H156V-169H62V728Z" />
<glyph unicode="&#xff;" glyph-name="ydieresis" horiz-adv-x="405" d="M297 575H390L239 -149H148L178 0H138L16 575H110Q187 198 203 70Q219 189 245 320L297 575ZM319 630T275 630T231 672T275 715T319 673ZM173 630T129 630T85 672T129 715T173 673Z" />
<glyph unicode="&#x2013;" glyph-name="endash" horiz-adv-x="468" d="M40 366H418V287H40V366Z" />
<glyph unicode="&#x2014;" glyph-name="emdash" horiz-adv-x="702" d="M40 367H651V287H40V367Z" />
<glyph unicode="&#x2018;" glyph-name="quoteleft" horiz-adv-x="173" d="M70 505Q28 505 28 545Q28 574 52 627T99 719H145L104 505H70Z" />
<glyph unicode="&#x2019;" glyph-name="quoteright" horiz-adv-x="173" d="M103 719Q145 719 145 679Q145 627 74 505H28L69 719H103Z" />
<glyph unicode="&#x201a;" glyph-name="quotesinglbase" horiz-adv-x="173" d="M103 102Q145 102 145 62Q145 10 74 -112H28L69 102H103Z" />
<glyph unicode="&#x201c;" glyph-name="quotedblleft" horiz-adv-x="300" d="M70 505Q28 505 28 545Q28 574 52 627T99 719H141L100 505H70ZM201 505Q159 505 159 545Q159 599 229 719H272L231 505H201Z" />
<glyph unicode="&#x201d;" glyph-name="quotedblright" horiz-adv-x="300" d="M99 719Q141 719 141 679Q141 650 117 597T70 505H28L69 719H99ZM230 719Q272 719 272 679Q272 650 248 597T201 505H159L199 719H230Z" />
<glyph unicode="&#x201e;" glyph-name="quotedblbase" horiz-adv-x="300" d="M99 102Q141 102 141 62Q141 33 117 -20T70 -112H28L69 102H99ZM230 102Q272 102 272 62Q272 33 248 -20T201 -112H159L199 102H230Z" />
<glyph unicode="&#x2022;" glyph-name="bullet" horiz-adv-x="264" d="M51 249T51 329T131 409T212 329T132 249Z" />
<glyph unicode="&#x2039;" glyph-name="guilsinglleft" horiz-adv-x="400" d="M205 505H301L179 322L301 139H205L84 322L205 505Z" />
<glyph unicode="&#x203a;" glyph-name="guilsinglright" horiz-adv-x="380" d="M84 505H180L301 322L180 139H84L206 322L84 505Z" />
</font>
</defs>
</svg>
