<?xml version="1.0" standalone="no"?>
<!DOCTYPE svg PUBLIC "-//W3C//DTD SVG 1.1//EN" "http://www.w3.org/Graphics/SVG/1.1/DTD/svg11.dtd">
<svg xmlns="http://www.w3.org/2000/svg">
<defs >
<font id="Rubik" horiz-adv-x="580" ><font-face
    font-family="Rubik Medium"
    units-per-em="1000"
    panose-1="0 0 6 0 0 0 0 0 0 0"
    ascent="935"
    descent="-250"
    alphabetic="0" />
<glyph unicode=" " glyph-name="space" horiz-adv-x="232" />
<glyph unicode="!" glyph-name="exclam" horiz-adv-x="270" d="M62 195T57 201T54 219L151 676Q152 686 160 693T179 700H262Q273 700 278 693T281 676L184 219Q182 209 174 202T155 195H72Q62 195 57 201ZM14 0T9 7T5 24L25 119Q27 129 35 136T55 143H150Q160
143 165 136T169 119L149 24Q147 14 139 7T120 0H25Q14 0 9 7Z" />
<glyph unicode="&quot;" glyph-name="quotedbl" horiz-adv-x="414" d="M103 466T107 491L127 683Q128 696 136 703T155 710H245Q264 710 264 693Q264 691 262 683L201 491Q193 466 171 466H125Q103 466 107 491ZM287 466T291 491L311 683Q312 696 320 703T339
710H428Q447 710 447 692Q447 686 446 683L385 491Q377 466 355 466H309Q287 466 291 491Z" />
<glyph unicode="#" glyph-name="numbersign" horiz-adv-x="691" d="M110 39T105 45T102 60L142 168H57Q47 168 42 174T38 191L51 249Q53 259 61 265T79 272H179L233 422H137Q127 422 122 428T118 445L131 503Q133 513 141 519T159 526H271L310 634Q313 643 320
649T337 655H396Q405 655 410 649T413 634L374 526H498L537 634Q540 643 547 649T564 655H623Q632 655 637 649T640 634L601 526H684Q694 526 699 520T702 503L689 445Q688 435 680 429T662 422H564L509 272H604Q614 272 619 266T622 249L609 191Q608 181 600 175T582
168H472L433 60Q429 51 422 45T405 39H346Q337 39 332 45T329 60L369 168H244L206 60Q202 51 195 45T178 39H119Q110 39 105 45ZM282 272H406L460 422H337L282 272Z" />
<glyph unicode="$" glyph-name="dollar" horiz-adv-x="645" d="M197 -100T192 -93T189 -76L203 -5Q110 7 60 52T9 161Q9 168 11 184Q13 192 20 198T37 205H128Q139 205 145 200T155 186Q158 153 188 130T277 106Q347 106 389 129T441 194Q443 204 443 209Q443
231 427 246T378 273T283 303Q189 326 143 366T96 473Q96 499 101 520Q118 599 181 648T346 707L362 776Q364 787 372 793T391 800H453Q463 800 468 794T471 776L455 703Q511 693 551 668T613 608T634 540Q634 534 632 522Q630 514 623 508T607 501H511Q490 501
486 519Q487 550 458 572T382 594Q326 594 289 573T243 512Q241 500 241 495Q241 464 272 446T385 405Q492 380 540 341T589 237Q589 210 584 189Q565 99 496 50T312 -8L299 -76Q297 -86 289 -93T269 -100H208Q197 -100 192 -93Z" />
<glyph unicode="%" glyph-name="percent" horiz-adv-x="812" d="M153 345T117 376T80 458Q80 464 82 480Q87 518 101 572Q137 705 271 705Q330 705 365 674T401 592Q401 585 399 569Q390 516 379 477Q362 415 320 380T209 345Q153 345 117 376ZM49 0T44 4T39 16Q39
24 46 31L678 681Q688 691 696 695T716 700H776Q785 700 789 696T794 685Q794 676 787 669L156 19Q146 9 138 5T118 0H58Q49 0 44 4ZM244 423T263 440T290 483Q301 528 307 566Q309 578 309 584Q309 627 265 627Q235 627 217 610T190 566Q179 524 173 483Q172 478
172 468Q172 423 214 423Q244 423 263 440ZM507 -6T471 25T434 107Q434 113 436 129Q441 169 455 222Q491 354 625 354Q684 354 719 323T755 241Q755 234 753 218Q744 165 733 126Q716 64 674 29T563 -6Q507 -6 471 25ZM598 72T617 89T644 132Q654 174 661 215Q663
227 663 233Q663 276 619 276Q588 276 570 259T544 215Q534 177 527 132Q526 127 526 117Q526 72 568 72Q598 72 617 89Z" />
<glyph unicode="&amp;" glyph-name="ampersand" horiz-adv-x="719" d="M147 -10T92 32T36 148Q36 166 41 191Q54 253 100 298T220 382Q171 448 171 504Q171 523 175 539Q185 585 217 624T300 686T414 710Q492 710 535 673T579 576Q579 557 575 541Q563 482 517
440T391 358L504 217Q553 277 584 349Q591 366 609 366H683Q692 366 696 360T699 346Q690 307 651 249T564 141L648 33Q652 29 652 22Q652 12 646 6T629 0H531Q515 0 507 10L464 63Q366 -10 243 -10Q147 -10 92 32ZM397 463T428 489T459 555Q459 580 441 595T393
611Q355 611 325 586T295 521Q295 504 304 484T336 434Q397 463 428 489ZM340 95T404 146L277 302Q168 249 168 175Q168 138 196 117T265 95Q340 95 404 146Z" />
<glyph unicode="&apos;" glyph-name="quotesingle" horiz-adv-x="230" d="M103 466T107 491L127 683Q128 696 136 703T155 710H245Q264 710 264 693Q264 691 262 683L200 489Q195 466 172 466H125Q103 466 107 491Z" />
<glyph unicode="(" glyph-name="parenleft" horiz-adv-x="361" d="M127 -159T77 -95T26 102Q26 191 51 309Q88 480 133 580T245 728T415 776Q425 776 431 769T435 752L422 691Q420 681 412 674T394 667Q339 665 300 627T231 512T174 309Q144 171 144 88Q144 18
167 -15T242 -50Q250 -50 255 -57T259 -74L246 -135Q244 -145 236 -152T217 -159Q127 -159 77 -95Z" />
<glyph unicode=")" glyph-name="parenright" horiz-adv-x="361" d="M-60 -159T-65 -152T-69 -135L-56 -74Q-54 -64 -46 -57T-29 -50Q27 -48 66 -10T135 105T192 308Q222 453 222 528Q222 597 199 631T124 667Q115 667 110 674T107 691L120 752Q121 762 129 769T148
776Q238 776 288 712T339 516Q339 427 314 308Q277 135 234 36T123 -111T-50 -159Q-60 -159 -65 -152Z" />
<glyph unicode="*" glyph-name="asterisk" horiz-adv-x="445" d="M329 688Q332 695 338 699T350 704Q356 704 360 701L388 654Q395 650 395 642Q395 638 392 633T385 624L330 562L411 574Q432 572 427 553L384 499Q379 485 366 485Q360 485 354 489L286 509L306
439V435Q306 427 301 421T287 413L230 428H228Q220 428 217 434T215 450L228 524L157 467Q152 463 145 463Q134 463 131 474L141 537Q140 539 140 542Q140 550 146 555T161 562L236 587L175 624Q168 629 168 637Q168 647 177 654L240 678Q248 682 250 682Q255 682
259 679T264 671L299 611L329 688Z" />
<glyph unicode="+" glyph-name="plus" horiz-adv-x="609" d="M209 33T204 40T200 57L242 252H50Q40 252 35 259T31 276L43 330Q45 340 53 347T72 354H263L303 543Q305 553 313 560T333 567H392Q403 567 408 560T411 543L371 354H562Q572 354 577 347T581 330L569
276Q568 266 560 259T540 252H349L308 57Q306 46 298 40T279 33H220Q209 33 204 40Z" />
<glyph unicode="," glyph-name="comma" horiz-adv-x="270" d="M45 149T73 149H170Q176 149 180 145T184 134Q184 129 182 126L78 -49Q71 -61 63 -68T40 -75H-16Q-24 -75 -28 -69T-29 -53L34 117Q45 149 73 149Z" />
<glyph unicode="-" glyph-name="hyphen" horiz-adv-x="480" d="M64 242T59 249T55 266L69 334Q72 345 80 351T98 358H406Q417 358 422 351T425 334L411 266Q409 256 400 249T381 242H74Q64 242 59 249Z" />
<glyph unicode="." glyph-name="period" horiz-adv-x="266" d="M12 0T7 7T4 24L25 125Q27 135 35 142T54 149H155Q165 149 170 142T174 125L153 24Q151 13 143 7T124 0H23Q12 0 7 7Z" />
<glyph unicode="/" glyph-name="slash" horiz-adv-x="515" d="M-41 -84T-46 -79T-51 -67Q-51 -61 -47 -54L469 765Q474 773 483 779T505 786H572Q580 786 585 782T590 770Q590 764 585 756L68 -63Q55 -84 33 -84H-33Q-41 -84 -46 -79Z" />
<glyph unicode="0" glyph-name="zero" horiz-adv-x="657" d="M165 -10T105 43T44 196Q44 225 50 258Q65 350 90 444Q156 710 404 710Q512 710 573 656T635 503Q635 470 630 444Q614 348 590 258Q557 125 481 58T275 -10Q165 -10 105 43ZM347 107T387 145T446 263Q469
352 484 439Q490 474 490 499Q490 548 468 571T395 595Q332 594 293 556T234 439Q211 350 196 263Q190 229 190 201Q190 153 212 130T284 107Q347 107 387 145Z" />
<glyph unicode="1" glyph-name="one" horiz-adv-x="461" d="M200 0T195 7T191 24L299 530L129 418Q122 413 113 413Q102 413 96 423L61 485Q59 491 59 494Q59 501 63 508T75 519L336 693Q343 697 347 698T360 700H451Q462 700 467 693T471 676L332 24Q330 13 322
7T303 0H211Q200 0 195 7Z" />
<glyph unicode="2" glyph-name="two" horiz-adv-x="620" d="M9 0T4 7T1 24L12 76Q20 105 48 123L236 278Q358 360 408 405T468 494Q471 511 471 524Q471 558 451 576T388 595Q339 595 305 566T253 489Q241 466 217 466H127Q118 466 113 472T110 487Q124 546 166
597T272 680T413 712Q515 712 568 668T621 550Q621 526 615 500Q602 434 553 380T411 262L242 121H525Q536 121 541 114T544 96L529 24Q527 13 519 7T499 0H20Q9 0 4 7Z" />
<glyph unicode="3" glyph-name="three" horiz-adv-x="631" d="M180 -10T127 13T48 74T23 153Q23 162 25 176Q27 185 34 191T51 197H143Q165 197 169 177Q175 106 286 106Q347 106 387 134T439 214Q442 229 442 242Q442 313 336 313H233Q223 313 217 319T213 337L222
380Q228 400 243 410L458 584H172Q161 584 156 591T153 608L167 675Q169 686 177 693T197 700H627Q638 700 643 693T647 675L634 614Q630 597 615 586L405 409L417 408Q497 401 543 364T589 258Q589 234 583 207Q569 141 523 92T409 17T261 -10Q180 -10 127 13Z"
/>
<glyph unicode="4" glyph-name="four" horiz-adv-x="660" d="M330 0T325 7T321 24L349 152H23Q13 152 8 159T4 176L19 245Q23 262 34 273L419 683Q434 700 459 700H578Q589 700 594 693T597 676L511 271H600Q611 271 616 265T620 247L604 176Q603 166 595 159T575
152H486L458 24Q456 13 448 7T430 0H341Q330 0 325 7ZM179 267H376L435 546L179 267Z" />
<glyph unicode="5" glyph-name="five" horiz-adv-x="621" d="M176 -11T122 12T40 76T12 165Q12 172 14 190Q15 199 22 205T39 211H134Q146 211 153 206T160 191Q161 148 188 127T260 105Q317 105 362 139T419 233Q423 257 423 266Q423 308 397 331T321 354Q291
354 270 346T225 324Q215 318 206 314T188 309H94Q84 309 80 316T78 333L184 672Q188 685 197 692T219 700H595Q605 700 611 694T615 676L600 608Q598 597 590 591T571 584H282L232 422Q257 437 288 446T367 456Q424 456 470 434T542 370T569 273Q569 253 564 225Q540
113 461 51T251 -11Q176 -11 122 12Z" />
<glyph unicode="6" glyph-name="six" horiz-adv-x="628" d="M196 -10T144 14T64 82T36 182Q36 208 42 236Q61 324 160 430L396 680Q405 689 413 694T435 700H530Q539 700 543 694T545 678Q544 673 539 665L357 472Q374 476 401 476Q459 475 504 451T576 384T602
287Q602 259 597 238Q583 170 538 114T422 24T269 -10Q196 -10 144 14ZM349 106T394 140T453 236Q457 258 457 268Q457 314 426 339T347 365Q291 365 245 331T186 236Q183 220 183 205Q183 158 214 132T293 106Q349 106 394 140Z" />
<glyph unicode="7" glyph-name="seven" horiz-adv-x="545" d="M87 0T83 6T80 22Q82 28 84 31L440 580H127Q116 580 111 587T108 604L123 675Q125 686 133 693T153 700H593Q604 700 609 693T613 675L599 612Q594 590 580 569L227 24Q208 0 189 0H96Q87 0 83 6Z" />
<glyph unicode="8" glyph-name="eight" horiz-adv-x="655" d="M197 -10T141 13T56 78T26 171Q26 182 30 208Q41 264 78 306T169 372Q145 392 131 420T117 484Q117 500 120 518Q137 605 213 657T403 710Q470 710 521 689T599 631T627 545Q627 529 624 512Q615 465
589 431T519 372Q552 351 570 317T589 240Q589 218 585 201Q565 104 485 47T273 -10Q197 -10 141 13ZM408 417T451 449T495 532Q495 566 469 585T396 605Q334 605 292 572T249 487Q249 454 274 435T348 416Q408 417 451 449ZM323 95T361 112T423 160T446 228Q446
269 416 292T334 315Q291 315 253 299T192 252T168 182Q168 141 198 118T280 95Q323 95 361 112Z" />
<glyph unicode="9" glyph-name="nine" horiz-adv-x="618" d="M125 0T121 6T118 22Q119 28 126 35L315 237Q299 233 273 233Q216 235 172 259T104 324T79 418Q79 446 84 467Q98 530 140 585T251 675T405 710Q517 710 576 658T635 522Q635 497 629 471Q620 430 600
394T557 332T495 263L268 20Q259 11 251 6T230 0H134Q125 0 121 6ZM383 341T427 375T484 467Q487 482 487 496Q487 542 458 568T382 594Q327 594 283 560T227 467Q224 451 224 436Q224 392 253 367T328 341Q383 341 427 375Z" />
<glyph unicode=":" glyph-name="colon" horiz-adv-x="275" d="M88 350T83 357T80 374L100 470Q103 481 111 488T130 495H230Q241 495 246 488T249 470L229 374Q227 364 219 357T199 350H99Q88 350 83 357ZM14 0T9 7T5 24L26 120Q28 131 36 138T55 145H156Q166
145 171 138T175 120L154 24Q152 13 144 7T125 0H25Q14 0 9 7Z" />
<glyph unicode=";" glyph-name="semicolon" horiz-adv-x="287" d="M116 350T110 356T106 374L126 470Q128 481 137 488T156 495H256Q267 495 272 488T276 470L255 374Q254 364 246 357T226 350H126Q116 350 110 356ZM-5 -75T-8 -69T-9 -54L53 117Q66 149 93 149H186Q193
149 197 144T200 131Q200 129 198 125T195 117L94 -49Q78 -75 55 -75H3Q-5 -75 -8 -69Z" />
<glyph unicode="&lt;" glyph-name="less" horiz-adv-x="505" d="M375 55T365 63L76 295Q55 312 55 329Q55 336 56 339L61 363Q64 377 73 387T100 408L487 639Q503 648 510 648Q519 648 523 642T526 627L509 550Q506 537 499 530T476 513L200 351L407 189Q419 179
423 172T425 153L408 75Q407 66 400 61T384 55Q375 55 365 63Z" />
<glyph unicode="=" glyph-name="equal" horiz-adv-x="570" d="M98 373T92 379T88 397L100 453Q102 463 110 470T130 477H517Q528 477 533 470T536 453L524 397Q522 386 514 380T495 373H108Q98 373 92 379ZM44 123T39 130T35 147L47 203Q49 213 57 220T77 227H464Q475
227 480 220T483 203L471 147Q469 136 461 130T442 123H55Q44 123 39 130Z" />
<glyph unicode="&gt;" glyph-name="greater" horiz-adv-x="504" d="M38 55T34 60T31 75L47 153Q50 165 57 172T81 189L357 351L150 513Q138 522 134 529T131 550L148 627Q150 637 157 642T173 648Q180 648 191 639L481 408Q492 399 497 392T502 375Q502 371 500
363L495 339Q492 325 483 315T457 295L69 63Q57 55 47 55Q38 55 34 60Z" />
<glyph unicode="?" glyph-name="question" horiz-adv-x="566" d="M221 189T216 195T213 209L220 241Q235 288 267 324T354 405Q395 438 416 460T445 506Q449 518 449 530Q449 560 425 577T364 595Q267 595 226 498Q215 475 192 475H105Q96 475 91 482T88 500Q101
555 143 603T250 680T395 710Q501 710 550 668T600 564Q600 543 594 523Q582 476 552 440T470 359Q430 324 408 300T373 248L362 214Q355 201 348 195T329 189H230Q221 189 216 195ZM176 0T171 7T168 24L187 113Q189 123 197 130T216 137H314Q324 137 330 130T334
113L315 24Q313 14 305 7T285 0H186Q176 0 171 7Z" />
<glyph unicode="@" glyph-name="at" horiz-adv-x="839" d="M193 -125T118 -57T42 135Q42 159 45 186Q48 214 60 273T81 357Q110 447 168 518T312 630T506 671Q818 671 818 428Q818 395 812 357Q808 326 800 289T785 229Q765 157 717 118T609 79Q565 79 540 96T503
133Q454 69 362 69Q301 69 268 105T235 206Q235 235 243 273Q263 369 318 423T447 478Q513 478 537 431L541 446Q543 457 551 463T570 470H610Q621 470 626 463T629 446L585 238Q582 223 582 212Q582 188 593 176T626 163Q658 163 675 185T700 238Q702 245 710
280T724 352Q729 387 729 411Q729 500 673 543T487 586Q365 586 285 525T169 352Q160 327 149 274T135 191Q133 165 133 153Q133 59 190 10T363 -40Q425 -40 466 -32T531 -12T582 18Q585 20 594 26T614 32H670Q680 32 685 25T688 8Q687 2 680 -7Q547 -125 345 -125Q193
-125 118 -57ZM437 153T464 183T504 273Q510 302 510 323Q510 394 443 394Q399 394 371 363T331 273Q326 246 326 228Q326 192 342 173T392 153Q437 153 464 183Z" />
<glyph unicode="A" glyph-name="A" horiz-adv-x="698" d="M-35 0T-40 5T-45 18Q-45 24 -42 30L335 675Q350 700 376 700H493Q519 700 523 675L627 30Q629 16 623 8T605 0H518Q494 0 491 23L469 140H173L100 19Q89 0 68 0H-27Q-35 0 -40 5ZM233 256H459L411 564L233 256Z" />
<glyph unicode="B" glyph-name="B" horiz-adv-x="689" d="M29 0T24 7T20 24L158 675Q160 686 168 693T187 700H470Q566 700 620 659T674 548Q674 527 670 508Q659 453 626 418T556 367Q587 350 606 318T625 245Q625 224 621 207Q600 111 533 56T347 0H39Q29 0
24 7ZM396 413Q454 413 490 445T527 529Q527 593 444 593H282L244 413H396ZM343 107Q382 107 413 125T461 172T478 236Q478 309 387 309H221L178 107H343Z" />
<glyph unicode="C" glyph-name="C" horiz-adv-x="684" d="M176 -10T109 45T42 202Q42 235 47 261Q59 333 85 439Q117 569 201 639T424 710Q503 710 562 686T654 617T687 514Q687 497 684 477Q682 468 676 462T661 456H563Q550 456 544 461T538 481Q545 594 415
594Q345 594 297 555T229 434Q208 352 193 266Q188 234 188 216Q188 106 305 106Q366 106 410 132T481 219Q488 233 495 238T514 244H612Q621 244 626 238T629 223Q602 118 518 54T296 -10Q176 -10 109 45Z" />
<glyph unicode="D" glyph-name="D" horiz-adv-x="703" d="M29 0T24 7T20 24L158 675Q160 686 168 693T187 700H418Q537 700 609 644T681 484Q681 453 676 428Q658 338 642 273Q619 177 579 118T471 29T303 0H39Q29 0 24 7ZM308 116Q391 116 435 153T500 276Q520
353 532 425Q538 454 538 477Q538 532 505 558T403 584H280L180 116H308Z" />
<glyph unicode="E" glyph-name="E" horiz-adv-x="622" d="M29 0T24 7T20 24L158 675Q160 686 168 693T187 700H629Q640 700 645 693T648 675L634 608Q632 597 624 591T605 584H276L238 409H545Q556 409 561 402T564 384L551 321Q549 310 541 304T521 297H215L176
116H513Q524 116 529 109T532 92L518 24Q516 13 508 7T489 0H39Q29 0 24 7Z" />
<glyph unicode="F" glyph-name="F" horiz-adv-x="603" d="M29 0T24 7T20 24L158 675Q160 686 168 693T187 700H623Q634 700 639 693T642 675L627 603Q625 592 617 586T598 579H277L237 391H537Q548 391 553 385T556 367L541 295Q540 285 532 278T512 271H211L159
24Q157 13 149 7T130 0H39Q29 0 24 7Z" />
<glyph unicode="G" glyph-name="G" horiz-adv-x="701" d="M181 -10T118 44T55 196Q55 226 61 259Q76 348 101 445Q131 569 224 639T453 710Q537 710 594 684T679 616T707 531Q707 523 705 509Q704 500 697 494T680 488H575Q565 488 561 491T553 505Q548 542 519
568T428 594Q358 594 311 557T245 440Q221 348 207 264Q203 241 203 219Q203 106 326 106Q397 106 447 144T515 258L521 289H400Q389 289 384 296T381 313L393 368Q395 379 403 385T422 392H661Q672 392 677 386T681 368L658 262Q640 179 591 118T466 23T300 -10Q181
-10 118 44Z" />
<glyph unicode="H" glyph-name="H" horiz-adv-x="730" d="M29 0T24 7T20 24L158 675Q160 686 168 693T187 700H280Q291 700 296 693T299 675L244 418H537L592 675Q594 686 602 693T621 700H713Q724 700 729 693T733 675L594 24Q592 13 584 7T565 0H473Q462 0 457
7T453 24L510 291H218L161 24Q159 13 151 7T132 0H39Q29 0 24 7Z" />
<glyph unicode="I" glyph-name="I" horiz-adv-x="300" d="M28 0T23 7T19 24L159 676Q160 686 168 693T187 700H284Q294 700 299 693T303 676L164 24Q162 14 154 7T136 0H39Q28 0 23 7Z" />
<glyph unicode="J" glyph-name="J" horiz-adv-x="649" d="M189 -10T133 11T41 75T5 179Q5 195 8 211Q10 221 17 227T33 233H131Q153 233 155 208Q149 106 260 106Q327 106 368 146T424 260L493 580H154Q144 580 139 587T135 605L151 676Q152 686 160 693T179 700H638Q649
700 654 693T658 675L569 256Q541 125 465 58T252 -10Q189 -10 133 11Z" />
<glyph unicode="K" glyph-name="K" horiz-adv-x="625" d="M29 0T24 7T20 24L158 675Q160 686 168 693T186 700H278Q289 700 294 693T297 675L249 447L507 682Q522 700 549 700H653Q662 700 667 694T672 680Q672 672 666 666L334 356L555 34Q559 29 559 22Q559
13 552 7T536 0H436Q411 0 402 18L215 286L159 24Q157 13 149 7T131 0H39Q29 0 24 7Z" />
<glyph unicode="L" glyph-name="L" horiz-adv-x="575" d="M29 0T24 7T20 24L159 676Q160 686 168 693T187 700H282Q292 700 298 694T302 676L183 120H500Q511 120 516 113T519 96L504 24Q502 13 494 7T475 0H39Q29 0 24 7Z" />
<glyph unicode="M" glyph-name="M" horiz-adv-x="813" d="M29 0T24 7T20 24L158 675Q160 686 168 693T188 700H269Q288 700 296 681L413 323L682 681Q697 700 716 700H796Q807 700 812 693T816 675L677 24Q675 13 667 7T648 0H562Q551 0 546 7T542 24L631 445L442
190Q432 179 424 174T404 168H362Q340 168 333 190L247 460L155 24Q153 14 145 7T127 0H40Q29 0 24 7Z" />
<glyph unicode="N" glyph-name="N" horiz-adv-x="709" d="M29 0T24 7T20 24L158 675Q160 686 168 693T187 700H264Q284 700 290 683L483 235L577 675Q579 686 587 693T606 700H692Q703 700 708 693T711 675L573 25Q571 14 563 7T544 0H467Q455 0 450 5T440 17L247
455L155 24Q153 13 145 7T126 0H39Q29 0 24 7Z" />
<glyph unicode="O" glyph-name="O" horiz-adv-x="695" d="M181 -10T112 45T42 205Q42 238 47 264Q67 370 84 435Q117 571 202 640T423 710Q537 710 606 654T676 494Q676 467 670 435Q657 356 634 264Q600 126 516 58T295 -10Q181 -10 112 45ZM372 106T421 146T490
269Q511 359 525 431Q530 463 530 483Q530 594 415 594Q346 594 297 554T228 431Q206 340 194 269Q189 244 189 215Q189 159 218 133T304 106Q372 106 421 146Z" />
<glyph unicode="P" glyph-name="P" horiz-adv-x="661" d="M29 0T24 7T20 24L158 675Q160 686 168 693T187 700H444Q550 700 612 656T674 529Q674 506 668 477Q621 258 373 258H215L165 24Q163 13 155 7T136 0H39Q29 0 24 7ZM376 370Q433 370 472 398T523 478Q528
501 528 517Q528 552 506 570T430 588H283L236 370H376Z" />
<glyph unicode="Q" glyph-name="Q" horiz-adv-x="695" d="M451 -65T445 -59T432 -42L406 8Q356 -10 296 -10Q179 -10 117 41T54 193Q54 229 61 264Q77 345 98 435Q130 568 223 639T449 710Q563 710 626 657T690 502Q690 471 684 435Q671 356 648 264Q615 133 533
66L582 -34Q583 -35 583 -40Q583 -50 576 -57T558 -65H464Q451 -65 445 -59ZM388 106T436 146T504 269Q523 343 538 431Q543 459 543 479Q543 537 512 565T425 594Q359 594 311 554T242 431Q220 340 208 269Q203 239 203 221Q203 163 234 135T321 106Q388 106 436
146Z" />
<glyph unicode="R" glyph-name="R" horiz-adv-x="674" d="M42 0T37 7T34 24L172 675Q174 686 182 693T202 700H461Q567 700 624 658T682 535Q682 510 676 481Q661 408 616 359T502 287L593 32Q594 27 593 21Q592 12 584 6T568 0H476Q459 0 452 7T442 27L363 264H226L175
24Q173 14 165 7T145 0H53Q42 0 37 7ZM390 378Q449 378 484 404T531 482Q534 497 534 511Q534 548 509 568T434 588H294L250 378H390Z" />
<glyph unicode="S" glyph-name="S" horiz-adv-x="642" d="M185 -10T127 13T39 75T9 161Q9 168 11 184Q12 192 18 198T34 205H127Q138 205 144 200T154 186Q158 153 188 130T277 106Q347 106 389 129T440 194Q442 204 442 209Q442 231 426 246T377 273T282 303Q188
326 142 366T96 472Q96 499 101 520Q120 608 195 659T391 710Q465 710 520 685T604 620T633 540Q633 534 631 522Q629 513 623 507T608 501H511Q490 501 485 519Q486 550 457 572T382 594Q326 594 289 573T243 512Q241 500 241 494Q241 464 273 445T385 405Q491
380 540 341T589 235Q589 217 584 189Q563 91 482 41T268 -10Q185 -10 127 13Z" />
<glyph unicode="T" glyph-name="T" horiz-adv-x="602" d="M180 0T175 7T171 24L289 575H104Q94 575 89 582T85 600L101 675Q103 686 111 693T130 700H642Q653 700 658 693T661 675L645 600Q643 589 635 582T616 575H432L314 24Q312 13 304 7T285 0H191Q180 0 175 7Z" />
<glyph unicode="U" glyph-name="U" horiz-adv-x="714" d="M189 -10T123 40T57 190Q57 226 66 268L152 675Q154 686 162 693T181 700H273Q284 700 289 693T293 675L206 268Q199 236 199 207Q199 157 226 133T312 109Q385 109 431 148T494 268L581 675Q583 686 591
693T611 700H703Q714 700 719 693T722 675L636 268Q605 124 525 57T303 -10Q189 -10 123 40Z" />
<glyph unicode="V" glyph-name="V" horiz-adv-x="675" d="M202 0T194 7T185 28L107 674Q106 686 113 693T130 700H218Q231 700 237 694T245 678L303 166L579 678Q591 700 613 700H712Q720 700 724 695T729 682Q729 675 726 669L376 28Q360 0 332 0H218Q202 0 194 7Z" />
<glyph unicode="W" glyph-name="W" horiz-adv-x="809" d="M114 0T106 8T99 30L113 678Q113 687 120 693T137 700H223Q248 700 248 677L237 236L385 520Q400 545 423 545H478Q491 545 497 538T505 520L535 231L713 680Q720 700 746 700H838Q855 700 855 685Q855
682 853 674L604 30Q592 0 562 0H490Q476 0 469 7T460 25L413 356L239 25Q224 0 199 0H129Q114 0 106 8Z" />
<glyph unicode="X" glyph-name="X" horiz-adv-x="663" d="M-31 0T-36 5T-41 19Q-41 28 -36 33L266 360L112 668Q109 674 109 679Q109 688 115 694T132 700H224Q239 700 245 695T255 681L365 463L561 681Q562 682 567 687T580 696T600 700H701Q709 700 714 695T720
681Q720 673 714 667L426 340L583 31Q585 28 585 21Q585 12 579 6T562 0H471Q456 0 450 5T439 18L328 236L126 18Q124 17 116 9T88 0H-22Q-31 0 -36 5Z" />
<glyph unicode="Y" glyph-name="Y" horiz-adv-x="662" d="M211 0T206 7T202 24L250 249L103 668Q101 674 101 676Q101 685 108 692T127 700H211Q231 700 238 681L343 393L570 681Q584 700 605 700H705Q723 700 723 685Q723 677 716 668L391 249L343 24Q341 13
333 7T314 0H222Q211 0 206 7Z" />
<glyph unicode="Z" glyph-name="Z" horiz-adv-x="623" d="M-11 0T-16 7T-20 25L-4 96Q-1 109 4 117T18 133L451 580H132Q122 580 117 587T113 605L128 675Q130 686 138 693T157 700H637Q648 700 653 693T656 675L641 605Q639 594 634 587T621 570L193 120H525Q536
120 541 113T544 96L529 24Q527 13 519 7T500 0H0Q-11 0 -16 7Z" />
<glyph unicode="[" glyph-name="bracketleft" horiz-adv-x="355" d="M-16 -159T-21 -152T-25 -135L164 752Q166 762 174 769T192 776H407Q418 776 423 769T427 752L414 690Q412 680 404 673T385 666H270L119 -41H234Q244 -41 249 -48T253 -65L238 -135Q236 -146
228 -152T209 -159H-6Q-16 -159 -21 -152Z" />
<glyph unicode="\" glyph-name="backslash" horiz-adv-x="504" d="M296 -84T292 -59L123 760Q121 771 127 778T145 786H205Q229 786 235 761L402 -58L403 -63Q403 -72 397 -78T381 -84H323Q296 -84 292 -59Z" />
<glyph unicode="]" glyph-name="bracketright" horiz-adv-x="355" d="M376 776T381 769T385 752L196 -135Q194 -146 186 -152T167 -159H-47Q-57 -159 -62 -153T-67 -135L-52 -65Q-50 -55 -42 -48T-23 -41H92L243 666H128Q117 666 112 673T109 690L122 752Q124
763 132 769T151 776H365Q376 776 381 769Z" />
<glyph unicode="^" glyph-name="asciicircum" horiz-adv-x="449" d="M131 583T134 596Q136 605 147 614L265 714Q277 724 285 727T303 730H359Q369 730 375 727T389 714L466 614Q472 604 471 596Q468 583 453 583H416Q397 583 386 590L312 643L216 590Q202 583
183 583H146Q131 583 134 596Z" />
<glyph unicode="_" glyph-name="underscore" horiz-adv-x="739" d="M-6 -57T-11 -50T-15 -33L0 34Q2 45 10 51T29 58H616Q627 58 632 51T636 34L621 -33Q619 -44 611 -50T592 -57H5Q-6 -57 -11 -50Z" />
<glyph unicode="`" glyph-name="grave" horiz-adv-x="256" d="M157 595T150 598T136 608L35 709Q31 713 31 719Q31 729 37 735T53 742H160Q173 742 179 739T193 723L253 625Q257 618 255 610Q253 604 248 600T236 595H169Q157 595 150 598Z" />
<glyph unicode="a" glyph-name="a" horiz-adv-x="607" d="M113 -10T69 38T25 169Q25 194 30 227Q34 255 44 293Q72 401 136 465T303 530Q361 530 394 513T447 463L454 496Q456 507 464 513T483 520H563Q574 520 579 513T583 496L483 24Q481 13 473 7T454 0H374Q363
0 358 7T354 24L362 61Q327 26 291 8T199 -10Q113 -10 69 38ZM302 98T340 135T391 225Q401 266 407 302Q410 319 410 334Q410 373 389 397T322 422Q221 422 182 290Q174 263 169 230Q165 200 165 186Q165 144 183 121T245 98Q302 98 340 135Z" />
<glyph unicode="b" glyph-name="b" horiz-adv-x="613" d="M241 -10T203 9T146 61L138 24Q136 13 128 7T109 0H28Q17 0 12 7T9 24L150 686Q152 697 160 703T179 710H266Q277 710 282 703T285 686L238 464Q272 496 308 513T395 530Q482 530 527 482T573 351Q573
328 568 296Q563 263 553 225Q526 116 461 53T296 -10Q241 -10 203 9ZM376 98T417 230Q426 260 429 290Q433 322 433 335Q433 376 414 399T349 422Q293 422 254 387T203 302Q193 259 187 225Q184 207 184 190Q184 149 205 124T273 98Q376 98 417 230Z" />
<glyph unicode="c" glyph-name="c" horiz-adv-x="571" d="M140 -10T82 39T24 176Q24 200 28 220Q39 274 45 300Q73 410 147 470T332 530Q406 530 454 505T524 441T547 367Q547 358 546 354Q544 343 537 336T520 329H428Q417 329 412 334T405 350Q405 425 324 425Q273
425 236 393T182 295Q180 288 167 225Q163 204 163 181Q163 95 246 95Q327 95 366 167Q373 179 379 183T395 188H487Q497 188 502 181T505 164Q494 127 463 88T373 19T233 -10Q140 -10 82 39Z" />
<glyph unicode="d" glyph-name="d" horiz-adv-x="613" d="M115 -10T70 38T25 170Q25 194 30 227Q34 255 44 293Q71 400 135 465T301 530Q355 530 391 512T447 464L494 686Q496 697 504 703T523 710H610Q620 710 625 703T629 686L488 24Q486 14 478 7T460 0H379Q368
0 363 7T359 24L367 61Q332 26 295 8T201 -10Q115 -10 70 38ZM305 98T344 135T396 225Q406 266 412 302Q415 317 415 331Q415 371 393 396T324 422Q269 422 234 386T182 290Q172 255 169 230Q165 200 165 188Q165 98 248 98Q305 98 344 135Z" />
<glyph unicode="e" glyph-name="e" horiz-adv-x="576" d="M144 -10T92 38T40 175Q40 209 45 236Q46 243 56 286Q85 400 164 465T354 530Q453 530 503 480T554 341Q554 308 546 266L541 245Q539 235 531 228T511 221H180L178 213Q175 195 175 179Q175 137 196 111T259
84Q316 84 362 130Q373 141 379 143T397 146H485Q494 146 499 140T502 125Q495 101 460 69T367 14T240 -10Q144 -10 92 38ZM417 306V308Q421 327 421 347Q421 389 399 413T335 438Q284 438 247 403T198 308V306H417Z" />
<glyph unicode="f" glyph-name="f" horiz-adv-x="412" d="M72 0T67 7T63 24L146 413H65Q54 413 49 420T46 437L58 496Q60 506 68 513T88 520H168L177 560Q216 740 400 740H481Q492 740 497 733T500 716L487 657Q485 647 477 640T458 633H398Q359 633 337 614T307
555L299 520H424Q435 520 440 513T443 496L430 437Q429 427 421 420T401 413H277L194 24Q192 13 184 7T165 0H82Q72 0 67 7Z" />
<glyph unicode="g" glyph-name="g" horiz-adv-x="615" d="M111 -220T61 -191T-7 -124T-22 -60Q-21 -50 -13 -43T5 -35H97Q106 -35 111 -39T118 -56Q126 -119 204 -119Q323 -119 348 0L362 68Q329 37 293 21T205 4Q115 4 71 50T27 178Q27 213 32 239Q36 264 43
293Q72 402 135 466T301 530Q355 530 393 510T450 456L459 495Q461 506 469 513T488 520H571Q581 520 586 513T590 495L488 13Q463 -102 395 -161T196 -220Q111 -220 61 -191ZM306 110T345 146T397 234Q406 269 410 298Q413 313 413 329Q413 370 392 396T324 422Q268
422 233 385T181 290Q173 264 170 242Q166 212 166 198Q166 110 250 110Q306 110 345 146Z" />
<glyph unicode="h" glyph-name="h" horiz-adv-x="630" d="M17 0T12 7T8 24L150 686Q152 697 160 703T178 710H269Q280 710 285 703T289 686L240 458Q274 493 314 511T406 530Q487 530 532 487T578 368Q578 336 571 305L511 24Q509 14 501 7T483 0H391Q380 0 375
7T371 24L429 299Q434 319 434 344Q434 422 352 422Q300 422 259 389T206 299L148 24Q146 13 138 7T119 0H28Q17 0 12 7Z" />
<glyph unicode="i" glyph-name="i" horiz-adv-x="265" d="M142 605T137 612T133 629L149 702Q150 712 158 719T178 727H270Q280 727 286 720T290 702L274 629Q272 619 264 612T245 605H152Q142 605 137 612ZM17 0T12 7T8 24L109 496Q111 507 119 513T138 520H223Q233
520 238 513T241 496L141 24Q139 14 131 7T113 0H28Q17 0 12 7Z" />
<glyph unicode="j" glyph-name="j" horiz-adv-x="280" d="M152 605T147 612T143 629L159 702Q160 712 168 719T188 727H284Q294 727 300 720T304 702L288 629Q286 619 278 612T259 605H162Q152 605 147 612ZM-133 -190T-138 -184T-141 -166L-129 -107Q-127 -96
-119 -90T-100 -83H-71Q-3 -83 14 2L119 496Q121 506 129 513T148 520H237Q247 520 252 513T255 496L150 -1Q130 -93 76 -141T-77 -190H-123Q-133 -190 -138 -184Z" />
<glyph unicode="k" glyph-name="k" horiz-adv-x="554" d="M17 0T12 7T8 24L150 686Q152 697 160 703T178 710H261Q272 710 277 703T281 686L209 349L403 503Q406 505 413 510T428 518T444 520H548Q556 520 561 516T566 504Q566 490 552 480L306 280L481 35Q486
28 486 22Q486 13 479 7T462 0H369Q348 0 338 16L183 229L139 24Q137 13 129 7T111 0H28Q17 0 12 7Z" />
<glyph unicode="l" glyph-name="l" horiz-adv-x="266" d="M17 0T12 7T8 24L150 686Q152 697 160 703T178 710H263Q273 710 278 703T282 686L141 24Q139 14 131 7T113 0H28Q17 0 12 7Z" />
<glyph unicode="m" glyph-name="m" horiz-adv-x="904" d="M17 0T12 7T8 24L109 496Q111 507 119 513T138 520H217Q227 520 232 514T235 496L228 462Q261 495 295 512T378 530Q435 530 473 507T525 441Q597 530 696 530Q767 530 810 491T853 375Q853 343 846 311L784
24Q782 13 774 7T756 0H673Q662 0 657 7T653 24L713 303Q718 324 718 348Q718 422 648 422Q608 422 572 393T523 303L463 24Q461 13 453 7T435 0H351Q341 0 336 7T332 24L391 303Q396 324 396 348Q396 386 377 404T326 422Q286 422 250 393T201 303L142 24Q140
13 132 7T113 0H28Q17 0 12 7Z" />
<glyph unicode="n" glyph-name="n" horiz-adv-x="625" d="M17 0T12 7T8 24L109 496Q111 507 119 513T138 520H221Q232 520 237 513T240 496L231 455Q264 489 308 509T405 530Q487 530 530 489T574 374Q574 345 566 305L506 24Q504 13 496 7T477 0H388Q377 0 372
7T368 24L426 299Q433 334 433 351Q433 387 414 404T351 422Q295 422 256 390T204 299L146 24Q144 13 136 7T117 0H28Q17 0 12 7Z" />
<glyph unicode="o" glyph-name="o" horiz-adv-x="591" d="M137 -10T81 38T24 171Q24 195 28 216Q37 269 47 304Q74 411 147 470T337 530Q438 530 495 481T552 347Q552 334 548 304Q533 232 529 216Q501 109 429 50T238 -10Q137 -10 81 38ZM301 91T338 124T392
221Q399 249 409 299Q413 320 413 342Q413 430 327 430Q274 430 237 396T184 299Q173 264 167 221Q163 200 163 177Q163 91 248 91Q301 91 338 124Z" />
<glyph unicode="p" glyph-name="p" horiz-adv-x="613" d="M-23 -190T-28 -183T-32 -166L109 496Q111 507 119 513T138 520H219Q230 520 235 513T238 496L230 456Q264 492 302 511T396 530Q483 530 528 481T573 349Q573 325 568 293Q564 265 554 227Q527 120 462
55T296 -10Q242 -10 206 9T152 61L104 -166Q102 -177 94 -183T75 -190H-12Q-23 -190 -28 -183ZM328 98T363 134T416 230Q424 257 429 290Q432 311 432 331Q432 422 350 422Q292 422 253 385T202 295Q192 259 185 218Q182 203 182 189Q182 149 204 124T273 98Q328
98 363 134Z" />
<glyph unicode="q" glyph-name="q" horiz-adv-x="614" d="M322 -190T317 -183T314 -166L362 61Q329 26 292 8T203 -10Q116 -10 71 39T25 170Q25 192 30 224Q35 255 45 296Q73 404 137 467T302 530Q357 530 395 510T452 456L460 496Q462 506 470 513T490 520H571Q581
520 586 513T589 496L449 -166Q447 -176 439 -183T420 -190H333Q322 -190 317 -183ZM305 98T344 133T395 218Q407 259 411 295Q414 313 414 330Q414 371 393 396T325 422Q269 422 235 386T182 290Q174 263 169 230Q165 200 165 186Q165 98 249 98Q305 98 344 133Z"
/>
<glyph unicode="r" glyph-name="r" horiz-adv-x="420" d="M17 0T12 7T8 24L109 495Q111 506 119 513T138 520H220Q231 520 236 513T240 495L231 454Q281 520 381 520H431Q442 520 447 513T450 496L434 423Q433 413 425 406T405 399H326Q279 399 247 372T204 298L146
24Q144 14 136 7T117 0H28Q17 0 12 7Z" />
<glyph unicode="s" glyph-name="s" horiz-adv-x="533" d="M142 -10T97 10T32 58T12 110Q12 124 21 132T40 141H122Q129 141 134 133Q139 129 153 114T188 91T235 82Q280 82 309 101T339 155Q339 177 313 190T213 221Q143 237 110 266T76 342Q76 352 80 374Q89
414 121 449T205 507T323 530Q390 530 434 509T498 459T513 406Q512 396 504 389T487 382H412Q402 382 397 390Q391 396 378 409T348 430T303 438Q262 438 237 418T212 367Q212 348 237 335T333 306Q483 276 483 180Q483 164 480 149Q465 78 394 34T213 -10Q142
-10 97 10Z" />
<glyph unicode="t" glyph-name="t" horiz-adv-x="425" d="M163 0T124 31T84 126Q84 156 91 187L140 413H61Q50 413 45 420T42 437L54 496Q56 506 64 513T84 520H162L198 686Q200 697 208 703T226 710H309Q320 710 325 703T329 686L293 520H418Q429 520 434 513T437
496L424 437Q423 427 415 420T395 413H271L224 198Q218 171 218 152Q218 131 229 121T267 111H340Q351 111 356 104T359 87L346 24Q344 13 336 7T317 0H246Q163 0 124 31Z" />
<glyph unicode="u" glyph-name="u" horiz-adv-x="622" d="M123 -10T80 31T36 147Q36 177 44 215L103 496Q105 506 113 513T133 520H222Q233 520 238 513T241 496L183 221Q176 186 176 168Q176 133 195 116T257 98Q311 98 350 131T403 221L461 496Q463 506 471
513T490 520H580Q590 520 595 513T598 496L498 24Q496 14 488 7T470 0H387Q376 0 371 7T367 24L376 65Q339 25 302 8T204 -10Q123 -10 80 31Z" />
<glyph unicode="v" glyph-name="v" horiz-adv-x="574" d="M171 0T165 6T156 25L67 493Q65 506 71 513T91 520H168Q190 520 193 497L250 152L456 501Q468 520 487 520H575Q583 520 588 516T593 503Q593 496 589 489L303 25Q295 12 287 6T264 0H185Q171 0 165 6Z" />
<glyph unicode="w" glyph-name="w" horiz-adv-x="822" d="M118 0T116 25L71 493Q69 504 77 512T97 520H169Q180 520 185 515T192 501L221 172L392 498Q403 520 426 520H478Q501 520 503 498L538 172L706 501Q709 508 716 514T735 520H817Q834 520 834 504Q834
499 831 491L590 25Q583 13 575 7T553 0H486Q460 0 457 25L416 339L247 25Q234 0 209 0H143Q118 0 116 25Z" />
<glyph unicode="x" glyph-name="x" horiz-adv-x="565" d="M-26 0T-31 6T-37 20Q-37 29 -31 35L193 270L80 486Q78 489 78 496Q78 505 84 512T101 520H185Q196 520 201 516T211 503L292 353L438 503Q446 511 453 515T473 520H562Q570 521 576 515T582 500Q582 491
575 484L359 257L474 34Q477 28 477 21Q477 12 471 6T454 0H367Q351 0 342 16L258 171L108 16Q102 9 95 5T75 0H-17Q-26 0 -31 6Z" />
<glyph unicode="y" glyph-name="y" horiz-adv-x="581" d="M48 -190T44 -186T39 -174Q39 -164 44 -158L166 34L68 492Q66 503 72 511T94 520H170Q190 520 194 501L260 175L467 501Q478 520 499 520H586Q594 520 599 516T604 503Q604 497 600 490L173 -171Q162 -190
141 -190H55Q48 -190 44 -186Z" />
<glyph unicode="z" glyph-name="z" horiz-adv-x="530" d="M-10 0T-15 7T-19 24L-6 82Q-4 96 8 108L329 414H97Q87 414 82 421T78 439L90 496Q92 507 100 513T119 520H499Q510 520 515 513T518 496L505 434Q504 421 491 410L175 106H432Q443 106 448 99T450 81L438
24Q436 13 428 7T410 0H0Q-10 0 -15 7Z" />
<glyph unicode="{" glyph-name="braceleft" horiz-adv-x="398" d="M77 -158T77 26Q77 73 89 131Q95 158 95 179Q95 227 60 251L51 256Q32 268 32 284Q32 291 33 295L39 323Q42 337 49 346T73 362L85 368Q117 385 136 413T165 487Q227 775 461 776H467Q476 776
481 770T484 754L471 689Q469 679 462 673T445 667H441Q395 664 367 644T319 583T284 470Q272 410 244 369T176 309Q199 296 211 270T223 207Q223 177 216 148Q202 83 202 44Q202 -3 222 -25T288 -49H293Q302 -50 306 -56T309 -71L295 -137Q293 -146 286 -152T268
-159H263Q77 -158 77 26Z" />
<glyph unicode="|" glyph-name="bar" horiz-adv-x="250" d="M-26 -208T-31 -201T-34 -184L190 872Q192 882 200 889T219 896H285Q296 896 301 889T304 872L80 -184Q78 -194 70 -201T50 -208H-16Q-26 -208 -31 -201Z" />
<glyph unicode="}" glyph-name="braceright" horiz-adv-x="398" d="M355 775T355 591Q355 545 343 486Q337 459 337 438Q337 390 372 367L381 362Q400 349 400 333Q400 327 399 323L392 294Q390 281 383 273T359 255L347 250Q315 234 296 206T267 130Q237 -12
163 -84T-29 -159H-35Q-45 -159 -50 -153T-53 -137L-39 -71Q-37 -62 -30 -56T-13 -49H-9Q36 -47 65 -27T113 34T147 147Q160 208 188 249T256 308Q233 322 221 348T209 411Q209 441 216 470Q230 537 230 575Q230 621 210 642T144 666L139 667Q131 667 127 673T123
689L136 754Q138 764 146 770T163 776H168Q355 775 355 591Z" />
<glyph unicode="~" glyph-name="asciitilde" horiz-adv-x="557" d="M69 227T69 243Q69 249 70 252L83 310Q88 335 125 355T207 376Q238 376 260 371T313 356Q340 347 360 343T407 338Q428 338 445 345T472 358T486 367Q495 372 504 373Q519 373 519 359Q519 356
517 348L505 289Q500 264 463 244T381 224Q351 224 331 228T278 243Q252 252 231 257T181 262Q160 262 143 255T115 241T102 233Q90 227 84 227Q69 227 69 243Z" />
<glyph unicode="&#xa0;" glyph-name="uni00A0" horiz-adv-x="232" />
<glyph unicode="&#xa1;" glyph-name="exclamdown" horiz-adv-x="262" d="M413 518T418 511T422 494L402 399Q400 389 392 382T372 375H277Q267 375 262 382T258 399L278 494Q280 504 288 511T307 518H402Q413 518 418 511ZM365 323T370 317T373 299L276 -158Q275
-168 267 -175T248 -182H165Q154 -182 149 -175T146 -158L243 299Q245 309 253 316T272 323H355Q365 323 370 317Z" />
<glyph unicode="&#xa2;" glyph-name="cent" d="M159 -100T154 -93T150 -76L165 0Q101 15 65 60T28 174Q28 199 32 220Q43 274 49 300Q73 396 131 454T278 525L291 586Q293 597 301 603T320 610H392Q403 610 408 603T411 586L398 523Q451 513 485 487T535 429T551
366L550 354Q548 343 541 336T524 329H432Q421 329 416 334T409 350Q409 425 328 425Q277 425 240 393T186 295Q184 288 171 225Q167 204 167 181Q167 95 250 95Q331 95 370 167Q377 179 383 183T399 188H491Q501 188 506 181T509 164Q500 131 474 95T399 31T284
-6L270 -76Q268 -87 260 -93T241 -100H169Q159 -100 154 -93Z" />
<glyph unicode="&#xa3;" glyph-name="sterling" horiz-adv-x="700" d="M386 -7T356 6T292 43Q264 62 245 71T202 80Q169 80 150 64T116 16Q111 8 107 4T93 0H16Q8 0 4 5T1 19Q16 83 55 125T150 184Q153 202 154 224T157 256Q157 266 159 288H82Q72 288 67 295T64
312L76 368Q78 379 86 385T105 392H160Q167 435 171 452Q196 572 277 641T483 711Q588 711 646 662T705 529Q705 509 700 482Q698 473 691 467T674 461H579Q556 461 553 485Q553 539 531 567T459 595Q403 595 367 557T316 451Q310 424 306 392H476Q487 392 492
385T495 368L483 312Q481 302 473 295T454 288H291Q285 220 278 182Q301 177 317 168T357 142Q379 125 396 117T436 108Q471 108 493 126T533 178Q536 183 542 188T555 193H624Q633 193 637 188T639 174Q626 118 594 77T518 15T429 -7Q386 -7 356 6Z" />
<glyph unicode="&#xa4;" glyph-name="currency" horiz-adv-x="601" d="M38 102Q34 107 34 115Q34 129 44 136L99 180Q84 213 84 252Q84 279 89 300Q103 366 150 420L115 464Q111 468 111 476Q111 489 122 498L168 536Q176 543 187 543Q198 543 202 536L237 491Q299
527 364 527Q427 527 476 491L530 536Q538 543 548 543Q558 543 564 536L594 498Q598 493 598 486Q598 473 587 464L533 420Q547 386 547 346Q547 320 542 300Q529 234 481 180L517 136Q521 132 521 124Q521 111 510 102L463 64Q452 57 445 57Q436 57 429 64L394
109Q335 73 267 73Q202 73 155 109L101 64Q92 57 83 57Q75 57 68 64L38 102ZM327 175T363 196T421 252T444 327Q444 369 416 397T342 425Q304 425 268 404T210 348T188 273Q188 231 216 203T289 175Q327 175 363 196Z" />
<glyph unicode="&#xa5;" glyph-name="yen" horiz-adv-x="654" d="M685 700T690 694T694 679Q693 676 688 668L432 332H530Q540 332 545 326T548 308L536 250Q534 240 526 233T507 226H372L364 191H500Q511 191 516 184T519 167L506 110Q505 100 497 93T478 85H341L328
24Q326 13 318 7T299 0H207Q196 0 191 7T187 24L200 85H65Q55 85 50 92T46 110L59 167Q61 178 69 184T88 191H223L230 226H95Q85 226 80 233T76 250L88 308Q90 318 98 325T118 332H215L101 668Q99 676 99 679Q100 688 107 694T125 700H210Q230 700 237 681L333
408L545 681Q559 700 579 700H677Q685 700 690 694Z" />
<glyph unicode="&#xa6;" glyph-name="brokenbar" horiz-adv-x="256" d="M122 475T117 482T114 499L179 805Q181 815 189 822T209 829H274Q285 829 290 822T293 805L228 499Q226 489 218 482T198 475H133Q122 475 117 482ZM22 0T17 7T13 24L78 330Q80 340 88 347T108
354H173Q184 354 189 347T192 330L127 24Q125 13 117 7T98 0H33Q22 0 17 7Z" />
<glyph unicode="&#xa7;" glyph-name="section" horiz-adv-x="588" d="M144 -140T100 -121T36 -71T15 -9Q15 0 16 4Q17 13 25 19T42 25H122Q131 25 135 21T144 8Q149 -15 166 -29T228 -43Q273 -43 299 -17T326 47Q326 70 303 85T217 117Q129 143 90 178T51 269Q51
294 56 315Q73 394 158 449Q149 467 149 490Q149 507 154 530Q164 578 197 619T283 685T403 710Q467 710 511 691T575 642T596 581Q596 572 595 567Q594 558 586 552T569 546H489Q479 546 475 550T467 564Q461 586 444 599T384 613Q345 613 320 593T287 541Q285
527 285 523Q285 500 308 485T394 453Q483 427 521 392T560 302Q560 276 555 255Q539 178 453 121Q462 102 462 78Q462 59 458 40Q448 -8 415 -49T328 -115T208 -140Q144 -140 100 -121ZM402 200T418 219T434 269Q434 295 412 313T333 349Q274 368 242 383Q177
357 177 301Q177 276 199 258T280 220Q322 206 369 187Q402 200 418 219Z" />
<glyph unicode="&#xa8;" glyph-name="dieresis" horiz-adv-x="356" d="M39 614T34 620T31 636L47 710Q49 720 56 726T74 733H148Q158 733 163 727T166 710L150 636Q148 626 141 620T123 614H49Q39 614 34 620ZM228 614T223 620T220 636L236 710Q237 720 245 726T263
733H337Q347 733 352 727T355 710L339 636Q337 626 330 620T312 614H238Q228 614 223 620Z" />
<glyph unicode="&#xa9;" glyph-name="copyright" horiz-adv-x="817" d="M266 -10T198 28T91 134T52 283Q52 316 60 354Q81 452 144 533T297 662T488 710Q572 710 640 672T748 566T788 417Q788 384 780 346Q759 248 696 167T541 38T350 -10Q266 -10 198 28ZM432
62T506 101T634 206T703 350Q710 387 710 412Q710 476 682 527T603 608T484 638Q407 638 333 599T206 494T136 350Q129 313 129 288Q129 224 157 173T236 92T355 62Q432 62 506 101ZM320 158T281 194T242 287Q242 306 244 315Q246 331 250 351T259 387Q277 458
326 501T452 544Q501 544 535 529T587 489T604 438L603 428Q602 418 595 412T577 406H527Q510 406 506 426Q505 447 491 456T447 466Q406 466 383 442T351 385Q346 365 337 317Q335 301 335 291Q335 266 347 251T390 236Q451 236 475 276Q485 296 503 296H553Q563
296 568 290T571 274Q559 228 513 193T385 158Q320 158 281 194Z" />
<glyph unicode="&#xaa;" glyph-name="ordfeminine" horiz-adv-x="358" d="M132 429T108 447T84 496Q84 503 85 507Q91 544 126 568T220 600L279 609Q282 621 282 624Q282 641 255 641Q232 641 212 630Q200 623 191 623H145Q127 623 130 638Q138 662 169 683T258
705Q310 705 338 683T367 621Q367 610 364 596L333 453Q332 445 325 440T310 434H263Q255 434 251 439T248 453L250 463Q238 448 217 439T171 429Q132 429 108 447ZM221 492T241 509T267 553L225 546Q199 542 186 533T170 512V508Q170 501 175 497T192 492Q221
492 241 509Z" />
<glyph unicode="&#xab;" glyph-name="guillemotleft" horiz-adv-x="615" d="M230 75T221 84L62 279Q51 292 53 311L61 347Q65 364 84 380L325 574Q337 583 347 583Q356 583 360 577T363 562L349 493Q345 479 340 471T322 453L168 329L269 205Q281 192 281 179Q281
175 279 165L264 96Q262 87 255 81T239 75Q230 75 221 84ZM496 75T487 84L328 279Q317 292 319 311L327 347Q331 364 350 380L591 574Q603 583 613 583Q622 583 626 577T629 562L615 493Q611 479 606 471T588 453L434 329L535 205Q547 192 547 179Q547 175 545
165L530 96Q528 87 521 81T505 75Q496 75 487 84Z" />
<glyph unicode="&#xac;" glyph-name="logicalnot" horiz-adv-x="576" d="M378 121T373 128T369 145L391 245H76Q66 245 60 252T56 269L69 326Q71 337 79 343T98 350H496Q506 350 511 343T514 326L476 145Q474 135 466 128T447 121H388Q378 121 373 128Z" />
<glyph unicode="&#xad;" glyph-name="uni00AD" horiz-adv-x="232" />
<glyph unicode="&#xae;" glyph-name="registered" horiz-adv-x="817" d="M266 -10T198 28T91 134T52 283Q52 316 60 354Q81 453 144 534T297 663T488 710Q573 710 641 672T749 566T788 417Q788 384 780 346Q759 248 696 167T542 38T351 -10Q266 -10 198 28ZM432
62T506 101T634 206T705 350Q711 382 711 411Q711 475 683 527T603 608T484 638Q408 638 334 599T206 494T136 350Q129 321 129 288Q129 224 157 173T237 92T355 62Q432 62 506 101ZM251 168T247 174T244 190L312 512Q314 522 321 528T339 534H463Q518 534 557
511T597 439Q597 428 594 414Q587 376 564 350T507 311L544 204Q545 202 545 195Q545 185 538 177T518 168H477Q457 168 452 187L419 294H356L334 190Q332 180 325 174T307 168H261Q251 168 247 174ZM438 369Q467 369 483 381T502 414Q504 424 504 428Q504 460
458 460H391L371 369H438Z" />
<glyph unicode="&#xaf;" glyph-name="overscore" horiz-adv-x="340" d="M39 611T34 617T31 633L42 685Q44 695 51 701T69 707H322Q332 707 336 701T339 685L328 633Q327 623 319 617T301 611H49Q39 611 34 617Z" />
<glyph unicode="&#xb0;" glyph-name="degree" horiz-adv-x="399" d="M161 398T124 432T87 520Q87 530 91 554Q100 598 128 633T197 689T282 710Q343 710 380 676T417 588Q417 578 413 554Q404 510 376 475T307 419T222 398Q161 398 124 432ZM272 478T301 506T330
575Q330 600 315 615T272 630Q234 630 204 603T174 534Q174 508 189 493T233 478Q272 478 301 506Z" />
<glyph unicode="&#xb1;" glyph-name="plusminus" horiz-adv-x="562" d="M221 190T216 197T213 214L245 365H97Q87 365 81 371T77 389L89 443Q91 454 99 460T118 467H266L297 613Q299 623 307 630T327 637H387Q398 637 403 630T406 613L374 467H521Q532 467 537
460T541 443L529 389Q527 378 519 372T500 365H353L321 214Q319 203 311 197T292 190H232Q221 190 216 197ZM19 0T14 7T10 24L21 78Q24 89 32 95T51 102H434Q445 102 450 95T453 78L441 24Q439 13 431 7T413 0H30Q19 0 14 7Z" />
<glyph unicode="&#xb2;" glyph-name="uni00B2" horiz-adv-x="349" d="M66 350T62 356T59 372L64 400Q66 408 72 415T96 434L153 470Q233 519 261 542T295 591Q296 594 296 600Q296 614 286 623T258 632Q233 632 222 623T202 599Q193 588 188 585T174 581H129Q110
581 115 600Q127 643 173 674T274 705Q327 705 356 681T386 617Q386 602 384 594Q374 547 337 513T209 426H341Q351 426 355 420T358 404L352 372Q350 362 343 356T325 350H76Q66 350 62 356Z" />
<glyph unicode="&#xb3;" glyph-name="uni00B3" horiz-adv-x="348" d="M124 345T94 371T68 432Q69 441 76 446T89 451H122Q136 451 150 443Q154 440 160 434T176 423T207 419Q237 419 256 432T275 466Q275 481 263 487T226 493H182Q173 493 169 499T166 515L171
537Q173 548 186 559L269 622H147Q137 622 132 628T129 644L137 678Q139 688 146 694T163 700H378Q388 700 393 694T396 678L389 648Q386 637 382 631T368 616L288 560Q368 550 368 483Q368 421 320 383T194 345Q124 345 94 371Z" />
<glyph unicode="&#xb4;" glyph-name="acute" horiz-adv-x="301" d="M36 595T33 599T31 611Q33 619 39 624L142 723Q154 735 162 738T183 742H285Q293 742 297 737T300 725Q298 715 292 710L145 608Q135 601 127 598T107 595H43Q36 595 33 599Z" />
<glyph unicode="&#xb5;" glyph-name="uni00B5" horiz-adv-x="632" d="M601 520T606 513T609 496L509 24Q507 14 499 7T481 0H398Q387 0 382 7T378 24L387 65Q353 29 312 11T216 -7Q176 -7 146 8L106 -176Q104 -186 96 -193T77 -200H-15Q-25 -200 -30 -193T-34
-176L109 496Q111 507 119 513T138 520H230Q240 520 245 514T248 496L190 221Q186 205 186 188Q186 146 210 122T273 98Q318 98 360 132T414 221L472 496Q474 506 482 513T501 520H591Q601 520 606 513Z" />
<glyph unicode="&#xb6;" glyph-name="paragraph" horiz-adv-x="583" d="M85 565T119 607T200 675T299 700H571Q582 700 587 693T590 676L430 -76Q428 -87 420 -93T401 -100H340Q330 -100 325 -93T322 -76L466 604H387L243 -76Q241 -86 233 -93T213 -100H153Q142
-100 137 -93T134 -76L221 329Q154 329 112 371T70 477Q70 498 74 515Q85 565 119 607Z" />
<glyph unicode="&#xb7;" glyph-name="middot" horiz-adv-x="327" d="M49 334T70 366T124 418T193 438Q235 438 261 412T287 345Q287 309 266 277T212 224T143 204Q102 204 76 231T49 298Q49 334 70 366Z" />
<glyph unicode="&#xb8;" glyph-name="cedilla" horiz-adv-x="252" d="M82 -220T56 -207T30 -179Q30 -174 36 -169L56 -154Q61 -150 66 -150Q70 -150 83 -158T117 -166Q135 -166 148 -155T161 -125Q161 -114 153 -107T130 -100Q120 -100 105 -104T84 -109Q77 -109
72 -103L57 -81Q55 -79 55 -73Q55 -65 65 -48L115 27H180L124 -53Q137 -46 160 -46Q188 -46 205 -65T222 -113Q222 -123 219 -135Q210 -174 184 -197T115 -220Q82 -220 56 -207Z" />
<glyph unicode="&#xb9;" glyph-name="uni00B9" horiz-adv-x="259" d="M162 350T158 356T155 372L202 594L138 553Q133 549 124 549Q114 549 108 558L94 584Q91 589 91 593Q91 605 104 615L224 693Q235 700 248 700H293Q303 700 308 694T311 678L246 372Q244 362
237 356T219 350H172Q162 350 158 356Z" />
<glyph unicode="&#xba;" glyph-name="ordmasculine" horiz-adv-x="354" d="M156 429T125 452T93 521Q93 527 95 543Q97 560 106 591Q136 705 256 705Q307 705 339 681T372 611Q372 605 370 591Q368 574 359 543Q344 485 308 457T209 429Q156 429 125 452ZM237
497T250 508T271 545Q279 573 281 589Q282 595 282 605Q282 621 275 629T249 637Q207 637 193 589Q185 561 183 545Q182 539 182 529Q182 511 189 504T216 497Q237 497 250 508Z" />
<glyph unicode="&#xbb;" glyph-name="guillemotright" horiz-adv-x="615" d="M35 75T31 81T28 96L43 165Q46 178 51 186T69 205L223 329L122 453Q117 460 114 466T110 480Q110 483 112 493L127 562Q129 571 136 577T153 583Q161 583 170 574L329 380Q339 369 339
355L338 347L330 311Q325 292 307 279L66 84Q54 75 44 75Q35 75 31 81ZM302 75T297 81T294 96L309 165Q312 178 317 186T335 205L489 329L388 453Q377 467 377 479Q377 481 379 493L393 562Q395 571 402 577T419 583Q427 583 436 574L595 380Q605 369 605 355L604
347L596 311Q591 292 574 279L332 84Q320 75 311 75Q302 75 297 81Z" />
<glyph unicode="&#xbc;" glyph-name="onequarter" horiz-adv-x="757" d="M189 350T185 356T182 372L229 594L165 553Q160 549 151 549Q141 549 135 558L121 584Q118 589 118 593Q118 605 131 615L251 693Q262 700 275 700H320Q330 700 335 694T338 678L273 372Q271
362 264 356T246 350H199Q189 350 185 356ZM528 0T524 6T521 22L530 63H381Q371 63 367 69T364 85L371 121Q376 137 390 151L562 332Q579 350 595 350H656Q666 350 671 344T674 328L635 142H670Q680 142 684 136T687 120L680 85Q678 75 671 69T653 63H618L609 22Q607
12 600 6T582 0H538Q528 0 524 6ZM471 140H547L571 249L471 140ZM23 0T18 4T13 16Q13 24 20 31L652 681Q663 692 670 696T690 700H737Q746 700 750 696T755 684Q755 677 749 669L117 19Q107 9 99 5T79 0H32Q23 0 18 4Z" />
<glyph unicode="&#xbd;" glyph-name="onehalf" horiz-adv-x="773" d="M189 350T185 356T182 372L229 594L165 553Q160 549 151 549Q141 549 135 558L121 584Q118 589 118 593Q118 605 131 615L251 693Q262 700 275 700H320Q330 700 335 694T338 678L273 372Q271
362 264 356T246 350H199Q189 350 185 356ZM404 0T400 6T397 22L402 50Q404 58 410 65T434 84L491 120Q571 169 599 192T633 241Q634 244 634 250Q634 264 624 273T596 282Q571 282 560 273T540 249Q531 238 526 235T512 231H467Q448 231 453 250Q465 293 511 324T612
355Q665 355 694 331T724 267Q724 252 722 244Q712 197 675 163T547 76H679Q689 76 693 70T696 54L690 22Q688 12 681 6T663 0H414Q404 0 400 6ZM23 0T18 4T13 16Q13 24 20 31L652 681Q663 692 670 696T690 700H737Q746 700 750 696T755 684Q755 677 749 669L117
19Q107 9 99 5T79 0H32Q23 0 18 4Z" />
<glyph unicode="&#xbe;" glyph-name="threequarters" horiz-adv-x="787" d="M139 345T109 371T83 432Q84 441 91 446T104 451H137Q151 451 165 443Q169 440 175 434T191 423T222 419Q252 419 271 432T290 466Q290 481 278 487T241 493H197Q188 493 184 499T181
515L186 537Q188 548 201 559L284 622H162Q152 622 147 628T144 644L152 678Q154 688 161 694T178 700H393Q403 700 408 694T411 678L404 648Q401 637 397 631T383 616L303 560Q383 550 383 483Q383 421 335 383T209 345Q139 345 109 371ZM559 0T555 6T552 22L561
63H412Q402 63 398 69T395 85L402 121Q407 137 421 151L593 332Q610 350 626 350H687Q697 350 702 344T705 328L666 142H701Q711 142 715 136T718 120L711 85Q709 75 702 69T684 63H649L640 22Q638 12 631 6T613 0H569Q559 0 555 6ZM502 140H578L602 249L502 140ZM54
0T49 4T44 16Q44 24 51 31L683 681Q694 692 701 696T721 700H768Q777 700 781 696T786 684Q786 677 780 669L148 19Q138 9 130 5T110 0H63Q54 0 49 4Z" />
<glyph unicode="&#xbf;" glyph-name="questiondown" horiz-adv-x="560" d="M548 519T553 512T556 495L537 406Q535 396 527 389T508 382H410Q400 382 394 389T390 406L409 495Q411 505 419 512T439 519H538Q548 519 553 512ZM503 330T508 324T511 310L504 278Q489
231 457 195T370 114Q329 81 308 59T279 13Q275 1 275 -11Q275 -41 299 -58T360 -76Q457 -76 498 21Q510 44 532 44H619Q628 44 633 37T636 19Q623 -36 581 -84T474 -161T329 -191Q223 -191 174 -149T124 -45Q124 -24 130 -4Q142 43 172 79T254 160Q294 195 316
219T351 271L362 305Q369 318 376 324T395 330H494Q503 330 508 324Z" />
<glyph unicode="&#xc0;" glyph-name="Agrave" horiz-adv-x="698" d="M-35 0T-40 5T-45 18Q-45 24 -42 30L335 675Q350 700 376 700H493Q519 700 523 675L627 30Q629 16 623 8T605 0H518Q494 0 491 23L469 140H173L100 19Q89 0 68 0H-27Q-35 0 -40 5ZM233 256H459L411
564L233 256ZM405 750T398 753T384 763L283 864Q279 868 279 874Q279 884 285 890T302 897H406Q419 897 425 893T439 878L500 779Q502 773 502 769Q502 761 497 756T483 750H417Q405 750 398 753Z" />
<glyph unicode="&#xc1;" glyph-name="Aacute" horiz-adv-x="698" d="M-35 0T-40 5T-45 18Q-45 24 -42 30L335 675Q350 700 376 700H493Q519 700 523 675L627 30Q629 16 623 8T605 0H518Q494 0 491 23L469 140H173L100 19Q89 0 68 0H-27Q-35 0 -40 5ZM233 256H459L411
564L233 256ZM380 750T382 764Q382 771 389 778L494 878Q505 889 513 893T535 897H643Q652 897 656 892T659 880Q657 871 650 865L504 763Q494 756 486 753T465 750H395Q380 750 382 764Z" />
<glyph unicode="&#xc2;" glyph-name="Acircumflex" horiz-adv-x="698" d="M-35 0T-40 5T-45 18Q-45 24 -42 30L335 675Q350 700 376 700H493Q519 700 523 675L627 30Q629 16 623 8T605 0H518Q494 0 491 23L469 140H173L100 19Q89 0 68 0H-27Q-35 0 -40 5ZM233
256H459L411 564L233 256ZM272 750T269 753T266 763Q266 771 275 777L397 881Q409 891 417 894T435 897H495Q505 897 511 894T526 881L604 777Q609 771 607 763Q606 757 602 754T591 750H553Q537 750 526 757L454 810L359 757Q344 750 331 750H278Q272 750 269
753Z" />
<glyph unicode="&#xc3;" glyph-name="Atilde" horiz-adv-x="698" d="M-35 0T-40 5T-45 18Q-45 24 -42 30L335 675Q350 700 376 700H493Q519 700 523 675L627 30Q629 16 623 8T605 0H518Q494 0 491 23L469 140H173L100 19Q89 0 68 0H-27Q-35 0 -40 5ZM233 256H459L411
564L233 256ZM486 745T474 750T441 765Q428 773 420 776T402 780Q390 780 383 776T369 763Q358 750 348 750H301Q294 750 290 755T287 767Q291 790 306 816T346 860T403 878Q423 878 437 873T467 857Q469 856 481 850T506 843Q524 843 539 860Q550 873 561 873H607Q615
873 619 868T621 856Q617 833 602 807T562 763T505 745Q486 745 474 750Z" />
<glyph unicode="&#xc4;" glyph-name="Adieresis" horiz-adv-x="698" d="M-35 0T-40 5T-45 18Q-45 24 -42 30L335 675Q350 700 376 700H493Q519 700 523 675L627 30Q629 16 623 8T605 0H518Q494 0 491 23L469 140H173L100 19Q89 0 68 0H-27Q-35 0 -40 5ZM233 256H459L411
564L233 256ZM284 750T280 756T277 772L293 846Q295 856 302 862T320 869H394Q404 869 409 863T412 846L396 772Q394 762 386 756T368 750H294Q284 750 280 756ZM503 750T499 756T496 772L511 846Q513 856 521 862T539 869H613Q623 869 628 863T631 846L615 772Q613
762 605 756T587 750H513Q503 750 499 756Z" />
<glyph unicode="&#xc5;" glyph-name="Aring" horiz-adv-x="698" d="M-35 0T-40 5T-45 18Q-45 24 -42 30L335 675Q350 700 376 700H493Q519 700 523 675L627 30Q629 16 623 8T605 0H518Q494 0 491 23L469 140H173L100 19Q89 0 68 0H-27Q-35 0 -40 5ZM233 256H459L411
564L233 256ZM408 740T387 758T366 806Q366 811 368 823Q376 859 406 883T472 907Q505 907 526 889T547 840Q547 835 545 823Q537 787 507 764T440 740Q408 740 387 758ZM464 793T475 804T487 831Q487 841 481 847T464 853Q448 853 437 842T425 815Q425 805 431
799T448 793Q464 793 475 804Z" />
<glyph unicode="&#xc6;" glyph-name="AE" horiz-adv-x="973" d="M-39 0T-39 19Q-39 28 -35 33L341 675Q354 700 380 700H980Q991 700 996 693T1000 675L985 608Q983 597 975 591T956 584H640L602 409H896Q907 409 912 402T916 384L902 321Q900 310 892 304T873
297H579L540 116H864Q875 116 880 109T883 92L869 24Q867 13 859 7T840 0H403Q392 0 387 7T383 24L409 140H179L106 19Q95 0 73 0H-20Q-39 0 -39 19ZM238 256H433L502 580H425L238 256Z" />
<glyph unicode="&#xc7;" glyph-name="Ccedilla" horiz-adv-x="685" d="M218 -220T195 -208T172 -181Q172 -174 179 -169L199 -154Q204 -149 210 -149Q214 -149 227 -157T260 -166Q276 -166 288 -157T304 -132Q307 -118 299 -109T274 -100Q264 -100 249 -104T228
-109Q221 -109 216 -103L202 -84Q199 -80 199 -76Q199 -70 210 -53L240 -6Q149 6 102 57T55 194Q55 225 61 261Q76 353 99 439Q131 567 222 638T450 710Q530 710 586 686T672 618T701 517Q701 505 697 477Q696 468 688 462T671 456H574Q563 456 558 461T551 481Q550
543 518 568T425 594Q281 594 242 434Q221 343 207 266Q202 236 202 217Q202 106 322 106Q383 106 425 131T496 219Q502 233 509 238T529 244H626Q635 244 640 238T643 223Q627 157 580 104T459 21T297 -10L267 -53Q280 -46 304 -46Q333 -46 349 -62T366 -107Q366
-153 334 -186T250 -220Q218 -220 195 -208Z" />
<glyph unicode="&#xc8;" glyph-name="Egrave" horiz-adv-x="622" d="M29 0T24 7T20 24L158 675Q160 686 168 693T187 700H629Q640 700 645 693T648 675L634 608Q632 597 624 591T605 584H276L238 409H545Q556 409 561 402T564 384L551 321Q549 310 541 304T521
297H215L176 116H513Q524 116 529 109T532 92L518 24Q516 13 508 7T489 0H39Q29 0 24 7ZM388 750T381 753T367 763L266 864Q262 868 262 874Q262 884 268 890T285 897H389Q402 897 408 893T422 878L483 779Q485 773 485 769Q485 761 480 756T466 750H400Q388 750
381 753Z" />
<glyph unicode="&#xc9;" glyph-name="Eacute" horiz-adv-x="622" d="M29 0T24 7T20 24L158 675Q160 686 168 693T187 700H629Q640 700 645 693T648 675L634 608Q632 597 624 591T605 584H276L238 409H545Q556 409 561 402T564 384L551 321Q549 310 541 304T521
297H215L176 116H513Q524 116 529 109T532 92L518 24Q516 13 508 7T489 0H39Q29 0 24 7ZM350 750T352 764Q352 771 359 778L464 878Q475 889 483 893T505 897H613Q622 897 626 892T629 880Q627 871 620 865L474 763Q464 756 456 753T435 750H365Q350 750 352 764Z"
/>
<glyph unicode="&#xca;" glyph-name="Ecircumflex" horiz-adv-x="622" d="M29 0T24 7T20 24L158 675Q160 686 168 693T187 700H629Q640 700 645 693T648 675L634 608Q632 597 624 591T605 584H276L238 409H545Q556 409 561 402T564 384L551 321Q549 310 541 304T521
297H215L176 116H513Q524 116 529 109T532 92L518 24Q516 13 508 7T489 0H39Q29 0 24 7ZM244 750T241 753T238 763Q238 771 247 777L369 881Q381 891 389 894T407 897H467Q477 897 483 894T498 881L576 777Q581 771 579 763Q578 757 574 754T563 750H525Q509 750
498 757L426 810L331 757Q316 750 303 750H250Q244 750 241 753Z" />
<glyph unicode="&#xcb;" glyph-name="Edieresis" horiz-adv-x="622" d="M29 0T24 7T20 24L158 675Q160 686 168 693T187 700H629Q640 700 645 693T648 675L634 608Q632 597 624 591T605 584H276L238 409H545Q556 409 561 402T564 384L551 321Q549 310 541 304T521
297H215L176 116H513Q524 116 529 109T532 92L518 24Q516 13 508 7T489 0H39Q29 0 24 7ZM258 750T254 756T251 772L267 846Q269 856 276 862T294 869H368Q378 869 383 863T386 846L370 772Q368 762 360 756T342 750H268Q258 750 254 756ZM477 750T473 756T470 772L485
846Q487 856 495 862T513 869H587Q597 869 602 863T605 846L589 772Q587 762 579 756T561 750H487Q477 750 473 756Z" />
<glyph unicode="&#xcc;" glyph-name="Igrave" horiz-adv-x="300" d="M28 0T23 7T19 24L159 676Q160 686 168 693T187 700H284Q294 700 299 693T303 676L164 24Q162 14 154 7T136 0H39Q28 0 23 7ZM213 750T206 753T192 763L91 864Q87 868 87 874Q87 884 93 890T110
897H214Q227 897 233 893T247 878L308 779Q310 773 310 769Q310 761 305 756T291 750H225Q213 750 206 753Z" />
<glyph unicode="&#xcd;" glyph-name="Iacute" horiz-adv-x="300" d="M28 0T23 7T19 24L159 676Q160 686 168 693T187 700H284Q294 700 299 693T303 676L164 24Q162 14 154 7T136 0H39Q28 0 23 7ZM187 750T189 764Q189 771 196 778L301 878Q312 889 320 893T342
897H450Q459 897 463 892T466 880Q464 871 457 865L311 763Q301 756 293 753T272 750H202Q187 750 189 764Z" />
<glyph unicode="&#xce;" glyph-name="Icircumflex" horiz-adv-x="300" d="M28 0T23 7T19 24L159 676Q160 686 168 693T187 700H284Q294 700 299 693T303 676L164 24Q162 14 154 7T136 0H39Q28 0 23 7ZM77 750T74 753T71 763Q71 771 80 777L202 881Q214 891 222
894T240 897H300Q310 897 316 894T331 881L409 777Q414 771 412 763Q411 757 407 754T396 750H358Q342 750 331 757L259 810L164 757Q149 750 136 750H83Q77 750 74 753Z" />
<glyph unicode="&#xcf;" glyph-name="Idieresis" horiz-adv-x="300" d="M28 0T23 7T19 24L159 676Q160 686 168 693T187 700H284Q294 700 299 693T303 676L164 24Q162 14 154 7T136 0H39Q28 0 23 7ZM89 750T85 756T82 772L98 846Q100 856 107 862T125 869H199Q209
869 214 863T217 846L201 772Q199 762 191 756T173 750H99Q89 750 85 756ZM308 750T304 756T301 772L316 846Q318 856 326 862T344 869H418Q428 869 433 863T436 846L420 772Q418 762 410 756T392 750H318Q308 750 304 756Z" />
<glyph unicode="&#xd0;" glyph-name="Eth" horiz-adv-x="716" d="M42 0T37 7T33 24L92 302H40Q30 302 25 309T21 327L32 378Q33 388 41 395T61 402H114L172 675Q174 686 182 693T201 700H431Q551 700 623 644T695 486Q695 458 689 428Q674 348 656 273Q633 178
592 118T484 29T316 0H53Q42 0 37 7ZM321 116Q404 116 448 153T514 276Q533 355 546 425Q551 455 551 475Q551 531 518 557T416 584H293L255 402H366Q376 402 381 395T384 378L374 327Q372 316 363 309T344 302H233L194 116H321Z" />
<glyph unicode="&#xd1;" glyph-name="Ntilde" horiz-adv-x="709" d="M29 0T24 7T20 24L158 675Q160 686 168 693T187 700H264Q284 700 290 683L483 235L577 675Q579 686 587 693T606 700H692Q703 700 708 693T711 675L573 25Q571 14 563 7T544 0H467Q455 0 450
5T440 17L247 455L155 24Q153 13 145 7T126 0H39Q29 0 24 7ZM488 745T476 750T443 765Q430 773 422 776T404 780Q392 780 385 776T371 763Q360 750 350 750H303Q296 750 292 755T289 767Q293 790 308 816T348 860T405 878Q425 878 439 873T469 857Q471 856 483
850T508 843Q526 843 541 860Q552 873 563 873H609Q617 873 621 868T623 856Q619 833 604 807T564 763T507 745Q488 745 476 750Z" />
<glyph unicode="&#xd2;" glyph-name="Ograve" horiz-adv-x="695" d="M181 -10T112 45T42 205Q42 238 47 264Q67 370 84 435Q117 571 202 640T423 710Q537 710 606 654T676 494Q676 467 670 435Q657 356 634 264Q600 126 516 58T295 -10Q181 -10 112 45ZM372 106T421
146T490 269Q511 359 525 431Q530 463 530 483Q530 594 415 594Q346 594 297 554T228 431Q206 340 194 269Q189 244 189 215Q189 159 218 133T304 106Q372 106 421 146ZM404 750T397 753T383 763L282 864Q278 868 278 874Q278 884 284 890T301 897H405Q418 897
424 893T438 878L499 779Q501 773 501 769Q501 761 496 756T482 750H416Q404 750 397 753Z" />
<glyph unicode="&#xd3;" glyph-name="Oacute" horiz-adv-x="695" d="M181 -10T112 45T42 205Q42 238 47 264Q67 370 84 435Q117 571 202 640T423 710Q537 710 606 654T676 494Q676 467 670 435Q657 356 634 264Q600 126 516 58T295 -10Q181 -10 112 45ZM372 106T421
146T490 269Q511 359 525 431Q530 463 530 483Q530 594 415 594Q346 594 297 554T228 431Q206 340 194 269Q189 244 189 215Q189 159 218 133T304 106Q372 106 421 146ZM371 750T373 764Q373 771 380 778L485 878Q496 889 504 893T526 897H634Q643 897 647 892T650
880Q648 871 641 865L495 763Q485 756 477 753T456 750H386Q371 750 373 764Z" />
<glyph unicode="&#xd4;" glyph-name="Ocircumflex" horiz-adv-x="695" d="M181 -10T112 45T42 205Q42 238 47 264Q67 370 84 435Q117 571 202 640T423 710Q537 710 606 654T676 494Q676 467 670 435Q657 356 634 264Q600 126 516 58T295 -10Q181 -10 112 45ZM372
106T421 146T490 269Q511 359 525 431Q530 463 530 483Q530 594 415 594Q346 594 297 554T228 431Q206 340 194 269Q189 244 189 215Q189 159 218 133T304 106Q372 106 421 146ZM270 750T267 753T264 763Q264 771 273 777L395 881Q407 891 415 894T433 897H493Q503
897 509 894T524 881L602 777Q607 771 605 763Q604 757 600 754T589 750H551Q535 750 524 757L452 810L357 757Q342 750 329 750H276Q270 750 267 753Z" />
<glyph unicode="&#xd5;" glyph-name="Otilde" horiz-adv-x="695" d="M181 -10T112 45T42 205Q42 238 47 264Q67 370 84 435Q117 571 202 640T423 710Q537 710 606 654T676 494Q676 467 670 435Q657 356 634 264Q600 126 516 58T295 -10Q181 -10 112 45ZM372 106T421
146T490 269Q511 359 525 431Q530 463 530 483Q530 594 415 594Q346 594 297 554T228 431Q206 340 194 269Q189 244 189 215Q189 159 218 133T304 106Q372 106 421 146ZM490 745T478 750T445 765Q432 773 424 776T406 780Q394 780 387 776T373 763Q362 750 352
750H305Q298 750 294 755T291 767Q295 790 310 816T350 860T407 878Q427 878 441 873T471 857Q473 856 485 850T510 843Q528 843 543 860Q554 873 565 873H611Q619 873 623 868T625 856Q621 833 606 807T566 763T509 745Q490 745 478 750Z" />
<glyph unicode="&#xd6;" glyph-name="Odieresis" horiz-adv-x="695" d="M181 -10T112 45T42 205Q42 238 47 264Q67 370 84 435Q117 571 202 640T423 710Q537 710 606 654T676 494Q676 467 670 435Q657 356 634 264Q600 126 516 58T295 -10Q181 -10 112 45ZM372
106T421 146T490 269Q511 359 525 431Q530 463 530 483Q530 594 415 594Q346 594 297 554T228 431Q206 340 194 269Q189 244 189 215Q189 159 218 133T304 106Q372 106 421 146ZM283 750T279 756T276 772L292 846Q294 856 301 862T319 869H393Q403 869 408 863T411
846L395 772Q393 762 385 756T367 750H293Q283 750 279 756ZM502 750T498 756T495 772L510 846Q512 856 520 862T538 869H612Q622 869 627 863T630 846L614 772Q612 762 604 756T586 750H512Q502 750 498 756Z" />
<glyph unicode="&#xd7;" glyph-name="multiply" horiz-adv-x="577" d="M31 167Q27 172 27 179Q27 192 38 201L206 338L100 476Q96 481 96 489Q96 501 107 510L168 560Q176 567 186 567Q196 567 202 560L308 420L479 562Q487 569 498 569Q507 569 513 562L562 500Q566
495 566 487Q566 475 555 466L385 327L493 189Q497 181 497 177Q497 164 485 155L425 106Q415 99 407 99Q398 99 391 106L283 243L113 105Q106 98 95 98Q85 98 79 105L31 167Z" />
<glyph unicode="&#xd8;" glyph-name="Oslash" horiz-adv-x="723" d="M195 -10T134 40T73 194L33 180Q25 177 20 177Q11 177 7 182T5 196L17 252Q19 264 25 270T44 281L83 294Q98 376 114 435Q146 568 239 639T465 710Q573 710 635 661T702 518L744 533Q752 536
757 536Q766 536 770 531T773 517L761 460Q758 448 752 443T733 432L697 420Q690 382 669 285L664 264Q630 127 540 59T312 -10Q195 -10 134 40ZM557 465Q561 530 530 562T441 594Q375 594 327 554T258 431Q244 379 240 352L557 465ZM404 106T452 146T520 269L541
363L220 247Q218 229 218 221Q218 162 249 134T337 106Q404 106 452 146Z" />
<glyph unicode="&#xd9;" glyph-name="Ugrave" horiz-adv-x="714" d="M189 -10T123 40T57 190Q57 226 66 268L152 675Q154 686 162 693T181 700H273Q284 700 289 693T293 675L206 268Q199 236 199 207Q199 157 226 133T312 109Q385 109 431 148T494 268L581 675Q583
686 591 693T611 700H703Q714 700 719 693T722 675L636 268Q605 124 525 57T303 -10Q189 -10 123 40ZM410 750T403 753T389 763L288 864Q284 868 284 874Q284 884 290 890T307 897H411Q424 897 430 893T444 878L505 779Q507 773 507 769Q507 761 502 756T488 750H422Q410
750 403 753Z" />
<glyph unicode="&#xda;" glyph-name="Uacute" horiz-adv-x="714" d="M189 -10T123 40T57 190Q57 226 66 268L152 675Q154 686 162 693T181 700H273Q284 700 289 693T293 675L206 268Q199 236 199 207Q199 157 226 133T312 109Q385 109 431 148T494 268L581 675Q583
686 591 693T611 700H703Q714 700 719 693T722 675L636 268Q605 124 525 57T303 -10Q189 -10 123 40ZM382 750T384 764Q384 771 391 778L496 878Q507 889 515 893T537 897H645Q654 897 658 892T661 880Q659 871 652 865L506 763Q496 756 488 753T467 750H397Q382
750 384 764Z" />
<glyph unicode="&#xdb;" glyph-name="Ucircumflex" horiz-adv-x="714" d="M189 -10T123 40T57 190Q57 226 66 268L152 675Q154 686 162 693T181 700H273Q284 700 289 693T293 675L206 268Q199 236 199 207Q199 157 226 133T312 109Q385 109 431 148T494 268L581
675Q583 686 591 693T611 700H703Q714 700 719 693T722 675L636 268Q605 124 525 57T303 -10Q189 -10 123 40ZM276 750T273 753T270 763Q270 771 279 777L401 881Q413 891 421 894T439 897H499Q509 897 515 894T530 881L608 777Q613 771 611 763Q610 757 606 754T595
750H557Q541 750 530 757L458 810L363 757Q348 750 335 750H282Q276 750 273 753Z" />
<glyph unicode="&#xdc;" glyph-name="Udieresis" horiz-adv-x="714" d="M189 -10T123 40T57 190Q57 226 66 268L152 675Q154 686 162 693T181 700H273Q284 700 289 693T293 675L206 268Q199 236 199 207Q199 157 226 133T312 109Q385 109 431 148T494 268L581
675Q583 686 591 693T611 700H703Q714 700 719 693T722 675L636 268Q605 124 525 57T303 -10Q189 -10 123 40ZM290 750T286 756T283 772L299 846Q301 856 308 862T326 869H400Q410 869 415 863T418 846L402 772Q400 762 392 756T374 750H300Q290 750 286 756ZM509
750T505 756T502 772L517 846Q519 856 527 862T545 869H619Q629 869 634 863T637 846L621 772Q619 762 611 756T593 750H519Q509 750 505 756Z" />
<glyph unicode="&#xdd;" glyph-name="Yacute" horiz-adv-x="662" d="M211 0T206 7T202 24L250 249L103 668Q101 674 101 676Q101 685 108 692T127 700H211Q231 700 238 681L343 393L570 681Q584 700 605 700H705Q723 700 723 685Q723 677 716 668L391 249L343
24Q341 13 333 7T314 0H222Q211 0 206 7ZM348 750T350 764Q350 771 357 778L462 878Q473 889 481 893T503 897H611Q620 897 624 892T627 880Q625 871 618 865L472 763Q462 756 454 753T433 750H363Q348 750 350 764Z" />
<glyph unicode="&#xde;" glyph-name="Thorn" horiz-adv-x="663" d="M29 0T24 7T20 24L159 676Q160 686 168 693T187 700H284Q294 700 300 694T304 676L282 575H418Q524 575 585 532T647 406Q647 382 641 353Q595 133 347 133H188L165 24Q163 13 155 7T136 0H39Q29
0 24 7ZM350 245Q406 245 445 273T497 353Q501 372 501 391Q501 427 479 445T404 463H256L210 245H350Z" />
<glyph unicode="&#xdf;" glyph-name="germandbls" horiz-adv-x="616" d="M31 0T26 7T23 24L120 481Q141 582 214 646T409 710Q512 710 561 667T610 559Q610 540 605 517Q595 466 566 431T498 376Q575 345 575 260Q575 235 569 208Q558 157 522 110T425 31T282
0H224Q212 0 207 6T203 24L215 80Q217 91 225 97T247 104H285Q343 104 382 134T432 212Q435 226 435 237Q435 276 408 299T330 322H291Q279 322 274 328T271 346L282 395Q285 419 311 419H345Q400 420 433 444T476 512Q478 519 478 532Q478 565 454 585T387 606Q337
606 301 575T253 481L155 24Q153 13 145 7T126 0H42Q31 0 26 7Z" />
<glyph unicode="&#xe0;" glyph-name="agrave" horiz-adv-x="607" d="M113 -10T69 38T25 169Q25 194 30 227Q34 255 44 293Q72 401 136 465T303 530Q361 530 394 513T447 463L454 496Q456 507 464 513T483 520H563Q574 520 579 513T583 496L483 24Q481 13 473 7T454
0H374Q363 0 358 7T354 24L362 61Q327 26 291 8T199 -10Q113 -10 69 38ZM302 98T340 135T391 225Q401 266 407 302Q410 319 410 334Q410 373 389 397T322 422Q221 422 182 290Q174 263 169 230Q165 200 165 186Q165 144 183 121T245 98Q302 98 340 135ZM318 595T311
598T297 608L196 709Q192 713 192 719Q192 729 198 735T214 742H321Q334 742 340 739T354 723L414 625Q418 618 416 610Q414 604 409 600T397 595H330Q318 595 311 598Z" />
<glyph unicode="&#xe1;" glyph-name="aacute" horiz-adv-x="607" d="M113 -10T69 38T25 169Q25 194 30 227Q34 255 44 293Q72 401 136 465T303 530Q361 530 394 513T447 463L454 496Q456 507 464 513T483 520H563Q574 520 579 513T583 496L483 24Q481 13 473 7T454
0H374Q363 0 358 7T354 24L362 61Q327 26 291 8T199 -10Q113 -10 69 38ZM302 98T340 135T391 225Q401 266 407 302Q410 319 410 334Q410 373 389 397T322 422Q221 422 182 290Q174 263 169 230Q165 200 165 186Q165 144 183 121T245 98Q302 98 340 135ZM304 595T301
599T299 611Q301 619 307 624L410 723Q422 735 430 738T451 742H553Q561 742 565 737T568 725Q566 715 560 710L413 608Q403 601 395 598T375 595H311Q304 595 301 599Z" />
<glyph unicode="&#xe2;" glyph-name="acircumflex" horiz-adv-x="607" d="M113 -10T69 38T25 169Q25 194 30 227Q34 255 44 293Q72 401 136 465T303 530Q361 530 394 513T447 463L454 496Q456 507 464 513T483 520H563Q574 520 579 513T583 496L483 24Q481 13
473 7T454 0H374Q363 0 358 7T354 24L362 61Q327 26 291 8T199 -10Q113 -10 69 38ZM302 98T340 135T391 225Q401 266 407 302Q410 319 410 334Q410 373 389 397T322 422Q221 422 182 290Q174 263 169 230Q165 200 165 186Q165 144 183 121T245 98Q302 98 340 135ZM192
595T189 598T186 608Q186 616 195 622L317 726Q329 736 337 739T355 742H411Q421 742 427 739T441 726L520 622Q525 616 523 608Q522 602 518 599T506 595H471Q455 595 444 602L372 655L277 602Q262 595 249 595H198Q192 595 189 598Z" />
<glyph unicode="&#xe3;" glyph-name="atilde" horiz-adv-x="607" d="M113 -10T69 38T25 169Q25 194 30 227Q34 255 44 293Q72 401 136 465T303 530Q361 530 394 513T447 463L454 496Q456 507 464 513T483 520H563Q574 520 579 513T583 496L483 24Q481 13 473 7T454
0H374Q363 0 358 7T354 24L362 61Q327 26 291 8T199 -10Q113 -10 69 38ZM302 98T340 135T391 225Q401 266 407 302Q410 319 410 334Q410 373 389 397T322 422Q221 422 182 290Q174 263 169 230Q165 200 165 186Q165 144 183 121T245 98Q302 98 340 135ZM407 590T394
595T365 610Q354 618 346 621T327 625Q318 625 312 621T297 609Q285 595 274 595H227Q220 595 216 600T213 612Q217 635 231 660T271 702T328 720Q348 720 361 715T390 699Q393 697 404 691T428 685Q437 685 443 689T456 701Q461 706 467 710T480 715H527Q535 715
538 710T541 698Q537 675 523 650T483 608T426 590Q407 590 394 595Z" />
<glyph unicode="&#xe4;" glyph-name="adieresis" horiz-adv-x="607" d="M113 -10T69 38T25 169Q25 194 30 227Q34 255 44 293Q72 401 136 465T303 530Q361 530 394 513T447 463L454 496Q456 507 464 513T483 520H563Q574 520 579 513T583 496L483 24Q481 13 473
7T454 0H374Q363 0 358 7T354 24L362 61Q327 26 291 8T199 -10Q113 -10 69 38ZM302 98T340 135T391 225Q401 266 407 302Q410 319 410 334Q410 373 389 397T322 422Q221 422 182 290Q174 263 169 230Q165 200 165 186Q165 144 183 121T245 98Q302 98 340 135ZM218
614T213 620T210 636L226 710Q228 720 235 726T253 733H327Q337 733 342 727T345 710L329 636Q327 626 320 620T302 614H228Q218 614 213 620ZM407 614T402 620T399 636L415 710Q416 720 424 726T442 733H516Q526 733 531 727T534 710L518 636Q516 626 509 620T491
614H417Q407 614 402 620Z" />
<glyph unicode="&#xe5;" glyph-name="aring" horiz-adv-x="607" d="M113 -10T69 38T25 169Q25 194 30 227Q34 255 44 293Q72 401 136 465T303 530Q361 530 394 513T447 463L454 496Q456 507 464 513T483 520H563Q574 520 579 513T583 496L483 24Q481 13 473 7T454
0H374Q363 0 358 7T354 24L362 61Q327 26 291 8T199 -10Q113 -10 69 38ZM302 98T340 135T391 225Q401 266 407 302Q410 319 410 334Q410 373 389 397T322 422Q221 422 182 290Q174 263 169 230Q165 200 165 186Q165 144 183 121T245 98Q302 98 340 135ZM326 590T305
608T284 656Q284 661 286 673Q294 709 324 733T390 757Q423 757 444 739T465 690Q465 685 463 673Q455 637 425 614T358 590Q326 590 305 608ZM382 643T393 654T405 681Q405 691 399 697T382 703Q366 703 355 692T343 665Q343 655 349 649T366 643Q382 643 393
654Z" />
<glyph unicode="&#xe6;" glyph-name="ae" horiz-adv-x="904" d="M98 -10T55 24T11 114Q11 128 14 143Q28 211 93 254T257 312L397 331L401 351Q404 366 404 379Q404 408 386 423T328 438Q295 438 272 426T234 402T214 385Q207 373 196 373H119Q109 373 104 379T101
395Q106 419 137 451T222 506T348 530Q470 530 503 463Q580 530 683 530Q788 530 833 477T879 342Q879 306 871 266L866 245Q864 235 856 228T836 221H510L509 213Q505 193 505 173Q505 128 528 106T587 84Q645 84 690 130Q700 140 706 143T725 146H810Q818 146
823 142T828 131Q828 111 795 77T702 16T568 -10Q502 -10 459 14T395 80Q311 -10 175 -10Q98 -10 55 24ZM742 306V310Q747 335 747 352Q747 393 726 415T663 438Q619 438 582 405T529 310V306H742ZM276 86T319 122T376 226L380 246L277 230Q210 220 177 197T144
140Q144 114 166 100T221 86Q276 86 319 122Z" />
<glyph unicode="&#xe7;" glyph-name="ccedilla" horiz-adv-x="571" d="M180 288T167 225Q163 204 163 181Q163 95 246 95Q327 95 366 167Q373 179 379 183T395 188H487Q497 188 502 181T505 164Q494 127 463 88T374 19T234 -10L204 -52Q218 -46 240 -46Q268 -46
285 -65T302 -113Q302 -123 299 -135Q291 -174 265 -197T196 -220Q163 -220 137 -207T111 -180Q111 -174 117 -169L136 -154Q141 -150 146 -150Q150 -150 163 -158T197 -166Q213 -166 225 -157T241 -132Q243 -118 235 -109T211 -100Q201 -100 186 -104T165 -109Q158
-109 153 -103L137 -81Q135 -79 135 -74Q135 -66 146 -48L174 -4Q105 9 65 56T24 175Q24 199 28 220Q39 274 45 300Q73 410 147 470T332 530Q406 530 454 505T524 441T547 367Q547 358 546 354Q544 343 537 336T520 329H428Q417 329 412 334T405 350Q405 425 324
425Q273 425 236 393T182 295Q180 288 167 225Z" />
<glyph unicode="&#xe8;" glyph-name="egrave" horiz-adv-x="576" d="M144 -10T92 38T40 175Q40 209 45 236Q46 243 56 286Q85 400 164 465T354 530Q453 530 503 480T554 341Q554 308 546 266L541 245Q539 235 531 228T511 221H180L178 213Q175 195 175 179Q175
137 196 111T259 84Q316 84 362 130Q373 141 379 143T397 146H485Q494 146 499 140T502 125Q495 101 460 69T367 14T240 -10Q144 -10 92 38ZM417 306V308Q421 327 421 347Q421 389 399 413T335 438Q284 438 247 403T198 308V306H417ZM315 595T308 598T294 608L193
709Q189 713 189 719Q189 729 195 735T211 742H318Q331 742 337 739T351 723L411 625Q415 618 413 610Q411 604 406 600T394 595H327Q315 595 308 598Z" />
<glyph unicode="&#xe9;" glyph-name="eacute" horiz-adv-x="576" d="M144 -10T92 38T40 175Q40 209 45 236Q46 243 56 286Q85 400 164 465T354 530Q453 530 503 480T554 341Q554 308 546 266L541 245Q539 235 531 228T511 221H180L178 213Q175 195 175 179Q175
137 196 111T259 84Q316 84 362 130Q373 141 379 143T397 146H485Q494 146 499 140T502 125Q495 101 460 69T367 14T240 -10Q144 -10 92 38ZM417 306V308Q421 327 421 347Q421 389 399 413T335 438Q284 438 247 403T198 308V306H417ZM295 595T292 599T290 611Q292
619 298 624L401 723Q413 735 421 738T442 742H544Q552 742 556 737T559 725Q557 715 551 710L404 608Q394 601 386 598T366 595H302Q295 595 292 599Z" />
<glyph unicode="&#xea;" glyph-name="ecircumflex" horiz-adv-x="576" d="M144 -10T92 38T40 175Q40 209 45 236Q46 243 56 286Q85 400 164 465T354 530Q453 530 503 480T554 341Q554 308 546 266L541 245Q539 235 531 228T511 221H180L178 213Q175 195 175 179Q175
137 196 111T259 84Q316 84 362 130Q373 141 379 143T397 146H485Q494 146 499 140T502 125Q495 101 460 69T367 14T240 -10Q144 -10 92 38ZM417 306V308Q421 327 421 347Q421 389 399 413T335 438Q284 438 247 403T198 308V306H417ZM180 595T177 598T174 608Q174
616 183 622L305 726Q317 736 325 739T343 742H399Q409 742 415 739T429 726L508 622Q513 616 511 608Q510 602 506 599T494 595H459Q443 595 432 602L360 655L265 602Q250 595 237 595H186Q180 595 177 598Z" />
<glyph unicode="&#xeb;" glyph-name="edieresis" horiz-adv-x="576" d="M144 -10T92 38T40 175Q40 209 45 236Q46 243 56 286Q85 400 164 465T354 530Q453 530 503 480T554 341Q554 308 546 266L541 245Q539 235 531 228T511 221H180L178 213Q175 195 175 179Q175
137 196 111T259 84Q316 84 362 130Q373 141 379 143T397 146H485Q494 146 499 140T502 125Q495 101 460 69T367 14T240 -10Q144 -10 92 38ZM417 306V308Q421 327 421 347Q421 389 399 413T335 438Q284 438 247 403T198 308V306H417ZM213 614T208 620T205 636L221
710Q223 720 230 726T248 733H322Q332 733 337 727T340 710L324 636Q322 626 315 620T297 614H223Q213 614 208 620ZM402 614T397 620T394 636L410 710Q411 720 419 726T437 733H511Q521 733 526 727T529 710L513 636Q511 626 504 620T486 614H412Q402 614 397
620Z" />
<glyph unicode="&#xec;" glyph-name="igrave" horiz-adv-x="265" d="M17 0T12 7T8 24L109 496Q111 507 119 513T138 520H223Q233 520 238 513T241 496L141 24Q139 14 131 7T113 0H28Q17 0 12 7ZM161 595T154 598T140 608L39 709Q35 713 35 719Q35 729 41 735T57
742H164Q177 742 183 739T197 723L257 625Q261 618 259 610Q257 604 252 600T240 595H173Q161 595 154 598Z" />
<glyph unicode="&#xed;" glyph-name="iacute" horiz-adv-x="265" d="M17 0T12 7T8 24L109 496Q111 507 119 513T138 520H223Q233 520 238 513T241 496L141 24Q139 14 131 7T113 0H28Q17 0 12 7ZM145 595T142 599T140 611Q142 619 148 624L251 723Q263 735 271
738T292 742H394Q402 742 406 737T409 725Q407 715 401 710L254 608Q244 601 236 598T216 595H152Q145 595 142 599Z" />
<glyph unicode="&#xee;" glyph-name="icircumflex" horiz-adv-x="265" d="M17 0T12 7T8 24L109 496Q111 507 119 513T138 520H223Q233 520 238 513T241 496L141 24Q139 14 131 7T113 0H28Q17 0 12 7ZM286 595T283 598T280 608Q280 616 289 622L411 726Q423 736
431 739T449 742H505Q515 742 521 739T535 726L614 622Q619 616 617 608Q616 602 612 599T600 595H565Q549 595 538 602L466 655L371 602Q356 595 343 595H292Q286 595 283 598Z" />
<glyph unicode="&#xef;" glyph-name="idieresis" horiz-adv-x="265" d="M17 0T12 7T8 24L109 496Q111 507 119 513T138 520H223Q233 520 238 513T241 496L141 24Q139 14 131 7T113 0H28Q17 0 12 7ZM59 614T54 620T51 636L67 710Q69 720 76 726T94 733H168Q178
733 183 727T186 710L170 636Q168 626 161 620T143 614H69Q59 614 54 620ZM248 614T243 620T240 636L256 710Q257 720 265 726T283 733H357Q367 733 372 727T375 710L359 636Q357 626 350 620T332 614H258Q248 614 243 620Z" />
<glyph unicode="&#xf0;" glyph-name="eth" horiz-adv-x="587" d="M141 -10T88 37T35 167Q35 199 42 231Q65 341 146 405T342 470Q391 470 420 447Q413 498 390 541L276 500Q267 497 263 497Q254 497 250 502T247 516L252 539Q254 551 260 557T280 568L353 594Q327
626 290 658Q279 668 279 677Q279 687 286 693T304 700H394Q421 700 434 687Q469 650 478 638L577 674Q586 677 590 677Q599 677 603 672T606 658L601 635Q599 623 593 618T573 607L515 586Q560 510 560 400Q560 338 545 255L539 227Q513 117 434 54T240 -10Q141
-10 88 37ZM315 91T350 126T399 218Q401 224 405 242Q409 259 409 280Q409 322 388 346T321 370Q266 370 231 335T183 242Q181 236 177 217Q173 191 173 181Q173 139 194 115T261 91Q315 91 350 126Z" />
<glyph unicode="&#xf1;" glyph-name="ntilde" horiz-adv-x="625" d="M17 0T12 7T8 24L109 496Q111 507 119 513T138 520H221Q232 520 237 513T240 496L231 455Q264 489 308 509T405 530Q487 530 530 489T574 374Q574 345 566 305L506 24Q504 13 496 7T477 0H388Q377
0 372 7T368 24L426 299Q433 334 433 351Q433 387 414 404T351 422Q295 422 256 390T204 299L146 24Q144 13 136 7T117 0H28Q17 0 12 7ZM417 590T404 595T375 610Q364 618 356 621T337 625Q328 625 322 621T307 609Q295 595 284 595H237Q230 595 226 600T223 612Q227
635 241 660T281 702T338 720Q358 720 371 715T400 699Q403 697 414 691T438 685Q447 685 453 689T466 701Q471 706 477 710T490 715H537Q545 715 548 710T551 698Q547 675 533 650T493 608T436 590Q417 590 404 595Z" />
<glyph unicode="&#xf2;" glyph-name="ograve" horiz-adv-x="591" d="M137 -10T81 38T24 171Q24 195 28 216Q37 269 47 304Q74 411 147 470T337 530Q438 530 495 481T552 347Q552 334 548 304Q533 232 529 216Q501 109 429 50T238 -10Q137 -10 81 38ZM301 91T338
124T392 221Q399 249 409 299Q413 320 413 342Q413 430 327 430Q274 430 237 396T184 299Q173 264 167 221Q163 200 163 177Q163 91 248 91Q301 91 338 124ZM322 595T315 598T301 608L200 709Q196 713 196 719Q196 729 202 735T218 742H325Q338 742 344 739T358
723L418 625Q422 618 420 610Q418 604 413 600T401 595H334Q322 595 315 598Z" />
<glyph unicode="&#xf3;" glyph-name="oacute" horiz-adv-x="591" d="M137 -10T81 38T24 171Q24 195 28 216Q37 269 47 304Q74 411 147 470T337 530Q438 530 495 481T552 347Q552 334 548 304Q533 232 529 216Q501 109 429 50T238 -10Q137 -10 81 38ZM301 91T338
124T392 221Q399 249 409 299Q413 320 413 342Q413 430 327 430Q274 430 237 396T184 299Q173 264 167 221Q163 200 163 177Q163 91 248 91Q301 91 338 124ZM302 595T299 599T297 611Q299 619 305 624L408 723Q420 735 428 738T449 742H551Q559 742 563 737T566
725Q564 715 558 710L411 608Q401 601 393 598T373 595H309Q302 595 299 599Z" />
<glyph unicode="&#xf4;" glyph-name="ocircumflex" horiz-adv-x="591" d="M137 -10T81 38T24 171Q24 195 28 216Q37 269 47 304Q74 411 147 470T337 530Q438 530 495 481T552 347Q552 334 548 304Q533 232 529 216Q501 109 429 50T238 -10Q137 -10 81 38ZM301
91T338 124T392 221Q399 249 409 299Q413 320 413 342Q413 430 327 430Q274 430 237 396T184 299Q173 264 167 221Q163 200 163 177Q163 91 248 91Q301 91 338 124ZM191 595T188 598T185 608Q185 616 194 622L316 726Q328 736 336 739T354 742H410Q420 742 426
739T440 726L519 622Q524 616 522 608Q521 602 517 599T505 595H470Q454 595 443 602L371 655L276 602Q261 595 248 595H197Q191 595 188 598Z" />
<glyph unicode="&#xf5;" glyph-name="otilde" horiz-adv-x="591" d="M137 -10T81 38T24 171Q24 195 28 216Q37 269 47 304Q74 411 147 470T337 530Q438 530 495 481T552 347Q552 334 548 304Q533 232 529 216Q501 109 429 50T238 -10Q137 -10 81 38ZM301 91T338
124T392 221Q399 249 409 299Q413 320 413 342Q413 430 327 430Q274 430 237 396T184 299Q173 264 167 221Q163 200 163 177Q163 91 248 91Q301 91 338 124ZM402 590T389 595T360 610Q349 618 341 621T322 625Q313 625 307 621T292 609Q280 595 269 595H222Q215
595 211 600T208 612Q212 635 226 660T266 702T323 720Q343 720 356 715T385 699Q388 697 399 691T423 685Q432 685 438 689T451 701Q456 706 462 710T475 715H522Q530 715 533 710T536 698Q532 675 518 650T478 608T421 590Q402 590 389 595Z" />
<glyph unicode="&#xf6;" glyph-name="odieresis" horiz-adv-x="591" d="M137 -10T81 38T24 171Q24 195 28 216Q37 269 47 304Q74 411 147 470T337 530Q438 530 495 481T552 347Q552 334 548 304Q533 232 529 216Q501 109 429 50T238 -10Q137 -10 81 38ZM301 91T338
124T392 221Q399 249 409 299Q413 320 413 342Q413 430 327 430Q274 430 237 396T184 299Q173 264 167 221Q163 200 163 177Q163 91 248 91Q301 91 338 124ZM222 614T217 620T214 636L230 710Q232 720 239 726T257 733H331Q341 733 346 727T349 710L333 636Q331
626 324 620T306 614H232Q222 614 217 620ZM411 614T406 620T403 636L419 710Q420 720 428 726T446 733H520Q530 733 535 727T538 710L522 636Q520 626 513 620T495 614H421Q411 614 406 620Z" />
<glyph unicode="&#xf7;" glyph-name="divide" horiz-adv-x="541" d="M246 421T241 428T238 445L254 520Q256 531 264 538T283 545H363Q373 545 378 538T382 520L366 445Q364 435 356 428T336 421H257Q246 421 241 428ZM56 248T51 255T47 272L60 329Q62 340 70
346T89 353H476Q487 353 492 346T495 329L483 272Q481 262 473 255T454 248H66Q56 248 51 255ZM169 57T164 64T160 81L176 156Q178 167 186 174T205 181H285Q296 181 301 174T305 156L288 81Q286 70 278 64T259 57H180Q169 57 164 64Z" />
<glyph unicode="&#xf8;" glyph-name="oslash" horiz-adv-x="624" d="M170 -10T120 26T59 127L19 113Q11 110 7 110Q-2 110 -6 115T-9 129L-1 168Q1 180 7 186T27 197L58 208Q65 253 78 304Q104 404 180 467T377 530Q467 530 516 494T577 394L618 409Q627 412 631
412Q639 412 643 407T647 392L638 353Q636 341 630 336T610 325L580 314Q578 293 572 264T560 216Q534 115 459 53T262 -10Q170 -10 120 26ZM444 346Q444 389 421 409T356 430Q306 430 270 400T216 307Q215 299 212 287T207 261L444 346ZM334 91T370 121T423 218Q428
234 432 261L193 175Q194 132 217 112T283 91Q334 91 370 121Z" />
<glyph unicode="&#xf9;" glyph-name="ugrave" horiz-adv-x="622" d="M123 -10T80 31T36 147Q36 177 44 215L103 496Q105 506 113 513T133 520H222Q233 520 238 513T241 496L183 221Q176 186 176 168Q176 133 195 116T257 98Q311 98 350 131T403 221L461 496Q463
506 471 513T490 520H580Q590 520 595 513T598 496L498 24Q496 14 488 7T470 0H387Q376 0 371 7T367 24L376 65Q339 25 302 8T204 -10Q123 -10 80 31ZM327 595T320 598T306 608L205 709Q201 713 201 719Q201 729 207 735T223 742H330Q343 742 349 739T363 723L423
625Q427 618 425 610Q423 604 418 600T406 595H339Q327 595 320 598Z" />
<glyph unicode="&#xfa;" glyph-name="uacute" horiz-adv-x="622" d="M123 -10T80 31T36 147Q36 177 44 215L103 496Q105 506 113 513T133 520H222Q233 520 238 513T241 496L183 221Q176 186 176 168Q176 133 195 116T257 98Q311 98 350 131T403 221L461 496Q463
506 471 513T490 520H580Q590 520 595 513T598 496L498 24Q496 14 488 7T470 0H387Q376 0 371 7T367 24L376 65Q339 25 302 8T204 -10Q123 -10 80 31ZM310 595T307 599T305 611Q307 619 313 624L416 723Q428 735 436 738T457 742H559Q567 742 571 737T574 725Q572
715 566 710L419 608Q409 601 401 598T381 595H317Q310 595 307 599Z" />
<glyph unicode="&#xfb;" glyph-name="ucircumflex" horiz-adv-x="622" d="M123 -10T80 31T36 147Q36 177 44 215L103 496Q105 506 113 513T133 520H222Q233 520 238 513T241 496L183 221Q176 186 176 168Q176 133 195 116T257 98Q311 98 350 131T403 221L461 496Q463
506 471 513T490 520H580Q590 520 595 513T598 496L498 24Q496 14 488 7T470 0H387Q376 0 371 7T367 24L376 65Q339 25 302 8T204 -10Q123 -10 80 31ZM192 595T189 598T186 608Q186 616 195 622L317 726Q329 736 337 739T355 742H411Q421 742 427 739T441 726L520
622Q525 616 523 608Q522 602 518 599T506 595H471Q455 595 444 602L372 655L277 602Q262 595 249 595H198Q192 595 189 598Z" />
<glyph unicode="&#xfc;" glyph-name="udieresis" horiz-adv-x="622" d="M123 -10T80 31T36 147Q36 177 44 215L103 496Q105 506 113 513T133 520H222Q233 520 238 513T241 496L183 221Q176 186 176 168Q176 133 195 116T257 98Q311 98 350 131T403 221L461 496Q463
506 471 513T490 520H580Q590 520 595 513T598 496L498 24Q496 14 488 7T470 0H387Q376 0 371 7T367 24L376 65Q339 25 302 8T204 -10Q123 -10 80 31ZM227 614T222 620T219 636L235 710Q237 720 244 726T262 733H336Q346 733 351 727T354 710L338 636Q336 626 329
620T311 614H237Q227 614 222 620ZM416 614T411 620T408 636L424 710Q425 720 433 726T451 733H525Q535 733 540 727T543 710L527 636Q525 626 518 620T500 614H426Q416 614 411 620Z" />
<glyph unicode="&#xfd;" glyph-name="yacute" horiz-adv-x="581" d="M48 -190T44 -186T39 -174Q39 -164 44 -158L166 34L68 492Q66 503 72 511T94 520H170Q190 520 194 501L260 175L467 501Q478 520 499 520H586Q594 520 599 516T604 503Q604 497 600 490L173
-171Q162 -190 141 -190H55Q48 -190 44 -186ZM291 595T288 599T286 611Q288 619 294 624L397 723Q409 735 417 738T438 742H540Q548 742 552 737T555 725Q553 715 547 710L400 608Q390 601 382 598T362 595H298Q291 595 288 599Z" />
<glyph unicode="&#xfe;" glyph-name="thorn" horiz-adv-x="613" d="M-23 -190T-28 -183T-32 -166L150 686Q152 697 160 703T179 710H266Q277 710 282 703T285 686L237 460Q266 493 303 511T396 530Q483 530 528 481T573 349Q573 325 568 293Q564 265 554 227Q527
120 462 55T296 -10Q242 -10 206 9T152 61L104 -166Q102 -177 94 -183T75 -190H-12Q-23 -190 -28 -183ZM328 98T363 134T416 230Q424 257 429 290Q432 311 432 331Q432 422 350 422Q292 422 253 385T202 295Q192 259 185 218Q182 203 182 189Q182 149 204 124T273
98Q328 98 363 134Z" />
<glyph unicode="&#xff;" glyph-name="ydieresis" horiz-adv-x="581" d="M48 -190T44 -186T39 -174Q39 -164 44 -158L166 34L68 492Q66 503 72 511T94 520H170Q190 520 194 501L260 175L467 501Q478 520 499 520H586Q594 520 599 516T604 503Q604 497 600 490L173
-171Q162 -190 141 -190H55Q48 -190 44 -186ZM202 614T197 620T194 636L210 710Q212 720 219 726T237 733H311Q321 733 326 727T329 710L313 636Q311 626 304 620T286 614H212Q202 614 197 620ZM391 614T386 620T383 636L399 710Q400 720 408 726T426 733H500Q510
733 515 727T518 710L502 636Q500 626 493 620T475 614H401Q391 614 386 620Z" />
<glyph unicode="&#x2013;" glyph-name="endash" horiz-adv-x="570" d="M64 242T59 249T55 266L69 334Q72 345 80 351T98 358H496Q507 358 512 351T515 334L501 266Q499 256 490 249T471 242H74Q64 242 59 249Z" />
<glyph unicode="&#x2014;" glyph-name="emdash" horiz-adv-x="760" d="M64 242T59 249T55 266L69 334Q72 345 80 351T98 358H686Q697 358 702 351T705 334L691 266Q689 256 680 249T661 242H74Q64 242 59 249Z" />
<glyph unicode="&#x2018;" glyph-name="quoteleft" horiz-adv-x="260" d="M223 486T195 486H98Q83 486 83 500Q83 507 87 512L190 684Q197 696 205 703T228 710H284Q292 710 296 704T297 688L234 518Q223 486 195 486Z" />
<glyph unicode="&#x2019;" glyph-name="quoteright" horiz-adv-x="254" d="M168 710T194 710H291Q306 710 306 697Q306 688 302 683L199 511Q192 499 184 493T161 486H105Q97 486 93 492T92 508L155 678Q168 710 194 710Z" />
<glyph unicode="&#x201a;" glyph-name="quotesinglbase" horiz-adv-x="270" d="M45 149T73 149H170Q185 149 185 135Q185 128 181 123L78 -49Q71 -61 63 -68T40 -75H-16Q-24 -75 -28 -69T-29 -53L34 117Q45 149 73 149Z" />
<glyph unicode="&#x201c;" glyph-name="quotedblleft" horiz-adv-x="456" d="M83 486T83 500Q83 507 87 512L190 684Q197 696 205 703T228 710H284Q292 710 296 704T297 688L234 518Q223 486 195 486H98Q83 486 83 500ZM279 486T279 500Q279 504 283 512L387 684Q394
696 402 703T425 710H481Q489 710 493 704T494 688L431 518Q418 486 392 486H295Q279 486 279 500Z" />
<glyph unicode="&#x201d;" glyph-name="quotedblright" horiz-adv-x="449" d="M168 710T194 710H291Q306 710 306 697Q306 688 302 683L199 511Q192 499 184 493T161 486H105Q97 486 93 492T92 508L155 678Q168 710 194 710ZM362 710T390 710H487Q502 710 502
696Q502 688 498 683L395 511Q388 499 380 493T357 486H301Q293 486 289 492T288 508L351 678Q362 710 390 710Z" />
<glyph unicode="&#x201e;" glyph-name="quotedblbase" horiz-adv-x="465" d="M45 149T73 149H170Q185 149 185 135Q185 128 181 123L78 -49Q71 -61 63 -68T40 -75H-16Q-24 -75 -28 -69T-29 -53L34 117Q45 149 73 149ZM241 149T268 149H366Q381 149 381 136Q381
131 377 123L274 -49Q259 -75 236 -75H180Q172 -75 168 -69T167 -53L230 117Q241 149 268 149Z" />
<glyph unicode="&#x2022;" glyph-name="bullet" horiz-adv-x="381" d="M76 334T97 366T151 418T220 438Q262 438 288 412T314 345Q314 309 293 277T239 224T170 204Q129 204 103 231T76 298Q76 334 97 366Z" />
<glyph unicode="&#x2039;" glyph-name="guilsinglleft" horiz-adv-x="349" d="M230 75T221 84L62 279Q51 292 53 311L61 347Q65 364 84 380L325 574Q337 583 347 583Q356 583 360 577T363 562L349 493Q345 479 340 471T322 453L168 329L269 205Q281 192 281 179Q281
175 279 165L264 96Q262 87 255 81T239 75Q230 75 221 84Z" />
<glyph unicode="&#x203a;" glyph-name="guilsinglright" horiz-adv-x="349" d="M35 75T31 81T28 96L43 165Q46 178 51 186T69 205L223 329L122 453Q117 460 114 466T110 480Q110 483 112 493L127 562Q129 571 136 577T153 583Q161 583 170 574L329 380Q339 369
339 355L338 347L330 311Q325 292 307 279L66 84Q54 75 44 75Q35 75 31 81Z" />
</font>
</defs>
</svg>
