<?xml version="1.0" standalone="no"?>
<!DOCTYPE svg PUBLIC "-//W3C//DTD SVG 1.1//EN" "http://www.w3.org/Graphics/SVG/1.1/DTD/svg11.dtd">
<svg xmlns="http://www.w3.org/2000/svg">
<defs >
<font id="Marmelad" horiz-adv-x="1198" ><font-face
    font-family="Marmelad"
    units-per-em="2048"
    panose-1="2 0 5 3 0 0 0 2 0 4"
    ascent="1989"
    descent="-451"
    alphabetic="0" />
<glyph unicode=" " glyph-name="space" horiz-adv-x="614" />
<glyph unicode="!" glyph-name="exclam" horiz-adv-x="631" d="M424 1348V461Q424 430 391 413T313 395Q270 395 239 412T207 461V1350Q207 1452 309 1452Q370 1452 397 1426T424 1348ZM174 141Q174 170 186 196T217 242T262 273T315 285Q344 285 370 274T416
242T447 196T459 141Q459 114 448 89T417 44T371 12T315 0Q287 0 262 11T217 42T186 87T174 141Z" />
<glyph unicode="&quot;" glyph-name="quotedbl" horiz-adv-x="848" d="M188 1055L123 1460Q123 1490 156 1506T244 1522Q296 1522 331 1505T367 1460L299 1055Q294 1026 244 1026Q222 1026 206 1033T188 1055ZM547 1055L481 1460Q481 1490 514 1506T602 1522Q656
1522 690 1505T725 1460L657 1055Q652 1026 602 1026Q580 1026 564 1033T547 1055Z" />
<glyph unicode="#" glyph-name="numbersign" horiz-adv-x="1085" d="M770 373L713 41Q710 22 685 11T627 0Q555 0 555 41L616 373H344L279 41Q274 22 249 11T193 0Q121 0 121 41L182 373H-96Q-121 373 -121 414Q-121 430 -116 449T-103 484T-84 511T-61 522H213L279
877H0Q-27 877 -27 924Q-27 942 -23 960T-11 994T7 1020T29 1030H309L367 1356Q370 1374 396 1384T455 1395Q528 1395 528 1356L469 1030H743L803 1356Q806 1374 832 1384T891 1395Q924 1395 944 1385T965 1356L899 1030H1180Q1206 1030 1206 983Q1206 965 1202
946T1191 912T1173 887T1151 877H870L805 522H1083Q1110 522 1110 477Q1110 460 1106 442T1094 409T1076 383T1053 373H770ZM369 522H645L711 877H438L369 522Z" />
<glyph unicode="$" glyph-name="dollar" horiz-adv-x="1085" d="M852 1079Q795 1079 769 1108T743 1206V1311Q737 1312 729 1314T711 1321Q679 1329 653 1335T604 1343V799Q699 760 776 725T907 647T990 548T1020 411Q1020 331 994 262T916 140T786 53T604 6V-197Q604
-217 586 -228T541 -240Q516 -240 498 -229T479 -197V0Q426 1 363 11T244 36T144 69T86 105Q72 124 72 166V289Q72 387 152 387Q207 387 234 357T262 258V147Q369 107 479 104V666L376 708Q308 736 251 768T153 844T89 944T66 1081Q66 1161 94 1227T175 1341T304
1417T479 1450V1622Q479 1642 497 1653T541 1665Q567 1665 585 1654T604 1622V1448Q656 1444 718 1430T856 1393Q878 1385 893 1377T917 1359T930 1333T934 1296V1178Q934 1079 852 1079ZM276 1094Q276 1047 285 1013T318 950T381 897T479 848V1343Q429 1335 392
1311T328 1252T289 1177T276 1094ZM809 375Q809 416 798 448T763 509T699 561T604 612V119Q654 133 692 158T756 218T795 292T809 375Z" />
<glyph unicode="%" glyph-name="percent" horiz-adv-x="1845" d="M1087 222Q1065 295 1065 397Q1065 481 1080 545T1120 657T1178 737T1248 788T1323 816T1395 825Q1428 825 1465 817T1539 790T1608 738T1667 659T1707 547T1722 397Q1722 311 1707 247T1667 134T1608
55T1539 4T1465 -23T1395 -31Q1356 -31 1311 -20T1223 20T1144 98T1087 222ZM1241 397Q1241 291 1255 225T1292 122T1342 71T1395 57Q1420 57 1447 70T1496 121T1533 224T1548 397Q1548 499 1535 565T1499 669T1450 722T1395 737Q1370 737 1343 724T1294 675T1256
572T1241 397ZM453 1485Q486 1485 523 1477T597 1450T666 1398T725 1319T765 1207T780 1057Q780 931 748 848T667 717T561 649T453 629Q403 629 346 647T239 714T156 845T123 1057Q123 1184 155 1267T237 1398T344 1466T453 1485ZM299 1057Q299 949 314 883T351
780T401 730T453 717Q480 717 507 731T557 784T592 889T606 1057Q606 1164 591 1230T554 1334T504 1384T453 1397Q429 1397 402 1385T352 1337T314 1233T299 1057ZM1438 1497L502 -158Q493 -170 473 -170Q460 -170 444 -166T414 -153T391 -136T381 -115Q381 -110
383 -104L1317 1561Q1323 1573 1341 1573Q1355 1573 1372 1567T1404 1551T1429 1530T1440 1507Q1440 1503 1438 1497Z" />
<glyph unicode="&amp;" glyph-name="ampersand" horiz-adv-x="1327" d="M983 379Q996 398 1012 431T1049 514Q1063 547 1080 563T1124 580Q1153 580 1170 567T1188 532Q1188 514 1180 491T1162 444T1140 401T1123 370Q1103 334 1069 291L1214 109Q1235 82 1235
59Q1235 32 1212 16T1149 0Q1122 0 1102 3T1065 13T1036 31T1010 57L940 145Q899 106 858 79T771 34T675 8T561 0Q457 0 375 29T234 110T144 237T113 403Q113 469 129 524T182 628T279 722T426 813Q399 849 375 891T333 975T304 1058T293 1130Q293 1199 317 1258T386
1360T494 1427T637 1452Q712 1452 770 1431T868 1373T929 1287T950 1182Q950 1117 931 1065T874 969T784 886T664 807L983 379ZM578 106Q668 106 735 143T864 244L496 723Q438 680 404 646T351 574T328 492T322 383Q322 330 341 280T394 192T475 130T578 106ZM498
1147Q498 1019 594 889Q697 951 745 1017T793 1174Q793 1212 782 1244T753 1299T709 1336T653 1350Q616 1350 587 1335T539 1292T509 1228T498 1147Z" />
<glyph unicode="&apos;" glyph-name="quotesingle" horiz-adv-x="489" d="M188 1055L123 1460Q123 1490 156 1506T244 1522Q296 1522 331 1505T367 1460L299 1055Q294 1026 244 1026Q222 1026 206 1033T188 1055Z" />
<glyph unicode="(" glyph-name="parenleft" horiz-adv-x="776" d="M530 -287L498 -248Q444 -183 386 -93T278 108T196 350T164 629Q164 776 196 907T277 1149T385 1351T498 1505L530 1544Q544 1561 567 1561Q592 1561 612 1546T633 1509Q633 1500 629 1489L602
1434Q496 1218 445 1017T393 629Q394 440 445 240T602 -176L629 -231Q633 -243 633 -252Q633 -273 613 -288T569 -303Q543 -303 530 -287Z" />
<glyph unicode=")" glyph-name="parenright" horiz-adv-x="776" d="M279 -248L246 -287Q233 -303 207 -303Q183 -303 163 -288T143 -252Q143 -243 147 -231L174 -176Q280 39 331 240T383 629Q382 816 331 1017T174 1434L147 1489Q143 1500 143 1509Q143 1530 163
1545T207 1561Q232 1561 246 1544L279 1505Q325 1451 382 1368T491 1173T577 926T612 629Q612 475 578 341T494 95T386 -103T279 -248Z" />
<glyph unicode="*" glyph-name="asterisk" horiz-adv-x="922" d="M539 1417L516 1163L522 1159L729 1305Q736 1309 741 1309Q753 1309 766 1298T792 1271T811 1236T819 1204Q819 1186 807 1180L563 1069V1063L799 956Q813 950 813 930Q813 916 806 898T787 863T763
836T739 825Q734 825 727 829L524 981L518 977L539 721Q539 686 461 686Q383 686 383 721L403 977L397 981L197 829Q190 825 184 825Q172 825 160 836T136 863T118 897T111 930Q111 950 125 956L358 1063V1069L117 1180Q102 1184 102 1204Q102 1218 110 1236T130
1271T156 1298T182 1309Q186 1309 195 1305L399 1159L406 1163L383 1417V1420Q383 1436 407 1443T461 1451Q490 1451 514 1444T539 1420V1417Z" />
<glyph unicode="+" glyph-name="plus" horiz-adv-x="1475" d="M655 633H225H222Q203 633 194 658T184 715Q184 746 193 771T222 797H225H655V1227Q655 1247 680 1257T737 1267Q769 1267 794 1257T819 1227V797H1249Q1269 797 1279 772T1289 715Q1289 683 1279
658T1249 633H819V203V200Q819 181 794 172T737 162Q706 162 681 171T655 200V203V633Z" />
<glyph unicode="," glyph-name="comma" horiz-adv-x="557" d="M172 -139L250 25Q209 31 185 48T146 87T128 131T123 172Q123 208 137 235T174 281T226 309T285 319Q313 319 340 310T388 283T421 240T434 182Q434 119 391 27L305 -156Q281 -211 229 -211Q204 -211
186 -195T168 -158Q168 -150 172 -139Z" />
<glyph unicode="-" glyph-name="hyphen" horiz-adv-x="895" d="M752 440H143H140Q121 440 112 465T102 522Q102 553 111 578T140 604H143H752Q772 604 782 579T792 522Q792 490 782 465T752 440Z" />
<glyph unicode="." glyph-name="period" horiz-adv-x="557" d="M123 158Q123 193 135 222T168 273T217 307T279 319Q312 319 340 307T389 273T422 222T434 158Q434 125 423 97T390 47T341 13T279 0Q247 0 219 12T169 45T136 95T123 158Z" />
<glyph unicode="/" glyph-name="slash" horiz-adv-x="1372" d="M1268 1452L209 -410Q200 -422 182 -422Q168 -422 151 -416T118 -400T93 -379T82 -356Q82 -352 84 -346L1141 1526Q1147 1538 1167 1538Q1181 1538 1199 1531T1232 1513T1259 1489T1270 1464Q1270
1458 1268 1452Z" />
<glyph unicode="0" glyph-name="zero" horiz-adv-x="1085" d="M70 725Q70 873 94 1005T174 1236T320 1394T543 1452Q675 1452 765 1394T911 1235T991 1004T1016 725Q1016 566 991 433T910 204T763 54T543 0Q413 0 323 53T177 203T95 432T70 725ZM790 725Q789 813
787 873T781 966Q774 1042 759 1111T715 1233T645 1317T543 1348Q465 1345 418 1300T344 1174T308 979T295 725Q297 628 299 565T305 467Q312 386 328 320T372 207T442 133T543 104Q596 104 636 127T706 194T752 296T777 427Q781 465 784 539T790 725Z" />
<glyph unicode="1" glyph-name="one" horiz-adv-x="1085" d="M483 1311L256 1225Q226 1214 207 1214Q181 1214 168 1232T154 1274Q154 1304 197 1319L485 1432Q542 1452 596 1452Q651 1452 675 1428T700 1350V109H877Q924 109 941 93T958 49Q958 0 897 0H287Q225
0 225 49Q225 109 307 109H483V1311Z" />
<glyph unicode="2" glyph-name="two" horiz-adv-x="1085" d="M184 1014Q139 1014 118 1038T96 1116V1239Q96 1274 106 1290T143 1325Q197 1360 246 1384T346 1423T447 1445T557 1452Q662 1452 737 1423T861 1343T931 1227T954 1087Q954 992 920 889T803 668T583
412T242 109H776V236Q776 308 803 338T885 369Q973 369 973 266V66Q973 30 943 15T850 0H123Q98 0 85 16T72 57Q72 100 102 127L131 154Q304 314 414 446T588 680T680 855T714 967Q718 990 720 1012T723 1057Q723 1102 714 1153T680 1248T610 1319T492 1348Q393
1348 293 1294V1147Q293 1074 269 1044T184 1014Z" />
<glyph unicode="3" glyph-name="three" horiz-adv-x="1085" d="M150 436Q208 436 233 406T258 303V156Q347 104 467 104Q527 104 578 123T666 180T724 277T745 412Q745 496 724 551T663 640T568 686T444 700H385Q372 700 362 717T352 756Q352 778 362 795T385
813H444Q702 813 702 1100Q702 1163 686 1210T639 1287T565 1333T469 1348Q368 1348 279 1298V1151Q279 1078 255 1048T170 1018Q82 1018 82 1120V1243Q82 1279 92 1298T129 1335Q225 1396 318 1424T520 1452Q623 1452 700 1426T827 1354T903 1243T928 1100Q928
1036 908 982T852 886T770 817T670 778V760Q737 750 793 725T890 658T952 555T975 414Q975 320 940 244T842 113T689 30T492 0Q288 0 109 106Q61 134 61 211V334Q61 388 82 412T150 436Z" />
<glyph unicode="4" glyph-name="four" horiz-adv-x="1085" d="M481 109H639V354H43Q-14 354 -14 403Q-14 422 0 453L608 1376Q656 1452 752 1452Q807 1452 831 1428T856 1350V463H983Q1031 463 1048 447T1065 403Q1065 354 1004 354H856V109H973Q1055 109 1055
49Q1055 0 993 0H461Q399 0 399 49Q399 109 481 109ZM639 463V1184L158 463H639Z" />
<glyph unicode="5" glyph-name="five" horiz-adv-x="1085" d="M864 1270H365L332 846Q432 942 596 942Q979 942 979 502Q979 447 969 389T935 275T876 169T786 82T663 22T504 0Q301 0 162 84Q115 111 115 188V281Q115 335 136 359T203 383Q262 383 286 353T311
250V133Q377 104 494 104Q549 104 596 130T677 206T730 327T750 489Q750 584 730 646T676 745T600 796T516 811Q450 811 396 782T309 702Q296 682 275 672T225 662Q168 662 168 725L215 1393Q217 1422 234 1437T287 1452H887Q956 1452 956 1372Q956 1354 951 1336T934
1303T905 1279T864 1270Z" />
<glyph unicode="6" glyph-name="six" horiz-adv-x="1085" d="M864 1100Q805 1100 781 1128T756 1227V1327Q706 1348 629 1348Q579 1348 525 1325T426 1243T352 1082T322 823V737Q347 788 382 822T459 878T543 908T629 918Q719 918 789 886T907 797T979 658T1004
477Q1004 367 973 279T884 129T747 34T569 0Q472 0 400 25T276 95T191 201T138 333T110 484T102 645Q102 814 122 940T178 1155T262 1302T369 1393T491 1439T621 1452Q743 1452 868 1407Q881 1402 896 1395T923 1377T944 1347T952 1303V1198Q952 1147 931 1124T864
1100ZM569 786Q521 786 479 764T406 700T356 598T338 461Q338 404 348 341T384 226T453 139T563 104Q780 104 780 479Q780 642 726 714T569 786Z" />
<glyph unicode="7" glyph-name="seven" horiz-adv-x="1085" d="M106 1376Q106 1421 135 1436T229 1452H915Q955 1452 973 1432T991 1380Q991 1359 986 1339T969 1300Q872 1145 804 996T687 701T608 416T553 137Q547 111 545 87T533 43T500 12T426 0Q360 0 334
15T307 61Q307 101 334 203Q378 368 433 528T551 835T683 1111T825 1343H303V1227Q303 1154 278 1124T195 1094Q149 1094 128 1118T106 1196V1376Z" />
<glyph unicode="8" glyph-name="eight" horiz-adv-x="1085" d="M766 1096Q766 1167 746 1215T693 1293T621 1335T543 1348Q505 1348 466 1336T394 1294T340 1217T319 1096Q319 1028 336 979T384 898T455 850T543 834Q591 834 631 850T702 898T749 980T766 1096ZM303
424Q303 345 321 286T371 186T448 125T543 104Q594 104 638 124T714 185T764 285T782 424Q782 510 761 569T707 665T630 718T543 735Q499 735 456 719T379 667T324 571T303 424ZM752 795V778Q815 764 863 732T944 653T993 550T1010 428Q1010 326 977 247T884 112T737
29T543 0Q436 0 350 28T203 112T109 246T76 428Q76 491 92 547T141 649T222 728T334 778V795Q284 807 242 834T168 901T118 988T100 1090Q100 1156 123 1221T198 1337T335 1420T543 1452Q666 1452 750 1420T887 1337T962 1221T985 1092Q985 1038 967 989T918 900T844
833T752 795Z" />
<glyph unicode="9" glyph-name="nine" horiz-adv-x="1085" d="M221 352Q281 352 305 324T330 225V125Q379 104 463 104Q515 104 568 130T665 218T736 379T764 629V715Q741 668 708 634T635 578T550 546T459 535Q367 535 297 567T179 659T107 800T82 981Q82 1093
116 1180T210 1328T355 1420T540 1452Q640 1452 712 1426T833 1353T911 1246T957 1114T978 969T983 821Q983 0 465 0Q343 0 217 45Q179 59 156 81T133 150V254Q133 352 221 352ZM518 666Q567 666 609 689T682 754T730 856T748 991Q748 1048 740 1110T709 1224T645
1311T537 1348Q430 1348 368 1258T305 979Q305 666 518 666Z" />
<glyph unicode=":" glyph-name="colon" horiz-adv-x="557" d="M123 852Q123 887 135 917T168 968T217 1002T279 1014Q312 1014 340 1002T389 967T422 916T434 852Q434 819 423 791T390 741T341 707T279 694Q247 694 219 706T169 739T136 789T123 852ZM123 158Q123
193 135 222T168 273T217 307T279 319Q312 319 340 307T389 273T422 222T434 158Q434 125 423 97T390 47T341 13T279 0Q247 0 219 12T169 45T136 95T123 158Z" />
<glyph unicode=";" glyph-name="semicolon" horiz-adv-x="565" d="M125 852Q125 887 137 917T170 968T219 1002T281 1014Q314 1014 342 1002T391 967T424 916T436 852Q436 819 425 791T392 741T343 707T281 694Q249 694 221 706T171 739T138 789T125 852ZM168
-139L246 25Q207 31 183 47T146 85T128 130T123 172Q123 208 137 235T174 281T226 309T285 319Q313 319 340 310T388 283T421 240T434 182Q434 117 391 27L305 -156Q281 -211 229 -211Q203 -211 184 -195T164 -158Q164 -148 168 -139Z" />
<glyph unicode="&lt;" glyph-name="less" horiz-adv-x="1542" d="M1257 100L137 655Q113 667 113 711Q113 754 137 766L1257 1321Q1263 1323 1268 1323Q1279 1323 1291 1312T1314 1283T1330 1245T1337 1208Q1337 1181 1321 1174L365 711L1321 248Q1337 241 1337
211Q1337 195 1331 176T1314 139T1292 110T1268 98Q1263 98 1257 100Z" />
<glyph unicode="=" glyph-name="equal" horiz-adv-x="1434" d="M1208 827H225H222Q203 827 194 852T184 909Q184 940 193 965T222 991H225H1208Q1228 991 1238 966T1248 909Q1248 877 1238 852T1208 827ZM1208 465H225H222Q203 465 194 490T184 547Q184 578 193
603T222 629H225H1208Q1228 629 1238 604T1248 547Q1248 515 1238 490T1208 465Z" />
<glyph unicode="&gt;" glyph-name="greater" horiz-adv-x="1614" d="M1395 655L274 100Q268 98 264 98Q251 98 239 109T217 138T201 174T195 211Q195 241 211 248L1167 711L211 1174Q195 1181 195 1208Q195 1226 201 1246T217 1283T239 1311T264 1323Q268 1323
274 1321L1395 766Q1419 754 1419 711Q1419 668 1395 655Z" />
<glyph unicode="?" glyph-name="question" horiz-adv-x="963" d="M150 1032Q105 1032 83 1056T61 1135V1253Q61 1288 73 1308T113 1346Q197 1400 286 1426T471 1452Q589 1452 668 1423T794 1347T861 1247T881 1141Q881 1105 874 1072T856 1009T830 955T800 913Q787
898 764 874T716 823T668 771T633 731Q603 694 582 663T547 599T527 532T520 453Q520 426 491 411T422 395Q385 395 360 409T334 453Q334 511 343 557T368 642T407 719T459 799Q490 845 524 881T585 954T631 1037T649 1147Q649 1257 595 1302T432 1348Q356 1348
258 1305V1165Q258 1092 233 1062T150 1032ZM289 141Q289 169 300 195T331 241T375 273T430 285Q459 285 485 274T530 242T561 196T573 141Q573 113 562 88T531 43T485 12T430 0Q401 0 376 12T331 43T300 88T289 141Z" />
<glyph unicode="@" glyph-name="at" horiz-adv-x="1679" d="M479 524Q479 637 515 734T616 903T768 1016T958 1057Q1013 1057 1060 1051T1143 1032T1199 1002T1219 961Q1219 956 1206 894T1166 710Q1114 472 1114 463Q1114 401 1182 401Q1227 401 1275 425T1364
497T1430 614T1456 772Q1456 838 1434 900T1373 1017T1279 1119T1161 1198T1026 1249T881 1268Q805 1268 731 1247T589 1188T464 1096T364 974T298 828T274 662Q274 547 317 438T440 243T635 105T891 53Q1090 53 1260 170Q1271 178 1284 178Q1297 178 1310 171T1333
151T1349 124T1356 94Q1356 68 1333 53Q1274 14 1223 -14T1119 -61T1009 -89T881 -98Q798 -98 710 -77T537 -12T378 95T246 243T156 432T123 662Q123 768 151 865T229 1047T349 1200T502 1317T679 1392T874 1419Q969 1419 1060 1398T1233 1338T1383 1241T1502 1112T1580
955T1608 772Q1608 655 1570 562T1469 404T1323 305T1151 270Q1128 270 1100 274T1044 289T993 322T958 379Q883 281 702 281Q649 281 608 298T538 348T494 424T479 524ZM770 418Q875 418 936 485L1034 915Q999 936 954 936Q900 936 849 906T757 823T693 700T668
549Q668 482 695 450T770 418Z" />
<glyph unicode="A" glyph-name="A" horiz-adv-x="1382" d="M371 389L266 109Q241 44 210 22T141 0Q112 0 99 16T86 57Q86 78 96 106L578 1403Q587 1427 617 1439T690 1452Q735 1452 770 1438T815 1397L1284 98Q1288 81 1288 68Q1288 39 1269 20T1208 0Q1094 0
1055 109L946 389H371ZM915 496L668 1210H655L403 496H915Z" />
<glyph unicode="B" glyph-name="B" horiz-adv-x="1372" d="M205 1350Q205 1452 299 1452H719Q1174 1452 1174 1087Q1174 1037 1158 988T1111 897T1038 824T942 780V770Q1023 755 1081 723T1176 647T1231 549T1249 434Q1249 340 1224 272T1156 155T1059 77T947
29T833 6T729 0H299Q205 0 205 102V1350ZM680 707H426V109H700Q747 109 802 122T906 169T986 262T1018 414Q1018 494 987 549T906 640T797 691T680 707ZM645 1343H426V815H662Q708 815 758 830T848 878T915 965T942 1094Q942 1166 913 1213T840 1290T743 1331T645
1343Z" />
<glyph unicode="C" glyph-name="C" horiz-adv-x="1190" d="M1030 1083Q970 1083 941 1114T911 1217V1331Q829 1348 762 1348Q665 1348 587 1307T454 1186T370 986T340 709Q340 536 369 420T455 234T592 135T776 106Q839 105 905 121T1044 166L1083 182Q1095 186
1100 186Q1120 186 1134 167T1149 125Q1149 94 1122 84L1087 70Q1000 35 910 18T719 0Q563 0 448 47T258 185T146 409T109 713Q109 903 156 1042T288 1273T486 1408T735 1452Q786 1452 843 1447T953 1432T1045 1408T1101 1374Q1118 1354 1118 1309V1186Q1118 1132
1097 1108T1030 1083Z" />
<glyph unicode="D" glyph-name="D" horiz-adv-x="1419" d="M205 1350Q205 1452 299 1452H592Q1311 1452 1311 733Q1310 591 1278 482T1192 291T1067 154T918 64T758 15T602 0H299Q205 0 205 102V1350ZM567 1343H426V109H567Q674 112 767 147T930 257T1039 449T1079
733Q1079 899 1040 1015T932 1204T770 1310T567 1343Z" />
<glyph unicode="E" glyph-name="E" horiz-adv-x="1231" d="M1030 1096Q969 1096 940 1126T911 1229V1343H426V807H856Q883 807 898 790T913 750Q913 740 908 730T895 712T877 699T856 694H426V109H942V223Q942 295 971 325T1061 356Q1106 356 1127 332T1149 254V76Q1149
31 1120 16T1026 0H299Q205 0 205 102V1350Q205 1452 299 1452H995Q1059 1452 1088 1437T1118 1376V1198Q1118 1144 1097 1120T1030 1096Z" />
<glyph unicode="F" glyph-name="F" horiz-adv-x="1139" d="M856 684H426V133Q426 61 396 31T299 0Q205 0 205 102V1350Q205 1452 299 1452H995Q1059 1452 1088 1437T1118 1376V1219Q1118 1165 1097 1141T1030 1116Q970 1116 941 1146T911 1249V1343H426V797H856Q884
797 898 780T913 739Q913 729 908 719T895 702T877 689T856 684Z" />
<glyph unicode="G" glyph-name="G" horiz-adv-x="1393" d="M1094 1083Q1034 1083 1005 1114T975 1217V1331Q909 1348 809 1348Q707 1348 621 1307T473 1185T375 985T340 711Q340 538 370 422T457 235T598 134T788 104Q932 104 1034 145V588H805Q780 588 767 604T754
643Q754 667 768 683T811 700H1159Q1213 700 1231 681T1249 618V195Q1249 166 1245 146T1233 113T1213 91T1184 76Q990 0 750 0Q580 0 459 49T260 191T146 416T109 715Q109 904 162 1043T306 1272T521 1407T784 1452Q832 1452 891 1447T1005 1432T1103 1407T1165
1371Q1182 1351 1182 1307V1186Q1182 1083 1094 1083Z" />
<glyph unicode="H" glyph-name="H" horiz-adv-x="1520" d="M1221 1452Q1315 1452 1315 1350V102Q1315 45 1294 23T1225 0Q1161 0 1128 40T1094 158V694H426V133Q426 61 396 31T299 0Q205 0 205 102V1350Q205 1407 226 1429T295 1452Q359 1452 392 1412T426 1294V807H1094V1319Q1094
1391 1124 1421T1221 1452Z" />
<glyph unicode="I" glyph-name="I" horiz-adv-x="836" d="M733 0H102Q41 0 41 49Q41 77 58 93T123 109H307V1343H123Q75 1343 58 1359T41 1403Q41 1452 102 1452H733Q795 1452 795 1403Q795 1343 713 1343H528V109H713Q795 109 795 49Q795 0 733 0Z" />
<glyph unicode="J" glyph-name="J" horiz-adv-x="991" d="M741 1452Q789 1452 812 1428T836 1350V535Q836 494 831 438T810 323T763 206T678 102T547 28T360 0Q333 0 297 4T225 14T159 27T113 43Q72 63 72 106V244Q72 298 93 322T160 346Q220 346 249 316T279
213V113Q300 109 321 108T365 106Q438 106 486 135T562 210T602 313T614 426V1319Q614 1391 644 1421T741 1452Z" />
<glyph unicode="K" glyph-name="K" horiz-adv-x="1251" d="M426 1294V782L1061 1411Q1099 1452 1143 1452Q1174 1452 1195 1432T1217 1386Q1217 1373 1206 1362L621 799L1212 135Q1226 118 1233 104T1241 76Q1241 45 1218 23T1157 0Q1133 0 1111 4T1066 20T1021
50T973 100L463 684L426 645V133Q426 61 396 31T299 0Q205 0 205 102V1350Q205 1407 226 1429T295 1452Q359 1452 392 1412T426 1294Z" />
<glyph unicode="L" glyph-name="L" horiz-adv-x="1169" d="M1010 383Q1098 383 1098 281V66Q1098 30 1068 15T975 0H299Q205 0 205 102V1350Q205 1407 226 1429T295 1452Q359 1452 392 1412T426 1294V109H891V250Q891 322 920 352T1010 383Z" />
<glyph unicode="M" glyph-name="M" horiz-adv-x="1796" d="M1506 0Q1443 0 1413 39T1383 158V1150H1369L949 76Q920 0 863 0Q835 0 812 19T775 76L381 1150H367V115Q367 82 359 60T339 25T312 6T283 0Q253 0 229 21T205 92V1343Q205 1370 216 1390T246 1424T288
1445T336 1452Q355 1452 377 1447T421 1431T461 1400T490 1353L884 267H894L1319 1343Q1331 1374 1349 1394T1390 1428T1436 1446T1485 1452Q1539 1452 1564 1426T1590 1343V103Q1590 46 1572 23T1506 0Z" />
<glyph unicode="N" glyph-name="N" horiz-adv-x="1522" d="M205 92V1341Q205 1393 240 1422T328 1452Q373 1452 408 1434T475 1366L1145 303H1155V1337Q1155 1397 1180 1424T1239 1452Q1272 1452 1294 1430T1317 1360V119Q1317 62 1283 31T1198 0Q1100 0 1049
82L379 1149H367V115Q367 55 342 28T283 0Q250 0 228 22T205 92Z" />
<glyph unicode="O" glyph-name="O" horiz-adv-x="1466" d="M1358 725Q1358 673 1351 600T1322 445T1259 285T1148 142T976 40T731 0Q587 0 485 40T314 144T204 289T142 450T115 603T109 725Q109 778 116 852T145 1008T208 1168T319 1311T489 1413T731 1452Q872
1452 973 1413T1145 1309T1257 1165T1321 1005T1351 850T1358 725ZM731 1348Q644 1348 582 1317T476 1236T406 1120T365 985T345 848T340 725Q340 678 344 614T361 480T399 344T468 223T576 137T731 104Q819 106 882 136T989 215T1060 327T1101 459T1121 596T1126
725Q1126 773 1123 838T1106 972T1068 1109T998 1229T889 1315T731 1348Z" />
<glyph unicode="P" glyph-name="P" horiz-adv-x="1264" d="M639 563H426V133Q426 61 396 31T299 0Q205 0 205 102V1350Q205 1407 226 1429T295 1452H637Q672 1452 716 1451T811 1443T915 1418T1023 1368Q1058 1347 1089 1316T1143 1244T1179 1149T1192 1028Q1192
930 1158 846T1055 698T882 599T639 563ZM637 1343H426V672H637Q791 672 876 758T961 1028Q961 1104 943 1163T886 1262T786 1322T637 1343Z" />
<glyph unicode="Q" glyph-name="Q" horiz-adv-x="1466" d="M1126 725Q1126 773 1123 838T1106 972T1068 1109T998 1229T889 1315T731 1348Q644 1348 582 1317T476 1236T406 1120T365 985T345 848T340 725Q340 678 344 614T361 480T399 344T468 223T576 137T731
104Q811 104 870 129L721 309Q707 325 702 339T696 365Q696 392 718 410T774 428Q846 428 899 360L1004 236Q1126 400 1126 725ZM1358 725Q1358 659 1348 578T1309 415T1232 255T1104 117L1235 -41Q1247 -56 1247 -72Q1247 -95 1222 -111T1159 -127Q1121 -128 1092
-112T1036 -66L952 33Q853 0 731 0Q587 0 485 40T314 144T204 289T142 450T115 603T109 725Q109 778 116 852T145 1008T208 1168T319 1311T489 1413T731 1452Q872 1452 973 1413T1145 1309T1257 1165T1321 1005T1351 850T1358 725Z" />
<glyph unicode="R" glyph-name="R" horiz-adv-x="1317" d="M205 102V1350Q205 1407 226 1429T295 1452H682Q788 1452 881 1435T1045 1374T1156 1253T1200 1057Q1200 983 1170 917T1089 799T975 713T842 668L1182 121Q1200 92 1200 68Q1200 37 1174 19T1096 0Q1002
0 956 78L612 653H426V133Q426 61 396 31T299 0Q205 0 205 102ZM662 1343H426V762H645Q701 762 759 778T863 831T939 926T969 1069Q969 1133 954 1178T915 1253T858 1302T791 1329T724 1340T662 1343Z" />
<glyph unicode="S" glyph-name="S" horiz-adv-x="1292" d="M987 1079Q926 1079 897 1108T868 1206V1311Q864 1312 856 1314T834 1321Q785 1335 733 1341T627 1348Q556 1348 505 1325T420 1266T370 1184T354 1094Q354 1041 366 1004T410 938T495 882T631 827Q683
808 715 797T774 775T826 754T892 727Q930 711 953 700T995 677T1029 654T1068 625Q1116 588 1142 533T1169 397Q1169 310 1131 237T1019 112T839 30T596 0Q537 0 466 9T329 34T214 67T147 105Q131 122 131 166V289Q131 387 219 387Q279 387 308 357T338 258V147Q468
104 588 104Q671 104 736 126T847 187T916 273T940 375Q940 429 917 469T841 545T705 615T504 691L423 724Q398 734 381 742T348 758T318 775T284 796Q243 821 214 850T166 914T138 990T125 1081Q125 1165 158 1233T255 1350T408 1425T612 1452Q784 1452 991 1393Q1016
1385 1032 1377T1057 1359T1071 1333T1075 1296V1178Q1075 1079 987 1079Z" />
<glyph unicode="T" glyph-name="T" horiz-adv-x="1331" d="M1083 1343H776V123Q776 53 746 27T649 0Q555 0 555 102V1343H248V1198Q248 1126 219 1096T129 1065Q41 1065 41 1167V1376Q41 1421 70 1436T164 1452H1167Q1231 1452 1260 1437T1290 1376V1167Q1290
1113 1269 1089T1202 1065Q1142 1065 1113 1095T1083 1198V1343Z" />
<glyph unicode="U" glyph-name="U" horiz-adv-x="1470" d="M412 1294V449Q412 366 437 300T508 188T622 118T774 94Q853 94 916 121T1025 196T1094 311T1118 457V1337Q1118 1397 1143 1424T1202 1452Q1235 1452 1257 1430T1280 1360V520Q1280 475 1273 417T1245
297T1187 177T1088 72T940 -3T733 -31Q610 -31 522 -4T374 67T278 169T222 287T196 407T190 514V1350Q190 1407 211 1429T281 1452Q345 1452 378 1412T412 1294Z" />
<glyph unicode="V" glyph-name="V" horiz-adv-x="1223" d="M643 231L1014 1343Q1025 1376 1037 1397T1064 1431T1095 1447T1130 1452Q1159 1452 1176 1436T1194 1397Q1194 1385 1192 1373T1184 1346L737 82Q707 0 608 0Q511 0 485 74L45 1331Q37 1355 37 1376Q37
1410 58 1431T125 1452Q230 1452 266 1343L631 231H643Z" />
<glyph unicode="W" glyph-name="W" horiz-adv-x="1739" d="M1249 231L1518 1343Q1528 1377 1540 1398T1566 1432T1597 1448T1632 1452Q1659 1452 1676 1436T1694 1397Q1694 1373 1683 1346L1341 82Q1319 0 1214 0Q1174 0 1139 18T1094 74L879 1059H874L637 82Q616
0 510 0Q468 0 434 18T389 74L61 1331Q53 1355 53 1376Q53 1409 74 1430T139 1452Q245 1452 279 1343L532 231H545L788 1323Q805 1392 829 1422T899 1452Q977 1452 1004 1329L1237 231H1249Z" />
<glyph unicode="X" glyph-name="X" horiz-adv-x="1206" d="M637 889L899 1343Q932 1401 963 1426T1030 1452Q1055 1452 1073 1439T1092 1403Q1092 1375 1069 1341L725 782L1128 123Q1136 109 1140 96T1145 66Q1145 39 1123 20T1065 0Q1035 0 1012 6T969 24T933
57T899 106L592 629H584L262 111Q242 77 224 56T190 22T157 5T123 0Q92 0 77 13T61 45Q61 71 84 111L494 750L143 1333Q129 1354 129 1382Q129 1410 152 1431T209 1452Q260 1452 299 1425T369 1343L625 889H637Z" />
<glyph unicode="Y" glyph-name="Y" horiz-adv-x="1120" d="M549 0Q453 0 453 102V549L49 1329Q37 1357 37 1380Q37 1411 57 1431T111 1452Q138 1452 160 1447T201 1430T236 1397T268 1346L594 702H602L909 1343Q961 1452 1034 1452Q1063 1452 1077 1433T1092 1384Q1092
1364 1081 1339L674 549V123Q674 52 645 26T549 0Z" />
<glyph unicode="Z" glyph-name="Z" horiz-adv-x="1212" d="M1008 0H174Q128 0 105 29T82 100Q82 149 98 174L883 1343H334V1229Q334 1157 305 1127T215 1096Q170 1096 149 1120T127 1198V1376Q127 1421 156 1436T250 1452H1022Q1067 1452 1090 1422T1114 1348Q1114
1302 1098 1278L295 109H924V223Q924 295 953 325T1042 356Q1087 356 1108 332T1130 254V76Q1130 31 1101 16T1008 0Z" />
<glyph unicode="[" glyph-name="bracketleft" horiz-adv-x="692" d="M164 -262V1393Q164 1495 258 1495H586Q602 1495 611 1474T621 1423Q621 1396 612 1375T586 1354H350V-223H586Q602 -223 611 -244T621 -295Q621 -323 612 -344T586 -365H258Q210 -365 187 -341T164
-262Z" />
<glyph unicode="\" glyph-name="backslash" horiz-adv-x="1372" d="M1163 -410L104 1452Q102 1458 102 1464Q102 1476 113 1489T139 1513T173 1531T205 1538Q225 1538 231 1526L1288 -346Q1290 -352 1290 -356Q1290 -367 1280 -378T1254 -399T1222 -415T1190 -422Q1172
-422 1163 -410Z" />
<glyph unicode="]" glyph-name="bracketright" horiz-adv-x="692" d="M528 1393V-262Q528 -316 505 -340T434 -365H106Q90 -365 81 -344T72 -295Q72 -265 81 -244T106 -223H342V1354H106Q90 1354 81 1375T72 1423Q72 1453 81 1474T106 1495H434Q482 1495 505 1471T528
1393Z" />
<glyph unicode="^" glyph-name="asciicircum" horiz-adv-x="1044" d="M522 1217L360 1028Q342 1007 307 995T233 983Q201 983 179 992T156 1014Q156 1019 162 1028L455 1374Q482 1409 520 1409Q556 1409 588 1374L881 1028Q887 1019 887 1014Q887 1000 864 991T809
981Q770 981 734 993T680 1028L522 1217Z" />
<glyph unicode="_" glyph-name="underscore" horiz-adv-x="1202" d="M1202 -446H0H-3Q-22 -446 -31 -421T-41 -365Q-41 -334 -32 -309T-3 -283H0H1202Q1222 -283 1232 -308T1242 -365Q1242 -398 1232 -422T1202 -446Z" />
<glyph unicode="`" glyph-name="grave" horiz-adv-x="1239" d="M494 1200L293 1466Q287 1472 287 1485Q287 1506 316 1520T397 1534Q437 1534 470 1521T514 1481L621 1225Q625 1218 625 1206Q625 1188 609 1178T569 1167Q519 1167 494 1200Z" />
<glyph unicode="a" glyph-name="a" horiz-adv-x="1118" d="M764 193L758 195Q691 93 604 47T397 0Q321 0 263 19T166 75T108 162T88 276Q88 342 110 406T191 522T349 604T604 635H754V692Q754 762 742 810T706 889T642 932T549 946Q447 946 369 860Q303 788 244
788Q209 788 191 808T172 858Q172 897 209 928T305 982T439 1016T590 1028Q701 1028 774 1005T890 936T951 821T969 657V96Q969 47 952 24T889 0Q822 0 793 45T764 193ZM756 549H637Q301 549 301 305Q301 137 479 137Q518 137 566 152T656 197T727 272T756 377V549Z"
/>
<glyph unicode="b" glyph-name="b" horiz-adv-x="1159" d="M377 1389V840H381Q485 1028 700 1028Q770 1028 833 1009T944 939T1021 798T1051 565Q1051 428 1018 323T921 146T768 37T563 0Q422 0 299 47Q267 59 242 73T200 109T174 158T164 225V1460Q164 1511 181
1533T246 1556Q315 1556 346 1518T377 1389ZM375 659V190Q375 168 388 149T425 114T484 91T563 82Q829 82 829 549Q829 657 813 724T768 828T701 878T618 891Q578 891 535 871T457 817T398 743T375 659Z" />
<glyph unicode="c" glyph-name="c" horiz-adv-x="1004" d="M864 258Q887 281 915 281Q933 281 948 269T963 238Q963 201 936 168Q799 0 565 0Q438 0 350 38T206 144T127 307T102 512Q102 654 139 752T243 912T397 1000T588 1028Q658 1028 722 1010T834 962T911
892T940 809Q940 791 933 776T913 751T886 735T854 729Q809 729 783 750T743 815Q732 845 719 869T687 910T643 937T584 946Q521 946 473 926T391 855T341 722T324 512Q324 407 338 328T383 196T465 117T588 90Q636 90 673 100T739 130T791 173T838 226L864 258Z"
/>
<glyph unicode="d" glyph-name="d" horiz-adv-x="1153" d="M590 1028Q689 1028 776 993V1389Q776 1479 807 1517T907 1556Q955 1556 972 1534T989 1460V96Q989 46 973 23T909 0Q784 0 784 213L778 215Q751 171 720 132T650 64T563 17T453 0Q387 0 324 23T212 101T132
245T102 469Q102 612 134 717T229 891T382 994T590 1028ZM324 485Q324 392 339 326T382 218T449 157T535 137Q577 137 620 161T698 222T755 306T778 397V825Q778 847 765 869T727 908T667 935T590 946Q530 946 481 926T397 853T343 711T324 485Z" />
<glyph unicode="e" glyph-name="e" horiz-adv-x="1075" d="M891 258Q900 269 913 275T942 281Q960 281 974 269T989 238Q989 200 963 168Q826 0 586 0Q466 0 375 33T224 130T133 284T102 489Q102 754 224 891T582 1028Q675 1028 750 1001T880 922T963 792T993
616Q993 516 877 516H326Q325 508 325 497T324 471Q324 383 341 313T393 193T481 117T608 90Q668 90 711 105T784 143T836 191T872 234L891 258ZM569 946Q470 946 408 863T332 602H715Q751 602 767 615T784 662Q784 731 767 784T720 873T651 927T569 946Z" />
<glyph unicode="f" glyph-name="f" horiz-adv-x="723" d="M49 954Q49 1006 113 1010H229Q233 1109 248 1181T286 1306T337 1394T395 1454Q519 1556 692 1556Q736 1556 773 1547T836 1522T878 1486T893 1444Q893 1411 872 1392T811 1372Q768 1372 719 1432Q701
1454 676 1464T621 1475Q587 1475 555 1462T497 1416T456 1327T440 1184V1010H668Q704 1010 721 997T739 965Q739 943 720 927T668 911H440V139Q440 95 433 68T411 26T370 6T309 0Q263 0 245 23T227 96V911H115Q49 911 49 954Z" />
<glyph unicode="g" glyph-name="g" horiz-adv-x="1163" d="M539 -369Q608 -369 666 -348T767 -293T834 -214T858 -123Q858 -69 829 -35T752 19T643 50T517 68T390 81T277 101Q199 121 153 161T106 262Q106 289 116 310T146 348T194 380T257 410Q294 426 319 438T358
461V467Q320 482 292 508T244 566T216 634T207 705Q207 793 242 854T334 954T466 1010T618 1028Q648 1028 683 1024T754 1012T820 992T874 965Q885 970 890 983T898 1015T905 1052T918 1088T946 1115T997 1126Q1026 1126 1047 1101T1069 1040Q1069 974 952 905Q1028
823 1028 717Q1028 648 995 591T906 494T776 431T621 408Q515 408 457 426Q434 409 413 397T376 372T350 346T340 311Q340 297 349 284T382 260T451 240T567 229Q693 223 787 200T944 138T1038 49T1069 -63Q1069 -147 1027 -218T909 -341T724 -422T483 -451Q399
-451 331 -432T215 -380T140 -300T113 -199Q113 -150 134 -112T183 -46T242 -5T293 10Q315 10 327 -2T340 -31Q340 -39 330 -51T306 -82T283 -126T272 -184Q272 -226 292 -260T349 -318T434 -356T539 -369ZM817 721Q817 771 804 812T765 883T702 929T618 946Q525
946 472 884T418 713Q418 662 431 621T470 551T533 505T618 489Q663 489 700 506T763 554T803 627T817 721Z" />
<glyph unicode="h" glyph-name="h" horiz-adv-x="1188" d="M377 1389V819H381Q409 865 446 903T527 969T624 1012T735 1028Q1024 1028 1024 719V96Q1024 47 1007 24T942 0Q873 0 842 38T811 168V680Q811 891 637 891Q598 891 553 871T468 817T403 736T377 635V145Q377
101 370 73T348 29T307 7T246 0Q198 0 181 23T164 96V1460Q164 1511 181 1533T246 1556Q315 1556 346 1518T377 1389Z" />
<glyph unicode="i" glyph-name="i" horiz-adv-x="561" d="M387 889V139Q387 95 380 68T358 26T317 6T256 0Q208 0 191 23T174 96V932Q174 981 191 1004T256 1028Q323 1028 355 995T387 889ZM187 1198Q150 1235 150 1288Q150 1313 160 1336T187 1377T227 1404T276
1415Q301 1415 324 1405T365 1377T392 1337T403 1288Q403 1262 393 1239T366 1199T325 1171T276 1161Q224 1161 187 1198Z" />
<glyph unicode="j" glyph-name="j" horiz-adv-x="561" d="M174 932Q174 981 191 1004T256 1028Q323 1028 355 995T387 889V248Q387 138 367 36T310 -153T223 -308T115 -416Q65 -451 27 -451Q1 -451 -17 -440T-35 -408Q-35 -389 -29 -376T-11 -352T20 -329T67 -299Q95
-282 115 -256T149 -186T168 -75T174 90V932ZM187 1198Q150 1235 150 1288Q150 1313 160 1336T187 1377T227 1404T276 1415Q301 1415 324 1405T365 1377T392 1337T403 1288Q403 1262 393 1239T366 1199T325 1171T276 1161Q224 1161 187 1198Z" />
<glyph unicode="k" glyph-name="k" horiz-adv-x="1051" d="M377 1389V571L718 884Q759 921 790 948T848 993T898 1019T948 1028Q1008 1028 1008 973Q1008 956 1001 943T978 916T936 885T872 843L803 799Q783 786 766 774T729 746T687 713T634 670L549 600Q570
575 607 532T688 438T778 332T865 230T934 149T973 104Q1010 60 1010 39Q1010 31 1007 24T994 12T964 3T911 0Q877 0 854 3T814 14T783 34T756 63Q759 59 739 83T685 149T609 241T527 343T452 435T399 498L377 473V145Q377 101 370 73T348 29T307 7T246 0Q198 0
181 23T164 96V1460Q164 1511 181 1533T246 1556Q315 1556 346 1518T377 1389Z" />
<glyph unicode="l" glyph-name="l" horiz-adv-x="561" d="M387 1389V139Q387 95 380 68T358 26T317 6T256 0Q208 0 191 23T174 96V1460Q174 1511 191 1533T256 1556Q325 1556 356 1518T387 1389Z" />
<glyph unicode="m" glyph-name="m" horiz-adv-x="1698" d="M1323 168V680Q1323 796 1286 843T1174 891Q1136 891 1097 869T1027 811T975 729T954 635V145Q954 101 947 73T925 28T885 6T825 0Q779 0 761 23T743 96V680Q743 796 706 843T594 891Q555 891 516 872T446
820T395 745T375 655V145Q375 101 368 73T346 29T307 6T246 0Q198 0 181 23T164 96V940Q164 989 184 1008T252 1028Q371 1028 371 852V838H375Q399 877 427 912T492 972T577 1013T692 1028Q912 1028 946 817H950Q978 862 1009 901T1079 968T1165 1012T1272 1028Q1534
1028 1534 719V96Q1534 47 1517 24T1452 0Q1383 0 1353 38T1323 168Z" />
<glyph unicode="n" glyph-name="n" horiz-adv-x="1188" d="M164 96V940Q164 989 184 1008T252 1028Q309 1028 341 984T373 852V838H377Q431 925 521 976T735 1028Q1024 1028 1024 719V96Q1024 47 1007 24T942 0Q873 0 842 38T811 168V680Q811 891 637 891Q592
891 546 872T463 821T401 745T377 655V145Q377 101 370 73T348 29T307 7T246 0Q198 0 181 23T164 96Z" />
<glyph unicode="o" glyph-name="o" horiz-adv-x="1143" d="M571 0Q460 0 373 32T225 128T134 289T102 514Q102 644 135 741T229 901T376 996T571 1028Q680 1028 767 997T915 901T1008 741T1040 514Q1040 385 1009 289T918 129T771 32T571 0ZM571 82Q626 82 671
100T750 167T801 299T819 514Q819 641 801 724T749 857T671 926T571 946Q519 946 474 927T396 858T343 725T324 514Q324 388 341 305T390 172T468 102T571 82Z" />
<glyph unicode="p" glyph-name="p" horiz-adv-x="1159" d="M164 -354V940Q164 1028 244 1028Q310 1028 341 987T373 852V836H375Q402 881 434 917T506 977T593 1015T700 1028Q1051 1028 1051 565Q1051 424 1018 319T921 142T768 36T563 0Q459 0 377 39V-305Q377
-349 370 -377T348 -422T307 -445T246 -451Q198 -451 181 -428T164 -354ZM829 549Q829 651 814 717T770 821T703 875T618 891Q576 891 533 870T455 816T398 739T375 651V207Q375 184 388 162T425 122T485 93T563 82Q623 82 672 105T756 182T810 326T829 549Z" />
<glyph unicode="q" glyph-name="q" horiz-adv-x="1153" d="M989 803V-344Q989 -395 972 -417T907 -440Q872 -440 847 -434T806 -413T783 -369T776 -295V188H772Q668 0 453 0Q102 0 102 463Q102 606 135 712T230 888T383 993T590 1028Q641 1028 694 1021T796 1001T886
967T953 919Q989 881 989 803ZM778 369V838Q778 860 765 879T728 914T669 937T590 946Q530 946 481 925T397 850T343 706T324 479Q324 377 339 311T383 207T450 153T535 137Q575 137 618 157T696 211T755 285T778 369Z" />
<glyph unicode="r" glyph-name="r" horiz-adv-x="809" d="M827 940Q827 860 748 860H680Q600 860 543 838T448 780T394 698T377 604V145Q377 101 370 73T348 29T307 7T246 0Q198 0 181 23T164 96V940Q164 989 184 1008T252 1028Q309 1028 341 984T373 852V801H377Q395
831 423 870T491 944T584 1004T707 1028H731Q782 1028 803 1007T827 940Z" />
<glyph unicode="s" glyph-name="s" horiz-adv-x="1012" d="M715 250Q710 312 675 350T563 420L446 463L367 490Q316 509 271 530T191 582T136 654T115 756Q115 814 135 857T188 930T262 980T345 1009T427 1024T494 1028Q584 1028 653 1013T771 971T843 911T868
840Q868 807 844 787T788 766Q749 766 722 784T678 840Q627 946 496 946Q415 946 367 906T318 785Q318 758 329 737T358 698T398 667T442 644L499 620L567 596Q595 586 622 578T675 559T727 537T779 508Q808 491 834 471T880 427T912 373T924 305Q924 237 893 181T806
84T672 22T500 0Q425 0 354 13T226 53T135 116T100 201Q100 217 107 231T125 255T150 270T180 276Q259 276 293 203Q303 182 317 161T356 122T415 93T504 82Q549 82 587 92T654 123T699 175T715 250Z" />
<glyph unicode="t" glyph-name="t" horiz-adv-x="872" d="M436 1174V1028H664Q700 1028 717 1015T735 983Q735 962 716 946T664 930H436V276Q436 228 446 193T472 135T511 101T559 90Q599 90 626 104T673 140T705 186T732 233T760 268T799 283Q823 283 837 270T852
233Q852 217 842 193T821 156Q769 78 695 39T535 0Q444 0 384 23T288 89T238 192T223 324V930H111Q75 930 60 940T45 973Q45 994 69 1007T131 1040T213 1096T296 1199Q310 1223 319 1239T338 1266T357 1281T381 1286Q416 1286 426 1262T436 1174Z" />
<glyph unicode="u" glyph-name="u" horiz-adv-x="1188" d="M377 860V348Q377 137 551 137Q596 137 642 156T725 207T787 282T811 373V881Q811 927 818 955T841 1000T882 1022T942 1028Q990 1028 1007 1005T1024 932V88Q1024 40 1004 20T936 0Q815 0 815 176V190H811Q757
103 666 52T453 0Q164 0 164 309V932Q164 981 181 1004T246 1028Q315 1028 346 990T377 860Z" />
<glyph unicode="v" glyph-name="v" horiz-adv-x="1049" d="M922 1028Q987 1028 987 981Q987 947 977 926L635 51Q615 0 516 0Q427 0 408 51L72 926Q61 950 61 973Q61 1028 137 1028Q191 1028 235 995T305 891L553 201H563L702 571Q748 694 807 901Q824 962 848
995T922 1028Z" />
<glyph unicode="w" glyph-name="w" horiz-adv-x="1573" d="M819 1028Q845 1028 862 1021T893 992T918 934T946 836L1112 201H1122L1217 477Q1233 523 1250 587T1283 714T1311 827T1329 897Q1338 925 1347 949T1370 990T1402 1018T1446 1028Q1511 1028 1511 981Q1511
947 1501 926L1194 51Q1176 0 1075 0Q986 0 967 51L791 690H778L561 51Q543 0 442 0Q353 0 334 51L72 926Q61 950 61 973Q61 1028 137 1028Q164 1028 190 1020T239 995T279 952T305 891L479 201H489L584 479Q600 525 617 586T656 727L702 895Q715 936 726 962T749
1002T778 1022T819 1028Z" />
<glyph unicode="x" glyph-name="x" horiz-adv-x="989" d="M98 102L397 500L137 899Q122 921 116 941T109 979Q109 1004 128 1016T174 1028Q236 1028 273 1004T342 926L520 629H528L733 961Q757 1000 782 1014T850 1028Q901 1028 901 989Q901 963 879 926L606 547L893
113Q918 72 918 53Q918 0 842 0Q808 0 785 6T743 24T711 54T680 98L481 408H477L246 59Q224 26 199 13T127 0Q72 0 72 41Q72 68 98 102Z" />
<glyph unicode="y" glyph-name="y" horiz-adv-x="1049" d="M977 926L623 16Q603 -34 580 -88T527 -194T464 -292T389 -374T303 -430T203 -451Q161 -451 133 -430T104 -377Q104 -285 215 -285Q272 -285 312 -269T381 -221T433 -138T477 -18L72 926Q67 937 64 948T61
973Q61 1028 137 1028Q188 1028 232 995T305 891L573 221H584L707 580Q723 626 747 705T803 899Q819 959 845 993T922 1028Q987 1028 987 981Q987 955 977 926Z" />
<glyph unicode="z" glyph-name="z" horiz-adv-x="971" d="M170 1028H834Q873 1028 891 1010T909 969Q909 942 901 920T879 879L289 96H707V145Q707 187 712 212T731 252T765 271T819 276Q862 276 878 256T895 190V63Q895 0 829 0H139Q97 0 79 17T61 59Q61 106
92 150L678 932H293V883Q293 843 288 818T270 778T235 758T180 752Q138 752 121 772T104 838V965Q104 1028 170 1028Z" />
<glyph unicode="{" glyph-name="braceleft" horiz-adv-x="827" d="M362 -4Q362 22 363 53T365 115T368 173T369 217Q369 260 360 312T331 410T278 487T197 518Q181 518 173 535T164 575Q164 599 172 616T197 633Q245 633 278 664T331 741T360 839T369 934Q369
951 368 978T366 1036T363 1098T362 1155Q362 1184 366 1222T382 1300T417 1378T475 1447T562 1497T684 1516Q714 1516 729 1502T745 1464Q745 1443 732 1426T694 1403Q555 1370 555 1223Q555 1217 555 1195T557 1143T560 1080T562 1018T564 969T565 946Q565 882
558 826T529 723T472 640T377 580V571Q434 548 470 513T528 431T557 328T565 205Q565 202 565 183T563 134T560 72T558 9T556 -43T555 -72Q555 -219 694 -252Q718 -258 731 -275T745 -313Q745 -336 730 -350T684 -365Q614 -365 563 -347T477 -298T419 -229T384
-150T367 -72T362 -4Z" />
<glyph unicode="|" glyph-name="bar" horiz-adv-x="537" d="M184 -72V1464Q184 1488 209 1502T268 1516Q301 1516 326 1502T352 1464V-72Q352 -96 327 -109T268 -123Q233 -123 209 -110T184 -72Z" />
<glyph unicode="}" glyph-name="braceright" horiz-adv-x="827" d="M465 -4Q465 -33 461 -71T444 -149T410 -227T352 -296T265 -346T143 -365Q113 -365 98 -351T82 -313Q82 -292 95 -275T133 -252Q272 -219 272 -72Q272 -66 272 -44T270 8T267 71T265 134T263
182T262 205Q262 272 270 329T300 432T358 513T451 571V580Q393 604 357 639T299 721T270 824T262 946Q262 949 262 969T264 1017T267 1079T269 1143T271 1195T272 1223Q272 1370 133 1403Q109 1409 96 1426T82 1464Q82 1487 97 1501T143 1516Q212 1516 263 1498T350
1449T408 1380T443 1301T460 1223T465 1155Q465 1129 464 1098T462 1036T460 978T459 934Q459 905 463 872T475 806T496 741T529 686T573 648T631 633Q647 633 655 616T664 575Q664 552 656 535T631 518Q599 518 574 504T530 466T498 411T476 347T463 280T459 217Q459
200 460 173T462 115T464 53T465 -4Z" />
<glyph unicode="~" glyph-name="asciitilde" horiz-adv-x="1497" d="M1153 850Q1177 903 1243 903Q1275 903 1294 888T1313 852Q1313 835 1307 819Q1271 728 1230 675T1145 593T1058 557T977 549Q904 549 837 574T712 629T606 684T522 709Q456 709 416 677T344
573Q339 561 329 552T306 536T279 526T252 522Q184 522 184 575Q184 589 193 621Q210 682 242 728T316 806T408 854T512 870Q566 870 617 855T717 819T808 775T888 736Q947 711 989 711Q1044 711 1081 743T1153 850Z" />
<glyph unicode="&#xa1;" glyph-name="exclamdown" horiz-adv-x="631" d="M209 104V991Q209 1007 218 1019T242 1039T278 1052T320 1056Q340 1056 359 1052T393 1041T417 1022T426 995V991V102Q426 0 324 0Q263 0 236 26T209 104ZM459 1311Q459 1282 448 1256T417
1211T371 1179T317 1167Q288 1167 262 1178T217 1209T186 1255T174 1311Q174 1339 186 1364T217 1409T263 1440T317 1452Q345 1452 371 1440T416 1409T447 1364T459 1311Z" />
<glyph unicode="&#xa2;" glyph-name="cent" horiz-adv-x="1085" d="M885 258Q894 269 907 275T936 281Q954 281 968 269T983 238Q983 218 976 202T956 168Q834 15 643 2V-178V-180Q643 -196 623 -203T578 -211Q551 -211 532 -203T512 -178V4Q409 14 336 54T215
159T145 314T123 512Q123 631 150 721T228 873T351 972T512 1022V1180Q512 1196 532 1203T578 1211Q604 1211 623 1204T643 1180V1026Q704 1023 761 1004T862 955T934 888T961 809Q961 791 954 776T934 751T906 735T874 729Q828 729 804 750T764 815Q748 860 721
895T643 942V92Q710 100 755 127T832 193L861 228L885 258ZM344 512Q344 340 383 239T512 104V932Q469 918 438 887T385 805T354 682T344 512Z" />
<glyph unicode="&#xa3;" glyph-name="sterling" horiz-adv-x="1085" d="M84 807H197V965Q197 1091 229 1183T320 1335T465 1423T657 1452Q676 1452 703 1450T762 1444T827 1433T889 1418T940 1398T974 1374Q991 1354 991 1309V1196Q991 1142 970 1118T903 1094Q843
1094 817 1124T791 1227V1331Q749 1339 716 1343T657 1348Q412 1348 412 1010V807H782Q802 807 813 790T825 750Q825 728 814 711T782 694H412V109H844V240Q844 312 873 342T963 373Q1008 373 1026 349T1044 270V66Q1044 30 1015 15T922 0H111Q72 0 72 53Q72 109
111 109H197V694H84Q64 694 53 711T41 750Q41 773 52 790T84 807Z" />
<glyph unicode="&#xa4;" glyph-name="currency" horiz-adv-x="1085" d="M811 1079L950 1219Q960 1229 975 1229Q989 1229 1005 1220T1035 1197T1058 1167T1067 1137Q1067 1122 1057 1112L920 975Q1006 850 1006 705Q1006 557 918 436L1055 299Q1065 289 1065 272Q1065
258 1057 243T1035 214T1006 191T975 182Q956 182 948 193L811 330Q678 242 543 242Q406 242 272 328L135 190Q125 180 111 180Q97 180 81 189T50 211T27 241T18 272Q18 286 29 297L166 434Q82 555 82 705Q82 847 166 975L31 1110Q20 1118 20 1137Q20 1151 29 1167T51
1196T81 1218T111 1227Q127 1227 137 1217L274 1079Q405 1165 543 1165Q680 1165 811 1079ZM543 1020Q479 1020 422 995T321 926T253 826T227 705Q227 640 252 583T320 482T421 413T543 387Q609 387 667 412T767 480T835 581T860 705Q860 769 835 826T766 926T665
994T543 1020Z" />
<glyph unicode="&#xa5;" glyph-name="yen" horiz-adv-x="1085" d="M152 430H434V549H152Q132 549 121 565T109 604Q109 628 120 645T152 662H379L49 1329Q37 1357 37 1380Q37 1411 57 1431T109 1452Q160 1452 194 1430T258 1346L569 702H578L874 1343Q923 1452
993 1452Q1021 1452 1035 1433T1049 1384Q1048 1373 1046 1362T1038 1339L702 662H936Q956 662 967 645T979 604Q979 582 968 566T936 549H647V430H936Q956 430 967 413T979 373Q979 351 968 334T936 317H647V123Q647 52 619 26T526 0Q434 0 434 102V317H152Q132
317 121 334T109 373Q109 396 120 413T152 430Z" />
<glyph unicode="&#xa6;" glyph-name="brokenbar" horiz-adv-x="537" d="M184 879V1464Q184 1488 209 1502T268 1516Q301 1516 326 1502T352 1464V879Q352 854 327 841T268 827Q233 827 209 840T184 879ZM184 -72V514Q184 538 209 551T268 565Q301 565 326 551T352
514V-72Q352 -96 327 -109T268 -123Q233 -123 209 -110T184 -72Z" />
<glyph unicode="&#xa7;" glyph-name="section" horiz-adv-x="1176" d="M311 8Q368 8 396 -21T424 -119V-225Q469 -238 549 -238Q583 -238 610 -226T657 -193T686 -143T696 -78Q696 -42 685 -10T655 50T611 103T557 147L444 225Q373 275 321 318T234 403T182 491T164
592Q164 637 174 677T209 757T273 840T369 934Q272 1028 272 1174Q272 1227 290 1277T350 1366T458 1428T621 1452Q669 1452 726 1447T832 1426T913 1384T946 1315V1200Q946 1148 927 1125T862 1102Q805 1102 779 1131T752 1229V1335Q707 1348 623 1348Q551 1348
515 1311T479 1202Q479 1116 540 1043L579 1000Q585 993 599 981T629 956T659 932T681 916L739 874Q801 829 851 791T937 713T992 629T1012 528Q1012 433 957 349T797 176Q814 157 832 136T865 87T889 26T899 -51Q899 -105 878 -157T813 -250T704 -317T549 -342Q502
-342 447 -337T343 -316T262 -274T229 -205V-90Q229 -38 248 -15T311 8ZM455 848Q332 755 332 629Q332 581 361 539T443 453T565 363T717 258Q846 370 846 467Q846 496 832 524T794 581T735 637T662 694L555 771Q524 793 500 812T455 848Z" />
<glyph unicode="&#xa8;" glyph-name="dieresis" horiz-adv-x="1118" d="M233 1286Q233 1311 243 1334T270 1374T310 1401T358 1411Q383 1411 405 1401T445 1374T473 1334T483 1286Q483 1261 473 1239T446 1199T406 1171T358 1161Q333 1161 311 1171T271 1198T243
1238T233 1286ZM635 1286Q635 1311 645 1333T672 1373T712 1401T760 1411Q785 1411 807 1401T847 1373T874 1334T885 1286Q885 1261 875 1239T847 1199T808 1171T760 1161Q734 1161 712 1171T672 1198T645 1238T635 1286Z" />
<glyph unicode="&#xa9;" glyph-name="copyright" horiz-adv-x="1720" d="M282 973Q233 854 233 727Q233 639 255 557T319 404T418 275T545 176T695 111T860 88Q949 88 1030 112T1180 179T1307 281T1404 412T1465 563T1487 727Q1487 814 1465 895T1401 1047T1303
1176T1176 1277T1026 1343T860 1366Q761 1366 672 1337T508 1255T376 1130T282 973ZM1071 879Q971 879 971 973V1047Q944 1055 918 1055Q711 1055 711 723Q711 403 911 403Q937 403 971 412T1036 434T1091 455T1120 465Q1142 465 1155 453T1169 424Q1169 407 1156
393T1120 366T1069 346T1010 331T951 322T897 319Q703 319 606 422T508 725Q508 838 538 916T621 1042T746 1111T903 1133Q943 1133 987 1128T1068 1112T1130 1083T1155 1038V956Q1155 879 1071 879ZM860 1473Q961 1473 1056 1448T1236 1375T1391 1261T1511 1112T1590
932T1618 727Q1618 627 1592 533T1518 356T1402 205T1250 87T1068 10T860 -18Q756 -18 660 8T479 82T325 197T207 348T130 527T102 727Q102 832 129 928T207 1107T326 1257T480 1373T660 1447T860 1473Z" />
<glyph unicode="&#xaa;" glyph-name="ordfeminine" horiz-adv-x="844" d="M657 713Q609 713 586 740T557 825Q463 713 309 713Q192 713 132 769T72 918Q72 1171 455 1171H551V1206Q551 1300 519 1340T416 1380Q364 1380 299 1321Q251 1270 199 1270Q131 1270 131
1323Q131 1352 158 1375T229 1416T329 1442T444 1452Q527 1452 582 1436T670 1386T717 1301T731 1182V788Q731 748 716 731T657 713ZM551 1098H479Q252 1098 252 934Q252 819 367 819Q395 819 427 830T487 863T533 916T551 985V1098Z" />
<glyph unicode="&#xab;" glyph-name="guillemotleft" horiz-adv-x="1130" d="M676 879L371 481L676 92Q686 79 686 66Q686 54 678 43T658 22T632 6T604 0Q583 0 573 12L160 440Q143 457 143 481Q143 505 160 522L573 958Q586 971 604 971Q617 971 631 966T658
951T678 930T686 905Q686 892 676 879ZM981 776L774 463L981 164Q987 155 987 145Q987 133 979 122T958 103T930 91T901 86Q886 86 881 94L590 418Q571 438 571 463Q571 488 590 510L881 846Q889 854 901 854Q914 854 929 850T957 837T978 818T987 795Q987 785
981 776Z" />
<glyph unicode="&#xac;" glyph-name="logicalnot" horiz-adv-x="1577" d="M162 805H1348Q1379 805 1396 784T1413 735V330Q1413 310 1388 300T1329 289Q1294 289 1270 299T1245 330V651H162Q143 651 133 673T123 727Q123 759 133 782T162 805Z" />
<glyph unicode="&#xad;" glyph-name="uni00AD" horiz-adv-x="895" d="M752 440H143H140Q121 440 112 465T102 522Q102 553 111 578T140 604H143H752Q772 604 782 579T792 522Q792 490 782 465T752 440Z" />
<glyph unicode="&#xae;" glyph-name="registered" horiz-adv-x="1720" d="M860 1473Q961 1473 1056 1448T1236 1375T1391 1261T1511 1112T1590 932T1618 727Q1618 627 1592 533T1518 356T1402 205T1250 87T1068 10T860 -18Q756 -18 660 8T479 82T325 197T207 348T130
527T102 727Q102 832 129 928T207 1107T326 1257T480 1373T660 1447T860 1473ZM282 973Q233 854 233 727Q233 639 255 557T319 404T418 275T545 176T695 111T860 88Q949 88 1030 112T1180 179T1307 281T1404 412T1465 563T1487 727Q1487 814 1465 895T1401 1047T1303
1176T1176 1277T1026 1343T860 1366Q761 1366 672 1337T508 1255T376 1130T282 973ZM571 385V1067Q571 1103 589 1118T653 1133H870Q1190 1133 1190 905Q1190 866 1174 830T1131 766T1068 718T993 690L1174 401Q1188 371 1188 362Q1188 319 1098 319Q1024 319 993
367L805 676H762V403Q762 357 737 338T657 319Q571 319 571 385ZM858 1055H762V756H850Q878 756 904 765T950 793T983 841T995 911Q995 1055 858 1055Z" />
<glyph unicode="&#xaf;" glyph-name="overscore" horiz-adv-x="1130" d="M823 1207H307Q287 1207 277 1227T266 1281Q266 1315 276 1339T307 1363H823Q842 1363 853 1339T864 1281Q864 1248 853 1228T823 1207Z" />
<glyph unicode="&#xb0;" glyph-name="degree" horiz-adv-x="680" d="M102 1245Q102 1295 121 1339T173 1415T249 1466T342 1485Q390 1485 433 1466T508 1415T559 1338T578 1245Q578 1198 560 1156T509 1081T434 1031T342 1012Q292 1012 249 1030T173 1081T121
1155T102 1245ZM215 1243Q215 1219 225 1198T252 1159T291 1132T340 1122Q365 1122 388 1132T428 1159T455 1197T465 1243Q465 1272 454 1296T424 1337T384 1364T340 1374Q316 1374 293 1364T253 1335T226 1293T215 1243Z" />
<glyph unicode="&#xb1;" glyph-name="plusminus" horiz-adv-x="1475" d="M655 805H225H222Q203 805 194 830T184 887Q184 918 193 943T222 969H225H655V1327Q655 1347 680 1357T737 1367Q769 1367 794 1357T819 1327V969H1249Q1269 969 1279 944T1289 887Q1289
855 1279 830T1249 805H819V446V443Q819 425 794 416T737 406Q706 406 681 415T655 443V446V805ZM1249 125H225H222Q203 125 194 150T184 207Q184 238 193 263T222 289H225H1249Q1269 289 1279 264T1289 207Q1289 175 1279 150T1249 125Z" />
<glyph unicode="&#xb2;" glyph-name="twosuperior" horiz-adv-x="737" d="M145 1190Q108 1190 92 1205T75 1256V1325Q75 1344 90 1361T129 1392T185 1418T247 1436T308 1448T358 1452Q421 1452 467 1436T544 1390T590 1323T606 1239Q606 1186 586 1131T518 1013T396
877T211 713H462V770Q462 815 482 833T546 852Q583 852 598 837T614 789V674Q614 650 592 641T522 631H114Q63 631 63 670Q63 693 102 729Q265 880 345 1003T426 1223Q426 1247 422 1274T405 1323T371 1361T315 1376Q278 1376 229 1352V1274Q229 1228 211 1209T145
1190Z" />
<glyph unicode="&#xb3;" glyph-name="threesuperior" horiz-adv-x="737" d="M155 889Q203 889 221 872T239 809V725Q284 705 337 705Q395 705 431 746T468 868Q468 911 459 940T431 986T387 1010T325 1018H290Q274 1018 262 1030T249 1059Q249 1074 261 1087T290
1100H325Q446 1100 446 1247Q446 1314 417 1345T339 1376Q294 1376 251 1356V1276Q251 1230 232 1211T167 1192Q130 1192 114 1207T98 1257V1327Q98 1356 127 1379T199 1418T288 1443T368 1452Q431 1452 478 1438T556 1396T604 1331T620 1247Q620 1212 609 1183T579
1131T533 1091T474 1067V1065Q644 1033 644 868Q644 814 623 771T564 696T472 648T352 631Q315 631 269 638T183 660T115 698T87 756V823Q87 858 102 873T155 889Z" />
<glyph unicode="&#xb4;" glyph-name="acute" horiz-adv-x="1239" d="M803 1466L602 1200Q576 1167 526 1167Q503 1167 487 1177T471 1206Q471 1218 475 1225L582 1481Q593 1507 625 1520T698 1534Q749 1534 779 1520T809 1485Q809 1472 803 1466Z" />
<glyph unicode="&#xb5;" glyph-name="mu" horiz-adv-x="1188" d="M1024 88Q1024 39 1004 20T936 0Q907 0 885 6T847 30T823 83T815 174H811Q771 83 708 42T560 0Q445 0 387 80H377V-305Q376 -355 367 -384T342 -428T301 -447T246 -451Q228 -451 214 -448T188 -434T171
-407T164 -361V932Q164 981 181 1004T246 1028Q315 1028 346 990T377 860V348Q384 254 436 207T588 159Q634 159 674 175T745 219T793 287T811 373V883Q811 928 818 956T841 1000T881 1022T942 1028Q990 1028 1007 1005T1024 932V88Z" />
<glyph unicode="&#xb6;" glyph-name="paragraph" horiz-adv-x="967" d="M528 1452V-328Q528 -362 457 -362Q428 -362 408 -354T387 -328V801Q300 805 235 833T127 905T63 1006T41 1126Q41 1187 62 1245T125 1350T233 1424T387 1452H528ZM803 1350V-328Q803 -362
731 -362Q702 -362 682 -354T662 -328V1452H709Q803 1452 803 1350Z" />
<glyph unicode="&#xb7;" glyph-name="middot" horiz-adv-x="677" d="M183 518Q183 553 195 582T228 633T277 667T339 679Q372 679 400 667T449 633T482 582T494 518Q494 485 483 457T450 407T401 373T339 360Q307 360 279 372T229 405T196 455T183 518Z" />
<glyph unicode="&#xb8;" glyph-name="cedilla" horiz-adv-x="1212" d="M606 20V-78Q813 -78 813 -229Q813 -270 796 -302T749 -358T677 -393T586 -406Q556 -406 524 -401T463 -384T417 -358T399 -322Q399 -306 411 -295T442 -283Q447 -283 463 -286T497 -294T534
-301T561 -305Q612 -305 634 -285T657 -236Q657 -210 648 -194T621 -169T572 -157T500 -154V20H606Z" />
<glyph unicode="&#xb9;" glyph-name="onesuperior" horiz-adv-x="737" d="M309 1337L215 1303Q201 1296 180 1296Q154 1296 139 1307T124 1333Q124 1343 134 1355T165 1376L327 1440Q358 1452 397 1452Q442 1452 460 1437T479 1386V713H554Q624 713 624 670Q624
652 613 642T565 631H225Q165 631 165 670Q165 713 235 713H309V1337Z" />
<glyph unicode="&#xba;" glyph-name="ordmasculine" horiz-adv-x="844" d="M72 1081Q72 1175 96 1245T165 1361T275 1429T422 1452Q504 1452 569 1430T679 1361T748 1245T772 1081Q772 897 681 805T422 713Q255 713 164 805T72 1081ZM422 784Q458 784 488 797T539
844T572 939T584 1093Q584 1182 571 1238T535 1325T483 1368T422 1380Q387 1380 358 1367T308 1320T274 1229T262 1081Q262 988 274 930T307 840T358 797T422 784Z" />
<glyph unicode="&#xbb;" glyph-name="guillemotright" horiz-adv-x="1130" d="M760 481L455 879Q444 895 444 905Q444 918 452 930T473 951T499 965T526 971Q545 971 557 958L971 522Q987 506 987 481Q987 456 971 440L557 12Q548 0 526 0Q513 0 499 5T472 20T452
41T444 66Q444 76 455 92L760 481ZM356 463L150 776Q143 783 143 795Q143 807 151 817T173 836T201 849T229 854Q242 854 250 846L541 510Q559 489 559 463Q559 439 541 418L250 94Q245 86 229 86Q216 86 201 90T173 103T152 121T143 145Q143 157 150 164L356 463Z"
/>
<glyph unicode="&#xbc;" glyph-name="onequarter" horiz-adv-x="1638" d="M351 29L1215 1485Q1219 1495 1240 1495Q1252 1495 1267 1490T1295 1476T1317 1458T1326 1438Q1326 1431 1323 1430L457 -31Q453 -41 435 -41Q422 -41 407 -36T379 -21T358 -2T349 18Q349
23 351 29ZM1149 83H1208V204H899Q842 204 842 239Q842 254 854 271L1194 775Q1226 822 1296 822Q1339 822 1357 807T1376 757V282H1427Q1469 282 1482 271T1495 239Q1495 223 1484 214T1436 204H1376V83H1419Q1489 83 1489 40Q1489 22 1478 12T1430 1H1137Q1073
1 1073 40Q1073 58 1091 70T1149 83ZM1208 282V628L981 282H1208ZM544 1337L450 1303Q436 1296 415 1296Q389 1296 374 1307T359 1333Q359 1343 369 1355T400 1376L562 1440Q593 1452 632 1452Q677 1452 695 1437T714 1386V713H789Q859 713 859 670Q859 652 848
642T800 631H460Q400 631 400 670Q400 713 470 713H544V1337Z" />
<glyph unicode="&#xbd;" glyph-name="onehalf" horiz-adv-x="1638" d="M331 29L1195 1485Q1199 1495 1220 1495Q1232 1495 1247 1490T1275 1476T1297 1458T1306 1438Q1306 1431 1303 1430L437 -31Q433 -41 415 -41Q402 -41 387 -36T359 -21T338 -2T329 18Q329
23 331 29ZM524 1337L430 1303Q416 1296 395 1296Q369 1296 354 1307T339 1333Q339 1343 349 1355T380 1376L542 1440Q573 1452 612 1452Q657 1452 675 1437T694 1386V713H769Q839 713 839 670Q839 652 828 642T780 631H440Q380 631 380 670Q380 713 450 713H524V1337ZM1067
560Q1030 560 1014 575T997 626V695Q997 714 1012 731T1051 762T1107 788T1169 806T1230 818T1280 822Q1343 822 1389 806T1466 760T1512 693T1528 609Q1528 556 1508 501T1440 383T1318 247T1133 83H1384V140Q1384 185 1404 203T1468 222Q1505 222 1520 207T1536
159V44Q1536 20 1514 11T1444 1H1036Q985 1 985 40Q985 63 1024 99Q1187 250 1267 373T1348 593Q1348 617 1344 644T1327 693T1293 731T1237 746Q1200 746 1151 722V644Q1151 598 1133 579T1067 560Z" />
<glyph unicode="&#xbe;" glyph-name="threequarters" horiz-adv-x="1638" d="M372 29L1236 1485Q1240 1495 1261 1495Q1273 1495 1288 1490T1316 1476T1338 1458T1347 1438Q1347 1431 1344 1430L478 -31Q474 -41 456 -41Q443 -41 428 -36T400 -21T379 -2T370 18Q370
23 372 29ZM1170 83H1229V204H920Q863 204 863 239Q863 254 875 271L1215 775Q1247 822 1317 822Q1360 822 1378 807T1397 757V282H1448Q1490 282 1503 271T1516 239Q1516 223 1505 214T1457 204H1397V83H1440Q1510 83 1510 40Q1510 22 1499 12T1451 1H1158Q1094
1 1094 40Q1094 58 1112 70T1170 83ZM1229 282V628L1002 282H1229ZM170 889Q218 889 236 872T254 809V725Q299 705 352 705Q410 705 446 746T483 868Q483 911 474 940T446 986T402 1010T340 1018H305Q289 1018 277 1030T264 1059Q264 1074 276 1087T305 1100H340Q461
1100 461 1247Q461 1314 432 1345T354 1376Q309 1376 266 1356V1276Q266 1230 247 1211T182 1192Q145 1192 129 1207T113 1257V1327Q113 1356 142 1379T214 1418T303 1443T383 1452Q446 1452 493 1438T571 1396T619 1331T635 1247Q635 1212 624 1183T594 1131T548
1091T489 1067V1065Q659 1033 659 868Q659 814 638 771T579 696T487 648T367 631Q330 631 284 638T198 660T130 698T102 756V823Q102 858 117 873T170 889Z" />
<glyph unicode="&#xbf;" glyph-name="questiondown" horiz-adv-x="963" d="M813 420Q901 420 901 317V199Q901 164 890 144T850 106Q765 52 676 26T492 0Q373 0 294 29T168 105T102 206T82 311Q82 389 108 447T173 553T254 640T330 721Q360 758 381 790T415 854T435
921T442 999Q442 1026 472 1041T541 1057Q578 1057 603 1043T629 999Q629 946 622 903T598 819T559 739T504 653Q473 608 439 573T377 499T331 416T313 305Q313 195 367 150T530 104Q606 104 705 147V287Q705 360 729 390T813 420ZM674 1311Q674 1282 663 1256T632
1211T586 1179T532 1167Q503 1167 477 1178T432 1209T401 1255T389 1311Q389 1339 401 1364T432 1409T478 1440T532 1452Q560 1452 586 1440T631 1409T662 1364T674 1311Z" />
<glyph unicode="&#xc0;" glyph-name="Agrave" horiz-adv-x="1382" d="M371 389L266 109Q241 44 210 22T141 0Q112 0 99 16T86 57Q86 78 96 106L578 1403Q587 1427 617 1439T690 1452Q735 1452 770 1438T815 1397L1284 98Q1288 81 1288 68Q1288 39 1269 20T1208
0Q1094 0 1055 109L946 389H371ZM915 496L668 1210H655L403 496H915ZM674 1602L457 1903Q451 1912 451 1923Q451 1945 481 1958T565 1972Q607 1972 641 1959T686 1919L803 1628Q807 1620 807 1608Q807 1590 791 1580T750 1569Q699 1569 674 1602Z" />
<glyph unicode="&#xc1;" glyph-name="Aacute" horiz-adv-x="1382" d="M371 389L266 109Q241 44 210 22T141 0Q112 0 99 16T86 57Q86 78 96 106L578 1403Q587 1427 617 1439T690 1452Q735 1452 770 1438T815 1397L1284 98Q1288 81 1288 68Q1288 39 1269 20T1208
0Q1094 0 1055 109L946 389H371ZM915 496L668 1210H655L403 496H915ZM1191 1903L974 1602Q947 1569 898 1569Q872 1569 856 1579T840 1608Q840 1620 844 1628L961 1919Q973 1945 1007 1958T1082 1972Q1136 1972 1166 1959T1197 1923Q1197 1912 1191 1903Z" />
<glyph unicode="&#xc2;" glyph-name="Acircumflex" horiz-adv-x="1382" d="M371 389L266 109Q241 44 210 22T141 0Q112 0 99 16T86 57Q86 78 96 106L578 1403Q587 1427 617 1439T690 1452Q735 1452 770 1438T815 1397L1284 98Q1288 81 1288 68Q1288 39 1269 20T1208
0Q1094 0 1055 109L946 389H371ZM915 496L668 1210H655L403 496H915ZM793 1628L686 1735L580 1628Q550 1597 518 1582T447 1567Q414 1567 392 1579T369 1610Q369 1620 377 1628L586 1845Q604 1864 628 1873T686 1882Q720 1882 744 1873T787 1845L996 1628Q1004
1620 1004 1610Q1004 1592 982 1580T926 1567Q851 1567 793 1628Z" />
<glyph unicode="&#xc3;" glyph-name="Atilde" horiz-adv-x="1382" d="M371 389L266 109Q241 44 210 22T141 0Q112 0 99 16T86 57Q86 78 96 106L578 1403Q587 1427 617 1439T690 1452Q735 1452 770 1438T815 1397L1284 98Q1288 81 1288 68Q1288 39 1269 20T1208
0Q1094 0 1055 109L946 389H371ZM915 496L668 1210H655L403 496H915ZM830 1698Q804 1698 789 1689T767 1666T754 1640T736 1618T701 1608Q667 1608 655 1619T642 1651Q642 1717 701 1784T855 1851Q917 1845 990 1819Q998 1816 1016 1808T1044 1797T1067 1789T1094
1782T1121 1780Q1165 1780 1184 1817Q1185 1819 1193 1833T1206 1851T1224 1862T1254 1868Q1277 1868 1289 1857T1301 1827Q1301 1796 1285 1769Q1252 1694 1205 1660T1104 1626Q1054 1626 957 1663Q869 1698 830 1698Z" />
<glyph unicode="&#xc4;" glyph-name="Adieresis" horiz-adv-x="1382" d="M371 389L266 109Q241 44 210 22T141 0Q112 0 99 16T86 57Q86 78 96 106L578 1403Q587 1427 617 1439T690 1452Q735 1452 770 1438T815 1397L1284 98Q1288 81 1288 68Q1288 39 1269 20T1208
0Q1094 0 1055 109L946 389H371ZM915 496L668 1210H655L403 496H915ZM758 1743Q758 1801 799 1842T897 1884T996 1843T1039 1743Q1039 1689 996 1647T897 1604T800 1646T758 1743ZM334 1745Q334 1801 376 1843T471 1886Q529 1886 572 1844T615 1745Q615 1690 572
1648T471 1606Q419 1606 377 1648T334 1745Z" />
<glyph unicode="&#xc5;" glyph-name="Aring" horiz-adv-x="1382" d="M371 389L266 109Q241 44 210 22T141 0Q112 0 99 16T86 57Q86 78 96 106L578 1403Q587 1427 617 1439T690 1452Q735 1452 770 1438T815 1397L1284 98Q1288 81 1288 68Q1288 39 1269 20T1208
0Q1094 0 1055 109L946 389H371ZM915 496L668 1210H655L403 496H915ZM795 1604Q730 1669 730 1763T795 1923T955 1989T1114 1923T1179 1763T1114 1605T955 1540T795 1604ZM851 1763Q851 1723 882 1692T955 1661Q995 1661 1026 1692T1058 1763Q1058 1805 1027 1836T955
1868T883 1837T851 1763Z" />
<glyph unicode="&#xc6;" glyph-name="AE" horiz-adv-x="1888" d="M1688 1096Q1627 1096 1598 1126T1569 1229V1343H1104V807H1513Q1541 807 1556 790T1571 750Q1571 740 1566 730T1553 712T1535 699T1513 694H1104V109H1599V223Q1599 295 1628 325T1718 356Q1763
356 1784 332T1806 254V76Q1806 31 1777 16T1683 0H977Q929 0 906 24T883 102V389H395L223 82Q196 34 166 17T98 0Q72 2 57 13T41 47Q41 72 61 106L825 1403Q839 1426 871 1439T946 1452H1653Q1717 1452 1746 1437T1776 1376V1198Q1776 1144 1755 1120T1688 1096ZM883
496V1208H870L449 496H883Z" />
<glyph unicode="&#xc7;" glyph-name="Ccedilla" horiz-adv-x="1190" d="M1030 1083Q970 1083 941 1114T911 1217V1331Q829 1348 762 1348Q665 1348 587 1307T454 1186T370 986T340 709Q340 536 369 420T455 234T592 135T776 106Q839 105 905 121T1044 166L1083
182Q1095 186 1100 186Q1120 186 1134 167T1149 125Q1149 94 1122 84L1087 70Q1007 38 927 20T766 0V-86Q812 -86 851 -94T920 -122T966 -171T983 -246Q983 -288 965 -322T915 -380T838 -417T743 -430Q713 -430 679 -424T616 -407T568 -379T549 -342Q549 -326 561
-314T594 -301Q598 -301 614 -305T651 -313T690 -322T719 -326Q770 -326 794 -304T819 -252Q819 -225 810 -208T781 -182T730 -170T653 -166V2Q109 41 109 713Q109 903 156 1042T288 1273T486 1408T735 1452Q786 1452 843 1447T953 1432T1045 1408T1101 1374Q1118
1354 1118 1309V1186Q1118 1132 1097 1108T1030 1083Z" />
<glyph unicode="&#xc8;" glyph-name="Egrave" horiz-adv-x="1231" d="M1030 1096Q969 1096 940 1126T911 1229V1343H426V807H856Q883 807 898 790T913 750Q913 740 908 730T895 712T877 699T856 694H426V109H942V223Q942 295 971 325T1061 356Q1106 356 1127 332T1149
254V76Q1149 31 1120 16T1026 0H299Q205 0 205 102V1350Q205 1452 299 1452H995Q1059 1452 1088 1437T1118 1376V1198Q1118 1144 1097 1120T1030 1096ZM861 1602L644 1903Q638 1912 638 1923Q638 1945 668 1958T752 1972Q794 1972 828 1959T873 1919L990 1628Q994
1620 994 1608Q994 1590 978 1580T937 1569Q886 1569 861 1602Z" />
<glyph unicode="&#xc9;" glyph-name="Eacute" horiz-adv-x="1231" d="M1030 1096Q969 1096 940 1126T911 1229V1343H426V807H856Q883 807 898 790T913 750Q913 740 908 730T895 712T877 699T856 694H426V109H942V223Q942 295 971 325T1061 356Q1106 356 1127 332T1149
254V76Q1149 31 1120 16T1026 0H299Q205 0 205 102V1350Q205 1452 299 1452H995Q1059 1452 1088 1437T1118 1376V1198Q1118 1144 1097 1120T1030 1096ZM1171 1903L954 1602Q927 1569 878 1569Q852 1569 836 1579T820 1608Q820 1620 824 1628L941 1919Q953 1945
987 1958T1062 1972Q1116 1972 1146 1959T1177 1923Q1177 1912 1171 1903Z" />
<glyph unicode="&#xca;" glyph-name="Ecircumflex" horiz-adv-x="1231" d="M1030 1096Q969 1096 940 1126T911 1229V1343H426V807H856Q883 807 898 790T913 750Q913 740 908 730T895 712T877 699T856 694H426V109H942V223Q942 295 971 325T1061 356Q1106 356 1127
332T1149 254V76Q1149 31 1120 16T1026 0H299Q205 0 205 102V1350Q205 1452 299 1452H995Q1059 1452 1088 1437T1118 1376V1198Q1118 1144 1097 1120T1030 1096ZM750 1628L643 1735L537 1628Q507 1597 475 1582T404 1567Q371 1567 349 1579T326 1610Q326 1620 334
1628L543 1845Q561 1864 585 1873T643 1882Q677 1882 701 1873T744 1845L953 1628Q961 1620 961 1610Q961 1592 939 1580T883 1567Q808 1567 750 1628Z" />
<glyph unicode="&#xcb;" glyph-name="Edieresis" horiz-adv-x="1231" d="M1030 1096Q969 1096 940 1126T911 1229V1343H426V807H856Q883 807 898 790T913 750Q913 740 908 730T895 712T877 699T856 694H426V109H942V223Q942 295 971 325T1061 356Q1106 356 1127
332T1149 254V76Q1149 31 1120 16T1026 0H299Q205 0 205 102V1350Q205 1452 299 1452H995Q1059 1452 1088 1437T1118 1376V1198Q1118 1144 1097 1120T1030 1096ZM723 1743Q723 1801 764 1842T862 1884T961 1843T1004 1743Q1004 1689 961 1647T862 1604T765 1646T723
1743ZM299 1745Q299 1801 341 1843T436 1886Q494 1886 537 1844T580 1745Q580 1690 537 1648T436 1606Q384 1606 342 1648T299 1745Z" />
<glyph unicode="&#xcc;" glyph-name="Igrave" horiz-adv-x="836" d="M733 0H102Q41 0 41 49Q41 77 58 93T123 109H307V1343H123Q75 1343 58 1359T41 1403Q41 1452 102 1452H733Q795 1452 795 1403Q795 1343 713 1343H528V109H713Q795 109 795 49Q795 0 733 0ZM364
1602L147 1903Q141 1912 141 1923Q141 1945 171 1958T255 1972Q297 1972 331 1959T376 1919L493 1628Q497 1620 497 1608Q497 1590 481 1580T440 1569Q389 1569 364 1602Z" />
<glyph unicode="&#xcd;" glyph-name="Iacute" horiz-adv-x="836" d="M733 0H102Q41 0 41 49Q41 77 58 93T123 109H307V1343H123Q75 1343 58 1359T41 1403Q41 1452 102 1452H733Q795 1452 795 1403Q795 1343 713 1343H528V109H713Q795 109 795 49Q795 0 733 0ZM704
1903L487 1602Q460 1569 411 1569Q385 1569 369 1579T353 1608Q353 1620 357 1628L474 1919Q486 1945 520 1958T595 1972Q649 1972 679 1959T710 1923Q710 1912 704 1903Z" />
<glyph unicode="&#xce;" glyph-name="Icircumflex" horiz-adv-x="836" d="M733 0H102Q41 0 41 49Q41 77 58 93T123 109H307V1343H123Q75 1343 58 1359T41 1403Q41 1452 102 1452H733Q795 1452 795 1403Q795 1343 713 1343H528V109H713Q795 109 795 49Q795 0 733
0ZM525 1628L418 1735L312 1628Q282 1597 250 1582T179 1567Q146 1567 124 1579T101 1610Q101 1620 109 1628L318 1845Q336 1864 360 1873T418 1882Q452 1882 476 1873T519 1845L728 1628Q736 1620 736 1610Q736 1592 714 1580T658 1567Q583 1567 525 1628Z" />
<glyph unicode="&#xcf;" glyph-name="Idieresis" horiz-adv-x="836" d="M733 0H102Q41 0 41 49Q41 77 58 93T123 109H307V1343H123Q75 1343 58 1359T41 1403Q41 1452 102 1452H733Q795 1452 795 1403Q795 1343 713 1343H528V109H713Q795 109 795 49Q795 0 733
0ZM493 1743Q493 1801 534 1842T632 1884T731 1843T774 1743Q774 1689 731 1647T632 1604T535 1646T493 1743ZM69 1745Q69 1801 111 1843T206 1886Q264 1886 307 1844T350 1745Q350 1690 307 1648T206 1606Q154 1606 112 1648T69 1745Z" />
<glyph unicode="&#xd0;" glyph-name="Eth" horiz-adv-x="1419" d="M74 807H205V1350Q205 1452 299 1452H592Q1311 1452 1311 733Q1310 591 1278 482T1192 291T1067 154T918 64T758 15T602 0H299Q205 0 205 102V694H74Q54 694 43 711T31 750Q31 773 42 790T74 807ZM567
1343H426V807H772Q792 807 803 790T815 750Q815 728 804 711T772 694H426V109H471V111H567Q673 111 766 146T929 256T1039 449T1079 733Q1079 899 1040 1015T932 1204T770 1310T567 1343Z" />
<glyph unicode="&#xd1;" glyph-name="Ntilde" horiz-adv-x="1522" d="M205 92V1341Q205 1393 240 1422T328 1452Q373 1452 408 1434T475 1366L1145 303H1155V1337Q1155 1397 1180 1424T1239 1452Q1272 1452 1294 1430T1317 1360V119Q1317 62 1283 31T1198 0Q1100
0 1049 82L379 1149H367V115Q367 55 342 28T283 0Q250 0 228 22T205 92ZM637 1698Q611 1698 596 1689T574 1666T561 1640T543 1618T508 1608Q474 1608 462 1619T449 1651Q449 1717 508 1784T662 1851Q724 1845 797 1819Q805 1816 823 1808T851 1797T874 1789T901
1782T928 1780Q972 1780 991 1817Q992 1819 1000 1833T1013 1851T1031 1862T1061 1868Q1084 1868 1096 1857T1108 1827Q1108 1796 1092 1769Q1059 1694 1012 1660T911 1626Q861 1626 764 1663Q676 1698 637 1698Z" />
<glyph unicode="&#xd2;" glyph-name="Ograve" horiz-adv-x="1466" d="M1358 725Q1358 673 1351 600T1322 445T1259 285T1148 142T976 40T731 0Q587 0 485 40T314 144T204 289T142 450T115 603T109 725Q109 778 116 852T145 1008T208 1168T319 1311T489 1413T731
1452Q872 1452 973 1413T1145 1309T1257 1165T1321 1005T1351 850T1358 725ZM731 1348Q644 1348 582 1317T476 1236T406 1120T365 985T345 848T340 725Q340 678 344 614T361 480T399 344T468 223T576 137T731 104Q819 106 882 136T989 215T1060 327T1101 459T1121
596T1126 725Q1126 773 1123 838T1106 972T1068 1109T998 1229T889 1315T731 1348ZM674 1602L457 1903Q451 1912 451 1923Q451 1945 481 1958T565 1972Q607 1972 641 1959T686 1919L803 1628Q807 1620 807 1608Q807 1590 791 1580T750 1569Q699 1569 674 1602Z"
/>
<glyph unicode="&#xd3;" glyph-name="Oacute" horiz-adv-x="1466" d="M1358 725Q1358 673 1351 600T1322 445T1259 285T1148 142T976 40T731 0Q587 0 485 40T314 144T204 289T142 450T115 603T109 725Q109 778 116 852T145 1008T208 1168T319 1311T489 1413T731
1452Q872 1452 973 1413T1145 1309T1257 1165T1321 1005T1351 850T1358 725ZM731 1348Q644 1348 582 1317T476 1236T406 1120T365 985T345 848T340 725Q340 678 344 614T361 480T399 344T468 223T576 137T731 104Q819 106 882 136T989 215T1060 327T1101 459T1121
596T1126 725Q1126 773 1123 838T1106 972T1068 1109T998 1229T889 1315T731 1348ZM996 1903L779 1602Q752 1569 703 1569Q677 1569 661 1579T645 1608Q645 1620 649 1628L766 1919Q778 1945 812 1958T887 1972Q941 1972 971 1959T1002 1923Q1002 1912 996 1903Z"
/>
<glyph unicode="&#xd4;" glyph-name="Ocircumflex" horiz-adv-x="1466" d="M1358 725Q1358 673 1351 600T1322 445T1259 285T1148 142T976 40T731 0Q587 0 485 40T314 144T204 289T142 450T115 603T109 725Q109 778 116 852T145 1008T208 1168T319 1311T489 1413T731
1452Q872 1452 973 1413T1145 1309T1257 1165T1321 1005T1351 850T1358 725ZM731 1348Q644 1348 582 1317T476 1236T406 1120T365 985T345 848T340 725Q340 678 344 614T361 480T399 344T468 223T576 137T731 104Q819 106 882 136T989 215T1060 327T1101 459T1121
596T1126 725Q1126 773 1123 838T1106 972T1068 1109T998 1229T889 1315T731 1348ZM840 1628L733 1735L627 1628Q597 1597 565 1582T494 1567Q461 1567 439 1579T416 1610Q416 1620 424 1628L633 1845Q651 1864 675 1873T733 1882Q767 1882 791 1873T834 1845L1043
1628Q1051 1620 1051 1610Q1051 1592 1029 1580T973 1567Q898 1567 840 1628Z" />
<glyph unicode="&#xd5;" glyph-name="Otilde" horiz-adv-x="1466" d="M1358 725Q1358 673 1351 600T1322 445T1259 285T1148 142T976 40T731 0Q587 0 485 40T314 144T204 289T142 450T115 603T109 725Q109 778 116 852T145 1008T208 1168T319 1311T489 1413T731
1452Q872 1452 973 1413T1145 1309T1257 1165T1321 1005T1351 850T1358 725ZM731 1348Q644 1348 582 1317T476 1236T406 1120T365 985T345 848T340 725Q340 678 344 614T361 480T399 344T468 223T576 137T731 104Q819 106 882 136T989 215T1060 327T1101 459T1121
596T1126 725Q1126 773 1123 838T1106 972T1068 1109T998 1229T889 1315T731 1348ZM851 1698Q825 1698 810 1689T788 1666T775 1640T757 1618T722 1608Q688 1608 676 1619T663 1651Q663 1717 722 1784T876 1851Q938 1845 1011 1819Q1019 1816 1037 1808T1065 1797T1088
1789T1115 1782T1142 1780Q1186 1780 1205 1817Q1206 1819 1214 1833T1227 1851T1245 1862T1275 1868Q1298 1868 1310 1857T1322 1827Q1322 1796 1306 1769Q1273 1694 1226 1660T1125 1626Q1075 1626 978 1663Q890 1698 851 1698Z" />
<glyph unicode="&#xd6;" glyph-name="Odieresis" horiz-adv-x="1466" d="M1358 725Q1358 673 1351 600T1322 445T1259 285T1148 142T976 40T731 0Q587 0 485 40T314 144T204 289T142 450T115 603T109 725Q109 778 116 852T145 1008T208 1168T319 1311T489 1413T731
1452Q872 1452 973 1413T1145 1309T1257 1165T1321 1005T1351 850T1358 725ZM731 1348Q644 1348 582 1317T476 1236T406 1120T365 985T345 848T340 725Q340 678 344 614T361 480T399 344T468 223T576 137T731 104Q819 106 882 136T989 215T1060 327T1101 459T1121
596T1126 725Q1126 773 1123 838T1106 972T1068 1109T998 1229T889 1315T731 1348ZM805 1743Q805 1801 846 1842T944 1884T1043 1843T1086 1743Q1086 1689 1043 1647T944 1604T847 1646T805 1743ZM381 1745Q381 1801 423 1843T518 1886Q576 1886 619 1844T662 1745Q662
1690 619 1648T518 1606Q466 1606 424 1648T381 1745Z" />
<glyph unicode="&#xd7;" glyph-name="multiply" horiz-adv-x="1468" d="M618 715L315 1018Q307 1026 307 1038Q307 1053 318 1071T344 1105T378 1132T412 1143Q424 1143 432 1135L735 831L1038 1135Q1047 1141 1059 1141Q1074 1141 1092 1131T1125 1104T1151 1071T1161
1038Q1161 1027 1155 1018L852 715L1155 412Q1161 403 1161 391Q1161 376 1151 358T1126 324T1092 298T1059 287Q1046 287 1038 295L735 598L432 295Q424 287 412 287Q397 287 379 297T344 324T318 358T307 391Q307 404 315 412L618 715Z" />
<glyph unicode="&#xd8;" glyph-name="Oslash" horiz-adv-x="1466" d="M1264 1524L1143 1311Q1209 1251 1251 1174T1316 1017T1349 861T1358 725Q1358 673 1351 600T1322 445T1259 285T1148 142T976 40T731 0Q557 0 428 66L309 -143Q300 -156 283 -156Q269 -156
254 -150T227 -135T206 -115T197 -92Q197 -88 199 -82L322 137Q256 195 214 271T149 427T118 585T109 725Q109 778 116 852T145 1008T208 1168T319 1311T489 1413T731 1452Q903 1452 1032 1386L1151 1595Q1157 1608 1176 1608Q1189 1608 1205 1601T1234 1584T1257
1560T1266 1536Q1266 1530 1264 1524ZM1126 725Q1126 991 1049 1147L500 188Q591 104 731 104Q819 106 882 136T989 215T1060 327T1101 459T1121 596T1126 725ZM340 725Q340 457 418 303L963 1264Q867 1348 731 1348Q644 1348 582 1317T476 1236T406 1120T365 985T345
848T340 725Z" />
<glyph unicode="&#xd9;" glyph-name="Ugrave" horiz-adv-x="1470" d="M412 1294V449Q412 366 437 300T508 188T622 118T774 94Q853 94 916 121T1025 196T1094 311T1118 457V1337Q1118 1397 1143 1424T1202 1452Q1235 1452 1257 1430T1280 1360V520Q1280 475 1273
417T1245 297T1187 177T1088 72T940 -3T733 -31Q610 -31 522 -4T374 67T278 169T222 287T196 407T190 514V1350Q190 1407 211 1429T281 1452Q345 1452 378 1412T412 1294ZM688 1602L471 1903Q465 1912 465 1923Q465 1945 495 1958T579 1972Q621 1972 655 1959T700
1919L817 1628Q821 1620 821 1608Q821 1590 805 1580T764 1569Q713 1569 688 1602Z" />
<glyph unicode="&#xda;" glyph-name="Uacute" horiz-adv-x="1470" d="M412 1294V449Q412 366 437 300T508 188T622 118T774 94Q853 94 916 121T1025 196T1094 311T1118 457V1337Q1118 1397 1143 1424T1202 1452Q1235 1452 1257 1430T1280 1360V520Q1280 475 1273
417T1245 297T1187 177T1088 72T940 -3T733 -31Q610 -31 522 -4T374 67T278 169T222 287T196 407T190 514V1350Q190 1407 211 1429T281 1452Q345 1452 378 1412T412 1294ZM1000 1903L783 1602Q756 1569 707 1569Q681 1569 665 1579T649 1608Q649 1620 653 1628L770
1919Q782 1945 816 1958T891 1972Q945 1972 975 1959T1006 1923Q1006 1912 1000 1903Z" />
<glyph unicode="&#xdb;" glyph-name="Ucircumflex" horiz-adv-x="1470" d="M412 1294V449Q412 366 437 300T508 188T622 118T774 94Q853 94 916 121T1025 196T1094 311T1118 457V1337Q1118 1397 1143 1424T1202 1452Q1235 1452 1257 1430T1280 1360V520Q1280 475
1273 417T1245 297T1187 177T1088 72T940 -3T733 -31Q610 -31 522 -4T374 67T278 169T222 287T196 407T190 514V1350Q190 1407 211 1429T281 1452Q345 1452 378 1412T412 1294ZM842 1628L735 1735L629 1628Q599 1597 567 1582T496 1567Q463 1567 441 1579T418 1610Q418
1620 426 1628L635 1845Q653 1864 677 1873T735 1882Q769 1882 793 1873T836 1845L1045 1628Q1053 1620 1053 1610Q1053 1592 1031 1580T975 1567Q900 1567 842 1628Z" />
<glyph unicode="&#xdc;" glyph-name="Udieresis" horiz-adv-x="1470" d="M412 1294V449Q412 366 437 300T508 188T622 118T774 94Q853 94 916 121T1025 196T1094 311T1118 457V1337Q1118 1397 1143 1424T1202 1452Q1235 1452 1257 1430T1280 1360V520Q1280 475
1273 417T1245 297T1187 177T1088 72T940 -3T733 -31Q610 -31 522 -4T374 67T278 169T222 287T196 407T190 514V1350Q190 1407 211 1429T281 1452Q345 1452 378 1412T412 1294ZM817 1743Q817 1801 858 1842T956 1884T1055 1843T1098 1743Q1098 1689 1055 1647T956
1604T859 1646T817 1743ZM393 1745Q393 1801 435 1843T530 1886Q588 1886 631 1844T674 1745Q674 1690 631 1648T530 1606Q478 1606 436 1648T393 1745Z" />
<glyph unicode="&#xdd;" glyph-name="Yacute" horiz-adv-x="1120" d="M549 0Q453 0 453 102V549L49 1329Q37 1357 37 1380Q37 1411 57 1431T111 1452Q138 1452 160 1447T201 1430T236 1397T268 1346L594 702H602L909 1343Q961 1452 1034 1452Q1063 1452 1077 1433T1092
1384Q1092 1364 1081 1339L674 549V123Q674 52 645 26T549 0ZM1120 1903L903 1602Q876 1569 827 1569Q801 1569 785 1579T769 1608Q769 1620 773 1628L890 1919Q902 1945 936 1958T1011 1972Q1065 1972 1095 1959T1126 1923Q1126 1912 1120 1903Z" />
<glyph unicode="&#xde;" glyph-name="Thorn" horiz-adv-x="1274" d="M426 1294V1180H627Q671 1180 729 1177T848 1160T970 1119T1077 1045T1153 927T1182 756Q1182 658 1148 574T1045 426T872 327T629 291H426V133Q426 61 396 31T299 0Q205 0 205 102V1350Q205
1407 226 1429T295 1452Q359 1452 392 1412T426 1294ZM627 1071H426V399H627Q780 399 865 486T950 756Q950 831 933 889T877 988T777 1050T627 1071Z" />
<glyph unicode="&#xdf;" glyph-name="germandbls" horiz-adv-x="1167" d="M164 96V1059Q164 1115 169 1174T190 1288T235 1392T311 1477T427 1535T590 1556Q681 1556 756 1532T884 1462T966 1348T995 1192Q995 1135 982 1084T942 991T878 918T788 870V862Q851
853 902 822T990 740T1045 623T1065 473Q1065 342 1031 252T941 106T815 25T674 0Q644 0 615 1T561 9T520 30T502 68Q502 84 511 94T537 104Q544 104 558 102T588 98T619 94T643 92Q684 92 721 112T787 177T833 294T850 471Q850 561 832 623T780 723T696 779T582
797H524Q507 797 498 812T489 846Q489 865 498 881T526 897H582Q676 897 728 974T780 1192Q780 1244 771 1294T740 1385T682 1449T590 1473Q520 1473 478 1445T414 1374T384 1278T377 1176V145Q377 101 370 73T348 29T307 7T246 0Q198 0 181 23T164 96Z" />
<glyph unicode="&#xe0;" glyph-name="agrave" horiz-adv-x="1118" d="M764 193L758 195Q691 93 604 47T397 0Q321 0 263 19T166 75T108 162T88 276Q88 342 110 406T191 522T349 604T604 635H754V692Q754 762 742 810T706 889T642 932T549 946Q447 946 369 860Q303
788 244 788Q209 788 191 808T172 858Q172 897 209 928T305 982T439 1016T590 1028Q701 1028 774 1005T890 936T951 821T969 657V96Q969 47 952 24T889 0Q822 0 793 45T764 193ZM756 549H637Q301 549 301 305Q301 137 479 137Q518 137 566 152T656 197T727 272T756
377V549ZM514 1200L313 1466Q307 1472 307 1485Q307 1506 336 1520T417 1534Q457 1534 490 1521T534 1481L641 1225Q645 1218 645 1206Q645 1188 629 1178T589 1167Q539 1167 514 1200Z" />
<glyph unicode="&#xe1;" glyph-name="aacute" horiz-adv-x="1118" d="M764 193L758 195Q691 93 604 47T397 0Q321 0 263 19T166 75T108 162T88 276Q88 342 110 406T191 522T349 604T604 635H754V692Q754 762 742 810T706 889T642 932T549 946Q447 946 369 860Q303
788 244 788Q209 788 191 808T172 858Q172 897 209 928T305 982T439 1016T590 1028Q701 1028 774 1005T890 936T951 821T969 657V96Q969 47 952 24T889 0Q822 0 793 45T764 193ZM756 549H637Q301 549 301 305Q301 137 479 137Q518 137 566 152T656 197T727 272T756
377V549ZM805 1466L604 1200Q578 1167 528 1167Q505 1167 489 1177T473 1206Q473 1218 477 1225L584 1481Q595 1507 627 1520T700 1534Q751 1534 781 1520T811 1485Q811 1472 805 1466Z" />
<glyph unicode="&#xe2;" glyph-name="acircumflex" horiz-adv-x="1118" d="M764 193L758 195Q691 93 604 47T397 0Q321 0 263 19T166 75T108 162T88 276Q88 342 110 406T191 522T349 604T604 635H754V692Q754 762 742 810T706 889T642 932T549 946Q447 946 369
860Q303 788 244 788Q209 788 191 808T172 858Q172 897 209 928T305 982T439 1016T590 1028Q701 1028 774 1005T890 936T951 821T969 657V96Q969 47 952 24T889 0Q822 0 793 45T764 193ZM756 549H637Q301 549 301 305Q301 137 479 137Q518 137 566 152T656 197T727
272T756 377V549ZM923 1202L816 1309L710 1202Q680 1171 648 1156T577 1141Q544 1141 522 1153T499 1184Q499 1194 507 1202L716 1419Q734 1438 758 1447T816 1456Q850 1456 874 1447T917 1419L1126 1202Q1134 1194 1134 1184Q1134 1166 1112 1154T1056 1141Q981
1141 923 1202Z" />
<glyph unicode="&#xe3;" glyph-name="atilde" horiz-adv-x="1118" d="M764 193L758 195Q691 93 604 47T397 0Q321 0 263 19T166 75T108 162T88 276Q88 342 110 406T191 522T349 604T604 635H754V692Q754 762 742 810T706 889T642 932T549 946Q447 946 369 860Q303
788 244 788Q209 788 191 808T172 858Q172 897 209 928T305 982T439 1016T590 1028Q701 1028 774 1005T890 936T951 821T969 657V96Q969 47 952 24T889 0Q822 0 793 45T764 193ZM756 549H637Q301 549 301 305Q301 137 479 137Q518 137 566 152T656 197T727 272T756
377V549ZM432 1241Q400 1241 387 1228T365 1198T347 1169T309 1155Q252 1155 252 1196Q252 1227 267 1261T309 1323T373 1370T457 1389Q503 1386 566 1363L659 1329Q670 1327 685 1324T713 1321Q756 1321 774 1356Q775 1359 779 1367T790 1383T807 1398T833 1405Q858
1405 871 1395T885 1366Q885 1338 870 1311Q810 1174 696 1174Q672 1174 633 1184T555 1207T481 1230T432 1241Z" />
<glyph unicode="&#xe4;" glyph-name="adieresis" horiz-adv-x="1118" d="M764 193L758 195Q691 93 604 47T397 0Q321 0 263 19T166 75T108 162T88 276Q88 342 110 406T191 522T349 604T604 635H754V692Q754 762 742 810T706 889T642 932T549 946Q447 946 369 860Q303
788 244 788Q209 788 191 808T172 858Q172 897 209 928T305 982T439 1016T590 1028Q701 1028 774 1005T890 936T951 821T969 657V96Q969 47 952 24T889 0Q822 0 793 45T764 193ZM756 549H637Q301 549 301 305Q301 137 479 137Q518 137 566 152T656 197T727 272T756
377V549ZM233 1286Q233 1311 243 1334T270 1374T310 1401T358 1411Q383 1411 405 1401T445 1374T473 1334T483 1286Q483 1261 473 1239T446 1199T406 1171T358 1161Q333 1161 311 1171T271 1198T243 1238T233 1286ZM635 1286Q635 1311 645 1333T672 1373T712 1401T760
1411Q785 1411 807 1401T847 1373T874 1334T885 1286Q885 1261 875 1239T847 1199T808 1171T760 1161Q734 1161 712 1171T672 1198T645 1238T635 1286Z" />
<glyph unicode="&#xe5;" glyph-name="aring" horiz-adv-x="1118" d="M764 193L758 195Q691 93 604 47T397 0Q321 0 263 19T166 75T108 162T88 276Q88 342 110 406T191 522T349 604T604 635H754V692Q754 762 742 810T706 889T642 932T549 946Q447 946 369 860Q303
788 244 788Q209 788 191 808T172 858Q172 897 209 928T305 982T439 1016T590 1028Q701 1028 774 1005T890 936T951 821T969 657V96Q969 47 952 24T889 0Q822 0 793 45T764 193ZM756 549H637Q301 549 301 305Q301 137 479 137Q518 137 566 152T656 197T727 272T756
377V549ZM559 1249Q580 1249 599 1257T632 1281T656 1315T665 1356Q665 1377 656 1396T632 1431T598 1455T559 1464Q538 1464 519 1455T484 1431T459 1397T450 1356Q450 1335 459 1316T483 1281T518 1258T559 1249ZM338 1356Q338 1403 355 1443T402 1513T472 1560T559
1577Q605 1577 645 1560T716 1513T763 1443T780 1356Q780 1310 763 1270T715 1200T645 1153T559 1135Q513 1135 473 1152T402 1199T355 1269T338 1356Z" />
<glyph unicode="&#xe6;" glyph-name="ae" horiz-adv-x="1729" d="M1544 258Q1567 281 1595 281Q1613 281 1627 269T1642 238Q1642 200 1616 168Q1479 0 1239 0Q926 0 811 225H805Q780 175 735 134T637 63T526 17T418 0Q252 0 170 74T88 276Q88 342 110 406T191
522T349 604T604 635H754V692Q754 762 742 810T706 889T642 932T549 946Q447 946 369 860Q303 788 244 788Q209 788 191 808T172 858Q172 897 209 928T305 982T439 1016T590 1028Q822 1028 905 918Q1027 1028 1235 1028Q1328 1028 1404 1001T1534 922T1617 792T1647
616Q1647 516 1530 516H979Q978 508 978 497T977 471Q977 288 1049 189T1274 90Q1326 90 1366 106T1434 141T1477 178T1494 198Q1499 203 1505 211T1522 231L1544 258ZM756 549H637Q301 549 301 305Q301 137 479 137Q518 137 566 152T656 197T727 272T756 377V549ZM1223
946Q1124 946 1062 863T985 602H1368Q1404 602 1421 615T1438 662Q1438 730 1420 783T1373 872T1304 927T1223 946Z" />
<glyph unicode="&#xe7;" glyph-name="ccedilla" horiz-adv-x="1004" d="M864 258Q887 281 915 281Q933 281 948 269T963 238Q963 201 936 168Q810 10 596 0V-78Q803 -78 803 -229Q803 -270 786 -303T739 -359T666 -394T575 -406Q545 -406 513 -401T453 -384T407
-358T389 -322Q389 -306 401 -295T432 -283Q437 -283 453 -286T487 -294T524 -301T551 -305Q602 -305 624 -285T647 -236Q647 -210 638 -194T610 -169T561 -157T489 -154V4Q384 15 311 57T191 165T123 320T102 512Q102 654 139 752T243 912T397 1000T588 1028Q658
1028 722 1010T834 962T911 892T940 809Q940 791 933 776T913 751T886 735T854 729Q809 729 783 750T743 815Q732 845 719 869T687 910T643 937T584 946Q521 946 473 926T391 855T341 722T324 512Q324 407 338 328T383 196T465 117T588 90Q636 90 673 100T739 130T791
173T838 226L864 258Z" />
<glyph unicode="&#xe8;" glyph-name="egrave" horiz-adv-x="1075" d="M891 258Q900 269 913 275T942 281Q960 281 974 269T989 238Q989 200 963 168Q826 0 586 0Q466 0 375 33T224 130T133 284T102 489Q102 754 224 891T582 1028Q675 1028 750 1001T880 922T963
792T993 616Q993 516 877 516H326Q325 508 325 497T324 471Q324 383 341 313T393 193T481 117T608 90Q668 90 711 105T784 143T836 191T872 234L891 258ZM569 946Q470 946 408 863T332 602H715Q751 602 767 615T784 662Q784 731 767 784T720 873T651 927T569 946ZM514
1200L313 1466Q307 1472 307 1485Q307 1506 336 1520T417 1534Q457 1534 490 1521T534 1481L641 1225Q645 1218 645 1206Q645 1188 629 1178T589 1167Q539 1167 514 1200Z" />
<glyph unicode="&#xe9;" glyph-name="eacute" horiz-adv-x="1075" d="M891 258Q900 269 913 275T942 281Q960 281 974 269T989 238Q989 200 963 168Q826 0 586 0Q466 0 375 33T224 130T133 284T102 489Q102 754 224 891T582 1028Q675 1028 750 1001T880 922T963
792T993 616Q993 516 877 516H326Q325 508 325 497T324 471Q324 383 341 313T393 193T481 117T608 90Q668 90 711 105T784 143T836 191T872 234L891 258ZM569 946Q470 946 408 863T332 602H715Q751 602 767 615T784 662Q784 731 767 784T720 873T651 927T569 946ZM803
1466L602 1200Q576 1167 526 1167Q503 1167 487 1177T471 1206Q471 1218 475 1225L582 1481Q593 1507 625 1520T698 1534Q749 1534 779 1520T809 1485Q809 1472 803 1466Z" />
<glyph unicode="&#xea;" glyph-name="ecircumflex" horiz-adv-x="1075" d="M891 258Q900 269 913 275T942 281Q960 281 974 269T989 238Q989 200 963 168Q826 0 586 0Q466 0 375 33T224 130T133 284T102 489Q102 754 224 891T582 1028Q675 1028 750 1001T880 922T963
792T993 616Q993 516 877 516H326Q325 508 325 497T324 471Q324 383 341 313T393 193T481 117T608 90Q668 90 711 105T784 143T836 191T872 234L891 258ZM569 946Q470 946 408 863T332 602H715Q751 602 767 615T784 662Q784 731 767 784T720 873T651 927T569 946ZM912
1202L805 1309L699 1202Q669 1171 637 1156T566 1141Q533 1141 511 1153T488 1184Q488 1194 496 1202L705 1419Q723 1438 747 1447T805 1456Q839 1456 863 1447T906 1419L1115 1202Q1123 1194 1123 1184Q1123 1166 1101 1154T1045 1141Q970 1141 912 1202Z" />
<glyph unicode="&#xeb;" glyph-name="edieresis" horiz-adv-x="1075" d="M891 258Q900 269 913 275T942 281Q960 281 974 269T989 238Q989 200 963 168Q826 0 586 0Q466 0 375 33T224 130T133 284T102 489Q102 754 224 891T582 1028Q675 1028 750 1001T880 922T963
792T993 616Q993 516 877 516H326Q325 508 325 497T324 471Q324 383 341 313T393 193T481 117T608 90Q668 90 711 105T784 143T836 191T872 234L891 258ZM569 946Q470 946 408 863T332 602H715Q751 602 767 615T784 662Q784 731 767 784T720 873T651 927T569 946ZM470
1286Q470 1311 480 1334T507 1374T547 1401T595 1411Q620 1411 642 1401T682 1374T710 1334T720 1286Q720 1261 710 1239T683 1199T643 1171T595 1161Q570 1161 548 1171T508 1198T480 1238T470 1286ZM872 1286Q872 1311 882 1333T909 1373T949 1401T997 1411Q1022
1411 1044 1401T1084 1373T1111 1334T1122 1286Q1122 1261 1112 1239T1084 1199T1045 1171T997 1161Q971 1161 949 1171T909 1198T882 1238T872 1286Z" />
<glyph unicode="&#xec;" glyph-name="igrave" horiz-adv-x="561" d="M387 891V139Q387 95 380 68T358 26T317 6T256 0Q208 0 191 23T174 96V932Q174 981 191 1004T256 1028Q387 1028 387 891ZM259 1200L58 1466Q52 1472 52 1485Q52 1506 81 1520T162 1534Q202
1534 235 1521T279 1481L386 1225Q390 1218 390 1206Q390 1188 374 1178T334 1167Q284 1167 259 1200Z" />
<glyph unicode="&#xed;" glyph-name="iacute" horiz-adv-x="561" d="M387 891V139Q387 95 380 68T358 26T317 6T256 0Q208 0 191 23T174 96V932Q174 981 191 1004T256 1028Q387 1028 387 891ZM507 1466L306 1200Q280 1167 230 1167Q207 1167 191 1177T175 1206Q175
1218 179 1225L286 1481Q297 1507 329 1520T402 1534Q453 1534 483 1520T513 1485Q513 1472 507 1466Z" />
<glyph unicode="&#xee;" glyph-name="icircumflex" horiz-adv-x="561" d="M388 1202L281 1309L175 1202Q145 1171 113 1156T42 1141Q9 1141 -13 1153T-36 1184Q-36 1194 -28 1202L181 1419Q199 1438 223 1447T281 1456Q315 1456 339 1447T382 1419L591 1202Q599
1194 599 1184Q599 1166 577 1154T521 1141Q446 1141 388 1202ZM387 891V139Q387 95 380 68T358 26T317 6T256 0Q208 0 191 23T174 96V932Q174 981 191 1004T256 1028Q387 1028 387 891Z" />
<glyph unicode="&#xef;" glyph-name="idieresis" horiz-adv-x="561" d="M-45 1286Q-45 1311 -35 1334T-8 1374T32 1401T80 1411Q105 1411 127 1401T167 1374T195 1334T205 1286Q205 1261 195 1239T168 1199T128 1171T80 1161Q55 1161 33 1171T-7 1198T-35 1238T-45
1286ZM357 1286Q357 1311 367 1333T394 1373T434 1401T482 1411Q507 1411 529 1401T569 1373T596 1334T607 1286Q607 1261 597 1239T569 1199T530 1171T482 1161Q456 1161 434 1171T394 1198T367 1238T357 1286ZM387 891V139Q387 95 380 68T358 26T317 6T256 0Q208
0 191 23T174 96V932Q174 981 191 1004T256 1028Q387 1028 387 891Z" />
<glyph unicode="&#xf0;" glyph-name="eth" horiz-adv-x="1182" d="M1034 1456L866 1368Q1042 1151 1042 702Q1042 620 1033 536T1001 374T944 228T855 109T729 29T563 0Q456 0 371 36T226 138T134 299T102 510Q102 623 133 717T221 879T359 984T543 1022Q707 1022
819 946Q803 1140 709 1286L475 1163Q470 1159 457 1159Q438 1159 424 1176T410 1212Q410 1235 432 1247L649 1360Q546 1466 406 1466Q381 1466 354 1462T304 1454T264 1446T240 1442Q225 1442 215 1453T205 1481Q205 1505 230 1520T290 1543T364 1553T430 1556Q652
1556 797 1438L991 1540Q1002 1544 1008 1544Q1028 1544 1041 1527T1055 1491Q1055 1466 1034 1456ZM555 82Q604 82 641 103T707 160T754 243T786 342T806 449T817 552T821 644T822 713Q822 734 823 758T823 811Q798 842 768 866T706 907T641 931T578 940Q506 940
457 905T378 810T335 669T322 496Q322 391 339 314T387 185T461 108T555 82Z" />
<glyph unicode="&#xf1;" glyph-name="ntilde" horiz-adv-x="1188" d="M164 96V940Q164 989 184 1008T252 1028Q309 1028 341 984T373 852V838H377Q431 925 521 976T735 1028Q1024 1028 1024 719V96Q1024 47 1007 24T942 0Q873 0 842 38T811 168V680Q811 891 637
891Q592 891 546 872T463 821T401 745T377 655V145Q377 101 370 73T348 29T307 7T246 0Q198 0 181 23T164 96ZM477 1241Q445 1241 432 1228T410 1198T392 1169T354 1155Q297 1155 297 1196Q297 1227 312 1261T354 1323T418 1370T502 1389Q548 1386 611 1363L704
1329Q715 1327 730 1324T758 1321Q801 1321 819 1356Q820 1359 824 1367T835 1383T852 1398T878 1405Q903 1405 916 1395T930 1366Q930 1338 915 1311Q855 1174 741 1174Q717 1174 678 1184T600 1207T526 1230T477 1241Z" />
<glyph unicode="&#xf2;" glyph-name="ograve" horiz-adv-x="1143" d="M571 0Q460 0 373 32T225 128T134 289T102 514Q102 644 135 741T229 901T376 996T571 1028Q680 1028 767 997T915 901T1008 741T1040 514Q1040 385 1009 289T918 129T771 32T571 0ZM571 82Q626
82 671 100T750 167T801 299T819 514Q819 641 801 724T749 857T671 926T571 946Q519 946 474 927T396 858T343 725T324 514Q324 388 341 305T390 172T468 102T571 82ZM527 1200L326 1466Q320 1472 320 1485Q320 1506 349 1520T430 1534Q470 1534 503 1521T547 1481L654
1225Q658 1218 658 1206Q658 1188 642 1178T602 1167Q552 1167 527 1200Z" />
<glyph unicode="&#xf3;" glyph-name="oacute" horiz-adv-x="1143" d="M571 0Q460 0 373 32T225 128T134 289T102 514Q102 644 135 741T229 901T376 996T571 1028Q680 1028 767 997T915 901T1008 741T1040 514Q1040 385 1009 289T918 129T771 32T571 0ZM571 82Q626
82 671 100T750 167T801 299T819 514Q819 641 801 724T749 857T671 926T571 946Q519 946 474 927T396 858T343 725T324 514Q324 388 341 305T390 172T468 102T571 82ZM817 1466L616 1200Q590 1167 540 1167Q517 1167 501 1177T485 1206Q485 1218 489 1225L596 1481Q607
1507 639 1520T712 1534Q763 1534 793 1520T823 1485Q823 1472 817 1466Z" />
<glyph unicode="&#xf4;" glyph-name="ocircumflex" horiz-adv-x="1143" d="M571 0Q460 0 373 32T225 128T134 289T102 514Q102 644 135 741T229 901T376 996T571 1028Q680 1028 767 997T915 901T1008 741T1040 514Q1040 385 1009 289T918 129T771 32T571 0ZM571
82Q626 82 671 100T750 167T801 299T819 514Q819 641 801 724T749 857T671 926T571 946Q519 946 474 927T396 858T343 725T324 514Q324 388 341 305T390 172T468 102T571 82ZM935 1202L828 1309L722 1202Q692 1171 660 1156T589 1141Q556 1141 534 1153T511 1184Q511
1194 519 1202L728 1419Q746 1438 770 1447T828 1456Q862 1456 886 1447T929 1419L1138 1202Q1146 1194 1146 1184Q1146 1166 1124 1154T1068 1141Q993 1141 935 1202Z" />
<glyph unicode="&#xf5;" glyph-name="otilde" horiz-adv-x="1143" d="M571 0Q460 0 373 32T225 128T134 289T102 514Q102 644 135 741T229 901T376 996T571 1028Q680 1028 767 997T915 901T1008 741T1040 514Q1040 385 1009 289T918 129T771 32T571 0ZM571 82Q626
82 671 100T750 167T801 299T819 514Q819 641 801 724T749 857T671 926T571 946Q519 946 474 927T396 858T343 725T324 514Q324 388 341 305T390 172T468 102T571 82ZM434 1241Q402 1241 389 1228T367 1198T349 1169T311 1155Q254 1155 254 1196Q254 1227 269 1261T311
1323T375 1370T459 1389Q505 1386 568 1363L661 1329Q672 1327 687 1324T715 1321Q758 1321 776 1356Q777 1359 781 1367T792 1383T809 1398T835 1405Q860 1405 873 1395T887 1366Q887 1338 872 1311Q812 1174 698 1174Q674 1174 635 1184T557 1207T483 1230T434
1241Z" />
<glyph unicode="&#xf6;" glyph-name="odieresis" horiz-adv-x="1143" d="M571 0Q460 0 373 32T225 128T134 289T102 514Q102 644 135 741T229 901T376 996T571 1028Q680 1028 767 997T915 901T1008 741T1040 514Q1040 385 1009 289T918 129T771 32T571 0ZM571
82Q626 82 671 100T750 167T801 299T819 514Q819 641 801 724T749 857T671 926T571 946Q519 946 474 927T396 858T343 725T324 514Q324 388 341 305T390 172T468 102T571 82ZM245 1286Q245 1311 255 1334T282 1374T322 1401T370 1411Q395 1411 417 1401T457 1374T485
1334T495 1286Q495 1261 485 1239T458 1199T418 1171T370 1161Q345 1161 323 1171T283 1198T255 1238T245 1286ZM647 1286Q647 1311 657 1333T684 1373T724 1401T772 1411Q797 1411 819 1401T859 1373T886 1334T897 1286Q897 1261 887 1239T859 1199T820 1171T772
1161Q746 1161 724 1171T684 1198T657 1238T647 1286Z" />
<glyph unicode="&#xf7;" glyph-name="divide" horiz-adv-x="1434" d="M586 1092Q586 1120 596 1144T625 1185T666 1213T717 1223Q744 1223 768 1213T810 1185T838 1143T848 1092Q848 1065 838 1042T811 1000T769 972T717 961Q690 961 666 971T625 999T597 1041T586
1092ZM586 338Q586 365 596 389T625 431T667 459T717 469Q744 469 768 459T809 431T837 389T848 338Q848 310 838 286T811 245T769 217T717 207Q690 207 667 217T625 244T597 286T586 338ZM1208 633H225H222Q203 633 194 658T184 715Q184 746 193 771T222 797H225H1208Q1228
797 1238 772T1248 715Q1248 683 1238 658T1208 633Z" />
<glyph unicode="&#xf8;" glyph-name="oslash" horiz-adv-x="1143" d="M963 1100L870 940Q1040 812 1040 514Q1040 385 1009 289T918 129T771 32T571 0Q441 0 350 41L244 -145Q238 -158 219 -158Q206 -158 192 -153T166 -141T147 -123T139 -102Q139 -98 141 -92L252
102Q102 232 102 514Q102 644 135 741T229 901T376 996T571 1028Q679 1028 762 997L852 1157Q858 1169 879 1169Q892 1169 907 1164T935 1150T956 1131T965 1110Q965 1106 963 1100ZM571 82Q626 82 671 100T750 167T801 299T819 514Q819 684 782 788L412 145Q467
82 571 82ZM324 514Q324 363 348 270L707 903Q654 946 571 946Q519 946 474 927T396 858T343 725T324 514Z" />
<glyph unicode="&#xf9;" glyph-name="ugrave" horiz-adv-x="1188" d="M377 860V348Q377 137 551 137Q596 137 642 156T725 207T787 282T811 373V881Q811 927 818 955T841 1000T882 1022T942 1028Q990 1028 1007 1005T1024 932V88Q1024 40 1004 20T936 0Q815 0
815 176V190H811Q757 103 666 52T453 0Q164 0 164 309V932Q164 981 181 1004T246 1028Q315 1028 346 990T377 860ZM549 1200L348 1466Q342 1472 342 1485Q342 1506 371 1520T452 1534Q492 1534 525 1521T569 1481L676 1225Q680 1218 680 1206Q680 1188 664 1178T624
1167Q574 1167 549 1200Z" />
<glyph unicode="&#xfa;" glyph-name="uacute" horiz-adv-x="1188" d="M377 860V348Q377 137 551 137Q596 137 642 156T725 207T787 282T811 373V881Q811 927 818 955T841 1000T882 1022T942 1028Q990 1028 1007 1005T1024 932V88Q1024 40 1004 20T936 0Q815 0
815 176V190H811Q757 103 666 52T453 0Q164 0 164 309V932Q164 981 181 1004T246 1028Q315 1028 346 990T377 860ZM840 1466L639 1200Q613 1167 563 1167Q540 1167 524 1177T508 1206Q508 1218 512 1225L619 1481Q630 1507 662 1520T735 1534Q786 1534 816 1520T846
1485Q846 1472 840 1466Z" />
<glyph unicode="&#xfb;" glyph-name="ucircumflex" horiz-adv-x="1188" d="M377 860V348Q377 137 551 137Q596 137 642 156T725 207T787 282T811 373V881Q811 927 818 955T841 1000T882 1022T942 1028Q990 1028 1007 1005T1024 932V88Q1024 40 1004 20T936 0Q815
0 815 176V190H811Q757 103 666 52T453 0Q164 0 164 309V932Q164 981 181 1004T246 1028Q315 1028 346 990T377 860ZM700 1202L593 1309L487 1202Q457 1171 425 1156T354 1141Q321 1141 299 1153T276 1184Q276 1194 284 1202L493 1419Q511 1438 535 1447T593 1456Q627
1456 651 1447T694 1419L903 1202Q911 1194 911 1184Q911 1166 889 1154T833 1141Q758 1141 700 1202Z" />
<glyph unicode="&#xfc;" glyph-name="udieresis" horiz-adv-x="1188" d="M377 860V348Q377 137 551 137Q596 137 642 156T725 207T787 282T811 373V881Q811 927 818 955T841 1000T882 1022T942 1028Q990 1028 1007 1005T1024 932V88Q1024 40 1004 20T936 0Q815
0 815 176V190H811Q757 103 666 52T453 0Q164 0 164 309V932Q164 981 181 1004T246 1028Q315 1028 346 990T377 860ZM268 1286Q268 1311 278 1334T305 1374T345 1401T393 1411Q418 1411 440 1401T480 1374T508 1334T518 1286Q518 1261 508 1239T481 1199T441 1171T393
1161Q368 1161 346 1171T306 1198T278 1238T268 1286ZM670 1286Q670 1311 680 1333T707 1373T747 1401T795 1411Q820 1411 842 1401T882 1373T909 1334T920 1286Q920 1261 910 1239T882 1199T843 1171T795 1161Q769 1161 747 1171T707 1198T680 1238T670 1286Z"
/>
<glyph unicode="&#xfd;" glyph-name="yacute" horiz-adv-x="1049" d="M977 926L623 16Q603 -34 580 -88T527 -194T464 -292T389 -374T303 -430T203 -451Q161 -451 133 -430T104 -377Q104 -285 215 -285Q272 -285 312 -269T381 -221T433 -138T477 -18L72 926Q67
937 64 948T61 973Q61 1028 137 1028Q188 1028 232 995T305 891L573 221H584L707 580Q723 626 747 705T803 899Q819 959 845 993T922 1028Q987 1028 987 981Q987 955 977 926ZM1027 1466L826 1200Q800 1167 750 1167Q727 1167 711 1177T695 1206Q695 1218 699 1225L806
1481Q817 1507 849 1520T922 1534Q973 1534 1003 1520T1033 1485Q1033 1472 1027 1466Z" />
<glyph unicode="&#xfe;" glyph-name="thorn" horiz-adv-x="1159" d="M164 -354V1468Q164 1516 191 1536T258 1556Q324 1556 355 1514T387 1380V1006L373 836H375Q402 881 434 917T506 977T593 1015T700 1028Q1051 1028 1051 565Q1051 424 1018 319T921 142T768
36T563 0Q459 0 377 39V-305Q377 -349 370 -377T348 -422T307 -445T246 -451Q198 -451 181 -428T164 -354ZM829 549Q829 651 814 717T770 821T703 875T618 891Q576 891 533 870T455 816T398 739T375 651V207Q375 184 388 162T425 122T485 93T563 82Q623 82 672
105T756 182T810 326T829 549Z" />
<glyph unicode="&#xff;" glyph-name="ydieresis" horiz-adv-x="1049" d="M977 926L623 16Q603 -34 580 -88T527 -194T464 -292T389 -374T303 -430T203 -451Q161 -451 133 -430T104 -377Q104 -285 215 -285Q272 -285 312 -269T381 -221T433 -138T477 -18L72 926Q67
937 64 948T61 973Q61 1028 137 1028Q188 1028 232 995T305 891L573 221H584L707 580Q723 626 747 705T803 899Q819 959 845 993T922 1028Q987 1028 987 981Q987 955 977 926ZM455 1286Q455 1311 465 1334T492 1374T532 1401T580 1411Q605 1411 627 1401T667 1374T695
1334T705 1286Q705 1261 695 1239T668 1199T628 1171T580 1161Q555 1161 533 1171T493 1198T465 1238T455 1286ZM857 1286Q857 1311 867 1333T894 1373T934 1401T982 1411Q1007 1411 1029 1401T1069 1373T1096 1334T1107 1286Q1107 1261 1097 1239T1069 1199T1030
1171T982 1161Q956 1161 934 1171T894 1198T867 1238T857 1286Z" />
<glyph unicode="&#x2013;" glyph-name="endash" horiz-adv-x="1618" d="M1415 512H203Q184 512 174 534T164 588Q164 620 174 643T203 666H1415Q1433 666 1443 643T1454 588Q1454 558 1444 535T1415 512Z" />
<glyph unicode="&#x2014;" glyph-name="emdash" horiz-adv-x="2091" d="M1888 512H203Q184 512 174 534T164 588Q164 620 174 643T203 666H1888Q1906 666 1916 643T1927 588Q1927 558 1917 535T1888 512Z" />
<glyph unicode="&#x2018;" glyph-name="quoteleft" horiz-adv-x="557" d="M385 1456L307 1292Q347 1286 372 1269T411 1230T429 1186T434 1145Q434 1109 420 1081T383 1035T331 1007T272 997Q243 997 217 1006T169 1032T136 1076T123 1135Q123 1168 134 1206T166
1290L252 1473Q277 1528 328 1528Q353 1528 371 1512T389 1475Q389 1467 385 1456Z" />
<glyph unicode="&#x2019;" glyph-name="quoteright" horiz-adv-x="557" d="M172 1069L250 1233Q209 1239 185 1256T146 1295T128 1339T123 1380Q123 1416 137 1444T174 1490T226 1518T285 1528Q313 1528 340 1519T388 1492T421 1449T434 1391Q434 1327 391 1235L305
1053Q278 997 229 997Q204 997 186 1013T168 1051Q168 1058 172 1069Z" />
<glyph unicode="&#x201a;" glyph-name="quotesinglbase" horiz-adv-x="598" d="M193 -139L270 25Q230 31 205 48T167 87T148 131T143 172Q143 208 157 235T194 281T246 309T305 319Q333 319 360 310T408 283T442 240T455 182Q455 119 412 27L326 -156Q301 -211
250 -211Q224 -211 206 -195T188 -158Q188 -151 193 -139Z" />
<glyph unicode="&#x201c;" glyph-name="quotedblleft" horiz-adv-x="954" d="M782 1456L705 1292Q745 1286 770 1269T808 1230T826 1186T831 1145Q831 1109 817 1081T781 1035T729 1007T670 997Q641 997 614 1006T566 1033T533 1077T520 1136Q520 1198 563 1290L649
1473Q674 1528 725 1528Q751 1528 768 1512T786 1475Q786 1467 782 1456ZM385 1456L307 1292Q347 1286 372 1269T411 1230T429 1186T434 1145Q434 1109 420 1081T383 1035T331 1007T272 997Q243 997 217 1006T169 1032T136 1076T123 1135Q123 1168 134 1206T166
1290L252 1473Q277 1528 328 1528Q353 1528 371 1512T389 1475Q389 1467 385 1456Z" />
<glyph unicode="&#x201d;" glyph-name="quotedblright" horiz-adv-x="954" d="M172 1069L250 1233Q209 1239 185 1256T146 1295T128 1339T123 1380Q123 1416 137 1444T174 1490T226 1518T285 1528Q313 1528 340 1519T388 1492T421 1449T434 1391Q434 1327 391
1235L305 1053Q278 997 229 997Q204 997 186 1013T168 1051Q168 1058 172 1069ZM569 1069L647 1233Q607 1239 582 1256T544 1295T525 1339T520 1380Q520 1416 534 1444T571 1490T623 1518T682 1528Q710 1528 737 1519T785 1492T818 1449T831 1391Q831 1327 788
1235L702 1053Q675 997 627 997Q601 997 583 1013T565 1051Q565 1058 569 1069Z" />
<glyph unicode="&#x201e;" glyph-name="quotedblbase" horiz-adv-x="954" d="M172 -139L250 25Q209 31 185 48T146 87T128 131T123 172Q123 208 137 235T174 281T226 309T285 319Q313 319 340 310T388 283T421 240T434 182Q434 119 391 27L305 -156Q281 -211 229
-211Q204 -211 186 -195T168 -158Q168 -150 172 -139ZM569 -139L647 25Q607 31 582 48T544 87T525 131T520 172Q520 208 534 235T571 281T623 309T682 319Q710 319 737 310T785 283T818 240T831 182Q831 119 788 27L702 -156Q678 -211 627 -211Q601 -211 583 -195T565
-158Q565 -150 569 -139Z" />
<glyph unicode="&#x2022;" glyph-name="bullet" horiz-adv-x="848" d="M255 554Q184 625 184 723Q184 771 203 814T255 891T331 943T424 963Q472 963 515 944T592 891T644 815T664 723Q664 674 645 631T592 554T516 502T424 483Q326 483 255 554Z" />
<glyph unicode="&#x2039;" glyph-name="guilsinglleft" horiz-adv-x="829" d="M676 879L371 481L676 92Q686 79 686 66Q686 54 678 43T658 22T632 6T604 0Q583 0 573 12L160 440Q143 457 143 481Q143 505 160 522L573 958Q586 971 604 971Q617 971 631 966T658
951T678 930T686 905Q686 892 676 879Z" />
<glyph unicode="&#x203a;" glyph-name="guilsinglright" horiz-adv-x="829" d="M459 481L154 879Q143 893 143 905Q143 918 151 930T171 951T197 965T225 971Q244 971 256 958L670 522Q686 506 686 481Q686 456 670 440L256 12Q247 0 225 0Q212 0 198 5T171 20T151
41T143 66Q143 78 154 92L459 481Z" />
</font>
</defs>
</svg>
