<?xml version="1.0" standalone="no"?>
<!DOCTYPE svg PUBLIC "-//W3C//DTD SVG 1.1//EN" "http://www.w3.org/Graphics/SVG/1.1/DTD/svg11.dtd">
<svg xmlns="http://www.w3.org/2000/svg">
<defs >
<font id="Gudea" horiz-adv-x="424" ><font-face
    font-family="Gudea"
    units-per-em="1000"
    panose-1="2 0 0 0 0 0 0 0 0 0"
    ascent="972"
    descent="-264"
    alphabetic="0" />
<glyph unicode=" " glyph-name="space" horiz-adv-x="250" />
<glyph unicode="!" glyph-name="exclam" horiz-adv-x="266" d="M171 190H96V701H171V190ZM170 0H95V93H170V0Z" />
<glyph unicode="&quot;" glyph-name="quotedbl" horiz-adv-x="378" d="M322 442H247V701H322V442ZM130 442H55V701H130V442Z" />
<glyph unicode="#" glyph-name="numbersign" horiz-adv-x="619" d="M588 465H484L463 256H561V191H456L437 0H361L381 191H222L202 0H126L146 191H30V256H152L175 465H56V530H180L198 700H274L256 530H415L433 700H508L492 530H588V465ZM410 465H251L228 256H387L410
465Z" />
<glyph unicode="$" glyph-name="dollar" horiz-adv-x="508" d="M279 660Q338 653 387 638L405 633L391 573L336 589Q283 602 244 602Q141 602 141 508Q141 438 250 400Q296 385 341 367T418 311T450 216Q450 138 406 90T279 32V-60H214V30Q133 35 62 79L84 129Q164
92 236 92T346 121T384 198T352 273T275 316T184 352T106 410T74 511T112 614T214 660V747H279V660Z" />
<glyph unicode="%" glyph-name="percent" horiz-adv-x="737" d="M597 688L189 1H111L519 688H597ZM618 218T600 252T547 286T493 252T475 164Q475 44 545 44Q618 44 618 164Q618 218 600 252ZM545 336Q678 336 678 165T543 -6Q478 -6 447 39T415 160T447 286T545
336ZM248 578T230 612T177 646T123 612T105 524Q105 404 175 404Q248 404 248 524Q248 578 230 612ZM175 696Q308 696 308 525T173 354Q108 354 77 399T45 520T77 646T175 696Z" />
<glyph unicode="&amp;" glyph-name="ampersand" horiz-adv-x="756" d="M527 361H599Q592 248 572 195Q566 177 552 147L695 1H595L513 90Q479 49 418 21T294 -7Q180 -7 120 47T59 193Q59 259 95 297T211 374Q152 427 124 464T96 539Q96 614 150 662T289 710T424
666T475 557T440 450T326 365L495 201Q527 267 527 361ZM466 138L261 334Q134 276 134 187Q134 129 177 94T283 58T394 82T466 138ZM171 522T189 500T216 468Q237 445 277 409Q403 472 403 555Q403 600 369 622T285 645T203 621T171 560Z" />
<glyph unicode="&apos;" glyph-name="quotesingle" horiz-adv-x="185" d="M130 367H55V626H130V367Z" />
<glyph unicode="(" glyph-name="parenleft" horiz-adv-x="282" d="M196 -130Q78 76 78 316T201 764L267 751Q153 540 153 317T265 -118L196 -130Z" />
<glyph unicode=")" glyph-name="parenright" horiz-adv-x="282" d="M88 764Q211 557 211 317T93 -130L24 -118Q136 93 136 316T22 751L88 764Z" />
<glyph unicode="*" glyph-name="asterisk" horiz-adv-x="430" d="M383 490L352 432L233 513L246 370H181L191 513L72 432L41 485L171 548L42 611L77 666L191 584L181 727H246L233 584L352 665L383 608L253 550L383 490Z" />
<glyph unicode="+" glyph-name="plus" horiz-adv-x="469" d="M440 262H267V69H192V262H28V327H192V527H267V327H440V262Z" />
<glyph unicode="," glyph-name="comma" horiz-adv-x="244" d="M187 87L74 -172L25 -156L112 111L187 87Z" />
<glyph unicode="-" glyph-name="hyphen" horiz-adv-x="287" d="M239 254H48V329H239V254Z" />
<glyph unicode="." glyph-name="period" horiz-adv-x="183" d="M129 0H54V106H129V0Z" />
<glyph unicode="/" glyph-name="slash" horiz-adv-x="491" d="M451 800L127 -145H47L372 800H451Z" />
<glyph unicode="0" glyph-name="zero" horiz-adv-x="580" d="M526 352Q526 83 383 14Q340 -6 284 -6Q55 -6 55 352Q55 497 104 597Q130 650 179 680T296 710Q526 710 526 352ZM451 350V354Q451 645 291 645Q232 645 195 603T144 498T130 352Q130 59 290 59T451 350Z" />
<glyph unicode="1" glyph-name="one" horiz-adv-x="519" d="M42 0V65H237V626L65 515L28 571L237 700H312V65H465V0H42Z" />
<glyph unicode="2" glyph-name="two" horiz-adv-x="524" d="M470 65L469 0H57V72Q225 243 301 347T378 527Q378 645 247 645Q176 645 106 629L84 624L70 682Q146 710 247 710T401 665T454 532T380 334T151 65H470Z" />
<glyph unicode="3" glyph-name="three" horiz-adv-x="528" d="M136 391H231Q299 391 337 429T376 524Q376 645 242 645Q208 645 168 635T104 614L81 604L67 662Q102 682 149 696T239 710Q346 710 398 662T451 541T414 419T317 359Q386 349 430 306T474 197Q474
101 410 48T231 -6Q183 -6 138 6T70 30L49 41L74 97Q156 59 236 59T357 93T398 189T355 288T231 326H136V391Z" />
<glyph unicode="4" glyph-name="four" horiz-adv-x="540" d="M331 -1V131H15V180L234 700H309L97 196H331V382H403V196H486V131H403V-1H331Z" />
<glyph unicode="5" glyph-name="five" horiz-adv-x="558" d="M342 60T385 102T429 218T377 325T232 360L100 361L124 700H481L476 635H188L177 424Q209 425 240 425Q360 425 432 374T504 230Q504 122 440 58T257 -6Q208 -6 160 7T87 34L63 47L86 100Q176 60 259 60Z" />
<glyph unicode="6" glyph-name="six" horiz-adv-x="576" d="M304 423Q408 423 465 371T522 219T463 57T304 -6Q72 -6 72 310Q72 602 207 679Q261 710 338 710Q377 710 415 702T471 686L489 677L471 617Q401 644 329 644Q240 644 199 575T149 386Q233 423 304 423ZM309
59Q372 59 409 102T447 213Q447 358 300 358Q224 358 147 311Q147 187 185 123T309 59Z" />
<glyph unicode="7" glyph-name="seven" horiz-adv-x="507" d="M26 625V700H477V625L167 0H84L393 625H26Z" />
<glyph unicode="8" glyph-name="eight" horiz-adv-x="575" d="M393 710T448 662T503 543T472 423T404 344Q459 315 490 281T521 194Q521 99 459 47T285 -6T118 49T62 185Q62 221 76 253T113 308Q154 347 188 364Q85 421 85 515T143 660T297 710ZM370 286Q335 304
258 332Q223 317 194 292Q137 245 137 188T175 94T285 57T402 92T446 187T370 286ZM430 530Q430 580 394 612T298 645T198 613T158 529Q158 487 194 450Q221 421 339 374Q430 442 430 530Z" />
<glyph unicode="9" glyph-name="nine" horiz-adv-x="557" d="M271 281Q167 281 110 333T53 485T112 647T271 710Q503 710 503 394Q503 102 368 25Q314 -6 237 -6Q198 -6 160 2T104 18L86 27L104 87Q174 60 246 60Q409 60 425 318Q351 281 271 281ZM266 645Q203
645 166 602T128 491Q128 346 275 346Q349 346 428 392V396Q428 518 390 581T266 645Z" />
<glyph unicode=":" glyph-name="colon" horiz-adv-x="217" d="M146 0H71V106H146V0ZM146 394H71V500H146V394Z" />
<glyph unicode=";" glyph-name="semicolon" horiz-adv-x="276" d="M205 394H130V500H205V394ZM205 89L92 -170L43 -154L133 113L205 89Z" />
<glyph unicode="&lt;" glyph-name="less" horiz-adv-x="528" d="M453 45L61 269V326L453 551V471L134 298L453 123V45Z" />
<glyph unicode="=" glyph-name="equal" horiz-adv-x="580" d="M505 361H75V426H505V361ZM505 163H75V228H505V163Z" />
<glyph unicode="&gt;" glyph-name="greater" horiz-adv-x="528" d="M467 270L75 46V123L394 298L75 471V551L467 326V270Z" />
<glyph unicode="?" glyph-name="question" horiz-adv-x="463" d="M342 426Q318 402 294 380Q237 326 237 257V194H163V252Q163 296 179 332T219 393T266 440Q323 494 323 551Q323 644 212 644Q147 644 91 625L80 683Q161 710 233 710T352 670T398 556T342 426ZM236
0H161V98H236V0Z" />
<glyph unicode="@" glyph-name="at" horiz-adv-x="907" d="M530 216L568 409Q566 410 560 417T547 428T531 439Q511 451 480 451Q412 451 372 382T332 224T400 135Q435 135 460 152T530 216ZM535 81L527 147Q506 126 492 115T448 90T388 76Q330 76 300 115T270
222T290 351T342 445Q406 515 474 515Q512 515 531 505T558 489Q572 479 587 464L603 504H649L576 135Q660 135 712 195T765 398Q765 644 476 644Q305 644 226 542T146 232Q146 81 206 12T402 -57H575L577 -111Q492 -119 398 -119Q76 -119 76 209Q76 709 477 709Q830
709 830 394Q830 214 749 144Q709 110 658 96T535 81Z" />
<glyph unicode="A" glyph-name="A" horiz-adv-x="579" d="M566 0H482L412 221H161L92 0H13L243 700H334L566 0ZM395 286L288 624L180 286H395Z" />
<glyph unicode="B" glyph-name="B" horiz-adv-x="587" d="M91 0V700H291Q398 700 451 654T504 521Q504 463 466 425T363 379Q443 367 487 322T532 210Q532 115 467 58T284 0H91ZM169 65H308Q374 65 414 105T454 205T412 304T287 343H169V65ZM296 635H169V407H286Q341
407 383 437T426 522Q426 631 296 635Z" />
<glyph unicode="C" glyph-name="C" horiz-adv-x="584" d="M346 -6Q203 -6 127 90T50 352T131 613T357 709Q437 709 514 680L496 618Q435 644 352 644Q247 644 186 568T125 358T182 142T343 59Q411 59 514 98L534 46Q448 -6 346 -6Z" />
<glyph unicode="D" glyph-name="D" horiz-adv-x="647" d="M597 375Q597 206 499 103T237 0H91V700H268Q417 700 507 609T597 375ZM516 383Q516 501 444 568T272 635H172V65H246Q359 65 437 150T516 383Z" />
<glyph unicode="E" glyph-name="E" horiz-adv-x="542" d="M468 0H91V700H468V635H166V413H443V346H166V65H468V0Z" />
<glyph unicode="F" glyph-name="F" horiz-adv-x="510" d="M469 700V635H166V413H445V346H166V0H91V700H469Z" />
<glyph unicode="G" glyph-name="G" horiz-adv-x="646" d="M362 -6Q217 -6 132 92T46 353T127 613T353 710Q445 710 540 674L522 612Q488 626 433 635T348 645Q243 645 182 568T121 360T185 144T351 59Q422 59 485 79V290H339V355H560V48Q466 -6 362 -6Z" />
<glyph unicode="H" glyph-name="H" horiz-adv-x="664" d="M573 0H498V331H166V0H91V700H166V396H498V700H573V0Z" />
<glyph unicode="I" glyph-name="I" horiz-adv-x="257" d="M166 0H91V700H166V0Z" />
<glyph unicode="J" glyph-name="J" horiz-adv-x="343" d="M252 211Q252 -7 101 -7Q48 -7 1 4V67Q55 58 90 58Q140 58 158 104T177 228V641H32V700H252V211Z" />
<glyph unicode="K" glyph-name="K" horiz-adv-x="573" d="M555 0H461L256 383L166 288V0H91V699H165V384L457 700H549L307 434L555 0Z" />
<glyph unicode="L" glyph-name="L" horiz-adv-x="473" d="M466 0H91V700H166V65H466V0Z" />
<glyph unicode="M" glyph-name="M" horiz-adv-x="737" d="M681 0H606V574L381 184L355 185L130 573V0H56V700H140L369 315L606 700H681V0Z" />
<glyph unicode="N" glyph-name="N" horiz-adv-x="679" d="M588 -1H506L169 560V0H91V700H169L513 118V700H588V-1Z" />
<glyph unicode="O" glyph-name="O" horiz-adv-x="648" d="M323 -5Q186 -5 116 96T46 355T116 611T323 710T531 611T602 355Q602 140 480 45Q415 -5 323 -5ZM325 645Q223 645 173 560T122 352T173 145T325 61T476 146T527 360Q527 522 436 602Q389 645 325 645Z" />
<glyph unicode="P" glyph-name="P" horiz-adv-x="541" d="M268 294H166V0H91V700H291Q403 700 453 651T504 499T442 345T268 294ZM257 636H166V358H232Q335 358 382 389T429 495T388 603T257 636Z" />
<glyph unicode="Q" glyph-name="Q" horiz-adv-x="651" d="M533 96L631 -5L582 -54L487 47Q420 -7 326 -7T167 44Q46 139 46 355Q46 512 116 611T323 710T531 611T602 352T533 96ZM399 238L481 149Q527 225 527 350T474 561T324 646Q271 646 231 621T167 554Q122
470 122 350T173 144T324 59Q390 59 437 97L349 189L399 238Z" />
<glyph unicode="R" glyph-name="R" horiz-adv-x="603" d="M228 329H166V1H91V701H293Q395 701 446 655T498 522Q498 462 457 412T354 354Q403 343 423 323T472 235L571 1H492L395 225Q368 288 335 308T228 329ZM289 637H166V393H279Q341 393 377 429T414 522T381
607T289 637Z" />
<glyph unicode="S" glyph-name="S" horiz-adv-x="551" d="M443 675L427 608L369 625Q307 640 262 640Q144 640 144 535Q144 489 180 460T267 413T370 375T458 312T494 204Q494 105 433 50T260 -6Q204 -6 148 10T55 49L80 106Q171 64 252 64T376 97T419 193Q419
257 350 293Q319 309 282 323T207 353T139 391T89 448T69 532Q69 618 120 664T259 710T443 675Z" />
<glyph unicode="T" glyph-name="T" horiz-adv-x="504" d="M216 0V633H20V700H484V633H290V0H216Z" />
<glyph unicode="U" glyph-name="U" horiz-adv-x="664" d="M450 -6T332 -6T153 60T91 258V700H167V246Q167 157 209 108T330 59T453 107T497 246V700H573V258Q573 127 512 61Z" />
<glyph unicode="V" glyph-name="V" horiz-adv-x="546" d="M533 700L317 0H212L13 700H97L268 85L451 700H533Z" />
<glyph unicode="W" glyph-name="W" horiz-adv-x="751" d="M738 699L572 0H485L383 406L258 0H176L13 699H99L221 85L354 510H410L533 85L659 699H738Z" />
<glyph unicode="X" glyph-name="X" horiz-adv-x="584" d="M564 0H472L294 315L111 0H20L252 368L41 701H136L297 424L463 701H553L339 368L564 0Z" />
<glyph unicode="Y" glyph-name="Y" horiz-adv-x="552" d="M539 700L309 315V0H234V315L13 700H96L273 376L458 700H539Z" />
<glyph unicode="Z" glyph-name="Z" horiz-adv-x="508" d="M479 0H40V62L360 635H39V700H448V643L131 66H479V0Z" />
<glyph unicode="[" glyph-name="bracketleft" horiz-adv-x="340" d="M301 -200H91V800H298V735H166V-136H301V-200Z" />
<glyph unicode="\" glyph-name="backslash" horiz-adv-x="484" d="M363 -145L39 800H118L443 -145H363Z" />
<glyph unicode="]" glyph-name="bracketright" horiz-adv-x="340" d="M249 -200H39V-136H174V735H42V800H249V-200Z" />
<glyph unicode="^" glyph-name="asciicircum" horiz-adv-x="639" d="M347 667L571 275H494L319 594L146 275H66L291 667H347Z" />
<glyph unicode="_" glyph-name="underscore" horiz-adv-x="430" d="M430 -236H0V-171H430V-236Z" />
<glyph unicode="`" glyph-name="grave" horiz-adv-x="391" d="M264 592L206 571L76 703L151 733L264 592Z" />
<glyph unicode="a" glyph-name="a" horiz-adv-x="516" d="M307 299H348Q348 390 325 417T223 445T89 424L75 482Q159 510 249 510Q425 510 425 334V0H381L355 59Q309 21 276 8T198 -6Q128 -6 89 35T50 145Q50 299 307 299ZM349 236H304Q202 236 164 216T125 154T147
84T204 57T272 73T349 131V236Z" />
<glyph unicode="b" glyph-name="b" horiz-adv-x="546" d="M91 700H166V450Q252 511 320 511Q500 511 500 252Q500 105 436 46Q379 -6 302 -6Q263 -6 223 11T157 49L135 0H91V700ZM166 379V107Q186 84 219 71T285 58Q363 58 394 104T425 248T394 396T315 446Q243
446 166 379Z" />
<glyph unicode="c" glyph-name="c" horiz-adv-x="433" d="M385 78L400 19Q320 -5 259 -5Q152 -5 98 65T44 258T100 445T265 510Q312 510 397 486L367 428Q312 444 268 444Q192 444 159 399T125 257Q125 60 266 60Q322 60 385 78Z" />
<glyph unicode="d" glyph-name="d" horiz-adv-x="542" d="M376 700H451V0H407L382 57Q290 -8 222 -8Q42 -8 42 251Q42 398 106 456Q163 509 235 509T376 460V700ZM376 124V384Q355 409 321 427T257 445Q179 445 148 399T117 255T148 107T227 57Q299 57 376 124Z" />
<glyph unicode="e" glyph-name="e" horiz-adv-x="489" d="M438 234H119Q119 138 164 98T279 58Q314 58 328 61T354 68T372 74Q397 81 415 87L427 29Q327 -6 271 -6Q168 -6 106 56T44 244T102 440T250 510T390 452T440 295Q440 268 438 234ZM124 291H368Q368 365
342 405T252 445T157 402T124 291Z" />
<glyph unicode="f" glyph-name="f" horiz-adv-x="291" d="M113 500V596Q113 657 150 683T231 710T316 697L305 643Q272 649 256 649Q187 649 187 582V500H289V440H187V0H112V440H35V500H113Z" />
<glyph unicode="g" glyph-name="g" horiz-adv-x="542" d="M375 53Q291 -7 222 -7Q42 -7 42 252Q42 399 106 458Q163 510 244 510T381 436L407 501H451V-25Q451 -134 397 -187T251 -240Q204 -240 167 -228T90 -201L104 -148Q188 -175 244 -175T338 -140T375 -34V53ZM375
125V312Q375 371 336 408T256 445Q178 445 147 400T116 254Q116 58 226 58Q298 58 375 125Z" />
<glyph unicode="h" glyph-name="h" horiz-adv-x="556" d="M465 0H390V329Q390 450 289 450Q214 450 166 402V0H91V700H165V463Q187 481 199 489T240 505T305 513Q374 513 419 471T465 351V0Z" />
<glyph unicode="i" glyph-name="i" horiz-adv-x="228" d="M77 0V500H152V0H77ZM152 700V611H77V700H152Z" />
<glyph unicode="j" glyph-name="j" horiz-adv-x="222" d="M146 700V612H71V700H146ZM30 -204Q71 -151 71 -34V500H146V-10Q146 -96 130 -147T74 -239L30 -204Z" />
<glyph unicode="k" glyph-name="k" horiz-adv-x="509" d="M91 700H166V288L380 500H475L263 297L486 0H401L219 250L166 196V0H91V700Z" />
<glyph unicode="l" glyph-name="l" horiz-adv-x="257" d="M91 0V700H166V0H91Z" />
<glyph unicode="m" glyph-name="m" horiz-adv-x="850" d="M302 511Q398 511 439 443Q524 511 596 511T713 471T759 353V0H686V322Q686 383 659 414T585 446Q522 446 458 396Q463 374 463 353V0H390V322Q390 383 363 414T289 446Q259 446 234 438T197 422T166 398V0H91V500H139L152
449Q177 470 190 479T235 500T302 511Z" />
<glyph unicode="n" glyph-name="n" horiz-adv-x="554" d="M166 397V0H91V500H139L151 451Q174 469 188 479T235 499T303 510Q372 510 417 468T463 347V0H388V325Q388 446 287 446Q215 446 166 397Z" />
<glyph unicode="o" glyph-name="o" horiz-adv-x="518" d="M400 343T362 394T251 445T148 397T117 248Q117 59 256 59Q329 59 364 104T400 246ZM361 -6T257 -6T98 61T42 250T95 441T252 510T415 440T475 250T418 62Z" />
<glyph unicode="p" glyph-name="p" horiz-adv-x="546" d="M166 -238H91V499H135L161 443Q203 475 239 492T320 510Q500 510 500 251Q500 104 436 46Q379 -7 307 -7T166 41V-238ZM166 376V109Q186 85 220 71T285 57Q363 57 394 103T425 247T394 395T315 445Q283
445 252 432T205 408T166 376Z" />
<glyph unicode="q" glyph-name="q" horiz-adv-x="542" d="M376 138V369Q356 400 312 422T231 445Q172 445 145 400T117 255Q117 58 247 58Q286 58 321 80T376 138ZM451 -240H376V56L360 40Q344 25 333 18T296 2T237 -7Q154 -7 98 52T42 236T88 435T235 510Q306
510 381 443L407 500H451V-240Z" />
<glyph unicode="r" glyph-name="r" horiz-adv-x="371" d="M166 382V0H91V500H139L151 441Q199 479 231 494T304 510Q324 510 334 508L348 504L336 435Q318 441 287 441Q227 441 166 382Z" />
<glyph unicode="s" glyph-name="s" horiz-adv-x="436" d="M72 89Q137 59 196 59T285 82T316 145T290 205T227 239T152 265T88 307T62 378Q62 441 103 475T214 510T344 489L351 486L338 422Q278 445 227 445T156 429T137 375Q137 351 163 334T226 305T301 276T365
226T391 145Q391 75 342 35T207 -6T54 33L72 89Z" />
<glyph unicode="t" glyph-name="t" horiz-adv-x="346" d="M103 108V440H35V500H104V643H179V500H301V440H178V122Q178 55 246 55Q262 55 295 61L306 7Q265 -6 222 -6T141 20T103 108Z" />
<glyph unicode="u" glyph-name="u" horiz-adv-x="544" d="M377 127V500H453V0H409L384 59Q304 -6 231 -6T120 36T81 157V500H156V169Q156 110 173 84T231 58T314 80T377 127Z" />
<glyph unicode="v" glyph-name="v" horiz-adv-x="445" d="M434 501L265 0H179L11 501H96L223 80L351 501H434Z" />
<glyph unicode="w" glyph-name="w" horiz-adv-x="679" d="M157 0L11 500H89L200 79L303 500H377L488 75L590 500H668L531 0H443L340 395L243 0H157Z" />
<glyph unicode="x" glyph-name="x" horiz-adv-x="436" d="M113 501L218 324L323 501H406L259 255L412 0H329L218 198L107 0H24L177 255L30 501H113Z" />
<glyph unicode="y" glyph-name="y" horiz-adv-x="445" d="M180 -10L11 500H96L223 80L351 500H434L262 0Q229 -97 189 -150T86 -236L58 -184Q98 -161 133 -116T180 -10Z" />
<glyph unicode="z" glyph-name="z" horiz-adv-x="421" d="M49 500H356V440L136 65H368V0H49V60L269 435H49V500Z" />
<glyph unicode="{" glyph-name="braceleft" horiz-adv-x="356" d="M124 145Q124 278 30 278V324Q84 324 104 354T124 451V601Q124 801 305 801H326V737H306Q244 737 222 705T199 591V438Q199 369 185 343T123 304Q167 295 183 265T199 172V21Q199 -72 223 -104T309
-137H326V-201H303Q217 -201 171 -156T124 -5V145Z" />
<glyph unicode="|" glyph-name="bar" horiz-adv-x="291" d="M183 -203H108V800H183V-203Z" />
<glyph unicode="}" glyph-name="braceright" horiz-adv-x="356" d="M232 145V-5Q232 -111 186 -156T53 -201H30V-137H47Q109 -137 133 -105T157 21V172Q157 235 173 265T233 304Q185 317 171 343T157 438V591Q157 673 135 705T50 737H30V801H51Q232 801 232 601V451Q232
385 252 355T326 324V278Q232 278 232 145Z" />
<glyph unicode="~" glyph-name="asciitilde" horiz-adv-x="527" d="M473 308Q455 269 424 248T352 226T256 255T163 285T79 240L54 287Q73 315 104 333T176 351T271 321T363 291T448 337L473 308Z" />
<glyph unicode="&#xa0;" glyph-name="uni00A0" horiz-adv-x="400" />
<glyph unicode="&#xa1;" glyph-name="exclamdown" horiz-adv-x="266" d="M95 404H170V-107H95V404ZM96 594H171V501H96V594Z" />
<glyph unicode="&#xa2;" glyph-name="cent" horiz-adv-x="381" d="M325 173L338 110Q276 92 223 92V0H158V94Q44 130 44 303T158 509V606H223V510Q275 510 339 491L318 431Q274 444 235 444Q171 444 145 414T119 305T143 193T221 158T325 173Z" />
<glyph unicode="&#xa3;" glyph-name="sterling" horiz-adv-x="540" d="M203 415H370V350H203V65H475V0H128V350H60V415H128V596Q128 657 167 684T261 711Q291 711 335 697L324 643Q291 649 267 649T223 630T203 574V415Z" />
<glyph unicode="&#xa4;" glyph-name="currency" horiz-adv-x="608" d="M440 101Q386 61 300 61T161 105L106 50L61 96L119 154Q86 210 86 292T114 429L55 489L108 542L162 488Q216 529 302 529T446 481L509 544L555 498L489 432Q524 376 524 296T491 157L553 95L500
42L440 101ZM372 464T300 464T192 416T156 294T196 173T305 126T414 169T454 290T413 416Z" />
<glyph unicode="&#xa5;" glyph-name="yen" horiz-adv-x="610" d="M340 236V149H526V84H340V0H265V84H97V149H265V236H97V301H265L44 700H127L305 366L489 700H570L340 301H526V236H340Z" />
<glyph unicode="&#xa6;" glyph-name="brokenbar" horiz-adv-x="314" d="M185 413H120V806H185V413ZM185 -194H120V201H185V-194Z" />
<glyph unicode="&#xa7;" glyph-name="section" horiz-adv-x="604" d="M246 436Q151 374 151 312Q151 274 185 249T282 199T373 155Q378 159 389 166T404 177T416 186T428 197T436 209T444 224Q449 243 449 266T437 311T402 349T355 377T299 406T246 436ZM147 -49Q216
-92 284 -92T383 -67T415 0T380 71T296 120T196 161T111 221T76 312Q76 397 195 477Q158 514 158 562Q158 638 201 674T333 710Q394 710 448 690L465 683L453 621Q394 645 342 645Q234 645 234 559Q234 507 336 456Q379 435 421 412T494 351T524 266T503 187T428
117Q490 71 490 1T435 -113T280 -157Q243 -157 200 -144T128 -114L147 -49Z" />
<glyph unicode="&#xa8;" glyph-name="dieresis" horiz-adv-x="513" d="M123 709V815H194V709H123ZM302 709V815H373V709H302Z" />
<glyph unicode="&#xa9;" glyph-name="copyright" horiz-adv-x="551" d="M351 162L360 121Q318 109 281 109Q221 109 191 148T161 255T192 360T284 396Q300 396 359 383L343 343Q309 352 291 352Q247 352 230 332T212 259Q212 152 290 152Q322 152 351 162ZM429
353T387 416T270 479T158 417T121 254T162 93T276 31T388 89T429 250ZM484 128T429 55T273 -19T119 54T66 255T117 456T268 529T426 455T484 255Z" />
<glyph unicode="&#xaa;" glyph-name="ordfeminine" horiz-adv-x="363" d="M293 234H54V289H293V234ZM215 550L241 549Q241 606 227 621T162 637T77 623L68 667Q119 685 177 685Q290 685 290 573V361H262L246 399Q216 374 195 366T138 358T77 384T52 453Q52 550
215 550ZM238 505H205Q144 505 123 494T101 458T113 419T147 405Q190 405 238 450V505Z" />
<glyph unicode="&#xab;" glyph-name="guillemotleft" horiz-adv-x="511" d="M436 108L386 89L255 297L387 506L436 488L333 299L436 108ZM249 97L198 78L60 297L200 518L249 499L140 299L249 97Z" />
<glyph unicode="&#xac;" glyph-name="logicalnot" horiz-adv-x="518" d="M467 125H392V269H38V334H467V125Z" />
<glyph unicode="&#xad;" glyph-name="uni00AD" horiz-adv-x="400" d="M400 257H0V322H400V257Z" />
<glyph unicode="&#xae;" glyph-name="registered" horiz-adv-x="551" d="M345 662T270 662T158 600T121 437T162 276T276 214T391 273T434 433T390 598ZM484 311T429 238T273 164T119 237T66 438T117 639T268 712T426 638T484 438ZM238 426H226V305H186V584H272Q357
584 357 512Q357 489 340 469T299 447Q318 442 325 434T347 399L389 305H343L306 384Q294 409 280 417T238 426ZM273 550H226V473H267Q317 473 317 511T273 550Z" />
<glyph unicode="&#xaf;" glyph-name="overscore" horiz-adv-x="497" d="M88 614V679H405V614H88Z" />
<glyph unicode="&#xb0;" glyph-name="degree" horiz-adv-x="452" d="M295 776T343 728T392 611T343 493T225 444T107 492T58 609T107 727T225 776ZM269 501T300 533T331 611T300 690T224 722T149 690T117 612T148 534T224 501Z" />
<glyph unicode="&#xb1;" glyph-name="plusminus" horiz-adv-x="503" d="M458 357H285V164H210V357H46V422H210V622H285V422H458V357ZM458 -1H46V64H458V-1Z" />
<glyph unicode="&#xb2;" glyph-name="twosuperior" horiz-adv-x="436" d="M340 370L331 323H101V355Q163 417 188 444Q256 519 256 563Q256 619 195 619Q155 619 126 611L115 608L120 648Q169 662 216 662T289 641T314 576T283 485T176 370H340Z" />
<glyph unicode="&#xb3;" glyph-name="threesuperior" horiz-adv-x="425" d="M141 505H182Q218 505 238 521T258 566T243 604T199 614Q155 614 124 596L115 591L105 637Q146 662 198 662T278 637T306 574T287 510T236 478Q272 473 295 451T318 386T285 316T191
287Q166 287 142 293T107 306L96 312L109 355Q139 337 180 337Q267 337 267 389Q267 452 180 452H141V505Z" />
<glyph unicode="&#xb4;" glyph-name="acute" horiz-adv-x="404" d="M159 571L101 592L214 733L289 703L159 571Z" />
<glyph unicode="&#xb5;" glyph-name="mu" horiz-adv-x="558" d="M167 10V-236H92V500H168V169Q168 110 185 84T247 57Q317 57 389 127V500H465V0H421L396 59Q365 37 348 26Q299 -6 249 -6Q209 -6 178 6L167 10Z" />
<glyph unicode="&#xb6;" glyph-name="paragraph" horiz-adv-x="599" d="M308 -203H243V358Q165 358 118 408T70 531T118 657T269 710H534V650H464V-203H399V650H308V-203Z" />
<glyph unicode="&#xb7;" glyph-name="middot" horiz-adv-x="181" d="M128 247H53V350H128V247Z" />
<glyph unicode="&#xb8;" glyph-name="cedilla" horiz-adv-x="377" d="M272 0Q272 -48 261 -80T209 -177L160 -146Q186 -93 193 -69T201 0H272Z" />
<glyph unicode="&#xb9;" glyph-name="onesuperior" horiz-adv-x="378" d="M206 662H156L53 599L73 550L156 600V341H206V662ZM86 316V364H276V316H86Z" />
<glyph unicode="&#xba;" glyph-name="ordmasculine" horiz-adv-x="370" d="M301 234H62V288H301V234ZM254 582T236 616T183 650T129 616T111 528Q111 408 181 408Q254 408 254 528Q254 582 236 616ZM181 700Q314 700 314 529T179 358Q114 358 83 403T51 524T83
650T181 700Z" />
<glyph unicode="&#xbb;" glyph-name="guillemotright" horiz-adv-x="511" d="M75 488L125 507L256 299L124 90L75 108L178 297L75 488ZM262 499L313 518L451 299L311 78L262 97L371 297L262 499Z" />
<glyph unicode="&#xbc;" glyph-name="onequarter" horiz-adv-x="884" d="M653 688L245 0H172L580 688H653ZM692 0V85H489V126L657 427H715L552 135H692V250H743V134H811V85H743V0H692ZM88 316V364H157V600L75 550L55 599L158 662H208V364H278V316H88Z" />
<glyph unicode="&#xbd;" glyph-name="onehalf" horiz-adv-x="816" d="M653 688L245 0H172L580 688H653ZM762 46L753 0H523V33Q586 96 610 122T656 181T678 239Q678 295 617 295Q577 295 548 287L537 284L542 324Q591 338 638 338T711 317T736 252T705 161T598
46H762ZM75 316V364H145V600L62 550L42 599L145 662H195V364H265V316H75Z" />
<glyph unicode="&#xbe;" glyph-name="threequarters" horiz-adv-x="886" d="M128 504H169Q205 504 225 520T245 565T230 603T186 613Q138 613 112 596L102 590L92 636Q133 661 185 661T265 636T293 573T274 509T223 477Q259 472 282 450T305 385T272 315T178 286Q153
286 129 292T94 304L83 311L96 354Q126 336 166 336Q254 336 254 388Q254 451 167 451H128V504ZM692 0V85H489V126L657 427H715L552 135H692V250H744V134H811V85H743V0H692ZM653 688L245 0H172L580 688H653Z" />
<glyph unicode="&#xbf;" glyph-name="questiondown" horiz-adv-x="463" d="M122 176Q145 200 169 222Q226 276 226 345V408H300V350Q300 306 284 270T244 209T196 162Q140 108 140 51Q140 -42 251 -42Q316 -42 372 -23L383 -81Q302 -108 230 -108T111 -68T65 46T122
176ZM227 608H302V510H227V608Z" />
<glyph unicode="&#xc0;" glyph-name="Agrave" horiz-adv-x="579" d="M566 0H482L412 221H161L92 0H13L243 700H334L566 0ZM395 286L288 624L180 286H395ZM313 753H252L154 877H238L313 753Z" />
<glyph unicode="&#xc1;" glyph-name="Aacute" horiz-adv-x="579" d="M566 0H482L412 221H161L92 0H13L243 700H334L566 0ZM395 286L288 624L180 286H395ZM254 752L329 876H413L315 752H254Z" />
<glyph unicode="&#xc2;" glyph-name="Acircumflex" horiz-adv-x="579" d="M566 0H482L412 221H161L92 0H13L243 700H334L566 0ZM395 286L288 624L180 286H395ZM268 880H315L451 780L432 751L291 826L149 751L130 780L268 880Z" />
<glyph unicode="&#xc3;" glyph-name="Atilde" horiz-adv-x="579" d="M445 827Q424 799 398 778T352 757T274 784T203 812T176 803T153 784L145 774L112 800Q133 827 159 848T204 870T282 843T353 815T380 824T403 844L411 853L445 827ZM566 0H482L412 221H161L92
0H13L243 700H334L566 0ZM395 286L288 624L180 286H395Z" />
<glyph unicode="&#xc4;" glyph-name="Adieresis" horiz-adv-x="579" d="M566 0H482L412 221H161L92 0H13L243 700H334L566 0ZM395 286L288 624L180 286H395ZM165 755V861H236V755H165ZM344 755V861H415V755H344Z" />
<glyph unicode="&#xc5;" glyph-name="Aring" horiz-adv-x="579" d="M566 0H482L412 221H161L92 0H13L243 700H334L566 0ZM395 286L288 624L180 286H395ZM234 972T289 972T373 942T402 861T374 782T290 752T206 781T178 861T206 941ZM290 928Q234 928 234 863Q234
832 246 815T290 798T335 815T348 863Q348 928 290 928Z" />
<glyph unicode="&#xc6;" glyph-name="AE" horiz-adv-x="851" d="M777 0H380V221H200L92 0H13L341 700H777V635H455V413H752V346H455V65H777V0ZM380 634L230 286H380V634Z" />
<glyph unicode="&#xc7;" glyph-name="Ccedilla" horiz-adv-x="584" d="M379 -5Q379 -53 368 -85T316 -182L267 -151Q293 -99 300 -75T307 -4Q182 9 116 104T50 358T130 612T356 708Q440 708 514 679L496 617Q435 643 352 643Q247 643 186 567T125 358T182 142T343
59Q415 59 514 98L534 46Q489 18 379 -5Z" />
<glyph unicode="&#xc8;" glyph-name="Egrave" horiz-adv-x="542" d="M468 0H91V700H468V635H166V413H443V346H166V65H468V0ZM330 753H269L171 877H255L330 753Z" />
<glyph unicode="&#xc9;" glyph-name="Eacute" horiz-adv-x="542" d="M468 0H91V700H468V635H166V413H443V346H166V65H468V0ZM215 752L290 876H374L276 752H215Z" />
<glyph unicode="&#xca;" glyph-name="Ecircumflex" horiz-adv-x="543" d="M468 0H91V700H468V635H166V413H443V346H166V65H468V0ZM238 880H285L421 780L402 751L261 826L119 751L100 780L238 880Z" />
<glyph unicode="&#xcb;" glyph-name="Edieresis" horiz-adv-x="542" d="M468 0H91V700H468V635H166V413H443V346H166V65H468V0ZM151 755V861H222V755H151ZM330 755V861H401V755H330Z" />
<glyph unicode="&#xcc;" glyph-name="Igrave" horiz-adv-x="253" d="M187 0H112V700H187V0ZM181 753H120L22 877H106L181 753Z" />
<glyph unicode="&#xcd;" glyph-name="Iacute" horiz-adv-x="254" d="M138 0H63V700H138V0ZM70 753L145 877H229L131 753H70Z" />
<glyph unicode="&#xce;" glyph-name="Icircumflex" horiz-adv-x="312" d="M196 0H121V700H196V0ZM137 883H184L320 783L301 754L160 829L18 754L-1 783L137 883Z" />
<glyph unicode="&#xcf;" glyph-name="Idieresis" horiz-adv-x="226" d="M149 0H74V700H149V0ZM-13 755V861H58V755H-13ZM166 755V861H237V755H166Z" />
<glyph unicode="&#xd0;" glyph-name="Eth" horiz-adv-x="695" d="M119 317H36V382H119V700H296Q445 700 535 609T625 375Q625 206 527 103T265 0H119V317ZM200 317V65H274Q387 65 465 150T544 383Q544 501 472 568T300 635H200V382H376V317H200Z" />
<glyph unicode="&#xd1;" glyph-name="Ntilde" horiz-adv-x="679" d="M492 831V824Q471 796 445 775T399 754T321 781T250 809T223 800T200 780L192 771L159 804Q180 831 206 852T251 874T329 847T400 819T427 828T450 848L458 857L492 831ZM588 -1H506L169 560V0H91V700H169L513
118V700H588V-1Z" />
<glyph unicode="&#xd2;" glyph-name="Ograve" horiz-adv-x="648" d="M323 -5Q186 -5 116 96T46 355T116 611T323 710T531 611T602 355Q602 140 480 45Q415 -5 323 -5ZM325 645Q223 645 173 560T122 352T173 145T325 61T476 146T527 360Q527 522 436 602Q389 645
325 645ZM336 753H275L177 877H261L336 753Z" />
<glyph unicode="&#xd3;" glyph-name="Oacute" horiz-adv-x="648" d="M323 -5Q186 -5 116 96T46 355T116 611T323 710T531 611T602 355Q602 140 480 45Q415 -5 323 -5ZM325 645Q223 645 173 560T122 352T173 145T325 61T476 146T527 360Q527 522 436 602Q389 645
325 645ZM276 753L351 877H435L337 753H276Z" />
<glyph unicode="&#xd4;" glyph-name="Ocircumflex" horiz-adv-x="648" d="M323 -5Q186 -5 116 96T46 355T116 611T323 710T531 611T602 355Q602 140 480 45Q415 -5 323 -5ZM325 645Q223 645 173 560T122 352T173 145T325 61T476 146T527 360Q527 522 436 602Q389
645 325 645ZM301 883H348L484 783L465 754L324 829L182 754L163 783L301 883Z" />
<glyph unicode="&#xd5;" glyph-name="Otilde" horiz-adv-x="648" d="M467 824Q446 796 420 775T374 754T296 781T225 809T198 800T175 780L167 771L134 797Q155 824 181 845T226 867T304 840T375 812T402 821T425 840L433 850L467 824ZM323 -5Q186 -5 116 96T46
355T116 611T323 710T531 611T602 355Q602 140 480 45Q415 -5 323 -5ZM325 645Q223 645 173 560T122 352T173 145T325 61T476 146T527 360Q527 522 436 602Q389 645 325 645Z" />
<glyph unicode="&#xd6;" glyph-name="Odieresis" horiz-adv-x="648" d="M323 -5Q186 -5 116 96T46 355T116 611T323 710T531 611T602 355Q602 140 480 45Q415 -5 323 -5ZM325 645Q223 645 173 560T122 352T173 145T325 61T476 146T527 360Q527 522 436 602Q389
645 325 645ZM199 754V860H270V754H199ZM378 754V860H449V754H378Z" />
<glyph unicode="&#xd7;" glyph-name="multiply" horiz-adv-x="608" d="M555 498L353 296L553 95L500 42L300 243L106 50L61 96L254 289L55 489L108 542L307 342L509 544L555 498Z" />
<glyph unicode="&#xd8;" glyph-name="Oslash" horiz-adv-x="648" d="M210 103L388 633Q360 645 325 645Q223 645 173 560T122 355Q122 179 210 103ZM449 595L273 68Q295 61 324 61Q425 61 476 146T527 360Q527 427 507 491T449 595ZM515 800L468 663Q531 617 566
536T602 355T573 175T480 45T323 -5Q266 -5 244 11L200 -109H132L180 35Q113 79 80 163T46 355Q46 512 116 611T323 710Q369 710 411 697L446 800H515Z" />
<glyph unicode="&#xd9;" glyph-name="Ugrave" horiz-adv-x="664" d="M450 -6T332 -6T153 60T91 258V700H167V246Q167 157 209 108T330 59T453 107T497 246V700H573V258Q573 127 512 61ZM367 754H306L208 878H292L367 754Z" />
<glyph unicode="&#xda;" glyph-name="Uacute" horiz-adv-x="664" d="M450 -6T332 -6T153 60T91 258V700H167V246Q167 157 209 108T330 59T453 107T497 246V700H573V258Q573 127 512 61ZM298 753L373 877H457L359 753H298Z" />
<glyph unicode="&#xdb;" glyph-name="Ucircumflex" horiz-adv-x="664" d="M450 -6T332 -6T153 60T91 258V700H167V246Q167 157 209 108T330 59T453 107T497 246V700H573V258Q573 127 512 61ZM310 883H357L493 783L474 754L333 829L191 754L172 783L310 883Z" />
<glyph unicode="&#xdc;" glyph-name="Udieresis" horiz-adv-x="664" d="M450 -6T332 -6T153 60T91 258V700H167V246Q167 157 209 108T330 59T453 107T497 246V700H573V258Q573 127 512 61ZM208 754V860H279V754H208ZM387 754V860H458V754H387Z" />
<glyph unicode="&#xdd;" glyph-name="Yacute" horiz-adv-x="552" d="M539 700L309 315V0H234V315L13 700H96L273 376L458 700H539ZM228 752L303 876H387L289 752H228Z" />
<glyph unicode="&#xde;" glyph-name="Thorn" horiz-adv-x="546" d="M158 700V590H289Q402 589 452 540T502 388T440 235T266 184H164V0H89V700H158ZM255 526H164V248H230Q333 248 380 279T427 385T386 493T255 526Z" />
<glyph unicode="&#xdf;" glyph-name="germandbls" horiz-adv-x="568" d="M524 198Q524 99 459 47T274 -6Q257 -6 242 -1V52Q349 52 399 90T449 209Q449 261 406 301T282 343H254V407H281Q334 407 377 442T421 528T388 612T296 645Q215 645 191 610T166 498V0H91V532Q91
624 137 667T284 710T441 658T496 536T461 428T363 382Q432 373 478 324T524 198Z" />
<glyph unicode="&#xe0;" glyph-name="agrave" horiz-adv-x="516" d="M307 299H348Q348 390 325 417T223 445T89 424L75 482Q159 510 249 510Q425 510 425 334V0H381L355 59Q309 21 276 8T198 -6Q128 -6 89 35T50 145Q50 299 307 299ZM349 236H304Q202 236 164
216T125 154T147 84T204 57T272 73T349 131V236ZM309 592L251 571L121 703L196 733L309 592Z" />
<glyph unicode="&#xe1;" glyph-name="aacute" horiz-adv-x="516" d="M307 299H348Q348 390 325 417T223 445T89 424L75 482Q159 510 249 510Q425 510 425 334V0H381L355 59Q309 21 276 8T198 -6Q128 -6 89 35T50 145Q50 299 307 299ZM349 236H304Q202 236 164
216T125 154T147 84T204 57T272 73T349 131V236ZM297 571L239 592L352 733L427 703L297 571Z" />
<glyph unicode="&#xe2;" glyph-name="acircumflex" horiz-adv-x="516" d="M307 299H348Q348 390 325 417T223 445T89 424L75 482Q159 510 249 510Q425 510 425 334V0H381L355 59Q309 21 276 8T198 -6Q128 -6 89 35T50 145Q50 299 307 299ZM349 236H304Q202 236
164 216T125 154T147 84T204 57T272 73T349 131V236ZM229 712H276L412 612L393 583L252 658L110 583L91 612L229 712Z" />
<glyph unicode="&#xe3;" glyph-name="atilde" horiz-adv-x="516" d="M307 299H348Q348 390 325 417T223 445T89 424L75 482Q159 510 249 510Q425 510 425 334V0H381L355 59Q309 21 276 8T198 -6Q128 -6 89 35T50 145Q50 299 307 299ZM349 236H304Q202 236 164
216T125 154T147 84T204 57T272 73T349 131V236ZM419 657V650Q398 622 372 601T326 580T248 607T177 635T150 626T127 606L119 597L86 630Q107 657 133 678T178 700T256 673T327 645T354 654T377 674L385 683L419 657Z" />
<glyph unicode="&#xe4;" glyph-name="adieresis" horiz-adv-x="516" d="M307 299H348Q348 390 325 417T223 445T89 424L75 482Q159 510 249 510Q425 510 425 334V0H381L355 59Q309 21 276 8T198 -6Q128 -6 89 35T50 145Q50 299 307 299ZM349 236H304Q202 236 164
216T125 154T147 84T204 57T272 73T349 131V236ZM127 850V956H198V850H127ZM306 850V956H377V850H306Z" />
<glyph unicode="&#xe5;" glyph-name="aring" horiz-adv-x="516" d="M307 299H348Q348 390 325 417T223 445T89 424L75 482Q159 510 249 510Q425 510 425 334V0H381L355 59Q309 21 276 8T198 -6Q128 -6 89 35T50 145Q50 299 307 299ZM349 236H304Q202 236 164 216T125
154T147 84T204 57T272 73T349 131V236ZM198 772T253 772T337 742T366 661T338 582T254 552T170 581T142 661T170 741ZM254 728Q198 728 198 663Q198 632 210 615T254 598T299 615T312 663Q312 728 254 728Z" />
<glyph unicode="&#xe6;" glyph-name="ae" horiz-adv-x="789" d="M349 236H304Q202 236 164 216T125 154T147 84T204 57T272 73T349 131V236ZM384 84Q298 -6 198 -6Q128 -6 89 35T50 145Q50 299 307 299H348Q348 390 325 417T223 445T89 424L75 482Q159 510 249
510Q362 510 402 440Q460 510 549 510T689 452T739 295Q739 268 737 234H418Q418 138 463 98T578 58Q613 58 627 61T653 68T671 74Q696 81 714 87L726 29Q626 -6 570 -6Q441 -6 384 84ZM423 291H667Q667 365 641 405T551 445T456 402T423 291Z" />
<glyph unicode="&#xe7;" glyph-name="ccedilla" horiz-adv-x="433" d="M221 -2L208 0Q126 16 85 83T44 266T100 445T265 510Q326 506 397 486L367 428Q312 444 268 444Q192 444 159 399T125 257Q125 60 266 60Q322 60 385 78L400 19Q392 17 289 -5Q289 -53 278
-85T226 -182L177 -151Q205 -98 213 -73T221 -2Z" />
<glyph unicode="&#xe8;" glyph-name="egrave" horiz-adv-x="489" d="M438 234H119Q119 138 164 98T279 58Q314 58 328 61T354 68T372 74Q397 81 415 87L427 29Q327 -6 271 -6Q168 -6 106 56T44 244T102 440T250 510T390 452T440 295Q440 268 438 234ZM124 291H368Q368
365 342 405T252 445T157 402T124 291ZM310 592L252 571L122 703L197 733L310 592Z" />
<glyph unicode="&#xe9;" glyph-name="eacute" horiz-adv-x="489" d="M438 234H119Q119 138 164 98T279 58Q314 58 328 61T354 68T372 74Q397 81 415 87L427 29Q327 -6 271 -6Q168 -6 106 56T44 244T102 440T250 510T390 452T440 295Q440 268 438 234ZM124 291H368Q368
365 342 405T252 445T157 402T124 291ZM240 571L182 592L295 733L370 703L240 571Z" />
<glyph unicode="&#xea;" glyph-name="ecircumflex" horiz-adv-x="489" d="M438 234H119Q119 138 164 98T279 58Q314 58 328 61T354 68T372 74Q397 81 415 87L427 29Q327 -6 271 -6Q168 -6 106 56T44 244T102 440T250 510T390 452T440 295Q440 268 438 234ZM124
291H368Q368 365 342 405T252 445T157 402T124 291ZM226 712H273L409 612L390 583L249 658L107 583L88 612L226 712Z" />
<glyph unicode="&#xeb;" glyph-name="edieresis" horiz-adv-x="489" d="M438 234H119Q119 138 164 98T279 58Q314 58 328 61T354 68T372 74Q397 81 415 87L427 29Q327 -6 271 -6Q168 -6 106 56T44 244T102 440T250 510T390 452T440 295Q440 268 438 234ZM124 291H368Q368
365 342 405T252 445T157 402T124 291ZM123 595V701H194V595H123ZM302 595V701H373V595H302Z" />
<glyph unicode="&#xec;" glyph-name="igrave" horiz-adv-x="226" d="M77 0V500H150V0H77ZM152 586L94 565L-36 697L39 727L152 586Z" />
<glyph unicode="&#xed;" glyph-name="iacute" horiz-adv-x="226" d="M77 0V500H150V0H77ZM139 571L81 592L194 733L269 703L139 571Z" />
<glyph unicode="&#xee;" glyph-name="icircumflex" horiz-adv-x="228" d="M77 0V500H152V0H77ZM92 712H139L275 612L256 583L115 658L-27 583L-46 612L92 712Z" />
<glyph unicode="&#xef;" glyph-name="idieresis" horiz-adv-x="228" d="M77 0V500H152V0H77ZM-10 594V700H61V594H-10ZM169 594V700H240V594H169Z" />
<glyph unicode="&#xf0;" glyph-name="eth" horiz-adv-x="573" d="M441 349T407 396T296 443T190 397T160 252Q160 59 297 59Q370 59 405 106T441 251ZM379 701L267 643Q402 515 459 449T516 258T459 64T299 -6T139 63T83 254T140 442T308 511L211 609L102 548L63
588L176 651Q101 713 86 723L138 758L229 681L341 739L379 701Z" />
<glyph unicode="&#xf1;" glyph-name="ntilde" horiz-adv-x="554" d="M166 397V0H91V500H139L151 451Q174 469 188 479T235 499T303 510Q372 510 417 468T463 347V0H388V325Q388 446 287 446Q215 446 166 397ZM443 912V905Q422 877 396 856T350 835T272 862T201
890T174 881T151 862L143 852L110 885Q131 912 157 933T202 955T280 928T351 900T378 909T401 928L409 938L443 912Z" />
<glyph unicode="&#xf2;" glyph-name="ograve" horiz-adv-x="518" d="M400 343T362 394T251 445T148 397T117 248Q117 59 256 59Q329 59 364 104T400 246ZM361 -6T257 -6T98 61T42 250T95 441T252 510T415 440T475 250T418 62ZM326 592L268 571L138 703L213 733L326 592Z" />
<glyph unicode="&#xf3;" glyph-name="oacute" horiz-adv-x="518" d="M400 343T362 394T251 445T148 397T117 248Q117 59 256 59Q329 59 364 104T400 246ZM361 -6T257 -6T98 61T42 250T95 441T252 510T415 440T475 250T418 62ZM254 571L196 592L309 733L384 703L254 571Z" />
<glyph unicode="&#xf4;" glyph-name="ocircumflex" horiz-adv-x="518" d="M400 343T362 394T251 445T148 397T117 248Q117 59 256 59Q329 59 364 104T400 246ZM361 -6T257 -6T98 61T42 250T95 441T252 510T415 440T475 250T418 62ZM236 968H283L419 868L400 839L259
914L117 839L98 868L236 968Z" />
<glyph unicode="&#xf5;" glyph-name="otilde" horiz-adv-x="518" d="M178 445T148 397T117 248Q117 59 256 59Q329 59 364 104T400 246T362 394T251 445ZM361 -6T257 -6T98 61T42 250T95 441T252 510T415 440T475 250T418 62ZM426 657V650Q405 622 379 601T333
580T255 607T184 635T157 626T134 606L126 597L93 630Q114 657 140 678T185 700T263 673T334 645T361 654T384 674L392 683L426 657Z" />
<glyph unicode="&#xf6;" glyph-name="odieresis" horiz-adv-x="518" d="M400 343T362 394T251 445T148 397T117 248Q117 59 256 59Q329 59 364 104T400 246ZM361 -6T257 -6T98 61T42 250T95 441T252 510T415 440T475 250T418 62ZM133 850V956H204V850H133ZM312
850V956H383V850H312Z" />
<glyph unicode="&#xf7;" glyph-name="divide" horiz-adv-x="524" d="M305 0H230V106H305V0ZM305 394H230V500H305V394ZM478 228H46V293H478V228Z" />
<glyph unicode="&#xf8;" glyph-name="oslash" horiz-adv-x="518" d="M389 338L178 82Q205 59 256 59Q329 59 364 106T400 252Q400 302 389 338ZM137 139L361 406Q323 446 250 446T147 398T117 249Q117 197 137 139ZM530 507L443 403Q475 342 475 254Q475 133 418
64T257 -6Q186 -6 134 30L74 -43L22 1L90 80Q42 156 42 266T95 443T244 511T401 457L473 545L530 507Z" />
<glyph unicode="&#xf9;" glyph-name="ugrave" horiz-adv-x="554" d="M387 500H463V0H419L394 59Q314 -6 241 -6T130 36T91 157V500H166V169Q166 110 183 84T241 58T324 80T387 127V500ZM333 592L275 571L145 703L220 733L333 592Z" />
<glyph unicode="&#xfa;" glyph-name="uacute" horiz-adv-x="554" d="M387 127V500H463V0H419L394 59Q314 -6 241 -6T130 36T91 157V500H166V169Q166 110 183 84T241 58T324 80T387 127ZM271 571L213 592L326 733L401 703L271 571Z" />
<glyph unicode="&#xfb;" glyph-name="ucircumflex" horiz-adv-x="554" d="M387 127V500H463V0H419L394 59Q314 -6 241 -6T130 36T91 157V500H166V169Q166 110 183 84T241 58T324 80T387 127ZM254 712H301L437 612L418 583L277 658L135 583L116 612L254 712Z" />
<glyph unicode="&#xfc;" glyph-name="udieresis" horiz-adv-x="554" d="M387 500H463V0H419L394 59Q314 -6 241 -6T130 36T91 157V500H166V169Q166 110 183 84T241 58T324 80T387 127V500ZM152 594V700H223V594H152ZM331 594V700H402V594H331Z" />
<glyph unicode="&#xfd;" glyph-name="yacute" horiz-adv-x="445" d="M180 -10L11 500H96L223 80L351 500H434L262 0Q229 -97 189 -150T86 -236L58 -184Q98 -161 133 -116T180 -10ZM201 571L143 592L256 733L331 703L201 571Z" />
<glyph unicode="&#xfe;" glyph-name="thorn" horiz-adv-x="546" d="M91 700H166V450Q252 511 320 511Q500 511 500 252Q500 105 436 46Q379 -6 304 -6T165 44V-201H91V700ZM166 379V107Q186 84 219 71T285 58Q363 58 394 104T425 248T394 396T315 446Q243 446 166 379Z" />
<glyph unicode="&#xff;" glyph-name="ydieresis" horiz-adv-x="445" d="M100 596V702H171V596H100ZM279 596V702H350V596H279ZM11 500H96L223 80L351 500H434L262 0Q229 -97 189 -150T86 -236L58 -184Q98 -161 133 -116T180 -10L11 500Z" />
<glyph unicode="&#x2013;" glyph-name="endash" horiz-adv-x="500" d="M500 257H0V322H500V257Z" />
<glyph unicode="&#x2014;" glyph-name="emdash" horiz-adv-x="800" d="M800 257H0V322H800V257Z" />
<glyph unicode="&#x2018;" glyph-name="quoteleft" horiz-adv-x="268" d="M57 510L171 769L226 752L139 485L57 510Z" />
<glyph unicode="&#x2019;" glyph-name="quoteright" horiz-adv-x="267" d="M210 745L97 485L41 502L129 769L210 745Z" />
<glyph unicode="&#x201a;" glyph-name="quotesinglbase" horiz-adv-x="268" d="M210 98L97 -162L41 -145L129 122L210 98Z" />
<glyph unicode="&#x201c;" glyph-name="quotedblleft" horiz-adv-x="466" d="M57 512L171 767L224 751L135 488L57 512ZM259 510L370 767L423 751L336 486L259 510Z" />
<glyph unicode="&#x201d;" glyph-name="quotedblright" horiz-adv-x="465" d="M407 741L293 486L240 502L329 765L407 741ZM205 743L94 486L41 502L128 767L205 743Z" />
<glyph unicode="&#x201e;" glyph-name="quotedblbase" horiz-adv-x="465" d="M407 96L293 -159L240 -143L329 120L407 96ZM205 98L94 -159L41 -143L128 122L205 98Z" />
<glyph unicode="&#x2022;" glyph-name="bullet" horiz-adv-x="470" d="M281 394T319 356T357 265T319 174T228 136T137 173T99 264T137 356T228 394Z" />
<glyph unicode="&#x2039;" glyph-name="guilsinglleft" horiz-adv-x="330" d="M253 105L197 82L59 296L198 512L253 489L145 298L253 105Z" />
<glyph unicode="&#x203a;" glyph-name="guilsinglright" horiz-adv-x="330" d="M78 489L134 512L272 298L133 82L78 105L186 296L78 489Z" />
</font>
</defs>
</svg>
