<?xml version="1.0" standalone="no"?>
<!DOCTYPE svg PUBLIC "-//W3C//DTD SVG 1.1//EN" "http://www.w3.org/Graphics/SVG/1.1/DTD/svg11.dtd">
<svg xmlns="http://www.w3.org/2000/svg">
<defs >
<font id="Vollkorn" horiz-adv-x="611" ><font-face
    font-family="Vollkorn"
    units-per-em="1000"
    panose-1="0 0 8 0 0 0 0 0 0 0"
    ascent="952"
    descent="-441"
    alphabetic="0" />
<glyph unicode=" " glyph-name="space" horiz-adv-x="200" />
<glyph unicode="!" glyph-name="exclam" horiz-adv-x="411" d="M261 483T246 246Q216 236 169 236Q152 474 121 678Q153 682 193 693T259 716Q273 712 279 703T285 677Q285 672 283 656Q261 483 246 246ZM290 39T267 16T206 -8Q168 -8 146 13T124 72Q124 108 148
130T212 152Q246 152 268 129T290 77Q290 39 267 16Z" />
<glyph unicode="&quot;" glyph-name="quotedbl" horiz-adv-x="381" d="M166 658Q159 614 148 499L142 442Q127 442 109 445T85 453Q78 594 60 690Q106 696 143 716Q155 713 162 702T168 678L166 658ZM320 663Q314 617 303 490L299 441Q258 441 239 451L237 477Q233
550 229 597T217 690Q262 697 295 716Q321 710 321 678L320 663Z" />
<glyph unicode="#" glyph-name="numbersign" horiz-adv-x="610" d="M469 437L436 269H548Q548 230 534 197H439H422L382 -9Q334 -6 316 14L352 197Q245 197 203 196L163 -9Q142 -7 124 0T97 18L132 196L78 195Q39 195 24 194Q24 240 38 269H146L179 436Q137 436
73 434Q73 476 87 509H193L234 716Q256 714 274 708T300 692L264 509H413L453 716Q474 715 493 709T519 694L483 509H585Q585 466 572 437H496H469ZM399 437H250L217 269H366L399 437Z" />
<glyph unicode="$" glyph-name="dollar" horiz-adv-x="559" d="M524 108T470 55T311 -7L312 -87Q295 -87 274 -83T243 -73V-8Q144 -3 46 51Q58 113 58 208Q93 218 150 218Q155 142 175 105T243 61V267Q187 293 149 319T85 387T59 490Q59 578 111 626T250 683V749Q292
749 319 735L318 684Q364 680 406 668T473 641Q473 546 480 498Q464 490 440 486T391 482Q381 541 363 572T318 614Q317 552 317 419Q386 386 425 362T494 296T524 191Q524 108 470 55ZM184 516T201 494T250 453V619Q219 614 202 595T184 545Q184 516 201 494ZM349
68T367 89T386 141Q386 171 367 192T310 234Q310 121 311 61Q349 68 367 89Z" />
<glyph unicode="%" glyph-name="percent" horiz-adv-x="863" d="M169 -5T154 5T131 30L678 686Q697 684 714 677T742 657L189 -7Q169 -5 154 5ZM195 359T159 380T105 437T87 512Q87 556 106 594T164 654T256 677Q303 677 337 655T388 598T406 526Q406 480 387
442T332 382T246 359Q195 359 159 380ZM273 419T290 444T308 513Q308 559 290 588T244 618Q220 618 203 591T186 524Q186 478 204 449T252 419Q273 419 290 444ZM565 -8T529 13T475 70T457 145Q457 189 476 227T534 287T626 310Q673 310 707 288T758 231T776 159Q776
113 757 75T702 15T616 -8Q565 -8 529 13ZM643 52T660 77T678 146Q678 192 660 221T614 251Q590 251 573 224T556 157Q556 111 574 82T622 52Q643 52 660 77Z" />
<glyph unicode="&amp;" glyph-name="ampersand" horiz-adv-x="776" d="M636 104T659 94T722 82Q722 39 712 10Q676 10 625 5T538 -9Q518 18 478 68Q437 27 392 9T285 -10Q169 -10 111 48T53 200Q53 338 200 416Q176 456 165 490T154 562Q154 632 205 674T364 717Q415
717 455 709T534 681Q526 641 526 594Q526 578 528 544Q495 534 441 534Q436 596 417 625T358 655Q328 655 311 637T294 583Q294 543 313 503T388 391Q442 320 522 229Q554 286 564 328Q568 348 568 354Q568 376 553 387T501 406Q492 435 492 461Q522 458 605 458Q679
458 708 461Q708 428 701 406Q668 396 655 381T629 328Q615 286 601 254T565 180L608 134Q636 104 659 94ZM356 69T382 81T435 120Q401 162 366 201Q335 237 277 307Q246 347 239 357Q197 312 197 235Q197 153 233 111T324 69Q356 69 382 81Z" />
<glyph unicode="&apos;" glyph-name="quotesingle" horiz-adv-x="229" d="M169 676T167 664Q160 623 155 564T146 440Q107 440 85 453Q80 577 60 690Q83 692 105 699T141 716Q167 710 169 678Q169 676 167 664Z" />
<glyph unicode="(" glyph-name="parenleft" horiz-adv-x="325" d="M213 622T185 515T156 254Q156 94 188 -32T284 -260Q264 -273 231 -271Q142 -166 89 -36T35 240Q35 383 82 500T226 741Q254 742 278 723Q213 622 185 515Z" />
<glyph unicode=")" glyph-name="parenright" horiz-adv-x="325" d="M195 619T242 504T290 257Q290 100 237 -32T94 -271Q60 -273 42 -260Q110 -149 139 -34T169 242Q169 398 141 511T48 723Q69 741 99 741Q195 619 242 504Z" />
<glyph unicode="*" glyph-name="asterisk" horiz-adv-x="479" d="M344 636T404 659Q418 625 418 582Q418 571 416 547Q344 562 266 569Q298 524 357 450Q309 411 252 405Q245 468 226 552Q188 506 139 433Q86 467 70 514Q126 541 198 586Q140 609 60 631Q67 657
81 681T114 722Q157 675 220 621Q222 646 222 693Q222 742 220 768Q248 769 277 763T327 746Q295 691 262 614Q344 636 404 659Z" />
<glyph unicode="+" glyph-name="plus" horiz-adv-x="550" d="M507 266T505 251T495 221Q415 222 311 222V14Q301 8 280 5T237 2Q239 68 239 222Q174 222 42 220Q42 266 54 292H239Q239 404 238 492Q254 499 269 501T311 504V292H507Q507 266 505 251Z" />
<glyph unicode="," glyph-name="comma" horiz-adv-x="291" d="M231 -18T201 -79T121 -186Q103 -185 87 -179T62 -164Q128 -90 128 -39Q128 2 68 10Q68 61 80 101Q147 107 186 132Q210 124 220 104T231 42Q231 -18 201 -79Z" />
<glyph unicode="-" glyph-name="hyphen" horiz-adv-x="419" d="M359 253T346 218Q166 218 60 212Q60 232 64 257T77 301H359Q359 253 346 218Z" />
<glyph unicode="." glyph-name="period" horiz-adv-x="287" d="M103 -9T79 14T54 78Q54 117 81 141T150 166Q187 166 211 141T236 84Q236 43 211 17T145 -9Q103 -9 79 14Z" />
<glyph unicode="/" glyph-name="slash" horiz-adv-x="385" d="M52 -4T31 12L293 715Q310 714 327 707T358 691L98 -9Q52 -4 31 12Z" />
<glyph unicode="0" glyph-name="zero" horiz-adv-x="617" d="M582 175T546 115T449 23T312 -9Q235 -9 172 23T71 115T34 255Q34 334 72 391T174 477T312 506Q388 506 449 477T546 390T582 255Q582 175 546 115ZM179 228T197 178T251 94T331 61Q382 61 408 109T435
228Q435 275 417 325T366 408T289 442Q239 442 209 394T179 278Q179 228 197 178Z" />
<glyph unicode="1" glyph-name="one" horiz-adv-x="402" d="M274 118T279 97T299 68T343 59Q350 37 350 -3Q292 0 201 0Q107 0 53 -3Q53 35 59 59Q88 62 102 70T122 99T128 160V342Q128 383 123 403T103 431T59 441Q53 468 53 503Q101 500 201 500Q302 500 350
503Q350 466 343 441Q314 439 300 431T280 403T274 342V161Q274 118 279 97Z" />
<glyph unicode="2" glyph-name="two" horiz-adv-x="519" d="M465 83T476 32Q470 16 458 7T427 -2Q327 0 238 0Q141 0 65 -2Q46 25 46 71Q89 113 198 207Q258 259 279 292T300 362Q300 400 282 421T227 442Q192 442 174 415T148 313Q102 313 69 325Q72 351 72 388Q72
434 67 458Q107 482 155 494T269 506Q357 506 403 475T449 382Q449 335 421 300T318 210Q258 164 217 129H315Q350 129 365 132T386 147T396 184Q444 184 465 176Q465 83 476 32Z" />
<glyph unicode="3" glyph-name="three" horiz-adv-x="510" d="M455 476T452 440Q375 343 287 226Q372 225 421 179T471 47Q471 -17 439 -66T344 -143T197 -171Q144 -171 103 -159T36 -124Q40 -92 62 -71Q105 -103 175 -103Q237 -103 278 -68T320 28Q320 76 293
105T213 134Q197 134 181 128Q171 139 165 155T160 185Q255 302 307 376H213Q182 376 166 371T139 350T117 302Q73 302 51 319Q59 361 61 399T63 503Q183 500 255 500Q324 500 435 503Q455 476 452 440Z" />
<glyph unicode="4" glyph-name="four" horiz-adv-x="607" d="M564 76T560 54T555 0H463V-146Q430 -146 395 -153T335 -171Q325 -163 321 -151T316 -121V0H297Q174 0 55 -7Q28 42 28 85L365 506Q417 508 463 498V125H530Q547 125 557 120T576 103Q564 76 560 54ZM316
125V350L154 124L316 125Z" />
<glyph unicode="5" glyph-name="five" horiz-adv-x="481" d="M208 500T308 500Q333 500 345 514T357 552Q379 559 425 559Q419 501 419 397Q407 373 370 373Q207 373 152 369L135 295Q296 267 368 211T440 55Q440 -18 401 -69T299 -145T170 -171Q83 -171 43 -144Q43
-113 60 -90Q88 -104 150 -104Q210 -104 249 -69T289 25Q289 142 79 175Q57 197 54 227L116 504Q208 500 308 500Z" />
<glyph unicode="6" glyph-name="six" horiz-adv-x="552" d="M412 395T464 347T517 212Q517 138 483 89T394 15T278 -9Q35 -9 35 240Q35 378 97 466T250 594T432 638Q448 622 446 584Q337 562 276 509T195 363Q256 395 320 395Q412 395 464 347ZM327 59T349 93T371
181Q371 251 337 287T257 324Q224 324 186 306Q183 276 183 242Q183 180 198 139T236 78T285 59Q327 59 349 93Z" />
<glyph unicode="7" glyph-name="seven" horiz-adv-x="478" d="M129 -172T121 -158T113 -113Q113 -46 139 28T210 180T327 371H214Q180 371 161 366T131 345T111 298Q63 297 32 313Q48 380 50 502Q99 500 234 500Q353 500 428 502Q446 481 448 441Q409 385 374
324T320 221Q288 147 277 81T265 -113Q232 -123 200 -140T145 -176Q129 -172 121 -158Z" />
<glyph unicode="8" glyph-name="eight" horiz-adv-x="547" d="M437 317T468 273T500 167Q500 82 441 37T272 -9Q165 -9 106 33T47 152Q47 208 76 251T168 328Q120 359 94 394T68 478Q68 551 122 594T277 637Q369 637 424 601T480 501Q480 409 372 359Q437 317
468 273ZM243 581T226 563T208 514Q208 477 229 453T304 399L308 397Q345 431 345 489Q345 532 326 556T273 581Q243 581 226 563ZM319 52T338 74T358 133Q358 181 326 217T232 290Q207 268 197 241T187 173Q187 117 213 85T283 52Q319 52 338 74Z" />
<glyph unicode="9" glyph-name="nine" horiz-adv-x="555" d="M399 506T460 444T522 250Q522 118 454 26T287 -114T98 -169Q82 -151 84 -113Q308 -49 360 122Q304 92 240 92Q179 92 133 116T60 184T34 283Q34 360 69 410T159 483T279 506Q399 506 460 444ZM339
165T373 183Q376 209 376 237Q376 339 348 389T270 440Q231 440 207 405T182 315Q182 265 199 231T245 181T304 165Q339 165 373 183Z" />
<glyph unicode=":" glyph-name="colon" horiz-adv-x="287" d="M104 287T82 308T60 367Q60 403 84 425T148 447Q183 447 205 424T227 372Q227 334 204 311T143 287Q104 287 82 308ZM104 7T82 28T60 87Q60 123 84 145T148 167Q183 167 205 144T227 92Q227 54 204
31T143 7Q104 7 82 28Z" />
<glyph unicode=";" glyph-name="semicolon" horiz-adv-x="297" d="M114 287T92 308T70 367Q70 403 94 425T158 447Q193 447 215 424T237 372Q237 334 214 311T153 287Q114 287 92 308ZM235 -18T205 -79T125 -186Q107 -185 91 -179T66 -164Q132 -90 132 -39Q132
2 72 10Q72 61 84 101Q151 107 190 132Q214 124 224 104T235 42Q235 -18 205 -79Z" />
<glyph unicode="&lt;" glyph-name="less" horiz-adv-x="550" d="M242 130T59 222Q57 236 57 243Q57 273 72 298L421 504Q441 499 456 488T486 459L141 260L465 90Q468 77 468 62Q468 22 453 4Q242 130 59 222Z" />
<glyph unicode="=" glyph-name="equal" horiz-adv-x="550" d="M51 352T64 379H499Q499 355 497 340T487 308Q407 309 282 309Q142 309 51 307Q51 352 64 379ZM50 176T63 202H500Q500 160 488 131Q408 132 282 132Q141 132 50 130Q50 176 63 202Z" />
<glyph unicode="&gt;" glyph-name="greater" horiz-adv-x="550" d="M488 276T488 264Q488 239 473 216Q384 170 309 126T113 7Q99 20 93 39T88 80L407 260L76 458Q97 497 134 509L485 286Q488 276 488 264Z" />
<glyph unicode="?" glyph-name="question" horiz-adv-x="537" d="M381 716T426 684T472 591Q472 544 453 513T393 441Q355 403 336 373T317 300Q317 265 330 224Q306 210 264 210Q242 223 227 259T211 335Q211 380 227 410T275 473Q301 501 314 523T327 575Q327
612 309 633T266 655Q237 655 221 626T195 523Q144 523 113 540Q116 578 116 612Q116 642 113 672Q199 716 297 716Q381 716 426 684ZM250 -9T226 14T201 78Q201 117 228 141T297 166Q334 166 358 141T383 84Q383 43 358 17T292 -9Q250 -9 226 14Z" />
<glyph unicode="@" glyph-name="at" horiz-adv-x="999" d="M846 -39T857 -68Q811 -131 720 -166T522 -202Q381 -202 287 -148T146 3T100 228Q100 349 152 447T303 603T538 660Q656 660 737 619T859 508T899 348Q899 244 866 163T777 36T653 -9Q613 -9 592 17T570
89V119Q516 -9 416 -9Q279 -9 279 202Q279 278 306 338T378 433T479 467Q531 467 585 456Q652 456 685 467Q701 459 706 442T711 371V207Q711 153 713 129T722 96T743 88Q760 88 780 115T815 196T829 327Q829 404 797 465T696 564T525 601Q413 601 336 554T219
423T180 235Q180 132 218 47T337 -88T536 -139Q620 -139 692 -112T816 -30Q846 -39 857 -68ZM495 87T514 113T549 190T573 312Q573 337 575 379Q540 404 502 404Q473 404 457 389T432 338T424 236Q424 159 438 123T476 87Q495 87 514 113Z" />
<glyph unicode="A" glyph-name="A" horiz-adv-x="711" d="M695 32T695 -3Q647 0 557 0Q454 0 409 -3Q409 37 416 59Q440 64 451 71T462 93Q462 105 449 136L426 190Q293 190 182 183L169 150Q159 122 159 106Q159 65 207 59Q214 35 214 -3Q180 0 107 0Q45 0 17
-3Q17 34 25 59Q50 63 65 83T105 163L315 677Q329 680 343 681T375 682L604 169Q625 122 637 100T661 70T687 59Q695 32 695 -3ZM401 246L347 372Q321 431 300 500Q280 434 256 373L206 246H401Z" />
<glyph unicode="B" glyph-name="B" horiz-adv-x="673" d="M632 358T632 195Q632 105 564 53T350 0Q161 0 42 -3Q42 37 48 59Q76 61 90 69T110 99T116 165V517Q116 558 111 577T91 605T48 617Q42 641 42 679Q81 676 148 676Q207 676 242 677L339 678Q469 678 529
643T589 527Q589 465 549 422T436 369Q632 358 632 195ZM433 557T398 586T313 616Q291 616 269 608V380H303Q370 380 401 412T433 499Q433 557 398 586ZM402 60T432 92T462 183Q462 258 417 288T293 319H269V160Q269 118 277 97T303 68T349 60Q402 60 432 92Z"
/>
<glyph unicode="C" glyph-name="C" horiz-adv-x="642" d="M270 -9T195 35T77 159T35 342Q35 451 82 528T206 645T375 685Q486 685 595 633Q584 570 584 478Q561 466 506 466Q504 552 472 588T380 624Q286 624 241 551T196 368Q196 236 253 153T419 70Q459 70 502
83T586 120Q594 113 600 101T609 76Q559 35 501 13T367 -9Q270 -9 195 35Z" />
<glyph unicode="D" glyph-name="D" horiz-adv-x="735" d="M498 678T599 610T700 355Q700 207 635 129T488 25T328 0Q183 0 42 -3Q42 37 48 59Q76 61 90 69T110 99T116 165V517Q116 558 111 577T91 605T48 617Q42 641 42 679Q102 676 220 676Q252 676 269 677L331
678Q498 678 599 610ZM434 62T488 120T542 338Q542 487 481 553T324 619Q290 619 269 610V168Q269 125 276 103T300 71T352 62Q434 62 488 120Z" />
<glyph unicode="E" glyph-name="E" horiz-adv-x="626" d="M578 185T599 164Q579 103 568 -2Q468 0 328 0Q183 0 42 -3Q42 37 48 59Q76 61 90 69T110 99T116 165V517Q116 558 111 577T91 605T48 617Q42 636 42 679Q120 676 267 676Q471 676 542 679Q544 637 549
589T563 510Q533 495 487 495Q478 553 446 585T337 617H268V369H297Q351 369 370 384T391 444Q421 454 462 454Q458 388 458 340Q458 285 462 223Q416 223 393 231Q389 276 369 292T297 308H268V168Q268 125 275 103T300 71T352 62H364Q414 62 444 75T491 116T523
193Q578 185 599 164Z" />
<glyph unicode="F" glyph-name="F" horiz-adv-x="592" d="M268 617V340H316Q370 340 390 356T411 416Q440 426 481 426Q478 377 478 312Q478 242 481 194Q438 194 413 202Q409 248 389 264T316 280H268V175Q268 131 277 107T308 73T369 59Q376 39 376 -3Q324 0
214 0Q97 0 42 -3Q42 41 48 59Q76 61 90 69T110 98T116 160V517Q116 558 111 577T92 605T49 617Q42 639 42 679Q123 676 266 676Q476 676 545 679Q552 567 566 510Q538 495 490 495Q482 553 450 585T341 617H268Z" />
<glyph unicode="G" glyph-name="G" horiz-adv-x="713" d="M274 -9T197 33T77 156T35 345Q35 452 80 529T206 645T388 685Q454 685 516 671T625 635Q614 572 614 480Q586 468 536 468Q532 554 495 588T389 623Q324 623 280 588T216 495T195 368Q195 279 218 209T287
98T394 57Q436 57 458 67Q475 74 483 88T491 140V181Q491 219 486 236T465 259T414 267Q407 289 407 330Q457 327 538 327Q606 327 670 329Q670 290 664 267Q645 266 637 260T625 239T622 190V157Q622 126 625 108T638 68Q591 33 523 12T378 -9Q274 -9 197 33Z"
/>
<glyph unicode="H" glyph-name="H" horiz-adv-x="780" d="M665 119T670 99T690 70T732 59Q739 39 739 -3Q687 0 597 0Q500 0 438 -3Q438 35 446 59Q474 61 487 69T506 98T512 160V317Q340 317 268 308V160Q268 119 274 99T294 70T336 59Q342 38 342 -3Q291 0 200
0Q104 0 42 -3Q42 33 49 59Q77 61 91 69T110 98T116 160V517Q116 558 111 577T92 605T49 617Q42 639 42 679Q93 676 195 676Q282 676 342 679Q342 662 341 646T335 617Q307 614 293 606T274 578T268 517V380H512V517Q512 558 507 577T488 605T445 617Q438 639 438
679Q491 676 591 676Q679 676 739 679Q739 639 731 617Q703 614 690 606T671 578T665 517V160Q665 119 670 99Z" />
<glyph unicode="I" glyph-name="I" horiz-adv-x="384" d="M116 558T111 577T92 605T49 617Q42 639 42 679Q93 676 195 676Q282 676 342 679Q342 662 341 646T335 617Q307 614 293 606T274 578T268 517V160Q268 119 274 99T294 70T336 59Q342 38 342 -3Q291 0 200
0Q104 0 42 -3Q42 33 49 59Q77 61 91 69T110 98T116 160V517Q116 558 111 577Z" />
<glyph unicode="J" glyph-name="J" horiz-adv-x="365" d="M256 30T239 -36T170 -155T21 -249Q-2 -233 -7 -196Q32 -167 55 -136T91 -61T103 50V515Q103 557 98 577T78 606T36 617Q29 639 29 679Q65 676 179 676Q294 676 330 679Q330 640 322 617Q294 614 280 605T261
576T256 515V131Q256 30 239 -36Z" />
<glyph unicode="K" glyph-name="K" horiz-adv-x="727" d="M608 108T637 87T712 61Q712 19 703 0Q656 0 591 -2T492 -8Q452 68 392 157T268 313V160Q268 119 274 99T294 70T336 59Q342 38 342 -3Q291 0 200 0Q104 0 42 -3Q42 33 49 59Q77 61 91 69T110 98T116 160V517Q116
558 111 577T92 605T49 617Q42 639 42 679Q93 676 195 676Q282 676 342 679Q342 662 341 646T335 617Q307 614 293 606T274 578T268 517V367L427 529Q470 572 470 596Q470 615 441 617Q434 638 434 679Q469 676 542 676Q636 676 673 679Q673 663 671 646T664 617Q627
615 595 597T523 536L390 398Q468 312 572 161Q608 108 637 87Z" />
<glyph unicode="L" glyph-name="L" horiz-adv-x="605" d="M428 62T460 91T514 193Q569 185 591 164Q569 95 560 -2Q458 0 328 0Q183 0 42 -3Q42 37 48 59Q76 61 90 69T110 99T116 165V517Q116 557 111 577T91 605T48 617Q42 641 42 679Q120 676 192 676Q283 676
343 679Q343 636 336 617Q308 614 294 606T275 578T269 515V168Q269 125 276 103T300 71T352 62H364Q428 62 460 91Z" />
<glyph unicode="M" glyph-name="M" horiz-adv-x="968" d="M947 37T947 -3Q905 0 785 0Q730 0 646 -3Q646 26 653 59Q690 63 703 75T716 123Q716 134 712 180L680 486L484 -1Q464 -9 424 -9L203 484L176 215Q172 180 172 150Q172 100 187 81T238 59Q244 36 244
-3Q207 0 136 0Q90 0 21 -3Q21 32 28 59Q55 61 71 74T96 121T112 217L138 510Q140 536 140 546Q140 586 125 601T74 617Q67 639 67 679Q106 676 179 676Q253 676 288 679L500 193L683 679Q728 676 798 676Q864 676 907 679Q907 641 900 617Q864 617 848 600T832
540Q832 531 834 507L866 192Q872 136 879 110T900 73T941 60Q947 37 947 -3Z" />
<glyph unicode="N" glyph-name="N" horiz-adv-x="725" d="M653 676T690 679Q690 641 684 617Q659 615 646 603T628 562T623 474V0Q596 -8 553 -8L180 488V204Q180 146 186 116T207 74T254 59Q261 39 261 -3Q218 0 149 0Q71 0 33 -3Q33 39 40 59Q70 61 86 74T109
117T116 204V574L106 587Q95 602 82 608T40 617Q33 642 33 679Q69 676 140 676Q210 676 233 679L558 240V474Q558 532 552 561T530 602T480 617Q474 645 474 679Q518 676 589 676Q653 676 690 679Z" />
<glyph unicode="O" glyph-name="O" horiz-adv-x="748" d="M271 -9T195 35T77 159T35 341Q35 444 78 522T199 642T373 685Q473 685 550 643T670 525T713 348Q713 245 671 164T551 37T373 -9Q271 -9 195 35ZM466 56T509 130T553 325Q553 407 529 475T459 582T357
622Q283 622 239 554T195 366Q195 282 217 211T282 98T389 56Q466 56 509 130Z" />
<glyph unicode="P" glyph-name="P" horiz-adv-x="643" d="M387 297T418 332T449 446Q449 524 416 569T313 615Q293 615 268 608V175Q268 131 277 107T308 73T369 59Q376 39 376 -3Q324 0 213 0Q97 0 42 -3Q42 41 48 59Q76 61 90 69T110 98T116 160V517Q116 558
111 577T92 605T49 617Q42 639 42 679Q129 676 193 676L296 677Q322 678 358 678Q608 678 608 476Q608 407 580 352T498 264T367 232Q324 232 298 242Q296 258 296 264Q296 286 303 301Q319 297 339 297Q387 297 418 332Z" />
<glyph unicode="Q" glyph-name="Q" horiz-adv-x="748" d="M779 -127T769 -156Q686 -169 611 -203Q576 -191 553 -168T505 -107Q474 -62 448 -39T374 -9H373Q271 -9 195 35T77 159T35 341Q35 444 78 522T199 642T373 685Q473 685 550 643T670 525T713 348Q713 230
658 142T506 15Q534 6 556 -6T608 -38Q651 -66 681 -79T757 -92L777 -91Q779 -127 769 -156ZM195 282T217 211T282 98T389 56Q466 56 509 130T553 325Q553 407 529 475T459 582T357 622Q283 622 239 554T195 366Q195 282 217 211Z" />
<glyph unicode="R" glyph-name="R" horiz-adv-x="703" d="M609 95T627 80T686 62Q686 27 678 0Q541 0 484 -9Q456 43 426 113L415 138Q392 190 372 220T320 281L294 280L268 281V166Q268 121 273 99T290 69T325 59Q331 43 331 -3Q271 0 181 0Q99 0 42 -3Q42 35
48 59Q76 61 90 69T110 98T116 160V518Q116 559 111 579T91 607T48 618Q42 638 42 679Q135 676 190 676Q208 676 264 678Q334 680 380 680Q496 680 555 630T615 501Q615 423 573 373T460 304Q496 281 518 251T582 142Q609 95 627 80ZM369 343T412 379T455 483Q455
547 422 582T325 618Q293 618 268 610V347Q289 343 305 343Q369 343 412 379Z" />
<glyph unicode="S" glyph-name="S" horiz-adv-x="559" d="M210 -9T156 6T46 51Q58 113 58 208Q93 218 150 218Q155 130 182 94T276 58Q332 58 359 81T386 141Q386 169 370 189T328 224T257 260Q194 289 155 314T87 383T59 490Q59 586 121 635T284 685Q338 685
391 672T473 641Q473 546 480 498Q464 490 440 486T391 482Q377 561 350 591T276 621Q234 621 209 602T184 545Q184 515 202 493T248 454T324 416Q388 386 428 361T496 294T524 191Q524 101 460 46T273 -9Q210 -9 156 6Z" />
<glyph unicode="T" glyph-name="T" horiz-adv-x="659" d="M616 601T634 502Q604 489 554 489Q546 555 520 585T441 615H406V160Q406 118 413 98T438 70T495 59Q503 40 503 -3Q445 0 337 0Q211 0 150 -3Q150 32 159 59Q198 61 217 69T245 98T253 160V615H230Q171
615 145 586T104 489Q50 489 25 502Q34 545 40 593T46 679Q118 676 333 676Q512 676 618 679Q616 601 634 502Z" />
<glyph unicode="U" glyph-name="U" horiz-adv-x="687" d="M584 183T572 131T526 46Q468 -9 355 -9Q259 -9 203 17T123 96T99 235V514Q99 557 94 576T77 604T36 617Q30 643 30 679Q70 676 157 676Q277 676 324 679Q324 640 318 617Q288 613 275 605T257 577T252
514V251Q252 157 284 109T390 60Q416 60 442 70T485 100Q503 123 511 161T520 275V486Q520 536 514 562T494 601T452 617Q447 646 447 679Q484 676 551 676Q614 676 652 679Q652 643 646 617Q620 613 607 602T589 565T584 491V273Q584 183 572 131Z" />
<glyph unicode="V" glyph-name="V" horiz-adv-x="698" d="M645 676T681 679Q681 646 673 617Q646 611 629 588T589 508Q506 293 382 -1Q361 -8 314 -8Q202 292 109 499Q86 551 74 573T51 604T23 617Q15 641 17 679Q62 676 161 676Q257 676 309 679Q309 647 303
617Q275 614 263 607T251 582Q251 561 272 513Q347 330 393 187Q467 358 524 520Q534 550 534 567Q534 610 486 617Q479 641 480 679Q517 676 581 676Q645 676 681 679Z" />
<glyph unicode="W" glyph-name="W" horiz-adv-x="993" d="M936 676T976 679Q976 640 968 617Q950 611 938 598T914 556T885 473L740 -1Q729 -5 706 -7T663 -9Q591 194 491 448L335 -2Q313 -9 258 -9Q189 223 102 491Q81 550 71 574T52 605T23 615Q17 634 17 679Q65
676 160 676Q267 676 310 679Q310 645 303 617Q271 614 257 606T243 577Q243 556 261 506Q306 369 347 228L503 677Q524 684 569 684Q653 473 743 219L822 474Q837 524 837 552Q837 582 822 597T772 617Q764 638 764 679Q806 676 874 676Q936 676 976 679Z" />
<glyph unicode="X" glyph-name="X" horiz-adv-x="702" d="M673 38T673 -3Q630 0 515 0Q423 0 363 -2Q363 34 369 59Q389 62 398 66T407 83Q407 96 396 120T361 185L314 264L255 178Q213 115 213 92Q213 78 223 71T257 59Q263 35 263 -3Q212 0 144 0Q70 0 29 -3Q29
43 37 61Q74 70 105 95T175 175L278 321Q229 399 161 502Q128 553 111 575T81 604T50 616Q42 640 42 679Q94 676 211 676Q285 676 347 678Q347 649 341 617Q320 613 310 607T300 588Q300 569 333 516L396 419L449 502Q485 561 485 585Q485 599 475 606T444 617Q438
639 438 679Q487 676 552 676Q622 676 659 679Q659 641 653 617Q627 610 611 600T576 569T529 505L434 360Q466 309 530 204Q567 142 588 113T626 74T665 59Q673 38 673 -3Z" />
<glyph unicode="Y" glyph-name="Y" horiz-adv-x="632" d="M588 676T616 678Q616 648 609 618Q586 613 567 592T525 523L397 251V182Q397 129 403 106T427 73T486 59Q495 33 495 -3Q417 0 319 0Q258 0 170 -2Q159 -3 141 -3Q141 37 150 59Q195 63 213 71T238 102T244
177V254L93 558Q78 588 62 601T24 617Q17 639 17 678Q56 676 156 676Q273 676 309 678Q309 645 303 618Q264 612 264 586Q264 569 280 535Q328 434 371 327Q409 418 461 532Q476 562 476 581Q476 612 433 617Q425 646 425 678Q456 676 526 676Q588 676 616 678Z"
/>
<glyph unicode="Z" glyph-name="Z" horiz-adv-x="606" d="M532 188T561 169Q552 134 546 85T538 -3Q451 0 278 0Q135 0 57 -3Q42 20 42 51L80 115Q173 271 237 384T365 617H272Q234 617 211 606T173 566T145 479Q86 479 61 491Q72 530 77 581T83 678Q129 676 322
676Q465 676 530 678Q546 656 547 624Q393 329 229 60H317Q371 60 400 70T447 108T478 193Q532 188 561 169Z" />
<glyph unicode="[" glyph-name="bracketleft" horiz-adv-x="294" d="M71 741T131 741Q199 741 240 742Q247 730 249 715T252 679Q201 675 178 668T146 644T137 591V-123Q137 -156 146 -172T177 -195T241 -204Q248 -219 250 -233T252 -269Q178 -267 149 -267Q119
-267 35 -269V742Q71 741 131 741Z" />
<glyph unicode="\" glyph-name="backslash" horiz-adv-x="394" d="M94 715T98 713L363 0Q345 -7 309 -7Q297 -7 293 -6L27 709Q46 715 81 715Q94 715 98 713Z" />
<glyph unicode="]" glyph-name="bracketright" horiz-adv-x="294" d="M175 -267T145 -267Q116 -267 42 -269Q42 -247 44 -233T53 -204Q96 -202 117 -196T147 -173T157 -123V591Q157 627 148 643T116 667T42 679Q42 723 53 742Q95 741 163 741Q223 741 259 742V-269Q175
-267 145 -267Z" />
<glyph unicode="^" glyph-name="asciicircum" horiz-adv-x="550" d="M150 476T78 375Q63 386 52 402T38 434L242 692Q266 704 307 702Q347 639 406 554T511 405Q499 395 480 391T442 388L276 624Q150 476 78 375Z" />
<glyph unicode="_" glyph-name="underscore" horiz-adv-x="550" d="M23 -106T36 -81H527Q527 -125 514 -148Q439 -147 381 -147T262 -147L103 -148L23 -149Q23 -106 36 -81Z" />
<glyph unicode="`" glyph-name="grave" horiz-adv-x="300" d="M143 584T114 621T48 693Q105 718 182 715Q210 622 252 545Q227 532 177 534Q143 584 114 621Z" />
<glyph unicode="a" glyph-name="a" horiz-adv-x="549" d="M523 82T523 69Q523 45 514 24Q432 21 365 -9Q348 -2 341 11T333 49Q333 59 337 87Q321 50 295 29Q253 -7 178 -7Q110 -7 73 22T36 105Q36 190 116 226T318 280Q318 324 314 346T296 384Q274 409 240 409Q202
409 184 377T161 297Q132 297 113 299T77 307Q79 333 79 349Q79 391 71 427Q114 446 168 457T272 468Q374 468 420 422Q442 400 453 362T464 256V170Q464 136 468 120T484 96T522 88Q523 82 523 69ZM318 226Q250 214 216 194T182 132Q182 105 195 92T229 78Q251
78 271 92T305 133T318 200V226Z" />
<glyph unicode="b" glyph-name="b" horiz-adv-x="603" d="M463 467T516 415T569 256Q569 179 535 119T439 25T295 -9Q218 -9 152 10T53 62Q65 76 70 101T76 172V555Q76 592 62 607T2 625Q2 663 13 684Q62 684 116 694T192 717Q222 705 222 664V452Q222 414 216
384Q227 401 240 412Q260 433 295 450T372 467Q463 467 516 415ZM345 51T382 91T419 234Q419 302 393 343T325 385Q282 385 252 344T222 215V85Q238 68 255 60T296 51Q345 51 382 91Z" />
<glyph unicode="c" glyph-name="c" horiz-adv-x="468" d="M167 -9T101 51T34 227Q34 289 61 344T140 433T267 467Q321 467 361 457T435 425Q425 378 425 301Q396 288 346 288Q343 345 322 375T267 406Q226 406 203 362T180 241Q180 170 214 119T315 67Q379 67
420 106Q441 87 444 58Q417 26 374 9T274 -9Q167 -9 101 51Z" />
<glyph unicode="d" glyph-name="d" horiz-adv-x="612" d="M587 73Q587 45 577 24Q539 22 499 14T426 -9Q409 -2 402 10T394 48Q394 70 400 95Q384 65 363 46Q345 25 309 8T231 -9Q140 -9 87 43T34 202Q34 278 68 338T165 433T309 467Q347 467 381 457V555Q381
592 367 607T307 625Q307 663 318 684Q368 684 421 694T498 717Q527 705 527 664V169Q527 135 531 119T547 96T586 88L587 73ZM321 73T351 114T381 242V373Q365 390 348 398T307 407Q259 407 222 367T185 224Q185 155 210 114T278 73Q321 73 351 114Z" />
<glyph unicode="e" glyph-name="e" horiz-adv-x="513" d="M458 108T465 93T474 62Q436 26 388 9T277 -9Q155 -9 95 56T34 226Q34 297 63 351T145 436T268 467Q371 467 422 410T478 253Q472 224 453 205Q281 205 186 200Q195 138 228 103T322 67Q357 67 391 79T448
114Q458 108 465 93ZM229 405T207 370T182 264H341Q341 331 322 368T265 405Q229 405 207 370Z" />
<glyph unicode="f" glyph-name="f" horiz-adv-x="396" d="M461 644T461 594Q461 569 462 558Q447 552 421 549T371 547Q371 595 355 622T309 649Q279 649 267 620T254 515V448H364Q364 401 354 382Q300 382 254 369V175Q254 131 263 107T294 73T354 59Q361 39
361 -3Q308 0 205 0Q89 0 34 -3Q34 37 40 59Q68 61 82 69T102 98T108 160V373Q67 384 31 384Q31 428 45 448H108V482Q108 558 139 610T222 689T341 716Q379 716 412 708T467 686Q461 644 461 594Z" />
<glyph unicode="g" glyph-name="g" horiz-adv-x="552" d="M421 79T468 54T515 -41Q515 -97 479 -145T375 -221T222 -249Q118 -249 74 -217T29 -126Q29 -92 47 -66T102 -24Q59 1 59 57Q59 120 118 170Q44 213 44 302Q44 379 97 423T248 467Q291 467 327 458H515Q525
433 525 380Q482 395 431 400Q452 377 463 350T474 298Q474 228 418 184T256 140Q219 140 186 146Q168 130 168 116Q168 99 184 92T229 83T326 80Q421 79 468 54ZM221 413T205 387T188 316Q188 259 209 229T269 199Q299 199 315 224T332 296Q332 350 311 381T253
413Q221 413 205 387ZM315 -182T351 -159T388 -99Q388 -81 378 -71T343 -57T267 -53Q197 -51 168 -46Q157 -59 153 -71T148 -99Q148 -142 172 -162T253 -182Q315 -182 351 -159Z" />
<glyph unicode="h" glyph-name="h" horiz-adv-x="656" d="M623 40T623 -3Q536 0 498 0Q401 0 354 -3Q354 38 362 59Q391 59 405 80T419 153V258Q419 318 400 344T344 370Q304 370 276 328T247 210V146Q247 96 260 78T303 59Q309 46 310 32T312 -3Q269 0 174 0Q72
0 27 -3Q27 40 35 59Q74 59 87 77T101 146V555Q101 592 87 607T27 625Q27 663 38 684Q87 684 141 694T217 717Q247 705 247 664V412Q247 390 237 352Q239 355 246 371T265 401Q289 427 325 444T405 462Q474 462 519 422T565 299V146Q565 97 576 78T615 59Q623 40
623 -3Z" />
<glyph unicode="i" glyph-name="i" horiz-adv-x="356" d="M132 544T109 563T86 615Q86 650 110 670T173 691Q214 691 236 671T259 616Q259 585 235 565T169 544Q132 544 109 563ZM34 37T41 59Q81 61 94 78T108 146V305Q108 342 94 357T34 375Q34 413 45 434Q94
434 148 444T225 467Q254 455 254 414V146Q254 96 267 79T317 59Q323 40 323 -3Q280 0 179 0Q76 0 34 -3Q34 37 41 59Z" />
<glyph unicode="j" glyph-name="j" horiz-adv-x="312" d="M129 544T106 563T83 615Q83 650 107 670T170 691Q211 691 233 671T256 616Q256 585 232 565T166 544Q129 544 106 563ZM36 -242T26 -228T14 -195Q66 -140 85 -92T105 29V305Q105 342 91 357T31 375Q31
413 42 434Q92 434 145 444T222 467Q251 455 251 414V61Q251 -48 191 -128T50 -249Q36 -242 26 -228Z" />
<glyph unicode="k" glyph-name="k" horiz-adv-x="610" d="M532 84T548 74T593 61Q593 24 583 0Q478 0 421 -9Q393 33 345 95T247 213V146Q247 98 258 80T298 59Q305 40 305 -3Q260 0 169 0Q69 0 27 -3Q27 37 34 59Q74 61 87 78T101 146V555Q101 592 87 607T27
625Q27 663 38 684Q87 684 141 694T217 717Q247 705 247 664V261L316 322Q365 366 365 382Q365 390 359 394T337 399Q327 429 327 460Q393 458 468 458Q502 458 562 460Q562 423 552 399Q514 396 488 384T425 338L363 281Q429 218 509 114Q532 84 548 74Z" />
<glyph unicode="l" glyph-name="l" horiz-adv-x="343" d="M27 37T34 59Q74 61 87 78T101 146V561Q101 594 86 608T27 625Q27 663 38 684Q87 684 141 694T217 717Q247 705 247 664V146Q247 96 260 79T310 59Q316 40 316 -3Q273 0 172 0Q69 0 27 -3Q27 37 34 59Z" />
<glyph unicode="m" glyph-name="m" horiz-adv-x="972" d="M940 35T940 -3Q906 0 813 0Q724 0 671 -3Q671 34 678 59Q700 61 712 70T730 102T736 168V260Q736 321 718 345T666 370Q622 370 595 329T567 210V150Q567 98 579 80T626 59Q634 39 634 -3Q601 0 496 0Q392
0 356 -3Q356 38 364 59Q389 61 401 69T418 101T423 173V268Q423 325 405 348T349 372Q323 372 301 353T266 297T253 212V150Q253 114 258 95T275 69T311 59Q319 36 319 -3Q287 0 174 0Q64 0 34 -3Q34 36 42 59Q70 61 83 68T102 93T108 146V286Q108 322 104 339T84
365T35 375Q35 411 47 434Q93 434 145 444T223 467Q236 463 244 450T252 414Q252 396 243 352Q260 391 272 403Q295 430 331 448T410 466Q458 466 495 446T550 386Q559 370 560 354Q574 384 591 403Q613 428 647 444T722 460Q798 460 839 420T881 290V173Q881 123
885 100T899 69T932 59Q940 35 940 -3Z" />
<glyph unicode="n" glyph-name="n" horiz-adv-x="663" d="M630 40T630 -3Q543 0 505 0Q408 0 361 -3Q361 38 369 59Q398 59 412 80T426 153V258Q426 319 408 344T351 370Q311 370 283 328T254 210V146Q254 96 267 78T311 59Q319 37 319 -3Q276 0 181 0Q79 0 34
-3Q34 40 42 59Q81 59 94 77T108 146V294Q108 325 103 341T83 365T35 375Q35 414 47 434Q100 435 150 444T225 467Q254 456 254 412Q254 385 244 352Q246 355 253 371T272 401Q296 427 332 444T412 462Q481 462 526 423T572 299V146Q572 97 583 78T622 59Q630 40
630 -3Z" />
<glyph unicode="o" glyph-name="o" horiz-adv-x="574" d="M165 -9T100 53T34 224Q34 299 67 354T158 438T289 467Q410 467 475 403T540 233Q540 160 509 105T419 21T284 -9Q165 -9 100 53ZM342 55T366 98T390 210Q390 271 375 315T333 383T276 406Q232 406 209
364T185 254Q185 164 215 110T298 55Q342 55 366 98Z" />
<glyph unicode="p" glyph-name="p" horiz-adv-x="635" d="M290 -9T254 1V-67Q254 -111 263 -135T294 -169T354 -183Q361 -203 361 -245Q309 -242 205 -242Q90 -242 34 -245Q34 -206 40 -183Q68 -181 82 -173T102 -144T108 -82V294Q108 325 103 341T83 365T35 375Q35
414 47 434Q100 435 150 444T225 467Q254 456 254 412Q254 400 250 387Q262 403 272 412Q292 433 327 450T404 467Q495 467 548 416T601 260Q601 182 567 121T470 25T326 -9Q290 -9 254 1ZM315 385T285 344T254 216V85Q270 68 287 60T328 51Q377 51 414 91T451
234Q451 299 427 342T358 385Q315 385 285 344Z" />
<glyph unicode="q" glyph-name="q" horiz-adv-x="602" d="M598 -205T598 -245Q563 -242 440 -242Q311 -242 276 -245Q276 -204 283 -183Q324 -180 344 -171T373 -140T381 -74V-2Q381 56 395 104Q376 66 359 49Q337 26 301 12T225 -2Q140 -2 87 53T34 206Q34 282
68 341T165 433T307 467Q384 467 446 449T548 396Q536 370 531 341T526 254V-71Q526 -117 531 -139T549 -171T591 -183Q598 -205 598 -245ZM306 74T328 90T366 143T381 235V372Q371 386 351 396T309 407Q254 407 220 361T185 223Q185 144 211 109T282 74Q306 74
328 90Z" />
<glyph unicode="r" glyph-name="r" horiz-adv-x="478" d="M452 378T452 318Q452 298 453 289Q424 278 368 278Q367 316 356 332T325 348Q310 348 293 331T265 284T254 224V175Q254 131 263 107T294 73T354 59Q361 39 361 -3Q308 0 205 0Q89 0 34 -3Q34 37 40 59Q68
61 82 69T102 98T108 160V294Q108 325 103 341T83 365T35 375Q35 414 47 434Q100 435 150 444T225 467Q254 456 254 412Q254 392 250 368T238 316Q254 365 263 379Q286 416 318 438T389 460Q430 460 461 436Q452 378 452 318Z" />
<glyph unicode="s" glyph-name="s" horiz-adv-x="464" d="M382 321T361 316T318 311Q313 352 289 379T223 406Q200 406 187 395T173 364Q173 348 180 337T210 313T282 280Q340 257 371 237T416 192T430 133Q430 66 374 29T219 -9Q160 -9 120 -1T38 26Q42 51 42
90Q42 126 39 150Q53 158 75 162T119 167Q124 113 150 85T217 56Q246 56 264 69T282 105Q282 129 263 144T186 183Q134 203 104 222T58 268T42 338Q42 401 96 434T230 467Q282 467 320 460T392 435Q391 422 391 394Q391 357 395 329Q382 321 361 316Z" />
<glyph unicode="t" glyph-name="t" horiz-adv-x="378" d="M154 -9T120 28T85 150V372Q56 384 12 385Q12 422 23 448H85V571Q118 575 151 589T206 620Q221 614 226 602T231 558V448H354Q354 416 344 384Q277 382 231 368V166Q231 107 243 85T283 63Q316 63 344
80Q357 62 359 30Q339 13 302 2T226 -9Q154 -9 120 28Z" />
<glyph unicode="u" glyph-name="u" horiz-adv-x="613" d="M588 82T588 69Q588 45 579 24Q495 21 428 -9Q411 -2 404 10T396 48Q396 67 401 95Q387 60 366 41Q316 -6 231 -6Q155 -6 117 36T79 178V294Q79 325 75 341T58 365T15 375Q15 413 26 434Q78 435 124 444T196
467Q225 456 225 412V202Q225 135 239 107T286 79Q328 79 355 119T383 238V299Q383 330 378 346T357 370T310 380Q310 420 321 439Q378 440 427 447T500 467Q529 456 529 412V169Q529 135 533 119T549 96T587 88Q588 82 588 69Z" />
<glyph unicode="v" glyph-name="v" horiz-adv-x="559" d="M507 458T546 461Q546 418 535 399Q509 393 495 376T462 315L325 3Q299 -10 258 -10Q247 -10 241 -9Q213 59 161 172T82 338Q65 372 53 383T21 399Q12 426 12 461Q57 458 146 458Q246 458 294 461Q294
431 284 399Q257 397 246 391T235 373Q235 359 248 333Q298 219 324 144Q353 220 392 310Q406 346 406 363Q406 380 395 388T360 399Q349 428 349 461Q388 458 447 458Q507 458 546 461Z" />
<glyph unicode="w" glyph-name="w" horiz-adv-x="787" d="M734 458T775 461Q775 445 772 428T764 399Q740 393 728 376T699 307L597 0Q578 -9 514 -9L490 48Q479 75 451 144T403 269L286 0Q267 -9 202 -9Q172 84 137 185T80 340Q69 369 56 381T22 398Q12 425 12
461Q72 458 137 458Q215 458 280 461Q280 426 271 399Q248 397 239 392T230 373Q230 364 239 332Q270 241 289 161L406 456Q426 463 470 463Q535 310 591 157L634 301Q643 333 643 351Q643 374 632 384T597 399Q587 426 587 461Q626 458 680 458Q734 458 775 461Z"
/>
<glyph unicode="x" glyph-name="x" horiz-adv-x="569" d="M542 37T542 -1Q525 0 493 0H435Q300 0 263 -2Q263 38 270 59Q299 62 299 80Q299 94 278 128Q264 152 245 179L221 144Q191 98 191 78Q191 61 212 59Q219 39 219 -2Q188 0 116 0Q57 0 27 -2Q27 36 37 59Q54
60 67 67T97 95T144 157L195 231Q158 290 119 342Q94 376 80 386T41 399Q31 429 31 460Q67 458 165 458Q270 458 309 460Q309 427 303 399Q287 398 280 395T272 382Q272 368 296 332L311 311L329 285L360 333Q383 370 383 382Q383 390 377 393T358 399Q349 423
349 460Q380 458 446 458Q505 458 532 460Q532 426 523 399Q500 397 486 386T446 338L378 239Q416 189 442 147Q475 96 492 79T534 61Q542 37 542 -1Z" />
<glyph unicode="y" glyph-name="y" horiz-adv-x="562" d="M505 458T550 461Q550 422 540 398Q515 392 501 376T467 313L320 -37Q283 -126 254 -171T198 -233T135 -249Q104 -249 78 -238T38 -209Q36 -195 36 -184Q36 -148 46 -116Q92 -130 139 -130Q172 -130 193
-119T233 -79Q240 -69 256 -34Q180 146 101 308Q76 360 60 376T20 398Q12 425 12 461Q69 458 147 458Q241 458 302 461Q302 444 299 426T292 398Q264 393 252 386T240 363Q240 345 260 307Q301 221 331 141L393 298Q408 337 408 358Q408 376 397 385T362 398Q353
422 353 461Q399 458 453 458Q505 458 550 461Z" />
<glyph unicode="z" glyph-name="z" horiz-adv-x="510" d="M471 68T479 20Q470 -2 439 -2Q390 -2 361 -1L248 0Q136 0 64 -2Q56 9 51 25T45 57Q97 126 167 226T285 397H223Q193 397 177 389T151 359T133 296Q80 294 51 308Q60 376 60 461Q122 458 260 458Q385 458
448 461Q455 452 458 437T462 407Q417 335 351 240T223 62H306Q340 62 357 71T382 105T393 175Q431 178 471 167Q471 68 479 20Z" />
<glyph unicode="{" glyph-name="braceleft" horiz-adv-x="380" d="M211 -253T170 -196T128 -57Q128 -33 132 13Q133 24 134 40T135 78Q134 132 113 167T35 220Q35 256 40 268Q94 286 115 319T137 400Q137 430 132 470Q131 479 129 502T127 545Q127 594 141 630T196
698T315 748Q330 733 330 698Q282 682 264 651T246 576Q246 550 251 519T257 481Q269 417 269 387Q269 331 240 295T135 246Q210 231 239 194T270 99Q270 66 260 -2Q250 -70 250 -100Q250 -145 269 -175T336 -220Q339 -231 339 -240Q339 -261 326 -278Q211 -253
170 -196Z" />
<glyph unicode="|" glyph-name="bar" horiz-adv-x="192" d="M60 701Q70 707 90 710T132 714Q132 597 131 525L130 234L131 -48Q132 -119 132 -234Q122 -240 101 -242T60 -245V701Z" />
<glyph unicode="}" glyph-name="braceright" horiz-adv-x="380" d="M41 -261T41 -240Q41 -231 44 -220Q93 -205 112 -174T131 -95Q131 -67 121 -3Q111 63 111 94Q111 153 140 192T245 246Q171 259 142 294T112 383Q112 416 124 484Q125 492 130 522T135 576Q135
620 117 651T50 698Q50 733 66 748Q143 729 184 698T239 631T253 545Q253 512 248 474Q244 428 244 407Q244 355 264 321T340 268Q345 256 345 220Q287 201 267 165T246 70Q246 40 249 8Q250 -2 251 -22T252 -57Q252 -140 211 -196T54 -278Q41 -261 41 -240Z" />
<glyph unicode="~" glyph-name="asciitilde" horiz-adv-x="550" d="M49 192T42 215Q110 335 188 335Q211 335 234 327T288 301Q318 285 338 277T379 269Q402 269 422 281T466 324Q478 321 489 313T508 294Q444 181 371 181Q347 181 327 190T274 217Q245 234 225
242T183 251Q128 251 80 178Q49 192 42 215Z" />
<glyph unicode="&#xa0;" glyph-name="uni00A0" horiz-adv-x="200" />
<glyph unicode="&#xa1;" glyph-name="exclamdown" horiz-adv-x="411" d="M121 420T144 443T205 467Q243 467 265 446T287 387Q287 351 263 329T199 307Q165 307 143 330T121 382Q121 420 144 443ZM150 -24T165 213Q195 223 242 223Q259 -15 290 -219Q258 -223
218 -234T152 -257Q138 -253 132 -244T126 -218Q126 -213 128 -197Q150 -24 165 213Z" />
<glyph unicode="&#xa2;" glyph-name="cent" horiz-adv-x="468" d="M397 2T307 -7L309 -140Q290 -140 269 -137T237 -129V-7Q145 3 90 62T34 227Q34 285 57 337T127 423T237 465V609Q258 609 278 605T309 595L308 465Q383 459 435 425Q425 378 425 301Q396 288
346 288Q342 364 307 392V67H315Q379 67 420 106Q441 87 444 58Q397 2 307 -7ZM180 196T194 157T237 94V399Q209 384 195 343T180 241Q180 196 194 157Z" />
<glyph unicode="&#xa3;" glyph-name="sterling" horiz-adv-x="580" d="M509 170T526 160T553 138Q489 62 464 -9Q411 -9 369 7Q339 20 336 21Q299 36 277 42T225 49Q143 49 82 -8Q54 7 42 41Q100 87 126 133T152 238Q152 268 146 290L98 289Q62 289 50 288Q50
327 64 356H122Q102 398 93 427T84 501Q84 553 111 595T192 661T320 685Q372 685 419 677T497 652Q493 616 493 562Q493 529 494 512Q474 503 452 500T400 497Q394 564 373 592T306 620Q274 620 255 597T235 536Q235 507 243 486T270 435Q285 411 293 394T305 356H417Q417
316 404 289L304 291Q295 250 267 205T196 116Q288 179 344 179Q366 179 381 174T415 159Q437 147 450 147Q462 147 471 153T490 173Q509 170 526 160Z" />
<glyph unicode="&#xa4;" glyph-name="currency" horiz-adv-x="556" d="M496 78Q480 55 443 51L382 111Q358 95 331 87T279 78Q223 78 178 107L122 50Q88 51 68 73L136 145Q117 169 107 199T96 260Q96 314 126 357L60 423Q80 446 112 449L165 397Q214 434 279 434Q338
434 385 401L435 453Q452 449 463 443T485 425L423 364Q457 317 457 260Q457 197 422 150L496 78ZM331 133T359 166T388 252Q388 284 373 314T330 363T271 382Q224 382 195 350T166 266Q166 234 181 203T224 153T284 133Q331 133 359 166Z" />
<glyph unicode="&#xa5;" glyph-name="yen" horiz-adv-x="632" d="M588 676T616 678Q616 648 609 618Q586 613 567 592T525 523L459 384H548Q548 351 537 320H429L398 253H546Q546 218 534 189H397V182Q397 129 403 106T427 73T486 59Q495 33 495 -3Q417 0 319
0Q258 0 170 -2Q159 -3 141 -3Q141 37 150 59Q195 63 213 71T238 102T244 177V189H95Q95 228 107 253H244V254L211 320H98Q98 358 108 384H179L93 558Q78 588 62 601T24 617Q17 639 17 678Q56 676 156 676Q273 676 309 678Q309 645 303 618Q264 612 264 586Q264
569 280 535Q328 434 371 327Q409 418 461 532Q476 562 476 581Q476 612 433 617Q425 646 425 678Q456 676 526 676Q588 676 616 678Z" />
<glyph unicode="&#xa6;" glyph-name="brokenbar" horiz-adv-x="191" d="M60 701Q87 715 131 715Q129 649 129 520Q129 392 131 329Q117 323 97 319T60 315V701ZM60 165Q76 173 92 176T131 179Q129 110 129 -25Q129 -163 131 -232Q121 -238 99 -241T60 -245V165Z" />
<glyph unicode="&#xa7;" glyph-name="section" horiz-adv-x="573" d="M516 185T481 143T386 77Q427 43 443 6T460 -83Q460 -153 411 -197T274 -242Q218 -242 182 -233T117 -205Q120 -175 120 -138Q120 -103 117 -71Q144 -62 185 -62Q199 -179 278 -179Q314 -179
334 -163T354 -118Q354 -95 344 -78T303 -40T206 13Q118 57 81 107T44 229Q44 291 77 332T167 397Q127 431 111 469T95 558Q95 601 118 636T183 693T279 714Q375 714 429 681Q427 647 427 624Q427 585 430 555Q398 545 362 545Q344 651 277 651Q242 651 222 634T201
589Q201 567 210 551T250 514T342 464Q437 420 476 371T516 249Q516 185 481 143ZM364 132T381 154T398 201Q398 226 388 245T347 286T253 341L229 354Q193 343 177 322T161 274Q161 249 170 230T209 189T295 136L322 121Q364 132 381 154Z" />
<glyph unicode="&#xa8;" glyph-name="dieresis" horiz-adv-x="300" d="M2 518T-20 537T-42 585Q-42 617 -23 638T35 660Q74 660 94 640T114 587Q114 557 92 538T37 518Q2 518 -20 537ZM228 518T207 538T185 593Q185 624 206 642T263 660Q297 660 319 641T342 593Q342
561 324 540T267 518Q228 518 207 538Z" />
<glyph unicode="&#xa9;" glyph-name="copyright" horiz-adv-x="809" d="M499 574T578 529T703 404T749 230Q749 136 703 57T578 -68T404 -114Q308 -114 230 -69T106 55T60 230Q60 325 105 404T230 528T404 574Q499 574 578 529ZM325 518T259 480T155 376T116 230Q116
150 154 84T258 -19T404 -57Q484 -57 550 -19T654 85T692 230Q692 310 654 376T550 480T404 518Q325 518 259 480ZM458 453T490 444T557 414Q550 372 550 300Q530 288 493 288Q488 338 468 366T404 395Q327 395 327 245Q327 170 353 121T435 72Q493 72 536 115Q545
109 551 98T559 73Q499 5 396 5Q344 5 299 31T227 107T200 228Q200 295 226 346T302 425T417 453Q458 453 490 444Z" />
<glyph unicode="&#xaa;" glyph-name="ordfeminine" horiz-adv-x="438" d="M398 430T398 420Q398 398 390 385Q328 383 272 359Q243 367 243 397Q243 405 248 432Q245 420 237 407T219 386Q190 360 143 360Q39 360 39 448Q39 507 90 536T237 581Q237 613 235 627T224
653Q211 672 186 672Q165 672 154 651T139 588Q94 588 69 596Q70 605 70 623Q70 652 65 679Q132 718 205 718Q252 718 278 709T323 681Q340 662 347 636T354 562V495Q354 469 357 458T368 441T397 435Q398 430 398 420ZM237 538Q194 530 174 516T154 468Q154 447
161 438T181 428Q203 428 220 452T237 520V538Z" />
<glyph unicode="&#xab;" glyph-name="guillemotleft" horiz-adv-x="507" d="M200 309T173 266Q213 183 264 115Q257 101 245 88T217 67Q175 112 136 152T60 225Q60 256 72 286Q145 348 212 416Q246 416 271 396Q200 309 173 266ZM390 297T368 258Q407 182 447
124Q442 112 427 98T394 74Q332 150 261 221Q261 255 271 285Q332 342 388 410Q428 405 449 387Q390 297 368 258Z" />
<glyph unicode="&#xac;" glyph-name="logicalnot" horiz-adv-x="550" d="M500 359V127Q483 117 469 113T435 109V290Q187 290 50 287Q50 304 53 324T61 359H500Z" />
<glyph unicode="&#xad;" glyph-name="uni00AD" horiz-adv-x="419" d="M359 253T346 218Q166 218 60 212Q60 232 64 257T77 301H359Q359 253 346 218Z" />
<glyph unicode="&#xae;" glyph-name="registered" horiz-adv-x="537" d="M327 794T374 766T449 690T477 584Q477 526 450 479T375 404T270 376Q212 376 164 403T88 478T60 584Q60 642 87 690T163 766T269 794Q327 794 374 766ZM314 425T350 446T408 503T429 584Q429
629 408 666T351 724T269 745Q224 745 187 724T129 666T108 584Q108 540 129 504T187 446T269 425Q314 425 350 446ZM339 537T361 489Q340 482 322 482L308 483Q295 522 272 550L247 551V484Q231 482 223 482Q215 482 199 484V682Q233 692 271 692Q352 692 352
628Q352 605 342 588T309 562Q339 537 361 489ZM302 581T302 620Q302 660 270 660Q263 660 247 656V584Q259 581 269 581Q302 581 302 620Z" />
<glyph unicode="&#xaf;" glyph-name="overscore" horiz-adv-x="300" d="M-38 610T-29 631H337Q337 602 328 580Q140 580 -38 573Q-38 610 -29 631Z" />
<glyph unicode="&#xb0;" glyph-name="degree" horiz-adv-x="413" d="M353 510T312 471T204 432Q137 432 99 469T60 567Q60 624 100 661T204 699Q274 699 313 663T353 568Q353 510 312 471ZM152 541T171 512T217 483Q236 483 248 502T261 557Q261 600 245 625T199
650Q179 650 166 631T152 586Q152 541 171 512Z" />
<glyph unicode="&#xb1;" glyph-name="plusminus" horiz-adv-x="550" d="M240 193Q241 224 241 283L88 281Q88 298 91 319T98 350H241Q241 426 240 490Q254 496 270 498T311 500V350H462Q462 326 460 311T452 283H404H311V150Q303 146 280 143T239 140L240 193ZM495
107Q495 84 493 69T485 41Q403 42 284 42Q141 42 55 40Q55 56 58 77T65 107H495Z" />
<glyph unicode="&#xb2;" glyph-name="uni00B2" horiz-adv-x="379" d="M37 427T37 452Q62 477 126 533Q169 572 186 599T204 658Q204 682 193 697T163 712Q144 712 134 692T118 619Q77 619 53 628Q55 658 55 680Q55 713 52 740Q110 767 186 767Q245 767 283 745T322
674Q322 640 307 615T262 568Q213 532 177 500H229Q260 500 271 509T283 546Q321 546 340 540Q340 464 347 428Q342 418 334 413T308 408Q287 408 272 409L176 410Q111 410 49 408Q37 427 37 452Z" />
<glyph unicode="&#xb3;" glyph-name="uni00B3" horiz-adv-x="390" d="M75 288T34 317Q43 348 60 364Q71 357 92 352T140 347Q179 347 207 370T235 438Q235 471 217 492T166 513Q154 513 144 510Q136 516 129 527T119 551Q185 633 210 670H161Q135 670 123 661T99
622Q85 622 72 625T51 632Q61 692 61 759Q84 758 195 758Q293 758 311 759Q322 741 322 717Q270 657 211 572Q269 574 307 541T346 445Q346 402 323 366T253 309T140 288Q75 288 34 317Z" />
<glyph unicode="&#xb4;" glyph-name="acute" horiz-adv-x="300" d="M100 530T81 534T49 544Q94 633 112 707Q147 720 201 720Q237 718 250 715Q178 629 119 530Q100 530 81 534Z" />
<glyph unicode="&#xb5;" glyph-name="uni00B5" horiz-adv-x="638" d="M547 135T551 119T569 95T613 85Q613 48 604 24Q561 23 521 15T449 -9Q417 10 417 54Q417 70 423 98Q409 63 383 41Q330 -6 253 -6Q241 -6 221 -4V-40Q221 -128 236 -181Q200 -193 174 -207T117
-246Q98 -239 87 -211Q93 -188 95 -161T98 -67V294Q98 325 94 341T76 365T34 375Q34 415 44 434Q96 435 142 444T214 467Q243 456 243 412V200Q243 127 258 100T309 73Q332 73 353 91T387 146T401 238V299Q401 330 396 346T375 370T329 380Q329 420 339 439Q396
440 445 447T518 467Q547 456 547 412V169Q547 135 551 119Z" />
<glyph unicode="&#xb6;" glyph-name="paragraph" horiz-adv-x="590" d="M537 677T567 680Q567 644 559 617Q529 615 515 606T497 577T492 517V-235Q467 -248 426 -248V615Q401 619 375 621L376 -235Q351 -248 309 -248V301Q299 300 278 300Q156 300 97 342T37
486Q37 576 104 628T317 680Q350 680 402 678L467 677Q537 677 567 680ZM309 359V621Q242 617 214 588T186 493Q186 427 221 393T306 359H309Z" />
<glyph unicode="&#xb7;" glyph-name="middot" horiz-adv-x="287" d="M104 180T82 201T60 260Q60 296 84 318T148 340Q183 340 205 317T227 265Q227 227 204 204T143 180Q104 180 82 201Z" />
<glyph unicode="&#xb8;" glyph-name="cedilla" horiz-adv-x="300" d="M69 -226T69 -199Q101 -199 124 -186T147 -151Q147 -131 130 -119T86 -106Q68 -86 68 -63L126 16H190L143 -46Q184 -53 208 -78T232 -139Q232 -188 188 -215T77 -242Q69 -226 69 -199Z" />
<glyph unicode="&#xb9;" glyph-name="uni00B9" horiz-adv-x="333" d="M52 445T57 466Q88 468 98 482T109 532V632Q109 667 98 683T57 701Q52 725 52 761Q85 758 168 758Q242 758 281 761Q281 725 276 701Q247 699 236 683T224 632V532Q224 496 234 482T276 466Q281
444 281 407Q234 410 168 410Q100 410 52 407Q52 445 57 466Z" />
<glyph unicode="&#xba;" glyph-name="ordmasculine" horiz-adv-x="437" d="M308 717T354 669T401 541Q401 456 351 407T215 357Q127 357 81 403T34 532Q34 619 86 668T219 717Q308 717 354 669ZM252 409T266 440T281 520Q281 590 261 629T210 668Q183 668 169
637T155 557Q155 491 173 450T226 409Q252 409 266 440Z" />
<glyph unicode="&#xbb;" glyph-name="guillemotright" horiz-adv-x="511" d="M295 171T338 241Q296 315 241 395Q252 404 268 409T301 415Q361 356 439 291Q451 268 451 232Q371 153 295 68Q265 83 250 114Q295 171 338 241ZM104 177T139 242Q109 304 57 386Q67
394 85 401T122 410Q180 345 239 291Q249 267 249 227Q185 156 119 75Q103 83 89 96T66 123Q104 177 139 242Z" />
<glyph unicode="&#xbc;" glyph-name="onequarter" horiz-adv-x="876" d="M249 726T254 717T260 684V412Q260 375 265 360T285 340T335 331Q340 311 340 279Q258 281 192 281Q130 281 50 279Q50 312 55 331Q92 334 108 339T131 360T138 412V573Q138 604 133 617T108
634T41 638Q41 672 47 695Q106 697 150 705T234 730Q249 726 254 717ZM228 -7T209 1T182 18L695 716Q712 715 730 707T760 688L248 -9Q228 -7 209 1ZM774 114V106Q774 74 784 66T825 55Q831 35 831 -2Q767 0 708 0Q646 0 590 -2Q590 42 595 55Q634 57 648 66T663
106V113Q577 112 506 108Q481 137 482 181Q613 340 691 450Q697 451 712 451Q748 451 774 443V199H810Q826 199 834 196T849 182Q837 161 831 114H774ZM663 199V330L567 199H663Z" />
<glyph unicode="&#xbd;" glyph-name="onehalf" horiz-adv-x="993" d="M249 726T254 717T260 684V412Q260 375 265 360T285 340T335 331Q340 311 340 279Q258 281 192 281Q130 281 50 279Q50 312 55 331Q92 334 108 339T131 360T138 412V573Q138 604 133 617T108
634T41 638Q41 672 47 695Q106 697 150 705T234 730Q249 726 254 717ZM228 -7T209 1T182 18L695 716Q712 715 730 707T760 688L248 -9Q228 -7 209 1ZM958 128Q958 66 967 28Q960 12 948 5T912 -2Q897 -2 884 -1L783 0L685 -1L632 -2Q612 24 612 70Q667 135 735
201Q771 235 786 262T801 324Q801 354 789 370T755 386Q730 386 717 363T699 278Q657 277 617 290Q624 326 624 375Q624 391 622 421Q689 449 784 449Q862 449 902 425T942 345Q942 303 918 268T842 195Q783 149 752 119H813Q843 119 857 123T879 137T890 172Q908
173 927 171T959 165L958 128Z" />
<glyph unicode="&#xbe;" glyph-name="threequarters" horiz-adv-x="860" d="M280 533T314 505T349 422Q349 354 296 314T149 274Q66 274 27 307Q29 335 46 354Q78 331 126 331Q170 331 195 350T221 402Q221 429 203 445T154 462Q141 462 130 458Q121 468 116 481T111
508Q179 580 208 617H154Q126 617 113 608T88 569Q50 569 33 581Q43 635 43 727Q130 724 185 724Q249 724 321 727Q335 704 334 676L218 536Q280 533 314 505ZM212 -7T193 1T166 18L679 716Q696 715 714 707T744 688L232 -9Q212 -7 193 1ZM758 114V106Q758 74 768
66T809 55Q815 35 815 -2Q751 0 692 0Q630 0 574 -2Q574 42 579 55Q618 57 632 66T647 106V113Q561 112 490 108Q465 137 466 181Q597 340 675 450Q681 451 696 451Q732 451 758 443V199H794Q810 199 818 196T833 182Q821 161 815 114H758ZM647 199V330L551 199H647Z"
/>
<glyph unicode="&#xbf;" glyph-name="questiondown" horiz-adv-x="537" d="M287 467T311 444T336 380Q336 341 309 317T240 292Q203 292 179 317T154 374Q154 415 179 441T245 467Q287 467 311 444ZM156 -258T111 -226T65 -133Q65 -86 84 -55T144 17Q182 55 201
85T220 158Q220 193 207 234Q231 248 273 248Q295 235 310 199T326 123Q326 78 310 48T262 -15Q236 -43 223 -65T210 -117Q210 -154 228 -175T271 -197Q300 -197 316 -168T342 -65Q393 -65 424 -82Q421 -120 421 -154Q421 -184 424 -214Q338 -258 240 -258Q156
-258 111 -226Z" />
<glyph unicode="&#xc0;" glyph-name="Agrave" horiz-adv-x="711" d="M695 32T695 -3Q647 0 557 0Q454 0 409 -3Q409 37 416 59Q440 64 451 71T462 93Q462 105 449 136L426 190Q293 190 182 183L169 150Q159 122 159 106Q159 65 207 59Q214 35 214 -3Q180 0 107
0Q45 0 17 -3Q17 34 25 59Q50 63 65 83T105 163L315 677Q329 680 343 681T375 682L604 169Q625 122 637 100T661 70T687 59Q695 32 695 -3ZM401 246L347 372Q321 431 300 500Q280 434 256 373L206 246H401ZM266 807T215 858Q237 869 269 874T335 878Q362 806 400
746Q367 734 326 734Q266 807 215 858Z" />
<glyph unicode="&#xc1;" glyph-name="Aacute" horiz-adv-x="711" d="M695 32T695 -3Q647 0 557 0Q454 0 409 -3Q409 37 416 59Q440 64 451 71T462 93Q462 105 449 136L426 190Q293 190 182 183L169 150Q159 122 159 106Q159 65 207 59Q214 35 214 -3Q180 0 107
0Q45 0 17 -3Q17 34 25 59Q50 63 65 83T105 163L315 677Q329 680 343 681T375 682L604 169Q625 122 637 100T661 70T687 59Q695 32 695 -3ZM401 246L347 372Q321 431 300 500Q280 434 256 373L206 246H401ZM323 734T290 746Q328 815 349 872Q387 880 422 880Q459
880 481 873Q420 806 364 734Q323 734 290 746Z" />
<glyph unicode="&#xc2;" glyph-name="Acircumflex" horiz-adv-x="711" d="M695 32T695 -3Q647 0 557 0Q454 0 409 -3Q409 37 416 59Q440 64 451 71T462 93Q462 105 449 136L426 190Q293 190 182 183L169 150Q159 122 159 106Q159 65 207 59Q214 35 214 -3Q180
0 107 0Q45 0 17 -3Q17 34 25 59Q50 63 65 83T105 163L315 677Q329 680 343 681T375 682L604 169Q625 122 637 100T661 70T687 59Q695 32 695 -3ZM401 246L347 372Q321 431 300 500Q280 434 256 373L206 246H401ZM198 732T186 745T170 773Q263 830 316 879Q344
887 382 887Q432 833 519 769Q494 736 452 728Q393 765 333 790L309 778Q238 744 214 728Q198 732 186 745Z" />
<glyph unicode="&#xc3;" glyph-name="Atilde" horiz-adv-x="711" d="M695 32T695 -3Q647 0 557 0Q454 0 409 -3Q409 37 416 59Q440 64 451 71T462 93Q462 105 449 136L426 190Q293 190 182 183L169 150Q159 122 159 106Q159 65 207 59Q214 35 214 -3Q180 0 107
0Q45 0 17 -3Q17 34 25 59Q50 63 65 83T105 163L315 677Q329 680 343 681T375 682L604 169Q625 122 637 100T661 70T687 59Q695 32 695 -3ZM401 246L347 372Q321 431 300 500Q280 434 256 373L206 246H401ZM375 741T359 746T319 764Q299 774 287 779T258 784Q219
784 183 743Q158 766 157 799Q184 836 218 853T287 870Q308 870 325 864T367 847Q389 837 400 833T426 829Q460 829 484 863Q498 861 511 854T532 838Q507 790 473 766T397 741Q375 741 359 746Z" />
<glyph unicode="&#xc4;" glyph-name="Adieresis" horiz-adv-x="711" d="M695 32T695 -3Q647 0 557 0Q454 0 409 -3Q409 37 416 59Q440 64 451 71T462 93Q462 105 449 136L426 190Q293 190 182 183L169 150Q159 122 159 106Q159 65 207 59Q214 35 214 -3Q180 0
107 0Q45 0 17 -3Q17 34 25 59Q50 63 65 83T105 163L315 677Q329 680 343 681T375 682L604 169Q625 122 637 100T661 70T687 59Q695 32 695 -3ZM401 246L347 372Q321 431 300 500Q280 434 256 373L206 246H401ZM197 725T175 744T153 792Q153 824 172 845T230 867Q269
867 289 847T309 794Q309 764 287 745T232 725Q197 725 175 744ZM423 725T402 745T380 800Q380 831 401 849T458 867Q492 867 514 848T537 800Q537 768 519 747T462 725Q423 725 402 745Z" />
<glyph unicode="&#xc5;" glyph-name="Aring" horiz-adv-x="711" d="M695 32T695 -3Q647 0 557 0Q454 0 409 -3Q409 37 416 59Q440 64 451 71T462 93Q462 105 449 136L426 190Q293 190 182 183L169 150Q159 122 159 106Q159 65 207 59Q214 35 214 -3Q180 0 107
0Q45 0 17 -3Q17 34 25 59Q50 63 65 83T105 163L315 677Q329 680 343 681T375 682L604 169Q625 122 637 100T661 70T687 59Q695 32 695 -3ZM401 246L347 372Q321 431 300 500Q280 434 256 373L206 246H401ZM293 717T262 739T230 800Q230 840 263 864T349 888Q398
888 429 867T460 806Q460 767 427 742T340 717Q293 717 262 739ZM364 757T374 768T385 799Q385 819 374 835T341 852Q325 852 316 840T306 805Q306 783 317 770T348 757Q364 757 374 768Z" />
<glyph unicode="&#xc6;" glyph-name="AE" horiz-adv-x="961" d="M912 96T903 -2Q787 0 635 0Q456 0 387 -3Q387 36 395 59Q423 62 436 70T454 100T460 165V289Q340 286 277 280Q227 194 211 163Q189 122 189 99Q189 82 200 73T235 59Q244 38 244 -3Q198 0 131
0Q47 0 17 -3Q17 39 25 59Q56 63 76 80T128 152L350 535Q367 566 367 582Q367 597 354 605T314 616Q310 625 308 644T305 678Q409 676 491 676H581Q784 676 877 679Q878 638 884 592T898 510Q888 503 866 499T822 495Q813 553 781 585T672 617H613V347H642Q692
347 709 363T726 425Q757 435 797 435Q794 396 794 320Q794 241 797 202Q773 202 757 203T728 210Q726 242 719 258T694 283T638 291H613V168Q613 123 620 101T643 70T687 62H708Q754 62 780 74T823 114T859 193Q917 181 934 164Q912 96 903 -2ZM460 347V540Q460
573 463 609Q455 591 430 546Q399 492 315 347H460Z" />
<glyph unicode="&#xc7;" glyph-name="Ccedilla" horiz-adv-x="642" d="M404 -53T428 -78T452 -139Q452 -188 408 -215T297 -242Q289 -226 289 -199Q321 -199 344 -186T367 -151Q367 -131 350 -119T306 -106Q288 -86 288 -63L329 -7Q242 1 175 47T72 170T35 342Q35
451 82 528T206 645T375 685Q486 685 595 633Q584 570 584 478Q561 466 506 466Q504 552 472 588T380 624Q286 624 241 551T196 368Q196 236 253 153T419 70Q459 70 502 83T586 120Q594 113 600 101T609 76Q515 -1 392 -8L363 -46Q404 -53 428 -78Z" />
<glyph unicode="&#xc8;" glyph-name="Egrave" horiz-adv-x="626" d="M578 185T599 164Q579 103 568 -2Q468 0 328 0Q183 0 42 -3Q42 37 48 59Q76 61 90 69T110 99T116 165V517Q116 558 111 577T91 605T48 617Q42 636 42 679Q120 676 267 676Q471 676 542 679Q544
637 549 589T563 510Q533 495 487 495Q478 553 446 585T337 617H268V369H297Q351 369 370 384T391 444Q421 454 462 454Q458 388 458 340Q458 285 462 223Q416 223 393 231Q389 276 369 292T297 308H268V168Q268 125 275 103T300 71T352 62H364Q414 62 444 75T491
116T523 193Q578 185 599 164ZM223 807T172 858Q194 869 226 874T292 878Q319 806 357 746Q324 734 283 734Q223 807 172 858Z" />
<glyph unicode="&#xc9;" glyph-name="Eacute" horiz-adv-x="626" d="M578 185T599 164Q579 103 568 -2Q468 0 328 0Q183 0 42 -3Q42 37 48 59Q76 61 90 69T110 99T116 165V517Q116 558 111 577T91 605T48 617Q42 636 42 679Q120 676 267 676Q471 676 542 679Q544
637 549 589T563 510Q533 495 487 495Q478 553 446 585T337 617H268V369H297Q351 369 370 384T391 444Q421 454 462 454Q458 388 458 340Q458 285 462 223Q416 223 393 231Q389 276 369 292T297 308H268V168Q268 125 275 103T300 71T352 62H364Q414 62 444 75T491
116T523 193Q578 185 599 164ZM280 734T247 746Q285 815 306 872Q344 880 379 880Q416 880 438 873Q377 806 321 734Q280 734 247 746Z" />
<glyph unicode="&#xca;" glyph-name="Ecircumflex" horiz-adv-x="626" d="M578 185T599 164Q579 103 568 -2Q468 0 328 0Q183 0 42 -3Q42 37 48 59Q76 61 90 69T110 99T116 165V517Q116 558 111 577T91 605T48 617Q42 636 42 679Q120 676 267 676Q471 676 542
679Q544 637 549 589T563 510Q533 495 487 495Q478 553 446 585T337 617H268V369H297Q351 369 370 384T391 444Q421 454 462 454Q458 388 458 340Q458 285 462 223Q416 223 393 231Q389 276 369 292T297 308H268V168Q268 125 275 103T300 71T352 62H364Q414 62
444 75T491 116T523 193Q578 185 599 164ZM155 732T143 745T127 773Q220 830 273 879Q301 887 339 887Q389 833 476 769Q451 736 409 728Q350 765 290 790L266 778Q195 744 171 728Q155 732 143 745Z" />
<glyph unicode="&#xcb;" glyph-name="Edieresis" horiz-adv-x="626" d="M578 185T599 164Q579 103 568 -2Q468 0 328 0Q183 0 42 -3Q42 37 48 59Q76 61 90 69T110 99T116 165V517Q116 558 111 577T91 605T48 617Q42 636 42 679Q120 676 267 676Q471 676 542 679Q544
637 549 589T563 510Q533 495 487 495Q478 553 446 585T337 617H268V369H297Q351 369 370 384T391 444Q421 454 462 454Q458 388 458 340Q458 285 462 223Q416 223 393 231Q389 276 369 292T297 308H268V168Q268 125 275 103T300 71T352 62H364Q414 62 444 75T491
116T523 193Q578 185 599 164ZM154 725T132 744T110 792Q110 824 129 845T187 867Q226 867 246 847T266 794Q266 764 244 745T189 725Q154 725 132 744ZM380 725T359 745T337 800Q337 831 358 849T415 867Q449 867 471 848T494 800Q494 768 476 747T419 725Q380
725 359 745Z" />
<glyph unicode="&#xcc;" glyph-name="Igrave" horiz-adv-x="384" d="M116 558T111 577T92 605T49 617Q42 639 42 679Q93 676 195 676Q282 676 342 679Q342 662 341 646T335 617Q307 614 293 606T274 578T268 517V160Q268 119 274 99T294 70T336 59Q342 38 342
-3Q291 0 200 0Q104 0 42 -3Q42 33 49 59Q77 61 91 69T110 98T116 160V517Q116 558 111 577ZM113 807T62 858Q84 869 116 874T182 878Q209 806 247 746Q214 734 173 734Q113 807 62 858Z" />
<glyph unicode="&#xcd;" glyph-name="Iacute" horiz-adv-x="384" d="M116 558T111 577T92 605T49 617Q42 639 42 679Q93 676 195 676Q282 676 342 679Q342 662 341 646T335 617Q307 614 293 606T274 578T268 517V160Q268 119 274 99T294 70T336 59Q342 38 342
-3Q291 0 200 0Q104 0 42 -3Q42 33 49 59Q77 61 91 69T110 98T116 160V517Q116 558 111 577ZM170 734T137 746Q175 815 196 872Q234 880 269 880Q306 880 328 873Q267 806 211 734Q170 734 137 746Z" />
<glyph unicode="&#xce;" glyph-name="Icircumflex" horiz-adv-x="384" d="M53 721T38 753Q68 778 128 836L162 869Q208 879 228 879Q268 829 347 746Q335 732 314 722T273 710Q235 742 175 776Q126 745 90 709Q53 721 38 753ZM116 558T111 577T92 605T49 617Q42
639 42 679Q93 676 195 676Q282 676 342 679Q342 662 341 646T335 617Q307 614 293 606T274 578T268 517V160Q268 119 274 99T294 70T336 59Q342 38 342 -3Q291 0 200 0Q104 0 42 -3Q42 33 49 59Q77 61 91 69T110 98T116 160V517Q116 558 111 577Z" />
<glyph unicode="&#xcf;" glyph-name="Idieresis" horiz-adv-x="384" d="M62 722T41 740T19 786Q19 816 38 836T95 857Q134 857 153 838T173 787Q173 760 151 741T97 722Q62 722 41 740ZM252 722T231 741T210 793Q210 823 231 840T287 857Q321 857 343 839T365
793Q365 763 347 743T291 722Q252 722 231 741ZM116 558T111 577T92 605T49 617Q42 639 42 679Q93 676 195 676Q282 676 342 679Q342 662 341 646T335 617Q307 614 293 606T274 578T268 517V160Q268 119 274 99T294 70T336 59Q342 38 342 -3Q291 0 200 0Q104 0
42 -3Q42 33 49 59Q77 61 91 69T110 98T116 160V517Q116 558 111 577Z" />
<glyph unicode="&#xd0;" glyph-name="Eth" horiz-adv-x="735" d="M498 678T599 610T700 355Q700 207 635 129T488 25T328 0Q183 0 42 -3Q42 37 48 59Q76 61 90 69T110 99T116 165V304L44 302Q44 348 54 375H116V517Q116 558 111 577T91 605T48 617Q42 641 42 679Q102
676 220 676Q252 676 269 677L331 678Q498 678 599 610ZM434 62T488 120T542 338Q542 487 481 553T324 619Q290 619 269 610V375H384Q384 332 373 304Q331 305 269 305V168Q269 125 276 103T300 71T352 62Q434 62 488 120Z" />
<glyph unicode="&#xd1;" glyph-name="Ntilde" horiz-adv-x="725" d="M653 676T690 679Q690 641 684 617Q659 615 646 603T628 562T623 474V0Q596 -8 553 -8L180 488V204Q180 146 186 116T207 74T254 59Q261 39 261 -3Q218 0 149 0Q71 0 33 -3Q33 39 40 59Q70 61
86 74T109 117T116 204V574L106 587Q95 602 82 608T40 617Q33 642 33 679Q69 676 140 676Q210 676 233 679L558 240V474Q558 532 552 561T530 602T480 617Q474 645 474 679Q518 676 589 676Q653 676 690 679ZM397 741T381 746T341 764Q321 774 309 779T280 784Q241
784 205 743Q180 766 179 799Q206 836 240 853T309 870Q330 870 347 864T389 847Q411 837 422 833T448 829Q482 829 506 863Q520 861 533 854T554 838Q529 790 495 766T419 741Q397 741 381 746Z" />
<glyph unicode="&#xd2;" glyph-name="Ograve" horiz-adv-x="748" d="M271 -9T195 35T77 159T35 341Q35 444 78 522T199 642T373 685Q473 685 550 643T670 525T713 348Q713 245 671 164T551 37T373 -9Q271 -9 195 35ZM466 56T509 130T553 325Q553 407 529 475T459
582T357 622Q283 622 239 554T195 366Q195 282 217 211T282 98T389 56Q466 56 509 130ZM295 807T244 858Q266 869 298 874T364 878Q391 806 429 746Q396 734 355 734Q295 807 244 858Z" />
<glyph unicode="&#xd3;" glyph-name="Oacute" horiz-adv-x="748" d="M271 -9T195 35T77 159T35 341Q35 444 78 522T199 642T373 685Q473 685 550 643T670 525T713 348Q713 245 671 164T551 37T373 -9Q271 -9 195 35ZM466 56T509 130T553 325Q553 407 529 475T459
582T357 622Q283 622 239 554T195 366Q195 282 217 211T282 98T389 56Q466 56 509 130ZM352 734T319 746Q357 815 378 872Q416 880 451 880Q488 880 510 873Q449 806 393 734Q352 734 319 746Z" />
<glyph unicode="&#xd4;" glyph-name="Ocircumflex" horiz-adv-x="748" d="M271 -9T195 35T77 159T35 341Q35 444 78 522T199 642T373 685Q473 685 550 643T670 525T713 348Q713 245 671 164T551 37T373 -9Q271 -9 195 35ZM466 56T509 130T553 325Q553 407 529
475T459 582T357 622Q283 622 239 554T195 366Q195 282 217 211T282 98T389 56Q466 56 509 130ZM227 732T215 745T199 773Q292 830 345 879Q373 887 411 887Q461 833 548 769Q523 736 481 728Q422 765 362 790L338 778Q267 744 243 728Q227 732 215 745Z" />
<glyph unicode="&#xd5;" glyph-name="Otilde" horiz-adv-x="748" d="M271 -9T195 35T77 159T35 341Q35 444 78 522T199 642T373 685Q473 685 550 643T670 525T713 348Q713 245 671 164T551 37T373 -9Q271 -9 195 35ZM466 56T509 130T553 325Q553 407 529 475T459
582T357 622Q283 622 239 554T195 366Q195 282 217 211T282 98T389 56Q466 56 509 130ZM404 741T388 746T348 764Q328 774 316 779T287 784Q248 784 212 743Q187 766 186 799Q213 836 247 853T316 870Q337 870 354 864T396 847Q418 837 429 833T455 829Q489 829
513 863Q527 861 540 854T561 838Q536 790 502 766T426 741Q404 741 388 746Z" />
<glyph unicode="&#xd6;" glyph-name="Odieresis" horiz-adv-x="748" d="M271 -9T195 35T77 159T35 341Q35 444 78 522T199 642T373 685Q473 685 550 643T670 525T713 348Q713 245 671 164T551 37T373 -9Q271 -9 195 35ZM466 56T509 130T553 325Q553 407 529 475T459
582T357 622Q283 622 239 554T195 366Q195 282 217 211T282 98T389 56Q466 56 509 130ZM226 725T204 744T182 792Q182 824 201 845T259 867Q298 867 318 847T338 794Q338 764 316 745T261 725Q226 725 204 744ZM452 725T431 745T409 800Q409 831 430 849T487 867Q521
867 543 848T566 800Q566 768 548 747T491 725Q452 725 431 745Z" />
<glyph unicode="&#xd7;" glyph-name="multiply" horiz-adv-x="550" d="M447 402T319 260L512 52Q502 38 483 29T443 20Q344 131 273 209Q203 131 109 20Q88 19 67 26T36 45L227 258Q131 362 37 460Q51 474 69 482T105 491L273 310L440 496Q462 494 483 487T512
470Q447 402 319 260Z" />
<glyph unicode="&#xd8;" glyph-name="Oslash" horiz-adv-x="748" d="M667 543T690 482T713 348Q713 245 671 164T551 37T373 -9Q265 -9 187 40L132 -27Q108 -27 87 -21T55 -5L130 85Q84 132 60 197T35 341Q35 444 78 522T199 642T373 685Q483 685 565 634L616
700Q671 700 697 680L624 587Q667 543 690 482ZM283 622T239 554T195 366Q195 271 222 196L491 546Q466 582 432 602T357 622Q283 622 239 554ZM466 56T509 130T553 325Q553 407 529 473L260 124Q310 56 389 56Q466 56 509 130Z" />
<glyph unicode="&#xd9;" glyph-name="Ugrave" horiz-adv-x="687" d="M584 183T572 131T526 46Q468 -9 355 -9Q259 -9 203 17T123 96T99 235V514Q99 557 94 576T77 604T36 617Q30 643 30 679Q70 676 157 676Q277 676 324 679Q324 640 318 617Q288 613 275 605T257
577T252 514V251Q252 157 284 109T390 60Q416 60 442 70T485 100Q503 123 511 161T520 275V486Q520 536 514 562T494 601T452 617Q447 646 447 679Q484 676 551 676Q614 676 652 679Q652 643 646 617Q620 613 607 602T589 565T584 491V273Q584 183 572 131ZM307
807T256 858Q278 869 310 874T376 878Q403 806 441 746Q408 734 367 734Q307 807 256 858Z" />
<glyph unicode="&#xda;" glyph-name="Uacute" horiz-adv-x="687" d="M584 183T572 131T526 46Q468 -9 355 -9Q259 -9 203 17T123 96T99 235V514Q99 557 94 576T77 604T36 617Q30 643 30 679Q70 676 157 676Q277 676 324 679Q324 640 318 617Q288 613 275 605T257
577T252 514V251Q252 157 284 109T390 60Q416 60 442 70T485 100Q503 123 511 161T520 275V486Q520 536 514 562T494 601T452 617Q447 646 447 679Q484 676 551 676Q614 676 652 679Q652 643 646 617Q620 613 607 602T589 565T584 491V273Q584 183 572 131ZM364
734T331 746Q369 815 390 872Q428 880 463 880Q500 880 522 873Q461 806 405 734Q364 734 331 746Z" />
<glyph unicode="&#xdb;" glyph-name="Ucircumflex" horiz-adv-x="687" d="M584 183T572 131T526 46Q468 -9 355 -9Q259 -9 203 17T123 96T99 235V514Q99 557 94 576T77 604T36 617Q30 643 30 679Q70 676 157 676Q277 676 324 679Q324 640 318 617Q288 613 275
605T257 577T252 514V251Q252 157 284 109T390 60Q416 60 442 70T485 100Q503 123 511 161T520 275V486Q520 536 514 562T494 601T452 617Q447 646 447 679Q484 676 551 676Q614 676 652 679Q652 643 646 617Q620 613 607 602T589 565T584 491V273Q584 183 572
131ZM239 732T227 745T211 773Q304 830 357 879Q385 887 423 887Q473 833 560 769Q535 736 493 728Q434 765 374 790L350 778Q279 744 255 728Q239 732 227 745Z" />
<glyph unicode="&#xdc;" glyph-name="Udieresis" horiz-adv-x="687" d="M584 183T572 131T526 46Q468 -9 355 -9Q259 -9 203 17T123 96T99 235V514Q99 557 94 576T77 604T36 617Q30 643 30 679Q70 676 157 676Q277 676 324 679Q324 640 318 617Q288 613 275 605T257
577T252 514V251Q252 157 284 109T390 60Q416 60 442 70T485 100Q503 123 511 161T520 275V486Q520 536 514 562T494 601T452 617Q447 646 447 679Q484 676 551 676Q614 676 652 679Q652 643 646 617Q620 613 607 602T589 565T584 491V273Q584 183 572 131ZM238
725T216 744T194 792Q194 824 213 845T271 867Q310 867 330 847T350 794Q350 764 328 745T273 725Q238 725 216 744ZM464 725T443 745T421 800Q421 831 442 849T499 867Q533 867 555 848T578 800Q578 768 560 747T503 725Q464 725 443 745Z" />
<glyph unicode="&#xdd;" glyph-name="Yacute" horiz-adv-x="632" d="M588 676T616 678Q616 648 609 618Q586 613 567 592T525 523L397 251V182Q397 129 403 106T427 73T486 59Q495 33 495 -3Q417 0 319 0Q258 0 170 -2Q159 -3 141 -3Q141 37 150 59Q195 63 213
71T238 102T244 177V254L93 558Q78 588 62 601T24 617Q17 639 17 678Q56 676 156 676Q273 676 309 678Q309 645 303 618Q264 612 264 586Q264 569 280 535Q328 434 371 327Q409 418 461 532Q476 562 476 581Q476 612 433 617Q425 646 425 678Q456 676 526 676Q588
676 616 678ZM341 734T308 746Q346 815 367 872Q405 880 440 880Q477 880 499 873Q438 806 382 734Q341 734 308 746Z" />
<glyph unicode="&#xde;" glyph-name="Thorn" horiz-adv-x="641" d="M395 211T427 241T459 340Q459 404 425 443T324 482Q291 482 268 475V175Q268 131 277 107T308 73T369 59Q376 39 376 -3Q322 0 210 0Q107 0 42 -3Q42 33 49 59Q77 61 91 69T110 98T116 160V517Q116
558 111 577T92 605T49 617Q42 639 42 679Q93 676 195 676Q282 676 342 679Q342 662 341 646T335 617Q298 614 284 599T269 541Q337 543 388 543Q499 543 552 491T606 357Q606 300 579 253T499 178T374 150Q331 150 304 159Q302 171 302 178Q302 197 310 213Q322
211 347 211Q395 211 427 241Z" />
<glyph unicode="&#xdf;" glyph-name="germandbls" horiz-adv-x="690" d="M97 377T74 380T31 384Q31 423 44 448H109V482Q109 597 178 656T359 716Q458 716 510 678T562 583Q562 541 543 517T487 465Q465 449 454 438T443 411Q443 388 462 372T522 334Q563 313
590 294T636 243T656 164Q656 112 627 73T550 13T449 -8Q401 -8 367 -1T306 23Q311 58 311 113Q311 142 310 153Q322 159 344 162T384 165Q390 104 406 78T459 52Q481 52 496 69T512 113Q512 146 490 166T421 213Q384 234 362 250T324 292T308 353Q308 392 325
414T378 459Q411 483 426 501T442 554Q442 594 412 622T333 651Q305 651 289 641T264 602T255 519V-1Q226 0 160 0Q80 0 35 -3Q35 36 43 59Q71 61 84 69T103 96T109 155V372Q97 377 74 380Z" />
<glyph unicode="&#xe0;" glyph-name="agrave" horiz-adv-x="549" d="M523 82T523 69Q523 45 514 24Q432 21 365 -9Q348 -2 341 11T333 49Q333 59 337 87Q321 50 295 29Q253 -7 178 -7Q110 -7 73 22T36 105Q36 190 116 226T318 280Q318 324 314 346T296 384Q274
409 240 409Q202 409 184 377T161 297Q132 297 113 299T77 307Q79 333 79 349Q79 391 71 427Q114 446 168 457T272 468Q374 468 420 422Q442 400 453 362T464 256V170Q464 136 468 120T484 96T522 88Q523 82 523 69ZM318 226Q250 214 216 194T182 132Q182 105 195
92T229 78Q251 78 271 92T305 133T318 200V226ZM205 584T176 621T110 693Q167 718 244 715Q272 622 314 545Q289 532 239 534Q205 584 176 621Z" />
<glyph unicode="&#xe1;" glyph-name="aacute" horiz-adv-x="549" d="M523 82T523 69Q523 45 514 24Q432 21 365 -9Q348 -2 341 11T333 49Q333 59 337 87Q321 50 295 29Q253 -7 178 -7Q110 -7 73 22T36 105Q36 190 116 226T318 280Q318 324 314 346T296 384Q274
409 240 409Q202 409 184 377T161 297Q132 297 113 299T77 307Q79 333 79 349Q79 391 71 427Q114 446 168 457T272 468Q374 468 420 422Q442 400 453 362T464 256V170Q464 136 468 120T484 96T522 88Q523 82 523 69ZM318 226Q250 214 216 194T182 132Q182 105 195
92T229 78Q251 78 271 92T305 133T318 200V226ZM265 530T246 534T214 544Q258 633 277 707Q312 720 366 720Q402 718 415 715Q343 629 284 530Q265 530 246 534Z" />
<glyph unicode="&#xe2;" glyph-name="acircumflex" horiz-adv-x="549" d="M523 82T523 69Q523 45 514 24Q432 21 365 -9Q348 -2 341 11T333 49Q333 59 337 87Q321 50 295 29Q253 -7 178 -7Q110 -7 73 22T36 105Q36 190 116 226T318 280Q318 324 314 346T296 384Q274
409 240 409Q202 409 184 377T161 297Q132 297 113 299T77 307Q79 333 79 349Q79 391 71 427Q114 446 168 457T272 468Q374 468 420 422Q442 400 453 362T464 256V170Q464 136 468 120T484 96T522 88Q523 82 523 69ZM318 226Q250 214 216 194T182 132Q182 105 195
92T229 78Q251 78 271 92T305 133T318 200V226ZM101 522T90 536T76 564Q118 593 162 631T239 707Q269 717 302 717Q363 638 455 555Q431 526 392 519Q360 542 322 567T255 607Q230 593 185 564T115 516Q101 522 90 536Z" />
<glyph unicode="&#xe3;" glyph-name="atilde" horiz-adv-x="549" d="M523 82T523 69Q523 45 514 24Q432 21 365 -9Q348 -2 341 11T333 49Q333 59 337 87Q321 50 295 29Q253 -7 178 -7Q110 -7 73 22T36 105Q36 190 116 226T318 280Q318 324 314 346T296 384Q274
409 240 409Q202 409 184 377T161 297Q132 297 113 299T77 307Q79 333 79 349Q79 391 71 427Q114 446 168 457T272 468Q374 468 420 422Q442 400 453 362T464 256V170Q464 136 468 120T484 96T522 88Q523 82 523 69ZM318 226Q250 214 216 194T182 132Q182 105 195
92T229 78Q251 78 271 92T305 133T318 200V226ZM299 544T284 550T243 569Q222 581 207 587T175 593Q131 593 90 548Q66 569 65 601Q128 679 197 679Q217 679 233 673T274 654Q293 644 307 639T337 633Q374 633 403 670Q434 666 451 648Q420 594 388 569T319 544Q299
544 284 550Z" />
<glyph unicode="&#xe4;" glyph-name="adieresis" horiz-adv-x="549" d="M523 82T523 69Q523 45 514 24Q432 21 365 -9Q348 -2 341 11T333 49Q333 59 337 87Q321 50 295 29Q253 -7 178 -7Q110 -7 73 22T36 105Q36 190 116 226T318 280Q318 324 314 346T296 384Q274
409 240 409Q202 409 184 377T161 297Q132 297 113 299T77 307Q79 333 79 349Q79 391 71 427Q114 446 168 457T272 468Q374 468 420 422Q442 400 453 362T464 256V170Q464 136 468 120T484 96T522 88Q523 82 523 69ZM318 226Q250 214 216 194T182 132Q182 105 195
92T229 78Q251 78 271 92T305 133T318 200V226ZM110 518T88 537T66 585Q66 617 85 638T143 660Q182 660 202 640T222 587Q222 557 200 538T145 518Q110 518 88 537ZM336 518T315 538T293 593Q293 624 314 642T371 660Q405 660 427 641T450 593Q450 561 432 540T375
518Q336 518 315 538Z" />
<glyph unicode="&#xe5;" glyph-name="aring" horiz-adv-x="549" d="M523 82T523 69Q523 45 514 24Q432 21 365 -9Q348 -2 341 11T333 49Q333 59 337 87Q321 50 295 29Q253 -7 178 -7Q110 -7 73 22T36 105Q36 190 116 226T318 280Q318 324 314 346T296 384Q274
409 240 409Q202 409 184 377T161 297Q132 297 113 299T77 307Q79 333 79 349Q79 391 71 427Q114 446 168 457T272 468Q374 468 420 422Q442 400 453 362T464 256V170Q464 136 468 120T484 96T522 88Q523 82 523 69ZM318 226Q250 214 216 194T182 132Q182 105 195
92T229 78Q251 78 271 92T305 133T318 200V226ZM204 520T171 546T137 617Q137 662 172 691T262 720Q313 720 346 696T379 624Q379 579 344 550T253 520Q204 520 171 546ZM277 570T287 582T298 615Q298 637 287 655T255 674Q238 674 229 661T219 622Q219 600 230
585T262 570Q277 570 287 582Z" />
<glyph unicode="&#xe6;" glyph-name="ae" horiz-adv-x="729" d="M671 106T679 90T688 60Q658 27 612 11T505 -6Q444 -6 400 18T328 84Q313 44 269 19T163 -6Q102 -6 69 23T36 106Q36 188 107 224T291 272V309Q291 357 273 381T225 405Q192 405 178 378T156 296Q133
296 109 299T71 309Q72 319 72 344Q72 391 66 430Q112 449 154 458T247 467Q290 467 321 454T374 413Q400 441 437 454T513 467Q576 467 616 436T674 359T693 268Q686 238 665 219Q525 217 434 211Q437 152 465 111T546 69Q615 69 662 114Q671 106 679 90ZM465
405T450 372T434 281V271Q477 274 565 276Q565 333 549 369T496 405Q465 405 450 372ZM245 71T267 101T292 195Q291 201 291 212V214Q224 207 195 188T165 129Q165 99 179 85T215 71Q245 71 267 101Z" />
<glyph unicode="&#xe7;" glyph-name="ccedilla" horiz-adv-x="468" d="M396 1T303 -8L274 -46Q315 -53 339 -78T363 -139Q363 -188 319 -215T208 -242Q200 -226 200 -199Q232 -199 255 -186T278 -151Q278 -131 261 -119T217 -106Q199 -86 199 -63L240 -7Q147 2
91 62T34 227Q34 289 61 344T140 433T267 467Q321 467 361 457T435 425Q425 378 425 301Q396 288 346 288Q343 345 322 375T267 406Q226 406 203 362T180 241Q180 170 214 119T315 67Q379 67 420 106Q441 87 444 58Q396 1 303 -8Z" />
<glyph unicode="&#xe8;" glyph-name="egrave" horiz-adv-x="513" d="M458 108T465 93T474 62Q436 26 388 9T277 -9Q155 -9 95 56T34 226Q34 297 63 351T145 436T268 467Q371 467 422 410T478 253Q472 224 453 205Q281 205 186 200Q195 138 228 103T322 67Q357
67 391 79T448 114Q458 108 465 93ZM229 405T207 370T182 264H341Q341 331 322 368T265 405Q229 405 207 370ZM214 584T185 621T119 693Q176 718 253 715Q281 622 323 545Q298 532 248 534Q214 584 185 621Z" />
<glyph unicode="&#xe9;" glyph-name="eacute" horiz-adv-x="513" d="M458 108T465 93T474 62Q436 26 388 9T277 -9Q155 -9 95 56T34 226Q34 297 63 351T145 436T268 467Q371 467 422 410T478 253Q472 224 453 205Q281 205 186 200Q195 138 228 103T322 67Q357
67 391 79T448 114Q458 108 465 93ZM229 405T207 370T182 264H341Q341 331 322 368T265 405Q229 405 207 370ZM274 530T255 534T223 544Q267 633 286 707Q321 720 375 720Q411 718 424 715Q352 629 293 530Q274 530 255 534Z" />
<glyph unicode="&#xea;" glyph-name="ecircumflex" horiz-adv-x="513" d="M458 108T465 93T474 62Q436 26 388 9T277 -9Q155 -9 95 56T34 226Q34 297 63 351T145 436T268 467Q371 467 422 410T478 253Q472 224 453 205Q281 205 186 200Q195 138 228 103T322 67Q357
67 391 79T448 114Q458 108 465 93ZM229 405T207 370T182 264H341Q341 331 322 368T265 405Q229 405 207 370ZM110 522T99 536T85 564Q127 593 171 631T248 707Q278 717 311 717Q372 638 464 555Q440 526 401 519Q369 542 331 567T264 607Q239 593 194 564T124
516Q110 522 99 536Z" />
<glyph unicode="&#xeb;" glyph-name="edieresis" horiz-adv-x="513" d="M458 108T465 93T474 62Q436 26 388 9T277 -9Q155 -9 95 56T34 226Q34 297 63 351T145 436T268 467Q371 467 422 410T478 253Q472 224 453 205Q281 205 186 200Q195 138 228 103T322 67Q357
67 391 79T448 114Q458 108 465 93ZM229 405T207 370T182 264H341Q341 331 322 368T265 405Q229 405 207 370ZM119 518T97 537T75 585Q75 617 94 638T152 660Q191 660 211 640T231 587Q231 557 209 538T154 518Q119 518 97 537ZM345 518T324 538T302 593Q302 624
323 642T380 660Q414 660 436 641T459 593Q459 561 441 540T384 518Q345 518 324 538Z" />
<glyph unicode="&#xec;" glyph-name="igrave" horiz-adv-x="356" d="M34 37T41 59Q81 61 94 78T108 146V305Q108 342 94 357T34 375Q34 413 45 434Q94 434 148 444T225 467Q254 455 254 414V146Q254 96 267 79T317 59Q323 40 323 -3Q280 0 179 0Q76 0 34 -3Q34
37 41 59ZM376 584T347 621T281 693Q338 718 415 715Q443 622 485 545Q460 532 410 534Q376 584 347 621Z" />
<glyph unicode="&#xed;" glyph-name="iacute" horiz-adv-x="356" d="M34 37T41 59Q81 61 94 78T108 146V305Q108 342 94 357T34 375Q34 413 45 434Q94 434 148 444T225 467Q254 455 254 414V146Q254 96 267 79T317 59Q323 40 323 -3Q280 0 179 0Q76 0 34 -3Q34
37 41 59ZM180 530T161 534T129 544Q173 633 192 707Q227 720 281 720Q317 718 330 715Q258 629 199 530Q180 530 161 534Z" />
<glyph unicode="&#xee;" glyph-name="icircumflex" horiz-adv-x="356" d="M34 531T19 563Q51 596 124 684L143 707Q184 716 209 716Q253 648 328 552Q316 540 296 531T254 519Q204 572 156 608Q104 559 71 516Q34 531 19 563ZM34 37T41 59Q81 61 94 78T108 146V305Q108
342 94 357T34 375Q34 413 45 434Q94 434 148 444T225 467Q254 455 254 414V146Q254 96 267 79T317 59Q323 40 323 -3Q280 0 179 0Q76 0 34 -3Q34 37 41 59Z" />
<glyph unicode="&#xef;" glyph-name="idieresis" horiz-adv-x="356" d="M42 518T20 537T-2 585Q-2 617 17 638T74 660Q114 660 134 640T154 587Q154 557 132 538T77 518Q42 518 20 537ZM233 518T212 538T190 593Q190 624 211 642T268 660Q302 660 324 641T347
593Q347 561 329 540T272 518Q233 518 212 538ZM34 37T41 59Q81 61 94 78T108 146V305Q108 342 94 357T34 375Q34 413 45 434Q94 434 148 444T225 467Q254 455 254 414V146Q254 96 267 79T317 59Q323 40 323 -3Q280 0 179 0Q76 0 34 -3Q34 37 41 59Z" />
<glyph unicode="&#xf0;" glyph-name="eth" horiz-adv-x="568" d="M533 456T533 279Q533 138 468 65T274 -8Q159 -8 97 50T34 219Q34 333 97 397T269 462Q298 462 318 457T355 441Q336 490 304 530Q254 506 192 473Q184 487 179 507T174 540L254 577Q203 615 131
637Q131 674 141 695Q202 695 273 717Q336 682 383 636L482 682Q500 648 498 614L430 586Q533 456 533 279ZM337 57T360 106T384 255Q384 322 374 373Q355 386 330 393T283 400Q233 400 208 358T183 235Q183 148 211 103T287 57Q337 57 360 106Z" />
<glyph unicode="&#xf1;" glyph-name="ntilde" horiz-adv-x="663" d="M630 40T630 -3Q543 0 505 0Q408 0 361 -3Q361 38 369 59Q398 59 412 80T426 153V258Q426 319 408 344T351 370Q311 370 283 328T254 210V146Q254 96 267 78T311 59Q319 37 319 -3Q276 0 181
0Q79 0 34 -3Q34 40 42 59Q81 59 94 77T108 146V294Q108 325 103 341T83 365T35 375Q35 414 47 434Q100 435 150 444T225 467Q254 456 254 412Q254 385 244 352Q246 355 253 371T272 401Q296 427 332 444T412 462Q481 462 526 423T572 299V146Q572 97 583 78T622
59Q630 40 630 -3ZM376 544T361 550T320 569Q299 581 284 587T252 593Q208 593 167 548Q143 569 142 601Q205 679 274 679Q294 679 310 673T351 654Q370 644 384 639T414 633Q451 633 480 670Q511 666 528 648Q497 594 465 569T396 544Q376 544 361 550Z" />
<glyph unicode="&#xf2;" glyph-name="ograve" horiz-adv-x="574" d="M165 -9T100 53T34 224Q34 299 67 354T158 438T289 467Q410 467 475 403T540 233Q540 160 509 105T419 21T284 -9Q165 -9 100 53ZM342 55T366 98T390 210Q390 271 375 315T333 383T276 406Q232
406 209 364T185 254Q185 164 215 110T298 55Q342 55 366 98ZM231 584T202 621T136 693Q193 718 270 715Q298 622 340 545Q315 532 265 534Q231 584 202 621Z" />
<glyph unicode="&#xf3;" glyph-name="oacute" horiz-adv-x="574" d="M165 -9T100 53T34 224Q34 299 67 354T158 438T289 467Q410 467 475 403T540 233Q540 160 509 105T419 21T284 -9Q165 -9 100 53ZM342 55T366 98T390 210Q390 271 375 315T333 383T276 406Q232
406 209 364T185 254Q185 164 215 110T298 55Q342 55 366 98ZM291 530T272 534T240 544Q284 633 303 707Q338 720 392 720Q428 718 441 715Q369 629 310 530Q291 530 272 534Z" />
<glyph unicode="&#xf4;" glyph-name="ocircumflex" horiz-adv-x="574" d="M165 -9T100 53T34 224Q34 299 67 354T158 438T289 467Q410 467 475 403T540 233Q540 160 509 105T419 21T284 -9Q165 -9 100 53ZM342 55T366 98T390 210Q390 271 375 315T333 383T276
406Q232 406 209 364T185 254Q185 164 215 110T298 55Q342 55 366 98ZM127 522T116 536T102 564Q144 593 188 631T265 707Q295 717 328 717Q389 638 481 555Q457 526 418 519Q386 542 348 567T281 607Q256 593 211 564T141 516Q127 522 116 536Z" />
<glyph unicode="&#xf5;" glyph-name="otilde" horiz-adv-x="574" d="M165 -9T100 53T34 224Q34 299 67 354T158 438T289 467Q410 467 475 403T540 233Q540 160 509 105T419 21T284 -9Q165 -9 100 53ZM342 55T366 98T390 210Q390 271 375 315T333 383T276 406Q232
406 209 364T185 254Q185 164 215 110T298 55Q342 55 366 98ZM325 544T310 550T269 569Q248 581 233 587T201 593Q157 593 116 548Q92 569 91 601Q154 679 223 679Q243 679 259 673T300 654Q319 644 333 639T363 633Q400 633 429 670Q460 666 477 648Q446 594 414
569T345 544Q325 544 310 550Z" />
<glyph unicode="&#xf6;" glyph-name="odieresis" horiz-adv-x="574" d="M165 -9T100 53T34 224Q34 299 67 354T158 438T289 467Q410 467 475 403T540 233Q540 160 509 105T419 21T284 -9Q165 -9 100 53ZM342 55T366 98T390 210Q390 271 375 315T333 383T276 406Q232
406 209 364T185 254Q185 164 215 110T298 55Q342 55 366 98ZM136 518T114 537T92 585Q92 617 111 638T169 660Q208 660 228 640T248 587Q248 557 226 538T171 518Q136 518 114 537ZM362 518T341 538T319 593Q319 624 340 642T397 660Q431 660 453 641T476 593Q476
561 458 540T401 518Q362 518 341 538Z" />
<glyph unicode="&#xf7;" glyph-name="divide" horiz-adv-x="550" d="M243 363T225 381T206 434Q206 466 226 483T277 500Q306 500 325 484T345 440Q345 407 328 385T280 363Q243 363 225 381ZM37 244T40 264T48 299H513Q513 252 502 229Q394 231 285 231Q233 231
129 229L37 228Q37 244 40 264ZM246 26T227 45T207 93Q207 123 223 142T274 161Q310 161 327 143T344 93Q344 63 325 45T276 26Q246 26 227 45Z" />
<glyph unicode="&#xf8;" glyph-name="oslash" horiz-adv-x="574" d="M482 395Q540 334 540 233Q540 160 509 105T419 21T284 -9Q202 -9 143 22L98 -31Q43 -31 19 -16L89 64Q34 125 34 224Q34 299 67 354T158 438T289 467Q369 467 425 438L471 490Q493 490 515
485T550 471L482 395ZM232 406T209 364T185 254Q185 211 192 177L351 362Q336 383 317 394T276 406Q232 406 209 364ZM342 55T366 98T390 210Q390 251 382 288L219 102Q249 55 298 55Q342 55 366 98Z" />
<glyph unicode="&#xf9;" glyph-name="ugrave" horiz-adv-x="613" d="M588 82T588 69Q588 45 579 24Q495 21 428 -9Q411 -2 404 10T396 48Q396 67 401 95Q387 60 366 41Q316 -6 231 -6Q155 -6 117 36T79 178V294Q79 325 75 341T58 365T15 375Q15 413 26 434Q78
435 124 444T196 467Q225 456 225 412V202Q225 135 239 107T286 79Q328 79 355 119T383 238V299Q383 330 378 346T357 370T310 380Q310 420 321 439Q378 440 427 447T500 467Q529 456 529 412V169Q529 135 533 119T549 96T587 88Q588 82 588 69ZM248 584T219 621T153
693Q210 718 287 715Q315 622 357 545Q332 532 282 534Q248 584 219 621Z" />
<glyph unicode="&#xfa;" glyph-name="uacute" horiz-adv-x="613" d="M588 82T588 69Q588 45 579 24Q495 21 428 -9Q411 -2 404 10T396 48Q396 67 401 95Q387 60 366 41Q316 -6 231 -6Q155 -6 117 36T79 178V294Q79 325 75 341T58 365T15 375Q15 413 26 434Q78
435 124 444T196 467Q225 456 225 412V202Q225 135 239 107T286 79Q328 79 355 119T383 238V299Q383 330 378 346T357 370T310 380Q310 420 321 439Q378 440 427 447T500 467Q529 456 529 412V169Q529 135 533 119T549 96T587 88Q588 82 588 69ZM308 530T289 534T257
544Q301 633 320 707Q355 720 409 720Q445 718 458 715Q386 629 327 530Q308 530 289 534Z" />
<glyph unicode="&#xfb;" glyph-name="ucircumflex" horiz-adv-x="613" d="M588 82T588 69Q588 45 579 24Q495 21 428 -9Q411 -2 404 10T396 48Q396 67 401 95Q387 60 366 41Q316 -6 231 -6Q155 -6 117 36T79 178V294Q79 325 75 341T58 365T15 375Q15 413 26 434Q78
435 124 444T196 467Q225 456 225 412V202Q225 135 239 107T286 79Q328 79 355 119T383 238V299Q383 330 378 346T357 370T310 380Q310 420 321 439Q378 440 427 447T500 467Q529 456 529 412V169Q529 135 533 119T549 96T587 88Q588 82 588 69ZM144 522T133 536T119
564Q161 593 205 631T282 707Q312 717 345 717Q406 638 498 555Q474 526 435 519Q403 542 365 567T298 607Q273 593 228 564T158 516Q144 522 133 536Z" />
<glyph unicode="&#xfc;" glyph-name="udieresis" horiz-adv-x="613" d="M588 82T588 69Q588 45 579 24Q495 21 428 -9Q411 -2 404 10T396 48Q396 67 401 95Q387 60 366 41Q316 -6 231 -6Q155 -6 117 36T79 178V294Q79 325 75 341T58 365T15 375Q15 413 26 434Q78
435 124 444T196 467Q225 456 225 412V202Q225 135 239 107T286 79Q328 79 355 119T383 238V299Q383 330 378 346T357 370T310 380Q310 420 321 439Q378 440 427 447T500 467Q529 456 529 412V169Q529 135 533 119T549 96T587 88Q588 82 588 69ZM153 518T131 537T109
585Q109 617 128 638T186 660Q225 660 245 640T265 587Q265 557 243 538T188 518Q153 518 131 537ZM379 518T358 538T336 593Q336 624 357 642T414 660Q448 660 470 641T493 593Q493 561 475 540T418 518Q379 518 358 538Z" />
<glyph unicode="&#xfd;" glyph-name="yacute" horiz-adv-x="562" d="M505 458T550 461Q550 422 540 398Q515 392 501 376T467 313L320 -37Q283 -126 254 -171T198 -233T135 -249Q104 -249 78 -238T38 -209Q36 -195 36 -184Q36 -148 46 -116Q92 -130 139 -130Q172
-130 193 -119T233 -79Q240 -69 256 -34Q180 146 101 308Q76 360 60 376T20 398Q12 425 12 461Q69 458 147 458Q241 458 302 461Q302 444 299 426T292 398Q264 393 252 386T240 363Q240 345 260 307Q301 221 331 141L393 298Q408 337 408 358Q408 376 397 385T362
398Q353 422 353 461Q399 458 453 458Q505 458 550 461ZM334 530T315 534T283 544Q327 633 346 707Q381 720 435 720Q471 718 484 715Q412 629 353 530Q334 530 315 534Z" />
<glyph unicode="&#xfe;" glyph-name="thorn" horiz-adv-x="628" d="M283 -9T247 1V-67Q247 -111 256 -135T287 -169T347 -183Q354 -203 354 -245Q302 -242 198 -242Q82 -242 27 -245Q27 -206 33 -183Q61 -181 75 -173T95 -144T101 -82V555Q101 592 87 607T27 625Q27
663 38 684Q87 684 141 694T217 717Q247 705 247 664V452Q247 414 241 384Q252 401 265 412Q285 433 320 450T397 467Q488 467 541 416T594 260Q594 182 560 121T463 25T319 -9Q283 -9 247 1ZM307 385T277 344T247 216V85Q263 68 280 60T321 51Q370 51 407 91T444
234Q444 299 420 342T350 385Q307 385 277 344Z" />
<glyph unicode="&#xff;" glyph-name="ydieresis" horiz-adv-x="562" d="M505 458T550 461Q550 422 540 398Q515 392 501 376T467 313L320 -37Q283 -126 254 -171T198 -233T135 -249Q104 -249 78 -238T38 -209Q36 -195 36 -184Q36 -148 46 -116Q92 -130 139 -130Q172
-130 193 -119T233 -79Q240 -69 256 -34Q180 146 101 308Q76 360 60 376T20 398Q12 425 12 461Q69 458 147 458Q241 458 302 461Q302 444 299 426T292 398Q264 393 252 386T240 363Q240 345 260 307Q301 221 331 141L393 298Q408 337 408 358Q408 376 397 385T362
398Q353 422 353 461Q399 458 453 458Q505 458 550 461ZM179 518T157 537T135 585Q135 617 154 638T212 660Q251 660 271 640T291 587Q291 557 269 538T214 518Q179 518 157 537ZM405 518T384 538T362 593Q362 624 383 642T440 660Q474 660 496 641T519 593Q519
561 501 540T444 518Q405 518 384 538Z" />
<glyph unicode="&#x2013;" glyph-name="endash" horiz-adv-x="583" d="M523 251T509 225Q268 225 60 220Q60 240 64 261T74 296H523Q523 251 509 225Z" />
<glyph unicode="&#x2014;" glyph-name="emdash" horiz-adv-x="1042" d="M982 252T969 225Q341 225 60 221Q60 240 64 262T73 295H982Q982 252 969 225Z" />
<glyph unicode="&#x2018;" glyph-name="quoteleft" horiz-adv-x="283" d="M60 579T83 630T151 724Q188 724 211 707Q183 675 173 654T163 605Q163 584 177 573T223 557Q223 506 211 466Q145 461 105 435Q81 443 71 463T60 523Q60 579 83 630Z" />
<glyph unicode="&#x2019;" glyph-name="quoteright" horiz-adv-x="283" d="M223 580T200 529T132 435Q95 435 72 452Q100 484 110 505T120 554Q120 575 106 586T60 602Q60 653 72 693Q138 698 178 724Q202 716 212 696T223 636Q223 580 200 529Z" />
<glyph unicode="&#x201a;" glyph-name="quotesinglbase" horiz-adv-x="283" d="M223 -12T200 -63T132 -157Q95 -157 72 -140Q100 -108 110 -87T120 -38Q120 -17 106 -6T60 10Q60 61 72 101Q138 106 178 132Q202 124 212 104T223 44Q223 -12 200 -63Z" />
<glyph unicode="&#x201c;" glyph-name="quotedblleft" horiz-adv-x="460" d="M60 576T84 629T150 723Q184 724 210 708Q162 654 162 605Q162 584 174 572T215 557Q217 502 203 467Q145 462 105 435Q81 444 71 464T60 525Q60 576 84 629ZM243 578T265 628T328 718Q364
718 387 702Q341 650 341 605Q341 563 400 557Q401 510 388 468Q324 462 286 437Q262 446 253 466T243 527Q243 578 265 628Z" />
<glyph unicode="&#x201d;" glyph-name="quotedblright" horiz-adv-x="460" d="M400 584T376 531T310 437Q276 436 250 452Q298 506 298 555Q298 576 286 588T245 603Q243 658 257 693Q315 698 355 725Q379 716 389 696T400 635Q400 584 376 531ZM217 582T195 532T132
442Q96 442 73 458Q119 510 119 555Q119 597 60 603Q59 650 72 692Q136 698 174 723Q198 714 207 694T217 633Q217 582 195 532Z" />
<glyph unicode="&#x201e;" glyph-name="quotedblbase" horiz-adv-x="460" d="M400 -10T376 -63T310 -157Q276 -158 250 -142Q298 -88 298 -39Q298 -18 286 -6T245 9Q243 64 257 99Q315 104 355 131Q379 122 389 102T400 41Q400 -10 376 -63ZM217 -12T195 -62T132
-152Q96 -152 73 -136Q119 -84 119 -39Q119 3 60 9Q59 56 72 98Q136 104 174 129Q198 120 207 100T217 39Q217 -12 195 -62Z" />
<glyph unicode="&#x2022;" glyph-name="bullet" horiz-adv-x="395" d="M132 124T96 164T60 261Q60 316 99 352T200 388Q263 388 299 351T335 260Q335 200 299 162T200 124Q132 124 96 164Z" />
<glyph unicode="&#x2039;" glyph-name="guilsinglleft" horiz-adv-x="317" d="M206 319T173 258Q206 193 258 125Q252 111 237 95T207 71Q128 164 60 221Q60 237 63 255T70 286Q130 336 198 412Q214 411 232 404T260 389Q206 319 173 258Z" />
<glyph unicode="&#x203a;" glyph-name="guilsinglright" horiz-adv-x="328" d="M111 169T155 241Q120 308 57 395Q84 415 118 415Q178 356 256 291Q268 264 268 232Q177 143 112 68Q82 85 66 114Q111 169 155 241Z" />
</font>
</defs>
</svg>
