<?xml version="1.0" standalone="no"?>
<!DOCTYPE svg PUBLIC "-//W3C//DTD SVG 1.1//EN" "http://www.w3.org/Graphics/SVG/1.1/DTD/svg11.dtd">
<svg xmlns="http://www.w3.org/2000/svg">
<defs >
<font id="Sacramento" horiz-adv-x="607" ><font-face
    font-family="Sacramento"
    units-per-em="2048"
    panose-1="2 0 5 7 0 0 0 2 0 0"
    ascent="1905"
    descent="-1084"
    alphabetic="0" />
<glyph unicode=" " glyph-name="space" horiz-adv-x="450" />
<glyph unicode="!" glyph-name="exclam" horiz-adv-x="535" d="M301 265Q300 250 290 240T263 229H262Q246 229 236 240T226 268L259 1400Q260 1416 271 1427T298 1437Q314 1436 324 1425T335 1398L301 265ZM308 22Q308 -1 293 -16T254 -32Q231 -32 216 -17T200
22Q200 45 215 60T254 76Q277 76 292 61T308 22Z" />
<glyph unicode="&quot;" glyph-name="quotedbl" horiz-adv-x="404" d="M292 1162Q290 1148 279 1140T254 1131Q237 1131 227 1142T217 1171Q217 1177 219 1187L255 1408Q257 1422 268 1430T293 1439Q309 1439 319 1428T330 1402Q330 1398 328 1388L292 1162ZM149
1145Q147 1131 136 1122T111 1112Q97 1112 86 1123T74 1151Q74 1155 74 1159T76 1171L101 1379Q103 1394 114 1403T139 1412Q156 1412 166 1401T176 1374Q176 1370 175 1357T172 1336L149 1145Z" />
<glyph unicode="#" glyph-name="numbersign" horiz-adv-x="694" d="M516 822L615 824Q631 824 642 813T654 786Q654 771 643 760T617 748Q584 748 554 748T495 747L440 560H537Q552 560 563 549T574 523Q574 507 563 496T537 485H418L329 176Q325 164 315 157T292
149Q275 149 265 160T254 186Q254 189 254 191T256 197L340 484H239L163 239Q159 227 149 220T127 213Q110 213 100 223T89 249Q89 253 91 261L160 483H78Q62 483 51 494T40 521Q40 537 51 548T78 559H183L240 743Q200 742 178 742T151 741Q135 741 124 751T113
778Q113 794 123 805T150 816L263 818L323 1009Q327 1021 337 1028T359 1036Q376 1036 386 1024T397 997Q397 992 395 984T392 974L344 819L438 821L506 1055Q510 1067 520 1074T542 1082Q559 1082 569 1071T580 1045Q580 1042 579 1038T577 1031L516 822ZM416
747Q390 746 366 746T321 745L263 559Q289 559 315 559T362 560L416 747Z" />
<glyph unicode="$" glyph-name="dollar" horiz-adv-x="1018" d="M968 903Q968 893 967 881T961 859T948 842T926 835Q910 835 900 846T889 873Q889 881 890 888T892 902Q892 936 870 961Q860 972 842 985T791 1010T711 1030T596 1038Q519 1038 439 1023T294 978T188
907T146 812Q146 771 177 745T256 703T364 678T481 663Q552 656 617 649T733 627T814 583T844 505Q844 470 829 435T777 372T683 326T538 306L527 29Q526 14 515 4T489 -7Q472 -7 461 4T451 33L463 308Q406 312 363 321T290 341T245 360T228 370Q211 381 211 402Q211
418 223 429T249 440Q258 440 269 434Q269 434 285 426T333 407T411 389T520 381Q578 381 624 390T702 414T751 451T768 496Q768 521 751 536T698 560T610 575T486 588Q353 601 272 624T145 678T85 742T70 811Q70 877 106 928T202 1017T338 1077T496 1109L511 1383Q512
1397 523 1407T549 1418Q566 1418 576 1406T587 1378L571 1114H592Q679 1114 748 1100T867 1058T942 992T968 903Z" />
<glyph unicode="%" glyph-name="percent" horiz-adv-x="1188" d="M1138 376Q1138 320 1118 271T1062 185T979 127T878 106Q824 106 777 127T694 185T638 271T617 376Q617 431 637 480T693 566T776 624T878 645Q932 645 979 624T1061 566T1117 480T1138 376ZM571
925Q571 869 551 821T495 735T412 677T311 656Q257 656 210 677T127 735T71 820T50 925Q50 981 70 1030T126 1116T209 1174T311 1195Q365 1195 412 1174T494 1116T550 1030T571 925ZM233 108Q224 95 207 95Q192 95 183 105T173 128Q173 140 180 148L939 1166Q944
1173 951 1176T966 1179Q980 1179 989 1169T998 1146Q998 1135 992 1126L233 108ZM1072 376Q1072 418 1057 455T1015 519T954 563T878 579Q837 579 802 563T740 520T699 455T683 376Q683 334 698 297T740 232T801 188T878 172Q918 172 953 188T1015 231T1056 296T1072
376ZM505 925Q505 967 490 1004T448 1069T387 1113T311 1129Q270 1129 235 1113T173 1070T132 1005T116 925Q116 883 131 846T173 782T234 738T311 722Q351 722 386 738T448 781T489 846T505 925Z" />
<glyph unicode="&amp;" glyph-name="ampersand" horiz-adv-x="1112" d="M1312 462Q1312 448 1302 438T1273 427Q1259 427 1244 428T1199 429Q1184 429 1155 428T1088 423T1007 417T920 409Q921 404 921 393Q921 296 879 221T766 95T602 17T409 -10Q337 -10 274
10T163 68T88 161T60 287Q60 344 83 392T145 477T239 541T356 581Q338 589 319 603T283 638T257 685T246 744Q246 820 280 876T369 969T488 1024T616 1042Q670 1042 716 1030T796 995T849 940T869 868Q869 835 856 806T821 754T768 720T701 707Q669 707 645 716T603
739T577 767T568 792Q568 808 578 819T605 830Q616 830 622 825T634 812Q644 800 658 788T705 776Q727 776 743 783T770 803T786 831T792 862Q792 881 782 900T750 934T696 958T618 967Q573 967 522 955T426 917T352 851T322 755Q322 719 334 695T369 654T421 629T489
612Q503 609 515 607T537 600T552 588T558 567Q558 551 548 542T519 532Q501 532 466 530T389 520T301 496T220 453T160 385T136 288Q136 231 157 189T216 119T302 78T409 64Q489 64 567 83T708 143T808 244T847 387Q847 391 847 394T846 403Q792 398 749 394T680
387Q672 386 667 386T658 385Q641 385 629 395T617 424Q617 438 626 448T652 461Q681 464 727 469T827 478T940 487T1050 496T1146 502T1216 504Q1272 504 1292 494T1312 462Z" />
<glyph unicode="&apos;" glyph-name="quotesingle" horiz-adv-x="250" d="M149 1172Q147 1158 136 1149T111 1139Q97 1139 86 1150T74 1178Q74 1182 74 1186T76 1198L101 1406Q103 1421 114 1430T139 1439Q156 1439 166 1428T176 1401Q176 1397 175 1384T172 1363L149
1172Z" />
<glyph unicode="(" glyph-name="parenleft" horiz-adv-x="704" d="M698 1570Q704 1559 704 1549Q704 1540 700 1531T687 1517Q686 1516 666 1502T613 1459T539 1389T454 1292T370 1167T297 1015T245 837T225 632Q225 486 248 371T306 168T382 17T458 -84T516 -143T541
-162Q558 -174 558 -194Q558 -211 547 -221T520 -232Q509 -232 500 -226Q496 -224 469 -203T403 -139T320 -28T238 134T175 352T150 632Q150 754 172 860T231 1055T311 1216T397 1342Q443 1401 487 1445T565 1519T622 1564T646 1581Q655 1587 666 1587Q687 1587
698 1570Z" />
<glyph unicode=")" glyph-name="parenright" horiz-adv-x="704" d="M554 718Q554 596 532 490T473 294T393 133T307 7Q261 -52 217 -96T139 -170T82 -215T58 -232Q49 -238 38 -238Q24 -238 12 -228T0 -200Q0 -180 17 -168Q18 -167 38 -153T91 -110T165 -40T250
58T334 183T407 334T459 513T479 718Q479 863 456 978T398 1182T322 1332T246 1434T188 1492T163 1512Q146 1526 146 1543Q146 1560 157 1570T184 1581Q195 1581 204 1575Q208 1573 235 1552T301 1488T384 1377T466 1216T529 998T554 718Z" />
<glyph unicode="*" glyph-name="asterisk" horiz-adv-x="574" d="M322 1267L444 1315Q452 1317 458 1317Q472 1317 483 1307T495 1280Q495 1255 471 1245L341 1193L428 1083Q436 1072 436 1060Q436 1044 425 1033T398 1022Q379 1022 369 1037L277 1152L174 1045Q163
1033 147 1033Q130 1033 120 1045T109 1071Q109 1087 119 1097L219 1201L99 1267Q79 1278 79 1300Q79 1317 90 1327T116 1338Q125 1338 135 1333L246 1271L252 1403Q253 1418 263 1428T289 1439Q306 1439 317 1428T327 1400L322 1267Z" />
<glyph unicode="+" glyph-name="plus" horiz-adv-x="750" d="M685 632Q685 616 676 605T649 592L415 580L398 356Q396 341 386 331T360 321Q345 321 334 332T323 358Q323 359 327 416T339 576L105 564Q90 563 78 572T65 599Q65 615 74 626T101 639L344 651Q348
701 352 757T361 877Q362 892 373 902T398 912Q416 912 426 900T437 872L420 655L645 667Q661 668 672 658T685 632Z" />
<glyph unicode="," glyph-name="comma" horiz-adv-x="368" d="M215 37Q215 -35 194 -102T115 -224Q102 -235 88 -235Q74 -235 62 -225T50 -198Q50 -182 61 -171Q99 -132 119 -82T140 34Q140 50 149 61T176 73Q191 73 202 64T215 37Z" />
<glyph unicode="-" glyph-name="hyphen" horiz-adv-x="750" d="M660 350Q660 334 651 323T624 310L280 292Q265 291 253 300T240 327Q240 343 249 354T276 367L620 385Q636 386 647 376T660 350Z" />
<glyph unicode="." glyph-name="period" horiz-adv-x="368" d="M238 29Q238 6 223 -9T184 -25Q161 -25 146 -10T130 29Q130 51 145 66T184 82Q207 82 222 67T238 29Z" />
<glyph unicode="/" glyph-name="slash" horiz-adv-x="1000" d="M124 -19Q113 -38 92 -38Q75 -38 65 -26T54 0Q54 9 57 15T63 26L876 1418Q881 1427 890 1432T909 1437Q926 1437 936 1425T946 1399Q946 1392 943 1384T936 1371L124 -19Z" />
<glyph unicode="0" glyph-name="zero" horiz-adv-x="1574" d="M1514 685Q1514 581 1488 485T1415 305T1301 152T1154 34T980 -42T787 -69Q687 -69 594 -42T421 34T274 152T160 304T86 484T60 685Q60 789 86 885T159 1065T273 1218T420 1336T594 1412T787 1439Q887
1439 980 1412T1153 1336T1300 1218T1414 1066T1488 886T1514 685ZM1439 685Q1439 778 1416 865T1350 1027T1248 1165T1116 1271T961 1339T787 1364Q697 1364 614 1340T459 1271T327 1165T225 1028T159 865T135 685Q135 592 158 505T224 343T326 205T458 99T614
31T787 6Q877 6 960 30T1116 99T1248 205T1350 342T1415 504T1439 685Z" />
<glyph unicode="1" glyph-name="one" horiz-adv-x="675" d="M581 1355Q581 1314 563 1273T527 1193Q527 1124 527 1037T526 853T526 657T525 463T524 285T524 139T523 39T523 0Q523 -16 512 -27T485 -38Q469 -38 459 -27T448 0Q448 2 448 54T448 193T449 389T449
618T450 854T451 1072Q399 1001 341 944T232 845T147 780T108 753Q97 747 88 747Q74 747 62 757T50 785Q50 805 68 817Q69 818 89 831T141 869T214 929T297 1008T380 1103T451 1212Q451 1228 451 1247T451 1286T451 1323T451 1353Q453 1398 469 1418T515 1439Q544
1439 562 1414T581 1355Z" />
<glyph unicode="2" glyph-name="two" horiz-adv-x="1622" d="M1764 170Q1762 168 1748 153T1707 117T1639 70T1543 25T1419 -10T1264 -24Q1190 -24 1117 -12T971 18T828 58T691 100Q563 38 447 9T236 -20Q174 -20 130 -8T56 25T14 72T0 127Q0 154 14 181T56 229T127
265T228 279Q271 279 322 271T431 250T552 219T682 181Q751 217 822 264T958 369T1081 493T1180 634T1246 791T1271 961Q1271 1067 1236 1151T1137 1294T984 1384T785 1415Q730 1415 670 1403T550 1368T438 1309T343 1228T278 1126T254 1002Q254 959 262 922T280
857T298 811T309 791Q314 781 314 772Q314 758 304 746T276 734Q254 734 243 753Q243 754 233 773T211 827T189 906T179 1003Q179 1078 204 1143T274 1263T377 1360T504 1431T645 1476T789 1491Q913 1491 1016 1454T1192 1347T1306 1180T1347 961Q1347 847 1306
733T1191 514T1013 317T785 151Q852 131 918 113T1044 81T1160 59T1262 51Q1375 51 1457 76T1594 131T1676 188T1705 217Q1717 231 1735 231Q1751 231 1761 220T1772 193Q1772 181 1764 170ZM579 133Q479 162 390 182T235 203Q197 203 168 196T118 179T86 154T75
127Q75 115 84 102T112 79T162 63T235 56Q308 56 395 75T579 133Z" />
<glyph unicode="3" glyph-name="three" horiz-adv-x="1226" d="M826 753Q894 730 955 695T1064 611T1138 499T1166 356Q1166 273 1141 207T1073 89T973 2T852 -58T721 -92T589 -103Q501 -103 427 -89T293 -53T188 -6T113 41T67 78T50 95Q40 105 40 120Q40 136
51 147T77 158Q94 158 105 146Q105 146 118 134T159 102T227 60T322 18T443 -15T590 -28Q696 -28 787 -3T946 72T1052 192T1090 355Q1090 429 1061 486T980 585T861 657T716 704Q653 681 582 667T441 652Q361 652 327 671T292 722Q292 729 296 743T319 771T377
795T486 805Q534 805 592 800T713 782Q786 811 841 850T934 931T989 1017T1008 1097Q1008 1161 981 1210T910 1294T808 1345T689 1363Q603 1363 529 1343T395 1293T289 1228T211 1162T164 1112T147 1091Q142 1083 134 1079T116 1075Q100 1075 90 1086T79 1112Q79
1124 86 1134Q88 1136 106 1160T160 1217T245 1290T362 1362T509 1417T686 1439Q761 1439 832 1417T959 1352T1049 1244T1083 1096Q1083 1049 1065 1002T1013 910T932 825T826 753ZM600 738Q561 744 514 744Q474 744 439 739T389 726Q399 721 415 720T451 718Q486
718 526 723T600 738Z" />
<glyph unicode="4" glyph-name="four" horiz-adv-x="1640" d="M1620 427Q1619 411 1608 401T1582 391Q1579 391 1550 392T1470 395T1345 398T1182 401Q1180 288 1180 179T1179 -28Q1179 -44 1168 -55T1141 -66Q1125 -66 1115 -56T1104 -30Q1104 -14 1104 25T1104
122T1105 250T1107 401Q994 401 865 399T594 391Q465 386 331 377T58 354Q43 354 32 364T20 391Q20 414 41 425Q42 426 89 452T217 529T404 655T632 828T881 1047T1134 1311Q1137 1346 1140 1371T1149 1408Q1160 1440 1173 1459T1199 1487T1223 1500T1243 1503Q1270
1503 1288 1484T1307 1436Q1307 1417 1297 1397T1272 1357T1240 1318T1207 1280Q1202 1219 1199 1131T1192 938T1187 715T1183 477Q1273 476 1346 475T1472 472T1554 469T1584 467Q1601 466 1610 455T1620 427ZM1126 1189Q1000 1051 871 935T623 725T402 561T224
444Q345 454 464 460T695 470T911 475T1107 477Q1108 568 1110 664T1114 852T1119 1031T1126 1189Z" />
<glyph unicode="5" glyph-name="five" horiz-adv-x="1326" d="M1256 377Q1256 287 1227 216T1146 89T1023 -6T870 -70T696 -107T511 -119Q411 -119 327 -102T177 -61T64 -9T-9 40Q-15 45 -17 51T-20 66Q-20 81 -9 93T18 105Q26 105 32 102T45 94Q61 84 97 61T192
13T328 -29T506 -48Q589 -48 671 -39T829 -10T968 44T1079 124T1153 234T1180 377Q1180 470 1142 539T1032 654T859 724T631 747Q535 747 467 740T352 722T277 700T232 681Q224 677 214 673T193 669Q176 669 166 680T157 708L187 1377Q188 1393 199 1403T228 1413Q241
1413 274 1412T349 1409T434 1406T512 1404Q639 1404 745 1409T930 1421T1053 1432T1102 1438Q1116 1438 1127 1428T1139 1402Q1139 1388 1130 1377T1106 1363Q1105 1363 1059 1358T934 1346T746 1334T511 1328Q451 1328 389 1329T261 1335L235 762Q262 771 301
782T390 802T500 817T629 823Q755 823 869 798T1069 718T1205 579T1256 377Z" />
<glyph unicode="6" glyph-name="six" horiz-adv-x="1479" d="M889 940Q991 940 1087 911T1256 824T1374 678T1419 473Q1419 358 1365 261T1218 93T1005 -18T752 -58Q665 -58 581 -39T421 18T281 110T170 232T97 383T70 560Q70 694 111 824T229 1069T410 1275T644
1422Q716 1453 780 1470T893 1495T973 1504T1007 1506Q1023 1506 1034 1495T1045 1468Q1045 1452 1034 1441T1007 1430Q1006 1430 979 1429T905 1420T799 1397T671 1352Q559 1303 463 1222T297 1037T186 812T146 561Q146 460 175 381T253 241T365 138T495 69T629
30T752 18Q869 18 976 52T1165 147T1295 292T1344 476Q1344 582 1302 656T1194 776T1046 843T887 864Q785 864 694 835T530 756T407 637T336 488Q333 475 323 467T300 459Q283 459 272 470T261 497Q261 501 263 509Q287 601 344 680T483 816T669 907T889 940Z"
/>
<glyph unicode="7" glyph-name="seven" horiz-adv-x="1323" d="M1284 1403Q1298 1403 1310 1392T1323 1364Q1323 1347 1309 1335Q1308 1334 1280 1310T1204 1239T1089 1125T947 970T788 776T620 545T455 281T301 -16Q290 -38 267 -38Q250 -38 240 -26T229 0Q229
9 233 16Q306 174 389 317T557 586T728 820T890 1018T1034 1177T1151 1294Q1050 1275 945 1267T736 1259Q646 1259 560 1264T397 1276T255 1292T142 1308T64 1321T30 1328Q16 1330 8 1340T0 1365Q0 1381 11 1392T38 1403Q43 1403 71 1398T147 1386T259 1369T399
1353T562 1340T740 1335Q877 1335 1014 1349T1274 1401Q1280 1403 1284 1403Z" />
<glyph unicode="8" glyph-name="eight" horiz-adv-x="1346" d="M1286 354Q1286 276 1259 214T1185 103T1076 19T944 -38T799 -72T655 -83Q600 -83 535 -78T403 -57T275 -14T166 58T89 167T60 318Q60 376 79 426T133 520T215 600T317 669T432 729T554 783Q489 805
428 836T318 912T240 1015T210 1150Q210 1224 247 1286T352 1394T518 1464T734 1489Q810 1489 871 1475T978 1435T1058 1378T1112 1309T1142 1237T1152 1167Q1152 1104 1129 1052T1059 956T944 872T784 795Q1286 664 1286 354ZM1077 1168Q1077 1230 1046 1276T965
1353T854 1399T734 1414Q633 1414 551 1395T409 1340T318 1257T285 1150Q285 1079 319 1027T408 937T530 873T663 827Q698 840 742 856T833 894T923 942T1001 1002T1056 1077T1077 1168ZM660 -9Q717 -9 779 -2T903 23T1020 68T1118 136T1186 229T1211 352Q1211
418 1185 469T1115 560T1015 628T898 679T777 717T667 748Q605 723 542 696T419 639T308 575T218 500T157 414T135 315Q135 235 173 175T280 74T445 12T660 -9Z" />
<glyph unicode="9" glyph-name="nine" horiz-adv-x="1479" d="M1409 842Q1409 708 1368 578T1251 334T1069 129T835 -17Q763 -48 699 -65T586 -90T506 -99T473 -101Q457 -102 446 -91T435 -63Q435 -47 446 -37T473 -26Q474 -26 501 -25T574 -16T680 8T808 53Q920
102 1016 183T1183 367T1294 592T1334 843Q1334 944 1305 1023T1227 1163T1115 1266T984 1336T850 1375T727 1387Q649 1387 575 1372T436 1328T315 1259T220 1167T158 1057T135 931Q135 859 154 803T206 703T284 628T379 578T484 549T590 540Q693 540 784 568T949
647T1072 767T1144 917Q1147 930 1157 937T1180 945Q1197 945 1207 934T1218 907Q1218 906 1218 905T1217 898Q1197 805 1140 726T1000 589T812 498T593 465Q491 465 395 494T225 581T105 726T60 930Q60 1045 114 1143T261 1311T474 1422T727 1462Q814 1462 898
1443T1059 1386T1199 1294T1309 1171T1382 1020T1409 842Z" />
<glyph unicode=":" glyph-name="colon" horiz-adv-x="468" d="M288 29Q288 6 273 -9T234 -25Q211 -25 196 -10T180 29Q180 51 195 66T234 82Q257 82 272 67T288 29ZM288 429Q288 406 273 391T234 375Q211 375 196 390T180 429Q180 451 195 466T234 482Q257 482
272 467T288 429Z" />
<glyph unicode=";" glyph-name="semicolon" horiz-adv-x="468" d="M285 429Q285 406 270 391T231 375Q208 375 193 390T177 429Q177 451 192 466T231 482Q254 482 269 467T285 429ZM265 37Q265 -35 244 -102T165 -224Q152 -235 138 -235Q124 -235 112 -225T100
-198Q100 -182 111 -171Q149 -132 169 -82T190 34Q190 50 199 61T226 73Q241 73 252 64T265 37Z" />
<glyph unicode="&lt;" glyph-name="less" horiz-adv-x="750" d="M642 276Q637 268 628 263T609 257Q598 257 588 264Q535 300 495 328T419 381T351 427T285 471T210 518T117 571Q98 582 98 605Q98 627 119 638Q187 675 247 716T358 799T451 879T521 946T566 993T583
1012Q595 1027 613 1027Q629 1027 640 1016T651 989Q651 975 644 967Q640 961 610 927T524 842T391 729T214 605Q261 577 296 555T362 514T420 475T479 435T547 387T633 328Q649 317 649 297Q649 286 642 276Z" />
<glyph unicode="=" glyph-name="equal" horiz-adv-x="750" d="M675 741Q675 725 666 714T639 702L115 691Q99 690 88 701T77 727Q77 743 87 754T113 766L637 778Q652 779 663 768T675 741ZM660 492Q660 476 649 465T623 454L112 446Q96 446 85 457T74 483Q74 498
84 510T111 522L621 529Q637 529 648 519T660 492Z" />
<glyph unicode="&gt;" glyph-name="greater" horiz-adv-x="750" d="M107 276Q100 286 100 297Q100 317 116 328Q165 361 202 387T270 434T328 475T386 513T452 555T535 605Q436 666 358 728T225 842T140 927T105 967Q98 975 98 989Q98 1004 109 1015T136 1027Q154
1027 166 1012Q167 1011 183 993T228 946T298 879T390 800T502 717T630 638Q651 627 651 605Q651 582 632 571Q580 542 540 518T465 472T398 428T331 382T254 329T161 264Q151 257 140 257Q131 257 122 262T107 276Z" />
<glyph unicode="?" glyph-name="question" horiz-adv-x="1588" d="M729 1489Q947 1489 1099 1446T1346 1332T1485 1169T1528 982Q1528 901 1495 824T1399 693Q1346 648 1281 611T1146 542T1009 478T883 413T781 340T717 252Q707 229 682 229Q666 229 656 240T645
266Q645 273 648 281Q675 342 724 387T834 469T966 535T1104 596T1236 662T1347 742T1423 845T1452 983Q1452 1066 1419 1130T1331 1241T1202 1322T1049 1375T887 1404T730 1413Q597 1413 488 1389T300 1318T178 1204T135 1052Q135 989 158 940T222 857T316 806T431
788Q479 788 524 800T605 835Q614 841 625 841Q640 841 651 831T663 803Q663 781 637 764T575 736T498 718T429 712Q343 712 275 738T159 811T86 919T60 1054Q60 1155 108 1235T245 1372T456 1458T729 1489ZM720 22Q720 -1 705 -16T666 -32Q643 -32 628 -17T612
22Q612 45 627 60T666 76Q689 76 704 61T720 22Z" />
<glyph unicode="@" glyph-name="at" horiz-adv-x="1390" d="M1290 503Q1290 432 1274 368T1225 254T1146 176T1037 147Q975 147 932 181T868 281Q829 215 780 184T687 153Q648 153 618 167T566 205T533 262T522 334Q522 414 549 474T618 576T712 637T811 658Q838
658 861 652T902 636T932 618T951 604Q956 599 961 592T966 574Q966 559 955 547T928 535Q916 535 908 542T887 559T856 576T803 584Q775 584 740 570T673 525T620 448T598 335Q598 309 605 289T625 254T653 232T686 224Q743 224 787 276T846 432Q847 447 857 456T880
466Q897 466 907 456T919 430Q920 410 923 374T939 303T976 242T1041 216Q1069 216 1099 231T1155 281T1196 370T1213 504Q1213 573 1184 638T1101 755T967 837T786 868Q669 868 575 827T414 715T311 548T275 341Q275 257 308 184T398 56T533 -31T701 -63Q761 -63
791 -58T830 -53Q847 -53 855 -62T864 -85Q864 -100 851 -110T815 -126T764 -134T708 -136Q613 -136 522 -104T359 -10T244 140T200 341Q200 470 243 579T363 769T549 895T787 941Q898 941 990 907T1149 814T1253 675T1290 503Z" />
<glyph unicode="A" glyph-name="A" horiz-adv-x="2165" d="M1956 5Q1960 -2 1960 -12Q1960 -27 1950 -38T1922 -49Q1911 -49 1903 -44T1889 -29Q1870 8 1856 63T1831 187T1814 333T1803 496Q1728 486 1635 474T1421 446Q1337 434 1250 425Q1036 192 800 72T325
-49Q219 -49 142 -29T14 17T-62 65T-90 89Q-100 99 -100 115Q-100 131 -89 142T-63 153Q-46 153 -35 141Q-33 139 -11 121T54 81T165 43T324 26Q450 26 565 60T782 148T973 273T1134 415Q1063 409 993 406T855 403Q721 403 600 418T387 468T241 563T186 710Q186
750 202 790T242 862T290 915T333 936Q347 936 359 926T371 899Q371 890 367 882T355 868Q353 866 338 854T306 822T275 773T261 711Q261 654 300 611T415 538T601 493T852 478Q933 478 1023 483T1213 498Q1261 551 1298 598T1361 682Q1404 743 1451 812T1544 952T1635
1092T1719 1223T1789 1335T1840 1419Q1846 1446 1858 1468T1897 1491Q1912 1491 1926 1479T1940 1447Q1940 1433 1930 1417T1911 1390Q1908 1371 1902 1309T1889 1158T1878 961T1873 743Q1873 702 1873 662T1875 581Q2025 600 2094 607T2167 615Q2180 615 2192
605T2205 577Q2205 563 2196 553T2171 540Q2153 538 2129 535T2070 528T1988 519T1878 505Q1881 423 1887 348T1903 207T1926 90T1956 5ZM1411 521Q1529 537 1625 549T1800 572Q1799 615 1799 658T1798 745Q1798 886 1803 1014T1817 1238Q1777 1175 1729 1099T1628
943T1523 785T1422 639Q1398 605 1373 573T1323 510Q1345 512 1366 515T1411 521Z" />
<glyph unicode="B" glyph-name="B" horiz-adv-x="2359" d="M1878 695Q1964 671 2024 640T2126 576T2192 507T2229 440T2245 381T2249 334Q2249 264 2223 209T2151 112T2047 41T1922 -6T1789 -33T1660 -42Q1561 -42 1456 -22T1242 43Q1218 53 1218 78Q1218 95 1230
105T1256 116Q1263 116 1271 113Q1364 74 1462 54T1659 34Q1794 34 1891 60T2050 128T2143 224T2173 333Q2173 394 2140 446T2045 539T1897 609T1706 652Q1637 640 1572 635T1452 630H1429Q1422 630 1416 631Q1344 458 1245 332T1033 124T802 2T574 -38Q461 -38
367 -7T204 83T98 223T60 408Q60 514 101 627T225 858Q303 968 398 1055T597 1209T813 1322T1033 1399T1247 1442T1444 1456Q1519 1456 1587 1451T1717 1436Q1753 1476 1775 1493T1800 1513Q1812 1519 1821 1519Q1835 1519 1846 1511T1857 1488Q1857 1468 1843
1455T1805 1418Q1988 1373 2085 1283T2182 1059Q2182 986 2158 928T2093 826T1996 750T1878 695ZM1707 728Q1751 736 1797 749T1888 780T1973 824T2042 884T2089 962T2107 1060Q2107 1172 2014 1245T1747 1353Q1697 1291 1653 1216T1572 1061T1506 898T1457 738Q1477
739 1494 739T1523 739Q1562 739 1608 737T1707 728ZM1662 1367Q1611 1374 1557 1377T1444 1380Q1356 1380 1257 1367T1054 1326T845 1254T640 1147T450 1001T286 814Q211 708 173 605T135 409Q135 322 166 253T256 137T395 64T574 38Q672 38 778 73T985 182T1177
368T1336 636Q1318 636 1299 646T1280 680Q1280 704 1303 714T1375 732Q1402 814 1430 896T1492 1058T1567 1215T1662 1367Z" />
<glyph unicode="C" glyph-name="C" horiz-adv-x="1739" d="M1674 371Q1627 295 1547 221T1365 87T1141 -9T891 -46Q790 -46 690 -28T497 27T325 120T186 254T94 429T60 647Q60 764 94 869T191 1063T338 1225T524 1347T737 1425T966 1452Q1095 1452 1208 1422T1407
1336T1541 1203T1591 1030Q1591 942 1550 863T1438 723T1271 628T1067 593Q980 593 913 614T801 674T733 763T710 873Q710 922 725 962T759 1032T794 1077T813 1096Q818 1101 824 1102T837 1104Q853 1104 864 1094T875 1068Q875 1050 862 1038Q860 1037 848 1025T822
991T797 939T785 873Q785 816 810 777T877 714T968 679T1068 668Q1161 668 1242 698T1385 778T1481 893T1516 1029Q1516 1107 1472 1171T1353 1281T1178 1352T963 1377Q877 1377 783 1357T596 1295T421 1193T274 1051T174 868T136 647Q136 538 166 450T251 294T377
175T533 93T708 45T889 29Q1009 29 1120 62T1325 150T1493 273T1609 410Q1614 419 1623 423T1642 428Q1659 428 1669 417T1679 391Q1679 386 1678 381T1674 371Z" />
<glyph unicode="D" glyph-name="D" horiz-adv-x="2094" d="M936 1471Q1059 1471 1187 1449T1436 1380T1664 1265T1851 1102T1977 892T2024 633Q2024 491 1974 370T1834 161T1619 23T1344 -27Q1273 -27 1197 -17T1045 16T896 70T755 148Q676 70 573 27T354 -17Q292
-17 238 -3T145 37T83 100T60 182Q60 221 79 255T134 315T219 356T328 371Q502 371 740 243Q784 298 812 367Q843 444 860 525T891 688T919 846T959 991T1026 1115T1135 1212Q1145 1217 1153 1217Q1167 1217 1179 1207T1192 1179Q1192 1158 1173 1147Q1120 1116
1087 1070T1031 965T996 840T971 700Q961 640 949 575T919 445T874 319T806 205Q808 204 808 204T811 202Q938 126 1075 87T1343 48Q1485 48 1597 95T1788 221T1907 407T1948 631Q1948 751 1908 854T1799 1043T1634 1194T1428 1304T1196 1372T952 1396Q788 1396
653 1369T420 1288T268 1158T214 983Q214 927 230 884T272 810T328 756T384 721T428 701T450 694Q463 691 470 681T478 657Q478 640 466 631T440 622Q420 622 390 631T327 660T260 709T199 779T156 870T139 983Q139 1096 196 1186T359 1340T610 1437T936 1471ZM686
186Q582 241 493 269T330 297Q288 297 253 288T191 262T150 225T135 181Q135 159 148 137T189 98T258 70T354 59Q448 59 533 92T686 186Z" />
<glyph unicode="E" glyph-name="E" horiz-adv-x="1698" d="M1636 425Q1635 421 1622 391T1579 317T1498 220T1372 117T1192 25T951 -39Q859 -54 758 -54Q674 -54 590 -43T428 -7T283 56T167 146T89 265T60 416Q60 563 141 669T383 834Q326 887 298 951T270 1084Q270
1170 309 1243T419 1369T585 1451T797 1481Q913 1481 999 1459T1147 1404T1248 1332T1311 1259T1343 1202T1353 1175Q1354 1171 1354 1164Q1354 1150 1344 1139T1316 1127Q1304 1127 1295 1134T1281 1155Q1281 1157 1273 1176T1245 1224T1191 1283T1102 1342T973
1388T797 1406Q681 1406 596 1377T455 1302T372 1198T345 1086Q345 1021 377 962T469 861Q523 875 575 883T673 895T756 901T818 903Q862 903 899 897T962 878T1004 846T1019 801Q1019 776 1004 756T963 722T899 701T818 693Q770 693 721 699T626 716T536 743T458
781Q299 733 217 643T135 419Q135 347 160 290T231 188T336 113T466 61T610 32T759 22Q807 22 852 25T939 36Q1065 56 1160 94T1325 178T1441 271T1514 358T1553 423T1565 449Q1569 461 1578 467T1600 474Q1616 474 1627 463T1638 437Q1638 433 1636 425ZM943 800Q943
808 930 814T897 823T850 828T797 830Q738 830 685 827T564 810Q616 791 683 780T820 768Q883 768 913 778T943 800Z" />
<glyph unicode="F" glyph-name="F" horiz-adv-x="2216" d="M2291 1480Q2325 1480 2364 1473T2438 1448T2494 1401T2516 1327Q2516 1273 2485 1229T2396 1154T2260 1105T2084 1087Q1976 1087 1850 1102Q1827 1030 1816 941T1803 743Q1841 744 1880 744T1962 745Q2018
745 2075 744T2190 740Q2207 739 2216 728T2226 701Q2226 685 2215 675T2189 665Q2132 665 2076 667T1964 669Q1922 669 1882 669T1803 667Q1803 653 1803 640T1804 613Q1804 457 1757 336T1620 131T1397 5T1094 -38Q968 -38 871 -16T700 44T574 127T486 221T430
313T399 390Q398 393 398 395T397 401Q397 416 408 427T436 439Q448 439 457 432T471 413Q480 385 498 346T547 266T625 183T738 110T892 58T1094 38Q1408 38 1568 184T1729 615Q1729 627 1729 639T1728 664Q1627 660 1542 655T1394 644T1291 635T1243 631Q1226
631 1213 640T1200 669Q1200 683 1210 693T1234 706Q1235 706 1272 710T1376 719T1532 730T1728 740Q1730 961 1774 1112Q1665 1128 1552 1150T1327 1198T1107 1247T898 1292T710 1324T550 1336Q449 1336 362 1316T212 1256T112 1161T75 1032Q75 985 92 948T132
884T173 843T194 827Q203 822 207 813T211 795Q211 778 200 768T174 757Q163 757 153 764Q129 780 102 806T53 865T15 941T0 1032Q0 1122 42 1192T159 1311T333 1385T551 1411Q620 1411 708 1399T897 1366T1110 1321T1338 1271T1571 1222T1800 1183Q1828 1261 1880
1317T2000 1410T2142 1463T2291 1480ZM2440 1329Q2440 1353 2425 1367T2386 1390T2338 1402T2291 1405Q2243 1405 2185 1395T2069 1359T1961 1288T1878 1173Q1989 1161 2083 1161Q2160 1161 2225 1173T2338 1208T2413 1261T2440 1329Z" />
<glyph unicode="G" glyph-name="G" horiz-adv-x="1775" d="M1735 961Q1735 946 1725 934T1698 922Q1683 922 1672 932T1659 959Q1658 963 1655 997T1635 1080T1584 1186T1491 1291T1340 1371T1119 1403Q1004 1403 888 1369T664 1272T464 1123T303 932T195 710T155
467Q155 354 186 274T272 142T401 68T562 44Q711 44 840 95T1080 234T1282 438T1445 684Q1453 806 1473 870T1535 935Q1558 935 1573 916T1589 867Q1589 834 1572 783T1520 665Q1517 618 1517 564Q1517 485 1523 391T1544 191Q1586 212 1609 221T1644 234T1658
238T1663 237Q1678 237 1689 227T1701 199Q1701 187 1694 178T1675 164Q1673 163 1641 151T1554 111Q1559 57 1562 2T1565 -109Q1565 -241 1546 -361T1484 -572T1368 -716T1191 -770Q1139 -770 1095 -752T1019 -702T969 -626T951 -528Q951 -453 976 -380T1044 -239T1142
-111T1255 1T1369 91T1473 154Q1460 254 1452 350T1442 538Q1355 399 1251 293T1032 115T798 7T558 -30Q450 -30 362 2T211 98T114 254T80 468Q80 596 120 720T231 957T399 1165T612 1329T856 1438T1119 1478Q1248 1478 1343 1449T1504 1374T1612 1275T1678 1173Q1698
1132 1709 1094T1726 1027T1733 980T1735 961ZM1482 71Q1432 43 1379 5T1275 -80T1179 -179T1100 -289T1047 -406T1027 -528Q1027 -566 1039 -596T1073 -648T1125 -682T1191 -694Q1332 -694 1411 -545T1490 -108Q1490 -65 1488 -21T1482 71Z" />
<glyph unicode="H" glyph-name="H" horiz-adv-x="2425" d="M1519 1451Q1519 1416 1500 1382T1451 1319T1384 1267T1309 1228Q1299 1186 1293 1135T1285 1020Q1283 942 1279 865T1267 712Q1348 715 1444 718T1645 725T1860 730T2081 732Q2089 892 2116 1016T2186
1225T2289 1354T2420 1398Q2432 1398 2449 1396T2484 1389T2513 1373T2525 1344Q2525 1339 2524 1335T2520 1325Q2509 1307 2490 1307Q2482 1307 2478 1309T2467 1314T2450 1319T2422 1322Q2407 1322 2384 1317T2333 1291T2278 1233T2225 1129T2182 966T2157 732Q2223
731 2287 730T2413 727Q2430 727 2439 716T2449 688Q2449 672 2438 662T2412 652Q2392 652 2371 652T2320 654T2250 656T2155 657Q2154 641 2154 625T2154 592Q2154 482 2162 395T2183 241T2211 127T2239 49T2260 4T2269 -11Q2276 -21 2276 -33Q2276 -48 2265 -59T2238
-71Q2219 -71 2208 -55Q2206 -52 2186 -16T2141 97T2098 296T2078 592V657Q1967 657 1855 655T1638 650T1436 644T1258 637Q1239 498 1200 375T1087 160T899 14T618 -40Q530 -40 448 -22T294 30T166 111T73 214Q67 223 67 234Q67 249 77 260T105 272Q114 272 123
268T137 255Q168 206 217 166T330 97T466 52T619 36Q766 36 866 82T1029 210T1127 399T1179 633Q1083 628 1027 625T969 622Q954 622 942 631T929 658Q929 674 938 685T964 698Q966 698 1026 701T1188 709Q1196 786 1200 864T1209 1023Q1211 1074 1216 1121T1230
1208Q1207 1203 1179 1200T1122 1196Q1034 1196 949 1210T779 1240T607 1271T430 1285Q356 1285 292 1270T179 1222T104 1142T76 1027Q76 985 91 953T125 899T161 865T184 849Q202 836 202 816Q202 800 192 790T167 779Q160 779 154 781T142 787Q119 801 94 823T48
875T14 944T0 1027Q0 1115 38 1178T139 1282T277 1342T431 1361Q518 1361 603 1347T775 1315T947 1284T1124 1269Q1160 1269 1189 1271T1244 1282Q1262 1345 1285 1390T1335 1465T1389 1509T1441 1523Q1474 1523 1496 1503T1519 1451ZM1436 1452Q1428 1452 1415
1444T1385 1418T1353 1373T1325 1309Q1358 1324 1383 1348T1423 1395T1442 1435T1436 1452Z" />
<glyph unicode="I" glyph-name="I" horiz-adv-x="1300" d="M1270 1550Q1294 1550 1312 1529T1330 1477Q1330 1435 1297 1384T1200 1276Q1189 1220 1181 1149T1173 986Q1173 846 1164 713T1130 463T1060 248T941 80T762 -30T513 -70Q393 -70 299 -42T140 35T40
151T5 296Q5 374 38 440T127 556T257 634T416 662Q429 662 442 662T467 658T485 646T493 622Q493 606 482 596T455 585Q445 585 436 585T416 586Q348 586 287 564T180 503T107 411T80 296Q80 241 100 198T154 123T232 67T326 30T425 10T522 3Q649 3 741 39T896
140T999 295T1060 495T1089 729T1098 987Q1099 1051 1103 1112T1114 1224Q1074 1203 1026 1183T930 1142T835 1096T754 1042T697 976T675 894Q675 853 689 823T724 771T770 737T816 716T853 705T871 701Q888 696 894 688T900 667Q900 650 890 640T865 629Q863 629
857 629T848 631Q815 638 772 655T691 704T626 784T599 901Q599 962 629 1009T707 1093T815 1159T934 1213T1045 1263T1130 1315Q1158 1436 1195 1493T1270 1550Z" />
<glyph unicode="J" glyph-name="J" horiz-adv-x="1157" d="M1016 1323Q987 1239 967 1131T947 892Q947 800 953 706T963 504Q987 517 1005 517Q1019 517 1030 508T1041 483Q1041 461 1021 451T964 424V337Q964 109 938 -81T852 -409T697 -624T461 -701Q402 -701
345 -679T244 -610T172 -496T144 -335Q144 -234 181 -143T280 29T421 178T582 303T745 401T888 470Q886 573 879 676T872 889Q872 991 884 1085T919 1262Q880 1240 834 1221T736 1185T632 1152T526 1121Q447 1098 383 1071T272 1007T201 925T175 819Q175 749 202
700T272 621T370 577T479 563Q495 563 505 552T516 525Q516 509 505 499T479 488Q411 488 344 507T222 567T134 670T100 816Q100 889 129 946T212 1049T340 1128T506 1188Q572 1207 637 1228T760 1271T868 1318T952 1370Q992 1482 1038 1542T1126 1603Q1135 1603
1145 1600T1165 1589T1181 1568T1187 1536Q1187 1492 1141 1436T1016 1323ZM889 391Q831 366 759 327T613 236T468 121T342 -14T253 -167T219 -334Q219 -407 240 -462T296 -554T377 -609T471 -628Q554 -628 617 -590T726 -483T804 -320T854 -112T881 129T889 391Z"
/>
<glyph unicode="K" glyph-name="K" horiz-adv-x="2363" d="M1047 1274Q1032 1253 1019 1226T994 1162T976 1080T967 975Q965 921 964 867T959 759Q964 760 975 760Q1026 760 1090 745T1222 698Q1314 722 1384 761T1509 848T1606 952T1685 1064T1753 1174T1820
1275Q1856 1323 1902 1366T1998 1440T2098 1490T2192 1509Q2207 1509 2219 1500T2232 1473Q2232 1457 2222 1446T2195 1434Q2165 1433 2125 1418T2041 1376T1956 1312T1880 1229Q1841 1176 1808 1121T1740 1013T1666 908T1577 810T1463 722T1313 648Q1384 603 1450
536T1593 385Q1657 316 1713 255T1823 149T1927 77T2030 51Q2094 51 2153 84T2253 182Q2264 199 2285 199Q2302 199 2312 187T2323 161Q2323 150 2317 141Q2266 60 2190 18T2031 -25Q1967 -25 1908 2T1790 78T1669 192T1537 334Q1491 383 1451 426T1372 504T1294
568T1213 618Q1159 605 1109 600T1017 595Q997 595 980 596T949 600Q941 512 926 431T884 278T819 147T723 46T590 -19T413 -43Q356 -43 301 -34T194 -6T96 39T12 100Q0 110 0 128Q0 143 11 154T37 166Q53 166 63 156Q128 97 220 65T413 32Q540 32 624 75T761 196T839
384T876 628Q864 639 859 651T853 678Q853 712 884 734Q887 793 888 854T892 981Q894 1084 914 1154T958 1272Q908 1270 853 1275T741 1288T627 1301T516 1308Q447 1308 386 1288T280 1232T208 1144T182 1032Q182 979 204 945T255 891T306 862T333 853Q346 850
354 840T362 816Q362 799 350 789T324 779Q318 779 315 780Q287 786 251 804T183 852T129 927T107 1032Q107 1110 139 1174T226 1285T356 1357T515 1383Q580 1383 647 1376T778 1362T900 1349T1008 1347Q1027 1371 1054 1394T1111 1434T1173 1463T1235 1474Q1267
1474 1290 1455T1313 1405Q1313 1381 1292 1359T1234 1319T1149 1289T1047 1274ZM1109 670Q1100 673 1085 676T1052 683T1014 688T975 690Q970 690 966 690T956 688Q955 683 955 678T954 667Q969 663 1008 663Q1014 663 1027 663T1055 664T1085 666T1109 670ZM1238
1413Q1228 1413 1212 1408T1177 1394T1139 1374T1105 1351Q1131 1353 1158 1363T1207 1384T1237 1404T1238 1413Z" />
<glyph unicode="L" glyph-name="L" horiz-adv-x="1846" d="M1800 163Q1799 161 1788 146T1757 110T1706 64T1634 19T1540 -16T1425 -30Q1327 -30 1241 -6T1076 57T919 141T762 231Q713 149 650 98T518 17T382 -22T257 -33Q202 -33 146 -22T44 16T-31 86T-60 193Q-60
253 -33 301T43 384T158 436T300 455Q357 455 413 445T524 418T629 380T725 336Q731 354 735 372T743 411T748 459T750 521Q750 554 749 584T746 649T743 729T741 836Q741 979 769 1096T852 1298T989 1428T1180 1475Q1246 1475 1305 1454T1410 1394T1482 1301T1509
1181Q1509 1145 1499 1106T1472 1035T1432 981T1384 960Q1370 960 1359 968T1348 993Q1348 1005 1353 1013T1367 1029Q1396 1055 1414 1093T1433 1181Q1433 1231 1413 1271T1358 1340T1278 1384T1182 1400Q1088 1400 1019 1359T905 1244T839 1064T817 829Q817 767
818 720T821 634T824 561T826 490Q826 469 824 445T818 395T808 345T793 300Q869 260 943 215T1093 133T1251 71T1424 46Q1504 46 1562 70T1659 123T1717 177T1736 203Q1747 221 1768 221Q1785 221 1795 209T1806 183Q1806 172 1800 163ZM696 268Q653 289 606 309T508
346T406 371T301 381Q242 381 190 369T99 332T38 274T15 197Q15 157 35 128T88 79T166 50T258 40Q316 40 378 49T498 84T607 154T696 268Z" />
<glyph unicode="M" glyph-name="M" horiz-adv-x="2722" d="M2382 1288Q2339 1225 2286 1137T2173 940Q2122 849 2073 747T1978 544T1895 351T1829 188T1785 75T1769 31Q1759 6 1733 6Q1720 6 1710 14T1697 36Q1697 37 1688 78T1662 189T1626 349T1583 538T1537
738T1494 930Q1427 741 1360 596T1221 343T1075 162T917 45T744 -19T552 -38Q500 -38 441 -27T324 9T213 69T119 154T54 266T30 406Q30 487 64 554T156 670T290 746T452 773Q514 773 563 763T651 736T716 701T761 666T787 639T796 627Q802 616 802 606Q802 592
792 580T764 568Q744 568 732 585Q731 586 716 603T667 642T580 680T449 697Q379 697 317 676T208 615T134 523T106 405Q106 342 127 290T183 197T264 126T360 77T460 48T556 38Q632 38 704 49T847 93T986 181T1121 327T1253 544T1385 844Q1405 896 1424 956T1463
1077Q1446 1165 1439 1227T1431 1330Q1431 1374 1438 1400T1456 1439T1480 1456T1505 1460Q1515 1460 1527 1456T1550 1439T1568 1399T1575 1329Q1575 1281 1566 1218T1539 1079Q1552 1018 1569 943T1604 788T1641 623T1678 459T1712 306T1743 174Q1770 242 1809
338T1896 543T1997 764T2107 977Q2186 1119 2252 1220T2366 1388T2441 1485T2471 1520Q2482 1531 2498 1531Q2515 1531 2525 1520T2536 1493Q2536 1486 2533 1479Q2533 1478 2522 1450T2493 1372T2454 1256T2413 1113T2378 953T2355 786Q2352 748 2350 707T2348
623Q2348 557 2354 490T2374 361T2412 245T2471 149T2554 83T2667 56Q2683 55 2692 43T2702 16Q2702 2 2691 -9T2665 -20Q2649 -20 2633 -17Q2561 -7 2506 24T2411 102T2345 208T2302 336T2280 477T2273 626Q2273 715 2282 804T2306 977T2341 1141T2382 1288Z"
/>
<glyph unicode="N" glyph-name="N" horiz-adv-x="2310" d="M2660 1504Q2658 1489 2647 1480T2622 1471Q2620 1471 2615 1471T2592 1472Q2573 1472 2544 1468T2479 1452T2405 1415T2329 1351T2259 1251T2203 1107Q2191 1065 2176 987T2143 810T2108 601T2075 383T2046
180T2026 14Q2024 1 2015 -9T1991 -20Q1977 -20 1967 -13T1952 8Q1939 56 1911 141T1847 332T1767 559T1682 796T1600 1021T1530 1211Q1525 1155 1515 1087T1487 940T1443 774T1381 592Q1325 448 1250 346T1091 176T923 69T762 9T627 -16T535 -22Q425 -22 333 7T173
89T68 217T30 382Q30 463 66 533T164 656T305 738T471 768Q542 768 598 754T698 719T773 672T825 625T856 586T869 567Q873 559 873 549Q873 535 863 523T835 511Q813 511 802 531Q801 534 783 559T726 615T626 669T478 694Q407 694 340 670T220 604T137 505T105
380Q105 307 139 247T231 143T367 77T533 53Q567 53 623 58T748 81T895 135T1047 235T1190 392T1311 620Q1365 758 1395 882T1441 1107T1459 1277T1463 1378V1398Q1463 1414 1473 1425T1501 1437Q1526 1437 1536 1412Q1539 1405 1553 1365T1591 1262T1645 1115T1710
939T1780 745T1850 548T1916 361T1972 197Q1983 277 1996 366T2023 547T2052 727T2081 892T2108 1030T2130 1128Q2152 1216 2193 1292T2292 1426T2426 1515T2594 1548Q2629 1548 2644 1540T2660 1509V1504V1504Z" />
<glyph unicode="O" glyph-name="O" horiz-adv-x="1584" d="M1500 835Q1518 845 1537 860T1575 891T1607 921T1630 947Q1636 954 1646 954Q1663 954 1673 942T1684 915Q1684 905 1680 898Q1668 882 1650 863T1607 823T1553 783T1493 744Q1476 547 1411 401T1244
156T1012 10T734 -39Q654 -39 573 -22T416 30T276 120T163 250T88 422T60 639Q60 758 88 864T172 1062T309 1227T496 1354Q504 1358 514 1358Q528 1358 540 1348T552 1321Q552 1310 546 1301T528 1286Q522 1283 491 1268T416 1220T323 1139T232 1018T163 853T135
639Q135 529 158 445T221 298T310 191T414 118T521 72T618 47T694 37T735 35Q859 35 972 74T1175 194T1326 402T1410 702Q1345 673 1275 657T1127 640Q1021 640 921 667T744 750T620 889T573 1083Q573 1173 604 1244T690 1366T815 1443T964 1470Q1028 1470 1092
1455T1216 1409T1327 1329T1417 1214T1478 1062T1500 870V835ZM1422 788Q1425 827 1425 866Q1425 1008 1384 1109T1276 1274T1126 1367T960 1397Q896 1397 840 1376T741 1315T674 1217T649 1083Q649 1011 679 945T770 827T919 745T1128 714Q1209 714 1282 734T1422
788Z" />
<glyph unicode="P" glyph-name="P" horiz-adv-x="1913" d="M1883 987Q1883 866 1837 771T1707 609T1506 507T1248 471Q1231 471 1219 480T1206 509Q1206 524 1217 535T1244 546Q1370 546 1474 575T1652 660T1767 799T1808 987Q1808 1095 1761 1179T1628 1321T1424
1409T1163 1439Q1029 1439 904 1417T668 1355T468 1259T313 1136T212 993T176 834Q176 762 201 708T267 618T363 563T476 545Q546 545 600 560T692 593T750 626T772 644Q783 655 798 655Q813 655 824 644T836 617Q836 600 824 590Q822 588 799 569T731 528T622
487T476 469Q401 469 333 494T213 566T131 681T100 834Q100 927 138 1013T246 1175T413 1313T628 1420T881 1489T1161 1514Q1320 1514 1453 1478T1681 1374T1830 1209T1883 987ZM1289 1225Q1304 1225 1315 1215T1327 1187Q1327 1177 1322 1169T1308 1154Q1252 1110
1219 1059T1168 950T1145 825T1139 687V561Q1139 437 1117 326T1043 130T902 -3T681 -53Q621 -53 564 -39T455 3T361 71T287 161Q285 165 283 170T281 181Q281 195 291 206T319 218Q329 218 337 213T352 199Q416 110 497 66T681 21Q799 21 873 64T990 183T1048
360T1064 575V702Q1064 769 1070 840T1097 980T1159 1110T1269 1219Q1273 1221 1279 1223T1289 1225Z" />
<glyph unicode="Q" glyph-name="Q" horiz-adv-x="1749" d="M1076 114Q927 48 787 18T520 -13Q426 -13 359 -2T244 28T169 69T126 116T105 162T100 201Q100 243 120 274T170 327T237 364T307 388Q226 471 185 571T144 785Q144 884 172 975T251 1144T373 1287T528
1396T709 1466T906 1491Q1007 1491 1099 1467T1271 1400T1415 1296T1526 1161T1597 1001T1622 824Q1622 736 1602 659T1546 516T1464 395T1366 294T1260 214T1155 154Q1209 120 1260 86T1361 19T1459 -41T1555 -90Q1615 -117 1674 -127T1787 -137Q1841 -137 1888
-130T1970 -113T2025 -96T2046 -88Q2053 -85 2061 -85Q2076 -85 2087 -95T2099 -123Q2099 -134 2094 -143T2077 -157Q2074 -158 2051 -167T1990 -186T1900 -204T1788 -213Q1727 -213 1660 -201T1524 -158Q1470 -134 1416 -102T1305 -34T1192 40T1076 114ZM1084
197Q1175 240 1258 299T1406 437T1508 612T1546 826Q1546 948 1497 1055T1362 1243T1159 1370T906 1417Q814 1417 728 1395T566 1332T426 1234T316 1107T245 956T219 788Q219 720 234 663T275 557T334 471T402 403Q415 404 428 404T456 405Q501 405 554 399T668
379Q781 353 885 303T1084 197ZM998 161Q938 200 880 229T761 278T637 311T502 330Q531 310 555 301T587 288Q612 277 612 254Q612 237 601 228T575 218Q564 218 551 223Q549 223 535 229T497 247T442 279T376 326Q350 326 316 319T250 296T197 258T175 201Q175
177 190 152T245 107T352 73T522 60Q561 60 612 64T724 79T854 109T998 161Z" />
<glyph unicode="R" glyph-name="R" horiz-adv-x="2073" d="M1289 1225Q1304 1225 1315 1215T1327 1187Q1327 1165 1308 1154Q1305 1152 1282 1135T1230 1080T1176 980T1143 825Q1141 809 1141 793T1139 761Q1157 763 1176 764T1218 766Q1290 766 1357 750T1480
704Q1625 762 1702 858T1779 1072Q1779 1160 1735 1228T1612 1344T1422 1416T1179 1441Q1064 1441 945 1424T714 1371T504 1284T333 1165T218 1014T176 834Q176 762 201 708T267 617T363 562T476 543Q546 543 599 557T688 587T742 618T763 635Q770 640 779 646T798
653Q813 653 824 643T835 616Q835 600 824 590Q822 588 799 569T731 527T624 487T478 469Q402 469 334 494T213 566T131 680T100 834Q100 929 139 1016T249 1180T419 1317T637 1423T894 1491T1177 1515Q1326 1515 1450 1486T1665 1401T1805 1265T1855 1082Q1855
947 1778 837T1550 654Q1605 607 1636 545T1683 418T1703 296T1710 199Q1712 142 1720 107T1744 51T1782 24T1837 16Q1882 16 1920 37T1988 91T2042 160T2082 230T2106 284T2115 307Q2125 332 2150 332Q2167 332 2177 321T2188 294Q2188 289 2186 281Q2185 277
2175 251T2144 187T2094 106T2025 27T1936 -34T1826 -58Q1773 -58 1738 -41T1680 8T1647 87T1634 194Q1633 219 1631 253T1624 326T1608 406T1580 486T1535 560T1469 621Q1392 595 1310 581T1139 565V535Q1139 412 1115 305T1035 118T893 -7T681 -53Q619 -53 559
-37T446 9T352 77T286 163Q281 171 281 181Q281 195 291 206T319 218Q341 218 352 199Q374 160 409 127T487 71T580 34T681 21Q784 21 857 57T976 161T1043 323T1064 535V574Q1031 585 1011 605T991 654Q991 683 1010 705T1064 741Q1064 764 1065 786T1068 831Q1074
903 1090 960T1129 1060T1176 1133T1221 1182T1256 1211T1272 1221Q1279 1225 1289 1225ZM1383 667Q1366 672 1350 677T1316 685T1275 691T1223 694Q1171 694 1138 688V687V639Q1199 639 1263 646T1383 667Z" />
<glyph unicode="S" glyph-name="S" horiz-adv-x="1681" d="M1814 1050Q1811 1036 1801 1028T1779 1020Q1761 1020 1750 1031T1739 1058Q1739 1073 1742 1087T1745 1116Q1745 1189 1700 1247T1573 1344T1372 1405T1109 1426Q998 1426 886 1412T670 1370T476 1301T320
1205T215 1084T177 938Q177 877 203 831T276 750T384 691T520 650T672 623T831 605L985 592Q1100 582 1191 571T1351 543Q1466 514 1521 460T1576 316Q1576 229 1528 163T1397 52T1203 -16T965 -39Q827 -39 723 -21T548 20T440 62T400 83Q382 93 382 115Q382 132
394 142T420 153Q431 153 440 147Q441 147 474 130T574 91T739 53T967 36Q1096 36 1195 57T1361 115T1463 203T1498 313Q1498 348 1486 373T1451 417T1399 449T1332 471Q1294 481 1251 488T1161 500T1069 509T977 517L823 530Q641 545 506 576T280 657T145 776T100
937Q100 1031 142 1109T258 1251T430 1360T641 1438T873 1484T1109 1500Q1254 1500 1361 1483T1545 1438T1671 1375T1750 1306Q1821 1223 1821 1117Q1821 1082 1814 1050Z" />
<glyph unicode="T" glyph-name="T" horiz-adv-x="1797" d="M1749 1392Q1763 1392 1775 1382T1788 1354Q1788 1333 1769 1322Q1768 1321 1742 1303T1679 1247Q1754 1238 1832 1238Q1908 1238 1970 1248T2082 1277T2168 1321T2229 1376Q2235 1383 2243 1387T2260
1392Q2276 1392 2286 1380T2297 1354Q2297 1340 2290 1332Q2266 1300 2226 1270T2129 1215T1998 1177T1833 1162Q1781 1162 1729 1166T1625 1179Q1602 1146 1583 1105T1551 1015Q1530 931 1528 837T1524 646T1514 452T1476 265Q1453 197 1415 139T1321 39T1194
-28T1033 -53Q887 -53 769 5T564 188Q561 193 556 202T551 220Q551 234 561 247T589 260Q600 260 609 255T623 241Q696 129 794 76T1032 22Q1106 22 1165 40T1269 93T1348 178T1403 292Q1427 362 1433 453T1442 644T1449 844T1477 1033Q1488 1080 1506 1120T1544
1194Q1410 1221 1278 1262T1019 1342T775 1409T553 1437Q458 1437 378 1410T239 1334T148 1216T115 1063Q115 1002 136 951T196 863T286 804T400 783Q465 783 516 802T606 851T672 914T717 977T743 1026T752 1046Q756 1057 766 1064T788 1071Q805 1071 815 1060T826
1033Q826 1030 826 1028T824 1022Q823 1020 813 996T782 937T728 862T648 788T540 731T399 708Q323 708 258 735T144 809T68 921T40 1063Q40 1165 79 1247T187 1389T350 1480T554 1512Q634 1512 715 1498T879 1461T1049 1410T1223 1354T1403 1300T1590 1259Q1615
1290 1639 1314T1683 1353T1716 1377T1731 1387Q1741 1392 1749 1392Z" />
<glyph unicode="U" glyph-name="U" horiz-adv-x="2034" d="M1610 648Q1552 468 1483 335T1339 114T1184 -17T1025 -60Q939 -60 881 -33T788 42T737 154T721 294Q721 382 740 482T782 684T825 887T844 1079Q844 1219 772 1295T563 1372Q477 1372 400 1345T264 1268T171
1150T136 1001Q136 945 149 905T181 836T223 791T266 765T301 753T317 750Q332 748 341 737T350 712Q350 696 339 686T312 675Q310 675 302 676T292 678Q253 688 212 709T137 769T82 864T60 1001Q60 1098 101 1179T211 1320T371 1413T562 1446Q646 1446 712 1421T824
1349T895 1233T920 1079Q920 986 901 885T858 683T816 483T796 295Q796 232 807 180T846 91T916 34T1024 13Q1067 13 1115 31T1216 95T1325 220T1441 422Q1484 512 1520 616T1586 823T1638 1023T1676 1194T1699 1314T1707 1361Q1710 1375 1720 1383T1744 1392Q1761
1392 1771 1381T1782 1356Q1782 1352 1777 1313T1762 1212T1742 1069T1719 898T1696 717T1675 541T1661 385T1655 265Q1655 136 1699 74T1816 11Q1866 11 1907 44T1981 124T2036 221T2070 306Q2074 318 2084 325T2106 332Q2123 332 2133 320T2144 294Q2144 290
2142 282Q2138 271 2127 242T2096 174T2050 94T1988 18T1910 -39T1814 -62Q1757 -62 1713 -40T1639 25T1594 127T1578 265Q1578 329 1587 430T1610 648Z" />
<glyph unicode="V" glyph-name="V" horiz-adv-x="2119" d="M1332 53Q1506 189 1645 342T1882 651T2032 963T2084 1260Q2084 1342 2067 1413T2016 1535T1937 1616T1832 1646H1813Q1796 1646 1785 1656T1773 1683Q1773 1707 1790 1714T1830 1722Q1903 1722 1964
1688T2068 1593T2135 1449T2159 1269Q2159 1111 2105 945T1944 610T1680 274T1317 -52Q1312 -56 1304 -61T1285 -66Q1266 -66 1257 -54T1248 -24Q1248 -17 1249 5T1253 59T1258 129T1263 207T1266 284T1268 350Q1269 569 1235 754T1127 1076T937 1288T655 1365Q532
1365 439 1332T282 1243T187 1119T155 977Q155 913 176 863T235 777T324 723T434 704Q484 704 525 715T595 739T640 764T659 778Q664 783 670 784T683 786Q698 786 709 777T720 751Q720 732 707 722Q705 720 685 706T630 675T544 644T433 630Q358 630 293 655T181
726T107 835T80 976Q80 1062 117 1145T226 1293T405 1397T652 1437Q833 1437 963 1359T1178 1137T1303 793T1344 345Q1344 276 1341 203T1332 53Z" />
<glyph unicode="W" glyph-name="W" horiz-adv-x="2851" d="M1146 -46Q1135 -66 1113 -66Q1095 -66 1085 -55T1075 -27Q1075 -25 1076 14T1077 121Q1077 206 1077 302T1075 497T1062 694T1031 881T976 1048T889 1181T763 1270T591 1302Q494 1302 414 1269T277 1179T188
1047T156 887Q156 814 181 753T251 646T353 576T478 550Q527 550 568 563T638 593T683 622T700 636Q711 647 727 647Q742 647 753 637T764 611Q764 596 753 585Q751 583 731 566T674 528T589 492T479 476Q396 476 324 507T197 593T112 723T80 887Q80 987 118 1076T225
1231T385 1336T587 1375Q728 1375 825 1325T985 1190T1083 995T1134 764T1153 523T1156 294Q1156 274 1156 251T1156 205T1155 162T1154 128L1824 1368Q1833 1387 1856 1387Q1873 1387 1883 1376T1894 1349Q1894 1344 1888 1313T1874 1229T1855 1109T1837 961T1822
797T1816 626Q1816 483 1831 373T1880 186T1969 71T2106 32Q2179 32 2245 63T2368 150T2474 279T2562 438T2632 616T2683 799T2714 976T2725 1134Q2725 1264 2696 1373T2601 1552Q2591 1562 2591 1577Q2591 1593 2602 1604T2629 1615Q2646 1615 2656 1604Q2694
1563 2721 1512T2766 1400T2792 1272T2801 1133Q2801 1023 2780 894T2718 634T2618 381T2481 166T2309 16T2106 -41Q2003 -41 1933 5T1821 139T1760 352T1741 634Q1741 699 1745 768T1756 903T1770 1030T1785 1140L1146 -46Z" />
<glyph unicode="X" glyph-name="X" horiz-adv-x="2011" d="M1974 8Q1974 -7 1963 -19T1936 -29Q1847 -22 1778 3T1655 68T1557 163T1477 285T1404 432T1331 602Q1163 438 982 279T602 -34Q589 -44 581 -51T566 -62T555 -67T544 -69Q529 -69 518 -58T506 -31Q506
-21 513 -10Q515 -7 516 -6T522 -1T533 8T554 25Q756 182 942 345T1299 676Q1297 679 1297 682T1294 689Q1251 786 1214 876T1139 1046T1056 1190T955 1302T825 1375T654 1401Q598 1401 540 1386T426 1344T322 1277T235 1190T177 1084T155 965Q155 910 172 865T219
786T289 735T378 717Q430 717 472 732T543 766T589 801T607 817Q618 828 634 828Q649 828 660 817T671 790Q671 774 660 763Q657 761 637 742T579 700T492 660T378 642Q315 642 261 666T166 733T103 835T80 964Q80 1035 103 1100T166 1222T261 1325T379 1405T512
1457T652 1475Q759 1475 840 1449T984 1376T1095 1262T1186 1112T1269 934T1356 733Q1554 933 1721 1131T2022 1524Q2033 1540 2053 1540Q2070 1540 2080 1529T2091 1503Q2091 1489 2084 1481Q1945 1279 1771 1073T1389 659Q1424 577 1456 501T1523 359T1596 237T1683
142T1794 76T1936 46Q1952 45 1963 35T1974 8Z" />
<glyph unicode="Y" glyph-name="Y" horiz-adv-x="2076" d="M2076 54Q2076 22 2037 16Q2035 16 2012 12T1952 -1T1868 -24T1772 -60Q1776 -114 1778 -167T1780 -273Q1780 -378 1764 -478T1710 -656T1609 -783T1453 -831Q1399 -831 1356 -812T1283 -759T1237 -680T1221
-584Q1221 -517 1249 -441T1335 -289T1482 -141T1693 -12Q1688 51 1685 120T1681 255Q1681 288 1683 330T1689 422T1698 525T1710 635Q1651 465 1582 335T1438 118T1280 -15T1113 -60Q1038 -60 983 -36T891 33T836 141T818 282Q818 386 840 504T889 745Q905 818
921 892T937 1032Q937 1105 916 1168T855 1277T755 1349T620 1376Q524 1376 440 1340T292 1238T192 1084T155 890Q155 827 170 765T216 650T297 560T414 511Q428 509 437 498T447 473Q447 458 436 447T410 435Q399 435 370 443T305 470T228 521T156 604T102 722T80
883Q80 1009 122 1113T238 1293T409 1409T619 1451Q712 1451 785 1419T909 1330T985 1196T1012 1030Q1012 997 1009 963T998 892Q983 815 965 735T930 577T904 425T893 286Q893 228 904 179T942 93T1010 36T1114 15Q1227 15 1334 116T1542 418Q1580 494 1613 583T1673
761T1721 932T1757 1077T1780 1180T1788 1220Q1790 1234 1800 1242T1824 1251Q1841 1251 1851 1240T1862 1214Q1862 1210 1857 1178T1844 1093T1826 971T1804 826Q1796 769 1788 696T1772 544T1761 389T1756 248Q1756 194 1759 136T1767 19Q1808 36 1850 49T1930
71T1995 86T2034 92Q2054 94 2065 83T2076 54ZM1699 -94Q1603 -138 1529 -199T1403 -326T1324 -460T1297 -584Q1297 -620 1307 -651T1338 -705T1387 -742T1452 -755Q1506 -755 1545 -732T1613 -670T1659 -581T1687 -478T1701 -371T1705 -271Q1705 -228 1703 -184T1699
-94Z" />
<glyph unicode="Z" glyph-name="Z" horiz-adv-x="1865" d="M1863 1286Q1865 1278 1865 1273Q1865 1253 1850 1243Q1753 1168 1644 1084T1421 910T1193 730T971 553T768 386T593 240T459 122T377 40Q423 47 493 59T661 81T880 100T1152 108Q1292 108 1450 97T1790
56Q1804 54 1813 44T1822 20Q1822 3 1811 -8T1784 -20Q1780 -20 1775 -19Q1597 10 1443 21T1151 33Q1031 33 925 27T730 13T570 -4T449 -21Q434 -23 418 -26T387 -31T360 -34T340 -36Q316 -36 297 -24T278 15Q278 29 284 44T308 76Q339 110 388 157T520 276Q567
317 634 372T780 493T948 628T1126 770T1303 911T1468 1042T1610 1153T1719 1238Q1612 1245 1503 1260T1287 1295T1080 1334T889 1370T720 1397T582 1408Q488 1408 407 1385T265 1319T170 1216T135 1083Q135 1033 152 988T203 909T288 856T407 836Q473 836 537
858T656 923Q667 931 679 931Q694 931 705 921T717 894Q717 875 703 864Q638 813 562 787T407 761Q320 761 255 787T147 858T82 960T60 1083Q60 1174 100 1248T212 1374T378 1454T584 1483Q655 1483 742 1471T927 1441T1133 1402T1353 1361T1578 1328T1804 1311H1826Q1838
1311 1848 1304T1863 1286Z" />
<glyph unicode="[" glyph-name="bracketleft" horiz-adv-x="705" d="M653 1616Q655 1608 655 1603Q655 1578 631 1567Q619 1562 606 1557T574 1548T530 1540T472 1533Q431 1529 391 1528T324 1526Q323 1499 321 1420T315 1230T308 982T299 704T291 424T284 167T279
-38T276 -165Q321 -152 365 -144T443 -136Q478 -136 494 -143T511 -175Q511 -191 500 -201T474 -212Q471 -212 463 -212T445 -211Q433 -211 416 -212T381 -217Q327 -226 294 -240T238 -254Q223 -254 212 -244T200 -216Q200 -215 200 -182T201 -88T203 55T207 240T212
457T221 698Q228 885 233 1043T242 1316T248 1497T250 1565Q250 1580 261 1590T287 1601Q287 1601 303 1601T345 1602T403 1604T466 1609Q500 1612 525 1617T569 1627T598 1636T616 1640Q628 1640 638 1634T653 1616Z" />
<glyph unicode="\" glyph-name="backslash" horiz-adv-x="1000" d="M941 19Q946 11 946 -1Q946 -15 936 -26T909 -38Q887 -38 876 -19L59 1380Q54 1387 54 1398Q54 1412 64 1424T91 1437Q113 1437 124 1418L941 19Z" />
<glyph unicode="]" glyph-name="bracketright" horiz-adv-x="705" d="M52 -232Q50 -224 50 -219Q50 -194 74 -183Q86 -178 99 -173T131 -164T175 -156T233 -149Q274 -145 314 -144T381 -142Q382 -115 384 -36T390 154T397 402T406 680T414 960T421 1217T426 1422T429
1549Q384 1536 340 1528T262 1520Q227 1520 211 1527T194 1559Q194 1575 205 1585T231 1596Q234 1596 242 1596T260 1595Q272 1595 289 1596T324 1601Q378 1610 412 1624T467 1638Q482 1638 493 1628T505 1600Q505 1599 505 1566T504 1472T502 1329T498 1144T493
926T484 686Q477 499 472 341T463 68T457 -114T455 -181Q455 -196 444 -206T418 -217Q418 -217 402 -217T360 -218T302 -220T239 -225Q204 -228 179 -233T136 -243T107 -252T89 -256Q77 -256 67 -250T52 -232Z" />
<glyph unicode="^" glyph-name="asciicircum" horiz-adv-x="626" d="M520 1173Q526 1164 526 1154Q526 1141 517 1131T493 1121Q476 1121 466 1134L314 1350L160 1134Q150 1121 134 1121Q120 1121 110 1131T100 1154Q100 1166 107 1174L289 1426Q299 1439 316
1439Q333 1439 342 1425L520 1173Z" />
<glyph unicode="_" glyph-name="underscore" horiz-adv-x="620" d="M620 -172Q620 -188 611 -199T584 -211H40Q25 -211 13 -202T0 -175Q0 -159 9 -148T36 -136H580Q596 -135 608 -145T620 -172Z" />
<glyph unicode="`" glyph-name="grave" horiz-adv-x="500" d="M353 641Q363 631 363 617Q363 604 354 594T330 584Q317 584 307 593L147 745Q137 754 137 768Q137 782 147 792T170 802Q182 802 193 793L353 641V641Z" />
<glyph unicode="a" glyph-name="a" horiz-adv-x="704" d="M811 279Q807 271 795 246T763 187T717 118T659 52T590 3T512 -17Q454 -17 415 20T357 113Q323 56 276 23T182 -11Q145 -11 115 2T64 40T32 98T20 170Q20 248 46 307T114 407T204 467T300 487Q331 487
357 479T401 460T430 442T441 432Q452 419 452 405Q452 390 441 379T415 367Q399 367 388 378Q386 380 379 385T360 397T332 407T294 412Q263 412 228 398T164 355T116 281T96 175Q96 156 100 137T114 101T141 75T183 65Q201 65 224 77T269 114T308 177T333 267Q335
281 346 290T372 300Q386 300 396 289T408 264Q409 245 412 211T425 142T457 83T515 58Q539 58 562 71T608 105T651 154T689 210T719 264T741 309Q746 320 755 326T776 332Q793 332 803 320T814 293Q814 286 811 279Z" />
<glyph unicode="b" glyph-name="b" horiz-adv-x="775" d="M881 277Q878 271 868 253T842 210T804 158T756 107T700 69T638 54Q586 54 550 72T491 114Q475 79 452 50T401 0T342 -34T277 -46Q216 -46 173 -10T102 86T57 227T33 395T22 573T20 744Q20 899 29 1012T53
1205T89 1334T133 1411T180 1449T227 1459Q264 1459 292 1437T340 1376T370 1280T380 1157Q380 1050 357 936T298 709T216 486T127 278Q133 229 145 185T176 106T221 51T281 30Q315 30 345 49T397 100T431 172T444 254Q444 282 439 310T422 361T393 398T352 412Q334
412 324 405T309 388T303 369T302 357Q302 343 308 329T331 304Q348 292 348 271Q348 254 337 244T311 234Q291 234 276 246T249 276T232 316T226 355Q226 384 236 408T263 450T303 477T351 487Q394 487 425 467T478 414T509 339T519 254Q519 229 516 205Q520 197
529 184T553 159T589 138T638 129Q662 129 687 147T736 193T780 252T813 311Q818 321 827 326T847 332Q864 332 874 320T885 293Q885 287 881 277ZM108 406Q142 490 177 582T240 771T286 965T304 1158Q304 1194 301 1233T288 1306T264 1361T224 1383Q216 1383 204
1373T177 1336T149 1262T124 1143T105 968T97 728Q97 682 98 635T100 544T104 465T108 406Z" />
<glyph unicode="c" glyph-name="c" horiz-adv-x="586" d="M692 277Q686 266 672 237T633 172T574 96T496 25T398 -29T279 -50Q222 -50 178 -30T103 28T56 117T40 230Q40 290 57 342T103 434T172 495T255 518Q288 518 315 507T360 476T389 434T400 388Q400 366
395 347T381 314T361 291T339 282Q322 282 312 293T301 320Q301 328 304 334T312 346T320 362T324 387Q324 408 305 425T255 442Q227 442 202 425T157 380T127 313T115 231Q115 190 125 153T155 88T205 42T278 25Q332 25 378 44T462 94T529 159T578 226T610 281T624
311Q628 321 637 326T658 332Q675 332 685 320T696 293Q696 287 692 277Z" />
<glyph unicode="d" glyph-name="d" horiz-adv-x="748" d="M426 291Q475 60 568 60Q604 60 637 86T698 151T749 233T785 308Q795 332 820 332Q836 332 847 320T858 294Q858 286 855 280Q848 263 835 235T802 174T758 107T705 46T644 2T575 -16Q508 -16 460 30T377
184Q329 82 280 36T174 -10Q144 -10 116 -1T67 31T33 87T20 172Q20 241 44 299T106 398T190 463T283 486Q298 486 309 476T320 449Q320 435 311 424T287 411Q257 407 223 392T161 349T114 276T95 171Q95 121 115 93T175 65Q191 65 209 73T247 107T292 178T347 299Q330
387 316 502T302 759Q302 821 306 888T319 1020T343 1143T379 1245T430 1314T496 1340Q529 1340 552 1322T589 1272T611 1195T618 1096Q618 980 598 864T549 642T486 446T426 291ZM543 1097Q543 1122 542 1151T535 1205T520 1248T496 1265Q471 1265 450 1221T412
1106T387 944T377 761Q377 673 384 585T400 428Q429 505 455 586T500 753T531 924T543 1097Z" />
<glyph unicode="e" glyph-name="e" horiz-adv-x="523" d="M158 110Q179 81 212 64T293 46Q342 46 382 69T455 131T514 216T561 310Q566 321 575 326T595 332Q612 332 622 320T633 294Q633 289 632 286T629 278Q560 126 479 49T294 -30Q228 -30 180 -5T101 61T55
153T40 255Q40 306 52 349T88 424T144 474T216 492Q239 492 261 483T302 456T331 413T342 356Q342 315 328 279T290 212T231 155T158 110ZM128 175Q159 188 184 208T228 252T256 302T266 356Q266 386 251 401T216 417Q189 417 170 402T139 363T122 310T116 251Q116
233 119 213T128 175Z" />
<glyph unicode="f" glyph-name="f" horiz-adv-x="455" d="M116 -49Q190 -16 250 27T358 117T439 214T493 309Q502 331 527 331Q544 331 554 320T565 294Q565 286 562 279Q540 230 506 178T424 75T310 -23T161 -109Q215 -165 255 -233T321 -376T361 -525T375 -670Q375
-733 364 -788T330 -885T275 -949T202 -973Q142 -973 109 -929T61 -806T43 -621T40 -389Q40 -327 40 -245T40 -68T41 130T43 338T45 542T48 733Q51 905 60 1040T89 1268T143 1409T231 1458Q273 1458 302 1435T349 1372T375 1279T383 1168Q383 1046 362 932T305
711T221 502T117 301Q117 260 117 213T117 118T117 27T116 -49ZM119 455Q160 532 194 617T254 794T293 980T307 1171Q307 1219 303 1258T289 1324T265 1367T231 1383Q211 1383 196 1359T170 1295T152 1203T139 1095T131 982T127 876T125 788T124 731Q123 691 123
660T121 599T120 535T119 455ZM116 -172Q116 -235 116 -289T115 -389Q115 -482 116 -573T125 -736T151 -853T202 -898Q232 -898 251 -871T280 -807T295 -732T299 -669Q299 -608 288 -541T253 -409T195 -282T116 -172Z" />
<glyph unicode="g" glyph-name="g" horiz-adv-x="623" d="M400 -98Q588 147 661 309Q666 320 674 325T694 331Q711 331 722 320T733 293Q733 286 730 279Q686 179 605 56T400 -222Q400 -285 401 -348T402 -486Q402 -561 399 -634T386 -774T362 -897T322 -995T263
-1060T181 -1084Q114 -1084 78 -1033T42 -888Q42 -838 51 -780T79 -659T122 -534T179 -410T246 -295T324 -195Q325 -125 325 -56T328 71Q298 33 257 11T174 -11Q139 -11 111 2T62 40T31 98T20 170Q20 248 46 307T114 407T204 467T300 487Q331 487 357 479T401 461T430
442T441 432Q452 420 452 405Q452 390 441 379T415 367Q401 367 388 378Q384 381 378 386T361 398T336 408T301 412Q271 412 235 399T168 356T116 282T95 172Q95 124 116 95T181 65Q202 65 225 77T271 114T309 177T333 267Q335 281 346 290T372 300Q389 300 398
288T408 261Q408 260 407 231T405 152T403 39T400 -98ZM324 -317Q277 -382 239 -458T174 -613T133 -764T118 -896Q118 -933 124 -955T140 -989T161 -1005T183 -1009Q214 -1009 237 -984T276 -918T302 -822T317 -711T324 -596T326 -491Q326 -448 326 -405T324 -317Z"
/>
<glyph unicode="h" glyph-name="h" horiz-adv-x="769" d="M117 85Q133 119 154 158T199 239T250 322T306 399Q335 434 364 449T420 465Q446 465 465 455T497 426T516 384T523 332Q523 309 519 271T514 190Q514 166 516 143T525 101T545 71T579 59Q603 59 627 72T674
108T718 158T756 213T786 266T807 309Q817 332 842 332Q859 332 869 320T879 294Q879 286 876 279Q872 271 861 246T830 188T784 119T727 53T659 3T582 -17Q536 -17 508 2T465 52T444 119T438 191Q438 209 439 229T443 270T446 307T448 337Q448 368 440 379T420
390Q404 390 384 372T341 323T296 256T252 181T214 111T186 55Q165 13 144 -1T105 -16Q74 -16 58 8T41 68V131Q41 320 41 491T46 810T61 1077T93 1281T146 1412T228 1458Q270 1458 299 1435T346 1373T372 1281T380 1170Q380 1052 359 939T301 717T217 507T116 307Q116
289 116 264T116 214T116 167T116 132L117 85ZM117 454Q159 546 193 633T252 808T291 984T305 1171Q305 1187 304 1222T295 1293T272 1356T228 1383Q206 1383 190 1354T162 1274T142 1156T129 1014T122 860T118 707T117 567T117 454Z" />
<glyph unicode="i" glyph-name="i" horiz-adv-x="430" d="M201 785Q201 747 175 721T110 694Q72 694 46 720T19 785Q19 804 26 820T45 849T74 869T110 876Q129 876 145 869T174 850T194 821T201 785ZM39 199Q39 343 57 486Q59 500 69 510T97 521Q112 521 122 510T132
483Q132 477 130 447T124 376T118 288T115 202Q115 149 125 117T152 66T187 42T223 36Q251 36 281 56T342 112T406 198T469 311Q474 321 483 326T503 332Q519 332 529 320T540 294Q540 284 536 277Q524 254 506 221T465 153T415 84T356 22T291 -23T222 -40Q177
-40 143 -21T86 30T51 105T39 199ZM145 785Q145 799 135 809T110 820Q96 820 86 810T76 785Q76 771 86 761T110 751Q124 751 134 761T145 785Z" />
<glyph unicode="j" glyph-name="j" horiz-adv-x="340" d="M210 785Q210 747 184 721T119 694Q81 694 55 720T28 785Q28 804 35 820T54 849T83 869T119 876Q138 876 154 869T183 850T203 821T210 785ZM114 -35Q151 5 190 49T265 138T331 226T378 309Q387 331 412
331Q429 331 439 320T450 294Q450 286 447 279Q424 227 384 171T298 60T203 -48T114 -146Q115 -226 116 -303T118 -449Q118 -724 64 -857T-97 -990Q-134 -990 -165 -974T-218 -928T-252 -854T-265 -754Q-265 -692 -249 -619T-196 -463T-101 -294T39 -116Q39 -30
40 55T43 219T50 366T61 488Q63 503 73 512T99 521Q114 521 125 510T136 483Q136 477 133 444T125 347T118 189T114 -35ZM153 785Q153 799 143 809T119 820Q105 820 95 810T84 785Q84 771 94 761T119 751Q133 751 143 761T153 785ZM43 -443Q43 -392 42 -341T40
-230Q-22 -305 -65 -378T-137 -518T-177 -645T-190 -754Q-190 -782 -186 -810T-172 -862T-143 -900T-97 -915Q-86 -915 -71 -910T-41 -889T-10 -841T17 -758T36 -628T43 -443Z" />
<glyph unicode="k" glyph-name="k" horiz-adv-x="715" d="M290 123Q307 85 346 63T434 40Q449 40 483 44T561 74T656 155T753 310Q758 321 767 326T787 332Q804 332 814 320T825 294Q825 288 821 278Q786 205 743 148T650 50T546 -12T434 -34Q389 -34 350 -20T282
17T237 70T220 131Q220 135 221 142T226 157T239 173T263 186Q304 198 338 215T398 255T437 303T451 361Q451 388 433 405T389 422Q362 422 336 404T286 355T239 285T199 202T166 117T143 38Q140 27 137 14T126 -10T109 -29T83 -37Q68 -37 54 -25T40 18Q40 24 40
64T42 168T44 316T47 493T50 686T53 879T55 1057T58 1207T59 1314T60 1364Q60 1380 72 1390T98 1401Q114 1401 125 1391T136 1363Q136 1361 136 1324T134 1223T132 1076T129 898T126 703T123 508T120 327T118 175Q134 226 159 282T218 387T294 466T389 497Q418
497 443 487T486 458T515 414T526 360Q526 315 506 278T453 211T378 159T290 123Z" />
<glyph unicode="l" glyph-name="l" horiz-adv-x="501" d="M607 277Q596 254 580 223T542 157T495 90T439 30T374 -13T300 -30Q240 -30 197 7T124 104T76 240T47 396T34 551T30 684Q30 768 35 858T53 1034T83 1197T127 1332T186 1424T261 1458Q294 1458 320 1443T365
1392T393 1301T403 1164Q403 1064 382 958T325 743T240 528T135 318Q160 191 202 119T303 46Q343 46 380 77T448 152T502 239T539 311Q544 321 553 326T573 332Q590 332 600 320T611 293Q611 287 607 277ZM106 679Q106 615 109 556T117 443Q159 524 197 615T264
800T310 986T328 1163Q328 1281 309 1332T258 1383Q237 1383 218 1354T181 1275T150 1157T127 1011T112 848T106 679Z" />
<glyph unicode="m" glyph-name="m" horiz-adv-x="1309" d="M269 89Q284 119 307 163T356 253T406 338T448 399Q477 434 508 449T565 464Q591 464 609 453T640 424T658 381T664 328Q664 312 663 286T660 230T657 168T654 108Q669 138 688 174T726 247T764 314T797
366Q840 425 877 445T944 465Q978 465 1000 453T1034 421T1052 377T1057 331Q1057 297 1052 260T1047 172Q1047 151 1049 130T1057 93T1078 67T1116 57Q1142 57 1167 70T1215 106T1258 156T1296 212T1326 265T1347 309Q1352 320 1361 326T1381 332Q1398 332 1408
320T1419 293Q1419 286 1416 279Q1412 271 1400 246T1368 188T1322 119T1263 53T1194 3T1116 -17Q1072 -17 1045 -2T1001 40T978 100T972 171Q972 220 977 261T982 326Q982 351 978 364T967 382T954 388T945 389Q921 389 895 363T840 292T783 192T723 78Q706 46
695 25T673 -8T652 -25T630 -30Q604 -30 591 -12T577 35Q577 50 578 75T580 130T583 192T586 253T588 306T589 341Q589 367 580 378T559 390Q548 390 535 382T503 351Q489 333 468 299T422 222T375 136T334 57Q313 15 292 0T251 -16Q222 -16 208 1T194 48Q194 51
195 84T199 164T203 266T208 367Q209 392 206 413T198 438Q190 436 167 401T107 279Q102 268 92 262T71 256Q54 256 44 267T34 294Q34 301 37 309Q82 416 123 466T203 517Q226 517 241 507T266 480T279 442T283 401Q283 312 279 238T269 89Z" />
<glyph unicode="n" glyph-name="n" horiz-adv-x="911" d="M260 90Q276 123 297 162T342 242T392 323T448 399Q477 434 506 449T562 465Q614 465 639 427T664 333Q664 320 663 302T660 262T657 220T655 179Q655 155 657 133T667 95T687 69T721 59Q759 59 795 88T861
158T914 241T948 309Q953 320 962 326T983 332Q1000 332 1010 320T1021 293Q1021 286 1018 279Q1014 271 1002 246T971 189T925 120T868 53T800 3T723 -17Q678 -17 650 0T606 46T585 109T579 179Q579 194 580 213T584 253T588 295T590 335Q590 367 580 378T562
390Q546 390 526 372T483 323T437 256T393 181T355 111T327 55Q307 13 287 -1T246 -16Q217 -16 200 1T182 51Q182 58 184 78T189 127T195 189T201 254T206 315T208 362Q208 387 206 410T198 438Q189 435 166 401T107 279Q102 268 92 262T71 256Q54 256 44 267T34
294Q34 301 37 309Q82 416 121 466T200 517Q223 517 239 506T264 475T278 433T283 386Q283 368 281 330T274 249T267 162T260 90Z" />
<glyph unicode="o" glyph-name="o" horiz-adv-x="647" d="M499 110Q474 110 455 114Q440 84 419 59T371 14T309 -16T235 -27Q188 -27 149 -11T81 35T36 106T20 198Q20 262 43 309T96 388T156 435T201 451Q218 451 226 442T235 418Q235 401 225 393T198 376Q182
368 164 354T131 317T105 265T95 198Q95 165 105 137T134 88T179 56T237 44Q294 44 331 70T389 138Q330 169 292 226T254 354Q254 411 281 447T354 483Q381 483 405 470T447 429T477 357T488 252Q488 220 480 185Q486 184 492 184T505 184Q539 184 566 192T615
216T654 257T688 315Q691 321 701 326T721 332Q734 332 745 322T757 294Q757 286 753 277T745 259Q728 229 706 202T653 154T584 121T499 110ZM328 362Q328 343 333 322T348 281T374 242T411 210Q414 231 414 251Q414 278 410 306T399 357T380 395T354 410Q348
410 338 401T328 362Z" />
<glyph unicode="p" glyph-name="p" horiz-adv-x="723" d="M551 279Q551 187 518 122T437 23H441Q500 23 548 49T636 117T706 210T761 309Q766 320 775 326T796 332Q813 332 823 320T833 294Q833 286 830 279Q804 221 768 163T684 57T576 -19T443 -49Q390 -49 340
-33T252 19Q238 30 228 42T212 66Q210 68 210 70Q204 79 204 89Q204 102 213 113Q214 115 215 115T217 117Q227 126 239 127H242Q247 127 249 126Q250 126 250 126T252 125Q255 125 259 123Q260 122 261 122Q270 116 276 107Q283 95 292 85Q300 77 311 71T336 64Q361
64 386 79T431 122T463 190T476 279Q476 315 469 340T450 382T425 405T400 413Q373 413 346 385T291 314T238 219T184 118Q182 -44 179 -191T167 -464T143 -692T102 -866T38 -978T-55 -1017Q-72 -1017 -94 -1010T-135 -982T-167 -920T-180 -813Q-180 -728 -159
-616T-100 -379T-8 -121T109 136Q109 171 109 205T110 271Q97 256 79 256Q62 256 52 268T42 294Q42 301 45 309Q69 364 82 413T101 500T109 560T110 583Q110 598 121 609T148 620Q163 620 174 610T185 583V276Q208 315 231 353T279 421T334 469T400 488Q434 488
462 472T510 428T540 362T551 279ZM107 -42Q58 -152 19 -263T-48 -477T-91 -670T-106 -828Q-106 -845 -104 -865T-96 -902T-79 -930T-50 -942Q-17 -942 7 -901T47 -789T75 -627T92 -435T102 -234T107 -42Z" />
<glyph unicode="q" glyph-name="q" horiz-adv-x="623" d="M400 -102Q442 -47 481 8T553 116T614 218T661 309Q666 320 674 325T694 331Q711 331 722 320T733 293Q733 286 730 279Q708 230 676 174T605 56T520 -68T425 -192Q468 -242 505 -316T570 -475T612 -648T628
-813Q628 -900 611 -952T570 -1032T520 -1068T476 -1077Q421 -1077 390 -1043T342 -942T321 -777T316 -551Q316 -467 317 -381T322 -212T329 -53T338 89Q306 41 267 15T179 -11Q143 -11 114 3T63 41T31 99T20 170Q20 248 46 307T114 407T204 467T300 487Q331 487
357 479T401 460T429 442T441 432Q452 422 452 405Q452 390 442 379T414 367Q405 367 400 370T388 378Q378 386 359 399T301 412Q271 412 235 399T168 356T116 282T95 172Q95 126 115 96T181 65Q203 65 229 79T280 123T324 195T352 295Q354 309 365 318T390 328Q406
328 416 317T427 290Q427 288 425 256T418 170T409 46T400 -102ZM393 -272Q392 -303 392 -332T391 -389Q391 -518 392 -629T400 -823T425 -953T475 -1001Q501 -1001 516 -979T540 -925T550 -862T553 -809Q553 -742 541 -667T507 -519T456 -382T393 -272Z" />
<glyph unicode="r" glyph-name="r" horiz-adv-x="621" d="M143 411Q139 384 133 361T122 320T112 291T107 279Q97 256 72 256Q58 256 46 266T34 293Q34 299 36 302T42 314T52 344T67 409Q50 409 32 410T-1 417T-27 436T-37 472Q-37 489 -28 518T-2 575T34 623T74
644Q97 644 111 627T134 586T145 534T149 487Q166 487 182 487T214 488Q271 488 301 463T331 381Q331 358 328 333T321 282T314 229T311 178Q311 142 321 119T346 81T378 62T409 56Q452 56 490 84T560 151T617 235T660 312Q665 321 674 326T693 331Q711 331 721
320T731 294Q731 284 727 276Q704 235 674 184T604 87T517 11T410 -20Q374 -20 342 -7T287 32T249 95T235 180Q235 230 245 279T255 374Q255 393 247 402T209 412Q195 412 179 412T143 411ZM76 485Q76 492 76 503T74 526T70 545T64 553Q61 553 57 546T47 528T38
505T32 485H76Z" />
<glyph unicode="s" glyph-name="s" horiz-adv-x="520" d="M149 370Q143 354 135 334T115 292Q106 275 97 266T72 256Q55 256 45 266T35 291Q35 296 36 299T41 311Q67 361 79 398T100 477Q93 500 90 516T87 549Q87 582 101 602T140 623Q163 623 176 603T190 554Q190
538 187 522T179 482Q202 425 225 381T266 301T295 232T307 168Q307 126 290 88T234 24Q239 23 244 23T254 23Q311 23 359 49T445 116T514 208T566 309Q576 332 594 332Q611 332 620 320T630 294Q630 286 627 279Q616 252 599 218T557 147T500 75T429 13T342 -31T239
-48Q172 -48 115 -25T21 53Q15 62 15 72Q15 87 26 98T53 110Q69 110 80 99Q81 97 87 93T101 83T121 73T145 69Q169 69 185 79T212 103T226 134T231 163Q231 188 223 213T203 263T176 314T149 370Z" />
<glyph unicode="t" glyph-name="t" horiz-adv-x="478" d="M848 1001Q848 985 837 976T810 966H303V955Q303 894 294 825T270 688T235 554T195 434T154 339T118 278Q131 232 149 193T189 124T238 77T294 60Q329 60 363 89T427 159T479 241T512 308Q522 332 547
332Q564 332 574 320T585 294Q585 287 582 280Q579 273 568 248T538 190T495 121T440 54T374 4T300 -16Q231 -16 176 29T83 155T24 347T4 590Q4 623 5 667T9 761T18 863T34 966H-325Q-341 966 -352 975T-363 1001Q-363 1017 -352 1026T-325 1036H51Q61 1072 74
1102T105 1154T144 1188T192 1201Q217 1201 235 1189T267 1154T287 1102T299 1036H810Q826 1036 837 1027T848 1001ZM95 378Q125 444 149 520T191 675T218 828T228 966H110Q96 904 88 813T79 590Q79 517 83 468T95 378ZM188 1126Q179 1126 162 1107T128 1036H224Q219
1078 210 1102T188 1126ZM111 306V305V306Z" />
<glyph unicode="u" glyph-name="u" horiz-adv-x="717" d="M370 112Q335 55 289 22T195 -11Q157 -11 127 3T75 42T42 104T30 185Q30 255 43 309T73 399T103 455T117 474Q122 480 129 483T145 486Q161 486 171 475T182 448Q182 442 180 436T174 424Q169 415 158
397T135 348T114 278T105 185Q105 126 128 96T195 65Q213 65 236 76T282 112T322 173T344 260L359 432Q361 447 372 457T398 467Q415 467 425 455T435 426L422 260Q420 239 423 205T438 138T471 82T529 58Q555 58 580 71T628 107T670 156T706 212T735 265T755 309Q760
320 769 326T789 332Q807 332 817 320T827 294Q827 286 824 279Q820 271 809 246T779 188T734 119T676 53T607 3T526 -17Q467 -17 428 16T370 112Z" />
<glyph unicode="v" glyph-name="v" horiz-adv-x="678" d="M443 315Q428 245 400 185T341 79T277 8T222 -20Q196 -20 165 6T105 78T57 189T38 328Q38 394 49 428T64 467Q69 476 77 481T97 486Q114 486 124 475T134 449Q134 439 130 432Q129 430 121 405T113 330Q113
271 125 221T154 135T189 79T220 58Q228 58 243 73T276 114T312 176T346 254T371 344T381 441Q381 451 381 460T380 480Q380 497 390 508T418 520Q431 520 441 512T455 490Q455 491 459 474T472 431T496 373T531 316T579 271T641 253Q660 253 674 261T697 279T710
298T715 308Q719 319 728 325T750 332Q766 332 777 321T788 294Q788 287 785 280Q779 266 768 248T738 214T696 188T641 177Q606 177 576 189T522 221T477 265T443 315Z" />
<glyph unicode="w" glyph-name="w" horiz-adv-x="949" d="M739 278Q736 226 725 174T691 79T629 11T535 -16Q500 -16 474 -6T428 22T395 62T373 110Q338 52 291 21T196 -11Q158 -11 128 3T76 42T42 104T30 185Q30 260 43 314T73 404T104 456T118 474Q123 480 130
483T146 486Q162 486 172 475T183 448Q183 437 175 424Q171 418 160 401T136 355T115 284T105 185Q105 126 129 96T196 65Q217 65 242 76T289 112T327 173T347 260L360 432Q361 447 372 457T399 467Q416 467 426 455T436 426L425 261Q422 208 428 170T450 108T487
72T536 60Q572 60 597 81T637 138T658 221T665 322Q665 385 658 427T651 483Q651 498 662 509T689 521Q703 521 713 513T726 490Q727 486 732 467T746 422T769 366T804 311T851 270T912 253Q931 253 944 260T967 278T980 297T986 308Q991 319 1000 325T1021 332Q1038
332 1048 320T1059 293Q1059 281 1049 261T1019 223T973 191T912 177Q883 177 858 185T812 208T772 240T739 278Z" />
<glyph unicode="x" glyph-name="x" horiz-adv-x="753" d="M634 566Q480 376 353 166Q388 114 430 80T525 46Q572 46 614 73T690 139T750 224T790 307Q800 332 825 332Q842 332 852 321T863 294Q863 289 861 281Q862 283 852 261T822 205T773 129T707 53T623 -6T524
-30Q458 -30 406 5T311 94Q294 64 278 34T246 -26Q235 -47 212 -47Q195 -47 185 -35T174 -9Q174 -1 179 9Q199 48 220 87T264 164Q230 223 206 284T168 400L109 278Q98 256 75 256Q58 256 48 268T37 294Q37 303 41 310L150 538Q155 547 164 553T184 559Q200 559
210 549T222 523Q223 509 229 479T247 411T274 328T311 241Q431 436 576 614Q586 627 605 627Q621 627 632 616T643 590Q643 576 634 566Z" />
<glyph unicode="y" glyph-name="y" horiz-adv-x="629" d="M410 -14Q445 21 481 57T551 134T614 217T667 310Q672 321 681 326T701 332Q718 332 728 320T739 293Q739 285 736 278Q705 213 665 159T581 57T492 -37T406 -129Q402 -198 406 -267T410 -415Q410 -479
406 -543T393 -665T369 -775T329 -863T273 -922T198 -944Q127 -944 89 -895T51 -758Q51 -710 61 -655T91 -542T136 -423T194 -306T260 -198T331 -104Q333 -56 335 -5T341 91Q315 45 277 17T192 -11Q116 -11 73 40T30 180Q30 245 42 298T69 390T96 449T108 469Q119
486 139 486Q156 486 166 475T177 448Q177 437 171 428Q172 429 162 412T139 361T116 282T105 181Q105 126 125 95T190 64Q247 64 293 148T371 394Q373 407 383 415T407 424Q423 424 434 413T445 386Q445 383 441 351T432 264T420 139T410 -14ZM330 -226Q285 -291
248 -363T183 -506T141 -642T126 -758Q126 -810 143 -839T197 -869Q230 -869 255 -837T298 -744T325 -599T334 -407Q334 -364 333 -320T330 -226Z" />
<glyph unicode="z" glyph-name="z" horiz-adv-x="735" d="M507 -148Q513 -229 513 -342Q513 -463 498 -564T454 -739T382 -854T283 -895Q255 -895 230 -882T187 -845T158 -788T147 -714Q147 -653 161 -585T209 -443T296 -289T429 -121Q425 -78 419 -41T402 23T379
65T346 80Q340 80 332 78Q309 51 291 36T257 13T232 3T216 1Q199 1 184 10T168 46Q168 55 174 69T196 98T235 127T295 148Q361 219 398 278T435 390Q435 435 407 462T336 489Q276 489 216 433T108 278Q97 256 73 256Q56 256 46 268T36 294Q36 303 40 310Q99 431
176 498T337 565Q371 565 402 553T458 519T496 464T510 389Q510 354 501 322T475 259T438 200T395 146Q422 134 439 112T468 63T486 7T496 -49Q534 -8 575 38T654 131T723 223T773 309Q778 320 787 325T807 331Q824 331 834 320T845 294Q845 286 842 279Q820 229
780 172T693 57T597 -54T507 -148ZM436 -228Q373 -305 332 -373T267 -501T232 -612T222 -707Q222 -758 240 -789T284 -820Q319 -820 347 -784T396 -686T427 -538T438 -355Q438 -329 438 -297T436 -228Z" />
<glyph unicode="{" glyph-name="braceleft" horiz-adv-x="835" d="M785 1499Q785 1484 775 1472T748 1460Q740 1460 735 1462T724 1469Q716 1475 695 1486T631 1497Q604 1497 569 1484T502 1439T448 1357T426 1229Q426 1164 434 1107T451 1002T469 914T477 847Q477
810 465 781T434 729T393 691T351 669Q372 654 392 634T429 590T455 535T465 470Q465 417 453 352T426 220T399 89T386 -26Q386 -52 392 -66T408 -88T427 -97T444 -99Q460 -99 471 -93T490 -78T506 -64T526 -57Q543 -57 553 -69T564 -95Q564 -113 552 -128T521
-153T481 -169T443 -175Q415 -175 391 -165T348 -136T320 -89T310 -25Q310 21 322 85T350 216T377 349T390 464Q390 498 377 526T343 575T300 612T257 638T222 653T207 658Q194 662 187 672T180 694Q180 711 191 721T217 732Q223 732 230 730T262 727Q286 727 311
735T356 758T389 796T402 846Q402 871 394 907T377 990T359 1097T351 1230Q351 1326 381 1391T454 1497T545 1555T629 1573Q661 1573 687 1566T731 1551T760 1536T772 1528Q785 1516 785 1499Z" />
<glyph unicode="|" glyph-name="bar" horiz-adv-x="500" d="M291 -136Q291 -151 280 -162T254 -173Q238 -173 227 -163T216 -135Q216 -134 216 -112T216 -50T217 41T217 153Q217 213 217 277T217 405T215 529T213 639Q212 706 210 793T205 971T199 1151T194 1308T191
1421T189 1465Q189 1481 199 1492T225 1504Q241 1504 252 1495T264 1468Q264 1466 265 1423T269 1311T275 1153T280 974T285 795T289 641Q290 595 290 541T291 430T292 313T292 197Q292 129 292 69T292 -36T291 -108T291 -136Z" />
<glyph unicode="}" glyph-name="braceright" horiz-adv-x="835" d="M50 -101Q50 -86 60 -74T87 -62Q95 -62 100 -64T111 -71Q119 -77 140 -88T204 -99Q231 -99 266 -86T333 -41T387 41T409 169Q409 234 401 291T384 396T366 483T358 551Q358 588 370 617T401 669T442
706T484 729Q463 744 443 764T406 808T380 863T370 928Q370 981 382 1046T409 1178T436 1309T449 1424Q449 1450 443 1464T427 1486T408 1495T391 1497Q374 1497 364 1491T345 1476T329 1462T309 1455Q292 1455 282 1467T271 1493Q271 1511 283 1525T314 1550T354
1567T392 1573Q420 1573 444 1563T487 1534T515 1487T525 1423Q525 1392 519 1353T504 1271T485 1182T466 1092T451 1008T445 934Q445 899 458 872T492 823T535 786T578 760T613 745T628 740Q641 736 648 726T655 704Q655 687 644 677T618 666Q612 666 605 668T573
671Q549 671 524 663T479 640T446 602T433 552Q433 526 441 491T458 408T476 301T484 168Q484 72 454 7T381 -99T290 -157T206 -175Q174 -175 148 -169T104 -154T75 -138T63 -130Q50 -118 50 -101Z" />
<glyph unicode="~" glyph-name="asciitilde" horiz-adv-x="750" d="M598 795Q615 795 630 782T656 749T673 708T680 670Q680 637 669 606T635 550T581 511T509 496Q469 496 441 512T393 553T356 606T323 659T286 699T237 716Q226 716 211 711T181 691T157 651T146
587Q146 571 147 560T149 543Q149 528 139 517T111 505Q87 505 79 522T70 586Q70 632 83 669T120 734T174 776T237 791Q280 791 310 775T363 734T402 681T437 628T474 588T523 571Q548 571 564 581T589 606T601 637T605 668Q605 683 598 694T583 716T568 736T561
757Q561 773 572 784T598 795Z" />
<glyph unicode="&#xa0;" glyph-name="nbspace" horiz-adv-x="450" />
<glyph unicode="&#xa1;" glyph-name="exclamdown" horiz-adv-x="535" d="M233 593Q234 608 244 618T271 629H272Q288 629 298 618T308 590L275 -542Q274 -558 263 -569T236 -579Q220 -578 210 -567T199 -540L233 593ZM226 836Q226 859 241 874T280 890Q303 890
318 875T334 836Q334 813 319 798T280 782Q257 782 242 797T226 836Z" />
<glyph unicode="&#xa2;" glyph-name="cent" horiz-adv-x="959" d="M542 1089Q609 1087 667 1070T769 1023T838 952T864 860Q864 811 842 768T781 692T691 641T583 622Q536 622 499 634T437 667T399 718T386 781Q386 809 394 832T413 871T433 896T444 907Q449 912
455 913T468 915Q483 915 494 905T506 878Q506 861 494 849Q486 841 474 826T461 781Q461 754 473 738T503 713T543 701T584 698Q627 698 664 711T729 747T773 799T789 859Q789 894 769 922T713 971T631 1003T532 1014Q500 1014 459 1007T373 982T287 939T211 874T157
784T136 668Q136 584 170 528T257 439T373 392T494 378Q551 378 604 394T703 435T783 494T839 560Q850 577 871 577Q888 577 898 565T908 539Q908 534 907 530T903 520Q874 473 830 434T733 366T622 320T506 302L495 26Q494 11 483 1T457 -10H455Q439 -9 429 2T419
30L431 305Q358 313 291 338T173 409T92 518T61 668Q60 750 93 821T182 948T311 1038T466 1084L479 1382Q480 1398 491 1408T519 1418Q534 1417 545 1406T555 1379L542 1089Z" />
<glyph unicode="&#xa3;" glyph-name="sterling" horiz-adv-x="971" d="M604 682Q604 667 594 657T567 646L406 644Q412 615 416 585T420 524Q420 480 410 444Q449 415 485 382T558 319T636 271T729 251Q768 251 793 260T833 281T857 307T871 331Q876 339 884 343T903
348Q920 348 930 338T941 314Q941 306 934 284T905 239T840 197T729 179Q670 179 623 198T534 247T456 311T382 375Q356 333 315 307T213 281Q199 281 175 284T128 300T88 333T70 391Q70 424 85 447T122 485T172 506T223 513Q257 513 287 506T343 486Q347 505 347
533Q347 556 343 584T332 643L185 642Q169 642 158 651T147 677Q147 693 157 703T184 713L315 714Q306 753 300 789T293 855Q293 930 317 986T382 1079T473 1135T580 1154Q631 1154 672 1140T742 1101T787 1043T803 973Q803 949 798 924T783 877T760 843T728 830Q714
830 703 840T691 867Q691 880 696 887T709 904T721 926T727 965Q727 984 718 1005T691 1042T644 1070T579 1081Q531 1081 492 1065T426 1019T383 947T368 852Q368 822 374 788T390 715L566 718Q581 718 592 708T604 682ZM212 352Q244 352 272 368T320 416Q297 428
272 435T219 443Q209 443 196 441T172 433T153 418T145 394Q145 370 165 361T212 352Z" />
<glyph unicode="&#xa4;" glyph-name="currency" horiz-adv-x="528" d="M455 537Q444 525 430 525Q418 525 408 533L343 589Q326 578 307 572T267 566Q243 566 222 573T183 595L103 536Q95 529 83 529Q69 529 60 538T50 562Q50 578 64 589L143 648Q132 673 132
701Q132 731 145 760L78 819Q67 827 67 843Q67 857 77 867T100 877Q111 877 121 869L188 810Q205 822 224 829T267 836Q291 836 313 828T353 805L425 861Q435 868 445 868Q460 868 471 855Q478 844 478 835Q478 819 465 809L392 753Q403 728 403 701Q403 668 387
638L451 583Q463 572 463 557Q463 547 455 537ZM337 701Q337 721 326 738Q324 740 323 742T319 747Q298 770 267 770Q234 770 215 746Q213 744 213 744Q212 743 212 742Q198 725 198 701Q198 677 210 661Q211 660 211 660T213 659Q215 655 215 655Q236 632 267
632Q298 632 316 652L322 658Q337 678 337 701Z" />
<glyph unicode="&#xa5;" glyph-name="yen" horiz-adv-x="1170" d="M1090 363Q1090 352 1083 343T1059 333Q1042 333 1023 335T987 337Q974 337 962 337T938 335V306Q938 188 889 126T755 64Q696 64 659 100T622 194Q622 224 633 254T671 311T744 361T859 396Q858
413 857 435T854 484L717 472Q700 470 688 480T676 507Q676 522 686 532T710 544Q752 548 786 551T851 556Q850 574 850 589T850 617Q850 643 853 688T861 781Q841 735 814 697T755 631T688 588T618 572Q569 572 537 590T485 636T457 701T449 773Q449 804 453 834T463
894T473 953T478 1012Q478 1034 473 1061T452 1113T410 1153T339 1170Q315 1170 279 1161T209 1126T150 1056T125 944Q125 887 141 854T177 802T216 779T239 772Q253 770 262 760T271 735Q271 718 259 708T233 697Q211 697 180 710T120 753T71 829T50 940Q50 1004
73 1059T135 1155T226 1219T338 1243Q389 1243 428 1225T496 1176T538 1103T553 1012Q553 982 549 952T539 892T529 831T524 769Q524 712 546 679T617 645Q639 645 663 655T712 685T757 730T794 787Q828 856 848 909T879 1002T896 1069T907 1112T919 1136T941 1143Q958
1143 968 1132T979 1105Q979 1101 975 1072T965 1000T953 904T940 799T930 701T926 624V563Q970 567 994 569T1031 572T1047 573T1051 574Q1065 574 1076 565T1088 538Q1088 524 1079 515T1054 503L929 491Q930 465 931 443T934 403Q939 403 948 403T967 404T986
405T1002 405Q1015 405 1030 404T1059 399T1081 386T1090 363ZM862 326Q826 321 796 310T744 282T710 244T697 199Q697 175 715 156T760 136Q804 136 833 174T862 296V326Z" />
<glyph unicode="&#xa6;" glyph-name="brokenbar" horiz-adv-x="500" d="M288 -136Q288 -151 277 -162T250 -173Q234 -173 223 -162T212 -135Q212 -134 212 -101T212 -13T213 113T213 260Q213 337 213 412T212 553Q212 569 223 580T249 591Q264 591 275 581T287
554Q287 505 287 450T287 337T288 222T288 113V-136ZM288 774Q288 759 277 748T250 737Q234 737 223 748T212 775Q212 776 212 809T212 897T213 1023T213 1170Q213 1247 213 1322T212 1463Q212 1479 223 1490T249 1501Q264 1501 275 1491T287 1464Q287 1415 287
1360T287 1247T288 1132T288 1023V774Z" />
<glyph unicode="&#xa7;" glyph-name="section" horiz-adv-x="1591" d="M1292 185Q1292 138 1268 91T1186 6T1034 -57T799 -81Q688 -81 604 -66T462 -33T375 0T343 18Q325 31 325 50Q325 67 336 77T362 87Q372 87 383 81Q384 81 410 67T489 37T619 8T799 -6Q895
-6 972 7T1103 44T1186 105T1215 186Q1215 228 1194 257T1135 305T1050 335T947 352T837 362T728 368Q418 386 259 473T100 707Q100 816 175 908Q100 979 100 1084Q100 1161 134 1225T228 1340T367 1429T537 1492T725 1529T916 1542Q1051 1542 1158 1525T1339 1469T1452
1372T1491 1228Q1491 1201 1485 1173Q1482 1160 1472 1152T1449 1143Q1432 1143 1422 1154T1411 1179Q1411 1191 1413 1203T1416 1227Q1416 1351 1292 1408T915 1466Q833 1466 747 1456T578 1424T423 1372T295 1298T208 1202T176 1085Q176 1035 202 998T273 932T375
885T495 853T618 833T733 821Q858 811 961 798T1137 760T1251 691T1292 577Q1292 508 1257 460T1153 377Q1220 348 1256 302T1292 185ZM728 746Q557 760 436 788T237 863Q176 790 176 708Q176 658 202 620T273 554T375 505T495 473T618 453T733 444Q827 439 906
431T1052 408Q1130 437 1173 475T1217 577Q1217 611 1196 635T1140 677T1056 706T954 724T841 736T728 746Z" />
<glyph unicode="&#xa8;" glyph-name="dieresis" horiz-adv-x="500" d="M395 674Q395 653 380 638T342 623Q321 623 306 638T291 674Q291 696 306 711T342 726Q365 726 380 711T395 674ZM209 674Q209 653 194 638T157 623Q136 623 121 638T106 674Q106 696 121
711T157 726Q179 726 194 711T209 674Z" />
<glyph unicode="&#xa9;" glyph-name="copyright" horiz-adv-x="1597" d="M1517 840Q1517 728 1485 621T1396 418T1259 242T1084 104T880 13T657 -20Q534 -20 429 23T246 143T124 325T80 553Q80 667 113 775T207 979T348 1155T525 1293T726 1383T940 1416Q1064
1416 1169 1373T1352 1252T1473 1069T1517 840ZM657 55Q759 55 857 85T1043 168T1203 295T1330 456T1412 641T1442 841Q1442 949 1405 1041T1301 1199T1142 1303T941 1341Q844 1341 748 1312T565 1230T402 1105T272 945T186 760T155 557Q155 449 192 357T295 198T453
93T657 55ZM567 561Q567 527 577 499T607 450T653 418T712 406Q737 406 762 411T810 423T855 440T894 457Q911 465 919 469T935 474Q949 474 961 464T973 437Q973 415 950 402Q943 398 922 387T871 363T804 342T726 332Q679 332 637 347T563 391T513 463T494 560Q494
609 511 662T559 765T630 860T719 939T819 992T924 1012Q951 1012 976 1005T1021 983T1051 946T1063 894Q1063 870 1057 846T1042 803T1025 768T1013 747Q1002 728 980 728Q964 728 954 738T943 764Q943 774 949 787T964 815Q973 832 980 848T988 879Q988 887 987
897T979 917T961 932T926 938Q885 938 842 922T760 877T685 812T624 733T582 647T567 561Z" />
<glyph unicode="&#xaa;" glyph-name="ordfeminine" horiz-adv-x="475" d="M284 1144Q256 1096 222 1078T158 1059Q130 1059 108 1069T69 1099T44 1143T35 1198Q35 1256 55 1300T106 1374T174 1419T245 1434Q274 1434 296 1426T332 1408T354 1385T362 1366Q362
1352 352 1343T327 1334Q319 1334 311 1339T294 1350T273 1361T247 1366Q226 1366 201 1357T153 1327T117 1276T102 1200Q102 1168 115 1148T158 1127Q171 1127 187 1135T219 1160T247 1203T264 1267Q266 1280 274 1289T296 1298Q311 1298 320 1289T331 1266Q337
1194 351 1158T398 1122Q402 1122 404 1123T411 1124Q424 1124 434 1115T445 1091Q445 1070 433 1062T398 1054Q360 1054 329 1080T284 1144ZM440 938Q440 924 431 915T407 905H63Q49 905 40 914T30 938Q30 952 39 961T63 971H407Q421 971 430 962T440 938Z" />
<glyph unicode="&#xab;" glyph-name="guillemotleft" horiz-adv-x="898" d="M548 1Q548 -13 537 -23T510 -34Q499 -34 489 -27Q405 31 328 84T169 185Q150 196 150 219Q150 241 171 252Q234 284 290 330T388 420T455 495T480 527Q485 535 493 538T510 542Q527
542 537 531T548 505Q548 492 541 482Q539 479 517 452T458 385T371 300T262 218Q310 189 355 159T448 95Q460 86 477 74T510 50T537 24T548 1ZM848 1Q848 -13 837 -23T810 -34Q799 -34 789 -27Q705 31 628 84T469 185Q450 196 450 219Q450 241 471 252Q534 284
590 330T688 420T755 495T780 527Q785 535 793 538T810 542Q827 542 837 531T848 505Q848 492 841 482Q839 479 817 452T758 385T671 300T562 218Q610 189 655 159T748 95Q760 86 777 74T810 50T837 24T848 1Z" />
<glyph unicode="&#xac;" glyph-name="logicalnot" horiz-adv-x="750" d="M110 662Q95 661 83 672T71 699Q71 714 81 725T108 737L621 753Q635 753 647 744T659 717V714L648 487Q647 472 637 462T611 451Q594 451 583 462T573 491L582 677L110 662Z" />
<glyph unicode="&#xad;" glyph-name="uni00AD" horiz-adv-x="750" d="M660 350Q660 334 651 323T624 310L280 292Q265 291 253 300T240 327Q240 343 249 354T276 367L620 385Q636 386 647 376T660 350Z" />
<glyph unicode="&#xae;" glyph-name="registered" horiz-adv-x="1006" d="M926 1097Q926 999 885 908T775 747T614 636T423 594Q350 594 287 619T178 690T106 798T80 934Q80 1001 99 1064T154 1183T236 1287T340 1367T458 1420T583 1439Q657 1439 720 1413T828
1342T900 1233T926 1097ZM423 669Q507 669 584 704T720 799T815 936T851 1098Q851 1156 831 1204T776 1288T691 1344T584 1364Q504 1364 427 1329T290 1235T192 1099T155 937Q155 879 174 830T229 745T314 689T423 669ZM740 1135Q740 1121 731 1111T705 1100Q682
1100 676 1111T667 1136T658 1161T629 1173Q588 1173 553 1144T488 1065T432 947T383 801Q380 792 371 786T351 780Q335 780 324 791T312 822L343 1173Q345 1188 356 1198T382 1208Q398 1208 408 1196T418 1170Q418 1141 415 1112T410 1039Q438 1102 467 1142T526
1206T583 1239T637 1248Q656 1248 675 1242T708 1221T731 1186T740 1135Z" />
<glyph unicode="&#xaf;" glyph-name="overscore" horiz-adv-x="500" d="M410 682Q410 668 401 659T378 648L126 638Q113 637 102 646T91 670Q91 684 100 693T123 704L376 714Q390 715 400 705T410 682Z" />
<glyph unicode="&#xb0;" glyph-name="degree" horiz-adv-x="348" d="M318 1296Q318 1267 307 1241T276 1196T230 1165T173 1153Q144 1153 118 1164T73 1195T42 1241T30 1296Q30 1325 41 1351T72 1396T118 1427T173 1439Q203 1439 229 1428T275 1397T306 1351T318
1296ZM252 1296Q252 1329 229 1351T173 1373Q141 1373 119 1351T96 1296Q96 1264 118 1242T173 1219Q206 1219 229 1241T252 1296Z" />
<glyph unicode="&#xb1;" glyph-name="plusminus" horiz-adv-x="750" d="M689 682Q689 666 680 655T653 642L419 630L405 446Q403 431 393 421T367 411Q352 411 341 422T330 448Q330 449 333 490T343 626L109 614Q94 613 82 622T69 649Q69 665 78 676T105 689L348
701Q351 741 354 787T362 887Q363 902 374 912T399 922Q417 922 427 910T438 882L424 705L649 717Q665 718 676 708T689 682ZM675 332Q675 316 666 305T639 292L115 264Q100 263 88 272T75 299Q75 315 84 326T111 339L635 367Q651 368 662 358T675 332Z" />
<glyph unicode="&#xb2;" glyph-name="twosuperior" horiz-adv-x="696" d="M381 988Q412 977 439 970T487 962Q520 962 544 969T585 985T609 1001T617 1009Q627 1021 643 1021Q657 1021 666 1013T676 991Q676 978 669 970Q668 969 657 958T623 933T567 910T487
899Q449 899 401 912T311 946Q265 923 223 912T146 900Q121 900 103 907T73 925T56 950T50 979Q50 994 56 1008T75 1034T104 1053T145 1060Q178 1060 218 1046T307 1014Q342 1034 372 1060T424 1117T458 1179T471 1244Q471 1304 435 1340T330 1377Q301 1377 273
1368T222 1343T187 1305T173 1257Q173 1237 176 1225T182 1205T189 1193T192 1182Q192 1169 184 1159T162 1149Q150 1149 141 1158T124 1182T113 1216T109 1257Q109 1299 128 1332T179 1390T250 1427T330 1440Q375 1440 412 1427T477 1388T519 1327T535 1248Q535
1176 496 1109T381 988ZM220 978Q203 986 183 991T148 997Q113 997 113 978Q113 967 125 965T149 962Q164 962 183 966T220 978Z" />
<glyph unicode="&#xb3;" glyph-name="threesuperior" horiz-adv-x="513" d="M366 1199Q408 1179 435 1144T463 1061Q463 1014 443 982T391 929T323 899T252 889Q205 889 169 900T109 924T72 949T59 961Q50 971 50 984Q50 996 59 1005T83 1014Q98 1014 107 1004Q107
1004 116 996T144 979T190 961T253 953Q325 953 361 983T398 1062Q398 1103 369 1125T295 1159Q272 1151 246 1146T190 1141Q158 1141 146 1154T134 1182Q134 1187 136 1195T147 1210T171 1223T214 1228Q230 1228 251 1227T294 1221Q315 1228 330 1238T354 1261T367
1285T371 1307Q371 1338 349 1357T283 1376Q245 1376 215 1363T165 1335Q141 1317 123 1294Q112 1280 96 1280Q81 1280 72 1289T63 1311Q63 1321 69 1330Q70 1331 84 1348T126 1386T193 1422T284 1439Q332 1439 361 1424T407 1388T430 1344T436 1305Q436 1277 419
1248T366 1199Z" />
<glyph unicode="&#xb4;" glyph-name="acute" horiz-adv-x="500" d="M147 641L307 793Q317 802 330 802Q343 802 353 792T363 768Q363 754 353 745L193 593Q182 584 170 584Q156 584 147 594T137 617Q137 631 147 641Z" />
<glyph unicode="&#xb5;" glyph-name="micro" horiz-adv-x="775" d="M422 112Q389 55 343 22T250 -11Q179 -11 136 40Q131 -29 128 -122T125 -332Q125 -348 115 -359T88 -370Q72 -370 61 -359T50 -332Q50 -197 55 -94T68 82T82 202T93 269Q101 318 113 356T138
421T158 460T167 474Q177 486 195 486Q210 486 221 475T232 448Q232 438 223 424Q218 415 208 396T188 348T171 278T163 185Q163 126 186 96T251 65Q267 65 290 76T335 112T374 173T395 260L409 432Q411 447 422 457T448 467Q465 467 475 455T484 426Q483 415 481
386T477 326T473 269T471 242Q471 218 475 186T492 126T524 78T577 58Q609 58 636 78T692 125Q704 137 718 137Q733 137 744 125T755 97Q755 86 748 78Q715 36 671 10T576 -17Q518 -17 480 16T422 112Z" />
<glyph unicode="&#xb6;" glyph-name="paragraph" horiz-adv-x="1480" d="M1460 1023Q1460 1008 1450 997T1422 985Q1408 985 1398 994Q1368 1020 1338 1043T1277 1089Q1274 1072 1269 1024T1257 904T1246 742T1237 550Q1236 521 1236 490T1236 428Q1236 359 1237
293T1239 176T1242 92T1243 59Q1243 43 1233 32T1206 19Q1190 18 1179 29T1167 56Q1167 56 1166 87T1164 169T1161 285T1160 418Q1160 482 1162 551T1168 690T1177 824T1186 943T1195 1037T1202 1099Q1204 1117 1220 1127Q1089 1210 955 1252T686 1294Q582 1294
483 1266T307 1183T182 1048T135 865Q135 767 169 697T263 581T403 514T575 492Q643 492 680 502T719 513Q726 516 733 516Q747 516 759 506T771 478Q771 467 765 458T747 443Q745 443 733 439T699 430T646 421T575 417Q479 417 387 442T222 521T105 660T60 865Q60
983 112 1077T252 1235T452 1334T685 1369Q791 1369 893 1346T1092 1280T1278 1180T1447 1051Q1460 1041 1460 1023ZM926 1154Q925 1152 921 1119T909 1029T894 900T880 745T869 579T864 417Q864 334 866 260T872 129T877 39T880 4V0Q880 -14 871 -25T846 -37Q829
-37 818 -28T805 -2Q805 -1 803 32T797 121T792 252T789 411Q789 463 792 533T801 680T813 834T827 977T840 1093T851 1165Q855 1185 864 1191T888 1197Q905 1197 915 1186T926 1159V1154Z" />
<glyph unicode="&#xb7;" glyph-name="middot" horiz-adv-x="368" d="M238 699Q238 676 223 661T184 645Q161 645 146 660T130 699Q130 721 145 736T184 752Q207 752 222 737T238 699Z" />
<glyph unicode="&#xb8;" glyph-name="cedilla" horiz-adv-x="500" d="M385 -220Q385 -244 376 -266T349 -307T305 -336T244 -347Q224 -347 201 -343T159 -329T128 -308T115 -279Q115 -264 125 -256T149 -247Q157 -247 165 -252T183 -264T208 -276T243 -282Q273
-282 295 -267T317 -219Q317 -201 311 -189T295 -170T273 -159T251 -156Q234 -156 223 -159T205 -162Q192 -162 184 -155T175 -133Q175 -125 177 -119T181 -106L214 -19Q222 4 247 4Q261 4 270 -5T279 -27Q279 -33 276 -42T271 -55L257 -94Q280 -94 303 -101T344
-125T373 -164T385 -220Z" />
<glyph unicode="&#xb9;" glyph-name="onesuperior" horiz-adv-x="296" d="M216 1333Q216 1302 216 1262T216 1178T216 1094T215 1019T215 966T215 944Q215 930 207 921T184 911Q170 911 161 920T151 944Q151 945 151 974T151 1046T152 1142T152 1244Q122 1214
98 1197T71 1177Q63 1172 53 1172Q40 1172 30 1180T20 1203Q20 1220 35 1231Q36 1231 49 1240T80 1265T118 1302T152 1349Q152 1397 162 1418T199 1439Q213 1439 223 1429T234 1399Q234 1385 229 1367T216 1333Z" />
<glyph unicode="&#xba;" glyph-name="ordmasculine" horiz-adv-x="417" d="M387 1260Q387 1216 374 1178T335 1112T275 1067T198 1050Q165 1050 136 1062T84 1096T48 1152T35 1227Q35 1240 36 1257T43 1289T57 1314T81 1325Q97 1325 105 1314T114 1290Q114 1278
109 1261Q107 1253 105 1245T103 1229Q103 1178 129 1147T197 1116Q223 1116 245 1126T283 1156T309 1202T319 1261Q319 1274 316 1292T303 1327T278 1355T234 1367Q210 1367 198 1357T177 1335Q171 1327 164 1320T145 1313Q129 1313 120 1323T111 1346Q111 1362
123 1378T153 1406T194 1426T237 1434Q270 1434 297 1420T345 1381T376 1326T387 1260ZM387 938Q387 924 378 915T354 905H63Q49 905 40 914T30 938Q30 952 39 961T63 971H354Q368 971 377 962T387 938Z" />
<glyph unicode="&#xbb;" glyph-name="guillemotright" horiz-adv-x="898" d="M450 1Q450 11 461 24T487 49T520 74T550 95Q597 128 642 158T736 218Q677 255 627 300T540 384T481 451T457 482Q450 492 450 505Q450 519 460 530T488 542Q507 542 518 527Q518 526
543 495T610 421T708 331T827 252Q848 241 848 219Q848 196 829 185Q746 138 670 85T509 -27Q499 -34 488 -34Q472 -34 461 -24T450 1ZM150 1Q150 11 161 24T187 49T220 74T250 95Q297 128 342 158T436 218Q377 255 327 300T240 384T181 451T157 482Q150 492 150
505Q150 519 160 530T188 542Q207 542 218 527Q218 526 243 495T310 421T408 331T527 252Q548 241 548 219Q548 196 529 185Q446 138 370 85T209 -27Q199 -34 188 -34Q172 -34 161 -24T150 1Z" />
<glyph unicode="&#xbc;" glyph-name="onequarter" horiz-adv-x="1046" d="M966 270Q965 255 955 248T931 241Q930 241 901 242T821 244Q822 214 821 184T820 123Q820 109 811 100T787 90Q773 90 765 99T756 123Q756 144 756 175T757 245Q652 244 592 242T500 236T454
231T431 229Q419 229 409 238T399 261Q399 281 417 291Q418 291 450 309T533 364T646 452T768 574Q770 599 776 613T790 636T805 646T818 649Q835 649 849 639T863 607Q863 590 852 575T829 547Q827 511 826 447T822 307Q873 307 903 306T935 304Q949 303 957 294T966
270ZM762 479Q735 452 707 427T652 379T600 337T554 302Q607 305 661 306T758 308Q759 349 759 395T762 479ZM140 108Q130 95 113 95Q99 95 90 105T80 128Q80 140 87 148L846 1166Q851 1173 858 1176T873 1179Q887 1179 896 1169T905 1146Q905 1135 899 1126L140
108ZM307 1089Q307 1058 307 1018T307 934T307 850T306 775T306 722T306 700Q306 686 298 677T275 667Q261 667 252 676T242 700Q242 701 242 730T242 802T243 898T243 1000Q213 970 189 953T162 933Q154 928 144 928Q131 928 121 936T111 959Q111 976 126 987Q127
987 140 996T171 1021T209 1058T243 1105Q243 1153 253 1174T290 1195Q304 1195 314 1185T325 1155Q325 1141 320 1123T307 1089Z" />
<glyph unicode="&#xbd;" glyph-name="onehalf" horiz-adv-x="1189" d="M854 195Q885 184 912 177T960 169Q993 169 1017 176T1058 192T1082 208T1090 216Q1100 228 1116 228Q1130 228 1139 220T1149 198Q1149 185 1142 177Q1141 176 1130 165T1096 140T1040 117T960
106Q922 106 874 119T784 153Q738 130 696 119T619 107Q594 107 576 114T546 132T529 157T523 186Q523 201 529 215T548 241T577 260T618 267Q651 267 691 253T780 221Q815 241 845 267T897 324T931 386T944 451Q944 511 908 547T803 584Q774 584 746 575T695 550T660
512T646 464Q646 444 649 432T655 412T662 400T665 389Q665 376 657 366T635 356Q623 356 614 365T597 389T586 423T582 464Q582 506 601 539T652 597T723 634T803 647Q848 647 885 634T950 595T992 534T1008 455Q1008 383 969 316T854 195ZM693 185Q676 193 656
198T621 204Q586 204 586 185Q586 174 598 172T622 169Q637 169 656 173T693 185ZM140 108Q130 95 113 95Q99 95 90 105T80 128Q80 140 87 148L846 1166Q851 1173 858 1176T873 1179Q887 1179 896 1169T905 1146Q905 1135 899 1126L140 108ZM307 1089Q307 1058
307 1018T307 934T307 850T306 775T306 722T306 700Q306 686 298 677T275 667Q261 667 252 676T242 700Q242 701 242 730T242 802T243 898T243 1000Q213 970 189 953T162 933Q154 928 144 928Q131 928 121 936T111 959Q111 976 126 987Q127 987 140 996T171 1021T209
1058T243 1105Q243 1153 253 1174T290 1195Q304 1195 314 1185T325 1155Q325 1141 320 1123T307 1089Z" />
<glyph unicode="&#xbe;" glyph-name="threequarters" horiz-adv-x="1176" d="M416 960Q458 940 485 905T513 822Q513 775 493 743T441 690T373 660T302 650Q255 650 219 661T159 685T122 710T109 722Q100 732 100 745Q100 757 109 765T133 774Q147 774 157 762Q157
762 166 754T194 737T240 720T303 712Q375 712 413 743T451 823Q451 843 443 859T420 887T386 907T345 922Q322 914 299 909T247 904Q215 904 202 916T189 943Q189 948 192 955T203 970T226 982T268 987Q279 987 301 986T344 980Q365 987 380 997T404 1020T418
1045T423 1068Q423 1099 400 1119T333 1139Q295 1139 265 1126T213 1097Q188 1079 169 1055Q158 1041 144 1041Q129 1041 121 1050T113 1072Q113 1082 119 1091Q120 1092 134 1109T176 1147T243 1183T334 1200Q380 1200 409 1185T456 1149T479 1105T486 1066Q486
1038 469 1009T416 960ZM1096 270Q1095 255 1085 248T1061 241Q1060 241 1031 242T951 244Q952 214 951 184T950 123Q950 109 941 100T917 90Q903 90 895 99T886 123Q886 144 886 175T887 245Q782 244 722 242T630 236T584 231T561 229Q549 229 539 238T529 261Q529
281 547 291Q548 291 580 309T663 364T776 452T898 574Q900 599 906 613T920 636T935 646T948 649Q965 649 979 639T993 607Q993 590 982 575T959 547Q957 511 956 447T952 307Q1003 307 1033 306T1065 304Q1079 303 1087 294T1096 270ZM892 479Q865 452 837 427T782
379T730 337T684 302Q737 305 791 306T888 308Q889 349 889 395T892 479ZM270 108Q260 95 243 95Q229 95 220 105T210 128Q210 140 217 148L976 1166Q981 1173 988 1176T1003 1179Q1017 1179 1026 1169T1035 1146Q1035 1135 1029 1126L270 108Z" />
<glyph unicode="&#xbf;" glyph-name="questiondown" horiz-adv-x="1388" d="M799 -631Q581 -631 429 -588T182 -474T43 -311T0 -124Q0 -43 33 34T129 165Q182 210 247 247T382 316T519 380T645 445T747 518T811 606Q821 629 846 629Q862 629 872 618T883 592Q883
584 880 577Q853 516 804 471T694 389T562 323T424 262T292 196T181 116T105 13T76 -125Q76 -208 109 -272T197 -383T326 -464T479 -517T641 -546T798 -555Q931 -555 1040 -531T1228 -460T1350 -346T1393 -194Q1393 -131 1370 -82T1306 1T1212 52T1097 70Q1049
70 1004 58T923 23Q914 17 903 17Q888 17 877 27T865 55Q865 77 891 94T953 122T1030 140T1099 146Q1185 146 1253 120T1369 47T1442 -61T1468 -196Q1468 -297 1420 -377T1283 -514T1072 -600T799 -631ZM808 836Q808 859 823 874T862 890Q885 890 900 875T916 836Q916
813 901 798T862 782Q839 782 824 797T808 836Z" />
<glyph unicode="&#xc0;" glyph-name="Agrave" horiz-adv-x="2165" d="M1956 5Q1960 -2 1960 -12Q1960 -27 1950 -38T1922 -49Q1911 -49 1903 -44T1889 -29Q1870 8 1856 63T1831 187T1814 333T1803 496Q1728 486 1635 474T1421 446Q1337 434 1250 425Q1036 192
800 72T325 -49Q219 -49 142 -29T14 17T-62 65T-90 89Q-100 99 -100 115Q-100 131 -89 142T-63 153Q-46 153 -35 141Q-33 139 -11 121T54 81T165 43T324 26Q450 26 565 60T782 148T973 273T1134 415Q1063 409 993 406T855 403Q721 403 600 418T387 468T241 563T186
710Q186 750 202 790T242 862T290 915T333 936Q347 936 359 926T371 899Q371 890 367 882T355 868Q353 866 338 854T306 822T275 773T261 711Q261 654 300 611T415 538T601 493T852 478Q933 478 1023 483T1213 498Q1261 551 1298 598T1361 682Q1404 743 1451 812T1544
952T1635 1092T1719 1223T1789 1335T1840 1419Q1846 1446 1858 1468T1897 1491Q1912 1491 1926 1479T1940 1447Q1940 1433 1930 1417T1911 1390Q1908 1371 1902 1309T1889 1158T1878 961T1873 743Q1873 702 1873 662T1875 581Q2025 600 2094 607T2167 615Q2180
615 2192 605T2205 577Q2205 563 2196 553T2171 540Q2153 538 2129 535T2070 528T1988 519T1878 505Q1881 423 1887 348T1903 207T1926 90T1956 5ZM1411 521Q1529 537 1625 549T1800 572Q1799 615 1799 658T1798 745Q1798 886 1803 1014T1817 1238Q1777 1175 1729
1099T1628 943T1523 785T1422 639Q1398 605 1373 573T1323 510Q1345 512 1366 515T1411 521ZM1970 1626Q1980 1616 1980 1602Q1980 1589 1971 1579T1947 1569Q1934 1569 1924 1578L1764 1730Q1754 1739 1754 1753Q1754 1767 1764 1777T1787 1787Q1799 1787 1810
1778L1970 1626V1626Z" />
<glyph unicode="&#xc1;" glyph-name="Aacute" horiz-adv-x="2165" d="M1956 5Q1960 -2 1960 -12Q1960 -27 1950 -38T1922 -49Q1911 -49 1903 -44T1889 -29Q1870 8 1856 63T1831 187T1814 333T1803 496Q1728 486 1635 474T1421 446Q1337 434 1250 425Q1036 192
800 72T325 -49Q219 -49 142 -29T14 17T-62 65T-90 89Q-100 99 -100 115Q-100 131 -89 142T-63 153Q-46 153 -35 141Q-33 139 -11 121T54 81T165 43T324 26Q450 26 565 60T782 148T973 273T1134 415Q1063 409 993 406T855 403Q721 403 600 418T387 468T241 563T186
710Q186 750 202 790T242 862T290 915T333 936Q347 936 359 926T371 899Q371 890 367 882T355 868Q353 866 338 854T306 822T275 773T261 711Q261 654 300 611T415 538T601 493T852 478Q933 478 1023 483T1213 498Q1261 551 1298 598T1361 682Q1404 743 1451 812T1544
952T1635 1092T1719 1223T1789 1335T1840 1419Q1846 1446 1858 1468T1897 1491Q1912 1491 1926 1479T1940 1447Q1940 1433 1930 1417T1911 1390Q1908 1371 1902 1309T1889 1158T1878 961T1873 743Q1873 702 1873 662T1875 581Q2025 600 2094 607T2167 615Q2180
615 2192 605T2205 577Q2205 563 2196 553T2171 540Q2153 538 2129 535T2070 528T1988 519T1878 505Q1881 423 1887 348T1903 207T1926 90T1956 5ZM1411 521Q1529 537 1625 549T1800 572Q1799 615 1799 658T1798 745Q1798 886 1803 1014T1817 1238Q1777 1175 1729
1099T1628 943T1523 785T1422 639Q1398 605 1373 573T1323 510Q1345 512 1366 515T1411 521ZM1844 1626L2004 1778Q2014 1787 2027 1787Q2040 1787 2050 1777T2060 1753Q2060 1739 2050 1730L1890 1578Q1879 1569 1867 1569Q1853 1569 1844 1579T1834 1602Q1834
1616 1844 1626Z" />
<glyph unicode="&#xc2;" glyph-name="Acircumflex" horiz-adv-x="2165" d="M1956 5Q1960 -2 1960 -12Q1960 -27 1950 -38T1922 -49Q1911 -49 1903 -44T1889 -29Q1870 8 1856 63T1831 187T1814 333T1803 496Q1728 486 1635 474T1421 446Q1337 434 1250 425Q1036
192 800 72T325 -49Q219 -49 142 -29T14 17T-62 65T-90 89Q-100 99 -100 115Q-100 131 -89 142T-63 153Q-46 153 -35 141Q-33 139 -11 121T54 81T165 43T324 26Q450 26 565 60T782 148T973 273T1134 415Q1063 409 993 406T855 403Q721 403 600 418T387 468T241
563T186 710Q186 750 202 790T242 862T290 915T333 936Q347 936 359 926T371 899Q371 890 367 882T355 868Q353 866 338 854T306 822T275 773T261 711Q261 654 300 611T415 538T601 493T852 478Q933 478 1023 483T1213 498Q1261 551 1298 598T1361 682Q1404 743
1451 812T1544 952T1635 1092T1719 1223T1789 1335T1840 1419Q1846 1446 1858 1468T1897 1491Q1912 1491 1926 1479T1940 1447Q1940 1433 1930 1417T1911 1390Q1908 1371 1902 1309T1889 1158T1878 961T1873 743Q1873 702 1873 662T1875 581Q2025 600 2094 607T2167
615Q2180 615 2192 605T2205 577Q2205 563 2196 553T2171 540Q2153 538 2129 535T2070 528T1988 519T1878 505Q1881 423 1887 348T1903 207T1926 90T1956 5ZM1411 521Q1529 537 1625 549T1800 572Q1799 615 1799 658T1798 745Q1798 886 1803 1014T1817 1238Q1777
1175 1729 1099T1628 943T1523 785T1422 639Q1398 605 1373 573T1323 510Q1345 512 1366 515T1411 521ZM2040 1621Q2046 1612 2046 1602Q2046 1589 2037 1579T2013 1569Q1996 1569 1986 1582L1904 1698L1820 1582Q1810 1569 1794 1569Q1780 1569 1770 1579T1760
1602Q1760 1614 1767 1622L1879 1774Q1889 1787 1906 1787Q1923 1787 1932 1773L2040 1621Z" />
<glyph unicode="&#xc3;" glyph-name="Atilde" horiz-adv-x="2165" d="M1956 5Q1960 -2 1960 -12Q1960 -27 1950 -38T1922 -49Q1911 -49 1903 -44T1889 -29Q1870 8 1856 63T1831 187T1814 333T1803 496Q1728 486 1635 474T1421 446Q1337 434 1250 425Q1036 192
800 72T325 -49Q219 -49 142 -29T14 17T-62 65T-90 89Q-100 99 -100 115Q-100 131 -89 142T-63 153Q-46 153 -35 141Q-33 139 -11 121T54 81T165 43T324 26Q450 26 565 60T782 148T973 273T1134 415Q1063 409 993 406T855 403Q721 403 600 418T387 468T241 563T186
710Q186 750 202 790T242 862T290 915T333 936Q347 936 359 926T371 899Q371 890 367 882T355 868Q353 866 338 854T306 822T275 773T261 711Q261 654 300 611T415 538T601 493T852 478Q933 478 1023 483T1213 498Q1261 551 1298 598T1361 682Q1404 743 1451 812T1544
952T1635 1092T1719 1223T1789 1335T1840 1419Q1846 1446 1858 1468T1897 1491Q1912 1491 1926 1479T1940 1447Q1940 1433 1930 1417T1911 1390Q1908 1371 1902 1309T1889 1158T1878 961T1873 743Q1873 702 1873 662T1875 581Q2025 600 2094 607T2167 615Q2180
615 2192 605T2205 577Q2205 563 2196 553T2171 540Q2153 538 2129 535T2070 528T1988 519T1878 505Q1881 423 1887 348T1903 207T1926 90T1956 5ZM1411 521Q1529 537 1625 549T1800 572Q1799 615 1799 658T1798 745Q1798 886 1803 1014T1817 1238Q1777 1175 1729
1099T1628 943T1523 785T1422 639Q1398 605 1373 573T1323 510Q1345 512 1366 515T1411 521ZM2068 1671Q2068 1653 2061 1637T2040 1609T2009 1590T1968 1583Q1948 1583 1933 1589T1907 1605T1887 1626T1872 1648Q1863 1662 1855 1672T1834 1682Q1825 1682 1820
1679T1812 1671T1810 1663T1809 1657Q1809 1647 1811 1640T1818 1624Q1820 1620 1821 1616T1822 1607Q1822 1594 1812 1585T1786 1575Q1778 1575 1769 1578T1753 1591T1742 1616T1737 1657Q1737 1673 1743 1689T1762 1718T1792 1739T1834 1747Q1855 1747 1870 1741T1897
1725T1917 1703T1933 1681Q1943 1667 1951 1657T1972 1647Q1988 1647 1992 1655T1996 1669Q1996 1681 1992 1691T1984 1711Q1977 1723 1977 1731Q1977 1743 1987 1753T2013 1763Q2032 1763 2050 1740T2068 1671Z" />
<glyph unicode="&#xc4;" glyph-name="Adieresis" horiz-adv-x="2165" d="M1956 5Q1960 -2 1960 -12Q1960 -27 1950 -38T1922 -49Q1911 -49 1903 -44T1889 -29Q1870 8 1856 63T1831 187T1814 333T1803 496Q1728 486 1635 474T1421 446Q1337 434 1250 425Q1036 192
800 72T325 -49Q219 -49 142 -29T14 17T-62 65T-90 89Q-100 99 -100 115Q-100 131 -89 142T-63 153Q-46 153 -35 141Q-33 139 -11 121T54 81T165 43T324 26Q450 26 565 60T782 148T973 273T1134 415Q1063 409 993 406T855 403Q721 403 600 418T387 468T241 563T186
710Q186 750 202 790T242 862T290 915T333 936Q347 936 359 926T371 899Q371 890 367 882T355 868Q353 866 338 854T306 822T275 773T261 711Q261 654 300 611T415 538T601 493T852 478Q933 478 1023 483T1213 498Q1261 551 1298 598T1361 682Q1404 743 1451 812T1544
952T1635 1092T1719 1223T1789 1335T1840 1419Q1846 1446 1858 1468T1897 1491Q1912 1491 1926 1479T1940 1447Q1940 1433 1930 1417T1911 1390Q1908 1371 1902 1309T1889 1158T1878 961T1873 743Q1873 702 1873 662T1875 581Q2025 600 2094 607T2167 615Q2180
615 2192 605T2205 577Q2205 563 2196 553T2171 540Q2153 538 2129 535T2070 528T1988 519T1878 505Q1881 423 1887 348T1903 207T1926 90T1956 5ZM1411 521Q1529 537 1625 549T1800 572Q1799 615 1799 658T1798 745Q1798 886 1803 1014T1817 1238Q1777 1175 1729
1099T1628 943T1523 785T1422 639Q1398 605 1373 573T1323 510Q1345 512 1366 515T1411 521ZM2050 1659Q2050 1638 2035 1623T1997 1608Q1976 1608 1961 1623T1946 1659Q1946 1681 1961 1696T1997 1711Q2020 1711 2035 1696T2050 1659ZM1864 1659Q1864 1638 1849
1623T1812 1608Q1791 1608 1776 1623T1761 1659Q1761 1681 1776 1696T1812 1711Q1834 1711 1849 1696T1864 1659Z" />
<glyph unicode="&#xc5;" glyph-name="Aring" horiz-adv-x="2165" d="M1956 5Q1960 -2 1960 -12Q1960 -27 1950 -38T1922 -49Q1911 -49 1903 -44T1889 -29Q1870 8 1856 63T1831 187T1814 333T1803 496Q1728 486 1635 474T1421 446Q1337 434 1250 425Q1036 192 800
72T325 -49Q219 -49 142 -29T14 17T-62 65T-90 89Q-100 99 -100 115Q-100 131 -89 142T-63 153Q-46 153 -35 141Q-33 139 -11 121T54 81T165 43T324 26Q450 26 565 60T782 148T973 273T1134 415Q1063 409 993 406T855 403Q721 403 600 418T387 468T241 563T186
710Q186 750 202 790T242 862T290 915T333 936Q347 936 359 926T371 899Q371 890 367 882T355 868Q353 866 338 854T306 822T275 773T261 711Q261 654 300 611T415 538T601 493T852 478Q933 478 1023 483T1213 498Q1261 551 1298 598T1361 682Q1404 743 1451 812T1544
952T1635 1092T1719 1223T1789 1335T1840 1419Q1846 1446 1858 1468T1897 1491Q1912 1491 1926 1479T1940 1447Q1940 1433 1930 1417T1911 1390Q1908 1371 1902 1309T1889 1158T1878 961T1873 743Q1873 702 1873 662T1875 581Q2025 600 2094 607T2167 615Q2180
615 2192 605T2205 577Q2205 563 2196 553T2171 540Q2153 538 2129 535T2070 528T1988 519T1878 505Q1881 423 1887 348T1903 207T1926 90T1956 5ZM1411 521Q1529 537 1625 549T1800 572Q1799 615 1799 658T1798 745Q1798 886 1803 1014T1817 1238Q1777 1175 1729
1099T1628 943T1523 785T1422 639Q1398 605 1373 573T1323 510Q1345 512 1366 515T1411 521ZM2049 1702Q2049 1673 2038 1647T2007 1602T1961 1571T1904 1559Q1875 1559 1849 1570T1804 1601T1773 1647T1761 1702Q1761 1731 1772 1757T1803 1802T1849 1833T1904
1845Q1934 1845 1960 1834T2006 1803T2037 1757T2049 1702ZM1983 1702Q1983 1735 1960 1757T1904 1779Q1872 1779 1850 1757T1827 1702Q1827 1670 1849 1648T1904 1625Q1937 1625 1960 1647T1983 1702Z" />
<glyph unicode="&#xc6;" glyph-name="AE" horiz-adv-x="3448" d="M1956 5Q1960 -2 1960 -12Q1960 -27 1950 -38T1922 -49Q1911 -49 1903 -44T1889 -29Q1870 8 1856 63T1831 187T1814 333T1803 495Q1728 486 1635 474T1421 446Q1337 434 1250 425Q1036 192 800
72T325 -49Q219 -49 142 -29T14 17T-62 65T-90 89Q-100 99 -100 115Q-100 131 -89 142T-63 153Q-46 153 -35 141Q-33 139 -11 121T54 81T165 43T324 26Q450 26 565 60T782 148T973 273T1134 415Q1063 409 993 406T855 403Q721 403 600 418T387 468T241 563T186
710Q186 750 202 790T242 862T290 915T333 936Q347 936 359 926T371 899Q371 890 367 882T355 868Q353 866 338 854T306 822T275 773T261 711Q261 654 300 611T415 538T601 493T852 478Q933 478 1023 483T1213 498Q1261 551 1298 598T1361 682Q1404 743 1451 812T1544
952T1635 1092T1719 1223T1789 1335T1840 1419Q1846 1446 1858 1468T1897 1491Q1912 1491 1926 1479T1940 1447Q1940 1433 1930 1417T1911 1390Q1908 1371 1902 1309T1889 1158T1878 961T1873 743V643Q1954 768 2133 834Q2076 887 2048 951T2020 1084Q2020 1170
2059 1243T2169 1369T2335 1451T2547 1481Q2663 1481 2749 1459T2897 1404T2998 1332T3061 1259T3093 1202T3103 1175Q3104 1171 3104 1164Q3104 1150 3094 1139T3066 1127Q3054 1127 3045 1134T3031 1155Q3031 1157 3023 1176T2995 1224T2941 1283T2852 1342T2723
1388T2547 1406Q2431 1406 2346 1377T2205 1302T2122 1198T2095 1086Q2095 1021 2127 962T2219 861Q2273 875 2325 883T2423 895T2506 901T2568 903Q2612 903 2649 897T2712 878T2754 846T2769 801Q2769 776 2754 756T2713 722T2649 701T2568 693Q2520 693 2471
699T2376 716T2286 743T2208 781Q2049 733 1967 643T1885 419Q1885 347 1910 290T1981 188T2086 113T2216 61T2360 32T2509 22Q2557 22 2602 25T2689 36Q2815 56 2910 94T3075 178T3191 271T3264 358T3303 423T3315 449Q3319 461 3328 467T3350 474Q3366 474 3377
463T3388 437Q3388 433 3386 425Q3385 421 3372 391T3329 317T3248 220T3122 117T2942 25T2701 -39Q2609 -54 2508 -54Q2423 -54 2338 -42T2175 -5T2030 58T1913 150Q1921 104 1931 68T1956 5ZM1411 521Q1529 537 1625 549T1800 572Q1799 616 1799 658T1798 745Q1798
886 1803 1014T1817 1238Q1777 1175 1729 1099T1628 943T1523 785T1422 639Q1398 605 1373 573T1323 510Q1345 512 1366 515T1411 521ZM2693 800Q2693 808 2680 814T2647 823T2600 828T2547 830Q2488 830 2435 827T2314 810Q2366 791 2433 780T2570 768Q2633 768
2663 778T2693 800Z" />
<glyph unicode="&#xc7;" glyph-name="Ccedilla" horiz-adv-x="1739" d="M1004 -240Q1004 -264 995 -286T968 -327T924 -356T863 -367Q843 -367 820 -363T778 -349T747 -328T734 -299Q734 -284 744 -276T768 -267Q776 -267 784 -272T802 -284T827 -296T862 -302Q892
-302 914 -287T936 -239Q936 -221 930 -209T914 -190T892 -179T870 -176Q853 -176 842 -179T824 -182Q811 -182 803 -175T794 -153Q794 -145 796 -139T800 -126L831 -44Q735 -39 641 -18T460 42T301 138T175 270T91 439T60 647Q60 764 94 869T191 1063T338 1225T524
1347T737 1425T966 1452Q1095 1452 1208 1422T1407 1336T1541 1203T1591 1030Q1591 942 1550 863T1438 723T1271 628T1067 593Q980 593 913 614T801 674T733 763T710 873Q710 922 725 962T759 1032T794 1077T813 1096Q818 1101 824 1102T837 1104Q853 1104 864
1094T875 1068Q875 1050 862 1038Q860 1037 848 1025T822 991T797 939T785 873Q785 816 810 777T877 714T968 679T1068 668Q1161 668 1242 698T1385 778T1481 893T1516 1029Q1516 1107 1472 1171T1353 1281T1178 1352T963 1377Q877 1377 783 1357T596 1295T421
1193T274 1051T174 868T136 647Q136 538 166 450T251 294T377 175T533 93T708 45T889 29Q1009 29 1120 62T1325 150T1493 273T1609 410Q1614 419 1623 423T1642 428Q1659 428 1669 417T1679 391Q1679 386 1678 381T1674 371Q1627 295 1548 221T1367 88T1146 -8T898
-46V-47Q898 -53 895 -62T890 -75L876 -114Q899 -114 922 -121T963 -145T992 -184T1004 -240Z" />
<glyph unicode="&#xc8;" glyph-name="Egrave" horiz-adv-x="1698" d="M1636 425Q1635 421 1622 391T1579 317T1498 220T1372 117T1192 25T951 -39Q859 -54 758 -54Q674 -54 590 -43T428 -7T283 56T167 146T89 265T60 416Q60 563 141 669T383 834Q326 887 298 951T270
1084Q270 1170 309 1243T419 1369T585 1451T797 1481Q913 1481 999 1459T1147 1404T1248 1332T1311 1259T1343 1202T1353 1175Q1354 1171 1354 1164Q1354 1150 1344 1139T1316 1127Q1304 1127 1295 1134T1281 1155Q1281 1157 1273 1176T1245 1224T1191 1283T1102
1342T973 1388T797 1406Q681 1406 596 1377T455 1302T372 1198T345 1086Q345 1021 377 962T469 861Q523 875 575 883T673 895T756 901T818 903Q862 903 899 897T962 878T1004 846T1019 801Q1019 776 1004 756T963 722T899 701T818 693Q770 693 721 699T626 716T536
743T458 781Q299 733 217 643T135 419Q135 347 160 290T231 188T336 113T466 61T610 32T759 22Q807 22 852 25T939 36Q1065 56 1160 94T1325 178T1441 271T1514 358T1553 423T1565 449Q1569 461 1578 467T1600 474Q1616 474 1627 463T1638 437Q1638 433 1636 425ZM943
800Q943 808 930 814T897 823T850 828T797 830Q738 830 685 827T564 810Q616 791 683 780T820 768Q883 768 913 778T943 800ZM872 1618Q882 1608 882 1594Q882 1581 873 1571T849 1561Q836 1561 826 1570L666 1722Q656 1731 656 1745Q656 1759 666 1769T689 1779Q701
1779 712 1770L872 1618V1618Z" />
<glyph unicode="&#xc9;" glyph-name="Eacute" horiz-adv-x="1698" d="M1636 425Q1635 421 1622 391T1579 317T1498 220T1372 117T1192 25T951 -39Q859 -54 758 -54Q674 -54 590 -43T428 -7T283 56T167 146T89 265T60 416Q60 563 141 669T383 834Q326 887 298 951T270
1084Q270 1170 309 1243T419 1369T585 1451T797 1481Q913 1481 999 1459T1147 1404T1248 1332T1311 1259T1343 1202T1353 1175Q1354 1171 1354 1164Q1354 1150 1344 1139T1316 1127Q1304 1127 1295 1134T1281 1155Q1281 1157 1273 1176T1245 1224T1191 1283T1102
1342T973 1388T797 1406Q681 1406 596 1377T455 1302T372 1198T345 1086Q345 1021 377 962T469 861Q523 875 575 883T673 895T756 901T818 903Q862 903 899 897T962 878T1004 846T1019 801Q1019 776 1004 756T963 722T899 701T818 693Q770 693 721 699T626 716T536
743T458 781Q299 733 217 643T135 419Q135 347 160 290T231 188T336 113T466 61T610 32T759 22Q807 22 852 25T939 36Q1065 56 1160 94T1325 178T1441 271T1514 358T1553 423T1565 449Q1569 461 1578 467T1600 474Q1616 474 1627 463T1638 437Q1638 433 1636 425ZM943
800Q943 808 930 814T897 823T850 828T797 830Q738 830 685 827T564 810Q616 791 683 780T820 768Q883 768 913 778T943 800ZM746 1618L906 1770Q916 1779 929 1779Q942 1779 952 1769T962 1745Q962 1731 952 1722L792 1570Q781 1561 769 1561Q755 1561 746 1571T736
1594Q736 1608 746 1618Z" />
<glyph unicode="&#xca;" glyph-name="Ecircumflex" horiz-adv-x="1698" d="M1636 425Q1635 421 1622 391T1579 317T1498 220T1372 117T1192 25T951 -39Q859 -54 758 -54Q674 -54 590 -43T428 -7T283 56T167 146T89 265T60 416Q60 563 141 669T383 834Q326 887
298 951T270 1084Q270 1170 309 1243T419 1369T585 1451T797 1481Q913 1481 999 1459T1147 1404T1248 1332T1311 1259T1343 1202T1353 1175Q1354 1171 1354 1164Q1354 1150 1344 1139T1316 1127Q1304 1127 1295 1134T1281 1155Q1281 1157 1273 1176T1245 1224T1191
1283T1102 1342T973 1388T797 1406Q681 1406 596 1377T455 1302T372 1198T345 1086Q345 1021 377 962T469 861Q523 875 575 883T673 895T756 901T818 903Q862 903 899 897T962 878T1004 846T1019 801Q1019 776 1004 756T963 722T899 701T818 693Q770 693 721 699T626
716T536 743T458 781Q299 733 217 643T135 419Q135 347 160 290T231 188T336 113T466 61T610 32T759 22Q807 22 852 25T939 36Q1065 56 1160 94T1325 178T1441 271T1514 358T1553 423T1565 449Q1569 461 1578 467T1600 474Q1616 474 1627 463T1638 437Q1638 433
1636 425ZM943 800Q943 808 930 814T897 823T850 828T797 830Q738 830 685 827T564 810Q616 791 683 780T820 768Q883 768 913 778T943 800ZM942 1613Q948 1604 948 1594Q948 1581 939 1571T915 1561Q898 1561 888 1574L806 1690L722 1574Q712 1561 696 1561Q682
1561 672 1571T662 1594Q662 1606 669 1614L781 1766Q791 1779 808 1779Q825 1779 834 1765L942 1613Z" />
<glyph unicode="&#xcb;" glyph-name="Edieresis" horiz-adv-x="1698" d="M1636 425Q1635 421 1622 391T1579 317T1498 220T1372 117T1192 25T951 -39Q859 -54 758 -54Q674 -54 590 -43T428 -7T283 56T167 146T89 265T60 416Q60 563 141 669T383 834Q326 887 298
951T270 1084Q270 1170 309 1243T419 1369T585 1451T797 1481Q913 1481 999 1459T1147 1404T1248 1332T1311 1259T1343 1202T1353 1175Q1354 1171 1354 1164Q1354 1150 1344 1139T1316 1127Q1304 1127 1295 1134T1281 1155Q1281 1157 1273 1176T1245 1224T1191
1283T1102 1342T973 1388T797 1406Q681 1406 596 1377T455 1302T372 1198T345 1086Q345 1021 377 962T469 861Q523 875 575 883T673 895T756 901T818 903Q862 903 899 897T962 878T1004 846T1019 801Q1019 776 1004 756T963 722T899 701T818 693Q770 693 721 699T626
716T536 743T458 781Q299 733 217 643T135 419Q135 347 160 290T231 188T336 113T466 61T610 32T759 22Q807 22 852 25T939 36Q1065 56 1160 94T1325 178T1441 271T1514 358T1553 423T1565 449Q1569 461 1578 467T1600 474Q1616 474 1627 463T1638 437Q1638 433
1636 425ZM943 800Q943 808 930 814T897 823T850 828T797 830Q738 830 685 827T564 810Q616 791 683 780T820 768Q883 768 913 778T943 800ZM952 1651Q952 1630 937 1615T899 1600Q878 1600 863 1615T848 1651Q848 1673 863 1688T899 1703Q922 1703 937 1688T952
1651ZM766 1651Q766 1630 751 1615T714 1600Q693 1600 678 1615T663 1651Q663 1673 678 1688T714 1703Q736 1703 751 1688T766 1651Z" />
<glyph unicode="&#xcc;" glyph-name="Igrave" horiz-adv-x="1300" d="M1270 1550Q1294 1550 1312 1529T1330 1477Q1330 1435 1297 1384T1200 1276Q1189 1220 1181 1149T1173 986Q1173 846 1164 713T1130 463T1060 248T941 80T762 -30T513 -70Q393 -70 299 -42T140
35T40 151T5 296Q5 374 38 440T127 556T257 634T416 662Q429 662 442 662T467 658T485 646T493 622Q493 606 482 596T455 585Q445 585 436 585T416 586Q348 586 287 564T180 503T107 411T80 296Q80 241 100 198T154 123T232 67T326 30T425 10T522 3Q649 3 741 39T896
140T999 295T1060 495T1089 729T1098 987Q1099 1051 1103 1112T1114 1224Q1074 1203 1026 1183T930 1142T835 1096T754 1042T697 976T675 894Q675 853 689 823T724 771T770 737T816 716T853 705T871 701Q888 696 894 688T900 667Q900 650 890 640T865 629Q863 629
857 629T848 631Q815 638 772 655T691 704T626 784T599 901Q599 962 629 1009T707 1093T815 1159T934 1213T1045 1263T1130 1315Q1158 1436 1195 1493T1270 1550ZM1335 1687Q1345 1677 1345 1663Q1345 1650 1336 1640T1312 1630Q1299 1630 1289 1639L1129 1791Q1119
1800 1119 1814Q1119 1828 1129 1838T1152 1848Q1164 1848 1175 1839L1335 1687V1687Z" />
<glyph unicode="&#xcd;" glyph-name="Iacute" horiz-adv-x="1300" d="M1270 1550Q1294 1550 1312 1529T1330 1477Q1330 1435 1297 1384T1200 1276Q1189 1220 1181 1149T1173 986Q1173 846 1164 713T1130 463T1060 248T941 80T762 -30T513 -70Q393 -70 299 -42T140
35T40 151T5 296Q5 374 38 440T127 556T257 634T416 662Q429 662 442 662T467 658T485 646T493 622Q493 606 482 596T455 585Q445 585 436 585T416 586Q348 586 287 564T180 503T107 411T80 296Q80 241 100 198T154 123T232 67T326 30T425 10T522 3Q649 3 741 39T896
140T999 295T1060 495T1089 729T1098 987Q1099 1051 1103 1112T1114 1224Q1074 1203 1026 1183T930 1142T835 1096T754 1042T697 976T675 894Q675 853 689 823T724 771T770 737T816 716T853 705T871 701Q888 696 894 688T900 667Q900 650 890 640T865 629Q863 629
857 629T848 631Q815 638 772 655T691 704T626 784T599 901Q599 962 629 1009T707 1093T815 1159T934 1213T1045 1263T1130 1315Q1158 1436 1195 1493T1270 1550ZM1209 1687L1369 1839Q1379 1848 1392 1848Q1405 1848 1415 1838T1425 1814Q1425 1800 1415 1791L1255
1639Q1244 1630 1232 1630Q1218 1630 1209 1640T1199 1663Q1199 1677 1209 1687Z" />
<glyph unicode="&#xce;" glyph-name="Icircumflex" horiz-adv-x="1300" d="M1270 1550Q1294 1550 1312 1529T1330 1477Q1330 1435 1297 1384T1200 1276Q1189 1220 1181 1149T1173 986Q1173 846 1164 713T1130 463T1060 248T941 80T762 -30T513 -70Q393 -70 299
-42T140 35T40 151T5 296Q5 374 38 440T127 556T257 634T416 662Q429 662 442 662T467 658T485 646T493 622Q493 606 482 596T455 585Q445 585 436 585T416 586Q348 586 287 564T180 503T107 411T80 296Q80 241 100 198T154 123T232 67T326 30T425 10T522 3Q649
3 741 39T896 140T999 295T1060 495T1089 729T1098 987Q1099 1051 1103 1112T1114 1224Q1074 1203 1026 1183T930 1142T835 1096T754 1042T697 976T675 894Q675 853 689 823T724 771T770 737T816 716T853 705T871 701Q888 696 894 688T900 667Q900 650 890 640T865
629Q863 629 857 629T848 631Q815 638 772 655T691 704T626 784T599 901Q599 962 629 1009T707 1093T815 1159T934 1213T1045 1263T1130 1315Q1158 1436 1195 1493T1270 1550ZM1405 1682Q1411 1673 1411 1663Q1411 1650 1402 1640T1378 1630Q1361 1630 1351 1643L1269
1759L1185 1643Q1175 1630 1159 1630Q1145 1630 1135 1640T1125 1663Q1125 1675 1132 1683L1244 1835Q1254 1848 1271 1848Q1288 1848 1297 1834L1405 1682Z" />
<glyph unicode="&#xcf;" glyph-name="Idieresis" horiz-adv-x="1300" d="M1270 1550Q1294 1550 1312 1529T1330 1477Q1330 1435 1297 1384T1200 1276Q1189 1220 1181 1149T1173 986Q1173 846 1164 713T1130 463T1060 248T941 80T762 -30T513 -70Q393 -70 299 -42T140
35T40 151T5 296Q5 374 38 440T127 556T257 634T416 662Q429 662 442 662T467 658T485 646T493 622Q493 606 482 596T455 585Q445 585 436 585T416 586Q348 586 287 564T180 503T107 411T80 296Q80 241 100 198T154 123T232 67T326 30T425 10T522 3Q649 3 741 39T896
140T999 295T1060 495T1089 729T1098 987Q1099 1051 1103 1112T1114 1224Q1074 1203 1026 1183T930 1142T835 1096T754 1042T697 976T675 894Q675 853 689 823T724 771T770 737T816 716T853 705T871 701Q888 696 894 688T900 667Q900 650 890 640T865 629Q863 629
857 629T848 631Q815 638 772 655T691 704T626 784T599 901Q599 962 629 1009T707 1093T815 1159T934 1213T1045 1263T1130 1315Q1158 1436 1195 1493T1270 1550ZM1415 1720Q1415 1699 1400 1684T1362 1669Q1341 1669 1326 1684T1311 1720Q1311 1742 1326 1757T1362
1772Q1385 1772 1400 1757T1415 1720ZM1229 1720Q1229 1699 1214 1684T1177 1669Q1156 1669 1141 1684T1126 1720Q1126 1742 1141 1757T1177 1772Q1199 1772 1214 1757T1229 1720Z" />
<glyph unicode="&#xd0;" glyph-name="Eth" horiz-adv-x="2094" d="M936 1471Q1059 1471 1187 1449T1436 1380T1664 1265T1851 1102T1977 892T2024 633Q2024 491 1974 370T1834 161T1619 23T1344 -27Q1273 -27 1197 -17T1045 16T896 70T755 148Q676 70 573 27T354
-17Q292 -17 238 -3T145 37T83 100T60 182Q60 221 79 255T134 315T219 356T328 371Q502 371 740 243Q784 298 812 367Q837 430 853 494T880 625Q853 625 832 625T791 625T749 624T699 623Q685 623 674 632T662 657Q662 673 671 684T697 695L893 697Q906 776 921
851T961 994T1028 1117T1135 1212Q1145 1217 1153 1217Q1167 1217 1179 1207T1192 1179Q1192 1158 1173 1147Q1120 1116 1087 1070T1031 965T996 840T971 700Q971 699 971 699T970 697L1317 701Q1333 701 1344 692T1357 667Q1357 651 1348 640T1321 629Q1188 627
1102 627T958 626Q949 572 937 516T908 406T865 300T806 205Q808 204 808 204T811 202Q938 126 1075 87T1343 48Q1485 48 1597 95T1788 221T1907 407T1948 631Q1948 751 1908 854T1799 1043T1634 1194T1428 1304T1196 1372T952 1396Q788 1396 653 1369T420 1288T268
1158T214 983Q214 927 230 884T272 810T328 756T384 721T428 701T450 694Q463 691 470 681T478 657Q478 640 466 631T440 622Q420 622 390 631T327 660T260 709T199 779T156 870T139 983Q139 1096 196 1186T359 1340T610 1437T936 1471ZM686 186Q582 241 493 269T330
297Q288 297 253 288T191 262T150 225T135 181Q135 159 148 137T189 98T258 70T354 59Q448 59 533 92T686 186Z" />
<glyph unicode="&#xd1;" glyph-name="Ntilde" horiz-adv-x="2310" d="M2660 1504Q2658 1489 2647 1480T2622 1471Q2620 1471 2615 1471T2592 1472Q2573 1472 2544 1468T2479 1452T2405 1415T2329 1351T2259 1251T2203 1107Q2191 1065 2176 987T2143 810T2108 601T2075
383T2046 180T2026 14Q2024 1 2015 -9T1991 -20Q1977 -20 1967 -13T1952 8Q1939 56 1911 141T1847 332T1767 559T1682 796T1600 1021T1530 1211Q1525 1155 1515 1087T1487 940T1443 774T1381 592Q1325 448 1250 346T1091 176T923 69T762 9T627 -16T535 -22Q425
-22 333 7T173 89T68 217T30 382Q30 463 66 533T164 656T305 738T471 768Q542 768 598 754T698 719T773 672T825 625T856 586T869 567Q873 559 873 549Q873 535 863 523T835 511Q813 511 802 531Q801 534 783 559T726 615T626 669T478 694Q407 694 340 670T220
604T137 505T105 380Q105 307 139 247T231 143T367 77T533 53Q567 53 623 58T748 81T895 135T1047 235T1190 392T1311 620Q1365 758 1395 882T1441 1107T1459 1277T1463 1378V1398Q1463 1414 1473 1425T1501 1437Q1526 1437 1536 1412Q1539 1405 1553 1365T1591
1262T1645 1115T1710 939T1780 745T1850 548T1916 361T1972 197Q1983 277 1996 366T2023 547T2052 727T2081 892T2108 1030T2130 1128Q2152 1216 2193 1292T2292 1426T2426 1515T2594 1548Q2629 1548 2644 1540T2660 1509V1504V1504ZM2095 1612Q2095 1594 2088
1578T2067 1550T2036 1531T1995 1524Q1975 1524 1960 1530T1934 1546T1914 1567T1899 1589Q1890 1603 1882 1613T1861 1623Q1852 1623 1847 1620T1839 1612T1837 1604T1836 1598Q1836 1588 1838 1581T1845 1565Q1847 1561 1848 1557T1849 1548Q1849 1535 1839 1526T1813
1516Q1805 1516 1796 1519T1780 1532T1769 1557T1764 1598Q1764 1614 1770 1630T1789 1659T1819 1680T1861 1688Q1882 1688 1897 1682T1924 1666T1944 1644T1960 1622Q1970 1608 1978 1598T1999 1588Q2015 1588 2019 1596T2023 1610Q2023 1622 2019 1632T2011 1652Q2004
1664 2004 1672Q2004 1684 2014 1694T2040 1704Q2059 1704 2077 1681T2095 1612Z" />
<glyph unicode="&#xd2;" glyph-name="Ograve" horiz-adv-x="1584" d="M1500 835Q1518 845 1537 860T1575 891T1607 921T1630 947Q1636 954 1646 954Q1663 954 1673 942T1684 915Q1684 905 1680 898Q1668 882 1650 863T1607 823T1553 783T1493 744Q1476 547 1411
401T1244 156T1012 10T734 -39Q654 -39 573 -22T416 30T276 120T163 250T88 422T60 639Q60 758 88 864T172 1062T309 1227T496 1354Q504 1358 514 1358Q528 1358 540 1348T552 1321Q552 1310 546 1301T528 1286Q522 1283 491 1268T416 1220T323 1139T232 1018T163
853T135 639Q135 529 158 445T221 298T310 191T414 118T521 72T618 47T694 37T735 35Q859 35 972 74T1175 194T1326 402T1410 702Q1345 673 1275 657T1127 640Q1021 640 921 667T744 750T620 889T573 1083Q573 1173 604 1244T690 1366T815 1443T964 1470Q1028 1470
1092 1455T1216 1409T1327 1329T1417 1214T1478 1062T1500 870V835ZM1422 788Q1425 827 1425 866Q1425 1008 1384 1109T1276 1274T1126 1367T960 1397Q896 1397 840 1376T741 1315T674 1217T649 1083Q649 1011 679 945T770 827T919 745T1128 714Q1209 714 1282
734T1422 788ZM1025 1612Q1035 1602 1035 1588Q1035 1575 1026 1565T1002 1555Q989 1555 979 1564L819 1716Q809 1725 809 1739Q809 1753 819 1763T842 1773Q854 1773 865 1764L1025 1612V1612Z" />
<glyph unicode="&#xd3;" glyph-name="Oacute" horiz-adv-x="1584" d="M1500 835Q1518 845 1537 860T1575 891T1607 921T1630 947Q1636 954 1646 954Q1663 954 1673 942T1684 915Q1684 905 1680 898Q1668 882 1650 863T1607 823T1553 783T1493 744Q1476 547 1411
401T1244 156T1012 10T734 -39Q654 -39 573 -22T416 30T276 120T163 250T88 422T60 639Q60 758 88 864T172 1062T309 1227T496 1354Q504 1358 514 1358Q528 1358 540 1348T552 1321Q552 1310 546 1301T528 1286Q522 1283 491 1268T416 1220T323 1139T232 1018T163
853T135 639Q135 529 158 445T221 298T310 191T414 118T521 72T618 47T694 37T735 35Q859 35 972 74T1175 194T1326 402T1410 702Q1345 673 1275 657T1127 640Q1021 640 921 667T744 750T620 889T573 1083Q573 1173 604 1244T690 1366T815 1443T964 1470Q1028 1470
1092 1455T1216 1409T1327 1329T1417 1214T1478 1062T1500 870V835ZM1422 788Q1425 827 1425 866Q1425 1008 1384 1109T1276 1274T1126 1367T960 1397Q896 1397 840 1376T741 1315T674 1217T649 1083Q649 1011 679 945T770 827T919 745T1128 714Q1209 714 1282
734T1422 788ZM899 1612L1059 1764Q1069 1773 1082 1773Q1095 1773 1105 1763T1115 1739Q1115 1725 1105 1716L945 1564Q934 1555 922 1555Q908 1555 899 1565T889 1588Q889 1602 899 1612Z" />
<glyph unicode="&#xd4;" glyph-name="Ocircumflex" horiz-adv-x="1584" d="M1500 835Q1518 845 1537 860T1575 891T1607 921T1630 947Q1636 954 1646 954Q1663 954 1673 942T1684 915Q1684 905 1680 898Q1668 882 1650 863T1607 823T1553 783T1493 744Q1476 547
1411 401T1244 156T1012 10T734 -39Q654 -39 573 -22T416 30T276 120T163 250T88 422T60 639Q60 758 88 864T172 1062T309 1227T496 1354Q504 1358 514 1358Q528 1358 540 1348T552 1321Q552 1310 546 1301T528 1286Q522 1283 491 1268T416 1220T323 1139T232 1018T163
853T135 639Q135 529 158 445T221 298T310 191T414 118T521 72T618 47T694 37T735 35Q859 35 972 74T1175 194T1326 402T1410 702Q1345 673 1275 657T1127 640Q1021 640 921 667T744 750T620 889T573 1083Q573 1173 604 1244T690 1366T815 1443T964 1470Q1028 1470
1092 1455T1216 1409T1327 1329T1417 1214T1478 1062T1500 870V835ZM1422 788Q1425 827 1425 866Q1425 1008 1384 1109T1276 1274T1126 1367T960 1397Q896 1397 840 1376T741 1315T674 1217T649 1083Q649 1011 679 945T770 827T919 745T1128 714Q1209 714 1282
734T1422 788ZM1095 1607Q1101 1598 1101 1588Q1101 1575 1092 1565T1068 1555Q1051 1555 1041 1568L959 1684L875 1568Q865 1555 849 1555Q835 1555 825 1565T815 1588Q815 1600 822 1608L934 1760Q944 1773 961 1773Q978 1773 987 1759L1095 1607Z" />
<glyph unicode="&#xd5;" glyph-name="Otilde" horiz-adv-x="1584" d="M1500 835Q1518 845 1537 860T1575 891T1607 921T1630 947Q1636 954 1646 954Q1663 954 1673 942T1684 915Q1684 905 1680 898Q1668 882 1650 863T1607 823T1553 783T1493 744Q1476 547 1411
401T1244 156T1012 10T734 -39Q654 -39 573 -22T416 30T276 120T163 250T88 422T60 639Q60 758 88 864T172 1062T309 1227T496 1354Q504 1358 514 1358Q528 1358 540 1348T552 1321Q552 1310 546 1301T528 1286Q522 1283 491 1268T416 1220T323 1139T232 1018T163
853T135 639Q135 529 158 445T221 298T310 191T414 118T521 72T618 47T694 37T735 35Q859 35 972 74T1175 194T1326 402T1410 702Q1345 673 1275 657T1127 640Q1021 640 921 667T744 750T620 889T573 1083Q573 1173 604 1244T690 1366T815 1443T964 1470Q1028 1470
1092 1455T1216 1409T1327 1329T1417 1214T1478 1062T1500 870V835ZM1422 788Q1425 827 1425 866Q1425 1008 1384 1109T1276 1274T1126 1367T960 1397Q896 1397 840 1376T741 1315T674 1217T649 1083Q649 1011 679 945T770 827T919 745T1128 714Q1209 714 1282
734T1422 788ZM1123 1657Q1123 1639 1116 1623T1095 1595T1064 1576T1023 1569Q1003 1569 988 1575T962 1591T942 1612T927 1634Q918 1648 910 1658T889 1668Q880 1668 875 1665T867 1657T865 1649T864 1643Q864 1633 866 1626T873 1610Q875 1606 876 1602T877
1593Q877 1580 867 1571T841 1561Q833 1561 824 1564T808 1577T797 1602T792 1643Q792 1659 798 1675T817 1704T847 1725T889 1733Q910 1733 925 1727T952 1711T972 1689T988 1667Q998 1653 1006 1643T1027 1633Q1043 1633 1047 1641T1051 1655Q1051 1667 1047
1677T1039 1697Q1032 1709 1032 1717Q1032 1729 1042 1739T1068 1749Q1087 1749 1105 1726T1123 1657Z" />
<glyph unicode="&#xd6;" glyph-name="Odieresis" horiz-adv-x="1584" d="M1500 835Q1518 845 1537 860T1575 891T1607 921T1630 947Q1636 954 1646 954Q1663 954 1673 942T1684 915Q1684 905 1680 898Q1668 882 1650 863T1607 823T1553 783T1493 744Q1476 547
1411 401T1244 156T1012 10T734 -39Q654 -39 573 -22T416 30T276 120T163 250T88 422T60 639Q60 758 88 864T172 1062T309 1227T496 1354Q504 1358 514 1358Q528 1358 540 1348T552 1321Q552 1310 546 1301T528 1286Q522 1283 491 1268T416 1220T323 1139T232 1018T163
853T135 639Q135 529 158 445T221 298T310 191T414 118T521 72T618 47T694 37T735 35Q859 35 972 74T1175 194T1326 402T1410 702Q1345 673 1275 657T1127 640Q1021 640 921 667T744 750T620 889T573 1083Q573 1173 604 1244T690 1366T815 1443T964 1470Q1028 1470
1092 1455T1216 1409T1327 1329T1417 1214T1478 1062T1500 870V835ZM1422 788Q1425 827 1425 866Q1425 1008 1384 1109T1276 1274T1126 1367T960 1397Q896 1397 840 1376T741 1315T674 1217T649 1083Q649 1011 679 945T770 827T919 745T1128 714Q1209 714 1282
734T1422 788ZM1105 1645Q1105 1624 1090 1609T1052 1594Q1031 1594 1016 1609T1001 1645Q1001 1667 1016 1682T1052 1697Q1075 1697 1090 1682T1105 1645ZM919 1645Q919 1624 904 1609T867 1594Q846 1594 831 1609T816 1645Q816 1667 831 1682T867 1697Q889 1697
904 1682T919 1645Z" />
<glyph unicode="&#xd7;" glyph-name="multiply" horiz-adv-x="750" d="M611 875Q622 864 623 849T614 821L429 618L609 427Q619 416 619 402T610 376Q599 365 584 364T557 373Q557 373 544 387T507 426T450 486T378 563L193 360Q182 349 167 347T140 356Q129 367
128 382T137 410L327 618Q285 663 239 711T145 810Q134 821 134 835T144 861Q156 875 172 875T200 863L377 673L558 871Q569 883 584 884T611 875Z" />
<glyph unicode="&#xd8;" glyph-name="Oslash" horiz-adv-x="1584" d="M1500 835Q1518 845 1537 860T1575 891T1607 921T1630 947Q1636 954 1646 954Q1663 954 1673 942T1684 915Q1684 905 1680 898Q1668 882 1650 863T1607 823T1553 783T1493 744Q1476 547 1411
401T1244 156T1012 10T734 -39Q667 -39 600 -28T468 8L405 -99Q394 -118 373 -118Q356 -118 346 -106T335 -80Q335 -69 340 -61L399 39Q327 76 265 130T158 259T86 428T60 639Q60 758 88 864T172 1062T309 1227T496 1354Q504 1358 514 1358Q528 1358 540 1348T552
1321Q552 1310 546 1301T528 1286Q522 1283 491 1268T416 1220T323 1139T232 1018T163 853T135 639Q135 523 161 436T229 285T326 178T438 106L796 718Q746 745 705 781T635 863T590 964T573 1083Q573 1173 604 1244T690 1366T815 1443T964 1470Q1024 1470 1085
1457T1204 1415L1262 1514Q1273 1533 1294 1533Q1311 1533 1321 1521T1332 1494Q1332 1486 1327 1476L1269 1376Q1319 1341 1361 1293T1434 1182T1482 1042T1500 870V835ZM1127 640Q1058 640 992 651T865 686L508 77Q549 62 586 54T654 42T706 36T735 35Q859 35
972 74T1175 194T1326 402T1410 702Q1345 673 1275 657T1127 640ZM1422 788Q1425 827 1425 866Q1425 948 1411 1016T1370 1140T1308 1237T1230 1311L902 751Q950 733 1006 724T1128 714Q1209 714 1282 734T1422 788ZM649 1083Q649 993 695 914T833 782L1166 1350Q1116
1374 1064 1385T960 1397Q896 1397 840 1376T741 1315T674 1217T649 1083Z" />
<glyph unicode="&#xd9;" glyph-name="Ugrave" horiz-adv-x="2034" d="M1610 648Q1552 468 1483 335T1339 114T1184 -17T1025 -60Q939 -60 881 -33T788 42T737 154T721 294Q721 382 740 482T782 684T825 887T844 1079Q844 1219 772 1295T563 1372Q477 1372 400
1345T264 1268T171 1150T136 1001Q136 945 149 905T181 836T223 791T266 765T301 753T317 750Q332 748 341 737T350 712Q350 696 339 686T312 675Q310 675 302 676T292 678Q253 688 212 709T137 769T82 864T60 1001Q60 1098 101 1179T211 1320T371 1413T562 1446Q646
1446 712 1421T824 1349T895 1233T920 1079Q920 986 901 885T858 683T816 483T796 295Q796 232 807 180T846 91T916 34T1024 13Q1067 13 1115 31T1216 95T1325 220T1441 422Q1484 512 1520 616T1586 823T1638 1023T1676 1194T1699 1314T1707 1361Q1710 1375 1720
1383T1744 1392Q1761 1392 1771 1381T1782 1356Q1782 1352 1777 1313T1762 1212T1742 1069T1719 898T1696 717T1675 541T1661 385T1655 265Q1655 136 1699 74T1816 11Q1866 11 1907 44T1981 124T2036 221T2070 306Q2074 318 2084 325T2106 332Q2123 332 2133 320T2144
294Q2144 290 2142 282Q2138 271 2127 242T2096 174T2050 94T1988 18T1910 -39T1814 -62Q1757 -62 1713 -40T1639 25T1594 127T1578 265Q1578 329 1587 430T1610 648ZM1360 1534Q1370 1524 1370 1510Q1370 1497 1361 1487T1337 1477Q1324 1477 1314 1486L1154 1638Q1144
1647 1144 1661Q1144 1675 1154 1685T1177 1695Q1189 1695 1200 1686L1360 1534V1534Z" />
<glyph unicode="&#xda;" glyph-name="Uacute" horiz-adv-x="2034" d="M1610 648Q1552 468 1483 335T1339 114T1184 -17T1025 -60Q939 -60 881 -33T788 42T737 154T721 294Q721 382 740 482T782 684T825 887T844 1079Q844 1219 772 1295T563 1372Q477 1372 400
1345T264 1268T171 1150T136 1001Q136 945 149 905T181 836T223 791T266 765T301 753T317 750Q332 748 341 737T350 712Q350 696 339 686T312 675Q310 675 302 676T292 678Q253 688 212 709T137 769T82 864T60 1001Q60 1098 101 1179T211 1320T371 1413T562 1446Q646
1446 712 1421T824 1349T895 1233T920 1079Q920 986 901 885T858 683T816 483T796 295Q796 232 807 180T846 91T916 34T1024 13Q1067 13 1115 31T1216 95T1325 220T1441 422Q1484 512 1520 616T1586 823T1638 1023T1676 1194T1699 1314T1707 1361Q1710 1375 1720
1383T1744 1392Q1761 1392 1771 1381T1782 1356Q1782 1352 1777 1313T1762 1212T1742 1069T1719 898T1696 717T1675 541T1661 385T1655 265Q1655 136 1699 74T1816 11Q1866 11 1907 44T1981 124T2036 221T2070 306Q2074 318 2084 325T2106 332Q2123 332 2133 320T2144
294Q2144 290 2142 282Q2138 271 2127 242T2096 174T2050 94T1988 18T1910 -39T1814 -62Q1757 -62 1713 -40T1639 25T1594 127T1578 265Q1578 329 1587 430T1610 648ZM1234 1534L1394 1686Q1404 1695 1417 1695Q1430 1695 1440 1685T1450 1661Q1450 1647 1440 1638L1280
1486Q1269 1477 1257 1477Q1243 1477 1234 1487T1224 1510Q1224 1524 1234 1534Z" />
<glyph unicode="&#xdb;" glyph-name="Ucircumflex" horiz-adv-x="2034" d="M1610 648Q1552 468 1483 335T1339 114T1184 -17T1025 -60Q939 -60 881 -33T788 42T737 154T721 294Q721 382 740 482T782 684T825 887T844 1079Q844 1219 772 1295T563 1372Q477 1372
400 1345T264 1268T171 1150T136 1001Q136 945 149 905T181 836T223 791T266 765T301 753T317 750Q332 748 341 737T350 712Q350 696 339 686T312 675Q310 675 302 676T292 678Q253 688 212 709T137 769T82 864T60 1001Q60 1098 101 1179T211 1320T371 1413T562
1446Q646 1446 712 1421T824 1349T895 1233T920 1079Q920 986 901 885T858 683T816 483T796 295Q796 232 807 180T846 91T916 34T1024 13Q1067 13 1115 31T1216 95T1325 220T1441 422Q1484 512 1520 616T1586 823T1638 1023T1676 1194T1699 1314T1707 1361Q1710
1375 1720 1383T1744 1392Q1761 1392 1771 1381T1782 1356Q1782 1352 1777 1313T1762 1212T1742 1069T1719 898T1696 717T1675 541T1661 385T1655 265Q1655 136 1699 74T1816 11Q1866 11 1907 44T1981 124T2036 221T2070 306Q2074 318 2084 325T2106 332Q2123 332
2133 320T2144 294Q2144 290 2142 282Q2138 271 2127 242T2096 174T2050 94T1988 18T1910 -39T1814 -62Q1757 -62 1713 -40T1639 25T1594 127T1578 265Q1578 329 1587 430T1610 648ZM1430 1529Q1436 1520 1436 1510Q1436 1497 1427 1487T1403 1477Q1386 1477 1376
1490L1294 1606L1210 1490Q1200 1477 1184 1477Q1170 1477 1160 1487T1150 1510Q1150 1522 1157 1530L1269 1682Q1279 1695 1296 1695Q1313 1695 1322 1681L1430 1529Z" />
<glyph unicode="&#xdc;" glyph-name="Udieresis" horiz-adv-x="2034" d="M1610 648Q1552 468 1483 335T1339 114T1184 -17T1025 -60Q939 -60 881 -33T788 42T737 154T721 294Q721 382 740 482T782 684T825 887T844 1079Q844 1219 772 1295T563 1372Q477 1372 400
1345T264 1268T171 1150T136 1001Q136 945 149 905T181 836T223 791T266 765T301 753T317 750Q332 748 341 737T350 712Q350 696 339 686T312 675Q310 675 302 676T292 678Q253 688 212 709T137 769T82 864T60 1001Q60 1098 101 1179T211 1320T371 1413T562 1446Q646
1446 712 1421T824 1349T895 1233T920 1079Q920 986 901 885T858 683T816 483T796 295Q796 232 807 180T846 91T916 34T1024 13Q1067 13 1115 31T1216 95T1325 220T1441 422Q1484 512 1520 616T1586 823T1638 1023T1676 1194T1699 1314T1707 1361Q1710 1375 1720
1383T1744 1392Q1761 1392 1771 1381T1782 1356Q1782 1352 1777 1313T1762 1212T1742 1069T1719 898T1696 717T1675 541T1661 385T1655 265Q1655 136 1699 74T1816 11Q1866 11 1907 44T1981 124T2036 221T2070 306Q2074 318 2084 325T2106 332Q2123 332 2133 320T2144
294Q2144 290 2142 282Q2138 271 2127 242T2096 174T2050 94T1988 18T1910 -39T1814 -62Q1757 -62 1713 -40T1639 25T1594 127T1578 265Q1578 329 1587 430T1610 648ZM1440 1567Q1440 1546 1425 1531T1387 1516Q1366 1516 1351 1531T1336 1567Q1336 1589 1351 1604T1387
1619Q1410 1619 1425 1604T1440 1567ZM1254 1567Q1254 1546 1239 1531T1202 1516Q1181 1516 1166 1531T1151 1567Q1151 1589 1166 1604T1202 1619Q1224 1619 1239 1604T1254 1567Z" />
<glyph unicode="&#xdd;" glyph-name="Yacute" horiz-adv-x="2076" d="M2076 54Q2076 22 2037 16Q2035 16 2012 12T1952 -1T1868 -24T1772 -60Q1776 -114 1778 -167T1780 -273Q1780 -378 1764 -478T1710 -656T1609 -783T1453 -831Q1399 -831 1356 -812T1283 -759T1237
-680T1221 -584Q1221 -517 1249 -441T1335 -289T1482 -141T1693 -12Q1688 51 1685 120T1681 255Q1681 288 1683 330T1689 422T1698 525T1710 635Q1651 465 1582 335T1438 118T1280 -15T1113 -60Q1038 -60 983 -36T891 33T836 141T818 282Q818 386 840 504T889 745Q905
818 921 892T937 1032Q937 1105 916 1168T855 1277T755 1349T620 1376Q524 1376 440 1340T292 1238T192 1084T155 890Q155 827 170 765T216 650T297 560T414 511Q428 509 437 498T447 473Q447 458 436 447T410 435Q399 435 370 443T305 470T228 521T156 604T102
722T80 883Q80 1009 122 1113T238 1293T409 1409T619 1451Q712 1451 785 1419T909 1330T985 1196T1012 1030Q1012 997 1009 963T998 892Q983 815 965 735T930 577T904 425T893 286Q893 228 904 179T942 93T1010 36T1114 15Q1227 15 1334 116T1542 418Q1580 494
1613 583T1673 761T1721 932T1757 1077T1780 1180T1788 1220Q1790 1234 1800 1242T1824 1251Q1841 1251 1851 1240T1862 1214Q1862 1210 1857 1178T1844 1093T1826 971T1804 826Q1796 769 1788 696T1772 544T1761 389T1756 248Q1756 194 1759 136T1767 19Q1808
36 1850 49T1930 71T1995 86T2034 92Q2054 94 2065 83T2076 54ZM1699 -94Q1603 -138 1529 -199T1403 -326T1324 -460T1297 -584Q1297 -620 1307 -651T1338 -705T1387 -742T1452 -755Q1506 -755 1545 -732T1613 -670T1659 -581T1687 -478T1701 -371T1705 -271Q1705
-228 1703 -184T1699 -94ZM1335 1474L1495 1626Q1505 1635 1518 1635Q1531 1635 1541 1625T1551 1601Q1551 1587 1541 1578L1381 1426Q1370 1417 1358 1417Q1344 1417 1335 1427T1325 1450Q1325 1464 1335 1474Z" />
<glyph unicode="&#xde;" glyph-name="Thorn" horiz-adv-x="1913" d="M1873 797Q1873 676 1827 581T1697 419T1496 317T1238 281Q1221 281 1209 290T1196 319Q1196 334 1207 345T1234 356Q1360 356 1464 385T1642 470T1757 609T1798 797Q1798 905 1751 989T1618
1131T1414 1219T1153 1249H1152Q1136 1183 1132 1115T1128 984Q1128 939 1128 893T1129 799Q1129 697 1126 594T1107 397T1063 220T983 78T856 -18T671 -53Q609 -53 549 -37T436 9T342 77T276 163Q271 171 271 181Q271 195 281 206T309 218Q331 218 342 199Q361
162 396 129T475 72T570 34T671 22Q732 25 784 38T878 83T953 167T1008 301T1041 494T1053 757Q1053 819 1053 879T1053 991T1055 1084T1058 1152Q1061 1201 1072 1247Q947 1241 831 1215T614 1148T431 1052T290 933T199 795T166 644Q166 572 191 518T257 428T353
373T466 355Q536 355 590 370T682 403T740 436T762 454Q773 465 788 465Q803 465 814 454T826 427Q826 410 814 400Q812 398 789 379T721 338T612 297T466 279Q391 279 323 304T203 376T121 491T90 644Q90 734 126 817T227 975T384 1110T587 1217T827 1290T1094
1323Q1116 1382 1144 1423T1197 1490T1241 1528T1262 1541Q1270 1545 1280 1545Q1303 1545 1313 1526Q1317 1518 1317 1508Q1317 1486 1298 1475Q1253 1449 1224 1410T1175 1323Q1329 1320 1457 1283T1678 1179T1822 1015T1873 797Z" />
<glyph unicode="&#xdf;" glyph-name="germandbls" horiz-adv-x="678" d="M785 279Q759 220 722 162T636 57T527 -19T395 -48Q329 -48 272 -25T179 53Q173 62 173 72Q173 87 184 97T211 107Q227 107 238 96Q239 94 245 90T259 80T279 70T303 66Q322 66 338 74T366
97T383 129T390 169Q390 204 375 236T338 300T290 364T242 429T205 498T190 574Q190 630 204 691T236 808Q280 957 296 1060T312 1225Q312 1278 306 1309T291 1356T268 1378T241 1383Q226 1383 213 1373T190 1341T170 1284T153 1197Q145 1148 140 1091T132 974T127
852T124 731Q123 666 122 572T120 365T118 127T117 -125T116 -373T116 -600T115 -788T115 -921Q115 -937 105 -948T78 -959Q62 -959 51 -948T40 -921Q40 -872 40 -789T40 -600T40 -373T41 -125T42 127T44 366T46 573T48 733Q51 905 59 1040T88 1268T145 1409T242
1458Q387 1458 387 1224Q387 1150 372 1053T322 833Q316 810 307 778T288 711T273 640T266 574Q266 545 280 516T317 456T365 392T413 324T450 250T465 169Q465 122 445 85T396 25Q460 25 509 51T596 118T663 209T716 309Q721 320 729 325T749 331Q766 331 777
320T788 293Q788 286 785 279Z" />
<glyph unicode="&#xe0;" glyph-name="agrave" horiz-adv-x="704" d="M811 279Q807 271 795 246T763 187T717 118T659 52T590 3T512 -17Q454 -17 415 20T357 113Q323 56 276 23T182 -11Q145 -11 115 2T64 40T32 98T20 170Q20 248 46 307T114 407T204 467T300 487Q331
487 357 479T401 460T430 442T441 432Q452 419 452 405Q452 390 441 379T415 367Q399 367 388 378Q386 380 379 385T360 397T332 407T294 412Q263 412 228 398T164 355T116 281T96 175Q96 156 100 137T114 101T141 75T183 65Q201 65 224 77T269 114T308 177T333
267Q335 281 346 290T372 300Q386 300 396 289T408 264Q409 245 412 211T425 142T457 83T515 58Q539 58 562 71T608 105T651 154T689 210T719 264T741 309Q746 320 755 326T776 332Q793 332 803 320T814 293Q814 286 811 279ZM604 641Q614 631 614 617Q614 604
605 594T581 584Q568 584 558 593L398 745Q388 754 388 768Q388 782 398 792T421 802Q433 802 444 793L604 641V641Z" />
<glyph unicode="&#xe1;" glyph-name="aacute" horiz-adv-x="704" d="M811 279Q807 271 795 246T763 187T717 118T659 52T590 3T512 -17Q454 -17 415 20T357 113Q323 56 276 23T182 -11Q145 -11 115 2T64 40T32 98T20 170Q20 248 46 307T114 407T204 467T300 487Q331
487 357 479T401 460T430 442T441 432Q452 419 452 405Q452 390 441 379T415 367Q399 367 388 378Q386 380 379 385T360 397T332 407T294 412Q263 412 228 398T164 355T116 281T96 175Q96 156 100 137T114 101T141 75T183 65Q201 65 224 77T269 114T308 177T333
267Q335 281 346 290T372 300Q386 300 396 289T408 264Q409 245 412 211T425 142T457 83T515 58Q539 58 562 71T608 105T651 154T689 210T719 264T741 309Q746 320 755 326T776 332Q793 332 803 320T814 293Q814 286 811 279ZM221 641L381 793Q391 802 404 802Q417
802 427 792T437 768Q437 754 427 745L267 593Q256 584 244 584Q230 584 221 594T211 617Q211 631 221 641Z" />
<glyph unicode="&#xe2;" glyph-name="acircumflex" horiz-adv-x="704" d="M811 279Q807 271 795 246T763 187T717 118T659 52T590 3T512 -17Q454 -17 415 20T357 113Q323 56 276 23T182 -11Q145 -11 115 2T64 40T32 98T20 170Q20 248 46 307T114 407T204 467T300
487Q331 487 357 479T401 460T430 442T441 432Q452 419 452 405Q452 390 441 379T415 367Q399 367 388 378Q386 380 379 385T360 397T332 407T294 412Q263 412 228 398T164 355T116 281T96 175Q96 156 100 137T114 101T141 75T183 65Q201 65 224 77T269 114T308
177T333 267Q335 281 346 290T372 300Q386 300 396 289T408 264Q409 245 412 211T425 142T457 83T515 58Q539 58 562 71T608 105T651 154T689 210T719 264T741 309Q746 320 755 326T776 332Q793 332 803 320T814 293Q814 286 811 279ZM417 636Q423 627 423 617Q423
604 414 594T390 584Q373 584 363 597L281 713L197 597Q187 584 171 584Q157 584 147 594T137 617Q137 629 144 637L256 789Q266 802 283 802Q300 802 309 788L417 636Z" />
<glyph unicode="&#xe3;" glyph-name="atilde" horiz-adv-x="704" d="M811 279Q807 271 795 246T763 187T717 118T659 52T590 3T512 -17Q454 -17 415 20T357 113Q323 56 276 23T182 -11Q145 -11 115 2T64 40T32 98T20 170Q20 248 46 307T114 407T204 467T300 487Q331
487 357 479T401 460T430 442T441 432Q452 419 452 405Q452 390 441 379T415 367Q399 367 388 378Q386 380 379 385T360 397T332 407T294 412Q263 412 228 398T164 355T116 281T96 175Q96 156 100 137T114 101T141 75T183 65Q201 65 224 77T269 114T308 177T333
267Q335 281 346 290T372 300Q386 300 396 289T408 264Q409 245 412 211T425 142T457 83T515 58Q539 58 562 71T608 105T651 154T689 210T719 264T741 309Q746 320 755 326T776 332Q793 332 803 320T814 293Q814 286 811 279ZM445 686Q445 668 438 652T417 624T386
605T345 598Q325 598 310 604T284 620T264 641T249 663Q240 677 232 687T211 697Q202 697 197 694T189 686T187 678T186 672Q186 662 188 655T195 639Q197 635 198 631T199 622Q199 609 189 600T163 590Q155 590 146 593T130 606T119 631T114 672Q114 688 120 704T139
733T169 754T211 762Q232 762 247 756T274 740T294 718T310 696Q320 682 328 672T349 662Q365 662 369 670T373 684Q373 696 369 706T361 726Q354 738 354 746Q354 758 364 768T390 778Q409 778 427 755T445 686Z" />
<glyph unicode="&#xe4;" glyph-name="adieresis" horiz-adv-x="704" d="M811 279Q807 271 795 246T763 187T717 118T659 52T590 3T512 -17Q454 -17 415 20T357 113Q323 56 276 23T182 -11Q145 -11 115 2T64 40T32 98T20 170Q20 248 46 307T114 407T204 467T300
487Q331 487 357 479T401 460T430 442T441 432Q452 419 452 405Q452 390 441 379T415 367Q399 367 388 378Q386 380 379 385T360 397T332 407T294 412Q263 412 228 398T164 355T116 281T96 175Q96 156 100 137T114 101T141 75T183 65Q201 65 224 77T269 114T308
177T333 267Q335 281 346 290T372 300Q386 300 396 289T408 264Q409 245 412 211T425 142T457 83T515 58Q539 58 562 71T608 105T651 154T689 210T719 264T741 309Q746 320 755 326T776 332Q793 332 803 320T814 293Q814 286 811 279ZM427 674Q427 653 412 638T374
623Q353 623 338 638T323 674Q323 696 338 711T374 726Q397 726 412 711T427 674ZM241 674Q241 653 226 638T189 623Q168 623 153 638T138 674Q138 696 153 711T189 726Q211 726 226 711T241 674Z" />
<glyph unicode="&#xe5;" glyph-name="aring" horiz-adv-x="704" d="M811 279Q807 271 795 246T763 187T717 118T659 52T590 3T512 -17Q454 -17 415 20T357 113Q323 56 276 23T182 -11Q145 -11 115 2T64 40T32 98T20 170Q20 248 46 307T114 407T204 467T300 487Q331
487 357 479T401 460T430 442T441 432Q452 419 452 405Q452 390 441 379T415 367Q399 367 388 378Q386 380 379 385T360 397T332 407T294 412Q263 412 228 398T164 355T116 281T96 175Q96 156 100 137T114 101T141 75T183 65Q201 65 224 77T269 114T308 177T333
267Q335 281 346 290T372 300Q386 300 396 289T408 264Q409 245 412 211T425 142T457 83T515 58Q539 58 562 71T608 105T651 154T689 210T719 264T741 309Q746 320 755 326T776 332Q793 332 803 320T814 293Q814 286 811 279ZM426 717Q426 688 415 662T384 617T338
586T281 574Q252 574 226 585T181 616T150 662T138 717Q138 746 149 772T180 817T226 848T281 860Q311 860 337 849T383 818T414 772T426 717ZM360 717Q360 750 337 772T281 794Q249 794 227 772T204 717Q204 685 226 663T281 640Q314 640 337 662T360 717Z" />
<glyph unicode="&#xe6;" glyph-name="ae" horiz-adv-x="827" d="M472 110Q493 81 526 64T607 46Q651 46 688 70T758 133T816 218T865 310Q870 321 879 326T899 332Q916 332 926 320T937 294Q937 289 936 286T933 278Q786 -27 598 -30Q549 -30 511 -16T445 22T397
79T368 149Q353 117 335 88T293 37T242 2T182 -11Q145 -11 115 2T64 40T32 98T20 170Q20 248 46 307T114 407T204 467T300 487Q340 487 370 475T418 450Q438 470 463 481T520 492Q543 492 565 483T606 456T635 413T646 356Q646 315 632 279T594 212T535 155T462
110H472ZM365 387Q365 389 365 390T366 394Q354 401 336 406T294 412Q263 412 228 398T164 355T116 281T96 175Q96 156 100 137T114 101T141 75T183 65Q222 65 253 96T306 174T343 278T365 387ZM432 175Q463 188 488 208T532 252T560 302T570 356Q570 386 555 401T520
417Q493 417 474 402T443 363T426 310T420 251Q420 233 423 213T432 175Z" />
<glyph unicode="&#xe7;" glyph-name="ccedilla" horiz-adv-x="586" d="M428 -230Q428 -254 419 -276T392 -317T348 -346T287 -357Q267 -357 244 -353T202 -339T171 -318T158 -289Q158 -274 168 -266T192 -257Q200 -257 208 -262T226 -274T251 -286T286 -292Q316
-292 338 -277T360 -229Q360 -211 354 -199T338 -180T316 -169T294 -166Q277 -166 266 -169T248 -172Q235 -172 227 -165T218 -143Q218 -135 220 -129T224 -116L249 -48Q199 -43 160 -21T95 38T54 124T40 230Q40 290 57 342T103 434T172 495T255 518Q288 518 315
507T360 476T389 434T400 388Q400 366 395 347T381 314T361 291T339 282Q322 282 312 293T301 320Q301 328 304 334T312 346T320 362T324 387Q324 408 305 425T255 442Q227 442 202 425T157 380T127 313T115 231Q115 190 125 153T155 88T205 42T278 25Q332 25 378
44T462 94T529 159T578 226T610 281T624 311Q628 321 637 326T658 332Q675 332 685 320T696 293Q696 287 692 277Q687 266 674 240T638 180T585 109T515 40T427 -16T320 -47Q318 -52 317 -57T314 -65L300 -104Q323 -104 346 -111T387 -135T416 -174T428 -230Z"
/>
<glyph unicode="&#xe8;" glyph-name="egrave" horiz-adv-x="523" d="M158 110Q179 81 212 64T293 46Q342 46 382 69T455 131T514 216T561 310Q566 321 575 326T595 332Q612 332 622 320T633 294Q633 289 632 286T629 278Q560 126 479 49T294 -30Q228 -30 180 -5T101
61T55 153T40 255Q40 306 52 349T88 424T144 474T216 492Q239 492 261 483T302 456T331 413T342 356Q342 315 328 279T290 212T231 155T158 110ZM128 175Q159 188 184 208T228 252T256 302T266 356Q266 386 251 401T216 417Q189 417 170 402T139 363T122 310T116
251Q116 233 119 213T128 175ZM549 647Q559 637 559 623Q559 610 550 600T526 590Q513 590 503 599L343 751Q333 760 333 774Q333 788 343 798T366 808Q378 808 389 799L549 647V647Z" />
<glyph unicode="&#xe9;" glyph-name="eacute" horiz-adv-x="523" d="M158 110Q179 81 212 64T293 46Q342 46 382 69T455 131T514 216T561 310Q566 321 575 326T595 332Q612 332 622 320T633 294Q633 289 632 286T629 278Q560 126 479 49T294 -30Q228 -30 180 -5T101
61T55 153T40 255Q40 306 52 349T88 424T144 474T216 492Q239 492 261 483T302 456T331 413T342 356Q342 315 328 279T290 212T231 155T158 110ZM128 175Q159 188 184 208T228 252T256 302T266 356Q266 386 251 401T216 417Q189 417 170 402T139 363T122 310T116
251Q116 233 119 213T128 175ZM166 647L326 799Q336 808 349 808Q362 808 372 798T382 774Q382 760 372 751L212 599Q201 590 189 590Q175 590 166 600T156 623Q156 637 166 647Z" />
<glyph unicode="&#xea;" glyph-name="ecircumflex" horiz-adv-x="523" d="M158 110Q179 81 212 64T293 46Q342 46 382 69T455 131T514 216T561 310Q566 321 575 326T595 332Q612 332 622 320T633 294Q633 289 632 286T629 278Q560 126 479 49T294 -30Q228 -30
180 -5T101 61T55 153T40 255Q40 306 52 349T88 424T144 474T216 492Q239 492 261 483T302 456T331 413T342 356Q342 315 328 279T290 212T231 155T158 110ZM128 175Q159 188 184 208T228 252T256 302T266 356Q266 386 251 401T216 417Q189 417 170 402T139 363T122
310T116 251Q116 233 119 213T128 175ZM619 642Q625 633 625 623Q625 610 616 600T592 590Q575 590 565 603L483 719L399 603Q389 590 373 590Q359 590 349 600T339 623Q339 635 346 643L458 795Q468 808 485 808Q502 808 511 794L619 642Z" />
<glyph unicode="&#xeb;" glyph-name="edieresis" horiz-adv-x="523" d="M158 110Q179 81 212 64T293 46Q342 46 382 69T455 131T514 216T561 310Q566 321 575 326T595 332Q612 332 622 320T633 294Q633 289 632 286T629 278Q560 126 479 49T294 -30Q228 -30 180
-5T101 61T55 153T40 255Q40 306 52 349T88 424T144 474T216 492Q239 492 261 483T302 456T331 413T342 356Q342 315 328 279T290 212T231 155T158 110ZM128 175Q159 188 184 208T228 252T256 302T266 356Q266 386 251 401T216 417Q189 417 170 402T139 363T122
310T116 251Q116 233 119 213T128 175ZM629 680Q629 659 614 644T576 629Q555 629 540 644T525 680Q525 702 540 717T576 732Q599 732 614 717T629 680ZM443 680Q443 659 428 644T391 629Q370 629 355 644T340 680Q340 702 355 717T391 732Q413 732 428 717T443
680Z" />
<glyph unicode="&#xec;" glyph-name="igrave" horiz-adv-x="430" d="M39 199Q39 343 57 486Q59 500 69 510T97 521Q112 521 122 510T132 483Q132 477 130 447T124 376T118 288T115 202Q115 149 125 117T152 66T187 42T223 36Q251 36 281 56T342 112T406 198T469
311Q474 321 483 326T503 332Q519 332 529 320T540 294Q540 284 536 277Q524 254 506 221T465 153T415 84T356 22T291 -23T222 -40Q177 -40 143 -21T86 30T51 105T39 199ZM155 641Q165 631 165 617Q165 604 156 594T132 584Q119 584 109 593L-51 745Q-61 754 -61
768Q-61 782 -51 792T-28 802Q-16 802 -5 793L155 641V641Z" />
<glyph unicode="&#xed;" glyph-name="iacute" horiz-adv-x="430" d="M39 199Q39 343 57 486Q59 500 69 510T97 521Q112 521 122 510T132 483Q132 477 130 447T124 376T118 288T115 202Q115 149 125 117T152 66T187 42T223 36Q251 36 281 56T342 112T406 198T469
311Q474 321 483 326T503 332Q519 332 529 320T540 294Q540 284 536 277Q524 254 506 221T465 153T415 84T356 22T291 -23T222 -40Q177 -40 143 -21T86 30T51 105T39 199ZM309 641L469 793Q479 802 492 802Q505 802 515 792T525 768Q525 754 515 745L355 593Q344
584 332 584Q318 584 309 594T299 617Q299 631 309 641Z" />
<glyph unicode="&#xee;" glyph-name="icircumflex" horiz-adv-x="430" d="M39 199Q39 343 57 486Q59 500 69 510T97 521Q112 521 122 510T132 483Q132 477 130 447T124 376T118 288T115 202Q115 149 125 117T152 66T187 42T223 36Q251 36 281 56T342 112T406 198T469
311Q474 321 483 326T503 332Q519 332 529 320T540 294Q540 284 536 277Q524 254 506 221T465 153T415 84T356 22T291 -23T222 -40Q177 -40 143 -21T86 30T51 105T39 199ZM237 636Q243 627 243 617Q243 604 234 594T210 584Q193 584 183 597L101 713L17 597Q7 584
-9 584Q-23 584 -33 594T-43 617Q-43 629 -36 637L76 789Q86 802 103 802Q120 802 129 788L237 636Z" />
<glyph unicode="&#xef;" glyph-name="idieresis" horiz-adv-x="430" d="M39 199Q39 343 57 486Q59 500 69 510T97 521Q112 521 122 510T132 483Q132 477 130 447T124 376T118 288T115 202Q115 149 125 117T152 66T187 42T223 36Q251 36 281 56T342 112T406 198T469
311Q474 321 483 326T503 332Q519 332 529 320T540 294Q540 284 536 277Q524 254 506 221T465 153T415 84T356 22T291 -23T222 -40Q177 -40 143 -21T86 30T51 105T39 199ZM251 674Q251 653 236 638T198 623Q177 623 162 638T147 674Q147 696 162 711T198 726Q221
726 236 711T251 674ZM65 674Q65 653 50 638T13 623Q-8 623 -23 638T-38 674Q-38 696 -23 711T13 726Q35 726 50 711T65 674Z" />
<glyph unicode="&#xf0;" glyph-name="eth" horiz-adv-x="600" d="M561 998Q576 1000 586 992T599 969Q601 958 596 948T580 932L427 856Q475 772 503 664T531 430Q531 387 525 336T506 234T470 136T414 53T335 -5T230 -27Q183 -27 145 -11T79 35T36 106T20 198Q20
262 48 314T125 406T237 470T372 504Q389 506 397 496T406 471Q406 454 396 443T369 429Q301 422 250 399T165 344T113 274T95 198Q95 131 131 88T232 44Q272 44 304 61T361 108T404 176T433 257T450 341T456 422Q456 542 430 644T358 822L211 750Q208 748 201
745T185 740Q170 738 160 747T148 769Q146 780 151 790T167 806L318 881Q277 932 231 960T137 988Q110 988 94 985T66 979T47 973T31 970Q16 970 6 980T-4 1005Q-4 1013 -2 1021T15 1036Q16 1036 23 1040T44 1049T81 1058T134 1062Q206 1062 271 1023T388 915L549
995Q552 996 555 997T561 998Z" />
<glyph unicode="&#xf1;" glyph-name="ntilde" horiz-adv-x="911" d="M260 90Q276 123 297 162T342 242T392 323T448 399Q477 434 506 449T562 465Q614 465 639 427T664 333Q664 320 663 302T660 262T657 220T655 179Q655 155 657 133T667 95T687 69T721 59Q759
59 795 88T861 158T914 241T948 309Q953 320 962 326T983 332Q1000 332 1010 320T1021 293Q1021 286 1018 279Q1014 271 1002 246T971 189T925 120T868 53T800 3T723 -17Q678 -17 650 0T606 46T585 109T579 179Q579 194 580 213T584 253T588 295T590 335Q590 367
580 378T562 390Q546 390 526 372T483 323T437 256T393 181T355 111T327 55Q307 13 287 -1T246 -16Q217 -16 200 1T182 51Q182 58 184 78T189 127T195 189T201 254T206 315T208 362Q208 387 206 410T198 438Q189 435 166 401T107 279Q102 268 92 262T71 256Q54
256 44 267T34 294Q34 301 37 309Q82 416 121 466T200 517Q223 517 239 506T264 475T278 433T283 386Q283 368 281 330T274 249T267 162T260 90ZM582 714Q582 696 575 680T554 652T523 633T482 626Q462 626 447 632T421 648T401 669T386 691Q377 705 369 715T348
725Q339 725 334 722T326 714T324 706T323 700Q323 690 325 683T332 667Q334 663 335 659T336 650Q336 637 326 628T300 618Q292 618 283 621T267 634T256 659T251 700Q251 716 257 732T276 761T306 782T348 790Q369 790 384 784T411 768T431 746T447 724Q457 710
465 700T486 690Q502 690 506 698T510 712Q510 724 506 734T498 754Q491 766 491 774Q491 786 501 796T527 806Q546 806 564 783T582 714Z" />
<glyph unicode="&#xf2;" glyph-name="ograve" horiz-adv-x="647" d="M499 110Q474 110 455 114Q440 84 419 59T371 14T309 -16T235 -27Q188 -27 149 -11T81 35T36 106T20 198Q20 262 43 309T96 388T156 435T201 451Q218 451 226 442T235 418Q235 401 225 393T198
376Q182 368 164 354T131 317T105 265T95 198Q95 165 105 137T134 88T179 56T237 44Q294 44 331 70T389 138Q330 169 292 226T254 354Q254 411 281 447T354 483Q381 483 405 470T447 429T477 357T488 252Q488 220 480 185Q486 184 492 184T505 184Q539 184 566
192T615 216T654 257T688 315Q691 321 701 326T721 332Q734 332 745 322T757 294Q757 286 753 277T745 259Q728 229 706 202T653 154T584 121T499 110ZM328 362Q328 343 333 322T348 281T374 242T411 210Q414 231 414 251Q414 278 410 306T399 357T380 395T354
410Q348 410 338 401T328 362ZM367 893Q377 883 377 869Q377 856 368 846T344 836Q331 836 321 845L161 997Q151 1006 151 1020Q151 1034 161 1044T184 1054Q196 1054 207 1045L367 893V893Z" />
<glyph unicode="&#xf3;" glyph-name="oacute" horiz-adv-x="647" d="M499 110Q474 110 455 114Q440 84 419 59T371 14T309 -16T235 -27Q188 -27 149 -11T81 35T36 106T20 198Q20 262 43 309T96 388T156 435T201 451Q218 451 226 442T235 418Q235 401 225 393T198
376Q182 368 164 354T131 317T105 265T95 198Q95 165 105 137T134 88T179 56T237 44Q294 44 331 70T389 138Q330 169 292 226T254 354Q254 411 281 447T354 483Q381 483 405 470T447 429T477 357T488 252Q488 220 480 185Q486 184 492 184T505 184Q539 184 566
192T615 216T654 257T688 315Q691 321 701 326T721 332Q734 332 745 322T757 294Q757 286 753 277T745 259Q728 229 706 202T653 154T584 121T499 110ZM328 362Q328 343 333 322T348 281T374 242T411 210Q414 231 414 251Q414 278 410 306T399 357T380 395T354
410Q348 410 338 401T328 362ZM241 893L401 1045Q411 1054 424 1054Q437 1054 447 1044T457 1020Q457 1006 447 997L287 845Q276 836 264 836Q250 836 241 846T231 869Q231 883 241 893Z" />
<glyph unicode="&#xf4;" glyph-name="ocircumflex" horiz-adv-x="647" d="M499 110Q474 110 455 114Q440 84 419 59T371 14T309 -16T235 -27Q188 -27 149 -11T81 35T36 106T20 198Q20 262 43 309T96 388T156 435T201 451Q218 451 226 442T235 418Q235 401 225
393T198 376Q182 368 164 354T131 317T105 265T95 198Q95 165 105 137T134 88T179 56T237 44Q294 44 331 70T389 138Q330 169 292 226T254 354Q254 411 281 447T354 483Q381 483 405 470T447 429T477 357T488 252Q488 220 480 185Q486 184 492 184T505 184Q539
184 566 192T615 216T654 257T688 315Q691 321 701 326T721 332Q734 332 745 322T757 294Q757 286 753 277T745 259Q728 229 706 202T653 154T584 121T499 110ZM328 362Q328 343 333 322T348 281T374 242T411 210Q414 231 414 251Q414 278 410 306T399 357T380
395T354 410Q348 410 338 401T328 362ZM437 888Q443 879 443 869Q443 856 434 846T410 836Q393 836 383 849L301 965L217 849Q207 836 191 836Q177 836 167 846T157 869Q157 881 164 889L276 1041Q286 1054 303 1054Q320 1054 329 1040L437 888Z" />
<glyph unicode="&#xf5;" glyph-name="otilde" horiz-adv-x="647" d="M499 110Q474 110 455 114Q440 84 419 59T371 14T309 -16T235 -27Q188 -27 149 -11T81 35T36 106T20 198Q20 262 43 309T96 388T156 435T201 451Q218 451 226 442T235 418Q235 401 225 393T198
376Q182 368 164 354T131 317T105 265T95 198Q95 165 105 137T134 88T179 56T237 44Q294 44 331 70T389 138Q330 169 292 226T254 354Q254 411 281 447T354 483Q381 483 405 470T447 429T477 357T488 252Q488 220 480 185Q486 184 492 184T505 184Q539 184 566
192T615 216T654 257T688 315Q691 321 701 326T721 332Q734 332 745 322T757 294Q757 286 753 277T745 259Q728 229 706 202T653 154T584 121T499 110ZM328 362Q328 343 333 322T348 281T374 242T411 210Q414 231 414 251Q414 278 410 306T399 357T380 395T354
410Q348 410 338 401T328 362ZM465 938Q465 920 458 904T437 876T406 857T365 850Q345 850 330 856T304 872T284 893T269 915Q260 929 252 939T231 949Q222 949 217 946T209 938T207 930T206 924Q206 914 208 907T215 891Q217 887 218 883T219 874Q219 861 209
852T183 842Q175 842 166 845T150 858T139 883T134 924Q134 940 140 956T159 985T189 1006T231 1014Q252 1014 267 1008T294 992T314 970T330 948Q340 934 348 924T369 914Q385 914 389 922T393 936Q393 948 389 958T381 978Q374 990 374 998Q374 1010 384 1020T410
1030Q429 1030 447 1007T465 938Z" />
<glyph unicode="&#xf6;" glyph-name="odieresis" horiz-adv-x="647" d="M499 110Q474 110 455 114Q440 84 419 59T371 14T309 -16T235 -27Q188 -27 149 -11T81 35T36 106T20 198Q20 262 43 309T96 388T156 435T201 451Q218 451 226 442T235 418Q235 401 225 393T198
376Q182 368 164 354T131 317T105 265T95 198Q95 165 105 137T134 88T179 56T237 44Q294 44 331 70T389 138Q330 169 292 226T254 354Q254 411 281 447T354 483Q381 483 405 470T447 429T477 357T488 252Q488 220 480 185Q486 184 492 184T505 184Q539 184 566
192T615 216T654 257T688 315Q691 321 701 326T721 332Q734 332 745 322T757 294Q757 286 753 277T745 259Q728 229 706 202T653 154T584 121T499 110ZM328 362Q328 343 333 322T348 281T374 242T411 210Q414 231 414 251Q414 278 410 306T399 357T380 395T354
410Q348 410 338 401T328 362ZM447 926Q447 905 432 890T394 875Q373 875 358 890T343 926Q343 948 358 963T394 978Q417 978 432 963T447 926ZM261 926Q261 905 246 890T209 875Q188 875 173 890T158 926Q158 948 173 963T209 978Q231 978 246 963T261 926Z" />
<glyph unicode="&#xf7;" glyph-name="divide" horiz-adv-x="750" d="M436 778Q436 756 421 741T385 726Q363 726 348 741T333 778Q333 799 348 814T385 829Q406 829 421 814T436 778ZM427 454Q427 432 412 417T375 402Q353 402 338 417T323 454Q323 475 338 490T375
506Q396 506 411 491T427 454ZM675 632Q675 616 666 605T639 592L115 564Q100 563 88 572T75 599Q75 615 84 626T111 639L635 667Q651 668 662 658T675 632Z" />
<glyph unicode="&#xf8;" glyph-name="oslash" horiz-adv-x="647" d="M499 110Q474 110 455 114Q440 84 419 59T371 14T309 -16T235 -27Q194 -27 157 -13L96 -107Q88 -120 69 -120Q54 -119 46 -110T37 -87Q37 -81 39 -76T45 -66L100 18Q62 48 41 94T20 198Q20 262
43 309T96 388T156 435T201 451Q218 451 226 442T235 418Q235 401 225 393T198 376Q182 368 164 354T131 317T105 265T95 198Q95 161 107 131T141 81L268 275Q254 314 254 354Q254 411 281 447T354 483Q377 483 397 473L442 542Q447 550 454 553T469 556Q483 555
492 546T501 525Q501 512 494 502L447 430Q466 402 477 359T488 252Q488 220 480 185Q486 184 492 184T505 184Q539 184 566 192T615 216T654 257T688 315Q691 321 701 326T721 332Q734 332 745 322T757 294Q757 286 753 277T745 259Q728 229 706 202T653 154T584
121T499 110ZM237 44Q294 44 331 70T389 138Q337 166 303 211L198 49Q218 44 237 44ZM348 280Q359 260 374 242T411 210Q414 231 414 251Q414 277 411 305T399 356L348 280ZM354 410Q348 410 339 402T328 367L356 410H354Z" />
<glyph unicode="&#xf9;" glyph-name="ugrave" horiz-adv-x="717" d="M370 112Q335 55 289 22T195 -11Q157 -11 127 3T75 42T42 104T30 185Q30 255 43 309T73 399T103 455T117 474Q122 480 129 483T145 486Q161 486 171 475T182 448Q182 442 180 436T174 424Q169
415 158 397T135 348T114 278T105 185Q105 126 128 96T195 65Q213 65 236 76T282 112T322 173T344 260L359 432Q361 447 372 457T398 467Q415 467 425 455T435 426L422 260Q420 239 423 205T438 138T471 82T529 58Q555 58 580 71T628 107T670 156T706 212T735 265T755
309Q760 320 769 326T789 332Q807 332 817 320T827 294Q827 286 824 279Q820 271 809 246T779 188T734 119T676 53T607 3T526 -17Q467 -17 428 16T370 112ZM363 641Q373 631 373 617Q373 604 364 594T340 584Q327 584 317 593L157 745Q147 754 147 768Q147 782
157 792T180 802Q192 802 203 793L363 641V641Z" />
<glyph unicode="&#xfa;" glyph-name="uacute" horiz-adv-x="717" d="M370 112Q335 55 289 22T195 -11Q157 -11 127 3T75 42T42 104T30 185Q30 255 43 309T73 399T103 455T117 474Q122 480 129 483T145 486Q161 486 171 475T182 448Q182 442 180 436T174 424Q169
415 158 397T135 348T114 278T105 185Q105 126 128 96T195 65Q213 65 236 76T282 112T322 173T344 260L359 432Q361 447 372 457T398 467Q415 467 425 455T435 426L422 260Q420 239 423 205T438 138T471 82T529 58Q555 58 580 71T628 107T670 156T706 212T735 265T755
309Q760 320 769 326T789 332Q807 332 817 320T827 294Q827 286 824 279Q820 271 809 246T779 188T734 119T676 53T607 3T526 -17Q467 -17 428 16T370 112ZM237 641L397 793Q407 802 420 802Q433 802 443 792T453 768Q453 754 443 745L283 593Q272 584 260 584Q246
584 237 594T227 617Q227 631 237 641Z" />
<glyph unicode="&#xfb;" glyph-name="ucircumflex" horiz-adv-x="717" d="M370 112Q335 55 289 22T195 -11Q157 -11 127 3T75 42T42 104T30 185Q30 255 43 309T73 399T103 455T117 474Q122 480 129 483T145 486Q161 486 171 475T182 448Q182 442 180 436T174 424Q169
415 158 397T135 348T114 278T105 185Q105 126 128 96T195 65Q213 65 236 76T282 112T322 173T344 260L359 432Q361 447 372 457T398 467Q415 467 425 455T435 426L422 260Q420 239 423 205T438 138T471 82T529 58Q555 58 580 71T628 107T670 156T706 212T735 265T755
309Q760 320 769 326T789 332Q807 332 817 320T827 294Q827 286 824 279Q820 271 809 246T779 188T734 119T676 53T607 3T526 -17Q467 -17 428 16T370 112ZM433 636Q439 627 439 617Q439 604 430 594T406 584Q389 584 379 597L297 713L213 597Q203 584 187 584Q173
584 163 594T153 617Q153 629 160 637L272 789Q282 802 299 802Q316 802 325 788L433 636Z" />
<glyph unicode="&#xfc;" glyph-name="udieresis" horiz-adv-x="717" d="M370 112Q335 55 289 22T195 -11Q157 -11 127 3T75 42T42 104T30 185Q30 255 43 309T73 399T103 455T117 474Q122 480 129 483T145 486Q161 486 171 475T182 448Q182 442 180 436T174 424Q169
415 158 397T135 348T114 278T105 185Q105 126 128 96T195 65Q213 65 236 76T282 112T322 173T344 260L359 432Q361 447 372 457T398 467Q415 467 425 455T435 426L422 260Q420 239 423 205T438 138T471 82T529 58Q555 58 580 71T628 107T670 156T706 212T735 265T755
309Q760 320 769 326T789 332Q807 332 817 320T827 294Q827 286 824 279Q820 271 809 246T779 188T734 119T676 53T607 3T526 -17Q467 -17 428 16T370 112ZM443 674Q443 653 428 638T390 623Q369 623 354 638T339 674Q339 696 354 711T390 726Q413 726 428 711T443
674ZM257 674Q257 653 242 638T205 623Q184 623 169 638T154 674Q154 696 169 711T205 726Q227 726 242 711T257 674Z" />
<glyph unicode="&#xfd;" glyph-name="yacute" horiz-adv-x="629" d="M410 -14Q445 21 481 57T551 134T614 217T667 310Q672 321 681 326T701 332Q718 332 728 320T739 293Q739 285 736 278Q705 213 665 159T581 57T492 -37T406 -129Q402 -198 406 -267T410 -415Q410
-479 406 -543T393 -665T369 -775T329 -863T273 -922T198 -944Q127 -944 89 -895T51 -758Q51 -710 61 -655T91 -542T136 -423T194 -306T260 -198T331 -104Q333 -56 335 -5T341 91Q315 45 277 17T192 -11Q116 -11 73 40T30 180Q30 245 42 298T69 390T96 449T108
469Q119 486 139 486Q156 486 166 475T177 448Q177 437 171 428Q172 429 162 412T139 361T116 282T105 181Q105 126 125 95T190 64Q247 64 293 148T371 394Q373 407 383 415T407 424Q423 424 434 413T445 386Q445 383 441 351T432 264T420 139T410 -14ZM330 -226Q285
-291 248 -363T183 -506T141 -642T126 -758Q126 -810 143 -839T197 -869Q230 -869 255 -837T298 -744T325 -599T334 -407Q334 -364 333 -320T330 -226ZM243 885L403 1037Q413 1046 426 1046Q439 1046 449 1036T459 1012Q459 998 449 989L289 837Q278 828 266 828Q252
828 243 838T233 861Q233 875 243 885Z" />
<glyph unicode="&#xfe;" glyph-name="thorn" horiz-adv-x="723" d="M796 332Q813 332 823 320T833 294Q833 286 830 279Q804 221 768 163T684 57T576 -19T443 -49Q390 -49 341 -32T252 19Q246 25 238 32T222 49T209 69T204 89Q204 103 213 115T239 127Q262 127
276 107Q283 95 292 85Q300 77 311 71T336 64Q361 64 386 79T431 122T463 190T476 279Q476 315 469 340T450 382T425 405T400 413Q373 413 346 385T291 314T238 219T184 118Q182 -44 179 -191T167 -464T143 -692T102 -866T38 -978T-55 -1017Q-72 -1017 -94 -1010T-135
-982T-167 -920T-180 -813Q-180 -728 -159 -616T-100 -379T-8 -121T109 136Q109 171 109 205T110 271Q97 256 79 256Q62 256 52 268T42 294Q42 301 45 309Q69 364 82 413T101 500T109 560T110 583V1399Q110 1415 121 1426T148 1437Q163 1437 174 1426T185 1399V276Q208
315 231 353T279 421T334 469T400 488Q434 488 462 472T510 428T540 362T551 279Q551 187 518 122T437 23H441Q500 23 548 49T636 117T706 210T761 309Q766 320 775 326T796 332ZM107 -42Q58 -152 19 -263T-48 -477T-91 -670T-106 -828Q-106 -845 -104 -865T-96
-902T-79 -930T-50 -942Q-17 -942 7 -901T47 -789T75 -627T92 -435T102 -234T107 -42Z" />
<glyph unicode="&#xff;" glyph-name="ydieresis" horiz-adv-x="629" d="M410 -14Q445 21 481 57T551 134T614 217T667 310Q672 321 681 326T701 332Q718 332 728 320T739 293Q739 285 736 278Q705 213 665 159T581 57T492 -37T406 -129Q402 -198 406 -267T410
-415Q410 -479 406 -543T393 -665T369 -775T329 -863T273 -922T198 -944Q127 -944 89 -895T51 -758Q51 -710 61 -655T91 -542T136 -423T194 -306T260 -198T331 -104Q333 -56 335 -5T341 91Q315 45 277 17T192 -11Q116 -11 73 40T30 180Q30 245 42 298T69 390T96
449T108 469Q119 486 139 486Q156 486 166 475T177 448Q177 437 171 428Q172 429 162 412T139 361T116 282T105 181Q105 126 125 95T190 64Q247 64 293 148T371 394Q373 407 383 415T407 424Q423 424 434 413T445 386Q445 383 441 351T432 264T420 139T410 -14ZM330
-226Q285 -291 248 -363T183 -506T141 -642T126 -758Q126 -810 143 -839T197 -869Q230 -869 255 -837T298 -744T325 -599T334 -407Q334 -364 333 -320T330 -226ZM449 918Q449 897 434 882T396 867Q375 867 360 882T345 918Q345 940 360 955T396 970Q419 970 434
955T449 918ZM263 918Q263 897 248 882T211 867Q190 867 175 882T160 918Q160 940 175 955T211 970Q233 970 248 955T263 918Z" />
<glyph unicode="&#x2013;" glyph-name="endash" horiz-adv-x="1024" d="M933 322Q934 306 924 295T897 282L279 251Q264 250 253 261T241 287Q240 303 250 314T277 327L893 358Q909 359 920 349T933 322Z" />
<glyph unicode="&#x2014;" glyph-name="emdash" horiz-adv-x="2048" d="M1957 342Q1958 326 1948 315T1921 302L279 251Q264 250 253 261T241 287Q240 303 250 314T277 327L1917 378Q1933 379 1944 369T1957 342Z" />
<glyph unicode="&#x2018;" glyph-name="quoteleft" horiz-adv-x="327" d="M235 1336Q152 1253 157 1131Q157 1115 147 1104T120 1092Q105 1091 94 1101T81 1128Q75 1282 182 1389Q192 1400 208 1400Q225 1400 235 1389Q246 1378 246 1363T235 1336Z" />
<glyph unicode="&#x2019;" glyph-name="quoteright" horiz-adv-x="327" d="M246 1364Q252 1211 146 1103Q133 1092 119 1092Q103 1092 92 1103Q81 1114 81 1129T92 1156Q175 1241 171 1361Q170 1377 180 1388T207 1400Q222 1400 233 1390T246 1364Z" />
<glyph unicode="&#x201a;" glyph-name="quotesinglbase" horiz-adv-x="325" d="M245 37Q245 -35 224 -102T145 -224Q132 -235 118 -235Q104 -235 92 -225T80 -198Q80 -182 91 -171Q129 -132 149 -82T170 34Q170 50 179 61T206 73Q221 73 232 64T245 37Z" />
<glyph unicode="&#x201c;" glyph-name="quotedblleft" horiz-adv-x="497" d="M405 1336Q322 1253 327 1131Q327 1115 317 1104T290 1092Q275 1091 264 1101T251 1128Q246 1283 352 1389Q362 1400 379 1400Q395 1400 405 1389Q416 1378 416 1363T405 1336ZM235
1336Q152 1253 157 1131Q157 1115 147 1104T120 1092Q105 1091 94 1101T81 1128Q76 1283 182 1389Q192 1400 209 1400Q225 1400 235 1389Q246 1378 246 1363T235 1336Z" />
<glyph unicode="&#x201d;" glyph-name="quotedblright" horiz-adv-x="497" d="M246 1364Q252 1211 146 1103Q133 1092 119 1092Q103 1092 92 1103Q81 1114 81 1129T92 1156Q175 1241 171 1361Q170 1377 180 1388T207 1400Q222 1400 233 1390T246 1364ZM416 1364Q422
1211 316 1103Q303 1092 289 1092Q273 1092 262 1103Q251 1114 251 1129T262 1156Q345 1241 341 1361Q340 1377 350 1388T377 1400Q392 1400 403 1390T416 1364Z" />
<glyph unicode="&#x201e;" glyph-name="quotedblbase" horiz-adv-x="497" d="M246 37Q252 -116 146 -224Q133 -235 119 -235Q103 -235 92 -224Q81 -213 81 -198T92 -171Q175 -86 171 34Q170 50 180 61T207 73Q222 74 233 64T246 37ZM416 37Q422 -116 316 -224Q303
-235 289 -235Q273 -235 262 -224Q251 -213 251 -198T262 -171Q345 -86 341 34Q340 50 350 61T377 73Q392 74 403 64T416 37Z" />
<glyph unicode="&#x2022;" glyph-name="bullet" horiz-adv-x="500" d="M376 648Q376 622 366 600T339 560T299 533T250 523Q224 523 201 533T160 560T133 599T123 648Q123 674 133 696T160 736T200 763T250 773Q276 773 299 763T339 736T366 697T376 648Z" />
<glyph unicode="&#x2039;" glyph-name="guilsinglleft" horiz-adv-x="598" d="M548 1Q548 -13 537 -23T510 -34Q499 -34 489 -27Q405 31 328 84T169 185Q150 196 150 219Q150 241 171 252Q234 284 290 330T388 420T455 495T480 527Q485 535 493 538T510 542Q527
542 537 531T548 505Q548 492 541 482Q539 479 517 452T458 385T371 300T262 218Q310 189 355 159T448 95Q460 86 477 74T510 50T537 24T548 1Z" />
<glyph unicode="&#x203a;" glyph-name="guilsinglright" horiz-adv-x="598" d="M150 1Q150 11 161 24T187 49T220 74T250 95Q297 128 342 158T436 218Q377 255 327 300T240 384T181 451T157 482Q150 492 150 505Q150 519 160 530T188 542Q207 542 218 527Q218
526 243 495T310 421T408 331T527 252Q548 241 548 219Q548 196 529 185Q446 138 370 85T209 -27Q199 -34 188 -34Q172 -34 161 -24T150 1Z" />
</font>
</defs>
</svg>
