<?xml version="1.0" standalone="no"?>
<!DOCTYPE svg PUBLIC "-//W3C//DTD SVG 1.1//EN" "http://www.w3.org/Graphics/SVG/1.1/DTD/svg11.dtd">
<svg xmlns="http://www.w3.org/2000/svg">
<defs >
<font id="Overpass" horiz-adv-x="529" ><font-face
    font-family="Overpass Thin"
    units-per-em="1000"
    panose-1="0 0 2 0 0 0 0 0 0 0"
    ascent="982"
    descent="-284"
    alphabetic="0" />
<glyph unicode=" " glyph-name="space" horiz-adv-x="230" />
<glyph unicode="!" glyph-name="exclam" horiz-adv-x="246" d="M147 193L169 460L213 712H252L208 460L157 193H147ZM123 -14Q112 -14 105 -7T98 12Q98 26 108 36T132 46Q143 46 150 38T157 19Q157 5 147 -4T123 -14Z" />
<glyph unicode="&quot;" glyph-name="quotedbl" horiz-adv-x="342" d="M124 433L171 700H209L162 433H124ZM292 433L339 700H377L330 433H292Z" />
<glyph unicode="#" glyph-name="numbersign" horiz-adv-x="661" d="M142 0L208 218H87L98 254H218L280 457H159L170 493H290L352 700H390L328 493H515L577 700H619L557 493H675L665 457H547L485 254H604L593 218H475L410 0H368L433 218H246L181 0H142ZM256 254H443L505
457H318L256 254Z" />
<glyph unicode="$" glyph-name="dollar" horiz-adv-x="568" d="M238 -98L253 -11Q185 -5 141 36T83 136L120 148Q154 24 282 24Q364 24 419 70T475 197Q475 248 444 284T369 341T281 385T206 444T175 533Q175 608 230 658T380 712L394 789H430L416 710Q472 705
507 675T553 596L517 585Q495 677 389 677Q310 677 262 639T213 538Q213 494 244 463T319 411T408 367T483 303T514 204Q514 108 452 50T289 -11L274 -98H238Z" />
<glyph unicode="%" glyph-name="percent" horiz-adv-x="865" d="M266 356Q202 356 170 397T137 498Q137 545 155 592T217 675T322 712Q387 712 418 669T449 568Q449 532 439 496T407 428T350 376T266 356ZM203 -12H160L765 712H808L203 -12ZM269 392Q337 392 374
445T411 563Q411 609 389 642T319 676Q251 676 214 621T176 503Q176 456 198 424T269 392ZM647 -12Q582 -12 550 29T518 130Q518 207 565 275T702 344Q767 344 798 301T829 200Q829 164 819 128T787 60T730 8T647 -12ZM649 24Q717 24 754 77T791 195Q791 241 769
274T699 308Q631 308 594 253T557 135Q557 88 579 56T649 24Z" />
<glyph unicode="&amp;" glyph-name="ampersand" horiz-adv-x="626" d="M541 0L470 107Q358 -12 225 -12Q151 -12 108 28T65 139Q65 221 121 279T282 391Q216 493 216 552Q216 624 264 668T385 712Q441 712 478 678T516 588Q516 527 472 479T335 383L478 170Q525
233 553 319H591Q566 224 499 140L593 0H541ZM256 558Q256 504 318 409Q399 450 437 490T476 584Q476 626 450 651T382 676Q326 676 291 643T256 558ZM231 24Q351 24 451 136L299 364Q200 313 152 263T103 145Q103 88 138 56T231 24Z" />
<glyph unicode="&apos;" glyph-name="quotesingle" horiz-adv-x="174" d="M171 700H209L162 433H124L171 700Z" />
<glyph unicode="(" glyph-name="parenleft" horiz-adv-x="316" d="M183 -130Q120 -15 120 165Q120 341 184 481T342 712H378Q351 684 321 644T251 534T186 369T160 172Q160 -8 219 -130H183Z" />
<glyph unicode=")" glyph-name="parenright" horiz-adv-x="316" d="M31 -130Q57 -100 71 -83T121 -9T178 98T217 231T236 397Q236 503 213 589T168 712H204Q275 590 275 402Q275 88 67 -130H31Z" />
<glyph unicode="*" glyph-name="asterisk" horiz-adv-x="504" d="M354 393L319 483L253 393L178 310L150 334L223 417L311 490L216 512L125 544L144 579L236 547L314 502L318 595L336 700H376L358 595L328 502L424 548L526 580L533 542L432 510L329 490L388 417L437
332L401 308L354 393Z" />
<glyph unicode="+" glyph-name="plus" horiz-adv-x="636" d="M386 324V108H348V324H133V360H348V578H386V360H603V324H386Z" />
<glyph unicode="," glyph-name="comma" horiz-adv-x="182" d="M48 -141L39 -138Q59 -116 76 -78T93 -14Q81 -14 74 -7T66 12Q66 27 75 36T99 46Q127 46 127 11Q127 -28 102 -72T48 -141Z" />
<glyph unicode="-" glyph-name="hyphen" horiz-adv-x="379" d="M116 280L122 316H345L339 280H116Z" />
<glyph unicode="." glyph-name="period" horiz-adv-x="182" d="M87 -14Q77 -14 70 -7T63 12Q64 25 74 35T99 46Q110 46 116 39T123 19Q122 5 112 -4T87 -14Z" />
<glyph unicode="/" glyph-name="slash" horiz-adv-x="462" d="M-30 -130L509 712H549L9 -130H-30Z" />
<glyph unicode="0" glyph-name="zero" horiz-adv-x="596" d="M287 -12Q239 -12 204 10T150 72T123 154T114 248Q114 295 122 350T151 471T203 589T286 677T403 712Q491 712 532 637T574 451Q574 401 566 343T536 221T483 106T400 22T287 -12ZM291 24Q355 24 405
70T482 185T522 323T535 451Q535 548 503 612T397 676Q345 676 302 645T232 565T187 458T161 346T153 248Q153 187 165 139T209 58T291 24Z" />
<glyph unicode="1" glyph-name="one" horiz-adv-x="310" d="M151 0L254 582H139L142 606Q209 606 236 623T287 700H311L187 0H151Z" />
<glyph unicode="2" glyph-name="two" horiz-adv-x="576" d="M63 0Q73 57 93 100T147 177T213 233T301 287Q339 309 357 320T408 354T458 394T494 437T522 490T530 551Q530 608 495 642T397 676Q332 676 283 641T207 546L176 562Q206 628 265 670T398 712Q479 712
524 668T569 551Q569 520 561 491T541 439T507 393T467 355T418 319T369 288T316 257Q220 201 174 154T109 36H486L479 0H63Z" />
<glyph unicode="3" glyph-name="three" horiz-adv-x="566" d="M265 -12Q180 -12 130 31T63 139L98 152Q114 90 157 57T265 24Q353 24 412 74T471 214Q471 346 323 346H292L298 381H320Q398 381 451 430T504 559Q504 612 470 644T380 676Q271 676 198 567L166 581Q201
636 257 674T385 712T500 671T544 563Q544 501 506 446T394 365Q449 352 478 313T508 216Q508 112 439 50T265 -12Z" />
<glyph unicode="4" glyph-name="four" horiz-adv-x="563" d="M362 0L398 204H64L68 225L506 700H523L442 237H545L538 204H435L399 0H362ZM405 237L471 620L122 237H405Z" />
<glyph unicode="5" glyph-name="five" horiz-adv-x="604" d="M281 -12Q212 -12 159 16T80 79L109 109Q168 24 281 24Q392 24 453 94T515 260Q515 330 473 373T361 416Q262 416 181 337L152 345L271 700H586L580 664H297L207 396Q276 452 367 452Q450 452 501 400T553
264Q553 193 524 132T432 29T281 -12Z" />
<glyph unicode="6" glyph-name="six" horiz-adv-x="562" d="M260 -12Q172 -12 129 44T85 180Q85 355 204 502T505 712L495 675Q379 635 284 539T148 327Q221 425 336 425Q418 425 463 374T509 242Q509 137 438 63T260 -12ZM262 24Q349 24 409 88T470 242Q470 309
434 349T331 389Q246 389 184 325T122 174Q122 106 159 65T262 24Z" />
<glyph unicode="7" glyph-name="seven" horiz-adv-x="475" d="M152 0Q188 189 265 350T493 664H142L149 700H538L533 669Q265 410 191 0H152Z" />
<glyph unicode="8" glyph-name="eight" horiz-adv-x="574" d="M279 -12Q194 -12 145 36T95 161Q95 241 146 304T277 388Q235 401 212 436T188 514Q188 595 247 653T397 712Q467 712 507 670T548 562Q548 502 510 452T402 384Q457 368 487 325T518 224Q518 123
450 56T279 -12ZM345 401Q417 401 464 446T511 562Q511 615 478 645T392 676Q323 676 275 632T226 514Q226 463 258 432T345 401ZM279 24Q362 24 420 78T479 220Q479 284 441 326T337 369Q253 369 194 308T135 162Q135 99 175 62T279 24Z" />
<glyph unicode="9" glyph-name="nine" horiz-adv-x="562" d="M161 -12L167 24Q280 59 369 160T496 384Q417 288 308 288Q225 288 180 340T135 471Q135 573 204 642T379 712Q463 712 510 658T558 526Q558 355 442 197T161 -12ZM310 324Q398 324 458 383T519 526Q519
591 481 633T379 676Q293 676 234 617T175 471Q175 406 211 365T310 324Z" />
<glyph unicode=":" glyph-name="colon" horiz-adv-x="182" d="M155 423Q145 423 138 430T131 449Q132 462 142 472T167 483Q178 483 184 476T191 456Q190 442 180 433T155 423ZM78 -14Q68 -14 61 -7T54 12Q55 25 65 35T90 46Q101 46 107 39T114 19Q113 5 103 -4T78 -14Z" />
<glyph unicode=";" glyph-name="semicolon" horiz-adv-x="182" d="M155 423Q145 423 138 430T131 449Q132 462 142 472T167 483Q178 483 184 476T191 456Q190 442 180 433T155 423ZM37 -141L28 -138Q48 -116 65 -78T82 -14Q70 -14 63 -7T55 12Q55 27 64 36T88
46Q116 46 116 11Q116 -28 91 -72T37 -141Z" />
<glyph unicode="&lt;" glyph-name="less" horiz-adv-x="636" d="M603 120L133 324V362L603 566V525L180 343L603 161V120Z" />
<glyph unicode="=" glyph-name="equal" horiz-adv-x="636" d="M133 419V455H603V419H133ZM133 229V265H603V229H133Z" />
<glyph unicode="&gt;" glyph-name="greater" horiz-adv-x="636" d="M603 324L133 120V161L556 343L133 525V566L603 362V324Z" />
<glyph unicode="?" glyph-name="question" horiz-adv-x="502" d="M236 156L242 190Q252 242 281 284T345 354T413 409T469 473T492 556Q492 609 458 642T359 676Q229 676 172 555L140 570Q174 638 232 675T363 712Q443 712 487 669T531 557Q531 508 508 469T451
400T382 343T318 275T280 190L274 156H236ZM224 -14Q214 -14 207 -7T200 12Q201 25 211 35T236 46Q247 46 253 39T260 19Q259 5 249 -4T224 -14Z" />
<glyph unicode="@" glyph-name="at" horiz-adv-x="775" d="M389 -12Q259 -12 177 69T94 289Q94 379 129 459T221 594T352 680T501 712Q631 712 708 640T785 452Q785 334 726 247T593 160Q560 160 542 178T523 230Q467 151 380 151Q323 151 291 189T258 293Q258
384 316 456T465 529Q515 529 542 499T574 426L602 516H637L573 311Q558 266 558 239Q558 191 597 191Q654 191 700 270T746 452Q746 552 679 614T501 676Q355 676 244 564T133 289Q133 173 201 99T389 24Q464 24 520 37L507 1Q454 -12 389 -12ZM389 186Q456 186
504 246T553 382Q553 433 529 463T462 494Q388 494 342 435T296 296Q296 245 321 216T389 186Z" />
<glyph unicode="A" glyph-name="A" horiz-adv-x="638" d="M58 0L413 700H439L552 0H515L482 197H198L98 0H58ZM212 227H478L432 528Q420 594 415 640Q412 632 364 528L212 227Z" />
<glyph unicode="B" glyph-name="B" horiz-adv-x="612" d="M210 700H415Q505 700 545 660T585 552Q585 481 537 429T414 364Q476 359 514 318T552 210Q552 173 540 138T501 71T427 20T313 0H87L210 700ZM337 379Q434 379 492 428T550 552Q550 668 413 668H242L191
379H337ZM317 32Q418 32 466 84T515 210Q515 347 346 347H185L129 32H317Z" />
<glyph unicode="C" glyph-name="C" horiz-adv-x="620" d="M327 -12Q219 -12 167 67T115 266Q115 349 138 428T202 570T308 673T450 712Q525 712 564 682T629 599L595 581Q572 628 540 652T449 676Q359 676 291 615T189 461T155 267Q155 161 198 93T331 24Q394
24 442 54T519 131L553 116Q471 -12 327 -12Z" />
<glyph unicode="D" glyph-name="D" horiz-adv-x="645" d="M210 700H360Q429 700 480 677T561 614T603 526T617 422Q617 339 593 264T522 130T401 35T233 0H87L210 700ZM240 36Q394 36 485 146T576 422Q576 472 565 513T528 590T459 644T353 664H240L131 36H240Z" />
<glyph unicode="E" glyph-name="E" horiz-adv-x="562" d="M87 0L210 700H567L562 667H242L191 379H404L398 346H185L130 33H472L466 0H87Z" />
<glyph unicode="F" glyph-name="F" horiz-adv-x="530" d="M87 0L210 700H577L572 667H242L191 379H411L405 346H185L124 0H87Z" />
<glyph unicode="G" glyph-name="G" horiz-adv-x="661" d="M329 -12Q255 -12 206 28T136 128T115 265Q115 348 137 427T199 570T306 673T452 712Q571 712 626 616L590 595Q547 676 448 676Q375 676 317 637T224 537T172 406T154 269Q154 162 197 93T331 24Q417
24 475 86T556 269L558 281H416L421 316H602L596 281Q570 132 499 60T329 -12Z" />
<glyph unicode="H" glyph-name="H" horiz-adv-x="648" d="M87 0L210 700H247L192 381H556L611 700H648L525 0H488L549 347H185L124 0H87Z" />
<glyph unicode="I" glyph-name="I" horiz-adv-x="236" d="M87 0L210 700H247L124 0H87Z" />
<glyph unicode="J" glyph-name="J" horiz-adv-x="512" d="M204 -12Q137 -12 96 21T39 107L72 123Q101 22 204 22Q363 22 398 223L481 700H519L436 225Q394 -12 204 -12Z" />
<glyph unicode="K" glyph-name="K" horiz-adv-x="599" d="M485 0L331 434L170 264L124 0H87L210 700H247L180 319L541 700H584L359 463L523 0H485Z" />
<glyph unicode="L" glyph-name="L" horiz-adv-x="511" d="M87 0L210 700H247L130 33H468L462 0H87Z" />
<glyph unicode="M" glyph-name="M" horiz-adv-x="778" d="M369 -12L245 523Q242 537 236 563T228 598Q226 583 221 558T215 523L123 0H86L209 700H242L364 168Q366 156 373 127T383 82Q385 86 432 168L740 700H775L652 0H615L707 523Q715 571 720 596Q706 571
678 523L369 -12Z" />
<glyph unicode="N" glyph-name="N" horiz-adv-x="661" d="M86 0L209 700H244L468 175Q509 79 514 67Q517 87 523 123T533 175L625 700H662L539 0H504L280 523Q278 528 261 569T234 633Q231 613 225 576T215 523L123 0H86Z" />
<glyph unicode="O" glyph-name="O" horiz-adv-x="696" d="M333 -12Q258 -12 208 30T136 133T115 270Q115 329 127 389T166 508T231 611T326 684T452 712Q563 712 614 634T666 435Q666 359 647 283T589 140T484 30T333 -12ZM338 24Q398 24 448 50T530 118T585 215T618
325T628 436Q628 541 585 608T447 676Q387 676 337 650T254 582T198 486T164 376T154 266Q154 198 171 146T230 59T338 24Z" />
<glyph unicode="P" glyph-name="P" horiz-adv-x="579" d="M87 0L210 700H411Q515 700 561 651T607 523Q607 483 592 443T546 368T464 311T347 289H175L124 0H87ZM349 325Q454 325 510 385T567 523Q567 664 408 664H240L182 325H349Z" />
<glyph unicode="Q" glyph-name="Q" horiz-adv-x="696" d="M527 -57L484 30Q419 -12 333 -12Q258 -12 208 30T136 133T115 270Q115 329 127 389T166 508T231 611T326 684T452 712Q563 712 614 634T666 435Q666 326 627 220T513 51L557 -38L527 -57ZM338 24Q409
24 468 62L422 155L453 174L497 84Q562 141 595 239T628 436Q628 541 585 608T447 676Q387 676 337 650T254 582T198 486T164 376T154 266Q154 198 171 146T230 59T338 24Z" />
<glyph unicode="R" glyph-name="R" horiz-adv-x="624" d="M612 537Q612 449 551 395T394 331L497 0H457L354 329H182L124 0H87L210 700H435Q525 700 568 652T612 537ZM355 362Q447 362 510 405T573 537Q573 590 541 628T435 667H242L188 362H355Z" />
<glyph unicode="S" glyph-name="S" horiz-adv-x="570" d="M510 586Q490 677 381 677Q304 677 259 639T214 538Q214 495 244 464T318 411T404 367T477 302T508 204Q508 105 443 47T279 -12Q202 -12 151 30T84 135L121 147Q136 90 178 57T283 23Q362 23 415 70T469
197Q469 248 439 284T365 343T279 388T206 448T175 537Q175 611 232 661T382 712Q449 712 494 681T547 596L510 586Z" />
<glyph unicode="T" glyph-name="T" horiz-adv-x="537" d="M392 667L274 0H237L355 667H168L174 700H586L580 667H392Z" />
<glyph unicode="U" glyph-name="U" horiz-adv-x="638" d="M305 -12Q222 -12 172 35T121 179Q121 214 129 262L206 700H244L168 269Q160 226 160 185Q160 137 173 103T209 53T255 30T305 23Q487 23 527 251L605 700H642L564 249Q519 -12 305 -12Z" />
<glyph unicode="V" glyph-name="V" horiz-adv-x="612" d="M274 0L161 700H200L279 200Q283 178 289 136T299 75Q341 159 362 200L614 700H655L301 0H274Z" />
<glyph unicode="W" glyph-name="W" horiz-adv-x="812" d="M207 0L161 700H201L235 156Q235 145 236 123T239 89L266 156L491 700H521L561 156Q562 145 563 123T566 89L593 156L814 700H853L567 0H536L497 523L491 609Q487 598 475 569T456 523L239 0H207Z" />
<glyph unicode="X" glyph-name="X" horiz-adv-x="526" d="M28 0L288 367L169 700H208L314 403L524 700H567L328 363L458 0H419L302 326L71 0H28Z" />
<glyph unicode="Y" glyph-name="Y" horiz-adv-x="580" d="M255 0L304 277L154 700H191L326 315L594 700H635L340 277L291 0H255Z" />
<glyph unicode="Z" glyph-name="Z" horiz-adv-x="575" d="M44 0L48 19L565 667H185L190 700H619L615 679L99 33H500L496 0H44Z" />
<glyph unicode="[" glyph-name="bracketleft" horiz-adv-x="355" d="M87 -130L234 712H409L404 678H266L130 -96H268L262 -130H87Z" />
<glyph unicode="\" glyph-name="backslash" horiz-adv-x="462" d="M363 -130L117 712H156L402 -130H363Z" />
<glyph unicode="]" glyph-name="bracketright" horiz-adv-x="355" d="M27 -130L33 -96H171L307 678H169L174 712H349L202 -130H27Z" />
<glyph unicode="^" glyph-name="asciicircum" horiz-adv-x="636" d="M543 362L368 663L193 362H155L349 712H387L581 362H543Z" />
<glyph unicode="_" glyph-name="underscore" horiz-adv-x="506" d="M-24 -155L-18 -122H491L485 -155H-24Z" />
<glyph unicode="`" glyph-name="grave" horiz-adv-x="311" d="M271 576L129 732H184L308 576H271Z" />
<glyph unicode="a" glyph-name="a" horiz-adv-x="497" d="M371 0L384 75Q305 -12 211 -12Q149 -12 113 25T77 130Q77 214 135 265T277 317Q355 317 417 265L429 330Q436 373 436 394Q436 490 339 490Q269 490 178 439L171 471Q268 523 340 523Q472 523 472 395Q472
376 466 338L407 0H371ZM213 21Q304 21 392 122L412 233Q347 283 275 283Q210 283 164 241T118 130Q118 80 143 51T213 21Z" />
<glyph unicode="b" glyph-name="b" horiz-adv-x="534" d="M277 -12Q181 -12 134 75L121 0H84L207 703L247 722L197 436Q263 523 358 523Q429 523 470 468T511 319Q511 168 447 78T277 -12ZM277 24Q366 24 419 108T472 319Q472 400 442 443T353 487Q301 487 259
456T188 383L143 126Q179 24 277 24Z" />
<glyph unicode="c" glyph-name="c" horiz-adv-x="453" d="M243 -12Q170 -12 129 40T87 189Q87 332 151 427T318 523Q376 523 411 491T451 415L417 402Q410 442 384 464T317 487Q232 487 179 402T126 189Q126 111 156 68T243 24Q284 24 318 49T373 119L407 105Q352
-12 243 -12Z" />
<glyph unicode="d" glyph-name="d" horiz-adv-x="534" d="M253 -12Q178 -12 137 46T95 202Q95 346 163 434T340 523Q392 523 425 497T472 434L520 704L559 722L433 0H396L409 73Q335 -12 253 -12ZM253 24Q347 24 419 130L463 384Q449 425 419 456T338 487Q245
487 190 408T134 202Q134 124 164 74T253 24Z" />
<glyph unicode="e" glyph-name="e" horiz-adv-x="501" d="M248 -12Q170 -12 129 40T87 191Q87 339 158 431T335 523Q404 523 446 481T488 350Q488 311 474 245H129Q126 218 126 191Q126 24 257 24Q318 24 379 69L398 41Q328 -12 248 -12ZM134 278H443Q450 324
450 350Q450 425 416 457T336 490Q253 490 203 430T134 278Z" />
<glyph unicode="f" glyph-name="f" horiz-adv-x="297" d="M222 478L138 0H101L185 478H105L111 511H191L207 603Q227 712 318 712Q351 712 378 696L372 664Q342 679 316 679Q283 679 267 660T243 599L228 511H346L340 478H222Z" />
<glyph unicode="g" glyph-name="g" horiz-adv-x="536" d="M160 -181Q269 -175 323 -136T391 -18L409 84Q348 -12 243 -12Q174 -12 132 42T89 195Q89 343 159 433T336 523Q387 523 422 498T471 437L484 511H520L427 -23Q396 -197 174 -213L160 -181ZM250 24Q348
24 418 135L462 389Q445 436 411 461T333 487Q239 487 184 408T128 201Q128 118 161 71T250 24Z" />
<glyph unicode="h" glyph-name="h" horiz-adv-x="532" d="M84 0L208 704L247 722L194 419Q222 472 266 497T355 523Q418 523 453 488T488 383Q488 350 482 312L427 0H391L446 316Q451 347 451 383Q451 489 350 489Q205 489 172 295L121 0H84Z" />
<glyph unicode="i" glyph-name="i" horiz-adv-x="228" d="M213 623Q189 623 189 648Q189 662 198 672T223 683Q247 683 247 657Q247 643 238 633T213 623ZM86 0L176 511H212L123 0H86Z" />
<glyph unicode="j" glyph-name="j" horiz-adv-x="234" d="M213 623Q189 623 189 648Q189 662 198 672T223 683Q247 683 247 657Q247 643 238 633T213 623ZM-54 -213L-67 -182Q-1 -175 33 -144T79 -40L176 511H212L116 -40Q99 -132 56 -169T-54 -213Z" />
<glyph unicode="k" glyph-name="k" horiz-adv-x="479" d="M316 371L437 0H399L287 344L161 226L121 0H84L208 704L247 722L169 276L420 511H465L316 371Z" />
<glyph unicode="l" glyph-name="l" horiz-adv-x="222" d="M84 0L208 704L247 722L121 0H84Z" />
<glyph unicode="m" glyph-name="m" horiz-adv-x="815" d="M84 0L174 511H209L193 419Q218 468 262 495T351 523Q402 523 432 492T464 398Q491 459 538 491T638 523Q699 523 732 485T765 377Q765 343 760 317L704 0H668L723 318Q728 350 728 378Q728 489 631 489Q567
489 525 442T469 323L412 0H376L431 318Q436 348 436 378Q436 489 345 489Q278 489 234 440T174 308L121 0H84Z" />
<glyph unicode="n" glyph-name="n" horiz-adv-x="532" d="M84 0L174 511H209L193 419Q221 472 265 497T355 523Q419 523 453 487T488 382Q488 346 481 305L427 0H391L444 305Q451 345 451 382Q451 489 348 489Q284 489 237 444T172 297L121 0H84Z" />
<glyph unicode="o" glyph-name="o" horiz-adv-x="520" d="M253 -12Q177 -12 135 40T92 193Q92 345 159 434T337 523Q414 523 457 470T500 321Q500 169 434 79T253 -12ZM259 24Q352 24 406 104T461 315Q461 397 428 442T334 487Q238 487 185 405T131 192Q131 112
163 68T259 24Z" />
<glyph unicode="p" glyph-name="p" horiz-adv-x="538" d="M274 -12Q224 -12 187 14T135 85L88 -185L47 -203L173 511H210L196 436Q263 523 357 523Q429 523 471 467T513 319Q513 168 445 78T274 -12ZM275 24Q362 24 418 105T475 315Q475 395 443 441T350 487Q306
487 263 461T189 389L144 132Q176 24 275 24Z" />
<glyph unicode="q" glyph-name="q" horiz-adv-x="538" d="M250 -12Q176 -12 135 39T94 192Q94 339 161 431T329 523Q432 523 471 437L484 511H521L400 -181L360 -200L409 82Q380 38 338 13T250 -12ZM253 24Q348 24 418 134L463 389Q448 435 414 461T329 487Q243
487 188 406T133 192Q133 24 253 24Z" />
<glyph unicode="r" glyph-name="r" horiz-adv-x="360" d="M84 0L174 511H209L190 402Q223 462 266 492T352 523Q395 523 421 502L408 471Q385 487 346 487Q292 487 240 434T170 283L121 0H84Z" />
<glyph unicode="s" glyph-name="s" horiz-adv-x="431" d="M216 -12Q118 -12 63 65L92 88Q140 22 218 22Q276 22 310 51T344 135Q344 172 321 197T264 237T196 268T139 313T115 386Q115 443 161 483T280 523Q365 523 414 460L386 438Q343 489 276 489Q220 489 186
460T151 386Q151 353 174 330T232 291T300 259T357 212T381 138Q381 69 338 29T216 -12Z" />
<glyph unicode="t" glyph-name="t" horiz-adv-x="341" d="M206 -12Q166 -12 146 9T126 66Q126 86 132 119L195 478H111L117 511H201L235 704L274 722L237 511H364L358 478H231L168 115Q163 88 163 70Q163 23 212 23Q248 23 289 47L278 9Q241 -12 206 -12Z" />
<glyph unicode="u" glyph-name="u" horiz-adv-x="532" d="M387 0L402 88Q344 -12 244 -12Q177 -12 142 24T107 129Q107 155 114 199L169 511H205L150 191Q144 158 144 129Q144 21 250 21Q312 21 359 67T424 214L475 511H512L422 0H387Z" />
<glyph unicode="v" glyph-name="v" horiz-adv-x="476" d="M213 0L123 511H159L225 134L237 64Q243 77 273 134L469 511H507L240 0H213Z" />
<glyph unicode="w" glyph-name="w" horiz-adv-x="678" d="M162 0L123 511H159L183 139Q184 126 185 102T188 66Q194 81 206 107T222 139L399 511H425L474 139L483 68Q504 122 512 139L666 511H703L488 0H461L407 390Q406 397 404 415T400 443Q392 424 376 390L189 0H162Z" />
<glyph unicode="x" glyph-name="x" horiz-adv-x="468" d="M33 0L248 268L138 511H176L272 298L443 511H485L287 264L407 0H369L263 234L75 0H33Z" />
<glyph unicode="y" glyph-name="y" horiz-adv-x="485" d="M98 -194L209 14L119 511H154L216 161L234 57Q252 93 288 161L475 511H514L136 -194H98Z" />
<glyph unicode="z" glyph-name="z" horiz-adv-x="475" d="M49 0L53 22L427 478H153L159 511H484L480 490L105 33H399L394 0H49Z" />
<glyph unicode="{" glyph-name="braceleft" horiz-adv-x="354" d="M269 -130Q146 -123 146 11Q146 46 156 101L163 141Q170 178 170 191Q170 230 149 251T92 273H88L95 310H99Q142 310 172 338T212 421L227 508Q262 712 417 712L411 680Q353 678 317 638T268 526L254
444Q240 361 207 329T116 293L115 289Q158 284 180 261T202 185Q202 158 196 120L185 57Q180 25 180 5Q180 -95 275 -98L269 -130Z" />
<glyph unicode="|" glyph-name="bar" horiz-adv-x="246" d="M144 -378V1062H180V-378H144Z" />
<glyph unicode="}" glyph-name="braceright" horiz-adv-x="354" d="M27 -130L33 -98Q91 -96 128 -56T177 56L191 138Q205 221 238 253T328 289L329 293Q286 298 265 321T243 397Q243 424 249 462L260 525Q265 557 265 577Q265 677 169 680L175 712Q298 705 298
571Q298 536 288 481L281 441Q274 404 274 391Q274 352 295 331T352 309H356L349 272H345Q302 272 272 244T232 161L217 74Q182 -130 27 -130Z" />
<glyph unicode="~" glyph-name="asciitilde" horiz-adv-x="636" d="M483 277Q443 277 402 300T323 347T251 371Q215 371 195 347T172 277H135Q135 331 165 369T253 407Q293 407 334 384T413 337T485 313Q521 313 541 338T564 407H601Q601 353 571 315T483 277Z" />
<glyph unicode="&#xa0;" glyph-name="uni00A0" horiz-adv-x="230" />
<glyph unicode="&#xa1;" glyph-name="exclamdown" horiz-adv-x="246" d="M177 463Q166 463 159 471T152 490Q152 504 162 513T186 523Q197 523 204 516T211 497Q211 484 201 474T177 463ZM57 -200L101 52L152 319H162L140 52L96 -200H57Z" />
<glyph unicode="&#xa2;" glyph-name="cent" horiz-adv-x="487" d="M220 -12L237 84Q178 95 146 146T114 282Q114 418 174 512T329 615L346 712H382L365 615Q414 609 444 578T478 508L444 495Q437 535 411 557T344 580Q259 580 206 495T153 282Q153 204 183 161T270
117Q311 117 345 142T400 212L434 198Q379 82 272 81L256 -12H220Z" />
<glyph unicode="&#xa3;" glyph-name="sterling" horiz-adv-x="580" d="M73 0L80 40Q163 103 193 161T223 312H128L133 345H219Q217 358 208 412T198 495Q198 588 261 650T440 712Q544 712 606 658L587 626Q532 677 434 677Q339 677 288 625T237 499Q237 470 247
416T259 345H427L422 312H262Q262 224 228 158T116 33H513L507 0H73Z" />
<glyph unicode="&#xa4;" glyph-name="currency" horiz-adv-x="611" d="M320 101Q224 101 174 157L88 83L64 111L153 186Q128 232 128 297Q128 408 200 485L141 555L175 583L232 513Q302 565 387 565Q480 565 531 509L617 583L641 555L552 480Q578 433 578 369Q578
259 505 181L564 111L530 83L473 152Q408 101 320 101ZM319 138Q413 138 475 204T538 369Q538 441 498 484T387 528Q293 528 231 462T168 297Q168 225 208 182T319 138Z" />
<glyph unicode="&#xa5;" glyph-name="yen" horiz-adv-x="534" d="M342 309H496L491 276H322L301 156H470L464 123H295L273 0H236L258 123H77L83 156H264L285 276H104L109 309H275L131 700H169L308 318L583 700H624L342 309Z" />
<glyph unicode="&#xa6;" glyph-name="brokenbar" horiz-adv-x="246" d="M150 366V825H186V366H150ZM150 -225V234H186V-225H150Z" />
<glyph unicode="&#xa7;" glyph-name="section" horiz-adv-x="508" d="M214 -120Q99 -120 41 -45L73 -20Q129 -84 214 -84Q292 -84 340 -50T389 54Q389 73 381 89T363 117T333 140T299 158T259 175T219 192Q161 216 135 240T109 308Q109 355 142 387T234 434Q152
472 152 555Q152 626 207 669T345 712Q452 712 507 650L476 625Q427 676 345 676Q277 676 234 644T191 558Q191 512 223 488T347 426Q407 402 439 375T471 299Q471 258 446 222T368 167Q428 132 428 56Q428 -29 369 -74T214 -120ZM336 185Q378 199 404 226T431
290Q431 313 420 331T383 364T334 389T270 414Q215 406 182 378T148 312Q148 303 150 295T158 280T170 266T187 253T208 241T234 228T264 215T298 201T336 185Z" />
<glyph unicode="&#xa8;" glyph-name="dieresis" horiz-adv-x="311" d="M161 623Q151 623 144 630T137 649Q138 662 148 672T173 683Q184 683 190 676T197 656Q196 642 186 633T161 623ZM327 623Q317 623 310 630T303 649Q304 662 314 672T339 683Q350 683 356
676T363 656Q362 642 352 633T327 623Z" />
<glyph unicode="&#xa9;" glyph-name="copyright" horiz-adv-x="850" d="M624 -12T470 -12T212 92T108 350T212 608T470 712T728 608T832 350T728 92ZM329 22T470 22T703 115T796 350T704 584T470 678T237 585T144 350T236 116ZM476 138Q394 138 352 194T309 355Q309
456 352 514T475 573Q574 573 612 485L578 471Q547 538 475 538Q412 538 380 490T347 355Q347 173 476 173Q562 173 588 249L618 237Q584 138 476 138Z" />
<glyph unicode="&#xaa;" glyph-name="ordfeminine" horiz-adv-x="428" d="M352 283L362 340Q299 273 226 273Q176 273 144 305T112 389Q112 465 164 506T281 547T391 506L399 551Q406 593 406 604Q406 678 329 678Q272 678 190 633L184 666Q260 712 329 712Q444
712 444 604Q444 593 437 551L389 283H352ZM227 306Q295 306 370 381L386 474Q333 514 279 514Q231 514 191 482T151 390Q151 350 172 328T227 306Z" />
<glyph unicode="&#xab;" glyph-name="guillemotleft" horiz-adv-x="441" d="M180 0L73 256L269 511H311L115 256L222 0H180ZM360 0L253 256L449 511H491L295 256L402 0H360Z" />
<glyph unicode="&#xac;" glyph-name="logicalnot" horiz-adv-x="636" d="M567 176V427H133V463H603V176H567Z" />
<glyph unicode="&#xad;" glyph-name="uni00AD" horiz-adv-x="379" d="M116 280L122 316H345L339 280H116Z" />
<glyph unicode="&#xae;" glyph-name="registered" horiz-adv-x="850" d="M624 -12T470 -12T212 92T108 350T212 608T470 712T728 608T832 350T728 92ZM329 22T470 22T703 115T796 350T704 584T470 678T237 585T144 350T236 116ZM333 137V560H511Q570 560 599 522T629
438Q629 391 601 358T518 321L623 137H581L479 319H369V137H333ZM369 355H502Q548 355 569 378T591 438T571 499T502 524H369V355Z" />
<glyph unicode="&#xaf;" glyph-name="overscore" horiz-adv-x="311" d="M79 623L85 656H415L409 623H79Z" />
<glyph unicode="&#xb0;" glyph-name="degree" horiz-adv-x="376" d="M252 482Q201 482 170 514T138 595Q138 662 184 706T298 750Q349 750 380 718T412 637Q412 570 366 526T252 482ZM257 514Q305 514 341 549T378 632Q378 669 355 693T293 718Q243 718 208 684T172
600Q172 563 195 539T257 514Z" />
<glyph unicode="&#xb1;" glyph-name="plusminus" horiz-adv-x="636" d="M385 388V204H349V388H133V424H349V608H385V424H603V388H385ZM133 0V36H603V0H133Z" />
<glyph unicode="&#xb2;" glyph-name="uni00B2" horiz-adv-x="346" d="M93 444Q105 511 146 552T259 634Q319 667 342 694T366 765Q366 794 347 815T291 837Q217 837 183 762L150 776Q169 819 205 846T291 873T373 843T405 765Q405 709 375 675T270 600Q170 547
145 485H354L348 444H93Z" />
<glyph unicode="&#xb3;" glyph-name="uni00B3" horiz-adv-x="343" d="M135 538Q159 469 229 469Q279 469 311 496T343 570Q343 603 324 623T268 643H237L245 679H266Q306 679 334 708T362 776Q362 804 345 821T295 838Q232 838 190 774L159 788Q209 874 298 874Q343
874 372 848T401 778Q401 740 379 709T318 664Q381 648 381 570Q381 509 337 471T229 433Q126 433 100 526L135 538Z" />
<glyph unicode="&#xb4;" glyph-name="acute" horiz-adv-x="311" d="M199 576H162L340 732H395L199 576Z" />
<glyph unicode="&#xb5;" glyph-name="uni00B5" horiz-adv-x="532" d="M387 0L402 88Q375 41 334 15T246 -12Q155 -12 125 50L85 -181L44 -200L169 511H205L150 191Q144 157 144 132Q144 67 173 44T250 21Q312 21 359 67T424 214L475 511H512L422 0H387Z" />
<glyph unicode="&#xb6;" glyph-name="paragraph" horiz-adv-x="578" d="M249 -174L331 295Q213 295 159 347T104 470Q104 508 117 544T158 612T236 663T353 683H579L443 -91L403 -109L536 647H431L290 -157L249 -174ZM338 331L394 647H349Q243 647 193 594T143
470Q143 411 189 371T338 331Z" />
<glyph unicode="&#xb7;" glyph-name="middot" horiz-adv-x="182" d="M134 320Q124 320 117 327T110 346Q111 359 121 369T146 380Q157 380 163 373T170 353Q169 339 159 330T134 320Z" />
<glyph unicode="&#xb8;" glyph-name="cedilla" horiz-adv-x="311" d="M45 -234Q0 -234 -21 -206L7 -188Q24 -205 49 -205Q83 -205 103 -185T124 -135Q124 -112 109 -98T69 -84Q47 -84 30 -92L22 -80L102 10H126L75 -59Q116 -59 137 -80T159 -131Q159 -173 127
-203T45 -234Z" />
<glyph unicode="&#xb9;" glyph-name="uni00B9" horiz-adv-x="176" d="M126 444L185 778H129L133 800Q169 801 186 816T214 866H239L165 444H126Z" />
<glyph unicode="&#xba;" glyph-name="ordmasculine" horiz-adv-x="445" d="M266 272Q203 272 167 317T130 441Q130 564 186 638T335 712Q399 712 435 667T472 543Q472 420 416 346T266 272ZM272 308Q344 308 388 372T433 543Q433 607 406 641T331 676Q257 676
213 613T169 441Q169 378 196 343T272 308Z" />
<glyph unicode="&#xbb;" glyph-name="guillemotright" horiz-adv-x="441" d="M21 0L218 256L110 511H152L260 256L63 0H21ZM201 0L398 256L290 511H332L440 256L243 0H201Z" />
<glyph unicode="&#xbc;" glyph-name="onequarter" horiz-adv-x="650" d="M1 -12L605 712H649L45 -12H1ZM112 283L171 617H115L119 639Q155 641 172 656T200 705H225L151 283H112ZM507 0L527 117H314L318 137L587 423H619L571 153H627L621 117H565L545 0H507ZM533
153L570 358L376 153H533Z" />
<glyph unicode="&#xbd;" glyph-name="onehalf" horiz-adv-x="700" d="M1 -12L605 712H649L45 -12H1ZM112 283L171 617H115L119 639Q155 641 172 656T200 705H225L151 283H112ZM443 331Q461 374 497 401T584 429Q633 429 664 401T696 325Q696 266 666 231T561 156Q508
128 480 101T437 40H645L638 0H384Q396 68 438 109T551 191Q610 224 633 251T657 321Q657 351 639 372T583 393Q511 393 475 317L443 331Z" />
<glyph unicode="&#xbe;" glyph-name="threequarters" horiz-adv-x="794" d="M207 271Q156 271 122 296T76 364L110 376Q124 341 146 324T207 307Q257 307 289 334T321 408Q321 441 302 461T247 481H216L223 517H244Q284 517 312 546T341 614Q341 642 324 659T274
676Q211 676 167 612L135 627Q159 667 196 689T275 712Q324 712 352 687T380 615Q380 577 359 547T297 501Q359 484 359 408Q359 347 314 309T207 271ZM144 -12L748 712H792L188 -12H144ZM651 0L671 117H458L462 137L731 423H763L715 153H771L765 117H709L689 0H651ZM677
153L714 358L520 153H677Z" />
<glyph unicode="&#xbf;" glyph-name="questiondown" horiz-adv-x="502" d="M343 463Q332 463 326 470T319 490Q320 504 330 513T355 523Q365 523 372 516T379 497Q378 484 368 474T343 463ZM216 -200Q136 -200 92 -157T48 -45Q48 4 71 43T128 112T197 169T261
237T299 322L305 356H343L337 322Q327 270 298 228T234 158T166 103T110 39T87 -44Q87 -97 121 -130T220 -164Q350 -164 407 -43L439 -58Q405 -126 347 -163T216 -200Z" />
<glyph unicode="&#xc0;" glyph-name="Agrave" horiz-adv-x="638" d="M425 735L283 891H338L462 735H425ZM58 0L413 700H439L552 0H515L482 197H198L98 0H58ZM212 227H478L432 528Q420 594 415 640Q412 632 364 528L212 227Z" />
<glyph unicode="&#xc1;" glyph-name="Aacute" horiz-adv-x="638" d="M437 736H400L578 892H633L437 736ZM58 0L413 700H439L552 0H515L482 197H198L98 0H58ZM212 227H478L432 528Q420 594 415 640Q412 632 364 528L212 227Z" />
<glyph unicode="&#xc2;" glyph-name="Acircumflex" horiz-adv-x="638" d="M563 735L454 855L303 735H264L443 891H475L598 735H563ZM58 0L413 700H439L552 0H515L482 197H198L98 0H58ZM212 227H478L432 528Q420 594 415 640Q412 632 364 528L212 227Z" />
<glyph unicode="&#xc3;" glyph-name="Atilde" horiz-adv-x="638" d="M527 761Q498 761 471 781T419 822T371 842Q323 842 306 765H278Q287 815 312 845T379 875Q408 875 435 855T487 814T535 794Q583 794 600 871H628Q619 821 594 791T527 761ZM58 0L413 700H439L552
0H515L482 197H198L98 0H58ZM212 227H478L432 528Q420 594 415 640Q412 632 364 528L212 227Z" />
<glyph unicode="&#xc4;" glyph-name="Adieresis" horiz-adv-x="638" d="M356 782Q346 782 339 789T332 808Q333 821 343 831T368 842Q379 842 385 835T392 815Q391 801 381 792T356 782ZM522 782Q512 782 505 789T498 808Q499 821 509 831T534 842Q545 842 551
835T558 815Q557 801 547 792T522 782ZM58 0L413 700H439L552 0H515L482 197H198L98 0H58ZM212 227H478L432 528Q420 594 415 640Q412 632 364 528L212 227Z" />
<glyph unicode="&#xc5;" glyph-name="Aring" horiz-adv-x="638" d="M449 638L552 0H515L482 197H198L98 0H58L382 639Q350 649 331 674T312 734Q312 788 349 823T441 859Q486 859 515 830T545 759Q545 714 518 681T449 638ZM346 734Q346 703 366 684T416 665Q456
665 483 691T511 759Q511 789 491 808T441 828Q402 828 374 802T346 734ZM212 227H478L432 528Q420 594 415 640Q412 632 364 528L212 227Z" />
<glyph unicode="&#xc6;" glyph-name="AE" horiz-adv-x="829" d="M-19 0L508 700H842L837 667H538L487 379H679L673 346H481L426 33H747L741 0H383L418 197H173L26 0H-19ZM195 227H423L493 627Q479 607 456 576L195 227Z" />
<glyph unicode="&#xc7;" glyph-name="Ccedilla" horiz-adv-x="620" d="M291 -234Q246 -234 225 -206L253 -188Q270 -205 295 -205Q329 -205 349 -185T370 -135Q370 -112 355 -98T315 -84Q293 -84 276 -92L268 -80L328 -12Q254 -12 205 28T135 129T115 266Q115
349 138 428T202 570T308 673T450 712Q525 712 564 682T629 599L595 581Q572 628 540 652T449 676Q359 676 291 615T189 461T155 267Q155 161 198 93T331 24Q394 24 442 54T519 131L553 116Q480 2 357 -10L321 -59Q362 -59 383 -80T405 -131Q405 -173 373 -203T291
-234Z" />
<glyph unicode="&#xc8;" glyph-name="Egrave" horiz-adv-x="562" d="M383 735L241 891H296L420 735H383ZM87 0L210 700H567L562 667H242L191 379H404L398 346H185L130 33H472L466 0H87Z" />
<glyph unicode="&#xc9;" glyph-name="Eacute" horiz-adv-x="562" d="M395 736H358L536 892H591L395 736ZM87 0L210 700H567L562 667H242L191 379H404L398 346H185L130 33H472L466 0H87Z" />
<glyph unicode="&#xca;" glyph-name="Ecircumflex" horiz-adv-x="562" d="M521 735L412 855L261 735H222L401 891H433L556 735H521ZM87 0L210 700H567L562 667H242L191 379H404L398 346H185L130 33H472L466 0H87Z" />
<glyph unicode="&#xcb;" glyph-name="Edieresis" horiz-adv-x="562" d="M314 782Q304 782 297 789T290 808Q291 821 301 831T326 842Q337 842 343 835T350 815Q349 801 339 792T314 782ZM480 782Q470 782 463 789T456 808Q457 821 467 831T492 842Q503 842 509
835T516 815Q515 801 505 792T480 782ZM87 0L210 700H567L562 667H242L191 379H404L398 346H185L130 33H472L466 0H87Z" />
<glyph unicode="&#xcc;" glyph-name="Igrave" horiz-adv-x="236" d="M227 735L85 891H140L264 735H227ZM87 0L210 700H247L124 0H87Z" />
<glyph unicode="&#xcd;" glyph-name="Iacute" horiz-adv-x="236" d="M239 736H202L380 892H435L239 736ZM87 0L210 700H247L124 0H87Z" />
<glyph unicode="&#xce;" glyph-name="Icircumflex" horiz-adv-x="236" d="M365 735L256 855L105 735H66L245 891H277L400 735H365ZM87 0L210 700H247L124 0H87Z" />
<glyph unicode="&#xcf;" glyph-name="Idieresis" horiz-adv-x="236" d="M158 782Q148 782 141 789T134 808Q135 821 145 831T170 842Q181 842 187 835T194 815Q193 801 183 792T158 782ZM324 782Q314 782 307 789T300 808Q301 821 311 831T336 842Q347 842 353
835T360 815Q359 801 349 792T324 782ZM87 0L210 700H247L124 0H87Z" />
<glyph unicode="&#xd0;" glyph-name="Eth" horiz-adv-x="645" d="M87 0L145 331H77L82 367H151L210 700H360Q429 700 480 677T561 614T603 526T617 422Q617 339 593 264T522 130T401 35T233 0H87ZM131 36H240Q394 36 485 146T576 422Q576 472 565 513T528 590T459
644T353 664H240L188 367H363L358 331H182L131 36Z" />
<glyph unicode="&#xd1;" glyph-name="Ntilde" horiz-adv-x="661" d="M537 761Q508 761 481 781T429 822T381 842Q333 842 316 765H288Q297 815 322 845T389 875Q418 875 445 855T497 814T545 794Q593 794 610 871H638Q629 821 604 791T537 761ZM86 0L209 700H244L468
175Q509 79 514 67Q517 87 523 123T533 175L625 700H662L539 0H504L280 523Q278 528 261 569T234 633Q231 613 225 576T215 523L123 0H86Z" />
<glyph unicode="&#xd2;" glyph-name="Ograve" horiz-adv-x="696" d="M447 735L305 891H360L484 735H447ZM333 -12Q258 -12 208 30T136 133T115 270Q115 329 127 389T166 508T231 611T326 684T452 712Q563 712 614 634T666 435Q666 359 647 283T589 140T484 30T333
-12ZM338 24Q398 24 448 50T530 118T585 215T618 325T628 436Q628 541 585 608T447 676Q387 676 337 650T254 582T198 486T164 376T154 266Q154 198 171 146T230 59T338 24Z" />
<glyph unicode="&#xd3;" glyph-name="Oacute" horiz-adv-x="696" d="M459 736H422L600 892H655L459 736ZM333 -12Q258 -12 208 30T136 133T115 270Q115 329 127 389T166 508T231 611T326 684T452 712Q563 712 614 634T666 435Q666 359 647 283T589 140T484 30T333
-12ZM338 24Q398 24 448 50T530 118T585 215T618 325T628 436Q628 541 585 608T447 676Q387 676 337 650T254 582T198 486T164 376T154 266Q154 198 171 146T230 59T338 24Z" />
<glyph unicode="&#xd4;" glyph-name="Ocircumflex" horiz-adv-x="696" d="M585 735L476 855L325 735H286L465 891H497L620 735H585ZM333 -12Q258 -12 208 30T136 133T115 270Q115 329 127 389T166 508T231 611T326 684T452 712Q563 712 614 634T666 435Q666 359
647 283T589 140T484 30T333 -12ZM338 24Q398 24 448 50T530 118T585 215T618 325T628 436Q628 541 585 608T447 676Q387 676 337 650T254 582T198 486T164 376T154 266Q154 198 171 146T230 59T338 24Z" />
<glyph unicode="&#xd5;" glyph-name="Otilde" horiz-adv-x="696" d="M549 761Q520 761 493 781T441 822T393 842Q345 842 328 765H300Q309 815 334 845T401 875Q430 875 457 855T509 814T557 794Q605 794 622 871H650Q641 821 616 791T549 761ZM333 -12Q258 -12
208 30T136 133T115 270Q115 329 127 389T166 508T231 611T326 684T452 712Q563 712 614 634T666 435Q666 359 647 283T589 140T484 30T333 -12ZM338 24Q398 24 448 50T530 118T585 215T618 325T628 436Q628 541 585 608T447 676Q387 676 337 650T254 582T198 486T164
376T154 266Q154 198 171 146T230 59T338 24Z" />
<glyph unicode="&#xd6;" glyph-name="Odieresis" horiz-adv-x="696" d="M378 782Q368 782 361 789T354 808Q355 821 365 831T390 842Q401 842 407 835T414 815Q413 801 403 792T378 782ZM544 782Q534 782 527 789T520 808Q521 821 531 831T556 842Q567 842 573
835T580 815Q579 801 569 792T544 782ZM333 -12Q258 -12 208 30T136 133T115 270Q115 329 127 389T166 508T231 611T326 684T452 712Q563 712 614 634T666 435Q666 359 647 283T589 140T484 30T333 -12ZM338 24Q398 24 448 50T530 118T585 215T618 325T628 436Q628
541 585 608T447 676Q387 676 337 650T254 582T198 486T164 376T154 266Q154 198 171 146T230 59T338 24Z" />
<glyph unicode="&#xd7;" glyph-name="multiply" horiz-adv-x="636" d="M368 316L179 127L154 151L344 341L154 531L179 555L368 366L557 555L582 531L392 341L582 151L557 127L368 316Z" />
<glyph unicode="&#xd8;" glyph-name="Oslash" horiz-adv-x="696" d="M67 -12L155 92Q115 165 115 270Q115 329 127 389T166 508T231 611T326 684T452 712Q557 712 613 636L677 712H719L630 607Q666 536 666 435Q666 359 647 283T589 140T484 30T333 -12Q231 -12
173 64L109 -12H67ZM180 123L587 605Q539 676 447 676Q387 676 337 650T254 582T198 486T164 376T154 266Q154 181 180 123ZM338 24Q398 24 448 50T530 118T585 215T618 325T628 436Q628 515 603 574L197 93Q244 24 338 24Z" />
<glyph unicode="&#xd9;" glyph-name="Ugrave" horiz-adv-x="638" d="M423 735L281 891H336L460 735H423ZM305 -12Q222 -12 172 35T121 179Q121 214 129 262L206 700H244L168 269Q160 226 160 185Q160 137 173 103T209 53T255 30T305 23Q487 23 527 251L605 700H642L564
249Q519 -12 305 -12Z" />
<glyph unicode="&#xda;" glyph-name="Uacute" horiz-adv-x="638" d="M435 736H398L576 892H631L435 736ZM305 -12Q222 -12 172 35T121 179Q121 214 129 262L206 700H244L168 269Q160 226 160 185Q160 137 173 103T209 53T255 30T305 23Q487 23 527 251L605 700H642L564
249Q519 -12 305 -12Z" />
<glyph unicode="&#xdb;" glyph-name="Ucircumflex" horiz-adv-x="638" d="M561 735L452 855L301 735H262L441 891H473L596 735H561ZM305 -12Q222 -12 172 35T121 179Q121 214 129 262L206 700H244L168 269Q160 226 160 185Q160 137 173 103T209 53T255 30T305
23Q487 23 527 251L605 700H642L564 249Q519 -12 305 -12Z" />
<glyph unicode="&#xdc;" glyph-name="Udieresis" horiz-adv-x="638" d="M354 782Q344 782 337 789T330 808Q331 821 341 831T366 842Q377 842 383 835T390 815Q389 801 379 792T354 782ZM520 782Q510 782 503 789T496 808Q497 821 507 831T532 842Q543 842 549
835T556 815Q555 801 545 792T520 782ZM305 -12Q222 -12 172 35T121 179Q121 214 129 262L206 700H244L168 269Q160 226 160 185Q160 137 173 103T209 53T255 30T305 23Q487 23 527 251L605 700H642L564 249Q519 -12 305 -12Z" />
<glyph unicode="&#xdd;" glyph-name="Yacute" horiz-adv-x="580" d="M407 736H370L548 892H603L407 736ZM255 0L304 277L154 700H191L326 315L594 700H635L340 277L291 0H255Z" />
<glyph unicode="&#xde;" glyph-name="Thorn" horiz-adv-x="579" d="M87 0L209 700H246L223 561H404Q502 561 547 511T593 387Q593 345 578 305T533 229T451 172T333 150H150L124 0H87ZM336 186Q409 186 460 218T531 295T552 387Q552 446 516 485T398 525H216L156
186H336Z" />
<glyph unicode="&#xdf;" glyph-name="germandbls" horiz-adv-x="542" d="M41 -194L161 486Q182 602 243 657T383 712Q453 712 493 672T534 566Q534 529 523 494T476 424T387 379Q449 368 479 326T510 228Q510 122 443 55T285 -12Q244 -12 222 -3L245 28Q261 24
286 24Q359 24 415 78T471 228Q471 286 434 324T317 363H313L319 396H323Q401 396 448 438T495 565Q495 617 466 646T383 676Q314 676 265 629T198 486L82 -176L41 -194Z" />
<glyph unicode="&#xe0;" glyph-name="agrave" horiz-adv-x="497" d="M334 575L192 731H247L371 575H334ZM371 0L384 75Q305 -12 211 -12Q149 -12 113 25T77 130Q77 214 135 265T277 317Q355 317 417 265L429 330Q436 373 436 394Q436 490 339 490Q269 490 178
439L171 471Q268 523 340 523Q472 523 472 395Q472 376 466 338L407 0H371ZM213 21Q304 21 392 122L412 233Q347 283 275 283Q210 283 164 241T118 130Q118 80 143 51T213 21Z" />
<glyph unicode="&#xe1;" glyph-name="aacute" horiz-adv-x="497" d="M346 576H309L487 732H542L346 576ZM371 0L384 75Q305 -12 211 -12Q149 -12 113 25T77 130Q77 214 135 265T277 317Q355 317 417 265L429 330Q436 373 436 394Q436 490 339 490Q269 490 178
439L171 471Q268 523 340 523Q472 523 472 395Q472 376 466 338L407 0H371ZM213 21Q304 21 392 122L412 233Q347 283 275 283Q210 283 164 241T118 130Q118 80 143 51T213 21Z" />
<glyph unicode="&#xe2;" glyph-name="acircumflex" horiz-adv-x="497" d="M472 575L363 695L212 575H173L352 731H384L507 575H472ZM371 0L384 75Q305 -12 211 -12Q149 -12 113 25T77 130Q77 214 135 265T277 317Q355 317 417 265L429 330Q436 373 436 394Q436
490 339 490Q269 490 178 439L171 471Q268 523 340 523Q472 523 472 395Q472 376 466 338L407 0H371ZM213 21Q304 21 392 122L412 233Q347 283 275 283Q210 283 164 241T118 130Q118 80 143 51T213 21Z" />
<glyph unicode="&#xe3;" glyph-name="atilde" horiz-adv-x="497" d="M436 601Q407 601 380 621T328 662T280 682Q232 682 215 605H187Q196 655 221 685T288 715Q317 715 344 695T396 654T444 634Q492 634 509 711H537Q528 661 503 631T436 601ZM371 0L384 75Q305
-12 211 -12Q149 -12 113 25T77 130Q77 214 135 265T277 317Q355 317 417 265L429 330Q436 373 436 394Q436 490 339 490Q269 490 178 439L171 471Q268 523 340 523Q472 523 472 395Q472 376 466 338L407 0H371ZM213 21Q304 21 392 122L412 233Q347 283 275 283Q210
283 164 241T118 130Q118 80 143 51T213 21Z" />
<glyph unicode="&#xe4;" glyph-name="adieresis" horiz-adv-x="497" d="M265 622Q255 622 248 629T241 648Q242 661 252 671T277 682Q288 682 294 675T301 655Q300 641 290 632T265 622ZM431 622Q421 622 414 629T407 648Q408 661 418 671T443 682Q454 682 460
675T467 655Q466 641 456 632T431 622ZM371 0L384 75Q305 -12 211 -12Q149 -12 113 25T77 130Q77 214 135 265T277 317Q355 317 417 265L429 330Q436 373 436 394Q436 490 339 490Q269 490 178 439L171 471Q268 523 340 523Q472 523 472 395Q472 376 466 338L407
0H371ZM213 21Q304 21 392 122L412 233Q347 283 275 283Q210 283 164 241T118 130Q118 80 143 51T213 21Z" />
<glyph unicode="&#xe5;" glyph-name="aring" horiz-adv-x="497" d="M343 574Q299 574 269 603T239 674Q239 728 276 763T368 799Q413 799 442 770T472 699Q472 645 435 610T343 574ZM343 605Q383 605 410 631T438 699Q438 729 418 748T368 768Q329 768 301 742T273
674Q273 643 293 624T343 605ZM371 0L384 75Q305 -12 211 -12Q149 -12 113 25T77 130Q77 214 135 265T277 317Q355 317 417 265L429 330Q436 373 436 394Q436 490 339 490Q269 490 178 439L171 471Q268 523 340 523Q472 523 472 395Q472 376 466 338L407 0H371ZM213
21Q304 21 392 122L412 233Q347 283 275 283Q210 283 164 241T118 130Q118 80 143 51T213 21Z" />
<glyph unicode="&#xe6;" glyph-name="ae" horiz-adv-x="825" d="M215 -12Q147 -12 112 26T77 130Q77 216 137 266T277 317Q356 317 417 265L431 342Q436 367 436 394Q436 490 340 490Q272 490 178 439L171 471Q270 523 341 523Q462 523 471 412Q505 465 554 494T660
523Q729 523 771 481T813 350Q813 316 799 245H454Q451 218 451 191Q451 24 582 24Q642 24 704 69L723 41Q653 -12 573 -12Q447 -12 419 118Q324 -12 215 -12ZM459 278H768Q775 323 775 350Q775 425 741 457T661 490Q578 490 528 430T459 278ZM216 21Q321 21 414
151Q412 175 412 196Q412 218 414 232Q347 283 275 283Q215 283 167 243T118 130Q118 81 143 51T216 21Z" />
<glyph unicode="&#xe7;" glyph-name="ccedilla" horiz-adv-x="453" d="M196 -234Q151 -234 130 -206L158 -188Q175 -205 200 -205Q234 -205 254 -185T275 -135Q275 -112 260 -98T220 -84Q198 -84 181 -92L173 -80L233 -12Q165 -8 126 44T87 189Q87 332 151 427T318
523Q376 523 411 491T451 415L417 402Q410 442 384 464T317 487Q232 487 179 402T126 189Q126 111 156 68T243 24Q284 24 318 49T373 119L407 105Q357 -1 261 -11L226 -59Q267 -59 288 -80T310 -131Q310 -173 278 -203T196 -234Z" />
<glyph unicode="&#xe8;" glyph-name="egrave" horiz-adv-x="501" d="M338 575L196 731H251L375 575H338ZM248 -12Q170 -12 129 40T87 191Q87 339 158 431T335 523Q404 523 446 481T488 350Q488 311 474 245H129Q126 218 126 191Q126 24 257 24Q318 24 379 69L398
41Q328 -12 248 -12ZM134 278H443Q450 324 450 350Q450 425 416 457T336 490Q253 490 203 430T134 278Z" />
<glyph unicode="&#xe9;" glyph-name="eacute" horiz-adv-x="501" d="M350 576H313L491 732H546L350 576ZM248 -12Q170 -12 129 40T87 191Q87 339 158 431T335 523Q404 523 446 481T488 350Q488 311 474 245H129Q126 218 126 191Q126 24 257 24Q318 24 379 69L398
41Q328 -12 248 -12ZM134 278H443Q450 324 450 350Q450 425 416 457T336 490Q253 490 203 430T134 278Z" />
<glyph unicode="&#xea;" glyph-name="ecircumflex" horiz-adv-x="501" d="M476 575L367 695L216 575H177L356 731H388L511 575H476ZM248 -12Q170 -12 129 40T87 191Q87 339 158 431T335 523Q404 523 446 481T488 350Q488 311 474 245H129Q126 218 126 191Q126
24 257 24Q318 24 379 69L398 41Q328 -12 248 -12ZM134 278H443Q450 324 450 350Q450 425 416 457T336 490Q253 490 203 430T134 278Z" />
<glyph unicode="&#xeb;" glyph-name="edieresis" horiz-adv-x="501" d="M269 622Q259 622 252 629T245 648Q246 661 256 671T281 682Q292 682 298 675T305 655Q304 641 294 632T269 622ZM435 622Q425 622 418 629T411 648Q412 661 422 671T447 682Q458 682 464
675T471 655Q470 641 460 632T435 622ZM248 -12Q170 -12 129 40T87 191Q87 339 158 431T335 523Q404 523 446 481T488 350Q488 311 474 245H129Q126 218 126 191Q126 24 257 24Q318 24 379 69L398 41Q328 -12 248 -12ZM134 278H443Q450 324 450 350Q450 425 416
457T336 490Q253 490 203 430T134 278Z" />
<glyph unicode="&#xec;" glyph-name="igrave" horiz-adv-x="228" d="M198 575L56 731H111L235 575H198ZM86 0L176 511H211L122 0H86Z" />
<glyph unicode="&#xed;" glyph-name="iacute" horiz-adv-x="228" d="M210 576H173L351 732H406L210 576ZM86 0L176 511H211L122 0H86Z" />
<glyph unicode="&#xee;" glyph-name="icircumflex" horiz-adv-x="228" d="M336 575L227 695L76 575H37L216 731H248L371 575H336ZM86 0L176 511H211L122 0H86Z" />
<glyph unicode="&#xef;" glyph-name="idieresis" horiz-adv-x="228" d="M129 622Q119 622 112 629T105 648Q106 661 116 671T141 682Q152 682 158 675T165 655Q164 641 154 632T129 622ZM295 622Q285 622 278 629T271 648Q272 661 282 671T307 682Q318 682 324
675T331 655Q330 641 320 632T295 622ZM86 0L176 511H211L122 0H86Z" />
<glyph unicode="&#xf0;" glyph-name="eth" horiz-adv-x="520" d="M258 -12Q181 -12 137 44T92 187Q92 303 160 379T325 456Q387 456 422 424T468 345Q468 533 376 615L292 537L273 559L352 633Q301 667 225 680L231 712Q315 698 378 657L452 727L471 705L401 639Q500
550 500 352Q500 178 435 83T258 -12ZM264 24Q345 24 396 90T448 251Q448 325 413 372T316 420Q240 420 186 354T131 189Q131 116 166 70T264 24Z" />
<glyph unicode="&#xf1;" glyph-name="ntilde" horiz-adv-x="532" d="M453 601Q424 601 397 621T345 662T297 682Q249 682 232 605H204Q213 655 238 685T305 715Q334 715 361 695T413 654T461 634Q509 634 526 711H554Q545 661 520 631T453 601ZM84 0L174 511H209L193
419Q221 472 265 497T355 523Q419 523 453 487T488 382Q488 346 481 305L427 0H391L444 305Q451 345 451 382Q451 489 348 489Q284 489 237 444T172 297L121 0H84Z" />
<glyph unicode="&#xf2;" glyph-name="ograve" horiz-adv-x="520" d="M340 575L198 731H253L377 575H340ZM253 -12Q177 -12 135 40T92 193Q92 345 159 434T337 523Q414 523 457 470T500 321Q500 169 434 79T253 -12ZM259 24Q352 24 406 104T461 315Q461 397 428
442T334 487Q238 487 185 405T131 192Q131 112 163 68T259 24Z" />
<glyph unicode="&#xf3;" glyph-name="oacute" horiz-adv-x="520" d="M352 576H315L493 732H548L352 576ZM253 -12Q177 -12 135 40T92 193Q92 345 159 434T337 523Q414 523 457 470T500 321Q500 169 434 79T253 -12ZM259 24Q352 24 406 104T461 315Q461 397 428
442T334 487Q238 487 185 405T131 192Q131 112 163 68T259 24Z" />
<glyph unicode="&#xf4;" glyph-name="ocircumflex" horiz-adv-x="520" d="M478 575L369 695L218 575H179L358 731H390L513 575H478ZM253 -12Q177 -12 135 40T92 193Q92 345 159 434T337 523Q414 523 457 470T500 321Q500 169 434 79T253 -12ZM259 24Q352 24 406
104T461 315Q461 397 428 442T334 487Q238 487 185 405T131 192Q131 112 163 68T259 24Z" />
<glyph unicode="&#xf5;" glyph-name="otilde" horiz-adv-x="520" d="M442 601Q413 601 386 621T334 662T286 682Q238 682 221 605H193Q202 655 227 685T294 715Q323 715 350 695T402 654T450 634Q498 634 515 711H543Q534 661 509 631T442 601ZM253 -12Q177 -12
135 40T92 193Q92 345 159 434T337 523Q414 523 457 470T500 321Q500 169 434 79T253 -12ZM259 24Q352 24 406 104T461 315Q461 397 428 442T334 487Q238 487 185 405T131 192Q131 112 163 68T259 24Z" />
<glyph unicode="&#xf6;" glyph-name="odieresis" horiz-adv-x="520" d="M271 622Q261 622 254 629T247 648Q248 661 258 671T283 682Q294 682 300 675T307 655Q306 641 296 632T271 622ZM437 622Q427 622 420 629T413 648Q414 661 424 671T449 682Q460 682 466
675T473 655Q472 641 462 632T437 622ZM253 -12Q177 -12 135 40T92 193Q92 345 159 434T337 523Q414 523 457 470T500 321Q500 169 434 79T253 -12ZM259 24Q352 24 406 104T461 315Q461 397 428 442T334 487Q238 487 185 405T131 192Q131 112 163 68T259 24Z" />
<glyph unicode="&#xf7;" glyph-name="divide" horiz-adv-x="636" d="M365 520Q353 520 345 528T336 549Q336 562 344 571T365 580Q378 580 386 571T394 549Q394 537 386 529T365 520ZM133 325V359H603V325H133ZM365 105Q353 105 345 113T336 134Q336 147 344 156T365
165Q378 165 386 156T394 134Q394 122 386 114T365 105Z" />
<glyph unicode="&#xf8;" glyph-name="oslash" horiz-adv-x="520" d="M41 -12L114 72Q92 122 92 193Q92 345 159 434T337 523Q414 523 458 467L507 523H550L476 438Q500 392 500 321Q500 169 434 79T253 -12Q174 -12 132 43L84 -12H41ZM143 106L431 436Q399 487
334 487Q238 487 185 405T131 192Q131 142 143 106ZM259 24Q352 24 406 104T461 315Q461 366 447 405L159 74Q191 24 259 24Z" />
<glyph unicode="&#xf9;" glyph-name="ugrave" horiz-adv-x="532" d="M341 575L199 731H254L378 575H341ZM387 0L402 88Q344 -12 244 -12Q177 -12 142 24T107 129Q107 155 114 199L169 511H205L150 191Q144 158 144 129Q144 21 250 21Q312 21 359 67T424 214L475
511H512L422 0H387Z" />
<glyph unicode="&#xfa;" glyph-name="uacute" horiz-adv-x="532" d="M353 576H316L494 732H549L353 576ZM387 0L402 88Q344 -12 244 -12Q177 -12 142 24T107 129Q107 155 114 199L169 511H205L150 191Q144 158 144 129Q144 21 250 21Q312 21 359 67T424 214L475
511H512L422 0H387Z" />
<glyph unicode="&#xfb;" glyph-name="ucircumflex" horiz-adv-x="532" d="M479 575L370 695L219 575H180L359 731H391L514 575H479ZM387 0L402 88Q344 -12 244 -12Q177 -12 142 24T107 129Q107 155 114 199L169 511H205L150 191Q144 158 144 129Q144 21 250 21Q312
21 359 67T424 214L475 511H512L422 0H387Z" />
<glyph unicode="&#xfc;" glyph-name="udieresis" horiz-adv-x="532" d="M272 622Q262 622 255 629T248 648Q249 661 259 671T284 682Q295 682 301 675T308 655Q307 641 297 632T272 622ZM438 622Q428 622 421 629T414 648Q415 661 425 671T450 682Q461 682 467
675T474 655Q473 641 463 632T438 622ZM387 0L402 88Q344 -12 244 -12Q177 -12 142 24T107 129Q107 155 114 199L169 511H205L150 191Q144 158 144 129Q144 21 250 21Q312 21 359 67T424 214L475 511H512L422 0H387Z" />
<glyph unicode="&#xfd;" glyph-name="yacute" horiz-adv-x="485" d="M330 576H293L471 732H526L330 576ZM98 -194L209 14L119 511H154L216 161L234 57Q252 93 288 161L475 511H514L136 -194H98Z" />
<glyph unicode="&#xfe;" glyph-name="thorn" horiz-adv-x="538" d="M270 -12Q224 -12 188 14T136 85L89 -185L48 -203L207 704L247 722L197 436Q264 523 358 523Q430 523 472 467T514 319Q514 167 447 78T270 -12ZM270 24Q365 24 420 104T475 315Q475 395 443
441T350 487Q306 487 263 461T189 389L144 132Q159 81 192 53T270 24Z" />
<glyph unicode="&#xff;" glyph-name="ydieresis" horiz-adv-x="485" d="M249 622Q239 622 232 629T225 648Q226 661 236 671T261 682Q272 682 278 675T285 655Q284 641 274 632T249 622ZM415 622Q405 622 398 629T391 648Q392 661 402 671T427 682Q438 682 444
675T451 655Q450 641 440 632T415 622ZM98 -194L209 14L119 511H154L216 161L234 57Q252 93 288 161L475 511H514L136 -194H98Z" />
<glyph unicode="&#x2013;" glyph-name="endash" horiz-adv-x="501" d="M97 269L103 305H484L478 269H97Z" />
<glyph unicode="&#x2014;" glyph-name="emdash" horiz-adv-x="581" d="M35 269L41 305H626L620 269H35Z" />
<glyph unicode="&#x2018;" glyph-name="quoteleft" horiz-adv-x="182" d="M162 525Q134 525 134 560Q134 599 159 643T213 712L222 709Q202 687 186 650T168 585Q180 585 187 578T195 559Q195 544 186 535T162 525Z" />
<glyph unicode="&#x2019;" glyph-name="quoteright" horiz-adv-x="182" d="M141 525L132 528Q152 550 168 587T186 652Q174 652 167 659T159 678Q159 693 168 702T192 712Q220 712 220 677Q220 638 195 594T141 525Z" />
<glyph unicode="&#x201a;" glyph-name="quotesinglbase" horiz-adv-x="182" d="M48 -141L39 -138Q59 -116 76 -78T93 -14Q81 -14 74 -7T66 12Q66 27 75 36T99 46Q127 46 127 11Q127 -28 102 -72T48 -141Z" />
<glyph unicode="&#x201c;" glyph-name="quotedblleft" horiz-adv-x="358" d="M162 525Q134 525 134 560Q134 599 159 643T213 712L222 709Q202 687 186 650T168 585Q180 585 187 578T195 559Q195 544 186 535T162 525ZM338 525Q310 525 310 560Q310 599 335 643T389
712L398 709Q378 687 362 650T344 585Q356 585 363 578T371 559Q371 544 362 535T338 525Z" />
<glyph unicode="&#x201d;" glyph-name="quotedblright" horiz-adv-x="358" d="M141 525L132 528Q152 550 168 587T186 652Q174 652 167 659T159 678Q159 693 168 702T192 712Q220 712 220 677Q220 638 195 594T141 525ZM317 525L308 528Q328 550 344 587T362 652Q350
652 343 659T335 678Q335 693 344 702T368 712Q396 712 396 677Q396 638 371 594T317 525Z" />
<glyph unicode="&#x201e;" glyph-name="quotedblbase" horiz-adv-x="358" d="M46 -141L37 -138Q57 -116 73 -79T91 -14Q79 -14 72 -7T64 12Q64 27 73 36T97 46Q125 46 125 11Q125 -28 100 -72T46 -141ZM222 -141L213 -138Q233 -116 249 -79T267 -14Q255 -14 248
-7T240 12Q240 27 249 36T273 46Q301 46 301 11Q301 -28 276 -72T222 -141Z" />
<glyph unicode="&#x2022;" glyph-name="bullet" horiz-adv-x="392" d="M226 264Q194 264 173 285T152 338Q152 379 183 408T256 438Q289 438 310 417T331 364Q331 323 299 294T226 264Z" />
<glyph unicode="&#x2039;" glyph-name="guilsinglleft" horiz-adv-x="261" d="M180 0L73 256L269 511H311L115 256L222 0H180Z" />
<glyph unicode="&#x203a;" glyph-name="guilsinglright" horiz-adv-x="261" d="M21 0L218 256L110 511H152L260 256L63 0H21Z" />
</font>
</defs>
</svg>
