<?xml version="1.0" standalone="no"?>
<!DOCTYPE svg PUBLIC "-//W3C//DTD SVG 1.1//EN" "http://www.w3.org/Graphics/SVG/1.1/DTD/svg11.dtd">
<svg xmlns="http://www.w3.org/2000/svg">
<defs >
<font id="Sumana" horiz-adv-x="542" ><font-face
    font-family="Sumana"
    units-per-em="1000"
    panose-1="0 0 5 0 0 0 0 0 0 0"
    ascent="1922"
    descent="-1005"
    alphabetic="0" />
<glyph unicode=" " glyph-name="space" horiz-adv-x="269" />
<glyph unicode="!" glyph-name="exclam" horiz-adv-x="266" d="M165 722T181 698T195 642L155 224H110L70 642Q68 672 85 697T133 722Q165 722 181 698ZM159 119T177 98T196 48Q196 19 177 -1T132 -22Q107 -22 88 -2T69 48Q69 77 88 98T133 119Q159 119 177 98Z" />
<glyph unicode="&quot;" glyph-name="quotedbl" horiz-adv-x="346" d="M65 485L57 722H144L136 485H65ZM208 485L200 722H287L279 485H208Z" />
<glyph unicode="#" glyph-name="numbersign" horiz-adv-x="830" d="M801 535V527L785 463H619L570 244H737L718 172H554L510 -22H427L472 172H274L230 -22H147L192 172H26L45 244H209L261 463H92L111 535H278L322 722H399L356 535H558L602 722H679L636 535H801ZM290
244H489L540 463H339L290 244Z" />
<glyph unicode="$" glyph-name="dollar" horiz-adv-x="529" d="M356 709T403 674L399 716H449V498H412Q401 678 253 678Q194 678 163 643T131 560Q131 522 152 493T206 443T294 393Q359 359 398 333T464 267T492 170Q492 96 442 43T297 -16V-153H245L244 -16Q210
-15 172 -3T106 27L111 -13H57V198H92Q97 109 144 66T275 23Q333 23 370 58T408 148Q408 189 386 219T332 270T244 320Q181 353 143 379T77 445T50 542Q50 578 69 618T131 686T239 716V833H293L292 716Q356 709 403 674Z" />
<glyph unicode="%" glyph-name="percent" horiz-adv-x="870" d="M280 716T320 690T381 622T401 532Q401 481 376 436T309 363T217 335Q160 335 119 361T57 430T36 522Q36 571 58 616T122 688T223 716Q280 716 320 690ZM165 -17L123 18L687 716L732 676L165 -17ZM168
681T145 635T122 539Q122 477 144 426T220 375Q270 375 292 417T315 516Q315 579 292 630T218 681Q168 681 145 635ZM711 365T752 339T814 270T835 178Q835 130 813 85T749 12T650 -16Q592 -16 551 10T490 79T469 169Q469 220 494 265T561 337T654 365Q711 365
752 339ZM601 326T579 284T556 185Q556 124 580 72T655 20Q705 20 727 65T749 162Q749 224 727 275T651 326Q601 326 579 284Z" />
<glyph unicode="&amp;" glyph-name="ampersand" horiz-adv-x="695" d="M351 716T389 698T448 647T469 576Q469 518 431 470T305 377Q329 351 385 293Q428 248 490 190Q500 224 500 254Q500 294 483 323T424 354V387H599V346L516 350Q547 323 547 260Q547 210 527
157L547 139Q561 126 577 112Q620 73 653 53T703 33V0H610Q599 0 566 21T486 83Q409 -16 271 -16Q209 -16 156 4T69 69T36 180Q36 243 77 293T193 376Q153 427 135 469T117 559Q118 630 169 673T302 716Q351 716 389 698ZM255 684T228 653T201 567Q201 492 283
401Q337 437 365 482T393 573Q393 622 368 653T297 684Q255 684 228 653ZM176 321T156 278T136 195Q136 115 182 75T293 34Q395 34 454 111Q434 129 425 138L410 152Q395 167 327 234T219 347Q176 321 156 278Z" />
<glyph unicode="&apos;" glyph-name="quotesingle" horiz-adv-x="208" d="M66 485L57 722H151L142 485H66Z" />
<glyph unicode="(" glyph-name="parenleft" horiz-adv-x="305" d="M208 -230T155 -150T67 31T31 239Q31 346 66 450T155 636T263 768L295 738Q218 637 180 511T142 239Q142 96 179 -25T295 -249L263 -279Q208 -230 155 -150Z" />
<glyph unicode=")" glyph-name="parenright" horiz-adv-x="305" d="M98 719T151 639T239 458T275 250Q275 143 240 39T151 -147T43 -279L11 -249Q88 -148 126 -22T164 250Q164 393 127 514T11 738L43 768Q98 719 151 639Z" />
<glyph unicode="*" glyph-name="asterisk" horiz-adv-x="520" d="M302 722T302 663Q302 649 301 643Q293 567 282 520Q319 543 392 576Q416 588 439 588Q472 588 481 561Q484 552 484 545Q484 509 420 494Q411 492 371 485T298 475Q324 454 352 425T385 390Q414
359 414 330Q414 310 397 297Q384 289 374 289Q346 289 318 335Q273 418 260 449Q242 410 202 335Q176 289 146 289Q135 289 122 297Q106 310 106 329Q106 344 114 361T134 390Q134 390 151 407Q193 452 220 475Q188 477 98 494Q72 500 53 512T34 545Q34 552 37
561Q46 589 78 589Q98 589 126 576Q205 540 236 520Q224 569 217 643Q216 648 216 660Q216 686 226 704T260 722Q302 722 302 663Z" />
<glyph unicode="+" glyph-name="plus" horiz-adv-x="515" d="M480 345V289L290 288V82H225V288L35 287V347L225 346V543H290V346L480 345Z" />
<glyph unicode="," glyph-name="comma" horiz-adv-x="253" d="M156 107T176 79T197 10Q197 -33 174 -94T118 -186L83 -160Q102 -139 119 -95T133 -8Q124 -12 112 -12Q90 -12 76 3T61 43Q61 72 78 89T121 107Q156 107 176 79Z" />
<glyph unicode="-" glyph-name="hyphen" horiz-adv-x="489" d="M62 279V361H427V283L62 279Z" />
<glyph unicode="." glyph-name="period" horiz-adv-x="246" d="M149 119T167 98T186 48Q186 19 167 -1T122 -22Q97 -22 78 -2T59 48Q59 77 78 98T123 119Q149 119 167 98Z" />
<glyph unicode="/" glyph-name="slash" horiz-adv-x="690" d="M81 -279L14 -237L603 768L677 721L81 -279Z" />
<glyph unicode="0" glyph-name="zero" horiz-adv-x="621" d="M406 716T462 663T542 527T566 352Q566 262 540 178T456 39T311 -16Q172 -16 114 90T56 347Q56 438 83 522T169 661T315 716Q406 716 462 663ZM233 678T196 587T159 368Q159 234 194 129T317 23Q395
23 429 112T463 331Q463 475 429 576T313 678Q233 678 196 587Z" />
<glyph unicode="1" glyph-name="one" horiz-adv-x="364" d="M248 59T245 40L329 44V0H74V33Q123 35 142 63T161 147L160 619H158L38 542L18 571L213 716H247L248 109Q248 59 245 40Z" />
<glyph unicode="2" glyph-name="two" horiz-adv-x="537" d="M349 716T409 673T469 535Q469 482 423 416T273 266Q203 208 161 159T111 76L288 71Q310 70 348 70Q403 70 429 84T455 140H485L479 0H46Q46 57 66 102T117 181T203 268Q242 304 243 305Q307 366 336
419T366 522Q366 588 338 632T243 677Q202 677 170 657T127 606Q145 587 145 562Q145 545 133 530T98 515Q76 515 63 530T50 570Q50 601 74 635T146 692T259 716Q349 716 409 673Z" />
<glyph unicode="3" glyph-name="three" horiz-adv-x="557" d="M353 716T410 674T467 542Q467 490 428 446T303 375Q398 364 452 314T507 185Q507 120 473 75T381 7T255 -16Q187 -16 140 5T68 57T44 120Q44 144 57 159T93 175Q116 175 126 161T137 130Q137 114
126 90Q135 58 169 42T248 26Q320 26 362 65T404 178Q404 255 367 302T234 349Q224 349 190 347V392H231Q280 392 311 414T356 470T370 534Q370 601 343 639T251 677Q209 677 176 655T134 605Q150 588 150 564Q150 549 139 535T106 521Q85 521 73 535T61 572Q61
602 84 635T154 692T265 716Q353 716 410 674Z" />
<glyph unicode="4" glyph-name="four" d="M508 252V193H407V109Q407 58 403 38L480 41V0H229V33H236Q284 36 300 67T316 159V193H12V242L374 716H407V253L508 252ZM78 258L316 255V574H314L78 258Z" />
<glyph unicode="5" glyph-name="five" horiz-adv-x="544" d="M125 626V406Q153 418 191 426T270 434Q348 434 399 402T475 319T500 210Q500 139 467 88T377 10T254 -16Q194 -16 148 5T77 57T52 120Q52 144 65 159T101 175Q124 175 134 161T145 130Q145 113 134
91Q140 58 176 41T252 23Q323 23 359 72T396 192Q396 389 241 389Q213 389 173 379T109 354L81 380L79 700H338Q394 700 416 715T438 765H465L459 633L125 626Z" />
<glyph unicode="6" glyph-name="six" horiz-adv-x="578" d="M384 716T424 696T484 646T505 589Q505 567 494 553T462 537Q439 536 428 549T417 579Q417 600 429 621Q423 642 396 660T330 679Q230 679 192 575T150 353Q177 390 220 413T318 437Q393 437 440 404T508
320T529 213Q529 151 499 99T415 15T295 -16Q167 -16 112 72T56 329Q56 406 79 494T163 649T328 716Q384 716 424 696ZM251 392T209 359T151 282Q157 170 191 97T297 23Q363 23 395 71T428 191Q428 268 400 330T297 392Q251 392 209 359Z" />
<glyph unicode="7" glyph-name="seven" horiz-adv-x="461" d="M395 538T364 451T310 281T250 45Q234 -16 198 -16Q160 -16 160 28Q160 52 174 92T214 196L228 232L241 265Q292 393 324 472T395 631L131 630Q46 628 46 552H22V700H441V632Q395 538 364 451Z" />
<glyph unicode="8" glyph-name="eight" horiz-adv-x="562" d="M337 716T381 697T453 642T480 555Q480 499 443 455T345 380Q419 337 465 282T512 166Q512 77 445 31T276 -16Q224 -16 175 0T92 54T59 150Q59 261 211 355Q73 438 73 535Q73 595 103 635T183 696T285
716Q337 716 381 697ZM229 677T198 642T166 557Q166 504 206 463T310 400Q355 431 378 470T402 548Q402 610 371 643T285 677Q229 677 198 642ZM194 298T169 249T143 157Q143 97 181 61T281 24Q344 24 379 56T414 147Q414 267 249 337Q194 298 169 249Z" />
<glyph unicode="9" glyph-name="nine" horiz-adv-x="578" d="M415 716T467 622T519 359Q519 210 464 98T257 -16Q196 -16 155 2T95 49T75 107Q75 129 86 144T119 160Q141 161 152 147T164 117Q164 96 150 76Q157 52 182 37T252 22Q352 22 389 122T425 346Q398
309 355 286T257 262Q182 262 135 295T68 378T48 485Q48 550 77 602T160 685T284 716Q415 716 467 622ZM216 678T182 628T147 507Q147 430 175 369T278 307Q324 307 366 340T424 417Q418 529 385 603T277 678Q216 678 182 628Z" />
<glyph unicode=":" glyph-name="colon" horiz-adv-x="250" d="M152 119T170 98T189 48Q189 19 170 -1T125 -22Q100 -22 81 -2T62 48Q62 77 81 98T126 119Q152 119 170 98ZM152 522T170 501T189 451Q189 422 170 402T125 381Q100 381 81 401T62 451Q62 480 81 501T126
522Q152 522 170 501Z" />
<glyph unicode=";" glyph-name="semicolon" horiz-adv-x="263" d="M160 107T180 79T201 10Q201 -33 178 -94T122 -186L87 -160Q106 -139 123 -95T137 -8Q128 -12 116 -12Q94 -12 80 3T65 43Q65 72 82 89T125 107Q160 107 180 79ZM155 522T173 501T192 451Q192
422 173 402T128 381Q103 381 84 401T65 451Q65 480 84 501T129 522Q155 522 173 501Z" />
<glyph unicode="&lt;" glyph-name="less" d="M102 316L479 149V85L34 279V346L479 544V482L102 316Z" />
<glyph unicode="=" glyph-name="equal" horiz-adv-x="592" d="M519 377L73 375V437L519 435V377ZM519 189L73 187V249L519 247V189Z" />
<glyph unicode="&gt;" glyph-name="greater" horiz-adv-x="541" d="M440 313L63 480V544L508 350V283L63 85V147L440 313Z" />
<glyph unicode="?" glyph-name="question" horiz-adv-x="474" d="M307 722T353 698T421 634T442 551Q442 510 421 474T370 412T295 351Q255 321 237 303T218 267Q218 255 226 248T255 240Q280 240 295 249L310 203Q295 193 271 188T226 182Q192 182 167 200T141
255Q141 284 161 308T223 368Q259 399 282 423T321 479T337 551Q337 671 220 671Q182 671 152 651T115 607Q127 588 127 567Q127 550 114 534T78 518Q54 518 41 535T28 577Q28 609 54 643T127 699T235 722Q307 722 353 698ZM256 108T273 89T291 43Q291 16 274 -3T232
-22Q209 -22 191 -4T173 43Q173 69 191 88T232 108Q256 108 273 89Z" />
<glyph unicode="@" glyph-name="at" horiz-adv-x="796" d="M527 637T602 591T715 472T754 318Q754 229 723 172T648 90T563 64Q556 64 544 66Q503 73 486 98T469 161Q469 187 479 243H477Q444 141 406 106T325 70Q279 70 249 105T219 209Q219 284 246 346T327
445T454 482Q514 482 562 469L552 386Q536 270 532 214Q531 203 531 182Q531 108 568 100Q572 99 580 99Q606 99 628 120T665 180T682 270Q683 277 683 292Q683 445 611 520T421 595Q401 595 390 594Q310 588 251 542T159 422T127 263Q127 156 169 86T280 -18T430
-52Q575 -52 654 41L678 16Q629 -40 560 -67T407 -95Q292 -95 212 -48T91 80T50 257Q50 349 91 436T217 580T423 637Q527 637 602 591ZM385 452T353 417T305 328T289 218Q289 167 303 138T342 108Q376 108 411 161T468 294T491 443Q467 452 429 452Q385 452 353
417Z" />
<glyph unicode="A" glyph-name="A" horiz-adv-x="626" d="M645 0H402V37H405Q462 37 462 82Q462 98 451 129L417 220L166 214H169Q157 181 135 110Q126 80 111 44L188 48V0H-13V37H-10Q13 36 27 46T51 75T73 130Q74 134 84 161L291 721H327L551 153Q578 81 577
44L645 48V0ZM331 449L292 557L256 459Q221 363 186 261H401L331 449Z" />
<glyph unicode="B" glyph-name="B" horiz-adv-x="622" d="M476 374T533 325T590 198Q590 138 559 93T472 24T347 0H48V37H51Q81 37 95 48T113 78T117 132V163V579Q117 629 120 656L48 652V700H51Q199 702 281 702Q401 702 467 660T533 533Q533 480 492 436T371
376Q476 374 533 325ZM284 387Q359 388 393 428T428 531Q428 605 387 633T286 662Q256 662 242 654T223 626T218 567V385L284 387ZM391 42T435 80T479 192Q479 277 435 311T314 345Q261 345 215 342H218V120Q218 69 215 44H212Q231 42 282 42H314Q391 42 435 80Z"
/>
<glyph unicode="C" glyph-name="C" horiz-adv-x="699" d="M617 50T541 18T386 -15Q285 -15 206 32T83 161T39 339Q39 435 79 521T199 661T393 715Q499 715 587 662L583 708H651V472H601Q591 566 538 618T400 670Q331 670 274 631T184 520T151 351Q151 260 186
190T280 80T412 41Q479 41 539 71T640 158L675 133Q617 50 541 18Z" />
<glyph unicode="D" glyph-name="D" horiz-adv-x="745" d="M415 702T508 663T654 545T706 347Q706 254 662 175T529 48T318 0H48V37H51Q85 37 99 51T115 86T117 158V586Q117 626 120 656L48 652V700L291 701Q415 702 508 663ZM397 42T460 82T559 192T594 351Q594
498 516 579T280 660Q252 660 239 650T222 622T218 572V542V120Q218 70 215 44H212Q246 42 315 42Q397 42 460 82Z" />
<glyph unicode="E" glyph-name="E" horiz-adv-x="622" d="M578 0H48V37H51Q85 37 99 51T115 86T117 158V586Q117 626 120 656L48 652V700H543L548 521H501Q502 604 469 633T373 661L287 659Q254 658 240 646T222 612T218 542V386L392 385L385 471H443V257H396Q396
295 389 314T365 339T316 346L284 345L218 342V117Q218 67 215 41L399 44Q467 45 502 79T536 199H584L578 0Z" />
<glyph unicode="F" glyph-name="F" horiz-adv-x="548" d="M484 521Q485 604 451 633T353 661L280 659Q248 658 235 644T220 609T218 538V370L378 369L371 456H429V241H383Q383 279 376 298T352 324T306 331Q284 331 271 330L218 327V121Q218 71 215 44L317 48V0H48V37H51Q85
37 99 51T115 86T117 158V586Q117 626 120 656L48 652V700H526L531 521H484Z" />
<glyph unicode="G" glyph-name="G" horiz-adv-x="761" d="M747 306H744Q698 308 687 273T675 192V37H641Q602 37 536 11Q506 -1 464 -8T387 -15Q285 -15 207 28T84 150T40 335Q40 431 80 518T201 660T395 715Q446 715 500 702T595 666L591 708H660V475H610Q604
568 547 619T402 671Q334 671 277 631T186 520T152 358Q152 266 185 193T278 78T413 37Q454 37 497 49T578 85H577V299L507 295V343H747V306Z" />
<glyph unicode="H" glyph-name="H" horiz-adv-x="780" d="M694 663T679 649T662 614T660 542V121Q660 70 657 44L729 48V0H496V37Q531 37 546 51T563 86T565 158V336L215 332V121Q215 70 212 44L284 48V0H51V37Q86 37 101 51T118 86T120 158V586Q120 626 123 656L51
652V700H284V663Q249 663 234 649T217 614T215 542V380H565V586Q565 626 568 656L496 652V700H729V663Q694 663 679 649Z" />
<glyph unicode="I" glyph-name="I" horiz-adv-x="335" d="M250 663T236 649T220 614T218 542V121Q218 71 215 44L287 48V0H48V37H51Q85 37 99 51T115 86T117 158V586Q117 626 120 656L48 652V700H287V663H284Q250 663 236 649Z" />
<glyph unicode="J" glyph-name="J" horiz-adv-x="373" d="M347 663Q303 664 288 640T273 566V247Q273 107 234 46T104 -15Q58 -15 25 5T-9 58Q-9 80 4 96T45 112Q69 112 80 98T92 66Q92 55 88 44Q93 36 102 33T120 30Q147 31 159 56T172 142V656L70 652V700H350V663H347Z" />
<glyph unicode="K" glyph-name="K" horiz-adv-x="683" d="M685 0H556Q526 0 449 99L329 259Q303 293 287 311T257 339L218 338V121Q218 113 218 94T217 65T212 44L287 48V0H48V37H51Q85 37 99 51T115 86T117 158V586Q117 626 120 656L48 652V700H287V663H284Q250
663 236 649T220 614T218 542V382H281L405 576Q439 628 473 657L414 655V700H643V663Q595 660 564 650T504 611T440 529L342 376Q368 360 384 342T425 292L537 145Q575 95 598 72T639 43T682 37H685V0Z" />
<glyph unicode="L" glyph-name="L" horiz-adv-x="578" d="M558 0H48V37H51Q85 37 99 51T115 86T117 158V586Q117 626 120 656L48 652V700H287V663H284Q250 663 236 649T220 614T218 542V117Q218 67 215 41L395 44Q457 45 486 84T516 211H564L558 0Z" />
<glyph unicode="M" glyph-name="M" horiz-adv-x="918" d="M891 0H653V37H656Q693 37 706 57T720 124Q720 143 719 154L695 550L693 545L468 -4H426L351 163Q295 284 256 372T182 552V543Q182 528 181 519Q173 253 171 127Q171 113 170 106Q170 73 167 44L242 48V0H37V37H40Q80
36 92 58T106 127L128 656L56 653V700H222L467 144Q499 220 512 255Q540 327 598 460Q667 620 698 700H859V663H856Q822 665 806 646T789 577L790 556L816 105Q818 83 818 45L891 48V0Z" />
<glyph unicode="N" glyph-name="N" horiz-adv-x="762" d="M726 663H723Q682 662 671 643T659 579V542L657 -16H597L174 548L177 141Q177 76 175 44L247 48V0H50V37H53Q91 36 103 58T116 114L117 656L50 652V700H181L596 149L597 586Q597 626 600 656L528 652V700H726V663Z"
/>
<glyph unicode="O" glyph-name="O" horiz-adv-x="794" d="M512 716T594 661T716 522T757 350Q757 263 717 179T597 39T402 -16Q279 -16 198 37T78 174T39 350Q39 438 79 522T199 661T394 716Q512 716 594 661ZM315 672T261 628T179 514T151 368Q151 289 179 211T265
81T404 29Q479 29 533 72T615 185T643 331Q643 415 613 493T525 622T391 672Q315 672 261 628Z" />
<glyph unicode="P" glyph-name="P" horiz-adv-x="606" d="M218 71T215 44L307 49V0H48V37H51Q85 37 99 51T115 86T117 158V586Q117 626 120 656L48 652V700Q196 702 278 702Q429 702 508 649T587 495Q587 436 556 384T449 296T247 261Q229 261 218 262V121Q218
71 215 44ZM239 659T229 639T218 574V542V307H215Q238 304 276 304Q332 304 377 325T449 388T476 487Q476 659 276 659Q239 659 229 639Z" />
<glyph unicode="Q" glyph-name="Q" horiz-adv-x="796" d="M648 -86Q699 -133 720 -150T757 -175T793 -183V-220H754Q710 -220 686 -218T636 -203T580 -163Q548 -134 504 -88Q468 -50 448 -34T402 -16H393H392V-16Q272 -14 193 40T77 176T39 350Q39 438 79 522T199
661T394 716Q512 716 594 661T716 522T757 350Q757 277 728 204T641 74T498 -4Q533 -6 562 -20T631 -70L648 -86ZM151 289T179 211T265 81T404 29Q479 29 533 72T615 185T643 331Q643 415 613 493T525 622T391 672Q315 672 261 628T179 514T151 368Q151 289 179
211Z" />
<glyph unicode="R" glyph-name="R" horiz-adv-x="628" d="M535 94T549 76T584 47T635 37V0H498Q470 24 452 48T407 112L340 217Q338 221 335 226T327 239Q324 243 308 268T275 311Q267 310 251 310Q229 310 218 311V121Q218 71 215 44L287 48V0H48V37H51Q85 37
99 51T115 86T117 158V586Q117 626 120 656L48 652V700H51Q155 702 211 702Q260 702 284 701Q563 697 563 520Q564 452 522 398T375 321H377Q395 307 408 289T444 236L512 131Q535 94 549 76ZM350 352T401 387T452 509Q452 586 411 622T280 659Q252 659 239 649T222
622T218 572V542V354H215Q245 352 256 352Q350 352 401 387Z" />
<glyph unicode="S" glyph-name="S" horiz-adv-x="567" d="M149 516T171 488T227 442T319 398Q388 368 429 344T500 279T530 178Q530 123 502 80T419 11T289 -14Q246 -14 200 -3T119 29L123 -6H57L51 211H104Q108 124 160 78T293 32Q352 32 391 64T430 155Q430
197 407 226T350 275T257 321Q191 350 150 374T81 437T53 536Q53 576 72 616T138 685T263 714Q304 714 348 704T429 671L426 706H491V482H441Q437 562 393 616T270 670Q213 670 181 638T149 555Q149 516 171 488Z" />
<glyph unicode="T" glyph-name="T" horiz-adv-x="640" d="M572 485Q571 549 561 586T524 642T449 660H371L370 121Q370 71 367 44L450 48V0H201V37H204Q245 38 257 59T269 126V158L270 659L174 658Q116 658 91 617T66 485H15L21 700H618L624 485H572Z" />
<glyph unicode="U" glyph-name="U" horiz-adv-x="752" d="M729 663H726Q692 663 678 649T661 614T659 542L657 315Q656 170 591 78T381 -15Q272 -15 209 23T119 139T92 344V542Q92 602 96 656L24 653V700H262V663H259Q217 664 206 642T194 586V339Q194 204 235
125T394 46Q494 46 543 116T594 310L597 586Q597 626 600 656L529 652V700H729V663Z" />
<glyph unicode="V" glyph-name="V" horiz-adv-x="653" d="M678 663H675Q631 661 609 642T568 566Q551 523 356 -9H316L89 519Q52 603 45 654L-11 652V700H235V662Q200 660 185 648T169 613Q169 591 183 557Q206 500 209 494Q250 389 278 326Q328 216 354 151Q366
191 398 276Q404 293 410 311T425 349L509 585Q526 631 537 656L461 652V700H678V663Z" />
<glyph unicode="W" glyph-name="W" horiz-adv-x="995" d="M1017 663Q980 659 962 649T930 611T893 516L845 374Q766 134 712 -12H670L489 503L319 -12H278L98 519L84 560Q60 635 56 654L0 652V700H257V663H254Q214 661 198 651T181 616Q181 596 192 557Q210 486
245 392L268 326Q274 304 284 277T299 234Q317 186 320 176Q328 205 355 290Q402 438 433 528Q480 669 489 702H533Q549 644 628 415L658 326Q669 289 687 236L711 162Q727 218 746 275Q786 387 833 534Q840 561 849 585Q853 594 861 616T879 655L800 652V700H1017V663Z"
/>
<glyph unicode="X" glyph-name="X" horiz-adv-x="649" d="M663 0H404V37H407Q464 34 464 65Q464 85 447 107L411 154Q359 221 307 291Q259 224 213 154Q210 149 187 114T133 44L215 48V0H5V36H7Q37 42 58 57T97 93T143 156L272 339L198 442Q114 558 93 590T58
654L2 652V700H275V663L224 661Q183 660 183 636Q183 619 207 583Q250 514 324 414L415 543Q477 631 501 656L419 652V700H630V663H627Q586 659 551 624T472 525L360 368Q430 272 519 159L535 138L603 46L663 48V0Z" />
<glyph unicode="Y" glyph-name="Y" horiz-adv-x="634" d="M651 663H648Q602 662 572 634T503 535L378 300L376 124Q377 74 374 44L457 48V0H208V37H211Q252 38 264 59T276 126V158L277 270L104 542Q58 615 50 654L-13 652V700H259V663H256Q180 664 180 621Q180
596 205 557Q284 431 341 349Q346 359 418 494L465 582Q467 586 480 610T511 655L433 652V700H651V663Z" />
<glyph unicode="Z" glyph-name="Z" horiz-adv-x="624" d="M570 0H43V48L83 104Q160 211 233 318T399 572Q435 629 461 659L214 655Q157 653 130 614T103 489H55L61 700H571V663L211 121Q172 64 146 41L380 45Q448 46 488 86T528 209H576L570 0Z" />
<glyph unicode="[" glyph-name="bracketleft" horiz-adv-x="359" d="M160 686L155 -186L352 -189V-261H74L75 761H350V689L160 686Z" />
<glyph unicode="\" glyph-name="backslash" horiz-adv-x="690" d="M610 -279L677 -237L88 768L14 721L610 -279Z" />
<glyph unicode="]" glyph-name="bracketright" horiz-adv-x="359" d="M199 -186L204 686L7 689V761H285L284 -261H9V-189L199 -186Z" />
<glyph unicode="^" glyph-name="asciicircum" horiz-adv-x="823" d="M675 437L409 681L142 441H60L368 716H457L763 437H675Z" />
<glyph unicode="_" glyph-name="underscore" horiz-adv-x="729" d="M677 -117H52V-44L677 -48V-117Z" />
<glyph unicode="`" glyph-name="grave" horiz-adv-x="252" d="M70 765T82 765Q104 765 123 738L207 603L179 580L67 686Q46 708 46 729Q46 745 58 757Q70 765 82 765Z" />
<glyph unicode="a" glyph-name="a" horiz-adv-x="481" d="M309 476T354 432T399 301L398 103Q398 81 395 49L460 52V0H323Q319 21 315 50Q248 -15 173 -15Q105 -15 68 17T30 101Q30 156 73 193T181 249T313 268V310Q313 369 296 401T224 433Q198 433 173 421T135
388Q142 381 144 374T146 354Q146 338 135 323T101 308Q82 308 70 323T58 360Q58 410 107 443T235 476Q309 476 354 432ZM237 219T176 193T115 116Q115 85 138 68T194 51Q230 51 257 63T313 102Q312 116 312 144Q312 149 312 166T313 223Q237 219 176 193Z" />
<glyph unicode="b" glyph-name="b" horiz-adv-x="543" d="M350 475T399 446T477 363T506 238Q506 162 472 103T381 12T260 -21Q225 -21 189 -9T124 32L105 -6H64L66 568Q66 600 67 621L3 618V668H4Q63 668 86 674T121 692H156V428Q182 451 216 463T290 475Q350
475 399 446ZM324 29T362 80T401 215Q401 309 366 364T263 419Q234 419 205 406T156 370V143Q156 79 184 54T260 29Q324 29 362 80Z" />
<glyph unicode="c" glyph-name="c" horiz-adv-x="503" d="M335 475T375 459T438 415T461 357Q461 335 447 319T410 303Q388 303 376 319T364 350Q364 372 377 388Q366 412 340 420T287 429Q223 429 183 380T142 242Q142 151 184 95T297 39Q339 39 378 61T440 118H441L474
95Q439 38 383 9T271 -21Q207 -21 154 8T69 91T37 219Q37 283 69 342T158 438T285 475Q335 475 375 459Z" />
<glyph unicode="d" glyph-name="d" horiz-adv-x="561" d="M536 -6H394Q388 25 387 35Q359 9 322 -6T243 -21Q185 -21 138 8T64 91T37 215Q37 289 68 348T156 441T281 475Q307 475 335 469T384 452V568Q384 600 386 621L322 618V668H323Q382 668 404 674T439 692H474V96Q474
73 471 41L536 44V-6ZM383 107T383 140L384 398Q344 428 286 428Q222 428 183 376T143 237Q143 146 177 91T276 36Q305 36 334 51T384 92Q383 107 383 140Z" />
<glyph unicode="e" glyph-name="e" horiz-adv-x="512" d="M442 35T383 7T269 -21Q204 -21 152 9T69 96T38 226Q38 291 68 348T153 440T276 475Q331 475 375 451T444 379T469 262H468L142 257H143Q144 152 180 95T291 38Q335 38 379 60T446 114H448L478 90Q442
35 383 7ZM224 428T192 399T147 307H372Q371 358 348 393T277 428Q224 428 192 399Z" />
<glyph unicode="f" glyph-name="f" horiz-adv-x="315" d="M307 697T341 678T375 624Q375 604 363 591T330 577Q309 577 298 591T287 620Q287 634 291 642Q278 652 257 652Q220 652 205 623T189 550V461H314V413H313L188 410H189L190 96Q190 59 187 41L244 43V-6H45V33H46Q72
32 83 43T97 75T100 138L99 409L22 408V461H99V474Q99 581 139 639T270 697Q307 697 341 678Z" />
<glyph unicode="g" glyph-name="g" horiz-adv-x="514" d="M418 459T403 415Q426 393 439 365T453 305Q453 254 425 212T351 147T252 123Q235 123 220 126Q202 128 190 128Q161 128 142 117T123 88Q123 66 155 59T266 48Q382 42 441 10T500 -95Q500 -144 466 -179T379
-233T267 -252Q147 -252 89 -215T31 -124Q31 -88 53 -60T106 -16Q52 7 52 57Q52 88 74 115T133 153Q95 174 73 209T51 289Q51 343 80 385T155 451T252 475Q314 475 367 443Q382 481 413 505T481 530Q506 530 520 516T535 478Q535 464 524 450T493 435Q476 435 465
444T448 466Q418 459 403 415ZM303 168T327 200T352 286Q352 348 326 389T250 431Q203 431 177 398T150 309Q150 244 177 206T255 168Q303 168 327 200ZM114 -63T114 -113Q114 -155 155 -180T266 -205Q342 -205 386 -179T430 -114Q430 -70 387 -55T257 -36Q201
-34 163 -29Q114 -63 114 -113Z" />
<glyph unicode="h" glyph-name="h" horiz-adv-x="560" d="M535 -6H335V33H336Q363 32 374 43T388 74T390 138V265Q390 342 367 378T291 415Q259 415 226 400T174 362V96Q174 65 170 41L228 43V-6H28V33H29Q56 32 67 43T81 75T84 138V568Q84 600 86 621L21 618V668H22Q80
668 103 674T141 692H174V421Q206 445 245 460T321 475Q402 475 440 424T479 265L480 96Q480 59 477 41L535 43V-6Z" />
<glyph unicode="i" glyph-name="i" horiz-adv-x="271" d="M115 604T98 623T80 668Q80 695 98 714T139 733Q163 733 180 714T197 668Q197 642 179 623T138 604Q115 604 98 623ZM240 -6H41V33H42Q68 32 79 43T93 74T95 138V345Q95 368 98 399L34 395V445H35Q94 445
117 451T151 470H186V96Q186 59 183 41L240 43V-6Z" />
<glyph unicode="j" glyph-name="j" horiz-adv-x="242" d="M94 604T77 623T59 668Q59 695 77 714T118 733Q142 733 159 714T176 668Q176 642 158 623T117 604Q94 604 77 623ZM74 445T97 451T134 470H167V-3Q167 -127 117 -189T-14 -252Q-52 -252 -72 -236T-92 -195Q-92
-177 -79 -162T-45 -147Q-24 -147 -13 -161T-1 -191V-195H-2Q7 -199 17 -199Q36 -199 50 -185Q75 -161 75 -78L77 345Q77 377 79 399L14 395V445H15Q74 445 97 451Z" />
<glyph unicode="k" glyph-name="k" horiz-adv-x="501" d="M499 -6H410Q393 -6 377 6T342 39T307 82L273 129Q223 198 204 217L173 215V96Q173 59 171 41L230 43V-6H30V33H31Q58 32 69 43T82 74T84 138Q84 148 84 237T85 568Q85 600 87 621L22 618V668H23Q81 668
103 674T140 692H173V262H204L315 377Q334 397 354 414L305 412V461H485V421H484Q455 419 428 404T383 374T334 328L267 259Q282 252 292 242T320 212L386 129Q413 93 442 62T498 33H499V-6Z" />
<glyph unicode="l" glyph-name="l" horiz-adv-x="263" d="M231 -6H31V33H32Q59 32 70 43T84 74T86 138V568Q86 600 88 621L23 618V668H24Q82 668 105 674T143 692H176L177 96Q177 65 173 41L231 43V-6Z" />
<glyph unicode="m" glyph-name="m" horiz-adv-x="829" d="M805 -6H606V33H607Q633 32 644 43T658 74T660 138V265Q660 342 637 378T562 415Q534 415 507 404T458 374Q466 347 466 310L465 96Q465 59 462 41L519 43V-6H320V33H321Q347 32 358 43T372 74T374 138L375
265Q376 343 354 380T280 417Q252 417 226 406T180 376V330V96Q180 59 178 41L235 43V-6H37V33H38Q64 32 75 43T89 74T91 138V345Q91 380 94 399L28 395V445H29Q70 445 92 448T122 456T142 470H174Q177 458 179 426Q208 448 242 461T310 475Q354 475 387 460T439
416Q472 442 513 458T591 475Q674 475 713 425T752 265L751 96Q751 59 748 41L805 43V-6Z" />
<glyph unicode="n" glyph-name="n" horiz-adv-x="564" d="M539 0H344V41Q371 40 382 51T396 82T398 145V265Q397 343 374 379T297 416Q265 416 233 401T179 360Q180 351 180 328L179 103Q179 66 177 49L234 51V0H39V41Q66 40 77 51T90 81T93 145L94 345Q94 379
97 398L32 394V446Q90 446 110 452T144 470V471H174V469Q177 453 179 415V417Q211 444 250 460T327 476Q407 476 446 425T485 265V103Q485 66 482 49L539 51V0Z" />
<glyph unicode="o" glyph-name="o" horiz-adv-x="497" d="M322 476T374 445T457 360T487 238Q487 166 457 107T375 13T258 -22Q194 -22 142 8T61 93T31 216Q31 289 60 348T142 442T258 476Q322 476 374 445ZM191 428T158 375T124 243Q124 153 160 91T265 29Q333
29 364 80T395 212Q395 301 361 364T258 428Q191 428 158 375Z" />
<glyph unicode="p" glyph-name="p" horiz-adv-x="560" d="M369 475T417 447T494 366T523 244Q523 167 490 107T401 13T281 -21Q222 -21 175 5V-135Q175 -173 172 -191L229 -189V-238H30V-199H31Q57 -200 68 -189T82 -158T85 -94L86 345Q86 380 89 399L24 395V445H25Q66
445 88 448T118 456T136 470H170Q173 435 174 426Q202 448 239 461T314 475Q369 475 417 447ZM342 28T379 83T417 229Q417 309 383 364T280 419Q251 419 224 406T176 371Q177 364 177 310L176 61Q222 28 279 28Q342 28 379 83Z" />
<glyph unicode="q" glyph-name="q" horiz-adv-x="539" d="M529 -238H330V-199H331Q357 -200 368 -189T382 -158T384 -94V29Q332 -21 251 -21Q192 -21 143 8T66 92T37 217Q37 292 70 351T158 442T281 475Q309 475 334 470T363 463Q367 462 381 459T407 455Q427
455 439 468L442 470H474L475 -135Q475 -173 472 -191L529 -189V-238ZM313 36T339 51T384 90V326Q384 381 362 405T283 429Q218 429 181 378T144 239Q144 151 181 94T284 36Q313 36 339 51Z" />
<glyph unicode="r" glyph-name="r" horiz-adv-x="408" d="M364 475T384 459T405 412Q405 396 392 379T356 362Q335 362 321 377T306 413Q273 412 241 386T186 318V96Q186 59 183 41L241 43V-6H41V33H42Q68 32 79 43T93 74T95 138V345Q95 380 98 399L33 396V445H67Q102
445 117 451T146 470H179Q183 438 184 391Q210 425 251 450T335 475Q364 475 384 459Z" />
<glyph unicode="s" glyph-name="s" horiz-adv-x="440" d="M132 332T160 313T248 270Q297 251 328 234T381 189T403 119Q403 73 379 42T317 -5T237 -21Q197 -21 162 -11T101 14L105 -12H55L49 156H89Q89 119 106 90T154 44T220 27Q258 27 287 44T317 93Q317 125
290 143T205 184Q156 202 125 218T71 264T49 337Q49 367 64 399T116 453T213 475Q273 475 323 441L321 471H370V299H331Q328 353 300 391T217 429Q177 429 155 411T132 366Q132 332 160 313Z" />
<glyph unicode="t" glyph-name="t" horiz-adv-x="366" d="M181 519L180 461H336V413L181 411L179 165Q179 101 193 72T244 43Q268 43 291 57T331 99H333L366 73Q303 -21 219 -21Q86 -21 87 153L89 410L18 409V461Q64 459 94 498T141 588H181V519Z" />
<glyph unicode="u" glyph-name="u" horiz-adv-x="558" d="M534 -6H392Q387 18 385 43Q354 15 315 -3T238 -21Q158 -21 120 26T81 184V345Q81 380 83 399L21 396V445H55Q92 445 109 451T138 470H173V186Q173 109 194 74T266 38Q299 38 330 57T381 104V335Q381 374
385 399L320 396V445H353Q390 445 408 451T437 470H472L471 120Q471 74 467 41L534 44V-6Z" />
<glyph unicode="v" glyph-name="v" horiz-adv-x="470" d="M472 421H471Q451 422 438 410T413 376T382 303L259 -9H216L81 292Q46 371 42 414L1 411V461H183V421H182Q142 422 142 392Q142 373 161 328L233 168L256 113L273 160L347 359Q354 380 370 414L316 411V461H472V421Z"
/>
<glyph unicode="w" glyph-name="w" horiz-adv-x="739" d="M745 421H744Q713 420 696 413T669 392T651 353L516 -9H473L355 325L237 -9H195L72 344Q53 401 49 414L-1 411V461H206V421H205Q180 421 169 412T157 385Q157 367 170 331L237 130Q314 350 351 461H396L516
123L600 361Q610 393 621 413L574 411V461H745V421Z" />
<glyph unicode="x" glyph-name="x" horiz-adv-x="495" d="M489 -6H299V33H300Q334 31 334 46Q334 54 323 68L230 181L155 81Q143 64 123 41L186 43V-6H20V32Q47 38 63 52T108 105L198 219L109 336Q77 378 63 413L17 411V461H218V421H217Q193 420 183 416T172 402Q172
386 200 349L250 282L331 377L362 414L307 411V461H469V422Q433 412 413 395T349 326L281 246L405 95Q428 64 444 41L489 43V-6Z" />
<glyph unicode="y" glyph-name="y" horiz-adv-x="490" d="M491 422H490Q458 411 442 387T405 307L289 -10Q255 -102 233 -150T182 -225T112 -252Q81 -252 60 -236T38 -191Q38 -172 51 -157T85 -141Q106 -141 116 -156T126 -186Q126 -191 125 -195Q136 -197 148
-189T173 -162Q196 -122 236 -10L92 292Q57 369 44 413L-1 411V461H201V421H192Q172 419 163 412T153 390Q153 370 175 323L279 105Q293 143 304 175T324 233L354 322Q377 389 392 414L336 411V461H491V422Z" />
<glyph unicode="z" glyph-name="z" horiz-adv-x="482" d="M172 84Q169 80 159 68T135 43H134L298 41Q351 40 373 73T405 171H442L430 -6H36V40L295 368Q328 408 337 417L178 414Q132 413 114 382T87 286H49L61 461H435V422L172 84Z" />
<glyph unicode="{" glyph-name="braceleft" horiz-adv-x="334" d="M275 722T247 708T209 661T198 568Q198 548 204 486Q211 430 211 397Q211 344 184 310T114 263Q156 249 183 214T211 125Q211 92 204 25Q198 -49 198 -71Q198 -162 225 -201T327 -237V-277H294Q193
-277 152 -223T111 -57Q111 -35 113 -2T116 45Q121 102 121 136Q121 187 102 209T30 231H2V295H30Q83 295 102 315T121 386Q121 418 116 463Q111 536 111 554Q111 665 152 715T294 766H327V720Q275 722 247 708Z" />
<glyph unicode="|" glyph-name="bar" horiz-adv-x="231" d="M82 -271L79 760H154L150 -271H82Z" />
<glyph unicode="}" glyph-name="braceright" horiz-adv-x="334" d="M59 722T87 708T125 661T136 568Q136 548 130 486Q123 430 123 397Q123 344 150 310T220 263Q178 249 151 214T123 125Q123 92 130 25Q136 -49 136 -71Q136 -162 109 -201T7 -237V-277H40Q141
-277 182 -223T223 -57Q223 -35 221 -2T218 45Q213 102 213 136Q213 187 232 209T304 231H332V295H304Q251 295 232 315T213 386Q213 418 218 463Q223 536 223 554Q223 665 182 715T40 766H7V720Q59 722 87 708Z" />
<glyph unicode="~" glyph-name="asciitilde" horiz-adv-x="580" d="M233 374T257 364T311 332Q335 315 353 307T397 298Q459 298 512 346V283Q465 231 393 231Q358 231 334 241T280 272Q253 289 235 297T191 306Q154 306 128 295T68 258V321Q103 349 130 361T195
374Q233 374 257 364Z" />
<glyph unicode="&#xa0;" glyph-name="nbspace" horiz-adv-x="269" />
<glyph unicode="&#xa1;" glyph-name="exclamdown" horiz-adv-x="243" d="M89 -222T73 -198T59 -142L99 276H144L184 -142Q186 -172 169 -197T121 -222Q89 -222 73 -198ZM95 381T77 402T58 452Q58 481 77 501T122 522Q147 522 166 502T185 452Q185 423 166 402T121
381Q95 381 77 402Z" />
<glyph unicode="&#xa2;" glyph-name="cent" horiz-adv-x="531" d="M364 513T402 496T461 452T482 394Q482 371 469 356T434 341Q412 341 401 355T389 386Q389 410 404 426Q393 457 362 468T299 480Q253 480 217 455T159 382T138 266Q138 199 159 147T220 65T310
35Q355 35 398 60T467 122L493 102Q460 50 410 20T308 -16L307 -134H249V-16Q188 -8 140 25T64 113T36 241Q36 303 63 362T139 463T250 516V622H315L314 516Q364 513 402 496Z" />
<glyph unicode="&#xa3;" glyph-name="sterling" horiz-adv-x="548" d="M351 716T386 698T436 653T452 600Q452 581 441 569T410 556Q391 556 382 568T372 595Q372 615 385 629Q378 650 358 664T304 678Q250 678 220 637T190 537Q190 501 194 469T208 393L214 360H366V312H223Q229
264 229 238Q229 181 177 117Q198 121 229 121Q262 121 292 112T360 84Q389 71 402 66T429 61Q452 61 466 77T482 124H514Q512 61 486 23T412 -16Q385 -16 359 -5T296 31Q256 56 229 68T171 80Q160 80 155 79Q150 40 129 12T84 -16Q67 -16 57 -5T47 21Q47 48 71
72T134 108Q160 151 160 199Q160 228 156 254T142 312H63V360H129Q111 428 111 497Q111 562 134 612T200 689T296 716Q351 716 386 698Z" />
<glyph unicode="&#xa4;" glyph-name="currency" horiz-adv-x="535" d="M452 189T416 139L475 72L435 40L384 105Q336 67 268 67Q200 67 153 104L102 40L61 72L120 139Q84 188 84 254Q84 322 123 374L61 444L102 477L156 409Q203 448 268 448Q332 448 381 409L435
477L475 444L413 374Q452 321 452 254Q452 189 416 139ZM321 106T343 157T366 271Q366 300 357 333T325 389T268 413Q233 413 211 390T180 333T170 271Q170 209 192 158T268 106Q321 106 343 157Z" />
<glyph unicode="&#xa5;" glyph-name="yen" horiz-adv-x="705" d="M631 664T600 635T531 538L413 315H534V272L404 271Q404 230 403 208L534 207V164L403 163Q403 119 404 119Q404 66 401 40L484 44V0H249V33Q292 35 304 57T317 125V156V163L189 162V209L317 208V271L189
270V317L288 316L144 545Q98 616 90 658L28 656V700H286V667Q208 667 208 623Q208 597 233 558L264 509Q328 405 375 340H377Q412 409 484 544L505 583Q534 638 553 659L474 656V700H678V667Q631 664 600 635Z" />
<glyph unicode="&#xa6;" glyph-name="brokenbar" horiz-adv-x="243" d="M87 385L84 760H159L155 385H87ZM87 -271L84 101H159L155 -271H87Z" />
<glyph unicode="&#xa7;" glyph-name="section" horiz-adv-x="533" d="M323 760T364 742T428 695T451 636Q451 616 440 603T408 589Q388 589 378 602T368 630Q368 638 371 648T380 664Q370 689 342 705T276 722Q233 722 206 705T166 663T153 613Q153 581 172 555T221
509T300 459Q362 424 401 395T468 324T496 225Q496 182 473 137T408 58Q449 10 449 -53Q449 -90 430 -130T369 -199T261 -228Q205 -228 165 -209T104 -161T83 -100Q83 -80 95 -65T127 -49Q148 -49 158 -62T168 -94Q168 -100 165 -109T157 -125Q159 -150 189 -169T257
-189Q320 -189 350 -157T380 -84Q380 -52 361 -26T312 20T233 70Q171 106 132 134T66 205T38 304Q38 346 61 390T126 470Q84 518 84 586Q84 625 103 665T165 732T272 760Q323 760 364 742ZM132 425T124 397T115 341Q115 295 137 261T191 204T279 151Q308 135 337
117T386 81Q403 102 411 130T420 188Q420 234 398 267T344 323T256 378Q218 399 194 414T149 447Q132 425 124 397Z" />
<glyph unicode="&#xa8;" glyph-name="dieresis" horiz-adv-x="387" d="M131 730T145 713T160 670Q160 646 145 629T110 611Q90 611 75 628T60 670Q60 694 75 712T110 730Q131 730 145 713ZM298 730T312 713T327 670Q327 646 312 629T277 611Q257 611 242 628T227
670Q227 694 242 712T277 730Q298 730 312 713Z" />
<glyph unicode="&#xa9;" glyph-name="copyright" horiz-adv-x="877" d="M553 750T643 696T784 550T835 348Q835 240 782 149T638 4T438 -50Q322 -50 232 1T93 143T44 348Q44 458 95 550T236 696T440 750Q553 750 643 696ZM343 701T269 652T153 522T111 348Q111
255 151 176T267 48T441 0Q537 0 612 48T728 175T769 348Q769 441 727 522T610 652T438 701Q343 701 269 652ZM483 599T517 588T578 558L574 594H624V426H584Q576 488 541 516T451 545Q412 545 376 523T318 459T296 358Q296 303 318 259T381 190T473 165Q508 165
549 185T617 239L647 204Q607 149 552 126T444 102Q376 102 321 134T234 222T202 346Q202 408 230 466T315 561T447 599Q483 599 517 588Z" />
<glyph unicode="&#xaa;" glyph-name="ordfeminine" horiz-adv-x="474" d="M140 312T116 328T80 368T68 417Q68 453 82 470T130 502Q175 521 268 521Q280 521 282 520Q282 571 275 600T248 641Q235 648 194 648Q178 648 172 646L161 587Q138 577 129 577Q114 577
99 591T84 622Q84 631 93 640T115 656Q145 673 186 683T251 693Q304 693 329 663T354 581V393Q369 366 419 355L415 336Q401 328 371 320T323 312Q320 324 310 344T292 372Q283 353 244 333T175 312Q140 312 116 328ZM191 371T196 371Q216 371 242 378T282 394V490Q228
487 197 478T157 460Q150 454 150 437Q150 419 160 399T185 373Q191 371 196 371ZM423 260L410 212Q269 203 72 203L84 260H423Z" />
<glyph unicode="&#xab;" glyph-name="guillemotleft" horiz-adv-x="530" d="M27 270L306 -15L344 23L146 278L342 518L303 556L27 280V270ZM443 69L482 105L360 270L480 436L441 472L240 277V268L443 69Z" />
<glyph unicode="&#xac;" glyph-name="logicalnot" horiz-adv-x="592" d="M519 157H467L464 284L73 282V344L519 342V157Z" />
<glyph unicode="&#xad;" glyph-name="uni00AD" horiz-adv-x="489" d="M62 279V361H427V283L62 279Z" />
<glyph unicode="&#xae;" glyph-name="registered" horiz-adv-x="878" d="M554 750T644 697T785 551T835 348Q835 239 782 148T638 4T438 -50Q321 -50 232 1T93 142T44 348Q44 458 95 550T236 696T440 750Q554 750 644 697ZM343 701T269 653T153 523T112 348Q112
254 152 175T266 49T441 1Q538 1 612 48T728 175T769 348Q769 441 728 522T610 652T438 701Q343 701 269 653ZM528 598T574 561T621 468Q621 428 592 390T500 333V332Q519 323 542 291Q579 235 600 209T635 174T665 166V132H578Q564 136 547 155T503 212Q482 242
428 323Q423 322 405 322Q379 322 373 323V225Q373 198 371 174L419 176L421 136H251V170Q274 170 284 180T297 205T299 250V511Q299 546 301 559L251 554V596Q377 601 436 600Q528 598 574 561ZM403 558T391 548T376 523T373 473V365H374Q406 363 423 364Q468
366 505 390T543 465Q543 509 511 533T432 558Q403 558 391 548Z" />
<glyph unicode="&#xaf;" glyph-name="overscore" horiz-adv-x="355" d="M45 640V700H310V644L45 640Z" />
<glyph unicode="&#xb0;" glyph-name="degree" horiz-adv-x="405" d="M250 716T285 696T339 640T358 561Q358 518 337 482T279 425T201 404Q155 404 120 425T66 481T47 561Q47 603 68 638T126 695T204 716Q250 716 285 696ZM162 667T136 635T110 561Q110 518 136
487T203 456Q243 456 269 487T295 561Q295 603 269 635T202 667Q162 667 136 635Z" />
<glyph unicode="&#xb1;" glyph-name="plusminus" horiz-adv-x="576" d="M510 358V302L319 301V135H255V300H65V360L255 359V516H319V359L510 358ZM65 3V55L510 59V3H65Z" />
<glyph unicode="&#xb2;" glyph-name="twosuperior" horiz-adv-x="385" d="M244 722T280 693T317 609Q317 574 293 537T198 449Q137 403 123 368L200 366L237 365Q267 365 279 373T291 406H326L322 300H56Q54 360 85 404T175 497Q212 527 224 554T237 608Q237 639
222 656T179 674Q158 674 143 665T123 642Q131 632 131 617Q131 605 122 593T96 582Q82 582 73 593T63 620Q63 642 78 666T123 706T192 722Q244 722 280 693Z" />
<glyph unicode="&#xb3;" glyph-name="threesuperior" horiz-adv-x="370" d="M277 522T299 492T322 423Q322 370 283 335T177 299Q138 299 109 313T65 349T49 395Q49 411 58 424T84 437Q102 438 111 426T121 399Q121 386 113 375Q117 361 134 353T172 345Q207 345
226 368T245 423Q245 455 228 479T167 504L135 503V547H151Q229 547 229 613Q229 640 216 658T173 677Q151 677 137 668T119 645Q127 635 127 621Q127 609 118 597T92 586Q78 586 69 597T59 625Q59 645 74 668T117 706T183 722Q236 722 269 694T302 619Q302 595
285 571T236 532Q277 522 299 492Z" />
<glyph unicode="&#xb4;" glyph-name="acute" horiz-adv-x="252" d="M226 745T226 729Q226 708 205 686L93 580L65 603L149 738Q168 765 190 765Q202 765 214 757Q226 745 226 729Z" />
<glyph unicode="&#xb5;" glyph-name="uni00B5" horiz-adv-x="614" d="M490 91T501 70T535 48Q553 48 577 65L588 50Q573 28 546 11T487 -6Q425 -6 411 56Q381 25 339 5T256 -16Q220 -16 192 5T143 65Q152 -27 161 -75T182 -160Q191 -187 191 -206Q191 -227 179
-243T146 -260Q94 -260 94 -173L95 500H179V236Q179 140 202 88T286 35Q321 35 353 55T406 106V500H491L490 141Q490 91 501 70Z" />
<glyph unicode="&#xb6;" glyph-name="paragraph" horiz-adv-x="501" d="M330 -255L332 659L245 656L242 -255H172L174 409Q116 413 75 448T33 555Q33 600 53 633T105 683T175 700H402L400 -255H330Z" />
<glyph unicode="&#xb7;" glyph-name="middot" horiz-adv-x="250" d="M152 399T170 378T189 328Q189 299 170 279T125 258Q100 258 81 278T62 328Q62 357 81 378T126 399Q152 399 170 378Z" />
<glyph unicode="&#xb8;" glyph-name="cedilla" horiz-adv-x="292" d="M141 -57T180 -57Q211 -57 229 -75T247 -123Q247 -176 187 -203T51 -241L45 -208Q100 -198 132 -179T165 -131Q165 -101 133 -101Q110 -101 88 -116L54 -100L83 8H139L112 -74Q141 -57 180 -57Z" />
<glyph unicode="&#xb9;" glyph-name="onesuperior" horiz-adv-x="283" d="M236 295H71V335Q100 334 110 351T120 403V636L59 599L38 637L155 722H186L187 372Q187 349 186 339L236 341V295Z" />
<glyph unicode="&#xba;" glyph-name="ordmasculine" horiz-adv-x="464" d="M67 541T88 588T147 664T232 693Q303 693 349 648T395 516Q395 463 374 416T315 341T234 312Q160 312 114 356T67 488Q67 541 88 588ZM288 367T304 382Q316 392 323 419T330 471Q330 537
297 587T203 638Q173 638 158 623Q146 611 139 586T132 534Q132 493 145 455T187 392T259 367Q288 367 304 382ZM398 260L385 212Q245 203 72 203L84 260H398Z" />
<glyph unicode="&#xbb;" glyph-name="guillemotright" horiz-adv-x="530" d="M503 270L224 -15L186 23L384 278L188 518L227 556L503 280V270ZM87 69L48 105L170 270L50 436L89 472L290 277V268L87 69Z" />
<glyph unicode="&#xbc;" glyph-name="onequarter" horiz-adv-x="757" d="M236 545H71V585Q100 584 110 601T120 653V886L59 849L38 887L155 972H186L187 622Q187 599 186 589L236 591V545ZM166 -24L119 8L593 724L646 687L166 -24ZM664 44L705 46V0H548V41Q578
40 587 54T597 101V105H428V143L630 423H663L664 154L720 153V105H664V44ZM597 306L491 157L597 155V306Z" />
<glyph unicode="&#xbd;" glyph-name="onehalf" horiz-adv-x="785" d="M236 546H71V586Q100 585 110 602T120 654V887L59 850L38 888L155 973H186L187 623Q187 600 186 590L236 592V546ZM166 -24L119 8L593 724L646 687L166 -24ZM667 422T703 393T740 309Q740 274
716 237T621 149Q560 103 546 68L623 66L660 65Q690 65 702 73T714 106H749L745 0H479Q477 60 508 104T598 197Q635 227 647 254T660 308Q660 339 645 356T602 374Q581 374 566 365T546 342Q554 332 554 317Q554 305 545 293T519 282Q505 282 496 293T486 320Q486
342 501 366T546 406T615 422Q667 422 703 393Z" />
<glyph unicode="&#xbe;" glyph-name="threequarters" horiz-adv-x="796" d="M277 773T299 743T322 674Q322 621 283 586T177 550Q138 550 109 564T65 600T49 646Q49 662 58 675T84 688Q102 689 111 677T121 650Q121 637 113 626Q117 612 134 604T172 596Q207 596
226 619T245 674Q245 706 228 730T167 755L135 754V798H151Q229 798 229 864Q229 891 216 909T173 928Q151 928 137 919T119 896Q127 886 127 872Q127 860 118 848T92 837Q78 837 69 848T59 876Q59 896 74 919T117 957T183 973Q236 973 269 945T302 870Q302 846
285 822T236 783Q277 773 299 743ZM205 -24L158 8L632 724L685 687L205 -24ZM703 44L744 46V0H587V41Q617 40 626 54T636 101V105H467V143L669 423H702L703 154L759 153V105H703V44ZM636 306L530 157L636 155V306Z" />
<glyph unicode="&#xbf;" glyph-name="questiondown" horiz-adv-x="467" d="M163 -222T117 -198T49 -134T28 -51Q28 -10 49 26T100 88T175 149Q215 179 233 197T252 233Q252 245 244 252T215 260Q190 260 175 251L160 297Q175 307 199 312T244 318Q278 318 303
300T329 245Q329 216 309 192T247 132Q211 101 188 77T149 21T133 -51Q133 -171 250 -171Q288 -171 318 -151T355 -107Q343 -88 343 -67Q343 -50 356 -34T392 -18Q416 -18 429 -35T442 -77Q442 -109 416 -143T343 -199T235 -222Q163 -222 117 -198ZM214 392T197
411T179 457Q179 484 196 503T238 522Q261 522 279 504T297 457Q297 431 279 412T238 392Q214 392 197 411Z" />
<glyph unicode="&#xc0;" glyph-name="Agrave" horiz-adv-x="626" d="M645 0H402V37H405Q462 37 462 82Q462 98 451 129L417 220L166 214H169Q157 181 135 110Q126 80 111 44L188 48V0H-13V37H-10Q13 36 27 46T51 75T73 130Q74 134 84 161L291 721H327L551 153Q578
81 577 44L645 48V0ZM331 449L292 557L256 459Q221 363 186 261H401L331 449ZM211 918T218 922T236 927Q254 927 275 909L401 789L379 760L234 849Q202 869 202 893Q202 906 208 914Q211 918 218 922Z" />
<glyph unicode="&#xc1;" glyph-name="Aacute" horiz-adv-x="626" d="M645 0H402V37H405Q462 37 462 82Q462 98 451 129L417 220L166 214H169Q157 181 135 110Q126 80 111 44L188 48V0H-13V37H-10Q13 36 27 46T51 75T73 130Q74 134 84 161L291 721H327L551 153Q578
81 577 44L645 48V0ZM331 449L292 557L256 459Q221 363 186 261H401L331 449ZM415 918T408 922T390 927Q372 927 351 909L225 789L247 760L392 849Q424 869 424 893Q424 906 418 914Q415 918 408 922Z" />
<glyph unicode="&#xc2;" glyph-name="Acircumflex" horiz-adv-x="626" d="M645 0H402V37H405Q462 37 462 82Q462 98 451 129L417 220L166 214H169Q157 181 135 110Q126 80 111 44L188 48V0H-13V37H-10Q13 36 27 46T51 75T73 130Q74 134 84 161L291 721H327L551
153Q578 81 577 44L645 48V0ZM331 449L292 557L256 459Q221 363 186 261H401L331 449ZM474 756L308 844H306L136 757L116 789L310 931H312L496 790L474 756Z" />
<glyph unicode="&#xc3;" glyph-name="Atilde" horiz-adv-x="626" d="M645 0H402V37H405Q462 37 462 82Q462 98 451 129L417 220L166 214H169Q157 181 135 110Q126 80 111 44L188 48V0H-13V37H-10Q13 36 27 46T51 75T73 130Q74 134 84 161L291 721H327L551 153Q578
81 577 44L645 48V0ZM331 449L292 557L256 459Q221 363 186 261H401L331 449ZM255 910T275 900T321 870Q340 855 354 848T384 840Q409 840 428 857T465 905L497 889Q477 831 446 804T378 777Q349 777 328 788T278 819Q258 834 246 841T219 848Q199 848 183 834T145
788L111 807Q129 852 162 881T227 910Q255 910 275 900Z" />
<glyph unicode="&#xc4;" glyph-name="Adieresis" horiz-adv-x="626" d="M645 0H402V37H405Q462 37 462 82Q462 98 451 129L417 220L166 214H169Q157 181 135 110Q126 80 111 44L188 48V0H-13V37H-10Q13 36 27 46T51 75T73 130Q74 134 84 161L291 721H327L551 153Q578
81 577 44L645 48V0ZM331 449L292 557L256 459Q221 363 186 261H401L331 449ZM426 907T443 886T460 837Q460 809 442 789T400 768Q377 768 360 788T342 837Q342 865 360 886T401 907Q426 907 443 886ZM246 907T263 886T280 837Q280 809 262 789T220 768Q197 768
180 788T162 837Q162 865 180 886T221 907Q246 907 263 886Z" />
<glyph unicode="&#xc5;" glyph-name="Aring" horiz-adv-x="626" d="M645 0H402V37H405Q462 37 462 82Q462 98 451 129L417 220L166 214H169Q157 181 135 110Q126 80 111 44L188 48V0H-13V37H-10Q13 36 27 46T51 75T73 130Q74 134 84 161L279 687Q242 695 218 721T194
792Q194 825 210 850T252 890T307 905Q353 905 387 877T422 797Q422 756 399 727T340 688L551 153Q578 81 577 44L645 48V0ZM252 768T264 748T296 721H325Q342 727 353 744T364 787Q364 827 349 849T307 871Q282 871 267 851T252 799Q252 768 264 748ZM331 449L292
557L256 459Q221 363 186 261H401L331 449Z" />
<glyph unicode="&#xc6;" glyph-name="AE" horiz-adv-x="949" d="M835 525Q835 607 800 637T700 665L614 663Q578 662 562 650T542 615T538 544V383H612Q660 383 683 388T718 414T730 477H763V259H730Q730 302 719 320T685 343T613 347L538 343V118Q538 66 535
40L732 37Q799 36 834 73T870 195H904L898 0H382V36H390Q427 39 439 60T451 130V221L208 216L90 40L166 44V0H-21V33Q3 33 23 46T56 77T91 125L452 660L362 656V700H863L868 525H835ZM451 259V582L236 259H451Z" />
<glyph unicode="&#xc7;" glyph-name="Ccedilla" horiz-adv-x="699" d="M618 52T544 19T392 -15L372 -77Q385 -69 403 -65T437 -61Q474 -61 494 -81T514 -132Q514 -185 448 -217T308 -260L302 -222Q355 -213 389 -191T424 -141Q424 -125 415 -117T392 -109Q371
-109 348 -123L312 -106L336 -12Q249 0 181 49T76 174T39 339Q39 435 79 521T199 661T393 715Q499 715 587 662L583 708H651V472H601Q591 566 538 618T400 670Q331 670 274 631T184 520T151 351Q151 260 186 190T280 80T412 41Q479 41 539 71T640 158L675 133Q618
52 544 19Z" />
<glyph unicode="&#xc8;" glyph-name="Egrave" horiz-adv-x="622" d="M578 0H48V37H51Q85 37 99 51T115 86T117 158V586Q117 626 120 656L48 652V700H543L548 521H501Q502 604 469 633T373 661L287 659Q254 658 240 646T222 612T218 542V386L392 385L385 471H443V257H396Q396
295 389 314T365 339T316 346L284 345L218 342V117Q218 67 215 41L399 44Q467 45 502 79T536 199H584L578 0ZM225 918T232 922T250 927Q268 927 289 909L415 789L393 760L248 849Q216 869 216 893Q216 906 222 914Q225 918 232 922Z" />
<glyph unicode="&#xc9;" glyph-name="Eacute" horiz-adv-x="622" d="M578 0H48V37H51Q85 37 99 51T115 86T117 158V586Q117 626 120 656L48 652V700H543L548 521H501Q502 604 469 633T373 661L287 659Q254 658 240 646T222 612T218 542V386L392 385L385 471H443V257H396Q396
295 389 314T365 339T316 346L284 345L218 342V117Q218 67 215 41L399 44Q467 45 502 79T536 199H584L578 0ZM429 918T422 922T404 927Q386 927 365 909L239 789L261 760L406 849Q438 869 438 893Q438 906 432 914Q429 918 422 922Z" />
<glyph unicode="&#xca;" glyph-name="Ecircumflex" horiz-adv-x="622" d="M578 0H48V37H51Q85 37 99 51T115 86T117 158V586Q117 626 120 656L48 652V700H543L548 521H501Q502 604 469 633T373 661L287 659Q254 658 240 646T222 612T218 542V386L392 385L385 471H443V257H396Q396
295 389 314T365 339T316 346L284 345L218 342V117Q218 67 215 41L399 44Q467 45 502 79T536 199H584L578 0ZM495 756L329 844H327L157 757L137 789L331 931H333L517 790L495 756Z" />
<glyph unicode="&#xcb;" glyph-name="Edieresis" horiz-adv-x="622" d="M578 0H48V37H51Q85 37 99 51T115 86T117 158V586Q117 626 120 656L48 652V700H543L548 521H501Q502 604 469 633T373 661L287 659Q254 658 240 646T222 612T218 542V386L392 385L385 471H443V257H396Q396
295 389 314T365 339T316 346L284 345L218 342V117Q218 67 215 41L399 44Q467 45 502 79T536 199H584L578 0ZM442 907T459 886T476 837Q476 809 458 789T416 768Q393 768 376 788T358 837Q358 865 376 886T417 907Q442 907 459 886ZM263 907T280 886T297 837Q297
809 279 789T237 768Q214 768 197 788T179 837Q179 865 197 886T238 907Q263 907 280 886Z" />
<glyph unicode="&#xcc;" glyph-name="Igrave" horiz-adv-x="335" d="M250 663T236 649T220 614T218 542V121Q218 71 215 44L287 48V0H48V37H51Q85 37 99 51T115 86T117 158V586Q117 626 120 656L48 652V700H287V663H284Q250 663 236 649ZM69 918T76 922T94 927Q112
927 133 909L259 789L237 760L92 849Q60 869 60 893Q60 906 66 914Q69 918 76 922Z" />
<glyph unicode="&#xcd;" glyph-name="Iacute" horiz-adv-x="335" d="M250 663T236 649T220 614T218 542V121Q218 71 215 44L287 48V0H48V37H51Q85 37 99 51T115 86T117 158V586Q117 626 120 656L48 652V700H287V663H284Q250 663 236 649ZM273 918T266 922T248
927Q230 927 209 909L83 789L105 760L250 849Q282 869 282 893Q282 906 276 914Q273 918 266 922Z" />
<glyph unicode="&#xce;" glyph-name="Icircumflex" horiz-adv-x="335" d="M329 756L173 844H171L11 757L-9 789L175 931H177L351 790L329 756ZM287 700V663H284Q250 663 236 649T220 614T218 542V121Q218 71 215 44L287 48V0H48V37H51Q85 37 99 51T115 86T117
158V586Q117 626 120 656L48 652V700H287Z" />
<glyph unicode="&#xcf;" glyph-name="Idieresis" horiz-adv-x="335" d="M250 663T236 649T220 614T218 542V121Q218 71 215 44L287 48V0H48V37H51Q85 37 99 51T115 86T117 158V586Q117 626 120 656L48 652V700H287V663H284Q250 663 236 649ZM281 907T298 886T315
837Q315 809 297 789T255 768Q232 768 215 788T197 837Q197 865 215 886T256 907Q281 907 298 886ZM121 907T138 886T155 837Q155 809 137 789T95 768Q72 768 55 788T37 837Q37 865 55 886T96 907Q121 907 138 886Z" />
<glyph unicode="&#xd0;" glyph-name="Eth" horiz-adv-x="746" d="M416 702T509 663T655 545T707 347Q707 254 663 175T530 48T319 0H49V37H52Q86 37 100 51T116 86T118 158V335H19V377H118V586Q118 626 121 656L49 652V700L292 701Q416 702 509 663ZM398 42T461
82T560 192T595 351Q595 498 517 579T281 660Q253 660 240 650T223 622T219 572V542V377H393V335H219V120Q219 70 216 44H213Q247 42 316 42Q398 42 461 82Z" />
<glyph unicode="&#xd1;" glyph-name="Ntilde" horiz-adv-x="762" d="M726 663H723Q682 662 671 643T659 579V542L657 -16H597L174 548L177 141Q177 76 175 44L247 48V0H50V37H53Q91 36 103 58T116 114L117 656L50 652V700H181L596 149L597 586Q597 626 600 656L528
652V700H726V663ZM338 910T358 900T404 870Q423 855 437 848T467 840Q492 840 511 857T548 905L580 889Q560 831 529 804T461 777Q432 777 411 788T361 819Q341 834 329 841T302 848Q282 848 266 834T228 788L194 807Q212 852 245 881T310 910Q338 910 358 900Z"
/>
<glyph unicode="&#xd2;" glyph-name="Ograve" horiz-adv-x="794" d="M512 716T594 661T716 522T757 350Q757 263 717 179T597 39T402 -16Q279 -16 198 37T78 174T39 350Q39 438 79 522T199 661T394 716Q512 716 594 661ZM315 672T261 628T179 514T151 368Q151
289 179 211T265 81T404 29Q479 29 533 72T615 185T643 331Q643 415 613 493T525 622T391 672Q315 672 261 628ZM287 918T294 922T312 927Q330 927 351 909L477 789L455 760L310 849Q278 869 278 893Q278 906 284 914Q287 918 294 922Z" />
<glyph unicode="&#xd3;" glyph-name="Oacute" horiz-adv-x="794" d="M512 716T594 661T716 522T757 350Q757 263 717 179T597 39T402 -16Q279 -16 198 37T78 174T39 350Q39 438 79 522T199 661T394 716Q512 716 594 661ZM315 672T261 628T179 514T151 368Q151
289 179 211T265 81T404 29Q479 29 533 72T615 185T643 331Q643 415 613 493T525 622T391 672Q315 672 261 628ZM491 918T484 922T466 927Q448 927 427 909L301 789L323 760L468 849Q500 869 500 893Q500 906 494 914Q491 918 484 922Z" />
<glyph unicode="&#xd4;" glyph-name="Ocircumflex" horiz-adv-x="794" d="M512 716T594 661T716 522T757 350Q757 263 717 179T597 39T402 -16Q279 -16 198 37T78 174T39 350Q39 438 79 522T199 661T394 716Q512 716 594 661ZM315 672T261 628T179 514T151 368Q151
289 179 211T265 81T404 29Q479 29 533 72T615 185T643 331Q643 415 613 493T525 622T391 672Q315 672 261 628ZM569 756L403 844H401L231 757L211 789L405 931H407L591 790L569 756Z" />
<glyph unicode="&#xd5;" glyph-name="Otilde" horiz-adv-x="794" d="M512 716T594 661T716 522T757 350Q757 263 717 179T597 39T402 -16Q279 -16 198 37T78 174T39 350Q39 438 79 522T199 661T394 716Q512 716 594 661ZM315 672T261 628T179 514T151 368Q151
289 179 211T265 81T404 29Q479 29 533 72T615 185T643 331Q643 415 613 493T525 622T391 672Q315 672 261 628ZM355 910T375 900T421 870Q440 855 454 848T484 840Q509 840 528 857T565 905L597 889Q577 831 546 804T478 777Q449 777 428 788T378 819Q358 834
346 841T319 848Q299 848 283 834T245 788L211 807Q229 852 262 881T327 910Q355 910 375 900Z" />
<glyph unicode="&#xd6;" glyph-name="Odieresis" horiz-adv-x="794" d="M512 716T594 661T716 522T757 350Q757 263 717 179T597 39T402 -16Q279 -16 198 37T78 174T39 350Q39 438 79 522T199 661T394 716Q512 716 594 661ZM315 672T261 628T179 514T151 368Q151
289 179 211T265 81T404 29Q479 29 533 72T615 185T643 331Q643 415 613 493T525 622T391 672Q315 672 261 628ZM513 907T530 886T547 837Q547 809 529 789T487 768Q464 768 447 788T429 837Q429 865 447 886T488 907Q513 907 530 886ZM333 907T350 886T367 837Q367
809 349 789T307 768Q284 768 267 788T249 837Q249 865 267 886T308 907Q333 907 350 886Z" />
<glyph unicode="&#xd7;" glyph-name="multiply" horiz-adv-x="552" d="M319 313L500 134L455 89L274 268L97 93L54 136L231 310L56 484L103 529L277 355L459 534L500 491L319 313Z" />
<glyph unicode="&#xd8;" glyph-name="Oslash" horiz-adv-x="794" d="M686 590T721 511T756 350Q756 263 716 179T596 39T401 -16Q315 -16 247 12L193 -80L145 -50L196 38Q117 88 78 172T38 350Q38 438 78 522T198 661T393 716Q488 716 566 677L611 755L665 721L619
643Q686 590 721 511ZM150 299T172 229T237 109L531 616Q470 672 390 672Q314 672 260 628T178 514T150 368Q150 299 172 229ZM478 29T532 72T614 185T642 331Q642 394 624 456T573 566L280 68Q335 29 403 29Q478 29 532 72Z" />
<glyph unicode="&#xd9;" glyph-name="Ugrave" horiz-adv-x="752" d="M729 663H726Q692 663 678 649T661 614T659 542L657 315Q656 170 591 78T381 -15Q272 -15 209 23T119 139T92 344V542Q92 602 96 656L24 653V700H262V663H259Q217 664 206 642T194 586V339Q194
204 235 125T394 46Q494 46 543 116T594 310L597 586Q597 626 600 656L529 652V700H729V663ZM286 918T293 922T311 927Q329 927 350 909L476 789L454 760L309 849Q277 869 277 893Q277 906 283 914Q286 918 293 922Z" />
<glyph unicode="&#xda;" glyph-name="Uacute" horiz-adv-x="752" d="M729 663H726Q692 663 678 649T661 614T659 542L657 315Q656 170 591 78T381 -15Q272 -15 209 23T119 139T92 344V542Q92 602 96 656L24 653V700H262V663H259Q217 664 206 642T194 586V339Q194
204 235 125T394 46Q494 46 543 116T594 310L597 586Q597 626 600 656L529 652V700H729V663ZM490 918T483 922T465 927Q447 927 426 909L300 789L322 760L467 849Q499 869 499 893Q499 906 493 914Q490 918 483 922Z" />
<glyph unicode="&#xdb;" glyph-name="Ucircumflex" horiz-adv-x="752" d="M729 663H726Q692 663 678 649T661 614T659 542L657 315Q656 170 591 78T381 -15Q272 -15 209 23T119 139T92 344V542Q92 602 96 656L24 653V700H262V663H259Q217 664 206 642T194 586V339Q194
204 235 125T394 46Q494 46 543 116T594 310L597 586Q597 626 600 656L529 652V700H729V663ZM558 756L392 844H390L220 757L200 789L394 931H396L580 790L558 756Z" />
<glyph unicode="&#xdc;" glyph-name="Udieresis" horiz-adv-x="752" d="M729 663H726Q692 663 678 649T661 614T659 542L657 315Q656 170 591 78T381 -15Q272 -15 209 23T119 139T92 344V542Q92 602 96 656L24 653V700H262V663H259Q217 664 206 642T194 586V339Q194
204 235 125T394 46Q494 46 543 116T594 310L597 586Q597 626 600 656L529 652V700H729V663ZM509 907T526 886T543 837Q543 809 525 789T483 768Q460 768 443 788T425 837Q425 865 443 886T484 907Q509 907 526 886ZM329 907T346 886T363 837Q363 809 345 789T303
768Q280 768 263 788T245 837Q245 865 263 886T304 907Q329 907 346 886Z" />
<glyph unicode="&#xdd;" glyph-name="Yacute" horiz-adv-x="634" d="M651 663H648Q602 662 572 634T503 535L378 300L376 124Q377 74 374 44L457 48V0H208V37H211Q252 38 264 59T276 126V158L277 270L104 542Q58 615 50 654L-13 652V700H259V663H256Q180 664 180
621Q180 596 205 557Q284 431 341 349Q346 359 418 494L465 582Q467 586 480 610T511 655L433 652V700H651V663ZM433 918T426 922T408 927Q390 927 369 909L243 789L265 760L410 849Q442 869 442 893Q442 906 436 914Q433 918 426 922Z" />
<glyph unicode="&#xde;" glyph-name="Thorn" horiz-adv-x="596" d="M218 71T215 44L287 48V0H48V37H51Q85 37 99 51T115 86T117 158V586Q117 626 120 656L48 652V700H287V663H284Q243 662 231 642T218 578L265 579Q570 579 570 378Q570 322 539 273T434 193T237
161H218V121Q218 71 215 44ZM218 540V202Q243 198 276 200Q373 202 423 250T473 377Q473 457 422 499T271 541L218 540Z" />
<glyph unicode="&#xdf;" glyph-name="germandbls" horiz-adv-x="681" d="M398 760T451 740T544 664T579 507Q579 496 576 478Q528 481 517 481Q390 481 390 403Q390 365 420 341T510 286Q556 263 584 244T633 198T653 132Q653 59 608 22T483 -16Q459 -16 426 -8T368
16L371 -8H329L323 164H354Q358 100 391 62T481 23Q517 23 543 44T569 104Q569 129 554 148T517 180T456 213Q409 235 381 253T332 301T311 371Q311 440 358 479T493 516Q495 638 452 677T350 717Q259 717 220 639Q205 607 199 564T193 458L194 106Q194 61 190
38L253 41V0H49V30Q78 30 90 44T105 81T108 152L107 457L25 455V500H107V501Q107 576 134 634T216 726T348 760Q398 760 451 740Z" />
<glyph unicode="&#xe0;" glyph-name="agrave" horiz-adv-x="481" d="M309 476T354 432T399 301L398 103Q398 81 395 49L460 52V0H323Q319 21 315 50Q248 -15 173 -15Q105 -15 68 17T30 101Q30 156 73 193T181 249T313 268V310Q313 369 296 401T224 433Q198 433
173 421T135 388Q142 381 144 374T146 354Q146 338 135 323T101 308Q82 308 70 323T58 360Q58 410 107 443T235 476Q309 476 354 432ZM237 219T176 193T115 116Q115 85 138 68T194 51Q230 51 257 63T313 102Q312 116 312 144Q312 149 312 166T313 223Q237 219 176
193ZM179 976T191 976Q213 976 232 949L316 814L288 791L176 897Q155 919 155 940Q155 956 167 968Q179 976 191 976Z" />
<glyph unicode="&#xe1;" glyph-name="aacute" horiz-adv-x="481" d="M309 476T354 432T399 301L398 103Q398 81 395 49L460 52V0H323Q319 21 315 50Q248 -15 173 -15Q105 -15 68 17T30 101Q30 156 73 193T181 249T313 268V310Q313 369 296 401T224 433Q198 433
173 421T135 388Q142 381 144 374T146 354Q146 338 135 323T101 308Q82 308 70 323T58 360Q58 410 107 443T235 476Q309 476 354 432ZM237 219T176 193T115 116Q115 85 138 68T194 51Q230 51 257 63T313 102Q312 116 312 144Q312 149 312 166T313 223Q237 219 176
193ZM291 720T279 720Q257 720 238 693L154 558L182 535L294 641Q315 663 315 684Q315 700 303 712Q291 720 279 720Z" />
<glyph unicode="&#xe2;" glyph-name="acircumflex" horiz-adv-x="481" d="M309 476T354 432T399 301L398 103Q398 81 395 49L460 52V0H323Q319 21 315 50Q248 -15 173 -15Q105 -15 68 17T30 101Q30 156 73 193T181 249T313 268V310Q313 369 296 401T224 433Q198
433 173 421T135 388Q142 381 144 374T146 354Q146 338 135 323T101 308Q82 308 70 323T58 360Q58 410 107 443T235 476Q309 476 354 432ZM237 219T176 193T115 116Q115 85 138 68T194 51Q230 51 257 63T313 102Q312 116 312 144Q312 149 312 166T313 223Q237 219
176 193ZM363 794L236 903H234L105 801L80 830L239 989H241L390 826L363 794Z" />
<glyph unicode="&#xe3;" glyph-name="atilde" horiz-adv-x="481" d="M309 476T354 432T399 301L398 103Q398 81 395 49L460 52V0H323Q319 21 315 50Q248 -15 173 -15Q105 -15 68 17T30 101Q30 156 73 193T181 249T313 268V310Q313 369 296 401T224 433Q198 433
173 421T135 388Q142 381 144 374T146 354Q146 338 135 323T101 308Q82 308 70 323T58 360Q58 410 107 443T235 476Q309 476 354 432ZM237 219T176 193T115 116Q115 85 138 68T194 51Q230 51 257 63T313 102Q312 116 312 144Q312 149 312 166T313 223Q237 219 176
193ZM194 938T210 930T248 908Q264 896 276 891T301 885Q323 885 342 898T374 933L403 918Q388 872 359 848T301 823Q278 823 260 831T218 855Q202 866 192 871T170 877Q150 877 130 867T97 835L67 852Q80 888 111 913T172 938Q194 938 210 930Z" />
<glyph unicode="&#xe4;" glyph-name="adieresis" horiz-adv-x="481" d="M309 476T354 432T399 301L398 103Q398 81 395 49L460 52V0H323Q319 21 315 50Q248 -15 173 -15Q105 -15 68 17T30 101Q30 156 73 193T181 249T313 268V310Q313 369 296 401T224 433Q198
433 173 421T135 388Q142 381 144 374T146 354Q146 338 135 323T101 308Q82 308 70 323T58 360Q58 410 107 443T235 476Q309 476 354 432ZM237 219T176 193T115 116Q115 85 138 68T194 51Q230 51 257 63T313 102Q312 116 312 144Q312 149 312 166T313 223Q237 219
176 193ZM183 733T198 714T214 668Q214 641 198 623T160 604Q138 604 122 622T106 668Q106 695 122 714T161 733Q183 733 198 714ZM350 733T365 714T381 668Q381 641 365 623T327 604Q305 604 289 622T273 668Q273 695 289 714T328 733Q350 733 365 714Z" />
<glyph unicode="&#xe5;" glyph-name="aring" horiz-adv-x="481" d="M309 476T354 432T399 301L398 103Q398 81 395 49L460 52V0H323Q319 21 315 50Q248 -15 173 -15Q105 -15 68 17T30 101Q30 156 73 193T181 249T313 268V310Q313 369 296 401T224 433Q198 433
173 421T135 388Q142 381 144 374T146 354Q146 338 135 323T101 308Q82 308 70 323T58 360Q58 410 107 443T235 476Q309 476 354 432ZM237 219T176 193T115 116Q115 85 138 68T194 51Q230 51 257 63T313 102Q312 116 312 144Q312 149 312 166T313 223Q237 219 176
193ZM274 972T303 948T333 878Q333 836 303 809T236 781Q196 781 167 805T137 875Q137 917 166 944T234 972Q274 972 303 948ZM215 941T203 925T190 881Q190 851 203 832T238 812Q256 812 268 828T280 871Q280 903 268 922T235 941Q215 941 203 925Z" />
<glyph unicode="&#xe6;" glyph-name="ae" horiz-adv-x="777" d="M634 516T681 463T730 295L425 289Q424 276 424 252Q424 150 465 93T573 35Q653 35 711 118L736 98Q660 -16 549 -16Q423 -16 371 79H370Q301 -16 180 -16Q113 -16 74 16T34 100Q34 158 80 198T195
257T336 275V336Q336 403 317 441T237 479Q204 479 176 463T138 420Q144 415 147 405T151 387Q151 373 141 359T110 345Q90 345 78 357T66 393Q66 424 89 452T154 498T252 516Q301 516 336 494T390 430Q419 470 460 493T553 516Q634 516 681 463ZM449 477T432 331H640Q640
396 621 436T549 477Q449 477 432 331ZM253 237T191 207T129 115Q129 80 150 62T199 41Q282 35 345 107Q336 184 335 241Q253 237 191 207Z" />
<glyph unicode="&#xe7;" glyph-name="ccedilla" horiz-adv-x="503" d="M444 47T399 19T305 -18L287 -74Q316 -57 355 -57Q386 -57 404 -75T422 -123Q422 -176 362 -203T226 -241L220 -208Q275 -198 307 -179T340 -131Q340 -101 308 -101Q285 -101 263 -116L229
-100L250 -20Q191 -15 143 15T66 97T37 219Q37 283 69 342T158 438T285 475Q335 475 375 459T438 415T461 357Q461 335 447 319T410 303Q388 303 376 319T364 350Q364 372 377 388Q366 412 340 420T287 429Q223 429 183 380T142 242Q142 151 184 95T297 39Q339
39 378 61T440 118H441L474 95Q444 47 399 19Z" />
<glyph unicode="&#xe8;" glyph-name="egrave" horiz-adv-x="512" d="M442 35T383 7T269 -21Q204 -21 152 9T69 96T38 226Q38 291 68 348T153 440T276 475Q331 475 375 451T444 379T469 262H468L142 257H143Q144 152 180 95T291 38Q335 38 379 60T446 114H448L478
90Q442 35 383 7ZM224 428T192 399T147 307H372Q371 358 348 393T277 428Q224 428 192 399ZM207 720T219 720Q241 720 260 693L344 558L316 535L204 641Q183 663 183 684Q183 700 195 712Q207 720 219 720Z" />
<glyph unicode="&#xe9;" glyph-name="eacute" horiz-adv-x="512" d="M442 35T383 7T269 -21Q204 -21 152 9T69 96T38 226Q38 291 68 348T153 440T276 475Q331 475 375 451T444 379T469 262H468L142 257H143Q144 152 180 95T291 38Q335 38 379 60T446 114H448L478
90Q442 35 383 7ZM224 428T192 399T147 307H372Q371 358 348 393T277 428Q224 428 192 399ZM319 720T307 720Q285 720 266 693L182 558L210 535L322 641Q343 663 343 684Q343 700 331 712Q319 720 307 720Z" />
<glyph unicode="&#xea;" glyph-name="ecircumflex" horiz-adv-x="512" d="M442 35T383 7T269 -21Q204 -21 152 9T69 96T38 226Q38 291 68 348T153 440T276 475Q331 475 375 451T444 379T469 262H468L142 257H143Q144 152 180 95T291 38Q335 38 379 60T446 114H448L478
90Q442 35 383 7ZM224 428T192 399T147 307H372Q371 358 348 393T277 428Q224 428 192 399ZM391 794L264 903H262L133 801L108 830L267 989H269L418 826L391 794Z" />
<glyph unicode="&#xeb;" glyph-name="edieresis" horiz-adv-x="512" d="M442 35T383 7T269 -21Q204 -21 152 9T69 96T38 226Q38 291 68 348T153 440T276 475Q331 475 375 451T444 379T469 262H468L142 257H143Q144 152 180 95T291 38Q335 38 379 60T446 114H448L478
90Q442 35 383 7ZM224 428T192 399T147 307H372Q371 358 348 393T277 428Q224 428 192 399ZM223 733T238 714T254 668Q254 641 238 623T200 604Q178 604 162 622T146 668Q146 695 162 714T201 733Q223 733 238 714ZM390 733T405 714T421 668Q421 641 405 623T367
604Q345 604 329 622T313 668Q313 695 329 714T368 733Q390 733 405 714Z" />
<glyph unicode="&#xec;" glyph-name="igrave" horiz-adv-x="281" d="M189 61T185 38L248 41V0H44V30Q73 30 85 44T100 81T103 152V380Q103 409 107 445L36 441V483Q95 483 120 490T160 510H189V106Q189 61 185 38ZM285 765T297 765Q319 765 338 738L422 603L394
580L282 686Q261 708 261 729Q261 745 273 757Q285 765 297 765Z" />
<glyph unicode="&#xed;" glyph-name="iacute" horiz-adv-x="281" d="M189 61T185 38L248 41V0H44V30Q73 30 85 44T100 81T103 152V380Q103 409 107 445L36 441V483Q95 483 120 490T160 510H189V106Q189 61 185 38ZM238 765T226 765Q204 765 185 738L101 603L129
580L241 686Q262 708 262 729Q262 745 250 757Q238 765 226 765Z" />
<glyph unicode="&#xee;" glyph-name="icircumflex" horiz-adv-x="281" d="M253 583L141 687H139L25 590L0 619L144 778H146L280 615L253 583ZM189 61T185 38L248 41V0H44V30Q73 30 85 44T100 81T103 152V380Q103 409 107 445L36 441V483Q95 483 120 490T160 510H189V106Q189
61 185 38Z" />
<glyph unicode="&#xef;" glyph-name="idieresis" horiz-adv-x="281" d="M189 61T185 38L248 41V0H44V30Q73 30 85 44T100 81T103 152V380Q103 409 107 445L36 441V483Q95 483 120 490T160 510H189V106Q189 61 185 38ZM91 733T106 714T122 668Q122 641 106 623T68
604Q46 604 30 622T14 668Q14 695 30 714T69 733Q91 733 106 714ZM231 733T246 714T262 668Q262 641 246 623T208 604Q186 604 170 622T154 668Q154 695 170 714T209 733Q231 733 246 714Z" />
<glyph unicode="&#xf0;" glyph-name="eth" horiz-adv-x="559" d="M276 710Q382 649 442 530T502 269Q502 143 441 64T259 -16Q199 -16 150 13T72 96T43 222Q43 295 70 358T147 458T265 496Q306 496 344 480T403 430H405Q388 497 347 562T243 669L182 592L146 622L204
691Q155 714 103 718L107 760Q174 756 237 729L291 793L320 766L276 710ZM215 455T179 394T143 243Q143 140 180 82T275 24Q313 24 344 48T394 119T413 233Q413 319 381 387T278 455Q215 455 179 394Z" />
<glyph unicode="&#xf1;" glyph-name="ntilde" horiz-adv-x="564" d="M539 0H344V41Q371 40 382 51T396 82T398 145V265Q397 343 374 379T297 416Q265 416 233 401T179 360Q180 351 180 328L179 103Q179 66 177 49L234 51V0H39V41Q66 40 77 51T90 81T93 145L94
345Q94 379 97 398L32 394V446Q90 446 110 452T144 470V471H174V469Q177 453 179 415V417Q211 444 250 460T327 476Q407 476 446 425T485 265V103Q485 66 482 49L539 51V0ZM256 938T272 930T310 908Q326 896 338 891T363 885Q385 885 404 898T436 933L465 918Q450
872 421 848T363 823Q340 823 322 831T280 855Q264 866 254 871T232 877Q212 877 192 867T159 835L129 852Q142 888 173 913T234 938Q256 938 272 930Z" />
<glyph unicode="&#xf2;" glyph-name="ograve" horiz-adv-x="497" d="M322 476T374 445T457 360T487 238Q487 166 457 107T375 13T258 -22Q194 -22 142 8T61 93T31 216Q31 289 60 348T142 442T258 476Q322 476 374 445ZM191 428T158 375T124 243Q124 153 160 91T265
29Q333 29 364 80T395 212Q395 301 361 364T258 428Q191 428 158 375ZM205 720T217 720Q239 720 258 693L342 558L314 535L202 641Q181 663 181 684Q181 700 193 712Q205 720 217 720Z" />
<glyph unicode="&#xf3;" glyph-name="oacute" horiz-adv-x="497" d="M322 476T374 445T457 360T487 238Q487 166 457 107T375 13T258 -22Q194 -22 142 8T61 93T31 216Q31 289 60 348T142 442T258 476Q322 476 374 445ZM191 428T158 375T124 243Q124 153 160 91T265
29Q333 29 364 80T395 212Q395 301 361 364T258 428Q191 428 158 375ZM317 720T305 720Q283 720 264 693L180 558L208 535L320 641Q341 663 341 684Q341 700 329 712Q317 720 305 720Z" />
<glyph unicode="&#xf4;" glyph-name="ocircumflex" horiz-adv-x="497" d="M322 476T374 445T457 360T487 238Q487 166 457 107T375 13T258 -22Q194 -22 142 8T61 93T31 216Q31 289 60 348T142 442T258 476Q322 476 374 445ZM191 428T158 375T124 243Q124 153 160
91T265 29Q333 29 364 80T395 212Q395 301 361 364T258 428Q191 428 158 375ZM389 794L262 903H260L131 801L106 830L265 989H267L416 826L389 794Z" />
<glyph unicode="&#xf5;" glyph-name="otilde" horiz-adv-x="497" d="M322 476T374 445T457 360T487 238Q487 166 457 107T375 13T258 -22Q194 -22 142 8T61 93T31 216Q31 289 60 348T142 442T258 476Q322 476 374 445ZM191 428T158 375T124 243Q124 153 160 91T265
29Q333 29 364 80T395 212Q395 301 361 364T258 428Q191 428 158 375ZM220 938T236 930T274 908Q290 896 302 891T327 885Q349 885 368 898T400 933L429 918Q414 872 385 848T327 823Q304 823 286 831T244 855Q228 866 218 871T196 877Q176 877 156 867T123 835L93
852Q106 888 137 913T198 938Q220 938 236 930Z" />
<glyph unicode="&#xf6;" glyph-name="odieresis" horiz-adv-x="497" d="M322 476T374 445T457 360T487 238Q487 166 457 107T375 13T258 -22Q194 -22 142 8T61 93T31 216Q31 289 60 348T142 442T258 476Q322 476 374 445ZM191 428T158 375T124 243Q124 153 160
91T265 29Q333 29 364 80T395 212Q395 301 361 364T258 428Q191 428 158 375ZM228 733T243 714T259 668Q259 641 243 623T205 604Q183 604 167 622T151 668Q151 695 167 714T206 733Q228 733 243 714ZM395 733T410 714T426 668Q426 641 410 623T372 604Q350 604
334 622T318 668Q318 695 334 714T373 733Q395 733 410 714Z" />
<glyph unicode="&#xf7;" glyph-name="divide" horiz-adv-x="264" d="M159 179T177 158T196 108Q196 79 177 59T132 38Q107 38 88 58T69 108Q69 137 88 158T133 179Q159 179 177 158ZM159 522T177 501T196 451Q196 422 177 402T132 381Q107 381 88 401T69 451Q69
480 88 501T133 522Q159 522 177 501Z" />
<glyph unicode="&#xf8;" glyph-name="oslash" horiz-adv-x="585" d="M456 370T471 328T487 238Q487 166 457 107T375 13T258 -22Q207 -22 164 -2L117 -75L80 -48L124 21Q80 53 56 104T31 216Q31 289 60 348T142 442T258 476Q329 476 386 438L466 565L513 534L427
402Q456 370 471 328ZM124 197T134 156T164 86L350 381Q314 428 258 428Q191 428 158 375T124 243Q124 197 134 156ZM395 278T378 326L198 50Q229 29 265 29Q333 29 364 80T395 212Q395 278 378 326Z" />
<glyph unicode="&#xf9;" glyph-name="ugrave" horiz-adv-x="558" d="M534 -6H392Q387 18 385 43Q354 15 315 -3T238 -21Q158 -21 120 26T81 184V345Q81 380 83 399L21 396V445H55Q92 445 109 451T138 470H173V186Q173 109 194 74T266 38Q299 38 330 57T381 104V335Q381
374 385 399L320 396V445H353Q390 445 408 451T437 470H472L471 120Q471 74 467 41L534 44V-6ZM211 720T223 720Q245 720 264 693L348 558L320 535L208 641Q187 663 187 684Q187 700 199 712Q211 720 223 720Z" />
<glyph unicode="&#xfa;" glyph-name="uacute" horiz-adv-x="558" d="M534 -6H392Q387 18 385 43Q354 15 315 -3T238 -21Q158 -21 120 26T81 184V345Q81 380 83 399L21 396V445H55Q92 445 109 451T138 470H173V186Q173 109 194 74T266 38Q299 38 330 57T381 104V335Q381
374 385 399L320 396V445H353Q390 445 408 451T437 470H472L471 120Q471 74 467 41L534 44V-6ZM323 720T311 720Q289 720 270 693L186 558L214 535L326 641Q347 663 347 684Q347 700 335 712Q323 720 311 720Z" />
<glyph unicode="&#xfb;" glyph-name="ucircumflex" horiz-adv-x="558" d="M534 -6H392Q387 18 385 43Q354 15 315 -3T238 -21Q158 -21 120 26T81 184V345Q81 380 83 399L21 396V445H55Q92 445 109 451T138 470H173V186Q173 109 194 74T266 38Q299 38 330 57T381
104V335Q381 374 385 399L320 396V445H353Q390 445 408 451T437 470H472L471 120Q471 74 467 41L534 44V-6ZM395 794L268 903H266L137 801L112 830L271 989H273L422 826L395 794Z" />
<glyph unicode="&#xfc;" glyph-name="udieresis" horiz-adv-x="558" d="M534 -6H392Q387 18 385 43Q354 15 315 -3T238 -21Q158 -21 120 26T81 184V345Q81 380 83 399L21 396V445H55Q92 445 109 451T138 470H173V186Q173 109 194 74T266 38Q299 38 330 57T381
104V335Q381 374 385 399L320 396V445H353Q390 445 408 451T437 470H472L471 120Q471 74 467 41L534 44V-6ZM244 733T259 714T275 668Q275 641 259 623T221 604Q199 604 183 622T167 668Q167 695 183 714T222 733Q244 733 259 714ZM411 733T426 714T442 668Q442
641 426 623T388 604Q366 604 350 622T334 668Q334 695 350 714T389 733Q411 733 426 714Z" />
<glyph unicode="&#xfd;" glyph-name="yacute" horiz-adv-x="490" d="M491 422H490Q458 411 442 387T405 307L289 -10Q255 -102 233 -150T182 -225T112 -252Q81 -252 60 -236T38 -191Q38 -172 51 -157T85 -141Q106 -141 116 -156T126 -186Q126 -191 125 -195Q136
-197 148 -189T173 -162Q196 -122 236 -10L92 292Q57 369 44 413L-1 411V461H201V421H192Q172 419 163 412T153 390Q153 370 175 323L279 105Q293 143 304 175T324 233L354 322Q377 389 392 414L336 411V461H491V422ZM322 720T310 720Q288 720 269 693L185 558L213
535L325 641Q346 663 346 684Q346 700 334 712Q322 720 310 720Z" />
<glyph unicode="&#xfe;" glyph-name="thorn" horiz-adv-x="577" d="M191 487T230 501T311 516Q372 516 423 485T504 397T534 264Q534 181 500 118T407 19T279 -16Q209 -16 160 15V-149Q160 -194 156 -217L219 -214V-255H15V-225Q44 -225 56 -211T71 -175T74 -103L76
625Q76 667 80 690L9 686V728Q68 728 93 735T132 755H161L160 462Q191 487 230 501ZM244 467T214 453T160 416V62Q210 24 277 24Q347 24 389 86T431 249Q431 339 392 403T277 467Q244 467 214 453Z" />
<glyph unicode="&#xff;" glyph-name="ydieresis" horiz-adv-x="490" d="M491 422H490Q458 411 442 387T405 307L289 -10Q255 -102 233 -150T182 -225T112 -252Q81 -252 60 -236T38 -191Q38 -172 51 -157T85 -141Q106 -141 116 -156T126 -186Q126 -191 125 -195Q136
-197 148 -189T173 -162Q196 -122 236 -10L92 292Q57 369 44 413L-1 411V461H201V421H192Q172 419 163 412T153 390Q153 370 175 323L279 105Q293 143 304 175T324 233L354 322Q377 389 392 414L336 411V461H491V422ZM229 733T244 714T260 668Q260 641 244 623T206
604Q184 604 168 622T152 668Q152 695 168 714T207 733Q229 733 244 714ZM396 733T411 714T427 668Q427 641 411 623T373 604Q351 604 335 622T319 668Q319 695 335 714T374 733Q396 733 411 714Z" />
<glyph unicode="&#x2013;" glyph-name="endash" horiz-adv-x="590" d="M61 279V361H526V283L61 279Z" />
<glyph unicode="&#x2014;" glyph-name="emdash" horiz-adv-x="700" d="M61 279V361H636V283L61 279Z" />
<glyph unicode="&#x2018;" glyph-name="quoteleft" horiz-adv-x="224" d="M82 474T62 502T41 571Q41 614 64 675T120 767L155 741Q136 720 119 676T105 589Q114 593 126 593Q148 593 162 578T177 538Q177 509 160 492T117 474Q82 474 62 502Z" />
<glyph unicode="&#x2019;" glyph-name="quoteright" horiz-adv-x="174" d="M115 766T135 738T156 669Q156 626 133 565T77 473L42 499Q61 520 78 564T92 651Q83 647 71 647Q49 647 35 662T20 702Q20 731 37 748T80 766Q115 766 135 738Z" />
<glyph unicode="&#x201a;" glyph-name="quotesinglbase" horiz-adv-x="253" d="M156 107T176 79T197 10Q197 -33 174 -94T118 -186L83 -160Q102 -139 119 -95T133 -8Q124 -12 112 -12Q90 -12 76 3T61 43Q61 72 78 89T121 107Q156 107 176 79Z" />
<glyph unicode="&#x201c;" glyph-name="quotedblleft" horiz-adv-x="400" d="M82 474T62 502T41 571Q41 614 64 675T120 767L155 741Q136 720 119 676T105 589Q114 593 126 593Q148 593 162 578T177 538Q177 509 160 492T117 474Q82 474 62 502ZM258 474T238 502T217
571Q217 614 240 675T296 767L331 741Q312 720 295 676T281 589Q290 593 302 593Q324 593 338 578T353 538Q353 509 336 492T293 474Q258 474 238 502Z" />
<glyph unicode="&#x201d;" glyph-name="quotedblright" horiz-adv-x="349" d="M115 766T135 738T156 669Q156 626 133 565T77 473L42 499Q61 520 78 564T92 651Q83 647 71 647Q49 647 35 662T20 702Q20 731 37 748T80 766Q115 766 135 738ZM291 766T311 738T332
669Q332 626 309 565T253 473L218 499Q237 520 254 564T268 651Q259 647 247 647Q225 647 211 662T196 702Q196 731 213 748T256 766Q291 766 311 738Z" />
<glyph unicode="&#x201e;" glyph-name="quotedblbase" horiz-adv-x="429" d="M156 107T176 79T197 10Q197 -33 174 -94T118 -186L83 -160Q102 -139 119 -95T133 -8Q124 -12 112 -12Q90 -12 76 3T61 43Q61 72 78 89T121 107Q156 107 176 79ZM332 107T352 79T373
10Q373 -33 350 -94T294 -186L259 -160Q278 -139 295 -95T309 -8Q300 -12 288 -12Q266 -12 252 3T237 43Q237 72 254 89T297 107Q332 107 352 79Z" />
<glyph unicode="&#x2022;" glyph-name="bullet" horiz-adv-x="401" d="M241 522T275 503T330 449T351 374Q351 333 331 299T276 246T200 226Q159 226 125 245T70 299T50 374Q50 415 70 449T124 502T200 522Q241 522 275 503Z" />
<glyph unicode="&#x2039;" glyph-name="guilsinglleft" horiz-adv-x="383" d="M26 271L305 -15L343 25L145 279L341 517L302 557L26 281V271Z" />
<glyph unicode="&#x203a;" glyph-name="guilsinglright" horiz-adv-x="383" d="M356 271L77 -15L39 25L237 279L41 517L80 557L356 281V271Z" />
</font>
</defs>
</svg>
