<?xml version="1.0" standalone="no"?>
<!DOCTYPE svg PUBLIC "-//W3C//DTD SVG 1.1//EN" "http://www.w3.org/Graphics/SVG/1.1/DTD/svg11.dtd">
<svg xmlns="http://www.w3.org/2000/svg">
<defs >
<font id="JosefinSans" horiz-adv-x="595" ><font-face
    font-family="Josefin Sans SemiBold"
    units-per-em="1000"
    panose-1="0 0 7 0 0 0 0 0 0 0"
    ascent="750"
    descent="-250"
    alphabetic="0" />
<glyph unicode=" " glyph-name="space" horiz-adv-x="300" />
<glyph unicode="!" glyph-name="exclam" horiz-adv-x="201" d="M223 754L153 184H53L123 754H223ZM54 -8T37 7T20 45Q20 71 38 89T85 107Q113 107 129 92T146 54Q146 45 145 41Q141 18 124 5T83 -8Q54 -8 37 7Z" />
<glyph unicode="&quot;" glyph-name="quotedbl" horiz-adv-x="350" d="M218 479H123L153 731H252L218 479ZM384 696T371 609L353 479H258L289 731H388Q384 696 371 609Z" />
<glyph unicode="#" glyph-name="numbersign" horiz-adv-x="580" d="M330 575T304 466H390Q399 505 428 621L436 653H538Q527 614 520 585T508 536Q505 521 491 466H586L579 432Q575 411 565 369H468L447 280H543L534 245Q531 234 527 219T519 182H423Q407 114
401 91L379 0H278Q299 89 315 152L322 182H236L218 108Q209 72 193 0H90L97 30Q113 93 134 182H47L56 217Q59 228 63 243T71 280H158Q166 310 169 325L180 369H93Q101 401 104 418L115 466H202L214 513Q247 641 250 653H351Q330 575 304 466ZM275 342Q261 285 260
280H346L366 369H281L275 342Z" />
<glyph unicode="$" glyph-name="dollar" horiz-adv-x="583" d="M443 379T483 336T524 219Q524 201 523 192Q518 141 490 97T410 25T290 -6L282 -68H213L221 -3Q165 5 114 28T21 86L83 173Q111 147 151 128T233 100L261 334Q193 367 153 408T112 515Q112 530 113
537Q122 625 185 676T345 729L353 795H422L413 723Q462 714 501 696T578 652L522 567Q455 607 401 620L375 409Q443 379 483 336ZM234 484T310 441L332 625Q285 621 260 595T234 533Q234 484 310 441ZM406 257T327 301L302 100Q344 108 371 133T402 198Q406 257
327 301Z" />
<glyph unicode="%" glyph-name="percent" horiz-adv-x="829" d="M152 282T117 322T81 433Q81 520 124 577T244 634Q307 634 344 593T382 479Q382 422 363 376T305 303T214 278Q152 282 117 322ZM230 -2L120 0L640 635H752L230 -2ZM274 357T283 461Q284 469 284
484Q284 554 240 554Q212 554 198 528T180 452Q177 404 189 381T223 357Q274 357 283 461ZM544 -17T509 23T474 134Q474 221 517 278T637 336Q701 336 738 295T775 180Q775 123 755 77T697 4T605 -21Q544 -17 509 23ZM647 57T661 94T676 186Q676 253 634 256Q606
257 592 231T572 153Q569 106 580 83T614 58Q647 57 661 94Z" />
<glyph unicode="&amp;" glyph-name="ampersand" horiz-adv-x="716" d="M536 173L643 0H508L471 59Q437 26 390 8T283 -11Q216 -11 162 16T78 90T48 196Q48 250 75 296T147 375T247 422L228 452Q212 477 200 510T187 576Q187 621 211 663T282 733T392 760Q452 760
499 736T575 673L507 596Q477 629 451 645T398 662Q357 662 333 639T307 580Q304 553 331 503L479 265L564 434H670L536 173ZM377 92T420 142L297 340Q248 335 211 300T170 216Q167 181 183 153T232 108T303 92Q377 92 420 142Z" />
<glyph unicode="&apos;" glyph-name="quotesingle" horiz-adv-x="169" d="M223 696T210 609L192 479H95L126 731H227Q223 696 210 609Z" />
<glyph unicode="(" glyph-name="parenleft" horiz-adv-x="390" d="M105 433T169 557T316 756L399 705Q324 632 272 524T207 280Q203 228 203 204Q203 102 228 18T298 -127L202 -168Q152 -103 120 -3T87 213Q87 236 91 286Q105 433 169 557Z" />
<glyph unicode=")" glyph-name="parenright" horiz-adv-x="390" d="M305 157T241 33T94 -165L11 -114Q86 -42 138 66T202 311Q206 347 206 390Q206 490 181 573T112 717L208 758Q258 694 290 594T323 377Q323 354 319 304Q305 157 241 33Z" />
<glyph unicode="*" glyph-name="asterisk" horiz-adv-x="335" d="M121 475Q117 484 94 536L172 576L106 619Q118 638 144 676L213 633L223 720H293L281 633L361 675Q369 656 387 618L353 600Q338 591 306 575L375 533L361 513Q352 500 345 490T333 473L265 516L254
434H188L198 517L121 475Z" />
<glyph unicode="+" glyph-name="plus" horiz-adv-x="552" d="M372 417L356 283H488L476 185H344L328 52H225L242 185H110L122 283H254L270 417H372Z" />
<glyph unicode="," glyph-name="comma" horiz-adv-x="204" d="M-13 -167Q7 -150 18 -120T29 -57Q29 -49 27 -33L126 -34Q127 -40 127 -52Q127 -95 105 -139T44 -207L-13 -167Z" />
<glyph unicode="-" glyph-name="hyphen" horiz-adv-x="305" d="M274 270L262 172H75L87 270H274Z" />
<glyph unicode="." glyph-name="period" horiz-adv-x="166" d="M33 82T54 102T102 122Q122 122 137 106T153 66Q153 38 132 19T87 0Q65 0 49 15T33 54Q33 82 54 102Z" />
<glyph unicode="/" glyph-name="slash" horiz-adv-x="399" d="M305 365Q274 301 227 205T116 -19H15L392 748H494L305 365Z" />
<glyph unicode="0" glyph-name="zero" horiz-adv-x="648" d="M241 0T184 30T93 122T59 275Q59 334 81 423T172 588T370 665Q436 665 493 634T585 543T620 398Q620 371 618 356Q611 256 575 176T472 48T313 0Q241 0 184 30ZM377 110T414 148T472 245T496 369Q499
467 459 511T354 555Q302 555 264 517T206 420T182 296Q179 199 219 155T324 110Q377 110 414 148Z" />
<glyph unicode="1" glyph-name="one" horiz-adv-x="359" d="M310 660L229 0H112L179 548H113L127 660H310Z" />
<glyph unicode="2" glyph-name="two" horiz-adv-x="575" d="M531 419T512 369T446 259T310 112H513L500 0H39Q201 146 280 230T384 360T409 448Q409 502 379 529T299 556Q241 556 212 522T183 444Q183 391 210 358L132 293Q107 320 88 364T69 453Q69 502 94 551T174
634T312 668Q414 668 472 617T531 476Q531 419 512 369Z" />
<glyph unicode="3" glyph-name="three" horiz-adv-x="507" d="M350 414T387 391T446 328T468 237Q468 176 443 120T363 29T225 -7Q174 -7 121 15T35 78L105 169Q125 139 158 122T224 105Q282 105 315 141T348 232Q348 284 311 313T213 342Q192 342 172 338T141
328L138 332L289 548H106L120 660H471L306 419Q350 414 387 391Z" />
<glyph unicode="4" glyph-name="four" horiz-adv-x="518" d="M500 242L489 153H407L388 0H271L290 153H-5V154L468 668H469L417 242H500ZM300 242L320 401L180 242H300Z" />
<glyph unicode="5" glyph-name="five" horiz-adv-x="519" d="M318 437T364 416T442 348T473 231Q473 173 448 119T370 28T235 -8Q191 -8 135 13T45 76L117 164Q138 134 169 120T231 106Q292 106 322 140T353 225Q353 287 313 314T220 343Q153 343 94 304H92L163
660H478L465 548H237L214 432Q237 438 270 438Q318 437 364 416Z" />
<glyph unicode="6" glyph-name="six" horiz-adv-x="571" d="M389 425T431 404T502 339T531 229Q531 175 503 120T419 29T283 -8Q217 -8 165 21T84 104T55 233Q55 346 135 457T403 667L470 578Q382 545 319 494T220 384Q272 425 350 425Q389 425 431 404ZM330 97T358
117T399 167T411 224Q411 272 378 301T295 330Q249 330 221 310T181 263T169 209Q169 162 201 130T284 97Q330 97 358 117Z" />
<glyph unicode="7" glyph-name="seven" horiz-adv-x="495" d="M528 660L192 0H57L340 548H76L90 660H528Z" />
<glyph unicode="8" glyph-name="eight" horiz-adv-x="559" d="M40 275T81 326T186 404Q163 426 151 448T138 501Q138 540 157 578T217 642T320 668Q370 668 411 649T475 598T499 527Q499 481 479 450T419 391Q462 364 491 322T521 223Q521 178 494 124T409 31T269
-8Q203 -8 151 21T69 98T40 201Q40 275 81 326ZM250 473T269 455T314 437Q347 437 366 458T385 505Q385 534 367 552T322 570Q289 570 270 550T250 498Q250 473 269 455ZM159 157T189 124T271 90Q309 90 339 108T387 156T405 223Q405 272 373 306T291 340Q250 340
220 321T175 270T159 207Q159 157 189 124Z" />
<glyph unicode="9" glyph-name="nine" horiz-adv-x="562" d="M381 648T434 619T516 539T545 425Q540 300 450 198T165 -4L98 86Q179 116 243 155T349 236Q309 215 252 215Q207 216 164 239T93 307T65 410Q65 464 93 519T177 611T314 648Q381 648 434 619ZM412
310T426 424Q429 456 415 483T374 526T311 543Q270 543 242 523T200 473T186 414Q186 367 218 339T301 310Q412 310 426 424Z" />
<glyph unicode=":" glyph-name="colon" horiz-adv-x="178" d="M67 359T88 379T136 399Q156 399 171 383T187 344Q187 316 166 297T121 277Q99 277 83 292T67 331Q67 359 88 379ZM33 82T54 102T102 122Q122 122 137 106T153 66Q153 38 132 19T87 0Q65 0 49 15T33
54Q33 82 54 102Z" />
<glyph unicode=";" glyph-name="semicolon" horiz-adv-x="204" d="M98 336T119 356T166 376Q187 376 202 360T218 320Q218 291 197 273T150 254Q129 254 114 269T98 308Q98 336 119 356ZM58 -122H-33L25 -6L72 88H171L58 -122Z" />
<glyph unicode="&lt;" glyph-name="less" horiz-adv-x="583" d="M239 123T50 242L208 327L524 497L507 360L288 242L479 124L462 -14Q239 123 50 242Z" />
<glyph unicode="=" glyph-name="equal" horiz-adv-x="719" d="M664 400L652 302H138L150 400H664ZM640 203L628 105H114L126 203H640Z" />
<glyph unicode="&gt;" glyph-name="greater" horiz-adv-x="577" d="M311 242L119 360L136 497Q214 450 368 354Q402 333 447 305T549 242L526 230Q270 91 73 -14L90 124L311 242Z" />
<glyph unicode="?" glyph-name="question" horiz-adv-x="446" d="M142 298T155 319T186 355T235 389L274 415Q365 480 365 558Q365 596 342 620T280 645Q226 645 199 623T149 551Q97 570 65 584Q94 649 144 696T292 744Q342 744 382 720T445 656T468 566Q468 505
437 457T345 368Q340 364 336 362T328 357Q289 333 266 309T237 246L227 166H126L138 265Q142 298 155 319ZM132 -5T116 10T100 49Q100 76 121 96T168 116Q189 116 204 100T220 60Q220 32 199 14T153 -5Q132 -5 116 10Z" />
<glyph unicode="@" glyph-name="at" horiz-adv-x="1031" d="M724 659T813 612T950 483T997 300Q997 218 965 147T874 34T742 -8Q698 -8 666 14T622 76Q591 41 543 15T445 -11Q390 -11 347 12T279 80T254 184Q254 255 285 314T372 407T499 442Q559 442 593 421T648
361L665 423H771L734 156Q733 150 733 138Q733 94 770 94Q800 94 828 121T875 195T893 300Q893 375 858 436T753 534T585 571Q422 571 323 502T182 341T141 172Q141 69 183 0T297 -102T461 -135Q518 -135 574 -117T682 -67L727 -132Q670 -176 593 -199T444 -222Q331
-222 240 -179T94 -47T40 168Q40 283 99 396T284 584T601 659Q724 659 813 612ZM534 81T567 104T620 171L633 263Q626 302 595 326T517 350Q478 350 445 329T392 274T373 200Q373 149 405 115T489 81Q534 81 567 104Z" />
<glyph unicode="A" glyph-name="A" horiz-adv-x="699" d="M465 171H200L109 0H-5L410 758H417L646 0H512L465 171ZM438 271L376 498L254 271H438Z" />
<glyph unicode="B" glyph-name="B" horiz-adv-x="624" d="M500 357T533 320T567 221Q567 146 531 97T435 24T303 0H72L161 728H359Q574 728 574 567Q574 501 545 446T450 371Q500 357 533 320ZM243 418H338Q377 418 403 436T440 482T452 536Q452 578 425 599T348
620H268L243 418ZM372 108T410 140T449 226Q449 273 413 295T322 317H231L206 108H308Q372 108 410 140Z" />
<glyph unicode="C" glyph-name="C" horiz-adv-x="699" d="M591 21T537 4T422 -13Q335 -13 256 22T125 134T74 326Q74 431 114 523T240 674T454 732Q525 732 584 711T686 658L626 552Q593 580 549 600T452 620Q372 620 314 582T226 479T195 335Q195 266 224 213T305
130T427 100Q478 100 513 113T586 147L622 40Q591 21 537 4Z" />
<glyph unicode="D" glyph-name="D" horiz-adv-x="758" d="M161 728H392Q509 728 582 684T689 568T722 407Q722 392 720 362Q711 252 657 170T517 44T333 0H72L161 728ZM329 112Q444 112 518 179T602 370Q604 394 604 404Q604 478 572 526T491 595T386 617H264L202
112H329Z" />
<glyph unicode="E" glyph-name="E" horiz-adv-x="659" d="M644 728L631 620H268L244 420H566L553 310H230L206 111H583L569 0H72L161 728H644Z" />
<glyph unicode="F" glyph-name="F" horiz-adv-x="593" d="M602 728L589 618H268L243 411H523L508 300H228L192 0H72L161 728H602Z" />
<glyph unicode="G" glyph-name="G" horiz-adv-x="764" d="M634 26T565 8T435 -11Q365 -11 281 21T135 128T73 326Q73 420 115 513T246 668T467 731Q531 731 595 714T709 664L657 559Q619 584 569 599T473 614Q374 614 311 570T221 462T194 330Q194 250 238 199T342
126T456 104Q518 104 555 122L570 252H433L447 363H702L665 50Q634 26 565 8Z" />
<glyph unicode="H" glyph-name="H" horiz-adv-x="793" d="M663 0H543L582 310H230L192 0H72L161 728H281L244 423H595L632 728H752L663 0Z" />
<glyph unicode="I" glyph-name="I" horiz-adv-x="322" d="M281 728L192 0H72L161 728H281Z" />
<glyph unicode="J" glyph-name="J" horiz-adv-x="382" d="M259 52T217 -13T108 -113T-40 -151L-26 -38Q47 -34 95 10T154 144L225 728H342L270 141Q259 52 217 -13Z" />
<glyph unicode="K" glyph-name="K" horiz-adv-x="687" d="M236 412L256 435L565 728H716L376 410L637 0H490L282 336L225 286L190 0H72L161 728H279L245 449L236 412Z" />
<glyph unicode="L" glyph-name="L" horiz-adv-x="620" d="M277 728L202 112H561L547 0H72L161 728H277Z" />
<glyph unicode="M" glyph-name="M" horiz-adv-x="936" d="M899 754L806 0H690L742 422L442 59H440L234 404L184 0H72L164 754H165L465 240L897 754H899Z" />
<glyph unicode="N" glyph-name="N" horiz-adv-x="844" d="M804 728L711 -26H708L246 484L189 0H72L164 753H169L629 236L687 728H804Z" />
<glyph unicode="O" glyph-name="O" horiz-adv-x="856" d="M333 -7T253 32T124 149T74 339Q74 432 119 523T255 675T470 735Q560 735 640 696T769 579T819 389Q819 296 774 205T638 53T423 -7Q333 -7 253 32ZM516 105T577 147T669 253T699 383Q699 447 669 502T585
590T465 623Q374 623 313 581T223 475T194 345Q194 281 223 226T306 138T425 105Q516 105 577 147Z" />
<glyph unicode="P" glyph-name="P" horiz-adv-x="598" d="M476 728T540 674T604 523Q604 457 575 395T484 293T325 253H223L192 0H72L161 728H366Q476 728 540 674ZM387 365T420 388T468 444T483 506Q483 548 455 582T366 616H268L237 365H335Q387 365 420 388Z" />
<glyph unicode="Q" glyph-name="Q" horiz-adv-x="943" d="M878 0H544Q509 -7 465 -7Q375 -7 295 32T166 149T116 339Q116 432 161 523T297 675T512 735Q602 735 682 696T811 579T861 389Q861 311 829 232T734 95L892 114L878 0ZM236 281T265 226T348 138T467 105Q558
105 619 147T711 253T741 383Q741 447 711 502T627 590T507 623Q416 623 355 581T265 475T236 345Q236 281 265 226Z" />
<glyph unicode="R" glyph-name="R" horiz-adv-x="671" d="M598 426T562 369T462 281L605 0H469L336 253H325H220L188 0H72L161 728H366Q478 728 543 675T608 528Q608 518 606 494Q598 426 562 369ZM486 550T460 583T372 616H264L233 365H337Q391 365 424 388T472
444T486 507Q486 550 460 583Z" />
<glyph unicode="S" glyph-name="S" horiz-adv-x="574" d="M425 626T353 626Q298 626 268 602T234 540Q231 501 267 471T369 412Q441 380 482 337T524 218Q524 161 496 110T412 26T277 -6Q204 -6 138 18T21 86L83 173Q119 140 171 119T269 97Q323 97 360 124T402
198Q405 237 375 266T290 320Q234 346 199 368T138 427T112 515Q112 581 143 630T230 704T354 729Q426 726 478 706T578 652L522 567Q425 626 353 626Z" />
<glyph unicode="T" glyph-name="T" horiz-adv-x="583" d="M596 728L581 614H396L320 0H200L276 614H95L109 728H596Z" />
<glyph unicode="U" glyph-name="U" horiz-adv-x="766" d="M223 255T223 242Q223 184 263 145T366 105Q412 105 451 126T517 183T548 262L605 728H725L668 259Q658 181 614 120T501 26T352 -8Q280 -8 223 21T134 102T102 223Q102 247 104 259L161 728H281L224 262Q223
255 223 242Z" />
<glyph unicode="V" glyph-name="V" horiz-adv-x="729" d="M754 728L338 -28H334L102 728H241L375 252L617 728H754Z" />
<glyph unicode="W" glyph-name="W" horiz-adv-x="1017" d="M664 -32L546 401L300 -34L102 724H238L347 239L506 548L458 724H574L703 253L917 724H1042L664 -32Z" />
<glyph unicode="X" glyph-name="X" horiz-adv-x="659" d="M428 367L623 0H473L329 274L135 0H-10L275 376L90 728H237L376 465L562 728H703L428 367Z" />
<glyph unicode="Y" glyph-name="Y" horiz-adv-x="704" d="M745 728L412 236L383 0H266L295 236L87 728H229L373 369L601 728H745Z" />
<glyph unicode="Z" glyph-name="Z" horiz-adv-x="666" d="M220 112H631L617 0H2L477 616H211Q178 616 153 635T131 682L141 765H248L247 751Q246 739 252 734T276 728H699L220 112Z" />
<glyph unicode="[" glyph-name="bracketleft" horiz-adv-x="351" d="M367 758L355 659H253L166 -54H268L256 -151H54L165 758H367Z" />
<glyph unicode="\" glyph-name="backslash" horiz-adv-x="406" d="M232 621Q295 366 389 -19H276L87 748H201L232 621Z" />
<glyph unicode="]" glyph-name="bracketright" horiz-adv-x="365" d="M329 758L218 -151H15L28 -54H130L217 659H115L127 758H329Z" />
<glyph unicode="^" glyph-name="asciicircum" horiz-adv-x="477" d="M344 493T326 520T304 556L274 522L243 487H173L318 670L417 487H348Q344 493 326 520Z" />
<glyph unicode="_" glyph-name="underscore" horiz-adv-x="609" d="M520 97L508 0H102L114 97H520Z" />
<glyph unicode="`" glyph-name="grave" horiz-adv-x="204" d="M226 487H156L37 621H161L226 487Z" />
<glyph unicode="a" glyph-name="a" horiz-adv-x="601" d="M549 423L498 0H386L393 61Q367 34 324 12T221 -9Q175 -10 134 15T67 87T42 197Q42 258 71 314T155 406T279 442Q385 442 430 364L446 423H549ZM417 260Q410 301 378 325T299 350Q251 350 220 328T173
274T158 210Q158 152 192 117T283 81Q322 81 355 104T406 168L417 260Z" />
<glyph unicode="b" glyph-name="b" horiz-adv-x="607" d="M422 442T467 418T539 347T566 230Q566 167 536 112T449 23T320 -11Q270 -11 233 7T171 58L163 0H51L147 780H258L209 379Q236 407 277 424T367 442Q422 442 467 418ZM356 84T388 105T436 159T451 223Q451
284 418 319T327 354Q283 354 249 331T197 268L185 177Q199 137 228 111T307 84Q356 84 388 105Z" />
<glyph unicode="c" glyph-name="c" horiz-adv-x="470" d="M378 9T339 -1T262 -12Q215 -12 164 7T77 73T41 192Q41 252 69 307T150 397T277 432Q386 432 452 368L388 299Q370 316 344 328T284 340Q250 340 220 322T172 271T154 200Q154 149 189 114T282 79Q323
79 359 102L407 28Q378 9 339 -1Z" />
<glyph unicode="d" glyph-name="d" horiz-adv-x="607" d="M600 780L504 0H392L399 55Q325 -10 250 -10Q191 -10 144 17T69 92T42 194Q42 257 72 314T158 406T290 442Q336 442 375 426T440 381L488 780H600ZM424 263Q417 303 384 328T303 354Q239 354 198 316T157
213Q157 155 192 120T286 85Q326 85 360 108T414 172L424 263Z" />
<glyph unicode="e" glyph-name="e" horiz-adv-x="535" d="M322 85T366 113L406 26Q374 9 338 0T269 -10Q165 -10 104 46T42 206Q42 262 69 316T153 406T289 441Q475 441 506 235L171 146Q187 115 217 100T281 85Q322 85 366 113ZM224 353T189 314T154 219V212L385
275Q374 311 348 332T286 353Q224 353 189 314Z" />
<glyph unicode="f" glyph-name="f" horiz-adv-x="402" d="M125 325H53L66 424H138L158 590Q169 679 220 729T355 779Q380 779 408 772T456 750L398 669Q384 687 356 687Q283 687 270 587L250 424H382L369 325H237L198 0H86L125 325Z" />
<glyph unicode="g" glyph-name="g" horiz-adv-x="615" d="M564 423L508 -22Q498 -109 429 -160T258 -211Q181 -211 133 -189T41 -124L117 -48Q148 -80 183 -96T268 -113Q322 -113 357 -84T399 -3L407 65Q383 30 343 10T249 -11Q190 -11 143 15T69 91T42 208Q42
258 69 312T152 404T286 442Q342 442 384 424T445 373L461 423H564ZM431 260Q422 301 388 325T306 350Q255 350 222 328T173 272T157 208Q157 150 192 116T288 81Q329 81 365 104T420 168L431 260Z" />
<glyph unicode="h" glyph-name="h" horiz-adv-x="570" d="M437 441T471 410T506 328L505 314L467 0H355L388 275Q390 308 375 326T326 345Q273 345 234 301T187 187L164 0H52L147 780H257L206 356Q235 395 280 418T381 441Q437 441 471 410Z" />
<glyph unicode="i" glyph-name="i" horiz-adv-x="266" d="M215 423L163 0H51L103 423H215ZM112 596T131 614T179 632Q204 632 222 618T241 577Q241 550 222 532T173 513Q149 514 130 528T111 569Q112 596 131 614Z" />
<glyph unicode="j" glyph-name="j" horiz-adv-x="279" d="M52 -89T63 0L116 423H228L176 0Q157 -149 34 -207L-22 -138Q52 -89 63 0ZM122 595T141 613T189 631Q214 631 232 617T251 576Q251 549 232 531T183 512Q159 513 140 527T121 568Q122 595 141 613Z" />
<glyph unicode="k" glyph-name="k" horiz-adv-x="518" d="M321 253L462 0H331L235 192L183 154L164 0H52L147 780H259L197 272L427 433L489 373L321 253Z" />
<glyph unicode="l" glyph-name="l" horiz-adv-x="267" d="M259 780L164 0H52L147 780H259Z" />
<glyph unicode="m" glyph-name="m" horiz-adv-x="841" d="M712 442T744 412T777 331Q777 321 776 315L738 0H626L660 272Q662 306 652 324T611 345Q559 345 521 299T475 190L451 0H339L372 272L373 287Q373 341 322 345Q271 345 233 299T187 190L164 0H52L103
423H204L203 350Q234 394 277 418T375 442Q426 442 457 420T493 355Q526 395 568 418T655 442Q712 442 744 412Z" />
<glyph unicode="n" glyph-name="n" horiz-adv-x="570" d="M437 441T471 410T506 329Q506 319 505 314L467 0H355L389 274Q391 308 375 326T323 345Q271 345 233 301T187 187L164 0H52L103 423H204L205 355Q233 395 278 418T380 441Q437 441 471 410Z" />
<glyph unicode="o" glyph-name="o" horiz-adv-x="557" d="M215 -11T163 12T76 83T42 198Q42 256 67 311T148 404T289 441Q348 441 400 416T484 344T516 232Q516 180 493 124T414 29T270 -11Q215 -11 163 12ZM317 82T346 104T388 160T402 227Q402 271 384 298T338
337T285 349Q241 349 212 327T169 271T155 203Q155 142 191 112T273 82Q317 82 346 104Z" />
<glyph unicode="p" glyph-name="p" horiz-adv-x="596" d="M415 442T460 418T531 351T557 250Q557 180 524 120T432 25T294 -11Q258 -11 223 2T164 39L137 -203H26L105 431H202L201 382Q288 442 361 442Q415 442 460 418ZM335 83T370 104T424 159T443 233Q443 285
407 319T322 353Q279 353 245 330T190 263L179 175Q189 136 216 110T291 83Q335 83 370 104Z" />
<glyph unicode="q" glyph-name="q" horiz-adv-x="600" d="M549 423L471 -203H359L390 42Q323 -10 238 -9Q189 -10 144 14T70 86T41 194Q41 258 72 315T159 407T281 442Q387 442 431 369L444 423H549ZM313 80T348 103T404 169L417 257Q407 296 378 322T301 349Q257
349 223 329T169 274T150 199Q150 147 185 114T270 80Q313 80 348 103Z" />
<glyph unicode="r" glyph-name="r" horiz-adv-x="393" d="M198 324Q228 378 282 410T381 442L362 330Q316 334 278 314T215 258T186 182L163 0H52L103 423H204L198 324Z" />
<glyph unicode="s" glyph-name="s" horiz-adv-x="424" d="M149 -9T101 8T19 69L74 129Q104 93 132 82T190 70Q221 70 235 85T250 118Q250 135 238 146T213 162T162 182Q69 219 69 300Q69 330 84 362T134 416T226 439Q326 439 386 384L335 319Q315 341 291 351T242
362Q213 362 198 349T183 316Q184 296 201 285T252 260Q259 258 273 252Q317 232 340 206T364 138Q364 101 345 68T287 13T190 -9Q149 -9 101 8Z" />
<glyph unicode="t" glyph-name="t" horiz-adv-x="373" d="M275 609L253 423H363L353 335H242L201 0H89L130 335H57L68 423H141L163 609H275Z" />
<glyph unicode="u" glyph-name="u" horiz-adv-x="562" d="M511 423L458 0H357L359 72Q331 31 285 7T185 -18Q131 -18 98 12T64 93Q64 103 65 108L103 423H215L181 148Q179 116 193 98T241 78Q291 78 329 123T375 236L398 423H511Z" />
<glyph unicode="v" glyph-name="v" horiz-adv-x="510" d="M518 423L233 -11H229L38 423H171L258 182L393 423H518Z" />
<glyph unicode="w" glyph-name="w" horiz-adv-x="679" d="M686 423L443 -13H436L338 268L183 -12H176L38 423H148L219 206L309 362L288 423H385L457 198L576 423H686Z" />
<glyph unicode="x" glyph-name="x" horiz-adv-x="481" d="M313 220L452 0H317L227 140L111 0H-2L181 212L46 423H184L270 288L372 423H485L313 220Z" />
<glyph unicode="y" glyph-name="y" horiz-adv-x="513" d="M533 423L183 -203H73L199 18L54 423H180L271 144L430 423H533Z" />
<glyph unicode="z" glyph-name="z" horiz-adv-x="487" d="M189 92H415L404 0H-3L266 331H143Q110 331 90 350T69 403L70 416L75 464H160L159 450Q157 433 163 428T189 423H459L189 92Z" />
<glyph unicode="{" glyph-name="braceleft" horiz-adv-x="359" d="M308 659T296 652T277 624T264 558L249 431Q239 352 167 302Q186 289 202 262T218 196Q218 182 217 175L201 49Q197 21 197 -3Q197 -34 207 -44T242 -54H284L272 -152H202Q158 -152 138 -149T102
-129T86 -71Q86 -62 88 -40L108 116Q110 138 110 151Q110 193 95 222T44 253L56 349Q100 351 123 392T153 486L172 638Q180 698 199 723T241 753T314 758H383L371 659H330Q308 659 296 652Z" />
<glyph unicode="|" glyph-name="bar" horiz-adv-x="295" d="M279 711L163 -236H61L178 711H279Z" />
<glyph unicode="}" glyph-name="braceright" horiz-adv-x="363" d="M95 -54T106 -47T125 -18T138 49L152 167Q159 220 183 253T235 302Q184 343 184 409Q184 423 185 431L200 558Q204 587 204 612Q204 641 195 650T160 659H119L131 758H201Q245 758 265 755T301
735T316 675Q316 659 313 638L293 477Q292 468 292 450Q292 408 307 379T358 349L347 253Q305 252 281 214T250 124L231 -32Q224 -91 205 -117T162 -147T89 -152H19L31 -54H73Q95 -54 106 -47Z" />
<glyph unicode="~" glyph-name="asciitilde" horiz-adv-x="459" d="M303 425T284 433T252 452T219 483Q205 499 194 508T168 518Q146 519 132 496T116 437L47 443Q50 510 86 556T177 603Q207 603 228 589T273 547Q292 526 304 517T331 507Q369 507 376 590L445
585Q445 539 429 503T386 446T328 425Q303 425 284 433Z" />
<glyph unicode="&#xa0;" glyph-name="uni00A0" horiz-adv-x="300" />
<glyph unicode="&#xa1;" glyph-name="exclamdown" horiz-adv-x="201" d="M168 557T185 542T202 504Q202 478 184 460T137 442Q109 442 93 457T76 495Q76 504 77 508Q81 531 98 544T139 557Q168 557 185 542ZM-1 -205L69 365H169L99 -205H-1Z" />
<glyph unicode="&#xa2;" glyph-name="cent" horiz-adv-x="470" d="M407 28Q382 12 349 2T280 -11L273 -68H205L212 -7Q142 7 92 55T41 192Q41 250 67 304T145 393T266 432L273 491H342L334 427Q406 414 452 368L388 299Q360 325 323 335L291 79Q328 82 359 102L407
28ZM154 163T172 134T224 90L254 336Q211 325 183 288T154 200Q154 163 172 134Z" />
<glyph unicode="&#xa3;" glyph-name="sterling" horiz-adv-x="581" d="M486 193H587L578 122Q563 0 427 0H24L37 112H82Q104 112 116 118T134 143T146 202L156 285H91L104 398H170L188 547Q194 594 226 632T312 692T429 714Q500 714 547 687T615 609L524 551Q509
574 485 588T418 602Q362 602 334 578T300 504L287 398H427L413 285H273L264 212L261 193Q251 135 233 112H417Q448 112 463 122T481 154L486 193Z" />
<glyph unicode="&#xa4;" glyph-name="currency" horiz-adv-x="506" d="M431 407T431 372Q431 361 430 356Q427 313 395 272L419 242L366 197Q348 217 340 227Q302 208 262 208Q214 208 180 234L148 207L105 257L136 284Q121 314 121 347Q121 360 122 366Q126 410
155 447L133 476L186 521L209 493Q255 515 294 514Q336 511 372 485L403 511L445 460L416 435Q431 407 431 372ZM190 320T213 297T269 274Q306 274 334 300T363 365Q363 399 340 423T283 447Q245 447 218 419T190 352Q190 320 213 297Z" />
<glyph unicode="&#xa5;" glyph-name="yen" horiz-adv-x="704" d="M424 307H555L544 216H409L403 163H542L531 72H392L383 0H266L275 72H156L167 163H286L292 216H168L179 307H300L87 728H229L381 428L601 728H745L424 307Z" />
<glyph unicode="&#xa6;" glyph-name="brokenbar" horiz-adv-x="218" d="M251 711L207 356H106L150 711H251ZM178 119L135 -237H33L77 119H178Z" />
<glyph unicode="&#xa7;" glyph-name="section" horiz-adv-x="576" d="M448 445T492 411T537 311Q537 257 507 213T421 146Q449 128 464 100T480 35Q480 -25 447 -75T357 -152T232 -176Q168 -171 111 -149T14 -87L83 6Q126 -34 166 -52T249 -71Q295 -71 326 -49T357
14Q357 46 327 65T242 102Q74 156 74 264Q74 326 107 365T191 418Q128 464 128 537Q128 585 152 630T225 704T344 733Q407 733 460 711T553 651L493 568Q432 625 364 631Q310 634 282 614T253 562Q253 530 283 511T372 471Q448 445 492 411ZM190 233T297 197Q342
197 381 220T420 283Q420 314 388 337T313 368Q306 369 293 369Q247 369 219 347T190 293Q190 233 297 197Z" />
<glyph unicode="&#xa8;" glyph-name="dieresis" horiz-adv-x="376" d="M71 562T92 581T138 599Q158 597 174 581T190 541Q190 512 170 494T125 477Q103 478 87 494T71 534Q71 562 92 581ZM263 562T283 581T329 599Q350 597 365 581T381 541Q381 512 361 494T316
477Q295 478 279 494T263 534Q263 562 283 581Z" />
<glyph unicode="&#xa9;" glyph-name="copyright" horiz-adv-x="862" d="M329 -30T251 14T128 134T83 303Q83 325 86 347Q98 443 152 519T289 638T465 681Q561 681 639 638T761 519T806 349Q806 327 803 303Q791 208 738 132T602 13T424 -30Q329 -30 251 14ZM500
61T560 93T658 181T706 309Q708 321 708 346Q708 416 676 471T587 559T459 591Q390 591 330 559T231 470T182 341Q180 317 180 305Q180 236 211 181T300 93T431 61Q500 61 560 93ZM553 160T511 144T422 131Q375 135 338 160T279 226T258 312Q258 321 260 337Q270
420 326 472T465 524Q499 524 539 512T600 479L545 395Q521 422 475 426Q433 427 404 395T375 319Q375 282 398 257T460 232Q481 232 502 240T541 264L582 185Q553 160 511 144Z" />
<glyph unicode="&#xaa;" glyph-name="ordfeminine" horiz-adv-x="395" d="M400 718L365 430H279L285 472Q269 454 244 439T185 424Q134 424 103 455T72 545Q72 599 93 641T148 706T220 729Q284 729 311 679L320 718H400ZM301 604Q297 629 281 644T240 660Q207
660 183 633T159 564Q159 533 176 513T220 493Q246 493 265 508T294 551L301 604Z" />
<glyph unicode="&#xab;" glyph-name="guillemotleft" horiz-adv-x="610" d="M146 241T261 354Q340 433 346 438L332 323Q324 316 315 305T295 283Q272 257 258 243Q262 238 282 206Q308 165 311 162L298 47L148 243Q146 241 261 354ZM329 249T421 341Q521 439
520 438L506 324Q501 320 462 276L432 243Q437 237 443 227T457 206Q483 165 486 162L472 47L322 243Q329 249 421 341Z" />
<glyph unicode="&#xac;" glyph-name="logicalnot" horiz-adv-x="487" d="M444 310L418 104H302L313 197H64L79 310H444Z" />
<glyph unicode="&#xad;" glyph-name="uni00AD" horiz-adv-x="600" d="M274 270L262 172H75L87 270H274Z" />
<glyph unicode="&#xae;" glyph-name="registered" horiz-adv-x="519" d="M368 726T418 699T497 623T526 515Q526 447 492 392T402 306T281 274Q220 274 170 301T92 377T63 486Q63 554 97 609T187 695T307 726Q368 726 418 699ZM459 557T439 591T383 645T303 665Q256
665 217 642T154 578T131 487Q131 444 150 410T205 355T283 335Q331 335 371 358T435 422T459 515Q459 557 439 591ZM355 619T374 600T393 549Q393 523 382 502T347 471L372 394L304 395L285 466H270L261 395H200L228 620L320 619Q355 619 374 600ZM277 513H295Q312
512 319 519T327 542Q327 553 321 560T303 569L283 570L277 513Z" />
<glyph unicode="&#xaf;" glyph-name="overscore" horiz-adv-x="406" d="M387 545L380 482H146L153 545H387Z" />
<glyph unicode="&#xb0;" glyph-name="degree" horiz-adv-x="286" d="M45 609T80 642T163 676Q205 676 233 648T262 578L261 566Q257 522 224 492T147 461Q103 461 74 490T45 562Q45 609 80 642ZM172 522T187 536T202 571Q202 589 190 601T159 614Q140 614 126
601T110 568Q108 549 120 536T152 522Q172 522 187 536Z" />
<glyph unicode="&#xb1;" glyph-name="plusminus" horiz-adv-x="533" d="M392 580L376 445H507L496 348H364L347 214H245L262 348H130L142 445H274L290 580H392ZM474 176L462 78H97L109 176H474Z" />
<glyph unicode="&#xb2;" glyph-name="uni00B2" horiz-adv-x="405" d="M390 483T255 383H381L370 289H80L88 353Q258 451 268 530Q269 536 269 547Q269 600 218 600Q196 600 172 587T134 557L111 631Q131 657 173 675T257 693Q318 693 354 663T390 579Q390 483 255 383Z" />
<glyph unicode="&#xb3;" glyph-name="uni00B3" horiz-adv-x="384" d="M291 528T316 499T341 433L340 421Q332 363 286 325T172 286Q134 286 107 300T64 334L103 399Q137 355 168 359Q197 362 216 378T239 424Q243 454 225 472T178 490Q153 490 135 481L130 491L216
604H111L121 685H357L259 539Q291 528 316 499Z" />
<glyph unicode="&#xb4;" glyph-name="acute" horiz-adv-x="291" d="M184 487H115L199 621H323L184 487Z" />
<glyph unicode="&#xb5;" glyph-name="uni00B5" horiz-adv-x="562" d="M511 423L458 0H357L359 79Q332 35 287 9T185 -18Q162 -18 144 -12L121 -201H28L65 110L103 423H215L182 149Q177 79 241 78Q291 78 329 123T375 236L398 423H511Z" />
<glyph unicode="&#xb6;" glyph-name="paragraph" horiz-adv-x="569" d="M215 429T182 449T130 503T111 578Q111 627 137 669T206 737T298 762H564L470 0H370L452 664H386L305 0H204L257 429Q215 429 182 449Z" />
<glyph unicode="&#xb7;" glyph-name="middot" horiz-adv-x="225" d="M67 309T88 329T136 349Q156 349 171 333T187 293Q187 265 166 246T121 227Q99 227 83 242T67 281Q67 309 88 329Z" />
<glyph unicode="&#xb8;" glyph-name="cedilla" horiz-adv-x="459" d="M261 -44T292 -66T323 -127Q323 -179 282 -205T179 -232Q99 -232 61 -185L101 -141Q122 -169 162 -172Q186 -173 206 -163T229 -133Q233 -90 167 -90Q142 -90 110 -98L99 -43L167 3L252 1L210
-41Q261 -44 292 -66Z" />
<glyph unicode="&#xb9;" glyph-name="uni00B9" horiz-adv-x="277" d="M261 673L215 284H110L145 573H82L94 673H261Z" />
<glyph unicode="&#xba;" glyph-name="ordmasculine" horiz-adv-x="376" d="M74 608T95 646T155 705T239 727Q308 727 349 688T391 586Q391 539 370 502T312 444T226 422Q158 422 116 460T74 561Q74 608 95 646ZM161 537T180 517T227 497Q260 497 282 522T304 582Q304
612 286 632T239 653Q207 653 184 628T161 568Q161 537 180 517Z" />
<glyph unicode="&#xbb;" glyph-name="guillemotright" horiz-adv-x="610" d="M113 47L99 162Q102 165 128 206Q135 216 141 226T153 243L123 276Q84 320 79 324L65 438Q64 439 164 341Q256 249 263 243L113 47ZM287 47L274 162Q277 165 303 206Q323 238 327 243L290
283Q259 318 253 323L239 438Q245 433 324 354Q439 241 437 243L287 47Z" />
<glyph unicode="&#xbc;" glyph-name="onequarter" horiz-adv-x="896" d="M261 673L215 284H110L145 573H82L94 673H261ZM511 384Q480 320 433 224T322 0H221L598 767H700L511 384ZM838 105H792L780 8H683L695 105H520L522 134L760 405H829L800 169H845L838 105ZM703
169L714 259L637 169H703Z" />
<glyph unicode="&#xbd;" glyph-name="onehalf" horiz-adv-x="911" d="M281 673L235 284H130L165 573H102L114 673H281ZM478 384Q447 320 400 224T289 0H188L565 767H667L478 384ZM825 192T690 92H816L805 -2H515L523 62Q693 160 703 239Q704 245 704 256Q704 309
653 309Q631 309 607 296T569 266L546 340Q566 366 608 384T692 402Q753 402 789 372T825 288Q825 192 690 92Z" />
<glyph unicode="&#xbe;" glyph-name="threequarters" horiz-adv-x="920" d="M292 528T317 499T342 433L341 421Q333 363 287 325T173 286Q135 286 108 300T65 334L104 399Q138 355 169 359Q198 362 217 378T240 424Q244 454 226 472T179 490Q154 490 136 481L131
491L217 604H112L122 685H358L260 539Q292 528 317 499ZM535 384Q504 320 457 224T346 0H245L622 767H724L535 384ZM862 97H816L804 0H707L719 97H544L546 126L784 397H853L824 161H869L862 97ZM727 161L738 251L661 161H727Z" />
<glyph unicode="&#xbf;" glyph-name="questiondown" horiz-adv-x="437" d="M329 544T345 529T361 490Q361 463 340 443T293 423Q272 423 257 439T241 479Q241 507 262 525T308 544Q329 544 345 529ZM319 241T306 220T275 184T226 150L187 124Q96 59 96 -19Q96
-57 119 -81T181 -106Q235 -106 262 -84T312 -12Q364 -31 396 -45Q367 -110 317 -157T169 -205Q119 -205 79 -181T16 -117T-7 -27Q-7 34 24 82T116 171Q121 175 125 177T133 182Q172 206 195 230T224 293L234 373H335L323 274Q319 241 306 220Z" />
<glyph unicode="&#xc0;" glyph-name="Agrave" horiz-adv-x="699" d="M465 171H200L109 0H-5L410 758H417L646 0H512L465 171ZM438 271L376 498L254 271H438ZM453 805H383L264 939H388L453 805Z" />
<glyph unicode="&#xc1;" glyph-name="Aacute" horiz-adv-x="699" d="M465 171H200L109 0H-5L410 758H417L646 0H512L465 171ZM438 271L376 498L254 271H438ZM460 789H391L475 923H599L460 789Z" />
<glyph unicode="&#xc2;" glyph-name="Acircumflex" horiz-adv-x="699" d="M465 171H200L109 0H-5L410 758H417L646 0H512L465 171ZM438 271L376 498L254 271H438ZM494 805L430 886L352 805H251L443 988H444L596 805H494Z" />
<glyph unicode="&#xc3;" glyph-name="Atilde" horiz-adv-x="699" d="M465 171H200L109 0H-5L410 758H417L646 0H512L465 171ZM438 271L376 498L254 271H438ZM476 770T457 778T425 797T392 828Q378 844 367 853T341 863Q319 864 305 841T289 782L220 788Q223 855
259 901T350 948Q380 948 401 934T446 892Q465 871 477 862T504 852Q542 852 549 935L618 930Q618 884 602 848T559 791T501 770Q476 770 457 778Z" />
<glyph unicode="&#xc4;" glyph-name="Adieresis" horiz-adv-x="699" d="M465 171H200L109 0H-5L410 758H417L646 0H512L465 171ZM438 271L376 498L254 271H438ZM272 880T293 899T339 917Q359 915 375 899T391 859Q391 830 371 812T326 795Q304 796 288 812T272
852Q272 880 293 899ZM464 880T484 899T530 917Q551 915 566 899T582 859Q582 830 562 812T517 795Q496 796 480 812T464 852Q464 880 484 899Z" />
<glyph unicode="&#xc5;" glyph-name="Aring" horiz-adv-x="699" d="M465 171H200L109 0H-5L410 758H417L646 0H512L465 171ZM438 271L376 498L254 271H438ZM331 903T361 930T436 958Q479 958 506 934T533 871Q533 824 503 796T428 767Q386 767 359 792T331 856Q331
903 361 930ZM391 841T401 831T428 818Q447 818 459 829T474 860Q475 881 466 892T437 905Q417 906 404 894T391 858Q391 841 401 831Z" />
<glyph unicode="&#xc6;" glyph-name="AE" horiz-adv-x="960" d="M646 616L622 420H867L853 308H608L584 112H884L870 0H455L476 172H244L117 0H-17L544 728H945L932 616H646ZM487 264L522 547L312 264H487Z" />
<glyph unicode="&#xc7;" glyph-name="Ccedilla" horiz-adv-x="699" d="M372 620T314 582T226 479T195 335Q195 266 224 213T305 130T427 100Q478 100 513 113T586 147L622 40Q599 25 559 11T470 -10L438 -42Q489 -45 520 -67T551 -128Q551 -180 510 -206T407 -233Q327
-233 289 -186L329 -142Q350 -170 390 -173Q414 -174 434 -164T457 -134Q461 -91 395 -91Q370 -91 338 -99L327 -44L376 -11Q296 -2 228 36T117 148T74 326Q74 431 114 523T240 674T454 732Q525 732 584 711T686 658L626 552Q593 580 549 600T452 620Q372 620 314
582Z" />
<glyph unicode="&#xc8;" glyph-name="Egrave" horiz-adv-x="659" d="M644 728L631 620H268L244 420H566L553 310H230L206 111H583L569 0H72L161 728H644ZM434 787H364L245 921H369L434 787Z" />
<glyph unicode="&#xc9;" glyph-name="Eacute" horiz-adv-x="659" d="M644 728L631 620H268L244 420H566L553 310H230L206 111H583L569 0H72L161 728H644ZM441 771H372L456 905H580L441 771Z" />
<glyph unicode="&#xca;" glyph-name="Ecircumflex" horiz-adv-x="659" d="M644 728L631 620H268L244 420H566L553 310H230L206 111H583L569 0H72L161 728H644ZM475 787L411 868L333 787H232L424 970H425L577 787H475Z" />
<glyph unicode="&#xcb;" glyph-name="Edieresis" horiz-adv-x="659" d="M644 728L631 620H268L244 420H566L553 310H230L206 111H583L569 0H72L161 728H644ZM253 862T274 881T320 899Q340 897 356 881T372 841Q372 812 352 794T307 777Q285 778 269 794T253 834Q253
862 274 881ZM445 862T465 881T511 899Q532 897 547 881T563 841Q563 812 543 794T498 777Q477 778 461 794T445 834Q445 862 465 881Z" />
<glyph unicode="&#xcc;" glyph-name="Igrave" horiz-adv-x="322" d="M281 728L192 0H72L161 728H281ZM260 787H190L71 921H195L260 787Z" />
<glyph unicode="&#xcd;" glyph-name="Iacute" horiz-adv-x="322" d="M281 728L192 0H72L161 728H281ZM267 771H198L282 905H406L267 771Z" />
<glyph unicode="&#xce;" glyph-name="Icircumflex" horiz-adv-x="322" d="M281 728L192 0H72L161 728H281ZM301 787L237 868L159 787H58L250 970H251L403 787H301Z" />
<glyph unicode="&#xcf;" glyph-name="Idieresis" horiz-adv-x="322" d="M281 728L192 0H72L161 728H281ZM79 862T100 881T146 899Q166 897 182 881T198 841Q198 812 178 794T133 777Q111 778 95 794T79 834Q79 862 100 881ZM271 862T291 881T337 899Q358 897 373
881T389 841Q389 812 369 794T324 777Q303 778 287 794T271 834Q271 862 291 881Z" />
<glyph unicode="&#xd0;" glyph-name="Eth" horiz-adv-x="758" d="M509 728T582 684T689 568T722 407Q722 392 720 362Q711 252 657 170T517 44T333 0H72L108 294H37L52 407H122L161 728H392Q509 728 582 684ZM604 394T604 404Q604 478 572 526T491 595T386 617H264L238
407H317L303 294H224L202 112H329Q444 112 518 179T602 370Q604 394 604 404Z" />
<glyph unicode="&#xd1;" glyph-name="Ntilde" horiz-adv-x="844" d="M804 728L711 -26H708L246 484L189 0H72L164 753H169L629 236L687 728H804ZM536 729T517 737T485 756T452 787Q438 803 427 812T401 822Q379 823 365 800T349 741L280 747Q283 814 319 860T410
907Q440 907 461 893T506 851Q525 830 537 821T564 811Q602 811 609 894L678 889Q678 843 662 807T619 750T561 729Q536 729 517 737Z" />
<glyph unicode="&#xd2;" glyph-name="Ograve" horiz-adv-x="856" d="M333 -7T253 32T124 149T74 339Q74 432 119 523T255 675T470 735Q560 735 640 696T769 579T819 389Q819 296 774 205T638 53T423 -7Q333 -7 253 32ZM516 105T577 147T669 253T699 383Q699 447
669 502T585 590T465 623Q374 623 313 581T223 475T194 345Q194 281 223 226T306 138T425 105Q516 105 577 147ZM512 787H442L323 921H447L512 787Z" />
<glyph unicode="&#xd3;" glyph-name="Oacute" horiz-adv-x="856" d="M333 -7T253 32T124 149T74 339Q74 432 119 523T255 675T470 735Q560 735 640 696T769 579T819 389Q819 296 774 205T638 53T423 -7Q333 -7 253 32ZM516 105T577 147T669 253T699 383Q699 447
669 502T585 590T465 623Q374 623 313 581T223 475T194 345Q194 281 223 226T306 138T425 105Q516 105 577 147ZM519 771H450L534 905H658L519 771Z" />
<glyph unicode="&#xd4;" glyph-name="Ocircumflex" horiz-adv-x="856" d="M333 -7T253 32T124 149T74 339Q74 432 119 523T255 675T470 735Q560 735 640 696T769 579T819 389Q819 296 774 205T638 53T423 -7Q333 -7 253 32ZM516 105T577 147T669 253T699 383Q699
447 669 502T585 590T465 623Q374 623 313 581T223 475T194 345Q194 281 223 226T306 138T425 105Q516 105 577 147ZM553 787L489 868L411 787H310L502 970H503L655 787H553Z" />
<glyph unicode="&#xd5;" glyph-name="Otilde" horiz-adv-x="856" d="M333 -7T253 32T124 149T74 339Q74 432 119 523T255 675T470 735Q560 735 640 696T769 579T819 389Q819 296 774 205T638 53T423 -7Q333 -7 253 32ZM516 105T577 147T669 253T699 383Q699 447
669 502T585 590T465 623Q374 623 313 581T223 475T194 345Q194 281 223 226T306 138T425 105Q516 105 577 147ZM535 752T516 760T484 779T451 810Q437 826 426 835T400 845Q378 846 364 823T348 764L279 770Q282 837 318 883T409 930Q439 930 460 916T505 874Q524
853 536 844T563 834Q601 834 608 917L677 912Q677 866 661 830T618 773T560 752Q535 752 516 760Z" />
<glyph unicode="&#xd6;" glyph-name="Odieresis" horiz-adv-x="856" d="M333 -7T253 32T124 149T74 339Q74 432 119 523T255 675T470 735Q560 735 640 696T769 579T819 389Q819 296 774 205T638 53T423 -7Q333 -7 253 32ZM516 105T577 147T669 253T699 383Q699
447 669 502T585 590T465 623Q374 623 313 581T223 475T194 345Q194 281 223 226T306 138T425 105Q516 105 577 147ZM331 862T352 881T398 899Q418 897 434 881T450 841Q450 812 430 794T385 777Q363 778 347 794T331 834Q331 862 352 881ZM523 862T543 881T589
899Q610 897 625 881T641 841Q641 812 621 794T576 777Q555 778 539 794T523 834Q523 862 543 881Z" />
<glyph unicode="&#xd7;" glyph-name="multiply" horiz-adv-x="522" d="M351 296L413 351Q433 329 453 305L486 265Q487 266 457 239Q423 209 389 177L439 120Q457 98 467 87L368 0L314 60L288 89Q264 66 244 48T208 16Q199 10 191 2Q152 44 116 86L172 137L215
175L135 266L232 355L313 262L351 296Z" />
<glyph unicode="&#xd8;" glyph-name="Oslash" horiz-adv-x="853" d="M758 596Q819 511 819 389Q819 296 774 205T638 53T423 -7Q369 -7 318 7T222 50L155 -18L104 33L165 96Q122 140 98 201T74 339Q74 432 119 523T255 675T470 735Q536 735 598 714T709 650L792
734L842 682L758 596ZM194 299T209 258T252 184L623 562Q555 623 465 623Q374 623 313 581T223 475T194 345Q194 299 209 258ZM699 448T668 504L307 137Q361 105 425 105Q516 105 577 147T669 253T699 383Q699 448 668 504Z" />
<glyph unicode="&#xd9;" glyph-name="Ugrave" horiz-adv-x="766" d="M223 255T223 242Q223 184 263 145T366 105Q412 105 451 126T517 183T548 262L605 728H725L668 259Q658 181 614 120T501 26T352 -8Q280 -8 223 21T134 102T102 223Q102 247 104 259L161 728H281L224
262Q223 255 223 242ZM487 787H417L298 921H422L487 787Z" />
<glyph unicode="&#xda;" glyph-name="Uacute" horiz-adv-x="766" d="M223 255T223 242Q223 184 263 145T366 105Q412 105 451 126T517 183T548 262L605 728H725L668 259Q658 181 614 120T501 26T352 -8Q280 -8 223 21T134 102T102 223Q102 247 104 259L161 728H281L224
262Q223 255 223 242ZM494 771H425L509 905H633L494 771Z" />
<glyph unicode="&#xdb;" glyph-name="Ucircumflex" horiz-adv-x="766" d="M223 255T223 242Q223 184 263 145T366 105Q412 105 451 126T517 183T548 262L605 728H725L668 259Q658 181 614 120T501 26T352 -8Q280 -8 223 21T134 102T102 223Q102 247 104 259L161
728H281L224 262Q223 255 223 242ZM528 787L464 868L386 787H285L477 970H478L630 787H528Z" />
<glyph unicode="&#xdc;" glyph-name="Udieresis" horiz-adv-x="766" d="M223 255T223 242Q223 184 263 145T366 105Q412 105 451 126T517 183T548 262L605 728H725L668 259Q658 181 614 120T501 26T352 -8Q280 -8 223 21T134 102T102 223Q102 247 104 259L161
728H281L224 262Q223 255 223 242ZM306 862T327 881T373 899Q393 897 409 881T425 841Q425 812 405 794T360 777Q338 778 322 794T306 834Q306 862 327 881ZM498 862T518 881T564 899Q585 897 600 881T616 841Q616 812 596 794T551 777Q530 778 514 794T498 834Q498
862 518 881Z" />
<glyph unicode="&#xdd;" glyph-name="Yacute" horiz-adv-x="704" d="M745 728L412 236L383 0H266L295 236L87 728H229L373 369L601 728H745ZM453 776H384L468 910H592L453 776Z" />
<glyph unicode="&#xde;" glyph-name="Thorn" horiz-adv-x="597" d="M460 598T524 544T588 393Q588 327 559 265T467 163T309 123H207L192 0H72L159 711H279L265 598H350Q460 598 524 544ZM370 235T403 258T452 315T467 377Q467 418 439 452T350 486H251L220 235H318Q370
235 403 258Z" />
<glyph unicode="&#xdf;" glyph-name="germandbls" horiz-adv-x="618" d="M324 -6T287 5T232 38L280 107Q293 94 313 87T350 79Q386 79 409 105T443 166T454 230Q454 281 429 311T359 342L354 343L365 440Q404 437 424 460T444 511Q444 541 426 558T371 576Q318
576 290 537T247 421L173 0H60L119 337H54L72 428H137L144 476Q159 570 224 619T386 668Q467 668 513 629T559 521Q559 480 538 446T473 394Q566 348 566 224Q566 169 546 117T480 29T362 -6Q324 -6 287 5Z" />
<glyph unicode="&#xe0;" glyph-name="agrave" horiz-adv-x="601" d="M549 423L498 0H386L393 61Q367 34 324 12T221 -9Q175 -10 134 15T67 87T42 197Q42 258 71 314T155 406T279 442Q385 442 430 364L446 423H549ZM417 260Q410 301 378 325T299 350Q251 350 220
328T173 274T158 210Q158 152 192 117T283 81Q322 81 355 104T406 168L417 260ZM377 513H307L188 647H312L377 513Z" />
<glyph unicode="&#xe1;" glyph-name="aacute" horiz-adv-x="601" d="M549 423L498 0H386L393 61Q367 34 324 12T221 -9Q175 -10 134 15T67 87T42 197Q42 258 71 314T155 406T279 442Q385 442 430 364L446 423H549ZM417 260Q410 301 378 325T299 350Q251 350 220
328T173 274T158 210Q158 152 192 117T283 81Q322 81 355 104T406 168L417 260ZM384 497H315L399 631H523L384 497Z" />
<glyph unicode="&#xe2;" glyph-name="acircumflex" horiz-adv-x="601" d="M549 423L498 0H386L393 61Q367 34 324 12T221 -9Q175 -10 134 15T67 87T42 197Q42 258 71 314T155 406T279 442Q385 442 430 364L446 423H549ZM417 260Q410 301 378 325T299 350Q251 350
220 328T173 274T158 210Q158 152 192 117T283 81Q322 81 355 104T406 168L417 260ZM418 513L354 594L276 513H175L367 696H368L520 513H418Z" />
<glyph unicode="&#xe3;" glyph-name="atilde" horiz-adv-x="601" d="M549 423L498 0H386L393 61Q367 34 324 12T221 -9Q175 -10 134 15T67 87T42 197Q42 258 71 314T155 406T279 442Q385 442 430 364L446 423H549ZM417 260Q410 301 378 325T299 350Q251 350 220
328T173 274T158 210Q158 152 192 117T283 81Q322 81 355 104T406 168L417 260ZM400 478T381 486T349 505T316 536Q302 552 291 561T265 571Q243 572 229 549T213 490L144 496Q147 563 183 609T274 656Q304 656 325 642T370 600Q389 579 401 570T428 560Q466 560
473 643L542 638Q542 592 526 556T483 499T425 478Q400 478 381 486Z" />
<glyph unicode="&#xe4;" glyph-name="adieresis" horiz-adv-x="601" d="M549 423L498 0H386L393 61Q367 34 324 12T221 -9Q175 -10 134 15T67 87T42 197Q42 258 71 314T155 406T279 442Q385 442 430 364L446 423H549ZM417 260Q410 301 378 325T299 350Q251 350
220 328T173 274T158 210Q158 152 192 117T283 81Q322 81 355 104T406 168L417 260ZM196 588T217 607T263 625Q283 623 299 607T315 567Q315 538 295 520T250 503Q228 504 212 520T196 560Q196 588 217 607ZM388 588T408 607T454 625Q475 623 490 607T506 567Q506
538 486 520T441 503Q420 504 404 520T388 560Q388 588 408 607Z" />
<glyph unicode="&#xe5;" glyph-name="aring" horiz-adv-x="601" d="M549 423L498 0H386L393 61Q367 34 324 12T221 -9Q175 -10 134 15T67 87T42 197Q42 258 71 314T155 406T279 442Q385 442 430 364L446 423H549ZM417 260Q410 301 378 325T299 350Q251 350 220
328T173 274T158 210Q158 152 192 117T283 81Q322 81 355 104T406 168L417 260ZM255 611T285 638T360 666Q403 666 430 642T457 579Q457 532 427 504T352 475Q310 475 283 500T255 564Q255 611 285 638ZM315 549T325 539T352 526Q371 526 383 537T398 568Q399 589
390 600T361 613Q341 614 328 602T315 566Q315 549 325 539Z" />
<glyph unicode="&#xe6;" glyph-name="ae" horiz-adv-x="818" d="M604 85T650 112L690 26Q616 -11 549 -11Q506 -11 456 6T372 61V57Q341 23 296 6T197 -11Q155 -11 117 3T55 46T31 116Q31 149 49 180T108 232T211 253Q274 253 320 233L323 258Q324 264 324 275Q324
347 235 350Q201 350 170 334T115 293L67 367Q152 441 258 441Q297 441 341 427T411 380Q446 409 489 425T581 441Q658 441 718 396T789 235L442 173Q453 127 489 106T562 85Q604 85 650 112ZM518 353T485 322T441 236L668 279Q657 317 630 335T565 353Q518 353
485 322ZM334 130L331 144Q286 176 228 176Q190 176 173 160T155 120Q155 92 176 79T230 66Q257 66 285 78T332 109L334 130Z" />
<glyph unicode="&#xe7;" glyph-name="ccedilla" horiz-adv-x="449" d="M348 -10T272 -11Q270 -29 276 -37T293 -51T308 -62Q337 -87 337 -131Q337 -164 322 -193T278 -242T210 -261Q173 -261 146 -240T109 -180L167 -151Q169 -166 180 -176T210 -186Q235 -186
249 -169T264 -128Q264 -115 258 -107T239 -88Q222 -73 214 -60T209 -23L212 -4Q147 14 107 67T67 190Q67 255 102 311T196 400T321 434Q401 434 460 385L391 315Q376 328 355 335T310 343Q268 343 234 324T181 272T161 198Q161 148 193 115T278 81Q329 81 366
109L414 39Q348 -10 272 -11Z" />
<glyph unicode="&#xe8;" glyph-name="egrave" horiz-adv-x="535" d="M322 85T366 113L406 26Q374 9 338 0T269 -10Q165 -10 104 46T42 206Q42 262 69 316T153 406T289 441Q475 441 506 235L171 146Q187 115 217 100T281 85Q322 85 366 113ZM224 353T189 314T154
219V212L385 275Q374 311 348 332T286 353Q224 353 189 314ZM332 521H262L143 655H267L332 521Z" />
<glyph unicode="&#xe9;" glyph-name="eacute" horiz-adv-x="445" d="M322 85T366 113L406 26Q374 9 338 0T269 -10Q165 -10 104 46T42 206Q42 262 69 316T153 406T289 441Q475 441 506 235L171 146Q187 115 217 100T281 85Q322 85 366 113ZM224 353T189 314T154
219V212L385 275Q374 311 348 332T286 353Q224 353 189 314ZM278 487H209L293 621H417L278 487Z" />
<glyph unicode="&#xea;" glyph-name="ecircumflex" horiz-adv-x="535" d="M322 85T366 113L406 26Q374 9 338 0T269 -10Q165 -10 104 46T42 206Q42 262 69 316T153 406T289 441Q475 441 506 235L171 146Q187 115 217 100T281 85Q322 85 366 113ZM224 353T189 314T154
219V212L385 275Q374 311 348 332T286 353Q224 353 189 314ZM373 521L309 602L231 521H130L322 704H323L475 521H373Z" />
<glyph unicode="&#xeb;" glyph-name="edieresis" horiz-adv-x="535" d="M322 85T366 113L406 26Q374 9 338 0T269 -10Q165 -10 104 46T42 206Q42 262 69 316T153 406T289 441Q475 441 506 235L171 146Q187 115 217 100T281 85Q322 85 366 113ZM224 353T189 314T154
219V212L385 275Q374 311 348 332T286 353Q224 353 189 314ZM151 596T172 615T218 633Q238 631 254 615T270 575Q270 546 250 528T205 511Q183 512 167 528T151 568Q151 596 172 615ZM343 596T363 615T409 633Q430 631 445 615T461 575Q461 546 441 528T396 511Q375
512 359 528T343 568Q343 596 363 615Z" />
<glyph unicode="&#xec;" glyph-name="igrave" horiz-adv-x="266" d="M215 423L163 0H51L103 423H215ZM454 487H384L265 621H389L454 487Z" />
<glyph unicode="&#xed;" glyph-name="iacute" horiz-adv-x="266" d="M215 423L163 0H51L103 423H215ZM205 727H136L220 861H344L205 727Z" />
<glyph unicode="&#xee;" glyph-name="icircumflex" horiz-adv-x="266" d="M215 423L163 0H51L103 423H215ZM495 487L431 568L353 487H252L444 670H445L597 487H495Z" />
<glyph unicode="&#xef;" glyph-name="idieresis" horiz-adv-x="266" d="M215 423L163 0H51L103 423H215ZM273 562T294 581T340 599Q360 597 376 581T392 541Q392 512 372 494T327 477Q305 478 289 494T273 534Q273 562 294 581ZM465 562T485 581T531 599Q552 597
567 581T583 541Q583 512 563 494T518 477Q497 478 481 494T465 534Q465 562 485 581Z" />
<glyph unicode="&#xf0;" glyph-name="eth" horiz-adv-x="556" d="M476 548T499 468T522 310Q522 229 494 156T407 37T258 -10Q212 -9 162 11T76 84T44 228Q46 282 72 331T147 412T262 443Q301 443 339 426T402 375Q389 480 329 569L234 519L206 596L280 634Q253
665 208 708L299 777Q347 736 385 688L478 736L505 660L431 622Q476 548 499 468ZM399 276T378 302T330 339T280 349Q238 349 209 326T166 270T152 204Q152 141 188 112T268 82Q310 82 339 104T384 161T399 231Q399 276 378 302Z" />
<glyph unicode="&#xf1;" glyph-name="ntilde" horiz-adv-x="570" d="M437 441T471 410T506 329Q506 319 505 314L467 0H355L389 274Q391 308 375 326T323 345Q271 345 233 301T187 187L164 0H52L103 423H204L205 355Q233 395 278 418T380 441Q437 441 471 410ZM382
501T363 509T331 528T298 559Q284 575 273 584T247 594Q225 595 211 572T195 513L126 519Q129 586 165 632T256 679Q286 679 307 665T352 623Q371 602 383 593T410 583Q448 583 455 666L524 661Q524 615 508 579T465 522T407 501Q382 501 363 509Z" />
<glyph unicode="&#xf2;" glyph-name="ograve" horiz-adv-x="557" d="M215 -11T163 12T76 83T42 198Q42 256 67 311T148 404T289 441Q348 441 400 416T484 344T516 232Q516 180 493 124T414 29T270 -11Q215 -11 163 12ZM317 82T346 104T388 160T402 227Q402 271
384 298T338 337T285 349Q241 349 212 327T169 271T155 203Q155 142 191 112T273 82Q317 82 346 104ZM331 498H261L142 632H266L331 498Z" />
<glyph unicode="&#xf3;" glyph-name="oacute" horiz-adv-x="557" d="M215 -11T163 12T76 83T42 198Q42 256 67 311T148 404T289 441Q348 441 400 416T484 344T516 232Q516 180 493 124T414 29T270 -11Q215 -11 163 12ZM317 82T346 104T388 160T402 227Q402 271
384 298T338 337T285 349Q241 349 212 327T169 271T155 203Q155 142 191 112T273 82Q317 82 346 104ZM338 482H269L353 616H477L338 482Z" />
<glyph unicode="&#xf4;" glyph-name="ocircumflex" horiz-adv-x="557" d="M215 -11T163 12T76 83T42 198Q42 256 67 311T148 404T289 441Q348 441 400 416T484 344T516 232Q516 180 493 124T414 29T270 -11Q215 -11 163 12ZM317 82T346 104T388 160T402 227Q402
271 384 298T338 337T285 349Q241 349 212 327T169 271T155 203Q155 142 191 112T273 82Q317 82 346 104ZM372 498L308 579L230 498H129L321 681H322L474 498H372Z" />
<glyph unicode="&#xf5;" glyph-name="otilde" horiz-adv-x="557" d="M215 -11T163 12T76 83T42 198Q42 256 67 311T148 404T289 441Q348 441 400 416T484 344T516 232Q516 180 493 124T414 29T270 -11Q215 -11 163 12ZM317 82T346 104T388 160T402 227Q402 271
384 298T338 337T285 349Q241 349 212 327T169 271T155 203Q155 142 191 112T273 82Q317 82 346 104ZM354 463T335 471T303 490T270 521Q256 537 245 546T219 556Q197 557 183 534T167 475L98 481Q101 548 137 594T228 641Q258 641 279 627T324 585Q343 564 355
555T382 545Q420 545 427 628L496 623Q496 577 480 541T437 484T379 463Q354 463 335 471Z" />
<glyph unicode="&#xf6;" glyph-name="odieresis" horiz-adv-x="557" d="M215 -11T163 12T76 83T42 198Q42 256 67 311T148 404T289 441Q348 441 400 416T484 344T516 232Q516 180 493 124T414 29T270 -11Q215 -11 163 12ZM317 82T346 104T388 160T402 227Q402
271 384 298T338 337T285 349Q241 349 212 327T169 271T155 203Q155 142 191 112T273 82Q317 82 346 104ZM150 573T171 592T217 610Q237 608 253 592T269 552Q269 523 249 505T204 488Q182 489 166 505T150 545Q150 573 171 592ZM342 573T362 592T408 610Q429 608
444 592T460 552Q460 523 440 505T395 488Q374 489 358 505T342 545Q342 573 362 592Z" />
<glyph unicode="&#xf7;" glyph-name="divide" horiz-adv-x="508" d="M245 431T266 451T313 471Q333 471 349 455T365 416Q365 387 344 368T298 349Q276 349 261 364T245 403Q245 431 266 451ZM473 306L460 208H95L107 306H473ZM208 130T229 150T276 170Q296 170
312 154T328 115Q328 87 307 68T262 48Q240 48 224 63T208 102Q208 130 229 150Z" />
<glyph unicode="&#xf8;" glyph-name="oslash" horiz-adv-x="529" d="M517 402T497 384L472 359Q516 305 516 232Q516 180 493 124T414 29T270 -11Q199 -11 139 25Q100 -12 85 -29L44 13Q64 33 64 33Q72 42 93 63Q42 117 42 198Q42 256 67 311T148 404T289 441Q369
441 429 399L481 452L526 413Q517 402 497 384ZM155 167T170 140L356 326Q325 349 285 349Q241 349 212 327T169 271T155 203Q155 167 170 140ZM317 82T346 104T388 160T402 227Q402 258 393 279L211 98Q240 82 273 82Q317 82 346 104Z" />
<glyph unicode="&#xf9;" glyph-name="ugrave" horiz-adv-x="562" d="M511 423L458 0H357L359 72Q331 31 285 7T185 -18Q131 -18 98 12T64 93Q64 103 65 108L103 423H215L181 148Q179 116 193 98T241 78Q291 78 329 123T375 236L398 423H511ZM354 536H284L165 670H289L354
536Z" />
<glyph unicode="&#xfa;" glyph-name="uacute" horiz-adv-x="562" d="M511 423L458 0H357L359 72Q331 31 285 7T185 -18Q131 -18 98 12T64 93Q64 103 65 108L103 423H215L181 148Q179 116 193 98T241 78Q291 78 329 123T375 236L398 423H511ZM361 520H292L376 654H500L361
520Z" />
<glyph unicode="&#xfb;" glyph-name="ucircumflex" horiz-adv-x="562" d="M511 423L458 0H357L359 72Q331 31 285 7T185 -18Q131 -18 98 12T64 93Q64 103 65 108L103 423H215L181 148Q179 116 193 98T241 78Q291 78 329 123T375 236L398 423H511ZM395 536L331
617L253 536H152L344 719H345L497 536H395Z" />
<glyph unicode="&#xfc;" glyph-name="udieresis" horiz-adv-x="562" d="M511 423L458 0H357L359 72Q331 31 285 7T185 -18Q131 -18 98 12T64 93Q64 103 65 108L103 423H215L181 148Q179 116 193 98T241 78Q291 78 329 123T375 236L398 423H511ZM173 611T194 630T240
648Q260 646 276 630T292 590Q292 561 272 543T227 526Q205 527 189 543T173 583Q173 611 194 630ZM365 611T385 630T431 648Q452 646 467 630T483 590Q483 561 463 543T418 526Q397 527 381 543T365 583Q365 611 385 630Z" />
<glyph unicode="&#xfd;" glyph-name="yacute" horiz-adv-x="547" d="M533 423L183 -203H73L199 18L54 423H180L271 144L430 423H533ZM325 487H256L340 621H464L325 487Z" />
<glyph unicode="&#xfe;" glyph-name="thorn" horiz-adv-x="574" d="M429 434T481 383T533 241Q533 161 500 104T410 18T281 -11Q237 -11 203 5T152 43L120 -203H26L147 780H241L191 373Q215 397 254 415T341 434Q429 434 481 383ZM352 81T391 122T430 230Q430
280 401 311T320 343Q279 343 245 324T190 272T170 198Q170 148 203 115T288 81Q352 81 391 122Z" />
<glyph unicode="&#xff;" glyph-name="ydieresis" horiz-adv-x="481" d="M533 423L183 -203H73L199 18L54 423H180L271 144L430 423H533ZM142 562T163 581T209 599Q229 597 245 581T261 541Q261 512 241 494T196 477Q174 478 158 494T142 534Q142 562 163 581ZM334
562T354 581T400 599Q421 597 436 581T452 541Q452 512 432 494T387 477Q366 478 350 494T334 534Q334 562 354 581Z" />
<glyph unicode="&#x2013;" glyph-name="endash" horiz-adv-x="517" d="M440 266L428 168H122L134 266H440Z" />
<glyph unicode="&#x2014;" glyph-name="emdash" horiz-adv-x="711" d="M643 266L631 168H121L133 266H643Z" />
<glyph unicode="&#x2018;" glyph-name="quoteleft" horiz-adv-x="166" d="M144 574Q109 615 109 669Q109 695 118 722L177 715Q170 694 170 672Q170 628 197 599L144 574Z" />
<glyph unicode="&#x2019;" glyph-name="quoteright" horiz-adv-x="166" d="M104 599Q128 620 141 650T152 715L213 722Q216 681 199 642T150 574L104 599Z" />
<glyph unicode="&#x201a;" glyph-name="quotesinglbase" horiz-adv-x="148" d="M22 -34T15 -30Q40 -8 53 22T63 87L124 94Q127 52 111 13T62 -56Q22 -34 15 -30Z" />
<glyph unicode="&#x201c;" glyph-name="quotedblleft" horiz-adv-x="252" d="M170 585T145 574Q111 614 111 669Q111 695 120 722L179 715Q172 694 172 672Q172 628 199 599Q170 585 145 574ZM279 586T251 574Q217 614 217 670Q217 698 225 722L284 715Q277 689
277 672Q277 628 304 599Q279 586 251 574Z" />
<glyph unicode="&#x201d;" glyph-name="quotedblright" horiz-adv-x="252" d="M77 599Q101 620 114 650T125 715L186 722Q189 680 173 642T123 574L77 599ZM183 599Q207 620 220 650T231 715L292 722Q295 681 278 642T229 574L183 599Z" />
<glyph unicode="&#x201e;" glyph-name="quotedblbase" horiz-adv-x="371" d="M22 -34T15 -30Q40 -8 53 22T63 87L124 94Q127 52 111 13T62 -56Q22 -34 15 -30ZM128 -34T121 -30Q146 -9 158 21T169 87L230 94Q233 52 216 13T168 -56Q128 -34 121 -30Z" />
<glyph unicode="&#x2022;" glyph-name="bullet" horiz-adv-x="486" d="M137 333T159 369T219 427T298 449Q353 449 389 412T425 319Q425 276 403 240T343 183T263 162Q208 162 173 198T137 290Q137 333 159 369Z" />
<glyph unicode="&#x2039;" glyph-name="guilsinglleft" horiz-adv-x="398" d="M146 241T261 354Q340 433 346 438L332 323Q324 316 315 305T295 283Q272 257 258 243Q262 238 282 206Q308 165 311 162L298 47L148 243Q146 241 261 354Z" />
<glyph unicode="&#x203a;" glyph-name="guilsinglright" horiz-adv-x="398" d="M113 47L100 162Q103 165 129 206Q149 238 153 243L116 283Q85 318 79 323L65 438Q71 433 150 354Q265 241 263 243L113 47Z" />
</font>
</defs>
</svg>
