<?xml version="1.0" standalone="no"?>
<!DOCTYPE svg PUBLIC "-//W3C//DTD SVG 1.1//EN" "http://www.w3.org/Graphics/SVG/1.1/DTD/svg11.dtd">
<svg xmlns="http://www.w3.org/2000/svg">
<defs >
<font id="Pompiere" horiz-adv-x="799" ><font-face
    font-family="Pompiere "
    units-per-em="2048"
    panose-1="2 0 0 0 0 0 0 0 0 0"
    ascent="1918"
    descent="-543"
    alphabetic="0" />
<glyph unicode=" " glyph-name="space" horiz-adv-x="364" />
<glyph unicode="!" glyph-name="exclam" horiz-adv-x="496" d="M313 115T321 99T329 60T320 21T296 -6Q270 -24 233 -24Q180 -24 158 24Q150 40 150 61Q150 121 208 140Q224 146 239 146T271 141T300 126ZM288 946V662Q288 471 296 386Q299 354 282 337T245 320T211
334T200 407Q203 488 203 676T202 993T199 1244Q195 1501 181 1691Q178 1730 199 1749T245 1768T289 1749T305 1677T298 1538T292 1352Q288 1154 288 946Z" />
<glyph unicode="&quot;" glyph-name="quotedbl" horiz-adv-x="579" d="M423 1819Q490 1819 480 1731Q462 1515 462 1195Q462 1141 421 1136Q405 1134 393 1149T381 1198L383 1279Q383 1368 378 1483T367 1731Q363 1819 423 1819ZM152 1136Q135 1134 124 1149T112
1222T109 1359T102 1507T93 1633T85 1732T100 1797T147 1819T193 1797T210 1740T204 1658T200 1556T197 1442T194 1332Q191 1248 191 1195T152 1136Z" />
<glyph unicode="#" glyph-name="numbersign" horiz-adv-x="884" d="M358 1045Q356 1026 352 1002Q347 959 341 907T327 798T314 689T302 594Q299 576 297 562L380 560Q413 560 438 560T482 560T520 562Q525 562 529 562Q534 595 540 648Q552 740 559 797T573 908T586
1004Q588 1028 591 1047L528 1048H504Q427 1048 358 1045ZM289 1135Q328 1437 331 1583Q331 1611 346 1624T384 1637T424 1618T435 1559T421 1473T404 1370Q385 1251 369 1133L441 1132Q474 1132 500 1132T546 1132T588 1134Q595 1134 601 1134Q609 1205 616 1262Q623
1328 628 1383Q640 1510 641 1560T657 1624T695 1637T731 1618T739 1560T726 1474T712 1371T696 1248Q689 1197 681 1136L745 1140Q777 1142 794 1124T812 1086T800 1049T764 1035T728 1038T699 1040T670 1044Q670 1044 669 1044Q667 1024 664 997Q658 954 652
902T638 793T625 684T612 588Q611 574 609 562Q611 562 612 562Q625 563 638 564Q662 564 691 566T737 552T755 514T742 477T705 463T667 466T634 468Q613 469 599 470Q585 340 578 272Q570 195 564 138T555 46T536 -3T500 -18T462 0T451 53T465 144T484 263Q504
399 514 475H494Q470 475 439 475Q379 475 287 471Q283 432 278 386Q270 322 263 258Q253 164 240 40Q236 11 221 -3T191 -18T166 -14T149 0Q133 20 138 54T152 143T171 261T190 388Q196 429 201 466L149 464Q116 462 100 478T81 515T95 553T131 569T163 566T188
564Q201 563 214 562Q216 578 219 598Q225 640 232 691T246 797T260 904Q272 989 278 1040Q230 1036 204 1036Q142 1036 137 1088Q136 1108 151 1125T187 1142T222 1139T251 1137T282 1135Q286 1135 289 1135Z" />
<glyph unicode="$" glyph-name="dollar" horiz-adv-x="908" d="M469 775L468 240Q468 164 468 106Q570 118 626 204Q681 291 681 444Q681 599 506 746Q488 761 469 777V775ZM658 1168Q636 1168 622 1188T612 1240Q624 1315 624 1349T615 1418T584 1480Q548 1524
485 1535Q484 1521 484 1507Q480 1434 478 1348T473 1167Q470 1032 469 888Q485 876 500 863Q551 821 600 778T688 686Q774 576 774 465T751 274T681 139Q601 42 469 25Q469 -47 470 -66Q472 -103 467 -115T454 -136Q437 -153 417 -153T380 -138T365 -92Q366 -34
368 25Q255 39 179 130Q95 232 95 383Q95 444 112 474T157 504T196 489T208 453T207 411T203 349T219 257T266 171Q308 125 371 111Q374 220 378 336Q387 559 387 792V844Q345 879 304 915Q255 959 216 1009Q130 1119 130 1246Q130 1418 216 1521Q281 1600 386
1619Q385 1639 384 1654Q380 1745 385 1756T400 1776Q416 1792 442 1792Q482 1792 496 1756Q500 1745 497 1719T490 1636Q490 1630 490 1623Q580 1610 644 1530Q721 1432 721 1300T658 1168ZM388 957L389 1278Q389 1433 388 1531Q322 1513 279 1450Q226 1373 226
1251Q226 1098 388 957Z" />
<glyph unicode="%" glyph-name="percent" horiz-adv-x="1099" d="M624 362Q624 102 736 102Q827 102 855 263Q864 314 864 375T855 481T828 558Q795 623 742 623Q687 623 654 542Q624 468 624 362ZM744 718Q839 719 892 626T945 362Q945 225 888 126Q828 18 735
18T589 104T537 351Q537 613 661 692Q699 717 744 718ZM365 320T328 214T273 55T239 -9T203 -20T167 1T173 74T232 219T311 420T398 648T487 888T574 1127T652 1352Q730 1583 760 1703Q765 1727 782 1739T815 1752T844 1745T865 1725Q884 1697 868 1668T825 1572T762
1410T682 1198T592 953T498 695T408 442ZM305 1091Q395 1091 424 1253Q433 1304 433 1364T424 1471T398 1548Q364 1613 310 1613T223 1532Q193 1458 193 1336T224 1152T305 1091ZM230 1682Q267 1707 313 1708T397 1686T461 1616Q514 1522 514 1352Q514 1215 458
1116Q397 1008 304 1008T158 1094T106 1340Q106 1602 230 1682Z" />
<glyph unicode="&amp;" glyph-name="ampersand" horiz-adv-x="1036" d="M323 103T355 88T450 72T576 120Q626 158 654 220Q646 232 637 246Q618 276 599 305T564 361T535 406T506 450T469 506Q435 557 410 598Q394 574 377 548Q348 506 322 460Q260 350 260 291T270
195T302 131ZM245 1232Q245 1146 261 1085T304 966T368 852Q396 806 426 753Q446 781 468 808Q497 844 524 881T576 957T618 1042Q657 1140 657 1242T643 1402T603 1498Q552 1571 457 1571Q373 1571 314 1492Q245 1397 245 1232ZM810 586L811 554Q811 363 754 228Q820
135 892 74Q919 51 919 28T906 -10T875 -25Q839 -25 815 14Q775 74 745 114Q725 141 713 157Q668 80 599 34Q519 -18 441 -18T314 2T232 59Q163 136 163 266Q163 398 314 598Q343 636 367 671Q329 735 294 792Q251 859 219 924Q148 1067 148 1192T174 1406T244
1552Q331 1667 462 1667Q664 1667 724 1445Q745 1367 745 1275T732 1122T695 1008T642 910T579 823T513 741Q489 712 468 683Q495 636 514 605Q537 566 553 539T581 490T612 440T650 381Q678 338 701 305Q721 370 721 447Q721 540 716 575T726 628T760 646T794
632T810 586Z" />
<glyph unicode="&apos;" glyph-name="quotesingle" horiz-adv-x="303" d="M192 1296T192 1259T191 1201T179 1167T150 1153T122 1165T110 1238T109 1374T106 1520Q103 1673 99 1729Q92 1829 152 1829Q178 1829 194 1807T207 1750T201 1669T198 1568T195 1455T193 1347Z" />
<glyph unicode="(" glyph-name="parenleft" horiz-adv-x="616" d="M462 1866T474 1852T487 1816T457 1764T380 1658T290 1466Q195 1197 195 795Q195 448 277 188Q346 -32 439 -116Q475 -146 475 -173T462 -213T431 -228Q397 -229 374 -204T324 -135T268 -27T211
122T159 308Q108 534 108 735T122 1071T160 1316T213 1511T272 1660Q319 1763 373 1829Q408 1868 435 1867Z" />
<glyph unicode=")" glyph-name="parenright" horiz-adv-x="599" d="M143 -207T143 -187T164 -143T215 -76T271 25T321 160T362 340Q401 563 401 800T380 1185T324 1447Q256 1674 167 1752Q132 1781 131 1808T143 1850T182 1865T235 1836T307 1723T392 1516Q491
1214 491 862Q491 440 400 126Q336 -99 257 -195Q223 -236 197 -236T157 -222Z" />
<glyph unicode="*" glyph-name="asterisk" horiz-adv-x="819" d="M361 1366Q309 1390 210 1405Q145 1415 127 1437T109 1474T116 1501T134 1523Q161 1545 187 1533T242 1506T300 1477Q352 1451 388 1437Q382 1564 374 1622Q366 1686 370 1702T382 1728Q398 1749
417 1749T449 1744T470 1728Q491 1703 486 1649T472 1530Q464 1476 460 1433Q522 1453 585 1484Q658 1521 674 1530Q700 1547 724 1547T764 1530T780 1491Q780 1442 721 1427Q588 1395 489 1365Q539 1302 638 1198Q668 1166 668 1138T654 1094T622 1079Q581 1079
559 1115T516 1184T477 1246Q447 1292 427 1322Q409 1289 391 1252Q319 1105 301 1093T263 1080T226 1098T208 1137Q208 1179 243 1201Q304 1251 361 1366Z" />
<glyph unicode="+" glyph-name="plus" horiz-adv-x="891" d="M400 411Q287 408 172 399Q139 397 124 413T108 450T124 488T167 504T222 501T282 498Q359 496 400 495Q399 553 392 723Q390 755 407 771T445 788T482 773T496 729T491 669T488 602Q485 537 484 495Q602
495 718 503Q750 505 766 487T783 449T768 412T708 400Q597 410 484 411Q485 314 496 178Q498 144 482 129T444 114T406 129T390 170T394 229T398 300Q400 350 400 411Z" />
<glyph unicode="," glyph-name="comma" horiz-adv-x="461" d="M321 48Q321 -68 245 -162Q186 -232 156 -201Q149 -193 149 -182Q149 -162 170 -136Q223 -70 225 2Q201 -8 177 7Q131 34 131 73T157 137T213 161T261 153T292 128Q321 95 321 48Z" />
<glyph unicode="-" glyph-name="hyphen" horiz-adv-x="622" d="M119 460T135 478T192 490T305 484T423 489T486 477T503 439T488 402T441 387T375 391T305 394Q253 394 210 390T155 388T135 400Q119 414 119 437Z" />
<glyph unicode="." glyph-name="period" horiz-adv-x="461" d="M302 108T310 92T318 53T309 14T286 -13Q259 -31 222 -31Q169 -31 146 17Q139 33 139 54Q139 114 197 134Q213 139 228 139T260 134T289 119Z" />
<glyph unicode="/" glyph-name="slash" horiz-adv-x="722" d="M259 163T231 56T186 -103T153 -167T121 -179T93 -166T80 -136T95 -75T141 68T206 290T275 546T346 819T413 1091T474 1344Q542 1628 563 1725Q570 1756 588 1771T623 1786T655 1773T670 1744Q670
1715 655 1675T612 1542T554 1333T490 1087T424 820T357 548T291 288Z" />
<glyph unicode="0" glyph-name="zero" horiz-adv-x="1021" d="M498 -23Q218 -23 158 488Q139 650 139 844T162 1182T232 1426Q329 1631 516 1631Q708 1631 796 1434Q879 1246 881 854Q884 221 670 38Q597 -23 498 -23ZM497 67Q786 67 786 847Q786 1286 691 1440Q627
1543 516 1543Q235 1543 235 837Q235 232 386 108Q435 67 497 67Z" />
<glyph unicode="1" glyph-name="one" horiz-adv-x="573" d="M302 5Q256 5 258 74T263 247T268 469Q271 744 271 889V1280Q271 1360 270 1432Q270 1468 270 1499Q262 1487 253 1473Q210 1408 195 1391T155 1373T114 1390T97 1432T124 1481T170 1521T202 1548Q232
1575 257 1600T310 1626Q369 1626 367 1562Q357 1282 357 1098V781Q357 297 362 72Q363 39 344 22T302 5Z" />
<glyph unicode="2" glyph-name="two" horiz-adv-x="865" d="M648 1191Q648 1528 445 1528Q334 1528 281 1431T235 1146Q235 1103 199 1090Q189 1087 174 1087T142 1103T124 1153Q117 1383 220 1508Q310 1619 459 1619Q685 1619 734 1381Q750 1304 750 1219T728
1065T668 929T584 796T488 665T391 533T307 400Q225 252 225 125Q225 99 234 94T281 90T373 96T482 104Q612 112 662 108Q741 103 741 52Q741 33 727 18T686 2L448 5Q282 5 216 -1T130 6T109 56Q109 252 249 474Q309 569 378 658T508 836Q648 1040 648 1191Z" />
<glyph unicode="3" glyph-name="three" horiz-adv-x="897" d="M108 418Q108 504 170 504Q190 504 205 487T218 442T211 395T206 334T220 239T265 148Q329 69 446 69Q566 69 628 158Q684 236 684 360Q684 468 614 548Q537 635 420 629Q388 624 372 639T356 676T376
722T440 753Q536 795 598 908Q660 1022 660 1180T604 1434T444 1529T282 1450T224 1216Q224 1180 215 1163T182 1146T140 1162T122 1214Q122 1411 218 1522Q306 1624 439 1624Q747 1624 747 1173Q747 930 618 775Q582 732 532 701Q616 686 683 616Q777 518 777
366Q777 195 678 85Q581 -22 432 -22Q290 -22 197 87Q99 202 107 391Q108 405 108 418Z" />
<glyph unicode="4" glyph-name="four" horiz-adv-x="822" d="M613 1570L606 834V631L734 638Q767 640 783 625T799 592T785 562T752 548T711 549T662 549T612 548Q609 547 607 547L605 452V417Q605 314 608 218T612 69T598 -2T562 -19T527 -4T511 43V74L516 390Q516
467 514 547L423 549L87 538Q20 538 20 581Q20 597 38 635T106 767T222 990Q379 1298 507 1591Q528 1635 570 1635T613 1570ZM521 1432Q471 1319 384 1138Q279 917 244 843Q176 696 149 627Q203 625 258 625H343Q359 625 383 625T433 626Q487 627 514 628Q520 1093
520 1111V1164L521 1316V1432Z" />
<glyph unicode="5" glyph-name="five" horiz-adv-x="903" d="M496 762Q447 762 413 749T356 716Q318 683 302 648Q272 582 230 582Q190 582 180 619Q176 631 179 660T187 732T196 822Q203 926 203 1072Q203 1352 186 1562Q183 1612 229 1622Q241 1624 256 1622T304
1618T376 1616Q494 1614 547 1614Q663 1614 711 1617T778 1605T797 1565T777 1524T720 1512T626 1518T504 1522T376 1524Q329 1525 289 1526Q289 1420 290 1331Q290 1230 290 1133Q288 951 284 747Q339 819 442 842Q471 849 487 849Q638 849 721 743T804 416Q804
221 708 98Q614 -22 470 -22Q317 -22 229 78Q138 182 144 357Q145 388 161 402T199 417T237 400T252 360Q249 329 249 293T265 212T310 132Q373 60 470 60Q592 60 656 166Q712 260 712 413Q712 555 655 655Q594 762 496 762Z" />
<glyph unicode="6" glyph-name="six" horiz-adv-x="1011" d="M276 385Q295 248 367 156Q433 73 503 73T619 100T694 172Q755 264 755 397Q755 615 630 683Q590 705 541 705T447 680T364 610Q282 512 276 385ZM250 561Q287 663 360 725Q445 797 528 797T668 772T764
696Q848 589 848 395Q848 256 772 128Q682 -22 527 -22Q417 -22 323 65Q232 152 196 318Q158 488 158 730T179 1118T247 1378Q349 1622 560 1630Q785 1640 849 1399Q871 1316 871 1200Q871 1166 854 1150T816 1133T780 1147T766 1193Q780 1459 647 1524Q607 1543
547 1543T432 1496T338 1358Q261 1181 245 836Q241 743 247 620Q249 589 250 561Z" />
<glyph unicode="7" glyph-name="seven" horiz-adv-x="785" d="M125 1614L362 1610Q493 1610 630 1621Q709 1630 709 1560Q709 1492 634 1249T524 890T456 656T398 428Q342 185 346 56Q346 15 308 1Q263 -16 247 12T237 100T265 262T314 474T375 695T441 912T505
1113T560 1284Q611 1452 611 1484T602 1522T558 1525T477 1517T382 1510Q287 1504 234 1504Q149 1504 123 1509T84 1531T70 1567T83 1600T125 1614Z" />
<glyph unicode="8" glyph-name="eight" horiz-adv-x="955" d="M474 72Q534 72 577 97T649 166Q704 249 704 374Q704 483 638 560Q570 640 461 640Q359 640 294 559Q234 483 234 372Q234 250 295 165Q361 72 474 72ZM707 1349T652 1446T473 1544T284 1447T218 1157Q218
979 286 858Q357 732 470 732Q584 732 648 858Q707 976 707 1162ZM331 692Q196 756 143 982Q122 1072 122 1154Q122 1395 211 1515T471 1635T725 1515T808 1154Q808 1023 756 888Q702 746 601 688Q795 618 795 355Q795 195 707 90Q614 -22 461 -22Q324 -22 232
86Q140 195 140 353Q140 560 280 659Q305 677 331 692Z" />
<glyph unicode="9" glyph-name="nine" horiz-adv-x="990" d="M755 1070Q755 1179 738 1265T688 1412Q619 1540 495 1540Q381 1540 310 1404Q244 1278 244 1136T258 901T301 743Q361 608 480 608Q600 608 676 729Q755 855 755 1070ZM764 763Q678 520 482 520Q321
520 233 666T145 1111Q145 1290 224 1442Q319 1629 492 1629Q691 1629 772 1462Q852 1299 852 909Q852 443 781 225Q701 -22 512 -22Q394 -22 303 75Q202 183 194 360Q192 394 207 410T240 426T272 412T290 345T314 238T364 144Q424 69 512 69Q679 69 740 420Q764
562 764 722V763Z" />
<glyph unicode=":" glyph-name="colon" horiz-adv-x="461" d="M302 693T310 677T318 638T309 599T286 572Q259 554 222 554Q169 554 146 602Q139 618 139 639Q139 699 197 719Q213 724 228 724T260 719T289 704ZM302 115T310 99T318 60T309 21T286 -6Q259 -24
222 -24Q169 -24 146 24Q139 40 139 61Q139 121 197 141Q213 146 228 146T260 141T289 126Z" />
<glyph unicode=";" glyph-name="semicolon" horiz-adv-x="461" d="M302 687T310 671T318 632T309 593T286 566Q259 548 222 548Q169 548 146 596Q139 612 139 633Q139 693 197 713Q213 718 228 718T260 713T289 698ZM570 48Q570 -68 494 -162Q435 -232 405 -201Q398
-193 398 -182Q398 -162 419 -136Q472 -70 474 2Q450 -8 426 7Q380 34 380 73T406 137T462 161T510 153T541 128Q570 95 570 48Z" />
<glyph unicode="&lt;" glyph-name="less" horiz-adv-x="951" d="M807 78T791 61T753 44T681 74T546 154T382 247Q211 342 146 372T66 413T52 445T65 476T130 509T268 574T435 664Q598 755 703 831Q726 848 747 848T788 834T808 796Q808 755 768 734T684 692T588
644T478 590T362 530Q273 484 200 443Q594 222 766 154Q807 137 807 108Z" />
<glyph unicode="=" glyph-name="equal" horiz-adv-x="945" d="M173 590Q274 581 459 581T772 589Q804 591 820 575T837 540T822 507T784 494T737 499T676 502Q569 505 515 505T412 505T318 503Q238 501 188 498Q108 492 108 542Q108 561 124 576T173 590ZM173
374Q263 366 461 366T772 373Q804 375 820 359T837 325T822 292T764 281Q652 289 521 289Q322 289 173 280Q139 278 124 293T108 327T124 361T173 374Z" />
<glyph unicode="&gt;" glyph-name="greater" horiz-adv-x="951" d="M203 55Q143 55 143 108Q143 146 182 162T272 202T384 254T510 315T634 378Q713 420 762 452Q368 674 185 748Q144 765 144 794T159 841T196 858T239 847Q592 629 845 512Q871 500 885 490T899
458T885 427T844 403T774 366T679 315T572 256T458 193Q397 158 316 111T225 60T203 55Z" />
<glyph unicode="?" glyph-name="question" horiz-adv-x="879" d="M493 115T501 99T509 60T500 21T476 -6Q450 -24 413 -24Q360 -24 338 24Q330 40 330 61Q330 121 388 140Q404 146 419 146T451 141T480 126ZM606 668Q668 668 668 581T651 436T602 337Q538 256
433 256Q343 256 280 324Q218 393 218 499T250 687T332 837T437 969T543 1102Q657 1261 657 1434Q657 1560 600 1627T446 1694Q360 1694 300 1622Q241 1551 241 1458Q241 1420 255 1392Q282 1338 282 1304Q282 1278 266 1263T229 1247Q137 1247 137 1444Q137 1579
225 1680Q318 1786 451 1786Q582 1786 660 1697Q742 1603 742 1440Q742 1222 605 1039Q566 987 526 939T446 843T376 744Q309 631 309 511Q309 396 376 356Q399 343 432 343Q560 343 560 514L550 598Q550 635 566 651T606 668Z" />
<glyph unicode="@" glyph-name="at" horiz-adv-x="1249" d="M854 100Q742 100 742 269Q742 283 745 314T750 370Q751 380 752 389Q714 271 678 217Q633 149 593 121T512 93T441 109T385 156Q330 223 330 319T346 479T390 592T452 676T527 735Q603 780 677 780Q744
780 800 730Q802 728 804 726Q810 732 816 736Q837 748 852 748T881 735T895 701T890 665T881 630T866 572T846 484Q819 359 819 283Q819 179 877 179Q899 179 930 203T990 278Q1057 400 1057 600Q1057 1015 689 1015Q492 1015 344 844Q179 655 179 338Q179 109
296 -20Q415 -150 627 -150Q745 -150 799 -126Q873 -92 925 -36Q934 -22 944 -6T965 22Q990 51 1016 46Q1097 30 1018 -80Q957 -164 811 -208Q734 -232 627 -232Q395 -232 250 -98Q88 53 88 335Q88 680 276 898Q453 1103 700 1103Q885 1103 1006 994Q1150 865 1150
616Q1150 403 1066 252Q980 100 854 100ZM769 647Q742 687 669 687Q564 687 492 591T420 349Q420 264 446 224T513 183T593 227T666 342Q726 468 769 647Z" />
<glyph unicode="A" glyph-name="A" horiz-adv-x="933" d="M460 1621Q484 1621 504 1601T535 1518T570 1336T623 1084T684 808T748 531Q825 217 868 72Q878 35 863 13T828 -9T794 2T766 67T727 242T669 502Q668 508 667 513Q599 516 475 516Q329 516 252 512Q251
506 250 500Q189 206 160 45Q150 -6 107 -6Q62 -6 52 38Q49 51 58 79T84 175T122 332T166 526T213 742T261 965T307 1183T348 1380T380 1526Q399 1621 460 1621ZM271 605Q347 601 476 601Q583 601 647 604Q626 695 605 791Q572 940 542 1080Q492 1309 456 1482Q433
1367 390 1169Q334 905 305 767Q288 684 271 605Z" />
<glyph unicode="B" glyph-name="B" horiz-adv-x="906" d="M458 847L498 855Q649 853 734 782T819 578Q819 417 723 280Q594 95 360 22Q216 -22 176 5Q152 21 152 62L162 864V973Q162 1116 158 1207T150 1359T145 1470T148 1534T166 1555Q191 1572 306 1594T485
1616Q812 1616 812 1340Q812 1116 576 932Q521 889 458 847ZM252 99Q335 102 410 136Q495 176 547 215T640 307Q730 421 730 567Q730 670 649 725Q576 774 465 774Q369 774 305 752Q267 739 245 729Q245 706 246 680Q246 609 246 525T248 357Q250 176 252 99ZM245
822Q382 850 536 986Q646 1083 694 1202Q718 1264 718 1326T699 1427T646 1492Q583 1537 473 1537Q348 1537 250 1492Q250 1479 249 1458Q248 1422 247 1349Q245 1203 245 1026V822Z" />
<glyph unicode="C" glyph-name="C" horiz-adv-x="929" d="M715 413Q715 446 731 464T769 483T807 468T822 420Q812 218 713 95Q618 -23 475 -23Q205 -23 126 381Q96 530 96 732T121 1093T197 1369Q306 1619 507 1619Q663 1619 738 1496Q817 1365 817 1068Q817
1035 802 1019T766 1002Q720 1002 720 1060Q720 1430 602 1501Q560 1526 504 1526T404 1495T325 1408T265 1277T224 1114Q192 938 192 767T203 492T234 315T281 195T342 121Q398 74 485 74Q582 74 644 153Q717 244 715 413Z" />
<glyph unicode="D" glyph-name="D" horiz-adv-x="978" d="M862 1242Q894 1120 894 973T869 699T799 465T692 271T553 123Q396 -3 212 -3Q183 -3 175 15T166 60V146Q166 208 166 296T165 493T163 718T160 953T156 1180Q150 1404 142 1533Q137 1601 202 1609Q298
1623 360 1623Q762 1623 862 1242ZM266 91Q379 95 491 188Q699 361 769 704Q793 822 793 971T757 1231T662 1408Q553 1532 381 1532Q306 1532 259 1516Q251 1413 251 1227Q251 1004 252 886T254 655T257 439T261 253Q264 150 266 91Z" />
<glyph unicode="E" glyph-name="E" horiz-adv-x="760" d="M258 549L260 194Q260 146 260 112Q261 97 261 86Q513 86 596 94Q682 103 696 99T720 86Q740 68 740 47T721 10T668 -4Q504 9 372 1T224 -10T196 -11T173 0Q150 17 152 50Q167 339 167 689T167 1130T168
1296Q166 1457 161 1523T163 1603T182 1622Q197 1629 220 1625Q262 1618 331 1618Q464 1618 512 1623T575 1625T598 1612Q618 1596 618 1573T600 1535T551 1521T485 1525T410 1530Q326 1533 264 1528Q264 1441 263 1355Q262 1253 261 1148Q258 866 258 732Q383
732 442 738Q506 745 522 732T539 697Q539 642 436 644Q415 645 398 645L317 646H258V549Z" />
<glyph unicode="F" glyph-name="F" horiz-adv-x="616" d="M177 447L176 926Q176 1262 152 1564Q149 1609 181 1622Q199 1630 223 1626Q265 1619 325 1619T412 1619T468 1621Q538 1624 563 1627T602 1626T626 1614Q646 1596 646 1574T628 1536T579 1522T509 1526T427
1530Q335 1533 271 1529V1356Q271 1254 270 1148Q269 865 269 732Q406 732 484 740Q567 749 567 697Q567 647 452 646Q423 645 406 645L326 646H269L278 61Q278 35 265 18T235 0T209 2T190 12Q169 30 171 61Q177 176 177 447Z" />
<glyph unicode="G" glyph-name="G" horiz-adv-x="936" d="M817 1164Q819 1098 772 1098Q752 1098 736 1112T720 1156Q720 1470 586 1522Q544 1538 477 1533T352 1472T258 1320Q190 1142 190 826Q190 156 410 88Q447 77 487 77Q681 77 724 442Q737 560 736 611Q647
616 588 609Q523 601 499 601T461 618T446 655T461 692T507 704T570 699H628Q680 699 707 703Q754 710 777 710Q829 710 829 651Q829 336 736 157Q641 -23 478 -23Q281 -23 187 184Q92 395 92 845Q92 1607 497 1630Q817 1647 817 1164Z" />
<glyph unicode="H" glyph-name="H" horiz-adv-x="990" d="M735 1112L734 1270Q734 1308 734 1351T733 1445T731 1543T748 1606T786 1621T822 1606T838 1559Q822 1004 822 689Q822 182 829 63Q831 31 815 15T779 -1T744 14T729 62Q733 391 735 627Q646 635 492
635Q332 635 255 626Q256 324 262 68Q263 35 245 18T207 1T170 16T156 87T160 245T164 464Q166 659 166 863T166 1150T164 1303Q161 1411 152 1553Q150 1585 168 1600T208 1616T248 1601T264 1539T260 1426T257 1281T256 1104Q255 1013 255 721Q321 711 494 711Q660
711 735 721Q735 759 735 794V1112Z" />
<glyph unicode="I" glyph-name="I" horiz-adv-x="492" d="M292 1367T292 1313T291 874T303 66Q304 34 285 17T244 0T206 15T191 82T195 226T199 422Q203 628 203 806T203 1084T200 1268Q197 1454 189 1565Q186 1597 200 1612T238 1628T281 1613T300 1560T297 1487T294
1409Z" />
<glyph unicode="J" glyph-name="J" horiz-adv-x="818" d="M640 1559Q636 1087 636 976V563Q636 261 568 122Q498 -22 335 -22Q210 -22 136 92Q57 212 57 430Q57 541 76 560T121 579T160 560T172 508Q166 456 166 376T180 235T218 136Q264 65 342 65Q447 65 492
169Q538 276 540 544Q542 664 542 851T542 1118T542 1272Q540 1425 529 1560Q526 1592 543 1606T581 1621T621 1606T640 1559Z" />
<glyph unicode="K" glyph-name="K" horiz-adv-x="950" d="M820 1598T822 1582T800 1510T696 1309Q622 1176 525 999Q585 825 660 641Q740 443 774 359Q855 158 874 113T891 52T881 24Q864 0 841 0Q799 0 783 41Q570 654 471 904Q352 681 266 545Q266 249 270 66Q271
34 253 17T212 0T173 15T157 85T162 245T168 467Q174 703 174 888T173 1157T170 1310Q165 1427 152 1562Q149 1594 168 1609T212 1625T257 1610T277 1562Q266 1305 266 688Q510 1104 662 1466Q692 1537 705 1575T733 1624T763 1634T790 1628T811 1610Z" />
<glyph unicode="L" glyph-name="L" horiz-adv-x="764" d="M208 1625Q269 1625 269 1538Q269 1420 268 1290T265 1053T263 806Q261 513 259 87Q458 83 641 101Q677 105 697 86T717 46T699 10T646 -4Q532 5 401 0T242 -9T203 -11T180 0Q158 17 160 50Q172 284 172
661T172 1128T169 1293Q165 1442 152 1561Q149 1593 167 1609T208 1625Z" />
<glyph unicode="M" glyph-name="M" horiz-adv-x="1319" d="M1150 1254L1151 893Q1151 515 1167 62Q1168 30 1151 15T1111 0T1071 17T1053 66Q1068 516 1068 816V1334Q1068 1392 1067 1443Q1045 1358 1010 1222Q930 923 898 809T834 583Q768 354 711 181Q705 161
688 151T654 141Q623 141 612 181Q607 197 589 258T543 410T482 613T413 844T343 1078T281 1292Q258 1373 242 1432L244 1184Q244 731 253 435T264 91T260 32T245 14Q206 -19 168 16Q150 33 152 76T157 183T160 320Q164 490 164 635L152 1545Q152 1590 173 1608T222
1627Q275 1627 295 1563Q297 1557 305 1528T328 1451T360 1341T400 1206T444 1055Q524 780 665 302Q739 513 938 1259Q977 1407 1016 1561Q1034 1630 1099 1630Q1125 1630 1140 1605T1154 1531Q1150 1464 1150 1254Z" />
<glyph unicode="N" glyph-name="N" horiz-adv-x="1072" d="M918 1567Q912 1069 912 863T912 560T914 376Q916 192 918 125T915 44T899 22Q858 -15 812 15Q794 27 786 51Q698 309 574 611T401 1039Q312 1266 246 1455L259 60Q259 29 243 14T207 -1T169 15T152 65Q162
340 162 692V1285Q162 1440 160 1552Q160 1589 182 1608T230 1628Q286 1628 304 1575T355 1433T429 1234T517 1002T611 758T702 522T782 315T843 156Q844 153 845 151Q837 347 832 578Q827 859 824 999T817 1282T808 1567Q808 1599 825 1614T864 1630T901 1615T918
1567Z" />
<glyph unicode="O" glyph-name="O" horiz-adv-x="1027" d="M704 -23T495 -23T188 193T89 831Q89 1164 202 1390Q258 1500 338 1565T522 1631T705 1577T834 1419Q934 1217 936 831Q938 425 820 199Q704 -23 495 -23ZM676 1484T629 1513T525 1543T422 1514T339 1432T273
1310T224 1158Q185 992 185 827T197 549T232 356T284 220T350 132Q415 73 505 73Q771 73 828 562Q841 674 841 790T834 993T812 1160T772 1311T712 1432Z" />
<glyph unicode="P" glyph-name="P" horiz-adv-x="865" d="M270 441Q278 200 282 70Q283 36 266 20T228 3T191 18T175 68V294L174 604V882Q174 1154 170 1228T163 1340T158 1417T153 1495T157 1547T176 1567T199 1576T250 1588Q373 1618 468 1618T629 1594T742
1521Q842 1418 842 1227Q842 967 660 750Q513 575 270 441ZM267 536Q750 798 750 1218Q750 1449 590 1515Q471 1564 301 1506Q281 1499 263 1492Q256 1317 256 1132V830Q256 811 257 793T258 755T260 702T264 620Q265 585 267 536Z" />
<glyph unicode="Q" glyph-name="Q" horiz-adv-x="1027" d="M814 -218T814 -230T808 -252T793 -268Q774 -281 758 -281Q722 -281 706 -230T677 -141T654 -74T634 -16Q631 -8 627 0Q568 -23 496 -23Q391 -23 315 26T187 180Q84 392 84 843Q84 1208 198 1420Q310
1631 515 1631Q926 1631 930 843Q933 214 703 42Q704 38 706 34Q719 -1 734 -36Q761 -103 787 -160ZM496 1541Q426 1541 365 1484T264 1328Q184 1130 184 822Q184 148 416 78Q453 66 493 66T576 74Q586 76 596 79Q576 129 541 212Q496 319 497 334T504 360Q519
384 542 384Q588 384 604 341Q628 267 646 212Q661 163 674 124Q702 148 727 187Q760 238 784 323Q836 502 836 834Q836 1132 762 1325Q678 1541 496 1541Z" />
<glyph unicode="R" glyph-name="R" horiz-adv-x="916" d="M265 464Q273 237 278 70Q279 36 261 20T223 3T187 18T171 65V817Q171 1207 152 1517Q149 1561 176 1578Q187 1585 199 1586T252 1600Q355 1629 456 1629T624 1607T738 1538Q838 1440 838 1249Q838 1003
644 774Q613 737 578 701Q676 401 808 89Q832 35 784 10Q772 4 756 4Q720 4 705 45Q673 138 647 223T596 390Q552 536 513 640Q403 543 265 464ZM262 559Q420 651 558 809Q743 1024 743 1240Q743 1464 586 1529Q500 1565 367 1539Q304 1527 264 1507Q251 1206 251
1002Q251 785 251 769T252 739T254 711T256 669T260 599Q261 581 262 559Z" />
<glyph unicode="S" glyph-name="S" horiz-adv-x="867" d="M136 459Q171 459 180 432T189 343T206 227T253 136Q314 62 422 62T594 141T658 370Q658 569 489 724Q441 768 391 811T292 900T206 1002Q123 1125 123 1282Q123 1443 218 1542Q312 1640 454 1640Q576
1640 654 1558Q741 1464 734 1298Q733 1290 733 1281T732 1247T711 1203T671 1183T634 1202T624 1254Q637 1327 637 1364T624 1436T585 1496Q531 1551 445 1551Q350 1551 290 1486Q224 1414 224 1309T247 1140T307 1023T393 928T490 843T588 757T674 658Q757 536
757 377Q757 191 661 80Q566 -30 407 -30Q259 -30 166 84Q78 191 78 325T136 459Z" />
<glyph unicode="T" glyph-name="T" horiz-adv-x="748" d="M321 1617Q349 1617 681 1625Q727 1625 744 1590Q748 1580 748 1567T733 1541T677 1528T598 1531T526 1534Q467 1536 425 1535Q417 1305 417 1036Q417 748 417 642T420 438Q423 190 426 70Q427 36 411
20T375 3T337 18T318 65L317 196L327 1151Q327 1418 320 1535Q267 1536 194 1531Q108 1525 70 1523T15 1535T-1 1569T15 1608T66 1626T128 1623T173 1621T208 1619T238 1618T274 1617H321Z" />
<glyph unicode="U" glyph-name="U" horiz-adv-x="1044" d="M173 518L175 941Q175 1301 152 1551Q149 1583 168 1598T211 1614T256 1599T274 1531T270 1398T265 1227Q261 1047 261 901T261 702T263 598Q268 332 293 261T351 152Q417 76 521 76Q628 76 698 155Q770
237 782 384Q793 564 793 673T793 861T790 1040Q782 1328 774 1557Q773 1589 791 1604T832 1619T874 1604T892 1557Q888 1408 888 1263T886 975Q884 628 873 477T840 248T775 111Q681 -23 522 -23Q259 -23 194 268Q173 359 173 471V518Z" />
<glyph unicode="V" glyph-name="V" horiz-adv-x="925" d="M850 1626T868 1606T876 1546T849 1440T814 1288T773 1102T728 893T680 673T630 451Q574 207 533 50Q520 -3 469 -3Q415 -3 398 50Q384 95 339 312T269 642T218 874T163 1112Q105 1355 75 1456T44 1579T58
1615T95 1630T140 1615T172 1547T198 1410T235 1227T277 1021T323 806T369 595T414 400Q448 253 474 160Q498 227 524 344Q561 513 576 586Q594 671 620 812T665 1050T701 1231T733 1391T757 1521T780 1601T822 1626Z" />
<glyph unicode="W" glyph-name="W" horiz-adv-x="1631" d="M107 1263T85 1370T50 1533T57 1608T103 1628Q153 1628 165 1544T196 1360T234 1149T277 926T320 704T363 497T402 320Q424 220 438 167Q466 281 514 467Q575 702 609 838T674 1100Q738 1372 760 1523Q769
1598 825 1596Q865 1594 876 1542Q926 1316 978 1054T1051 685T1092 483T1128 310Q1149 211 1164 157Q1181 228 1202 316Q1230 438 1261 574T1324 852T1384 1126Q1445 1414 1466 1560Q1477 1636 1528 1632Q1572 1630 1572 1578Q1572 1558 1559 1503T1522 1337T1471
1108T1418 871T1366 639T1317 427T1275 249Q1233 76 1222 51Q1200 -2 1163 -2Q1119 -2 1104 51Q1026 326 971 601T892 994Q869 1108 822 1363Q751 1040 700 838Q645 621 619 514Q554 248 510 51Q505 26 485 12T444 -2Q394 -2 379 51Q286 403 197 833Z" />
<glyph unicode="X" glyph-name="X" horiz-adv-x="892" d="M129 1598Q129 1663 179 1663Q228 1663 247 1597T294 1454T352 1292Q422 1102 467 967Q503 1074 558 1219Q672 1525 685 1577Q705 1658 753 1658Q772 1658 786 1644T801 1606T783 1539T733 1424T666 1266Q586
1071 509 841Q696 279 776 94Q791 58 778 36Q745 -21 701 10Q688 19 679 46T653 126T617 241T575 371T531 509Q486 649 460 733Q433 649 408 568Q377 469 348 378Q270 140 248 82T209 8T176 -7T146 9T133 45T140 83Q236 310 416 860Q315 1165 140 1553Q129 1577
129 1598Z" />
<glyph unicode="Y" glyph-name="Y" horiz-adv-x="966" d="M543 354L550 63Q550 18 507 2Q496 -2 481 -2T449 14T435 66T442 137T449 208Q456 292 456 339T455 420T452 490Q451 519 449 555Q416 639 376 734Q325 858 270 992Q44 1536 44 1581Q44 1606 59 1621T97
1637T134 1622T172 1517T248 1291T349 1026Q416 859 500 671Q515 712 532 758Q561 833 591 915T653 1084T714 1254Q784 1457 803 1524T835 1617T874 1643Q922 1643 922 1596Q922 1560 851 1374T759 1130T719 1020T678 910T633 790T588 672Q564 612 548 571Q543
393 543 354Z" />
<glyph unicode="Z" glyph-name="Z" horiz-adv-x="796" d="M173 1618L370 1609Q454 1609 500 1611T574 1614T629 1620T683 1612T709 1553Q709 1509 599 1229T448 847T368 646T293 454T228 285Q177 145 160 87L187 88H198Q437 88 613 105Q648 108 665 90T683 51T666
11T616 -6Q558 -2 487 -2T366 -1T270 0Q158 2 136 -1T101 -2T78 10Q54 31 58 60T85 150T142 297T221 489T312 709T406 941T492 1168Q572 1388 598 1515Q543 1517 448 1517Q265 1517 200 1514Q98 1508 98 1561Q98 1584 118 1601T173 1618Z" />
<glyph unicode="[" glyph-name="bracketleft" horiz-adv-x="664" d="M243 1866T297 1866T390 1869T451 1875T488 1873T512 1860Q531 1844 531 1822T514 1783T459 1770T396 1775T350 1778T316 1778T284 1776Q277 1776 270 1776Q270 1711 270 1622Q269 1495 269
1335T267 989T266 607Q265 366 262 -140Q324 -140 392 -132Q477 -123 490 -127T514 -140Q533 -156 533 -178T515 -215T462 -229Q357 -223 314 -223T244 -225T205 -225T182 -215Q160 -199 162 -166Q181 266 181 675T180 1210T175 1446Q169 1667 161 1748T157 1841T170
1862Q186 1876 214 1871Z" />
<glyph unicode="\" glyph-name="backslash" horiz-adv-x="722" d="M603 -188Q566 -188 551 -139Q497 33 420 355T311 815T247 1084T185 1332Q119 1587 96 1648Q72 1713 72 1736T85 1773T115 1786T150 1771T178 1708T211 1562T260 1343T319 1088T384 815T452 540T520
282Q586 32 614 -43Q645 -126 645 -144T633 -175T603 -188Z" />
<glyph unicode="]" glyph-name="bracketright" horiz-adv-x="669" d="M416 -140L414 274Q414 968 418 1336Q420 1647 421 1774Q382 1777 352 1777Q303 1777 245 1772Q153 1764 153 1819Q153 1858 196 1872Q210 1877 232 1875Q320 1867 357 1867Q429 1867 456 1871T494
1872T514 1862Q534 1844 528 1794T517 1650T509 1444Q504 1259 504 1024T505 628T508 318Q515 -40 519 -117T517 -206T502 -226Q482 -242 448 -236Q388 -227 336 -227Q262 -227 225 -229T169 -216T151 -179T171 -140T244 -128Q351 -139 416 -140Z" />
<glyph unicode="^" glyph-name="asciicircum" horiz-adv-x="951" d="M821 356T821 337T805 307T773 296Q736 296 722 327Q705 373 657 571T586 861T540 1039T496 1200Q470 1293 452 1344Q425 1275 394 1144Q348 951 328 863T289 690T254 532Q216 368 204 340Q185
294 140 294Q124 294 112 305T99 330Q99 360 111 382T141 457T177 582T216 739T258 913T299 1086T338 1244Q380 1407 396 1440T428 1480T456 1487Q487 1487 504 1446Q530 1385 580 1196T653 921T698 751T740 594Q786 433 803 395Z" />
<glyph unicode="_" glyph-name="underscore" horiz-adv-x="1099" d="M1227 -243Q1227 -277 1165 -277H-33Q-66 -277 -82 -266T-98 -239T-82 -212T-33 -201H1160Q1193 -201 1210 -214T1227 -243Z" />
<glyph unicode="`" glyph-name="grave" horiz-adv-x="467" d="M75 1146Q118 1171 171 1100Q214 1042 306 944Q336 909 336 892T324 865T296 855Q273 855 242 889T188 947T144 990Q95 1039 77 1062Q33 1119 75 1146Z" />
<glyph unicode="a" glyph-name="a" horiz-adv-x="690" d="M490 205Q489 260 490 340Q447 355 381 355Q292 355 235 312Q207 290 190 259T173 178T207 95T307 62T454 152Q477 177 490 205ZM554 -21Q494 -21 494 70Q494 76 493 104Q484 93 473 80Q383 -22 277 -22Q192
-22 136 32Q78 88 78 175Q78 296 172 370Q214 403 266 420T384 437Q438 437 490 419V525Q490 613 454 657T378 701T315 691T271 662Q229 621 223 560Q226 528 210 516T175 503Q121 503 123 575Q125 650 199 713Q275 778 369 778Q509 778 558 639Q575 589 575 529V426L574
258V169Q574 109 588 72T603 20T588 -8T554 -21Z" />
<glyph unicode="b" glyph-name="b" horiz-adv-x="741" d="M121 37L130 902V1032Q130 1095 129 1155T127 1275T124 1399Q118 1538 113 1622T113 1721T128 1743Q142 1757 170 1757Q219 1757 219 1674L214 1255V1054Q214 993 214 925T214 789Q215 647 215 579Q246
657 304 712Q377 783 457 783Q609 783 656 628Q671 578 671 508T651 367T595 239T513 134T414 54Q284 -29 170 -21Q121 -17 121 37ZM260 547T240 500T217 413T213 343T212 293T211 260V237Q211 212 215 60Q260 58 312 86Q377 120 420 156T499 243Q579 360 579 508Q579
596 545 638T461 680T368 654T293 587Z" />
<glyph unicode="c" glyph-name="c" horiz-adv-x="688" d="M592 525Q592 461 542 461T491 525Q493 691 369 691Q291 691 240 593Q195 504 195 398T210 232T252 134Q300 61 375 61Q423 61 454 97T497 174Q514 236 549 236Q566 235 579 222T589 175T567 102T518 36Q454
-21 358 -21Q253 -21 182 76Q105 181 105 367Q105 562 184 673Q257 775 369 777Q464 779 526 714Q592 647 592 525Z" />
<glyph unicode="d" glyph-name="d" horiz-adv-x="741" d="M515 440L514 651Q456 688 405 688T315 668T245 606Q175 515 175 365Q175 154 272 87Q304 65 345 65T415 82T464 124Q500 170 513 233Q515 315 515 440ZM595 1365T595 1282T594 924T604 392T619 111T629
72T639 46T644 22T632 -3T604 -15Q539 -15 536 114Q536 117 536 119Q470 -22 338 -22Q224 -22 154 72Q79 173 79 355Q79 546 178 666Q268 776 391 776Q460 776 509 751Q508 823 508 900Q507 996 506 1091T504 1277T501 1446Q499 1611 496 1668T511 1740T551 1756T592
1741T608 1684T601 1579T597 1440Z" />
<glyph unicode="e" glyph-name="e" horiz-adv-x="691" d="M519 432Q521 606 446 670Q416 697 373 697T302 681T253 638T217 577T193 506Q184 468 180 431L317 425Q451 425 519 432ZM176 345Q178 207 226 134Q278 56 373 56Q460 56 500 142Q525 198 562 198Q579
198 590 187T601 149T582 89T530 32Q458 -24 357 -24Q248 -24 169 69Q86 167 86 302T109 521T172 662Q248 775 362 775Q508 775 567 660Q608 580 611 425Q612 381 597 366T536 351L176 345Z" />
<glyph unicode="f" glyph-name="f" horiz-adv-x="494" d="M492 1497L505 1575Q505 1664 446 1685Q429 1691 402 1691T348 1673T304 1605Q264 1488 270 994Q272 864 272 742L433 747Q500 747 500 697Q500 666 466 652Q454 648 428 650Q348 654 320 654Q293 654
272 653V474Q272 184 279 126T282 50T269 20Q251 -6 229 -6T192 12T178 63T180 155T181 298T180 486Q179 563 178 647Q155 645 124 644Q91 642 76 658T61 692T67 720T84 738Q103 751 125 751L178 747Q176 964 176 1160Q176 1374 187 1482T226 1658Q279 1787 418
1787Q548 1787 592 1641Q607 1593 607 1537T589 1458T547 1436Q492 1436 492 1497Z" />
<glyph unicode="g" glyph-name="g" horiz-adv-x="680" d="M268 39Q282 38 320 38H376Q554 38 622 -110Q645 -158 645 -221T627 -333T572 -418Q496 -491 352 -491Q237 -491 166 -432Q94 -371 94 -262Q94 -165 146 -87Q164 -59 184 -41Q143 -31 118 2Q86 44 86 89T95
163T120 218Q145 257 176 283Q128 317 100 376Q78 423 78 489T100 610T161 701T248 757T354 777Q394 778 432 769Q437 836 486 912Q556 1019 646 1019Q693 1019 693 970Q693 940 649 919Q580 904 536 846Q501 801 497 743Q524 728 546 706Q620 632 620 497Q620
389 550 317Q472 237 345 237Q280 237 230 255Q210 229 195 186Q175 129 175 104Q175 39 268 39ZM168 408T215 361T328 313T429 329T488 372Q534 424 534 514Q534 642 422 682Q389 694 346 694T268 676T212 628Q168 572 168 490ZM259 -48Q244 -57 231 -78Q184 -150
184 -239Q184 -410 379 -410Q556 -410 556 -228Q556 -148 514 -96Q476 -48 427 -48T320 -48Q289 -49 259 -48Z" />
<glyph unicode="h" glyph-name="h" horiz-adv-x="762" d="M225 593Q314 772 454 772Q580 772 624 624Q639 572 639 496V334Q639 154 647 66Q649 34 630 17T588 0T550 15T540 85Q548 170 548 271T546 413T543 516T518 628T450 679T369 655T304 594Q245 515 230
416Q234 177 243 66Q245 34 228 17T184 0Q133 0 133 62L147 1172Q147 1385 136 1704Q134 1736 153 1751T195 1767T232 1752T247 1697T243 1584T239 1415T234 1213T230 992T227 766Q226 677 225 593Z" />
<glyph unicode="i" glyph-name="i" horiz-adv-x="382" d="M280 1060Q287 1044 286 1022T275 983T254 957Q231 939 207 939T169 944T144 960Q118 984 118 1023T138 1079Q171 1108 204 1108Q258 1108 280 1060ZM243 580T238 479T233 297T238 130T239 31T226 10Q209
-7 189 -7T152 8T138 69Q149 196 149 326T146 536T141 658T144 711T158 730Q175 746 196 746T233 731T248 684Q243 580 238 479Z" />
<glyph unicode="j" glyph-name="j" horiz-adv-x="413" d="M287 1075T294 1060T301 1022T290 983T268 957Q245 939 213 939T157 960T132 1023T158 1086T209 1108T248 1103T275 1086ZM167 526T165 568T160 679T214 747T270 678Q261 372 261 148V-174Q261 -466 134
-524Q93 -542 48 -542T-30 -531T-88 -494Q-141 -443 -141 -338Q-141 -259 -85 -259Q-67 -259 -54 -276T-41 -322T-40 -376T-28 -420Q-9 -461 34 -461T101 -446T141 -396Q167 -336 171 -157V-121L173 186V321Q173 404 170 465Z" />
<glyph unicode="k" glyph-name="k" horiz-adv-x="737" d="M632 752T647 737T662 699T640 643T585 574T516 500Q485 468 460 440Q502 312 606 164Q635 124 651 97T667 51T649 14T612 -4Q568 -4 552 36T510 129T459 233Q416 317 385 370Q358 344 326 315Q281 274
257 251Q251 245 245 240V238Q245 213 246 184T248 125T249 67T232 21T194 4T157 19T143 81T146 207T148 374Q150 639 150 763T149 1024T146 1286Q140 1569 126 1702Q123 1734 141 1749T183 1765T226 1750T245 1696T243 1599T242 1470Q244 1260 244 1160T244 950T242
729Q241 502 244 341Q346 436 466 590Q524 664 540 698Q567 752 612 752Q632 752 647 737Z" />
<glyph unicode="l" glyph-name="l" horiz-adv-x="398" d="M251 1186T250 1044T248 606T256 58Q257 25 241 8T201 -9T160 6T145 77T151 242T158 482Q163 766 163 957T163 1245T161 1422Q159 1574 151 1700Q149 1732 164 1749T202 1767T244 1750T262 1680T258 1529T253
1308Z" />
<glyph unicode="m" glyph-name="m" horiz-adv-x="1084" d="M232 386V315Q232 264 239 66Q239 20 200 4Q189 0 175 0T147 15T134 76T136 172T140 268Q143 375 143 436Q143 534 135 678Q133 709 149 728T187 747T228 729T245 689T242 653T240 620Q240 612 239 605Q297
712 379 743Q408 754 440 754T500 740T550 699Q580 663 593 606Q675 754 793 754Q912 754 951 606Q965 553 965 477V355Q965 180 974 66Q976 34 959 17T926 0T900 4T881 16Q861 34 864 62T869 127T872 204Q876 299 876 351T877 431T877 517T850 617T784 661T714
643T664 594Q620 530 610 432V362Q610 190 617 66Q618 34 599 17T560 0T522 15T508 61T513 130T516 210Q520 306 520 358V440Q520 469 518 494Q516 577 489 619T421 661T349 641T295 587Q251 524 233 428Q232 405 232 386Z" />
<glyph unicode="n" glyph-name="n" horiz-adv-x="754" d="M634 485L632 269Q632 162 639 69Q641 35 623 19T584 2T547 17T533 64T539 137T544 222Q548 310 548 367T546 451T542 528T515 625T445 671T367 652T306 602Q249 535 230 446Q229 418 229 391V339Q229
158 233 100T226 22T188 2T145 19T132 84Q142 213 142 349Q142 582 135 691Q131 758 191 758Q222 758 230 739T237 699T234 663T233 632T233 603Q292 715 390 750Q421 761 453 761T519 747T578 699Q634 627 634 485Z" />
<glyph unicode="o" glyph-name="o" horiz-adv-x="713" d="M442 673Q409 697 365 697T284 673T222 604Q171 516 171 363T220 136T351 63Q441 63 495 166Q543 258 543 392Q543 598 442 673ZM350 -22Q293 -23 244 1T158 78Q79 188 79 391Q79 573 164 678Q244 778
376 778Q487 778 560 682Q635 580 635 402Q635 204 548 86Q470 -20 350 -22Z" />
<glyph unicode="p" glyph-name="p" horiz-adv-x="751" d="M235 -21Q232 -89 232 -156T247 -463Q247 -501 206 -514Q195 -517 185 -517T165 -514T148 -502Q131 -485 134 -445Q144 -310 144 -45Q144 426 133 679Q131 712 147 732T187 752T224 736T237 692Q234 648
233 615Q268 679 326 722Q399 777 490 777T632 709T684 534T662 353T604 219T520 116T422 42Q323 -17 235 -21ZM233 438Q230 175 236 67Q275 62 326 85Q391 114 434 149T512 235Q592 352 592 514Q592 601 556 645T471 690T380 666T308 604Q244 526 233 438Z" />
<glyph unicode="q" glyph-name="q" horiz-adv-x="755" d="M520 429L516 651Q465 690 392 690Q318 690 252 602Q174 500 174 344Q174 220 221 142T342 64Q417 64 464 124Q527 205 522 330Q520 381 520 429ZM533 -45L532 60V115Q498 52 472 28Q415 -22 353 -22T243
1T160 72Q86 173 86 355Q86 546 184 666Q275 776 398 776Q476 776 526 735Q531 748 541 758Q559 774 578 774Q619 774 617 698T615 554V416L622 -464Q622 -490 604 -505T570 -520T545 -516T528 -504Q510 -487 514 -456T521 -377T528 -274Q533 -155 533 -45Z" />
<glyph unicode="r" glyph-name="r" horiz-adv-x="531" d="M543 721Q543 667 489 659Q423 646 340 546Q251 438 240 333Q236 287 236 249Q236 158 244 58Q246 25 228 8T188 -9T150 6T137 53T142 126T146 214Q148 292 148 388Q148 550 144 628T145 719T158 738Q175
754 195 754T232 739T248 701T244 655T238 599Q232 546 227 486Q268 589 344 676Q429 771 492 771Q519 771 531 756T543 721Z" />
<glyph unicode="s" glyph-name="s" horiz-adv-x="664" d="M158 253Q204 253 199 170Q195 121 237 86Q277 52 340 52T443 87T482 174T456 256T391 309T307 354T223 404Q132 471 132 569Q132 654 190 710Q252 771 351 771Q436 771 493 722Q554 670 554 587Q560 546
543 527T504 507T468 527T455 574T453 621T435 659Q406 697 341 697Q289 697 265 672Q224 629 224 582T250 505T315 450T399 403T483 353Q574 288 574 190Q574 96 512 38Q447 -23 331 -23Q231 -23 164 36Q95 95 101 184Q105 253 158 253Z" />
<glyph unicode="t" glyph-name="t" horiz-adv-x="538" d="M145 948Q145 983 162 1000T199 1017T235 1000T247 948Q238 855 236 732Q318 732 360 737Q402 742 420 742Q488 744 488 692Q488 662 453 650Q441 646 425 647T391 648T354 649Q323 649 295 649T244 648Q240
648 235 648Q235 646 235 645Q235 231 247 178T273 102Q298 62 337 62Q400 62 422 124Q431 174 473 174Q488 174 499 162T511 125T496 73T456 24Q401 -22 333 -22Q209 -22 162 115Q145 165 145 238V641Q124 640 99 638Q68 637 53 653T37 688T53 721T101 736L145
735V948Z" />
<glyph unicode="u" glyph-name="u" horiz-adv-x="756" d="M213 244Q213 66 346 66Q422 66 476 142Q524 210 533 304Q536 392 536 466Q536 572 534 680Q532 713 551 730T590 747T627 732T639 686Q621 493 621 314T626 113T638 78Q654 42 654 26T642 -5T607 -20Q532
-20 534 117Q500 55 471 31Q372 -51 254 -8Q122 42 122 253Q122 363 121 470T120 680Q121 713 138 729T176 746T214 731T227 680T220 586T216 467Q213 365 213 244Z" />
<glyph unicode="v" glyph-name="v" horiz-adv-x="647" d="M382 30Q371 -4 330 -4Q290 -4 281 24Q254 106 229 187T178 346Q119 530 63 650Q50 681 50 705T64 745T97 760T136 747T173 677T216 525T268 340Q311 184 333 115Q347 166 362 212Q382 276 404 346Q457
516 497 702Q510 758 555 758Q575 758 589 746T604 714Q604 686 584 634T536 504T481 346Q419 162 382 30Z" />
<glyph unicode="w" glyph-name="w" horiz-adv-x="977" d="M692 142Q699 167 706 194Q724 262 744 340Q776 471 829 704Q835 734 852 747T887 761T918 747T933 712T924 669T899 594T864 481T826 351T789 222Q761 122 748 71T720 10T688 0Q651 0 641 35Q619 118
577 297Q525 519 496 633Q489 605 482 572Q463 494 440 404Q382 168 344 42Q338 25 322 13T290 1Q253 1 244 35Q218 123 196 202T152 358Q107 512 54 652Q44 681 44 707T57 747T89 761Q137 761 151 708T180 595T209 473T238 349T268 232Q284 170 298 127L433 693Q451
760 502 760Q555 760 570 689Q645 305 692 142Z" />
<glyph unicode="x" glyph-name="x" horiz-adv-x="688" d="M413 359Q448 295 502 210Q564 113 582 79Q593 67 593 45T577 8T542 -6Q502 -6 485 31Q429 171 396 232Q368 281 355 306Q339 278 320 244Q296 203 272 162Q183 7 168 -2T137 -11T106 3T89 39T107 85T148
138T196 201Q248 276 296 374Q268 414 233 474Q188 551 152 607T111 678T107 711T123 742T160 756Q197 756 217 708T257 618T297 541T336 475Q349 454 361 434Q369 446 379 464Q397 493 418 534Q470 638 498 729Q511 764 538 764T576 755T592 732Q601 701 582 665T540
589T492 506Q441 418 413 359Z" />
<glyph unicode="y" glyph-name="y" horiz-adv-x="681" d="M360 59Q474 486 516 694Q527 756 577 756Q597 756 612 743T627 711Q627 680 612 639T572 513T519 329T463 126T405 -86Q291 -499 264 -527Q251 -541 228 -541T188 -528T171 -496Q171 -466 186 -440T218
-374T256 -279Q290 -185 323 -73Q299 4 274 93Q245 191 214 290Q140 531 110 596Q76 672 76 699T90 741T126 757Q169 757 186 701T221 581T256 452T291 322T323 201T350 96Q356 76 360 59Z" />
<glyph unicode="z" glyph-name="z" horiz-adv-x="620" d="M554 733T559 720T559 692T541 654T508 598T462 519T405 425T342 324T280 224Q224 132 194 82H277Q338 82 491 100Q520 105 540 92T560 63T557 35T544 16Q524 -5 493 -3T438 0H388Q329 0 272 -1T182 -4T134
0T109 13Q89 29 89 54Q89 81 104 107T147 176T208 270T277 378T348 490Q411 594 446 661H396Q317 661 262 657T179 650T133 664T115 700T134 739T190 754Q288 746 340 746Q448 746 473 750T515 752T542 741Z" />
<glyph unicode="{" glyph-name="braceleft" horiz-adv-x="699" d="M269 171Q269 436 253 492T214 561T155 575Q121 570 100 590T78 634T100 678T174 699Q244 714 265 892Q283 1046 283 1498Q283 1794 424 1857Q469 1877 513 1877T574 1862T591 1828T573 1794T521
1778T459 1766T412 1716Q372 1638 372 1429Q372 1357 373 1270T373 1095T363 924T334 777Q298 665 228 642Q269 635 294 608Q328 569 341 496T355 320V92Q355 -18 380 -63T438 -127T510 -147Q578 -147 578 -189Q578 -208 559 -223T500 -239T419 -225T344 -173Q265
-86 269 94V171Z" />
<glyph unicode="|" glyph-name="bar" horiz-adv-x="399" d="M164 -154Q174 190 174 540T174 1026T172 1294Q168 1583 159 1801Q157 1839 173 1857T213 1875T254 1856T270 1780T265 1651T262 1511T259 1372T256 1225Q255 994 255 877T255 650T256 440T258 246T260
78Q264 -99 266 -143T252 -203T216 -219T180 -203T164 -154Z" />
<glyph unicode="}" glyph-name="braceright" horiz-adv-x="694" d="M400 94Q402 -88 324 -173Q265 -239 171 -239Q129 -239 110 -224T91 -191T105 -160T159 -147T230 -128T282 -76Q314 -18 314 99V318Q314 533 376 604Q398 630 436 639Q327 667 303 916Q289 1066
293 1211T297 1449T287 1609T256 1716Q224 1778 150 1778Q114 1778 96 1793T78 1828T94 1862T155 1877T245 1857T322 1792Q386 1700 386 1492T389 1135T403 892T436 752T495 699Q546 699 568 679T591 634T570 590T514 575Q478 575 456 562T420 506Q400 436 400
171V94Z" />
<glyph unicode="~" glyph-name="asciitilde" horiz-adv-x="992" d="M629 395T659 393T709 397T746 417Q775 440 787 477Q810 542 854 542Q871 542 884 525T897 486T885 440T852 388T802 341Q736 294 651 301Q562 308 482 402Q403 493 319 502Q240 508 201 446Q190
428 184 403T158 362T121 346T90 359T76 388Q76 430 88 454T123 504T177 550Q248 597 333 590Q422 581 508 490Q564 432 596 414Z" />
<glyph unicode="&#xa1;" glyph-name="exclamdown" horiz-adv-x="496" d="M325 1544T333 1528T341 1489T332 1450T309 1423Q282 1405 245 1405Q192 1405 169 1453Q162 1469 162 1490Q162 1550 220 1570Q236 1575 251 1575T283 1570T312 1555Z" />
<glyph unicode="&#xa2;" glyph-name="cent" horiz-adv-x="702" d="M538 958Q522 973 522 1010T516 1081T495 1138Q471 1176 419 1185Q415 1087 415 991Q414 770 414 540Q414 453 415 374Q488 382 512 448Q521 471 529 498Q544 547 578 547Q595 546 606 533T618
489T601 420T551 354Q495 303 417 293Q419 206 423 129Q425 96 409 80T374 63T340 78T326 124Q329 214 332 294Q243 312 186 408Q110 533 110 766T198 1138Q258 1231 336 1254Q331 1357 325 1443Q323 1475 340 1490T379 1505T417 1490T432 1443Q426 1351 422 1260Q497
1252 550 1200Q618 1131 618 1012Q618 979 604 964Q572 928 538 958ZM335 386Q344 649 344 785Q344 1002 339 1175Q287 1148 249 1057Q200 939 200 804T215 592T258 466Q290 408 335 386Z" />
<glyph unicode="&#xa3;" glyph-name="sterling" horiz-adv-x="998" d="M376 705L555 719Q589 721 605 707T622 679T618 655T606 635Q588 613 556 615Q489 619 451 619T390 618Q378 618 367 618Q369 555 369 480Q369 385 367 321T351 205Q336 145 306 111Q367 130
428 130Q471 130 521 118Q582 99 638 99T731 119T776 168Q787 221 832 221Q849 221 862 206T875 161T864 106T828 57Q769 3 661 3Q623 3 566 14Q452 36 398 36Q303 36 189 4Q138 -10 118 35Q112 47 112 64T129 100T184 118Q238 118 257 204T277 395T276 539Q274
575 272 614Q258 614 246 614Q203 612 187 626T171 659T187 694T244 708Q255 707 267 707Q255 913 255 1014Q255 1136 268 1239T306 1417T362 1540T431 1618Q498 1669 589 1669Q746 1669 800 1528Q818 1481 818 1446V1402Q818 1357 798 1340T756 1322T720 1339T708
1382Q717 1433 717 1458T706 1507T678 1544Q645 1570 598 1570T507 1546T428 1460Q351 1321 351 1027Q351 972 355 882T362 742Q363 723 364 705Q370 705 376 705Z" />
<glyph unicode="&#xa4;" glyph-name="currency" horiz-adv-x="988" d="M482 499Q525 499 561 523T622 590Q672 676 672 821T624 1041T495 1115Q408 1115 355 1016Q307 926 307 797Q307 671 353 586Q401 499 482 499ZM320 472Q296 438 274 388Q248 333 235 311T199
285T162 295T148 333T164 380T202 432T249 488Q264 506 275 525Q213 623 213 787Q213 972 286 1084Q269 1114 234 1154Q189 1206 173 1231T156 1273T160 1300T172 1317Q190 1333 212 1330T246 1303T271 1256T298 1206Q319 1166 334 1143Q397 1206 495 1208T658
1143Q676 1171 700 1217Q731 1279 746 1302T778 1327T804 1327T818 1317Q831 1302 831 1281T815 1236T777 1184Q727 1121 705 1083Q766 976 766 799Q766 633 693 526Q711 498 744 456Q789 398 805 374T821 335T816 311T804 296Q787 283 766 286T732 310T707 352T684
400Q662 444 645 471Q575 412 471 412Q381 412 320 472Z" />
<glyph unicode="&#xa5;" glyph-name="yen" horiz-adv-x="1074" d="M605 440Q751 441 858 448Q891 450 907 434T923 399T908 367T850 356Q738 364 608 364H607L621 52Q621 3 578 -13Q567 -17 552 -17T519 0T506 75Q515 179 515 311Q515 339 515 363Q372 362 259
355Q226 353 210 367T194 401T210 435T259 449Q352 441 515 440Q514 471 514 488Q513 531 512 579Q505 579 498 578Q449 578 404 576Q293 573 260 571T210 583T194 616T210 650T259 664Q362 657 509 656Q509 664 508 672Q452 807 371 984Q109 1562 109 1593Q109
1653 161 1655Q186 1656 199 1640T237 1544T310 1344T406 1117T498 918Q533 845 560 788Q668 1066 773 1316Q883 1579 888 1594T901 1622Q916 1648 939 1648Q987 1648 987 1601Q987 1581 956 1511T867 1312T756 1060Q662 841 609 698Q608 678 608 656Q734 657 858
662Q891 664 907 649T923 619T919 596T908 580Q891 566 870 568T823 573T762 576Q660 579 606 579Q605 516 605 440Z" />
<glyph unicode="&#xa6;" glyph-name="brokenbar" horiz-adv-x="400" d="M217 -217Q161 -217 166 -130Q175 5 175 151Q175 426 166 526T161 642T174 668Q191 689 215 689T257 669T271 607Q253 341 253 232T254 82T257 2Q262 -87 266 -136T254 -201T217 -217ZM217
949Q161 949 166 1036Q175 1171 175 1327Q175 1612 166 1712T161 1827T174 1854Q191 1875 215 1875T257 1854T271 1792Q253 1528 253 1394Q253 1169 268 1013Q270 981 254 965T217 949Z" />
<glyph unicode="&#xa7;" glyph-name="section" horiz-adv-x="882" d="M719 932T741 864T764 710T739 558T676 447Q641 404 604 379Q634 350 660 316Q746 203 750 49Q752 -114 662 -224T441 -337Q325 -339 236 -254Q136 -159 138 18Q139 115 212 117Q233 117 249
97T260 46T256 -11T257 -68T271 -136T309 -200Q361 -259 429 -259T538 -234T606 -168Q658 -90 658 11T634 171T573 277T487 362T389 437T291 515T204 606Q121 719 119 871Q119 1018 203 1124Q238 1168 276 1192Q292 1201 306 1207Q271 1238 242 1276Q163 1379 161
1529Q159 1690 254 1799Q345 1904 479 1906Q598 1908 680 1828Q777 1734 773 1561Q773 1456 697 1454Q651 1452 661 1530Q664 1556 664 1582T663 1640T649 1707T611 1768Q558 1826 494 1825T386 1800T312 1736Q249 1654 249 1559T271 1409T330 1310T412 1230T506
1157T601 1079T683 985ZM540 434Q571 455 600 488Q674 574 674 672T653 835T595 949T513 1038T419 1114Q393 1134 367 1155Q352 1150 336 1139Q303 1118 274 1082Q207 995 207 901T231 749T291 644T377 559T475 484Q508 460 540 434Z" />
<glyph unicode="&#xa8;" glyph-name="dieresis" horiz-adv-x="658" d="M527 1036T534 1022T540 986T530 950T508 926Q485 908 455 908T401 928T376 978T383 1021T403 1046Q427 1066 450 1066T488 1061T515 1046ZM271 1036T278 1022T284 986T274 950T254 926Q230
908 200 908T146 928T121 978T128 1021T148 1046Q170 1066 194 1066T232 1061T259 1046Z" />
<glyph unicode="&#xa9;" glyph-name="copyright" horiz-adv-x="1307" d="M657 1463Q911 1463 893 1073Q890 1003 841 1003Q797 1003 797 1068Q826 1191 792 1278Q754 1376 655 1376Q557 1376 498 1201Q446 1044 446 855T459 559T499 386Q549 259 648 259Q726 259
765 324T798 500Q798 547 832 559Q858 568 875 548T893 477T873 365T818 260Q746 167 645 167Q513 167 435 324Q352 492 352 805Q352 1124 443 1300Q527 1463 657 1463ZM788 1602Q724 1634 645 1634T502 1604T386 1518T296 1387T232 1218Q180 1031 180 841T198
533T249 327T326 177T422 78Q520 6 645 6Q828 6 946 188Q1083 399 1083 821Q1083 1158 986 1378Q914 1538 788 1602ZM636 -82Q509 -82 407 -25T234 146Q88 380 88 833Q88 1207 238 1462Q334 1626 476 1690Q547 1721 627 1721Q894 1721 1035 1478Q1167 1250 1171
844Q1173 422 1032 172Q889 -82 636 -82Z" />
<glyph unicode="&#xaa;" glyph-name="ordfeminine" horiz-adv-x="707" d="M521 1337L516 1412Q506 1417 496 1421V1527Q496 1657 413 1690Q388 1700 363 1700T315 1691T276 1664Q235 1623 235 1582T219 1525T185 1512T149 1530T134 1582T155 1654T207 1719Q277
1780 372 1780Q516 1780 562 1646Q580 1595 580 1533V1428L579 1259V1169Q579 1101 593 1067T607 1020T593 994T559 981Q499 981 499 1071L498 1105Q508 1119 514 1131Q514 1150 510 1189Q503 1256 503 1275Q501 1254 496 1234V1349Q510 1344 521 1337ZM496 1349V1421Q452
1438 400 1438Q335 1438 282 1422T187 1372Q93 1298 93 1177Q93 1090 151 1034Q207 980 293 980Q398 980 480 1082Q490 1094 498 1105L496 1193V1234Q486 1195 461 1159Q389 1055 312 1055Q257 1055 223 1092T189 1179T206 1261T251 1316Q308 1362 396 1362Q459
1362 496 1349Z" />
<glyph unicode="&#xab;" glyph-name="guillemotleft" horiz-adv-x="944" d="M779 32T762 18T718 4T673 46T632 131T585 210Q536 283 506 306Q460 340 460 381Q460 420 481 436T525 480T576 546Q642 637 664 686T701 747T735 759T768 743T784 710Q784 676 762 652T709
591T648 514Q575 416 575 386Q575 332 704 166Q735 126 757 102T779 55ZM470 32T453 18T409 4T364 46T323 131T276 210Q228 281 197 305Q150 341 150 380T171 435T216 480T267 546Q333 637 354 686T392 747T426 759T459 743T475 710Q475 676 453 652T400 591T338
514Q266 419 266 386Q266 334 394 166Q425 126 447 102T470 55Z" />
<glyph unicode="&#xac;" glyph-name="logicalnot" horiz-adv-x="916" d="M456 484L726 493Q795 491 795 431L784 336Q784 284 796 200Q800 166 783 150T744 134T705 150T690 193T696 248T700 298T700 334T698 364T696 394Q695 397 695 400H506Q353 400 183 388Q150
386 135 402T119 439T135 477T192 492Q281 484 456 484Z" />
<glyph unicode="&#xad;" glyph-name="uni00AD" horiz-adv-x="1325" />
<glyph unicode="&#xae;" glyph-name="registered" horiz-adv-x="1265" d="M785 1116Q785 1365 637 1365Q564 1365 518 1355L519 1149Q519 853 523 645Q681 743 754 935Q785 1016 785 1116ZM442 471Q442 1000 417 1375Q417 1421 468 1425Q479 1426 501 1432Q567
1450 628 1450T734 1431T810 1372Q877 1289 877 1129Q877 958 762 776Q730 724 693 681Q717 595 768 474Q833 316 847 280T861 231T854 206Q840 182 820 182Q777 182 765 222Q693 477 635 625L630 621Q566 571 519 551Q518 387 528 316Q538 237 538 219T527 185T494
169T457 184T440 222L442 471ZM788 1582Q724 1614 645 1614T502 1584T386 1498T297 1367T232 1198Q182 1014 182 823T200 513T251 307T327 157T422 58Q521 -14 645 -14Q828 -14 944 168Q1077 379 1077 801Q1077 1139 982 1358Q913 1518 788 1582ZM372 -102T234
131T95 824Q95 1193 244 1447Q338 1607 480 1670Q549 1701 627 1701Q890 1701 1032 1458Q1167 1228 1171 824Q1173 402 1032 152Q889 -102 631 -102Z" />
<glyph unicode="&#xaf;" glyph-name="overscore" horiz-adv-x="580" d="M99 1333T115 1351T172 1363T285 1357T403 1362T466 1350T483 1312T468 1275T421 1260T355 1264T285 1267Q233 1267 190 1263T135 1261T115 1273Q99 1287 99 1310Z" />
<glyph unicode="&#xb0;" glyph-name="degree" horiz-adv-x="573" d="M152 1457Q152 1235 279 1235Q345 1235 382 1294T420 1445T410 1583T381 1654Q351 1696 286 1696Q190 1696 161 1554Q152 1510 152 1457ZM168 1741T207 1759T292 1778T376 1764T444 1712Q505
1636 505 1466Q505 1326 442 1242T273 1158Q127 1158 82 1318Q67 1374 67 1456T86 1601T136 1702Z" />
<glyph unicode="&#xb1;" glyph-name="plusminus" horiz-adv-x="891" d="M172 116Q264 107 432 107T718 115Q750 117 766 99T783 61T768 24T706 12Q599 23 501 23Q342 23 172 11Q139 9 124 25T108 62T124 100T172 116ZM400 529Q322 527 172 517Q139 515 124 531T108
569T124 607T167 622T222 619T282 616Q359 614 400 613Q399 667 392 842Q390 874 407 890T445 906T482 891T496 849T491 789T488 721Q485 655 484 613Q602 613 718 621Q750 623 766 606T783 568T768 531T708 518Q588 528 484 529Q485 431 496 296Q498 263 482 248T444
232T406 248T390 289T394 347T398 418Q400 468 400 529Z" />
<glyph unicode="&#xb2;" glyph-name="twosuperior" horiz-adv-x="693" d="M356 1770Q576 1770 576 1495Q576 1334 398 1112Q284 969 252 911T220 819T228 776T260 771T309 779T360 788Q429 797 451 797Q506 797 530 793T568 773T581 740T568 707T526 692L353 696Q247
696 202 688Q116 674 116 745T143 881T212 1006T301 1125T391 1243Q487 1381 487 1489Q487 1686 363 1686Q297 1686 261 1627T225 1456Q225 1425 210 1412T176 1399Q129 1399 129 1470T147 1599T198 1694Q260 1770 356 1770Z" />
<glyph unicode="&#xb3;" glyph-name="threesuperior" horiz-adv-x="762" d="M342 1217Q410 1242 462 1335Q512 1424 512 1507T473 1643T367 1695T265 1647T229 1510Q229 1479 213 1466T179 1452T143 1470T126 1537T146 1634T200 1716Q267 1781 342 1781T461 1762T536
1708Q594 1637 594 1510Q594 1421 543 1319Q493 1220 410 1173Q474 1166 524 1124Q603 1060 603 944Q603 825 534 752Q466 680 360 680Q253 680 186 742Q123 802 129 892Q131 923 147 939T184 955T220 939T233 892T238 837T264 795Q303 755 353 755T433 771T482
814Q517 864 517 944Q517 1019 464 1062Q408 1107 321 1091Q294 1086 280 1099Q258 1121 258 1144T277 1188T342 1217Z" />
<glyph unicode="&#xb4;" glyph-name="acute" horiz-adv-x="441" d="M150 944Q242 1042 276 1087Q338 1171 380 1146Q422 1118 383 1067Q355 1032 324 1002Q252 932 229 906T191 868T160 855T133 864T120 892T150 944Z" />
<glyph unicode="&#xb5;" glyph-name="mu" horiz-adv-x="850" d="M171 75Q136 -94 123 -212Q108 -344 101 -396T75 -462T35 -471Q-15 -461 0 -403Q29 -289 55 -144T98 97T134 288Q176 520 201 683Q206 717 226 730T268 739Q320 729 305 670Q296 630 284 580T259
477Q229 346 225 291T222 196T236 127Q261 65 326 65Q451 65 499 262Q551 474 605 682Q621 747 669 740Q689 735 701 718T702 657T672 558T635 441Q551 162 575 92Q587 57 615 57T660 65T689 84Q705 100 717 125Q737 167 761 167Q809 167 809 124Q809 74 744 26Q678
-22 617 -22T533 4Q500 42 500 105Q461 27 394 -6Q359 -22 315 -22T242 -8T196 28Q180 49 171 75Z" />
<glyph unicode="&#xb6;" glyph-name="paragraph" horiz-adv-x="1285" d="M608 840Q612 1028 612 1236T603 1687Q406 1687 313 1495Q258 1382 258 1257Q258 929 498 855Q547 840 608 840ZM846 1693L714 1691Q708 1335 708 914V-41Q708 -284 569 -338Q528 -354 492
-354T423 -344T364 -314Q301 -268 301 -209Q301 -189 314 -177T343 -164Q379 -164 390 -184T408 -218T426 -244Q452 -271 501 -271Q599 -271 609 -25Q614 112 614 201V358L613 751Q391 755 272 910Q165 1049 165 1264Q165 1474 281 1618Q410 1780 622 1780L891
1773Q999 1773 1058 1777Q1151 1783 1151 1733Q1151 1717 1136 1703T1095 1690T1049 1692T1005 1693T961 1694H952Q947 1530 947 1166V183Q947 -80 952 -290Q953 -325 936 -341T895 -358T857 -343T843 -272T848 -115T855 114Q861 366 861 624T861 1032T858 1316Q855
1574 846 1693Z" />
<glyph unicode="&#xb7;" glyph-name="middot" horiz-adv-x="457" d="M302 695T310 679T318 640T309 601T286 574Q259 556 222 556Q169 556 146 604Q139 620 139 641Q139 701 197 721Q213 726 228 726T260 721T289 706Z" />
<glyph unicode="&#xb8;" glyph-name="cedilla" horiz-adv-x="494" d="M300 -386T313 -366T326 -315T311 -261T272 -237T235 -242T209 -255Q178 -273 154 -273T111 -261T92 -227T98 -186T116 -136T144 -66T181 31L250 36Q250 12 228 -50L195 -146Q187 -170 182
-190Q207 -175 234 -169Q269 -161 287 -162T325 -171T362 -198Q400 -239 399 -298T378 -398T329 -471Q262 -543 190 -543Q167 -543 154 -529T141 -499T154 -464T190 -442T237 -428T280 -402Z" />
<glyph unicode="&#xb9;" glyph-name="onesuperior" horiz-adv-x="524" d="M305 1766Q346 1766 344 1709T340 1578T337 1418T336 1239T335 1058Q335 849 338 792T336 723T323 702Q307 684 286 684T250 699T236 748T241 830T246 930Q251 1061 251 1132T252 1276T256
1419Q258 1553 259 1632Q252 1622 244 1612Q209 1562 187 1538T141 1513T103 1530T88 1572T115 1621T160 1661T192 1688T216 1711T244 1738Q273 1766 305 1766Z" />
<glyph unicode="&#xba;" glyph-name="ordmasculine" horiz-adv-x="757" d="M495 1652T464 1673T389 1695T309 1672T251 1606Q205 1520 205 1372Q205 1145 302 1098Q334 1082 378 1082T457 1108T514 1178Q557 1263 557 1363T547 1519T516 1613ZM530 1048T480 1023T374
997T269 1018T186 1090Q113 1193 113 1396Q113 1578 192 1680Q268 1776 400 1776Q576 1776 630 1572Q649 1502 649 1403T627 1226T568 1099Z" />
<glyph unicode="&#xbb;" glyph-name="guillemotright" horiz-adv-x="934" d="M574 54Q553 4 519 4Q499 4 482 18T465 49Q465 79 487 102T540 166T600 249Q668 351 668 377T647 442T596 520Q561 565 516 615T465 678T459 709T474 743T508 759Q546 759 569 710Q608
627 738 462Q751 445 754 442Q784 419 784 391Q784 340 757 321T706 274T658 210Q607 134 574 54ZM275 54Q254 4 220 4Q199 4 182 18T165 55T187 102T240 166T300 249Q369 350 369 377T348 442T297 519T235 593T187 646Q160 678 160 702T175 743T208 759Q247 759
270 710Q285 672 355 575Q440 457 455 442Q484 419 484 391Q484 339 458 320T407 274T359 210Q308 134 275 54Z" />
<glyph unicode="&#xbc;" glyph-name="onequarter" horiz-adv-x="1382" d="M1180 1022L1170 478V416H1203Q1222 416 1240 417T1275 404T1292 371T1277 338T1245 322T1217 322T1194 323T1170 324Q1170 325 1170 325L1169 228L1176 63Q1176 18 1138 4Q1128 1 1118
1Q1077 1 1077 63L1084 202Q1084 237 1086 275Q1088 300 1088 329Q1055 332 1007 332L821 317Q786 317 770 331T754 365T766 407T796 466T836 553T885 663T941 787Q1061 1051 1080 1069T1116 1087T1144 1080T1163 1065Q1180 1046 1180 1022ZM366 223Q344 178 307
183Q291 185 281 199T273 232T306 300T394 460T515 694T640 948T760 1201Q884 1472 943 1625Q967 1683 1014 1674Q1030 1672 1040 1658T1048 1626Q1045 1604 1018 1556T939 1404T829 1183T710 937T589 683Q449 389 366 223ZM338 1766Q379 1766 377 1709T373 1578T370
1418T369 1239T368 1058Q368 849 371 792T369 723T356 702Q340 684 319 684T283 699T269 748T274 830T279 930Q284 1061 284 1132T285 1276T288 1419Q291 1553 292 1631Q285 1622 278 1612Q242 1562 220 1538T174 1513T136 1530T121 1572T148 1621T193 1661T225
1688T249 1711T277 1738Q306 1766 338 1766ZM1082 412L1090 703Q1090 726 1091 764T1093 844T1095 914T1096 958Q1056 852 998 723T918 544Q875 445 860 406Q875 405 891 405Q916 405 934 405T971 406T1012 408Q1057 412 1082 412Z" />
<glyph unicode="&#xbd;" glyph-name="onehalf" horiz-adv-x="1551" d="M1115 1080Q1335 1080 1335 795Q1335 653 1156 428Q1046 289 1012 227T978 130T986 87T1018 81T1067 89T1118 98Q1188 107 1210 107Q1305 107 1322 88T1340 50T1327 17T1285 2L1112 5Q1006
5 961 -2Q874 -16 874 55T901 192T970 318T1059 438T1149 555Q1245 691 1245 788Q1245 996 1121 996Q1055 996 1019 937T983 766Q983 710 936 710T888 781T906 909T956 1004Q1020 1080 1115 1080ZM405 223Q383 178 346 183Q330 185 320 199T312 232T345 300T433
460T554 694T679 948T798 1201Q923 1472 982 1625Q1006 1683 1053 1674Q1069 1672 1079 1658T1088 1626Q1084 1604 1057 1556T978 1404T868 1183T749 937T628 683Q488 389 405 223ZM393 1766Q434 1766 432 1709T428 1578T425 1418T424 1239T423 1058Q423 849 426
792T424 723T411 702Q395 684 374 684T338 699T324 748T329 830T334 930Q339 1061 339 1132T340 1276T344 1419Q346 1553 347 1632Q340 1622 332 1612Q297 1562 275 1538T229 1513T191 1530T176 1572T203 1621T248 1661T280 1688T304 1711T332 1738Q361 1766 393
1766Z" />
<glyph unicode="&#xbe;" glyph-name="threequarters" horiz-adv-x="1519" d="M342 1217Q408 1242 460 1335Q507 1422 507 1507T471 1643T367 1695T265 1647T229 1510Q229 1479 213 1466T179 1452T143 1470T126 1537T146 1634T200 1716Q267 1781 342 1781T461 1762T536
1708Q594 1637 594 1510Q594 1421 543 1319Q493 1220 410 1173Q474 1166 524 1124Q603 1060 603 944Q603 825 532 750T356 675Q248 675 184 740Q123 803 129 892Q131 923 147 939T184 955T220 939T233 892T238 837T264 795Q303 755 353 755T433 771T482 814Q517
864 517 944Q517 1019 464 1062Q408 1107 321 1091Q294 1086 280 1099Q258 1121 258 1144T277 1188T342 1217ZM558 223Q535 178 499 183Q482 185 472 200Q453 228 476 264Q668 591 951 1201Q1073 1465 1135 1625Q1159 1683 1205 1674Q1222 1672 1232 1658T1240
1626Q1237 1604 1210 1556T1131 1404T1020 1183T902 937T781 683Q641 389 558 223ZM1329 1022L1318 478V416H1352Q1371 416 1389 417T1424 404T1441 371T1426 338T1394 322T1366 322T1342 323T1318 324Q1317 271 1317 228L1325 63Q1325 29 1306 15T1266 1Q1226
1 1226 63L1233 202Q1233 237 1236 275Q1237 300 1237 329Q1203 332 1155 332L969 317Q934 317 919 331T903 366T915 408T944 466T984 553T1034 663T1090 787Q1147 913 1210 1043Q1244 1106 1292 1080Q1329 1060 1329 1022ZM1009 406Q1025 405 1046 405H1091Q1110
405 1146 408Q1204 412 1231 412L1239 703Q1239 726 1240 764T1242 844T1244 914T1245 958Q1205 852 1147 723T1068 544Q1024 445 1009 406Z" />
<glyph unicode="&#xbf;" glyph-name="questiondown" horiz-adv-x="879" d="M575 1543T583 1527T591 1488T582 1449T559 1422Q532 1404 495 1404Q442 1404 419 1452Q412 1468 412 1489Q412 1549 470 1569Q486 1574 501 1574T533 1569T562 1554Z" />
<glyph unicode="&#xc0;" glyph-name="Agrave" horiz-adv-x="933" d="M460 1621Q484 1621 504 1601T535 1518T570 1336T623 1084T684 808T748 531Q825 217 868 72Q878 35 863 13T828 -9T794 2T766 67T727 242T669 502Q668 508 667 513Q599 516 475 516Q329 516
252 512Q251 506 250 500Q189 206 160 45Q150 -6 107 -6Q62 -6 52 38Q49 51 58 79T84 175T122 332T166 526T213 742T261 965T307 1183T348 1380T380 1526Q399 1621 460 1621ZM271 605Q347 601 476 601Q583 601 647 604Q626 695 605 791Q572 940 542 1080Q492 1309
456 1482Q433 1367 390 1169Q334 905 305 767Q288 684 271 605ZM274 1920T295 1912T360 1874T443 1824T508 1792T547 1768T565 1738Q572 1701 532 1693Q508 1689 466 1710T380 1749T299 1784Q212 1823 209 1847T217 1891T251 1915Z" />
<glyph unicode="&#xc1;" glyph-name="Aacute" horiz-adv-x="933" d="M460 1621Q484 1621 504 1601T535 1518T570 1336T623 1084T684 808T748 531Q825 217 868 72Q878 35 863 13T828 -9T794 2T766 67T727 242T669 502Q668 508 667 513Q599 516 475 516Q329 516
252 512Q251 506 250 500Q189 206 160 45Q150 -6 107 -6Q62 -6 52 38Q49 51 58 79T84 175T122 332T166 526T213 742T261 965T307 1183T348 1380T380 1526Q399 1621 460 1621ZM271 605Q347 601 476 601Q583 601 647 604Q626 695 605 791Q572 940 542 1080Q492 1309
456 1482Q433 1367 390 1169Q334 905 305 767Q288 684 271 605ZM465 1805T500 1826T579 1884T653 1916T695 1890Q720 1850 669 1814Q647 1797 577 1763T479 1712T437 1688T403 1685Q366 1691 371 1727Q374 1744 392 1758T437 1788Z" />
<glyph unicode="&#xc2;" glyph-name="Acircumflex" horiz-adv-x="933" d="M460 1621Q484 1621 504 1601T535 1518T570 1336T623 1084T684 808T748 531Q825 217 868 72Q878 35 863 13T828 -9T794 2T766 67T727 242T669 502Q668 508 667 513Q599 516 475 516Q329
516 252 512Q251 506 250 500Q189 206 160 45Q150 -6 107 -6Q62 -6 52 38Q49 51 58 79T84 175T122 332T166 526T213 742T261 965T307 1183T348 1380T380 1526Q399 1621 460 1621ZM271 605Q347 601 476 601Q583 601 647 604Q626 695 605 791Q572 940 542 1080Q492
1309 456 1482Q433 1367 390 1169Q334 905 305 767Q288 684 271 605ZM525 1873Q569 1815 664 1770Q708 1749 708 1711Q708 1692 694 1680T660 1667Q629 1667 609 1687T572 1725T532 1764Q495 1798 468 1822Q440 1798 414 1777Q341 1719 321 1700Q288 1667 265 1667T228
1679T215 1709Q215 1746 240 1760T287 1787T329 1814Q377 1846 395 1868Q434 1917 457 1917T496 1904T525 1873Z" />
<glyph unicode="&#xc3;" glyph-name="Atilde" horiz-adv-x="933" d="M460 1621Q484 1621 504 1601T535 1518T570 1336T623 1084T684 808T748 531Q825 217 868 72Q878 35 863 13T828 -9T794 2T766 67T727 242T669 502Q668 508 667 513Q599 516 475 516Q329 516
252 512Q251 506 250 500Q189 206 160 45Q150 -6 107 -6Q62 -6 52 38Q49 51 58 79T84 175T122 332T166 526T213 742T261 965T307 1183T348 1380T380 1526Q399 1621 460 1621ZM271 605Q347 601 476 601Q583 601 647 604Q626 695 605 791Q572 940 542 1080Q492 1309
456 1482Q433 1367 390 1169Q334 905 305 767Q288 684 271 605ZM631 1856Q651 1918 687 1918Q704 1918 718 1905T732 1867T719 1816T685 1772Q640 1733 594 1733T525 1747T480 1778T436 1809T386 1826Q330 1829 318 1792Q294 1724 258 1724Q241 1724 227 1737T213
1776T227 1828T264 1872Q312 1911 361 1911T435 1897T482 1866Q590 1779 631 1856Z" />
<glyph unicode="&#xc4;" glyph-name="Adieresis" horiz-adv-x="933" d="M460 1621Q484 1621 504 1601T535 1518T570 1336T623 1084T684 808T748 531Q825 217 868 72Q878 35 863 13T828 -9T794 2T766 67T727 242T669 502Q668 508 667 513Q599 516 475 516Q329 516
252 512Q251 506 250 500Q189 206 160 45Q150 -6 107 -6Q62 -6 52 38Q49 51 58 79T84 175T122 332T166 526T213 742T261 965T307 1183T348 1380T380 1526Q399 1621 460 1621ZM271 605Q347 601 476 601Q583 601 647 604Q626 695 605 791Q572 940 542 1080Q492 1309
456 1482Q433 1367 390 1169Q334 905 305 767Q288 684 271 605ZM678 1887T685 1872T692 1835T681 1798T659 1772Q636 1754 611 1754T571 1759T546 1774Q520 1798 520 1827T527 1871T548 1897Q574 1918 598 1918T637 1913T665 1897ZM389 1887T396 1872T402 1835T392
1798T370 1772Q345 1754 321 1754T282 1759T256 1774Q231 1798 231 1827T238 1871T258 1897Q285 1918 317 1918T369 1903Z" />
<glyph unicode="&#xc5;" glyph-name="Aring" horiz-adv-x="933" d="M460 1621Q484 1621 504 1601T535 1518T570 1336T623 1084T684 808T748 531Q825 217 868 72Q878 35 863 13T828 -9T794 2T766 67T727 242T669 502Q668 508 667 513Q599 516 475 516Q329 516 252
512Q251 506 250 500Q189 206 160 45Q150 -6 107 -6Q62 -6 52 38Q49 51 58 79T84 175T122 332T166 526T213 742T261 965T307 1183T348 1380T380 1526Q399 1621 460 1621ZM271 605Q347 601 476 601Q583 601 647 604Q626 695 605 791Q572 940 542 1080Q492 1309 456
1482Q433 1367 390 1169Q334 905 305 767Q288 684 271 605ZM362 1730Q362 1626 457 1626Q501 1626 529 1658T557 1739T529 1812T468 1837T417 1827T387 1802Q362 1769 362 1730ZM362 1889T395 1903T465 1918T535 1906T591 1866Q640 1813 640 1725Q640 1657 587
1606Q530 1550 452 1550Q380 1550 332 1594Q283 1640 283 1702T298 1801T337 1863Z" />
<glyph unicode="&#xc6;" glyph-name="AE" horiz-adv-x="1265" d="M667 593L681 1261Q681 1378 675 1522Q649 1480 586 1320Q515 1138 482 1054T418 887T362 738T320 626Q313 606 308 593H667ZM762 86Q1014 86 1096 94Q1183 103 1197 99T1220 86Q1241 68 1241 47T1223
10T1170 -4Q1002 9 878 1T731 -11T688 -1T670 53T673 150T672 271Q671 433 672 510Q502 518 450 518Q396 518 375 518T333 516Q302 515 281 512Q239 394 203 302Q164 201 148 160Q110 56 103 35Q90 -7 48 -7Q22 -7 10 10Q-12 40 5 74T51 176T117 335T196 534T282
757T371 987T455 1209Q532 1414 589 1559Q613 1623 674 1623L856 1617Q988 1617 1034 1623T1100 1612T1120 1572T1102 1535T1053 1520T986 1524T911 1528Q828 1531 765 1527V1365Q765 1261 764 1151Q763 860 763 739Q884 739 944 746Q1008 752 1024 739T1040 704Q1040
649 936 652Q916 652 899 652L820 653H763L762 302V86Z" />
<glyph unicode="&#xc7;" glyph-name="Ccedilla" horiz-adv-x="915" d="M715 413Q715 446 731 464T769 483T807 468T822 420Q812 218 713 95Q618 -23 475 -23Q205 -23 126 381Q96 530 96 732T121 1093T197 1369Q306 1619 507 1619Q663 1619 738 1496Q817 1365 817
1068Q817 1035 802 1019T766 1002Q720 1002 720 1060Q720 1430 602 1501Q560 1526 504 1526T404 1495T325 1408T265 1277T224 1114Q192 938 192 767T203 492T234 315T281 195T342 121Q398 74 485 74Q582 74 644 153Q717 244 715 413ZM512 -386T525 -366T538 -315T523
-261T484 -237T447 -242T421 -255Q390 -273 366 -273T323 -261T304 -227T310 -186T328 -136T356 -66T393 31L462 36Q462 12 440 -50L407 -146Q399 -170 394 -190Q419 -175 446 -169Q481 -161 499 -162T537 -171T574 -198Q612 -239 611 -298T590 -398T541 -471Q474
-543 402 -543Q379 -543 366 -529T353 -499T366 -464T402 -442T449 -428T492 -402Z" />
<glyph unicode="&#xc8;" glyph-name="Egrave" horiz-adv-x="760" d="M258 549L260 194Q260 146 260 112Q261 97 261 86Q513 86 596 94Q682 103 696 99T720 86Q740 68 740 47T721 10T668 -4Q504 9 372 1T224 -10T196 -11T173 0Q150 17 152 50Q167 339 167 689T167
1130T168 1296Q166 1457 161 1523T163 1603T182 1622Q197 1629 220 1625Q262 1618 331 1618Q464 1618 512 1623T575 1625T598 1612Q618 1596 618 1573T600 1535T551 1521T485 1525T410 1530Q326 1533 264 1528Q264 1441 263 1355Q262 1253 261 1148Q258 866 258
732Q383 732 442 738Q506 745 522 732T539 697Q539 642 436 644Q415 645 398 645L317 646H258V549ZM225 1920T246 1912T311 1874T394 1824T459 1792T498 1768T516 1738Q523 1701 483 1693Q459 1689 417 1710T331 1749T250 1784Q163 1823 160 1847T168 1891T202
1915Z" />
<glyph unicode="&#xc9;" glyph-name="Eacute" horiz-adv-x="760" d="M258 549L260 194Q260 146 260 112Q261 97 261 86Q513 86 596 94Q682 103 696 99T720 86Q740 68 740 47T721 10T668 -4Q504 9 372 1T224 -10T196 -11T173 0Q150 17 152 50Q167 339 167 689T167
1130T168 1296Q166 1457 161 1523T163 1603T182 1622Q197 1629 220 1625Q262 1618 331 1618Q464 1618 512 1623T575 1625T598 1612Q618 1596 618 1573T600 1535T551 1521T485 1525T410 1530Q326 1533 264 1528Q264 1441 263 1355Q262 1253 261 1148Q258 866 258
732Q383 732 442 738Q506 745 522 732T539 697Q539 642 436 644Q415 645 398 645L317 646H258V549ZM416 1805T451 1826T530 1884T604 1916T646 1890Q671 1850 620 1814Q598 1797 528 1763T430 1712T388 1688T354 1685Q317 1691 322 1727Q325 1744 343 1758T388
1788Z" />
<glyph unicode="&#xca;" glyph-name="Ecircumflex" horiz-adv-x="760" d="M258 549L260 194Q260 146 260 112Q261 97 261 86Q513 86 596 94Q682 103 696 99T720 86Q740 68 740 47T721 10T668 -4Q504 9 372 1T224 -10T196 -11T173 0Q150 17 152 50Q167 339 167
689T167 1130T168 1296Q166 1457 161 1523T163 1603T182 1622Q197 1629 220 1625Q262 1618 331 1618Q464 1618 512 1623T575 1625T598 1612Q618 1596 618 1573T600 1535T551 1521T485 1525T410 1530Q326 1533 264 1528Q264 1441 263 1355Q262 1253 261 1148Q258
866 258 732Q383 732 442 738Q506 745 522 732T539 697Q539 642 436 644Q415 645 398 645L317 646H258V549ZM476 1873Q520 1815 615 1770Q659 1749 659 1711Q659 1692 645 1680T611 1667Q580 1667 560 1687T523 1725T483 1764Q446 1798 419 1822Q391 1798 365 1777Q292
1719 272 1700Q239 1667 216 1667T179 1679T166 1709Q166 1746 191 1760T238 1787T280 1814Q328 1846 346 1868Q385 1917 408 1917T447 1904T476 1873Z" />
<glyph unicode="&#xcb;" glyph-name="Edieresis" horiz-adv-x="760" d="M258 549L260 194Q260 146 260 112Q261 97 261 86Q513 86 596 94Q682 103 696 99T720 86Q740 68 740 47T721 10T668 -4Q504 9 372 1T224 -10T196 -11T173 0Q150 17 152 50Q167 339 167 689T167
1130T168 1296Q166 1457 161 1523T163 1603T182 1622Q197 1629 220 1625Q262 1618 331 1618Q464 1618 512 1623T575 1625T598 1612Q618 1596 618 1573T600 1535T551 1521T485 1525T410 1530Q326 1533 264 1528Q264 1441 263 1355Q262 1253 261 1148Q258 866 258
732Q383 732 442 738Q506 745 522 732T539 697Q539 642 436 644Q415 645 398 645L317 646H258V549ZM629 1887T636 1872T643 1835T632 1798T610 1772Q587 1754 562 1754T522 1759T497 1774Q471 1798 471 1827T478 1871T499 1897Q525 1918 549 1918T588 1913T616
1897ZM340 1887T347 1872T353 1835T343 1798T321 1772Q296 1754 272 1754T233 1759T207 1774Q182 1798 182 1827T189 1871T209 1897Q236 1918 268 1918T320 1903Z" />
<glyph unicode="&#xcc;" glyph-name="Igrave" horiz-adv-x="492" d="M292 1367T292 1313T291 874T303 66Q304 34 285 17T244 0T206 15T191 82T195 226T199 422Q203 628 203 806T203 1084T200 1268Q197 1454 189 1565Q186 1597 200 1612T238 1628T281 1613T300
1560T297 1487T294 1409ZM59 1920T80 1912T145 1874T228 1824T293 1792T332 1768T350 1738Q357 1701 317 1693Q293 1689 251 1710T165 1749T84 1784Q-3 1823 -6 1847T2 1891T36 1915Z" />
<glyph unicode="&#xcd;" glyph-name="Iacute" horiz-adv-x="492" d="M292 1367T292 1313T291 874T303 66Q304 34 285 17T244 0T206 15T191 82T195 226T199 422Q203 628 203 806T203 1084T200 1268Q197 1454 189 1565Q186 1597 200 1612T238 1628T281 1613T300
1560T297 1487T294 1409ZM507 1805T542 1826T621 1884T695 1916T737 1890Q762 1850 711 1814Q689 1797 619 1763T521 1712T479 1688T445 1685Q408 1691 413 1727Q416 1744 434 1758T479 1788Z" />
<glyph unicode="&#xce;" glyph-name="Icircumflex" horiz-adv-x="492" d="M292 1367T292 1313T291 874T303 66Q304 34 285 17T244 0T206 15T191 82T195 226T199 422Q203 628 203 806T203 1084T200 1268Q197 1454 189 1565Q186 1597 200 1612T238 1628T281 1613T300
1560T297 1487T294 1409ZM567 1873Q611 1815 706 1770Q750 1749 750 1711Q750 1692 736 1680T702 1667Q671 1667 651 1687T614 1725T574 1764Q537 1798 510 1822Q482 1798 456 1777Q383 1719 363 1700Q330 1667 307 1667T270 1679T257 1709Q257 1746 282 1760T329
1787T371 1814Q419 1846 437 1868Q476 1917 499 1917T538 1904T567 1873Z" />
<glyph unicode="&#xcf;" glyph-name="Idieresis" horiz-adv-x="492" d="M292 1367T292 1313T291 874T303 66Q304 34 285 17T244 0T206 15T191 82T195 226T199 422Q203 628 203 806T203 1084T200 1268Q197 1454 189 1565Q186 1597 200 1612T238 1628T281 1613T300
1560T297 1487T294 1409ZM720 1887T727 1872T734 1835T723 1798T701 1772Q678 1754 653 1754T613 1759T588 1774Q562 1798 562 1827T569 1871T590 1897Q616 1918 640 1918T679 1913T707 1897ZM431 1887T438 1872T444 1835T434 1798T412 1772Q387 1754 363 1754T324
1759T298 1774Q273 1798 273 1827T280 1871T300 1897Q327 1918 359 1918T411 1903Z" />
<glyph unicode="&#xd0;" glyph-name="Eth" horiz-adv-x="1032" d="M862 1242Q894 1120 894 973T869 699T799 465T692 271T553 123Q396 -3 212 -3Q183 -3 175 15T166 60V146Q166 208 166 296T165 493T162 718Q162 780 161 842Q138 841 125 840Q88 836 76 839T56
850Q39 865 39 888T55 928T116 940Q134 938 160 937Q160 945 160 954Q158 1072 156 1180Q150 1404 142 1533Q137 1601 202 1609Q298 1623 360 1623Q762 1623 862 1242ZM266 91Q379 95 491 188Q699 361 769 704Q793 822 793 971T757 1231T662 1408Q553 1532 381
1532Q306 1532 259 1516Q251 1413 251 1227Q251 1047 252 935Q254 935 257 935Q354 935 404 940T470 928T487 890T472 853T426 838Q334 844 269 844Q260 844 252 844Q253 748 254 655Q256 542 257 439T261 253Q264 150 266 91Z" />
<glyph unicode="&#xd1;" glyph-name="Ntilde" horiz-adv-x="1072" d="M918 1567Q912 1069 912 863T912 560T914 376Q916 192 918 125T915 44T899 22Q858 -15 812 15Q794 27 786 51Q698 309 574 611T401 1039Q312 1266 246 1455L259 60Q259 29 243 14T207 -1T169
15T152 65Q162 340 162 692V1285Q162 1440 160 1552Q160 1589 182 1608T230 1628Q286 1628 304 1575T355 1433T429 1234T517 1002T611 758T702 522T782 315T843 156Q844 153 845 151Q837 347 832 578Q827 859 824 999T817 1282T808 1567Q808 1599 825 1614T864
1630T901 1615T918 1567ZM706 1856Q726 1918 762 1918Q779 1918 793 1905T807 1867T794 1816T760 1772Q715 1733 669 1733T600 1747T555 1778T511 1809T461 1826Q405 1829 393 1792Q369 1724 333 1724Q316 1724 302 1737T288 1776T302 1828T339 1872Q387 1911 436
1911T510 1897T557 1866Q665 1779 706 1856Z" />
<glyph unicode="&#xd2;" glyph-name="Ograve" horiz-adv-x="1027" d="M704 -23T495 -23T188 193T89 831Q89 1164 202 1390Q258 1500 338 1565T522 1631T705 1577T834 1419Q934 1217 936 831Q938 425 820 199Q704 -23 495 -23ZM676 1484T629 1513T525 1543T422
1514T339 1432T273 1310T224 1158Q185 992 185 827T197 549T232 356T284 220T350 132Q415 73 505 73Q771 73 828 562Q841 674 841 790T834 993T812 1160T772 1311T712 1432ZM327 1920T348 1912T413 1874T496 1824T561 1792T600 1768T618 1738Q625 1701 585 1693Q561
1689 519 1710T433 1749T352 1784Q265 1823 262 1847T270 1891T304 1915Z" />
<glyph unicode="&#xd3;" glyph-name="Oacute" horiz-adv-x="1027" d="M704 -23T495 -23T188 193T89 831Q89 1164 202 1390Q258 1500 338 1565T522 1631T705 1577T834 1419Q934 1217 936 831Q938 425 820 199Q704 -23 495 -23ZM676 1484T629 1513T525 1543T422
1514T339 1432T273 1310T224 1158Q185 992 185 827T197 549T232 356T284 220T350 132Q415 73 505 73Q771 73 828 562Q841 674 841 790T834 993T812 1160T772 1311T712 1432ZM518 1805T553 1826T632 1884T706 1916T748 1890Q773 1850 722 1814Q700 1797 630 1763T532
1712T490 1688T456 1685Q419 1691 424 1727Q427 1744 445 1758T490 1788Z" />
<glyph unicode="&#xd4;" glyph-name="Ocircumflex" horiz-adv-x="1027" d="M704 -23T495 -23T188 193T89 831Q89 1164 202 1390Q258 1500 338 1565T522 1631T705 1577T834 1419Q934 1217 936 831Q938 425 820 199Q704 -23 495 -23ZM676 1484T629 1513T525 1543T422
1514T339 1432T273 1310T224 1158Q185 992 185 827T197 549T232 356T284 220T350 132Q415 73 505 73Q771 73 828 562Q841 674 841 790T834 993T812 1160T772 1311T712 1432ZM578 1873Q622 1815 717 1770Q761 1749 761 1711Q761 1692 747 1680T713 1667Q682 1667
662 1687T625 1725T585 1764Q548 1798 521 1822Q493 1798 467 1777Q394 1719 374 1700Q341 1667 318 1667T281 1679T268 1709Q268 1746 293 1760T340 1787T382 1814Q430 1846 448 1868Q487 1917 510 1917T549 1904T578 1873Z" />
<glyph unicode="&#xd5;" glyph-name="Otilde" horiz-adv-x="1027" d="M704 -23T495 -23T188 193T89 831Q89 1164 202 1390Q258 1500 338 1565T522 1631T705 1577T834 1419Q934 1217 936 831Q938 425 820 199Q704 -23 495 -23ZM676 1484T629 1513T525 1543T422
1514T339 1432T273 1310T224 1158Q185 992 185 827T197 549T232 356T284 220T350 132Q415 73 505 73Q771 73 828 562Q841 674 841 790T834 993T812 1160T772 1311T712 1432ZM684 1856Q704 1918 740 1918Q757 1918 771 1905T785 1867T772 1816T738 1772Q693 1733
647 1733T578 1747T533 1778T489 1809T439 1826Q383 1829 371 1792Q347 1724 311 1724Q294 1724 280 1737T266 1776T280 1828T317 1872Q365 1911 414 1911T488 1897T535 1866Q643 1779 684 1856Z" />
<glyph unicode="&#xd6;" glyph-name="Odieresis" horiz-adv-x="1027" d="M704 -23T495 -23T188 193T89 831Q89 1164 202 1390Q258 1500 338 1565T522 1631T705 1577T834 1419Q934 1217 936 831Q938 425 820 199Q704 -23 495 -23ZM676 1484T629 1513T525 1543T422
1514T339 1432T273 1310T224 1158Q185 992 185 827T197 549T232 356T284 220T350 132Q415 73 505 73Q771 73 828 562Q841 674 841 790T834 993T812 1160T772 1311T712 1432ZM731 1887T738 1872T745 1835T734 1798T712 1772Q689 1754 664 1754T624 1759T599 1774Q573
1798 573 1827T580 1871T601 1897Q627 1918 651 1918T690 1913T718 1897ZM442 1887T449 1872T455 1835T445 1798T423 1772Q398 1754 374 1754T335 1759T309 1774Q284 1798 284 1827T291 1871T311 1897Q338 1918 370 1918T422 1903Z" />
<glyph unicode="&#xd7;" glyph-name="multiply" horiz-adv-x="749" d="M599 701T614 686T629 646T606 602T558 560T507 514Q458 471 433 447Q491 390 552 338Q619 280 624 268T629 240T614 208T577 192T535 214T491 263T444 317Q407 360 378 391Q327 337 286 290Q236
233 223 218Q202 192 178 192T138 207T121 244T146 289T197 334T250 380Q290 415 324 448Q254 517 195 564Q131 615 126 626T120 653T135 684T174 700T217 678T260 631T306 578Q347 533 379 500Q448 570 535 677Q555 701 577 701Z" />
<glyph unicode="&#xd8;" glyph-name="Oslash" horiz-adv-x="1027" d="M629 1514Q582 1543 525 1543T422 1514T339 1432T273 1310T224 1158Q185 992 185 827T197 549T232 356T284 220Q290 209 296 200Q312 254 330 312Q366 431 405 563T483 831T559 1098T630 1347Q650
1419 668 1483Q650 1501 629 1514ZM360 123Q422 73 505 73Q771 73 828 562Q841 674 841 790T834 993T812 1160T772 1311Q754 1362 730 1404Q720 1371 709 1336Q675 1222 638 1094T562 832T487 565T414 310Q386 211 360 123ZM766 1522Q805 1478 834 1419Q934 1217
936 831Q938 425 820 199Q704 -23 495 -23Q402 -23 331 20Q313 -41 302 -76Q285 -129 271 -140T242 -152T214 -139T201 -108T216 -48Q230 -9 258 81Q218 127 188 193Q89 409 89 831Q89 1164 202 1390Q258 1500 338 1565T522 1631Q621 1631 695 1583Q718 1665 733
1720Q750 1783 786 1783Q803 1783 817 1771T832 1737T817 1675T772 1541Q769 1531 766 1522Z" />
<glyph unicode="&#xd9;" glyph-name="Ugrave" horiz-adv-x="1044" d="M173 518L175 941Q175 1301 152 1551Q149 1583 168 1598T211 1614T256 1599T274 1531T270 1398T265 1227Q261 1047 261 901T261 702T263 598Q268 332 293 261T351 152Q417 76 521 76Q628 76
698 155Q770 237 782 384Q793 564 793 673T793 861T790 1040Q782 1328 774 1557Q773 1589 791 1604T832 1619T874 1604T892 1557Q888 1408 888 1263T886 975Q884 628 873 477T840 248T775 111Q681 -23 522 -23Q259 -23 194 268Q173 359 173 471V518ZM334 1920T355
1912T420 1874T503 1824T568 1792T607 1768T625 1738Q632 1701 592 1693Q568 1689 526 1710T440 1749T359 1784Q272 1823 269 1847T277 1891T311 1915Z" />
<glyph unicode="&#xda;" glyph-name="Uacute" horiz-adv-x="1044" d="M173 518L175 941Q175 1301 152 1551Q149 1583 168 1598T211 1614T256 1599T274 1531T270 1398T265 1227Q261 1047 261 901T261 702T263 598Q268 332 293 261T351 152Q417 76 521 76Q628 76
698 155Q770 237 782 384Q793 564 793 673T793 861T790 1040Q782 1328 774 1557Q773 1589 791 1604T832 1619T874 1604T892 1557Q888 1408 888 1263T886 975Q884 628 873 477T840 248T775 111Q681 -23 522 -23Q259 -23 194 268Q173 359 173 471V518ZM525 1805T560
1826T639 1884T713 1916T755 1890Q780 1850 729 1814Q707 1797 637 1763T539 1712T497 1688T463 1685Q426 1691 431 1727Q434 1744 452 1758T497 1788Z" />
<glyph unicode="&#xdb;" glyph-name="Ucircumflex" horiz-adv-x="1044" d="M173 518L175 941Q175 1301 152 1551Q149 1583 168 1598T211 1614T256 1599T274 1531T270 1398T265 1227Q261 1047 261 901T261 702T263 598Q268 332 293 261T351 152Q417 76 521 76Q628
76 698 155Q770 237 782 384Q793 564 793 673T793 861T790 1040Q782 1328 774 1557Q773 1589 791 1604T832 1619T874 1604T892 1557Q888 1408 888 1263T886 975Q884 628 873 477T840 248T775 111Q681 -23 522 -23Q259 -23 194 268Q173 359 173 471V518ZM585 1873Q629
1815 724 1770Q768 1749 768 1711Q768 1692 754 1680T720 1667Q689 1667 669 1687T632 1725T592 1764Q555 1798 528 1822Q500 1798 474 1777Q401 1719 381 1700Q348 1667 325 1667T288 1679T275 1709Q275 1746 300 1760T347 1787T389 1814Q437 1846 455 1868Q494
1917 517 1917T556 1904T585 1873Z" />
<glyph unicode="&#xdc;" glyph-name="Udieresis" horiz-adv-x="1044" d="M173 518L175 941Q175 1301 152 1551Q149 1583 168 1598T211 1614T256 1599T274 1531T270 1398T265 1227Q261 1047 261 901T261 702T263 598Q268 332 293 261T351 152Q417 76 521 76Q628
76 698 155Q770 237 782 384Q793 564 793 673T793 861T790 1040Q782 1328 774 1557Q773 1589 791 1604T832 1619T874 1604T892 1557Q888 1408 888 1263T886 975Q884 628 873 477T840 248T775 111Q681 -23 522 -23Q259 -23 194 268Q173 359 173 471V518ZM738 1887T745
1872T752 1835T741 1798T719 1772Q696 1754 671 1754T631 1759T606 1774Q580 1798 580 1827T587 1871T608 1897Q634 1918 658 1918T697 1913T725 1897ZM449 1887T456 1872T462 1835T452 1798T430 1772Q405 1754 381 1754T342 1759T316 1774Q291 1798 291 1827T298
1871T318 1897Q345 1918 377 1918T429 1903Z" />
<glyph unicode="&#xdd;" glyph-name="Yacute" horiz-adv-x="966" d="M543 354L550 63Q550 18 507 2Q496 -2 481 -2T449 14T435 66T442 137T449 208Q456 292 456 339T455 420T452 490Q451 519 449 555Q416 639 376 734Q325 858 270 992Q44 1536 44 1581Q44 1606
59 1621T97 1637T134 1622T172 1517T248 1291T349 1026Q416 859 500 671Q515 712 532 758Q561 833 591 915T653 1084T714 1254Q784 1457 803 1524T835 1617T874 1643Q922 1643 922 1596Q922 1560 851 1374T759 1130T719 1020T678 910T633 790T588 672Q564 612 548
571Q543 393 543 354ZM513 1805T548 1826T627 1884T701 1916T743 1890Q768 1850 717 1814Q695 1797 625 1763T527 1712T485 1688T451 1685Q414 1691 419 1727Q422 1744 440 1758T485 1788Z" />
<glyph unicode="&#xde;" glyph-name="Thorn" horiz-adv-x="924" d="M173 65L180 563Q180 677 177 845T173 1098T170 1265T166 1414Q161 1570 160 1590T163 1622T177 1642Q196 1657 219 1657Q273 1657 271 1594Q270 1561 270 1529T268 1456Q266 1384 265 1290Q378
1364 482 1364Q740 1364 816 1148Q842 1074 842 965T789 750T648 554Q494 393 266 281Q270 183 276 70Q277 36 259 20T221 3T187 18T173 65ZM268 1191Q263 1044 263 723L261 530Q261 461 263 378Q433 462 563 586Q750 765 750 964Q750 1193 590 1255Q447 1311 300
1216Q283 1205 268 1191Z" />
<glyph unicode="&#xdf;" glyph-name="germandbls" horiz-adv-x="922" d="M459 209L456 173Q456 124 497 83Q536 44 578 44T650 59T702 104Q749 170 749 262T733 404T689 496T628 572T558 638T488 703T426 776Q366 863 366 974T477 1201T588 1451Q588 1618 484
1662Q454 1675 415 1675T340 1648T282 1560Q237 1443 237 1179L241 492Q241 169 255 60L256 41Q256 8 248 -8T211 -25Q154 -25 154 44L156 183L150 1209Q150 1495 220 1629T437 1763Q531 1763 598 1696Q681 1613 681 1449Q681 1305 568 1180Q494 1099 475 1059T455
965T483 859T555 764T648 676T742 579Q842 456 842 301Q842 151 770 56Q697 -42 577 -42Q480 -42 416 24Q357 85 357 169Q357 216 373 239T409 262T444 248T459 209Z" />
<glyph unicode="&#xe0;" glyph-name="agrave" horiz-adv-x="690" d="M490 205Q489 260 490 340Q447 355 381 355Q292 355 235 312Q207 290 190 259T173 178T207 95T307 62T454 152Q477 177 490 205ZM554 -21Q494 -21 494 70Q494 76 493 104Q484 93 473 80Q383
-22 277 -22Q192 -22 136 32Q78 88 78 175Q78 296 172 370Q214 403 266 420T384 437Q438 437 490 419V525Q490 613 454 657T378 701T315 691T271 662Q229 621 223 560Q226 528 210 516T175 503Q121 503 123 575Q125 650 199 713Q275 778 369 778Q509 778 558 639Q575
589 575 529V426L574 258V169Q574 109 588 72T603 20T588 -8T554 -21ZM181 1146Q224 1171 277 1100Q320 1042 412 944Q442 909 442 892T430 865T402 855Q379 855 348 889T294 947T250 990Q201 1039 183 1062Q139 1119 181 1146Z" />
<glyph unicode="&#xe1;" glyph-name="aacute" horiz-adv-x="690" d="M490 205Q489 260 490 340Q447 355 381 355Q292 355 235 312Q207 290 190 259T173 178T207 95T307 62T454 152Q477 177 490 205ZM554 -21Q494 -21 494 70Q494 76 493 104Q484 93 473 80Q383
-22 277 -22Q192 -22 136 32Q78 88 78 175Q78 296 172 370Q214 403 266 420T384 437Q438 437 490 419V525Q490 613 454 657T378 701T315 691T271 662Q229 621 223 560Q226 528 210 516T175 503Q121 503 123 575Q125 650 199 713Q275 778 369 778Q509 778 558 639Q575
589 575 529V426L574 258V169Q574 109 588 72T603 20T588 -8T554 -21ZM337 944Q429 1042 463 1087Q525 1171 567 1146Q609 1118 570 1067Q542 1032 511 1002Q439 932 416 906T378 868T347 855T320 864T307 892T337 944Z" />
<glyph unicode="&#xe2;" glyph-name="acircumflex" horiz-adv-x="690" d="M490 205Q489 260 490 340Q447 355 381 355Q292 355 235 312Q207 290 190 259T173 178T207 95T307 62T454 152Q477 177 490 205ZM554 -21Q494 -21 494 70Q494 76 493 104Q484 93 473 80Q383
-22 277 -22Q192 -22 136 32Q78 88 78 175Q78 296 172 370Q214 403 266 420T384 437Q438 437 490 419V525Q490 613 454 657T378 701T315 691T271 662Q229 621 223 560Q226 528 210 516T175 503Q121 503 123 575Q125 650 199 713Q275 778 369 778Q509 778 558 639Q575
589 575 529V426L574 258V169Q574 109 588 72T603 20T588 -8T554 -21ZM741 1014T755 997T787 959T815 928T825 897T811 866T777 854Q738 854 717 897Q707 917 697 939T674 985Q650 1027 615 1059Q571 1014 530 936Q497 876 481 865T446 854T415 866T401 896Q401
924 437 960Q506 1027 550 1107Q575 1153 618 1153Q654 1153 673 1118T704 1064T728 1030Z" />
<glyph unicode="&#xe3;" glyph-name="atilde" horiz-adv-x="690" d="M490 205Q489 260 490 340Q447 355 381 355Q292 355 235 312Q207 290 190 259T173 178T207 95T307 62T454 152Q477 177 490 205ZM554 -21Q494 -21 494 70Q494 76 493 104Q484 93 473 80Q383
-22 277 -22Q192 -22 136 32Q78 88 78 175Q78 296 172 370Q214 403 266 420T384 437Q438 437 490 419V525Q490 613 454 657T378 701T315 691T271 662Q229 621 223 560Q226 528 210 516T175 503Q121 503 123 575Q125 650 199 713Q275 778 369 778Q509 778 558 639Q575
589 575 529V426L574 258V169Q574 109 588 72T603 20T588 -8T554 -21ZM382 942Q382 991 412 1020Q466 1072 511 1072T578 1061T618 1035T654 1008T693 994Q732 992 746 1024T769 1067T797 1079T825 1063T835 1024T824 978T795 936Q753 894 714 894T655 906T617
932Q544 991 493 964Q475 954 467 930Q450 885 416 885T382 942Z" />
<glyph unicode="&#xe4;" glyph-name="adieresis" horiz-adv-x="690" d="M490 205Q489 260 490 340Q447 355 381 355Q292 355 235 312Q207 290 190 259T173 178T207 95T307 62T454 152Q477 177 490 205ZM554 -21Q494 -21 494 70Q494 76 493 104Q484 93 473 80Q383
-22 277 -22Q192 -22 136 32Q78 88 78 175Q78 296 172 370Q214 403 266 420T384 437Q438 437 490 419V525Q490 613 454 657T378 701T315 691T271 662Q229 621 223 560Q226 528 210 516T175 503Q121 503 123 575Q125 650 199 713Q275 778 369 778Q509 778 558 639Q575
589 575 529V426L574 258V169Q574 109 588 72T603 20T588 -8T554 -21ZM551 1036T558 1022T564 986T554 950T532 926Q509 908 479 908T425 928T400 978T407 1021T427 1046Q451 1066 474 1066T512 1061T539 1046ZM295 1036T302 1022T308 986T298 950T278 926Q254
908 224 908T170 928T145 978T152 1021T172 1046Q194 1066 218 1066T256 1061T283 1046Z" />
<glyph unicode="&#xe5;" glyph-name="aring" horiz-adv-x="690" d="M490 205Q489 260 490 340Q447 355 381 355Q292 355 235 312Q207 290 190 259T173 178T207 95T307 62T454 152Q477 177 490 205ZM554 -21Q494 -21 494 70Q494 76 493 104Q484 93 473 80Q383 -22
277 -22Q192 -22 136 32Q78 88 78 175Q78 296 172 370Q214 403 266 420T384 437Q438 437 490 419V525Q490 613 454 657T378 701T315 691T271 662Q229 621 223 560Q226 528 210 516T175 503Q121 503 123 575Q125 650 199 713Q275 778 369 778Q509 778 558 639Q575
589 575 529V426L574 258V169Q574 109 588 72T603 20T588 -8T554 -21ZM528 1011T553 981T623 950T695 989T723 1083T695 1167T634 1196T583 1185T553 1155Q528 1118 528 1065ZM528 1245T561 1258T631 1273T701 1261T757 1220Q806 1165 806 1066Q806 991 753 932Q697
871 618 871Q545 871 498 920Q449 970 449 1040T464 1151T503 1218Z" />
<glyph unicode="&#xe6;" glyph-name="ae" horiz-adv-x="1071" d="M572 429L719 431Q753 431 834 435Q873 437 898 438Q913 601 835 664Q803 690 757 690T681 674T632 632T598 572T576 502Q568 467 565 429H572ZM480 362Q450 369 412 369Q360 369 318 359T241 328Q164
279 164 186Q164 128 195 91T278 53T364 74T422 126Q464 181 478 247L480 362ZM547 647Q568 690 608 724Q670 778 736 778T842 763T907 721T949 659T974 584Q987 522 987 453T971 369T921 354H831L562 359Q563 288 577 234Q592 177 618 140Q669 64 746 64Q834 64
872 149Q898 202 926 202Q944 202 953 190Q981 155 934 82Q868 -21 732 -21Q620 -21 546 98Q532 121 521 148Q488 73 428 28Q361 -22 296 -22T193 -9T126 30Q67 84 67 160T91 286T158 370Q243 439 373 439H406Q443 439 480 436V525Q480 675 398 694Q373 699 348
699T300 691T260 666Q219 628 218 583Q218 506 171 511Q151 513 137 529T123 579T142 650T192 716Q262 778 356 778Q517 778 547 647Z" />
<glyph unicode="&#xe7;" glyph-name="ccedilla" horiz-adv-x="688" d="M592 525Q592 461 542 461T491 525Q493 691 369 691Q291 691 240 593Q195 504 195 398T210 232T252 134Q300 61 375 61Q423 61 454 97T497 174Q514 236 549 236Q566 235 579 222T589 175T567
102T518 36Q454 -21 358 -21Q253 -21 182 76Q105 181 105 367Q105 562 184 673Q257 775 369 777Q464 779 526 714Q592 647 592 525ZM438 -386T451 -366T464 -315T449 -261T410 -237T373 -242T347 -255Q316 -273 292 -273T249 -261T230 -227T236 -186T254 -136T282
-66T319 31L388 36Q388 12 366 -50L333 -146Q325 -170 320 -190Q345 -175 372 -169Q407 -161 425 -162T463 -171T500 -198Q538 -239 537 -298T516 -398T467 -471Q400 -543 328 -543Q305 -543 292 -529T279 -499T292 -464T328 -442T375 -428T418 -402Z" />
<glyph unicode="&#xe8;" glyph-name="egrave" horiz-adv-x="691" d="M519 432Q521 606 446 670Q416 697 373 697T302 681T253 638T217 577T193 506Q184 468 180 431L317 425Q451 425 519 432ZM176 345Q178 207 226 134Q278 56 373 56Q460 56 500 142Q525 198 562
198Q579 198 590 187T601 149T582 89T530 32Q458 -24 357 -24Q248 -24 169 69Q86 167 86 302T109 521T172 662Q248 775 362 775Q508 775 567 660Q608 580 611 425Q612 381 597 366T536 351L176 345ZM228 1146Q271 1171 324 1100Q367 1042 459 944Q489 909 489 892T477
865T449 855Q426 855 395 889T341 947T297 990Q248 1039 230 1062Q186 1119 228 1146Z" />
<glyph unicode="&#xe9;" glyph-name="eacute" horiz-adv-x="691" d="M519 432Q521 606 446 670Q416 697 373 697T302 681T253 638T217 577T193 506Q184 468 180 431L317 425Q451 425 519 432ZM176 345Q178 207 226 134Q278 56 373 56Q460 56 500 142Q525 198 562
198Q579 198 590 187T601 149T582 89T530 32Q458 -24 357 -24Q248 -24 169 69Q86 167 86 302T109 521T172 662Q248 775 362 775Q508 775 567 660Q608 580 611 425Q612 381 597 366T536 351L176 345ZM315 944Q407 1042 441 1087Q503 1171 545 1146Q587 1118 548
1067Q520 1032 489 1002Q417 932 394 906T356 868T325 855T298 864T285 892T315 944Z" />
<glyph unicode="&#xea;" glyph-name="ecircumflex" horiz-adv-x="691" d="M519 432Q521 606 446 670Q416 697 373 697T302 681T253 638T217 577T193 506Q184 468 180 431L317 425Q451 425 519 432ZM176 345Q178 207 226 134Q278 56 373 56Q460 56 500 142Q525
198 562 198Q579 198 590 187T601 149T582 89T530 32Q458 -24 357 -24Q248 -24 169 69Q86 167 86 302T109 521T172 662Q248 775 362 775Q508 775 567 660Q608 580 611 425Q612 381 597 366T536 351L176 345ZM500 1014T514 997T546 959T574 928T584 897T570 866T536
854Q497 854 476 897Q466 917 456 939T433 985Q409 1027 374 1059Q330 1014 289 936Q256 876 240 865T205 854T174 866T160 896Q160 924 196 960Q265 1027 309 1107Q334 1153 377 1153Q413 1153 432 1118T463 1064T487 1030Z" />
<glyph unicode="&#xeb;" glyph-name="edieresis" horiz-adv-x="691" d="M519 432Q521 606 446 670Q416 697 373 697T302 681T253 638T217 577T193 506Q184 468 180 431L317 425Q451 425 519 432ZM176 345Q178 207 226 134Q278 56 373 56Q460 56 500 142Q525 198
562 198Q579 198 590 187T601 149T582 89T530 32Q458 -24 357 -24Q248 -24 169 69Q86 167 86 302T109 521T172 662Q248 775 362 775Q508 775 567 660Q608 580 611 425Q612 381 597 366T536 351L176 345ZM568 1036T575 1022T581 986T571 950T549 926Q526 908 496
908T442 928T417 978T424 1021T444 1046Q468 1066 491 1066T529 1061T556 1046ZM312 1036T319 1022T325 986T315 950T295 926Q271 908 241 908T187 928T162 978T169 1021T189 1046Q211 1066 235 1066T273 1061T300 1046Z" />
<glyph unicode="&#xec;" glyph-name="igrave" horiz-adv-x="385" d="M251 686Q237 392 237 322T241 151T240 38T227 17Q210 0 189 0T151 15T138 76Q147 201 147 328T145 537T141 659T144 712T158 732Q175 747 195 747T234 732T251 686ZM306 1146Q349 1171 402
1100Q445 1042 537 944Q567 909 567 892T555 865T527 855Q504 855 473 889T419 947T375 990Q326 1039 308 1062Q264 1119 306 1146Z" />
<glyph unicode="&#xed;" glyph-name="iacute" horiz-adv-x="385" d="M251 686Q237 392 237 322T241 151T240 38T227 17Q210 0 189 0T151 15T138 76Q147 201 147 328T145 537T141 659T144 712T158 732Q175 747 195 747T234 732T251 686ZM395 944Q487 1042 521 1087Q583
1171 625 1146Q667 1118 628 1067Q600 1032 569 1002Q497 932 474 906T436 868T405 855T378 864T365 892T395 944Z" />
<glyph unicode="&#xee;" glyph-name="icircumflex" horiz-adv-x="385" d="M251 686Q237 392 237 322T241 151T240 38T227 17Q210 0 189 0T151 15T138 76Q147 201 147 328T145 537T141 659T144 712T158 732Q175 747 195 747T234 732T251 686ZM322 1014T336 997T368
959T396 928T406 897T392 866T358 854Q319 854 298 897Q288 917 278 939T255 985Q231 1027 196 1059Q152 1014 111 936Q78 876 62 865T27 854T-4 866T-18 896Q-18 924 18 960Q87 1027 131 1107Q156 1153 199 1153Q235 1153 254 1118T285 1064T309 1030Z" />
<glyph unicode="&#xef;" glyph-name="idieresis" horiz-adv-x="385" d="M251 686Q237 392 237 322T241 151T240 38T227 17Q210 0 189 0T151 15T138 76Q147 201 147 328T145 537T141 659T144 712T158 732Q175 747 195 747T234 732T251 686ZM391 1036T398 1022T404
986T394 950T372 926Q349 908 319 908T265 928T240 978T247 1021T267 1046Q291 1066 314 1066T352 1061T379 1046ZM135 1036T142 1022T148 986T138 950T118 926Q94 908 64 908T10 928T-15 978T-8 1021T12 1046Q34 1066 58 1066T96 1061T123 1046Z" />
<glyph unicode="&#xf0;" glyph-name="eth" horiz-adv-x="767" d="M530 1499T552 1520T598 1564T648 1586T686 1570T696 1532T670 1490T626 1457T584 1428Q551 1405 524 1383Q609 1267 654 1096Q709 890 684 538Q651 71 460 -5Q417 -22 358 -22T250 16T169 114Q110
228 110 395Q110 585 193 696Q269 797 381 797Q477 797 538 706Q582 639 600 530Q603 584 602 645Q598 785 595 875T568 1067T507 1243Q484 1290 457 1327Q448 1319 440 1312Q410 1286 378 1258Q299 1189 247 1140Q222 1119 197 1122T158 1138Q146 1153 149 1178T175
1220T228 1257T290 1301Q363 1352 404 1385Q370 1417 336 1438Q291 1466 250 1478T185 1493T146 1496T116 1502Q83 1511 79 1535Q69 1582 136 1594Q234 1610 352 1540Q419 1501 473 1444Q492 1462 510 1480Q530 1499 552 1520ZM553 390Q553 459 539 517T500 616Q450
701 385 701Q297 701 248 615Q201 534 201 425T215 255T253 152Q302 67 377 67Q459 67 508 160Q553 248 553 390Z" />
<glyph unicode="&#xf1;" glyph-name="ntilde" horiz-adv-x="754" d="M634 485L632 269Q632 162 639 69Q641 35 623 19T584 2T547 17T533 64T539 137T544 222Q548 310 548 367T546 451T542 528T515 625T445 671T367 652T306 602Q249 535 230 446Q229 418 229 391V339Q229
158 233 100T226 22T188 2T145 19T132 84Q142 213 142 349Q142 582 135 691Q131 758 191 758Q222 758 230 739T237 699T234 663T233 632T233 603Q292 715 390 750Q421 761 453 761T519 747T578 699Q634 627 634 485ZM412 942Q412 991 442 1020Q496 1072 541 1072T608
1061T648 1035T684 1008T723 994Q762 992 776 1024T799 1067T827 1079T855 1063T865 1024T854 978T825 936Q783 894 744 894T685 906T647 932Q574 991 523 964Q505 954 497 930Q480 885 446 885T412 942Z" />
<glyph unicode="&#xf2;" glyph-name="ograve" horiz-adv-x="713" d="M442 673Q409 697 365 697T284 673T222 604Q171 516 171 363T220 136T351 63Q441 63 495 166Q543 258 543 392Q543 598 442 673ZM350 -22Q293 -23 244 1T158 78Q79 188 79 391Q79 573 164 678Q244
778 376 778Q487 778 560 682Q635 580 635 402Q635 204 548 86Q470 -20 350 -22ZM213 1146Q256 1171 309 1100Q352 1042 444 944Q474 909 474 892T462 865T434 855Q411 855 380 889T326 947T282 990Q233 1039 215 1062Q171 1119 213 1146Z" />
<glyph unicode="&#xf3;" glyph-name="oacute" horiz-adv-x="713" d="M442 673Q409 697 365 697T284 673T222 604Q171 516 171 363T220 136T351 63Q441 63 495 166Q543 258 543 392Q543 598 442 673ZM350 -22Q293 -23 244 1T158 78Q79 188 79 391Q79 573 164 678Q244
778 376 778Q487 778 560 682Q635 580 635 402Q635 204 548 86Q470 -20 350 -22ZM301 944Q393 1042 427 1087Q489 1171 531 1146Q573 1118 534 1067Q506 1032 475 1002Q403 932 380 906T342 868T311 855T284 864T271 892T301 944Z" />
<glyph unicode="&#xf4;" glyph-name="ocircumflex" horiz-adv-x="713" d="M442 673Q409 697 365 697T284 673T222 604Q171 516 171 363T220 136T351 63Q441 63 495 166Q543 258 543 392Q543 598 442 673ZM350 -22Q293 -23 244 1T158 78Q79 188 79 391Q79 573 164
678Q244 778 376 778Q487 778 560 682Q635 580 635 402Q635 204 548 86Q470 -20 350 -22ZM742 1014T756 997T788 959T816 928T826 897T812 866T778 854Q739 854 718 897Q708 917 698 939T675 985Q651 1027 616 1059Q572 1014 531 936Q498 876 482 865T447 854T416
866T402 896Q402 924 438 960Q507 1027 551 1107Q576 1153 619 1153Q655 1153 674 1118T705 1064T729 1030Z" />
<glyph unicode="&#xf5;" glyph-name="otilde" horiz-adv-x="713" d="M442 673Q409 697 365 697T284 673T222 604Q171 516 171 363T220 136T351 63Q441 63 495 166Q543 258 543 392Q543 598 442 673ZM350 -22Q293 -23 244 1T158 78Q79 188 79 391Q79 573 164 678Q244
778 376 778Q487 778 560 682Q635 580 635 402Q635 204 548 86Q470 -20 350 -22ZM388 942Q388 991 418 1020Q472 1072 517 1072T584 1061T624 1035T660 1008T699 994Q738 992 752 1024T775 1067T803 1079T831 1063T841 1024T830 978T801 936Q759 894 720 894T661
906T623 932Q550 991 499 964Q481 954 473 930Q456 885 422 885T388 942Z" />
<glyph unicode="&#xf6;" glyph-name="odieresis" horiz-adv-x="713" d="M442 673Q409 697 365 697T284 673T222 604Q171 516 171 363T220 136T351 63Q441 63 495 166Q543 258 543 392Q543 598 442 673ZM350 -22Q293 -23 244 1T158 78Q79 188 79 391Q79 573 164
678Q244 778 376 778Q487 778 560 682Q635 580 635 402Q635 204 548 86Q470 -20 350 -22ZM552 1036T559 1022T565 986T555 950T533 926Q510 908 480 908T426 928T401 978T408 1021T428 1046Q452 1066 475 1066T513 1061T540 1046ZM296 1036T303 1022T309 986T299
950T279 926Q255 908 225 908T171 928T146 978T153 1021T173 1046Q195 1066 219 1066T257 1061T284 1046Z" />
<glyph unicode="&#xf7;" glyph-name="divide" horiz-adv-x="891" d="M517 205T525 189T533 150T524 111T500 84Q474 66 437 66Q384 66 362 114Q354 130 354 151Q354 211 412 230Q428 236 443 236T475 231T504 216ZM517 769T525 753T533 714T524 675T500 648Q474
630 437 630Q384 630 362 678Q354 694 354 715Q354 775 412 794Q428 800 443 800T475 795T504 780ZM172 493Q264 484 432 484T718 492Q750 494 766 476T783 438T768 402T706 390Q599 400 501 400Q342 400 172 388Q139 386 124 402T108 439T124 477T172 493Z" />
<glyph unicode="&#xf8;" glyph-name="oslash" horiz-adv-x="713" d="M350 -22Q299 -23 254 -3Q248 -19 242 -34Q222 -93 211 -101T184 -110T158 -96T148 -65T154 -30Q171 8 187 43Q171 59 158 78Q79 188 79 391Q79 573 164 678Q244 778 376 778Q424 778 465 760Q489
844 498 854Q508 865 525 865T556 853T569 824Q569 801 545 748Q538 732 531 715Q546 700 560 682Q635 580 635 402Q635 204 548 86Q470 -20 350 -22ZM490 621Q462 555 438 494Q413 431 390 370T342 242T290 100Q287 89 283 78Q313 63 351 63Q441 63 495 166Q543
258 543 392Q543 541 490 621ZM441 674Q408 697 364 697Q320 697 284 673T222 604Q171 516 171 363T220 136Q223 132 225 129Q227 132 228 136Q262 210 290 274T343 398T390 520Q419 603 441 674Z" />
<glyph unicode="&#xf9;" glyph-name="ugrave" horiz-adv-x="756" d="M213 244Q213 66 346 66Q422 66 476 142Q524 210 533 304Q536 392 536 466Q536 572 534 680Q532 713 551 730T590 747T627 732T639 686Q621 493 621 314T626 113T638 78Q654 42 654 26T642 -5T607
-20Q532 -20 534 117Q500 55 471 31Q372 -51 254 -8Q122 42 122 253Q122 363 121 470T120 680Q121 713 138 729T176 746T214 731T227 680T220 586T216 467Q213 365 213 244ZM163 1146Q206 1171 259 1100Q302 1042 394 944Q424 909 424 892T412 865T384 855Q361
855 330 889T276 947T232 990Q183 1039 165 1062Q121 1119 163 1146Z" />
<glyph unicode="&#xfa;" glyph-name="uacute" horiz-adv-x="756" d="M213 244Q213 66 346 66Q422 66 476 142Q524 210 533 304Q536 392 536 466Q536 572 534 680Q532 713 551 730T590 747T627 732T639 686Q621 493 621 314T626 113T638 78Q654 42 654 26T642 -5T607
-20Q532 -20 534 117Q500 55 471 31Q372 -51 254 -8Q122 42 122 253Q122 363 121 470T120 680Q121 713 138 729T176 746T214 731T227 680T220 586T216 467Q213 365 213 244ZM385 944Q477 1042 511 1087Q573 1171 615 1146Q657 1118 618 1067Q590 1032 559 1002Q487
932 464 906T426 868T395 855T368 864T355 892T385 944Z" />
<glyph unicode="&#xfb;" glyph-name="ucircumflex" horiz-adv-x="756" d="M213 244Q213 66 346 66Q422 66 476 142Q524 210 533 304Q536 392 536 466Q536 572 534 680Q532 713 551 730T590 747T627 732T639 686Q621 493 621 314T626 113T638 78Q654 42 654 26T642
-5T607 -20Q532 -20 534 117Q500 55 471 31Q372 -51 254 -8Q122 42 122 253Q122 363 121 470T120 680Q121 713 138 729T176 746T214 731T227 680T220 586T216 467Q213 365 213 244ZM525 1014T539 997T571 959T599 928T609 897T595 866T561 854Q522 854 501 897Q491
917 481 939T458 985Q434 1027 399 1059Q355 1014 314 936Q281 876 265 865T230 854T199 866T185 896Q185 924 221 960Q290 1027 334 1107Q359 1153 402 1153Q438 1153 457 1118T488 1064T512 1030Z" />
<glyph unicode="&#xfc;" glyph-name="udieresis" horiz-adv-x="756" d="M213 244Q213 66 346 66Q422 66 476 142Q524 210 533 304Q536 392 536 466Q536 572 534 680Q532 713 551 730T590 747T627 732T639 686Q621 493 621 314T626 113T638 78Q654 42 654 26T642
-5T607 -20Q532 -20 534 117Q500 55 471 31Q372 -51 254 -8Q122 42 122 253Q122 363 121 470T120 680Q121 713 138 729T176 746T214 731T227 680T220 586T216 467Q213 365 213 244ZM578 1036T585 1022T591 986T581 950T559 926Q536 908 506 908T452 928T427 978T434
1021T454 1046Q478 1066 501 1066T539 1061T566 1046ZM322 1036T329 1022T335 986T325 950T305 926Q281 908 251 908T197 928T172 978T179 1021T199 1046Q221 1066 245 1066T283 1061T310 1046Z" />
<glyph unicode="&#xfd;" glyph-name="yacute" horiz-adv-x="681" d="M360 59Q474 486 516 694Q527 756 577 756Q597 756 612 743T627 711Q627 680 612 639T572 513T519 329T463 126T405 -86Q291 -499 264 -527Q251 -541 228 -541T188 -528T171 -496Q171 -466 186
-440T218 -374T256 -279Q290 -185 323 -73Q299 4 274 93Q245 191 214 290Q140 531 110 596Q76 672 76 699T90 741T126 757Q169 757 186 701T221 581T256 452T291 322T323 201T350 96Q356 76 360 59ZM294 944Q386 1042 420 1087Q482 1171 524 1146Q566 1118 527
1067Q499 1032 468 1002Q396 932 373 906T335 868T304 855T277 864T264 892T294 944Z" />
<glyph unicode="&#xfe;" glyph-name="thorn" horiz-adv-x="816" d="M271 426Q268 191 275 80Q315 74 366 96Q429 123 472 156T550 238Q629 350 629 514Q629 639 554 674Q532 684 496 684T418 659T346 594Q282 516 271 426ZM273 1592L269 1054Q269 919 276 624Q310
682 364 722Q437 777 528 777T670 709T722 534T700 353T642 222T558 122T460 50Q363 -5 273 -10Q270 -61 270 -152L278 -456Q278 -498 238 -513Q227 -517 212 -517T180 -503T164 -455Q186 -111 185 119Q183 551 183 713T182 972T177 1169Q173 1312 156 1603Q154
1658 196 1672Q206 1675 215 1675Q251 1677 262 1653T273 1592Z" />
<glyph unicode="&#xff;" glyph-name="ydieresis" horiz-adv-x="681" d="M360 59Q474 486 516 694Q527 756 577 756Q597 756 612 743T627 711Q627 680 612 639T572 513T519 329T463 126T405 -86Q291 -499 264 -527Q251 -541 228 -541T188 -528T171 -496Q171 -466
186 -440T218 -374T256 -279Q290 -185 323 -73Q299 4 274 93Q245 191 214 290Q140 531 110 596Q76 672 76 699T90 741T126 757Q169 757 186 701T221 581T256 452T291 322T323 201T350 96Q356 76 360 59ZM546 1036T553 1022T559 986T549 950T527 926Q504 908 474
908T420 928T395 978T402 1021T422 1046Q446 1066 469 1066T507 1061T534 1046ZM290 1036T297 1022T303 986T293 950T273 926Q249 908 219 908T165 928T140 978T147 1021T167 1046Q189 1066 213 1066T251 1061T278 1046Z" />
<glyph unicode="&#x2013;" glyph-name="endash" horiz-adv-x="913" d="M184 471Q266 463 433 463T728 470Q762 472 778 458T794 425T779 391T717 378Q610 381 512 381Q352 381 184 377Q150 376 135 391T119 425T135 458T184 471Z" />
<glyph unicode="&#x2014;" glyph-name="emdash" horiz-adv-x="1238" d="M184 471Q307 460 576 460T1053 467Q1086 469 1102 454T1119 422T1104 391T1048 380Q976 384 821 384Q544 384 184 374Q150 373 135 389T119 424T135 458T184 471Z" />
<glyph unicode="&#x2018;" glyph-name="quoteleft" horiz-adv-x="410" d="M114 1594Q114 1701 181 1783Q232 1844 266 1820Q273 1815 273 1804Q273 1784 259 1765T235 1734T220 1708Q206 1680 206 1640Q230 1647 253 1634Q296 1609 296 1571T273 1509T209 1485T141
1516T114 1594Z" />
<glyph unicode="&#x2019;" glyph-name="quoteright" horiz-adv-x="395" d="M281 1736Q281 1637 216 1542Q169 1476 138 1506Q132 1513 132 1523Q132 1543 147 1561T170 1597T180 1631T185 1659T187 1678Q166 1671 148 1685Q114 1712 114 1746T135 1802T182 1824T223
1819T251 1804Q281 1779 281 1736Z" />
<glyph unicode="&#x201a;" glyph-name="quotesinglbase" horiz-adv-x="392" d="M212 -166Q165 -223 138 -196Q132 -190 132 -180Q132 -161 147 -142T170 -106T180 -72T185 -44T187 -25Q166 -32 148 -18Q114 9 114 43T135 99T182 121T222 116T250 100Q279 76 279
43T274 -19T260 -74Q242 -131 212 -166Z" />
<glyph unicode="&#x201c;" glyph-name="quotedblleft" horiz-adv-x="670" d="M374 1594Q374 1697 442 1783Q485 1835 511 1828Q535 1819 535 1801Q535 1784 520 1765T495 1734T480 1708Q466 1680 466 1640Q490 1647 514 1634Q558 1609 558 1571T535 1509T470 1485T402
1516T374 1594ZM114 1594Q114 1701 181 1783Q232 1844 266 1820Q273 1815 273 1804Q273 1784 259 1765T235 1734T220 1708Q206 1680 206 1640Q230 1647 253 1634Q296 1609 296 1571T273 1509T209 1485T141 1516T114 1594Z" />
<glyph unicode="&#x201d;" glyph-name="quotedblright" horiz-adv-x="670" d="M296 1723Q296 1615 228 1534Q188 1483 160 1490Q136 1498 136 1516Q136 1536 151 1553T175 1582T190 1608Q204 1637 204 1678Q181 1669 158 1682Q114 1708 114 1746T137 1809T201
1833T269 1802T296 1723ZM558 1723Q558 1616 489 1534Q449 1483 420 1490Q397 1499 397 1516Q397 1535 412 1552T436 1582T452 1608Q465 1637 465 1678Q442 1669 418 1682Q374 1708 374 1746T397 1809T451 1833T499 1825T530 1801Q558 1769 558 1723Z" />
<glyph unicode="&#x201e;" glyph-name="quotedblbase" horiz-adv-x="629" d="M450 -166Q402 -223 376 -196Q369 -190 369 -180Q369 -161 384 -142T407 -106T417 -72T422 -44T424 -25Q403 -32 385 -18Q351 9 351 43T372 99T419 121T459 116T486 100Q516 76 516
43T511 -19T496 -74Q479 -131 450 -166ZM212 -166Q165 -223 138 -196Q132 -190 132 -180Q132 -161 147 -142T170 -106T180 -72T185 -44T187 -25Q166 -32 148 -18Q114 9 114 43T135 99T182 121T222 116T250 100Q279 76 279 43T274 -19T260 -74Q242 -131 212 -166Z"
/>
<glyph unicode="&#x2022;" glyph-name="bullet" horiz-adv-x="818" d="M509 733T519 710T530 653T518 597T487 560Q452 533 417 533T361 540T324 564Q288 598 288 654Q288 740 368 769Q391 777 412 777T454 770T492 748Z" />
<glyph unicode="&#x2039;" glyph-name="guilsinglleft" horiz-adv-x="635" d="M470 32T453 18T409 4T364 46T323 131T276 210Q228 281 197 305Q150 341 150 380T171 435T216 480T267 546Q333 637 354 686T392 747T426 759T459 743T475 710Q475 676 453 652T400
591T338 514Q266 419 266 386Q266 334 394 166Q425 126 447 102T470 55Z" />
<glyph unicode="&#x203a;" glyph-name="guilsinglright" horiz-adv-x="634" d="M275 54Q254 4 220 4Q199 4 182 18T165 55T187 102T240 166T300 249Q369 350 369 377T348 442T297 519T235 593T187 646Q160 678 160 702T175 743T208 759Q247 759 270 710Q285 672
355 575Q440 457 455 442Q484 419 484 391Q484 339 458 320T407 274T359 210Q308 134 275 54Z" />
</font>
</defs>
</svg>
