<?xml version="1.0" standalone="no"?>
<!DOCTYPE svg PUBLIC "-//W3C//DTD SVG 1.1//EN" "http://www.w3.org/Graphics/SVG/1.1/DTD/svg11.dtd">
<svg xmlns="http://www.w3.org/2000/svg">
<defs >
<font id="Shanti" horiz-adv-x="906" ><font-face
    font-family="Shanti"
    units-per-em="2048"
    panose-1="2 0 5 3 5 0 0 2 0 4"
    ascent="2012"
    descent="-599"
    alphabetic="0" />
<glyph unicode=" " glyph-name="space" horiz-adv-x="525" />
<glyph unicode="!" glyph-name="exclam" horiz-adv-x="530" d="M321 339H209L161 1394H369L321 339ZM161 211H369V0H161V211Z" />
<glyph unicode="&quot;" glyph-name="quotedbl" horiz-adv-x="762" d="M308 1377V875H169L123 1377H308ZM638 1377L593 875H474V1377H638Z" />
<glyph unicode="#" glyph-name="numbersign" horiz-adv-x="1274" d="M943 824L888 539H1113V393H861L787 0H627L701 393H459L384 0H226L300 393H85V539H327L381 824H159V971H409L483 1377H644L568 971H813L888 1377H1048L969 971H1187V824H943ZM486 539H729L784
824H540L486 539Z" />
<glyph unicode="$" glyph-name="dollar" horiz-adv-x="1099" d="M484 39Q418 40 358 53T247 96T155 172T90 285Q120 307 148 325T206 365Q222 339 246 313T304 264T382 226T484 207V629Q379 661 308 695T194 773T132 872T113 1002Q113 1080 143 1139T225 1240T344
1306T487 1339V1503H611V1342Q640 1340 675 1336T747 1323T821 1298T890 1260T946 1203T983 1124L838 1058Q823 1088 800 1109T748 1144T684 1166T610 1178V787Q682 765 752 735T879 661T970 556T1005 409Q1005 324 973 261T887 152T760 80T607 43V-161H484V39ZM808
396Q808 435 792 464T749 517T686 557T610 590V212Q662 218 699 236T761 279T796 334T808 396ZM305 1009Q305 970 318 942T356 893T414 856T486 826V1175Q428 1164 393 1145T338 1102T312 1054T305 1009Z" />
<glyph unicode="%" glyph-name="percent" horiz-adv-x="1643" d="M238 1009Q238 965 243 919T264 835T310 773T389 748Q437 748 466 773T511 836T532 921T538 1010Q538 1064 531 1111T507 1194T462 1251T389 1272Q340 1272 310 1248T264 1185T243 1100T238 1009ZM695
1015Q695 917 674 843T612 718T515 642T387 616Q319 616 263 640T167 714T105 837T82 1008Q82 1098 101 1171T159 1296T257 1376T396 1405Q475 1405 531 1376T624 1294T678 1171T695 1015ZM1106 362Q1106 314 1112 269T1134 189T1179 133T1254 112Q1302 112 1332
135T1379 195T1402 280T1408 375Q1408 422 1402 469T1379 553T1332 614T1256 638Q1207 638 1178 613T1132 547T1111 457T1106 362ZM1562 377Q1562 285 1544 212T1487 86T1392 6T1255 -22Q1171 -22 1113 9T1019 94T966 219T950 372Q950 468 971 542T1033 666T1129
742T1255 768Q1286 768 1321 761T1390 736T1455 690T1510 617T1548 515T1562 377ZM1305 1418Q1201 1233 1098 1052T893 689T688 326T480 -40H330L1156 1418H1305Z" />
<glyph unicode="&amp;" glyph-name="ampersand" horiz-adv-x="1452" d="M97 377Q97 454 119 515T179 628T269 723T380 807Q354 835 328 868T279 942T242 1031T228 1135Q228 1207 252 1265T324 1364T440 1427T598 1449Q672 1449 738 1431T853 1376T930 1283T959
1150Q959 1082 933 1026T867 923T779 840T687 775L1015 441Q1040 477 1058 515T1090 596T1112 693T1126 812H1319Q1312 728 1298 660T1262 532T1210 420T1138 315L1444 1H1185L1014 171Q964 126 913 90T805 30T686 -8T552 -22Q444 -22 360 7T217 89T128 215T97
377ZM568 151Q626 151 674 164T762 197T832 243T889 293Q825 354 762 418T638 545L505 684Q451 646 412 611T349 539T312 465T300 383Q300 322 323 279T385 207T471 165T568 151ZM428 1140Q428 1083 463 1026T563 902Q599 925 633 951T696 1008T741 1073T758 1147Q758
1173 748 1197T719 1241T669 1273T598 1285Q560 1285 529 1274T475 1244T440 1198T428 1140Z" />
<glyph unicode="&apos;" glyph-name="quotesingle" horiz-adv-x="437" d="M267 875H149V1377H312L267 875Z" />
<glyph unicode="(" glyph-name="parenleft" horiz-adv-x="579" d="M100 598Q100 716 122 837T181 1071T262 1281T353 1449H508Q460 1357 420 1250T350 1032T304 810T288 601Q288 494 301 394T342 190T412 -24T511 -261H358Q303 -168 256 -64T174 151T120 374T100 598Z" />
<glyph unicode=")" glyph-name="parenright" horiz-adv-x="579" d="M220 1449Q275 1354 322 1249T405 1032T459 808T479 583Q479 465 457 344T398 111T317 -97T227 -261H72Q120 -165 160 -64T229 144T274 360T290 582Q290 690 277 791T236 996T166 1211T67 1449H220Z" />
<glyph unicode="*" glyph-name="asterisk" horiz-adv-x="948" d="M211 1334L336 1411L473 1183L610 1411L737 1334L604 1118H839V969H603L736 754L610 677L473 904L336 677L210 754L340 969H109V1118H341L211 1334Z" />
<glyph unicode="+" glyph-name="plus" horiz-adv-x="1122" d="M478 505H87V665H478V1058H642V665H1035V505H642V114H478V505Z" />
<glyph unicode="," glyph-name="comma" horiz-adv-x="519" d="M57 -248L169 244H391L197 -248H57Z" />
<glyph unicode="-" glyph-name="hyphen" horiz-adv-x="776" d="M143 439V606H632V439H143Z" />
<glyph unicode="." glyph-name="period" horiz-adv-x="518" d="M143 239H374V0H143V239Z" />
<glyph unicode="/" glyph-name="slash" horiz-adv-x="792" d="M719 1448L234 -18H73L562 1448H719Z" />
<glyph unicode="0" glyph-name="zero" horiz-adv-x="1164" d="M131 695Q131 774 138 858T163 1023T213 1174T295 1299T415 1384T582 1416Q672 1416 740 1387T859 1306T943 1186T997 1036T1025 869T1034 695Q1034 608 1026 521T997 354T943 205T859 84T741 4T582
-26Q486 -26 416 5T295 90T213 215T163 367T138 531T131 695ZM842 695Q842 824 829 926T786 1101T706 1211T583 1250Q503 1250 452 1206T372 1086T332 909T321 695Q321 582 332 481T372 305T452 185T583 140Q656 140 706 178T786 289T829 463T842 695Z" />
<glyph unicode="1" glyph-name="one" horiz-adv-x="757" d="M368 932Q368 941 368 956T368 989T369 1026T370 1065Q371 1110 372 1161Q291 1089 216 1039T87 958L42 1130Q62 1141 92 1160T156 1204T225 1253T293 1303T350 1346T391 1377H556V0H368V932Z" />
<glyph unicode="2" glyph-name="two" horiz-adv-x="1077" d="M114 1106Q179 1260 283 1332T548 1404Q628 1404 699 1382T823 1312T907 1194T938 1024Q938 964 919 902T855 769T738 611T560 416L321 170H968V0H99V174L443 534Q503 597 558 661T655 787T721 908T746
1021Q746 1058 735 1096T699 1166T633 1218T532 1238Q470 1238 427 1220T355 1173T308 1112T278 1049L114 1106Z" />
<glyph unicode="3" glyph-name="three" horiz-adv-x="1115" d="M516 -20Q410 -20 302 20T101 148L169 308Q205 270 248 241T337 192T429 162T519 152Q574 152 623 166T710 210T770 285T793 394Q793 472 760 519T674 591T553 624T418 632Q413 632 404 632T385 631H363V796Q371
795 379 795Q386 794 393 794T406 794Q474 794 538 804T652 841T732 914T762 1035Q762 1080 744 1117T694 1182T615 1224T514 1239Q448 1239 367 1206T191 1098L95 1219Q195 1313 307 1358T525 1404Q613 1404 691 1380T829 1310T924 1197T959 1044Q959 994 944
947T899 857T823 779T716 718Q799 693 852 651T936 563T978 470T990 389Q990 292 951 216T846 88T695 8T516 -20Z" />
<glyph unicode="4" glyph-name="four" horiz-adv-x="1149" d="M689 0V300H66V504L673 1390H875V472H1074V300H875V0H689ZM240 472H689V1158Q655 1104 625 1056Q612 1036 599 1015T574 975T553 941T537 917L240 472Z" />
<glyph unicode="5" glyph-name="five" horiz-adv-x="1087" d="M555 878Q654 878 733 846T867 756T951 618T981 444Q981 339 948 254T851 108T696 14T488 -20Q422 -20 362 -5T252 39T166 112T110 214L228 297Q246 256 277 227T344 180T420 152T494 143Q577 143
633 169T724 237T773 332T788 440Q788 572 714 644T506 716Q463 716 427 705T361 677T310 641T274 606L177 634V1377H897V1206H346L316 807Q358 833 418 855T555 878Z" />
<glyph unicode="6" glyph-name="six" horiz-adv-x="1141" d="M927 1186Q856 1215 793 1231T677 1247Q582 1247 518 1211T413 1108T352 945T323 729Q347 760 377 789T445 840T527 875T625 889Q712 889 786 861T914 778T1000 642T1031 455Q1031 341 996 253T901
104T759 12T587 -20Q465 -20 379 29T236 163T154 365T128 615Q128 701 137 792T171 972T234 1138T333 1276T475 1369T666 1404Q735 1404 815 1385T987 1323L927 1186ZM590 141Q639 141 684 158T765 213T821 308T842 446Q842 494 831 544T792 637T717 705T597 732Q532
732 482 709T398 647T346 559T328 459Q328 396 346 339T397 237T479 167T590 141Z" />
<glyph unicode="7" glyph-name="seven" horiz-adv-x="959" d="M180 0L704 1203H60V1377H904V1218L395 0H180Z" />
<glyph unicode="8" glyph-name="eight" horiz-adv-x="1163" d="M581 -20Q490 -20 408 3T262 73T162 193T125 364Q125 430 144 483T198 580T283 659T394 724Q284 776 222 858T159 1045Q159 1108 184 1172T260 1287T391 1371T580 1404Q675 1404 753 1379T887 1308T974
1196T1005 1048Q1005 943 941 860T757 728Q803 706 852 676T943 604T1010 505T1037 372Q1037 294 1009 223T923 98T781 12T581 -20ZM580 143Q652 143 702 163T784 217T829 292T843 378Q843 431 823 474T766 551T680 608T572 643Q515 629 468 604T388 544T336 466T318
372Q318 328 332 287T378 214T459 163T580 143ZM349 1044Q349 994 367 955T416 887T490 840T581 813Q630 821 673 840T748 889T798 958T817 1044Q817 1089 801 1126T755 1189T681 1230T582 1245Q531 1245 489 1232T415 1192T367 1129T349 1044Z" />
<glyph unicode="9" glyph-name="nine" horiz-adv-x="1133" d="M231 204Q304 172 366 156T480 139Q550 139 608 169T709 265T777 430T808 672Q744 592 670 556T513 519Q426 519 352 546T223 628T137 761T105 946Q105 1060 139 1145T232 1288T369 1374T534 1403Q592
1403 649 1390T759 1347T856 1267T934 1144T985 970T1004 739Q1004 553 967 411T861 174T699 29T491 -20Q419 -20 338 1T167 61L231 204ZM541 672Q600 672 647 693T728 749T780 832T798 931Q798 998 780 1055T727 1154T646 1219T542 1243Q485 1243 440 1223T362
1163T313 1069T295 945Q295 882 312 831T360 745T438 691T541 672Z" />
<glyph unicode=":" glyph-name="colon" horiz-adv-x="518" d="M143 1019H374V780H143V1019ZM143 239H374V0H143V239Z" />
<glyph unicode=";" glyph-name="semicolon" horiz-adv-x="579" d="M97 -233L207 229H403L220 -233H97ZM191 1018H422V779H191V1018Z" />
<glyph unicode="&lt;" glyph-name="less" horiz-adv-x="1164" d="M1025 111L77 510V651L1025 1074V899L293 585L1025 289V111Z" />
<glyph unicode="=" glyph-name="equal" horiz-adv-x="1268" d="M160 700V860H1108V700H160ZM160 308V470H1108V308H160Z" />
<glyph unicode="&gt;" glyph-name="greater" horiz-adv-x="1164" d="M139 289L871 585L139 899V1074L1087 651V510L139 111V289Z" />
<glyph unicode="?" glyph-name="question" horiz-adv-x="882" d="M283 338V417Q283 467 287 507T305 584T344 657T412 735Q455 778 491 817T553 895T593 971T608 1052Q608 1111 584 1149T523 1208T446 1238T372 1247Q327 1247 258 1233T95 1177L65 1348Q125 1374
204 1395T378 1417Q476 1417 555 1393T689 1323T773 1211T803 1061Q803 998 789 950T748 859T678 772T580 675Q537 635 510 607T468 552T448 491T442 408V338H283ZM256 211H469V0H256V211Z" />
<glyph unicode="@" glyph-name="at" horiz-adv-x="1642" d="M834 -77Q667 -77 531 -27T299 118T151 346T98 647Q98 769 126 876T205 1073T329 1232T489 1350T678 1423T888 1449Q1024 1449 1145 1407T1357 1284T1501 1082T1554 807Q1554 701 1525 609T1446 448T1328
340T1185 300Q1109 300 1066 346T1019 485Q999 452 972 419T915 360T842 317T750 300Q685 300 632 323T542 391T484 496T470 635Q470 722 498 804T575 949T697 1051T862 1090Q913 1090 963 1067T1058 1000Q1059 1011 1061 1023T1065 1045Q1067 1056 1069 1068L1208
1049L1134 646Q1126 608 1123 577T1120 521Q1120 461 1141 437T1209 413Q1253 413 1293 443T1364 527T1413 654T1431 813Q1431 940 1388 1037T1271 1198T1098 1296T888 1329Q742 1329 620 1281T409 1144T271 929T221 647Q221 505 264 393T388 202T582 83T837 42Q906
42 970 53T1094 84T1209 129T1316 183L1347 72Q1237 5 1113 -36T834 -77ZM782 423Q824 423 855 438T905 479T940 537T967 604T987 672T1002 733L1038 940Q1002 948 969 954Q941 959 918 964T880 969Q818 969 769 937T685 854T634 743T617 626Q619 529 661 476T782
423Z" />
<glyph unicode="A" glyph-name="A" horiz-adv-x="1295" d="M19 64L553 1412H746L1273 59V0H1084L932 396H349L195 0H19V64ZM547 928L414 568H869L739 928L644 1198L547 928Z" />
<glyph unicode="B" glyph-name="B" horiz-adv-x="1269" d="M190 1412H645Q757 1412 845 1394T995 1333T1089 1222T1122 1054Q1122 990 1102 940T1050 851T976 785T892 740Q941 725 990 700T1077 636T1139 538T1163 399Q1163 339 1149 289T1112 200T1063 131T1012
83L1013 84Q949 38 864 19T688 0H190V1412ZM387 821H637Q686 821 736 829T827 860T893 925T919 1037Q919 1104 895 1144T831 1206T739 1233T631 1240H387V821ZM387 647V170H678Q815 170 886 232T958 413Q958 464 942 506T892 580T804 629T677 647H387Z" />
<glyph unicode="C" glyph-name="C" horiz-adv-x="1236" d="M1162 93Q1042 32 934 3T730 -26Q624 -26 537 2T380 81T259 199T173 348T122 516T105 695Q105 788 122 879T175 1054T262 1208T384 1331T538 1412T726 1442Q795 1442 859 1426T980 1375T1080 1283T1152
1143L977 1101Q962 1150 937 1182T879 1233T809 1260T729 1268Q628 1268 551 1221T420 1095T340 913T313 697Q313 594 339 496T419 320T555 196T749 149Q824 149 910 173T1096 247L1162 93Z" />
<glyph unicode="D" glyph-name="D" horiz-adv-x="1400" d="M1289 706Q1289 604 1272 519T1225 363T1159 239T1079 145Q1031 103 974 75T852 31T716 7T568 0H190V1412H592Q664 1412 735 1405T873 1377T1002 1322T1116 1231Q1202 1131 1245 996T1289 706ZM1080 699Q1080
739 1075 793T1056 904T1017 1017T951 1118Q888 1187 802 1213T595 1240H385V171H554Q609 171 661 177T761 195T849 228T923 276Q970 319 1000 373T1048 484T1073 597T1080 699Z" />
<glyph unicode="E" glyph-name="E" horiz-adv-x="1138" d="M1017 0H190V1412H1008V1237H386V818H973V643H386V179H1017V0Z" />
<glyph unicode="F" glyph-name="F" horiz-adv-x="1076" d="M391 0H191V1412H986V1237H391V789H950V614H391V0Z" />
<glyph unicode="G" glyph-name="G" horiz-adv-x="1368" d="M1029 1086Q1012 1140 985 1175T924 1231T850 1260T767 1268Q678 1268 596 1236T450 1136T348 960T310 704Q310 588 335 487T416 311T562 193T785 149Q867 149 924 157T1027 175H1041V751H1231V54Q1181
38 1129 24T1017 -2T893 -19T752 -26Q587 -26 466 28T265 180T147 410T108 700Q108 829 133 934T204 1121T311 1264T446 1364T599 1423T763 1442Q829 1442 900 1427T1034 1374T1149 1274T1227 1118L1029 1086Z" />
<glyph unicode="H" glyph-name="H" horiz-adv-x="1417" d="M1226 0H1029V640H388V0H191V1414H388V818H1029V1414H1226V0Z" />
<glyph unicode="I" glyph-name="I" horiz-adv-x="577" d="M191 0V1412H387V0H191Z" />
<glyph unicode="J" glyph-name="J" horiz-adv-x="575" d="M-117 -37Q-78 -48 -41 -55T31 -62Q65 -62 94 -52T145 -16T179 54T191 165V1412H385V166Q385 62 361 -13T294 -137T196 -209T76 -233Q21 -233 -37 -217T-152 -168L-117 -37Z" />
<glyph unicode="K" glyph-name="K" horiz-adv-x="1231" d="M1244 0H988L443 706L387 636V0H191V1412H387V769L494 896L948 1412H1200L626 785L1244 0Z" />
<glyph unicode="L" glyph-name="L" horiz-adv-x="1025" d="M190 0V1412H387V180H991V0H190Z" />
<glyph unicode="M" glyph-name="M" horiz-adv-x="1789" d="M1404 0V735Q1404 749 1404 795T1405 902T1406 1027T1408 1146L1384 1150L971 0H797L398 1139L373 1135Q374 1082 375 1018T377 894T378 789T379 728V0H190V1412H505L889 252L1296 1412H1599V0H1404Z" />
<glyph unicode="N" glyph-name="N" horiz-adv-x="1487" d="M191 0V1412H437L1096 305L1118 310Q1117 342 1117 383T1115 469T1114 558T1113 639T1112 704T1112 742V1412H1296V0H1059L387 1123L366 1118Q367 1085 367 1043T369 956T370 865T371 781T372 715T372
675V0H191Z" />
<glyph unicode="O" glyph-name="O" horiz-adv-x="1483" d="M742 -26Q626 -26 535 1T373 78T254 195T173 344T127 516T112 703Q112 801 127 894T175 1069T258 1219T379 1337T539 1414T742 1442Q854 1442 944 1415T1105 1338T1225 1220T1308 1069T1355 894T1371
703Q1371 607 1357 516T1311 344T1231 195T1111 78T950 2T742 -26ZM742 149Q866 149 947 194T1077 316T1144 494T1164 708Q1164 825 1144 927T1074 1105T944 1224T742 1268Q621 1268 540 1225T410 1105T340 927T319 708Q319 595 338 494T406 316T535 194T742 149Z"
/>
<glyph unicode="P" glyph-name="P" horiz-adv-x="1160" d="M1101 1010Q1101 925 1075 849T988 714T824 622T571 587H387V0H191V1412H608Q714 1412 804 1391T960 1323T1063 1198T1101 1010ZM387 757H482Q532 757 582 758T679 766T764 788T833 831T879 903T896 1010Q896
1083 871 1128T805 1198T711 1233T601 1242H387V757Z" />
<glyph unicode="Q" glyph-name="Q" horiz-adv-x="1467" d="M1352 722Q1352 641 1339 556T1292 388T1204 229T1064 92Q1097 83 1137 70T1217 41T1295 8T1362 -25L1305 -180Q1167 -125 1032 -88T752 -22Q738 -23 725 -23T698 -24Q565 -24 457 25T272 167T153 395T111
703Q111 801 127 894T177 1069T260 1219T379 1337T535 1414T728 1442Q840 1442 930 1416T1089 1341T1208 1227T1290 1080T1337 909T1352 722ZM319 700Q319 595 339 496T408 319T535 196T730 149Q816 149 881 173T992 240T1069 338T1117 455T1142 581T1149 704Q1149
836 1123 940T1045 1118T915 1230T733 1269Q648 1269 585 1244T475 1175T399 1075T351 954T326 826T319 700Z" />
<glyph unicode="R" glyph-name="R" horiz-adv-x="1284" d="M191 0V1412H624Q716 1412 804 1394T960 1333T1071 1219T1113 1043Q1113 975 1095 921T1044 823T962 747T854 692Q934 673 980 644T1053 572T1091 474T1113 348T1137 191T1183 0H973Q952 109 941 196T917
351T889 467T841 547T761 592T635 607H387V0H191ZM386 755H618Q679 755 732 769T824 814T886 895T909 1019Q909 1095 880 1139T805 1205T703 1233T592 1239H386V755Z" />
<glyph unicode="S" glyph-name="S" horiz-adv-x="1095" d="M489 149Q571 149 630 167T728 216T785 290T804 383Q804 433 787 470T734 538T639 595T500 651Q394 689 322 731T204 824T140 935T120 1070Q120 1161 154 1230T247 1347T387 1418T561 1442Q658 1442 762
1410T975 1305L898 1159Q807 1217 724 1242T565 1268Q443 1268 377 1217T311 1074Q311 1023 325 987T371 923T454 871T582 821Q715 776 796 730T921 634T979 527T994 401Q994 302 961 223T864 89T710 4T501 -26Q410 -26 306 2T87 93L151 249Q248 199 331 174T489
149Z" />
<glyph unicode="T" glyph-name="T" horiz-adv-x="1140" d="M668 0H473V1237H35V1412H1106V1237H668V0Z" />
<glyph unicode="U" glyph-name="U" horiz-adv-x="1441" d="M1266 1412V524Q1266 400 1227 299T1115 125T943 14T721 -26Q600 -26 500 9T327 114T214 288T174 531V1412H370V519Q370 408 401 336T483 223T597 166T725 150Q801 150 856 167T950 214T1013 281T1050
361T1068 445T1073 524V1412H1266Z" />
<glyph unicode="V" glyph-name="V" horiz-adv-x="1212" d="M1000 1412H1205L706 0H500L15 1412H229L467 678Q470 667 478 641T496 580T517 504T540 423Q566 327 598 214H609Q646 331 677 428Q690 469 703 510T727 586T746 646T757 681L1000 1412Z" />
<glyph unicode="W" glyph-name="W" horiz-adv-x="1898" d="M426 0L38 1412H246Q290 1237 336 1059T427 707Q431 688 439 650T457 563T477 463T495 366T509 288T515 243L540 240L569 365Q600 493 625 595T673 783T715 943T756 1091T797 1242T844 1412H1067L1269
662Q1281 625 1296 575T1325 471T1350 369T1364 286L1390 284L1432 472Q1441 511 1449 549T1465 620T1477 675T1486 708L1661 1412H1860L1471 0H1266L1187 290Q1157 402 1126 514T1065 738Q1061 752 1053 787T1034 867T1012 963T991 1059T975 1139T969 1187L943
1189L828 735L627 0H426Z" />
<glyph unicode="X" glyph-name="X" horiz-adv-x="1261" d="M1242 0H1003L624 599L235 0H12L509 737L57 1412H291L640 878L987 1412H1212L754 738L1242 0Z" />
<glyph unicode="Y" glyph-name="Y" horiz-adv-x="1174" d="M594 723L963 1412H1183L687 547V0H487V547L-9 1412H223L594 723Z" />
<glyph unicode="Z" glyph-name="Z" horiz-adv-x="1173" d="M1082 0H89V179L831 1233H110V1412H1064V1235L320 180H1082V0Z" />
<glyph unicode="[" glyph-name="bracketleft" horiz-adv-x="609" d="M540 -272H172V1438H540V1304H344V-135H540V-272Z" />
<glyph unicode="\" glyph-name="backslash" horiz-adv-x="792" d="M231 1408Q352 1049 473 696T717 -16H560L73 1408H231Z" />
<glyph unicode="]" glyph-name="bracketright" horiz-adv-x="610" d="M70 -135H265V1304H70V1438H438V-272H70V-135Z" />
<glyph unicode="^" glyph-name="asciicircum" horiz-adv-x="1101" d="M100 523L485 1381H614L996 523H824L548 1172L271 523H100Z" />
<glyph unicode="_" glyph-name="underscore" horiz-adv-x="1116" d="M1012 -273H105V-145H1012V-273Z" />
<glyph unicode="`" glyph-name="grave" horiz-adv-x="816" d="M435 1164L162 1473H392L564 1164H435Z" />
<glyph unicode="a" glyph-name="a" horiz-adv-x="1039" d="M154 919Q194 946 240 968T336 1006T436 1032T533 1041Q605 1041 669 1023T782 965T859 863T887 713V301Q887 233 890 178T898 83Q903 36 910 0H741Q738 17 736 63T731 166Q698 110 659 75T578 18T492
-11T405 -19Q330 -19 269 1T166 61T100 155T77 279Q77 312 84 349T109 422T154 491T223 550Q267 578 320 593T429 616T543 625T653 627H707V701Q707 756 693 793T654 853T596 886T526 896Q485 896 441 887T355 862T276 829T209 793L154 919ZM646 210Q665 232 676
259T694 320T703 396T706 491H677Q608 491 535 486T400 460T299 396T259 276Q259 248 268 222T296 174T345 140T417 127Q489 127 550 148T646 210Z" />
<glyph unicode="b" glyph-name="b" horiz-adv-x="1158" d="M158 1413H347L345 1057L342 891Q363 919 390 946T452 994T529 1028T622 1041Q739 1041 821 1000T956 887T1033 722T1058 522Q1058 407 1034 308T956 137T818 23T615 -19Q582 -19 547 -11T475 16T403
65T336 137Q334 124 331 102T326 56Q322 30 320 0H158V1413ZM345 351Q345 317 361 278T410 206T495 150T619 127Q689 127 738 159T818 245T862 369T876 516Q876 586 865 654T824 776T744 862T613 895Q560 895 512 874T427 821T367 750T345 678V351Z" />
<glyph unicode="c" glyph-name="c" horiz-adv-x="960" d="M862 87Q785 33 698 7T530 -19Q447 -19 369 12T231 109T135 277T98 522Q98 655 138 752T242 914T386 1009T548 1041Q605 1041 660 1026T763 978T845 892T896 763L737 737Q726 782 707 812T663 861T610
887T551 895Q503 895 456 874T370 808T307 694T283 529Q283 434 298 360T345 234T428 155T547 127Q589 127 626 134T696 154T755 183T805 216L862 87Z" />
<glyph unicode="d" glyph-name="d" horiz-adv-x="1159" d="M1000 0H838Q834 30 831 56Q828 79 826 101T822 137Q790 95 755 65T684 17T612 -10T543 -19Q424 -19 340 22T202 136T125 308T100 522Q100 628 124 722T200 887T336 999T536 1041Q587 1041 629 1028T705
994T767 946T816 891L813 1057L811 1413H1000V0ZM813 678Q813 712 791 750T732 820T646 874T545 895Q465 895 414 862T334 776T294 655T282 516Q282 439 295 369T340 245T419 159T539 127Q611 127 663 149T748 205T797 278T813 351V678Z" />
<glyph unicode="e" glyph-name="e" horiz-adv-x="1043" d="M925 83Q893 64 858 46T778 13T680 -10T556 -19Q451 -19 367 16T223 118T131 284T99 510Q99 616 125 712T204 881T341 997T538 1041Q646 1041 724 1003T852 901T927 750T951 566V483H285Q286 414 300
350T347 236T431 157T560 127Q652 127 726 150T868 215L925 83ZM534 895Q486 895 445 881T372 836T320 759T292 648Q291 643 291 634T291 615H755Q753 670 742 721T706 810T639 872T534 895Z" />
<glyph unicode="f" glyph-name="f" horiz-adv-x="686" d="M649 875H420V0H231V875H43V1006L232 1023V1062Q232 1149 246 1214T294 1324T387 1390T535 1412Q577 1412 622 1405T709 1386L685 1234Q654 1240 622 1244T561 1249Q515 1249 488 1239T445 1208T425 1157T420
1086V1024H649V875Z" />
<glyph unicode="g" glyph-name="g" horiz-adv-x="1166" d="M962 689Q962 594 927 528T833 419T699 357T544 337Q444 337 359 362Q331 331 316 302T301 256Q301 241 303 230T314 210T340 198T389 193H536Q595 193 658 190T780 178T893 152T986 108T1049 40T1072
-55Q1072 -154 1040 -224T943 -343T783 -420T561 -453Q463 -453 380 -434T237 -380T142 -305T108 -208Q108 -160 143 -86T257 49L254 65Q238 66 217 73T176 95T144 136T130 197Q130 304 263 436Q189 481 154 544T118 677Q118 743 144 808T224 926T357 1010T543
1042Q635 1042 704 1016T828 945Q852 961 881 977T943 1008T1014 1031T1091 1041L1121 836Q1105 837 1092 839Q1080 840 1069 841T1051 842Q1022 842 987 837T921 822Q948 787 955 754T962 689ZM565 -299Q635 -299 695 -284T799 -241T867 -171T892 -53Q892 -7 810
16T570 40Q523 40 476 40T379 41Q334 -9 313 -80T291 -197Q291 -248 363 -273T565 -299ZM291 684Q291 638 306 600T352 534T430 491T542 475Q618 475 668 494T746 544T786 615T798 696Q798 735 786 772T744 840T667 888T548 906Q499 906 453 895T371 857T313 788T291
684Z" />
<glyph unicode="h" glyph-name="h" horiz-adv-x="1149" d="M159 0V1412H348V1088L350 895Q413 964 491 1002T652 1041Q831 1041 916 939T1002 649V0H816V639Q816 684 808 729T777 811T714 871T608 895Q563 895 528 885T467 859T423 822T392 783Q366 740 357 677T348
547V0H159Z" />
<glyph unicode="i" glyph-name="i" horiz-adv-x="552" d="M393 0H207V875H55V1024H393V0ZM411 1377V1205H189V1377H411Z" />
<glyph unicode="j" glyph-name="j" horiz-adv-x="558" d="M125 -446Q89 -446 58 -441T-3 -424V-272Q24 -280 46 -285T92 -290Q121 -290 143 -283T180 -258T202 -210T210 -132V875H59V1024H399V-129Q399 -194 385 -251T339 -352T255 -420T125 -446ZM420 1377V1205H199V1377H420Z"
/>
<glyph unicode="k" glyph-name="k" horiz-adv-x="1041" d="M998 0H787L511 460H348V0H158V1412H348V615H442Q462 615 484 615T528 616Q569 650 604 690T669 779T724 886T773 1024H969Q951 945 921 875T851 739T764 618T666 523L998 0Z" />
<glyph unicode="l" glyph-name="l" horiz-adv-x="563" d="M494 -19Q376 -19 313 7T220 89T185 231T180 438V1263H28V1412H369V386Q369 306 371 257T388 181T434 145T524 136L494 -19V-19Z" />
<glyph unicode="m" glyph-name="m" horiz-adv-x="1817" d="M203 0V875H51V1024H378L388 873Q424 919 462 951T538 1003T614 1033T684 1042Q747 1042 796 1029T882 993T948 937T997 865Q1019 899 1050 931T1122 987T1211 1027T1320 1042Q1387 1042 1450 1024T1561
964T1639 850T1669 673V0H1483V663Q1483 784 1433 839T1279 895Q1240 895 1208 887T1151 866T1108 837T1079 804Q1064 782 1055 754T1040 695T1033 634T1031 576V0H844V673Q844 776 794 835T644 895Q603 895 570 886T512 862T468 830T439 796Q410 752 401 692T392
564V0H203Z" />
<glyph unicode="n" glyph-name="n" horiz-adv-x="1196" d="M862 0V660Q862 773 807 834T650 895Q529 895 461 812T392 568V0H203V875H51V1024H378L388 874Q418 915 449 946T517 999T598 1031T696 1042Q751 1042 812 1026T926 968T1013 856T1048 678V0H862Z" />
<glyph unicode="o" glyph-name="o" horiz-adv-x="1129" d="M1031 512Q1031 395 1001 298T911 130T763 20T560 -19Q451 -19 365 19T220 126T130 291T98 503Q98 613 125 710T209 881T357 998T572 1041Q695 1041 782 997T924 878T1005 709T1031 512ZM284 504Q284
421 300 352T349 233T436 155T564 127Q624 127 675 148T764 216T823 335T844 508Q844 695 774 795T570 895Q514 895 463 874T371 805T308 683T284 504Z" />
<glyph unicode="p" glyph-name="p" horiz-adv-x="1159" d="M159 -416V719Q159 764 158 815T156 912Q154 964 153 1024H330L343 871Q376 920 415 953T495 1006T578 1034T657 1042Q738 1042 811 1009T939 910T1026 744T1059 510Q1059 375 1026 276T934 112T800 14T638
-19Q544 -19 471 17T341 111L346 -76V-416H159ZM611 126Q694 126 746 162T827 254T866 379T877 516Q877 595 864 664T821 785T742 865T621 895Q566 895 516 874T429 821T369 751T346 676V363Q346 323 362 281T411 205T493 148T611 126Z" />
<glyph unicode="q" glyph-name="q" horiz-adv-x="1156" d="M499 1041Q555 1041 602 1026T688 987T758 932T816 870L829 1025H1002Q1002 1020 1002 999T1001 955T1000 909T999 862T998 824T997 804V-416H811V-75Q811 -51 811 -24T813 29T815 78T817 115Q747 44
668 13T518 -19Q430 -19 354 13T222 112T133 277T101 511Q101 647 132 747T218 912T344 1009T499 1041ZM815 477Q815 516 813 562T801 655T774 745T726 821T650 875T539 895Q485 895 446 878T378 832T332 764T304 684T291 598T287 516Q287 472 291 427T307 338T337
257T385 189T456 144T552 127Q628 127 678 153T759 226T802 337T815 477Z" />
<glyph unicode="r" glyph-name="r" horiz-adv-x="749" d="M159 761Q159 774 159 807T158 879T156 960T153 1025H328L337 847Q370 900 409 937T487 997T565 1030T635 1041Q655 1041 678 1040T723 1035L711 851Q684 856 660 859T611 862Q541 862 491 839T410 773T363
673T348 545V0H159V761Z" />
<glyph unicode="s" glyph-name="s" horiz-adv-x="922" d="M141 221Q171 198 207 181T282 151T361 133T440 127Q481 127 518 136T582 164T626 211T643 278Q643 305 633 326T599 368T532 407T425 451Q354 477 296 503T196 562T131 642T108 756Q108 828 138 882T218
971T335 1023T472 1041Q562 1041 652 1014T818 933L757 805Q724 826 688 842T615 870T543 888T476 895Q437 895 403 887T343 864T302 825T287 771Q287 743 301 720T341 678T406 640T494 605Q585 572 649 540T753 472T811 393T829 292Q829 212 795 153T704 56T576
0T428 -19Q332 -19 248 6T82 86L141 221Z" />
<glyph unicode="t" glyph-name="t" horiz-adv-x="700" d="M519 127Q547 127 580 131T637 140V2Q606 -6 562 -12T472 -19Q411 -19 362 -7T278 37T225 120T206 252V876H49V1025H211L244 1269L395 1302V1025H633V876H395V274Q395 245 399 218T417 171T455 139T519 127Z" />
<glyph unicode="u" glyph-name="u" horiz-adv-x="1147" d="M846 0Q842 17 838 42Q835 63 832 94T825 168Q787 77 707 29T523 -19Q334 -19 241 80T148 367V1024H334V366Q334 317 343 274T376 198T437 146T533 127Q612 127 663 153T745 224T788 332T800 466V1024H986V376Q986
282 988 213T994 95Q998 40 1003 0H846Z" />
<glyph unicode="v" glyph-name="v" horiz-adv-x="1028" d="M405 0L17 1024H220L393 540L516 181L638 539L809 1024H1014L612 0H405Z" />
<glyph unicode="w" glyph-name="w" horiz-adv-x="1517" d="M866 1024L1002 515L1093 162H1108L1187 570L1288 1024H1478L1219 0H986L847 511L759 864L671 511L532 0H299L39 1024H233L328 570L414 162H428L516 515L652 1024H866Z" />
<glyph unicode="x" glyph-name="x" horiz-adv-x="1051" d="M408 528L55 1024H284L533 645L785 1024H1003L641 522L1010 0H781L516 397L250 0H36L408 528Z" />
<glyph unicode="y" glyph-name="y" horiz-adv-x="1025" d="M573 -88Q555 -135 531 -187T474 -282T398 -354T299 -383Q279 -383 256 -379T202 -366V-227Q225 -235 241 -238T268 -241Q298 -241 319 -223T356 -175T384 -107T408 -30L418 5L14 1024H220L396 540L516
196L637 540L809 1024H1011L573 -88Z" />
<glyph unicode="z" glyph-name="z" horiz-adv-x="885" d="M791 0H85V166L574 875H114V1024H784V870L286 149H791V0Z" />
<glyph unicode="{" glyph-name="braceleft" horiz-adv-x="717" d="M646 -273Q530 -268 458 -237T345 -154T289 -35T274 110V284Q274 349 256 391T205 460T126 498T22 516V649Q104 656 153 675T230 725T265 794T274 882V1063Q274 1144 290 1210T349 1326T462 1403T645
1437L653 1306Q589 1298 549 1280T487 1232T456 1163T448 1072V897Q448 848 440 801T409 712T345 637T238 582Q304 561 345 527T409 452T440 363T448 269V156Q448 95 451 44T473 -46T534 -109T653 -139L646 -273Z" />
<glyph unicode="|" glyph-name="bar" horiz-adv-x="497" d="M167 1477H330V-477H167V1477Z" />
<glyph unicode="}" glyph-name="braceright" horiz-adv-x="717" d="M64 -139Q141 -133 183 -109T244 -47T266 43T269 156V269Q269 316 277 363T307 451T371 527T479 582Q413 603 372 636T308 711T277 800T269 897V1072Q269 1123 261 1163T231 1232T168 1279T64
1306L72 1437Q183 1432 254 1404T368 1326T426 1211T443 1063V882Q443 834 451 795T487 725T563 676T695 649V516Q638 511 592 499T512 460T461 392T443 284V110Q443 33 428 -34T373 -153T259 -236T71 -273L64 -139Z" />
<glyph unicode="~" glyph-name="asciitilde" horiz-adv-x="1208" d="M120 514Q156 614 220 671T379 728Q403 728 440 719T520 695T611 665T702 635T786 612T852 602Q896 602 943 633T1025 734L1089 656Q1071 589 1042 548T978 483T906 451T837 443Q798 443 753
452T662 475T569 505T483 535T411 558T359 568Q317 568 268 534T184 434L120 514Z" />
<glyph unicode="&#xa0;" glyph-name="uni00A0" horiz-adv-x="525" />
<glyph unicode="&#xa1;" glyph-name="exclamdown" horiz-adv-x="531" d="M370 0H162L210 1055H322L370 0ZM162 1394H370V1183H162V1394Z" />
<glyph unicode="&#xa2;" glyph-name="cent" horiz-adv-x="953" d="M664 1307H782L703 1039L740 1018Q775 998 804 974T856 929L767 808Q755 817 745 825T723 841T695 857T654 876L443 158Q470 149 496 145T550 141Q588 141 622 149T687 172T744 204T794 240L843
112Q799 54 729 17T550 -21Q515 -21 477 -16T396 0L330 -228H213L293 48Q250 77 214 119T151 219T109 349T94 513Q94 664 131 768T233 937T381 1030T557 1059Q562 1059 569 1059T590 1057L664 1307ZM286 519Q286 440 301 368T347 233L543 898Q469 890 420 859T341
778T299 662T286 519Z" />
<glyph unicode="&#xa3;" glyph-name="sterling" horiz-adv-x="1163" d="M112 141L224 156Q231 160 237 177T248 219T257 273T263 329T267 379T269 416V648H106V793H271Q270 811 270 829Q269 843 269 858T269 883Q269 940 272 1001T289 1122T329 1233T402 1325T516
1388T682 1412Q740 1412 795 1401T899 1364T989 1297T1063 1196L919 1130Q890 1191 831 1227T688 1263Q617 1263 573 1239T505 1174T472 1077T463 957V793H774V648H463V416Q463 394 459 361T448 292T431 219T410 156H1063V0H112V141Z" />
<glyph unicode="&#xa4;" glyph-name="currency" horiz-adv-x="1466" d="M150 866Q150 966 182 1058T272 1227L175 1325L279 1428L376 1330Q454 1387 544 1419T734 1452Q831 1452 921 1420T1089 1331L1186 1428L1290 1325L1193 1227Q1253 1151 1285 1060T1317 866Q1317
766 1286 677T1196 511Q1218 488 1243 464T1290 417L1186 313L1094 405Q1016 346 925 314T734 281Q634 281 542 313T372 406L279 313L175 417L270 512Q213 587 182 676T150 866ZM734 420Q839 420 917 458T1047 559T1126 702T1152 866Q1152 950 1126 1030T1048 1172T917
1273T734 1312Q629 1312 551 1274T421 1173T342 1030T316 866Q316 782 342 702T420 560T551 459T734 420Z" />
<glyph unicode="&#xa5;" glyph-name="yen" horiz-adv-x="1202" d="M504 0V286H179V424H504V536H179V675H439Q348 854 253 1041T65 1408H292L605 722L923 1408H1137L763 675H1020V536H696V424H1020V286H696V0H504Z" />
<glyph unicode="&#xa6;" glyph-name="brokenbar" horiz-adv-x="517" d="M177 1477H340V754H177V1477ZM177 300H340V-477H177V300Z" />
<glyph unicode="&#xa7;" glyph-name="section" horiz-adv-x="955" d="M423 -27Q344 -27 277 -14T146 26V201Q171 189 204 176T273 153T350 135T431 128Q496 128 536 142T599 178T628 222T636 261Q636 294 614 320T557 367T476 406T385 444Q352 457 309 477T227
528T163 606T136 717Q136 766 152 805T193 874T248 927T308 966Q237 1001 195 1055T153 1188Q153 1252 179 1302T252 1386T365 1439T512 1457Q636 1457 786 1406L758 1249Q695 1275 636 1292T518 1309Q486 1309 455 1305T398 1288T356 1253T340 1196Q340 1169 351
1149T387 1112T452 1077T549 1037Q593 1020 640 999T728 947T793 869T819 756Q819 662 778 601T661 502Q692 487 722 467T775 420T813 356T828 271Q828 204 801 149T722 55T595 -5T423 -27ZM305 746Q305 712 321 684T367 634T435 593T519 561Q537 570 560 584T604
618T638 665T652 726Q652 760 639 785T599 832T534 871T443 907Q419 898 395 884T350 849T318 803T305 746Z" />
<glyph unicode="&#xa8;" glyph-name="dieresis" horiz-adv-x="816" d="M327 1377V1205H105V1377H327ZM705 1377V1205H483V1377H705Z" />
<glyph unicode="&#xa9;" glyph-name="copyright" horiz-adv-x="1647" d="M477 719Q477 790 496 869T558 1011T672 1114T843 1154Q879 1154 918 1147T993 1120T1059 1069T1108 987L1012 928Q997 963 979 983T939 1013T893 1027T840 1031Q777 1031 735 1003T667
930T630 827T619 718Q619 667 630 610T666 507T734 433T840 405Q868 405 892 408T938 422T978 453T1012 508L1108 449Q1090 400 1060 368T993 316T918 290T843 282Q742 282 672 321T559 424T496 567T477 719ZM93 713Q93 813 119 906T192 1081T305 1230T453 1344T628
1418T824 1445Q924 1445 1017 1419T1192 1345T1339 1231T1454 1083T1528 908T1554 713Q1554 612 1528 519T1454 344T1340 195T1192 81T1018 7T824 -19Q722 -19 629 7T454 81T306 196T192 344T119 518T93 713ZM197 713Q197 584 246 471T380 273T579 139T824 90Q954
90 1068 139T1266 273T1399 471T1448 713Q1448 799 1426 878T1364 1027T1266 1154T1140 1251T990 1314T824 1337Q737 1337 657 1315T508 1252T381 1154T283 1028T220 879T197 713Z" />
<glyph unicode="&#xaa;" glyph-name="ordfeminine" horiz-adv-x="770" d="M317 782Q274 782 236 794T170 831T125 890T108 973Q108 1031 132 1071T197 1138T293 1176T410 1188H499V1225Q498 1253 489 1273T466 1306T432 1325T391 1331Q347 1331 300 1317T216 1278L168
1357Q190 1375 218 1389T279 1413T345 1428T411 1433Q454 1433 492 1420T560 1379T606 1308T624 1205V966Q624 930 624 900T626 847Q627 821 629 800H519Q518 811 515 823Q513 833 510 845T505 871Q489 854 470 838T428 810T378 790T317 782ZM345 891Q395 891 425
909T472 957T494 1021T499 1091Q492 1091 483 1091T463 1092T444 1092T431 1092Q391 1092 356 1086T295 1067T254 1033T239 980Q239 963 244 947T262 919T295 899T345 891Z" />
<glyph unicode="&#xab;" glyph-name="guillemotleft" horiz-adv-x="989" d="M476 495V513L730 900L876 863L670 503L877 141L730 108L476 495ZM95 495V514L347 900L493 863L285 503L494 141L347 107L95 495Z" />
<glyph unicode="&#xac;" glyph-name="logicalnot" horiz-adv-x="1256" d="M1087 771V230H928V612H139V771H1087Z" />
<glyph unicode="&#xae;" glyph-name="registered" horiz-adv-x="1644" d="M553 304V1132H813Q862 1132 914 1123T1008 1089T1078 1019T1105 902Q1105 878 1098 851T1075 795T1033 742T970 697Q1006 687 1029 664T1068 608T1094 538T1112 460T1129 379T1152 304H1009Q984
401 971 467T942 573T897 631T811 649H693V304H553ZM693 1009V771H811Q840 771 867 775T916 793T951 830T964 891Q964 929 951 952T917 988T868 1005T810 1009H693ZM196 714Q196 583 245 470T380 271T578 138T821 89Q951 89 1064 138T1262 271T1395 470T1444 714Q1444
841 1396 954T1264 1153T1066 1287T821 1337Q692 1337 579 1288T380 1154T246 956T196 714ZM92 714Q92 816 118 910T193 1085T308 1232T456 1346T629 1419T821 1445Q921 1445 1014 1419T1189 1346T1336 1232T1450 1084T1524 909T1550 714Q1550 612 1524 519T1450
344T1336 195T1188 81T1014 7T821 -19Q721 -19 629 7T455 80T307 195T193 343T119 518T92 714Z" />
<glyph unicode="&#xaf;" glyph-name="overscore" horiz-adv-x="546" d="M-3 1363H540V1246H-3V1363Z" />
<glyph unicode="&#xb0;" glyph-name="degree" horiz-adv-x="808" d="M98 1092Q98 1156 122 1212T188 1310T285 1376T404 1400Q467 1400 522 1376T620 1310T686 1212T710 1092Q710 1029 686 973T621 876T523 810T404 785Q341 785 286 809T188 875T122 973T98 1092ZM234
1092Q234 1057 247 1027T284 974T338 938T404 925Q440 925 471 938T525 974T561 1027T574 1092Q574 1127 561 1157T524 1211T470 1247T404 1261Q369 1261 338 1248T284 1212T248 1159T234 1092Z" />
<glyph unicode="&#xb1;" glyph-name="plusminus" horiz-adv-x="1214" d="M524 564H133V725H524V1070H688V725H1081V564H688V222H524V564ZM133 -13V147H1081V-13H133Z" />
<glyph unicode="&#xb2;" glyph-name="twosuperior" horiz-adv-x="925" d="M123 1159Q152 1224 185 1270T257 1344T345 1386T454 1399Q521 1399 581 1381T685 1324T756 1227T782 1089Q782 1042 767 994T718 888T627 764T487 612L300 422H804V285H112V425L386 708Q437
761 481 811T558 910T608 1004T627 1093Q627 1123 619 1153T591 1207T538 1247T457 1263Q408 1263 375 1248T320 1211T283 1161T257 1109L123 1159Z" />
<glyph unicode="&#xb3;" glyph-name="threesuperior" horiz-adv-x="933" d="M86 482L203 546Q247 482 313 450T448 418Q488 418 525 430T590 466T635 526T652 610Q652 664 630 699T572 756T490 786T396 795H318V926Q326 925 335 925T354 924Q406 924 455 932T543
961T604 1018T628 1111Q628 1151 614 1180T575 1229T518 1258T451 1268Q418 1268 385 1260T323 1235T269 1194T230 1136L110 1181Q134 1236 172 1277T257 1345T358 1385T464 1399Q526 1399 583 1381T685 1328T757 1240T784 1117Q784 1081 772 1045T735 975T677
914T600 863Q664 842 704 810T767 741T798 669T807 607Q807 535 778 477T698 378T583 315T447 292Q399 292 350 303T255 337T165 396T86 482Z" />
<glyph unicode="&#xb4;" glyph-name="acute" horiz-adv-x="816" d="M249 1165L417 1474H636L380 1165H249Z" />
<glyph unicode="&#xb5;" glyph-name="mu" horiz-adv-x="1137" d="M829 1019H1003V0H852L840 130Q817 100 789 73T726 25T651 -8T563 -21Q492 -21 440 7T347 74Q347 9 348 -48Q348 -72 348 -97T349 -145T350 -186T350 -216V-433H175V1019H350V449Q350 388 358 331T389
230T456 159T570 132Q630 132 678 153T759 219T811 337T829 513V1019Z" />
<glyph unicode="&#xb6;" glyph-name="paragraph" horiz-adv-x="1222" d="M874 -290V1298H671V-290H526V518Q515 517 498 517T470 516Q372 516 297 550T170 644T93 788T66 971Q66 1074 93 1162T177 1313T325 1413T541 1449H1075V1296H1020V-290H874Z" />
<glyph unicode="&#xb7;" glyph-name="middot" horiz-adv-x="510" d="M143 697H367V448H143V697Z" />
<glyph unicode="&#xb8;" glyph-name="cedilla" horiz-adv-x="481" d="M434 -248Q434 -274 424 -307T386 -369T307 -418T175 -439Q130 -439 96 -431T34 -412L60 -313Q80 -321 108 -325T166 -330Q217 -330 249 -311T282 -256Q282 -236 272 -223T246 -203T211 -192T175
-189Q167 -189 161 -189T149 -190L96 -163L208 18H319L248 -97Q345 -111 389 -146T434 -248Z" />
<glyph unicode="&#xb9;" glyph-name="onesuperior" horiz-adv-x="632" d="M302 849Q302 856 302 875T302 919T303 975T304 1037Q305 1109 306 1196Q255 1153 199 1116T81 1044L44 1182Q61 1191 85 1207T137 1242T192 1281T246 1320T291 1354T321 1377H452V285H302V849Z" />
<glyph unicode="&#xba;" glyph-name="ordmasculine" horiz-adv-x="753" d="M681 1110Q681 1036 660 975T600 871T504 805T376 781Q301 781 245 806T150 874T93 978T73 1107Q73 1177 92 1237T149 1340T244 1409T379 1434Q461 1434 518 1406T612 1333T664 1229T681
1110ZM208 1111Q208 1066 216 1026T244 956T296 907T376 889Q412 889 442 902T495 942T531 1012T544 1112Q544 1157 536 1196T510 1265T459 1312T379 1329Q333 1329 301 1313T248 1267T218 1198T208 1111Z" />
<glyph unicode="&#xbb;" glyph-name="guillemotright" horiz-adv-x="991" d="M322 502L114 863L260 900L514 511V492L260 107L116 141L322 502ZM705 502L497 863L643 900L898 511L896 492L642 107L498 141L705 502Z" />
<glyph unicode="&#xbc;" glyph-name="onequarter" horiz-adv-x="1966" d="M1197 1448L712 -18H551L1040 1448H1197ZM317 849Q317 856 317 875T317 919T318 975T319 1037Q320 1109 321 1196Q270 1153 214 1116T96 1044L59 1182Q76 1191 100 1207T152 1242T207 1281T261
1320T306 1354T336 1377H467V285H317V849ZM1581 -3V235H1088V397L1570 1102H1731V374H1888V235H1731V-3H1581ZM1230 374H1581V641L1584 929L1461 724L1230 374Z" />
<glyph unicode="&#xbd;" glyph-name="onehalf" horiz-adv-x="1976" d="M1202 1448L717 -18H556L1045 1448H1202ZM317 849Q317 856 317 875T317 919T318 975T319 1037Q320 1109 321 1196Q270 1153 214 1116T96 1044L59 1182Q76 1191 100 1207T152 1242T207 1281T261
1320T306 1354T336 1377H467V285H317V849ZM1189 871Q1218 936 1251 982T1323 1056T1411 1098T1520 1111Q1587 1111 1647 1093T1751 1036T1822 939T1848 801Q1848 754 1833 706T1784 600T1693 476T1553 324L1366 134H1870V-3H1178V137L1452 420Q1503 473 1547 523T1624
622T1674 716T1693 805Q1693 835 1685 865T1657 919T1604 959T1523 975Q1474 975 1441 960T1386 923T1349 873T1323 821L1189 871Z" />
<glyph unicode="&#xbe;" glyph-name="threequarters" horiz-adv-x="2211" d="M1457 1448L972 -18H811L1300 1448H1457ZM1836 -2V236H1343V398L1825 1103H1986V375H2143V236H1986V-2H1836ZM1485 375H1836V642L1839 930L1716 725L1485 375ZM86 482L203 546Q247 482
313 450T448 418Q488 418 525 430T590 466T635 526T652 610Q652 664 630 699T572 756T490 786T396 795H318V926Q326 925 335 925T354 924Q406 924 455 932T543 961T604 1018T628 1111Q628 1151 614 1180T575 1229T518 1258T451 1268Q418 1268 385 1260T323 1235T269
1194T230 1136L110 1181Q134 1236 172 1277T257 1345T358 1385T464 1399Q526 1399 583 1381T685 1328T757 1240T784 1117Q784 1081 772 1045T735 975T677 914T600 863Q664 842 704 810T767 741T798 669T807 607Q807 535 778 477T698 378T583 315T447 292Q399 292
350 303T255 337T165 396T86 482Z" />
<glyph unicode="&#xbf;" glyph-name="questiondown" horiz-adv-x="882" d="M599 1075V996Q599 946 595 906T577 829T538 756T470 678Q427 635 391 596T329 518T289 442T274 361Q274 302 298 264T359 205T436 175T510 166Q555 166 624 180T787 236L817 65Q757 39
678 18T504 -4Q406 -4 327 20T193 90T109 202T79 352Q79 415 93 463T134 554T204 641T302 738Q345 778 372 806T414 861T434 922T440 1005V1075H599ZM626 1202H413V1413H626V1202Z" />
<glyph unicode="&#xc0;" glyph-name="Agrave" horiz-adv-x="1295" d="M19 64L553 1412H746L1273 59V0H1084L932 396H349L195 0H19V64ZM547 928L414 568H869L739 928L644 1198L547 928ZM719 1578L446 1887H676L848 1578H719Z" />
<glyph unicode="&#xc1;" glyph-name="Aacute" horiz-adv-x="1295" d="M19 64L553 1412H746L1273 59V0H1084L932 396H349L195 0H19V64ZM547 928L414 568H869L739 928L644 1198L547 928ZM454 1579L622 1888H841L585 1579H454Z" />
<glyph unicode="&#xc2;" glyph-name="Acircumflex" horiz-adv-x="1295" d="M19 64L553 1412H746L1273 59V0H1084L932 396H349L195 0H19V64ZM547 928L414 568H869L739 928L644 1198L547 928ZM808 1601L645 1827L479 1601H298L558 1959H740L996 1601H808Z" />
<glyph unicode="&#xc3;" glyph-name="Atilde" horiz-adv-x="1295" d="M19 64L553 1412H746L1273 59V0H1084L932 396H349L195 0H19V64ZM547 928L414 568H869L739 928L644 1198L547 928ZM768 1607Q741 1607 707 1619T637 1645T571 1671T520 1683Q488 1683 470 1664T436
1597H340Q340 1648 355 1690T395 1763T455 1811T526 1828Q557 1828 589 1817T653 1792T715 1767T773 1755Q808 1755 827 1777T854 1842H954Q951 1780 935 1736T894 1663T836 1621T768 1607Z" />
<glyph unicode="&#xc4;" glyph-name="Adieresis" horiz-adv-x="1295" d="M19 64L553 1412H746L1273 59V0H1084L932 396H349L195 0H19V64ZM547 928L414 568H869L739 928L644 1198L547 928ZM569 1791V1619H347V1791H569ZM947 1791V1619H725V1791H947Z" />
<glyph unicode="&#xc5;" glyph-name="Aring" horiz-adv-x="1295" d="M19 64L553 1412H746L1273 59V0H1084L932 396H349L195 0H19V64ZM547 928L414 568H869L739 928L644 1198L547 928ZM645 1919Q586 1919 543 1880T500 1777Q500 1719 540 1680T645 1640Q708 1640
748 1679T788 1777Q788 1840 745 1879T643 1919H645ZM644 2012Q694 2012 739 1995T815 1947T863 1872T881 1777Q881 1726 864 1684T815 1611T739 1563T644 1546Q594 1546 549 1563T473 1611T425 1684T407 1777Q407 1828 424 1871T473 1946T549 1995T644 2012Z"
/>
<glyph unicode="&#xc6;" glyph-name="AE" horiz-adv-x="1814" d="M960 0L924 410H389L176 0H-33L704 1412H1683V1237H1042L1081 820H1651V645H1098L1142 177H1694V0H960ZM472 581H907L848 1245H807L472 581Z" />
<glyph unicode="&#xc7;" glyph-name="Ccedilla" horiz-adv-x="1240" d="M1166 93Q1046 32 938 3T734 -26Q628 -26 541 2T384 81T263 199T177 348T126 516T109 695Q109 788 126 879T179 1054T266 1208T388 1331T542 1412T730 1442Q799 1442 863 1426T984 1375T1084
1283T1156 1143L981 1101Q966 1150 941 1182T883 1233T813 1260T733 1268Q632 1268 555 1221T424 1095T344 913T317 697Q317 594 343 496T423 320T559 196T753 149Q828 149 914 173T1100 247L1166 93ZM900 -248Q900 -274 890 -307T852 -369T773 -418T641 -439Q596
-439 562 -431T500 -412L526 -313Q546 -321 574 -325T632 -330Q683 -330 715 -311T748 -256Q748 -236 738 -223T712 -203T677 -192T641 -189Q633 -189 627 -189T615 -190L562 -163L674 18H785L714 -97Q811 -111 855 -146T900 -248Z" />
<glyph unicode="&#xc8;" glyph-name="Egrave" horiz-adv-x="1138" d="M1017 0H190V1412H1008V1237H386V818H973V643H386V179H1017V0ZM660 1578L387 1887H617L789 1578H660Z" />
<glyph unicode="&#xc9;" glyph-name="Eacute" horiz-adv-x="1138" d="M1017 0H190V1412H1008V1237H386V818H973V643H386V179H1017V0ZM394 1579L562 1888H781L525 1579H394Z" />
<glyph unicode="&#xca;" glyph-name="Ecircumflex" horiz-adv-x="1138" d="M1017 0H190V1412H1008V1237H386V818H973V643H386V179H1017V0ZM749 1601L586 1827L420 1601H239L499 1959H681L937 1601H749Z" />
<glyph unicode="&#xcb;" glyph-name="Edieresis" horiz-adv-x="1138" d="M1017 0H190V1412H1008V1237H386V818H973V643H386V179H1017V0ZM510 1791V1619H288V1791H510ZM888 1791V1619H666V1791H888Z" />
<glyph unicode="&#xcc;" glyph-name="Igrave" horiz-adv-x="577" d="M191 0V1412H387V0H191ZM366 1578L93 1887H323L495 1578H366Z" />
<glyph unicode="&#xcd;" glyph-name="Iacute" horiz-adv-x="577" d="M191 0V1412H387V0H191ZM100 1579L268 1888H487L231 1579H100Z" />
<glyph unicode="&#xce;" glyph-name="Icircumflex" horiz-adv-x="578" d="M191 0V1412H387V0H191ZM455 1601L292 1827L126 1601H-55L205 1959H387L643 1601H455Z" />
<glyph unicode="&#xcf;" glyph-name="Idieresis" horiz-adv-x="578" d="M191 0V1412H387V0H191ZM216 1791V1619H-6V1791H216ZM594 1791V1619H372V1791H594Z" />
<glyph unicode="&#xd0;" glyph-name="Eth" horiz-adv-x="1403" d="M73 640V808H192V1412H674Q778 1412 864 1385T1020 1311T1140 1199T1225 1058T1277 897T1294 725Q1294 564 1253 431T1130 202T929 53T651 0H192V640H73ZM389 1240V808H565V640H389V171H637Q749
171 833 212T972 325T1056 497T1084 713Q1084 812 1058 907T981 1076T853 1195T677 1240H389Z" />
<glyph unicode="&#xd1;" glyph-name="Ntilde" horiz-adv-x="1487" d="M191 0V1412H437L1096 305L1118 310Q1117 342 1117 383T1115 469T1114 558T1113 639T1112 704T1112 742V1412H1296V0H1059L387 1123L366 1118Q367 1085 367 1043T369 956T370 865T371 781T372
715T372 675V0H191ZM868 1607Q841 1607 807 1619T737 1645T671 1671T620 1683Q588 1683 570 1664T536 1597H440Q440 1648 455 1690T495 1763T555 1811T626 1828Q657 1828 689 1817T753 1792T815 1767T873 1755Q908 1755 927 1777T954 1842H1054Q1051 1780 1035
1736T994 1663T936 1621T868 1607Z" />
<glyph unicode="&#xd2;" glyph-name="Ograve" horiz-adv-x="1483" d="M742 -26Q626 -26 535 1T373 78T254 195T173 344T127 516T112 703Q112 801 127 894T175 1069T258 1219T379 1337T539 1414T742 1442Q854 1442 944 1415T1105 1338T1225 1220T1308 1069T1355
894T1371 703Q1371 607 1357 516T1311 344T1231 195T1111 78T950 2T742 -26ZM742 149Q866 149 947 194T1077 316T1144 494T1164 708Q1164 825 1144 927T1074 1105T944 1224T742 1268Q621 1268 540 1225T410 1105T340 927T319 708Q319 595 338 494T406 316T535 194T742
149ZM817 1578L544 1887H774L946 1578H817Z" />
<glyph unicode="&#xd3;" glyph-name="Oacute" horiz-adv-x="1483" d="M742 -26Q626 -26 535 1T373 78T254 195T173 344T127 516T112 703Q112 801 127 894T175 1069T258 1219T379 1337T539 1414T742 1442Q854 1442 944 1415T1105 1338T1225 1220T1308 1069T1355
894T1371 703Q1371 607 1357 516T1311 344T1231 195T1111 78T950 2T742 -26ZM742 149Q866 149 947 194T1077 316T1144 494T1164 708Q1164 825 1144 927T1074 1105T944 1224T742 1268Q621 1268 540 1225T410 1105T340 927T319 708Q319 595 338 494T406 316T535 194T742
149ZM551 1579L719 1888H938L682 1579H551Z" />
<glyph unicode="&#xd4;" glyph-name="Ocircumflex" horiz-adv-x="1483" d="M742 -26Q626 -26 535 1T373 78T254 195T173 344T127 516T112 703Q112 801 127 894T175 1069T258 1219T379 1337T539 1414T742 1442Q854 1442 944 1415T1105 1338T1225 1220T1308 1069T1355
894T1371 703Q1371 607 1357 516T1311 344T1231 195T1111 78T950 2T742 -26ZM742 149Q866 149 947 194T1077 316T1144 494T1164 708Q1164 825 1144 927T1074 1105T944 1224T742 1268Q621 1268 540 1225T410 1105T340 927T319 708Q319 595 338 494T406 316T535 194T742
149ZM906 1601L743 1827L577 1601H396L656 1959H838L1094 1601H906Z" />
<glyph unicode="&#xd5;" glyph-name="Otilde" horiz-adv-x="1483" d="M742 -26Q626 -26 535 1T373 78T254 195T173 344T127 516T112 703Q112 801 127 894T175 1069T258 1219T379 1337T539 1414T742 1442Q854 1442 944 1415T1105 1338T1225 1220T1308 1069T1355
894T1371 703Q1371 607 1357 516T1311 344T1231 195T1111 78T950 2T742 -26ZM742 149Q866 149 947 194T1077 316T1144 494T1164 708Q1164 825 1144 927T1074 1105T944 1224T742 1268Q621 1268 540 1225T410 1105T340 927T319 708Q319 595 338 494T406 316T535 194T742
149ZM866 1607Q839 1607 805 1619T735 1645T669 1671T618 1683Q586 1683 568 1664T534 1597H438Q438 1648 453 1690T493 1763T553 1811T624 1828Q655 1828 687 1817T751 1792T813 1767T871 1755Q906 1755 925 1777T952 1842H1052Q1049 1780 1033 1736T992 1663T934
1621T866 1607Z" />
<glyph unicode="&#xd6;" glyph-name="Odieresis" horiz-adv-x="1483" d="M742 -26Q626 -26 535 1T373 78T254 195T173 344T127 516T112 703Q112 801 127 894T175 1069T258 1219T379 1337T539 1414T742 1442Q854 1442 944 1415T1105 1338T1225 1220T1308 1069T1355
894T1371 703Q1371 607 1357 516T1311 344T1231 195T1111 78T950 2T742 -26ZM742 149Q866 149 947 194T1077 316T1144 494T1164 708Q1164 825 1144 927T1074 1105T944 1224T742 1268Q621 1268 540 1225T410 1105T340 927T319 708Q319 595 338 494T406 316T535 194T742
149ZM667 1791V1619H445V1791H667ZM1045 1791V1619H823V1791H1045Z" />
<glyph unicode="&#xd7;" glyph-name="multiply" horiz-adv-x="1038" d="M516 470L239 194L127 305L405 581L126 860L243 976L521 699L799 976L911 865L632 587L910 311L792 194L516 470Z" />
<glyph unicode="&#xd8;" glyph-name="Oslash" horiz-adv-x="1485" d="M1371 714Q1371 563 1336 429T1225 193T1028 33T737 -26Q639 -26 560 -7T415 47L324 -103L195 -69L311 123Q259 172 222 235T160 372T125 529T113 703Q113 771 121 844T150 989T201 1126T280
1248H279Q327 1300 383 1337T499 1397T623 1431T747 1442Q838 1442 916 1423T1062 1368L1152 1517L1283 1482L1167 1291Q1267 1197 1319 1053T1371 714ZM741 149Q831 149 911 184T1049 284Q1083 328 1104 383T1138 496T1156 611T1161 715Q1161 841 1138 943T1064
1120L513 210Q562 179 620 164T741 149ZM320 708Q320 593 342 489T419 302L968 1212Q924 1239 870 1253T748 1268Q627 1268 545 1225T413 1105T342 927T320 708Z" />
<glyph unicode="&#xd9;" glyph-name="Ugrave" horiz-adv-x="1442" d="M1267 1412V524Q1267 400 1228 299T1116 125T944 14T722 -26Q601 -26 501 9T328 114T215 288T175 531V1412H371V519Q371 408 402 336T484 223T598 166T726 150Q802 150 857 167T951 214T1014
281T1051 361T1069 445T1074 524V1412H1267ZM795 1559L522 1868H752L924 1559H795Z" />
<glyph unicode="&#xda;" glyph-name="Uacute" horiz-adv-x="1442" d="M1267 1412V524Q1267 400 1228 299T1116 125T944 14T722 -26Q601 -26 501 9T328 114T215 288T175 531V1412H371V519Q371 408 402 336T484 223T598 166T726 150Q802 150 857 167T951 214T1014
281T1051 361T1069 445T1074 524V1412H1267ZM532 1560L700 1869H919L663 1560H532Z" />
<glyph unicode="&#xdb;" glyph-name="Ucircumflex" horiz-adv-x="1442" d="M1267 1412V524Q1267 400 1228 299T1116 125T944 14T722 -26Q601 -26 501 9T328 114T215 288T175 531V1412H371V519Q371 408 402 336T484 223T598 166T726 150Q802 150 857 167T951 214T1014
281T1051 361T1069 445T1074 524V1412H1267ZM884 1582L721 1808L555 1582H374L634 1940H816L1072 1582H884Z" />
<glyph unicode="&#xdc;" glyph-name="Udieresis" horiz-adv-x="1442" d="M1267 1412V524Q1267 400 1228 299T1116 125T944 14T722 -26Q601 -26 501 9T328 114T215 288T175 531V1412H371V519Q371 408 402 336T484 223T598 166T726 150Q802 150 857 167T951 214T1014
281T1051 361T1069 445T1074 524V1412H1267ZM647 1772V1600H425V1772H647ZM1025 1772V1600H803V1772H1025Z" />
<glyph unicode="&#xdd;" glyph-name="Yacute" horiz-adv-x="1174" d="M594 723L963 1412H1183L687 547V0H487V547L-9 1412H223L594 723ZM389 1560L557 1869H776L520 1560H389Z" />
<glyph unicode="&#xde;" glyph-name="Thorn" horiz-adv-x="1160" d="M189 1457H385V1269H606Q712 1269 802 1248T959 1180T1062 1057T1099 868Q1099 755 1064 675T960 544T794 468T569 444H385V0H189V1457ZM385 614H480Q530 614 580 615T677 623T762 645T831 689T877
760T894 868Q894 941 869 986T803 1056T709 1091T599 1100H385V614Z" />
<glyph unicode="&#xdf;" glyph-name="germandbls" horiz-adv-x="1200" d="M997 1170Q997 1131 987 1100T960 1041T921 992T874 949Q837 918 812 897T772 859T750 828T743 798Q743 767 766 742T845 681Q895 648 947 613T1041 534T1110 438T1137 318Q1137 234 1108
171T1027 67T908 4T760 -17Q709 -17 660 -8T570 23T499 84T455 181L561 262Q590 202 643 168T764 134Q816 134 851 148T907 186T938 238T948 297Q948 340 932 372T887 431T819 484T733 538Q685 568 652 595T597 650T565 710T555 778Q555 821 567 853T600 912T648
962T705 1008Q726 1024 745 1039T778 1072T801 1111T809 1161Q809 1234 753 1277T585 1321Q528 1321 484 1309T409 1268T363 1194T347 1081V0H159V1083Q159 1162 179 1231T248 1353T380 1436T590 1467Q668 1467 741 1451T871 1400T962 1309T997 1170Z" />
<glyph unicode="&#xe0;" glyph-name="agrave" horiz-adv-x="1039" d="M154 919Q194 946 240 968T336 1006T436 1032T533 1041Q605 1041 669 1023T782 965T859 863T887 713V301Q887 233 890 178T898 83Q903 36 910 0H741Q738 17 736 63T731 166Q698 110 659 75T578
18T492 -11T405 -19Q330 -19 269 1T166 61T100 155T77 279Q77 312 84 349T109 422T154 491T223 550Q267 578 320 593T429 616T543 625T653 627H707V701Q707 756 693 793T654 853T596 886T526 896Q485 896 441 887T355 862T276 829T209 793L154 919ZM646 210Q665
232 676 259T694 320T703 396T706 491H677Q608 491 535 486T400 460T299 396T259 276Q259 248 268 222T296 174T345 140T417 127Q489 127 550 148T646 210ZM578 1164L305 1473H535L707 1164H578Z" />
<glyph unicode="&#xe1;" glyph-name="aacute" horiz-adv-x="1039" d="M154 919Q194 946 240 968T336 1006T436 1032T533 1041Q605 1041 669 1023T782 965T859 863T887 713V301Q887 233 890 178T898 83Q903 36 910 0H741Q738 17 736 63T731 166Q698 110 659 75T578
18T492 -11T405 -19Q330 -19 269 1T166 61T100 155T77 279Q77 312 84 349T109 422T154 491T223 550Q267 578 320 593T429 616T543 625T653 627H707V701Q707 756 693 793T654 853T596 886T526 896Q485 896 441 887T355 862T276 829T209 793L154 919ZM646 210Q665
232 676 259T694 320T703 396T706 491H677Q608 491 535 486T400 460T299 396T259 276Q259 248 268 222T296 174T345 140T417 127Q489 127 550 148T646 210ZM313 1165L481 1474H700L444 1165H313Z" />
<glyph unicode="&#xe2;" glyph-name="acircumflex" horiz-adv-x="1039" d="M154 919Q194 946 240 968T336 1006T436 1032T533 1041Q605 1041 669 1023T782 965T859 863T887 713V301Q887 233 890 178T898 83Q903 36 910 0H741Q738 17 736 63T731 166Q698 110 659
75T578 18T492 -11T405 -19Q330 -19 269 1T166 61T100 155T77 279Q77 312 84 349T109 422T154 491T223 550Q267 578 320 593T429 616T543 625T653 627H707V701Q707 756 693 793T654 853T596 886T526 896Q485 896 441 887T355 862T276 829T209 793L154 919ZM646
210Q665 232 676 259T694 320T703 396T706 491H677Q608 491 535 486T400 460T299 396T259 276Q259 248 268 222T296 174T345 140T417 127Q489 127 550 148T646 210ZM667 1187L504 1413L338 1187H157L417 1545H599L855 1187H667Z" />
<glyph unicode="&#xe3;" glyph-name="atilde" horiz-adv-x="1039" d="M154 919Q194 946 240 968T336 1006T436 1032T533 1041Q605 1041 669 1023T782 965T859 863T887 713V301Q887 233 890 178T898 83Q903 36 910 0H741Q738 17 736 63T731 166Q698 110 659 75T578
18T492 -11T405 -19Q330 -19 269 1T166 61T100 155T77 279Q77 312 84 349T109 422T154 491T223 550Q267 578 320 593T429 616T543 625T653 627H707V701Q707 756 693 793T654 853T596 886T526 896Q485 896 441 887T355 862T276 829T209 793L154 919ZM646 210Q665
232 676 259T694 320T703 396T706 491H677Q608 491 535 486T400 460T299 396T259 276Q259 248 268 222T296 174T345 140T417 127Q489 127 550 148T646 210ZM627 1193Q600 1193 566 1205T496 1231T430 1257T379 1269Q347 1269 329 1250T295 1183H199Q199 1234 214
1276T254 1349T314 1397T385 1414Q416 1414 448 1403T512 1378T574 1353T632 1341Q667 1341 686 1363T713 1428H813Q810 1366 794 1322T753 1249T695 1207T627 1193Z" />
<glyph unicode="&#xe4;" glyph-name="adieresis" horiz-adv-x="1039" d="M154 919Q194 946 240 968T336 1006T436 1032T533 1041Q605 1041 669 1023T782 965T859 863T887 713V301Q887 233 890 178T898 83Q903 36 910 0H741Q738 17 736 63T731 166Q698 110 659
75T578 18T492 -11T405 -19Q330 -19 269 1T166 61T100 155T77 279Q77 312 84 349T109 422T154 491T223 550Q267 578 320 593T429 616T543 625T653 627H707V701Q707 756 693 793T654 853T596 886T526 896Q485 896 441 887T355 862T276 829T209 793L154 919ZM646
210Q665 232 676 259T694 320T703 396T706 491H677Q608 491 535 486T400 460T299 396T259 276Q259 248 268 222T296 174T345 140T417 127Q489 127 550 148T646 210ZM428 1377V1205H206V1377H428ZM806 1377V1205H584V1377H806Z" />
<glyph unicode="&#xe5;" glyph-name="aring" horiz-adv-x="1039" d="M154 919Q194 946 240 968T336 1006T436 1032T533 1041Q605 1041 669 1023T782 965T859 863T887 713V301Q887 233 890 178T898 83Q903 36 910 0H741Q738 17 736 63T731 166Q698 110 659 75T578
18T492 -11T405 -19Q330 -19 269 1T166 61T100 155T77 279Q77 312 84 349T109 422T154 491T223 550Q267 578 320 593T429 616T543 625T653 627H707V701Q707 756 693 793T654 853T596 886T526 896Q485 896 441 887T355 862T276 829T209 793L154 919ZM646 210Q665
232 676 259T694 320T703 396T706 491H677Q608 491 535 486T400 460T299 396T259 276Q259 248 268 222T296 174T345 140T417 127Q489 127 550 148T646 210ZM504 1505Q445 1505 402 1466T359 1363Q359 1305 399 1266T504 1226Q567 1226 607 1265T647 1363Q647 1426
604 1465T502 1505H504ZM503 1598Q553 1598 598 1581T674 1533T722 1458T740 1363Q740 1312 723 1270T674 1197T598 1149T503 1132Q453 1132 408 1149T332 1197T284 1270T266 1363Q266 1414 283 1457T332 1532T408 1581T503 1598Z" />
<glyph unicode="&#xe6;" glyph-name="ae" horiz-adv-x="1658" d="M1529 116Q1497 90 1462 65T1385 21T1292 -10T1179 -22Q1132 -22 1079 -11T975 28T879 102T804 216Q774 148 728 102T629 28T517 -13T405 -26Q329 -26 268 -5T165 55T99 151T76 279Q76 346 98 398T158
489T248 556T358 600T480 624T603 632Q630 632 655 631T706 627V688Q706 755 692 797T651 864T587 898T506 907Q467 907 433 899T368 878T307 846T247 808Q223 836 198 863T149 916Q191 950 232 977T316 1022T406 1050T507 1060Q619 1060 699 1021T833 893Q864
935 902 966T982 1017T1067 1048T1152 1059Q1260 1059 1338 1021T1466 917T1541 764T1565 580V480H898Q899 409 915 347T966 239T1053 166T1183 139Q1271 139 1342 165T1480 246L1529 116ZM1148 904Q1052 904 986 839T905 647V631H1368Q1366 685 1356 734T1320
821T1253 881T1148 904ZM645 217Q663 240 674 266T692 324T702 397T705 491H676Q640 491 596 490T507 483T419 465T343 431T289 375T269 292Q269 260 279 231T310 180T366 145T448 131Q511 131 562 152T645 217Z" />
<glyph unicode="&#xe7;" glyph-name="ccedilla" horiz-adv-x="961" d="M863 87Q786 33 699 7T531 -19Q448 -19 370 12T232 109T136 277T99 522Q99 655 139 752T243 914T387 1009T549 1041Q606 1041 661 1026T764 978T846 892T897 763L738 737Q727 782 708 812T664
861T611 887T552 895Q504 895 457 874T371 808T308 694T284 529Q284 434 299 360T346 234T429 155T548 127Q590 127 627 134T697 154T756 183T806 216L863 87ZM711 -248Q711 -274 701 -307T663 -369T584 -418T452 -439Q407 -439 373 -431T311 -412L337 -313Q357
-321 385 -325T443 -330Q494 -330 526 -311T559 -256Q559 -236 549 -223T523 -203T488 -192T452 -189Q444 -189 438 -189T426 -190L373 -163L485 18H596L525 -97Q622 -111 666 -146T711 -248Z" />
<glyph unicode="&#xe8;" glyph-name="egrave" horiz-adv-x="1043" d="M925 83Q893 64 858 46T778 13T680 -10T556 -19Q451 -19 367 16T223 118T131 284T99 510Q99 616 125 712T204 881T341 997T538 1041Q646 1041 724 1003T852 901T927 750T951 566V483H285Q286
414 300 350T347 236T431 157T560 127Q652 127 726 150T868 215L925 83ZM534 895Q486 895 445 881T372 836T320 759T292 648Q291 643 291 634T291 615H755Q753 670 742 721T706 810T639 872T534 895ZM591 1164L318 1473H548L720 1164H591Z" />
<glyph unicode="&#xe9;" glyph-name="eacute" horiz-adv-x="1043" d="M925 83Q893 64 858 46T778 13T680 -10T556 -19Q451 -19 367 16T223 118T131 284T99 510Q99 616 125 712T204 881T341 997T538 1041Q646 1041 724 1003T852 901T927 750T951 566V483H285Q286
414 300 350T347 236T431 157T560 127Q652 127 726 150T868 215L925 83ZM534 895Q486 895 445 881T372 836T320 759T292 648Q291 643 291 634T291 615H755Q753 670 742 721T706 810T639 872T534 895ZM328 1165L496 1474H715L459 1165H328Z" />
<glyph unicode="&#xea;" glyph-name="ecircumflex" horiz-adv-x="1043" d="M925 83Q893 64 858 46T778 13T680 -10T556 -19Q451 -19 367 16T223 118T131 284T99 510Q99 616 125 712T204 881T341 997T538 1041Q646 1041 724 1003T852 901T927 750T951 566V483H285Q286
414 300 350T347 236T431 157T560 127Q652 127 726 150T868 215L925 83ZM534 895Q486 895 445 881T372 836T320 759T292 648Q291 643 291 634T291 615H755Q753 670 742 721T706 810T639 872T534 895ZM680 1187L517 1413L351 1187H170L430 1545H612L868 1187H680Z"
/>
<glyph unicode="&#xeb;" glyph-name="edieresis" horiz-adv-x="1043" d="M925 83Q893 64 858 46T778 13T680 -10T556 -19Q451 -19 367 16T223 118T131 284T99 510Q99 616 125 712T204 881T341 997T538 1041Q646 1041 724 1003T852 901T927 750T951 566V483H285Q286
414 300 350T347 236T431 157T560 127Q652 127 726 150T868 215L925 83ZM534 895Q486 895 445 881T372 836T320 759T292 648Q291 643 291 634T291 615H755Q753 670 742 721T706 810T639 872T534 895ZM443 1377V1205H221V1377H443ZM821 1377V1205H599V1377H821Z"
/>
<glyph unicode="&#xec;" glyph-name="igrave" horiz-adv-x="497" d="M576 1164L303 1473H533L705 1164H576ZM155 1019H339V0H155V1019Z" />
<glyph unicode="&#xed;" glyph-name="iacute" horiz-adv-x="497" d="M57 1165L225 1474H444L188 1165H57ZM155 1019H339V0H155V1019Z" />
<glyph unicode="&#xee;" glyph-name="icircumflex" horiz-adv-x="498" d="M155 1019H339V0H155V1019ZM409 1187L246 1413L80 1187H-101L159 1545H341L597 1187H409Z" />
<glyph unicode="&#xef;" glyph-name="idieresis" horiz-adv-x="497" d="M172 1377V1205H-50V1377H172ZM550 1377V1205H328V1377H550ZM155 1019H339V0H155V1019Z" />
<glyph unicode="&#xf0;" glyph-name="eth" horiz-adv-x="1102" d="M510 1076L697 1145Q648 1208 587 1237T453 1267Q401 1267 337 1252T204 1206L151 1328Q235 1368 314 1388T465 1408Q577 1408 675 1354T843 1202L1045 1280L1078 1173L896 1106Q977 918 977 643Q977
512 959 412T908 238T832 114T736 34T627 -9T512 -22Q423 -22 345 6T207 92T114 234T79 435Q79 539 110 618T196 752T325 833T486 861Q669 861 798 702Q798 816 786 898T749 1048Q732 1043 699 1031T630 1004Q590 988 543 970L510 1076ZM518 723Q457 723 408 703T325
646T273 556T254 436Q254 364 272 306T323 207T405 144T513 122Q573 122 623 147T710 216T767 320T788 449Q788 506 769 555T715 642T630 701T518 723Z" />
<glyph unicode="&#xf1;" glyph-name="ntilde" horiz-adv-x="1195" d="M862 0V660Q862 773 807 834T650 895Q529 895 461 812T392 568V0H203V875H51V1024H378L388 874Q418 915 449 946T517 999T598 1031T696 1042Q751 1042 812 1026T926 968T1013 856T1048 678V0H862ZM745
1193Q718 1193 684 1205T614 1231T548 1257T497 1269Q465 1269 447 1250T413 1183H317Q317 1234 332 1276T372 1349T432 1397T503 1414Q534 1414 566 1403T630 1378T692 1353T750 1341Q785 1341 804 1363T831 1428H931Q928 1366 912 1322T871 1249T813 1207T745
1193Z" />
<glyph unicode="&#xf2;" glyph-name="ograve" horiz-adv-x="1129" d="M1031 512Q1031 395 1001 298T911 130T763 20T560 -19Q451 -19 365 19T220 126T130 291T98 503Q98 613 125 710T209 881T357 998T572 1041Q695 1041 782 997T924 878T1005 709T1031 512ZM284
504Q284 421 300 352T349 233T436 155T564 127Q624 127 675 148T764 216T823 335T844 508Q844 695 774 795T570 895Q514 895 463 874T371 805T308 683T284 504ZM642 1164L369 1473H599L771 1164H642Z" />
<glyph unicode="&#xf3;" glyph-name="oacute" horiz-adv-x="1129" d="M1031 512Q1031 395 1001 298T911 130T763 20T560 -19Q451 -19 365 19T220 126T130 291T98 503Q98 613 125 710T209 881T357 998T572 1041Q695 1041 782 997T924 878T1005 709T1031 512ZM284
504Q284 421 300 352T349 233T436 155T564 127Q624 127 675 148T764 216T823 335T844 508Q844 695 774 795T570 895Q514 895 463 874T371 805T308 683T284 504ZM378 1165L546 1474H765L509 1165H378Z" />
<glyph unicode="&#xf4;" glyph-name="ocircumflex" horiz-adv-x="1129" d="M1031 512Q1031 395 1001 298T911 130T763 20T560 -19Q451 -19 365 19T220 126T130 291T98 503Q98 613 125 710T209 881T357 998T572 1041Q695 1041 782 997T924 878T1005 709T1031 512ZM284
504Q284 421 300 352T349 233T436 155T564 127Q624 127 675 148T764 216T823 335T844 508Q844 695 774 795T570 895Q514 895 463 874T371 805T308 683T284 504ZM731 1187L568 1413L402 1187H221L481 1545H663L919 1187H731Z" />
<glyph unicode="&#xf5;" glyph-name="otilde" horiz-adv-x="1129" d="M1031 512Q1031 395 1001 298T911 130T763 20T560 -19Q451 -19 365 19T220 126T130 291T98 503Q98 613 125 710T209 881T357 998T572 1041Q695 1041 782 997T924 878T1005 709T1031 512ZM284
504Q284 421 300 352T349 233T436 155T564 127Q624 127 675 148T764 216T823 335T844 508Q844 695 774 795T570 895Q514 895 463 874T371 805T308 683T284 504ZM692 1193Q665 1193 631 1205T561 1231T495 1257T444 1269Q412 1269 394 1250T360 1183H264Q264 1234
279 1276T319 1349T379 1397T450 1414Q481 1414 513 1403T577 1378T639 1353T697 1341Q732 1341 751 1363T778 1428H878Q875 1366 859 1322T818 1249T760 1207T692 1193Z" />
<glyph unicode="&#xf6;" glyph-name="odieresis" horiz-adv-x="1129" d="M1031 512Q1031 395 1001 298T911 130T763 20T560 -19Q451 -19 365 19T220 126T130 291T98 503Q98 613 125 710T209 881T357 998T572 1041Q695 1041 782 997T924 878T1005 709T1031 512ZM284
504Q284 421 300 352T349 233T436 155T564 127Q624 127 675 148T764 216T823 335T844 508Q844 695 774 795T570 895Q514 895 463 874T371 805T308 683T284 504ZM494 1377V1205H272V1377H494ZM872 1377V1205H650V1377H872Z" />
<glyph unicode="&#xf7;" glyph-name="divide" horiz-adv-x="1206" d="M129 675H1077V513H129V675ZM489 1053H720V814H489V1053ZM489 366H720V127H489V366Z" />
<glyph unicode="&#xf8;" glyph-name="oslash" horiz-adv-x="1129" d="M1031 512Q1031 395 1001 298T911 130T763 20T560 -19Q500 -19 448 -8T349 26L262 -119L133 -85L244 99Q172 168 135 271T98 503Q98 613 125 710T209 881T357 998T572 1041Q635 1041 687 1029T784
995L890 1171L1021 1136L889 918Q926 880 953 834T997 735T1022 627T1031 512ZM284 504Q284 429 296 366T337 253L703 861Q644 895 570 895Q514 895 463 874T371 805T308 683T284 504ZM564 127Q624 127 675 148T764 216T823 335T844 508Q844 664 794 761L429 158Q486
127 564 127Z" />
<glyph unicode="&#xf9;" glyph-name="ugrave" horiz-adv-x="1147" d="M846 0Q842 17 838 42Q835 63 832 94T825 168Q787 77 707 29T523 -19Q334 -19 241 80T148 367V1024H334V366Q334 317 343 274T376 198T437 146T533 127Q612 127 663 153T745 224T788 332T800
466V1024H986V376Q986 282 988 213T994 95Q998 40 1003 0H846ZM651 1164L378 1473H608L780 1164H651Z" />
<glyph unicode="&#xfa;" glyph-name="uacute" horiz-adv-x="1147" d="M846 0Q842 17 838 42Q835 63 832 94T825 168Q787 77 707 29T523 -19Q334 -19 241 80T148 367V1024H334V366Q334 317 343 274T376 198T437 146T533 127Q612 127 663 153T745 224T788 332T800
466V1024H986V376Q986 282 988 213T994 95Q998 40 1003 0H846ZM388 1165L556 1474H775L519 1165H388Z" />
<glyph unicode="&#xfb;" glyph-name="ucircumflex" horiz-adv-x="1147" d="M846 0Q842 17 838 42Q835 63 832 94T825 168Q787 77 707 29T523 -19Q334 -19 241 80T148 367V1024H334V366Q334 317 343 274T376 198T437 146T533 127Q612 127 663 153T745 224T788 332T800
466V1024H986V376Q986 282 988 213T994 95Q998 40 1003 0H846ZM739 1187L576 1413L410 1187H229L489 1545H671L927 1187H739Z" />
<glyph unicode="&#xfc;" glyph-name="udieresis" horiz-adv-x="1147" d="M846 0Q842 17 838 42Q835 63 832 94T825 168Q787 77 707 29T523 -19Q334 -19 241 80T148 367V1024H334V366Q334 317 343 274T376 198T437 146T533 127Q612 127 663 153T745 224T788 332T800
466V1024H986V376Q986 282 988 213T994 95Q998 40 1003 0H846ZM502 1377V1205H280V1377H502ZM880 1377V1205H658V1377H880Z" />
<glyph unicode="&#xfd;" glyph-name="yacute" horiz-adv-x="1025" d="M573 -88Q555 -135 531 -187T474 -282T398 -354T299 -383Q279 -383 256 -379T202 -366V-227Q225 -235 241 -238T268 -241Q298 -241 319 -223T356 -175T384 -107T408 -30L418 5L14 1024H220L396
540L516 196L637 540L809 1024H1011L573 -88ZM325 1165L493 1474H712L456 1165H325Z" />
<glyph unicode="&#xfe;" glyph-name="thorn" horiz-adv-x="1166" d="M158 -416Q158 -270 158 -158T158 41T158 191T159 304T159 393T159 471V1449H345V1124L343 892Q366 920 396 947T463 995T547 1029T650 1042Q758 1042 836 1000T966 885T1041 719T1066 522Q1066
425 1043 329T970 157T840 33T644 -15Q609 -15 570 -7T492 20T414 65T340 132L345 19V-416H158ZM344 511Q344 474 347 432T360 347T388 267T435 199T507 153T609 135Q683 135 733 166T813 251T856 372T869 516Q869 579 859 646T821 769T742 859T613 895Q553 895
510 877T436 829T388 760T360 678T347 592T344 511Z" />
<glyph unicode="&#xff;" glyph-name="ydieresis" horiz-adv-x="1025" d="M573 -88Q555 -135 531 -187T474 -282T398 -354T299 -383Q279 -383 256 -379T202 -366V-227Q225 -235 241 -238T268 -241Q298 -241 319 -223T356 -175T384 -107T408 -30L418 5L14 1024H220L396
540L516 196L637 540L809 1024H1011L573 -88ZM439 1377V1205H217V1377H439ZM817 1377V1205H595V1377H817Z" />
<glyph unicode="&#x2013;" glyph-name="endash" horiz-adv-x="1207" d="M149 444V608H1057V444H149Z" />
<glyph unicode="&#x2014;" glyph-name="emdash" horiz-adv-x="1906" d="M150 444V608H1756V444H150Z" />
<glyph unicode="&#x2018;" glyph-name="quoteleft" horiz-adv-x="517" d="M92 919L290 1408H431L312 919H92Z" />
<glyph unicode="&#x2019;" glyph-name="quoteright" horiz-adv-x="501" d="M109 919L220 1408H443L247 919H109Z" />
<glyph unicode="&#x201a;" glyph-name="quotesinglbase" horiz-adv-x="511" d="M55 -256L166 223H387L194 -256H55Z" />
<glyph unicode="&#x201c;" glyph-name="quotedblleft" horiz-adv-x="878" d="M454 919L652 1408H793L674 919H454ZM92 919L290 1408H431L312 919H92Z" />
<glyph unicode="&#x201d;" glyph-name="quotedblright" horiz-adv-x="866" d="M474 919L585 1408H808L612 919H474ZM109 919L220 1408H443L247 919H109Z" />
<glyph unicode="&#x201e;" glyph-name="quotedblbase" horiz-adv-x="875" d="M419 -256L529 223H751L558 -256H419ZM55 -256L165 223H387L194 -256H55Z" />
<glyph unicode="&#x2022;" glyph-name="bullet" horiz-adv-x="807" d="M106 711Q106 783 129 841T193 939T287 1000T403 1022Q465 1022 519 1001T613 939T677 841T701 711Q701 640 678 583T615 486T520 423T403 401Q341 401 287 423T193 485T129 583T106 711Z" />
<glyph unicode="&#x2039;" glyph-name="guilsinglleft" horiz-adv-x="605" d="M347 108L93 495V514L348 900L490 863L282 503L492 141L347 108Z" />
<glyph unicode="&#x203a;" glyph-name="guilsinglright" horiz-adv-x="605" d="M319 502L112 863L258 900L512 511V493L258 107L113 141L319 502Z" />
</font>
</defs>
</svg>
