<?xml version="1.0" standalone="no"?>
<!DOCTYPE svg PUBLIC "-//W3C//DTD SVG 1.1//EN" "http://www.w3.org/Graphics/SVG/1.1/DTD/svg11.dtd">
<svg xmlns="http://www.w3.org/2000/svg">
<defs >
<font id="Exo" horiz-adv-x="549" ><font-face
    font-family="Exo SemiBold"
    units-per-em="1000"
    panose-1="0 0 7 0 0 0 0 0 0 0"
    ascent="1002"
    descent="-327"
    alphabetic="0" />
<glyph unicode=" " glyph-name="space" horiz-adv-x="243" />
<glyph unicode="!" glyph-name="exclam" horiz-adv-x="270" d="M189 737H313L210 202H119L189 737ZM90 -1T86 3T81 14V17L97 112Q99 131 119 131H190Q206 131 206 117V112L191 17Q188 -1 169 -1H98Q90 -1 86 3Z" />
<glyph unicode="&quot;" glyph-name="quotedbl" horiz-adv-x="359" d="M145 684L155 751H274L264 684L227 501H125L145 684ZM307 684L317 751H436L426 684L389 501H287L307 684Z" />
<glyph unicode="#" glyph-name="numbersign" horiz-adv-x="710" d="M208 215H52L77 297H237L282 433H120L147 515H311L384 732H466L393 515H522L594 732H676L604 515H776L751 433H578L534 297H706L681 215H502L431 0H348L420 215H291L219 0H137L208 215ZM451 297L496
433H364L320 297H451Z" />
<glyph unicode="$" glyph-name="dollar" horiz-adv-x="609" d="M253 511Q250 498 250 486Q250 454 268 441T326 427H399Q487 427 533 388T579 279Q579 260 576 239L565 170Q552 81 497 40T334 -5L320 -89H250L263 -5Q146 -2 65 16L80 113Q174 105 303 105Q374
105 408 123T451 192L456 226Q458 234 458 249Q458 281 437 295T367 309H297Q217 309 173 348T129 456Q129 476 132 497L142 558Q158 658 219 700T387 744L388 786L458 824L455 762L422 744Q469 742 523 736T618 721L603 624Q512 632 382 632Q326 632 296 614T258
545L253 511Z" />
<glyph unicode="%" glyph-name="percent" horiz-adv-x="962" d="M165 349T138 372T111 443Q111 461 114 480L133 601Q143 667 179 699T288 732H389Q450 732 477 709T505 638Q505 621 502 601L483 480Q472 414 436 382T326 349H225Q165 349 138 372ZM776 732H858L298
0H213L776 732ZM325 429Q364 429 381 444T405 498L419 584Q421 600 421 607Q421 631 407 641T362 652H290Q254 652 235 638T210 584L196 498Q194 480 194 474Q194 450 208 440T253 429H325ZM629 3T602 26T575 97Q575 113 578 134L597 255Q607 321 643 353T752 386H854Q915
386 942 363T969 292Q969 275 966 255L947 134Q936 68 900 36T791 3H689Q629 3 602 26ZM788 83Q827 83 845 98T870 152L883 238Q885 254 885 261Q885 286 872 296T826 306H755Q718 306 699 292T674 238L661 152Q659 134 659 128Q659 104 672 94T717 83H788Z" />
<glyph unicode="&amp;" glyph-name="ampersand" horiz-adv-x="689" d="M152 -6T106 39T59 161Q59 242 90 296T193 391L264 432L252 455Q222 511 222 570Q222 645 275 690T431 736Q509 736 594 717L580 627H437Q392 627 369 610T345 558Q345 521 378 465L503 246L670
379L706 324L627 217L556 158L650 0H522L462 96L421 64Q372 26 327 10T229 -6Q152 -6 106 39ZM295 108T321 117T378 152L410 179L310 347L269 324Q220 297 203 267T185 191Q185 153 206 131T266 108Q295 108 321 117Z" />
<glyph unicode="&apos;" glyph-name="quotesingle" horiz-adv-x="197" d="M145 684L155 751H274L264 684L227 501H125L145 684Z" />
<glyph unicode="(" glyph-name="parenleft" horiz-adv-x="373" d="M105 -46T105 170Q105 291 141 421T241 666T379 860H491Q417 771 358 657T264 418T229 178Q229 75 252 -19T322 -210H210Q105 -46 105 170Z" />
<glyph unicode=")" glyph-name="parenright" horiz-adv-x="372" d="M101 -64T173 120T246 476Q246 578 224 669T154 860H265Q316 779 343 688T370 483Q370 362 334 233T236 -11T96 -210H-15Q101 -64 173 120Z" />
<glyph unicode="*" glyph-name="asterisk" horiz-adv-x="444" d="M282 722L329 737L373 612L308 588L282 722ZM332 563L461 645L482 607L365 512L332 563ZM133 624L276 636L269 571L126 577L133 624ZM162 414L212 551L274 535L204 400L162 414ZM267 474L312 530L413
443L380 406L267 474Z" />
<glyph unicode="+" glyph-name="plus" horiz-adv-x="609" d="M577 306H403L376 132H275L302 306H129L144 406H318L345 580H446L419 406H592L577 306Z" />
<glyph unicode="," glyph-name="comma" horiz-adv-x="222" d="M73 -85T62 -83T48 -80L54 -41Q67 -41 73 -37T82 -22L86 8H77Q61 8 61 24L63 39L75 110Q76 120 82 125T97 131H167Q183 131 183 116L181 99L161 -22Q150 -85 86 -85Q73 -85 62 -83Z" />
<glyph unicode="-" glyph-name="hyphen" horiz-adv-x="344" d="M76 340H377L361 240H60L76 340Z" />
<glyph unicode="." glyph-name="period" horiz-adv-x="222" d="M68 -1T64 3T59 14V17L75 112Q77 131 97 131H168Q184 131 184 117V112L169 17Q166 -1 147 -1H76Q68 -1 64 3Z" />
<glyph unicode="/" glyph-name="slash" horiz-adv-x="441" d="M421 770H545L131 -72H7L421 770Z" />
<glyph unicode="0" glyph-name="zero" horiz-adv-x="650" d="M173 -4T131 32T88 139Q88 160 91 182L150 553Q165 645 223 694T371 744H522Q600 744 639 707T679 599Q679 587 675 553L616 182Q602 91 546 44T402 -4H252Q173 -4 131 32ZM388 108Q481 108 495 200L549
541Q551 550 551 566Q551 633 476 633H377Q333 633 306 610T272 541L218 200Q216 184 216 177Q216 108 298 108H388Z" />
<glyph unicode="1" glyph-name="one" horiz-adv-x="369" d="M273 625L130 594L142 674L304 738H415L298 0H174L273 625Z" />
<glyph unicode="2" glyph-name="two" horiz-adv-x="589" d="M64 100L352 351Q417 407 448 458T480 552Q480 588 457 607T378 627H168L184 724Q246 733 297 738T406 744Q510 744 557 702T604 586Q604 435 446 295L238 112H567L549 0H49L64 100Z" />
<glyph unicode="3" glyph-name="three" horiz-adv-x="581" d="M160 -6T42 12L56 105H288Q354 105 388 124T432 193Q440 233 440 244Q440 281 409 300T329 321L160 328L174 416L355 425Q459 430 472 505Q478 545 478 557Q478 633 366 633H159L174 726Q312 744 423
744Q515 744 561 711T607 603Q607 579 595 508Q586 451 553 418T476 372Q512 362 537 331T563 251Q563 234 553 173Q540 86 478 40T316 -6Q160 -6 42 12Z" />
<glyph unicode="4" glyph-name="four" horiz-adv-x="610" d="M407 168H75L60 229L394 738H521L214 273H424L450 436L487 515H586L548 273H633L619 188L531 168L504 1H381L407 168Z" />
<glyph unicode="5" glyph-name="five" horiz-adv-x="616" d="M225 -5T81 9L97 106H344Q400 106 433 133T473 203L482 265Q484 281 484 289Q484 356 404 356H339Q301 356 279 341T246 291H128L219 738H654L636 627H320L278 423Q295 440 321 451T380 462H463Q536
462 574 425T612 325Q612 313 610 287L592 178Q578 85 509 40T321 -5Q225 -5 81 9Z" />
<glyph unicode="6" glyph-name="six" horiz-adv-x="613" d="M186 -4T144 42T101 208Q101 449 185 596T449 744Q552 744 633 730L617 633H441Q364 633 315 579T248 420Q314 435 431 435Q521 435 564 405T608 312Q608 299 604 271L587 166Q573 78 519 37T382 -4H272Q186
-4 144 42ZM373 107Q412 107 436 126T468 189L477 248Q479 266 479 272Q479 305 456 317T381 330H234Q224 257 224 222Q224 158 246 133T314 107H373Z" />
<glyph unicode="7" glyph-name="seven" horiz-adv-x="550" d="M462 615H128L148 738H607L632 683L271 0H126L462 615Z" />
<glyph unicode="8" glyph-name="eight" horiz-adv-x="633" d="M87 -4T87 112Q87 131 90 149L107 255Q114 301 144 334T212 375Q157 403 157 463Q157 477 161 505L174 591Q199 744 368 744H516Q583 744 616 718T650 633Q650 622 646 590L633 505Q627 469 604 432T545
387Q579 379 595 354T611 292Q611 279 609 259L591 152Q578 67 527 32T396 -4H249Q87 -4 87 112ZM428 430Q467 430 487 451T512 506L520 561Q523 575 523 586Q523 615 509 627T464 639H378Q338 639 318 622T290 561L282 506Q280 488 280 484Q280 430 344 430H428ZM379
102Q423 102 444 120T471 174L483 249Q485 263 485 268Q485 297 468 310T412 324H327Q294 324 265 305T230 249L218 174Q216 160 216 156Q216 102 292 102H379Z" />
<glyph unicode="9" glyph-name="nine" horiz-adv-x="613" d="M543 743T585 697T628 531Q628 290 544 143T280 -5Q177 -5 96 9L112 106H288Q365 106 414 160T481 319Q415 304 298 304Q208 304 165 334T121 427Q121 440 125 468L142 573Q156 661 210 702T347 743H457Q543
743 585 697ZM356 632Q317 632 293 613T261 550L252 491Q250 473 250 467Q250 434 273 422T348 409H495Q505 482 505 517Q505 581 483 606T415 632H356Z" />
<glyph unicode=":" glyph-name="colon" horiz-adv-x="222" d="M68 -1T64 3T59 14V17L75 112Q77 131 97 131H168Q184 131 184 117V112L169 17Q166 -1 147 -1H76Q68 -1 64 3ZM133 405T129 409T124 420V423L140 518Q142 537 162 537H233Q249 537 249 523V518L234
423Q231 405 212 405H141Q133 405 129 409Z" />
<glyph unicode=";" glyph-name="semicolon" horiz-adv-x="222" d="M133 405T129 409T124 420V423L140 518Q142 537 162 537H233Q249 537 249 523V518L234 423Q231 405 212 405H141Q133 405 129 409ZM73 -85T62 -83T48 -80L54 -41Q67 -41 73 -37T82 -22L86 8H77Q61
8 61 24L63 39L75 110Q76 120 82 125T97 131H167Q183 131 183 116L181 99L161 -22Q150 -85 86 -85Q73 -85 62 -83Z" />
<glyph unicode="&lt;" glyph-name="less" horiz-adv-x="609" d="M133 295L151 405L587 537L570 429L262 351L544 267L527 159L133 295Z" />
<glyph unicode="=" glyph-name="equal" horiz-adv-x="609" d="M382 542H830L814 442H366L382 542ZM164 526H612L596 426H148L164 526Z" />
<glyph unicode="&gt;" glyph-name="greater" horiz-adv-x="609" d="M144 267L452 351L170 429L187 537L581 405L563 295L127 159L144 267Z" />
<glyph unicode="?" glyph-name="question" horiz-adv-x="530" d="M217 385H279Q344 385 376 405T416 477L423 519Q425 531 425 550Q425 591 399 609T319 628Q275 628 232 620T138 593L152 683Q256 739 375 739Q464 739 509 698T554 586Q554 561 550 538L539 475Q525
382 466 337T295 291L282 201H188L217 385ZM162 -1T158 3T153 14V17L169 112Q171 131 191 131H262Q278 131 278 117V112L263 17Q260 -1 241 -1H170Q162 -1 158 3Z" />
<glyph unicode="@" glyph-name="at" horiz-adv-x="925" d="M146 -191T99 -142T51 -13Q51 4 55 38L132 521Q150 629 213 676T390 723H761Q850 723 895 676T941 550Q941 523 936 486L891 185Q879 105 825 53T675 0H596L577 57Q558 33 509 14T411 -6Q344 -6 302 39T260
184Q260 294 297 374T397 497T535 540Q656 540 734 473L675 84Q721 84 753 106T796 196L841 498Q845 530 845 541Q845 589 816 611T735 633H372Q300 633 268 596T226 498L151 27Q148 11 148 -5Q148 -50 175 -76T255 -102H640L629 -171Q586 -179 506 -185T338 -191H246Q146
-191 99 -142ZM482 90T520 101T587 138L630 426Q578 447 528 447Q479 447 440 417T378 330T356 198Q356 90 442 90Q482 90 520 101Z" />
<glyph unicode="A" glyph-name="A" horiz-adv-x="689" d="M387 738H543L663 0H535L507 174H239L155 0H27L387 738ZM495 285L447 631L286 285H495Z" />
<glyph unicode="B" glyph-name="B" horiz-adv-x="628" d="M182 738H458Q559 738 601 700T644 590Q644 563 640 539Q631 479 595 438T504 385Q612 355 612 237Q612 206 606 177Q590 85 526 43T349 0H66L182 738ZM413 427Q497 427 517 517Q522 544 522 558Q522 594
500 610T433 627H289L257 427H413ZM365 111Q424 111 453 136T493 217Q495 229 495 249Q495 289 471 310T399 332H242L207 111H365Z" />
<glyph unicode="C" glyph-name="C" horiz-adv-x="591" d="M98 -6T98 238Q98 309 111 390Q139 569 211 656T419 744Q542 744 653 707L637 610Q533 633 440 633Q381 633 342 610T277 529T234 366Q221 291 221 237Q221 167 253 136T362 105Q426 105 469 108T559 118L543
21Q458 -6 329 -6Q98 -6 98 238Z" />
<glyph unicode="D" glyph-name="D" horiz-adv-x="682" d="M182 738H457Q591 738 645 674T699 481Q699 418 688 349Q660 173 576 87T340 0H65L182 738ZM352 111Q444 111 494 177T564 370Q575 441 575 477Q575 557 542 592T427 627H288L207 111H352Z" />
<glyph unicode="E" glyph-name="E" horiz-adv-x="588" d="M175 -6T131 21T86 119Q86 135 89 154L157 577Q170 662 219 700T341 738Q454 738 645 727L629 624H361Q323 624 303 606T275 546L256 425L549 417L534 320L238 313L219 185Q217 169 217 164Q217 135 234
123T285 110H549L532 7Q344 -5 237 -6Q175 -6 131 21Z" />
<glyph unicode="F" glyph-name="F" horiz-adv-x="560" d="M157 577Q183 738 339 738Q466 738 644 727L628 624H359Q321 624 302 606T275 547L253 407L547 399L531 302L236 295L189 0H65L157 577Z" />
<glyph unicode="G" glyph-name="G" horiz-adv-x="654" d="M184 -6T140 49T96 225Q96 293 112 396Q140 569 217 657T430 745Q511 745 568 737T678 712L663 616Q566 635 443 635Q376 635 336 608T272 523T234 368Q221 287 221 233Q221 169 247 139T330 108Q368 108
419 117T497 136L524 307H375L390 404Q462 412 558 412Q613 412 659 410L594 0H502L492 51Q459 33 396 14T287 -6Q184 -6 140 49Z" />
<glyph unicode="H" glyph-name="H" horiz-adv-x="682" d="M182 738H306L255 419H565L616 738H740L623 0H499L548 308H238L189 0H65L182 738Z" />
<glyph unicode="I" glyph-name="I" horiz-adv-x="255" d="M182 738H306L189 0H65L182 738Z" />
<glyph unicode="J" glyph-name="J" horiz-adv-x="377" d="M114 -6T83 0T33 17L49 114Q83 107 126 107Q173 107 198 130T232 204L317 738H441L352 179Q336 80 288 37T146 -6Q114 -6 83 0Z" />
<glyph unicode="K" glyph-name="K" horiz-adv-x="626" d="M182 738H306L257 426H365L585 738H712L457 368L611 0H487L355 315H239L189 0H65L182 738Z" />
<glyph unicode="L" glyph-name="L" horiz-adv-x="529" d="M89 0T89 126Q89 147 92 169L182 738H306L219 185Q217 177 217 163Q217 135 233 123T281 111H524L507 0H230Q89 0 89 126Z" />
<glyph unicode="M" glyph-name="M" horiz-adv-x="850" d="M252 738H368L458 150L734 738H849L819 0H699L722 516L491 0H375L308 512L170 0H47L252 738Z" />
<glyph unicode="N" glyph-name="N" horiz-adv-x="684" d="M182 738H282L534 210L618 738H742L625 0H525L273 529L189 0H65L182 738Z" />
<glyph unicode="O" glyph-name="O" horiz-adv-x="693" d="M262 -6T209 12T125 81T95 223Q95 286 110 386Q132 527 175 604T287 712T465 744Q545 744 598 724T682 652T713 505Q713 435 698 343Q675 200 633 125T523 22T344 -6Q262 -6 209 12ZM430 106T470 129T534
206T575 361Q589 450 589 504Q589 556 574 584T528 622T447 633Q381 633 342 612T277 533T234 368Q219 276 219 228Q219 179 234 153T280 116T364 106Q430 106 470 129Z" />
<glyph unicode="P" glyph-name="P" horiz-adv-x="606" d="M182 738H472Q558 738 607 696T657 551Q657 528 648 476Q629 352 565 299T416 245Q330 245 231 260L189 0H65L182 738ZM401 356Q450 356 482 389T525 489Q531 525 531 539Q531 586 510 606T448 627H288L245
356H401Z" />
<glyph unicode="Q" glyph-name="Q" horiz-adv-x="693" d="M262 -6T209 12T125 81T95 223Q95 286 110 386Q132 527 175 604T287 712T465 744Q545 744 598 724T682 652T713 505Q713 435 698 343Q675 200 633 125T523 22T344 -6Q262 -6 209 12ZM430 106T470 129T534
206T575 361Q589 450 589 504Q589 556 574 584T528 622T447 633Q381 633 342 612T277 533T234 368Q219 276 219 228Q219 179 234 153T280 116T364 106Q430 106 470 129ZM416 -187T370 -151T321 -38H407Q412 -71 432 -85T492 -99Q524 -99 570 -89L556 -180Q529 -187
493 -187Q416 -187 370 -151Z" />
<glyph unicode="R" glyph-name="R" horiz-adv-x="628" d="M182 738H460Q652 738 652 560Q652 535 647 497Q632 401 589 361T493 304L587 0H461L379 284L235 287L189 0H65L182 738ZM397 384Q451 384 481 410T522 506Q524 519 524 542Q524 627 435 627H288L250 384H397Z" />
<glyph unicode="S" glyph-name="S" horiz-adv-x="571" d="M235 -6T171 0T65 16L80 113Q174 105 303 105Q374 105 408 123T451 192L456 226Q458 234 458 249Q458 281 437 295T367 309H297Q217 309 173 348T129 456Q129 476 132 497L142 558Q158 660 221 702T396
744Q444 744 507 738T618 721L603 624Q512 632 382 632Q326 632 296 614T258 545L253 511Q250 498 250 486Q250 454 268 441T326 427H399Q487 427 533 388T579 279Q579 260 576 239L565 170Q551 76 489 35T304 -6Q235 -6 171 0Z" />
<glyph unicode="T" glyph-name="T" horiz-adv-x="608" d="M336 627H123L141 738H691L673 627H460L361 0H237L336 627Z" />
<glyph unicode="U" glyph-name="U" horiz-adv-x="684" d="M223 -6T165 45T106 211Q106 263 119 338L182 738H306L240 320Q230 246 230 220Q230 159 261 132T359 105Q414 105 449 122T508 185T546 320L612 738H736L667 302Q647 174 605 108T502 18T343 -6Q223 -6 165 45Z" />
<glyph unicode="V" glyph-name="V" horiz-adv-x="689" d="M144 738H272L364 135L653 738H780L420 0H264L144 738Z" />
<glyph unicode="W" glyph-name="W" horiz-adv-x="1021" d="M145 738H273L330 181L558 738H674L720 182L959 738H1088L770 0H642L587 556L351 0H223L145 738Z" />
<glyph unicode="X" glyph-name="X" horiz-adv-x="641" d="M449 361L621 0H486L362 267L163 0H24L311 374L138 738H274L400 466L604 738H743L449 361Z" />
<glyph unicode="Y" glyph-name="Y" horiz-adv-x="631" d="M282 225L135 738H271L364 360L589 738H730L406 225L370 0H246L282 225Z" />
<glyph unicode="Z" glyph-name="Z" horiz-adv-x="565" d="M53 105L476 627H135L153 738H636L619 633L196 111H546L529 0H36L53 105Z" />
<glyph unicode="[" glyph-name="bracketleft" horiz-adv-x="337" d="M134 -210T102 -169T69 -65Q69 -52 74 -9L179 652Q192 738 240 790T380 842H453L438 742H400Q318 742 300 635L199 -3Q196 -21 196 -36Q196 -110 264 -110H303L287 -210H214Q134 -210 102 -169Z" />
<glyph unicode="\" glyph-name="backslash" horiz-adv-x="441" d="M140 770H264L412 -72H288L140 770Z" />
<glyph unicode="]" glyph-name="bracketright" horiz-adv-x="337" d="M0 -110H38Q121 -110 138 -3L239 635Q242 655 242 669Q242 742 174 742H135L151 842H224Q370 842 370 705Q370 675 365 652L261 -9Q248 -91 203 -150T58 -210H-15L0 -110Z" />
<glyph unicode="^" glyph-name="asciicircum" horiz-adv-x="390" d="M263 667H349L430 531H357L294 608L202 531H129L263 667Z" />
<glyph unicode="_" glyph-name="underscore" horiz-adv-x="609" d="M-13 -82H596L581 -182H-28L-13 -82Z" />
<glyph unicode="`" glyph-name="grave" horiz-adv-x="226" d="M140 770H241L309 631H236L140 770Z" />
<glyph unicode="a" glyph-name="a" horiz-adv-x="568" d="M160 -6T118 39T76 177Q76 209 87 286Q108 418 174 480T368 542Q432 542 492 526T587 480L511 0H402L396 55Q370 34 321 14T226 -6Q160 -6 118 39ZM318 94T346 105T408 136L453 421Q440 429 415 435T362
442Q291 442 257 402T208 276Q200 225 200 199Q200 150 221 122T284 94Q318 94 346 105Z" />
<glyph unicode="b" glyph-name="b" horiz-adv-x="577" d="M312 -6T267 10T192 52L168 0H59L180 763H304L262 497Q299 517 342 529T418 542Q495 542 539 494T584 357Q584 317 572 236Q555 122 499 58T358 -6Q312 -6 267 10ZM377 94T409 135T454 268Q461 315 461
338Q461 393 439 417T378 442Q347 442 313 433T248 408L204 131Q229 113 256 104T322 94Q377 94 409 135Z" />
<glyph unicode="c" glyph-name="c" horiz-adv-x="477" d="M178 -6T129 39T79 194Q79 233 88 289Q128 542 337 542Q411 542 518 518L506 446H364Q298 446 262 404T209 267Q202 226 202 205Q202 141 229 115T311 88H459L448 18Q371 -6 272 -6Q178 -6 129 39Z" />
<glyph unicode="d" glyph-name="d" horiz-adv-x="572" d="M159 -6T119 42T78 177Q78 229 89 290Q105 375 133 429T215 512T358 542Q424 542 472 523L509 763H633L512 0H403L397 55Q363 29 319 12T231 -6Q159 -6 119 42ZM317 94T346 105T410 136L455 421Q416 442
363 442Q318 442 289 426T240 373T209 268Q202 232 202 198Q202 143 224 119T283 94Q317 94 346 105Z" />
<glyph unicode="e" glyph-name="e" horiz-adv-x="548" d="M180 -6T130 43T79 190Q79 230 89 296Q108 423 176 483T366 543Q458 543 512 509T566 388Q566 286 502 248T328 209Q252 209 204 221Q201 199 201 176Q201 129 234 108T341 86H509L497 13Q404 -6 293 -6Q180
-6 130 43ZM374 280T412 301T451 375Q451 413 428 430T358 448Q291 448 258 408T212 287Q251 280 294 280Q374 280 412 301Z" />
<glyph unicode="f" glyph-name="f" horiz-adv-x="384" d="M165 435H88L101 515L181 536L195 616Q207 691 249 730T378 769Q442 769 498 760L484 670H399Q356 670 337 650T312 583L305 536H447L431 435H289L220 0H97L165 435Z" />
<glyph unicode="g" glyph-name="g" horiz-adv-x="573" d="M41 -226L55 -140H221Q365 -140 381 -41L397 55Q362 28 313 11T220 -6Q154 -6 116 44T78 175Q78 219 90 297Q111 428 181 485T369 542Q436 542 494 534T593 513L502 -60Q474 -237 239 -237Q210 -237 179
-234L41 -226ZM314 94T343 104T409 136L456 435Q447 436 416 439T358 442Q297 442 261 404T211 283Q201 224 201 196Q201 145 222 120T281 94Q314 94 343 104Z" />
<glyph unicode="h" glyph-name="h" horiz-adv-x="585" d="M180 763H304L258 480Q297 508 347 525T454 543Q588 543 588 410Q588 381 584 352L527 0H404L456 337Q459 352 459 364Q459 400 440 416T386 432Q345 432 313 420T244 383L183 0H59L180 763Z" />
<glyph unicode="i" glyph-name="i" horiz-adv-x="240" d="M165 621T161 626T157 639L171 730Q174 750 193 750H287Q296 750 299 745T301 730L287 639Q284 621 267 621H173Q165 621 161 626ZM143 536H267L182 0H58L143 536Z" />
<glyph unicode="j" glyph-name="j" horiz-adv-x="240" d="M165 621T161 626T157 639L171 730Q174 750 193 750H287Q296 750 299 745T301 730L287 639Q284 621 267 621H173Q165 621 161 626ZM143 536H267L181 -4Q167 -100 112 -237H20L143 536Z" />
<glyph unicode="k" glyph-name="k" horiz-adv-x="550" d="M180 763H304L236 338Q316 347 370 394T450 536H573Q522 354 398 292L544 0H416L293 254Q277 250 257 247T221 244L183 0H59L180 763Z" />
<glyph unicode="l" glyph-name="l" horiz-adv-x="312" d="M159 0T121 30T83 115Q83 150 88 185L180 763H304L218 225Q217 219 214 194T210 151Q210 123 223 111T265 95L308 89L293 0H231Q159 0 121 30Z" />
<glyph unicode="m" glyph-name="m" horiz-adv-x="930" d="M143 536H245L258 480Q352 543 454 543Q504 543 535 524T584 463Q628 502 683 522T790 543Q932 543 932 414Q932 375 926 342L872 0H748L802 339Q804 353 804 363Q804 432 727 432Q689 432 655 419T583
379Q584 361 580 333L527 0H404L456 334Q459 354 459 364Q459 432 383 432Q344 432 314 420T244 383L183 0H59L143 536Z" />
<glyph unicode="n" glyph-name="n" horiz-adv-x="585" d="M143 536H245L258 480Q350 543 452 543Q519 543 553 510T588 420Q588 380 578 316L527 0H404L453 312Q459 350 459 365Q459 432 383 432Q345 432 313 420T244 383L183 0H59L143 536Z" />
<glyph unicode="o" glyph-name="o" horiz-adv-x="571" d="M79 -6T79 179Q79 228 87 279Q104 385 137 442T226 520T371 542Q451 542 495 521T558 459T576 349Q576 301 567 242Q552 144 519 91T430 16T285 -6Q79 -6 79 179ZM345 94T372 107T416 155T444 260Q453
328 453 354Q453 403 431 423T354 444Q307 444 280 429T237 375T208 260Q201 208 201 184Q201 132 225 113T299 94Q345 94 372 107Z" />
<glyph unicode="p" glyph-name="p" horiz-adv-x="569" d="M141 518Q280 542 401 542Q492 542 534 496T576 353Q576 307 566 247Q547 122 483 58T317 -6Q235 -6 185 19L145 -237H21L141 518ZM366 99T399 140T448 272Q454 308 454 332Q454 388 434 415T368 442L252
441L200 117Q229 107 250 103T303 99Q366 99 399 140Z" />
<glyph unicode="q" glyph-name="q" horiz-adv-x="568" d="M395 55Q359 27 311 11T221 -6Q150 -6 114 41T78 174Q78 217 88 284Q110 422 178 482T367 542Q429 542 491 534T592 513L473 -237H349L395 55ZM312 94T343 105T408 136L456 435Q440 437 433 437Q391 442
362 442Q291 442 257 402T208 274Q200 223 200 197Q200 147 221 121T280 94Q312 94 343 105Z" />
<glyph unicode="r" glyph-name="r" horiz-adv-x="411" d="M144 536H253L257 468Q331 542 410 542Q446 542 468 535L450 412Q420 415 384 415Q307 415 242 369L183 0H59L144 536Z" />
<glyph unicode="s" glyph-name="s" horiz-adv-x="510" d="M207 -6T148 -1T55 15L66 88H296Q369 88 377 138L381 166L382 178Q382 217 331 217H244Q175 217 136 242T97 319Q97 347 100 364L107 403Q118 470 166 506T317 542Q364 542 424 536T520 520L508 447H294Q257
447 240 435T217 395L214 374Q211 358 211 349Q211 332 224 325T268 317H362Q424 317 461 289T498 212Q498 194 495 173L488 125Q477 56 422 25T269 -6Q207 -6 148 -1Z" />
<glyph unicode="t" glyph-name="t" horiz-adv-x="400" d="M124 0T124 119Q124 156 133 210L174 436H89L102 516L193 536L234 686H331L307 536H443L428 436H292L256 209Q249 174 249 152Q249 125 262 113T306 97L368 91L353 0H276Q124 0 124 119Z" />
<glyph unicode="u" glyph-name="u" horiz-adv-x="585" d="M148 -6T115 27T81 120Q81 153 86 181L142 536H266L213 195Q211 187 211 169Q211 105 285 105Q324 105 356 117T426 153L487 536H611L526 0H417L411 56Q362 24 319 9T215 -6Q148 -6 115 27Z" />
<glyph unicode="v" glyph-name="v" horiz-adv-x="545" d="M87 536H214L281 117L423 398Q440 437 450 470T464 544H577Q576 497 560 449T515 345L332 0H190L87 536Z" />
<glyph unicode="w" glyph-name="w" horiz-adv-x="840" d="M87 536H214L272 118L443 536H526L600 118L719 415Q729 442 739 479T752 544H872Q872 504 858 456T825 368L650 0H519L456 336L310 0H178L87 536Z" />
<glyph unicode="x" glyph-name="x" horiz-adv-x="547" d="M383 258L532 0H404L299 182L143 0H15L246 273L93 536H220L330 348L476 536H610L383 258Z" />
<glyph unicode="y" glyph-name="y" horiz-adv-x="569" d="M96 -148Q157 -135 203 -101T281 0Q217 6 187 37T146 137L93 536H221L256 164Q261 130 278 117T320 102L455 419Q483 492 487 544H602Q602 447 549 335L393 6Q334 -118 264 -173T96 -237V-148Z" />
<glyph unicode="z" glyph-name="z" horiz-adv-x="500" d="M59 90L380 436H102L117 536H538L524 446L203 100H477Q475 84 470 50T461 0H45L59 90Z" />
<glyph unicode="{" glyph-name="braceleft" horiz-adv-x="315" d="M181 -210T139 -179T96 -86Q96 -58 109 20T125 111Q143 210 143 225Q143 252 128 264T79 276L97 391Q171 398 179 452L211 656Q222 725 249 765T324 824T448 842L432 742Q400 742 381 733T350
700T331 631L300 432Q293 386 264 362T189 334Q228 327 249 306T270 253Q270 237 248 103Q225 -27 225 -51Q225 -86 242 -101T296 -116L281 -210Q181 -210 139 -179Z" />
<glyph unicode="|" glyph-name="bar" horiz-adv-x="252" d="M198 770H298L165 -72H65L198 770Z" />
<glyph unicode="}" glyph-name="braceright" horiz-adv-x="315" d="M0 -116Q47 -116 69 -93T99 -18L138 219Q144 257 172 282T246 314Q208 317 187 336T166 391Q166 417 188 551Q205 661 205 675Q205 712 189 727T136 742L152 842Q333 842 333 702Q333 698 315
578Q311 549 302 490T293 421Q293 377 357 371L339 256Q306 256 285 241T258 195L221 -38Q211 -99 187 -136T115 -191T-15 -210L0 -116Z" />
<glyph unicode="~" glyph-name="asciitilde" horiz-adv-x="432" d="M349 535T336 542T303 562Q286 574 275 580T252 586Q225 586 203 577T148 545L138 587Q204 655 264 655Q277 655 291 648T324 628Q343 615 353 610T374 604Q418 604 474 649L484 603Q454 572
425 554T364 535Q349 535 336 542Z" />
<glyph unicode="&#xa0;" glyph-name="uni00A0" horiz-adv-x="243" />
<glyph unicode="&#xa1;" glyph-name="exclamdown" horiz-adv-x="270" d="M265 539T269 535T274 524V521L258 426Q256 407 236 407H165Q149 407 149 421V426L164 521Q167 539 186 539H257Q265 539 269 535ZM166 -199H42L145 336H236L166 -199Z" />
<glyph unicode="&#xa2;" glyph-name="cent" horiz-adv-x="486" d="M228 -5Q151 1 110 41T69 185Q69 287 101 366T189 489T316 536L330 627H401L387 534Q454 529 524 504L512 431Q493 435 451 438T354 442Q304 442 268 408T213 317T194 188Q194 130 218 110T296
89Q398 89 466 103L455 29Q416 13 380 6T298 -5L285 -90H214L228 -5Z" />
<glyph unicode="&#xa3;" glyph-name="sterling" horiz-adv-x="609" d="M75 94L176 111L209 322L112 331L122 393L224 411L238 504Q258 634 323 688T507 742Q578 742 662 730L647 631H494Q434 631 405 608T364 517L348 411L539 399L528 331L333 322L300 111H571L554
0H60L75 94Z" />
<glyph unicode="&#xa4;" glyph-name="currency" horiz-adv-x="609" d="M536 312T495 260L567 174L506 121L434 207Q389 183 338 183Q289 183 249 212L142 121L97 174L203 266Q187 298 187 334Q187 399 227 452L155 538L216 591L289 505Q334 529 384 529Q435 529
474 499L580 591L625 538L519 447Q536 415 536 378Q536 312 495 260ZM254 301T279 275T344 249Q399 249 434 282T470 372Q470 411 444 437T378 464Q326 464 290 430T254 340Q254 301 279 275Z" />
<glyph unicode="&#xa5;" glyph-name="yen" horiz-adv-x="609" d="M452 326H567L557 261H411L388 225L383 192H546L536 126H372L352 0H228L248 126H84L94 192H259L264 225L254 261H105L115 326H235L117 738H253L346 360L571 738H712L452 326Z" />
<glyph unicode="&#xa6;" glyph-name="brokenbar" horiz-adv-x="252" d="M198 770H298L244 429H144L198 770ZM117 256H217L165 -72H65L117 256Z" />
<glyph unicode="&#xa7;" glyph-name="section" horiz-adv-x="543" d="M256 -6T190 -3T87 6L100 94H305Q353 94 371 106T394 143L398 170Q402 190 402 198Q402 212 391 217T346 223H238Q167 223 132 243T96 310Q96 322 99 341L105 380Q112 423 132 444T191 478Q167
490 157 509T146 557Q146 579 148 594L157 647Q169 715 216 749T352 784Q407 784 477 781T580 770L567 684H354Q316 684 297 672T272 628Q266 594 266 583Q266 565 278 558T320 551H435Q507 551 539 532T572 466Q572 453 569 436L562 392Q550 316 479 295Q526 280
526 226Q526 211 522 187L514 139Q502 60 452 27T314 -6Q256 -6 190 -3ZM361 316Q392 316 407 319T429 333T439 366L447 408L448 423Q448 442 436 449T391 457H304Q265 457 249 446T228 406L221 365L220 354Q220 316 281 316H361Z" />
<glyph unicode="&#xa8;" glyph-name="dieresis" horiz-adv-x="404" d="M159 643T155 647T150 658Q150 655 165 752Q168 772 187 772H244Q260 772 260 757L245 662Q244 643 223 643H166Q159 643 155 647ZM361 643T357 647T352 658L367 752Q370 772 388 772H446Q462
772 462 757Q462 761 447 662Q444 643 425 643H368Q361 643 357 647Z" />
<glyph unicode="&#xa9;" glyph-name="copyright" horiz-adv-x="822" d="M254 0T202 35T124 131T98 267Q98 381 135 488T246 663T427 732H632Q737 732 791 669T845 500Q845 372 803 257T690 71T534 0H329Q254 0 202 35ZM538 67Q599 67 654 123T742 277T776 490Q776
570 743 617T639 665H416Q348 665 291 612T200 470T166 277Q166 183 204 125T321 67H538ZM345 147T311 179T276 291Q276 366 302 433T373 542T472 583Q509 583 558 578T642 562L632 504Q557 516 486 516Q445 516 414 487T367 409T351 307Q351 259 371 237T436 214Q519
214 595 230L586 172Q545 156 504 152T403 147Q345 147 311 179Z" />
<glyph unicode="&#xaa;" glyph-name="ordfeminine" horiz-adv-x="410" d="M161 356T130 390T98 491Q98 513 102 539T107 572Q121 666 171 711T316 756Q366 756 411 744T484 710L428 360H337L331 399Q313 384 278 370T209 356Q161 356 130 390ZM281 441T300 448T341
469L372 659Q346 671 311 671Q264 671 242 645T209 564Q202 532 202 507Q202 477 216 459T258 441Q281 441 300 448ZM86 317H433L424 257H77L86 317Z" />
<glyph unicode="&#xab;" glyph-name="guillemotleft" horiz-adv-x="617" d="M79 282L331 496L385 434L205 281L338 126L267 62L79 282ZM329 282L581 496L635 434L455 281L588 126L517 62L329 282Z" />
<glyph unicode="&#xac;" glyph-name="logicalnot" horiz-adv-x="609" d="M612 526L604 476L558 186H457L495 426H148L164 526H612Z" />
<glyph unicode="&#xad;" glyph-name="uni00AD" horiz-adv-x="344" d="M76 340H377L361 240H60L76 340Z" />
<glyph unicode="&#xae;" glyph-name="registered" horiz-adv-x="822" d="M254 0T202 35T124 131T98 267Q98 381 135 488T246 663T427 732H632Q737 732 791 669T845 500Q845 372 803 257T690 71T534 0H329Q254 0 202 35ZM538 67Q599 67 654 123T742 277T776 490Q776
570 743 617T639 665H416Q348 665 291 612T200 470T166 277Q166 183 204 125T321 67H538ZM349 580H532Q643 580 643 482Q643 426 614 381T538 325L605 153H533L470 327L382 329L354 153H281L349 580ZM500 383Q529 383 549 409T569 467Q569 492 557 502T521 513H411L390
383H500Z" />
<glyph unicode="&#xaf;" glyph-name="overscore" horiz-adv-x="364" d="M160 729H436L424 656H148L160 729Z" />
<glyph unicode="&#xb0;" glyph-name="degree" horiz-adv-x="322" d="M185 487T152 520T119 606Q119 650 138 686T195 745T284 767Q338 767 369 734T401 647Q401 578 359 533T239 487Q185 487 152 520ZM290 543T317 571T344 643Q344 673 325 691T274 710Q231 710
204 682T176 611Q176 580 195 562T248 543Q290 543 317 571Z" />
<glyph unicode="&#xb1;" glyph-name="plusminus" horiz-adv-x="609" d="M113 206H561L545 106H97L113 206ZM601 456H427L400 282H299L326 456H153L168 556H342L369 730H470L443 556H616L601 456Z" />
<glyph unicode="&#xb2;" glyph-name="uni00B2" horiz-adv-x="417" d="M112 433L297 595Q335 628 354 658T373 712Q373 733 359 743T309 754H175L187 830Q235 838 269 842T344 846Q416 846 447 821T479 748Q479 696 454 648T366 545L248 443H448L434 355H100L112 433Z" />
<glyph unicode="&#xb3;" glyph-name="uni00B3" horiz-adv-x="417" d="M186 351T97 365L110 443H263Q305 443 325 453T349 488L352 508Q353 512 353 518Q353 555 295 557L173 562L185 637L304 644Q335 646 352 655T374 685L378 706V716Q378 754 308 754H169L182
831Q275 846 363 846Q420 846 450 822T482 751Q482 744 480 726L474 689Q468 653 448 631T397 600Q421 593 436 573T452 521Q452 515 450 495L445 468Q436 411 395 381T286 351Q186 351 97 365Z" />
<glyph unicode="&#xb4;" glyph-name="acute" horiz-adv-x="226" d="M224 770H331L196 631H118L224 770Z" />
<glyph unicode="&#xb5;" glyph-name="uni00B5" horiz-adv-x="593" />
<glyph unicode="&#xb6;" glyph-name="paragraph" horiz-adv-x="573" d="M309 321Q299 315 278 311T232 307Q166 307 134 340T101 426Q101 438 105 467L126 598Q137 666 187 702T308 738H685L672 654H606L502 0H419L523 656H444L297 -270H215L309 321ZM319 390L361
656H301Q217 656 205 578L189 477Q186 458 186 448Q186 413 205 402T259 390H319Z" />
<glyph unicode="&#xb7;" glyph-name="middot" horiz-adv-x="266" d="M124 329T120 334T116 348L127 421Q130 441 150 441H221Q240 441 237 421L225 348Q222 329 203 329H132Q124 329 120 334Z" />
<glyph unicode="&#xb8;" glyph-name="cedilla" horiz-adv-x="250" d="M173 -58T173 -110Q173 -144 143 -169T57 -195H14L22 -144L42 -142Q67 -139 80 -125T94 -97Q94 -69 47 -64L111 16H168L112 -53Q173 -58 173 -110Z" />
<glyph unicode="&#xb9;" glyph-name="uni00B9" horiz-adv-x="417" d="M445 443L431 355H114L128 443H237L287 758L182 742L192 805L311 846H400L336 443H445Z" />
<glyph unicode="&#xba;" glyph-name="ordmasculine" horiz-adv-x="429" d="M101 356T100 492Q100 518 106 566Q118 644 143 684T210 740T320 756Q381 756 414 741T461 695T476 613Q476 584 469 535Q458 464 433 426T366 372T257 356Q101 356 100 492ZM299 441T317
450T347 482T366 550Q372 584 372 616Q371 647 356 659T305 672Q273 672 255 663T227 629T209 558Q204 529 204 498Q205 467 220 454T269 441Q299 441 317 450ZM86 317H433L424 257H77L86 317Z" />
<glyph unicode="&#xbb;" glyph-name="guillemotright" horiz-adv-x="617" d="M59 126L239 280L107 435L180 496L365 279L110 62L59 126ZM309 126L489 280L357 435L430 496L615 279L360 62L309 126Z" />
<glyph unicode="&#xbc;" glyph-name="onequarter" horiz-adv-x="1152" d="M809 770H895L398 0H313L809 770ZM976 59H758L747 106L962 443H1064L872 142H988L1003 237L1032 293H1112L1088 142H1140L1128 75L1075 59L1058 -44H959L976 59ZM449 443L435 355H118L132
443H241L291 758L186 742L196 805L315 846H404L340 443H449Z" />
<glyph unicode="&#xbd;" glyph-name="onehalf" horiz-adv-x="1152" d="M809 770H895L398 0H313L809 770ZM769 34L954 196Q992 229 1011 259T1030 313Q1030 334 1016 344T966 355H832L844 431Q892 439 926 443T1001 447Q1073 447 1104 422T1136 349Q1136 297 1111
249T1023 146L905 44H1105L1091 -44H757L769 34ZM449 443L435 355H118L132 443H241L291 758L186 742L196 805L315 846H404L340 443H449Z" />
<glyph unicode="&#xbe;" glyph-name="threequarters" horiz-adv-x="1151" d="M809 770H895L398 0H313L809 770ZM976 65H758L747 112L962 449H1064L872 148H988L1003 243L1032 299H1112L1088 148H1140L1128 81L1075 65L1058 -38H959L976 65ZM196 351T107 365L120
443H273Q315 443 335 453T359 488L362 508Q363 512 363 518Q363 555 305 557L183 562L195 637L314 644Q345 646 362 655T384 685L388 706V716Q388 754 318 754H179L192 831Q285 846 373 846Q430 846 460 822T492 751Q492 744 490 726L484 689Q478 653 458 631T407
600Q431 593 446 573T462 521Q462 515 460 495L455 468Q446 411 405 381T296 351Q196 351 107 365Z" />
<glyph unicode="&#xbf;" glyph-name="questiondown" horiz-adv-x="530" d="M445 539T449 535T454 524V521L438 426Q436 407 416 407H345Q329 407 329 421V426L344 521Q347 539 366 539H437Q445 539 449 535ZM390 153H328Q263 153 231 133T191 61L184 19Q182 7
182 -12Q182 -53 208 -71T288 -90Q332 -90 375 -82T469 -55L455 -145Q351 -201 232 -201Q143 -201 98 -160T53 -48Q53 -23 57 0L68 63Q82 156 141 201T312 247L325 337H419L390 153Z" />
<glyph unicode="&#xc0;" glyph-name="Agrave" horiz-adv-x="689" d="M387 738H543L663 0H535L507 174H239L155 0H27L387 738ZM495 285L447 631L286 285H495ZM354 930H455L523 791H450L354 930Z" />
<glyph unicode="&#xc1;" glyph-name="Aacute" horiz-adv-x="689" d="M387 738H543L663 0H535L507 174H239L155 0H27L387 738ZM495 285L447 631L286 285H495ZM526 930H633L498 791H420L526 930Z" />
<glyph unicode="&#xc2;" glyph-name="Acircumflex" horiz-adv-x="689" d="M387 738H543L663 0H535L507 174H239L155 0H27L387 738ZM495 285L447 631L286 285H495ZM441 930H526L607 791H534L473 874L379 791H306L441 930Z" />
<glyph unicode="&#xc3;" glyph-name="Atilde" horiz-adv-x="689" d="M387 738H543L663 0H535L507 174H239L155 0H27L387 738ZM495 285L447 631L286 285H495ZM308 862T340 889T415 917Q437 917 455 911T499 891Q520 880 533 875T559 870Q581 870 595 883T614 921H676Q662
860 633 831T558 801Q538 801 520 807T473 827Q452 838 439 843T412 848Q392 848 377 835T357 800H295Q308 862 340 889Z" />
<glyph unicode="&#xc4;" glyph-name="Adieresis" horiz-adv-x="689" d="M387 738H543L663 0H535L507 174H239L155 0H27L387 738ZM495 285L447 631L286 285H495ZM322 803T318 807T313 818Q313 815 328 912Q331 932 350 932H407Q423 932 423 917L408 822Q407 803
386 803H329Q322 803 318 807ZM524 803T520 807T515 818L530 912Q533 932 551 932H609Q625 932 625 917Q625 921 610 822Q607 803 588 803H531Q524 803 520 807Z" />
<glyph unicode="&#xc5;" glyph-name="Aring" horiz-adv-x="689" d="M387 738H543L663 0H535L507 174H239L155 0H27L387 738ZM495 285L447 631L286 285H495ZM416 768T388 790T360 863Q360 917 396 954T497 991Q603 991 603 897Q603 841 568 805T468 768Q416 768
388 790ZM508 815T526 837T544 894Q544 944 492 944Q456 944 438 921T419 865Q419 815 473 815Q508 815 526 837Z" />
<glyph unicode="&#xc6;" glyph-name="AE" horiz-adv-x="964" d="M563 -5T526 16T488 94L489 110L497 173H272L139 0H16L427 568Q495 663 571 700T747 738Q870 738 1037 727L1020 624H758Q720 624 702 615T679 590T667 536L649 423L942 416L926 319L631 312L611
185Q609 171 609 165Q609 132 630 122T688 111H939L923 9Q857 3 765 -1T635 -5Q563 -5 526 16ZM514 279L562 582L345 279H514Z" />
<glyph unicode="&#xc7;" glyph-name="Ccedilla" horiz-adv-x="591" d="M381 633T342 610T277 529T234 366Q221 291 221 237Q221 167 253 136T362 105Q426 105 469 108T559 118L543 21Q462 -4 345 -6L304 -57Q365 -62 365 -114Q365 -148 335 -173T249 -199H206L214
-148L234 -146Q259 -143 272 -129T286 -101Q286 -73 239 -68L290 -4Q98 16 98 238Q98 309 111 390Q139 569 211 656T419 744Q542 744 653 707L637 610Q533 633 440 633Q381 633 342 610Z" />
<glyph unicode="&#xc8;" glyph-name="Egrave" horiz-adv-x="588" d="M175 -6T131 21T86 119Q86 135 89 154L157 577Q170 662 219 700T341 738Q454 738 645 727L629 624H361Q323 624 303 606T275 546L256 425L549 417L534 320L238 313L219 185Q217 169 217 164Q217
135 234 123T285 110H549L532 7Q344 -5 237 -6Q175 -6 131 21ZM313 930H414L482 791H409L313 930Z" />
<glyph unicode="&#xc9;" glyph-name="Eacute" horiz-adv-x="588" d="M175 -6T131 21T86 119Q86 135 89 154L157 577Q170 662 219 700T341 738Q454 738 645 727L629 624H361Q323 624 303 606T275 546L256 425L549 417L534 320L238 313L219 185Q217 169 217 164Q217
135 234 123T285 110H549L532 7Q344 -5 237 -6Q175 -6 131 21ZM485 930H592L457 791H379L485 930Z" />
<glyph unicode="&#xca;" glyph-name="Ecircumflex" horiz-adv-x="588" d="M175 -6T131 21T86 119Q86 135 89 154L157 577Q170 662 219 700T341 738Q454 738 645 727L629 624H361Q323 624 303 606T275 546L256 425L549 417L534 320L238 313L219 185Q217 169 217
164Q217 135 234 123T285 110H549L532 7Q344 -5 237 -6Q175 -6 131 21ZM400 930H485L566 791H493L432 874L338 791H265L400 930Z" />
<glyph unicode="&#xcb;" glyph-name="Edieresis" horiz-adv-x="588" d="M175 -6T131 21T86 119Q86 135 89 154L157 577Q170 662 219 700T341 738Q454 738 645 727L629 624H361Q323 624 303 606T275 546L256 425L549 417L534 320L238 313L219 185Q217 169 217 164Q217
135 234 123T285 110H549L532 7Q344 -5 237 -6Q175 -6 131 21ZM281 803T277 807T272 818Q272 815 287 912Q290 932 309 932H366Q382 932 382 917L367 822Q366 803 345 803H288Q281 803 277 807ZM483 803T479 807T474 818L489 912Q492 932 510 932H568Q584 932 584
917Q584 921 569 822Q566 803 547 803H490Q483 803 479 807Z" />
<glyph unicode="&#xcc;" glyph-name="Igrave" horiz-adv-x="255" d="M182 738H306L189 0H65L182 738ZM138 930H239L307 791H234L138 930Z" />
<glyph unicode="&#xcd;" glyph-name="Iacute" horiz-adv-x="255" d="M182 738H306L189 0H65L182 738ZM310 930H417L282 791H204L310 930Z" />
<glyph unicode="&#xce;" glyph-name="Icircumflex" horiz-adv-x="255" d="M182 738H306L189 0H65L182 738ZM225 930H310L391 791H318L257 874L163 791H90L225 930Z" />
<glyph unicode="&#xcf;" glyph-name="Idieresis" horiz-adv-x="255" d="M182 738H306L189 0H65L182 738ZM106 803T102 807T97 818Q97 815 112 912Q115 932 134 932H191Q207 932 207 917L192 822Q191 803 170 803H113Q106 803 102 807ZM308 803T304 807T299 818L314
912Q317 932 335 932H393Q409 932 409 917Q409 921 394 822Q391 803 372 803H315Q308 803 304 807Z" />
<glyph unicode="&#xd0;" glyph-name="Eth" horiz-adv-x="682" d="M591 738T645 674T699 481Q699 418 688 349Q660 173 576 87T340 0H65L118 332H57L71 414H131L182 738H457Q591 738 645 674ZM575 441T575 477Q575 557 542 592T427 627H288L255 414H395L381 332H242L207
111H352Q444 111 494 177T564 370Q575 441 575 477Z" />
<glyph unicode="&#xd1;" glyph-name="Ntilde" horiz-adv-x="684" d="M182 738H282L534 210L618 738H742L625 0H525L273 529L189 0H65L182 738ZM294 862T326 889T401 917Q423 917 441 911T485 891Q506 880 519 875T545 870Q567 870 581 883T600 921H662Q648 860
619 831T544 801Q524 801 506 807T459 827Q438 838 425 843T398 848Q378 848 363 835T343 800H281Q294 862 326 889Z" />
<glyph unicode="&#xd2;" glyph-name="Ograve" horiz-adv-x="693" d="M262 -6T209 12T125 81T95 223Q95 286 110 386Q132 527 175 604T287 712T465 744Q545 744 598 724T682 652T713 505Q713 435 698 343Q675 200 633 125T523 22T344 -6Q262 -6 209 12ZM430 106T470
129T534 206T575 361Q589 450 589 504Q589 556 574 584T528 622T447 633Q381 633 342 612T277 533T234 368Q219 276 219 228Q219 179 234 153T280 116T364 106Q430 106 470 129ZM360 930H461L529 791H456L360 930Z" />
<glyph unicode="&#xd3;" glyph-name="Oacute" horiz-adv-x="693" d="M262 -6T209 12T125 81T95 223Q95 286 110 386Q132 527 175 604T287 712T465 744Q545 744 598 724T682 652T713 505Q713 435 698 343Q675 200 633 125T523 22T344 -6Q262 -6 209 12ZM430 106T470
129T534 206T575 361Q589 450 589 504Q589 556 574 584T528 622T447 633Q381 633 342 612T277 533T234 368Q219 276 219 228Q219 179 234 153T280 116T364 106Q430 106 470 129ZM532 930H639L504 791H426L532 930Z" />
<glyph unicode="&#xd4;" glyph-name="Ocircumflex" horiz-adv-x="693" d="M262 -6T209 12T125 81T95 223Q95 286 110 386Q132 527 175 604T287 712T465 744Q545 744 598 724T682 652T713 505Q713 435 698 343Q675 200 633 125T523 22T344 -6Q262 -6 209 12ZM430
106T470 129T534 206T575 361Q589 450 589 504Q589 556 574 584T528 622T447 633Q381 633 342 612T277 533T234 368Q219 276 219 228Q219 179 234 153T280 116T364 106Q430 106 470 129ZM447 930H532L613 791H540L479 874L385 791H312L447 930Z" />
<glyph unicode="&#xd5;" glyph-name="Otilde" horiz-adv-x="693" d="M262 -6T209 12T125 81T95 223Q95 286 110 386Q132 527 175 604T287 712T465 744Q545 744 598 724T682 652T713 505Q713 435 698 343Q675 200 633 125T523 22T344 -6Q262 -6 209 12ZM430 106T470
129T534 206T575 361Q589 450 589 504Q589 556 574 584T528 622T447 633Q381 633 342 612T277 533T234 368Q219 276 219 228Q219 179 234 153T280 116T364 106Q430 106 470 129ZM314 862T346 889T421 917Q443 917 461 911T505 891Q526 880 539 875T565 870Q587
870 601 883T620 921H682Q668 860 639 831T564 801Q544 801 526 807T479 827Q458 838 445 843T418 848Q398 848 383 835T363 800H301Q314 862 346 889Z" />
<glyph unicode="&#xd6;" glyph-name="Odieresis" horiz-adv-x="693" d="M262 -6T209 12T125 81T95 223Q95 286 110 386Q132 527 175 604T287 712T465 744Q545 744 598 724T682 652T713 505Q713 435 698 343Q675 200 633 125T523 22T344 -6Q262 -6 209 12ZM430
106T470 129T534 206T575 361Q589 450 589 504Q589 556 574 584T528 622T447 633Q381 633 342 612T277 533T234 368Q219 276 219 228Q219 179 234 153T280 116T364 106Q430 106 470 129ZM328 803T324 807T319 818Q319 815 334 912Q337 932 356 932H413Q429 932
429 917L414 822Q413 803 392 803H335Q328 803 324 807ZM530 803T526 807T521 818L536 912Q539 932 557 932H615Q631 932 631 917Q631 921 616 822Q613 803 594 803H537Q530 803 526 807Z" />
<glyph unicode="&#xd7;" glyph-name="multiply" horiz-adv-x="609" d="M433 356L537 233L455 162L351 285L209 162L149 233L292 356L188 479L270 550L374 427L516 550L576 479L433 356Z" />
<glyph unicode="&#xd8;" glyph-name="Oslash" horiz-adv-x="696" d="M685 647Q713 593 713 505Q713 435 698 343Q675 200 633 125T523 22T344 -6Q280 -6 234 5T156 43L119 0H47L122 86Q95 138 95 223Q95 286 110 386Q132 527 175 604T287 712T465 744Q528 744
574 732T652 691L693 738H765L685 647ZM219 216T221 198L567 594Q551 616 522 624T447 633Q381 633 342 612T277 533T234 368Q219 276 219 228Q219 216 221 198ZM589 517T587 535L242 141Q259 122 288 114T364 106Q430 106 470 129T534 206T575 361Q589 450 589
504Q589 517 587 535Z" />
<glyph unicode="&#xd9;" glyph-name="Ugrave" horiz-adv-x="684" d="M223 -6T165 45T106 211Q106 263 119 338L182 738H306L240 320Q230 246 230 220Q230 159 261 132T359 105Q414 105 449 122T508 185T546 320L612 738H736L667 302Q647 174 605 108T502 18T343
-6Q223 -6 165 45ZM346 930H447L515 791H442L346 930Z" />
<glyph unicode="&#xda;" glyph-name="Uacute" horiz-adv-x="684" d="M223 -6T165 45T106 211Q106 263 119 338L182 738H306L240 320Q230 246 230 220Q230 159 261 132T359 105Q414 105 449 122T508 185T546 320L612 738H736L667 302Q647 174 605 108T502 18T343
-6Q223 -6 165 45ZM518 930H625L490 791H412L518 930Z" />
<glyph unicode="&#xdb;" glyph-name="Ucircumflex" horiz-adv-x="684" d="M223 -6T165 45T106 211Q106 263 119 338L182 738H306L240 320Q230 246 230 220Q230 159 261 132T359 105Q414 105 449 122T508 185T546 320L612 738H736L667 302Q647 174 605 108T502
18T343 -6Q223 -6 165 45ZM433 930H518L599 791H526L465 874L371 791H298L433 930Z" />
<glyph unicode="&#xdc;" glyph-name="Udieresis" horiz-adv-x="684" d="M223 -6T165 45T106 211Q106 263 119 338L182 738H306L240 320Q230 246 230 220Q230 159 261 132T359 105Q414 105 449 122T508 185T546 320L612 738H736L667 302Q647 174 605 108T502 18T343
-6Q223 -6 165 45ZM314 803T310 807T305 818Q305 815 320 912Q323 932 342 932H399Q415 932 415 917L400 822Q399 803 378 803H321Q314 803 310 807ZM516 803T512 807T507 818L522 912Q525 932 543 932H601Q617 932 617 917Q617 921 602 822Q599 803 580 803H523Q516
803 512 807Z" />
<glyph unicode="&#xdd;" glyph-name="Yacute" horiz-adv-x="631" d="M282 225L135 738H271L364 360L589 738H730L406 225L370 0H246L282 225ZM493 930H600L465 791H387L493 930Z" />
<glyph unicode="&#xde;" glyph-name="Thorn" horiz-adv-x="563" d="M490 608T542 568T594 430Q594 401 586 355Q569 244 504 196T354 148Q301 148 215 162L189 0H65L182 738H306L285 608H400Q490 608 542 568ZM468 398T468 418Q468 460 445 478T376 497H268L230
260H338Q387 260 420 286T463 368Q468 398 468 418Z" />
<glyph unicode="&#xdf;" glyph-name="germandbls" horiz-adv-x="598" d="M352 -6T311 -2T247 9L259 92Q312 88 383 88Q463 88 472 142Q475 162 475 170Q475 187 463 199T424 228Q387 251 368 272T348 332Q348 367 366 396T423 469Q456 506 472 531T489 583Q489
619 464 639T393 659Q334 659 302 624T257 504L177 0H53L142 557Q157 655 223 712T404 769Q505 769 554 722T603 603Q603 559 582 525T523 451Q496 421 484 404T472 367Q472 350 484 337T522 306Q558 280 577 258T596 197Q596 178 588 134Q576 58 522 26T398 -6Q352
-6 311 -2Z" />
<glyph unicode="&#xe0;" glyph-name="agrave" horiz-adv-x="568" d="M160 -6T118 39T76 177Q76 209 87 286Q108 418 174 480T368 542Q432 542 492 526T587 480L511 0H402L396 55Q370 34 321 14T226 -6Q160 -6 118 39ZM318 94T346 105T408 136L453 421Q440 429
415 435T362 442Q291 442 257 402T208 276Q200 225 200 199Q200 150 221 122T284 94Q318 94 346 105ZM268 770H369L437 631H364L268 770Z" />
<glyph unicode="&#xe1;" glyph-name="aacute" horiz-adv-x="568" d="M160 -6T118 39T76 177Q76 209 87 286Q108 418 174 480T368 542Q432 542 492 526T587 480L511 0H402L396 55Q370 34 321 14T226 -6Q160 -6 118 39ZM318 94T346 105T408 136L453 421Q440 429
415 435T362 442Q291 442 257 402T208 276Q200 225 200 199Q200 150 221 122T284 94Q318 94 346 105ZM446 770H553L418 631H340L446 770Z" />
<glyph unicode="&#xe2;" glyph-name="acircumflex" horiz-adv-x="568" d="M160 -6T118 39T76 177Q76 209 87 286Q108 418 174 480T368 542Q432 542 492 526T587 480L511 0H402L396 55Q370 34 321 14T226 -6Q160 -6 118 39ZM318 94T346 105T408 136L453 421Q440
429 415 435T362 442Q291 442 257 402T208 276Q200 225 200 199Q200 150 221 122T284 94Q318 94 346 105ZM365 770H450L531 631H458L397 714L303 631H230L365 770Z" />
<glyph unicode="&#xe3;" glyph-name="atilde" horiz-adv-x="568" d="M160 -6T118 39T76 177Q76 209 87 286Q108 418 174 480T368 542Q432 542 492 526T587 480L511 0H402L396 55Q370 34 321 14T226 -6Q160 -6 118 39ZM318 94T346 105T408 136L453 421Q440 429
415 435T362 442Q291 442 257 402T208 276Q200 225 200 199Q200 150 221 122T284 94Q318 94 346 105ZM218 702T250 729T325 757Q347 757 365 751T409 731Q430 720 443 715T469 710Q491 710 505 723T524 761H586Q572 700 543 671T468 641Q448 641 430 647T383 667Q362
678 349 683T322 688Q302 688 287 675T267 640H205Q218 702 250 729Z" />
<glyph unicode="&#xe4;" glyph-name="adieresis" horiz-adv-x="568" d="M160 -6T118 39T76 177Q76 209 87 286Q108 418 174 480T368 542Q432 542 492 526T587 480L511 0H402L396 55Q370 34 321 14T226 -6Q160 -6 118 39ZM318 94T346 105T408 136L453 421Q440 429
415 435T362 442Q291 442 257 402T208 276Q200 225 200 199Q200 150 221 122T284 94Q318 94 346 105ZM241 643T237 647T232 658Q232 655 247 752Q250 772 269 772H326Q342 772 342 757L327 662Q326 643 305 643H248Q241 643 237 647ZM443 643T439 647T434 658L449
752Q452 772 470 772H528Q544 772 544 757Q544 761 529 662Q526 643 507 643H450Q443 643 439 647Z" />
<glyph unicode="&#xe5;" glyph-name="aring" horiz-adv-x="568" d="M160 -6T118 39T76 177Q76 209 87 286Q108 418 174 480T368 542Q432 542 492 526T587 480L511 0H402L396 55Q370 34 321 14T226 -6Q160 -6 118 39ZM318 94T346 105T408 136L453 421Q440 429 415
435T362 442Q291 442 257 402T208 276Q200 225 200 199Q200 150 221 122T284 94Q318 94 346 105ZM336 588T308 610T280 683Q280 737 316 774T417 811Q523 811 523 717Q523 661 488 625T388 588Q336 588 308 610ZM428 635T446 657T464 714Q464 764 412 764Q376 764
358 741T339 685Q339 635 393 635Q428 635 446 657Z" />
<glyph unicode="&#xe6;" glyph-name="ae" horiz-adv-x="883" d="M159 -6T119 38T79 176Q79 357 153 449T362 542Q405 542 453 532T535 500Q559 520 607 531T693 543Q797 543 848 504T900 381Q900 299 843 254T672 209Q632 209 590 213T536 222Q534 202 534 178Q534
131 559 109T650 86H843L831 13Q788 4 725 -1T602 -6Q543 -6 499 16T438 75Q326 -6 227 -6Q159 -6 119 38ZM712 280T748 303T784 368Q784 407 762 427T697 448Q645 448 615 430T570 377T545 287Q551 285 580 283T641 280Q712 280 748 303ZM315 95T353 114T415 158Q413
169 413 196Q413 255 426 315T465 419Q448 427 422 434T372 442Q281 442 242 374T202 199Q202 95 278 95Q315 95 353 114Z" />
<glyph unicode="&#xe7;" glyph-name="ccedilla" horiz-adv-x="477" d="M298 446T262 404T209 267Q202 226 202 205Q202 141 229 115T311 88H459L448 18Q373 -6 275 -6L234 -57Q295 -62 295 -114Q295 -148 265 -173T179 -199H136L144 -148L164 -146Q189 -143 202
-129T216 -101Q216 -73 169 -68L221 -3Q152 7 116 53T79 194Q79 233 88 289Q128 542 337 542Q411 542 518 518L506 446H364Q298 446 262 404Z" />
<glyph unicode="&#xe8;" glyph-name="egrave" horiz-adv-x="548" d="M180 -6T130 43T79 190Q79 230 89 296Q108 423 176 483T366 543Q458 543 512 509T566 388Q566 286 502 248T328 209Q252 209 204 221Q201 199 201 176Q201 129 234 108T341 86H509L497 13Q404
-6 293 -6Q180 -6 130 43ZM374 280T412 301T451 375Q451 413 428 430T358 448Q291 448 258 408T212 287Q251 280 294 280Q374 280 412 301ZM267 770H368L436 631H363L267 770Z" />
<glyph unicode="&#xe9;" glyph-name="eacute" horiz-adv-x="548" d="M180 -6T130 43T79 190Q79 230 89 296Q108 423 176 483T366 543Q458 543 512 509T566 388Q566 286 502 248T328 209Q252 209 204 221Q201 199 201 176Q201 129 234 108T341 86H509L497 13Q404
-6 293 -6Q180 -6 130 43ZM374 280T412 301T451 375Q451 413 428 430T358 448Q291 448 258 408T212 287Q251 280 294 280Q374 280 412 301ZM445 770H552L417 631H339L445 770Z" />
<glyph unicode="&#xea;" glyph-name="ecircumflex" horiz-adv-x="548" d="M180 -6T130 43T79 190Q79 230 89 296Q108 423 176 483T366 543Q458 543 512 509T566 388Q566 286 502 248T328 209Q252 209 204 221Q201 199 201 176Q201 129 234 108T341 86H509L497
13Q404 -6 293 -6Q180 -6 130 43ZM374 280T412 301T451 375Q451 413 428 430T358 448Q291 448 258 408T212 287Q251 280 294 280Q374 280 412 301ZM364 770H449L530 631H457L396 714L302 631H229L364 770Z" />
<glyph unicode="&#xeb;" glyph-name="edieresis" horiz-adv-x="548" d="M180 -6T130 43T79 190Q79 230 89 296Q108 423 176 483T366 543Q458 543 512 509T566 388Q566 286 502 248T328 209Q252 209 204 221Q201 199 201 176Q201 129 234 108T341 86H509L497 13Q404
-6 293 -6Q180 -6 130 43ZM374 280T412 301T451 375Q451 413 428 430T358 448Q291 448 258 408T212 287Q251 280 294 280Q374 280 412 301ZM240 643T236 647T231 658Q231 655 246 752Q249 772 268 772H325Q341 772 341 757L326 662Q325 643 304 643H247Q240 643
236 647ZM442 643T438 647T433 658L448 752Q451 772 469 772H527Q543 772 543 757Q543 761 528 662Q525 643 506 643H449Q442 643 438 647Z" />
<glyph unicode="&#xec;" glyph-name="igrave" horiz-adv-x="241" d="M144 536H268L183 0H59L144 536ZM366 770H467L535 631H462L366 770Z" />
<glyph unicode="&#xed;" glyph-name="iacute" horiz-adv-x="241" d="M144 536H268L183 0H59L144 536ZM288 770H395L260 631H182L288 770Z" />
<glyph unicode="&#xee;" glyph-name="icircumflex" horiz-adv-x="241" d="M144 536H268L183 0H59L144 536ZM463 770H548L629 631H556L495 714L401 631H328L463 770Z" />
<glyph unicode="&#xef;" glyph-name="idieresis" horiz-adv-x="241" d="M144 536H268L183 0H59L144 536ZM83 643T79 647T74 658Q74 655 89 752Q92 772 111 772H168Q184 772 184 757L169 662Q168 643 147 643H90Q83 643 79 647ZM285 643T281 647T276 658L291 752Q294
772 312 772H370Q386 772 386 757Q386 761 371 662Q368 643 349 643H292Q285 643 281 647Z" />
<glyph unicode="&#xf0;" glyph-name="eth" horiz-adv-x="571" d="M511 676Q586 601 586 447Q586 361 568 248Q553 148 519 93T430 16T285 -6Q79 -6 79 179Q79 224 85 267Q102 373 133 430T213 508T341 530Q386 530 423 516T484 476Q481 534 463 573T411 637L253
574L241 615L360 662Q304 681 218 681L232 763Q389 763 474 706L609 759L619 719L511 676ZM452 314T452 347Q452 393 429 412T352 432Q305 432 278 417T235 364T206 249Q201 206 201 184Q201 132 225 113T299 94Q345 94 372 107T416 157T444 263Q452 314 452 347Z"
/>
<glyph unicode="&#xf1;" glyph-name="ntilde" horiz-adv-x="585" d="M143 536H245L258 480Q350 543 452 543Q519 543 553 510T588 420Q588 380 578 316L527 0H404L453 312Q459 350 459 365Q459 432 383 432Q345 432 313 420T244 383L183 0H59L143 536ZM226 702T258
729T333 757Q355 757 373 751T417 731Q438 720 451 715T477 710Q499 710 513 723T532 761H594Q580 700 551 671T476 641Q456 641 438 647T391 667Q370 678 357 683T330 688Q310 688 295 675T275 640H213Q226 702 258 729Z" />
<glyph unicode="&#xf2;" glyph-name="ograve" horiz-adv-x="571" d="M79 -6T79 179Q79 228 87 279Q104 385 137 442T226 520T371 542Q451 542 495 521T558 459T576 349Q576 301 567 242Q552 144 519 91T430 16T285 -6Q79 -6 79 179ZM345 94T372 107T416 155T444
260Q453 328 453 354Q453 403 431 423T354 444Q307 444 280 429T237 375T208 260Q201 208 201 184Q201 132 225 113T299 94Q345 94 372 107ZM265 770H366L434 631H361L265 770Z" />
<glyph unicode="&#xf3;" glyph-name="oacute" horiz-adv-x="571" d="M79 -6T79 179Q79 228 87 279Q104 385 137 442T226 520T371 542Q451 542 495 521T558 459T576 349Q576 301 567 242Q552 144 519 91T430 16T285 -6Q79 -6 79 179ZM345 94T372 107T416 155T444
260Q453 328 453 354Q453 403 431 423T354 444Q307 444 280 429T237 375T208 260Q201 208 201 184Q201 132 225 113T299 94Q345 94 372 107ZM443 770H550L415 631H337L443 770Z" />
<glyph unicode="&#xf4;" glyph-name="ocircumflex" horiz-adv-x="571" d="M79 -6T79 179Q79 228 87 279Q104 385 137 442T226 520T371 542Q451 542 495 521T558 459T576 349Q576 301 567 242Q552 144 519 91T430 16T285 -6Q79 -6 79 179ZM345 94T372 107T416 155T444
260Q453 328 453 354Q453 403 431 423T354 444Q307 444 280 429T237 375T208 260Q201 208 201 184Q201 132 225 113T299 94Q345 94 372 107ZM362 770H447L528 631H455L394 714L300 631H227L362 770Z" />
<glyph unicode="&#xf5;" glyph-name="otilde" horiz-adv-x="571" d="M79 -6T79 179Q79 228 87 279Q104 385 137 442T226 520T371 542Q451 542 495 521T558 459T576 349Q576 301 567 242Q552 144 519 91T430 16T285 -6Q79 -6 79 179ZM345 94T372 107T416 155T444
260Q453 328 453 354Q453 403 431 423T354 444Q307 444 280 429T237 375T208 260Q201 208 201 184Q201 132 225 113T299 94Q345 94 372 107ZM215 702T247 729T322 757Q344 757 362 751T406 731Q427 720 440 715T466 710Q488 710 502 723T521 761H583Q569 700 540
671T465 641Q445 641 427 647T380 667Q359 678 346 683T319 688Q299 688 284 675T264 640H202Q215 702 247 729Z" />
<glyph unicode="&#xf6;" glyph-name="odieresis" horiz-adv-x="571" d="M79 -6T79 179Q79 228 87 279Q104 385 137 442T226 520T371 542Q451 542 495 521T558 459T576 349Q576 301 567 242Q552 144 519 91T430 16T285 -6Q79 -6 79 179ZM345 94T372 107T416 155T444
260Q453 328 453 354Q453 403 431 423T354 444Q307 444 280 429T237 375T208 260Q201 208 201 184Q201 132 225 113T299 94Q345 94 372 107ZM238 643T234 647T229 658Q229 655 244 752Q247 772 266 772H323Q339 772 339 757L324 662Q323 643 302 643H245Q238 643
234 647ZM440 643T436 647T431 658L446 752Q449 772 467 772H525Q541 772 541 757Q541 761 526 662Q523 643 504 643H447Q440 643 436 647Z" />
<glyph unicode="&#xf7;" glyph-name="divide" horiz-adv-x="609" d="M339 501T334 507T330 524L341 592Q343 603 350 610T369 617H439Q463 617 460 592L449 524Q445 501 421 501H350Q339 501 334 507ZM145 406H593L577 306H129L145 406ZM274 95T269 101T265 118L276
186Q281 211 304 211H374Q400 211 395 186L385 118Q381 95 356 95H285Q274 95 269 101Z" />
<glyph unicode="&#xf8;" glyph-name="oslash" horiz-adv-x="568" d="M552 471Q576 427 576 349Q576 301 567 242Q552 144 519 91T430 16T285 -6Q184 -6 133 38L97 0H38L106 70Q79 112 79 179Q79 228 87 279Q104 385 137 442T226 520T371 542Q478 542 524 503L556
536H615L552 471ZM201 174T202 169L438 414Q418 444 354 444Q307 444 280 429T237 375T208 260Q201 208 201 184Q201 174 202 169ZM453 368L216 123Q237 94 299 94Q345 94 372 107T416 155T444 260Q453 328 453 354V368Z" />
<glyph unicode="&#xf9;" glyph-name="ugrave" horiz-adv-x="585" d="M148 -6T115 27T81 120Q81 153 86 181L142 536H266L213 195Q211 187 211 169Q211 105 285 105Q324 105 356 117T426 153L487 536H611L526 0H417L411 56Q362 24 319 9T215 -6Q148 -6 115 27ZM282
770H383L451 631H378L282 770Z" />
<glyph unicode="&#xfa;" glyph-name="uacute" horiz-adv-x="585" d="M148 -6T115 27T81 120Q81 153 86 181L142 536H266L213 195Q211 187 211 169Q211 105 285 105Q324 105 356 117T426 153L487 536H611L526 0H417L411 56Q362 24 319 9T215 -6Q148 -6 115 27ZM460
770H567L432 631H354L460 770Z" />
<glyph unicode="&#xfb;" glyph-name="ucircumflex" horiz-adv-x="585" d="M148 -6T115 27T81 120Q81 153 86 181L142 536H266L213 195Q211 187 211 169Q211 105 285 105Q324 105 356 117T426 153L487 536H611L526 0H417L411 56Q362 24 319 9T215 -6Q148 -6 115
27ZM379 770H464L545 631H472L411 714L317 631H244L379 770Z" />
<glyph unicode="&#xfc;" glyph-name="udieresis" horiz-adv-x="585" d="M148 -6T115 27T81 120Q81 153 86 181L142 536H266L213 195Q211 187 211 169Q211 105 285 105Q324 105 356 117T426 153L487 536H611L526 0H417L411 56Q362 24 319 9T215 -6Q148 -6 115 27ZM255
643T251 647T246 658Q246 655 261 752Q264 772 283 772H340Q356 772 356 757L341 662Q340 643 319 643H262Q255 643 251 647ZM457 643T453 647T448 658L463 752Q466 772 484 772H542Q558 772 558 757Q558 761 543 662Q540 643 521 643H464Q457 643 453 647Z" />
<glyph unicode="&#xfd;" glyph-name="yacute" horiz-adv-x="569" d="M96 -148Q157 -135 203 -101T281 0Q217 6 187 37T146 137L93 536H221L256 164Q261 130 278 117T320 102L455 419Q483 492 487 544H602Q602 447 549 335L393 6Q334 -118 264 -173T96 -237V-148ZM432
770H539L404 631H326L432 770Z" />
<glyph unicode="&#xfe;" glyph-name="thorn" horiz-adv-x="572" d="M179 763H304L268 537Q328 542 401 542Q492 542 534 496T576 353Q576 307 566 247Q547 122 483 58T317 -6Q234 -6 185 19L145 -237H20L179 763ZM365 99T399 140T448 272Q454 308 454 332Q454
388 433 415T367 442L252 441L201 117Q229 107 250 103T302 99Q365 99 399 140Z" />
<glyph unicode="&#xff;" glyph-name="ydieresis" horiz-adv-x="569" d="M96 -148Q157 -135 203 -101T281 0Q217 6 187 37T146 137L93 536H221L256 164Q261 130 278 117T320 102L455 419Q483 492 487 544H602Q602 447 549 335L393 6Q334 -118 264 -173T96 -237V-148ZM227
643T223 647T218 658Q218 655 233 752Q236 772 255 772H312Q328 772 328 757L313 662Q312 643 291 643H234Q227 643 223 647ZM429 643T425 647T420 658L435 752Q438 772 456 772H514Q530 772 530 757Q530 761 515 662Q512 643 493 643H436Q429 643 425 647Z" />
<glyph unicode="&#x2013;" glyph-name="endash" horiz-adv-x="519" d="M77 340H550L534 239H61L77 340Z" />
<glyph unicode="&#x2014;" glyph-name="emdash" horiz-adv-x="742" d="M77 340H773L757 239H61L77 340Z" />
<glyph unicode="&#x2018;" glyph-name="quoteleft" horiz-adv-x="211" d="M128 505T128 520L129 527L153 676Q160 719 187 735T247 752Q264 752 275 749L268 704Q243 704 238 678L232 641H241Q258 641 258 625V620L244 527Q240 505 220 505H144Q128 505 128 520Z" />
<glyph unicode="&#x2019;" glyph-name="quoteright" horiz-adv-x="211" d="M137 505T129 507L137 553Q163 553 167 579L172 615H163Q155 615 151 619T146 632V636L161 729Q164 752 185 752H261Q268 752 272 748T276 736L275 729L251 580Q244 537 218 521T158 505Q137
505 129 507Z" />
<glyph unicode="&#x201a;" glyph-name="quotesinglbase" horiz-adv-x="211" d="M47 -116T40 -115T31 -114L38 -69Q64 -69 68 -42L74 -6H65Q57 -6 52 -2T47 11Q47 14 48 15L63 108Q66 131 86 131H162Q178 131 178 115L177 108L153 -41Q146 -84 119 -100T59 -116Q47
-116 40 -115Z" />
<glyph unicode="&#x201c;" glyph-name="quotedblleft" horiz-adv-x="361" d="M128 505T128 520L129 527L153 676Q160 719 187 735T247 752Q264 752 275 749L268 704Q243 704 238 678L232 641H241Q258 641 258 625V620L244 527Q240 505 220 505H144Q128 505 128
520ZM279 505T279 520L280 527L304 676Q311 719 338 735T398 752Q415 752 426 749L419 704Q394 704 389 678L383 641H392Q409 641 409 625V620L395 527Q391 505 371 505H295Q279 505 279 520Z" />
<glyph unicode="&#x201d;" glyph-name="quotedblright" horiz-adv-x="361" d="M137 505T129 507L137 553Q163 553 167 579L172 615H163Q155 615 151 619T146 632V636L161 729Q164 752 185 752H261Q268 752 272 748T276 736L275 729L251 580Q244 537 218 521T158
505Q137 505 129 507ZM288 505T280 507L288 553Q314 553 318 579L323 615H314Q306 615 302 619T297 632V636L312 729Q315 752 336 752H412Q419 752 423 748T427 736L426 729L402 580Q395 537 369 521T309 505Q288 505 280 507Z" />
<glyph unicode="&#x201e;" glyph-name="quotedblbase" horiz-adv-x="361" d="M47 -116T40 -115T31 -114L38 -69Q64 -69 68 -42L74 -6H65Q57 -6 52 -2T47 11Q47 14 48 15L63 108Q66 131 86 131H162Q178 131 178 115L177 108L153 -41Q146 -84 119 -100T59 -116Q47
-116 40 -115ZM198 -116T191 -115T182 -114L189 -69Q215 -69 219 -42L225 -6H216Q208 -6 203 -2T198 11Q198 14 199 15L214 108Q217 131 237 131H313Q329 131 329 115L328 108L304 -41Q297 -84 270 -100T210 -116Q198 -116 191 -115Z" />
<glyph unicode="&#x2022;" glyph-name="bullet" horiz-adv-x="319" d="M126 299T119 307T114 331L130 431Q132 447 142 456T169 466H263Q293 466 293 441Q293 435 292 431L276 331Q271 299 235 299H141Q126 299 119 307Z" />
<glyph unicode="&#x2039;" glyph-name="guilsinglleft" horiz-adv-x="367" d="M79 282L331 496L385 434L205 281L338 126L267 62L79 282Z" />
<glyph unicode="&#x203a;" glyph-name="guilsinglright" horiz-adv-x="367" d="M59 126L239 280L107 435L180 496L365 279L110 62L59 126Z" />
</font>
</defs>
</svg>
