<?xml version="1.0" standalone="no"?>
<!DOCTYPE svg PUBLIC "-//W3C//DTD SVG 1.1//EN" "http://www.w3.org/Graphics/SVG/1.1/DTD/svg11.dtd">
<svg xmlns="http://www.w3.org/2000/svg">
<defs >
<font id="Lemon" horiz-adv-x="591" ><font-face
    font-family="Lemon"
    units-per-em="1000"
    panose-1="2 0 0 0 0 0 0 0 0 0"
    ascent="1019"
    descent="-287"
    alphabetic="0" />
<glyph unicode=" " glyph-name="space" horiz-adv-x="300" />
<glyph unicode="!" glyph-name="exclam" horiz-adv-x="458" d="M199 279Q129 279 129 364Q129 385 138 490T148 640T123 708Q189 775 297 775T405 672Q405 625 391 575T364 485T342 423T319 363T301 317Q281 299 252 289T199 279ZM134 207T97 169T60 84T90 6T170
-25T256 13T293 98T263 176T183 207Z" />
<glyph unicode="&quot;" glyph-name="quotedbl" horiz-adv-x="516" d="M359 446Q300 446 300 496Q300 526 326 600T352 707T345 759Q390 780 437 780Q496 780 496 730Q496 698 470 624T444 519T451 467Q406 446 359 446ZM129 446Q70 446 70 496Q70 526 96 600T122
707T115 759Q160 780 207 780Q266 780 266 730Q266 698 240 624T214 519T221 467Q176 446 129 446Z" />
<glyph unicode="#" glyph-name="numbersign" horiz-adv-x="733" d="M342 600L500 603Q522 698 536 754Q552 818 615 818T731 771Q693 714 657 605H667Q751 605 751 529Q751 482 731 448Q692 464 617 466L574 303H591Q675 303 675 227Q675 180 655 146Q615 162
538 164Q518 85 495 5Q465 -103 384 -103Q335 -103 294 -71Q335 -33 378 115L390 160Q324 158 220 150L181 5Q151 -103 70 -103Q21 -103 -20 -71Q21 -33 64 115L71 141Q54 140 26 140Q-18 140 -18 202T16 316Q52 302 113 298L148 443Q131 442 102 442Q58 442 58
504T92 618Q126 604 185 600Q202 676 222 754Q238 818 301 818T417 771Q376 712 342 600ZM259 298L428 301L467 462Q403 460 300 452Q282 390 259 298Z" />
<glyph unicode="$" glyph-name="dollar" horiz-adv-x="724" d="M156 5T109 41T62 139T91 258Q126 220 186 194T304 167Q387 167 406 222Q328 233 270 256T180 303T131 358T108 408T103 448Q103 552 174 605T353 670Q366 725 366 754T364 799Q418 853 450 853Q479
853 479 802T452 673Q661 665 661 556Q661 499 636 455Q573 496 445 496Q345 496 339 433Q473 407 528 384T608 337Q663 286 663 209Q663 117 578 63T371 -1Q358 -58 358 -92T362 -142Q313 -194 278 -194Q246 -194 246 -139T271 -1Q156 5 109 41Z" />
<glyph unicode="%" glyph-name="percent" horiz-adv-x="1150" d="M330 13Q376 64 434 177Q478 267 547 411T658 640T765 725Q803 725 832 699Q786 654 732 546T599 259T494 28T417 -25T330 13ZM18 417Q18 316 75 255T238 193T421 272T500 476Q500 629 382 656Q380
682 374 690Q351 700 314 700Q182 700 100 622T18 417ZM239 307Q216 307 203 334T190 405Q190 493 233 559Q248 562 259 562Q322 562 322 478Q322 413 297 360T239 307ZM651 205Q651 104 708 43T871 -19T1054 60T1133 264Q1133 417 1015 444Q1013 470 1007 478Q984
488 947 488Q815 488 733 410T651 205ZM872 95Q849 95 836 122T823 193Q823 281 866 347Q881 350 892 350Q955 350 955 266Q955 201 930 148T872 95Z" />
<glyph unicode="&amp;" glyph-name="ampersand" horiz-adv-x="758" d="M404 642Q346 628 315 593T283 516T314 447T400 419T581 447T747 475T788 421T769 319Q741 325 707 325T632 317Q632 210 599 126T509 -10Q395 -112 247 -112Q135 -112 75 -55T15 80T57 227T178
343Q130 372 105 417T80 512Q80 615 180 695T447 775Q533 775 583 743T633 661T600 586T527 560T455 581T404 642ZM333 91Q392 91 453 147T526 309Q414 297 372 297T304 301Q244 237 244 173Q244 135 269 113T333 91Z" />
<glyph unicode="&apos;" glyph-name="quotesingle" horiz-adv-x="286" d="M129 446Q70 446 70 496Q70 526 96 600T122 707T115 759Q160 780 207 780Q266 780 266 730Q266 698 240 624T214 519T221 467Q176 446 129 446Z" />
<glyph unicode="(" glyph-name="parenleft" horiz-adv-x="415" d="M148 -156T109 -74T70 147T107 437T206 695T329 801T425 758Q332 674 286 518T239 243T264 41T357 -108Q288 -156 225 -156Q148 -156 109 -74Z" />
<glyph unicode=")" glyph-name="parenright" horiz-adv-x="415" d="M266 801T305 718T345 497T308 208T209 -50T86 -156T-10 -113Q83 -29 129 127T176 402T151 604T58 753Q127 801 190 801Q266 801 305 718Z" />
<glyph unicode="*" glyph-name="asterisk" horiz-adv-x="592" d="M313 433Q252 347 243 310Q193 314 152 339T110 386T134 435T212 508Q132 536 74 537Q67 564 67 600T81 663T123 689T254 627Q253 731 239 768Q293 800 334 800T387 786T400 739T378 625Q485 659
509 681Q537 657 557 623T577 567Q577 535 538 524T415 506Q455 452 472 433T509 399Q494 359 463 328T408 296Q363 296 313 433ZM314 461Q340 487 401 513Q370 568 370 609Q332 604 317 604T269 609Q262 551 235 514Q295 492 314 461Z" />
<glyph unicode="+" glyph-name="plus" horiz-adv-x="733" d="M139 283Q100 283 100 347T131 457Q185 440 292 440Q290 518 290 557Q290 636 366 636Q410 636 445 618Q429 579 429 522T431 443Q492 446 554 446Q633 446 633 370Q633 326 615 291Q576 307 505 307Q483
307 443 305Q453 195 453 142Q453 103 389 103T279 134Q296 188 296 292Q201 283 139 283Z" />
<glyph unicode="," glyph-name="comma" horiz-adv-x="333" d="M118 -2L48 88Q50 136 88 172T176 208T255 174T284 93Q284 -11 214 -91T27 -196L12 -152Q59 -130 88 -86T118 -2Z" />
<glyph unicode="-" glyph-name="hyphen" horiz-adv-x="528" d="M118 183Q55 183 55 256Q55 309 83 370Q104 363 144 363T274 395T410 427Q473 427 473 354Q473 301 445 240Q424 247 384 247T254 215T118 183Z" />
<glyph unicode="." glyph-name="period" horiz-adv-x="333" d="M111 -25T81 5T50 83T87 169T173 207T252 177T283 99T246 13T160 -25Z" />
<glyph unicode="/" glyph-name="slash" horiz-adv-x="397" d="M181 23Q151 -85 70 -85Q21 -85 -20 -53Q21 -15 63 133T162 520T222 772Q238 836 301 836T417 789Q369 718 336 600T256 303T181 23Z" />
<glyph unicode="0" glyph-name="zero" horiz-adv-x="758" d="M55 295Q55 477 165 588T452 700Q503 700 533 685Q542 675 545 637Q626 618 664 550T703 380Q703 203 598 89T351 -25T133 63T55 295ZM251 208T277 163T357 117T454 198T499 380Q499 524 379 524Q360
524 332 519Q251 414 251 280Q251 208 277 163Z" />
<glyph unicode="1" glyph-name="one" horiz-adv-x="569" d="M180 145Q180 207 222 417Q154 417 106 455T47 573Q128 589 200 621T322 677T410 700Q481 700 481 620Q481 571 442 393T403 138T432 12Q365 -25 304 -25Q180 -25 180 145Z" />
<glyph unicode="2" glyph-name="two" horiz-adv-x="715" d="M244 32Q178 -19 122 -19T39 14T12 99T55 196T173 241Q196 241 218 236Q303 308 345 361T387 453T366 514T308 535Q249 535 214 480Q197 455 184 417Q139 422 116 448T93 513Q93 588 165 644T386 700Q507
700 567 643T628 510Q628 377 391 191Q477 177 526 177L643 222Q654 176 654 138Q654 56 609 16T500 -25T382 -12T244 32Z" />
<glyph unicode="3" glyph-name="three" horiz-adv-x="653" d="M98 -156T44 -127T-10 -47T24 29T99 56T177 34T238 -29Q285 -16 322 25T360 113T323 195Q262 160 198 160Q118 160 118 234Q118 276 155 304T268 333Q295 333 310 331Q337 352 352 384T368 451T347
509T291 533T220 505T168 416Q113 419 86 445T59 513Q59 588 131 644T347 700Q414 700 462 684T535 640Q582 588 582 523Q582 405 454 283Q583 221 583 103Q583 -4 477 -80T197 -156Q98 -156 44 -127Z" />
<glyph unicode="4" glyph-name="four" horiz-adv-x="707" d="M364 -32Q364 -7 368 16Q286 0 205 0Q19 0 19 115Q19 181 115 354Q151 419 181 497T211 630Q211 655 203 677Q264 700 310 700Q445 700 445 566Q445 386 186 130H394Q421 224 460 304Q487 331 545 354T652
377Q667 377 672 372T677 349T660 268Q608 78 608 -41Q608 -98 632 -134Q562 -170 495 -170T396 -132T364 -32Z" />
<glyph unicode="5" glyph-name="five" horiz-adv-x="635" d="M114 -156T61 -126T7 -47T41 29T114 56Q196 56 239 -26Q290 -18 321 18T353 102T317 183T209 218Q173 218 127 208Q98 210 98 231L135 527Q98 569 98 610T122 676T188 700Q257 700 298 630Q349 630
435 648T594 693Q600 663 600 628Q600 456 409 456Q399 456 301 462L290 348Q406 342 492 289Q536 262 562 217T588 114Q588 0 483 -78T210 -156Q114 -156 61 -126Z" />
<glyph unicode="6" glyph-name="six" horiz-adv-x="674" d="M656 306Q656 166 547 71T288 -25Q174 -25 106 45T37 250Q37 360 81 468T192 654T339 779T485 827T583 804T638 727Q538 693 467 643T343 511Q378 519 408 519Q525 519 590 460T656 306ZM247 179T266
144T325 108T399 154T433 283Q433 332 415 365T356 398T282 353T247 230Q247 179 266 144Z" />
<glyph unicode="7" glyph-name="seven" horiz-adv-x="612" d="M137 0Q137 83 198 206T363 462Q314 459 272 459Q172 459 117 506T61 637Q61 669 65 700Q143 674 259 657T446 639Q487 709 552 709Q592 709 614 685T637 626Q637 557 569 516Q499 380 435 211T371
-51Q371 -81 380 -98Q327 -121 273 -121Q137 -121 137 0Z" />
<glyph unicode="8" glyph-name="eight" horiz-adv-x="675" d="M51 224T92 280T203 378Q169 410 150 431T113 486T95 556Q95 654 174 713T386 773Q460 773 512 755T590 707Q636 652 636 592T601 484T509 400Q570 358 609 305T648 197Q648 97 554 36T316 -26Q237
-26 182 -8T100 42Q51 97 51 160ZM344 261L287 308Q233 266 233 196Q233 151 258 119T323 87T388 109T415 161T401 208T344 261ZM465 608T445 634T388 661T329 642T306 592T340 531L422 460Q465 500 465 568Q465 608 445 634Z" />
<glyph unicode="9" glyph-name="nine" horiz-adv-x="746" d="M177 171T120 232T62 382T113 545T248 660T437 700T612 637T681 461T639 236T531 42T384 -91T229 -143Q109 -143 81 -43Q276 11 386 182Q338 171 290 171Q177 171 120 232ZM471 506T452 541T393 576T319
530T285 402Q285 353 303 320T362 287T436 332T471 455Q471 506 452 541Z" />
<glyph unicode=":" glyph-name="colon" horiz-adv-x="333" d="M111 -25T81 5T50 83T87 169T173 207T252 177T283 99T246 13T160 -25ZM158 328T128 358T97 436T134 522T220 560T299 530T330 452T293 366T207 328Z" />
<glyph unicode=";" glyph-name="semicolon" horiz-adv-x="333" d="M118 -2L48 88Q50 136 88 172T176 208T255 174T284 93Q284 -11 214 -91T27 -196L12 -152Q59 -130 88 -86T118 -2ZM158 328T128 358T97 436T134 522T220 560T299 530T330 452T293 366T207 328Z" />
<glyph unicode="&lt;" glyph-name="less" horiz-adv-x="733" d="M610 502Q560 497 505 475T381 417T281 369Q329 343 420 312T568 257T625 214Q625 183 593 147T523 91Q491 125 434 155T291 226T166 287T116 342T103 429Q150 432 219 468T346 546Q499 656 537
656Q567 656 588 607T610 502Z" />
<glyph unicode="=" glyph-name="equal" horiz-adv-x="733" d="M259 589L554 595Q633 595 633 519Q633 475 615 440Q576 456 509 456T320 444T139 432Q100 432 100 496T131 606Q185 589 259 589ZM259 302L554 308Q633 308 633 232Q633 188 615 153Q576 169 509
169T320 157T139 145Q100 145 100 209T131 319Q185 302 259 302Z" />
<glyph unicode="&gt;" glyph-name="greater" horiz-adv-x="733" d="M118 241Q168 246 223 268T347 326T447 374Q399 400 308 431T160 486T103 529Q103 560 135 596T205 652Q237 618 294 588T437 517T562 456T612 401T625 314Q578 311 509 275T382 198Q229 87 191
87Q161 87 140 136T118 241Z" />
<glyph unicode="?" glyph-name="question" horiz-adv-x="602" d="M214 381Q273 396 309 435T345 514Q345 600 268 600Q182 600 144 482Q97 487 72 517T47 589Q47 661 111 718T301 775T493 709T559 549Q559 427 489 345T328 263Q278 263 246 296T214 381ZM199 207T162
169T125 84T155 6T235 -25T321 13T358 98T328 176T248 207Z" />
<glyph unicode="@" glyph-name="at" horiz-adv-x="1090" d="M293 288Q293 403 360 497Q392 543 446 571T562 600T645 594Q651 573 651 560Q699 592 759 592Q810 592 810 544Q810 514 788 424T765 278Q765 198 816 198Q875 198 914 256T953 413Q953 530 874 616Q833
659 761 684T592 710T414 673T280 576T200 441T171 279T200 120T284 6Q389 -74 558 -74Q778 -74 917 65Q937 17 937 -21Q937 -83 880 -133T733 -209T545 -235T366 -208T214 -126T102 25T60 237T95 449T196 625T370 752T596 800T800 768T940 681Q1050 569 1050 420Q1050
333 1017 257T912 129T743 77Q678 77 644 111T602 199L594 203Q566 153 524 127T436 100Q376 100 335 148T293 288ZM603 287Q616 412 643 511Q557 503 511 458T464 348Q464 310 483 286T539 261T603 287Z" />
<glyph unicode="A" glyph-name="A" horiz-adv-x="729" d="M635 578L627 340Q627 217 647 133T724 17Q655 -26 584 -26Q459 -26 430 176H226Q207 111 207 77T215 21Q141 -26 83 -26Q-6 -26 -6 82Q-6 136 27 218T116 406T187 546Q176 600 162 652Q214 688 262 706T367
725T446 700Q503 725 540 725T595 713T621 678Q635 638 635 578ZM434 555H402Q312 381 268 281H423Q423 390 434 555Z" />
<glyph unicode="B" glyph-name="B" horiz-adv-x="757" d="M116 -26T88 11T60 123T123 546L70 653Q183 726 276 726Q338 726 350 666Q453 725 552 725Q617 725 666 695Q724 660 724 574Q724 432 567 368Q727 340 727 189Q727 91 646 33T465 -25T303 17Q244 -26
180 -26ZM496 258T469 280T395 302T292 283Q276 198 276 138Q325 115 378 115T463 140T496 211ZM431 593Q392 593 347 578Q341 539 310 378Q393 384 451 418T509 518Q509 593 431 593Z" />
<glyph unicode="C" glyph-name="C" horiz-adv-x="683" d="M30 307Q30 377 60 449T145 584T288 685T471 725T619 690T673 593T633 497T540 462T447 484T380 549Q326 523 287 447T248 295T273 174T344 129T425 176T461 289Q562 289 605 273T649 204Q649 121 559
48T333 -25T114 59T30 307Z" />
<glyph unicode="D" glyph-name="D" horiz-adv-x="776" d="M60 163Q60 220 87 364T120 546L67 653Q194 725 283 725Q327 725 349 695Q432 724 502 724Q632 724 704 640T776 429Q776 263 654 124Q595 57 499 16T292 -25T121 23T60 163ZM272 125Q293 121 319 121Q428
121 489 199T550 393Q550 486 508 541T387 596Q375 596 347 592Q340 541 311 365T272 125Z" />
<glyph unicode="E" glyph-name="E" horiz-adv-x="619" d="M116 -26T88 11T60 123T123 546L70 653Q183 726 276 726Q335 726 349 670Q462 673 631 721Q639 688 639 656Q639 575 586 534T448 493Q391 493 336 517Q328 472 308 370Q345 363 371 363Q412 371 461 386Q466
369 466 331T435 269T366 246T287 255Q276 192 276 136H438Q514 147 591 175Q597 157 597 126Q597 67 563 21T467 -25Q435 -25 374 -13T282 3Q234 -26 175 -26Z" />
<glyph unicode="F" glyph-name="F" horiz-adv-x="589" d="M116 -26T88 11T60 123T123 546L70 653Q183 726 276 726Q335 726 349 670Q451 673 621 721Q629 676 629 645Q629 581 581 545T468 508T340 539Q340 539 331 490Q324 451 308 371Q342 363 372 363Q413 371
462 386Q467 369 467 331T436 269T366 246T287 255Q276 192 276 164Q276 67 306 19Q246 -26 181 -26Z" />
<glyph unicode="G" glyph-name="G" horiz-adv-x="722" d="M488 192L437 297Q544 368 630 368Q702 368 702 287Q702 264 675 147T647 -33T674 -125Q618 -166 557 -166T471 -126T445 -9Q391 -25 333 -25Q197 -25 114 59T30 307Q30 377 60 449T145 584T288 685T471
725T619 690T673 593T633 497T540 462T447 484T380 549Q326 523 287 447T248 288T280 164T362 122Q433 122 488 192Z" />
<glyph unicode="H" glyph-name="H" horiz-adv-x="824" d="M501 129Q501 171 515 267H289Q276 192 276 164Q276 67 306 19Q246 -26 181 -26T88 11T60 123T123 546L70 653Q183 726 276 726Q353 726 353 632Q353 604 311 386H535Q539 411 564 546L511 653Q624 726
717 726Q794 726 794 632Q794 601 756 402T717 164Q717 67 747 19Q687 -26 622 -26T529 11T501 129Z" />
<glyph unicode="I" glyph-name="I" horiz-adv-x="388" d="M121 -26T93 11T65 123T128 546L75 653Q188 726 281 726Q358 726 358 632Q358 601 320 402T281 164Q281 67 311 19Q251 -26 186 -26Z" />
<glyph unicode="J" glyph-name="J" horiz-adv-x="553" d="M302 489Q161 489 97 520T32 636Q32 666 42 721Q111 692 206 675T355 657Q393 724 460 724Q504 724 528 697T553 627T520 547L485 260Q476 183 446 122T373 26Q288 -45 198 -45T54 -6T0 90T33 179T110
212T193 181T251 88L276 108Q249 183 249 228Q249 253 268 343T302 489Z" />
<glyph unicode="K" glyph-name="K" horiz-adv-x="720" d="M116 -26T88 11T60 123T123 546L70 653Q183 726 276 726Q353 726 353 632Q353 604 311 386L358 425Q504 547 504 633Q504 659 496 680Q570 725 636 725Q734 725 734 625Q734 513 535 398Q628 100 736 30Q714
8 671 -8T593 -25Q525 -25 484 10T410 139L352 302L290 269Q276 187 276 164Q276 67 306 19Q246 -26 181 -26Z" />
<glyph unicode="L" glyph-name="L" horiz-adv-x="549" d="M116 -26T88 11T60 123T123 546L70 653Q183 726 276 726Q353 726 353 632Q353 604 315 398T276 136H384Q460 147 537 175Q543 157 543 126Q543 67 509 21T413 -25Q372 -25 271 -3Q229 -26 182 -26Q116 -26 88 11Z" />
<glyph unicode="M" glyph-name="M" horiz-adv-x="1036" d="M766 -26T738 11T710 122T757 458H741Q680 378 640 267T591 67Q542 21 478 21Q452 21 433 39T394 104Q357 197 341 458H325Q276 243 276 155T306 19Q246 -26 181 -26T88 11T60 123T123 546L70 653Q183
726 276 726Q317 726 345 718T400 685T444 618Q483 521 500 335H512Q564 488 656 598Q706 657 775 691T926 725Q1003 725 1003 632Q1003 601 965 402T926 164Q926 67 956 19Q896 -26 831 -26Z" />
<glyph unicode="N" glyph-name="N" horiz-adv-x="870" d="M578 157L602 173Q537 298 537 447Q537 563 594 644T757 725Q812 725 850 706Q840 650 814 511Q758 212 758 168Q758 73 790 26Q746 -3 709 -14T614 -25T508 0T430 66T378 169Q341 276 333 441H317Q271
233 271 150T301 19Q241 -26 176 -26T83 11T55 123T118 546L65 653Q177 725 265 725T398 695T461 605T487 481T517 323T578 157Z" />
<glyph unicode="O" glyph-name="O" horiz-adv-x="774" d="M25 306Q25 496 131 610T421 725Q480 725 505 702T531 629Q531 622 529 602Q566 632 611 632Q672 632 715 578T759 420T726 231T639 90T515 5T371 -25Q211 -25 118 66T25 306ZM524 259Q460 337 460 427T500
572Q482 575 464 575Q393 575 341 532Q243 452 243 310Q243 229 279 175T379 121Q428 121 468 159T524 259Z" />
<glyph unicode="P" glyph-name="P" horiz-adv-x="717" d="M282 219Q276 183 276 164Q276 67 306 19Q246 -26 181 -26T88 11T60 123T123 546L70 653Q183 726 276 726Q302 726 333 717T377 695Q451 724 514 724Q608 724 662 659T717 500Q717 388 636 300Q597 257
531 231T397 205T282 219ZM301 333Q315 330 330 330Q394 330 444 375T494 486Q494 532 468 564T393 596Q373 596 347 588Q327 451 301 333Z" />
<glyph unicode="Q" glyph-name="Q" horiz-adv-x="774" d="M25 306Q25 496 131 610T421 725Q480 725 505 702T531 629Q531 622 529 602Q566 632 611 632Q672 632 715 578T759 421Q759 239 667 123T438 -18V-24Q498 -32 530 -32Q628 -32 709 -2Q720 -32 720 -68Q720
-128 683 -168T575 -209Q443 -209 260 -104Q212 -169 137 -169Q98 -169 76 -144T54 -82T85 -16T175 14V22Q102 64 64 137T25 306ZM524 259Q460 337 460 427T500 572Q482 575 464 575Q393 575 341 532Q243 452 243 310Q243 229 279 175T379 121Q428 121 468 159T524
259Z" />
<glyph unicode="R" glyph-name="R" horiz-adv-x="733" d="M427 139L392 240Q340 240 287 256Q276 192 276 164Q276 67 306 19Q246 -26 181 -26T88 11T60 123T123 546L70 653Q182 725 276 725Q348 725 387 695Q462 725 522 725Q614 725 668 663T722 514Q722 449
689 389T592 290Q626 193 668 123T753 30Q732 8 689 -8T610 -25Q542 -25 501 9T427 139ZM331 365Q411 365 455 406T500 494T474 569T400 597Q374 597 348 590Q316 399 308 366Q315 365 331 365Z" />
<glyph unicode="S" glyph-name="S" horiz-adv-x="688" d="M414 725Q546 725 612 695T678 598T638 497T545 462T452 488T394 559Q357 559 324 535T281 471Q479 423 565 359T651 195T561 35T317 -25T99 17T35 128T78 255Q99 210 158 174T276 138Q383 138 412 206Q246
228 159 298T72 469Q72 536 108 588T200 669Q310 725 414 725Z" />
<glyph unicode="T" glyph-name="T" horiz-adv-x="595" d="M13 552Q13 633 55 674T155 715T315 695T467 674Q552 690 629 713Q637 687 637 648Q637 567 591 526T472 485Q454 485 424 487Q369 198 369 164Q369 67 399 19Q339 -26 274 -26T181 11T153 123T211 521Q98
506 21 487Q13 512 13 552Z" />
<glyph unicode="U" glyph-name="U" horiz-adv-x="827" d="M745 19Q685 -26 627 -26T535 4T501 94Q501 111 502 120L492 123Q393 -25 226 -25Q65 -25 65 145Q65 202 81 296T108 456T124 546L71 653Q134 689 180 707T274 725T337 701T354 642T321 424T287 209Q287
130 341 130Q381 130 432 181T515 321Q494 382 494 447Q494 563 551 644T714 725Q772 725 807 706Q798 652 772 510Q715 209 715 164Q715 67 745 19Z" />
<glyph unicode="V" glyph-name="V" horiz-adv-x="728" d="M336 326L333 158H359Q415 277 462 412T509 619Q509 647 498 673Q574 725 638 725Q738 725 738 612Q738 556 708 471T617 257T553 118L567 63Q521 26 449 1T290 -25T161 3T119 97L120 281Q120 510 64 604Q38
647 0 673Q68 725 156 725Q236 725 275 663T326 513Q336 434 336 326Z" />
<glyph unicode="W" glyph-name="W" horiz-adv-x="1018" d="M626 399L623 158H649Q705 277 752 412T799 619Q799 647 788 673Q864 725 928 725Q1028 725 1028 612Q1028 556 998 471T907 257T843 118L857 63Q771 -25 642 -25T479 22Q395 -25 299 -25T161 3T119 97L120
281Q120 510 64 604Q38 647 0 673Q68 725 156 725Q236 725 275 663T326 513Q336 434 336 326L333 158H359Q416 282 455 452Q445 548 411 645Q448 674 480 686T565 699Q674 699 674 598Q674 538 626 399Z" />
<glyph unicode="X" glyph-name="X" horiz-adv-x="749" d="M564 -25Q497 -25 458 10T363 150L321 228Q253 147 253 82Q253 50 262 27Q186 -25 114 -25Q61 -25 36 2T10 69Q10 188 249 363L160 531Q108 631 38 654Q106 725 199 725Q266 725 305 690T400 550L441 472Q511
552 511 618Q511 648 501 673Q578 725 650 725Q703 725 728 698T754 631Q754 505 516 331L603 169Q655 69 725 46Q657 -25 564 -25Z" />
<glyph unicode="Y" glyph-name="Y" horiz-adv-x="672" d="M122 180Q121 200 118 264T113 361T102 453T80 546Q48 638 -10 678Q68 725 116 725T197 709T249 671T286 608T310 535T323 450T330 366T333 282T336 209H350Q389 302 421 422T454 613Q454 648 439 678Q514
725 572 725Q682 725 682 609Q682 550 637 411T531 142Q452 -27 369 -102T154 -177Q96 -177 49 -154Q-8 -127 -8 -63T41 69Q63 37 100 20T181 2T265 26T322 97Q269 84 225 84Q130 84 122 180Z" />
<glyph unicode="Z" glyph-name="Z" horiz-adv-x="674" d="M39 -20T10 7T-20 85T18 176T125 217L317 473Q203 476 136 515T69 636Q69 674 79 721Q150 692 276 673T462 653Q503 724 574 724Q621 724 647 695T674 622Q674 554 590 515L334 195L510 176L631 231Q639
195 639 152Q639 64 595 20T480 -25Q345 -25 220 54Q158 -20 87 -20Q39 -20 10 7Z" />
<glyph unicode="[" glyph-name="bracketleft" horiz-adv-x="481" d="M85 15Q85 231 163 584Q179 657 201 701T259 766T331 794T422 800T494 776T511 709T506 649Q491 656 447 662T376 668Q317 551 294 383T271 -25Q298 -25 340 -19T397 -6Q405 -33 405 -58Q405
-157 337 -157Q260 -157 226 -154T153 -136T99 -84T85 15Z" />
<glyph unicode="\" glyph-name="backslash" horiz-adv-x="397" d="M216 23Q187 125 141 303T62 599T-20 789Q32 836 95 836T175 772Q179 758 235 520T333 134T417 -53Q376 -85 327 -85Q246 -85 216 23Z" />
<glyph unicode="]" glyph-name="bracketright" horiz-adv-x="481" d="M396 628Q396 412 318 59Q302 -14 280 -58T222 -123T150 -151T59 -157T-13 -133T-30 -66T-25 -6Q-10 -13 34 -19T105 -25Q164 92 187 260T210 668Q183 668 141 662T84 649Q79 666 79 708T93
775T144 800Q221 800 255 797T328 779T382 727T396 628Z" />
<glyph unicode="^" glyph-name="asciicircum" horiz-adv-x="733" d="M468 959Q467 955 467 946Q467 899 496 832T561 708Q655 559 655 514Q655 478 600 450T487 422Q472 422 465 423Q465 492 431 582Q417 619 413 631T390 684T371 728Q352 695 313 606T243 462T189
407Q152 407 112 447T58 528Q96 555 144 634Q158 657 210 750T291 888T362 946T468 959Z" />
<glyph unicode="_" glyph-name="underscore" horiz-adv-x="723" d="M179 -25Q179 -25 395 -22Q509 -19 624 -19Q708 -19 708 -95Q708 -142 688 -176Q646 -158 547 -158T270 -170T59 -182Q15 -182 15 -120T49 -6Q97 -25 179 -25Z" />
<glyph unicode="`" glyph-name="grave" horiz-adv-x="376" d="M300 653Q258 653 179 686T53 720Q44 720 30 718Q20 752 20 791Q20 886 76 886Q113 886 160 853T260 779T356 729Q353 690 338 672T300 653Z" />
<glyph unicode="a" glyph-name="a" horiz-adv-x="736" d="M427 123L417 128Q390 56 340 16T227 -25Q142 -25 91 39T40 210Q40 376 151 488T429 600Q472 600 508 592Q514 564 515 543Q565 575 618 575Q691 575 691 496Q691 468 660 327T628 118T659 24Q603 -25
543 -25T455 11T427 123ZM228 259Q228 210 248 184T307 157T382 185T444 262Q453 363 483 501Q382 501 305 428T228 259Z" />
<glyph unicode="b" glyph-name="b" horiz-adv-x="739" d="M66 190Q66 274 131 622L75 702Q137 739 179 757T264 775T327 758T347 704Q347 640 308 453L318 448Q390 591 528 591Q606 591 650 525T694 364T657 194T560 72T430 0T291 -25Q178 -25 122 27T66 190ZM264
91Q375 91 444 167T514 337Q514 380 491 415T429 450T359 419T309 345T280 248Q264 163 264 91Z" />
<glyph unicode="c" glyph-name="c" horiz-adv-x="638" d="M45 238Q45 398 155 499T432 600Q518 600 568 568T618 486T585 411T512 385T440 406T389 467Q326 441 290 375T253 243T279 136T347 95T415 123T442 206Q588 206 588 137Q588 78 514 27T319 -25T122 47T45 238Z" />
<glyph unicode="d" glyph-name="d" horiz-adv-x="748" d="M432 73L422 78Q344 -25 236 -25Q156 -25 101 38T45 210Q45 344 139 454Q185 508 262 541T434 575Q452 575 498 571Q500 592 507 622L451 702Q576 775 648 775Q689 775 706 759T723 697T679 440T634 141T665
24Q609 -25 549 -25T460 5T432 73ZM233 248Q233 191 262 158T336 125Q393 125 440 179Q456 357 485 487Q370 487 302 413T233 248Z" />
<glyph unicode="e" glyph-name="e" horiz-adv-x="657" d="M331 -25Q194 -25 120 46T45 238Q45 399 155 499T433 600Q526 600 574 559T622 449Q622 356 532 295T252 232Q255 168 281 132T346 95T413 121T442 206Q588 206 588 137Q588 78 516 27T331 -25ZM416 483Q365
483 323 432T261 312Q361 320 411 357T462 437Q462 457 450 470T416 483Z" />
<glyph unicode="f" glyph-name="f" horiz-adv-x="432" d="M55 317Q48 339 48 362Q48 410 75 435T144 461Q137 492 137 529Q137 639 194 718T355 798Q412 798 444 764T477 685T446 609T365 577T276 601L262 590L297 471Q349 478 403 498Q410 476 410 445T392 386T338
350Q274 55 274 -70Q274 -134 305 -161Q232 -210 175 -210Q63 -210 63 -72Q63 14 125 334Q80 325 55 317Z" />
<glyph unicode="g" glyph-name="g" horiz-adv-x="729" d="M239 280Q239 229 267 198T338 166Q395 166 440 220Q457 309 484 501Q372 501 306 436T239 280ZM457 -162T386 -198T237 -235T111 -206T63 -126T104 -21Q150 -89 242 -89Q302 -89 353 -38T422 113L412
118Q341 14 230 14Q146 14 98 79T50 252Q50 356 107 442Q172 541 288 579Q352 600 410 600T508 592Q514 565 515 543Q562 575 610 575Q679 575 679 504T670 359T642 199T588 39T505 -99Z" />
<glyph unicode="h" glyph-name="h" horiz-adv-x="773" d="M607 600Q728 600 728 479Q728 427 699 303T669 116T690 24Q637 -25 578 -25Q463 -25 463 99Q463 145 493 255T523 398Q523 443 489 443Q461 443 425 419T356 353T299 248T276 119T297 24Q244 -25 185
-25Q70 -25 70 99Q70 173 110 399Q144 598 149 622L93 702Q218 775 290 775Q331 775 348 759T365 704Q365 632 351 547T325 422L335 417Q442 600 607 600Z" />
<glyph unicode="i" glyph-name="i" horiz-adv-x="388" d="M378 720T338 693T247 665T167 685T137 739Q137 785 180 811T271 837T348 817T378 759ZM121 -25T93 6T65 100T129 441L73 525Q198 600 270 600Q311 600 328 583T345 526Q345 511 308 350T271 120T302 24Q246
-25 184 -25Z" />
<glyph unicode="j" glyph-name="j" horiz-adv-x="392" d="M375 720T335 693T244 665T164 685T134 739Q134 785 177 811T268 837T345 817T375 759ZM342 526Q342 442 260 37Q239 -68 187 -139T51 -210Q-8 -210 -38 -183T-68 -112T-38 -42T36 -15T129 -48L139 -34Q96
10 83 37T70 100T126 441L70 525Q195 600 267 600Q308 600 325 583T342 526Z" />
<glyph unicode="k" glyph-name="k" horiz-adv-x="724" d="M144 622L88 702Q213 775 285 775Q326 775 343 759T360 704T348 596T315 433T285 282L348 338Q357 346 377 363T406 389T430 411T452 436T468 459Q482 481 482 508T474 557Q545 600 608 600Q650 600 675
574T700 497T655 397T542 308Q573 205 622 119T704 16Q664 -25 580 -25Q518 -25 476 17T400 155L375 226L272 175Q271 164 271 142Q271 59 302 24Q232 -25 175 -25T92 12T65 116T102 386T144 622Z" />
<glyph unicode="l" glyph-name="l" horiz-adv-x="385" d="M149 622L93 702Q218 775 290 775Q331 775 348 759T365 697T321 440T276 144T307 24Q237 -25 180 -25T97 12T70 116T107 386T149 622Z" />
<glyph unicode="m" glyph-name="m" horiz-adv-x="1131" d="M693 422L703 417Q810 600 965 600Q1086 600 1086 479Q1086 427 1057 303T1027 116T1048 24Q995 -25 936 -25Q821 -25 821 99Q821 145 851 255T881 398Q881 443 847 443Q819 443 785 419T719 353T666
248T644 119T665 24Q612 -25 553 -25Q438 -25 438 99Q438 145 468 255T498 398Q498 443 464 443Q436 443 402 419T336 353T283 248T261 119T282 24Q229 -25 170 -25Q55 -25 55 99Q55 139 75 254T118 464L66 544Q165 600 249 600T333 524Q333 474 310 422L320 417Q427
600 582 600Q638 600 670 572T703 488Q703 458 693 422Z" />
<glyph unicode="n" glyph-name="n" horiz-adv-x="758" d="M111 -25T83 6T55 88T75 254T118 464L66 544Q165 600 249 600T333 524Q333 474 310 422L320 417Q427 600 592 600Q713 600 713 479Q713 427 684 303T654 116T675 24Q622 -25 563 -25Q448 -25 448 99Q448
145 478 255T508 398Q508 443 474 443Q446 443 410 419T341 353T284 248T261 119T282 24Q229 -25 170 -25Z" />
<glyph unicode="o" glyph-name="o" horiz-adv-x="715" d="M538 524Q594 524 634 479T675 349T645 191T566 72T455 1T328 -25Q197 -25 121 47T45 238Q45 399 148 499T412 600Q448 600 484 592Q495 559 496 517Q517 524 538 524ZM415 385Q415 413 428 448T472 504Q340
476 290 397Q247 329 247 257T276 142T352 98Q454 98 496 231Q415 281 415 385Z" />
<glyph unicode="p" glyph-name="p" horiz-adv-x="766" d="M104 -199T80 -169T55 -81T79 151T127 448L71 528Q133 564 178 582T267 601Q339 601 339 506Q339 493 335 453L345 448Q374 520 429 560T558 601T677 534T721 366Q721 232 627 122Q581 68 504 35T332 1Q303
1 256 6Q253 -29 253 -59Q253 -123 284 -150Q228 -199 166 -199ZM297 215L274 99Q395 102 467 178T540 346Q540 393 522 421T468 450Q344 450 297 215Z" />
<glyph unicode="q" glyph-name="q" horiz-adv-x="737" d="M387 -105T400 -30T418 72L408 77Q371 28 321 2T221 -25Q144 -25 92 35T40 210Q40 361 126 476Q168 532 237 566T384 600T525 566Q562 575 601 575Q691 575 691 477Q691 461 670 373Q609 109 609 -46L659
-126Q561 -199 474 -199Q428 -199 408 -182T387 -135ZM323 125Q388 125 434 191Q457 343 484 500Q457 506 435 506Q368 506 320 468Q229 399 229 270Q229 209 254 167T323 125Z" />
<glyph unicode="r" glyph-name="r" horiz-adv-x="529" d="M55 99Q55 139 75 254T118 464L66 544Q191 600 241 600T292 536Q292 501 259 390L269 385Q341 600 448 600Q497 600 523 570T549 503Q549 448 508 409T385 370Q261 370 261 115Q261 53 282 24Q220 -25
168 -25Q55 -25 55 99Z" />
<glyph unicode="s" glyph-name="s" horiz-adv-x="643" d="M374 467Q337 456 315 436T276 377Q445 352 514 305T583 171Q583 116 552 76T474 14Q382 -25 293 -25Q40 -25 40 84Q40 139 89 194Q114 159 164 134T263 109Q346 109 363 182Q211 200 143 250T75 391Q75
463 122 512T240 580T399 600T545 567T603 485T570 411T497 385T425 406T374 467Z" />
<glyph unicode="t" glyph-name="t" horiz-adv-x="476" d="M67 361Q60 389 60 413Q60 462 89 487T164 512Q164 564 137 625Q186 661 226 679T312 698T374 682T392 631T378 525Q418 531 459 542Q466 521 466 488T441 427T366 398H351Q315 235 315 147T346 24Q290
-25 227 -25T137 12T109 129Q109 177 144 381Q104 374 67 361Z" />
<glyph unicode="u" glyph-name="u" horiz-adv-x="764" d="M223 -25Q135 -25 100 18T65 126T87 306T109 471T88 551Q181 600 245 600Q286 600 304 584T323 530T293 349T262 170T281 117T331 97T397 121T454 191Q468 272 509 447L449 527Q550 600 641 600Q686 600
705 584T725 534T689 342T652 118T683 24Q627 -25 566 -25T477 2T450 73L440 78Q407 30 349 3T223 -25Z" />
<glyph unicode="v" glyph-name="v" horiz-adv-x="703" d="M95 110Q95 110 99 385Q99 501 45 557Q97 600 159 600Q240 600 269 528Q294 466 294 341T289 97H323Q475 416 475 512Q475 535 466 557Q540 600 600 600Q678 600 678 506Q678 463 656 399T589 233T541
127L554 69Q512 31 434 3T269 -25T139 6T95 110Z" />
<glyph unicode="w" glyph-name="w" horiz-adv-x="966" d="M96 89Q99 307 99 385Q99 501 45 557Q97 600 159 600Q236 600 265 536T294 343T289 97H323Q406 240 423 321Q422 372 409 438T379 532Q394 551 425 563T494 576T564 553T597 485Q597 457 588 432T570 381T555
337L551 97H585Q642 207 689 328T737 512Q737 535 728 557Q796 600 859 600Q941 600 941 506Q941 463 919 399T852 233T804 127L818 69Q779 39 701 7T557 -25Q453 -25 432 66Q338 -25 233 -25Q175 -25 136 1T96 89Z" />
<glyph unicode="x" glyph-name="x" horiz-adv-x="689" d="M337 89L289 177Q223 116 223 64Q223 39 231 18Q160 -25 97 -25Q55 -25 30 1T5 71Q5 135 61 190T194 283L223 297L163 407Q124 479 47 505Q109 600 209 600Q254 600 285 576T352 485L396 404Q456 461 456
511Q456 536 448 557Q519 600 582 600Q624 600 649 574T674 504Q674 440 618 385T485 292L463 281L526 167Q565 93 642 69Q579 -25 479 -25Q433 -25 403 -1T337 89Z" />
<glyph unicode="y" glyph-name="y" horiz-adv-x="695" d="M332 20Q285 3 238 3T159 31T122 107T113 246T105 376Q92 503 25 557Q72 600 143 600Q182 600 211 580T257 526T286 439Q303 351 303 201Q303 164 300 114H358Q461 392 461 493Q461 527 446 557Q516 600
568 600Q665 600 665 488Q665 399 583 175Q568 134 566 127Q439 -235 205 -235Q134 -235 88 -205T42 -125T79 -21Q127 -89 199 -89Q240 -89 275 -62T332 20Z" />
<glyph unicode="z" glyph-name="z" horiz-adv-x="624" d="M220 25Q165 -18 115 -18T40 10T15 80T46 159T134 202L298 376Q174 380 127 413T80 514Q80 541 91 605Q158 577 246 555T384 530Q400 561 431 580T506 600T577 574T604 506Q604 433 531 401L324 164Q389
144 427 143L563 196Q584 142 584 94T538 10T427 -25T290 0Q265 8 220 25Z" />
<glyph unicode="{" glyph-name="braceleft" horiz-adv-x="486" d="M175 301Q160 295 137 295T94 313T73 357T93 401T143 420T194 401Q173 476 173 581Q173 708 234 755Q271 784 310 791Q360 800 424 800Q516 800 516 701Q516 666 511 649Q496 656 452 662T381
668Q350 516 317 453T227 351Q293 277 293 163Q293 143 276 -25Q303 -25 345 -19T402 -6Q409 -30 409 -58Q409 -157 332 -157Q205 -157 148 -119T90 15Q90 69 112 148T175 301Z" />
<glyph unicode="|" glyph-name="bar" horiz-adv-x="479" d="M110 -168Q140 -97 145 29T156 396T166 758Q168 816 192 845T272 874T364 840Q319 758 319 379Q319 270 325 103T331 -150Q331 -219 250 -219Q156 -219 110 -168Z" />
<glyph unicode="}" glyph-name="braceright" horiz-adv-x="486" d="M310 341Q324 348 348 348T392 330T413 286T393 242T342 223T291 242Q313 167 313 62Q313 -65 252 -112Q215 -141 176 -148Q126 -157 62 -157Q-30 -157 -30 -58Q-30 -23 -25 -6Q-10 -13 34 -19T105
-25Q136 127 169 190T259 292Q193 366 193 480Q193 500 210 668Q183 668 141 662T84 649Q77 673 77 701Q77 800 154 800Q281 800 338 762T396 628Q396 574 374 495T310 341Z" />
<glyph unicode="~" glyph-name="asciitilde" horiz-adv-x="733" d="M598 328Q547 354 487 354T320 312T157 270Q97 270 97 340Q97 393 136 450Q185 431 243 431T397 469T544 508Q636 508 636 429Q636 378 598 328Z" />
<glyph unicode="&#xa1;" glyph-name="exclamdown" horiz-adv-x="458" d="M251 287Q321 287 321 202Q321 181 312 76T302 -74T327 -142Q261 -209 153 -209T45 -106Q45 -59 59 -9T86 81T108 143T131 203T149 249Q169 267 198 277T251 287ZM226 368T196 398T165 476T202
562T288 600T367 570T398 492T361 406T275 368Z" />
<glyph unicode="&#xa2;" glyph-name="cent" horiz-adv-x="663" d="M278 -135Q246 -135 246 -80T273 62Q175 77 120 139T64 293Q64 419 144 506T354 615Q366 670 366 697T364 740Q418 794 450 794Q479 794 479 746T454 620Q594 611 594 515Q594 470 569 416Q507
455 409 455Q370 455 339 450Q313 427 297 384T281 294T301 216T358 184T420 214T448 299Q599 296 599 246Q599 184 535 128T371 60Q358 0 358 -34T362 -83Q313 -135 278 -135Z" />
<glyph unicode="&#xa3;" glyph-name="sterling" horiz-adv-x="664" d="M291 208Q419 176 491 176L606 222Q618 179 618 132Q618 54 575 15T471 -25T360 -13T235 27Q176 -19 123 -19T43 11T17 84T41 162T110 211L112 272Q84 267 64 267Q25 267 25 291Q25 320 73
367Q81 365 118 365Q123 437 134 496Q151 596 223 650T397 705Q609 705 609 574Q609 507 582 462Q505 509 364 509Q364 476 345 390Q414 409 458 409T503 382Q503 350 456 307Q443 311 414 311T321 297Q305 244 291 208Z" />
<glyph unicode="&#xa5;" glyph-name="yen" horiz-adv-x="728" d="M140 288Q101 288 101 309Q101 335 145 376Q152 374 165 374Q110 595 45 656Q122 700 209 700Q348 700 348 528Q348 460 326 350H366Q397 401 427 481T457 625Q457 651 452 666Q521 700 604 700Q707
700 707 636Q707 587 603 429Q608 430 619 430Q665 430 665 406T622 340Q609 344 592 344T542 340L493 271Q536 280 563 280Q609 280 609 256T566 190Q553 194 524 194T437 179Q432 150 432 102T455 12Q385 -25 321 -25Q199 -25 199 125Q199 145 200 155Q140 138
103 138T65 159Q65 185 109 226Q118 224 139 224T196 232L184 292Q163 288 140 288Z" />
<glyph unicode="&#xa6;" glyph-name="brokenbar" horiz-adv-x="435" d="M110 443Q125 495 129 556T134 747Q134 814 154 844T228 874T320 840Q297 790 297 667Q297 598 302 542T307 460Q307 400 232 400T110 443ZM110 -176Q125 -124 129 -63T134 128Q134 195 154
225T228 255T320 221Q297 171 297 48Q297 -21 302 -77T307 -159Q307 -219 232 -219T110 -176Z" />
<glyph unicode="&#xa7;" glyph-name="section" horiz-adv-x="743" d="M90 534Q90 650 185 712T420 774Q713 774 713 624Q713 553 677 483Q635 534 567 566T427 599Q330 599 300 508Q489 460 562 399T640 247Q578 309 384 331Q312 339 244 354T133 413T90 534ZM17
-37Q17 35 54 104Q96 53 164 21T304 -12Q401 -12 430 78Q178 142 120 232Q92 276 89 341Q150 277 342 256Q415 248 484 233T596 174T640 53Q640 -63 545 -125T311 -187Q17 -187 17 -37Z" />
<glyph unicode="&#xa8;" glyph-name="dieresis" horiz-adv-x="632" d="M606 726T569 696T486 666T414 686T387 741Q387 792 426 820T509 849T579 829T606 767ZM305 726T268 696T185 666T113 686T86 741Q86 792 125 820T208 849T278 829T305 767Z" />
<glyph unicode="&#xa9;" glyph-name="copyright" horiz-adv-x="896" d="M154 357T231 285T415 213T600 261T717 384T756 543Q756 648 683 731T474 815T246 731T154 502ZM592 182T537 166T420 150T298 171T190 234T114 343T85 493Q85 675 209 785T537 896Q602 896
624 879T650 818Q730 775 770 703T811 550T789 405T730 294T642 215ZM363 321T319 365T275 494T340 648T514 718Q559 718 587 700T616 648T595 597T542 579Q488 579 460 625Q432 611 411 571T390 490T403 426T441 402T484 427T503 487Q557 487 580 479T603 442Q603
398 556 360T436 321Z" />
<glyph unicode="&#xaa;" glyph-name="ordfeminine" horiz-adv-x="552" d="M390 289Q320 289 315 372H307Q285 336 250 313T179 289Q117 289 80 335T42 458Q42 574 120 652T315 731Q351 731 377 724Q381 712 381 694Q416 714 443 714Q502 714 502 651Q502 629 481
534T460 397T486 333Q436 289 390 289ZM189 550T189 491T232 432Q282 432 316 495Q323 571 339 645Q278 641 234 596Z" />
<glyph unicode="&#xab;" glyph-name="guillemotleft" horiz-adv-x="694" d="M595 243Q586 18 536 18Q501 18 451 63T374 154Q370 174 370 212Q370 313 398 420T466 533Q555 540 590 549T648 567Q648 422 601 375Q578 352 554 344T508 336T445 343L438 299Q507
243 595 243ZM283 243Q274 18 224 18Q189 18 139 63T62 154Q58 174 58 212Q58 313 86 420T154 533Q243 540 278 549T336 567Q336 422 289 375Q266 352 242 344T196 336T133 343L126 299Q195 243 283 243Z" />
<glyph unicode="&#xac;" glyph-name="logicalnot" horiz-adv-x="733" d="M259 440L554 446Q638 446 638 370Q638 336 612 263T586 160T594 105Q548 81 496 81Q432 81 432 136Q432 172 454 236T478 307Q434 305 318 294T139 283Q95 283 95 344T129 458Q178 440 259 440Z" />
<glyph unicode="&#xae;" glyph-name="registered" horiz-adv-x="896" d="M154 357T231 285T415 213T600 261T717 384T756 543Q756 648 683 731T474 815T246 731T154 502ZM592 182T537 166T420 150T298 171T190 234T114 343T85 493Q85 675 209 785T537 896Q602
896 624 879T650 818Q730 775 770 703T811 550T789 405T730 294T642 215ZM471 408L453 461Q424 461 397 470Q391 437 391 421Q391 371 407 344Q374 320 341 320T292 340T277 399T310 623L282 680Q342 718 385 718T450 702Q489 718 530 718T599 685T628 606Q628
530 559 488Q598 375 644 350Q633 339 610 330T560 321T510 339T471 408ZM420 527Q463 527 486 549T510 596T497 635T462 650T429 647Q419 571 408 528Q412 527 420 527Z" />
<glyph unicode="&#xaf;" glyph-name="overscore" horiz-adv-x="555" d="M167 832L406 838Q485 838 485 767Q485 725 470 695Q445 709 397 709T249 697T109 685T70 735T102 844Q131 832 167 832Z" />
<glyph unicode="&#xb0;" glyph-name="degree" horiz-adv-x="520" d="M470 589T404 528T243 467T100 510T50 625Q50 722 116 783T277 844T420 801T470 686Q470 589 404 528ZM241 553Q275 553 302 595T329 690Q329 756 264 756Q256 756 234 754Q189 697 189 631Q189
598 203 576T241 553Z" />
<glyph unicode="&#xb1;" glyph-name="plusminus" horiz-adv-x="733" d="M259 29L554 35Q633 35 633 -41Q633 -85 615 -120Q576 -104 509 -104T320 -116T139 -128Q100 -128 100 -64T131 46Q185 29 259 29ZM139 283Q100 283 100 347T131 457Q185 440 292 440Q290
518 290 557Q290 636 366 636Q410 636 445 618Q429 579 429 522T431 443Q492 446 554 446Q633 446 633 370Q633 326 615 291Q576 307 505 307Q483 307 443 305Q453 195 453 142Q453 103 389 103T279 134Q296 188 296 292Q201 283 139 283Z" />
<glyph unicode="&#xb2;" glyph-name="twosuperior" horiz-adv-x="500" d="M133 395L150 394Q248 477 248 529Q248 563 218 563Q179 563 154 487Q106 487 82 508T57 564Q57 618 109 659T260 700T403 659T447 562Q447 467 308 357Q336 352 359 352L454 389Q469 354
469 313Q469 253 434 223T341 193T179 228Q141 198 95 198T26 223T2 289T36 362T133 395Z" />
<glyph unicode="&#xb3;" glyph-name="threesuperior" horiz-adv-x="471" d="M358 458Q417 418 417 353T347 240T167 193Q29 193 29 282Q29 318 56 339T114 360T173 345T214 301Q227 306 235 324T244 363T235 396Q208 378 180 378T138 392T124 427Q124 486 244
486Q251 499 251 519T237 554T203 568T168 555T148 512Q105 512 82 534T58 586Q58 631 105 665T242 699T376 659T420 569Q420 502 358 458Z" />
<glyph unicode="&#xb4;" glyph-name="acute" horiz-adv-x="476" d="M126 653Q104 653 89 671T70 729Q113 739 165 779T265 852T350 886Q406 886 406 791Q406 752 396 718Q382 720 373 720Q327 720 248 687T126 653Z" />
<glyph unicode="&#xb5;" glyph-name="mu" horiz-adv-x="771" d="M211 -4Q211 -108 292 -194Q256 -217 232 -226T176 -235Q105 -235 71 -190T37 -77T76 188T116 453T95 551Q188 600 252 600Q293 600 311 584T330 530T300 349T269 170T288 117T343 97T410 121T455
189T479 275T497 369T516 447L456 527Q557 600 648 600Q693 600 712 584T732 534T696 342T659 118T690 24Q634 -25 573 -25T484 2T457 73L447 78Q378 -24 288 -24Q244 -24 211 -4Z" />
<glyph unicode="&#xb6;" glyph-name="paragraph" horiz-adv-x="732" d="M447 -199Q316 -199 316 -44Q316 56 367 184T483 392L462 404Q377 264 245 264Q156 264 108 322T59 465Q59 579 140 674Q179 719 242 747T384 775Q524 775 604 701Q634 674 653 628T672 527T645
370T591 151T564 -59Q564 -123 595 -150Q522 -199 447 -199Z" />
<glyph unicode="&#xb7;" glyph-name="middot" horiz-adv-x="333" d="M111 180T81 210T50 288T87 374T173 412T252 382T283 304T246 218T160 180Z" />
<glyph unicode="&#xb8;" glyph-name="cedilla" horiz-adv-x="663" d="M183 28H257Q341 28 386 -12T431 -116T374 -233T231 -287T108 -255T71 -176T109 -95T205 -60Q177 -85 177 -130Q177 -158 191 -173T232 -188T283 -163T308 -98T276 -21T183 28Z" />
<glyph unicode="&#xb9;" glyph-name="onesuperior" horiz-adv-x="377" d="M88 317Q88 360 115 492Q68 492 35 521T-2 613Q52 620 102 642T191 682T258 700Q330 700 330 632Q330 604 305 488T279 312T300 227Q247 193 192 193Q88 193 88 317Z" />
<glyph unicode="&#xba;" glyph-name="ordmasculine" horiz-adv-x="504" d="M31 477Q31 590 101 660T282 731Q313 731 336 724Q344 702 346 678Q358 680 364 680Q405 680 434 647T463 551Q463 432 392 361T229 289T84 340T31 477ZM241 390Q291 390 321 437T351
533Q351 631 287 631Q236 631 205 584T174 488Q174 390 241 390Z" />
<glyph unicode="&#xbb;" glyph-name="guillemotright" horiz-adv-x="694" d="M99 335Q108 560 158 560Q193 560 243 515T320 424Q324 404 324 366Q324 265 296 158T228 45Q139 38 104 29T46 11Q46 156 93 203Q116 226 140 234T186 242T249 235L256 279Q187 335
99 335ZM411 335Q420 560 470 560Q505 560 555 515T632 424Q636 404 636 366Q636 265 608 158T540 45Q451 38 416 29T358 11Q358 156 405 203Q428 226 452 234T498 242T561 235L568 279Q499 335 411 335Z" />
<glyph unicode="&#xbc;" glyph-name="onequarter" horiz-adv-x="1150" d="M297 13Q343 64 401 177Q445 267 514 411T625 640T732 725Q770 725 799 699Q753 654 699 546T566 259T461 28T384 -25T297 13ZM156 317Q156 360 183 492Q136 492 103 521T66 613Q120 620
170 642T259 682T326 700Q398 700 398 632Q398 604 373 488T347 312T368 227Q315 193 260 193Q156 193 156 317ZM644 139Q644 171 690 280T737 438Q737 457 728 469Q783 488 822 488Q931 488 931 412Q931 360 899 297T813 180H872Q890 230 915 273Q936 291 978
305T1049 320T1086 315T1094 297T1078 204T1062 78T1084 15Q1026 -19 968 -19T882 6T851 72Q813 67 779 67Q644 67 644 139Z" />
<glyph unicode="&#xbd;" glyph-name="onehalf" horiz-adv-x="1150" d="M283 13Q329 64 387 177Q431 267 500 411T611 640T718 725Q756 725 785 699Q739 654 685 546T552 259T447 28T370 -25T283 13ZM142 317Q142 360 169 492Q122 492 89 521T52 613Q106 620 156
642T245 682T312 700Q384 700 384 632Q384 604 359 488T333 312T354 227Q301 193 246 193Q142 193 142 317ZM749 183L766 182Q864 265 864 317Q864 351 834 351Q795 351 770 275Q722 275 698 296T673 352Q673 406 725 447T876 488T1019 447T1063 350Q1063 255 924
145Q952 140 975 140L1070 177Q1085 142 1085 101Q1085 41 1050 11T957 -19T795 16Q757 -14 711 -14T642 11T618 77T652 150T749 183Z" />
<glyph unicode="&#xbe;" glyph-name="threequarters" horiz-adv-x="1150" d="M318 13Q364 64 422 177Q466 267 535 411T646 640T753 725Q791 725 820 699Q774 654 720 546T587 259T482 28T405 -25T318 13ZM365 458Q424 418 424 353T354 240T174 193Q36 193 36
282Q36 318 63 339T121 360T180 345T221 301Q234 306 242 324T251 363T242 396Q215 378 187 378T145 392T131 427Q131 486 251 486Q258 499 258 519T244 554T210 568T175 555T155 512Q112 512 89 534T65 586Q65 631 112 665T249 699T383 659T427 569Q427 502 365
458ZM665 139Q665 171 711 280T758 438Q758 457 749 469Q804 488 843 488Q952 488 952 412Q952 360 920 297T834 180H893Q911 230 936 273Q957 291 999 305T1070 320T1107 315T1115 297T1099 204T1083 78T1105 15Q1047 -19 989 -19T903 6T872 72Q834 67 800 67Q665
67 665 139Z" />
<glyph unicode="&#xbf;" glyph-name="questiondown" horiz-adv-x="602" d="M388 194Q329 179 293 140T257 61Q257 -25 334 -25Q420 -25 458 93Q505 88 530 58T555 -14Q555 -86 491 -143T301 -200T109 -134T43 26Q43 148 113 230T274 312Q324 312 356 279T388 194ZM416
600T446 570T477 492T440 406T354 368T275 398T244 476T281 562T367 600Z" />
<glyph unicode="&#xc0;" glyph-name="Agrave" horiz-adv-x="729" d="M635 578L627 340Q627 217 647 133T724 17Q655 -26 584 -26Q459 -26 430 176H226Q207 111 207 77T215 21Q141 -26 83 -26Q-6 -26 -6 82Q-6 136 27 218T116 406T187 546Q176 600 162 652Q214
688 262 706T367 725T446 700Q503 725 540 725T595 713T621 678Q635 638 635 578ZM434 555H402Q312 381 268 281H423Q423 390 434 555ZM559 753Q517 753 438 786T312 820Q303 820 289 818Q279 852 279 891Q279 986 335 986Q372 986 419 953T519 879T615 829Q612
790 597 772T559 753Z" />
<glyph unicode="&#xc1;" glyph-name="Aacute" horiz-adv-x="729" d="M635 578L627 340Q627 217 647 133T724 17Q655 -26 584 -26Q459 -26 430 176H226Q207 111 207 77T215 21Q141 -26 83 -26Q-6 -26 -6 82Q-6 136 27 218T116 406T187 546Q176 600 162 652Q214
688 262 706T367 725T446 700Q503 725 540 725T595 713T621 678Q635 638 635 578ZM434 555H402Q312 381 268 281H423Q423 390 434 555ZM335 753Q313 753 298 771T279 829Q322 839 374 879T474 952T559 986Q615 986 615 891Q615 852 605 818Q591 820 582 820Q536
820 457 787T335 753Z" />
<glyph unicode="&#xc2;" glyph-name="Acircumflex" horiz-adv-x="729" d="M635 578L627 340Q627 217 647 133T724 17Q655 -26 584 -26Q459 -26 430 176H226Q207 111 207 77T215 21Q141 -26 83 -26Q-6 -26 -6 82Q-6 136 27 218T116 406T187 546Q176 600 162 652Q214
688 262 706T367 725T446 700Q503 725 540 725T595 713T621 678Q635 638 635 578ZM434 555H402Q312 381 268 281H423Q423 390 434 555ZM650 946L640 823Q640 792 654 767Q623 759 576 759T508 780T487 841Q487 856 494 921H468Q408 847 408 771Q353 759 296 759T239
778Q239 820 363 958Q380 968 431 975T533 983Q650 983 650 946Z" />
<glyph unicode="&#xc3;" glyph-name="Atilde" horiz-adv-x="729" d="M635 578L627 340Q627 217 647 133T724 17Q655 -26 584 -26Q459 -26 430 176H226Q207 111 207 77T215 21Q141 -26 83 -26Q-6 -26 -6 82Q-6 136 27 218T116 406T187 546Q176 600 162 652Q214
688 262 706T367 725T446 700Q503 725 540 725T595 713T621 678Q635 638 635 578ZM434 555H402Q312 381 268 281H423Q423 390 434 555ZM622 805Q582 825 539 825T420 796T305 766Q241 766 241 829Q241 875 268 934Q308 914 351 914T470 943T585 973Q649 973 649
910Q649 864 622 805Z" />
<glyph unicode="&#xc4;" glyph-name="Adieresis" horiz-adv-x="729" d="M635 578L627 340Q627 217 647 133T724 17Q655 -26 584 -26Q459 -26 430 176H226Q207 111 207 77T215 21Q141 -26 83 -26Q-6 -26 -6 82Q-6 136 27 218T116 406T187 546Q176 600 162 652Q214
688 262 706T367 725T446 700Q503 725 540 725T595 713T621 678Q635 638 635 578ZM434 555H402Q312 381 268 281H423Q423 390 434 555ZM707 831T670 801T587 771T515 791T488 846Q488 897 527 925T610 954T680 934T707 872ZM406 831T369 801T286 771T214 791T187
846Q187 897 226 925T309 954T379 934T406 872Z" />
<glyph unicode="&#xc5;" glyph-name="Aring" horiz-adv-x="729" d="M635 578L627 340Q627 217 647 133T724 17Q655 -26 584 -26Q459 -26 430 176H226Q207 111 207 77T215 21Q141 -26 83 -26Q-6 -26 -6 82Q-6 136 27 218T116 406T187 546Q176 600 162 652Q214 688
262 706T367 725T446 700Q503 725 540 725T595 713T621 678Q635 638 635 578ZM434 555H402Q312 381 268 281H423Q423 390 434 555ZM381 834T394 816T433 797T480 827T502 895Q502 952 442 952Q436 952 416 950Q381 911 381 861Q381 834 394 816ZM616 821T565 777T436
732T319 766T279 857Q279 930 330 974T459 1019T576 985T616 894Q616 821 565 777Z" />
<glyph unicode="&#xc6;" glyph-name="AE" horiz-adv-x="967" d="M705 246H634Q624 186 624 136H786Q862 147 939 175Q945 157 945 126Q945 67 911 21T815 -25Q783 -25 722 -13T630 3Q582 -26 523 -26T436 11T408 129Q408 166 419 246H246Q207 144 207 74Q207 42
215 21Q141 -26 83 -26Q-6 -26 -6 82Q-6 136 27 218T116 406T187 546L162 652Q392 726 584 726Q680 726 696 670Q810 673 979 721Q987 688 987 656Q987 575 934 534T796 493Q740 493 684 517Q679 489 655 363H719Q734 363 809 386Q814 369 814 331T783 269T705
246ZM473 555H402Q339 449 297 363H438L473 555Z" />
<glyph unicode="&#xc7;" glyph-name="Ccedilla" horiz-adv-x="683" d="M30 307Q30 377 60 449T145 584T288 685T471 725T619 690T673 593T633 497T540 462T447 484T380 549Q326 523 287 447T248 295T273 174T344 129T425 176T461 289Q562 289 605 273T649 204Q649
128 571 58T372 -23Q406 -58 406 -111Q406 -180 349 -233T206 -287T83 -255T46 -176T84 -95T180 -60Q152 -85 152 -130Q152 -158 166 -173T207 -188T258 -163T283 -94T245 -15Q146 9 88 90T30 307Z" />
<glyph unicode="&#xc8;" glyph-name="Egrave" horiz-adv-x="619" d="M116 -26T88 11T60 123T123 546L70 653Q183 726 276 726Q335 726 349 670Q462 673 631 721Q639 688 639 656Q639 575 586 534T448 493Q391 493 336 517Q328 472 308 370Q345 363 371 363Q412
371 461 386Q466 369 466 331T435 269T366 246T287 255Q276 192 276 136H438Q514 147 591 175Q597 157 597 126Q597 67 563 21T467 -25Q435 -25 374 -13T282 3Q234 -26 175 -26ZM520 753Q478 753 399 786T273 820Q264 820 250 818Q240 852 240 891Q240 986 296
986Q333 986 380 953T480 879T576 829Q573 790 558 772T520 753Z" />
<glyph unicode="&#xc9;" glyph-name="Eacute" horiz-adv-x="619" d="M116 -26T88 11T60 123T123 546L70 653Q183 726 276 726Q335 726 349 670Q462 673 631 721Q639 688 639 656Q639 575 586 534T448 493Q391 493 336 517Q328 472 308 370Q345 363 371 363Q412
371 461 386Q466 369 466 331T435 269T366 246T287 255Q276 192 276 136H438Q514 147 591 175Q597 157 597 126Q597 67 563 21T467 -25Q435 -25 374 -13T282 3Q234 -26 175 -26ZM311 753Q289 753 274 771T255 829Q298 839 350 879T450 952T535 986Q591 986 591
891Q591 852 581 818Q567 820 558 820Q512 820 433 787T311 753Z" />
<glyph unicode="&#xca;" glyph-name="Ecircumflex" horiz-adv-x="619" d="M116 -26T88 11T60 123T123 546L70 653Q183 726 276 726Q335 726 349 670Q462 673 631 721Q639 688 639 656Q639 575 586 534T448 493Q391 493 336 517Q328 472 308 370Q345 363 371 363Q412
371 461 386Q466 369 466 331T435 269T366 246T287 255Q276 192 276 136H438Q514 147 591 175Q597 157 597 126Q597 67 563 21T467 -25Q435 -25 374 -13T282 3Q234 -26 175 -26ZM584 946L574 823Q574 792 588 767Q557 759 510 759T442 780T421 841Q421 856 428
921H402Q342 847 342 771Q287 759 230 759T173 778Q173 820 297 958Q314 968 365 975T467 983Q584 983 584 946Z" />
<glyph unicode="&#xcb;" glyph-name="Edieresis" horiz-adv-x="619" d="M116 -26T88 11T60 123T123 546L70 653Q183 726 276 726Q335 726 349 670Q462 673 631 721Q639 688 639 656Q639 575 586 534T448 493Q391 493 336 517Q328 472 308 370Q345 363 371 363Q412
371 461 386Q466 369 466 331T435 269T366 246T287 255Q276 192 276 136H438Q514 147 591 175Q597 157 597 126Q597 67 563 21T467 -25Q435 -25 374 -13T282 3Q234 -26 175 -26ZM668 831T631 801T548 771T476 791T449 846Q449 897 488 925T571 954T641 934T668
872ZM367 831T330 801T247 771T175 791T148 846Q148 897 187 925T270 954T340 934T367 872Z" />
<glyph unicode="&#xcc;" glyph-name="Igrave" horiz-adv-x="388" d="M121 -26T93 11T65 123T128 546L75 653Q188 726 281 726Q358 726 358 632Q358 601 320 402T281 164Q281 67 311 19Q251 -26 186 -26ZM367 753Q325 753 246 786T120 820Q111 820 97 818Q87 852
87 891Q87 986 143 986Q180 986 227 953T327 879T423 829Q420 790 405 772T367 753Z" />
<glyph unicode="&#xcd;" glyph-name="Iacute" horiz-adv-x="388" d="M121 -26T93 11T65 123T128 546L75 653Q188 726 281 726Q358 726 358 632Q358 601 320 402T281 164Q281 67 311 19Q251 -26 186 -26ZM131 753Q109 753 94 771T75 829Q118 839 170 879T270 952T355
986Q411 986 411 891Q411 852 401 818Q387 820 378 820Q332 820 253 787T131 753Z" />
<glyph unicode="&#xce;" glyph-name="Icircumflex" horiz-adv-x="388" d="M121 -26T93 11T65 123T128 546L75 653Q188 726 281 726Q358 726 358 632Q358 601 320 402T281 164Q281 67 311 19Q251 -26 186 -26ZM459 946L449 823Q449 792 463 767Q432 759 385 759T317
780T296 841Q296 856 303 921H277Q217 847 217 771Q162 759 105 759T48 778Q48 820 172 958Q189 968 240 975T342 983Q459 983 459 946Z" />
<glyph unicode="&#xcf;" glyph-name="Idieresis" horiz-adv-x="388" d="M121 -26T93 11T65 123T128 546L75 653Q188 726 281 726Q358 726 358 632Q358 601 320 402T281 164Q281 67 311 19Q251 -26 186 -26ZM534 831T497 801T414 771T342 791T315 846Q315 897 354
925T437 954T507 934T534 872ZM233 831T196 801T113 771T41 791T14 846Q14 897 53 925T136 954T206 934T233 872Z" />
<glyph unicode="&#xd0;" glyph-name="Eth" horiz-adv-x="776" d="M60 163Q60 187 65 234Q-22 234 -22 298Q-22 346 19 393Q44 383 90 383L120 546L67 653Q194 725 283 725Q327 725 349 695Q432 724 502 724Q632 724 704 640T776 429Q776 263 654 124Q595 57 499
16T292 -25T121 23T60 163ZM272 125Q293 121 319 121Q428 121 489 199T550 393Q550 486 508 541T387 596Q375 596 347 592Q345 581 341 552T332 495T323 440Q362 453 393 453Q474 453 474 389Q474 341 433 294Q408 304 373 304T299 297Q280 184 272 125Z" />
<glyph unicode="&#xd1;" glyph-name="Ntilde" horiz-adv-x="870" d="M578 157L602 173Q537 298 537 447Q537 563 594 644T757 725Q812 725 850 706Q840 650 814 511Q758 212 758 168Q758 73 790 26Q746 -3 709 -14T614 -25T508 0T430 66T378 169Q341 276 333 441H317Q271
233 271 150T301 19Q241 -26 176 -26T83 11T55 123T118 546L65 653Q177 725 265 725T398 695T461 605T487 481T517 323T578 157ZM707 805Q667 825 624 825T505 796T390 766Q326 766 326 829Q326 875 353 934Q393 914 436 914T555 943T670 973Q734 973 734 910Q734
864 707 805Z" />
<glyph unicode="&#xd2;" glyph-name="Ograve" horiz-adv-x="774" d="M25 306Q25 496 131 610T421 725Q480 725 505 702T531 629Q531 622 529 602Q566 632 611 632Q672 632 715 578T759 420T726 231T639 90T515 5T371 -25Q211 -25 118 66T25 306ZM524 259Q460 337
460 427T500 572Q482 575 464 575Q393 575 341 532Q243 452 243 310Q243 229 279 175T379 121Q428 121 468 159T524 259ZM581 753Q539 753 460 786T334 820Q325 820 311 818Q301 852 301 891Q301 986 357 986Q394 986 441 953T541 879T637 829Q634 790 619 772T581
753Z" />
<glyph unicode="&#xd3;" glyph-name="Oacute" horiz-adv-x="774" d="M25 306Q25 496 131 610T421 725Q480 725 505 702T531 629Q531 622 529 602Q566 632 611 632Q672 632 715 578T759 420T726 231T639 90T515 5T371 -25Q211 -25 118 66T25 306ZM524 259Q460 337
460 427T500 572Q482 575 464 575Q393 575 341 532Q243 452 243 310Q243 229 279 175T379 121Q428 121 468 159T524 259ZM366 753Q344 753 329 771T310 829Q353 839 405 879T505 952T590 986Q646 986 646 891Q646 852 636 818Q622 820 613 820Q567 820 488 787T366
753Z" />
<glyph unicode="&#xd4;" glyph-name="Ocircumflex" horiz-adv-x="774" d="M25 306Q25 496 131 610T421 725Q480 725 505 702T531 629Q531 622 529 602Q566 632 611 632Q672 632 715 578T759 420T726 231T639 90T515 5T371 -25Q211 -25 118 66T25 306ZM524 259Q460
337 460 427T500 572Q482 575 464 575Q393 575 341 532Q243 452 243 310Q243 229 279 175T379 121Q428 121 468 159T524 259ZM642 946L632 823Q632 792 646 767Q615 759 568 759T500 780T479 841Q479 856 486 921H460Q400 847 400 771Q345 759 288 759T231 778Q231
820 355 958Q372 968 423 975T525 983Q642 983 642 946Z" />
<glyph unicode="&#xd5;" glyph-name="Otilde" horiz-adv-x="774" d="M25 306Q25 496 131 610T421 725Q480 725 505 702T531 629Q531 622 529 602Q566 632 611 632Q672 632 715 578T759 420T726 231T639 90T515 5T371 -25Q211 -25 118 66T25 306ZM524 259Q460 337
460 427T500 572Q482 575 464 575Q393 575 341 532Q243 452 243 310Q243 229 279 175T379 121Q428 121 468 159T524 259ZM653 805Q613 825 570 825T451 796T336 766Q272 766 272 829Q272 875 299 934Q339 914 382 914T501 943T616 973Q680 973 680 910Q680 864
653 805Z" />
<glyph unicode="&#xd6;" glyph-name="Odieresis" horiz-adv-x="774" d="M25 306Q25 496 131 610T421 725Q480 725 505 702T531 629Q531 622 529 602Q566 632 611 632Q672 632 715 578T759 420T726 231T639 90T515 5T371 -25Q211 -25 118 66T25 306ZM524 259Q460
337 460 427T500 572Q482 575 464 575Q393 575 341 532Q243 452 243 310Q243 229 279 175T379 121Q428 121 468 159T524 259ZM739 831T702 801T619 771T547 791T520 846Q520 897 559 925T642 954T712 934T739 872ZM438 831T401 801T318 771T246 791T219 846Q219
897 258 925T341 954T411 934T438 872Z" />
<glyph unicode="&#xd7;" glyph-name="multiply" horiz-adv-x="733" d="M189 106Q158 106 132 148T102 235Q166 250 269 364Q216 420 188 461T159 539T191 605T278 643Q286 566 368 478Q427 544 474 580T559 617T620 591T649 521Q579 509 470 380Q529 326 561 285T594
208T548 143T452 107Q443 168 372 253Q255 106 189 106Z" />
<glyph unicode="&#xd8;" glyph-name="Oslash" horiz-adv-x="774" d="M381 -40Q348 -159 259 -159Q205 -159 160 -123Q195 -89 226 0Q130 35 78 115T25 306Q25 493 128 606T411 723L426 784Q443 855 513 855T641 803Q599 742 559 621Q586 632 611 632Q672 632 715
578T759 422T728 236T644 96Q535 -18 385 -24L381 -40ZM309 526T272 449T235 288T273 159Q322 336 372 558Q309 526 272 449ZM494 166T531 244T569 406T534 534Q504 430 473 307T429 136Q494 166 531 244Z" />
<glyph unicode="&#xd9;" glyph-name="Ugrave" horiz-adv-x="827" d="M745 19Q685 -26 627 -26T535 4T501 94Q501 111 502 120L492 123Q393 -25 226 -25Q65 -25 65 145Q65 202 81 296T108 456T124 546L71 653Q134 689 180 707T274 725T337 701T354 642T321 424T287
209Q287 130 341 130Q381 130 432 181T515 321Q494 382 494 447Q494 563 551 644T714 725Q772 725 807 706Q798 652 772 510Q715 209 715 164Q715 67 745 19ZM614 753Q572 753 493 786T367 820Q358 820 344 818Q334 852 334 891Q334 986 390 986Q427 986 474 953T574
879T670 829Q667 790 652 772T614 753Z" />
<glyph unicode="&#xda;" glyph-name="Uacute" horiz-adv-x="827" d="M745 19Q685 -26 627 -26T535 4T501 94Q501 111 502 120L492 123Q393 -25 226 -25Q65 -25 65 145Q65 202 81 296T108 456T124 546L71 653Q134 689 180 707T274 725T337 701T354 642T321 424T287
209Q287 130 341 130Q381 130 432 181T515 321Q494 382 494 447Q494 563 551 644T714 725Q772 725 807 706Q798 652 772 510Q715 209 715 164Q715 67 745 19ZM415 753Q393 753 378 771T359 829Q402 839 454 879T554 952T639 986Q695 986 695 891Q695 852 685 818Q671
820 662 820Q616 820 537 787T415 753Z" />
<glyph unicode="&#xdb;" glyph-name="Ucircumflex" horiz-adv-x="827" d="M745 19Q685 -26 627 -26T535 4T501 94Q501 111 502 120L492 123Q393 -25 226 -25Q65 -25 65 145Q65 202 81 296T108 456T124 546L71 653Q134 689 180 707T274 725T337 701T354 642T321
424T287 209Q287 130 341 130Q381 130 432 181T515 321Q494 382 494 447Q494 563 551 644T714 725Q772 725 807 706Q798 652 772 510Q715 209 715 164Q715 67 745 19ZM693 946L683 823Q683 792 697 767Q666 759 619 759T551 780T530 841Q530 856 537 921H511Q451
847 451 771Q396 759 339 759T282 778Q282 820 406 958Q423 968 474 975T576 983Q693 983 693 946Z" />
<glyph unicode="&#xdc;" glyph-name="Udieresis" horiz-adv-x="827" d="M745 19Q685 -26 627 -26T535 4T501 94Q501 111 502 120L492 123Q393 -25 226 -25Q65 -25 65 145Q65 202 81 296T108 456T124 546L71 653Q134 689 180 707T274 725T337 701T354 642T321 424T287
209Q287 130 341 130Q381 130 432 181T515 321Q494 382 494 447Q494 563 551 644T714 725Q772 725 807 706Q798 652 772 510Q715 209 715 164Q715 67 745 19ZM779 831T742 801T659 771T587 791T560 846Q560 897 599 925T682 954T752 934T779 872ZM478 831T441 801T358
771T286 791T259 846Q259 897 298 925T381 954T451 934T478 872Z" />
<glyph unicode="&#xdd;" glyph-name="Yacute" horiz-adv-x="672" d="M122 180Q121 200 118 264T113 361T102 453T80 546Q48 638 -10 678Q68 725 116 725T197 709T249 671T286 608T310 535T323 450T330 366T333 282T336 209H350Q389 302 421 422T454 613Q454 648
439 678Q514 725 572 725Q682 725 682 609Q682 550 637 411T531 142Q452 -27 369 -102T154 -177Q96 -177 49 -154Q-8 -127 -8 -63T41 69Q63 37 100 20T181 2T265 26T322 97Q269 84 225 84Q130 84 122 180ZM286 753Q264 753 249 771T230 829Q273 839 325 879T425
952T510 986Q566 986 566 891Q566 852 556 818Q542 820 533 820Q487 820 408 787T286 753Z" />
<glyph unicode="&#xde;" glyph-name="Thorn" horiz-adv-x="699" d="M306 235Q386 235 430 282T475 384T449 470T375 502Q355 502 329 495Q309 359 283 236Q290 235 306 235ZM116 -26T88 11T60 123T123 546L70 653Q183 726 276 726Q353 726 353 632Q353 620 350
600Q424 629 496 629Q590 629 644 564T699 405Q699 293 618 205Q579 162 513 136T383 110T277 120Q283 53 306 19Q246 -26 181 -26Z" />
<glyph unicode="&#xdf;" glyph-name="germandbls" horiz-adv-x="725" d="M438 338T421 355T404 398T421 441T457 459T490 451Q522 495 522 538Q522 625 457 625Q408 625 381 577T337 442Q336 437 325 383T304 274T282 152Q257 3 257 -65T288 -161Q229 -210 167
-210T78 -169T50 -71T112 321Q56 314 4 300Q0 319 0 338Q0 400 36 422T135 447L153 545Q195 775 451 775Q549 775 609 717T670 580Q670 481 579 421Q715 363 715 201Q715 112 645 39T473 -35Q401 -35 364 2T326 100T375 201Q400 185 447 185T517 208T541 273T503
354Q485 338 462 338Z" />
<glyph unicode="&#xe0;" glyph-name="agrave" horiz-adv-x="736" d="M427 123L417 128Q390 56 340 16T227 -25Q142 -25 91 39T40 210Q40 376 151 488T429 600Q472 600 508 592Q514 564 515 543Q565 575 618 575Q691 575 691 496Q691 468 660 327T628 118T659 24Q603
-25 543 -25T455 11T427 123ZM228 259Q228 210 248 184T307 157T382 185T444 262Q453 363 483 501Q382 501 305 428T228 259ZM571 653Q529 653 450 686T324 720Q315 720 301 718Q291 752 291 791Q291 886 347 886Q384 886 431 853T531 779T627 729Q624 690 609
672T571 653Z" />
<glyph unicode="&#xe1;" glyph-name="aacute" horiz-adv-x="736" d="M427 123L417 128Q390 56 340 16T227 -25Q142 -25 91 39T40 210Q40 376 151 488T429 600Q472 600 508 592Q514 564 515 543Q565 575 618 575Q691 575 691 496Q691 468 660 327T628 118T659 24Q603
-25 543 -25T455 11T427 123ZM228 259Q228 210 248 184T307 157T382 185T444 262Q453 363 483 501Q382 501 305 428T228 259ZM354 653Q332 653 317 671T298 729Q341 739 393 779T493 852T578 886Q634 886 634 791Q634 752 624 718Q610 720 601 720Q555 720 476
687T354 653Z" />
<glyph unicode="&#xe2;" glyph-name="acircumflex" horiz-adv-x="736" d="M427 123L417 128Q390 56 340 16T227 -25Q142 -25 91 39T40 210Q40 376 151 488T429 600Q472 600 508 592Q514 564 515 543Q565 575 618 575Q691 575 691 496Q691 468 660 327T628 118T659
24Q603 -25 543 -25T455 11T427 123ZM228 259Q228 210 248 184T307 157T382 185T444 262Q453 363 483 501Q382 501 305 428T228 259ZM623 831L613 708Q613 676 627 652Q596 644 549 644T481 665T460 726Q460 741 467 806H441Q381 732 381 656Q326 644 269 644T212
663Q212 705 336 843Q353 853 404 860T506 868Q623 868 623 831Z" />
<glyph unicode="&#xe3;" glyph-name="atilde" horiz-adv-x="736" d="M427 123L417 128Q390 56 340 16T227 -25Q142 -25 91 39T40 210Q40 376 151 488T429 600Q472 600 508 592Q514 564 515 543Q565 575 618 575Q691 575 691 496Q691 468 660 327T628 118T659 24Q603
-25 543 -25T455 11T427 123ZM228 259Q228 210 248 184T307 157T382 185T444 262Q453 363 483 501Q382 501 305 428T228 259ZM644 705Q604 725 561 725T442 696T327 666Q263 666 263 729Q263 775 290 834Q330 814 373 814T492 843T607 873Q671 873 671 810Q671
764 644 705Z" />
<glyph unicode="&#xe4;" glyph-name="adieresis" horiz-adv-x="736" d="M427 123L417 128Q390 56 340 16T227 -25Q142 -25 91 39T40 210Q40 376 151 488T429 600Q472 600 508 592Q514 564 515 543Q565 575 618 575Q691 575 691 496Q691 468 660 327T628 118T659
24Q603 -25 543 -25T455 11T427 123ZM228 259Q228 210 248 184T307 157T382 185T444 262Q453 363 483 501Q382 501 305 428T228 259ZM684 726T647 696T564 666T492 686T465 741Q465 792 504 820T587 849T657 829T684 767ZM383 726T346 696T263 666T191 686T164
741Q164 792 203 820T286 849T356 829T383 767Z" />
<glyph unicode="&#xe5;" glyph-name="aring" horiz-adv-x="788" d="M435 734T448 716T487 697T534 727T556 795Q556 852 496 852Q490 852 470 850Q435 811 435 761Q435 734 448 716ZM457 123L447 128Q420 56 370 16T257 -25Q172 -25 121 39T70 210Q70 376 181
488T459 600Q502 600 538 592Q544 564 545 543Q595 575 648 575Q721 575 721 496Q721 468 690 327T658 118T689 24Q633 -25 573 -25T485 11T457 123ZM258 259Q258 210 278 184T337 157T412 185T474 262Q483 363 513 501Q412 501 335 428T258 259ZM672 721T621 677T492
632T375 666T335 757Q335 830 386 874T515 919T632 885T672 794Q672 721 621 677Z" />
<glyph unicode="&#xe6;" glyph-name="ae" horiz-adv-x="989" d="M517 520Q623 600 765 600Q858 600 906 559T954 449Q954 356 864 295T584 232Q587 168 613 132T678 95T745 121T774 206Q920 206 920 137Q920 78 848 27T663 -25Q478 -25 422 113H411Q382 48 334
12T227 -25Q142 -25 91 39T40 210Q40 376 151 488T429 600Q472 600 508 592Q514 560 517 520ZM228 259Q228 210 245 184T294 157T358 185T410 262Q421 352 449 480Q358 480 293 417T228 259ZM748 483Q697 483 655 432T593 312Q693 320 743 358T794 437Q794 457
782 470T748 483Z" />
<glyph unicode="&#xe7;" glyph-name="ccedilla" horiz-adv-x="638" d="M45 238Q45 398 155 499T432 600Q518 600 568 568T618 486T585 411T512 385T440 406T389 467Q326 441 290 375T253 243T279 136T347 95T415 123T442 206Q588 206 588 137Q588 84 526 35T365
-23Q399 -60 399 -111Q399 -180 342 -233T199 -287T76 -255T39 -176T77 -95T173 -60Q145 -85 145 -130Q145 -158 159 -173T200 -188T251 -163T276 -94T236 -14Q146 9 96 76T45 238Z" />
<glyph unicode="&#xe8;" glyph-name="egrave" horiz-adv-x="657" d="M331 -25Q194 -25 120 46T45 238Q45 399 155 499T433 600Q526 600 574 559T622 449Q622 356 532 295T252 232Q255 168 281 132T346 95T413 121T442 206Q588 206 588 137Q588 78 516 27T331 -25ZM416
483Q365 483 323 432T261 312Q361 320 411 357T462 437Q462 457 450 470T416 483ZM518 653Q476 653 397 686T271 720Q262 720 248 718Q238 752 238 791Q238 886 294 886Q331 886 378 853T478 779T574 729Q571 690 556 672T518 653Z" />
<glyph unicode="&#xe9;" glyph-name="eacute" horiz-adv-x="657" d="M331 -25Q194 -25 120 46T45 238Q45 399 155 499T433 600Q526 600 574 559T622 449Q622 356 532 295T252 232Q255 168 281 132T346 95T413 121T442 206Q588 206 588 137Q588 78 516 27T331 -25ZM416
483Q365 483 323 432T261 312Q361 320 411 357T462 437Q462 457 450 470T416 483ZM284 653Q262 653 247 671T228 729Q271 739 323 779T423 852T508 886Q564 886 564 791Q564 752 554 718Q540 720 531 720Q485 720 406 687T284 653Z" />
<glyph unicode="&#xea;" glyph-name="ecircumflex" horiz-adv-x="657" d="M331 -25Q194 -25 120 46T45 238Q45 399 155 499T433 600Q526 600 574 559T622 449Q622 356 532 295T252 232Q255 168 281 132T346 95T413 121T442 206Q588 206 588 137Q588 78 516 27T331
-25ZM416 483Q365 483 323 432T261 312Q361 320 411 357T462 437Q462 457 450 470T416 483ZM597 831L587 708Q587 676 601 652Q570 644 523 644T455 665T434 726Q434 741 441 806H415Q355 732 355 656Q300 644 243 644T186 663Q186 705 310 843Q327 853 378 860T480
868Q597 868 597 831Z" />
<glyph unicode="&#xeb;" glyph-name="edieresis" horiz-adv-x="657" d="M331 -25Q194 -25 120 46T45 238Q45 399 155 499T433 600Q526 600 574 559T622 449Q622 356 532 295T252 232Q255 168 281 132T346 95T413 121T442 206Q588 206 588 137Q588 78 516 27T331
-25ZM416 483Q365 483 323 432T261 312Q361 320 411 357T462 437Q462 457 450 470T416 483ZM676 726T639 696T556 666T484 686T457 741Q457 792 496 820T579 849T649 829T676 767ZM375 726T338 696T255 666T183 686T156 741Q156 792 195 820T278 849T348 829T375
767Z" />
<glyph unicode="&#xec;" glyph-name="igrave" horiz-adv-x="388" d="M121 -25T93 6T65 100T129 441L73 525Q198 600 270 600Q311 600 328 583T345 526Q345 511 308 350T271 120T302 24Q246 -25 184 -25ZM348 653Q306 653 227 686T101 720Q92 720 78 718Q68 752
68 791Q68 886 124 886Q161 886 208 853T308 779T404 729Q401 690 386 672T348 653Z" />
<glyph unicode="&#xed;" glyph-name="iacute" horiz-adv-x="388" d="M121 -25T93 6T65 100T129 441L73 525Q198 600 270 600Q311 600 328 583T345 526Q345 511 308 350T271 120T302 24Q246 -25 184 -25ZM127 653Q105 653 90 671T71 729Q114 739 166 779T266 852T351
886Q407 886 407 791Q407 752 397 718Q383 720 374 720Q328 720 249 687T127 653Z" />
<glyph unicode="&#xee;" glyph-name="icircumflex" horiz-adv-x="388" d="M121 -25T93 6T65 100T129 441L73 525Q198 600 270 600Q311 600 328 583T345 526Q345 511 308 350T271 120T302 24Q246 -25 184 -25ZM429 831L419 708Q419 676 433 652Q402 644 355 644T287
665T266 726Q266 741 273 806H247Q187 732 187 656Q132 644 75 644T18 663Q18 705 142 843Q159 853 210 860T312 868Q429 868 429 831Z" />
<glyph unicode="&#xef;" glyph-name="idieresis" horiz-adv-x="388" d="M121 -25T93 6T65 100T129 441L73 525Q198 600 270 600Q311 600 328 583T345 526Q345 511 308 350T271 120T302 24Q246 -25 184 -25ZM521 726T484 696T401 666T329 686T302 741Q302 792 341
820T424 849T494 829T521 767ZM220 726T183 696T100 666T28 686T1 741Q1 792 40 820T123 849T193 829T220 767Z" />
<glyph unicode="&#xf0;" glyph-name="eth" horiz-adv-x="674" d="M160 -25T95 47T30 225Q30 303 65 373T174 492T346 540Q374 540 411 533Q389 583 348 621T233 703Q262 730 306 749T393 769Q469 769 520 686Q582 727 616 727Q684 727 684 662Q684 629 663 588Q650
590 627 590T567 577Q604 455 604 311Q604 231 576 165T500 58Q405 -25 283 -25ZM225 220Q225 166 248 139T306 111Q358 111 401 163T444 304Q444 356 422 383T365 410Q313 410 269 358T225 220Z" />
<glyph unicode="&#xf1;" glyph-name="ntilde" horiz-adv-x="799" d="M127 -25T99 6T71 88T91 254T134 464L82 544Q181 600 265 600T349 524Q349 474 326 422L336 417Q443 600 608 600Q729 600 729 479Q729 427 700 303T670 116T691 24Q638 -25 579 -25Q464 -25
464 99Q464 145 494 255T524 398Q524 443 490 443Q462 443 426 419T357 353T300 248T277 119T298 24Q245 -25 186 -25ZM627 705Q587 725 544 725T425 696T310 666Q246 666 246 729Q246 775 273 834Q313 814 356 814T475 843T590 873Q654 873 654 810Q654 764 627
705Z" />
<glyph unicode="&#xf2;" glyph-name="ograve" horiz-adv-x="715" d="M539 653Q497 653 418 686T292 720Q283 720 269 718Q259 752 259 791Q259 886 315 886Q352 886 399 853T499 779T595 729Q592 690 577 672T539 653ZM538 524Q594 524 634 479T675 349T645 191T566
72T455 1T328 -25Q197 -25 121 47T45 238Q45 399 148 499T412 600Q448 600 484 592Q495 559 496 517Q517 524 538 524ZM415 385Q415 413 428 448T472 504Q340 476 290 397Q247 329 247 257T276 142T352 98Q454 98 496 231Q415 281 415 385Z" />
<glyph unicode="&#xf3;" glyph-name="oacute" horiz-adv-x="715" d="M316 653Q294 653 279 671T260 729Q303 739 355 779T455 852T540 886Q596 886 596 791Q596 752 586 718Q572 720 563 720Q517 720 438 687T316 653ZM538 524Q594 524 634 479T675 349T645 191T566
72T455 1T328 -25Q197 -25 121 47T45 238Q45 399 148 499T412 600Q448 600 484 592Q495 559 496 517Q517 524 538 524ZM415 385Q415 413 428 448T472 504Q340 476 290 397Q247 329 247 257T276 142T352 98Q454 98 496 231Q415 281 415 385Z" />
<glyph unicode="&#xf4;" glyph-name="ocircumflex" horiz-adv-x="715" d="M618 831L608 708Q608 676 622 652Q591 644 544 644T476 665T455 726Q455 741 462 806H436Q376 732 376 656Q321 644 264 644T207 663Q207 705 331 843Q348 853 399 860T501 868Q618 868
618 831ZM538 524Q594 524 634 479T675 349T645 191T566 72T455 1T328 -25Q197 -25 121 47T45 238Q45 399 148 499T412 600Q448 600 484 592Q495 559 496 517Q517 524 538 524ZM415 385Q415 413 428 448T472 504Q340 476 290 397Q247 329 247 257T276 142T352 98Q454
98 496 231Q415 281 415 385Z" />
<glyph unicode="&#xf5;" glyph-name="otilde" horiz-adv-x="715" d="M615 705Q575 725 532 725T413 696T298 666Q234 666 234 729Q234 775 261 834Q301 814 344 814T463 843T578 873Q642 873 642 810Q642 764 615 705ZM538 524Q594 524 634 479T675 349T645 191T566
72T455 1T328 -25Q197 -25 121 47T45 238Q45 399 148 499T412 600Q448 600 484 592Q495 559 496 517Q517 524 538 524ZM415 385Q415 413 428 448T472 504Q340 476 290 397Q247 329 247 257T276 142T352 98Q454 98 496 231Q415 281 415 385Z" />
<glyph unicode="&#xf6;" glyph-name="odieresis" horiz-adv-x="715" d="M687 726T650 696T567 666T495 686T468 741Q468 792 507 820T590 849T660 829T687 767ZM386 726T349 696T266 666T194 686T167 741Q167 792 206 820T289 849T359 829T386 767ZM538 524Q594
524 634 479T675 349T645 191T566 72T455 1T328 -25Q197 -25 121 47T45 238Q45 399 148 499T412 600Q448 600 484 592Q495 559 496 517Q517 524 538 524ZM415 385Q415 413 428 448T472 504Q340 476 290 397Q247 329 247 257T276 142T352 98Q454 98 496 231Q415
281 415 385Z" />
<glyph unicode="&#xf7;" glyph-name="divide" horiz-adv-x="733" d="M289 11T265 35T240 98T269 166T338 197T402 173T426 110T397 42T328 11ZM336 507T312 531T287 594T316 662T385 693T448 669T473 606T444 538T375 507ZM259 440L554 446Q633 446 633 370Q633
326 615 291Q576 307 509 307T320 295T139 283Q100 283 100 347T131 457Q185 440 259 440Z" />
<glyph unicode="&#xf8;" glyph-name="oslash" horiz-adv-x="715" d="M359 -23L358 -29Q331 -127 258 -127Q215 -127 177 -98Q204 -73 226 -11Q140 14 93 79T45 238Q45 391 139 490T383 599L395 645Q409 702 466 702T570 660Q539 613 507 520Q527 524 538 524Q594
524 634 479T675 349Q675 189 582 89T359 -23ZM521 268T521 343T488 455Q417 201 395 108Q453 132 487 200ZM299 442T268 377T236 239T269 130Q295 228 353 470Q299 442 268 377Z" />
<glyph unicode="&#xf9;" glyph-name="ugrave" horiz-adv-x="764" d="M223 -25Q135 -25 100 18T65 126T87 306T109 471T88 551Q181 600 245 600Q286 600 304 584T323 530T293 349T262 170T281 117T331 97T397 121T454 191Q468 272 509 447L449 527Q550 600 641
600Q686 600 705 584T725 534T689 342T652 118T683 24Q627 -25 566 -25T477 2T450 73L440 78Q407 30 349 3T223 -25ZM553 653Q511 653 432 686T306 720Q297 720 283 718Q273 752 273 791Q273 886 329 886Q366 886 413 853T513 779T609 729Q606 690 591 672T553
653Z" />
<glyph unicode="&#xfa;" glyph-name="uacute" horiz-adv-x="764" d="M223 -25Q135 -25 100 18T65 126T87 306T109 471T88 551Q181 600 245 600Q286 600 304 584T323 530T293 349T262 170T281 117T331 97T397 121T454 191Q468 272 509 447L449 527Q550 600 641
600Q686 600 705 584T725 534T689 342T652 118T683 24Q627 -25 566 -25T477 2T450 73L440 78Q407 30 349 3T223 -25ZM332 653Q310 653 295 671T276 729Q319 739 371 779T471 852T556 886Q612 886 612 791Q612 752 602 718Q588 720 579 720Q533 720 454 687T332
653Z" />
<glyph unicode="&#xfb;" glyph-name="ucircumflex" horiz-adv-x="764" d="M223 -25Q135 -25 100 18T65 126T87 306T109 471T88 551Q181 600 245 600Q286 600 304 584T323 530T293 349T262 170T281 117T331 97T397 121T454 191Q468 272 509 447L449 527Q550 600
641 600Q686 600 705 584T725 534T689 342T652 118T683 24Q627 -25 566 -25T477 2T450 73L440 78Q407 30 349 3T223 -25ZM624 831L614 708Q614 676 628 652Q597 644 550 644T482 665T461 726Q461 741 468 806H442Q382 732 382 656Q327 644 270 644T213 663Q213
705 337 843Q354 853 405 860T507 868Q624 868 624 831Z" />
<glyph unicode="&#xfc;" glyph-name="udieresis" horiz-adv-x="764" d="M223 -25Q135 -25 100 18T65 126T87 306T109 471T88 551Q181 600 245 600Q286 600 304 584T323 530T293 349T262 170T281 117T331 97T397 121T454 191Q468 272 509 447L449 527Q550 600 641
600Q686 600 705 584T725 534T689 342T652 118T683 24Q627 -25 566 -25T477 2T450 73L440 78Q407 30 349 3T223 -25ZM704 726T667 696T584 666T512 686T485 741Q485 792 524 820T607 849T677 829T704 767ZM403 726T366 696T283 666T211 686T184 741Q184 792 223
820T306 849T376 829T403 767Z" />
<glyph unicode="&#xfd;" glyph-name="yacute" horiz-adv-x="695" d="M332 20Q285 3 238 3T159 31T122 107T113 246T105 376Q92 503 25 557Q72 600 143 600Q182 600 211 580T257 526T286 439Q303 351 303 201Q303 164 300 114H358Q461 392 461 493Q461 527 446
557Q516 600 568 600Q665 600 665 488Q665 399 583 175Q568 134 566 127Q439 -235 205 -235Q134 -235 88 -205T42 -125T79 -21Q127 -89 199 -89Q240 -89 275 -62T332 20ZM296 653Q274 653 259 671T240 729Q283 739 335 779T435 852T520 886Q576 886 576 791Q576
752 566 718Q552 720 543 720Q497 720 418 687T296 653Z" />
<glyph unicode="&#xfe;" glyph-name="thorn" horiz-adv-x="756" d="M325 453L335 448Q364 520 419 560T548 601T667 534T711 366Q711 232 617 122Q571 68 494 35T322 1Q293 1 246 6Q243 -29 243 -59Q243 -123 274 -150Q218 -199 156 -199T70 -169T45 -75Q45 56
149 622L93 702Q218 775 290 775Q331 775 348 759T365 693T325 453ZM287 215L264 99Q385 102 457 178T530 346Q530 393 512 421T458 450Q334 450 287 215Z" />
<glyph unicode="&#xff;" glyph-name="ydieresis" horiz-adv-x="695" d="M332 20Q285 3 238 3T159 31T122 107T113 246T105 376Q92 503 25 557Q72 600 143 600Q182 600 211 580T257 526T286 439Q303 351 303 201Q303 164 300 114H358Q461 392 461 493Q461 527 446
557Q516 600 568 600Q665 600 665 488Q665 399 583 175Q568 134 566 127Q439 -235 205 -235Q134 -235 88 -205T42 -125T79 -21Q127 -89 199 -89Q240 -89 275 -62T332 20ZM654 726T617 696T534 666T462 686T435 741Q435 792 474 820T557 849T627 829T654 767ZM353
726T316 696T233 666T161 686T134 741Q134 792 173 820T256 849T326 829T353 767Z" />
<glyph unicode="&#x2013;" glyph-name="endash" horiz-adv-x="937" d="M229 425L838 431Q922 431 922 355Q922 308 902 273Q845 292 732 292T394 280T59 268Q15 268 15 329T50 444Q116 425 229 425Z" />
<glyph unicode="&#x2014;" glyph-name="emdash" horiz-adv-x="1112" d="M270 425L1013 431Q1097 431 1097 355Q1097 308 1076 272Q1011 292 874 292T464 280T59 268Q15 268 15 330T50 445Q140 425 270 425Z" />
<glyph unicode="&#x2018;" glyph-name="quoteleft" horiz-adv-x="331" d="M222 622L292 532Q290 484 252 448T164 412T85 446T56 527Q56 631 126 711T313 816L328 772Q281 750 252 706T222 622Z" />
<glyph unicode="&#x2019;" glyph-name="quoteright" horiz-adv-x="331" d="M159 590L89 680Q91 728 129 764T217 800T296 766T325 685Q325 581 255 501T68 396L53 440Q100 462 129 506T159 590Z" />
<glyph unicode="&#x201a;" glyph-name="quotesinglbase" horiz-adv-x="333" d="M159 37L89 127Q91 175 129 211T217 247T296 213T325 132Q325 28 255 -52T68 -157L53 -113Q100 -91 129 -47T159 37Z" />
<glyph unicode="&#x201c;" glyph-name="quotedblleft" horiz-adv-x="635" d="M222 622L292 532Q290 484 252 448T164 412T85 446T56 527Q56 631 126 711T313 816L328 772Q281 750 252 706T222 622ZM526 622L596 532Q594 484 556 448T468 412T389 446T360 527Q360
631 430 711T617 816L632 772Q585 750 556 706T526 622Z" />
<glyph unicode="&#x201d;" glyph-name="quotedblright" horiz-adv-x="635" d="M463 590L393 680Q395 728 433 764T521 800T600 766T629 685Q629 581 559 501T372 396L357 440Q404 462 433 506T463 590ZM159 590L89 680Q91 728 129 764T217 800T296 766T325 685Q325
581 255 501T68 396L53 440Q100 462 129 506T159 590Z" />
<glyph unicode="&#x201e;" glyph-name="quotedblbase" horiz-adv-x="635" d="M463 37L393 127Q395 175 433 211T521 247T600 213T629 132Q629 28 559 -52T372 -157L357 -113Q404 -91 433 -47T463 37ZM159 37L89 127Q91 175 129 211T217 247T296 213T325 132Q325
28 255 -52T68 -157L53 -113Q100 -91 129 -47T159 37Z" />
<glyph unicode="&#x2022;" glyph-name="bullet" horiz-adv-x="388" d="M127 175T91 211T54 305T98 407T201 453T297 417T334 323T289 221T186 175Z" />
<glyph unicode="&#x2039;" glyph-name="guilsinglleft" horiz-adv-x="382" d="M283 243Q274 18 224 18Q189 18 139 63T62 154Q58 174 58 212Q58 313 86 420T154 533Q243 540 278 549T336 567Q336 422 289 375Q266 352 242 344T196 336T133 343L126 299Q195 243 283 243Z" />
<glyph unicode="&#x203a;" glyph-name="guilsinglright" horiz-adv-x="382" d="M99 335Q108 560 158 560Q193 560 243 515T320 424Q324 404 324 366Q324 265 296 158T228 45Q139 38 104 29T46 11Q46 156 93 203Q116 226 140 234T186 242T249 235L256 279Q187 335 99 335Z" />
</font>
</defs>
</svg>
