<?xml version="1.0" standalone="no"?>
<!DOCTYPE svg PUBLIC "-//W3C//DTD SVG 1.1//EN" "http://www.w3.org/Graphics/SVG/1.1/DTD/svg11.dtd">
<svg xmlns="http://www.w3.org/2000/svg">
<defs >
<font id="Wellfleet" horiz-adv-x="1198" ><font-face
    font-family="Wellfleet"
    units-per-em="2048"
    panose-1="2 4 5 3 5 6 0 6 7 4"
    ascent="2020"
    descent="-540"
    alphabetic="0" />
<glyph unicode=" " glyph-name="space" horiz-adv-x="590" />
<glyph unicode="!" glyph-name="exclam" horiz-adv-x="512" d="M117 1539Q119 1559 141 1563L359 1555Q380 1553 380 1529L337 450Q336 430 319 430Q304 430 286 432L183 443Q159 447 157 472L117 1539ZM403 165T408 135T414 79T397 32T350 -4Q290 -33 234 -33T157
-16T123 28Q98 78 98 126T120 197T174 232Q229 253 283 253T358 236T391 192Z" />
<glyph unicode="&quot;" glyph-name="quotedbl" horiz-adv-x="1024" d="M172 1729Q174 1745 191 1745L392 1737Q404 1736 407 1731T412 1713L366 1200Q366 1186 342 1186L231 1196Q212 1198 212 1212L172 1729ZM612 1729Q614 1745 631 1745L832 1737Q844 1736
847 1731T852 1713L806 1200Q806 1186 782 1186L671 1196Q652 1198 652 1212L612 1729Z" />
<glyph unicode="#" glyph-name="numbersign" horiz-adv-x="1194" d="M1092 1038Q1107 1036 1107 1018L1098 862Q1096 848 1084 848L886 858L861 703L848 609L1042 617Q1057 617 1057 600L1041 446Q1039 427 1023 427L825 433L783 107Q780 90 758 90H610Q591 90
591 110L645 438L528 442L461 441L416 102Q413 85 391 85L250 90Q231 90 231 110L284 439L104 437Q87 437 87 456L102 597Q105 620 127 621L312 611L329 714L348 864L168 858Q153 858 153 877L162 1018Q163 1042 181 1042L370 1036L410 1344Q412 1364 433 1364L581
1356Q593 1355 596 1350T601 1332L551 1031L601 1030L732 1032L770 1329Q772 1349 793 1349L941 1351Q953 1350 956 1345T961 1327L914 1035L1092 1038ZM483 603L561 599L673 603L690 706L710 866L584 873L524 871L498 712L483 603Z" />
<glyph unicode="$" glyph-name="dollar" horiz-adv-x="1364" d="M647 -197Q623 -197 623 -183L625 6Q526 13 429 37L440 -44Q440 -62 417 -62L245 -67Q207 -65 203 -28L175 349Q175 369 199 371L395 389Q412 389 416 366L415 205Q529 186 627 182L633 677Q389
766 294 858Q191 960 191 1134Q191 1300 305 1406Q418 1511 620 1527L617 1680Q617 1702 637 1704L768 1712Q785 1712 787 1696L784 1525Q883 1516 980 1487Q1108 1526 1140 1526T1174 1499L1154 1104Q1152 1081 1138 1081L970 1087Q956 1088 953 1094T949 1113L941
1322Q844 1342 781 1347L773 883Q1034 780 1132 670Q1219 573 1219 414Q1219 147 984 48Q901 14 784 5L787 -171Q787 -185 768 -187L647 -197ZM945 508Q889 574 774 624L781 187Q885 202 931 252T978 385T945 508ZM624 1343Q436 1315 436 1165Q436 1083 479 1036Q520
990 632 941L624 1343Z" />
<glyph unicode="%" glyph-name="percent" horiz-adv-x="1376" d="M1247 1407Q1255 1401 1255 1394T1250 1378L777 738L289 38Q283 30 275 30T259 35L169 99Q161 104 161 111T168 130L666 821L1126 1473Q1132 1482 1138 1482T1153 1477L1247 1407ZM614 1384T631
1331T649 1212T630 1091T572 996Q492 912 350 912Q214 912 138 999Q67 1080 67 1206Q67 1409 228 1479Q284 1503 359 1503T489 1482T578 1422ZM443 1336T420 1348T360 1361T298 1347T257 1310Q230 1270 230 1224T237 1151T260 1102Q294 1053 357 1053Q452 1053
482 1153Q490 1182 490 1212T483 1269T459 1316ZM1274 467T1291 414T1309 295T1290 174T1232 78Q1152 -5 1010 -5Q874 -5 798 82Q727 163 727 289Q727 492 888 562Q944 586 1019 586T1149 565T1238 505ZM1103 419T1080 431T1020 444T958 430T917 394Q890 353 890
307T897 234T920 185Q954 136 1017 136Q1112 136 1142 236Q1150 265 1150 295T1143 352T1119 399Z" />
<glyph unicode="&amp;" glyph-name="ampersand" horiz-adv-x="1355" d="M959 183Q761 -24 494 -24Q320 -24 205 64Q78 162 78 336Q78 547 272 690Q333 736 410 780Q316 891 284 954Q230 1062 230 1160T262 1328T351 1446Q466 1541 654 1541Q832 1541 942 1456Q1063
1364 1063 1193Q1063 1056 980 960Q903 871 710 772L934 528L1193 257L1261 357Q1268 366 1275 366T1291 360L1434 229Q1441 222 1441 216T1436 205L1122 -127Q1116 -133 1111 -133T1097 -125L976 -18Q964 -8 964 -2T969 9L1054 93L959 183ZM509 664Q315 531 315
378Q315 280 382 226Q443 177 534 177Q709 177 837 305L665 488L509 664ZM476 1250Q459 1215 459 1174T464 1105T486 1046Q517 988 612 881Q802 985 838 1092Q851 1128 851 1168T839 1243T804 1303Q754 1356 664 1356Q525 1356 476 1250Z" />
<glyph unicode="&apos;" glyph-name="quotesingle" horiz-adv-x="512" d="M136 1729Q138 1745 155 1745L356 1737Q368 1736 371 1731T376 1713L330 1200Q330 1186 306 1186L195 1196Q176 1198 176 1212L136 1729Z" />
<glyph unicode="(" glyph-name="parenleft" horiz-adv-x="683" d="M402 96T433 49T507 2T574 6Q591 6 592 -18L583 -169Q581 -186 560 -188Q508 -193 479 -193Q293 -193 218 40Q153 243 153 693Q153 1164 230 1383Q318 1629 529 1629Q600 1629 604 1624T610 1607L620
1451Q620 1432 606 1432Q594 1434 566 1434Q497 1434 456 1393T392 1264Q356 1122 356 718Q356 341 379 219Z" />
<glyph unicode=")" glyph-name="parenright" horiz-adv-x="683" d="M280 1340T249 1387T176 1434T109 1430Q92 1430 91 1454L100 1605Q102 1622 123 1624Q175 1629 204 1629Q390 1629 464 1396Q530 1193 530 743Q530 272 452 53Q365 -193 154 -193Q83 -193 79
-188T73 -171L63 -15Q63 4 77 4Q89 2 117 2Q186 2 227 43T291 172Q327 314 327 718Q327 1097 304 1218Z" />
<glyph unicode="*" glyph-name="asterisk" horiz-adv-x="1021" d="M970 1196Q970 1170 949 1170L610 1194L757 911Q762 899 762 891T748 876L603 809Q599 807 592 807Q577 807 573 824L487 1142L256 907Q247 897 239 897T223 907L126 1031Q119 1041 119 1050T128
1064L405 1243L106 1396Q93 1402 93 1412T99 1430L191 1558Q199 1569 208 1569T226 1562L473 1356L525 1690Q528 1708 555 1708L693 1654Q709 1648 709 1634Q709 1631 707 1623L599 1327L904 1382Q921 1382 926 1379T935 1361L970 1196Z" />
<glyph unicode="+" glyph-name="plus" horiz-adv-x="1194" d="M165 663Q167 682 181 682L503 686L495 1024Q495 1044 514 1045L675 1037Q695 1035 695 1013L685 688L1011 692Q1029 690 1029 673L1026 512Q1026 500 1021 497T1002 492L683 502L689 138Q689 124
665 122L514 129Q495 131 495 145L503 501L189 488Q177 488 175 512L165 663Z" />
<glyph unicode="," glyph-name="comma" horiz-adv-x="502" d="M127 -281Q184 -154 184 -96T171 -10T141 38Q104 82 104 108T122 159T166 204Q228 251 273 251T343 232T382 182Q408 128 408 63T395 -53T360 -150Q320 -238 254 -313L127 -281Z" />
<glyph unicode="-" glyph-name="hyphen" horiz-adv-x="1194" d="M1000 772Q1016 770 1016 753L998 602Q996 590 992 587T974 582L191 578Q177 578 177 602L187 743Q189 762 203 762L1000 772Z" />
<glyph unicode="." glyph-name="period" horiz-adv-x="512" d="M410 165T415 135T421 79T404 32T357 -4Q297 -33 241 -33T164 -16T130 28Q105 78 105 126T127 197T181 232Q236 253 290 253T365 236T398 192Z" />
<glyph unicode="/" glyph-name="slash" horiz-adv-x="682" d="M658 1704Q673 1699 673 1687Q673 1684 671 1676L170 -441Q167 -455 152 -455Q146 -455 142 -454L16 -423Q0 -419 0 -402Q0 -397 1 -395L497 1720Q500 1737 517 1737Q521 1737 524 1736L658 1704Z" />
<glyph unicode="0" glyph-name="zero" horiz-adv-x="1194" d="M168 391Q142 525 142 668T148 918T171 1117T221 1288T306 1422Q416 1540 627 1540Q1051 1540 1051 803Q1051 380 948 188Q837 -20 571 -20Q250 -20 168 391ZM601 202Q676 202 720 246T788 374Q825
506 825 834Q825 1095 778 1201Q729 1314 599 1314Q527 1314 481 1287T410 1189Q365 1067 365 697Q365 445 409 336Q463 202 601 202Z" />
<glyph unicode="1" glyph-name="one" horiz-adv-x="1194" d="M199 201Q199 220 215 220L532 198V1236L221 1196Q210 1196 207 1201T201 1218L186 1343Q186 1363 209 1372L573 1521Q592 1529 609 1531L758 1517Q776 1515 776 1494L759 1280L747 199L1022 220Q1036
220 1038 201L1048 20Q1048 -4 1034 -4L231 10Q209 10 207 30L199 201Z" />
<glyph unicode="2" glyph-name="two" horiz-adv-x="1194" d="M816 1166Q816 1333 602 1333Q489 1333 381 1277L393 1113Q393 1100 390 1094T372 1087L184 1101Q170 1103 168 1124L148 1494Q149 1518 178 1526Q188 1529 210 1533L254 1542Q309 1552 325 1552Q361
1552 365 1520L369 1454Q523 1534 639 1534T830 1512T955 1446Q1060 1354 1060 1180Q1060 1046 1022 960T937 804T818 648T644 452L410 200L863 229L861 334Q861 352 873 362T903 373L1053 360Q1069 358 1076 353T1085 330L1046 -52Q1042 -75 1025 -75L857 -71Q835
-71 835 -45L846 20L195 12Q181 12 177 36L153 209Q153 225 169 239L416 488Q775 867 808 1068Q816 1117 816 1166Z" />
<glyph unicode="3" glyph-name="three" horiz-adv-x="1194" d="M760 808Q1103 749 1103 439Q1103 242 960 118Q823 -2 619 -2Q482 -2 376 28L383 -32Q383 -48 360 -50L208 -65Q180 -65 174 -55T166 -26L158 321Q158 339 182 343L318 361Q335 361 339 338L355 200Q470
176 559 176T698 192T787 242Q869 313 869 439Q869 561 797 624Q740 675 661 675Q597 675 523 658Q414 634 401 634Q372 634 370 657L356 802Q358 832 386 834Q589 845 697 942Q791 1025 791 1147Q791 1285 682 1322Q648 1334 609 1334Q491 1334 378 1264L387 1143Q386
1130 384 1125T366 1117L188 1101Q174 1101 172 1124L192 1524Q194 1554 222 1556L361 1552Q396 1550 399 1520L389 1449Q542 1537 711 1537Q856 1537 942 1438Q1024 1342 1024 1190Q1024 1006 876 887Q827 847 760 808Z" />
<glyph unicode="4" glyph-name="four" horiz-adv-x="1194" d="M1115 484Q1113 464 1091 464L895 462V189L1035 186Q1058 186 1059 166L1067 15Q1067 -4 1051 -4H468Q449 -4 448 15L438 176Q438 200 452 200L673 194L679 460L181 456Q141 456 129 484L84 586Q79
599 79 608T96 660L279 1080Q480 1521 490 1540T506 1563T526 1568L741 1518Q756 1515 757 1504T736 1446T675 1326L383 782L288 613L683 627L691 961Q691 984 716 984L918 987Q938 983 938 965L899 634L1091 641Q1107 641 1107 622L1115 484Z" />
<glyph unicode="5" glyph-name="five" horiz-adv-x="1194" d="M189 -65Q149 -65 147 -26L159 311Q159 331 183 333L309 341Q330 341 330 318L331 211Q452 186 585 186T789 255T860 466Q860 592 798 660Q739 725 654 725Q526 725 451 712Q343 692 329 692Q310 692
295 715L202 848L301 1483Q306 1514 329 1514L834 1487V1532Q834 1555 856 1558L984 1572Q1003 1572 1005 1549L1019 1199Q1018 1183 996 1181L854 1166Q812 1166 812 1205L822 1300H472L415 870Q574 918 679 918T859 887T983 798Q1080 682 1080 470Q1080 236 953
116Q837 7 627 7Q491 7 434 20T345 42L354 -32Q354 -48 331 -50L189 -65Z" />
<glyph unicode="6" glyph-name="six" horiz-adv-x="1194" d="M619 1548Q694 1548 773 1521L904 1570Q942 1570 946 1531L984 1194Q984 1171 962 1168L784 1134Q765 1134 763 1157L754 1374Q724 1382 659 1382T533 1351T438 1255Q377 1143 371 872Q508 920 656
920Q988 920 1060 639Q1077 573 1077 464T1042 258T942 96Q817 -32 602 -32Q349 -32 234 160Q124 346 124 738Q124 1548 619 1548ZM718 726Q677 735 593 735T370 704Q372 407 422 292Q473 171 602 171Q860 171 860 465Q860 698 718 726Z" />
<glyph unicode="7" glyph-name="seven" horiz-adv-x="1194" d="M153 1049Q136 1051 132 1073L141 1542Q141 1560 164 1560L328 1540Q348 1536 348 1517V1488L1079 1515Q1108 1514 1110 1480L1106 1350L596 11Q587 -9 570 -11L338 9Q322 10 321 28Q321 41 370 154L902
1321H349L350 1081Q350 1062 326 1061L153 1049Z" />
<glyph unicode="8" glyph-name="eight" horiz-adv-x="1194" d="M955 1429T991 1358T1028 1202T1013 1063T968 960Q922 883 812 782Q953 693 1010 610Q1070 522 1070 405T1038 211T945 82Q826 -20 608 -20Q405 -20 278 74Q134 181 134 380Q134 581 275 729Q316
772 361 813Q175 954 175 1154Q175 1344 300 1456Q416 1560 594 1560Q777 1560 894 1474Q955 1429 991 1358ZM487 728Q353 580 353 430Q353 310 429 244Q502 180 622 180Q777 180 826 298Q842 336 842 387T825 476T767 549T658 626L487 728ZM402 1251Q382 1214
382 1172T395 1096T442 1027Q512 955 690 855Q760 926 787 973Q836 1061 836 1154Q836 1243 772 1300Q711 1356 619 1356Q459 1356 402 1251Z" />
<glyph unicode="9" glyph-name="nine" horiz-adv-x="1194" d="M209 -51Q171 -51 167 -12L199 325Q202 349 221 351L359 361Q376 361 380 338L401 140Q470 128 549 128T685 160T772 258Q826 368 832 659Q699 609 547 609Q211 609 139 888Q122 953 122 1065T161
1276T266 1438Q395 1561 604 1561Q845 1561 957 1378T1070 822Q1070 180 830 18Q746 -38 614 -38T393 -15L209 -51ZM488 800Q529 790 607 790T834 827V855Q834 1126 780 1238Q723 1357 577 1357Q348 1357 348 1073Q348 836 488 800Z" />
<glyph unicode=":" glyph-name="colon" horiz-adv-x="512" d="M410 165T415 135T421 79T404 32T357 -4Q297 -33 241 -33T164 -16T130 28Q105 78 105 126T127 197T181 232Q236 253 290 253T365 236T398 192ZM410 932T415 902T421 846T404 799T357 763Q297 734 241
734T164 751T130 795Q105 845 105 893T127 964T181 998Q236 1020 290 1020T365 1003T398 959Z" />
<glyph unicode=";" glyph-name="semicolon" horiz-adv-x="512" d="M149 -281Q206 -154 206 -96T193 -10T163 38Q126 82 126 108T144 159T188 204Q250 251 295 251T365 232T404 182Q430 128 430 63T417 -53T382 -150Q342 -238 276 -313L149 -281ZM410 932T415 902T421
846T404 799T357 763Q297 734 241 734T164 751T130 795Q105 845 105 893T127 964T181 998Q236 1020 290 1020T365 1003T398 959Z" />
<glyph unicode="&lt;" glyph-name="less" horiz-adv-x="1194" d="M249 490Q226 504 224 525L216 621Q218 643 233 652L846 1024Q854 1030 861 1030Q876 1030 882 1022L970 885Q976 876 976 870Q976 864 970 860L433 577L971 304Q977 300 977 293Q977 286 971 276L887
134Q883 127 877 127T862 132L249 490Z" />
<glyph unicode="=" glyph-name="equal" horiz-adv-x="1194" d="M995 852Q1009 852 1011 833V692Q1011 668 994 668L596 680L214 672Q201 673 196 676T190 692L182 843Q182 862 200 862L995 852ZM198 278Q184 278 182 297V438Q182 462 201 462L613 450L979 458Q992
457 997 454T1003 438L1011 287Q1011 270 995 268L198 278Z" />
<glyph unicode="&gt;" glyph-name="greater" horiz-adv-x="1194" d="M945 666Q968 652 970 631L978 535Q976 513 961 504L348 132Q340 126 333 126Q318 126 312 134L224 271Q218 280 218 286Q218 292 224 296L761 579L223 852Q217 856 217 862T223 880L307 1022Q311
1029 317 1029T332 1024L945 666Z" />
<glyph unicode="?" glyph-name="question" horiz-adv-x="1023" d="M86 1091Q72 1091 70 1114L90 1504Q93 1536 120 1536L269 1532Q304 1530 307 1500L305 1440Q465 1524 624 1524Q880 1524 950 1341Q973 1279 973 1205T955 1069T908 949T840 834L652 572Q600 496
583 452T561 402T545 396L389 419Q376 420 376 434T386 488Q410 580 528 751L604 864Q739 1066 739 1178Q739 1279 639 1312Q608 1323 568 1323T493 1318T425 1304Q374 1290 299 1251L295 1123Q294 1110 292 1104T274 1097L86 1091ZM635 165T640 135T646 79T629
32T582 -4Q522 -33 466 -33T389 -16T355 28Q330 78 330 126T352 197T406 232Q461 253 515 253T590 236T623 192Z" />
<glyph unicode="@" glyph-name="at" horiz-adv-x="2042" d="M1250 140Q1134 -26 937 -26Q684 -26 614 251Q591 340 591 480T618 751T700 972Q810 1154 1017 1154Q1155 1154 1246 1072Q1244 1134 1239 1174Q1239 1195 1263 1195L1433 1164Q1451 1161 1451 1141Q1432
956 1422 839L1404 650Q1383 412 1383 302Q1383 247 1415 217T1495 187T1585 230T1658 354Q1726 528 1726 816Q1726 1397 1100 1397Q706 1397 515 1162T324 447Q324 70 490 -98Q650 -260 1018 -260T1776 -82Q1789 -82 1793 -85T1799 -100L1830 -280Q1830 -299 1810
-308Q1494 -428 1204 -457Q1093 -468 938 -468T631 -417T368 -256Q138 -26 138 438Q138 982 388 1285Q643 1595 1114 1595Q1685 1595 1848 1171Q1903 1028 1903 831T1875 477T1794 213Q1684 -5 1482 -5Q1327 -5 1250 140ZM842 232T873 210T959 188T1053 213T1122
279T1168 372T1196 480Q1214 573 1214 667T1202 811T1166 892Q1122 949 1043 949T921 917T850 824Q797 708 797 471Q797 333 819 283Z" />
<glyph unicode="A" glyph-name="A" horiz-adv-x="1366" d="M56 2Q34 4 34 34V201Q34 217 40 223T64 230L156 226L552 1510Q558 1529 576 1531L803 1539Q821 1538 828 1516L1260 233L1351 236Q1379 234 1379 204V46Q1379 29 1372 24T1348 19H885Q867 19 864 27T861
49L881 195Q883 212 889 217T911 223L1025 226L939 492L444 502L363 212L484 224Q496 224 500 219T507 201L522 49Q520 32 514 26T492 19L56 2ZM491 672H880L670 1315L491 672Z" />
<glyph unicode="B" glyph-name="B" horiz-adv-x="1366" d="M953 795Q1268 730 1268 433Q1268 80 932 8Q822 -15 718 -15T537 -12T386 -2Q137 18 124 38Q119 46 118 58L127 205Q129 233 159 233T278 221V1320Q198 1315 164 1315T127 1343L118 1483Q120 1510 142
1514Q373 1555 645 1555Q1178 1555 1178 1136Q1178 930 1048 842Q1006 813 953 795ZM502 195Q592 190 670 190T818 198T940 232Q1048 286 1048 431Q1048 633 834 660Q771 668 683 668T502 659V195ZM771 1342Q716 1351 653 1351T502 1342V855Q531 853 560 853H619Q783
853 862 904Q955 963 955 1111Q955 1312 771 1342Z" />
<glyph unicode="C" glyph-name="C" horiz-adv-x="1366" d="M1173 1530Q1213 1530 1215 1491L1203 1055Q1203 1029 1181 1029L1013 1025Q994 1025 992 1048L971 1305Q849 1335 746 1335T572 1305T455 1206Q366 1074 366 765Q366 298 592 206Q666 176 772 176T996
214L991 348Q993 366 1015 370L1181 398Q1198 398 1202 375L1242 -15Q1242 -31 1219 -33L1047 -48Q1007 -48 1005 -9L1003 33Q864 -41 710 -41T450 12T273 168Q130 377 130 776Q130 1172 290 1364Q436 1540 707 1540Q877 1540 993 1502L1173 1530Z" />
<glyph unicode="D" glyph-name="D" horiz-adv-x="1366" d="M246 1313Q185 1309 105 1301Q94 1301 91 1306T87 1323L73 1509Q74 1521 79 1524T97 1530Q196 1532 269 1534T397 1537T490 1538T557 1539T608 1540H650Q948 1540 1092 1384Q1259 1204 1259 786Q1259
391 1090 180Q929 -19 645 -19Q347 -19 101 6Q84 7 83 30L95 207Q97 223 111 226L220 218L246 1313ZM453 205Q537 199 575 199H639Q842 199 937 340T1033 761Q1033 1225 810 1309Q738 1336 680 1336Q580 1336 465 1329L453 205Z" />
<glyph unicode="E" glyph-name="E" horiz-adv-x="1366" d="M1272 -41Q1268 -64 1251 -64L1063 -60Q1041 -60 1041 -34L1039 27L146 2Q123 2 122 26L128 210Q128 225 144 229L269 212L261 1301L135 1290Q117 1290 117 1312L128 1494Q130 1513 152 1515L1151 1553Q1181
1551 1181 1526L1161 1161Q1161 1138 1145 1138L977 1144Q963 1145 960 1151T956 1170L950 1342L477 1317L484 851L975 882Q1000 882 1002 859L1009 691Q1007 668 988 668L486 661L493 204L1033 222L1029 353Q1031 390 1071 392L1233 387Q1256 385 1256 369L1272
-41Z" />
<glyph unicode="F" glyph-name="F" horiz-adv-x="1195" d="M123 1311Q109 1314 107 1330L121 1514Q122 1538 139 1538L871 1521L870 1574Q870 1597 892 1600L1050 1614Q1067 1614 1071 1591L1125 1171Q1125 1155 1102 1153L920 1138Q880 1138 878 1177L875 1315L482
1326L475 850L991 852Q1009 852 1009 833L1002 671Q1000 648 975 648L472 661L466 213L724 228Q745 228 747 206L758 30Q757 17 754 12T740 7L141 -5Q129 -3 124 0T117 16L106 198Q106 218 124 220L250 214L258 1322L123 1311Z" />
<glyph unicode="G" glyph-name="G" horiz-adv-x="1366" d="M729 596Q706 600 706 617L710 795Q710 815 736 817L1223 849Q1260 847 1262 807L1257 635Q1257 624 1251 618T1239 612L1187 610L1205 15Q1203 -13 1179 -13Q1123 -13 990 56Q855 -22 699 -22T432 24T248
170Q96 370 96 790Q96 1376 426 1500Q531 1540 661 1540Q847 1540 966 1443L986 1564Q989 1589 1008 1590L1165 1604Q1189 1604 1189 1581L1200 1215Q1200 1196 1180 1193L990 1167Q929 1248 882 1277Q798 1329 709 1329T547 1304T421 1217Q312 1087 312 786Q312
301 556 219Q633 193 744 193T977 237L972 603L729 596Z" />
<glyph unicode="H" glyph-name="H" horiz-adv-x="1538" d="M664 240Q680 240 680 221L667 33Q665 13 643 13L179 6Q162 6 161 30L163 207Q163 222 179 226L286 223V1304L153 1303Q142 1303 139 1308T135 1325L126 1501Q127 1513 132 1516T150 1522L649 1514Q667
1512 667 1491L663 1315Q663 1293 640 1293L509 1300L508 858L1050 865V1322L913 1326Q902 1326 899 1331T895 1348L901 1514Q903 1535 925 1535L1392 1537Q1403 1536 1406 1532T1410 1514L1423 1335Q1423 1313 1400 1313L1273 1316L1270 205L1424 210Q1440 210
1440 191L1427 13Q1425 -7 1403 -7L929 6Q912 6 911 30L913 197Q913 212 929 216L1050 207V663L507 659L506 229L664 240Z" />
<glyph unicode="I" glyph-name="I" horiz-adv-x="682" d="M585 210Q601 210 601 191L598 13Q598 -7 574 -7L110 6Q93 6 92 30L84 207Q86 223 100 226L239 216L231 1305L94 1306Q76 1306 76 1328L92 1504Q93 1516 98 1519T116 1525L583 1507Q594 1506 597 1502T601
1484L594 1325Q592 1303 571 1303H454L451 210H585Z" />
<glyph unicode="J" glyph-name="J" horiz-adv-x="852" d="M679 1315Q722 830 722 357Q722 111 633 10Q547 -89 342 -89Q325 -89 309 -87L276 -83L284 -137Q284 -153 261 -155L108 -170Q70 -170 66 -131L38 306Q40 329 60 332L199 346Q216 346 220 323L251 95Q278
87 320 87T401 105T462 162Q506 238 506 416Q506 664 488 919L460 1310L253 1298Q237 1298 237 1317L230 1505Q231 1517 236 1520T254 1525L816 1542Q832 1542 834 1518L842 1331Q840 1315 826 1312L679 1315Z" />
<glyph unicode="K" glyph-name="K" horiz-adv-x="1366" d="M854 1316Q836 1316 836 1338L852 1524Q853 1541 876 1545L1293 1537Q1311 1535 1311 1514L1314 1335Q1314 1313 1291 1313L1180 1314L770 732L1144 222L1316 210Q1349 208 1349 176L1350 29Q1350 -14
1313 -16L1051 -23Q1029 -21 1016 -3L602 630L481 626V220H585Q601 220 601 201L608 13Q606 -7 584 -7L120 -4Q103 -4 102 20L94 217Q96 233 110 236L257 227V1320L114 1306Q103 1306 100 1311T96 1328L82 1524Q84 1545 106 1545L583 1547Q594 1546 597 1542T601
1524L584 1335Q581 1313 561 1313L481 1318V798L607 806L946 1315L854 1316Z" />
<glyph unicode="L" glyph-name="L" horiz-adv-x="1195" d="M969 -43Q952 -43 948 -20L943 28L100 -7Q83 -7 82 17L98 191Q100 207 114 210L252 204L261 1304L125 1291Q114 1291 111 1296T107 1313L98 1493Q99 1516 122 1516L607 1524Q626 1522 629 1501L648 1325Q648
1311 642 1308T625 1303L479 1308L476 209L922 232L904 407Q904 426 927 428L1089 443Q1129 443 1131 404L1149 7Q1147 -16 1127 -19L969 -43Z" />
<glyph unicode="M" glyph-name="M" horiz-adv-x="1872" d="M1369 3Q1347 3 1345 23L1352 191Q1354 210 1368 210H1437L1377 1337L1058 10Q1054 -10 1034 -10L822 -13Q804 -13 799 9L468 1291L439 216L531 220Q544 220 547 201L564 23Q562 3 540 3L106 -4Q89 -4
88 20L100 207Q102 223 116 226L248 214L307 1295L183 1283Q163 1283 162 1305L153 1491Q155 1510 177 1512L587 1534Q616 1534 624 1506L942 238L1258 1497Q1264 1525 1295 1525L1688 1522Q1700 1520 1705 1517T1712 1501L1723 1305Q1721 1293 1719 1288T1705
1283L1582 1284L1650 213L1783 216Q1797 213 1799 197L1781 30Q1777 6 1763 6L1369 3Z" />
<glyph unicode="N" glyph-name="N" horiz-adv-x="1536" d="M1472 1325Q1472 1303 1449 1303L1322 1306L1320 39Q1320 12 1296 10L1054 -3Q1041 -3 1031 19L442 1324L466 230L623 240Q637 240 639 221L656 23Q654 3 632 3L148 6Q134 6 130 30L112 197Q114 216 128
216L285 220V1301L102 1293Q91 1294 89 1298T84 1315L95 1491Q97 1510 119 1512L559 1534Q585 1532 596 1506L1163 232L1137 1311L982 1316Q971 1316 968 1321T964 1338L970 1504Q972 1525 994 1525L1441 1527Q1452 1526 1455 1522T1459 1504L1472 1325Z" />
<glyph unicode="O" glyph-name="O" horiz-adv-x="1366" d="M1260 751Q1260 -10 699 -10Q406 -10 256 182T105 751Q105 1330 422 1488Q528 1540 670 1540T922 1496T1107 1357Q1260 1163 1260 751ZM1034 764Q1034 919 1010 1029T940 1202T826 1288T668 1312T511
1278T404 1175Q329 1046 329 755Q329 458 423 332Q510 217 706 217Q885 217 962 344Q1034 466 1034 764Z" />
<glyph unicode="P" glyph-name="P" horiz-adv-x="1366" d="M737 218Q753 218 753 199L740 33Q738 13 716 13L142 6Q124 6 124 30L126 205Q126 220 142 224L299 208V1328L143 1315Q133 1315 126 1323T118 1343L129 1483Q131 1510 157 1514T225 1524T317 1534T421
1543T530 1550Q647 1555 758 1555T976 1528T1156 1444Q1299 1328 1299 1078Q1299 722 966 652Q865 630 747 630T513 640V205L737 218ZM513 822Q610 813 703 813T859 823T969 864Q1066 926 1066 1080Q1066 1354 764 1354Q650 1354 513 1345V822Z" />
<glyph unicode="Q" glyph-name="Q" horiz-adv-x="1366" d="M345 9T228 205T110 783T243 1367T662 1570Q955 1570 1101 1382Q1257 1182 1257 783T1136 182T753 -38Q783 -110 833 -136T939 -163Q1028 -163 1097 -150T1181 -136Q1195 -136 1197 -153L1208 -320Q1206
-332 1202 -335T1162 -348Q1040 -381 938 -381T778 -357T682 -288Q618 -214 578 -30Q345 9 228 205ZM1002 384T1018 494T1035 766T1009 1044T935 1226Q849 1344 664 1344Q476 1344 400 1206Q328 1076 328 766Q328 292 542 196Q614 164 707 164T862 200T963 310Z"
/>
<glyph unicode="R" glyph-name="R" horiz-adv-x="1366" d="M622 13Q620 -7 598 -7L94 -4Q77 -4 76 20L98 217Q100 233 114 236L241 227V1307Q167 1301 137 1301T100 1308T90 1329L70 1493Q72 1520 94 1524Q394 1555 687 1555Q1096 1555 1196 1294Q1231 1205 1231
1096T1206 913T1134 786Q1042 680 883 649L1145 235L1322 250Q1355 248 1355 216L1356 59Q1356 6 1319 4L1035 -3Q1015 -3 1004 17L666 638Q552 640 461 649L464 220H599Q615 220 615 201L622 13ZM725 1345Q645 1345 455 1326L459 828Q546 823 640 823T795 836T902
880Q999 945 999 1081T931 1281T725 1345Z" />
<glyph unicode="S" glyph-name="S" horiz-adv-x="1196" d="M878 32Q794 4 666 4T362 36L369 -44Q369 -62 346 -62L174 -67Q136 -65 132 -28L94 359Q94 379 118 381L314 399Q333 399 335 376L348 214Q492 199 635 199T835 247T892 394Q892 482 825 538Q790 568
734 597L460 730Q315 799 261 840T178 922Q120 1003 120 1112T154 1299T250 1433Q380 1552 580 1552Q722 1552 888 1507Q1016 1546 1048 1546T1083 1519L1063 1104Q1061 1081 1047 1081L879 1087Q865 1088 862 1094T858 1113L850 1333Q731 1361 652 1361Q453 1361
381 1250Q355 1210 355 1156T381 1065T456 998T576 934L740 859Q971 752 1048 668Q1132 577 1132 413Q1132 118 878 32Z" />
<glyph unicode="T" glyph-name="T" horiz-adv-x="1366" d="M113 1049Q96 1051 92 1073L101 1542Q101 1560 124 1560L288 1540Q308 1540 308 1517V1491L1075 1499L1259 1519Q1281 1519 1281 1497L1251 1054Q1249 1038 1232 1038L1061 1046Q1049 1048 1046 1052T1041
1070L1044 1317L786 1313L803 225L996 236Q1012 232 1012 217L1014 40Q1012 16 996 16L402 3Q380 3 378 23L385 221Q385 240 401 240L579 229L561 1307L309 1293L310 1081Q309 1062 286 1061L113 1049Z" />
<glyph unicode="U" glyph-name="U" horiz-adv-x="1538" d="M1415 200Q1431 200 1431 181L1418 3Q1416 -17 1394 -17L1051 -24Q1028 -24 1028 0L1029 227Q943 125 835 69T622 12T443 46T320 148Q219 283 219 538Q219 808 234 1008L258 1306L94 1293Q83 1293 81
1297T76 1315L87 1501Q89 1520 111 1522L543 1537Q561 1535 561 1514L547 1338Q544 1316 524 1316H476Q470 1221 466 1146L458 1012Q447 815 447 622Q447 246 671 246Q812 246 954 334Q997 360 1030 390L1036 1280L929 1276Q915 1276 915 1298L921 1484Q923 1505
945 1505L1393 1517Q1411 1515 1411 1494L1414 1315Q1414 1293 1391 1293L1251 1288V184L1415 200Z" />
<glyph unicode="V" glyph-name="V" horiz-adv-x="1364" d="M1324 1529Q1346 1529 1346 1497L1336 1340Q1335 1324 1329 1318T1306 1311L1223 1315L810 21Q804 2 786 0L599 -8Q581 -7 574 15L129 1290L64 1285Q36 1285 36 1317L46 1485Q46 1502 53 1507T77 1512L520
1522Q542 1519 544 1492L554 1326Q552 1309 546 1304T524 1298L378 1299L700 250L1003 1320L876 1317Q864 1317 860 1322T853 1340L858 1502Q860 1530 888 1532L1324 1529Z" />
<glyph unicode="W" glyph-name="W" horiz-adv-x="1878" d="M83 1295Q55 1295 55 1327L65 1495Q66 1512 72 1516T96 1522L559 1542Q576 1541 579 1534T583 1512L593 1346Q591 1329 585 1324T563 1318L402 1320L628 323L868 1491Q871 1511 892 1512L1043 1523Q1064
1521 1068 1500L1331 319L1530 1323L1376 1327Q1364 1327 1360 1332T1353 1350L1358 1512Q1360 1540 1388 1542L1834 1529Q1856 1527 1856 1497L1846 1340Q1845 1324 1839 1318T1816 1311L1720 1315L1408 21Q1404 2 1384 0L1227 -8Q1206 -6 1202 15L955 1080L722
21Q718 2 698 0L531 -8Q513 -7 506 15L177 1304L83 1295Z" />
<glyph unicode="X" glyph-name="X" horiz-adv-x="1366" d="M103 5Q82 5 82 26L92 213Q94 233 115 233L225 216L627 762L265 1315L135 1303Q114 1303 114 1327V1506Q114 1526 137 1526L628 1537Q642 1537 644 1532T646 1515L651 1335Q649 1322 645 1318T629 1314L538
1319L725 936L921 1308L852 1312Q836 1313 835 1329L824 1504Q827 1524 846 1526H1283Q1297 1524 1299 1502L1289 1309Q1287 1288 1267 1288L1147 1295L805 790L1186 220L1320 222Q1335 222 1335 198L1316 32Q1314 21 1310 17T1293 13L847 7Q828 9 827 25L815 194Q817
215 838 215L918 216L708 635L462 215L565 223Q581 223 581 199L579 24Q577 11 573 8T557 3L103 5Z" />
<glyph unicode="Y" glyph-name="Y" horiz-adv-x="1366" d="M962 215Q980 215 980 193L964 17Q963 5 958 2T940 -4L408 11Q397 11 394 16T390 34L397 203Q399 225 420 225L577 222L580 559L152 1307L66 1301Q38 1301 38 1333L28 1503Q28 1520 35 1525T59 1530H542Q560
1530 563 1522T566 1500L556 1335Q555 1318 549 1313T526 1307L416 1311L714 712L1002 1303L875 1300Q863 1300 859 1305T852 1323L837 1490Q839 1520 867 1520L1323 1527Q1345 1525 1345 1495L1335 1333Q1334 1317 1328 1311T1305 1304H1218L803 558L796 218L962
215Z" />
<glyph unicode="Z" glyph-name="Z" horiz-adv-x="1196" d="M938 -93Q916 -91 914 -65L917 12L199 23Q144 25 139 76L123 231L874 1342L365 1325L346 1103Q344 1081 322 1081L155 1078Q137 1081 135 1100L148 1499Q149 1513 153 1518T170 1526L357 1503L1057 1542Q1094
1542 1101 1495L1127 1297L382 207L924 195L929 336Q931 362 950 362L1128 358Q1144 358 1144 335L1132 -60Q1132 -79 1112 -81L938 -93Z" />
<glyph unicode="[" glyph-name="bracketleft" horiz-adv-x="682" d="M192 -194Q173 -192 173 -178L193 1611Q193 1627 212 1627L586 1636Q600 1636 602 1617L592 1451Q591 1432 573 1432L385 1443L393 840L366 1L578 21Q592 21 592 -3L572 -154Q569 -171 551 -173L192
-194Z" />
<glyph unicode="\" glyph-name="backslash" horiz-adv-x="682" d="M158 1736Q161 1737 165 1737Q182 1737 185 1720L681 -395Q682 -397 682 -402Q682 -419 666 -423L540 -454Q536 -455 530 -455Q515 -455 512 -441L11 1676Q9 1684 9 1687Q9 1699 24 1704L158 1736Z" />
<glyph unicode="]" glyph-name="bracketright" horiz-adv-x="682" d="M490 1636Q509 1634 509 1620L489 -169Q489 -185 470 -185L96 -194Q82 -194 80 -175L90 -9Q91 10 109 10L297 -1L289 602L316 1441L104 1421Q90 1421 90 1445L110 1596Q113 1613 131 1615L490 1636Z" />
<glyph unicode="^" glyph-name="asciicircum" horiz-adv-x="1194" d="M510 1410Q519 1431 545 1435L641 1423Q666 1418 672 1406L1129 421Q1133 413 1133 402T1125 387L959 339Q949 335 942 335T931 345L591 1188L260 344Q256 335 247 335T227 339L68 402Q61 405
61 411T66 427L510 1410Z" />
<glyph unicode="_" glyph-name="underscore" horiz-adv-x="1659" d="M-24 -355Q-40 -355 -40 -336L-32 -196Q-30 -176 -8 -176H1675Q1689 -176 1689 -200L1679 -336Q1677 -355 1663 -355H-24Z" />
<glyph unicode="`" glyph-name="grave" horiz-adv-x="900" d="M253 1799Q262 1810 274 1810T296 1799L679 1379Q684 1372 684 1364T676 1345L609 1277Q603 1271 596 1271Q589 1271 585 1275L123 1615Q115 1622 115 1632T120 1649L253 1799Z" />
<glyph unicode="a" glyph-name="a" horiz-adv-x="1196" d="M722 1151Q1018 1151 1018 783Q1018 696 1014 558L1007 362Q1005 303 1002 250L998 155L1058 160Q1091 162 1133 166Q1154 166 1154 147L1136 -11Q1133 -29 1114 -31L825 -49Q811 -49 811 -27L825 90Q658
-39 462 -39Q309 -39 210 50Q105 144 105 303Q105 510 248 594Q374 668 663 668Q723 668 791 665Q792 691 792 713V751Q792 946 621 946Q532 946 401 892L405 854Q407 835 407 824Q407 802 385 802L216 799Q198 802 196 821L179 1107Q179 1131 201 1134L368 1156Q389
1156 389 1134V1051Q568 1151 722 1151ZM532 150Q647 150 785 216Q787 282 787 361T790 519Q527 519 425 474Q331 432 331 334Q331 150 532 150Z" />
<glyph unicode="b" glyph-name="b" horiz-adv-x="1195" d="M379 1595Q397 1595 397 1572L381 1089L440 1110Q562 1151 669 1151T858 1115T990 1006Q1080 874 1080 574T979 133T670 -9Q521 -9 391 38Q269 -19 214 -19Q181 -19 181 19V1369L35 1377Q16 1378 15 1396L3
1551Q7 1569 26 1571L379 1595ZM791 897T745 916T604 935T378 895L390 218Q511 192 596 192T728 209T806 270Q864 353 864 568Q864 779 818 854Q791 897 745 916Z" />
<glyph unicode="c" glyph-name="c" horiz-adv-x="1024" d="M262 1100T327 1126T486 1153T697 1124L885 1159Q903 1156 905 1137L922 781Q920 757 900 754L733 732Q712 732 712 754V923Q648 938 575 938T447 914T360 842Q306 758 306 553Q306 245 432 202Q472 188
524 188Q599 188 696 207L700 276Q702 300 721 302L879 296Q893 294 895 273L913 -40Q913 -61 893 -61H701Q686 -61 684 -42L687 15Q325 -56 190 116Q94 240 94 517Q94 702 110 793T151 946T219 1054Z" />
<glyph unicode="d" glyph-name="d" horiz-adv-x="1194" d="M658 1415Q638 1415 638 1439L648 1599Q650 1619 671 1619L1014 1600Q1032 1598 1032 1577V173L1137 184Q1157 184 1157 165L1139 10Q1136 -7 1116 -10L868 -50Q849 -50 849 -28L857 71Q689 2 557 2T343
38T212 146Q122 279 122 586Q122 1030 351 1122Q428 1153 560 1153T839 1097L826 1412L658 1415ZM845 894Q702 929 612 929T474 915T396 862Q338 787 338 575Q338 364 384 289Q434 208 575 208Q691 208 824 247L845 894Z" />
<glyph unicode="e" glyph-name="e" horiz-adv-x="1196" d="M847 6Q719 -26 522 -26Q321 -26 230 98Q135 227 135 507Q135 801 216 946Q308 1106 510 1141Q580 1153 666 1153Q851 1153 935 1062T1019 784Q1019 662 976 596Q962 575 938 549T850 502T702 470Q573
454 347 454Q360 285 430 224Q483 176 614 176Q737 176 859 197L862 249Q863 261 867 265T884 272L1028 304Q1050 304 1053 285Q1056 268 1059 219T1065 133T1070 64L1074 8Q1075 -17 1075 -34Q1075 -64 1031 -69L865 -89Q843 -89 843 -67L847 6ZM780 684T785 714T791
786T784 860T758 915Q719 963 631 963Q461 963 404 877Q350 797 344 601Q693 606 754 661Q780 684 785 714Z" />
<glyph unicode="f" glyph-name="f" horiz-adv-x="854" d="M382 1594T449 1614T580 1634T683 1632L684 1659Q684 1676 703 1676H860Q878 1676 881 1653L865 1358Q863 1338 850 1338L702 1334Q677 1335 676 1357L679 1463Q641 1467 602 1467T533 1456T483 1420Q443
1372 443 1277T445 1098L740 1102Q754 1101 757 1096T762 1078L752 925Q750 906 730 904L458 911V206L642 210Q658 210 658 191L640 20Q638 8 634 5T616 0L133 6Q119 6 119 30L129 181Q131 200 145 200L245 202L254 909L78 898Q61 899 58 915L37 1070Q37 1092 59
1092L248 1095Q239 1182 239 1286T264 1452T335 1553Z" />
<glyph unicode="g" glyph-name="g" horiz-adv-x="1196" d="M1096 1141Q1123 1141 1125 1105L1112 948Q1110 927 1089 927L909 962Q1016 848 1016 756T992 590T912 464Q801 360 563 360Q469 360 393 380Q369 325 369 290T374 240T394 216Q421 199 476 199T581 202Q708
208 784 208T922 183T1022 116Q1096 34 1096 -101Q1096 -266 965 -370Q821 -485 561 -485Q344 -485 243 -430Q130 -368 130 -239T245 40Q165 85 165 185T281 426Q119 520 119 749Q119 950 252 1056Q371 1151 579 1151Q687 1151 777 1148Q987 1141 1096 1141ZM802
677Q813 717 813 763T800 848T758 916Q698 976 585 976Q405 976 350 854Q331 810 331 747Q331 542 585 542Q763 542 802 677ZM713 10L439 2Q399 2 368 5Q335 -76 335 -154T396 -262T561 -293T722 -281T818 -246Q896 -200 896 -126Q896 -63 870 -38Q821 10 713 10Z"
/>
<glyph unicode="h" glyph-name="h" horiz-adv-x="1370" d="M917 704Q917 926 758 926Q668 926 551 879Q516 865 487 849L483 190L604 178Q620 176 620 160L602 31Q599 10 579 10L157 3Q142 3 142 27L161 203Q163 214 167 218T184 222L260 214V1046L280 1413L137
1402Q115 1402 115 1426V1579Q115 1597 139 1599L478 1613Q499 1613 501 1589L477 1035Q657 1152 837 1152Q1080 1152 1122 890Q1135 808 1135 651T1114 204L1234 210Q1255 208 1255 189V42Q1255 22 1232 22L802 12Q786 12 786 36L808 171Q810 184 814 187T830
192L914 195Q915 255 916 328V473Q917 544 917 606V704Z" />
<glyph unicode="i" glyph-name="i" horiz-adv-x="683" d="M150 -14Q136 -14 136 10V161Q136 180 152 180H272L280 879L118 896Q100 898 100 918L122 1083Q126 1101 146 1104L467 1137Q478 1137 481 1132T485 1114L498 932L495 180H609Q625 180 625 161L607 30Q605
18 601 15T583 10L150 -14ZM442 1347T410 1342T334 1337T266 1342T228 1360Q205 1384 205 1445T211 1532T236 1574Q267 1600 337 1600T432 1597T470 1580Q494 1559 494 1496T487 1405T461 1362Z" />
<glyph unicode="j" glyph-name="j" horiz-adv-x="682" d="M84 -241Q302 -241 302 -75Q302 -6 302 74L300 240Q300 325 299 414Q295 770 293 894L119 886Q103 888 101 908L86 1089Q87 1114 111 1115L475 1137Q492 1135 496 1114L489 925Q492 875 494 810Q516 260
516 87T501 -176T442 -326Q355 -448 114 -448Q95 -448 91 -425L61 -261Q61 -241 84 -241ZM504 1511Q504 1334 392 1334Q205 1334 205 1430Q205 1603 317 1603Q504 1603 504 1511Z" />
<glyph unicode="k" glyph-name="k" horiz-adv-x="1195" d="M73 161Q75 180 89 180H218V1377L75 1396Q64 1398 61 1402T57 1418L53 1554Q53 1572 77 1575L384 1607Q403 1607 406 1583L425 1405L412 649L540 654L781 951L659 937Q643 937 643 956L651 1117Q653 1137
675 1137L1128 1141Q1142 1141 1142 1117L1132 966Q1130 947 1116 947L1015 956L702 583L990 197L1155 191Q1174 191 1176 167L1186 30Q1186 18 1181 15T1163 10L858 -2Q845 -2 831 20L528 483L409 474L404 189L506 200Q522 200 522 181L514 30Q513 18 508 15T490
10L97 -4Q82 -4 80 21L73 161Z" />
<glyph unicode="l" glyph-name="l" horiz-adv-x="683" d="M126 1356Q108 1356 108 1378L114 1574Q114 1586 120 1589T138 1595L463 1587Q474 1587 477 1582T481 1564L474 1405L489 209L625 220Q639 220 641 201L653 20Q651 8 647 5T629 0L86 6Q72 6 72 30V201Q72
220 88 220L277 208V1368L126 1356Z" />
<glyph unicode="m" glyph-name="m" horiz-adv-x="1875" d="M1030 1000Q1196 1151 1356 1151Q1591 1151 1637 926Q1652 852 1652 783T1651 644T1646 496L1640 337Q1637 257 1634 192L1779 201Q1800 201 1800 177L1780 10Q1780 -2 1775 -5T1757 -10L1458 -2Q1435
-2 1435 20Q1438 130 1438 220L1440 378Q1440 445 1440 504V679Q1440 809 1420 848T1370 901T1286 916Q1190 916 1071 852Q1078 803 1078 745T1077 617T1075 470T1072 316T1068 178L1199 181Q1220 181 1220 157L1210 20Q1209 8 1204 5T1187 0L816 8Q795 8 795 30L790
170Q792 191 812 191L874 186Q876 324 876 434V679Q876 807 854 848T801 904T722 920Q602 920 467 819V197L572 202Q589 202 589 185L600 30Q596 8 578 8L168 18Q145 18 145 42L135 195Q139 216 157 216H254V874H101Q81 874 81 898L79 1089Q83 1107 103 1110L355
1101Q373 1099 378 1078L407 945Q598 1141 780 1141T1030 1000Z" />
<glyph unicode="n" glyph-name="n" horiz-adv-x="1370" d="M792 903Q665 903 502 799L514 200L623 212Q640 212 640 195L621 40Q617 18 599 18H182Q166 18 166 42L186 195Q190 216 208 216H293V877L140 881Q120 881 120 905L138 1078Q140 1095 162 1099L439 1140Q457
1140 457 1117V944Q663 1150 862 1150Q1090 1150 1134 933Q1148 861 1148 799T1147 694T1144 600L1142 496Q1140 441 1138 386L1134 280Q1132 229 1130 186L1245 191Q1266 191 1266 167V20Q1266 8 1261 5T1243 0L953 -22Q931 -22 931 0Q934 109 934 205L936 372Q936
443 936 505V688Q936 812 915 846T866 892T792 903Z" />
<glyph unicode="o" glyph-name="o" horiz-adv-x="1194" d="M123 562Q123 733 151 846T236 1028Q340 1151 575 1151Q739 1151 814 1118T933 1043T1008 935Q1070 800 1070 596T1042 280T956 102Q850 -20 613 -20Q365 -20 252 100Q123 236 123 562ZM834 291T849 363T864
539T853 707T823 813T776 880T717 917Q669 935 590 935T464 923T386 872Q327 796 327 566Q327 239 503 197Q557 184 620 184T728 197T804 251Z" />
<glyph unicode="p" glyph-name="p" horiz-adv-x="1194" d="M120 -458Q98 -458 98 -434L110 -269Q111 -256 116 -253T132 -248L201 -257V921L37 907Q17 907 17 926L15 1131Q18 1148 38 1151L316 1141Q334 1141 335 1119L341 1054Q518 1150 653 1150T870 1114T1002
1005Q1092 872 1092 565Q1092 132 863 34Q786 1 659 1T394 51L408 -267L596 -260Q617 -262 617 -281L607 -428Q605 -448 584 -448L120 -458ZM387 242Q512 212 602 212T740 226T818 279Q876 354 876 566Q876 776 830 852Q780 934 639 934Q543 934 409 891L387 242Z"
/>
<glyph unicode="q" glyph-name="q" horiz-adv-x="1194" d="M641 -451Q623 -451 619 -429L630 -274Q632 -259 647 -257L805 -263L808 59Q670 2 553 2T355 33T222 127Q123 249 123 509Q123 835 220 988Q321 1150 545 1150Q655 1150 795 1088L996 1130Q1016 1130
1016 1106L1025 -277L1112 -273Q1134 -275 1134 -294L1124 -427Q1122 -451 1108 -451H641ZM420 237T465 220T600 203T809 237L805 900Q702 929 614 929T476 908T396 839Q340 749 340 522Q340 347 392 276Q420 237 465 220Z" />
<glyph unicode="r" glyph-name="r" horiz-adv-x="1024" d="M136 -12Q120 -12 120 12V185Q120 206 142 206H259V883L116 871Q100 872 96 895L74 1108Q77 1127 98 1129L405 1150Q423 1150 423 1127L408 962Q521 1087 740 1128Q806 1141 867 1141T930 1109L942 743Q942
725 927 723L739 709Q727 709 720 713T713 734V911Q583 900 484 859L473 199L647 212Q663 212 664 195L675 30Q672 10 653 8L136 -12Z" />
<glyph unicode="s" glyph-name="s" horiz-adv-x="1024" d="M873 853Q603 945 492 945Q372 945 330 886Q313 863 313 829T321 770T350 726Q392 686 512 667T721 626T865 568T943 478T967 340T942 190T871 80Q778 -9 613 -9Q500 -9 353 19L370 -64Q370 -80 347 -82L175
-97Q137 -97 133 -58L105 239Q105 257 129 261L285 289Q302 289 306 266L318 200Q463 177 557 177T697 216T743 321Q743 382 694 408Q651 432 526 451T319 494T186 557Q87 631 87 808Q87 962 180 1054Q279 1151 457 1151Q562 1151 699 1081L680 1160Q680 1184 701
1186L899 1202Q915 1202 915 1179L893 874Q892 853 873 853Z" />
<glyph unicode="t" glyph-name="t" horiz-adv-x="851" d="M608 6Q560 3 467 3T315 22T218 83Q143 166 143 350Q143 469 146 577T152 770T158 938L25 948Q5 949 5 975L4 1090Q4 1112 26 1112L166 1115Q168 1167 170 1214L178 1365Q181 1418 186 1425T204 1435L390
1457Q411 1457 411 1435Q411 1403 400 1290L385 1121L777 1132Q799 1132 799 1108V945Q799 925 777 924L372 941Q355 707 355 533T362 308T390 229Q424 181 535 181Q567 181 593 183Q590 218 590 235T609 256L776 276Q797 276 797 253L801 -1Q801 -18 786 -21L638
-45Q615 -43 612 -26L608 6Z" />
<glyph unicode="u" glyph-name="u" horiz-adv-x="1195" d="M996 1100Q1012 1100 1012 1076L1022 232L1156 237Q1176 236 1176 213L1158 30Q1157 9 1134 9H887Q856 9 846 47L822 148Q657 6 446 6Q151 6 151 383Q151 514 166 675L186 901L58 897Q37 897 37 921L57
1098Q59 1110 63 1113T80 1118L398 1110Q412 1110 412 1088Q407 1040 402 980Q360 529 360 423T400 270T544 222T809 324V899L684 906Q670 908 667 923L686 1088Q690 1110 708 1110L996 1100Z" />
<glyph unicode="v" glyph-name="v" horiz-adv-x="1195" d="M25 1100Q25 1120 48 1120H502Q516 1120 518 1115T520 1098L505 938Q503 925 499 921T483 917L378 914L633 198L855 929L733 916Q717 916 716 933L705 1098Q708 1118 727 1120L1154 1140Q1170 1139 1170
1116V933Q1166 912 1148 912H1049L739 17Q733 -2 712 -4L533 -12Q514 -10 505 12L138 909L46 907Q25 907 25 931V1100Z" />
<glyph unicode="w" glyph-name="w" horiz-adv-x="1702" d="M17 1108Q17 1128 40 1128L484 1118Q498 1118 500 1113T502 1096L497 926Q496 913 492 909T475 905L365 914L556 213L746 1108Q749 1127 773 1129L963 1138Q987 1136 991 1117L1211 213L1369 927L1245
914Q1229 914 1228 931L1217 1096Q1220 1116 1239 1118L1656 1138Q1672 1137 1672 1114V931Q1672 910 1650 910H1551L1317 15Q1312 -6 1290 -6L1101 -9Q1078 -9 1073 12L862 856L667 23Q662 4 640 2L461 -6Q439 -4 433 15L142 914L48 905Q27 905 27 929L17 1108Z"
/>
<glyph unicode="x" glyph-name="x" horiz-adv-x="1196" d="M96 15Q75 15 75 36V183Q75 203 98 203L196 204L513 551L185 935L81 933Q60 933 60 957L70 1116Q70 1136 93 1136L554 1127Q568 1127 570 1122T572 1105L577 965Q575 952 571 948T555 944L433 941L614
673L806 925L728 922Q712 922 711 939L720 1114Q722 1134 742 1136L1139 1126Q1155 1126 1155 1102L1145 959Q1143 940 1123 938L1012 933L707 579L1034 211L1163 222Q1178 222 1178 198L1159 22Q1157 11 1153 8T1136 3L706 17Q690 17 690 38L708 164Q710 177 715
180T731 185L798 191L604 453L411 207L482 208Q498 208 498 184L502 24Q500 11 496 8T480 3L96 15Z" />
<glyph unicode="y" glyph-name="y" horiz-adv-x="1197" d="M16 1100Q16 1120 39 1120L493 1130Q511 1130 511 1108L516 938Q514 925 510 921T494 917L363 914L623 179L859 919L722 906Q706 906 705 923L714 1108Q715 1130 736 1130L1173 1140Q1189 1139 1189 1116L1179
943Q1177 922 1157 922L1069 930L587 -430Q579 -454 563 -454L365 -400Q343 -397 343 -380Q343 -373 347 -366L566 53L480 50Q467 50 458 68L122 909L27 907Q6 907 6 931L16 1100Z" />
<glyph unicode="z" glyph-name="z" horiz-adv-x="1196" d="M872 306Q874 330 893 332L1071 318Q1087 317 1087 295L1075 -40Q1074 -61 1055 -61L911 -53Q889 -51 887 -25L885 16L224 3Q196 5 182 16T164 56L148 201L810 950L352 952L331 780Q328 758 307 758L160
775Q142 778 140 797L153 1136Q154 1150 158 1155T175 1163L352 1140L372 1114L977 1142Q999 1143 1005 1129T1015 1095L1041 917L405 189L876 213L872 306Z" />
<glyph unicode="{" glyph-name="braceleft" horiz-adv-x="683" d="M71 850Q233 850 233 953Q233 1001 231 1039T227 1115Q221 1229 221 1299T228 1435T268 1546Q332 1639 539 1639Q620 1639 624 1634T630 1617L620 1456Q618 1432 606 1432Q487 1432 459 1415T423
1370T415 1296L422 958Q422 869 365 796Q346 771 320 755Q413 708 413 556Q413 478 406 410Q393 270 393 184T399 74T421 37Q462 -1 584 16Q593 16 595 11T598 -8L588 -169Q586 -186 568 -188Q518 -193 457 -193T338 -169T250 -104Q197 -37 197 96Q197 196 210
317Q231 514 231 557T220 619T188 648Q153 666 80 666Q62 666 61 690L51 831Q51 850 71 850Z" />
<glyph unicode="|" glyph-name="bar" horiz-adv-x="851" d="M498 1636Q518 1634 518 1612L522 -506Q522 -523 505 -525L357 -535Q338 -535 338 -517L328 1614Q328 1634 347 1634L498 1636Z" />
<glyph unicode="}" glyph-name="braceright" horiz-adv-x="683" d="M612 596Q450 596 450 493Q450 445 452 407T456 331Q462 217 462 147T455 11T416 -100Q351 -193 144 -193Q63 -193 59 -188T53 -171L63 -10Q65 14 77 14Q196 14 224 31T260 76T268 150L261 488Q261
578 318 650Q337 674 363 691Q270 738 270 890Q270 968 276 1036Q290 1176 290 1262T284 1372T262 1409Q235 1434 181 1434T109 1432T88 1435T85 1454L95 1615Q97 1632 115 1634Q165 1639 226 1639T345 1615T434 1550Q486 1483 486 1350Q486 1250 473 1129Q452
932 452 889T463 827T495 798Q528 780 603 780Q620 780 622 756L632 615Q632 596 612 596Z" />
<glyph unicode="~" glyph-name="asciitilde" horiz-adv-x="1194" d="M105 852Q105 867 152 909T237 974Q322 1025 391 1025T503 1007T588 965Q698 906 769 906Q849 906 938 947L982 968Q1024 991 1033 991Q1044 991 1054 972L1087 904Q1089 899 1089 892Q1089
883 1073 866T1024 820T950 766Q853 707 781 707T660 729L563 775Q465 824 397 824Q329 824 274 800T202 768Q167 751 159 751Q145 751 137 771L105 852Z" />
<glyph unicode="&#xa0;" glyph-name="nbspace" horiz-adv-x="688" />
<glyph unicode="&#xa1;" glyph-name="exclamdown" horiz-adv-x="512" d="M395 -409Q393 -429 371 -433L153 -425Q132 -423 132 -399L175 680Q176 700 193 700Q208 700 226 698L329 687Q353 683 355 658L395 -409ZM109 965T104 995T98 1051T115 1098T162 1134Q222
1163 278 1163T355 1146T389 1102Q414 1052 414 1004T392 933T338 898Q283 877 229 877T154 894T121 938Z" />
<glyph unicode="&#xa2;" glyph-name="cent" horiz-adv-x="1194" d="M854 1183Q854 1206 879 1206L1025 1209Q1043 1206 1045 1187L1062 831Q1060 807 1040 804L893 782Q872 782 872 804V913Q789 928 695 935L688 565L695 194Q801 206 877 219L880 276Q882 300
901 302L1039 296Q1053 294 1055 273L1073 -40Q1073 -61 1053 -61H881Q866 -61 864 -42L867 28Q792 15 698 4L703 -221Q703 -235 684 -237L561 -247Q539 -247 539 -226V-7Q230 -4 158 282Q134 380 134 485T140 663T163 801T208 923T282 1024Q376 1116 535 1133L533
1340Q533 1362 553 1364L684 1372Q701 1372 703 1356L699 1133Q793 1126 859 1114L856 1156Q854 1175 854 1183ZM354 688Q346 626 346 537T359 380T398 270Q443 198 540 189L541 588L537 926Q381 884 354 688Z" />
<glyph unicode="&#xa3;" glyph-name="sterling" horiz-adv-x="1364" d="M1081 1510Q1121 1510 1121 1471V1085Q1121 1061 1099 1059L911 1045Q894 1045 890 1068L917 1298Q801 1325 726 1325T613 1311T552 1268Q511 1216 511 1099Q511 984 519 828L769 859Q787
859 791 835L811 674Q809 655 795 655H528Q540 402 543 180L1018 211L994 373Q994 395 1017 399L1179 434Q1217 434 1221 395L1249 -32Q1249 -55 1227 -58L1039 -62Q1022 -62 1018 -39L1020 8L142 -27Q125 -27 124 -3L140 171Q142 187 156 190L340 175V217Q340
387 313 655H161Q145 655 143 674L141 815Q141 835 162 835L296 826Q280 1000 280 1104T300 1288T364 1424Q456 1543 640 1543Q759 1543 864 1499Q898 1485 936 1467Q940 1483 955 1486L1081 1510Z" />
<glyph unicode="&#xa4;" glyph-name="currency" horiz-adv-x="1194" d="M851 272Q752 214 596 214T349 265L194 102Q190 97 183 97T169 104L61 209Q53 217 53 223T64 241L224 404Q178 502 178 659T222 917L46 1085Q41 1089 41 1096T48 1110L153 1218Q161 1226
167 1226T185 1215L346 1057Q445 1116 587 1116T807 1086L965 1252Q969 1257 976 1257T990 1250L1098 1145Q1106 1137 1106 1131T1095 1113L952 967Q1016 863 1016 688T973 413L1148 247Q1153 243 1153 236T1146 222L1041 114Q1033 106 1027 106T1009 117L851 272ZM796
486T810 533T825 659T809 789T762 869Q713 915 623 915T489 903T417 860Q368 804 368 654Q368 457 500 417Q542 404 597 404T696 416T767 457Z" />
<glyph unicode="&#xa5;" glyph-name="yen" horiz-adv-x="1364" d="M209 476Q209 500 223 500L581 491L582 633L241 629Q228 630 223 633T217 649L209 777Q209 794 225 796L527 793L205 1309L123 1303Q97 1303 95 1335L85 1503Q85 1520 92 1525T116 1530L529 1540Q551
1537 553 1510L563 1344Q561 1327 555 1322T533 1316L465 1317L715 811L951 1324L880 1315Q868 1315 864 1320T857 1338L842 1500Q844 1528 872 1530L1258 1547Q1280 1545 1280 1515L1270 1358Q1269 1342 1263 1336T1240 1329H1164L879 793L1154 796Q1170 796 1170
777V659Q1170 635 1156 635L805 634L803 492L1138 506Q1151 505 1156 502T1162 486L1170 359Q1170 340 1154 340H800L798 202L932 205Q953 205 955 183L962 14Q961 1 958 -4T944 -9L452 -24Q440 -22 435 -19T428 -3L412 173Q412 195 430 195L579 198L580 340H225Q209
340 209 359V476Z" />
<glyph unicode="&#xa6;" glyph-name="brokenbar" horiz-adv-x="851" d="M325 1618Q327 1634 344 1634L495 1636Q515 1634 515 1612L519 776Q519 756 495 755L354 745Q335 747 335 761L325 1618ZM344 -535Q325 -533 325 -519L335 324Q335 343 354 344L505 356Q525
354 525 332L519 -504Q519 -523 500 -525L344 -535Z" />
<glyph unicode="&#xa7;" glyph-name="section" horiz-adv-x="1190" d="M380 983Q227 1091 227 1246Q227 1430 331 1536Q430 1636 598 1636Q810 1636 961 1590Q977 1586 977 1561L961 1376Q960 1355 941 1355Q926 1355 887 1373T821 1402T764 1422Q697 1442 646
1442T562 1436T504 1412Q452 1374 452 1283Q452 1204 519 1146Q552 1118 600 1091L708 1031Q896 930 967 854Q1039 778 1039 658T981 447T817 322Q908 275 939 237Q991 170 991 80Q991 -115 889 -210T569 -305Q392 -305 241 -276Q203 -270 199 -237L224 -72Q228
-50 248 -50Q258 -50 292 -60L364 -78Q510 -116 575 -116T674 -104T728 -68Q768 -26 768 51Q768 110 693 164Q657 189 607 214L497 269Q302 362 247 414T172 512T152 618T168 734T214 838Q275 937 380 983ZM375 649Q375 521 588 430Q628 425 659 425T723 444T778
496Q824 561 824 653Q824 702 798 730Q744 787 626 846Q611 853 598 857Q574 864 543 864T478 847T422 800Q375 739 375 649Z" />
<glyph unicode="&#xa8;" glyph-name="dieresis" horiz-adv-x="900" d="M307 1347T275 1342T201 1337T135 1343T97 1364Q70 1391 70 1448T76 1532T101 1574Q132 1600 201 1600T293 1595T332 1576Q359 1551 359 1492T352 1405T326 1362ZM778 1347T746 1342T672 1337T606
1343T568 1364Q541 1391 541 1448T547 1532T572 1574Q603 1600 672 1600T764 1595T802 1576Q830 1551 830 1492T823 1405T797 1362Z" />
<glyph unicode="&#xa9;" glyph-name="copyright" horiz-adv-x="1703" d="M863 -94Q659 -94 514 -40T272 120Q80 328 80 728Q80 1447 604 1585Q718 1615 892 1615T1211 1561T1446 1401Q1623 1198 1623 787Q1623 359 1452 144Q1263 -94 863 -94ZM1175 1426T1083
1451T861 1476T630 1446T458 1364T343 1240T274 1087Q232 949 232 770T260 463T359 242Q508 44 839 44Q1333 44 1443 444Q1478 571 1478 705T1467 937T1428 1116T1356 1265T1243 1379ZM829 1286Q914 1286 1019 1251L1130 1269Q1157 1269 1159 1242L1160 933Q1160
916 1145 916L1030 913Q1017 913 1016 929L1002 1109Q928 1127 857 1127T740 1110T668 1050Q619 975 619 767Q619 552 678 463Q733 380 866 380Q924 380 1015 412V537Q1015 548 1031 552L1145 572Q1157 572 1160 556L1177 249Q1177 237 1161 237L1047 275Q928 222
820 222Q447 222 447 774Q447 1286 829 1286Z" />
<glyph unicode="&#xaa;" glyph-name="ordfeminine" horiz-adv-x="1021" d="M311 1503Q434 1562 543 1562Q685 1562 721 1436Q734 1390 734 1342T733 1247T730 1148L726 1043Q724 990 722 946L812 954Q826 954 826 941L814 794Q813 783 799 781L593 768Q583 768
583 783L589 863Q496 765 367 765Q187 765 134 887Q115 929 115 994T139 1108T212 1184Q296 1234 493 1234H531Q548 1234 571 1232V1271Q571 1410 462 1410Q381 1410 317 1392L330 1330Q330 1315 315 1315L180 1313Q167 1313 167 1328L155 1562Q156 1580 170 1580L303
1585Q317 1585 317 1570L311 1503ZM278 1002Q278 912 405 912Q496 912 566 941L569 1113Q399 1113 354 1097T293 1059T278 1002Z" />
<glyph unicode="&#xab;" glyph-name="guillemotleft" horiz-adv-x="1533" d="M115 506Q115 506 98 523Q90 532 90 541L100 617Q103 634 117 648L664 1155Q669 1160 679 1160T698 1152L766 1085Q772 1079 772 1072Q772 1065 768 1061L353 577L775 104Q781 96 781
89T773 74L701 4Q693 -4 687 -4T675 1L115 506ZM755 506L738 523Q730 532 730 541L740 617Q743 634 757 648L1304 1155Q1309 1160 1319 1160T1338 1152L1406 1085Q1412 1079 1412 1072Q1412 1065 1408 1061L993 577L1415 104Q1421 96 1421 89T1413 74L1341 4Q1333
-4 1327 -4T1315 1L755 506Z" />
<glyph unicode="&#xac;" glyph-name="logicalnot" horiz-adv-x="1194" d="M181 568Q167 570 167 592L177 753Q179 772 193 772L1007 783Q1026 782 1026 762V402Q1026 386 1007 384L846 372Q834 374 831 378T826 396L833 599L181 568Z" />
<glyph unicode="&#xad;" glyph-name="uni00AD" horiz-adv-x="1194" d="M1000 772Q1016 770 1016 753L998 602Q996 590 992 587T974 582L191 578Q177 578 177 602L187 743Q189 762 203 762L1000 772Z" />
<glyph unicode="&#xae;" glyph-name="registered" horiz-adv-x="1703" d="M863 -94Q659 -94 514 -40T272 120Q80 328 80 728Q80 1447 604 1585Q718 1615 892 1615T1211 1561T1446 1401Q1623 1198 1623 787Q1623 359 1452 144Q1263 -94 863 -94ZM1175 1426T1083
1451T861 1476T630 1446T458 1364T343 1240T274 1087Q232 949 232 770T260 463T359 242Q508 44 839 44Q1333 44 1443 444Q1478 571 1478 705T1467 937T1428 1116T1356 1265T1243 1379ZM625 1105Q553 1097 535 1097Q505 1097 505 1116L522 1238Q527 1256 538 1259Q695
1280 810 1280T996 1264T1116 1210Q1214 1133 1214 956Q1214 734 1048 674L1151 429L1237 439Q1259 437 1259 416L1260 308Q1260 275 1235 271L1061 256Q1044 256 1039 270L901 654Q810 654 764 660L754 404L833 408Q844 408 844 395L849 267Q848 255 832 255H528Q518
255 516 272L521 396Q521 407 534 409L601 403L625 1105ZM941 1110Q906 1117 874 1117Q823 1117 783 1115L769 782Q788 780 808 780H856Q955 780 1000 819T1046 953Q1046 1087 941 1110Z" />
<glyph unicode="&#xaf;" glyph-name="overscore" horiz-adv-x="900" d="M776 1611Q792 1609 792 1592L774 1421Q772 1409 768 1405T750 1401L121 1407Q107 1407 107 1431L117 1582Q119 1601 133 1601L776 1611Z" />
<glyph unicode="&#xb0;" glyph-name="degree" horiz-adv-x="851" d="M681 1529T698 1476T716 1357T697 1236T639 1140Q559 1057 417 1057Q281 1057 205 1144Q134 1225 134 1351Q134 1554 296 1624Q351 1648 426 1648T556 1627T645 1567ZM510 1481T487 1493T427
1506T365 1492T324 1456Q297 1415 297 1369T304 1296T326 1247Q361 1198 424 1198Q519 1198 548 1298Q557 1327 557 1357T550 1414T526 1461Z" />
<glyph unicode="&#xb1;" glyph-name="plusminus" horiz-adv-x="1194" d="M165 763Q167 782 181 782L503 786L495 1124Q495 1144 514 1145L675 1137Q695 1135 695 1113L685 788L1011 792Q1029 790 1029 773L1026 612Q1026 600 1021 597T1002 592L683 602L689 238Q689
224 665 222L514 229Q495 231 495 245L503 601L189 588Q177 588 175 612L165 763ZM998 162Q1014 160 1014 143L996 -8Q994 -20 990 -23T972 -28L189 -32Q175 -32 175 -8L185 133Q187 152 201 152L998 162Z" />
<glyph unicode="&#xb2;" glyph-name="twosuperior" horiz-adv-x="851" d="M242 1662Q259 1662 261 1646L259 1592Q361 1643 455 1643Q535 1643 589 1587Q645 1529 645 1435Q645 1357 583 1270Q549 1223 492 1160L349 1011L525 1022V1053Q525 1072 545 1072L639
1076Q655 1076 655 1061L646 823Q645 812 635 812L523 813Q512 813 512 826L516 858L157 854Q149 854 148 866L136 1001Q136 1008 188 1064L302 1188Q417 1315 435 1356T453 1426Q453 1505 367 1505Q312 1505 256 1479L255 1426Q255 1414 244 1413L122 1430Q114
1431 114 1441L124 1643Q124 1657 139 1659L242 1662Z" />
<glyph unicode="&#xb3;" glyph-name="threesuperior" horiz-adv-x="851" d="M266 1594Q365 1636 436 1636T541 1623T596 1586Q638 1542 638 1462T599 1331T481 1247Q573 1230 625 1177T678 1057T665 950T624 880Q568 819 452 819Q348 819 254 847L265 794Q265
785 253 785L116 778Q96 779 95 797L81 984Q81 993 93 995L232 1013Q242 1013 242 1001V958Q311 939 364 939T448 961T480 1026T473 1090T454 1128Q429 1161 404 1161Q366 1161 332 1154Q275 1141 262 1141T248 1152L241 1265Q241 1280 256 1282Q441 1303 441 1440Q441
1483 419 1498T349 1514T253 1480L257 1438Q255 1425 246 1424L106 1416Q99 1416 98 1428L108 1630Q108 1646 123 1646L253 1644Q271 1644 273 1628L266 1594Z" />
<glyph unicode="&#xb4;" glyph-name="acute" horiz-adv-x="900" d="M769 1649Q774 1642 774 1632T766 1615L304 1275Q298 1271 292 1271T280 1277L213 1345Q205 1355 205 1363T210 1379L593 1799Q602 1810 614 1810T636 1799L769 1649Z" />
<glyph unicode="&#xb5;" glyph-name="mu" horiz-adv-x="1194" d="M145 -432Q129 -432 129 -408L119 1103Q119 1124 143 1126L320 1137Q341 1135 341 1116L314 432Q317 265 426 239Q459 231 500 231T578 239T649 262Q708 287 785 346L767 1112Q770 1132 789 1134L949
1140Q970 1140 970 1116L990 210L1140 207Q1161 207 1163 183L1175 30Q1173 13 1151 9L854 -21Q819 -21 813 17L791 159Q647 13 481 13Q383 13 314 59L341 -379Q340 -392 335 -395T318 -401L145 -432Z" />
<glyph unicode="&#xb6;" glyph-name="paragraph" horiz-adv-x="1529" d="M684 730Q634 725 577 725T441 754T304 841Q179 964 179 1175Q179 1429 362 1551Q518 1655 792 1655Q1101 1655 1350 1604Q1372 1600 1374 1573L1365 1433Q1360 1405 1340 1405Q1340 1405
1179 1420L1198 -266Q1198 -289 1180 -290L1056 -306Q1032 -306 1032 -286L1024 1430Q986 1432 944 1433L858 1435L849 -276Q849 -300 831 -300L679 -296Q655 -296 655 -271L684 730Z" />
<glyph unicode="&#xb7;" glyph-name="middot" horiz-adv-x="512" d="M410 705T415 675T421 619T404 572T357 536Q297 507 241 507T164 524T130 568Q105 618 105 666T127 737T181 772Q236 793 290 793T365 776T398 732Z" />
<glyph unicode="&#xb8;" glyph-name="cedilla" horiz-adv-x="900" d="M420 -374Q503 -374 503 -305Q503 -276 485 -255T438 -234T398 -235T374 -238Q346 -242 341 -242T325 -230T300 -201Q268 -162 268 -147L314 33H433L411 -112Q452 -103 499 -103T579 -119T634
-162Q679 -217 679 -320Q679 -522 432 -522Q318 -522 241 -489Q220 -480 220 -471L241 -364Q244 -347 260 -347Q267 -347 295 -354Q375 -374 420 -374Z" />
<glyph unicode="&#xb9;" glyph-name="onesuperior" horiz-adv-x="851" d="M191 1030Q191 1039 199 1039L317 1030V1442L192 1424Q183 1424 182 1435L165 1538Q165 1547 176 1552L357 1636Q366 1641 375 1641L499 1624Q508 1623 508 1613L500 1476L494 1031L611
1039Q619 1039 619 1030L614 870Q614 858 607 858L197 865Q186 865 185 875L191 1030Z" />
<glyph unicode="&#xba;" glyph-name="ordmasculine" horiz-adv-x="1021" d="M175 882T151 960T127 1153T149 1346T214 1476Q294 1574 445 1574Q614 1574 695 1492Q793 1393 793 1154Q793 832 609 766Q549 745 471 745T329 765T220 834ZM633 1244T618 1297T578
1378Q539 1417 447 1417T322 1364Q286 1308 286 1192T299 1023T338 942Q378 894 477 894Q565 894 597 942Q633 996 633 1120Z" />
<glyph unicode="&#xbb;" glyph-name="guillemotright" horiz-adv-x="1533" d="M778 650Q778 650 794 633Q803 624 803 615L793 539Q790 522 776 508L229 1Q224 -4 214 -4T195 4L127 71Q121 77 121 84Q121 91 125 95L540 579L118 1052Q112 1059 112 1066T120 1082L192
1152Q200 1160 206 1160T218 1155L778 650ZM1418 650L1434 633Q1443 624 1443 615L1433 539Q1430 522 1416 508L869 1Q864 -4 854 -4T835 4L767 71Q761 77 761 84Q761 91 765 95L1180 579L758 1052Q752 1059 752 1066T760 1082L832 1152Q840 1160 846 1160T858
1155L1418 650Z" />
<glyph unicode="&#xbc;" glyph-name="onequarter" horiz-adv-x="1533" d="M1371 12Q1371 3 1363 3H1012Q1004 3 1004 12L999 112Q999 124 1006 124L1097 122L1101 203L822 201Q800 201 796 215L773 295Q772 300 772 306T786 348L950 734Q964 768 967 775T983 782L1149
747Q1158 744 1158 738T1148 708L951 307L1106 313L1114 481Q1114 492 1127 493L1297 474Q1307 473 1307 463L1287 320L1373 323Q1380 323 1381 313L1394 215Q1394 205 1383 205L1285 204V118L1355 117Q1366 117 1367 107L1371 12ZM1268 1407Q1276 1401 1276 1394T1271
1378L798 738L310 38Q304 30 296 30T280 35L190 99Q182 104 182 111T189 130L687 821L1147 1473Q1153 1482 1159 1482T1174 1477L1268 1407ZM169 930Q169 939 177 939L295 930V1342L170 1324Q161 1324 160 1335L143 1438Q143 1447 154 1452L335 1536Q344 1541 353
1541L477 1524Q486 1523 486 1513L478 1376L472 931L589 939Q597 939 597 930L592 770Q592 758 585 758L175 765Q164 765 163 775L169 930Z" />
<glyph unicode="&#xbd;" glyph-name="onehalf" horiz-adv-x="1533" d="M1254 1407Q1262 1401 1262 1394T1257 1378L784 738L296 38Q290 30 282 30T266 35L176 99Q168 104 168 111T175 130L673 821L1133 1473Q1139 1482 1145 1482T1160 1477L1254 1407ZM155 930Q155
939 163 939L281 930V1342L156 1324Q147 1324 146 1335L129 1438Q129 1447 140 1452L321 1536Q330 1541 339 1541L463 1524Q472 1523 472 1513L464 1376L458 931L575 939Q583 939 583 930L578 770Q578 758 571 758L161 765Q150 765 149 775L155 930ZM991 803Q1008
803 1010 787L1008 733Q1110 784 1204 784Q1284 784 1338 728Q1394 670 1394 576Q1394 498 1332 412Q1298 364 1241 302L1098 152L1274 163V194Q1274 213 1294 213L1388 217Q1404 217 1404 202L1395 -36Q1394 -47 1384 -47L1272 -46Q1261 -46 1261 -33L1265 -1L906
-5Q898 -5 897 7L885 142Q885 149 938 206L1050 328Q1166 456 1184 497T1202 567Q1202 646 1116 646Q1061 646 1005 620L1004 567Q1004 555 993 554L871 571Q863 572 863 582L873 784Q873 798 888 800L991 803Z" />
<glyph unicode="&#xbe;" glyph-name="threequarters" horiz-adv-x="1533" d="M1408 12Q1408 3 1400 3H1049Q1041 3 1041 12L1036 112Q1036 124 1043 124L1134 122L1138 203L859 201Q839 201 833 215L810 295Q809 300 809 306T823 348L986 734Q1001 768 1004 775T1020
782L1186 747Q1195 744 1195 738T1184 708L988 307L1143 313L1151 481Q1151 492 1164 493L1334 474Q1344 473 1344 463L1324 320L1410 323Q1418 323 1418 313L1431 215Q1431 205 1420 205L1322 204V118L1392 117Q1403 117 1404 107L1408 12ZM1305 1407Q1313 1401
1313 1394T1308 1378L835 738L347 38Q341 30 333 30T317 35L227 99Q219 104 219 111T226 130L724 821L1184 1473Q1190 1482 1196 1482T1211 1477L1305 1407ZM266 1534Q365 1576 436 1576T541 1563T596 1526Q638 1482 638 1402T599 1271T481 1187Q573 1170 625 1117T678
997T665 890T624 820Q568 759 452 759Q348 759 254 787L265 734Q265 725 253 725L116 718Q96 719 95 737L81 924Q81 933 93 935L232 953Q242 953 242 941V898Q311 879 364 879T448 901T480 966T473 1030T454 1068Q429 1101 404 1101Q366 1101 332 1094Q275 1081
262 1081T248 1092L241 1205Q241 1220 256 1222Q441 1243 441 1380Q441 1423 419 1438T349 1454T253 1420L257 1378Q255 1365 246 1364L106 1356Q99 1356 98 1368L108 1570Q108 1586 123 1586L253 1584Q271 1584 273 1568L266 1534Z" />
<glyph unicode="&#xbf;" glyph-name="questiondown" horiz-adv-x="1023" d="M937 32Q951 32 953 9L933 -381Q930 -413 903 -413L754 -409Q719 -407 716 -377L718 -317Q558 -401 399 -401Q143 -401 74 -218Q50 -156 50 -82T68 54T115 174T183 289L370 552Q423 627
440 671T462 721T478 727L634 704Q647 703 647 689T636 634Q613 543 495 372L418 260Q284 57 284 -55Q284 -155 384 -190Q414 -200 454 -200T530 -195T598 -181Q649 -167 724 -128L728 0Q729 13 731 19T749 26L937 32ZM388 958T383 988T377 1044T394 1091T441 1127Q501
1156 557 1156T634 1139T668 1095Q693 1045 693 997T671 926T617 892Q562 870 508 870T433 887T400 931Z" />
<glyph unicode="&#xc0;" glyph-name="Agrave" horiz-adv-x="1366" d="M56 2Q34 4 34 34V201Q34 217 40 223T64 230L156 226L552 1510Q558 1529 576 1531L803 1539Q821 1538 828 1516L1260 233L1351 236Q1379 234 1379 204V46Q1379 29 1372 24T1348 19H885Q867
19 864 27T861 49L881 195Q883 212 889 217T911 223L1025 226L939 492L444 502L363 212L484 224Q496 224 500 219T507 201L522 49Q520 32 514 26T492 19L56 2ZM491 672H880L670 1315L491 672ZM399 2006Q405 2020 417 2020T441 2014L933 1738Q942 1733 942 1727T938
1711L899 1619Q895 1609 888 1609T873 1612L340 1805Q325 1811 325 1822T329 1842L399 2006Z" />
<glyph unicode="&#xc1;" glyph-name="Aacute" horiz-adv-x="1366" d="M56 2Q34 4 34 34V201Q34 217 40 223T64 230L156 226L552 1510Q558 1529 576 1531L803 1539Q821 1538 828 1516L1260 233L1351 236Q1379 234 1379 204V46Q1379 29 1372 24T1348 19H885Q867
19 864 27T861 49L881 195Q883 212 889 217T911 223L1025 226L939 492L444 502L363 212L484 224Q496 224 500 219T507 201L522 49Q520 32 514 26T492 19L56 2ZM491 672H880L670 1315L491 672ZM1029 1842Q1033 1834 1033 1823T1018 1805L524 1598Q516 1595 509 1595T498
1605L459 1697Q455 1707 455 1713T464 1724L917 2014Q929 2020 941 2020T959 2006L1029 1842Z" />
<glyph unicode="&#xc2;" glyph-name="Acircumflex" horiz-adv-x="1366" d="M56 2Q34 4 34 34V201Q34 217 40 223T64 230L156 226L552 1510Q558 1529 576 1531L803 1539Q821 1538 828 1516L1260 233L1351 236Q1379 234 1379 204V46Q1379 29 1372 24T1348 19H885Q867
19 864 27T861 49L881 195Q883 212 889 217T911 223L1025 226L939 492L444 502L363 212L484 224Q496 224 500 219T507 201L522 49Q520 32 514 26T492 19L56 2ZM491 672H880L670 1315L491 672ZM590 1985Q619 2008 635 2010L730 2020Q746 2020 776 1994L1078 1743Q1085
1736 1085 1729T1079 1714L1018 1641Q1013 1635 1008 1635T994 1639L674 1798L377 1644Q373 1642 367 1642T355 1650L293 1726Q287 1734 287 1739Q287 1744 292 1748L590 1985Z" />
<glyph unicode="&#xc3;" glyph-name="Atilde" horiz-adv-x="1366" d="M56 2Q34 4 34 34V201Q34 217 40 223T64 230L156 226L552 1510Q558 1529 576 1531L803 1539Q821 1538 828 1516L1260 233L1351 236Q1379 234 1379 204V46Q1379 29 1372 24T1348 19H885Q867
19 864 27T861 49L881 195Q883 212 889 217T911 223L1025 226L939 492L444 502L363 212L484 224Q496 224 500 219T507 201L522 49Q520 32 514 26T492 19L56 2ZM491 672H880L670 1315L491 672ZM266 1842Q266 1859 316 1901T401 1965Q477 2012 529 2012Q571 2012
638 1975T745 1919T811 1900T863 1906T911 1921T955 1942L993 1962Q1026 1981 1037 1981T1055 1962L1088 1884Q1090 1879 1090 1872Q1090 1859 1043 1815T960 1746Q880 1690 832 1690T744 1707T664 1745Q558 1798 530 1798T483 1793T443 1780T402 1763L364 1746Q332
1731 321 1731Q305 1731 298 1751L266 1842Z" />
<glyph unicode="&#xc4;" glyph-name="Adieresis" horiz-adv-x="1366" d="M56 2Q34 4 34 34V201Q34 217 40 223T64 230L156 226L552 1510Q558 1529 576 1531L803 1539Q821 1538 828 1516L1260 233L1351 236Q1379 234 1379 204V46Q1379 29 1372 24T1348 19H885Q867
19 864 27T861 49L881 195Q883 212 889 217T911 223L1025 226L939 492L444 502L363 212L484 224Q496 224 500 219T507 201L522 49Q520 32 514 26T492 19L56 2ZM491 672H880L670 1315L491 672ZM538 1735T506 1730T432 1725T366 1731T328 1752Q301 1779 301 1836T307
1920T332 1962Q363 1988 432 1988T524 1983T562 1964Q590 1939 590 1880T583 1793T557 1750ZM1009 1735T977 1730T903 1725T837 1731T799 1752Q772 1779 772 1836T778 1920T803 1962Q834 1988 903 1988T995 1983T1034 1964Q1061 1939 1061 1880T1054 1793T1028
1750Z" />
<glyph unicode="&#xc5;" glyph-name="Aring" horiz-adv-x="1366" d="M966 1766Q966 1578 824 1526L1260 233L1351 236Q1379 234 1379 204V46Q1379 29 1372 24T1348 19H885Q867 19 864 27T861 49L881 195Q883 212 889 217T911 223L1025 226L939 492L444 502L363
212L484 224Q496 224 500 219T507 201L522 49Q520 32 514 26T492 19L56 2Q34 4 34 34V201Q34 217 40 223T64 230L156 226L552 1510L558 1522Q406 1571 406 1746Q406 2010 690 2010Q903 2010 950 1872Q966 1826 966 1766ZM491 672H880L670 1315L491 672ZM569 1757Q569
1646 686 1646Q780 1646 802 1721Q809 1743 809 1778T783 1844T705 1874T629 1864T591 1836Q569 1809 569 1757Z" />
<glyph unicode="&#xc6;" glyph-name="AE" horiz-adv-x="1903" d="M1539 812Q1566 810 1566 787L1553 631Q1551 608 1535 608L1139 601L1138 204L1634 222L1643 343Q1647 380 1685 382L1820 387Q1848 386 1850 356L1866 -41Q1865 -64 1845 -64L1637 -60Q1615 -60
1615 -34L1619 26L789 2Q767 2 766 26L772 205Q772 226 791 229L917 212L933 596L533 585L385 214L484 224Q496 224 500 219T507 201L522 49Q520 32 514 26T492 19L56 2Q34 4 34 34V201Q34 217 40 223T64 230L165 225L682 1490Q691 1509 709 1511L1725 1553Q1755
1551 1755 1526L1745 1171Q1745 1147 1725 1144L1563 1114Q1549 1114 1545 1120T1540 1140L1527 1349L1160 1343L1141 783L1539 812ZM603 759L938 775L943 1348L841 1354L603 759Z" />
<glyph unicode="&#xc7;" glyph-name="Ccedilla" horiz-adv-x="1366" d="M795 -374Q878 -374 878 -305Q878 -276 860 -255T813 -234T773 -235T749 -238Q721 -242 716 -242T700 -230T675 -201Q643 -162 643 -147L670 -40Q270 -28 164 431Q130 581 130 782T172 1128T290
1364Q436 1540 707 1540Q877 1540 993 1502L1173 1530Q1213 1530 1215 1491L1203 1055Q1203 1029 1181 1029L1013 1025Q994 1025 992 1048L971 1305Q849 1335 746 1335T572 1305T455 1206Q366 1074 366 765Q366 298 592 206Q666 176 772 176T996 214L991 348Q993
366 1015 370L1181 398Q1198 398 1202 375L1242 -15Q1242 -31 1219 -33L1047 -48Q1007 -48 1005 -9L1003 33Q904 -19 798 -33L786 -112Q827 -103 874 -103T954 -119T1010 -162Q1054 -217 1054 -320Q1054 -522 807 -522Q693 -522 616 -489Q595 -480 595 -471L616
-364Q619 -347 635 -347Q642 -347 670 -354Q750 -374 795 -374Z" />
<glyph unicode="&#xc8;" glyph-name="Egrave" horiz-adv-x="1366" d="M1272 -41Q1268 -64 1251 -64L1063 -60Q1041 -60 1041 -34L1039 27L146 2Q123 2 122 26L128 210Q128 225 144 229L269 212L261 1301L135 1290Q117 1290 117 1312L128 1494Q130 1513 152 1515L1151
1553Q1181 1551 1181 1526L1161 1161Q1161 1138 1145 1138L977 1144Q963 1145 960 1151T956 1170L950 1342L477 1317L484 851L975 882Q1000 882 1002 859L1009 691Q1007 668 988 668L486 661L493 204L1033 222L1029 353Q1031 390 1071 392L1233 387Q1256 385 1256
369L1272 -41ZM405 2006Q411 2020 423 2020T447 2014L939 1738Q948 1733 948 1727T944 1711L905 1619Q901 1609 894 1609T879 1612L346 1805Q331 1811 331 1822T335 1842L405 2006Z" />
<glyph unicode="&#xc9;" glyph-name="Eacute" horiz-adv-x="1366" d="M1272 -41Q1268 -64 1251 -64L1063 -60Q1041 -60 1041 -34L1039 27L146 2Q123 2 122 26L128 210Q128 225 144 229L269 212L261 1301L135 1290Q117 1290 117 1312L128 1494Q130 1513 152 1515L1151
1553Q1181 1551 1181 1526L1161 1161Q1161 1138 1145 1138L977 1144Q963 1145 960 1151T956 1170L950 1342L477 1317L484 851L975 882Q1000 882 1002 859L1009 691Q1007 668 988 668L486 661L493 204L1033 222L1029 353Q1031 390 1071 392L1233 387Q1256 385 1256
369L1272 -41ZM1035 1842Q1039 1834 1039 1823T1024 1805L530 1598Q522 1595 515 1595T504 1605L465 1697Q461 1707 461 1713T470 1724L923 2014Q935 2020 947 2020T965 2006L1035 1842Z" />
<glyph unicode="&#xca;" glyph-name="Ecircumflex" horiz-adv-x="1366" d="M1272 -41Q1268 -64 1251 -64L1063 -60Q1041 -60 1041 -34L1039 27L146 2Q123 2 122 26L128 210Q128 225 144 229L269 212L261 1301L135 1290Q117 1290 117 1312L128 1494Q130 1513 152
1515L1151 1553Q1181 1551 1181 1526L1161 1161Q1161 1138 1145 1138L977 1144Q963 1145 960 1151T956 1170L950 1342L477 1317L484 851L975 882Q1000 882 1002 859L1009 691Q1007 668 988 668L486 661L493 204L1033 222L1029 353Q1031 390 1071 392L1233 387Q1256
385 1256 369L1272 -41ZM596 1985Q625 2008 641 2010L736 2020Q752 2020 782 1994L1084 1743Q1091 1736 1091 1729T1085 1714L1024 1641Q1019 1635 1014 1635T1000 1639L680 1798L383 1644Q379 1642 373 1642T361 1650L299 1726Q293 1734 293 1739Q293 1744 298
1748L596 1985Z" />
<glyph unicode="&#xcb;" glyph-name="Edieresis" horiz-adv-x="1366" d="M1272 -41Q1268 -64 1251 -64L1063 -60Q1041 -60 1041 -34L1039 27L146 2Q123 2 122 26L128 210Q128 225 144 229L269 212L261 1301L135 1290Q117 1290 117 1312L128 1494Q130 1513 152
1515L1151 1553Q1181 1551 1181 1526L1161 1161Q1161 1138 1145 1138L977 1144Q963 1145 960 1151T956 1170L950 1342L477 1317L484 851L975 882Q1000 882 1002 859L1009 691Q1007 668 988 668L486 661L493 204L1033 222L1029 353Q1031 390 1071 392L1233 387Q1256
385 1256 369L1272 -41ZM544 1735T512 1730T438 1725T372 1731T334 1752Q307 1779 307 1836T313 1920T338 1962Q369 1988 438 1988T530 1983T568 1964Q596 1939 596 1880T589 1793T563 1750ZM1015 1735T983 1730T909 1725T843 1731T805 1752Q778 1779 778 1836T784
1920T809 1962Q840 1988 909 1988T1001 1983T1040 1964Q1067 1939 1067 1880T1060 1793T1034 1750Z" />
<glyph unicode="&#xcc;" glyph-name="Igrave" horiz-adv-x="682" d="M585 210Q601 210 601 191L598 13Q598 -7 574 -7L110 6Q93 6 92 30L84 207Q86 223 100 226L239 216L231 1305L94 1306Q76 1306 76 1328L92 1504Q93 1516 98 1519T116 1525L583 1507Q594 1506
597 1502T601 1484L594 1325Q592 1303 571 1303H454L451 210H585ZM59 2006Q65 2020 77 2020T101 2014L593 1738Q602 1733 602 1727T598 1711L559 1619Q555 1609 548 1609T533 1612L0 1805Q-15 1811 -15 1822T-11 1842L59 2006Z" />
<glyph unicode="&#xcd;" glyph-name="Iacute" horiz-adv-x="682" d="M585 210Q601 210 601 191L598 13Q598 -7 574 -7L110 6Q93 6 92 30L84 207Q86 223 100 226L239 216L231 1305L94 1306Q76 1306 76 1328L92 1504Q93 1516 98 1519T116 1525L583 1507Q594 1506
597 1502T601 1484L594 1325Q592 1303 571 1303H454L451 210H585ZM689 1842Q693 1834 693 1823T678 1805L184 1598Q176 1595 169 1595T158 1605L119 1697Q115 1707 115 1713T124 1724L577 2014Q589 2020 601 2020T619 2006L689 1842Z" />
<glyph unicode="&#xce;" glyph-name="Icircumflex" horiz-adv-x="682" d="M585 210Q601 210 601 191L598 13Q598 -7 574 -7L110 6Q93 6 92 30L84 207Q86 223 100 226L239 216L231 1305L94 1306Q76 1306 76 1328L92 1504Q93 1516 98 1519T116 1525L583 1507Q594
1506 597 1502T601 1484L594 1325Q592 1303 571 1303H454L451 210H585ZM250 1985Q279 2008 295 2010L390 2020Q406 2020 436 1994L738 1743Q745 1736 745 1729T739 1714L678 1641Q673 1635 668 1635T654 1639L334 1798L37 1644Q33 1642 27 1642T15 1650L-47 1726Q-53
1734 -53 1739Q-53 1744 -48 1748L250 1985Z" />
<glyph unicode="&#xcf;" glyph-name="Idieresis" horiz-adv-x="682" d="M585 210Q601 210 601 191L598 13Q598 -7 574 -7L110 6Q93 6 92 30L84 207Q86 223 100 226L239 216L231 1305L94 1306Q76 1306 76 1328L92 1504Q93 1516 98 1519T116 1525L583 1507Q594 1506
597 1502T601 1484L594 1325Q592 1303 571 1303H454L451 210H585ZM198 1735T166 1730T92 1725T26 1731T-12 1752Q-39 1779 -39 1836T-33 1920T-8 1962Q23 1988 92 1988T184 1983T222 1964Q250 1939 250 1880T243 1793T217 1750ZM669 1735T637 1730T563 1725T497
1731T459 1752Q432 1779 432 1836T438 1920T463 1962Q494 1988 563 1988T655 1983T694 1964Q721 1939 721 1880T714 1793T688 1750Z" />
<glyph unicode="&#xd0;" glyph-name="Eth" horiz-adv-x="1366" d="M246 1313Q185 1309 105 1301Q94 1301 91 1306T87 1323L73 1509Q74 1521 79 1524T97 1530Q196 1532 269 1534T397 1537T490 1538T557 1539T608 1540H650Q948 1540 1092 1384Q1259 1204 1259 786Q1259
391 1090 180Q929 -19 645 -19Q347 -19 101 6Q84 7 83 30L95 207Q97 223 111 226L220 218L229 602L98 596Q74 598 74 615L72 746Q72 766 88 766L233 768L246 1313ZM453 205Q537 199 575 199H639Q842 199 937 340T1033 761Q1033 1225 810 1309Q738 1336 680 1336Q580
1336 465 1329L459 772H469L775 794Q791 794 791 776L794 642V639Q794 621 781 620L457 614L453 205Z" />
<glyph unicode="&#xd1;" glyph-name="Ntilde" horiz-adv-x="1536" d="M1472 1325Q1472 1303 1449 1303L1322 1306L1320 39Q1320 12 1296 10L1054 -3Q1041 -3 1031 19L442 1324L466 230L623 240Q637 240 639 221L656 23Q654 3 632 3L148 6Q134 6 130 30L112 197Q114
216 128 216L285 220V1301L102 1293Q91 1294 89 1298T84 1315L95 1491Q97 1510 119 1512L559 1534Q585 1532 596 1506L1163 232L1137 1311L982 1316Q971 1316 968 1321T964 1338L970 1504Q972 1525 994 1525L1441 1527Q1452 1526 1455 1522T1459 1504L1472 1325ZM353
1842Q353 1859 403 1901T488 1965Q564 2012 616 2012Q658 2012 725 1975T832 1919T898 1900T950 1906T998 1921T1042 1942L1080 1962Q1113 1981 1124 1981T1142 1962L1175 1884Q1177 1879 1177 1872Q1177 1859 1130 1815T1048 1746Q967 1690 919 1690T831 1707T751
1745Q645 1798 617 1798T570 1793T530 1780T488 1763L451 1746Q419 1731 408 1731Q392 1731 385 1751L353 1842Z" />
<glyph unicode="&#xd2;" glyph-name="Ograve" horiz-adv-x="1366" d="M1260 751Q1260 -10 699 -10Q406 -10 256 182T105 751Q105 1330 422 1488Q528 1540 670 1540T922 1496T1107 1357Q1260 1163 1260 751ZM1034 764Q1034 919 1010 1029T940 1202T826 1288T668
1312T511 1278T404 1175Q329 1046 329 755Q329 458 423 332Q510 217 706 217Q885 217 962 344Q1034 466 1034 764ZM403 2006Q409 2020 421 2020T445 2014L937 1738Q946 1733 946 1727T942 1711L903 1619Q899 1609 892 1609T877 1612L344 1805Q329 1811 329 1822T333
1842L403 2006Z" />
<glyph unicode="&#xd3;" glyph-name="Oacute" horiz-adv-x="1366" d="M1260 751Q1260 -10 699 -10Q406 -10 256 182T105 751Q105 1330 422 1488Q528 1540 670 1540T922 1496T1107 1357Q1260 1163 1260 751ZM1034 764Q1034 919 1010 1029T940 1202T826 1288T668
1312T511 1278T404 1175Q329 1046 329 755Q329 458 423 332Q510 217 706 217Q885 217 962 344Q1034 466 1034 764ZM1033 1842Q1037 1834 1037 1823T1022 1805L528 1598Q520 1595 513 1595T502 1605L463 1697Q459 1707 459 1713T468 1724L921 2014Q933 2020 945
2020T963 2006L1033 1842Z" />
<glyph unicode="&#xd4;" glyph-name="Ocircumflex" horiz-adv-x="1366" d="M1260 751Q1260 -10 699 -10Q406 -10 256 182T105 751Q105 1330 422 1488Q528 1540 670 1540T922 1496T1107 1357Q1260 1163 1260 751ZM1034 764Q1034 919 1010 1029T940 1202T826 1288T668
1312T511 1278T404 1175Q329 1046 329 755Q329 458 423 332Q510 217 706 217Q885 217 962 344Q1034 466 1034 764ZM594 1985Q623 2008 639 2010L734 2020Q750 2020 780 1994L1082 1743Q1089 1736 1089 1729T1083 1714L1022 1641Q1017 1635 1012 1635T998 1639L678
1798L381 1644Q377 1642 371 1642T359 1650L297 1726Q291 1734 291 1739Q291 1744 296 1748L594 1985Z" />
<glyph unicode="&#xd5;" glyph-name="Otilde" horiz-adv-x="1366" d="M1260 751Q1260 -10 699 -10Q406 -10 256 182T105 751Q105 1330 422 1488Q528 1540 670 1540T922 1496T1107 1357Q1260 1163 1260 751ZM1034 764Q1034 919 1010 1029T940 1202T826 1288T668
1312T511 1278T404 1175Q329 1046 329 755Q329 458 423 332Q510 217 706 217Q885 217 962 344Q1034 466 1034 764ZM270 1842Q270 1859 320 1901T405 1965Q481 2012 533 2012Q575 2012 642 1975T749 1919T815 1900T867 1906T915 1921T959 1942L997 1962Q1030 1981
1041 1981T1059 1962L1092 1884Q1094 1879 1094 1872Q1094 1859 1047 1815T964 1746Q884 1690 836 1690T748 1707T668 1745Q562 1798 534 1798T487 1793T447 1780T406 1763L368 1746Q336 1731 325 1731Q309 1731 302 1751L270 1842Z" />
<glyph unicode="&#xd6;" glyph-name="Odieresis" horiz-adv-x="1366" d="M1260 751Q1260 -10 699 -10Q406 -10 256 182T105 751Q105 1330 422 1488Q528 1540 670 1540T922 1496T1107 1357Q1260 1163 1260 751ZM1034 764Q1034 919 1010 1029T940 1202T826 1288T668
1312T511 1278T404 1175Q329 1046 329 755Q329 458 423 332Q510 217 706 217Q885 217 962 344Q1034 466 1034 764ZM542 1735T510 1730T436 1725T370 1731T332 1752Q305 1779 305 1836T311 1920T336 1962Q367 1988 436 1988T528 1983T566 1964Q594 1939 594 1880T587
1793T561 1750ZM1013 1735T981 1730T907 1725T841 1731T803 1752Q776 1779 776 1836T782 1920T807 1962Q838 1988 907 1988T999 1983T1038 1964Q1065 1939 1065 1880T1058 1793T1032 1750Z" />
<glyph unicode="&#xd7;" glyph-name="multiply" horiz-adv-x="1194" d="M1016 889Q1023 882 1023 875Q1023 868 1013 858L715 582L1020 317Q1025 313 1025 306Q1025 299 1019 291L903 159Q897 151 890 151Q883 151 872 162L592 457L323 146Q317 139 309 139T294
147L180 271Q173 278 173 284T178 295L472 577L178 850Q171 857 171 862T179 878L291 1005Q298 1014 303 1014T316 1007L593 703L870 1017Q877 1024 884 1024T898 1018L1016 889Z" />
<glyph unicode="&#xd8;" glyph-name="Oslash" horiz-adv-x="1366" d="M1261 751Q1261 -10 700 -10Q589 -10 496 19L421 -195Q416 -209 407 -209T393 -208L276 -161Q260 -155 260 -145T261 -133L351 90Q106 270 106 751Q106 1330 423 1488Q529 1540 661 1540T892
1507L962 1701Q968 1718 976 1718T989 1717L1108 1674Q1123 1669 1123 1657Q1123 1654 1121 1646L1032 1432Q1261 1252 1261 751ZM815 1293Q760 1312 669 1312T512 1278T406 1175Q330 1046 330 755Q330 432 440 312L644 816L815 1293ZM938 1204L757 764L571 233Q629
217 713 217T861 248T962 344Q1035 466 1035 771T938 1204Z" />
<glyph unicode="&#xd9;" glyph-name="Ugrave" horiz-adv-x="1538" d="M1415 200Q1431 200 1431 181L1418 3Q1416 -17 1394 -17L1051 -24Q1028 -24 1028 0L1029 227Q943 125 835 69T622 12T443 46T320 148Q219 283 219 538Q219 808 234 1008L258 1306L94 1293Q83
1293 81 1297T76 1315L87 1501Q89 1520 111 1522L543 1537Q561 1535 561 1514L547 1338Q544 1316 524 1316H476Q470 1221 466 1146L458 1012Q447 815 447 622Q447 246 671 246Q812 246 954 334Q997 360 1030 390L1036 1280L929 1276Q915 1276 915 1298L921 1484Q923
1505 945 1505L1393 1517Q1411 1515 1411 1494L1414 1315Q1414 1293 1391 1293L1251 1288V184L1415 200ZM484 2006Q490 2020 502 2020T526 2014L1018 1738Q1027 1733 1027 1727T1023 1711L984 1619Q980 1609 973 1609T958 1612L425 1805Q410 1811 410 1822T414
1842L484 2006Z" />
<glyph unicode="&#xda;" glyph-name="Uacute" horiz-adv-x="1538" d="M1415 200Q1431 200 1431 181L1418 3Q1416 -17 1394 -17L1051 -24Q1028 -24 1028 0L1029 227Q943 125 835 69T622 12T443 46T320 148Q219 283 219 538Q219 808 234 1008L258 1306L94 1293Q83
1293 81 1297T76 1315L87 1501Q89 1520 111 1522L543 1537Q561 1535 561 1514L547 1338Q544 1316 524 1316H476Q470 1221 466 1146L458 1012Q447 815 447 622Q447 246 671 246Q812 246 954 334Q997 360 1030 390L1036 1280L929 1276Q915 1276 915 1298L921 1484Q923
1505 945 1505L1393 1517Q1411 1515 1411 1494L1414 1315Q1414 1293 1391 1293L1251 1288V184L1415 200ZM1114 1842Q1118 1834 1118 1823T1103 1805L609 1598Q601 1595 594 1595T583 1605L544 1697Q540 1707 540 1713T549 1724L1002 2014Q1014 2020 1026 2020T1044
2006L1114 1842Z" />
<glyph unicode="&#xdb;" glyph-name="Ucircumflex" horiz-adv-x="1538" d="M1415 200Q1431 200 1431 181L1418 3Q1416 -17 1394 -17L1051 -24Q1028 -24 1028 0L1029 227Q943 125 835 69T622 12T443 46T320 148Q219 283 219 538Q219 808 234 1008L258 1306L94 1293Q83
1293 81 1297T76 1315L87 1501Q89 1520 111 1522L543 1537Q561 1535 561 1514L547 1338Q544 1316 524 1316H476Q470 1221 466 1146L458 1012Q447 815 447 622Q447 246 671 246Q812 246 954 334Q997 360 1030 390L1036 1280L929 1276Q915 1276 915 1298L921 1484Q923
1505 945 1505L1393 1517Q1411 1515 1411 1494L1414 1315Q1414 1293 1391 1293L1251 1288V184L1415 200ZM675 1985Q704 2008 720 2010L815 2020Q831 2020 861 1994L1163 1743Q1170 1736 1170 1729T1164 1714L1103 1641Q1098 1635 1093 1635T1079 1639L759 1798L462
1644Q458 1642 452 1642T440 1650L378 1726Q372 1734 372 1739Q372 1744 377 1748L675 1985Z" />
<glyph unicode="&#xdc;" glyph-name="Udieresis" horiz-adv-x="1538" d="M1415 200Q1431 200 1431 181L1418 3Q1416 -17 1394 -17L1051 -24Q1028 -24 1028 0L1029 227Q943 125 835 69T622 12T443 46T320 148Q219 283 219 538Q219 808 234 1008L258 1306L94 1293Q83
1293 81 1297T76 1315L87 1501Q89 1520 111 1522L543 1537Q561 1535 561 1514L547 1338Q544 1316 524 1316H476Q470 1221 466 1146L458 1012Q447 815 447 622Q447 246 671 246Q812 246 954 334Q997 360 1030 390L1036 1280L929 1276Q915 1276 915 1298L921 1484Q923
1505 945 1505L1393 1517Q1411 1515 1411 1494L1414 1315Q1414 1293 1391 1293L1251 1288V184L1415 200ZM623 1735T591 1730T517 1725T451 1731T413 1752Q386 1779 386 1836T392 1920T417 1962Q448 1988 517 1988T609 1983T648 1964Q675 1939 675 1880T668 1793T642
1750ZM1094 1735T1062 1730T988 1725T922 1731T884 1752Q857 1779 857 1836T863 1920T888 1962Q919 1988 988 1988T1080 1983T1118 1964Q1146 1939 1146 1880T1139 1793T1113 1750Z" />
<glyph unicode="&#xdd;" glyph-name="Yacute" horiz-adv-x="1366" d="M962 215Q980 215 980 193L964 17Q963 5 958 2T940 -4L408 11Q397 11 394 16T390 34L397 203Q399 225 420 225L577 222L580 559L152 1307L66 1301Q38 1301 38 1333L28 1503Q28 1520 35 1525T59
1530H542Q560 1530 563 1522T566 1500L556 1335Q555 1318 549 1313T526 1307L416 1311L714 712L1002 1303L875 1300Q863 1300 859 1305T852 1323L837 1490Q839 1520 867 1520L1323 1527Q1345 1525 1345 1495L1335 1333Q1334 1317 1328 1311T1305 1304H1218L803
558L796 218L962 215ZM1036 1842Q1040 1834 1040 1823T1025 1805L531 1598Q523 1595 516 1595T505 1605L466 1697Q462 1707 462 1713T471 1724L924 2014Q936 2020 948 2020T966 2006L1036 1842Z" />
<glyph unicode="&#xde;" glyph-name="Thorn" horiz-adv-x="1366" d="M113 1511Q113 1534 131 1534L630 1542Q642 1540 647 1537T654 1521L645 1345Q644 1332 641 1328T627 1323L490 1324L489 1169Q669 1202 797 1202T1017 1181T1178 1111Q1325 1008 1325 793Q1325
562 1172 460Q1030 366 732 366Q612 366 481 385L479 207L670 220Q689 220 689 201L696 23Q694 3 672 3L153 -4Q133 -4 130 20L112 197Q114 213 128 216L246 209L271 1320L140 1313Q117 1313 117 1335L113 1511ZM483 588Q664 567 751 567T896 577T998 612Q1092
667 1092 791Q1092 972 904 1000Q848 1009 777 1009Q653 1009 487 985L483 588Z" />
<glyph unicode="&#xdf;" glyph-name="germandbls" horiz-adv-x="1364" d="M235 1309Q235 1646 786 1646Q1000 1646 1102 1574T1205 1349Q1205 1221 1151 1138Q1122 1094 1074 1046L956 930Q921 897 898 867T874 798T922 729T1057 666T1199 602T1288 531Q1345 460
1345 302Q1345 74 1149 11Q1087 -9 1000 -9Q861 -9 637 32Q599 38 595 71L614 231Q618 253 641 253Q654 253 710 234T796 207T854 192Q920 177 984 177T1094 214T1140 311T1117 401T1015 459L862 514Q713 570 672 656Q651 702 651 760T666 858T706 937Q746 998
807 1059T898 1153T947 1213Q984 1268 984 1333T935 1426T816 1454T703 1452T621 1443T549 1421T492 1380Q439 1323 439 1217Q439 1153 442 1097L448 1000Q451 957 454 915V206L436 20Q434 8 430 5T412 0L129 6Q115 6 115 30L105 181Q105 200 121 200L250 202V888L94
878Q77 880 74 895L83 1070Q86 1092 105 1092H244Q235 1182 235 1230V1309Z" />
<glyph unicode="&#xe0;" glyph-name="agrave" horiz-adv-x="1196" d="M722 1151Q1018 1151 1018 783Q1018 696 1014 558L1007 362Q1005 303 1002 250L998 155L1058 160Q1091 162 1133 166Q1154 166 1154 147L1136 -11Q1133 -29 1114 -31L825 -49Q811 -49 811 -27L825
90Q658 -39 462 -39Q309 -39 210 50Q105 144 105 303Q105 510 248 594Q374 668 663 668Q723 668 791 665Q792 691 792 713V751Q792 946 621 946Q532 946 401 892L405 854Q407 835 407 824Q407 802 385 802L216 799Q198 802 196 821L179 1107Q179 1131 201 1134L368
1156Q389 1156 389 1134V1051Q568 1151 722 1151ZM532 150Q647 150 785 216Q787 282 787 361T790 519Q527 519 425 474Q331 432 331 334Q331 150 532 150ZM433 1799Q442 1810 454 1810T476 1799L859 1379Q864 1372 864 1364T856 1345L789 1277Q783 1271 776 1271Q769
1271 765 1275L303 1615Q295 1622 295 1632T300 1649L433 1799Z" />
<glyph unicode="&#xe1;" glyph-name="aacute" horiz-adv-x="1196" d="M722 1151Q1018 1151 1018 783Q1018 696 1014 558L1007 362Q1005 303 1002 250L998 155L1058 160Q1091 162 1133 166Q1154 166 1154 147L1136 -11Q1133 -29 1114 -31L825 -49Q811 -49 811 -27L825
90Q658 -39 462 -39Q309 -39 210 50Q105 144 105 303Q105 510 248 594Q374 668 663 668Q723 668 791 665Q792 691 792 713V751Q792 946 621 946Q532 946 401 892L405 854Q407 835 407 824Q407 802 385 802L216 799Q198 802 196 821L179 1107Q179 1131 201 1134L368
1156Q389 1156 389 1134V1051Q568 1151 722 1151ZM532 150Q647 150 785 216Q787 282 787 361T790 519Q527 519 425 474Q331 432 331 334Q331 150 532 150ZM949 1649Q954 1642 954 1632T946 1615L484 1275Q478 1271 472 1271T460 1277L393 1345Q385 1355 385 1363T390
1379L773 1799Q782 1810 794 1810T816 1799L949 1649Z" />
<glyph unicode="&#xe2;" glyph-name="acircumflex" horiz-adv-x="1196" d="M722 1151Q1018 1151 1018 783Q1018 696 1014 558L1007 362Q1005 303 1002 250L998 155L1058 160Q1091 162 1133 166Q1154 166 1154 147L1136 -11Q1133 -29 1114 -31L825 -49Q811 -49
811 -27L825 90Q658 -39 462 -39Q309 -39 210 50Q105 144 105 303Q105 510 248 594Q374 668 663 668Q723 668 791 665Q792 691 792 713V751Q792 946 621 946Q532 946 401 892L405 854Q407 835 407 824Q407 802 385 802L216 799Q198 802 196 821L179 1107Q179 1131
201 1134L368 1156Q389 1156 389 1134V1051Q568 1151 722 1151ZM532 150Q647 150 785 216Q787 282 787 361T790 519Q527 519 425 474Q331 432 331 334Q331 150 532 150ZM544 1745Q566 1767 586 1770L687 1780Q710 1780 734 1750L1032 1369Q1037 1362 1037 1353T1029
1335L962 1267Q956 1261 949 1261T938 1265L628 1545L329 1268Q321 1262 314 1262T299 1270L229 1342Q221 1350 221 1356T226 1368L544 1745Z" />
<glyph unicode="&#xe3;" glyph-name="atilde" horiz-adv-x="1196" d="M722 1151Q1018 1151 1018 783Q1018 696 1014 558L1007 362Q1005 303 1002 250L998 155L1058 160Q1091 162 1133 166Q1154 166 1154 147L1136 -11Q1133 -29 1114 -31L825 -49Q811 -49 811 -27L825
90Q658 -39 462 -39Q309 -39 210 50Q105 144 105 303Q105 510 248 594Q374 668 663 668Q723 668 791 665Q792 691 792 713V751Q792 946 621 946Q532 946 401 892L405 854Q407 835 407 824Q407 802 385 802L216 799Q198 802 196 821L179 1107Q179 1131 201 1134L368
1156Q389 1156 389 1134V1051Q568 1151 722 1151ZM532 150Q647 150 785 216Q787 282 787 361T790 519Q527 519 425 474Q331 432 331 334Q331 150 532 150ZM237 1462Q237 1477 286 1520T367 1585Q439 1632 479 1632T555 1614T626 1575Q718 1520 750 1520T808 1527T858
1544T902 1567L938 1588Q959 1601 969 1601T986 1582L1019 1504Q1021 1499 1021 1492Q1021 1483 1004 1465L958 1418Q848 1310 759 1310Q713 1310 616 1364Q519 1418 486 1418Q437 1418 387 1392Q307 1351 295 1351Q276 1351 269 1371L237 1462Z" />
<glyph unicode="&#xe4;" glyph-name="adieresis" horiz-adv-x="1196" d="M722 1151Q1018 1151 1018 783Q1018 696 1014 558L1007 362Q1005 303 1002 250L998 155L1058 160Q1091 162 1133 166Q1154 166 1154 147L1136 -11Q1133 -29 1114 -31L825 -49Q811 -49 811
-27L825 90Q658 -39 462 -39Q309 -39 210 50Q105 144 105 303Q105 510 248 594Q374 668 663 668Q723 668 791 665Q792 691 792 713V751Q792 946 621 946Q532 946 401 892L405 854Q407 835 407 824Q407 802 385 802L216 799Q198 802 196 821L179 1107Q179 1131 201
1134L368 1156Q389 1156 389 1134V1051Q568 1151 722 1151ZM532 150Q647 150 785 216Q787 282 787 361T790 519Q527 519 425 474Q331 432 331 334Q331 150 532 150ZM486 1347T454 1342T380 1337T314 1343T276 1364Q249 1391 249 1448T255 1532T280 1574Q311 1600
380 1600T472 1595T510 1576Q538 1551 538 1492T531 1405T505 1362ZM957 1347T925 1342T851 1337T785 1343T747 1364Q720 1391 720 1448T726 1532T751 1574Q782 1600 851 1600T943 1595T982 1576Q1009 1551 1009 1492T1002 1405T976 1362Z" />
<glyph unicode="&#xe5;" glyph-name="aring" horiz-adv-x="1196" d="M722 1151Q1018 1151 1018 783Q1018 696 1014 558L1007 362Q1005 303 1002 250L998 155L1058 160Q1091 162 1133 166Q1154 166 1154 147L1136 -11Q1133 -29 1114 -31L825 -49Q811 -49 811 -27L825
90Q658 -39 462 -39Q309 -39 210 50Q105 144 105 303Q105 510 248 594Q374 668 663 668Q723 668 791 665Q792 691 792 713V751Q792 946 621 946Q532 946 401 892L405 854Q407 835 407 824Q407 802 385 802L216 799Q198 802 196 821L179 1107Q179 1131 201 1134L368
1156Q389 1156 389 1134V1051Q568 1151 722 1151ZM532 150Q647 150 785 216Q787 282 787 361T790 519Q527 519 425 474Q331 432 331 334Q331 150 532 150ZM904 1528Q904 1267 624 1267T344 1508Q344 1772 628 1772Q841 1772 888 1634Q904 1588 904 1528ZM507 1519Q507
1408 624 1408Q718 1408 740 1483Q747 1505 747 1540T721 1606T643 1636T567 1626T529 1598Q507 1571 507 1519Z" />
<glyph unicode="&#xe6;" glyph-name="ae" horiz-adv-x="1771" d="M906 1012Q1041 1153 1281 1153Q1465 1153 1549 1069T1634 801Q1634 587 1480 524Q1390 487 1274 484T1102 481H1018Q991 481 963 483Q976 290 1042 222Q1096 166 1229 166Q1334 166 1434 186L1437
249Q1438 261 1442 265T1459 272L1603 304Q1627 304 1628 285L1650 -25Q1650 -64 1606 -69L1440 -89Q1418 -89 1418 -67Q1418 -34 1422 6Q1300 -26 1137 -26Q929 -26 837 108Q755 31 697 6Q588 -39 483 -39T316 -17T206 46Q105 137 105 286Q105 472 232 555T623
638Q686 638 755 635Q755 716 752 751Q745 851 706 898T581 946Q492 946 361 892Q367 850 367 826T345 802L176 799Q158 802 156 821L139 1107Q139 1131 161 1134L328 1156Q349 1156 349 1134V1050Q528 1144 685 1144T906 1012ZM785 219Q752 324 750 489Q406 489
350 380Q331 345 331 302T346 231T388 184Q439 149 521 149Q662 149 785 219ZM1358 665T1382 700T1406 787T1399 868T1372 920Q1335 963 1246 963Q1076 963 1019 877Q965 796 960 628Q1011 625 1075 625T1204 628T1313 648Z" />
<glyph unicode="&#xe7;" glyph-name="ccedilla" horiz-adv-x="1024" d="M560 -374Q643 -374 643 -305Q643 -276 625 -255T578 -234T538 -235T514 -238Q486 -242 481 -242T465 -230T440 -201Q408 -162 408 -147L444 -5Q262 9 178 134Q94 258 94 517Q94 702 110
793T151 946T219 1054Q312 1153 484 1153Q581 1153 697 1124L885 1159Q903 1156 905 1137L922 781Q920 757 900 754L733 732Q712 732 712 754V923Q648 938 575 938T447 914T360 842Q306 758 306 553Q306 245 432 202Q472 188 524 188Q599 188 696 207L700 276Q702
300 721 302L879 296Q893 294 895 273L913 -40Q913 -61 893 -61H701Q686 -61 684 -42L687 15Q605 0 567 -3L551 -112Q592 -103 639 -103T719 -119T774 -162Q819 -217 819 -320Q819 -522 572 -522Q458 -522 381 -489Q360 -480 360 -471L381 -364Q384 -347 400 -347Q407
-347 435 -354Q515 -374 560 -374Z" />
<glyph unicode="&#xe8;" glyph-name="egrave" horiz-adv-x="1196" d="M847 6Q719 -26 522 -26Q321 -26 230 98Q135 227 135 507Q135 801 216 946Q308 1106 510 1141Q580 1153 666 1153Q851 1153 935 1062T1019 784Q1019 662 976 596Q962 575 938 549T850 502T702
470Q573 454 347 454Q360 285 430 224Q483 176 614 176Q737 176 859 197L862 249Q863 261 867 265T884 272L1028 304Q1050 304 1053 285Q1056 268 1059 219T1065 133T1070 64L1074 8Q1075 -17 1075 -34Q1075 -64 1031 -69L865 -89Q843 -89 843 -67L847 6ZM780 684T785
714T791 786T784 860T758 915Q719 963 631 963Q461 963 404 877Q350 797 344 601Q693 606 754 661Q780 684 785 714ZM409 1799Q418 1810 430 1810T452 1799L835 1379Q840 1372 840 1364T832 1345L765 1277Q759 1271 752 1271Q745 1271 741 1275L279 1615Q271 1622
271 1632T276 1649L409 1799Z" />
<glyph unicode="&#xe9;" glyph-name="eacute" horiz-adv-x="1196" d="M847 6Q719 -26 522 -26Q321 -26 230 98Q135 227 135 507Q135 801 216 946Q308 1106 510 1141Q580 1153 666 1153Q851 1153 935 1062T1019 784Q1019 662 976 596Q962 575 938 549T850 502T702
470Q573 454 347 454Q360 285 430 224Q483 176 614 176Q737 176 859 197L862 249Q863 261 867 265T884 272L1028 304Q1050 304 1053 285Q1056 268 1059 219T1065 133T1070 64L1074 8Q1075 -17 1075 -34Q1075 -64 1031 -69L865 -89Q843 -89 843 -67L847 6ZM780 684T785
714T791 786T784 860T758 915Q719 963 631 963Q461 963 404 877Q350 797 344 601Q693 606 754 661Q780 684 785 714ZM925 1649Q930 1642 930 1632T922 1615L460 1275Q454 1271 448 1271T436 1277L369 1345Q361 1355 361 1363T366 1379L749 1799Q758 1810 770 1810T792
1799L925 1649Z" />
<glyph unicode="&#xea;" glyph-name="ecircumflex" horiz-adv-x="1196" d="M847 6Q719 -26 522 -26Q321 -26 230 98Q135 227 135 507Q135 801 216 946Q308 1106 510 1141Q580 1153 666 1153Q851 1153 935 1062T1019 784Q1019 662 976 596Q962 575 938 549T850
502T702 470Q573 454 347 454Q360 285 430 224Q483 176 614 176Q737 176 859 197L862 249Q863 261 867 265T884 272L1028 304Q1050 304 1053 285Q1056 268 1059 219T1065 133T1070 64L1074 8Q1075 -17 1075 -34Q1075 -64 1031 -69L865 -89Q843 -89 843 -67L847
6ZM780 684T785 714T791 786T784 860T758 915Q719 963 631 963Q461 963 404 877Q350 797 344 601Q693 606 754 661Q780 684 785 714ZM520 1745Q542 1767 562 1770L663 1780Q686 1780 710 1750L1008 1369Q1013 1362 1013 1353T1005 1335L938 1267Q932 1261 925 1261T914
1265L604 1545L305 1268Q297 1262 290 1262T275 1270L205 1342Q197 1350 197 1356T202 1368L520 1745Z" />
<glyph unicode="&#xeb;" glyph-name="edieresis" horiz-adv-x="1196" d="M847 6Q719 -26 522 -26Q321 -26 230 98Q135 227 135 507Q135 801 216 946Q308 1106 510 1141Q580 1153 666 1153Q851 1153 935 1062T1019 784Q1019 662 976 596Q962 575 938 549T850 502T702
470Q573 454 347 454Q360 285 430 224Q483 176 614 176Q737 176 859 197L862 249Q863 261 867 265T884 272L1028 304Q1050 304 1053 285Q1056 268 1059 219T1065 133T1070 64L1074 8Q1075 -17 1075 -34Q1075 -64 1031 -69L865 -89Q843 -89 843 -67L847 6ZM780 684T785
714T791 786T784 860T758 915Q719 963 631 963Q461 963 404 877Q350 797 344 601Q693 606 754 661Q780 684 785 714ZM462 1347T430 1342T356 1337T290 1343T252 1364Q225 1391 225 1448T231 1532T256 1574Q287 1600 356 1600T448 1595T486 1576Q514 1551 514 1492T507
1405T481 1362ZM933 1347T901 1342T827 1337T761 1343T723 1364Q696 1391 696 1448T702 1532T727 1574Q758 1600 827 1600T919 1595T958 1576Q985 1551 985 1492T978 1405T952 1362Z" />
<glyph unicode="&#xec;" glyph-name="igrave" horiz-adv-x="683" d="M150 -14Q136 -14 136 10V161Q136 180 152 180H272L280 879L118 896Q100 898 100 918L122 1083Q125 1101 146 1104L467 1137Q478 1137 481 1132T485 1114L498 932L495 180H609Q625 180 625 161L607
30Q605 18 601 15T583 10L150 -14ZM166 1799Q175 1810 187 1810T209 1799L592 1379Q597 1372 597 1364T589 1345L522 1277Q516 1271 509 1271Q502 1271 498 1275L36 1615Q28 1622 28 1632T33 1649L166 1799Z" />
<glyph unicode="&#xed;" glyph-name="iacute" horiz-adv-x="683" d="M150 -14Q136 -14 136 10V161Q136 180 152 180H272L280 879L118 896Q100 898 100 918L122 1083Q125 1101 146 1104L467 1137Q478 1137 481 1132T485 1114L498 932L495 180H609Q625 180 625 161L607
30Q605 18 601 15T583 10L150 -14ZM682 1649Q687 1642 687 1632T679 1615L217 1275Q211 1271 205 1271T193 1277L126 1345Q118 1355 118 1363T123 1379L506 1799Q515 1810 527 1810T549 1799L682 1649Z" />
<glyph unicode="&#xee;" glyph-name="icircumflex" horiz-adv-x="683" d="M150 -14Q136 -14 136 10V161Q136 180 152 180H272L280 879L118 896Q100 898 100 918L122 1083Q125 1101 146 1104L467 1137Q478 1137 481 1132T485 1114L498 932L495 180H609Q625 180
625 161L607 30Q605 18 601 15T583 10L150 -14ZM277 1745Q299 1767 319 1770L420 1780Q443 1780 467 1750L765 1369Q770 1362 770 1353T762 1335L695 1267Q689 1261 682 1261T671 1265L361 1545L62 1268Q54 1262 47 1262T32 1270L-38 1342Q-46 1350 -46 1356T-41
1368L277 1745Z" />
<glyph unicode="&#xef;" glyph-name="idieresis" horiz-adv-x="683" d="M150 -14Q136 -14 136 10V161Q136 180 152 180H272L280 879L118 896Q100 898 100 918L122 1083Q125 1101 146 1104L467 1137Q478 1137 481 1132T485 1114L498 932L495 180H609Q625 180 625
161L607 30Q605 18 601 15T583 10L150 -14ZM219 1347T187 1342T113 1337T47 1343T9 1364Q-18 1391 -18 1448T-12 1532T13 1574Q44 1600 113 1600T205 1595T244 1576Q271 1551 271 1492T264 1405T238 1362ZM690 1347T658 1342T584 1337T518 1343T480 1364Q453 1391
453 1448T459 1532T484 1574Q515 1600 584 1600T676 1595T714 1576Q742 1551 742 1492T735 1405T709 1362Z" />
<glyph unicode="&#xf0;" glyph-name="eth" horiz-adv-x="1194" d="M849 1417Q1069 1209 1069 678Q1069 135 792 18Q701 -21 593 -21T401 8T254 102Q121 237 121 501Q121 743 250 866Q362 971 536 971Q707 971 841 917Q807 1147 706 1251L575 1087Q568 1079 559
1079Q550 1079 544 1084L443 1158Q435 1163 435 1171T440 1186L563 1336Q503 1353 453 1353Q384 1353 340 1347T282 1340Q269 1340 269 1354L281 1498Q283 1515 303 1518T348 1525T399 1532Q458 1537 537 1537T692 1511L800 1670Q807 1680 820 1680Q833 1680 843
1670L955 1567Q961 1561 961 1552T952 1532L849 1417ZM859 577Q859 686 857 738Q719 780 564 780Q399 780 346 618Q327 557 327 481T343 352T392 262Q457 183 576 183Q728 183 791 274Q859 372 859 577Z" />
<glyph unicode="&#xf1;" glyph-name="ntilde" horiz-adv-x="1370" d="M792 903Q665 903 502 799L514 200L623 212Q640 212 640 195L621 40Q617 18 599 18H182Q166 18 166 42L186 195Q190 216 208 216H293V877L140 881Q120 881 120 905L138 1078Q140 1095 162 1099L439
1140Q457 1140 457 1117V944Q663 1150 862 1150Q1090 1150 1134 933Q1148 861 1148 799T1147 694T1144 600L1142 496Q1140 441 1138 386L1134 280Q1132 229 1130 186L1245 191Q1266 191 1266 167V20Q1266 8 1261 5T1243 0L953 -22Q931 -22 931 0Q934 109 934 205L936
372Q936 443 936 505V688Q936 812 915 846T866 892T792 903ZM296 1462Q296 1477 345 1520T426 1585Q498 1632 538 1632T614 1614T684 1575Q777 1520 809 1520T867 1527T917 1544T962 1567L997 1588Q1018 1601 1028 1601T1045 1582L1078 1504Q1080 1499 1080 1492Q1080
1483 1063 1465L1017 1418Q907 1310 818 1310Q772 1310 675 1364Q578 1418 545 1418Q496 1418 446 1392Q366 1351 354 1351Q335 1351 328 1371L296 1462Z" />
<glyph unicode="&#xf2;" glyph-name="ograve" horiz-adv-x="1194" d="M123 562Q123 733 151 846T236 1028Q340 1151 575 1151Q739 1151 814 1118T933 1043T1008 935Q1070 800 1070 596T1042 280T956 102Q850 -20 613 -20Q365 -20 252 100Q123 236 123 562ZM834
291T849 363T864 539T853 707T823 813T776 880T717 917Q669 935 590 935T464 923T386 872Q327 796 327 566Q327 239 503 197Q557 184 620 184T728 197T804 251ZM400 1799Q409 1810 421 1810T443 1799L826 1379Q831 1372 831 1364T823 1345L756 1277Q750 1271 743
1271Q736 1271 732 1275L270 1615Q262 1622 262 1632T267 1649L400 1799Z" />
<glyph unicode="&#xf3;" glyph-name="oacute" horiz-adv-x="1194" d="M123 562Q123 733 151 846T236 1028Q340 1151 575 1151Q739 1151 814 1118T933 1043T1008 935Q1070 800 1070 596T1042 280T956 102Q850 -20 613 -20Q365 -20 252 100Q123 236 123 562ZM834
291T849 363T864 539T853 707T823 813T776 880T717 917Q669 935 590 935T464 923T386 872Q327 796 327 566Q327 239 503 197Q557 184 620 184T728 197T804 251ZM916 1649Q921 1642 921 1632T913 1615L451 1275Q445 1271 439 1271T427 1277L360 1345Q352 1355 352
1363T357 1379L740 1799Q749 1810 761 1810T783 1799L916 1649Z" />
<glyph unicode="&#xf4;" glyph-name="ocircumflex" horiz-adv-x="1194" d="M123 562Q123 733 151 846T236 1028Q340 1151 575 1151Q739 1151 814 1118T933 1043T1008 935Q1070 800 1070 596T1042 280T956 102Q850 -20 613 -20Q365 -20 252 100Q123 236 123 562ZM834
291T849 363T864 539T853 707T823 813T776 880T717 917Q669 935 590 935T464 923T386 872Q327 796 327 566Q327 239 503 197Q557 184 620 184T728 197T804 251ZM511 1745Q533 1767 553 1770L654 1780Q677 1780 701 1750L999 1369Q1004 1362 1004 1353T996 1335L929
1267Q923 1261 916 1261T905 1265L595 1545L296 1268Q288 1262 281 1262T266 1270L196 1342Q188 1350 188 1356T193 1368L511 1745Z" />
<glyph unicode="&#xf5;" glyph-name="otilde" horiz-adv-x="1194" d="M123 562Q123 733 151 846T236 1028Q340 1151 575 1151Q739 1151 814 1118T933 1043T1008 935Q1070 800 1070 596T1042 280T956 102Q850 -20 613 -20Q365 -20 252 100Q123 236 123 562ZM834
291T849 363T864 539T853 707T823 813T776 880T717 917Q669 935 590 935T464 923T386 872Q327 796 327 566Q327 239 503 197Q557 184 620 184T728 197T804 251ZM204 1462Q204 1477 253 1520T334 1585Q406 1632 446 1632T522 1614T592 1575Q685 1520 717 1520T775
1527T825 1544T870 1567L905 1588Q926 1601 936 1601T953 1582L986 1504Q988 1499 988 1492Q988 1483 971 1465L925 1418Q815 1310 726 1310Q680 1310 583 1364Q486 1418 453 1418Q404 1418 354 1392Q274 1351 262 1351Q243 1351 236 1371L204 1462Z" />
<glyph unicode="&#xf6;" glyph-name="odieresis" horiz-adv-x="1194" d="M123 562Q123 733 151 846T236 1028Q340 1151 575 1151Q739 1151 814 1118T933 1043T1008 935Q1070 800 1070 596T1042 280T956 102Q850 -20 613 -20Q365 -20 252 100Q123 236 123 562ZM834
291T849 363T864 539T853 707T823 813T776 880T717 917Q669 935 590 935T464 923T386 872Q327 796 327 566Q327 239 503 197Q557 184 620 184T728 197T804 251ZM453 1347T421 1342T347 1337T281 1343T243 1364Q216 1391 216 1448T222 1532T247 1574Q278 1600 347
1600T439 1595T478 1576Q505 1551 505 1492T498 1405T472 1362ZM924 1347T892 1342T818 1337T752 1343T714 1364Q687 1391 687 1448T693 1532T718 1574Q749 1600 818 1600T910 1595T948 1576Q976 1551 976 1492T969 1405T943 1362Z" />
<glyph unicode="&#xf7;" glyph-name="divide" horiz-adv-x="1194" d="M1011 512Q1011 488 997 488L584 500L214 492Q201 493 196 496T190 512L182 663Q182 680 198 682L602 667L995 672Q1009 672 1011 653V512ZM743 975T747 948T752 898T737 855T696 823Q644 797
594 797T525 812T494 852Q472 895 472 939T491 1003T540 1034Q589 1053 637 1053T703 1038T732 999ZM743 295T747 268T752 218T737 175T696 143Q644 117 594 117T525 132T494 172Q472 215 472 259T491 323T540 354Q589 373 637 373T703 358T732 319Z" />
<glyph unicode="&#xf8;" glyph-name="oslash" horiz-adv-x="1194" d="M299 59Q123 182 123 561Q123 892 236 1028Q340 1151 575 1151Q674 1151 740 1137L813 1326Q819 1343 827 1343T840 1342L939 1299Q954 1293 954 1285T952 1271L873 1089Q1070 969 1070 557Q1070
235 956 102Q850 -20 613 -20Q513 -20 436 -1L354 -223Q349 -237 340 -237T326 -236L219 -189Q203 -183 203 -173T204 -161L299 59ZM509 195Q557 184 620 184T728 197T804 251Q864 331 864 551Q864 792 781 875L641 551L509 195ZM660 931Q620 935 566 935T464 923T386
872Q327 796 327 566Q327 360 391 273L534 603L660 931Z" />
<glyph unicode="&#xf9;" glyph-name="ugrave" horiz-adv-x="1195" d="M996 1100Q1012 1100 1012 1076L1022 232L1156 237Q1176 236 1176 213L1158 30Q1157 9 1134 9H887Q856 9 846 47L822 148Q657 6 446 6Q151 6 151 383Q151 514 166 675L186 901L58 897Q37 897
37 921L57 1098Q59 1110 63 1113T80 1118L398 1110Q412 1110 412 1088Q407 1040 402 980Q360 529 360 423T400 270T544 222T809 324V899L684 906Q670 908 667 923L686 1088Q690 1110 708 1110L996 1100ZM390 1799Q399 1810 411 1810T433 1799L816 1379Q821 1372
821 1364T813 1345L746 1277Q740 1271 733 1271Q726 1271 722 1275L260 1615Q252 1622 252 1632T257 1649L390 1799Z" />
<glyph unicode="&#xfa;" glyph-name="uacute" horiz-adv-x="1195" d="M996 1100Q1012 1100 1012 1076L1022 232L1156 237Q1176 236 1176 213L1158 30Q1157 9 1134 9H887Q856 9 846 47L822 148Q657 6 446 6Q151 6 151 383Q151 514 166 675L186 901L58 897Q37 897
37 921L57 1098Q59 1110 63 1113T80 1118L398 1110Q412 1110 412 1088Q407 1040 402 980Q360 529 360 423T400 270T544 222T809 324V899L684 906Q670 908 667 923L686 1088Q690 1110 708 1110L996 1100ZM906 1649Q911 1642 911 1632T903 1615L441 1275Q435 1271
429 1271T417 1277L350 1345Q342 1355 342 1363T347 1379L730 1799Q739 1810 751 1810T773 1799L906 1649Z" />
<glyph unicode="&#xfb;" glyph-name="ucircumflex" horiz-adv-x="1195" d="M996 1100Q1012 1100 1012 1076L1022 232L1156 237Q1176 236 1176 213L1158 30Q1157 9 1134 9H887Q856 9 846 47L822 148Q657 6 446 6Q151 6 151 383Q151 514 166 675L186 901L58 897Q37
897 37 921L57 1098Q59 1110 63 1113T80 1118L398 1110Q412 1110 412 1088Q407 1040 402 980Q360 529 360 423T400 270T544 222T809 324V899L684 906Q670 908 667 923L686 1088Q690 1110 708 1110L996 1100ZM501 1745Q523 1767 543 1770L644 1780Q667 1780 691
1750L989 1369Q994 1362 994 1353T986 1335L919 1267Q913 1261 906 1261T895 1265L585 1545L286 1268Q278 1262 271 1262T256 1270L186 1342Q178 1350 178 1356T183 1368L501 1745Z" />
<glyph unicode="&#xfc;" glyph-name="udieresis" horiz-adv-x="1195" d="M996 1100Q1012 1100 1012 1076L1022 232L1156 237Q1176 236 1176 213L1158 30Q1157 9 1134 9H887Q856 9 846 47L822 148Q657 6 446 6Q151 6 151 383Q151 514 166 675L186 901L58 897Q37
897 37 921L57 1098Q59 1110 63 1113T80 1118L398 1110Q412 1110 412 1088Q407 1040 402 980Q360 529 360 423T400 270T544 222T809 324V899L684 906Q670 908 667 923L686 1088Q690 1110 708 1110L996 1100ZM443 1347T411 1342T337 1337T271 1343T233 1364Q206
1391 206 1448T212 1532T237 1574Q268 1600 337 1600T429 1595T468 1576Q495 1551 495 1492T488 1405T462 1362ZM914 1347T882 1342T808 1337T742 1343T704 1364Q677 1391 677 1448T683 1532T708 1574Q739 1600 808 1600T900 1595T938 1576Q966 1551 966 1492T959
1405T933 1362Z" />
<glyph unicode="&#xfd;" glyph-name="yacute" horiz-adv-x="1197" d="M16 1100Q16 1120 39 1120L493 1130Q511 1130 511 1108L516 938Q514 925 510 921T494 917L363 914L623 179L859 919L722 906Q706 906 705 923L714 1108Q715 1130 736 1130L1173 1140Q1189 1139
1189 1116L1179 943Q1177 922 1157 922L1069 930L587 -430Q579 -454 563 -454L365 -400Q343 -397 343 -380Q343 -373 347 -366L566 53L480 50Q467 50 458 68L122 909L27 907Q6 907 6 931L16 1100ZM946 1649Q951 1642 951 1632T943 1615L481 1275Q475 1271 469 1271T457
1277L390 1345Q382 1355 382 1363T387 1379L770 1799Q779 1810 791 1810T813 1799L946 1649Z" />
<glyph unicode="&#xfe;" glyph-name="thorn" horiz-adv-x="1195" d="M379 1595Q397 1595 397 1572L381 1089L440 1110Q562 1151 669 1151T858 1115T990 1006Q1080 874 1080 574T979 133T670 -9Q512 -9 374 44L388 -267L576 -260Q597 -262 597 -281L587 -428Q585
-448 564 -448L98 -458Q80 -458 78 -434L70 -269Q72 -256 76 -253T92 -248L181 -258V1385L35 1377Q16 1378 15 1396L3 1551Q7 1569 26 1571L379 1595ZM836 313T850 385T864 564T854 740T818 854Q768 935 627 935Q510 935 375 894L362 627L367 224Q493 192 587 192T728
209T806 270Z" />
<glyph unicode="&#xff;" glyph-name="ydieresis" horiz-adv-x="1197" d="M16 1100Q16 1120 39 1120L493 1130Q511 1130 511 1108L516 938Q514 925 510 921T494 917L363 914L623 179L859 919L722 906Q706 906 705 923L714 1108Q715 1130 736 1130L1173 1140Q1189
1139 1189 1116L1179 943Q1177 922 1157 922L1069 930L587 -430Q579 -454 563 -454L365 -400Q343 -397 343 -380Q343 -373 347 -366L566 53L480 50Q467 50 458 68L122 909L27 907Q6 907 6 931L16 1100ZM483 1347T451 1342T377 1337T311 1343T273 1364Q246 1391
246 1448T252 1532T277 1574Q308 1600 377 1600T469 1595T508 1576Q535 1551 535 1492T528 1405T502 1362ZM954 1347T922 1342T848 1337T782 1343T744 1364Q717 1391 717 1448T723 1532T748 1574Q779 1600 848 1600T940 1595T978 1576Q1006 1551 1006 1492T999
1405T973 1362Z" />
<glyph unicode="&#x2013;" glyph-name="endash" horiz-adv-x="1193" d="M1111 697Q1111 678 1098 678L104 688Q87 688 87 707L82 848Q82 872 109 872L611 860L1091 868Q1107 866 1107 848L1111 697Z" />
<glyph unicode="&#x2014;" glyph-name="emdash" horiz-adv-x="2223" d="M98 678Q82 680 82 697L90 848Q91 860 96 863T114 868L2122 872Q2141 872 2141 848L2131 707Q2129 688 2115 688L98 678Z" />
<glyph unicode="&#x2018;" glyph-name="quoteleft" horiz-adv-x="512" d="M356 1729Q341 1626 341 1564T346 1469T360 1408T379 1357L397 1316Q409 1289 409 1271T393 1237T351 1210Q299 1187 240 1187Q133 1187 133 1346Q133 1531 239 1751L356 1729Z" />
<glyph unicode="&#x2019;" glyph-name="quoteright" horiz-adv-x="512" d="M156 1209Q171 1312 171 1374T166 1469T152 1530T133 1581L115 1622Q103 1649 103 1667T119 1701T161 1728Q213 1751 272 1751Q379 1751 379 1592Q379 1407 273 1187L156 1209Z" />
<glyph unicode="&#x201a;" glyph-name="quotesinglbase" horiz-adv-x="512" d="M156 -291Q171 -188 171 -126T166 -31T152 30T133 81L115 122Q103 149 103 167T119 201T161 228Q213 251 272 251Q379 251 379 92Q379 -93 273 -313L156 -291Z" />
<glyph unicode="&#x201c;" glyph-name="quotedblleft" horiz-adv-x="1024" d="M377 1729Q362 1626 362 1564T367 1469T381 1408T400 1357L418 1316Q430 1289 430 1271T414 1237T372 1210Q320 1187 261 1187Q154 1187 154 1346Q154 1531 260 1751L377 1729ZM847
1729Q832 1626 832 1564T837 1469T851 1408T870 1357L888 1316Q900 1289 900 1271T884 1237T842 1210Q790 1187 731 1187Q624 1187 624 1346Q624 1531 730 1751L847 1729Z" />
<glyph unicode="&#x201d;" glyph-name="quotedblright" horiz-adv-x="1024" d="M177 1209Q192 1312 192 1374T187 1469T173 1530T154 1581L136 1622Q124 1649 124 1667T140 1701T182 1728Q234 1751 293 1751Q400 1751 400 1592Q400 1407 294 1187L177 1209ZM647
1209Q662 1312 662 1374T657 1469T643 1530T624 1581L606 1622Q594 1649 594 1667T610 1701T652 1728Q704 1751 763 1751Q870 1751 870 1592Q870 1407 764 1187L647 1209Z" />
<glyph unicode="&#x201e;" glyph-name="quotedblbase" horiz-adv-x="1020" d="M177 -291Q192 -188 192 -126T187 -31T173 30T154 81L136 122Q124 149 124 167T140 201T182 228Q234 251 293 251Q400 251 400 92Q400 -93 294 -313L177 -291ZM647 -291Q662 -188 662
-126T657 -31T643 30T624 81L606 122Q594 149 594 167T610 201T652 228Q704 251 763 251Q870 251 870 92Q870 -93 764 -313L647 -291Z" />
<glyph unicode="&#x2022;" glyph-name="bullet" horiz-adv-x="686" d="M544 578T522 551T462 506Q387 469 282 469Q212 469 172 547Q142 608 142 670T170 761T239 805Q311 833 409 833Q478 833 514 755Q544 692 544 635Z" />
<glyph unicode="&#x2039;" glyph-name="guilsinglleft" horiz-adv-x="854" d="M95 506Q95 506 78 523Q70 532 70 541L80 617Q83 634 97 648L644 1155Q649 1160 659 1160T678 1152L746 1085Q752 1079 752 1072Q752 1065 748 1061L333 577L755 104Q761 96 761 89T753
74L681 4Q673 -4 667 -4T655 1L95 506Z" />
<glyph unicode="&#x203a;" glyph-name="guilsinglright" horiz-adv-x="852" d="M197 1Q192 -4 186 -4T171 4L99 74Q91 82 91 89T97 104L519 577L104 1061Q100 1065 100 1072Q100 1079 106 1085L174 1152Q182 1160 192 1160T208 1155L755 648Q769 634 772 617L782
541Q782 532 774 523L757 506L197 1Z" />
</font>
</defs>
</svg>
