<?xml version="1.0" standalone="no"?>
<!DOCTYPE svg PUBLIC "-//W3C//DTD SVG 1.1//EN" "http://www.w3.org/Graphics/SVG/1.1/DTD/svg11.dtd">
<svg xmlns="http://www.w3.org/2000/svg">
<defs >
<font id="Marvel" horiz-adv-x="407" ><font-face
    font-family="Marvel"
    units-per-em="1000"
    panose-1="2 0 0 0 0 0 0 0 0 0"
    ascent="951"
    descent="-259"
    alphabetic="0" />
<glyph unicode=" " glyph-name="space" horiz-adv-x="210" />
<glyph unicode="!" glyph-name="exclam" horiz-adv-x="191" d="M70 141V700H122V141H70ZM69 1V91H122V1H69Z" />
<glyph unicode="&quot;" glyph-name="quotedbl" horiz-adv-x="312" d="M269 648Q269 592 246 558T185 508L168 568Q185 576 198 594T211 649V700H269V648ZM138 648Q138 592 115 558T54 508L37 568Q54 576 67 594T80 649V700H138V648Z" />
<glyph unicode="$" glyph-name="dollar" horiz-adv-x="471" d="M204 764H259V695Q270 693 281 690T300 683L385 648L366 592Q355 597 338 605T302 621T265 634T231 640Q204 640 181 629T142 599T116 555T106 503Q106 472 117 449T147 410T190 387T240 379Q280
379 315 366T376 328T417 270T432 196Q432 157 419 123T383 62T328 20T259 0V-73H204V3Q180 11 156 20T110 37T73 53T47 65L67 120Q118 97 148 85T196 66T223 59T242 57Q270 57 294 67T336 96T364 139T374 194Q374 225 362 248T331 286T288 309T240 317Q200 317
165 330T104 368T62 426T47 500Q47 537 59 570T92 629T142 672T204 696V764Z" />
<glyph unicode="&amp;" glyph-name="ampersand" horiz-adv-x="599" d="M416 129L217 342L162 310Q127 289 107 261T86 192Q86 159 98 132T132 85T181 56T241 45Q301 45 343 67T416 129ZM484 359H532Q532 331 530 300T522 239T506 180T481 129L591 0H527L454 89Q416
44 362 18T241 -9Q197 -9 159 5T93 45T48 108T31 191Q31 245 56 283T128 348L184 381L132 439Q106 468 95 495T83 556Q83 589 95 618T130 668T183 701T250 714Q285 714 316 703T370 672T406 622T420 556Q420 505 397 472T333 414L259 370L447 167Q469 206 476 253T484
359ZM369 556Q369 607 335 636T250 666Q227 666 206 658T170 636T145 602T136 556Q136 543 140 531T154 503T182 464T228 407L307 456Q336 474 352 499T369 556ZM527 0L454 89L527 0Z" />
<glyph unicode="&apos;" glyph-name="quotesingle" horiz-adv-x="181" d="M138 648Q138 592 115 558T54 508L37 568Q54 576 67 594T80 649V700H138V648V648Z" />
<glyph unicode="(" glyph-name="parenleft" horiz-adv-x="231" d="M61 82V619Q61 654 70 679T95 719T132 742T179 750H197V696H184Q155 696 135 681T114 624V77Q114 36 134 21T184 5H197V-49H179Q154 -49 133 -42T95 -19T70 22T61 82Z" />
<glyph unicode=")" glyph-name="parenright" horiz-adv-x="231" d="M169 81Q169 46 160 21T135 -19T98 -42T51 -50H33V4H46Q74 4 95 19T116 76L117 624Q117 665 96 680T47 696H34V750H52Q77 750 98 743T136 720T161 679T170 619L169 81V81Z" />
<glyph unicode="*" glyph-name="asterisk" horiz-adv-x="398" d="M326 224L217 289L221 163H177L180 289L73 224L51 262L161 322L51 382L73 419L180 355L177 481H221L217 355L326 419L347 382L237 322L347 262L326 224Z" />
<glyph unicode="+" glyph-name="plus" horiz-adv-x="429" d="M384 235H247V98H182V235H45V300H182V437H247V300H384V235Z" />
<glyph unicode="," glyph-name="comma" horiz-adv-x="171" d="M116 48Q116 -8 93 -42T32 -92L15 -32Q32 -24 45 -6T58 49V100H116V48V48Z" />
<glyph unicode="-" glyph-name="hyphen" horiz-adv-x="362" d="M61 323V387H301V323H61Z" />
<glyph unicode="." glyph-name="period" horiz-adv-x="181" d="M56 5V93H125V5H56Z" />
<glyph unicode="/" glyph-name="slash" horiz-adv-x="258" d="M150 699H210L109 1H49L150 699Z" />
<glyph unicode="0" glyph-name="zero" horiz-adv-x="436" d="M202 44H234Q268 44 292 69T316 131V518Q316 558 288 579T223 601Q202 601 184 597T151 583T129 558T120 518V131Q120 95 143 70T202 44ZM367 518V128Q367 99 357 74T328 31T286 2T234 -9H201Q173 -9
149 1T107 30T79 74T69 128V518Q69 547 79 572T108 615T150 644T202 655H235Q262 655 286 645T328 616T356 572T367 518Z" />
<glyph unicode="1" glyph-name="one" horiz-adv-x="210" d="M78 623L131 650V1H78V623Z" />
<glyph unicode="2" glyph-name="two" horiz-adv-x="397" d="M260 366Q277 389 283 413T290 466Q289 493 281 517T258 560T224 590T179 601Q174 601 168 600T148 594T113 581T57 558L34 610L110 641Q125 647 145 651T181 656Q216 656 246 641T297 601T331 542T344
469Q344 434 338 405T307 344Q280 297 248 246T187 153Q154 103 121 56H342V0H64V65L260 366Z" />
<glyph unicode="3" glyph-name="three" horiz-adv-x="413" d="M46 610L117 639Q132 646 156 651T194 656Q230 655 259 641T308 603T340 546T351 474Q351 433 337 402T285 336Q308 319 321 300T340 260T348 218T350 176Q350 137 338 104T304 45T252 5T187 -10Q172
-9 152 -5T116 5L47 32L61 86L143 51Q153 47 164 44T185 41Q210 41 230 52T266 83T290 128T300 180Q300 207 294 231T274 273T240 303T190 314H133V363H191Q250 363 274 396T300 483Q299 510 289 532T263 569T228 593T191 602Q181 602 166 600T141 592L68 559L46
610Z" />
<glyph unicode="4" glyph-name="four" horiz-adv-x="393" d="M285 0V195H32V254L183 650H238L90 249H285V363H338V0H285Z" />
<glyph unicode="5" glyph-name="five" horiz-adv-x="426" d="M379 195Q379 153 369 117T339 52T289 8T220 -8Q200 -8 173 -2T120 11T78 24T61 31L79 88Q104 77 129 69Q150 62 174 57T218 51Q246 51 265 62T298 94T317 140T323 195V224Q323 253 317 279T298 324T265
355T217 367H63V650H323V598H122V421H218Q258 421 288 406T338 365T368 302T379 224V195V195Z" />
<glyph unicode="6" glyph-name="six" horiz-adv-x="419" d="M234 362H202Q168 362 144 337T120 275V126Q120 83 149 63T219 42Q238 42 255 46T286 61T308 87T316 126V275Q316 311 292 336T234 362ZM234 -7H201Q174 -7 150 3T108 32T80 76T69 130V504Q69 537 81
565T114 613T163 645T224 656Q229 656 244 653T276 646Q295 642 318 636L304 589Q285 594 268 598Q254 601 241 604T224 607Q181 607 150 579T118 504V385Q130 395 147 400T181 409T212 412T234 413Q262 413 286 402T328 372T356 327T367 272V130Q367 101 357 76T328
33T286 4T234 -7Z" />
<glyph unicode="7" glyph-name="seven" horiz-adv-x="360" d="M34 650H326V585L141 0H84L271 599H34V650Z" />
<glyph unicode="8" glyph-name="eight" horiz-adv-x="433" d="M201 39H233Q268 39 292 65T316 128V204Q316 225 308 241T285 267T253 283T215 288Q176 288 147 268T118 204V128Q118 91 142 65T201 39ZM201 355H233Q268 355 292 381T316 444V522Q316 562 288 584T222
606Q201 606 183 602T150 588T127 562T118 522V444Q118 407 142 381T201 355ZM134 323Q104 340 86 371T67 441V527Q67 563 80 587T114 627T164 648T224 655Q252 655 278 646T323 621T354 581T366 527V441Q366 402 347 371T297 322Q328 306 347 278T366 210V125Q366
98 357 74T330 31T290 2T241 -9H193Q167 -9 144 1T104 30T77 73T67 125V210Q67 248 85 278T134 323Z" />
<glyph unicode="9" glyph-name="nine" horiz-adv-x="426" d="M192 299H224Q258 299 282 324T306 386V523Q306 563 278 584T213 606Q192 606 174 602T141 588T119 563T110 523V386Q110 350 133 325T192 299ZM192 656H225Q252 656 276 646T318 617T346 573T357 519V141Q357
108 345 80T311 32T262 0T202 -11Q197 -11 175 -6T126 5Q96 12 60 21L74 68Q107 59 134 53Q157 47 177 43T202 38Q245 38 276 66T308 141V276Q298 267 282 262T249 253T217 249T192 248Q164 248 140 259T98 289T70 334T59 389V519Q59 548 69 573T98 616T140 645T192
656Z" />
<glyph unicode=":" glyph-name="colon" horiz-adv-x="192" d="M131 321H62V411H131V321ZM130 1H61V89H130V1Z" />
<glyph unicode=";" glyph-name="semicolon" horiz-adv-x="216" d="M147 46Q147 -10 124 -44T63 -94L31 -36Q48 -28 63 -9T78 47V98H147V46ZM78 321V411H147V321H78Z" />
<glyph unicode="&lt;" glyph-name="less" horiz-adv-x="491" d="M419 225V171L53 260V345L419 430V375L253 339Q238 335 216 331T172 321Q147 316 121 310V290Q121 290 136 287T173 279T216 270T254 262L419 225Z" />
<glyph unicode="=" glyph-name="equal" horiz-adv-x="481" d="M69 370V434H412V370H69ZM69 175V239H412V175H69Z" />
<glyph unicode="&gt;" glyph-name="greater" horiz-adv-x="490" d="M237 267Q252 270 274 275T318 284T354 291T370 295V315Q344 321 319 326Q298 331 276 335T238 344L72 380V435L438 350V265L72 176V230L237 267Z" />
<glyph unicode="?" glyph-name="question" horiz-adv-x="425" d="M196 0V90H127V0H196ZM386 539Q386 507 377 484T356 444L213 229Q203 215 196 200T189 161V140H131V160Q131 195 139 218T160 258L296 462Q307 479 318 499T329 538Q329 564 316 585T284 620T242
643T201 651Q189 651 177 648T152 640L54 603L35 657L119 692Q136 699 160 704T200 710Q236 710 270 698T329 663T370 609T386 539Z" />
<glyph unicode="@" glyph-name="at" horiz-adv-x="863" d="M823 401Q823 354 812 306T777 219T718 155T632 130Q598 130 573 152T542 209Q533 192 519 178T487 153T451 138T412 132Q374 132 345 146T296 185T266 241T256 308Q256 349 268 388T304 458T362 507T442
526Q477 526 507 510T552 460L565 517H602L582 253V244Q582 212 596 193T637 173Q671 173 697 192T741 244T767 318T776 401Q776 471 751 526T683 619T580 676T454 696Q371 696 305 669T192 592T120 475T94 326Q94 254 118 190T186 79T291 5T427 -23Q493 -23 556
-12T680 26V-21Q615 -49 555 -59T424 -69Q339 -69 269 -39T150 45T73 171T45 326Q45 418 74 494T156 626T285 711T454 742Q531 742 598 719T715 652T794 545T823 401ZM543 350Q543 376 538 400T519 442T486 472T435 483Q403 483 379 467T338 426T313 370T304 308Q304
280 311 256T331 213T365 185T414 174Q449 174 473 191T513 233T536 290T543 350Z" />
<glyph unicode="A" glyph-name="A" horiz-adv-x="459" d="M319 255L237 635H224L141 255H319V255ZM125 196L81 1H27L187 701H272L432 1H379L334 196H125V196Z" />
<glyph unicode="B" glyph-name="B" horiz-adv-x="473" d="M134 327V58H260Q290 58 310 68T342 97T359 139T364 190Q364 218 359 243T342 286T310 316T260 327H134ZM341 517Q340 544 332 568T313 608T291 632Q289 634 286 635Q285 635 285 636Q284 636 283 637Q278
640 268 646T232 652Q222 652 199 648T134 626V385H237Q267 385 287 395T319 424T336 466T341 517ZM240 710Q276 710 293 701T315 689Q338 675 358 651T390 592T402 521Q402 476 391 433T338 355Q365 337 381 318T407 278T419 236T423 190Q423 151 413 117T391
66T373 44Q355 26 329 13T260 0H78V671Q116 686 144 694T185 704Q214 710 240 710Z" />
<glyph unicode="C" glyph-name="C" horiz-adv-x="437" d="M121 188Q121 156 132 130T161 86T203 58T253 46Q261 46 269 47T291 54T326 67T383 90L405 33L324 4Q307 -2 287 -6T253 -10Q215 -10 182 3T123 42T82 102T67 183V193V506Q67 548 81 584T114 640Q132 660
143 669T166 686Q176 691 196 700T255 710Q269 710 289 705T325 695L403 664L385 612L298 646Q288 650 277 653T256 656Q229 656 205 644T163 610T134 562T123 506L121 188Z" />
<glyph unicode="D" glyph-name="D" horiz-adv-x="477" d="M73 671Q133 696 173 703T228 710Q267 710 300 694T358 650T396 585T410 507V185Q410 143 394 108T352 46T290 5T217 -10Q209 -10 199 -9T171 -5T130 6T73 27V671ZM350 507Q350 552 330 585T284 635Q253
652 228 652Q205 652 178 642T129 623V73Q151 63 167 58T194 51T212 49T225 49Q250 49 273 61T313 93T341 139T352 194L350 507Z" />
<glyph unicode="E" glyph-name="E" horiz-adv-x="406" d="M361 700V643H136V381H312V323H136V59H363V1H79V700H361Z" />
<glyph unicode="F" glyph-name="F" horiz-adv-x="386" d="M360 700V643H135V380H311V323H135V0H78V700H360Z" />
<glyph unicode="G" glyph-name="G" horiz-adv-x="447" d="M124 509V177Q124 149 134 125T163 83T204 55T253 44Q263 44 281 48T338 72V261H394V36Q337 6 301 -2T250 -10Q210 -10 177 6T119 49T81 113T67 191V509Q71 603 121 656T252 710Q266 709 286 705T322 695L385
671L365 614L295 641Q270 651 252 651Q226 651 203 640T162 609T134 563T124 509Z" />
<glyph unicode="H" glyph-name="H" horiz-adv-x="515" d="M79 700H135V383H379V700H436V1H379V324H135V1H79V700V700Z" />
<glyph unicode="I" glyph-name="I" horiz-adv-x="208" d="M78 700H130V0H78V700Z" />
<glyph unicode="J" glyph-name="J" horiz-adv-x="306" d="M227 136Q227 94 223 66T205 21T169 -3T108 -10Q104 -10 92 -10T64 -8T36 -5T15 -1L26 58Q30 57 42 56T68 53T92 51T105 50Q118 50 130 52T151 63T165 87T171 129V700H227V136V136Z" />
<glyph unicode="K" glyph-name="K" horiz-adv-x="390" d="M303 0L162 319H134V0H78V700H134V379H161L305 698H367L214 348L365 0H303Z" />
<glyph unicode="L" glyph-name="L" horiz-adv-x="376" d="M78 700H135V56H357V0H78V700Z" />
<glyph unicode="M" glyph-name="M" horiz-adv-x="608" d="M311 265L443 700H530V0H476V582H463L346 206H259L143 582H131V0H78V700H165L295 265H311Z" />
<glyph unicode="N" glyph-name="N" horiz-adv-x="554" d="M476 700V0H379L141 582H129V0H78V700H150L411 69H424V700H476Z" />
<glyph unicode="O" glyph-name="O" horiz-adv-x="520" d="M397 172V523Q397 563 382 587T345 625T300 643T260 648Q244 648 221 643T175 625T138 587T122 522V171Q122 131 137 108T175 72T220 56T260 52Q276 52 299 56T344 72T381 108T397 172ZM452 172Q452 150
444 119T413 60T354 11T259 -9Q203 -9 166 11T108 59T77 119T68 172V522Q68 544 76 576T107 637T166 688T260 709Q316 709 353 688T412 638T443 577T452 523V172Z" />
<glyph unicode="P" glyph-name="P" horiz-adv-x="493" d="M243 652Q225 652 206 648T170 638Q151 632 132 625V344H243Q315 344 359 384T403 503Q403 581 359 616T243 652ZM251 710Q292 710 330 696T397 654T443 589T460 503Q460 455 444 415T400 347T334 302T250
286H131V0H78V671Q104 681 133 690Q158 698 188 704T251 710Z" />
<glyph unicode="Q" glyph-name="Q" horiz-adv-x="520" d="M395 521Q395 561 380 586T344 625T299 645T260 651Q244 651 221 646T177 626T140 587T124 522V171Q124 131 139 108T176 72T221 56T260 52Q276 52 299 55T343 71T380 107T395 171V521ZM452 171Q452 151
445 124T422 71T377 24T306 -5Q316 -29 340 -40L323 -101Q294 -89 273 -67T243 -9Q192 -6 159 14T105 63T76 121T68 172V521Q68 543 76 575T107 637T166 688T260 709Q316 709 353 688T412 637T443 575T452 521V171Z" />
<glyph unicode="R" glyph-name="R" horiz-adv-x="503" d="M243 652Q225 652 206 648T170 639Q151 633 132 626V345H243Q315 345 359 388T403 510Q403 549 391 576T358 620T308 644T243 652ZM345 305L469 0H413L289 290Q271 287 250 287H131V0H78V671Q105 681 134
690Q159 698 189 704T251 710Q292 710 330 697T397 658T443 595T460 510Q460 476 452 444T429 384T393 337T345 305Z" />
<glyph unicode="S" glyph-name="S" horiz-adv-x="467" d="M440 205Q440 163 426 126T386 62T325 18T250 1Q211 1 174 11T108 33Q74 47 43 66L63 121Q97 103 130 90Q159 79 191 70T249 60Q277 60 301 71T344 101T372 147T382 203Q382 234 368 254T333 288T285 309T234
321Q197 327 165 342T108 381T69 437T55 509Q55 550 69 586T109 650T169 694T241 710Q265 710 290 705T338 693Q363 685 387 676L368 620Q346 629 323 636Q303 642 281 647T239 652Q212 652 189 641T148 610T121 565T111 512Q111 481 123 458T155 418T199 393T245
379Q286 372 321 359T383 326T425 275T440 205Z" />
<glyph unicode="T" glyph-name="T" horiz-adv-x="418" d="M399 700V646H239V0H185V646H19V700H399V700Z" />
<glyph unicode="U" glyph-name="U" horiz-adv-x="534" d="M267 43Q285 43 309 48T354 68T390 108T405 173V701H457V173Q457 144 448 113T418 55T359 11T267 -7Q212 -7 176 10T117 54T86 112T77 173V701H129V173Q129 133 143 108T177 69T222 49T267 43Z" />
<glyph unicode="V" glyph-name="V" horiz-adv-x="456" d="M375 700H431L269 0H184L27 700H82L221 66H234Q245 112 256 165Q266 210 278 266T305 383Q336 522 375 700Z" />
<glyph unicode="W" glyph-name="W" horiz-adv-x="609" d="M301 363L222 1H136L34 700H86L178 65H186L267 427H343L423 65H431L523 700H575L473 1H387L309 363H301Z" />
<glyph unicode="X" glyph-name="X" horiz-adv-x="452" d="M214 318L81 0H25L171 347L25 700H81L218 378H235L372 700H428L282 347L427 0H370L238 318H214Z" />
<glyph unicode="Y" glyph-name="Y" horiz-adv-x="433" d="M260 318H246V0H186V318H174L15 700H71L208 378H225L362 700H418L260 318Z" />
<glyph unicode="Z" glyph-name="Z" horiz-adv-x="453" d="M332 627V641H56V700H406V642L107 75V59H422V0H33V66L332 627Z" />
<glyph unicode="[" glyph-name="bracketleft" horiz-adv-x="237" d="M67 -84V777H206V728H117V-35H206V-84H67Z" />
<glyph unicode="\" glyph-name="backslash" horiz-adv-x="383" d="M300 -57L30 768H84L353 -57H300Z" />
<glyph unicode="]" glyph-name="bracketright" horiz-adv-x="237" d="M31 -85V-36H120V727H31V776H170V-85H31Z" />
<glyph unicode="_" glyph-name="underscore" horiz-adv-x="210" />
<glyph unicode="`" glyph-name="grave" horiz-adv-x="364" d="M206 589L100 736H161L258 589H206Z" />
<glyph unicode="a" glyph-name="a" horiz-adv-x="403" d="M294 243Q294 244 285 249T261 261T224 273T180 279Q163 279 148 272T121 253T104 226T97 192V129Q97 111 103 96T121 69T147 50T179 43Q194 43 213 48T251 61Q272 69 294 79V243ZM345 49L364 31L328 -5L301
22Q269 4 235 -3T180 -10Q152 -10 128 1T85 32T57 78T47 133V189Q47 218 57 243T85 288T127 318T180 329Q187 329 201 328T232 324T266 316T295 301V335Q295 358 287 380T264 421T231 450T190 461Q182 461 162 456T119 446Q93 440 63 432L49 479Q82 487 110 494Q134
500 157 505T190 510Q222 510 250 495T299 456T332 400T344 335L345 49Z" />
<glyph unicode="b" glyph-name="b" horiz-adv-x="418" d="M115 79Q118 70 133 64T166 53T203 46T230 43Q247 43 262 50T288 68T305 95T312 129V372Q312 408 288 433T229 459Q220 459 206 457T175 451T143 440T115 424V79ZM114 482Q154 503 183 506T229 510Q257
510 281 499T323 469T351 424T362 369V133Q362 104 352 78T323 33T281 3T229 -8Q207 -8 174 -2T107 23L80 -3L45 32L64 52V700H114V482Z" />
<glyph unicode="c" glyph-name="c" horiz-adv-x="345" d="M105 148Q105 124 113 105T137 71T171 50T213 42Q223 42 238 44T267 50Q284 54 302 59L318 13Q298 6 280 2Q264 -2 246 -5T213 -8Q180 -8 152 3T102 36T68 85T55 148V357Q55 391 67 419T101 468T150 499T212
511Q228 511 245 507T278 498Q296 493 313 486L301 443Q286 448 270 452Q256 456 241 459T212 462Q168 462 137 434T105 357V148Z" />
<glyph unicode="d" glyph-name="d" horiz-adv-x="419" d="M303 78V423Q268 446 237 452T189 458Q154 458 130 433T106 371V128Q106 110 112 95T130 68T156 49T188 42Q197 42 215 44T251 51T285 62T303 78ZM304 481V699H354V48L376 26L340 -9L310 21Q278 3 244
-3T189 -9Q161 -9 137 2T95 32T67 77T56 132V368Q56 397 66 422T95 467T137 498T189 509Q206 509 235 506T304 481Z" />
<glyph unicode="e" glyph-name="e" d="M225 241H227Q245 241 260 248T286 268T303 297T310 331V373Q310 397 301 413T278 440T244 454T203 459Q184 459 167 453T136 436T115 409T107 373V242L225 241ZM55 368Q55 398 65 424T94 469T137 499T191 510H225Q253 510
278 499T322 469T351 424T362 368V335Q362 293 347 265T306 218T246 193T172 185Q156 185 140 186T107 189V129Q114 89 144 66T214 42Q218 42 239 46T285 56Q313 62 347 70L359 17Q322 9 292 4Q266 -1 243 -5T214 -9Q182 -9 153 2T102 35T68 84T55 147V368Z" />
<glyph unicode="f" glyph-name="f" horiz-adv-x="285" d="M166 0H113V451H25V500H114V578Q114 613 123 638T147 678T184 701T231 709H249V655H236Q208 655 187 640T165 585V500H261V451H166V0Z" />
<glyph unicode="g" glyph-name="g" horiz-adv-x="419" d="M303 423Q300 432 285 438T252 449T215 456T188 459Q171 459 156 452T130 434T113 407T106 373V129Q106 93 130 68T189 42Q198 42 213 44T246 51T279 62T303 77V423ZM354 -117Q354 -154 342 -181T308 -225T259
-250T198 -259Q183 -259 159 -254T112 -243Q85 -236 56 -227L70 -180Q97 -189 123 -196Q144 -202 165 -206T198 -211Q241 -211 272 -188T304 -118V16Q269 -2 243 -5T200 -9H189Q161 -9 137 2T95 32T67 77T56 132V369Q56 398 66 424T95 469T137 499T189 510Q212
510 242 504T310 480L340 510L376 474L354 453V-117Z" />
<glyph unicode="h" glyph-name="h" horiz-adv-x="424" d="M312 0V372Q312 408 288 433T229 459Q220 459 207 458T178 452T146 441T115 424V0H64V700H114V482Q154 503 183 506T229 510Q257 510 281 499T323 469T351 424T362 369V0H312Z" />
<glyph unicode="i" glyph-name="i" horiz-adv-x="181" d="M64 700H117V622H64V700ZM64 500H117V0H64V500Z" />
<glyph unicode="j" glyph-name="j" horiz-adv-x="182" d="M63 501H118V-113Q118 -148 109 -173T84 -213T47 -236T0 -244H-18V-190H-5Q9 -190 22 -187T44 -175T60 -153T66 -118L63 501ZM63 699H118V625H63V699Z" />
<glyph unicode="k" glyph-name="k" horiz-adv-x="334" d="M255 0L148 239H115V0H64V700H115V300H147L254 499H311L188 268L312 0H255Z" />
<glyph unicode="l" glyph-name="l" horiz-adv-x="212" d="M70 700H122V127Q122 86 142 71T192 55H205V1H187Q162 1 141 8T104 31T79 72T70 132V700Z" />
<glyph unicode="m" glyph-name="m" horiz-adv-x="689" d="M320 376Q320 394 312 409T289 435T256 452T220 459Q211 459 197 456T167 448T139 437T116 424V0H65V452L43 474L79 509L109 478Q135 492 161 501T213 510Q258 510 296 491T349 432Q363 456 381 471T418
494T457 506T495 510Q531 510 556 497T598 464T621 419T628 370V0H576V363Q576 382 572 399T558 429T532 450T491 458Q428 458 400 423T372 323V0H320V376Z" />
<glyph unicode="n" glyph-name="n" horiz-adv-x="432" d="M356 427Q368 402 370 377T372 324V0H319V355Q319 406 292 433T231 460Q212 460 183 454T116 424V0H65V451L43 472L79 508L109 478Q164 509 213 509Q258 509 297 491T356 427Z" />
<glyph unicode="o" glyph-name="o" horiz-adv-x="418" d="M316 144V361Q316 394 304 413T276 443T241 457T209 461Q196 461 178 458T142 444T113 414T101 361V144Q101 111 113 92T142 61T177 47T209 43Q222 43 240 46T275 61T304 91T316 144ZM362 137Q362 91 345
63T304 20T254 -1T209 -6Q190 -6 164 -1T114 19T73 63T56 137V368Q56 414 73 442T114 485T164 505T209 510Q228 510 254 505T304 485T345 442T362 368V137Z" />
<glyph unicode="p" glyph-name="p" horiz-adv-x="419" d="M116 76Q128 68 144 62T176 51T206 44T230 41Q265 41 289 66T313 128V373Q313 391 307 406T289 433T263 452T231 459Q222 459 208 458T179 452T147 440T116 423V76ZM115 18V-250H65V453L43 474L78 510L109
480Q143 497 175 503T230 510Q258 510 282 499T324 469T352 424T363 369V131Q363 102 353 77T324 32T282 1T230 -10Q213 -10 184 -7T115 18Z" />
<glyph unicode="q" glyph-name="q" horiz-adv-x="419" d="M303 422Q265 447 236 452T188 458Q171 458 156 451T130 433T113 406T106 372V128Q106 92 130 67T189 42Q198 42 212 44T242 50T274 60T303 77V422ZM285 7Q256 -7 233 -8T192 -10Q164 -10 140 1T97 31T67
76T56 131V368Q56 397 66 423T95 468T137 498T189 509Q211 509 243 503T310 479L341 509L376 473L354 452V-250H304V16L285 7Z" />
<glyph unicode="r" glyph-name="r" horiz-adv-x="330" d="M323 470L295 428Q278 438 267 443T247 452T229 455T210 456Q195 456 169 448T117 415V1H67V443L41 469L76 505L111 471Q140 497 166 503T212 510Q232 510 256 502T323 470Z" />
<glyph unicode="s" glyph-name="s" horiz-adv-x="361" d="M336 138Q336 64 299 27T204 -10Q186 -10 167 -7T129 4L46 37L66 81L148 48Q163 42 177 40T205 37Q240 37 264 64T288 142Q288 163 280 178T259 202T231 216T202 221Q166 221 137 227T88 250T56 294T45
362Q45 435 84 472T182 510Q199 510 217 506T256 494L289 482L270 439Q246 448 232 452T209 459T196 461T186 462H181Q146 462 120 435T93 357Q93 336 102 320T125 293T154 276T184 270Q215 270 243 265T291 245T324 204T336 138Z" />
<glyph unicode="t" glyph-name="t" horiz-adv-x="267" d="M104 130V451H19V501H104V700H157V501H249V451H157V125Q157 84 177 69T227 53H249V-1H222Q197 -1 176 6T138 29T113 70T104 130Z" />
<glyph unicode="u" glyph-name="u" horiz-adv-x="432" d="M77 74Q65 99 63 124T61 177V500H113V146Q113 120 120 101T140 68T169 48T202 41Q234 41 266 52T317 77V500H368V50L390 29L354 -7L324 23Q295 7 262 0T203 -8Q167 -8 132 10T77 74Z" />
<glyph unicode="v" glyph-name="v" horiz-adv-x="363" d="M289 500H340L227 0H142L23 500H73L148 200Q152 185 156 163T165 119T172 83T175 68H195Q201 95 206 120Q211 141 215 163T223 201L289 500Z" />
<glyph unicode="w" glyph-name="w" horiz-adv-x="532" d="M309 499L382 65H390L453 500H503L423 0H349L271 436H260L182 0H109L29 500H79L139 66H148L222 499H309Z" />
<glyph unicode="x" glyph-name="x" horiz-adv-x="364" d="M170 220L76 0H25L131 249L25 500H76L174 280H190L283 500H336L234 249L339 1H286L191 220H170Z" />
<glyph unicode="y" glyph-name="y" horiz-adv-x="375" d="M121 -250L162 0H155L22 500H73Q99 390 119 314T154 188Q170 131 181 94H193Q202 131 217 188Q230 237 250 313T302 500H353L219 0H213L172 -250H121Z" />
<glyph unicode="z" glyph-name="z" horiz-adv-x="406" d="M376 0H35V52L288 428V447H44V498H359V446L106 69V51H376V0Z" />
<glyph unicode="{" glyph-name="braceleft" horiz-adv-x="233" d="M179 -74Q145 -74 125 -68T91 -48Q77 -34 71 -15T65 39V661Q65 696 71 715T91 748Q104 761 124 767T179 774H202V725H184Q161 725 149 724T129 714Q120 705 118 689T115 649V47Q115 23 117 9T129
-14Q137 -22 149 -23T184 -25H202V-74H179Z" />
<glyph unicode="|" glyph-name="bar" horiz-adv-x="186" d="M68 -10V700H118V-10H68Z" />
<glyph unicode="}" glyph-name="braceright" horiz-adv-x="238" d="M173 41Q173 6 167 -13T147 -46Q133 -59 113 -65T58 -72H32V-23H53H66Q83 -23 92 -22T109 -13Q117 -5 120 9T123 48V655Q123 679 120 693T109 716Q101 724 89 725T53 727H32V776H58Q92 776 112
770T147 750Q161 736 167 717T173 663V41V41Z" />
<glyph unicode="~" glyph-name="asciitilde" horiz-adv-x="460" d="M415 283Q397 265 383 254T357 237T333 229T307 226Q288 226 269 233T230 250T191 266T151 274Q133 274 119 268T79 236L46 263Q64 281 77 292T103 309T128 317T154 320Q175 320 194 313T232
296T269 280T309 272Q327 272 341 278T381 310L415 283Z" />
<glyph unicode="&#xa0;" glyph-name="space" horiz-adv-x="210" />
<glyph unicode="&#xa1;" glyph-name="exclamdown" horiz-adv-x="190" d="M121 560V1H69V560H121ZM121 700V610H68V700H121Z" />
<glyph unicode="&#xa2;" glyph-name="cent" horiz-adv-x="355" d="M172 508V637H222V511Q237 509 252 505T281 497Q296 492 310 487L298 444Q283 449 267 453Q253 457 238 460T209 463Q165 463 134 435T102 358V149Q102 125 110 106T134 72T168 51T210 43Q220
43 235 45T264 51Q281 55 299 60L315 14Q299 9 283 5Q269 1 253 -2T222 -6V-131H172V-3Q120 9 86 50T52 149V358Q52 417 86 457T172 508Z" />
<glyph unicode="&#xa3;" glyph-name="sterling" horiz-adv-x="504" d="M401 526Q401 567 387 592T353 632T310 650T268 655Q248 655 226 650T185 631T154 592T142 528V382H363V323H142V54H455V0H87V323H48V382H87V526Q87 566 99 599T136 657T193 695T269 709Q310
709 344 696T403 658T442 600T456 526H401Z" />
<glyph unicode="&#xa5;" glyph-name="yen" horiz-adv-x="481" d="M412 176H270V1H210V176H69V240H210V319H198L176 371H69V435H150L39 701H95L232 379H249L386 701H442L332 435H412V371H305L284 319H270V240H412V176V176Z" />
<glyph unicode="&#xa6;" glyph-name="brokenbar" horiz-adv-x="190" d="M69 700H121V388H69V700ZM69 312H121V0H69V312Z" />
<glyph unicode="&#xa8;" glyph-name="dieresis" horiz-adv-x="451" d="M302 600V677H360V600H302ZM104 600V677H162V600H104Z" />
<glyph unicode="&#xa9;" glyph-name="copyright" horiz-adv-x="799" d="M758 349Q758 275 730 210T654 95T540 18T400 -10Q326 -10 261 18T146 95T69 209T41 349Q41 423 69 488T146 602T260 679T400 708Q474 708 539 680T653 603T730 489T758 349ZM708 349Q708
413 684 469T618 568T520 634T400 658Q336 658 280 634T182 568T116 470T91 349Q91 284 115 228T182 130T280 64T400 40Q464 40 520 64T618 130T684 228T708 349ZM325 271Q325 233 350 210T411 187Q419 187 430 189T453 194Q466 197 481 201L493 165Q478 160 463
156Q450 153 436 151T411 148Q385 148 363 157T323 182T296 221T286 271V440Q286 467 295 489T322 527T361 552T410 561Q422 561 436 558T462 551Q476 547 489 541L480 507Q468 510 456 514Q445 517 433 519T410 522Q375 522 350 500T325 440V271Z" />
<glyph unicode="&#xae;" glyph-name="registered" horiz-adv-x="799" d="M758 353Q758 279 730 214T654 99T540 22T400 -6Q326 -6 261 22T146 99T69 213T41 353Q41 427 69 492T146 606T260 683T400 712Q474 712 539 684T653 607T730 493T758 353ZM708 353Q708
417 684 473T618 572T520 638T400 662Q336 662 280 638T182 572T116 474T91 353Q91 288 115 232T182 134T280 68T400 44Q464 44 520 68T618 134T684 232T708 353ZM394 533Q383 533 372 531T350 525Q339 521 327 518V352H394Q436 352 462 377T488 449Q488 496 462
514T394 533ZM455 328L528 147H494L421 319Q416 317 410 317T398 317H327V147H296V545Q311 551 329 556Q344 561 362 564T399 568Q423 568 445 560T485 537T513 500T523 449Q523 409 504 375T455 328Z" />
<glyph unicode="&#xb0;" glyph-name="degree" horiz-adv-x="330" d="M290 586Q290 560 280 538T253 498T213 471T164 461Q138 461 116 471T77 498T50 537T40 586Q40 612 50 634T76 674T115 701T164 711Q190 711 213 702T253 675T280 635T290 586ZM244 586Q244
619 221 642T164 665Q132 665 109 642T85 586Q85 554 108 531T164 508Q197 508 220 531T244 586Z" />
<glyph unicode="&#xb4;" glyph-name="acute" horiz-adv-x="463" d="M257 590H205L302 737H363L257 590Z" />
<glyph unicode="&#xb5;" glyph-name="mu" horiz-adv-x="441" d="M73 -208V132Q72 143 72 154T72 177V500H73V502H123V500H124V146Q124 120 131 101T151 68T180 48T213 41Q245 41 277 52T328 77V500H379V50L401 29L365 -7L335 23Q306 7 273 0T214 -8Q190 -8 167
-1T123 24V-208H73Z" />
<glyph unicode="&#xb8;" glyph-name="cedilla" horiz-adv-x="394" d="M234 -98Q234 -154 219 -182T178 -222L149 -186Q166 -178 176 -156T186 -97V-46H234V-98V-98Z" />
<glyph unicode="&#xbf;" glyph-name="questiondown" horiz-adv-x="418" d="M295 463V373H226V463H295ZM36 -76Q36 -44 45 -21T66 19L209 234Q219 248 226 263T233 302V323H291V303Q291 268 283 245T262 205L126 1Q115 -16 104 -36T93 -75Q93 -101 106 -122T138
-157T180 -180T221 -188Q233 -188 245 -185T270 -177L368 -140L387 -194L303 -229Q286 -236 262 -241T222 -247Q186 -247 152 -235T93 -200T52 -146T36 -76Z" />
<glyph unicode="&#xc0;" glyph-name="Agrave" horiz-adv-x="459" d="M319 255L237 635H224L141 255H319V255ZM125 196L81 1H27L187 701H272L432 1H379L334 196H125V196ZM195 789L89 936H150L247 789H195Z" />
<glyph unicode="&#xc1;" glyph-name="Aacute" horiz-adv-x="459" d="M319 255L237 635H224L141 255H319V255ZM125 196L81 1H27L187 701H272L432 1H379L334 196H125V196ZM257 790H205L302 937H363L257 790Z" />
<glyph unicode="&#xc2;" glyph-name="Acircumflex" horiz-adv-x="459" d="M319 255L237 635H224L141 255H319V255ZM125 196L81 1H27L187 701H272L432 1H379L334 196H125V196ZM308 826L230 907L152 826H102L202 951H257L357 826H308Z" />
<glyph unicode="&#xc3;" glyph-name="Atilde" horiz-adv-x="459" d="M319 255L237 635H224L141 255H319V255ZM125 196L81 1H27L187 701H272L432 1H379L334 196H125V196ZM356 855L379 805H107L82 855H356Z" />
<glyph unicode="&#xc4;" glyph-name="Adieresis" horiz-adv-x="459" d="M319 255L237 635H224L141 255H319V255ZM125 196L81 1H27L187 701H272L432 1H379L334 196H125V196ZM302 800V877H360V800H302ZM104 800V877H162V800H104Z" />
<glyph unicode="&#xc6;" glyph-name="AE" horiz-adv-x="733" d="M356 635L186 255L407 254L408 634L356 635ZM334 700H688V643H461V381H639V323H461V59H690V1H407V196H157L68 1H14L334 700Z" />
<glyph unicode="&#xc7;" glyph-name="Ccedilla" horiz-adv-x="437" d="M121 188Q121 156 132 130T161 86T203 58T253 46Q261 46 269 47T291 54T326 67T383 90L405 33L324 4Q307 -2 287 -6T253 -10Q215 -10 182 3T123 42T82 102T67 183V193V506Q67 548 81 584T114
640Q132 660 143 669T166 686Q176 691 196 700T255 710Q269 710 289 705T325 695L403 664L385 612L298 646Q288 650 277 653T256 656Q229 656 205 644T163 610T134 562T123 506L121 188ZM274 -98Q274 -154 259 -182T218 -222L189 -186Q206 -178 216 -156T226 -97V-46H274V-98V-98Z"
/>
<glyph unicode="&#xc8;" glyph-name="Egrave" horiz-adv-x="406" d="M361 700V643H136V381H312V323H136V59H363V1H79V700H361ZM189 789L83 936H144L241 789H189Z" />
<glyph unicode="&#xc9;" glyph-name="Eacute" horiz-adv-x="406" d="M361 700V643H136V381H312V323H136V59H363V1H79V700H361ZM231 784H179L276 931H337L231 784Z" />
<glyph unicode="&#xca;" glyph-name="Ecircumflex" horiz-adv-x="406" d="M361 700V643H136V381H312V323H136V59H363V1H79V700H361ZM275 826L197 907L119 826H69L169 951H224L324 826H275Z" />
<glyph unicode="&#xcb;" glyph-name="Edieresis" horiz-adv-x="406" d="M361 700V643H136V381H312V323H136V59H363V1H79V700H361ZM287 800V877H345V800H287ZM89 800V877H147V800H89Z" />
<glyph unicode="&#xcc;" glyph-name="Igrave" horiz-adv-x="208" d="M78 700H130V0H78V700ZM78 789L-28 936H33L130 789H78Z" />
<glyph unicode="&#xcd;" glyph-name="Iacute" horiz-adv-x="208" d="M78 700H130V0H78V700ZM140 790H88L185 937H246L140 790Z" />
<glyph unicode="&#xce;" glyph-name="Icircumflex" horiz-adv-x="208" d="M78 700H130V0H78V700ZM184 826L106 907L28 826H-22L78 951H133L233 826H184Z" />
<glyph unicode="&#xcf;" glyph-name="Idieresis" horiz-adv-x="208" d="M78 700H130V0H78V700ZM175 800V877H233V800H175ZM-23 800V877H35V800H-23Z" />
<glyph unicode="&#xd1;" glyph-name="Ntilde" horiz-adv-x="554" d="M476 700V0H379L141 582H129V0H78V700H150L411 69H424V700H476ZM402 855L425 805H153L128 855H402Z" />
<glyph unicode="&#xd2;" glyph-name="Ograve" horiz-adv-x="520" d="M397 172V523Q397 563 382 587T345 625T300 643T260 648Q244 648 221 643T175 625T138 587T122 522V171Q122 131 137 108T175 72T220 56T260 52Q276 52 299 56T344 72T381 108T397 172ZM452
172Q452 150 444 119T413 60T354 11T259 -9Q203 -9 166 11T108 59T77 119T68 172V522Q68 544 76 576T107 637T166 688T260 709Q316 709 353 688T412 638T443 577T452 523V172ZM239 789L133 936H194L291 789H239Z" />
<glyph unicode="&#xd3;" glyph-name="Oacute" horiz-adv-x="520" d="M397 172V523Q397 563 382 587T345 625T300 643T260 648Q244 648 221 643T175 625T138 587T122 522V171Q122 131 137 108T175 72T220 56T260 52Q276 52 299 56T344 72T381 108T397 172ZM452
172Q452 150 444 119T413 60T354 11T259 -9Q203 -9 166 11T108 59T77 119T68 172V522Q68 544 76 576T107 637T166 688T260 709Q316 709 353 688T412 638T443 577T452 523V172ZM292 790H240L337 937H398L292 790Z" />
<glyph unicode="&#xd4;" glyph-name="Ocircumflex" horiz-adv-x="520" d="M397 172V523Q397 563 382 587T345 625T300 643T260 648Q244 648 221 643T175 625T138 587T122 522V171Q122 131 137 108T175 72T220 56T260 52Q276 52 299 56T344 72T381 108T397 172ZM452
172Q452 150 444 119T413 60T354 11T259 -9Q203 -9 166 11T108 59T77 119T68 172V522Q68 544 76 576T107 637T166 688T260 709Q316 709 353 688T412 638T443 577T452 523V172ZM338 826L260 907L182 826H132L232 951H287L387 826H338Z" />
<glyph unicode="&#xd5;" glyph-name="Otilde" horiz-adv-x="520" d="M397 172V523Q397 563 382 587T345 625T300 643T260 648Q244 648 221 643T175 625T138 587T122 522V171Q122 131 137 108T175 72T220 56T260 52Q276 52 299 56T344 72T381 108T397 172ZM452
172Q452 150 444 119T413 60T354 11T259 -9Q203 -9 166 11T108 59T77 119T68 172V522Q68 544 76 576T107 637T166 688T260 709Q316 709 353 688T412 638T443 577T452 523V172ZM386 855L409 805H137L112 855H386Z" />
<glyph unicode="&#xd6;" glyph-name="Odieresis" horiz-adv-x="520" d="M397 172V523Q397 563 382 587T345 625T300 643T260 648Q244 648 221 643T175 625T138 587T122 522V171Q122 131 137 108T175 72T220 56T260 52Q276 52 299 56T344 72T381 108T397 172ZM452
172Q452 150 444 119T413 60T354 11T259 -9Q203 -9 166 11T108 59T77 119T68 172V522Q68 544 76 576T107 637T166 688T260 709Q316 709 353 688T412 638T443 577T452 523V172ZM333 800V877H391V800H333ZM135 800V877H193V800H135Z" />
<glyph unicode="&#xd7;" glyph-name="multiply" horiz-adv-x="452" d="M362 99L226 235L90 99L55 134L191 270L55 406L90 441L226 305L362 441L397 406L261 270L397 134L362 99Z" />
<glyph unicode="&#xd8;" glyph-name="Oslash" horiz-adv-x="520" d="M397 172V523Q397 563 382 587T345 625T300 643T260 648Q244 648 221 643T175 625T138 587T122 522V171Q122 131 137 108T175 72T220 56T260 52Q276 52 299 56T344 72T381 108T397 172ZM452
172Q452 150 444 119T413 60T354 11T259 -9Q203 -9 166 11T108 59T77 119T68 172V522Q68 544 76 576T107 637T166 688T260 709Q316 709 353 688T412 638T443 577T452 523V172ZM291 766H351L229 -66H169L291 766Z" />
<glyph unicode="&#xd9;" glyph-name="Ugrave" horiz-adv-x="534" d="M267 43Q285 43 309 48T354 68T390 108T405 173V701H457V173Q457 144 448 113T418 55T359 11T267 -7Q212 -7 176 10T117 54T86 112T77 173V701H129V173Q129 133 143 108T177 69T222 49T267 43ZM247
789L141 936H202L299 789H247Z" />
<glyph unicode="&#xda;" glyph-name="Uacute" horiz-adv-x="534" d="M267 43Q285 43 309 48T354 68T390 108T405 173V701H457V173Q457 144 448 113T418 55T359 11T267 -7Q212 -7 176 10T117 54T86 112T77 173V701H129V173Q129 133 143 108T177 69T222 49T267 43ZM288
790H236L333 937H394L288 790Z" />
<glyph unicode="&#xdb;" glyph-name="Ucircumflex" horiz-adv-x="534" d="M267 43Q285 43 309 48T354 68T390 108T405 173V701H457V173Q457 144 448 113T418 55T359 11T267 -7Q212 -7 176 10T117 54T86 112T77 173V701H129V173Q129 133 143 108T177 69T222 49T267
43ZM345 826L267 907L189 826H139L239 951H294L394 826H345Z" />
<glyph unicode="&#xdc;" glyph-name="Udieresis" horiz-adv-x="534" d="M267 43Q285 43 309 48T354 68T390 108T405 173V701H457V173Q457 144 448 113T418 55T359 11T267 -7Q212 -7 176 10T117 54T86 112T77 173V701H129V173Q129 133 143 108T177 69T222 49T267
43ZM335 800V877H393V800H335ZM137 800V877H195V800H137Z" />
<glyph unicode="&#xdd;" glyph-name="Yacute" horiz-adv-x="433" d="M260 318H246V0H186V318H174L15 700H71L208 378H225L362 700H418L260 318ZM236 790H184L281 937H342L236 790Z" />
<glyph unicode="&#xde;" glyph-name="Thorn" horiz-adv-x="429" d="M130 71Q159 56 186 49T245 42Q262 42 277 49T303 68T320 95T327 129V372Q327 408 303 433T244 459Q220 459 187 451T130 424V71ZM129 482Q169 503 198 506T244 510Q272 510 296 499T338 469T366
424T377 369V133Q377 104 367 79T338 34T296 4T244 -7Q223 -7 192 -2T128 19V-249H78V700H79H128H129V482Z" />
<glyph unicode="&#xdf;" glyph-name="germandbls" horiz-adv-x="506" d="M460 186Q460 163 453 131T426 70T370 21T277 0H225V54H275Q293 54 315 58T358 77T391 118T405 186V229Q405 272 393 298T362 338T323 356T284 361H261V415H283H287Q333 415 356 444T379
525Q379 568 366 594T333 634T291 652T251 657Q233 657 211 653T168 634T133 594T119 525V0H64V528Q64 550 71 581T99 641T155 690T251 711Q308 711 344 691T400 641T427 580T434 526Q434 484 416 445T357 392Q391 380 411 360T442 316T456 271T460 232V186V186Z"
/>
<glyph unicode="&#xe0;" glyph-name="agrave" horiz-adv-x="403" d="M294 243Q294 244 285 249T261 261T224 273T180 279Q163 279 148 272T121 253T104 226T97 192V129Q97 111 103 96T121 69T147 50T179 43Q194 43 213 48T251 61Q272 69 294 79V243ZM345 49L364
31L328 -5L301 22Q269 4 235 -3T180 -10Q152 -10 128 1T85 32T57 78T47 133V189Q47 218 57 243T85 288T127 318T180 329Q187 329 201 328T232 324T266 316T295 301V335Q295 358 287 380T264 421T231 450T190 461Q182 461 162 456T119 446Q93 440 63 432L49 479Q82
487 110 494Q134 500 157 505T190 510Q222 510 250 495T299 456T332 400T344 335L345 49ZM439 589L333 736H394L491 589H439Z" />
<glyph unicode="&#xe1;" glyph-name="aacute" horiz-adv-x="403" d="M294 243Q294 244 285 249T261 261T224 273T180 279Q163 279 148 272T121 253T104 226T97 192V129Q97 111 103 96T121 69T147 50T179 43Q194 43 213 48T251 61Q272 69 294 79V243ZM345 49L364
31L328 -5L301 22Q269 4 235 -3T180 -10Q152 -10 128 1T85 32T57 78T47 133V189Q47 218 57 243T85 288T127 318T180 329Q187 329 201 328T232 324T266 316T295 301V335Q295 358 287 380T264 421T231 450T190 461Q182 461 162 456T119 446Q93 440 63 432L49 479Q82
487 110 494Q134 500 157 505T190 510Q222 510 250 495T299 456T332 400T344 335L345 49ZM483 590H431L528 737H589L483 590Z" />
<glyph unicode="&#xe2;" glyph-name="acircumflex" horiz-adv-x="403" d="M294 243Q294 244 285 249T261 261T224 273T180 279Q163 279 148 272T121 253T104 226T97 192V129Q97 111 103 96T121 69T147 50T179 43Q194 43 213 48T251 61Q272 69 294 79V243ZM345
49L364 31L328 -5L301 22Q269 4 235 -3T180 -10Q152 -10 128 1T85 32T57 78T47 133V189Q47 218 57 243T85 288T127 318T180 329Q187 329 201 328T232 324T266 316T295 301V335Q295 358 287 380T264 421T231 450T190 461Q182 461 162 456T119 446Q93 440 63 432L49
479Q82 487 110 494Q134 500 157 505T190 510Q222 510 250 495T299 456T332 400T344 335L345 49ZM284 626L206 707L128 626H78L178 751H233L333 626H284Z" />
<glyph unicode="&#xe3;" glyph-name="atilde" horiz-adv-x="403" d="M294 243Q294 244 285 249T261 261T224 273T180 279Q163 279 148 272T121 253T104 226T97 192V129Q97 111 103 96T121 69T147 50T179 43Q194 43 213 48T251 61Q272 69 294 79V243ZM345 49L364
31L328 -5L301 22Q269 4 235 -3T180 -10Q152 -10 128 1T85 32T57 78T47 133V189Q47 218 57 243T85 288T127 318T180 329Q187 329 201 328T232 324T266 316T295 301V335Q295 358 287 380T264 421T231 450T190 461Q182 461 162 456T119 446Q93 440 63 432L49 479Q82
487 110 494Q134 500 157 505T190 510Q222 510 250 495T299 456T332 400T344 335L345 49ZM586 655L609 605H337L312 655H586Z" />
<glyph unicode="&#xe4;" glyph-name="adieresis" horiz-adv-x="403" d="M294 243Q294 244 285 249T261 261T224 273T180 279Q163 279 148 272T121 253T104 226T97 192V129Q97 111 103 96T121 69T147 50T179 43Q194 43 213 48T251 61Q272 69 294 79V243ZM345 49L364
31L328 -5L301 22Q269 4 235 -3T180 -10Q152 -10 128 1T85 32T57 78T47 133V189Q47 218 57 243T85 288T127 318T180 329Q187 329 201 328T232 324T266 316T295 301V335Q295 358 287 380T264 421T231 450T190 461Q182 461 162 456T119 446Q93 440 63 432L49 479Q82
487 110 494Q134 500 157 505T190 510Q222 510 250 495T299 456T332 400T344 335L345 49ZM526 600V677H584V600H526ZM328 600V677H386V600H328Z" />
<glyph unicode="&#xe6;" glyph-name="ae" horiz-adv-x="645" d="M300 24Q268 4 234 -3T180 -10Q152 -10 128 1T85 32T57 78T47 133V189Q47 218 57 243T85 288T127 318T180 329Q187 329 200 328T230 324T264 316T293 302V349Q290 370 281 390T259 426T228 451T190
461Q182 461 162 456T119 446Q93 440 63 432L49 479Q82 487 110 494Q134 500 157 505T190 510Q227 510 258 491T311 440Q328 472 359 491T429 510H463Q491 510 516 499T560 469T589 424T600 368V335Q600 293 585 265T544 218T484 193T410 185Q394 185 378 186T345
189V129Q352 89 382 66T452 42Q456 42 477 46T523 56Q551 62 585 70L597 17Q560 9 530 4Q504 -1 481 -5T452 -9Q434 -9 415 -5T380 7T350 24T329 44Q325 42 321 38Q317 35 312 32T300 24ZM180 279Q163 279 148 272T121 253T104 226T97 192V129Q97 111 103 96T121
69T147 50T179 43Q194 43 213 48T251 61Q272 69 294 79V127Q293 132 293 137T293 147V244Q290 246 281 251T256 263T222 274T180 279ZM463 242Q481 241 496 248T523 267T541 296T548 331V373Q548 397 539 413T516 440T482 454T441 459Q422 459 405 453T374 436T353
409T345 373V242H463Z" />
<glyph unicode="&#xe7;" glyph-name="ccedilla" horiz-adv-x="345" d="M105 148Q105 124 113 105T137 71T171 50T213 42Q223 42 238 44T267 50Q284 54 302 59L318 13Q298 6 280 2Q264 -2 246 -5T213 -8Q180 -8 152 3T102 36T68 85T55 148V357Q55 391 67 419T101
468T150 499T212 511Q228 511 245 507T278 498Q296 493 313 486L301 443Q286 448 270 452Q256 456 241 459T212 462Q168 462 137 434T105 357V148ZM234 -98Q234 -154 219 -182T178 -222L149 -186Q166 -178 176 -156T186 -97V-46H234V-98V-98Z" />
<glyph unicode="&#xe8;" glyph-name="egrave" d="M225 241H227Q245 241 260 248T286 268T303 297T310 331V373Q310 397 301 413T278 440T244 454T203 459Q184 459 167 453T136 436T115 409T107 373V242L225 241ZM55 368Q55 398 65 424T94 469T137 499T191 510H225Q253
510 278 499T322 469T351 424T362 368V335Q362 293 347 265T306 218T246 193T172 185Q156 185 140 186T107 189V129Q114 89 144 66T214 42Q218 42 239 46T285 56Q313 62 347 70L359 17Q322 9 292 4Q266 -1 243 -5T214 -9Q182 -9 153 2T102 35T68 84T55 147V368ZM443
589L337 736H398L495 589H443Z" />
<glyph unicode="&#xe9;" glyph-name="eacute" d="M225 241H227Q245 241 260 248T286 268T303 297T310 331V373Q310 397 301 413T278 440T244 454T203 459Q184 459 167 453T136 436T115 409T107 373V242L225 241ZM55 368Q55 398 65 424T94 469T137 499T191 510H225Q253
510 278 499T322 469T351 424T362 368V335Q362 293 347 265T306 218T246 193T172 185Q156 185 140 186T107 189V129Q114 89 144 66T214 42Q218 42 239 46T285 56Q313 62 347 70L359 17Q322 9 292 4Q266 -1 243 -5T214 -9Q182 -9 153 2T102 35T68 84T55 147V368ZM491
590H439L536 737H597L491 590Z" />
<glyph unicode="&#xea;" glyph-name="ecircumflex" d="M225 241H227Q245 241 260 248T286 268T303 297T310 331V373Q310 397 301 413T278 440T244 454T203 459Q184 459 167 453T136 436T115 409T107 373V242L225 241ZM55 368Q55 398 65 424T94 469T137 499T191
510H225Q253 510 278 499T322 469T351 424T362 368V335Q362 293 347 265T306 218T246 193T172 185Q156 185 140 186T107 189V129Q114 89 144 66T214 42Q218 42 239 46T285 56Q313 62 347 70L359 17Q322 9 292 4Q266 -1 243 -5T214 -9Q182 -9 153 2T102 35T68 84T55
147V368ZM282 626L204 707L126 626H76L176 751H231L331 626H282Z" />
<glyph unicode="&#xeb;" glyph-name="edieresis" d="M225 241H227Q245 241 260 248T286 268T303 297T310 331V373Q310 397 301 413T278 440T244 454T203 459Q184 459 167 453T136 436T115 409T107 373V242L225 241ZM55 368Q55 398 65 424T94 469T137 499T191 510H225Q253
510 278 499T322 469T351 424T362 368V335Q362 293 347 265T306 218T246 193T172 185Q156 185 140 186T107 189V129Q114 89 144 66T214 42Q218 42 239 46T285 56Q313 62 347 70L359 17Q322 9 292 4Q266 -1 243 -5T214 -9Q182 -9 153 2T102 35T68 84T55 147V368ZM538
600V677H596V600H538ZM340 600V677H398V600H340Z" />
<glyph unicode="&#xec;" glyph-name="igrave" horiz-adv-x="181" d="M64 500H117V0H64V500ZM61 589L-45 736H16L113 589H61Z" />
<glyph unicode="&#xed;" glyph-name="iacute" horiz-adv-x="181" d="M64 500H117V0H64V500ZM117 590H65L162 737H223L117 590Z" />
<glyph unicode="&#xee;" glyph-name="icircumflex" horiz-adv-x="181" d="M64 700H117V622H64V700ZM64 500H117V0H64V500ZM426 626L348 707L270 626H220L320 751H375L475 626H426Z" />
<glyph unicode="&#xef;" glyph-name="idieresis" horiz-adv-x="181" d="M64 500H117V0H64V500ZM161 600V677H219V600H161ZM-37 600V677H21V600H-37Z" />
<glyph unicode="&#xf1;" glyph-name="ntilde" horiz-adv-x="432" d="M356 427Q368 402 370 377T372 324V0H319V355Q319 406 292 433T231 460Q212 460 183 454T116 424V0H65V451L43 472L79 508L109 478Q164 509 213 509Q258 509 297 491T356 427ZM593 655L616 605H344L319
655H593Z" />
<glyph unicode="&#xf2;" glyph-name="ograve" horiz-adv-x="418" d="M316 144V361Q316 394 304 413T276 443T241 457T209 461Q196 461 178 458T142 444T113 414T101 361V144Q101 111 113 92T142 61T177 47T209 43Q222 43 240 46T275 61T304 91T316 144ZM362 137Q362
91 345 63T304 20T254 -1T209 -6Q190 -6 164 -1T114 19T73 63T56 137V368Q56 414 73 442T114 485T164 505T209 510Q228 510 254 505T304 485T345 442T362 368V137ZM440 589L334 736H395L492 589H440Z" />
<glyph unicode="&#xf3;" glyph-name="oacute" horiz-adv-x="418" d="M316 144V361Q316 394 304 413T276 443T241 457T209 461Q196 461 178 458T142 444T113 414T101 361V144Q101 111 113 92T142 61T177 47T209 43Q222 43 240 46T275 61T304 91T316 144ZM362 137Q362
91 345 63T304 20T254 -1T209 -6Q190 -6 164 -1T114 19T73 63T56 137V368Q56 414 73 442T114 485T164 505T209 510Q228 510 254 505T304 485T345 442T362 368V137ZM486 590H434L531 737H592L486 590Z" />
<glyph unicode="&#xf4;" glyph-name="ocircumflex" horiz-adv-x="418" d="M316 144V361Q316 394 304 413T276 443T241 457T209 461Q196 461 178 458T142 444T113 414T101 361V144Q101 111 113 92T142 61T177 47T209 43Q222 43 240 46T275 61T304 91T316 144ZM362
137Q362 91 345 63T304 20T254 -1T209 -6Q190 -6 164 -1T114 19T73 63T56 137V368Q56 414 73 442T114 485T164 505T209 510Q228 510 254 505T304 485T345 442T362 368V137ZM287 626L209 707L131 626H81L181 751H236L336 626H287Z" />
<glyph unicode="&#xf5;" glyph-name="otilde" horiz-adv-x="418" d="M316 144V361Q316 394 304 413T276 443T241 457T209 461Q196 461 178 458T142 444T113 414T101 361V144Q101 111 113 92T142 61T177 47T209 43Q222 43 240 46T275 61T304 91T316 144ZM362 137Q362
91 345 63T304 20T254 -1T209 -6Q190 -6 164 -1T114 19T73 63T56 137V368Q56 414 73 442T114 485T164 505T209 510Q228 510 254 505T304 485T345 442T362 368V137ZM592 655L615 605H343L318 655H592Z" />
<glyph unicode="&#xf6;" glyph-name="odieresis" horiz-adv-x="418" d="M316 144V361Q316 394 304 413T276 443T241 457T209 461Q196 461 178 458T142 444T113 414T101 361V144Q101 111 113 92T142 61T177 47T209 43Q222 43 240 46T275 61T304 91T316 144ZM362
137Q362 91 345 63T304 20T254 -1T209 -6Q190 -6 164 -1T114 19T73 63T56 137V368Q56 414 73 442T114 485T164 505T209 510Q228 510 254 505T304 485T345 442T362 368V137ZM535 600V677H593V600H535ZM337 600V677H395V600H337Z" />
<glyph unicode="&#xf7;" glyph-name="divide" horiz-adv-x="455" d="M267 321H198V411H267V321ZM266 1H197V89H266V1ZM313 436V500H656V436H313Z" />
<glyph unicode="&#xf8;" glyph-name="oslash" horiz-adv-x="419" d="M316 144V361Q316 394 304 413T276 443T241 457T209 461Q196 461 178 458T142 444T113 414T101 361V144Q101 111 113 92T142 61T177 47T209 43Q222 43 240 46T275 61T304 91T316 144ZM362 137Q362
91 345 63T304 20T254 -1T209 -6Q190 -6 164 -1T114 19T73 63T56 137V368Q56 414 73 442T114 485T164 505T209 510Q228 510 254 505T304 485T345 442T362 368V137ZM229 866H289L188 168H128L229 866Z" />
<glyph unicode="&#xf9;" glyph-name="ugrave" horiz-adv-x="432" d="M77 74Q65 99 63 124T61 177V500H113V146Q113 120 120 101T140 68T169 48T202 41Q234 41 266 52T317 77V500H368V50L390 29L354 -7L324 23Q295 7 262 0T203 -8Q167 -8 132 10T77 74ZM443 589L337
736H398L495 589H443Z" />
<glyph unicode="&#xfa;" glyph-name="uacute" horiz-adv-x="432" d="M77 74Q65 99 63 124T61 177V500H113V146Q113 120 120 101T140 68T169 48T202 41Q234 41 266 52T317 77V500H368V50L390 29L354 -7L324 23Q295 7 262 0T203 -8Q167 -8 132 10T77 74ZM487 590H435L532
737H593L487 590Z" />
<glyph unicode="&#xfb;" glyph-name="ucircumflex" horiz-adv-x="432" d="M77 74Q65 99 63 124T61 177V500H113V146Q113 120 120 101T140 68T169 48T202 41Q234 41 266 52T317 77V500H368V50L390 29L354 -7L324 23Q295 7 262 0T203 -8Q167 -8 132 10T77 74ZM292
626L214 707L136 626H86L186 751H241L341 626H292Z" />
<glyph unicode="&#xfc;" glyph-name="udieresis" horiz-adv-x="432" d="M77 74Q65 99 63 124T61 177V500H113V146Q113 120 120 101T140 68T169 48T202 41Q234 41 266 52T317 77V500H368V50L390 29L354 -7L324 23Q295 7 262 0T203 -8Q167 -8 132 10T77 74ZM543
600V677H601V600H543ZM345 600V677H403V600H345Z" />
<glyph unicode="&#xfd;" glyph-name="yacute" horiz-adv-x="375" d="M121 -250L162 0H155L22 500H73Q99 390 119 314T154 188Q170 131 181 94H193Q202 131 217 188Q230 237 250 313T302 500H353L219 0H213L172 -250H121ZM462 590H410L507 737H568L462 590Z" />
<glyph unicode="&#xfe;" glyph-name="thorn" horiz-adv-x="419" d="M116 70Q145 55 172 48T231 41Q248 41 263 48T289 67T306 94T313 128V371Q313 407 289 432T230 458Q206 458 173 450T116 423V70ZM115 481Q155 502 184 505T230 509Q258 509 282 498T324 468T352
423T363 368V132Q363 103 353 78T324 33T282 3T230 -8Q209 -8 178 -3T114 18V-250H64V699H65H114H115V481Z" />
<glyph unicode="&#xff;" glyph-name="ydieresis" horiz-adv-x="375" d="M121 -250L162 0H155L22 500H73Q99 390 119 314T154 188Q170 131 181 94H193Q202 131 217 188Q230 237 250 313T302 500H353L219 0H213L172 -250H121ZM515 600V677H573V600H515ZM317 600V677H375V600H317Z"
/>
<glyph unicode="&#x2013;" glyph-name="endash" horiz-adv-x="463" d="M59 209V263H402V209H59Z" />
<glyph unicode="&#x2014;" glyph-name="emdash" horiz-adv-x="734" d="M59 209V263H673V209H59Z" />
<glyph unicode="&#x201a;" glyph-name="quotesinglbase" horiz-adv-x="187" d="M142 449Q142 393 119 359T58 309L41 369Q58 377 71 395T84 450V501H142V449V449Z" />
<glyph unicode="&#x201c;" glyph-name="quotedblleft" horiz-adv-x="316" d="M49 562Q49 618 72 652T133 702L150 642Q133 634 120 616T107 561V510H49V562ZM180 562Q180 618 203 652T264 702L281 642Q264 634 251 616T238 561V510H180V562Z" />
<glyph unicode="&#x201d;" glyph-name="quotedblright" horiz-adv-x="312" d="M269 648Q269 592 246 558T185 508L168 568Q185 576 198 594T211 649V700H269V648ZM138 648Q138 592 115 558T54 508L37 568Q54 576 67 594T80 649V700H138V648Z" />
<glyph unicode="&#x2022;" glyph-name="bullet" horiz-adv-x="296" d="M252 247Q252 226 244 207T222 174T188 151T148 143Q127 143 108 151T75 173T53 207T45 247Q45 268 53 287T75 320T108 343T148 351Q169 351 188 343T221 321T244 287T252 247Z" />
</font>
</defs>
</svg>
