<?xml version="1.0" standalone="no"?>
<!DOCTYPE svg PUBLIC "-//W3C//DTD SVG 1.1//EN" "http://www.w3.org/Graphics/SVG/1.1/DTD/svg11.dtd">
<svg xmlns="http://www.w3.org/2000/svg">
<defs >
<font id="Bahiana" horiz-adv-x="316" ><font-face
    font-family="Bahiana"
    units-per-em="1000"
    panose-1="0 0 5 0 0 0 0 0 0 0"
    ascent="900"
    descent="-250"
    alphabetic="0" />
<glyph unicode=" " glyph-name="space" horiz-adv-x="178" />
<glyph unicode="!" glyph-name="exclam" horiz-adv-x="206" d="M50 710H154L116 184L73 190L50 710ZM50 92L146 96L142 0H50V92Z" />
<glyph unicode="&quot;" glyph-name="quotedbl" horiz-adv-x="309" d="M50 710H127L120 502L69 492L50 710ZM182 710H259L252 502L201 492L182 710Z" />
<glyph unicode="#" glyph-name="numbersign" horiz-adv-x="408" d="M127 445L163 632L214 622L182 444L259 442L296 632L347 622L314 441L412 439V390H305L291 312H383V263L282 261L250 78L192 92L224 259L149 257L117 78L59 92L90 256L-5 254L-2 312H101L116
390H27L24 448L127 445ZM158 312H234L249 390H172L158 312Z" />
<glyph unicode="$" glyph-name="dollar" horiz-adv-x="339" d="M68 0L65 60H219L207 325L68 355V663Q68 679 80 694T108 710H158L153 811L207 809V710H275V656L124 651L133 410L275 377V60Q275 39 254 20T211 0H177V-99H129L124 0H68Z" />
<glyph unicode="%" glyph-name="percent" horiz-adv-x="449" d="M166 710V421L141 395H27V710H166ZM63 -2L24 33L385 707L419 679L63 -2ZM124 440T124 446L114 652Q114 655 108 658L78 673Q70 673 70 670L80 444Q80 440 86 440H117Q124 440 124 446ZM277 0V315H391L416
289V0H277ZM330 270T330 266L320 40Q320 37 328 37L358 52Q364 55 364 58L374 264Q374 270 367 270H336Q330 270 330 266Z" />
<glyph unicode="&amp;" glyph-name="ampersand" horiz-adv-x="359" d="M77 352L41 407L51 710H284V532H237L228 632Q228 638 212 638L126 650Q125 651 121 651Q111 651 111 641L121 394H348L358 348L272 339L294 319V42L248 0H38V292L44 316L77 352ZM222 65L231
334L120 323L111 60L222 65Z" />
<glyph unicode="&apos;" glyph-name="quotesingle" horiz-adv-x="177" d="M50 710H127L120 502L69 492L50 710Z" />
<glyph unicode="(" glyph-name="parenleft" horiz-adv-x="248" d="M195 -49L130 -76L46 222L40 404L130 762L198 742L105 441V211L195 -49Z" />
<glyph unicode=")" glyph-name="parenright" horiz-adv-x="248" d="M53 735L118 762L202 464L208 282L118 -76L50 -56L143 245V475L53 735Z" />
<glyph unicode="*" glyph-name="asterisk" horiz-adv-x="523" d="M420 646L459 580L312 502L468 430L430 363L285 453L300 284H223L228 451L95 358L56 424L197 499L55 565L93 632L224 550L210 710H287L281 549L420 646Z" />
<glyph unicode="+" glyph-name="plus" horiz-adv-x="339" d="M198 516V366L328 357V308H198L188 158H140V308H10V366L145 361L139 516H198Z" />
<glyph unicode="," glyph-name="comma" horiz-adv-x="145" d="M29 92L115 96L111 0L63 -110L20 -95L61 0L29 92Z" />
<glyph unicode="-" glyph-name="hyphen" horiz-adv-x="339" d="M328 357V308H13L10 366L328 357Z" />
<glyph unicode="." glyph-name="period" horiz-adv-x="206" d="M60 92L156 96L152 0H60V92Z" />
<glyph unicode="/" glyph-name="slash" horiz-adv-x="246" d="M88 -14L30 0L165 720L216 710L88 -14Z" />
<glyph unicode="0" glyph-name="zero" horiz-adv-x="339" d="M290 666L289 41L239 0H81L50 26V691L90 710H272L290 666ZM218 655Q216 655 215 656H134Q118 656 118 650V171L218 655ZM218 69T222 73T227 81V608L124 71Q128 69 131 69H212Q218 69 222 73Z" />
<glyph unicode="1" glyph-name="one" horiz-adv-x="339" d="M29 54L142 58L161 628L36 619L26 675L237 711L223 61L317 64L313 0H34L29 54Z" />
<glyph unicode="2" glyph-name="two" horiz-adv-x="339" d="M204 63L303 100L292 0H52L37 85L222 409V646L131 637L113 622L108 473H47V662L113 710H300V381L106 64L204 63Z" />
<glyph unicode="3" glyph-name="three" horiz-adv-x="339" d="M255 409L291 354V52L244 0H48V198H95L104 78Q104 72 120 72L206 60Q207 59 211 59Q221 59 221 69L210 370L99 372V427L217 458L224 649L47 642V681L93 710H294V469L288 445L255 409Z" />
<glyph unicode="4" glyph-name="four" horiz-adv-x="339" d="M200 0L207 200H35L21 242L172 710H275V0H200ZM196 266L216 658H211L98 255L196 266Z" />
<glyph unicode="5" glyph-name="five" horiz-adv-x="339" d="M109 483L118 414L273 434L300 0H42V196H94L116 81L204 55Q210 55 214 60T219 72L204 350Q204 356 192 356H84L42 426V679L84 710H270L255 649L109 629V483Z" />
<glyph unicode="6" glyph-name="six" horiz-adv-x="339" d="M301 362L281 0H41L64 710L291 700V615L150 643L126 620V399H217L301 362ZM217 327L126 348V60L217 80V327Z" />
<glyph unicode="7" glyph-name="seven" horiz-adv-x="339" d="M110 0L204 360L65 365V427L216 428L253 636L31 628L41 714L346 705L283 428H318V360H268L181 -19L110 0Z" />
<glyph unicode="8" glyph-name="eight" horiz-adv-x="339" d="M58 0L35 64L58 293L114 349L65 391L63 673L142 710L295 697L278 375L228 351L293 313L284 53L256 0H58ZM132 400L211 376L228 648L136 647L132 400ZM220 57L229 292L141 322L112 57H220Z" />
<glyph unicode="9" glyph-name="nine" horiz-adv-x="339" d="M49 323V710H299L269 0H61L50 80L180 54L204 81V289H143L49 323ZM113 371L214 350L224 640L113 650V371Z" />
<glyph unicode=":" glyph-name="colon" horiz-adv-x="206" d="M156 394H64L60 490L156 486V394ZM60 92L156 96L152 0H60V92Z" />
<glyph unicode=";" glyph-name="semicolon" horiz-adv-x="206" d="M156 394H64L60 490L156 486V394ZM69 92L155 96L151 0L103 -110L60 -95L101 0L69 92Z" />
<glyph unicode="&lt;" glyph-name="less" horiz-adv-x="339" d="M31 298L35 364L273 516L309 458L103 334V330L307 221L262 158L31 298Z" />
<glyph unicode="=" glyph-name="equal" horiz-adv-x="339" d="M318 448L315 389L20 379V447L318 448ZM318 290L314 222H20L23 281L318 290Z" />
<glyph unicode="&gt;" glyph-name="greater" horiz-adv-x="339" d="M87 158L32 241L236 330V334L30 458L66 516L304 364L308 298L87 158Z" />
<glyph unicode="?" glyph-name="question" horiz-adv-x="334" d="M101 163V359L183 492L195 646H121L103 622L100 542L51 549V690L137 710H270L257 464L160 319L146 155L101 163ZM78 92L174 96L170 0H78V92Z" />
<glyph unicode="@" glyph-name="at" horiz-adv-x="833" d="M460 642L143 654L134 648L115 61L124 52L475 37L465 0H59V710H526L496 113L192 133L176 327L260 381H332L337 489L306 516L186 502L207 570H391L378 175H436L469 636L460 642ZM246 213L328 193L333 330L250
309L246 213Z" />
<glyph unicode="A" glyph-name="A" horiz-adv-x="304" d="M254 0H196L170 278H119L73 0H26L71 710H254V0ZM191 678T185 678H142Q136 678 136 672V330Q136 325 142 325H185Q191 325 191 331V672Q191 678 185 678Z" />
<glyph unicode="B" glyph-name="B" horiz-adv-x="306" d="M234 370T247 366T261 352V50Q261 32 236 26T186 20H50V710H163Q194 710 222 700T251 662L250 652L221 397Q221 386 219 382T210 374Q234 370 247 366ZM107 407T119 407L157 422Q166 424 166 431L176 647Q176
651 162 651H119Q107 651 107 647V415Q107 407 119 407ZM173 76T180 84T188 100Q188 106 186 106V331Q189 333 189 334Q189 337 182 337H140Q137 337 134 335T129 331V79Q130 78 133 77T140 76H155Q173 76 180 84Z" />
<glyph unicode="C" glyph-name="C" horiz-adv-x="334" d="M294 0H151Q100 0 75 17T50 62V654Q50 678 71 694T130 710H294V654L278 529H212L202 642Q202 651 190 651H148Q129 651 121 636T112 601Q112 590 115 588L135 89Q132 88 132 86Q132 83 141 83H200Q212
83 212 89L232 167H294V0Z" />
<glyph unicode="D" glyph-name="D" horiz-adv-x="312" d="M213 710T243 679T274 600L244 57L183 0H50V710H165Q213 710 243 679ZM188 644T176 644H131Q128 644 125 642T122 638V72L131 66L168 71Q177 77 177 84L188 638Q188 644 176 644Z" />
<glyph unicode="E" glyph-name="E" d="M281 20H46L69 710H272V632H129V426H238V376L134 358V103L269 121L281 20Z" />
<glyph unicode="F" glyph-name="F" horiz-adv-x="281" d="M45 0L68 710H251V622H128V423H237V373L133 355V0H45Z" />
<glyph unicode="G" glyph-name="G" horiz-adv-x="377" d="M102 20Q80 20 65 40T50 97V656L86 710H299V561H256L226 651H159Q119 651 117 606L135 110Q135 103 142 98T156 92H229Q236 92 242 95T249 104L259 298L199 300V356L312 369V20H102Z" />
<glyph unicode="H" glyph-name="H" horiz-adv-x="325" d="M199 326L119 317L130 0H60L37 710H118V385L192 400V690H279V648L264 624L285 -20H220L199 326Z" />
<glyph unicode="I" glyph-name="I" horiz-adv-x="178" d="M124 0H50V616L32 664V710H133L124 0Z" />
<glyph unicode="J" glyph-name="J" horiz-adv-x="301" d="M242 0H61L25 172L104 192L109 54L173 49V616L155 664V710H251L242 0Z" />
<glyph unicode="K" glyph-name="K" horiz-adv-x="311" d="M277 -20H197V264L143 314L132 306V-20H65L42 690H120V390L146 375L191 411L201 710H287L245 386L197 354L266 314L277 -20Z" />
<glyph unicode="L" glyph-name="L" horiz-adv-x="264" d="M239 0H50V710H147L126 82L239 64V0Z" />
<glyph unicode="M" glyph-name="M" horiz-adv-x="352" d="M30 -20V710H120L172 332H178L225 730H322V0H256L278 661H274L187 181H157L86 610H82V-20H30Z" />
<glyph unicode="N" glyph-name="N" horiz-adv-x="344" d="M310 0H195L93 651H89V0H30V710H146L236 58H240L262 710H320L310 0Z" />
<glyph unicode="O" glyph-name="O" horiz-adv-x="318" d="M93 710H228L268 682V36L205 0H109L50 42V678L93 710ZM201 658T192 658H140Q131 658 131 649V76Q131 70 140 70H182Q191 70 191 76L201 649Q201 658 192 658Z" />
<glyph unicode="P" glyph-name="P" horiz-adv-x="304" d="M212 710T238 696T264 661V379Q264 368 257 352T226 321T161 306H108V0H50V669L28 681V710H174Q212 710 238 696ZM122 370T125 368T134 365L177 375Q183 375 183 381L193 633Q192 646 182 655T151 665H134Q122
665 122 658V373Q122 370 125 368Z" />
<glyph unicode="Q" glyph-name="Q" horiz-adv-x="318" d="M88 710H228L268 673V30H213L277 -124L227 -131L207 -114L163 30H50V664L88 710ZM201 648T192 648H130Q121 648 121 639L111 106Q111 100 120 100H142L132 132L168 141L185 100Q190 100 195 102T201 106V639Q201
648 192 648Z" />
<glyph unicode="R" glyph-name="R" horiz-adv-x="319" d="M108 0H50V669L28 681V710H184Q222 710 247 696T274 661L264 384Q264 369 251 348T201 316L260 206L281 0L208 -3L192 193L137 311H108V0ZM122 380T125 378T134 375H187Q193 375 193 381L199 634Q199 648
187 657T134 667Q122 663 122 655V383Q122 380 125 378Z" />
<glyph unicode="S" glyph-name="S" horiz-adv-x="287" d="M120 421L247 388V60Q247 39 226 20T183 0H40V68H179L155 336L40 366V663Q40 679 52 694T80 710H247V661L105 642L120 421Z" />
<glyph unicode="T" glyph-name="T" horiz-adv-x="275" d="M250 653H178V20H94V660L25 672L35 710H250V653Z" />
<glyph unicode="U" glyph-name="U" horiz-adv-x="310" d="M260 26T246 13T217 0H50V687H110V69L197 63L176 710H261L260 40Q260 26 246 13Z" />
<glyph unicode="V" glyph-name="V" horiz-adv-x="281" d="M123 -10L7 710H86L157 78H161L209 710H274L189 0L123 -10Z" />
<glyph unicode="W" glyph-name="W" horiz-adv-x="334" d="M327 710L291 0H228L167 417H163L102 0H47L8 710H81V86H85L142 598H185L252 86H257V710H327Z" />
<glyph unicode="X" glyph-name="X" horiz-adv-x="304" d="M51 293L122 364L17 710H99L171 386L191 418L221 710H295L265 402L197 334L282 45L295 30V0H222V55L147 300L119 263L110 0H23L51 293Z" />
<glyph unicode="Y" glyph-name="Y" horiz-adv-x="247" d="M164 -20H97V353L30 472V710H94L107 431L143 428L161 710H217V451L164 389V-20Z" />
<glyph unicode="Z" glyph-name="Z" horiz-adv-x="302" d="M48 0L30 22L64 88L182 638L46 670V710H241L272 679L130 84L264 65L272 0H48Z" />
<glyph unicode="[" glyph-name="bracketleft" horiz-adv-x="246" d="M105 -34L196 -31V-81L40 -76V762H196V721L98 717L105 -34Z" />
<glyph unicode="\" glyph-name="backslash" horiz-adv-x="246" d="M30 710L81 720L216 0L158 -14L30 710Z" />
<glyph unicode="]" glyph-name="bracketright" horiz-adv-x="246" d="M141 715L50 712V762L206 756V-81H50V-40L148 -36L141 715Z" />
<glyph unicode="^" glyph-name="asciicircum" horiz-adv-x="370" d="M167 490L207 487L340 296L311 277L187 420L59 277L30 296L167 490Z" />
<glyph unicode="_" glyph-name="underscore" horiz-adv-x="411" d="M363 -45L360 -102L49 -113V-40L363 -45Z" />
<glyph unicode="`" glyph-name="grave" horiz-adv-x="170" d="M150 792L116 768L20 852L66 900L150 792Z" />
<glyph unicode="a" glyph-name="a" horiz-adv-x="308" d="M275 0H231L195 266L115 228L93 0H31L76 710H234L275 0ZM182 668T176 668L133 658Q127 655 127 648V296Q127 291 133 291L170 297Q176 297 176 303L182 662Q182 668 176 668Z" />
<glyph unicode="b" glyph-name="b" horiz-adv-x="342" d="M260 359T280 337T301 282L281 30Q281 12 248 6T186 0H50V710H183Q218 710 249 693T281 648V447L240 364Q260 359 280 337ZM113 397T125 397H197Q200 397 204 401Q205 402 206 406L215 645Q215 649 201
649L113 645V405Q113 397 125 397ZM218 86T218 110Q218 116 216 116V321Q219 323 219 324Q219 327 212 327L136 337Q133 337 130 335T125 331V59L136 56Q218 86 218 110Z" />
<glyph unicode="c" glyph-name="c" horiz-adv-x="334" d="M296 20H83L42 62L62 653Q63 675 80 692T129 710L142 709L296 689L280 528H234V621Q234 630 222 630H160Q141 630 133 615T124 580Q124 569 127 567V99Q124 98 124 96Q124 93 133 93H232Q244 93 244 99V174L263
186L296 187V20Z" />
<glyph unicode="d" glyph-name="d" horiz-adv-x="333" d="M283 678V56Q283 23 262 12T224 0H56V56L62 84L41 710H206L283 678ZM183 69T191 81T201 131L221 638Q221 644 219 645T212 647H136Q127 647 127 638V78Q127 69 136 69H168Q183 69 191 81Z" />
<glyph unicode="e" glyph-name="e" horiz-adv-x="330" d="M269 0H55V710H269V648L144 654V427L269 404V356L127 362V75L269 83V0Z" />
<glyph unicode="f" glyph-name="f" horiz-adv-x="311" d="M55 -20V710L269 690V628L134 616V447H269V389L117 372L137 -20H55Z" />
<glyph unicode="g" glyph-name="g" horiz-adv-x="356" d="M282 277V58Q282 32 261 16T212 0H62L40 656Q41 680 54 695T89 710H289V668L271 559H227V655L115 630L132 112Q132 105 139 100T153 94H199Q206 94 212 97T219 106V343L321 333V294L282 277Z" />
<glyph unicode="h" glyph-name="h" horiz-adv-x="333" d="M210 310L124 327V0H50V710H122L111 395L210 400V710H283V0H239L210 310Z" />
<glyph unicode="i" glyph-name="i" horiz-adv-x="175" d="M134 20H50V710H113L134 20Z" />
<glyph unicode="j" glyph-name="j" horiz-adv-x="285" d="M86 0Q72 0 58 12T43 38L35 172H84L89 94L164 89V696L204 710H241L222 0H86Z" />
<glyph unicode="k" glyph-name="k" horiz-adv-x="302" d="M261 0H202L149 338L127 321V0H60L47 700L73 710H115V372L186 432L175 687L261 710L240 401L199 369L279 21L261 0Z" />
<glyph unicode="l" glyph-name="l" horiz-adv-x="287" d="M252 0H50V710H124V105L139 82L252 69V0Z" />
<glyph unicode="m" glyph-name="m" horiz-adv-x="394" d="M50 0V710H122L195 276H203L271 710H329L352 0H286V535H279L210 157L177 150L106 589H102V0H50Z" />
<glyph unicode="n" glyph-name="n" horiz-adv-x="335" d="M275 -20H207L109 554H105L86 -20H35L67 710H128L229 131H236V710H295L275 -20Z" />
<glyph unicode="o" glyph-name="o" horiz-adv-x="312" d="M122 0Q81 0 65 13T49 56V686Q71 698 106 704T201 710Q228 710 245 697T262 662L255 0H122ZM184 57L193 66L199 637Q199 642 190 643L128 646L119 640L113 63L184 57Z" />
<glyph unicode="p" glyph-name="p" horiz-adv-x="292" d="M58 697T95 703T167 710H210Q223 710 234 705T246 689L257 379L222 317L112 306L104 0H35L58 687Q58 697 95 703ZM183 385Q189 385 189 391V650L174 665L118 658V382L183 385Z" />
<glyph unicode="q" glyph-name="q" horiz-adv-x="307" d="M50 694T67 702T111 710Q162 710 195 706T242 695T257 685V37Q257 0 203 0H166L276 -114L217 -134L192 -121L113 0H50V685Q50 694 67 702ZM191 639H139Q130 638 130 633L110 61L122 52L200 65V633L191 639Z" />
<glyph unicode="r" glyph-name="r" horiz-adv-x="319" d="M50 704T91 707T172 710H215Q231 710 241 698T252 667L262 379L217 320L297 22L278 0H219L168 311L117 306L96 0H50V699Q50 704 91 707ZM188 385Q194 385 194 391V640L179 655L110 648L113 381L188 385Z" />
<glyph unicode="s" glyph-name="s" horiz-adv-x="289" d="M202 569L182 647L122 640L107 418L252 392L238 60Q238 40 212 20T164 0H47L38 171H97L96 84L166 68L182 334L47 364V686L87 710H244L239 569H202Z" />
<glyph unicode="t" glyph-name="t" horiz-adv-x="275" d="M245 696L250 633H162V0H77L97 615L25 639L38 710L245 696Z" />
<glyph unicode="u" glyph-name="u" horiz-adv-x="304" d="M132 700L111 62L195 68V687L265 683V-20H35L58 700H132Z" />
<glyph unicode="v" glyph-name="v" horiz-adv-x="281" d="M76 0L17 710H80L140 25H145L212 700H278L181 0H76Z" />
<glyph unicode="w" glyph-name="w" horiz-adv-x="419" d="M283 10L207 500H203L180 0H75L6 710H71L122 37H126L175 690H247L241 539L324 33H329L351 700H412L379 10H283Z" />
<glyph unicode="x" glyph-name="x" horiz-adv-x="304" d="M202 -11L159 339L131 324L87 0H9L87 386L23 710H101L141 390L176 399L213 690H280L209 343L298 -11H202Z" />
<glyph unicode="y" glyph-name="y" horiz-adv-x="263" d="M185 0H108V374L15 700H106L140 413L148 415L178 710H248L204 431L168 369L185 0Z" />
<glyph unicode="z" glyph-name="z" horiz-adv-x="292" d="M43 0L25 33L169 662L41 646V710H247L133 56L267 47V0H43Z" />
<glyph unicode="{" glyph-name="braceleft" horiz-adv-x="273" d="M223 761V721L121 710L131 457L75 352L135 245V-34H223V-83L115 -76L77 -36L66 211L26 328L-48 324L-50 377H27L67 462V752L77 762L223 761Z" />
<glyph unicode="|" glyph-name="bar" horiz-adv-x="192" d="M125 -129L75 -126V762H118L125 -129Z" />
<glyph unicode="}" glyph-name="braceright" horiz-adv-x="273" d="M50 -82V-42L152 -31L142 222L198 327L138 434V713H50V762L158 755L196 715L207 468L247 351L321 355L323 302H246L206 217V-73L196 -83L50 -82Z" />
<glyph unicode="~" glyph-name="asciitilde" horiz-adv-x="398" d="M193 366Q215 356 228 352T252 348Q260 348 273 353T303 367L358 393V333L275 275L185 318Q154 332 141 332Q130 332 121 328T85 306L43 279L40 353L134 393L193 366Z" />
<glyph unicode="&#xa0;" glyph-name="uni00A0" horiz-adv-x="178" />
<glyph unicode="&#xa1;" glyph-name="exclamdown" horiz-adv-x="206" d="M143 618L50 623L54 710H146L143 618ZM42 0H146L119 523H78L42 0Z" />
<glyph unicode="&#xa2;" glyph-name="cent" horiz-adv-x="339" d="M296 710L280 548H234V651Q234 660 222 660L155 640Q137 635 128 617T119 580Q119 569 122 567V99Q119 98 119 96Q119 93 128 93H232Q244 93 244 99V167L270 187H296V20H203L208 -89L154 -87V20H83L42
62L62 653Q63 675 80 692T129 710H165V811H213L218 710H296Z" />
<glyph unicode="&#xa3;" glyph-name="sterling" horiz-adv-x="339" d="M38 404L95 402L68 654Q68 678 89 694T148 710H312V654L296 529H250L240 642Q240 651 228 651H157L133 642L165 399L295 394L298 335H174L192 202L161 82L307 64V0H32V43L75 71L118 196L102
336H38V404Z" />
<glyph unicode="&#xa4;" glyph-name="currency" horiz-adv-x="339" d="M283 451L292 270L273 251L329 201L292 161L239 219H109L44 160L10 194L63 247L54 460L10 499L47 546L100 488L244 481L295 527L329 502L283 451ZM229 288T233 292T238 300L232 425Q232 432
220 436H125Q109 436 109 430L121 285Q121 282 124 279T133 276L223 288Q229 288 233 292Z" />
<glyph unicode="&#xa5;" glyph-name="yen" horiz-adv-x="339" d="M318 353L315 294L203 290L204 236L318 240L314 172H205L209 0H142V172H20L23 231L142 234V288L20 284V352H142V353L75 472V710H139L152 431L188 428L206 710H262V451L202 352L318 353Z" />
<glyph unicode="&#xa6;" glyph-name="brokenbar" horiz-adv-x="192" d="M125 401L75 404V762H118L125 401ZM79 237H122V-121L72 -124L79 237Z" />
<glyph unicode="&#xa7;" glyph-name="section" horiz-adv-x="311" d="M271 113L247 -175Q245 -196 225 -215T183 -235H40V-167H179V61L50 91L77 369L47 376L58 686L98 710H244L239 569H202L182 647L133 640L107 421L264 415L239 120L271 113ZM145 355L130 146L171
136L192 346L145 355Z" />
<glyph unicode="&#xa8;" glyph-name="dieresis" horiz-adv-x="289" d="M30 895L113 898L109 815H30V895ZM180 898H259V818L183 815L180 898Z" />
<glyph unicode="&#xa9;" glyph-name="copyright" horiz-adv-x="576" d="M60 0V710H527L490 0H60ZM470 636L461 642L144 654L135 648L116 61L125 52L425 40L470 636ZM378 110H225L184 152V533Q184 555 202 572T251 590L264 589L378 569L362 408H316V521Q316 530
304 530H282Q263 530 255 515T246 480Q246 469 249 467V169Q246 168 246 166Q246 163 255 163H314Q326 163 326 169V257L352 277H378V110Z" />
<glyph unicode="&#xaa;" glyph-name="ordfeminine" horiz-adv-x="222" d="M187 355H155L137 484L97 459L86 355H45L67 710H166L187 355ZM135 679T132 679L101 674Q98 673 98 669V515Q98 513 101 513H127Q130 513 130 516L135 676Q135 679 132 679Z" />
<glyph unicode="&#xab;" glyph-name="guillemotleft" horiz-adv-x="478" d="M31 318L33 344L195 573L252 518L109 348V344L250 151L188 96L31 318ZM374 573L436 518L295 355V351L438 151L381 96L219 335L217 355L374 573Z" />
<glyph unicode="&#xac;" glyph-name="logicalnot" horiz-adv-x="339" d="M10 308L13 366H328V317L312 175L252 190L278 315L10 308Z" />
<glyph unicode="&#xad;" glyph-name="uni00AD" horiz-adv-x="298" d="M288 357V308H13L10 366L288 357Z" />
<glyph unicode="&#xae;" glyph-name="registered" horiz-adv-x="571" d="M490 710L527 0H60V710H490ZM425 670L125 658L116 649L135 62L144 56L461 68L470 74L425 670ZM342 591T361 578T381 542L371 413Q369 383 360 369T327 346L367 277L388 121H323V245L280
340H240V121H192V550L170 562V591H306Q342 591 361 578ZM254 391T257 389T266 386H309Q315 386 315 392V519Q315 533 309 542T283 551L266 541Q254 537 254 529V394Q254 391 257 389Z" />
<glyph unicode="&#xaf;" glyph-name="overscore" horiz-adv-x="328" d="M298 891V836L33 827L30 891H298Z" />
<glyph unicode="&#xb0;" glyph-name="degree" horiz-adv-x="237" d="M191 513T182 509T160 505Q123 505 87 509T50 517V691Q50 710 77 710H186L191 517Q191 513 182 509ZM98 550L140 555Q144 556 144 558L148 669L143 674L89 661L94 553L98 550Z" />
<glyph unicode="&#xb1;" glyph-name="plusminus" horiz-adv-x="339" d="M198 598V448L328 439V390H198L188 240H140V390H10V448L145 443L139 598H198ZM328 169V120H13L10 178L328 169Z" />
<glyph unicode="&#xb2;" glyph-name="uni00B2" horiz-adv-x="248" d="M203 392V345H45L53 399L143 554L148 659H106L96 568L62 566V662L99 710H199L192 533L113 403L203 392Z" />
<glyph unicode="&#xb3;" glyph-name="uni00B3" horiz-adv-x="234" d="M172 568Q176 563 179 557T187 545V375L160 345H50V461H90L95 400L143 395L135 536L77 533L57 558L142 604L144 661L45 657V684L73 710H189V595L185 581L172 568Z" />
<glyph unicode="&#xb4;" glyph-name="acute" horiz-adv-x="170" d="M104 900L150 852L54 768L20 792L104 900Z" />
<glyph unicode="&#xb5;" glyph-name="uni00B5" horiz-adv-x="304" d="M132 710L111 73L195 79V687L265 683V-9H89L132 -222L43 -236L35 -9L58 690L132 710Z" />
<glyph unicode="&#xb6;" glyph-name="paragraph" horiz-adv-x="366" d="M358 681L316 669V-100H284L259 666L232 670V-100H184V346H131Q89 346 66 360T36 391T28 419V661Q28 681 54 695T118 710H358V681Z" />
<glyph unicode="&#xb7;" glyph-name="middot" horiz-adv-x="206" d="M60 413L156 417L152 321H60V413Z" />
<glyph unicode="&#xb8;" glyph-name="cedilla" horiz-adv-x="291" d="M139 -45H251L227 -148Q227 -169 206 -188T163 -208H40V-150H169L179 -97L74 -89L114 53L179 32L139 -45Z" />
<glyph unicode="&#xb9;" glyph-name="uni00B9" horiz-adv-x="245" d="M45 394L89 395L97 649L46 652L47 679L112 710H147V397L194 399L200 345H45V394Z" />
<glyph unicode="&#xba;" glyph-name="ordmasculine" horiz-adv-x="237" d="M50 702T59 706T81 710Q118 710 152 706T187 698V374Q187 355 160 355H55L50 698Q50 702 59 706ZM139 665L107 660Q103 659 103 657L93 396L98 391L148 404L143 662L139 665Z" />
<glyph unicode="&#xbb;" glyph-name="guillemotright" horiz-adv-x="478" d="M261 355L259 335L97 96L40 151L183 351V355L42 518L104 573L261 355ZM290 96L228 151L369 344V348L226 518L283 573L445 344L447 318L290 96Z" />
<glyph unicode="&#xbc;" glyph-name="onequarter" horiz-adv-x="449" d="M20 444L65 445L73 649L21 652L22 679L87 710H117V447L164 449L170 395H20V444ZM73 -2L34 33L395 707L429 679L73 -2ZM346 0L349 90H263L241 121L317 325H393V0H346ZM344 133L351 298H347L295
128L344 133Z" />
<glyph unicode="&#xbd;" glyph-name="onehalf" horiz-adv-x="449" d="M20 444L65 445L73 649L21 652L22 679L87 710H117V447L164 449L170 395H20V444ZM73 -2L34 33L395 707L429 679L73 -2ZM417 47V0H259L267 54L357 179L362 274H320L310 193L276 191V277L313 325H413L406
158L327 58L417 47Z" />
<glyph unicode="&#xbe;" glyph-name="threequarters" horiz-adv-x="449" d="M163 588Q167 583 170 577T178 565V425L151 395H41V511H81L86 450L134 445L126 556L68 553L48 578L133 624L135 661L36 657V684L64 710H180V615L176 601L163 588ZM73 -2L34 33L395 707L429
679L73 -2ZM346 0L349 90H263L241 121L317 325H393V0H346ZM344 133L351 298H347L295 128L344 133Z" />
<glyph unicode="&#xbf;" glyph-name="questiondown" horiz-adv-x="334" d="M263 618L170 623L174 710H266L263 618ZM244 525L245 332L163 218L151 64H225V168L274 161L295 20L209 0H76L89 246L186 372L199 526L244 525Z" />
<glyph unicode="&#xc0;" glyph-name="Agrave" horiz-adv-x="304" d="M217 792L183 768L87 852L133 900L217 792ZM254 0H196L170 278H119L73 0H26L71 710H254V0ZM191 678T185 678H142Q136 678 136 672V330Q136 325 142 325H185Q191 325 191 331V672Q191 678 185 678Z" />
<glyph unicode="&#xc1;" glyph-name="Aacute" horiz-adv-x="304" d="M202 900L248 852L152 768L118 792L202 900ZM254 0H196L170 278H119L73 0H26L71 710H254V0ZM191 678T185 678H142Q136 678 136 672V330Q136 325 142 325H185Q191 325 191 331V672Q191 678 185 678Z" />
<glyph unicode="&#xc2;" glyph-name="Acircumflex" horiz-adv-x="304" d="M142 899L182 896L256 786L227 767L162 829L97 767L68 786L142 899ZM254 0H196L170 278H119L73 0H26L71 710H254V0ZM191 678T185 678H142Q136 678 136 672V330Q136 325 142 325H185Q191
325 191 331V672Q191 678 185 678Z" />
<glyph unicode="&#xc3;" glyph-name="Atilde" horiz-adv-x="304" d="M147 897T176 877L214 852L286 900V840L262 817Q252 808 240 801T218 794Q200 794 173 813L129 844L61 791L58 860L84 883Q101 897 122 897Q147 897 176 877ZM254 0H196L170 278H119L73 0H26L71
710H254V0ZM191 678T185 678H142Q136 678 136 672V330Q136 325 142 325H185Q191 325 191 331V672Q191 678 185 678Z" />
<glyph unicode="&#xc4;" glyph-name="Adieresis" horiz-adv-x="304" d="M37 897L120 900L116 817H37V897ZM187 900H266V820L190 817L187 900ZM254 0H196L170 278H119L73 0H26L71 710H254V0ZM191 678T185 678H142Q136 678 136 672V330Q136 325 142 325H185Q191
325 191 331V672Q191 678 185 678Z" />
<glyph unicode="&#xc5;" glyph-name="Aring" horiz-adv-x="304" d="M238 899V790L213 764H99V899H238ZM196 799T196 805V861Q196 864 190 867L150 872Q142 872 142 869V803Q142 799 148 799H189Q196 799 196 805ZM254 0H196L170 278H119L73 0H26L71 710H254V0ZM191
678T185 678H142Q136 678 136 672V330Q136 325 142 325H185Q191 325 191 331V672Q191 678 185 678Z" />
<glyph unicode="&#xc6;" glyph-name="AE" horiz-adv-x="472" d="M423 632H280V461H389V411L285 393V83L420 101L432 0H216L190 278H119L73 0H26L71 710H423V632ZM191 678T185 678H142Q136 678 136 672V330Q136 325 142 325H185Q191 325 191 331V672Q191 678 185 678Z" />
<glyph unicode="&#xc7;" glyph-name="Ccedilla" horiz-adv-x="334" d="M294 0H192L169 -45H281L257 -148Q257 -169 236 -188T193 -208H70V-150H199L209 -97L104 -89L129 1Q89 5 70 21T50 62V654Q50 678 71 694T130 710H294V654L278 529H212L202 642Q202 651 190
651H148Q129 651 121 636T112 601Q112 590 115 588L135 89Q132 88 132 86Q132 83 141 83H200Q212 83 212 89L232 167H294V0Z" />
<glyph unicode="&#xc8;" glyph-name="Egrave" d="M233 791L199 767L103 851L149 899L233 791ZM281 20H46L69 710H272V632H129V426H238V376L134 358V103L269 121L281 20Z" />
<glyph unicode="&#xc9;" glyph-name="Eacute" d="M197 900L243 852L147 768L113 792L197 900ZM281 20H46L69 710H272V632H129V426H238V376L134 358V103L269 121L281 20Z" />
<glyph unicode="&#xca;" glyph-name="Ecircumflex" d="M158 899L198 896L272 786L243 767L178 829L113 767L84 786L158 899ZM281 20H46L69 710H272V632H129V426H238V376L134 358V103L269 121L281 20Z" />
<glyph unicode="&#xcb;" glyph-name="Edieresis" d="M43 897L126 900L122 817H43V897ZM193 900H272V820L196 817L193 900ZM281 20H46L69 710H272V632H129V426H238V376L134 358V103L269 121L281 20Z" />
<glyph unicode="&#xcc;" glyph-name="Igrave" horiz-adv-x="178" d="M144 792L110 768L14 852L60 900L144 792ZM124 0H50V616L32 664V710H133L124 0Z" />
<glyph unicode="&#xcd;" glyph-name="Iacute" horiz-adv-x="178" d="M108 900L154 852L58 768L24 792L108 900ZM124 0H50V616L32 664V710H133L124 0Z" />
<glyph unicode="&#xce;" glyph-name="Icircumflex" horiz-adv-x="178" d="M69 899L109 896L183 786L154 767L89 829L24 767L-5 786L69 899ZM124 0H50V616L32 664V710H133L124 0Z" />
<glyph unicode="&#xcf;" glyph-name="Idieresis" horiz-adv-x="178" d="M-25 897L58 900L54 817H-25V897ZM125 900H204V820L128 817L125 900ZM124 0H50V616L32 664V710H133L124 0Z" />
<glyph unicode="&#xd0;" glyph-name="Eth" horiz-adv-x="312" d="M50 710H165Q190 710 215 698T258 664T275 616L274 600L244 57Q242 23 221 12T183 0H50V338H0L-3 396L50 393V710ZM188 644T176 644H131Q128 644 125 642T122 638V389L157 387V338H122V72L131 66L168
71Q177 77 177 84L188 638Q188 644 176 644Z" />
<glyph unicode="&#xd1;" glyph-name="Ntilde" horiz-adv-x="344" d="M165 897T194 877L232 852L304 900V840L280 817Q270 808 258 801T236 794Q218 794 191 813L147 844L79 791L76 860L102 883Q119 897 140 897Q165 897 194 877ZM320 710H262L240 58H236L146 710H30V0H89V651H93L195
0H310L320 710Z" />
<glyph unicode="&#xd2;" glyph-name="Ograve" horiz-adv-x="318" d="M224 792L190 768L94 852L140 900L224 792ZM93 710H228L268 682V36L205 0H109L50 42V678L93 710ZM201 658T192 658H140Q131 658 131 649V76Q131 70 140 70H182Q191 70 191 76L201 649Q201 658 192 658Z" />
<glyph unicode="&#xd3;" glyph-name="Oacute" horiz-adv-x="318" d="M198 900L244 852L148 768L114 792L198 900ZM93 710H228L268 682V36L205 0H109L50 42V678L93 710ZM201 658T192 658H140Q131 658 131 649V76Q131 70 140 70H182Q191 70 191 76L201 649Q201 658
192 658Z" />
<glyph unicode="&#xd4;" glyph-name="Ocircumflex" horiz-adv-x="318" d="M149 899L189 896L263 786L234 767L169 829L104 767L75 786L149 899ZM93 710H228L268 682V36L205 0H109L50 42V678L93 710ZM201 658T192 658H140Q131 658 131 649V76Q131 70 140 70H182Q191
70 191 76L201 649Q201 658 192 658Z" />
<glyph unicode="&#xd5;" glyph-name="Otilde" horiz-adv-x="318" d="M144 896T173 876L211 851L283 899V839L259 816Q249 807 237 800T215 793Q197 793 170 812L126 843L58 790L55 859L81 882Q98 896 119 896Q144 896 173 876ZM93 710H228L268 682V36L205 0H109L50
42V678L93 710ZM201 658T192 658H140Q131 658 131 649V76Q131 70 140 70H182Q191 70 191 76L201 649Q201 658 192 658Z" />
<glyph unicode="&#xd6;" glyph-name="Odieresis" horiz-adv-x="318" d="M44 897L127 900L123 817H44V897ZM194 900H273V820L197 817L194 900ZM93 710H228L268 682V36L205 0H109L50 42V678L93 710ZM201 658T192 658H140Q131 658 131 649V76Q131 70 140 70H182Q191
70 191 76L201 649Q201 658 192 658Z" />
<glyph unicode="&#xd7;" glyph-name="multiply" horiz-adv-x="339" d="M270 173L169 298L62 176L16 221L137 336L16 468L60 513L179 384L281 504L322 464L208 341L319 223L270 173Z" />
<glyph unicode="&#xd8;" glyph-name="Oslash" horiz-adv-x="318" d="M222 710T235 706L258 788L295 775L268 673V0H89L66 -88L22 -71L50 31V710H184Q222 710 235 706ZM199 575L201 649Q201 658 192 658H120Q111 658 111 649V253L199 575ZM111 81V77Q111 71 120
71H182Q191 71 191 77L196 404L111 81Z" />
<glyph unicode="&#xd9;" glyph-name="Ugrave" horiz-adv-x="310" d="M210 792L176 768L80 852L126 900L210 792ZM260 26T246 13T217 0H50V687H110V69L197 63L176 710H261L260 40Q260 26 246 13Z" />
<glyph unicode="&#xda;" glyph-name="Uacute" horiz-adv-x="310" d="M194 900L240 852L144 768L110 792L194 900ZM260 26T246 13T217 0H50V687H110V69L197 63L176 710H261L260 40Q260 26 246 13Z" />
<glyph unicode="&#xdb;" glyph-name="Ucircumflex" horiz-adv-x="310" d="M138 900L178 897L252 787L223 768L158 830L93 768L64 787L138 900ZM260 26T246 13T217 0H50V687H110V69L197 63L176 710H261L260 40Q260 26 246 13Z" />
<glyph unicode="&#xdc;" glyph-name="Udieresis" horiz-adv-x="310" d="M40 897L123 900L119 817H40V897ZM190 900H269V820L193 817L190 900ZM260 26T246 13T217 0H50V687H110V69L197 63L176 710H261L260 40Q260 26 246 13Z" />
<glyph unicode="&#xdd;" glyph-name="Yacute" horiz-adv-x="247" d="M162 900L208 852L112 768L78 792L162 900ZM164 389L217 451V710H161L143 428L107 431L94 710H30V472L97 353V-20H164V389Z" />
<glyph unicode="&#xde;" glyph-name="Thorn" horiz-adv-x="304" d="M212 530T238 516T264 481V259Q264 248 257 232T226 201T161 186H108V0H50V710H101L111 530H174Q212 530 238 516ZM122 242T125 240T134 237L177 247Q183 247 183 253L193 445Q192 458 182 467T151
477H134Q122 477 122 470V245Q122 242 125 240Z" />
<glyph unicode="&#xdf;" glyph-name="germandbls" horiz-adv-x="435" d="M374 60Q372 39 347 20T300 0H197L185 171H252L244 84L306 68V296L197 326L171 389L237 602L212 640L116 616L137 -1H55V640L156 710H229L341 601L238 384L239 379L374 365V60Z" />
<glyph unicode="&#xe0;" glyph-name="agrave" horiz-adv-x="308" d="M219 792L185 768L89 852L135 900L219 792ZM275 0H231L195 266L115 228L93 0H31L76 710H234L275 0ZM182 668T176 668L133 658Q127 655 127 648V296Q127 291 133 291L170 297Q176 297 176 303L182
662Q182 668 176 668Z" />
<glyph unicode="&#xe1;" glyph-name="aacute" horiz-adv-x="308" d="M183 900L229 852L133 768L99 792L183 900ZM275 0H231L195 266L115 228L93 0H31L76 710H234L275 0ZM182 668T176 668L133 658Q127 655 127 648V296Q127 291 133 291L170 297Q176 297 176 303L182
662Q182 668 176 668Z" />
<glyph unicode="&#xe2;" glyph-name="acircumflex" horiz-adv-x="308" d="M139 900L179 897L253 787L224 768L159 830L94 768L65 787L139 900ZM275 0H231L195 266L115 228L93 0H31L76 710H234L275 0ZM182 668T176 668L133 658Q127 655 127 648V296Q127 291 133
291L170 297Q176 297 176 303L182 662Q182 668 176 668Z" />
<glyph unicode="&#xe3;" glyph-name="atilde" horiz-adv-x="308" d="M129 897T158 877L196 852L268 900V840L244 817Q234 808 222 801T200 794Q182 794 155 813L111 844L43 791L40 860L66 883Q83 897 104 897Q129 897 158 877ZM275 0H231L195 266L115 228L93 0H31L76
710H234L275 0ZM182 668T176 668L133 658Q127 655 127 648V296Q127 291 133 291L170 297Q176 297 176 303L182 662Q182 668 176 668Z" />
<glyph unicode="&#xe4;" glyph-name="adieresis" horiz-adv-x="308" d="M39 895L122 898L118 815H39V895ZM189 898H268V818L192 815L189 898ZM275 0H231L195 266L115 228L93 0H31L76 710H234L275 0ZM182 668T176 668L133 658Q127 655 127 648V296Q127 291 133
291L170 297Q176 297 176 303L182 662Q182 668 176 668Z" />
<glyph unicode="&#xe5;" glyph-name="aring" horiz-adv-x="308" d="M232 900V791L207 765H93V900H232ZM190 800T190 806V862Q190 865 184 868L144 873Q136 873 136 870V804Q136 800 142 800H183Q190 800 190 806ZM275 0H231L195 266L115 228L93 0H31L76 710H234L275
0ZM182 668T176 668L133 658Q127 655 127 648V296Q127 291 133 291L170 297Q176 297 176 303L182 662Q182 668 176 668Z" />
<glyph unicode="&#xe6;" glyph-name="ae" horiz-adv-x="500" d="M445 0H231V268L145 228L93 0H31L116 710H445V648L286 654V427L445 404V356L303 362V75L445 83V0ZM212 668T206 668L163 658Q157 655 157 648V310Q157 305 163 305H196Q202 305 202 311L212 662Q212
668 206 668Z" />
<glyph unicode="&#xe7;" glyph-name="ccedilla" horiz-adv-x="334" d="M296 20H195L161 -45H273L249 -148Q249 -169 228 -188T185 -208H62V-150H191L201 -97L96 -89L126 20H83L42 62L62 653Q63 675 80 692T129 710L142 709L296 689L280 528H234V621Q234 630 222
630H160Q141 630 133 615T124 580Q124 569 127 567V99Q124 98 124 96Q124 93 133 93H232Q244 93 244 99V174L263 186L296 187V20Z" />
<glyph unicode="&#xe8;" glyph-name="egrave" horiz-adv-x="330" d="M207 792L173 768L77 852L123 900L207 792ZM269 0H55V710H269V648L144 654V427L269 404V356L127 362V75L269 83V0Z" />
<glyph unicode="&#xe9;" glyph-name="eacute" horiz-adv-x="330" d="M206 900L252 852L156 768L122 792L206 900ZM269 0H55V710H269V648L144 654V427L269 404V356L127 362V75L269 83V0Z" />
<glyph unicode="&#xea;" glyph-name="ecircumflex" horiz-adv-x="330" d="M145 900L185 897L259 787L230 768L165 830L100 768L71 787L145 900ZM269 0H55V710H269V648L144 654V427L269 404V356L127 362V75L269 83V0Z" />
<glyph unicode="&#xeb;" glyph-name="edieresis" horiz-adv-x="330" d="M50 895L133 898L129 815H50V895ZM200 898H279V818L203 815L200 898ZM269 0H55V710H269V648L144 654V427L269 404V356L127 362V75L269 83V0Z" />
<glyph unicode="&#xec;" glyph-name="igrave" horiz-adv-x="175" d="M152 792L118 768L22 852L68 900L152 792ZM134 0H50V710H113L134 0Z" />
<glyph unicode="&#xed;" glyph-name="iacute" horiz-adv-x="175" d="M106 900L152 852L56 768L22 792L106 900ZM113 710H50V0H134L113 710Z" />
<glyph unicode="&#xee;" glyph-name="icircumflex" horiz-adv-x="175" d="M68 900L108 897L182 787L153 768L88 830L23 768L-6 787L68 900ZM134 0H50V710H113L134 0Z" />
<glyph unicode="&#xef;" glyph-name="idieresis" horiz-adv-x="175" d="M-27 895L56 898L52 815H-27V895ZM123 898H202V818L126 815L123 898ZM113 710H50V0H134L113 710Z" />
<glyph unicode="&#xf0;" glyph-name="eth" horiz-adv-x="333" d="M283 678V56Q283 23 262 12T224 0H56V56L62 84L53 338H11L8 396L51 393L41 710H206L283 678ZM183 69T191 81T201 131L221 638Q221 644 219 645T212 647H136Q127 647 127 638V389L176 387V338H127V78Q127
69 136 69H168Q183 69 191 81Z" />
<glyph unicode="&#xf1;" glyph-name="ntilde" horiz-adv-x="335" d="M165 897T194 877L232 852L304 900V840L280 817Q270 808 258 801T236 794Q218 794 191 813L147 844L79 791L76 860L102 883Q119 897 140 897Q165 897 194 877ZM295 710H236V131H229L128 710H67L35
-20H86L105 554H109L207 -20H275L295 710Z" />
<glyph unicode="&#xf2;" glyph-name="ograve" horiz-adv-x="312" d="M224 792L190 768L94 852L140 900L224 792ZM122 0Q81 0 65 13T49 56V686Q71 698 106 704T201 710Q228 710 245 697T262 662L255 0H122ZM184 57L193 66L199 637Q199 642 190 643L128 646L119
640L113 63L184 57Z" />
<glyph unicode="&#xf3;" glyph-name="oacute" horiz-adv-x="312" d="M198 900L244 852L148 768L114 792L198 900ZM122 0Q81 0 65 13T49 56V686Q71 698 106 704T201 710Q228 710 245 697T262 662L255 0H122ZM184 57L193 66L199 637Q199 642 190 643L128 646L119
640L113 63L184 57Z" />
<glyph unicode="&#xf4;" glyph-name="ocircumflex" horiz-adv-x="312" d="M136 900L176 897L250 787L221 768L156 830L91 768L62 787L136 900ZM122 0Q81 0 65 13T49 56V686Q71 698 106 704T201 710Q228 710 245 697T262 662L255 0H122ZM184 57L193 66L199 637Q199
642 190 643L128 646L119 640L113 63L184 57Z" />
<glyph unicode="&#xf5;" glyph-name="otilde" horiz-adv-x="312" d="M139 897T168 877L206 852L278 900V840L254 817Q244 808 232 801T210 794Q192 794 165 813L121 844L53 791L50 860L76 883Q93 897 114 897Q139 897 168 877ZM122 0Q81 0 65 13T49 56V686Q71
698 106 704T201 710Q228 710 245 697T262 662L255 0H122ZM184 57L193 66L199 637Q199 642 190 643L128 646L119 640L113 63L184 57Z" />
<glyph unicode="&#xf6;" glyph-name="odieresis" horiz-adv-x="312" d="M41 895L124 898L120 815H41V895ZM191 898H270V818L194 815L191 898ZM122 0Q81 0 65 13T49 56V686Q71 698 106 704T201 710Q228 710 245 697T262 662L255 0H122ZM184 57L193 66L199 637Q199
642 190 643L128 646L119 640L113 63L184 57Z" />
<glyph unicode="&#xf7;" glyph-name="divide" horiz-adv-x="339" d="M131 536H223L227 440L131 444V536ZM328 357V308H13L10 366L328 357ZM131 224L227 228L223 132H131V224Z" />
<glyph unicode="&#xf8;" glyph-name="oslash" horiz-adv-x="312" d="M262 37Q262 0 208 0H89L66 -88L23 -72L58 58L49 685Q49 694 66 702T110 710Q193 710 231 699L256 789L292 776L262 661V37ZM104 648T104 643L116 272L196 568L195 633L186 639L113 649Q104
648 104 643ZM198 419L121 122L123 61L132 52L205 77L198 419Z" />
<glyph unicode="&#xf9;" glyph-name="ugrave" horiz-adv-x="304" d="M230 792L196 768L100 852L146 900L230 792ZM132 700L111 62L195 68V687L265 683V-20H35L58 700H132Z" />
<glyph unicode="&#xfa;" glyph-name="uacute" horiz-adv-x="304" d="M189 900L235 852L139 768L105 792L189 900ZM132 700L111 62L195 68V687L265 683V-20H35L58 700H132Z" />
<glyph unicode="&#xfb;" glyph-name="ucircumflex" horiz-adv-x="304" d="M144 900L184 897L258 787L229 768L164 830L99 768L70 787L144 900ZM132 700L111 62L195 68V687L265 683V-20H35L58 700H132Z" />
<glyph unicode="&#xfc;" glyph-name="udieresis" horiz-adv-x="304" d="M37 895L120 898L116 815H37V895ZM187 898H266V818L190 815L187 898ZM132 700L111 62L195 68V687L265 683V-20H35L58 700H132Z" />
<glyph unicode="&#xfd;" glyph-name="yacute" horiz-adv-x="263" d="M165 900L211 852L115 768L81 792L165 900ZM168 369L204 431L248 710H178L148 415L140 413L106 700H15L108 374V0H185L168 369Z" />
<glyph unicode="&#xfe;" glyph-name="thorn" horiz-adv-x="292" d="M115 710V554Q145 560 167 560H210Q223 560 234 555T246 539L257 229L222 167L102 156L81 0H35L65 710H115ZM183 225Q189 225 189 231V500L174 515L118 508V222L183 225Z" />
<glyph unicode="&#xff;" glyph-name="ydieresis" horiz-adv-x="263" d="M17 895L100 898L96 815H17V895ZM167 898H246V818L170 815L167 898ZM168 369L204 431L248 710H178L148 415L140 413L106 700H15L108 374V0H185L168 369Z" />
<glyph unicode="&#x2013;" glyph-name="endash" horiz-adv-x="338" d="M291 376L288 319L47 308V381L291 376Z" />
<glyph unicode="&#x2014;" glyph-name="emdash" horiz-adv-x="411" d="M363 376L360 319L49 308V381L363 376Z" />
<glyph unicode="&#x2018;" glyph-name="quoteleft" horiz-adv-x="198" d="M142 492L43 487L48 597L103 723L152 706L105 597L142 492Z" />
<glyph unicode="&#x2019;" glyph-name="quoteright" horiz-adv-x="198" d="M53 709L152 714L147 604L92 478L43 495L90 604L53 709Z" />
<glyph unicode="&#x201a;" glyph-name="quotesinglbase" horiz-adv-x="198" d="M53 87L152 92L147 -18L92 -144L43 -127L90 -18L53 87Z" />
<glyph unicode="&#x201c;" glyph-name="quotedblleft" horiz-adv-x="348" d="M142 492L43 487L48 597L103 723L152 706L105 597L142 492ZM288 492L189 487L194 597L249 723L298 706L251 597L288 492Z" />
<glyph unicode="&#x201d;" glyph-name="quotedblright" horiz-adv-x="348" d="M53 710L152 715L147 605L92 479L43 496L90 605L53 710ZM199 710L298 715L293 605L238 479L189 496L236 605L199 710Z" />
<glyph unicode="&#x201e;" glyph-name="quotedblbase" horiz-adv-x="348" d="M53 87L152 92L147 -18L92 -144L43 -127L90 -18L53 87ZM200 87L299 92L294 -18L239 -144L190 -127L237 -18L200 87Z" />
<glyph unicode="&#x2022;" glyph-name="bullet" horiz-adv-x="263" d="M51 272L44 425L197 420L192 272H51Z" />
<glyph unicode="&#x2039;" glyph-name="guilsinglleft" horiz-adv-x="287" d="M31 318L33 344L195 573L252 518L109 348V344L250 151L188 96L31 318Z" />
<glyph unicode="&#x203a;" glyph-name="guilsinglright" horiz-adv-x="287" d="M99 96L37 151L178 344V348L35 518L92 573L254 344L256 318L99 96Z" />
</font>
</defs>
</svg>
