<?xml version="1.0" standalone="no"?>
<!DOCTYPE svg PUBLIC "-//W3C//DTD SVG 1.1//EN" "http://www.w3.org/Graphics/SVG/1.1/DTD/svg11.dtd">
<svg xmlns="http://www.w3.org/2000/svg">
<defs >
<font id="Ramaraja" horiz-adv-x="371" ><font-face
    font-family="Ramaraja"
    units-per-em="750"
    panose-1="0 0 0 0 0 0 0 0 0 0"
    ascent="741"
    descent="-544"
    alphabetic="0" />
<glyph unicode=" " glyph-name="space" horiz-adv-x="150" />
<glyph unicode="!" glyph-name="exclam" horiz-adv-x="168" d="M137 42Q137 22 123 8T88 -7Q68 -7 53 7T38 43T53 78T88 92Q108 92 122 77T137 42ZM47 400T60 412T89 424T118 412T131 379Q131 363 124 302Q124 302 112 204Q107 168 104 146Q100 132 90 129Q88
129 83 132T75 140Q66 188 57 277T47 383Z" />
<glyph unicode="&quot;" glyph-name="quotedbl" horiz-adv-x="221" d="M71 461Q79 461 85 454T91 419T83 360T71 296Q69 286 57 286Q53 286 50 288T46 295Q41 340 32 369T23 411T26 430T34 444Q48 461 59 461H71ZM180 461Q188 461 193 454T199 419T190 360T177
296Q176 291 172 289T164 286Q154 286 154 295Q149 340 140 369T131 411T134 430T142 444Q156 461 167 461H180Z" />
<glyph unicode="#" glyph-name="numbersign" horiz-adv-x="331" d="M51 224Q47 224 49 238Q54 265 62 268H277Q284 268 281 254Q275 226 269 224H51ZM33 98Q30 98 30 104T32 119Q39 140 44 142H259Q263 142 263 136T262 122Q257 100 250 98H33ZM197 24Q197 22
191 19T178 15Q170 15 170 18L222 342Q224 347 227 348T238 350H246Q247 350 249 348L197 24ZM90 24Q90 22 85 19T72 15Q63 15 63 18L115 342Q118 350 129 350H140Q141 350 143 348L90 24Z" />
<glyph unicode="$" glyph-name="dollar" horiz-adv-x="271" d="M108 42T125 31T158 20T184 22T204 32Q226 49 226 82Q226 125 161 168Q145 178 130 188Q130 188 98 209Q40 248 40 309Q40 355 83 390Q123 423 175 423Q203 423 227 417T281 405Q283 380 284 355T288
300Q285 297 282 297H271Q263 297 262 301Q257 334 241 356Q212 397 178 397Q160 397 142 385T124 342Q124 296 216 238Q232 228 248 219T278 196Q309 165 309 110Q309 60 266 26Q225 -7 171 -7Q119 -7 51 10Q44 32 40 71T36 117Q38 120 45 123T56 126T62 117T72
91T94 58ZM190 441Q216 441 216 436L141 -26Q115 -26 115 -20L190 441Z" />
<glyph unicode="%" glyph-name="percent" horiz-adv-x="382" d="M70 -3Q68 -6 60 -9T44 -13Q33 -13 33 -5L374 417Q383 426 397 426T411 419L70 -3ZM319 181Q289 181 285 132Q284 120 284 107T286 78T294 50Q307 20 329 20Q360 20 364 68Q365 80 365 93T363 122T354
151Q340 181 319 181ZM370 201T399 173T428 102T398 30T323 0T250 28T221 99T251 171T325 201ZM123 403Q93 403 89 355Q88 342 88 329T90 301T98 272Q111 243 133 243Q164 243 168 290Q169 303 169 316T167 345T158 374Q144 403 123 403ZM174 423T203 395T232 325Q232
284 202 252Q173 222 128 222T54 250T25 321T55 393T129 423Z" />
<glyph unicode="&amp;" glyph-name="ampersand" horiz-adv-x="441" d="M143 207Q117 183 117 145Q117 110 138 80Q162 48 205 48Q230 48 247 63L143 207ZM179 400T171 381T163 340T175 299T195 269Q217 280 227 296T238 329T237 357T230 378Q220 400 200 400ZM265
40Q220 -3 151 -3Q106 -3 71 24Q32 55 32 103Q32 174 94 214Q110 225 124 234Q113 249 100 269T86 317T95 364T120 397Q153 426 202 426T279 405T306 349Q306 291 247 258Q230 249 213 242L305 119Q345 166 345 172T341 181T331 184T320 185T313 186T311 196T313
206L358 205Q397 205 443 207Q445 206 445 197T442 185H434Q408 185 396 176Q389 169 370 148Q337 110 323 96Q325 94 331 87T344 72Q364 53 371 53T385 57T397 67T407 79T414 88Q419 88 424 85T431 76Q430 73 421 61T398 34Q364 -2 338 -2T295 10T265 40Z" />
<glyph unicode="&apos;" glyph-name="quotesingle" horiz-adv-x="148" d="M22 436T35 452T68 469T95 455Q89 365 80 310Q75 303 63 298Q58 298 55 302Q44 331 33 361T22 413Z" />
<glyph unicode="(" glyph-name="parenleft" horiz-adv-x="196" d="M56 33T38 84T20 201T38 318T81 405T133 463T178 493Q180 491 182 484T184 475Q174 467 159 445T130 387Q94 301 94 201Q94 102 130 16Q156 -48 184 -73Q185 -75 183 -81T178 -90Q160 -82 133 -61T81 -3Z" />
<glyph unicode=")" glyph-name="parenright" horiz-adv-x="196" d="M133 369T150 319T168 202T151 84T108 -3T56 -60T11 -90Q8 -88 6 -82T5 -73Q58 -20 84 98Q95 144 95 201Q95 301 60 387Q45 422 30 444T5 475Q4 477 6 484T11 493Q29 485 56 463T108 405Z" />
<glyph unicode="*" glyph-name="asterisk" horiz-adv-x="295" d="M79 391Q71 405 76 418Q85 444 111 438Q123 436 130 424T138 402T140 385T140 368T142 354L146 347Q148 343 151 343T158 348T166 360T172 374Q182 399 191 409T214 420T236 413T245 392T237 369T219
355T202 349T186 344Q172 339 169 333T166 324T172 320Q183 315 198 315Q251 315 261 288Q266 275 261 265Q256 255 244 251T219 251T200 263T188 277Q173 298 161 304Q158 306 156 304Q154 304 153 297T154 282T158 266Q170 222 150 206Q129 189 109 210Q100 219
101 233T107 255T118 270Q131 287 134 300V304Q134 308 133 310Q132 311 125 310T111 304T97 296Q56 269 36 284Q13 301 28 324Q35 335 48 338T71 340T88 335Q110 327 122 329Q124 328 126 329Q129 329 131 333Q131 335 125 345T105 363T79 391Z" />
<glyph unicode="+" glyph-name="plus" horiz-adv-x="300" d="M200 13Q190 5 165 5Q158 5 158 11V141H25Q21 141 21 157T28 183H158V313Q168 320 184 320T200 314V183H333Q339 183 339 169T329 141H200V13Z" />
<glyph unicode="," glyph-name="comma" horiz-adv-x="165" d="M12 -88Q59 -53 59 -18Q59 -10 54 -5T43 6Q27 20 27 45Q27 70 53 86Q63 92 74 92Q93 92 107 81Q116 63 116 39T109 -7T88 -48Q64 -84 26 -104Q20 -102 16 -97T12 -88Z" />
<glyph unicode="-" glyph-name="hyphen" horiz-adv-x="246" d="M41 131Q36 131 36 140T46 176Q84 178 114 180T171 182T203 183T210 177Q210 159 200 139Q171 137 117 135T41 131Z" />
<glyph unicode="." glyph-name="period" horiz-adv-x="161" d="M127 42Q127 22 113 8T78 -7T43 7T28 43T42 78T77 92T112 77T127 42Z" />
<glyph unicode="/" glyph-name="slash" horiz-adv-x="274" d="M64 -9Q63 -13 56 -18T36 -23Q19 -23 19 -18L214 488Q218 496 225 499T243 502T255 500T259 497L64 -9Z" />
<glyph unicode="0" glyph-name="zero" horiz-adv-x="348" d="M119 199Q119 124 138 74Q146 51 157 39T183 26T208 41T226 82Q239 130 239 212T224 339T181 385Q136 385 123 272Q119 238 119 199ZM34 202Q34 248 46 286T78 352Q121 412 181 412Q242 412 282 358Q325
301 325 205Q325 119 282 58Q241 -2 181 -2Q120 -2 78 52Q34 109 34 202Z" />
<glyph unicode="1" glyph-name="one" horiz-adv-x="240" d="M130 2Q88 2 40 -3Q38 0 38 9T40 22Q61 22 71 26T82 34Q87 46 87 96V318Q87 340 84 346T75 353T53 349T26 338Q17 342 17 347T17 355T18 358L170 424H171Q174 424 176 419T179 412Q173 394 173 350V96Q173
46 176 39T184 29T197 24Q209 22 220 22Q223 18 223 9T220 -3Q172 2 130 2Z" />
<glyph unicode="2" glyph-name="two" horiz-adv-x="327" d="M302 127Q294 96 279 51T262 0H22Q16 4 16 12Q35 33 52 51T86 89Q122 130 149 173Q191 239 191 296Q191 327 169 350Q149 372 127 372T91 366T68 351T53 335T45 325Q43 325 37 329T31 341Q43 368 74
392Q114 424 163 424Q211 424 244 395Q278 365 278 313Q278 257 228 198Q157 117 104 67H217Q254 67 270 106Q275 117 278 124T287 131T302 127Z" />
<glyph unicode="3" glyph-name="three" horiz-adv-x="318" d="M90 228Q187 249 187 302Q187 333 171 354T125 375Q87 375 53 341Q46 343 46 359Q64 383 95 403T166 424Q198 424 220 410T254 380T265 341T256 302T235 274Q214 253 193 246Q250 239 280 194Q292
175 292 143T277 83T236 36Q184 -4 115 -4Q83 -4 60 4T26 20Q18 33 18 47T27 72T51 84T77 73T96 52Q119 24 142 24Q204 24 204 117Q204 156 184 184Q164 213 132 213Q122 213 96 207Q90 213 90 222V228Z" />
<glyph unicode="4" glyph-name="four" horiz-adv-x="325" d="M262 3Q247 -3 213 -3T179 5V115H11Q4 118 4 131L231 416L238 422Q240 425 243 425T254 419T262 407V160H292Q295 160 298 152T301 132T295 115H262V3ZM179 308Q170 297 153 274T116 228T81 185T61
160H179V308Z" />
<glyph unicode="5" glyph-name="five" horiz-adv-x="319" d="M160 202T144 209T102 216T53 207Q47 207 47 220L50 233Q52 246 56 265T64 308T72 353T79 393T84 419H201Q237 419 262 426Q264 425 267 424T271 418T268 404T260 384Q249 359 246 354Q177 348 143
348H103L88 271Q120 279 151 279T205 269T248 242Q290 203 290 152Q290 85 235 40Q182 -4 117 -4Q85 -4 62 4T28 20Q20 30 20 45T28 72T52 84T78 73T96 52Q120 24 143 24Q205 24 205 117Q205 160 174 190Q160 202 144 209Z" />
<glyph unicode="6" glyph-name="six" horiz-adv-x="330" d="M121 216Q116 195 116 160T118 104T128 64Q142 24 172 24Q191 24 204 49T217 108T214 160T204 195Q187 228 154 228Q133 228 121 216ZM280 409Q164 361 129 251Q156 267 181 267T229 260T268 238Q304
203 304 137Q304 79 260 37Q218 -4 164 -4Q109 -4 69 46Q30 94 30 154T53 260T113 344T195 401T275 426Q282 420 280 409Z" />
<glyph unicode="7" glyph-name="seven" horiz-adv-x="305" d="M234 420L294 423Q298 423 298 416T293 399T280 373L101 -5Q99 -7 95 -7H90Q76 -7 69 -2T61 9Q98 65 159 185T244 354H91Q61 354 46 317Q42 307 40 302T37 296T29 295T15 300Q18 312 22 329T31 364T39
397T44 420H234Z" />
<glyph unicode="8" glyph-name="eight" horiz-adv-x="337" d="M143 182Q121 154 121 103T151 31Q161 24 180 24T212 39T225 76T217 113T196 142T172 164T152 180L146 183Q143 183 143 182ZM195 249L199 251Q213 273 213 321Q213 363 189 384Q181 391 167 391T141
376T130 341T136 307T152 281Q167 263 187 253Q191 249 195 249ZM172 418Q194 418 216 412T256 394Q295 366 295 323Q295 291 273 267T222 232Q218 230 224 227T246 212T276 186Q312 150 312 110Q312 60 268 27Q227 -4 170 -4Q80 -4 47 51Q35 71 35 96T42 138T62
166Q82 188 119 200Q121 201 115 205T97 221T72 246Q45 281 45 321Q45 362 85 391Q122 418 172 418Z" />
<glyph unicode="9" glyph-name="nine" horiz-adv-x="328" d="M211 206Q215 229 215 263T213 318T204 358Q188 398 160 398Q140 398 127 373T114 314T117 262T128 226Q145 193 178 193Q196 193 211 206ZM203 171Q173 154 149 154T102 161T64 184Q28 217 28 285Q28
341 72 384Q113 426 167 426Q222 426 262 376Q302 328 302 268T278 161T218 77T136 20T56 -4Q49 2 51 13Q114 39 150 79T203 171Z" />
<glyph unicode=":" glyph-name="colon" horiz-adv-x="161" d="M135 234Q135 214 121 200T87 185T51 200T36 235T51 270T86 284T121 269T135 234ZM135 42Q135 22 121 8T87 -7T51 7T36 43T51 78T86 92T121 77T135 42Z" />
<glyph unicode=";" glyph-name="semicolon" horiz-adv-x="165" d="M31 237Q31 257 46 271T81 285Q101 285 114 271T128 237Q128 217 115 201T81 185T46 201T31 237ZM48 -59T54 -45T61 -18T58 1T50 11Q40 26 40 35T42 52T51 68Q66 88 93 88Q113 88 119 83Q129 56
129 40T126 5T118 -22T103 -47T79 -76Q51 -104 35 -111H34Q29 -111 24 -102T19 -90T25 -82T40 -68Z" />
<glyph unicode="&lt;" glyph-name="less" horiz-adv-x="329" d="M292 33L293 30Q293 18 288 4T282 -10H281Q280 -10 279 -9L32 117Q20 123 20 143Q20 154 32 159L278 282Q280 284 281 284Q286 284 292 246Q292 242 290 240L81 138L291 34L292 33Z" />
<glyph unicode="=" glyph-name="equal" horiz-adv-x="300" d="M46 88Q43 88 43 93T45 106Q50 125 57 127H323Q330 127 327 115Q322 93 314 88H46ZM46 183Q43 183 43 188T45 201Q50 220 57 222H323Q330 222 327 210Q322 188 314 183H46Z" />
<glyph unicode="&gt;" glyph-name="greater" horiz-adv-x="329" d="M48 -9L45 -10Q43 -10 42 -5T38 8Q34 22 34 30Q34 34 36 34L247 138L37 240Q34 243 35 246Q43 284 45 284T49 282L296 159Q308 154 308 145Q308 123 296 117L48 -9Z" />
<glyph unicode="?" glyph-name="question" horiz-adv-x="290" d="M76 -7T60 7T44 42T58 78T92 92T126 78T141 44T128 8T95 -7ZM100 141Q96 129 91 129Q83 129 75 137Q62 172 62 202T79 249T118 281Q185 324 185 351Q185 362 176 372T154 383T132 377T114 363T96
349T72 342T47 355T36 382Q36 408 46 416Q65 427 105 427Q116 427 139 422T184 404Q241 370 241 311Q241 258 186 226Q171 217 158 209T128 190Q100 174 100 155V141Z" />
<glyph unicode="@" glyph-name="at" horiz-adv-x="329" d="M353 58Q353 36 368 36Q380 36 395 48T423 80Q454 129 454 187Q454 259 417 304Q376 355 294 355Q244 355 202 333T128 277T80 199T62 105T89 12T151 -51Q169 -62 180 -64T202 -69Q202 -73 193 -77T176
-82Q164 -82 144 -75T102 -51T65 -10Q30 42 30 109Q30 157 49 205T104 293T188 356T290 381T378 366T437 325Q483 273 483 191Q483 114 439 55Q419 28 393 12T340 -5T293 8T273 52V62Q273 67 275 71Q250 26 211 5Q196 -3 183 -3T158 0T137 12Q117 32 117 73T135
153T183 222T248 272T320 292Q365 292 392 284L355 84Q353 80 353 67V58ZM292 257Q253 257 226 206Q199 157 199 98Q199 79 206 71T225 62Q246 62 265 94T296 181L310 248Q305 253 302 255T292 257Z" />
<glyph unicode="A" glyph-name="A" horiz-adv-x="444" d="M139 -3Q88 3 68 3T-4 -3Q-6 -1 -6 7T-5 21Q9 21 23 29T41 42Q54 65 64 88L205 412Q208 418 216 427T232 437T243 432L378 98Q385 82 388 72T396 51T409 35T425 26Q436 22 449 22Q451 17 451 8T450 -3Q390
3 353 3T262 -3Q260 0 260 11T262 22Q287 22 301 34Q307 38 307 42Q307 52 287 97L267 145Q264 148 264 148H131Q129 148 126 145Q121 135 115 120T103 90Q88 57 88 48T95 34T111 26Q127 22 139 22Q142 18 142 9T139 -3ZM141 183Q141 180 176 180H223Q234 180 250
181L251 183V185L197 314L141 185V183Z" />
<glyph unicode="B" glyph-name="B" horiz-adv-x="398" d="M256 321Q256 409 201 409Q189 409 180 408T168 401Q164 393 164 361V245H199Q224 245 240 264T256 321ZM119 434L220 436Q273 436 310 412Q354 384 354 331Q354 282 301 251Q289 244 284 242T278 239T284
237T309 229T344 206Q385 171 385 127Q385 94 366 66T317 21T251 0T191 -3T146 -2Q85 -2 24 -2Q22 1 22 10T24 22Q28 22 41 24Q63 27 67 34Q72 46 72 96V339Q72 387 67 401Q60 411 24 411Q22 415 22 424T24 436Q47 434 72 434H119ZM164 72Q164 41 169 35T186 27T210
26T235 30T258 46Q282 69 282 116Q282 185 238 210Q222 219 199 219H164V72Z" />
<glyph unicode="C" glyph-name="C" horiz-adv-x="425" d="M399 135Q409 135 422 127Q422 120 415 88Q401 28 395 26Q363 15 330 5T250 -5T162 11T90 57Q23 120 23 213Q23 307 90 374Q156 440 251 440Q331 440 389 428L411 328Q411 325 406 322T394 318T385 321Q374
355 356 373Q319 412 257 412Q191 412 158 357Q129 309 129 232Q129 146 162 90Q201 24 271 24Q338 24 370 76Q386 100 392 116T399 135Z" />
<glyph unicode="D" glyph-name="D" horiz-adv-x="481" d="M165 395T165 385T164 234V85Q164 56 170 41Q173 34 185 30T211 26Q292 26 330 71T368 214Q368 308 321 360Q277 409 201 409Q189 409 180 408T168 401ZM119 434Q162 434 220 436Q335 436 404 380Q473
322 473 222Q473 110 398 52Q330 -2 215 -2Q120 -2 24 -2Q22 1 22 10T24 22Q28 22 41 24Q63 27 67 34Q72 46 72 96V339Q72 387 67 401Q60 411 24 411Q22 415 22 424T24 436Q47 434 72 434H119Z" />
<glyph unicode="E" glyph-name="E" horiz-adv-x="403" d="M352 341Q348 337 341 337Q329 337 327 343Q316 370 301 389T255 409H201Q189 409 180 408T168 401Q164 393 164 361V243Q164 236 193 236H228Q256 236 265 243T278 259T286 282Q286 287 294 287T306 284V157Q303
154 295 154T285 160Q276 194 263 199T207 205T164 195V85Q164 56 170 41Q176 28 213 28H256Q296 28 316 48T353 112Q354 116 360 116Q378 116 382 112Q377 99 372 84T362 53Q350 22 346 -1Q230 -1 114 -1L24 -2Q22 1 22 10T24 22Q28 22 41 24Q63 27 67 34Q72 46
72 96V339Q72 387 67 401Q60 411 24 411Q22 415 22 424T24 436Q47 434 72 434H119L333 438Q340 393 352 341Z" />
<glyph unicode="F" glyph-name="F" horiz-adv-x="355" d="M352 341Q348 337 341 337Q329 337 327 343Q316 370 301 389T255 409H201Q189 409 180 408T168 401Q164 393 164 361V240Q164 233 193 233H228Q256 233 265 240T278 256T286 279Q286 284 294 284T306 281V154Q304
152 296 152T285 157Q276 191 262 197Q252 202 208 202T164 193V96Q164 74 164 59T168 38T176 29T188 24Q199 22 212 22Q214 18 214 9T212 -3Q118 6 24 -3Q22 0 22 9T24 22Q45 22 55 26T67 34Q72 46 72 96V339Q72 387 67 401Q60 411 24 411Q22 415 22 424T24 436Q47
434 72 434H119L333 438Q340 393 352 341Z" />
<glyph unicode="G" glyph-name="G" horiz-adv-x="446" d="M389 428L411 328Q411 325 406 322T394 318T385 321Q374 355 357 373Q320 412 259 412Q190 412 157 355Q129 306 129 229Q129 147 164 88Q203 24 269 24Q298 24 320 34Q322 36 324 37T326 44V137Q326 157
318 162T302 170Q290 172 279 172Q277 172 277 183T279 197Q329 193 375 193T461 197Q463 190 463 181T460 172Q456 172 443 170T426 164Q417 159 417 135V65L421 46Q421 38 398 28Q366 17 331 6T250 -5T162 11T90 57T41 126T23 212T41 300T90 373T162 422T251
440Q331 440 389 428Z" />
<glyph unicode="H" glyph-name="H" horiz-adv-x="446" d="M369 2Q326 2 276 -3Q274 0 274 9T276 22Q297 22 307 26T318 34Q323 46 323 96V205L322 207V208Q304 209 285 209Q244 209 216 209T179 209T168 208T165 207Q164 206 164 205V96Q164 74 164 59T168 38T176
29T188 24Q199 22 212 22Q214 18 214 9T212 -3Q118 6 24 -3Q22 0 22 9T24 22Q45 22 55 26T67 34Q72 46 72 96V339Q72 387 67 401Q60 412 24 412Q22 416 22 425T24 437Q74 432 119 432Q162 432 212 437Q214 434 214 425T212 412Q193 412 182 408T170 401Q165 390
165 375T164 339V245Q164 244 165 244Q168 241 227 241T323 243V244L324 246L323 339Q323 387 318 401Q314 412 276 412Q274 416 274 425T276 437Q326 432 371 432T463 437Q465 434 465 425T463 412Q444 412 433 408T421 401Q416 387 416 339V96Q416 46 419 39T427
29T440 24Q452 22 463 22Q466 18 466 9T463 -3Q416 2 369 2Z" />
<glyph unicode="I" glyph-name="I" horiz-adv-x="219" d="M24 437Q74 432 119 432Q162 432 212 437Q214 434 214 425T212 412Q193 412 182 408T170 401Q165 390 165 375T164 339V96Q164 74 164 59T168 38T176 29T188 24Q199 22 212 22Q214 18 214 9T212 -3Q118
6 24 -3Q22 0 22 9T24 22Q45 22 55 26T67 34Q72 46 72 96V339Q72 387 67 401Q60 412 24 412Q22 416 22 425T24 437Z" />
<glyph unicode="J" glyph-name="J" horiz-adv-x="239" d="M124 432Q170 432 217 437Q219 434 219 425T217 412Q198 412 187 408T175 401Q170 387 170 339V94Q170 -19 118 -81T-26 -144Q-35 -144 -46 -140T-63 -132Q-74 -118 -74 -103T-62 -73T-37 -59T-14 -66T4
-81T19 -97T38 -104T58 -89T71 -48Q77 -9 77 89V339Q77 387 72 401Q68 412 30 412Q28 416 28 425T30 437Q80 432 124 432Z" />
<glyph unicode="K" glyph-name="K" horiz-adv-x="494" d="M24 437Q74 432 119 432Q162 432 212 437Q214 434 214 425T212 412Q193 412 182 408T170 401Q165 390 165 375T164 339V222Q214 262 231 280L260 308Q290 339 319 376Q325 384 325 398T288 413Q282 425
287 437L373 432Q408 432 455 437Q457 433 457 425T453 414Q432 414 410 404T379 385L255 257Q250 251 253 246L372 86Q403 46 442 31Q466 22 481 22Q483 18 483 9T481 -3Q453 -5 405 -5T332 11T294 44L178 199Q175 202 171 202Q167 202 164 198V96Q164 74 164
59T168 38T176 29T188 24Q199 22 212 22Q214 18 214 9T212 -3Q118 6 24 -3Q22 0 22 9T24 22Q45 22 55 26T67 34Q72 46 72 96V339Q72 387 67 401Q60 412 24 412Q22 416 22 425T24 437Z" />
<glyph unicode="L" glyph-name="L" horiz-adv-x="362" d="M119 432Q162 432 212 437Q214 434 214 425T212 412Q193 412 182 408T170 401Q165 390 165 375T164 339V85Q164 56 170 41Q176 28 213 28H256Q296 28 316 48T353 112Q354 116 360 116Q378 116 382 112Q377
99 372 84T362 53Q350 22 346 -1Q230 -1 114 -1L24 -2Q22 1 22 10T24 22Q28 22 41 24Q63 27 67 34Q72 46 72 96V339Q72 387 67 401Q60 412 24 412Q22 416 22 425T24 437Q74 432 119 432Z" />
<glyph unicode="M" glyph-name="M" horiz-adv-x="583" d="M75 103L86 383Q86 399 76 404Q57 412 40 412Q37 417 38 426T40 437Q63 436 76 435T112 433L181 437L306 157L308 156Q311 156 311 160L339 230Q398 377 411 434Q411 434 420 434L451 433Q451 433 464
433Q479 433 559 437Q561 435 562 426T562 412Q557 412 545 410T527 404Q517 397 518 379T520 327T522 253T525 173T528 106Q531 50 537 34Q539 25 570 22Q576 22 578 22Q584 8 579 -3Q519 3 487 3T386 -3Q384 -1 384 8T385 22Q406 22 417 26T431 34Q436 46 436
57V98L430 301Q430 345 424 345Q422 345 421 341L305 26Q298 12 290 6T277 -1Q273 -1 271 0L123 345Q121 294 121 262T119 204Q116 130 115 103Q113 58 117 43Q119 31 164 24Q173 22 175 22Q177 18 177 10T176 -3Q156 -1 136 1T99 3T12 -3Q6 9 11 21Q32 21 48 30T66
43T69 55T72 72T74 90T75 103Z" />
<glyph unicode="N" glyph-name="N" horiz-adv-x="494" d="M21 412T21 423T23 437Q39 436 57 434T101 432T170 437Q188 396 318 242Q351 202 381 164Q383 167 383 175V314Q383 371 376 399Q369 413 322 413Q321 413 321 423T322 438Q345 436 362 434T403 432T486
438Q487 435 487 426T484 412Q459 412 446 407T430 398T427 384T425 362Q423 338 423 316V92Q423 38 426 -1Q424 -3 418 -3H409Q399 -3 389 12L120 343V104Q120 64 127 40Q132 28 171 23Q179 22 181 22Q184 17 184 9T183 -3Q123 3 100 3T60 1T19 -3Q17 2 17 12T19
22Q40 22 55 28T73 40Q80 56 80 106V339Q80 396 60 404Q42 412 24 412Q21 412 21 423Z" />
<glyph unicode="O" glyph-name="O" horiz-adv-x="497" d="M320 372T295 392T236 412T183 396T151 356Q129 311 129 240Q129 153 158 94Q194 22 261 22Q316 22 343 78Q366 124 366 193Q366 281 336 340Q320 372 295 392ZM247 440Q291 440 331 423T403 375T453 303T472
216Q472 170 454 130T404 59T332 11T247 -7Q159 -7 92 58Q60 89 42 129T23 216Q23 262 41 303T92 374Q159 440 247 440Z" />
<glyph unicode="P" glyph-name="P" horiz-adv-x="388" d="M212 -3Q118 6 24 -3Q22 0 22 9T24 22Q45 22 55 26T67 34Q72 46 72 96V339Q72 387 67 401Q60 411 24 411Q22 415 22 424T24 436Q47 434 72 434H119L220 436Q284 436 327 405Q372 373 372 318Q372 262 330
224Q292 189 240 189Q222 189 210 195T195 204T190 217T191 226Q198 223 220 223T258 247T274 299T269 346T254 378Q231 409 201 409Q189 409 180 408T168 401Q164 393 164 361V96Q164 74 164 59T168 38T176 29T188 24Q199 22 212 22Q214 18 214 9T212 -3Z" />
<glyph unicode="Q" glyph-name="Q" horiz-adv-x="481" d="M513 -43Q520 -43 520 -55V-59Q493 -73 457 -83T392 -94T339 -83T292 -56T246 -24T195 0Q123 18 74 78Q23 140 23 216Q23 262 41 303T92 374Q159 440 247 440Q291 440 331 423T403 375T453 303T472 221T460
146T426 84Q382 27 315 5Q338 -6 354 -16T386 -34Q419 -49 462 -49Q482 -49 495 -46T513 -43ZM320 372T295 392T236 412T183 396T151 356Q129 311 129 240Q129 153 158 94Q194 22 261 22Q316 22 343 78Q366 124 366 193Q366 281 336 340Q320 372 295 392Z" />
<glyph unicode="R" glyph-name="R" horiz-adv-x="490" d="M119 434L220 436Q321 436 354 368Q365 345 365 320T356 277T332 244Q305 216 275 209L371 86Q401 47 442 31Q464 22 480 22Q483 18 482 9T480 -3Q452 -5 404 -5T331 11T293 44L186 187Q184 189 181 193T174
197H164V96Q164 74 164 59T168 38T176 29T188 24Q199 22 212 22Q214 18 214 9T212 -3Q118 6 24 -3Q22 0 22 9T24 22Q45 22 55 26T67 34Q72 46 72 96V339Q72 387 67 401Q60 411 24 411Q22 415 22 424T24 436Q47 434 72 434H119ZM257 374Q238 409 201 409Q189 409
180 408T168 401Q164 393 164 361V223H195Q224 223 245 247T267 313T257 374Z" />
<glyph unicode="S" glyph-name="S" horiz-adv-x="315" d="M167 21Q191 21 210 35T229 85Q229 115 192 148Q177 162 160 173T128 194T96 217T64 244Q35 277 35 323Q35 372 80 408Q122 442 176 442Q205 442 230 436T286 424Q289 398 290 371T294 314Q290 310 287
310Q268 310 267 315Q262 348 240 378Q214 414 179 414Q159 414 141 402T123 357Q123 314 218 251Q234 240 251 229T283 202Q315 166 315 115Q315 62 270 27Q227 -7 172 -7Q114 -7 46 11Q36 64 34 90T30 123Q32 126 39 129T52 132T58 127Q63 95 92 60Q126 21 167
21Z" />
<glyph unicode="T" glyph-name="T" horiz-adv-x="419" d="M302 -3Q208 6 114 -3Q112 0 112 9T114 22Q135 22 145 26T156 34Q161 44 161 59T162 96V405H100Q75 405 55 379T30 321Q28 318 23 318Q9 318 4 323L22 444Q24 445 24 445T29 446T39 444T51 440Q72 434
98 434H317Q354 434 376 444Q381 446 385 446T394 444L412 323Q407 318 397 318T386 321Q380 355 365 373Q340 405 315 405H254V96Q254 46 259 34Q263 22 302 22Q304 18 304 9T302 -3Z" />
<glyph unicode="U" glyph-name="U" horiz-adv-x="482" d="M318 437Q376 432 399 432T440 434T478 437Q480 434 480 425T478 412Q452 412 441 407T427 397Q418 372 418 317V189Q418 94 363 41Q314 -6 237 -6Q195 -6 158 8T100 49T70 111T61 199V339Q61 360 61 375T57
397T49 406T36 410Q24 412 13 412Q11 416 11 425T13 437Q63 432 107 432T201 437Q203 434 203 425T201 412Q183 412 171 408T158 401Q153 387 153 339V218Q153 184 155 158T168 107T192 71T220 52Q240 42 265 42T309 51T343 80Q377 124 377 204V316Q377 372 368
397Q365 404 350 407Q332 412 318 412Q316 416 316 425T318 437Z" />
<glyph unicode="V" glyph-name="V" horiz-adv-x="464" d="M184 412Q144 412 144 395Q144 382 160 345L258 123Q285 188 303 236T328 301Q343 338 346 347T355 371T360 397Q360 404 344 408Q322 412 307 412Q305 416 305 425T307 437Q365 432 386 432T423 434T459
437Q461 434 461 425T459 412Q421 412 413 401Q403 387 386 346L249 20Q245 11 235 2T219 -7T212 -5T209 2L65 337Q59 351 53 366T42 392T20 408T-3 412Q-6 416 -6 425T-3 437Q44 432 91 432Q134 432 184 437Q186 434 186 425T184 412Z" />
<glyph unicode="W" glyph-name="W" horiz-adv-x="619" d="M479 437Q537 432 558 432T596 434T632 437Q634 434 634 425T632 412Q594 412 585 401Q568 374 558 346L450 26Q445 14 438 4T423 -7T411 2L302 276L218 29Q212 11 205 2T193 -7T183 2L64 337Q54 365 41
391Q35 404 19 408T-4 412Q-7 416 -7 425T-4 437Q46 432 90 432T183 437Q185 434 185 425T183 412Q143 412 143 395Q143 387 148 373T159 345L224 166L312 412Q315 422 321 429T331 437T340 426L453 141L517 344Q531 380 531 397Q531 404 515 407Q494 412 479 412Q477
416 477 425T479 437Z" />
<glyph unicode="X" glyph-name="X" horiz-adv-x="466" d="M14 412T11 412T8 424T11 437Q107 433 118 433T209 437Q210 434 210 423T207 412Q174 412 172 399Q172 392 178 384L251 273Q263 289 278 307T308 343Q339 383 339 391T323 406T290 412Q287 412 287 420Q287
435 289 437Q332 432 376 432T456 437Q458 434 458 423T456 412T446 412T427 408Q400 399 381 378L269 244Q326 157 348 125T384 73T402 48T418 36T438 27Q453 22 467 22Q469 17 469 10T467 -3Q427 1 370 1T257 -3Q254 0 255 11T258 22T267 23T279 26Q295 33 295
40Q295 44 293 48L205 180Q178 147 144 98T109 43T115 34T129 27Q142 22 164 22Q170 10 166 -3Q132 1 83 1T-6 -3Q-8 0 -8 9T-6 22Q22 22 40 31T66 52L183 213L91 354Q82 368 73 383T58 401T46 407T32 410T20 411Z" />
<glyph unicode="Y" glyph-name="Y" horiz-adv-x="413" d="M196 2Q153 2 103 -3Q101 0 101 9T103 22Q124 22 134 26T145 34Q150 46 150 96V191Q150 196 103 282Q50 379 44 391Q36 403 21 407T-1 412Q-4 416 -4 425T-1 437Q46 432 93 432Q136 432 186 437Q188 434
188 425T186 412Q146 412 146 395Q146 392 150 384L230 238Q233 235 313 381Q316 390 316 395T310 404T295 409Q283 412 267 412Q265 416 265 425T267 437Q327 432 345 432T380 434T416 437Q418 434 418 425T416 412Q379 412 367 396Q341 356 300 289Q244 194 244
187L243 96Q243 46 246 39T254 29T267 24Q279 22 290 22Q293 18 293 9T290 -3Q242 2 196 2Z" />
<glyph unicode="Z" glyph-name="Z" horiz-adv-x="419" d="M230 433Q285 433 383 440Q385 439 387 431T390 420T379 400T349 355T308 292L261 222Q205 138 133 31H276Q314 31 339 54Q361 78 374 112Q374 116 381 116Q399 116 403 112Q399 99 394 84T383 54Q370
14 367 1H344L248 0Q139 0 30 0Q27 2 23 8T18 20T20 28L272 403H151Q89 403 67 344Q61 328 55 313Q55 309 48 309Q31 309 28 312L51 437Q67 433 111 433H230Z" />
<glyph unicode="[" glyph-name="bracketleft" horiz-adv-x="220" d="M49 493Q49 508 62 508Q150 508 197 519Q201 519 201 513T199 501T195 496Q180 488 157 485T120 478V-50Q134 -53 157 -56T195 -68Q201 -74 201 -85Q201 -91 197 -91Q154 -81 62 -81Q49 -79
49 -65V493Z" />
<glyph unicode="\" glyph-name="backslash" horiz-adv-x="293" d="M18 498Q20 502 35 502T55 492Q111 351 143 271T193 146T225 64T248 6T257 -17T252 -21T240 -24Q224 -24 219 -12L18 498Z" />
<glyph unicode="]" glyph-name="bracketright" horiz-adv-x="227" d="M5 519Q52 508 140 508Q146 508 149 503T152 493V-65Q152 -79 140 -81Q47 -81 5 -91Q1 -91 1 -85Q1 -74 7 -68Q22 -60 45 -57T82 -50V478Q68 481 45 484T7 496Q6 496 4 501T1 512T5 519Z" />
<glyph unicode="^" glyph-name="asciicircum" horiz-adv-x="247" d="M110 432Q117 442 124 442T140 426T158 393T177 360Q198 321 220 288Q220 283 216 280T207 277Q176 306 157 328T123 367Q109 351 96 336Q73 310 38 277Q34 277 30 280T25 288Q58 342 68 359T88
393T110 432Z" />
<glyph unicode="_" glyph-name="underscore" horiz-adv-x="321" d="M10 -28Q2 -28 8 -7Q10 -1 11 4T15 9H312Q314 9 314 3T308 -24Q304 -32 304 -28H10Z" />
<glyph unicode="`" glyph-name="grave" horiz-adv-x="164" d="M59 394T44 409T29 432T35 446T54 453Q78 453 84 445T101 422T122 392Q143 360 143 357T140 349T133 345T113 355T78 380Z" />
<glyph unicode="a" glyph-name="a" horiz-adv-x="303" d="M148 41Q161 41 168 46T176 55V147Q165 142 154 138T130 125Q108 110 108 85T122 51T148 41ZM296 51Q301 48 301 42T298 30Q292 24 277 14Q250 -4 232 -4T200 6T180 29Q166 15 141 5T101 -5T71 2T44 20Q19
45 19 70T29 109T51 127T78 137T112 150Q135 158 176 174V205Q176 230 165 250T136 271T111 255T100 222Q92 187 61 187Q48 187 38 195T27 214Q27 228 36 246Q47 257 72 270Q123 296 163 296T232 268T261 195V72Q261 58 266 52T277 45T289 48L296 51Z" />
<glyph unicode="b" glyph-name="b" horiz-adv-x="334" d="M35 22Q43 40 43 100V368Q43 390 40 396T32 405T20 408Q5 412 -1 412Q-3 412 -3 421T-1 433Q55 438 89 448T126 459Q133 457 136 447Q129 419 129 381V274Q129 272 129 268T133 265T144 273T161 284Q181
296 204 296T252 286T296 256Q335 217 335 156Q335 81 279 36Q230 -5 158 -5Q132 -5 110 2T73 10T51 5Q49 5 42 11T35 22ZM165 247Q145 247 131 233Q129 231 129 227V65Q129 48 140 36T170 24T200 33T222 58Q240 90 240 129Q240 197 218 222T165 247Z" />
<glyph unicode="c" glyph-name="c" horiz-adv-x="281" d="M271 82Q279 80 279 74V64Q279 58 266 44T236 20Q199 -6 165 -6T105 3T61 31Q19 71 19 132Q19 194 71 244Q124 296 191 296Q238 296 258 284Q271 271 271 255T261 225T235 211T210 221T193 241Q175 261
148 261Q128 261 114 231Q102 205 102 170T111 112T134 75Q160 49 193 49T243 60T271 82Z" />
<glyph unicode="d" glyph-name="d" horiz-adv-x="330" d="M222 11V22Q222 26 219 24T208 17T189 7Q138 -16 94 6Q49 27 30 78Q20 103 20 138T38 204T84 255T140 284T192 294T219 293Q222 293 222 308V368Q222 389 218 400Q215 406 200 409T178 412Q176 412 176
421T178 433Q234 438 269 448T306 459T312 454T315 447Q308 419 308 381V71Q308 63 308 57T314 46Q320 40 344 40Q346 36 346 30T342 18Q324 17 291 9Q232 -5 227 -5T222 11ZM180 37Q194 37 208 46T222 61V231Q222 240 207 250T174 261T144 253T126 230Q114 203
114 155T131 72T180 37Z" />
<glyph unicode="e" glyph-name="e" horiz-adv-x="287" d="M106 186Q108 186 119 186T145 188Q177 189 191 191Q200 192 200 202T198 225T191 246Q180 268 163 268T135 259T118 236Q106 210 106 186ZM264 168Q204 163 106 160Q106 99 140 70Q166 49 196 49T244
60T272 82Q280 80 280 71T277 57T263 41T238 20Q200 -6 165 -6T105 3T61 31Q20 70 20 132Q20 196 64 244Q111 295 166 295Q225 295 256 260Q282 232 282 195Q282 184 277 176T264 168Z" />
<glyph unicode="f" glyph-name="f" horiz-adv-x="206" d="M107 2Q66 2 16 -3Q14 0 14 9T16 22Q37 22 47 26T59 34Q64 46 64 96V251H17Q14 253 14 260Q22 272 35 282H64V292Q64 355 114 410Q135 434 158 447T200 461Q219 461 243 454Q251 449 260 443T269 422T261
393T236 378T211 386T190 404T165 413Q157 413 151 398T145 359Q145 330 148 282H225Q229 282 229 273T214 251H150V96Q150 46 153 39T161 29T174 24Q186 22 197 22Q200 18 200 9T197 -3Q150 2 107 2Z" />
<glyph unicode="g" glyph-name="g" horiz-adv-x="315" d="M292 242Q265 244 258 245T251 244Q265 223 265 200T256 159T230 128Q194 98 145 98Q126 98 111 101Q106 96 101 91T95 80T105 69T130 64T171 64T217 64T253 54T281 34Q302 13 302 -13T287 -64T247 -106Q193
-144 125 -144Q76 -144 46 -123T15 -68Q15 -48 33 -31T71 -4Q54 1 43 20T31 61Q31 77 86 109Q57 120 41 142T24 190T33 232T59 264Q93 292 144 292Q189 292 214 276Q216 274 218 274L301 282Q308 278 308 275T303 258T292 242ZM98 -9Q87 -23 87 -38Q87 -71 109
-89T160 -107T205 -102T229 -88Q244 -75 244 -53T223 -20T170 -9H98ZM141 268Q109 268 105 226Q104 214 104 202T106 175T114 148Q127 122 151 122Q183 122 184 166Q185 177 185 189T183 215T176 242Q164 268 141 268Z" />
<glyph unicode="h" glyph-name="h" horiz-adv-x="381" d="M185 -3Q138 2 99 2T9 -3Q7 0 7 9T9 22Q30 22 40 26T51 34Q56 44 56 59T57 96V368Q57 390 54 396T46 405T34 408Q20 412 13 412Q11 412 11 421T13 433Q80 440 130 456Q139 459 140 459Q147 457 150 447Q148
435 146 424Q143 409 143 380V242Q145 242 150 247T166 261T190 278Q219 294 244 294T286 285T314 256Q331 222 331 139V96Q331 46 334 39T342 29T355 24Q367 22 378 22Q380 18 380 9T378 -3Q328 2 292 2T205 -3Q203 0 203 9T205 22Q235 22 239 33Q245 46 245 96V148Q245
241 201 241Q182 241 168 232Q143 214 143 204V96Q143 46 146 39T154 29T165 24Q175 22 185 22Q188 18 188 9T185 -3Z" />
<glyph unicode="i" glyph-name="i" horiz-adv-x="185" d="M159 283Q157 278 152 246V96Q152 46 155 39T163 29T174 24Q184 22 195 22Q197 18 197 9T195 -3Q145 2 109 2Q68 2 18 -3Q16 0 16 9T18 22Q39 22 49 26T61 34Q66 46 66 96V182Q66 190 64 206T60 226Q53
239 18 239Q16 240 16 249T19 259Q57 262 93 273T148 294Q151 293 155 289T159 283ZM55 407Q55 427 68 440T102 454Q122 454 136 441T150 407Q150 387 136 373T102 359Q82 359 69 373T55 407Z" />
<glyph unicode="j" glyph-name="j" horiz-adv-x="168" d="M-1 -144Q-11 -139 -11 -134T-10 -129T1 -121T24 -94Q56 -43 56 42V182Q56 190 54 206T50 226Q45 236 16 238Q10 239 9 239T7 249T9 259Q47 262 83 273T138 294Q142 293 145 289T149 283Q147 279 145 266T143
244T142 221V79Q142 -23 110 -67Q88 -98 51 -122Q18 -144 -1 -144ZM74 358T60 372T45 406T59 441T94 455Q114 455 128 441T143 407T129 372T94 358Q74 358 60 372Z" />
<glyph unicode="k" glyph-name="k" horiz-adv-x="369" d="M270 287H293Q302 287 368 290Q371 285 370 277T366 267Q321 261 306 250T267 218T214 169Q257 119 275 100T307 65T332 42T352 29Q364 24 386 24Q389 18 388 12T386 4Q365 -4 327 -4Q263 -4 229 35Q195
69 151 124Q149 126 149 127T143 133V96Q143 46 146 39T154 29T166 24Q177 22 190 22Q192 18 192 9T190 -3Q140 2 100 2T9 -3Q7 0 7 9T9 22Q30 22 40 26T51 34Q56 44 56 59T57 96V368Q57 390 54 396T46 405T34 408Q20 412 13 412Q11 412 11 421T13 433Q80 440 130
456Q139 459 140 459Q147 457 150 447Q148 435 146 424Q143 409 143 380L142 156Q158 162 192 190T237 232T249 250T244 258T232 263Q220 267 207 267Q205 272 205 280T209 290Q225 289 240 288T270 287Z" />
<glyph unicode="l" glyph-name="l" horiz-adv-x="171" d="M190 -3Q140 2 100 2T9 -3Q7 0 7 9T9 22Q30 22 40 26T51 34Q56 44 56 59T57 96V368Q57 390 54 396T46 405T34 408Q20 412 13 412Q11 412 11 421T13 433Q80 440 130 456Q139 459 140 459Q147 457 150 447Q148
435 146 424Q143 409 143 380V96Q143 46 146 39T154 29T166 24Q177 22 190 22Q192 18 192 9T190 -3Z" />
<glyph unicode="m" glyph-name="m" horiz-adv-x="561" d="M109 2Q68 2 18 -3Q16 0 16 9T18 22Q39 22 49 26T61 34Q66 46 66 96V182Q66 190 64 206T60 226Q53 239 18 239Q16 240 16 249T19 259Q57 262 93 273T148 294Q151 293 155 289T158 283Q154 266 153 254T153
242Q154 242 155 243T158 245Q172 261 192 273Q227 294 254 294T300 282T331 238Q333 238 338 243T355 258T383 275Q419 294 443 294T485 285T512 256Q529 222 529 139V96Q529 74 529 59T533 38T541 29T554 24Q564 22 577 22Q579 18 579 9T577 -3Q527 2 491 2T404
-3Q402 0 402 9T404 22Q410 22 423 24T438 34Q443 44 443 59T444 96V148Q444 211 420 233Q412 241 401 241T378 237T358 228Q337 215 337 205V201Q340 172 340 139V96Q340 46 343 39T351 29T364 24Q374 22 386 22Q388 18 388 9T386 -3Q336 2 297 2Q263 2 213 -3Q211
0 211 9T213 22Q220 22 233 24T250 36Q254 47 254 96V148Q254 241 210 241Q191 241 177 232Q152 214 152 204V96Q152 46 155 39T163 29T174 24Q184 22 195 22Q197 18 197 9T195 -3Q145 2 109 2Z" />
<glyph unicode="n" glyph-name="n" horiz-adv-x="373" d="M109 2Q68 2 18 -3Q16 0 16 9T18 22Q39 22 49 26T61 34Q66 46 66 96V182Q66 190 64 206T60 226Q53 239 18 239Q16 240 16 249T19 259Q57 262 93 273T148 294Q151 294 155 290T159 283T158 276T155 262Q150
242 153 242Q154 242 155 243T158 245Q172 261 192 273Q227 294 252 294T295 285T323 256Q340 222 340 139V96Q340 46 343 39T351 29T364 24Q376 22 387 22Q390 18 390 9T387 -3Q340 2 297 2Q264 2 214 -3Q212 0 212 9T214 22Q221 22 234 24T250 36Q254 47 254
96V148Q254 241 210 241Q191 241 177 232Q152 214 152 204V96Q152 46 155 39T163 29T174 24Q184 22 195 22Q197 18 197 9T195 -3Q145 2 109 2Z" />
<glyph unicode="o" glyph-name="o" horiz-adv-x="330" d="M166 268Q121 268 116 194Q114 174 114 154T117 111T130 68Q149 23 181 23Q228 23 234 96Q235 115 235 135T231 179T218 222Q199 268 166 268ZM174 295Q208 295 236 284T286 253Q329 211 329 148Q329 86
284 40Q241 -5 175 -5Q106 -5 63 38T20 143Q20 204 64 250Q108 295 174 295Z" />
<glyph unicode="p" glyph-name="p" horiz-adv-x="344" d="M97 -139Q54 -139 7 -144Q5 -141 5 -132T7 -119Q26 -119 37 -115T49 -108Q54 -94 54 -46V182Q54 190 52 206T48 226Q43 236 14 238Q8 239 7 239T5 249T7 259Q45 262 81 273T136 294Q140 293 143 289T147
283T144 275T141 264T142 257T151 264T178 284T220 296T266 284T307 252Q342 212 342 154Q342 83 288 36Q241 -5 180 -5Q166 -5 155 -2T142 1Q140 1 140 -10V-46Q140 -94 145 -108Q149 -119 187 -119Q190 -123 190 -132T187 -144Q139 -139 97 -139ZM140 63Q140
43 154 34T180 24T204 30T224 49Q247 80 247 131T232 214T176 247Q158 247 149 239T140 229V63Z" />
<glyph unicode="q" glyph-name="q" horiz-adv-x="330" d="M354 -144Q304 -139 264 -139T173 -144Q171 -141 171 -132T173 -119Q192 -119 203 -115T215 -108Q220 -94 220 -46V11Q220 14 220 18T216 20T205 13T186 5Q136 -14 94 6Q49 27 30 76Q20 100 20 133T36
196T77 249Q128 294 197 294Q216 294 238 287T275 279T298 284Q314 273 314 267Q306 243 306 192V-46Q306 -67 306 -82T310 -104T318 -113T330 -116Q341 -119 354 -119Q356 -123 356 -132T354 -144ZM203 252T194 256T170 260T143 251T126 228Q114 202 114 171T117
118T128 78Q146 37 181 37Q199 37 209 44T220 53V227Q220 236 212 244Z" />
<glyph unicode="r" glyph-name="r" horiz-adv-x="294" d="M109 2Q68 2 18 -3Q16 0 16 9T18 22Q39 22 49 26T61 34Q66 46 66 96V182Q66 190 64 206T60 226Q53 239 18 239Q16 240 16 249T19 259Q57 262 93 273T148 294Q151 293 155 289T159 283T157 274T155 259T153
242T152 232T154 229T156 229Q174 259 186 271Q212 295 239 295Q269 295 280 284Q288 272 288 258T285 234T276 216Q264 199 248 199Q239 199 233 205T221 216T210 225T195 230T178 224T164 208Q152 190 152 176V96Q152 46 155 39T163 29T174 24Q184 22 195 22Q197
18 197 9T195 -3Q145 2 109 2Z" />
<glyph unicode="s" glyph-name="s" horiz-adv-x="244" d="M29 94Q29 99 39 99T53 92Q60 53 83 35Q100 21 121 21T152 32T162 56T156 77T140 92T118 104Q74 124 44 152Q24 171 24 200T36 247T66 275Q100 296 147 296Q170 296 187 292T221 283Q227 258 231 232T235
202T226 197T211 203Q203 232 193 245Q172 269 141 269Q124 269 114 260T103 236T109 212T125 197T147 185T171 175T196 162T219 145Q242 122 242 92T231 44T202 16Q168 -5 112 -5Q89 -5 68 0T34 9Q32 23 31 45T30 79T29 94Z" />
<glyph unicode="t" glyph-name="t" horiz-adv-x="213" d="M2 260Q10 271 23 282H52V317Q71 334 88 353T121 387Q127 391 132 391T138 387V282H213Q217 282 217 273T202 251H138V88Q138 38 174 38Q185 38 196 44T209 53Q213 49 213 46Q213 37 210 33T200 23T184
11Q158 -5 141 -5T108 -1T80 16Q52 41 52 92V251H5Q2 253 2 260Z" />
<glyph unicode="u" glyph-name="u" horiz-adv-x="343" d="M187 259Q252 264 315 294Q319 293 323 289T327 283Q325 278 322 257T319 221V71Q319 63 319 57T325 46Q331 40 355 40Q357 36 357 30T353 18Q333 17 288 6T240 -5Q234 -5 234 11V22Q234 26 232 25Q187
-3 139 -3Q74 -3 58 70Q54 92 54 115V182Q54 190 52 206T48 226Q43 236 14 238Q8 239 7 239T5 249T7 259Q45 262 81 273T136 294Q140 293 143 289T147 283Q145 279 143 266T141 244T140 221V145Q140 92 150 65T191 37Q205 37 219 45T234 61V182Q234 190 232 206T228
226Q222 239 186 239Q184 240 184 249T187 259Z" />
<glyph unicode="v" glyph-name="v" horiz-adv-x="344" d="M213 292Q241 288 281 288T350 292Q352 290 352 281T350 268Q327 268 314 261T297 246L195 30Q176 -7 166 -7Q163 -7 158 -2L40 243Q33 258 18 263T-2 268Q-5 272 -5 280T-2 292Q5 291 28 290T64 289T111
288T170 292Q173 290 173 281T170 268Q164 268 152 264Q131 258 131 250V246Q131 243 133 240L201 110L253 226Q260 244 260 250T254 260T238 266Q224 268 213 268Q211 270 211 279T213 292Z" />
<glyph unicode="w" glyph-name="w" horiz-adv-x="511" d="M-2 292Q24 288 85 288T170 292Q173 290 173 281T170 268Q164 268 152 264Q131 258 131 250V246Q131 243 133 240L197 114Q208 141 217 162Q240 216 240 221Q240 234 234 243Q226 257 212 262T193 268Q189
272 189 280T192 292Q232 288 286 288T364 292Q367 290 367 281T364 268Q358 268 346 264Q325 258 325 250V246Q325 243 327 240L382 119L427 226Q434 244 434 250T428 260T412 266Q398 268 387 268Q385 270 385 279T387 292Q417 288 452 288T519 292Q521 290 521
281T519 268Q497 268 487 261T474 247L377 29Q368 9 359 1T345 -7T336 -2Q321 36 308 68T283 131T263 182Q242 128 197 29Q189 9 179 1T165 -7T156 -2L40 243Q32 258 17 263T-2 268Q-5 272 -5 280T-2 292Z" />
<glyph unicode="x" glyph-name="x" horiz-adv-x="363" d="M9 292Q49 288 104 288T183 292Q186 290 186 281T183 268Q167 268 160 263T152 254Q152 250 158 244L201 190Q208 198 217 207T234 226Q251 245 251 250T245 260T230 266Q217 268 205 268Q202 270 202
279T204 292Q234 288 258 288T295 288T319 289T340 291T353 292Q355 290 355 281T353 268Q319 268 298 247Q281 228 264 209T222 162L316 44Q326 30 341 26T360 22Q364 17 364 9T361 -3Q341 0 315 0T254 1T185 -3Q183 0 183 9T185 22Q191 22 204 25T217 36Q217
38 215 40T211 46L164 103Q157 95 148 86T130 67Q109 45 109 40T115 30T130 24Q143 22 156 22Q158 19 158 10T156 -3Q121 2 99 2T63 2T38 0T17 -1T3 -3Q1 0 1 9T3 22Q12 22 29 27T59 44Q83 67 100 86T142 131L55 247Q45 260 30 264T10 268Q6 272 6 280T9 292Z"
/>
<glyph unicode="y" glyph-name="y" horiz-adv-x="343" d="M213 292Q241 288 281 288T350 292Q352 290 352 281T350 268Q327 268 314 261T297 246L163 -37Q134 -93 97 -123Q71 -144 48 -144T14 -134T2 -107T17 -78Q56 -78 81 -69T126 -26Q136 -11 149 20L40 243Q33
258 18 263T-2 268Q-5 272 -5 280T-2 292Q5 291 28 290T64 289T111 288T170 292Q173 290 173 281T170 268Q164 268 152 264Q131 258 131 250V246Q131 243 133 240L201 110L253 226Q260 244 260 250T254 260T238 266Q224 268 213 268Q211 270 211 279T213 292Z"
/>
<glyph unicode="z" glyph-name="z" horiz-adv-x="286" d="M23 188Q29 214 35 286Q46 285 56 284Q78 282 98 282H189Q234 282 274 288Q276 283 276 278V272L115 30H191Q218 30 238 54Q255 73 260 97Q262 102 268 102Q278 102 285 95Q272 50 259 0H24Q18 3 18 10T20
22L168 251H142L100 252Q69 252 53 210Q49 199 46 190Q46 185 35 185T23 188Z" />
<glyph unicode="{" glyph-name="braceleft" horiz-adv-x="210" d="M69 280Q69 293 66 303T60 325Q51 358 51 378T65 422T100 462T141 490T174 502Q176 502 178 496T178 484Q163 477 150 461Q127 431 127 408T130 374T136 355Q145 328 145 303Q145 265 113 232Q100
218 86 211T63 203Q72 203 86 196T113 175Q145 143 145 104Q145 77 139 60T130 33T127 6T132 -24T146 -48Q161 -68 178 -78Q181 -82 179 -88T174 -95Q162 -94 141 -84T100 -56Q51 -14 51 33Q51 50 57 71T66 103T69 127Q69 153 51 171T11 196Q9 198 9 202T11 211Q32
217 50 235T69 280Z" />
<glyph unicode="|" glyph-name="bar" horiz-adv-x="127" d="M84 -71Q84 -78 53 -81Q49 -81 49 -80V500Q47 502 53 505Q65 508 79 508Q81 508 82 507T84 504V-71Z" />
<glyph unicode="}" glyph-name="braceright" horiz-adv-x="194" d="M125 280Q125 254 144 236T183 211Q185 209 185 205Q185 205 185 199Q185 197 183 196Q163 189 144 171T125 127Q125 113 131 92T140 60T143 28T129 -16T94 -56T54 -83T21 -95Q19 -95 17 -89T16
-78Q48 -60 62 -24Q68 -11 68 6T65 33T58 52Q49 75 49 104Q49 144 82 175Q111 203 131 203Q110 203 82 232Q49 264 49 303Q49 331 55 347T65 374T68 401T63 431T49 456Q33 477 16 484Q14 489 16 495T21 502Q33 501 53 491T94 462Q143 420 143 374Q143 356 134 325T125
280Z" />
<glyph unicode="~" glyph-name="asciitilde" horiz-adv-x="352" d="M172 180Q155 187 136 194T95 202T58 191T36 171Q32 173 32 179T39 197T58 219Q84 242 110 242Q146 242 195 219Q212 212 231 205T272 197T309 208T331 228Q335 228 335 221T328 202T310 180Q282
158 257 158T210 165T172 180Z" />
<glyph unicode="&#xa0;" glyph-name="nbsp" horiz-adv-x="150" />
<glyph unicode="&#xa2;" glyph-name="cent" horiz-adv-x="281" d="M52 49T41 74T30 131T44 191T82 244Q135 296 202 296Q245 296 269 284Q282 271 282 255T272 225T246 211T221 221T204 241Q186 261 159 261Q139 261 125 231Q113 205 113 170T122 112T145 75Q171
49 204 49T254 60T282 82Q285 81 287 78T290 68T287 57T273 41T248 20Q210 -6 175 -6T115 3T71 31ZM187 317Q210 317 210 312L155 -25Q136 -25 132 -19L187 317Z" />
<glyph unicode="&#xa9;" glyph-name="copyright" horiz-adv-x="423" d="M279 169Q288 169 291 166Q291 155 286 140T280 125Q267 120 252 114T217 108Q175 108 148 132T121 201T151 273Q180 300 220 300Q234 300 249 296T277 290L286 249Q286 245 280 245T273
247T269 256T260 268Q247 283 227 283T197 276T181 258Q169 236 169 205T182 149T225 124Q248 124 258 133T273 155T279 169ZM65 204Q65 173 77 146T109 98Q153 54 215 54Q276 54 322 98Q366 141 366 205Q366 268 322 311Q276 355 215 355Q153 355 109 311T65 204ZM35
205Q35 280 87 332T215 385Q289 385 343 332Q396 281 396 205Q396 129 343 78Q289 25 215 25Q140 25 88 77T35 205Z" />
<glyph unicode="&#xae;" glyph-name="registered" horiz-adv-x="438" d="M174 330L214 331Q239 331 257 318T275 282Q275 261 246 244Q239 240 235 239Q242 229 250 220Q262 206 276 190T301 170T313 166Q315 164 314 160T313 154L284 153Q268 153 259 159T240
177L201 230Q197 234 196 234H192V180Q192 175 194 172Q196 165 211 165Q213 163 213 160T211 154Q203 156 192 156Q173 156 158 156T134 154Q133 156 133 159T134 165Q136 165 143 166T151 171T153 180V291Q153 310 152 314Q150 319 134 319Q133 321 133 325T134
331Q143 330 154 330H174ZM234 280Q234 296 227 307T211 318Q196 318 193 315Q192 312 192 299V247H203Q216 247 225 255T234 280ZM65 238Q65 176 109 132T215 88Q276 88 322 132Q366 175 366 238Q366 300 322 344T215 389Q152 389 109 344Q65 299 65 238ZM35 238Q35
276 49 309T88 366Q140 419 215 419Q289 419 343 366Q396 315 396 239T343 112Q289 59 215 59Q140 59 88 111T35 238Z" />
<glyph unicode="&#xb4;" glyph-name="acute" horiz-adv-x="165" d="M119 453T126 446T133 432T118 410T84 380T49 356T29 345T22 349T18 355T24 367T40 392Q56 418 80 447Q84 453 101 453Z" />
<glyph unicode="&#xbc;" glyph-name="onequarter" horiz-adv-x="495" d="M440 1Q425 -2 420 -2H400Q383 -2 383 3V61H282Q274 65 274 72L418 249Q422 255 425 255T434 251T440 242V91H459Q465 91 465 81L462 61H440V1ZM383 173L315 91H383V173ZM171 -7Q166 -17
147 -22Q135 -24 135 -17L363 438Q370 448 383 451T399 447L171 -7ZM138 410Q130 390 130 354V228Q130 199 136 193Q145 183 168 183Q169 183 169 175T168 166L102 169Q70 169 34 166Q32 168 32 175T34 183Q39 183 50 185T65 192T70 210T73 229V337Q73 368 60 368Q55
368 46 364T30 358Q28 358 26 362T23 371Q23 375 24 376Q46 385 77 399Q126 423 127 423T133 418T138 410Z" />
<glyph unicode="&#xbd;" glyph-name="onehalf" horiz-adv-x="507" d="M298 -1Q297 0 293 8Q321 39 331 51T350 74T374 105Q403 142 403 178Q403 198 390 209T363 220T341 216T327 205T318 194T313 187Q312 187 308 189T303 197Q319 230 358 248Q372 255 389 255Q424
255 444 238T465 190T448 137T414 98Q379 66 349 46H423Q438 46 444 58T454 77T459 84T465 85T473 83Q471 76 467 63T459 37T452 12L447 -1H298ZM156 -7Q151 -17 132 -22Q125 -23 123 -20Q121 -19 121 -17L348 438Q355 448 368 451T384 447L156 -7ZM138 410Q130
390 130 354V228Q130 199 136 193Q145 183 168 183Q169 183 169 175T168 166L102 169Q70 169 34 166Q32 168 32 175T34 183Q39 183 50 185T65 192T70 210T73 229V337Q73 368 60 368Q55 368 46 364T30 358Q28 358 26 362T23 371Q23 375 24 376Q46 385 77 399Q126
423 127 423T133 418T138 410Z" />
<glyph unicode="&#xbe;" glyph-name="threequarters" horiz-adv-x="504" d="M127 372T117 382T87 393T46 372Q44 372 40 375T36 383Q47 398 70 411T109 424T137 421T158 412Q180 396 180 368Q180 342 162 327Q150 318 132 315Q149 315 165 304Q199 280 199 249Q199
208 160 184Q127 162 83 162Q45 162 28 176Q22 185 22 193T27 208T42 216Q58 216 70 196Q80 180 100 180Q140 180 140 234Q140 257 126 274T92 292Q92 292 83 292Q76 292 71 290Q67 298 67 300Q67 306 69 308Q104 313 120 334Q127 343 127 357ZM447 1Q432 -2 428
-2H406Q389 -2 389 3V61H288Q280 65 280 72L425 249Q429 255 432 255T441 251T447 242V91H466Q472 91 472 81L469 61H447V1ZM389 173L322 91H389V173ZM178 -7Q173 -17 153 -22Q146 -23 144 -20Q142 -19 142 -17L370 438Q377 448 393 451Q398 453 401 451T405 447L178
-7Z" />
<glyph unicode="&#xc4;" glyph-name="Adieresis" horiz-adv-x="439" d="M256 526Q256 545 269 557T301 570Q320 570 333 558T346 526Q346 507 333 494T301 481Q282 481 269 494T256 526ZM108 526Q108 545 120 557T152 570Q171 570 184 558T197 526Q197 507 184
494T152 481Q133 481 121 494T108 526ZM135 -3Q84 3 64 3T-8 -3Q-10 -1 -10 7T-9 21Q5 21 19 29T37 42Q50 65 60 88L201 412Q204 418 212 427T228 437T239 432L374 98Q381 82 384 72T392 51T405 35T421 26Q432 22 445 22Q447 17 447 8T446 -3Q386 3 349 3T258 -3Q256
0 256 11T258 22Q283 22 297 34Q303 38 303 42Q303 52 283 97L263 145Q260 148 259 148H127Q125 148 122 145Q117 135 111 120T99 90Q84 57 84 48T91 34T107 26Q123 22 135 22Q138 18 138 9T135 -3ZM137 183Q137 180 172 180H219Q230 180 246 181L247 183V185L193
314L137 185V183Z" />
<glyph unicode="&#xc5;" glyph-name="Aring" horiz-adv-x="434" d="M193 501Q193 486 203 476T227 465T252 475T263 501Q263 516 253 526T228 537T203 527T193 501ZM162 501Q162 528 181 547T227 566T273 547T292 501Q292 474 273 455T228 436T182 455T162 501ZM135
-3Q84 3 65 3T-9 -3Q-11 -1 -11 7T-10 21Q2 21 18 29T36 42Q46 57 59 88L200 412Q203 418 211 427T227 437T238 432L374 98Q380 82 383 72T391 51T404 35T420 26Q431 22 444 22Q446 17 446 8T445 -3Q385 3 348 3T257 -3Q255 0 255 11T257 22Q282 22 296 34Q302
38 302 42Q302 52 288 85T263 145Q263 145 258 148Q239 149 223 149T195 148H126Q124 148 121 145Q116 135 112 125T104 106T96 86Q83 50 83 44T90 34T107 26Q123 22 134 22Q137 18 137 9T135 -3ZM136 183Q136 180 172 180H218Q229 180 245 181L246 183Q246 184
247 185L192 314L136 185V183Z" />
<glyph unicode="&#xc7;" glyph-name="Ccedilla" horiz-adv-x="427" d="M226 -40Q239 -18 246 -1H268Q267 -4 265 -6T259 -17L275 -16Q289 -16 299 -26T310 -55T292 -92T242 -110Q219 -110 207 -98Q205 -94 205 -87T207 -79Q209 -81 219 -85T243 -90T265 -84T272
-69Q272 -46 253 -46Q245 -46 235 -50Q233 -50 230 -47T226 -40ZM399 135Q411 135 422 127Q422 120 415 88Q401 28 395 26Q364 15 331 5T251 -5T163 11T91 57Q24 120 24 213Q24 307 91 374Q157 440 252 440Q331 440 389 428Q390 425 393 410T401 378Q412 331 412
328Q412 325 407 322T395 318T385 321Q378 351 359 371Q320 412 258 412Q193 412 158 357Q129 309 129 232Q129 148 163 90Q201 24 271 24Q339 24 372 76Q387 100 393 116T399 135Z" />
<glyph unicode="&#xc9;" glyph-name="Eacute" horiz-adv-x="397" d="M156 480T153 485T150 493T158 504T178 525Q220 567 234 573Q237 574 241 574T252 573T265 568Q279 561 279 550T262 527T223 505T182 487T160 480ZM352 341Q348 337 341 337Q329 337 327 343Q316
370 301 389T255 409H201Q189 409 180 408T168 401Q164 393 164 361V243Q164 236 193 236H228Q256 236 265 243T278 259T286 282Q286 287 294 287T306 284V157Q303 154 295 154T285 160Q276 194 263 199T207 205T164 195V85Q164 56 170 41Q176 28 213 28H256Q296
28 316 48T353 112Q354 116 360 116Q378 116 382 112Q377 99 372 84T362 53Q350 22 346 -1Q230 -1 114 -1L24 -2Q22 1 22 10T24 22Q28 22 41 24Q63 27 67 34Q72 46 72 96V339Q72 387 67 401Q60 411 24 411Q22 415 22 424T24 436Q47 434 72 434H119L333 438Q340
393 352 341Z" />
<glyph unicode="&#xd1;" glyph-name="Ntilde" horiz-adv-x="490" d="M300 523T315 523T341 528T358 539T369 550T375 556T379 554T381 545Q381 532 368 516Q342 484 307 484Q288 484 275 489T247 503Q233 511 220 518T193 525Q172 525 153 509Q146 503 142 497T135
490Q133 490 132 494T130 503Q130 516 143 532Q169 564 200 564T265 544ZM21 412T21 423T23 437Q39 436 57 434T101 432T170 437Q188 396 318 242Q351 202 381 164Q383 167 383 175V314Q383 371 376 399Q369 413 322 413Q321 413 321 423T322 438Q345 436 362 434T403
432T486 438Q487 435 487 426T484 412Q459 412 446 407T430 398T427 384T425 362Q423 338 423 316V92Q423 38 426 -1Q424 -3 418 -3H409Q399 -3 389 12L120 343V104Q120 64 127 40Q132 28 171 23Q179 22 181 22Q184 17 184 9T183 -3Q123 3 100 3T60 1T19 -3Q17
2 17 12T19 22Q40 22 55 28T73 40Q80 56 80 106V339Q80 396 60 404Q42 412 24 412Q21 412 21 423Z" />
<glyph unicode="&#xd7;" glyph-name="multiply" horiz-adv-x="336" d="M256 40Q252 36 248 40L156 132L62 38Q56 35 46 49T34 70L126 162L34 253Q35 261 42 270Q57 290 63 284L156 191L249 285Q254 290 261 282Q274 269 277 253L185 162L277 71Q275 61 256 40Z" />
<glyph unicode="&#xf7;" glyph-name="divide" horiz-adv-x="317" d="M230 285Q230 268 218 255T187 242T156 254T143 285T155 316T186 329T217 316T230 285ZM230 41Q230 24 218 11T187 -2T156 11T143 42T155 72T186 85T217 72T230 41ZM32 147Q29 147 29 152T30
165Q34 182 42 185H339Q346 185 343 173Q337 149 330 147H32Z" />
<glyph unicode="&#x2013;" glyph-name="endash" horiz-adv-x="299" d="M38 134Q41 177 48 177H328Q332 177 332 170T330 148Q326 128 321 128H42Q41 127 40 128T38 134Z" />
<glyph unicode="&#x2014;" glyph-name="emdash" horiz-adv-x="506" d="M38 134Q41 177 48 177H582Q586 177 586 170T584 149T580 132L578 129Q577 128 576 128H42Q41 127 40 128T38 134Z" />
<glyph unicode="&#x2018;" glyph-name="quoteleft" horiz-adv-x="159" d="M36 320Q26 335 26 362T36 407T60 438T85 458T99 465Q108 465 113 453Q83 436 78 423T73 400Q73 386 82 375T96 358T101 344T89 324T67 313Q45 313 36 320Z" />
<glyph unicode="&#x2019;" glyph-name="quoteright" horiz-adv-x="152" d="M100 459Q110 444 110 417T100 372T76 340T52 320T38 313Q27 313 24 325Q53 343 58 356T63 378Q63 396 40 421Q36 426 36 435T48 455T70 466Q88 466 100 459Z" />
<glyph unicode="&#x201c;" glyph-name="quotedblleft" horiz-adv-x="267" d="M134 320Q124 335 124 362T134 407T158 438T183 458T197 465Q206 465 211 453Q181 436 176 423T171 400Q171 381 194 358Q199 353 199 344T187 324T158 313Q143 313 134 320ZM36 319Q26
334 26 361T36 406T60 438T85 458T99 465Q108 465 113 453Q83 435 78 422T73 400Q73 385 82 374T96 357T101 343T89 323T67 312Q48 312 36 319Z" />
<glyph unicode="&#x201d;" glyph-name="quotedblright" horiz-adv-x="263" d="M100 459Q110 444 110 417T100 372T76 340T52 320T38 313Q27 313 24 325Q53 343 58 356T63 378Q63 396 40 421Q36 426 36 435T48 455T70 466Q88 466 100 459ZM206 440Q213 401 200
378T174 341T149 321T135 314Q126 314 121 326Q151 344 156 357T161 379Q161 398 138 421Q133 426 133 435T145 456T174 467Q188 467 198 459Q203 453 206 440Z" />
</font>
</defs>
</svg>
