<?xml version="1.0" standalone="no"?>
<!DOCTYPE svg PUBLIC "-//W3C//DTD SVG 1.1//EN" "http://www.w3.org/Graphics/SVG/1.1/DTD/svg11.dtd">
<svg xmlns="http://www.w3.org/2000/svg">
<defs >
<font id="Tienne" horiz-adv-x="1213" ><font-face
    font-family="Tienne"
    units-per-em="2048"
    panose-1="2 4 6 3 4 5 6 3 2 4"
    ascent="2030"
    descent="-724"
    alphabetic="0" />
<glyph unicode=" " glyph-name="space" horiz-adv-x="532" />
<glyph unicode="!" glyph-name="exclam" horiz-adv-x="704" d="M429 403Q397 391 358 391Q332 391 317 395T292 408T280 433T275 470L240 1135Q235 1235 227 1301T219 1392Q219 1399 219 1405T220 1419Q242 1438 273 1447T353 1457Q416 1457 441 1433T466 1358Q466
1352 466 1344T465 1315T462 1259T457 1162T449 1011T437 791Q432 694 429 620T425 493Q425 469 426 446T429 403ZM351 -22Q315 -22 289 -11T246 20T220 64T211 115Q211 140 220 165T246 211T290 243T351 256Q385 256 411 244T455 211T482 166T491 115Q491 89 483
65T457 21T413 -10T351 -22Z" />
<glyph unicode="&quot;" glyph-name="quotedbl" horiz-adv-x="792" d="M277 983Q266 973 252 966T215 959Q192 959 179 969T158 994T149 1030T144 1072L128 1260Q124 1305 121 1351T117 1450Q134 1470 160 1482T226 1494Q274 1494 292 1473T311 1409Q311 1387
310 1370T307 1337L277 983ZM642 983Q631 974 617 967T580 959Q557 959 544 968T524 993T514 1027T509 1067L493 1260Q489 1305 486 1351T481 1450Q499 1470 525 1482T591 1494Q639 1494 657 1473T675 1409Q675 1368 672 1337L642 983Z" />
<glyph unicode="#" glyph-name="numbersign" horiz-adv-x="1240" d="M845 445L768 73H714Q680 73 660 80T630 107Q633 131 641 164T657 240L698 445H433L356 73H292Q280 73 267 73T244 77T227 85T220 99Q220 120 225 152T243 240L287 445H82V498Q82 520 83 536T92
562T115 577T157 582H313L368 848H156V920Q156 943 160 956T174 975T198 983T232 985H397L474 1351H529Q563 1351 584 1347T615 1322Q610 1305 608 1285T601 1245L546 985H808L886 1351H939Q965 1351 985 1350T1020 1341Q1020 1336 1020 1332T1021 1319Q1019 1299
1015 1268T999 1188L955 985H1158V933Q1158 910 1157 894T1148 868T1125 853T1083 848H929L872 582H1085V510Q1085 478 1074 464T1038 445H845ZM461 582H726L781 848H517L461 582Z" />
<glyph unicode="$" glyph-name="dollar" horiz-adv-x="1302" d="M724 1468Q787 1468 846 1462T954 1443T1039 1411T1094 1368Q1093 1345 1092 1321T1088 1274L1042 1123L949 1148Q933 1186 912 1218T864 1274T803 1316T724 1340V796Q822 755 902 712T1039 618T1127
503T1158 357Q1158 274 1126 205T1037 86T899 4T724 -34V-238H656Q630 -238 616 -234T594 -221T586 -196T584 -159V-35Q375 -25 200 72Q174 86 159 98T135 132Q135 188 144 244L203 375L303 335Q349 217 416 160T584 91V642Q485 686 407 728T275 820T193 929T164
1068Q164 1153 193 1219T276 1334T408 1414T584 1458V1596H651Q683 1596 700 1586T724 1550V1468ZM372 1167Q367 1153 366 1139T364 1108Q364 1059 379 1021T422 953T492 898T584 853V1343Q493 1331 441 1285T372 1167ZM943 324Q943 370 928 407T885 474T816 531T724
583V89Q773 96 813 116T882 166T927 236T943 324Z" />
<glyph unicode="%" glyph-name="percent" horiz-adv-x="1643" d="M440 -34L314 13Q335 51 435 216Q478 286 542 392T697 648T911 999T1193 1460Q1232 1448 1251 1438T1281 1420T1297 1406T1312 1392L440 -34ZM405 1375Q324 1375 285 1306T246 1081Q246 928 285
859T405 789Q484 789 523 858T562 1081Q562 1236 523 1305T405 1375ZM718 1081Q718 940 670 857T531 733Q499 719 470 713T411 707Q345 707 287 729T186 798T117 915T92 1083Q92 1180 116 1251T183 1367T283 1435T405 1457Q470 1457 527 1435T626 1368T693 1251T718
1081ZM1237 643Q1158 643 1119 574T1080 349Q1080 195 1119 126T1238 56Q1317 56 1356 125T1395 349Q1395 504 1356 573T1237 643ZM1237 -26Q1168 -26 1110 -2T1010 70T945 188T921 349Q921 441 944 511T1008 629T1108 701T1237 725Q1307 725 1365 701T1464 630T1528
512T1551 349Q1551 258 1528 188T1462 71T1363 -1T1237 -26Z" />
<glyph unicode="&amp;" glyph-name="ampersand" horiz-adv-x="1399" d="M605 657Q537 657 482 638T388 581T327 491T305 369Q305 309 322 259T377 172T477 115T625 94Q695 94 755 113T858 173T926 274T951 421Q951 466 949 507T943 582L935 657H605ZM1367 788V510H1304Q1292
556 1281 584T1254 629T1220 651T1174 657H1104Q1114 587 1123 506T1133 343Q1133 253 1098 183T995 63T829 -11T607 -37Q460 -37 359 -7T194 77T103 206T74 374Q74 434 93 490T151 594T248 676T385 729V734Q323 749 274 777T189 846T135 939T116 1057Q116 1137
145 1204T232 1319T379 1394T585 1421Q657 1421 723 1411T844 1386T942 1352T1009 1318L985 1039H862Q840 1109 817 1159T765 1242T695 1290T600 1306Q527 1306 475 1286T390 1230T340 1147T324 1048Q324 998 342 952T397 869T490 810T625 788H1367Z" />
<glyph unicode="&apos;" glyph-name="quotesingle" horiz-adv-x="429" d="M277 983Q266 974 252 967T215 959Q192 959 179 968T159 993T150 1027T145 1067L128 1260Q124 1302 121 1344T117 1435Q117 1449 126 1460T151 1478T187 1490T227 1494Q273 1494 292 1473T312
1409Q312 1387 311 1370T308 1337L277 983Z" />
<glyph unicode="(" glyph-name="parenleft" horiz-adv-x="588" d="M117 672Q117 792 135 909T189 1135T275 1342T388 1524Q403 1544 422 1550T460 1557Q466 1557 479 1552L522 1532Q466 1440 425 1337T358 1124T318 900T305 672Q305 558 318 444T357 220T425 7T522
-188L479 -208Q466 -213 460 -213Q442 -213 424 -206T388 -180Q325 -99 275 -1T190 207T136 434T117 672Z" />
<glyph unicode=")" glyph-name="parenright" horiz-adv-x="588" d="M471 672Q471 552 453 435T399 208T313 0T200 -180Q183 -199 165 -206T128 -213Q122 -213 109 -208L66 -188Q122 -96 163 7T230 220T270 444T283 672Q283 786 270 900T231 1124T163 1337T66 1532L109
1552Q122 1557 128 1557Q146 1557 165 1551T200 1524Q263 1442 313 1344T398 1136T452 909T471 672Z" />
<glyph unicode="*" glyph-name="asterisk" horiz-adv-x="926" d="M280 743L394 994L126 859L84 1014L370 1080L122 1249L253 1363L430 1139L460 1440L638 1389L521 1126L791 1252L830 1099L549 1041L791 843L659 737L484 982L457 670L280 743Z" />
<glyph unicode="+" glyph-name="plus" horiz-adv-x="1289" d="M716 677H1156V610Q1156 581 1151 566T1135 543T1108 535T1071 533H716V93H648Q619 93 604 98T581 113T573 140T571 177V533H133V601Q133 629 138 644T155 667T182 676T222 677H571V1115H639Q673 1115
690 1105T716 1068V677Z" />
<glyph unicode="," glyph-name="comma" horiz-adv-x="462" d="M118 -316Q87 -316 74 -298L61 -267Q95 -219 122 -149T157 3L160 41Q143 41 128 47T101 63T83 85T76 112Q79 154 91 180T122 222T162 243T205 249Q286 249 316 219T347 137Q347 69 329 5T279 -117T206
-225T118 -316Z" />
<glyph unicode="-" glyph-name="hyphen" horiz-adv-x="683" d="M51 519V589Q51 611 57 623T73 642T99 649T133 651H632V599Q632 565 621 547T584 519H51Z" />
<glyph unicode="." glyph-name="period" horiz-adv-x="600" d="M302 -34Q267 -34 241 -22T198 9T173 53T164 104Q164 130 172 155T198 201T240 233T300 245Q333 245 358 233T401 201T427 156T436 103Q436 78 428 54T404 11T362 -21T302 -34Z" />
<glyph unicode="/" glyph-name="slash" horiz-adv-x="853" d="M771 1518Q836 1518 853 1491Q851 1485 848 1477T835 1444T806 1375T754 1251T670 1054T548 766T378 369T153 -157H81Q18 -157 -3 -126L701 1518H771Z" />
<glyph unicode="0" glyph-name="zero" horiz-adv-x="1277" d="M963 710Q963 878 943 997T881 1191T780 1302T638 1337Q558 1337 498 1302T396 1191T334 996T313 710Q313 546 333 428T395 235T496 123T638 87Q718 87 779 122T881 233T942 427T963 710ZM638 -37Q509
-37 408 13T236 159T129 394T92 710Q92 889 128 1028T235 1263T406 1408T638 1458Q768 1458 870 1409T1042 1264T1148 1029T1185 710Q1185 533 1148 394T1040 159T868 13T638 -37Z" />
<glyph unicode="1" glyph-name="one" horiz-adv-x="986" d="M610 252Q610 210 613 181T624 128Q647 122 672 121T727 119H818V-19Q733 -8 658 -4T511 0Q430 0 353 -5T195 -19V119H284Q313 119 339 120T387 128Q394 151 398 180T403 249V1246Q384 1261 362 1268T307
1275Q294 1275 280 1274T249 1270L154 1253L135 1347Q194 1368 251 1388T361 1423T461 1448T547 1458Q576 1458 589 1450T610 1428V252Z" />
<glyph unicode="2" glyph-name="two" horiz-adv-x="1251" d="M611 1336Q557 1336 502 1319T401 1269T322 1186T279 1071L134 1192Q144 1258 186 1308T292 1391T434 1441T595 1458Q705 1458 790 1430T934 1351T1023 1229T1053 1069Q1053 1008 1038 950T989 831T900
700T765 549T576 367T329 144H726Q761 144 803 149T887 173T969 232T1038 340Q1058 340 1074 335T1101 329Q1101 244 1099 170T1088 27Q1059 18 1026 13T947 5T842 1T699 0H197Q153 0 134 12T104 50Q104 67 108 88T118 134Q287 301 423 441T669 707Q724 770 758
822T811 920T836 1004T843 1079Q843 1209 785 1272T611 1336Z" />
<glyph unicode="3" glyph-name="three" horiz-adv-x="1200" d="M836 1097Q836 1157 815 1202T759 1276T677 1321T581 1336Q529 1336 476 1320T379 1271T303 1190T261 1080L126 1191Q136 1257 177 1307T278 1390T414 1440T567 1457Q653 1457 736 1440T884 1381T990
1270T1030 1095Q1030 1042 1008 989T941 889T830 805T676 748Q876 722 978 632T1081 378Q1081 282 1046 205T947 75T792 -8T590 -37Q505 -37 427 -21T285 24T179 88T121 166Q124 189 127 212T134 261T142 319T155 392L265 373Q265 290 292 235T364 147T465 101T577
87Q648 87 704 110T799 174T858 270T879 389Q879 464 850 518T765 606T630 656T450 672H409V733V791H475Q525 791 587 808T705 863T798 958T836 1097Z" />
<glyph unicode="4" glyph-name="four" horiz-adv-x="1210" d="M900 250Q900 208 903 179T914 126Q937 120 962 119T1017 117H1107V-19Q1026 -8 953 -4T810 0Q729 0 652 -5T494 -19V117H583Q612 117 638 118T686 126Q702 170 702 247V385H75Q35 416 35 472Q39 486
47 498T65 525Q224 754 338 916T529 1186T652 1353T719 1437H807Q837 1437 855 1434T883 1422T896 1398T900 1360V512H1181V458Q1181 432 1177 417T1163 395T1138 387T1101 385H900V250ZM702 512V1194L244 544L226 512H702Z" />
<glyph unicode="5" glyph-name="five" horiz-adv-x="1234" d="M379 836Q449 869 510 881T639 894Q736 894 821 863T969 773T1068 633T1104 449Q1104 336 1070 246T971 93T814 -3T608 -37Q514 -37 443 -26T319 4T231 43T173 85V401L295 389L341 147Q366 134 391
123T446 104T510 92T587 87Q672 87 731 117T828 196T881 305T898 428Q898 589 805 675T533 761Q470 761 407 741T286 672L217 691V1394Q235 1421 261 1429T324 1437H646Q704 1437 754 1438T851 1441T941 1448T1028 1461L1035 1317Q1023 1302 1005 1292T959 1276T894
1268T805 1265Q717 1265 615 1276T386 1312L379 836Z" />
<glyph unicode="6" glyph-name="six" horiz-adv-x="1225" d="M345 577Q345 333 418 210T637 87Q700 87 752 110T841 179T900 290T921 441Q921 519 904 578T855 678T779 740T681 761Q651 761 621 753T562 732T506 703T454 669Q398 629 345 577ZM333 714Q421 802
515 844T715 887Q803 887 879 857T1010 769T1098 630T1130 445Q1130 339 1095 251T993 98T834 -1T626 -37Q504 -37 411 3T254 129T158 346T125 660Q125 855 159 1004T264 1254T445 1406T707 1458Q759 1458 810 1453T908 1438T991 1414T1052 1382L1038 1068H918L886
1281Q832 1310 784 1323T690 1337Q616 1337 561 1309T466 1233T400 1124T359 996T338 862T332 737Q332 731 332 726T333 714Z" />
<glyph unicode="7" glyph-name="seven" horiz-adv-x="1201" d="M111 1381Q165 1410 288 1423T613 1437H1077Q1083 1421 1088 1406T1096 1374T1101 1335T1103 1285L626 188Q603 136 584 99T543 37T493 1T423 -11Q351 -11 330 24Q341 57 357 89L937 1304H500Q433
1304 382 1299T297 1281L271 1067H156L111 1381Z" />
<glyph unicode="8" glyph-name="eight" horiz-adv-x="1174" d="M1030 1108Q1030 1043 1009 992T952 897T870 816T775 740Q833 714 888 680T985 601T1054 498T1080 367Q1080 262 1041 186T934 60T773 -13T575 -37Q472 -37 384 -13T232 58T131 171T94 323Q94 390
110 450T162 562T250 657T379 735Q306 771 256 811T174 898T130 998T116 1111Q116 1196 153 1260T253 1369T399 1435T575 1458Q665 1458 747 1436T893 1369T993 1260T1030 1108ZM506 676Q403 624 346 543T289 356Q289 289 311 239T371 155T461 104T575 87Q650 87
705 107T796 162T850 242T868 335Q868 435 796 512T592 642L506 676ZM837 1099Q837 1156 818 1200T765 1274T682 1321T575 1337Q516 1337 468 1322T386 1276T333 1201T314 1099Q314 1045 335 1000T396 917T491 850T614 800Q657 824 697 852T769 917T818 997T837
1099Z" />
<glyph unicode="9" glyph-name="nine" horiz-adv-x="1223" d="M879 945Q879 1042 859 1115T800 1238T707 1312T587 1337Q526 1337 476 1314T389 1247T333 1138T313 990Q313 912 329 853T373 753T442 691T533 670Q610 670 673 697T781 765T851 855T879 945ZM887
707Q799 626 708 584T510 541Q424 541 350 572T221 660T135 800T104 987Q104 1090 139 1177T238 1326T394 1423T598 1458Q720 1458 813 1419T970 1299T1065 1092T1098 792Q1098 589 1066 434T965 175T790 17T537 -37Q483 -37 428 -30T322 -9T232 24T168 70V374L295
363L337 133Q441 87 534 87Q616 87 682 128T795 244T866 422T891 649Q891 664 890 678T887 707Z" />
<glyph unicode=":" glyph-name="colon" horiz-adv-x="608" d="M305 244Q335 244 360 232T403 199T431 153T442 99Q442 63 430 38T400 -3T358 -26T313 -34Q274 -34 246 -23T201 6T175 48T166 97Q166 173 205 208T305 244ZM166 919Q166 981 205 1018T310 1055Q340
1055 364 1045T407 1016T434 975T444 927Q444 889 433 861T404 815T362 788T313 779Q235 779 201 819T166 919Z" />
<glyph unicode=";" glyph-name="semicolon" horiz-adv-x="474" d="M186 1051Q201 1055 224 1055Q254 1055 279 1045T322 1016T349 975T359 927Q359 889 348 861T319 815T277 788T228 779Q189 779 161 789T115 819T89 863T81 919Q81 973 107 1007T186 1051ZM41
-278Q88 -207 121 -128T160 41Q145 41 130 45T103 60T84 88T77 129Q81 180 114 214T207 248Q249 248 276 239T318 215T339 177T345 129Q345 67 327 3T278 -121T209 -230T128 -314Q122 -316 113 -316Q85 -316 69 -309T41 -278Z" />
<glyph unicode="&lt;" glyph-name="less" horiz-adv-x="1387" d="M163 644Q345 727 485 791T730 903T909 985T1033 1041T1114 1077T1161 1098T1187 1108T1201 1114Q1206 1110 1211 1103T1222 1082T1235 1045T1254 985L347 569L1252 157Q1242 119 1235 96T1222
58T1211 36T1201 25Q1121 58 855 179T133 510Q133 536 133 551T133 575T132 588T132 595Q132 608 137 621T163 644Z" />
<glyph unicode="=" glyph-name="equal" horiz-adv-x="1288" d="M133 733V802Q133 830 139 845T159 868T190 877T231 878H1155V811Q1155 776 1144 759T1108 733H133ZM133 332V399Q133 424 136 439T148 462T172 472T213 475H1155V410Q1155 375 1144 358T1108 332H133Z" />
<glyph unicode="&gt;" glyph-name="greater" horiz-adv-x="1386" d="M1228 643Q1243 636 1248 618T1253 573V509Q1061 421 914 354T658 237T472 152T344 94T264 58T218 37T196 28T186 24Q178 28 172 36T159 59T147 97T135 155L1039 571L133 984L195 1115L1228 643Z" />
<glyph unicode="?" glyph-name="question" horiz-adv-x="984" d="M587 94Q587 59 575 34T544 -7T503 -30T458 -38Q418 -38 390 -27T345 3T319 45T311 93Q311 168 348 204T449 240Q479 240 504 228T547 195T576 148T587 94ZM462 377Q441 389 418 408T375 451T342
505T329 567Q329 617 353 659T414 741T493 820T572 904T633 998T658 1112Q658 1161 645 1200T607 1267T548 1309T471 1324Q434 1324 397 1319T326 1298T267 1249T225 1161H88Q89 1221 107 1266T155 1345T224 1400T305 1434T391 1452T475 1458Q566 1458 640 1435T768
1366T850 1256T880 1108Q880 1034 853 973T784 862T695 769T605 689T537 619T509 552Q509 537 511 517T517 473T527 425T540 377H462Z" />
<glyph unicode="@" glyph-name="at" horiz-adv-x="1859" d="M1554 0Q1421 -85 1278 -128T992 -172Q864 -172 751 -143T542 -61T370 65T242 228T161 419T133 630Q133 754 164 864T252 1067T388 1234T565 1361T772 1440T1003 1468Q1162 1468 1298 1418T1535 1277T1693
1056T1751 767Q1751 667 1721 570T1636 395T1506 271T1340 223Q1294 223 1257 236T1193 273T1146 327T1117 395H1109Q1067 319 1000 271T842 223Q789 223 740 241T653 297T593 393T570 533Q570 642 606 744T706 924T861 1049T1059 1096Q1116 1096 1162 1071T1237
987L1276 1052H1383L1267 552Q1261 526 1258 501T1254 453Q1254 386 1279 355T1362 324Q1413 324 1461 360T1548 458T1610 601T1633 772Q1633 896 1588 1003T1461 1190T1262 1316T1001 1362Q867 1362 743 1313T523 1170T370 939T313 623Q313 464 368 336T517 117T738
-23T1007 -72Q1279 -72 1515 73L1554 0ZM754 533Q754 490 764 453T794 389T840 346T901 330Q949 330 986 354T1051 420T1101 518T1137 639T1164 771T1184 906Q1176 952 1147 978T1064 1005Q1005 1005 950 964T851 855T781 704T754 533Z" />
<glyph unicode="A" glyph-name="A" horiz-adv-x="1581" d="M750 1259L499 526H1005L759 1259H750ZM1352 259Q1368 217 1382 188T1412 135Q1435 129 1458 128T1508 126H1552L1581 -14Q1514 -4 1455 -2T1339 0Q1298 0 1261 0T1187 -2T1115 -6T1041 -14L1022 126H1039Q1068
126 1093 127T1138 135Q1137 158 1131 188T1109 256L1043 423H466L412 259Q400 223 395 197T389 147Q389 139 396 135T413 129T436 127T461 126H507L498 -14Q442 -4 390 -2T286 0Q210 0 143 -2T0 -14L30 126H76Q103 126 126 127T172 135Q189 158 204 188T233 256Q245
289 271 357T332 514T407 707T489 913L697 1437H789Q834 1437 860 1433T911 1421L1352 259Z" />
<glyph unicode="B" glyph-name="B" horiz-adv-x="1457" d="M529 126H775Q948 126 1027 194T1107 386Q1107 533 1018 606T737 680Q678 680 642 680T584 680T551 680T529 678V126ZM1076 1064Q1076 1128 1057 1176T995 1258T885 1307T723 1324Q674 1324 640 1323T584
1320T549 1317T529 1316V804Q571 801 613 799T701 796Q787 796 856 812T974 862T1049 946T1076 1064ZM306 1154Q306 1246 290 1298Q273 1300 253 1301T209 1303Q178 1303 144 1302T78 1299V1413Q213 1432 382 1442T770 1453Q1032 1453 1163 1358T1295 1070Q1295
1010 1273 956T1212 859T1117 787T996 748Q1332 703 1332 393Q1332 301 1305 237T1228 128T1111 59T963 20T793 4T609 0Q479 0 354 -3T98 -14V126H187Q216 126 242 127T290 135Q306 176 306 256V1154Z" />
<glyph unicode="C" glyph-name="C" horiz-adv-x="1375" d="M1306 82Q1209 25 1089 -6T814 -37Q663 -37 536 7T315 141T170 366T117 685Q117 870 165 1014T305 1256T531 1406T839 1458Q915 1458 984 1448T1110 1423T1212 1389T1283 1355L1259 1076H1136Q1111 1143
1085 1192T1025 1274T945 1321T834 1337Q708 1337 618 1290T471 1162T386 969T358 728Q358 566 391 448T486 251T635 136T831 98Q934 98 1047 129T1291 221L1306 82Z" />
<glyph unicode="D" glyph-name="D" horiz-adv-x="1618" d="M410 0Q330 0 251 -4T91 -14V127H181Q210 127 236 128T284 136Q299 181 299 257V1145Q299 1190 295 1224T284 1288Q262 1296 236 1297T181 1299H78V1416Q214 1433 387 1443T781 1453Q882 1453 975 1439T1148
1390T1293 1300T1404 1162T1476 968T1501 710Q1501 540 1463 422T1356 224T1188 100T968 33T705 6T410 0ZM515 126Q531 124 546 124T576 124Q690 124 785 134T956 170T1089 239T1185 349T1242 505T1261 716Q1261 885 1231 999T1137 1184T979 1284T753 1314Q683
1314 619 1312T515 1310V126Z" />
<glyph unicode="E" glyph-name="E" horiz-adv-x="1356" d="M1204 1437L1231 1308Q1236 1283 1241 1258T1249 1210T1255 1170T1258 1144L1111 1138L1103 1188Q1099 1210 1094 1234T1080 1282Q1045 1298 984 1304T823 1310Q811 1310 792 1310T737 1309T649 1307T515
1303V799H855Q875 799 892 801T925 814T952 847T976 910H1028Q1028 819 1025 728T1015 555H952Q940 592 929 616T902 654T868 673T822 679H515V126H971Q1022 126 1062 136T1119 160Q1127 183 1134 222T1146 327Q1171 327 1205 326T1270 325V209Q1270 161 1267 109T1260
21Q1230 12 1197 6T1118 -5T1013 -12T869 -14Q807 -14 750 -12T637 -7T525 -2T407 0Q325 0 248 -2T89 -14V126H178Q208 126 234 127T281 135Q297 177 297 256V1174Q297 1212 293 1240T280 1289Q261 1297 238 1298T189 1299H78V1407Q175 1425 308 1431T592 1437H1204Z"
/>
<glyph unicode="F" glyph-name="F" horiz-adv-x="1339" d="M523 803H820Q840 803 857 806T889 820T916 852T940 910H992Q992 819 989 728T980 555H917Q905 591 893 614T867 650T833 667T787 672H523V259Q523 217 527 188T538 135Q560 128 586 127T641 126H731V-14Q643
-9 566 -5T414 0Q338 0 266 -4T119 -13Q114 -13 109 -13T98 -14V126H187Q216 126 242 127T290 135Q305 174 305 243V1178Q305 1251 289 1289Q269 1297 246 1298T197 1299H78V1407Q199 1421 373 1429T772 1437H1212Q1224 1363 1231 1312T1242 1226T1248 1172T1251
1144L1105 1138Q1105 1158 1100 1197T1078 1282Q1045 1298 987 1304T831 1310Q819 1310 800 1310T746 1309T657 1307T523 1303V803Z" />
<glyph unicode="G" glyph-name="G" horiz-adv-x="1395" d="M896 1458Q968 1458 1034 1448T1157 1423T1256 1389T1324 1355L1299 1076H1176Q1151 1143 1125 1192T1065 1274T984 1321T873 1337Q741 1337 645 1293T484 1168T389 969T358 705Q358 569 389 457T482
265T634 141T844 97Q932 97 1006 110T1140 152V384Q1140 421 1137 454T1126 513Q1104 521 1078 524T1019 527H901V635Q918 636 944 639T1012 645T1111 650T1251 653Q1275 653 1301 653T1356 652Q1354 604 1353 571T1351 514T1350 476T1350 453V101Q1262 41 1133
2T842 -37Q689 -37 557 5T327 136T173 361T117 683Q117 879 172 1024T328 1266T574 1410T896 1458Z" />
<glyph unicode="H" glyph-name="H" horiz-adv-x="1696" d="M1189 676H506V259Q506 217 509 188T520 135Q543 128 568 127T623 126H713V-14Q632 -4 563 -2T426 0Q336 0 252 -1T80 -14V126H169Q199 126 224 127T272 135Q288 179 288 256V1181Q288 1220 284 1249T271
1301Q249 1309 224 1310T168 1312H78V1422Q147 1430 222 1433T388 1437Q485 1437 569 1435T716 1422V1312H623Q594 1312 569 1311T520 1301Q513 1278 510 1249T506 1181V811H1189V1181Q1189 1220 1185 1249T1173 1301Q1151 1309 1125 1310T1070 1312H980V1422Q1049
1430 1124 1433T1290 1437Q1387 1437 1471 1435T1618 1422V1312H1525Q1496 1312 1470 1311T1422 1301Q1415 1278 1411 1249T1406 1181V259Q1406 217 1410 188T1421 135Q1443 128 1469 127T1524 126H1614V-14Q1533 -4 1463 -2T1326 0Q1236 0 1153 -1T981 -14V126H1070Q1099
126 1125 127T1173 135Q1189 176 1189 256V676Z" />
<glyph unicode="I" glyph-name="I" horiz-adv-x="792" d="M79 126H168Q198 126 223 127T271 135Q287 179 287 256V1187Q287 1226 283 1252T271 1301Q249 1309 224 1310T168 1312H78V1422Q147 1430 223 1433T393 1437Q490 1437 572 1435T714 1422V1312H622Q593
1312 568 1311T519 1301Q513 1278 509 1252T505 1187V259Q505 217 509 188T519 135Q542 129 567 128T622 126H712V-14Q634 -4 566 -2T431 0Q340 0 255 -2T79 -14V126Z" />
<glyph unicode="J" glyph-name="J" horiz-adv-x="1023" d="M755 316Q755 193 730 101T659 -53T547 -146T399 -177Q371 -177 323 -173T222 -160T122 -138T47 -106Q47 -102 48 -84T51 -28T57 69T67 214L208 208Q212 168 219 126T233 47Q241 5 250 -36Q270 -40 291
-44Q309 -47 329 -49T370 -51Q425 -51 458 -23T509 57T531 183T537 351V1181Q537 1260 521 1301Q500 1309 474 1310T418 1312H328V1422Q397 1430 472 1433T639 1437Q736 1437 819 1435T966 1422V1312H874Q844 1312 818 1311T771 1301Q755 1257 755 1180V316Z" />
<glyph unicode="K" glyph-name="K" horiz-adv-x="1465" d="M505 256Q505 179 521 135Q543 128 569 127T624 126H713V-14Q632 -5 555 -3T396 0Q315 0 238 -2T80 -14V126H169Q198 126 224 127T272 135Q287 174 287 243V1181Q287 1220 283 1249T271 1301Q249 1309
224 1310T168 1312H78V1422Q147 1430 223 1433T393 1437Q490 1437 572 1435T714 1422V1312H622Q593 1312 568 1311T519 1301Q513 1278 509 1249T505 1181V256ZM1160 256Q1190 218 1216 188T1268 135Q1292 128 1316 127T1367 126H1446L1460 -14Q1386 -5 1318 -3T1179
0Q1088 0 1006 -2T843 -14V126H862Q891 126 916 127T959 135Q950 158 931 187T883 256L574 668Q566 676 559 686T546 705Q539 715 534 725Q548 745 600 805Q622 830 655 867T734 954T841 1071T982 1221Q998 1238 1006 1250T1019 1271T1024 1287T1025 1301Q1009
1309 988 1310T940 1312H885L894 1422Q970 1430 1048 1433T1220 1437Q1298 1437 1361 1435T1469 1422L1462 1312H1384Q1358 1312 1336 1311T1289 1301Q1259 1276 1227 1248T1158 1179Q1044 1055 969 973T847 842Q793 784 763 751L1160 256Z" />
<glyph unicode="L" glyph-name="L" horiz-adv-x="1331" d="M396 0Q315 0 238 -2T79 -14V126H168Q198 126 223 127T271 135Q287 179 287 256V1181Q287 1220 283 1249T271 1301Q249 1309 224 1310T168 1312H78V1422Q147 1430 223 1433T393 1437Q490 1437 572 1435T716
1422V1312H623Q594 1312 569 1311T520 1301Q513 1278 510 1249T506 1181V126H887Q938 126 980 129T1055 151T1114 211T1159 327L1245 315L1208 0Q1120 -6 1036 -10T871 -14Q722 -14 602 -7T396 0Z" />
<glyph unicode="M" glyph-name="M" horiz-adv-x="2204" d="M1677 199Q1677 232 1674 292T1667 429T1656 591T1643 763Q1628 963 1610 1194Q1509 910 1422 669Q1385 566 1348 462T1277 268T1218 107T1177 0H989Q962 72 931 161T866 347T798 543T732 736Q658 954
581 1184Q563 917 550 707Q544 617 539 531T529 377T522 266T519 221Q519 191 523 173T539 144T571 130T622 126H703L691 -14Q608 -4 536 -2T395 0Q311 0 236 -2T78 -14L100 126H200Q229 126 255 127T305 135Q318 158 330 187T348 256Q355 309 363 387T379 554T394
736T407 911T418 1059T425 1158Q428 1197 428 1223Q428 1249 426 1265T418 1296Q397 1304 371 1308T310 1312H206V1422Q235 1426 264 1429T327 1434T397 1436T479 1437Q551 1437 605 1433T698 1422Q722 1366 751 1286T814 1111T881 916T947 717T1008 531T1059 375T1096
268T1112 224Q1193 470 1259 665T1378 1008T1468 1258T1530 1422Q1550 1425 1579 1427T1640 1432T1700 1436T1751 1437Q1824 1437 1882 1433T1994 1423Q1996 1423 1998 1423T2002 1422L2012 1312H1926Q1894 1312 1865 1308T1821 1292Q1817 1273 1817 1246Q1817
1229 1818 1210T1822 1167L1892 256Q1895 217 1903 189T1918 138Q1948 131 1980 129T2051 126H2104L2126 -14Q2042 -4 1964 -2T1799 0Q1730 0 1657 -2T1503 -14L1491 126H1572Q1605 126 1625 129T1657 140T1673 163T1677 199Z" />
<glyph unicode="N" glyph-name="N" horiz-adv-x="1666" d="M308 1181Q308 1260 292 1301Q270 1309 244 1310T189 1312H78V1422Q115 1425 147 1427T212 1432T277 1436T352 1437Q406 1437 449 1436T531 1424Q618 1290 710 1146T896 853T1081 556T1256 265Q1256 318
1255 395T1253 560T1249 740T1246 917T1243 1071T1242 1181Q1242 1260 1226 1301Q1204 1308 1178 1310T1123 1312H1022V1422Q1089 1431 1162 1434T1323 1437Q1404 1437 1479 1435T1608 1422V1312H1528Q1499 1312 1473 1310T1425 1301Q1417 1278 1414 1249T1410
1181Q1410 1046 1407 892T1400 581T1390 271T1381 -14H1277Q1247 -14 1226 -9T1186 7L460 1162Q462 1106 464 1010T468 792T471 534T474 259Q474 217 477 188T488 135Q510 129 536 128T591 126H682V-14Q610 -4 547 -2T421 0Q336 0 260 -2T101 -14V126H190Q219 126
245 127T293 135Q309 176 309 256L308 1181Z" />
<glyph unicode="O" glyph-name="O" horiz-adv-x="1567" d="M356 711Q356 408 462 248T784 87Q886 87 965 125T1099 240T1181 436T1210 714Q1210 1025 1100 1181T784 1337Q682 1337 603 1299T469 1182T385 987T356 711ZM1450 714Q1450 538 1404 399T1271 163T1061
15T784 -37Q629 -37 506 14T295 162T162 398T115 714Q115 892 161 1030T295 1264T505 1408T784 1458Q937 1458 1060 1409T1270 1264T1403 1031T1450 714Z" />
<glyph unicode="P" glyph-name="P" horiz-adv-x="1345" d="M524 1312V709Q555 708 591 708T673 707Q779 707 849 729T962 790T1023 886T1041 1011Q1041 1095 1021 1153T957 1246T849 1296T695 1312H524ZM306 1186Q306 1266 290 1305Q274 1309 246 1310T188 1312H78V1422Q190
1437 331 1442T647 1448Q798 1448 913 1428T1107 1358T1225 1224T1265 1012Q1265 912 1232 833T1130 698T951 613T688 583Q653 583 613 584T524 588V259Q524 217 528 188T539 135Q561 129 587 128T642 126H732V-14Q654 -4 586 -2T450 0Q358 0 274 -2T99 -14V126H188Q217
126 243 127T291 135Q307 176 307 256L306 1186Z" />
<glyph unicode="Q" glyph-name="Q" horiz-adv-x="1616" d="M1440 736Q1440 661 1429 584T1394 433T1332 291T1242 165T1121 66T966 0Q991 -21 1024 -34T1095 -54T1169 -63T1238 -66Q1255 -66 1275 -63T1322 -54T1385 -37T1472 -13L1499 -118Q1408 -158 1317 -181T1128
-205Q1079 -205 1027 -198T921 -172T810 -119T696 -31Q561 -16 453 38T270 186T155 415T115 726Q115 898 161 1034T294 1264T503 1408T779 1458Q921 1458 1041 1409T1250 1266T1388 1039T1440 736ZM353 711Q353 397 462 241T779 84Q880 84 959 121T1093 235T1176
431T1205 712Q1205 868 1177 985T1094 1180T960 1298T779 1337Q678 1337 599 1298T465 1181T382 986T353 711Z" />
<glyph unicode="R" glyph-name="R" horiz-adv-x="1443" d="M524 1312V729Q562 728 606 728T704 727Q886 727 971 803T1056 1023Q1056 1105 1035 1160T969 1249T852 1297T679 1312H524ZM306 1195Q306 1269 290 1304Q270 1310 247 1311T198 1312H78V1422Q111 1427
156 1431T252 1437T358 1442T467 1445T571 1446T661 1447Q812 1447 928 1426T1122 1357T1241 1229T1281 1032Q1281 952 1259 890T1198 779T1107 698T994 644Q1007 579 1033 516T1093 395T1166 288T1245 203T1321 147T1387 126H1443V-14H1292Q1201 -14 1132 18T1012
103T925 223T865 360T825 494T800 608Q731 608 662 609T524 613V259Q524 217 528 188T539 135Q561 129 587 128T642 126H732V-14Q654 -4 586 -2T450 0Q358 0 274 -2T99 -14V126H188Q217 126 243 127T291 135Q307 176 307 256L306 1195Z" />
<glyph unicode="S" glyph-name="S" horiz-adv-x="1225" d="M342 1108Q342 1062 360 1025T413 958T497 902T607 852Q722 806 817 761T979 663T1084 543T1121 387Q1121 282 1081 203T972 71T811 -10T614 -37Q540 -37 469 -28T332 1T207 53T98 132L145 400L295 394Q295
313 306 257T337 163Q362 140 394 125T463 100T538 88T614 84Q674 84 726 102T816 153T877 229T899 327Q899 390 870 438T789 527T662 602T498 673Q414 706 345 744T228 831T152 939T125 1076Q125 1158 160 1228T265 1349T438 1429T678 1458Q740 1458 800 1452T912
1434T1002 1404T1057 1360Q1056 1351 1055 1339T1051 1299T1042 1219T1025 1079L894 1088Q894 1161 882 1209T839 1285T758 1325T629 1337Q563 1337 510 1321T420 1274T362 1202T342 1108Z" />
<glyph unicode="T" glyph-name="T" horiz-adv-x="1389" d="M1213 1068Q1213 1153 1204 1215T1179 1312H811V259Q811 217 814 188T826 135Q848 129 873 128T929 126H1019V-14Q941 -4 872 -2T737 0Q645 0 560 -2T385 -14V126H474Q504 126 530 127T577 135Q592 174
592 243V1312H224Q208 1278 199 1216T190 1068H52Q52 1102 51 1146T47 1238T43 1333T41 1422Q63 1433 125 1435T277 1437Q288 1437 320 1437T396 1435T490 1434T584 1432T663 1431T712 1430Q738 1430 777 1430T859 1432T945 1433T1024 1435T1083 1436T1109 1437Q1200
1437 1263 1435T1348 1422Q1348 1381 1347 1334T1343 1239T1340 1147T1338 1068H1213Z" />
<glyph unicode="U" glyph-name="U" horiz-adv-x="1605" d="M1365 516Q1365 379 1323 276T1205 103T1024 -2T794 -37Q644 -37 539 7T367 132T271 329T240 586V1181Q240 1260 224 1301Q202 1309 177 1310T121 1312H31V1423Q100 1431 176 1434T346 1437Q443 1437
525 1435T669 1422V1312H576Q547 1312 522 1311T473 1301Q459 1257 459 1181V501Q459 396 485 318T559 189T674 111T824 85Q1014 85 1104 205T1195 577V1181Q1195 1260 1179 1301Q1157 1309 1131 1310T1076 1312H986V1423Q1052 1431 1122 1434T1280 1437Q1368 1437
1443 1435T1575 1422V1312H1483Q1453 1312 1427 1311T1380 1301Q1372 1278 1369 1249T1365 1181V516Z" />
<glyph unicode="V" glyph-name="V" horiz-adv-x="1633" d="M1238 1181Q1252 1220 1257 1249T1263 1301Q1243 1309 1218 1310T1163 1312H1093L1098 1422Q1159 1430 1224 1433T1368 1437Q1449 1437 1516 1435T1633 1422L1609 1312H1557Q1528 1312 1502 1311T1451
1301Q1437 1278 1424 1249T1396 1181Q1344 1039 1288 888T1175 585T1059 285T945 0H841Q796 0 767 8T726 46L272 1181Q256 1220 239 1249T205 1301Q179 1309 153 1310T98 1312H23L0 1422Q61 1430 130 1433T288 1437Q388 1437 474 1435T627 1422L640 1312H568Q539
1312 514 1311T469 1301Q469 1278 480 1249T507 1181L879 215H889L1238 1181Z" />
<glyph unicode="W" glyph-name="W" horiz-adv-x="2403" d="M2013 1181Q2021 1211 2024 1235T2027 1279Q2027 1285 2027 1290T2026 1301Q2005 1309 1980 1310T1925 1312H1855L1849 1422Q1909 1430 1974 1433T2118 1437Q2199 1437 2266 1435T2385 1422L2371 1312H2319Q2290
1312 2264 1311T2214 1301Q2203 1278 2192 1249T2169 1181Q2130 1043 2087 896T1996 597T1895 295T1784 0H1617Q1600 0 1589 3T1571 17T1557 43T1543 85Q1542 88 1542 91T1539 99L1244 1006Q1174 750 1092 500T906 0H746Q720 0 702 9T674 46L290 1181Q276 1221
258 1249T223 1301Q197 1309 171 1310T116 1312H41L18 1422Q79 1430 148 1433T306 1437Q406 1437 492 1435T645 1422L658 1312H586Q557 1312 532 1311T487 1301Q490 1278 500 1249T525 1181L838 216H848Q862 255 876 297T907 391T943 508T987 658T1042 853T1111
1103Q1123 1146 1129 1185T1139 1261T1146 1330T1154 1393H1275Q1294 1393 1307 1390T1328 1380T1343 1363T1354 1339L1719 209H1729Q1771 348 1805 460T1866 663T1914 828T1953 963T1985 1078T2013 1181Z" />
<glyph unicode="X" glyph-name="X" horiz-adv-x="1615" d="M767 589L528 259Q499 219 485 189T461 135Q479 129 504 128T558 126H609V-14Q528 -4 450 -2T295 0Q258 0 224 0T156 -1T88 -6T16 -14V126H104Q131 126 155 127T203 135Q227 158 250 189T308 256L684
704L348 1181Q321 1219 303 1248T261 1301Q235 1309 208 1310T152 1312H78L63 1422Q117 1430 179 1433T318 1437Q424 1437 514 1435T680 1422L694 1312H633Q603 1312 579 1311T537 1301Q540 1289 544 1280T554 1261T570 1238T592 1206L827 859L1079 1181Q1109 1219
1127 1248T1155 1301Q1138 1309 1114 1310T1060 1312H1020L1034 1422Q1106 1430 1178 1433T1339 1437Q1411 1437 1469 1435T1568 1422L1556 1312H1474Q1445 1312 1418 1311T1363 1301Q1339 1278 1314 1249T1257 1181Q1188 1095 1134 1029T1037 911T961 822T900
753L1267 256Q1296 217 1318 188T1366 135Q1390 128 1414 127T1465 126H1513V-14Q1476 -9 1443 -7T1376 -3T1310 -1T1239 0Q1161 0 1082 -2T921 -14V126H971Q1000 126 1025 127T1068 135Q1058 158 1042 187T997 259L767 589Z" />
<glyph unicode="Y" glyph-name="Y" horiz-adv-x="1588" d="M1122 1212Q1133 1239 1141 1260T1153 1301Q1134 1309 1110 1310T1055 1312H985L1009 1422Q1076 1430 1146 1433T1301 1437Q1392 1437 1467 1435T1594 1422L1554 1312H1469Q1440 1312 1414 1311T1361
1301Q1350 1285 1338 1269T1316 1234Q1314 1229 1295 1196T1245 1111T1176 996T1099 866Q1007 711 891 517V259Q891 217 895 188T906 135Q928 129 953 128T1008 126H1099V-14Q1021 -4 953 -2T817 0Q725 0 641 -2T466 -14V126H555Q584 126 609 127T658 135Q666 158
670 188T677 256V490L268 1181Q245 1219 231 1248T200 1301Q175 1309 149 1310T93 1312H19L-10 1422Q53 1430 123 1433T278 1437Q378 1437 463 1435T618 1422L635 1312H564Q534 1312 509 1311T466 1301Q467 1289 469 1280T476 1260T488 1237T506 1206L827 659Q900
790 961 903Q987 951 1013 999T1061 1089T1099 1163T1122 1212Z" />
<glyph unicode="Z" glyph-name="Z" horiz-adv-x="1230" d="M113 1405Q167 1420 294 1428T631 1437H1098Q1117 1427 1128 1406T1140 1362V1306L306 126H816Q849 126 879 135T932 172T968 252T982 393H1144V86Q1144 72 1142 58T1136 29Q1136 27 1136 27T1135 24Q1091
6 1031 3T888 0H106Q86 15 80 33T74 81V133L888 1312H612Q586 1312 550 1311T474 1306T397 1298T328 1284T278 1263T259 1235Q259 1210 260 1185T264 1127Q238 1127 212 1127T155 1125Q155 1128 153 1146T146 1190T136 1248T127 1310T118 1365T113 1405Z" />
<glyph unicode="[" glyph-name="bracketleft" horiz-adv-x="648" d="M575 -125V-160Q575 -185 568 -199T549 -219T521 -227T484 -229H205V1564H475Q497 1564 515 1563T547 1556T567 1535T575 1494V1461H366V-125H575Z" />
<glyph unicode="\" glyph-name="backslash" horiz-adv-x="891" d="M891 -66H782Q733 -66 706 -37L0 1490H102Q138 1490 157 1478T194 1443L891 -66Z" />
<glyph unicode="]" glyph-name="bracketright" horiz-adv-x="651" d="M285 -125V1461H76V1494Q76 1527 86 1542T122 1564H446V-229H194Q170 -229 149 -228T111 -221T86 -200T76 -160V-125H285Z" />
<glyph unicode="^" glyph-name="asciicircum" horiz-adv-x="1191" d="M1059 505Q1068 487 1076 467T1084 426Q1084 401 1069 380L967 362L597 1003L234 364L165 380Q142 385 127 394T104 415Q112 437 121 459T144 505L540 1208H607Q620 1208 640 1204T677 1172L1059 505Z" />
<glyph unicode="_" glyph-name="underscore" horiz-adv-x="965" d="M-10 -339V-278Q-10 -253 -3 -240T19 -220T51 -212T93 -211H975V-270Q975 -302 964 -317T929 -339H-10Z" />
<glyph unicode="`" glyph-name="grave" horiz-adv-x="1223" d="M393 1587H643L832 1264H694L393 1587Z" />
<glyph unicode="a" glyph-name="a" horiz-adv-x="1247" d="M754 205Q760 259 765 327T770 489H612Q469 489 393 436T317 280Q317 190 367 146T501 101Q564 101 629 130T754 205ZM1159 19Q1108 1 1044 -6T902 -13Q861 -13 833 -11T787 1T761 34T753 95L751 115Q721
88 687 63T613 19T527 -12T427 -24Q356 -24 296 -6T193 50T126 142T102 271Q102 437 231 520T623 603H770V671Q770 746 760 799T728 887T668 938T578 955Q518 955 471 938T386 894T321 830T269 755L130 843Q137 884 170 923T259 993T392 1042T566 1061Q780 1061
881 964T982 682V269Q982 212 987 172T999 101H1159V19Z" />
<glyph unicode="b" glyph-name="b" horiz-adv-x="1337" d="M999 544Q999 947 749 947Q596 947 462 825Q451 750 447 670T442 498Q442 404 445 301T455 101Q516 95 583 91T704 87Q772 87 826 116T919 203T978 346T999 544ZM131 105Q156 113 174 123T205 149T222
185T228 237V1323Q228 1354 227 1383T221 1441Q203 1447 182 1451T134 1455H37V1542Q85 1555 168 1562T364 1569Q406 1569 433 1566Q438 1544 440 1518T442 1464V913Q517 991 605 1026T793 1062Q892 1062 972 1028T1108 929T1195 769T1225 551Q1225 415 1188 310T1087
133T941 24T768 -13Q688 -13 622 -11T492 -7T362 -2T218 0Q212 0 199 0T170 0T140 -1T119 -2L131 105Z" />
<glyph unicode="c" glyph-name="c" horiz-adv-x="1082" d="M1002 54Q936 15 844 -4T648 -24Q531 -24 433 11T264 113T153 279T113 505Q113 638 155 742T270 916T444 1024T663 1061Q714 1061 762 1055T854 1036T935 1006T999 966L982 765H910Q862 859 799 903T642
947Q574 947 517 919T419 839T355 717T332 560Q332 439 359 352T432 210T540 128T672 101Q766 101 842 121T988 184L1002 54Z" />
<glyph unicode="d" glyph-name="d" horiz-adv-x="1339" d="M903 345Q903 481 901 602T891 838Q868 863 836 883T769 917T698 939T628 947Q550 947 496 916T408 828T358 691T342 514Q342 302 412 202T623 101Q672 101 716 117T797 165T861 242T903 345ZM1113 269Q1113
212 1118 172T1130 101H1303V15Q1252 2 1188 -5T1045 -12Q1010 -12 984 -11T941 0T916 28T907 84V132Q874 90 834 61T748 12T655 -15T557 -24Q465 -24 385 9T244 108T148 273T113 503Q113 638 144 743T233 921T376 1031T568 1069Q671 1069 752 1036T900 936V1354Q900
1406 893 1441Q874 1447 854 1451T806 1455H709V1542Q760 1554 848 1561T1048 1569Q1065 1569 1079 1569T1105 1566Q1110 1549 1111 1529T1113 1486V269Z" />
<glyph unicode="e" glyph-name="e" horiz-adv-x="1171" d="M851 604Q853 608 853 612T853 621Q853 687 840 746T797 851T722 923T608 950Q475 950 407 862T329 604H851ZM1046 167Q989 67 889 22T646 -24Q525 -24 427 12T259 117T151 288T113 519Q113 645 150 745T256
916T422 1023T642 1061Q732 1061 810 1034T945 955T1035 828T1068 659Q1068 602 1059 568T1031 516T984 493T916 487H330Q341 294 432 198T679 101Q760 101 830 126T960 205L1046 167Z" />
<glyph unicode="f" glyph-name="f" horiz-adv-x="786" d="M136 71Q190 77 219 85T262 107T278 143T281 200V912H55V987Q69 1013 95 1022T162 1032H281V1124Q281 1242 311 1325T398 1462T533 1539T709 1564Q789 1564 841 1548T929 1512V1288H832Q819 1334 802 1365T765
1416T721 1443T673 1452Q626 1452 593 1439T538 1393T506 1306T495 1170V1032H779V980Q779 949 768 934T731 912H495V238Q495 194 497 165T515 118T564 89T657 71L665 -13Q584 -7 518 -4T388 0Q327 0 266 -3T134 -13L136 71Z" />
<glyph unicode="g" glyph-name="g" horiz-adv-x="1102" d="M1003 1052Q1030 1052 1044 1047T1066 1028T1074 992T1075 936V918H853Q898 864 917 810T937 701Q937 615 911 545T829 424T686 346T475 318Q453 318 429 320T385 325Q361 328 338 332Q330 319 325 305Q320
293 317 278T313 247Q313 230 318 217T344 196T405 184T514 180Q622 180 716 168T879 122T989 25T1029 -138Q1029 -204 1002 -261T913 -359T750 -425T502 -449Q380 -449 294 -425T153 -360T73 -266T47 -153Q47 -75 93 -21T229 60V65Q209 67 195 78T171 106T156
144T151 189Q151 263 181 318T275 390V394Q190 445 150 524T110 697Q110 780 140 847T226 962T358 1036T531 1062Q588 1062 644 1049T750 1018L1003 1052ZM841 -149Q841 -106 831 -72T788 -12T691 26T522 40Q491 40 458 39T395 37Q362 35 330 34Q303 1 282 -32Q264
-60 250 -91T235 -149Q235 -181 246 -213T288 -272T376 -316T522 -333Q622 -333 684 -319T781 -280T828 -222T841 -149ZM747 686Q747 819 689 883T525 947Q405 947 352 882T299 686Q299 620 316 575T363 502T434 462T522 449Q571 449 612 462T683 503T730 577T747
686Z" />
<glyph unicode="h" glyph-name="h" horiz-adv-x="1362" d="M1305 12Q1257 -1 1187 -7T1041 -13Q1019 -13 997 -10T956 3T927 29T915 73Q915 122 918 170T921 281V644Q921 741 911 800T879 892T826 935T751 946Q694 946 640 928T544 880T474 815T442 747V226Q442
185 444 159T458 115T494 88T562 71L570 -13Q498 -7 439 -4T323 0Q269 0 215 -3T100 -13L104 71Q150 77 175 85T212 107T226 144T228 200V1353Q228 1376 227 1398T220 1441Q203 1447 182 1451T135 1455H37V1542Q86 1554 169 1562T355 1570Q388 1570 405 1567T431
1553T440 1524T442 1475V918Q515 987 616 1024T826 1061Q988 1061 1061 984T1135 745V269Q1135 212 1140 172T1152 101H1305V12Z" />
<glyph unicode="i" glyph-name="i" horiz-adv-x="640" d="M198 1407Q198 1471 236 1509T335 1547Q365 1547 390 1537T433 1509T461 1465T472 1407Q472 1377 462 1352T433 1308T390 1279T335 1269Q305 1269 280 1279T237 1307T208 1351T198 1407ZM614 11Q562 -2
496 -7T349 -13Q327 -13 305 -10T264 3T235 29T223 73Q223 122 226 170T230 281V842Q230 862 229 883T223 921Q187 936 137 936H40V1032Q52 1035 77 1038T135 1045T206 1050T282 1052Q330 1052 372 1048T443 1032V269Q443 212 448 172T460 101H604L614 11Z" />
<glyph unicode="j" glyph-name="j" horiz-adv-x="810" d="M592 86Q592 -144 507 -259T259 -374Q213 -374 167 -368T84 -354Q40 -345 0 -333L47 -56Q69 -60 88 -64Q105 -67 122 -69T153 -74Q153 -104 155 -134T160 -187Q163 -215 167 -240Q188 -243 208 -246Q225
-248 243 -250T276 -252Q311 -252 331 -222T362 -143T376 -29T379 104V842Q379 862 378 883T372 921Q336 936 286 936H189V1032Q201 1035 226 1038T284 1045T355 1050T431 1052Q479 1052 521 1048T592 1032V86ZM348 1407Q348 1439 358 1465T387 1509T430 1537T485
1547Q515 1547 540 1537T583 1509T611 1465T622 1407Q622 1377 612 1352T583 1308T540 1279T485 1269Q455 1269 430 1279T387 1307T359 1351T348 1407Z" />
<glyph unicode="k" glyph-name="k" horiz-adv-x="1245" d="M104 72Q150 78 175 86T212 108T226 145T228 201V1337Q228 1364 227 1389T220 1440Q203 1446 182 1450T134 1454H37V1541Q65 1547 104 1552T191 1560T289 1567T392 1572Q425 1550 433 1523T442 1456V523L706
778Q820 887 821 918Q821 936 783 936V1032H1216V936H1178Q1157 936 1133 930T1086 915T1044 895T1012 872L669 566L1039 145Q1050 132 1069 121T1111 100T1158 86T1205 81Q1222 81 1234 84L1247 -14Q1186 -7 1126 -4T1002 0Q939 0 878 -3T750 -13V75Q773 75 786
77T799 92Q788 111 772 132T734 179L495 470L442 432V226Q442 186 444 160T458 116T494 89T562 72L567 -13Q498 -7 444 -4T335 0Q278 0 222 -3T101 -13L104 72Z" />
<glyph unicode="l" glyph-name="l" horiz-adv-x="638" d="M219 1339Q219 1365 217 1391T210 1441Q193 1447 172 1451T123 1455H27V1542Q73 1552 149 1560T323 1569Q371 1569 394 1564T430 1543V269Q430 212 435 172T447 101H611V11Q557 -2 490 -7T338 -13Q316
-13 294 -10T253 3T224 29T212 73Q212 122 215 170T219 281V1339Z" />
<glyph unicode="m" glyph-name="m" horiz-adv-x="2006" d="M1562 660Q1562 742 1554 795T1528 880T1480 923T1405 936Q1352 936 1306 918T1222 871T1158 810T1118 746V237Q1118 193 1120 165T1134 118T1173 90T1248 72L1257 -13Q1197 -7 1132 -4T1001 0Q940 0
884 -3T776 -13L780 72Q826 78 851 85T888 107T902 143T904 199V660Q904 743 897 796T871 881T822 924T746 936Q699 936 653 918T567 872T500 811T461 746V236Q461 192 463 164T476 118T512 90T581 72L589 -13Q532 -7 469 -4T339 0Q279 0 223 -3T119 -13L122 72Q169
78 194 86T231 110T245 150T247 209V841Q247 861 246 882T240 921Q205 936 154 936H57V1032Q69 1035 93 1038T150 1045T219 1050T292 1052Q340 1052 384 1048T456 1032V905Q544 983 636 1022T842 1062Q1045 1062 1101 885Q1125 912 1160 943T1241 1001T1347 1044T1480
1062Q1634 1062 1706 987T1778 748V269Q1778 212 1783 172T1795 101H1939L1949 12Q1897 -1 1831 -7T1683 -13Q1661 -13 1639 -10T1598 3T1569 29T1557 73Q1557 122 1560 170T1564 281L1562 660Z" />
<glyph unicode="n" glyph-name="n" horiz-adv-x="1382" d="M1153 269Q1153 212 1158 172T1170 101H1314L1325 12Q1224 -13 1058 -13Q1037 -13 1015 -10T975 4T946 30T934 74Q934 123 937 174T940 289V651Q940 730 927 784T890 873T835 921T767 936Q727 936 684
922T599 883T522 829T461 766V237Q461 193 463 165T476 118T512 90T581 72L589 -13Q532 -7 469 -4T339 0Q279 0 223 -3T119 -13L122 72Q169 78 194 86T231 109T245 147T247 206V845Q247 865 246 884T240 921Q226 929 210 932T170 936H57V1032Q69 1035 94 1038T151
1045T220 1050T296 1052Q344 1052 386 1048T456 1032V906Q494 943 539 972T634 1021T735 1051T835 1062Q898 1062 955 1044T1057 988T1127 889T1153 744V269Z" />
<glyph unicode="o" glyph-name="o" horiz-adv-x="1285" d="M1172 518Q1172 384 1130 283T1015 113T847 11T643 -24Q531 -24 435 12T267 117T154 287T113 518Q113 647 154 748T266 918T434 1025T643 1062Q754 1062 851 1025T1019 919T1131 748T1172 518ZM342 519Q342
297 414 192T642 87Q723 87 780 114T874 195T926 330T943 519Q943 733 871 839T642 946Q562 946 505 919T412 837T359 703T342 519Z" />
<glyph unicode="p" glyph-name="p" horiz-adv-x="1327" d="M432 292Q481 198 546 150T704 101Q778 101 832 131T920 216T971 348T988 522Q988 734 932 840T755 946Q721 946 683 939T604 916T522 871T442 802L432 292ZM430 917Q496 986 587 1024T788 1062Q886 1062
965 1027T1099 924T1185 759T1215 537Q1215 395 1178 290T1079 115T933 11T758 -24Q664 -24 584 6T432 91V-240Q432 -282 434 -309T447 -355T483 -383T553 -401L561 -489Q486 -477 424 -474T307 -471Q250 -471 199 -474T90 -489L95 -401Q141 -394 166 -386T203
-363T217 -325T219 -266V831Q219 854 218 877T212 921Q176 936 124 936H27V1032Q39 1035 64 1038T122 1045T192 1050T268 1052Q316 1052 358 1048T428 1032L430 917Z" />
<glyph unicode="q" glyph-name="q" horiz-adv-x="1337" d="M900 1032Q912 1035 937 1038T994 1045T1064 1050T1140 1052Q1188 1052 1230 1048T1301 1032V936H1204Q1152 936 1116 921Q1111 901 1110 878T1109 831V-266Q1109 -302 1111 -325T1124 -362T1161 -385T1233
-401L1238 -489Q1181 -477 1130 -474T1021 -471Q966 -471 904 -474T767 -489L775 -401Q820 -394 844 -384T880 -354T894 -307T896 -235V91Q824 37 744 7T570 -24Q478 -24 395 10T250 114T150 289T113 537Q113 661 143 759T228 924T363 1026T540 1062Q649 1062 740
1032T900 947V1032ZM886 832Q847 864 806 886T725 921T646 940T573 946Q452 946 396 840T340 522Q340 426 356 349T407 216T496 131T624 101Q713 101 777 133T886 212V832Z" />
<glyph unicode="r" glyph-name="r" horiz-adv-x="994" d="M463 791Q500 850 536 900T613 986T705 1042T820 1062Q882 1062 914 1052T963 1032L938 756H848L824 902Q797 905 782 907T756 909Q709 909 659 881T566 805T497 696T470 568V231Q470 189 472 162T485
116T521 88T591 71L600 -13Q528 -7 469 -4T353 0Q299 0 245 -3T129 -13L133 71Q180 77 205 85T242 108T256 146T258 205V852Q258 870 257 887T250 921Q236 928 220 932T181 936H68V1032Q80 1035 104 1038T159 1045T227 1050T302 1052Q350 1052 392 1048T463 1032V791Z"
/>
<glyph unicode="s" glyph-name="s" horiz-adv-x="1010" d="M245 325Q250 265 254 220T263 132Q308 109 366 98T512 87Q566 87 605 99T669 134T706 184T718 244Q718 275 704 300T665 346T603 384T523 419L437 452Q357 483 297 511T197 573T137 653T117 763Q117
831 146 886T230 981T365 1041T548 1062Q654 1062 732 1044T854 997Q854 985 850 960T840 901T826 828T811 750L711 767Q709 812 707 849T703 911Q661 934 610 940T492 946Q395 946 350 909T305 808Q305 770 321 742T364 693T429 656T510 624L612 588Q691 560 749
531T845 466T901 389T920 296Q920 215 888 155T799 56T664 -4T493 -24Q433 -24 373 -15T259 8T162 41T92 78L141 338L245 325Z" />
<glyph unicode="t" glyph-name="t" horiz-adv-x="894" d="M280 1217Q282 1238 289 1262T305 1307L323 1355H455V1032H777V980Q777 957 773 944T761 923T739 914T706 912H455V319Q455 259 465 217T494 149T540 112T600 100Q611 100 625 102T653 109Q668 113 683
118Q687 151 691 184Q695 213 698 246T706 309L837 319L847 48Q785 17 706 3T538 -11Q391 -11 317 65T242 299V912H39V966Q39 992 50 1000T86 1011L253 1032L280 1217Z" />
<glyph unicode="u" glyph-name="u" horiz-adv-x="1353" d="M1128 269Q1128 212 1133 172T1145 101H1306V15Q1254 2 1189 -5T1042 -13Q1004 -13 977 -11T932 1T907 30T899 81V115L884 104Q853 81 819 59T742 18T643 -12T516 -24Q364 -24 294 58T224 299V829Q224
858 221 881T213 925Q195 931 174 933T130 936H47V1032Q60 1035 86 1038T146 1045T221 1050T304 1052Q342 1052 377 1048T436 1032V352Q436 300 439 255T460 175T513 121T616 101Q666 101 716 116T806 150T872 185T899 205Q910 272 913 356T916 531V829Q916 886
904 925Q887 931 866 933T822 936H739V1032Q752 1035 778 1038T838 1045T913 1050T996 1052Q1034 1052 1069 1048T1128 1032V269Z" />
<glyph unicode="v" glyph-name="v" horiz-adv-x="1319" d="M966 835Q975 858 981 879T993 921Q979 929 961 932T914 936H859L870 1032Q909 1043 965 1047T1094 1052Q1167 1052 1224 1048T1313 1032V936H1259Q1209 936 1167 921Q1153 902 1129 851T1075 731T1012
582T947 424T887 278T838 166L759 -8H647Q631 -8 620 -8T598 -5T580 3T562 20L218 835Q208 858 197 879T171 921Q150 929 128 932T79 936H24L8 1032Q43 1043 103 1047T244 1052Q335 1052 410 1048T535 1032L552 936H497Q445 936 417 921Q421 901 430 880T448 835Q525
620 590 454T710 157L966 835Z" />
<glyph unicode="w" glyph-name="w" horiz-adv-x="1906" d="M1556 835Q1563 858 1565 879T1577 921Q1563 929 1547 932T1504 936H1449L1460 1032Q1499 1043 1555 1047T1683 1052Q1756 1052 1813 1048T1903 1032V936H1849Q1797 936 1757 921Q1721 822 1686 723T1616
530T1552 351T1496 196T1452 73T1423 -8H1308Q1275 -8 1255 -3T1222 13T1202 42T1186 83L974 710Q947 630 915 536T848 345T780 158T719 -8H604Q545 -8 523 4T496 35L210 835Q202 858 190 879T163 921Q124 936 72 936H18L2 1032Q35 1043 92 1047T227 1052Q318 1052
393 1048T518 1032L535 936H480Q427 936 402 921L657 146L767 489Q789 558 812 631T858 772T899 900T933 1004H988Q1030 1004 1055 999T1088 969L1360 133L1556 835Z" />
<glyph unicode="x" glyph-name="x" horiz-adv-x="1241" d="M987 222Q1011 186 1029 162T1067 122T1114 97T1181 81L1221 -13Q1204 -10 1176 -8T1114 -4T1040 -1T960 0Q890 0 828 -3T732 -13L723 71Q769 77 789 86T809 112Q809 126 793 152T747 221L598 434L459
242Q424 194 405 164T386 115Q386 98 403 88T460 71L426 -13Q400 -6 347 -3T231 0Q198 0 165 -1T102 -3T49 -7T10 -13L46 71Q102 77 134 86T190 113T233 156T286 221L528 515L295 835Q278 858 258 879T216 921Q171 936 119 936H86L59 1032Q92 1043 154 1047T304
1052Q392 1052 468 1048T596 1032L613 936H557Q506 936 484 921Q496 901 513 880T547 835L687 642Q732 699 784 773T887 921Q875 929 861 932T819 936H764L788 1032Q833 1043 895 1047T1032 1052Q1101 1052 1153 1048T1231 1032L1197 936H1154Q1103 936 1057 921L934
771Q909 741 883 710T833 651T788 598T753 559L987 222Z" />
<glyph unicode="y" glyph-name="y" horiz-adv-x="1317" d="M970 835Q977 858 984 879T996 921Q982 929 964 932T918 936H862L874 1032Q913 1043 969 1047T1097 1052Q1170 1052 1227 1048T1317 1032V936H1263Q1235 936 1213 933T1171 921Q1169 919 1166 913T1154
890T1133 842T1097 761L682 -196Q644 -283 602 -339T511 -429T406 -475T285 -488Q258 -488 233 -486T186 -480T151 -471T130 -460L152 -321Q190 -335 232 -342T304 -349Q349 -349 383 -340T448 -300T513 -209T590 -47L217 834Q207 857 196 878T170 920Q131 935
79 935H25L8 1031Q43 1042 104 1047T244 1052Q335 1052 411 1047T536 1031L551 935H496Q470 935 448 932T411 920Q412 915 425 880T460 792T507 672T561 536L706 171L970 835Z" />
<glyph unicode="z" glyph-name="z" horiz-adv-x="1095" d="M698 105Q738 105 773 108T834 127L876 279Q900 281 924 282T972 283L978 115Q979 101 979 90T980 70V-10Q948 -6 904 -4T809 -1T707 0T611 0H133Q121 0 113 2T98 12T89 37T86 81V140L756 927H390Q350
927 315 924T254 905L212 753Q188 751 164 750T116 749Q111 829 110 874T108 944V1037Q135 1037 172 1036T249 1035T331 1033T405 1032H865Q885 1031 901 1029T928 1020T946 997T952 955V877L295 105H698Z" />
<glyph unicode="{" glyph-name="braceleft" horiz-adv-x="702" d="M393 910Q393 813 360 750T258 665Q324 644 360 585T396 422V16Q396 -29 402 -56T420 -100T448 -125T486 -141Q510 -149 538 -153T599 -161V-177Q599 -209 587 -222Q569 -227 547 -229T500 -232Q438
-232 389 -222T304 -183T251 -107T232 17V437Q232 521 202 570T102 646Q101 660 101 676T100 703Q135 720 160 738T201 779T224 830T232 896V1323Q232 1397 251 1444T307 1517T394 1554T510 1564Q527 1564 543 1563T571 1555T591 1539T599 1510V1494Q530 1490 489
1480T427 1449T400 1397T393 1317V910Z" />
<glyph unicode="|" glyph-name="bar" horiz-adv-x="1168" d="M656 -248H586Q564 -248 548 -245T519 -237Q514 -197 512 -155T510 -66V1595H580Q613 1595 630 1584T656 1548V-248Z" />
<glyph unicode="}" glyph-name="braceright" horiz-adv-x="701" d="M191 1564Q265 1564 317 1552T402 1510T450 1428T465 1295V922Q465 886 470 858T489 808T530 767T598 732V646Q554 631 528 607T487 550T469 472T465 370V17Q465 -61 446 -110T391 -186T305 -222T191
-232Q173 -232 157 -231T129 -223T110 -206T102 -177V-161Q168 -157 208 -148T270 -119T299 -67T307 16V358Q307 416 312 466T331 555T372 623T443 665Q402 676 376 701T334 762T313 838T307 924V1293Q307 1360 297 1398T262 1456T199 1483T102 1494V1510Q102 1528
109 1538T129 1555T157 1562T191 1564Z" />
<glyph unicode="~" glyph-name="asciitilde" horiz-adv-x="1205" d="M1026 645Q1049 615 1065 590T1090 543Q1078 505 1053 478T994 431T922 403T847 394Q804 394 762 404T680 429T601 462T524 495T448 520T374 530Q316 530 270 493T189 398Q160 429 141 453T113
495Q123 535 152 568T219 623T297 658T370 671Q405 671 444 661T523 637T604 605T683 573T757 548T823 538Q864 538 897 548T955 575T998 609T1026 645Z" />
<glyph unicode="&#xa0;" glyph-name="uni00A0" horiz-adv-x="591" />
<glyph unicode="&#xa1;" glyph-name="exclamdown" horiz-adv-x="704" d="M429 1032Q397 1044 358 1044Q332 1044 317 1040T292 1027T280 1002T275 965L240 300Q235 200 227 134T219 43Q219 36 219 30T220 16Q242 -3 273 -12T353 -22Q416 -22 441 2T466 77Q466
83 466 91T465 120T462 176T457 273T449 424T437 644Q432 741 429 815T425 942Q425 966 426 989T429 1032ZM351 1457Q315 1457 289 1446T246 1415T220 1371T211 1320Q211 1295 220 1270T246 1224T290 1192T351 1179Q385 1179 411 1191T455 1224T482 1269T491 1320Q491
1346 483 1370T457 1414T413 1445T351 1457Z" />
<glyph unicode="&#xa2;" glyph-name="cent" horiz-adv-x="1206" d="M601 1064Q500 1024 441 918T382 636Q382 554 398 489T442 373T511 289T601 235V1064ZM1077 312Q1056 256 1019 216T934 150T830 109T713 90V-76H668Q643 -76 630 -72T610 -58T602 -33T601 2V92Q499
103 418 142T280 247T193 401T162 602Q162 721 194 816T285 983T423 1100T601 1168V1347H645Q668 1347 681 1343T702 1331T711 1308T713 1274V1184Q727 1186 739 1186T762 1187Q772 1187 796 1186T851 1182T916 1174T981 1159T1036 1138T1072 1108Q1072 1086 1069
1061L1020 885L920 906Q885 984 837 1024T713 1072V213Q801 213 870 247T999 350L1077 312Z" />
<glyph unicode="&#xa3;" glyph-name="sterling" horiz-adv-x="1218" d="M356 375Q356 450 352 530T340 698H131V748Q131 769 134 780T144 797T163 804T192 805H325Q313 877 304 950T294 1093Q294 1170 314 1228T367 1328T445 1397T539 1440T640 1462T738 1468Q783
1468 841 1464T956 1448T1059 1420T1126 1375Q1127 1321 1127 1265T1131 1151L1008 1130Q993 1185 970 1225T914 1290T834 1328T728 1341Q616 1341 561 1272T505 1078Q505 1048 506 1017T512 955L530 805H867V756Q867 734 863 723T850 706T830 699T802 698H543Q547
650 549 609T551 529Q551 417 522 318T430 118H702Q779 118 834 121T933 145T1010 208T1079 333L1158 299Q1158 218 1152 147T1132 10Q1069 1 963 -3T699 -7Q630 -7 552 -7T399 -5T259 -3T150 0Q118 14 109 35T100 92Q167 113 215 138T295 196T341 272T356 375Z"
/>
<glyph unicode="&#xa4;" glyph-name="currency" horiz-adv-x="1251" d="M989 1002Q1079 885 1079 730Q1079 574 988 462L1118 330L1110 322Q1090 302 1068 282T1024 252Q1011 257 995 270T962 301T929 336T897 369Q839 327 769 303T624 279Q549 279 482 302T357
369L226 240Q204 261 181 284T146 328Q159 356 184 381L266 462Q176 576 176 731Q176 886 266 1000L133 1131Q156 1152 179 1176T226 1210Q238 1203 250 1195T276 1173L356 1093Q478 1184 625 1184Q698 1184 766 1161T895 1092L1027 1224L1036 1215Q1060 1192 1078
1170T1097 1121Q1097 1110 1096 1108L989 1002ZM308 731Q308 660 333 601T401 499T503 432T627 408Q695 408 753 433T855 501T922 604T947 731Q947 800 923 859T855 961T754 1030T627 1055Q559 1055 501 1031T400 963T333 860T308 731Z" />
<glyph unicode="&#xa5;" glyph-name="yen" horiz-adv-x="1624" d="M1145 1228Q1156 1255 1164 1276T1176 1317Q1157 1325 1133 1326T1078 1328H1008L1029 1430Q1096 1438 1166 1440T1321 1443Q1412 1443 1487 1441T1614 1428L1574 1328H1492Q1463 1328 1437 1327T1384
1317Q1367 1294 1349 1265T1310 1197Q1310 1197 1291 1161T1240 1068T1165 937T1077 789L960 598H1186V557Q1186 534 1182 522T1170 505T1150 498T1120 497H911V389H1186V349Q1186 326 1182 314T1170 297T1149 290T1119 289H911V250Q911 208 915 179T926 126Q948
120 973 119T1028 117H1119V-19Q1031 -8 954 -4T802 0Q721 0 644 -5T486 -19V117H575Q604 117 629 118T678 126Q693 171 693 247V289H426V356Q443 376 467 382T527 389H693V488L688 497H426V564Q444 584 469 591T531 598H633L283 1197Q260 1235 247 1264T215 1317Q190
1325 164 1326T108 1328H34L10 1430Q73 1438 143 1440T298 1443Q398 1443 483 1441T638 1428L650 1328H579Q549 1328 524 1327T481 1317Q482 1305 484 1296T491 1276T503 1253T521 1222L847 659Q875 707 905 762T966 873T1024 983T1076 1085T1118 1169T1145 1228Z"
/>
<glyph unicode="&#xa6;" glyph-name="brokenbar" horiz-adv-x="551" d="M343 732H285Q257 732 242 737T219 754T211 782T209 822V1535H265Q299 1535 317 1524T343 1488V732ZM343 -447H285Q257 -447 242 -442T219 -425T211 -398T209 -358V354H265Q299 354 317 344T343
308V-447Z" />
<glyph unicode="&#xa7;" glyph-name="section" horiz-adv-x="1063" d="M597 1518Q825 1518 889 1442L852 1235L760 1254Q746 1295 730 1323T691 1368T634 1392T552 1400Q464 1400 414 1362T363 1251Q363 1218 374 1192T411 1141T477 1094T577 1044Q698 991 773
949T889 867T944 785T959 688Q959 600 921 529T801 419Q873 377 907 312T941 176Q941 99 912 41T830 -57T703 -117T541 -137Q499 -137 443 -128T332 -103T232 -67T164 -23Q164 28 165 79T169 187L265 198Q284 138 310 97T372 30T454 -7T560 -18Q604 -18 642 -8T709
22T753 72T769 141Q769 181 745 210T678 265T578 316T454 375Q389 407 335 440T242 514T182 603T160 717Q160 811 200 871T326 971Q257 1022 226 1080T195 1216Q195 1285 221 1341T298 1436T424 1496T597 1518ZM670 483Q733 515 764 557T795 648Q795 685 766 719T688
784T576 846T443 906Q325 845 325 744Q325 720 331 700T352 661T390 625T449 589Q500 561 556 535T670 483Z" />
<glyph unicode="&#xa8;" glyph-name="dieresis" horiz-adv-x="877" d="M500 1411Q500 1435 509 1455T533 1491T569 1515T613 1524Q636 1524 656 1515T692 1491T717 1456T726 1411Q726 1388 717 1368T693 1332T657 1308T613 1299Q590 1299 570 1308T534 1332T509
1367T500 1411ZM156 1411Q156 1435 165 1455T189 1491T225 1515T269 1524Q292 1524 312 1515T348 1491T373 1456T382 1411Q382 1388 373 1368T349 1332T313 1308T269 1299Q246 1299 226 1308T190 1332T165 1367T156 1411Z" />
<glyph unicode="&#xa9;" glyph-name="copyright" horiz-adv-x="1774" d="M1176 347Q1125 316 1051 299T895 282Q802 282 724 310T590 393T502 525T470 705Q470 813 503 896T594 1036T733 1122T907 1152Q988 1152 1059 1131T1173 1071L1160 911H1103Q1065 989 1014
1025T890 1062Q836 1062 791 1039T713 975T662 876T644 749Q644 651 665 581T723 465T809 399T914 378Q987 378 1048 395T1165 450L1176 347ZM113 720Q113 827 140 925T218 1110T340 1267T497 1388T681 1466T887 1494Q994 1494 1092 1467T1277 1389T1434 1267T1555
1110T1633 926T1661 720Q1661 613 1634 515T1556 330T1434 173T1277 52T1093 -26T887 -54Q780 -54 682 -27T497 51T340 173T219 330T141 514T113 720ZM225 720Q225 583 277 463T419 252T629 110T887 58Q1024 58 1144 110T1355 252T1497 462T1549 720Q1549 857 1497
977T1355 1188T1145 1330T887 1382Q750 1382 630 1330T419 1188T277 978T225 720Z" />
<glyph unicode="&#xaa;" glyph-name="ordfeminine" horiz-adv-x="793" d="M759 826Q724 817 684 813T594 809Q522 809 510 845L507 896Q463 854 411 826T287 798Q239 798 199 810T131 845T88 904T72 985Q72 1088 154 1140T414 1192H507V1248Q507 1295 499 1327T476
1378T440 1406T391 1415Q355 1415 327 1406T274 1381T229 1341T185 1287Q106 1332 91 1344Q91 1368 110 1392T164 1437T249 1470T362 1483Q449 1483 505 1464T593 1413T639 1337T652 1244Q652 1187 652 1131T651 1024Q651 982 651 949T656 890Q676 884 700 883T759
881V826ZM496 956Q502 998 504 1036T507 1119H407Q313 1119 266 1088T218 992Q218 949 248 922T331 894Q371 894 414 912T496 956Z" />
<glyph unicode="&#xab;" glyph-name="guillemotleft" horiz-adv-x="1028" d="M482 531Q484 551 494 571T519 612L741 928Q751 942 760 951T777 968H781Q795 968 807 963T842 948L895 925L662 548L882 171Q848 144 831 133T797 122Q786 122 776 124T754 134L482
531ZM133 531Q138 550 147 570T171 612L421 962Q431 976 440 985T458 1003Q471 1003 485 999T521 981L574 959L313 548L561 138Q527 112 510 101T477 89Q455 89 434 101L133 531Z" />
<glyph unicode="&#xac;" glyph-name="logicalnot" horiz-adv-x="1257" d="M980 685H133V752Q133 781 139 796T157 819T186 828T227 829H1124V255H1056Q1023 255 1005 265T980 301V685Z" />
<glyph unicode="&#xad;" glyph-name="uni00AD" horiz-adv-x="898" d="M170 473V561Q170 583 175 595T191 613T216 620T250 622H728V537Q728 507 717 493T682 473H170Z" />
<glyph unicode="&#xae;" glyph-name="registered" horiz-adv-x="1774" d="M113 720Q113 827 140 925T218 1110T340 1267T497 1388T681 1466T887 1494Q994 1494 1092 1467T1277 1389T1434 1267T1555 1110T1633 926T1661 720Q1661 613 1634 515T1556 330T1434 173T1277
52T1093 -26T887 -54Q780 -54 682 -27T497 51T340 173T219 330T141 514T113 720ZM225 720Q225 583 277 463T419 252T629 110T887 58Q1024 58 1144 110T1355 252T1497 462T1549 720Q1549 857 1497 977T1355 1188T1145 1330T887 1382Q750 1382 630 1330T419 1188T277
978T225 720ZM633 981Q633 1021 624 1044Q612 1046 600 1046T576 1046H501V1106Q524 1108 557 1114T648 1125Q699 1130 751 1130T857 1131Q944 1131 1011 1119T1123 1077T1192 1002T1215 888Q1215 840 1200 802T1157 734T1093 683T1014 650Q1042 641 1067 622T1115
578T1154 528T1184 478L1221 407Q1231 388 1239 372T1260 356Q1261 356 1263 356T1273 360T1296 371T1338 393L1354 347Q1320 319 1280 298T1203 276Q1191 276 1177 277T1150 283T1124 299T1104 330Q1065 425 1021 500T921 644Q885 644 849 644T778 647V437Q778
413 780 397T787 366Q800 362 814 361T846 360H898V282Q841 288 793 290T696 293Q648 293 605 290T513 282V360H579Q591 360 602 361T624 366Q633 391 633 435V981ZM868 1053Q818 1053 778 1050V714Q801 713 826 713T882 712Q978 712 1021 756T1065 883Q1065 931
1054 963T1020 1016T959 1044T868 1053Z" />
<glyph unicode="&#xaf;" glyph-name="overscore" horiz-adv-x="591" d="M2 1421H589V1298H2V1421Z" />
<glyph unicode="&#xb0;" glyph-name="degree" horiz-adv-x="839" d="M98 1126Q98 1193 123 1251T191 1353T293 1422T417 1447Q484 1447 543 1422T645 1353T714 1251T739 1126Q739 1060 714 1002T646 900T543 831T417 805Q351 805 293 830T192 899T123 1001T98
1126ZM208 1126Q208 1082 225 1044T271 977T338 932T417 916Q460 916 498 932T565 977T610 1044T627 1126Q627 1169 611 1207T566 1274T499 1320T417 1337Q374 1337 336 1320T270 1274T225 1207T208 1126Z" />
<glyph unicode="&#xb1;" glyph-name="plusminus" horiz-adv-x="1257" d="M701 673V299H632Q606 299 591 302T568 315T558 339T556 378V673H133V740Q133 767 137 782T150 804T176 814T215 816H556V1191H623Q648 1191 663 1188T687 1176T698 1152T701 1111V816H1124V750Q1124
716 1113 699T1076 673H701ZM133 35V103Q133 128 136 143T148 166T172 176T213 179H1124V112Q1124 78 1113 61T1076 35H133Z" />
<glyph unicode="&#xb2;" glyph-name="twosuperior" horiz-adv-x="891" d="M450 1391Q417 1391 383 1381T321 1351T273 1300T247 1229L158 1303Q164 1343 190 1374T255 1425T342 1455T440 1466Q508 1466 560 1449T647 1401T701 1326T720 1228Q720 1172 699 1119T626
1002T490 857T277 662H520Q542 662 567 665T619 680T669 716T711 782Q723 782 733 779T750 775Q750 723 749 678T742 591Q724 585 704 582T656 577T591 575T504 574H197Q170 574 158 581T140 605Q140 615 142 628T148 656Q253 759 335 844T485 1007Q519 1045 540
1077T572 1136T588 1188T592 1234Q592 1391 450 1391Z" />
<glyph unicode="&#xb3;" glyph-name="threesuperior" horiz-adv-x="875" d="M602 1249Q602 1285 590 1312T556 1358T506 1386T447 1395Q415 1395 383 1385T324 1355T278 1306T252 1239L170 1306Q176 1346 201 1376T263 1427T345 1458T439 1468Q491 1468 541 1455T632
1414T696 1345T721 1248Q721 1215 707 1183T666 1122T599 1071T505 1036Q628 1020 690 965T752 810Q752 752 731 705T670 625T575 575T453 557Q401 557 353 567T267 594T202 634T167 681Q171 712 175 742T187 819L254 807Q254 757 271 724T315 670T376 642T445
633Q488 633 522 647T580 686T616 744T629 817Q629 863 611 896T559 950T477 980T367 990H342V1027Q342 1048 348 1062H382Q413 1062 451 1073T522 1107T579 1165T602 1249Z" />
<glyph unicode="&#xb4;" glyph-name="acute" horiz-adv-x="1225" d="M528 1264Q479 1264 452 1264T411 1264T394 1264T391 1265Q432 1335 461 1386T513 1475T550 1539T580 1587H831Q831 1587 819 1573T774 1523T681 1425T528 1264Z" />
<glyph unicode="&#xb5;" glyph-name="mu" horiz-adv-x="1521" d="M1045 834Q1045 891 1033 930Q1016 936 995 938T951 941H868V1027Q936 1041 1028 1047T1235 1054Q1250 1054 1253 1041T1257 1011V269Q1257 212 1262 172T1280 102Q1299 100 1320 99T1364 98H1435V15Q1323
-11 1171 -11Q1133 -11 1106 -9T1061 3T1036 30T1028 81L1026 115Q989 89 950 64T868 18T782 -14T691 -27Q661 -27 630 -21T566 -1V-120Q566 -186 579 -231Q596 -243 618 -250T667 -257V-340Q630 -353 581 -358T472 -364Q450 -364 428 -361T387 -348T358 -322T346
-278Q346 -229 349 -181T353 -70V834Q353 863 350 886T342 930Q324 936 303 938T259 941H176V1027Q244 1041 336 1047T543 1054Q559 1054 562 1039T566 1007V284Q566 242 573 207T600 146T655 106T745 91Q795 91 845 107T935 144T1001 183T1028 205Q1039 272 1042
356T1045 531V834Z" />
<glyph unicode="&#xb6;" glyph-name="paragraph" horiz-adv-x="1208" d="M797 1387Q894 1387 977 1385T1124 1372V1272H1032Q1002 1272 976 1271T929 1261Q921 1238 918 1209T914 1141V64Q914 -13 930 -57Q952 -64 977 -65T1033 -66H1122V-202Q1081 -198 1037
-195T948 -189T859 -185T774 -183V1311H620V-183Q579 -183 535 -184T446 -188T357 -194T272 -202V-66H361Q391 -66 416 -65T464 -57Q480 -13 480 64V595Q375 595 300 624T176 706T105 835T82 1004Q82 1107 117 1180T223 1299T402 1366T655 1387H797Z" />
<glyph unicode="&#xb7;" glyph-name="middot" horiz-adv-x="554" d="M166 597Q166 621 175 641T199 677T235 701T279 710Q302 710 322 701T358 677T383 642T392 597Q392 574 383 554T359 518T323 494T279 485Q256 485 236 494T200 518T175 553T166 597Z" />
<glyph unicode="&#xb8;" glyph-name="cedilla" horiz-adv-x="695" d="M129 -366Q162 -376 197 -383T263 -390Q326 -390 361 -364T397 -291Q397 -237 370 -211T297 -178Q289 -178 280 -180T260 -186Q248 -178 235 -174T209 -163L294 11H395L339 -96Q391 -99 432
-109T503 -139T548 -191T564 -272Q564 -330 545 -372T491 -443T409 -484T306 -498Q243 -498 199 -486T129 -457Q123 -441 123 -417Q123 -393 129 -366Z" />
<glyph unicode="&#xb9;" glyph-name="onesuperior" horiz-adv-x="707" d="M455 731Q455 705 457 688T463 656Q477 652 492 651T525 650H580V568Q529 575 484 577T395 580Q346 580 300 577T204 568V650H273Q286 650 298 651T320 656Q324 670 327 687T330 729V1330Q318
1339 305 1343T272 1348Q264 1348 255 1347T237 1345L179 1334L168 1391Q197 1401 230 1413T296 1435T360 1451T417 1458Q434 1458 442 1453T455 1440V731Z" />
<glyph unicode="&#xba;" glyph-name="ordmasculine" horiz-adv-x="845" d="M773 1139Q773 1058 747 995T673 888T563 821T424 798Q349 798 285 821T173 887T99 994T72 1139Q72 1220 99 1284T173 1392T285 1460T424 1483Q499 1483 562 1460T673 1392T746 1284T773
1139ZM425 1407Q331 1407 288 1343T244 1140Q244 1002 289 939T425 875Q516 875 559 939T602 1141Q602 1278 559 1342T425 1407Z" />
<glyph unicode="&#xbb;" glyph-name="guillemotright" horiz-adv-x="1028" d="M284 162Q274 148 266 139T249 122Q236 122 223 126T193 140L133 171L366 548L146 925L196 948Q215 956 230 962T257 968Q265 960 274 951T294 928L509 612Q540 572 547 531L284 162ZM605
129Q594 114 585 106T568 89Q557 89 546 91T521 100T493 115T456 138L715 548L465 959L515 981Q534 992 550 997T577 1003Q585 995 594 985T613 962L856 612Q887 571 895 531L605 129Z" />
<glyph unicode="&#xbc;" glyph-name="onequarter" horiz-adv-x="1716" d="M1195 1472Q1248 1472 1260 1453Q1250 1430 1237 1406T1210 1355L473 -40H408Q363 -40 351 -25Q547 352 744 723T1141 1472H1195ZM427 731Q427 705 429 688T435 656Q449 652 464 651T497
650H552V568Q501 575 456 577T367 580Q318 580 272 577T176 568V650H245Q258 650 270 651T292 656Q296 670 299 687T302 729V1330Q290 1339 277 1343T244 1348Q236 1348 227 1347T209 1345L151 1334L140 1391Q169 1401 202 1413T268 1435T332 1451T389 1458Q406
1458 414 1453T427 1440V731ZM1413 163Q1413 138 1415 120T1422 88Q1435 85 1450 84T1484 83H1538V0Q1489 7 1445 9T1359 12Q1308 12 1262 9T1167 0V83H1221Q1239 83 1254 83T1283 88Q1293 115 1293 162V245H913Q889 264 889 298Q894 312 907 330Q1004 469 1073
567T1189 731T1263 832T1303 882H1357Q1393 882 1403 873T1413 836V322H1583V289Q1583 258 1572 252T1535 245H1413V163ZM1293 322V701L1291 730L1016 342L1005 322H1293Z" />
<glyph unicode="&#xbd;" glyph-name="onehalf" horiz-adv-x="1797" d="M1210 1472Q1262 1472 1275 1453Q1264 1430 1251 1406T1224 1355L487 -40H422Q378 -40 366 -25Q374 -3 388 21T419 76Q605 426 787 773T1155 1472H1210ZM427 731Q427 705 429 688T435 656Q449
652 464 651T497 650H552V568Q501 575 456 577T367 580Q318 580 272 577T176 568V650H245Q258 650 270 651T292 656Q296 670 299 687T302 729V1330Q290 1339 277 1343T244 1348Q236 1348 227 1347T209 1345L151 1334L140 1391Q169 1401 202 1413T268 1435T332 1451T389
1458Q406 1458 414 1453T427 1440V731ZM1351 817Q1318 817 1284 807T1222 777T1174 726T1148 655L1059 729Q1065 769 1091 800T1156 851T1243 881T1341 892Q1409 892 1461 875T1548 827T1602 752T1621 654Q1621 598 1600 545T1527 428T1391 283T1178 88H1421Q1443
88 1468 91T1520 106T1570 142T1612 208Q1624 208 1634 205T1651 201Q1651 149 1650 104T1643 17Q1625 11 1605 8T1557 3T1492 1T1405 0H1098Q1071 0 1059 7T1041 31Q1041 41 1043 54T1049 82Q1154 185 1236 270T1386 433Q1420 471 1441 503T1473 562T1489 614T1493
660Q1493 817 1351 817Z" />
<glyph unicode="&#xbe;" glyph-name="threequarters" horiz-adv-x="1830" d="M1343 1472Q1395 1472 1407 1453Q1396 1428 1382 1402T1353 1347L620 -40H555Q512 -40 497 -25Q510 -1 524 26T556 84L1288 1472H1343ZM1559 163Q1559 138 1561 120T1568 88Q1581 85
1596 84T1630 83H1684V0Q1635 7 1591 9T1505 12Q1454 12 1408 9T1313 0V83H1367Q1385 83 1400 83T1429 88Q1439 115 1439 162V245H1059Q1035 264 1035 298Q1040 312 1053 330Q1150 469 1219 567T1335 731T1409 832T1449 882H1503Q1539 882 1549 873T1559 836V322H1729V289Q1729
258 1718 252T1681 245H1559V163ZM1439 322V701L1437 730L1162 342L1151 322H1439ZM582 1249Q582 1285 570 1312T536 1358T486 1386T427 1395Q395 1395 363 1385T304 1355T258 1306T232 1239L150 1306Q156 1346 181 1376T243 1427T325 1458T419 1468Q471 1468 521
1455T612 1414T676 1345T701 1248Q701 1215 687 1183T646 1122T579 1071T485 1036Q608 1020 670 965T732 810Q732 752 711 705T650 625T555 575T433 557Q381 557 333 567T247 594T182 634T147 681L150 704Q152 718 155 745T167 819L234 807Q234 757 251 724T295
670T356 642T425 633Q468 633 502 647T560 686T596 744T609 817Q609 863 591 896T539 950T457 980T347 990H322V1027Q322 1048 328 1062H362Q393 1062 431 1073T502 1107T559 1165T582 1249Z" />
<glyph unicode="&#xbf;" glyph-name="questiondown" horiz-adv-x="984" d="M381 1340Q381 1375 393 1400T424 1441T465 1464T510 1472Q550 1472 578 1461T623 1431T649 1389T657 1341Q657 1266 620 1230T519 1194Q489 1194 464 1206T421 1239T392 1286T381 1340ZM506
1057Q527 1045 550 1026T593 983T626 929T639 867Q639 817 615 775T554 693T475 614T396 530T335 436T310 322Q310 273 323 234T361 167T420 125T497 110Q534 110 571 115T642 136T701 185T743 273H880Q879 213 861 168T813 89T744 34T663 0T577 -18T493 -24Q402
-24 328 -1T200 68T118 178T88 326Q88 400 115 461T184 572T273 665T363 745T431 815T459 882Q459 897 457 917T451 961T441 1009T428 1057H506Z" />
<glyph unicode="&#xc0;" glyph-name="Agrave" horiz-adv-x="1581" d="M373 1903H623L812 1580H674L373 1903ZM750 1259L499 526H1005L759 1259H750ZM1352 259Q1368 217 1382 188T1412 135Q1435 129 1458 128T1508 126H1552L1581 -14Q1514 -4 1455 -2T1339 0Q1298
0 1261 0T1187 -2T1115 -6T1041 -14L1022 126H1039Q1068 126 1093 127T1138 135Q1137 158 1131 188T1109 256L1043 423H466L412 259Q400 223 395 197T389 147Q389 139 396 135T413 129T436 127T461 126H507L498 -14Q442 -4 390 -2T286 0Q210 0 143 -2T0 -14L30
126H76Q103 126 126 127T172 135Q189 158 204 188T233 256Q245 289 271 357T332 514T407 707T489 913L697 1437H789Q834 1437 860 1433T911 1421L1352 259Z" />
<glyph unicode="&#xc1;" glyph-name="Aacute" horiz-adv-x="1581" d="M812 1580Q763 1580 736 1580T695 1580T678 1580T675 1581Q716 1651 745 1702T797 1791T834 1855T864 1903H1115Q1115 1903 1103 1889T1058 1839T965 1741T812 1580ZM750 1259L499 526H1005L759
1259H750ZM1352 259Q1368 217 1382 188T1412 135Q1435 129 1458 128T1508 126H1552L1581 -14Q1514 -4 1455 -2T1339 0Q1298 0 1261 0T1187 -2T1115 -6T1041 -14L1022 126H1039Q1068 126 1093 127T1138 135Q1137 158 1131 188T1109 256L1043 423H466L412 259Q400
223 395 197T389 147Q389 139 396 135T413 129T436 127T461 126H507L498 -14Q442 -4 390 -2T286 0Q210 0 143 -2T0 -14L30 126H76Q103 126 126 127T172 135Q189 158 204 188T233 256Q245 289 271 357T332 514T407 707T489 913L697 1437H789Q834 1437 860 1433T911
1421L1352 259Z" />
<glyph unicode="&#xc2;" glyph-name="Acircumflex" horiz-adv-x="1581" d="M1068 1598Q1056 1580 1015 1580H934L744 1772L550 1580H473Q429 1580 417 1598Q422 1608 426 1616T439 1635L643 1903H842L1047 1635Q1054 1624 1059 1616T1068 1598ZM750 1259L499 526H1005L759
1259H750ZM1352 259Q1368 217 1382 188T1412 135Q1435 129 1458 128T1508 126H1552L1581 -14Q1514 -4 1455 -2T1339 0Q1298 0 1261 0T1187 -2T1115 -6T1041 -14L1022 126H1039Q1068 126 1093 127T1138 135Q1137 158 1131 188T1109 256L1043 423H466L412 259Q400
223 395 197T389 147Q389 139 396 135T413 129T436 127T461 126H507L498 -14Q442 -4 390 -2T286 0Q210 0 143 -2T0 -14L30 126H76Q103 126 126 127T172 135Q189 158 204 188T233 256Q245 289 271 357T332 514T407 707T489 913L697 1437H789Q834 1437 860 1433T911
1421L1352 259Z" />
<glyph unicode="&#xc3;" glyph-name="Atilde" horiz-adv-x="1581" d="M597 1826Q643 1826 682 1810T759 1773T832 1736T907 1719Q930 1719 950 1730T986 1756T1013 1786T1029 1810Q1082 1810 1131 1782Q1080 1685 1023 1633T897 1580Q848 1580 805 1597T722 1634T646
1671T576 1688Q553 1688 534 1677T498 1650T471 1620T453 1598Q427 1598 403 1604T355 1625Q383 1687 414 1726T477 1788T539 1818T597 1826ZM750 1259L499 526H1005L759 1259H750ZM1352 259Q1368 217 1382 188T1412 135Q1435 129 1458 128T1508 126H1552L1581
-14Q1514 -4 1455 -2T1339 0Q1298 0 1261 0T1187 -2T1115 -6T1041 -14L1022 126H1039Q1068 126 1093 127T1138 135Q1137 158 1131 188T1109 256L1043 423H466L412 259Q400 223 395 197T389 147Q389 139 396 135T413 129T436 127T461 126H507L498 -14Q442 -4 390
-2T286 0Q210 0 143 -2T0 -14L30 126H76Q103 126 126 127T172 135Q189 158 204 188T233 256Q245 289 271 357T332 514T407 707T489 913L697 1437H789Q834 1437 860 1433T911 1421L1352 259Z" />
<glyph unicode="&#xc4;" glyph-name="Adieresis" horiz-adv-x="1581" d="M802 1692Q802 1716 811 1736T835 1772T871 1796T915 1805Q938 1805 958 1796T994 1772T1019 1737T1028 1692Q1028 1669 1019 1649T995 1613T959 1589T915 1580Q892 1580 872 1589T836 1613T811
1648T802 1692ZM458 1692Q458 1716 467 1736T491 1772T527 1796T571 1805Q594 1805 614 1796T650 1772T675 1737T684 1692Q684 1669 675 1649T651 1613T615 1589T571 1580Q548 1580 528 1589T492 1613T467 1648T458 1692ZM750 1259L499 526H1005L759 1259H750ZM1352
259Q1368 217 1382 188T1412 135Q1435 129 1458 128T1508 126H1552L1581 -14Q1514 -4 1455 -2T1339 0Q1298 0 1261 0T1187 -2T1115 -6T1041 -14L1022 126H1039Q1068 126 1093 127T1138 135Q1137 158 1131 188T1109 256L1043 423H466L412 259Q400 223 395 197T389
147Q389 139 396 135T413 129T436 127T461 126H507L498 -14Q442 -4 390 -2T286 0Q210 0 143 -2T0 -14L30 126H76Q103 126 126 127T172 135Q189 158 204 188T233 256Q245 289 271 357T332 514T407 707T489 913L697 1437H789Q834 1437 860 1433T911 1421L1352 259Z"
/>
<glyph unicode="&#xc5;" glyph-name="Aring" horiz-adv-x="1581" d="M975 1668Q975 1617 957 1575T908 1504T834 1459T742 1443Q692 1443 650 1459T576 1506T528 1577T510 1668Q510 1717 527 1758T575 1830T648 1876T742 1893Q793 1893 835 1877T909 1830T957
1759T975 1668ZM872 1668Q872 1728 837 1762T742 1797Q685 1797 650 1763T614 1668Q614 1608 648 1575T742 1541Q799 1541 835 1574T872 1668ZM750 1259L499 526H1005L759 1259H750ZM1352 259Q1368 217 1382 188T1412 135Q1435 129 1458 128T1508 126H1552L1581
-14Q1514 -4 1455 -2T1339 0Q1298 0 1261 0T1187 -2T1115 -6T1041 -14L1022 126H1039Q1068 126 1093 127T1138 135Q1137 158 1131 188T1109 256L1043 423H466L412 259Q400 223 395 197T389 147Q389 139 396 135T413 129T436 127T461 126H507L498 -14Q442 -4 390
-2T286 0Q210 0 143 -2T0 -14L30 126H76Q103 126 126 127T172 135Q189 158 204 188T233 256Q245 289 271 357T332 514T407 707T489 913L697 1437H789Q834 1437 860 1433T911 1421L1352 259Z" />
<glyph unicode="&#xc6;" glyph-name="AE" horiz-adv-x="2265" d="M1330 0Q1258 0 1178 -2T1026 -14V126H1048Q1077 126 1102 127T1149 135Q1150 142 1150 149T1150 168Q1150 203 1139 256L1106 423H531L452 259Q435 223 424 195T412 144Q412 137 418 134T434 129T456
127T479 126H526L496 -14Q440 -4 389 -2T286 0Q248 0 213 0T144 -2T74 -6T0 -14L51 126H97Q122 126 145 127T193 135Q213 158 232 188T273 256Q289 289 326 357T413 514T518 706T630 913L909 1437H1805Q1837 1364 1859 1312T1895 1226T1916 1172T1925 1144L1779
1138L1760 1188Q1752 1210 1741 1234T1716 1282Q1673 1299 1603 1304T1414 1310Q1399 1310 1377 1310T1322 1310T1247 1308T1147 1306L1259 799H1599Q1619 799 1636 801T1666 814T1686 847T1696 910H1748Q1768 819 1785 728T1814 555H1751Q1730 592 1713 616T1679
654T1641 673T1593 679H1286L1410 126H1866Q1917 126 1955 136T2006 160Q2007 168 2007 177T2008 197Q2008 220 2006 251T1997 327Q2022 327 2057 326T2124 325L2146 209Q2155 161 2164 109T2179 21Q2151 12 2119 6T2042 -5T1938 -12T1795 -14Q1733 -14 1676 -12T1562
-7T1448 -2T1330 0ZM1084 526L949 1231L580 526H1084Z" />
<glyph unicode="&#xc7;" glyph-name="Ccedilla" horiz-adv-x="1375" d="M599 -397Q632 -407 667 -414T733 -421Q796 -421 831 -395T867 -322Q867 -268 840 -242T767 -209Q759 -209 750 -211T730 -217Q718 -209 705 -205T679 -194L764 -20H865L809 -127Q861 -130
902 -140T973 -170T1018 -222T1034 -303Q1034 -361 1015 -403T961 -474T879 -515T776 -529Q713 -529 669 -517T599 -488Q593 -472 593 -448Q593 -424 599 -397ZM1306 82Q1209 25 1089 -6T814 -37Q663 -37 536 7T315 141T170 366T117 685Q117 870 165 1014T305 1256T531
1406T839 1458Q915 1458 984 1448T1110 1423T1212 1389T1283 1355L1259 1076H1136Q1111 1143 1085 1192T1025 1274T945 1321T834 1337Q708 1337 618 1290T471 1162T386 969T358 728Q358 566 391 448T486 251T635 136T831 98Q934 98 1047 129T1291 221L1306 82Z"
/>
<glyph unicode="&#xc8;" glyph-name="Egrave" horiz-adv-x="1356" d="M528 1903H778L967 1580H829L528 1903ZM1204 1437L1231 1308Q1236 1283 1241 1258T1249 1210T1255 1170T1258 1144L1111 1138L1103 1188Q1099 1210 1094 1234T1080 1282Q1045 1298 984 1304T823
1310Q811 1310 792 1310T737 1309T649 1307T515 1303V799H855Q875 799 892 801T925 814T952 847T976 910H1028Q1028 819 1025 728T1015 555H952Q940 592 929 616T902 654T868 673T822 679H515V126H971Q1022 126 1062 136T1119 160Q1127 183 1134 222T1146 327Q1171
327 1205 326T1270 325V209Q1270 161 1267 109T1260 21Q1230 12 1197 6T1118 -5T1013 -12T869 -14Q807 -14 750 -12T637 -7T525 -2T407 0Q325 0 248 -2T89 -14V126H178Q208 126 234 127T281 135Q297 177 297 256V1174Q297 1212 293 1240T280 1289Q261 1297 238
1298T189 1299H78V1407Q175 1425 308 1431T592 1437H1204Z" />
<glyph unicode="&#xc9;" glyph-name="Eacute" horiz-adv-x="1356" d="M966 1580Q917 1580 890 1580T849 1580T832 1580T829 1581Q870 1651 899 1702T951 1791T988 1855T1018 1903H1269Q1269 1903 1257 1889T1212 1839T1119 1741T966 1580ZM1204 1437L1231 1308Q1236
1283 1241 1258T1249 1210T1255 1170T1258 1144L1111 1138L1103 1188Q1099 1210 1094 1234T1080 1282Q1045 1298 984 1304T823 1310Q811 1310 792 1310T737 1309T649 1307T515 1303V799H855Q875 799 892 801T925 814T952 847T976 910H1028Q1028 819 1025 728T1015
555H952Q940 592 929 616T902 654T868 673T822 679H515V126H971Q1022 126 1062 136T1119 160Q1127 183 1134 222T1146 327Q1171 327 1205 326T1270 325V209Q1270 161 1267 109T1260 21Q1230 12 1197 6T1118 -5T1013 -12T869 -14Q807 -14 750 -12T637 -7T525 -2T407
0Q325 0 248 -2T89 -14V126H178Q208 126 234 127T281 135Q297 177 297 256V1174Q297 1212 293 1240T280 1289Q261 1297 238 1298T189 1299H78V1407Q175 1425 308 1431T592 1437H1204Z" />
<glyph unicode="&#xca;" glyph-name="Ecircumflex" horiz-adv-x="1356" d="M1224 1598Q1212 1580 1171 1580H1090L900 1772L706 1580H629Q585 1580 573 1598Q578 1608 582 1616T595 1635L799 1903H998L1203 1635Q1210 1624 1215 1616T1224 1598ZM1204 1437L1231
1308Q1236 1283 1241 1258T1249 1210T1255 1170T1258 1144L1111 1138L1103 1188Q1099 1210 1094 1234T1080 1282Q1045 1298 984 1304T823 1310Q811 1310 792 1310T737 1309T649 1307T515 1303V799H855Q875 799 892 801T925 814T952 847T976 910H1028Q1028 819 1025
728T1015 555H952Q940 592 929 616T902 654T868 673T822 679H515V126H971Q1022 126 1062 136T1119 160Q1127 183 1134 222T1146 327Q1171 327 1205 326T1270 325V209Q1270 161 1267 109T1260 21Q1230 12 1197 6T1118 -5T1013 -12T869 -14Q807 -14 750 -12T637 -7T525
-2T407 0Q325 0 248 -2T89 -14V126H178Q208 126 234 127T281 135Q297 177 297 256V1174Q297 1212 293 1240T280 1289Q261 1297 238 1298T189 1299H78V1407Q175 1425 308 1431T592 1437H1204Z" />
<glyph unicode="&#xcb;" glyph-name="Edieresis" horiz-adv-x="1356" d="M957 1692Q957 1716 966 1736T990 1772T1026 1796T1070 1805Q1093 1805 1113 1796T1149 1772T1174 1737T1183 1692Q1183 1669 1174 1649T1150 1613T1114 1589T1070 1580Q1047 1580 1027
1589T991 1613T966 1648T957 1692ZM613 1692Q613 1716 622 1736T646 1772T682 1796T726 1805Q749 1805 769 1796T805 1772T830 1737T839 1692Q839 1669 830 1649T806 1613T770 1589T726 1580Q703 1580 683 1589T647 1613T622 1648T613 1692ZM1204 1437L1231 1308Q1236
1283 1241 1258T1249 1210T1255 1170T1258 1144L1111 1138L1103 1188Q1099 1210 1094 1234T1080 1282Q1045 1298 984 1304T823 1310Q811 1310 792 1310T737 1309T649 1307T515 1303V799H855Q875 799 892 801T925 814T952 847T976 910H1028Q1028 819 1025 728T1015
555H952Q940 592 929 616T902 654T868 673T822 679H515V126H971Q1022 126 1062 136T1119 160Q1127 183 1134 222T1146 327Q1171 327 1205 326T1270 325V209Q1270 161 1267 109T1260 21Q1230 12 1197 6T1118 -5T1013 -12T869 -14Q807 -14 750 -12T637 -7T525 -2T407
0Q325 0 248 -2T89 -14V126H178Q208 126 234 127T281 135Q297 177 297 256V1174Q297 1212 293 1240T280 1289Q261 1297 238 1298T189 1299H78V1407Q175 1425 308 1431T592 1437H1204Z" />
<glyph unicode="&#xcc;" glyph-name="Igrave" horiz-adv-x="792" d="M23 1903H273L462 1580H324L23 1903ZM79 126H168Q198 126 223 127T271 135Q287 179 287 256V1187Q287 1226 283 1252T271 1301Q249 1309 224 1310T168 1312H78V1422Q147 1430 223 1433T393 1437Q490
1437 572 1435T714 1422V1312H622Q593 1312 568 1311T519 1301Q513 1278 509 1252T505 1187V259Q505 217 509 188T519 135Q542 129 567 128T622 126H712V-14Q634 -4 566 -2T431 0Q340 0 255 -2T79 -14V126Z" />
<glyph unicode="&#xcd;" glyph-name="Iacute" horiz-adv-x="792" d="M462 1580Q413 1580 386 1580T345 1580T328 1580T325 1581Q366 1651 395 1702T447 1791T484 1855T514 1903H765Q765 1903 753 1889T708 1839T615 1741T462 1580ZM79 126H168Q198 126 223 127T271
135Q287 179 287 256V1187Q287 1226 283 1252T271 1301Q249 1309 224 1310T168 1312H78V1422Q147 1430 223 1433T393 1437Q490 1437 572 1435T714 1422V1312H622Q593 1312 568 1311T519 1301Q513 1278 509 1252T505 1187V259Q505 217 509 188T519 135Q542 129 567
128T622 126H712V-14Q634 -4 566 -2T431 0Q340 0 255 -2T79 -14V126Z" />
<glyph unicode="&#xce;" glyph-name="Icircumflex" horiz-adv-x="792" d="M718 1598Q706 1580 665 1580H584L394 1772L200 1580H123Q79 1580 67 1598Q72 1608 76 1616T89 1635L293 1903H492L697 1635Q704 1624 709 1616T718 1598ZM79 126H168Q198 126 223 127T271
135Q287 179 287 256V1187Q287 1226 283 1252T271 1301Q249 1309 224 1310T168 1312H78V1422Q147 1430 223 1433T393 1437Q490 1437 572 1435T714 1422V1312H622Q593 1312 568 1311T519 1301Q513 1278 509 1252T505 1187V259Q505 217 509 188T519 135Q542 129 567
128T622 126H712V-14Q634 -4 566 -2T431 0Q340 0 255 -2T79 -14V126Z" />
<glyph unicode="&#xcf;" glyph-name="Idieresis" horiz-adv-x="792" d="M452 1692Q452 1716 461 1736T485 1772T521 1796T565 1805Q588 1805 608 1796T644 1772T669 1737T678 1692Q678 1669 669 1649T645 1613T609 1589T565 1580Q542 1580 522 1589T486 1613T461
1648T452 1692ZM108 1692Q108 1716 117 1736T141 1772T177 1796T221 1805Q244 1805 264 1796T300 1772T325 1737T334 1692Q334 1669 325 1649T301 1613T265 1589T221 1580Q198 1580 178 1589T142 1613T117 1648T108 1692ZM79 126H168Q198 126 223 127T271 135Q287
179 287 256V1187Q287 1226 283 1252T271 1301Q249 1309 224 1310T168 1312H78V1422Q147 1430 223 1433T393 1437Q490 1437 572 1435T714 1422V1312H622Q593 1312 568 1311T519 1301Q513 1278 509 1252T505 1187V259Q505 217 509 188T519 135Q542 129 567 128T622
126H712V-14Q634 -4 566 -2T431 0Q340 0 255 -2T79 -14V126Z" />
<glyph unicode="&#xd0;" glyph-name="Eth" horiz-adv-x="1650" d="M84 1396Q212 1414 369 1428T721 1442Q829 1442 929 1431T1116 1390T1276 1308T1399 1175T1479 978T1507 708Q1507 574 1480 470T1402 287T1280 153T1123 64T938 15T732 0H289Q262 0 244 1T215
11T200 38T195 89Q221 103 241 116T276 149T297 196T304 270V675H86V730Q86 753 91 766T107 785T131 792T163 793H304V1184Q304 1222 300 1249T288 1298Q269 1303 244 1304T192 1305Q159 1305 130 1304T84 1303V1396ZM523 675V129Q574 125 622 124T718 122Q846
122 948 151T1121 249T1230 431T1268 715Q1268 884 1237 999T1142 1185T978 1285T741 1316Q703 1316 648 1315T522 1313V793H853V738Q853 686 815 675H523Z" />
<glyph unicode="&#xd1;" glyph-name="Ntilde" horiz-adv-x="1666" d="M691 1826Q737 1826 776 1810T853 1773T926 1736T1001 1719Q1024 1719 1044 1730T1080 1756T1107 1786T1123 1810Q1176 1810 1225 1782Q1174 1685 1117 1633T991 1580Q942 1580 899 1597T816
1634T740 1671T670 1688Q647 1688 628 1677T592 1650T565 1620T547 1598Q521 1598 497 1604T449 1625Q477 1687 508 1726T571 1788T633 1818T691 1826ZM308 1181Q308 1260 292 1301Q270 1309 244 1310T189 1312H78V1422Q115 1425 147 1427T212 1432T277 1436T352
1437Q406 1437 449 1436T531 1424Q618 1290 710 1146T896 853T1081 556T1256 265Q1256 318 1255 395T1253 560T1249 740T1246 917T1243 1071T1242 1181Q1242 1260 1226 1301Q1204 1308 1178 1310T1123 1312H1022V1422Q1089 1431 1162 1434T1323 1437Q1404 1437
1479 1435T1608 1422V1312H1528Q1499 1312 1473 1310T1425 1301Q1417 1278 1414 1249T1410 1181Q1410 1046 1407 892T1400 581T1390 271T1381 -14H1277Q1247 -14 1226 -9T1186 7L460 1162Q462 1106 464 1010T468 792T471 534T474 259Q474 217 477 188T488 135Q510
129 536 128T591 126H682V-14Q610 -4 547 -2T421 0Q336 0 260 -2T101 -14V126H190Q219 126 245 127T293 135Q309 176 309 256L308 1181Z" />
<glyph unicode="&#xd2;" glyph-name="Ograve" horiz-adv-x="1567" d="M414 1903H664L853 1580H715L414 1903ZM356 711Q356 408 462 248T784 87Q886 87 965 125T1099 240T1181 436T1210 714Q1210 1025 1100 1181T784 1337Q682 1337 603 1299T469 1182T385 987T356
711ZM1450 714Q1450 538 1404 399T1271 163T1061 15T784 -37Q629 -37 506 14T295 162T162 398T115 714Q115 892 161 1030T295 1264T505 1408T784 1458Q937 1458 1060 1409T1270 1264T1403 1031T1450 714Z" />
<glyph unicode="&#xd3;" glyph-name="Oacute" horiz-adv-x="1567" d="M852 1580Q803 1580 776 1580T735 1580T718 1580T715 1581Q756 1651 785 1702T837 1791T874 1855T904 1903H1155Q1155 1903 1143 1889T1098 1839T1005 1741T852 1580ZM356 711Q356 408 462
248T784 87Q886 87 965 125T1099 240T1181 436T1210 714Q1210 1025 1100 1181T784 1337Q682 1337 603 1299T469 1182T385 987T356 711ZM1450 714Q1450 538 1404 399T1271 163T1061 15T784 -37Q629 -37 506 14T295 162T162 398T115 714Q115 892 161 1030T295 1264T505
1408T784 1458Q937 1458 1060 1409T1270 1264T1403 1031T1450 714Z" />
<glyph unicode="&#xd4;" glyph-name="Ocircumflex" horiz-adv-x="1567" d="M1110 1598Q1098 1580 1057 1580H976L786 1772L592 1580H515Q471 1580 459 1598Q464 1608 468 1616T481 1635L685 1903H884L1089 1635Q1096 1624 1101 1616T1110 1598ZM356 711Q356 408
462 248T784 87Q886 87 965 125T1099 240T1181 436T1210 714Q1210 1025 1100 1181T784 1337Q682 1337 603 1299T469 1182T385 987T356 711ZM1450 714Q1450 538 1404 399T1271 163T1061 15T784 -37Q629 -37 506 14T295 162T162 398T115 714Q115 892 161 1030T295
1264T505 1408T784 1458Q937 1458 1060 1409T1270 1264T1403 1031T1450 714Z" />
<glyph unicode="&#xd5;" glyph-name="Otilde" horiz-adv-x="1567" d="M638 1826Q684 1826 723 1810T800 1773T873 1736T948 1719Q971 1719 991 1730T1027 1756T1054 1786T1070 1810Q1123 1810 1172 1782Q1121 1685 1064 1633T938 1580Q889 1580 846 1597T763 1634T687
1671T617 1688Q594 1688 575 1677T539 1650T512 1620T494 1598Q468 1598 444 1604T396 1625Q424 1687 455 1726T518 1788T580 1818T638 1826ZM356 711Q356 408 462 248T784 87Q886 87 965 125T1099 240T1181 436T1210 714Q1210 1025 1100 1181T784 1337Q682 1337
603 1299T469 1182T385 987T356 711ZM1450 714Q1450 538 1404 399T1271 163T1061 15T784 -37Q629 -37 506 14T295 162T162 398T115 714Q115 892 161 1030T295 1264T505 1408T784 1458Q937 1458 1060 1409T1270 1264T1403 1031T1450 714Z" />
<glyph unicode="&#xd6;" glyph-name="Odieresis" horiz-adv-x="1567" d="M843 1692Q843 1716 852 1736T876 1772T912 1796T956 1805Q979 1805 999 1796T1035 1772T1060 1737T1069 1692Q1069 1669 1060 1649T1036 1613T1000 1589T956 1580Q933 1580 913 1589T877
1613T852 1648T843 1692ZM499 1692Q499 1716 508 1736T532 1772T568 1796T612 1805Q635 1805 655 1796T691 1772T716 1737T725 1692Q725 1669 716 1649T692 1613T656 1589T612 1580Q589 1580 569 1589T533 1613T508 1648T499 1692ZM356 711Q356 408 462 248T784
87Q886 87 965 125T1099 240T1181 436T1210 714Q1210 1025 1100 1181T784 1337Q682 1337 603 1299T469 1182T385 987T356 711ZM1450 714Q1450 538 1404 399T1271 163T1061 15T784 -37Q629 -37 506 14T295 162T162 398T115 714Q115 892 161 1030T295 1264T505 1408T784
1458Q937 1458 1060 1409T1270 1264T1403 1031T1450 714Z" />
<glyph unicode="&#xd7;" glyph-name="multiply" horiz-adv-x="1229" d="M614 757L977 1120Q1001 1096 1024 1072T1059 1026Q1052 1012 1042 999T1018 972L709 662L1071 299L1026 256Q1011 242 1001 232T978 219Q968 219 962 222T949 231T937 244T924 259L614 568L252
206L207 250Q193 264 183 274T169 297Q175 310 184 323T210 353L520 662L158 1025Q193 1060 214 1076T264 1092Q269 1092 272 1092T281 1091L614 757Z" />
<glyph unicode="&#xd8;" glyph-name="Oslash" horiz-adv-x="1520" d="M1450 714Q1450 538 1404 399T1271 163T1061 15T784 -37Q706 -37 637 -26T506 14L471 30L394 -100Q345 -93 316 -84T279 -46Q287 -32 296 -19T316 10L366 95Q245 196 180 349T115 714Q115 892
161 1030T295 1264T505 1408T784 1458Q884 1458 966 1438T1124 1378L1209 1523Q1257 1515 1286 1506T1323 1471Q1312 1457 1305 1444T1289 1415L1225 1307Q1279 1263 1321 1202T1391 1064T1435 900T1450 714ZM356 711Q356 412 459 252L1044 1244Q942 1337 784 1337Q682
1337 603 1299T469 1182T385 987T356 711ZM784 85Q886 85 965 123T1099 240T1181 436T1210 714Q1210 984 1126 1139L545 156Q640 85 784 85Z" />
<glyph unicode="&#xd9;" glyph-name="Ugrave" horiz-adv-x="1605" d="M443 1903H693L882 1580H744L443 1903ZM1365 516Q1365 379 1323 276T1205 103T1024 -2T794 -37Q644 -37 539 7T367 132T271 329T240 586V1181Q240 1260 224 1301Q202 1309 177 1310T121 1312H31V1423Q100
1431 176 1434T346 1437Q443 1437 525 1435T669 1422V1312H576Q547 1312 522 1311T473 1301Q459 1257 459 1181V501Q459 396 485 318T559 189T674 111T824 85Q1014 85 1104 205T1195 577V1181Q1195 1260 1179 1301Q1157 1309 1131 1310T1076 1312H986V1423Q1052
1431 1122 1434T1280 1437Q1368 1437 1443 1435T1575 1422V1312H1483Q1453 1312 1427 1311T1380 1301Q1372 1278 1369 1249T1365 1181V516Z" />
<glyph unicode="&#xda;" glyph-name="Uacute" horiz-adv-x="1605" d="M882 1580Q833 1580 806 1580T765 1580T748 1580T745 1581Q786 1651 815 1702T867 1791T904 1855T934 1903H1185Q1185 1903 1173 1889T1128 1839T1035 1741T882 1580ZM1365 516Q1365 379 1323
276T1205 103T1024 -2T794 -37Q644 -37 539 7T367 132T271 329T240 586V1181Q240 1260 224 1301Q202 1309 177 1310T121 1312H31V1423Q100 1431 176 1434T346 1437Q443 1437 525 1435T669 1422V1312H576Q547 1312 522 1311T473 1301Q459 1257 459 1181V501Q459
396 485 318T559 189T674 111T824 85Q1014 85 1104 205T1195 577V1181Q1195 1260 1179 1301Q1157 1309 1131 1310T1076 1312H986V1423Q1052 1431 1122 1434T1280 1437Q1368 1437 1443 1435T1575 1422V1312H1483Q1453 1312 1427 1311T1380 1301Q1372 1278 1369 1249T1365
1181V516Z" />
<glyph unicode="&#xdb;" glyph-name="Ucircumflex" horiz-adv-x="1605" d="M1138 1598Q1126 1580 1085 1580H1004L814 1772L620 1580H543Q499 1580 487 1598Q492 1608 496 1616T509 1635L713 1903H912L1117 1635Q1124 1624 1129 1616T1138 1598ZM1365 516Q1365
379 1323 276T1205 103T1024 -2T794 -37Q644 -37 539 7T367 132T271 329T240 586V1181Q240 1260 224 1301Q202 1309 177 1310T121 1312H31V1423Q100 1431 176 1434T346 1437Q443 1437 525 1435T669 1422V1312H576Q547 1312 522 1311T473 1301Q459 1257 459 1181V501Q459
396 485 318T559 189T674 111T824 85Q1014 85 1104 205T1195 577V1181Q1195 1260 1179 1301Q1157 1309 1131 1310T1076 1312H986V1423Q1052 1431 1122 1434T1280 1437Q1368 1437 1443 1435T1575 1422V1312H1483Q1453 1312 1427 1311T1380 1301Q1372 1278 1369 1249T1365
1181V516Z" />
<glyph unicode="&#xdc;" glyph-name="Udieresis" horiz-adv-x="1605" d="M872 1692Q872 1716 881 1736T905 1772T941 1796T985 1805Q1008 1805 1028 1796T1064 1772T1089 1737T1098 1692Q1098 1669 1089 1649T1065 1613T1029 1589T985 1580Q962 1580 942 1589T906
1613T881 1648T872 1692ZM528 1692Q528 1716 537 1736T561 1772T597 1796T641 1805Q664 1805 684 1796T720 1772T745 1737T754 1692Q754 1669 745 1649T721 1613T685 1589T641 1580Q618 1580 598 1589T562 1613T537 1648T528 1692ZM1365 516Q1365 379 1323 276T1205
103T1024 -2T794 -37Q644 -37 539 7T367 132T271 329T240 586V1181Q240 1260 224 1301Q202 1309 177 1310T121 1312H31V1423Q100 1431 176 1434T346 1437Q443 1437 525 1435T669 1422V1312H576Q547 1312 522 1311T473 1301Q459 1257 459 1181V501Q459 396 485 318T559
189T674 111T824 85Q1014 85 1104 205T1195 577V1181Q1195 1260 1179 1301Q1157 1309 1131 1310T1076 1312H986V1423Q1052 1431 1122 1434T1280 1437Q1368 1437 1443 1435T1575 1422V1312H1483Q1453 1312 1427 1311T1380 1301Q1372 1278 1369 1249T1365 1181V516Z"
/>
<glyph unicode="&#xdd;" glyph-name="Yacute" horiz-adv-x="1588" d="M858 1580Q809 1580 782 1580T741 1580T724 1580T721 1581Q762 1651 791 1702T843 1791T880 1855T910 1903H1161Q1161 1903 1149 1889T1104 1839T1011 1741T858 1580ZM1122 1212Q1133 1239
1141 1260T1153 1301Q1134 1309 1110 1310T1055 1312H985L1009 1422Q1076 1430 1146 1433T1301 1437Q1392 1437 1467 1435T1594 1422L1554 1312H1469Q1440 1312 1414 1311T1361 1301Q1350 1285 1338 1269T1316 1234Q1314 1229 1295 1196T1245 1111T1176 996T1099
866Q1007 711 891 517V259Q891 217 895 188T906 135Q928 129 953 128T1008 126H1099V-14Q1021 -4 953 -2T817 0Q725 0 641 -2T466 -14V126H555Q584 126 609 127T658 135Q666 158 670 188T677 256V490L268 1181Q245 1219 231 1248T200 1301Q175 1309 149 1310T93
1312H19L-10 1422Q53 1430 123 1433T278 1437Q378 1437 463 1435T618 1422L635 1312H564Q534 1312 509 1311T466 1301Q467 1289 469 1280T476 1260T488 1237T506 1206L827 659Q900 790 961 903Q987 951 1013 999T1061 1089T1099 1163T1122 1212Z" />
<glyph unicode="&#xde;" glyph-name="Thorn" horiz-adv-x="1293" d="M317 1197Q317 1236 313 1265T301 1317Q279 1325 254 1326T198 1328H108V1430Q177 1438 253 1440T423 1443Q520 1443 602 1441T744 1428V1328H652Q623 1328 598 1327T549 1317Q543 1294 539
1265T535 1198Q622 1201 718 1201Q846 1201 949 1181T1125 1113T1237 983T1276 780Q1276 684 1243 609T1143 480T978 399T746 371H669Q640 371 607 372T535 376V250Q535 208 539 179T550 126Q572 120 598 119T653 117H743V-19Q655 -8 578 -4T426 0Q345 0 268 -5T110
-19V117H199Q228 117 254 118T302 126Q318 167 318 247L317 1197ZM706 1065Q658 1065 616 1064T535 1060V497Q566 496 602 496T684 495Q790 495 860 515T973 573T1034 662T1052 779Q1052 858 1032 912T968 1001T860 1050T706 1065Z" />
<glyph unicode="&#xdf;" glyph-name="germandbls" horiz-adv-x="1325" d="M431 277Q431 214 434 166T437 69Q437 42 426 26T396 -1T356 -14T313 -18Q146 -18 47 7L57 90H117Q143 90 165 97T205 116Q218 161 218 227V959Q218 958 201 958T164 958H106Q106 997 117
1008T161 1019Q175 1019 189 1018T218 1017Q218 1155 255 1257T359 1428T516 1530T711 1564Q816 1564 897 1538T1035 1460T1121 1331T1151 1154Q1151 1089 1134 1049T1078 974Q1055 979 1028 982T981 985Q930 985 892 974T828 942T791 896T778 839Q778 800 793
772T836 720T902 676T987 635Q1051 605 1105 576T1200 510T1263 427T1286 313Q1286 222 1251 159T1159 55T1031 -3T886 -22Q843 -22 788 -13T684 10T600 40T566 72Q566 80 568 92T576 126T591 182T616 269L705 242Q722 200 741 171T785 122T840 94T909 85Q952 85
985 99T1041 138T1076 196T1088 267Q1088 315 1064 350T997 413T900 467T784 521Q740 541 705 566T644 626T604 702T590 800Q590 914 666 981T902 1071Q929 1107 940 1139T952 1208Q952 1274 934 1323T883 1404T808 1453T714 1469Q652 1469 600 1444T511 1367T452
1234T431 1041V277Z" />
<glyph unicode="&#xe0;" glyph-name="agrave" horiz-adv-x="1247" d="M196 1507H446L635 1184H497L196 1507ZM754 205Q760 259 765 327T770 489H612Q469 489 393 436T317 280Q317 190 367 146T501 101Q564 101 629 130T754 205ZM1159 19Q1108 1 1044 -6T902 -13Q861
-13 833 -11T787 1T761 34T753 95L751 115Q721 88 687 63T613 19T527 -12T427 -24Q356 -24 296 -6T193 50T126 142T102 271Q102 437 231 520T623 603H770V671Q770 746 760 799T728 887T668 938T578 955Q518 955 471 938T386 894T321 830T269 755L130 843Q137 884
170 923T259 993T392 1042T566 1061Q780 1061 881 964T982 682V269Q982 212 987 172T999 101H1159V19Z" />
<glyph unicode="&#xe1;" glyph-name="aacute" horiz-adv-x="1247" d="M634 1440Q585 1440 558 1440T517 1440T500 1440T497 1441Q538 1511 567 1562T619 1651T656 1715T686 1763H937Q937 1763 925 1749T880 1699T787 1601T634 1440ZM754 205Q760 259 765 327T770
489H612Q469 489 393 436T317 280Q317 190 367 146T501 101Q564 101 629 130T754 205ZM1159 19Q1108 1 1044 -6T902 -13Q861 -13 833 -11T787 1T761 34T753 95L751 115Q721 88 687 63T613 19T527 -12T427 -24Q356 -24 296 -6T193 50T126 142T102 271Q102 437 231
520T623 603H770V671Q770 746 760 799T728 887T668 938T578 955Q518 955 471 938T386 894T321 830T269 755L130 843Q137 884 170 923T259 993T392 1042T566 1061Q780 1061 881 964T982 682V269Q982 212 987 172T999 101H1159V19Z" />
<glyph unicode="&#xe2;" glyph-name="acircumflex" horiz-adv-x="1247" d="M1148 1458Q1136 1440 1095 1440H1014L824 1632L630 1440H553Q509 1440 497 1458Q502 1468 506 1476T519 1495L723 1763H922L1127 1495Q1134 1484 1139 1476T1148 1458ZM754 205Q760 259
765 327T770 489H612Q469 489 393 436T317 280Q317 190 367 146T501 101Q564 101 629 130T754 205ZM1159 19Q1108 1 1044 -6T902 -13Q861 -13 833 -11T787 1T761 34T753 95L751 115Q721 88 687 63T613 19T527 -12T427 -24Q356 -24 296 -6T193 50T126 142T102 271Q102
437 231 520T623 603H770V671Q770 746 760 799T728 887T668 938T578 955Q518 955 471 938T386 894T321 830T269 755L130 843Q137 884 170 923T259 993T392 1042T566 1061Q780 1061 881 964T982 682V269Q982 212 987 172T999 101H1159V19Z" />
<glyph unicode="&#xe3;" glyph-name="atilde" horiz-adv-x="1247" d="M676 1686Q722 1686 761 1670T838 1633T911 1596T986 1579Q1009 1579 1029 1590T1065 1616T1092 1646T1108 1670Q1161 1670 1210 1642Q1159 1545 1102 1493T976 1440Q927 1440 884 1457T801
1494T725 1531T655 1548Q632 1548 613 1537T577 1510T550 1480T532 1458Q506 1458 482 1464T434 1485Q462 1547 493 1586T556 1648T618 1678T676 1686ZM754 205Q760 259 765 327T770 489H612Q469 489 393 436T317 280Q317 190 367 146T501 101Q564 101 629 130T754
205ZM1159 19Q1108 1 1044 -6T902 -13Q861 -13 833 -11T787 1T761 34T753 95L751 115Q721 88 687 63T613 19T527 -12T427 -24Q356 -24 296 -6T193 50T126 142T102 271Q102 437 231 520T623 603H770V671Q770 746 760 799T728 887T668 938T578 955Q518 955 471 938T386
894T321 830T269 755L130 843Q137 884 170 923T259 993T392 1042T566 1061Q780 1061 881 964T982 682V269Q982 212 987 172T999 101H1159V19Z" />
<glyph unicode="&#xe4;" glyph-name="adieresis" horiz-adv-x="1247" d="M625 1552Q625 1576 634 1596T658 1632T694 1656T738 1665Q761 1665 781 1656T817 1632T842 1597T851 1552Q851 1529 842 1509T818 1473T782 1449T738 1440Q715 1440 695 1449T659 1473T634
1508T625 1552ZM281 1552Q281 1576 290 1596T314 1632T350 1656T394 1665Q417 1665 437 1656T473 1632T498 1597T507 1552Q507 1529 498 1509T474 1473T438 1449T394 1440Q371 1440 351 1449T315 1473T290 1508T281 1552ZM754 205Q760 259 765 327T770 489H612Q469
489 393 436T317 280Q317 190 367 146T501 101Q564 101 629 130T754 205ZM1159 19Q1108 1 1044 -6T902 -13Q861 -13 833 -11T787 1T761 34T753 95L751 115Q721 88 687 63T613 19T527 -12T427 -24Q356 -24 296 -6T193 50T126 142T102 271Q102 437 231 520T623 603H770V671Q770
746 760 799T728 887T668 938T578 955Q518 955 471 938T386 894T321 830T269 755L130 843Q137 884 170 923T259 993T392 1042T566 1061Q780 1061 881 964T982 682V269Q982 212 987 172T999 101H1159V19Z" />
<glyph unicode="&#xe5;" glyph-name="aring" horiz-adv-x="1247" d="M799 1409Q799 1358 781 1316T732 1245T658 1200T566 1184Q516 1184 474 1200T400 1247T352 1318T334 1409Q334 1458 351 1499T399 1571T472 1617T566 1634Q617 1634 659 1618T733 1571T781
1500T799 1409ZM696 1409Q696 1469 661 1503T566 1538Q509 1538 474 1504T438 1409Q438 1349 472 1316T566 1282Q623 1282 659 1315T696 1409ZM754 205Q760 259 765 327T770 489H612Q469 489 393 436T317 280Q317 190 367 146T501 101Q564 101 629 130T754 205ZM1159
19Q1108 1 1044 -6T902 -13Q861 -13 833 -11T787 1T761 34T753 95L751 115Q721 88 687 63T613 19T527 -12T427 -24Q356 -24 296 -6T193 50T126 142T102 271Q102 437 231 520T623 603H770V671Q770 746 760 799T728 887T668 938T578 955Q518 955 471 938T386 894T321
830T269 755L130 843Q137 884 170 923T259 993T392 1042T566 1061Q780 1061 881 964T982 682V269Q982 212 987 172T999 101H1159V19Z" />
<glyph unicode="&#xe6;" glyph-name="ae" horiz-adv-x="1828" d="M1704 167Q1647 63 1546 18T1304 -28Q1148 -28 1034 27T852 195Q848 193 842 188T825 174T796 151T751 115Q721 88 687 63T613 17T527 -15T427 -28Q356 -28 296 -9T193 48T126 142T102 271Q102
437 231 520T623 603H770V671Q770 749 760 804T728 895T668 948T578 965Q518 965 471 947T386 900T321 833T269 755L130 843Q137 886 170 926T259 998T392 1049T566 1068Q699 1068 785 1033T919 927Q988 996 1083 1032T1300 1068Q1390 1068 1468 1041T1603 961T1693
832T1726 659Q1726 602 1717 568T1689 516T1642 493T1574 487H988Q999 289 1093 191T1347 93Q1425 93 1493 119T1618 205L1704 167ZM1509 604Q1511 608 1511 612T1511 621Q1511 688 1498 749T1455 856T1379 930T1266 958Q1133 958 1065 869T987 604H1509ZM754 205Q760
259 765 327T770 489H612Q469 489 393 436T317 280Q317 185 367 139T501 93Q564 93 629 124T754 205Z" />
<glyph unicode="&#xe7;" glyph-name="ccedilla" horiz-adv-x="1082" d="M433 -384Q466 -394 501 -401T567 -408Q630 -408 665 -382T701 -309Q701 -255 674 -229T601 -196Q593 -196 584 -198T564 -204Q552 -196 539 -192T513 -181L598 -7H699L643 -114Q695 -117
736 -127T807 -157T852 -209T868 -290Q868 -348 849 -390T795 -461T713 -502T610 -516Q547 -516 503 -504T433 -475Q427 -459 427 -435Q427 -411 433 -384ZM1002 54Q936 15 844 -4T648 -24Q531 -24 433 11T264 113T153 279T113 505Q113 638 155 742T270 916T444
1024T663 1061Q714 1061 762 1055T854 1036T935 1006T999 966L982 765H910Q862 859 799 903T642 947Q574 947 517 919T419 839T355 717T332 560Q332 439 359 352T432 210T540 128T672 101Q766 101 842 121T988 184L1002 54Z" />
<glyph unicode="&#xe8;" glyph-name="egrave" horiz-adv-x="1171" d="M528 1763H778L967 1440H829L528 1763ZM851 604Q853 608 853 612T853 621Q853 687 840 746T797 851T722 923T608 950Q475 950 407 862T329 604H851ZM1046 167Q989 67 889 22T646 -24Q525 -24
427 12T259 117T151 288T113 519Q113 645 150 745T256 916T422 1023T642 1061Q732 1061 810 1034T945 955T1035 828T1068 659Q1068 602 1059 568T1031 516T984 493T916 487H330Q341 294 432 198T679 101Q760 101 830 126T960 205L1046 167Z" />
<glyph unicode="&#xe9;" glyph-name="eacute" horiz-adv-x="1171" d="M710 1184Q661 1184 634 1184T593 1184T576 1184T573 1185Q614 1255 643 1306T695 1395T732 1459T762 1507H1013Q1013 1507 1001 1493T956 1443T863 1345T710 1184ZM851 604Q853 608 853 612T853
621Q853 687 840 746T797 851T722 923T608 950Q475 950 407 862T329 604H851ZM1046 167Q989 67 889 22T646 -24Q525 -24 427 12T259 117T151 288T113 519Q113 645 150 745T256 916T422 1023T642 1061Q732 1061 810 1034T945 955T1035 828T1068 659Q1068 602 1059
568T1031 516T984 493T916 487H330Q341 294 432 198T679 101Q760 101 830 126T960 205L1046 167Z" />
<glyph unicode="&#xea;" glyph-name="ecircumflex" horiz-adv-x="1171" d="M968 1458Q956 1440 915 1440H834L644 1632L450 1440H373Q329 1440 317 1458Q322 1468 326 1476T339 1495L543 1763H742L947 1495Q954 1484 959 1476T968 1458ZM851 604Q853 608 853 612T853
621Q853 687 840 746T797 851T722 923T608 950Q475 950 407 862T329 604H851ZM1046 167Q989 67 889 22T646 -24Q525 -24 427 12T259 117T151 288T113 519Q113 645 150 745T256 916T422 1023T642 1061Q732 1061 810 1034T945 955T1035 828T1068 659Q1068 602 1059
568T1031 516T984 493T916 487H330Q341 294 432 198T679 101Q760 101 830 126T960 205L1046 167Z" />
<glyph unicode="&#xeb;" glyph-name="edieresis" horiz-adv-x="1171" d="M701 1296Q701 1320 710 1340T734 1376T770 1400T814 1409Q837 1409 857 1400T893 1376T918 1341T927 1296Q927 1273 918 1253T894 1217T858 1193T814 1184Q791 1184 771 1193T735 1217T710
1252T701 1296ZM357 1296Q357 1320 366 1340T390 1376T426 1400T470 1409Q493 1409 513 1400T549 1376T574 1341T583 1296Q583 1273 574 1253T550 1217T514 1193T470 1184Q447 1184 427 1193T391 1217T366 1252T357 1296ZM851 604Q853 608 853 612T853 621Q853
687 840 746T797 851T722 923T608 950Q475 950 407 862T329 604H851ZM1046 167Q989 67 889 22T646 -24Q525 -24 427 12T259 117T151 288T113 519Q113 645 150 745T256 916T422 1023T642 1061Q732 1061 810 1034T945 955T1035 828T1068 659Q1068 602 1059 568T1031
516T984 493T916 487H330Q341 294 432 198T679 101Q760 101 830 126T960 205L1046 167Z" />
<glyph unicode="&#xec;" glyph-name="igrave" horiz-adv-x="655" d="M-11 1507H239L428 1184H290L-11 1507ZM237 839Q237 862 235 883T228 925Q195 940 143 940H47V1026Q96 1037 176 1045T359 1053Q403 1053 421 1048T450 1026V227Q450 161 463 116Q480 104 502
97T552 90H610L621 7Q569 -6 503 -11T356 -17Q334 -17 312 -14T271 -1T242 25T230 69Q230 118 233 166T237 277V839Z" />
<glyph unicode="&#xed;" glyph-name="iacute" horiz-adv-x="655" d="M684 1440Q635 1440 608 1440T567 1440T550 1440T547 1441Q588 1511 617 1562T669 1651T706 1715T736 1763H987Q987 1763 975 1749T930 1699T837 1601T684 1440ZM237 839Q237 862 235 883T228
925Q195 940 143 940H47V1026Q96 1037 176 1045T359 1053Q403 1053 421 1048T450 1026V227Q450 161 463 116Q480 104 502 97T552 90H610L621 7Q569 -6 503 -11T356 -17Q334 -17 312 -14T271 -1T242 25T230 69Q230 118 233 166T237 277V839Z" />
<glyph unicode="&#xee;" glyph-name="icircumflex" horiz-adv-x="655" d="M684 1202Q672 1184 631 1184H550L360 1376L166 1184H89Q45 1184 33 1202Q38 1212 42 1220T55 1239L259 1507H458L663 1239Q670 1228 675 1220T684 1202ZM237 839Q237 862 235 883T228
925Q195 940 143 940H47V1026Q96 1037 176 1045T359 1053Q403 1053 421 1048T450 1026V227Q450 161 463 116Q480 104 502 97T552 90H610L621 7Q569 -6 503 -11T356 -17Q334 -17 312 -14T271 -1T242 25T230 69Q230 118 233 166T237 277V839Z" />
<glyph unicode="&#xef;" glyph-name="idieresis" horiz-adv-x="655" d="M674 1552Q674 1576 683 1596T707 1632T743 1656T787 1665Q810 1665 830 1656T866 1632T891 1597T900 1552Q900 1529 891 1509T867 1473T831 1449T787 1440Q764 1440 744 1449T708 1473T683
1508T674 1552ZM330 1552Q330 1576 339 1596T363 1632T399 1656T443 1665Q466 1665 486 1656T522 1632T547 1597T556 1552Q556 1529 547 1509T523 1473T487 1449T443 1440Q420 1440 400 1449T364 1473T339 1508T330 1552ZM237 839Q237 862 235 883T228 925Q195
940 143 940H47V1026Q96 1037 176 1045T359 1053Q403 1053 421 1048T450 1026V227Q450 161 463 116Q480 104 502 97T552 90H610L621 7Q569 -6 503 -11T356 -17Q334 -17 312 -14T271 -1T242 25T230 69Q230 118 233 166T237 277V839Z" />
<glyph unicode="&#xf0;" glyph-name="eth" horiz-adv-x="1309" d="M365 1562Q477 1554 572 1528T753 1453L986 1592L1014 1556Q1019 1546 1025 1538T1035 1522Q1026 1507 1005 1491T955 1457T898 1424T844 1395Q923 1334 982 1253T1081 1073T1141 863T1161 630Q1161
547 1149 466T1110 312T1042 176T942 69T809 -3T639 -29Q532 -29 440 6T279 110T172 277T133 506Q133 629 172 725T280 887T441 987T639 1021Q719 1021 789 1000T925 925Q896 1058 837 1151T698 1305L452 1161L424 1197Q416 1207 409 1214T400 1231Q414 1254 445
1272L609 1368Q471 1452 313 1474L365 1562ZM575 98Q611 82 663 82Q732 82 783 115T870 209T922 357T940 554Q940 596 936 636T925 716Q903 770 873 807T807 869T728 903T639 914Q500 914 431 811T362 508Q362 325 414 226T575 98Z" />
<glyph unicode="&#xf1;" glyph-name="ntilde" horiz-adv-x="1382" d="M545 1686Q591 1686 630 1670T707 1633T780 1596T855 1579Q878 1579 898 1590T934 1616T961 1646T977 1670Q1030 1670 1079 1642Q1028 1545 971 1493T845 1440Q796 1440 753 1457T670 1494T594
1531T524 1548Q501 1548 482 1537T446 1510T419 1480T401 1458Q375 1458 351 1464T303 1485Q331 1547 362 1586T425 1648T487 1678T545 1686ZM1153 269Q1153 212 1158 172T1170 101H1314L1325 12Q1224 -13 1058 -13Q1037 -13 1015 -10T975 4T946 30T934 74Q934
123 937 174T940 289V651Q940 730 927 784T890 873T835 921T767 936Q727 936 684 922T599 883T522 829T461 766V237Q461 193 463 165T476 118T512 90T581 72L589 -13Q532 -7 469 -4T339 0Q279 0 223 -3T119 -13L122 72Q169 78 194 86T231 109T245 147T247 206V845Q247
865 246 884T240 921Q226 929 210 932T170 936H57V1032Q69 1035 94 1038T151 1045T220 1050T296 1052Q344 1052 386 1048T456 1032V906Q494 943 539 972T634 1021T735 1051T835 1062Q898 1062 955 1044T1057 988T1127 889T1153 744V269Z" />
<glyph unicode="&#xf2;" glyph-name="ograve" horiz-adv-x="1285" d="M529 1763H779L968 1440H830L529 1763ZM1172 518Q1172 384 1130 283T1015 113T847 11T643 -24Q531 -24 435 12T267 117T154 287T113 518Q113 647 154 748T266 918T434 1025T643 1062Q754 1062
851 1025T1019 919T1131 748T1172 518ZM342 519Q342 297 414 192T642 87Q723 87 780 114T874 195T926 330T943 519Q943 733 871 839T642 946Q562 946 505 919T412 837T359 703T342 519Z" />
<glyph unicode="&#xf3;" glyph-name="oacute" horiz-adv-x="1285" d="M712 1184Q663 1184 636 1184T595 1184T578 1184T575 1185Q616 1255 645 1306T697 1395T734 1459T764 1507H1015Q1015 1507 1003 1493T958 1443T865 1345T712 1184ZM1172 518Q1172 384 1130
283T1015 113T847 11T643 -24Q531 -24 435 12T267 117T154 287T113 518Q113 647 154 748T266 918T434 1025T643 1062Q754 1062 851 1025T1019 919T1131 748T1172 518ZM342 519Q342 297 414 192T642 87Q723 87 780 114T874 195T926 330T943 519Q943 733 871 839T642
946Q562 946 505 919T412 837T359 703T342 519Z" />
<glyph unicode="&#xf4;" glyph-name="ocircumflex" horiz-adv-x="1285" d="M968 1458Q956 1440 915 1440H834L644 1632L450 1440H373Q329 1440 317 1458Q322 1468 326 1476T339 1495L543 1763H742L947 1495Q954 1484 959 1476T968 1458ZM1172 518Q1172 384 1130
283T1015 113T847 11T643 -24Q531 -24 435 12T267 117T154 287T113 518Q113 647 154 748T266 918T434 1025T643 1062Q754 1062 851 1025T1019 919T1131 748T1172 518ZM342 519Q342 297 414 192T642 87Q723 87 780 114T874 195T926 330T943 519Q943 733 871 839T642
946Q562 946 505 919T412 837T359 703T342 519Z" />
<glyph unicode="&#xf5;" glyph-name="otilde" horiz-adv-x="1285" d="M497 1686Q543 1686 582 1670T659 1633T732 1596T807 1579Q830 1579 850 1590T886 1616T913 1646T929 1670Q982 1670 1031 1642Q980 1545 923 1493T797 1440Q748 1440 705 1457T622 1494T546
1531T476 1548Q453 1548 434 1537T398 1510T371 1480T353 1458Q327 1458 303 1464T255 1485Q283 1547 314 1586T377 1648T439 1678T497 1686ZM1172 518Q1172 384 1130 283T1015 113T847 11T643 -24Q531 -24 435 12T267 117T154 287T113 518Q113 647 154 748T266
918T434 1025T643 1062Q754 1062 851 1025T1019 919T1131 748T1172 518ZM342 519Q342 297 414 192T642 87Q723 87 780 114T874 195T926 330T943 519Q943 733 871 839T642 946Q562 946 505 919T412 837T359 703T342 519Z" />
<glyph unicode="&#xf6;" glyph-name="odieresis" horiz-adv-x="1285" d="M702 1296Q702 1320 711 1340T735 1376T771 1400T815 1409Q838 1409 858 1400T894 1376T919 1341T928 1296Q928 1273 919 1253T895 1217T859 1193T815 1184Q792 1184 772 1193T736 1217T711
1252T702 1296ZM358 1296Q358 1320 367 1340T391 1376T427 1400T471 1409Q494 1409 514 1400T550 1376T575 1341T584 1296Q584 1273 575 1253T551 1217T515 1193T471 1184Q448 1184 428 1193T392 1217T367 1252T358 1296ZM1172 518Q1172 384 1130 283T1015 113T847
11T643 -24Q531 -24 435 12T267 117T154 287T113 518Q113 647 154 748T266 918T434 1025T643 1062Q754 1062 851 1025T1019 919T1131 748T1172 518ZM342 519Q342 297 414 192T642 87Q723 87 780 114T874 195T926 330T943 519Q943 733 871 839T642 946Q562 946 505
919T412 837T359 703T342 519Z" />
<glyph unicode="&#xf7;" glyph-name="divide" horiz-adv-x="1258" d="M612 244Q642 244 667 232T710 199T738 153T749 99Q749 63 737 38T707 -3T665 -26T620 -34Q581 -34 553 -23T508 6T482 48T473 97Q473 173 512 208T612 244ZM473 919Q473 981 512 1018T617
1055Q647 1055 671 1045T714 1016T741 975T751 927Q751 889 740 861T711 815T669 788T620 779Q542 779 508 819T473 919ZM395 490V558Q395 583 398 598T410 621T434 632T474 635H1387V567Q1387 533 1376 516T1340 490H395Z" />
<glyph unicode="&#xf8;" glyph-name="oslash" horiz-adv-x="1182" d="M1172 518Q1172 384 1130 282T1015 111T847 7T643 -28Q533 -28 441 6L344 -167L299 -156Q252 -150 246 -121Q254 -106 263 -92T283 -63L347 51Q294 84 251 130T177 236T130 365T113 518Q113
648 154 750T266 923T434 1031T643 1068Q776 1068 888 1015L992 1200L1036 1189Q1085 1183 1091 1155Q1083 1141 1074 1126T1053 1096L977 960Q1068 890 1120 780T1172 518ZM342 519Q342 401 360 319T421 183L824 902Q757 960 642 960Q562 960 505 932T412 849T359
711T342 519ZM943 519Q943 699 893 810L502 114Q557 86 642 86Q723 86 780 113T874 194T926 329T943 519Z" />
<glyph unicode="&#xf9;" glyph-name="ugrave" horiz-adv-x="1353" d="M536 1763H786L975 1440H837L536 1763ZM1128 269Q1128 212 1133 172T1145 101H1306V15Q1254 2 1189 -5T1042 -13Q1004 -13 977 -11T932 1T907 30T899 81V115L884 104Q853 81 819 59T742 18T643
-12T516 -24Q364 -24 294 58T224 299V829Q224 858 221 881T213 925Q195 931 174 933T130 936H47V1032Q60 1035 86 1038T146 1045T221 1050T304 1052Q342 1052 377 1048T436 1032V352Q436 300 439 255T460 175T513 121T616 101Q666 101 716 116T806 150T872 185T899
205Q910 272 913 356T916 531V829Q916 886 904 925Q887 931 866 933T822 936H739V1032Q752 1035 778 1038T838 1045T913 1050T996 1052Q1034 1052 1069 1048T1128 1032V269Z" />
<glyph unicode="&#xfa;" glyph-name="uacute" horiz-adv-x="1353" d="M718 1184Q669 1184 642 1184T601 1184T584 1184T581 1185Q622 1255 651 1306T703 1395T740 1459T770 1507H1021Q1021 1507 1009 1493T964 1443T871 1345T718 1184ZM1128 269Q1128 212 1133
172T1145 101H1306V15Q1254 2 1189 -5T1042 -13Q1004 -13 977 -11T932 1T907 30T899 81V115L884 104Q853 81 819 59T742 18T643 -12T516 -24Q364 -24 294 58T224 299V829Q224 858 221 881T213 925Q195 931 174 933T130 936H47V1032Q60 1035 86 1038T146 1045T221
1050T304 1052Q342 1052 377 1048T436 1032V352Q436 300 439 255T460 175T513 121T616 101Q666 101 716 116T806 150T872 185T899 205Q910 272 913 356T916 531V829Q916 886 904 925Q887 931 866 933T822 936H739V1032Q752 1035 778 1038T838 1045T913 1050T996
1052Q1034 1052 1069 1048T1128 1032V269Z" />
<glyph unicode="&#xfb;" glyph-name="ucircumflex" horiz-adv-x="1353" d="M976 1458Q964 1440 923 1440H842L652 1632L458 1440H381Q337 1440 325 1458Q330 1468 334 1476T347 1495L551 1763H750L955 1495Q962 1484 967 1476T976 1458ZM1128 269Q1128 212 1133
172T1145 101H1306V15Q1254 2 1189 -5T1042 -13Q1004 -13 977 -11T932 1T907 30T899 81V115L884 104Q853 81 819 59T742 18T643 -12T516 -24Q364 -24 294 58T224 299V829Q224 858 221 881T213 925Q195 931 174 933T130 936H47V1032Q60 1035 86 1038T146 1045T221
1050T304 1052Q342 1052 377 1048T436 1032V352Q436 300 439 255T460 175T513 121T616 101Q666 101 716 116T806 150T872 185T899 205Q910 272 913 356T916 531V829Q916 886 904 925Q887 931 866 933T822 936H739V1032Q752 1035 778 1038T838 1045T913 1050T996
1052Q1034 1052 1069 1048T1128 1032V269Z" />
<glyph unicode="&#xfc;" glyph-name="udieresis" horiz-adv-x="1353" d="M709 1296Q709 1320 718 1340T742 1376T778 1400T822 1409Q845 1409 865 1400T901 1376T926 1341T935 1296Q935 1273 926 1253T902 1217T866 1193T822 1184Q799 1184 779 1193T743 1217T718
1252T709 1296ZM365 1296Q365 1320 374 1340T398 1376T434 1400T478 1409Q501 1409 521 1400T557 1376T582 1341T591 1296Q591 1273 582 1253T558 1217T522 1193T478 1184Q455 1184 435 1193T399 1217T374 1252T365 1296ZM1128 269Q1128 212 1133 172T1145 101H1306V15Q1254
2 1189 -5T1042 -13Q1004 -13 977 -11T932 1T907 30T899 81V115L884 104Q853 81 819 59T742 18T643 -12T516 -24Q364 -24 294 58T224 299V829Q224 858 221 881T213 925Q195 931 174 933T130 936H47V1032Q60 1035 86 1038T146 1045T221 1050T304 1052Q342 1052 377
1048T436 1032V352Q436 300 439 255T460 175T513 121T616 101Q666 101 716 116T806 150T872 185T899 205Q910 272 913 356T916 531V829Q916 886 904 925Q887 931 866 933T822 936H739V1032Q752 1035 778 1038T838 1045T913 1050T996 1052Q1034 1052 1069 1048T1128
1032V269Z" />
<glyph unicode="&#xfd;" glyph-name="yacute" horiz-adv-x="1317" d="M739 1184Q690 1184 663 1184T622 1184T605 1184T602 1185Q643 1255 672 1306T724 1395T761 1459T791 1507H1042Q1042 1507 1030 1493T985 1443T892 1345T739 1184ZM970 835Q977 858 984 879T996
921Q982 929 964 932T918 936H862L874 1032Q913 1043 969 1047T1097 1052Q1170 1052 1227 1048T1317 1032V936H1263Q1235 936 1213 933T1171 921Q1169 919 1166 913T1154 890T1133 842T1097 761L682 -196Q644 -283 602 -339T511 -429T406 -475T285 -488Q258 -488
233 -486T186 -480T151 -471T130 -460L152 -321Q190 -335 232 -342T304 -349Q349 -349 383 -340T448 -300T513 -209T590 -47L217 834Q207 857 196 878T170 920Q131 935 79 935H25L8 1031Q43 1042 104 1047T244 1052Q335 1052 411 1047T536 1031L551 935H496Q470
935 448 932T411 920Q412 915 425 880T460 792T507 672T561 536L706 171L970 835Z" />
<glyph unicode="&#xfe;" glyph-name="thorn" horiz-adv-x="1359" d="M990 540Q990 950 741 950Q588 950 454 825Q433 675 433 498Q433 281 439 133Q447 122 476 114T544 98T624 88T696 84Q763 84 817 113T910 199T969 341T990 540ZM221 1339Q221 1365 219 1391T213
1441Q195 1447 174 1451T126 1455H30V1542Q81 1554 169 1561T369 1569Q386 1569 400 1569T425 1566Q430 1547 431 1526T435 1479V913Q510 991 597 1029T793 1068Q890 1068 968 1033T1102 931T1186 767T1216 547Q1216 409 1178 303T1076 124T927 14T749 -24Q655
-24 578 -6T433 51V-172Q433 -224 435 -264T446 -336T476 -389T535 -427V-469Q440 -488 325 -488Q210 -488 115 -469V-427Q152 -412 173 -390T206 -336T219 -265T222 -172L221 1339Z" />
<glyph unicode="&#xff;" glyph-name="ydieresis" horiz-adv-x="1317" d="M730 1296Q730 1320 739 1340T763 1376T799 1400T843 1409Q866 1409 886 1400T922 1376T947 1341T956 1296Q956 1273 947 1253T923 1217T887 1193T843 1184Q820 1184 800 1193T764 1217T739
1252T730 1296ZM386 1296Q386 1320 395 1340T419 1376T455 1400T499 1409Q522 1409 542 1400T578 1376T603 1341T612 1296Q612 1273 603 1253T579 1217T543 1193T499 1184Q476 1184 456 1193T420 1217T395 1252T386 1296ZM970 835Q977 858 984 879T996 921Q982
929 964 932T918 936H862L874 1032Q913 1043 969 1047T1097 1052Q1170 1052 1227 1048T1317 1032V936H1263Q1235 936 1213 933T1171 921Q1169 919 1166 913T1154 890T1133 842T1097 761L682 -196Q644 -283 602 -339T511 -429T406 -475T285 -488Q258 -488 233 -486T186
-480T151 -471T130 -460L152 -321Q190 -335 232 -342T304 -349Q349 -349 383 -340T448 -300T513 -209T590 -47L217 834Q207 857 196 878T170 920Q131 935 79 935H25L8 1031Q43 1042 104 1047T244 1052Q335 1052 411 1047T536 1031L551 935H496Q470 935 448 932T411
920Q412 915 425 880T460 792T507 672T561 536L706 171L970 835Z" />
<glyph unicode="&#x2013;" glyph-name="endash" horiz-adv-x="990" d="M-10 519V581Q-10 606 -3 620T17 641T48 649T87 651H1000V590Q1000 558 989 543T952 519H-10Z" />
<glyph unicode="&#x2014;" glyph-name="emdash" horiz-adv-x="1756" d="M-10 519V581Q-10 606 -3 620T17 641T48 649T87 651H1766V590Q1766 558 1756 543T1719 519H-10Z" />
<glyph unicode="&#x2018;" glyph-name="quoteleft" horiz-adv-x="464" d="M345 1564Q359 1564 372 1556T403 1516Q380 1487 363 1456T334 1387T314 1305T302 1208Q319 1208 334 1202T360 1186T377 1162T384 1136Q384 1095 372 1069T342 1028T302 1007T258 1001Q216
1001 189 1009T145 1032T122 1067T115 1114Q115 1174 132 1237T179 1360T252 1472T345 1564Z" />
<glyph unicode="&#x2019;" glyph-name="quoteright" horiz-adv-x="463" d="M123 1001Q109 1001 96 1009T65 1049Q87 1078 104 1109T134 1178T154 1260T166 1357Q149 1357 134 1363T108 1379T91 1402T84 1429Q84 1469 96 1495T126 1537T166 1558T210 1564Q252 1564
279 1556T323 1533T346 1497T353 1451Q353 1391 336 1328T289 1205T216 1093T123 1001Z" />
<glyph unicode="&#x201a;" glyph-name="quotesinglbase" horiz-adv-x="462" d="M117 -322Q102 -322 90 -314T61 -273Q82 -244 98 -213T127 -145T147 -64T160 35Q143 35 128 41T101 58T83 81T76 107Q76 149 88 175T119 217T160 237T204 243Q246 243 273 235T317
212T340 176T347 129Q347 61 329 -3T279 -124T205 -232T117 -322Z" />
<glyph unicode="&#x201c;" glyph-name="quotedblleft" horiz-adv-x="861" d="M733 1564Q747 1564 760 1556T791 1516Q768 1487 751 1456T722 1387T702 1305T690 1208Q707 1208 722 1202T748 1186T765 1162T772 1136Q772 1095 760 1069T730 1028T690 1007T646 1001Q604
1001 577 1009T533 1032T510 1067T503 1114Q503 1174 520 1237T567 1360T640 1472T733 1564ZM335 1564Q349 1564 362 1556T393 1516Q370 1487 353 1456T324 1387T304 1305T292 1208Q309 1208 324 1202T350 1186T367 1162T374 1136Q374 1095 362 1069T332 1028T292
1007T248 1001Q206 1001 179 1009T135 1032T112 1067T105 1114Q105 1174 122 1237T169 1360T242 1472T335 1564Z" />
<glyph unicode="&#x201d;" glyph-name="quotedblright" horiz-adv-x="860" d="M163 1001Q149 1001 136 1009T105 1049Q127 1078 144 1109T174 1178T194 1260T206 1357Q189 1357 174 1363T148 1379T131 1402T124 1429Q124 1469 136 1495T166 1537T206 1558T250
1564Q292 1564 319 1556T363 1533T386 1497T393 1451Q393 1391 376 1328T329 1205T256 1093T163 1001ZM561 1001Q547 1001 534 1009T503 1049Q525 1078 542 1109T572 1178T592 1260T604 1357Q587 1357 572 1363T546 1379T529 1402T522 1429Q522 1469 534 1495T564
1537T604 1558T648 1564Q690 1564 717 1556T761 1533T784 1497T791 1451Q791 1391 774 1328T727 1205T654 1093T561 1001Z" />
<glyph unicode="&#x201e;" glyph-name="quotedblbase" horiz-adv-x="861" d="M118 -322Q103 -322 91 -314T61 -273Q103 -218 130 -144T160 35Q143 35 128 41T102 58T84 81T77 107Q77 149 89 175T120 217T161 237T205 243Q286 243 316 214T347 131Q347 63 329 -1T279
-123T206 -231T118 -322ZM515 -322Q501 -322 489 -314T459 -273Q480 -243 496 -211T525 -142T545 -62T558 35Q524 35 500 56T475 116Q477 149 488 173T516 212T556 235T602 243Q644 243 671 235T715 211T739 175T746 127Q746 59 728 -4T677 -124T603 -231T515 -322Z"
/>
<glyph unicode="&#x2022;" glyph-name="bullet" horiz-adv-x="750" d="M100 638Q100 695 121 745T180 832T267 891T374 913Q431 913 481 892T568 833T628 745T650 638Q650 581 628 531T569 445T481 387T374 365Q317 365 267 386T180 445T122 531T100 638Z" />
<glyph unicode="&#x2039;" glyph-name="guilsinglleft" horiz-adv-x="679" d="M472 1015Q519 998 546 980Q544 974 542 967T532 944T510 901T473 827T415 711T331 544Q376 450 408 383T462 271T497 197T517 153T527 128T533 114Q510 94 464 77L133 481V579L472 1015Z" />
<glyph unicode="&#x203a;" glyph-name="guilsinglright" horiz-adv-x="680" d="M210 77Q187 84 168 93T135 114Q136 119 138 125T147 147T167 189T204 264T263 380T349 550Q302 648 269 716T214 831T180 904T161 947T152 968T148 979Q174 1002 216 1015L549 609V514L210
77Z" />
</font>
</defs>
</svg>
