<?xml version="1.0" standalone="no"?>
<!DOCTYPE svg PUBLIC "-//W3C//DTD SVG 1.1//EN" "http://www.w3.org/Graphics/SVG/1.1/DTD/svg11.dtd">
<svg xmlns="http://www.w3.org/2000/svg">
<defs >
<font id="Scada" horiz-adv-x="514" ><font-face
    font-family="Scada"
    units-per-em="1000"
    panose-1="0 0 5 0 0 0 0 0 0 0"
    ascent="955"
    descent="-289"
    alphabetic="0" />
<glyph unicode=" " glyph-name="space" horiz-adv-x="290" />
<glyph unicode="!" glyph-name="exclam" horiz-adv-x="290" d="M183 700H303L191 180H111L183 700ZM67 68T88 89T139 110Q161 110 175 97T189 63Q189 32 169 11T118 -10Q95 -10 81 3T67 37Q67 68 88 89Z" />
<glyph unicode="&quot;" glyph-name="quotedbl" horiz-adv-x="340" d="M138 700H243L181 460H116L138 700ZM293 700H398L336 460H271L293 700Z" />
<glyph unicode="#" glyph-name="numbersign" horiz-adv-x="660" d="M365 520H505L578 700H678L605 520H706L694 450H577L496 250H599L586 180H467L395 0H295L367 180H227L155 0H55L127 180H26L39 250H156L237 450H134L146 520H265L338 700H438L365 520ZM256 250H396L477
450H337L256 250Z" />
<glyph unicode="$" glyph-name="dollar" horiz-adv-x="495" d="M163 -7Q100 -1 50 23Q37 29 12 45L58 105H68Q82 93 105 82Q153 60 210 60Q277 60 319 93T371 180Q373 192 373 198Q373 227 357 248T317 284T252 319Q204 342 174 361T124 411T103 485Q103 502 106
520Q118 589 166 637T288 703L300 770H405L394 708Q457 702 505 678Q526 668 540 655L494 595H484Q470 607 452 617Q404 640 352 640Q312 640 279 622T226 575T206 512Q206 483 222 462T262 426T327 391Q375 368 405 349T455 299T476 225Q476 208 473 190Q459 111
407 60T269 -5L257 -70H152L163 -7Z" />
<glyph unicode="%" glyph-name="percent" horiz-adv-x="800" d="M164 350T129 384T94 484Q94 507 98 530Q113 615 165 662T290 710Q352 710 387 676T422 576Q422 553 418 530Q403 445 351 398T226 350Q164 350 129 384ZM85 0L678 700H788L195 0H85ZM307 410T328
530Q333 562 333 578Q333 650 279 650Q209 650 188 530Q183 498 183 481Q183 410 237 410Q307 410 328 530ZM521 -10T486 25T450 124Q450 149 454 170Q470 256 521 303T646 350Q707 350 743 315T779 217Q779 198 774 170Q759 84 708 37T583 -10Q521 -10 486 25ZM663
50T684 170Q689 202 689 219Q689 290 636 290Q565 290 544 170Q539 138 539 122Q539 50 593 50Q663 50 684 170Z" />
<glyph unicode="&amp;" glyph-name="ampersand" horiz-adv-x="615" d="M128 -10T81 32T33 143Q33 161 36 180Q47 241 94 288T217 380Q195 407 183 431Q159 477 159 523Q159 541 161 550Q174 623 228 666T365 710Q433 710 472 676T511 588Q511 541 485 502T417
424Q383 395 340 370L458 190Q486 237 501 320H591Q573 216 502 125L585 0H465L425 60Q325 -10 213 -10Q128 -10 81 32ZM326 450T350 471Q399 516 408 560Q411 574 411 584Q411 613 395 629T353 645Q318 645 294 621T261 550Q260 545 260 536Q260 510 278 472Q290
450 301 435Q326 450 350 471ZM330 60T389 110L255 315Q195 277 165 241T134 156Q134 112 163 86T245 60Q330 60 389 110Z" />
<glyph unicode="&apos;" glyph-name="quotesingle" horiz-adv-x="185" d="M138 700H243L181 460H116L138 700Z" />
<glyph unicode="(" glyph-name="parenleft" horiz-adv-x="285" d="M101 410T171 530T349 735L382 695Q303 603 252 503T179 280Q167 208 167 146Q167 -6 236 -135L189 -175Q129 -109 99 -22T69 165Q69 224 79 280Q101 410 171 530Z" />
<glyph unicode=")" glyph-name="parenright" horiz-adv-x="285" d="M232 150T162 30T-16 -175L-48 -135Q31 -43 81 57T154 280Q166 351 166 413Q166 562 97 695L144 735Q204 669 234 582T264 395Q264 336 254 280Q232 150 162 30Z" />
<glyph unicode="*" glyph-name="asterisk" horiz-adv-x="410" d="M152 640L247 580L268 700H338L317 580L432 640L457 580L341 520L436 460L390 400L296 460L274 340H204L226 460L110 400L86 460L201 520L107 580L152 640Z" />
<glyph unicode="+" glyph-name="plus" horiz-adv-x="470" d="M192 125L221 290H56L70 370H235L264 535H344L315 370H480L466 290H301L272 125H192Z" />
<glyph unicode="," glyph-name="comma" horiz-adv-x="200" d="M22 67T42 88T89 110Q115 110 129 97T143 57Q143 46 142 40Q129 -31 74 -88Q49 -114 22 -130L-2 -95Q14 -83 30 -69Q64 -35 68 -10Q48 -10 35 3T22 37Q22 67 42 88Z" />
<glyph unicode="-" glyph-name="hyphen" horiz-adv-x="440" d="M56 290L70 370H450L436 290H56Z" />
<glyph unicode="." glyph-name="period" horiz-adv-x="200" d="M22 68T43 89T94 110Q116 110 130 97T144 63Q144 32 124 11T73 -10Q50 -10 36 3T22 37Q22 68 43 89Z" />
<glyph unicode="/" glyph-name="slash" horiz-adv-x="410" d="M408 700H508L75 0H-25L408 700Z" />
<glyph unicode="0" glyph-name="zero" horiz-adv-x="580" d="M176 -10T128 46T79 220Q79 277 91 350Q123 535 202 622T390 710Q477 710 525 655T574 481Q574 421 561 350Q529 165 450 78T263 -10Q176 -10 128 46ZM338 60T385 125T461 350Q475 430 475 491Q475
572 450 606T377 640Q314 640 267 575T191 350Q177 270 177 209Q177 128 202 94T275 60Q338 60 385 125Z" />
<glyph unicode="1" glyph-name="one" horiz-adv-x="390" d="M25 0L37 70H147L239 590L127 525L97 580L268 700H358L247 70H357L345 0H25Z" />
<glyph unicode="2" glyph-name="two" horiz-adv-x="500" d="M17 70Q26 118 57 161T129 238T233 320Q293 364 328 393T389 457T423 530Q425 542 425 548Q425 588 394 614T307 640Q255 640 199 617Q172 604 159 595H149L125 655Q148 670 179 682Q244 710 330 710Q424
710 474 668T524 556Q524 538 521 520Q512 469 478 424T401 342T290 254Q208 193 166 153T117 70H442L430 0H5L17 70Z" />
<glyph unicode="3" glyph-name="three" horiz-adv-x="500" d="M97 -10T41 17Q13 30 -3 45L43 105H53Q65 93 85 82Q131 60 185 60Q345 60 370 200Q373 220 373 235Q373 287 339 313T234 340H129L142 410L406 630H116L128 700H538L526 630L262 410Q368 410 421 368T474
247Q474 223 470 200Q452 99 381 45T183 -10Q97 -10 41 17Z" />
<glyph unicode="4" glyph-name="four" horiz-adv-x="540" d="M315 0L344 170H14L27 240L438 700H538L457 240H537L524 170H444L415 0H315ZM357 240L403 500Q404 506 407 520T414 544L423 570H419L401 544Q396 537 386 523T368 500L137 240H357Z" />
<glyph unicode="5" glyph-name="five" horiz-adv-x="505" d="M107 -10T51 17Q23 30 7 45L53 105H63Q75 93 95 82Q141 60 195 60Q350 60 377 210Q381 240 381 250Q381 360 248 360H128L103 390L158 700H537L525 630H246L210 430H275Q378 430 430 388T482 263Q482
242 477 210Q458 103 387 47T193 -10Q107 -10 51 17Z" />
<glyph unicode="6" glyph-name="six" horiz-adv-x="535" d="M64 -10T64 162Q64 194 70 230L102 410Q129 562 203 636T390 710Q466 710 518 682Q543 670 560 655L514 595H504Q493 606 474 617Q432 640 387 640Q319 640 271 586T202 410Q220 421 240 430Q284 450
339 450Q423 450 469 408T515 286Q515 255 510 230Q489 111 423 51T254 -10Q64 -10 64 162ZM317 60T356 102T410 230Q415 257 415 274Q415 326 387 353T307 380Q260 380 222 360Q206 352 189 340L170 230Q165 204 165 173Q165 60 265 60Q317 60 356 102Z" />
<glyph unicode="7" glyph-name="seven" horiz-adv-x="440" d="M130 90Q158 250 236 394T406 630H86L98 700H528L516 630Q422 536 340 392T230 90L215 0H115L130 90Z" />
<glyph unicode="8" glyph-name="eight" horiz-adv-x="560" d="M187 -10T140 11T68 70T44 153Q44 162 46 180Q56 233 84 271T151 333Q189 358 235 370Q201 382 178 404Q136 442 136 502Q136 517 139 535Q147 583 180 623T265 686T380 710Q466 710 513 669T561 564Q561
545 559 535Q544 453 473 404Q443 383 405 370Q447 358 476 333Q500 314 514 285T529 216Q529 200 526 180Q518 130 481 86T385 16T253 -10Q187 -10 140 11ZM378 425T414 456T459 535Q461 547 461 552Q461 589 434 614T367 640Q322 640 285 609T239 535Q237 527
237 512Q237 441 327 410Q378 425 414 456ZM332 60T374 93T426 180Q428 196 428 202Q428 248 398 277T313 330Q235 301 190 262T144 156Q144 111 175 86T265 60Q332 60 374 93Z" />
<glyph unicode="9" glyph-name="nine" horiz-adv-x="535" d="M139 -10T89 17Q63 29 47 45L93 105H103Q113 94 133 82Q173 60 220 60Q367 60 406 290Q385 278 367 270Q323 250 269 250Q184 250 138 293T92 415Q92 438 97 470Q118 589 184 649T354 710Q448 710 496
668T544 539Q544 505 537 470L506 290Q479 137 405 64T218 -10Q139 -10 89 17ZM348 320T386 340Q404 349 418 360L437 470Q443 502 443 528Q443 585 417 612T342 640Q290 640 251 598T197 470Q193 450 193 428Q193 375 221 348T301 320Q348 320 386 340Z" />
<glyph unicode=":" glyph-name="colon" horiz-adv-x="200" d="M93 468T113 489T164 510Q187 510 201 497T215 463Q215 432 194 411T143 390Q121 390 107 403T93 437Q93 468 113 489ZM22 68T43 89T94 110Q116 110 130 97T144 63Q144 32 124 11T73 -10Q50 -10 36
3T22 37Q22 68 43 89Z" />
<glyph unicode=";" glyph-name="semicolon" horiz-adv-x="200" d="M93 468T113 489T164 510Q187 510 201 497T215 463Q215 432 194 411T143 390Q121 390 107 403T93 437Q93 468 113 489ZM22 67T42 88T89 110Q115 110 129 97T143 57Q143 46 142 40Q129 -31 74 -88Q49
-114 22 -130L-2 -95Q14 -83 30 -69Q64 -35 68 -10Q48 -10 35 3T22 37Q22 67 42 88Z" />
<glyph unicode="&lt;" glyph-name="less" horiz-adv-x="470" d="M405 0L52 215L65 285L493 500L476 405L169 250L421 95L405 0Z" />
<glyph unicode="=" glyph-name="equal" horiz-adv-x="470" d="M77 380L91 460H491L477 380H77ZM45 200L59 280H459L445 200H45Z" />
<glyph unicode="&gt;" glyph-name="greater" horiz-adv-x="445" d="M10 0L26 95L334 250L81 405L98 500L450 285L437 215L10 0Z" />
<glyph unicode="?" glyph-name="question" horiz-adv-x="460" d="M142 180L149 220Q157 261 176 292T219 343T279 391Q329 428 355 456T388 530Q390 542 390 548Q390 588 359 614T272 640Q220 640 164 617Q137 604 124 595H114L90 655Q112 670 144 682Q209 710
295 710Q389 710 439 668T489 556Q489 538 486 520Q479 477 459 446T414 394T349 347Q298 312 272 286T239 220L232 180H142ZM103 68T124 89T175 110Q197 110 211 97T225 63Q225 32 205 11T154 -10Q131 -10 117 3T103 37Q103 68 124 89Z" />
<glyph unicode="@" glyph-name="at" horiz-adv-x="930" d="M308 -120T230 -77T109 44T65 219Q65 261 72 300Q93 418 165 514T342 665T566 720Q671 720 751 677T875 557T919 381Q919 339 912 300Q891 181 830 118T689 55Q623 55 589 82Q571 95 564 110H559Q542
94 519 82Q474 55 419 55Q354 55 317 96T280 219Q280 256 287 295Q308 414 366 474T504 535Q556 535 595 502Q611 489 622 470H627L647 525H717L649 140Q653 136 661 130Q675 120 691 120Q731 120 768 163T822 300Q829 336 829 376Q829 459 795 521T699 616T554
650Q459 650 377 607T237 484T162 300Q155 264 155 224Q155 141 189 79T286 -16T431 -50Q490 -50 552 -28Q583 -15 599 -5H609L633 -65Q609 -80 573 -93Q503 -120 408 -120Q308 -120 230 -77ZM487 130T525 152Q544 164 555 175L596 405Q587 420 575 432Q547 460
516 460Q471 460 437 420T387 295Q381 259 381 232Q381 179 401 155T457 130Q487 130 525 152Z" />
<glyph unicode="A" glyph-name="A" horiz-adv-x="570" d="M-10 0L318 700H448L530 0H430L406 180H176L90 0H-10ZM399 250L367 525Q365 537 365 552T365 572Q365 588 366 595H362Q358 579 355 571Q346 545 337 525L209 250H399Z" />
<glyph unicode="B" glyph-name="B" horiz-adv-x="575" d="M188 700H378Q471 700 520 661T570 558Q570 542 567 525Q552 444 487 399Q458 379 425 370Q463 361 489 338Q536 295 536 227Q536 210 533 190Q517 101 448 51T255 0H65L188 700ZM325 400Q382 400 419
430T465 515Q468 530 468 542Q468 584 442 607T366 630H276L235 400H325ZM267 70Q412 70 435 200Q438 218 438 234Q438 330 313 330H223L177 70H267Z" />
<glyph unicode="C" glyph-name="C" horiz-adv-x="515" d="M186 -10T133 45T79 222Q79 278 91 350Q123 536 204 623T405 710Q477 710 529 682Q554 669 570 655L524 595H514Q502 605 484 617Q444 640 402 640Q244 640 191 350Q178 282 178 228Q178 60 310 60Q354
60 400 82Q426 96 438 105H448L472 45Q451 30 421 17Q363 -10 288 -10Q186 -10 133 45Z" />
<glyph unicode="D" glyph-name="D" horiz-adv-x="585" d="M188 700H338Q458 700 517 645T577 469Q577 411 566 350Q533 166 447 83T215 0H65L188 700ZM227 70Q322 70 380 134T466 350Q477 418 477 461Q477 551 439 590T326 630H276L177 70H227Z" />
<glyph unicode="E" glyph-name="E" horiz-adv-x="510" d="M65 0L188 700H578L566 630H276L235 400H465L453 330H223L177 70H467L455 0H65Z" />
<glyph unicode="F" glyph-name="F" horiz-adv-x="500" d="M65 0L188 700H578L566 630H276L233 390H463L451 320H221L165 0H65Z" />
<glyph unicode="G" glyph-name="G" horiz-adv-x="565" d="M192 -10T136 51T80 234Q80 291 91 350Q112 471 159 552T269 671T405 710Q477 710 529 682Q554 669 570 655L524 595H514Q502 605 484 617Q444 640 402 640Q244 640 191 350Q178 282 178 228Q178 60 310
60Q327 60 345 64T374 73T389 80L429 310H314L327 380H512L536 350L482 45Q460 30 428 17Q365 -10 288 -10Q192 -10 136 51Z" />
<glyph unicode="H" glyph-name="H" horiz-adv-x="630" d="M65 0L188 700H288L233 390H483L538 700H638L515 0H415L471 320H221L165 0H65Z" />
<glyph unicode="I" glyph-name="I" horiz-adv-x="280" d="M65 0L188 700H288L165 0H65Z" />
<glyph unicode="J" glyph-name="J" horiz-adv-x="425" d="M60 -10T14 12Q-8 24 -19 35L22 100H32Q46 86 54 80Q81 60 110 60Q168 60 202 91T248 190L338 700H438L348 190Q331 91 271 41T108 -10Q60 -10 14 12Z" />
<glyph unicode="K" glyph-name="K" horiz-adv-x="555" d="M65 0L188 700H288L230 370L513 700H628L338 360L515 0H400L226 350L165 0H65Z" />
<glyph unicode="L" glyph-name="L" horiz-adv-x="490" d="M65 0L188 700H288L177 70H467L455 0H65Z" />
<glyph unicode="M" glyph-name="M" horiz-adv-x="840" d="M188 700H288L423 275Q429 258 430 244L432 225H436L445 244Q455 266 463 275L748 700H848L725 0H625L699 420L710 474L718 505H714L699 474Q681 437 669 420L467 125H367L269 420Q264 434 258 474Q256
485 254 505H250L246 474L243 448Q241 428 239 420L165 0H65L188 700Z" />
<glyph unicode="N" glyph-name="N" horiz-adv-x="630" d="M188 700H298L429 255Q433 239 440 201Q442 190 444 170H448L452 201L455 228Q457 246 459 255L538 700H638L515 0H405L273 445Q268 459 262 499Q260 510 258 530H254L250 499L247 473Q245 453 243 445L165
0H65L188 700Z" />
<glyph unicode="O" glyph-name="O" horiz-adv-x="600" d="M181 -10T130 46T79 221Q79 278 91 350Q123 536 204 623T400 710Q492 710 542 655T593 480Q593 424 581 350Q549 164 469 77T273 -10Q181 -10 130 46ZM348 60T400 128T481 350Q494 419 494 474Q494 560
464 600T387 640Q323 640 271 572T191 350Q178 279 178 224Q178 138 207 99T285 60Q348 60 400 128Z" />
<glyph unicode="P" glyph-name="P" horiz-adv-x="565" d="M188 700H368Q583 700 583 531Q583 503 577 470Q557 355 486 298T287 240H207L165 0H65L188 700ZM299 310Q375 310 419 349T477 470Q482 500 482 520Q482 577 451 603T356 630H276L219 310H299Z" />
<glyph unicode="Q" glyph-name="Q" horiz-adv-x="600" d="M290 -155T256 -124T221 -38Q221 -23 224 -5Q155 7 117 63T79 222Q79 278 91 350Q123 536 204 623T400 710Q492 710 542 655T593 480Q593 424 581 350Q552 186 485 98T324 -5Q321 -20 321 -31Q321 -85
375 -85Q387 -85 400 -80L411 -75H421L430 -140L406 -148Q380 -155 352 -155Q290 -155 256 -124ZM348 60T400 128T481 350Q494 419 494 474Q494 560 464 600T387 640Q323 640 271 572T191 350Q178 279 178 224Q178 138 207 99T285 60Q348 60 400 128Z" />
<glyph unicode="R" glyph-name="R" horiz-adv-x="575" d="M188 700H358Q574 700 574 534Q574 512 569 480Q542 320 396 275L515 0H400L290 260H210L165 0H65L188 700ZM293 330Q444 330 469 480Q473 500 473 522Q473 630 346 630H276L223 330H293Z" />
<glyph unicode="S" glyph-name="S" horiz-adv-x="505" d="M125 -10T66 17Q34 30 17 45L63 105H73Q87 93 110 82Q158 60 215 60Q282 60 324 93T376 180Q378 192 378 198Q378 227 362 248T322 284T257 319Q209 342 179 361T129 411T108 485Q108 502 111 520Q120
575 153 618T239 685T355 710Q438 710 496 682Q523 669 540 655L494 595H484Q470 607 452 617Q404 640 352 640Q315 640 283 622T231 575T211 512Q211 483 227 462T267 426T332 391Q380 368 410 349T460 299T481 225Q481 208 478 190Q462 98 393 44T213 -10Q125
-10 66 17Z" />
<glyph unicode="T" glyph-name="T" horiz-adv-x="480" d="M165 0L276 630H96L108 700H568L556 630H376L265 0H165Z" />
<glyph unicode="U" glyph-name="U" horiz-adv-x="620" d="M190 -10T141 33T92 159Q92 187 98 220L183 700H283L198 220Q193 190 193 170Q193 114 219 87T295 60Q354 60 394 99T448 220L533 700H633L548 220Q528 107 460 49T283 -10Q190 -10 141 33Z" />
<glyph unicode="V" glyph-name="V" horiz-adv-x="550" d="M113 700H213L265 175Q267 145 267 129Q267 113 266 105H270L278 129Q289 163 295 175L533 700H633L315 0H185L113 700Z" />
<glyph unicode="W" glyph-name="W" horiz-adv-x="860" d="M113 700H213L242 210Q242 191 240 159L237 130H241L249 159Q261 197 267 210L468 700H588L617 210Q617 191 615 159L613 130H617L625 159Q627 165 632 182T642 210L843 700H943L655 0H535L506 490L505
516L506 541Q506 560 507 570H503L494 541Q482 503 476 490L275 0H155L113 700Z" />
<glyph unicode="X" glyph-name="X" horiz-adv-x="530" d="M237 355L118 700H228L303 475Q305 468 306 461T310 446L313 430H317L325 446Q336 466 343 475L498 700H608L367 355L490 0H380L301 235Q299 242 298 249T294 264L291 280H287L278 264Q276 260 271 251T261
235L100 0H-10L237 355Z" />
<glyph unicode="Y" glyph-name="Y" horiz-adv-x="530" d="M230 230L98 700H203L289 395Q295 370 296 356Q297 349 297 335H301L309 356Q316 373 329 395L523 700H628L330 230L290 0H190L230 230Z" />
<glyph unicode="Z" glyph-name="Z" horiz-adv-x="485" d="M0 0L13 75L421 630H111L123 700H553L540 625L132 70H447L435 0H0Z" />
<glyph unicode="[" glyph-name="bracketleft" horiz-adv-x="310" d="M235 -170H35L193 730H393L381 660H281L147 -100H247L235 -170Z" />
<glyph unicode="\" glyph-name="backslash" horiz-adv-x="410" d="M385 0H285L98 700H198L385 0Z" />
<glyph unicode="]" glyph-name="bracketright" horiz-adv-x="310" d="M-23 -100H77L211 660H111L123 730H323L165 -170H-34L-23 -100Z" />
<glyph unicode="^" glyph-name="asciicircum" horiz-adv-x="430" d="M52 440L281 720H351L482 440H382L299 620L152 440H52Z" />
<glyph unicode="_" glyph-name="underscore" horiz-adv-x="380" d="M-47 -130L-33 -50H346L332 -130H-47Z" />
<glyph unicode="`" glyph-name="grave" horiz-adv-x="175" d="M171 550L108 700H218L236 550H171Z" />
<glyph unicode="a" glyph-name="a" horiz-adv-x="510" d="M115 -10T79 21T42 110Q42 127 45 145Q58 216 116 255T287 295H367L371 320Q375 346 375 355Q375 397 352 418T287 440Q253 440 205 417Q183 405 169 395H159L135 455Q159 471 184 482Q242 510 309 510Q385
510 429 468T474 357Q474 340 471 320L415 0H345V60H340Q323 40 299 25Q249 -10 183 -10Q115 -10 79 21ZM242 65T260 73T301 95Q319 108 337 125L354 225H274Q209 225 176 197T143 126Q143 96 162 81T221 65Q242 65 260 73Z" />
<glyph unicode="b" glyph-name="b" horiz-adv-x="535" d="M213 -10T174 25Q156 40 145 60H140L120 0H50L168 670L203 700H273L234 480L269 495Q314 510 349 510Q424 510 467 463T511 325Q511 288 504 250Q489 166 454 107T373 19T278 -10Q213 -10 174 25ZM312
65T349 110T404 250Q411 289 411 323Q411 384 387 412T322 440Q290 440 252 430Q234 425 224 420L172 125Q183 109 196 95Q228 65 266 65Q312 65 349 110Z" />
<glyph unicode="c" glyph-name="c" horiz-adv-x="455" d="M156 -10T109 36T62 173Q62 211 69 250Q92 378 159 444T324 510Q389 510 439 482Q463 469 480 455L434 395H424Q410 407 395 417Q377 428 360 434T322 440Q266 440 226 395T169 250Q162 211 162 177Q162
115 188 88T265 60Q300 60 346 82Q368 94 383 105H393L417 45Q397 30 367 17Q311 -10 243 -10Q156 -10 109 36Z" />
<glyph unicode="d" glyph-name="d" horiz-adv-x="535" d="M141 -10T101 36T61 171Q61 204 69 250Q90 377 157 443T314 510Q348 510 389 495L419 480L453 670L488 700H558L435 0H365V60H360Q343 40 319 25Q269 -10 203 -10Q141 -10 101 36ZM262 65T280 73T321 95Q339
109 357 125L409 420Q402 424 384 430Q352 440 317 440Q264 440 225 395T169 250Q162 212 162 179Q162 121 183 93T241 65Q262 65 280 73Z" />
<glyph unicode="e" glyph-name="e" horiz-adv-x="505" d="M156 -10T109 36T62 173Q62 211 69 250Q90 377 157 443T319 510Q397 510 441 463T486 325Q486 297 479 250L476 235L452 215H162Q157 187 157 169Q157 115 185 88T265 60Q300 60 346 82Q368 94 383 105H393L417
45Q397 30 367 17Q311 -10 243 -10Q156 -10 109 36ZM385 285Q390 318 390 338Q390 390 368 415T307 440Q259 440 224 402T175 285H385Z" />
<glyph unicode="f" glyph-name="f" horiz-adv-x="340" d="M135 430H70L83 500H148L156 550Q168 622 221 666T350 710Q406 710 449 682Q469 670 485 655L439 595H429Q420 605 405 617Q374 640 347 640Q312 640 288 617T256 550L248 500H383L370 430H235L160 0H60L135 430Z" />
<glyph unicode="g" glyph-name="g" horiz-adv-x="535" d="M116 -210T67 -183Q41 -169 27 -155L73 -95H83Q94 -107 111 -118Q149 -140 185 -140Q249 -140 285 -109T333 -10L338 20Q322 11 303 5Q264 -10 223 -10Q149 -10 105 36T61 172Q61 204 69 250Q83 334 118
392T199 480T294 510Q355 510 398 475Q418 457 427 440H432L453 500H523L433 -10Q417 -101 350 -155T182 -210Q116 -210 67 -183ZM282 60T320 70Q337 75 349 80L401 375Q392 389 376 405Q344 435 306 435Q260 435 223 390T169 250Q162 211 162 176Q162 60 250 60Q282
60 320 70Z" />
<glyph unicode="h" glyph-name="h" horiz-adv-x="545" d="M168 670L203 700H273L231 460Q251 477 268 485Q318 510 369 510Q434 510 473 473T513 376Q513 366 509 340L450 0H350L409 340Q411 354 411 361Q411 394 389 414T331 435Q293 435 251 405Q231 390 216
375L150 0H50L168 670Z" />
<glyph unicode="i" glyph-name="i" horiz-adv-x="250" d="M179 580T165 593T151 627Q151 658 172 679T223 700Q245 700 259 687T273 653Q273 622 253 601T202 580Q179 580 165 593ZM50 0L138 500H238L150 0H50Z" />
<glyph unicode="j" glyph-name="j" horiz-adv-x="250" d="M179 580T165 593T151 627Q151 658 172 679T223 700Q245 700 259 687T273 653Q273 622 253 601T202 580Q179 580 165 593ZM-90 -200T-120 -185Q-134 -179 -144 -170L-108 -105H-98Q-91 -114 -84 -118Q-69
-130 -47 -130Q-13 -130 10 -107T42 -40L138 500H238L142 -40Q130 -112 77 -156T-50 -200Q-90 -200 -120 -185Z" />
<glyph unicode="k" glyph-name="k" horiz-adv-x="480" d="M50 0L168 670L203 700H273L197 270L408 500H523L300 260L445 0H330L194 250L150 0H50Z" />
<glyph unicode="l" glyph-name="l" horiz-adv-x="250" d="M50 0L168 670L203 700H273L150 0H50Z" />
<glyph unicode="m" glyph-name="m" horiz-adv-x="805" d="M138 500H208L207 440H212Q228 456 254 475Q310 510 359 510Q415 510 454 475Q470 460 477 440Q493 455 524 475Q584 510 639 510Q699 510 736 473T773 376Q773 366 769 340L710 0H610L669 340Q671 352
671 358Q671 392 651 413T601 435Q572 435 530 410Q515 401 497 385L430 0H330L389 340Q391 352 391 358Q391 392 371 413T321 435Q290 435 250 405Q234 393 216 375L150 0H50L138 500Z" />
<glyph unicode="n" glyph-name="n" horiz-adv-x="545" d="M138 500H208L207 440H212Q226 456 253 475Q309 510 369 510Q434 510 473 473T513 376Q513 366 509 340L450 0H350L409 340Q411 354 411 361Q411 394 389 414T331 435Q293 435 251 405Q231 390 216 375L150
0H50L138 500Z" />
<glyph unicode="o" glyph-name="o" horiz-adv-x="530" d="M154 -10T108 36T62 173Q62 211 69 250Q92 379 160 444T329 510Q413 510 459 463T506 324Q506 297 499 250Q476 122 408 56T238 -10Q154 -10 108 36ZM302 60T342 105T399 250Q406 289 406 323Q406 384
382 412T317 440Q264 440 225 395T169 250Q162 211 162 176Q162 60 250 60Q302 60 342 105Z" />
<glyph unicode="p" glyph-name="p" horiz-adv-x="535" d="M138 500H208L207 440H212Q226 456 253 475Q309 510 369 510Q433 510 472 463T511 326Q511 289 504 250Q481 123 415 57T258 -10Q219 -10 183 5Q167 11 153 20L120 -170L84 -200H14L138 500ZM307 60T347
105T404 250Q411 286 411 320Q411 379 389 407T331 435Q293 435 251 405Q231 390 216 375L164 80Q171 76 189 70Q221 60 255 60Q307 60 347 105Z" />
<glyph unicode="q" glyph-name="q" horiz-adv-x="535" d="M305 -170L338 20Q322 11 303 5Q264 -10 223 -10Q149 -10 105 36T61 172Q61 204 69 250Q83 334 118 392T199 480T294 510Q355 510 398 475Q418 457 427 440H432L453 500H523L399 -200H329L305 -170ZM282
60T320 70Q337 75 349 80L401 375Q392 389 376 405Q344 435 306 435Q260 435 223 390T169 250Q162 211 162 176Q162 60 250 60Q282 60 320 70Z" />
<glyph unicode="r" glyph-name="r" horiz-adv-x="365" d="M138 500H208L207 440H212Q225 455 252 475Q308 510 364 510Q389 510 409 505L428 500L399 420H389Q382 421 368 425Q348 430 325 430Q291 430 249 400Q233 388 215 370L150 0H50L138 500Z" />
<glyph unicode="s" glyph-name="s" horiz-adv-x="460" d="M112 -10T60 17Q32 30 17 45L63 105H73Q85 93 104 82Q144 60 195 60Q310 60 322 130Q323 134 323 141Q323 168 298 183T221 217Q177 232 149 246T102 283T82 341Q82 349 84 365Q96 432 150 471T299 510Q371
510 423 482Q449 470 465 455L419 395H409Q397 405 379 417Q339 440 297 440Q247 440 220 422T186 375Q185 371 185 364Q185 337 209 322T286 288Q332 271 359 258T406 221T426 162Q426 156 424 140Q411 69 355 30T193 -10Q112 -10 60 17Z" />
<glyph unicode="t" glyph-name="t" horiz-adv-x="400" d="M168 -10T131 24T93 117Q93 134 96 150L145 430H70L81 490L234 620H279L258 500H383L370 430H245L196 150Q193 135 193 124Q193 92 209 76T255 60Q287 60 318 80Q332 89 347 100H357L382 40Q356 23 337
15Q285 -10 233 -10Q168 -10 131 24Z" />
<glyph unicode="u" glyph-name="u" horiz-adv-x="550" d="M152 -10T114 26T75 124Q75 142 78 160L138 500H238L178 160Q176 146 176 139Q176 106 198 86T256 65Q277 65 295 73T336 95Q354 109 372 125L438 500H538L450 0H380V60H375Q358 40 334 25Q284 -10 218
-10Q152 -10 114 26Z" />
<glyph unicode="v" glyph-name="v" horiz-adv-x="470" d="M78 500H178L224 170Q226 158 226 143T226 124Q226 108 225 100H229Q233 116 236 124Q243 149 254 170L418 500H518L270 0H150L78 500Z" />
<glyph unicode="w" glyph-name="w" horiz-adv-x="710" d="M78 500H173L199 195Q200 187 200 172Q200 158 199 151L197 130H201Q205 144 208 151Q219 185 224 195L358 500H478L504 195Q506 164 505 151L503 130H507Q509 141 513 151Q524 185 529 195L663 500H758L540
0H430L400 315Q398 325 398 339T398 359Q398 376 399 385H395Q393 379 391 373T387 359Q382 343 370 315L230 0H120L78 500Z" />
<glyph unicode="x" glyph-name="x" horiz-adv-x="460" d="M189 255L83 500H193L248 360Q250 353 252 347T256 334L259 320H263L271 334Q273 337 278 345T288 360L393 500H503L309 255L420 0H310L250 145Q248 150 246 158T242 171L239 185H235L227 171Q225 168
220 160T210 145L100 0H-10L189 255Z" />
<glyph unicode="y" glyph-name="y" horiz-adv-x="475" d="M32 -210T2 -195Q-12 -189 -22 -180L14 -115H24Q31 -124 38 -128Q53 -140 75 -140Q101 -140 124 -121T162 -70L195 0H155L78 500H178L229 170Q232 157 234 119L236 90H240L252 119L261 142Q269 162 273
170L423 500H523L262 -70Q234 -133 184 -171T72 -210Q32 -210 2 -195Z" />
<glyph unicode="z" glyph-name="z" horiz-adv-x="440" d="M10 0L23 75L330 430H85L98 500H463L449 425L142 70H392L380 0H10Z" />
<glyph unicode="{" glyph-name="braceleft" horiz-adv-x="325" d="M109 315T130 336T162 410L194 590Q206 652 256 691T383 730H418L406 660H371Q341 660 320 642T294 590L262 410Q248 333 203 300Q185 285 159 280Q179 276 195 260Q220 233 220 188Q220 169 216
150L184 -30Q182 -42 182 -48Q182 -73 196 -86T237 -100H272L260 -170H225Q156 -170 119 -139T82 -55Q82 -46 84 -30L116 150Q119 171 119 186Q119 218 104 231T58 245L70 315Q109 315 130 336Z" />
<glyph unicode="|" glyph-name="bar" horiz-adv-x="280" d="M29 -200L188 700H288L129 -200H29Z" />
<glyph unicode="}" glyph-name="braceright" horiz-adv-x="325" d="M264 245T242 224T211 150L179 -30Q167 -92 117 -131T-10 -170H-44L-32 -100H2Q32 -100 52 -82T79 -30L111 150Q124 222 170 260Q190 276 214 280Q192 285 178 300Q153 325 153 372Q153 391 157
410L189 590Q190 596 190 607Q190 633 176 646T136 660H101L113 730H148Q217 730 254 699T291 615Q291 606 289 590L257 410Q253 391 253 373Q253 342 268 329T315 315L303 245Q264 245 242 224Z" />
<glyph unicode="~" glyph-name="asciitilde" horiz-adv-x="490" d="M320 245T301 254T256 281Q237 295 222 302T189 310Q169 310 151 298T119 270T108 255H99L53 305Q73 343 114 371T205 400Q233 400 252 391T297 364Q317 349 331 342T364 335Q384 335 402 347T430
372T444 390H453L499 340Q482 303 440 274T348 245Q320 245 301 254Z" />
<glyph unicode="&#xa0;" glyph-name="uni00A0" horiz-adv-x="290" />
<glyph unicode="&#xa1;" glyph-name="exclamdown" horiz-adv-x="290" d="M138 468T158 489T209 510Q232 510 246 497T260 463Q260 432 239 411T188 390Q166 390 152 403T138 437Q138 468 158 489ZM136 320H216L144 -200H24L136 320Z" />
<glyph unicode="&#xa2;" glyph-name="cent" horiz-adv-x="455" d="M184 -3Q61 27 61 172Q61 205 69 250Q89 360 142 424T274 505L283 560H383L374 505Q414 497 452 475Q471 463 480 455L434 395H424Q410 407 395 417Q377 428 360 434T322 440Q266 440 226 395T169
250Q162 211 162 177Q162 115 188 88T265 60Q300 60 346 82Q368 94 383 105H393L417 45Q395 31 379 23Q331 -1 283 -7L272 -70H172L184 -3Z" />
<glyph unicode="&#xa3;" glyph-name="sterling" horiz-adv-x="475" d="M12 70Q36 78 55 100Q100 149 119 250L133 330H68L80 400H145L170 540Q178 587 207 626T281 687T375 710Q447 710 494 682Q516 670 530 655L484 595H474Q464 607 449 617Q413 640 372 640Q337
640 308 612T270 540L245 400H380L368 330H233L219 250Q200 153 158 104Q136 79 117 70H452L440 0H0L12 70Z" />
<glyph unicode="&#xa4;" glyph-name="currency" horiz-adv-x="575" d="M104 170H24L35 230H115L122 270H42L53 330H133L198 700H378Q594 700 594 534Q594 512 589 480Q571 379 500 325T302 270H222L215 230H465L454 170H204L175 0H75L104 170ZM313 330Q464 330
489 480Q493 500 493 522Q493 630 366 630H286L233 330H313Z" />
<glyph unicode="&#xa5;" glyph-name="yen" horiz-adv-x="530" d="M221 180H71L84 250H225L209 305H93L106 375H190L98 700H203L289 395Q295 370 296 356Q297 349 297 335H301L309 356Q316 373 329 395L523 700H628L422 375H506L493 305H377L343 250H484L471 180H321L290
0H190L221 180Z" />
<glyph unicode="&#xa6;" glyph-name="brokenbar" horiz-adv-x="280" d="M121 320L188 700H288L221 320H121ZM29 -200L96 180H196L129 -200H29Z" />
<glyph unicode="&#xa7;" glyph-name="section" horiz-adv-x="510" d="M96 -210T44 -183Q18 -171 2 -155L48 -95H58Q70 -107 89 -118Q129 -140 180 -140Q242 -140 277 -114T322 -40Q323 -35 323 -25Q323 10 296 30T211 76Q163 97 134 114T84 161T63 233Q63 249
66 265Q85 365 167 411Q121 448 121 504Q121 519 124 535Q139 616 200 663T365 710Q437 710 489 682Q514 669 530 655L484 595H474Q462 605 444 617Q404 640 362 640Q304 640 269 614T226 545Q225 540 225 530Q225 495 253 474T337 429Q386 407 414 390T464 343T485
272Q485 257 482 240Q464 138 383 92Q427 55 427 1Q427 -14 424 -30Q409 -115 347 -162T177 -210Q96 -210 44 -183ZM341 153T363 182T386 247Q386 290 349 317T249 365Q212 352 190 323T167 258Q167 215 204 188T304 140Q341 153 363 182Z" />
<glyph unicode="&#xa8;" glyph-name="dieresis" horiz-adv-x="305" d="M118 565T106 576T93 608Q93 616 94 620Q98 644 116 659T159 675Q180 675 192 663T205 630Q205 624 204 620Q199 596 181 581T139 565Q118 565 106 576ZM293 565T281 576T268 608Q268 616
269 620Q273 644 291 659T334 675Q355 675 367 663T380 630Q380 624 379 620Q374 596 356 581T314 565Q293 565 281 576Z" />
<glyph unicode="&#xa9;" glyph-name="copyright" horiz-adv-x="860" d="M299 -30T225 8T110 115T69 274Q69 314 76 350Q96 459 160 545T322 681T533 730Q633 730 707 692T822 584T863 425Q863 386 856 350Q836 241 772 155T610 19T399 -30Q299 -30 225 8ZM496
40T571 80T698 191T766 350Q772 382 772 412Q772 485 741 541T652 628T521 660Q436 660 361 620T234 510T166 350Q160 319 160 288Q160 215 191 159T280 72T412 40Q496 40 571 80ZM365 125T323 165T280 286Q280 316 286 350Q306 459 366 517T511 575Q564 575 612
550Q630 540 647 525L608 475H599Q586 485 573 492Q541 510 509 510Q461 510 426 471T376 350Q371 324 371 293Q371 190 463 190Q497 190 533 207Q551 215 565 225H574L595 175Q572 159 551 150Q499 125 442 125Q365 125 323 165Z" />
<glyph unicode="&#xaa;" glyph-name="ordfeminine" horiz-adv-x="360" d="M143 350T116 373T88 435Q88 441 90 455Q99 506 141 535T264 565H309L314 590Q315 594 315 602Q315 624 300 637T259 650Q232 650 200 635Q188 628 179 620H169L151 665Q166 676 188 687Q236
710 285 710Q344 710 375 685T406 614Q406 606 404 590L363 360H294L295 400H290Q276 384 263 375Q230 350 192 350Q143 350 116 373ZM246 410T268 425Q280 432 287 440L299 505H254Q221 505 203 492T180 455Q179 452 179 446Q179 430 190 420T222 410Q246 410
268 425Z" />
<glyph unicode="&#xab;" glyph-name="guillemotleft" horiz-adv-x="475" d="M275 60L200 0L29 250L288 500L342 440L149 250L275 60ZM446 465L501 405L344 250L446 95L371 35L224 250L446 465Z" />
<glyph unicode="&#xac;" glyph-name="logicalnot" horiz-adv-x="460" d="M357 240L373 330H63L77 410H477L447 240H357Z" />
<glyph unicode="&#xad;" glyph-name="uni00AD" horiz-adv-x="440" d="M56 290L70 370H450L436 290H56Z" />
<glyph unicode="&#xae;" glyph-name="registered" horiz-adv-x="860" d="M299 -30T225 8T110 115T69 274Q69 314 76 350Q96 459 160 545T322 681T533 730Q633 730 707 692T822 584T863 425Q863 386 856 350Q836 241 772 155T610 19T399 -30Q299 -30 225 8ZM496
40T571 80T698 191T766 350Q772 382 772 412Q772 485 741 541T652 628T521 660Q436 660 361 620T234 510T166 350Q160 319 160 288Q160 215 191 159T280 72T412 40Q496 40 571 80ZM354 565H500Q580 565 619 537T658 455Q658 397 625 356T543 300L614 135H519L456
285H395L368 135H278L354 565ZM462 350Q510 350 534 368T565 425Q567 441 567 446Q567 474 549 487T489 500H433L406 350H462Z" />
<glyph unicode="&#xaf;" glyph-name="overscore" horiz-adv-x="310" d="M99 590L111 660H381L369 590H99Z" />
<glyph unicode="&#xb0;" glyph-name="degree" horiz-adv-x="380" d="M164 370T126 406T87 504Q87 522 90 540Q102 615 158 662T290 710Q356 710 394 673T433 573Q433 557 430 540Q417 465 361 418T230 370Q164 370 126 406ZM276 435T303 462T340 540Q343 557 343
570Q343 607 326 626T278 645Q243 645 216 618T180 540Q177 522 177 508Q177 472 194 454T241 435Q276 435 303 462Z" />
<glyph unicode="&#xb1;" glyph-name="plusminus" horiz-adv-x="490" d="M31 95L45 175H210L234 310H69L83 390H248L277 555H357L328 390H493L479 310H314L290 175H455L441 95H31Z" />
<glyph unicode="&#xb2;" glyph-name="uni00B2" horiz-adv-x="330" d="M80 400Q86 435 105 459T147 497T207 530Q243 547 262 561T284 595Q286 607 286 611Q286 650 237 650Q208 650 180 635Q168 628 159 620H149L131 665Q146 676 168 687Q216 710 265 710Q317
710 346 685T376 617Q376 579 358 553T314 511T249 478Q212 462 194 450T174 420H344L333 360H73L80 400Z" />
<glyph unicode="&#xb3;" glyph-name="uni00B3" horiz-adv-x="321" d="M131 350T93 372Q73 384 64 395L98 440H108Q114 431 124 425Q145 410 178 410Q241 410 252 460Q253 464 253 470Q253 510 190 510H124L133 560L267 640H123L134 700H368L356 635L235 570Q287
570 315 546T344 481Q344 446 324 416T267 368T182 350Q131 350 93 372Z" />
<glyph unicode="&#xb4;" glyph-name="acute" horiz-adv-x="175" d="M81 550L153 700H263L146 550H81Z" />
<glyph unicode="&#xb5;" glyph-name="uni00B5" horiz-adv-x="550" d="M138 500H238L178 160Q176 146 176 139Q176 106 198 86T256 65Q295 65 335 90Q350 99 370 115L438 500H538L450 0H380L378 50H373Q353 33 331 20Q277 -10 233 -10Q202 -10 174 5Q162 11 153
20L120 -170L84 -200H14L138 500Z" />
<glyph unicode="&#xb6;" glyph-name="paragraph" horiz-adv-x="565" d="M251 290Q204 290 166 311T106 371T84 458Q84 476 87 495Q96 551 131 598T218 672T323 700H653L641 630H561L414 -200H324L471 630H401L254 -200H164L251 290Z" />
<glyph unicode="&#xb7;" glyph-name="middot" horiz-adv-x="290" d="M120 368T141 389T192 410Q214 410 228 397T242 363Q242 332 222 311T171 290Q148 290 134 303T120 337Q120 368 141 389Z" />
<glyph unicode="&#xb8;" glyph-name="cedilla" horiz-adv-x="195" d="M-1 -190T-25 -180Q-39 -174 -44 -170L-22 -130H-13Q-12 -131 -7 -134T8 -141T29 -145Q47 -145 60 -135T75 -110Q78 -94 68 -85T36 -75H-4L13 20H73L64 -30Q100 -30 120 -48T141 -95Q141 -135
111 -162T31 -190Q-1 -190 -25 -180Z" />
<glyph unicode="&#xb9;" glyph-name="uni00B9" horiz-adv-x="325" d="M88 360L99 420H174L207 610L141 575L119 620L228 700H313L264 420H339L328 360H88Z" />
<glyph unicode="&#xba;" glyph-name="ordmasculine" horiz-adv-x="390" d="M169 350T134 384T99 484Q99 507 103 530Q118 615 170 662T295 710Q357 710 392 676T427 576Q427 553 423 530Q408 445 356 398T231 350Q169 350 134 384ZM312 410T333 530Q338 562 338
578Q338 650 284 650Q214 650 193 530Q188 498 188 481Q188 410 242 410Q312 410 333 530Z" />
<glyph unicode="&#xbb;" glyph-name="guillemotright" horiz-adv-x="475" d="M364 250L237 440L313 500L484 250L225 0L170 60L364 250ZM289 250L66 35L11 95L169 250L66 405L141 465L289 250Z" />
<glyph unicode="&#xbc;" glyph-name="onequarter" horiz-adv-x="760" d="M80 0L673 700H783L190 0H80ZM88 360L99 420H174L207 610L141 575L119 620L228 700H313L264 420H339L328 360H88ZM560 0L572 70H402L412 130L619 340H709L672 130H722L712 70H662L650 0H560ZM582
130L598 220Q599 225 606 247L612 263H608L599 246Q589 228 581 220L492 130H582Z" />
<glyph unicode="&#xbd;" glyph-name="onehalf" horiz-adv-x="750" d="M80 0L673 700H783L190 0H80ZM88 360L99 420H174L207 610L141 575L119 620L228 700H313L264 420H339L328 360H88ZM437 40Q446 90 478 117T564 170Q602 188 620 201T641 235Q642 240 642 249Q642
290 594 290Q568 290 536 275Q524 268 515 260H505L487 305Q502 316 524 327Q572 350 621 350Q673 350 703 324T733 255Q733 217 715 191T671 150T605 116Q567 99 550 88T530 60H700L690 0H430L437 40Z" />
<glyph unicode="&#xbe;" glyph-name="threequarters" horiz-adv-x="750" d="M70 0L663 700H773L180 0H70ZM146 350T108 372Q88 384 79 395L113 440H123Q129 431 139 425Q160 410 193 410Q256 410 267 460Q268 464 268 470Q268 510 205 510H139L148 560L282 640H138L149
700H383L371 635L250 570Q302 570 330 546T359 481Q359 446 339 416T282 368T197 350Q146 350 108 372ZM550 0L562 70H392L402 130L609 340H699L662 130H712L702 70H652L640 0H550ZM572 130L588 220Q589 225 596 247L602 263H598L589 246Q579 228 571 220L482 130H572Z"
/>
<glyph unicode="&#xbf;" glyph-name="questiondown" horiz-adv-x="460" d="M394 432T373 411T322 390Q300 390 286 403T272 437Q272 468 292 489T343 510Q366 510 380 497T394 463Q394 432 373 411ZM355 320L348 280Q338 221 307 185T219 108Q184 82 165 66T130
25T109 -30Q107 -42 107 -48Q107 -88 138 -114T225 -140Q279 -140 333 -118Q361 -105 373 -95H383L407 -155Q386 -170 353 -183Q290 -210 202 -210Q108 -210 58 -168T8 -56Q8 -38 11 -20Q18 23 38 54T82 105T148 153Q198 187 224 213T258 280L265 320H355Z" />
<glyph unicode="&#xc0;" glyph-name="Agrave" horiz-adv-x="570" d="M-10 0L318 700H448L530 0H430L406 180H176L90 0H-10ZM399 250L367 525Q365 537 365 552T365 572Q365 588 366 595H362Q358 579 355 571Q346 545 337 525L209 250H399ZM363 750L300 900H410L428
750H363Z" />
<glyph unicode="&#xc1;" glyph-name="Aacute" horiz-adv-x="570" d="M-10 0L318 700H448L530 0H430L406 180H176L90 0H-10ZM399 250L367 525Q365 537 365 552T365 572Q365 588 366 595H362Q358 579 355 571Q346 545 337 525L209 250H399ZM343 750L415 900H525L408
750H343Z" />
<glyph unicode="&#xc2;" glyph-name="Acircumflex" horiz-adv-x="570" d="M-10 0L318 700H448L530 0H430L406 180H176L90 0H-10ZM399 250L367 525Q365 537 365 552T365 572Q365 588 366 595H362Q358 579 355 571Q346 545 337 525L209 250H399ZM251 750L379 880H449L531
750H466L403 815L316 750H251Z" />
<glyph unicode="&#xc3;" glyph-name="Atilde" horiz-adv-x="570" d="M-10 0L318 700H448L530 0H430L406 180H176L90 0H-10ZM399 250L367 525Q365 537 365 552T365 572Q365 588 366 595H362Q358 579 355 571Q346 545 337 525L209 250H399ZM413 750T402 757T380
777Q378 779 373 784T362 792T350 795Q324 794 311 775T297 755H288L252 780Q272 819 297 842T357 865Q376 865 387 858T410 838Q418 829 424 825T440 820Q453 820 465 829T483 847T492 860H501L537 835Q517 796 492 773T432 750Q413 750 402 757Z" />
<glyph unicode="&#xc4;" glyph-name="Adieresis" horiz-adv-x="570" d="M-10 0L318 700H448L530 0H430L406 180H176L90 0H-10ZM399 250L367 525Q365 537 365 552T365 572Q365 588 366 595H362Q358 579 355 571Q346 545 337 525L209 250H399ZM281 755T269 766T256
798Q256 806 257 810Q261 834 279 849T322 865Q343 865 355 853T368 820Q368 814 367 810Q362 786 344 771T302 755Q281 755 269 766ZM456 755T444 766T431 798Q431 806 432 810Q436 834 454 849T497 865Q518 865 530 853T543 820Q543 814 542 810Q537 786 519
771T477 755Q456 755 444 766Z" />
<glyph unicode="&#xc5;" glyph-name="Aring" horiz-adv-x="570" d="M-10 0L318 700H448L530 0H430L406 180H176L90 0H-10ZM399 250L367 525Q365 537 365 552T365 572Q365 588 366 595H362Q358 579 355 571Q346 545 337 525L209 250H399ZM351 740T328 761T305 817Q305
829 306 835Q314 877 346 903T423 930Q462 930 485 910T508 855Q508 806 474 773T390 740Q351 740 328 761ZM415 790T428 801T446 835Q447 839 447 847Q447 863 438 871T414 880Q398 880 385 869T366 835Q365 831 365 825Q365 808 374 799T399 790Q415 790 428
801Z" />
<glyph unicode="&#xc6;" glyph-name="AE" horiz-adv-x="815" d="M-45 0L373 700H883L871 630H581L540 400H770L758 330H528L482 70H772L760 0H370L405 200H175L55 0H-45ZM217 270H417L481 630H431L217 270Z" />
<glyph unicode="&#xc7;" glyph-name="Ccedilla" horiz-adv-x="515" d="M554 669T570 655L524 595H514Q502 605 484 617Q444 640 402 640Q244 640 191 350Q178 282 178 228Q178 60 310 60Q354 60 400 82Q426 96 438 105H448L472 45Q451 30 421 17Q363 -10 288 -10L284
-30Q320 -30 340 -48T361 -95Q361 -135 331 -162T251 -190Q219 -190 195 -180Q181 -174 176 -170L198 -130H207Q208 -131 213 -134T228 -141T249 -145Q267 -145 280 -135T295 -110Q298 -94 288 -85T256 -75H216L229 -5Q79 25 79 222Q79 278 91 350Q123 536 204
623T405 710Q477 710 529 682Q554 669 570 655Z" />
<glyph unicode="&#xc8;" glyph-name="Egrave" horiz-adv-x="510" d="M65 0L188 700H578L566 630H276L235 400H465L453 330H223L177 70H467L455 0H65ZM376 750L313 900H423L441 750H376Z" />
<glyph unicode="&#xc9;" glyph-name="Eacute" horiz-adv-x="510" d="M65 0L188 700H578L566 630H276L235 400H465L453 330H223L177 70H467L455 0H65ZM336 750L408 900H518L401 750H336Z" />
<glyph unicode="&#xca;" glyph-name="Ecircumflex" horiz-adv-x="510" d="M65 0L188 700H578L566 630H276L235 400H465L453 330H223L177 70H467L455 0H65ZM255 760L383 890H453L535 760H470L407 825L320 760H255Z" />
<glyph unicode="&#xcb;" glyph-name="Edieresis" horiz-adv-x="510" d="M65 0L188 700H578L566 630H276L235 400H465L453 330H223L177 70H467L455 0H65ZM285 765T273 776T260 808Q260 816 261 820Q265 844 283 859T326 875Q347 875 359 863T372 830Q372 824 371
820Q366 796 348 781T306 765Q285 765 273 776ZM460 765T448 776T435 808Q435 816 436 820Q440 844 458 859T501 875Q522 875 534 863T547 830Q547 824 546 820Q541 796 523 781T481 765Q460 765 448 776Z" />
<glyph unicode="&#xcc;" glyph-name="Igrave" horiz-adv-x="278" d="M65 0L188 700H288L165 0H65ZM216 750L153 900H263L281 750H216Z" />
<glyph unicode="&#xcd;" glyph-name="Iacute" horiz-adv-x="277" d="M65 0L188 700H288L165 0H65ZM208 750L280 900H390L273 750H208Z" />
<glyph unicode="&#xce;" glyph-name="Icircumflex" horiz-adv-x="270" d="M65 0L188 700H288L165 0H65ZM103 760L231 890H301L383 760H318L255 825L168 760H103Z" />
<glyph unicode="&#xcf;" glyph-name="Idieresis" horiz-adv-x="260" d="M65 0L188 700H288L165 0H65ZM128 765T116 776T103 808Q103 816 104 820Q108 844 126 859T169 875Q190 875 202 863T215 830Q215 824 214 820Q209 796 191 781T149 765Q128 765 116 776ZM303
765T291 776T278 808Q278 816 279 820Q283 844 301 859T344 875Q365 875 377 863T390 830Q390 824 389 820Q384 796 366 781T324 765Q303 765 291 776Z" />
<glyph unicode="&#xd0;" glyph-name="Eth" horiz-adv-x="585" d="M121 320H66L80 400H135L188 700H338Q458 700 517 645T577 469Q577 411 566 350Q533 166 447 83T215 0H65L121 320ZM227 70Q322 70 380 134T466 350Q477 418 477 461Q477 551 439 590T326 630H276L235
400H350L336 320H221L177 70H227Z" />
<glyph unicode="&#xd1;" glyph-name="Ntilde" horiz-adv-x="630" d="M188 700H298L429 255Q433 239 440 201Q442 190 444 170H448L452 201L455 228Q457 246 459 255L538 700H638L515 0H405L273 445Q268 459 262 499Q260 510 258 530H254L250 499L247 473Q245 453
243 445L165 0H65L188 700ZM443 750T432 757T410 777Q408 779 403 784T392 792T380 795Q354 794 341 775T327 755H318L282 780Q302 819 327 842T387 865Q406 865 417 858T440 838Q448 829 454 825T470 820Q483 820 495 829T513 847T522 860H531L567 835Q547 796
522 773T462 750Q443 750 432 757Z" />
<glyph unicode="&#xd2;" glyph-name="Ograve" horiz-adv-x="600" d="M181 -10T130 46T79 221Q79 278 91 350Q123 536 204 623T400 710Q492 710 542 655T593 480Q593 424 581 350Q549 164 469 77T273 -10Q181 -10 130 46ZM348 60T400 128T481 350Q494 419 494 474Q494
560 464 600T387 640Q323 640 271 572T191 350Q178 279 178 224Q178 138 207 99T285 60Q348 60 400 128ZM388 750L325 900H435L453 750H388Z" />
<glyph unicode="&#xd3;" glyph-name="Oacute" horiz-adv-x="600" d="M181 -10T130 46T79 221Q79 278 91 350Q123 536 204 623T400 710Q492 710 542 655T593 480Q593 424 581 350Q549 164 469 77T273 -10Q181 -10 130 46ZM348 60T400 128T481 350Q494 419 494 474Q494
560 464 600T387 640Q323 640 271 572T191 350Q178 279 178 224Q178 138 207 99T285 60Q348 60 400 128ZM358 750L430 900H540L423 750H358Z" />
<glyph unicode="&#xd4;" glyph-name="Ocircumflex" horiz-adv-x="600" d="M181 -10T130 46T79 221Q79 278 91 350Q123 536 204 623T400 710Q492 710 542 655T593 480Q593 424 581 350Q549 164 469 77T273 -10Q181 -10 130 46ZM348 60T400 128T481 350Q494 419
494 474Q494 560 464 600T387 640Q323 640 271 572T191 350Q178 279 178 224Q178 138 207 99T285 60Q348 60 400 128ZM268 760L396 890H466L548 760H483L420 825L333 760H268Z" />
<glyph unicode="&#xd5;" glyph-name="Otilde" horiz-adv-x="600" d="M181 -10T130 46T79 221Q79 278 91 350Q123 536 204 623T400 710Q492 710 542 655T593 480Q593 424 581 350Q549 164 469 77T273 -10Q181 -10 130 46ZM348 60T400 128T481 350Q494 419 494 474Q494
560 464 600T387 640Q323 640 271 572T191 350Q178 279 178 224Q178 138 207 99T285 60Q348 60 400 128ZM430 760T419 767T397 787Q395 789 390 794T379 802T367 805Q341 804 328 785T314 765H305L269 790Q289 829 314 852T374 875Q393 875 404 868T427 848Q435
839 441 835T457 830Q470 830 482 839T500 857T509 870H518L554 845Q534 806 509 783T449 760Q430 760 419 767Z" />
<glyph unicode="&#xd6;" glyph-name="Odieresis" horiz-adv-x="600" d="M181 -10T130 46T79 221Q79 278 91 350Q123 536 204 623T400 710Q492 710 542 655T593 480Q593 424 581 350Q549 164 469 77T273 -10Q181 -10 130 46ZM348 60T400 128T481 350Q494 419 494
474Q494 560 464 600T387 640Q323 640 271 572T191 350Q178 279 178 224Q178 138 207 99T285 60Q348 60 400 128ZM298 765T286 776T273 808Q273 816 274 820Q278 844 296 859T339 875Q360 875 372 863T385 830Q385 824 384 820Q379 796 361 781T319 765Q298 765
286 776ZM473 765T461 776T448 808Q448 816 449 820Q453 844 471 859T514 875Q535 875 547 863T560 830Q560 824 559 820Q554 796 536 781T494 765Q473 765 461 776Z" />
<glyph unicode="&#xd7;" glyph-name="multiply" horiz-adv-x="437" d="M104 157L57 213L195 330L98 447L165 503L262 387L398 503L445 447L308 330L404 213L337 157L242 273L104 157Z" />
<glyph unicode="&#xd8;" glyph-name="Oslash" horiz-adv-x="600" d="M187 -10T141 35L115 0H35L101 89Q78 141 78 216Q78 276 91 350Q123 536 204 623T400 710Q482 710 532 665L558 700H638L571 610Q594 559 594 483Q594 422 581 350Q549 164 469 77T273 -10Q187
-10 141 35ZM473 586Q447 640 387 640Q323 640 271 572T191 350Q179 277 179 225Q179 204 180 194L473 586ZM348 60T400 128T481 350Q494 422 494 478Q494 496 493 505L199 113Q226 60 285 60Q348 60 400 128Z" />
<glyph unicode="&#xd9;" glyph-name="Ugrave" horiz-adv-x="620" d="M190 -10T141 33T92 159Q92 187 98 220L183 700H283L198 220Q193 190 193 170Q193 114 219 87T295 60Q354 60 394 99T448 220L533 700H633L548 220Q528 107 460 49T283 -10Q190 -10 141 33ZM394
730L331 880H441L459 730H394Z" />
<glyph unicode="&#xda;" glyph-name="Uacute" horiz-adv-x="620" d="M190 -10T141 33T92 159Q92 187 98 220L183 700H283L198 220Q193 190 193 170Q193 114 219 87T295 60Q354 60 394 99T448 220L533 700H633L548 220Q528 107 460 49T283 -10Q190 -10 141 33ZM374
730L446 880H556L439 730H374Z" />
<glyph unicode="&#xdb;" glyph-name="Ucircumflex" horiz-adv-x="620" d="M190 -10T141 33T92 159Q92 187 98 220L183 700H283L198 220Q193 190 193 170Q193 114 219 87T295 60Q354 60 394 99T448 220L533 700H633L548 220Q528 107 460 49T283 -10Q190 -10 141
33ZM278 760L406 890H476L558 760H493L430 825L343 760H278Z" />
<glyph unicode="&#xdc;" glyph-name="Udieresis" horiz-adv-x="620" d="M190 -10T141 33T92 159Q92 187 98 220L183 700H283L198 220Q193 190 193 170Q193 114 219 87T295 60Q354 60 394 99T448 220L533 700H633L548 220Q528 107 460 49T283 -10Q190 -10 141 33ZM308
765T296 776T283 808Q283 816 284 820Q288 844 306 859T349 875Q370 875 382 863T395 830Q395 824 394 820Q389 796 371 781T329 765Q308 765 296 776ZM483 765T471 776T458 808Q458 816 459 820Q463 844 481 859T524 875Q545 875 557 863T570 830Q570 824 569
820Q564 796 546 781T504 765Q483 765 471 776Z" />
<glyph unicode="&#xdd;" glyph-name="Yacute" horiz-adv-x="530" d="M230 230L98 700H203L289 395Q295 370 296 356Q297 349 297 335H301L309 356Q316 373 329 395L523 700H628L330 230L290 0H190L230 230ZM329 730L401 880H511L394 730H329Z" />
<glyph unicode="&#xde;" glyph-name="Thorn" horiz-adv-x="615" d="M191 720H291L277 640H367Q487 640 550 585T613 424Q613 386 606 350Q582 210 494 135T265 60H175L161 -20H61L191 720ZM277 130Q366 130 427 186T506 350Q512 383 512 412Q512 489 470 529T355
570H265L187 130H277Z" />
<glyph unicode="&#xdf;" glyph-name="germandbls" horiz-adv-x="620" d="M316 -10T284 5Q269 10 258 20L294 85H304Q311 76 319 72Q338 60 365 60Q414 60 447 88T489 170Q491 182 491 188Q491 217 476 239T431 290Q397 323 379 350T361 419Q361 434 364 450Q367
467 373 480T390 510Q401 528 406 540T415 570Q416 575 416 583Q416 608 401 624T362 640Q327 640 303 617T271 550L175 0H75L149 420H84L96 490H161L171 550Q183 622 236 666T365 710Q440 710 478 679T517 595Q517 586 515 570Q511 549 503 535T481 505Q466 486
459 472T452 434Q452 408 467 389T514 341Q553 308 573 280T594 210Q594 197 591 180Q575 93 514 42T363 -10Q316 -10 284 5Z" />
<glyph unicode="&#xe0;" glyph-name="agrave" horiz-adv-x="510" d="M115 -10T79 21T42 110Q42 127 45 145Q58 216 116 255T287 295H367L371 320Q375 346 375 355Q375 397 352 418T287 440Q253 440 205 417Q183 405 169 395H159L135 455Q159 471 184 482Q242 510
309 510Q385 510 429 468T474 357Q474 340 471 320L415 0H345V60H340Q323 40 299 25Q249 -10 183 -10Q115 -10 79 21ZM242 65T260 73T301 95Q319 108 337 125L354 225H274Q209 225 176 197T143 126Q143 96 162 81T221 65Q242 65 260 73ZM298 550L235 700H345L363
550H298Z" />
<glyph unicode="&#xe1;" glyph-name="aacute" horiz-adv-x="510" d="M115 -10T79 21T42 110Q42 127 45 145Q58 216 116 255T287 295H367L371 320Q375 346 375 355Q375 397 352 418T287 440Q253 440 205 417Q183 405 169 395H159L135 455Q159 471 184 482Q242 510
309 510Q385 510 429 468T474 357Q474 340 471 320L415 0H345V60H340Q323 40 299 25Q249 -10 183 -10Q115 -10 79 21ZM242 65T260 73T301 95Q319 108 337 125L354 225H274Q209 225 176 197T143 126Q143 96 162 81T221 65Q242 65 260 73ZM278 550L350 700H460L343
550H278Z" />
<glyph unicode="&#xe2;" glyph-name="acircumflex" horiz-adv-x="510" d="M115 -10T79 21T42 110Q42 127 45 145Q58 216 116 255T287 295H367L371 320Q375 346 375 355Q375 397 352 418T287 440Q253 440 205 417Q183 405 169 395H159L135 455Q159 471 184 482Q242
510 309 510Q385 510 429 468T474 357Q474 340 471 320L415 0H345V60H340Q323 40 299 25Q249 -10 183 -10Q115 -10 79 21ZM242 65T260 73T301 95Q319 108 337 125L354 225H274Q209 225 176 197T143 126Q143 96 162 81T221 65Q242 65 260 73ZM188 560L316 690H386L468
560H403L340 625L253 560H188Z" />
<glyph unicode="&#xe3;" glyph-name="atilde" horiz-adv-x="510" d="M115 -10T79 21T42 110Q42 127 45 145Q58 216 116 255T287 295H367L371 320Q375 346 375 355Q375 397 352 418T287 440Q253 440 205 417Q183 405 169 395H159L135 455Q159 471 184 482Q242 510
309 510Q385 510 429 468T474 357Q474 340 471 320L415 0H345V60H340Q323 40 299 25Q249 -10 183 -10Q115 -10 79 21ZM242 65T260 73T301 95Q319 108 337 125L354 225H274Q209 225 176 197T143 126Q143 96 162 81T221 65Q242 65 260 73ZM350 817T339 824T317 844Q315
846 310 851T299 859T287 862Q261 861 248 842T234 822H225L189 847Q209 886 234 909T294 932Q313 932 324 925T347 905Q355 896 361 892T377 887Q390 887 402 896T420 914T429 927H438L474 902Q454 863 429 840T369 817Q350 817 339 824Z" />
<glyph unicode="&#xe4;" glyph-name="adieresis" horiz-adv-x="510" d="M115 -10T79 21T42 110Q42 127 45 145Q58 216 116 255T287 295H367L371 320Q375 346 375 355Q375 397 352 418T287 440Q253 440 205 417Q183 405 169 395H159L135 455Q159 471 184 482Q242
510 309 510Q385 510 429 468T474 357Q474 340 471 320L415 0H345V60H340Q323 40 299 25Q249 -10 183 -10Q115 -10 79 21ZM242 65T260 73T301 95Q319 108 337 125L354 225H274Q209 225 176 197T143 126Q143 96 162 81T221 65Q242 65 260 73ZM218 565T206 576T193
608Q193 616 194 620Q198 644 216 659T259 675Q280 675 292 663T305 630Q305 624 304 620Q299 596 281 581T239 565Q218 565 206 576ZM393 565T381 576T368 608Q368 616 369 620Q373 644 391 659T434 675Q455 675 467 663T480 630Q480 624 479 620Q474 596 456
581T414 565Q393 565 381 576Z" />
<glyph unicode="&#xe5;" glyph-name="aring" horiz-adv-x="510" d="M115 -10T79 21T42 110Q42 127 45 145Q58 216 116 255T287 295H367L371 320Q375 346 375 355Q375 397 352 418T287 440Q253 440 205 417Q183 405 169 395H159L135 455Q159 471 184 482Q242 510
309 510Q385 510 429 468T474 357Q474 340 471 320L415 0H345V60H340Q323 40 299 25Q249 -10 183 -10Q115 -10 79 21ZM242 65T260 73T301 95Q319 108 337 125L354 225H274Q209 225 176 197T143 126Q143 96 162 81T221 65Q242 65 260 73ZM289 560T266 581T243 637Q243
649 244 655Q252 697 284 723T361 750Q400 750 423 730T446 675Q446 626 412 593T328 560Q289 560 266 581ZM353 610T366 621T384 655Q385 659 385 667Q385 683 376 691T352 700Q336 700 323 689T304 655Q303 651 303 645Q303 628 312 619T337 610Q353 610 366
621Z" />
<glyph unicode="&#xe6;" glyph-name="ae" horiz-adv-x="785" d="M115 -10T79 21T42 110Q42 127 45 145Q58 216 116 255T287 295H367L371 320Q375 346 375 355Q375 397 352 418T287 440Q253 440 205 417Q183 405 169 395H159L135 455Q159 471 184 482Q242 510 309
510Q364 510 398 490T446 435Q480 470 520 490T604 510Q679 510 722 463T766 325Q766 288 759 250L756 235L732 215H452Q447 187 447 169Q447 115 473 88T545 60Q580 60 626 82Q648 94 663 105H673L697 45Q677 30 647 17Q591 -10 523 -10Q472 -10 433 10T374 70Q351
49 320 30Q250 -10 183 -10Q115 -10 79 21ZM665 285Q670 318 670 339Q670 390 649 415T592 440Q548 440 514 402T465 285H665ZM242 65T260 73T301 95Q319 108 337 125L354 225H274Q209 225 176 197T143 126Q143 96 162 81T221 65Q242 65 260 73Z" />
<glyph unicode="&#xe7;" glyph-name="ccedilla" horiz-adv-x="455" d="M463 469T480 455L434 395H424Q410 407 395 417Q377 428 360 434T322 440Q266 440 226 395T169 250Q162 211 162 177Q162 115 188 88T265 60Q300 60 346 82Q368 94 383 105H393L417 45Q397
30 367 17Q312 -9 250 -10L246 -30Q282 -30 302 -48T323 -95Q323 -135 293 -162T213 -190Q181 -190 157 -180Q143 -174 138 -170L160 -130H169Q170 -131 175 -134T190 -141T211 -145Q229 -145 242 -135T257 -110Q260 -94 250 -85T218 -75H178L190 -5Q128 7 95 51T62
173Q62 211 69 250Q92 378 159 444T324 510Q389 510 439 482Q463 469 480 455Z" />
<glyph unicode="&#xe8;" glyph-name="egrave" horiz-adv-x="505" d="M156 -10T109 36T62 173Q62 211 69 250Q90 377 157 443T319 510Q397 510 441 463T486 325Q486 297 479 250L476 235L452 215H162Q157 187 157 169Q157 115 185 88T265 60Q300 60 346 82Q368
94 383 105H393L417 45Q397 30 367 17Q311 -10 243 -10Q156 -10 109 36ZM385 285Q390 318 390 338Q390 390 368 415T307 440Q259 440 224 402T175 285H385ZM296 550L233 700H343L361 550H296Z" />
<glyph unicode="&#xe9;" glyph-name="eacute" horiz-adv-x="505" d="M156 -10T109 36T62 173Q62 211 69 250Q90 377 157 443T319 510Q397 510 441 463T486 325Q486 297 479 250L476 235L452 215H162Q157 187 157 169Q157 115 185 88T265 60Q300 60 346 82Q368
94 383 105H393L417 45Q397 30 367 17Q311 -10 243 -10Q156 -10 109 36ZM385 285Q390 318 390 338Q390 390 368 415T307 440Q259 440 224 402T175 285H385ZM286 550L358 700H468L351 550H286Z" />
<glyph unicode="&#xea;" glyph-name="ecircumflex" horiz-adv-x="505" d="M156 -10T109 36T62 173Q62 211 69 250Q90 377 157 443T319 510Q397 510 441 463T486 325Q486 297 479 250L476 235L452 215H162Q157 187 157 169Q157 115 185 88T265 60Q300 60 346 82Q368
94 383 105H393L417 45Q397 30 367 17Q311 -10 243 -10Q156 -10 109 36ZM385 285Q390 318 390 338Q390 390 368 415T307 440Q259 440 224 402T175 285H385ZM185 560L313 690H383L465 560H400L337 625L250 560H185Z" />
<glyph unicode="&#xeb;" glyph-name="edieresis" horiz-adv-x="505" d="M156 -10T109 36T62 173Q62 211 69 250Q90 377 157 443T319 510Q397 510 441 463T486 325Q486 297 479 250L476 235L452 215H162Q157 187 157 169Q157 115 185 88T265 60Q300 60 346 82Q368
94 383 105H393L417 45Q397 30 367 17Q311 -10 243 -10Q156 -10 109 36ZM385 285Q390 318 390 338Q390 390 368 415T307 440Q259 440 224 402T175 285H385ZM215 565T203 576T190 608Q190 616 191 620Q195 644 213 659T256 675Q277 675 289 663T302 630Q302 624
301 620Q296 596 278 581T236 565Q215 565 203 576ZM390 565T378 576T365 608Q365 616 366 620Q370 644 388 659T431 675Q452 675 464 663T477 630Q477 624 476 620Q471 596 453 581T411 565Q390 565 378 576Z" />
<glyph unicode="&#xec;" glyph-name="igrave" horiz-adv-x="258" d="M176 550L113 700H223L241 550H176ZM58 0L146 500H246L158 0H58Z" />
<glyph unicode="&#xed;" glyph-name="iacute" horiz-adv-x="257" d="M158 550L230 700H340L223 550H158ZM50 0L138 500H238L150 0H50Z" />
<glyph unicode="&#xee;" glyph-name="icircumflex" horiz-adv-x="260" d="M63 560L191 690H261L343 560H278L215 625L128 560H63ZM55 0L143 500H243L155 0H55Z" />
<glyph unicode="&#xef;" glyph-name="idieresis" horiz-adv-x="260" d="M93 565T81 576T68 608Q68 616 69 620Q73 644 91 659T134 675Q155 675 167 663T180 630Q180 624 179 620Q174 596 156 581T114 565Q93 565 81 576ZM268 565T256 576T243 608Q243 616 244
620Q248 644 266 659T309 675Q330 675 342 663T355 630Q355 624 354 620Q349 596 331 581T289 565Q268 565 256 576ZM55 0L143 500H243L155 0H55Z" />
<glyph unicode="&#xf0;" glyph-name="eth" horiz-adv-x="515" d="M142 -10T95 36T48 165Q48 194 54 225Q67 298 101 351T183 432T281 460Q336 460 369 444T418 390Q424 420 424 446Q424 519 373 557L332 494L274 524L315 587Q299 593 265 600L212 610L234 680L293
670Q331 663 358 654L396 713L455 684L417 625Q460 596 481 549T502 433Q502 382 492 325L474 225Q454 114 387 52T223 -10Q142 -10 95 36ZM283 60T321 101T374 225Q379 257 379 276Q379 330 355 357T292 385Q244 385 206 345T154 225Q149 200 149 171Q149 116
172 88T235 60Q283 60 321 101Z" />
<glyph unicode="&#xf1;" glyph-name="ntilde" horiz-adv-x="545" d="M138 500H208L207 440H212Q226 456 253 475Q309 510 369 510Q434 510 473 473T513 376Q513 366 509 340L450 0H350L409 340Q411 354 411 361Q411 394 389 414T331 435Q293 435 251 405Q231 390
216 375L150 0H50L138 500ZM379 827T368 834T346 854Q344 856 339 861T328 869T316 872Q290 871 277 852T263 832H254L218 857Q238 896 263 919T323 942Q342 942 353 935T376 915Q384 906 390 902T406 897Q419 897 431 906T449 924T458 937H467L503 912Q483 873
458 850T398 827Q379 827 368 834Z" />
<glyph unicode="&#xf2;" glyph-name="ograve" horiz-adv-x="530" d="M154 -10T108 36T62 173Q62 211 69 250Q92 379 160 444T329 510Q413 510 459 463T506 324Q506 297 499 250Q476 122 408 56T238 -10Q154 -10 108 36ZM302 60T342 105T399 250Q406 289 406 323Q406
384 382 412T317 440Q264 440 225 395T169 250Q162 211 162 176Q162 60 250 60Q302 60 342 105ZM308 550L245 700H355L373 550H308Z" />
<glyph unicode="&#xf3;" glyph-name="oacute" horiz-adv-x="530" d="M154 -10T108 36T62 173Q62 211 69 250Q92 379 160 444T329 510Q413 510 459 463T506 324Q506 297 499 250Q476 122 408 56T238 -10Q154 -10 108 36ZM302 60T342 105T399 250Q406 289 406 323Q406
384 382 412T317 440Q264 440 225 395T169 250Q162 211 162 176Q162 60 250 60Q302 60 342 105ZM298 550L370 700H480L363 550H298Z" />
<glyph unicode="&#xf4;" glyph-name="ocircumflex" horiz-adv-x="530" d="M154 -10T108 36T62 173Q62 211 69 250Q92 379 160 444T329 510Q413 510 459 463T506 324Q506 297 499 250Q476 122 408 56T238 -10Q154 -10 108 36ZM302 60T342 105T399 250Q406 289 406
323Q406 384 382 412T317 440Q264 440 225 395T169 250Q162 211 162 176Q162 60 250 60Q302 60 342 105ZM198 560L326 690H396L478 560H413L350 625L263 560H198Z" />
<glyph unicode="&#xf5;" glyph-name="otilde" horiz-adv-x="530" d="M154 -10T108 36T62 173Q62 211 69 250Q92 379 160 444T329 510Q413 510 459 463T506 324Q506 297 499 250Q476 122 408 56T238 -10Q154 -10 108 36ZM302 60T342 105T399 250Q406 289 406 323Q406
384 382 412T317 440Q264 440 225 395T169 250Q162 211 162 176Q162 60 250 60Q302 60 342 105ZM360 817T349 824T327 844Q325 846 320 851T309 859T297 862Q271 861 258 842T244 822H235L199 847Q219 886 244 909T304 932Q323 932 334 925T357 905Q365 896 371
892T387 887Q400 887 412 896T430 914T439 927H448L484 902Q464 863 439 840T379 817Q360 817 349 824Z" />
<glyph unicode="&#xf6;" glyph-name="odieresis" horiz-adv-x="530" d="M154 -10T108 36T62 173Q62 211 69 250Q92 379 160 444T329 510Q413 510 459 463T506 324Q506 297 499 250Q476 122 408 56T238 -10Q154 -10 108 36ZM302 60T342 105T399 250Q406 289 406
323Q406 384 382 412T317 440Q264 440 225 395T169 250Q162 211 162 176Q162 60 250 60Q302 60 342 105ZM228 565T216 576T203 608Q203 616 204 620Q208 644 226 659T269 675Q290 675 302 663T315 630Q315 624 314 620Q309 596 291 581T249 565Q228 565 216 576ZM403
565T391 576T378 608Q378 616 379 620Q383 644 401 659T444 675Q465 675 477 663T490 630Q490 624 489 620Q484 596 466 581T424 565Q403 565 391 576Z" />
<glyph unicode="&#xf7;" glyph-name="divide" horiz-adv-x="470" d="M265 440T251 453T237 487Q237 518 257 539T308 560Q331 560 345 547T359 513Q359 482 338 461T287 440Q265 440 251 453ZM56 290L70 370H480L466 290H56ZM205 100T191 113T177 147Q177 178
197 199T248 220Q271 220 285 207T299 173Q299 142 278 121T227 100Q205 100 191 113Z" />
<glyph unicode="&#xf8;" glyph-name="oslash" horiz-adv-x="530" d="M174 -10T130 18L115 0H35L87 63Q61 106 61 170Q61 204 69 250Q92 379 160 444T329 510Q397 510 437 482L453 500H533L480 437Q506 393 506 325Q506 288 499 250Q476 122 408 56T238 -10Q174
-10 130 18ZM380 414Q357 440 317 440Q264 440 225 395T169 250Q161 205 161 174L162 153L380 414ZM302 60T342 105T399 250Q406 291 406 326Q406 341 405 347L186 86Q207 60 250 60Q302 60 342 105Z" />
<glyph unicode="&#xf9;" glyph-name="ugrave" horiz-adv-x="550" d="M152 -10T114 26T75 124Q75 142 78 160L138 500H238L178 160Q176 146 176 139Q176 106 198 86T256 65Q277 65 295 73T336 95Q354 109 372 125L438 500H538L450 0H380V60H375Q358 40 334 25Q284
-10 218 -10Q152 -10 114 26ZM326 541L263 691H373L391 541H326Z" />
<glyph unicode="&#xfa;" glyph-name="uacute" horiz-adv-x="550" d="M152 -10T114 26T75 124Q75 142 78 160L138 500H238L178 160Q176 146 176 139Q176 106 198 86T256 65Q277 65 295 73T336 95Q354 109 372 125L438 500H538L450 0H380V60H375Q358 40 334 25Q284
-10 218 -10Q152 -10 114 26ZM306 541L378 691H488L371 541H306Z" />
<glyph unicode="&#xfb;" glyph-name="ucircumflex" horiz-adv-x="550" d="M152 -10T114 26T75 124Q75 142 78 160L138 500H238L178 160Q176 146 176 139Q176 106 198 86T256 65Q277 65 295 73T336 95Q354 109 372 125L438 500H538L450 0H380V60H375Q358 40 334
25Q284 -10 218 -10Q152 -10 114 26ZM208 560L336 690H406L488 560H423L360 625L273 560H208Z" />
<glyph unicode="&#xfc;" glyph-name="udieresis" horiz-adv-x="550" d="M152 -10T114 26T75 124Q75 142 78 160L138 500H238L178 160Q176 146 176 139Q176 106 198 86T256 65Q277 65 295 73T336 95Q354 109 372 125L438 500H538L450 0H380V60H375Q358 40 334 25Q284
-10 218 -10Q152 -10 114 26ZM238 565T226 576T213 608Q213 616 214 620Q218 644 236 659T279 675Q300 675 312 663T325 630Q325 624 324 620Q319 596 301 581T259 565Q238 565 226 576ZM413 565T401 576T388 608Q388 616 389 620Q393 644 411 659T454 675Q475
675 487 663T500 630Q500 624 499 620Q494 596 476 581T434 565Q413 565 401 576Z" />
<glyph unicode="&#xfd;" glyph-name="yacute" horiz-adv-x="475" d="M32 -210T2 -195Q-12 -189 -22 -180L14 -115H24Q31 -124 38 -128Q53 -140 75 -140Q101 -140 124 -121T162 -70L195 0H155L78 500H178L229 170Q232 157 234 119L236 90H240L252 119L261 142Q269
162 273 170L423 500H523L262 -70Q234 -133 184 -171T72 -210Q32 -210 2 -195ZM269 541L341 691H451L334 541H269Z" />
<glyph unicode="&#xfe;" glyph-name="thorn" horiz-adv-x="540" d="M173 670L208 700H278L239 480L274 495Q319 510 354 510Q429 510 472 463T516 325Q516 288 509 250Q486 123 420 57T263 -10Q224 -10 188 5Q172 11 158 20L119 -200H19L173 670ZM312 60T352 105T409
250Q416 289 416 323Q416 384 392 412T327 440Q295 440 257 430Q239 425 229 420L169 80Q176 76 194 70Q226 60 260 60Q312 60 352 105Z" />
<glyph unicode="&#xff;" glyph-name="ydieresis" horiz-adv-x="475" d="M32 -210T2 -195Q-12 -189 -22 -180L14 -115H24Q31 -124 38 -128Q53 -140 75 -140Q101 -140 124 -121T162 -70L195 0H155L78 500H178L229 170Q232 157 234 119L236 90H240L252 119L261 142Q269
162 273 170L423 500H523L262 -70Q234 -133 184 -171T72 -210Q32 -210 2 -195ZM200 565T188 576T175 608Q175 616 176 620Q180 644 198 659T241 675Q262 675 274 663T287 630Q287 624 286 620Q281 596 263 581T221 565Q200 565 188 576ZM375 565T363 576T350 608Q350
616 351 620Q355 644 373 659T416 675Q437 675 449 663T462 630Q462 624 461 620Q456 596 438 581T396 565Q375 565 363 576Z" />
<glyph unicode="&#x2013;" glyph-name="endash" horiz-adv-x="510" d="M49 250L63 330H513L499 250H49Z" />
<glyph unicode="&#x2014;" glyph-name="emdash" horiz-adv-x="720" d="M49 250L63 330H723L709 250H49Z" />
<glyph unicode="&#x2018;" glyph-name="quoteleft" horiz-adv-x="200" d="M229 513T209 492T162 470Q136 470 122 483T108 522Q108 526 110 540Q125 616 177 668Q200 693 230 710L254 675Q238 663 222 649Q187 616 184 590Q204 590 216 577T229 544Q229 513 209 492Z" />
<glyph unicode="&#x2019;" glyph-name="quoteright" horiz-adv-x="200" d="M128 667T148 688T195 710Q221 710 235 697T249 658Q249 654 247 640Q234 569 179 512Q153 486 127 470L104 505Q120 517 136 531Q170 565 174 590Q154 590 141 603T128 637Q128 667 148 688Z" />
<glyph unicode="&#x201a;" glyph-name="quotesinglbase" horiz-adv-x="200" d="M22 67T42 88T89 110Q115 110 129 97T143 57Q143 46 142 40Q129 -31 74 -88Q49 -114 22 -130L-2 -95Q14 -83 30 -69Q64 -35 68 -10Q48 -10 35 3T22 37Q22 67 42 88Z" />
<glyph unicode="&#x201c;" glyph-name="quotedblleft" horiz-adv-x="360" d="M229 513T209 492T162 470Q136 470 122 483T108 522Q108 526 110 540Q125 616 177 668Q200 693 230 710L254 675Q238 663 222 649Q187 616 184 590Q204 590 216 577T229 544Q229 513
209 492ZM389 513T369 492T322 470Q296 470 282 483T268 522Q268 526 270 540Q285 616 337 668Q360 693 390 710L414 675Q398 663 382 649Q347 616 344 590Q364 590 376 577T389 544Q389 513 369 492Z" />
<glyph unicode="&#x201d;" glyph-name="quotedblright" horiz-adv-x="360" d="M128 667T148 688T195 710Q221 710 235 697T249 658Q249 654 247 640Q234 569 179 512Q153 486 127 470L104 505Q120 517 136 531Q170 565 174 590Q154 590 141 603T128 637Q128 667
148 688ZM288 667T308 688T355 710Q381 710 395 697T409 658Q409 654 407 640Q394 569 339 512Q313 486 287 470L264 505Q280 517 296 531Q330 565 334 590Q314 590 301 603T288 637Q288 667 308 688Z" />
<glyph unicode="&#x201e;" glyph-name="quotedblbase" horiz-adv-x="360" d="M22 67T42 88T89 110Q115 110 129 97T143 57Q143 46 142 40Q129 -31 74 -88Q49 -114 22 -130L-2 -95Q14 -83 30 -69Q64 -35 68 -10Q48 -10 35 3T22 37Q22 67 42 88ZM182 67T202 88T249
110Q275 110 289 97T303 57Q303 46 302 40Q289 -31 234 -88Q209 -114 182 -130L158 -95Q174 -83 190 -69Q224 -35 228 -10Q208 -10 195 3T182 37Q182 67 202 88Z" />
<glyph unicode="&#x2022;" glyph-name="bullet" horiz-adv-x="370" d="M336 294T317 261T265 209T193 190Q146 190 119 216T92 286Q92 294 94 310Q104 363 143 396T235 430Q281 430 308 404T336 335Q336 294 317 261Z" />
<glyph unicode="&#x2039;" glyph-name="guilsinglleft" horiz-adv-x="330" d="M257 470H377L150 260L303 50H183L30 260L257 470Z" />
<glyph unicode="&#x203a;" glyph-name="guilsinglright" horiz-adv-x="340" d="M340 260L113 50H-7L220 260L67 470H187L340 260Z" />
</font>
</defs>
</svg>
