<?xml version="1.0" standalone="no"?>
<!DOCTYPE svg PUBLIC "-//W3C//DTD SVG 1.1//EN" "http://www.w3.org/Graphics/SVG/1.1/DTD/svg11.dtd">
<svg xmlns="http://www.w3.org/2000/svg">
<defs >
<font id="Sail" horiz-adv-x="385" ><font-face
    font-family="Sail"
    units-per-em="1000"
    panose-1="2 0 0 0 0 0 0 0 0 0"
    ascent="860"
    descent="-294"
    alphabetic="0" />
<glyph unicode=" " glyph-name="space" horiz-adv-x="213" />
<glyph unicode="!" glyph-name="exclam" horiz-adv-x="204" d="M55 21T55 42T69 78T105 93T141 78T156 42T141 7T105 -8T70 6ZM111 125L198 614L227 610L138 122L111 125Z" />
<glyph unicode="&quot;" glyph-name="quotedbl" horiz-adv-x="289" d="M194 665H237Q237 611 195 507T152 356H110Q112 411 153 507T194 665ZM324 665H367Q367 611 325 507T282 356H240Q242 411 283 507T324 665Z" />
<glyph unicode="#" glyph-name="numbersign" horiz-adv-x="585" d="M566 61H406L369 -143H339L376 61H233L196 -143H166L203 61H40L44 86H208L241 273H78L82 298H245L287 523H317L275 298H418L460 523H490L448 298H608L604 273H444L411 86H570L566 61ZM271 273L238
86H380L413 273H271Z" />
<glyph unicode="$" glyph-name="dollar" horiz-adv-x="707" d="M312 -194Q417 -194 475 -151T534 -37Q534 14 509 53T445 117T368 168T294 231T249 317Q158 344 129 430Q118 463 118 499T130 574Q152 651 204 690L215 674Q168 640 148 568Q137 532 137 499T147
436Q171 363 246 338Q244 349 244 372Q244 483 313 559T493 657L512 764H542L525 662Q570 665 571 665Q661 665 715 616Q761 573 761 511T719 403T606 357Q568 357 542 372Q490 333 421 316Q441 297 514 246T624 149T661 40Q661 -71 576 -142T347 -216L333 -293H303L317
-215Q206 -210 145 -158T84 -32T131 94T250 147T355 116T389 39T362 -41T290 -76T220 -48Q196 -24 193 12Q192 22 193 24L212 23Q211 -12 232 -34T290 -56T348 -28T370 38T344 99Q315 128 251 128T145 82T103 -30T157 -142Q189 -170 222 -182T312 -194ZM482 494Q482
538 504 567T566 596Q633 596 633 523T560 384Q582 374 606 374Q668 374 705 414T742 509T702 602Q653 646 573 646T438 607Q350 545 350 447Q350 366 404 329Q471 344 528 383Q482 424 482 494ZM565 578Q535 578 519 555T502 494Q502 429 543 395Q573 416 593
452T613 523Q613 578 565 578Z" />
<glyph unicode="%" glyph-name="percent" horiz-adv-x="572" d="M196 278H179Q179 315 197 336Q216 353 241 353T280 336T294 288Q294 241 254 196T152 150Q117 150 94 175T70 237Q70 303 119 346T213 390V372Q185 372 163 329T140 232T184 177Q214 177 245 212T277
288Q277 310 268 323T242 336Q196 336 196 278ZM472 120H455Q455 157 473 178Q492 195 517 195T556 178T570 130Q570 83 530 38T428 -8Q393 -8 370 17T346 79Q346 145 395 188T489 232V214Q461 214 439 171T416 74T460 19Q490 19 521 54T553 130Q553 152 544 165T518
178Q472 178 472 120ZM194 -32L427 434L453 424L220 -42L194 -32Z" />
<glyph unicode="&amp;" glyph-name="ampersand" horiz-adv-x="711" d="M367 177Q448 147 536 147T684 207T743 362H761Q761 262 702 198T546 129Q494 3 378 -39Q333 -55 282 -55Q175 -55 115 -10T55 109T100 225T208 285Q163 340 163 415T223 550T398 609Q485
609 531 579T578 503T555 410T528 334H507Q510 364 533 411T557 498T515 565T407 591T295 541T249 386Q249 330 263 306Q315 323 384 323T453 283Q453 259 427 244T352 228Q275 228 228 265Q210 246 200 233T178 183T165 94T209 4T297 -35T377 -22T436 10T480 54Q505
85 524 129Q446 130 360 160H359L367 177ZM283 270T303 258T358 246T412 256T433 281Q433 305 379 305T271 289Q273 284 278 277Z" />
<glyph unicode="&apos;" glyph-name="quotesingle" horiz-adv-x="159" d="M194 665H237Q237 611 195 507T152 356H110Q112 411 153 507T194 665Z" />
<glyph unicode="(" glyph-name="parenleft" horiz-adv-x="396" d="M494 559V538Q472 538 434 534Q399 523 368 506T302 453T244 370T204 250T188 86Q188 -64 285 -112Q309 -115 335 -115V-135Q209 -135 140 -62T70 144Q70 325 187 442T494 559Z" />
<glyph unicode=")" glyph-name="parenright" horiz-adv-x="391" d="M-28 -135V-114Q-6 -114 32 -110Q67 -99 98 -82T164 -29T222 54T262 174T278 338Q278 488 181 536Q157 539 131 539V559Q257 559 326 486T396 280Q396 99 279 -18T-28 -135Z" />
<glyph unicode="*" glyph-name="asterisk" horiz-adv-x="315" d="M320 563L348 531L274 476L360 448L346 407L262 442L280 355L238 346L227 439L159 377L130 409L205 463L119 492L133 533L215 498L200 585L242 594L251 501L320 563Z" />
<glyph unicode="+" glyph-name="plus" horiz-adv-x="434" d="M442 188H262L231 18H201L232 188H59L63 213H236L268 389H298L266 213H446L442 188Z" />
<glyph unicode="," glyph-name="comma" horiz-adv-x="239" d="M61 34T61 64T82 115T133 137T184 116T206 64Q206 15 163 -39T39 -116L30 -95Q75 -80 106 -58T147 -20L156 -4Q147 -8 133 -8Q103 -8 82 13Z" />
<glyph unicode="-" glyph-name="hyphen" horiz-adv-x="497" d="M473 184H90L92 202H475L473 184Z" />
<glyph unicode="." glyph-name="period" horiz-adv-x="237" d="M61 34T61 64T82 115T133 137T184 116T206 64T185 13T133 -8T82 13Z" />
<glyph unicode="/" glyph-name="slash" horiz-adv-x="312" d="M23 -32L374 667L400 657L49 -42L23 -32Z" />
<glyph unicode="0" glyph-name="zero" horiz-adv-x="444" d="M205 -9Q145 -9 106 32T66 135T92 247T156 329T234 379T305 397V376Q255 376 217 301T179 133Q179 28 259 28Q314 28 370 90T426 227Q426 267 408 290T355 314T302 291Q290 279 284 260T276 226V213H256Q256
271 285 302T356 333T422 305T445 227Q445 147 376 69T205 -9Z" />
<glyph unicode="1" glyph-name="one" horiz-adv-x="290" d="M319 389L172 0H54L172 339L101 324L96 344L319 389Z" />
<glyph unicode="2" glyph-name="two" horiz-adv-x="400" d="M29 -4V16Q67 42 184 112Q256 158 276 189T296 262T276 328T225 352T167 330T126 290T110 266L94 276Q107 300 136 329Q194 389 287 389Q395 389 395 296Q395 243 349 201T189 90H382L348 -4H29Z" />
<glyph unicode="3" glyph-name="three" horiz-adv-x="372" d="M221 139Q335 130 335 25Q335 -57 266 -111T109 -166Q-3 -166 -3 -73L18 -74Q18 -112 44 -129T109 -146Q174 -146 209 -101T245 19Q245 65 231 91T192 118L164 116L158 136Q196 149 215 157T256 182Q293
213 293 282Q293 318 272 336T227 354Q225 354 224 354Q201 354 177 337T141 305T127 286L110 295Q117 309 134 327T171 358Q219 389 276 389Q384 389 384 306Q384 251 336 209T221 139Z" />
<glyph unicode="4" glyph-name="four" horiz-adv-x="433" d="M6 24V44L457 419L350 118H431L397 24H317L252 -159L230 -157L293 24H6ZM412 355L128 118H327L412 355Z" />
<glyph unicode="5" glyph-name="five" horiz-adv-x="363" d="M121 199Q217 199 264 160T311 58T283 -49T208 -118Q115 -166 -4 -166V-147Q108 -147 165 -103T223 45Q223 183 102 183H69L157 389H415L381 295H139L98 199H121Z" />
<glyph unicode="6" glyph-name="six" horiz-adv-x="460" d="M201 -4Q71 -4 71 137Q71 221 114 298T224 429T371 514T526 551V531Q374 519 272 432Q219 387 189 310T158 129T244 25Q312 25 366 83T421 219Q421 265 397 290T329 315T253 284L239 298Q276 335 329
335T411 305T440 229T425 147T382 75T307 18T201 -4Z" />
<glyph unicode="7" glyph-name="seven" horiz-adv-x="370" d="M95 -164L77 -154L360 291H103L66 216L48 223L129 389H448L95 -164Z" />
<glyph unicode="8" glyph-name="eight" horiz-adv-x="438" d="M371 81T322 39T198 -4T90 29T56 99T73 167T113 218T160 252Q206 278 218 278L223 260Q181 250 158 214T135 128T164 53T226 28Q230 28 234 28Q291 28 321 64T351 149Q351 171 337 193T310 227T267
261T220 300T186 343T170 401Q170 459 220 505T350 551Q480 551 480 452Q480 386 426 344T303 286L299 303Q367 321 413 359T459 443T433 510T344 531T237 491T191 401Q191 374 205 350T235 312T280 276T325 240T356 201T371 149Q371 81 322 39Z" />
<glyph unicode="9" glyph-name="nine" horiz-adv-x="439" d="M352 254Q352 315 324 337T257 360Q256 360 254 360Q183 340 143 282T103 167Q103 98 153 77Q174 68 193 68T230 75T257 90T266 98L279 83Q245 49 196 49T115 78T82 167Q82 253 147 321T317 389Q378
389 412 350T447 243Q447 179 408 102Q391 70 357 31T277 -42T158 -107T-6 -159L-11 -140Q167 -94 224 -52Q293 -1 318 60Q352 143 352 254Z" />
<glyph unicode=":" glyph-name="colon" horiz-adv-x="270" d="M76 34T76 64T97 115T148 137T199 116T221 64T200 13T148 -8T97 13ZM116 286T116 316T137 367T188 389T239 368T261 316T240 265T188 244T137 265Z" />
<glyph unicode=";" glyph-name="semicolon" horiz-adv-x="271" d="M76 34T76 64T97 115T148 137T199 116T221 64Q221 15 178 -39T54 -116L45 -95Q90 -80 121 -58T162 -20L171 -4Q162 -8 148 -8Q118 -8 97 13ZM116 286T116 316T137 367T188 389T239 368T261 316T240
265T188 244T137 265Z" />
<glyph unicode="&lt;" glyph-name="less" horiz-adv-x="282" d="M215 72Q215 134 67 193L72 219Q98 227 155 252Q265 300 275 350H296Q290 317 251 286Q189 236 90 205Q200 162 228 109Q237 93 237 82T235 62H214Q215 67 215 72Z" />
<glyph unicode="=" glyph-name="equal" horiz-adv-x="498" d="M485 246H102L104 264H487L485 246ZM465 137H82L84 155H467L465 137Z" />
<glyph unicode="&gt;" glyph-name="greater" horiz-adv-x="282" d="M140 340Q140 278 288 219L283 193Q257 185 200 160Q90 112 80 62H59Q65 95 104 126Q166 176 265 207Q155 250 126 303Q118 319 118 330T120 350H141Q140 345 140 340Z" />
<glyph unicode="?" glyph-name="question" horiz-adv-x="463" d="M468 452Q468 510 434 544T324 578T195 526T125 399H96Q113 487 178 546T327 606T454 566T497 460Q497 436 491 412Q478 360 448 322T356 230T263 115L239 127Q270 193 354 261T464 414Q468 431
468 452ZM180 21T180 42T194 78T230 93T266 78T281 42T266 7T230 -8T195 6Z" />
<glyph unicode="@" glyph-name="at" horiz-adv-x="641" d="M348 -85Q222 -85 153 -12T83 194Q83 375 200 492T507 609Q673 609 673 479Q673 428 620 325T566 168Q566 129 594 129Q615 130 629 148L639 140Q619 115 587 115Q512 115 507 188Q492 150 469 133T405
115T336 142T308 221Q308 299 346 343T446 388Q526 388 546 346Q558 319 558 282T553 210Q561 263 586 310T630 397T650 478Q650 588 507 588Q424 588 362 548T266 442Q201 316 201 160Q201 52 248 -6T365 -65T497 -24L506 -45Q442 -85 348 -85ZM426 139Q449 139
466 164Q499 209 499 298Q499 365 460 365Q424 365 405 323T386 210T426 139Z" />
<glyph unicode="A" glyph-name="A" horiz-adv-x="1149" d="M1043 -41Q1069 -41 1093 -13L1108 -25Q1105 -29 1100 -35T1076 -51T1033 -61Q921 -61 921 36Q921 66 928 125Q880 110 842 110Q775 110 708 151Q669 84 635 37T556 -56Q463 -147 332 -147T122 -63Q53
14 53 124T124 321T308 407T480 340Q494 322 500 313Q554 290 623 237Q675 195 700 179Q714 205 738 249T776 316T815 381T857 444T901 498T952 547Q1021 596 1068 604Q1094 608 1112 608T1152 608T1214 596L1209 577Q1185 584 1158 587Q1058 194 1043 -41ZM532
197Q532 123 490 66T375 9Q328 9 299 37T269 95T278 144T298 174T324 190Q343 200 354 200L356 180Q331 180 310 156T289 102T312 51T375 29Q439 29 476 79T513 190T488 296Q433 317 379 317Q275 317 232 220L213 226Q224 251 248 280Q295 337 379 337Q424 337
468 324L466 327Q411 387 308 387T139 307T73 124T137 -49Q209 -127 338 -127Q456 -127 544 -38Q588 5 620 51T691 162Q657 184 609 222T515 284Q532 242 532 197ZM718 168Q782 130 835 130T931 147Q955 316 1021 567Q941 529 874 432Q825 362 756 237L718 168Z"
/>
<glyph unicode="B" glyph-name="B" horiz-adv-x="980" d="M82 310Q82 453 231 531T654 609Q809 609 881 562T953 434Q953 366 907 312T776 232Q960 211 960 103Q960 47 921 10T816 -44Q706 -71 590 -71V-51Q613 -53 634 -53Q734 -53 785 -18Q847 25 847 95Q847
135 823 166T774 210L749 222Q717 215 677 215V235Q773 235 852 290T931 434Q931 508 862 548T663 590Q608 218 579 78Q559 -30 479 -91T308 -153V-134Q347 -131 365 -126T397 -103T416 -61Q427 -12 433 32L529 585Q324 568 213 497T101 310Q101 258 137 222Q162
198 203 186T270 172T299 172V151Q181 151 124 207Q82 246 82 310Z" />
<glyph unicode="C" glyph-name="C" horiz-adv-x="644" d="M210 136Q210 -14 307 -62Q331 -65 370 -65T454 -50T522 -13Q573 34 586 68L591 83L611 75Q604 52 584 22T539 -29T465 -67T357 -85Q231 -85 162 -12T92 194Q92 375 209 492T516 609Q604 609 643 578T682
479Q682 434 638 368Q598 304 598 268H576Q576 288 584 311T598 344T620 380Q659 439 659 477Q659 557 593 578Q562 588 528 588T456 584Q421 573 390 556T324 503T266 420T226 300T210 136Z" />
<glyph unicode="D" glyph-name="D" horiz-adv-x="970" d="M829 -3T750 -36T587 -69T445 -53Q376 -102 298 -102V-83Q337 -82 354 -73T385 -32Q333 -9 294 26T242 84T228 110L246 117Q246 113 258 93T307 40T392 -15Q406 20 415 72L504 586Q400 578 320 545Q388
473 388 373Q388 281 339 226T229 170T137 206T105 293Q105 371 149 439T285 552Q219 608 111 626L115 645Q236 623 304 560Q425 609 599 609T874 530T974 308Q974 163 876 52Q829 -3 750 -36ZM570 -51Q665 -51 741 -20T862 64Q955 170 955 301T869 507T629 589Q580
258 552 113Q534 21 464 -39Q517 -51 570 -51ZM124 293Q124 252 150 221T229 189T322 235T368 352Q369 365 369 378Q369 468 300 537Q210 496 167 432T124 293Z" />
<glyph unicode="E" glyph-name="E" horiz-adv-x="563" d="M273 306Q325 323 394 323T463 283Q463 259 437 244T362 228Q285 228 238 265Q220 246 210 233T188 183T175 94T219 4T310 -35T399 -17T464 25T506 78Q531 115 539 143L559 138Q559 135 552 117T524 70T476
13T399 -35T292 -55Q185 -55 125 -10T65 109T110 225T218 285Q173 340 173 415T233 550T408 609Q495 609 541 579T588 503T565 410T538 334H517Q520 364 543 411T567 498T525 565T417 591T305 541T259 386Q259 330 273 306ZM293 270T313 258T368 246T422 256T443
281Q443 305 389 305T281 289Q283 284 288 277Z" />
<glyph unicode="F" glyph-name="F" horiz-adv-x="870" d="M103 311Q103 216 204 184Q244 172 270 171T299 171L300 150H294Q182 150 124 206Q82 245 82 311Q82 453 232 531T656 609Q799 609 857 578T915 489Q915 443 886 396T816 297T760 211H813L811 193H753Q745
167 745 146H724Q724 170 730 193H603L582 76Q561 -32 481 -93T309 -155V-135Q377 -134 396 -106T435 31L462 193H411L413 211H465L530 584Q325 567 214 497T103 311ZM891 489Q891 589 664 589Q623 306 606 211H737Q752 249 792 300T861 399T891 489Z" />
<glyph unicode="G" glyph-name="G" horiz-adv-x="654" d="M210 136Q210 -14 307 -62Q331 -65 370 -65T452 -54T523 -24Q561 0 580 22Q586 44 596 92T613 166L634 161Q626 130 615 78T598 4T582 -54T561 -106T534 -143Q507 -176 448 -193L444 -172Q495 -161 523
-123T571 -14Q490 -87 361 -87T162 -14T92 194Q92 375 209 492T516 609Q604 609 643 578T682 479Q682 434 638 368Q598 304 598 268H576Q576 288 584 311T598 344T620 380Q659 439 659 477Q659 557 593 578Q562 588 528 588T456 584Q421 573 390 556T324 503T266
420T226 300T210 136Z" />
<glyph unicode="H" glyph-name="H" horiz-adv-x="993" d="M581 553Q502 587 410 587T260 528T202 374H180Q180 478 244 543T408 609Q488 609 581 578Q688 539 813 539V518Q738 518 693 525Q692 521 686 492Q649 328 626 231H894L996 665H1017L877 64Q868 27 868
14Q868 -28 907 -28Q935 -28 956 1L970 -11Q963 -24 945 -35T902 -47T862 -30T847 11L859 77L890 213H621Q610 171 599 122T573 26T530 -71T470 -152T386 -204T277 -225T166 -203T79 -142Q19 -73 19 25Q19 41 20 57L42 54Q41 40 41 26Q41 -67 97 -129T250 -192T385
-141T459 55T581 553Z" />
<glyph unicode="I" glyph-name="I" horiz-adv-x="611" d="M303 588Q208 588 161 536T113 369H90Q90 609 297 609Q364 609 486 558T672 507V484Q646 484 613 491Q606 489 589 469T556 422Q514 346 482 228H590L588 210H477Q470 187 461 147Q420 -32 375 -108T241
-185Q188 -185 168 -173L178 -152Q192 -166 247 -166Q254 -166 270 -164L341 144Q344 157 350 181T357 210H248L250 228H361Q400 375 438 442T529 517Q517 522 476 540T416 565Q355 588 303 588Z" />
<glyph unicode="J" glyph-name="J" horiz-adv-x="725" d="M397 588Q310 588 255 531T200 384H179Q179 483 240 546T397 609Q432 609 464 601T511 585T560 559T615 531T681 511T782 500V479Q750 479 723 482Q715 474 703 458T662 378T606 228H712L710 210H601Q584
155 571 98T536 -14T480 -122Q407 -229 259 -229Q142 -229 78 -154T14 15Q14 27 15 40H38Q37 28 37 17Q37 -74 96 -141T259 -208Q353 -208 404 -70Q434 12 453 99T480 210H370L372 228H484Q519 361 553 424T632 501Q597 513 558 536T503 566Q456 588 397 588Z"
/>
<glyph unicode="K" glyph-name="K" horiz-adv-x="1078" d="M581 553Q502 587 410 587T260 528T202 374H180Q180 478 244 543T408 609Q488 609 581 578Q688 539 813 539V518Q738 518 693 525Q670 413 629 243T573 26T530 -71T470 -152T386 -204T277 -225T166 -203T79
-142Q19 -73 19 25Q19 41 20 57L42 54Q41 40 41 26Q41 -67 97 -129T250 -192T385 -141T459 55T581 553ZM1150 665H1173Q1173 608 1131 505T1088 356H1066Q1066 401 1080 437T1107 505T1127 554Q969 545 808 335Q772 291 742 249Q837 51 881 -30T956 -143T1020 -174T1078
-155T1113 -102H1138Q1106 -206 981 -206Q902 -206 851 -169T764 -55L654 177L797 363Q870 458 951 516T1135 578Q1150 623 1150 665Z" />
<glyph unicode="L" glyph-name="L" horiz-adv-x="650" d="M137 -42T108 -27T38 -11T-28 -26T-53 -70T-21 -116T56 -134T134 -126Q154 -108 169 -72Q137 -42 108 -27ZM355 -179T374 -181T424 -183T489 -166T541 -127T576 -76Q595 -43 604 -10L628 -18Q602 -103
546 -153T414 -203Q355 -203 333 -195T300 -184T274 -169T254 -154Q246 -148 213 -115Q149 -153 75 -153T-38 -130T-77 -71T-49 -14T37 8Q115 8 177 -50Q189 -13 197 32L264 419Q288 569 368 621Q438 666 527 666T672 615T729 454H705Q705 543 663 589T555 636Q436
636 414 488Q414 472 389 324T343 78Q322 -39 231 -103Q285 -157 311 -165Q321 -168 338 -173Z" />
<glyph unicode="M" glyph-name="M" horiz-adv-x="1336" d="M1291 -99Q1253 -137 1193 -137T1096 -98T1060 6T1083 155L1128 303Q1044 197 974 100Q836 -91 787 -156L769 -151L730 333L650 187Q536 -28 460 -96T256 -165Q148 -165 77 -88Q21 -25 21 63Q21 79 23
96L43 94Q41 78 41 63Q41 -18 92 -74Q157 -145 256 -145Q375 -145 448 -79T632 196L812 523Q706 525 607 556T429 588T297 533T244 391H224Q224 487 282 547T434 608Q509 608 612 576T836 543L878 3L898 31Q1109 321 1224 445T1410 570V550Q1379 550 1331 516Q1324
494 1284 364T1213 136T1181 -24T1203 -116Q1224 -116 1242 -108T1270 -90L1278 -82L1291 -99Z" />
<glyph unicode="N" glyph-name="N" horiz-adv-x="1287" d="M1177 -112Q1243 -112 1267 -39H1289Q1288 -43 1287 -50T1275 -75T1250 -107T1205 -132T1135 -143Q1051 -143 999 -102T911 24L772 393L671 209Q562 5 467 -77T243 -159Q140 -159 72 -86Q19 -27 19 59Q19
74 21 90L40 87Q39 74 39 61Q39 -18 86 -72Q145 -139 243 -139Q365 -139 457 -59T655 219L825 529Q722 531 630 560T462 590T336 538T285 403H266Q266 494 322 552T466 610Q536 610 636 580T852 549L1012 114Q1092 241 1142 331T1223 468T1278 540Q1333 596 1403
596V576Q1364 576 1332 556T1264 487T1199 389T1118 251T1021 91Q1050 20 1071 -22T1116 -88T1177 -112Z" />
<glyph unicode="O" glyph-name="O" horiz-adv-x="748" d="M200 26T252 -26T372 -78Q463 -78 545 -18T675 134T722 322T679 472T557 527Q462 527 408 461T354 306Q354 267 366 238T393 195T427 172Q452 160 470 160L469 140Q452 140 426 152T381 180T349 229T334
306Q334 403 393 474T557 546Q644 546 693 486T742 319Q742 244 713 169T633 33T507 -65T346 -103Q225 -103 157 -30T89 174Q89 353 203 478T487 610L488 590Q423 588 372 558T289 481T236 372Q200 263 200 145Z" />
<glyph unicode="P" glyph-name="P" horiz-adv-x="960" d="M472 -115Q408 -153 334 -153T221 -130T182 -71T210 -14T296 8Q374 8 436 -50Q448 -13 456 32L462 69H420V91H466L542 525Q547 562 556 585Q349 569 237 498T124 310Q124 258 160 222Q185 198 226 186T293
172T322 172V151Q204 151 147 207Q105 246 105 310Q105 437 224 513T564 605Q611 710 739 710V684Q714 681 705 664T688 609Q771 608 830 589T921 537Q980 476 980 394Q980 331 957 280T897 195T809 138Q723 97 602 80V78Q581 -39 490 -103Q531 -140 580 -161T706
-182V-204Q623 -204 570 -181T472 -115ZM954 394Q954 482 888 535T686 590Q649 318 607 103Q954 153 954 394ZM396 -42T367 -27T297 -11T231 -26T206 -69T238 -115T315 -134T386 -121T428 -72Q396 -42 367 -27Z" />
<glyph unicode="Q" glyph-name="Q" horiz-adv-x="779" d="M10 -171T74 -133T232 -95T437 -139Q568 -42 654 89T741 342T678 526T497 590Q396 590 308 488Q264 437 237 346T210 136Q210 94 218 64T237 19T266 -3Q287 -13 316 -13Q376 -13 427 53T479 209Q479 294
422 329Q400 342 363 346V366Q417 366 458 326T499 209Q499 111 439 35T282 -41T134 14T84 169Q84 293 148 404Q181 462 228 507T345 581T497 610Q622 610 691 541T760 345T675 87T457 -147Q493 -162 556 -195T661 -244T738 -260T797 -251T838 -230T864 -204Q880
-183 884 -172L903 -177Q860 -294 652 -294Q592 -294 534 -281T445 -254T360 -214Q222 -294 103 -294Q56 -294 33 -274T10 -223Q10 -171 74 -133ZM33 -223Q33 -246 53 -260T108 -274Q214 -274 339 -203Q223 -147 137 -147Q97 -147 65 -167T33 -223Z" />
<glyph unicode="R" glyph-name="R" horiz-adv-x="956" d="M308 -153V-134Q370 -131 392 -102T433 32L529 585Q324 568 213 497T101 310Q101 258 137 222Q162 198 203 186T270 172T299 172V151Q181 151 124 207Q82 246 82 310Q82 453 231 531T654 609Q824 609 895
563T967 438T913 301T769 213Q899 -57 936 -111T1025 -166Q1056 -166 1080 -147T1115 -94H1140Q1108 -198 983 -198Q904 -198 853 -161T766 -47L658 187Q618 183 599 183Q596 168 590 132T580 78Q560 -30 480 -91T308 -153ZM941 434Q941 587 663 590L603 205Q745
209 843 276T941 434Z" />
<glyph unicode="S" glyph-name="S" horiz-adv-x="710" d="M309 -194Q414 -194 472 -151T531 -37Q531 14 506 53T442 117T365 168T291 231T246 317Q155 344 126 430Q115 463 115 499T126 574Q149 651 201 690L212 674Q165 640 144 568Q134 532 134 499T144 436Q168
363 243 338Q241 349 241 372Q241 503 336 584T568 665Q658 665 712 616Q758 573 758 511T716 403T603 357Q564 357 539 372Q488 333 418 316Q438 297 511 246T621 149T658 40Q658 -74 570 -145T346 -216T141 -156Q81 -105 81 -32T128 94T247 147T352 116T386 39T359
-41T287 -76T217 -48Q193 -24 190 12Q189 22 190 24L209 23Q208 -12 231 -35Q250 -56 286 -56T345 -28T367 38T341 99Q312 128 248 128T142 82T100 -30T154 -142Q186 -170 219 -182T309 -194ZM479 494Q479 538 501 567T563 596Q630 596 630 523T557 384Q579 374
603 374Q665 374 702 414T739 509T699 602Q650 646 570 646T434 607Q347 545 347 447Q347 366 401 329Q468 344 525 383Q479 424 479 494ZM562 578Q532 578 516 555T499 494Q499 429 540 395Q570 416 590 452T610 523Q610 578 562 578Z" />
<glyph unicode="T" glyph-name="T" horiz-adv-x="940" d="M187 203T166 246T145 343T162 443T212 526T302 586T421 609T535 600T615 580T666 560T703 545T720 538T736 532T753 526T769 521T787 516T805 513T824 510T843 508T864 507Q913 507 949 523T1002 560T1029
606Q1041 638 1041 664H1063Q1063 640 1051 606T1020 548T960 505T863 486T749 504Q681 408 606 117Q569 -29 500 -95T299 -162T102 -82Q45 -11 45 83Q45 95 46 107H69V93Q69 24 106 -42Q122 -70 144 -90T205 -125T290 -139Q368 -139 413 -76T501 167T588 425T718
515Q692 525 663 537T608 559T532 578T421 588T308 566T226 508Q168 438 168 346Q168 294 187 255T233 196Q288 159 333 154L352 152L346 130Q321 130 282 145T215 182Z" />
<glyph unicode="U" glyph-name="U" horiz-adv-x="898" d="M486 553Q407 587 315 587T165 528T107 374H85Q85 478 149 543T313 609Q393 609 486 578Q593 539 718 539V518Q643 518 598 525Q586 475 563 387T531 252T522 156T555 76T642 44T730 79T783 157L901 665H922L782
64Q773 27 773 14Q773 -28 812 -28Q840 -28 861 1L875 -11Q868 -24 850 -35T807 -47T767 -30T752 11L764 77L769 100Q742 58 697 25T596 -9Q504 -9 455 39T406 171Q406 237 420 294T454 427T486 553Z" />
<glyph unicode="V" glyph-name="V" horiz-adv-x="1003" d="M628 595Q721 595 789 633L801 614Q738 580 666 575Q611 509 572 400T533 184T572 34T677 -9Q771 -9 851 89Q910 165 946 261T992 436T1001 592T985 734L1006 739Q1023 674 1023 595T1014 434T967 253T868
76Q744 -84 594 -84Q508 -84 467 -28T426 108T449 268T510 410Q573 516 631 574Q603 574 543 580L426 587Q286 587 207 518T128 324Q128 277 144 240T180 182T227 148Q259 130 289 123L284 102Q264 102 229 122T169 164T126 229T107 324Q107 455 193 532T426 609Q460
609 546 602Q587 595 628 595Z" />
<glyph unicode="W" glyph-name="W" horiz-adv-x="1332" d="M628 595Q725 595 794 633L805 615Q740 577 662 574Q599 514 556 374T512 76Q512 -21 547 -61T631 -101Q663 -101 693 -87T739 -58T783 -17Q767 31 767 132T802 351T895 544T1015 619Q1045 619 1060 603T1076
545Q1076 460 1022 319T881 62Q890 -15 930 -52T1032 -89Q1146 -89 1237 129Q1307 297 1307 473T1239 717L1254 732Q1329 657 1329 470Q1329 296 1258 120Q1146 -150 953 -150Q854 -150 808 -71Q796 -51 791 -41Q685 -150 557 -150Q474 -150 434 -95T393 40T413
197T461 332T526 442Q578 519 633 574Q600 574 547 581Q436 587 428 587Q288 587 208 517T128 322Q128 264 155 213Q169 186 216 151Q226 143 248 134T271 125L288 120L285 99Q266 99 230 119T169 161T125 226T106 322Q106 454 193 531T428 609Q488 609 538 602T628
595ZM878 112V97Q888 111 904 137Q969 238 1011 354T1053 545Q1053 597 1015 597Q1000 597 982 589Q949 558 918 466Q878 348 878 112Z" />
<glyph unicode="X" glyph-name="X" horiz-adv-x="788" d="M494 381Q494 500 462 544T365 588Q280 588 208 524Q172 492 151 439T129 327T145 230T185 171Q234 128 270 120L287 117L280 98Q263 103 252 106T211 127T162 165T125 227T108 318Q108 447 182 528T376
609Q596 609 596 400Q596 329 588 279T578 223Q624 356 697 482T860 693T1023 779Q1079 779 1102 755T1125 682H1102Q1097 726 1079 740T1023 755Q962 755 883 679T738 499T628 284T582 103Q582 0 616 -41T709 -82T819 -55V-78Q766 -103 704 -103Q475 -103 475
125Q475 173 483 221Q390 -1 275 -137T57 -273Q1 -273 -22 -249T-45 -176H-22Q-17 -220 1 -234T57 -249Q141 -249 246 -132T423 135T494 381Z" />
<glyph unicode="Y" glyph-name="Y" horiz-adv-x="713" d="M451 194T469 279T488 435T455 547T363 588Q278 588 206 524Q170 492 149 439T127 327T143 230T183 171Q232 128 268 120L285 117L278 98Q261 103 250 106T209 127T160 165T123 227T106 318Q106 447 180
528T374 609Q594 609 594 400Q594 294 576 240Q825 779 1021 779Q1077 779 1100 755T1123 682H1100Q1095 726 1077 740T1021 755Q959 755 887 690T750 522Q616 311 539 86Q477 -93 452 -168H318Q338 -124 372 -35T428 124Z" />
<glyph unicode="Z" glyph-name="Z" horiz-adv-x="728" d="M698 -45H719Q719 -203 554 -203Q502 -201 439 -172T327 -108T215 -46T100 -17Q79 -17 65 -23T48 -36L44 -42H21Q25 13 56 43T139 73Q181 73 214 63L224 60L557 397Q506 411 390 475T226 540T154 518V504Q154
450 189 422Q220 397 243 392L253 389L248 372Q240 374 234 376T218 382T200 391T182 404T164 421T148 442Q134 468 134 504Q134 570 173 606T285 643Q324 643 362 630T421 604T477 567T530 532T577 510T644 498T708 510T740 534L745 545L769 546Q769 508 759 476T712
416T617 389Q598 389 580 392L246 53Q291 36 358 -8T487 -81T609 -110T693 -87Q698 -65 698 -45Z" />
<glyph unicode="[" glyph-name="bracketleft" horiz-adv-x="284" d="M230 -143H48L188 636H371L369 618H306L171 -125H232L230 -143Z" />
<glyph unicode="\" glyph-name="backslash" horiz-adv-x="526" d="M156 667L507 -32L481 -42L130 657L156 667Z" />
<glyph unicode="]" glyph-name="bracketright" horiz-adv-x="284" d="M0 -143L2 -125H65L199 618H137L139 636H324L182 -143H0Z" />
<glyph unicode="^" glyph-name="asciicircum" horiz-adv-x="330" d="M195 418L44 249L22 266L185 446H212L308 260L283 248L195 418Z" />
<glyph unicode="_" glyph-name="underscore" horiz-adv-x="604" d="M486 -39H103L105 -21H488L486 -39Z" />
<glyph unicode="`" glyph-name="grave" horiz-adv-x="145" d="M59 574L112 468L86 458L33 564L59 574Z" />
<glyph unicode="a" glyph-name="a" horiz-adv-x="484" d="M412 -9Q324 -9 316 68Q272 -9 205 -9T99 31T59 145Q59 259 115 324T260 389Q333 389 357 320Q362 350 368 380Q442 380 478 386L491 389L422 11Q452 14 472 39L487 27Q457 -9 412 -9ZM172 49T183 32T219
14T268 40Q301 74 321 126Q324 139 332 188T347 270Q344 308 326 336T281 364Q232 364 202 277T172 94Q172 49 183 32Z" />
<glyph unicode="b" glyph-name="b" horiz-adv-x="461" d="M241 -9Q178 -9 149 33L65 -27H46L158 628Q128 625 108 600L93 612Q123 648 168 648T239 625T264 560Q264 552 262 534Q246 445 223 320Q265 388 332 388T435 350T471 244Q471 126 407 59T241 -9ZM234
18Q289 18 323 94T358 285Q358 331 349 348T314 365T263 335T224 279T212 248H210Q185 117 173 50Q190 18 234 18Z" />
<glyph unicode="c" glyph-name="c" horiz-adv-x="405" d="M279 230T279 260T300 311T351 333Q360 333 374 329Q355 364 303 364T211 298T171 102Q171 57 191 36T243 14T299 26T340 54T366 89Q386 122 386 131L404 123Q401 107 386 81T353 37T300 6T222 -9Q141
-9 100 29T58 135Q58 254 117 321T279 389Q348 389 385 354T422 262Q422 226 401 207T350 188T300 209Z" />
<glyph unicode="d" glyph-name="d" horiz-adv-x="481" d="M406 -9Q318 -9 310 66Q266 -9 198 -9T94 29T58 135Q58 253 114 321T259 389Q310 389 338 358Q350 342 353 334L407 628Q377 625 357 600L342 612Q372 648 417 648T488 625T513 560Q513 552 511 534Q462
259 416 11Q446 14 466 39L481 27Q451 -9 406 -9ZM171 48T180 31T210 14T250 28T282 64Q306 101 316 127L345 285Q343 317 324 343T259 370Q227 370 199 276T171 94Q171 48 180 31Z" />
<glyph unicode="e" glyph-name="e" horiz-adv-x="397" d="M275 389Q402 389 402 288Q402 225 343 193T173 159Q171 123 171 102Q171 57 191 36T243 14T299 26T340 54T366 89Q386 122 386 131L404 123Q401 107 386 81T353 37T300 6T222 -9Q141 -9 100 29T58 135Q58
254 117 321T275 389ZM377 321T358 342T300 364T225 318T176 182Q377 183 377 288Q377 321 358 342Z" />
<glyph unicode="f" glyph-name="f" horiz-adv-x="304" d="M294 648Q330 648 353 621T377 540T334 380H372L370 362H326Q292 277 292 233H274Q274 285 307 362H249Q219 205 172 -70H51L128 362H67L69 380H131L147 466Q163 565 196 606T294 648ZM358 542Q358 578
342 604T301 630Q291 591 252 380H314Q358 480 358 542Z" />
<glyph unicode="g" glyph-name="g" horiz-adv-x="465" d="M388 -109Q424 -109 450 -81L464 -93Q440 -127 388 -127Q366 -127 343 -122Q275 -184 169 -184Q106 -184 72 -163T37 -107T58 -52T135 -31T280 -76L311 90Q266 7 195 7Q59 7 59 141Q59 253 115 321T260
389Q311 389 339 358Q347 349 355 331L364 380Q438 380 472 386L485 389L419 20Q404 -58 359 -106Q372 -109 388 -109ZM172 64T181 49T215 33T266 60T303 110T323 156L344 271V278Q344 370 260 370Q228 370 200 283T172 110Q172 64 181 49ZM165 -164Q245 -164 273
-95L259 -88Q247 -82 245 -81T231 -74T215 -68T200 -62T182 -57T166 -53Q151 -50 122 -50T76 -64T58 -105T87 -148T165 -164Z" />
<glyph unicode="h" glyph-name="h" horiz-adv-x="487" d="M434 11Q458 11 484 39L499 27Q492 13 468 2T415 -9Q324 -9 324 73Q324 108 342 198T360 316Q360 359 319 359Q285 359 254 313T202 188L169 0H49L160 628Q130 625 110 600L95 612Q125 648 170 648T241
625T266 560Q266 552 264 534L222 297Q263 389 349 389Q408 389 441 356T474 263Q474 232 455 144T434 11Z" />
<glyph unicode="i" glyph-name="i" horiz-adv-x="242" d="M214 -9T169 -9T99 14T73 74Q73 87 89 183L122 362H80L82 380H125Q199 380 234 386L248 389L179 11Q209 14 229 39L244 27Q214 -9 169 -9ZM135 506T135 536T156 587T207 609T258 588T280 536T259 485T207
464T156 485Z" />
<glyph unicode="j" glyph-name="j" horiz-adv-x="229" d="M137 506T137 536T158 587T209 609T260 588T282 536T261 485T209 464T158 485ZM126 380Q200 380 236 386L249 389Q239 335 217 210T184 30Q165 -77 116 -130T-24 -184Q-54 -184 -70 -175L-63 -156Q-46
-165 -21 -165T19 -147T43 -75Q78 114 124 362H81L83 380H126Z" />
<glyph unicode="k" glyph-name="k" horiz-adv-x="470" d="M203 193L167 0H48L161 628Q131 625 111 600L96 612Q126 648 171 648T242 625T267 560Q267 552 265 534Q242 407 215 260Q240 321 287 355T387 389T461 368T483 316T464 264T415 244T368 261T351 313T375
366Q279 355 222 224Q236 226 246 226Q299 226 329 205T369 154T382 93T395 41T427 20T463 39L478 27Q471 13 447 2T386 -9T320 10T280 57T262 114Q243 186 203 193Z" />
<glyph unicode="l" glyph-name="l" horiz-adv-x="278" d="M229 19T207 5T148 -9T87 14T62 79Q62 87 64 105L129 465Q147 564 178 606T262 648Q298 648 321 621T345 539T303 382T260 233H242Q242 286 284 384T326 542Q326 578 310 604T269 630Q268 604 235 397T168
11Q196 11 220 40T254 98L265 128L283 120Q280 106 268 80T242 36Z" />
<glyph unicode="m" glyph-name="m" horiz-adv-x="745" d="M440 11Q464 11 490 39L505 27Q498 13 474 2T421 -9Q330 -9 330 73Q330 108 348 198T366 316Q366 359 325 359Q263 359 221 200L185 0H65L131 369Q101 366 81 341L66 353Q96 389 141 389T212 366T237 301V298Q276
389 355 389Q411 389 443 359T479 273Q498 328 527 358T611 389T699 356T732 263Q732 232 713 144T692 11Q716 11 742 39L757 27Q750 13 726 2T673 -9Q582 -9 582 73Q582 108 600 198T618 316Q618 359 577 359Q505 359 461 145Q442 54 440 11Z" />
<glyph unicode="n" glyph-name="n" horiz-adv-x="499" d="M446 11Q470 11 496 39L511 27Q504 13 480 2T427 -9Q336 -9 336 73Q336 108 354 198T372 316Q372 359 331 359Q298 359 268 316T217 198L183 11Q214 14 234 39L249 27Q219 -9 174 -9T104 14T78 74Q78 88
94 184L127 369Q97 366 77 341L62 353Q92 389 137 389T208 366T233 301V295Q274 389 361 389Q420 389 453 356T486 263Q486 232 467 144T446 11Z" />
<glyph unicode="o" glyph-name="o" horiz-adv-x="441" d="M139 -9T99 29T59 126T69 226T104 306T176 367T297 389T410 351T451 245Q451 131 391 61T216 -9Q139 -9 99 29ZM172 94Q172 14 218 14T301 94T338 286Q338 370 293 370T210 294T172 94Z" />
<glyph unicode="p" glyph-name="p" horiz-adv-x="479" d="M259 -8Q213 -8 186 13L156 -148H37L131 376Q101 373 81 348L66 360Q96 396 140 396T210 375T237 314Q281 389 349 389T453 351T489 245Q489 127 425 60T259 -8ZM193 53Q210 15 257 15T340 95T376 286Q376
332 367 349T332 366T281 336T242 280T230 249H229L193 53Z" />
<glyph unicode="q" glyph-name="q" horiz-adv-x="465" d="M353 329Q353 332 363 380Q437 380 472 386L486 389L385 -163Q415 -160 435 -135L450 -147Q420 -183 375 -183T304 -160T279 -95Q279 -77 303 55Q262 -9 196 -9T94 29T58 135Q58 253 114 321T259 389Q330
389 353 329ZM171 48T180 31T215 14T266 44T305 100T317 131L343 272V276Q343 338 304 360Q286 370 259 370Q227 370 199 276T171 94Q171 48 180 31Z" />
<glyph unicode="r" glyph-name="r" horiz-adv-x="392" d="M65 353Q95 389 140 389T211 366T236 301V295Q281 389 353 389Q430 389 430 309Q430 276 408 239T364 169T342 109H318Q318 146 361 209T404 306T391 353T351 366T299 343T256 285Q229 233 220 200V199L184
0H64L130 369Q100 366 80 341L65 353Z" />
<glyph unicode="s" glyph-name="s" horiz-adv-x="368" d="M153 17Q252 17 252 163Q252 199 242 248T229 309Q168 246 92 233V257Q164 273 227 339V343Q227 367 234 390T248 424L255 435H279Q279 391 293 355T324 296T355 237T369 156Q369 85 316 38T187 -9T74
25T35 103T57 167T109 187T158 168T178 118T159 66T110 45Q97 45 83 49Q105 17 153 17Z" />
<glyph unicode="t" glyph-name="t" horiz-adv-x="322" d="M121 380L148 528Q222 528 258 534L271 537Q257 467 240 380H364L362 362H237Q187 104 187 51Q187 19 221 19T283 62T323 155L341 149Q304 -9 188 -9Q140 -9 108 17T76 91T117 362H68L70 380H121Z" />
<glyph unicode="u" glyph-name="u" horiz-adv-x="499" d="M121 369Q97 369 71 341L56 353Q63 367 87 378T140 389Q231 389 231 307Q231 272 213 182T195 64Q195 21 236 21Q265 21 292 55T340 149L382 380Q456 380 490 386L503 389L436 11Q466 14 486 39L501 27Q471
-9 426 -9T356 13T330 75Q288 -9 206 -9Q147 -9 114 24T81 117Q81 148 100 236T121 369Z" />
<glyph unicode="v" glyph-name="v" horiz-adv-x="441" d="M300 286T300 316T321 367T368 389T413 376T440 341Q441 340 441 339V338Q453 312 453 263T442 172T407 89T338 19T232 -9T131 31T90 123T108 251T129 369Q113 368 98 358T76 337L69 327L54 339Q57 345
63 353T93 375T155 389T214 365T237 304T217 190T197 81T211 31T253 13Q320 13 375 86T430 249Q430 256 428 270Q407 244 375 244T321 265Z" />
<glyph unicode="w" glyph-name="w" horiz-adv-x="689" d="M547 286T547 316T568 367T615 389T660 376T687 341Q688 340 688 339V338Q700 312 700 267T694 189T672 121T633 57T572 10T486 -9Q406 -9 366 49Q318 -9 235 -9Q171 -9 131 31T90 123T108 251T129 369Q113
368 98 358T76 337L69 327L54 339Q57 345 63 353T93 375T155 389T214 365T237 304T217 190T197 81T211 31T253 13Q311 13 352 73Q341 101 341 138T359 251T380 369Q364 368 349 358T327 337L320 327L305 339Q308 345 314 353T344 375T406 389T465 365T488 304T468
190T448 81T462 31T504 13Q571 13 624 85T677 249Q677 256 675 270Q654 244 622 244T568 265Z" />
<glyph unicode="x" glyph-name="x" horiz-adv-x="474" d="M379 63Q391 32 417 32T462 66L478 57Q468 40 461 31T432 11T379 0Q291 0 261 74L223 166Q164 160 128 136H129Q159 136 180 115T201 64T180 13T129 -9T78 12T56 64Q56 113 101 147T214 189L159 326Q147
357 122 357T76 323L61 332Q71 349 78 358T107 378T160 389Q247 389 277 315L318 213Q380 219 415 244H414Q384 244 363 265T342 316T363 367T414 389T465 368T487 316Q487 265 440 231T327 190L379 63Z" />
<glyph unicode="y" glyph-name="y" horiz-adv-x="483" d="M121 369Q97 369 71 341L56 353Q63 367 87 378T140 389Q231 389 231 307Q231 272 212 193T193 85Q193 37 233 37Q266 37 297 82T349 203L382 380Q456 380 490 386L503 389L440 35Q422 -68 357 -126T187
-184Q124 -184 90 -163T55 -107T76 -52T135 -31T207 -43T255 -58L253 -76Q236 -74 204 -62T141 -50T93 -64T76 -104T105 -147T177 -164Q281 -164 305 -39L330 99Q288 7 203 7Q145 7 114 40T82 133Q82 164 100 244T121 369Z" />
<glyph unicode="z" glyph-name="z" horiz-adv-x="419" d="M119 370T102 353T85 313T98 266L80 259Q64 279 64 312T86 367T141 389T226 380T346 370T445 379L180 26Q233 10 296 9Q336 9 365 31T404 76L413 98L430 92Q421 56 389 24T294 -9T178 5T102 19T59 0H41L303
354Q251 356 210 363T144 370Z" />
<glyph unicode="{" glyph-name="braceleft" horiz-adv-x="291" d="M218 272Q236 254 236 219Q236 209 234 198L179 -123Q209 -120 229 -95L244 -107Q214 -143 169 -143T98 -120T73 -58T127 273Q97 270 77 245L62 257Q89 290 131 293L174 527Q183 581 217 608T298
636T375 600L360 588Q340 613 310 616L262 337Q259 314 248 298T228 276L218 272Z" />
<glyph unicode="|" glyph-name="bar" horiz-adv-x="180" d="M53 -123L184 616H214L83 -123H53Z" />
<glyph unicode="}" glyph-name="braceright" horiz-adv-x="292" d="M160 221Q142 239 142 274Q142 284 144 295L199 616Q169 613 149 588L134 600Q164 636 209 636T280 613T305 551T251 220Q281 223 301 248L316 236Q289 203 247 200L204 -34Q195 -88 161 -115T80
-143T3 -107L18 -95Q38 -120 68 -123L116 156Q119 179 130 195T150 216L160 221Z" />
<glyph unicode="~" glyph-name="asciitilde" horiz-adv-x="496" d="M218 389T248 389T295 378T319 351T332 319Q345 281 381 281T448 308T492 362L504 389H530Q528 384 525 375T508 343T480 303T437 271T376 256T325 273T303 310T285 348T242 365T183 339T138
286T124 259H93Q126 341 191 375Q218 389 248 389Z" />
<glyph unicode="&#xa1;" glyph-name="exclamdown" horiz-adv-x="202" d="M227 427T227 406T213 370T177 355T141 370T126 406T141 441T177 456T212 442ZM171 323L84 -166L55 -162L144 326L171 323Z" />
<glyph unicode="&#xa2;" glyph-name="cent" horiz-adv-x="411" d="M280 230T280 260T301 311T352 333Q361 333 375 329Q356 364 304 364T212 298T172 102Q172 57 192 36T244 14T300 26T341 54T367 89Q387 122 387 131L405 123Q402 107 389 83T360 43T313 11T244
-8L217 -162H187L214 -9Q138 -7 99 31T59 135Q59 254 118 321T280 389H285L318 577H348L314 386Q367 377 395 344T423 269T402 207T351 188T301 209Z" />
<glyph unicode="&#xa3;" glyph-name="sterling" horiz-adv-x="773" d="M702 666T758 615T815 454H791Q791 543 749 589T641 636Q522 636 500 488Q500 463 457 229H730L728 211H454Q448 176 429 78Q408 -39 317 -103Q371 -157 397 -165Q407 -168 424 -174Q453 -183
497 -183T575 -166T627 -127T662 -76Q681 -43 690 -10L714 -18Q688 -103 632 -153T500 -203Q441 -203 419 -195T386 -184T360 -169T340 -154Q332 -148 299 -115Q235 -153 161 -153T48 -130T9 -71T37 -14T123 8Q201 8 263 -50Q275 -13 283 32L314 211H175L177 229H317L350
419Q374 569 454 621Q524 666 613 666ZM223 -42T194 -27T124 -11T58 -26T33 -70T65 -116T142 -134T220 -126Q240 -108 255 -72Q223 -42 194 -27Z" />
<glyph unicode="&#xa4;" glyph-name="currency" horiz-adv-x="706" d="M157 195Q157 242 164 281H77L79 299H168Q200 439 310 524T581 609Q669 609 708 578T747 479Q747 434 703 368Q663 304 663 268H641Q641 288 649 311T663 344T685 380Q724 439 724 477Q724
557 658 578Q627 588 593 588T521 584Q337 528 290 299H532L530 281H287Q280 244 277 195H512L510 177H276Q275 163 275 136Q275 -14 372 -62Q396 -65 435 -65T519 -50T587 -13Q638 34 650 68L656 83L676 75Q669 52 649 22T604 -29T530 -67T422 -85Q300 -85 231
-17T157 177H57L59 195H157Z" />
<glyph unicode="&#xa5;" glyph-name="yen" horiz-adv-x="1012" d="M97 318Q97 447 171 528T365 609Q585 609 585 400Q585 294 567 240Q816 779 1012 779Q1065 779 1089 756T1116 682H1091Q1086 725 1067 739T1011 754Q957 754 897 704T778 568Q670 405 576 194H758L756
176H568Q541 115 530 86L529 85H738L736 67H522Q481 -35 464 -97T443 -168H309Q356 -63 401 67Q285 71 196 126Q150 154 124 203T97 318ZM440 194Q479 331 479 418T446 547T354 588Q269 588 196 524Q161 492 140 439T118 320T145 208T216 136Q303 85 407 85Q417
114 435 176H273L275 194H440Z" />
<glyph unicode="&#xa6;" glyph-name="brokenbar" horiz-adv-x="189" d="M58 -123L114 195H144L88 -123H58ZM219 616L167 322H137L189 616H219Z" />
<glyph unicode="&#xa7;" glyph-name="section" horiz-adv-x="462" d="M221 -67Q320 -67 320 79Q320 101 316 131Q269 106 205 106T105 139T69 222Q69 246 77 265T94 293L102 301L117 290Q91 261 91 222T118 158T187 132Q286 132 286 278Q286 317 271 367T256 457T281
523T352 550L382 547V519Q379 517 371 518T354 520T330 509T313 471T327 420T358 378T389 332T403 271T391 212Q406 187 414 172Q437 131 437 66T382 -46T250 -93T139 -60T103 23Q103 47 111 66T128 94L136 102L151 91Q125 62 125 23T152 -41T221 -67Z" />
<glyph unicode="&#xa8;" glyph-name="dieresis" horiz-adv-x="475" d="M292 531T276 547T259 588T276 630T317 648T358 631T376 589T359 548T317 531ZM132 531T116 547T99 588T116 630T157 648T198 631T216 589T199 548T157 531Z" />
<glyph unicode="&#xa9;" glyph-name="copyright" horiz-adv-x="682" d="M329 -1Q215 -1 150 59T85 222Q85 262 94 297Q122 431 223 513T458 596Q571 596 636 536T702 373Q702 334 694 299Q666 164 565 82T329 -1ZM673 460T615 515T444 571T241 496T123 299Q116
264 116 230Q116 134 175 79T343 23T544 100T666 297Q673 328 673 366Q673 460 615 515ZM545 417Q512 481 439 481T314 427Q242 349 242 249Q242 190 272 153T357 115Q444 115 499 179L515 163Q451 90 352 90Q284 90 248 134T211 245Q211 271 218 298Q236 384 295
444T445 504T571 432L545 417Z" />
<glyph unicode="&#xaa;" glyph-name="ordfeminine" horiz-adv-x="377" d="M365 376Q304 376 299 428Q269 376 224 376T151 403T123 482Q123 560 161 604T255 649T327 601L335 643Q382 643 420 649L372 390Q393 391 407 409L417 401Q397 376 365 376ZM232 392Q258
392 277 421T303 471L321 566Q319 593 307 612T275 632Q242 632 222 572T201 452T232 392Z" />
<glyph unicode="&#xab;" glyph-name="guillemotleft" horiz-adv-x="430" d="M215 72Q215 134 67 193L72 219Q98 227 155 252Q265 300 275 350H296Q290 317 251 286Q189 236 90 205Q200 162 228 109Q237 93 237 82T235 62H214Q215 67 215 72ZM363 72Q363 134 215
193L220 219Q246 227 303 252Q413 300 423 350H444Q438 317 399 286Q337 236 238 205Q348 162 376 109Q385 93 385 82T383 62H362Q363 67 363 72Z" />
<glyph unicode="&#xac;" glyph-name="logicalnot" horiz-adv-x="646" d="M625 211L578 -71H551L595 184H93L97 211H625Z" />
<glyph unicode="&#xad;" glyph-name="uni00AD" horiz-adv-x="317" d="M293 184H90L92 202H295L293 184Z" />
<glyph unicode="&#xae;" glyph-name="registered" horiz-adv-x="682" d="M573 411Q573 399 570 385Q562 345 529 312T446 269Q454 242 469 186T493 105H462L415 267H283L250 105H222Q236 172 264 303T306 501H466Q526 501 554 467Q573 443 573 411ZM461 477H329L289
289H423Q470 289 501 316Q544 353 544 413Q544 431 529 450Q508 477 461 477ZM329 -1Q215 -1 150 59T85 222Q85 262 94 297Q122 431 223 513T458 596Q571 596 636 536T702 373Q702 334 694 299Q666 164 565 82T329 -1ZM673 460T615 515T444 571T241 496T123 299Q116
264 116 230Q116 134 175 79T343 23T544 100T666 297Q673 328 673 366Q673 460 615 515Z" />
<glyph unicode="&#xb0;" glyph-name="degree" horiz-adv-x="339" d="M122 476Q122 548 159 596T283 645Q337 645 365 618T393 544Q393 466 351 418T231 370Q122 370 122 476ZM232 390Q298 390 334 429T371 542Q371 582 348 604T283 626Q220 626 183 590T146 478Q146
390 232 390Z" />
<glyph unicode="&#xb1;" glyph-name="plusminus" horiz-adv-x="486" d="M473 228H293L268 95H238L263 228H90L94 253H267L291 389H321L297 253H477L473 228ZM441 20H58L62 45H445L441 20Z" />
<glyph unicode="&#xb2;" glyph-name="twosuperior" horiz-adv-x="313" d="M266 491T280 512T294 563T280 608T246 625T206 611T177 582T167 565L156 572Q201 650 288 650Q362 650 362 586Q362 548 329 519T205 435L139 394H309L343 473L354 469L318 380H111L107
392Q128 405 217 460Q266 491 280 512Z" />
<glyph unicode="&#xb3;" glyph-name="threesuperior" horiz-adv-x="292" d="M163 269Q86 269 86 333L100 332Q100 283 163 283Q216 283 258 317T301 399Q301 432 282 448T229 465L200 462L196 476Q243 492 260 506Q289 528 289 576Q289 601 275 613T245 626Q243
626 235 626T209 614Q184 596 175 579L163 585Q206 650 285 650Q316 650 333 635T351 588T318 526T240 478Q273 476 292 460Q318 440 318 400Q318 343 270 306T163 269Z" />
<glyph unicode="&#xb4;" glyph-name="acute" horiz-adv-x="145" d="M33 468L86 574L112 564L59 458L33 468Z" />
<glyph unicode="&#xb5;" glyph-name="mu" horiz-adv-x="551" d="M154 369Q130 369 104 341L89 353Q96 367 120 378T173 389Q264 389 264 307Q264 273 246 186T227 66Q227 21 269 21Q298 21 325 55T373 149L415 380Q489 380 523 386L536 389L469 11Q499 14 519
39L534 27Q504 -9 459 -9T389 13T363 75Q321 -9 239 -9Q220 -9 208 -2L193 -90H72Q88 -4 103 77T126 199T141 276Q152 333 154 369Z" />
<glyph unicode="&#xb6;" glyph-name="paragraph" horiz-adv-x="565" d="M563 589L524 590H514Q472 299 436 109Q415 1 346 -48T165 -108V-87Q255 -87 326 -37T417 125L419 137Q388 134 359 134Q255 134 182 174Q87 224 87 340T197 533T496 609Q498 627 507 678L510
694L530 690L527 674Q518 625 516 609H524Q578 609 636 602V582L583 588Q577 538 551 371T502 85T399 -96T228 -158V-139Q351 -133 425 -44Q466 5 480 75Q532 350 563 589Z" />
<glyph unicode="&#xb7;" glyph-name="middot" horiz-adv-x="243" d="M90 208T90 238T111 289T162 311T213 290T235 238T214 187T162 166T111 187Z" />
<glyph unicode="&#xb8;" glyph-name="cedilla" horiz-adv-x="274" d="M137 -184Q44 -184 44 -116Q44 -83 68 -64T142 -44L151 2H169L158 -63H142Q107 -63 87 -77T66 -117Q66 -165 138 -165Q161 -165 181 -159T211 -146L220 -139L230 -156Q201 -184 137 -184Z" />
<glyph unicode="&#xb9;" glyph-name="onesuperior" horiz-adv-x="204" d="M291 649L195 380H114L191 615L142 605L138 618L291 649Z" />
<glyph unicode="&#xba;" glyph-name="ordmasculine" horiz-adv-x="337" d="M123 475Q123 649 284 649Q337 649 364 623T392 550Q392 472 351 424T231 376Q178 376 151 402T123 475ZM232 392Q265 392 290 447T315 579Q315 636 284 636T227 584T201 447Q201 392 232 392Z" />
<glyph unicode="&#xbb;" glyph-name="guillemotright" horiz-adv-x="430" d="M288 340Q288 278 436 219L431 193Q405 185 348 160Q238 112 228 62H207Q213 95 252 126Q314 176 413 207Q303 250 274 303Q266 319 266 330T268 350H289Q288 345 288 340ZM140 340Q140
278 288 219L283 193Q257 185 200 160Q90 112 80 62H59Q65 95 104 126Q166 176 265 207Q155 250 126 303Q118 319 118 330T120 350H141Q140 345 140 340Z" />
<glyph unicode="&#xbc;" glyph-name="onequarter" horiz-adv-x="581" d="M250 -6V11L575 282L498 65H553V-6H473L427 -134L405 -133L449 -6H250ZM197 380H109L186 618L139 608L133 627L298 661L197 380ZM118 -34L473 671L492 663L138 -42L118 -34ZM346 65H475L530
220L346 65Z" />
<glyph unicode="&#xbd;" glyph-name="onehalf" horiz-adv-x="563" d="M119 -34L472 671Q488 667 494 664L139 -42L119 -34ZM198 380H110L187 618L140 608L134 627L299 661L198 380ZM560 206Q560 166 526 136T399 50L343 14H501L536 96L553 89L514 -6H299L294 11L407
81Q454 112 469 134T485 184T471 227T438 243T400 228T372 198T362 180L343 191Q390 274 482 274Q560 274 560 206Z" />
<glyph unicode="&#xbe;" glyph-name="threequarters" horiz-adv-x="675" d="M566 671L587 664L233 -42L212 -34L566 671ZM344 -6V11L670 282L592 65H647V-6H567L521 -134L500 -133L544 -6H344ZM625 220L441 65H569Q582 103 625 220ZM162 267Q81 267 81 338L102
337Q102 288 158 288T257 321T300 402Q300 434 281 450T238 466T198 462L192 483Q244 500 265 518T287 572T274 618T253 630T243 630Q227 630 206 614T176 581L158 590Q205 661 286 661Q357 661 357 596Q357 563 327 534T253 485Q275 481 296 466Q323 444 323 403Q323
344 273 306T162 267Z" />
<glyph unicode="&#xbf;" glyph-name="questiondown" horiz-adv-x="461" d="M74 -4Q74 -62 108 -96T218 -130T347 -78T417 49H446Q429 -39 364 -98T215 -158T88 -118T45 -12Q45 12 51 36Q64 88 94 126T186 218T279 333L303 321Q272 255 188 187T78 34Q74 17 74
-4ZM362 427T362 406T348 370T312 355T276 370T261 406T276 441T312 456T347 442Z" />
<glyph unicode="&#xc0;" glyph-name="Agrave" horiz-adv-x="1149" d="M1043 -41Q1069 -41 1093 -13L1108 -25Q1105 -29 1100 -35T1076 -51T1033 -61Q921 -61 921 36Q921 66 928 125Q880 110 842 110Q775 110 708 151Q669 84 635 37T556 -56Q463 -147 332 -147T122
-63Q53 14 53 124T124 321T308 407T480 340Q494 322 500 313Q554 290 623 237Q675 195 700 179Q714 205 738 249T776 316T815 381T857 444T901 498T952 547Q1021 596 1068 604Q1094 608 1112 608T1152 608T1214 596L1209 577Q1185 584 1158 587Q1058 194 1043 -41ZM532
197Q532 123 490 66T375 9Q328 9 299 37T269 95T278 144T298 174T324 190Q343 200 354 200L356 180Q331 180 310 156T289 102T312 51T375 29Q439 29 476 79T513 190T488 296Q433 317 379 317Q275 317 232 220L213 226Q224 251 248 280Q295 337 379 337Q424 337
468 324L466 327Q411 387 308 387T139 307T73 124T137 -49Q209 -127 338 -127Q456 -127 544 -38Q588 5 620 51T691 162Q657 184 609 222T515 284Q532 242 532 197ZM718 168Q782 130 835 130T931 147Q955 316 1021 567Q941 529 874 432Q825 362 756 237L718 168ZM1050
764L1103 658L1077 648L1024 754L1050 764Z" />
<glyph unicode="&#xc1;" glyph-name="Aacute" horiz-adv-x="1149" d="M1214 596L1209 577Q1185 584 1158 587Q1058 194 1043 -41Q1072 -41 1093 -13L1108 -25L1100 -34Q1093 -43 1075 -52T1033 -61Q921 -61 921 36Q921 66 928 125Q880 110 842 110Q775 110 708
151Q669 84 635 37T556 -56Q463 -147 338 -147Q200 -147 122 -63Q53 14 53 124T124 321T308 407T480 340Q494 322 500 313Q554 290 623 237Q675 195 700 179Q707 192 720 216T757 283T815 381Q841 423 857 444T901 498T951 547T1006 581T1066 603T1132 608T1214
596ZM532 197Q532 123 490 66T375 9Q328 9 299 37T269 106T298 174Q310 184 326 192T354 200L356 180Q331 180 306 152Q289 132 289 102T312 51T375 29Q439 29 476 79T513 190T488 296Q433 317 379 317Q307 317 263 269Q249 254 232 220L213 226L222 244Q224 249
239 270T271 303T316 326T385 337T468 324L466 327Q411 387 308 387T139 307T73 124T137 -49Q209 -127 332 -127T544 -38Q588 5 620 51T691 162Q657 184 609 222T515 284Q532 242 532 197ZM931 147Q955 316 1021 567Q981 548 945 516T867 423T756 237L718 168Q782
130 835 130T931 147ZM1085 658L1138 764L1164 754L1111 648L1085 658Z" />
<glyph unicode="&#xc2;" glyph-name="Acircumflex" horiz-adv-x="1149" d="M1043 -41Q1069 -41 1093 -13L1108 -25Q1105 -29 1100 -35T1076 -51T1033 -61Q921 -61 921 36Q921 66 928 125Q880 110 842 110Q775 110 708 151Q669 84 635 37T556 -56Q463 -147 332
-147T122 -63Q53 14 53 124T124 321T308 407T480 340Q494 322 500 313Q554 290 623 237Q675 195 700 179Q714 205 738 249T776 316T815 381T857 444T901 498T952 547Q1021 596 1068 604Q1094 608 1112 608T1152 608T1214 596L1209 577Q1185 584 1158 587Q1058 194
1043 -41ZM532 197Q532 123 490 66T375 9Q328 9 299 37T269 95T278 144T298 174T324 190Q343 200 354 200L356 180Q331 180 310 156T289 102T312 51T375 29Q439 29 476 79T513 190T488 296Q433 317 379 317Q275 317 232 220L213 226Q224 251 248 280Q295 337 379
337Q424 337 468 324L466 327Q411 387 308 387T139 307T73 124T137 -49Q209 -127 338 -127Q456 -127 544 -38Q588 5 620 51T691 162Q657 184 609 222T515 284Q532 242 532 197ZM718 168Q782 130 835 130T931 147Q955 316 1021 567Q941 529 874 432Q825 362 756
237L718 168ZM1120 818L969 649L947 666L1110 846H1137L1233 660L1208 648L1120 818Z" />
<glyph unicode="&#xc3;" glyph-name="Atilde" horiz-adv-x="1149" d="M1214 596L1209 577Q1185 584 1158 587Q1058 194 1043 -41Q1072 -41 1093 -13L1108 -25L1100 -34Q1093 -43 1075 -52T1033 -61Q921 -61 921 36Q921 66 928 125Q880 110 842 110Q775 110 708
151Q669 84 635 37T556 -56Q463 -147 338 -147Q200 -147 122 -63Q53 14 53 124T124 321T308 407T480 340Q494 322 500 313Q554 290 623 237Q675 195 700 179Q707 192 720 216T757 283T815 381Q841 423 857 444T901 498T951 547T1006 581T1066 603T1132 608T1214
596ZM532 197Q532 123 490 66T375 9Q328 9 299 37T269 106T298 174Q310 184 326 192T354 200L356 180Q331 180 306 152Q289 132 289 102T312 51T375 29Q439 29 476 79T513 190T488 296Q433 317 379 317Q307 317 263 269Q249 254 232 220L213 226L222 244Q224 249
239 270T271 303T316 326T385 337T468 324L466 327Q411 387 308 387T139 307T73 124T137 -49Q209 -127 332 -127T544 -38Q588 5 620 51T691 162Q657 184 609 222T515 284Q532 242 532 197ZM931 147Q955 316 1021 567Q981 548 945 516T867 423T756 237L718 168Q782
130 835 130T931 147ZM968 781T998 781T1045 770T1069 743T1082 711Q1095 673 1131 673T1198 700T1242 754L1254 781H1280Q1278 776 1275 767T1258 735T1230 695T1187 663T1126 648T1075 665T1053 702T1035 740T992 757T933 731T888 678T874 651H843Q876 733 941
767Q968 781 998 781Z" />
<glyph unicode="&#xc4;" glyph-name="Adieresis" horiz-adv-x="1149" d="M1043 -41Q1069 -41 1093 -13L1108 -25Q1105 -29 1100 -35T1076 -51T1033 -61Q921 -61 921 36Q921 66 928 125Q880 110 842 110Q775 110 708 151Q669 84 635 37T556 -56Q463 -147 332 -147T122
-63Q53 14 53 124T124 321T308 407T480 340Q494 322 500 313Q554 290 623 237Q675 195 700 179Q714 205 738 249T776 316T815 381T857 444T901 498T952 547Q1021 596 1068 604Q1094 608 1112 608T1152 608T1214 596L1209 577Q1185 584 1158 587Q1058 194 1043 -41ZM532
197Q532 123 490 66T375 9Q328 9 299 37T269 95T278 144T298 174T324 190Q343 200 354 200L356 180Q331 180 310 156T289 102T312 51T375 29Q439 29 476 79T513 190T488 296Q433 317 379 317Q275 317 232 220L213 226Q224 251 248 280Q295 337 379 337Q424 337
468 324L466 327Q411 387 308 387T139 307T73 124T137 -49Q209 -127 338 -127Q456 -127 544 -38Q588 5 620 51T691 162Q657 184 609 222T515 284Q532 242 532 197ZM718 168Q782 130 835 130T931 147Q955 316 1021 567Q941 529 874 432Q825 362 756 237L718 168ZM1142
648T1126 664T1109 705T1126 747T1167 765T1208 748T1226 706T1209 665T1167 648ZM982 648T966 664T949 705T966 747T1007 765T1048 748T1066 706T1049 665T1007 648Z" />
<glyph unicode="&#xc5;" glyph-name="Aring" horiz-adv-x="1149" d="M1043 -41Q1069 -41 1093 -13L1108 -25Q1105 -29 1100 -35T1076 -51T1033 -61Q921 -61 921 36Q921 66 928 125Q880 110 842 110Q775 110 708 151Q669 84 635 37T556 -56Q463 -147 332 -147T122
-63Q53 14 53 124T124 321T308 407T480 340Q494 322 500 313Q554 290 623 237Q675 195 700 179Q714 205 738 249T776 316T815 381T857 444T901 498T952 547Q1021 596 1068 604Q1094 608 1112 608T1152 608T1214 596L1209 577Q1185 584 1158 587Q1058 194 1043 -41ZM532
197Q532 123 490 66T375 9Q328 9 299 37T269 95T278 144T298 174T324 190Q343 200 354 200L356 180Q331 180 310 156T289 102T312 51T375 29Q439 29 476 79T513 190T488 296Q433 317 379 317Q275 317 232 220L213 226Q224 251 248 280Q295 337 379 337Q424 337
468 324L466 327Q411 387 308 387T139 307T73 124T137 -49Q209 -127 338 -127Q456 -127 544 -38Q588 5 620 51T691 162Q657 184 609 222T515 284Q532 242 532 197ZM718 168Q782 130 835 130T931 147Q955 316 1021 567Q941 529 874 432Q825 362 756 237L718 168ZM1119
648T1099 648T1064 662T1049 697T1064 731T1099 746T1133 732T1148 697T1134 663ZM1130 710T1121 719T1100 728T1078 719T1069 698T1078 676T1099 667T1121 676T1130 697Z" />
<glyph unicode="&#xc6;" glyph-name="AE" horiz-adv-x="1417" d="M1051 -41Q1110 -41 1200 -13T1365 20L1362 0Q1298 -3 1203 -32T1033 -61Q921 -61 921 36Q921 66 928 125Q887 110 842 110Q775 110 708 151Q669 84 635 37T556 -56Q463 -147 332 -147T122 -63Q53
14 53 124T124 321T308 407T480 340Q494 322 500 313Q554 290 623 237Q675 195 700 179Q714 205 739 251T781 324T824 396T873 465T924 522T984 570Q1053 609 1125 609Q1152 609 1207 600T1303 590Q1408 590 1453 610Q1459 646 1459 665H1482Q1482 608 1440 505T1397
356H1375Q1375 403 1409 487T1448 589Q1404 572 1303 572Q1238 572 1203 579T1159 588Q1120 446 1085 256H1405L1403 238H1082Q1056 96 1043 -41Q1047 -41 1051 -41ZM532 197Q532 123 490 66T375 9Q328 9 299 37T269 95T278 144T298 174T324 190Q343 200 354 200L356
180Q331 180 310 156T289 102T312 51T375 29Q439 29 476 79T513 190T488 296Q433 317 379 317Q275 317 232 220L213 226Q224 251 248 280Q295 337 379 337Q424 337 468 324L466 327Q411 387 308 387T139 307T73 124T137 -49Q209 -127 338 -127Q456 -127 544 -38Q588
5 620 51T691 162Q657 184 609 222T515 284Q532 242 532 197ZM844 128Q880 128 930 146Q951 298 1021 567Q986 550 951 518T894 460T840 382Q799 317 756 237L718 168Q785 128 844 128Z" />
<glyph unicode="&#xc7;" glyph-name="Ccedilla" horiz-adv-x="644" d="M210 136Q210 -14 307 -62Q331 -65 370 -65T454 -50T522 -13Q573 34 586 68L591 83L611 75Q592 17 543 -24Q519 -45 475 -63T375 -84L371 -128H357Q292 -128 292 -173Q292 -195 306 -204T348
-213Q395 -213 418 -196L426 -190L435 -208Q409 -233 352 -233Q269 -233 269 -173Q269 -144 291 -126T354 -108L356 -85Q230 -84 161 -12T92 194Q92 375 209 492T516 609Q604 609 643 578T682 479Q682 434 638 368Q598 304 598 268H576Q576 288 584 311T598 344T620
380Q659 439 659 477Q659 557 593 578Q562 588 529 588T455 584Q410 570 372 543T294 467T233 332T210 136Z" />
<glyph unicode="&#xc8;" glyph-name="Egrave" horiz-adv-x="563" d="M273 306Q325 323 394 323T463 283Q463 259 437 244T362 228Q285 228 238 265Q220 246 210 233T188 183T175 94T219 4T310 -35T399 -17T464 25T506 78Q531 115 539 143L559 138Q559 135 552
117T524 70T476 13T399 -35T292 -55Q185 -55 125 -10T65 109T110 225T218 285Q173 340 173 415T233 550T408 609Q495 609 541 579T588 503T565 410T538 334H517Q520 364 543 411T567 498T525 565T417 591T305 541T259 386Q259 330 273 306ZM293 270T313 258T368
246T422 256T443 281Q443 305 389 305T281 289Q283 284 288 277ZM376 764L429 658L403 648L350 754L376 764Z" />
<glyph unicode="&#xc9;" glyph-name="Eacute" horiz-adv-x="563" d="M259 386Q259 324 273 306Q325 323 394 323T463 283Q463 259 437 244T362 228Q285 228 238 265Q220 246 210 233T188 183T175 94T219 4T310 -35T399 -17T464 25T509 82T539 143L559 138Q559
135 552 117T524 70T476 13T399 -35T292 -55Q185 -55 125 -10T65 109T110 225T218 285Q173 340 173 415T233 550T408 609Q495 609 541 579T588 503T565 410T538 334H517Q520 364 543 411T567 498T525 565T417 591T305 541T259 386ZM402 246T422 256T443 281Q443
305 389 305T281 289L288 278Q294 268 314 257T368 246ZM408 658L461 764L487 754L434 648L408 658Z" />
<glyph unicode="&#xca;" glyph-name="Ecircumflex" horiz-adv-x="563" d="M273 306Q325 323 394 323T463 283Q463 259 437 244T362 228Q285 228 238 265Q220 246 210 233T188 183T175 94T219 4T310 -35T399 -17T464 25T506 78Q531 115 539 143L559 138Q559 135
552 117T524 70T476 13T399 -35T292 -55Q185 -55 125 -10T65 109T110 225T218 285Q173 340 173 415T233 550T408 609Q495 609 541 579T588 503T565 410T538 334H517Q520 364 543 411T567 498T525 565T417 591T305 541T259 386Q259 330 273 306ZM293 270T313 258T368
246T422 256T443 281Q443 305 389 305T281 289Q283 284 288 277ZM447 818L296 649L274 666L437 846H464L560 660L535 648L447 818Z" />
<glyph unicode="&#xcb;" glyph-name="Edieresis" horiz-adv-x="563" d="M259 386Q259 324 273 306Q325 323 394 323T463 283Q463 259 437 244T362 228Q285 228 238 265Q220 246 210 233T188 183T175 94T219 4T310 -35T399 -17T464 25T509 82T539 143L559 138Q559
135 552 117T524 70T476 13T399 -35T292 -55Q185 -55 125 -10T65 109T110 225T218 285Q173 340 173 415T233 550T408 609Q495 609 541 579T588 503T565 410T538 334H517Q520 364 543 411T567 498T525 565T417 591T305 541T259 386ZM402 246T422 256T443 281Q443
305 389 305T281 289L288 278Q294 268 314 257T368 246ZM464 648T448 664T431 705T448 747T489 765T530 748T548 706T531 665T489 648ZM304 648T288 664T271 705T288 747T329 765T370 748T388 706T371 665T329 648Z" />
<glyph unicode="&#xcc;" glyph-name="Igrave" horiz-adv-x="611" d="M303 588Q208 588 161 536T113 369H90Q90 609 297 609Q364 609 486 558T672 507V484Q646 484 613 491Q606 489 589 469T556 422Q514 346 482 228H590L588 210H477Q470 187 461 147Q420 -32 375
-108T241 -185Q188 -185 168 -173L178 -152Q192 -166 247 -166Q254 -166 270 -164L341 144Q344 157 350 181T357 210H248L250 228H361Q400 375 438 442T529 517Q517 522 476 540T416 565Q355 588 303 588ZM533 764L586 658L560 648L507 754L533 764Z" />
<glyph unicode="&#xcd;" glyph-name="Iacute" horiz-adv-x="611" d="M247 -166Q254 -166 270 -164L341 144Q344 157 350 181T357 210H248L250 228H361Q400 375 438 442T529 517Q517 522 476 540T416 565Q355 588 303 588Q208 588 161 536T113 369H90Q90 609 297
609Q364 609 486 558T672 507V484Q646 484 613 491L606 486Q591 477 557 422Q517 358 482 228H590L588 210H477Q470 187 461 147Q420 -32 375 -108T241 -185Q182 -185 168 -173L178 -152Q198 -166 247 -166ZM579 658L632 764L658 754L605 648L579 658Z" />
<glyph unicode="&#xce;" glyph-name="Icircumflex" horiz-adv-x="611" d="M303 588Q208 588 161 536T113 369H90Q90 609 297 609Q364 609 486 558T672 507V484Q646 484 613 491Q606 489 589 469T556 422Q514 346 482 228H590L588 210H477Q470 187 461 147Q420
-32 375 -108T241 -185Q188 -185 168 -173L178 -152Q192 -166 247 -166Q254 -166 270 -164L341 144Q344 157 350 181T357 210H248L250 228H361Q400 375 438 442T529 517Q517 522 476 540T416 565Q355 588 303 588ZM596 818L445 649L423 666L586 846H613L709 660L684
648L596 818Z" />
<glyph unicode="&#xcf;" glyph-name="Idieresis" horiz-adv-x="611" d="M247 -166Q254 -166 270 -164L341 144Q344 157 350 181T357 210H248L250 228H361Q400 375 438 442T529 517Q517 522 476 540T416 565Q355 588 303 588Q208 588 161 536T113 369H90Q90 609
297 609Q364 609 486 558T672 507V484Q646 484 613 491L606 486Q591 477 557 422Q517 358 482 228H590L588 210H477Q470 187 461 147Q420 -32 375 -108T241 -185Q182 -185 168 -173L178 -152Q198 -166 247 -166ZM617 648T601 664T584 705T601 747T642 765T683 748T701
706T684 665T642 648ZM457 648T441 664T424 705T441 747T482 765T523 748T541 706T524 665T482 648Z" />
<glyph unicode="&#xd0;" glyph-name="Eth" horiz-adv-x="970" d="M388 281T339 226T229 170T137 206T105 293Q105 371 149 439T285 552Q219 608 111 626L115 645Q236 623 304 560Q425 609 599 609T874 530T974 308Q974 163 876 52Q829 -3 750 -36T587 -69T445
-53Q376 -102 298 -102V-83Q337 -82 354 -73T385 -32Q333 -9 294 26T242 84T228 110L246 117Q246 113 258 93T307 40T392 -15Q406 20 415 72L434 184H352L354 202H437L504 586Q400 578 320 545Q388 473 388 377ZM570 -51Q665 -51 741 -20T862 64Q955 170 955 301T869
507T629 589Q584 292 568 202H737L735 184H565Q561 165 552 113Q534 21 464 -39Q517 -51 570 -51ZM124 293Q124 252 150 221T229 189T322 235T368 352Q369 365 369 378Q369 468 300 537Q210 496 167 432T124 293Z" />
<glyph unicode="&#xd1;" glyph-name="Ntilde" horiz-adv-x="1287" d="M1177 -112Q1243 -112 1267 -39H1289Q1288 -43 1287 -50T1275 -75T1250 -107T1205 -132T1135 -143Q1051 -143 999 -102T911 24L772 393L671 209Q562 5 467 -77T243 -159Q140 -159 72 -86Q19
-27 19 59Q19 74 21 90L40 87Q39 74 39 61Q39 -18 86 -72Q145 -139 243 -139Q365 -139 457 -59T655 219L825 529Q722 531 630 560T462 590T336 538T285 403H266Q266 494 322 552T466 610Q536 610 636 580T852 549L1012 114Q1092 241 1142 331T1223 468T1278 540Q1333
596 1403 596V576Q1364 576 1332 556T1264 487T1199 389T1118 251T1021 91Q1050 20 1071 -22T1116 -88T1177 -112ZM1028 741T1058 741T1105 730T1129 703T1142 671Q1155 633 1191 633T1258 660T1302 714L1314 741H1340Q1338 736 1335 727T1318 695T1290 655T1247
623T1186 608T1135 625T1113 662T1095 700T1052 717T993 691T948 638T934 611H903Q936 693 1001 727Q1028 741 1058 741Z" />
<glyph unicode="&#xd2;" glyph-name="Ograve" horiz-adv-x="748" d="M200 26T252 -26T372 -78Q463 -78 545 -18T675 134T722 322T679 472T557 527Q462 527 408 461T354 306Q354 267 366 238T393 195T427 172Q452 160 470 160L469 140Q452 140 426 152T381 180T349
229T334 306Q334 403 393 474T557 546Q644 546 693 486T742 319Q742 244 713 169T633 33T507 -65T346 -103Q225 -103 157 -30T89 174Q89 353 203 478T487 610L488 590Q423 588 372 558T289 481T236 372Q200 263 200 145ZM521 764L574 658L548 648L495 754L521 764Z"
/>
<glyph unicode="&#xd3;" glyph-name="Oacute" horiz-adv-x="748" d="M200 26T252 -26T372 -78Q463 -78 545 -18T675 134T722 322T679 472T557 527Q462 527 408 461T354 306Q354 267 366 238T393 195T427 172Q452 160 470 160L469 140Q452 140 426 152T381 180T349
229T334 306Q334 403 393 474T557 546Q644 546 693 486T742 319Q742 244 713 169T633 33T507 -65T346 -103Q225 -103 157 -30T89 174Q89 353 203 478T487 610L488 590Q423 588 372 558T289 481T236 372Q200 263 200 145ZM583 658L636 764L662 754L609 648L583 658Z"
/>
<glyph unicode="&#xd4;" glyph-name="Ocircumflex" horiz-adv-x="748" d="M236 372Q200 263 200 145T252 -26T372 -78Q463 -78 545 -18T675 134T722 322T679 472T557 527Q462 527 408 461T354 306Q354 267 366 238T393 195T430 171T470 160L469 140Q452 140 421
154Q399 164 381 180T349 229T334 306Q334 403 393 474T557 546Q644 546 693 486T742 319Q742 244 713 169T633 33T507 -65T346 -103Q225 -103 157 -30T89 174Q89 353 203 478T487 610L488 590Q423 588 372 558T289 481T236 372ZM565 818L414 649L392 666L555 846H582L678
660L653 648L565 818Z" />
<glyph unicode="&#xd5;" glyph-name="Otilde" horiz-adv-x="748" d="M200 26T252 -26T372 -78Q463 -78 545 -18T675 134T722 322T679 472T557 527Q462 527 408 461T354 306Q354 267 366 238T393 195T427 172Q452 160 470 160L469 140Q452 140 426 152T381 180T349
229T334 306Q334 403 393 474T557 546Q644 546 693 486T742 319Q742 244 713 169T633 33T507 -65T346 -103Q225 -103 157 -30T89 174Q89 353 203 478T487 610L488 590Q423 588 372 558T289 481T236 372Q200 263 200 145ZM425 781T455 781T502 770T526 743T539 711Q552
673 588 673T655 700T699 754L711 781H737Q735 776 732 767T715 735T687 695T644 663T583 648T532 665T510 702T492 740T449 757T390 731T345 678T331 651H300Q333 733 398 767Q425 781 455 781Z" />
<glyph unicode="&#xd6;" glyph-name="Odieresis" horiz-adv-x="748" d="M236 372Q200 263 200 145T252 -26T372 -78Q463 -78 545 -18T675 134T722 322T679 472T557 527Q462 527 408 461T354 306Q354 267 366 238T393 195T430 171T470 160L469 140Q452 140 421
154Q399 164 381 180T349 229T334 306Q334 403 393 474T557 546Q644 546 693 486T742 319Q742 244 713 169T633 33T507 -65T346 -103Q225 -103 157 -30T89 174Q89 353 203 478T487 610L488 590Q423 588 372 558T289 481T236 372ZM564 651T548 667T531 708T548 750T589
768T630 751T648 709T631 668T589 651ZM404 651T388 667T371 708T388 750T429 768T470 751T488 709T471 668T429 651Z" />
<glyph unicode="&#xd7;" glyph-name="multiply" horiz-adv-x="351" d="M211 205L362 374L384 357L230 187L320 13L295 1L207 171L56 2L34 19L188 189L98 363L123 375L211 205Z" />
<glyph unicode="&#xd8;" glyph-name="Oslash" horiz-adv-x="748" d="M277 -48L387 175Q334 219 334 311T393 474T557 546Q566 546 570 545L626 658L646 648L594 543Q664 530 703 472T742 329T713 169T633 33T507 -65T346 -103Q316 -103 279 -96L222 -212L201 -203L256
-90Q176 -66 133 2T89 174Q89 353 203 478T487 610L488 590Q423 588 372 558T289 481T236 372Q200 263 200 136T277 -48ZM415 180Q441 165 472 161L469 142Q440 142 406 162L297 -60Q333 -78 372 -78Q463 -78 545 -18T675 134T722 317T687 462T585 525L415 180ZM462
527T408 461T354 314T397 194L561 527H557Q462 527 408 461Z" />
<glyph unicode="&#xd9;" glyph-name="Ugrave" horiz-adv-x="898" d="M486 553Q407 587 315 587T165 528T107 374H85Q85 478 149 543T313 609Q393 609 486 578Q593 539 718 539V518Q643 518 598 525Q586 475 563 387T531 252T522 156T555 76T642 44T730 79T783
157L901 665H922L782 64Q773 27 773 14Q773 -28 812 -28Q840 -28 861 1L875 -11Q868 -24 850 -35T807 -47T767 -30T752 11L764 77L769 100Q742 58 697 25T596 -9Q504 -9 455 39T406 171Q406 237 420 294T454 427T486 553ZM725 764L778 658L752 648L699 754L725
764Z" />
<glyph unicode="&#xda;" glyph-name="Uacute" horiz-adv-x="898" d="M695 44T730 79T783 157L901 665H922L782 64L773 14Q773 -28 812 -28Q843 -28 861 1L875 -11L869 -20Q863 -29 848 -38T807 -47T767 -30T752 8T764 77L769 100Q742 58 697 25T596 -9Q504 -9
455 39T406 162T426 320Q434 351 454 427T486 553Q407 587 308 587Q222 587 165 528T107 374H85Q85 478 149 543T313 609Q393 609 486 578Q593 539 718 539V518Q643 518 598 525Q586 475 563 387T531 252T522 156T555 76T642 44ZM696 658L749 764L775 754L722 648L696
658Z" />
<glyph unicode="&#xdb;" glyph-name="Ucircumflex" horiz-adv-x="898" d="M486 553Q407 587 315 587T165 528T107 374H85Q85 478 149 543T313 609Q393 609 486 578Q593 539 718 539V518Q643 518 598 525Q586 475 563 387T531 252T522 156T555 76T642 44T730 79T783
157L901 665H922L782 64Q773 27 773 14Q773 -28 812 -28Q840 -28 861 1L875 -11Q868 -24 850 -35T807 -47T767 -30T752 11L764 77L769 100Q742 58 697 25T596 -9Q504 -9 455 39T406 171Q406 237 420 294T454 427T486 553ZM690 816L539 647L517 664L680 844H707L803
658L778 646L690 816Z" />
<glyph unicode="&#xdc;" glyph-name="Udieresis" horiz-adv-x="898" d="M695 44T730 79T783 157L901 665H922L782 64L773 14Q773 -28 812 -28Q843 -28 861 1L875 -11L869 -20Q863 -29 848 -38T807 -47T767 -30T752 8T764 77L769 100Q742 58 697 25T596 -9Q504
-9 455 39T406 162T426 320Q434 351 454 427T486 553Q407 587 308 587Q222 587 165 528T107 374H85Q85 478 149 543T313 609Q393 609 486 578Q593 539 718 539V518Q643 518 598 525Q586 475 563 387T531 252T522 156T555 76T642 44ZM719 648T703 664T686 705T703
747T744 765T785 748T803 706T786 665T744 648ZM559 648T543 664T526 705T543 747T584 765T625 748T643 706T626 665T584 648Z" />
<glyph unicode="&#xdd;" glyph-name="Yacute" horiz-adv-x="713" d="M1021 755Q959 755 887 690T750 522T631 307T527 51T452 -168H318L360 -68Q403 33 445 181T488 417T455 547T363 588Q278 588 206 524Q170 492 149 439T127 327T144 230T182 171T232 136T285
117L278 98Q256 104 240 111T186 142T128 211T106 318Q106 447 180 528T374 609Q594 609 594 400Q594 294 576 240Q825 779 1021 779Q1077 779 1100 755T1123 682H1100Q1095 726 1077 740T1021 755ZM632 675L685 781L711 771L658 665L632 675Z" />
<glyph unicode="&#xde;" glyph-name="Thorn" horiz-adv-x="601" d="M595 394Q595 482 529 535T327 590Q290 318 248 103Q595 153 595 394ZM-28 -153V-128Q7 -128 29 -117T65 -79T83 -35T92 5T97 32L183 525Q215 707 380 710V684Q355 681 346 664T329 609Q412 608
471 589T562 537Q621 476 621 394Q621 331 598 280T538 195T450 138Q364 97 243 80Q224 -21 147 -87T-28 -153Z" />
<glyph unicode="&#xdf;" glyph-name="germandbls" horiz-adv-x="473" d="M128 449T172 493T306 538T442 501T488 399T449 298T354 250Q470 230 470 140Q470 75 423 33T285 -9T151 36L63 -27H44Q96 271 112 360ZM172 57Q198 24 245 24T320 63T349 158Q349 225 284
242L264 243L268 265Q324 265 353 299T382 431Q382 514 323 514Q254 514 232 386L172 57Z" />
<glyph unicode="&#xe0;" glyph-name="agrave" horiz-adv-x="484" d="M412 -9Q324 -9 316 68Q272 -9 205 -9T99 31T59 145Q59 259 115 324T260 389Q333 389 357 320Q362 350 368 380Q442 380 478 386L491 389L422 11Q452 14 472 39L487 27Q457 -9 412 -9ZM172 49T183
32T219 14T268 40Q301 74 321 126Q324 139 332 188T347 270Q344 308 326 336T281 364Q232 364 202 277T172 94Q172 49 183 32ZM258 574L311 468L285 458L232 564L258 574Z" />
<glyph unicode="&#xe1;" glyph-name="aacute" horiz-adv-x="484" d="M412 -9Q324 -9 316 68Q272 -9 205 -9T99 31T59 145Q59 259 115 324T260 389Q333 389 357 320Q362 350 368 380Q442 380 478 386L491 389L422 11Q452 14 472 39L487 27Q457 -9 412 -9ZM172 49T183
32T219 14T268 40Q301 74 321 126Q324 139 332 188T347 270Q344 308 326 336T281 364Q232 364 202 277T172 94Q172 49 183 32ZM274 468L327 574L353 564L300 458L274 468Z" />
<glyph unicode="&#xe2;" glyph-name="acircumflex" horiz-adv-x="484" d="M412 -9Q324 -9 316 68Q272 -9 205 -9T99 31T59 145Q59 259 115 324T260 389Q333 389 357 320Q362 350 368 380Q442 380 478 386L491 389L422 11Q452 14 472 39L487 27Q457 -9 412 -9ZM172
49T183 32T219 14T268 40Q301 74 321 126Q324 139 332 188T347 270Q344 308 326 336T281 364Q232 364 202 277T172 94Q172 49 183 32ZM356 605L205 436L183 453L346 633H373L469 447L444 435L356 605Z" />
<glyph unicode="&#xe3;" glyph-name="atilde" horiz-adv-x="484" d="M412 -9Q324 -9 316 68Q272 -9 205 -9T99 31T59 145Q59 259 115 324T260 389Q333 389 357 320Q362 350 368 380Q442 380 478 386L491 389L422 11Q452 14 472 39L487 27Q457 -9 412 -9ZM172 49T183
32T219 14T268 40Q301 74 321 126Q324 139 332 188T347 270Q344 308 326 336T281 364Q232 364 202 277T172 94Q172 49 183 32ZM216 569T246 569T293 558T317 531T330 499Q343 461 379 461T446 488T490 542L502 569H528Q526 564 523 555T506 523T478 483T435 451T374
436T323 453T301 490T283 528T240 545T181 519T136 466T122 439H91Q124 521 189 555Q216 569 246 569Z" />
<glyph unicode="&#xe4;" glyph-name="adieresis" horiz-adv-x="484" d="M412 -9Q324 -9 316 68Q272 -9 205 -9T99 31T59 145Q59 259 115 324T260 389Q333 389 357 320Q362 350 368 380Q442 380 478 386L491 389L422 11Q452 14 472 39L487 27Q457 -9 412 -9ZM172
49T183 32T219 14T268 40Q301 74 321 126Q324 139 332 188T347 270Q344 308 326 336T281 364Q232 364 202 277T172 94Q172 49 183 32ZM366 691T350 707T333 748T350 790T391 808T432 791T450 749T433 708T391 691ZM206 691T190 707T173 748T190 790T231 808T272
791T290 749T273 708T231 691Z" />
<glyph unicode="&#xe5;" glyph-name="aring" horiz-adv-x="484" d="M412 -9Q324 -9 316 68Q272 -9 205 -9T99 31T59 145Q59 259 115 324T260 389Q333 389 357 320Q362 350 368 380Q442 380 478 386L491 389L422 11Q452 14 472 39L487 27Q457 -9 412 -9ZM172 49T183
32T219 14T268 40Q301 74 321 126Q324 139 332 188T347 270Q344 308 326 336T281 364Q232 364 202 277T172 94Q172 49 183 32ZM338 435T318 435T283 449T268 484T283 518T318 533T352 519T367 484T353 450ZM349 497T340 506T319 515T297 506T288 485T297 463T318
454T340 463T349 484Z" />
<glyph unicode="&#xe6;" glyph-name="ae" horiz-adv-x="660" d="M362 297Q419 389 542 389T665 288Q665 225 606 193T436 159Q434 123 434 102Q434 57 454 36T506 14T562 26T603 54T629 89Q649 122 649 131L667 123Q664 107 649 81T616 37T563 6T485 -9Q353 -9
327 88Q281 -9 204 -9Q138 -9 99 31T59 145Q59 259 115 324T257 389T362 297ZM172 49T183 32T219 14T267 39T302 84T321 125V135Q321 213 347 270Q344 309 326 336T281 364Q232 364 202 277T172 94Q172 49 183 32ZM640 321T621 342T563 364T488 318T439 182Q640
183 640 288Q640 321 621 342Z" />
<glyph unicode="&#xe7;" glyph-name="ccedilla" horiz-adv-x="406" d="M279 230T279 260T300 311T351 333Q360 333 374 329Q355 364 303 364T211 298T171 102Q171 57 191 36T243 14T299 26T340 54T366 89Q386 122 386 131L404 123Q401 107 386 81T353 37T300 6T222
-9Q141 -9 100 29T58 135Q58 254 117 321T279 389Q348 389 385 354T422 262Q422 226 401 207T350 188T300 209ZM220 -184Q127 -184 127 -116Q127 -83 151 -64T225 -44L234 2H252L241 -63H225Q190 -63 170 -77T149 -117Q149 -165 221 -165Q244 -165 264 -159T294
-146L303 -139L313 -156Q284 -184 220 -184Z" />
<glyph unicode="&#xe8;" glyph-name="egrave" horiz-adv-x="397" d="M275 389Q402 389 402 288Q402 225 343 193T173 159Q171 123 171 102Q171 57 191 36T243 14T299 26T340 54T366 89Q386 122 386 131L404 123Q401 107 386 81T353 37T300 6T222 -9Q141 -9 100
29T58 135Q58 254 117 321T275 389ZM377 321T358 342T300 364T225 318T176 182Q377 183 377 288Q377 321 358 342ZM247 574L300 468L274 458L221 564L247 574Z" />
<glyph unicode="&#xe9;" glyph-name="eacute" horiz-adv-x="397" d="M275 389Q402 389 402 288Q402 225 343 193T173 159Q171 123 171 102Q171 57 191 36T243 14T299 26T340 54T366 89Q386 122 386 131L404 123Q401 107 386 81T353 37T300 6T222 -9Q141 -9 100
29T58 135Q58 254 117 321T275 389ZM377 321T358 342T300 364T225 318T176 182Q377 183 377 288Q377 321 358 342ZM261 468L314 574L340 564L287 458L261 468Z" />
<glyph unicode="&#xea;" glyph-name="ecircumflex" horiz-adv-x="397" d="M275 389Q402 389 402 288Q402 225 343 193T173 159Q171 123 171 102Q171 57 191 36T243 14T299 26T340 54T366 89Q386 122 386 131L404 123Q401 107 386 81T353 37T300 6T222 -9Q141 -9
100 29T58 135Q58 254 117 321T275 389ZM377 321T358 342T300 364T225 318T176 182Q377 183 377 288Q377 321 358 342ZM314 605L163 436L141 453L304 633H331L427 447L402 435L314 605Z" />
<glyph unicode="&#xeb;" glyph-name="edieresis" horiz-adv-x="397" d="M275 389Q402 389 402 288Q402 225 343 193T173 159Q171 123 171 102Q171 57 191 36T243 14T299 26T340 54T366 89Q386 122 386 131L404 123Q401 107 386 81T353 37T300 6T222 -9Q141 -9
100 29T58 135Q58 254 117 321T275 389ZM377 321T358 342T300 364T225 318T176 182Q377 183 377 288Q377 321 358 342ZM322 691T306 707T289 748T306 790T347 808T388 791T406 749T389 708T347 691ZM162 691T146 707T129 748T146 790T187 808T228 791T246 749T229
708T187 691Z" />
<glyph unicode="&#xec;" glyph-name="igrave" horiz-adv-x="242" d="M244 27Q214 -9 169 -9T98 14T73 79Q73 87 76 109T122 362H80L82 380H125Q199 380 234 386L248 389L179 11Q209 14 229 39L244 27ZM152 574L205 468L179 458L126 564L152 574Z" />
<glyph unicode="&#xed;" glyph-name="iacute" horiz-adv-x="242" d="M244 27Q214 -9 169 -9T98 14T73 79Q73 87 76 109T122 362H80L82 380H125Q199 380 234 386L248 389L179 11Q209 14 229 39L244 27ZM172 445L225 551L251 541L198 435L172 445Z" />
<glyph unicode="&#xee;" glyph-name="icircumflex" horiz-adv-x="242" d="M244 27Q214 -9 169 -9T98 14T73 79Q73 87 76 109T122 362H80L82 380H125Q199 380 234 386L248 389L179 11Q209 14 229 39L244 27ZM217 861L66 692L44 709L207 889H234L330 703L305 691L217 861Z" />
<glyph unicode="&#xef;" glyph-name="idieresis" horiz-adv-x="242" d="M244 27Q214 -9 169 -9T98 14T73 79Q73 87 76 109T122 362H80L82 380H125Q199 380 234 386L248 389L179 11Q209 14 229 39L244 27ZM244 435T228 451T211 492T228 534T269 552T310 535T328
493T311 452T269 435ZM84 435T68 451T51 492T68 534T109 552T150 535T168 493T151 452T109 435Z" />
<glyph unicode="&#xf0;" glyph-name="eth" horiz-adv-x="430" d="M263 514V533Q356 533 406 463H494L491 445H417Q448 388 448 306Q448 172 376 82T193 -8Q128 -8 91 32T54 134T80 247T144 329T222 379T293 397V376Q243 376 205 301T167 133Q167 28 247 28Q304
28 363 98Q391 132 409 187T428 316T395 445H288L291 463H382Q339 514 263 514Z" />
<glyph unicode="&#xf1;" glyph-name="ntilde" horiz-adv-x="499" d="M446 11Q470 11 496 39L511 27Q504 13 480 2T427 -9Q336 -9 336 73Q336 108 354 198T372 316Q372 359 331 359Q298 359 268 316T217 198L183 11Q214 14 234 39L249 27Q219 -9 174 -9T104 14T78
74Q78 88 94 184L127 369Q97 366 77 341L62 353Q92 389 137 389T208 366T233 301V295Q274 389 361 389Q420 389 453 356T486 263Q486 232 467 144T446 11ZM221 569T251 569T298 558T322 531T334 499Q348 461 384 461T451 488T494 542L507 569H533Q531 564 528 555T511
523T483 483T440 451T379 436T328 453T306 490T288 528T245 545T186 519T141 466T127 439H96Q129 521 194 555Q221 569 251 569Z" />
<glyph unicode="&#xf2;" glyph-name="ograve" horiz-adv-x="441" d="M241 574L294 468L268 458L215 564L241 574ZM139 -9T99 29T59 126T69 226T104 306T176 367T297 389T410 351T451 245Q451 131 391 61T216 -9Q139 -9 99 29ZM172 94Q172 14 218 14T301 94T338
286Q338 370 293 370T210 294T172 94Z" />
<glyph unicode="&#xf3;" glyph-name="oacute" horiz-adv-x="441" d="M265 468L318 574L344 564L291 458L265 468ZM139 -9T99 29T59 126T69 226T104 306T176 367T297 389T410 351T451 245Q451 131 391 61T216 -9Q139 -9 99 29ZM172 94Q172 14 218 14T301 94T338
286Q338 370 293 370T210 294T172 94Z" />
<glyph unicode="&#xf4;" glyph-name="ocircumflex" horiz-adv-x="441" d="M326 605L175 436L153 453L316 633H343L439 447L414 435L326 605ZM139 -9T99 29T59 126T69 226T104 306T176 367T297 389T410 351T451 245Q451 131 391 61T216 -9Q139 -9 99 29ZM172 94Q172
14 218 14T301 94T338 286Q338 370 293 370T210 294T172 94Z" />
<glyph unicode="&#xf5;" glyph-name="otilde" horiz-adv-x="441" d="M222 569T252 569T299 558T323 531T336 499Q349 461 385 461T452 488T496 542L508 569H534Q532 564 529 555T512 523T484 483T441 451T380 436T329 453T307 490T289 528T246 545T187 519T142
466T128 439H97Q130 521 195 555Q222 569 252 569ZM139 -9T99 29T59 126T69 226T104 306T176 367T297 389T410 351T451 245Q451 131 391 61T216 -9Q139 -9 99 29ZM172 94Q172 14 218 14T301 94T338 286Q338 370 293 370T210 294T172 94Z" />
<glyph unicode="&#xf6;" glyph-name="odieresis" horiz-adv-x="441" d="M350 435T334 451T317 492T334 534T375 552T416 535T434 493T417 452T375 435ZM190 435T174 451T157 492T174 534T215 552T256 535T274 493T257 452T215 435ZM139 -9T99 29T59 126T69 226T104
306T176 367T297 389T410 351T451 245Q451 131 391 61T216 -9Q139 -9 99 29ZM172 94Q172 14 218 14T301 94T338 286Q338 370 293 370T210 294T172 94Z" />
<glyph unicode="&#xf7;" glyph-name="divide" horiz-adv-x="441" d="M445 184H62L64 202H447L445 184ZM160 34T160 64T181 115T232 137T283 116T305 64T284 13T232 -8T181 13ZM200 286T200 316T221 367T272 389T323 368T345 316T324 265T272 244T221 265Z" />
<glyph unicode="&#xf8;" glyph-name="oslash" horiz-adv-x="441" d="M104 306Q128 345 176 367T294 389Q317 389 340 384L420 544L446 534L367 377Q451 346 451 245Q451 131 391 61T216 -9Q193 -9 175 -6L95 -165L69 -155L147 1Q59 31 59 132T104 306ZM172 94Q172
72 175 57L325 354Q314 370 293 370Q247 370 210 294T172 94ZM218 14Q265 14 301 94T338 286Q338 298 336 316L190 25Q201 14 218 14Z" />
<glyph unicode="&#xf9;" glyph-name="ugrave" horiz-adv-x="499" d="M121 369Q97 369 71 341L56 353Q63 367 87 378T140 389Q231 389 231 307Q231 272 213 182T195 64Q195 21 236 21Q265 21 292 55T340 149L382 380Q456 380 490 386L503 389L436 11Q466 14 486
39L501 27Q471 -9 426 -9T356 13T330 75Q288 -9 206 -9Q147 -9 114 24T81 117Q81 148 100 236T121 369ZM262 574L315 468L289 458L236 564L262 574Z" />
<glyph unicode="&#xfa;" glyph-name="uacute" horiz-adv-x="499" d="M121 369Q97 369 71 341L56 353Q63 367 87 378T140 389Q231 389 231 307Q231 272 213 182T195 64Q195 21 236 21Q265 21 292 55T340 149L382 380Q456 380 490 386L503 389L436 11Q466 14 486
39L501 27Q471 -9 426 -9T356 13T330 75Q288 -9 206 -9Q147 -9 114 24T81 117Q81 148 100 236T121 369ZM280 468L333 574L359 564L306 458L280 468Z" />
<glyph unicode="&#xfb;" glyph-name="ucircumflex" horiz-adv-x="499" d="M121 369Q97 369 71 341L56 353Q63 367 87 378T140 389Q231 389 231 307Q231 272 213 182T195 64Q195 21 236 21Q265 21 292 55T340 149L382 380Q456 380 490 386L503 389L436 11Q466 14
486 39L501 27Q471 -9 426 -9T356 13T330 75Q288 -9 206 -9Q147 -9 114 24T81 117Q81 148 100 236T121 369ZM344 605L193 436L171 453L334 633H361L457 447L432 435L344 605Z" />
<glyph unicode="&#xfc;" glyph-name="udieresis" horiz-adv-x="499" d="M121 369Q97 369 71 341L56 353Q63 367 87 378T140 389Q231 389 231 307Q231 272 213 182T195 64Q195 21 236 21Q265 21 292 55T340 149L382 380Q456 380 490 386L503 389L436 11Q466 14
486 39L501 27Q471 -9 426 -9T356 13T330 75Q288 -9 206 -9Q147 -9 114 24T81 117Q81 148 100 236T121 369ZM360 691T344 707T327 748T344 790T385 808T426 791T444 749T427 708T385 691ZM200 691T184 707T167 748T184 790T225 808T266 791T284 749T267 708T225
691Z" />
<glyph unicode="&#xfd;" glyph-name="yacute" horiz-adv-x="483" d="M121 369Q97 369 71 341L56 353Q63 367 87 378T140 389Q231 389 231 307Q231 272 212 193T193 85Q193 37 233 37Q266 37 297 82T349 203L382 380Q456 380 490 386L503 389L440 35Q422 -68 357
-126T187 -184Q124 -184 90 -163T55 -107T76 -52T135 -31T207 -43T255 -58L253 -76Q236 -74 204 -62T141 -50T93 -64T76 -104T105 -147T177 -164Q281 -164 305 -39L330 99Q288 7 203 7Q145 7 114 40T82 133Q82 164 100 244T121 369ZM285 468L338 574L364 564L311
458L285 468Z" />
<glyph unicode="&#xfe;" glyph-name="thorn" horiz-adv-x="459" d="M239 -9Q194 -9 168 12Q160 -27 140 -137H27L139 518Q109 515 89 490L74 502Q104 538 149 538T220 515T245 450Q245 442 241 414T225 327Q268 388 332 388T433 350T469 244Q469 126 405 59T239
-9ZM232 18Q287 18 321 94T356 285Q356 331 347 348T316 365Q258 365 212 256L174 46Q191 18 232 18Z" />
<glyph unicode="&#xff;" glyph-name="ydieresis" horiz-adv-x="483" d="M121 369Q97 369 71 341L56 353Q63 367 87 378T140 389Q231 389 231 307Q231 272 212 193T193 85Q193 37 233 37Q266 37 297 82T349 203L382 380Q456 380 490 386L503 389L440 35Q422 -68
357 -126T187 -184Q124 -184 90 -163T55 -107T76 -52T135 -31T207 -43T255 -58L253 -76Q236 -74 204 -62T141 -50T93 -64T76 -104T105 -147T177 -164Q281 -164 305 -39L330 99Q288 7 203 7Q145 7 114 40T82 133Q82 164 100 244T121 369ZM355 435T339 451T322 492T339
534T380 552T421 535T439 493T422 452T380 435ZM195 435T179 451T162 492T179 534T220 552T261 535T279 493T262 452T220 435Z" />
<glyph unicode="&#x2013;" glyph-name="endash" horiz-adv-x="547" d="M523 184H90L92 202H525L523 184Z" />
<glyph unicode="&#x2014;" glyph-name="emdash" horiz-adv-x="647" d="M623 184H90L92 202H625L623 184Z" />
<glyph unicode="&#x2018;" glyph-name="quoteleft" horiz-adv-x="206" d="M271 604T271 574T250 523T199 501T148 522T126 574Q126 623 169 677T293 754L302 733Q257 718 226 696T185 658L176 642Q185 646 199 646Q229 646 250 625Z" />
<glyph unicode="&#x2019;" glyph-name="quoteright" horiz-adv-x="186" d="M155 651T155 681T176 732T227 754T278 733T300 681Q300 632 257 578T133 501L124 522Q169 537 200 559T241 598L250 613Q241 609 227 609Q197 609 176 630Z" />
<glyph unicode="&#x201a;" glyph-name="quotesinglbase" horiz-adv-x="239" d="M61 34T61 64T82 115T133 137T184 116T206 64Q206 15 163 -39T39 -116L30 -95Q75 -80 106 -58T147 -20L156 -4Q147 -8 133 -8Q103 -8 82 13Z" />
<glyph unicode="&#x201c;" glyph-name="quotedblleft" horiz-adv-x="393" d="M271 604T271 574T250 523T199 501T148 522T126 574Q126 623 169 677T293 754L302 733Q257 718 226 696T185 658L176 642Q185 646 199 646Q229 646 250 625ZM458 604T458 574T437 523T386
501T335 522T313 574Q313 623 356 677T480 754L489 733Q444 718 413 696T372 658L363 642Q372 646 386 646Q416 646 437 625Z" />
<glyph unicode="&#x201d;" glyph-name="quotedblright" horiz-adv-x="373" d="M342 651T342 681T363 732T414 754T465 733T487 681Q487 632 444 578T320 501L311 522Q356 537 387 559T428 598L437 613Q428 609 414 609Q384 609 363 630ZM155 651T155 681T176 732T227
754T278 733T300 681Q300 632 257 578T133 501L124 522Q169 537 200 559T241 598L250 613Q241 609 227 609Q197 609 176 630Z" />
<glyph unicode="&#x201e;" glyph-name="quotedblbase" horiz-adv-x="475" d="M61 34T61 64T82 115T133 137T184 116T206 64Q206 15 163 -39T39 -116L30 -95Q75 -80 106 -58T147 -20L156 -4Q147 -8 133 -8Q103 -8 82 13ZM298 34T298 64T319 115T370 137T421 116T443
64Q443 15 400 -39T276 -116L267 -95Q312 -80 343 -58T384 -20L393 -4Q384 -8 370 -8Q340 -8 319 13Z" />
<glyph unicode="&#x2022;" glyph-name="bullet" horiz-adv-x="311" d="M107 201T107 238T133 301T196 328T259 302T286 238T260 175T196 149T133 175Z" />
<glyph unicode="&#x2039;" glyph-name="guilsinglleft" horiz-adv-x="282" d="M215 72Q215 134 67 193L72 219Q98 227 155 252Q265 300 275 350H296Q290 317 251 286Q189 236 90 205Q200 162 228 109Q237 93 237 82T235 62H214Q215 67 215 72Z" />
<glyph unicode="&#x203a;" glyph-name="guilsinglright" horiz-adv-x="282" d="M140 340Q140 278 288 219L283 193Q257 185 200 160Q90 112 80 62H59Q65 95 104 126Q166 176 265 207Q155 250 126 303Q118 319 118 330T120 350H141Q140 345 140 340Z" />
</font>
</defs>
</svg>
