<?xml version="1.0" standalone="no"?>
<!DOCTYPE svg PUBLIC "-//W3C//DTD SVG 1.1//EN" "http://www.w3.org/Graphics/SVG/1.1/DTD/svg11.dtd">
<svg xmlns="http://www.w3.org/2000/svg">
<defs >
<font id="Manuale" horiz-adv-x="513" ><font-face
    font-family="Manuale"
    units-per-em="1000"
    panose-1="2 4 5 4 5 4 5 6 2 4"
    ascent="980"
    descent="-236"
    alphabetic="0" />
<glyph unicode=" " glyph-name="space" horiz-adv-x="203" />
<glyph unicode="!" glyph-name="exclam" horiz-adv-x="203" d="M124 187H83L52 611H156L124 187ZM47 70T62 86T101 102Q124 102 141 86T158 47Q158 24 141 8T101 -9Q78 -9 63 7T47 47Q47 70 62 86Z" />
<glyph unicode="&quot;" glyph-name="quotedbl" horiz-adv-x="297" d="M37 697H129L94 467H71L37 697ZM169 697H260L226 467H204L169 697Z" />
<glyph unicode="#" glyph-name="numbersign" horiz-adv-x="556" d="M392 222H510L496 169H378L329 -9H274L323 169H182L134 -9H80L129 169H0L14 222H142L173 333H46L60 386H188L238 563H292L243 386H382L432 563H488L439 386H556L541 333H424L392 222ZM197 222H338L369
333H229L197 222Z" />
<glyph unicode="$" glyph-name="dollar" horiz-adv-x="502" d="M236 2Q191 2 144 10T61 32L74 146H111L130 63Q184 49 239 49Q301 49 337 76T374 147Q374 227 286 259L174 300Q124 318 98 352T72 449Q72 523 118 565T251 612V713H294V612Q356 609 432 587L422
463H387L364 556Q351 559 324 561T277 564Q216 564 182 539T148 468Q148 427 170 404T241 362L349 321Q402 301 427 265T453 169Q453 99 409 56T279 3V-116H236V2Z" />
<glyph unicode="%" glyph-name="percent" horiz-adv-x="870" d="M368 283T325 230T208 177Q135 177 91 231T47 402Q47 520 91 573T208 627Q281 627 324 574T368 402Q368 283 325 230ZM351 0H297L520 611H574L351 0ZM256 246T290 282T324 406Q324 492 291 525T209
559Q160 559 126 524T92 400Q92 314 126 280T209 246Q256 246 290 282ZM824 99T781 46T664 -8Q591 -8 547 46T502 218Q502 335 546 388T664 442Q737 442 780 390T824 218Q824 99 781 46ZM713 61T746 97T780 221Q780 307 747 340T666 374Q617 374 583 340T549 216Q549
130 583 96T666 61Q713 61 746 97Z" />
<glyph unicode="&amp;" glyph-name="ampersand" horiz-adv-x="600" d="M360 27T320 7T221 -13Q137 -13 94 31T50 143Q50 213 85 258T179 336Q152 374 134 417T116 491Q116 565 161 594T266 623Q326 623 362 593T399 507Q399 449 365 411T271 335Q349 235 415 157Q439
217 445 287L390 302V332H565V306L490 287Q480 205 445 128L524 46L595 30V0H465L399 70Q360 27 320 7ZM189 471T203 440T245 370Q339 423 339 493Q339 531 325 555T264 580Q227 580 208 559T189 499Q189 471 203 440ZM290 46T318 59T372 100Q350 126 337 140Q255
235 207 299Q164 269 149 243T134 170Q134 103 163 75T250 46Q290 46 318 59Z" />
<glyph unicode="&apos;" glyph-name="quotesingle" horiz-adv-x="168" d="M38 697H130L96 467H72L38 697Z" />
<glyph unicode="(" glyph-name="parenleft" horiz-adv-x="278" d="M139 133T145 60T181 -70T274 -154L263 -181Q170 -154 128 -106T74 22T62 264Q62 427 73 507T127 636T263 711L274 684Q210 656 181 599T146 469T139 264Q139 133 145 60Z" />
<glyph unicode=")" glyph-name="parenright" horiz-adv-x="278" d="M139 396T133 468T97 598T3 684L14 711Q107 684 149 636T204 506T216 264Q216 104 204 23T150 -106T14 -181L3 -154Q67 -127 96 -70T132 60T139 264Q139 396 133 468Z" />
<glyph unicode="*" glyph-name="asterisk" horiz-adv-x="338" d="M108 431L44 477L132 567L130 572L8 591L31 667L143 612L149 613L130 738H207L189 613L194 610L306 667L329 591L206 572L204 567L291 477L230 431L171 541H167L108 431Z" />
<glyph unicode="+" glyph-name="plus" horiz-adv-x="509" d="M228 117V281H63V334H228V500H280V334H447V281H280V117H228Z" />
<glyph unicode="," glyph-name="comma" horiz-adv-x="164" d="M63 -120L40 -114L56 90L131 108L147 91L63 -120Z" />
<glyph unicode="-" glyph-name="hyphen" horiz-adv-x="281" d="M273 212H9V261H273V212Z" />
<glyph unicode="." glyph-name="period" horiz-adv-x="186" d="M152 25T134 8T92 -9Q68 -9 50 8T32 49Q32 74 50 91T92 109Q116 109 134 92T152 49Q152 25 134 8Z" />
<glyph unicode="/" glyph-name="slash" horiz-adv-x="342" d="M336 696L64 -138H8L278 696H336Z" />
<glyph unicode="0" glyph-name="zero" horiz-adv-x="502" d="M463 141T406 65T252 -11Q156 -11 98 65T39 311Q39 479 97 555T252 632Q348 632 405 557T463 311Q463 141 406 65ZM313 68T356 123T399 316Q399 450 357 502T252 555Q188 555 146 501T103 308Q103 173
145 121T252 68Q313 68 356 123Z" />
<glyph unicode="1" glyph-name="one" horiz-adv-x="502" d="M460 33V0H68V33L231 60V541H73V578L316 614V60L460 33Z" />
<glyph unicode="2" glyph-name="two" horiz-adv-x="502" d="M32 50L238 252Q296 309 321 354T346 458Q346 508 315 538T229 569Q149 569 74 533L56 576Q95 598 143 612T241 627Q327 627 380 587T433 460Q433 397 395 338T289 217L120 63H391L430 144H467L453 0H47L32 50Z" />
<glyph unicode="3" glyph-name="three" horiz-adv-x="502" d="M318 627T363 593T409 494Q409 387 281 336Q354 327 397 284T440 172Q440 81 384 36T219 -9Q170 -9 124 -1T43 22L54 71Q123 46 188 46Q262 46 305 77T349 172Q349 252 299 277T164 302L161 346Q321
362 321 480Q321 521 293 545T210 569Q152 569 80 533L61 574Q99 597 148 612T247 627Q318 627 363 593Z" />
<glyph unicode="4" glyph-name="four" horiz-adv-x="502" d="M299 0V140H15L1 181L315 620L377 613V198H460V140H377V0H299ZM77 198H299V512L77 198Z" />
<glyph unicode="5" glyph-name="five" horiz-adv-x="502" d="M414 544H153L140 386Q267 386 335 356T425 282T447 181Q447 93 390 42T226 -9Q131 -9 47 24L62 70Q130 46 196 46Q268 46 312 82T357 181Q357 263 295 295T102 328L84 347L108 611H414V544Z" />
<glyph unicode="6" glyph-name="six" horiz-adv-x="502" d="M161 340T204 358T297 376Q388 376 429 327T470 202Q470 121 421 55T238 -12Q127 -12 84 56T40 244Q40 384 88 470T205 591T341 627Q379 627 422 618L416 572L394 574Q373 577 357 577Q302 577 251 547T166
455T129 307Q161 340 204 358ZM126 145T154 92T243 39Q313 39 348 77T384 179Q384 245 360 283T277 321Q234 321 192 295T126 232Q126 145 154 92Z" />
<glyph unicode="7" glyph-name="seven" horiz-adv-x="502" d="M50 473L42 611H444L459 560L226 -9L136 0L390 551H104L83 473H50Z" />
<glyph unicode="8" glyph-name="eight" horiz-adv-x="502" d="M133 -13T89 29T44 136Q44 189 78 236T179 314Q123 347 93 384T63 474Q63 541 112 584T253 627Q342 627 389 591T436 496Q436 450 406 410T296 337Q368 299 405 262T442 164Q442 84 388 36T236 -13Q133
-13 89 29ZM309 386T333 413T358 480Q358 524 331 551T253 579Q204 579 172 556T140 486Q140 447 169 417T255 358Q309 386 333 413ZM290 36T327 62T364 140Q364 172 353 193T318 232T245 277L215 293Q120 231 120 147Q120 91 150 64T232 36Q290 36 327 62Z" />
<glyph unicode="9" glyph-name="nine" horiz-adv-x="502" d="M132 43T184 43Q271 43 322 101T376 283Q287 234 213 234Q160 234 121 259T62 326T41 421Q41 500 87 563T256 627Q371 627 417 543T464 334Q464 140 390 64T208 -12Q122 -12 56 13L69 62Q132 43 184
43ZM378 464T351 519T252 574Q196 574 162 536T128 436Q128 362 159 327T241 291Q274 291 310 306T378 347Q378 464 351 519Z" />
<glyph unicode=":" glyph-name="colon" horiz-adv-x="186" d="M152 376T134 359T92 342Q68 342 50 359T32 400Q32 425 50 442T92 460Q116 460 134 443T152 400Q152 376 134 359ZM152 25T134 8T92 -9Q68 -9 50 8T32 49Q32 74 50 91T92 109Q116 109 134 92T152 49Q152
25 134 8Z" />
<glyph unicode=";" glyph-name="semicolon" horiz-adv-x="186" d="M152 376T134 359T92 342Q68 342 50 359T32 400Q32 425 50 442T92 460Q116 460 134 443T152 400Q152 376 134 359ZM54 -120L31 -114L47 90L123 108L138 91L54 -120Z" />
<glyph unicode="&lt;" glyph-name="less" horiz-adv-x="509" d="M411 119L58 308L411 497L441 447L167 308L441 169L411 119Z" />
<glyph unicode="=" glyph-name="equal" horiz-adv-x="509" d="M63 363V417H447V363H63ZM63 200V252H447V200H63Z" />
<glyph unicode="&gt;" glyph-name="greater" horiz-adv-x="509" d="M98 119L69 169L342 308L69 447L98 497L451 308L98 119Z" />
<glyph unicode="?" glyph-name="question" horiz-adv-x="389" d="M285 627T327 590T369 489Q369 422 328 365T175 247L163 159H122L112 270Q177 305 214 335T268 400T286 481Q286 531 261 554T186 577Q161 577 118 567L97 487H69L59 592Q87 606 129 616T208 627Q285
627 327 590ZM165 102T181 86T197 47Q197 24 181 8T142 -9Q119 -9 103 7T86 47Q86 70 102 86T142 102Q165 102 181 86Z" />
<glyph unicode="@" glyph-name="at" horiz-adv-x="724" d="M110 95T175 29T356 -38Q411 -38 461 -28T577 6L588 -25Q526 -55 467 -69T338 -83Q234 -83 166 -39T66 80T34 244Q34 327 68 398T176 514T363 558Q543 558 616 476T690 272Q690 211 668 162T602 85T499
56Q475 56 454 66T428 97Q366 52 317 52Q275 52 252 78T229 142Q229 218 317 238L427 263V321Q427 350 414 364T367 379Q316 379 255 358L243 386Q274 402 310 412T381 422Q436 422 464 404T492 342V119Q492 110 500 103T519 96Q572 96 594 146T616 286Q616 350
590 402T510 485T374 516Q236 516 173 440T110 238Q110 95 175 29ZM322 206T310 192T298 152Q298 124 310 113T352 101Q370 101 391 108T427 124V229L354 213Q322 206 310 192Z" />
<glyph unicode="A" glyph-name="A" horiz-adv-x="594" d="M131 52L203 33V0H0V33L72 52L259 611L317 624L514 52L586 33V0H369V33L429 50L393 152H164L131 52ZM276 492L178 198H378L276 492Z" />
<glyph unicode="B" glyph-name="B" horiz-adv-x="558" d="M503 292T503 169Q503 93 444 47T283 0H38V33L128 53V558L38 578V611H277Q383 611 432 572T482 466Q482 407 449 371T350 323Q503 292 503 169ZM323 340T359 369T396 457Q396 512 362 540T273 568Q249
568 211 559V340H258Q323 340 359 369ZM238 41T271 41Q334 41 374 73T414 174Q414 236 373 267T252 299H211V49Q238 41 271 41Z" />
<glyph unicode="C" glyph-name="C" horiz-adv-x="552" d="M459 7T419 -1T324 -9Q180 -9 111 79T41 309Q41 451 110 539T324 627Q380 627 418 620T502 597L493 470H457L432 567Q379 578 340 578Q131 578 131 309Q131 196 179 118T337 39Q384 39 432 54L457 138H494L502
23Q459 7 419 -1Z" />
<glyph unicode="D" glyph-name="D" horiz-adv-x="639" d="M455 611T526 534T598 318Q598 176 530 88T317 0H38V33L128 53V558L38 578V611H300Q455 611 526 534ZM245 564T211 558V58Q230 51 264 46T328 41Q430 41 469 124T508 318Q508 431 451 497T290 564Q245
564 211 558Z" />
<glyph unicode="E" glyph-name="E" horiz-adv-x="544" d="M383 389H419V208H383L359 277H217V56H433L459 147H498V0H39V33L134 53V558L39 578V611H473V479H434L413 559H217V323H362L383 389Z" />
<glyph unicode="F" glyph-name="F" horiz-adv-x="498" d="M473 611V479H434L413 559H217V313H362L383 379H419V198H383L359 267H217V54L330 34V0H38V33L133 53V558L38 578V611H473Z" />
<glyph unicode="G" glyph-name="G" horiz-adv-x="600" d="M402 578T346 578Q226 578 179 498T131 309Q131 201 178 119T343 37Q398 37 436 56V234L347 254V288H590V254L519 234V31Q449 -11 339 -11Q183 -11 112 77T41 309Q41 452 114 539T346 627Q391 627 442
620T524 597L510 470H472L448 567Q402 578 346 578Z" />
<glyph unicode="H" glyph-name="H" horiz-adv-x="723" d="M39 0V33L128 53V559L39 578V611H300V578L211 559V329H513V559L424 578V611H685V578L596 559V53L686 33V0H424V33L513 53V280H211V53L300 33V0H39Z" />
<glyph unicode="I" glyph-name="I" horiz-adv-x="339" d="M38 0V33L128 53V558L38 578V611H301V578L211 558V53L301 33V0H38Z" />
<glyph unicode="J" glyph-name="J" horiz-adv-x="292" d="M-4 -149T-45 -122L-41 -94H33Q77 -94 92 -63T108 30V558L19 578V611H279V578L191 558V63Q191 -56 158 -102T55 -149Q-4 -149 -45 -122Z" />
<glyph unicode="K" glyph-name="K" horiz-adv-x="584" d="M574 0H431L211 312V53L301 33V0H38V33L128 53V558L38 578V611H301V578L211 558V324L424 558L359 578V611H563V578L491 558L291 338L493 53L574 33V0Z" />
<glyph unicode="L" glyph-name="L" horiz-adv-x="478" d="M466 0H38V33L128 53V558L38 578V611H301V578L211 558V56H403L428 147H466V0Z" />
<glyph unicode="M" glyph-name="M" horiz-adv-x="794" d="M247 0H22V33L103 53L120 559L40 578V611H225L399 122L564 611H755V578L665 558L684 53L776 33V0H514V33L603 53L587 508L410 0L360 -10L173 511L158 53L247 33V0Z" />
<glyph unicode="N" glyph-name="N" horiz-adv-x="692" d="M444 611H666V578L585 559V0L523 -10L174 488V53L260 33V0H36V33L116 53V559L36 578V611H184L529 130V559L444 578V611Z" />
<glyph unicode="O" glyph-name="O" horiz-adv-x="658" d="M477 626T547 538T617 308Q617 167 547 79T330 -9Q184 -9 113 79T41 308Q41 449 112 537T330 626Q477 626 547 538ZM527 416T482 497T324 578Q216 578 174 498T131 308Q131 201 176 120T333 39Q443 39
485 119T527 308Q527 416 482 497Z" />
<glyph unicode="P" glyph-name="P" horiz-adv-x="521" d="M373 611T434 568T496 441Q496 379 469 336T396 271T294 249Q253 249 213 259V53L317 34V0H39V33L130 53V554L39 576V611H268Q373 611 434 568ZM235 289T272 289Q331 289 367 323T404 433Q404 502 369
535T277 569Q245 569 213 559V297Q235 289 272 289Z" />
<glyph unicode="Q" glyph-name="Q" horiz-adv-x="658" d="M663 -135T632 -143T577 -151Q545 -151 522 -144T451 -109L271 0Q162 23 102 107T41 308Q41 449 112 537T330 626Q478 626 548 538T618 308Q618 178 554 96T369 -1Q470 -49 526 -73T598 -98H679L682 -126Q663
-135 632 -143ZM131 244T150 184T214 82T333 41Q406 41 449 82T510 183T528 308Q528 416 482 497T324 578Q216 578 174 498T131 308Q131 244 150 184Z" />
<glyph unicode="R" glyph-name="R" horiz-adv-x="558" d="M382 124Q342 210 327 237T298 272T254 279H216V53L309 33V0H40V33L133 53V558L40 578V611H283Q391 611 444 567T497 457Q497 402 464 356T352 292Q377 285 391 274T415 244T448 179Q478 113 509 54L587
33V0H441L382 124ZM340 319T373 355T406 451Q406 506 374 537T279 569Q251 569 216 559V319H277Q340 319 373 355Z" />
<glyph unicode="S" glyph-name="S" horiz-adv-x="458" d="M45 537T97 582T244 627Q323 627 406 600L396 470H359L337 567Q324 571 297 574T250 577Q191 577 157 551T123 474Q123 432 145 408T215 364L323 320Q376 300 401 263T427 163Q427 81 371 35T206 -11Q165
-11 118 -3T34 20L48 138H85L104 52Q158 38 212 38Q274 38 310 66T346 141Q346 182 326 210T258 258L147 301Q45 340 45 456Q45 537 97 582Z" />
<glyph unicode="T" glyph-name="T" d="M10 611H504L498 471H459L440 559H299V53L405 33V0H109V33L216 53V559H74L54 471H18L10 611Z" />
<glyph unicode="U" glyph-name="U" horiz-adv-x="651" d="M556 141T508 66T329 -10Q235 -10 185 26T117 122T100 264V558L9 578V611H273V578L183 558V264Q183 158 214 100T333 41Q499 41 499 237V559L413 578V611H636V578L556 559V236Q556 141 508 66Z" />
<glyph unicode="V" glyph-name="V" horiz-adv-x="600" d="M273 -10L77 558L5 578V611H222V578L163 558L312 126L318 101L324 126L463 558L391 578V611H595V578L523 558L336 2L273 -10Z" />
<glyph unicode="W" glyph-name="W" horiz-adv-x="748" d="M569 611H776V578L703 558L566 2L510 -9L375 418L254 2L199 -9L48 558L-24 578V611H195V578L137 558L238 149L349 558L415 570L543 137L640 558L569 578V611Z" />
<glyph unicode="X" glyph-name="X" horiz-adv-x="565" d="M208 33V0H1V33L70 53L235 307L74 558L7 578V611H231V578L174 558L298 363L422 558L355 578V611H561V578L492 558L331 311L498 52L566 33V0H340V33L399 52L268 254L140 53L208 33Z" />
<glyph unicode="Y" glyph-name="Y" horiz-adv-x="567" d="M363 578V611H569V578L497 558L329 224V53L436 33V0H140V33L247 53V224L80 558L12 578V611H237V578L179 558L304 297L434 558L363 578Z" />
<glyph unicode="Z" glyph-name="Z" horiz-adv-x="518" d="M474 147L463 0H61L43 33L370 558H133L111 479H73L64 611H466L471 579L147 54H398L435 147H474Z" />
<glyph unicode="[" glyph-name="bracketleft" horiz-adv-x="278" d="M257 -166H68V696H257V663L140 656V-124L257 -132V-166Z" />
<glyph unicode="\" glyph-name="backslash" horiz-adv-x="342" d="M64 696L336 -138H278L8 696H64Z" />
<glyph unicode="]" glyph-name="bracketright" horiz-adv-x="278" d="M21 696H210V-166H21V-132L138 -124V656L21 663V696Z" />
<glyph unicode="^" glyph-name="asciicircum" horiz-adv-x="509" d="M50 252L227 610H284L460 252H391L256 532L119 252H50Z" />
<glyph unicode="_" glyph-name="underscore" horiz-adv-x="440" d="M440 -59H0V-19H440V-59Z" />
<glyph unicode="`" glyph-name="grave" horiz-adv-x="255" d="M228 558L12 661V679L89 707L242 577L228 558Z" />
<glyph unicode="a" glyph-name="a" horiz-adv-x="509" d="M180 446T132 432L108 346H78L61 463Q160 500 249 500Q323 500 362 475T401 391V58L491 40V12Q439 -4 386 -4Q361 -4 343 10T320 51Q235 -11 147 -11Q97 -11 69 26T40 112Q40 228 167 251L318 278V362Q318
404 299 425T231 446Q180 446 132 432ZM167 209T147 185T127 127Q127 51 200 51Q226 51 257 62T318 88V234L214 217Q167 209 147 185Z" />
<glyph unicode="b" glyph-name="b" horiz-adv-x="555" d="M191 485T221 492T277 500Q391 500 452 438T514 249Q514 137 460 64T274 -10Q232 -10 174 -2T83 18V656L-5 666V689L142 727H167V474Q191 485 221 492ZM183 45T209 40T266 34Q354 34 388 85T422 247Q422
352 389 402T270 452Q240 452 217 446T167 429V52Q183 45 209 40Z" />
<glyph unicode="c" glyph-name="c" horiz-adv-x="440" d="M147 -10T94 60T41 243Q41 359 93 429T257 500Q302 500 338 493T417 469L398 346H367L343 436Q302 449 258 449Q187 449 160 398T133 246Q133 148 161 96T262 44Q301 44 342 50T413 66L419 34Q374 11 338
1T257 -10Q147 -10 94 60Z" />
<glyph unicode="d" glyph-name="d" horiz-adv-x="573" d="M347 18T308 4T219 -10Q162 -10 122 24T61 116T41 243Q41 363 101 431T269 500Q296 500 322 496T367 485T386 478V656L296 666V689L442 727H469V58L558 40V12Q506 -4 452 -4Q431 -4 412 9T389 46Q347 18
308 4ZM316 48T386 87V423Q333 453 272 453Q205 453 169 398T133 246Q133 155 164 102T258 48Q316 48 386 87Z" />
<glyph unicode="e" glyph-name="e" horiz-adv-x="471" d="M151 -11T95 53T38 243Q38 368 93 434T252 500Q348 500 394 455T440 312Q440 300 438 262H130V230Q130 142 169 92T277 42Q310 42 350 48T427 64L433 33Q390 9 352 -1T263 -11Q151 -11 95 53ZM350 307V330Q350
392 328 421T258 451Q194 451 165 416T132 297L350 307Z" />
<glyph unicode="f" glyph-name="f" horiz-adv-x="357" d="M31 28L120 53V441H41V470L120 490Q120 563 145 616T214 698T315 727Q340 727 368 722T412 708L399 594H363L350 658Q327 669 297 669Q245 669 225 635T205 530V491H355V432L204 441V53L319 28V0H31V28Z" />
<glyph unicode="g" glyph-name="g" horiz-adv-x="510" d="M102 -177T67 -151T32 -80Q32 -55 45 -27T90 28Q59 44 59 83Q59 104 75 129T121 186Q59 229 59 330Q59 375 79 413T141 476T241 500Q275 500 300 494T350 474L492 511V441H379Q400 422 411 392T422 330Q422
259 377 212T230 164Q205 164 183 167T160 172Q145 152 139 140T133 116Q133 104 141 94T164 84H329Q402 84 439 64T476 -15Q476 -55 448 -92T358 -153T206 -177Q102 -177 67 -151ZM296 211T317 241T338 330Q338 387 315 420T240 453Q187 453 166 421T144 330Q144
272 166 242T243 211Q296 211 317 241ZM313 -127T358 -101T404 -30Q404 -1 388 9T334 20H138Q105 -21 105 -59Q105 -96 128 -111T214 -127Q313 -127 358 -101Z" />
<glyph unicode="h" glyph-name="h" horiz-adv-x="617" d="M340 0V32L423 53V374Q423 401 415 415T385 434T323 440Q290 440 256 436T196 424V53L279 32V0H22V32L112 53V656L23 666V689L171 727H196V460Q233 476 281 488T373 500Q432 500 469 474T507 391V53L596
32V0H340Z" />
<glyph unicode="i" glyph-name="i" horiz-adv-x="311" d="M136 580T118 596T100 637Q100 662 118 679T160 697Q184 697 202 679T220 637Q220 613 202 597T160 580Q136 580 118 596ZM30 0V32L119 53V430L30 440V463L177 500H202V53L291 32V0H30Z" />
<glyph unicode="j" glyph-name="j" horiz-adv-x="298" d="M219 614T202 598T160 581Q137 581 120 597T103 637Q103 661 120 679T160 697Q184 697 201 679T219 637Q219 614 202 598ZM173 500H200V57Q200 -64 169 -115T77 -167Q63 -167 41 -162T-4 -144L1 -113H47Q83
-113 99 -85T116 -20V430L27 440V463L173 500Z" />
<glyph unicode="k" glyph-name="k" horiz-adv-x="551" d="M258 0H22V32L113 53V656L22 666V689L172 727H197V53L258 32V0ZM561 0H337V32L381 49L213 258L361 441L274 462V491H531V462L436 441L298 276L482 51L561 31V0Z" />
<glyph unicode="l" glyph-name="l" horiz-adv-x="297" d="M17 0V33L107 53V656L17 666V689L163 727H190V53L280 33V0H17Z" />
<glyph unicode="m" glyph-name="m" horiz-adv-x="901" d="M28 28L117 53V430L28 440V463L174 500H201V460Q235 476 281 488T369 500Q401 500 429 490T473 460Q513 476 563 488T663 500Q725 500 757 473T789 391V53L880 28V0H631V28L706 53V374Q706 400 698 414T668
434T604 440Q576 440 545 436T490 424Q494 413 494 391V53L569 28V0H337V28L411 53V374Q411 401 403 415T372 434T308 440Q282 440 252 436T201 424V53L274 28V0H28V28Z" />
<glyph unicode="n" glyph-name="n" horiz-adv-x="624" d="M238 475T287 487T382 500Q441 500 478 474T515 391V53L605 28V0H350V28L432 53V374Q432 401 424 415T394 434T332 440Q300 440 265 436T203 424V53L285 28V0H31V28L120 53V430L31 440V463L176 500H203V460Q238
475 287 487Z" />
<glyph unicode="o" glyph-name="o" horiz-adv-x="547" d="M394 500T450 430T506 243Q506 130 449 60T274 -10Q156 -10 99 60T41 243Q41 358 98 429T274 500Q394 500 450 430ZM414 344T383 398T271 453Q195 453 164 398T133 246Q133 147 165 93T277 38Q355 38 384
92T414 246Q414 344 383 398Z" />
<glyph unicode="p" glyph-name="p" horiz-adv-x="577" d="M17 -139L106 -113V430L17 440V463Q76 478 149 489T276 500Q417 500 476 431T535 243Q535 133 479 67T320 0Q275 0 238 11L250 48Q268 46 284 46Q378 46 410 101T443 247Q443 305 433 348T387 421T284
451Q242 451 189 434V-112L290 -138V-167H17V-139Z" />
<glyph unicode="q" glyph-name="q" horiz-adv-x="560" d="M560 -139V-167H301V-139L390 -113V46Q347 16 313 3T221 -10Q136 -10 90 61T43 243Q43 357 100 428T267 500Q349 500 418 463L444 494H470V-113L560 -139ZM328 453T269 453Q203 453 169 400T135 258Q135
146 167 98T260 49Q297 49 330 59T387 88V419Q328 453 269 453Z" />
<glyph unicode="r" glyph-name="r" horiz-adv-x="399" d="M255 436T200 417V53L313 30V0H28V28L117 54V428L28 440V463L162 500H197V454Q232 476 273 489T352 502Q369 502 378 501L363 357H330L309 436Q255 436 200 417Z" />
<glyph unicode="s" glyph-name="s" horiz-adv-x="420" d="M173 449T147 431T121 378Q121 346 136 330T193 299L265 273Q329 251 352 222T376 142Q376 71 329 31T191 -10Q156 -10 116 -3T43 16L57 132H88L109 50Q151 38 196 38Q246 38 273 60T301 127Q301 153 283
170T217 205L154 227Q100 247 76 278T51 359Q51 426 94 463T224 500Q288 500 358 468L342 361H312L291 434Q278 440 258 444T221 449Q173 449 147 431Z" />
<glyph unicode="t" glyph-name="t" horiz-adv-x="354" d="M301 3T249 -3T174 -9Q132 -9 114 14T96 73V440H23V476L104 501L141 601H178V491H343V432L178 440V58L329 38V11Q301 3 249 -3Z" />
<glyph unicode="u" glyph-name="u" horiz-adv-x="597" d="M524 -4T473 -4Q452 -4 433 9T409 46L385 36Q334 14 296 2T217 -10Q157 -10 130 24T103 109V430L14 440V463L161 500H187V120Q187 84 203 68T268 52Q293 52 332 61T404 83V430L314 440V463L461 500H488V58L579
40V12Q524 -4 473 -4Z" />
<glyph unicode="v" glyph-name="v" horiz-adv-x="500" d="M428 441L256 -4L217 -13L41 441L-19 462L-20 491H194L195 462L129 441L250 112L371 441L286 462V491H494V462L428 441Z" />
<glyph unicode="w" glyph-name="w" horiz-adv-x="734" d="M687 441L539 -4L490 -13L373 324L261 -4L212 -13L56 441L0 462V491H203V462L141 441L251 112L360 446L413 453L529 112L632 441L546 462V491H750V462L687 441Z" />
<glyph unicode="x" glyph-name="x" horiz-adv-x="503" d="M511 0H289V32L341 49L241 194L145 50L208 32V0H8V32L80 51L207 240L68 446L12 460V491H206V457L159 449L260 303L356 447L295 458V491H479V458L423 448L292 257L434 51L511 31V0Z" />
<glyph unicode="y" glyph-name="y" horiz-adv-x="489" d="M207 462L151 441L269 122L374 441L300 462V491H494V462L430 441L286 34Q249 -69 210 -118T111 -167Q73 -167 33 -144L39 -112H81Q117 -112 141 -100T184 -60T227 20L60 441L2 462V491H207V462Z" />
<glyph unicode="z" glyph-name="z" horiz-adv-x="460" d="M313 438H114L98 362H61L48 491H405L422 458L140 51H349L380 130H415L406 0H52L36 34L313 438Z" />
<glyph unicode="{" glyph-name="braceleft" horiz-adv-x="278" d="M102 674L259 711L270 684L179 647L200 291L99 259L200 228L179 -129L270 -166L259 -192L102 -157L124 217L53 252V267L124 302L102 674Z" />
<glyph unicode="|" glyph-name="bar" horiz-adv-x="359" d="M216 696V-138H143V696H216Z" />
<glyph unicode="}" glyph-name="braceright" horiz-adv-x="278" d="M19 -192L8 -166L99 -129L78 228L179 259L78 291L99 647L8 684L19 711L174 674L153 302L224 267V252L153 217L174 -157L19 -192Z" />
<glyph unicode="~" glyph-name="asciitilde" horiz-adv-x="509" d="M139 283T121 271T83 228L53 248Q100 342 166 342Q186 342 205 336T254 316Q283 303 302 297T341 290Q368 290 385 302T422 344L454 324Q402 230 337 230Q320 230 301 236T250 256Q192 283 162
283Q139 283 121 271Z" />
<glyph unicode="&#xa0;" glyph-name="uni00A0" horiz-adv-x="203" />
<glyph unicode="&#xa1;" glyph-name="exclamdown" horiz-adv-x="203" d="M47 469T62 484T101 500Q124 500 141 484T158 446Q158 422 142 406T101 389Q78 389 63 405T47 446Q47 469 62 484ZM156 -120H52L83 304H124L156 -120Z" />
<glyph unicode="&#xa2;" glyph-name="cent" horiz-adv-x="502" d="M157 45T109 115T60 304Q60 434 116 500T269 573V693H317V573Q353 571 392 563T458 540L448 413H408L384 508Q364 514 338 518T290 523Q217 523 183 468T148 309Q148 201 180 142T297 83Q341 83
382 90T453 109L460 77Q424 56 383 44T301 30V-90H253V32Q157 45 109 115Z" />
<glyph unicode="&#xa3;" glyph-name="sterling" horiz-adv-x="502" d="M222 126T197 96T140 50L418 60L468 104L484 90L456 0H56L42 41Q42 39 70 56T121 97T144 153V263H42L50 307H144Q144 421 156 486T203 585T307 619Q385 619 454 591L444 464H404L382 558Q348
566 321 566Q278 566 257 539T229 465T222 343V307H418L409 263H222V151Q222 126 197 96Z" />
<glyph unicode="&#xa4;" glyph-name="currency" horiz-adv-x="547" d="M110 131Q73 184 73 249Q73 311 110 366L57 419L107 468L159 414Q211 452 276 452Q341 452 393 414L446 467L494 419L441 366Q479 310 479 249Q479 181 441 131L494 80L447 30L393 83Q344
47 276 47Q211 47 159 83L104 29L57 79L110 131ZM137 210T155 178T206 128T276 109Q314 109 346 127T398 178T417 248Q417 286 398 318T347 370T276 389Q238 389 206 370T156 319T137 248Q137 210 155 178Z" />
<glyph unicode="&#xa5;" glyph-name="yen" horiz-adv-x="502" d="M42 329V368H147L59 558L-3 578V611H211V578L157 558L269 297L384 558L319 578V611H511V578L443 558L356 368H459V329H337L309 268H459V227H291V53L388 33V0H113V33L210 53V227H42V268H193L164 329H42Z" />
<glyph unicode="&#xa6;" glyph-name="brokenbar" horiz-adv-x="359" d="M216 696V373H143V696H216ZM216 184V-138H143V184H216Z" />
<glyph unicode="&#xa7;" glyph-name="section" horiz-adv-x="328" d="M238 572T216 575T174 578Q135 578 112 566T89 513Q89 485 119 455T209 377Q265 334 293 305T322 251Q322 230 318 217Q255 269 169 337Q101 391 74 414T35 460T23 514Q23 570 66 598T173 627Q208
627 239 621T291 608T316 599L299 493H268L249 569Q238 572 216 575ZM74 50Q119 37 158 37Q201 37 229 57T257 113Q257 138 228 166T141 239Q80 285 50 315T19 373Q19 397 23 404Q88 350 190 270Q253 220 278 198T315 158T326 118Q326 61 282 26T169 -9Q101 -9
58 1T14 12L26 130H53L74 50Z" />
<glyph unicode="&#xa8;" glyph-name="dieresis" horiz-adv-x="255" d="M87 613T70 597T30 580Q7 580 -10 596T-27 635Q-27 659 -10 676T30 693Q53 693 70 676T87 635Q87 613 70 597ZM282 613T265 597T224 580Q201 580 184 596T167 635Q167 659 184 676T224 693Q247
693 264 676T282 635Q282 613 265 597Z" />
<glyph unicode="&#xa9;" glyph-name="copyright" horiz-adv-x="494" d="M4 518T36 574T125 663T247 696Q312 696 368 663T457 574T490 452Q490 387 457 331T368 242T247 209Q181 209 126 242T37 331T4 452Q4 518 36 574ZM37 393T65 345T141 269T247 241Q306 241
354 269T430 345T458 452Q458 511 430 559T354 635T247 663Q189 663 141 635T65 559T37 452Q37 393 65 345ZM320 305T300 301T251 296Q174 296 142 335T110 455Q110 529 144 571T251 614Q290 614 342 599L338 533H314L301 579Q277 585 258 585Q207 585 189 553T170
455Q170 395 187 360T256 324Q274 324 301 330L314 371H338L342 315Q320 305 300 301Z" />
<glyph unicode="&#xaa;" glyph-name="ordfeminine" horiz-adv-x="401" d="M143 608T113 599L96 533H69L57 624Q126 652 201 652Q257 652 287 633T317 569V324L382 310V287Q339 274 302 274Q282 274 267 285T248 316Q215 293 185 281T119 269Q83 269 62 297T40
362Q40 450 136 467L246 486V547Q246 578 232 593T184 608Q143 608 113 599ZM141 434T127 417T112 374Q112 319 163 319Q198 319 246 346V452L174 440Q141 434 127 417Z" />
<glyph unicode="&#xab;" glyph-name="guillemotleft" horiz-adv-x="380" d="M29 248L164 426L198 403L117 248L198 93L164 71L29 248ZM322 71L187 248L322 426L357 403L275 248L357 93L322 71Z" />
<glyph unicode="&#xac;" glyph-name="logicalnot" horiz-adv-x="509" d="M397 137V282H62V336H447V137H397Z" />
<glyph unicode="&#xad;" glyph-name="uni00AD" horiz-adv-x="281" d="M273 212H9V261H273V212Z" />
<glyph unicode="&#xae;" glyph-name="registered" horiz-adv-x="494" d="M181 209T126 242T37 331T4 452Q4 518 36 574T125 663T247 696Q312 696 368 663T457 574T490 452Q490 387 457 331T368 242T247 209Q181 209 126 242ZM306 241T354 269T431 345T459 452Q459
511 431 559T355 635T247 663Q189 663 141 635T64 559T36 452Q36 393 64 345T140 269T247 241Q306 241 354 269ZM124 321L158 330V584L124 591V610H249Q301 610 326 588T352 536Q352 508 337 484T280 450Q290 447 297 438T312 414T324 393L359 330L390 322V304H313Q277
378 263 404T240 437T214 444H208V330L241 321V304H124V321ZM234 463Q264 463 280 481T296 529Q296 556 280 571T228 586H208V463H234Z" />
<glyph unicode="&#xaf;" glyph-name="overscore" horiz-adv-x="255" d="M19 661H236V609H19V661Z" />
<glyph unicode="&#xb0;" glyph-name="degree" horiz-adv-x="441" d="M378 514T357 478T299 421T220 400Q177 400 141 421T84 478T63 557Q63 599 84 635T141 693T220 714Q263 714 299 693T356 635T378 557Q378 514 357 478ZM171 680T142 645T112 557Q112 504 141
469T220 434Q270 434 299 469T328 557Q328 609 299 644T220 680Q171 680 142 645Z" />
<glyph unicode="&#xb1;" glyph-name="plusminus" horiz-adv-x="509" d="M228 117V281H63V334H228V500H280V334H447V281H280V117H228ZM63 30V82H447V30H63Z" />
<glyph unicode="&#xb2;" glyph-name="uni00B2" horiz-adv-x="389" d="M128 674T67 646L50 681Q79 697 115 707T189 718Q253 718 292 690T331 601Q331 560 303 519T226 433L112 329H290L318 385L351 381L342 279H44L34 318L181 461Q219 498 237 530T256 600Q256
634 236 654T180 674Q128 674 67 646Z" />
<glyph unicode="&#xb3;" glyph-name="uni00B3" horiz-adv-x="389" d="M249 714T283 690T317 620Q317 547 231 509Q281 500 309 471T338 396Q338 269 177 269Q103 269 48 292L58 331Q110 311 157 311Q205 311 233 332T261 396Q261 449 226 465T133 482L130 516Q188
522 215 547T242 610Q242 637 224 653T172 669Q135 669 77 641L61 675Q89 692 125 703T197 714Q249 714 283 690Z" />
<glyph unicode="&#xb4;" glyph-name="acute" horiz-adv-x="255" d="M28 558L12 577L166 707L242 679V661L28 558Z" />
<glyph unicode="&#xb5;" glyph-name="uni00B5" horiz-adv-x="500" d="M439 -3T394 -3Q376 -3 361 8T341 38Q300 18 259 5T189 -9Q172 -9 159 -4T140 13L159 -220H87V358L13 366V386L136 416H157V100Q157 70 170 57T224 43Q283 43 338 69V358L263 366V386L386 416H408V48L482
33V10Q439 -3 394 -3Z" />
<glyph unicode="&#xb6;" glyph-name="paragraph" d="M249 233T229 233Q165 233 119 260T48 335T23 440Q23 497 47 544T118 619T229 647Q248 647 261 644V237Q249 233 229 233ZM478 33V0H186V34L300 54V647H478V613L383 592V53L478 33Z" />
<glyph unicode="&#xb7;" glyph-name="middot" horiz-adv-x="230" d="M172 228T156 211T114 194Q91 194 75 211T58 252Q58 277 74 293T114 309Q140 309 156 293T172 252Q172 228 156 211Z" />
<glyph unicode="&#xb8;" glyph-name="cedilla" horiz-adv-x="255" d="M166 -46T193 -66T221 -116Q221 -144 203 -167T153 -205T86 -219Q57 -219 34 -211L42 -186Q62 -192 77 -192Q112 -192 134 -172T156 -124Q156 -103 138 -90T79 -76L76 -67L101 7H131L114 -46Q166
-46 193 -66Z" />
<glyph unicode="&#xb9;" glyph-name="uni00B9" horiz-adv-x="389" d="M69 650V680L253 708V278H182V650H69Z" />
<glyph unicode="&#xba;" glyph-name="ordmasculine" horiz-adv-x="436" d="M310 652T351 600T393 460Q393 376 351 323T219 270Q128 270 85 323T41 460Q41 546 84 599T219 652Q310 652 351 600ZM318 535T296 574T216 614Q160 614 140 575T119 462Q119 388 140
349T220 309Q277 309 297 348T318 462Q318 535 296 574Z" />
<glyph unicode="&#xbb;" glyph-name="guillemotright" horiz-adv-x="380" d="M193 248L57 71L24 93L105 248L24 403L57 426L193 248ZM216 426L351 248L216 71L183 93L263 248L183 403L216 426Z" />
<glyph unicode="&#xbc;" glyph-name="onequarter" horiz-adv-x="870" d="M301 0H242L466 611H524L301 0ZM19 544V574L203 602V172H132V544H19ZM679 0V96H476L464 129L691 434L749 429V142H808V96H749V0H679ZM533 142H679V337L533 142Z" />
<glyph unicode="&#xbd;" glyph-name="onehalf" horiz-adv-x="870" d="M291 0H232L456 611H514L291 0ZM19 543V573L203 601V171H132V543H19ZM574 394T512 367L496 402Q523 418 560 428T634 439Q698 439 737 411T777 322Q777 281 748 239T671 152L558 49H736L763
104L797 102L788 0H490L480 38L627 181Q665 219 683 251T701 320Q701 353 681 373T624 394Q574 394 512 367Z" />
<glyph unicode="&#xbe;" glyph-name="threequarters" horiz-adv-x="910" d="M380 0H321L545 611H603L380 0ZM240 610T274 586T308 516Q308 477 285 449T222 405Q272 397 300 367T329 292Q329 228 288 196T168 164Q103 164 39 187L49 226Q105 207 148 207Q196 207
224 228T252 292Q252 345 217 362T124 379L121 413Q179 419 206 444T233 506Q233 533 215 548T163 564Q123 564 68 536L52 572Q81 588 117 599T188 610Q240 610 274 586ZM719 0V96H516L504 129L731 434L789 429V142H848V96H789V0H719ZM573 142H719V337L573 142Z"
/>
<glyph unicode="&#xbf;" glyph-name="questiondown" horiz-adv-x="389" d="M218 389T202 405T186 446Q186 468 202 484T241 500Q265 500 281 485T297 446Q297 421 281 405T241 389Q218 389 202 405ZM99 -136T56 -99T13 2Q13 70 55 127T209 246L221 332H262L272
221Q207 186 170 156T115 91T97 10Q97 -40 122 -63T198 -86Q215 -86 237 -82T266 -76L286 4H313L324 -101Q297 -115 255 -125T176 -136Q99 -136 56 -99Z" />
<glyph unicode="&#xc0;" glyph-name="Agrave" horiz-adv-x="594" d="M362 648L146 751V769L223 797L376 667L362 648ZM131 52L203 33V0H0V33L72 52L259 611L317 624L514 52L586 33V0H369V33L429 50L393 152H164L131 52ZM276 492L178 198H378L276 492Z" />
<glyph unicode="&#xc1;" glyph-name="Aacute" horiz-adv-x="594" d="M214 650L198 669L352 799L428 771V753L214 650ZM131 52L203 33V0H0V33L72 52L259 611L317 624L514 52L586 33V0H369V33L429 50L393 152H164L131 52ZM276 492L178 198H378L276 492Z" />
<glyph unicode="&#xc2;" glyph-name="Acircumflex" horiz-adv-x="594" d="M398 651L282 733L171 651L154 669L254 800H314L416 669L398 651ZM131 52L203 33V0H0V33L72 52L259 611L317 624L514 52L586 33V0H369V33L429 50L393 152H164L131 52ZM276 492L178 198H378L276
492Z" />
<glyph unicode="&#xc3;" glyph-name="Atilde" horiz-adv-x="594" d="M417 716T401 693T363 669Q345 669 291 689Q237 709 221 709Q211 709 201 701T185 685T176 673L146 685Q165 732 181 755T220 779Q231 779 250 773T290 759Q310 751 330 745T362 739Q372 739
381 747T397 763T405 774L436 762Q417 716 401 693ZM131 52L203 33V0H0V33L72 52L259 611L317 624L514 52L586 33V0H369V33L429 50L393 152H164L131 52ZM276 492L178 198H378L276 492Z" />
<glyph unicode="&#xc4;" glyph-name="Adieresis" horiz-adv-x="594" d="M246 700T229 684T189 667Q166 667 149 683T132 722Q132 746 149 763T189 780Q212 780 229 763T246 722Q246 700 229 684ZM441 700T424 684T383 667Q360 667 343 683T326 722Q326 746 343
763T383 780Q406 780 423 763T441 722Q441 700 424 684ZM131 52L203 33V0H0V33L72 52L259 611L317 624L514 52L586 33V0H369V33L429 50L393 152H164L131 52ZM276 492L178 198H378L276 492Z" />
<glyph unicode="&#xc5;" glyph-name="Aring" horiz-adv-x="594" d="M240 633T214 659T187 728Q187 769 213 795T288 822Q336 822 362 796T388 728Q388 686 362 660T288 633Q240 633 214 659ZM319 668T329 683T339 728Q339 757 329 772T288 788Q258 788 248 773T237
728Q237 698 247 683T288 668Q319 668 329 683ZM0 0V33L72 52L259 611L317 624L514 52L586 33V0H369V33L429 50L393 152H164L131 52L203 33V0H0ZM178 198H378L276 492L178 198Z" />
<glyph unicode="&#xc6;" glyph-name="AE" horiz-adv-x="736" d="M-14 0V33L58 53L327 564L260 578V611H660V479H621L600 559H437L454 310H559L580 376H617V194H580L557 263H457L471 56H632L658 147H697V0H297V33L390 53L376 263H229L121 53L190 34V0H-14ZM253
310H373L359 515L253 310Z" />
<glyph unicode="&#xc7;" glyph-name="Ccedilla" horiz-adv-x="526" d="M317 -9L305 -46Q357 -46 384 -66T412 -116Q412 -144 394 -167T344 -205T277 -219Q248 -219 225 -211L233 -186Q253 -192 268 -192Q303 -192 325 -172T347 -124Q347 -103 329 -90T270 -76L267
-67L287 -7Q162 4 102 90T41 309Q41 451 110 539T324 627Q380 627 418 620T502 597L493 470H457L432 567Q379 578 340 578Q131 578 131 309Q131 196 179 118T337 39Q384 39 432 54L457 138H494L502 23Q459 7 419 -1T324 -9H317Z" />
<glyph unicode="&#xc8;" glyph-name="Egrave" horiz-adv-x="544" d="M387 650L171 753V771L248 799L401 669L387 650ZM39 0V33L134 53V558L39 578V611H473V479H434L413 559H217V323H362L383 389H419V208H383L359 277H217V56H433L459 147H498V0H39Z" />
<glyph unicode="&#xc9;" glyph-name="Eacute" horiz-adv-x="544" d="M209 650L193 669L347 799L423 771V753L209 650ZM39 0V33L134 53V558L39 578V611H473V479H434L413 559H217V323H362L383 389H419V208H383L359 277H217V56H433L459 147H498V0H39Z" />
<glyph unicode="&#xca;" glyph-name="Ecircumflex" horiz-adv-x="544" d="M393 651L277 733L166 651L149 669L249 800H309L411 669L393 651ZM383 389H419V208H383L359 277H217V56H433L459 147H498V0H39V33L134 53V558L39 578V611H473V479H434L413 559H217V323H362L383
389Z" />
<glyph unicode="&#xcb;" glyph-name="Edieresis" horiz-adv-x="544" d="M244 700T227 684T187 667Q164 667 147 683T130 722Q130 746 147 763T187 780Q210 780 227 763T244 722Q244 700 227 684ZM439 700T422 684T381 667Q358 667 341 683T324 722Q324 746 341
763T381 780Q404 780 421 763T439 722Q439 700 422 684ZM383 389H419V208H383L359 277H217V56H433L459 147H498V0H39V33L134 53V558L39 578V611H473V479H434L413 559H217V323H362L383 389Z" />
<glyph unicode="&#xcc;" glyph-name="Igrave" horiz-adv-x="339" d="M269 650L53 753V771L130 799L283 669L269 650ZM38 0V33L128 53V558L38 578V611H301V578L211 558V53L301 33V0H38Z" />
<glyph unicode="&#xcd;" glyph-name="Iacute" horiz-adv-x="339" d="M73 650L57 669L211 799L287 771V753L73 650ZM38 0V33L128 53V558L38 578V611H301V578L211 558V53L301 33V0H38Z" />
<glyph unicode="&#xce;" glyph-name="Icircumflex" horiz-adv-x="339" d="M55 651L38 669L138 800H198L300 669L282 651L166 733L55 651ZM38 0V33L128 53V558L38 578V611H301V578L211 558V53L301 33V0H38Z" />
<glyph unicode="&#xcf;" glyph-name="Idieresis" horiz-adv-x="339" d="M50 667T33 683T16 722Q16 746 33 763T73 780Q96 780 113 763T130 722Q130 700 113 684T73 667Q50 667 33 683ZM244 667T227 683T210 722Q210 746 227 763T267 780Q290 780 307 763T325 722Q325
700 308 684T267 667Q244 667 227 683ZM38 0V33L128 53V558L38 578V611H301V578L211 558V53L301 33V0H38Z" />
<glyph unicode="&#xd0;" glyph-name="Eth" horiz-adv-x="639" d="M38 33L128 53V277H41V323H128V558L38 578V611H300Q455 611 526 534T598 318Q598 176 530 88T317 0H38V33ZM430 41T469 124T508 318Q508 431 451 497T290 564Q245 564 211 558V323H323V277H211V58Q230
51 264 46T328 41Q430 41 469 124Z" />
<glyph unicode="&#xd1;" glyph-name="Ntilde" horiz-adv-x="694" d="M482 716T466 693T428 669Q410 669 356 689Q302 709 286 709Q276 709 266 701T250 685T241 673L211 685Q230 732 246 755T285 779Q296 779 315 773T355 759Q375 751 395 745T427 739Q437 739
446 747T462 763T470 774L501 762Q482 716 466 693ZM442 611H664V578L583 559V0L521 -10L172 488V53L258 33V0H34V33L114 53V559L34 578V611H182L527 130V559L442 578V611Z" />
<glyph unicode="&#xd2;" glyph-name="Ograve" horiz-adv-x="658" d="M422 650L206 753V771L283 799L436 669L422 650ZM477 626T547 538T617 308Q617 167 547 79T330 -9Q184 -9 113 79T41 308Q41 449 112 537T330 626Q477 626 547 538ZM527 416T482 497T324 578Q216
578 174 498T131 308Q131 201 176 120T333 39Q443 39 485 119T527 308Q527 416 482 497Z" />
<glyph unicode="&#xd3;" glyph-name="Oacute" horiz-adv-x="658" d="M477 626T547 538T617 308Q617 167 547 79T330 -9Q184 -9 113 79T41 308Q41 449 112 537T330 626Q477 626 547 538ZM527 416T482 497T324 578Q216 578 174 498T131 308Q131 201 176 120T333
39Q443 39 485 119T527 308Q527 416 482 497ZM283 650L267 669L421 799L497 771V753L283 650Z" />
<glyph unicode="&#xd4;" glyph-name="Ocircumflex" horiz-adv-x="658" d="M443 651L327 733L216 651L199 669L299 800H359L461 669L443 651ZM477 626T547 538T617 308Q617 167 547 79T330 -9Q184 -9 113 79T41 308Q41 449 112 537T330 626Q477 626 547 538ZM527
416T482 497T324 578Q216 578 174 498T131 308Q131 201 176 120T333 39Q443 39 485 119T527 308Q527 416 482 497Z" />
<glyph unicode="&#xd5;" glyph-name="Otilde" horiz-adv-x="658" d="M455 716T439 693T401 669Q383 669 329 689Q275 709 259 709Q249 709 239 701T223 685T214 673L184 685Q203 732 219 755T258 779Q269 779 288 773T328 759Q348 751 368 745T400 739Q410 739
419 747T435 763T443 774L474 762Q455 716 439 693ZM477 626T547 538T617 308Q617 167 547 79T330 -9Q184 -9 113 79T41 308Q41 449 112 537T330 626Q477 626 547 538ZM527 416T482 497T324 578Q216 578 174 498T131 308Q131 201 176 120T333 39Q443 39 485 119T527
308Q527 416 482 497Z" />
<glyph unicode="&#xd6;" glyph-name="Odieresis" horiz-adv-x="658" d="M289 701T272 685T232 668Q209 668 192 684T175 723Q175 747 192 764T232 781Q255 781 272 764T289 723Q289 701 272 685ZM484 701T467 685T426 668Q403 668 386 684T369 723Q369 747 386
764T426 781Q449 781 466 764T484 723Q484 701 467 685ZM477 626T547 538T617 308Q617 167 547 79T330 -9Q184 -9 113 79T41 308Q41 449 112 537T330 626Q477 626 547 538ZM527 416T482 497T324 578Q216 578 174 498T131 308Q131 201 176 120T333 39Q443 39 485
119T527 308Q527 416 482 497Z" />
<glyph unicode="&#xd7;" glyph-name="multiply" horiz-adv-x="509" d="M123 141L86 180L217 310L86 441L124 479L254 348L384 478L422 441L291 310L422 180L386 142L254 273L123 141Z" />
<glyph unicode="&#xd8;" glyph-name="Oslash" horiz-adv-x="658" d="M199 16Q119 51 80 128T41 308Q41 449 112 537T330 626Q362 626 395 621L423 708H484L451 606Q536 573 576 494T617 308Q617 167 547 79T330 -9Q296 -9 254 -2L224 -96H163L199 16ZM379 572Q353
578 324 578Q216 578 174 498T131 308Q131 238 151 175T218 75L379 572ZM443 39T485 119T527 308Q527 382 506 447T432 548L270 48Q298 39 333 39Q443 39 485 119Z" />
<glyph unicode="&#xd9;" glyph-name="Ugrave" horiz-adv-x="651" d="M392 650L176 753V771L253 799L406 669L392 650ZM556 141T508 66T329 -10Q235 -10 185 26T117 122T100 264V558L9 578V611H273V578L183 558V264Q183 158 214 100T333 41Q499 41 499 237V559L413
578V611H636V578L556 559V236Q556 141 508 66Z" />
<glyph unicode="&#xda;" glyph-name="Uacute" horiz-adv-x="651" d="M247 650L231 669L385 799L461 771V753L247 650ZM556 141T508 66T329 -10Q235 -10 185 26T117 122T100 264V558L9 578V611H273V578L183 558V264Q183 158 214 100T333 41Q499 41 499 237V559L413
578V611H636V578L556 559V236Q556 141 508 66Z" />
<glyph unicode="&#xdb;" glyph-name="Ucircumflex" horiz-adv-x="651" d="M456 651L340 733L229 651L212 669L312 800H372L474 669L456 651ZM556 141T508 66T329 -10Q235 -10 185 26T117 122T100 264V558L9 578V611H273V578L183 558V264Q183 158 214 100T333 41Q499
41 499 237V559L413 578V611H636V578L556 559V236Q556 141 508 66Z" />
<glyph unicode="&#xdc;" glyph-name="Udieresis" horiz-adv-x="651" d="M302 700T285 684T245 667Q222 667 205 683T188 722Q188 746 205 763T245 780Q268 780 285 763T302 722Q302 700 285 684ZM497 700T480 684T439 667Q416 667 399 683T382 722Q382 746 399
763T439 780Q462 780 479 763T497 722Q497 700 480 684ZM556 141T508 66T329 -10Q235 -10 185 26T117 122T100 264V558L9 578V611H273V578L183 558V264Q183 158 214 100T333 41Q499 41 499 237V559L413 578V611H636V578L556 559V236Q556 141 508 66Z" />
<glyph unicode="&#xdd;" glyph-name="Yacute" horiz-adv-x="567" d="M204 650L188 669L342 799L418 771V753L204 650ZM355 578V611H561V578L489 558L321 224V53L428 33V0H132V33L239 53V224L72 558L4 578V611H229V578L171 558L296 297L426 558L355 578Z" />
<glyph unicode="&#xde;" glyph-name="Thorn" horiz-adv-x="500" d="M38 33L128 53V558L38 578V611H301V578L211 558V489H252Q358 489 419 446T480 319Q480 227 423 177T279 127Q243 127 211 134V53L301 33V0H38V33ZM315 167T352 201T389 311Q389 380 354 413T261
447Q241 447 211 440V171Q231 167 256 167Q315 167 352 201Z" />
<glyph unicode="&#xdf;" glyph-name="germandbls" horiz-adv-x="599" d="M361 -10T296 16L308 130H340L361 48Q392 36 428 36Q465 36 483 55T502 104Q502 131 488 153T455 192T399 236Q348 272 322 300T296 366Q296 388 307 405T342 445Q370 474 384 497T399 552Q399
595 375 623T299 651Q239 651 220 619T201 519V53L278 36V0H28V28L117 53V441H38V470L117 490Q117 700 304 700Q354 700 396 680T462 628T486 561Q486 530 471 510T427 464Q401 442 388 425T375 384Q375 366 393 349T448 304Q490 272 516 248T561 191T581 119Q581
59 539 25T420 -10Q361 -10 296 16Z" />
<glyph unicode="&#xe0;" glyph-name="agrave" horiz-adv-x="509" d="M321 558L105 661V679L182 707L335 577L321 558ZM180 446T132 432L108 346H78L61 463Q160 500 249 500Q323 500 362 475T401 391V58L491 40V12Q439 -4 386 -4Q361 -4 343 10T320 51Q235 -11
147 -11Q97 -11 69 26T40 112Q40 228 167 251L318 278V362Q318 404 299 425T231 446Q180 446 132 432ZM167 209T147 185T127 127Q127 51 200 51Q226 51 257 62T318 88V234L214 217Q167 209 147 185Z" />
<glyph unicode="&#xe1;" glyph-name="aacute" horiz-adv-x="509" d="M180 446T132 432L108 346H78L61 463Q160 500 249 500Q323 500 362 475T401 391V58L491 40V12Q439 -4 386 -4Q361 -4 343 10T320 51Q235 -11 147 -11Q97 -11 69 26T40 112Q40 228 167 251L318
278V362Q318 404 299 425T231 446Q180 446 132 432ZM167 209T147 185T127 127Q127 51 200 51Q226 51 257 62T318 88V234L214 217Q167 209 147 185ZM175 558L159 577L313 707L389 679V661L175 558Z" />
<glyph unicode="&#xe2;" glyph-name="acircumflex" horiz-adv-x="509" d="M336 552L229 642L121 552L100 570L198 709H258L358 570L336 552ZM180 446T132 432L108 346H78L61 463Q160 500 249 500Q323 500 362 475T401 391V58L491 40V12Q439 -4 386 -4Q361 -4 343
10T320 51Q235 -11 147 -11Q97 -11 69 26T40 112Q40 228 167 251L318 278V362Q318 404 299 425T231 446Q180 446 132 432ZM167 209T147 185T127 127Q127 51 200 51Q226 51 257 62T318 88V234L214 217Q167 209 147 185Z" />
<glyph unicode="&#xe3;" glyph-name="atilde" horiz-adv-x="509" d="M362 629T346 606T308 582Q290 582 236 602Q182 622 166 622Q156 622 146 614T130 598T121 586L91 598Q110 645 126 668T165 692Q176 692 195 686T235 672Q255 664 275 658T307 652Q317 652
326 660T342 676T350 687L381 675Q362 629 346 606ZM180 446T132 432L108 346H78L61 463Q160 500 249 500Q323 500 362 475T401 391V58L491 40V12Q439 -4 386 -4Q361 -4 343 10T320 51Q235 -11 147 -11Q97 -11 69 26T40 112Q40 228 167 251L318 278V362Q318 404
299 425T231 446Q180 446 132 432ZM167 209T147 185T127 127Q127 51 200 51Q226 51 257 62T318 88V234L214 217Q167 209 147 185Z" />
<glyph unicode="&#xe4;" glyph-name="adieresis" horiz-adv-x="509" d="M191 613T174 597T134 580Q111 580 94 596T77 635Q77 659 94 676T134 693Q157 693 174 676T191 635Q191 613 174 597ZM386 613T369 597T328 580Q305 580 288 596T271 635Q271 659 288 676T328
693Q351 693 368 676T386 635Q386 613 369 597ZM180 446T132 432L108 346H78L61 463Q160 500 249 500Q323 500 362 475T401 391V58L491 40V12Q439 -4 386 -4Q361 -4 343 10T320 51Q235 -11 147 -11Q97 -11 69 26T40 112Q40 228 167 251L318 278V362Q318 404 299
425T231 446Q180 446 132 432ZM167 209T147 185T127 127Q127 51 200 51Q226 51 257 62T318 88V234L214 217Q167 209 147 185Z" />
<glyph unicode="&#xe5;" glyph-name="aring" horiz-adv-x="509" d="M334 585T308 557T231 529Q181 529 154 557T127 629Q127 674 153 702T231 730Q281 730 307 702T334 629Q334 585 308 557ZM202 695T192 678T181 629Q181 598 191 581T231 564Q259 564 269 581T280
629Q280 661 270 678T231 695Q202 695 192 678ZM180 446T132 432L108 346H78L61 463Q160 500 249 500Q323 500 362 475T401 391V58L491 40V12Q439 -4 386 -4Q361 -4 343 10T320 51Q235 -11 147 -11Q97 -11 69 26T40 112Q40 228 167 251L318 278V362Q318 404 299
425T231 446Q180 446 132 432ZM167 209T147 185T127 127Q127 51 200 51Q226 51 257 62T318 88V234L214 217Q167 209 147 185Z" />
<glyph unicode="&#xe6;" glyph-name="ae" horiz-adv-x="676" d="M81 -10T56 27T30 119Q30 159 59 189T158 234L287 260V363Q287 405 270 425T205 446Q167 446 120 432L98 347H67L50 463Q97 481 136 490T222 500Q274 500 307 487T357 443Q407 500 481 500Q557 500
606 458T656 319Q656 297 654 283L364 231Q364 134 393 89T488 43Q559 43 631 64L638 33Q597 10 559 0T470 -11Q404 -11 370 7T305 63Q271 36 251 23T204 0T140 -10Q81 -10 56 27ZM567 316Q567 449 481 449Q427 449 398 406T365 273L567 316ZM213 48T235 58T287
91V217L202 201Q151 192 133 175T115 126Q115 90 133 69T187 48Q213 48 235 58Z" />
<glyph unicode="&#xe7;" glyph-name="ccedilla" horiz-adv-x="440" d="M186 -219T163 -211L171 -186Q190 -192 206 -192Q241 -192 263 -172T285 -124Q285 -103 267 -90T208 -76L205 -67L225 -8Q130 2 85 70T39 243Q39 359 91 429T255 500Q300 500 336 493T415
469L396 346H365L341 436Q300 449 256 449Q185 449 158 398T131 246Q131 148 159 96T260 44Q299 44 340 50T411 66L417 34Q372 11 336 1T255 -10L243 -46Q295 -46 322 -66T350 -116Q350 -144 332 -167T282 -205T215 -219Q186 -219 163 -211Z" />
<glyph unicode="&#xe8;" glyph-name="egrave" horiz-adv-x="471" d="M330 558L114 661V679L191 707L344 577L330 558ZM151 -11T95 53T38 243Q38 368 93 434T252 500Q348 500 394 455T440 312Q440 300 438 262H130V230Q130 142 169 92T277 42Q310 42 350 48T427
64L433 33Q390 9 352 -1T263 -11Q151 -11 95 53ZM350 307V330Q350 392 328 421T258 451Q194 451 165 416T132 297L350 307Z" />
<glyph unicode="&#xe9;" glyph-name="eacute" horiz-adv-x="471" d="M170 558L154 577L308 707L384 679V661L170 558ZM151 -11T95 53T38 243Q38 368 93 434T252 500Q348 500 394 455T440 312Q440 300 438 262H130V230Q130 142 169 92T277 42Q310 42 350 48T427
64L433 33Q390 9 352 -1T263 -11Q151 -11 95 53ZM350 307V330Q350 392 328 421T258 451Q194 451 165 416T132 297L350 307Z" />
<glyph unicode="&#xea;" glyph-name="ecircumflex" horiz-adv-x="471" d="M144 552L123 570L221 709H281L381 570L359 552L252 642L144 552ZM151 -11T95 53T38 243Q38 368 93 434T252 500Q348 500 394 455T440 312Q440 300 438 262H130V230Q130 142 169 92T277
42Q310 42 350 48T427 64L433 33Q390 9 352 -1T263 -11Q151 -11 95 53ZM350 307V330Q350 392 328 421T258 451Q194 451 165 416T132 297L350 307Z" />
<glyph unicode="&#xeb;" glyph-name="edieresis" horiz-adv-x="471" d="M131 580T114 596T97 635Q97 659 114 676T154 693Q177 693 194 676T211 635Q211 613 194 597T154 580Q131 580 114 596ZM325 580T308 596T291 635Q291 659 308 676T348 693Q371 693 388 676T406
635Q406 613 389 597T348 580Q325 580 308 596ZM151 -11T95 53T38 243Q38 368 93 434T252 500Q348 500 394 455T440 312Q440 300 438 262H130V230Q130 142 169 92T277 42Q310 42 350 48T427 64L433 33Q390 9 352 -1T263 -11Q151 -11 95 53ZM350 307V330Q350 392
328 421T258 451Q194 451 165 416T132 297L350 307Z" />
<glyph unicode="&#xec;" glyph-name="igrave" horiz-adv-x="314" d="M211 558L-5 661V679L72 707L225 577L211 558ZM291 32V0H30V32L119 53V430L30 440V463L177 500H202V53L291 32Z" />
<glyph unicode="&#xed;" glyph-name="iacute" horiz-adv-x="314" d="M54 558L38 577L192 707L268 679V661L54 558ZM291 32V0H30V32L119 53V430L30 440V463L177 500H202V53L291 32Z" />
<glyph unicode="&#xee;" glyph-name="icircumflex" horiz-adv-x="314" d="M244 552L137 642L29 552L8 570L106 709H166L266 570L244 552ZM291 32V0H30V32L119 53V430L30 440V463L177 500H202V53L291 32Z" />
<glyph unicode="&#xef;" glyph-name="idieresis" horiz-adv-x="314" d="M103 613T86 597T46 580Q23 580 6 596T-11 635Q-11 659 6 676T46 693Q69 693 86 676T103 635Q103 613 86 597ZM298 613T281 597T240 580Q217 580 200 596T183 635Q183 659 200 676T240 693Q263
693 280 676T298 635Q298 613 281 597ZM291 32V0H30V32L119 53V430L30 440V463L177 500H202V53L291 32Z" />
<glyph unicode="&#xf0;" glyph-name="eth" horiz-adv-x="547" d="M155 -10T98 60T41 243Q41 358 97 429T273 500Q308 500 338 488T391 454Q369 527 318 596L179 516L157 554L291 631Q249 679 192 730L213 758Q286 718 343 661L480 740L503 702L373 627Q445 539
475 437T506 252Q506 132 450 61T273 -10Q155 -10 98 60ZM356 38T385 94T414 247Q414 341 383 397T270 453Q193 453 164 396T134 247Q134 38 276 38Q356 38 385 94Z" />
<glyph unicode="&#xf1;" glyph-name="ntilde" horiz-adv-x="624" d="M436 629T420 606T382 582Q364 582 310 602Q256 622 240 622Q230 622 220 614T204 598T195 586L165 598Q184 645 200 668T239 692Q250 692 269 686T309 672Q329 664 349 658T381 652Q391 652
400 660T416 676T424 687L455 675Q436 629 420 606ZM235 475T284 487T379 500Q438 500 475 474T512 391V53L602 28V0H347V28L429 53V374Q429 401 421 415T391 434T329 440Q297 440 262 436T200 424V53L282 28V0H28V28L117 53V430L28 440V463L173 500H200V460Q235
475 284 487Z" />
<glyph unicode="&#xf2;" glyph-name="ograve" horiz-adv-x="547" d="M364 558L148 661V679L225 707L378 577L364 558ZM394 500T450 430T506 243Q506 130 449 60T274 -10Q156 -10 99 60T41 243Q41 358 98 429T274 500Q394 500 450 430ZM414 344T383 398T271 453Q195
453 164 398T133 246Q133 147 165 93T277 38Q355 38 384 92T414 246Q414 344 383 398Z" />
<glyph unicode="&#xf3;" glyph-name="oacute" horiz-adv-x="547" d="M394 500T450 430T506 243Q506 130 449 60T274 -10Q156 -10 99 60T41 243Q41 358 98 429T274 500Q394 500 450 430ZM414 344T383 398T271 453Q195 453 164 398T133 246Q133 147 165 93T277 38Q355
38 384 92T414 246Q414 344 383 398ZM200 558L184 577L338 707L414 679V661L200 558Z" />
<glyph unicode="&#xf4;" glyph-name="ocircumflex" horiz-adv-x="547" d="M381 552L274 642L166 552L145 570L243 709H303L403 570L381 552ZM394 500T450 430T506 243Q506 130 449 60T274 -10Q156 -10 99 60T41 243Q41 358 98 429T274 500Q394 500 450 430ZM414
344T383 398T271 453Q195 453 164 398T133 246Q133 147 165 93T277 38Q355 38 384 92T414 246Q414 344 383 398Z" />
<glyph unicode="&#xf5;" glyph-name="otilde" horiz-adv-x="547" d="M401 629T385 606T347 582Q329 582 275 602Q221 622 205 622Q195 622 185 614T169 598T160 586L130 598Q149 645 165 668T204 692Q215 692 234 686T274 672Q294 664 314 658T346 652Q356 652
365 660T381 676T389 687L420 675Q401 629 385 606ZM394 500T450 430T506 243Q506 130 449 60T274 -10Q156 -10 99 60T41 243Q41 358 98 429T274 500Q394 500 450 430ZM414 344T383 398T271 453Q195 453 164 398T133 246Q133 147 165 93T277 38Q355 38 384 92T414
246Q414 344 383 398Z" />
<glyph unicode="&#xf6;" glyph-name="odieresis" horiz-adv-x="547" d="M233 613T216 597T176 580Q153 580 136 596T119 635Q119 659 136 676T176 693Q199 693 216 676T233 635Q233 613 216 597ZM428 613T411 597T370 580Q347 580 330 596T313 635Q313 659 330
676T370 693Q393 693 410 676T428 635Q428 613 411 597ZM394 500T450 430T506 243Q506 130 449 60T274 -10Q156 -10 99 60T41 243Q41 358 98 429T274 500Q394 500 450 430ZM414 344T383 398T271 453Q195 453 164 398T133 246Q133 147 165 93T277 38Q355 38 384
92T414 246Q414 344 383 398Z" />
<glyph unicode="&#xf7;" glyph-name="divide" horiz-adv-x="509" d="M230 382T212 399T194 440Q194 465 212 482T254 500Q278 500 296 483T314 440Q314 416 296 399T254 382Q230 382 212 399ZM63 282V336H447V282H63ZM230 117T212 133T194 174Q194 199 212 216T254
234Q278 234 296 217T314 174Q314 150 296 134T254 117Q230 117 212 133Z" />
<glyph unicode="&#xf8;" glyph-name="oslash" horiz-adv-x="547" d="M164 12Q102 40 72 101T41 243Q41 358 98 429T274 500Q298 500 321 497L349 584H409L376 482Q443 455 474 393T506 243Q506 130 449 60T274 -10Q246 -10 216 -5L188 -92H130L164 12ZM306 450Q289
453 271 453Q195 453 164 398T133 246Q133 118 183 71L306 450ZM355 38T384 92T414 246Q414 310 401 355T357 426L232 44Q253 38 277 38Q355 38 384 92Z" />
<glyph unicode="&#xf9;" glyph-name="ugrave" horiz-adv-x="602" d="M375 558L159 661V679L236 707L389 577L375 558ZM523 -4T472 -4Q451 -4 432 9T408 46L384 36Q333 14 295 2T216 -10Q156 -10 129 24T102 109V430L13 440V463L160 500H186V120Q186 84 202 68T267
52Q292 52 331 61T403 83V430L313 440V463L460 500H487V58L578 40V12Q523 -4 472 -4Z" />
<glyph unicode="&#xfa;" glyph-name="uacute" horiz-adv-x="602" d="M202 558L186 577L340 707L416 679V661L202 558ZM523 -4T472 -4Q451 -4 432 9T408 46L384 36Q333 14 295 2T216 -10Q156 -10 129 24T102 109V430L13 440V463L160 500H186V120Q186 84 202 68T267
52Q292 52 331 61T403 83V430L313 440V463L460 500H487V58L578 40V12Q523 -4 472 -4Z" />
<glyph unicode="&#xfb;" glyph-name="ucircumflex" horiz-adv-x="602" d="M392 552L285 642L177 552L156 570L254 709H314L414 570L392 552ZM523 -4T472 -4Q451 -4 432 9T408 46L384 36Q333 14 295 2T216 -10Q156 -10 129 24T102 109V430L13 440V463L160 500H186V120Q186
84 202 68T267 52Q292 52 331 61T403 83V430L313 440V463L460 500H487V58L578 40V12Q523 -4 472 -4Z" />
<glyph unicode="&#xfc;" glyph-name="udieresis" horiz-adv-x="602" d="M249 613T232 597T192 580Q169 580 152 596T135 635Q135 659 152 676T192 693Q215 693 232 676T249 635Q249 613 232 597ZM444 613T427 597T386 580Q363 580 346 596T329 635Q329 659 346
676T386 693Q409 693 426 676T444 635Q444 613 427 597ZM523 -4T472 -4Q451 -4 432 9T408 46L384 36Q333 14 295 2T216 -10Q156 -10 129 24T102 109V430L13 440V463L160 500H186V120Q186 84 202 68T267 52Q292 52 331 61T403 83V430L313 440V463L460 500H487V58L578
40V12Q523 -4 472 -4Z" />
<glyph unicode="&#xfd;" glyph-name="yacute" horiz-adv-x="519" d="M192 558L176 577L330 707L406 679V661L192 558ZM229 462L173 441L291 122L396 441L322 462V491H516V462L452 441L308 34Q271 -69 232 -118T133 -167Q95 -167 55 -144L61 -112H103Q139 -112
163 -100T206 -60T249 20L82 441L24 462V491H229V462Z" />
<glyph unicode="&#xfe;" glyph-name="thorn" horiz-adv-x="579" d="M20 -139L109 -113V656L19 666V689L166 727H191V494Q240 500 290 500Q421 500 479 430T537 243Q537 133 481 67T322 0Q283 0 240 11L252 48Q270 46 286 46Q380 46 412 100T444 247Q444 307 434
349T388 421T281 451Q256 451 231 447T191 434V-112L292 -138V-167H20V-139Z" />
<glyph unicode="&#xff;" glyph-name="ydieresis" horiz-adv-x="519" d="M244 613T227 597T187 580Q164 580 147 596T130 635Q130 659 147 676T187 693Q210 693 227 676T244 635Q244 613 227 597ZM439 613T422 597T381 580Q358 580 341 596T324 635Q324 659 341
676T381 693Q404 693 421 676T439 635Q439 613 422 597ZM229 462L173 441L291 122L396 441L322 462V491H516V462L452 441L308 34Q271 -69 232 -118T133 -167Q95 -167 55 -144L61 -112H103Q139 -112 163 -100T206 -60T249 20L82 441L24 462V491H229V462Z" />
<glyph unicode="&#x2013;" glyph-name="endash" horiz-adv-x="716" d="M716 212H0V261H716V212Z" />
<glyph unicode="&#x2014;" glyph-name="emdash" horiz-adv-x="830" d="M829 212H0V261H829V212Z" />
<glyph unicode="&#x2018;" glyph-name="quoteleft" horiz-adv-x="160" d="M102 652L124 647L109 442L33 424L19 441L102 652Z" />
<glyph unicode="&#x2019;" glyph-name="quoteright" horiz-adv-x="160" d="M58 424L36 430L51 634L127 652L141 636L58 424Z" />
<glyph unicode="&#x201a;" glyph-name="quotesinglbase" horiz-adv-x="193" d="M69 -120L47 -114L62 90L138 108L152 91L69 -120Z" />
<glyph unicode="&#x201c;" glyph-name="quotedblleft" horiz-adv-x="310" d="M102 652L124 647L109 442L33 424L19 441L102 652ZM252 652L274 647L259 442L183 424L169 441L252 652Z" />
<glyph unicode="&#x201d;" glyph-name="quotedblright" horiz-adv-x="310" d="M58 424L36 430L51 634L127 652L141 636L58 424ZM208 424L186 430L201 634L277 652L291 636L208 424Z" />
<glyph unicode="&#x201e;" glyph-name="quotedblbase" horiz-adv-x="342" d="M69 -120L47 -114L62 90L138 108L152 91L69 -120ZM219 -120L196 -114L211 90L287 108L302 91L219 -120Z" />
<glyph unicode="&#x2022;" glyph-name="bullet" horiz-adv-x="466" d="M378 308T359 275T306 222T233 202Q193 202 160 221T108 274T88 347Q88 387 107 420T160 472T233 492Q272 492 305 473T358 420T378 347Q378 308 359 275Z" />
<glyph unicode="&#x2039;" glyph-name="guilsinglleft" horiz-adv-x="242" d="M28 248L163 426L197 403L116 248L197 93L163 71L28 248Z" />
<glyph unicode="&#x203a;" glyph-name="guilsinglright" horiz-adv-x="242" d="M80 426L214 248L80 71L47 93L127 248L47 403L80 426Z" />
</font>
</defs>
</svg>
