<?xml version="1.0" standalone="no"?>
<!DOCTYPE svg PUBLIC "-//W3C//DTD SVG 1.1//EN" "http://www.w3.org/Graphics/SVG/1.1/DTD/svg11.dtd">
<svg xmlns="http://www.w3.org/2000/svg">
<defs >
<font id="BungeeHairline" horiz-adv-x="783" ><font-face
    font-family="Bungee Hairline"
    units-per-em="1000"
    panose-1="0 0 0 0 0 0 0 0 0 0"
    ascent="860"
    descent="-140"
    alphabetic="0" />
<glyph unicode=" " glyph-name="space" horiz-adv-x="225" />
<glyph unicode="!" glyph-name="exclam" horiz-adv-x="424" d="M207 630H217V352H207V630ZM217 80H207V123H217V80Z" />
<glyph unicode="&quot;" glyph-name="quotedbl" horiz-adv-x="646" d="M473 630H483V435H473V630ZM163 630H173V435H163V630Z" />
<glyph unicode="#" glyph-name="numbersign" horiz-adv-x="750" d="M534 495H255L217 230H496L534 495ZM187 90L206 220H125V230H207L245 495H161V505H246L264 630H274L256 505H535L553 630H563L545 505H625V495H544L506 230H589V220H505L486 90H476L495 220H216L197
90H187Z" />
<glyph unicode="$" glyph-name="dollar" horiz-adv-x="650" d="M390 90H338V0H328V90H141V100H390Q436 100 463 125T491 191V249Q491 296 475 313T430 337L219 380Q193 385 177 400T160 457V539Q160 579 188 604T262 630H328V720H338V630H484V620H262Q220 620
195 597T170 539V457Q170 422 184 408T221 390L432 347Q462 341 481 321T501 249V191Q501 147 471 119T390 90Z" />
<glyph unicode="%" glyph-name="percent" horiz-adv-x="1031" d="M331 583V437Q331 394 306 376T221 358Q163 358 137 376T110 437V583Q110 626 136 644T221 663Q280 663 305 645T331 583ZM221 368Q272 368 296 383T321 437V583Q321 622 297 637T221 653Q170 653
145 638T120 583V437Q120 398 145 383T221 368ZM459 90H449L582 630H592L459 90ZM931 280V134Q931 91 906 73T821 55Q763 55 737 73T710 134V280Q710 323 736 341T821 360Q880 360 905 342T931 280ZM821 65Q872 65 896 80T921 134V280Q921 319 897 334T821 350Q770
350 745 335T720 280V134Q720 95 745 80T821 65Z" />
<glyph unicode="&amp;" glyph-name="ampersand" horiz-adv-x="766" d="M250 90Q191 90 162 116T133 198V259Q133 308 163 340T255 372H262Q236 382 223 406T210 469V525Q210 580 239 605T328 630H453V620H328Q272 620 246 597T220 523V469Q220 420 242 397T312
373H322V363H255Q198 363 171 334T143 259V198Q143 147 170 124T256 100H491Q531 100 552 120T574 181V316H649V306H584V181Q584 135 560 113T491 90H250Z" />
<glyph unicode="&apos;" glyph-name="quotesingle" horiz-adv-x="356" d="M173 630H183V435H173V630Z" />
<glyph unicode="(" glyph-name="parenleft" horiz-adv-x="429" d="M294 21V11Q229 11 193 34T157 124V595Q157 661 192 684T294 708V698Q234 698 201 677T167 595V124Q167 63 201 42T294 21Z" />
<glyph unicode=")" glyph-name="parenright" horiz-adv-x="429" d="M272 124Q272 58 236 35T135 11V21Q194 21 228 42T262 124V595Q262 656 229 677T135 698V708Q201 708 236 685T272 595V124Z" />
<glyph unicode="*" glyph-name="asterisk" horiz-adv-x="718" d="M470 268L361 423L252 268L244 274L350 426L178 482L182 492L356 435V630H366V435L540 492L544 482L372 426L478 274L470 268Z" />
<glyph unicode="+" glyph-name="plus" horiz-adv-x="734" d="M362 153V355H160V365H362V567H372V365H574V355H372V153H362Z" />
<glyph unicode="," glyph-name="comma" horiz-adv-x="384" d="M259 170V51Q259 5 235 -17T171 -40H125V-30H171Q207 -30 228 -10T249 51V160H125V170H259Z" />
<glyph unicode="-" glyph-name="hyphen" horiz-adv-x="420" d="M290 365V355H130V365H290Z" />
<glyph unicode="." glyph-name="period" horiz-adv-x="384" d="M187 90V185H197V90H187Z" />
<glyph unicode="/" glyph-name="slash" horiz-adv-x="347" d="M221 720H231L127 0H117L221 720Z" />
<glyph unicode="0" glyph-name="zero" horiz-adv-x="727" d="M166 212V507Q166 537 175 562T206 604T266 632T363 642Q479 642 520 604T562 507V212Q562 152 521 115T363 77Q305 77 267 87T206 114T175 157T166 212ZM363 632Q256 632 216 598T176 507V212Q176
155 216 121T363 87Q470 87 511 121T552 212V507Q552 563 511 597T363 632Z" />
<glyph unicode="1" glyph-name="one" horiz-adv-x="601" d="M138 85V95H308V620H158V630H318V95H472V85H138Z" />
<glyph unicode="2" glyph-name="two" horiz-adv-x="639" d="M204 328L437 405Q450 410 458 421T466 452V543Q466 589 440 604T369 620H168V630H369Q420 630 448 612T476 543V452Q476 429 467 416T441 396L208 319Q180 309 169 295T158 246V100H498V90H149V246Q149
283 161 300T204 328Z" />
<glyph unicode="3" glyph-name="three" horiz-adv-x="637" d="M220 359V369H303Q341 369 363 376T396 396T411 425T414 460V528Q414 567 390 593T293 620H139V630H293Q334 630 360 622T400 599T419 565T424 524V460Q424 432 414 405T358 367H374Q436 367 463 339T490
259V190Q490 168 485 150T467 118T427 98T359 90H139V100H359Q434 100 457 124T480 190V259Q480 309 455 334T372 359H220Z" />
<glyph unicode="4" glyph-name="four" horiz-adv-x="709" d="M522 90V267H283Q226 267 199 293T172 372V630H182V372Q182 324 207 301T283 277H522V630H532V90H522Z" />
<glyph unicode="5" glyph-name="five" horiz-adv-x="647" d="M145 90V100H381Q437 100 461 121T485 188V276Q485 323 461 343T390 364H174V630H478V620H184V374H390Q442 374 468 351T495 276V188Q495 137 469 114T381 90H145Z" />
<glyph unicode="6" glyph-name="six" horiz-adv-x="693" d="M361 71Q321 71 286 74T225 90T185 125T170 187V515Q170 581 205 605T304 630H480V620H304Q247 620 214 599T180 515V327Q198 367 248 375T364 383Q401 383 432 381T487 368T524 335T538 275V187Q538
149 525 126T487 91T431 75T361 71ZM361 81Q395 81 425 84T479 98T515 130T528 187V275Q528 311 515 331T479 360T427 371T364 373Q331 373 298 372T239 362T197 334T180 278V187Q180 151 194 130T233 98T291 84T361 81Z" />
<glyph unicode="7" glyph-name="seven" horiz-adv-x="627" d="M223 90V240Q223 263 232 276T258 296L428 364Q443 370 450 380T457 410V620H128V630H467V410Q467 387 459 374T432 354L262 286Q249 281 241 270T233 240V90H223Z" />
<glyph unicode="8" glyph-name="eight" horiz-adv-x="711" d="M356 67Q296 67 257 75T194 97T162 130T153 173V265Q153 303 180 331T280 369Q232 377 211 398T189 455V558Q189 604 229 628T356 652Q443 652 482 627T522 550V455Q522 420 501 399T432 369Q504 359
531 332T558 266V173Q558 150 549 131T518 97T456 75T356 67ZM199 558V455Q199 412 238 393T356 374Q435 374 473 393T512 455V550Q512 599 473 620T356 642Q278 642 239 622T199 558ZM163 265V173Q163 130 205 104T356 77Q464 77 506 103T548 173V266Q548 309
506 336T356 364Q249 364 206 336T163 265Z" />
<glyph unicode="9" glyph-name="nine" horiz-adv-x="693" d="M213 90V100H389Q446 100 479 121T513 205V393Q495 353 445 345T329 337Q292 337 261 339T206 352T169 385T155 445V533Q155 571 168 594T206 629T262 645T332 649Q372 649 407 646T468 630T508 595T523
533V205Q523 139 488 115T389 90H213ZM329 347Q362 347 395 348T454 358T496 386T513 442V533Q513 569 499 590T460 622T402 636T332 639Q298 639 268 636T214 622T178 590T165 533V445Q165 409 178 389T214 360T266 349T329 347Z" />
<glyph unicode=":" glyph-name="colon" horiz-adv-x="384" d="M187 90V185H197V90H187ZM187 445V540H197V445H187Z" />
<glyph unicode=";" glyph-name="semicolon" horiz-adv-x="384" d="M259 170V51Q259 5 235 -17T171 -40H125V-30H171Q207 -30 228 -10T249 51V160H125V170H259ZM187 445V540H197V445H187Z" />
<glyph unicode="&lt;" glyph-name="less" horiz-adv-x="714" d="M534 176V166L234 252Q209 259 193 274T176 323V395Q176 428 192 442T234 463L534 549V539L236 453Q215 447 201 435T186 395V323Q186 295 200 282T236 262L534 176Z" />
<glyph unicode="=" glyph-name="equal" horiz-adv-x="734" d="M160 505V515H574V505H160ZM160 205V215H574V205H160Z" />
<glyph unicode="&gt;" glyph-name="greater" horiz-adv-x="714" d="M480 252L180 166V176L478 262Q499 268 513 281T528 323V395Q528 423 514 435T478 453L180 539V549L480 463Q505 456 521 442T538 395V323Q538 290 522 275T480 252Z" />
<glyph unicode="?" glyph-name="question" horiz-adv-x="656" d="M225 340L223 351L439 380Q458 383 473 390T488 424V537Q488 586 462 602T404 618H135V628H404Q438 628 468 610T498 537V424Q498 393 481 383T441 370L225 340ZM248 80V123H258V80H248Z" />
<glyph unicode="@" glyph-name="at" horiz-adv-x="867" d="M434 -50Q325 -50 260 -34T160 11T116 75T105 150V568Q105 607 115 643T160 707T259 751T434 768Q543 768 608 752T707 708T751 644T762 568V302Q762 227 735 194T645 160H383Q334 160 314 183T294 261V422Q294
442 296 461T310 494T349 518T425 527H569V170H645Q703 170 727 201T752 302V568Q752 606 742 640T698 701T601 742T434 758Q330 758 267 743T171 701T126 641T115 568V150Q115 113 125 79T169 18T266 -24T434 -40H608V-50H434ZM383 170H559V517H425Q381 517 357
509T321 488T307 458T304 422V261Q304 213 321 192T383 170Z" />
<glyph unicode="A" glyph-name="A" horiz-adv-x="730" d="M170 303V272H560V303Q560 330 556 353T544 396L475 559Q464 585 452 602T412 620H314Q284 620 272 603T250 560L186 396Q179 376 175 353T170 303ZM560 90V262H170V90H160V303Q160 331 164 354T177 400L241
564Q252 592 266 611T314 630H412Q445 630 458 611T484 563L553 400Q561 378 565 355T570 303V90H560Z" />
<glyph unicode="B" glyph-name="B" horiz-adv-x="725" d="M449 90H180V630H383Q424 630 450 622T490 599T509 565T514 524V460Q514 430 504 405T450 369Q491 369 517 361T557 337T575 300T580 254V190Q580 168 575 150T557 118T517 98T449 90ZM383 620H190V369H383Q424
369 448 376T484 396T500 425T504 460V524Q504 564 481 592T383 620ZM450 359H190V100H449Q524 100 547 124T570 190V254Q570 299 548 329T450 359Z" />
<glyph unicode="C" glyph-name="C" horiz-adv-x="628" d="M493 100V90H326Q229 90 198 120T166 219V499Q166 570 198 600T326 630H493V620H326Q238 620 207 593T176 499V219Q176 154 206 127T326 100H493Z" />
<glyph unicode="D" glyph-name="D" horiz-adv-x="746" d="M178 90V630H420Q471 630 502 619T551 590T574 546T580 491V226Q580 197 575 172T552 129T503 101T420 90H178ZM420 620H188V100H420Q468 100 497 109T543 135T564 175T570 226V491Q570 518 564 542T542
583T497 610T420 620Z" />
<glyph unicode="E" glyph-name="E" horiz-adv-x="654" d="M515 100V90H178V630H515V620H188V369H434V359H188V100H515Z" />
<glyph unicode="F" glyph-name="F" horiz-adv-x="618" d="M178 90V630H497V620H188V334H416V324H188V90H178Z" />
<glyph unicode="G" glyph-name="G" horiz-adv-x="708" d="M347 90Q292 90 257 97T202 119T175 159T167 219V499Q167 570 199 600T327 630H500V620H327Q239 620 208 593T177 499V219Q177 154 211 127T347 100H536V291H546V90H347Z" />
<glyph unicode="H" glyph-name="H" horiz-adv-x="759" d="M177 90V630H187V365H571V630H581V90H571V355H187V90H177Z" />
<glyph unicode="I" glyph-name="I" horiz-adv-x="605" d="M461 90H143V100H298V620H143V630H461V620H308V100H461V90Z" />
<glyph unicode="J" glyph-name="J" horiz-adv-x="688" d="M504 630H514V213Q514 154 477 116T333 78Q277 78 241 88T183 115T154 158T145 213V292H155V213Q155 156 192 122T333 88Q432 88 468 122T504 213V630Z" />
<glyph unicode="K" glyph-name="K" horiz-adv-x="746" d="M188 90H178V630H188V364H405L520 630H531L416 364H457Q518 364 548 341T578 266V90H568V266Q568 314 540 334T457 354H188V90Z" />
<glyph unicode="L" glyph-name="L" horiz-adv-x="695" d="M178 90V630H188V100H536V297H546V90H178Z" />
<glyph unicode="M" glyph-name="M" horiz-adv-x="849" d="M421 385Q439 385 447 393T472 427L594 613Q600 623 607 626T623 630H640Q654 630 660 623T667 599V90H657V599Q657 607 654 613T640 620H625Q618 620 613 618T602 606L480 422Q462 395 453 385T421 375Q399
375 390 385T362 422L240 606Q234 616 229 618T216 620H201Q191 620 188 614T185 599V90H175V599Q175 615 181 622T201 630H218Q226 630 234 627T248 613L370 427Q387 401 395 393T421 385Z" />
<glyph unicode="N" glyph-name="N" horiz-adv-x="753" d="M201 622L569 208V630H579V90H569V193L191 617Q190 618 189 619T186 620Q185 620 185 619T184 617V90H174V619Q174 625 178 628T186 631Q190 631 193 629T201 622Z" />
<glyph unicode="O" glyph-name="O" horiz-adv-x="737" d="M570 212Q570 152 527 115T367 77Q250 77 208 114T166 212V507Q166 567 208 604T367 642Q484 642 527 605T570 507V212ZM176 212Q176 156 216 122T367 87Q478 87 519 121T560 212V507Q560 563 519 597T367
632Q256 632 216 598T176 507V212Z" />
<glyph unicode="P" glyph-name="P" horiz-adv-x="682" d="M397 287H191V90H181V630H397Q444 630 473 620T519 591T541 548T547 494V420Q547 391 541 367T519 325T474 297T397 287ZM191 297H397Q441 297 468 306T511 331T531 370T537 420V494Q537 521 532 544T511
584T469 610T397 620H191V297Z" />
<glyph unicode="Q" glyph-name="Q" horiz-adv-x="737" d="M362 0V77Q248 78 207 115T166 212V507Q166 567 208 604T367 642Q484 642 527 605T570 507V212Q570 152 528 115T372 77V0H362ZM176 212Q176 156 216 122T367 87Q478 87 519 121T560 212V507Q560 563 519
597T367 632Q256 632 216 598T176 507V212Z" />
<glyph unicode="R" glyph-name="R" horiz-adv-x="743" d="M405 620H187V331H405Q467 331 488 361T509 446V516Q509 562 484 591T405 620ZM187 90H177V630H405Q463 630 491 598T519 516V447Q519 401 507 372T459 331H470Q531 331 561 304T591 224V90H581V224Q581
273 554 297T470 322H187V90Z" />
<glyph unicode="S" glyph-name="S" horiz-adv-x="650" d="M484 630V620H262Q220 620 195 597T170 539V457Q170 422 184 408T221 390L432 347Q462 341 481 321T501 249V191Q501 147 471 119T390 90H141V100H390Q436 100 463 125T491 191V249Q491 296 475 313T430
337L219 380Q193 385 177 400T160 457V539Q160 579 188 604T262 630H484Z" />
<glyph unicode="T" glyph-name="T" horiz-adv-x="656" d="M323 90V620H118V630H538V620H333V90H323Z" />
<glyph unicode="U" glyph-name="U" horiz-adv-x="746" d="M174 630H184V213Q184 157 223 123T374 88Q485 88 525 122T565 213V630H575V213Q575 153 533 116T374 78Q257 78 216 115T174 213V630Z" />
<glyph unicode="V" glyph-name="V" horiz-adv-x="730" d="M167 630H177V414Q177 388 181 365T193 321L259 161Q269 135 281 118T322 100H410Q438 100 450 117T473 161L539 321Q547 341 551 364T555 414V630H565V414Q565 386 562 363T549 317L483 157Q471 128 456
109T410 90H322Q291 90 276 109T249 157L183 317Q174 339 171 362T167 414V630Z" />
<glyph unicode="W" glyph-name="W" horiz-adv-x="831" d="M439 345Q455 345 465 336T488 298L570 114Q574 104 582 102T597 100H602Q610 100 617 106T625 121L650 235Q654 254 654 284T655 336V630H665V335Q665 313 665 283T660 234L635 121Q631 105 623 98T602
90H595Q586 90 576 93T562 107L480 293Q468 320 460 327T439 335H394Q382 335 374 328T353 293L271 107Q267 97 257 94T238 90H231Q219 90 211 97T198 121L173 234Q169 253 169 283T168 335V630H178V336Q178 314 178 284T183 235L208 121Q209 113 216 107T231 100H236Q243
100 251 102T263 114L345 298Q358 326 368 335T394 345H439Z" />
<glyph unicode="X" glyph-name="X" horiz-adv-x="737" d="M177 135V90H167V135Q167 157 168 176T182 212L302 376L182 538Q171 554 169 573T167 615V630H177V615Q177 594 179 575T191 542L311 380H430L546 542Q556 556 558 575T560 615V630H570V615Q570 593 568
574T555 538L437 374L555 212Q566 196 568 177T570 135V90H560V135Q560 156 558 175T546 208L429 370H309L191 208Q181 195 179 176T177 135Z" />
<glyph unicode="Y" glyph-name="Y" horiz-adv-x="705" d="M365 261H358V90H348V261H338Q316 261 299 271T265 303L168 438Q157 453 155 473T153 515V630H163V515Q163 494 165 476T177 442L274 307Q287 287 304 279T338 271H365Q384 271 399 279T430 307L530 442Q540
455 542 474T544 515V630H554V515Q554 493 553 474T539 438L439 303Q423 281 406 271T365 261Z" />
<glyph unicode="Z" glyph-name="Z" horiz-adv-x="660" d="M473 544L180 168Q173 159 170 153T166 137V123Q166 109 172 105T187 100H524V90H187Q171 90 164 98T156 123V139Q156 150 161 158T173 176L466 552Q473 561 476 567T480 583V597Q480 611 474 615T459
620H154V630H459Q475 630 482 622T490 597V581Q490 570 485 562T473 544Z" />
<glyph unicode="[" glyph-name="bracketleft" horiz-adv-x="429" d="M157 708H294V698H167V21H294V11H157V708Z" />
<glyph unicode="\" glyph-name="backslash" horiz-adv-x="347" d="M127 720L231 0H221L117 720H127Z" />
<glyph unicode="]" glyph-name="bracketright" horiz-adv-x="429" d="M272 708V11H135V21H262V698H135V708H272Z" />
<glyph unicode="^" glyph-name="asciicircum" horiz-adv-x="714" d="M530 261H519L433 562Q427 584 417 600T376 616H303Q272 616 263 600T246 561L161 261H150L236 563Q243 591 255 608T303 626H376Q411 626 423 608T443 564L530 261Z" />
<glyph unicode="_" glyph-name="underscore" horiz-adv-x="734" d="M574 5V-5H160V5H574Z" />
<glyph unicode="`" glyph-name="grave" horiz-adv-x="500" d="M130 867V877L369 847V837L130 867Z" />
<glyph unicode="a" glyph-name="a" horiz-adv-x="730" d="M170 303V272H560V303Q560 330 556 353T544 396L475 559Q464 585 452 602T412 620H314Q284 620 272 603T250 560L186 396Q179 376 175 353T170 303ZM560 90V262H170V90H160V303Q160 331 164 354T177 400L241
564Q252 592 266 611T314 630H412Q445 630 458 611T484 563L553 400Q561 378 565 355T570 303V90H560Z" />
<glyph unicode="b" glyph-name="b" horiz-adv-x="725" d="M449 90H180V630H383Q424 630 450 622T490 599T509 565T514 524V460Q514 430 504 405T450 369Q491 369 517 361T557 337T575 300T580 254V190Q580 168 575 150T557 118T517 98T449 90ZM383 620H190V369H383Q424
369 448 376T484 396T500 425T504 460V524Q504 564 481 592T383 620ZM450 359H190V100H449Q524 100 547 124T570 190V254Q570 299 548 329T450 359Z" />
<glyph unicode="c" glyph-name="c" horiz-adv-x="628" d="M493 100V90H326Q229 90 198 120T166 219V499Q166 570 198 600T326 630H493V620H326Q238 620 207 593T176 499V219Q176 154 206 127T326 100H493Z" />
<glyph unicode="d" glyph-name="d" horiz-adv-x="746" d="M178 90V630H420Q471 630 502 619T551 590T574 546T580 491V226Q580 197 575 172T552 129T503 101T420 90H178ZM420 620H188V100H420Q468 100 497 109T543 135T564 175T570 226V491Q570 518 564 542T542
583T497 610T420 620Z" />
<glyph unicode="e" glyph-name="e" horiz-adv-x="654" d="M515 100V90H178V630H515V620H188V369H434V359H188V100H515Z" />
<glyph unicode="f" glyph-name="f" horiz-adv-x="618" d="M178 90V630H497V620H188V334H416V324H188V90H178Z" />
<glyph unicode="g" glyph-name="g" horiz-adv-x="708" d="M347 90Q292 90 257 97T202 119T175 159T167 219V499Q167 570 199 600T327 630H500V620H327Q239 620 208 593T177 499V219Q177 154 211 127T347 100H536V291H546V90H347Z" />
<glyph unicode="h" glyph-name="h" horiz-adv-x="759" d="M177 90V630H187V365H571V630H581V90H571V355H187V90H177Z" />
<glyph unicode="i" glyph-name="i" horiz-adv-x="605" d="M461 90H143V100H298V620H143V630H461V620H308V100H461V90Z" />
<glyph unicode="j" glyph-name="j" horiz-adv-x="688" d="M504 630H514V213Q514 154 477 116T333 78Q277 78 241 88T183 115T154 158T145 213V292H155V213Q155 156 192 122T333 88Q432 88 468 122T504 213V630Z" />
<glyph unicode="k" glyph-name="k" horiz-adv-x="746" d="M188 90H178V630H188V364H405L520 630H531L416 364H457Q518 364 548 341T578 266V90H568V266Q568 314 540 334T457 354H188V90Z" />
<glyph unicode="l" glyph-name="l" horiz-adv-x="695" d="M178 90V630H188V100H536V297H546V90H178Z" />
<glyph unicode="m" glyph-name="m" horiz-adv-x="849" d="M421 385Q439 385 447 393T472 427L594 613Q600 623 607 626T623 630H640Q654 630 660 623T667 599V90H657V599Q657 607 654 613T640 620H625Q618 620 613 618T602 606L480 422Q462 395 453 385T421 375Q399
375 390 385T362 422L240 606Q234 616 229 618T216 620H201Q191 620 188 614T185 599V90H175V599Q175 615 181 622T201 630H218Q226 630 234 627T248 613L370 427Q387 401 395 393T421 385Z" />
<glyph unicode="n" glyph-name="n" horiz-adv-x="753" d="M201 622L569 208V630H579V90H569V193L191 617Q190 618 189 619T186 620Q185 620 185 619T184 617V90H174V619Q174 625 178 628T186 631Q190 631 193 629T201 622Z" />
<glyph unicode="o" glyph-name="o" horiz-adv-x="737" d="M570 212Q570 152 527 115T367 77Q250 77 208 114T166 212V507Q166 567 208 604T367 642Q484 642 527 605T570 507V212ZM176 212Q176 156 216 122T367 87Q478 87 519 121T560 212V507Q560 563 519 597T367
632Q256 632 216 598T176 507V212Z" />
<glyph unicode="p" glyph-name="p" horiz-adv-x="682" d="M397 287H191V90H181V630H397Q444 630 473 620T519 591T541 548T547 494V420Q547 391 541 367T519 325T474 297T397 287ZM191 297H397Q441 297 468 306T511 331T531 370T537 420V494Q537 521 532 544T511
584T469 610T397 620H191V297Z" />
<glyph unicode="q" glyph-name="q" horiz-adv-x="737" d="M362 0V77Q248 78 207 115T166 212V507Q166 567 208 604T367 642Q484 642 527 605T570 507V212Q570 152 528 115T372 77V0H362ZM176 212Q176 156 216 122T367 87Q478 87 519 121T560 212V507Q560 563 519
597T367 632Q256 632 216 598T176 507V212Z" />
<glyph unicode="r" glyph-name="r" horiz-adv-x="743" d="M405 620H187V331H405Q467 331 488 361T509 446V516Q509 562 484 591T405 620ZM187 90H177V630H405Q463 630 491 598T519 516V447Q519 401 507 372T459 331H470Q531 331 561 304T591 224V90H581V224Q581
273 554 297T470 322H187V90Z" />
<glyph unicode="s" glyph-name="s" horiz-adv-x="650" d="M484 630V620H262Q220 620 195 597T170 539V457Q170 422 184 408T221 390L432 347Q462 341 481 321T501 249V191Q501 147 471 119T390 90H141V100H390Q436 100 463 125T491 191V249Q491 296 475 313T430
337L219 380Q193 385 177 400T160 457V539Q160 579 188 604T262 630H484Z" />
<glyph unicode="t" glyph-name="t" horiz-adv-x="656" d="M323 90V620H118V630H538V620H333V90H323Z" />
<glyph unicode="u" glyph-name="u" horiz-adv-x="746" d="M174 630H184V213Q184 157 223 123T374 88Q485 88 525 122T565 213V630H575V213Q575 153 533 116T374 78Q257 78 216 115T174 213V630Z" />
<glyph unicode="v" glyph-name="v" horiz-adv-x="730" d="M167 630H177V414Q177 388 181 365T193 321L259 161Q269 135 281 118T322 100H410Q438 100 450 117T473 161L539 321Q547 341 551 364T555 414V630H565V414Q565 386 562 363T549 317L483 157Q471 128 456
109T410 90H322Q291 90 276 109T249 157L183 317Q174 339 171 362T167 414V630Z" />
<glyph unicode="w" glyph-name="w" horiz-adv-x="831" d="M439 345Q455 345 465 336T488 298L570 114Q574 104 582 102T597 100H602Q610 100 617 106T625 121L650 235Q654 254 654 284T655 336V630H665V335Q665 313 665 283T660 234L635 121Q631 105 623 98T602
90H595Q586 90 576 93T562 107L480 293Q468 320 460 327T439 335H394Q382 335 374 328T353 293L271 107Q267 97 257 94T238 90H231Q219 90 211 97T198 121L173 234Q169 253 169 283T168 335V630H178V336Q178 314 178 284T183 235L208 121Q209 113 216 107T231 100H236Q243
100 251 102T263 114L345 298Q358 326 368 335T394 345H439Z" />
<glyph unicode="x" glyph-name="x" horiz-adv-x="737" d="M177 135V90H167V135Q167 157 168 176T182 212L302 376L182 538Q171 554 169 573T167 615V630H177V615Q177 594 179 575T191 542L311 380H430L546 542Q556 556 558 575T560 615V630H570V615Q570 593 568
574T555 538L437 374L555 212Q566 196 568 177T570 135V90H560V135Q560 156 558 175T546 208L429 370H309L191 208Q181 195 179 176T177 135Z" />
<glyph unicode="y" glyph-name="y" horiz-adv-x="705" d="M365 261H358V90H348V261H338Q316 261 299 271T265 303L168 438Q157 453 155 473T153 515V630H163V515Q163 494 165 476T177 442L274 307Q287 287 304 279T338 271H365Q384 271 399 279T430 307L530 442Q540
455 542 474T544 515V630H554V515Q554 493 553 474T539 438L439 303Q423 281 406 271T365 261Z" />
<glyph unicode="z" glyph-name="z" horiz-adv-x="660" d="M473 544L180 168Q173 159 170 153T166 137V123Q166 109 172 105T187 100H524V90H187Q171 90 164 98T156 123V139Q156 150 161 158T173 176L466 552Q473 561 476 567T480 583V597Q480 611 474 615T459
620H154V630H459Q475 630 482 622T490 597V581Q490 570 485 562T473 544Z" />
<glyph unicode="{" glyph-name="braceleft" horiz-adv-x="455" d="M320 11Q255 11 224 39T193 124V275Q163 279 146 296T129 344V372Q129 404 146 420T193 441V595Q193 658 223 683T320 708V698Q260 698 232 676T203 595V433Q168 429 154 415T139 372V344Q139
316 154 302T203 283V124Q203 72 232 47T320 21V11Z" />
<glyph unicode="|" glyph-name="bar" horiz-adv-x="347" d="M169 720H179V0H169V720Z" />
<glyph unicode="}" glyph-name="braceright" horiz-adv-x="455" d="M262 124Q262 67 231 39T135 11V21Q194 21 223 46T252 124V283Q286 287 301 301T316 344V372Q316 400 302 414T252 433V595Q252 654 224 676T135 698V708Q201 708 231 683T262 595V441Q292 437
309 421T326 372V344Q326 313 309 296T262 275V124Z" />
<glyph unicode="~" glyph-name="asciitilde" horiz-adv-x="734" d="M160 368V379Q196 389 229 389T328 380L368 375L391 372Q425 367 449 363T493 358T532 359T574 368V357Q551 351 532 349T493 348T448 353T389 362L366 365L326 370Q294 375 271 377T230 379T195
376T160 368Z" />
<glyph unicode="&#xa1;" glyph-name="exclamdown" horiz-adv-x="423" d="M207 640H217V597H207V640ZM217 90H207V368H217V90Z" />
<glyph unicode="&#xa2;" glyph-name="cent" horiz-adv-x="628" d="M358 131H326Q229 131 198 161T166 260V457Q166 528 198 558T326 588H358V680H368V588H493V578H326Q238 578 207 551T176 457V260Q176 195 206 168T326 141H493V131H368V40H358V131Z" />
<glyph unicode="&#xa3;" glyph-name="sterling" horiz-adv-x="695" d="M546 237V90H178V349H110V359H178V516Q178 581 214 605T315 630H451V620H315Q257 620 223 598T188 516V359H290V349H188V100H536V237H546Z" />
<glyph unicode="&#xa4;" glyph-name="currency" horiz-adv-x="821" d="M658 110L566 204Q548 181 512 168T413 154Q350 154 314 167T260 204L168 110L160 116L254 212Q244 228 241 248T237 290V432Q237 455 241 476T255 513L162 608L170 614L261 521Q279 543 315
556T413 569Q474 569 510 556T564 520L656 614L664 608L570 512Q580 496 584 476T588 432V290Q588 268 585 249T571 213L666 116L658 110ZM413 164Q463 164 495 173T546 198T571 238T578 290V432Q578 461 571 484T546 524T496 550T413 559Q362 559 330 550T279
525T254 485T247 432V290Q247 262 254 239T279 199T329 173T413 164Z" />
<glyph unicode="&#xa5;" glyph-name="yen" horiz-adv-x="703" d="M519 209H358V90H348V209H185V219H348V309H330Q308 309 293 317T261 348L175 463Q162 485 158 505T153 560V630H163V560Q163 528 167 509T183 469L269 354Q284 335 297 327T330 319H377Q396 319
409 327T438 354L524 469Q536 490 540 509T544 560V630H554V560Q554 526 550 506T532 463L446 348Q430 326 415 318T377 309H358V219H519V209Z" />
<glyph unicode="&#xa6;" glyph-name="brokenbar" horiz-adv-x="347" d="M169 720H179V490H169V720ZM169 230H179V0H169V230Z" />
<glyph unicode="&#xa7;" glyph-name="section" horiz-adv-x="650" d="M151 72V82H362Q441 82 475 107T510 201V260H307Q227 260 192 298T156 393V519Q156 591 192 619T314 648H485V638H314Q235 638 201 613T166 519V460H369Q449 460 484 422T520 327V201Q520 129
484 101T362 72H151ZM307 270H510V327Q510 380 477 415T369 450H166V393Q166 341 199 306T307 270Z" />
<glyph unicode="&#xa8;" glyph-name="dieresis" horiz-adv-x="500" d="M124 830H114V877H124V830ZM382 830H372V877H382V830Z" />
<glyph unicode="&#xa9;" glyph-name="copyright" horiz-adv-x="867" d="M762 568V150Q762 112 750 76T703 13T604 -31T434 -48Q329 -48 264 -33T164 8T117 71T105 150V568Q105 607 114 643T157 707T256 751T434 768Q546 768 611 752T710 707T752 643T762 568ZM434
-38Q533 -38 595 -23T692 19T739 79T752 150V568Q752 605 743 639T700 700T604 742T434 758Q328 758 265 743T168 701T125 640T115 568V150Q115 109 127 75T175 15T272 -24T434 -38ZM551 173H430Q361 173 337 194T313 267V468Q313 519 338 540T430 562H551V553H430Q368
553 346 534T323 468V267Q323 221 345 202T430 183H551V173Z" />
<glyph unicode="&#xaa;" glyph-name="ordfeminine" horiz-adv-x="520" d="M122 420V399H395V420Q395 439 392 455T383 485L335 600Q327 619 319 630T290 642H223Q202 642 194 631T178 601L133 485Q128 471 125 455T122 420ZM395 270V390H122V270H113V420Q113 439
116 456T125 488L170 604Q177 623 187 637T221 651H291Q314 651 324 637T343 603L392 488Q398 473 401 456T404 420V270H395ZM414 73V65H106V73H414Z" />
<glyph unicode="&#xab;" glyph-name="guillemotleft" horiz-adv-x="812" d="M573 457L672 487V477L575 447Q552 440 537 429T521 386V312Q521 281 536 269T574 251L672 222V212L572 241Q545 248 528 262T511 312V386Q511 421 528 435T573 457ZM204 251L302 222V212L202
241Q175 248 158 262T141 312V386Q141 421 158 435T203 457L302 487V477L205 447Q182 440 167 429T151 386V312Q151 281 166 270T204 251Z" />
<glyph unicode="&#xac;" glyph-name="logicalnot" horiz-adv-x="734" d="M564 395H160V405H574V153H564V395Z" />
<glyph unicode="&#xad;" glyph-name="uni00AD" horiz-adv-x="420" d="M290 365V355H130V365H290Z" />
<glyph unicode="&#xae;" glyph-name="registered" horiz-adv-x="560" d="M479 588V348Q479 319 471 296T441 256T380 231T280 222Q220 222 181 230T120 255T90 295T81 348V588Q81 618 89 642T120 682T181 707T280 716Q341 716 380 708T441 683T471 642T479 588ZM280
232Q336 232 373 239T431 262T460 298T469 348V588Q469 617 461 639T431 676T373 698T280 706Q168 706 130 676T91 588V348Q91 292 129 262T280 232ZM276 579H207V465H276Q309 465 321 475T333 505V534Q333 555 319 567T276 579ZM207 361H197V589H276Q310 589 326
574T343 534V505Q343 492 339 482T324 465Q348 464 360 452T372 418V361H362V418Q362 436 351 445T320 455H207V361Z" />
<glyph unicode="&#xaf;" glyph-name="overscore" horiz-adv-x="500" d="M130 847H369V837H130V847Z" />
<glyph unicode="&#xb0;" glyph-name="degree" horiz-adv-x="483" d="M370 581V452Q370 409 343 391T242 373Q169 373 142 391T114 452V581Q114 624 141 642T242 661Q316 661 343 643T370 581ZM242 383Q308 383 334 398T360 452V581Q360 620 334 635T242 651Q176
651 150 636T124 581V452Q124 413 150 398T242 383Z" />
<glyph unicode="&#xb1;" glyph-name="plusminus" horiz-adv-x="734" d="M362 215V417H160V427H362V629H372V427H574V417H372V215H362ZM160 89V99H574V89H160Z" />
<glyph unicode="&#xb2;" glyph-name="twosuperior" horiz-adv-x="485" d="M158 439L326 494Q334 498 339 506T345 527V593Q345 625 327 636T277 647H132V656H277Q314 656 334 643T355 593V527Q355 510 348 500T328 486L161 430Q141 423 134 413T126 379V275H369V266H117V379Q117
406 126 419T158 439Z" />
<glyph unicode="&#xb3;" glyph-name="threesuperior" horiz-adv-x="484" d="M173 459V468H232Q286 468 298 488T311 533V582Q311 609 294 628T225 647H114V656H225Q285 656 302 634T320 579V533Q320 513 313 493T272 466H283Q329 466 348 446T368 388V339Q368
306 351 286T273 266H114V275H273Q326 275 342 292T359 339V388Q359 424 341 441T282 459H173Z" />
<glyph unicode="&#xb4;" glyph-name="acute" horiz-adv-x="500" d="M130 847L369 877V867L130 837V847Z" />
<glyph unicode="&#xb5;" glyph-name="mu" horiz-adv-x="713" d="M359 78Q276 78 235 100T180 159V0H170V480H180V213Q180 157 217 123T359 88Q463 88 501 122T540 213V480H550V213Q550 153 510 116T359 78Z" />
<glyph unicode="&#xb6;" glyph-name="paragraph" horiz-adv-x="682" d="M133 425Q133 398 138 376T159 337T201 311T273 302H515V620H273Q229 620 202 611T159 584T139 544T133 494V425ZM277 292H273Q226 292 197 302T151 329T129 371T123 425V494Q123 523 129
548T151 591T196 619T273 630H525V90H515V292H287V90H277V292Z" />
<glyph unicode="&#xb7;" glyph-name="middot" horiz-adv-x="364" d="M177 310V405H187V310H177Z" />
<glyph unicode="&#xb8;" glyph-name="cedilla" horiz-adv-x="500" d="M272 97L282 96L234 -36H224L272 97Z" />
<glyph unicode="&#xb9;" glyph-name="onesuperior" horiz-adv-x="457" d="M353 262H113V270H234V647H127V656H243V271H353V262Z" />
<glyph unicode="&#xba;" glyph-name="ordmasculine" horiz-adv-x="525" d="M407 356Q407 313 377 287T262 260Q178 260 149 286T119 356V565Q119 609 148 635T262 662Q346 662 376 636T407 565V356ZM128 356Q128 317 156 293T262 269Q340 269 369 293T398 356V565Q398
604 369 628T262 653Q184 653 156 629T128 565V356ZM414 73V65H106V73H414Z" />
<glyph unicode="&#xbb;" glyph-name="guillemotright" horiz-adv-x="812" d="M510 212V222L608 251Q630 258 645 269T661 312V386Q661 417 646 428T607 447L510 477V487L609 457Q637 449 654 435T671 386V312Q671 277 654 263T610 241L510 212ZM140 477V487L239
457Q267 449 284 435T301 386V312Q301 277 284 263T240 241L140 212V222L238 251Q260 257 275 269T291 312V386Q291 417 276 428T237 447L140 477Z" />
<glyph unicode="&#xbc;" glyph-name="onequarter" horiz-adv-x="1203" d="M353 262H113V270H234V647H127V656H243V271H353V262ZM1067 64V191H896Q854 191 835 210T815 267V453H825V267Q825 233 842 217T896 200H1067V453H1077V64H1067ZM534 90H524L624 630H634L534 90Z" />
<glyph unicode="&#xbd;" glyph-name="onehalf" horiz-adv-x="1160" d="M353 262H113V270H234V647H127V656H243V271H353V262ZM833 237L1001 292Q1009 296 1014 304T1020 325V391Q1020 423 1002 434T952 445H807V454H952Q989 454 1009 441T1030 391V325Q1030 308
1023 298T1003 284L836 228Q816 221 809 211T801 177V73H1044V64H792V177Q792 204 801 217T833 237ZM534 90H524L624 630H634L534 90Z" />
<glyph unicode="&#xbe;" glyph-name="threequarters" horiz-adv-x="1213" d="M173 459V468H232Q286 468 298 488T311 533V582Q311 609 294 628T225 647H114V656H225Q285 656 302 634T320 579V533Q320 513 313 493T272 466H283Q329 466 348 446T368 388V339Q368
306 351 286T273 266H114V275H273Q326 275 342 292T359 339V388Q359 424 341 441T282 459H173ZM1077 64V191H906Q864 191 845 210T825 267V453H835V267Q835 233 852 217T906 200H1077V453H1087V64H1077ZM544 90H534L634 630H644L544 90Z" />
<glyph unicode="&#xbf;" glyph-name="questiondown" horiz-adv-x="656" d="M410 640V597H400V640H410ZM433 381L435 370L219 341Q200 338 185 331T170 297V183Q170 134 196 118T254 102H523V92H254Q220 92 190 110T160 183V297Q160 328 177 338T217 351L433 381Z" />
<glyph unicode="&#xc0;" glyph-name="Agrave" horiz-adv-x="730" d="M170 303V272H560V303Q560 330 556 353T544 396L475 559Q464 585 452 602T412 620H314Q284 620 272 603T250 560L186 396Q179 376 175 353T170 303ZM560 90V262H170V90H160V303Q160 331 164
354T177 400L241 564Q252 592 266 611T314 630H412Q445 630 458 611T484 563L553 400Q561 378 565 355T570 303V90H560ZM245 867V877L484 847V837L245 867Z" />
<glyph unicode="&#xc1;" glyph-name="Aacute" horiz-adv-x="730" d="M170 303V272H560V303Q560 330 556 353T544 396L475 559Q464 585 452 602T412 620H314Q284 620 272 603T250 560L186 396Q179 376 175 353T170 303ZM560 90V262H170V90H160V303Q160 331 164
354T177 400L241 564Q252 592 266 611T314 630H412Q445 630 458 611T484 563L553 400Q561 378 565 355T570 303V90H560ZM245 847L484 877V867L245 837V847Z" />
<glyph unicode="&#xc2;" glyph-name="Acircumflex" horiz-adv-x="730" d="M170 303V272H560V303Q560 330 556 353T544 396L475 559Q464 585 452 602T412 620H314Q284 620 272 603T250 560L186 396Q179 376 175 353T170 303ZM560 90V262H170V90H160V303Q160 331
164 354T177 400L241 564Q252 592 266 611T314 630H412Q445 630 458 611T484 563L553 400Q561 378 565 355T570 303V90H560ZM483 850L396 878Q389 880 382 882T364 884Q354 884 347 882T332 878L245 850V861L328 888Q337 890 345 892T364 894Q375 894 383 892T400
888L483 861V850Z" />
<glyph unicode="&#xc3;" glyph-name="Atilde" horiz-adv-x="730" d="M170 303V272H560V303Q560 330 556 353T544 396L475 559Q464 585 452 602T412 620H314Q284 620 272 603T250 560L186 396Q179 376 175 353T170 303ZM560 90V262H170V90H160V303Q160 331 164
354T177 400L241 564Q252 592 266 611T314 630H412Q445 630 458 611T484 563L553 400Q561 378 565 355T570 303V90H560ZM483 841V831Q463 829 440 831T379 839L363 841L335 845Q302 850 282 851T245 849V860Q262 862 282 861T337 855L365 851L381 849Q419 843 441
841T483 841Z" />
<glyph unicode="&#xc4;" glyph-name="Adieresis" horiz-adv-x="730" d="M170 303V272H560V303Q560 330 556 353T544 396L475 559Q464 585 452 602T412 620H314Q284 620 272 603T250 560L186 396Q179 376 175 353T170 303ZM560 90V262H170V90H160V303Q160 331 164
354T177 400L241 564Q252 592 266 611T314 630H412Q445 630 458 611T484 563L553 400Q561 378 565 355T570 303V90H560ZM239 830H229V877H239V830ZM497 830H487V877H497V830Z" />
<glyph unicode="&#xc5;" glyph-name="Aring" horiz-adv-x="730" d="M225 760V805Q225 827 230 846T251 878T294 898T366 906Q455 906 482 878T509 805V760Q509 715 482 688T366 660Q322 660 294 667T251 687T231 719T225 760ZM366 896Q286 896 261 872T235 805V760Q235
718 260 694T366 670Q446 670 472 694T499 760V805Q499 846 473 871T366 896ZM170 303V272H560V303Q560 330 556 353T544 396L475 559Q464 585 452 602T412 620H314Q284 620 272 603T250 560L186 396Q179 376 175 353T170 303ZM560 90V262H170V90H160V303Q160 331
164 354T177 400L241 564Q252 592 266 611T314 630H412Q445 630 458 611T484 563L553 400Q561 378 565 355T570 303V90H560Z" />
<glyph unicode="&#xc6;" glyph-name="AE" horiz-adv-x="1005" d="M168 291V273H549V620H294Q279 620 270 612T253 582L179 379Q172 360 170 340T168 291ZM158 90V291Q158 320 160 341T169 383L243 586Q253 612 264 621T294 630H866V620H559V370H785V360H559V100H866V90H549V263H168V90H158Z"
/>
<glyph unicode="&#xc7;" glyph-name="Ccedilla" horiz-adv-x="628" d="M493 90H405L359 -36H349L394 90H326Q229 90 198 120T166 219V499Q166 570 198 600T326 630H493V620H326Q238 620 207 593T176 499V219Q176 154 206 127T326 100H493V90Z" />
<glyph unicode="&#xc8;" glyph-name="Egrave" horiz-adv-x="654" d="M515 100V90H178V630H515V620H188V369H434V359H188V100H515ZM207 867V877L446 847V837L207 867Z" />
<glyph unicode="&#xc9;" glyph-name="Eacute" horiz-adv-x="654" d="M515 100V90H178V630H515V620H188V369H434V359H188V100H515ZM237 847L476 877V867L237 837V847Z" />
<glyph unicode="&#xca;" glyph-name="Ecircumflex" horiz-adv-x="654" d="M515 100V90H178V630H515V620H188V369H434V359H188V100H515ZM455 850L368 878Q361 880 354 882T336 884Q326 884 319 882T304 878L217 850V861L300 888Q309 890 317 892T336 894Q347 894
355 892T372 888L455 861V850Z" />
<glyph unicode="&#xcb;" glyph-name="Edieresis" horiz-adv-x="654" d="M515 100V90H178V630H515V620H188V369H434V359H188V100H515ZM221 830H211V877H221V830ZM479 830H469V877H479V830Z" />
<glyph unicode="&#xcc;" glyph-name="Igrave" horiz-adv-x="605" d="M461 90H143V100H298V620H143V630H461V620H308V100H461V90ZM182 867V877L421 847V837L182 867Z" />
<glyph unicode="&#xcd;" glyph-name="Iacute" horiz-adv-x="605" d="M461 90H143V100H298V620H143V630H461V620H308V100H461V90ZM182 847L421 877V867L182 837V847Z" />
<glyph unicode="&#xce;" glyph-name="Icircumflex" horiz-adv-x="605" d="M461 90H143V100H298V620H143V630H461V620H308V100H461V90ZM420 850L333 878Q326 880 319 882T301 884Q291 884 284 882T269 878L182 850V861L265 888Q274 890 282 892T301 894Q312 894
320 892T337 888L420 861V850Z" />
<glyph unicode="&#xcf;" glyph-name="Idieresis" horiz-adv-x="605" d="M461 90H143V100H298V620H143V630H461V620H308V100H461V90ZM176 830H166V877H176V830ZM434 830H424V877H434V830Z" />
<glyph unicode="&#xd0;" glyph-name="Eth" horiz-adv-x="756" d="M186 90V349H110V359H186V630H430Q481 630 512 619T561 590T584 546T590 491V226Q590 197 585 172T562 129T513 101T430 90H186ZM290 349H196V100H430Q478 100 507 109T553 135T574 175T580 226V491Q580
518 574 542T552 583T507 610T430 620H196V359H290V349Z" />
<glyph unicode="&#xd1;" glyph-name="Ntilde" horiz-adv-x="753" d="M201 622L569 208V630H579V90H569V193L191 617Q190 618 189 619T186 620Q185 620 185 619T184 617V90H174V619Q174 625 178 628T186 631Q190 631 193 629T201 622ZM494 841V831Q474 829 451
831T390 839L374 841L346 845Q313 850 293 851T256 849V860Q273 862 293 861T348 855L376 851L392 849Q430 843 452 841T494 841Z" />
<glyph unicode="&#xd2;" glyph-name="Ograve" horiz-adv-x="737" d="M570 212Q570 152 527 115T367 77Q250 77 208 114T166 212V507Q166 567 208 604T367 642Q484 642 527 605T570 507V212ZM176 212Q176 156 216 122T367 87Q478 87 519 121T560 212V507Q560 563
519 597T367 632Q256 632 216 598T176 507V212ZM248 867V877L487 847V837L248 867Z" />
<glyph unicode="&#xd3;" glyph-name="Oacute" horiz-adv-x="737" d="M570 212Q570 152 527 115T367 77Q250 77 208 114T166 212V507Q166 567 208 604T367 642Q484 642 527 605T570 507V212ZM176 212Q176 156 216 122T367 87Q478 87 519 121T560 212V507Q560 563
519 597T367 632Q256 632 216 598T176 507V212ZM248 847L487 877V867L248 837V847Z" />
<glyph unicode="&#xd4;" glyph-name="Ocircumflex" horiz-adv-x="737" d="M570 212Q570 152 527 115T367 77Q250 77 208 114T166 212V507Q166 567 208 604T367 642Q484 642 527 605T570 507V212ZM176 212Q176 156 216 122T367 87Q478 87 519 121T560 212V507Q560
563 519 597T367 632Q256 632 216 598T176 507V212ZM486 850L399 878Q392 880 385 882T367 884Q357 884 350 882T335 878L248 850V861L331 888Q340 890 348 892T367 894Q378 894 386 892T403 888L486 861V850Z" />
<glyph unicode="&#xd5;" glyph-name="Otilde" horiz-adv-x="737" d="M570 212Q570 152 527 115T367 77Q250 77 208 114T166 212V507Q166 567 208 604T367 642Q484 642 527 605T570 507V212ZM176 212Q176 156 216 122T367 87Q478 87 519 121T560 212V507Q560 563
519 597T367 632Q256 632 216 598T176 507V212ZM486 841V831Q466 829 443 831T382 839L366 841L338 845Q305 850 285 851T248 849V860Q265 862 285 861T340 855L368 851L384 849Q422 843 444 841T486 841Z" />
<glyph unicode="&#xd6;" glyph-name="Odieresis" horiz-adv-x="737" d="M570 212Q570 152 527 115T367 77Q250 77 208 114T166 212V507Q166 567 208 604T367 642Q484 642 527 605T570 507V212ZM176 212Q176 156 216 122T367 87Q478 87 519 121T560 212V507Q560
563 519 597T367 632Q256 632 216 598T176 507V212ZM242 830H232V877H242V830ZM500 830H490V877H500V830Z" />
<glyph unicode="&#xd7;" glyph-name="multiply" horiz-adv-x="734" d="M510 210L367 353L224 210L217 217L360 360L217 503L224 510L367 367L510 510L517 503L374 360L517 217L510 210Z" />
<glyph unicode="&#xd8;" glyph-name="Oslash" horiz-adv-x="737" d="M166 212Q166 173 184 144T253 100L474 621Q453 626 427 629T367 632Q308 632 269 623T207 598T175 558T166 507V212ZM367 87Q486 87 528 121T570 212V507Q570 546 551 575T483 618L263 97Q283
93 309 90T367 87ZM230 20H219L249 91Q196 106 176 137T156 212V507Q156 537 165 562T199 605T264 632T367 642Q401 642 428 639T478 631L507 700H518L487 628Q540 612 560 581T580 507V212Q580 182 570 157T536 114T471 87T367 77Q334 77 307 80T259 88L230 20Z"
/>
<glyph unicode="&#xd9;" glyph-name="Ugrave" horiz-adv-x="746" d="M174 630H184V213Q184 157 223 123T374 88Q485 88 525 122T565 213V630H575V213Q575 153 533 116T374 78Q257 78 216 115T174 213V630ZM243 867V877L482 847V837L243 867Z" />
<glyph unicode="&#xda;" glyph-name="Uacute" horiz-adv-x="746" d="M174 630H184V213Q184 157 223 123T374 88Q485 88 525 122T565 213V630H575V213Q575 153 533 116T374 78Q257 78 216 115T174 213V630ZM263 847L502 877V867L263 837V847Z" />
<glyph unicode="&#xdb;" glyph-name="Ucircumflex" horiz-adv-x="746" d="M174 630H184V213Q184 157 223 123T374 88Q485 88 525 122T565 213V630H575V213Q575 153 533 116T374 78Q257 78 216 115T174 213V630ZM491 850L404 878Q397 880 390 882T372 884Q362 884
355 882T340 878L253 850V861L336 888Q345 890 353 892T372 894Q383 894 391 892T408 888L491 861V850Z" />
<glyph unicode="&#xdc;" glyph-name="Udieresis" horiz-adv-x="746" d="M174 630H184V213Q184 157 223 123T374 88Q485 88 525 122T565 213V630H575V213Q575 153 533 116T374 78Q257 78 216 115T174 213V630ZM247 830H237V877H247V830ZM505 830H495V877H505V830Z" />
<glyph unicode="&#xdd;" glyph-name="Yacute" horiz-adv-x="705" d="M365 261H358V90H348V261H338Q316 261 299 271T265 303L168 438Q157 453 155 473T153 515V630H163V515Q163 494 165 476T177 442L274 307Q287 287 304 279T338 271H365Q384 271 399 279T430
307L530 442Q540 455 542 474T544 515V630H554V515Q554 493 553 474T539 438L439 303Q423 281 406 271T365 261ZM242 847L481 877V867L242 837V847Z" />
<glyph unicode="&#xde;" glyph-name="Thorn" horiz-adv-x="692" d="M177 90V630H187V531H393Q440 531 469 521T515 492T537 449T543 395V320Q543 291 537 267T515 225T470 197T393 187H187V90H177ZM187 197H393Q437 197 464 206T507 231T527 270T533 320V395Q533
422 528 445T507 485T465 511T393 521H187V197Z" />
<glyph unicode="&#xdf;" glyph-name="germandbls" horiz-adv-x="759" d="M193 90H183V630H431Q482 630 501 602T505 518L465 374H511Q563 374 589 351T616 276V188Q616 137 590 114T502 90H446V100H502Q558 100 582 121T606 188V276Q606 323 582 343T511 364H451L495
520Q508 569 493 594T431 620H193V90Z" />
<glyph unicode="&#xe0;" glyph-name="agrave" horiz-adv-x="730" d="M170 303V272H560V303Q560 330 556 353T544 396L475 559Q464 585 452 602T412 620H314Q284 620 272 603T250 560L186 396Q179 376 175 353T170 303ZM560 90V262H170V90H160V303Q160 331 164
354T177 400L241 564Q252 592 266 611T314 630H412Q445 630 458 611T484 563L553 400Q561 378 565 355T570 303V90H560ZM245 867V877L484 847V837L245 867Z" />
<glyph unicode="&#xe1;" glyph-name="aacute" horiz-adv-x="730" d="M170 303V272H560V303Q560 330 556 353T544 396L475 559Q464 585 452 602T412 620H314Q284 620 272 603T250 560L186 396Q179 376 175 353T170 303ZM560 90V262H170V90H160V303Q160 331 164
354T177 400L241 564Q252 592 266 611T314 630H412Q445 630 458 611T484 563L553 400Q561 378 565 355T570 303V90H560ZM245 847L484 877V867L245 837V847Z" />
<glyph unicode="&#xe2;" glyph-name="acircumflex" horiz-adv-x="730" d="M170 303V272H560V303Q560 330 556 353T544 396L475 559Q464 585 452 602T412 620H314Q284 620 272 603T250 560L186 396Q179 376 175 353T170 303ZM560 90V262H170V90H160V303Q160 331
164 354T177 400L241 564Q252 592 266 611T314 630H412Q445 630 458 611T484 563L553 400Q561 378 565 355T570 303V90H560ZM483 850L396 878Q389 880 382 882T364 884Q354 884 347 882T332 878L245 850V861L328 888Q337 890 345 892T364 894Q375 894 383 892T400
888L483 861V850Z" />
<glyph unicode="&#xe3;" glyph-name="atilde" horiz-adv-x="730" d="M170 303V272H560V303Q560 330 556 353T544 396L475 559Q464 585 452 602T412 620H314Q284 620 272 603T250 560L186 396Q179 376 175 353T170 303ZM560 90V262H170V90H160V303Q160 331 164
354T177 400L241 564Q252 592 266 611T314 630H412Q445 630 458 611T484 563L553 400Q561 378 565 355T570 303V90H560ZM483 841V831Q463 829 440 831T379 839L363 841L335 845Q302 850 282 851T245 849V860Q262 862 282 861T337 855L365 851L381 849Q419 843 441
841T483 841Z" />
<glyph unicode="&#xe4;" glyph-name="adieresis" horiz-adv-x="730" d="M170 303V272H560V303Q560 330 556 353T544 396L475 559Q464 585 452 602T412 620H314Q284 620 272 603T250 560L186 396Q179 376 175 353T170 303ZM560 90V262H170V90H160V303Q160 331 164
354T177 400L241 564Q252 592 266 611T314 630H412Q445 630 458 611T484 563L553 400Q561 378 565 355T570 303V90H560ZM239 830H229V877H239V830ZM497 830H487V877H497V830Z" />
<glyph unicode="&#xe5;" glyph-name="aring" horiz-adv-x="730" d="M225 760V805Q225 827 230 846T251 878T294 898T366 906Q455 906 482 878T509 805V760Q509 715 482 688T366 660Q322 660 294 667T251 687T231 719T225 760ZM366 896Q286 896 261 872T235 805V760Q235
718 260 694T366 670Q446 670 472 694T499 760V805Q499 846 473 871T366 896ZM170 303V272H560V303Q560 330 556 353T544 396L475 559Q464 585 452 602T412 620H314Q284 620 272 603T250 560L186 396Q179 376 175 353T170 303ZM560 90V262H170V90H160V303Q160 331
164 354T177 400L241 564Q252 592 266 611T314 630H412Q445 630 458 611T484 563L553 400Q561 378 565 355T570 303V90H560Z" />
<glyph unicode="&#xe6;" glyph-name="ae" horiz-adv-x="1005" d="M168 291V273H549V620H294Q279 620 270 612T253 582L179 379Q172 360 170 340T168 291ZM158 90V291Q158 320 160 341T169 383L243 586Q253 612 264 621T294 630H866V620H559V370H785V360H559V100H866V90H549V263H168V90H158Z"
/>
<glyph unicode="&#xe7;" glyph-name="ccedilla" horiz-adv-x="628" d="M493 90H405L359 -36H349L394 90H326Q229 90 198 120T166 219V499Q166 570 198 600T326 630H493V620H326Q238 620 207 593T176 499V219Q176 154 206 127T326 100H493V90Z" />
<glyph unicode="&#xe8;" glyph-name="egrave" horiz-adv-x="654" d="M515 100V90H178V630H515V620H188V369H434V359H188V100H515ZM207 867V877L446 847V837L207 867Z" />
<glyph unicode="&#xe9;" glyph-name="eacute" horiz-adv-x="654" d="M515 100V90H178V630H515V620H188V369H434V359H188V100H515ZM237 847L476 877V867L237 837V847Z" />
<glyph unicode="&#xea;" glyph-name="ecircumflex" horiz-adv-x="654" d="M515 100V90H178V630H515V620H188V369H434V359H188V100H515ZM455 850L368 878Q361 880 354 882T336 884Q326 884 319 882T304 878L217 850V861L300 888Q309 890 317 892T336 894Q347 894
355 892T372 888L455 861V850Z" />
<glyph unicode="&#xeb;" glyph-name="edieresis" horiz-adv-x="654" d="M515 100V90H178V630H515V620H188V369H434V359H188V100H515ZM221 830H211V877H221V830ZM479 830H469V877H479V830Z" />
<glyph unicode="&#xec;" glyph-name="igrave" horiz-adv-x="605" d="M461 90H143V100H298V620H143V630H461V620H308V100H461V90ZM182 867V877L421 847V837L182 867Z" />
<glyph unicode="&#xed;" glyph-name="iacute" horiz-adv-x="605" d="M461 90H143V100H298V620H143V630H461V620H308V100H461V90ZM182 847L421 877V867L182 837V847Z" />
<glyph unicode="&#xee;" glyph-name="icircumflex" horiz-adv-x="605" d="M461 90H143V100H298V620H143V630H461V620H308V100H461V90ZM420 850L333 878Q326 880 319 882T301 884Q291 884 284 882T269 878L182 850V861L265 888Q274 890 282 892T301 894Q312 894
320 892T337 888L420 861V850Z" />
<glyph unicode="&#xef;" glyph-name="idieresis" horiz-adv-x="605" d="M461 90H143V100H298V620H143V630H461V620H308V100H461V90ZM176 830H166V877H176V830ZM434 830H424V877H434V830Z" />
<glyph unicode="&#xf0;" glyph-name="eth" horiz-adv-x="756" d="M186 90V349H110V359H186V630H430Q481 630 512 619T561 590T584 546T590 491V226Q590 197 585 172T562 129T513 101T430 90H186ZM290 349H196V100H430Q478 100 507 109T553 135T574 175T580 226V491Q580
518 574 542T552 583T507 610T430 620H196V359H290V349Z" />
<glyph unicode="&#xf1;" glyph-name="ntilde" horiz-adv-x="753" d="M201 622L569 208V630H579V90H569V193L191 617Q190 618 189 619T186 620Q185 620 185 619T184 617V90H174V619Q174 625 178 628T186 631Q190 631 193 629T201 622ZM494 841V831Q474 829 451
831T390 839L374 841L346 845Q313 850 293 851T256 849V860Q273 862 293 861T348 855L376 851L392 849Q430 843 452 841T494 841Z" />
<glyph unicode="&#xf2;" glyph-name="ograve" horiz-adv-x="737" d="M570 212Q570 152 527 115T367 77Q250 77 208 114T166 212V507Q166 567 208 604T367 642Q484 642 527 605T570 507V212ZM176 212Q176 156 216 122T367 87Q478 87 519 121T560 212V507Q560 563
519 597T367 632Q256 632 216 598T176 507V212ZM248 867V877L487 847V837L248 867Z" />
<glyph unicode="&#xf3;" glyph-name="oacute" horiz-adv-x="737" d="M570 212Q570 152 527 115T367 77Q250 77 208 114T166 212V507Q166 567 208 604T367 642Q484 642 527 605T570 507V212ZM176 212Q176 156 216 122T367 87Q478 87 519 121T560 212V507Q560 563
519 597T367 632Q256 632 216 598T176 507V212ZM248 847L487 877V867L248 837V847Z" />
<glyph unicode="&#xf4;" glyph-name="ocircumflex" horiz-adv-x="737" d="M570 212Q570 152 527 115T367 77Q250 77 208 114T166 212V507Q166 567 208 604T367 642Q484 642 527 605T570 507V212ZM176 212Q176 156 216 122T367 87Q478 87 519 121T560 212V507Q560
563 519 597T367 632Q256 632 216 598T176 507V212ZM486 850L399 878Q392 880 385 882T367 884Q357 884 350 882T335 878L248 850V861L331 888Q340 890 348 892T367 894Q378 894 386 892T403 888L486 861V850Z" />
<glyph unicode="&#xf5;" glyph-name="otilde" horiz-adv-x="737" d="M570 212Q570 152 527 115T367 77Q250 77 208 114T166 212V507Q166 567 208 604T367 642Q484 642 527 605T570 507V212ZM176 212Q176 156 216 122T367 87Q478 87 519 121T560 212V507Q560 563
519 597T367 632Q256 632 216 598T176 507V212ZM486 841V831Q466 829 443 831T382 839L366 841L338 845Q305 850 285 851T248 849V860Q265 862 285 861T340 855L368 851L384 849Q422 843 444 841T486 841Z" />
<glyph unicode="&#xf6;" glyph-name="odieresis" horiz-adv-x="737" d="M570 212Q570 152 527 115T367 77Q250 77 208 114T166 212V507Q166 567 208 604T367 642Q484 642 527 605T570 507V212ZM176 212Q176 156 216 122T367 87Q478 87 519 121T560 212V507Q560
563 519 597T367 632Q256 632 216 598T176 507V212ZM242 830H232V877H242V830ZM500 830H490V877H500V830Z" />
<glyph unicode="&#xf7;" glyph-name="divide" horiz-adv-x="734" d="M362 558V603H372V558H362ZM160 355V365H574V355H160ZM362 117V162H372V117H362Z" />
<glyph unicode="&#xf8;" glyph-name="oslash" horiz-adv-x="737" d="M166 212Q166 173 184 144T253 100L474 621Q453 626 427 629T367 632Q308 632 269 623T207 598T175 558T166 507V212ZM367 87Q486 87 528 121T570 212V507Q570 546 551 575T483 618L263 97Q283
93 309 90T367 87ZM230 20H219L249 91Q196 106 176 137T156 212V507Q156 537 165 562T199 605T264 632T367 642Q401 642 428 639T478 631L507 700H518L487 628Q540 612 560 581T580 507V212Q580 182 570 157T536 114T471 87T367 77Q334 77 307 80T259 88L230 20Z"
/>
<glyph unicode="&#xf9;" glyph-name="ugrave" horiz-adv-x="746" d="M174 630H184V213Q184 157 223 123T374 88Q485 88 525 122T565 213V630H575V213Q575 153 533 116T374 78Q257 78 216 115T174 213V630ZM243 867V877L482 847V837L243 867Z" />
<glyph unicode="&#xfa;" glyph-name="uacute" horiz-adv-x="746" d="M174 630H184V213Q184 157 223 123T374 88Q485 88 525 122T565 213V630H575V213Q575 153 533 116T374 78Q257 78 216 115T174 213V630ZM263 847L502 877V867L263 837V847Z" />
<glyph unicode="&#xfb;" glyph-name="ucircumflex" horiz-adv-x="746" d="M174 630H184V213Q184 157 223 123T374 88Q485 88 525 122T565 213V630H575V213Q575 153 533 116T374 78Q257 78 216 115T174 213V630ZM491 850L404 878Q397 880 390 882T372 884Q362 884
355 882T340 878L253 850V861L336 888Q345 890 353 892T372 894Q383 894 391 892T408 888L491 861V850Z" />
<glyph unicode="&#xfc;" glyph-name="udieresis" horiz-adv-x="746" d="M174 630H184V213Q184 157 223 123T374 88Q485 88 525 122T565 213V630H575V213Q575 153 533 116T374 78Q257 78 216 115T174 213V630ZM247 830H237V877H247V830ZM505 830H495V877H505V830Z" />
<glyph unicode="&#xfd;" glyph-name="yacute" horiz-adv-x="705" d="M365 261H358V90H348V261H338Q316 261 299 271T265 303L168 438Q157 453 155 473T153 515V630H163V515Q163 494 165 476T177 442L274 307Q287 287 304 279T338 271H365Q384 271 399 279T430
307L530 442Q540 455 542 474T544 515V630H554V515Q554 493 553 474T539 438L439 303Q423 281 406 271T365 261ZM242 847L481 877V867L242 837V847Z" />
<glyph unicode="&#xfe;" glyph-name="thorn" horiz-adv-x="692" d="M177 90V630H187V531H393Q440 531 469 521T515 492T537 449T543 395V320Q543 291 537 267T515 225T470 197T393 187H187V90H177ZM187 197H393Q437 197 464 206T507 231T527 270T533 320V395Q533
422 528 445T507 485T465 511T393 521H187V197Z" />
<glyph unicode="&#xff;" glyph-name="ydieresis" horiz-adv-x="705" d="M365 261H358V90H348V261H338Q316 261 299 271T265 303L168 438Q157 453 155 473T153 515V630H163V515Q163 494 165 476T177 442L274 307Q287 287 304 279T338 271H365Q384 271 399 279T430
307L530 442Q540 455 542 474T544 515V630H554V515Q554 493 553 474T539 438L439 303Q423 281 406 271T365 261ZM226 830H216V877H226V830ZM484 830H474V877H484V830Z" />
<glyph unicode="&#x2013;" glyph-name="endash" horiz-adv-x="734" d="M574 365V355H160V365H574Z" />
<glyph unicode="&#x2014;" glyph-name="emdash" horiz-adv-x="1134" d="M974 365V355H160V365H974Z" />
<glyph unicode="&#x2018;" glyph-name="quoteleft" horiz-adv-x="384" d="M125 450V569Q125 615 149 637T213 660H259V650H213Q177 650 156 630T135 569V460H259V450H125Z" />
<glyph unicode="&#x2019;" glyph-name="quoteright" horiz-adv-x="384" d="M259 615V496Q259 450 235 428T171 405H125V415H171Q207 415 228 435T249 496V605H125V615H259Z" />
<glyph unicode="&#x201a;" glyph-name="quotesinglbase" horiz-adv-x="384" d="M259 170V51Q259 5 235 -17T171 -40H125V-30H171Q207 -30 228 -10T249 51V160H125V170H259Z" />
<glyph unicode="&#x201c;" glyph-name="quotedblleft" horiz-adv-x="684" d="M435 450V569Q435 615 459 637T523 660H569V650H523Q487 650 466 630T445 569V460H569V450H435ZM115 450V569Q115 615 139 637T203 660H249V650H203Q167 650 146 630T125 569V460H249V450H115Z" />
<glyph unicode="&#x201d;" glyph-name="quotedblright" horiz-adv-x="684" d="M569 615V496Q569 450 545 428T481 405H435V415H481Q517 415 538 435T559 496V605H435V615H569ZM249 615V496Q249 450 225 428T161 405H115V415H161Q197 415 218 435T239 496V605H115V615H249Z"
/>
<glyph unicode="&#x201e;" glyph-name="quotedblbase" horiz-adv-x="684" d="M569 170V51Q569 5 545 -17T481 -40H435V-30H481Q517 -30 538 -10T559 51V160H435V170H569ZM249 170V51Q249 5 225 -17T161 -40H115V-30H161Q197 -30 218 -10T239 51V160H115V170H249Z" />
<glyph unicode="&#x2022;" glyph-name="bullet" horiz-adv-x="443" d="M308 449V275H135V449H308ZM298 439H145V285H298V439Z" />
<glyph unicode="&#x2039;" glyph-name="guilsinglleft" horiz-adv-x="563" d="M215 256L400 218V208L213 246Q186 251 173 265T160 310V388Q160 418 173 432T212 452L400 490V480L214 442Q192 438 181 426T170 388V310Q170 285 181 273T215 256Z" />
<glyph unicode="&#x203a;" glyph-name="guilsinglright" horiz-adv-x="563" d="M170 208V218L355 256Q377 260 388 272T400 310V388Q400 413 389 425T356 442L170 480V490L358 452Q384 447 397 433T410 388V310Q410 280 397 266T357 246L170 208Z" />
</font>
</defs>
</svg>
