<?xml version="1.0" standalone="no"?>
<!DOCTYPE svg PUBLIC "-//W3C//DTD SVG 1.1//EN" "http://www.w3.org/Graphics/SVG/1.1/DTD/svg11.dtd">
<svg xmlns="http://www.w3.org/2000/svg">
<defs >
<font id="ZillaSlab" horiz-adv-x="518" ><font-face
    font-family="Zilla Slab Light"
    units-per-em="1000"
    panose-1="0 0 0 0 0 0 0 0 0 0"
    ascent="944"
    descent="-256"
    alphabetic="0" />
<glyph unicode=" " glyph-name="uni0020" horiz-adv-x="231" />
<glyph unicode="!" glyph-name="uni0021" horiz-adv-x="232" d="M187 650L127 181H85L124 650H187ZM53 0L62 84H133L124 0H53Z" />
<glyph unicode="&quot;" glyph-name="uni0022" horiz-adv-x="362" d="M128 377H79L105 650H160L128 377ZM304 377H255L281 650H336L304 377Z" />
<glyph unicode="#" glyph-name="uni0023" horiz-adv-x="583" d="M505 521L469 398H555L550 352H455L404 177H502L497 131H390L352 0H302L340 131H156L118 0H68L106 131H25L30 177H120L171 352H77L82 398H185L221 521H271L235 398H419L455 521H505ZM170 177H354L405
352H221L170 177Z" />
<glyph unicode="$" glyph-name="uni0024" horiz-adv-x="458" d="M397 156Q397 82 349 40T218 -7L212 -65H177L183 -7Q133 -4 91 11T27 41L48 150L94 146L84 69Q132 43 188 39L210 252Q151 266 110 292T68 377Q68 447 116 486T239 528L246 593H281L274 528Q354
523 408 482L402 370L356 367L355 455Q318 481 269 484L250 296Q301 283 349 255T397 156ZM126 387Q126 346 151 330T216 304L234 484Q126 476 126 387ZM339 147Q339 191 314 211T244 243L223 38Q271 42 305 68T339 147Z" />
<glyph unicode="%" glyph-name="uni0025" horiz-adv-x="662" d="M168 244Q115 244 83 274T50 366Q50 446 95 488T208 530Q259 530 292 501T325 407Q325 334 283 289T168 244ZM582 521L360 269L132 0H73L328 287L524 521H582ZM173 286Q228 286 253 320T278 403Q278
487 201 487Q97 487 97 371Q97 286 173 286ZM455 -10Q402 -10 369 18T336 114Q336 193 382 234T495 276Q546 276 579 246T612 153Q612 80 570 35T455 -10ZM460 32Q516 32 540 66T565 149Q565 234 488 234Q384 234 384 117Q384 32 460 32Z" />
<glyph unicode="&amp;" glyph-name="uni0026" horiz-adv-x="723" d="M426 356H706L701 307H588Q565 259 524 200T427 91Q460 69 495 57T567 44Q616 44 653 67L663 19Q612 -10 556 -10Q467 -10 381 54Q341 25 298 8T207 -10Q136 -10 88 31T39 143Q39 206 80 250T185
327Q162 394 162 454Q162 548 217 604T352 660Q414 660 454 627T494 538Q494 480 454 441T356 373T249 320Q272 263 310 209T395 116Q439 156 473 207T529 307H420L426 356ZM436 534Q436 566 414 589T348 613Q293 613 256 574T218 462Q218 407 237 353Q308 388
372 431T436 534ZM198 293Q154 268 125 236T95 152Q95 93 131 67T219 40Q286 40 348 80Q251 167 198 293Z" />
<glyph unicode="&apos;" glyph-name="uni0027" horiz-adv-x="186" d="M128 377H79L105 650H160L128 377Z" />
<glyph unicode="(" glyph-name="uni0028" horiz-adv-x="269" d="M249 718H303Q197 597 143 472T89 212Q89 112 118 9T208 -183H152Q94 -91 68 10T41 208Q41 341 91 467T249 718Z" />
<glyph unicode=")" glyph-name="uni0029" horiz-adv-x="268" d="M17 -183H-37Q69 -62 123 63T177 323Q177 423 148 526T58 718H114Q172 626 198 525T225 327Q225 194 175 68T17 -183Z" />
<glyph unicode="*" glyph-name="uni002A" horiz-adv-x="407" d="M386 562L260 492L371 423L343 386L241 458L231 339H187L203 458L84 386L65 423L191 492L80 562L107 599L210 526L220 650H264L248 526L365 599L386 562Z" />
<glyph unicode="+" glyph-name="uni002B" horiz-adv-x="419" d="M38 259L42 303H193L210 455H253L236 303H382L378 259H232L216 108H173L189 259H38Z" />
<glyph unicode="," glyph-name="uni002C" horiz-adv-x="195" d="M-10 -107L62 105H115L43 -107H-10Z" />
<glyph unicode="-" glyph-name="uni002D" horiz-adv-x="349" d="M59 254H285L280 205H54L59 254Z" />
<glyph unicode="." glyph-name="uni002E" horiz-adv-x="204" d="M35 0L43 84H121L113 0H35Z" />
<glyph unicode="/" glyph-name="uni002F" horiz-adv-x="372" d="M370 688L80 0H28L317 688H370Z" />
<glyph unicode="0" glyph-name="uni0030" horiz-adv-x="566" d="M46 224Q46 348 114 439T310 530Q416 530 466 463T516 293Q516 165 447 78T253 -10Q149 -10 98 55T46 224ZM104 231Q104 145 140 93T259 41Q354 41 405 111T457 292Q457 375 423 427T304 479Q206
479 155 409T104 231Z" />
<glyph unicode="1" glyph-name="uni0031" horiz-adv-x="370" d="M30 51H152L196 470H75L80 521H258L208 51H328L322 0H25L30 51Z" />
<glyph unicode="2" glyph-name="uni0032" horiz-adv-x="500" d="M113 371L69 377L96 486Q128 506 177 518T273 531Q357 531 392 486T427 389Q427 316 369 251T235 135T103 51H372L391 136L437 133L413 0H27L26 44Q190 151 278 225T367 383Q367 481 252 481Q231
481 200 475T139 456L113 371Z" />
<glyph unicode="3" glyph-name="uni0033" horiz-adv-x="499" d="M132 371L88 377L114 476Q134 493 176 512T271 531Q340 531 388 494T436 389Q436 336 406 288T293 218V214Q373 200 402 157T431 69Q431 -22 371 -81T206 -141Q120 -141 78 -102T25 -10L69 6Q83
-35 114 -63T209 -92Q306 -92 339 -39T372 66Q372 120 333 151T191 187L195 231Q298 238 337 284T377 380Q377 481 255 481Q210 481 160 455L132 371Z" />
<glyph unicode="4" glyph-name="uni0034" horiz-adv-x="521" d="M349 -131H294L312 35H4L3 84L287 521H418L372 84H477L464 35H367L349 -131ZM317 84L358 471H307L57 84H317Z" />
<glyph unicode="5" glyph-name="uni0035" horiz-adv-x="501" d="M433 77Q433 -17 377 -78T213 -140Q128 -140 86 -101T34 -10L78 6Q105 -91 213 -91Q291 -91 332 -48T373 69Q373 160 315 187T174 215Q134 215 94 212L76 232L107 521H452L445 395L398 390V471H154L132
264Q145 265 158 265T184 265Q250 265 306 250T398 195T433 77Z" />
<glyph unicode="6" glyph-name="uni0036" horiz-adv-x="526" d="M467 227Q467 139 417 65T245 -10Q132 -10 93 61T53 251Q53 352 79 446T164 600T326 660Q387 660 426 637T495 573L457 537Q407 610 317 610Q219 610 169 521T110 278Q128 321 176 359T306 398Q393
398 430 350T467 227ZM410 218Q410 282 383 315T291 348Q201 348 161 295T110 195Q112 130 141 86T250 42Q336 42 373 93T410 218Z" />
<glyph unicode="7" glyph-name="uni0037" horiz-adv-x="457" d="M62 521H455L459 484L152 -130H91L399 471H107L96 360H44L62 521Z" />
<glyph unicode="8" glyph-name="uni0038" horiz-adv-x="528" d="M230 -10Q145 -10 90 29T35 146Q35 226 89 266T212 335Q162 360 126 394T89 486Q89 560 151 610T304 660Q382 660 434 620T486 510Q486 442 438 405T327 340Q382 314 426 277T470 173Q470 90 401
40T230 -10ZM148 495Q148 445 188 416T280 363Q339 387 383 418T428 507Q428 559 392 584T300 610Q237 610 193 579T148 495ZM238 40Q306 40 359 72T412 166Q412 223 365 254T259 312Q194 286 143 252T91 154Q91 97 133 69T238 40Z" />
<glyph unicode="9" glyph-name="uni0039" horiz-adv-x="525" d="M54 293Q54 381 104 455T276 530Q388 530 428 459T468 269Q468 168 442 74T356 -80T195 -140Q134 -140 95 -117T26 -53L64 -17Q114 -90 204 -90Q302 -90 352 -1T411 242Q393 199 345 161T215 122Q128
122 91 170T54 293ZM111 302Q111 238 138 205T230 172Q320 172 360 225T411 325Q409 390 380 434T271 478Q185 478 148 427T111 302Z" />
<glyph unicode=":" glyph-name="uni003A" horiz-adv-x="214" d="M84 443H162L154 359H76L84 443ZM47 84H125L117 0H39L47 84Z" />
<glyph unicode=";" glyph-name="uni003B" horiz-adv-x="229" d="M94 359L102 443H180L172 359H94ZM1 -107L73 105H126L54 -107H1Z" />
<glyph unicode="&lt;" glyph-name="uni003C" horiz-adv-x="400" d="M315 14L30 272L31 286L371 549L364 494L92 280L321 69L315 14Z" />
<glyph unicode="=" glyph-name="uni003D" horiz-adv-x="574" d="M73 369L78 413H526L521 369H73ZM50 149L55 192H503L498 149H50Z" />
<glyph unicode="&gt;" glyph-name="uni003E" horiz-adv-x="401" d="M370 272L31 14L37 69L311 280L81 494L87 549L372 286L370 272Z" />
<glyph unicode="?" glyph-name="uni003F" horiz-adv-x="430" d="M109 461L64 464L81 576Q106 608 152 634T260 660Q322 660 372 628T423 535Q423 483 388 447T307 381T226 322T191 257Q191 217 242 217L238 175Q178 173 156 197T134 251Q134 298 168 331T248 392T328
451T363 526Q363 562 334 585T250 609Q213 609 186 598T133 564L109 461ZM137 0L146 84H217L208 0H137Z" />
<glyph unicode="@" glyph-name="uni0040" horiz-adv-x="894" d="M610 311L588 132Q588 129 587 123T586 110Q586 81 600 56T652 31Q705 31 737 74T784 181T799 302Q799 421 752 488T634 582T492 610Q376 610 283 554T135 402T81 186Q81 23 177 -67T413 -158Q539
-158 636 -94L653 -130Q600 -163 536 -182T404 -202Q297 -202 214 -153T83 -17T35 183Q35 311 95 418T258 589T490 654Q572 654 654 620T792 512T848 314Q848 246 827 171T760 43T639 -10Q586 -10 561 21T532 92Q510 51 474 21T379 -10Q306 -10 268 39T229 177Q229
233 248 297T312 407T435 453Q539 453 569 367Q577 408 588 444H640Q631 412 623 376T610 311ZM437 406Q378 406 345 370T299 282T286 185Q286 36 391 36Q450 36 488 81T539 173L554 291Q552 341 521 373T437 406Z" />
<glyph unicode="A" glyph-name="uni0041" horiz-adv-x="625" d="M-21 51H40L312 599H207L212 650H382L548 51H611L606 0H389L394 51H488L451 192H165L97 51H196L191 0H-25L-21 51ZM348 566L188 238H439L352 566H348Z" />
<glyph unicode="B" glyph-name="uni0042" horiz-adv-x="585" d="M359 650Q450 650 493 612T537 512Q537 449 501 406T415 352L414 348Q476 338 504 297T532 201Q532 118 472 59T300 0H14L19 51H101L158 599H76L82 650H359ZM325 361Q386 361 432 396T478 497Q478
599 351 599H213L189 361H325ZM298 51Q374 51 423 90T473 200Q473 252 444 282T352 313H184L156 51H298Z" />
<glyph unicode="C" glyph-name="uni0043" horiz-adv-x="633" d="M535 45Q494 16 440 3T335 -10Q196 -10 122 73T48 290Q48 449 144 554T391 660Q458 660 510 639T597 584L602 467L553 461L544 559Q514 581 478 594T391 608Q265 608 185 522T105 293Q105 172 166
107T347 42Q427 42 487 72L516 168L564 162L535 45Z" />
<glyph unicode="D" glyph-name="uni0044" horiz-adv-x="689" d="M362 650Q504 650 578 569T653 360Q653 207 556 104T296 0H13L19 50H101L158 600H76L81 650H362ZM299 50Q436 50 515 137T595 356Q595 464 534 532T356 600H212L155 50H299Z" />
<glyph unicode="E" glyph-name="uni0045" horiz-adv-x="574" d="M477 0H13L18 51H101L159 599H76L81 650H541V468L491 462L486 599H215L188 356H498L493 305H183L156 51H432L466 188L514 183L477 0Z" />
<glyph unicode="F" glyph-name="uni0046" horiz-adv-x="544" d="M533 466L480 460L476 599H214L185 328H486L481 277H180L156 51H272L267 0H13L18 51H101L159 599H76L81 650H532L533 466Z" />
<glyph unicode="G" glyph-name="uni0047" horiz-adv-x="680" d="M651 277H597L568 0H525L527 96Q495 51 438 21T308 -10Q188 -10 118 76T47 292Q47 397 92 480T217 612T396 660Q462 660 517 639T606 584L611 467L562 461L552 558Q529 575 492 591T395 608Q266
608 185 523T104 295Q104 177 162 110T321 42Q417 42 472 95T534 204L542 277H381L387 328H657L651 277Z" />
<glyph unicode="H" glyph-name="uni0048" horiz-adv-x="733" d="M19 51H101L158 599H76L82 650H302L296 599H213L188 356H562L587 599H505L511 650H731L725 599H642L585 51H668L663 0H443L448 51H530L557 307H183L156 51H239L234 0H14L19 51Z" />
<glyph unicode="I" glyph-name="uni0049" horiz-adv-x="303" d="M18 51H101L158 599H75L81 650H301L296 599H212L155 51H239L233 0H13L18 51Z" />
<glyph unicode="J" glyph-name="uni004A" horiz-adv-x="436" d="M179 650H437L432 599H359L313 161Q305 76 260 33T140 -10Q82 -10 49 15T0 82L44 114Q76 44 141 44Q196 44 224 76T258 161L304 599H174L179 650Z" />
<glyph unicode="K" glyph-name="uni004B" horiz-adv-x="616" d="M18 51H100L157 599H75L80 650H297L292 599H212L187 356H296L496 600H419L425 651H637L631 600H560L340 337L513 51H586L581 0H365L371 51H448L295 306H182L155 51H234L228 0H12L18 51Z" />
<glyph unicode="L" glyph-name="uni004C" horiz-adv-x="526" d="M464 0H13L18 51H101L159 599H76L81 650H330L325 599H214L156 51H418L454 206L504 202L464 0Z" />
<glyph unicode="M" glyph-name="uni004D" horiz-adv-x="854" d="M19 51H101L158 599H74L79 650H214L410 116H414L718 650H853L848 599H762L705 51H788L783 0H565L570 51H649L697 508H694L418 28H384L207 509H203L154 51H235L230 0H14L19 51Z" />
<glyph unicode="N" glyph-name="uni004E" horiz-adv-x="710" d="M25 51H101L158 599H74L79 650H204L521 117H524L574 599H479L484 650H716L711 599H628L566 0H528L208 539H205L153 51H259L254 0H20L25 51Z" />
<glyph unicode="O" glyph-name="uni004F" horiz-adv-x="717" d="M396 660Q527 660 604 572T681 359Q681 258 636 175T510 41T329 -10Q198 -10 122 78T46 291Q46 392 92 476T217 610T396 660ZM337 42Q423 42 487 85T586 200T622 355Q622 463 562 535T390 608Q264
608 185 516T105 296Q105 192 162 117T337 42Z" />
<glyph unicode="P" glyph-name="uni0050" horiz-adv-x="556" d="M19 51H101L158 599H76L82 650H337Q444 650 492 597T540 474Q540 368 477 309T308 249H177L156 51H269L263 0H14L19 51ZM307 299Q388 299 435 344T482 471Q482 530 443 564T329 599H213L182 299H307Z" />
<glyph unicode="Q" glyph-name="uni0051" horiz-adv-x="727" d="M396 660Q527 660 604 572T681 359Q681 193 566 84L648 -6L612 -41L527 52Q438 -10 329 -10Q198 -10 122 78T46 291Q46 392 92 476T217 610T396 660ZM398 194L435 229L531 122Q622 215 622 355Q622
463 562 535T390 608Q264 608 185 516T105 296Q105 192 162 117T337 42Q423 42 492 90L398 194Z" />
<glyph unicode="R" glyph-name="uni0052" horiz-adv-x="595" d="M19 51H101L158 599H76L82 650H343Q450 650 498 603T547 489Q547 414 508 361T385 290L481 51H563L557 0H440L331 279H180L156 51H246L241 0H14L19 51ZM315 327Q407 327 448 372T489 484Q489 599
332 599H213L185 327H315Z" />
<glyph unicode="S" glyph-name="uni0053" horiz-adv-x="519" d="M460 191Q460 96 399 43T225 -10Q165 -10 110 4T26 39L49 158L94 153L83 71Q111 55 150 48T225 41Q302 41 351 75T400 183Q400 260 352 280T247 315Q187 330 133 361T79 478Q79 572 146 616T292
660Q341 660 393 646T471 611L464 485L417 480V583Q387 599 355 604T298 609Q223 609 180 575T137 481Q137 421 176 401T273 366Q350 346 405 316T460 191Z" />
<glyph unicode="T" glyph-name="uni0054" horiz-adv-x="599" d="M592 458L541 454L537 599H362L304 51H419L414 0H131L136 51H249L307 599H129L95 454L45 458L83 650H593L592 458Z" />
<glyph unicode="U" glyph-name="uni0055" horiz-adv-x="698" d="M489 650H698L693 599H629L595 266Q588 197 562 134T479 30T325 -10Q185 -10 138 70T102 255L138 599H70L75 650H291L285 599H194L158 257Q136 42 331 42Q518 42 543 266L577 599H484L489 650Z" />
<glyph unicode="V" glyph-name="uni0056" horiz-adv-x="625" d="M249 599H152L293 82H297L543 599H444L449 650H666L660 599H600L308 0H259L92 599H29L34 650H254L249 599Z" />
<glyph unicode="W" glyph-name="uni0057" horiz-adv-x="898" d="M928 599H872L642 0H593L482 547H478L253 0H203L88 599H34L39 650H249L243 599H146L236 93H241L449 599H381L387 650H597L591 599H523L625 91H630L816 599H719L724 650H933L928 599Z" />
<glyph unicode="X" glyph-name="uni0058" horiz-adv-x="609" d="M573 0H362L367 51H455L304 296L110 51H189L184 0H-22L-16 51H47L279 338L116 599H51L56 650H262L257 599H179L315 378L491 599H422L428 650H633L628 599H554L340 338L518 51H579L573 0Z" />
<glyph unicode="Y" glyph-name="uni0059" horiz-adv-x="591" d="M624 599H559L321 248L301 51H415L409 0H129L134 51H246L266 248L95 599H30L35 650H257L251 599H156L300 301H304L502 599H409L414 650H628L624 599Z" />
<glyph unicode="Z" glyph-name="uni005A" horiz-adv-x="562" d="M473 0H6L8 37L457 596V599H151L107 458L61 466L107 650H533L538 615L88 54L87 51H427L471 194L519 185L473 0Z" />
<glyph unicode="[" glyph-name="uni005B" horiz-adv-x="275" d="M39 -204L139 741H299L294 698H182L92 -161H204L199 -204H39Z" />
<glyph unicode="\" glyph-name="uni005C" horiz-adv-x="521" d="M86 688H139L428 0H376L86 688Z" />
<glyph unicode="]" glyph-name="uni005D" horiz-adv-x="275" d="M234 741L134 -204H-26L-21 -161H91L181 698H69L74 741H234Z" />
<glyph unicode="^" glyph-name="uni005E" horiz-adv-x="440" d="M243 657H279L409 374H358L255 603L106 374H55L243 657Z" />
<glyph unicode="_" glyph-name="uni005F" horiz-adv-x="536" d="M20 -75H444L440 -118H16L20 -75Z" />
<glyph unicode="`" glyph-name="uni0060" horiz-adv-x="431" d="M390 523L214 631L243 678L406 549L390 523Z" />
<glyph unicode="a" glyph-name="uni0061" horiz-adv-x="500" d="M447 444Q438 410 430 377T418 311L385 46H454L451 15L432 0H335L338 90Q316 50 280 20T186 -10Q113 -10 75 39T36 177Q36 233 55 297T119 407T242 453Q347 453 376 368Q384 409 395 444H447ZM246
406Q185 406 152 370T106 282T93 186Q93 36 199 36Q258 36 296 82T346 174L361 285Q361 336 330 371T246 406Z" />
<glyph unicode="b" glyph-name="uni0062" horiz-adv-x="501" d="M50 672L68 688H184L143 356Q166 395 202 424T296 453Q371 453 412 403T454 264Q454 208 435 145T371 36T247 -10Q197 -10 159 12T105 75Q101 56 96 38T86 0H34Q42 28 50 61T62 127L124 642H46L50
672ZM244 36Q304 36 337 73T383 161T397 255Q397 406 285 406Q224 406 184 360T132 264L119 155Q120 106 155 71T244 36Z" />
<glyph unicode="c" glyph-name="uni0063" horiz-adv-x="440" d="M252 406Q192 406 157 373T107 289T92 187Q92 117 118 77T205 36Q304 36 342 156L385 145Q370 87 327 39T201 -10Q122 -10 79 41T35 183Q35 241 56 303T123 409T249 453Q331 453 388 405L394 306L347
300L338 375Q303 406 252 406Z" />
<glyph unicode="d" glyph-name="uni0064" horiz-adv-x="507" d="M307 672L326 688H472L392 46H473L470 15L451 0H342L346 90Q322 50 284 20T186 -10Q113 -10 74 40T35 175Q35 232 55 297T122 407T247 453Q347 453 379 376L412 642H304L307 672ZM251 406Q190 406
156 370T107 282T92 183Q92 36 200 36Q261 36 302 85T355 181L369 290Q367 340 334 373T251 406Z" />
<glyph unicode="e" glyph-name="uni0065" horiz-adv-x="435" d="M209 36Q303 36 339 130L382 119Q367 65 321 28T200 -10Q119 -10 77 40T35 181Q35 296 96 374T255 453Q311 453 352 424T393 345Q393 296 356 262T235 209Q202 202 166 195T92 183Q92 115 118 76T209
36ZM215 245Q295 264 315 289T335 340Q335 406 251 406Q173 406 138 349T94 225Q134 230 163 235T215 245Z" />
<glyph unicode="f" glyph-name="uni0066" horiz-adv-x="303" d="M287 698Q318 698 341 692T389 669L395 570L348 564L338 642Q324 649 308 651T279 653Q197 653 183 532L172 444H309L305 415L285 397H166L109 -67Q89 -223 -27 -223Q-72 -223 -105 -197T-136 -105L-92
-92Q-95 -148 -73 -162T-30 -177Q42 -177 56 -66L113 397H27L30 426L50 444H119L130 530Q150 698 287 698Z" />
<glyph unicode="g" glyph-name="uni0067" horiz-adv-x="510" d="M396 444H514L511 413L492 397H435L387 2Q374 -99 324 -161T179 -223Q111 -223 64 -189T9 -92L51 -73Q59 -128 98 -151T183 -174Q313 -174 334 5L344 87Q320 48 282 19T186 -10Q113 -10 74 39T35
174Q35 232 55 297T122 407T247 453Q350 453 381 372L396 444ZM249 406Q190 406 156 370T107 282T92 182Q92 36 197 36Q261 36 302 85T355 182L368 284Q368 334 337 370T249 406Z" />
<glyph unicode="h" glyph-name="uni0068" horiz-adv-x="501" d="M45 0L123 642H43L47 671L66 688H182L142 361Q166 403 203 428T292 453Q356 453 392 412T418 280L389 46H469L465 15L446 0H331L364 267Q373 343 347 374T272 406Q214 406 178 366T131 276L98 0H45Z" />
<glyph unicode="i" glyph-name="uni0069" horiz-adv-x="250" d="M129 568L137 647H198L190 568H129ZM37 426L56 444H173L124 46H204L200 15L181 0H66L114 397H33L37 426Z" />
<glyph unicode="j" glyph-name="uni006A" horiz-adv-x="242" d="M134 568L142 647H203L195 568H134ZM24 426L43 444H185L127 -27Q104 -215 -4 -223Q-40 -224 -78 -208L-75 -166Q-23 -188 18 -162T74 -27L126 397H20L24 426Z" />
<glyph unicode="k" glyph-name="uni006B" horiz-adv-x="440" d="M47 671L66 688H182L129 254H216Q265 293 295 340T329 444H387Q381 381 344 328T249 235L352 46H413L409 15L390 0H319L207 210H123L98 0H45L123 642H43L47 671Z" />
<glyph unicode="l" glyph-name="uni006C" horiz-adv-x="234" d="M53 671L71 688H189L110 46H189L185 15L167 0H52L130 642H49L53 671Z" />
<glyph unicode="m" glyph-name="uni006D" horiz-adv-x="783" d="M426 280L392 0H340L372 267Q381 344 357 375T285 406Q220 406 188 361T148 262L116 0H64L112 397H30L34 426L53 444H161L157 357Q180 400 215 426T305 453Q411 453 426 349Q448 396 484 424T577
453Q641 453 676 411T702 280L672 46H752L748 15L729 0H615L647 267Q656 343 632 374T558 406Q500 406 468 369T426 284V280Z" />
<glyph unicode="n" glyph-name="uni006E" d="M53 444H161L157 357Q182 400 219 426T310 453Q374 453 410 412T436 280L407 46H487L483 15L464 0H350L382 267Q391 343 366 374T290 406Q231 406 194 363T149 270L148 262L116 0H64L112 397H30L34 426L53 444Z" />
<glyph unicode="o" glyph-name="uni006F" horiz-adv-x="479" d="M36 188Q36 294 93 373T260 453Q354 453 393 394T432 252Q432 143 374 67T208 -10Q117 -10 77 46T36 188ZM93 190Q93 122 119 79T213 36Q297 36 335 100T374 251Q374 318 349 362T254 406Q174 406
134 344T93 190Z" />
<glyph unicode="p" glyph-name="uni0070" horiz-adv-x="517" d="M195 -197L175 -213H-28L-24 -184L-6 -167H43L112 397H31L35 426L54 444H162L157 350Q180 391 216 422T313 453Q387 453 428 403T470 264Q470 208 451 145T387 36T263 -10Q160 -10 124 68L95 -167H198L195
-197ZM260 36Q320 36 353 73T399 161T413 255Q413 329 383 367T301 406Q237 406 198 357T148 258L136 162Q134 110 169 73T260 36Z" />
<glyph unicode="q" glyph-name="uni0071" horiz-adv-x="500" d="M425 -197L406 -213H210L214 -184L233 -167H312L344 87Q320 47 282 19T186 -10Q113 -10 74 40T35 175Q35 232 55 297T122 407T247 453Q352 453 383 368Q391 409 402 444H455Q445 410 438 377T425
311L366 -167H429L425 -197ZM251 406Q190 406 156 370T107 282T92 183Q92 36 200 36Q258 36 300 82T355 175L368 283Q369 334 336 370T251 406Z" />
<glyph unicode="r" glyph-name="uni0072" horiz-adv-x="339" d="M222 16L203 0H1L5 29L23 46H78L121 397H41L45 426L63 444H169L166 350Q185 393 214 423T285 454Q314 454 341 437L330 382Q303 397 276 397Q233 397 203 356T160 264V263L132 46H226L222 16Z" />
<glyph unicode="s" glyph-name="uni0073" horiz-adv-x="412" d="M177 36Q294 36 294 122Q294 166 263 182T176 212Q132 223 96 244T59 323Q59 384 103 418T209 453Q256 453 295 440T357 412L356 310L312 304L308 379Q288 390 267 398T216 406Q115 406 115 329Q115
297 137 282T210 253Q256 241 303 219T350 128Q350 66 306 28T187 -10Q140 -10 94 3T25 34L47 128L91 124L80 59Q120 36 177 36Z" />
<glyph unicode="t" glyph-name="uni0074" horiz-adv-x="338" d="M29 426L49 444H110L126 569L145 588H181L163 444H319L315 415L295 397H158L126 134Q114 36 187 36Q211 36 230 51T267 122L307 108Q290 47 261 19T181 -10Q121 -10 93 28T73 130L105 397H25L29 426Z" />
<glyph unicode="u" glyph-name="uni0075" horiz-adv-x="517" d="M475 46L471 17L452 0H344L347 85Q323 42 287 17T198 -9Q134 -9 98 31T72 163L100 397H21L25 428L44 444H159L127 176Q117 101 140 69T219 37Q274 37 308 75T354 160L389 444H442L393 46H475Z" />
<glyph unicode="v" glyph-name="uni0076" horiz-adv-x="466" d="M220 413L201 397H129L225 64H231Q299 138 335 209T371 351Q371 374 368 397T354 444H417Q450 312 375 184Q321 93 223 0H190L73 397H15L18 426L37 444H224L220 413Z" />
<glyph unicode="w" glyph-name="uni0077" horiz-adv-x="708" d="M482 65H486Q609 210 609 354Q609 404 594 444H656Q686 302 610 168Q561 78 478 0H447L369 355H365L205 0H171L68 397H16L20 426L39 444H225L221 413L202 397H125L198 90H202L360 444H399L482 65Z" />
<glyph unicode="x" glyph-name="uni0078" horiz-adv-x="468" d="M440 16L421 0H247L250 29L269 46H318L220 202Q144 156 111 107T91 0H29Q13 71 71 129T198 231L89 397H23L27 426L45 444H222L218 413L199 397H149L238 256Q385 353 356 444H416Q437 388 384 331T259
228L377 46H443L440 16Z" />
<glyph unicode="y" glyph-name="uni0079" horiz-adv-x="465" d="M225 64H231Q369 213 369 351Q369 374 366 397T352 444H416Q449 312 374 184Q325 100 237 13L214 -167H295L292 -197L273 -213H79L83 -184L101 -167H161L186 14L74 397H15L18 426L37 444H224L220
413L201 397H130L225 64Z" />
<glyph unicode="z" glyph-name="uni007A" horiz-adv-x="447" d="M368 0H18L10 36L339 397H118L97 303L51 309L77 444H396L409 408L84 46H327L361 141L404 133L368 0Z" />
<glyph unicode="{" glyph-name="uni007B" horiz-adv-x="273" d="M106 267Q150 259 169 239T188 192Q188 157 159 105T102 -4T73 -106Q73 -160 129 -160H192L187 -203H124Q26 -203 26 -109Q26 -57 54 0T111 109T140 191Q140 228 106 238T50 249H32L36 284H54Q78
284 117 297T157 354Q157 398 130 473T103 616Q103 677 135 709T223 741H286L282 698H219Q149 698 149 620Q149 579 163 530T191 434T205 356Q205 326 183 301T106 267Z" />
<glyph unicode="|" glyph-name="uni007C" horiz-adv-x="228" d="M186 730L101 -80H52L137 730H186Z" />
<glyph unicode="}" glyph-name="uni007D" horiz-adv-x="273" d="M165 271Q121 279 102 299T83 346Q83 381 111 433T169 542T198 644Q198 698 142 698H79L84 741H147Q245 741 245 647Q245 595 217 538T160 429T131 347Q131 310 164 300T221 289H239L235 254H217Q193
254 154 241T114 184Q114 140 141 65T168 -78Q168 -139 136 -171T48 -203H-15L-11 -160H52Q122 -160 122 -82Q122 -41 108 8T80 104T66 182Q66 212 88 237T165 271Z" />
<glyph unicode="~" glyph-name="uni007E" horiz-adv-x="614" d="M412 206Q366 206 332 224T266 260T190 279Q165 279 139 267T83 214L51 236Q84 287 123 308T199 330Q243 330 276 312T343 276T419 257Q450 257 475 273T532 336L567 312Q527 254 491 230T412 206Z" />
<glyph unicode="&#xa0;" glyph-name="uni00A0" horiz-adv-x="231" />
<glyph unicode="&#xa1;" glyph-name="uni00A1" horiz-adv-x="213" d="M158 446L149 362H78L87 446H158ZM24 -204L84 265H126L87 -204H24Z" />
<glyph unicode="&#xa2;" glyph-name="uni00A2" horiz-adv-x="448" d="M170 -84L178 -8Q111 0 75 50T38 183Q38 238 56 297T115 399T226 451L234 529H274L266 453Q338 449 391 405L397 306L350 300L341 375Q307 404 261 406L223 36Q311 45 345 156L388 145Q374
90 333 43T218 -9L210 -84H170ZM95 187Q95 125 115 86T183 38L221 402Q150 387 123 321T95 187Z" />
<glyph unicode="&#xa3;" glyph-name="uni00A3" horiz-adv-x="503" d="M52 279H120L126 334Q137 444 191 486T301 529Q348 529 379 519T435 493L440 376L392 370L384 465Q353 484 311 484Q256 484 222 451T179 335L173 279H359L355 241H170L165 190Q161 156 144
113T83 45H288Q332 45 358 65T402 109L430 83Q418 64 383 32T294 0H14L19 43Q68 65 87 105T111 190L116 241H48L52 279Z" />
<glyph unicode="&#xa4;" glyph-name="uni00A4" horiz-adv-x="513" d="M108 257Q108 315 147 362L62 459L90 485L174 388Q219 422 271 422Q324 422 361 387L468 485L490 459L383 361Q405 326 405 284Q405 226 365 179L450 82L422 56L337 153Q293 120 241 120Q188
120 151 154L44 56L22 82L129 180Q108 213 108 257ZM155 262Q155 217 181 192T246 166Q291 166 324 198T357 282Q357 326 332 351T267 377Q224 377 190 346T155 262Z" />
<glyph unicode="&#xa5;" glyph-name="uni00A5" horiz-adv-x="576" d="M145 45H238L245 107H109L113 142H248L254 200L253 203H119L123 239H234L109 476H55L60 521H251L246 476H169L287 246H292L450 476H374L379 521H564L559 476H507L338 239H447L443 203H313L309
197L303 142H437L433 107H299L292 45H388L383 0H140L145 45Z" />
<glyph unicode="&#xa6;" glyph-name="uni00A6" horiz-adv-x="205" d="M175 730L143 426H94L126 730H175ZM122 224L90 -80H41L73 224H122Z" />
<glyph unicode="&#xa7;" glyph-name="uni00A7" horiz-adv-x="567" d="M469 144Q469 71 412 31T261 -10Q201 -10 145 6T52 51L74 154L119 149L107 70Q142 50 183 42T261 34Q320 34 367 56T414 135Q414 184 373 199T255 227Q207 234 159 245T78 279T46 343Q46 411
135 444Q105 472 105 517Q105 585 164 622T315 660Q357 660 405 651T493 620L486 494L438 489L439 588Q406 604 372 610T307 616Q245 616 203 593T161 524Q161 479 199 463T296 435Q350 425 404 414T494 379T531 310Q531 245 449 207Q469 184 469 144ZM477 299Q477
331 445 348T365 375T272 393Q244 398 217 404T168 421Q100 398 100 351Q100 316 145 301T279 270Q322 262 354 255T413 235Q477 260 477 299Z" />
<glyph unicode="&#xa8;" glyph-name="uni00A8" horiz-adv-x="383" d="M121 562L128 633H194L187 562H121ZM285 562L292 633H359L352 562H285Z" />
<glyph unicode="&#xa9;" glyph-name="uni00A9" horiz-adv-x="619" d="M601 285Q601 204 560 138T453 33T311 -7Q208 -7 141 63T73 236Q73 316 113 382T221 489T365 529Q470 529 535 458T601 285ZM566 283Q566 372 510 433T361 494Q257 494 183 419T108 239Q108
149 165 88T313 27Q415 27 490 102T566 283ZM437 113Q416 97 388 91T333 84Q256 84 216 129T176 242Q176 324 229 382T363 441Q392 441 421 432T471 401L474 338L442 335L438 387Q426 396 409 403T362 411Q292 411 253 363T213 243Q213 185 242 150T344 114Q358
114 374 116T408 127L423 179L454 176L437 113Z" />
<glyph unicode="&#xaa;" glyph-name="uni00AA" horiz-adv-x="387" d="M355 694Q348 672 342 649T334 604L313 442H358L356 417L342 405H272L274 464Q260 437 236 418T172 398Q123 398 98 431T72 520Q72 558 85 599T128 670T210 700Q280 700 299 645Q302 657 305
669T312 694H355ZM215 664Q158 664 138 617T118 527Q118 435 185 435Q222 435 246 461T278 517L288 597Q286 627 266 645T215 664Z" />
<glyph unicode="&#xab;" glyph-name="uni00AB" horiz-adv-x="436" d="M200 25H153L44 271L204 511H251L96 271L200 25ZM359 25H312L203 271L363 511H410L256 271L359 25Z" />
<glyph unicode="&#xac;" glyph-name="uni00AC" horiz-adv-x="600" d="M476 105L492 261H64L68 304H539L518 105H476Z" />
<glyph unicode="&#xae;" glyph-name="uni00AE" horiz-adv-x="599" d="M300 159Q196 159 123 231T50 409Q50 513 123 586T301 660Q406 660 478 587T551 409Q551 305 478 232T300 159ZM301 193Q392 193 453 256T515 409Q515 499 454 562T301 626Q208 626 147 563T85
409Q85 319 147 256T301 193ZM180 301H218V537H180V564H311Q366 564 390 541T414 483Q414 418 348 401L402 301H441V274H380L316 396H251V301H292V274H180V301ZM305 422Q378 422 378 482Q378 537 305 537H251V422H305Z" />
<glyph unicode="&#xaf;" glyph-name="uni00AF" horiz-adv-x="328" d="M106 618H339L335 572H101L106 618Z" />
<glyph unicode="&#xb0;" glyph-name="uni00B0" horiz-adv-x="399" d="M206 342Q140 342 103 382T65 484Q65 558 115 609T240 660Q307 660 343 619T380 517Q380 444 331 393T206 342ZM212 385Q263 385 298 420T333 513Q333 561 306 589T234 617Q183 617 147 582T111
488Q111 440 138 413T212 385Z" />
<glyph unicode="&#xb1;" glyph-name="uni00B1" horiz-adv-x="453" d="M57 262L62 306H213L229 458H273L256 306H402L397 262H252L236 111H193L208 262H57ZM30 0L34 44H374L370 0H30Z" />
<glyph unicode="&#xb2;" glyph-name="uni00B2" horiz-adv-x="335" d="M121 670L86 675L103 745Q146 785 212 785Q267 785 294 759T322 695Q322 645 281 598T191 512T114 452H281L295 506L333 502L314 415H55L54 448Q101 486 151 526T235 608T270 693Q270 716 256
732T202 748Q168 748 142 730L121 670Z" />
<glyph unicode="&#xb3;" glyph-name="uni00B3" horiz-adv-x="334" d="M129 677L94 682L109 744Q132 765 161 774T219 784Q262 784 292 763T323 702Q323 674 304 648T238 609V607Q284 600 302 577T321 522Q321 467 279 438T182 408Q130 408 97 433T63 505L98 513Q100
488 120 467T183 445Q226 445 248 468T271 524Q271 552 250 569T169 588L172 620Q228 623 251 645T274 695Q274 747 210 747Q178 747 147 729L129 677Z" />
<glyph unicode="&#xb4;" glyph-name="uni00B4" horiz-adv-x="431" d="M414 631L238 523L222 549L385 678L414 631Z" />
<glyph unicode="&#xb5;" glyph-name="uni00B5" horiz-adv-x="553" d="M509 0H373L382 85Q356 42 313 16T218 -10Q160 -10 124 20L100 -213H46L110 397H30L35 444H170L141 172Q134 98 162 67T238 36Q296 36 338 77T390 164L414 397H319L324 444H473L432 46H514L509 0Z" />
<glyph unicode="&#xb6;" glyph-name="uni00B6" horiz-adv-x="596" d="M291 650H595L590 600H512L449 0H397L460 600H391L328 0H276L309 310H249Q164 310 108 345T51 464Q51 540 110 595T291 650Z" />
<glyph unicode="&#xb7;" glyph-name="uni00B7" horiz-adv-x="213" d="M64 258L72 342H150L142 258H64Z" />
<glyph unicode="&#xb8;" glyph-name="uni00B8" horiz-adv-x="251" d="M149 6L143 -48H151Q230 -48 230 -120Q230 -165 197 -187T120 -209Q65 -209 35 -179L54 -146Q81 -169 123 -169Q148 -169 165 -158T182 -119Q182 -93 166 -86T125 -79H98L107 6H149Z" />
<glyph unicode="&#xb9;" glyph-name="uni00B9" horiz-adv-x="249" d="M55 452H129L159 742H85L88 779H209L175 452H247L243 415H50L55 452Z" />
<glyph unicode="&#xba;" glyph-name="uni00BA" horiz-adv-x="357" d="M71 527Q71 596 109 648T222 700Q286 700 313 662T341 569Q341 497 301 448T188 398Q127 398 99 434T71 527ZM117 530Q117 488 133 462T192 435Q246 435 270 474T294 567Q294 610 278 637T218
664Q167 664 142 626T117 530Z" />
<glyph unicode="&#xbb;" glyph-name="uni00BB" horiz-adv-x="437" d="M231 25H185L340 271L236 511H282L393 271L231 25ZM72 25H25L180 271L76 511H123L233 271L72 25Z" />
<glyph unicode="&#xbc;" glyph-name="uni00BC" horiz-adv-x="682" d="M586 650L368 325L154 0H111L338 337L544 650H586ZM48 323H122L152 613H78L81 650H202L168 323H240L236 286H43L48 323ZM515 0L525 95H344L343 131L502 364H598L573 130H636L628 95H570L560
0H515ZM520 327L386 130H529L550 327H520Z" />
<glyph unicode="&#xbd;" glyph-name="uni00BD" horiz-adv-x="721" d="M580 650L362 325L148 0H105L332 337L538 650H580ZM46 323H120L150 613H76L79 650H200L166 323H238L234 286H41L46 323ZM466 255L431 260L448 330Q491 370 557 370Q612 370 639 344T667 280Q667
230 627 183T536 97T459 37H626L640 91L678 87L659 0H400L399 33Q446 70 496 110T580 193T615 278Q615 301 601 317T547 333Q513 333 487 315L466 255Z" />
<glyph unicode="&#xbe;" glyph-name="uni00BE" horiz-adv-x="707" d="M118 553L83 558L98 620Q120 641 150 650T208 660Q252 660 282 639T312 578Q312 550 293 524T227 485V483Q274 476 292 453T310 398Q310 343 268 314T171 284Q119 284 87 309T52 381L87 389Q88
364 109 343T172 321Q215 321 237 344T260 400Q260 428 238 445T158 464L161 496Q217 499 240 521T263 571Q263 623 199 623Q168 623 136 605L118 553ZM613 650L395 325L181 0H138L365 337L571 650H613ZM539 0L549 95H368L367 131L526 364H622L597 130H660L652
95H594L584 0H539ZM544 327L410 130H553L574 327H544Z" />
<glyph unicode="&#xbf;" glyph-name="uni00BF" horiz-adv-x="422" d="M278 446L269 362H198L207 446H278ZM306 -15L351 -18L334 -130Q309 -162 263 -188T155 -214Q93 -214 43 -182T-8 -89Q-8 -37 27 -1T108 65T189 124T224 189Q224 229 173 229L177 271Q237 273
259 249T281 195Q281 148 247 115T167 54T87 -5T52 -80Q52 -116 81 -139T165 -163Q202 -163 229 -152T282 -118L306 -15Z" />
<glyph unicode="&#xc0;" glyph-name="uni00C0" horiz-adv-x="626" d="M405 707L208 753L222 808L413 739L405 707ZM-21 51H40L312 599H207L212 650H382L548 51H611L606 0H389L394 51H488L451 192H165L97 51H196L191 0H-25L-21 51ZM348 566L188 238H439L352 566H348Z" />
<glyph unicode="&#xc1;" glyph-name="uni00C1" horiz-adv-x="626" d="M525 753L328 707L320 739L511 808L525 753ZM-21 51H40L312 599H207L212 650H382L548 51H611L606 0H389L394 51H488L451 192H165L97 51H196L191 0H-25L-21 51ZM348 566L188 238H439L352 566H348Z" />
<glyph unicode="&#xc2;" glyph-name="uni00C2" horiz-adv-x="626" d="M383 820L494 736L476 706L369 769L251 705L235 732L368 820H383ZM-21 51H40L312 599H207L212 650H382L548 51H611L606 0H389L394 51H488L451 192H165L97 51H196L191 0H-25L-21 51ZM348 566L188
238H439L352 566H348Z" />
<glyph unicode="&#xc3;" glyph-name="uni00C3" horiz-adv-x="626" d="M243 707L216 719Q224 744 246 768T303 793Q336 793 358 775T418 757Q431 757 444 764T468 800L498 792Q472 712 415 712Q378 712 353 730T299 748Q286 748 270 740T243 707ZM-21 51H40L312
599H207L212 650H382L548 51H611L606 0H389L394 51H488L451 192H165L97 51H196L191 0H-25L-21 51ZM348 566L188 238H439L352 566H348Z" />
<glyph unicode="&#xc4;" glyph-name="uni00C4" horiz-adv-x="626" d="M412 722L419 793H486L479 722H412ZM248 722L255 793H321L314 722H248ZM-21 51H40L312 599H207L212 650H382L548 51H611L606 0H389L394 51H488L451 192H165L97 51H196L191 0H-25L-21 51ZM348
566L188 238H439L352 566H348Z" />
<glyph unicode="&#xc5;" glyph-name="uni00C5" horiz-adv-x="626" d="M359 690Q273 690 273 772Q273 817 302 845T380 874Q466 874 466 793Q466 750 438 720T359 690ZM363 725Q394 725 409 744T425 790Q425 840 376 840Q346 840 330 821T313 774Q313 725 363 725ZM-21
51H40L312 599H207L212 650H382L548 51H611L606 0H389L394 51H488L451 192H165L97 51H196L191 0H-25L-21 51ZM348 566L188 238H439L352 566H348Z" />
<glyph unicode="&#xc6;" glyph-name="uni00C6" horiz-adv-x="901" d="M805 0H337L342 51H424L439 192H173L90 51H187L182 0H-36L-31 51H34L357 599H258L263 650H864L863 469L814 462L808 599H539L513 356H820L815 305H508L481 51H760L795 188L843 182L805 0ZM444
238L482 599H412L200 238H444Z" />
<glyph unicode="&#xc7;" glyph-name="uni00C7" horiz-adv-x="631" d="M534 45Q493 16 439 3T334 -10H329L325 -48H333Q412 -48 412 -120Q412 -165 379 -187T302 -209Q247 -209 217 -179L236 -146Q263 -169 305 -169Q330 -169 347 -158T364 -119Q364 -93 348 -86T307
-79H280L287 -7Q170 6 109 86T47 290Q47 449 142 554T390 660Q458 660 510 639T596 584L601 467L552 461L543 559Q513 581 477 594T390 608Q264 608 184 522T104 293Q104 172 166 107T346 42Q426 42 486 72L515 168L563 162L534 45Z" />
<glyph unicode="&#xc8;" glyph-name="uni00C8" horiz-adv-x="574" d="M431 707L234 753L248 808L439 739L431 707ZM477 0H13L18 51H101L159 599H76L81 650H541V468L491 462L486 599H215L188 356H498L493 305H183L156 51H432L466 188L514 183L477 0Z" />
<glyph unicode="&#xc9;" glyph-name="uni00C9" horiz-adv-x="574" d="M497 753L300 707L292 739L483 808L497 753ZM477 0H13L18 51H101L159 599H76L81 650H541V468L491 462L486 599H215L188 356H498L493 305H183L156 51H432L466 188L514 183L477 0Z" />
<glyph unicode="&#xca;" glyph-name="uni00CA" horiz-adv-x="574" d="M385 820L496 736L478 706L371 769L253 705L237 732L370 820H385ZM477 0H13L18 51H101L159 599H76L81 650H541V468L491 462L486 599H215L188 356H498L493 305H183L156 51H432L466 188L514 183L477 0Z" />
<glyph unicode="&#xcb;" glyph-name="uni00CB" horiz-adv-x="574" d="M253 722L260 793H326L319 722H253ZM417 722L424 793H491L484 722H417ZM477 0H13L18 51H101L159 599H76L81 650H541V468L491 462L486 599H215L188 356H498L493 305H183L156 51H432L466 188L514
183L477 0Z" />
<glyph unicode="&#xcc;" glyph-name="uni00CC" horiz-adv-x="303" d="M250 707L53 753L67 808L258 739L250 707ZM18 51H101L158 599H75L81 650H301L296 599H212L155 51H239L233 0H13L18 51Z" />
<glyph unicode="&#xcd;" glyph-name="uni00CD" horiz-adv-x="303" d="M339 753L142 707L134 739L325 808L339 753ZM18 51H101L158 599H75L81 650H301L296 599H212L155 51H239L233 0H13L18 51Z" />
<glyph unicode="&#xce;" glyph-name="uni00CE" horiz-adv-x="303" d="M221 820L332 736L314 706L207 769L89 705L73 732L206 820H221ZM18 51H101L158 599H75L81 650H301L296 599H212L155 51H239L233 0H13L18 51Z" />
<glyph unicode="&#xcf;" glyph-name="uni00CF" horiz-adv-x="303" d="M248 722L255 793H322L315 722H248ZM84 722L91 793H157L150 722H84ZM18 51H101L158 599H75L81 650H301L296 599H212L155 51H239L233 0H13L18 51Z" />
<glyph unicode="&#xd0;" glyph-name="uni00D0" horiz-adv-x="690" d="M51 362H135L160 600H77L82 650H363Q505 650 579 569T654 360Q654 207 557 104T297 0H14L20 50H102L130 316H46L51 362ZM300 50Q436 50 516 137T596 356Q596 464 535 532T357 600H214L189 362H322L317
316H184L156 50H300Z" />
<glyph unicode="&#xd1;" glyph-name="uni00D1" horiz-adv-x="710" d="M282 707L255 719Q263 744 285 768T342 793Q375 793 397 775T457 757Q470 757 483 764T507 800L537 792Q511 712 454 712Q417 712 392 730T338 748Q325 748 309 740T282 707ZM25 51H101L158
599H74L79 650H204L521 117H524L574 599H479L484 650H716L711 599H628L566 0H528L208 539H205L153 51H259L254 0H20L25 51Z" />
<glyph unicode="&#xd2;" glyph-name="uni00D2" horiz-adv-x="716" d="M436 707L239 753L253 808L444 739L436 707ZM396 660Q527 660 604 572T681 359Q681 258 636 175T510 41T329 -10Q198 -10 122 78T46 291Q46 392 92 476T217 610T396 660ZM337 42Q423 42 487
85T586 200T622 355Q622 463 562 535T390 608Q264 608 185 516T105 296Q105 192 162 117T337 42Z" />
<glyph unicode="&#xd3;" glyph-name="uni00D3" horiz-adv-x="716" d="M551 753L354 707L346 739L537 808L551 753ZM396 660Q527 660 604 572T681 359Q681 258 636 175T510 41T329 -10Q198 -10 122 78T46 291Q46 392 92 476T217 610T396 660ZM337 42Q423 42 487
85T586 200T622 355Q622 463 562 535T390 608Q264 608 185 516T105 296Q105 192 162 117T337 42Z" />
<glyph unicode="&#xd4;" glyph-name="uni00D4" horiz-adv-x="716" d="M428 820L539 736L521 706L414 769L296 705L280 732L413 820H428ZM396 660Q527 660 604 572T681 359Q681 258 636 175T510 41T329 -10Q198 -10 122 78T46 291Q46 392 92 476T217 610T396 660ZM337
42Q423 42 487 85T586 200T622 355Q622 463 562 535T390 608Q264 608 185 516T105 296Q105 192 162 117T337 42Z" />
<glyph unicode="&#xd5;" glyph-name="uni00D5" horiz-adv-x="716" d="M295 707L268 719Q276 744 298 768T355 793Q388 793 410 775T470 757Q483 757 496 764T520 800L550 792Q524 712 467 712Q430 712 405 730T351 748Q338 748 322 740T295 707ZM396 660Q527 660
604 572T681 359Q681 258 636 175T510 41T329 -10Q198 -10 122 78T46 291Q46 392 92 476T217 610T396 660ZM337 42Q423 42 487 85T586 200T622 355Q622 463 562 535T390 608Q264 608 185 516T105 296Q105 192 162 117T337 42Z" />
<glyph unicode="&#xd6;" glyph-name="uni00D6" horiz-adv-x="716" d="M295 722L302 793H368L361 722H295ZM459 722L466 793H533L526 722H459ZM396 660Q527 660 604 572T681 359Q681 258 636 175T510 41T329 -10Q198 -10 122 78T46 291Q46 392 92 476T217 610T396
660ZM337 42Q423 42 487 85T586 200T622 355Q622 463 562 535T390 608Q264 608 185 516T105 296Q105 192 162 117T337 42Z" />
<glyph unicode="&#xd7;" glyph-name="uni00D7" horiz-adv-x="385" d="M71 134L45 165L163 274L69 382L102 413L196 305L311 411L337 380L223 274L316 168L283 136L189 243L71 134Z" />
<glyph unicode="&#xd8;" glyph-name="uni00D8" horiz-adv-x="713" d="M395 660Q500 660 575 598L621 650H680L607 568Q680 484 680 359Q680 258 635 175T510 41T328 -10Q220 -10 146 53L99 0H45L117 82Q45 165 45 291Q45 392 91 476T217 610T395 660ZM104 296Q104
192 155 125L539 557Q478 608 389 608Q263 608 184 516T104 296ZM336 42Q422 42 486 85T585 200T621 355Q621 458 569 525L183 94Q243 42 336 42Z" />
<glyph unicode="&#xd9;" glyph-name="uni00D9" horiz-adv-x="698" d="M452 707L255 753L269 808L460 739L452 707ZM489 650H698L693 599H629L595 266Q588 197 562 134T479 30T325 -10Q185 -10 138 70T102 255L138 599H70L75 650H291L285 599H194L158 257Q136 42
331 42Q518 42 543 266L577 599H484L489 650Z" />
<glyph unicode="&#xda;" glyph-name="uni00DA" horiz-adv-x="698" d="M545 753L348 707L340 739L531 808L545 753ZM489 650H698L693 599H629L595 266Q588 197 562 134T479 30T325 -10Q185 -10 138 70T102 255L138 599H70L75 650H291L285 599H194L158 257Q136 42
331 42Q518 42 543 266L577 599H484L489 650Z" />
<glyph unicode="&#xdb;" glyph-name="uni00DB" horiz-adv-x="698" d="M415 820L526 736L508 706L401 769L283 705L267 732L400 820H415ZM489 650H698L693 599H629L595 266Q588 197 562 134T479 30T325 -10Q185 -10 138 70T102 255L138 599H70L75 650H291L285 599H194L158
257Q136 42 331 42Q518 42 543 266L577 599H484L489 650Z" />
<glyph unicode="&#xdc;" glyph-name="uni00DC" horiz-adv-x="698" d="M449 722L456 793H523L516 722H449ZM285 722L292 793H358L351 722H285ZM489 650H698L693 599H629L595 266Q588 197 562 134T479 30T325 -10Q185 -10 138 70T102 255L138 599H70L75 650H291L285
599H194L158 257Q136 42 331 42Q518 42 543 266L577 599H484L489 650Z" />
<glyph unicode="&#xdd;" glyph-name="uni00DD" horiz-adv-x="590" d="M471 753L274 707L266 739L457 808L471 753ZM624 599H559L321 248L301 51H415L409 0H129L134 51H246L266 248L95 599H30L35 650H257L251 599H156L300 301H304L502 599H409L414 650H628L624 599Z" />
<glyph unicode="&#xde;" glyph-name="uni00DE" horiz-adv-x="552" d="M18 51H101L158 599H75L81 650H301L296 599H213L205 528H334Q442 528 486 479T531 357Q531 256 467 200T299 143H165L155 51H239L233 0H13L18 51ZM298 185Q379 185 425 230T472 354Q472 485
327 485H201L169 185H298Z" />
<glyph unicode="&#xdf;" glyph-name="uni00DF" horiz-adv-x="585" d="M27 397L30 426L50 444H119L129 520Q140 606 204 652T354 698Q426 698 481 665T536 564Q536 510 502 482T423 435T344 394T309 327Q309 292 333 278T397 254Q444 243 494 221T544 128Q544 66
500 28T381 -10Q334 -10 288 3T219 34L241 128L285 124L274 59Q314 36 376 36Q488 36 488 124Q488 167 460 181T381 209Q334 221 294 241T253 320Q253 374 287 403T367 453T447 496T482 561Q482 605 443 628T348 652Q278 652 233 615T181 517L109 -67Q99 -143 68
-183T-26 -223Q-72 -223 -105 -197T-136 -105L-92 -92Q-95 -145 -73 -161T-27 -177Q42 -177 56 -66L113 397H27Z" />
<glyph unicode="&#xe0;" glyph-name="uni00E0" horiz-adv-x="500" d="M306 523L130 631L159 678L322 549L306 523ZM447 444Q438 410 430 377T418 311L385 46H454L451 15L432 0H335L338 90Q316 50 280 20T186 -10Q113 -10 75 39T36 177Q36 233 55 297T119 407T242
453Q347 453 376 368Q384 409 395 444H447ZM246 406Q185 406 152 370T106 282T93 186Q93 36 199 36Q258 36 296 82T346 174L361 285Q361 336 330 371T246 406Z" />
<glyph unicode="&#xe1;" glyph-name="uni00E1" horiz-adv-x="500" d="M432 631L256 523L240 549L403 678L432 631ZM447 444Q438 410 430 377T418 311L385 46H454L451 15L432 0H335L338 90Q316 50 280 20T186 -10Q113 -10 75 39T36 177Q36 233 55 297T119 407T242
453Q347 453 376 368Q384 409 395 444H447ZM246 406Q185 406 152 370T106 282T93 186Q93 36 199 36Q258 36 296 82T346 174L361 285Q361 336 330 371T246 406Z" />
<glyph unicode="&#xe2;" glyph-name="uni00E2" horiz-adv-x="500" d="M303 667L405 549L379 522L288 612L181 522L160 549L287 667H303ZM447 444Q438 410 430 377T418 311L385 46H454L451 15L432 0H335L338 90Q316 50 280 20T186 -10Q113 -10 75 39T36 177Q36
233 55 297T119 407T242 453Q347 453 376 368Q384 409 395 444H447ZM246 406Q185 406 152 370T106 282T93 186Q93 36 199 36Q258 36 296 82T346 174L361 285Q361 336 330 371T246 406Z" />
<glyph unicode="&#xe3;" glyph-name="uni00E3" horiz-adv-x="500" d="M180 558L152 569Q160 594 183 621T240 648Q272 648 294 630T354 611Q368 611 380 618T403 654L434 646Q406 563 351 563Q313 563 288 582T236 601Q222 601 206 592T180 558ZM447 444Q438 410
430 377T418 311L385 46H454L451 15L432 0H335L338 90Q316 50 280 20T186 -10Q113 -10 75 39T36 177Q36 233 55 297T119 407T242 453Q347 453 376 368Q384 409 395 444H447ZM246 406Q185 406 152 370T106 282T93 186Q93 36 199 36Q258 36 296 82T346 174L361 285Q361
336 330 371T246 406Z" />
<glyph unicode="&#xe4;" glyph-name="uni00E4" horiz-adv-x="500" d="M339 562L346 633H413L406 562H339ZM175 562L182 633H248L241 562H175ZM447 444Q438 410 430 377T418 311L385 46H454L451 15L432 0H335L338 90Q316 50 280 20T186 -10Q113 -10 75 39T36 177Q36
233 55 297T119 407T242 453Q347 453 376 368Q384 409 395 444H447ZM246 406Q185 406 152 370T106 282T93 186Q93 36 199 36Q258 36 296 82T346 174L361 285Q361 336 330 371T246 406Z" />
<glyph unicode="&#xe5;" glyph-name="uni00E5" horiz-adv-x="500" d="M284 514Q242 514 221 537T199 595Q199 641 228 669T306 698Q346 698 369 676T392 617Q392 576 364 545T284 514ZM289 549Q319 549 335 567T352 614Q352 634 341 648T302 663Q240 663 240 598Q240
549 289 549ZM447 444Q438 410 430 377T418 311L385 46H454L451 15L432 0H335L338 90Q316 50 280 20T186 -10Q113 -10 75 39T36 177Q36 233 55 297T119 407T242 453Q347 453 376 368Q384 409 395 444H447ZM246 406Q185 406 152 370T106 282T93 186Q93 36 199 36Q258
36 296 82T346 174L361 285Q361 336 330 371T246 406Z" />
<glyph unicode="&#xe6;" glyph-name="uni00E6" horiz-adv-x="703" d="M226 407Q203 407 182 401T138 384L113 304L69 310L94 409Q124 432 163 442T243 453Q341 453 365 375Q425 453 523 453Q579 453 620 425T661 342Q661 296 625 262T504 209Q471 202 435 196T360
185Q360 116 386 76T476 36Q571 36 607 130L650 119Q635 65 589 28T468 -10Q351 -10 317 91Q294 53 252 22T152 -10Q108 -10 67 15T26 106Q26 191 93 219T235 247Q252 247 272 246T309 244L314 294Q319 346 301 376T226 407ZM521 406Q442 406 406 349T362 225Q404
230 437 236T483 245Q565 262 585 289T605 339Q605 376 581 391T521 406ZM163 35Q217 35 254 70T305 151Q304 158 304 166T304 181Q304 188 304 195T305 209Q286 211 265 212T228 213Q170 213 127 193T84 113Q84 67 108 51T163 35Z" />
<glyph unicode="&#xe7;" glyph-name="uni00E7" horiz-adv-x="440" d="M252 406Q192 406 157 373T107 289T92 187Q92 117 118 77T205 36Q304 36 342 156L385 145Q370 88 328 41T208 -10L204 -48H212Q291 -48 291 -120Q291 -165 258 -187T181 -209Q126 -209 96 -179L115
-146Q142 -169 184 -169Q209 -169 226 -158T243 -119Q243 -93 227 -86T186 -79H159L166 -7Q103 4 69 54T35 183Q35 241 56 303T123 409T249 453Q331 453 388 405L394 306L347 300L338 375Q303 406 252 406Z" />
<glyph unicode="&#xe8;" glyph-name="uni00E8" horiz-adv-x="435" d="M298 523L122 631L151 678L314 549L298 523ZM209 36Q303 36 339 130L382 119Q367 65 321 28T200 -10Q119 -10 77 40T35 181Q35 296 96 374T255 453Q311 453 352 424T393 345Q393 296 356 262T235
209Q202 202 166 195T92 183Q92 115 118 76T209 36ZM215 245Q295 264 315 289T335 340Q335 406 251 406Q173 406 138 349T94 225Q134 230 163 235T215 245Z" />
<glyph unicode="&#xe9;" glyph-name="uni00E9" horiz-adv-x="435" d="M401 631L225 523L209 549L372 678L401 631ZM209 36Q303 36 339 130L382 119Q367 65 321 28T200 -10Q119 -10 77 40T35 181Q35 296 96 374T255 453Q311 453 352 424T393 345Q393 296 356 262T235
209Q202 202 166 195T92 183Q92 115 118 76T209 36ZM215 245Q295 264 315 289T335 340Q335 406 251 406Q173 406 138 349T94 225Q134 230 163 235T215 245Z" />
<glyph unicode="&#xea;" glyph-name="uni00EA" horiz-adv-x="435" d="M289 667L391 549L365 522L274 612L167 522L146 549L273 667H289ZM209 36Q303 36 339 130L382 119Q367 65 321 28T200 -10Q119 -10 77 40T35 181Q35 296 96 374T255 453Q311 453 352 424T393
345Q393 296 356 262T235 209Q202 202 166 195T92 183Q92 115 118 76T209 36ZM215 245Q295 264 315 289T335 340Q335 406 251 406Q173 406 138 349T94 225Q134 230 163 235T215 245Z" />
<glyph unicode="&#xeb;" glyph-name="uni00EB" horiz-adv-x="435" d="M312 562L319 633H386L379 562H312ZM148 562L155 633H221L214 562H148ZM209 36Q303 36 339 130L382 119Q367 65 321 28T200 -10Q119 -10 77 40T35 181Q35 296 96 374T255 453Q311 453 352 424T393
345Q393 296 356 262T235 209Q202 202 166 195T92 183Q92 115 118 76T209 36ZM215 245Q295 264 315 289T335 340Q335 406 251 406Q173 406 138 349T94 225Q134 230 163 235T215 245Z" />
<glyph unicode="&#xec;" glyph-name="uni00EC" horiz-adv-x="251" d="M195 523L19 631L48 678L211 549L195 523ZM37 426L56 444H173L124 46H204L200 15L181 0H66L114 397H33L37 426Z" />
<glyph unicode="&#xed;" glyph-name="uni00ED" horiz-adv-x="250" d="M289 631L113 523L97 549L260 678L289 631ZM37 426L56 444H173L124 46H204L200 15L181 0H66L114 397H33L37 426Z" />
<glyph unicode="&#xee;" glyph-name="uni00EE" horiz-adv-x="251" d="M171 667L273 549L247 522L156 612L49 522L28 549L155 667H171ZM37 426L56 444H173L124 46H204L200 15L181 0H66L114 397H33L37 426Z" />
<glyph unicode="&#xef;" glyph-name="uni00EF" horiz-adv-x="250" d="M206 562L213 633H280L273 562H206ZM42 562L49 633H115L108 562H42ZM37 426L56 444H173L124 46H204L200 15L181 0H66L114 397H33L37 426Z" />
<glyph unicode="&#xf0;" glyph-name="uni00F0" horiz-adv-x="490" d="M168 530L236 602Q218 617 198 630T156 658L183 698Q232 668 270 637L326 697L355 673L298 612Q361 553 397 476T434 301Q434 230 414 158T345 38T212 -10Q123 -10 80 47T36 193Q36 300 94
376T249 453Q295 453 323 436T369 393Q348 498 265 577L197 506L168 530ZM249 406Q171 406 133 344T94 197Q94 130 121 83T216 36Q280 36 314 75T361 170T377 274Q376 314 348 360T249 406Z" />
<glyph unicode="&#xf1;" glyph-name="uni00F1" d="M175 558L147 569Q154 594 177 621T235 648Q267 648 289 630T349 611Q362 611 375 618T398 654L429 646Q401 563 346 563Q308 563 283 582T231 601Q218 601 202 592T175 558ZM53 444H161L157 357Q182 400 219
426T310 453Q374 453 410 412T436 280L407 46H487L483 15L464 0H350L382 267Q391 343 366 374T290 406Q231 406 194 363T149 270L148 262L116 0H64L112 397H30L34 426L53 444Z" />
<glyph unicode="&#xf2;" glyph-name="uni00F2" horiz-adv-x="480" d="M311 523L135 631L164 678L327 549L311 523ZM36 188Q36 294 93 373T260 453Q354 453 393 394T432 252Q432 143 374 67T208 -10Q117 -10 77 46T36 188ZM93 190Q93 122 119 79T213 36Q297 36
335 100T374 251Q374 318 349 362T254 406Q174 406 134 344T93 190Z" />
<glyph unicode="&#xf3;" glyph-name="uni00F3" horiz-adv-x="480" d="M415 631L239 523L223 549L386 678L415 631ZM36 188Q36 294 93 373T260 453Q354 453 393 394T432 252Q432 143 374 67T208 -10Q117 -10 77 46T36 188ZM93 190Q93 122 119 79T213 36Q297 36
335 100T374 251Q374 318 349 362T254 406Q174 406 134 344T93 190Z" />
<glyph unicode="&#xf4;" glyph-name="uni00F4" horiz-adv-x="480" d="M297 667L399 549L373 522L282 612L175 522L154 549L281 667H297ZM36 188Q36 294 93 373T260 453Q354 453 393 394T432 252Q432 143 374 67T208 -10Q117 -10 77 46T36 188ZM93 190Q93 122 119
79T213 36Q297 36 335 100T374 251Q374 318 349 362T254 406Q174 406 134 344T93 190Z" />
<glyph unicode="&#xf5;" glyph-name="uni00F5" horiz-adv-x="480" d="M170 558L142 569Q150 594 173 621T230 648Q262 648 284 630T344 611Q358 611 370 618T393 654L424 646Q396 563 341 563Q303 563 278 582T226 601Q212 601 196 592T170 558ZM36 188Q36 294
93 373T260 453Q354 453 393 394T432 252Q432 143 374 67T208 -10Q117 -10 77 46T36 188ZM93 190Q93 122 119 79T213 36Q297 36 335 100T374 251Q374 318 349 362T254 406Q174 406 134 344T93 190Z" />
<glyph unicode="&#xf6;" glyph-name="uni00F6" horiz-adv-x="480" d="M166 562L173 633H239L232 562H166ZM330 562L337 633H404L397 562H330ZM36 188Q36 294 93 373T260 453Q354 453 393 394T432 252Q432 143 374 67T208 -10Q117 -10 77 46T36 188ZM93 190Q93
122 119 79T213 36Q297 36 335 100T374 251Q374 318 349 362T254 406Q174 406 134 344T93 190Z" />
<glyph unicode="&#xf7;" glyph-name="uni00F7" horiz-adv-x="448" d="M195 379L203 463H281L273 379H195ZM52 259L57 303H397L392 259H52ZM166 105L174 189H252L244 105H166Z" />
<glyph unicode="&#xf8;" glyph-name="uni00F8" horiz-adv-x="477" d="M35 188Q35 294 92 373T259 453Q321 453 362 423L379 444H431L392 394Q431 341 431 252Q431 143 373 67T207 -10Q143 -10 101 21L85 0H33L72 50Q35 102 35 188ZM92 190Q92 134 108 96L330 381Q302
406 253 406Q174 406 133 344T92 190ZM212 36Q296 36 334 100T373 251Q373 311 355 347L133 62Q161 36 212 36Z" />
<glyph unicode="&#xf9;" glyph-name="uni00F9" horiz-adv-x="517" d="M311 523L135 631L164 678L327 549L311 523ZM475 46L471 17L452 0H344L347 85Q323 42 287 17T198 -9Q134 -9 98 31T72 163L100 397H21L25 428L44 444H159L127 176Q117 101 140 69T219 37Q274
37 308 75T354 160L389 444H442L393 46H475Z" />
<glyph unicode="&#xfa;" glyph-name="uni00FA" horiz-adv-x="517" d="M431 631L255 523L239 549L402 678L431 631ZM475 46L471 17L452 0H344L347 85Q323 42 287 17T198 -9Q134 -9 98 31T72 163L100 397H21L25 428L44 444H159L127 176Q117 101 140 69T219 37Q274
37 308 75T354 160L389 444H442L393 46H475Z" />
<glyph unicode="&#xfb;" glyph-name="uni00FB" horiz-adv-x="517" d="M304 667L406 549L380 522L289 612L182 522L161 549L288 667H304ZM475 46L471 17L452 0H344L347 85Q323 42 287 17T198 -9Q134 -9 98 31T72 163L100 397H21L25 428L44 444H159L127 176Q117
101 140 69T219 37Q274 37 308 75T354 160L389 444H442L393 46H475Z" />
<glyph unicode="&#xfc;" glyph-name="uni00FC" horiz-adv-x="517" d="M326 562L333 633H400L393 562H326ZM162 562L169 633H235L228 562H162ZM475 46L471 17L452 0H344L347 85Q323 42 287 17T198 -9Q134 -9 98 31T72 163L100 397H21L25 428L44 444H159L127 176Q117
101 140 69T219 37Q274 37 308 75T354 160L389 444H442L393 46H475Z" />
<glyph unicode="&#xfd;" glyph-name="uni00FD" horiz-adv-x="465" d="M413 631L237 523L221 549L384 678L413 631ZM225 64H231Q369 213 369 351Q369 374 366 397T352 444H416Q449 312 374 184Q325 100 237 13L214 -167H295L292 -197L273 -213H79L83 -184L101 -167H161L186
14L74 397H15L18 426L37 444H224L220 413L201 397H130L225 64Z" />
<glyph unicode="&#xfe;" glyph-name="uni00FE" horiz-adv-x="500" d="M176 -197L157 -213H-46L-42 -184L-24 -167H24L125 642H44L48 671L66 688H181L168 555L143 359Q166 397 201 425T295 453Q369 453 410 403T452 263Q452 208 433 145T369 36T245 -10Q143 -10
107 66L78 -167H180L176 -197ZM243 36Q302 36 335 73T381 162T395 256Q395 329 365 367T283 406Q222 406 183 361T131 268L118 154Q120 105 154 71T243 36Z" />
<glyph unicode="&#xff;" glyph-name="uni00FF" horiz-adv-x="465" d="M305 562L312 633H379L372 562H305ZM141 562L148 633H214L207 562H141ZM225 64H231Q369 213 369 351Q369 374 366 397T352 444H416Q449 312 374 184Q325 100 237 13L214 -167H295L292 -197L273
-213H79L83 -184L101 -167H161L186 14L74 397H15L18 426L37 444H224L220 413L201 397H130L225 64Z" />
<glyph unicode="&#x2013;" glyph-name="uni2013" horiz-adv-x="619" d="M60 251H552L548 209H56L60 251Z" />
<glyph unicode="&#x2014;" glyph-name="uni2014" horiz-adv-x="1067" d="M77 251H998L993 209H72L77 251Z" />
<glyph unicode="&#x2018;" glyph-name="uni2018" horiz-adv-x="197" d="M194 661L122 449H69L141 661H194Z" />
<glyph unicode="&#x2019;" glyph-name="uni2019" horiz-adv-x="194" d="M70 474L142 686H195L123 474H70Z" />
<glyph unicode="&#x201a;" glyph-name="uni201A" horiz-adv-x="195" d="M-10 -107L62 105H115L43 -107H-10Z" />
<glyph unicode="&#x201c;" glyph-name="uni201C" horiz-adv-x="353" d="M195 668L123 456H70L142 668H195ZM353 668L281 456H228L300 668H353Z" />
<glyph unicode="&#x201d;" glyph-name="uni201D" horiz-adv-x="351" d="M66 458L138 670H191L119 458H66ZM224 458L296 670H349L277 458H224Z" />
<glyph unicode="&#x201e;" glyph-name="uni201E" horiz-adv-x="354" d="M-10 -107L62 105H115L43 -107H-10ZM150 -107L222 105H275L203 -107H150Z" />
<glyph unicode="&#x2022;" glyph-name="uni2022" horiz-adv-x="352" d="M69 235Q69 282 103 316T182 351Q223 351 249 323T276 254Q276 206 241 173T161 139Q120 139 95 166T69 235Z" />
<glyph unicode="&#x2039;" glyph-name="uni2039" horiz-adv-x="277" d="M200 25H153L44 271L204 511H251L96 271L200 25Z" />
<glyph unicode="&#x203a;" glyph-name="uni203A" horiz-adv-x="278" d="M72 25H25L180 271L76 511H123L233 271L72 25Z" />
</font>
</defs>
</svg>
