<?xml version="1.0" standalone="no"?>
<!DOCTYPE svg PUBLIC "-//W3C//DTD SVG 1.1//EN" "http://www.w3.org/Graphics/SVG/1.1/DTD/svg11.dtd">
<svg xmlns="http://www.w3.org/2000/svg">
<defs >
<font id="Akronim" horiz-adv-x="327" ><font-face
    font-family="Akronim"
    units-per-em="1000"
    panose-1="0 0 0 0 0 0 0 0 0 0"
    ascent="785"
    descent="-314"
    alphabetic="0" />
<glyph unicode=" " glyph-name="space" horiz-adv-x="201" />
<glyph unicode="!" glyph-name="exclam" horiz-adv-x="284" d="M230 538Q216 500 198 461T159 386Q158 385 155 381T149 377Q146 378 146 383T147 390Q150 409 156 437T171 484Q174 490 181 515T194 572T204 631T201 674Q200 676 202 678Q203 679 203 680Q205
680 210 675Q221 663 227 645T236 608T236 570T230 538ZM225 379Q214 345 197 312T166 252Q164 247 162 246T159 244Q156 245 156 247T156 255Q162 309 179 360T218 466Q231 498 241 532T253 607Q253 612 256 612Q258 612 260 607Q271 587 270 556T260 491T242
428T225 379ZM132 189Q135 184 133 183T129 184Q103 214 90 243T74 302T76 360T90 416Q102 454 117 491T146 563T167 632T174 699Q174 701 175 701Q177 701 179 696Q193 661 189 625T173 551T145 475T116 400Q101 352 102 297T132 189ZM144 234Q146 220 149 209T159
184Q161 179 159 179T153 181Q140 192 134 203T123 237Q121 246 121 258T122 282T126 301T132 308Q135 306 136 295T138 279Q140 267 141 256T144 234ZM103 120Q108 120 118 120T129 111Q129 108 121 104T102 92T83 72T75 40Q76 29 77 19T84 3Q86 0 88 -2T90 -6Q88
-6 86 -5T82 -3Q62 5 53 20T43 49Q42 78 55 98T103 120ZM141 85Q146 87 149 87T152 81Q153 73 148 66T137 51T130 32T136 7Q138 3 143 -2T146 -7Q144 -9 138 -7T130 -4Q113 3 104 16T95 41Q94 58 109 70T141 85ZM170 37Q170 33 168 27T159 21Q154 20 151 26T147
37Q147 41 150 47T158 53Q164 53 167 48T170 37Z" />
<glyph unicode="&quot;" glyph-name="quotedbl" horiz-adv-x="356" d="M77 407Q77 399 74 392T66 379Q66 375 62 375Q59 375 59 379Q54 387 54 393T56 407Q58 413 59 418T64 430Q64 433 70 433Q75 432 77 421T77 407ZM155 482Q150 451 136 426T85 377Q85 375 81
375Q79 375 80 376T81 379Q98 403 107 429T122 482Q129 526 128 570T132 659V661Q132 663 133 663Q137 663 137 659Q157 614 159 569T155 482ZM44 422Q44 421 44 419T40 416L34 425Q20 445 18 465T19 506Q21 516 24 532T33 564T45 596T64 619L65 620Q66 620 66
620T68 621Q70 621 70 618Q68 599 65 580T60 543Q55 513 52 483T44 422ZM81 501Q76 524 76 541T79 580Q81 595 88 616T110 649L111 650Q112 650 112 650T115 651V650Q115 649 116 648Q117 640 117 623T115 588T112 556T110 537Q108 526 104 517T95 499Q95 497 92
495T86 492Q83 493 83 496T81 501ZM262 410Q262 400 258 394T249 381Q249 377 247 377Q242 377 242 381Q238 388 238 395T241 410Q242 415 242 421T248 432Q248 436 253 436Q256 435 258 431T261 423T262 415T262 410ZM338 484Q333 453 320 428T269 379Q269 377
264 377Q264 377 264 381Q282 404 292 430T307 484Q314 529 312 573T315 660V662Q315 664 318 664Q322 664 319 660Q341 615 343 571T338 484ZM227 426Q227 418 223 421Q222 421 220 423Q219 424 218 426Q207 448 204 467T203 507Q205 518 208 534T216 567T229
598T248 621L249 622Q250 622 250 622T252 623Q253 623 253 619Q252 601 250 583T244 544Q239 515 236 486T227 426ZM264 503Q259 526 259 543T263 582Q265 598 272 618T293 651Q294 651 295 652Q296 652 297 652T299 653V652V649Q300 641 300 625T299 590T296
557T293 538Q292 529 288 519T278 501Q277 501 275 497T270 493Q268 495 267 498T264 503Z" />
<glyph unicode="#" glyph-name="numbersign" horiz-adv-x="569" d="M592 482Q592 481 591 479T588 475Q577 461 561 451T525 433T487 423T453 421Q411 423 365 429T277 447Q274 447 268 449T262 455Q262 457 268 458T277 460Q297 462 328 462T379 462Q386 460
414 460T476 461T541 468T585 482Q587 484 589 484T592 482ZM606 514Q606 511 601 508Q569 484 530 478T449 474T363 482T277 490Q223 492 166 475T63 419Q59 416 58 416T59 422Q91 464 128 486T207 515Q218 548 225 580T232 644Q233 645 233 647T233 648Q235 649
236 647T237 643Q246 613 246 582T238 518Q243 519 246 519T252 519Q258 550 260 577T260 618Q259 619 259 623Q259 624 260 625Q262 625 264 623T267 619Q280 601 286 574T290 519Q301 519 306 518L308 538Q308 543 311 544Q312 543 312 542T314 537Q316 532 317
528T319 518Q341 516 361 514T404 510Q430 580 441 648Q441 653 444 653Q446 653 447 650T448 645Q454 611 450 577T436 507H434Q439 507 442 507T449 506Q457 538 462 570T466 618Q466 623 469 623Q472 623 474 618Q485 597 487 565T485 503H501L506 526Q507 534
509 532T514 527Q516 523 516 516T515 503Q539 503 560 505T601 514Q603 514 603 515T606 514ZM537 237Q537 233 533 229Q523 215 507 205T472 187T434 177T400 173Q358 175 313 182T226 199Q223 199 218 201T212 207Q212 208 217 210T226 212Q236 213 249 214T276
215T304 215T329 214Q336 213 363 213T423 215T486 222T529 237Q537 239 537 237ZM186 452Q186 448 175 444T159 437Q148 433 137 429T115 419Q101 412 90 408T67 392Q62 388 61 388T60 390T61 395T63 399Q68 409 79 420T111 441Q120 445 132 448T157 454T177 456T186
452ZM393 260Q399 259 405 259T418 258Q425 279 433 300T451 345L466 384Q457 381 449 381Q436 350 422 319T393 260ZM345 264Q353 263 360 263T375 262Q380 288 389 318T406 369Q406 371 408 377H388Q377 349 365 321T345 264ZM270 271Q281 270 292 270T314 269L316
275Q324 301 333 326T352 378Q338 378 326 378T303 379Q293 347 285 319T270 271ZM203 271Q210 273 217 273T232 273Q240 296 249 318T266 366L271 382Q267 382 263 382T253 384Q231 326 203 271ZM121 255Q124 266 127 277T134 300Q142 325 150 349T167 399Q160
400 153 401T140 404Q129 404 129 407Q129 410 132 410T140 412Q197 423 255 420T373 411Q409 408 448 407T527 415Q537 417 533 414T527 408Q521 403 515 400T499 392Q488 354 476 318T455 256Q480 256 503 258T547 269Q549 269 549 269Q551 267 550 266T547 263Q514
239 476 233T396 228T311 236T226 242Q172 242 116 225T18 162L14 158V163Q34 199 61 221T121 255ZM199 392Q188 364 178 336T160 279Q159 276 159 273T156 266Q164 267 172 268T189 271V273Q191 284 194 299T201 330T209 361T218 386V389Q213 390 209 390T199
392ZM136 201Q137 199 134 197T126 193T117 189T111 186Q100 180 90 176T68 166Q56 158 45 150T23 132Q22 130 19 129T18 130V138Q18 140 19 141Q29 155 36 165T66 188Q73 192 85 195T108 201T127 204T136 201ZM166 25Q142 54 130 84T114 148Q102 148 95 151Q90
152 86 152T82 156Q81 158 85 158T95 159Q151 172 206 172T322 166Q359 162 396 160T475 169Q480 169 480 167Q480 168 475 163Q465 152 449 146T412 137Q404 117 397 99T382 67Q376 56 373 56Q369 59 373 70Q376 85 377 101T384 133Q376 132 371 132T358 132Q358
126 358 115T357 91T356 66T358 44Q362 25 363 11T373 -14Q374 -15 374 -18T373 -21Q371 -20 370 -19T366 -16Q364 -15 363 -14Q352 -4 344 5T334 44Q334 53 334 65T336 90T340 114T345 132H318Q316 92 321 55T342 -10Q344 -14 344 -16V-18Q342 -18 341 -16T338
-11Q312 18 301 54T290 133Q274 134 261 135T237 136Q233 136 229 136T219 137Q215 129 212 122T206 107Q200 96 197 97Q195 97 195 101T196 111Q196 117 196 124T197 138Q192 138 187 139T177 140Q177 127 179 113T182 85Q188 52 201 25Q205 17 200 18T192 22Q179
36 172 48T160 86Q158 97 159 112T162 141Q157 142 152 142T141 144Q142 113 148 83T170 26Q173 22 170 22T166 25Z" />
<glyph unicode="$" glyph-name="dollar" horiz-adv-x="385" d="M16 47Q12 45 9 45T5 45Q4 47 11 51Q25 57 42 63T77 75Q81 113 87 153T105 232L132 326L115 351Q101 371 88 390T62 437Q51 461 48 497T62 564Q80 596 103 613T150 640T198 652T242 658Q257 705 263
752Q263 757 266 759Q267 760 268 756T269 751Q273 721 269 690T257 627T237 561T216 492Q195 420 172 350T132 207Q121 162 112 115T99 22T98 -69T115 -152Q117 -162 116 -162Q112 -162 111 -158Q85 -119 77 -71T71 21Q44 16 19 15Q17 15 13 15T8 18Q8 22 11 24L15
26Q29 32 41 37T73 47V53Q73 56 74 58Q58 56 44 53T16 47ZM359 616L325 608Q328 590 324 555T312 481T297 410T285 363Q301 346 313 330T336 299Q349 282 360 256T374 201T373 141T349 86Q329 60 307 46T262 24T219 16T182 15Q177 4 171 -10T160 -35Q157 -42 154
-46T151 -50Q148 -50 148 -44T151 -31Q168 59 192 153T247 347Q254 372 266 409T290 485T309 561T318 622Q329 622 337 623T353 625Q369 625 369 622Q370 620 366 618T359 616ZM195 47L186 26Q216 31 247 41T304 75Q331 105 340 140T338 212Q328 245 311 270T274
319L267 290Q275 279 281 268T293 245Q295 241 299 230T300 216Q299 216 292 225T282 240L259 266L249 230L255 223Q266 205 270 186T272 150T256 118T219 93Q216 92 214 91T208 89L201 67Q226 75 244 80T264 85Q267 83 257 77T233 64Q217 56 195 47ZM270 481Q249
414 224 338T173 195Q171 193 167 183T160 173Q158 174 159 184T162 199Q165 215 170 238T181 285T192 331T201 371Q203 379 210 403T226 461T247 533T267 606T282 671T288 715Q288 720 288 724T289 729Q291 729 292 725T295 719Q304 697 304 666T299 602T285 537T270
481ZM85 537Q79 509 82 485T96 441T119 402T144 367Q146 375 149 384Q151 389 152 395Q148 399 142 408T130 427T118 446T110 460Q104 471 101 487T98 520T108 553T132 582Q155 599 180 606T229 618L233 629Q214 626 192 621T150 606T112 580T85 537ZM133 -70Q133
-116 145 -152Q148 -160 145 -162Q143 -163 140 -160T134 -155Q128 -146 124 -139T117 -123T113 -102T111 -70Q111 -55 113 -35T119 3T126 33T133 45Q134 45 135 39T136 24T136 9T136 0Q134 -16 134 -34T133 -70ZM137 525Q131 508 139 484T164 432L170 451Q145
493 151 517T207 559Q209 563 210 567T214 577Q185 567 164 555T137 525ZM399 643L318 638Q318 643 317 647T316 656Q337 655 357 654T400 648Q411 646 410 645T399 643ZM244 162Q244 170 243 175T238 188Q234 172 230 157T221 126Q236 135 239 143T244 162ZM184
492L190 511L199 537Q182 526 178 518T184 492Z" />
<glyph unicode="%" glyph-name="percent" horiz-adv-x="667" d="M227 580Q230 579 234 572T244 558T255 544T263 537Q264 537 264 541T264 547Q263 560 255 574T236 600Q223 614 201 619T164 612Q162 611 160 610T159 607Q161 605 165 605T170 604Q187 606 201
600T227 580ZM170 433Q167 425 161 417T148 403T133 393T119 389Q111 389 104 399T95 424T95 459T112 496Q117 498 114 501L108 497Q92 486 84 466T75 425T79 387T96 363Q107 357 122 359T152 369T181 392T203 426Q213 448 219 474T224 525T212 568T178 592Q177
592 175 592T174 589Q174 589 178 585Q192 571 196 554T198 518T187 477T170 433ZM271 578Q287 538 288 496T278 417T241 349T178 300Q146 285 117 286T66 303T30 346T15 412Q15 414 15 417T12 421Q11 421 11 419T10 415Q5 401 4 382T7 334Q10 320 21 303T55 274Q88
257 122 257T188 271T246 309T289 364Q302 389 310 417T318 474T309 531T278 584Q278 585 272 591T264 595Q263 593 266 588T271 578ZM227 382Q229 384 231 392T230 401Q230 401 224 395Q221 392 218 390Q201 375 184 363T148 344Q146 343 136 340T112 336T87 341T68
364Q62 382 62 400T63 435T69 465T78 486Q79 490 81 492L82 493Q81 495 78 494T73 490Q58 479 48 457T36 410T39 360T64 322Q87 304 112 304T159 313T200 342T227 382ZM437 382Q395 325 348 265T255 152Q252 149 245 142T234 137Q233 137 237 147T244 159Q251 174
262 193T287 233T313 273T336 306Q340 312 353 332T385 380T422 441T459 505T489 562T504 603Q505 605 506 607T508 611Q509 613 510 614Q512 614 513 610T514 604Q516 581 510 552T493 491T467 432T437 382ZM319 132Q284 80 243 34T170 -54Q165 -59 162 -63T158
-65Q154 -65 157 -59T163 -47Q202 31 257 109T371 267Q407 316 444 369T510 486Q512 491 512 492T516 493V484Q514 461 502 431T473 368T434 301T391 236T350 177T319 132ZM92 -152Q92 -163 90 -162Q88 -162 87 -160T88 -157Q77 -111 83 -65T106 28T148 119T203
208Q243 268 285 324T367 435T439 541T493 645Q495 647 495 649T497 649Q499 651 498 648T499 643Q488 583 458 526T387 410T302 295T218 177Q193 139 171 99T131 16T103 -69T92 -152ZM137 -80Q131 -100 127 -121T122 -163Q122 -165 121 -169T118 -172Q113 -169
112 -166Q111 -164 111 -162Q106 -143 106 -126T114 -74Q118 -60 126 -42T143 -8T159 18T170 26Q171 26 170 22T167 12T163 0T159 -9Q144 -45 137 -80ZM569 306Q571 305 575 298T585 284T596 270T604 263Q606 263 606 267T606 273Q604 286 596 300T577 326Q564
340 542 345T506 338Q504 337 502 336T500 333Q502 331 506 331T511 330Q545 334 569 306ZM511 159Q508 151 502 143T489 129T474 119T460 115Q452 115 445 125T436 150T436 185T453 222Q458 225 455 227L449 223Q433 212 425 192T416 151T420 113T437 89Q448 83
463 85T493 95T522 118T544 152Q554 174 560 200T565 251T553 294T519 318Q518 318 516 318T515 315Q515 315 519 311Q534 297 538 280T539 244T528 203T511 159ZM612 304Q628 264 629 222T619 141T582 72T519 26Q487 13 458 14T407 31T371 73T356 138Q356 140
356 143T353 147Q352 147 352 145T351 141Q346 127 343 108T348 60Q352 46 362 28T396 0Q429 -14 463 -13T529 0T587 36T630 90Q643 115 651 143T659 200T650 257T619 310Q619 311 613 317T606 321Q604 319 607 314T612 304ZM569 108Q570 110 572 118T571 127Q571
127 565 121Q562 118 559 116Q542 101 525 89T489 70Q487 69 477 66T454 62T429 67T410 90Q404 108 403 126T404 161T411 191T419 212Q420 216 422 218L423 219Q422 221 419 220T414 216Q399 205 389 183T377 136T380 86T406 48Q428 30 453 30T500 39T541 68T569
108Z" />
<glyph unicode="&amp;" glyph-name="ampersand" horiz-adv-x="473" d="M422 77Q420 75 417 79T412 86Q377 149 360 221T325 367Q314 414 302 462T264 558Q261 564 264 566Q266 567 267 566T271 562Q287 551 301 528T327 477L338 490Q355 510 370 531T401 573Q403
575 406 579T410 581Q411 577 411 572Q411 570 410 569Q402 552 391 530T349 473L334 456Q336 453 337 450T341 441Q364 471 384 499T422 553Q424 555 425 556T427 560Q428 562 429 563Q435 561 432 556Q417 519 396 485T349 415Q360 376 369 338T385 277L386 271Q394
284 401 296T415 321Q417 323 418 324T421 326Q422 328 422 324T421 318Q416 301 409 284T392 249Q394 245 395 241T397 232Q405 246 412 258T423 279Q424 281 425 283T427 287Q428 289 429 290Q432 290 432 287T432 279Q432 263 425 241T404 196Q409 167 414 140T422
90Q423 86 423 82T422 77ZM322 214Q321 214 318 221T314 230Q308 240 302 256T289 290T279 325T271 355Q269 364 260 398T237 474T207 551T177 599Q175 601 176 603T177 607Q177 609 180 607T185 604Q202 598 218 582T249 546T273 503T289 462Q303 409 311 350T325
236Q326 234 326 225T322 214ZM469 5Q466 4 461 4H458Q439 8 426 13T397 40Q389 47 381 60T365 87T355 110T355 122Q356 123 360 121T368 114T375 104T381 97Q389 85 398 75T416 55Q429 42 439 31T466 12Q473 9 469 5ZM236 270Q218 248 203 227T177 186Q159 157
155 135T153 112Q153 109 159 107T177 105T203 110T233 123Q244 129 252 134T271 148Q264 165 259 181T249 215Q245 229 242 242T236 270ZM329 53Q301 29 260 13T164 -13Q132 -19 105 -15T58 4T28 41T18 95Q19 144 31 176T55 229Q83 282 124 326T206 406Q194 463
175 510T138 603Q137 607 138 608Q140 611 145 609T153 604Q181 571 199 526T232 429T257 323T284 215Q293 182 307 149T341 86T384 34T437 0H444H438Q403 0 376 15T329 53ZM308 81Q297 70 284 62T259 47Q241 36 215 29T161 20T111 27T75 58Q63 80 64 103T73 148T95
190T121 227Q126 232 133 241T145 249Q145 248 140 237T132 222Q98 169 96 129T117 70T184 58T285 108L289 111Q286 115 284 122Q273 113 261 106T234 90Q217 81 200 77T167 73T140 77T125 92Q116 114 127 147T160 212Q174 235 190 259T227 306Q223 324 219 343T212
379Q179 343 143 299T83 208T52 115T74 29Q90 15 112 10T160 5T210 13T255 30Q272 38 286 48T316 70Q313 72 312 75T308 81Z" />
<glyph unicode="&apos;" glyph-name="quotesingle" horiz-adv-x="196" d="M88 470Q86 462 82 456T74 445Q74 441 70 441Q67 441 67 445Q64 453 64 458T64 471Q66 476 67 482T74 493L75 494Q77 496 78 496Q86 494 87 483T88 470ZM162 538Q157 509 145 486T95 441H89Q89
441 89 442V443Q106 466 117 490T132 538Q140 581 139 623T144 706V708Q144 710 145 710L146 709Q146 708 146 708T147 706Q167 662 168 621T162 538ZM53 486Q52 485 52 483T48 482Q46 482 45 485Q44 486 44 488Q30 508 28 527T29 564Q31 574 34 589T43 621T56
651T74 673H79Q81 673 81 671V670Q79 651 76 634T70 599Q65 571 62 543T53 486ZM90 559Q85 581 85 597T90 634Q93 648 99 667T121 696Q121 700 125 700Q126 699 126 696Q128 688 128 672T126 640T123 610T121 593Q119 583 114 574T103 556Q102 554 101 553Q99 551
96 551Q94 552 93 555T90 559Z" />
<glyph unicode="(" glyph-name="parenleft" horiz-adv-x="262" d="M155 11Q163 -1 168 -18T181 -57Q181 -58 182 -63T182 -70Q181 -70 179 -68T175 -65Q164 -49 153 -32T137 0Q130 12 124 28T116 62Q116 64 116 67T119 71Q122 72 127 64T138 46T148 25T155 11ZM164
248Q166 208 170 172T178 101T187 31T196 -44Q196 -46 196 -48T196 -51Q194 -52 194 -49T192 -44Q170 20 154 90T132 233Q123 351 157 466T269 678Q270 680 272 682Q275 685 277 685Q278 685 277 682T274 675Q220 571 190 464T164 248ZM107 26Q109 21 111 16T111
10Q110 10 106 15T100 22Q67 67 50 126T27 245Q24 281 31 332T54 436T90 531T137 593Q139 595 141 597T145 597Q147 595 146 593T142 589Q116 539 98 486T70 377Q56 288 66 199T107 26ZM89 264Q78 325 86 377T114 488Q121 509 133 534T161 582T193 626T227 659Q229
660 232 662T237 663Q241 663 233 653Q218 636 200 597T165 514T136 434T121 386Q114 357 110 325T100 264Q100 258 99 254Q97 244 96 244Q93 244 91 253T89 264Z" />
<glyph unicode=")" glyph-name="parenright" horiz-adv-x="212" d="M51 15Q41 4 32 -11T10 -41Q9 -44 7 -46L3 -50Q-1 -46 3 -40Q7 -23 14 -10T29 16Q36 31 43 44T59 71Q61 73 62 77T66 79Q69 78 68 69T63 49T56 28T51 15ZM190 216Q170 126 132 63T30 -46Q29 -47
27 -48T23 -50Q21 -48 23 -47T27 -41Q70 7 104 71T156 208Q171 269 171 329T163 448T144 565T126 681L124 685Q121 690 125 690Q126 690 130 684Q151 633 168 577T194 461T204 340T190 216ZM30 56Q28 51 26 47T21 44Q19 45 20 50T21 58Q27 107 36 150T56 248Q62
273 65 312T72 394T78 476T85 543Q84 544 85 545Q85 548 89 548Q90 548 90 546T90 541Q97 492 101 444T104 349Q102 273 83 201T30 56ZM121 249Q121 277 121 300T121 346T121 392T119 443Q118 462 115 488T110 541T108 594T111 640Q111 642 111 645T115 649V647Q115
644 116 640Q120 627 125 603T134 549T143 489T150 430T154 382T155 355Q152 327 147 299T132 248Q130 246 128 238T122 229Q120 229 120 238T121 249Z" />
<glyph unicode="*" glyph-name="asterisk" horiz-adv-x="400" d="M247 681Q245 667 241 659T232 644T222 631T212 616Q210 612 210 606T206 599Q204 599 202 605L200 611Q197 620 197 633T201 653Q202 656 203 667T205 691T201 718T190 737Q185 740 190 740T197
740Q226 732 237 713T247 681ZM171 552Q167 550 163 548T153 544Q136 534 121 520T95 487T79 446T77 397Q78 389 76 390T73 397Q58 449 67 485T101 545Q91 558 82 570T64 593Q61 598 63 600Q64 602 73 600Q102 588 126 564Q131 568 136 570T147 575Q132 595 138
619Q138 624 139 627T141 634Q93 650 32 636Q22 634 26 636T32 640Q61 655 94 660T151 663Q159 686 164 705T156 744Q155 746 156 748Q156 751 163 747Q185 732 189 716T191 683T180 649T169 614Q166 592 182 573T241 533Q239 560 241 592T251 648Q256 662 258
675T255 708Q252 717 262 711Q275 703 280 692T286 668T285 643T279 621Q304 627 325 634T367 652H369Q372 652 373 651Q373 648 371 645Q351 617 325 605T270 584Q268 579 267 575T263 566Q276 571 291 577T320 591T345 605T363 618Q369 624 369 619Q369 618 368
616T367 612Q362 596 353 583T334 560T314 544T295 534Q268 526 237 520T175 507Q174 507 168 506T160 507Q158 509 162 512T169 518Q174 522 180 527T196 538Q188 542 183 545T171 552ZM388 460Q363 459 339 467T296 492Q288 488 284 485Q304 469 325 457T362
447Q369 447 366 444T360 440Q346 434 330 434T299 436T270 447T249 462Q244 463 240 469L227 462Q241 449 255 440T288 422Q295 419 292 419T285 416Q262 412 241 421T199 448Q180 440 160 434T125 419Q117 415 116 417T119 426Q143 457 177 476T249 507Q273 514
296 520T341 544Q346 548 346 544T344 537Q339 528 334 521T321 508Q337 493 355 483T390 466Q398 463 395 462T388 460ZM121 610Q120 608 113 609T95 611T76 613T62 615Q51 616 42 616T18 612Q10 611 10 612T16 618Q30 627 42 631T73 634Q80 634 89 631T107 625T119
617T121 610ZM121 477Q122 475 121 471T117 462T113 453T111 448Q106 434 102 418T97 375Q97 367 94 372T89 381Q85 396 84 408T88 437Q90 444 94 452T104 466T113 476T121 477Z" />
<glyph unicode="+" glyph-name="plus" horiz-adv-x="570" d="M544 295Q544 293 543 291T540 286Q529 272 513 262T477 246T440 238T406 236Q365 240 322 248T237 267Q235 267 229 269T223 273Q222 276 228 277T237 278Q256 283 286 283T336 281Q343 279 370 279T430
278T493 282T537 293Q539 295 542 295H544V295ZM559 325Q560 323 558 322T555 319Q522 297 484 293T405 292T321 303T236 311Q210 311 182 307T127 293T76 266T34 226Q29 220 29 222T32 229Q48 261 70 282T119 316T174 334T233 340Q240 402 244 458T238 566Q237
571 240 570T245 566Q261 542 268 516T276 460T274 400T266 338Q271 338 275 338T285 337Q286 355 287 385T287 448T283 507T273 548Q268 556 272 555T278 551Q291 537 301 518T319 478T328 437T329 399Q327 383 325 367T319 334Q324 333 327 333T336 332Q340 369
342 405T337 482Q335 490 337 489T342 484Q360 459 364 416T367 327Q419 321 466 318T555 326Q558 326 559 325ZM355 -21Q351 -21 348 -18Q346 -17 345 -15Q330 -6 320 0T300 25Q296 34 293 47T287 74T285 96T289 105Q293 106 297 97T306 74T314 48T321 29Q327
15 335 6T353 -14Q355 -14 356 -17T355 -21ZM151 269Q152 265 141 259T125 251Q114 246 104 241T84 230Q72 222 61 215T41 196Q38 192 37 193T36 196T37 202T38 207Q43 215 53 228T82 253Q90 258 101 262T124 269T142 272T151 269ZM251 200Q251 171 254 141T266
81T288 27T323 -17Q331 -25 327 -25Q325 -25 324 -24T322 -21Q290 -4 270 21T238 76T222 138T219 203Q189 207 160 210T107 215Q99 215 99 219Q99 222 102 223T108 226Q162 242 217 239T329 230Q365 226 402 224T480 230Q484 232 484 227Q484 226 483 226T480 225Q461
207 428 202T359 196Q356 159 349 122T337 55Q337 44 334 44Q331 44 330 48T327 55Q320 90 320 125T322 197Q305 199 286 199T251 200Z" />
<glyph unicode="," glyph-name="comma" horiz-adv-x="242" d="M185 23Q178 -4 159 -36T111 -88Q110 -89 106 -92T98 -93Q97 -92 98 -87T100 -80Q105 -67 116 -47T133 -13Q139 0 142 20T146 60T142 98T125 125Q124 125 124 128Q124 129 125 129Q126 130 133 128Q147
123 158 111T177 84T186 53T185 23ZM171 -114Q149 -142 121 -165T70 -199Q68 -200 65 -201T60 -200Q58 -198 60 -196T64 -191Q94 -153 124 -116T177 -33Q190 -7 198 22T195 85Q194 89 195 89Q195 89 200 86Q220 69 222 41T218 -16T197 -72T171 -114ZM10 -222Q9
-223 9 -225V-226Q9 -227 8 -226Q5 -226 5 -224V-221Q3 -184 6 -157T16 -109T32 -73T52 -43Q65 -27 77 -6T97 38T104 85T90 130Q86 136 92 136Q95 136 96 136T99 133Q126 113 132 88T131 35T107 -17T75 -63Q54 -90 36 -129T10 -222ZM44 -199Q39 -210 36 -220T30
-244Q29 -246 29 -249T27 -252Q26 -252 24 -246L22 -240Q20 -223 20 -212T29 -181Q32 -174 37 -166T47 -150T57 -139T64 -136Q67 -139 65 -148T60 -162Q56 -171 52 -179T44 -199Z" />
<glyph unicode="-" glyph-name="hyphen" horiz-adv-x="466" d="M332 242Q302 244 269 251T206 270Q204 271 200 273T195 278Q195 281 199 282T206 284Q220 287 242 287T279 284Q291 282 312 282T355 284T397 291T426 304Q430 308 431 307T432 304T430 299T429
296Q422 282 410 272T385 255T357 245T332 242ZM215 207Q188 209 160 214T108 223Q101 223 101 227Q101 229 104 230T111 233Q150 244 191 242T275 234Q302 231 329 229T386 237Q389 238 389 236T388 232Q376 215 353 209T304 202T254 203T215 207ZM53 234Q52 232
51 233T51 237Q64 270 82 291T122 325T166 341T212 344Q243 343 273 338T332 330T387 326T437 338Q438 338 440 337T437 330Q414 307 387 302T329 298T267 307T204 314Q166 316 125 298T53 234ZM92 238Q84 231 75 223T58 204Q53 201 53 203Q53 209 54 210Q54 211
55 212Q59 228 66 238T88 260Q94 264 102 268T119 275T133 278T140 274Q141 270 133 266T122 259Q105 248 92 238Z" />
<glyph unicode="." glyph-name="period" horiz-adv-x="252" d="M133 -20Q128 -20 118 -19T107 -9Q107 -6 116 -2T136 11T156 32T165 67Q165 93 155 106Q153 109 150 112T148 117Q150 117 152 116T156 113Q176 102 186 85T197 51Q197 19 182 0T133 -20ZM96 19Q84
14 84 25Q84 33 90 40T101 57T109 77T103 106Q101 111 96 117T93 124Q95 125 101 123T110 119Q127 111 135 95T144 67Q144 48 129 36T96 19ZM67 73Q67 78 70 84T80 91Q85 91 88 85T91 73Q91 69 88 63T80 56Q73 56 70 62T67 73Z" />
<glyph unicode="/" glyph-name="slash" horiz-adv-x="286" d="M236 430Q215 373 187 313T129 201Q127 199 123 192T115 184Q114 186 115 195T118 207Q121 220 127 238T139 276T152 314T164 345Q166 351 173 371T189 418T207 477T224 538T236 592T240 630V637Q240
639 241 640Q243 640 245 637T247 633Q256 614 258 588T258 533T249 477T236 430ZM196 195Q187 169 176 143T152 92T129 43T107 1Q104 0 102 0T97 0Q94 0 95 0T97 5Q117 86 146 163T208 319Q229 369 247 420T277 532Q277 537 279 537Q280 537 282 529Q289 500 281
455T257 361T224 268T196 195ZM56 -85Q56 -88 57 -91T56 -92Q52 -92 52 -89Q32 -53 26 -13T23 70T38 156T64 240Q85 298 109 353T155 462T193 566T216 664Q216 666 216 668T219 670Q221 671 221 668T223 663Q229 610 217 556T184 445T136 331T89 216Q76 180 66
141T50 63T45 -15T56 -85ZM79 -14Q78 -34 80 -52T86 -91Q86 -92 86 -96T84 -98Q79 -96 78 -94Q77 -93 77 -91Q66 -75 62 -60T58 -11Q58 -3 61 13T67 44T75 71T84 81Q85 81 85 76T86 63T85 50T84 40Q82 22 81 10T79 -14Z" />
<glyph unicode="0" glyph-name="zero" horiz-adv-x="407" d="M271 116Q269 113 266 109T259 100T252 94T247 92Q245 92 246 96T259 125Q272 153 280 189T293 262T298 336T300 401Q300 416 298 437T289 478T271 512T240 526Q216 526 196 513T161 485T135 456T119
441Q126 460 138 480T166 517T202 544T245 555Q276 555 294 535T323 487T335 428T338 375Q338 343 335 310T323 244Q320 233 315 217T303 183T288 147T271 116ZM256 373Q256 380 256 394T253 422T246 448T233 459Q227 459 218 454T200 437Q172 401 156 367T130
298T115 224T104 142Q101 143 99 153T96 177T94 202T93 218Q93 268 105 317T141 411Q147 423 158 439T183 471T213 496T244 507Q258 507 266 492T279 457T285 417T286 386Q286 329 275 266T240 152Q238 150 236 148T234 153Q234 180 237 207T245 262T252 317T256
373ZM130 23Q136 23 143 25T145 22Q139 14 122 14Q89 14 67 42T31 109T11 188T5 253Q5 328 29 402T103 534Q115 548 130 562T162 587T197 605T236 612Q281 612 310 592T357 540T382 470T390 395Q390 360 385 321T369 244T345 169T314 101Q289 56 253 28T164 0Q160
0 151 0T138 3L132 6Q128 8 138 8Q175 6 206 24T261 75T303 148T333 234T350 321T356 399Q356 427 351 459T332 518T295 563T236 581Q218 581 200 573Q157 553 126 515T75 431T44 334T34 241Q34 228 36 207T43 162T55 113T73 68T98 36T130 23ZM64 270Q66 270 67
263T68 255Q70 242 70 230T73 207Q75 195 80 169T94 116T115 69T144 49Q147 49 149 49T152 47Q152 36 127 36Q113 36 103 46T84 74T71 111T62 152T58 189T56 216Q56 218 56 227T57 245T59 262T64 270Z" />
<glyph unicode="1" glyph-name="one" horiz-adv-x="306" d="M236 555Q235 549 229 543T217 532T204 524T197 522Q196 523 199 528T207 540T216 555T221 569Q224 586 221 607Q221 614 223 614Q225 614 228 609Q229 606 230 604Q233 596 236 583T236 555ZM200 567Q183
541 157 526T101 497Q84 490 67 481T38 451Q37 448 36 448Q34 448 34 455Q31 473 41 488T66 514T96 534T121 547Q138 556 159 562T195 574Q203 577 202 573T200 567ZM175 496Q176 491 171 486Q164 479 152 470T125 453Q117 449 106 441T83 424T65 403T58 379Q58
374 55 377Q53 379 51 385Q43 413 51 436T74 467Q93 478 117 485T164 497Q166 497 170 497T175 496ZM278 462Q290 440 289 407T279 338T261 269T245 216Q235 179 220 141T192 75Q189 67 185 67Q182 67 182 70T182 77Q184 137 200 194T237 308Q249 343 260 380T271
460Q271 463 271 466T273 469Q275 469 276 466T278 462ZM137 232Q121 177 125 115T163 1Q165 -2 159 0Q131 27 117 57T99 120T99 185T111 248Q123 292 138 334T167 416Q152 410 137 404T108 390T84 372T70 349Q69 347 68 348T66 355Q65 382 77 398T108 424T149
443T190 463Q202 470 213 481T233 508T245 542T245 586Q244 591 246 591T249 588Q259 562 259 517T249 418Q245 396 237 370T220 318T200 266T179 222Q177 219 175 213T170 208Q167 209 167 215T167 223Q168 233 170 246T176 274T184 302T192 326Q193 330 197 343T205
375T214 415T222 456Q211 445 198 415T172 349T151 280T137 232ZM195 -4Q189 -4 185 0Q171 11 164 21T151 55Q149 64 148 77T147 103T149 123T155 132Q156 132 157 128T160 119T163 108T164 101Q166 88 167 77T171 55Q180 25 194 1Q195 0 196 -2T195 -4Z" />
<glyph unicode="2" glyph-name="two" horiz-adv-x="386" d="M332 416Q321 375 299 347T253 296Q250 294 243 288T233 284Q230 286 235 293T244 304Q253 316 263 334T281 372T295 411T300 445Q300 458 295 473T279 501T249 521T201 527Q174 525 153 514T116 487T92
456T82 430Q81 424 81 424T79 422Q78 422 77 425T75 430Q71 451 80 479T118 532Q144 555 182 562T252 559Q273 553 290 538T319 503T334 460T332 416ZM329 85Q321 76 312 66T289 49Q283 46 275 44T260 40T248 39T244 44Q244 46 250 49T259 53Q268 58 275 61T290
70Q309 82 329 96Q336 101 334 95T329 85ZM284 82Q283 80 275 78Q239 73 205 79T135 94Q111 101 86 102T34 89Q30 87 30 90Q30 92 31 94T33 99Q64 163 111 230T207 355Q243 399 248 431T223 477Q204 485 185 481T148 464T118 433T100 395Q99 390 96 390Q93 390
93 393V396Q91 421 103 445T135 487T183 511T238 506Q266 494 274 472T276 424T252 370T214 321Q194 300 174 275T135 222T100 170T74 123Q78 125 89 125T104 126Q111 138 119 149T134 170T147 184T156 188Q157 187 155 182T150 169T143 156T138 147L127 126Q132
125 137 125T148 123Q171 158 197 189T252 252Q266 268 282 287T313 327T337 375T351 433Q352 452 347 472T330 512T302 546T264 569Q222 585 180 577T105 543Q100 538 99 538T96 538Q95 539 96 542T100 548Q111 565 137 580T199 600Q216 603 237 601T280 590T321
568T356 532Q371 509 377 486T384 439T381 396T370 360Q357 328 342 306T314 269Q279 227 240 190T166 121Q172 121 177 120T186 118Q210 113 234 105T278 88Q285 84 284 82ZM327 58Q307 32 288 18T251 -4T214 -11T178 -10Q154 -7 129 -2T81 5T38 7T4 -4Q1 -7 1
-5T1 0Q14 22 35 28T82 32T135 22T186 11Q217 6 253 17T325 66Q329 70 329 66T327 58ZM197 45Q197 42 193 42T188 41Q174 39 152 41T116 45Q107 46 91 46T59 44T28 37T8 22Q3 13 3 18T3 27Q6 42 16 53T39 71T65 81T88 84Q115 82 138 76T186 55Q188 54 192 51T197
45Z" />
<glyph unicode="3" glyph-name="three" horiz-adv-x="352" d="M226 416Q225 415 221 412T214 410Q212 412 213 416T215 422Q223 438 227 461T226 499Q220 518 202 524T161 528T118 511T89 477Q88 475 87 474T84 475Q82 477 82 481Q82 498 91 514T116 542T150 561T189
567Q220 564 236 547T257 507T253 459T226 416ZM193 432Q178 406 159 378T123 310Q119 307 117 305T111 300Q125 344 143 381T173 443Q186 471 178 477T153 478T119 461T95 444Q91 440 89 443V448Q99 480 128 498T185 511Q199 508 204 500T210 481T205 457T193
432ZM326 212Q329 180 324 152T308 102T287 63T266 37Q245 16 216 5T155 -10T97 -10T52 0Q39 5 41 11Q42 14 47 13T56 10Q94 5 131 12T200 39T256 87T293 155Q300 178 297 212T276 274T224 317T137 315Q141 322 147 330T158 345T168 356T175 359Q177 357 175 350T170
338Q177 340 186 340T201 340Q215 355 229 371T254 406T272 449T277 504Q276 523 268 537T247 560T220 574T192 580Q166 582 146 576T108 559Q103 555 102 556Q101 558 102 560T105 564Q110 573 125 583T162 599T210 603T262 585Q296 564 306 530T309 460T282 389T234
333Q267 322 294 290T326 212ZM266 263Q282 234 282 204T271 148T243 102T206 71Q204 69 197 67T189 67Q188 69 191 74T197 81Q203 88 210 99T225 123T237 149T244 173Q245 176 245 186T243 209T235 236T215 261Q201 272 185 275T155 278T130 273T114 263Q109 258
109 262T110 269Q116 284 134 296T179 311Q205 312 230 297T266 263ZM219 233Q228 213 226 190T211 143T179 99T134 67T78 54T17 66Q11 69 12 76T21 79Q52 65 85 77T145 113T185 166T190 218Q182 237 157 242T109 228Q104 224 104 227T107 233Q116 249 131 257T164
265T196 258T219 233ZM126 36Q126 31 112 27T89 21Q60 19 43 24T7 44Q0 50 -1 52T0 54T5 54T12 52Q28 44 48 42T85 39T114 38T126 36Z" />
<glyph unicode="4" glyph-name="four" horiz-adv-x="371" d="M238 585Q245 571 247 553T246 517T237 483T222 455Q199 423 172 392T116 332Q115 330 110 327T101 325Q99 326 101 331T105 338Q108 346 113 357T125 379T138 401T151 419Q156 424 169 445T197 493T222
545T230 585Q229 588 230 590T233 592Q236 592 238 585ZM326 232Q325 227 323 223T312 215Q277 201 243 203T170 212Q137 217 106 213T48 185Q48 195 50 209T56 236T63 257T70 263Q72 263 72 253T73 236L70 212Q74 219 81 224T93 233Q109 275 135 313T190 389Q210
416 230 445T260 511Q263 514 266 514Q267 512 267 511T266 508Q273 487 263 459T237 403T203 350T175 310Q164 293 151 276T126 244Q143 246 161 246T196 244Q216 280 229 314T240 382V383Q240 385 241 385Q243 385 245 383Q246 382 246 380Q254 363 255 346T254
312T245 277T230 241Q235 241 238 241T247 240Q252 255 257 272T267 306T272 337T270 360Q267 366 267 367T268 369Q269 369 271 368T276 364Q288 352 293 336T300 302T299 269T290 242L285 233Q293 233 301 230Q308 247 312 263T318 300Q318 304 319 304Q321 303
321 302T323 299Q325 294 328 275T326 232ZM360 240Q357 229 352 216T333 192Q328 188 321 184T306 177T293 174T288 177Q286 180 293 185T303 193Q310 198 315 201T326 210Q334 217 342 225T356 244Q359 250 360 248T360 240ZM215 612Q221 575 209 543T174 479T126
417T79 353Q56 316 43 271T41 177Q38 174 34 164Q8 222 18 276T58 375Q79 408 103 438T149 497T187 555T210 614Q210 618 211 618Q213 618 213 615T215 612ZM238 171Q238 168 235 167T229 166Q218 164 194 163T151 163Q116 165 85 163T34 142Q29 137 30 142T33
151Q40 165 51 175T76 191T102 200T123 203Q155 203 179 195T230 178Q232 177 235 175T238 171ZM366 215Q352 172 330 149T282 114Q277 101 269 86T252 55T233 26T216 0Q214 -2 213 -3T209 -4Q208 -3 208 1Q210 28 217 53T236 103H223Q208 103 194 104T164 108Q152
71 153 30T181 -44Q185 -49 183 -49T178 -46Q137 -12 130 30T134 114Q105 119 79 120T26 110Q21 106 21 109T25 116Q44 141 68 146T119 150T174 141T229 136Q246 135 264 138T301 152T334 178T362 218Q364 223 365 221T366 215ZM211 -55Q209 -55 207 -54T203 -52Q201
-51 199 -49Q188 -38 182 -29T171 0Q169 6 169 15T172 32T176 45T182 49Q184 49 186 39T190 23Q192 6 196 -13T211 -50Q213 -55 211 -55Z" />
<glyph unicode="5" glyph-name="five" horiz-adv-x="379" d="M386 593Q384 578 380 567T366 545Q361 539 353 535T338 527T327 524T322 526Q321 529 328 535T338 543Q345 549 349 553T360 564Q367 572 371 578T381 596Q382 598 385 600T386 593ZM352 575Q353 573
351 572T347 570Q316 553 282 554T216 564Q196 569 177 574T132 573Q129 571 129 573Q129 576 132 578Q145 592 161 597T195 602T229 599T260 593Q280 589 305 586T347 578Q352 578 352 575ZM278 521Q277 519 273 517T267 515Q261 513 251 513T230 514T208 516T192
518Q164 522 135 522T85 512Q80 510 80 513T84 521Q104 547 130 555T171 560Q194 554 219 546T269 529Q270 529 274 527T278 521ZM322 292Q338 260 340 228T337 166T323 112T306 74Q292 47 270 23T223 -20T171 -51T122 -70Q116 -72 111 -72T105 -72Q104 -69 108
-67T118 -61Q155 -38 189 -11T250 51T291 126T308 216Q308 246 294 276T256 330T199 364T132 369Q121 367 121 378T123 400Q126 420 130 440T136 480Q128 482 121 482Q116 462 112 445T97 407Q96 405 94 402T89 399Q86 399 86 403T85 408Q83 427 85 446T90 486Q73
486 69 472T64 447Q62 430 61 417T56 391T46 368T30 342Q29 341 27 339T22 338Q21 340 21 345Q23 362 24 384T29 427Q32 439 34 457T42 494T56 528T81 551Q90 555 89 552T84 544Q74 536 68 521T59 478Q73 495 86 501T116 507Q135 507 154 504T193 497T231 489T267
485Q300 484 335 504T389 571Q391 576 393 575T393 569Q384 534 370 511T337 475T298 457T258 453Q233 455 211 460T166 473Q164 454 162 437T153 400L149 386Q168 390 192 387T240 372T285 341T322 292ZM10 286Q6 286 7 292T12 305T22 321T33 333Q45 344 52 346T74
353Q79 355 83 353T77 344Q69 339 63 335T48 325Q32 312 22 299T10 286ZM245 323Q270 298 280 266T288 200T274 137T242 86Q241 83 235 77T227 73Q224 73 227 81T232 92Q238 103 243 119T253 154T258 189T258 218Q258 221 256 233T246 259T225 287T193 308Q145
326 105 315T38 279Q31 271 32 277T37 288Q53 313 80 329T136 351T195 350T245 323ZM206 105Q191 77 170 53T123 7T68 -38T7 -85Q0 -90 0 -88Q0 -85 3 -83Q34 -51 60 -25T109 26T150 75T182 127Q204 170 204 199T182 256Q171 270 155 277T121 284T86 278T55 260Q53
260 53 259T52 260Q49 260 55 266Q65 284 84 294T125 307T169 303T208 278Q225 260 231 239T236 195T226 149T206 105ZM159 0Q160 0 157 -3T149 -11T139 -21T132 -28Q119 -38 107 -48T82 -68Q48 -93 8 -109Q2 -112 2 -108T7 -98Q14 -91 20 -86T34 -76T50 -64T73
-48Q83 -42 97 -33T124 -17T147 -4T159 0Z" />
<glyph unicode="6" glyph-name="six" horiz-adv-x="400" d="M304 563Q310 567 311 567T313 563T310 557T307 551Q284 520 256 485T200 408Q155 343 124 273T92 130Q92 87 119 61T189 26Q195 25 203 23T211 19Q211 15 201 15T185 14Q125 14 92 51T59 147Q59 181
68 217T94 291T133 364T181 434Q210 472 241 506T304 563ZM142 148Q142 111 158 100T210 88Q226 88 239 96T261 116T276 143T281 173Q281 178 280 184T275 195Q273 197 272 201T277 206Q283 206 287 201T295 187T299 171T301 158Q301 114 275 85T204 55Q162 55
135 77T108 144Q108 177 121 218T155 299T200 376T245 437Q250 443 252 442T251 430Q238 395 220 361T184 293T154 223T142 148ZM170 189Q165 184 163 185T163 193Q169 209 180 225T205 254T237 274T275 282Q304 282 326 270T363 239T385 194T393 142Q393 100 378
67T335 10T272 -25T195 -37Q109 -37 57 10T5 142Q5 202 24 257T75 364Q95 397 123 434T184 504T252 566T323 612Q330 615 332 614T329 607Q296 573 258 536T184 459Q154 424 127 387T81 310T50 228T38 141Q38 68 84 31T203 -7Q237 -7 266 4T316 35T350 84T363 145Q363
166 358 186T341 222T312 248T273 258Q256 258 242 252T214 236T191 214T170 189ZM271 221Q260 221 248 216T226 202T206 185T190 167Q188 164 185 161T181 167Q181 181 190 194T212 218T240 235T267 242Q302 242 321 218T340 160Q340 149 338 147T334 144Q333
144 329 159Q324 182 311 201T271 221Z" />
<glyph unicode="7" glyph-name="seven" horiz-adv-x="326" d="M318 588Q313 574 308 562T292 538Q288 534 281 530T268 524T256 522T251 526Q251 528 257 533T266 541Q271 546 277 550T288 559Q296 567 301 574T312 590Q317 598 318 595T318 588ZM281 570Q282
568 274 564Q243 552 211 555T145 564Q125 568 104 570T59 564Q52 562 58 570Q68 586 85 593T120 601T157 600T186 595Q209 590 233 585T274 574Q281 572 281 570ZM207 522Q207 519 204 518T200 516Q194 514 184 514T164 514T143 516T127 518Q119 519 106 519T78
518T49 512T27 499Q23 494 23 499T25 507Q31 521 41 530T62 546T84 555T103 558Q125 558 151 549T200 529Q201 527 204 526T207 522ZM310 425Q316 401 307 367T283 298T250 230T223 178Q206 142 184 106T147 41Q143 31 140 32Q137 33 137 37T137 45Q147 106 175
162T236 274Q256 308 274 345T304 426Q304 431 304 431T307 432Q308 430 308 429T310 425ZM248 462Q240 430 225 399T192 337T155 275T121 210Q109 184 100 154T88 94T88 34T105 -20Q108 -26 107 -27Q105 -28 104 -27T102 -24Q75 2 66 34T57 100T70 169T96 234Q125
294 159 348T219 455H196Q171 456 147 462T101 472T58 476T19 467Q15 465 15 468T18 474Q31 498 52 503T98 506T149 495T200 486Q231 484 263 501T318 563Q320 568 322 567T322 559Q307 511 285 489Q291 455 283 418T263 355Q243 313 215 272T160 193Q158 192 154
187T147 182Q145 184 146 190T149 199Q152 209 157 224T170 254T184 285T197 310Q203 321 212 339T230 380T249 425T264 470Q256 465 248 462ZM136 -33Q131 -32 128 -28L124 -24Q116 -13 110 -4T101 25Q100 35 101 49T106 76T112 97T119 105Q121 104 121 90T122
71Q122 59 122 46T125 22Q127 6 129 -2T136 -25Q138 -33 136 -33Z" />
<glyph unicode="8" glyph-name="eight" horiz-adv-x="421" d="M358 474Q360 454 356 434T342 396Q324 361 297 339T239 299T179 261T126 212L105 185Q104 185 104 188Q103 192 107 203T114 219Q124 244 144 265T188 304T236 340T280 377T310 420T318 474Q315 504
291 518T239 532T185 515T153 467Q149 450 152 431T163 395Q167 385 166 385Q163 384 155 392Q142 407 135 429T130 471Q132 501 149 521T190 552T242 562T295 553T337 523T358 474ZM279 258Q247 237 222 216T179 156Q169 135 170 120T180 99T205 97T245 119Q269
138 282 167T293 219Q291 230 288 239T279 258ZM366 111Q352 52 305 18T182 -17Q148 -17 119 -8T67 18T30 58T12 111Q8 145 17 177T44 239T87 294T140 342Q142 344 144 346T149 349Q123 371 108 401T92 463Q92 509 114 540T170 586T244 602T319 588T380 543T411
466Q417 410 389 360T312 277Q331 259 342 236T356 190Q360 155 344 122T299 66Q294 63 288 62T281 62Q281 66 285 72T295 84Q332 132 333 175T300 270L288 262Q298 249 303 234T311 206Q313 183 305 159T281 116T240 83T188 70Q165 70 152 77T134 97T128 123T134
151Q145 187 169 212T221 259T279 300T331 344T366 401T374 478Q370 509 350 530T302 563T242 574T181 562T134 526T112 466Q110 437 122 408T159 356Q177 367 196 378T231 403T257 433T270 470Q271 484 265 491T250 501T230 503T208 497Q196 492 196 494T197 500Q202
509 218 514T251 518T283 505T301 471Q302 456 297 440T282 409T260 380T234 359Q196 336 162 312T104 259T65 193T53 108Q54 84 65 65T94 32T137 11T190 3Q223 3 249 11T295 35T332 69T362 112Q365 117 366 118T366 111Z" />
<glyph unicode="9" glyph-name="nine" horiz-adv-x="395" d="M323 422Q323 403 322 386T315 351Q314 348 311 336T304 323Q302 323 302 329T303 337V364Q303 391 300 418T285 466T253 501T200 514Q171 514 151 503T117 472T97 428T90 377Q90 347 103 322T149 295Q151
295 154 294T158 290Q158 289 154 288T148 286Q125 283 109 292T83 317T67 354T62 393Q62 424 71 452T97 503T140 538T199 552Q259 552 291 517T323 422ZM373 310Q361 256 329 197T251 87T151 -1T41 -48Q34 -50 35 -47T42 -41Q147 4 222 91T336 293Q349 333 351
381T339 472T292 542T206 570Q170 570 141 556T91 517T59 462T48 395Q48 371 53 349T71 310T101 282T145 271Q168 271 185 277T222 292Q244 347 244 397Q244 412 242 426T235 450T218 467T189 473Q171 473 159 464T138 442T125 416T116 393Q115 391 114 388T111
384Q110 384 110 387T110 392Q110 413 116 432T133 467T161 491T200 500Q224 500 239 492T263 469T275 435T279 395Q279 354 266 311T231 226T182 148T129 81Q126 78 122 74T114 71Q112 73 114 76T119 84Q142 130 171 181T221 286Q203 273 177 265T133 256Q103
256 82 269T47 304T27 353T21 406Q21 446 34 481T72 544T131 587T206 603Q265 603 302 575T359 503T380 408T373 310ZM184 103Q184 98 177 86T160 62T141 38T126 23Q105 6 78 -9T19 -33Q17 -34 14 -34T10 -32L12 -30Q13 -29 15 -28T19 -24Q28 -18 40 -11T63 5T85
20T103 33Q123 47 138 63T170 97Q173 100 175 102T182 105Q184 104 184 104V103Z" />
<glyph unicode=":" glyph-name="colon" horiz-adv-x="207" d="M172 293Q160 289 147 290T122 296T103 307T91 319Q89 324 91 328T99 333Q109 333 116 332T131 330T147 330T167 335Q179 339 193 355T213 394Q215 398 218 398T224 393Q232 373 230 357T218 327T197
306T172 293ZM173 363Q159 352 146 353T119 362Q115 362 109 370Q108 372 110 375T114 379Q119 384 125 385T138 390Q147 396 152 404T160 420T167 431T176 434Q187 431 191 422T194 401T186 380T173 363ZM124 426Q129 431 136 433T145 433Q149 430 147 423T139
409Q134 404 129 403T119 404Q117 406 118 413T124 426ZM133 -20Q128 -20 118 -19T107 -9Q107 -6 116 -2T136 11T156 32T165 67Q165 93 155 106Q153 109 150 112T148 117Q150 117 152 116T156 113Q176 102 186 85T197 51Q197 19 182 0T133 -20ZM96 19Q84 14 84
25Q84 33 90 40T101 57T109 77T103 106Q101 111 96 117T93 124Q95 125 101 123T110 119Q127 111 135 95T144 67Q144 48 129 36T96 19ZM67 73Q67 78 70 84T80 91Q85 91 88 85T91 73Q91 69 88 63T80 56Q73 56 70 62T67 73Z" />
<glyph unicode=";" glyph-name="semicolon" horiz-adv-x="242" d="M185 23Q178 -4 159 -36T111 -88Q110 -89 105 -91T97 -92Q96 -91 97 -87T100 -80Q105 -67 116 -47T133 -13Q139 0 142 20T146 60T141 98T125 125Q124 125 124 127Q124 128 125 129Q127 131 133
127Q147 122 158 111T177 84T186 53T185 23ZM171 -114Q149 -142 121 -165T70 -199Q68 -200 65 -201T60 -200Q58 -198 60 -196T64 -191Q94 -153 124 -116T177 -33Q190 -7 197 22T195 85Q192 89 196 89Q195 89 200 86Q220 69 222 41T218 -16T197 -72T171 -114ZM10
-222Q10 -223 10 -223T9 -225V-226Q8 -227 8 -226Q5 -226 5 -224V-221Q3 -184 6 -157T16 -109T32 -73T52 -43Q65 -27 78 -6T98 38T104 85T90 130Q88 136 92 136Q95 136 96 135T99 133Q126 113 131 87T130 35T107 -17T75 -63Q54 -90 37 -129T10 -222ZM44 -199Q39
-210 36 -220T30 -244Q30 -246 30 -249T27 -252Q26 -252 24 -246L22 -240Q20 -223 20 -212T29 -181Q32 -174 37 -166T47 -150T57 -139T64 -136Q67 -139 65 -148T60 -162Q56 -171 52 -179T44 -199ZM200 288Q188 284 175 285T150 291T131 302T119 314Q117 318 119
322T127 327Q137 327 144 326T159 325T175 325T195 330Q207 335 221 350T241 389Q242 392 246 392T252 388Q260 368 258 352T246 322T225 301T200 288ZM201 358Q187 346 174 347T147 356Q143 356 137 364Q136 366 138 369T142 374Q147 378 153 379T166 385Q175
391 180 399T188 414T195 426T204 429Q215 426 219 417T222 396T214 374T201 358ZM152 421Q157 426 164 428T173 427Q177 424 175 417T167 404Q155 392 147 399Q145 401 146 407T152 421Z" />
<glyph unicode="&lt;" glyph-name="less" horiz-adv-x="455" d="M425 519Q423 502 414 487T393 458T368 434T342 419Q307 405 268 395T190 377Q189 377 183 377T175 379Q175 381 179 385T185 389Q199 398 223 411T266 430Q272 431 294 441T342 466T390 497T419
526Q421 527 422 528T425 529V519ZM421 556Q405 522 377 502T315 468T243 443T171 416Q129 396 92 360T40 270Q38 269 37 267T33 263Q34 299 46 328T76 381T118 420T166 448Q201 463 237 474T306 498T368 525T418 562Q421 562 421 562Q423 562 422 560T421 556ZM440
177Q440 175 439 174T437 170L434 167Q422 156 413 150T384 141Q376 140 366 140T348 141T333 145T329 151Q330 153 339 154T352 156Q363 158 372 159T390 162Q403 165 413 168T436 177Q440 179 440 177ZM385 174Q385 173 381 173T374 174Q332 182 293 201T216
244Q213 246 203 253T177 268T140 281T93 286L100 293Q135 328 183 346T282 382Q313 393 344 406T404 443Q406 447 408 445Q410 443 409 442T406 437Q400 416 378 398T328 366T272 341T227 323Q213 317 197 311T163 300Q180 296 197 289T231 274T262 257T286 244Q310
231 334 214T379 182Q386 178 385 174ZM116 345Q118 345 117 342T113 335T107 328T104 323Q97 313 90 305T78 289L74 282L51 274Q52 280 54 288T64 306Q69 313 77 321T94 336T108 346T116 345ZM429 144Q402 119 375 108T323 96T275 100T230 118Q201 133 175 151T122
185T71 212T18 223Q10 223 14 226T19 229Q51 241 80 234T138 212T194 177T251 142Q269 133 290 127T334 120T380 125T426 147Q432 151 431 148T429 144ZM275 171Q273 168 268 168T262 171Q247 173 225 183T190 203Q186 206 167 215T125 232T78 246T42 248Q38 246
38 249Q40 251 41 252T44 255Q57 265 72 269T104 274T134 272T159 263Q187 247 215 226T267 182Q269 181 273 177T275 171Z" />
<glyph unicode="=" glyph-name="equal" horiz-adv-x="529" d="M377 364Q339 366 300 371T226 385Q223 385 219 387T214 392Q214 394 218 395T225 397Q242 400 268 402T312 401Q318 401 342 402T394 406T449 415T485 430Q489 432 489 432H490Q492 430 491 428T489
422Q481 408 467 397T437 379T405 368T377 364ZM237 321Q206 321 173 325T112 332Q109 334 106 334T104 336Q103 339 106 340T112 341Q160 357 208 357T308 353Q340 351 373 350T443 360Q444 362 445 360Q445 357 443 355Q428 338 401 331T344 321T284 320T237
321ZM48 341Q47 340 45 338T42 338Q42 341 43 342Q43 343 44 344Q59 378 80 400T125 436T176 454T230 460Q266 460 302 457T373 451T439 450T499 463Q500 463 501 464T503 462L499 458Q473 432 441 425T372 417T298 423T222 427Q200 427 176 422T129 407T85 381T48
341ZM90 347Q71 334 53 311Q52 310 50 309T48 310V318Q48 320 49 321Q57 336 62 347T85 369Q92 374 103 378T124 385T141 388T148 385Q149 382 139 376T127 369Q117 362 109 358T90 347ZM378 171Q341 174 303 182T229 201Q227 203 222 204T216 208Q216 211 221
212T229 214Q237 215 248 216T272 217T295 217T316 214Q322 213 346 212T399 212T455 217T493 229Q495 232 497 232T499 232Q499 230 497 228T495 223Q486 209 471 199T440 183T407 173T378 171ZM237 137Q205 139 171 145T112 156Q109 158 106 159T103 162Q103
163 106 164T112 166Q160 178 209 174T311 163Q342 158 374 157T444 163Q445 166 448 163Q448 162 446 161T444 158Q429 142 401 136T342 130T283 133T237 137ZM48 169Q46 167 45 167Q44 166 42 166V167Q42 168 43 169Q43 170 44 171Q61 204 83 225T130 257T183
271T237 274Q274 272 310 267T381 257T447 253T506 263Q510 263 510 260Q511 260 510 259T506 258Q477 234 444 228T376 225T303 235T229 244Q206 245 182 242T134 229T88 206T48 169ZM90 173Q80 165 71 157T52 138Q47 136 47 137V145Q47 147 48 148Q56 162 62
173T88 193Q94 197 105 201T126 207T143 210T151 207Q151 202 142 198T129 192Q108 180 90 173Z" />
<glyph unicode="&gt;" glyph-name="greater" horiz-adv-x="488" d="M438 316Q437 314 433 315T426 318Q379 335 339 366T260 433Q237 455 211 476T149 511Q147 511 147 512Q148 515 152 516Q174 520 201 509T253 480T302 444T340 414Q365 394 390 370T433 326Q435
323 437 321T438 316ZM478 273Q474 256 464 241T440 214T412 193T384 181Q349 168 307 161T229 153Q224 152 220 152T214 153Q212 157 216 160T223 163Q230 167 241 172T264 182T288 191T308 197Q315 199 338 207T389 227T441 251T473 278Q476 283 478 282T478
273ZM315 342Q313 340 309 341T303 345Q287 353 264 368T229 396Q224 400 204 414T158 444T109 472T71 485Q69 483 67 484T64 488L73 492Q88 499 106 499T141 495T174 483T200 466Q227 443 256 414T310 355Q312 353 314 349T315 342ZM477 310Q458 277 428 260T361
232T286 213T211 193Q189 186 167 174T125 144T89 104T64 55Q62 49 62 49Q60 49 60 51T60 55Q65 92 79 120T113 168T158 203T211 226Q242 237 274 243T337 258Q315 264 297 275T260 300Q230 323 203 348T149 396T96 437T40 466H38Q36 466 37 467Q36 469 39 469T44
470Q80 473 111 459T170 421T227 371T285 321Q300 310 316 300T350 283T385 275T422 282Q413 283 404 286T386 292T374 300T371 307Q373 310 385 309T403 307Q421 304 438 304T470 311Q472 313 477 315T477 310ZM453 199Q453 198 453 197T452 195Q451 193 451 192Q442
170 417 155T363 128T305 110T259 96Q228 85 193 79T132 66Q122 66 119 67Q119 70 122 72T129 77Q171 106 219 120T319 148Q351 156 384 166T449 199Q453 200 453 199ZM151 129Q152 127 150 123T145 116T139 109T136 105Q126 97 119 90T105 74Q98 63 92 53T79 34Q79
32 77 31T77 32Q75 34 75 39V42Q75 53 78 64T95 93Q100 99 109 106T127 120T142 129T151 129Z" />
<glyph unicode="?" glyph-name="question" horiz-adv-x="330" d="M263 563Q260 524 241 496T203 445Q201 443 195 437T186 432Q183 433 187 440T193 452Q211 481 221 515T228 580T202 631T132 655Q106 656 86 648T51 628T30 602T26 580Q28 574 28 573T26 572T22
575T19 580Q15 587 15 598T19 623T32 648T55 671Q87 694 125 694T194 679T246 632T263 563ZM267 422Q233 375 195 334T138 260Q136 256 134 253T130 251Q127 252 128 256T132 266Q141 301 162 335T208 404Q220 420 233 438T258 478T275 526T278 582Q274 622 249
651T190 696T115 709T41 685Q35 680 34 681Q32 685 37 690Q48 706 74 717T134 729T204 717T273 670Q289 653 298 633T310 592T314 551T310 514Q299 482 287 460T267 422ZM127 203Q135 204 133 202L130 199Q111 191 91 199T60 234Q51 260 52 287T62 338Q69 362 79
383T102 425T126 463T148 497Q174 539 177 563T147 607Q128 614 110 613T78 603T57 582T52 553Q53 547 50 550T45 555Q34 573 41 592T67 624T111 642T162 633Q188 620 198 601T208 561T195 515T167 469Q144 439 125 403T88 325Q80 305 79 282T82 240T98 209T127
203ZM115 242Q120 227 128 224T142 221Q147 221 148 219T144 215Q140 214 133 212T119 211T104 218T92 238Q88 250 91 268T101 302T115 330T126 340Q127 339 127 334T124 322T120 309T118 299Q115 281 113 269T115 242ZM104 5Q82 1 60 7T33 23Q31 26 33 30T41 34Q50
34 56 33T68 32T81 32T100 37Q111 41 123 54T141 88Q141 91 145 91T151 88Q158 70 156 56T145 32T126 14T104 5ZM105 60Q93 51 81 52T58 60Q56 60 54 62T49 67Q48 69 49 71T53 75Q58 78 63 79T74 85Q82 90 86 97T94 111T100 120T108 123Q118 120 121 112T123 94T116
75T105 60ZM62 115Q67 120 73 122T81 122Q84 119 82 113T75 101Q71 97 66 96T58 96Q56 98 56 104T62 115Z" />
<glyph unicode="@" glyph-name="at" horiz-adv-x="738" d="M523 92Q502 92 489 104T470 134T461 172T458 208Q458 218 460 238T465 281T472 322T480 351Q482 351 482 348T482 344Q482 316 481 289T480 234Q480 224 481 206T487 170T500 139T523 126Q540 126 555
140T584 178T608 229T627 286T639 338T643 377Q643 423 629 456T588 511T526 543T445 553Q392 553 343 536T256 498T193 460T164 443Q162 443 164 445T167 449Q170 454 179 462T193 475Q247 526 317 556T462 586Q567 586 623 528T680 364Q680 344 676 316T663 258T641
198T611 145T571 107T523 92ZM526 142Q524 142 525 144T526 149Q526 151 530 158T537 169Q568 212 585 264T603 369Q603 442 561 472T449 503Q421 503 398 497T352 482T309 459T266 432Q199 390 163 330T127 190Q127 148 136 119T159 71T185 42T207 26Q218 17 215
17T201 22Q147 53 124 99T100 212Q100 281 129 340T207 443T318 512T447 537Q486 537 519 528T577 500T615 451T629 379Q629 337 617 292T585 210Q582 204 575 193T560 171T542 151T526 142ZM230 166Q230 136 250 118T300 99Q315 99 332 106T366 123T397 146T422
169V188Q422 229 429 272T449 355Q426 339 397 319T343 273T300 220T282 160Q282 152 287 150T300 148Q314 148 325 153T349 159Q351 159 352 159T355 158Q344 147 327 135T293 123Q273 123 263 139T253 174Q253 201 265 226T297 275T341 318T388 354T432 381T464
396Q469 397 471 395T471 382Q463 337 454 292T444 200Q444 182 448 161T461 122T486 91T523 79Q551 79 575 95T618 136T652 194T677 260T692 323T697 375Q697 434 679 477T628 550T549 593T447 608Q365 608 291 578T159 494T68 368T34 212Q34 147 57 97T120 12T215
-40T333 -58Q356 -58 379 -56T426 -47Q440 -43 442 -43T445 -44Q445 -46 442 -49T426 -57Q403 -65 368 -69T304 -74Q239 -74 184 -53T89 6T27 97T4 216Q4 244 6 271T16 325Q32 393 75 450T176 550T304 616T441 640Q505 640 558 624T649 576T708 494T729 377Q729
338 716 283T678 176T614 89T527 53Q489 53 465 76T430 133Q399 105 361 86T281 67Q260 67 245 77T219 102T203 136T197 173Q197 229 219 276T277 360T358 419T452 449Q460 451 468 451T484 449Q486 449 488 448T490 443Q487 431 467 418T417 389T355 352T295 304T249
243T230 166ZM432 -26Q423 -31 411 -34T386 -40T364 -43T348 -44Q316 -44 283 -39T218 -22T159 7T112 49Q105 58 98 70T84 95T74 123T70 148Q70 149 70 150T71 152Q82 129 93 106T122 64Q167 16 225 -2T348 -20Q388 -20 426 -14Q431 -14 438 -13T447 -14Q448 -15
444 -18T432 -26Z" />
<glyph unicode="A" glyph-name="A" horiz-adv-x="620" d="M347 716Q345 719 342 725T340 734Q342 736 346 733T352 729Q370 716 385 693T413 643T436 585T452 528Q467 462 477 398T488 266Q488 264 488 254T485 242Q482 244 479 252T474 263Q462 300 453 347T435
434Q429 464 424 491T413 545T398 597T377 653Q375 657 371 667T361 687T352 705T347 716ZM587 -25Q576 -19 572 -18T557 -9Q533 5 513 27T477 77T449 134T427 195Q407 182 380 180T329 177Q300 177 272 179T214 181Q186 129 162 81T123 -10Q123 -11 122 -14T119
-18Q116 -18 116 -11T116 -2Q116 38 135 87T179 185L164 186Q158 172 148 147T128 95T111 43T103 3Q103 0 100 0Q96 0 94 6T91 21T89 37T88 49Q88 84 97 122T121 193L108 195Q99 173 91 152T77 107Q77 105 76 102T73 100Q71 104 71 109T70 119Q70 161 85 200Q90
210 95 210Q116 216 137 217T182 218Q232 218 281 211T379 203Q403 203 423 207L421 223Q410 220 398 219T374 218Q335 218 294 226T214 245Q212 247 206 248T200 253Q200 255 206 256T214 258Q228 259 241 259T269 260Q292 260 315 260T362 259Q374 259 387 259T412
260L410 271H397Q349 271 302 280T206 289Q165 289 134 279T80 256T43 230T23 211Q21 210 21 210Q20 210 20 212Q20 213 21 214Q39 249 65 272T129 308Q167 389 207 469T293 627Q294 629 297 633T303 638Q304 637 304 636V634Q304 626 303 622Q284 541 247 466T171
318L190 319Q193 325 205 345T232 386T259 425T274 443L275 440Q275 435 269 418T255 381T240 344T229 319Q235 319 241 319T253 318Q271 354 291 393T327 474T347 557T341 640Q341 635 339 620T332 589T324 560T316 547Q313 547 313 551T314 556Q314 582 317 607T321
659Q321 694 310 727Q310 728 307 735T309 743Q311 743 316 738Q326 728 335 711T353 675T368 636T379 604Q392 561 400 518T415 431T429 343T445 256Q454 214 466 174T497 98T538 32T593 -22Q598 -27 597 -28T587 -25ZM585 60Q586 54 584 54T580 58T575 65T572
70Q548 114 534 159T512 251T499 345T486 442T466 543T432 647Q431 649 429 654T429 660Q431 660 434 657L438 653Q460 627 477 584T507 492T528 395T542 311Q550 254 559 191T582 72L585 60ZM288 314Q317 311 345 307T403 301Q392 354 384 406T369 512Q356 460
334 411T288 314ZM617 -14Q597 -5 582 3T556 27Q539 50 530 73T514 116Q512 124 511 134T511 144Q515 144 521 131T532 109Q547 78 570 47T620 -5Q628 -12 625 -14T617 -14ZM26 178Q26 178 24 178H23Q23 181 24 184T26 190Q34 207 41 215T66 234Q76 240 94 246T123
252Q125 252 128 252T132 248Q132 245 122 240T108 233Q70 210 52 198T26 178Z" />
<glyph unicode="B" glyph-name="B" horiz-adv-x="506" d="M64 -16Q57 -23 55 -22Q53 -21 55 -18T58 -12Q66 -3 70 1T81 11Q57 43 46 79T33 155T36 234T51 312Q69 387 92 458T132 596Q100 590 75 580T41 558Q38 553 36 554T37 563Q45 580 66 593T114 616T172 630T233
634Q298 632 341 609T386 541Q386 513 367 485T320 433T261 389T208 358L204 344Q219 357 244 365T296 373T350 364T397 333Q424 303 431 265T427 189Q416 152 390 129T337 93Q334 91 326 89T316 89Q315 91 321 96T330 104Q357 122 376 153T399 217T392 282T345
330Q331 337 308 340T262 343T220 332T192 304Q210 315 233 321T279 327T324 318T359 292Q376 271 378 248T374 203T350 162T312 130Q284 113 250 97T182 63T117 26T64 -16ZM184 270Q166 225 155 180T129 96Q124 83 122 84Q119 85 119 89T119 99Q122 175 141 249T182
400Q196 447 208 496T223 603H206Q207 576 205 550T197 504Q183 450 163 392T121 282Q120 280 117 273T110 266Q108 267 108 275T108 286Q109 298 112 316T119 353T127 390T136 421Q137 426 141 444T151 487T161 542T171 600Q163 600 159 599Q154 562 145 524T123
447T99 370T78 292Q70 259 66 223T62 152T68 82T87 17L96 26Q93 33 90 43T85 67Q83 78 83 95T83 128T86 155T92 166Q93 166 94 161T97 149T99 136T100 127Q101 118 102 107T104 84T107 61T112 41Q135 62 161 78T212 109T262 136T304 162Q335 183 344 215T333 274Q320
291 298 298T252 304T209 293T184 270ZM343 423Q345 422 339 413T330 399Q364 404 390 423T433 468T453 526T447 590Q437 622 414 644T361 680T296 700T226 706T159 699T103 682Q98 680 98 680T96 681Q95 684 101 688Q126 710 164 721T245 732T331 721T408 686T465
626T490 540Q491 510 482 486T458 442T424 410T383 387Q416 372 440 341T474 278Q486 237 480 200T458 133T423 82T389 51Q360 32 330 22T271 6T216 -2T168 -5Q152 -7 152 -4Q151 -2 157 -1T169 2Q208 9 246 21T323 53Q342 63 362 76T400 108T430 150T447 201Q452
236 446 270T412 337Q386 368 358 379T296 388Q288 388 288 389Q288 391 299 396T313 403Q322 409 332 417T343 423ZM355 537Q355 569 321 583T227 603Q234 572 236 546T236 495T227 442T212 381Q233 391 258 411T304 454T340 499T355 537ZM217 690Q251 692 294
683T373 652Q391 641 403 625T421 592T429 556T425 523Q424 521 423 518T420 511T416 505T412 503Q409 503 409 510T412 525Q417 553 408 574T379 609T335 633T284 647T232 652T189 651Q164 648 140 642T94 627T58 610T37 593Q31 585 30 588Q30 591 32 597Q39 617
58 633T102 662T157 681T217 690ZM168 16Q135 3 116 -7T77 -33Q75 -34 73 -37T69 -39Q67 -38 69 -34T73 -27Q83 -13 99 0T144 26Q154 30 166 34T190 42T209 46T219 44Q220 42 213 38T197 30T180 21T168 16Z" />
<glyph unicode="C" glyph-name="C" horiz-adv-x="490" d="M281 42Q317 48 350 64T411 105Q413 106 419 112T427 116Q429 114 426 110T421 103Q401 74 369 56T301 26Q272 18 239 20T177 37Q168 41 166 43T166 47T172 48T181 47Q192 45 206 44T235 42T262 41T281
42ZM147 336Q142 301 142 268T146 205T160 152T184 114Q200 98 223 90T274 81T332 89T393 114Q399 118 401 116Q403 114 400 112T393 107Q367 87 338 75T280 60T223 63T173 88Q152 106 139 131T120 187T112 251T114 316Q118 367 134 419T176 515T240 592T323 638Q346
644 370 643T414 634T450 611T470 573Q475 549 466 527T441 488T405 464T367 464Q366 464 366 467T369 469Q381 467 396 474T424 495T444 526T449 563Q446 577 437 587T412 604T379 613T340 611Q302 604 270 578T212 513T170 429T147 336ZM226 5Q237 4 248 4T260
1Q260 0 256 0T248 -1T238 -1T232 -1Q201 -1 171 8T116 33T70 74T40 129Q20 190 17 248T22 362Q26 394 37 434T68 517T117 600T188 675Q231 711 283 723T384 727T469 694T518 629Q519 627 520 621T519 612Q518 611 516 617T512 625Q470 682 417 697T312 701T214
655T141 580Q94 509 70 429T47 264Q48 225 55 182T85 100Q107 60 145 34T226 5ZM82 381Q90 434 107 484T153 575T224 647T323 689Q343 693 368 693T418 684T464 658T500 611Q513 582 509 554T492 504T460 466T423 449Q412 447 411 449T422 456Q441 462 460 486T484
549Q486 568 479 586T459 619T428 643T390 656Q347 662 311 650T249 620T206 583T185 559Q154 520 131 475T93 379Q93 378 92 372T89 360T85 348T82 342Q80 342 80 348T80 360T81 373T82 381Z" />
<glyph unicode="D" glyph-name="D" horiz-adv-x="586" d="M497 348Q496 345 494 340T488 330T482 321T478 318Q478 318 479 323T481 334T484 345T486 353Q501 433 486 491T436 586T349 641T240 660Q199 660 160 654T88 637T33 615T4 592Q-3 580 0 595Q8 621 42
643T123 679T219 697T311 692Q338 686 365 675T416 649T461 612T496 562Q523 508 523 451T497 348ZM562 355Q543 299 512 254T444 174T370 112T299 68Q289 63 282 60T275 59Q273 60 280 65T296 77Q352 122 404 172T499 286Q520 319 531 358T542 440T531 523T495
599Q463 645 418 672T320 709T213 716T107 697Q99 695 98 694T95 695Q94 697 98 699T105 703Q127 715 162 725T241 737T335 730T436 693Q491 663 521 617T564 523T574 429T562 355ZM127 12Q122 20 115 37T103 79Q101 91 101 106T101 134T104 157T110 166Q111 166
112 161T115 148T117 135T118 125Q120 99 124 73T138 23Q173 66 218 110T306 199T384 293T436 392Q447 427 441 465T415 534Q396 564 361 584T284 612Q267 615 251 617T216 619Q219 604 219 587T219 552T216 520T211 492Q197 438 178 384T138 279Q136 276 133 270T127
263Q125 263 125 271T126 282Q127 294 130 311T136 347T144 382T152 412Q154 418 159 441T171 494T182 557T190 619H178Q176 580 167 539T146 457T120 373T96 289Q94 280 91 258T85 209T83 151T87 93T101 43T127 12ZM459 363Q437 311 399 263T315 171T223 86T136
10Q128 3 116 8T97 22Q76 50 66 85T54 157T56 233T70 308Q90 391 115 468T153 616Q99 610 57 592T0 547Q0 545 -1 545T-1 553Q7 581 38 601T112 633T204 647T301 641Q352 632 389 603T448 534T473 449T459 363ZM244 590Q256 564 254 522T242 435T222 347T204 279Q192
231 175 183T147 99Q142 85 140 85Q137 85 137 90T137 101Q140 175 158 247T199 393Q212 438 224 487T238 590Q238 597 240 598Q241 598 242 595T244 590ZM363 175Q364 174 359 167T347 152T332 135T321 123Q300 102 279 81T234 44L144 -13Q142 -14 139 -15T133
-15Q131 -14 131 -12T133 -8Q134 -6 136 -4Q153 8 174 26T219 63Q236 76 259 96T305 134T344 164T363 175Z" />
<glyph unicode="E" glyph-name="E" horiz-adv-x="464" d="M475 693Q482 698 481 694T478 686Q469 672 455 662T424 646T391 637T363 634Q332 634 299 640T233 653Q231 653 226 655T221 659Q219 662 224 664T232 666Q239 668 250 669T275 672T299 673T319 673Q341
671 364 671T409 673T447 680T475 693ZM489 726Q494 728 492 725T489 721Q463 698 432 692T368 687T299 693T227 696Q206 695 183 688T140 669T103 637T77 592Q75 588 75 588T74 589T73 592T73 595Q79 631 95 656T133 696T181 719T233 727Q269 728 303 725T370
718T433 715T489 726ZM160 648Q162 645 154 638T142 629Q134 623 127 618T114 604Q106 595 101 586T90 566Q88 559 86 559Q85 559 85 566V573Q87 588 91 600T105 625Q109 631 118 636T137 646T153 651T160 648ZM430 626Q435 628 435 626T432 621Q419 606 395 599T342
590T287 588T241 589Q247 569 247 541T242 480T230 414T216 352Q243 350 269 347T319 342T365 341T408 351Q413 353 413 350T411 345Q387 321 358 315T297 311T232 318T166 322Q145 321 124 315T84 297T48 268T21 226Q20 222 18 222Q16 222 16 225T17 231Q22 260
34 279T63 312Q80 384 101 456T137 592Q136 592 131 592T125 595Q125 597 128 599T134 603Q176 623 220 624T310 622Q339 620 368 618T430 626ZM210 589Q211 564 210 542T204 503Q195 467 184 428T159 352Q163 353 168 353T178 353L193 400Q207 444 218 491T233
589H210ZM167 590Q159 530 138 467T100 338Q108 341 114 343T127 348Q132 368 137 386T147 419Q149 425 154 442T165 483T177 535T186 590H167ZM399 318Q404 322 404 318T401 311Q393 297 381 286T354 269T326 259T300 256Q269 258 235 264T170 278Q168 279 164
280T159 285Q158 287 162 289T169 292Q176 294 186 295T208 297T230 298T248 296Q266 294 287 294T330 297T370 305T399 318ZM421 130Q423 131 423 129Q423 127 422 125Q400 101 374 95T318 90T259 98T200 104Q163 105 125 87T60 25Q57 21 56 21Q55 21 55 24T56
28Q60 39 63 45T71 59Q57 87 51 115T44 175Q44 198 48 209T75 232Q113 252 156 252T242 247Q270 244 298 243T356 251Q361 253 360 250T357 244Q344 228 321 222T272 215T222 214T184 214H178Q171 190 164 169T149 127Q164 132 177 134T206 136Q235 135 264 130T320
122T373 118T421 130ZM144 215Q138 216 126 217T98 217Q88 216 81 209T73 192Q71 162 74 135T84 78L96 93Q95 105 95 119T96 144T100 163T105 170Q107 170 108 165T110 154T111 142T112 133Q113 127 113 122T115 110Q120 113 124 116T133 121Q134 166 144 215ZM414
97Q414 94 412 90Q406 76 395 66T371 48T345 38T321 34Q286 34 258 42T201 60Q199 61 195 63T190 68Q189 70 194 72T201 74Q207 75 216 75T236 76T257 76T274 75Q291 74 311 74T349 75T384 83T410 97Q413 100 414 97ZM103 277Q103 274 97 268T82 255T66 242T56
234Q48 226 41 219T29 200Q24 191 24 197T25 207Q27 215 31 228T49 255Q55 260 63 265T80 274T95 279T103 277ZM377 29Q378 25 374 23Q362 13 341 9T295 2T247 0T210 0Q185 0 158 3T110 12Q108 13 105 13T101 16Q101 18 104 19T110 22Q148 34 187 33T267 26Q292
22 317 20T371 29Q377 31 377 29ZM140 63Q140 60 134 56T119 46T104 37T93 30Q85 23 79 18T67 5Q62 0 60 0H59V1Q59 1 59 3Q64 18 69 28T89 49Q95 53 103 57T119 64T133 67T140 63Z" />
<glyph unicode="F" glyph-name="F" horiz-adv-x="359" d="M11 229Q8 222 8 226T8 233Q15 272 36 296Q40 330 50 368T73 446T96 522T116 592Q93 592 72 595Q64 597 64 597Q63 600 71 604Q110 624 155 625T245 623Q274 621 303 620T364 629Q369 630 369 627Q369
625 366 622Q355 609 338 603T299 593T257 590T216 590Q221 566 220 535T215 469T203 401T188 338Q226 333 260 331T323 344Q326 345 326 343Q326 340 325 338Q307 314 284 307T236 300T184 307T132 312Q100 312 67 294T11 229ZM108 103Q109 128 111 155T118 208Q114
209 100 211T71 215Q58 216 55 212T50 195Q45 144 54 94T84 4Q86 1 85 -1T81 0Q48 40 36 80T22 167Q21 187 30 204T60 230Q93 244 126 242T195 236Q216 234 239 233T286 242Q289 244 290 243Q291 242 290 240T288 236Q279 220 262 213T224 204T185 203T152 204Q143
174 133 148T116 100Q112 87 110 88Q108 89 108 93T108 103ZM15 593Q13 586 12 589T11 596Q16 632 32 657T70 697T118 720T170 729Q205 730 239 727T305 720T367 717T423 727Q426 728 426 726L423 722Q397 699 366 693T302 688T233 694T164 697Q142 696 119 689T76
670T40 638T15 593ZM306 633Q274 635 238 641T169 655Q167 655 162 657T156 662Q156 664 160 665T167 667Q174 669 184 670T206 673T229 674T248 674Q263 673 286 673T334 675T378 682T410 695Q415 700 415 696Q415 694 414 692T411 688Q403 674 390 664T362 646T333
635T306 633ZM241 245Q215 247 188 254T134 270Q133 270 130 272T126 277Q126 279 131 281T141 284Q149 286 164 287T192 287Q208 285 227 285T263 286T294 295T315 310Q316 313 319 313H320Q321 311 321 308T319 303Q308 274 284 259T241 245ZM125 425Q126 430
131 446T144 486T157 536T167 590H144Q136 527 114 462T73 329Q81 333 88 336T104 341Q109 363 114 385T125 425ZM178 497Q167 455 158 420T133 344H136Q139 344 142 344T151 342Q155 358 160 372T170 404Q182 446 192 488T206 590H186Q186 567 185 541T178 497ZM96
71Q99 54 104 38T115 4Q116 2 116 -1T115 -5Q113 -5 110 -3T105 1Q93 16 86 29T73 71Q71 82 71 99T71 132T74 159T81 170Q82 170 83 165T86 154T87 141T88 132Q90 115 91 100T96 71ZM52 606Q44 596 38 587T26 566Q25 564 23 564T22 573Q24 590 27 601T44 626Q49
632 58 637T75 647T89 652T97 649Q98 646 91 639T79 630Q63 618 52 606ZM16 199Q14 195 12 197Q11 198 12 207Q16 221 21 232T37 255Q41 259 49 263T65 269T78 272T81 270Q75 262 66 253T47 234T29 215T16 199Z" />
<glyph unicode="G" glyph-name="G" horiz-adv-x="490" d="M147 333Q142 298 142 265T147 203T161 151T186 111Q205 91 235 83T304 79Q314 118 327 154T353 224T375 291T384 356Q384 359 385 359Q386 359 387 356T389 352Q401 315 397 278T380 201T351 122T325
38Q320 19 319 -6T322 -58T338 -111T371 -157Q372 -159 374 -161L375 -162Q375 -162 372 -162Q371 -162 370 -161Q343 -143 326 -120T300 -73T290 -24T292 21Q262 14 233 19T178 37Q173 39 168 45T163 52Q163 52 178 50T213 45T252 41T281 40Q284 41 287 41T296
44Q296 49 297 53T300 63Q265 55 232 61T173 89Q152 107 140 132T121 188T113 250T115 315Q119 366 135 418T177 514T240 591T323 637Q344 643 368 642T413 633T449 611T469 574Q474 550 465 528T440 489T404 465T366 466Q359 468 363 470Q365 471 366 470T369
469Q381 467 396 474T423 494T443 524T448 560Q445 575 436 586T411 604T378 613T338 611Q301 604 269 578T212 513T170 427T147 333ZM226 3Q240 1 242 0T227 -1Q199 -1 171 8T117 33T72 74T42 127Q20 190 16 247T21 363Q26 394 37 434T67 516T116 599T186 674Q229
710 282 721T383 725T468 691T517 625Q518 623 520 617T520 610Q518 609 516 614T509 625Q467 682 414 697T310 700T213 655T140 580Q93 511 70 430T48 264Q49 223 57 181T86 99Q106 60 145 34T226 3ZM84 382Q91 434 108 484T153 576T224 647T323 689Q342 693 366
693T415 684T461 658T497 611Q510 582 507 554T491 503T460 465T423 448Q420 447 416 447T411 450Q411 452 412 452T423 455Q430 458 439 465T457 485T473 513T482 548Q484 568 477 586T457 618T425 643T388 656Q329 665 281 641T196 574T134 479T96 379Q96 378
94 372T90 359T87 347T84 341Q83 341 83 346T82 359T83 373T84 382ZM427 29Q421 7 410 -26T389 -88Q386 -96 384 -96Q380 -96 380 -93T379 -87Q376 -60 378 -36T386 13T400 61T418 112Q430 147 440 180T452 256Q452 261 452 261T455 262L458 256Q468 235 467 204T458
140T442 77T427 29ZM430 188Q416 150 399 109T364 30Q363 29 361 24T355 19Q353 20 353 25T353 34Q353 43 355 56T360 83T366 110T374 132Q376 138 383 164T397 222T408 284T408 329Q406 334 408 336Q410 336 411 334T415 329Q424 315 429 297T435 259T436 221T430
188ZM371 -107Q383 -132 400 -154Q403 -157 401 -159Q398 -161 395 -159Q393 -158 392 -157Q378 -149 369 -141T351 -110Q348 -102 346 -90T342 -66T341 -46T345 -39Q350 -39 353 -51T358 -66Q362 -77 364 -87T371 -107Z" />
<glyph unicode="H" glyph-name="H" horiz-adv-x="571" d="M369 232Q326 236 281 243T195 262Q193 263 186 265T179 269Q179 272 186 273T195 274Q215 276 246 276T297 274Q316 271 341 269T393 268T443 273T486 285Q494 288 504 297T519 315Q487 294 448 289T367
287T281 296T195 304Q168 305 140 302T85 290T36 266T0 229Q-2 224 -2 227T-1 233Q7 273 36 293T101 325Q114 379 131 432T162 535T186 632T195 723Q196 725 196 727T197 729Q199 730 199 727T200 722Q213 678 210 631T196 534T168 435T137 333L163 336Q168 359
173 383T185 425Q187 431 191 449T201 494T211 550T220 608T224 659T222 695Q222 704 223 704Q225 704 227 702T230 697Q241 680 246 656T253 606T253 553T245 508Q233 466 219 422T189 336H206H211Q215 353 221 370T232 404Q245 451 258 500T273 607Q273 612 274
612Q276 612 276 610T278 606Q287 584 287 550T280 479T265 403T247 333Q284 330 318 325T388 316Q401 370 417 422T448 524T472 621T481 711Q481 716 483 716Q485 716 486 714T487 711Q500 666 497 618T481 519T452 418T421 314Q427 312 433 313T447 314Q451 339
458 365T471 411Q473 417 477 435T487 480T497 536T506 594T510 646T508 682Q506 689 509 690Q511 691 513 689T516 684Q527 667 533 643T540 593T540 541T532 496Q520 451 504 405T471 314L496 318Q501 335 507 353T518 390Q532 438 544 487T559 593Q559 598 559
598T560 599Q562 599 564 593Q576 566 573 523T561 434T540 344T522 274Q511 226 494 175T464 86Q461 74 456 74Q454 75 454 80T455 90Q457 133 463 175T481 263Q456 246 424 238T369 232ZM169 103Q171 151 178 197Q161 199 145 201T112 207Q108 153 115 101T145
4Q147 0 147 0Q147 -5 141 0Q101 44 90 98T82 211L60 215Q55 215 52 217T48 221Q48 223 52 224T59 226Q116 238 173 235T289 225Q326 221 364 218T444 225Q448 226 449 224Q449 223 445 219Q428 203 399 197Q394 143 400 91T430 0Q433 -3 430 -3Q429 -3 428 -2T425
0Q406 16 395 37T377 84T370 136T369 192Q348 190 326 190T283 191T243 193T210 196Q202 169 193 145T178 100Q176 95 174 91T170 88Q168 88 168 93T169 103ZM442 58Q447 39 451 24T462 0Q463 -1 464 -2T463 -5Q459 -5 452 0Q441 8 433 18T419 58Q417 70 417 87T418
119T421 146T427 156Q429 156 430 151T432 140T433 128T434 119Q436 102 437 87T442 58ZM156 71Q162 35 175 4Q177 -3 176 -3Q171 -3 165 3Q152 18 146 30T134 71Q132 82 132 99T132 132T135 159T141 170Q142 170 143 165T146 154T148 141T149 132Q151 115 152
100T156 71ZM34 232Q21 225 16 220T4 207Q0 202 0 204T0 209Q4 224 10 233T30 253Q37 259 49 263T74 268T95 270T104 266Q104 263 93 258T78 251Q66 246 55 242T34 232Z" />
<glyph unicode="I" glyph-name="I" horiz-adv-x="262" d="M204 508Q190 454 170 396T127 286Q126 284 123 277T116 270Q114 270 114 278T115 290Q116 302 119 320T126 357T134 394T142 425Q144 431 148 449T158 494T169 550T179 608T184 659T181 695Q179 699 180
701T182 704Q184 704 185 702T188 697Q199 680 205 656T212 606T212 553T204 508ZM195 286Q183 238 166 188T136 100Q134 95 132 91T129 88Q127 88 127 93T126 103Q129 178 147 253T189 404Q203 451 214 500T230 607Q230 612 233 612Q234 612 235 610T237 606Q248
579 246 536T234 446T213 356T195 286ZM103 4Q106 -2 105 -2Q103 -2 101 -1T98 0Q70 33 57 71T42 151T44 234T59 316Q72 371 89 425T120 531T144 631T153 723Q153 728 155 729Q156 729 157 726T159 722Q173 674 168 623T149 517T116 407T85 296Q77 261 73 223T69
147T79 72T103 4ZM114 71Q119 39 134 4Q135 2 135 -1T134 -4Q132 -4 128 -2Q126 -1 125 1Q112 16 105 29T92 71Q90 82 90 99T90 132T93 159T100 170Q101 170 102 165T105 154T106 141T107 132Q109 115 110 100T114 71Z" />
<glyph unicode="J" glyph-name="J" horiz-adv-x="341" d="M364 693Q362 679 352 668T327 650T298 638T269 633Q253 633 232 637T191 647T158 659T144 670Q144 672 148 673T158 675T172 676T184 676Q204 676 228 674T273 673Q289 673 300 674T320 677T339 683T360
693Q362 695 364 693ZM374 725Q374 715 365 708T343 697T317 690T296 687Q259 687 221 695T146 703Q102 703 67 683T12 625Q10 622 7 622T6 627Q22 676 57 705T148 734Q190 734 231 725T315 715Q330 715 346 718T367 724Q368 725 371 725T374 725ZM91 664Q91 662
85 657T71 647T56 637T45 630Q36 622 29 614T14 596Q13 596 13 595T11 593Q10 593 10 596Q10 608 17 621T34 644T58 661T85 668Q91 668 91 664ZM318 487Q319 438 308 385T277 277T232 169T178 69T122 -18T71 -86Q70 -87 68 -89T64 -94T60 -97T58 -94Q57 -91 69
-67T100 -6T141 72T184 152T219 220T238 261Q249 291 260 324T281 394T296 468T301 545Q301 553 302 553Q304 553 305 552T308 543Q311 533 314 515T318 487ZM237 589Q229 507 212 442T175 323T132 227T91 148Q72 110 56 72T27 -5T7 -87T-1 -176Q-1 -187 -3 -185Q-5
-185 -6 -180T-10 -167T-13 -152T-15 -140Q-20 -94 -15 -54T2 24T30 97T61 168Q77 206 100 256T147 361T189 475T215 589Q177 591 137 597T61 614Q59 615 57 616T55 619Q54 622 59 624T66 626Q98 634 126 634Q164 634 201 627T276 619Q288 619 301 621T320 626Q324
628 324 626T323 621Q314 610 302 604T275 593Q278 580 279 570T281 551Q287 500 276 444T242 331T190 220T129 119Q121 108 118 112T119 129Q125 145 138 173T165 232T191 290T207 329Q233 410 244 475T254 590Q249 589 245 589T237 589ZM62 5Q62 -1 59 -16T52
-50T44 -84T39 -109Q34 -130 32 -151T27 -195Q27 -197 27 -201T23 -205Q21 -204 20 -199T18 -192Q16 -183 14 -169T11 -146Q11 -121 16 -94T28 -43T43 -5T58 9Q60 8 60 7T62 5Z" />
<glyph unicode="K" glyph-name="K" horiz-adv-x="571" d="M552 648Q552 630 544 610T523 571T496 537T467 511Q429 483 384 458T295 415Q293 414 286 412T277 411Q275 413 280 418T288 426Q295 433 306 443T330 462T355 481T378 495Q385 499 409 517T462 560T514
610T545 651Q549 658 551 656Q552 655 552 652T552 648ZM116 277Q153 272 188 263T253 227Q288 197 325 161T393 89Q395 87 399 82T401 73Q400 71 394 73T385 78Q376 83 364 91T338 110T313 129T293 147Q288 152 267 169T216 206T156 243T99 266Q91 268 91 276T93
290Q95 302 98 320T105 357T113 394T121 425Q124 434 132 470T148 550T160 635T159 695Q157 704 160 704Q162 704 163 702T166 697Q177 680 183 656T190 606T190 553T182 508Q171 466 157 425T127 341Q138 357 148 371T166 399L167 404Q177 452 191 501T208 607Q210
612 211 612Q212 612 213 610T215 606Q226 579 223 536T211 445Q223 455 234 464T260 482Q298 508 338 532T415 581T485 632T540 689Q543 692 544 690Q545 690 545 688T544 684Q529 643 499 612T430 553T349 502T269 451Q222 419 181 375T116 277ZM164 283Q159
283 151 283T135 283Q139 291 144 299T155 315Q161 323 169 332T186 349T201 360T210 360Q211 359 209 355T202 346T195 336T190 329Q179 315 174 305T164 283ZM547 12Q545 10 542 11T534 15Q505 28 480 47T430 88T383 133T335 180Q318 196 299 213T260 244T219
269T175 283Q188 302 217 326T280 373T347 417T401 451Q436 473 471 498T537 559Q540 563 543 562Q543 560 542 559T541 555Q536 530 512 503T456 450T393 404T342 369Q324 357 305 346T265 325T227 306T192 290Q218 290 251 274T318 236T379 189T422 148Q454 113
485 80T541 23Q549 15 547 12ZM137 722Q151 674 146 623T127 517T94 407T63 296Q55 261 51 223T47 147T56 72T81 4Q85 -4 84 -4Q82 -4 80 -2T77 0Q49 33 36 71T20 151T22 234T37 316Q50 371 67 425T98 531T123 631T132 723Q132 729 133 729Q134 730 135 727T137
722ZM610 -20Q610 -22 608 -23T604 -25Q566 -39 531 -38T462 -26T398 2T340 36Q313 53 288 75T239 120T192 165T145 204L114 100Q112 95 111 91T107 88Q105 89 105 93T104 103Q105 132 109 162T119 222Q113 226 104 231T87 241Q85 242 82 244T80 249Q80 250 85
250Q121 247 155 227T224 178T294 116T367 53Q415 16 477 -5T603 -19Q610 -17 610 -20ZM112 -4Q110 -4 106 -2Q104 -1 103 1Q90 16 83 29T70 71Q68 82 68 99T68 132T71 159T78 170Q79 170 80 165T83 154T84 141T85 132Q87 110 88 96T92 71Q97 39 112 4Q113 2 113
-1T112 -4ZM474 16Q481 15 491 13T508 8Q534 1 551 -2T593 -7Q595 -7 598 -7T602 -9Q602 -13 592 -14Q580 -16 571 -16T548 -15Q540 -14 529 -12T507 -7T487 0T473 8Q469 12 470 15Q470 16 474 16Z" />
<glyph unicode="L" glyph-name="L" horiz-adv-x="447" d="M193 508Q179 454 159 396T116 286Q115 284 111 277T105 270Q102 270 102 278T104 290Q105 302 108 320T115 357T123 394T132 425Q135 434 143 470T158 550T170 635T170 695Q168 704 170 704Q172 704 173
702T177 697Q188 680 194 656T201 606T201 553T193 508ZM148 722Q162 674 157 623T138 517T105 407T74 296Q62 244 58 193T64 89Q67 94 70 96T78 101Q78 113 78 125T79 148T82 164T88 170Q89 170 90 165T93 154T95 141T96 132Q97 124 97 120T99 111Q101 112 105
113T115 116Q120 188 138 259T178 404Q192 451 204 500T219 607Q219 612 222 612Q223 612 223 610T225 606Q236 579 233 536T221 446T200 356T182 286Q171 244 157 201T130 119Q149 122 170 123T210 124T241 123T259 122Q288 121 319 115T373 105Q381 103 381 101Q381
99 378 98T373 96Q329 82 285 84T192 92Q174 94 155 95T116 95T80 88T48 70Q26 127 29 190T47 316Q60 371 77 425T108 531T132 631T141 723Q143 729 144 729Q145 730 146 727T148 722ZM427 125Q429 128 430 125T430 116Q424 101 419 90T397 68Q390 63 380 59T361
53T345 51T338 55Q337 58 346 63T360 70Q368 75 376 79T392 90Q400 98 409 106T427 125ZM432 95Q435 100 435 96T434 90Q419 56 400 38T358 12T311 2T262 0Q195 1 132 5T17 0Q15 0 13 0T15 2Q39 26 69 31T132 33T201 22T269 14Q311 13 355 31T432 95ZM279 49Q279
47 275 46T269 45Q254 42 229 41T182 42Q177 42 159 43T118 45T70 39T29 22Q25 18 23 21Q23 22 24 25T27 30Q41 52 70 63T130 78Q162 81 199 75T269 58Q270 58 274 55T279 49Z" />
<glyph unicode="M" glyph-name="M" horiz-adv-x="696" d="M232 723Q228 732 230 732Q233 732 237 728T242 722Q252 707 264 690T287 648T307 593T321 518Q327 469 324 422T312 326Q311 324 310 316T306 308Q304 308 302 315T300 326Q298 337 296 352T293 383T291
415T290 443Q290 447 290 460T288 492T285 531T279 574Q281 543 279 512T274 450T269 387T269 323Q272 261 294 197T364 88Q370 82 369 82Q367 81 362 84Q327 104 304 132T267 193T245 261T237 333Q237 336 237 338T236 344Q216 287 192 234T144 132T100 40T67
-41Q65 -46 64 -46Q62 -46 62 -43T62 -39Q63 8 81 59T123 166T175 280T222 400Q234 439 242 481T253 565T250 647T232 723ZM356 147Q367 124 385 104Q392 146 412 187T457 271T511 355T563 440Q581 471 593 507T611 580T615 655T599 725Q596 730 598 732Q600 734
604 730T610 723Q622 706 629 679T640 618T644 547T641 473Q637 424 627 366T601 260Q600 258 598 251T592 244Q590 245 589 252T588 262Q588 273 588 288T590 320T592 352T596 379Q597 385 599 406T604 455Q592 427 585 405T573 362T565 318T558 264Q555 233 555
199T562 132T581 68T614 10Q618 4 616 3Q614 2 611 5Q579 31 561 63T533 132T524 205T527 279Q529 292 530 305T534 332Q511 295 488 260T445 191T410 123T386 56Q384 51 384 51Q382 51 382 55T382 60Q382 68 382 76T384 92Q376 96 370 99T359 108T348 120T336
138Q331 148 326 162T318 189T314 212T316 222Q318 222 320 219T326 210T331 200T334 193Q339 181 344 170T356 147ZM377 332Q399 375 422 415T460 480Q484 523 510 564T555 638Q557 643 559 647T564 649Q566 649 565 644T563 634Q549 562 513 498T436 369Q422
347 412 333T394 305T381 275T374 234Q378 245 383 255T393 274Q421 322 456 370T525 460Q527 462 532 468T540 474Q542 473 540 465T536 453Q531 442 524 426T508 394T490 362T474 336Q470 330 457 312T429 267T400 206T378 134Q375 140 371 149T360 178Q342 241
341 305T340 438Q341 481 341 524T326 615Q325 619 326 621Q328 621 332 615Q350 596 359 560T372 483T376 404T377 342V332ZM114 419Q131 471 152 524T190 619Q192 624 194 629T199 633Q201 633 201 627T200 615Q191 533 164 452T104 292Q84 242 61 192T23 82Q21
77 21 76T21 75Q18 77 18 84Q13 114 24 159T52 253T87 346T114 419ZM71 181Q96 238 125 298T181 414Q182 417 186 425T195 432Q197 432 196 423T193 410Q190 396 185 377T174 337T160 297T147 264Q144 258 137 239T119 192T97 135T75 77T58 28T49 -3Q47 -13 45
-13Q43 -13 43 -9T41 -3Q36 9 36 32T42 81T54 134T71 181ZM667 267Q662 222 652 177T633 97Q629 84 627 85Q625 85 625 89T623 99Q615 166 625 233T647 370Q655 412 660 456T660 552Q660 556 662 558Q664 558 664 556T667 552Q682 530 684 492T684 411T676 330T667
267ZM214 649Q212 670 209 688T200 725Q199 727 199 730T200 733Q203 733 206 730L210 726Q221 711 228 697T237 649Q238 636 237 617T234 581T228 552T221 541Q219 541 218 546T217 559T216 573T216 584Q216 601 216 616T214 649ZM580 662Q579 680 577 696T569
729Q568 731 568 734T569 736Q571 734 572 733T576 731L578 729Q589 715 595 702T603 659Q603 648 601 631T595 599T587 573T578 564Q576 565 576 570T576 582T577 595T578 604Q580 620 580 634T580 662ZM615 70Q621 53 628 39T644 11Q645 10 646 8T645 5Q642 5
641 6T637 8Q635 9 634 10Q620 21 611 31T593 67Q590 77 587 92T583 121T583 145T588 155Q589 155 591 151T594 141T597 130T600 122Q605 108 608 95T615 70Z" />
<glyph unicode="N" glyph-name="N" horiz-adv-x="544" d="M269 503Q278 450 280 387T284 271Q284 268 284 260T279 251Q277 251 274 259T270 271Q266 283 263 299T256 331T251 364T248 395Q248 398 247 412T242 444T235 484T226 526Q226 484 225 444T226 362Q228
336 232 312T241 262Q248 227 262 192T295 126T340 70T396 29Q401 27 401 25T396 23Q355 32 324 56T270 115T231 189T208 269Q205 286 202 303T197 337Q182 289 165 243T131 155T103 74T85 0Q84 -1 84 -2Q82 -4 82 -4Q79 -4 79 0Q72 46 82 94T111 194T151 298T186
407Q195 441 199 479T201 555T189 628T159 692Q154 698 156 700Q158 702 162 700T169 695Q189 675 204 657T232 616T253 567T269 503ZM390 270Q396 299 401 321T412 363T427 403T449 449Q451 452 455 459T463 466Q465 466 464 457T462 445Q459 432 455 415T445
380T435 343T427 312Q423 295 419 271T410 216T403 152T401 82Q392 87 383 94T364 116Q343 146 332 179T313 249T303 322T296 396Q291 443 287 491T266 590Q264 595 264 595T265 597Q268 597 271 592Q284 579 293 555T310 500T323 437T333 372T340 314T347 270Q354
328 362 373T379 447Q387 472 398 499T422 552T448 603T474 645Q477 650 480 654T485 656Q487 654 486 650T482 640Q469 601 458 570T435 509T413 447T393 374Q387 348 379 319T367 260T363 198T378 136Q377 153 378 174T381 215T386 250T390 270ZM370 86Q381 74
393 65T419 47Q411 92 416 140T433 239T461 339T492 437Q514 507 527 582T543 733Q543 741 544 741Q547 741 547 736Q556 693 557 653T553 573T539 494T518 415Q503 361 487 307T459 200T440 97T438 1Q438 -3 436 -3Q434 -3 434 -2T432 1Q428 11 428 12T424 23Q422
31 418 34T412 38Q395 44 383 49T351 74Q343 82 334 96T318 123T308 147T308 159Q309 159 313 156T321 148T328 138T333 132Q351 105 370 86ZM77 419Q89 465 105 513T133 599Q135 604 136 608T140 611Q142 611 142 606T142 596Q143 523 123 450T78 306Q62 261 46
215T22 114Q21 109 21 109T19 108Q18 108 16 115Q10 142 16 183T34 268T58 353T77 419ZM58 206Q76 257 98 312T144 418Q145 420 149 427T155 434Q157 433 157 425T156 414Q154 402 151 385T142 349T132 313T123 284Q120 275 110 240T88 163T69 80T62 21Q62 12 59
12Q58 12 57 15T53 21Q45 38 43 62T41 112T47 162T58 206ZM504 669Q508 689 510 707T514 747Q514 749 515 751T518 754Q519 754 522 749Q523 747 523 745Q526 735 527 727T529 710T530 690T526 663Q524 651 520 634T510 602T501 576T493 566Q491 566 491 571T492
583T494 597T495 608L504 669V669ZM153 627Q149 644 144 660T129 690Q125 696 127 697Q129 697 133 695L137 693Q150 681 159 669T175 629Q178 618 179 602T180 569T177 542T171 532Q169 532 168 537T166 548T164 561T163 569Q161 585 159 599T153 627Z" />
<glyph unicode="O" glyph-name="O" horiz-adv-x="580" d="M556 449Q556 403 548 352T522 250T478 155T417 76T336 21T237 0Q187 0 151 29T92 107T61 217T58 343T83 469T137 579T219 656T329 686Q378 686 411 664T464 608T494 533T503 452Q503 405 495 361T467
274Q461 260 461 264T462 278Q469 314 474 349T480 422Q480 457 473 498T449 574T402 632T326 656Q287 656 253 641T192 601T143 543T107 473Q95 443 87 398T78 302T84 201T110 110T160 45T238 19Q287 19 331 46T410 115T471 204T507 293Q517 329 522 373T526 463T512
552T477 628T419 682T332 703Q256 703 201 665T111 569T58 441T41 307Q41 277 45 247T51 196Q52 188 50 188T44 195Q40 208 37 225T32 262T28 301T26 338Q26 408 44 478T101 605T197 696T336 732Q396 732 438 705T506 637T544 545T556 449ZM462 440Q462 397 452
350T423 257T375 172T311 104Q294 91 275 82T232 73Q212 73 199 81T175 105Q167 116 170 116T181 108Q190 100 199 94T223 88Q251 88 276 107T319 147Q345 175 365 209T398 281T419 357T426 434Q426 459 422 489T405 545T371 590T315 608Q278 608 249 592T197 552T156
497T121 437Q118 431 117 430T115 431Q114 433 115 437Q126 474 145 510T190 574T250 619T322 637Q359 637 386 617T429 568T454 504T462 440ZM281 49Q258 37 232 37Q196 37 170 57T127 106T101 169T93 232Q93 238 94 250T96 273T100 294T107 303Q111 303 111 288T112
244Q113 222 121 189T144 126T181 73T232 51Q257 51 277 55Q287 57 292 57T281 49Z" />
<glyph unicode="P" glyph-name="P" horiz-adv-x="529" d="M530 527Q535 484 528 450T512 392Q495 348 466 312T403 248T331 203T262 178Q254 176 246 175T238 175Q236 177 244 181T259 188Q315 215 364 252T448 341Q465 366 478 396T496 460T496 527T473 595Q450
637 414 663T335 703T247 719T159 715Q153 714 152 714T149 715Q149 717 152 718T159 721Q177 729 206 734T272 738T348 725T430 686Q471 659 497 616T530 527ZM467 569Q476 545 477 521T476 475T465 432T447 395Q445 393 442 389T436 380T430 373T426 371Q425
371 426 375T429 384T433 393T436 399Q445 416 448 440T450 491T442 541T423 582Q419 588 407 600T375 627T328 653T267 668Q234 671 201 670T138 663T86 651T52 638Q47 635 43 634T38 634Q37 636 40 639T45 644Q61 660 93 674T165 696T246 705T321 695Q342 688
364 677T406 649T442 613T467 569ZM125 203Q133 248 146 294T174 389Q188 434 200 481T214 582Q214 587 214 587T216 587Q217 587 219 581Q230 556 228 515T216 429T196 343T178 277Q173 259 169 244T160 211Q196 235 230 259T295 311T348 370T386 437Q409 497
385 545T292 615Q241 630 189 630Q198 596 198 556T189 489Q175 436 155 381T115 277Q114 275 110 267T103 260Q101 260 102 268T103 279Q104 291 107 308T113 343T120 378T129 408Q131 415 137 440T149 498T160 566T167 630Q159 630 155 629Q156 588 148 546T126
460T98 372T73 285Q65 252 61 215T58 141T67 69T91 3Q94 -2 92 -2T86 1Q59 32 46 69T30 145T32 226T47 306Q57 348 70 390T95 472T117 551T133 627Q104 623 77 616T25 600Q17 598 16 600Q15 602 18 604T23 607Q51 624 85 635T157 651T233 654T310 640Q350 628 376
603T414 547T425 480T407 411Q386 369 354 335T283 271T199 218T110 171Q108 170 99 167T89 165Q89 166 94 170T106 179Q121 187 125 203ZM192 191Q207 199 229 212T273 237T309 257T326 263Q327 262 323 257T311 245T297 232T286 223Q266 209 247 198T207 178Q190
170 173 164T137 151Q132 137 129 123T122 97Q121 92 120 87T117 82Q115 83 115 89T114 100Q114 109 114 121T115 143Q108 141 102 137T96 125Q96 95 99 71Q104 37 117 6Q118 4 119 1T120 -3Q118 -4 111 1Q100 15 92 28T79 70Q77 79 77 94T77 122Q77 130 80 136T93
147Q99 150 113 156T144 170T173 183T192 191Z" />
<glyph unicode="Q" glyph-name="Q" horiz-adv-x="574" d="M434 85Q465 53 494 22T555 -38T621 -89T699 -128Q702 -130 702 -132T696 -135Q650 -135 606 -111T520 -47T440 43T366 143T298 238T238 315Q237 317 236 319T234 323Q246 318 263 303T298 268T331 230T356
200Q389 251 406 311T423 432Q423 457 419 488T404 545T371 589T316 607Q278 607 248 593T195 555T152 502T118 444Q109 427 112 445Q122 478 141 512T188 574T247 620T318 638Q355 638 382 618T425 567T450 501T458 436Q458 365 437 299T375 174L411 118Q467 188
495 266T523 433Q523 482 515 530T484 616T424 679T327 703Q275 703 234 684T161 632T106 557T69 468T48 375T41 286Q41 257 45 233T52 185Q54 171 51 175T45 185Q31 219 29 258T27 336Q27 406 44 476T98 602T193 694T334 730Q392 730 433 705T501 640T540 550T553
451Q553 357 527 270T441 108Q438 103 435 99T429 90L434 85ZM195 300Q175 300 162 291T141 268T130 238T127 206Q127 181 133 154T151 103T185 64T236 49Q262 49 290 59Q288 65 286 71T282 84Q271 76 256 72T227 67Q218 67 207 71T186 83T169 100T162 119V121H163Q174
108 188 97T221 85Q236 85 249 91T274 105Q265 147 251 186T222 266Q217 275 219 276T226 270Q253 235 268 198T301 121Q322 72 352 30T416 -48Q451 -87 487 -112T570 -161Q574 -163 574 -164T570 -165T564 -166T559 -166Q530 -166 496 -146T428 -98T367 -41T321
5L319 7Q299 2 280 1T240 0Q198 0 167 13T114 51T83 107T73 178Q73 196 76 216T87 256T105 291T132 319Q134 320 135 321Q137 323 138 323Q140 323 140 322Q140 319 136 315T130 308Q110 285 100 254T90 193Q90 161 99 129T127 72T174 30T238 14Q256 14 273 18T306
29L295 47Q281 40 266 36T236 32Q201 32 177 49T136 92T113 150T105 210Q105 228 109 247T123 281T149 305T188 315Q209 315 232 295T274 248T306 192T319 145L316 140Q313 139 310 142T305 149T302 157T299 163Q293 176 284 199T261 244T232 283T195 300ZM59 245Q58
256 58 268T58 290Q58 351 71 420T116 548T199 646T326 685Q376 685 409 664T463 608T491 532T500 449Q500 401 493 359T466 274Q459 258 458 259T459 275Q467 311 472 347T477 421Q477 455 471 496T449 574T404 634T330 658Q282 657 246 641T181 596T134 530T101
451Q84 399 78 346T66 244Q64 228 63 230T59 245ZM363 71Q370 66 383 55T412 30T440 5T458 -13Q474 -31 499 -52T554 -91T612 -124T664 -144Q674 -146 672 -148T663 -151T648 -154T638 -155Q596 -155 555 -135T476 -84T411 -17T367 52Q366 54 365 59T363 66V71Z"
/>
<glyph unicode="R" glyph-name="R" horiz-adv-x="556" d="M261 193Q293 164 321 132T375 64Q376 62 380 57T383 49Q382 48 376 50T367 55Q359 60 349 68T327 85T304 103T286 121Q281 125 262 141T219 177T170 212T129 232Q126 233 121 235T116 242Q124 280 136
316T159 390Q173 437 185 486T200 592Q200 597 201 597Q204 597 206 590Q218 563 216 520T206 431T185 342T163 274L160 266Q197 291 237 316T311 366T371 419T406 477Q412 497 405 517T379 554T332 585T270 603Q225 609 179 606Q183 576 181 546T173 493Q160 439
140 382T99 274Q97 271 93 264T86 258Q84 259 85 267T86 278Q87 290 90 307T97 344T105 380T114 411Q116 417 120 436T130 483T140 541T148 601L134 599Q131 561 122 522T102 444T78 364T56 284Q48 249 44 211T40 136T49 65T74 2Q76 -3 74 -3Q72 -3 69 0Q44 29
31 65T15 140T15 222T29 304Q46 379 70 452T110 593Q85 587 61 579T16 560Q11 558 10 559Q9 560 11 562T15 566Q65 607 137 624T284 633Q323 628 355 611T409 570T436 515T430 455Q415 420 383 390T310 334T224 286T140 245Q156 245 173 240T206 228T237 211T261
193ZM538 443Q523 391 493 355T425 294T350 258T284 241Q276 239 270 239T264 242Q262 244 268 246T282 251Q336 271 386 303T474 388Q492 413 501 446T508 513T491 579T448 634Q415 662 376 678T296 700T213 703T132 689Q125 687 124 687T122 688Q122 689 130
695Q146 705 172 713T232 725T305 725T385 706Q427 692 464 663T523 590Q544 548 544 509T538 443ZM30 606Q50 635 83 653T155 681T236 689T319 679T393 652T451 608Q467 589 475 568T484 524T480 480T464 441Q462 437 454 428T444 420Q442 421 447 431T454 446Q462
472 461 497T451 545T428 584T398 613Q360 638 312 648T215 657T118 640T37 601Q28 593 25 596Q23 597 25 600T30 606ZM563 -24Q569 -23 569 -25Q569 -27 564 -29Q528 -42 494 -43T429 -37T371 -16T322 14Q296 33 273 56T227 103T183 149T138 188Q121 132 107 89Q105
84 103 80T99 77Q97 78 97 82T97 92Q99 120 101 149T110 207Q103 211 97 214T82 221Q79 224 79 225Q79 226 81 226T86 226Q126 223 159 202T223 151T284 90T348 32Q367 18 391 7T444 -13T502 -24T563 -24ZM408 122Q436 97 461 66T511 16Q518 9 517 6Q515 4 512
5T505 7Q478 16 455 32T409 68T367 110T325 153Q311 167 295 184T260 215T223 239T182 249L221 266Q236 273 258 283T300 302T335 316T351 321Q352 319 348 314T336 303T321 292T311 286Q292 275 276 266T242 248Q265 239 289 223T335 187T376 151T408 122ZM84
60Q87 43 92 27T104 0Q105 0 105 -1T104 -3Q102 -3 100 -2T95 0Q82 8 75 19T62 60Q60 71 60 88T61 120T64 147T70 158Q71 158 72 153T75 142T76 129T77 121Q79 104 80 89T84 60ZM522 -3Q538 -4 546 -4T569 -1Q570 -1 574 -1T579 -1Q580 -3 577 -6T571 -10Q555 -15
542 -17T502 -16Q493 -15 482 -12T462 -6T448 1T446 7Q448 8 458 6T473 2Q487 -1 499 -2T522 -3Z" />
<glyph unicode="S" glyph-name="S" horiz-adv-x="374" d="M300 707Q320 707 346 700T388 675Q399 665 385 669Q371 671 357 675T325 680Q263 681 235 645T203 552Q200 513 204 475T215 398T225 322T226 245Q225 234 224 232T221 233T218 241T215 251Q209 291 200
331T183 413T171 495T170 578Q173 605 183 628T209 669T249 697T300 707ZM122 575Q125 602 136 629T165 679T210 715T270 729Q271 729 275 729T283 727T287 725T279 723Q252 718 229 705T189 673T162 631T149 582Q145 534 153 486T171 389T189 293T193 196Q191
177 184 156T166 117T137 87T99 71Q83 69 85 72T97 81Q133 101 146 128T164 195Q168 241 161 289T143 385T126 480T122 575ZM95 21Q137 21 166 36T214 77T243 136T256 206Q260 251 254 296T241 385T227 475T225 566Q229 612 253 639T327 666Q344 666 370 660T414
643Q432 631 411 636Q399 639 380 643T351 647Q312 647 284 630T252 570Q247 524 254 479T270 387T285 295T288 203Q285 165 273 129T239 64T185 18T108 0Q96 0 77 4T39 14T4 30T-21 51Q-30 61 -15 56Q2 47 26 34T95 21ZM89 56Q114 56 135 64T178 85V82Q178 73
169 65T145 49T114 38T78 34Q71 34 59 36T35 43T11 54T-4 68Q-15 80 -11 81T0 78Q16 73 36 65T89 56Z" />
<glyph unicode="T" glyph-name="T" horiz-adv-x="452" d="M300 508Q286 454 266 396T223 286Q222 284 218 277T212 270Q209 270 209 278T211 290Q212 302 215 320T221 357T229 394T238 425Q240 429 244 445T252 483T262 533T271 586L259 589Q254 554 245 518T224
445T201 371T181 296Q173 261 169 223T166 147T175 72T199 4Q202 -3 201 -3Q199 -3 198 -2L196 0Q168 33 155 71T138 151T139 234T153 316Q170 390 193 458T232 593Q172 603 120 611T22 611Q19 611 19 612Q19 614 20 614T23 616Q57 636 95 638T175 635T260 621T348
611Q375 610 404 615T461 632T511 663T548 708Q550 713 552 713V710V708Q541 670 518 646T466 606T403 586T337 581Q342 550 338 509T324 426T305 347T289 286Q277 238 261 188T232 100Q230 95 228 91T223 88Q221 89 221 93T222 103Q225 178 244 253T285 404Q297
446 308 489T325 581Q320 582 317 582T308 582Q308 562 307 543T300 508ZM327 721Q366 716 406 713T475 710Q485 710 485 707Q485 703 475 700Q424 680 368 682T253 693Q218 698 181 703T101 703Q97 702 97 704Q97 706 99 707T103 710Q122 724 152 728T214 733T277
728T327 721ZM177 690Q219 684 262 675T347 655Q349 653 355 652T362 647Q362 645 356 644T347 641Q338 639 325 639T297 639T268 641T244 644Q237 645 210 648T149 652T86 652T42 643Q38 641 37 641H36Q36 645 40 649Q50 662 67 671T104 685T142 691T177 690ZM210
71Q213 54 217 37T229 4Q233 -4 230 -4Q228 -4 224 -2Q222 -1 221 1Q208 16 201 29T188 71Q186 82 186 99T186 132T189 159T195 170Q196 170 197 165T200 154T202 141T203 132Q205 115 206 100T210 71ZM500 697Q522 716 537 738Q539 742 541 742Q542 742 542 735Q542
731 541 728Q537 711 532 701T508 677Q501 671 489 666T466 656T447 652T437 655Q437 656 440 658T447 664T456 669T462 673Q472 678 481 684T500 697Z" />
<glyph unicode="U" glyph-name="U" horiz-adv-x="555" d="M210 153Q248 189 278 225T335 305T384 407T429 543Q441 588 449 630T456 712Q456 720 457 720Q459 720 460 717T462 712Q477 665 472 614T453 509T421 400T389 290Q381 256 377 218T374 143T384 69T409
2Q410 1 410 -1V-3Q407 -3 406 -2L404 0Q365 42 351 103Q337 86 323 70T282 37Q240 9 189 -1T86 12Q56 27 40 51T17 104T8 162T5 216Q3 263 9 307T27 389T52 459T79 511Q80 513 82 515T86 518Q88 517 87 513T84 506Q69 461 57 414T39 319T34 223T48 125Q53 105
63 84T96 45Q109 35 123 31T150 27T174 28T196 33Q241 44 273 73T329 132Q338 142 344 155Q343 174 345 199T350 246T355 283T356 297Q333 246 302 208T247 145Q232 129 214 117T177 100T144 100T122 123Q108 164 102 213T101 314Q112 416 149 515T255 696Q259
701 262 703T260 695Q238 661 218 617T181 525T152 425T134 326Q129 278 130 232T145 149Q150 136 158 133T176 131T194 140T210 153ZM226 73Q215 67 203 61T179 52T152 48T123 53Q94 63 82 86T62 132Q46 180 47 227T55 329Q59 367 71 412T103 503T145 587T195
651Q197 653 202 658T210 662Q211 661 201 645Q191 629 177 602T149 541T122 467T99 385Q90 344 87 305T84 234T87 179T92 148Q97 128 106 107T133 77Q150 69 175 72T221 86Q222 87 227 90T237 96T247 102T253 104Q254 102 252 98T246 89T236 80T226 73ZM497 281Q485
233 469 183T440 96Q438 91 436 86T432 82Q429 83 429 88T429 99Q433 174 451 248T493 397Q507 444 519 492T534 597Q534 604 536 604Q539 604 541 597Q552 570 549 528T537 439T515 350T497 281ZM508 500Q494 446 478 389T433 281Q431 278 427 271T419 264Q417
264 417 272T418 285Q419 297 422 314T429 350T438 386T447 416Q449 422 453 439T463 481T473 533T481 590T486 643T484 686Q482 695 485 695Q487 695 489 693T492 689Q504 672 509 648T516 598T516 546T508 500ZM418 68Q421 48 424 32T437 1Q438 0 438 -2T437
-5Q432 -5 427 0Q416 13 409 25T396 67Q394 79 393 96T393 129T396 155T403 166Q404 166 405 161T408 149T410 136T411 127Q414 96 418 68Z" />
<glyph unicode="V" glyph-name="V" horiz-adv-x="499" d="M471 610Q470 598 467 582T458 551T448 526T440 518Q439 518 439 523T439 534T440 547T441 556Q444 572 445 586T448 615Q450 634 450 651T448 686Q448 688 447 691T448 694Q451 694 455 690T460 683Q466
671 469 655T471 610ZM484 680Q501 640 504 601T503 522T484 443T453 367Q430 317 405 269T355 175T311 86T278 0Q276 -5 274 -4T271 0Q269 48 285 96T325 194T378 292T430 393Q445 425 457 460T476 532T485 605T480 677Q478 686 480 685Q481 685 484 680ZM159
289Q159 286 159 277T155 267Q153 266 150 274T145 288Q141 301 136 319T127 357T119 396T114 429Q113 436 110 456T102 505T91 565T77 626T61 679T45 714Q40 721 42 723Q44 725 47 723T52 718Q68 706 82 684T109 637T129 586T140 538Q149 479 153 413T159 289ZM222
148Q202 215 190 286T169 429Q162 482 153 535T125 645Q123 650 123 650T125 652Q127 652 132 647Q153 626 167 582T192 489T210 393T222 318Q227 295 230 271T236 223Q243 250 255 278T279 334T304 384T325 425Q346 470 373 515T423 592Q432 604 433 604Q435 602
434 598T430 588Q410 516 376 448T306 311Q286 273 266 234T236 147Q234 136 231 134T222 148ZM253 0Q256 -2 255 -2T250 -1Q211 17 183 48T136 119T104 202T84 289Q73 349 67 409T54 526T36 636T8 733Q7 735 7 736T8 740Q9 741 11 738T14 733Q45 691 60 638T84
525T97 403T114 281Q121 243 133 204T162 127T201 57T253 0ZM248 25Q242 31 233 41T215 62Q209 72 202 88T190 121T182 149T182 163Q183 163 186 159T193 148T199 137T204 129Q212 115 218 104T229 79Q235 66 241 57T249 48Q250 48 250 53T249 66T248 79T247 89Q245
127 253 157T273 212Q296 263 327 314T390 410Q392 412 398 419T406 425Q409 424 407 416T403 404Q399 392 393 376T379 343T365 309T351 282Q348 276 340 259T322 218T301 165T281 111T265 62T259 27Q259 20 256 20Q253 20 248 25Z" />
<glyph unicode="W" glyph-name="W" horiz-adv-x="759" d="M737 644Q736 632 732 611T722 570T711 536T701 523Q700 524 700 529T700 540T701 553T703 562Q704 569 706 581T709 605T712 629T715 649Q717 668 717 685T715 721Q715 723 715 726T718 729Q724 729 726
721Q731 707 735 691T737 644ZM748 714Q763 674 765 630T762 540T744 452T715 370Q694 320 671 272T626 177T586 86T556 0Q555 -3 552 -4T549 0Q547 48 561 97T598 195T646 295T693 397Q706 429 718 469T738 551T748 635T744 712Q742 722 745 719L746 718Q747 717
747 716T748 714ZM419 614Q418 602 415 586T407 555T399 530T390 522Q389 522 389 527T389 538T390 551T392 560Q398 589 399 621Q401 639 401 654T397 689Q397 691 396 697T397 704Q399 704 403 698L407 692Q411 683 414 675T418 659T420 640T419 614ZM670 429Q673
427 671 419T669 408Q665 396 660 380T648 346T635 312T622 285Q619 279 612 262T595 220T576 167T558 111T544 62T538 26Q538 21 536 19Q535 18 534 19Q533 19 529 23Q524 30 515 40T499 62Q493 72 487 88T476 121T469 150T470 164Q471 164 474 160T480 149T485
138T489 130Q496 117 501 105T512 79Q517 66 523 57T530 48Q531 48 531 53T531 66T530 79T529 89Q527 127 533 158T551 214Q573 265 601 317T658 415Q660 417 664 423T670 429ZM530 0Q494 18 469 50T426 120T399 197T385 269Q383 284 382 298T381 318Q363 276 343
234T305 152T272 73T248 0Q247 -4 244 -7Q241 -7 241 0Q240 48 254 96T289 193T336 293T382 396Q395 428 405 463T423 535T431 609T426 682Q425 687 424 688T425 690Q428 690 430 685Q440 658 444 632T451 578Q463 556 471 523T485 453T496 382T506 321Q511 298
513 273T518 225Q525 253 535 282T557 338T578 390T596 432Q605 454 617 481T641 534T666 583T689 623Q694 630 697 634T703 638Q705 636 704 632T700 622Q690 586 676 547T646 467T614 388T581 314Q564 275 545 235T518 147Q516 136 514 134T506 148Q481 242 470
336T445 527Q442 498 440 478T440 430Q442 394 445 359T449 292Q449 289 449 279T445 269Q444 268 443 270T441 277T438 284T436 290Q431 310 425 339T414 396Q406 371 404 346T408 284Q415 246 426 207T452 130T488 60T533 3Q536 1 535 0T530 0ZM385 608Q387 606
385 601T382 592Q375 556 363 521T335 451T304 382T271 312Q254 274 237 234T210 145Q208 135 206 132T199 147Q180 215 170 286T151 432Q146 484 137 538T111 651Q110 657 111 658Q112 659 114 657T118 652Q130 638 140 613T158 557T172 492T183 426T191 366T199
319Q203 296 205 272T210 223Q217 251 227 279T249 335T271 386T289 427Q308 473 330 518T374 595Q377 600 380 604T385 608ZM141 290Q142 287 141 277T138 267Q136 266 134 275T130 289Q127 302 123 321T114 360T106 399T101 432Q100 439 98 459T91 508T80 569T68
631T55 684T41 719Q35 727 38 729Q40 731 43 728T48 723Q62 711 74 689T97 642T115 590T125 543Q133 483 136 416T141 290ZM360 427Q363 426 361 418T358 407Q354 395 349 379T337 345T324 311T311 284Q307 276 296 244T271 172T247 91T232 25Q231 18 229 18Q226
17 221 22Q216 28 207 38T192 60Q187 70 181 87T169 120T162 149T163 163Q164 163 166 159T172 148T177 135T182 127Q188 114 193 103T203 78Q208 64 214 55T222 47Q222 47 222 52T221 64T220 78T219 88Q219 126 225 156T242 212Q263 263 291 315T347 414Q349 416
353 421T360 427ZM71 285Q61 345 56 407T46 528T33 641T8 740Q7 742 7 743T8 747Q9 748 11 745T14 740Q41 698 54 644T75 529T86 405T101 282Q107 244 118 205T146 130T182 60T226 2Q227 1 226 0T221 0Q188 21 163 51T120 119T90 199T71 285Z" />
<glyph unicode="X" glyph-name="X" horiz-adv-x="495" d="M45 12Q43 3 42 3Q40 4 40 7T39 12Q36 58 45 101T72 187T116 268T171 345L193 373Q152 465 113 551T26 701Q23 705 23 707Q24 709 27 707T32 704Q63 679 88 645T136 572T177 489T215 401L232 422Q227 432
216 453T190 502T159 559T125 615T93 663T67 693Q59 699 62 701Q64 702 71 700Q91 692 113 672T156 627T194 575T221 526L256 451L267 463Q247 508 224 554T169 644Q166 649 165 649T166 651Q166 651 174 647Q202 628 232 585T289 489Q340 549 391 613T474 736Q475
738 476 740T480 740Q481 739 481 736T480 732Q465 677 432 624T358 518T272 414T188 311Q164 279 141 243T98 168T65 90T45 12ZM507 4Q513 1 513 1T506 0Q466 6 432 26T368 77T313 144T266 221Q234 183 199 147T136 84Q131 79 128 75T122 72Q120 73 123 79T129
90Q148 127 172 163T224 233T281 302T338 370Q373 413 414 466T485 575Q488 582 490 582Q492 582 491 578T490 570Q488 549 475 521T444 463T404 401T362 342L371 322Q395 269 420 212T462 110Q464 105 465 100T465 93Q464 93 460 97T452 107Q417 154 390 205T336
310Q324 295 312 280T288 248Q307 211 331 175T383 106T442 47T507 4ZM400 474Q361 424 314 374T222 278Q220 277 214 271T206 266Q204 267 207 276T214 289Q221 301 234 319T261 357T289 395T312 425Q335 455 362 492T414 566T458 636T485 689Q488 700 489 700Q490
700 491 697T493 688Q494 666 485 637T462 577T431 520T400 474ZM99 68Q91 48 85 31T73 0Q72 -2 70 -5T65 0Q62 17 65 37T82 89Q87 101 95 116T112 145T128 168T140 174Q140 173 138 167T134 154T129 141T125 132Q118 113 112 99T99 68ZM466 70Q482 55 497 43T530
19Q532 17 535 15T537 11Q535 9 532 9T523 11Q513 14 505 16T489 22T471 34T449 53Q439 63 427 78T404 109T387 137T384 151Q385 152 390 148T400 139T409 128T416 121Q430 106 442 94T466 70Z" />
<glyph unicode="Y" glyph-name="Y" horiz-adv-x="447" d="M97 0Q97 -5 97 -5Q93 -5 91 0Q77 36 79 77T93 161T125 247T170 332Q143 350 126 377T95 436Q79 473 68 511T47 585T26 653T0 712Q0 716 1 715Q32 693 49 661T78 592T100 516T126 440Q137 415 150 394T184
353L197 374Q190 383 187 390T186 400Q188 400 193 397T204 386Q214 397 219 408Q201 441 188 477T162 551Q152 583 141 613T110 678Q109 680 108 681T107 684Q109 686 114 683Q135 674 151 650T181 596T203 539T219 493L240 438Q296 520 347 598T425 751Q427 756
427 756Q429 758 429 754T430 748Q425 691 400 636T341 527T266 417T192 306Q170 270 151 230T119 150T99 71T97 0ZM295 262Q280 238 263 213T229 163T195 117T166 77Q161 70 157 67T152 64Q150 64 152 70T156 81Q188 163 236 239T336 392Q367 440 399 488T455
600Q457 605 457 606T458 607Q460 606 460 603T460 597Q460 575 451 547T427 488T394 424T358 361T323 306T295 262ZM390 501Q355 447 313 389T230 282Q228 280 221 273T211 267Q209 269 212 277T218 289Q225 303 235 321T256 359T278 396T299 427Q303 433 315
452T342 498T374 556T405 616T429 671T440 712Q442 722 443 722Q445 722 446 718T448 711Q452 690 448 662T436 605T415 548T390 501ZM127 615Q138 578 148 537T166 456Q167 454 167 450T164 443Q162 442 158 446T153 452Q148 459 142 470T131 493T122 517T114
538Q111 548 102 572T80 624T54 675T29 708Q23 714 25 714Q26 715 29 714T34 712Q50 707 65 696T93 671T114 643T127 615ZM133 52Q129 33 128 19T126 -7Q126 -9 126 -12T123 -15Q121 -15 119 -13T115 -7Q113 -2 111 3T108 14T108 31T112 58Q115 71 121 90T134 126T147
155T158 164Q159 163 159 157T156 144T152 129T149 119Q144 102 141 86T133 52Z" />
<glyph unicode="Z" glyph-name="Z" horiz-adv-x="477" d="M486 692Q491 697 492 695T490 686Q480 671 472 652T452 608T421 552T370 480Q329 429 283 383T188 295Q185 293 178 287T169 282Q167 284 171 292T178 303Q186 315 198 331T225 365T252 397T277 423Q283
429 301 451T343 502T391 565T434 625Q424 619 402 597T352 545T292 479T234 412T185 356T155 321Q110 268 73 206T19 81L3 62Q4 99 14 137T41 212T80 285T130 351Q186 415 249 474T363 593Q344 589 326 588T289 588Q253 590 218 595T148 605T83 609T23 599Q19
597 19 600Q19 604 23 606Q52 629 85 634T155 636T228 626T301 618Q348 616 398 632T486 692ZM247 269Q215 231 178 194T110 126Q130 129 152 129T195 130T234 128T264 127Q299 125 336 119T401 107Q411 105 410 101Q409 99 406 99T400 97Q346 85 292 89T182 97Q148
99 112 100T36 88Q32 86 32 88Q39 104 49 123T69 158T86 184T97 192Q98 191 97 186T94 173T88 159T84 149Q80 141 77 132T68 115Q73 117 78 118T90 122Q134 193 190 256T307 385Q345 427 383 470T455 567Q457 572 457 572T459 572Q462 569 460 563Q456 533 430
492T370 409T302 330T247 269ZM473 88Q477 91 479 90T477 84Q452 53 426 36T371 11T315 2T258 0Q219 0 180 3T106 7T41 8T-11 -1Q-13 -2 -17 -2T-16 1Q6 24 38 30T109 36T188 28T267 21Q318 19 371 33T473 88ZM300 725Q332 723 364 717T423 706Q433 704 433 701Q433
699 430 698T423 696Q374 685 325 688T226 699Q194 704 161 706T93 699Q84 697 87 700T92 705Q107 718 135 723T193 729T253 728T300 725ZM108 85Q147 84 190 78T271 63Q273 62 278 60T284 55Q284 53 278 51T270 49Q261 48 246 48T213 47T181 47T156 47Q133 48
108 46T61 41T21 31T-4 18Q-8 14 -9 16Q-10 17 -9 19T-7 24Q-1 38 12 49T41 69T76 81T108 85ZM156 692Q192 688 231 680T304 660Q306 659 311 658T315 653Q315 651 310 650T303 648Q295 647 284 647T260 646T236 646T215 648Q198 649 173 650T121 650T73 645T38
632Q36 630 35 630H33Q32 632 33 634T35 638Q45 653 60 663T93 681T126 690T156 692ZM423 89Q436 94 447 101T471 118Q473 120 476 121T480 121Q481 119 478 114Q476 112 475 110Q464 96 455 87T425 68Q417 64 405 61T381 56T361 54T353 59Q353 62 365 66T381 73Q392
77 402 80T423 89ZM443 690Q455 697 465 704T486 721Q487 722 488 723T490 722Q490 718 488 714L487 712Q479 698 471 689T445 669Q437 665 427 661T406 655T389 653T382 656Q382 659 391 664T404 671Q424 679 443 690Z" />
<glyph unicode="[" glyph-name="bracketleft" horiz-adv-x="304" d="M341 721Q332 693 314 679T281 669Q262 671 243 679T204 699Q203 699 200 700T197 706Q197 709 200 710T204 711Q212 713 226 713T249 711Q252 711 264 710T291 710T318 714T338 727Q342 734
342 728T341 721ZM349 755Q335 731 318 726T281 722T242 732T203 741Q178 743 150 727T104 666Q102 661 100 663Q99 664 99 666T100 670Q108 701 120 721T147 753T178 768T208 771Q227 769 245 764T281 754T314 749T345 759Q347 761 349 760T349 755ZM208 614Q223
587 223 543T216 450T197 356T179 285Q166 235 148 185T114 97Q112 94 111 90T108 82Q122 84 135 82T156 78Q175 76 191 72T221 62Q224 60 227 60T230 58Q230 54 223 51Q200 35 175 39T123 49Q114 51 103 52T81 52T60 48T45 40Q32 71 27 105T23 175T29 246T42 315Q51
353 61 391T81 466T99 539T111 608Q112 619 111 629T109 648T113 668T129 690Q133 694 139 697T150 703T159 705T163 701Q163 699 157 694T149 686Q137 676 131 666T121 640Q130 653 145 659T177 666T211 666T241 660Q257 655 275 653T314 660Q321 663 320 661T318
655Q311 639 297 633T266 627T233 629T208 633Q192 635 175 641Q185 609 187 574T184 511Q173 454 154 395T112 285Q111 283 108 276T101 269Q98 269 99 277T101 289Q103 302 106 319T112 356T119 392T127 422Q130 429 135 452T145 507T150 573T144 638Q140 612
132 572T114 485T93 389T71 295Q57 239 52 178T58 58Q60 61 62 64T68 70Q68 82 69 99T71 132T76 159T82 169Q83 169 84 164T85 153T86 140T88 132Q88 117 88 105T89 79Q98 82 104 82Q104 85 104 91T105 101Q112 178 132 252T174 404Q187 452 198 504T203 614Q201
620 202 620T208 614ZM256 70Q253 54 250 44T238 22Q235 18 230 14T219 8T211 6T207 10Q207 13 211 18T218 25Q222 30 226 34T236 44Q241 51 244 57T252 73Q257 84 257 79T256 70ZM259 45Q252 15 242 -4T218 -34T191 -48T164 -51Q145 -49 127 -44T92 -34T60 -30T30
-40Q28 -42 26 -43T27 -36Q39 -17 55 -12T91 -7T130 -14T169 -20Q192 -22 216 -5T256 47Q258 52 259 51T259 45ZM178 4Q178 0 166 0Q161 0 147 0T112 1Q92 2 68 1T33 -10Q30 -13 30 -10Q30 -9 31 -7T32 -3Q40 18 58 29T95 40Q112 40 131 32T167 14Q169 12 173 10T178
4Z" />
<glyph unicode="\" glyph-name="backslash" horiz-adv-x="438" d="M175 558Q196 497 214 427T244 295Q246 291 247 282T247 270Q243 270 239 278T233 290Q226 303 218 322T203 363T188 404T177 440Q175 447 167 468T148 517T123 577T95 639T68 692T44 726Q42 728
41 729T39 733Q38 735 38 736Q40 737 42 736T47 734Q67 724 86 704T123 659T154 607T175 558ZM299 332Q317 278 335 221T370 122Q371 114 372 110T371 105Q370 103 367 108T360 118Q336 154 318 193T284 273T255 358T227 447Q210 501 190 557T137 670Q134 673 134
673T136 675Q137 677 138 675T142 671Q167 652 191 608T236 511T273 410T299 332ZM410 14Q414 12 416 10T416 7Q415 4 411 7Q367 18 330 45T262 109T209 192T169 284Q148 347 130 409T92 531T51 644T1 740Q1 745 1 745Q1 747 1 746T4 744Q6 742 8 741Q48 702 75
649T124 534T163 407T204 279Q218 239 239 199T287 124T345 60T410 14ZM371 81Q387 67 402 56T434 34Q436 32 438 29T440 26Q438 24 436 24T431 24Q428 24 427 25Q417 28 409 30T393 36T376 47T355 66Q346 75 335 91T313 122T298 149T295 163Q296 164 300 161T310
152T319 141T326 133Q337 117 348 105T371 81Z" />
<glyph unicode="]" glyph-name="bracketright" horiz-adv-x="304" d="M301 738Q301 737 301 735T300 732Q292 708 274 697T237 685Q220 685 202 692T164 711Q163 712 158 715T153 721Q153 726 166 726Q172 726 186 726T219 723Q229 722 240 722T263 722T283 728T299
738Q301 742 301 738ZM304 764Q291 743 275 738T240 734T202 741T163 748Q140 750 116 733T75 678Q73 673 73 674T73 680Q80 711 90 731T114 762T140 777T167 780Q186 778 204 773T240 763T272 759T301 769Q305 771 307 771T304 764ZM125 715Q125 712 121 707T114
700Q109 695 105 691T96 681Q91 673 88 668T79 652Q74 641 74 646T75 655Q80 670 82 681T93 703Q97 707 102 711T113 717T121 719T125 715ZM289 410Q271 335 250 260T221 116Q220 105 221 96T223 77T219 57T203 34Q199 30 194 27T183 21T173 19T169 23Q169 25 175
31T182 38Q195 49 201 59T211 85Q203 72 188 66T156 58T121 58T90 64Q75 68 57 71T18 64Q12 61 12 64T14 70Q21 86 36 92T67 98T98 96T123 92Q131 90 139 89T158 84Q147 116 145 151T148 214Q159 271 177 329T219 440Q221 442 224 449T230 456Q233 456 233 448T230
436Q228 423 226 405T220 369T212 333T204 303Q202 296 197 273T187 219T182 152T188 86Q192 112 199 152T217 240T238 336T260 430Q274 486 279 547T274 667Q272 664 270 661T263 656V655Q263 643 262 626T260 593T256 566T249 556Q247 556 247 561T246 572T245
585T244 593Q244 607 244 620T242 645Q239 644 236 644T229 643Q227 639 227 634T226 623Q215 548 197 474T158 321Q145 273 135 221T129 111Q131 98 123 111Q108 138 108 182T116 275T134 369T152 440Q166 490 184 539T218 627Q220 631 221 635T225 643Q211 641
197 643T175 647Q157 650 140 654T111 663Q108 665 105 665T101 667Q101 672 108 674Q132 690 157 686T208 675Q227 670 251 672T286 685Q299 653 304 619T309 550T303 479T289 410ZM232 55Q224 25 212 6T185 -25T154 -40T123 -43Q105 -42 87 -36T52 -26T19 -21T-10
-31Q-12 -32 -14 -32T-14 -26Q-1 -4 16 1T51 5T90 -4T129 -13Q154 -15 182 0T227 59Q229 61 230 62T232 62Q234 57 232 55ZM134 19Q134 16 132 15T127 14Q119 12 106 12T82 14Q79 14 68 15T42 16T15 12T-3 0Q-8 -5 -7 -2T-6 4Q2 32 19 45T51 56Q89 50 127 26Q129
26 131 24T134 19Z" />
<glyph unicode="^" glyph-name="asciicircum" horiz-adv-x="464" d="M225 685Q224 678 222 670T217 656T211 646T206 645Q202 647 202 653T203 663Q208 686 207 702T204 740Q203 748 206 744T211 737Q219 723 223 713T225 685ZM406 466Q374 460 350 473T318 503Q307
523 299 549T285 600Q283 608 283 613T295 608Q304 599 314 585T330 559Q331 555 340 542T361 513T386 486T410 471Q418 470 414 469T406 466ZM195 690Q181 659 155 638T99 597Q80 585 62 574T33 538Q33 537 30 538Q29 541 29 545Q26 563 35 578T59 607T88 632T112
651Q130 665 149 677T186 699Q188 700 190 701T195 700Q197 698 195 690ZM174 612Q176 610 175 606T171 600Q166 592 152 578T126 556Q116 549 103 539T78 516T57 491T47 467Q47 464 46 463T44 464Q42 466 42 468T41 473Q36 502 45 527T70 562Q90 575 114 588T163
611Q165 612 168 613T174 612ZM288 534Q297 516 306 495T340 464Q345 462 341 461T332 459Q313 459 298 471T269 500T246 536T229 570L212 553Q192 536 170 523T126 496T87 468T59 434Q58 431 57 433T55 438Q58 468 72 487T108 521T152 549T195 580Q219 602 229
636T227 719Q225 725 227 723T232 719Q238 707 249 701T276 688T310 671T347 640Q362 619 371 596T391 551T412 511T443 482Q447 480 445 479T437 478Q408 480 392 496T364 534T343 580T319 626Q308 643 289 656T245 674Q253 641 253 629T255 609T263 587T288 534Z"
/>
<glyph unicode="_" glyph-name="underscore" horiz-adv-x="636" d="M456 -122Q408 -119 356 -111T255 -92Q253 -91 247 -90T240 -85Q240 -82 247 -81T258 -80Q268 -79 283 -78T314 -77T347 -77T374 -80Q379 -81 396 -81T436 -82T485 -81T535 -78T578 -72T608 -62Q610
-62 611 -62T613 -61H615Q615 -64 614 -66T612 -70Q600 -84 581 -94T539 -111T495 -120T456 -122ZM267 -157Q225 -156 181 -150T101 -137Q96 -136 92 -135T88 -132Q88 -131 92 -130T101 -128Q165 -115 231 -119T364 -128Q407 -132 450 -135T543 -128Q548 -128 548
-131Q548 -132 546 -132T543 -136Q522 -152 485 -157T408 -163T329 -161T267 -157ZM15 -125Q8 -130 8 -128Q8 -126 9 -124T11 -122Q33 -89 63 -69T127 -37T197 -22T269 -20Q318 -22 366 -27T459 -37T547 -41T627 -31Q629 -31 631 -30T633 -31Q634 -33 632 -34T627
-36Q589 -59 545 -64T453 -67T356 -58T258 -50Q226 -49 193 -52T128 -64T67 -88T15 -125ZM74 -122Q60 -129 46 -136T19 -155Q19 -157 17 -157T14 -157Q14 -151 15 -149Q15 -147 16 -146Q26 -131 35 -121T67 -100Q77 -96 92 -92T120 -86T142 -84T152 -89Q152 -90
148 -92T139 -96T129 -100T122 -104Q109 -109 97 -113T74 -122Z" />
<glyph unicode="`" glyph-name="grave" horiz-adv-x="330" d="M271 575Q280 573 286 567T296 552T301 536T303 522Q303 514 302 509T297 506Q296 507 294 508T290 514Q288 524 286 529T282 539T276 549T269 564Q267 569 266 573T271 575ZM308 536Q304 562 294
583T256 618Q243 624 223 631T185 649T155 674T145 706Q147 715 150 721T155 722Q166 698 182 687T217 668T253 655T285 637T307 604T316 544Q316 539 315 533T312 527Q311 527 308 536ZM274 527Q274 523 270 523Q250 523 220 532T163 556T116 592T96 634Q96 636
96 642T101 648H103Q113 626 141 608T198 576T251 549T274 527ZM237 595Q238 591 235 591T230 590Q213 590 193 595T156 609T128 632T116 664Q116 672 118 685T126 704Q131 706 131 706T132 703Q132 679 147 662T182 632T218 611T237 595Z" />
<glyph unicode="a" glyph-name="a" horiz-adv-x="438" d="M403 352Q395 312 376 272T340 197Q339 195 336 190T330 185Q327 186 327 191T327 199Q328 208 330 220T335 246T339 272T345 295Q354 329 360 353T369 398T372 436T370 475Q369 483 371 485Q373 486 376
483T381 477Q398 450 404 418T403 352ZM427 419Q440 400 440 369T434 306T419 243T406 195Q398 160 384 125T360 63Q359 60 357 57T353 53Q351 53 351 57T351 64Q348 119 363 171T395 278Q405 311 414 345T422 421Q422 425 423 425L427 419ZM333 436Q272 411 230
365T164 260Q154 234 149 214T141 169Q140 164 144 159T152 159Q170 181 198 215T254 287T304 364T333 436ZM266 97Q251 76 237 58T206 27T168 5T120 -4Q75 -6 52 19T19 80T12 154T23 218Q34 253 49 284T82 341T118 385T155 414Q156 414 159 416T163 415Q164 415
162 412T158 407Q106 353 76 285T41 145Q40 127 42 106T52 67T74 36T112 23Q131 23 147 29T177 46T202 69T223 93Q243 118 260 145Q260 165 262 184T270 222Q273 236 275 244T280 260T285 276T293 299Q277 271 262 247T229 200T193 156T152 112Q135 95 124 101T111
129Q109 163 114 195T134 262Q147 294 166 324T211 378T268 420T334 444Q336 455 337 463T340 479Q342 490 342 490Q344 491 346 488T351 480Q363 447 359 414T345 347T320 278T297 206Q285 155 290 101T333 2Q336 -2 336 -2Q335 -3 330 0Q301 18 287 43T266 97ZM301
451Q303 449 301 448T290 445Q277 441 259 430T220 402T179 363T144 314Q129 287 119 261T102 214T92 177T89 155Q89 140 89 124T93 94T107 74T137 70Q138 70 142 71T150 74T157 77T162 78Q163 76 161 73T154 67T147 60T142 56Q117 41 100 47T74 69T61 108T58 149Q60
184 69 218T92 288Q103 315 125 343T174 396T232 435T290 452Q300 452 301 451ZM360 2Q362 -1 361 -2Q358 -2 353 0Q350 2 337 12T318 44Q316 52 315 64T313 88T314 107T319 115Q322 115 325 103T330 88Q333 74 335 64T341 44Q345 33 351 19T360 2Z" />
<glyph unicode="b" glyph-name="b" horiz-adv-x="415" d="M244 188Q231 164 215 137T184 97Q169 85 163 89T149 107Q141 119 141 119Q138 118 138 112T140 101Q146 81 154 74T179 71Q197 76 214 93T245 127Q275 168 292 214T312 308Q314 352 301 365T269 374T227
353T186 321Q192 336 202 350T226 374T256 390T290 394Q300 393 308 384T321 362T327 330T327 293Q322 255 313 217T288 147Q286 142 282 133T279 122Q281 120 288 128T300 141Q318 165 332 195T353 258T362 322T356 384Q350 409 332 418T291 424T247 410T211 386Q217
401 227 412T251 432T280 444T312 446Q340 443 354 424T374 381T380 330T377 285Q372 243 358 202T323 126Q306 98 279 71T219 28T153 12T89 36Q69 53 61 81T49 136Q44 181 50 226T70 311Q90 372 115 434T159 556T183 672T167 778Q166 780 166 782T164 784Q161
783 161 782T162 780Q168 732 158 680T130 572T88 457T44 334Q30 289 22 238T21 134Q32 62 80 27T200 0Q252 6 292 42T359 129Q379 168 393 211T411 300Q413 328 411 358T398 413T367 455T312 474Q292 475 268 464T229 438Q238 468 245 499T257 560T261 614T253
658Q251 666 249 666Q248 666 248 658Q246 594 227 537T189 427Q174 385 158 344T130 261T113 181T115 104Q116 100 118 95T123 89Q125 89 125 94T125 104Q130 139 144 188T177 288Q188 298 203 311T234 336T263 352T282 353Q290 345 288 324T279 276T261 226T244
188ZM215 547Q221 568 224 597T227 656T220 712T200 755Q198 757 196 759T192 762Q189 762 193 752Q202 732 199 693T187 608T166 520T144 452Q138 438 132 418T119 378T108 338T99 304Q99 299 98 290T97 281Q102 279 105 288T112 299Q140 356 167 419T215 547ZM108
71Q117 56 131 47T159 34Q164 33 170 32T176 26Q175 23 167 21Q163 20 158 20Q141 21 125 26T90 55Q78 71 73 91T66 129T67 159T75 170Q76 170 78 165T81 152T84 138T87 128Q91 111 94 100T108 71Z" />
<glyph unicode="c" glyph-name="c" horiz-adv-x="337" d="M148 210Q152 235 161 260T184 307T213 343T247 363Q270 368 281 365T295 356Q298 347 295 338T287 322T275 310T264 303Q259 301 260 298T270 297Q279 298 288 304T304 319T316 338T319 360Q317 371 309
379T288 391T261 395T233 390Q207 380 188 361T154 316T130 261T115 201Q107 164 110 129T133 73Q143 63 159 59T193 55T229 62T264 78Q268 80 270 82T271 85Q270 86 263 84Q214 72 187 74T149 92T138 137T148 210ZM160 4Q128 6 99 24T59 71Q48 100 45 126T44 178Q48
230 64 282T116 377Q138 403 160 420T218 448Q236 453 257 454T298 450T337 431T369 396Q372 386 375 386Q378 389 375 397Q369 429 343 448T281 472T207 469T140 436Q101 405 75 365T33 279T15 186T22 92Q28 62 42 44T76 15T117 1T161 -1Q167 -1 168 0T170 2Q170
4 160 4ZM82 245Q82 244 82 240T81 232T80 225T82 221Q84 221 88 231T93 242Q119 302 155 348Q158 351 167 361T191 383T227 402T274 407Q301 404 318 387T330 347Q326 325 315 310T292 290Q284 287 287 286T293 285Q305 286 318 294T342 316T356 347T353 384Q345
405 330 417T297 435T261 441T229 438Q191 428 165 409T123 365T97 309T82 245ZM284 64Q288 70 288 72T285 74T280 71T274 67Q254 53 230 45T175 36Q160 36 140 46T108 68Q104 73 100 77T92 81Q88 77 92 70Q107 35 130 25T179 15Q194 15 209 19T239 29T265 45T284
64Z" />
<glyph unicode="d" glyph-name="d" horiz-adv-x="473" d="M448 521Q434 458 412 396T367 277Q366 272 362 264T353 258Q352 258 352 267T353 279Q355 293 358 312T366 352T376 391T385 425Q388 431 392 452T402 501T411 563T416 626T416 682T407 719Q402 729 405
730Q409 730 414 725Q429 710 437 685T450 630T453 571T448 521ZM474 632Q484 612 486 583T485 521T476 452T461 384T446 323T433 277Q419 225 408 174T396 86Q396 73 395 73Q393 71 391 76T386 86Q376 122 377 160T387 239T407 321T432 404Q446 456 460 512T469
632Q469 637 469 637T469 638Q471 638 474 632ZM330 427Q270 401 228 355T163 251Q154 227 149 206T141 160Q140 148 147 151T159 160Q171 175 181 189T201 219T223 252T249 290Q264 311 277 331T301 370T319 403T330 427ZM308 348Q272 278 234 217T147 104Q116
71 110 114Q108 148 115 185T136 255Q149 287 168 317T212 372T267 414T333 437Q345 479 356 519T374 599T381 674T375 744Q373 750 374 750Q376 751 377 748T379 744Q403 696 403 641T389 527T357 407T323 285Q314 246 313 202T321 114Q331 69 358 38T420 3Q428
2 428 0Q428 -2 426 -2T421 -3Q400 -3 380 5T341 28T310 63T290 110Q288 118 288 123Q260 70 221 38T121 0Q76 -3 53 21T20 79T14 150T25 212Q48 281 83 333T153 407Q155 409 159 410T164 411Q166 410 163 407T159 403Q105 349 76 280T44 138Q43 120 45 99T54 60T76
29T114 16Q148 15 178 36T231 89T268 157T284 223Q277 215 272 207T259 188Q258 186 253 182T245 178Q243 179 247 189T257 212T269 236T277 252Q288 275 294 298T308 348ZM447 23Q447 21 442 19Q439 18 437 18Q418 16 402 20T368 41Q359 50 353 68T343 103T339
133T344 145Q345 146 347 141T352 130T356 117T359 107Q364 91 371 78T388 55Q412 27 440 26Q442 26 444 26T447 23ZM302 445Q302 444 301 443T293 440Q280 435 261 424T221 395T180 356T144 307Q129 280 119 255T102 208T94 171T90 151Q89 134 89 118T93 88T108
67T138 63Q140 63 150 67T163 71Q164 70 162 67T156 61T149 55T144 51Q135 46 124 44T103 43T83 51T70 70Q59 107 60 142Q62 177 69 211T93 281Q103 308 124 337T174 390T232 430T290 447Q294 447 298 447T302 445Z" />
<glyph unicode="e" glyph-name="e" horiz-adv-x="344" d="M306 408Q314 398 318 383T322 351T314 314T292 277Q263 243 229 225T166 206Q149 206 166 212Q175 215 187 221T214 237T242 260T269 290Q289 318 292 344T282 385Q270 397 254 398T206 381Q177 364 154
339T111 286Q100 272 97 272T99 290Q111 325 132 355T184 406Q206 421 224 427T258 432T286 425T306 408ZM360 338Q356 314 348 298T329 270T308 251T289 238Q285 235 283 237T286 244Q304 259 322 284T342 341Q342 394 316 422Q290 450 251 447T170 416Q143 399
123 377T87 329T63 276T49 222Q45 196 42 166T41 107T60 52T107 6Q112 3 117 2T123 0Q123 -2 118 -2T107 -1Q82 4 65 19T36 55T19 97T12 137Q6 216 34 293Q40 309 49 329T73 369T106 409T149 444Q172 458 197 465T247 472T294 463T333 437Q348 421 356 396T360
338ZM269 374Q281 360 272 331T230 271Q212 254 195 244T152 225Q141 187 138 150T140 90Q141 81 146 73T162 60T190 56T232 67Q239 70 240 69T234 62Q216 48 196 43T159 39T129 51T112 78Q104 113 105 151T116 226T146 295T195 351Q249 394 269 374ZM259 55Q252
45 242 36T218 19T190 6T160 1Q134 1 112 12T77 59Q75 63 75 66T77 70Q81 72 85 68T93 58Q104 45 121 35T155 25Q185 25 207 34T249 58Q254 61 260 64T259 55ZM245 347Q241 355 216 334Q193 316 180 293T156 241Q175 250 191 261T221 284Q236 297 243 318T245 347Z"
/>
<glyph unicode="f" glyph-name="f" horiz-adv-x="314" d="M369 393Q369 392 368 390T366 385Q360 371 349 361T326 344T302 334T281 332Q254 334 225 341T170 359Q169 359 165 362T160 367Q160 369 163 370T168 372Q174 374 184 375T204 376T225 376T242 374Q258
371 276 371T311 372T342 379T364 393Q369 398 369 393ZM377 423L374 419Q356 394 332 388T280 385T225 395T169 403Q134 405 98 388T36 325Q34 320 32 321Q31 321 31 324T33 330Q43 360 58 380T90 412T126 429T163 434Q213 540 280 627T427 774Q430 776 432 778T437
780Q439 780 436 776T432 770Q368 701 308 616T199 432Q203 430 207 430T216 429Q227 454 240 482T271 540Q288 571 308 599T349 652T387 695T414 725Q418 729 421 732T427 734Q429 733 427 729T423 722Q411 698 394 667T357 602T318 535T284 474Q277 461 270 449T256
422Q263 422 271 419Q293 464 317 507T371 595Q375 600 375 601T378 601Q379 600 377 592Q366 563 345 515T301 415Q321 413 339 415T374 425Q375 425 376 425T377 423ZM111 364Q111 360 105 355T96 348L68 329Q60 321 54 314T41 297Q39 295 39 293T36 291Q35 291
35 299Q35 303 36 307Q41 321 46 330T64 351Q69 355 77 359T92 365T105 368T111 364ZM145 299Q131 261 122 224T105 149Q94 93 90 35T87 -80T99 -190T126 -288Q128 -293 129 -296T129 -300Q126 -300 123 -296Q95 -250 79 -196T59 -80T59 46T79 177Q92 243 112 306Q104
308 98 309T86 312Q84 313 80 314T76 318Q76 320 79 321T84 323Q120 336 157 333T232 323Q255 319 279 317T330 325Q334 327 334 325Q334 324 330 318Q319 301 298 296T253 289Q239 247 230 210T215 147L155 -132Q153 -141 152 -147T149 -152Q146 -154 146 -146T145
-129Q145 -32 163 75T219 290Q213 292 209 292T199 293Q184 254 172 215T147 138Q147 136 146 132T142 122T138 114T134 110Q133 110 133 114T134 123T135 134T136 142Q138 170 147 212T167 296Q155 296 145 299ZM157 -296Q155 -297 150 -292Q148 -290 147 -288Q141
-278 137 -270T128 -251T121 -225T114 -187Q111 -170 110 -144T109 -92T111 -49T116 -31Q118 -31 120 -38T123 -56T124 -75T125 -89L134 -181Q137 -208 143 -233T156 -283Q157 -287 157 -291T157 -296Z" />
<glyph unicode="g" glyph-name="g" horiz-adv-x="411" d="M384 447Q382 448 380 444T375 438Q360 419 348 391T328 332T314 270T304 215Q299 181 296 151T289 91T284 33T279 -28Q280 -29 280 -33T280 -42T280 -50T282 -54Q283 -54 285 -51T289 -43T292 -35T293
-31Q304 -7 312 25T325 89Q326 97 329 122T336 180T345 251T356 325T368 390T381 434Q382 438 383 440T384 444V447ZM351 451Q351 452 344 452Q341 452 338 451Q300 447 268 431T210 390T163 334T129 270Q115 236 108 198T103 127Q106 84 141 119Q171 149 197 184T247
258T292 337T334 419Q338 427 337 427Q335 429 333 427T330 423Q276 354 230 291T144 166Q139 161 138 163T137 170Q139 193 144 217T160 267Q184 328 229 375T342 445Q351 449 351 451ZM297 458Q296 460 293 460T286 460Q258 460 228 444T169 404T119 350T86 293Q72
257 63 224T52 156Q51 138 53 121T63 84Q67 72 76 65T96 56T118 56T137 64Q138 65 141 68T148 74T154 81T156 86Q155 88 147 84T132 78Q111 74 101 81T86 101T81 131T84 164Q84 170 86 185T95 221T111 269T137 321Q152 347 172 369T214 408T254 436T288 451Q295
453 296 454T297 458ZM418 469Q415 469 413 465Q412 463 411 460Q381 398 369 333T351 199T339 62T315 -76Q309 -98 303 -122T287 -169T261 -212T216 -247Q184 -264 157 -262T107 -247T65 -217T32 -183Q30 -181 28 -179T25 -177Q23 -178 24 -181T27 -187Q50 -230
97 -262Q108 -270 124 -276T158 -284T196 -284T234 -268Q267 -246 286 -222T318 -172T336 -119T349 -66Q366 2 372 69T383 203T393 333T416 459Q418 463 418 465V469ZM300 278Q305 299 313 321T327 366Q327 368 328 373T329 378Q327 379 323 373T319 366Q305 343
294 318T274 271Q272 266 266 254T253 229T242 204T240 190Q242 190 246 194T252 201Q255 206 259 211T267 222Q261 197 257 181T247 151T236 127T218 100Q210 89 199 77T173 54T141 37T105 30Q81 30 67 42T46 73T37 113T36 152Q40 224 69 292T152 415Q152 416
155 419T158 423Q156 425 153 423L149 421Q131 410 112 391T75 347T43 290T18 226Q13 209 11 186T9 137T16 86T34 41T66 10T115 0Q144 2 161 10T190 27Q204 38 215 50T237 73Q231 38 226 14T215 -33Q208 -63 202 -90T189 -139T173 -173T152 -189Q138 -189 138 -192Q137
-195 142 -197T152 -200Q167 -203 180 -195T204 -172T223 -135T238 -92Q250 -46 258 -3T273 89Q280 136 284 183T300 278ZM188 -218Q186 -216 183 -216T178 -217Q161 -220 145 -216T111 -205Q92 -197 76 -186T40 -161Q38 -159 34 -157T30 -157Q29 -158 31 -162T36
-168Q49 -185 63 -200T101 -224Q116 -230 132 -232T161 -233T183 -227T188 -218Z" />
<glyph unicode="h" glyph-name="h" horiz-adv-x="434" d="M210 527Q193 468 172 406T127 289Q126 286 122 278T114 271Q112 271 112 280T112 295Q114 308 118 327T126 366T135 405T145 438Q147 444 152 464T163 512T175 572T186 634T193 689T192 727Q189 737 192
737Q194 737 195 735T199 730Q209 712 214 686T221 632T219 576T210 527ZM170 758Q183 707 177 651T154 537T118 420T84 300Q75 262 70 222T64 142T70 66T93 0Q95 -4 95 -6T88 0Q62 30 50 68T35 148T39 235T56 323Q71 383 89 441T124 554T152 660T163 760Q163 765
164 765Q168 765 170 758ZM352 0Q315 17 293 53T266 136Q261 182 266 212T278 273Q279 277 282 286T286 306T287 323T278 333Q264 336 246 321T212 282T182 235T164 196Q155 167 145 141T127 89Q124 78 122 79Q120 79 120 83T119 92Q119 132 125 172T141 253T165
333T190 414Q206 465 220 518T240 632Q240 637 240 637T241 638Q244 638 246 630Q251 617 251 594T247 542T237 485T223 433Q242 453 268 464T330 470Q371 464 393 441T423 384T428 314T415 241Q407 214 400 194T386 156T374 124T366 92Q364 81 362 81Q360 81 359
85T356 93Q350 115 355 147T370 214T386 286T393 354T376 408T325 441Q310 445 293 444T260 436T232 417T216 389Q235 409 265 422T323 426Q349 418 360 397T373 360Q377 325 369 297T349 242Q347 239 343 233T337 227Q335 227 335 235T336 247Q339 257 341 278T343
323T337 366T319 393Q305 401 285 398T242 373Q222 355 208 332T184 270Q190 281 203 301T232 339T267 367T303 370Q314 364 317 350T320 317T314 282T307 255Q296 225 292 190T292 120T312 56T356 5Q365 0 360 0T352 0ZM378 8Q364 16 352 25T327 60Q322 70 320
87T317 119T318 145T323 155Q325 155 327 151T330 140T332 129T333 121Q337 99 340 89T348 66Q356 50 364 37T384 13Q389 9 387 7T378 8ZM125 0Q126 0 124 -1T114 0Q106 4 98 15T84 58Q82 71 82 89T83 124T88 153T95 164Q96 164 97 158T99 145T100 130T100 119Q101
97 102 87T107 58Q110 39 114 24T125 0Z" />
<glyph unicode="i" glyph-name="i" horiz-adv-x="207" d="M165 330Q168 343 168 360T166 395T156 429T136 458Q130 462 129 462Q125 462 129 456Q135 443 134 416T127 359T117 306T110 277Q103 259 98 232T92 188Q91 186 91 180T94 173Q95 173 98 178T103 185Q121
217 137 255T165 330ZM169 179Q173 197 182 225T197 284T203 344T191 393Q187 397 185 397Q183 397 184 393Q184 355 176 323T157 259Q140 208 126 160T114 60Q114 57 114 54T118 50Q120 50 121 52T124 58Q134 82 147 114T169 179ZM98 0Q79 20 69 44T55 94T53 146T61
195Q70 231 84 267T108 338T119 408T105 476Q102 481 101 481Q100 481 100 480T101 477Q104 447 97 415T79 350T55 281T32 208Q25 181 23 153T26 98T48 45T94 -1Q96 -3 99 -3T98 0ZM106 38Q103 46 100 58T94 81Q92 85 89 96T84 107Q80 107 79 100T77 83T78 61T83
41Q89 21 97 13T120 0Q126 -3 129 -3Q130 -3 130 -2T128 0Q121 8 116 17T106 38ZM184 555Q179 555 169 556T158 566Q158 569 167 573T187 586T207 608T216 643Q216 669 206 682Q204 685 201 688T199 693Q201 693 203 692T207 689Q227 678 237 661T248 627Q248 595
233 575T184 555ZM147 595Q135 590 135 601Q135 609 141 616T152 633T160 653T154 682Q152 687 147 693T144 700Q146 701 152 699T161 695Q178 687 186 671T195 643Q195 624 180 612T147 595ZM118 649Q118 654 121 660T131 667Q136 667 139 661T142 649Q142 645
139 639T131 632Q124 632 121 638T118 649Z" />
<glyph unicode="j" glyph-name="j" horiz-adv-x="237" d="M172 578Q167 578 156 580T145 589Q145 593 154 597T174 610T195 631T204 666Q204 694 194 706Q192 709 189 712T187 717Q189 717 191 716T196 714Q216 703 226 685T237 651Q237 619 222 599T172 578ZM135
618Q130 617 127 618T123 625Q123 633 129 640T140 657T148 677T142 706Q140 710 135 716T132 724Q134 725 140 723T149 718Q166 710 174 695T183 666Q183 647 168 635T135 618ZM106 673Q106 677 109 684T119 691Q124 691 127 684T130 673Q130 669 127 662T119
655Q113 655 110 662T106 673ZM167 340Q165 354 161 380T147 427Q145 432 141 439T135 445Q133 444 133 438T135 417Q139 393 139 359T134 283T119 196T94 104Q90 92 83 76T68 41T53 4T41 -31Q37 -56 52 -36Q79 -6 102 38T141 132T165 236T167 340ZM195 320Q193
327 192 328T189 330Q187 330 187 322Q187 253 174 190T138 67Q134 56 122 29T94 -32T59 -104T26 -174T2 -228T-8 -252Q-8 -256 -6 -256T-2 -253T2 -248T5 -244Q40 -202 78 -138T145 -2T192 145T202 282Q200 302 195 320ZM-16 5Q-30 -31 -44 -65T-68 -136T-82 -213T-81
-299Q-81 -304 -80 -311T-77 -325T-73 -337T-70 -344Q-68 -344 -68 -335Q-67 -288 -61 -246T-45 -165T-20 -89T12 -12Q32 30 54 79T93 182T119 292T122 405Q120 416 118 430T110 460Q105 476 102 476Q100 476 101 460Q107 400 96 339T66 219T25 106T-16 5ZM-4 -153Q-4
-150 -7 -149Q-14 -148 -22 -163T-37 -201T-49 -252T-54 -305Q-54 -313 -52 -327T-47 -350Q-47 -352 -46 -357T-42 -363Q-39 -364 -39 -360T-38 -354Q-36 -331 -34 -310T-27 -267Q-25 -259 -21 -243T-13 -209T-6 -176T-4 -153Z" />
<glyph unicode="k" glyph-name="k" horiz-adv-x="415" d="M391 467Q395 451 393 435T385 405T371 381T354 364Q330 347 300 333T241 307Q239 306 234 305T227 306Q226 307 228 311T232 316Q242 328 259 342T289 364Q293 367 308 379T340 407T371 441T386 470Q386
472 386 472T387 474Q387 475 388 475Q390 474 390 472T391 467ZM203 548Q189 487 166 425T117 308Q115 303 112 295T105 286Q103 288 103 296T105 308Q108 323 113 346T124 395T137 446T150 490Q170 557 176 622T171 748Q170 752 170 754T171 757Q176 759 180
751Q192 735 199 710T208 656T210 599T203 548ZM145 773Q165 724 163 669T147 554T113 435T75 315Q64 278 58 237T51 154T59 73T86 1Q89 -4 86 -3T80 0Q55 31 43 71T28 157T31 249T49 338Q67 397 85 455T118 568T138 674T138 773Q138 775 138 777T139 780Q141 780
142 778T145 773ZM410 25Q418 23 416 20T411 16Q380 8 351 13T303 32Q278 50 260 79T224 134Q223 136 221 139T220 145Q222 148 225 147T230 144Q243 138 261 125T289 101Q297 92 311 80T341 56T376 36T410 25ZM442 47Q447 46 445 44T438 42Q406 36 381 48T335
81T293 126T249 169Q220 192 178 202T86 193Q81 191 82 194T85 199Q94 205 104 210T123 219Q135 272 152 324T186 432Q202 483 215 539T226 658Q226 664 228 664Q230 664 230 661T233 656Q243 635 243 600T237 525T221 442T201 366Q221 387 245 401T294 429T340
460T374 503Q374 504 374 505T376 504Q376 503 376 501T377 497Q375 465 358 444T317 405T265 373T213 340Q184 318 174 287T157 226Q162 233 167 241T178 257T187 269T193 271Q194 270 193 265T189 252T185 238T182 227Q187 226 190 226T197 225Q220 258 251 280T316
323Q339 337 360 353T399 395Q400 398 402 396Q403 395 403 394T403 389Q404 368 391 349T359 314T320 285T289 263Q273 251 254 241T218 221Q248 211 274 189Q297 171 317 149T357 105T397 68T442 47ZM128 142Q126 136 123 125T117 104Q115 99 115 94T112 90Q109
91 108 98T106 110Q106 117 106 126T107 142T113 155T127 160Q140 159 155 151T187 129T219 99T251 65Q268 46 288 27T338 -1Q342 -3 342 -4T337 -6Q317 -6 297 2T257 23T221 50T192 75Q175 91 159 109T128 142ZM116 1Q118 -2 116 -3T108 0Q96 11 86 26T71 74Q67
93 66 114T69 153T88 181T129 193Q136 193 145 191T161 187T173 181T175 174Q174 171 165 172T153 173Q141 175 130 175T109 173T95 162T89 137Q89 103 95 73Q99 53 103 36T116 1Z" />
<glyph unicode="l" glyph-name="l" horiz-adv-x="208" d="M201 521Q207 543 209 574T209 637T200 697T177 740Q171 746 168 744T169 734Q179 716 179 679T172 597T156 509T136 432Q131 418 126 397T116 355T106 313T100 278Q100 275 99 267T101 256Q103 256 107
264T112 275Q136 331 161 394T201 521ZM178 277Q183 295 192 324T210 387T227 459T240 532T244 598T233 647Q232 650 229 653T226 648Q228 584 213 520T181 404Q168 363 155 322T132 241T120 161T127 86Q131 73 134 73Q137 74 137 86Q137 104 140 126T150 174T163
225T178 277ZM159 3Q124 7 97 38T60 114Q51 157 55 201T71 285Q87 345 109 408T146 534T164 653T144 759Q142 760 141 763T138 766Q135 766 137 759Q145 713 138 660T116 549T81 430T44 308Q31 263 27 213T33 111Q39 85 51 64T81 29T118 6T159 -1H162Q163 -1 165
0Q165 3 159 3ZM129 53Q111 74 100 107Q99 110 97 116T93 129T89 141T86 147Q82 147 82 134T85 104T94 70T108 42Q124 24 140 20T174 16Q180 16 183 19T178 25Q149 28 129 53Z" />
<glyph unicode="m" glyph-name="m" horiz-adv-x="612" d="M279 253Q265 193 260 128T268 2Q269 0 268 -2T264 0Q247 33 241 67T234 134T239 202T252 269Q253 273 256 285T260 310T260 330T248 330Q225 313 206 288T174 238Q173 236 170 227T163 206T156 185T152
171Q144 140 132 112T112 60Q109 50 108 51Q103 51 103 60Q98 109 111 154T141 248Q151 279 159 309T167 377Q166 403 186 428T248 470Q272 480 293 479T332 470T364 447T387 414Q393 425 405 437T433 459T470 472T516 473Q534 470 547 461T571 441T588 417T597
397Q608 364 608 323T600 249Q585 195 565 153T537 78Q534 67 533 67Q529 67 529 71T527 79Q525 100 532 132T550 202T568 279T575 351T560 410T512 444Q485 451 465 445T430 430Q409 416 403 401T397 371Q414 402 442 420T508 427Q533 419 543 397T555 348T550
294T534 249Q533 247 529 240T520 233Q519 233 519 241T520 253Q523 265 524 281T525 314T522 347T516 374Q511 388 501 392T478 395T455 387T435 374Q413 355 408 340T400 304Q412 324 429 341T464 370Q473 374 479 373T490 368T497 357T500 345Q503 312 498 287T485
236T473 177T474 96Q479 61 495 33T535 -2Q542 -4 539 -5T533 -6Q515 -4 499 8T471 38T450 78T441 122Q438 167 446 207T463 277Q465 285 467 297T470 319T463 329T443 318Q423 300 408 279T386 232Q363 149 320 73Q318 69 315 66T311 63Q309 63 310 68T312 78Q318
113 327 146T344 213T359 284T367 363Q365 377 362 392T341 427Q321 449 294 450T250 445Q239 442 227 434T204 415T187 390T183 358Q194 378 208 397T246 426Q253 429 264 431T287 434T311 431T332 416Q348 396 349 380T350 348Q348 319 341 294T323 245Q322 242
318 236T312 229Q310 230 310 237T311 248Q312 259 314 280T316 325T314 368T301 396Q292 403 274 400T242 386Q228 375 219 365T203 345T193 322T185 292Q197 315 213 335T252 369Q268 380 277 378T289 367T293 344T291 318Q289 302 286 285T279 253ZM565 -2Q565
-2 560 -2Q558 -2 555 -1Q541 2 525 11T498 47Q494 57 492 73T490 104T492 130T498 140Q499 140 500 136T503 125T505 113T506 104Q508 90 511 77T519 52Q524 37 537 21T562 2Q567 0 565 -2ZM296 0Q298 -7 296 -7Q291 -7 288 -2Q283 4 278 15T274 55Q274 66 276
81T280 110T286 133T293 141Q294 141 294 137T295 126T296 115T296 107Q296 91 295 79T294 52Q294 33 294 20T296 0ZM148 332Q137 294 119 257T88 186Q87 184 85 179T78 174Q76 175 76 180T75 189Q75 205 80 231T92 275Q94 281 99 305T109 359T115 415T110 454Q106
461 110 461Q113 461 118 456Q130 445 137 429T148 396T152 361T148 332ZM82 -1Q51 20 35 45T12 97T7 152T15 207Q23 243 35 278T59 347T77 413T79 474Q79 478 80 478Q82 478 85 473Q103 441 102 407T91 338T67 266T44 192Q39 169 38 144T41 93T57 44T89 1Q93 -1
91 -3Q89 -5 87 -4T82 -1ZM120 -5Q117 -7 112 -2Q101 6 91 15T70 44Q66 51 64 62T62 83T63 101T68 108Q72 107 74 97T79 84Q83 73 86 64T93 45Q99 31 105 21T119 1Q120 0 121 -2T120 -5Z" />
<glyph unicode="n" glyph-name="n" horiz-adv-x="412" d="M352 359Q354 328 348 300T333 247Q331 242 327 236T318 232Q316 232 317 239T318 249Q319 260 319 276T320 310T319 342T314 369Q305 401 286 404T246 394T208 355T184 306Q190 315 199 327T221 351T246
370T272 377Q285 376 290 363T297 331T295 290T288 249Q281 218 276 185T272 121T283 60T316 5Q318 2 319 0T314 1Q288 16 273 36T249 79T240 127T240 177Q244 213 252 240T264 301Q266 322 261 328T249 336Q239 337 227 326T201 293T175 244T153 185Q145 154 134
121T112 63Q108 54 106 54Q104 54 103 58T101 64Q97 114 110 163T140 262Q150 293 158 317T166 378Q166 394 174 411T197 443T236 467T288 475Q336 474 362 453T398 398T408 327T399 252Q393 225 385 203T368 162T351 126T338 92Q337 89 336 86T333 82Q331 82 330
86T329 95Q327 129 336 160T355 225T370 296T366 378Q357 426 322 442T242 440Q236 437 226 431T207 415T189 392T179 362Q191 380 207 396T241 421T277 433T314 426Q335 415 343 396T352 359ZM148 332Q137 294 119 257T88 186Q87 184 85 179T78 174Q76 175 76
180T75 189Q75 205 80 231T92 275Q94 281 99 305T109 359T115 415T110 454Q106 461 110 461Q113 461 118 456Q130 445 137 429T148 396T152 361T148 332ZM352 1Q350 0 344 2Q341 3 339 4Q325 13 315 24T295 64Q292 74 291 89T290 120T293 145T301 156Q303 156 305
145T310 118T316 88T321 66Q326 51 331 36T347 10Q349 8 351 5T352 1ZM82 -1Q51 20 35 45T12 97T7 152T15 207Q23 243 35 278T59 347T77 413T79 474Q79 478 80 478Q82 478 85 473Q103 441 102 407T91 338T67 266T44 192Q39 169 38 144T41 93T57 44T89 1Q93 -1 91
-3Q89 -5 87 -4T82 -1ZM120 -5Q117 -7 112 -2Q101 6 91 15T70 44Q66 51 64 62T62 83T63 101T68 108Q72 107 74 97T79 84Q83 73 86 64T93 45Q99 31 105 21T119 1Q120 0 121 -2T120 -5Z" />
<glyph unicode="o" glyph-name="o" horiz-adv-x="367" d="M336 277Q339 304 337 334T325 389T293 432T236 449Q189 449 154 424T94 361T55 281T37 203Q31 155 35 120T52 63T82 29T123 18Q154 17 188 35T253 87T305 169T336 277ZM14 208Q18 248 34 296T78 385T147
453T240 481Q280 481 306 462T346 414T364 350T364 284Q355 212 329 159T268 71T194 18T119 0Q92 0 71 12T35 49T15 114T14 208ZM126 67Q121 67 116 70T108 79T104 89T108 96Q111 97 116 89T127 81Q137 81 150 94T176 124T198 159T212 184Q216 192 220 204T227
230T233 255T237 277Q242 322 235 346T212 371Q200 371 187 364T163 344T142 318T129 288Q124 271 122 271Q119 271 119 288Q122 307 132 325T157 358T190 382T227 392Q246 392 255 379T269 346T273 306T270 273Q266 246 258 221T237 169Q231 157 219 140T192 106T159
79T126 67ZM158 48Q159 42 149 38T127 34Q96 35 80 54T57 99T50 153T53 200Q57 233 69 274T103 351T157 411T233 436Q262 436 279 421T305 384T315 337T314 290Q312 267 307 248T293 206Q290 199 285 190T274 182Q271 183 272 190T276 207T282 229T286 251Q288
268 288 293T285 343T268 384T232 401Q197 401 168 379T116 324T81 256T64 193Q62 177 63 153T70 106T92 65T133 47Q141 46 148 48T158 48Z" />
<glyph unicode="p" glyph-name="p" horiz-adv-x="427" d="M428 303Q427 260 413 216T374 132T315 63T238 16Q225 11 223 14Q223 17 226 19T235 26Q274 56 304 89T355 160T386 244T397 342Q397 389 369 417T299 448Q267 450 234 433T172 378Q171 397 182 415T211
446T254 468T303 476Q327 476 350 467T391 436T419 383T428 303ZM143 247Q129 184 114 120T78 0Q76 -2 74 -7T69 -10Q68 -10 66 -5Q65 -3 65 0Q66 13 69 33T75 74T83 115T90 151Q91 157 95 178T103 229T112 291T120 357T123 415T120 455Q119 459 119 462T120 466Q122
466 124 463T127 458Q138 440 143 413T150 356T150 297T143 247ZM179 184Q173 146 168 116T156 53Q179 77 196 96T227 136T252 178T275 229Q284 254 288 283T290 330Q290 336 287 339T274 338Q265 333 251 321T223 289T196 243T179 184ZM186 277Q190 290 203 310T233
347T269 373T305 374Q317 368 321 350T323 308T315 260T300 215Q277 158 243 113T150 29Q149 24 152 23T161 22T173 26T185 34Q196 43 209 55T236 78T258 95T269 101Q270 100 267 95T259 82T249 69T242 60Q229 46 219 36T193 15Q181 6 170 3T144 4Q133 -46 118
-100T91 -196Q88 -212 85 -210Q83 -208 83 -203T82 -192Q82 -150 87 -111T100 -33T117 47T137 132Q148 180 157 225T174 327Q177 351 189 371T218 404T255 425T296 432Q329 431 353 408T378 332Q378 294 367 261T341 201Q339 198 333 190T324 184Q323 185 325 193T330
206Q336 222 341 249T346 304T340 356T312 390Q288 402 266 394T226 366T197 323T186 277ZM98 485Q113 432 110 374T93 254T63 129T34 3Q28 -31 25 -70T23 -151T33 -231T60 -305Q64 -313 62 -313T54 -307Q30 -273 18 -232T1 -147T-2 -59T6 25Q16 88 31 149T61 268T84
380T91 485Q91 492 93 492Q94 493 96 490T98 485ZM94 -313Q91 -314 87 -310L83 -306Q72 -293 63 -279T48 -232Q46 -219 45 -200T44 -163T46 -132T52 -120Q56 -120 59 -134T63 -162Q65 -181 65 -196T69 -228Q73 -248 79 -267T93 -303Q94 -305 94 -309T94 -313Z"
/>
<glyph unicode="q" glyph-name="q" horiz-adv-x="448" d="M399 452Q408 433 410 406T411 349T403 292T389 241Q367 182 341 119T286 0Q285 -1 283 -5T278 -9Q276 -8 275 -4T274 3Q277 17 281 37T292 77T304 118T316 152Q318 158 325 179T342 228T360 289T377 353T389
410T392 451Q392 460 393 460Q395 460 396 457T399 452ZM308 463Q308 462 307 460T299 456Q286 451 266 440T224 412T181 373T145 325Q140 317 132 295T116 245T103 187T99 133T111 93T145 79Q150 79 159 84T171 88Q173 86 165 78T153 67Q145 61 134 59T111 59T91
68T77 86Q70 106 69 124T67 159Q68 193 77 227T101 299Q112 326 134 355T183 408T241 449T299 466Q301 466 304 465T308 463ZM351 451Q288 427 242 378T174 271Q164 246 159 222T151 174Q149 169 151 167T157 169Q197 232 251 299T356 437Q362 446 362 451Q362
454 351 451ZM436 348Q443 317 435 271T411 175T379 79T352 4Q345 -14 333 -48T310 -114Q334 -103 353 -93T377 -62L378 -61Q381 -61 381 -61L382 -66Q387 -92 377 -107T349 -132T310 -149T271 -166Q254 -177 242 -201T225 -250Q222 -268 225 -280T226 -294Q223
-295 218 -281Q212 -264 208 -240T198 -193Q184 -127 193 -66T222 45Q210 35 200 27T180 14T158 5T129 1Q100 1 81 13T50 45T32 90T25 141T26 190T33 230Q43 264 58 295T91 351T127 396T163 425Q165 426 168 427T173 427Q174 426 171 424T166 419Q117 362 86 295T51
156Q50 138 52 117T61 77T83 46T120 33Q142 33 160 40T193 61T220 90T244 122Q247 127 250 134T260 155T275 193T300 255Q292 241 284 230T266 206Q264 204 260 199T253 195Q251 197 255 207T265 230T278 254T286 270Q300 295 322 332T357 422Q337 383 314 342T266
262T213 187T156 122Q137 103 129 105T119 130Q116 164 122 202T142 273Q155 304 176 335T224 392T283 436T351 463Q354 464 361 465T371 464Q376 461 376 454T375 438Q375 388 361 336T328 231T286 122T245 11Q234 -24 226 -74T222 -176Q233 -154 250 -142T282
-125Q286 -91 294 -60T312 1T335 62T360 127Q379 178 400 230T427 345Q427 353 431 353Q436 353 436 348ZM401 -94Q412 -122 403 -144T377 -178Q339 -202 296 -203Q288 -203 285 -203T279 -200Q278 -198 282 -194T292 -186Q298 -182 305 -178T327 -166Q338 -160
350 -152T373 -133T390 -112T396 -91Q396 -85 397 -87Q398 -89 399 -90T401 -94ZM421 -165Q424 -184 415 -198T392 -223T363 -241T338 -252Q326 -257 315 -260T293 -269Q280 -274 283 -280T290 -295Q292 -297 292 -300T290 -303Q283 -303 279 -300T271 -291Q257
-277 261 -266T275 -247Q289 -236 309 -227T352 -207Q369 -200 386 -189T416 -158Q418 -155 419 -158T421 -165ZM257 -222Q259 -225 257 -230T253 -241Q251 -247 249 -251T247 -261T247 -275T252 -298Q256 -311 252 -311Q249 -311 245 -307Q242 -304 236 -290T234
-254Q235 -248 238 -242T244 -230T251 -222T257 -222Z" />
<glyph unicode="r" glyph-name="r" horiz-adv-x="290" d="M145 333Q137 299 123 262T90 192Q90 190 88 186T81 181Q79 181 79 187T79 195Q79 211 83 237T93 281Q95 287 99 310T107 361T111 416T105 456V460Q109 463 114 458Q127 447 134 431T145 398T149 363T145
333ZM184 337Q195 351 205 357T225 367Q226 367 230 368T236 366Q238 363 235 359T230 353Q223 346 215 338T199 321Q189 310 183 296T174 266Q191 284 206 300T240 330Q263 347 280 374T304 453Q306 458 309 459T312 452Q315 394 300 360T255 303Q239 291 223
277T193 246T166 206T145 153Q138 130 131 110T116 70Q114 63 110 63Q107 64 107 73Q102 121 113 168T141 267Q148 292 157 317T166 374Q166 385 175 397T197 419T224 437T248 448Q257 451 257 447T251 437Q230 418 209 392T184 337ZM97 1Q96 0 96 0T90 4Q60 26
43 52T19 105T12 160T19 214Q27 249 38 283T60 350T75 414T75 475Q75 477 78 478Q79 478 80 477T82 474Q101 442 101 409T92 341T70 271T48 199Q38 153 46 101T93 8Q95 5 97 4T97 1ZM127 0Q125 0 123 1L119 3Q105 12 94 22T75 53Q72 60 70 71T68 93T68 110T74 116Q77
116 80 108T86 92Q88 81 90 71T97 53Q108 28 126 5Q128 0 127 0ZM290 449Q290 428 278 412T249 385Q246 383 245 385T244 389Q244 395 249 403T260 421T273 441T281 459Q284 464 287 459T290 449Z" />
<glyph unicode="s" glyph-name="s" horiz-adv-x="271" d="M123 369Q124 378 129 390T142 414T163 435T190 448Q222 454 243 444T275 421Q279 415 278 414Q276 412 271 415Q265 419 252 422T223 424T193 414T169 388Q161 371 158 353T155 320T155 293T156 278Q158
267 159 251T161 217T160 184T156 155Q155 152 154 145T150 138Q145 138 145 145T145 155Q143 180 138 205T129 258T122 312T123 369ZM88 171Q89 191 85 227T81 312Q82 337 86 363T105 416Q121 444 145 457T188 470Q191 470 194 470T197 469Q197 467 196 467T189
466Q171 461 157 450T133 423T117 392T110 363Q104 308 111 267Q116 234 119 199T117 134T96 85T48 63Q45 63 41 63T36 66Q36 68 45 73Q71 85 79 108T88 171ZM-18 53Q-4 31 26 21T99 22Q120 28 136 43T162 76T178 115T185 152Q186 180 184 207T178 259T172 309T171
356Q173 381 185 394T214 410T251 408T286 389Q290 387 289 384Q289 382 287 383T283 385Q246 397 226 392T203 356Q201 320 208 272T214 164Q215 144 210 118T192 68T159 24T110 0Q57 -8 26 6T-20 49Q-22 55 -22 56H-21Q-21 56 -18 53ZM26 53Q45 48 72 49Q81 50
94 54T108 56Q111 52 102 46T79 36T50 30T25 32Q6 40 -2 49T-18 73L-20 77Q-22 81 -21 82Q-20 83 -18 82Q-17 81 -17 80Q-5 69 3 64T26 53Z" />
<glyph unicode="t" glyph-name="t" horiz-adv-x="251" d="M299 444Q300 443 300 440T299 434Q290 405 268 393T229 381Q208 381 186 384T144 403Q142 405 139 407T136 411Q136 414 139 415T144 418Q153 420 167 421T196 421Q206 419 220 419T248 421T275 427T293
441Q296 445 299 444ZM306 475L303 470Q286 448 267 442T227 436T185 441T142 447Q114 448 86 430T38 367Q35 361 34 364T34 371Q42 401 53 421T76 453T103 472T132 480Q149 537 158 591T160 695Q160 699 160 699Q162 700 164 698T166 695Q188 647 184 593T164
478Q169 477 172 477T179 477Q184 503 188 532T195 589T197 638T190 671Q187 680 190 680Q192 680 193 678T196 674Q210 660 218 636T229 585T231 532T225 485L221 469Q224 467 227 467T233 466Q239 496 243 526T247 589Q247 596 248 596Q250 596 251 593T253 588Q265
566 265 533T259 463Q281 463 301 475Q306 478 306 475ZM99 407Q99 402 94 397T85 390Q80 386 74 381T62 369Q57 361 53 355T45 338Q44 336 43 335T40 334Q37 337 40 347Q44 362 48 371T63 392Q67 396 73 400T85 407T95 410T99 407ZM177 5Q182 7 181 4T178 0Q160
-6 140 2T103 27T74 66T59 111Q54 158 58 202T73 289L90 352Q84 352 78 355Q71 357 71 360Q71 362 78 366Q106 380 134 378T192 371Q210 368 228 367T269 374Q271 376 273 375Q275 373 272 368Q266 355 255 349T232 340Q224 314 218 294T208 259Q197 211 183 162T163
78Q161 67 159 66Q157 65 155 70T152 78Q148 107 150 138T160 203T176 269T195 337Q190 337 185 337T175 338Q167 317 159 297T142 258Q141 256 138 249T132 241Q128 242 129 250T130 262Q132 277 136 297T145 340Q140 341 134 341T122 344Q116 324 111 305T100
267Q92 232 88 193T88 111Q90 92 98 72T119 36T146 11T177 5ZM186 27Q191 31 192 28T188 21Q184 18 178 17T163 16T146 22T129 38Q122 47 118 64T111 97T110 126T115 138Q120 138 122 124T127 101Q131 85 138 68T153 41Q163 28 171 26T186 27Z" />
<glyph unicode="u" glyph-name="u" horiz-adv-x="401" d="M351 316Q339 279 323 245T288 177Q286 175 282 168T275 162Q273 162 273 168T274 177Q275 185 278 200T286 231T295 263T303 288Q320 342 325 384T319 455Q317 460 319 460Q321 460 323 458T326 455Q337
443 344 425T354 387T356 348T351 316ZM378 388Q391 368 390 338T383 276T367 215T352 169Q342 136 328 102T303 42Q299 33 297 34Q294 35 294 38T293 44Q293 98 308 148T342 249Q353 282 362 314T371 386Q371 393 373 393Q374 393 375 392T378 388ZM178 74Q180
71 171 65T159 58Q115 42 91 57T56 102T45 168T49 234Q52 259 60 289T81 349T108 404T142 444Q144 445 146 447T151 449Q154 448 148 438Q142 428 134 410T116 369T99 319T85 267Q80 241 78 217T76 174T77 142T79 125Q86 94 105 80T158 71Q159 71 168 73T178 74ZM307
-3Q311 -7 311 -9Q311 -11 307 -10T300 -8Q292 -4 280 3T262 30Q259 38 258 49T257 71T259 87T264 93Q266 92 268 84T273 67Q275 56 278 47T285 27Q290 16 295 10T307 -3ZM215 52Q204 35 182 18T121 0Q91 0 70 16T35 56T16 108T10 163Q11 195 15 227T27 287T44
337T64 373Q66 374 68 377T73 379Q74 378 73 375T70 369Q61 339 53 306T39 238T34 171T40 110Q44 91 54 75T77 48T104 32T133 29Q162 33 177 45T198 75T206 113T211 155Q206 141 192 128T161 107T129 100T105 118Q95 140 94 166T95 223Q97 254 104 287T123 350T151
408T189 456L193 460Q196 463 199 463Q199 463 195 453Q166 399 146 342T122 225Q117 160 128 140T157 128T193 165T225 227Q236 257 248 289T271 353T287 417T290 475Q290 480 292 480Q293 480 293 479Q293 477 294 477Q295 476 295 475Q311 441 310 406T298 335T273
262T248 186Q242 162 239 136T238 83T249 34T275 -6Q277 -8 277 -9Q277 -11 275 -11T270 -9Q251 -2 237 14T215 52Z" />
<glyph unicode="v" glyph-name="v" horiz-adv-x="336" d="M303 315Q286 280 263 245T215 181Q214 179 210 175T203 171Q201 173 202 178T204 186Q209 202 219 228T240 270Q243 275 252 298T271 349T285 405T284 445Q284 445 284 448V449Q288 449 290 445Q301 432
306 415T313 380T312 345T303 315ZM336 377Q347 356 343 327T327 266T301 208T277 163Q262 134 241 105T201 52Q196 45 192 45Q190 47 190 50T192 56Q208 108 232 152T282 245Q299 275 312 306T331 376Q331 381 332 381Q335 381 336 377ZM123 344Q123 307 118 264T106
190Q106 188 105 183T99 177Q97 177 96 182T93 189Q91 197 90 208T87 232T86 256T86 277Q87 283 85 307T79 359T68 412T51 448Q49 450 49 452T49 455Q51 455 53 454T58 452Q72 446 84 433T104 405T118 373T123 344ZM179 0Q179 -4 177 -4Q176 -4 174 -3T169 0Q161
6 158 17T156 50Q156 59 158 70T163 90T169 105T175 110Q180 108 180 98T179 82Q178 56 178 35T179 0ZM122 51Q117 57 113 67T106 86T103 103T105 111Q110 112 114 106T122 93Q121 114 124 135T130 175Q133 201 135 221T138 271Q140 302 138 339T122 411Q121 414
123 414Q125 414 126 413T129 411Q142 401 150 384T163 345T169 300T171 255Q186 282 202 308T230 361T249 413T255 464Q255 468 256 469Q257 469 260 464Q274 431 269 398T249 331T212 264T175 197Q155 155 147 105T152 0V-1Q151 -2 151 -2Q149 -2 148 -1Q147
-1 147 0Q144 4 140 8T129 16Q100 31 81 51T52 94T37 142T32 192Q31 228 33 264T36 335T33 400T16 458Q16 460 16 460Q18 462 20 461T23 459Q49 435 58 403T68 335T65 261T62 186Q63 164 67 141T80 97T103 55T138 19Q134 29 132 33T122 51Z" />
<glyph unicode="w" glyph-name="w" horiz-adv-x="570" d="M536 315Q519 280 496 245T448 181Q447 179 443 175T436 171Q434 173 435 178T437 186Q442 202 452 228T473 270Q476 275 485 298T504 349T517 405T516 445Q516 445 516 448V449Q521 449 523 445Q534 432
539 415T546 380T545 345T536 315ZM569 375Q580 355 576 326T560 266T534 208T510 163Q495 134 474 105T434 52Q429 45 425 45Q423 47 423 50T425 56Q441 108 465 152T515 245Q532 275 546 307T564 377Q564 381 566 381Q567 379 568 378T569 375ZM303 315Q286 280
263 245T215 181Q214 179 210 175T203 171Q201 173 202 178T204 186Q209 202 219 228T240 270Q243 275 252 298T271 349T285 405T284 445Q283 446 283 448Q283 449 284 449Q288 449 290 445Q301 432 306 415T313 380T312 345T303 315ZM334 400Q340 400 346 386T356
341Q361 304 355 265T338 190Q338 188 337 183T332 177Q330 177 328 182T326 189Q323 200 321 215T319 247Q313 233 307 220T295 196V186Q296 142 313 97T371 19Q367 29 366 33T355 51Q350 57 346 67T339 87T336 104T338 111Q343 113 347 106T355 93Q353 114 357
135T363 175Q366 201 368 221T371 271Q373 302 371 339T355 411Q353 414 356 414Q358 414 359 413T362 411Q375 401 383 384T396 345T402 300T404 255Q419 282 435 309T463 362T483 415T489 466Q489 469 490 469Q493 470 493 466Q508 433 503 399T482 331T445 264T408
197Q388 155 380 105T385 0V-1Q384 -2 384 -2Q382 -2 381 -1Q380 -1 379 0Q376 4 373 8T362 16Q316 40 296 74T269 147Q253 122 235 97T201 52Q196 45 192 45Q190 47 190 50T192 56Q208 108 233 154T285 248Q293 262 300 275T314 303T325 334T333 373Q334 380 333
390T334 400ZM123 344Q123 307 119 266T105 190Q105 188 104 183T99 177Q97 177 95 182T93 189Q91 197 90 208T87 232T86 256T86 277Q87 283 85 307T79 359T68 413T51 448Q49 450 49 452T49 455Q51 455 53 454T58 452Q72 445 84 432T104 404T118 373T123 344ZM260
464Q275 431 270 398T249 331T212 264T175 197Q155 155 147 105T152 0V-1Q151 -2 151 -2Q149 -2 148 -1Q147 -1 147 0Q144 4 140 8T129 16Q100 31 81 51T52 94T37 142T32 192Q31 228 33 264T36 335T33 400T16 458Q16 460 16 460Q18 462 20 461T23 459Q49 435 58
403T68 335T65 261T62 186Q63 164 67 141T80 97T103 55T138 19Q134 29 132 33T122 51Q117 57 113 67T106 87T103 104T105 111Q110 113 114 106T122 93Q121 114 124 135T130 175Q133 201 135 221T138 271Q140 302 139 339T122 411Q122 414 123 414Q125 414 126 413T129
411Q142 401 150 384T163 345T169 300T171 255Q186 282 202 309T230 362T250 415T256 466Q256 469 258 469Q259 470 259 468T260 464ZM179 0Q179 -4 177 -4Q176 -4 174 -3T169 0Q161 6 158 17T156 50Q156 59 158 70T163 90T169 105T175 110Q180 108 180 98T179
82Q178 56 178 35T179 0ZM412 0Q412 -4 410 -4Q409 -4 407 -3T402 0Q394 6 391 17T389 50Q389 59 391 70T396 90T402 105T408 110Q413 108 413 98T412 82Q411 56 411 35T412 0Z" />
<glyph unicode="x" glyph-name="x" horiz-adv-x="316" d="M316 421Q317 385 299 358T258 309Q227 277 191 244T120 181Q118 181 112 178T104 176Q102 178 105 183T110 190Q116 199 125 210T144 234T165 257T183 276Q202 295 222 314T259 353T290 391T310 424Q314
430 315 430Q316 429 316 426T316 421ZM307 460Q294 418 269 387T214 328T150 271T86 207Q68 185 53 158T29 104T19 49T26 0Q29 -5 27 -6Q25 -7 23 -5T18 0Q5 26 4 56T9 117T32 177T69 232Q74 239 79 244T89 256Q78 310 64 356T20 434Q18 438 19 438Q21 440 26
436Q47 426 61 411T86 375T104 332T116 284Q119 288 123 293T133 302Q117 357 96 391T55 435Q53 436 51 438T51 442Q52 443 55 443T61 442Q78 440 94 430T123 407T145 377T158 345Q160 342 160 338T163 331L172 341Q166 361 159 379T137 417Q132 422 132 422Q134
424 136 423T141 421Q157 413 170 396T194 356Q225 386 250 409T302 464Q303 465 303 465T305 466Q306 466 306 467Q307 467 307 465T307 460ZM310 9Q307 7 301 7Q298 7 295 8Q280 10 269 13T241 30Q235 35 228 45T214 65T206 83T206 93Q208 94 211 92T218 85T224
78T228 74Q236 65 244 58T260 43Q268 35 279 28T304 14Q305 14 308 13T310 9ZM275 -5Q247 -5 225 3T186 27T155 62T132 104Q116 87 101 73T73 44Q71 41 68 39T63 38Q61 40 62 44T66 51Q89 103 125 146T205 234Q231 261 259 286T307 339Q310 344 314 344Q315 344
315 338Q315 309 291 283T237 223L240 209Q248 173 254 136T266 70Q266 67 266 64T265 60Q263 59 257 68Q238 94 227 124T208 188Q199 179 192 171T177 155Q170 147 166 142T153 129Q170 86 201 50T277 -1Q288 -5 275 -5ZM42 -3Q37 1 32 11T29 44Q30 53 34 65T43
87T53 103T61 108Q65 107 62 95T58 78Q54 65 52 56T48 34Q46 20 47 12T50 -2Q51 -5 51 -8T42 -3Z" />
<glyph unicode="y" glyph-name="y" horiz-adv-x="390" d="M366 347Q366 297 353 243T317 135T267 35T208 -47Q197 -59 195 -58T197 -43Q203 -27 212 -7T231 32T250 70T266 100Q273 115 282 139T299 194T316 257T330 320T339 376T342 418Q341 436 342 441T346 446T350
439T355 430Q362 410 364 385T366 347ZM169 71Q162 63 150 56T127 49Q103 49 88 63T63 97T51 141T47 182Q47 209 52 244T69 315T97 382T137 433Q143 437 148 440T145 430Q139 419 134 411T125 393Q109 364 100 332T84 267Q75 223 75 179Q75 163 76 144T84 108T102
80T137 68Q143 68 151 71T164 77Q172 80 172 78T169 71ZM392 330Q396 315 396 295Q396 254 384 205T353 102T307 -5T252 -109T193 -202T136 -278Q135 -279 133 -282T128 -287T123 -291T121 -288Q121 -286 133 -262T165 -201T206 -122T250 -40T286 29T307 70Q336
134 356 198T385 332Q386 340 386 340T392 330ZM327 404Q327 348 312 291T273 177T223 69T170 -29Q125 -113 94 -199T51 -380Q49 -391 48 -389Q47 -389 46 -384T43 -372T42 -358T41 -346Q41 -301 51 -255T77 -165T112 -79T152 0H125Q95 0 73 14T37 51T16 105T8
170Q8 183 11 206T20 255T35 305T55 345Q63 356 64 354T62 341Q49 303 42 262T34 181Q34 158 37 131T49 82T77 44T126 29Q148 29 166 44T198 81T224 129T245 177Q235 163 222 150T193 125T163 107T134 100Q120 100 112 109T100 131T94 159T93 184Q93 220 97 256T112
328T138 396T179 456Q181 459 184 461T189 465T192 465T188 456Q159 402 141 336T122 208Q122 202 122 189T125 161T133 137T148 126Q151 126 156 129Q198 150 227 187T275 269T302 363T312 456Q312 472 314 473T321 456Q327 427 327 404ZM136 -188Q136 -195 132
-211T121 -245T109 -280T100 -306Q92 -328 88 -349T79 -394Q79 -396 78 -400T74 -404Q72 -404 71 -399T70 -392Q68 -384 68 -370T68 -348Q71 -323 79 -295T96 -242T116 -201T133 -185Q136 -185 136 -188Z" />
<glyph unicode="z" glyph-name="z" horiz-adv-x="360" d="M377 447Q372 435 368 427T351 408Q346 403 338 400T322 394T309 392T303 396Q303 398 311 403T323 411Q335 418 341 422T352 431T361 441T373 455Q378 460 378 457T377 447ZM334 436Q315 431 299 429T267
426T234 427T195 434Q173 439 150 442T97 434Q96 434 93 433T90 433Q90 435 92 438T95 443Q108 458 128 464T169 470T210 468T242 462Q267 457 291 454T334 445Q336 444 340 442T334 436ZM257 392Q257 388 253 387T247 386Q241 385 230 385T208 385T186 386T169
388Q134 393 104 389T56 369Q51 366 51 369Q51 371 52 372Q52 373 53 374Q60 389 71 399T96 416T122 425T145 427Q169 424 194 415T247 399Q248 399 252 397T257 392ZM377 82Q378 80 376 77T371 71Q359 57 348 52T321 41Q313 39 305 39T289 39T276 41T272 46Q273
49 282 51T296 55Q306 57 314 58T332 62Q352 69 370 81Q372 83 374 83T377 82ZM360 44Q334 23 312 13T269 0T230 -2T197 0Q176 1 153 4T107 9T64 9T28 -3Q23 -6 22 -5Q19 -5 22 -2Q22 -1 23 1Q36 24 58 32T106 40T159 33T208 21Q236 13 275 19T360 52Q366 56 364
51T360 44ZM223 53Q223 51 219 50T212 49Q200 48 176 49T136 53Q119 55 102 54T70 47T44 35T28 19Q26 16 25 13T21 11Q18 13 17 21T16 38Q21 92 43 132T101 211Q133 244 165 271T227 326Q203 327 180 331T135 339T92 343T51 338Q46 336 43 337T45 344Q69 366 94
371T144 375T194 366T244 358Q261 357 278 358T311 366T343 386T373 422Q377 428 378 428Q379 428 379 424V421Q378 413 369 397T347 362T321 323T297 289Q285 273 267 255T228 220T186 186T148 158Q146 157 141 154T133 153Q132 154 135 159T140 166Q145 173 154
183T175 205T197 226T216 244Q232 259 243 269T262 289T277 307T293 330Q288 329 278 328T263 327Q232 288 194 257T119 188Q104 171 87 153T58 110Q75 123 105 128T162 134Q179 152 194 167T230 199Q264 225 291 253T336 318Q340 326 341 323T342 315Q343 293
330 269T295 220T249 173T203 130Q208 129 214 128T225 126Q251 118 278 107T322 84Q329 80 326 77Q322 73 314 75Q272 81 239 89T162 104Q136 108 113 108T71 101T40 78T23 32Q34 58 59 73T104 90Q135 92 165 86T218 63Q219 62 222 59T223 53Z" />
<glyph unicode="{" glyph-name="braceleft" horiz-adv-x="270" d="M353 726Q330 701 304 675T264 625Q253 613 242 595T218 557T194 515T169 473Q167 471 164 465T158 460Q154 460 156 467T158 478Q160 487 163 501T171 532T180 562T190 588Q195 595 208 617T248
669Q276 700 304 712T348 733Q360 739 359 735T353 726ZM379 764Q381 763 377 761T371 759Q337 742 295 720T215 653Q186 618 165 574T127 486Q116 458 108 432T89 381T61 331T16 281Q13 276 10 275T12 282Q38 319 50 346T70 398T84 448T103 507Q119 549 139 593T195
680Q215 704 238 719T285 743T331 758T373 766Q375 766 375 766T377 765Q378 764 379 764ZM319 653Q311 640 302 628T279 584Q267 556 255 521T234 463Q227 445 217 424T193 383T165 345T132 314Q154 311 170 297T195 264T209 222T212 178Q209 128 201 91T188 34Q183
17 179 2T171 -24Q169 -31 168 -36T170 -44Q173 -47 175 -46T178 -48Q178 -53 169 -55Q161 -57 156 -53T146 -39T142 -18T144 8Q150 38 158 68T175 133Q181 158 182 188T177 244T154 286T108 300Q130 289 144 269T163 232Q169 203 167 176T157 125T141 78T122 34Q122
32 118 27T110 22Q108 22 108 28T108 38Q109 49 111 63T117 93T122 122T127 147Q127 150 129 160T133 185T132 216T121 247Q113 258 99 264T73 274Q102 295 121 323T155 385T183 454T213 525T255 595T315 659Q322 665 322 662T319 653ZM123 382Q124 382 124 377T122
367T118 356T115 348Q104 328 94 315T74 291T53 272T29 255Q27 253 21 249T14 247Q16 252 23 262T39 283T56 304T67 319Q74 327 82 339T99 361T113 377T123 382ZM233 -55Q228 -72 219 -89T193 -118T154 -131T97 -118Q82 -111 72 -99T56 -71T46 -42T42 -15Q41 5
43 25T51 60Q61 108 71 145T79 208Q77 225 64 236T27 249Q39 254 52 256T77 256T98 243T110 214Q113 195 111 175T102 133T89 89T78 44Q75 32 73 14T72 -25T84 -64T115 -96Q137 -110 155 -109T188 -100T213 -78T230 -52Q235 -46 235 -50T233 -55ZM223 -31Q218 -48
212 -60T188 -84Q177 -91 163 -89T137 -82T119 -70T118 -59Q121 -57 129 -62T148 -69Q169 -73 184 -62Q195 -56 203 -46T219 -24Q222 -20 223 -21T224 -24T225 -28T223 -31Z" />
<glyph unicode="|" glyph-name="bar" horiz-adv-x="229" d="M148 441Q144 366 136 284T116 127Q116 125 116 121T115 113T113 105T110 103Q108 103 107 114T104 129Q103 146 102 170T101 219T101 270T104 314Q104 322 105 348T106 409T107 486T106 565T103 635T96
682Q95 687 95 691T96 696Q97 696 99 692T103 686Q116 667 125 637T139 572T147 503T148 441ZM182 147Q181 80 176 19T167 -96Q166 -104 165 -111T162 -117Q160 -118 160 -110T158 -96Q143 -9 145 92T153 297Q157 363 161 432T158 577Q158 582 158 583T160 585Q161
585 163 577Q173 555 178 522T186 449T188 366T187 283T184 207T182 147ZM158 -233Q159 -236 160 -239T160 -243Q157 -246 155 -239Q120 -204 98 -160T63 -66T46 38T42 148Q43 226 49 301T60 449T68 588T64 715Q64 723 64 723Q66 725 68 720T71 715Q90 654 93 584T93
438T81 285T73 130Q72 32 91 -63T158 -233ZM152 -140Q160 -164 168 -184T186 -225Q188 -227 189 -231T188 -236Q185 -236 181 -232L178 -229Q171 -222 165 -216T152 -201T141 -180T130 -150Q126 -135 122 -113T115 -69T112 -32T115 -17Q117 -16 119 -22T124 -36T128
-52T130 -63Q138 -85 142 -104T152 -140Z" />
<glyph unicode="}" glyph-name="braceright" horiz-adv-x="337" d="M204 688Q201 686 193 690T174 697Q163 699 156 697T138 690Q128 683 119 674T103 652Q101 649 100 649T98 652T98 656T99 659Q104 676 110 688T134 712Q144 719 158 717T185 710T203 698T204
688ZM295 375Q283 370 270 368T245 369T224 381T212 411Q209 430 211 450T220 492T232 535T244 581Q247 593 249 612T250 652T239 692T207 725Q185 738 167 738T134 729T109 707T92 681Q90 677 90 677T89 678T89 681T89 684Q94 700 104 718T130 747T169 761T225
747Q240 740 250 727T266 700T276 670T279 644Q280 620 278 600T271 564Q261 516 250 479T242 416Q244 400 258 389T295 375ZM308 378Q306 373 299 363T283 341T266 320T255 306Q248 298 240 286T223 264T209 247T199 242Q197 244 201 258T207 277Q218 297 228
310T248 334T269 352T293 370Q295 371 302 375T308 378ZM7 -31Q2 -37 2 -34T3 -25Q7 -18 11 -13T20 -1T30 16T42 41Q54 69 67 104T88 162Q94 179 104 200T128 241T157 279T190 311Q167 314 152 327T127 360T113 403T110 447Q113 496 121 533T134 590Q139 608 143
624T151 652Q153 660 154 665T152 673Q150 675 147 675T144 677Q144 680 153 684Q168 688 176 667T178 616Q172 587 164 556T147 492Q140 466 139 436T144 381T168 339T214 325Q192 334 178 354T159 393Q153 422 156 448T166 500T182 547T200 590Q201 592 204 598T212
603Q214 603 214 596T214 586Q213 575 211 561T205 532T200 503T195 478Q195 475 193 464T189 439T190 408T201 378Q209 366 223 361T249 351Q220 330 201 302T167 241T139 172T108 101T67 32T7 -31ZM310 342Q284 304 271 277T251 226T237 177T219 118Q203 76 183
33T127 -51Q106 -74 83 -89T37 -114T-7 -129T-47 -137Q-52 -137 -54 -136Q-55 -135 -51 -134T-46 -131Q-11 -114 29 -92T107 -25Q136 8 157 52T195 138Q205 166 213 192T233 244T262 293T306 344Q310 347 312 348T310 342ZM164 147Q162 138 159 123T152 93T142
62T132 37Q127 29 114 9T74 -40Q46 -71 20 -83T-22 -104Q-35 -111 -34 -107T-28 -98Q-7 -73 19 -47T58 0Q80 25 104 68T153 152Q155 154 158 160T164 164Q168 164 167 158T164 147Z" />
<glyph unicode="~" glyph-name="asciitilde" horiz-adv-x="575" d="M58 227Q58 225 55 222T49 219Q47 224 49 227Q49 241 55 254T70 282Q77 293 85 303T108 321Q109 322 111 323Q114 324 115 323Q116 320 113 314T105 300T96 285T90 275L58 227ZM214 258Q188 268
178 269T159 270Q145 269 124 256T78 222Q76 222 75 221T73 219Q71 221 72 222T73 225Q108 273 140 292T216 289Q254 275 294 255T386 223Q414 216 440 222T488 243T527 278T552 319Q553 320 554 322Q556 326 559 326V324Q559 323 558 322T556 319Q552 296 543
273T510 227Q487 204 453 196T389 192Q359 197 334 205T288 223T249 242T214 258ZM75 318Q73 313 70 310T64 308Q63 308 65 314T68 321Q76 344 99 366T156 396Q173 400 188 400T218 396T244 389T267 381Q293 371 322 354T378 323Q406 309 420 304T449 295Q453 295
453 293Q456 289 451 289Q431 277 400 285T337 310Q310 323 281 336T219 360Q201 365 181 365T140 360T103 344T75 318ZM255 319Q298 311 331 296T401 270Q429 262 461 274T519 306Q521 306 523 308T526 308Q530 308 525 300Q522 294 514 283T492 261T462 242T423
234Q403 234 385 238T354 247T331 256T318 263Q299 271 283 284T251 310Q249 310 243 314T237 319Q239 322 246 321T255 319Z" />
<glyph unicode="&#xa0;" glyph-name="uni00A0" horiz-adv-x="201" />
<glyph unicode="&#xa1;" glyph-name="exclamdown" horiz-adv-x="284" d="M79 83Q93 121 111 160T150 235Q151 236 154 240T160 244Q163 243 163 238T162 231Q159 212 153 184T138 137Q136 133 132 120T124 88T115 50T108 10T105 -26T108 -52Q108 -56 107 -57L106
-58Q104 -58 99 -53Q88 -41 82 -24T73 13T72 51T79 83ZM84 242Q95 276 112 309T143 369Q145 374 147 375T150 377Q153 376 153 374T153 366Q147 312 130 261T91 155Q78 123 68 89T56 14Q56 9 53 9Q51 9 49 14Q38 34 39 65T49 130T67 193T84 242ZM177 432Q174 437
176 438T180 437Q206 407 219 378T235 319T233 261T219 205Q207 167 192 130T163 58T142 -11T135 -77Q135 -79 134 -79Q132 -79 130 -74Q116 -40 120 -4T136 70T164 146T193 221Q208 269 207 324T177 432ZM165 387Q163 401 160 412T150 437Q148 442 150 442T156
440Q169 429 175 418T186 384Q187 375 187 363T187 339T183 320T177 313Q174 315 173 326T171 342Q169 354 168 365T165 387ZM216 549Q211 548 201 548T189 555Q189 558 197 563T214 578T230 600T234 632Q232 643 229 653T220 668Q218 671 215 673T213 677Q215
677 217 676T221 675Q242 668 253 655T267 627Q272 599 261 577T216 549ZM174 579Q163 572 162 582Q160 589 165 597T174 613T178 632T169 657Q166 661 161 666T157 671Q159 673 165 672T173 670Q190 665 201 653T214 629Q217 612 203 598T174 579ZM139 623Q138
627 140 633T148 640Q153 642 157 636T162 626Q162 622 160 616T153 609Q147 608 144 613T139 623Z" />
<glyph unicode="&#xa3;" glyph-name="sterling" horiz-adv-x="503" d="M82 11Q62 11 52 3T29 -20V-18Q25 -17 25 -9L19 -17L18 -14V-11Q22 2 34 25T63 77T98 136T132 194T157 244T167 277Q167 281 163 281T156 282H153Q147 273 143 259T133 228T120 193T103 160L29
48Q26 43 24 37T18 23Q16 20 14 19T12 14Q10 18 10 25Q10 46 19 67Q21 72 29 89T47 131T70 182T91 232T107 270T112 288Q111 288 107 289T101 289Q88 252 72 217T34 147L29 144V152Q29 170 35 188T50 226T64 263T71 300L53 306L49 311Q49 315 56 318T71 322T88
324T100 325Q130 325 159 316T218 306Q229 306 238 309T259 312Q259 303 252 298T236 288T218 282T203 277Q192 239 174 206T136 140V138Q164 132 186 125T228 109T269 89T318 63Q318 60 321 60Q321 55 315 54T304 53Q278 53 252 61T201 80T156 99T119 108Q112
108 108 99Q142 89 168 76T221 40V37Q221 34 216 34Q192 34 169 45T122 56Q115 56 106 56T89 56T73 51T63 40Q69 40 75 41T88 42Q111 42 132 36T173 21T215 7T259 0Q293 0 311 8T338 25T350 44T358 56Q358 55 358 54T359 52Q359 32 349 17T322 -9T286 -25T248 -31Q226
-31 206 -25T165 -10T125 4T82 11ZM274 22L279 27Q293 33 303 36T321 45T335 59T348 84L349 81V74Q349 18 290 18H282Q274 18 274 22ZM71 359Q73 359 76 358T79 355Q79 353 71 346T52 328T32 307T19 289L15 288V292Q15 303 19 315T32 336T50 352T71 359ZM84 418Q86
449 88 481T99 544Q108 579 126 611T171 668T231 708T303 723Q328 723 353 717T395 689Q395 688 394 688H392Q375 688 357 696T319 704Q268 704 230 677T168 609T131 519T119 427L122 422H134Q139 439 142 460T149 502T162 542T185 573L188 569Q183 561 179 543T173
505T170 466T169 437Q169 432 169 427T170 418L186 412L189 416Q190 448 197 488T220 564T263 624T333 649Q348 649 369 640T410 616T445 585T466 553H462Q448 565 434 577T404 600T371 618T336 625Q326 625 317 621T300 611Q274 596 260 572T238 519T227 462T221
407V406Q226 402 232 402T244 401Q258 401 271 401T296 408Q297 408 298 408T297 406Q288 388 271 380T234 371Q205 371 177 380T116 390Q89 390 71 379T41 355T22 329T12 316V321Q23 350 38 375T84 418ZM118 356L119 359Q124 363 130 363T142 364Q160 364 177
362T212 359Q233 359 252 361T289 377Q289 365 282 355T265 336T243 323T221 318Q194 318 171 328T123 349L118 356ZM322 667Q311 667 301 665T279 663Q275 663 275 666Q275 670 282 674T300 680T319 683T333 685Q373 685 404 664T462 614Q469 606 480 592T492
566Q478 566 462 582T426 617T380 651T322 667Z" />
<glyph unicode="&#xa4;" glyph-name="currency" horiz-adv-x="769" d="M221 111L63 29Q59 27 52 22T38 12T23 4T12 0H11Q14 14 33 31T79 67T140 104T205 140T261 171T300 195Q308 200 311 208T322 221Q328 225 334 227T348 232T363 237T379 248L369 266L371 269H374Q401
257 423 239T466 204T513 175T571 163Q613 163 638 191T664 260L662 258Q660 250 658 241T650 224T638 210T622 204L618 210Q619 221 629 228T641 247Q622 240 605 234T567 227Q550 227 531 238T499 260Q494 260 491 260T485 255Q496 249 505 242T525 226Q529 225
536 222T551 214T566 206T577 199Q574 191 564 190T548 189Q531 189 511 197T470 217T431 243T401 269Q406 271 413 278T429 293T444 309T456 322V300L459 303Q464 317 472 331T499 345Q509 345 522 341T548 330T568 312T577 290L571 286Q557 291 545 297T518 304Q504
304 491 300T466 284Q464 278 460 275T449 272T435 271T422 269L460 263L464 258L466 249Q469 264 477 277T503 290Q517 290 526 284T544 271T566 257T600 251Q617 251 635 255T670 264Q671 258 671 252T671 238Q671 181 638 157T551 132Q543 132 535 134T519 136H518L525
118L522 114Q510 114 492 128T452 159T403 190T348 204Q317 204 307 192T292 151L252 127Q263 124 272 123T292 118L293 116L296 101H297Q304 117 314 127T342 138Q364 138 379 129T410 109T447 88T503 79Q513 79 524 80T545 82L541 78Q541 23 516 -13T430 -50Q392
-50 362 -36T306 2T261 54T221 111ZM221 121Q252 107 274 84T319 38T368 -1T433 -18Q452 -18 471 -11T504 9T528 39T537 77Q534 76 530 67T520 46T505 25T481 16L475 21Q476 25 482 30T494 42T506 55T512 71Q506 71 500 67T486 58T468 49T444 45Q410 45 385 65T338
108Q335 108 330 108T322 107Q337 98 349 86T372 62T396 39T426 18L427 14L422 10Q381 10 359 23T320 54T287 91T244 122V125Q238 125 232 124T221 121ZM15 37Q24 68 49 95T108 145T175 186T237 219H238H241L245 215H247Q240 234 239 251T237 289Q237 305 240 320T244
351V356Q239 361 234 367T225 379Q225 351 225 324T226 269Q226 259 228 250T230 232Q187 212 143 186T62 129H58Q58 136 67 148T89 171T114 193T134 208Q145 216 159 220T185 232Q177 232 171 230T158 227Q130 227 113 239T85 270T71 313T67 359Q67 362 68 368T71
382T76 394T82 400L88 395L103 322Q105 313 113 301T133 277T157 257T178 247H185H210Q205 257 201 263T193 276T187 291T185 311Q185 334 191 358T197 406L201 414L212 404Q212 418 209 432T204 460H203Q180 474 155 474Q141 474 129 471T104 462H103Q108 464
108 470Q108 475 104 485T95 507T85 528T77 545V547Q91 533 103 517T125 484L129 481H130Q141 486 151 488T171 490Q182 490 191 490T210 489Q212 502 221 523T243 564T271 600T300 619L304 616Q299 592 288 573T267 535T248 493T240 438Q240 412 249 389T279 348Q276
336 275 324T270 299L353 359H356Q356 368 354 376T352 395Q352 408 358 420T373 445T389 469T401 495L406 497Q409 497 411 493T414 484T415 474T416 466Q416 451 409 433T393 396T377 360T370 332V329Q347 306 317 287T259 249L258 232Q265 235 282 244T318 263T353
280T375 288Q374 275 351 256T292 212T215 163T134 113T64 68T21 34H19L15 37ZM470 104L474 110H489Q503 110 525 107T562 101L566 100Q563 96 557 94T544 90T529 87T518 86Q514 86 506 87T490 91T476 96T470 104ZM293 130Q293 153 307 174T347 195Q357 195 373
189T404 174T430 153T441 130L437 125Q429 125 421 129T404 138T387 147T370 151Q361 151 349 150T327 146T307 137T295 121L293 122V130ZM12 377Q12 406 22 441T52 500L56 499Q56 468 53 437T49 375Q49 350 53 326T66 281T92 243T133 215V212L130 210Q98 210 76
226T39 266T19 320T12 377ZM115 434L122 433L127 438Q139 438 148 429T164 407T174 381T178 358Q178 342 176 326T174 295Q174 280 179 275T193 260Q176 260 162 268T138 289T121 318T115 351V434ZM601 271L611 278Q631 278 650 282T689 286Q665 262 632 262Q624
262 615 263T601 271ZM504 356Q493 356 486 354T469 348L466 344L462 342L460 344Q460 363 471 369T496 382Q502 385 508 400T519 435T527 471T532 496L534 500Q539 499 539 488T540 473Q540 450 536 430T527 386L532 384Q564 377 589 366T636 325Q639 320 645
310T651 293Q651 289 647 289Q633 289 619 299T587 322T549 345T504 356ZM381 314Q381 342 390 364T410 405T431 444T440 489Q440 513 433 527T413 550T383 561T344 564H333L342 571Q342 591 340 609T337 648L342 644Q347 627 351 611T363 577H401Q413 577 425
571T447 554T464 532T471 508V467Q471 460 471 453T469 437Q445 407 425 373T385 306L381 314ZM252 432Q252 439 255 454T263 485T276 511T293 523L297 516Q299 500 294 483T288 448Q288 434 293 420T306 393T327 373T353 362Q348 355 340 354T323 352Q290 352
271 376T252 432ZM447 359Q449 379 459 398T481 436T500 476T508 519Q501 529 499 535T496 553Q496 577 509 597T544 632T589 655T634 663L638 659L637 656Q620 641 599 628T558 599T526 564T512 518Q517 510 517 500T518 481Q518 440 497 412T449 356L447 359ZM307
441Q307 469 318 489T336 534H341L345 538H347Q360 531 365 517T371 489Q371 475 366 463T354 440T343 418T337 396Q337 391 340 386T345 377H342Q322 386 315 403T307 441ZM727 590Q727 604 721 616T715 643Q715 651 716 658T723 671Q723 651 728 636T740 608T752
581T758 553Q758 532 746 511T715 471T674 440T632 422L540 400V404Q569 430 602 444T662 474T708 515T727 590ZM581 481H595Q587 486 580 493T573 510Q573 521 579 529T594 543T612 553T630 564Q642 573 647 586T656 612T662 639T674 664Q674 656 673 647T671
630L675 632L678 627Q678 612 672 599T663 571Q657 548 649 540T631 527T614 520T599 503Q624 510 644 525T685 548H686L689 544Q689 523 674 506T637 475T592 450T553 432H551V434Q556 447 564 459T581 481ZM140 466H152Q160 466 166 459T177 448Q173 444 166
444Q153 444 142 445T119 447Q111 447 104 442T88 437Q88 447 99 449Q119 466 140 466ZM49 551V555Q60 553 68 542T81 516T89 487T92 463Q92 461 91 455T86 449Q84 449 83 452T81 458Q70 479 65 503T49 551ZM525 536Q525 548 533 558T553 577T578 591T603 596Q610
596 610 590Q610 581 603 575T586 560T570 540T562 510Q562 502 564 497T573 486V485Q554 485 540 501T525 536ZM311 548Q312 551 317 553T330 556T343 559T353 560Q380 560 395 541L396 536L390 533Q373 533 356 540T319 548H311ZM311 577Q311 597 313 618T316
660V669Q321 666 324 659T330 644T333 628T334 614Q334 610 333 602T329 584T324 569T316 562Q312 562 312 568T311 577ZM688 651Q688 662 691 674T704 693Q708 692 708 685Q708 679 707 674T706 662Q706 648 708 633T711 603Q711 600 710 592T704 584Q699 584
696 593T692 613T689 636T688 651ZM632 614Q632 620 636 630T645 651T655 673T664 689L669 690Q669 667 662 646T637 608H636L632 614Z" />
<glyph unicode="&#xa5;" glyph-name="yen" horiz-adv-x="484" d="M193 42L197 45Q200 45 203 41T210 31T217 20T223 11Q231 3 240 -1T255 -15H252Q229 -15 211 2T193 42ZM134 79Q134 89 137 97T141 115Q138 117 127 120T116 127Q116 132 123 134T140 138T157 140T169
141Q198 141 226 132T285 123Q300 123 319 130L322 127Q308 107 296 104T279 95Q273 87 269 76T261 52T251 30T237 14Q233 14 232 17T230 25T229 34T229 41Q229 68 240 93V97Q235 97 232 98T223 99Q220 99 218 96T213 89T207 82T200 79Q199 79 198 80T196 81V101Q191
103 185 104T174 105Q171 105 170 101T167 90T165 79T164 71Q164 50 171 37T189 14T210 -1T226 -14H225H223Q208 -7 192 1T163 19T142 44T134 79ZM141 175L145 171Q144 169 143 167T140 162Q132 155 124 150T110 137Q102 129 97 120T84 104V110Q84 120 88 131T101
152T119 168T141 175ZM184 241Q194 241 204 239T226 237L200 248L195 255V256Q195 259 199 260T210 263T221 264T229 264Q243 264 258 262T288 259Q314 259 330 262T370 279Q370 269 365 259T350 241T331 227T311 219Q313 219 316 219T322 218Q333 218 340 221T358
226Q353 207 333 198T295 189Q266 189 240 198T184 208Q146 208 123 186T82 133H81V136Q81 138 84 147T89 159Q101 190 124 215T184 241ZM189 167L184 174Q187 180 195 181T208 182Q225 182 241 180T274 178Q294 178 313 180T349 196Q351 194 351 194V193Q351 183
344 173T327 154T306 140T285 134Q259 134 235 145T189 167ZM147 258Q151 258 152 257T153 251Q144 240 132 231T110 210Q103 203 99 197T88 185V190Q88 200 93 212T106 234T124 251T147 258ZM148 311Q120 331 102 363T73 433T55 508T42 574Q37 594 28 609T11 643H14Q18
643 22 640T30 634Q53 613 65 589T85 537T98 482T111 427T134 373T175 325Q178 322 182 322Q192 322 200 325Q195 331 189 337T182 352L185 353H186Q197 349 206 343T225 330H226V348Q208 370 197 395T178 446T164 499T151 553Q146 571 137 586T119 619H123Q150
609 164 586T186 536L234 384Q244 426 269 462T323 535T376 608T411 689L414 693Q417 691 417 687T418 678Q418 640 406 608T375 548T335 494T295 440T265 383T252 318Q252 315 256 314T263 312Q267 312 269 316T272 327T276 337T284 342L285 340V308Q295 306 301
306Q314 343 339 378T389 449T436 519T464 588L466 589Q472 587 472 578T471 563Q471 539 455 503T415 428T366 356T323 304L322 300H333Q344 300 356 301T377 310Q376 301 369 294T351 283T330 276T311 273Q281 273 253 281T195 289Q154 289 131 269T88 216L85
215V216Q85 221 89 232T100 254T112 275T122 289Q128 295 135 300T148 311ZM229 237V234Q230 235 230 236L229 237ZM432 666L433 667Q438 666 441 659T446 642T448 623T449 610Q449 582 441 559T415 512Q410 506 396 488T366 452T334 418T312 403Q312 415 321 433T344
475T373 523T402 574T424 622T432 666ZM45 641V643Q56 643 67 638T88 626Q109 611 122 585T143 528T153 466T156 410L155 407H153Q140 416 129 446T106 513T80 585T45 641Z" />
<glyph unicode="&#xa7;" glyph-name="section" horiz-adv-x="433" d="M30 -88Q38 -88 53 -94T88 -107T133 -121T185 -128Q198 -128 211 -119T233 -95T249 -64T255 -36V11Q255 23 253 36T247 63H240Q240 75 253 88T283 118T313 153T327 197Q327 215 323 235T312
273L315 277L318 275Q333 258 341 237T349 192Q349 169 342 153T324 124T298 101T269 77H267Q269 78 272 79T278 79Q289 32 289 -9Q289 -35 283 -60T262 -106T227 -139T175 -152Q154 -152 137 -147T103 -133T72 -115T38 -95Q36 -94 33 -93T30 -88ZM70 -84L71 -81H81Q98
-81 114 -84T148 -87H167Q178 -87 184 -80T194 -63T199 -42T200 -24Q200 31 187 82T152 186Q146 200 140 213T129 241Q123 247 123 259H126Q148 242 169 208T206 134T232 55T242 -11Q242 -32 240 -51T229 -86T204 -109T162 -118Q157 -118 143 -114T114 -105T86
-94T70 -84ZM175 -57L167 -44Q162 6 149 46T118 123T82 192T47 261T21 337T11 427Q11 434 13 449T23 466Q23 415 35 375T66 298T106 226T146 152T176 67T189 -39Q189 -45 185 -56T173 -68Q173 -64 174 -62T175 -57ZM227 93L237 104V105Q237 106 236 111T232 122T227
134T225 142Q212 179 187 220T136 303T93 382T74 449Q74 467 83 480T104 504V506V507L101 511H99Q80 494 71 482T62 443Q62 435 63 425T67 404T70 385T71 373L68 367Q60 373 55 383T46 404T40 428T38 449Q38 480 52 498T90 534Q92 534 92 537Q92 553 87 569T82
603Q82 639 94 669T128 722T180 756T247 769Q299 769 341 742T406 667Q411 656 416 642T422 614L421 611Q413 616 409 629T400 651Q378 691 337 716T249 741Q220 741 196 731T153 702T125 658T115 603Q115 571 126 539T155 480L289 263Q311 228 311 189Q311 169
304 155T286 129T261 108T232 90H227V93ZM263 136L264 134Q275 144 282 158T289 186Q289 199 283 211T270 234L112 486H111Q106 482 101 475T96 459Q96 442 103 428T119 401Q136 371 156 338T197 271T234 203T263 136ZM362 170Q362 177 363 184T364 200Q364 234
351 270T317 342T274 413T231 482T198 547T184 606Q184 628 191 642T211 664T241 675T277 678L281 675V674L279 673Q262 664 243 657T215 629V614Q215 591 227 565T257 508T296 444T335 376T365 302T377 225Q377 219 377 211T376 195T372 179T364 167L362 170ZM133
606Q133 631 141 654T165 694T203 722T251 732Q267 732 290 724T334 703T370 672T385 637H384Q358 659 331 675T269 692Q251 692 233 687T201 671T178 644T169 608Q169 580 182 547T210 482T237 426T249 389H247Q245 392 242 395T237 401Q221 423 203 446T170 495T144
548T133 606Z" />
<glyph unicode="&#xa8;" glyph-name="dieresis" horiz-adv-x="373" d="M82 555Q77 555 67 556T56 566Q56 569 65 573T85 586T105 608T114 643Q114 669 104 682Q102 685 99 688T97 693Q99 693 101 692T105 689Q125 678 136 661T147 627Q147 595 132 575T82 555ZM45
595Q33 590 33 601Q33 609 39 616T50 633T58 653T52 682Q50 687 45 693T42 700Q44 701 50 699T59 695Q76 687 84 671T93 643Q93 624 78 612T45 595ZM16 649Q16 654 19 660T29 667Q34 667 37 661T40 649Q40 645 37 639T29 632Q23 632 20 638T16 649ZM288 555Q283
555 273 556T262 566Q262 569 271 573T290 586T310 608T319 643Q319 668 310 682Q308 685 305 688T303 693Q304 693 307 692T311 689Q331 678 341 661T352 627Q352 595 337 575T288 555ZM251 595Q246 593 242 593T238 601Q238 609 244 616T256 633T264 653T258
682Q256 687 251 693T248 700Q250 701 256 699T264 695Q281 687 290 671T299 643Q299 624 284 612T251 595ZM222 649Q222 654 225 660T234 667Q239 667 242 661T245 649Q245 645 242 639T234 632Q228 632 225 638T222 649Z" />
<glyph unicode="&#xa9;" glyph-name="copyright" horiz-adv-x="699" d="M496 607Q462 619 426 632T353 645Q319 645 296 642T252 631T210 613T160 588H158V592Q196 630 242 648T342 667Q362 667 383 664T426 653T465 635T497 608L496 607ZM451 497Q437 497 425
502T399 507Q367 507 341 489T292 451Q273 435 260 414T238 370T225 322T221 273Q221 270 219 270Q214 270 212 277T207 294T205 313T204 325Q204 358 215 395T248 464T300 515T370 536Q398 536 422 524T451 497ZM688 337Q688 260 659 198T579 90T462 21T321 -4Q265
-4 210 13T110 63T38 144T10 253Q11 253 16 241T26 214T36 184T45 164Q65 128 95 102T160 58T236 32T315 23Q382 23 443 46T551 110T624 209T652 337Q652 400 634 455T581 555T498 630T389 678L385 684Q450 683 505 652T601 571T665 460T688 337ZM473 501Q475 498
474 497T469 499Q461 507 453 516T433 532T405 543T367 548Q325 548 291 526T232 469T193 393T179 314Q179 290 185 265T205 218T240 184T289 171Q317 171 334 179T363 203T382 237T395 279Q398 272 398 265T399 249Q399 227 390 208T366 174T331 151T288 142Q253
142 227 157T182 198T155 254T145 316Q145 359 160 404T204 487T271 547T358 571Q378 571 396 564T429 546T455 523T473 501ZM303 611Q242 611 192 586H188Q198 597 215 605T252 618T290 627T325 630Q381 630 429 605T511 540T565 448T585 342Q585 284 563 237T502
157T413 105T307 86Q253 86 209 102T134 149T85 224T67 322Q67 379 81 434T119 543Q121 546 124 551T130 559V552Q111 502 100 452T88 348Q88 242 143 181T307 119Q357 119 402 134T480 179T533 249T553 344Q553 397 534 445T482 530T403 589T303 611ZM366 486Q353
460 339 444T312 412T291 373T282 314Q282 301 283 288T288 265T302 249T327 244L333 240Q333 232 321 230T301 227Q285 227 275 235T258 255T248 281T245 308Q245 367 277 417T364 489Q367 489 366 486ZM392 263Q392 230 367 213T311 195H300Q295 195 290 200L293
203Q337 212 356 232T381 296L384 297Q389 296 390 289T392 277V263V263ZM612 259Q612 255 609 246T602 226T594 206T588 192Q568 153 539 124T475 76T399 46T316 36Q256 36 204 54T112 105T51 188T29 301Q29 321 32 346T41 396T56 443T77 482H79V478Q75 463 72
452Q69 442 67 433T64 422Q55 372 55 325Q55 266 73 219T125 139T206 89T312 71Q415 71 491 121T608 266L611 269Q612 266 612 259Z" />
<glyph unicode="&#xae;" glyph-name="registered" horiz-adv-x="712" d="M11 290Q11 359 36 420T95 540Q99 550 110 555V551Q81 493 59 433T36 306Q36 243 58 191T118 101T210 43T327 22Q396 22 457 45T565 110T639 211T667 341Q667 403 644 462T579 569T483 644T363
673Q309 673 261 653T170 601H167Q180 622 206 639T262 668T324 686T378 693Q447 693 506 662T608 581T675 466T700 337Q700 261 671 198T591 90T474 21T333 -4Q267 -4 208 16T106 73T37 166T11 290ZM385 66Q436 83 478 107T551 164T599 242T616 345Q616 412 593
466T528 560T432 620T311 641Q300 641 283 637T258 634L255 636Q283 648 307 655T364 662Q427 662 480 635T571 562T631 460T652 342Q652 286 632 235T575 145T488 83T379 60L385 66ZM90 327Q90 335 95 342H96H97L99 340Q106 239 165 182T327 125Q357 125 393 130T455
155V156Q448 157 436 161T411 170T390 183T381 200Q381 204 386 204Q389 204 399 199T422 186T446 172T462 162H464Q472 162 481 169T496 181Q535 213 555 257T575 353Q575 425 542 483T458 589Q496 576 523 545T568 477T594 403T603 342Q603 285 581 239T522 159T435
107T330 89Q276 89 232 106T156 154T107 229T90 327ZM296 240Q295 238 292 229T286 218L282 215Q279 215 278 220T276 232T275 244T275 252Q275 263 277 272T279 293Q279 298 271 307T258 316L247 306L244 310Q242 313 242 316T242 323Q242 355 250 389T259 462V477H258L251
474Q249 448 243 425T229 380T216 335T210 289Q210 254 227 225T269 169H266H264Q225 192 203 227T181 308Q181 317 185 337T196 380T208 422T219 452V453V455Q217 453 214 452T208 448L206 449Q207 456 211 463T221 474Q244 499 276 508T337 517T386 503T407 473Q407
462 398 447T376 415T350 385T329 364Q319 362 312 359T295 355V358Q295 365 298 375T304 396T311 420T314 444Q314 451 313 458T311 471H314Q331 457 334 441T337 404Q341 408 347 416T359 433T368 451T370 466Q367 478 358 484T336 491T311 491T288 485Q293 473
296 461T300 434Q300 411 291 389T274 347Q282 349 290 351T308 353Q330 353 343 342T363 314T372 278T374 242Q374 240 373 238T369 236Q363 236 357 244T345 262T335 283T327 299Q316 315 306 323T288 334T275 339T269 341Q258 339 251 332Q276 331 290 323T312
300T324 268T333 230Q337 216 348 204T374 183T404 166T433 155L436 152H430Q429 152 420 154T400 159T380 164T367 167Q350 171 339 177T320 191T307 211T296 240ZM238 244V252L242 258Q247 258 249 252T253 242Q263 222 275 204T296 166L295 164Q284 165 274
174T256 195T243 220T238 244ZM336 364Q341 369 347 369T358 373Q366 378 374 384T390 396H393L397 393Q397 384 390 376T377 362Q379 359 382 357T388 351H389H390Q402 355 417 369T444 401T465 437T474 469Q474 499 460 521T425 557T376 578T323 585Q276 585
236 563H234L233 564Q239 578 251 587T280 601T312 609T341 612Q370 612 400 603T454 577T494 534T510 477Q510 450 501 429T477 391T443 360T401 336Q424 301 430 268T437 195L433 190Q425 193 416 211T398 252T383 294T375 319Q368 336 357 343T336 364ZM56 344Q56
363 63 395T81 462T106 525T134 567Q136 566 136 560Q124 525 114 495T95 436T82 376T77 310Q77 289 79 269T82 227Q75 228 70 243T62 279T58 318T56 344ZM433 452Q434 474 425 490T399 516T362 531T323 536Q302 536 281 528T242 510Q235 505 224 494T204 481Q204
501 215 518T242 547T279 567T318 574Q337 574 360 569T404 552T437 523T451 482Q451 476 448 464T436 449L433 452Z" />
<glyph unicode="&#xb4;" glyph-name="acute" horiz-adv-x="245" d="M62 575Q68 577 67 573T64 564Q59 555 56 550T51 540T47 530T42 514Q40 509 39 508T36 506Q33 504 32 509T30 522Q30 528 31 536T37 552T47 566T62 575ZM25 536Q22 527 21 527Q19 527 18 533T16
544Q16 582 24 603T47 637T80 655T116 668T150 686T178 722Q180 727 183 721T188 706Q191 688 179 674T148 650T110 632T77 618Q50 605 40 584T25 536ZM59 527Q59 537 82 549T134 575T192 608T230 648H232Q236 648 236 642T237 634Q237 612 218 592T170 557T113
532T63 523Q59 523 59 527ZM96 595Q98 602 114 611T150 632T185 661T201 703Q201 706 201 706T207 704Q213 699 214 686T216 664Q216 646 205 632T177 609T140 595T103 590Q101 590 98 590T96 595Z" />
<glyph unicode="&#xb6;" glyph-name="paragraph" horiz-adv-x="416" d="M241 75Q241 86 241 97T244 121Q244 123 244 128T246 140T248 150T252 155Q257 155 257 149T258 140Q260 112 261 85T266 29Q268 13 271 -1T274 -31Q265 -31 259 -20T248 5T243 34T241 56V75ZM196
164Q196 236 211 306T247 445Q264 506 284 566T325 686V688L322 686Q281 659 247 624T188 546T152 457T141 359Q146 346 152 341T178 336V334Q178 331 174 329T165 325T154 323T145 322Q133 322 126 328T116 345T112 365T111 385Q111 476 153 551T273 673Q276 675
283 678T299 685T315 690T326 692L342 752L345 754H347Q348 749 348 745T348 736Q347 720 346 701T341 667L244 296Q231 248 228 201T225 105Q225 79 229 52T238 0Q238 -2 241 -13T244 -25V-28Q242 -27 240 -23T235 -14T230 -5T226 0Q207 35 202 79T196 164ZM277
67Q277 70 276 74T277 84Q281 113 284 144T293 203Q298 227 307 261T328 334T350 414T371 492T386 562T392 614L396 619Q402 616 403 602T405 571T402 539T399 518Q396 507 389 471T371 387T347 285T322 185T298 105T279 67H277ZM269 282Q286 387 310 489T358 695Q359
700 359 705T360 715L364 721H366L367 719Q376 702 376 685T377 649Q377 629 375 598T367 540Q352 473 330 406T282 275Q280 273 277 266T271 259L269 262Q269 266 268 271T269 282ZM11 414Q11 491 43 553T132 667Q146 680 163 689T200 699V693Q131 640 88 567T45
406Q45 362 54 338T74 302T96 283T111 270Q87 270 69 285T37 322T18 369T11 414ZM82 322Q82 323 83 324T84 327Q96 322 107 315T133 308Q152 308 165 316T195 326L199 322Q188 306 171 296T134 286Q127 286 118 288T101 295T88 307T82 322ZM77 470Q77 508 94 548T141
623T207 679T285 701L292 699L289 695Q249 674 220 650T167 598T125 535T88 462L82 456Q78 458 78 462T77 470Z" />
<glyph unicode="&#xb7;" glyph-name="middot" horiz-adv-x="319" d="M224 231Q219 231 209 232T198 242Q198 245 207 249T227 262T247 283T256 318Q256 344 246 357Q244 360 241 363T239 368Q241 368 243 367T247 364Q267 353 277 336T288 302Q288 270 273 251T224
231ZM187 270Q175 265 175 276Q175 284 181 291T192 308T200 328T194 357Q192 362 187 368T184 375Q186 376 192 374T201 370Q218 362 226 346T235 318Q235 299 220 287T187 270ZM158 324Q158 329 161 335T171 342Q176 342 179 336T182 324Q182 320 179 314T171
307Q164 307 161 313T158 324Z" />
<glyph unicode="&#xb8;" glyph-name="cedilla" horiz-adv-x="299" d="M62 -221L63 -220Q94 -219 126 -213T185 -191T228 -152T245 -89Q245 -45 219 -24T151 -3Q144 -3 139 -11T121 -20Q110 -20 110 -11Q110 -5 115 -2T125 5T134 16T137 37L136 47Q140 46 145 40T155
26T163 13T169 7Q173 7 177 8T186 10Q207 10 224 1T253 -24T271 -59T278 -98Q278 -131 265 -157T231 -203T181 -232T121 -243Q117 -243 108 -242T88 -237T70 -230T62 -221ZM99 -183Q106 -183 110 -187Q108 -193 94 -198T61 -208T25 -217T1 -222Q20 -201 46 -192T99
-183ZM15 -192Q21 -189 37 -178T74 -152T113 -124T142 -100Q150 -93 148 -91T137 -91Q133 -94 129 -98T118 -103Q118 -88 129 -77T158 -65Q179 -65 179 -88Q179 -113 160 -128T121 -152L12 -198L15 -192ZM82 -7Q82 -21 91 -35T111 -58Q115 -44 135 -34T176 -23T215
-37T233 -88Q233 -101 228 -116T213 -144T190 -165T163 -174L156 -172Q156 -168 162 -161T175 -144T189 -122T195 -96Q195 -79 185 -67T158 -55Q133 -55 125 -63T112 -76Q106 -69 96 -59T77 -38T60 -15T53 5Q53 19 62 25T82 35T102 47T111 70Q119 65 125 54T132
37Q132 27 124 23T107 16T90 9T82 -7Z" />
<glyph unicode="&#xbf;" glyph-name="questiondown" horiz-adv-x="330" d="M67 148Q70 187 89 215T127 266Q129 268 135 274T144 279Q147 278 143 271T137 259Q119 230 109 196T102 131T128 80T198 56Q223 54 244 62T279 83T300 109T304 131Q302 137 302 138T304
139T308 136T311 131Q315 123 315 112T311 88T298 63T275 40Q243 17 205 17T136 33T84 80T67 148ZM63 289Q97 336 135 377T192 451Q194 455 196 458T200 460Q203 459 202 455T198 445Q189 410 168 376T122 307Q110 291 97 273T72 233T55 185T52 129Q56 89 81 60T140
15T215 2T289 26Q295 31 296 30Q298 26 293 21Q282 6 256 -5T196 -18T125 -6T57 41Q41 58 32 78T20 119T16 160T20 197Q31 229 43 251T63 289ZM203 508Q198 506 197 507T197 509L200 512Q219 520 239 512T270 477Q279 451 278 424T268 373Q261 349 251 328T228
286T204 248T182 214Q156 172 153 148T183 104Q202 96 220 98T252 108T273 129T278 158Q277 164 280 161T285 156Q296 138 289 119T263 87T219 69T168 78Q142 91 132 110T122 150T135 195T163 242Q186 272 205 308T242 386Q250 405 251 428T248 471T232 502T203
508ZM215 469Q210 484 202 487T188 490Q183 490 182 492T186 496Q190 497 197 499T211 500T226 493T238 473Q242 461 239 443T229 409T215 381T204 371Q202 372 203 377T206 389T210 402T212 412Q215 430 217 442T215 469ZM226 706Q248 711 270 705T297 688Q299
685 297 681T289 677Q280 677 274 678T262 679T249 679T230 674Q219 670 207 657T189 623Q189 620 185 620T179 623Q172 641 174 655T185 679T204 697T226 706ZM225 651Q237 660 249 659T272 651Q277 651 281 644Q282 642 281 640T277 636Q272 633 267 632T256
626Q248 621 244 614T236 600T229 590T222 588Q212 591 209 599T207 617T214 636T225 651ZM268 596Q263 591 257 589T249 589Q246 592 248 598T255 610Q259 614 264 615T272 615Q274 613 274 607T268 596Z" />
<glyph unicode="&#xc0;" glyph-name="Agrave" horiz-adv-x="620" d="M347 716Q345 719 342 725T340 734Q342 736 346 733T352 729Q370 716 385 693T413 643T436 585T452 528Q467 462 477 398T488 266Q488 264 488 254T485 242Q482 244 479 252T474 263Q462 300
453 347T435 434Q429 464 424 491T413 545T398 597T377 653Q375 657 371 667T361 687T352 705T347 716ZM587 -25Q576 -19 572 -18T557 -9Q533 5 513 27T477 77T449 134T427 195Q407 182 380 180T329 177Q300 177 272 179T214 181Q186 129 162 81T123 -10Q123 -11
122 -14T119 -18Q116 -18 116 -11T116 -2Q116 38 135 87T179 185L164 186Q158 172 148 147T128 95T111 43T103 3Q103 0 100 0Q96 0 94 6T91 21T89 37T88 49Q88 84 97 122T121 193L108 195Q99 173 91 152T77 107Q77 105 76 102T73 100Q71 104 71 109T70 119Q70 161
85 200Q90 210 95 210Q116 216 137 217T182 218Q232 218 281 211T379 203Q403 203 423 207L421 223Q410 220 398 219T374 218Q335 218 294 226T214 245Q212 247 206 248T200 253Q200 255 206 256T214 258Q228 259 241 259T269 260Q292 260 315 260T362 259Q374
259 387 259T412 260L410 271H397Q349 271 302 280T206 289Q165 289 134 279T80 256T43 230T23 211Q21 210 21 210Q20 210 20 212Q20 213 21 214Q39 249 65 272T129 308Q167 389 207 469T293 627Q294 629 297 633T303 638Q304 637 304 636V634Q304 626 303 622Q284
541 247 466T171 318L190 319Q193 325 205 345T232 386T259 425T274 443L275 440Q275 435 269 418T255 381T240 344T229 319Q235 319 241 319T253 318Q271 354 291 393T327 474T347 557T341 640Q341 635 339 620T332 589T324 560T316 547Q313 547 313 551T314 556Q314
582 317 607T321 659Q321 694 310 727Q310 728 307 735T309 743Q311 743 316 738Q326 728 335 711T353 675T368 636T379 604Q392 561 400 518T415 431T429 343T445 256Q454 214 466 174T497 98T538 32T593 -22Q598 -27 597 -28T587 -25ZM585 60Q586 54 584 54T580
58T575 65T572 70Q548 114 534 159T512 251T499 345T486 442T466 543T432 647Q431 649 429 654T429 660Q431 660 434 657L438 653Q460 627 477 584T507 492T528 395T542 311Q550 254 559 191T582 72L585 60ZM288 314Q317 311 345 307T403 301Q392 354 384 406T369
512Q356 460 334 411T288 314ZM617 -14Q597 -5 582 3T556 27Q539 50 530 73T514 116Q512 124 511 134T511 144Q515 144 521 131T532 109Q547 78 570 47T620 -5Q628 -12 625 -14T617 -14ZM26 178Q26 178 24 178H23Q23 181 24 184T26 190Q34 207 41 215T66 234Q76
240 94 246T123 252Q125 252 128 252T132 248Q132 245 122 240T108 233Q70 210 52 198T26 178ZM416 810Q425 808 431 802T441 787T446 771T448 757Q448 749 447 744T442 741Q441 742 439 743T435 749Q433 759 431 764T427 774T421 784T414 799Q412 804 411 808T416
810ZM453 771Q449 797 439 818T401 853Q388 859 368 866T330 884T300 909T290 941Q292 950 295 956T300 957Q311 933 327 922T362 903T398 890T430 872T452 839T461 779Q461 774 460 768T457 762Q456 762 453 771ZM419 762Q419 758 415 758Q395 758 365 767T308
791T261 827T241 869Q241 871 241 877T246 883H248Q258 861 286 843T343 811T396 784T419 762ZM382 830Q383 826 380 826T375 825Q358 825 338 830T301 844T273 867T261 899Q261 907 263 920T271 939Q276 941 276 941T277 938Q277 914 292 897T327 867T363 846T382
830Z" />
<glyph unicode="&#xc1;" glyph-name="Aacute" horiz-adv-x="620" d="M347 716Q345 719 342 725T340 734Q342 736 346 733T352 729Q370 716 385 693T413 643T436 585T452 528Q467 462 477 398T488 266Q488 264 488 254T485 242Q482 244 479 252T474 263Q462 300
453 347T435 434Q429 464 424 491T413 545T398 597T377 653Q375 657 371 667T361 687T352 705T347 716ZM587 -25Q576 -19 572 -18T557 -9Q533 5 513 27T477 77T449 134T427 195Q407 182 380 180T329 177Q300 177 272 179T214 181Q186 129 162 81T123 -10Q123 -11
122 -14T119 -18Q116 -18 116 -11T116 -2Q116 38 135 87T179 185L164 186Q158 172 148 147T128 95T111 43T103 3Q103 0 100 0Q96 0 94 6T91 21T89 37T88 49Q88 84 97 122T121 193L108 195Q99 173 91 152T77 107Q77 105 76 102T73 100Q71 104 71 109T70 119Q70 161
85 200Q90 210 95 210Q116 216 137 217T182 218Q232 218 281 211T379 203Q403 203 423 207L421 223Q410 220 398 219T374 218Q335 218 294 226T214 245Q212 247 206 248T200 253Q200 255 206 256T214 258Q228 259 241 259T269 260Q292 260 315 260T362 259Q374
259 387 259T412 260L410 271H397Q349 271 302 280T206 289Q165 289 134 279T80 256T43 230T23 211Q21 210 21 210Q20 210 20 212Q20 213 21 214Q39 249 65 272T129 308Q167 389 207 469T293 627Q294 629 297 633T303 638Q304 637 304 636V634Q304 626 303 622Q284
541 247 466T171 318L190 319Q193 325 205 345T232 386T259 425T274 443L275 440Q275 435 269 418T255 381T240 344T229 319Q235 319 241 319T253 318Q271 354 291 393T327 474T347 557T341 640Q341 635 339 620T332 589T324 560T316 547Q313 547 313 551T314 556Q314
582 317 607T321 659Q321 694 310 727Q310 728 307 735T309 743Q311 743 316 738Q326 728 335 711T353 675T368 636T379 604Q392 561 400 518T415 431T429 343T445 256Q454 214 466 174T497 98T538 32T593 -22Q598 -27 597 -28T587 -25ZM585 60Q586 54 584 54T580
58T575 65T572 70Q548 114 534 159T512 251T499 345T486 442T466 543T432 647Q431 649 429 654T429 660Q431 660 434 657L438 653Q460 627 477 584T507 492T528 395T542 311Q550 254 559 191T582 72L585 60ZM288 314Q317 311 345 307T403 301Q392 354 384 406T369
512Q356 460 334 411T288 314ZM617 -14Q597 -5 582 3T556 27Q539 50 530 73T514 116Q512 124 511 134T511 144Q515 144 521 131T532 109Q547 78 570 47T620 -5Q628 -12 625 -14T617 -14ZM26 178Q26 178 24 178H23Q23 181 24 184T26 190Q34 207 41 215T66 234Q76
240 94 246T123 252Q125 252 128 252T132 248Q132 245 122 240T108 233Q70 210 52 198T26 178ZM307 813Q313 815 312 811T309 802Q304 793 301 788T296 778T292 768T287 752Q285 747 284 746T281 744Q278 742 277 747T275 760Q275 766 276 774T282 790T292 804T307
813ZM270 774Q267 765 266 765Q264 765 263 771T261 782Q261 820 269 841T292 875T325 893T361 906T395 924T423 960Q425 965 428 959T433 944Q436 926 424 912T393 888T355 870T322 856Q295 843 285 822T270 774ZM304 765Q304 775 327 787T379 813T437 846T475
886H477Q481 886 481 880T482 872Q482 850 463 830T415 795T358 770T308 761Q304 761 304 765ZM341 833Q343 840 359 849T395 870T430 899T446 941Q446 944 446 944T452 942Q458 937 459 924T461 902Q461 884 450 870T422 847T385 833T348 828Q346 828 343 828T341
833Z" />
<glyph unicode="&#xc2;" glyph-name="Acircumflex" horiz-adv-x="620" d="M347 716Q345 719 342 725T340 734Q342 736 346 733T352 729Q370 716 385 693T413 643T436 585T452 528Q467 462 477 398T488 266Q488 264 488 254T485 242Q482 244 479 252T474 263Q462
300 453 347T435 434Q429 464 424 491T413 545T398 597T377 653Q375 657 371 667T361 687T352 705T347 716ZM587 -25Q576 -19 572 -18T557 -9Q533 5 513 27T477 77T449 134T427 195Q407 182 380 180T329 177Q300 177 272 179T214 181Q186 129 162 81T123 -10Q123
-11 122 -14T119 -18Q116 -18 116 -11T116 -2Q116 38 135 87T179 185L164 186Q158 172 148 147T128 95T111 43T103 3Q103 0 100 0Q96 0 94 6T91 21T89 37T88 49Q88 84 97 122T121 193L108 195Q99 173 91 152T77 107Q77 105 76 102T73 100Q71 104 71 109T70 119Q70
161 85 200Q90 210 95 210Q116 216 137 217T182 218Q232 218 281 211T379 203Q403 203 423 207L421 223Q410 220 398 219T374 218Q335 218 294 226T214 245Q212 247 206 248T200 253Q200 255 206 256T214 258Q228 259 241 259T269 260Q292 260 315 260T362 259Q374
259 387 259T412 260L410 271H397Q349 271 302 280T206 289Q165 289 134 279T80 256T43 230T23 211Q21 210 21 210Q20 210 20 212Q20 213 21 214Q39 249 65 272T129 308Q167 389 207 469T293 627Q294 629 297 633T303 638Q304 637 304 636V634Q304 626 303 622Q284
541 247 466T171 318L190 319Q193 325 205 345T232 386T259 425T274 443L275 440Q275 435 269 418T255 381T240 344T229 319Q235 319 241 319T253 318Q271 354 291 393T327 474T347 557T341 640Q341 635 339 620T332 589T324 560T316 547Q313 547 313 551T314 556Q314
582 317 607T321 659Q321 694 310 727Q310 728 307 735T309 743Q311 743 316 738Q326 728 335 711T353 675T368 636T379 604Q392 561 400 518T415 431T429 343T445 256Q454 214 466 174T497 98T538 32T593 -22Q598 -27 597 -28T587 -25ZM585 60Q586 54 584 54T580
58T575 65T572 70Q548 114 534 159T512 251T499 345T486 442T466 543T432 647Q431 649 429 654T429 660Q431 660 434 657L438 653Q460 627 477 584T507 492T528 395T542 311Q550 254 559 191T582 72L585 60ZM288 314Q317 311 345 307T403 301Q392 354 384 406T369
512Q356 460 334 411T288 314ZM617 -14Q597 -5 582 3T556 27Q539 50 530 73T514 116Q512 124 511 134T511 144Q515 144 521 131T532 109Q547 78 570 47T620 -5Q628 -12 625 -14T617 -14ZM26 178Q26 178 24 178H23Q23 181 24 184T26 190Q34 207 41 215T66 234Q76
240 94 246T123 252Q125 252 128 252T132 248Q132 245 122 240T108 233Q70 210 52 198T26 178ZM203 846Q205 857 216 870T242 894T276 909T310 909Q318 906 326 902T341 893T351 884T354 876Q353 874 349 876T339 880Q312 886 287 882T239 859Q231 853 223 843T212
824Q209 818 208 820Q203 824 203 832T203 846ZM510 772Q485 772 470 781T444 804T425 834T408 866T385 892T351 907Q338 909 330 915T318 929T312 942T313 949Q317 950 319 947T325 939T337 931T362 927Q390 926 407 917T436 895T455 865T469 832T486 801T513
779Q518 777 519 775T510 772ZM421 750Q421 747 416 747T409 746Q381 746 366 762T342 795Q324 786 300 778T265 753Q263 750 260 743T254 736Q253 736 252 739T251 754Q253 775 264 788T288 810T312 821T328 825Q322 841 319 849T315 860T313 864T312 868Q310
872 312 873T318 873Q341 865 351 845T373 803Q382 784 393 774T421 751V750ZM494 761Q488 756 479 755T458 754Q439 754 425 763T402 785T389 816T384 850Q384 852 385 855T388 858Q399 858 407 841T429 803Q440 789 455 779T491 762H493Q494 761 494 761ZM299
857Q307 857 308 853T305 844Q298 836 288 829T267 812T247 789T232 754Q231 749 231 746T228 742Q226 742 223 754Q218 765 218 778T221 803Q235 839 255 848T299 857Z" />
<glyph unicode="&#xc3;" glyph-name="Atilde" horiz-adv-x="620" d="M347 716Q345 719 342 725T340 734Q342 736 346 733T352 729Q370 716 385 693T413 643T436 585T452 528Q467 462 477 398T488 266Q488 264 488 254T485 242Q482 244 479 252T474 263Q462 300
453 347T435 434Q429 464 424 491T413 545T398 597T377 653Q375 657 371 667T361 687T352 705T347 716ZM587 -25Q576 -19 572 -18T557 -9Q533 5 513 27T477 77T449 134T427 195Q407 182 380 180T329 177Q300 177 272 179T214 181Q186 129 162 81T123 -10Q123 -11
122 -14T119 -18Q116 -18 116 -11T116 -2Q116 38 135 87T179 185L164 186Q158 172 148 147T128 95T111 43T103 3Q103 0 100 0Q96 0 94 6T91 21T89 37T88 49Q88 84 97 122T121 193L108 195Q99 173 91 152T77 107Q77 105 76 102T73 100Q71 104 71 109T70 119Q70 161
85 200Q90 210 95 210Q116 216 137 217T182 218Q232 218 281 211T379 203Q403 203 423 207L421 223Q410 220 398 219T374 218Q335 218 294 226T214 245Q212 247 206 248T200 253Q200 255 206 256T214 258Q228 259 241 259T269 260Q292 260 315 260T362 259Q374
259 387 259T412 260L410 271H397Q349 271 302 280T206 289Q165 289 134 279T80 256T43 230T23 211Q21 210 21 210Q20 210 20 212Q20 213 21 214Q39 249 65 272T129 308Q167 389 207 469T293 627Q294 629 297 633T303 638Q304 637 304 636V634Q304 626 303 622Q284
541 247 466T171 318L190 319Q193 325 205 345T232 386T259 425T274 443L275 440Q275 435 269 418T255 381T240 344T229 319Q235 319 241 319T253 318Q271 354 291 393T327 474T347 557T341 640Q341 635 339 620T332 589T324 560T316 547Q313 547 313 551T314 556Q314
582 317 607T321 659Q321 694 310 727Q310 728 307 735T309 743Q311 743 316 738Q326 728 335 711T353 675T368 636T379 604Q392 561 400 518T415 431T429 343T445 256Q454 214 466 174T497 98T538 32T593 -22Q598 -27 597 -28T587 -25ZM585 60Q586 54 584 54T580
58T575 65T572 70Q548 114 534 159T512 251T499 345T486 442T466 543T432 647Q431 649 429 654T429 660Q431 660 434 657L438 653Q460 627 477 584T507 492T528 395T542 311Q550 254 559 191T582 72L585 60ZM288 314Q317 311 345 307T403 301Q392 354 384 406T369
512Q356 460 334 411T288 314ZM617 -14Q597 -5 582 3T556 27Q539 50 530 73T514 116Q512 124 511 134T511 144Q515 144 521 131T532 109Q547 78 570 47T620 -5Q628 -12 625 -14T617 -14ZM26 178Q26 178 24 178H23Q23 181 24 184T26 190Q34 207 41 215T66 234Q76
240 94 246T123 252Q125 252 128 252T132 248Q132 245 122 240T108 233Q70 210 52 198T26 178ZM273 813Q271 816 281 820T300 825Q311 826 325 819T355 802T388 784T423 776Q441 776 453 780T474 790T487 801T496 806Q496 805 496 804T497 801Q497 789 489 779T468
760T441 748T417 743Q389 743 362 756T315 788Q305 797 298 800T286 805T277 807T273 813ZM203 806Q203 828 211 848T233 884T266 909T308 918Q338 918 361 909T400 890T428 870T445 861Q455 861 462 862T480 870Q483 872 486 872T487 868Q474 849 464 843T437
836Q430 836 416 844T385 862T347 880T306 888Q281 888 265 877T238 850T220 821T204 801Q203 802 203 806ZM458 810Q458 814 463 823T476 840T491 856T503 864Q507 864 507 859Q507 852 503 843T492 825T477 811T462 805Q458 805 458 810ZM306 875Q317 875 329
871T353 859T374 842T388 822Q387 818 381 818Q370 818 360 821T341 829T322 836T302 840Q290 840 281 835T264 823T246 812T226 806V812Q240 836 257 855T306 875Z" />
</font>
</defs>
</svg>
