<?xml version="1.0" standalone="no"?>
<!DOCTYPE svg PUBLIC "-//W3C//DTD SVG 1.1//EN" "http://www.w3.org/Graphics/SVG/1.1/DTD/svg11.dtd">
<svg xmlns="http://www.w3.org/2000/svg">
<defs >
<font id="Overpass" horiz-adv-x="589" ><font-face
    font-family="Overpass ExtraBold"
    units-per-em="1000"
    panose-1="0 0 9 0 0 0 0 0 0 0"
    ascent="982"
    descent="-284"
    alphabetic="0" />
<glyph unicode=" " glyph-name="space" horiz-adv-x="250" />
<glyph unicode="!" glyph-name="exclam" horiz-adv-x="300" d="M112 193L84 486V712H214V486L186 193H112ZM186 -12T149 -12T88 12T63 73T87 134T149 159T211 134T237 73Q237 38 212 13Z" />
<glyph unicode="&quot;" glyph-name="quotedbl" horiz-adv-x="448" d="M45 700H201L177 409H69L45 700ZM247 700H403L379 409H271L247 700Z" />
<glyph unicode="#" glyph-name="numbersign" horiz-adv-x="700" d="M121 0L148 176H42L58 288H165L186 429H80L96 541H204L227 700H341L317 541H438L463 700H576L552 541H658L642 429H535L514 288H620L603 176H497L470 0H356L383 176H262L235 0H121ZM279 288H400L421
429H300L279 288Z" />
<glyph unicode="$" glyph-name="dollar" horiz-adv-x="601" d="M234 -92V-3Q99 31 50 178L173 223Q194 175 229 146T308 116Q352 116 377 138T403 201Q403 223 394 239T363 270T324 291T273 312Q236 326 217 334T167 362T120 400T91 452T78 523Q78 589 119 639T234
705V785H365V704Q480 674 515 551L394 511Q365 584 291 584Q256 584 236 568T216 523Q216 501 234 484T272 457T333 433Q371 419 391 410T444 381T495 339T527 282T541 202Q541 118 492 64T365 -6V-92H234Z" />
<glyph unicode="%" glyph-name="percent" horiz-adv-x="844" d="M215 346Q129 346 87 401T45 529Q45 561 54 591T83 650T136 695T215 712Q301 712 343 657T385 529Q385 497 376 467T348 408T295 363T215 346ZM248 -12H119L596 712H725L248 -12ZM187 454T215 454T258
475T273 529Q273 563 258 583T215 604T172 583T157 529Q157 495 172 475ZM629 -12Q543 -12 501 42T459 171Q459 203 468 233T497 292T550 337T629 354Q715 354 757 300T799 171Q799 126 784 87T729 18T629 -12ZM629 96Q657 96 672 117T687 171Q687 205 672 225T629
246T586 225T571 171Q571 96 629 96Z" />
<glyph unicode="&amp;" glyph-name="ampersand" horiz-adv-x="719" d="M273 -12Q176 -12 118 43T60 190Q60 316 209 394Q143 471 143 548Q143 626 193 669T321 712Q398 712 446 668T495 550Q495 447 384 374L461 282Q469 316 469 350H597Q597 245 552 173L696
0H527L473 67Q394 -12 273 -12ZM318 612Q294 612 280 597T265 556Q265 513 315 457Q373 492 373 548Q373 579 357 595T318 612ZM287 113Q348 113 399 158L279 306Q195 260 195 194Q195 157 219 135T287 113Z" />
<glyph unicode="&apos;" glyph-name="quotesingle" horiz-adv-x="246" d="M45 700H201L177 409H69L45 700Z" />
<glyph unicode="(" glyph-name="parenleft" horiz-adv-x="372" d="M192 -130Q140 -61 105 44T70 283Q70 418 108 531T203 712H332Q287 657 244 540T201 283Q201 146 240 37T321 -130H192Z" />
<glyph unicode=")" glyph-name="parenright" horiz-adv-x="372" d="M51 -130Q68 -105 85 -71T124 15T158 138T171 283Q171 423 128 540T40 712H169Q225 644 263 531T302 283Q302 149 267 44T180 -130H51Z" />
<glyph unicode="*" glyph-name="asterisk" horiz-adv-x="550" d="M287 379L275 426L263 379L189 280L92 350L166 450L205 469L158 470L50 506L87 622L197 586L230 561L214 601V720H336V601L320 561L353 586L463 622L500 506L392 470L345 469L384 450L458 350L361
280L287 379Z" />
<glyph unicode="+" glyph-name="plus" horiz-adv-x="630" d="M380 280V108H250V280H80V406H250V578H380V406H550V280H380Z" />
<glyph unicode="," glyph-name="comma" horiz-adv-x="247" d="M35 -100Q51 -86 71 -58T100 -8Q43 12 43 70Q43 106 68 129T127 153Q164 153 188 128T212 57Q212 1 176 -54T90 -141L35 -100Z" />
<glyph unicode="-" glyph-name="hyphen" horiz-adv-x="412" d="M75 233V358H337V233H75Z" />
<glyph unicode="." glyph-name="period" horiz-adv-x="241" d="M156 -12T120 -12T60 11T36 70T60 129T120 153T180 129T205 70T181 12Z" />
<glyph unicode="/" glyph-name="slash" horiz-adv-x="522" d="M-15 -130L378 712H512L119 -130H-15Z" />
<glyph unicode="0" glyph-name="zero" horiz-adv-x="660" d="M402 -12T330 -12T206 19T125 105T85 220T72 350Q72 420 84 480T125 595T205 680T330 712Q388 712 433 691T507 636T554 553T580 456T588 350Q588 281 576 221T535 106T455 20ZM296 116T330 116T389
135T427 189T447 263T453 350T447 436T428 510T389 564T330 584T271 565T233 511T213 437T207 350T213 264T232 190T271 136Z" />
<glyph unicode="1" glyph-name="one" horiz-adv-x="411" d="M139 0V518H32V625Q141 625 166 700H274V0H139Z" />
<glyph unicode="2" glyph-name="two" horiz-adv-x="612" d="M62 0Q62 144 127 235T306 388Q353 413 379 439T406 502Q406 541 382 562T315 584Q231 584 194 505L73 560Q103 630 167 671T312 712Q417 712 479 654T541 505Q541 423 502 375T381 281Q308 239 272
206T222 130H547V0H62Z" />
<glyph unicode="3" glyph-name="three" horiz-adv-x="600" d="M293 -12Q205 -12 141 32T46 152L168 201Q212 116 297 116Q344 116 373 140T403 206Q403 247 376 273T295 299H227V428H295Q333 428 356 449T379 506Q379 540 357 562T293 584Q227 584 191 520L69
567Q100 634 158 673T295 712Q391 712 452 657T514 518Q514 419 429 368Q477 349 507 306T538 206Q538 103 471 46T293 -12Z" />
<glyph unicode="4" glyph-name="four" horiz-adv-x="652" d="M378 0V140H12V226L370 700H510V265H595V140H510V0H378ZM378 265V522L188 265H378Z" />
<glyph unicode="5" glyph-name="five" horiz-adv-x="604" d="M274 -12Q141 -12 57 55L130 161Q200 116 274 116Q335 116 371 147T408 235Q408 283 382 310T309 338Q246 338 202 289L77 348L95 700H499V570H220L212 443Q263 466 315 466Q424 466 483 400T543 235Q543
122 468 55T274 -12Z" />
<glyph unicode="6" glyph-name="six" horiz-adv-x="614" d="M317 -12Q195 -12 129 63T62 258Q62 437 163 558T472 712V584Q386 571 319 528T223 409Q269 444 338 444Q438 444 502 380T567 215T498 51T317 -12ZM266 116T317 116T400 142T432 215T400 288T317 316T234
289T201 215T233 143Z" />
<glyph unicode="7" glyph-name="seven" horiz-adv-x="541" d="M167 0Q168 171 212 306T348 570H22V700H504V581Q404 468 353 300T302 0H167Z" />
<glyph unicode="8" glyph-name="eight" horiz-adv-x="629" d="M314 -12Q199 -12 131 49T62 211Q62 329 178 383Q90 430 90 527Q90 610 150 661T314 712T478 661T539 527Q539 478 514 441T450 384Q504 359 535 314T567 211Q567 110 499 49T314 -12ZM314 441Q354
441 379 463T405 518Q405 550 380 571T314 592Q273 592 249 572T224 518Q224 484 248 463T314 441ZM314 110Q365 110 398 139T432 213Q432 259 399 288T314 317Q262 317 230 288T197 213Q197 168 229 139T314 110Z" />
<glyph unicode="9" glyph-name="nine" horiz-adv-x="614" d="M161 -12V116Q356 122 402 298Q357 260 283 260Q178 260 113 321T47 487Q47 589 117 650T300 712Q426 712 489 638T552 441Q552 232 455 113T161 -12ZM244 388T299 388T385 414T417 488Q417 532 385
559T300 586Q246 586 214 560T182 488Q182 440 213 414Z" />
<glyph unicode=":" glyph-name="colon" horiz-adv-x="241" d="M156 321T120 321T60 344T36 403T60 462T120 486T180 462T205 403T181 345ZM156 -12T120 -12T60 11T36 70T60 129T120 153T180 129T205 70T181 12Z" />
<glyph unicode=";" glyph-name="semicolon" horiz-adv-x="241" d="M160 321T124 321T64 344T40 403T64 462T124 486T184 462T209 403T185 345ZM32 -100Q83 -57 97 -8Q40 12 40 70Q40 106 65 129T124 153Q161 153 185 128T209 57Q209 -3 174 -56T87 -141L32 -100Z" />
<glyph unicode="&lt;" glyph-name="less" horiz-adv-x="630" d="M550 98L80 290V396L550 588V452L274 343L550 233V98Z" />
<glyph unicode="=" glyph-name="equal" horiz-adv-x="630" d="M80 391V517H550V391H80ZM80 169V295H550V169H80Z" />
<glyph unicode="&gt;" glyph-name="greater" horiz-adv-x="630" d="M550 290L80 98V234L356 343L80 453V588L550 396V290Z" />
<glyph unicode="?" glyph-name="question" horiz-adv-x="505" d="M179 189V225Q179 276 195 315T236 376T283 417T323 458T340 509Q340 544 317 565T253 587Q203 587 177 557T150 469H20Q20 584 84 648T253 712Q356 712 413 655T470 509Q470 470 458 440T428 390T390
352T351 318T321 278T309 224V189H179ZM281 -12T245 -12T185 11T161 70T185 129T245 153T305 129T330 70T306 12Z" />
<glyph unicode="@" glyph-name="at" horiz-adv-x="837" d="M426 -12Q260 -12 160 80T60 338Q60 500 168 606T435 712Q588 712 682 626T777 412Q777 302 716 230T564 158Q539 158 515 171T483 210Q452 158 384 158Q320 158 280 205T240 329Q240 409 292 472T426
536Q485 536 508 495L513 523H612L579 345Q566 280 566 265Q566 248 583 248Q621 248 650 292T679 410Q679 499 618 556T440 614Q318 614 241 536T164 337Q164 217 235 152T430 86Q489 86 567 105L538 -4Q476 -12 426 -12ZM396 256Q434 256 458 291T482 368Q482
401 468 419T428 438Q390 438 366 406T342 327Q342 295 356 276T396 256Z" />
<glyph unicode="A" glyph-name="A" horiz-adv-x="732" d="M555 0L501 145H231L177 0H32L300 700H432L700 0H555ZM457 268L388 450Q372 490 366 513Q360 490 344 450L275 268H457Z" />
<glyph unicode="B" glyph-name="B" horiz-adv-x="693" d="M80 700H387Q506 700 560 647T614 512Q614 409 529 369Q584 349 611 304T638 208Q638 123 580 62T401 0H80V700ZM371 425Q424 425 450 445T477 500Q477 574 389 574H215V425H371ZM408 126Q457 126 479
150T501 208Q501 299 380 299H215V126H408Z" />
<glyph unicode="C" glyph-name="C" horiz-adv-x="640" d="M349 -11Q270 -11 211 20T119 105T71 220T55 350Q55 414 71 474T120 589T212 677T349 711Q443 711 507 665T599 553L478 498Q450 541 421 561T349 581Q294 581 258 544T208 457T195 350Q195 259 234 189T349
119Q422 119 476 209L600 162Q522 -11 349 -11Z" />
<glyph unicode="D" glyph-name="D" horiz-adv-x="710" d="M80 700H316Q404 700 471 671T578 590T636 479T655 350Q655 300 645 252T608 158T544 77T446 21T312 0H80V700ZM328 128Q423 128 469 194T515 350Q515 441 470 506T339 572H215V128H328Z" />
<glyph unicode="E" glyph-name="E" horiz-adv-x="624" d="M80 0V700H558V572H215V425H417V297H215V128H579V0H80Z" />
<glyph unicode="F" glyph-name="F" horiz-adv-x="574" d="M80 0V700H549V572H215V425H427V297H215V0H80Z" />
<glyph unicode="G" glyph-name="G" horiz-adv-x="673" d="M363 -12Q285 -12 225 18T128 101T73 216T55 350Q55 416 74 478T129 594T226 679T363 712Q456 712 513 672T614 562L495 494Q437 582 363 582Q317 582 283 561T230 504T204 430T195 350Q195 252 237 185T363
118Q414 118 449 151T485 231V239H366V367H623V264Q623 134 550 61T363 -12Z" />
<glyph unicode="H" glyph-name="H" horiz-adv-x="723" d="M508 0V296H215V0H80V700H215V424H508V700H643V0H508Z" />
<glyph unicode="I" glyph-name="I" horiz-adv-x="305" d="M85 0V700H220V0H85Z" />
<glyph unicode="J" glyph-name="J" horiz-adv-x="565" d="M250 -12Q174 -12 111 28T15 142L133 197Q175 118 250 118Q355 118 355 255V700H490V243Q490 172 469 120T410 40T334 1T250 -12Z" />
<glyph unicode="K" glyph-name="K" horiz-adv-x="713" d="M525 0L345 335L215 175V0H80V700H215V366L480 700H640L436 449L683 0H525Z" />
<glyph unicode="L" glyph-name="L" horiz-adv-x="568" d="M80 0V700H215V130H553V0H80Z" />
<glyph unicode="M" glyph-name="M" horiz-adv-x="809" d="M729 0H594V360Q594 383 596 415Q584 380 575 360L405 -12L234 360Q225 380 213 415Q215 383 215 360V0H80V700H217L389 314Q397 295 407 266Q417 295 425 314L600 700H729V0Z" />
<glyph unicode="N" glyph-name="N" horiz-adv-x="718" d="M638 0H518L240 408Q226 429 211 461Q214 436 214 408V0H80V700H207L478 297Q495 269 507 244Q504 268 504 297V700H638V0Z" />
<glyph unicode="O" glyph-name="O" horiz-adv-x="727" d="M429 -12T364 -12T246 9T158 65T99 148T65 245T55 350T65 454T99 552T157 634T245 691T364 712T482 691T570 635T628 552T662 455T672 350T662 246T629 148T571 66T483 9ZM364 118Q408 118 442 139T495
196T523 271T532 350Q532 393 523 432T496 505T443 561T364 582T285 561T232 504T204 430T195 350Q195 292 210 242T265 155T364 118Z" />
<glyph unicode="P" glyph-name="P" horiz-adv-x="639" d="M80 0V700H380Q444 700 491 681T566 630T606 560T619 479Q619 392 559 325T380 258H215V0H80ZM386 386Q433 386 456 413T479 479Q479 516 457 544T386 572H215V386H386Z" />
<glyph unicode="Q" glyph-name="Q" horiz-adv-x="727" d="M364 -12Q299 -12 246 9T158 65T99 148T65 245T55 350T65 454T99 552T157 634T245 691T364 712T482 691T570 635T628 552T662 455T672 350Q672 167 570 65L616 -3L516 -69L467 3Q415 -12 364 -12ZM364
118Q376 118 388 121L337 197L439 263L489 187Q532 248 532 350Q532 393 523 432T496 505T443 561T364 582T285 561T232 504T204 430T195 350Q195 292 210 242T265 155T364 118Z" />
<glyph unicode="R" glyph-name="R" horiz-adv-x="694" d="M80 0V700H405Q528 700 583 639T639 481Q639 417 604 360T503 279L639 0H487L356 261H215V0H80ZM215 389H407Q455 389 477 415T499 481Q499 520 478 546T407 572H215V389Z" />
<glyph unicode="S" glyph-name="S" horiz-adv-x="615" d="M312 -12Q214 -12 142 39T40 180L163 226Q186 176 226 146T316 116Q368 116 398 138T429 201Q429 222 419 238T385 267T343 287T287 307Q245 321 224 329T167 356T114 394T82 446T67 519Q67 601 131 656T304
712Q394 712 455 667T537 550L416 510Q383 584 296 584Q252 584 228 567T203 517Q203 496 223 480T264 455T330 431Q365 419 384 412T436 390T487 359T526 321T556 268T565 201Q565 102 494 45T312 -12Z" />
<glyph unicode="T" glyph-name="T" horiz-adv-x="605" d="M370 570V0H235V570H35V700H570V570H370Z" />
<glyph unicode="U" glyph-name="U" horiz-adv-x="714" d="M357 -12Q301 -12 253 2T163 48T99 136T75 268V700H210V268Q210 185 247 152T357 118Q429 118 466 151T504 268V700H639V268Q639 123 559 56T357 -12Z" />
<glyph unicode="V" glyph-name="V" horiz-adv-x="685" d="M278 0L30 700H176L330 242Q336 224 344 194Q348 212 357 242L511 700H655L408 0H278Z" />
<glyph unicode="W" glyph-name="W" horiz-adv-x="852" d="M185 0L35 700H174L252 306Q257 285 261 254Q265 284 271 307L367 700H484L582 307Q588 284 592 254Q596 285 601 306L679 700H817L666 0H540L434 412Q427 438 424 465Q421 437 414 413L311 0H185Z" />
<glyph unicode="X" glyph-name="X" horiz-adv-x="692" d="M494 0L346 235L198 0H40L267 361L54 700H212L346 486L480 700H638L425 361L652 0H494Z" />
<glyph unicode="Y" glyph-name="Y" horiz-adv-x="692" d="M279 0V273L20 700H173L346 414L519 700H672L413 273V0H279Z" />
<glyph unicode="Z" glyph-name="Z" horiz-adv-x="645" d="M45 0V103L411 572H67V700H590V597L221 128H590V0H45Z" />
<glyph unicode="[" glyph-name="bracketleft" horiz-adv-x="390" d="M100 -130V712H350V587H230V-5H350V-130H100Z" />
<glyph unicode="\" glyph-name="backslash" horiz-adv-x="522" d="M378 -130L-15 712H119L512 -130H378Z" />
<glyph unicode="]" glyph-name="bracketright" horiz-adv-x="390" d="M290 -130H40V-5H159V587H40V712H290V-130Z" />
<glyph unicode="^" glyph-name="asciicircum" horiz-adv-x="630" d="M437 340L315 543L193 340H58L266 712H364L572 340H437Z" />
<glyph unicode="_" glyph-name="underscore" horiz-adv-x="500" d="M-5 -177V-77H505V-177H-5Z" />
<glyph unicode="`" glyph-name="grave" horiz-adv-x="475" d="M247 576L69 732H231L373 576H247Z" />
<glyph unicode="a" glyph-name="a" horiz-adv-x="558" d="M365 0V37Q316 -12 233 -12T98 32T45 157Q45 240 104 283T248 326Q315 326 365 302V328Q365 409 273 409Q189 409 115 358L75 463Q164 523 284 523Q325 523 356 516T422 490T474 430T493 326V0H365ZM258
102Q319 102 365 144V199Q323 216 270 216Q226 216 199 202T172 157Q172 132 194 117T258 102Z" />
<glyph unicode="b" glyph-name="b" horiz-adv-x="576" d="M309 -12Q240 -12 205 37V0H75V663L205 722V474Q244 523 314 523Q407 523 466 451T526 256Q526 128 468 58T309 -12ZM294 113Q343 113 369 151T396 256Q396 325 370 361T294 398Q234 398 205 356V154Q234
113 294 113Z" />
<glyph unicode="c" glyph-name="c" horiz-adv-x="547" d="M283 -12Q176 -12 113 59T50 255Q50 379 113 451T283 523Q448 523 496 373L372 332Q347 398 286 398Q239 398 211 359T182 255T210 152T283 113Q350 113 373 187L497 150Q450 -12 283 -12Z" />
<glyph unicode="d" glyph-name="d" horiz-adv-x="576" d="M261 -12Q163 -12 107 58T50 256Q50 378 109 450T262 523Q332 523 371 474V663L501 722V0H371V37Q338 -12 261 -12ZM282 113Q342 113 371 154V356Q340 398 282 398Q233 398 207 362T180 256Q180 189 206
151T282 113Z" />
<glyph unicode="e" glyph-name="e" horiz-adv-x="560" d="M289 -12Q178 -12 114 59T50 256Q50 379 114 451T289 523Q389 523 452 462T515 282Q515 233 511 205H178Q182 157 213 130T289 102Q357 102 399 155L479 74Q408 -12 289 -12ZM179 315H388Q382 359 356
384T289 409Q191 409 179 315Z" />
<glyph unicode="f" glyph-name="f" horiz-adv-x="361" d="M236 397V0H106V397H35V511H106V589Q106 712 232 712Q297 712 346 687V581Q303 598 273 598Q236 598 236 563V511H346V397H236Z" />
<glyph unicode="g" glyph-name="g" horiz-adv-x="576" d="M260 -200L188 -92Q294 -84 332 -63T371 13V27Q332 -12 261 -12Q166 -12 108 57T50 256Q50 378 108 450T262 523Q330 523 371 484V511H501V69Q501 -68 451 -128T260 -200ZM282 113Q341 113 371 154V356Q336
398 282 398Q233 398 207 362T180 256Q180 191 206 152T282 113Z" />
<glyph unicode="h" glyph-name="h" horiz-adv-x="591" d="M75 0V662L205 722V463Q254 523 342 523Q418 523 469 476T521 322V0H391V285Q391 398 302 398Q205 398 205 287V0H75Z" />
<glyph unicode="i" glyph-name="i" horiz-adv-x="282" d="M141 571Q110 571 88 593T65 647T87 700T141 722T195 701T217 647T195 593T141 571ZM76 0V511H206V0H76Z" />
<glyph unicode="j" glyph-name="j" horiz-adv-x="282" d="M141 571Q110 571 88 593T65 647T87 700T141 722T195 701T217 647T195 593T141 571ZM-1 -214L-67 -111Q14 -93 45 -70T76 -4V511H206V28Q206 -82 156 -134Q103 -191 -1 -214Z" />
<glyph unicode="k" glyph-name="k" horiz-adv-x="566" d="M536 0H394L253 270L205 224V0H75V661L205 722V372L342 511H498L348 363L536 0Z" />
<glyph unicode="l" glyph-name="l" horiz-adv-x="290" d="M80 0V661L210 722V0H80Z" />
<glyph unicode="m" glyph-name="m" horiz-adv-x="875" d="M675 0V279Q675 342 656 370T594 398Q548 398 527 370T505 280V0H375V279Q375 342 356 370T294 398Q248 398 227 370T205 280V0H75V511H205V464Q251 523 326 523Q420 523 457 451Q508 523 614 523Q805
523 805 321V0H675Z" />
<glyph unicode="n" glyph-name="n" horiz-adv-x="591" d="M391 0V280Q391 342 370 370T302 398Q205 398 205 282V0H75V511H205V463Q254 523 342 523Q418 523 469 476T521 322V0H391Z" />
<glyph unicode="o" glyph-name="o" horiz-adv-x="570" d="M394 -12T285 -12T113 59T50 255Q50 379 113 451T285 523T456 451T520 255Q520 130 457 59ZM285 113Q334 113 362 150T390 255T362 360T285 398Q237 398 209 360T180 255T208 151T285 113Z" />
<glyph unicode="p" glyph-name="p" horiz-adv-x="576" d="M314 -12Q244 -12 205 37V-141L75 -200V511H205V474Q244 523 315 523Q411 523 468 453T526 255Q526 132 467 60T314 -12ZM294 113Q343 113 369 150T396 255Q396 321 370 359T294 398Q236 398 205 357V155Q231
113 294 113Z" />
<glyph unicode="q" glyph-name="q" horiz-adv-x="576" d="M262 -12Q168 -12 109 60T50 255Q50 382 109 452T267 523Q336 523 371 474V511H501V-141L371 -200V37Q332 -12 262 -12ZM282 113Q345 113 371 155V357Q340 398 282 398Q233 398 207 360T180 255Q180 187
206 150T282 113Z" />
<glyph unicode="r" glyph-name="r" horiz-adv-x="419" d="M75 0V511H205V466Q232 523 300 523Q357 523 404 484L386 365Q344 395 293 395Q205 395 205 285V0H75Z" />
<glyph unicode="s" glyph-name="s" horiz-adv-x="494" d="M244 -12Q182 -12 126 13T40 80L126 153Q181 98 246 98Q323 98 323 143Q323 164 303 177T230 211Q139 241 97 278T55 379Q55 446 108 484T241 523Q357 523 428 441L341 370Q295 413 241 413Q176 413 176
375Q176 343 276 313Q356 287 400 250T444 143Q444 69 390 29T244 -12Z" />
<glyph unicode="t" glyph-name="t" horiz-adv-x="393" d="M227 -12Q103 -12 103 123V397H30V511H103V660L233 722V511H347V397H233V142Q233 102 269 102Q310 102 353 124L338 11Q290 -12 227 -12Z" />
<glyph unicode="u" glyph-name="u" horiz-adv-x="591" d="M386 0V48Q338 -12 249 -12Q174 -12 122 36T70 189V511H200V231Q200 170 221 142T289 113Q386 113 386 229V511H516V0H386Z" />
<glyph unicode="v" glyph-name="v" horiz-adv-x="559" d="M212 0L25 511H159L266 208Q275 181 280 161Q285 181 294 208L400 511H534L347 0H212Z" />
<glyph unicode="w" glyph-name="w" horiz-adv-x="751" d="M178 0L35 511H163L223 262Q226 251 230 226T236 195Q247 245 251 262L316 511H434L498 262Q502 245 513 195Q514 201 518 226T526 262L588 511H716L572 0H457L392 255Q376 322 375 331Q374 322 358 255L293
0H178Z" />
<glyph unicode="x" glyph-name="x" horiz-adv-x="581" d="M30 0L215 265L43 511H194L261 414Q286 378 290 367Q305 395 319 414L387 511H538L366 265L551 0H400L319 115Q305 134 290 162Q286 151 261 115L181 0H30Z" />
<glyph unicode="y" glyph-name="y" horiz-adv-x="570" d="M139 -194L217 7L25 511H158L270 216Q279 194 285 169Q287 177 300 216L412 511H545L274 -194H139Z" />
<glyph unicode="z" glyph-name="z" horiz-adv-x="544" d="M55 0V102L319 395H74V511H484V412L221 116H483V0H55Z" />
<glyph unicode="{" glyph-name="braceleft" horiz-adv-x="380" d="M340 -130Q233 -128 172 -68T110 104V170Q110 232 70 232H40V350H70Q110 350 110 412V477Q110 589 171 648T340 712V593Q240 587 240 494V422Q240 317 171 291Q240 265 240 159V87Q240 -8 340 -12V-130Z" />
<glyph unicode="|" glyph-name="bar" horiz-adv-x="300" d="M85 -378V1062H215V-378H85Z" />
<glyph unicode="}" glyph-name="braceright" horiz-adv-x="380" d="M40 -130V-12Q140 -8 140 87V159Q140 265 209 291Q140 317 140 422V494Q140 587 40 593V712Q148 708 209 649T270 477V412Q270 384 281 367T310 350H340V232H310Q291 232 281 215T270 170V104Q270
-8 209 -68T40 -130Z" />
<glyph unicode="~" glyph-name="asciitilde" horiz-adv-x="630" d="M409 253Q362 253 305 280T227 307Q188 307 181 253H78Q78 331 113 382T220 434Q267 434 323 407T402 380Q443 380 448 434H551Q551 355 517 304T409 253Z" />
<glyph unicode="&#xa0;" glyph-name="uni00A0" horiz-adv-x="250" />
<glyph unicode="&#xa1;" glyph-name="exclamdown" horiz-adv-x="300" d="M151 352Q114 352 89 377T63 438T88 498T151 523T212 499T237 438T212 377T151 352ZM216 -200H86V26L114 319H188L216 26V-200Z" />
<glyph unicode="&#xa2;" glyph-name="cent" horiz-adv-x="547" d="M209 -12V94Q133 116 92 182T50 350Q50 451 92 518T209 608V712H334V614Q456 594 496 468L372 427Q347 493 286 493Q239 493 211 455T182 350Q182 285 210 247T283 208Q350 208 373 282L497 245Q461
112 334 88V-12H209Z" />
<glyph unicode="&#xa3;" glyph-name="sterling" horiz-adv-x="600" d="M79 0V124Q141 152 157 246Q159 262 159 269H75V389H129Q103 447 103 504Q103 590 164 651T341 712Q463 712 566 638L515 514Q489 535 472 546T418 571T341 585Q289 585 263 562T237 505Q237
476 274 389H444V269H293Q293 262 291 246Q281 178 244 127H570V0H79Z" />
<glyph unicode="&#xa4;" glyph-name="currency" horiz-adv-x="650" d="M393 85T325 85T202 114L133 44L36 141L109 214Q85 266 85 333Q85 395 111 452L36 527L130 621L200 551Q257 581 325 581T447 551L516 621L614 524L540 451Q565 396 565 333Q565 265 539 211L614
138L519 44L448 115Q393 85 325 85ZM277 212T325 212T402 246T432 333T403 420T325 454T248 420T218 333T247 246Z" />
<glyph unicode="&#xa5;" glyph-name="yen" horiz-adv-x="608" d="M386 344H504V246H369V181H504V83H369V0H239V83H104V181H239V246H104V344H221L15 700H165L304 451L441 700H593L386 344Z" />
<glyph unicode="&#xa6;" glyph-name="brokenbar" horiz-adv-x="300" d="M85 366V825H215V366H85ZM85 -225V234H215V-225H85Z" />
<glyph unicode="&#xa7;" glyph-name="section" horiz-adv-x="530" d="M268 -120Q125 -120 50 -22L144 58Q201 5 269 5Q345 5 345 55Q345 77 318 94T228 140Q214 146 207 149Q171 165 152 175T108 204T72 250T61 311Q61 379 122 419Q61 467 61 541Q61 621 117 666T262
712Q389 712 460 624L362 545Q320 587 262 587Q232 587 214 575T196 544Q196 524 226 506T319 464Q357 449 379 438T428 406T467 358T480 291Q480 222 426 181Q480 133 480 58Q480 -26 424 -73T268 -120ZM326 243Q345 251 345 279Q345 303 316 320T230 358Q196
352 196 324Q196 313 203 304T232 283T269 266T326 243Z" />
<glyph unicode="&#xa8;" glyph-name="dieresis" horiz-adv-x="475" d="M142 581Q110 581 90 601T69 654Q69 685 90 706T142 727T194 706T215 654T194 602T142 581ZM332 581Q300 581 280 601T259 654Q259 685 280 706T332 727T384 706T405 654T384 602T332 581Z" />
<glyph unicode="&#xa9;" glyph-name="copyright" horiz-adv-x="844" d="M576 -12T422 -12T164 92T60 350T164 608T422 712T680 608T784 350T680 92ZM305 74T422 74T615 153T692 350T616 547T422 626T229 547T152 350T228 153ZM425 132Q376 132 340 150T283 201T254
271T244 350Q244 436 289 502T425 568Q532 568 576 475L485 432Q462 470 425 470Q386 470 368 434T349 350T369 267T425 230Q464 230 485 268L577 236Q530 132 425 132Z" />
<glyph unicode="&#xaa;" glyph-name="ordfeminine" horiz-adv-x="441" d="M281 283V313Q247 273 179 273Q117 273 76 309T35 412Q35 480 81 516T191 552Q244 552 281 532V552Q281 619 211 619Q146 619 92 577L59 663Q127 712 223 712Q248 712 268 709T311 696T349
669T375 622T386 551V283H281ZM202 367Q251 367 281 401V446Q248 460 211 460Q139 460 139 412Q139 391 155 379T202 367Z" />
<glyph unicode="&#xab;" glyph-name="guillemotleft" horiz-adv-x="562" d="M182 0L30 256L182 511H322L170 256L322 0H182ZM407 0L255 256L407 511H547L395 256L547 0H407Z" />
<glyph unicode="&#xac;" glyph-name="logicalnot" horiz-adv-x="630" d="M420 161V354H80V480H550V161H420Z" />
<glyph unicode="&#xad;" glyph-name="uni00AD" horiz-adv-x="412" d="M75 233V358H337V233H75Z" />
<glyph unicode="&#xae;" glyph-name="registered" horiz-adv-x="844" d="M576 -12T422 -12T164 92T60 350T164 608T422 712T680 608T784 350T680 92ZM305 74T422 74T615 153T692 350T616 547T422 626T229 547T152 350T228 153ZM271 139V561H450Q525 561 557 524T589
429Q589 389 568 357T502 309L599 139H491L404 297H373V139H271ZM373 390H444Q465 390 475 401T485 429Q485 444 476 456T444 468H373V390Z" />
<glyph unicode="&#xaf;" glyph-name="overscore" horiz-adv-x="475" d="M72 587V693H402V587H72Z" />
<glyph unicode="&#xb0;" glyph-name="degree" horiz-adv-x="412" d="M282 447T206 447T78 499T25 627Q25 702 77 753T206 805T334 754T387 627Q387 551 335 499ZM179 559T206 559T250 578T268 627Q268 655 251 673T206 692T162 674T144 627Q144 598 161 579Z" />
<glyph unicode="&#xb1;" glyph-name="plusminus" horiz-adv-x="630" d="M380 337V192H250V337H80V463H250V608H380V463H550V337H380ZM80 0V126H550V0H80Z" />
<glyph unicode="&#xb2;" glyph-name="uni00B2" horiz-adv-x="370" d="M24 444Q24 616 171 691Q187 700 194 704T210 718T218 739Q218 754 208 763T180 773Q138 773 124 724L25 748Q41 805 83 839T185 873Q251 873 291 837T332 743Q332 717 326 698T304 663T276
638T238 614Q167 570 154 546H331V444H24Z" />
<glyph unicode="&#xb3;" glyph-name="uni00B3" horiz-adv-x="355" d="M170 437Q111 437 71 469T12 560L113 586Q126 535 171 535Q191 535 202 546T214 575Q214 615 160 615H122V707H159Q200 707 200 741Q200 756 191 765T165 775Q132 775 118 739L26 773Q45 820
84 846T174 873Q235 873 271 838T308 753Q308 724 293 700T255 663Q322 638 322 567Q322 509 282 473T170 437Z" />
<glyph unicode="&#xb4;" glyph-name="acute" horiz-adv-x="475" d="M102 576L244 732H406L228 576H102Z" />
<glyph unicode="&#xb5;" glyph-name="uni00B5" horiz-adv-x="596" d="M391 0V47Q359 -12 284 -12Q235 -12 206 13V-139L75 -200V511H205V231Q205 170 226 142T294 113Q391 113 391 229V511H521V0H391Z" />
<glyph unicode="&#xb6;" glyph-name="paragraph" horiz-adv-x="647" d="M234 -200V274Q129 277 75 340T20 485Q20 575 76 637T253 700H567V-49L437 -108V575H364V-141L234 -200Z" />
<glyph unicode="&#xb7;" glyph-name="middot" horiz-adv-x="241" d="M156 267T120 267T60 291T36 349T60 407T120 432T180 408T205 349T181 291Z" />
<glyph unicode="&#xb8;" glyph-name="cedilla" horiz-adv-x="475" d="M224 -244Q149 -244 114 -197L170 -155Q184 -174 211 -174Q259 -174 259 -135T210 -96Q187 -96 167 -110L140 -77L212 10H282L247 -46Q303 -46 331 -71T360 -136Q360 -184 324 -214T224 -244Z" />
<glyph unicode="&#xb9;" glyph-name="uni00B9" horiz-adv-x="224" d="M61 444V754H10V837Q68 837 84 866H171V444H61Z" />
<glyph unicode="&#xba;" glyph-name="ordmasculine" horiz-adv-x="465" d="M321 273T233 273T93 331T40 492T92 653T233 712T373 653T425 492T373 332ZM233 376Q273 376 296 407T319 492Q319 547 296 578T233 610Q192 610 170 579T147 492T169 407T233 376Z" />
<glyph unicode="&#xbb;" glyph-name="guillemotright" horiz-adv-x="562" d="M15 0L167 256L15 511H155L307 256L155 0H15ZM240 0L392 256L240 511H380L532 256L380 0H240Z" />
<glyph unicode="&#xbc;" glyph-name="onequarter" horiz-adv-x="719" d="M14 -12L492 712H617L139 -12H14ZM61 283V593H10V676Q67 676 84 705H171V283H61ZM538 0V80H333V152L540 422H640V172H696V80H640V0H538ZM538 172V288L450 172H538Z" />
<glyph unicode="&#xbd;" glyph-name="onehalf" horiz-adv-x="759" d="M14 -12L492 712H617L139 -12H14ZM61 283V593H10V676Q67 676 84 705H171V283H61ZM413 0Q413 172 560 247Q607 272 607 295Q607 310 597 319T569 329Q527 329 513 280L414 304Q430 361 472 395T574
429Q640 429 680 393T721 299Q721 271 713 250T688 212T655 186T611 161Q556 129 543 102H720V0H413Z" />
<glyph unicode="&#xbe;" glyph-name="threequarters" horiz-adv-x="836" d="M170 276Q111 276 71 308T12 399L113 425Q126 374 171 374Q191 374 202 385T214 414Q214 454 160 454H122V546H159Q200 546 200 580Q200 595 191 604T165 614Q132 614 118 578L26 612Q45
659 84 685T174 712Q235 712 271 677T308 592Q308 562 293 538T255 502Q322 477 322 406Q322 348 282 312T170 276ZM131 -12L609 712H734L256 -12H131ZM655 0V80H450V152L657 422H757V172H813V80H757V0H655ZM655 172V288L567 172H655Z" />
<glyph unicode="&#xbf;" glyph-name="questiondown" horiz-adv-x="505" d="M296 358T260 358T200 382T175 441T199 499T260 523T320 499T344 441T320 383ZM252 -200Q149 -200 92 -143T35 3Q35 49 51 83T91 138T139 179T179 226T196 288V323H326V287Q326 236 310
197T270 136T222 95T182 54T165 3Q165 -31 188 -53T252 -75Q302 -75 328 -45T355 43H485Q485 -72 421 -136T252 -200Z" />
<glyph unicode="&#xc0;" glyph-name="Agrave" horiz-adv-x="732" d="M376 765L198 921H360L502 765H376ZM555 0L501 145H231L177 0H32L300 700H432L700 0H555ZM457 268L388 450Q372 490 366 513Q360 490 344 450L275 268H457Z" />
<glyph unicode="&#xc1;" glyph-name="Aacute" horiz-adv-x="732" d="M231 765L373 921H535L357 765H231ZM555 0L501 145H231L177 0H32L300 700H432L700 0H555ZM457 268L388 450Q372 490 366 513Q360 490 344 450L275 268H457Z" />
<glyph unicode="&#xc2;" glyph-name="Acircumflex" horiz-adv-x="732" d="M450 765L366 834L282 765H162L304 921H429L570 765H450ZM555 0L501 145H231L177 0H32L300 700H432L700 0H555ZM457 268L388 450Q372 490 366 513Q360 490 344 450L275 268H457Z" />
<glyph unicode="&#xc3;" glyph-name="Atilde" horiz-adv-x="732" d="M445 772Q407 772 355 795T280 818Q234 818 233 776H172Q172 914 287 914Q326 914 377 891T452 868Q498 868 499 910H560Q560 772 445 772ZM555 0L501 145H231L177 0H32L300 700H432L700 0H555ZM457
268L388 450Q372 490 366 513Q360 490 344 450L275 268H457Z" />
<glyph unicode="&#xc4;" glyph-name="Adieresis" horiz-adv-x="732" d="M302 770T271 770T219 791T198 843T219 895T271 916T323 895T344 843T323 791ZM492 770T461 770T409 791T388 843T409 895T461 916T513 895T534 843T513 791ZM555 0L501 145H231L177 0H32L300
700H432L700 0H555ZM457 268L388 450Q372 490 366 513Q360 490 344 450L275 268H457Z" />
<glyph unicode="&#xc5;" glyph-name="Aring" horiz-adv-x="732" d="M32 0L277 642Q236 680 236 736Q236 789 274 826T366 864T457 827T496 736Q496 678 454 642L700 0H555L501 145H231L177 0H32ZM366 696Q382 696 393 707T405 736T394 764T366 776Q349 776 338
765T327 736T338 708T366 696ZM275 268H457L388 450Q371 496 366 513Q361 496 344 450L275 268Z" />
<glyph unicode="&#xc6;" glyph-name="AE" horiz-adv-x="884" d="M-25 0L381 700H818V572H518V425H677V297H518V128H839V0H383V145H202L120 0H-25ZM274 268H383V468Q375 447 359 418L274 268Z" />
<glyph unicode="&#xc7;" glyph-name="Ccedilla" horiz-adv-x="640" d="M341 -244Q266 -244 231 -197L287 -155Q301 -174 328 -174Q376 -174 376 -135T327 -96Q304 -96 284 -110L257 -77L313 -9Q222 0 162 57T79 188T55 350Q55 414 71 474T120 589T212 677T349
711Q443 711 507 665T599 553L478 498Q450 541 421 561T349 581Q294 581 258 544T208 457T195 350Q195 259 234 189T349 119Q422 119 476 209L600 162Q535 9 387 -9L364 -46Q420 -46 448 -71T477 -136Q477 -184 441 -214T341 -244Z" />
<glyph unicode="&#xc8;" glyph-name="Egrave" horiz-adv-x="624" d="M317 765L139 921H301L443 765H317ZM80 0V700H558V572H215V425H417V297H215V128H579V0H80Z" />
<glyph unicode="&#xc9;" glyph-name="Eacute" horiz-adv-x="624" d="M208 765L350 921H512L334 765H208ZM80 0V700H558V572H215V425H417V297H215V128H579V0H80Z" />
<glyph unicode="&#xca;" glyph-name="Ecircumflex" horiz-adv-x="624" d="M411 765L327 834L243 765H123L265 921H390L531 765H411ZM80 0V700H558V572H215V425H417V297H215V128H579V0H80Z" />
<glyph unicode="&#xcb;" glyph-name="Edieresis" horiz-adv-x="624" d="M232 770Q200 770 180 791T159 843T180 895T232 916T284 895T305 843T284 791T232 770ZM422 770Q390 770 370 791T349 843T370 895T422 916T474 895T495 843T474 791T422 770ZM80 0V700H558V572H215V425H417V297H215V128H579V0H80Z"
/>
<glyph unicode="&#xcc;" glyph-name="Igrave" horiz-adv-x="305" d="M163 765L-15 921H147L289 765H163ZM85 0V700H220V0H85Z" />
<glyph unicode="&#xcd;" glyph-name="Iacute" horiz-adv-x="305" d="M28 765L170 921H332L154 765H28ZM85 0V700H220V0H85Z" />
<glyph unicode="&#xce;" glyph-name="Icircumflex" horiz-adv-x="305" d="M237 765L153 834L69 765H-51L91 921H216L357 765H237ZM85 0V700H220V0H85Z" />
<glyph unicode="&#xcf;" glyph-name="Idieresis" horiz-adv-x="305" d="M58 770Q26 770 6 791T-15 843T6 895T58 916T110 895T131 843T110 791T58 770ZM248 770Q216 770 196 791T175 843T196 895T248 916T300 895T321 843T300 791T248 770ZM85 0V700H220V0H85Z" />
<glyph unicode="&#xd0;" glyph-name="Eth" horiz-adv-x="710" d="M80 287H18V413H80V700H316Q404 700 471 671T578 590T636 479T655 350Q655 300 645 252T608 158T544 77T446 21T312 0H80V287ZM328 128Q423 128 469 194T515 350Q515 441 470 506T339 572H215V413H358V287H215V128H328Z"
/>
<glyph unicode="&#xd1;" glyph-name="Ntilde" horiz-adv-x="718" d="M448 772Q410 772 358 795T283 818Q237 818 236 776H175Q175 914 290 914Q329 914 380 891T455 868Q501 868 502 910H563Q563 772 448 772ZM638 0H518L240 408Q226 429 211 461Q214 436 214
408V0H80V700H207L478 297Q495 269 507 244Q504 268 504 297V700H638V0Z" />
<glyph unicode="&#xd2;" glyph-name="Ograve" horiz-adv-x="727" d="M352 766L174 922H336L478 766H352ZM429 -12T364 -12T246 9T158 65T99 148T65 245T55 350T65 454T99 552T157 634T245 691T364 712T482 691T570 635T628 552T662 455T672 350T662 246T629 148T571
66T483 9ZM364 118Q408 118 442 139T495 196T523 271T532 350Q532 393 523 432T496 505T443 561T364 582T285 561T232 504T204 430T195 350Q195 292 210 242T265 155T364 118Z" />
<glyph unicode="&#xd3;" glyph-name="Oacute" horiz-adv-x="727" d="M229 765L371 921H533L355 765H229ZM429 -12T364 -12T246 9T158 65T99 148T65 245T55 350T65 454T99 552T157 634T245 691T364 712T482 691T570 635T628 552T662 455T672 350T662 246T629 148T571
66T483 9ZM364 118Q408 118 442 139T495 196T523 271T532 350Q532 393 523 432T496 505T443 561T364 582T285 561T232 504T204 430T195 350Q195 292 210 242T265 155T364 118Z" />
<glyph unicode="&#xd4;" glyph-name="Ocircumflex" horiz-adv-x="727" d="M448 765L364 834L280 765H160L302 921H427L568 765H448ZM429 -12T364 -12T246 9T158 65T99 148T65 245T55 350T65 454T99 552T157 634T245 691T364 712T482 691T570 635T628 552T662 455T672
350T662 246T629 148T571 66T483 9ZM364 118Q408 118 442 139T495 196T523 271T532 350Q532 393 523 432T496 505T443 561T364 582T285 561T232 504T204 430T195 350Q195 292 210 242T265 155T364 118Z" />
<glyph unicode="&#xd5;" glyph-name="Otilde" horiz-adv-x="727" d="M443 772Q405 772 353 795T278 818Q232 818 231 776H170Q170 914 285 914Q324 914 375 891T450 868Q496 868 497 910H558Q558 772 443 772ZM429 -12T364 -12T246 9T158 65T99 148T65 245T55
350T65 454T99 552T157 634T245 691T364 712T482 691T570 635T628 552T662 455T672 350T662 246T629 148T571 66T483 9ZM364 118Q408 118 442 139T495 196T523 271T532 350Q532 393 523 432T496 505T443 561T364 582T285 561T232 504T204 430T195 350Q195 292 210
242T265 155T364 118Z" />
<glyph unicode="&#xd6;" glyph-name="Odieresis" horiz-adv-x="727" d="M300 770T269 770T217 791T196 843T217 895T269 916T321 895T342 843T321 791ZM490 770T459 770T407 791T386 843T407 895T459 916T511 895T532 843T511 791ZM429 -12T364 -12T246 9T158
65T99 148T65 245T55 350T65 454T99 552T157 634T245 691T364 712T482 691T570 635T628 552T662 455T672 350T662 246T629 148T571 66T483 9ZM364 118Q408 118 442 139T495 196T523 271T532 350Q532 393 523 432T496 505T443 561T364 582T285 561T232 504T204 430T195
350Q195 292 210 242T265 155T364 118Z" />
<glyph unicode="&#xd7;" glyph-name="multiply" horiz-adv-x="630" d="M316 251L168 102L74 197L222 344L75 492L166 583L314 436L461 584L556 490L407 342L555 195L463 103L316 251Z" />
<glyph unicode="&#xd8;" glyph-name="Oslash" horiz-adv-x="727" d="M55 -12L129 98Q55 199 55 350Q55 404 65 454T99 552T157 634T245 691T364 712Q450 712 518 674L544 712H672L598 602Q672 501 672 350Q672 296 662 246T629 148T571 66T483 9T364 -12Q274 -12
209 26L183 -12H55ZM216 227L442 561Q408 582 364 582Q319 582 285 561T232 504T204 430T195 350Q195 282 216 227ZM364 118Q408 118 442 139T495 196T523 271T532 350Q532 418 511 473L285 139Q319 118 364 118Z" />
<glyph unicode="&#xd9;" glyph-name="Ugrave" horiz-adv-x="714" d="M367 765L189 921H351L493 765H367ZM357 -12Q301 -12 253 2T163 48T99 136T75 268V700H210V268Q210 185 247 152T357 118Q429 118 466 151T504 268V700H639V268Q639 123 559 56T357 -12Z" />
<glyph unicode="&#xda;" glyph-name="Uacute" horiz-adv-x="714" d="M239 765L381 921H543L365 765H239ZM357 -12Q301 -12 253 2T163 48T99 136T75 268V700H210V268Q210 185 247 152T357 118Q429 118 466 151T504 268V700H639V268Q639 123 559 56T357 -12Z" />
<glyph unicode="&#xdb;" glyph-name="Ucircumflex" horiz-adv-x="714" d="M441 765L357 834L273 765H153L295 921H420L561 765H441ZM357 -12Q301 -12 253 2T163 48T99 136T75 268V700H210V268Q210 185 247 152T357 118Q429 118 466 151T504 268V700H639V268Q639
123 559 56T357 -12Z" />
<glyph unicode="&#xdc;" glyph-name="Udieresis" horiz-adv-x="714" d="M262 770Q230 770 210 791T189 843T210 895T262 916T314 895T335 843T314 791T262 770ZM452 770Q420 770 400 791T379 843T400 895T452 916T504 895T525 843T504 791T452 770ZM357 -12Q301
-12 253 2T163 48T99 136T75 268V700H210V268Q210 185 247 152T357 118Q429 118 466 151T504 268V700H639V268Q639 123 559 56T357 -12Z" />
<glyph unicode="&#xdd;" glyph-name="Yacute" horiz-adv-x="692" d="M230 765L372 921H534L356 765H230ZM279 0V273L20 700H173L346 414L519 700H672L413 273V0H279Z" />
<glyph unicode="&#xde;" glyph-name="Thorn" horiz-adv-x="649" d="M80 0V700H215V577H381Q445 577 492 558T567 507T606 437T619 356Q619 268 559 202T381 135H215V0H80ZM386 263Q433 263 456 290T479 356Q479 393 457 421T386 449H215V263H386Z" />
<glyph unicode="&#xdf;" glyph-name="germandbls" horiz-adv-x="575" d="M65 -200V469Q65 592 129 652T288 712T441 662T499 528Q499 424 406 385Q467 367 501 322T535 212Q535 106 476 47T326 -12Q257 -12 219 11L277 106Q296 100 318 100Q353 100 379 130T405
210Q405 257 376 290T289 324H252V436H289Q323 436 346 460T369 520Q369 554 348 577T289 600Q195 600 195 471V-139L65 -200Z" />
<glyph unicode="&#xe0;" glyph-name="agrave" horiz-adv-x="558" d="M270 576L92 732H254L396 576H270ZM365 0V37Q316 -12 233 -12T98 32T45 157Q45 240 104 283T248 326Q315 326 365 302V328Q365 409 273 409Q189 409 115 358L75 463Q164 523 284 523Q325 523
356 516T422 490T474 430T493 326V0H365ZM258 102Q319 102 365 144V199Q323 216 270 216Q226 216 199 202T172 157Q172 132 194 117T258 102Z" />
<glyph unicode="&#xe1;" glyph-name="aacute" horiz-adv-x="558" d="M172 576L314 732H476L298 576H172ZM365 0V37Q316 -12 233 -12T98 32T45 157Q45 240 104 283T248 326Q315 326 365 302V328Q365 409 273 409Q189 409 115 358L75 463Q164 523 284 523Q325 523
356 516T422 490T474 430T493 326V0H365ZM258 102Q319 102 365 144V199Q323 216 270 216Q226 216 199 202T172 157Q172 132 194 117T258 102Z" />
<glyph unicode="&#xe2;" glyph-name="acircumflex" horiz-adv-x="558" d="M369 576L285 645L201 576H81L223 732H348L489 576H369ZM365 0V37Q316 -12 233 -12T98 32T45 157Q45 240 104 283T248 326Q315 326 365 302V328Q365 409 273 409Q189 409 115 358L75 463Q164
523 284 523Q325 523 356 516T422 490T474 430T493 326V0H365ZM258 102Q319 102 365 144V199Q323 216 270 216Q226 216 199 202T172 157Q172 132 194 117T258 102Z" />
<glyph unicode="&#xe3;" glyph-name="atilde" horiz-adv-x="558" d="M364 583Q326 583 274 606T199 629Q153 629 152 587H91Q91 725 206 725Q245 725 296 702T371 679Q417 679 418 721H479Q479 583 364 583ZM365 0V37Q316 -12 233 -12T98 32T45 157Q45 240 104
283T248 326Q315 326 365 302V328Q365 409 273 409Q189 409 115 358L75 463Q164 523 284 523Q325 523 356 516T422 490T474 430T493 326V0H365ZM258 102Q319 102 365 144V199Q323 216 270 216Q226 216 199 202T172 157Q172 132 194 117T258 102Z" />
<glyph unicode="&#xe4;" glyph-name="adieresis" horiz-adv-x="558" d="M190 581Q158 581 138 601T117 654Q117 685 138 706T190 727T242 706T263 654T242 602T190 581ZM380 581Q348 581 328 601T307 654Q307 685 328 706T380 727T432 706T453 654T432 602T380
581ZM365 0V37Q316 -12 233 -12T98 32T45 157Q45 240 104 283T248 326Q315 326 365 302V328Q365 409 273 409Q189 409 115 358L75 463Q164 523 284 523Q325 523 356 516T422 490T474 430T493 326V0H365ZM258 102Q319 102 365 144V199Q323 216 270 216Q226 216 199
202T172 157Q172 132 194 117T258 102Z" />
<glyph unicode="&#xe5;" glyph-name="aring" horiz-adv-x="558" d="M339 560T285 560T193 598T155 689Q155 743 193 780T285 817T377 780T415 689Q415 636 377 598ZM285 649Q300 649 312 660T324 689T312 717T285 729Q268 729 257 718T246 689T257 661T285 649ZM365
0V37Q316 -12 233 -12T98 32T45 157Q45 240 104 283T248 326Q315 326 365 302V328Q365 409 273 409Q189 409 115 358L75 463Q164 523 284 523Q325 523 356 516T422 490T474 430T493 326V0H365ZM258 102Q319 102 365 144V199Q323 216 270 216Q226 216 199 202T172
157Q172 132 194 117T258 102Z" />
<glyph unicode="&#xe6;" glyph-name="ae" horiz-adv-x="856" d="M221 -12Q144 -12 95 32T45 157Q45 242 101 285T235 328Q299 328 345 304V328Q345 409 260 409Q183 409 115 358L75 463Q165 523 274 523Q382 523 428 467Q484 523 584 523T747 462T811 282Q811
246 804 205H473Q477 157 508 130T584 102Q652 102 694 155L774 74Q703 -12 584 -12T403 70Q328 -12 221 -12ZM474 315H683Q677 360 651 384T584 409Q486 409 474 315ZM249 102Q307 102 345 144V199Q309 216 260 216Q221 216 197 202T172 157Q172 132 192 117T249
102Z" />
<glyph unicode="&#xe7;" glyph-name="ccedilla" horiz-adv-x="547" d="M265 -244Q190 -244 155 -197L211 -155Q225 -174 252 -174Q300 -174 300 -135T251 -96Q228 -96 208 -110L181 -77L238 -8Q150 6 100 75T50 255Q50 379 113 451T283 523Q448 523 496 373L372
332Q347 398 286 398Q239 398 211 359T182 255T210 152T283 113Q350 113 373 187L497 150Q455 3 310 -11L288 -46Q344 -46 372 -71T401 -136Q401 -184 365 -214T265 -244Z" />
<glyph unicode="&#xe8;" glyph-name="egrave" horiz-adv-x="560" d="M299 576L121 732H283L425 576H299ZM289 -12Q178 -12 114 59T50 256Q50 379 114 451T289 523Q389 523 452 462T515 282Q515 233 511 205H178Q182 157 213 130T289 102Q357 102 399 155L479 74Q408
-12 289 -12ZM179 315H388Q382 359 356 384T289 409Q191 409 179 315Z" />
<glyph unicode="&#xe9;" glyph-name="eacute" horiz-adv-x="560" d="M154 576L296 732H458L280 576H154ZM289 -12Q178 -12 114 59T50 256Q50 379 114 451T289 523Q389 523 452 462T515 282Q515 233 511 205H178Q182 157 213 130T289 102Q357 102 399 155L479 74Q408
-12 289 -12ZM179 315H388Q382 359 356 384T289 409Q191 409 179 315Z" />
<glyph unicode="&#xea;" glyph-name="ecircumflex" horiz-adv-x="560" d="M373 576L289 645L205 576H85L227 732H352L493 576H373ZM289 -12Q178 -12 114 59T50 256Q50 379 114 451T289 523Q389 523 452 462T515 282Q515 233 511 205H178Q182 157 213 130T289 102Q357
102 399 155L479 74Q408 -12 289 -12ZM179 315H388Q382 359 356 384T289 409Q191 409 179 315Z" />
<glyph unicode="&#xeb;" glyph-name="edieresis" horiz-adv-x="560" d="M194 581Q162 581 142 601T121 654Q121 685 142 706T194 727T246 706T267 654T246 602T194 581ZM384 581Q352 581 332 601T311 654Q311 685 332 706T384 727T436 706T457 654T436 602T384
581ZM289 -12Q178 -12 114 59T50 256Q50 379 114 451T289 523Q389 523 452 462T515 282Q515 233 511 205H178Q182 157 213 130T289 102Q357 102 399 155L479 74Q408 -12 289 -12ZM179 315H388Q382 359 356 384T289 409Q191 409 179 315Z" />
<glyph unicode="&#xec;" glyph-name="igrave" horiz-adv-x="282" d="M128 576L-50 732H112L254 576H128ZM76 0V511H206V0H76Z" />
<glyph unicode="&#xed;" glyph-name="iacute" horiz-adv-x="282" d="M28 576L170 732H332L154 576H28ZM76 0V511H206V0H76Z" />
<glyph unicode="&#xee;" glyph-name="icircumflex" horiz-adv-x="282" d="M225 576L141 645L57 576H-63L79 732H204L345 576H225ZM76 0V511H206V0H76Z" />
<glyph unicode="&#xef;" glyph-name="idieresis" horiz-adv-x="282" d="M46 581Q14 581 -6 601T-27 654Q-27 685 -6 706T46 727T98 706T119 654T98 602T46 581ZM236 581Q204 581 184 601T163 654Q163 685 184 706T236 727T288 706T309 654T288 602T236 581ZM76
0V511H206V0H76Z" />
<glyph unicode="&#xf0;" glyph-name="eth" horiz-adv-x="570" d="M285 -12Q183 -12 117 54T50 221Q50 318 113 387T275 456Q332 456 370 426Q357 487 306 535L248 475L176 542L216 583Q177 594 129 596V712Q233 709 305 677L362 736L433 668L389 622Q455 564 487
472T520 268Q520 145 460 67T285 -12ZM285 113Q330 113 360 143T390 220Q390 270 360 300T284 331Q239 331 210 301T180 221Q180 175 210 144T285 113Z" />
<glyph unicode="&#xf1;" glyph-name="ntilde" horiz-adv-x="591" d="M381 583Q343 583 291 606T216 629Q170 629 169 587H108Q108 725 223 725Q262 725 313 702T388 679Q434 679 435 721H496Q496 583 381 583ZM391 0V280Q391 342 370 370T302 398Q205 398 205
282V0H75V511H205V463Q254 523 342 523Q418 523 469 476T521 322V0H391Z" />
<glyph unicode="&#xf2;" glyph-name="ograve" horiz-adv-x="570" d="M292 576L114 732H276L418 576H292ZM394 -12T285 -12T113 59T50 255Q50 379 113 451T285 523T456 451T520 255Q520 130 457 59ZM285 113Q334 113 362 150T390 255T362 360T285 398Q237 398 209
360T180 255T208 151T285 113Z" />
<glyph unicode="&#xf3;" glyph-name="oacute" horiz-adv-x="570" d="M150 576L292 732H454L276 576H150ZM394 -12T285 -12T113 59T50 255Q50 379 113 451T285 523T456 451T520 255Q520 130 457 59ZM285 113Q334 113 362 150T390 255T362 360T285 398Q237 398 209
360T180 255T208 151T285 113Z" />
<glyph unicode="&#xf4;" glyph-name="ocircumflex" horiz-adv-x="570" d="M369 576L285 645L201 576H81L223 732H348L489 576H369ZM394 -12T285 -12T113 59T50 255Q50 379 113 451T285 523T456 451T520 255Q520 130 457 59ZM285 113Q334 113 362 150T390 255T362
360T285 398Q237 398 209 360T180 255T208 151T285 113Z" />
<glyph unicode="&#xf5;" glyph-name="otilde" horiz-adv-x="570" d="M364 583Q326 583 274 606T199 629Q153 629 152 587H91Q91 725 206 725Q245 725 296 702T371 679Q417 679 418 721H479Q479 583 364 583ZM394 -12T285 -12T113 59T50 255Q50 379 113 451T285
523T456 451T520 255Q520 130 457 59ZM285 113Q334 113 362 150T390 255T362 360T285 398Q237 398 209 360T180 255T208 151T285 113Z" />
<glyph unicode="&#xf6;" glyph-name="odieresis" horiz-adv-x="570" d="M190 581Q158 581 138 601T117 654Q117 685 138 706T190 727T242 706T263 654T242 602T190 581ZM380 581Q348 581 328 601T307 654Q307 685 328 706T380 727T432 706T453 654T432 602T380
581ZM394 -12T285 -12T113 59T50 255Q50 379 113 451T285 523T456 451T520 255Q520 130 457 59ZM285 113Q334 113 362 150T390 255T362 360T285 398Q237 398 209 360T180 255T208 151T285 113Z" />
<glyph unicode="&#xf7;" glyph-name="divide" horiz-adv-x="630" d="M348 446T315 446T260 468T237 522T259 576T315 598T370 576T393 522T371 468ZM80 280V406H550V280H80ZM348 88T315 88T260 110T237 164T259 218T315 240T370 218T393 164T371 110Z" />
<glyph unicode="&#xf8;" glyph-name="oslash" horiz-adv-x="570" d="M521 523L466 440Q520 369 520 255Q520 130 457 59T285 -12Q226 -12 181 9L167 -12H50L104 70Q50 139 50 255Q50 379 113 451T285 523Q345 523 390 501L404 523H521ZM180 255Q180 226 187 196L318
393Q301 398 285 398Q237 398 209 360T180 255ZM390 255Q390 290 383 314L253 118Q270 113 285 113Q334 113 362 150T390 255Z" />
<glyph unicode="&#xf9;" glyph-name="ugrave" horiz-adv-x="591" d="M299 576L121 732H283L425 576H299ZM386 0V48Q338 -12 249 -12Q174 -12 122 36T70 189V511H200V231Q200 170 221 142T289 113Q386 113 386 229V511H516V0H386Z" />
<glyph unicode="&#xfa;" glyph-name="uacute" horiz-adv-x="591" d="M154 576L296 732H458L280 576H154ZM386 0V48Q338 -12 249 -12Q174 -12 122 36T70 189V511H200V231Q200 170 221 142T289 113Q386 113 386 229V511H516V0H386Z" />
<glyph unicode="&#xfb;" glyph-name="ucircumflex" horiz-adv-x="591" d="M373 576L289 645L205 576H85L227 732H352L493 576H373ZM386 0V48Q338 -12 249 -12Q174 -12 122 36T70 189V511H200V231Q200 170 221 142T289 113Q386 113 386 229V511H516V0H386Z" />
<glyph unicode="&#xfc;" glyph-name="udieresis" horiz-adv-x="591" d="M194 581Q162 581 142 601T121 654Q121 685 142 706T194 727T246 706T267 654T246 602T194 581ZM384 581Q352 581 332 601T311 654Q311 685 332 706T384 727T436 706T457 654T436 602T384
581ZM386 0V48Q338 -12 249 -12Q174 -12 122 36T70 189V511H200V231Q200 170 221 142T289 113Q386 113 386 229V511H516V0H386Z" />
<glyph unicode="&#xfd;" glyph-name="yacute" horiz-adv-x="570" d="M150 576L292 732H454L276 576H150ZM139 -194L217 7L25 511H158L270 216Q279 194 285 169Q287 177 300 216L412 511H545L274 -194H139Z" />
<glyph unicode="&#xfe;" glyph-name="thorn" horiz-adv-x="571" d="M309 -12Q239 -12 200 37V-136L70 -197V650L200 712V474Q239 523 310 523Q407 523 464 453T521 255Q521 131 462 60T309 -12ZM289 113Q338 113 364 150T391 255Q391 321 365 359T289 398Q231
398 200 357V155Q226 113 289 113Z" />
<glyph unicode="&#xff;" glyph-name="ydieresis" horiz-adv-x="570" d="M190 581Q158 581 138 601T117 654Q117 685 138 706T190 727T242 706T263 654T242 602T190 581ZM380 581Q348 581 328 601T307 654Q307 685 328 706T380 727T432 706T453 654T432 602T380
581ZM139 -194L217 7L25 511H158L270 216Q279 194 285 169Q287 177 300 216L412 511H545L274 -194H139Z" />
<glyph unicode="&#x2013;" glyph-name="endash" horiz-adv-x="495" d="M50 230V344H445V230H50Z" />
<glyph unicode="&#x2014;" glyph-name="emdash" horiz-adv-x="575" d="M-5 230V344H580V230H-5Z" />
<glyph unicode="&#x2018;" glyph-name="quoteleft" horiz-adv-x="247" d="M120 418Q84 418 60 444T35 514Q35 571 70 624T157 712L212 671Q197 657 176 629T147 579Q204 559 204 501Q204 465 179 442T120 418Z" />
<glyph unicode="&#x2019;" glyph-name="quoteright" horiz-adv-x="247" d="M35 459Q51 473 71 501T100 551Q43 571 43 629Q43 665 68 688T127 712Q164 712 188 687T212 616Q212 560 176 505T90 418L35 459Z" />
<glyph unicode="&#x201a;" glyph-name="quotesinglbase" horiz-adv-x="247" d="M35 -100Q51 -86 71 -58T100 -8Q43 12 43 70Q43 106 68 129T127 153Q164 153 188 128T212 57Q212 1 176 -54T90 -141L35 -100Z" />
<glyph unicode="&#x201c;" glyph-name="quotedblleft" horiz-adv-x="486" d="M120 418Q84 418 60 444T35 514Q35 571 70 624T157 712L212 671Q197 657 176 629T147 579Q204 559 204 501Q204 465 179 442T120 418ZM359 418Q322 418 298 444T274 514Q274 570 309
624T396 712L451 671Q435 657 415 629T386 579Q443 559 443 501Q443 465 418 442T359 418Z" />
<glyph unicode="&#x201d;" glyph-name="quotedblright" horiz-adv-x="486" d="M35 459Q51 473 71 501T100 551Q43 571 43 629Q43 665 68 688T127 712Q164 712 188 687T212 616Q212 560 176 505T90 418L35 459ZM274 459Q290 473 310 501T339 551Q282 571 282 629Q282
665 307 688T366 712Q403 712 427 687T451 616Q451 560 416 504T329 418L274 459Z" />
<glyph unicode="&#x201e;" glyph-name="quotedblbase" horiz-adv-x="486" d="M35 -100Q51 -86 71 -58T100 -8Q43 12 43 70Q43 106 68 129T127 153Q164 153 188 128T212 57Q212 1 176 -54T90 -141L35 -100ZM274 -100Q290 -86 310 -58T339 -8Q282 12 282 70Q282
106 307 129T366 153Q403 153 427 128T451 57Q451 1 416 -55T329 -141L274 -100Z" />
<glyph unicode="&#x2022;" glyph-name="bullet" horiz-adv-x="421" d="M272 205T209 205T103 247T60 350T103 453T209 496T316 453T361 350T317 248Z" />
<glyph unicode="&#x2039;" glyph-name="guilsinglleft" horiz-adv-x="337" d="M182 0L30 256L182 511H322L170 256L322 0H182Z" />
<glyph unicode="&#x203a;" glyph-name="guilsinglright" horiz-adv-x="337" d="M15 0L167 256L15 511H155L307 256L155 0H15Z" />
</font>
</defs>
</svg>
